0, 0, Header, 0, 1, 96
1, 0, Start_track
1, 0, Tempo, 120000
1, 288, Note_on_c, 0, 74, 75
1, 377, Note_on_c, 0, 74, 0
1, 384, Note_on_c, 0, 72, 75
1, 384, Note_on_c, 1, 55, 75
1, 384, Note_on_c, 1, 43, 75
1, 429, Note_on_c, 0, 72, 0
1, 432, Note_on_c, 0, 70, 75
1, 473, Note_on_c, 1, 55, 0
1, 473, Note_on_c, 1, 43, 0
1, 477, Note_on_c, 0, 70, 0
1, 480, Note_on_c, 0, 69, 75
1, 525, Note_on_c, 0, 69, 0
1, 528, Note_on_c, 0, 67, 75
1, 573, Note_on_c, 0, 67, 0
1, 576, Note_on_c, 0, 67, 75
1, 615, Note_on_c, 0, 67, 0
1, 672, Note_on_c, 0, 69, 75
1, 672, Note_on_c, 1, 54, 75
1, 672, Note_on_c, 1, 50, 75
1, 761, Note_on_c, 0, 69, 0
1, 761, Note_on_c, 1, 54, 0
1, 761, Note_on_c, 1, 50, 0
1, 768, Note_on_c, 0, 72, 75
1, 768, Note_on_c, 1, 55, 75
1, 768, Note_on_c, 1, 50, 64
1, 783, Note_on_c, 0, 72, 0
1, 784, Note_on_c, 0, 70, 75
1, 799, Note_on_c, 0, 70, 0
1, 800, Note_on_c, 0, 72, 75
1, 815, Note_on_c, 0, 72, 0
1, 816, Note_on_c, 0, 70, 75
1, 831, Note_on_c, 0, 70, 0
1, 832, Note_on_c, 0, 69, 75
1, 847, Note_on_c, 0, 69, 0
1, 848, Note_on_c, 0, 70, 75
1, 857, Note_on_c, 1, 55, 0
1, 863, Note_on_c, 0, 70, 0
1, 864, Note_on_c, 0, 69, 75
1, 864, Note_on_c, 1, 54, 75
1, 945, Note_on_c, 1, 50, 0
1, 953, Note_on_c, 0, 69, 0
1, 953, Note_on_c, 1, 54, 0
1, 1056, Note_on_c, 0, 74, 75
1, 1056, Note_on_c, 1, 58, 75
1, 1056, Note_on_c, 1, 46, 75
1, 1145, Note_on_c, 0, 74, 0
1, 1145, Note_on_c, 1, 58, 0
1, 1145, Note_on_c, 1, 46, 0
1, 1152, Note_on_c, 0, 75, 75
1, 1152, Note_on_c, 1, 60, 75
1, 1152, Note_on_c, 1, 48, 75
1, 1200, Note_on_c, 0, 75, 0
1, 1200, Note_on_c, 0, 72, 75
1, 1245, Note_on_c, 0, 72, 0
1, 1248, Note_on_c, 0, 70, 75
1, 1293, Note_on_c, 0, 70, 0
1, 1296, Note_on_c, 0, 69, 75
1, 1329, Note_on_c, 1, 60, 0
1, 1329, Note_on_c, 1, 48, 0
1, 1341, Note_on_c, 0, 69, 0
1, 1344, Note_on_c, 0, 74, 75
1, 1433, Note_on_c, 0, 74, 0
1, 1440, Note_on_c, 0, 66, 75
1, 1440, Note_on_c, 1, 62, 75
1, 1440, Note_on_c, 1, 50, 75
1, 1529, Note_on_c, 0, 66, 0
1, 1529, Note_on_c, 1, 62, 0
1, 1529, Note_on_c, 1, 50, 0
1, 1536, Note_on_c, 0, 69, 75
1, 1536, Note_on_c, 1, 58, 75
1, 1536, Note_on_c, 1, 46, 75
1, 1551, Note_on_c, 0, 69, 0
1, 1552, Note_on_c, 0, 67, 75
1, 1567, Note_on_c, 0, 67, 0
1, 1568, Note_on_c, 0, 69, 75
1, 1583, Note_on_c, 0, 69, 0
1, 1584, Note_on_c, 0, 67, 75
1, 1599, Note_on_c, 0, 67, 0
1, 1600, Note_on_c, 0, 66, 75
1, 1615, Note_on_c, 0, 66, 0
1, 1616, Note_on_c, 0, 67, 75
1, 1625, Note_on_c, 1, 58, 0
1, 1625, Note_on_c, 1, 46, 0
1, 1631, Note_on_c, 0, 67, 0
1, 1632, Note_on_c, 0, 69, 75
1, 1632, Note_on_c, 1, 54, 75
1, 1632, Note_on_c, 1, 42, 75
1, 1721, Note_on_c, 0, 69, 0
1, 1721, Note_on_c, 1, 54, 0
1, 1721, Note_on_c, 1, 42, 0
1, 1728, Note_on_c, 0, 72, 75
1, 1728, Note_on_c, 1, 55, 75
1, 1728, Note_on_c, 1, 43, 75
1, 1743, Note_on_c, 0, 72, 0
1, 1744, Note_on_c, 0, 70, 75
1, 1759, Note_on_c, 0, 70, 0
1, 1760, Note_on_c, 0, 72, 75
1, 1775, Note_on_c, 0, 72, 0
1, 1776, Note_on_c, 0, 70, 75
1, 1791, Note_on_c, 0, 70, 0
1, 1792, Note_on_c, 0, 69, 75
1, 1807, Note_on_c, 0, 69, 0
1, 1808, Note_on_c, 0, 70, 75
1, 1817, Note_on_c, 1, 55, 0
1, 1817, Note_on_c, 1, 43, 0
1, 1823, Note_on_c, 0, 70, 0
1, 1824, Note_on_c, 0, 72, 75
1, 1824, Note_on_c, 1, 57, 75
1, 1824, Note_on_c, 1, 45, 75
1, 1913, Note_on_c, 0, 72, 0
1, 1913, Note_on_c, 1, 57, 0
1, 1913, Note_on_c, 1, 45, 0
1, 1920, Note_on_c, 0, 74, 75
1, 1920, Note_on_c, 1, 58, 75
1, 1920, Note_on_c, 1, 46, 75
1, 1968, Note_on_c, 0, 74, 0
1, 1968, Note_on_c, 0, 70, 75
1, 2009, Note_on_c, 1, 58, 0
1, 2009, Note_on_c, 1, 46, 0
1, 2013, Note_on_c, 0, 70, 0
1, 2016, Note_on_c, 0, 69, 75
1, 2016, Note_on_c, 1, 63, 75
1, 2016, Note_on_c, 1, 51, 75
1, 2061, Note_on_c, 0, 69, 0
1, 2064, Note_on_c, 0, 67, 75
1, 2105, Note_on_c, 1, 63, 0
1, 2105, Note_on_c, 1, 51, 0
1, 2109, Note_on_c, 0, 67, 0
1, 2112, Note_on_c, 0, 72, 75
1, 2112, Note_on_c, 1, 60, 75
1, 2112, Note_on_c, 1, 48, 75
1, 2160, Note_on_c, 0, 72, 0
1, 2160, Note_on_c, 0, 69, 75
1, 2201, Note_on_c, 1, 60, 0
1, 2201, Note_on_c, 1, 48, 0
1, 2205, Note_on_c, 0, 69, 0
1, 2208, Note_on_c, 0, 67, 75
1, 2208, Note_on_c, 1, 62, 75
1, 2208, Note_on_c, 1, 50, 75
1, 2253, Note_on_c, 0, 67, 0
1, 2256, Note_on_c, 0, 66, 75
1, 2297, Note_on_c, 1, 62, 0
1, 2297, Note_on_c, 1, 50, 0
1, 2301, Note_on_c, 0, 66, 0
1, 2304, Note_on_c, 0, 69, 75
1, 2316, Note_on_c, 0, 69, 0
1, 2316, Note_on_c, 0, 67, 75
1, 2328, Note_on_c, 0, 67, 0
1, 2328, Note_on_c, 0, 66, 75
1, 2340, Note_on_c, 0, 66, 0
1, 2340, Note_on_c, 0, 67, 75
1, 2393, Note_on_c, 0, 67, 0
1, 2400, Note_on_c, 0, 62, 75
1, 2400, Note_on_c, 1, 58, 75
1, 2400, Note_on_c, 1, 46, 75
1, 2489, Note_on_c, 0, 62, 0
1, 2489, Note_on_c, 1, 58, 0
1, 2489, Note_on_c, 1, 46, 0
1, 2496, Note_on_c, 1, 57, 75
1, 2496, Note_on_c, 1, 45, 75
1, 2585, Note_on_c, 1, 57, 0
1, 2585, Note_on_c, 1, 45, 0
1, 2592, Note_on_c, 0, 74, 75
1, 2592, Note_on_c, 1, 55, 75
1, 2592, Note_on_c, 1, 43, 75
1, 2681, Note_on_c, 0, 74, 0
1, 2681, Note_on_c, 1, 55, 0
1, 2681, Note_on_c, 1, 43, 0
1, 2688, Note_on_c, 0, 72, 75
1, 2736, Note_on_c, 0, 72, 0
1, 2736, Note_on_c, 0, 70, 75
1, 2781, Note_on_c, 0, 70, 0
1, 2784, Note_on_c, 0, 69, 75
1, 2784, Note_on_c, 1, 58, 70
1, 2784, Note_on_c, 1, 55, 70
1, 2829, Note_on_c, 0, 69, 0
1, 2832, Note_on_c, 0, 67, 75
1, 2877, Note_on_c, 0, 67, 0
1, 2878, Note_on_c, 1, 58, 0
1, 2878, Note_on_c, 1, 55, 0
1, 2880, Note_on_c, 0, 75, 75
1, 2880, Note_on_c, 1, 58, 70
1, 2880, Note_on_c, 1, 55, 70
1, 2969, Note_on_c, 0, 75, 0
1, 2974, Note_on_c, 1, 58, 0
1, 2974, Note_on_c, 1, 55, 0
1, 2976, Note_on_c, 0, 75, 75
1, 2976, Note_on_c, 1, 58, 70
1, 2976, Note_on_c, 1, 55, 70
1, 3065, Note_on_c, 0, 75, 0
1, 3070, Note_on_c, 1, 58, 0
1, 3070, Note_on_c, 1, 55, 0
1, 3072, Note_on_c, 0, 75, 75
1, 3072, Note_on_c, 1, 57, 70
1, 3072, Note_on_c, 1, 54, 70
1, 3085, Note_on_c, 0, 75, 0
1, 3086, Note_on_c, 0, 77, 75
1, 3099, Note_on_c, 0, 77, 0
1, 3100, Note_on_c, 0, 75, 75
1, 3113, Note_on_c, 0, 75, 0
1, 3114, Note_on_c, 0, 77, 75
1, 3127, Note_on_c, 0, 77, 0
1, 3128, Note_on_c, 0, 75, 75
1, 3141, Note_on_c, 0, 75, 0
1, 3142, Note_on_c, 0, 74, 75
1, 3154, Note_on_c, 0, 74, 0
1, 3155, Note_on_c, 0, 75, 75
1, 3167, Note_on_c, 0, 75, 0
1, 3168, Note_on_c, 0, 74, 75
1, 3249, Note_on_c, 1, 57, 0
1, 3249, Note_on_c, 1, 54, 0
1, 3257, Note_on_c, 0, 74, 0
1, 3264, Note_on_c, 1, 56, 70
1, 3264, Note_on_c, 1, 53, 70
1, 3312, Note_on_c, 0, 74, 75
1, 3357, Note_on_c, 0, 74, 0
1, 3360, Note_on_c, 0, 77, 75
1, 3405, Note_on_c, 0, 77, 0
1, 3408, Note_on_c, 0, 80, 75
1, 3441, Note_on_c, 1, 56, 0
1, 3441, Note_on_c, 1, 53, 0
1, 3453, Note_on_c, 0, 80, 0
1, 3456, Note_on_c, 0, 71, 75
1, 3456, Note_on_c, 1, 55, 70
1, 3456, Note_on_c, 1, 53, 64
1, 3523, Note_on_c, 0, 71, 0
1, 3528, Note_on_c, 0, 72, 75
1, 3540, Note_on_c, 0, 72, 0
1, 3540, Note_on_c, 0, 74, 75
1, 3552, Note_on_c, 0, 74, 0
1, 3552, Note_on_c, 0, 72, 75
1, 3552, Note_on_c, 1, 53, 0
1, 3552, Note_on_c, 1, 51, 64
1, 3633, Note_on_c, 1, 55, 0
1, 3641, Note_on_c, 0, 72, 0
1, 3641, Note_on_c, 1, 51, 0
1, 3648, Note_on_c, 0, 79, 75
1, 3693, Note_on_c, 0, 79, 0
1, 3696, Note_on_c, 0, 75, 75
1, 3741, Note_on_c, 0, 75, 0
1, 3744, Note_on_c, 0, 72, 75
1, 3744, Note_on_c, 1, 55, 70
1, 3744, Note_on_c, 1, 51, 70
1, 3789, Note_on_c, 0, 72, 0
1, 3792, Note_on_c, 0, 70, 75
1, 3833, Note_on_c, 1, 55, 0
1, 3833, Note_on_c, 1, 51, 0
1, 3837, Note_on_c, 0, 70, 0
1, 3840, Note_on_c, 0, 69, 75
1, 3840, Note_on_c, 1, 53, 70
1, 3840, Note_on_c, 1, 51, 64
1, 3907, Note_on_c, 0, 69, 0
1, 3912, Note_on_c, 0, 70, 75
1, 3924, Note_on_c, 0, 70, 0
1, 3924, Note_on_c, 0, 72, 75
1, 3936, Note_on_c, 0, 72, 0
1, 3936, Note_on_c, 0, 70, 75
1, 3936, Note_on_c, 1, 51, 0
1, 3936, Note_on_c, 1, 50, 64
1, 4017, Note_on_c, 1, 53, 0
1, 4025, Note_on_c, 0, 70, 0
1, 4025, Note_on_c, 1, 50, 0
1, 4032, Note_on_c, 0, 77, 75
1, 4077, Note_on_c, 0, 77, 0
1, 4080, Note_on_c, 0, 74, 75
1, 4125, Note_on_c, 0, 74, 0
1, 4128, Note_on_c, 0, 72, 75
1, 4128, Note_on_c, 1, 62, 75
1, 4128, Note_on_c, 1, 50, 75
1, 4173, Note_on_c, 0, 72, 0
1, 4176, Note_on_c, 0, 70, 75
1, 4217, Note_on_c, 1, 62, 0
1, 4217, Note_on_c, 1, 50, 0
1, 4221, Note_on_c, 0, 70, 0
1, 4224, Note_on_c, 0, 69, 75
1, 4224, Note_on_c, 1, 63, 75
1, 4224, Note_on_c, 1, 51, 75
1, 4269, Note_on_c, 0, 69, 0
1, 4272, Note_on_c, 0, 72, 75
1, 4313, Note_on_c, 1, 63, 0
1, 4313, Note_on_c, 1, 51, 0
1, 4317, Note_on_c, 0, 72, 0
1, 4320, Note_on_c, 0, 70, 75
1, 4320, Note_on_c, 1, 62, 75
1, 4320, Note_on_c, 1, 50, 75
1, 4365, Note_on_c, 0, 70, 0
1, 4368, Note_on_c, 0, 65, 75
1, 4409, Note_on_c, 1, 62, 0
1, 4409, Note_on_c, 1, 50, 0
1, 4413, Note_on_c, 0, 65, 0
1, 4416, Note_on_c, 0, 77, 75
1, 4461, Note_on_c, 0, 77, 0
1, 4464, Note_on_c, 0, 74, 75
1, 4509, Note_on_c, 0, 74, 0
1, 4512, Note_on_c, 0, 72, 75
1, 4512, Note_on_c, 1, 62, 75
1, 4512, Note_on_c, 1, 50, 75
1, 4557, Note_on_c, 0, 72, 0
1, 4560, Note_on_c, 0, 70, 75
1, 4601, Note_on_c, 1, 62, 0
1, 4601, Note_on_c, 1, 50, 0
1, 4605, Note_on_c, 0, 70, 0
1, 4608, Note_on_c, 0, 72, 75
1, 4608, Note_on_c, 1, 57, 75
1, 4608, Note_on_c, 1, 45, 75
1, 4653, Note_on_c, 0, 72, 0
1, 4656, Note_on_c, 0, 75, 75
1, 4697, Note_on_c, 1, 57, 0
1, 4697, Note_on_c, 1, 45, 0
1, 4701, Note_on_c, 0, 75, 0
1, 4704, Note_on_c, 0, 74, 75
1, 4704, Note_on_c, 1, 58, 75
1, 4704, Note_on_c, 1, 46, 75
1, 4749, Note_on_c, 0, 74, 0
1, 4752, Note_on_c, 0, 70, 75
1, 4793, Note_on_c, 1, 58, 0
1, 4793, Note_on_c, 1, 46, 0
1, 4797, Note_on_c, 0, 70, 0
1, 4800, Note_on_c, 0, 65, 75
1, 4845, Note_on_c, 0, 65, 0
1, 4848, Note_on_c, 0, 70, 75
1, 4893, Note_on_c, 0, 70, 0
1, 4896, Note_on_c, 0, 74, 75
1, 4896, Note_on_c, 1, 62, 75
1, 4896, Note_on_c, 1, 50, 75
1, 4941, Note_on_c, 0, 74, 0
1, 4944, Note_on_c, 0, 77, 75
1, 4985, Note_on_c, 1, 62, 0
1, 4985, Note_on_c, 1, 50, 0
1, 4989, Note_on_c, 0, 77, 0
1, 4992, Note_on_c, 0, 77, 75
1, 4992, Note_on_c, 1, 63, 75
1, 4992, Note_on_c, 1, 51, 75
1, 5037, Note_on_c, 0, 77, 0
1, 5040, Note_on_c, 0, 67, 75
1, 5085, Note_on_c, 0, 67, 0
1, 5088, Note_on_c, 0, 66, 75
1, 5133, Note_on_c, 0, 66, 0
1, 5136, Note_on_c, 0, 67, 75
1, 5169, Note_on_c, 1, 63, 0
1, 5169, Note_on_c, 1, 51, 0
1, 5181, Note_on_c, 0, 67, 0
1, 5184, Note_on_c, 0, 75, 75
1, 5184, Note_on_c, 1, 60, 75
1, 5184, Note_on_c, 1, 48, 75
1, 5229, Note_on_c, 0, 75, 0
1, 5232, Note_on_c, 0, 72, 75
1, 5273, Note_on_c, 1, 60, 0
1, 5273, Note_on_c, 1, 48, 0
1, 5277, Note_on_c, 0, 72, 0
1, 5280, Note_on_c, 0, 70, 75
1, 5280, Note_on_c, 1, 65, 75
1, 5280, Note_on_c, 1, 53, 75
1, 5325, Note_on_c, 0, 70, 0
1, 5328, Note_on_c, 0, 69, 75
1, 5369, Note_on_c, 1, 65, 0
1, 5369, Note_on_c, 1, 53, 0
1, 5373, Note_on_c, 0, 69, 0
1, 5376, Note_on_c, 0, 70, 75
1, 5376, Note_on_c, 1, 62, 75
1, 5376, Note_on_c, 1, 50, 75
1, 5421, Note_on_c, 0, 70, 0
1, 5424, Note_on_c, 0, 74, 75
1, 5465, Note_on_c, 1, 62, 0
1, 5465, Note_on_c, 1, 50, 0
1, 5469, Note_on_c, 0, 74, 0
1, 5472, Note_on_c, 0, 65, 75
1, 5472, Note_on_c, 1, 50, 75
1, 5472, Note_on_c, 1, 38, 75
1, 5517, Note_on_c, 0, 65, 0
1, 5520, Note_on_c, 0, 77, 75
1, 5561, Note_on_c, 1, 50, 0
1, 5561, Note_on_c, 1, 38, 0
1, 5565, Note_on_c, 0, 77, 0
1, 5568, Note_on_c, 0, 67, 76
1, 5568, Note_on_c, 1, 51, 76
1, 5568, Note_on_c, 1, 39, 76
1, 5613, Note_on_c, 0, 67, 0
1, 5616, Note_on_c, 0, 75, 77
1, 5657, Note_on_c, 1, 51, 0
1, 5657, Note_on_c, 1, 39, 0
1, 5661, Note_on_c, 0, 75, 0
1, 5664, Note_on_c, 0, 72, 77
1, 5664, Note_on_c, 1, 53, 77
1, 5664, Note_on_c, 1, 41, 77
1, 5709, Note_on_c, 0, 72, 0
1, 5712, Note_on_c, 0, 69, 78
1, 5753, Note_on_c, 1, 53, 0
1, 5753, Note_on_c, 1, 41, 0
1, 5757, Note_on_c, 0, 69, 0
1, 5760, Note_on_c, 0, 70, 79
1, 5760, Note_on_c, 1, 55, 78
1, 5760, Note_on_c, 1, 43, 78
1, 5805, Note_on_c, 0, 70, 0
1, 5808, Note_on_c, 0, 74, 80
1, 5849, Note_on_c, 1, 55, 0
1, 5849, Note_on_c, 1, 43, 0
1, 5853, Note_on_c, 0, 74, 0
1, 5856, Note_on_c, 0, 65, 75
1, 5856, Note_on_c, 1, 50, 75
1, 5856, Note_on_c, 1, 38, 75
1, 5901, Note_on_c, 0, 65, 0
1, 5904, Note_on_c, 0, 77, 75
1, 5945, Note_on_c, 1, 50, 0
1, 5945, Note_on_c, 1, 38, 0
1, 5949, Note_on_c, 0, 77, 0
1, 5952, Note_on_c, 0, 67, 75
1, 5952, Note_on_c, 1, 51, 75
1, 5952, Note_on_c, 1, 39, 75
1, 5997, Note_on_c, 0, 67, 0
1, 6000, Note_on_c, 0, 75, 76
1, 6041, Note_on_c, 1, 51, 0
1, 6041, Note_on_c, 1, 39, 0
1, 6045, Note_on_c, 0, 75, 0
1, 6048, Note_on_c, 0, 72, 76
1, 6048, Note_on_c, 1, 53, 76
1, 6048, Note_on_c, 1, 41, 76
1, 6093, Note_on_c, 0, 72, 0
1, 6096, Note_on_c, 0, 69, 76
1, 6137, Note_on_c, 1, 53, 0
1, 6137, Note_on_c, 1, 41, 0
1, 6141, Note_on_c, 0, 69, 0
1, 6144, Note_on_c, 0, 70, 77
1, 6144, Note_on_c, 1, 55, 77
1, 6144, Note_on_c, 1, 43, 77
1, 6189, Note_on_c, 0, 70, 0
1, 6192, Note_on_c, 0, 79, 77
1, 6233, Note_on_c, 1, 55, 0
1, 6233, Note_on_c, 1, 43, 0
1, 6237, Note_on_c, 0, 79, 0
1, 6240, Note_on_c, 0, 75, 77
1, 6240, Note_on_c, 1, 57, 77
1, 6240, Note_on_c, 1, 45, 77
1, 6285, Note_on_c, 0, 75, 0
1, 6288, Note_on_c, 0, 72, 78
1, 6329, Note_on_c, 1, 57, 0
1, 6329, Note_on_c, 1, 45, 0
1, 6333, Note_on_c, 0, 72, 0
1, 6336, Note_on_c, 0, 74, 78
1, 6336, Note_on_c, 1, 58, 78
1, 6336, Note_on_c, 1, 46, 78
1, 6381, Note_on_c, 0, 74, 0
1, 6384, Note_on_c, 0, 82, 78
1, 6425, Note_on_c, 1, 58, 0
1, 6425, Note_on_c, 1, 46, 0
1, 6429, Note_on_c, 0, 82, 0
1, 6432, Note_on_c, 0, 79, 79
1, 6432, Note_on_c, 1, 60, 79
1, 6432, Note_on_c, 1, 48, 79
1, 6477, Note_on_c, 0, 79, 0
1, 6480, Note_on_c, 0, 76, 79
1, 6521, Note_on_c, 1, 60, 0
1, 6521, Note_on_c, 1, 48, 0
1, 6525, Note_on_c, 0, 76, 0
1, 6528, Note_on_c, 0, 77, 80
1, 6528, Note_on_c, 1, 57, 80
1, 6528, Note_on_c, 1, 45, 80
1, 6573, Note_on_c, 0, 77, 0
1, 6576, Note_on_c, 0, 84, 80
1, 6621, Note_on_c, 0, 84, 0
1, 6624, Note_on_c, 0, 81, 80
1, 6669, Note_on_c, 0, 81, 0
1, 6672, Note_on_c, 0, 77, 80
1, 6705, Note_on_c, 1, 57, 0
1, 6705, Note_on_c, 1, 45, 0
1, 6717, Note_on_c, 0, 77, 0
1, 6720, Note_on_c, 0, 75, 80
1, 6734, Note_on_c, 0, 75, 0
1, 6735, Note_on_c, 0, 77, 80
1, 6749, Note_on_c, 0, 77, 0
1, 6750, Note_on_c, 0, 75, 80
1, 6764, Note_on_c, 0, 75, 0
1, 6765, Note_on_c, 0, 77, 80
1, 6779, Note_on_c, 0, 77, 0
1, 6780, Note_on_c, 0, 75, 80
1, 6794, Note_on_c, 0, 75, 0
1, 6795, Note_on_c, 0, 77, 80
1, 6809, Note_on_c, 0, 77, 0
1, 6810, Note_on_c, 0, 75, 80
1, 6816, Note_on_c, 1, 57, 80
1, 6824, Note_on_c, 0, 75, 0
1, 6825, Note_on_c, 0, 77, 80
1, 6839, Note_on_c, 0, 77, 0
1, 6840, Note_on_c, 0, 75, 80
1, 6854, Note_on_c, 0, 75, 0
1, 6855, Note_on_c, 0, 74, 80
1, 6883, Note_on_c, 0, 74, 0
1, 6884, Note_on_c, 0, 75, 80
1, 6905, Note_on_c, 1, 57, 0
1, 6911, Note_on_c, 0, 75, 0
1, 6912, Note_on_c, 0, 74, 80
1, 6912, Note_on_c, 1, 58, 80
1, 7001, Note_on_c, 0, 74, 0
1, 7001, Note_on_c, 1, 58, 0
1, 7008, Note_on_c, 0, 70, 75
1, 7008, Note_on_c, 1, 58, 75
1, 7053, Note_on_c, 1, 58, 0
1, 7056, Note_on_c, 1, 62, 75
1, 7097, Note_on_c, 0, 70, 0
1, 7101, Note_on_c, 1, 62, 0
1, 7104, Note_on_c, 0, 70, 75
1, 7104, Note_on_c, 1, 60, 75
1, 7149, Note_on_c, 1, 60, 0
1, 7152, Note_on_c, 1, 63, 75
1, 7193, Note_on_c, 0, 70, 0
1, 7197, Note_on_c, 1, 63, 0
1, 7200, Note_on_c, 0, 70, 75
1, 7200, Note_on_c, 1, 62, 75
1, 7245, Note_on_c, 1, 62, 0
1, 7248, Note_on_c, 1, 65, 75
1, 7289, Note_on_c, 0, 70, 0
1, 7293, Note_on_c, 1, 65, 0
1, 7296, Note_on_c, 0, 70, 75
1, 7296, Note_on_c, 1, 63, 75
1, 7341, Note_on_c, 0, 70, 0
1, 7344, Note_on_c, 0, 82, 75
1, 7389, Note_on_c, 0, 82, 0
1, 7392, Note_on_c, 0, 79, 75
1, 7429, Note_on_c, 1, 63, 0
1, 7437, Note_on_c, 0, 79, 0
1, 7440, Note_on_c, 0, 75, 75
1, 7440, Note_on_c, 1, 67, 75
1, 7485, Note_on_c, 0, 75, 0
1, 7485, Note_on_c, 1, 67, 0
1, 7488, Note_on_c, 0, 74, 75
1, 7488, Note_on_c, 1, 65, 75
1, 7533, Note_on_c, 0, 74, 0
1, 7536, Note_on_c, 0, 70, 75
1, 7577, Note_on_c, 1, 65, 0
1, 7581, Note_on_c, 0, 70, 0
1, 7584, Note_on_c, 0, 72, 75
1, 7584, Note_on_c, 1, 53, 75
1, 7629, Note_on_c, 0, 72, 0
1, 7632, Note_on_c, 0, 69, 75
1, 7673, Note_on_c, 1, 53, 0
1, 7677, Note_on_c, 0, 69, 0
1, 7680, Note_on_c, 0, 72, 75
1, 7680, Note_on_c, 1, 58, 75
1, 7692, Note_on_c, 0, 72, 0
1, 7692, Note_on_c, 0, 70, 75
1, 7704, Note_on_c, 0, 70, 0
1, 7704, Note_on_c, 0, 69, 75
1, 7716, Note_on_c, 0, 69, 0
1, 7716, Note_on_c, 0, 70, 75
1, 7769, Note_on_c, 1, 58, 0
1, 7776, Note_on_c, 1, 53, 75
1, 7857, Note_on_c, 0, 70, 0
1, 7865, Note_on_c, 1, 53, 0
1, 7872, Note_on_c, 1, 46, 75
1, 7961, Note_on_c, 1, 46, 0
1, 7968, Note_on_c, 0, 74, 75
1, 8057, Note_on_c, 0, 74, 0
1, 8064, Note_on_c, 0, 72, 75
1, 8064, Note_on_c, 1, 55, 75
1, 8064, Note_on_c, 1, 43, 75
1, 8109, Note_on_c, 0, 72, 0
1, 8112, Note_on_c, 0, 70, 75
1, 8153, Note_on_c, 1, 55, 0
1, 8153, Note_on_c, 1, 43, 0
1, 8157, Note_on_c, 0, 70, 0
1, 8160, Note_on_c, 0, 69, 75
1, 8205, Note_on_c, 0, 69, 0
1, 8208, Note_on_c, 0, 67, 75
1, 8253, Note_on_c, 0, 67, 0
1, 8256, Note_on_c, 0, 67, 75
1, 8295, Note_on_c, 0, 67, 0
1, 8352, Note_on_c, 0, 69, 75
1, 8352, Note_on_c, 1, 54, 75
1, 8352, Note_on_c, 1, 50, 75
1, 8441, Note_on_c, 0, 69, 0
1, 8441, Note_on_c, 1, 54, 0
1, 8441, Note_on_c, 1, 50, 0
1, 8448, Note_on_c, 0, 72, 75
1, 8448, Note_on_c, 1, 55, 75
1, 8448, Note_on_c, 1, 50, 64
1, 8463, Note_on_c, 0, 72, 0
1, 8464, Note_on_c, 0, 70, 75
1, 8479, Note_on_c, 0, 70, 0
1, 8480, Note_on_c, 0, 72, 75
1, 8495, Note_on_c, 0, 72, 0
1, 8496, Note_on_c, 0, 70, 75
1, 8511, Note_on_c, 0, 70, 0
1, 8512, Note_on_c, 0, 69, 75
1, 8527, Note_on_c, 0, 69, 0
1, 8528, Note_on_c, 0, 70, 75
1, 8537, Note_on_c, 1, 55, 0
1, 8543, Note_on_c, 0, 70, 0
1, 8544, Note_on_c, 0, 69, 75
1, 8544, Note_on_c, 1, 54, 75
1, 8625, Note_on_c, 1, 50, 0
1, 8633, Note_on_c, 0, 69, 0
1, 8633, Note_on_c, 1, 54, 0
1, 8736, Note_on_c, 0, 74, 75
1, 8736, Note_on_c, 1, 58, 75
1, 8736, Note_on_c, 1, 46, 75
1, 8825, Note_on_c, 0, 74, 0
1, 8825, Note_on_c, 1, 58, 0
1, 8825, Note_on_c, 1, 46, 0
1, 8832, Note_on_c, 0, 75, 75
1, 8832, Note_on_c, 1, 60, 75
1, 8832, Note_on_c, 1, 48, 75
1, 8880, Note_on_c, 0, 75, 0
1, 8880, Note_on_c, 0, 72, 75
1, 8925, Note_on_c, 0, 72, 0
1, 8928, Note_on_c, 0, 70, 75
1, 8973, Note_on_c, 0, 70, 0
1, 8976, Note_on_c, 0, 69, 75
1, 9009, Note_on_c, 1, 60, 0
1, 9009, Note_on_c, 1, 48, 0
1, 9021, Note_on_c, 0, 69, 0
1, 9024, Note_on_c, 0, 74, 75
1, 9113, Note_on_c, 0, 74, 0
1, 9120, Note_on_c, 0, 66, 75
1, 9120, Note_on_c, 1, 62, 75
1, 9120, Note_on_c, 1, 50, 75
1, 9209, Note_on_c, 0, 66, 0
1, 9209, Note_on_c, 1, 62, 0
1, 9209, Note_on_c, 1, 50, 0
1, 9216, Note_on_c, 0, 69, 75
1, 9216, Note_on_c, 1, 58, 75
1, 9216, Note_on_c, 1, 46, 75
1, 9231, Note_on_c, 0, 69, 0
1, 9232, Note_on_c, 0, 67, 75
1, 9247, Note_on_c, 0, 67, 0
1, 9248, Note_on_c, 0, 69, 75
1, 9263, Note_on_c, 0, 69, 0
1, 9264, Note_on_c, 0, 67, 75
1, 9279, Note_on_c, 0, 67, 0
1, 9280, Note_on_c, 0, 66, 75
1, 9295, Note_on_c, 0, 66, 0
1, 9296, Note_on_c, 0, 67, 75
1, 9305, Note_on_c, 1, 58, 0
1, 9305, Note_on_c, 1, 46, 0
1, 9311, Note_on_c, 0, 67, 0
1, 9312, Note_on_c, 0, 69, 75
1, 9312, Note_on_c, 1, 54, 75
1, 9312, Note_on_c, 1, 42, 75
1, 9401, Note_on_c, 0, 69, 0
1, 9401, Note_on_c, 1, 54, 0
1, 9401, Note_on_c, 1, 42, 0
1, 9408, Note_on_c, 0, 72, 75
1, 9408, Note_on_c, 1, 55, 75
1, 9408, Note_on_c, 1, 43, 75
1, 9423, Note_on_c, 0, 72, 0
1, 9424, Note_on_c, 0, 70, 75
1, 9439, Note_on_c, 0, 70, 0
1, 9440, Note_on_c, 0, 72, 75
1, 9455, Note_on_c, 0, 72, 0
1, 9456, Note_on_c, 0, 70, 75
1, 9471, Note_on_c, 0, 70, 0
1, 9472, Note_on_c, 0, 69, 75
1, 9487, Note_on_c, 0, 69, 0
1, 9488, Note_on_c, 0, 70, 75
1, 9497, Note_on_c, 1, 55, 0
1, 9497, Note_on_c, 1, 43, 0
1, 9503, Note_on_c, 0, 70, 0
1, 9504, Note_on_c, 0, 72, 75
1, 9504, Note_on_c, 1, 57, 75
1, 9504, Note_on_c, 1, 45, 75
1, 9593, Note_on_c, 0, 72, 0
1, 9593, Note_on_c, 1, 57, 0
1, 9593, Note_on_c, 1, 45, 0
1, 9600, Note_on_c, 0, 74, 75
1, 9600, Note_on_c, 1, 58, 75
1, 9600, Note_on_c, 1, 46, 75
1, 9648, Note_on_c, 0, 74, 0
1, 9648, Note_on_c, 0, 70, 75
1, 9689, Note_on_c, 1, 58, 0
1, 9689, Note_on_c, 1, 46, 0
1, 9693, Note_on_c, 0, 70, 0
1, 9696, Note_on_c, 0, 69, 75
1, 9696, Note_on_c, 1, 63, 75
1, 9696, Note_on_c, 1, 51, 75
1, 9741, Note_on_c, 0, 69, 0
1, 9744, Note_on_c, 0, 67, 75
1, 9785, Note_on_c, 1, 63, 0
1, 9785, Note_on_c, 1, 51, 0
1, 9789, Note_on_c, 0, 67, 0
1, 9792, Note_on_c, 0, 72, 75
1, 9792, Note_on_c, 1, 60, 75
1, 9792, Note_on_c, 1, 48, 75
1, 9840, Note_on_c, 0, 72, 0
1, 9840, Note_on_c, 0, 69, 75
1, 9881, Note_on_c, 1, 60, 0
1, 9881, Note_on_c, 1, 48, 0
1, 9885, Note_on_c, 0, 69, 0
1, 9888, Note_on_c, 0, 67, 75
1, 9888, Note_on_c, 1, 62, 75
1, 9888, Note_on_c, 1, 50, 75
1, 9933, Note_on_c, 0, 67, 0
1, 9936, Note_on_c, 0, 66, 75
1, 9977, Note_on_c, 1, 62, 0
1, 9977, Note_on_c, 1, 50, 0
1, 9981, Note_on_c, 0, 66, 0
1, 9984, Note_on_c, 0, 69, 75
1, 9996, Note_on_c, 0, 69, 0
1, 9996, Note_on_c, 0, 67, 75
1, 10008, Note_on_c, 0, 67, 0
1, 10008, Note_on_c, 0, 66, 75
1, 10020, Note_on_c, 0, 66, 0
1, 10020, Note_on_c, 0, 67, 75
1, 10073, Note_on_c, 0, 67, 0
1, 10080, Note_on_c, 0, 62, 75
1, 10080, Note_on_c, 1, 58, 75
1, 10080, Note_on_c, 1, 46, 75
1, 10169, Note_on_c, 0, 62, 0
1, 10169, Note_on_c, 1, 58, 0
1, 10169, Note_on_c, 1, 46, 0
1, 10176, Note_on_c, 1, 57, 75
1, 10176, Note_on_c, 1, 45, 75
1, 10265, Note_on_c, 1, 57, 0
1, 10265, Note_on_c, 1, 45, 0
1, 10272, Note_on_c, 0, 74, 75
1, 10272, Note_on_c, 1, 55, 75
1, 10272, Note_on_c, 1, 43, 75
1, 10361, Note_on_c, 0, 74, 0
1, 10361, Note_on_c, 1, 55, 0
1, 10361, Note_on_c, 1, 43, 0
1, 10368, Note_on_c, 0, 72, 75
1, 10416, Note_on_c, 0, 72, 0
1, 10416, Note_on_c, 0, 70, 75
1, 10461, Note_on_c, 0, 70, 0
1, 10464, Note_on_c, 0, 69, 75
1, 10464, Note_on_c, 1, 58, 70
1, 10464, Note_on_c, 1, 55, 70
1, 10509, Note_on_c, 0, 69, 0
1, 10512, Note_on_c, 0, 67, 75
1, 10557, Note_on_c, 0, 67, 0
1, 10558, Note_on_c, 1, 58, 0
1, 10558, Note_on_c, 1, 55, 0
1, 10560, Note_on_c, 0, 75, 75
1, 10560, Note_on_c, 1, 58, 70
1, 10560, Note_on_c, 1, 55, 70
1, 10649, Note_on_c, 0, 75, 0
1, 10654, Note_on_c, 1, 58, 0
1, 10654, Note_on_c, 1, 55, 0
1, 10656, Note_on_c, 0, 75, 75
1, 10656, Note_on_c, 1, 58, 70
1, 10656, Note_on_c, 1, 55, 70
1, 10745, Note_on_c, 0, 75, 0
1, 10750, Note_on_c, 1, 58, 0
1, 10750, Note_on_c, 1, 55, 0
1, 10752, Note_on_c, 0, 75, 75
1, 10752, Note_on_c, 1, 57, 70
1, 10752, Note_on_c, 1, 54, 70
1, 10765, Note_on_c, 0, 75, 0
1, 10766, Note_on_c, 0, 77, 75
1, 10779, Note_on_c, 0, 77, 0
1, 10780, Note_on_c, 0, 75, 75
1, 10793, Note_on_c, 0, 75, 0
1, 10794, Note_on_c, 0, 77, 75
1, 10807, Note_on_c, 0, 77, 0
1, 10808, Note_on_c, 0, 75, 75
1, 10821, Note_on_c, 0, 75, 0
1, 10822, Note_on_c, 0, 74, 75
1, 10834, Note_on_c, 0, 74, 0
1, 10835, Note_on_c, 0, 75, 75
1, 10847, Note_on_c, 0, 75, 0
1, 10848, Note_on_c, 0, 74, 75
1, 10929, Note_on_c, 1, 57, 0
1, 10929, Note_on_c, 1, 54, 0
1, 10937, Note_on_c, 0, 74, 0
1, 10944, Note_on_c, 1, 56, 70
1, 10944, Note_on_c, 1, 53, 70
1, 10992, Note_on_c, 0, 74, 75
1, 11037, Note_on_c, 0, 74, 0
1, 11040, Note_on_c, 0, 77, 75
1, 11085, Note_on_c, 0, 77, 0
1, 11088, Note_on_c, 0, 80, 75
1, 11121, Note_on_c, 1, 56, 0
1, 11121, Note_on_c, 1, 53, 0
1, 11133, Note_on_c, 0, 80, 0
1, 11136, Note_on_c, 0, 71, 75
1, 11136, Note_on_c, 1, 55, 70
1, 11136, Note_on_c, 1, 53, 64
1, 11203, Note_on_c, 0, 71, 0
1, 11208, Note_on_c, 0, 72, 75
1, 11220, Note_on_c, 0, 72, 0
1, 11220, Note_on_c, 0, 74, 75
1, 11232, Note_on_c, 0, 74, 0
1, 11232, Note_on_c, 0, 72, 75
1, 11232, Note_on_c, 1, 53, 0
1, 11232, Note_on_c, 1, 51, 64
1, 11313, Note_on_c, 1, 55, 0
1, 11321, Note_on_c, 0, 72, 0
1, 11321, Note_on_c, 1, 51, 0
1, 11328, Note_on_c, 0, 79, 75
1, 11373, Note_on_c, 0, 79, 0
1, 11376, Note_on_c, 0, 75, 75
1, 11421, Note_on_c, 0, 75, 0
1, 11424, Note_on_c, 0, 72, 75
1, 11424, Note_on_c, 1, 55, 70
1, 11424, Note_on_c, 1, 51, 70
1, 11469, Note_on_c, 0, 72, 0
1, 11472, Note_on_c, 0, 70, 75
1, 11513, Note_on_c, 1, 55, 0
1, 11513, Note_on_c, 1, 51, 0
1, 11517, Note_on_c, 0, 70, 0
1, 11520, Note_on_c, 0, 69, 75
1, 11520, Note_on_c, 1, 53, 70
1, 11520, Note_on_c, 1, 51, 64
1, 11587, Note_on_c, 0, 69, 0
1, 11592, Note_on_c, 0, 70, 75
1, 11604, Note_on_c, 0, 70, 0
1, 11604, Note_on_c, 0, 72, 75
1, 11616, Note_on_c, 0, 72, 0
1, 11616, Note_on_c, 0, 70, 75
1, 11616, Note_on_c, 1, 51, 0
1, 11616, Note_on_c, 1, 50, 64
1, 11697, Note_on_c, 1, 53, 0
1, 11705, Note_on_c, 0, 70, 0
1, 11705, Note_on_c, 1, 50, 0
1, 11712, Note_on_c, 0, 77, 75
1, 11757, Note_on_c, 0, 77, 0
1, 11760, Note_on_c, 0, 74, 75
1, 11805, Note_on_c, 0, 74, 0
1, 11808, Note_on_c, 0, 72, 75
1, 11808, Note_on_c, 1, 62, 75
1, 11808, Note_on_c, 1, 50, 75
1, 11853, Note_on_c, 0, 72, 0
1, 11856, Note_on_c, 0, 70, 75
1, 11897, Note_on_c, 1, 62, 0
1, 11897, Note_on_c, 1, 50, 0
1, 11901, Note_on_c, 0, 70, 0
1, 11904, Note_on_c, 0, 69, 75
1, 11904, Note_on_c, 1, 63, 75
1, 11904, Note_on_c, 1, 51, 75
1, 11949, Note_on_c, 0, 69, 0
1, 11952, Note_on_c, 0, 72, 75
1, 11993, Note_on_c, 1, 63, 0
1, 11993, Note_on_c, 1, 51, 0
1, 11997, Note_on_c, 0, 72, 0
1, 12000, Note_on_c, 0, 70, 75
1, 12000, Note_on_c, 1, 62, 75
1, 12000, Note_on_c, 1, 50, 75
1, 12045, Note_on_c, 0, 70, 0
1, 12048, Note_on_c, 0, 65, 75
1, 12089, Note_on_c, 1, 62, 0
1, 12089, Note_on_c, 1, 50, 0
1, 12093, Note_on_c, 0, 65, 0
1, 12096, Note_on_c, 0, 77, 75
1, 12141, Note_on_c, 0, 77, 0
1, 12144, Note_on_c, 0, 74, 75
1, 12189, Note_on_c, 0, 74, 0
1, 12192, Note_on_c, 0, 72, 75
1, 12192, Note_on_c, 1, 62, 75
1, 12192, Note_on_c, 1, 50, 75
1, 12237, Note_on_c, 0, 72, 0
1, 12240, Note_on_c, 0, 70, 75
1, 12281, Note_on_c, 1, 62, 0
1, 12281, Note_on_c, 1, 50, 0
1, 12285, Note_on_c, 0, 70, 0
1, 12288, Note_on_c, 0, 72, 75
1, 12288, Note_on_c, 1, 57, 75
1, 12288, Note_on_c, 1, 45, 75
1, 12333, Note_on_c, 0, 72, 0
1, 12336, Note_on_c, 0, 75, 75
1, 12377, Note_on_c, 1, 57, 0
1, 12377, Note_on_c, 1, 45, 0
1, 12381, Note_on_c, 0, 75, 0
1, 12384, Note_on_c, 0, 74, 75
1, 12384, Note_on_c, 1, 58, 75
1, 12384, Note_on_c, 1, 46, 75
1, 12429, Note_on_c, 0, 74, 0
1, 12432, Note_on_c, 0, 70, 75
1, 12473, Note_on_c, 1, 58, 0
1, 12473, Note_on_c, 1, 46, 0
1, 12477, Note_on_c, 0, 70, 0
1, 12480, Note_on_c, 0, 65, 75
1, 12525, Note_on_c, 0, 65, 0
1, 12528, Note_on_c, 0, 70, 75
1, 12573, Note_on_c, 0, 70, 0
1, 12576, Note_on_c, 0, 74, 75
1, 12576, Note_on_c, 1, 62, 75
1, 12576, Note_on_c, 1, 50, 75
1, 12621, Note_on_c, 0, 74, 0
1, 12624, Note_on_c, 0, 77, 75
1, 12665, Note_on_c, 1, 62, 0
1, 12665, Note_on_c, 1, 50, 0
1, 12669, Note_on_c, 0, 77, 0
1, 12672, Note_on_c, 0, 77, 75
1, 12672, Note_on_c, 1, 63, 75
1, 12672, Note_on_c, 1, 51, 75
1, 12717, Note_on_c, 0, 77, 0
1, 12720, Note_on_c, 0, 67, 75
1, 12765, Note_on_c, 0, 67, 0
1, 12768, Note_on_c, 0, 66, 75
1, 12813, Note_on_c, 0, 66, 0
1, 12816, Note_on_c, 0, 67, 75
1, 12849, Note_on_c, 1, 63, 0
1, 12849, Note_on_c, 1, 51, 0
1, 12861, Note_on_c, 0, 67, 0
1, 12864, Note_on_c, 0, 75, 75
1, 12864, Note_on_c, 1, 60, 75
1, 12864, Note_on_c, 1, 48, 75
1, 12909, Note_on_c, 0, 75, 0
1, 12912, Note_on_c, 0, 72, 75
1, 12953, Note_on_c, 1, 60, 0
1, 12953, Note_on_c, 1, 48, 0
1, 12957, Note_on_c, 0, 72, 0
1, 12960, Note_on_c, 0, 70, 75
1, 12960, Note_on_c, 1, 65, 75
1, 12960, Note_on_c, 1, 53, 75
1, 13005, Note_on_c, 0, 70, 0
1, 13008, Note_on_c, 0, 69, 75
1, 13049, Note_on_c, 1, 65, 0
1, 13049, Note_on_c, 1, 53, 0
1, 13053, Note_on_c, 0, 69, 0
1, 13056, Note_on_c, 0, 70, 75
1, 13056, Note_on_c, 1, 62, 75
1, 13056, Note_on_c, 1, 50, 75
1, 13101, Note_on_c, 0, 70, 0
1, 13104, Note_on_c, 0, 74, 75
1, 13145, Note_on_c, 1, 62, 0
1, 13145, Note_on_c, 1, 50, 0
1, 13149, Note_on_c, 0, 74, 0
1, 13152, Note_on_c, 0, 65, 75
1, 13152, Note_on_c, 1, 50, 75
1, 13152, Note_on_c, 1, 38, 75
1, 13197, Note_on_c, 0, 65, 0
1, 13200, Note_on_c, 0, 77, 75
1, 13241, Note_on_c, 1, 50, 0
1, 13241, Note_on_c, 1, 38, 0
1, 13245, Note_on_c, 0, 77, 0
1, 13248, Note_on_c, 0, 67, 76
1, 13248, Note_on_c, 1, 51, 76
1, 13248, Note_on_c, 1, 39, 76
1, 13293, Note_on_c, 0, 67, 0
1, 13296, Note_on_c, 0, 75, 77
1, 13337, Note_on_c, 1, 51, 0
1, 13337, Note_on_c, 1, 39, 0
1, 13341, Note_on_c, 0, 75, 0
1, 13344, Note_on_c, 0, 72, 77
1, 13344, Note_on_c, 1, 53, 77
1, 13344, Note_on_c, 1, 41, 77
1, 13389, Note_on_c, 0, 72, 0
1, 13392, Note_on_c, 0, 69, 78
1, 13433, Note_on_c, 1, 53, 0
1, 13433, Note_on_c, 1, 41, 0
1, 13437, Note_on_c, 0, 69, 0
1, 13440, Note_on_c, 0, 70, 79
1, 13440, Note_on_c, 1, 55, 78
1, 13440, Note_on_c, 1, 43, 78
1, 13485, Note_on_c, 0, 70, 0
1, 13488, Note_on_c, 0, 74, 80
1, 13529, Note_on_c, 1, 55, 0
1, 13529, Note_on_c, 1, 43, 0
1, 13533, Note_on_c, 0, 74, 0
1, 13536, Note_on_c, 0, 65, 75
1, 13536, Note_on_c, 1, 50, 75
1, 13536, Note_on_c, 1, 38, 75
1, 13581, Note_on_c, 0, 65, 0
1, 13584, Note_on_c, 0, 77, 75
1, 13625, Note_on_c, 1, 50, 0
1, 13625, Note_on_c, 1, 38, 0
1, 13629, Note_on_c, 0, 77, 0
1, 13632, Note_on_c, 0, 67, 75
1, 13632, Note_on_c, 1, 51, 75
1, 13632, Note_on_c, 1, 39, 75
1, 13677, Note_on_c, 0, 67, 0
1, 13680, Note_on_c, 0, 75, 76
1, 13721, Note_on_c, 1, 51, 0
1, 13721, Note_on_c, 1, 39, 0
1, 13725, Note_on_c, 0, 75, 0
1, 13728, Note_on_c, 0, 72, 76
1, 13728, Note_on_c, 1, 53, 76
1, 13728, Note_on_c, 1, 41, 76
1, 13773, Note_on_c, 0, 72, 0
1, 13776, Note_on_c, 0, 69, 76
1, 13817, Note_on_c, 1, 53, 0
1, 13817, Note_on_c, 1, 41, 0
1, 13821, Note_on_c, 0, 69, 0
1, 13824, Note_on_c, 0, 70, 77
1, 13824, Note_on_c, 1, 55, 77
1, 13824, Note_on_c, 1, 43, 77
1, 13869, Note_on_c, 0, 70, 0
1, 13872, Note_on_c, 0, 79, 77
1, 13913, Note_on_c, 1, 55, 0
1, 13913, Note_on_c, 1, 43, 0
1, 13917, Note_on_c, 0, 79, 0
1, 13920, Note_on_c, 0, 75, 77
1, 13920, Note_on_c, 1, 57, 77
1, 13920, Note_on_c, 1, 45, 77
1, 13965, Note_on_c, 0, 75, 0
1, 13968, Note_on_c, 0, 72, 78
1, 14009, Note_on_c, 1, 57, 0
1, 14009, Note_on_c, 1, 45, 0
1, 14013, Note_on_c, 0, 72, 0
1, 14016, Note_on_c, 0, 74, 78
1, 14016, Note_on_c, 1, 58, 78
1, 14016, Note_on_c, 1, 46, 78
1, 14061, Note_on_c, 0, 74, 0
1, 14064, Note_on_c, 0, 82, 78
1, 14105, Note_on_c, 1, 58, 0
1, 14105, Note_on_c, 1, 46, 0
1, 14109, Note_on_c, 0, 82, 0
1, 14112, Note_on_c, 0, 79, 79
1, 14112, Note_on_c, 1, 60, 79
1, 14112, Note_on_c, 1, 48, 79
1, 14157, Note_on_c, 0, 79, 0
1, 14160, Note_on_c, 0, 76, 79
1, 14201, Note_on_c, 1, 60, 0
1, 14201, Note_on_c, 1, 48, 0
1, 14205, Note_on_c, 0, 76, 0
1, 14208, Note_on_c, 0, 77, 80
1, 14208, Note_on_c, 1, 57, 80
1, 14208, Note_on_c, 1, 45, 80
1, 14253, Note_on_c, 0, 77, 0
1, 14256, Note_on_c, 0, 84, 80
1, 14301, Note_on_c, 0, 84, 0
1, 14304, Note_on_c, 0, 81, 80
1, 14349, Note_on_c, 0, 81, 0
1, 14352, Note_on_c, 0, 77, 80
1, 14385, Note_on_c, 1, 57, 0
1, 14385, Note_on_c, 1, 45, 0
1, 14397, Note_on_c, 0, 77, 0
1, 14400, Note_on_c, 0, 75, 80
1, 14414, Note_on_c, 0, 75, 0
1, 14415, Note_on_c, 0, 77, 80
1, 14429, Note_on_c, 0, 77, 0
1, 14430, Note_on_c, 0, 75, 80
1, 14444, Note_on_c, 0, 75, 0
1, 14445, Note_on_c, 0, 77, 80
1, 14459, Note_on_c, 0, 77, 0
1, 14460, Note_on_c, 0, 75, 80
1, 14474, Note_on_c, 0, 75, 0
1, 14475, Note_on_c, 0, 77, 80
1, 14489, Note_on_c, 0, 77, 0
1, 14490, Note_on_c, 0, 75, 80
1, 14496, Note_on_c, 1, 57, 80
1, 14504, Note_on_c, 0, 75, 0
1, 14505, Note_on_c, 0, 77, 80
1, 14519, Note_on_c, 0, 77, 0
1, 14520, Note_on_c, 0, 75, 80
1, 14534, Note_on_c, 0, 75, 0
1, 14535, Note_on_c, 0, 74, 80
1, 14563, Note_on_c, 0, 74, 0
1, 14564, Note_on_c, 0, 75, 80
1, 14585, Note_on_c, 1, 57, 0
1, 14591, Note_on_c, 0, 75, 0
1, 14592, Note_on_c, 0, 74, 80
1, 14592, Note_on_c, 1, 58, 80
1, 14681, Note_on_c, 0, 74, 0
1, 14681, Note_on_c, 1, 58, 0
1, 14688, Note_on_c, 0, 70, 75
1, 14688, Note_on_c, 1, 58, 75
1, 14733, Note_on_c, 1, 58, 0
1, 14736, Note_on_c, 1, 62, 75
1, 14777, Note_on_c, 0, 70, 0
1, 14781, Note_on_c, 1, 62, 0
1, 14784, Note_on_c, 0, 70, 75
1, 14784, Note_on_c, 1, 60, 75
1, 14829, Note_on_c, 1, 60, 0
1, 14832, Note_on_c, 1, 63, 75
1, 14873, Note_on_c, 0, 70, 0
1, 14877, Note_on_c, 1, 63, 0
1, 14880, Note_on_c, 0, 70, 75
1, 14880, Note_on_c, 1, 62, 75
1, 14925, Note_on_c, 1, 62, 0
1, 14928, Note_on_c, 1, 65, 75
1, 14969, Note_on_c, 0, 70, 0
1, 14973, Note_on_c, 1, 65, 0
1, 14976, Note_on_c, 0, 70, 75
1, 14976, Note_on_c, 1, 63, 75
1, 15021, Note_on_c, 0, 70, 0
1, 15024, Note_on_c, 0, 82, 75
1, 15069, Note_on_c, 0, 82, 0
1, 15072, Note_on_c, 0, 79, 75
1, 15109, Note_on_c, 1, 63, 0
1, 15117, Note_on_c, 0, 79, 0
1, 15120, Note_on_c, 0, 75, 75
1, 15120, Note_on_c, 1, 67, 75
1, 15165, Note_on_c, 0, 75, 0
1, 15165, Note_on_c, 1, 67, 0
1, 15168, Note_on_c, 0, 74, 75
1, 15168, Note_on_c, 1, 65, 75
1, 15213, Note_on_c, 0, 74, 0
1, 15216, Note_on_c, 0, 70, 75
1, 15257, Note_on_c, 1, 65, 0
1, 15261, Note_on_c, 0, 70, 0
1, 15264, Note_on_c, 0, 72, 75
1, 15264, Note_on_c, 1, 53, 75
1, 15309, Note_on_c, 0, 72, 0
1, 15312, Note_on_c, 0, 69, 75
1, 15353, Note_on_c, 1, 53, 0
1, 15357, Note_on_c, 0, 69, 0
1, 15360, Note_on_c, 0, 72, 75
1, 15360, Note_on_c, 1, 58, 75
1, 15372, Note_on_c, 0, 72, 0
1, 15372, Note_on_c, 0, 70, 75
1, 15384, Note_on_c, 0, 70, 0
1, 15384, Note_on_c, 0, 69, 75
1, 15396, Note_on_c, 0, 69, 0
1, 15396, Note_on_c, 0, 70, 75
1, 15449, Note_on_c, 1, 58, 0
1, 15456, Note_on_c, 1, 53, 75
1, 15537, Note_on_c, 0, 70, 0
1, 15545, Note_on_c, 1, 53, 0
1, 15552, Note_on_c, 1, 46, 75
1, 15641, Note_on_c, 1, 46, 0
1, 15648, Note_on_c, 0, 77, 75
1, 15737, Note_on_c, 0, 77, 0
1, 15744, Note_on_c, 0, 75, 75
1, 15744, Note_on_c, 1, 58, 75
1, 15744, Note_on_c, 1, 46, 75
1, 15792, Note_on_c, 0, 75, 0
1, 15792, Note_on_c, 0, 74, 75
1, 15833, Note_on_c, 1, 58, 0
1, 15833, Note_on_c, 1, 46, 0
1, 15837, Note_on_c, 0, 74, 0
1, 15840, Note_on_c, 0, 72, 75
1, 15885, Note_on_c, 0, 72, 0
1, 15888, Note_on_c, 0, 70, 75
1, 15933, Note_on_c, 0, 70, 0
1, 15936, Note_on_c, 0, 70, 75
1, 15975, Note_on_c, 0, 70, 0
1, 16032, Note_on_c, 0, 72, 75
1, 16032, Note_on_c, 1, 57, 75
1, 16032, Note_on_c, 1, 53, 75
1, 16121, Note_on_c, 0, 72, 0
1, 16121, Note_on_c, 1, 57, 0
1, 16121, Note_on_c, 1, 53, 0
1, 16128, Note_on_c, 0, 75, 75
1, 16128, Note_on_c, 1, 58, 75
1, 16128, Note_on_c, 1, 53, 64
1, 16143, Note_on_c, 0, 75, 0
1, 16144, Note_on_c, 0, 74, 75
1, 16159, Note_on_c, 0, 74, 0
1, 16160, Note_on_c, 0, 75, 75
1, 16175, Note_on_c, 0, 75, 0
1, 16176, Note_on_c, 0, 74, 75
1, 16191, Note_on_c, 0, 74, 0
1, 16192, Note_on_c, 0, 72, 75
1, 16207, Note_on_c, 0, 72, 0
1, 16208, Note_on_c, 0, 74, 75
1, 16217, Note_on_c, 1, 58, 0
1, 16223, Note_on_c, 0, 74, 0
1, 16224, Note_on_c, 0, 72, 75
1, 16224, Note_on_c, 1, 57, 75
1, 16305, Note_on_c, 1, 53, 0
1, 16313, Note_on_c, 0, 72, 0
1, 16313, Note_on_c, 1, 57, 0
1, 16416, Note_on_c, 0, 79, 75
1, 16505, Note_on_c, 0, 79, 0
1, 16512, Note_on_c, 0, 77, 75
1, 16512, Note_on_c, 1, 60, 75
1, 16512, Note_on_c, 1, 48, 75
1, 16560, Note_on_c, 0, 77, 0
1, 16560, Note_on_c, 0, 75, 75
1, 16601, Note_on_c, 1, 60, 0
1, 16601, Note_on_c, 1, 48, 0
1, 16605, Note_on_c, 0, 75, 0
1, 16608, Note_on_c, 0, 74, 75
1, 16653, Note_on_c, 0, 74, 0
1, 16656, Note_on_c, 0, 72, 75
1, 16701, Note_on_c, 0, 72, 0
1, 16704, Note_on_c, 0, 72, 75
1, 16743, Note_on_c, 0, 72, 0
1, 16800, Note_on_c, 0, 74, 75
1, 16800, Note_on_c, 1, 59, 75
1, 16800, Note_on_c, 1, 55, 75
1, 16889, Note_on_c, 0, 74, 0
1, 16889, Note_on_c, 1, 59, 0
1, 16889, Note_on_c, 1, 55, 0
1, 16896, Note_on_c, 0, 77, 75
1, 16896, Note_on_c, 1, 60, 75
1, 16896, Note_on_c, 1, 55, 64
1, 16911, Note_on_c, 0, 77, 0
1, 16912, Note_on_c, 0, 75, 75
1, 16927, Note_on_c, 0, 75, 0
1, 16928, Note_on_c, 0, 77, 75
1, 16943, Note_on_c, 0, 77, 0
1, 16944, Note_on_c, 0, 75, 75
1, 16959, Note_on_c, 0, 75, 0
1, 16960, Note_on_c, 0, 74, 75
1, 16975, Note_on_c, 0, 74, 0
1, 16976, Note_on_c, 0, 75, 75
1, 16985, Note_on_c, 1, 60, 0
1, 16991, Note_on_c, 0, 75, 0
1, 16992, Note_on_c, 0, 74, 75
1, 16992, Note_on_c, 1, 59, 75
1, 17073, Note_on_c, 1, 55, 0
1, 17081, Note_on_c, 0, 74, 0
1, 17081, Note_on_c, 1, 59, 0
1, 17088, Note_on_c, 0, 80, 75
1, 17136, Note_on_c, 0, 80, 0
1, 17136, Note_on_c, 0, 77, 75
1, 17181, Note_on_c, 0, 77, 0
1, 17184, Note_on_c, 0, 75, 75
1, 17184, Note_on_c, 1, 59, 75
1, 17184, Note_on_c, 1, 53, 75
1, 17229, Note_on_c, 0, 75, 0
1, 17232, Note_on_c, 0, 74, 75
1, 17273, Note_on_c, 1, 59, 0
1, 17273, Note_on_c, 1, 53, 0
1, 17277, Note_on_c, 0, 74, 0
1, 17280, Note_on_c, 0, 79, 75
1, 17325, Note_on_c, 0, 79, 0
1, 17328, Note_on_c, 0, 75, 75
1, 17373, Note_on_c, 0, 75, 0
1, 17376, Note_on_c, 0, 74, 76
1, 17376, Note_on_c, 1, 60, 76
1, 17376, Note_on_c, 1, 51, 76
1, 17421, Note_on_c, 0, 74, 0
1, 17424, Note_on_c, 0, 72, 76
1, 17465, Note_on_c, 1, 60, 0
1, 17465, Note_on_c, 1, 51, 0
1, 17469, Note_on_c, 0, 72, 0
1, 17472, Note_on_c, 0, 77, 77
1, 17517, Note_on_c, 0, 77, 0
1, 17520, Note_on_c, 0, 74, 78
1, 17565, Note_on_c, 0, 74, 0
1, 17568, Note_on_c, 0, 72, 78
1, 17568, Note_on_c, 1, 62, 78
1, 17568, Note_on_c, 1, 50, 78
1, 17613, Note_on_c, 0, 72, 0
1, 17616, Note_on_c, 0, 71, 79
1, 17657, Note_on_c, 1, 62, 0
1, 17657, Note_on_c, 1, 50, 0
1, 17661, Note_on_c, 0, 71, 0
1, 17664, Note_on_c, 0, 74, 79
1, 17664, Note_on_c, 1, 63, 79
1, 17664, Note_on_c, 1, 51, 79
1, 17679, Note_on_c, 0, 74, 0
1, 17680, Note_on_c, 0, 72, 80
1, 17695, Note_on_c, 0, 72, 0
1, 17696, Note_on_c, 0, 74, 80
1, 17711, Note_on_c, 0, 74, 0
1, 17712, Note_on_c, 0, 72, 80
1, 17727, Note_on_c, 0, 72, 0
1, 17728, Note_on_c, 0, 71, 80
1, 17743, Note_on_c, 0, 71, 0
1, 17744, Note_on_c, 0, 72, 80
1, 17753, Note_on_c, 1, 63, 0
1, 17753, Note_on_c, 1, 51, 0
1, 17759, Note_on_c, 0, 72, 0
1, 17760, Note_on_c, 0, 74, 80
1, 17760, Note_on_c, 1, 59, 80
1, 17760, Note_on_c, 1, 47, 80
1, 17849, Note_on_c, 0, 74, 0
1, 17849, Note_on_c, 1, 59, 0
1, 17849, Note_on_c, 1, 47, 0
1, 17856, Note_on_c, 0, 77, 80
1, 17856, Note_on_c, 1, 60, 80
1, 17856, Note_on_c, 1, 48, 80
1, 17871, Note_on_c, 0, 77, 0
1, 17872, Note_on_c, 0, 75, 80
1, 17887, Note_on_c, 0, 75, 0
1, 17888, Note_on_c, 0, 77, 80
1, 17903, Note_on_c, 0, 77, 0
1, 17904, Note_on_c, 0, 75, 80
1, 17919, Note_on_c, 0, 75, 0
1, 17920, Note_on_c, 0, 74, 80
1, 17935, Note_on_c, 0, 74, 0
1, 17936, Note_on_c, 0, 75, 80
1, 17945, Note_on_c, 1, 60, 0
1, 17945, Note_on_c, 1, 48, 0
1, 17951, Note_on_c, 0, 75, 0
1, 17952, Note_on_c, 0, 77, 80
1, 17952, Note_on_c, 1, 62, 80
1, 17952, Note_on_c, 1, 50, 80
1, 18041, Note_on_c, 0, 77, 0
1, 18041, Note_on_c, 1, 62, 0
1, 18041, Note_on_c, 1, 50, 0
1, 18048, Note_on_c, 0, 79, 80
1, 18048, Note_on_c, 1, 63, 80
1, 18048, Note_on_c, 1, 51, 80
1, 18096, Note_on_c, 0, 79, 0
1, 18096, Note_on_c, 0, 75, 80
1, 18137, Note_on_c, 1, 63, 0
1, 18137, Note_on_c, 1, 51, 0
1, 18141, Note_on_c, 0, 75, 0
1, 18144, Note_on_c, 0, 74, 75
1, 18144, Note_on_c, 1, 56, 75
1, 18144, Note_on_c, 1, 44, 75
1, 18189, Note_on_c, 0, 74, 0
1, 18192, Note_on_c, 0, 72, 75
1, 18233, Note_on_c, 1, 56, 0
1, 18233, Note_on_c, 1, 44, 0
1, 18237, Note_on_c, 0, 72, 0
1, 18240, Note_on_c, 0, 77, 76
1, 18240, Note_on_c, 1, 53, 76
1, 18240, Note_on_c, 1, 41, 76
1, 18288, Note_on_c, 0, 77, 0
1, 18288, Note_on_c, 0, 74, 76
1, 18329, Note_on_c, 1, 53, 0
1, 18329, Note_on_c, 1, 41, 0
1, 18333, Note_on_c, 0, 74, 0
1, 18336, Note_on_c, 0, 72, 77
1, 18336, Note_on_c, 1, 55, 77
1, 18336, Note_on_c, 1, 43, 77
1, 18381, Note_on_c, 0, 72, 0
1, 18384, Note_on_c, 0, 71, 78
1, 18425, Note_on_c, 1, 55, 0
1, 18425, Note_on_c, 1, 43, 0
1, 18429, Note_on_c, 0, 71, 0
1, 18432, Note_on_c, 0, 74, 78
1, 18444, Note_on_c, 0, 74, 0
1, 18444, Note_on_c, 0, 72, 78
1, 18456, Note_on_c, 0, 72, 0
1, 18456, Note_on_c, 0, 71, 78
1, 18468, Note_on_c, 0, 71, 0
1, 18468, Note_on_c, 0, 72, 78
1, 18521, Note_on_c, 0, 72, 0
1, 18528, Note_on_c, 0, 67, 80
1, 18528, Note_on_c, 1, 60, 75
1, 18573, Note_on_c, 1, 60, 0
1, 18576, Note_on_c, 1, 63, 75
1, 18617, Note_on_c, 0, 67, 0
1, 18621, Note_on_c, 1, 63, 0
1, 18624, Note_on_c, 1, 62, 75
1, 18669, Note_on_c, 1, 62, 0
1, 18672, Note_on_c, 1, 65, 75
1, 18717, Note_on_c, 1, 65, 0
1, 18720, Note_on_c, 0, 84, 75
1, 18720, Note_on_c, 1, 63, 75
1, 18765, Note_on_c, 1, 63, 0
1, 18768, Note_on_c, 1, 67, 75
1, 18809, Note_on_c, 0, 84, 0
1, 18813, Note_on_c, 1, 67, 0
1, 18816, Note_on_c, 0, 80, 75
1, 18816, Note_on_c, 1, 65, 75
1, 18861, Note_on_c, 0, 80, 0
1, 18864, Note_on_c, 0, 84, 75
1, 18905, Note_on_c, 1, 65, 0
1, 18909, Note_on_c, 0, 84, 0
1, 18912, Note_on_c, 0, 82, 75
1, 18912, Note_on_c, 1, 67, 75
1, 18957, Note_on_c, 0, 82, 0
1, 18960, Note_on_c, 0, 79, 75
1, 19001, Note_on_c, 1, 67, 0
1, 19005, Note_on_c, 0, 79, 0
1, 19008, Note_on_c, 0, 77, 75
1, 19008, Note_on_c, 1, 68, 75
1, 19053, Note_on_c, 0, 77, 0
1, 19056, Note_on_c, 0, 80, 75
1, 19097, Note_on_c, 1, 68, 0
1, 19101, Note_on_c, 0, 80, 0
1, 19104, Note_on_c, 0, 79, 75
1, 19104, Note_on_c, 1, 69, 75
1, 19149, Note_on_c, 0, 79, 0
1, 19152, Note_on_c, 0, 75, 75
1, 19193, Note_on_c, 1, 69, 0
1, 19197, Note_on_c, 0, 75, 0
1, 19200, Note_on_c, 0, 74, 75
1, 19200, Note_on_c, 1, 70, 75
1, 19245, Note_on_c, 0, 74, 0
1, 19248, Note_on_c, 0, 77, 75
1, 19289, Note_on_c, 1, 70, 0
1, 19293, Note_on_c, 0, 77, 0
1, 19296, Note_on_c, 0, 70, 75
1, 19296, Note_on_c, 1, 58, 75
1, 19341, Note_on_c, 1, 58, 0
1, 19344, Note_on_c, 1, 62, 75
1, 19385, Note_on_c, 0, 70, 0
1, 19389, Note_on_c, 1, 62, 0
1, 19392, Note_on_c, 1, 60, 75
1, 19437, Note_on_c, 1, 60, 0
1, 19440, Note_on_c, 1, 63, 75
1, 19485, Note_on_c, 1, 63, 0
1, 19488, Note_on_c, 0, 82, 75
1, 19488, Note_on_c, 1, 62, 75
1, 19533, Note_on_c, 1, 62, 0
1, 19536, Note_on_c, 1, 65, 75
1, 19577, Note_on_c, 0, 82, 0
1, 19581, Note_on_c, 1, 65, 0
1, 19584, Note_on_c, 0, 79, 75
1, 19584, Note_on_c, 1, 63, 75
1, 19629, Note_on_c, 0, 79, 0
1, 19632, Note_on_c, 0, 82, 75
1, 19673, Note_on_c, 1, 63, 0
1, 19677, Note_on_c, 0, 82, 0
1, 19680, Note_on_c, 0, 80, 75
1, 19680, Note_on_c, 1, 65, 75
1, 19725, Note_on_c, 0, 80, 0
1, 19728, Note_on_c, 0, 77, 75
1, 19769, Note_on_c, 1, 65, 0
1, 19773, Note_on_c, 0, 77, 0
1, 19776, Note_on_c, 0, 75, 75
1, 19776, Note_on_c, 1, 67, 75
1, 19821, Note_on_c, 0, 75, 0
1, 19824, Note_on_c, 0, 79, 75
1, 19865, Note_on_c, 1, 67, 0
1, 19869, Note_on_c, 0, 79, 0
1, 19872, Note_on_c, 0, 77, 75
1, 19872, Note_on_c, 1, 67, 75
1, 19917, Note_on_c, 0, 77, 0
1, 19920, Note_on_c, 0, 74, 75
1, 19961, Note_on_c, 1, 67, 0
1, 19965, Note_on_c, 0, 74, 0
1, 19968, Note_on_c, 0, 72, 75
1, 19968, Note_on_c, 1, 68, 75
1, 20013, Note_on_c, 0, 72, 0
1, 20016, Note_on_c, 0, 75, 75
1, 20057, Note_on_c, 1, 68, 0
1, 20061, Note_on_c, 0, 75, 0
1, 20064, Note_on_c, 0, 68, 75
1, 20064, Note_on_c, 1, 56, 75
1, 20109, Note_on_c, 1, 56, 0
1, 20112, Note_on_c, 1, 60, 75
1, 20153, Note_on_c, 0, 68, 0
1, 20157, Note_on_c, 1, 60, 0
1, 20160, Note_on_c, 1, 58, 75
1, 20205, Note_on_c, 1, 58, 0
1, 20208, Note_on_c, 1, 62, 75
1, 20253, Note_on_c, 1, 62, 0
1, 20256, Note_on_c, 0, 80, 75
1, 20256, Note_on_c, 1, 60, 75
1, 20301, Note_on_c, 1, 60, 0
1, 20304, Note_on_c, 1, 63, 75
1, 20345, Note_on_c, 0, 80, 0
1, 20349, Note_on_c, 1, 63, 0
1, 20352, Note_on_c, 0, 77, 75
1, 20352, Note_on_c, 1, 62, 75
1, 20397, Note_on_c, 0, 77, 0
1, 20400, Note_on_c, 0, 80, 75
1, 20441, Note_on_c, 1, 62, 0
1, 20445, Note_on_c, 0, 80, 0
1, 20448, Note_on_c, 0, 79, 75
1, 20448, Note_on_c, 1, 63, 75
1, 20493, Note_on_c, 0, 79, 0
1, 20496, Note_on_c, 0, 75, 75
1, 20537, Note_on_c, 1, 63, 0
1, 20541, Note_on_c, 0, 75, 0
1, 20544, Note_on_c, 0, 74, 75
1, 20544, Note_on_c, 1, 65, 75
1, 20589, Note_on_c, 0, 74, 0
1, 20592, Note_on_c, 0, 77, 75
1, 20633, Note_on_c, 1, 65, 0
1, 20637, Note_on_c, 0, 77, 0
1, 20640, Note_on_c, 0, 75, 75
1, 20640, Note_on_c, 1, 66, 75
1, 20685, Note_on_c, 0, 75, 0
1, 20688, Note_on_c, 0, 72, 75
1, 20729, Note_on_c, 1, 66, 0
1, 20733, Note_on_c, 0, 72, 0
1, 20736, Note_on_c, 0, 71, 75
1, 20736, Note_on_c, 1, 67, 75
1, 20781, Note_on_c, 0, 71, 0
1, 20784, Note_on_c, 0, 74, 75
1, 20825, Note_on_c, 1, 67, 0
1, 20829, Note_on_c, 0, 74, 0
1, 20832, Note_on_c, 0, 67, 75
1, 20832, Note_on_c, 1, 55, 75
1, 20877, Note_on_c, 1, 55, 0
1, 20880, Note_on_c, 1, 59, 75
1, 20921, Note_on_c, 0, 67, 0
1, 20925, Note_on_c, 1, 59, 0
1, 20928, Note_on_c, 1, 57, 75
1, 20973, Note_on_c, 1, 57, 0
1, 20976, Note_on_c, 1, 60, 75
1, 21021, Note_on_c, 1, 60, 0
1, 21024, Note_on_c, 0, 79, 80
1, 21024, Note_on_c, 1, 59, 75
1, 21069, Note_on_c, 1, 59, 0
1, 21072, Note_on_c, 1, 62, 75
1, 21113, Note_on_c, 0, 79, 0
1, 21117, Note_on_c, 1, 62, 0
1, 21120, Note_on_c, 0, 75, 80
1, 21120, Note_on_c, 1, 60, 80
1, 21165, Note_on_c, 0, 75, 0
1, 21168, Note_on_c, 0, 72, 80
1, 21209, Note_on_c, 1, 60, 0
1, 21213, Note_on_c, 0, 72, 0
1, 21216, Note_on_c, 0, 79, 80
1, 21261, Note_on_c, 0, 79, 0
1, 21264, Note_on_c, 0, 75, 80
1, 21309, Note_on_c, 0, 75, 0
1, 21312, Note_on_c, 0, 74, 80
1, 21312, Note_on_c, 1, 59, 80
1, 21312, Note_on_c, 1, 47, 80
1, 21357, Note_on_c, 0, 74, 0
1, 21360, Note_on_c, 0, 79, 80
1, 21401, Note_on_c, 1, 59, 0
1, 21401, Note_on_c, 1, 47, 0
1, 21405, Note_on_c, 0, 79, 0
1, 21408, Note_on_c, 0, 67, 80
1, 21453, Note_on_c, 0, 67, 0
1, 21456, Note_on_c, 0, 77, 80
1, 21501, Note_on_c, 0, 77, 0
1, 21504, Note_on_c, 0, 75, 64
1, 21504, Note_on_c, 1, 60, 64
1, 21504, Note_on_c, 1, 48, 64
1, 21549, Note_on_c, 0, 75, 0
1, 21552, Note_on_c, 0, 72, 64
1, 21593, Note_on_c, 1, 60, 0
1, 21593, Note_on_c, 1, 48, 0
1, 21597, Note_on_c, 0, 72, 0
1, 21600, Note_on_c, 0, 79, 64
1, 21645, Note_on_c, 0, 79, 0
1, 21648, Note_on_c, 0, 75, 64
1, 21693, Note_on_c, 0, 75, 0
1, 21696, Note_on_c, 0, 74, 64
1, 21696, Note_on_c, 1, 59, 64
1, 21696, Note_on_c, 1, 47, 64
1, 21741, Note_on_c, 0, 74, 0
1, 21744, Note_on_c, 0, 79, 64
1, 21785, Note_on_c, 1, 59, 0
1, 21785, Note_on_c, 1, 47, 0
1, 21789, Note_on_c, 0, 79, 0
1, 21792, Note_on_c, 0, 67, 64
1, 21837, Note_on_c, 0, 67, 0
1, 21840, Note_on_c, 0, 77, 64
1, 21885, Note_on_c, 0, 77, 0
1, 21888, Note_on_c, 0, 75, 80
1, 21888, Note_on_c, 1, 60, 80
1, 21888, Note_on_c, 1, 48, 80
1, 21933, Note_on_c, 0, 75, 0
1, 21936, Note_on_c, 0, 72, 80
1, 21981, Note_on_c, 0, 72, 0
1, 21984, Note_on_c, 0, 79, 80
1, 22029, Note_on_c, 0, 79, 0
1, 22032, Note_on_c, 0, 75, 80
1, 22065, Note_on_c, 1, 60, 0
1, 22065, Note_on_c, 1, 48, 0
1, 22077, Note_on_c, 0, 75, 0
1, 22080, Note_on_c, 0, 74, 80
1, 22080, Note_on_c, 1, 58, 80
1, 22080, Note_on_c, 1, 46, 80
1, 22125, Note_on_c, 0, 74, 0
1, 22128, Note_on_c, 0, 70, 80
1, 22173, Note_on_c, 0, 70, 0
1, 22176, Note_on_c, 0, 79, 80
1, 22221, Note_on_c, 0, 79, 0
1, 22224, Note_on_c, 0, 74, 80
1, 22257, Note_on_c, 1, 58, 0
1, 22257, Note_on_c, 1, 46, 0
1, 22269, Note_on_c, 0, 74, 0
1, 22272, Note_on_c, 0, 72, 80
1, 22272, Note_on_c, 1, 57, 80
1, 22317, Note_on_c, 0, 72, 0
1, 22320, Note_on_c, 0, 75, 80
1, 22361, Note_on_c, 1, 57, 0
1, 22365, Note_on_c, 0, 75, 0
1, 22368, Note_on_c, 0, 69, 80
1, 22368, Note_on_c, 1, 54, 80
1, 22413, Note_on_c, 0, 69, 0
1, 22416, Note_on_c, 0, 72, 80
1, 22457, Note_on_c, 1, 54, 0
1, 22461, Note_on_c, 0, 72, 0
1, 22464, Note_on_c, 0, 70, 80
1, 22464, Note_on_c, 1, 55, 80
1, 22509, Note_on_c, 0, 70, 0
1, 22512, Note_on_c, 0, 74, 80
1, 22553, Note_on_c, 1, 55, 0
1, 22557, Note_on_c, 0, 74, 0
1, 22560, Note_on_c, 0, 70, 80
1, 22605, Note_on_c, 0, 70, 0
1, 22608, Note_on_c, 0, 67, 80
1, 22653, Note_on_c, 0, 67, 0
1, 22656, Note_on_c, 0, 66, 80
1, 22656, Note_on_c, 1, 50, 64
1, 22701, Note_on_c, 0, 66, 0
1, 22704, Note_on_c, 0, 74, 80
1, 22749, Note_on_c, 0, 74, 0
1, 22752, Note_on_c, 0, 62, 80
1, 22797, Note_on_c, 0, 62, 0
1, 22800, Note_on_c, 0, 74, 80
1, 22845, Note_on_c, 0, 74, 0
1, 22848, Note_on_c, 0, 72, 80
1, 22848, Note_on_c, 1, 54, 80
1, 22893, Note_on_c, 0, 72, 0
1, 22896, Note_on_c, 0, 69, 80
1, 22937, Note_on_c, 1, 54, 0
1, 22941, Note_on_c, 0, 69, 0
1, 22944, Note_on_c, 0, 70, 80
1, 22944, Note_on_c, 1, 55, 80
1, 22989, Note_on_c, 0, 70, 0
1, 22992, Note_on_c, 0, 67, 80
1, 23033, Note_on_c, 1, 55, 0
1, 23037, Note_on_c, 0, 67, 0
1, 23040, Note_on_c, 0, 66, 80
1, 23040, Note_on_c, 1, 62, 80
1, 23085, Note_on_c, 0, 66, 0
1, 23088, Note_on_c, 0, 74, 80
1, 23133, Note_on_c, 0, 74, 0
1, 23136, Note_on_c, 0, 62, 80
1, 23181, Note_on_c, 0, 62, 0
1, 23184, Note_on_c, 0, 74, 80
1, 23217, Note_on_c, 1, 62, 0
1, 23229, Note_on_c, 0, 74, 0
1, 23232, Note_on_c, 0, 72, 80
1, 23232, Note_on_c, 1, 54, 80
1, 23277, Note_on_c, 0, 72, 0
1, 23280, Note_on_c, 0, 69, 80
1, 23321, Note_on_c, 1, 54, 0
1, 23325, Note_on_c, 0, 69, 0
1, 23328, Note_on_c, 0, 70, 80
1, 23328, Note_on_c, 1, 55, 80
1, 23373, Note_on_c, 0, 70, 0
1, 23376, Note_on_c, 0, 67, 80
1, 23394, Note_on_c, 1, 50, 0
1, 23417, Note_on_c, 1, 55, 0
1, 23421, Note_on_c, 0, 67, 0
1, 23424, Note_on_c, 0, 66, 80
1, 23424, Note_on_c, 1, 62, 80
1, 23424, Note_on_c, 1, 50, 64
1, 23469, Note_on_c, 0, 66, 0
1, 23472, Note_on_c, 0, 74, 80
1, 23513, Note_on_c, 1, 62, 0
1, 23517, Note_on_c, 0, 74, 0
1, 23520, Note_on_c, 0, 62, 80
1, 23557, Note_on_c, 1, 50, 0
1, 23568, Note_on_c, 1, 51, 64
1, 23609, Note_on_c, 0, 62, 0
1, 23613, Note_on_c, 1, 51, 0
1, 23616, Note_on_c, 1, 50, 64
1, 23661, Note_on_c, 1, 50, 0
1, 23664, Note_on_c, 1, 48, 64
1, 23709, Note_on_c, 1, 48, 0
1, 23712, Note_on_c, 0, 74, 75
1, 23712, Note_on_c, 1, 46, 64
1, 23757, Note_on_c, 1, 46, 0
1, 23760, Note_on_c, 1, 45, 64
1, 23801, Note_on_c, 0, 74, 0
1, 23805, Note_on_c, 1, 45, 0
1, 23808, Note_on_c, 0, 72, 75
1, 23808, Note_on_c, 1, 55, 80
1, 23808, Note_on_c, 1, 43, 80
1, 23856, Note_on_c, 0, 72, 0
1, 23856, Note_on_c, 0, 70, 75
1, 23897, Note_on_c, 1, 55, 0
1, 23897, Note_on_c, 1, 43, 0
1, 23901, Note_on_c, 0, 70, 0
1, 23904, Note_on_c, 0, 69, 75
1, 23949, Note_on_c, 0, 69, 0
1, 23952, Note_on_c, 0, 67, 75
1, 23997, Note_on_c, 0, 67, 0
1, 24000, Note_on_c, 0, 67, 75
1, 24039, Note_on_c, 0, 67, 0
1, 24096, Note_on_c, 0, 69, 75
1, 24096, Note_on_c, 1, 54, 75
1, 24096, Note_on_c, 1, 50, 75
1, 24185, Note_on_c, 0, 69, 0
1, 24185, Note_on_c, 1, 54, 0
1, 24185, Note_on_c, 1, 50, 0
1, 24192, Note_on_c, 0, 72, 75
1, 24192, Note_on_c, 1, 55, 75
1, 24192, Note_on_c, 1, 50, 64
1, 24207, Note_on_c, 0, 72, 0
1, 24208, Note_on_c, 0, 70, 75
1, 24223, Note_on_c, 0, 70, 0
1, 24224, Note_on_c, 0, 72, 75
1, 24239, Note_on_c, 0, 72, 0
1, 24240, Note_on_c, 0, 70, 75
1, 24255, Note_on_c, 0, 70, 0
1, 24256, Note_on_c, 0, 69, 75
1, 24271, Note_on_c, 0, 69, 0
1, 24272, Note_on_c, 0, 70, 75
1, 24281, Note_on_c, 1, 55, 0
1, 24287, Note_on_c, 0, 70, 0
1, 24288, Note_on_c, 0, 69, 75
1, 24288, Note_on_c, 1, 54, 75
1, 24369, Note_on_c, 1, 50, 0
1, 24377, Note_on_c, 0, 69, 0
1, 24377, Note_on_c, 1, 54, 0
1, 24480, Note_on_c, 0, 74, 75
1, 24480, Note_on_c, 1, 58, 75
1, 24480, Note_on_c, 1, 46, 75
1, 24569, Note_on_c, 0, 74, 0
1, 24569, Note_on_c, 1, 58, 0
1, 24569, Note_on_c, 1, 46, 0
1, 24576, Note_on_c, 0, 75, 75
1, 24576, Note_on_c, 1, 60, 75
1, 24576, Note_on_c, 1, 48, 75
1, 24624, Note_on_c, 0, 75, 0
1, 24624, Note_on_c, 0, 72, 75
1, 24669, Note_on_c, 0, 72, 0
1, 24672, Note_on_c, 0, 70, 75
1, 24717, Note_on_c, 0, 70, 0
1, 24720, Note_on_c, 0, 69, 75
1, 24753, Note_on_c, 1, 60, 0
1, 24753, Note_on_c, 1, 48, 0
1, 24765, Note_on_c, 0, 69, 0
1, 24768, Note_on_c, 0, 74, 75
1, 24857, Note_on_c, 0, 74, 0
1, 24864, Note_on_c, 0, 66, 75
1, 24864, Note_on_c, 1, 62, 75
1, 24864, Note_on_c, 1, 50, 75
1, 24953, Note_on_c, 0, 66, 0
1, 24953, Note_on_c, 1, 62, 0
1, 24953, Note_on_c, 1, 50, 0
1, 24960, Note_on_c, 0, 69, 75
1, 24960, Note_on_c, 1, 58, 75
1, 24960, Note_on_c, 1, 46, 75
1, 24975, Note_on_c, 0, 69, 0
1, 24976, Note_on_c, 0, 67, 75
1, 24991, Note_on_c, 0, 67, 0
1, 24992, Note_on_c, 0, 69, 75
1, 25007, Note_on_c, 0, 69, 0
1, 25008, Note_on_c, 0, 67, 75
1, 25023, Note_on_c, 0, 67, 0
1, 25024, Note_on_c, 0, 66, 75
1, 25039, Note_on_c, 0, 66, 0
1, 25040, Note_on_c, 0, 67, 75
1, 25049, Note_on_c, 1, 58, 0
1, 25049, Note_on_c, 1, 46, 0
1, 25055, Note_on_c, 0, 67, 0
1, 25056, Note_on_c, 0, 69, 75
1, 25056, Note_on_c, 1, 54, 75
1, 25056, Note_on_c, 1, 42, 75
1, 25145, Note_on_c, 0, 69, 0
1, 25145, Note_on_c, 1, 54, 0
1, 25145, Note_on_c, 1, 42, 0
1, 25152, Note_on_c, 0, 72, 75
1, 25152, Note_on_c, 1, 55, 75
1, 25152, Note_on_c, 1, 43, 75
1, 25167, Note_on_c, 0, 72, 0
1, 25168, Note_on_c, 0, 70, 75
1, 25183, Note_on_c, 0, 70, 0
1, 25184, Note_on_c, 0, 72, 75
1, 25199, Note_on_c, 0, 72, 0
1, 25200, Note_on_c, 0, 70, 75
1, 25215, Note_on_c, 0, 70, 0
1, 25216, Note_on_c, 0, 69, 75
1, 25231, Note_on_c, 0, 69, 0
1, 25232, Note_on_c, 0, 70, 75
1, 25241, Note_on_c, 1, 55, 0
1, 25241, Note_on_c, 1, 43, 0
1, 25247, Note_on_c, 0, 70, 0
1, 25248, Note_on_c, 0, 72, 75
1, 25248, Note_on_c, 1, 57, 75
1, 25248, Note_on_c, 1, 45, 75
1, 25337, Note_on_c, 0, 72, 0
1, 25337, Note_on_c, 1, 57, 0
1, 25337, Note_on_c, 1, 45, 0
1, 25344, Note_on_c, 0, 74, 75
1, 25344, Note_on_c, 1, 58, 75
1, 25344, Note_on_c, 1, 46, 75
1, 25392, Note_on_c, 0, 74, 0
1, 25392, Note_on_c, 0, 70, 75
1, 25433, Note_on_c, 1, 58, 0
1, 25433, Note_on_c, 1, 46, 0
1, 25437, Note_on_c, 0, 70, 0
1, 25440, Note_on_c, 0, 69, 75
1, 25440, Note_on_c, 1, 63, 75
1, 25440, Note_on_c, 1, 51, 75
1, 25485, Note_on_c, 0, 69, 0
1, 25488, Note_on_c, 0, 67, 75
1, 25529, Note_on_c, 1, 63, 0
1, 25529, Note_on_c, 1, 51, 0
1, 25533, Note_on_c, 0, 67, 0
1, 25536, Note_on_c, 0, 72, 75
1, 25536, Note_on_c, 1, 60, 75
1, 25536, Note_on_c, 1, 48, 75
1, 25584, Note_on_c, 0, 72, 0
1, 25584, Note_on_c, 0, 69, 75
1, 25625, Note_on_c, 1, 60, 0
1, 25625, Note_on_c, 1, 48, 0
1, 25629, Note_on_c, 0, 69, 0
1, 25632, Note_on_c, 0, 67, 75
1, 25632, Note_on_c, 1, 62, 75
1, 25632, Note_on_c, 1, 50, 75
1, 25677, Note_on_c, 0, 67, 0
1, 25680, Note_on_c, 0, 66, 75
1, 25721, Note_on_c, 1, 62, 0
1, 25721, Note_on_c, 1, 50, 0
1, 25725, Note_on_c, 0, 66, 0
1, 25728, Note_on_c, 0, 69, 75
1, 25740, Note_on_c, 0, 69, 0
1, 25740, Note_on_c, 0, 67, 75
1, 25752, Note_on_c, 0, 67, 0
1, 25752, Note_on_c, 0, 66, 75
1, 25764, Note_on_c, 0, 66, 0
1, 25764, Note_on_c, 0, 67, 75
1, 25817, Note_on_c, 0, 67, 0
1, 25824, Note_on_c, 0, 62, 75
1, 25824, Note_on_c, 1, 58, 75
1, 25824, Note_on_c, 1, 46, 75
1, 25913, Note_on_c, 0, 62, 0
1, 25913, Note_on_c, 1, 58, 0
1, 25913, Note_on_c, 1, 46, 0
1, 25920, Note_on_c, 1, 57, 75
1, 25920, Note_on_c, 1, 45, 75
1, 26009, Note_on_c, 1, 57, 0
1, 26009, Note_on_c, 1, 45, 0
1, 26016, Note_on_c, 0, 74, 75
1, 26016, Note_on_c, 1, 55, 75
1, 26016, Note_on_c, 1, 43, 75
1, 26105, Note_on_c, 0, 74, 0
1, 26105, Note_on_c, 1, 55, 0
1, 26105, Note_on_c, 1, 43, 0
1, 26112, Note_on_c, 0, 72, 75
1, 26160, Note_on_c, 0, 72, 0
1, 26160, Note_on_c, 0, 70, 75
1, 26205, Note_on_c, 0, 70, 0
1, 26208, Note_on_c, 0, 69, 75
1, 26208, Note_on_c, 1, 58, 70
1, 26208, Note_on_c, 1, 55, 70
1, 26253, Note_on_c, 0, 69, 0
1, 26256, Note_on_c, 0, 67, 75
1, 26301, Note_on_c, 0, 67, 0
1, 26302, Note_on_c, 1, 58, 0
1, 26302, Note_on_c, 1, 55, 0
1, 26304, Note_on_c, 0, 75, 75
1, 26304, Note_on_c, 1, 58, 70
1, 26304, Note_on_c, 1, 55, 70
1, 26393, Note_on_c, 0, 75, 0
1, 26398, Note_on_c, 1, 58, 0
1, 26398, Note_on_c, 1, 55, 0
1, 26400, Note_on_c, 0, 75, 75
1, 26400, Note_on_c, 1, 58, 70
1, 26400, Note_on_c, 1, 55, 70
1, 26489, Note_on_c, 0, 75, 0
1, 26494, Note_on_c, 1, 58, 0
1, 26494, Note_on_c, 1, 55, 0
1, 26496, Note_on_c, 0, 75, 75
1, 26496, Note_on_c, 1, 57, 70
1, 26496, Note_on_c, 1, 54, 70
1, 26509, Note_on_c, 0, 75, 0
1, 26510, Note_on_c, 0, 77, 75
1, 26523, Note_on_c, 0, 77, 0
1, 26524, Note_on_c, 0, 75, 75
1, 26537, Note_on_c, 0, 75, 0
1, 26538, Note_on_c, 0, 77, 75
1, 26551, Note_on_c, 0, 77, 0
1, 26552, Note_on_c, 0, 75, 75
1, 26565, Note_on_c, 0, 75, 0
1, 26566, Note_on_c, 0, 74, 75
1, 26578, Note_on_c, 0, 74, 0
1, 26579, Note_on_c, 0, 75, 75
1, 26591, Note_on_c, 0, 75, 0
1, 26592, Note_on_c, 0, 74, 75
1, 26673, Note_on_c, 1, 57, 0
1, 26673, Note_on_c, 1, 54, 0
1, 26681, Note_on_c, 0, 74, 0
1, 26688, Note_on_c, 1, 56, 70
1, 26688, Note_on_c, 1, 53, 70
1, 26736, Note_on_c, 0, 74, 75
1, 26781, Note_on_c, 0, 74, 0
1, 26784, Note_on_c, 0, 77, 75
1, 26829, Note_on_c, 0, 77, 0
1, 26832, Note_on_c, 0, 80, 75
1, 26865, Note_on_c, 1, 56, 0
1, 26865, Note_on_c, 1, 53, 0
1, 26877, Note_on_c, 0, 80, 0
1, 26880, Note_on_c, 0, 71, 75
1, 26880, Note_on_c, 1, 55, 70
1, 26880, Note_on_c, 1, 53, 64
1, 26947, Note_on_c, 0, 71, 0
1, 26952, Note_on_c, 0, 72, 75
1, 26964, Note_on_c, 0, 72, 0
1, 26964, Note_on_c, 0, 74, 75
1, 26976, Note_on_c, 0, 74, 0
1, 26976, Note_on_c, 0, 72, 75
1, 26976, Note_on_c, 1, 53, 0
1, 26976, Note_on_c, 1, 51, 64
1, 27057, Note_on_c, 1, 55, 0
1, 27065, Note_on_c, 0, 72, 0
1, 27065, Note_on_c, 1, 51, 0
1, 27072, Note_on_c, 0, 79, 75
1, 27117, Note_on_c, 0, 79, 0
1, 27120, Note_on_c, 0, 75, 75
1, 27165, Note_on_c, 0, 75, 0
1, 27168, Note_on_c, 0, 72, 75
1, 27168, Note_on_c, 1, 55, 70
1, 27168, Note_on_c, 1, 51, 70
1, 27213, Note_on_c, 0, 72, 0
1, 27216, Note_on_c, 0, 70, 75
1, 27257, Note_on_c, 1, 55, 0
1, 27257, Note_on_c, 1, 51, 0
1, 27261, Note_on_c, 0, 70, 0
1, 27264, Note_on_c, 0, 69, 75
1, 27264, Note_on_c, 1, 53, 70
1, 27264, Note_on_c, 1, 51, 64
1, 27331, Note_on_c, 0, 69, 0
1, 27336, Note_on_c, 0, 70, 75
1, 27348, Note_on_c, 0, 70, 0
1, 27348, Note_on_c, 0, 72, 75
1, 27360, Note_on_c, 0, 72, 0
1, 27360, Note_on_c, 0, 70, 75
1, 27360, Note_on_c, 1, 51, 0
1, 27360, Note_on_c, 1, 50, 64
1, 27441, Note_on_c, 1, 53, 0
1, 27449, Note_on_c, 0, 70, 0
1, 27449, Note_on_c, 1, 50, 0
1, 27456, Note_on_c, 0, 77, 75
1, 27501, Note_on_c, 0, 77, 0
1, 27504, Note_on_c, 0, 74, 75
1, 27549, Note_on_c, 0, 74, 0
1, 27552, Note_on_c, 0, 72, 75
1, 27552, Note_on_c, 1, 53, 70
1, 27552, Note_on_c, 1, 50, 70
1, 27597, Note_on_c, 0, 72, 0
1, 27600, Note_on_c, 0, 70, 75
1, 27641, Note_on_c, 1, 53, 0
1, 27641, Note_on_c, 1, 50, 0
1, 27645, Note_on_c, 0, 70, 0
1, 27648, Note_on_c, 0, 67, 75
1, 27648, Note_on_c, 1, 51, 70
1, 27648, Note_on_c, 1, 50, 64
1, 27715, Note_on_c, 0, 67, 0
1, 27720, Note_on_c, 0, 69, 75
1, 27732, Note_on_c, 0, 69, 0
1, 27732, Note_on_c, 0, 70, 75
1, 27744, Note_on_c, 0, 70, 0
1, 27744, Note_on_c, 0, 69, 75
1, 27744, Note_on_c, 1, 50, 0
1, 27744, Note_on_c, 1, 48, 64
1, 27825, Note_on_c, 1, 51, 0
1, 27833, Note_on_c, 0, 69, 0
1, 27833, Note_on_c, 1, 48, 0
1, 27840, Note_on_c, 0, 75, 75
1, 27885, Note_on_c, 0, 75, 0
1, 27888, Note_on_c, 0, 72, 75
1, 27933, Note_on_c, 0, 72, 0
1, 27936, Note_on_c, 0, 69, 75
1, 27936, Note_on_c, 1, 51, 70
1, 27936, Note_on_c, 1, 48, 70
1, 27981, Note_on_c, 0, 69, 0
1, 27984, Note_on_c, 0, 67, 75
1, 28025, Note_on_c, 1, 51, 0
1, 28025, Note_on_c, 1, 48, 0
1, 28029, Note_on_c, 0, 67, 0
1, 28032, Note_on_c, 0, 67, 75
1, 28032, Note_on_c, 1, 50, 70
1, 28121, Note_on_c, 1, 50, 0
1, 28128, Note_on_c, 0, 67, 0
1, 28128, Note_on_c, 0, 66, 75
1, 28128, Note_on_c, 1, 38, 70
1, 28209, Note_on_c, 0, 66, 0
1, 28217, Note_on_c, 1, 38, 0
1, 28224, Note_on_c, 0, 81, 75
1, 28269, Note_on_c, 0, 81, 0
1, 28272, Note_on_c, 0, 78, 75
1, 28317, Note_on_c, 0, 78, 0
1, 28320, Note_on_c, 0, 74, 75
1, 28320, Note_on_c, 1, 54, 75
1, 28320, Note_on_c, 1, 42, 75
1, 28365, Note_on_c, 0, 74, 0
1, 28368, Note_on_c, 0, 72, 75
1, 28409, Note_on_c, 1, 54, 0
1, 28409, Note_on_c, 1, 42, 0
1, 28413, Note_on_c, 0, 72, 0
1, 28416, Note_on_c, 0, 70, 75
1, 28416, Note_on_c, 1, 55, 75
1, 28416, Note_on_c, 1, 43, 75
1, 28461, Note_on_c, 0, 70, 0
1, 28464, Note_on_c, 0, 74, 75
1, 28505, Note_on_c, 1, 55, 0
1, 28505, Note_on_c, 1, 43, 0
1, 28509, Note_on_c, 0, 74, 0
1, 28512, Note_on_c, 0, 72, 76
1, 28512, Note_on_c, 1, 57, 76
1, 28512, Note_on_c, 1, 45, 76
1, 28557, Note_on_c, 0, 72, 0
1, 28560, Note_on_c, 0, 69, 76
1, 28601, Note_on_c, 1, 57, 0
1, 28601, Note_on_c, 1, 45, 0
1, 28605, Note_on_c, 0, 69, 0
1, 28608, Note_on_c, 0, 67, 77
1, 28608, Note_on_c, 1, 58, 77
1, 28608, Note_on_c, 1, 46, 77
1, 28653, Note_on_c, 0, 67, 0
1, 28656, Note_on_c, 0, 70, 77
1, 28697, Note_on_c, 1, 58, 0
1, 28697, Note_on_c, 1, 46, 0
1, 28701, Note_on_c, 0, 70, 0
1, 28704, Note_on_c, 0, 69, 78
1, 28704, Note_on_c, 1, 60, 78
1, 28704, Note_on_c, 1, 48, 78
1, 28749, Note_on_c, 0, 69, 0
1, 28752, Note_on_c, 0, 67, 79
1, 28793, Note_on_c, 1, 60, 0
1, 28793, Note_on_c, 1, 48, 0
1, 28797, Note_on_c, 0, 67, 0
1, 28800, Note_on_c, 0, 66, 79
1, 28800, Note_on_c, 1, 62, 79
1, 28800, Note_on_c, 1, 50, 79
1, 28830, Note_on_c, 0, 66, 0
1, 28832, Note_on_c, 0, 67, 80
1, 28862, Note_on_c, 0, 67, 0
1, 28864, Note_on_c, 0, 69, 80
1, 28889, Note_on_c, 1, 62, 0
1, 28889, Note_on_c, 1, 50, 0
1, 28894, Note_on_c, 0, 69, 0
1, 28896, Note_on_c, 0, 62, 80
1, 28985, Note_on_c, 0, 62, 0
1, 28992, Note_on_c, 0, 81, 80
1, 29037, Note_on_c, 0, 81, 0
1, 29040, Note_on_c, 0, 78, 80
1, 29085, Note_on_c, 0, 78, 0
1, 29088, Note_on_c, 0, 74, 75
1, 29088, Note_on_c, 1, 54, 75
1, 29088, Note_on_c, 1, 42, 75
1, 29133, Note_on_c, 0, 74, 0
1, 29136, Note_on_c, 0, 72, 75
1, 29177, Note_on_c, 1, 54, 0
1, 29177, Note_on_c, 1, 42, 0
1, 29181, Note_on_c, 0, 72, 0
1, 29184, Note_on_c, 0, 70, 76
1, 29184, Note_on_c, 1, 55, 76
1, 29184, Note_on_c, 1, 43, 76
1, 29229, Note_on_c, 0, 70, 0
1, 29232, Note_on_c, 0, 74, 76
1, 29273, Note_on_c, 1, 55, 0
1, 29273, Note_on_c, 1, 43, 0
1, 29277, Note_on_c, 0, 74, 0
1, 29280, Note_on_c, 0, 72, 77
1, 29280, Note_on_c, 1, 57, 77
1, 29280, Note_on_c, 1, 45, 77
1, 29325, Note_on_c, 0, 72, 0
1, 29328, Note_on_c, 0, 69, 78
1, 29369, Note_on_c, 1, 57, 0
1, 29369, Note_on_c, 1, 45, 0
1, 29373, Note_on_c, 0, 69, 0
1, 29376, Note_on_c, 0, 67, 78
1, 29376, Note_on_c, 1, 58, 78
1, 29376, Note_on_c, 1, 46, 78
1, 29421, Note_on_c, 0, 67, 0
1, 29424, Note_on_c, 0, 79, 79
1, 29465, Note_on_c, 1, 58, 0
1, 29465, Note_on_c, 1, 46, 0
1, 29469, Note_on_c, 0, 79, 0
1, 29472, Note_on_c, 0, 67, 80
1, 29472, Note_on_c, 1, 59, 80
1, 29472, Note_on_c, 1, 47, 80
1, 29517, Note_on_c, 0, 67, 0
1, 29520, Note_on_c, 0, 77, 80
1, 29561, Note_on_c, 1, 59, 0
1, 29561, Note_on_c, 1, 47, 0
1, 29565, Note_on_c, 0, 77, 0
1, 29568, Note_on_c, 0, 75, 80
1, 29568, Note_on_c, 1, 60, 80
1, 29568, Note_on_c, 1, 48, 80
1, 29613, Note_on_c, 0, 75, 0
1, 29616, Note_on_c, 0, 79, 80
1, 29657, Note_on_c, 1, 60, 0
1, 29657, Note_on_c, 1, 48, 0
1, 29661, Note_on_c, 0, 79, 0
1, 29664, Note_on_c, 0, 72, 80
1, 29664, Note_on_c, 1, 57, 80
1, 29664, Note_on_c, 1, 45, 80
1, 29709, Note_on_c, 0, 72, 0
1, 29712, Note_on_c, 0, 75, 80
1, 29753, Note_on_c, 1, 57, 0
1, 29753, Note_on_c, 1, 45, 0
1, 29757, Note_on_c, 0, 75, 0
1, 29760, Note_on_c, 0, 74, 80
1, 29760, Note_on_c, 1, 58, 80
1, 29760, Note_on_c, 1, 46, 80
1, 29805, Note_on_c, 0, 74, 0
1, 29808, Note_on_c, 0, 79, 80
1, 29849, Note_on_c, 1, 58, 0
1, 29849, Note_on_c, 1, 46, 0
1, 29853, Note_on_c, 0, 79, 0
1, 29856, Note_on_c, 0, 70, 80
1, 29856, Note_on_c, 1, 55, 80
1, 29856, Note_on_c, 1, 43, 80
1, 29901, Note_on_c, 0, 70, 0
1, 29904, Note_on_c, 0, 74, 80
1, 29945, Note_on_c, 1, 55, 0
1, 29945, Note_on_c, 1, 43, 0
1, 29949, Note_on_c, 0, 74, 0
1, 29952, Note_on_c, 0, 72, 80
1, 29952, Note_on_c, 1, 57, 80
1, 29952, Note_on_c, 1, 45, 80
1, 29964, Note_on_c, 0, 72, 0
1, 29964, Note_on_c, 0, 74, 80
1, 29976, Note_on_c, 0, 74, 0
1, 29976, Note_on_c, 0, 72, 80
1, 29997, Note_on_c, 0, 72, 0
1, 30000, Note_on_c, 0, 71, 80
1, 30041, Note_on_c, 1, 57, 0
1, 30041, Note_on_c, 1, 45, 0
1, 30045, Note_on_c, 0, 71, 0
1, 30048, Note_on_c, 0, 72, 80
1, 30048, Note_on_c, 1, 55, 80
1, 30048, Note_on_c, 1, 43, 80
1, 30093, Note_on_c, 0, 72, 0
1, 30096, Note_on_c, 0, 72, 80
1, 30137, Note_on_c, 1, 55, 0
1, 30137, Note_on_c, 1, 43, 0
1, 30141, Note_on_c, 0, 72, 0
1, 30144, Note_on_c, 0, 72, 80
1, 30144, Note_on_c, 1, 54, 80
1, 30144, Note_on_c, 1, 42, 80
1, 30189, Note_on_c, 0, 72, 0
1, 30192, Note_on_c, 0, 81, 80
1, 30233, Note_on_c, 1, 54, 0
1, 30233, Note_on_c, 1, 42, 0
1, 30237, Note_on_c, 0, 81, 0
1, 30240, Note_on_c, 0, 69, 80
1, 30240, Note_on_c, 1, 50, 80
1, 30240, Note_on_c, 1, 38, 80
1, 30285, Note_on_c, 0, 69, 0
1, 30288, Note_on_c, 0, 72, 80
1, 30329, Note_on_c, 1, 50, 0
1, 30329, Note_on_c, 1, 38, 0
1, 30333, Note_on_c, 0, 72, 0
1, 30336, Note_on_c, 0, 70, 80
1, 30336, Note_on_c, 1, 55, 80
1, 30336, Note_on_c, 1, 43, 80
1, 30425, Note_on_c, 0, 70, 0
1, 30425, Note_on_c, 1, 55, 0
1, 30425, Note_on_c, 1, 43, 0
1, 30432, Note_on_c, 0, 67, 75
1, 30432, Note_on_c, 1, 55, 75
1, 30477, Note_on_c, 1, 55, 0
1, 30480, Note_on_c, 1, 59, 75
1, 30521, Note_on_c, 0, 67, 0
1, 30525, Note_on_c, 1, 59, 0
1, 30528, Note_on_c, 0, 67, 75
1, 30528, Note_on_c, 1, 57, 75
1, 30573, Note_on_c, 1, 57, 0
1, 30576, Note_on_c, 1, 60, 75
1, 30617, Note_on_c, 0, 67, 0
1, 30621, Note_on_c, 1, 60, 0
1, 30624, Note_on_c, 0, 67, 75
1, 30624, Note_on_c, 1, 59, 75
1, 30669, Note_on_c, 1, 59, 0
1, 30672, Note_on_c, 1, 62, 75
1, 30713, Note_on_c, 0, 67, 0
1, 30717, Note_on_c, 1, 62, 0
1, 30720, Note_on_c, 0, 67, 75
1, 30720, Note_on_c, 1, 60, 75
1, 30765, Note_on_c, 0, 67, 0
1, 30768, Note_on_c, 0, 79, 75
1, 30813, Note_on_c, 0, 79, 0
1, 30816, Note_on_c, 0, 75, 75
1, 30853, Note_on_c, 1, 60, 0
1, 30861, Note_on_c, 0, 75, 0
1, 30864, Note_on_c, 0, 72, 75
1, 30864, Note_on_c, 1, 63, 75
1, 30909, Note_on_c, 0, 72, 0
1, 30909, Note_on_c, 1, 63, 0
1, 30912, Note_on_c, 0, 70, 75
1, 30912, Note_on_c, 1, 62, 75
1, 30957, Note_on_c, 0, 70, 0
1, 30960, Note_on_c, 0, 67, 75
1, 31001, Note_on_c, 1, 62, 0
1, 31005, Note_on_c, 0, 67, 0
1, 31008, Note_on_c, 0, 69, 75
1, 31008, Note_on_c, 1, 50, 75
1, 31053, Note_on_c, 0, 69, 0
1, 31056, Note_on_c, 0, 66, 75
1, 31097, Note_on_c, 1, 50, 0
1, 31101, Note_on_c, 0, 66, 0
1, 31104, Note_on_c, 0, 67, 75
1, 31104, Note_on_c, 1, 55, 75
1, 31193, Note_on_c, 0, 67, 0
1, 31193, Note_on_c, 1, 55, 0
1, 31200, Note_on_c, 0, 67, 75
1, 31200, Note_on_c, 1, 55, 75
1, 31245, Note_on_c, 1, 55, 0
1, 31248, Note_on_c, 1, 59, 75
1, 31289, Note_on_c, 0, 67, 0
1, 31293, Note_on_c, 1, 59, 0
1, 31296, Note_on_c, 0, 67, 75
1, 31296, Note_on_c, 1, 57, 75
1, 31341, Note_on_c, 1, 57, 0
1, 31344, Note_on_c, 1, 60, 75
1, 31385, Note_on_c, 0, 67, 0
1, 31389, Note_on_c, 1, 60, 0
1, 31392, Note_on_c, 0, 67, 75
1, 31392, Note_on_c, 1, 59, 75
1, 31437, Note_on_c, 1, 59, 0
1, 31440, Note_on_c, 1, 62, 75
1, 31481, Note_on_c, 0, 67, 0
1, 31485, Note_on_c, 1, 62, 0
1, 31488, Note_on_c, 0, 67, 75
1, 31488, Note_on_c, 1, 60, 75
1, 31533, Note_on_c, 0, 67, 0
1, 31536, Note_on_c, 0, 79, 75
1, 31581, Note_on_c, 0, 79, 0
1, 31584, Note_on_c, 0, 75, 75
1, 31621, Note_on_c, 1, 60, 0
1, 31629, Note_on_c, 0, 75, 0
1, 31632, Note_on_c, 0, 72, 75
1, 31632, Note_on_c, 1, 63, 75
1, 31677, Note_on_c, 0, 72, 0
1, 31677, Note_on_c, 1, 63, 0
1, 31680, Note_on_c, 0, 70, 75
1, 31680, Note_on_c, 1, 62, 75
1, 31725, Note_on_c, 0, 70, 0
1, 31728, Note_on_c, 0, 67, 75
1, 31769, Note_on_c, 1, 62, 0
1, 31773, Note_on_c, 0, 67, 0
1, 31776, Note_on_c, 0, 69, 75
1, 31776, Note_on_c, 1, 50, 75
1, 31821, Note_on_c, 0, 69, 0
1, 31824, Note_on_c, 0, 66, 75
1, 31865, Note_on_c, 1, 50, 0
1, 31869, Note_on_c, 0, 66, 0
1, 31872, Note_on_c, 0, 69, 75
1, 31872, Note_on_c, 1, 55, 75
1, 31884, Note_on_c, 0, 69, 0
1, 31884, Note_on_c, 0, 67, 75
1, 31896, Note_on_c, 0, 67, 0
1, 31896, Note_on_c, 0, 66, 75
1, 31908, Note_on_c, 0, 66, 0
1, 31908, Note_on_c, 0, 67, 75
1, 31961, Note_on_c, 0, 67, 0
1, 31961, Note_on_c, 1, 55, 0
1, 31968, Note_on_c, 1, 50, 75
1, 32057, Note_on_c, 1, 50, 0
1, 32064, Note_on_c, 1, 43, 75
1, 32153, Note_on_c, 1, 43, 0
1, 32160, Note_on_c, 0, 77, 75
1, 32249, Note_on_c, 0, 77, 0
1, 32256, Note_on_c, 0, 75, 75
1, 32256, Note_on_c, 1, 58, 75
1, 32256, Note_on_c, 1, 46, 75
1, 32304, Note_on_c, 0, 75, 0
1, 32304, Note_on_c, 0, 74, 75
1, 32345, Note_on_c, 1, 58, 0
1, 32345, Note_on_c, 1, 46, 0
1, 32349, Note_on_c, 0, 74, 0
1, 32352, Note_on_c, 0, 72, 75
1, 32397, Note_on_c, 0, 72, 0
1, 32400, Note_on_c, 0, 70, 75
1, 32445, Note_on_c, 0, 70, 0
1, 32448, Note_on_c, 0, 70, 75
1, 32487, Note_on_c, 0, 70, 0
1, 32544, Note_on_c, 0, 72, 75
1, 32544, Note_on_c, 1, 57, 75
1, 32544, Note_on_c, 1, 53, 75
1, 32633, Note_on_c, 0, 72, 0
1, 32633, Note_on_c, 1, 57, 0
1, 32633, Note_on_c, 1, 53, 0
1, 32640, Note_on_c, 0, 75, 75
1, 32640, Note_on_c, 1, 58, 75
1, 32640, Note_on_c, 1, 53, 64
1, 32655, Note_on_c, 0, 75, 0
1, 32656, Note_on_c, 0, 74, 75
1, 32671, Note_on_c, 0, 74, 0
1, 32672, Note_on_c, 0, 75, 75
1, 32687, Note_on_c, 0, 75, 0
1, 32688, Note_on_c, 0, 74, 75
1, 32703, Note_on_c, 0, 74, 0
1, 32704, Note_on_c, 0, 72, 75
1, 32719, Note_on_c, 0, 72, 0
1, 32720, Note_on_c, 0, 74, 75
1, 32729, Note_on_c, 1, 58, 0
1, 32735, Note_on_c, 0, 74, 0
1, 32736, Note_on_c, 0, 72, 75
1, 32736, Note_on_c, 1, 57, 75
1, 32817, Note_on_c, 1, 53, 0
1, 32825, Note_on_c, 0, 72, 0
1, 32825, Note_on_c, 1, 57, 0
1, 32928, Note_on_c, 0, 79, 75
1, 33017, Note_on_c, 0, 79, 0
1, 33024, Note_on_c, 0, 77, 75
1, 33024, Note_on_c, 1, 60, 75
1, 33024, Note_on_c, 1, 48, 75
1, 33072, Note_on_c, 0, 77, 0
1, 33072, Note_on_c, 0, 75, 75
1, 33113, Note_on_c, 1, 60, 0
1, 33113, Note_on_c, 1, 48, 0
1, 33117, Note_on_c, 0, 75, 0
1, 33120, Note_on_c, 0, 74, 75
1, 33165, Note_on_c, 0, 74, 0
1, 33168, Note_on_c, 0, 72, 75
1, 33213, Note_on_c, 0, 72, 0
1, 33216, Note_on_c, 0, 72, 75
1, 33255, Note_on_c, 0, 72, 0
1, 33312, Note_on_c, 0, 74, 75
1, 33312, Note_on_c, 1, 59, 75
1, 33312, Note_on_c, 1, 55, 75
1, 33401, Note_on_c, 0, 74, 0
1, 33401, Note_on_c, 1, 59, 0
1, 33401, Note_on_c, 1, 55, 0
1, 33408, Note_on_c, 0, 77, 75
1, 33408, Note_on_c, 1, 60, 75
1, 33408, Note_on_c, 1, 55, 64
1, 33423, Note_on_c, 0, 77, 0
1, 33424, Note_on_c, 0, 75, 75
1, 33439, Note_on_c, 0, 75, 0
1, 33440, Note_on_c, 0, 77, 75
1, 33455, Note_on_c, 0, 77, 0
1, 33456, Note_on_c, 0, 75, 75
1, 33471, Note_on_c, 0, 75, 0
1, 33472, Note_on_c, 0, 74, 75
1, 33487, Note_on_c, 0, 74, 0
1, 33488, Note_on_c, 0, 75, 75
1, 33497, Note_on_c, 1, 60, 0
1, 33503, Note_on_c, 0, 75, 0
1, 33504, Note_on_c, 0, 74, 75
1, 33504, Note_on_c, 1, 59, 75
1, 33585, Note_on_c, 1, 55, 0
1, 33593, Note_on_c, 0, 74, 0
1, 33593, Note_on_c, 1, 59, 0
1, 33600, Note_on_c, 0, 80, 75
1, 33648, Note_on_c, 0, 80, 0
1, 33648, Note_on_c, 0, 77, 75
1, 33693, Note_on_c, 0, 77, 0
1, 33696, Note_on_c, 0, 75, 75
1, 33696, Note_on_c, 1, 59, 75
1, 33696, Note_on_c, 1, 53, 75
1, 33741, Note_on_c, 0, 75, 0
1, 33744, Note_on_c, 0, 74, 75
1, 33785, Note_on_c, 1, 59, 0
1, 33785, Note_on_c, 1, 53, 0
1, 33789, Note_on_c, 0, 74, 0
1, 33792, Note_on_c, 0, 79, 75
1, 33837, Note_on_c, 0, 79, 0
1, 33840, Note_on_c, 0, 75, 75
1, 33885, Note_on_c, 0, 75, 0
1, 33888, Note_on_c, 0, 74, 76
1, 33888, Note_on_c, 1, 60, 76
1, 33888, Note_on_c, 1, 51, 76
1, 33933, Note_on_c, 0, 74, 0
1, 33936, Note_on_c, 0, 72, 76
1, 33977, Note_on_c, 1, 60, 0
1, 33977, Note_on_c, 1, 51, 0
1, 33981, Note_on_c, 0, 72, 0
1, 33984, Note_on_c, 0, 77, 77
1, 34029, Note_on_c, 0, 77, 0
1, 34032, Note_on_c, 0, 74, 78
1, 34077, Note_on_c, 0, 74, 0
1, 34080, Note_on_c, 0, 72, 78
1, 34080, Note_on_c, 1, 62, 78
1, 34080, Note_on_c, 1, 50, 78
1, 34125, Note_on_c, 0, 72, 0
1, 34128, Note_on_c, 0, 71, 79
1, 34169, Note_on_c, 1, 62, 0
1, 34169, Note_on_c, 1, 50, 0
1, 34173, Note_on_c, 0, 71, 0
1, 34176, Note_on_c, 0, 74, 79
1, 34176, Note_on_c, 1, 63, 79
1, 34176, Note_on_c, 1, 51, 79
1, 34191, Note_on_c, 0, 74, 0
1, 34192, Note_on_c, 0, 72, 80
1, 34207, Note_on_c, 0, 72, 0
1, 34208, Note_on_c, 0, 74, 80
1, 34223, Note_on_c, 0, 74, 0
1, 34224, Note_on_c, 0, 72, 80
1, 34239, Note_on_c, 0, 72, 0
1, 34240, Note_on_c, 0, 71, 80
1, 34255, Note_on_c, 0, 71, 0
1, 34256, Note_on_c, 0, 72, 80
1, 34265, Note_on_c, 1, 63, 0
1, 34265, Note_on_c, 1, 51, 0
1, 34271, Note_on_c, 0, 72, 0
1, 34272, Note_on_c, 0, 74, 80
1, 34272, Note_on_c, 1, 59, 80
1, 34272, Note_on_c, 1, 47, 80
1, 34361, Note_on_c, 0, 74, 0
1, 34361, Note_on_c, 1, 59, 0
1, 34361, Note_on_c, 1, 47, 0
1, 34368, Note_on_c, 0, 77, 80
1, 34368, Note_on_c, 1, 60, 80
1, 34368, Note_on_c, 1, 48, 80
1, 34383, Note_on_c, 0, 77, 0
1, 34384, Note_on_c, 0, 75, 80
1, 34399, Note_on_c, 0, 75, 0
1, 34400, Note_on_c, 0, 77, 80
1, 34415, Note_on_c, 0, 77, 0
1, 34416, Note_on_c, 0, 75, 80
1, 34431, Note_on_c, 0, 75, 0
1, 34432, Note_on_c, 0, 74, 80
1, 34447, Note_on_c, 0, 74, 0
1, 34448, Note_on_c, 0, 75, 80
1, 34457, Note_on_c, 1, 60, 0
1, 34457, Note_on_c, 1, 48, 0
1, 34463, Note_on_c, 0, 75, 0
1, 34464, Note_on_c, 0, 77, 80
1, 34464, Note_on_c, 1, 62, 80
1, 34464, Note_on_c, 1, 50, 80
1, 34553, Note_on_c, 0, 77, 0
1, 34553, Note_on_c, 1, 62, 0
1, 34553, Note_on_c, 1, 50, 0
1, 34560, Note_on_c, 0, 79, 80
1, 34560, Note_on_c, 1, 63, 80
1, 34560, Note_on_c, 1, 51, 80
1, 34608, Note_on_c, 0, 79, 0
1, 34608, Note_on_c, 0, 75, 80
1, 34649, Note_on_c, 1, 63, 0
1, 34649, Note_on_c, 1, 51, 0
1, 34653, Note_on_c, 0, 75, 0
1, 34656, Note_on_c, 0, 74, 75
1, 34656, Note_on_c, 1, 56, 75
1, 34656, Note_on_c, 1, 44, 75
1, 34701, Note_on_c, 0, 74, 0
1, 34704, Note_on_c, 0, 72, 75
1, 34745, Note_on_c, 1, 56, 0
1, 34745, Note_on_c, 1, 44, 0
1, 34749, Note_on_c, 0, 72, 0
1, 34752, Note_on_c, 0, 77, 76
1, 34752, Note_on_c, 1, 53, 76
1, 34752, Note_on_c, 1, 41, 76
1, 34800, Note_on_c, 0, 77, 0
1, 34800, Note_on_c, 0, 74, 76
1, 34841, Note_on_c, 1, 53, 0
1, 34841, Note_on_c, 1, 41, 0
1, 34845, Note_on_c, 0, 74, 0
1, 34848, Note_on_c, 0, 72, 77
1, 34848, Note_on_c, 1, 55, 77
1, 34848, Note_on_c, 1, 43, 77
1, 34893, Note_on_c, 0, 72, 0
1, 34896, Note_on_c, 0, 71, 78
1, 34937, Note_on_c, 1, 55, 0
1, 34937, Note_on_c, 1, 43, 0
1, 34941, Note_on_c, 0, 71, 0
1, 34944, Note_on_c, 0, 74, 78
1, 34956, Note_on_c, 0, 74, 0
1, 34956, Note_on_c, 0, 72, 78
1, 34968, Note_on_c, 0, 72, 0
1, 34968, Note_on_c, 0, 71, 78
1, 34980, Note_on_c, 0, 71, 0
1, 34980, Note_on_c, 0, 72, 78
1, 35033, Note_on_c, 0, 72, 0
1, 35040, Note_on_c, 0, 67, 80
1, 35040, Note_on_c, 1, 60, 75
1, 35085, Note_on_c, 1, 60, 0
1, 35088, Note_on_c, 1, 63, 75
1, 35129, Note_on_c, 0, 67, 0
1, 35133, Note_on_c, 1, 63, 0
1, 35136, Note_on_c, 1, 62, 75
1, 35181, Note_on_c, 1, 62, 0
1, 35184, Note_on_c, 1, 65, 75
1, 35229, Note_on_c, 1, 65, 0
1, 35232, Note_on_c, 0, 84, 75
1, 35232, Note_on_c, 1, 63, 75
1, 35277, Note_on_c, 1, 63, 0
1, 35280, Note_on_c, 1, 67, 75
1, 35321, Note_on_c, 0, 84, 0
1, 35325, Note_on_c, 1, 67, 0
1, 35328, Note_on_c, 0, 80, 75
1, 35328, Note_on_c, 1, 65, 75
1, 35373, Note_on_c, 0, 80, 0
1, 35376, Note_on_c, 0, 84, 75
1, 35417, Note_on_c, 1, 65, 0
1, 35421, Note_on_c, 0, 84, 0
1, 35424, Note_on_c, 0, 82, 75
1, 35424, Note_on_c, 1, 67, 75
1, 35469, Note_on_c, 0, 82, 0
1, 35472, Note_on_c, 0, 79, 75
1, 35513, Note_on_c, 1, 67, 0
1, 35517, Note_on_c, 0, 79, 0
1, 35520, Note_on_c, 0, 77, 75
1, 35520, Note_on_c, 1, 68, 75
1, 35565, Note_on_c, 0, 77, 0
1, 35568, Note_on_c, 0, 80, 75
1, 35609, Note_on_c, 1, 68, 0
1, 35613, Note_on_c, 0, 80, 0
1, 35616, Note_on_c, 0, 79, 75
1, 35616, Note_on_c, 1, 69, 75
1, 35661, Note_on_c, 0, 79, 0
1, 35664, Note_on_c, 0, 75, 75
1, 35705, Note_on_c, 1, 69, 0
1, 35709, Note_on_c, 0, 75, 0
1, 35712, Note_on_c, 0, 74, 75
1, 35712, Note_on_c, 1, 70, 75
1, 35757, Note_on_c, 0, 74, 0
1, 35760, Note_on_c, 0, 77, 75
1, 35801, Note_on_c, 1, 70, 0
1, 35805, Note_on_c, 0, 77, 0
1, 35808, Note_on_c, 0, 70, 75
1, 35808, Note_on_c, 1, 58, 75
1, 35853, Note_on_c, 1, 58, 0
1, 35856, Note_on_c, 1, 62, 75
1, 35897, Note_on_c, 0, 70, 0
1, 35901, Note_on_c, 1, 62, 0
1, 35904, Note_on_c, 1, 60, 75
1, 35949, Note_on_c, 1, 60, 0
1, 35952, Note_on_c, 1, 63, 75
1, 35997, Note_on_c, 1, 63, 0
1, 36000, Note_on_c, 0, 82, 75
1, 36000, Note_on_c, 1, 62, 75
1, 36045, Note_on_c, 1, 62, 0
1, 36048, Note_on_c, 1, 65, 75
1, 36089, Note_on_c, 0, 82, 0
1, 36093, Note_on_c, 1, 65, 0
1, 36096, Note_on_c, 0, 79, 75
1, 36096, Note_on_c, 1, 63, 75
1, 36141, Note_on_c, 0, 79, 0
1, 36144, Note_on_c, 0, 82, 75
1, 36185, Note_on_c, 1, 63, 0
1, 36189, Note_on_c, 0, 82, 0
1, 36192, Note_on_c, 0, 80, 75
1, 36192, Note_on_c, 1, 65, 75
1, 36237, Note_on_c, 0, 80, 0
1, 36240, Note_on_c, 0, 77, 75
1, 36281, Note_on_c, 1, 65, 0
1, 36285, Note_on_c, 0, 77, 0
1, 36288, Note_on_c, 0, 75, 75
1, 36288, Note_on_c, 1, 67, 75
1, 36333, Note_on_c, 0, 75, 0
1, 36336, Note_on_c, 0, 79, 75
1, 36377, Note_on_c, 1, 67, 0
1, 36381, Note_on_c, 0, 79, 0
1, 36384, Note_on_c, 0, 77, 75
1, 36384, Note_on_c, 1, 67, 75
1, 36429, Note_on_c, 0, 77, 0
1, 36432, Note_on_c, 0, 74, 75
1, 36473, Note_on_c, 1, 67, 0
1, 36477, Note_on_c, 0, 74, 0
1, 36480, Note_on_c, 0, 72, 75
1, 36480, Note_on_c, 1, 68, 75
1, 36525, Note_on_c, 0, 72, 0
1, 36528, Note_on_c, 0, 75, 75
1, 36569, Note_on_c, 1, 68, 0
1, 36573, Note_on_c, 0, 75, 0
1, 36576, Note_on_c, 0, 68, 75
1, 36576, Note_on_c, 1, 56, 75
1, 36621, Note_on_c, 1, 56, 0
1, 36624, Note_on_c, 1, 60, 75
1, 36665, Note_on_c, 0, 68, 0
1, 36669, Note_on_c, 1, 60, 0
1, 36672, Note_on_c, 1, 58, 75
1, 36717, Note_on_c, 1, 58, 0
1, 36720, Note_on_c, 1, 62, 75
1, 36765, Note_on_c, 1, 62, 0
1, 36768, Note_on_c, 0, 80, 75
1, 36768, Note_on_c, 1, 60, 75
1, 36813, Note_on_c, 1, 60, 0
1, 36816, Note_on_c, 1, 63, 75
1, 36857, Note_on_c, 0, 80, 0
1, 36861, Note_on_c, 1, 63, 0
1, 36864, Note_on_c, 0, 77, 75
1, 36864, Note_on_c, 1, 62, 75
1, 36909, Note_on_c, 0, 77, 0
1, 36912, Note_on_c, 0, 80, 75
1, 36953, Note_on_c, 1, 62, 0
1, 36957, Note_on_c, 0, 80, 0
1, 36960, Note_on_c, 0, 79, 75
1, 36960, Note_on_c, 1, 63, 75
1, 37005, Note_on_c, 0, 79, 0
1, 37008, Note_on_c, 0, 75, 75
1, 37049, Note_on_c, 1, 63, 0
1, 37053, Note_on_c, 0, 75, 0
1, 37056, Note_on_c, 0, 74, 75
1, 37056, Note_on_c, 1, 65, 75
1, 37101, Note_on_c, 0, 74, 0
1, 37104, Note_on_c, 0, 77, 75
1, 37145, Note_on_c, 1, 65, 0
1, 37149, Note_on_c, 0, 77, 0
1, 37152, Note_on_c, 0, 75, 75
1, 37152, Note_on_c, 1, 66, 75
1, 37197, Note_on_c, 0, 75, 0
1, 37200, Note_on_c, 0, 72, 75
1, 37241, Note_on_c, 1, 66, 0
1, 37245, Note_on_c, 0, 72, 0
1, 37248, Note_on_c, 0, 71, 75
1, 37248, Note_on_c, 1, 67, 75
1, 37293, Note_on_c, 0, 71, 0
1, 37296, Note_on_c, 0, 74, 75
1, 37337, Note_on_c, 1, 67, 0
1, 37341, Note_on_c, 0, 74, 0
1, 37344, Note_on_c, 0, 67, 75
1, 37344, Note_on_c, 1, 55, 75
1, 37389, Note_on_c, 1, 55, 0
1, 37392, Note_on_c, 1, 59, 75
1, 37433, Note_on_c, 0, 67, 0
1, 37437, Note_on_c, 1, 59, 0
1, 37440, Note_on_c, 1, 57, 75
1, 37485, Note_on_c, 1, 57, 0
1, 37488, Note_on_c, 1, 60, 75
1, 37533, Note_on_c, 1, 60, 0
1, 37536, Note_on_c, 0, 79, 80
1, 37536, Note_on_c, 1, 59, 75
1, 37581, Note_on_c, 1, 59, 0
1, 37584, Note_on_c, 1, 62, 75
1, 37625, Note_on_c, 0, 79, 0
1, 37629, Note_on_c, 1, 62, 0
1, 37632, Note_on_c, 0, 75, 80
1, 37632, Note_on_c, 1, 60, 80
1, 37677, Note_on_c, 0, 75, 0
1, 37680, Note_on_c, 0, 72, 80
1, 37721, Note_on_c, 1, 60, 0
1, 37725, Note_on_c, 0, 72, 0
1, 37728, Note_on_c, 0, 79, 80
1, 37773, Note_on_c, 0, 79, 0
1, 37776, Note_on_c, 0, 75, 80
1, 37821, Note_on_c, 0, 75, 0
1, 37824, Note_on_c, 0, 74, 80
1, 37824, Note_on_c, 1, 59, 80
1, 37824, Note_on_c, 1, 47, 80
1, 37869, Note_on_c, 0, 74, 0
1, 37872, Note_on_c, 0, 79, 80
1, 37913, Note_on_c, 1, 59, 0
1, 37913, Note_on_c, 1, 47, 0
1, 37917, Note_on_c, 0, 79, 0
1, 37920, Note_on_c, 0, 67, 80
1, 37965, Note_on_c, 0, 67, 0
1, 37968, Note_on_c, 0, 77, 80
1, 38013, Note_on_c, 0, 77, 0
1, 38016, Note_on_c, 0, 75, 64
1, 38016, Note_on_c, 1, 60, 64
1, 38016, Note_on_c, 1, 48, 64
1, 38061, Note_on_c, 0, 75, 0
1, 38064, Note_on_c, 0, 72, 64
1, 38105, Note_on_c, 1, 60, 0
1, 38105, Note_on_c, 1, 48, 0
1, 38109, Note_on_c, 0, 72, 0
1, 38112, Note_on_c, 0, 79, 64
1, 38157, Note_on_c, 0, 79, 0
1, 38160, Note_on_c, 0, 75, 64
1, 38205, Note_on_c, 0, 75, 0
1, 38208, Note_on_c, 0, 74, 64
1, 38208, Note_on_c, 1, 59, 64
1, 38208, Note_on_c, 1, 47, 64
1, 38253, Note_on_c, 0, 74, 0
1, 38256, Note_on_c, 0, 79, 64
1, 38297, Note_on_c, 1, 59, 0
1, 38297, Note_on_c, 1, 47, 0
1, 38301, Note_on_c, 0, 79, 0
1, 38304, Note_on_c, 0, 67, 64
1, 38349, Note_on_c, 0, 67, 0
1, 38352, Note_on_c, 0, 77, 64
1, 38397, Note_on_c, 0, 77, 0
1, 38400, Note_on_c, 0, 75, 80
1, 38400, Note_on_c, 1, 60, 80
1, 38400, Note_on_c, 1, 48, 80
1, 38445, Note_on_c, 0, 75, 0
1, 38448, Note_on_c, 0, 72, 80
1, 38493, Note_on_c, 0, 72, 0
1, 38496, Note_on_c, 0, 79, 80
1, 38541, Note_on_c, 0, 79, 0
1, 38544, Note_on_c, 0, 75, 80
1, 38577, Note_on_c, 1, 60, 0
1, 38577, Note_on_c, 1, 48, 0
1, 38589, Note_on_c, 0, 75, 0
1, 38592, Note_on_c, 0, 74, 80
1, 38592, Note_on_c, 1, 58, 80
1, 38592, Note_on_c, 1, 46, 80
1, 38637, Note_on_c, 0, 74, 0
1, 38640, Note_on_c, 0, 70, 80
1, 38685, Note_on_c, 0, 70, 0
1, 38688, Note_on_c, 0, 79, 80
1, 38733, Note_on_c, 0, 79, 0
1, 38736, Note_on_c, 0, 74, 80
1, 38769, Note_on_c, 1, 58, 0
1, 38769, Note_on_c, 1, 46, 0
1, 38781, Note_on_c, 0, 74, 0
1, 38784, Note_on_c, 0, 72, 80
1, 38784, Note_on_c, 1, 57, 80
1, 38829, Note_on_c, 0, 72, 0
1, 38832, Note_on_c, 0, 75, 80
1, 38873, Note_on_c, 1, 57, 0
1, 38877, Note_on_c, 0, 75, 0
1, 38880, Note_on_c, 0, 69, 80
1, 38880, Note_on_c, 1, 54, 80
1, 38925, Note_on_c, 0, 69, 0
1, 38928, Note_on_c, 0, 72, 80
1, 38969, Note_on_c, 1, 54, 0
1, 38973, Note_on_c, 0, 72, 0
1, 38976, Note_on_c, 0, 70, 80
1, 38976, Note_on_c, 1, 55, 80
1, 39021, Note_on_c, 0, 70, 0
1, 39024, Note_on_c, 0, 74, 80
1, 39065, Note_on_c, 1, 55, 0
1, 39069, Note_on_c, 0, 74, 0
1, 39072, Note_on_c, 0, 70, 80
1, 39117, Note_on_c, 0, 70, 0
1, 39120, Note_on_c, 0, 67, 80
1, 39165, Note_on_c, 0, 67, 0
1, 39168, Note_on_c, 0, 66, 80
1, 39168, Note_on_c, 1, 50, 64
1, 39213, Note_on_c, 0, 66, 0
1, 39216, Note_on_c, 0, 74, 80
1, 39261, Note_on_c, 0, 74, 0
1, 39264, Note_on_c, 0, 62, 80
1, 39309, Note_on_c, 0, 62, 0
1, 39312, Note_on_c, 0, 74, 80
1, 39357, Note_on_c, 0, 74, 0
1, 39360, Note_on_c, 0, 72, 80
1, 39360, Note_on_c, 1, 54, 80
1, 39405, Note_on_c, 0, 72, 0
1, 39408, Note_on_c, 0, 69, 80
1, 39449, Note_on_c, 1, 54, 0
1, 39453, Note_on_c, 0, 69, 0
1, 39456, Note_on_c, 0, 70, 80
1, 39456, Note_on_c, 1, 55, 80
1, 39501, Note_on_c, 0, 70, 0
1, 39504, Note_on_c, 0, 67, 80
1, 39545, Note_on_c, 1, 55, 0
1, 39549, Note_on_c, 0, 67, 0
1, 39552, Note_on_c, 0, 66, 80
1, 39552, Note_on_c, 1, 62, 80
1, 39597, Note_on_c, 0, 66, 0
1, 39600, Note_on_c, 0, 74, 80
1, 39645, Note_on_c, 0, 74, 0
1, 39648, Note_on_c, 0, 62, 80
1, 39693, Note_on_c, 0, 62, 0
1, 39696, Note_on_c, 0, 74, 80
1, 39729, Note_on_c, 1, 62, 0
1, 39741, Note_on_c, 0, 74, 0
1, 39744, Note_on_c, 0, 72, 80
1, 39744, Note_on_c, 1, 54, 80
1, 39789, Note_on_c, 0, 72, 0
1, 39792, Note_on_c, 0, 69, 80
1, 39833, Note_on_c, 1, 54, 0
1, 39837, Note_on_c, 0, 69, 0
1, 39840, Note_on_c, 0, 70, 80
1, 39840, Note_on_c, 1, 55, 80
1, 39885, Note_on_c, 0, 70, 0
1, 39888, Note_on_c, 0, 67, 80
1, 39906, Note_on_c, 1, 50, 0
1, 39929, Note_on_c, 1, 55, 0
1, 39933, Note_on_c, 0, 67, 0
1, 39936, Note_on_c, 0, 66, 80
1, 39936, Note_on_c, 1, 62, 80
1, 39936, Note_on_c, 1, 50, 64
1, 39981, Note_on_c, 0, 66, 0
1, 39984, Note_on_c, 0, 74, 80
1, 40025, Note_on_c, 1, 62, 0
1, 40029, Note_on_c, 0, 74, 0
1, 40032, Note_on_c, 0, 62, 80
1, 40069, Note_on_c, 1, 50, 0
1, 40080, Note_on_c, 1, 51, 64
1, 40121, Note_on_c, 0, 62, 0
1, 40125, Note_on_c, 1, 51, 0
1, 40128, Note_on_c, 1, 50, 64
1, 40173, Note_on_c, 1, 50, 0
1, 40176, Note_on_c, 1, 48, 64
1, 40221, Note_on_c, 1, 48, 0
1, 40224, Note_on_c, 0, 74, 75
1, 40224, Note_on_c, 1, 46, 64
1, 40269, Note_on_c, 1, 46, 0
1, 40272, Note_on_c, 1, 45, 64
1, 40313, Note_on_c, 0, 74, 0
1, 40317, Note_on_c, 1, 45, 0
1, 40320, Note_on_c, 0, 72, 75
1, 40320, Note_on_c, 1, 55, 80
1, 40320, Note_on_c, 1, 43, 80
1, 40368, Note_on_c, 0, 72, 0
1, 40368, Note_on_c, 0, 70, 75
1, 40409, Note_on_c, 1, 55, 0
1, 40409, Note_on_c, 1, 43, 0
1, 40413, Note_on_c, 0, 70, 0
1, 40416, Note_on_c, 0, 69, 75
1, 40461, Note_on_c, 0, 69, 0
1, 40464, Note_on_c, 0, 67, 75
1, 40509, Note_on_c, 0, 67, 0
1, 40512, Note_on_c, 0, 67, 75
1, 40551, Note_on_c, 0, 67, 0
1, 40608, Note_on_c, 0, 69, 75
1, 40608, Note_on_c, 1, 54, 75
1, 40608, Note_on_c, 1, 50, 75
1, 40697, Note_on_c, 0, 69, 0
1, 40697, Note_on_c, 1, 54, 0
1, 40697, Note_on_c, 1, 50, 0
1, 40704, Note_on_c, 0, 72, 75
1, 40704, Note_on_c, 1, 55, 75
1, 40704, Note_on_c, 1, 50, 64
1, 40719, Note_on_c, 0, 72, 0
1, 40720, Note_on_c, 0, 70, 75
1, 40735, Note_on_c, 0, 70, 0
1, 40736, Note_on_c, 0, 72, 75
1, 40751, Note_on_c, 0, 72, 0
1, 40752, Note_on_c, 0, 70, 75
1, 40767, Note_on_c, 0, 70, 0
1, 40768, Note_on_c, 0, 69, 75
1, 40783, Note_on_c, 0, 69, 0
1, 40784, Note_on_c, 0, 70, 75
1, 40793, Note_on_c, 1, 55, 0
1, 40799, Note_on_c, 0, 70, 0
1, 40800, Note_on_c, 0, 69, 75
1, 40800, Note_on_c, 1, 54, 75
1, 40881, Note_on_c, 1, 50, 0
1, 40889, Note_on_c, 0, 69, 0
1, 40889, Note_on_c, 1, 54, 0
1, 40992, Note_on_c, 0, 74, 75
1, 40992, Note_on_c, 1, 58, 75
1, 40992, Note_on_c, 1, 46, 75
1, 41081, Note_on_c, 0, 74, 0
1, 41081, Note_on_c, 1, 58, 0
1, 41081, Note_on_c, 1, 46, 0
1, 41088, Note_on_c, 0, 75, 75
1, 41088, Note_on_c, 1, 60, 75
1, 41088, Note_on_c, 1, 48, 75
1, 41136, Note_on_c, 0, 75, 0
1, 41136, Note_on_c, 0, 72, 75
1, 41181, Note_on_c, 0, 72, 0
1, 41184, Note_on_c, 0, 70, 75
1, 41229, Note_on_c, 0, 70, 0
1, 41232, Note_on_c, 0, 69, 75
1, 41265, Note_on_c, 1, 60, 0
1, 41265, Note_on_c, 1, 48, 0
1, 41277, Note_on_c, 0, 69, 0
1, 41280, Note_on_c, 0, 74, 75
1, 41369, Note_on_c, 0, 74, 0
1, 41376, Note_on_c, 0, 66, 75
1, 41376, Note_on_c, 1, 62, 75
1, 41376, Note_on_c, 1, 50, 75
1, 41465, Note_on_c, 0, 66, 0
1, 41465, Note_on_c, 1, 62, 0
1, 41465, Note_on_c, 1, 50, 0
1, 41472, Note_on_c, 0, 69, 75
1, 41472, Note_on_c, 1, 58, 75
1, 41472, Note_on_c, 1, 46, 75
1, 41487, Note_on_c, 0, 69, 0
1, 41488, Note_on_c, 0, 67, 75
1, 41503, Note_on_c, 0, 67, 0
1, 41504, Note_on_c, 0, 69, 75
1, 41519, Note_on_c, 0, 69, 0
1, 41520, Note_on_c, 0, 67, 75
1, 41535, Note_on_c, 0, 67, 0
1, 41536, Note_on_c, 0, 66, 75
1, 41551, Note_on_c, 0, 66, 0
1, 41552, Note_on_c, 0, 67, 75
1, 41561, Note_on_c, 1, 58, 0
1, 41561, Note_on_c, 1, 46, 0
1, 41567, Note_on_c, 0, 67, 0
1, 41568, Note_on_c, 0, 69, 75
1, 41568, Note_on_c, 1, 54, 75
1, 41568, Note_on_c, 1, 42, 75
1, 41657, Note_on_c, 0, 69, 0
1, 41657, Note_on_c, 1, 54, 0
1, 41657, Note_on_c, 1, 42, 0
1, 41664, Note_on_c, 0, 72, 75
1, 41664, Note_on_c, 1, 55, 75
1, 41664, Note_on_c, 1, 43, 75
1, 41679, Note_on_c, 0, 72, 0
1, 41680, Note_on_c, 0, 70, 75
1, 41695, Note_on_c, 0, 70, 0
1, 41696, Note_on_c, 0, 72, 75
1, 41711, Note_on_c, 0, 72, 0
1, 41712, Note_on_c, 0, 70, 75
1, 41727, Note_on_c, 0, 70, 0
1, 41728, Note_on_c, 0, 69, 75
1, 41743, Note_on_c, 0, 69, 0
1, 41744, Note_on_c, 0, 70, 75
1, 41753, Note_on_c, 1, 55, 0
1, 41753, Note_on_c, 1, 43, 0
1, 41759, Note_on_c, 0, 70, 0
1, 41760, Note_on_c, 0, 72, 75
1, 41760, Note_on_c, 1, 57, 75
1, 41760, Note_on_c, 1, 45, 75
1, 41849, Note_on_c, 0, 72, 0
1, 41849, Note_on_c, 1, 57, 0
1, 41849, Note_on_c, 1, 45, 0
1, 41856, Note_on_c, 0, 74, 75
1, 41856, Note_on_c, 1, 58, 75
1, 41856, Note_on_c, 1, 46, 75
1, 41904, Note_on_c, 0, 74, 0
1, 41904, Note_on_c, 0, 70, 75
1, 41945, Note_on_c, 1, 58, 0
1, 41945, Note_on_c, 1, 46, 0
1, 41949, Note_on_c, 0, 70, 0
1, 41952, Note_on_c, 0, 69, 75
1, 41952, Note_on_c, 1, 63, 75
1, 41952, Note_on_c, 1, 51, 75
1, 41997, Note_on_c, 0, 69, 0
1, 42000, Note_on_c, 0, 67, 75
1, 42041, Note_on_c, 1, 63, 0
1, 42041, Note_on_c, 1, 51, 0
1, 42045, Note_on_c, 0, 67, 0
1, 42048, Note_on_c, 0, 72, 75
1, 42048, Note_on_c, 1, 60, 75
1, 42048, Note_on_c, 1, 48, 75
1, 42096, Note_on_c, 0, 72, 0
1, 42096, Note_on_c, 0, 69, 75
1, 42137, Note_on_c, 1, 60, 0
1, 42137, Note_on_c, 1, 48, 0
1, 42141, Note_on_c, 0, 69, 0
1, 42144, Note_on_c, 0, 67, 75
1, 42144, Note_on_c, 1, 62, 75
1, 42144, Note_on_c, 1, 50, 75
1, 42189, Note_on_c, 0, 67, 0
1, 42192, Note_on_c, 0, 66, 75
1, 42233, Note_on_c, 1, 62, 0
1, 42233, Note_on_c, 1, 50, 0
1, 42237, Note_on_c, 0, 66, 0
1, 42240, Note_on_c, 0, 69, 75
1, 42252, Note_on_c, 0, 69, 0
1, 42252, Note_on_c, 0, 67, 75
1, 42264, Note_on_c, 0, 67, 0
1, 42264, Note_on_c, 0, 66, 75
1, 42276, Note_on_c, 0, 66, 0
1, 42276, Note_on_c, 0, 67, 75
1, 42329, Note_on_c, 0, 67, 0
1, 42336, Note_on_c, 0, 62, 75
1, 42336, Note_on_c, 1, 58, 75
1, 42336, Note_on_c, 1, 46, 75
1, 42425, Note_on_c, 0, 62, 0
1, 42425, Note_on_c, 1, 58, 0
1, 42425, Note_on_c, 1, 46, 0
1, 42432, Note_on_c, 1, 57, 75
1, 42432, Note_on_c, 1, 45, 75
1, 42521, Note_on_c, 1, 57, 0
1, 42521, Note_on_c, 1, 45, 0
1, 42528, Note_on_c, 0, 74, 75
1, 42528, Note_on_c, 1, 55, 75
1, 42528, Note_on_c, 1, 43, 75
1, 42617, Note_on_c, 0, 74, 0
1, 42617, Note_on_c, 1, 55, 0
1, 42617, Note_on_c, 1, 43, 0
1, 42624, Note_on_c, 0, 72, 75
1, 42672, Note_on_c, 0, 72, 0
1, 42672, Note_on_c, 0, 70, 75
1, 42717, Note_on_c, 0, 70, 0
1, 42720, Note_on_c, 0, 69, 75
1, 42720, Note_on_c, 1, 58, 70
1, 42720, Note_on_c, 1, 55, 70
1, 42765, Note_on_c, 0, 69, 0
1, 42768, Note_on_c, 0, 67, 75
1, 42813, Note_on_c, 0, 67, 0
1, 42814, Note_on_c, 1, 58, 0
1, 42814, Note_on_c, 1, 55, 0
1, 42816, Note_on_c, 0, 75, 75
1, 42816, Note_on_c, 1, 58, 70
1, 42816, Note_on_c, 1, 55, 70
1, 42905, Note_on_c, 0, 75, 0
1, 42910, Note_on_c, 1, 58, 0
1, 42910, Note_on_c, 1, 55, 0
1, 42912, Note_on_c, 0, 75, 75
1, 42912, Note_on_c, 1, 58, 70
1, 42912, Note_on_c, 1, 55, 70
1, 43001, Note_on_c, 0, 75, 0
1, 43006, Note_on_c, 1, 58, 0
1, 43006, Note_on_c, 1, 55, 0
1, 43008, Note_on_c, 0, 75, 75
1, 43008, Note_on_c, 1, 57, 70
1, 43008, Note_on_c, 1, 54, 70
1, 43021, Note_on_c, 0, 75, 0
1, 43022, Note_on_c, 0, 77, 75
1, 43035, Note_on_c, 0, 77, 0
1, 43036, Note_on_c, 0, 75, 75
1, 43049, Note_on_c, 0, 75, 0
1, 43050, Note_on_c, 0, 77, 75
1, 43063, Note_on_c, 0, 77, 0
1, 43064, Note_on_c, 0, 75, 75
1, 43077, Note_on_c, 0, 75, 0
1, 43078, Note_on_c, 0, 74, 75
1, 43090, Note_on_c, 0, 74, 0
1, 43091, Note_on_c, 0, 75, 75
1, 43103, Note_on_c, 0, 75, 0
1, 43104, Note_on_c, 0, 74, 75
1, 43185, Note_on_c, 1, 57, 0
1, 43185, Note_on_c, 1, 54, 0
1, 43193, Note_on_c, 0, 74, 0
1, 43200, Note_on_c, 1, 56, 70
1, 43200, Note_on_c, 1, 53, 70
1, 43248, Note_on_c, 0, 74, 75
1, 43293, Note_on_c, 0, 74, 0
1, 43296, Note_on_c, 0, 77, 75
1, 43341, Note_on_c, 0, 77, 0
1, 43344, Note_on_c, 0, 80, 75
1, 43377, Note_on_c, 1, 56, 0
1, 43377, Note_on_c, 1, 53, 0
1, 43389, Note_on_c, 0, 80, 0
1, 43392, Note_on_c, 0, 71, 75
1, 43392, Note_on_c, 1, 55, 70
1, 43392, Note_on_c, 1, 53, 64
1, 43459, Note_on_c, 0, 71, 0
1, 43464, Note_on_c, 0, 72, 75
1, 43476, Note_on_c, 0, 72, 0
1, 43476, Note_on_c, 0, 74, 75
1, 43488, Note_on_c, 0, 74, 0
1, 43488, Note_on_c, 0, 72, 75
1, 43488, Note_on_c, 1, 53, 0
1, 43488, Note_on_c, 1, 51, 64
1, 43569, Note_on_c, 1, 55, 0
1, 43577, Note_on_c, 0, 72, 0
1, 43577, Note_on_c, 1, 51, 0
1, 43584, Note_on_c, 0, 79, 75
1, 43629, Note_on_c, 0, 79, 0
1, 43632, Note_on_c, 0, 75, 75
1, 43677, Note_on_c, 0, 75, 0
1, 43680, Note_on_c, 0, 72, 75
1, 43680, Note_on_c, 1, 55, 70
1, 43680, Note_on_c, 1, 51, 70
1, 43725, Note_on_c, 0, 72, 0
1, 43728, Note_on_c, 0, 70, 75
1, 43769, Note_on_c, 1, 55, 0
1, 43769, Note_on_c, 1, 51, 0
1, 43773, Note_on_c, 0, 70, 0
1, 43776, Note_on_c, 0, 69, 75
1, 43776, Note_on_c, 1, 53, 70
1, 43776, Note_on_c, 1, 51, 64
1, 43843, Note_on_c, 0, 69, 0
1, 43848, Note_on_c, 0, 70, 75
1, 43860, Note_on_c, 0, 70, 0
1, 43860, Note_on_c, 0, 72, 75
1, 43872, Note_on_c, 0, 72, 0
1, 43872, Note_on_c, 0, 70, 75
1, 43872, Note_on_c, 1, 51, 0
1, 43872, Note_on_c, 1, 50, 64
1, 43953, Note_on_c, 1, 53, 0
1, 43961, Note_on_c, 0, 70, 0
1, 43961, Note_on_c, 1, 50, 0
1, 43968, Note_on_c, 0, 77, 75
1, 44013, Note_on_c, 0, 77, 0
1, 44016, Note_on_c, 0, 74, 75
1, 44061, Note_on_c, 0, 74, 0
1, 44064, Note_on_c, 0, 72, 75
1, 44064, Note_on_c, 1, 53, 70
1, 44064, Note_on_c, 1, 50, 70
1, 44109, Note_on_c, 0, 72, 0
1, 44112, Note_on_c, 0, 70, 75
1, 44153, Note_on_c, 1, 53, 0
1, 44153, Note_on_c, 1, 50, 0
1, 44157, Note_on_c, 0, 70, 0
1, 44160, Note_on_c, 0, 67, 75
1, 44160, Note_on_c, 1, 51, 70
1, 44160, Note_on_c, 1, 50, 64
1, 44227, Note_on_c, 0, 67, 0
1, 44232, Note_on_c, 0, 69, 75
1, 44244, Note_on_c, 0, 69, 0
1, 44244, Note_on_c, 0, 70, 75
1, 44256, Note_on_c, 0, 70, 0
1, 44256, Note_on_c, 0, 69, 75
1, 44256, Note_on_c, 1, 50, 0
1, 44256, Note_on_c, 1, 48, 64
1, 44337, Note_on_c, 1, 51, 0
1, 44345, Note_on_c, 0, 69, 0
1, 44345, Note_on_c, 1, 48, 0
1, 44352, Note_on_c, 0, 75, 75
1, 44397, Note_on_c, 0, 75, 0
1, 44400, Note_on_c, 0, 72, 75
1, 44445, Note_on_c, 0, 72, 0
1, 44448, Note_on_c, 0, 69, 75
1, 44448, Note_on_c, 1, 51, 70
1, 44448, Note_on_c, 1, 48, 70
1, 44493, Note_on_c, 0, 69, 0
1, 44496, Note_on_c, 0, 67, 75
1, 44537, Note_on_c, 1, 51, 0
1, 44537, Note_on_c, 1, 48, 0
1, 44541, Note_on_c, 0, 67, 0
1, 44544, Note_on_c, 0, 67, 75
1, 44544, Note_on_c, 1, 50, 70
1, 44633, Note_on_c, 1, 50, 0
1, 44640, Note_on_c, 0, 67, 0
1, 44640, Note_on_c, 0, 66, 75
1, 44640, Note_on_c, 1, 38, 70
1, 44721, Note_on_c, 0, 66, 0
1, 44729, Note_on_c, 1, 38, 0
1, 44736, Note_on_c, 0, 81, 75
1, 44781, Note_on_c, 0, 81, 0
1, 44784, Note_on_c, 0, 78, 75
1, 44829, Note_on_c, 0, 78, 0
1, 44832, Note_on_c, 0, 74, 75
1, 44832, Note_on_c, 1, 54, 75
1, 44832, Note_on_c, 1, 42, 75
1, 44877, Note_on_c, 0, 74, 0
1, 44880, Note_on_c, 0, 72, 75
1, 44921, Note_on_c, 1, 54, 0
1, 44921, Note_on_c, 1, 42, 0
1, 44925, Note_on_c, 0, 72, 0
1, 44928, Note_on_c, 0, 70, 75
1, 44928, Note_on_c, 1, 55, 75
1, 44928, Note_on_c, 1, 43, 75
1, 44973, Note_on_c, 0, 70, 0
1, 44976, Note_on_c, 0, 74, 75
1, 45017, Note_on_c, 1, 55, 0
1, 45017, Note_on_c, 1, 43, 0
1, 45021, Note_on_c, 0, 74, 0
1, 45024, Note_on_c, 0, 72, 76
1, 45024, Note_on_c, 1, 57, 76
1, 45024, Note_on_c, 1, 45, 76
1, 45069, Note_on_c, 0, 72, 0
1, 45072, Note_on_c, 0, 69, 76
1, 45113, Note_on_c, 1, 57, 0
1, 45113, Note_on_c, 1, 45, 0
1, 45117, Note_on_c, 0, 69, 0
1, 45120, Note_on_c, 0, 67, 77
1, 45120, Note_on_c, 1, 58, 77
1, 45120, Note_on_c, 1, 46, 77
1, 45165, Note_on_c, 0, 67, 0
1, 45168, Note_on_c, 0, 70, 77
1, 45209, Note_on_c, 1, 58, 0
1, 45209, Note_on_c, 1, 46, 0
1, 45213, Note_on_c, 0, 70, 0
1, 45216, Note_on_c, 0, 69, 78
1, 45216, Note_on_c, 1, 60, 78
1, 45216, Note_on_c, 1, 48, 78
1, 45261, Note_on_c, 0, 69, 0
1, 45264, Note_on_c, 0, 67, 79
1, 45305, Note_on_c, 1, 60, 0
1, 45305, Note_on_c, 1, 48, 0
1, 45309, Note_on_c, 0, 67, 0
1, 45312, Note_on_c, 0, 66, 79
1, 45312, Note_on_c, 1, 62, 79
1, 45312, Note_on_c, 1, 50, 79
1, 45342, Note_on_c, 0, 66, 0
1, 45344, Note_on_c, 0, 67, 80
1, 45374, Note_on_c, 0, 67, 0
1, 45376, Note_on_c, 0, 69, 80
1, 45401, Note_on_c, 1, 62, 0
1, 45401, Note_on_c, 1, 50, 0
1, 45406, Note_on_c, 0, 69, 0
1, 45408, Note_on_c, 0, 62, 80
1, 45497, Note_on_c, 0, 62, 0
1, 45504, Note_on_c, 0, 81, 80
1, 45549, Note_on_c, 0, 81, 0
1, 45552, Note_on_c, 0, 78, 80
1, 45597, Note_on_c, 0, 78, 0
1, 45600, Note_on_c, 0, 74, 75
1, 45600, Note_on_c, 1, 54, 75
1, 45600, Note_on_c, 1, 42, 75
1, 45645, Note_on_c, 0, 74, 0
1, 45648, Note_on_c, 0, 72, 75
1, 45689, Note_on_c, 1, 54, 0
1, 45689, Note_on_c, 1, 42, 0
1, 45693, Note_on_c, 0, 72, 0
1, 45696, Note_on_c, 0, 70, 76
1, 45696, Note_on_c, 1, 55, 76
1, 45696, Note_on_c, 1, 43, 76
1, 45741, Note_on_c, 0, 70, 0
1, 45744, Note_on_c, 0, 74, 76
1, 45785, Note_on_c, 1, 55, 0
1, 45785, Note_on_c, 1, 43, 0
1, 45789, Note_on_c, 0, 74, 0
1, 45792, Note_on_c, 0, 72, 77
1, 45792, Note_on_c, 1, 57, 77
1, 45792, Note_on_c, 1, 45, 77
1, 45837, Note_on_c, 0, 72, 0
1, 45840, Note_on_c, 0, 69, 78
1, 45881, Note_on_c, 1, 57, 0
1, 45881, Note_on_c, 1, 45, 0
1, 45885, Note_on_c, 0, 69, 0
1, 45888, Note_on_c, 0, 67, 78
1, 45888, Note_on_c, 1, 58, 78
1, 45888, Note_on_c, 1, 46, 78
1, 45933, Note_on_c, 0, 67, 0
1, 45936, Note_on_c, 0, 79, 79
1, 45977, Note_on_c, 1, 58, 0
1, 45977, Note_on_c, 1, 46, 0
1, 45981, Note_on_c, 0, 79, 0
1, 45984, Note_on_c, 0, 67, 80
1, 45984, Note_on_c, 1, 59, 80
1, 45984, Note_on_c, 1, 47, 80
1, 46029, Note_on_c, 0, 67, 0
1, 46032, Note_on_c, 0, 77, 80
1, 46073, Note_on_c, 1, 59, 0
1, 46073, Note_on_c, 1, 47, 0
1, 46077, Note_on_c, 0, 77, 0
1, 46080, Note_on_c, 0, 75, 80
1, 46080, Note_on_c, 1, 60, 80
1, 46080, Note_on_c, 1, 48, 80
1, 46125, Note_on_c, 0, 75, 0
1, 46128, Note_on_c, 0, 79, 80
1, 46169, Note_on_c, 1, 60, 0
1, 46169, Note_on_c, 1, 48, 0
1, 46173, Note_on_c, 0, 79, 0
1, 46176, Note_on_c, 0, 72, 80
1, 46176, Note_on_c, 1, 57, 80
1, 46176, Note_on_c, 1, 45, 80
1, 46221, Note_on_c, 0, 72, 0
1, 46224, Note_on_c, 0, 75, 80
1, 46265, Note_on_c, 1, 57, 0
1, 46265, Note_on_c, 1, 45, 0
1, 46269, Note_on_c, 0, 75, 0
1, 46272, Note_on_c, 0, 74, 80
1, 46272, Note_on_c, 1, 58, 80
1, 46272, Note_on_c, 1, 46, 80
1, 46317, Note_on_c, 0, 74, 0
1, 46320, Note_on_c, 0, 79, 80
1, 46361, Note_on_c, 1, 58, 0
1, 46361, Note_on_c, 1, 46, 0
1, 46365, Note_on_c, 0, 79, 0
1, 46368, Note_on_c, 0, 70, 80
1, 46368, Note_on_c, 1, 55, 80
1, 46368, Note_on_c, 1, 43, 80
1, 46413, Note_on_c, 0, 70, 0
1, 46416, Note_on_c, 0, 74, 80
1, 46457, Note_on_c, 1, 55, 0
1, 46457, Note_on_c, 1, 43, 0
1, 46461, Note_on_c, 0, 74, 0
1, 46464, Note_on_c, 0, 72, 80
1, 46464, Note_on_c, 1, 57, 80
1, 46464, Note_on_c, 1, 45, 80
1, 46476, Note_on_c, 0, 72, 0
1, 46476, Note_on_c, 0, 74, 80
1, 46488, Note_on_c, 0, 74, 0
1, 46488, Note_on_c, 0, 72, 80
1, 46509, Note_on_c, 0, 72, 0
1, 46512, Note_on_c, 0, 71, 80
1, 46553, Note_on_c, 1, 57, 0
1, 46553, Note_on_c, 1, 45, 0
1, 46557, Note_on_c, 0, 71, 0
1, 46560, Note_on_c, 0, 72, 80
1, 46560, Note_on_c, 1, 55, 80
1, 46560, Note_on_c, 1, 43, 80
1, 46605, Note_on_c, 0, 72, 0
1, 46608, Note_on_c, 0, 72, 80
1, 46649, Note_on_c, 1, 55, 0
1, 46649, Note_on_c, 1, 43, 0
1, 46653, Note_on_c, 0, 72, 0
1, 46656, Note_on_c, 0, 72, 80
1, 46656, Note_on_c, 1, 54, 80
1, 46656, Note_on_c, 1, 42, 80
1, 46701, Note_on_c, 0, 72, 0
1, 46704, Note_on_c, 0, 81, 80
1, 46745, Note_on_c, 1, 54, 0
1, 46745, Note_on_c, 1, 42, 0
1, 46749, Note_on_c, 0, 81, 0
1, 46752, Note_on_c, 0, 69, 80
1, 46752, Note_on_c, 1, 50, 80
1, 46752, Note_on_c, 1, 38, 80
1, 46797, Note_on_c, 0, 69, 0
1, 46800, Note_on_c, 0, 72, 80
1, 46841, Note_on_c, 1, 50, 0
1, 46841, Note_on_c, 1, 38, 0
1, 46845, Note_on_c, 0, 72, 0
1, 46848, Note_on_c, 0, 70, 80
1, 46848, Note_on_c, 1, 55, 80
1, 46848, Note_on_c, 1, 43, 80
1, 46937, Note_on_c, 0, 70, 0
1, 46937, Note_on_c, 1, 55, 0
1, 46937, Note_on_c, 1, 43, 0
1, 46944, Note_on_c, 0, 67, 75
1, 46944, Note_on_c, 1, 55, 75
1, 46989, Note_on_c, 1, 55, 0
1, 46992, Note_on_c, 1, 59, 75
1, 47033, Note_on_c, 0, 67, 0
1, 47037, Note_on_c, 1, 59, 0
1, 47040, Note_on_c, 0, 67, 75
1, 47040, Note_on_c, 1, 57, 75
1, 47085, Note_on_c, 1, 57, 0
1, 47088, Note_on_c, 1, 60, 75
1, 47129, Note_on_c, 0, 67, 0
1, 47133, Note_on_c, 1, 60, 0
1, 47136, Note_on_c, 0, 67, 75
1, 47136, Note_on_c, 1, 59, 75
1, 47181, Note_on_c, 1, 59, 0
1, 47184, Note_on_c, 1, 62, 75
1, 47225, Note_on_c, 0, 67, 0
1, 47229, Note_on_c, 1, 62, 0
1, 47232, Note_on_c, 0, 67, 75
1, 47232, Note_on_c, 1, 60, 75
1, 47277, Note_on_c, 0, 67, 0
1, 47280, Note_on_c, 0, 79, 75
1, 47325, Note_on_c, 0, 79, 0
1, 47328, Note_on_c, 0, 75, 75
1, 47365, Note_on_c, 1, 60, 0
1, 47373, Note_on_c, 0, 75, 0
1, 47376, Note_on_c, 0, 72, 75
1, 47376, Note_on_c, 1, 63, 75
1, 47421, Note_on_c, 0, 72, 0
1, 47421, Note_on_c, 1, 63, 0
1, 47424, Note_on_c, 0, 70, 75
1, 47424, Note_on_c, 1, 62, 75
1, 47469, Note_on_c, 0, 70, 0
1, 47472, Note_on_c, 0, 67, 75
1, 47513, Note_on_c, 1, 62, 0
1, 47517, Note_on_c, 0, 67, 0
1, 47520, Note_on_c, 0, 69, 75
1, 47520, Note_on_c, 1, 50, 75
1, 47565, Note_on_c, 0, 69, 0
1, 47568, Note_on_c, 0, 66, 75
1, 47609, Note_on_c, 1, 50, 0
1, 47613, Note_on_c, 0, 66, 0
1, 47616, Note_on_c, 0, 67, 75
1, 47616, Note_on_c, 1, 55, 75
1, 47705, Note_on_c, 0, 67, 0
1, 47705, Note_on_c, 1, 55, 0
1, 47712, Note_on_c, 0, 67, 75
1, 47712, Note_on_c, 1, 55, 75
1, 47757, Note_on_c, 1, 55, 0
1, 47760, Note_on_c, 1, 59, 75
1, 47801, Note_on_c, 0, 67, 0
1, 47805, Note_on_c, 1, 59, 0
1, 47808, Note_on_c, 0, 67, 75
1, 47808, Note_on_c, 1, 57, 75
1, 47853, Note_on_c, 1, 57, 0
1, 47856, Note_on_c, 1, 60, 75
1, 47897, Note_on_c, 0, 67, 0
1, 47901, Note_on_c, 1, 60, 0
1, 47904, Note_on_c, 0, 67, 75
1, 47904, Note_on_c, 1, 59, 75
1, 47949, Note_on_c, 1, 59, 0
1, 47952, Note_on_c, 1, 62, 75
1, 47993, Note_on_c, 0, 67, 0
1, 47997, Note_on_c, 1, 62, 0
1, 48000, Note_on_c, 0, 67, 75
1, 48000, Note_on_c, 1, 60, 75
1, 48045, Note_on_c, 0, 67, 0
1, 48048, Note_on_c, 0, 79, 75
1, 48093, Note_on_c, 0, 79, 0
1, 48096, Note_on_c, 0, 75, 75
1, 48133, Note_on_c, 1, 60, 0
1, 48141, Note_on_c, 0, 75, 0
1, 48144, Note_on_c, 0, 72, 75
1, 48144, Note_on_c, 1, 63, 75
1, 48189, Note_on_c, 0, 72, 0
1, 48189, Note_on_c, 1, 63, 0
1, 48192, Note_on_c, 0, 70, 75
1, 48192, Note_on_c, 1, 62, 75
1, 48237, Note_on_c, 0, 70, 0
1, 48240, Note_on_c, 0, 67, 75
1, 48281, Note_on_c, 1, 62, 0
1, 48285, Note_on_c, 0, 67, 0
1, 48288, Note_on_c, 0, 69, 75
1, 48288, Note_on_c, 1, 50, 75
1, 48333, Note_on_c, 0, 69, 0
1, 48336, Note_on_c, 0, 66, 75
1, 48377, Note_on_c, 1, 50, 0
1, 48381, Note_on_c, 0, 66, 0
1, 48384, Note_on_c, 0, 69, 75
1, 48384, Note_on_c, 1, 55, 75
1, 48396, Note_on_c, 0, 69, 0
1, 48396, Note_on_c, 0, 67, 75
1, 48408, Note_on_c, 0, 67, 0
1, 48408, Note_on_c, 0, 66, 75
1, 48420, Note_on_c, 0, 66, 0
1, 48420, Note_on_c, 0, 67, 75
1, 48473, Note_on_c, 0, 67, 0
1, 48473, Note_on_c, 1, 55, 0
1, 48480, Note_on_c, 1, 50, 75
1, 48569, Note_on_c, 1, 50, 0
1, 48576, Note_on_c, 1, 43, 75
1, 48761, Note_on_c, 1, 43, 0
1, 48771, End_track
0, 0, End_of_file