0, 0, Header, 0, 1, 96
1, 0, Start_track
1, 0, Tempo, 100000
1, 264, Tempo, 1000000
1, 264, Note_on_c, 0, 69, 66
1, 287, Note_on_c, 0, 69, 0
1, 288, Note_on_c, 0, 74, 66
1, 288, Note_on_c, 1, 66, 66
1, 288, Note_on_c, 1, 62, 66
1, 333, Note_on_c, 1, 66, 0
1, 333, Note_on_c, 1, 62, 0
1, 355, Note_on_c, 0, 74, 0
1, 360, Note_on_c, 0, 74, 66
1, 370, Note_on_c, 0, 74, 0
1, 384, Note_on_c, 0, 74, 66
1, 384, Note_on_c, 1, 66, 66
1, 384, Note_on_c, 1, 62, 66
1, 404, Note_on_c, 0, 74, 0
1, 429, Note_on_c, 1, 66, 0
1, 429, Note_on_c, 1, 62, 0
1, 552, Note_on_c, 0, 69, 66
1, 560, Note_on_c, 0, 69, 0
1, 560, Note_on_c, 0, 74, 66
1, 568, Note_on_c, 0, 74, 0
1, 568, Note_on_c, 0, 78, 66
1, 576, Note_on_c, 0, 78, 0
1, 576, Note_on_c, 0, 76, 66
1, 576, Note_on_c, 1, 67, 66
1, 576, Note_on_c, 1, 62, 66
1, 648, Note_on_c, 0, 76, 0
1, 648, Note_on_c, 0, 73, 66
1, 671, Note_on_c, 0, 73, 0
1, 672, Note_on_c, 0, 74, 66
1, 672, Note_on_c, 1, 67, 0
1, 672, Note_on_c, 1, 66, 66
1, 692, Note_on_c, 0, 74, 0
1, 717, Note_on_c, 1, 66, 0
1, 717, Note_on_c, 1, 62, 0
1, 816, Note_on_c, 0, 69, 66
1, 828, Note_on_c, 0, 69, 0
1, 828, Note_on_c, 0, 74, 66
1, 840, Note_on_c, 0, 74, 0
1, 840, Note_on_c, 0, 78, 66
1, 852, Note_on_c, 0, 78, 0
1, 852, Note_on_c, 0, 81, 66
1, 864, Note_on_c, 0, 81, 0
1, 864, Note_on_c, 0, 81, 106
1, 864, Note_on_c, 1, 71, 66
1, 884, Note_on_c, 1, 71, 0
1, 912, Note_on_c, 0, 81, 0
1, 912, Note_on_c, 0, 79, 66
1, 922, Note_on_c, 0, 79, 0
1, 948, Note_on_c, 0, 78, 66
1, 948, Note_on_c, 1, 69, 66
1, 953, Note_on_c, 1, 69, 0
1, 960, Note_on_c, 0, 78, 0
1, 960, Note_on_c, 0, 78, 106
1, 960, Note_on_c, 1, 67, 66
1, 980, Note_on_c, 1, 67, 0
1, 1008, Note_on_c, 0, 78, 0
1, 1008, Note_on_c, 0, 76, 66
1, 1018, Note_on_c, 0, 76, 0
1, 1044, Note_on_c, 0, 74, 66
1, 1044, Note_on_c, 1, 66, 66
1, 1049, Note_on_c, 1, 66, 0
1, 1056, Note_on_c, 0, 74, 0
1, 1056, Note_on_c, 0, 74, 106
1, 1056, Note_on_c, 1, 64, 66
1, 1076, Note_on_c, 1, 64, 0
1, 1104, Note_on_c, 0, 74, 0
1, 1104, Note_on_c, 0, 73, 66
1, 1114, Note_on_c, 0, 73, 0
1, 1140, Note_on_c, 0, 74, 66
1, 1140, Note_on_c, 1, 62, 66
1, 1152, Note_on_c, 0, 74, 0
1, 1152, Note_on_c, 0, 78, 66
1, 1152, Note_on_c, 1, 62, 0
1, 1152, Note_on_c, 1, 62, 66
1, 1152, Note_on_c, 1, 57, 66
1, 1248, Note_on_c, 0, 78, 0
1, 1248, Note_on_c, 0, 76, 66
1, 1248, Note_on_c, 1, 62, 0
1, 1248, Note_on_c, 1, 61, 66
1, 1268, Note_on_c, 0, 76, 0
1, 1293, Note_on_c, 1, 61, 0
1, 1293, Note_on_c, 1, 57, 0
1, 1416, Note_on_c, 0, 74, 80
1, 1424, Note_on_c, 0, 74, 0
1, 1424, Note_on_c, 0, 78, 80
1, 1432, Note_on_c, 0, 78, 0
1, 1432, Note_on_c, 0, 81, 80
1, 1440, Note_on_c, 0, 81, 0
1, 1440, Note_on_c, 0, 86, 80
1, 1440, Note_on_c, 1, 57, 80
1, 1440, Note_on_c, 1, 54, 80
1, 1440, Note_on_c, 1, 50, 80
1, 1460, Note_on_c, 0, 86, 0
1, 1488, Note_on_c, 0, 88, 80
1, 1494, Note_on_c, 0, 88, 0
1, 1494, Note_on_c, 0, 86, 80
1, 1500, Note_on_c, 0, 86, 0
1, 1500, Note_on_c, 0, 85, 80
1, 1506, Note_on_c, 0, 85, 0
1, 1506, Note_on_c, 0, 86, 80
1, 1522, Note_on_c, 0, 86, 0
1, 1524, Note_on_c, 0, 88, 80
1, 1529, Note_on_c, 1, 57, 0
1, 1529, Note_on_c, 1, 54, 0
1, 1529, Note_on_c, 1, 50, 0
1, 1536, Note_on_c, 0, 88, 0
1, 1536, Note_on_c, 0, 85, 80
1, 1536, Note_on_c, 1, 61, 80
1, 1536, Note_on_c, 1, 57, 80
1, 1536, Note_on_c, 1, 55, 80
1, 1536, Note_on_c, 1, 52, 80
1, 1556, Note_on_c, 0, 85, 0
1, 1625, Note_on_c, 1, 61, 0
1, 1625, Note_on_c, 1, 57, 0
1, 1625, Note_on_c, 1, 55, 0
1, 1625, Note_on_c, 1, 52, 0
1, 1632, Note_on_c, 0, 81, 80
1, 1677, Note_on_c, 0, 81, 0
1, 1680, Note_on_c, 0, 83, 80
1, 1686, Note_on_c, 0, 83, 0
1, 1686, Note_on_c, 0, 81, 80
1, 1692, Note_on_c, 0, 81, 0
1, 1692, Note_on_c, 0, 80, 80
1, 1698, Note_on_c, 0, 80, 0
1, 1698, Note_on_c, 0, 81, 80
1, 1714, Note_on_c, 0, 81, 0
1, 1716, Note_on_c, 0, 83, 80
1, 1728, Note_on_c, 0, 83, 0
1, 1728, Note_on_c, 0, 86, 80
1, 1728, Note_on_c, 1, 79, 80
1, 1728, Note_on_c, 1, 76, 80
1, 1752, Note_on_c, 0, 86, 0
1, 1752, Note_on_c, 0, 84, 96
1, 1776, Note_on_c, 0, 84, 0
1, 1776, Note_on_c, 0, 84, 76
1, 1810, Note_on_c, 0, 84, 0
1, 1812, Note_on_c, 0, 83, 74
1, 1817, Note_on_c, 1, 79, 0
1, 1817, Note_on_c, 1, 76, 0
1, 1824, Note_on_c, 0, 83, 0
1, 1824, Note_on_c, 0, 83, 73
1, 1824, Note_on_c, 1, 78, 74
1, 1824, Note_on_c, 1, 75, 74
1, 1944, Note_on_c, 0, 83, 0
1, 1944, Note_on_c, 0, 81, 66
1, 1957, Note_on_c, 1, 78, 0
1, 1957, Note_on_c, 1, 75, 0
1, 1967, Note_on_c, 0, 81, 0
1, 1968, Note_on_c, 0, 84, 66
1, 1968, Note_on_c, 1, 75, 66
1, 1992, Note_on_c, 0, 84, 0
1, 1992, Note_on_c, 0, 81, 66
1, 2015, Note_on_c, 0, 81, 0
1, 2016, Note_on_c, 0, 81, 66
1, 2016, Note_on_c, 1, 75, 0
1, 2016, Note_on_c, 1, 76, 66
1, 2040, Note_on_c, 0, 81, 0
1, 2040, Note_on_c, 0, 79, 66
1, 2061, Note_on_c, 1, 76, 0
1, 2063, Note_on_c, 0, 79, 0
1, 2064, Note_on_c, 0, 83, 66
1, 2064, Note_on_c, 1, 73, 66
1, 2088, Note_on_c, 0, 83, 0
1, 2088, Note_on_c, 0, 79, 66
1, 2109, Note_on_c, 1, 73, 0
1, 2111, Note_on_c, 0, 79, 0
1, 2112, Note_on_c, 0, 79, 66
1, 2112, Note_on_c, 1, 74, 66
1, 2136, Note_on_c, 0, 79, 0
1, 2136, Note_on_c, 0, 78, 66
1, 2157, Note_on_c, 1, 74, 0
1, 2159, Note_on_c, 0, 78, 0
1, 2160, Note_on_c, 0, 81, 66
1, 2160, Note_on_c, 1, 66, 66
1, 2184, Note_on_c, 0, 81, 0
1, 2184, Note_on_c, 0, 78, 66
1, 2205, Note_on_c, 1, 66, 0
1, 2207, Note_on_c, 0, 78, 0
1, 2208, Note_on_c, 0, 78, 66
1, 2208, Note_on_c, 1, 67, 66
1, 2232, Note_on_c, 0, 78, 0
1, 2232, Note_on_c, 0, 76, 66
1, 2253, Note_on_c, 1, 67, 0
1, 2255, Note_on_c, 0, 76, 0
1, 2256, Note_on_c, 0, 77, 106
1, 2256, Note_on_c, 1, 68, 66
1, 2280, Note_on_c, 0, 77, 0
1, 2280, Note_on_c, 0, 74, 66
1, 2301, Note_on_c, 1, 68, 0
1, 2303, Note_on_c, 0, 74, 0
1, 2304, Note_on_c, 0, 74, 66
1, 2304, Note_on_c, 1, 69, 66
1, 2393, Note_on_c, 1, 69, 0
1, 2400, Note_on_c, 0, 74, 0
1, 2400, Note_on_c, 0, 73, 66
1, 2400, Note_on_c, 1, 57, 66
1, 2445, Note_on_c, 0, 73, 0
1, 2445, Note_on_c, 1, 57, 0
1, 2568, Tempo, 1000000
1, 2568, Note_on_c, 0, 69, 66
1, 2591, Note_on_c, 0, 69, 0
1, 2592, Note_on_c, 0, 74, 66
1, 2592, Note_on_c, 1, 66, 66
1, 2592, Note_on_c, 1, 62, 66
1, 2637, Note_on_c, 1, 66, 0
1, 2637, Note_on_c, 1, 62, 0
1, 2659, Note_on_c, 0, 74, 0
1, 2664, Note_on_c, 0, 74, 66
1, 2674, Note_on_c, 0, 74, 0
1, 2688, Note_on_c, 0, 74, 66
1, 2688, Note_on_c, 1, 66, 66
1, 2688, Note_on_c, 1, 62, 66
1, 2708, Note_on_c, 0, 74, 0
1, 2733, Note_on_c, 1, 66, 0
1, 2733, Note_on_c, 1, 62, 0
1, 2856, Note_on_c, 0, 69, 66
1, 2864, Note_on_c, 0, 69, 0
1, 2864, Note_on_c, 0, 74, 66
1, 2872, Note_on_c, 0, 74, 0
1, 2872, Note_on_c, 0, 78, 66
1, 2880, Note_on_c, 0, 78, 0
1, 2880, Note_on_c, 0, 76, 66
1, 2880, Note_on_c, 1, 67, 66
1, 2880, Note_on_c, 1, 62, 66
1, 2952, Note_on_c, 0, 76, 0
1, 2952, Note_on_c, 0, 73, 66
1, 2975, Note_on_c, 0, 73, 0
1, 2976, Note_on_c, 0, 74, 66
1, 2976, Note_on_c, 1, 67, 0
1, 2976, Note_on_c, 1, 66, 66
1, 2996, Note_on_c, 0, 74, 0
1, 3021, Note_on_c, 1, 66, 0
1, 3021, Note_on_c, 1, 62, 0
1, 3120, Note_on_c, 0, 69, 66
1, 3132, Note_on_c, 0, 69, 0
1, 3132, Note_on_c, 0, 74, 66
1, 3144, Note_on_c, 0, 74, 0
1, 3144, Note_on_c, 0, 78, 66
1, 3156, Note_on_c, 0, 78, 0
1, 3156, Note_on_c, 0, 81, 66
1, 3168, Note_on_c, 0, 81, 0
1, 3168, Note_on_c, 0, 81, 106
1, 3168, Note_on_c, 1, 71, 66
1, 3188, Note_on_c, 1, 71, 0
1, 3216, Note_on_c, 0, 81, 0
1, 3216, Note_on_c, 0, 79, 66
1, 3226, Note_on_c, 0, 79, 0
1, 3252, Note_on_c, 0, 78, 66
1, 3252, Note_on_c, 1, 69, 66
1, 3257, Note_on_c, 1, 69, 0
1, 3264, Note_on_c, 0, 78, 0
1, 3264, Note_on_c, 0, 78, 106
1, 3264, Note_on_c, 1, 67, 66
1, 3284, Note_on_c, 1, 67, 0
1, 3312, Note_on_c, 0, 78, 0
1, 3312, Note_on_c, 0, 76, 66
1, 3322, Note_on_c, 0, 76, 0
1, 3348, Note_on_c, 0, 74, 66
1, 3348, Note_on_c, 1, 66, 66
1, 3353, Note_on_c, 1, 66, 0
1, 3360, Note_on_c, 0, 74, 0
1, 3360, Note_on_c, 0, 74, 106
1, 3360, Note_on_c, 1, 64, 66
1, 3380, Note_on_c, 1, 64, 0
1, 3408, Note_on_c, 0, 74, 0
1, 3408, Note_on_c, 0, 73, 66
1, 3418, Note_on_c, 0, 73, 0
1, 3444, Note_on_c, 0, 74, 66
1, 3444, Note_on_c, 1, 62, 66
1, 3456, Note_on_c, 0, 74, 0
1, 3456, Note_on_c, 0, 78, 66
1, 3456, Note_on_c, 1, 62, 0
1, 3456, Note_on_c, 1, 62, 66
1, 3456, Note_on_c, 1, 57, 66
1, 3552, Note_on_c, 0, 78, 0
1, 3552, Note_on_c, 0, 76, 66
1, 3552, Note_on_c, 1, 62, 0
1, 3552, Note_on_c, 1, 61, 66
1, 3572, Note_on_c, 0, 76, 0
1, 3597, Note_on_c, 1, 61, 0
1, 3597, Note_on_c, 1, 57, 0
1, 3720, Note_on_c, 0, 74, 80
1, 3728, Note_on_c, 0, 74, 0
1, 3728, Note_on_c, 0, 78, 80
1, 3736, Note_on_c, 0, 78, 0
1, 3736, Note_on_c, 0, 81, 80
1, 3744, Note_on_c, 0, 81, 0
1, 3744, Note_on_c, 0, 86, 80
1, 3744, Note_on_c, 1, 57, 80
1, 3744, Note_on_c, 1, 54, 80
1, 3744, Note_on_c, 1, 50, 80
1, 3764, Note_on_c, 0, 86, 0
1, 3792, Note_on_c, 0, 88, 80
1, 3798, Note_on_c, 0, 88, 0
1, 3798, Note_on_c, 0, 86, 80
1, 3804, Note_on_c, 0, 86, 0
1, 3804, Note_on_c, 0, 85, 80
1, 3810, Note_on_c, 0, 85, 0
1, 3810, Note_on_c, 0, 86, 80
1, 3826, Note_on_c, 0, 86, 0
1, 3828, Note_on_c, 0, 88, 80
1, 3833, Note_on_c, 1, 57, 0
1, 3833, Note_on_c, 1, 54, 0
1, 3833, Note_on_c, 1, 50, 0
1, 3840, Note_on_c, 0, 88, 0
1, 3840, Note_on_c, 0, 85, 80
1, 3840, Note_on_c, 1, 61, 80
1, 3840, Note_on_c, 1, 57, 80
1, 3840, Note_on_c, 1, 55, 80
1, 3840, Note_on_c, 1, 52, 80
1, 3860, Note_on_c, 0, 85, 0
1, 3929, Note_on_c, 1, 61, 0
1, 3929, Note_on_c, 1, 57, 0
1, 3929, Note_on_c, 1, 55, 0
1, 3929, Note_on_c, 1, 52, 0
1, 3936, Note_on_c, 0, 81, 80
1, 3981, Note_on_c, 0, 81, 0
1, 3984, Note_on_c, 0, 83, 80
1, 3990, Note_on_c, 0, 83, 0
1, 3990, Note_on_c, 0, 81, 80
1, 3996, Note_on_c, 0, 81, 0
1, 3996, Note_on_c, 0, 80, 80
1, 4002, Note_on_c, 0, 80, 0
1, 4002, Note_on_c, 0, 81, 80
1, 4018, Note_on_c, 0, 81, 0
1, 4020, Note_on_c, 0, 83, 80
1, 4032, Note_on_c, 0, 83, 0
1, 4032, Note_on_c, 0, 86, 80
1, 4032, Note_on_c, 1, 79, 80
1, 4032, Note_on_c, 1, 76, 80
1, 4056, Note_on_c, 0, 86, 0
1, 4056, Note_on_c, 0, 84, 96
1, 4080, Note_on_c, 0, 84, 0
1, 4080, Note_on_c, 0, 84, 76
1, 4114, Note_on_c, 0, 84, 0
1, 4116, Note_on_c, 0, 83, 74
1, 4121, Note_on_c, 1, 79, 0
1, 4121, Note_on_c, 1, 76, 0
1, 4128, Note_on_c, 0, 83, 0
1, 4128, Note_on_c, 0, 83, 73
1, 4128, Note_on_c, 1, 78, 74
1, 4128, Note_on_c, 1, 75, 74
1, 4248, Note_on_c, 0, 83, 0
1, 4248, Note_on_c, 0, 81, 66
1, 4261, Note_on_c, 1, 78, 0
1, 4261, Note_on_c, 1, 75, 0
1, 4271, Note_on_c, 0, 81, 0
1, 4272, Note_on_c, 0, 84, 66
1, 4272, Note_on_c, 1, 75, 66
1, 4296, Note_on_c, 0, 84, 0
1, 4296, Note_on_c, 0, 81, 66
1, 4319, Note_on_c, 0, 81, 0
1, 4320, Note_on_c, 0, 81, 66
1, 4320, Note_on_c, 1, 75, 0
1, 4320, Note_on_c, 1, 76, 66
1, 4344, Note_on_c, 0, 81, 0
1, 4344, Note_on_c, 0, 79, 66
1, 4365, Note_on_c, 1, 76, 0
1, 4367, Note_on_c, 0, 79, 0
1, 4368, Note_on_c, 0, 83, 66
1, 4368, Note_on_c, 1, 73, 66
1, 4392, Note_on_c, 0, 83, 0
1, 4392, Note_on_c, 0, 79, 66
1, 4413, Note_on_c, 1, 73, 0
1, 4415, Note_on_c, 0, 79, 0
1, 4416, Note_on_c, 0, 79, 66
1, 4416, Note_on_c, 1, 74, 66
1, 4440, Note_on_c, 0, 79, 0
1, 4440, Note_on_c, 0, 78, 66
1, 4461, Note_on_c, 1, 74, 0
1, 4463, Note_on_c, 0, 78, 0
1, 4464, Note_on_c, 0, 81, 66
1, 4464, Note_on_c, 1, 66, 66
1, 4488, Note_on_c, 0, 81, 0
1, 4488, Note_on_c, 0, 78, 66
1, 4509, Note_on_c, 1, 66, 0
1, 4511, Note_on_c, 0, 78, 0
1, 4512, Note_on_c, 0, 78, 66
1, 4512, Note_on_c, 1, 67, 66
1, 4536, Note_on_c, 0, 78, 0
1, 4536, Note_on_c, 0, 76, 66
1, 4557, Note_on_c, 1, 67, 0
1, 4559, Note_on_c, 0, 76, 0
1, 4560, Note_on_c, 0, 77, 106
1, 4560, Note_on_c, 1, 68, 66
1, 4584, Note_on_c, 0, 77, 0
1, 4584, Note_on_c, 0, 74, 66
1, 4605, Note_on_c, 1, 68, 0
1, 4607, Note_on_c, 0, 74, 0
1, 4608, Note_on_c, 0, 74, 66
1, 4608, Note_on_c, 1, 69, 66
1, 4697, Note_on_c, 1, 69, 0
1, 4704, Note_on_c, 0, 74, 0
1, 4704, Note_on_c, 0, 73, 66
1, 4704, Note_on_c, 1, 57, 66
1, 4749, Note_on_c, 0, 73, 0
1, 4749, Note_on_c, 1, 57, 0
1, 4872, Note_on_c, 1, 47, 80
1, 4880, Note_on_c, 1, 47, 0
1, 4880, Note_on_c, 1, 51, 80
1, 4888, Note_on_c, 1, 51, 0
1, 4888, Note_on_c, 1, 54, 80
1, 4896, Note_on_c, 1, 54, 0
1, 4896, Note_on_c, 1, 59, 80
1, 4963, Note_on_c, 1, 59, 0
1, 4968, Note_on_c, 1, 59, 80
1, 4978, Note_on_c, 1, 59, 0
1, 4992, Note_on_c, 1, 59, 80
1, 5012, Note_on_c, 1, 59, 0
1, 5040, Note_on_c, 0, 84, 66
1, 5064, Note_on_c, 0, 84, 0
1, 5064, Note_on_c, 0, 81, 66
1, 5087, Note_on_c, 0, 81, 0
1, 5088, Note_on_c, 0, 83, 66
1, 5112, Note_on_c, 0, 83, 0
1, 5112, Note_on_c, 0, 79, 66
1, 5135, Note_on_c, 0, 79, 0
1, 5136, Note_on_c, 0, 81, 66
1, 5160, Note_on_c, 0, 81, 0
1, 5160, Note_on_c, 0, 78, 66
1, 5160, Note_on_c, 1, 63, 66
1, 5183, Note_on_c, 0, 78, 0
1, 5183, Note_on_c, 1, 63, 0
1, 5184, Note_on_c, 0, 79, 66
1, 5184, Note_on_c, 1, 64, 66
1, 5208, Note_on_c, 1, 64, 0
1, 5208, Note_on_c, 1, 67, 66
1, 5229, Note_on_c, 0, 79, 0
1, 5231, Note_on_c, 1, 67, 0
1, 5232, Note_on_c, 1, 66, 66
1, 5256, Note_on_c, 1, 66, 0
1, 5256, Note_on_c, 1, 69, 66
1, 5279, Note_on_c, 1, 69, 0
1, 5280, Note_on_c, 1, 67, 66
1, 5325, Note_on_c, 1, 67, 0
1, 5328, Note_on_c, 0, 83, 66
1, 5352, Note_on_c, 0, 83, 0
1, 5352, Note_on_c, 0, 79, 66
1, 5375, Note_on_c, 0, 79, 0
1, 5376, Note_on_c, 0, 81, 66
1, 5400, Note_on_c, 0, 81, 0
1, 5400, Note_on_c, 0, 78, 66
1, 5423, Note_on_c, 0, 78, 0
1, 5424, Note_on_c, 0, 79, 66
1, 5448, Note_on_c, 0, 79, 0
1, 5448, Note_on_c, 0, 76, 66
1, 5448, Note_on_c, 1, 61, 66
1, 5471, Note_on_c, 0, 76, 0
1, 5471, Note_on_c, 1, 61, 0
1, 5472, Note_on_c, 0, 78, 66
1, 5472, Note_on_c, 1, 62, 67
1, 5496, Note_on_c, 1, 62, 0
1, 5496, Note_on_c, 1, 66, 68
1, 5517, Note_on_c, 0, 78, 0
1, 5519, Note_on_c, 1, 66, 0
1, 5520, Note_on_c, 1, 64, 69
1, 5544, Note_on_c, 1, 64, 0
1, 5544, Note_on_c, 1, 67, 70
1, 5567, Note_on_c, 1, 67, 0
1, 5568, Note_on_c, 1, 66, 71
1, 5592, Note_on_c, 0, 81, 80
1, 5592, Note_on_c, 0, 81, 64
1, 5615, Note_on_c, 0, 81, 0
1, 5616, Note_on_c, 0, 74, 80
1, 5637, Note_on_c, 0, 81, 0
1, 5639, Note_on_c, 0, 74, 0
1, 5640, Note_on_c, 0, 86, 80
1, 5663, Note_on_c, 0, 86, 0
1, 5664, Note_on_c, 0, 85, 80
1, 5664, Note_on_c, 0, 81, 80
1, 5664, Note_on_c, 1, 66, 0
1, 5664, Note_on_c, 1, 67, 75
1, 5687, Note_on_c, 0, 85, 0
1, 5687, Note_on_c, 0, 81, 0
1, 5688, Note_on_c, 0, 83, 79
1, 5688, Note_on_c, 0, 79, 79
1, 5711, Note_on_c, 0, 83, 0
1, 5711, Note_on_c, 0, 79, 0
1, 5712, Note_on_c, 0, 81, 79
1, 5712, Note_on_c, 0, 78, 79
1, 5731, Note_on_c, 1, 67, 0
1, 5735, Note_on_c, 0, 81, 0
1, 5735, Note_on_c, 0, 78, 0
1, 5736, Note_on_c, 0, 79, 78
1, 5736, Note_on_c, 0, 76, 78
1, 5736, Note_on_c, 1, 68, 75
1, 5759, Note_on_c, 0, 79, 0
1, 5759, Note_on_c, 0, 76, 0
1, 5759, Note_on_c, 1, 68, 0
1, 5760, Note_on_c, 0, 78, 78
1, 5760, Note_on_c, 0, 74, 78
1, 5760, Note_on_c, 1, 69, 75
1, 5856, Note_on_c, 0, 78, 0
1, 5856, Note_on_c, 0, 74, 0
1, 5856, Note_on_c, 0, 76, 76
1, 5856, Note_on_c, 0, 73, 76
1, 5879, Note_on_c, 1, 69, 0
1, 5880, Note_on_c, 1, 68, 67
1, 5901, Note_on_c, 0, 76, 0
1, 5901, Note_on_c, 0, 73, 0
1, 5903, Note_on_c, 1, 68, 0
1, 5904, Note_on_c, 1, 69, 68
1, 5927, Note_on_c, 1, 69, 0
1, 5928, Note_on_c, 1, 70, 69
1, 5951, Note_on_c, 1, 70, 0
1, 5952, Note_on_c, 1, 71, 70
1, 5975, Note_on_c, 1, 71, 0
1, 5976, Note_on_c, 1, 67, 69
1, 5999, Note_on_c, 1, 67, 0
1, 6000, Note_on_c, 1, 66, 68
1, 6023, Note_on_c, 1, 66, 0
1, 6024, Note_on_c, 0, 69, 66
1, 6024, Note_on_c, 1, 64, 68
1, 6047, Note_on_c, 0, 69, 0
1, 6047, Note_on_c, 1, 64, 0
1, 6048, Note_on_c, 0, 74, 66
1, 6048, Note_on_c, 1, 66, 67
1, 6048, Note_on_c, 1, 62, 67
1, 6093, Note_on_c, 1, 66, 0
1, 6093, Note_on_c, 1, 62, 0
1, 6115, Note_on_c, 0, 74, 0
1, 6120, Note_on_c, 0, 74, 66
1, 6130, Note_on_c, 0, 74, 0
1, 6144, Note_on_c, 0, 74, 66
1, 6144, Note_on_c, 1, 66, 66
1, 6144, Note_on_c, 1, 62, 66
1, 6164, Note_on_c, 0, 74, 0
1, 6189, Note_on_c, 1, 66, 0
1, 6189, Note_on_c, 1, 62, 0
1, 6312, Note_on_c, 0, 69, 66
1, 6320, Note_on_c, 0, 69, 0
1, 6320, Note_on_c, 0, 74, 66
1, 6328, Note_on_c, 0, 74, 0
1, 6328, Note_on_c, 0, 78, 66
1, 6336, Note_on_c, 0, 78, 0
1, 6336, Note_on_c, 0, 78, 66
1, 6336, Note_on_c, 1, 67, 66
1, 6336, Note_on_c, 1, 62, 66
1, 6360, Note_on_c, 0, 78, 0
1, 6360, Note_on_c, 0, 76, 66
1, 6383, Note_on_c, 0, 76, 0
1, 6384, Note_on_c, 0, 79, 66
1, 6408, Note_on_c, 0, 79, 0
1, 6408, Note_on_c, 0, 73, 66
1, 6431, Note_on_c, 0, 73, 0
1, 6432, Note_on_c, 0, 76, 66
1, 6432, Note_on_c, 1, 67, 0
1, 6432, Note_on_c, 1, 66, 66
1, 6477, Note_on_c, 1, 66, 0
1, 6477, Note_on_c, 1, 62, 0
1, 6480, Note_on_c, 0, 76, 0
1, 6480, Note_on_c, 0, 74, 66
1, 6525, Note_on_c, 0, 74, 0
1, 6528, Note_on_c, 1, 62, 82
1, 6544, Note_on_c, 1, 62, 0
1, 6544, Note_on_c, 1, 66, 66
1, 6559, Note_on_c, 1, 66, 0
1, 6560, Note_on_c, 1, 69, 66
1, 6575, Note_on_c, 1, 69, 0
1, 6576, Note_on_c, 0, 74, 66
1, 6591, Note_on_c, 0, 74, 0
1, 6592, Note_on_c, 0, 78, 66
1, 6607, Note_on_c, 0, 78, 0
1, 6608, Note_on_c, 0, 81, 66
1, 6623, Note_on_c, 0, 81, 0
1, 6624, Note_on_c, 0, 81, 106
1, 6624, Note_on_c, 1, 74, 66
1, 6624, Note_on_c, 1, 71, 66
1, 6644, Note_on_c, 1, 74, 0
1, 6644, Note_on_c, 1, 71, 0
1, 6672, Note_on_c, 0, 81, 0
1, 6672, Note_on_c, 0, 79, 66
1, 6682, Note_on_c, 0, 79, 0
1, 6708, Note_on_c, 0, 78, 66
1, 6708, Note_on_c, 1, 73, 66
1, 6708, Note_on_c, 1, 69, 66
1, 6713, Note_on_c, 1, 73, 0
1, 6713, Note_on_c, 1, 69, 0
1, 6720, Note_on_c, 0, 78, 0
1, 6720, Note_on_c, 0, 78, 106
1, 6720, Note_on_c, 1, 71, 66
1, 6720, Note_on_c, 1, 67, 66
1, 6740, Note_on_c, 1, 71, 0
1, 6740, Note_on_c, 1, 67, 0
1, 6768, Note_on_c, 0, 78, 0
1, 6768, Note_on_c, 0, 76, 66
1, 6778, Note_on_c, 0, 76, 0
1, 6804, Note_on_c, 0, 74, 66
1, 6804, Note_on_c, 1, 69, 66
1, 6804, Note_on_c, 1, 66, 66
1, 6809, Note_on_c, 1, 69, 0
1, 6809, Note_on_c, 1, 66, 0
1, 6816, Note_on_c, 0, 74, 0
1, 6816, Note_on_c, 0, 74, 106
1, 6816, Note_on_c, 1, 67, 66
1, 6816, Note_on_c, 1, 64, 66
1, 6836, Note_on_c, 1, 67, 0
1, 6836, Note_on_c, 1, 64, 0
1, 6864, Note_on_c, 0, 74, 0
1, 6864, Note_on_c, 0, 73, 66
1, 6874, Note_on_c, 0, 73, 0
1, 6900, Note_on_c, 0, 74, 66
1, 6900, Note_on_c, 1, 66, 66
1, 6900, Note_on_c, 1, 62, 66
1, 6905, Note_on_c, 1, 66, 0
1, 6905, Note_on_c, 1, 62, 0
1, 6912, Note_on_c, 0, 74, 0
1, 6912, Note_on_c, 0, 78, 66
1, 6912, Note_on_c, 1, 62, 66
1, 6912, Note_on_c, 1, 57, 66
1, 6946, Note_on_c, 0, 78, 0
1, 6948, Note_on_c, 0, 79, 66
1, 6960, Note_on_c, 0, 79, 0
1, 6960, Note_on_c, 0, 80, 66
1, 6994, Note_on_c, 0, 80, 0
1, 6996, Note_on_c, 0, 81, 66
1, 7008, Note_on_c, 0, 81, 0
1, 7008, Note_on_c, 0, 76, 66
1, 7008, Note_on_c, 1, 62, 0
1, 7008, Note_on_c, 1, 61, 66
1, 7028, Note_on_c, 0, 76, 0
1, 7053, Note_on_c, 1, 61, 0
1, 7053, Note_on_c, 1, 57, 0
1, 7176, Note_on_c, 0, 74, 80
1, 7184, Note_on_c, 0, 74, 0
1, 7184, Note_on_c, 0, 78, 80
1, 7192, Note_on_c, 0, 78, 0
1, 7192, Note_on_c, 0, 81, 80
1, 7200, Note_on_c, 0, 81, 0
1, 7200, Note_on_c, 0, 86, 80
1, 7200, Note_on_c, 1, 57, 84
1, 7200, Note_on_c, 1, 54, 84
1, 7200, Note_on_c, 1, 50, 84
1, 7220, Note_on_c, 0, 86, 0
1, 7248, Note_on_c, 0, 88, 80
1, 7254, Note_on_c, 0, 88, 0
1, 7254, Note_on_c, 0, 86, 80
1, 7260, Note_on_c, 0, 86, 0
1, 7260, Note_on_c, 0, 85, 80
1, 7266, Note_on_c, 0, 85, 0
1, 7266, Note_on_c, 0, 86, 80
1, 7282, Note_on_c, 0, 86, 0
1, 7284, Note_on_c, 0, 88, 80
1, 7289, Note_on_c, 1, 57, 0
1, 7289, Note_on_c, 1, 54, 0
1, 7289, Note_on_c, 1, 50, 0
1, 7296, Note_on_c, 0, 88, 0
1, 7296, Note_on_c, 0, 85, 80
1, 7296, Note_on_c, 1, 61, 84
1, 7296, Note_on_c, 1, 57, 84
1, 7296, Note_on_c, 1, 55, 84
1, 7296, Note_on_c, 1, 52, 84
1, 7316, Note_on_c, 0, 85, 0
1, 7385, Note_on_c, 1, 61, 0
1, 7385, Note_on_c, 1, 57, 0
1, 7385, Note_on_c, 1, 55, 0
1, 7385, Note_on_c, 1, 52, 0
1, 7392, Note_on_c, 0, 69, 80
1, 7404, Note_on_c, 0, 69, 0
1, 7404, Note_on_c, 0, 71, 80
1, 7416, Note_on_c, 0, 71, 0
1, 7416, Note_on_c, 0, 73, 81
1, 7428, Note_on_c, 0, 73, 0
1, 7428, Note_on_c, 0, 74, 81
1, 7440, Note_on_c, 0, 74, 0
1, 7440, Note_on_c, 0, 76, 82
1, 7450, Note_on_c, 0, 76, 0
1, 7450, Note_on_c, 0, 78, 82
1, 7460, Note_on_c, 0, 78, 0
1, 7460, Note_on_c, 0, 79, 82
1, 7470, Note_on_c, 0, 79, 0
1, 7470, Note_on_c, 0, 81, 82
1, 7479, Note_on_c, 0, 81, 0
1, 7479, Note_on_c, 0, 83, 83
1, 7488, Note_on_c, 0, 83, 0
1, 7488, Note_on_c, 0, 85, 100
1, 7488, Note_on_c, 1, 61, 84
1, 7488, Note_on_c, 1, 55, 84
1, 7488, Note_on_c, 1, 52, 84
1, 7536, Note_on_c, 0, 85, 0
1, 7536, Note_on_c, 0, 86, 108
1, 7542, Note_on_c, 0, 86, 0
1, 7542, Note_on_c, 0, 85, 108
1, 7548, Note_on_c, 0, 85, 0
1, 7548, Note_on_c, 0, 83, 108
1, 7554, Note_on_c, 0, 83, 0
1, 7554, Note_on_c, 0, 85, 124
1, 7572, Note_on_c, 0, 85, 0
1, 7572, Note_on_c, 0, 86, 84
1, 7577, Note_on_c, 1, 61, 0
1, 7577, Note_on_c, 1, 55, 0
1, 7577, Note_on_c, 1, 52, 0
1, 7584, Note_on_c, 0, 86, 0
1, 7584, Note_on_c, 0, 84, 84
1, 7584, Note_on_c, 1, 63, 84
1, 7584, Note_on_c, 1, 60, 84
1, 7584, Note_on_c, 1, 57, 84
1, 7584, Note_on_c, 1, 54, 84
1, 7629, Note_on_c, 0, 84, 0
1, 7632, Note_on_c, 0, 86, 108
1, 7638, Note_on_c, 0, 86, 0
1, 7638, Note_on_c, 0, 84, 108
1, 7644, Note_on_c, 0, 84, 0
1, 7644, Note_on_c, 0, 83, 108
1, 7650, Note_on_c, 0, 83, 0
1, 7650, Note_on_c, 0, 84, 124
1, 7668, Note_on_c, 0, 84, 0
1, 7668, Note_on_c, 0, 86, 84
1, 7673, Note_on_c, 1, 63, 0
1, 7673, Note_on_c, 1, 60, 0
1, 7673, Note_on_c, 1, 57, 0
1, 7673, Note_on_c, 1, 54, 0
1, 7680, Note_on_c, 0, 86, 0
1, 7680, Note_on_c, 0, 83, 84
1, 7680, Note_on_c, 1, 64, 84
1, 7680, Note_on_c, 1, 59, 84
1, 7680, Note_on_c, 1, 55, 84
1, 7725, Note_on_c, 0, 83, 0
1, 7728, Note_on_c, 0, 81, 84
1, 7740, Note_on_c, 0, 81, 0
1, 7740, Note_on_c, 0, 79, 84
1, 7752, Note_on_c, 0, 79, 0
1, 7752, Note_on_c, 0, 78, 84
1, 7764, Note_on_c, 0, 78, 0
1, 7764, Note_on_c, 0, 76, 84
1, 7769, Note_on_c, 1, 64, 0
1, 7769, Note_on_c, 1, 59, 0
1, 7769, Note_on_c, 1, 55, 0
1, 7776, Note_on_c, 0, 76, 0
1, 7776, Note_on_c, 0, 81, 96
1, 7776, Note_on_c, 1, 66, 84
1, 7776, Note_on_c, 1, 62, 84
1, 7776, Note_on_c, 1, 57, 84
1, 7917, Note_on_c, 0, 81, 0
1, 7920, Note_on_c, 0, 79, 69
1, 7932, Note_on_c, 0, 79, 0
1, 7932, Note_on_c, 0, 78, 68
1, 7944, Note_on_c, 0, 78, 0
1, 7944, Note_on_c, 0, 76, 67
1, 7953, Note_on_c, 1, 66, 0
1, 7953, Note_on_c, 1, 62, 0
1, 7953, Note_on_c, 1, 57, 0
1, 7956, Note_on_c, 0, 76, 0
1, 7956, Note_on_c, 0, 74, 66
1, 7968, Note_on_c, 0, 74, 0
1, 7968, Note_on_c, 0, 73, 66
1, 7968, Note_on_c, 1, 67, 66
1, 7968, Note_on_c, 1, 64, 66
1, 7968, Note_on_c, 1, 57, 66
1, 7988, Note_on_c, 0, 73, 0
1, 8013, Note_on_c, 1, 67, 0
1, 8013, Note_on_c, 1, 64, 0
1, 8013, Note_on_c, 1, 57, 0
1, 8016, Note_on_c, 0, 76, 66
1, 8016, Note_on_c, 0, 67, 66
1, 8036, Note_on_c, 0, 76, 0
1, 8036, Note_on_c, 0, 67, 0
1, 8064, Note_on_c, 0, 74, 66
1, 8064, Note_on_c, 0, 66, 66
1, 8064, Note_on_c, 1, 50, 62
1, 8084, Note_on_c, 0, 74, 0
1, 8084, Note_on_c, 0, 66, 0
1, 8109, Note_on_c, 1, 50, 0
1, 8160, Note_on_c, 1, 62, 62
1, 8205, Note_on_c, 1, 62, 0
1, 8328, Note_on_c, 1, 47, 80
1, 8336, Note_on_c, 1, 47, 0
1, 8336, Note_on_c, 1, 51, 80
1, 8344, Note_on_c, 1, 51, 0
1, 8344, Note_on_c, 1, 54, 80
1, 8352, Note_on_c, 1, 54, 0
1, 8352, Note_on_c, 1, 59, 80
1, 8419, Note_on_c, 1, 59, 0
1, 8424, Note_on_c, 1, 59, 80
1, 8434, Note_on_c, 1, 59, 0
1, 8448, Note_on_c, 1, 59, 80
1, 8468, Note_on_c, 1, 59, 0
1, 8496, Note_on_c, 0, 84, 66
1, 8520, Note_on_c, 0, 84, 0
1, 8520, Note_on_c, 0, 81, 66
1, 8543, Note_on_c, 0, 81, 0
1, 8544, Note_on_c, 0, 83, 66
1, 8568, Note_on_c, 0, 83, 0
1, 8568, Note_on_c, 0, 79, 66
1, 8591, Note_on_c, 0, 79, 0
1, 8592, Note_on_c, 0, 81, 66
1, 8616, Note_on_c, 0, 81, 0
1, 8616, Note_on_c, 0, 78, 66
1, 8616, Note_on_c, 1, 63, 66
1, 8639, Note_on_c, 0, 78, 0
1, 8639, Note_on_c, 1, 63, 0
1, 8640, Note_on_c, 0, 79, 66
1, 8640, Note_on_c, 1, 64, 66
1, 8664, Note_on_c, 1, 64, 0
1, 8664, Note_on_c, 1, 67, 66
1, 8685, Note_on_c, 0, 79, 0
1, 8687, Note_on_c, 1, 67, 0
1, 8688, Note_on_c, 1, 66, 66
1, 8712, Note_on_c, 1, 66, 0
1, 8712, Note_on_c, 1, 69, 66
1, 8735, Note_on_c, 1, 69, 0
1, 8736, Note_on_c, 1, 67, 66
1, 8781, Note_on_c, 1, 67, 0
1, 8784, Note_on_c, 0, 83, 66
1, 8808, Note_on_c, 0, 83, 0
1, 8808, Note_on_c, 0, 79, 66
1, 8831, Note_on_c, 0, 79, 0
1, 8832, Note_on_c, 0, 81, 66
1, 8856, Note_on_c, 0, 81, 0
1, 8856, Note_on_c, 0, 78, 66
1, 8879, Note_on_c, 0, 78, 0
1, 8880, Note_on_c, 0, 79, 66
1, 8904, Note_on_c, 0, 79, 0
1, 8904, Note_on_c, 0, 76, 66
1, 8904, Note_on_c, 1, 61, 66
1, 8927, Note_on_c, 0, 76, 0
1, 8927, Note_on_c, 1, 61, 0
1, 8928, Note_on_c, 0, 78, 66
1, 8928, Note_on_c, 1, 62, 67
1, 8952, Note_on_c, 1, 62, 0
1, 8952, Note_on_c, 1, 66, 68
1, 8973, Note_on_c, 0, 78, 0
1, 8975, Note_on_c, 1, 66, 0
1, 8976, Note_on_c, 1, 64, 69
1, 9000, Note_on_c, 1, 64, 0
1, 9000, Note_on_c, 1, 67, 70
1, 9023, Note_on_c, 1, 67, 0
1, 9024, Note_on_c, 1, 66, 71
1, 9048, Note_on_c, 0, 81, 80
1, 9048, Note_on_c, 0, 81, 64
1, 9071, Note_on_c, 0, 81, 0
1, 9072, Note_on_c, 0, 74, 80
1, 9093, Note_on_c, 0, 81, 0
1, 9095, Note_on_c, 0, 74, 0
1, 9096, Note_on_c, 0, 86, 80
1, 9119, Note_on_c, 0, 86, 0
1, 9120, Note_on_c, 0, 85, 80
1, 9120, Note_on_c, 0, 81, 80
1, 9120, Note_on_c, 1, 66, 0
1, 9120, Note_on_c, 1, 67, 75
1, 9143, Note_on_c, 0, 85, 0
1, 9143, Note_on_c, 0, 81, 0
1, 9144, Note_on_c, 0, 83, 79
1, 9144, Note_on_c, 0, 79, 79
1, 9167, Note_on_c, 0, 83, 0
1, 9167, Note_on_c, 0, 79, 0
1, 9168, Note_on_c, 0, 81, 79
1, 9168, Note_on_c, 0, 78, 79
1, 9187, Note_on_c, 1, 67, 0
1, 9191, Note_on_c, 0, 81, 0
1, 9191, Note_on_c, 0, 78, 0
1, 9192, Note_on_c, 0, 79, 78
1, 9192, Note_on_c, 0, 76, 78
1, 9192, Note_on_c, 1, 68, 75
1, 9215, Note_on_c, 0, 79, 0
1, 9215, Note_on_c, 0, 76, 0
1, 9215, Note_on_c, 1, 68, 0
1, 9216, Note_on_c, 0, 78, 78
1, 9216, Note_on_c, 0, 74, 78
1, 9216, Note_on_c, 1, 69, 75
1, 9312, Note_on_c, 0, 78, 0
1, 9312, Note_on_c, 0, 74, 0
1, 9312, Note_on_c, 0, 76, 76
1, 9312, Note_on_c, 0, 73, 76
1, 9335, Note_on_c, 1, 69, 0
1, 9336, Note_on_c, 1, 68, 67
1, 9357, Note_on_c, 0, 76, 0
1, 9357, Note_on_c, 0, 73, 0
1, 9359, Note_on_c, 1, 68, 0
1, 9360, Note_on_c, 1, 69, 68
1, 9383, Note_on_c, 1, 69, 0
1, 9384, Note_on_c, 1, 70, 69
1, 9407, Note_on_c, 1, 70, 0
1, 9408, Note_on_c, 1, 71, 70
1, 9431, Note_on_c, 1, 71, 0
1, 9432, Note_on_c, 1, 67, 69
1, 9455, Note_on_c, 1, 67, 0
1, 9456, Note_on_c, 1, 66, 68
1, 9479, Note_on_c, 1, 66, 0
1, 9480, Note_on_c, 0, 69, 66
1, 9480, Note_on_c, 1, 64, 68
1, 9503, Note_on_c, 0, 69, 0
1, 9503, Note_on_c, 1, 64, 0
1, 9504, Note_on_c, 0, 74, 66
1, 9504, Note_on_c, 1, 66, 67
1, 9504, Note_on_c, 1, 62, 67
1, 9549, Note_on_c, 1, 66, 0
1, 9549, Note_on_c, 1, 62, 0
1, 9571, Note_on_c, 0, 74, 0
1, 9576, Note_on_c, 0, 74, 66
1, 9586, Note_on_c, 0, 74, 0
1, 9600, Note_on_c, 0, 74, 66
1, 9600, Note_on_c, 1, 66, 66
1, 9600, Note_on_c, 1, 62, 66
1, 9620, Note_on_c, 0, 74, 0
1, 9645, Note_on_c, 1, 66, 0
1, 9645, Note_on_c, 1, 62, 0
1, 9768, Note_on_c, 0, 69, 66
1, 9776, Note_on_c, 0, 69, 0
1, 9776, Note_on_c, 0, 74, 66
1, 9784, Note_on_c, 0, 74, 0
1, 9784, Note_on_c, 0, 78, 66
1, 9792, Note_on_c, 0, 78, 0
1, 9792, Note_on_c, 0, 78, 66
1, 9792, Note_on_c, 1, 67, 66
1, 9792, Note_on_c, 1, 62, 66
1, 9816, Note_on_c, 0, 78, 0
1, 9816, Note_on_c, 0, 76, 66
1, 9839, Note_on_c, 0, 76, 0
1, 9840, Note_on_c, 0, 79, 66
1, 9864, Note_on_c, 0, 79, 0
1, 9864, Note_on_c, 0, 73, 66
1, 9887, Note_on_c, 0, 73, 0
1, 9888, Note_on_c, 0, 76, 66
1, 9888, Note_on_c, 1, 67, 0
1, 9888, Note_on_c, 1, 66, 66
1, 9933, Note_on_c, 1, 66, 0
1, 9933, Note_on_c, 1, 62, 0
1, 9936, Note_on_c, 0, 76, 0
1, 9936, Note_on_c, 0, 74, 66
1, 9981, Note_on_c, 0, 74, 0
1, 9984, Note_on_c, 1, 62, 82
1, 10000, Note_on_c, 1, 62, 0
1, 10000, Note_on_c, 1, 66, 66
1, 10015, Note_on_c, 1, 66, 0
1, 10016, Note_on_c, 1, 69, 66
1, 10031, Note_on_c, 1, 69, 0
1, 10032, Note_on_c, 0, 74, 66
1, 10047, Note_on_c, 0, 74, 0
1, 10048, Note_on_c, 0, 78, 66
1, 10063, Note_on_c, 0, 78, 0
1, 10064, Note_on_c, 0, 81, 66
1, 10079, Note_on_c, 0, 81, 0
1, 10080, Note_on_c, 0, 81, 106
1, 10080, Note_on_c, 1, 74, 66
1, 10080, Note_on_c, 1, 71, 66
1, 10100, Note_on_c, 1, 74, 0
1, 10100, Note_on_c, 1, 71, 0
1, 10128, Note_on_c, 0, 81, 0
1, 10128, Note_on_c, 0, 79, 66
1, 10138, Note_on_c, 0, 79, 0
1, 10164, Note_on_c, 0, 78, 66
1, 10164, Note_on_c, 1, 73, 66
1, 10164, Note_on_c, 1, 69, 66
1, 10169, Note_on_c, 1, 73, 0
1, 10169, Note_on_c, 1, 69, 0
1, 10176, Note_on_c, 0, 78, 0
1, 10176, Note_on_c, 0, 78, 106
1, 10176, Note_on_c, 1, 71, 66
1, 10176, Note_on_c, 1, 67, 66
1, 10196, Note_on_c, 1, 71, 0
1, 10196, Note_on_c, 1, 67, 0
1, 10224, Note_on_c, 0, 78, 0
1, 10224, Note_on_c, 0, 76, 66
1, 10234, Note_on_c, 0, 76, 0
1, 10260, Note_on_c, 0, 74, 66
1, 10260, Note_on_c, 1, 69, 66
1, 10260, Note_on_c, 1, 66, 66
1, 10265, Note_on_c, 1, 69, 0
1, 10265, Note_on_c, 1, 66, 0
1, 10272, Note_on_c, 0, 74, 0
1, 10272, Note_on_c, 0, 74, 106
1, 10272, Note_on_c, 1, 67, 66
1, 10272, Note_on_c, 1, 64, 66
1, 10292, Note_on_c, 1, 67, 0
1, 10292, Note_on_c, 1, 64, 0
1, 10320, Note_on_c, 0, 74, 0
1, 10320, Note_on_c, 0, 73, 66
1, 10330, Note_on_c, 0, 73, 0
1, 10356, Note_on_c, 0, 74, 66
1, 10356, Note_on_c, 1, 66, 66
1, 10356, Note_on_c, 1, 62, 66
1, 10361, Note_on_c, 1, 66, 0
1, 10361, Note_on_c, 1, 62, 0
1, 10368, Note_on_c, 0, 74, 0
1, 10368, Note_on_c, 0, 78, 66
1, 10368, Note_on_c, 1, 62, 66
1, 10368, Note_on_c, 1, 57, 66
1, 10402, Note_on_c, 0, 78, 0
1, 10404, Note_on_c, 0, 79, 66
1, 10416, Note_on_c, 0, 79, 0
1, 10416, Note_on_c, 0, 80, 66
1, 10450, Note_on_c, 0, 80, 0
1, 10452, Note_on_c, 0, 81, 66
1, 10464, Note_on_c, 0, 81, 0
1, 10464, Note_on_c, 0, 76, 66
1, 10464, Note_on_c, 1, 62, 0
1, 10464, Note_on_c, 1, 61, 66
1, 10484, Note_on_c, 0, 76, 0
1, 10509, Note_on_c, 1, 61, 0
1, 10509, Note_on_c, 1, 57, 0
1, 10632, Note_on_c, 0, 74, 80
1, 10640, Note_on_c, 0, 74, 0
1, 10640, Note_on_c, 0, 78, 80
1, 10648, Note_on_c, 0, 78, 0
1, 10648, Note_on_c, 0, 81, 80
1, 10656, Note_on_c, 0, 81, 0
1, 10656, Note_on_c, 0, 86, 80
1, 10656, Note_on_c, 1, 57, 84
1, 10656, Note_on_c, 1, 54, 84
1, 10656, Note_on_c, 1, 50, 84
1, 10676, Note_on_c, 0, 86, 0
1, 10704, Note_on_c, 0, 88, 80
1, 10710, Note_on_c, 0, 88, 0
1, 10710, Note_on_c, 0, 86, 80
1, 10716, Note_on_c, 0, 86, 0
1, 10716, Note_on_c, 0, 85, 80
1, 10722, Note_on_c, 0, 85, 0
1, 10722, Note_on_c, 0, 86, 80
1, 10738, Note_on_c, 0, 86, 0
1, 10740, Note_on_c, 0, 88, 80
1, 10745, Note_on_c, 1, 57, 0
1, 10745, Note_on_c, 1, 54, 0
1, 10745, Note_on_c, 1, 50, 0
1, 10752, Note_on_c, 0, 88, 0
1, 10752, Note_on_c, 0, 85, 80
1, 10752, Note_on_c, 1, 61, 84
1, 10752, Note_on_c, 1, 57, 84
1, 10752, Note_on_c, 1, 55, 84
1, 10752, Note_on_c, 1, 52, 84
1, 10772, Note_on_c, 0, 85, 0
1, 10841, Note_on_c, 1, 61, 0
1, 10841, Note_on_c, 1, 57, 0
1, 10841, Note_on_c, 1, 55, 0
1, 10841, Note_on_c, 1, 52, 0
1, 10848, Note_on_c, 0, 69, 80
1, 10860, Note_on_c, 0, 69, 0
1, 10860, Note_on_c, 0, 71, 80
1, 10872, Note_on_c, 0, 71, 0
1, 10872, Note_on_c, 0, 73, 81
1, 10884, Note_on_c, 0, 73, 0
1, 10884, Note_on_c, 0, 74, 81
1, 10896, Note_on_c, 0, 74, 0
1, 10896, Note_on_c, 0, 76, 82
1, 10906, Note_on_c, 0, 76, 0
1, 10906, Note_on_c, 0, 78, 82
1, 10916, Note_on_c, 0, 78, 0
1, 10916, Note_on_c, 0, 79, 82
1, 10926, Note_on_c, 0, 79, 0
1, 10926, Note_on_c, 0, 81, 82
1, 10935, Note_on_c, 0, 81, 0
1, 10935, Note_on_c, 0, 83, 83
1, 10944, Note_on_c, 0, 83, 0
1, 10944, Note_on_c, 0, 85, 100
1, 10944, Note_on_c, 1, 61, 84
1, 10944, Note_on_c, 1, 55, 84
1, 10944, Note_on_c, 1, 52, 84
1, 10992, Note_on_c, 0, 85, 0
1, 10992, Note_on_c, 0, 86, 108
1, 10998, Note_on_c, 0, 86, 0
1, 10998, Note_on_c, 0, 85, 108
1, 11004, Note_on_c, 0, 85, 0
1, 11004, Note_on_c, 0, 83, 108
1, 11010, Note_on_c, 0, 83, 0
1, 11010, Note_on_c, 0, 85, 124
1, 11028, Note_on_c, 0, 85, 0
1, 11028, Note_on_c, 0, 86, 84
1, 11033, Note_on_c, 1, 61, 0
1, 11033, Note_on_c, 1, 55, 0
1, 11033, Note_on_c, 1, 52, 0
1, 11040, Note_on_c, 0, 86, 0
1, 11040, Note_on_c, 0, 84, 84
1, 11040, Note_on_c, 1, 63, 84
1, 11040, Note_on_c, 1, 60, 84
1, 11040, Note_on_c, 1, 57, 84
1, 11040, Note_on_c, 1, 54, 84
1, 11085, Note_on_c, 0, 84, 0
1, 11088, Note_on_c, 0, 86, 108
1, 11094, Note_on_c, 0, 86, 0
1, 11094, Note_on_c, 0, 84, 108
1, 11100, Note_on_c, 0, 84, 0
1, 11100, Note_on_c, 0, 83, 108
1, 11106, Note_on_c, 0, 83, 0
1, 11106, Note_on_c, 0, 84, 124
1, 11124, Note_on_c, 0, 84, 0
1, 11124, Note_on_c, 0, 86, 84
1, 11129, Note_on_c, 1, 63, 0
1, 11129, Note_on_c, 1, 60, 0
1, 11129, Note_on_c, 1, 57, 0
1, 11129, Note_on_c, 1, 54, 0
1, 11136, Note_on_c, 0, 86, 0
1, 11136, Note_on_c, 0, 83, 84
1, 11136, Note_on_c, 1, 64, 84
1, 11136, Note_on_c, 1, 59, 84
1, 11136, Note_on_c, 1, 55, 84
1, 11181, Note_on_c, 0, 83, 0
1, 11184, Note_on_c, 0, 81, 84
1, 11196, Note_on_c, 0, 81, 0
1, 11196, Note_on_c, 0, 79, 84
1, 11208, Note_on_c, 0, 79, 0
1, 11208, Note_on_c, 0, 78, 84
1, 11220, Note_on_c, 0, 78, 0
1, 11220, Note_on_c, 0, 76, 84
1, 11225, Note_on_c, 1, 64, 0
1, 11225, Note_on_c, 1, 59, 0
1, 11225, Note_on_c, 1, 55, 0
1, 11232, Note_on_c, 0, 76, 0
1, 11232, Note_on_c, 0, 81, 96
1, 11232, Note_on_c, 1, 66, 84
1, 11232, Note_on_c, 1, 62, 84
1, 11232, Note_on_c, 1, 57, 84
1, 11373, Note_on_c, 0, 81, 0
1, 11376, Note_on_c, 0, 79, 69
1, 11388, Note_on_c, 0, 79, 0
1, 11388, Note_on_c, 0, 78, 68
1, 11400, Note_on_c, 0, 78, 0
1, 11400, Note_on_c, 0, 76, 67
1, 11409, Note_on_c, 1, 66, 0
1, 11409, Note_on_c, 1, 62, 0
1, 11409, Note_on_c, 1, 57, 0
1, 11412, Note_on_c, 0, 76, 0
1, 11412, Note_on_c, 0, 74, 66
1, 11424, Note_on_c, 0, 74, 0
1, 11424, Note_on_c, 0, 73, 66
1, 11424, Note_on_c, 1, 67, 66
1, 11424, Note_on_c, 1, 64, 66
1, 11424, Note_on_c, 1, 57, 66
1, 11444, Note_on_c, 0, 73, 0
1, 11469, Note_on_c, 1, 67, 0
1, 11469, Note_on_c, 1, 64, 0
1, 11469, Note_on_c, 1, 57, 0
1, 11472, Note_on_c, 0, 76, 66
1, 11472, Note_on_c, 0, 67, 66
1, 11492, Note_on_c, 0, 76, 0
1, 11492, Note_on_c, 0, 67, 0
1, 11520, Note_on_c, 0, 74, 66
1, 11520, Note_on_c, 0, 66, 66
1, 11520, Note_on_c, 1, 50, 62
1, 11540, Note_on_c, 0, 74, 0
1, 11540, Note_on_c, 0, 66, 0
1, 11565, Note_on_c, 1, 50, 0
1, 11616, Note_on_c, 1, 62, 62
1, 11661, Note_on_c, 1, 62, 0
1, 11784, Note_on_c, 0, 57, 66
1, 11807, Note_on_c, 0, 57, 0
1, 11808, Note_on_c, 0, 62, 66
1, 11808, Note_on_c, 1, 57, 66
1, 11808, Note_on_c, 1, 54, 66
1, 11808, Note_on_c, 1, 50, 66
1, 11808, Note_on_c, 1, 45, 66
1, 11808, Note_on_c, 1, 42, 66
1, 11808, Note_on_c, 1, 38, 66
1, 11875, Note_on_c, 0, 62, 0
1, 11880, Note_on_c, 0, 62, 66
1, 11897, Note_on_c, 1, 57, 0
1, 11897, Note_on_c, 1, 54, 0
1, 11897, Note_on_c, 1, 50, 0
1, 11897, Note_on_c, 1, 45, 0
1, 11897, Note_on_c, 1, 42, 0
1, 11897, Note_on_c, 1, 38, 0
1, 11903, Note_on_c, 0, 62, 0
1, 11904, Note_on_c, 0, 62, 66
1, 11920, Note_on_c, 1, 49, 66
1, 11935, Note_on_c, 1, 49, 0
1, 11936, Note_on_c, 1, 50, 66
1, 11949, Note_on_c, 0, 62, 0
1, 11951, Note_on_c, 1, 50, 0
1, 11952, Note_on_c, 1, 54, 66
1, 11967, Note_on_c, 1, 54, 0
1, 11968, Note_on_c, 1, 57, 66
1, 11983, Note_on_c, 1, 57, 0
1, 11984, Note_on_c, 1, 61, 66
1, 11999, Note_on_c, 1, 61, 0
1, 12000, Note_on_c, 0, 62, 66
1, 12015, Note_on_c, 0, 62, 0
1, 12016, Note_on_c, 0, 66, 68
1, 12031, Note_on_c, 0, 66, 0
1, 12032, Note_on_c, 0, 69, 70
1, 12047, Note_on_c, 0, 69, 0
1, 12048, Note_on_c, 0, 74, 72
1, 12063, Note_on_c, 0, 74, 0
1, 12064, Note_on_c, 0, 69, 75
1, 12079, Note_on_c, 0, 69, 0
1, 12080, Note_on_c, 0, 66, 72
1, 12095, Note_on_c, 0, 66, 0
1, 12096, Note_on_c, 0, 64, 66
1, 12096, Note_on_c, 1, 55, 66
1, 12096, Note_on_c, 1, 50, 66
1, 12168, Note_on_c, 0, 64, 0
1, 12168, Note_on_c, 0, 61, 66
1, 12191, Note_on_c, 0, 61, 0
1, 12192, Note_on_c, 0, 62, 66
1, 12192, Note_on_c, 1, 55, 0
1, 12192, Note_on_c, 1, 54, 66
1, 12207, Note_on_c, 0, 62, 0
1, 12208, Note_on_c, 0, 69, 66
1, 12223, Note_on_c, 0, 69, 0
1, 12224, Note_on_c, 0, 66, 66
1, 12237, Note_on_c, 1, 54, 0
1, 12237, Note_on_c, 1, 50, 0
1, 12239, Note_on_c, 0, 66, 0
1, 12240, Note_on_c, 0, 74, 66
1, 12255, Note_on_c, 0, 74, 0
1, 12256, Note_on_c, 0, 69, 66
1, 12271, Note_on_c, 0, 69, 0
1, 12272, Note_on_c, 0, 78, 66
1, 12287, Note_on_c, 0, 78, 0
1, 12288, Note_on_c, 0, 74, 66
1, 12303, Note_on_c, 0, 74, 0
1, 12304, Note_on_c, 0, 81, 66
1, 12319, Note_on_c, 0, 81, 0
1, 12320, Note_on_c, 0, 78, 66
1, 12335, Note_on_c, 0, 78, 0
1, 12336, Note_on_c, 0, 86, 66
1, 12351, Note_on_c, 0, 86, 0
1, 12352, Note_on_c, 0, 85, 66
1, 12367, Note_on_c, 0, 85, 0
1, 12368, Note_on_c, 0, 83, 66
1, 12383, Note_on_c, 0, 83, 0
1, 12384, Note_on_c, 0, 81, 106
1, 12384, Note_on_c, 1, 71, 66
1, 12400, Note_on_c, 0, 81, 0
1, 12400, Note_on_c, 0, 79, 66
1, 12415, Note_on_c, 0, 79, 0
1, 12416, Note_on_c, 0, 81, 66
1, 12429, Note_on_c, 1, 71, 0
1, 12431, Note_on_c, 0, 81, 0
1, 12432, Note_on_c, 0, 79, 106
1, 12432, Note_on_c, 1, 69, 66
1, 12448, Note_on_c, 0, 79, 0
1, 12448, Note_on_c, 0, 78, 66
1, 12463, Note_on_c, 0, 78, 0
1, 12464, Note_on_c, 0, 79, 66
1, 12477, Note_on_c, 1, 69, 0
1, 12479, Note_on_c, 0, 79, 0
1, 12480, Note_on_c, 0, 78, 106
1, 12480, Note_on_c, 1, 67, 66
1, 12496, Note_on_c, 0, 78, 0
1, 12496, Note_on_c, 0, 76, 66
1, 12511, Note_on_c, 0, 76, 0
1, 12512, Note_on_c, 0, 78, 66
1, 12525, Note_on_c, 1, 67, 0
1, 12527, Note_on_c, 0, 78, 0
1, 12528, Note_on_c, 0, 76, 106
1, 12528, Note_on_c, 1, 66, 66
1, 12544, Note_on_c, 0, 76, 0
1, 12544, Note_on_c, 0, 74, 66
1, 12559, Note_on_c, 0, 74, 0
1, 12560, Note_on_c, 0, 76, 66
1, 12573, Note_on_c, 1, 66, 0
1, 12575, Note_on_c, 0, 76, 0
1, 12576, Note_on_c, 0, 74, 66
1, 12576, Note_on_c, 1, 64, 66
1, 12591, Note_on_c, 0, 74, 0
1, 12592, Note_on_c, 0, 73, 66
1, 12607, Note_on_c, 0, 73, 0
1, 12608, Note_on_c, 0, 81, 66
1, 12621, Note_on_c, 1, 64, 0
1, 12623, Note_on_c, 0, 81, 0
1, 12624, Note_on_c, 0, 79, 66
1, 12624, Note_on_c, 1, 62, 66
1, 12639, Note_on_c, 0, 79, 0
1, 12640, Note_on_c, 0, 78, 66
1, 12655, Note_on_c, 0, 78, 0
1, 12656, Note_on_c, 0, 86, 66
1, 12669, Note_on_c, 1, 62, 0
1, 12671, Note_on_c, 0, 86, 0
1, 12672, Note_on_c, 0, 79, 66
1, 12672, Note_on_c, 1, 62, 66
1, 12672, Note_on_c, 1, 57, 66
1, 12680, Note_on_c, 0, 79, 0
1, 12680, Note_on_c, 0, 78, 66
1, 12688, Note_on_c, 0, 78, 0
1, 12688, Note_on_c, 0, 79, 66
1, 12696, Note_on_c, 0, 79, 0
1, 12696, Note_on_c, 0, 78, 66
1, 12704, Note_on_c, 0, 78, 0
1, 12704, Note_on_c, 0, 79, 66
1, 12712, Note_on_c, 0, 79, 0
1, 12712, Note_on_c, 0, 78, 66
1, 12720, Note_on_c, 0, 78, 0
1, 12720, Note_on_c, 0, 79, 66
1, 12728, Note_on_c, 0, 79, 0
1, 12728, Note_on_c, 0, 78, 66
1, 12736, Note_on_c, 0, 78, 0
1, 12736, Note_on_c, 0, 79, 66
1, 12744, Note_on_c, 0, 79, 0
1, 12744, Note_on_c, 0, 78, 66
1, 12752, Note_on_c, 0, 78, 0
1, 12752, Note_on_c, 0, 76, 66
1, 12760, Note_on_c, 0, 76, 0
1, 12760, Note_on_c, 0, 78, 66
1, 12768, Note_on_c, 0, 78, 0
1, 12768, Note_on_c, 0, 76, 66
1, 12768, Note_on_c, 1, 62, 0
1, 12768, Note_on_c, 1, 61, 66
1, 12788, Note_on_c, 0, 76, 0
1, 12813, Note_on_c, 1, 61, 0
1, 12813, Note_on_c, 1, 57, 0
1, 12912, Note_on_c, 0, 74, 66
1, 12927, Note_on_c, 0, 74, 0
1, 12928, Note_on_c, 0, 78, 66
1, 12943, Note_on_c, 0, 78, 0
1, 12944, Note_on_c, 0, 81, 66
1, 12959, Note_on_c, 0, 81, 0
1, 12960, Note_on_c, 0, 86, 66
1, 12960, Note_on_c, 1, 57, 66
1, 12960, Note_on_c, 1, 54, 66
1, 12960, Note_on_c, 1, 50, 66
1, 12980, Note_on_c, 0, 86, 0
1, 13008, Note_on_c, 0, 88, 66
1, 13014, Note_on_c, 0, 88, 0
1, 13014, Note_on_c, 0, 86, 66
1, 13020, Note_on_c, 0, 86, 0
1, 13020, Note_on_c, 0, 85, 66
1, 13026, Note_on_c, 0, 85, 0
1, 13026, Note_on_c, 0, 86, 66
1, 13042, Note_on_c, 0, 86, 0
1, 13044, Note_on_c, 0, 88, 66
1, 13049, Note_on_c, 1, 57, 0
1, 13049, Note_on_c, 1, 54, 0
1, 13049, Note_on_c, 1, 50, 0
1, 13056, Note_on_c, 0, 88, 0
1, 13056, Note_on_c, 0, 85, 66
1, 13056, Note_on_c, 1, 61, 66
1, 13056, Note_on_c, 1, 57, 66
1, 13056, Note_on_c, 1, 55, 66
1, 13056, Note_on_c, 1, 52, 66
1, 13103, Note_on_c, 0, 85, 0
1, 13145, Note_on_c, 1, 61, 0
1, 13145, Note_on_c, 1, 57, 0
1, 13145, Note_on_c, 1, 55, 0
1, 13145, Note_on_c, 1, 52, 0
1, 13152, Note_on_c, 0, 81, 66
1, 13167, Note_on_c, 0, 81, 0
1, 13168, Note_on_c, 0, 80, 66
1, 13183, Note_on_c, 0, 80, 0
1, 13184, Note_on_c, 0, 83, 66
1, 13199, Note_on_c, 0, 83, 0
1, 13200, Note_on_c, 0, 81, 66
1, 13215, Note_on_c, 0, 81, 0
1, 13216, Note_on_c, 0, 84, 66
1, 13231, Note_on_c, 0, 84, 0
1, 13232, Note_on_c, 0, 83, 66
1, 13247, Note_on_c, 0, 83, 0
1, 13248, Note_on_c, 0, 86, 66
1, 13248, Note_on_c, 1, 67, 66
1, 13248, Note_on_c, 1, 64, 64
1, 13293, Note_on_c, 0, 86, 0
1, 13296, Note_on_c, 0, 84, 80
1, 13337, Note_on_c, 1, 67, 0
1, 13337, Note_on_c, 1, 64, 0
1, 13344, Note_on_c, 1, 66, 80
1, 13344, Note_on_c, 1, 63, 80
1, 13385, Note_on_c, 0, 84, 0
1, 13392, Note_on_c, 0, 83, 120
1, 13433, Note_on_c, 1, 66, 0
1, 13440, Note_on_c, 1, 72, 80
1, 13463, Note_on_c, 0, 83, 0
1, 13464, Note_on_c, 0, 81, 80
1, 13476, Note_on_c, 0, 81, 0
1, 13476, Note_on_c, 0, 83, 80
1, 13488, Note_on_c, 0, 83, 0
1, 13488, Note_on_c, 0, 86, 80
1, 13500, Note_on_c, 0, 86, 0
1, 13500, Note_on_c, 0, 84, 80
1, 13512, Note_on_c, 0, 84, 0
1, 13512, Note_on_c, 0, 83, 80
1, 13521, Note_on_c, 1, 63, 0
1, 13524, Note_on_c, 0, 83, 0
1, 13524, Note_on_c, 0, 81, 80
1, 13529, Note_on_c, 1, 72, 0
1, 13536, Note_on_c, 0, 81, 0
1, 13536, Note_on_c, 0, 81, 80
1, 13536, Note_on_c, 1, 71, 80
1, 13536, Note_on_c, 1, 64, 80
1, 13581, Note_on_c, 0, 81, 0
1, 13581, Note_on_c, 1, 71, 0
1, 13584, Note_on_c, 0, 79, 78
1, 13584, Note_on_c, 1, 73, 78
1, 13625, Note_on_c, 1, 64, 0
1, 13629, Note_on_c, 1, 73, 0
1, 13632, Note_on_c, 1, 74, 76
1, 13632, Note_on_c, 1, 62, 80
1, 13666, Note_on_c, 0, 79, 0
1, 13668, Note_on_c, 0, 78, 75
1, 13677, Note_on_c, 1, 74, 0
1, 13680, Note_on_c, 0, 78, 0
1, 13680, Note_on_c, 0, 79, 74
1, 13680, Note_on_c, 1, 69, 74
1, 13686, Note_on_c, 0, 79, 0
1, 13686, Note_on_c, 0, 78, 74
1, 13692, Note_on_c, 0, 78, 0
1, 13692, Note_on_c, 0, 76, 74
1, 13698, Note_on_c, 0, 76, 0
1, 13698, Note_on_c, 0, 78, 74
1, 13721, Note_on_c, 1, 62, 0
1, 13725, Note_on_c, 0, 78, 0
1, 13725, Note_on_c, 1, 69, 0
1, 13728, Note_on_c, 0, 76, 73
1, 13728, Note_on_c, 1, 71, 73
1, 13728, Note_on_c, 1, 67, 80
1, 13743, Note_on_c, 0, 76, 0
1, 13744, Note_on_c, 0, 82, 72
1, 13759, Note_on_c, 0, 82, 0
1, 13760, Note_on_c, 0, 83, 72
1, 13775, Note_on_c, 0, 83, 0
1, 13776, Note_on_c, 0, 78, 71
1, 13791, Note_on_c, 0, 78, 0
1, 13792, Note_on_c, 0, 79, 71
1, 13807, Note_on_c, 0, 79, 0
1, 13808, Note_on_c, 0, 76, 70
1, 13817, Note_on_c, 1, 71, 0
1, 13817, Note_on_c, 1, 67, 0
1, 13823, Note_on_c, 0, 76, 0
1, 13824, Note_on_c, 0, 74, 70
1, 13824, Note_on_c, 1, 66, 69
1, 13824, Note_on_c, 1, 57, 69
1, 13920, Note_on_c, 0, 74, 0
1, 13920, Note_on_c, 0, 73, 66
1, 13920, Note_on_c, 1, 66, 0
1, 13920, Note_on_c, 1, 64, 66
1, 13965, Note_on_c, 0, 73, 0
1, 13965, Note_on_c, 1, 64, 0
1, 13965, Note_on_c, 1, 57, 0
1, 14088, Note_on_c, 0, 57, 66
1, 14111, Note_on_c, 0, 57, 0
1, 14112, Note_on_c, 0, 62, 66
1, 14112, Note_on_c, 1, 57, 66
1, 14112, Note_on_c, 1, 54, 66
1, 14112, Note_on_c, 1, 50, 66
1, 14112, Note_on_c, 1, 45, 66
1, 14112, Note_on_c, 1, 42, 66
1, 14112, Note_on_c, 1, 38, 66
1, 14179, Note_on_c, 0, 62, 0
1, 14184, Note_on_c, 0, 62, 66
1, 14201, Note_on_c, 1, 57, 0
1, 14201, Note_on_c, 1, 54, 0
1, 14201, Note_on_c, 1, 50, 0
1, 14201, Note_on_c, 1, 45, 0
1, 14201, Note_on_c, 1, 42, 0
1, 14201, Note_on_c, 1, 38, 0
1, 14207, Note_on_c, 0, 62, 0
1, 14208, Note_on_c, 0, 62, 66
1, 14224, Note_on_c, 1, 49, 66
1, 14239, Note_on_c, 1, 49, 0
1, 14240, Note_on_c, 1, 50, 66
1, 14253, Note_on_c, 0, 62, 0
1, 14255, Note_on_c, 1, 50, 0
1, 14256, Note_on_c, 1, 54, 66
1, 14271, Note_on_c, 1, 54, 0
1, 14272, Note_on_c, 1, 57, 66
1, 14287, Note_on_c, 1, 57, 0
1, 14288, Note_on_c, 1, 61, 66
1, 14303, Note_on_c, 1, 61, 0
1, 14304, Note_on_c, 0, 62, 66
1, 14319, Note_on_c, 0, 62, 0
1, 14320, Note_on_c, 0, 66, 68
1, 14335, Note_on_c, 0, 66, 0
1, 14336, Note_on_c, 0, 69, 70
1, 14351, Note_on_c, 0, 69, 0
1, 14352, Note_on_c, 0, 74, 72
1, 14367, Note_on_c, 0, 74, 0
1, 14368, Note_on_c, 0, 69, 75
1, 14383, Note_on_c, 0, 69, 0
1, 14384, Note_on_c, 0, 66, 72
1, 14399, Note_on_c, 0, 66, 0
1, 14400, Note_on_c, 0, 64, 66
1, 14400, Note_on_c, 1, 55, 66
1, 14400, Note_on_c, 1, 50, 66
1, 14472, Note_on_c, 0, 64, 0
1, 14472, Note_on_c, 0, 61, 66
1, 14495, Note_on_c, 0, 61, 0
1, 14496, Note_on_c, 0, 62, 66
1, 14496, Note_on_c, 1, 55, 0
1, 14496, Note_on_c, 1, 54, 66
1, 14511, Note_on_c, 0, 62, 0
1, 14512, Note_on_c, 0, 69, 66
1, 14527, Note_on_c, 0, 69, 0
1, 14528, Note_on_c, 0, 66, 66
1, 14541, Note_on_c, 1, 54, 0
1, 14541, Note_on_c, 1, 50, 0
1, 14543, Note_on_c, 0, 66, 0
1, 14544, Note_on_c, 0, 74, 66
1, 14559, Note_on_c, 0, 74, 0
1, 14560, Note_on_c, 0, 69, 66
1, 14575, Note_on_c, 0, 69, 0
1, 14576, Note_on_c, 0, 78, 66
1, 14591, Note_on_c, 0, 78, 0
1, 14592, Note_on_c, 0, 74, 66
1, 14607, Note_on_c, 0, 74, 0
1, 14608, Note_on_c, 0, 81, 66
1, 14623, Note_on_c, 0, 81, 0
1, 14624, Note_on_c, 0, 78, 66
1, 14639, Note_on_c, 0, 78, 0
1, 14640, Note_on_c, 0, 86, 66
1, 14655, Note_on_c, 0, 86, 0
1, 14656, Note_on_c, 0, 85, 66
1, 14671, Note_on_c, 0, 85, 0
1, 14672, Note_on_c, 0, 83, 66
1, 14687, Note_on_c, 0, 83, 0
1, 14688, Note_on_c, 0, 81, 106
1, 14688, Note_on_c, 1, 71, 66
1, 14704, Note_on_c, 0, 81, 0
1, 14704, Note_on_c, 0, 79, 66
1, 14719, Note_on_c, 0, 79, 0
1, 14720, Note_on_c, 0, 81, 66
1, 14733, Note_on_c, 1, 71, 0
1, 14735, Note_on_c, 0, 81, 0
1, 14736, Note_on_c, 0, 79, 106
1, 14736, Note_on_c, 1, 69, 66
1, 14752, Note_on_c, 0, 79, 0
1, 14752, Note_on_c, 0, 78, 66
1, 14767, Note_on_c, 0, 78, 0
1, 14768, Note_on_c, 0, 79, 66
1, 14781, Note_on_c, 1, 69, 0
1, 14783, Note_on_c, 0, 79, 0
1, 14784, Note_on_c, 0, 78, 106
1, 14784, Note_on_c, 1, 67, 66
1, 14800, Note_on_c, 0, 78, 0
1, 14800, Note_on_c, 0, 76, 66
1, 14815, Note_on_c, 0, 76, 0
1, 14816, Note_on_c, 0, 78, 66
1, 14829, Note_on_c, 1, 67, 0
1, 14831, Note_on_c, 0, 78, 0
1, 14832, Note_on_c, 0, 76, 106
1, 14832, Note_on_c, 1, 66, 66
1, 14848, Note_on_c, 0, 76, 0
1, 14848, Note_on_c, 0, 74, 66
1, 14863, Note_on_c, 0, 74, 0
1, 14864, Note_on_c, 0, 76, 66
1, 14877, Note_on_c, 1, 66, 0
1, 14879, Note_on_c, 0, 76, 0
1, 14880, Note_on_c, 0, 74, 66
1, 14880, Note_on_c, 1, 64, 66
1, 14895, Note_on_c, 0, 74, 0
1, 14896, Note_on_c, 0, 73, 66
1, 14911, Note_on_c, 0, 73, 0
1, 14912, Note_on_c, 0, 81, 66
1, 14925, Note_on_c, 1, 64, 0
1, 14927, Note_on_c, 0, 81, 0
1, 14928, Note_on_c, 0, 79, 66
1, 14928, Note_on_c, 1, 62, 66
1, 14943, Note_on_c, 0, 79, 0
1, 14944, Note_on_c, 0, 78, 66
1, 14959, Note_on_c, 0, 78, 0
1, 14960, Note_on_c, 0, 86, 66
1, 14973, Note_on_c, 1, 62, 0
1, 14975, Note_on_c, 0, 86, 0
1, 14976, Note_on_c, 0, 79, 66
1, 14976, Note_on_c, 1, 62, 66
1, 14976, Note_on_c, 1, 57, 66
1, 14984, Note_on_c, 0, 79, 0
1, 14984, Note_on_c, 0, 78, 66
1, 14992, Note_on_c, 0, 78, 0
1, 14992, Note_on_c, 0, 79, 66
1, 15000, Note_on_c, 0, 79, 0
1, 15000, Note_on_c, 0, 78, 66
1, 15008, Note_on_c, 0, 78, 0
1, 15008, Note_on_c, 0, 79, 66
1, 15016, Note_on_c, 0, 79, 0
1, 15016, Note_on_c, 0, 78, 66
1, 15024, Note_on_c, 0, 78, 0
1, 15024, Note_on_c, 0, 79, 66
1, 15032, Note_on_c, 0, 79, 0
1, 15032, Note_on_c, 0, 78, 66
1, 15040, Note_on_c, 0, 78, 0
1, 15040, Note_on_c, 0, 79, 66
1, 15048, Note_on_c, 0, 79, 0
1, 15048, Note_on_c, 0, 78, 66
1, 15056, Note_on_c, 0, 78, 0
1, 15056, Note_on_c, 0, 76, 66
1, 15064, Note_on_c, 0, 76, 0
1, 15064, Note_on_c, 0, 78, 66
1, 15072, Note_on_c, 0, 78, 0
1, 15072, Note_on_c, 0, 76, 66
1, 15072, Note_on_c, 1, 62, 0
1, 15072, Note_on_c, 1, 61, 66
1, 15092, Note_on_c, 0, 76, 0
1, 15117, Note_on_c, 1, 61, 0
1, 15117, Note_on_c, 1, 57, 0
1, 15216, Note_on_c, 0, 74, 66
1, 15231, Note_on_c, 0, 74, 0
1, 15232, Note_on_c, 0, 78, 66
1, 15247, Note_on_c, 0, 78, 0
1, 15248, Note_on_c, 0, 81, 66
1, 15263, Note_on_c, 0, 81, 0
1, 15264, Note_on_c, 0, 86, 66
1, 15264, Note_on_c, 1, 57, 66
1, 15264, Note_on_c, 1, 54, 66
1, 15264, Note_on_c, 1, 50, 66
1, 15284, Note_on_c, 0, 86, 0
1, 15312, Note_on_c, 0, 88, 66
1, 15318, Note_on_c, 0, 88, 0
1, 15318, Note_on_c, 0, 86, 66
1, 15324, Note_on_c, 0, 86, 0
1, 15324, Note_on_c, 0, 85, 66
1, 15330, Note_on_c, 0, 85, 0
1, 15330, Note_on_c, 0, 86, 66
1, 15346, Note_on_c, 0, 86, 0
1, 15348, Note_on_c, 0, 88, 66
1, 15353, Note_on_c, 1, 57, 0
1, 15353, Note_on_c, 1, 54, 0
1, 15353, Note_on_c, 1, 50, 0
1, 15360, Note_on_c, 0, 88, 0
1, 15360, Note_on_c, 0, 85, 66
1, 15360, Note_on_c, 1, 61, 66
1, 15360, Note_on_c, 1, 57, 66
1, 15360, Note_on_c, 1, 55, 66
1, 15360, Note_on_c, 1, 52, 66
1, 15407, Note_on_c, 0, 85, 0
1, 15449, Note_on_c, 1, 61, 0
1, 15449, Note_on_c, 1, 57, 0
1, 15449, Note_on_c, 1, 55, 0
1, 15449, Note_on_c, 1, 52, 0
1, 15456, Note_on_c, 0, 81, 66
1, 15471, Note_on_c, 0, 81, 0
1, 15472, Note_on_c, 0, 80, 66
1, 15487, Note_on_c, 0, 80, 0
1, 15488, Note_on_c, 0, 83, 66
1, 15503, Note_on_c, 0, 83, 0
1, 15504, Note_on_c, 0, 81, 66
1, 15519, Note_on_c, 0, 81, 0
1, 15520, Note_on_c, 0, 84, 66
1, 15535, Note_on_c, 0, 84, 0
1, 15536, Note_on_c, 0, 83, 66
1, 15551, Note_on_c, 0, 83, 0
1, 15552, Note_on_c, 0, 86, 66
1, 15552, Note_on_c, 1, 67, 66
1, 15552, Note_on_c, 1, 64, 64
1, 15597, Note_on_c, 0, 86, 0
1, 15600, Note_on_c, 0, 84, 80
1, 15641, Note_on_c, 1, 67, 0
1, 15641, Note_on_c, 1, 64, 0
1, 15648, Note_on_c, 1, 66, 80
1, 15648, Note_on_c, 1, 63, 80
1, 15689, Note_on_c, 0, 84, 0
1, 15696, Note_on_c, 0, 83, 120
1, 15737, Note_on_c, 1, 66, 0
1, 15744, Note_on_c, 1, 72, 80
1, 15767, Note_on_c, 0, 83, 0
1, 15768, Note_on_c, 0, 81, 80
1, 15780, Note_on_c, 0, 81, 0
1, 15780, Note_on_c, 0, 83, 80
1, 15792, Note_on_c, 0, 83, 0
1, 15792, Note_on_c, 0, 86, 80
1, 15804, Note_on_c, 0, 86, 0
1, 15804, Note_on_c, 0, 84, 80
1, 15816, Note_on_c, 0, 84, 0
1, 15816, Note_on_c, 0, 83, 80
1, 15825, Note_on_c, 1, 63, 0
1, 15828, Note_on_c, 0, 83, 0
1, 15828, Note_on_c, 0, 81, 80
1, 15833, Note_on_c, 1, 72, 0
1, 15840, Note_on_c, 0, 81, 0
1, 15840, Note_on_c, 0, 81, 80
1, 15840, Note_on_c, 1, 71, 80
1, 15840, Note_on_c, 1, 64, 80
1, 15885, Note_on_c, 0, 81, 0
1, 15885, Note_on_c, 1, 71, 0
1, 15888, Note_on_c, 0, 79, 78
1, 15888, Note_on_c, 1, 73, 78
1, 15929, Note_on_c, 1, 64, 0
1, 15933, Note_on_c, 1, 73, 0
1, 15936, Note_on_c, 1, 74, 76
1, 15936, Note_on_c, 1, 62, 80
1, 15970, Note_on_c, 0, 79, 0
1, 15972, Note_on_c, 0, 78, 75
1, 15981, Note_on_c, 1, 74, 0
1, 15984, Note_on_c, 0, 78, 0
1, 15984, Note_on_c, 0, 79, 74
1, 15984, Note_on_c, 1, 69, 74
1, 15990, Note_on_c, 0, 79, 0
1, 15990, Note_on_c, 0, 78, 74
1, 15996, Note_on_c, 0, 78, 0
1, 15996, Note_on_c, 0, 76, 74
1, 16002, Note_on_c, 0, 76, 0
1, 16002, Note_on_c, 0, 78, 74
1, 16025, Note_on_c, 1, 62, 0
1, 16029, Note_on_c, 0, 78, 0
1, 16029, Note_on_c, 1, 69, 0
1, 16032, Note_on_c, 0, 76, 73
1, 16032, Note_on_c, 1, 71, 73
1, 16032, Note_on_c, 1, 67, 80
1, 16047, Note_on_c, 0, 76, 0
1, 16048, Note_on_c, 0, 82, 72
1, 16063, Note_on_c, 0, 82, 0
1, 16064, Note_on_c, 0, 83, 72
1, 16079, Note_on_c, 0, 83, 0
1, 16080, Note_on_c, 0, 78, 71
1, 16095, Note_on_c, 0, 78, 0
1, 16096, Note_on_c, 0, 79, 71
1, 16111, Note_on_c, 0, 79, 0
1, 16112, Note_on_c, 0, 76, 70
1, 16121, Note_on_c, 1, 71, 0
1, 16121, Note_on_c, 1, 67, 0
1, 16127, Note_on_c, 0, 76, 0
1, 16128, Note_on_c, 0, 74, 70
1, 16128, Note_on_c, 1, 66, 69
1, 16128, Note_on_c, 1, 57, 69
1, 16224, Note_on_c, 0, 74, 0
1, 16224, Note_on_c, 0, 73, 66
1, 16224, Note_on_c, 1, 66, 0
1, 16224, Note_on_c, 1, 64, 66
1, 16269, Note_on_c, 0, 73, 0
1, 16269, Note_on_c, 1, 64, 0
1, 16269, Note_on_c, 1, 57, 0
1, 16392, Note_on_c, 0, 59, 66
1, 16400, Note_on_c, 0, 59, 0
1, 16400, Note_on_c, 0, 63, 66
1, 16408, Note_on_c, 0, 63, 0
1, 16408, Note_on_c, 0, 66, 66
1, 16416, Note_on_c, 0, 66, 0
1, 16416, Note_on_c, 0, 71, 66
1, 16483, Note_on_c, 0, 71, 0
1, 16488, Note_on_c, 0, 71, 66
1, 16511, Note_on_c, 0, 71, 0
1, 16512, Note_on_c, 0, 71, 66
1, 16557, Note_on_c, 0, 71, 0
1, 16560, Note_on_c, 1, 60, 66
1, 16584, Note_on_c, 1, 60, 0
1, 16584, Note_on_c, 1, 57, 66
1, 16607, Note_on_c, 1, 57, 0
1, 16608, Note_on_c, 1, 59, 66
1, 16632, Note_on_c, 1, 59, 0
1, 16632, Note_on_c, 1, 55, 66
1, 16655, Note_on_c, 1, 55, 0
1, 16656, Note_on_c, 1, 57, 66
1, 16680, Note_on_c, 0, 75, 66
1, 16680, Note_on_c, 1, 57, 0
1, 16680, Note_on_c, 1, 54, 66
1, 16703, Note_on_c, 0, 75, 0
1, 16703, Note_on_c, 1, 54, 0
1, 16704, Note_on_c, 0, 76, 66
1, 16704, Note_on_c, 1, 55, 66
1, 16727, Note_on_c, 0, 76, 0
1, 16728, Note_on_c, 0, 79, 66
1, 16749, Note_on_c, 1, 55, 0
1, 16751, Note_on_c, 0, 79, 0
1, 16752, Note_on_c, 0, 78, 66
1, 16775, Note_on_c, 0, 78, 0
1, 16776, Note_on_c, 0, 81, 66
1, 16799, Note_on_c, 0, 81, 0
1, 16800, Note_on_c, 0, 79, 66
1, 16845, Note_on_c, 0, 79, 0
1, 16848, Note_on_c, 1, 59, 66
1, 16872, Note_on_c, 1, 59, 0
1, 16872, Note_on_c, 1, 55, 66
1, 16895, Note_on_c, 1, 55, 0
1, 16896, Note_on_c, 1, 57, 66
1, 16920, Note_on_c, 1, 57, 0
1, 16920, Note_on_c, 1, 54, 66
1, 16943, Note_on_c, 1, 54, 0
1, 16944, Note_on_c, 1, 55, 66
1, 16968, Note_on_c, 0, 73, 66
1, 16968, Note_on_c, 1, 55, 0
1, 16968, Note_on_c, 1, 52, 66
1, 16991, Note_on_c, 0, 73, 0
1, 16991, Note_on_c, 1, 52, 0
1, 16992, Note_on_c, 0, 74, 66
1, 16992, Note_on_c, 1, 54, 66
1, 17015, Note_on_c, 0, 74, 0
1, 17016, Note_on_c, 0, 78, 68
1, 17037, Note_on_c, 1, 54, 0
1, 17039, Note_on_c, 0, 78, 0
1, 17040, Note_on_c, 0, 76, 70
1, 17063, Note_on_c, 0, 76, 0
1, 17064, Note_on_c, 0, 79, 73
1, 17087, Note_on_c, 0, 79, 0
1, 17088, Note_on_c, 0, 78, 75
1, 17111, Note_on_c, 0, 78, 0
1, 17112, Note_on_c, 0, 81, 77
1, 17112, Note_on_c, 1, 54, 80
1, 17135, Note_on_c, 0, 81, 0
1, 17135, Note_on_c, 1, 54, 0
1, 17136, Note_on_c, 0, 74, 80
1, 17136, Note_on_c, 1, 42, 80
1, 17159, Note_on_c, 0, 74, 0
1, 17159, Note_on_c, 1, 42, 0
1, 17160, Note_on_c, 0, 86, 80
1, 17160, Note_on_c, 1, 54, 80
1, 17183, Note_on_c, 0, 86, 0
1, 17183, Note_on_c, 1, 54, 0
1, 17184, Note_on_c, 0, 82, 80
1, 17184, Note_on_c, 1, 43, 80
1, 17207, Note_on_c, 1, 43, 0
1, 17208, Note_on_c, 0, 82, 0
1, 17208, Note_on_c, 0, 83, 80
1, 17208, Note_on_c, 1, 55, 80
1, 17231, Note_on_c, 0, 83, 0
1, 17231, Note_on_c, 1, 55, 0
1, 17232, Note_on_c, 0, 71, 80
1, 17232, Note_on_c, 1, 44, 80
1, 17255, Note_on_c, 0, 71, 0
1, 17255, Note_on_c, 1, 44, 0
1, 17256, Note_on_c, 0, 76, 80
1, 17256, Note_on_c, 1, 56, 80
1, 17279, Note_on_c, 0, 76, 0
1, 17279, Note_on_c, 1, 56, 0
1, 17280, Note_on_c, 0, 74, 80
1, 17304, Note_on_c, 1, 45, 80
1, 17327, Note_on_c, 1, 45, 0
1, 17328, Note_on_c, 1, 57, 80
1, 17351, Note_on_c, 1, 57, 0
1, 17352, Note_on_c, 1, 56, 80
1, 17375, Note_on_c, 1, 56, 0
1, 17376, Note_on_c, 0, 74, 0
1, 17376, Note_on_c, 0, 73, 80
1, 17376, Note_on_c, 1, 57, 80
1, 17382, Note_on_c, 0, 73, 0
1, 17382, Note_on_c, 0, 74, 80
1, 17386, Note_on_c, 1, 57, 0
1, 17388, Note_on_c, 0, 74, 0
1, 17388, Note_on_c, 0, 73, 80
1, 17400, Note_on_c, 1, 57, 80
1, 17423, Note_on_c, 0, 73, 0
1, 17423, Note_on_c, 1, 57, 0
1, 17424, Note_on_c, 1, 61, 80
1, 17447, Note_on_c, 1, 61, 0
1, 17448, Note_on_c, 1, 64, 80
1, 17471, Note_on_c, 1, 64, 0
1, 17472, Note_on_c, 1, 69, 80
1, 17495, Note_on_c, 1, 69, 0
1, 17496, Note_on_c, 1, 66, 76
1, 17519, Note_on_c, 1, 66, 0
1, 17520, Note_on_c, 1, 67, 73
1, 17543, Note_on_c, 1, 67, 0
1, 17544, Note_on_c, 0, 69, 66
1, 17544, Note_on_c, 1, 64, 69
1, 17567, Note_on_c, 0, 69, 0
1, 17567, Note_on_c, 1, 64, 0
1, 17568, Note_on_c, 0, 74, 66
1, 17568, Note_on_c, 1, 66, 66
1, 17568, Note_on_c, 1, 62, 66
1, 17613, Note_on_c, 1, 66, 0
1, 17613, Note_on_c, 1, 62, 0
1, 17635, Note_on_c, 0, 74, 0
1, 17640, Note_on_c, 0, 74, 66
1, 17650, Note_on_c, 0, 74, 0
1, 17664, Note_on_c, 0, 74, 66
1, 17664, Note_on_c, 1, 66, 66
1, 17664, Note_on_c, 1, 62, 66
1, 17674, Note_on_c, 0, 74, 0
1, 17688, Note_on_c, 0, 76, 67
1, 17698, Note_on_c, 0, 76, 0
1, 17709, Note_on_c, 1, 66, 0
1, 17709, Note_on_c, 1, 62, 0
1, 17712, Note_on_c, 0, 78, 69
1, 17722, Note_on_c, 0, 78, 0
1, 17736, Note_on_c, 0, 79, 71
1, 17746, Note_on_c, 0, 79, 0
1, 17760, Note_on_c, 0, 81, 73
1, 17770, Note_on_c, 0, 81, 0
1, 17784, Note_on_c, 0, 83, 74
1, 17794, Note_on_c, 0, 83, 0
1, 17808, Note_on_c, 0, 85, 76
1, 17818, Note_on_c, 0, 85, 0
1, 17832, Note_on_c, 0, 86, 78
1, 17842, Note_on_c, 0, 86, 0
1, 17856, Note_on_c, 0, 76, 80
1, 17856, Note_on_c, 1, 67, 80
1, 17856, Note_on_c, 1, 62, 80
1, 17928, Note_on_c, 0, 76, 0
1, 17928, Note_on_c, 0, 73, 80
1, 17951, Note_on_c, 0, 73, 0
1, 17952, Note_on_c, 0, 74, 80
1, 17952, Note_on_c, 1, 67, 0
1, 17952, Note_on_c, 1, 66, 80
1, 17972, Note_on_c, 0, 74, 0
1, 17997, Note_on_c, 1, 66, 0
1, 17997, Note_on_c, 1, 62, 0
1, 18048, Note_on_c, 0, 62, 80
1, 18056, Note_on_c, 0, 62, 0
1, 18056, Note_on_c, 0, 64, 80
1, 18064, Note_on_c, 0, 64, 0
1, 18064, Note_on_c, 0, 66, 80
1, 18072, Note_on_c, 0, 66, 0
1, 18072, Note_on_c, 0, 67, 80
1, 18080, Note_on_c, 0, 67, 0
1, 18080, Note_on_c, 0, 69, 80
1, 18088, Note_on_c, 0, 69, 0
1, 18088, Note_on_c, 0, 71, 80
1, 18096, Note_on_c, 0, 71, 0
1, 18096, Note_on_c, 0, 73, 80
1, 18104, Note_on_c, 0, 73, 0
1, 18104, Note_on_c, 0, 74, 80
1, 18112, Note_on_c, 0, 74, 0
1, 18112, Note_on_c, 0, 76, 80
1, 18120, Note_on_c, 0, 76, 0
1, 18120, Note_on_c, 0, 78, 80
1, 18128, Note_on_c, 0, 78, 0
1, 18128, Note_on_c, 0, 79, 80
1, 18136, Note_on_c, 0, 79, 0
1, 18136, Note_on_c, 0, 81, 80
1, 18144, Note_on_c, 0, 81, 0
1, 18144, Note_on_c, 0, 81, 120
1, 18144, Note_on_c, 1, 74, 80
1, 18144, Note_on_c, 1, 71, 80
1, 18164, Note_on_c, 1, 74, 0
1, 18164, Note_on_c, 1, 71, 0
1, 18192, Note_on_c, 0, 81, 0
1, 18192, Note_on_c, 0, 79, 80
1, 18202, Note_on_c, 0, 79, 0
1, 18228, Note_on_c, 0, 78, 80
1, 18228, Note_on_c, 1, 73, 80
1, 18228, Note_on_c, 1, 69, 80
1, 18233, Note_on_c, 1, 73, 0
1, 18233, Note_on_c, 1, 69, 0
1, 18240, Note_on_c, 0, 78, 0
1, 18240, Note_on_c, 0, 78, 120
1, 18240, Note_on_c, 1, 71, 80
1, 18240, Note_on_c, 1, 67, 80
1, 18260, Note_on_c, 1, 71, 0
1, 18260, Note_on_c, 1, 67, 0
1, 18288, Note_on_c, 0, 78, 0
1, 18288, Note_on_c, 0, 76, 80
1, 18298, Note_on_c, 0, 76, 0
1, 18324, Note_on_c, 0, 74, 80
1, 18324, Note_on_c, 1, 69, 80
1, 18324, Note_on_c, 1, 66, 80
1, 18329, Note_on_c, 1, 69, 0
1, 18329, Note_on_c, 1, 66, 0
1, 18336, Note_on_c, 0, 74, 0
1, 18336, Note_on_c, 0, 74, 120
1, 18336, Note_on_c, 1, 67, 80
1, 18336, Note_on_c, 1, 64, 80
1, 18356, Note_on_c, 1, 67, 0
1, 18356, Note_on_c, 1, 64, 0
1, 18384, Note_on_c, 0, 74, 0
1, 18384, Note_on_c, 0, 73, 80
1, 18394, Note_on_c, 0, 73, 0
1, 18420, Note_on_c, 0, 74, 80
1, 18420, Note_on_c, 1, 66, 80
1, 18420, Note_on_c, 1, 62, 80
1, 18432, Note_on_c, 0, 74, 0
1, 18432, Note_on_c, 0, 79, 80
1, 18432, Note_on_c, 1, 66, 0
1, 18432, Note_on_c, 1, 62, 0
1, 18432, Note_on_c, 1, 62, 80
1, 18432, Note_on_c, 1, 57, 80
1, 18438, Note_on_c, 0, 79, 0
1, 18438, Note_on_c, 0, 78, 80
1, 18444, Note_on_c, 0, 78, 0
1, 18444, Note_on_c, 0, 76, 80
1, 18450, Note_on_c, 0, 76, 0
1, 18450, Note_on_c, 0, 78, 80
1, 18466, Note_on_c, 0, 78, 0
1, 18468, Note_on_c, 0, 79, 80
1, 18480, Note_on_c, 0, 79, 0
1, 18480, Note_on_c, 0, 80, 80
1, 18514, Note_on_c, 0, 80, 0
1, 18516, Note_on_c, 0, 81, 80
1, 18528, Note_on_c, 0, 81, 0
1, 18528, Note_on_c, 0, 76, 80
1, 18528, Note_on_c, 1, 62, 0
1, 18528, Note_on_c, 1, 61, 80
1, 18548, Note_on_c, 0, 76, 0
1, 18573, Note_on_c, 1, 61, 0
1, 18573, Note_on_c, 1, 57, 0
1, 18696, Note_on_c, 0, 74, 80
1, 18704, Note_on_c, 0, 74, 0
1, 18704, Note_on_c, 0, 78, 80
1, 18712, Note_on_c, 0, 78, 0
1, 18712, Note_on_c, 0, 81, 80
1, 18720, Note_on_c, 0, 81, 0
1, 18720, Note_on_c, 0, 86, 80
1, 18720, Note_on_c, 1, 57, 84
1, 18720, Note_on_c, 1, 54, 84
1, 18720, Note_on_c, 1, 50, 84
1, 18740, Note_on_c, 0, 86, 0
1, 18768, Note_on_c, 0, 88, 80
1, 18774, Note_on_c, 0, 88, 0
1, 18774, Note_on_c, 0, 86, 80
1, 18780, Note_on_c, 0, 86, 0
1, 18780, Note_on_c, 0, 85, 80
1, 18786, Note_on_c, 0, 85, 0
1, 18786, Note_on_c, 0, 86, 80
1, 18802, Note_on_c, 0, 86, 0
1, 18804, Note_on_c, 0, 88, 80
1, 18809, Note_on_c, 1, 57, 0
1, 18809, Note_on_c, 1, 54, 0
1, 18809, Note_on_c, 1, 50, 0
1, 18816, Note_on_c, 0, 88, 0
1, 18816, Note_on_c, 0, 85, 80
1, 18816, Note_on_c, 1, 61, 84
1, 18816, Note_on_c, 1, 57, 84
1, 18816, Note_on_c, 1, 55, 84
1, 18816, Note_on_c, 1, 52, 84
1, 18863, Note_on_c, 0, 85, 0
1, 18905, Note_on_c, 1, 61, 0
1, 18905, Note_on_c, 1, 57, 0
1, 18905, Note_on_c, 1, 55, 0
1, 18905, Note_on_c, 1, 52, 0
1, 18912, Note_on_c, 0, 69, 80
1, 18924, Note_on_c, 0, 69, 0
1, 18924, Note_on_c, 0, 73, 80
1, 18936, Note_on_c, 0, 73, 0
1, 18936, Note_on_c, 0, 71, 81
1, 18948, Note_on_c, 0, 71, 0
1, 18948, Note_on_c, 0, 74, 81
1, 18960, Note_on_c, 0, 74, 0
1, 18960, Note_on_c, 0, 73, 82
1, 18972, Note_on_c, 0, 73, 0
1, 18972, Note_on_c, 0, 76, 82
1, 18984, Note_on_c, 0, 76, 0
1, 18984, Note_on_c, 0, 74, 83
1, 18996, Note_on_c, 0, 74, 0
1, 18996, Note_on_c, 0, 78, 83
1, 19008, Note_on_c, 0, 78, 0
1, 19008, Note_on_c, 0, 76, 124
1, 19008, Note_on_c, 1, 61, 108
1, 19008, Note_on_c, 1, 55, 108
1, 19008, Note_on_c, 1, 52, 108
1, 19020, Note_on_c, 0, 76, 0
1, 19020, Note_on_c, 0, 79, 84
1, 19032, Note_on_c, 0, 79, 0
1, 19032, Note_on_c, 0, 78, 84
1, 19044, Note_on_c, 0, 78, 0
1, 19044, Note_on_c, 0, 81, 84
1, 19056, Note_on_c, 0, 81, 0
1, 19056, Note_on_c, 0, 79, 84
1, 19068, Note_on_c, 0, 79, 0
1, 19068, Note_on_c, 0, 83, 84
1, 19080, Note_on_c, 0, 83, 0
1, 19080, Note_on_c, 0, 81, 84
1, 19092, Note_on_c, 0, 81, 0
1, 19092, Note_on_c, 0, 79, 84
1, 19097, Note_on_c, 1, 61, 0
1, 19097, Note_on_c, 1, 55, 0
1, 19097, Note_on_c, 1, 52, 0
1, 19104, Note_on_c, 0, 79, 0
1, 19104, Note_on_c, 0, 78, 124
1, 19104, Note_on_c, 1, 63, 108
1, 19104, Note_on_c, 1, 60, 108
1, 19104, Note_on_c, 1, 57, 108
1, 19104, Note_on_c, 1, 54, 108
1, 19116, Note_on_c, 0, 78, 0
1, 19116, Note_on_c, 0, 81, 84
1, 19128, Note_on_c, 0, 81, 0
1, 19128, Note_on_c, 0, 79, 84
1, 19140, Note_on_c, 0, 79, 0
1, 19140, Note_on_c, 0, 83, 84
1, 19152, Note_on_c, 0, 83, 0
1, 19152, Note_on_c, 0, 81, 84
1, 19164, Note_on_c, 0, 81, 0
1, 19164, Note_on_c, 0, 84, 84
1, 19176, Note_on_c, 0, 84, 0
1, 19176, Note_on_c, 0, 83, 84
1, 19188, Note_on_c, 0, 83, 0
1, 19188, Note_on_c, 0, 81, 84
1, 19193, Note_on_c, 1, 63, 0
1, 19193, Note_on_c, 1, 60, 0
1, 19193, Note_on_c, 1, 57, 0
1, 19193, Note_on_c, 1, 54, 0
1, 19200, Note_on_c, 0, 81, 0
1, 19200, Note_on_c, 0, 79, 124
1, 19200, Note_on_c, 1, 64, 108
1, 19200, Note_on_c, 1, 59, 108
1, 19200, Note_on_c, 1, 55, 108
1, 19212, Note_on_c, 0, 79, 0
1, 19212, Note_on_c, 0, 83, 84
1, 19224, Note_on_c, 0, 83, 0
1, 19224, Note_on_c, 0, 81, 84
1, 19236, Note_on_c, 0, 81, 0
1, 19236, Note_on_c, 0, 79, 84
1, 19248, Note_on_c, 0, 79, 0
1, 19248, Note_on_c, 0, 78, 84
1, 19260, Note_on_c, 0, 78, 0
1, 19260, Note_on_c, 0, 76, 84
1, 19272, Note_on_c, 0, 76, 0
1, 19272, Note_on_c, 0, 75, 84
1, 19284, Note_on_c, 0, 75, 0
1, 19284, Note_on_c, 0, 76, 84
1, 19289, Note_on_c, 1, 64, 0
1, 19289, Note_on_c, 1, 59, 0
1, 19289, Note_on_c, 1, 55, 0
1, 19296, Note_on_c, 0, 76, 0
1, 19296, Note_on_c, 1, 66, 108
1, 19296, Note_on_c, 1, 62, 108
1, 19296, Note_on_c, 1, 57, 108
1, 19308, Note_on_c, 0, 69, 79
1, 19320, Note_on_c, 0, 69, 0
1, 19320, Note_on_c, 0, 71, 78
1, 19332, Note_on_c, 0, 71, 0
1, 19332, Note_on_c, 0, 73, 77
1, 19344, Note_on_c, 0, 73, 0
1, 19344, Note_on_c, 0, 74, 76
1, 19356, Note_on_c, 0, 74, 0
1, 19356, Note_on_c, 0, 75, 75
1, 19368, Note_on_c, 0, 75, 0
1, 19368, Note_on_c, 0, 76, 74
1, 19380, Note_on_c, 0, 76, 0
1, 19380, Note_on_c, 0, 77, 73
1, 19392, Note_on_c, 0, 77, 0
1, 19392, Note_on_c, 0, 78, 73
1, 19404, Note_on_c, 0, 78, 0
1, 19404, Note_on_c, 0, 79, 72
1, 19416, Note_on_c, 0, 79, 0
1, 19416, Note_on_c, 0, 80, 71
1, 19428, Note_on_c, 0, 80, 0
1, 19428, Note_on_c, 0, 81, 70
1, 19440, Note_on_c, 0, 81, 0
1, 19440, Note_on_c, 0, 79, 69
1, 19452, Note_on_c, 0, 79, 0
1, 19452, Note_on_c, 0, 78, 68
1, 19464, Note_on_c, 0, 78, 0
1, 19464, Note_on_c, 0, 76, 67
1, 19473, Note_on_c, 1, 66, 0
1, 19473, Note_on_c, 1, 62, 0
1, 19473, Note_on_c, 1, 57, 0
1, 19476, Note_on_c, 0, 76, 0
1, 19476, Note_on_c, 0, 74, 66
1, 19488, Note_on_c, 0, 74, 0
1, 19488, Note_on_c, 0, 73, 66
1, 19488, Note_on_c, 1, 67, 66
1, 19488, Note_on_c, 1, 64, 66
1, 19488, Note_on_c, 1, 57, 66
1, 19508, Note_on_c, 0, 73, 0
1, 19533, Note_on_c, 1, 67, 0
1, 19533, Note_on_c, 1, 64, 0
1, 19533, Note_on_c, 1, 57, 0
1, 19536, Note_on_c, 0, 76, 66
1, 19536, Note_on_c, 0, 67, 66
1, 19556, Note_on_c, 0, 76, 0
1, 19556, Note_on_c, 0, 67, 0
1, 19584, Note_on_c, 0, 76, 66
1, 19584, Note_on_c, 0, 67, 66
1, 19584, Note_on_c, 1, 50, 66
1, 19680, Note_on_c, 0, 76, 0
1, 19680, Note_on_c, 0, 67, 0
1, 19680, Note_on_c, 0, 74, 66
1, 19680, Note_on_c, 0, 66, 66
1, 19680, Note_on_c, 1, 50, 0
1, 19680, Note_on_c, 1, 62, 66
1, 19725, Note_on_c, 0, 74, 0
1, 19725, Note_on_c, 0, 66, 0
1, 19725, Note_on_c, 1, 62, 0
1, 19848, Note_on_c, 0, 59, 66
1, 19856, Note_on_c, 0, 59, 0
1, 19856, Note_on_c, 0, 63, 66
1, 19864, Note_on_c, 0, 63, 0
1, 19864, Note_on_c, 0, 66, 66
1, 19872, Note_on_c, 0, 66, 0
1, 19872, Note_on_c, 0, 71, 66
1, 19939, Note_on_c, 0, 71, 0
1, 19944, Note_on_c, 0, 71, 66
1, 19967, Note_on_c, 0, 71, 0
1, 19968, Note_on_c, 0, 71, 66
1, 20013, Note_on_c, 0, 71, 0
1, 20016, Note_on_c, 1, 60, 66
1, 20040, Note_on_c, 1, 60, 0
1, 20040, Note_on_c, 1, 57, 66
1, 20063, Note_on_c, 1, 57, 0
1, 20064, Note_on_c, 1, 59, 66
1, 20088, Note_on_c, 1, 59, 0
1, 20088, Note_on_c, 1, 55, 66
1, 20111, Note_on_c, 1, 55, 0
1, 20112, Note_on_c, 1, 57, 66
1, 20136, Note_on_c, 0, 75, 66
1, 20136, Note_on_c, 1, 57, 0
1, 20136, Note_on_c, 1, 54, 66
1, 20159, Note_on_c, 0, 75, 0
1, 20159, Note_on_c, 1, 54, 0
1, 20160, Note_on_c, 0, 76, 66
1, 20160, Note_on_c, 1, 55, 66
1, 20183, Note_on_c, 0, 76, 0
1, 20184, Note_on_c, 0, 79, 66
1, 20205, Note_on_c, 1, 55, 0
1, 20207, Note_on_c, 0, 79, 0
1, 20208, Note_on_c, 0, 78, 66
1, 20231, Note_on_c, 0, 78, 0
1, 20232, Note_on_c, 0, 81, 66
1, 20255, Note_on_c, 0, 81, 0
1, 20256, Note_on_c, 0, 79, 66
1, 20301, Note_on_c, 0, 79, 0
1, 20304, Note_on_c, 1, 59, 66
1, 20328, Note_on_c, 1, 59, 0
1, 20328, Note_on_c, 1, 55, 66
1, 20351, Note_on_c, 1, 55, 0
1, 20352, Note_on_c, 1, 57, 66
1, 20376, Note_on_c, 1, 57, 0
1, 20376, Note_on_c, 1, 54, 66
1, 20399, Note_on_c, 1, 54, 0
1, 20400, Note_on_c, 1, 55, 66
1, 20424, Note_on_c, 0, 73, 66
1, 20424, Note_on_c, 1, 55, 0
1, 20424, Note_on_c, 1, 52, 66
1, 20447, Note_on_c, 0, 73, 0
1, 20447, Note_on_c, 1, 52, 0
1, 20448, Note_on_c, 0, 74, 66
1, 20448, Note_on_c, 1, 54, 66
1, 20471, Note_on_c, 0, 74, 0
1, 20472, Note_on_c, 0, 78, 68
1, 20493, Note_on_c, 1, 54, 0
1, 20495, Note_on_c, 0, 78, 0
1, 20496, Note_on_c, 0, 76, 70
1, 20519, Note_on_c, 0, 76, 0
1, 20520, Note_on_c, 0, 79, 73
1, 20543, Note_on_c, 0, 79, 0
1, 20544, Note_on_c, 0, 78, 75
1, 20567, Note_on_c, 0, 78, 0
1, 20568, Note_on_c, 0, 81, 77
1, 20568, Note_on_c, 1, 54, 80
1, 20591, Note_on_c, 0, 81, 0
1, 20591, Note_on_c, 1, 54, 0
1, 20592, Note_on_c, 0, 74, 80
1, 20592, Note_on_c, 1, 42, 80
1, 20615, Note_on_c, 0, 74, 0
1, 20615, Note_on_c, 1, 42, 0
1, 20616, Note_on_c, 0, 86, 80
1, 20616, Note_on_c, 1, 54, 80
1, 20639, Note_on_c, 0, 86, 0
1, 20639, Note_on_c, 1, 54, 0
1, 20640, Note_on_c, 0, 82, 80
1, 20640, Note_on_c, 1, 43, 80
1, 20663, Note_on_c, 1, 43, 0
1, 20664, Note_on_c, 0, 82, 0
1, 20664, Note_on_c, 0, 83, 80
1, 20664, Note_on_c, 1, 55, 80
1, 20687, Note_on_c, 0, 83, 0
1, 20687, Note_on_c, 1, 55, 0
1, 20688, Note_on_c, 0, 71, 80
1, 20688, Note_on_c, 1, 44, 80
1, 20711, Note_on_c, 0, 71, 0
1, 20711, Note_on_c, 1, 44, 0
1, 20712, Note_on_c, 0, 76, 80
1, 20712, Note_on_c, 1, 56, 80
1, 20735, Note_on_c, 0, 76, 0
1, 20735, Note_on_c, 1, 56, 0
1, 20736, Note_on_c, 0, 74, 80
1, 20760, Note_on_c, 1, 45, 80
1, 20783, Note_on_c, 1, 45, 0
1, 20784, Note_on_c, 1, 57, 80
1, 20807, Note_on_c, 1, 57, 0
1, 20808, Note_on_c, 1, 56, 80
1, 20831, Note_on_c, 1, 56, 0
1, 20832, Note_on_c, 0, 74, 0
1, 20832, Note_on_c, 0, 73, 80
1, 20832, Note_on_c, 1, 57, 80
1, 20838, Note_on_c, 0, 73, 0
1, 20838, Note_on_c, 0, 74, 80
1, 20842, Note_on_c, 1, 57, 0
1, 20844, Note_on_c, 0, 74, 0
1, 20844, Note_on_c, 0, 73, 80
1, 20856, Note_on_c, 1, 57, 80
1, 20879, Note_on_c, 0, 73, 0
1, 20879, Note_on_c, 1, 57, 0
1, 20880, Note_on_c, 1, 61, 80
1, 20903, Note_on_c, 1, 61, 0
1, 20904, Note_on_c, 1, 64, 80
1, 20927, Note_on_c, 1, 64, 0
1, 20928, Note_on_c, 1, 69, 80
1, 20951, Note_on_c, 1, 69, 0
1, 20952, Note_on_c, 1, 66, 76
1, 20975, Note_on_c, 1, 66, 0
1, 20976, Note_on_c, 1, 67, 73
1, 20999, Note_on_c, 1, 67, 0
1, 21000, Note_on_c, 0, 69, 66
1, 21000, Note_on_c, 1, 64, 69
1, 21023, Note_on_c, 0, 69, 0
1, 21023, Note_on_c, 1, 64, 0
1, 21024, Note_on_c, 0, 74, 66
1, 21024, Note_on_c, 1, 66, 66
1, 21024, Note_on_c, 1, 62, 66
1, 21069, Note_on_c, 1, 66, 0
1, 21069, Note_on_c, 1, 62, 0
1, 21091, Note_on_c, 0, 74, 0
1, 21096, Note_on_c, 0, 74, 66
1, 21106, Note_on_c, 0, 74, 0
1, 21120, Note_on_c, 0, 74, 66
1, 21120, Note_on_c, 1, 66, 66
1, 21120, Note_on_c, 1, 62, 66
1, 21130, Note_on_c, 0, 74, 0
1, 21144, Note_on_c, 0, 76, 67
1, 21154, Note_on_c, 0, 76, 0
1, 21165, Note_on_c, 1, 66, 0
1, 21165, Note_on_c, 1, 62, 0
1, 21168, Note_on_c, 0, 78, 69
1, 21178, Note_on_c, 0, 78, 0
1, 21192, Note_on_c, 0, 79, 71
1, 21202, Note_on_c, 0, 79, 0
1, 21216, Note_on_c, 0, 81, 73
1, 21226, Note_on_c, 0, 81, 0
1, 21240, Note_on_c, 0, 83, 74
1, 21250, Note_on_c, 0, 83, 0
1, 21264, Note_on_c, 0, 85, 76
1, 21274, Note_on_c, 0, 85, 0
1, 21288, Note_on_c, 0, 86, 78
1, 21298, Note_on_c, 0, 86, 0
1, 21312, Note_on_c, 0, 76, 80
1, 21312, Note_on_c, 1, 67, 80
1, 21312, Note_on_c, 1, 62, 80
1, 21384, Note_on_c, 0, 76, 0
1, 21384, Note_on_c, 0, 73, 80
1, 21407, Note_on_c, 0, 73, 0
1, 21408, Note_on_c, 0, 74, 80
1, 21408, Note_on_c, 1, 67, 0
1, 21408, Note_on_c, 1, 66, 80
1, 21428, Note_on_c, 0, 74, 0
1, 21453, Note_on_c, 1, 66, 0
1, 21453, Note_on_c, 1, 62, 0
1, 21504, Note_on_c, 0, 62, 80
1, 21512, Note_on_c, 0, 62, 0
1, 21512, Note_on_c, 0, 64, 80
1, 21520, Note_on_c, 0, 64, 0
1, 21520, Note_on_c, 0, 66, 80
1, 21528, Note_on_c, 0, 66, 0
1, 21528, Note_on_c, 0, 67, 80
1, 21536, Note_on_c, 0, 67, 0
1, 21536, Note_on_c, 0, 69, 80
1, 21544, Note_on_c, 0, 69, 0
1, 21544, Note_on_c, 0, 71, 80
1, 21552, Note_on_c, 0, 71, 0
1, 21552, Note_on_c, 0, 73, 80
1, 21560, Note_on_c, 0, 73, 0
1, 21560, Note_on_c, 0, 74, 80
1, 21568, Note_on_c, 0, 74, 0
1, 21568, Note_on_c, 0, 76, 80
1, 21576, Note_on_c, 0, 76, 0
1, 21576, Note_on_c, 0, 78, 80
1, 21584, Note_on_c, 0, 78, 0
1, 21584, Note_on_c, 0, 79, 80
1, 21592, Note_on_c, 0, 79, 0
1, 21592, Note_on_c, 0, 81, 80
1, 21600, Note_on_c, 0, 81, 0
1, 21600, Note_on_c, 0, 81, 120
1, 21600, Note_on_c, 1, 74, 80
1, 21600, Note_on_c, 1, 71, 80
1, 21620, Note_on_c, 1, 74, 0
1, 21620, Note_on_c, 1, 71, 0
1, 21648, Note_on_c, 0, 81, 0
1, 21648, Note_on_c, 0, 79, 80
1, 21658, Note_on_c, 0, 79, 0
1, 21684, Note_on_c, 0, 78, 80
1, 21684, Note_on_c, 1, 73, 80
1, 21684, Note_on_c, 1, 69, 80
1, 21689, Note_on_c, 1, 73, 0
1, 21689, Note_on_c, 1, 69, 0
1, 21696, Note_on_c, 0, 78, 0
1, 21696, Note_on_c, 0, 78, 120
1, 21696, Note_on_c, 1, 71, 80
1, 21696, Note_on_c, 1, 67, 80
1, 21716, Note_on_c, 1, 71, 0
1, 21716, Note_on_c, 1, 67, 0
1, 21744, Note_on_c, 0, 78, 0
1, 21744, Note_on_c, 0, 76, 80
1, 21754, Note_on_c, 0, 76, 0
1, 21780, Note_on_c, 0, 74, 80
1, 21780, Note_on_c, 1, 69, 80
1, 21780, Note_on_c, 1, 66, 80
1, 21785, Note_on_c, 1, 69, 0
1, 21785, Note_on_c, 1, 66, 0
1, 21792, Note_on_c, 0, 74, 0
1, 21792, Note_on_c, 0, 74, 120
1, 21792, Note_on_c, 1, 67, 80
1, 21792, Note_on_c, 1, 64, 80
1, 21812, Note_on_c, 1, 67, 0
1, 21812, Note_on_c, 1, 64, 0
1, 21840, Note_on_c, 0, 74, 0
1, 21840, Note_on_c, 0, 73, 80
1, 21850, Note_on_c, 0, 73, 0
1, 21876, Note_on_c, 0, 74, 80
1, 21876, Note_on_c, 1, 66, 80
1, 21876, Note_on_c, 1, 62, 80
1, 21888, Note_on_c, 0, 74, 0
1, 21888, Note_on_c, 0, 79, 80
1, 21888, Note_on_c, 1, 66, 0
1, 21888, Note_on_c, 1, 62, 0
1, 21888, Note_on_c, 1, 62, 80
1, 21888, Note_on_c, 1, 57, 80
1, 21894, Note_on_c, 0, 79, 0
1, 21894, Note_on_c, 0, 78, 80
1, 21900, Note_on_c, 0, 78, 0
1, 21900, Note_on_c, 0, 76, 80
1, 21906, Note_on_c, 0, 76, 0
1, 21906, Note_on_c, 0, 78, 80
1, 21922, Note_on_c, 0, 78, 0
1, 21924, Note_on_c, 0, 79, 80
1, 21936, Note_on_c, 0, 79, 0
1, 21936, Note_on_c, 0, 80, 80
1, 21970, Note_on_c, 0, 80, 0
1, 21972, Note_on_c, 0, 81, 80
1, 21984, Note_on_c, 0, 81, 0
1, 21984, Note_on_c, 0, 76, 80
1, 21984, Note_on_c, 1, 62, 0
1, 21984, Note_on_c, 1, 61, 80
1, 22004, Note_on_c, 0, 76, 0
1, 22029, Note_on_c, 1, 61, 0
1, 22029, Note_on_c, 1, 57, 0
1, 22152, Note_on_c, 0, 74, 80
1, 22160, Note_on_c, 0, 74, 0
1, 22160, Note_on_c, 0, 78, 80
1, 22168, Note_on_c, 0, 78, 0
1, 22168, Note_on_c, 0, 81, 80
1, 22176, Note_on_c, 0, 81, 0
1, 22176, Note_on_c, 0, 86, 80
1, 22176, Note_on_c, 1, 57, 84
1, 22176, Note_on_c, 1, 54, 84
1, 22176, Note_on_c, 1, 50, 84
1, 22196, Note_on_c, 0, 86, 0
1, 22224, Note_on_c, 0, 88, 80
1, 22230, Note_on_c, 0, 88, 0
1, 22230, Note_on_c, 0, 86, 80
1, 22236, Note_on_c, 0, 86, 0
1, 22236, Note_on_c, 0, 85, 80
1, 22242, Note_on_c, 0, 85, 0
1, 22242, Note_on_c, 0, 86, 80
1, 22258, Note_on_c, 0, 86, 0
1, 22260, Note_on_c, 0, 88, 80
1, 22265, Note_on_c, 1, 57, 0
1, 22265, Note_on_c, 1, 54, 0
1, 22265, Note_on_c, 1, 50, 0
1, 22272, Note_on_c, 0, 88, 0
1, 22272, Note_on_c, 0, 85, 80
1, 22272, Note_on_c, 1, 61, 84
1, 22272, Note_on_c, 1, 57, 84
1, 22272, Note_on_c, 1, 55, 84
1, 22272, Note_on_c, 1, 52, 84
1, 22319, Note_on_c, 0, 85, 0
1, 22361, Note_on_c, 1, 61, 0
1, 22361, Note_on_c, 1, 57, 0
1, 22361, Note_on_c, 1, 55, 0
1, 22361, Note_on_c, 1, 52, 0
1, 22368, Note_on_c, 0, 69, 80
1, 22380, Note_on_c, 0, 69, 0
1, 22380, Note_on_c, 0, 73, 80
1, 22392, Note_on_c, 0, 73, 0
1, 22392, Note_on_c, 0, 71, 81
1, 22404, Note_on_c, 0, 71, 0
1, 22404, Note_on_c, 0, 74, 81
1, 22416, Note_on_c, 0, 74, 0
1, 22416, Note_on_c, 0, 73, 82
1, 22428, Note_on_c, 0, 73, 0
1, 22428, Note_on_c, 0, 76, 82
1, 22440, Note_on_c, 0, 76, 0
1, 22440, Note_on_c, 0, 74, 83
1, 22452, Note_on_c, 0, 74, 0
1, 22452, Note_on_c, 0, 78, 83
1, 22464, Note_on_c, 0, 78, 0
1, 22464, Note_on_c, 0, 76, 124
1, 22464, Note_on_c, 1, 61, 108
1, 22464, Note_on_c, 1, 55, 108
1, 22464, Note_on_c, 1, 52, 108
1, 22476, Note_on_c, 0, 76, 0
1, 22476, Note_on_c, 0, 79, 84
1, 22488, Note_on_c, 0, 79, 0
1, 22488, Note_on_c, 0, 78, 84
1, 22500, Note_on_c, 0, 78, 0
1, 22500, Note_on_c, 0, 81, 84
1, 22512, Note_on_c, 0, 81, 0
1, 22512, Note_on_c, 0, 79, 84
1, 22524, Note_on_c, 0, 79, 0
1, 22524, Note_on_c, 0, 83, 84
1, 22536, Note_on_c, 0, 83, 0
1, 22536, Note_on_c, 0, 81, 84
1, 22548, Note_on_c, 0, 81, 0
1, 22548, Note_on_c, 0, 79, 84
1, 22553, Note_on_c, 1, 61, 0
1, 22553, Note_on_c, 1, 55, 0
1, 22553, Note_on_c, 1, 52, 0
1, 22560, Note_on_c, 0, 79, 0
1, 22560, Note_on_c, 0, 78, 124
1, 22560, Note_on_c, 1, 63, 108
1, 22560, Note_on_c, 1, 60, 108
1, 22560, Note_on_c, 1, 57, 108
1, 22560, Note_on_c, 1, 54, 108
1, 22572, Note_on_c, 0, 78, 0
1, 22572, Note_on_c, 0, 81, 84
1, 22584, Note_on_c, 0, 81, 0
1, 22584, Note_on_c, 0, 79, 84
1, 22596, Note_on_c, 0, 79, 0
1, 22596, Note_on_c, 0, 83, 84
1, 22608, Note_on_c, 0, 83, 0
1, 22608, Note_on_c, 0, 81, 84
1, 22620, Note_on_c, 0, 81, 0
1, 22620, Note_on_c, 0, 84, 84
1, 22632, Note_on_c, 0, 84, 0
1, 22632, Note_on_c, 0, 83, 84
1, 22644, Note_on_c, 0, 83, 0
1, 22644, Note_on_c, 0, 81, 84
1, 22649, Note_on_c, 1, 63, 0
1, 22649, Note_on_c, 1, 60, 0
1, 22649, Note_on_c, 1, 57, 0
1, 22649, Note_on_c, 1, 54, 0
1, 22656, Note_on_c, 0, 81, 0
1, 22656, Note_on_c, 0, 79, 124
1, 22656, Note_on_c, 1, 64, 108
1, 22656, Note_on_c, 1, 59, 108
1, 22656, Note_on_c, 1, 55, 108
1, 22668, Note_on_c, 0, 79, 0
1, 22668, Note_on_c, 0, 83, 84
1, 22680, Note_on_c, 0, 83, 0
1, 22680, Note_on_c, 0, 81, 84
1, 22692, Note_on_c, 0, 81, 0
1, 22692, Note_on_c, 0, 79, 84
1, 22704, Note_on_c, 0, 79, 0
1, 22704, Note_on_c, 0, 78, 84
1, 22716, Note_on_c, 0, 78, 0
1, 22716, Note_on_c, 0, 76, 84
1, 22728, Note_on_c, 0, 76, 0
1, 22728, Note_on_c, 0, 75, 84
1, 22740, Note_on_c, 0, 75, 0
1, 22740, Note_on_c, 0, 76, 84
1, 22745, Note_on_c, 1, 64, 0
1, 22745, Note_on_c, 1, 59, 0
1, 22745, Note_on_c, 1, 55, 0
1, 22752, Note_on_c, 0, 76, 0
1, 22752, Note_on_c, 1, 66, 108
1, 22752, Note_on_c, 1, 62, 108
1, 22752, Note_on_c, 1, 57, 108
1, 22764, Note_on_c, 0, 69, 79
1, 22776, Note_on_c, 0, 69, 0
1, 22776, Note_on_c, 0, 71, 78
1, 22788, Note_on_c, 0, 71, 0
1, 22788, Note_on_c, 0, 73, 77
1, 22800, Note_on_c, 0, 73, 0
1, 22800, Note_on_c, 0, 74, 76
1, 22812, Note_on_c, 0, 74, 0
1, 22812, Note_on_c, 0, 75, 75
1, 22824, Note_on_c, 0, 75, 0
1, 22824, Note_on_c, 0, 76, 74
1, 22836, Note_on_c, 0, 76, 0
1, 22836, Note_on_c, 0, 77, 73
1, 22848, Note_on_c, 0, 77, 0
1, 22848, Note_on_c, 0, 78, 73
1, 22860, Note_on_c, 0, 78, 0
1, 22860, Note_on_c, 0, 79, 72
1, 22872, Note_on_c, 0, 79, 0
1, 22872, Note_on_c, 0, 80, 71
1, 22884, Note_on_c, 0, 80, 0
1, 22884, Note_on_c, 0, 81, 70
1, 22896, Note_on_c, 0, 81, 0
1, 22896, Note_on_c, 0, 79, 69
1, 22908, Note_on_c, 0, 79, 0
1, 22908, Note_on_c, 0, 78, 68
1, 22920, Note_on_c, 0, 78, 0
1, 22920, Note_on_c, 0, 76, 67
1, 22929, Note_on_c, 1, 66, 0
1, 22929, Note_on_c, 1, 62, 0
1, 22929, Note_on_c, 1, 57, 0
1, 22932, Note_on_c, 0, 76, 0
1, 22932, Note_on_c, 0, 74, 66
1, 22944, Note_on_c, 0, 74, 0
1, 22944, Note_on_c, 0, 73, 66
1, 22944, Note_on_c, 1, 67, 66
1, 22944, Note_on_c, 1, 64, 66
1, 22944, Note_on_c, 1, 57, 66
1, 22964, Note_on_c, 0, 73, 0
1, 22989, Note_on_c, 1, 67, 0
1, 22989, Note_on_c, 1, 64, 0
1, 22989, Note_on_c, 1, 57, 0
1, 22992, Note_on_c, 0, 76, 66
1, 22992, Note_on_c, 0, 67, 66
1, 23012, Note_on_c, 0, 76, 0
1, 23012, Note_on_c, 0, 67, 0
1, 23040, Note_on_c, 0, 76, 66
1, 23040, Note_on_c, 0, 67, 66
1, 23040, Note_on_c, 1, 50, 66
1, 23136, Note_on_c, 0, 76, 0
1, 23136, Note_on_c, 0, 67, 0
1, 23136, Note_on_c, 0, 74, 66
1, 23136, Note_on_c, 0, 66, 66
1, 23136, Note_on_c, 1, 50, 0
1, 23136, Note_on_c, 1, 62, 66
1, 23181, Note_on_c, 0, 74, 0
1, 23181, Note_on_c, 0, 66, 0
1, 23181, Note_on_c, 1, 62, 0
1, 23304, Note_on_c, 0, 69, 75
1, 23327, Note_on_c, 0, 69, 0
1, 23328, Note_on_c, 0, 74, 75
1, 23328, Note_on_c, 0, 65, 75
1, 23328, Note_on_c, 1, 62, 75
1, 23328, Note_on_c, 1, 57, 75
1, 23328, Note_on_c, 1, 53, 75
1, 23328, Note_on_c, 1, 50, 75
1, 23395, Note_on_c, 0, 74, 0
1, 23395, Note_on_c, 0, 65, 0
1, 23400, Note_on_c, 0, 74, 75
1, 23400, Note_on_c, 0, 65, 75
1, 23417, Note_on_c, 1, 62, 0
1, 23417, Note_on_c, 1, 57, 0
1, 23417, Note_on_c, 1, 53, 0
1, 23417, Note_on_c, 1, 50, 0
1, 23423, Note_on_c, 0, 74, 0
1, 23423, Note_on_c, 0, 65, 0
1, 23424, Note_on_c, 0, 74, 75
1, 23424, Note_on_c, 0, 65, 75
1, 23440, Note_on_c, 1, 62, 75
1, 23455, Note_on_c, 1, 62, 0
1, 23456, Note_on_c, 1, 60, 75
1, 23469, Note_on_c, 0, 74, 0
1, 23469, Note_on_c, 0, 65, 0
1, 23471, Note_on_c, 1, 60, 0
1, 23472, Note_on_c, 1, 58, 75
1, 23487, Note_on_c, 1, 58, 0
1, 23488, Note_on_c, 1, 57, 75
1, 23503, Note_on_c, 1, 57, 0
1, 23504, Note_on_c, 1, 55, 75
1, 23519, Note_on_c, 1, 55, 0
1, 23520, Note_on_c, 1, 53, 75
1, 23535, Note_on_c, 1, 53, 0
1, 23536, Note_on_c, 1, 52, 75
1, 23551, Note_on_c, 1, 52, 0
1, 23552, Note_on_c, 1, 50, 75
1, 23567, Note_on_c, 1, 50, 0
1, 23568, Note_on_c, 1, 48, 75
1, 23583, Note_on_c, 1, 48, 0
1, 23584, Note_on_c, 1, 46, 75
1, 23592, Note_on_c, 0, 74, 75
1, 23592, Note_on_c, 0, 74, 64
1, 23599, Note_on_c, 1, 46, 0
1, 23600, Note_on_c, 1, 45, 75
1, 23615, Note_on_c, 0, 74, 0
1, 23615, Note_on_c, 0, 74, 0
1, 23615, Note_on_c, 1, 45, 0
1, 23616, Note_on_c, 0, 76, 75
1, 23616, Note_on_c, 0, 74, 64
1, 23616, Note_on_c, 1, 43, 75
1, 23683, Note_on_c, 0, 76, 0
1, 23683, Note_on_c, 0, 74, 0
1, 23688, Note_on_c, 0, 76, 75
1, 23688, Note_on_c, 0, 74, 64
1, 23705, Note_on_c, 1, 43, 0
1, 23711, Note_on_c, 0, 76, 0
1, 23711, Note_on_c, 0, 74, 0
1, 23712, Note_on_c, 0, 76, 75
1, 23712, Note_on_c, 0, 74, 64
1, 23728, Note_on_c, 1, 55, 75
1, 23743, Note_on_c, 1, 55, 0
1, 23744, Note_on_c, 1, 57, 75
1, 23759, Note_on_c, 1, 57, 0
1, 23760, Note_on_c, 1, 58, 75
1, 23775, Note_on_c, 1, 58, 0
1, 23776, Note_on_c, 1, 60, 75
1, 23791, Note_on_c, 1, 60, 0
1, 23792, Note_on_c, 1, 62, 75
1, 23801, Note_on_c, 0, 76, 0
1, 23801, Note_on_c, 0, 74, 0
1, 23807, Note_on_c, 1, 62, 0
1, 23808, Note_on_c, 0, 76, 75
1, 23808, Note_on_c, 0, 73, 64
1, 23808, Note_on_c, 1, 64, 75
1, 23823, Note_on_c, 1, 64, 0
1, 23824, Note_on_c, 1, 65, 75
1, 23839, Note_on_c, 1, 65, 0
1, 23840, Note_on_c, 1, 67, 75
1, 23853, Note_on_c, 0, 76, 0
1, 23853, Note_on_c, 0, 73, 0
1, 23855, Note_on_c, 1, 67, 0
1, 23856, Note_on_c, 0, 79, 75
1, 23856, Note_on_c, 0, 76, 64
1, 23856, Note_on_c, 1, 57, 75
1, 23871, Note_on_c, 1, 57, 0
1, 23872, Note_on_c, 1, 59, 75
1, 23887, Note_on_c, 1, 59, 0
1, 23888, Note_on_c, 1, 61, 75
1, 23901, Note_on_c, 0, 79, 0
1, 23901, Note_on_c, 0, 76, 0
1, 23903, Note_on_c, 1, 61, 0
1, 23904, Note_on_c, 0, 77, 75
1, 23904, Note_on_c, 0, 76, 64
1, 23904, Note_on_c, 1, 62, 75
1, 23919, Note_on_c, 1, 62, 0
1, 23920, Note_on_c, 1, 64, 75
1, 23935, Note_on_c, 1, 64, 0
1, 23936, Note_on_c, 1, 65, 75
1, 23949, Note_on_c, 0, 76, 0
1, 23951, Note_on_c, 1, 65, 0
1, 23952, Note_on_c, 0, 74, 64
1, 23952, Note_on_c, 1, 58, 75
1, 23967, Note_on_c, 1, 58, 0
1, 23968, Note_on_c, 1, 60, 75
1, 23983, Note_on_c, 1, 60, 0
1, 23984, Note_on_c, 1, 62, 75
1, 23993, Note_on_c, 0, 77, 0
1, 23997, Note_on_c, 0, 74, 0
1, 23999, Note_on_c, 1, 62, 0
1, 24000, Note_on_c, 0, 82, 75
1, 24000, Note_on_c, 0, 74, 64
1, 24000, Note_on_c, 1, 55, 75
1, 24015, Note_on_c, 1, 55, 0
1, 24016, Note_on_c, 1, 57, 75
1, 24031, Note_on_c, 1, 57, 0
1, 24032, Note_on_c, 1, 58, 75
1, 24047, Note_on_c, 1, 58, 0
1, 24048, Note_on_c, 1, 52, 75
1, 24063, Note_on_c, 1, 52, 0
1, 24064, Note_on_c, 1, 53, 75
1, 24079, Note_on_c, 1, 53, 0
1, 24080, Note_on_c, 1, 55, 75
1, 24089, Note_on_c, 0, 82, 0
1, 24089, Note_on_c, 0, 74, 0
1, 24095, Note_on_c, 1, 55, 0
1, 24096, Note_on_c, 0, 82, 91
1, 24096, Note_on_c, 0, 79, 91
1, 24096, Note_on_c, 0, 76, 91
1, 24096, Note_on_c, 1, 48, 75
1, 24111, Note_on_c, 1, 48, 0
1, 24112, Note_on_c, 1, 52, 75
1, 24127, Note_on_c, 1, 52, 0
1, 24128, Note_on_c, 1, 55, 75
1, 24143, Note_on_c, 1, 55, 0
1, 24144, Note_on_c, 1, 60, 75
1, 24159, Note_on_c, 1, 60, 0
1, 24160, Note_on_c, 1, 64, 75
1, 24175, Note_on_c, 1, 64, 0
1, 24176, Note_on_c, 1, 60, 75
1, 24191, Note_on_c, 1, 60, 0
1, 24192, Note_on_c, 0, 82, 0
1, 24192, Note_on_c, 0, 79, 0
1, 24192, Note_on_c, 0, 76, 0
1, 24192, Note_on_c, 0, 81, 75
1, 24192, Note_on_c, 1, 65, 75
1, 24207, Note_on_c, 0, 81, 0
1, 24208, Note_on_c, 0, 84, 75
1, 24223, Note_on_c, 0, 84, 0
1, 24224, Note_on_c, 0, 82, 75
1, 24239, Note_on_c, 0, 82, 0
1, 24240, Note_on_c, 0, 81, 75
1, 24255, Note_on_c, 0, 81, 0
1, 24256, Note_on_c, 0, 79, 75
1, 24271, Note_on_c, 0, 79, 0
1, 24272, Note_on_c, 0, 77, 75
1, 24281, Note_on_c, 1, 65, 0
1, 24287, Note_on_c, 0, 77, 0
1, 24288, Note_on_c, 0, 76, 75
1, 24288, Note_on_c, 1, 67, 75
1, 24303, Note_on_c, 0, 76, 0
1, 24304, Note_on_c, 0, 82, 75
1, 24319, Note_on_c, 0, 82, 0
1, 24320, Note_on_c, 0, 81, 75
1, 24335, Note_on_c, 0, 81, 0
1, 24336, Note_on_c, 0, 79, 75
1, 24351, Note_on_c, 0, 79, 0
1, 24352, Note_on_c, 0, 77, 75
1, 24367, Note_on_c, 0, 77, 0
1, 24368, Note_on_c, 0, 76, 75
1, 24377, Note_on_c, 1, 67, 0
1, 24383, Note_on_c, 0, 76, 0
1, 24384, Note_on_c, 0, 77, 75
1, 24384, Note_on_c, 1, 69, 75
1, 24399, Note_on_c, 0, 77, 0
1, 24400, Note_on_c, 0, 79, 75
1, 24415, Note_on_c, 0, 79, 0
1, 24416, Note_on_c, 0, 77, 75
1, 24431, Note_on_c, 0, 77, 0
1, 24432, Note_on_c, 0, 75, 75
1, 24447, Note_on_c, 0, 75, 0
1, 24448, Note_on_c, 0, 74, 75
1, 24463, Note_on_c, 0, 74, 0
1, 24464, Note_on_c, 0, 73, 75
1, 24473, Note_on_c, 1, 69, 0
1, 24479, Note_on_c, 0, 73, 0
1, 24480, Note_on_c, 0, 74, 75
1, 24480, Note_on_c, 1, 70, 75
1, 24495, Note_on_c, 0, 74, 0
1, 24496, Note_on_c, 0, 85, 75
1, 24512, Note_on_c, 0, 85, 0
1, 24512, Note_on_c, 0, 86, 75
1, 24527, Note_on_c, 0, 86, 0
1, 24528, Note_on_c, 0, 81, 75
1, 24544, Note_on_c, 0, 81, 0
1, 24544, Note_on_c, 0, 82, 75
1, 24559, Note_on_c, 0, 82, 0
1, 24560, Note_on_c, 0, 79, 75
1, 24569, Note_on_c, 1, 70, 0
1, 24576, Note_on_c, 0, 79, 0
1, 24576, Note_on_c, 0, 77, 75
1, 24576, Note_on_c, 1, 69, 75
1, 24591, Note_on_c, 0, 77, 0
1, 24592, Note_on_c, 0, 84, 75
1, 24607, Note_on_c, 0, 84, 0
1, 24608, Note_on_c, 0, 84, 75
1, 24623, Note_on_c, 0, 84, 0
1, 24624, Note_on_c, 0, 84, 75
1, 24639, Note_on_c, 0, 84, 0
1, 24640, Note_on_c, 0, 81, 75
1, 24655, Note_on_c, 0, 81, 0
1, 24656, Note_on_c, 0, 77, 75
1, 24665, Note_on_c, 1, 69, 0
1, 24671, Note_on_c, 0, 77, 0
1, 24672, Note_on_c, 0, 81, 75
1, 24672, Note_on_c, 1, 70, 75
1, 24680, Note_on_c, 0, 81, 0
1, 24680, Note_on_c, 0, 79, 75
1, 24688, Note_on_c, 0, 79, 0
1, 24688, Note_on_c, 0, 81, 75
1, 24696, Note_on_c, 0, 81, 0
1, 24696, Note_on_c, 0, 79, 75
1, 24704, Note_on_c, 0, 79, 0
1, 24704, Note_on_c, 0, 81, 75
1, 24712, Note_on_c, 0, 81, 0
1, 24712, Note_on_c, 0, 79, 75
1, 24720, Note_on_c, 0, 79, 0
1, 24720, Note_on_c, 0, 81, 75
1, 24728, Note_on_c, 0, 81, 0
1, 24728, Note_on_c, 0, 79, 75
1, 24736, Note_on_c, 0, 79, 0
1, 24736, Note_on_c, 0, 81, 75
1, 24744, Note_on_c, 0, 81, 0
1, 24744, Note_on_c, 0, 79, 75
1, 24752, Note_on_c, 0, 79, 0
1, 24752, Note_on_c, 0, 77, 75
1, 24760, Note_on_c, 0, 77, 0
1, 24760, Note_on_c, 0, 79, 75
1, 24761, Note_on_c, 1, 70, 0
1, 24768, Note_on_c, 0, 79, 0
1, 24768, Note_on_c, 0, 89, 75
1, 24768, Note_on_c, 1, 74, 75
1, 24783, Note_on_c, 0, 89, 0
1, 24784, Note_on_c, 0, 81, 75
1, 24800, Note_on_c, 0, 81, 0
1, 24800, Note_on_c, 0, 82, 75
1, 24815, Note_on_c, 0, 82, 0
1, 24816, Note_on_c, 0, 88, 75
1, 24816, Note_on_c, 1, 74, 0
1, 24816, Note_on_c, 1, 72, 75
1, 24831, Note_on_c, 0, 88, 0
1, 24832, Note_on_c, 0, 80, 75
1, 24848, Note_on_c, 0, 80, 0
1, 24848, Note_on_c, 0, 81, 75
1, 24861, Note_on_c, 1, 72, 0
1, 24863, Note_on_c, 0, 81, 0
1, 24864, Note_on_c, 0, 86, 75
1, 24864, Note_on_c, 1, 70, 75
1, 24879, Note_on_c, 0, 86, 0
1, 24880, Note_on_c, 0, 78, 75
1, 24896, Note_on_c, 0, 78, 0
1, 24896, Note_on_c, 0, 79, 75
1, 24909, Note_on_c, 1, 70, 0
1, 24911, Note_on_c, 0, 79, 0
1, 24912, Note_on_c, 0, 84, 75
1, 24912, Note_on_c, 1, 69, 75
1, 24927, Note_on_c, 0, 84, 0
1, 24928, Note_on_c, 0, 76, 75
1, 24944, Note_on_c, 0, 76, 0
1, 24944, Note_on_c, 0, 77, 75
1, 24957, Note_on_c, 1, 69, 0
1, 24959, Note_on_c, 0, 77, 0
1, 24960, Note_on_c, 0, 82, 75
1, 24960, Note_on_c, 1, 67, 75
1, 24975, Note_on_c, 0, 82, 0
1, 24976, Note_on_c, 0, 79, 75
1, 24991, Note_on_c, 0, 79, 0
1, 24992, Note_on_c, 0, 76, 75
1, 25005, Note_on_c, 1, 67, 0
1, 25007, Note_on_c, 0, 76, 0
1, 25008, Note_on_c, 0, 72, 75
1, 25008, Note_on_c, 1, 64, 75
1, 25023, Note_on_c, 0, 72, 0
1, 25024, Note_on_c, 0, 74, 75
1, 25039, Note_on_c, 0, 74, 0
1, 25040, Note_on_c, 0, 70, 75
1, 25053, Note_on_c, 1, 64, 0
1, 25055, Note_on_c, 0, 70, 0
1, 25056, Note_on_c, 0, 69, 75
1, 25056, Note_on_c, 1, 65, 75
1, 25071, Note_on_c, 0, 69, 0
1, 25072, Note_on_c, 0, 77, 75
1, 25087, Note_on_c, 0, 77, 0
1, 25088, Note_on_c, 0, 73, 75
1, 25101, Note_on_c, 1, 65, 0
1, 25103, Note_on_c, 0, 73, 0
1, 25104, Note_on_c, 0, 74, 75
1, 25104, Note_on_c, 1, 58, 75
1, 25119, Note_on_c, 0, 74, 0
1, 25120, Note_on_c, 0, 70, 75
1, 25135, Note_on_c, 0, 70, 0
1, 25136, Note_on_c, 0, 67, 75
1, 25149, Note_on_c, 1, 58, 0
1, 25151, Note_on_c, 0, 67, 0
1, 25152, Note_on_c, 0, 65, 75
1, 25152, Note_on_c, 1, 57, 75
1, 25167, Note_on_c, 0, 65, 0
1, 25168, Note_on_c, 0, 72, 75
1, 25175, Note_on_c, 0, 72, 0
1, 25184, Note_on_c, 0, 72, 75
1, 25191, Note_on_c, 0, 72, 0
1, 25200, Note_on_c, 0, 72, 75
1, 25207, Note_on_c, 0, 72, 0
1, 25216, Note_on_c, 0, 69, 75
1, 25231, Note_on_c, 0, 69, 0
1, 25232, Note_on_c, 0, 65, 75
1, 25241, Note_on_c, 1, 57, 0
1, 25247, Note_on_c, 0, 65, 0
1, 25248, Note_on_c, 0, 69, 75
1, 25248, Note_on_c, 1, 58, 75
1, 25256, Note_on_c, 0, 69, 0
1, 25256, Note_on_c, 0, 67, 75
1, 25264, Note_on_c, 0, 67, 0
1, 25264, Note_on_c, 0, 69, 75
1, 25272, Note_on_c, 0, 69, 0
1, 25272, Note_on_c, 0, 67, 75
1, 25280, Note_on_c, 0, 67, 0
1, 25280, Note_on_c, 0, 69, 75
1, 25288, Note_on_c, 0, 69, 0
1, 25288, Note_on_c, 0, 67, 75
1, 25296, Note_on_c, 0, 67, 0
1, 25296, Note_on_c, 0, 69, 75
1, 25304, Note_on_c, 0, 69, 0
1, 25304, Note_on_c, 0, 67, 75
1, 25312, Note_on_c, 0, 67, 0
1, 25312, Note_on_c, 0, 69, 75
1, 25320, Note_on_c, 0, 69, 0
1, 25320, Note_on_c, 0, 67, 75
1, 25328, Note_on_c, 0, 67, 0
1, 25328, Note_on_c, 0, 65, 75
1, 25336, Note_on_c, 0, 65, 0
1, 25336, Note_on_c, 0, 67, 75
1, 25337, Note_on_c, 1, 58, 0
1, 25344, Note_on_c, 0, 67, 0
1, 25344, Note_on_c, 0, 65, 75
1, 25344, Note_on_c, 1, 41, 75
1, 25359, Note_on_c, 1, 41, 0
1, 25360, Note_on_c, 1, 45, 75
1, 25375, Note_on_c, 1, 45, 0
1, 25376, Note_on_c, 1, 48, 75
1, 25391, Note_on_c, 1, 48, 0
1, 25392, Note_on_c, 1, 53, 75
1, 25407, Note_on_c, 1, 53, 0
1, 25408, Note_on_c, 1, 57, 75
1, 25423, Note_on_c, 1, 57, 0
1, 25424, Note_on_c, 1, 53, 75
1, 25433, Note_on_c, 0, 65, 0
1, 25439, Note_on_c, 1, 53, 0
1, 25440, Note_on_c, 1, 48, 75
1, 25455, Note_on_c, 1, 48, 0
1, 25456, Note_on_c, 1, 53, 75
1, 25471, Note_on_c, 1, 53, 0
1, 25472, Note_on_c, 1, 48, 75
1, 25487, Note_on_c, 1, 48, 0
1, 25488, Note_on_c, 1, 45, 75
1, 25503, Note_on_c, 1, 45, 0
1, 25504, Note_on_c, 1, 48, 75
1, 25519, Note_on_c, 1, 48, 0
1, 25520, Note_on_c, 1, 45, 75
1, 25535, Note_on_c, 1, 45, 0
1, 25536, Note_on_c, 1, 41, 75
1, 25581, Note_on_c, 1, 41, 0
1, 25608, Note_on_c, 0, 69, 75
1, 25631, Note_on_c, 0, 69, 0
1, 25632, Note_on_c, 0, 74, 75
1, 25632, Note_on_c, 0, 65, 75
1, 25632, Note_on_c, 1, 62, 75
1, 25632, Note_on_c, 1, 57, 75
1, 25632, Note_on_c, 1, 53, 75
1, 25632, Note_on_c, 1, 50, 75
1, 25699, Note_on_c, 0, 74, 0
1, 25699, Note_on_c, 0, 65, 0
1, 25704, Note_on_c, 0, 74, 75
1, 25704, Note_on_c, 0, 65, 75
1, 25721, Note_on_c, 1, 62, 0
1, 25721, Note_on_c, 1, 57, 0
1, 25721, Note_on_c, 1, 53, 0
1, 25721, Note_on_c, 1, 50, 0
1, 25727, Note_on_c, 0, 74, 0
1, 25727, Note_on_c, 0, 65, 0
1, 25728, Note_on_c, 0, 74, 75
1, 25728, Note_on_c, 0, 65, 75
1, 25744, Note_on_c, 1, 62, 75
1, 25759, Note_on_c, 1, 62, 0
1, 25760, Note_on_c, 1, 60, 75
1, 25773, Note_on_c, 0, 74, 0
1, 25773, Note_on_c, 0, 65, 0
1, 25775, Note_on_c, 1, 60, 0
1, 25776, Note_on_c, 1, 58, 75
1, 25791, Note_on_c, 1, 58, 0
1, 25792, Note_on_c, 1, 57, 75
1, 25807, Note_on_c, 1, 57, 0
1, 25808, Note_on_c, 1, 55, 75
1, 25823, Note_on_c, 1, 55, 0
1, 25824, Note_on_c, 1, 53, 75
1, 25839, Note_on_c, 1, 53, 0
1, 25840, Note_on_c, 1, 52, 75
1, 25855, Note_on_c, 1, 52, 0
1, 25856, Note_on_c, 1, 50, 75
1, 25871, Note_on_c, 1, 50, 0
1, 25872, Note_on_c, 1, 48, 75
1, 25887, Note_on_c, 1, 48, 0
1, 25888, Note_on_c, 1, 46, 75
1, 25896, Note_on_c, 0, 74, 75
1, 25896, Note_on_c, 0, 74, 64
1, 25903, Note_on_c, 1, 46, 0
1, 25904, Note_on_c, 1, 45, 75
1, 25919, Note_on_c, 0, 74, 0
1, 25919, Note_on_c, 0, 74, 0
1, 25919, Note_on_c, 1, 45, 0
1, 25920, Note_on_c, 0, 76, 75
1, 25920, Note_on_c, 0, 74, 64
1, 25920, Note_on_c, 1, 43, 75
1, 25987, Note_on_c, 0, 76, 0
1, 25987, Note_on_c, 0, 74, 0
1, 25992, Note_on_c, 0, 76, 75
1, 25992, Note_on_c, 0, 74, 64
1, 26009, Note_on_c, 1, 43, 0
1, 26015, Note_on_c, 0, 76, 0
1, 26015, Note_on_c, 0, 74, 0
1, 26016, Note_on_c, 0, 76, 75
1, 26016, Note_on_c, 0, 74, 64
1, 26032, Note_on_c, 1, 55, 75
1, 26047, Note_on_c, 1, 55, 0
1, 26048, Note_on_c, 1, 57, 75
1, 26063, Note_on_c, 1, 57, 0
1, 26064, Note_on_c, 1, 58, 75
1, 26079, Note_on_c, 1, 58, 0
1, 26080, Note_on_c, 1, 60, 75
1, 26095, Note_on_c, 1, 60, 0
1, 26096, Note_on_c, 1, 62, 75
1, 26105, Note_on_c, 0, 76, 0
1, 26105, Note_on_c, 0, 74, 0
1, 26111, Note_on_c, 1, 62, 0
1, 26112, Note_on_c, 0, 76, 75
1, 26112, Note_on_c, 0, 73, 64
1, 26112, Note_on_c, 1, 64, 75
1, 26127, Note_on_c, 1, 64, 0
1, 26128, Note_on_c, 1, 65, 75
1, 26143, Note_on_c, 1, 65, 0
1, 26144, Note_on_c, 1, 67, 75
1, 26157, Note_on_c, 0, 76, 0
1, 26157, Note_on_c, 0, 73, 0
1, 26159, Note_on_c, 1, 67, 0
1, 26160, Note_on_c, 0, 79, 75
1, 26160, Note_on_c, 0, 76, 64
1, 26160, Note_on_c, 1, 57, 75
1, 26175, Note_on_c, 1, 57, 0
1, 26176, Note_on_c, 1, 59, 75
1, 26191, Note_on_c, 1, 59, 0
1, 26192, Note_on_c, 1, 61, 75
1, 26205, Note_on_c, 0, 79, 0
1, 26205, Note_on_c, 0, 76, 0
1, 26207, Note_on_c, 1, 61, 0
1, 26208, Note_on_c, 0, 77, 75
1, 26208, Note_on_c, 0, 76, 64
1, 26208, Note_on_c, 1, 62, 75
1, 26223, Note_on_c, 1, 62, 0
1, 26224, Note_on_c, 1, 64, 75
1, 26239, Note_on_c, 1, 64, 0
1, 26240, Note_on_c, 1, 65, 75
1, 26253, Note_on_c, 0, 76, 0
1, 26255, Note_on_c, 1, 65, 0
1, 26256, Note_on_c, 0, 74, 64
1, 26256, Note_on_c, 1, 58, 75
1, 26271, Note_on_c, 1, 58, 0
1, 26272, Note_on_c, 1, 60, 75
1, 26287, Note_on_c, 1, 60, 0
1, 26288, Note_on_c, 1, 62, 75
1, 26297, Note_on_c, 0, 77, 0
1, 26301, Note_on_c, 0, 74, 0
1, 26303, Note_on_c, 1, 62, 0
1, 26304, Note_on_c, 0, 82, 75
1, 26304, Note_on_c, 0, 74, 64
1, 26304, Note_on_c, 1, 55, 75
1, 26319, Note_on_c, 1, 55, 0
1, 26320, Note_on_c, 1, 57, 75
1, 26335, Note_on_c, 1, 57, 0
1, 26336, Note_on_c, 1, 58, 75
1, 26351, Note_on_c, 1, 58, 0
1, 26352, Note_on_c, 1, 52, 75
1, 26367, Note_on_c, 1, 52, 0
1, 26368, Note_on_c, 1, 53, 75
1, 26383, Note_on_c, 1, 53, 0
1, 26384, Note_on_c, 1, 55, 75
1, 26393, Note_on_c, 0, 82, 0
1, 26393, Note_on_c, 0, 74, 0
1, 26399, Note_on_c, 1, 55, 0
1, 26400, Note_on_c, 0, 82, 91
1, 26400, Note_on_c, 0, 79, 91
1, 26400, Note_on_c, 0, 76, 91
1, 26400, Note_on_c, 1, 48, 75
1, 26415, Note_on_c, 1, 48, 0
1, 26416, Note_on_c, 1, 52, 75
1, 26431, Note_on_c, 1, 52, 0
1, 26432, Note_on_c, 1, 55, 75
1, 26447, Note_on_c, 1, 55, 0
1, 26448, Note_on_c, 1, 60, 75
1, 26463, Note_on_c, 1, 60, 0
1, 26464, Note_on_c, 1, 64, 75
1, 26479, Note_on_c, 1, 64, 0
1, 26480, Note_on_c, 1, 60, 75
1, 26495, Note_on_c, 1, 60, 0
1, 26496, Note_on_c, 0, 82, 0
1, 26496, Note_on_c, 0, 79, 0
1, 26496, Note_on_c, 0, 76, 0
1, 26496, Note_on_c, 0, 81, 75
1, 26496, Note_on_c, 1, 65, 75
1, 26511, Note_on_c, 0, 81, 0
1, 26512, Note_on_c, 0, 84, 75
1, 26527, Note_on_c, 0, 84, 0
1, 26528, Note_on_c, 0, 82, 75
1, 26543, Note_on_c, 0, 82, 0
1, 26544, Note_on_c, 0, 81, 75
1, 26559, Note_on_c, 0, 81, 0
1, 26560, Note_on_c, 0, 79, 75
1, 26575, Note_on_c, 0, 79, 0
1, 26576, Note_on_c, 0, 77, 75
1, 26585, Note_on_c, 1, 65, 0
1, 26591, Note_on_c, 0, 77, 0
1, 26592, Note_on_c, 0, 76, 75
1, 26592, Note_on_c, 1, 67, 75
1, 26607, Note_on_c, 0, 76, 0
1, 26608, Note_on_c, 0, 82, 75
1, 26623, Note_on_c, 0, 82, 0
1, 26624, Note_on_c, 0, 81, 75
1, 26639, Note_on_c, 0, 81, 0
1, 26640, Note_on_c, 0, 79, 75
1, 26655, Note_on_c, 0, 79, 0
1, 26656, Note_on_c, 0, 77, 75
1, 26671, Note_on_c, 0, 77, 0
1, 26672, Note_on_c, 0, 76, 75
1, 26681, Note_on_c, 1, 67, 0
1, 26687, Note_on_c, 0, 76, 0
1, 26688, Note_on_c, 0, 77, 75
1, 26688, Note_on_c, 1, 69, 75
1, 26703, Note_on_c, 0, 77, 0
1, 26704, Note_on_c, 0, 79, 75
1, 26719, Note_on_c, 0, 79, 0
1, 26720, Note_on_c, 0, 77, 75
1, 26735, Note_on_c, 0, 77, 0
1, 26736, Note_on_c, 0, 75, 75
1, 26751, Note_on_c, 0, 75, 0
1, 26752, Note_on_c, 0, 74, 75
1, 26767, Note_on_c, 0, 74, 0
1, 26768, Note_on_c, 0, 73, 75
1, 26777, Note_on_c, 1, 69, 0
1, 26783, Note_on_c, 0, 73, 0
1, 26784, Note_on_c, 0, 74, 75
1, 26784, Note_on_c, 1, 70, 75
1, 26799, Note_on_c, 0, 74, 0
1, 26800, Note_on_c, 0, 85, 75
1, 26816, Note_on_c, 0, 85, 0
1, 26816, Note_on_c, 0, 86, 75
1, 26831, Note_on_c, 0, 86, 0
1, 26832, Note_on_c, 0, 81, 75
1, 26848, Note_on_c, 0, 81, 0
1, 26848, Note_on_c, 0, 82, 75
1, 26863, Note_on_c, 0, 82, 0
1, 26864, Note_on_c, 0, 79, 75
1, 26873, Note_on_c, 1, 70, 0
1, 26880, Note_on_c, 0, 79, 0
1, 26880, Note_on_c, 0, 77, 75
1, 26880, Note_on_c, 1, 69, 75
1, 26895, Note_on_c, 0, 77, 0
1, 26896, Note_on_c, 0, 84, 75
1, 26911, Note_on_c, 0, 84, 0
1, 26912, Note_on_c, 0, 84, 75
1, 26927, Note_on_c, 0, 84, 0
1, 26928, Note_on_c, 0, 84, 75
1, 26943, Note_on_c, 0, 84, 0
1, 26944, Note_on_c, 0, 81, 75
1, 26959, Note_on_c, 0, 81, 0
1, 26960, Note_on_c, 0, 77, 75
1, 26969, Note_on_c, 1, 69, 0
1, 26975, Note_on_c, 0, 77, 0
1, 26976, Note_on_c, 0, 81, 75
1, 26976, Note_on_c, 1, 70, 75
1, 26984, Note_on_c, 0, 81, 0
1, 26984, Note_on_c, 0, 79, 75
1, 26992, Note_on_c, 0, 79, 0
1, 26992, Note_on_c, 0, 81, 75
1, 27000, Note_on_c, 0, 81, 0
1, 27000, Note_on_c, 0, 79, 75
1, 27008, Note_on_c, 0, 79, 0
1, 27008, Note_on_c, 0, 81, 75
1, 27016, Note_on_c, 0, 81, 0
1, 27016, Note_on_c, 0, 79, 75
1, 27024, Note_on_c, 0, 79, 0
1, 27024, Note_on_c, 0, 81, 75
1, 27032, Note_on_c, 0, 81, 0
1, 27032, Note_on_c, 0, 79, 75
1, 27040, Note_on_c, 0, 79, 0
1, 27040, Note_on_c, 0, 81, 75
1, 27048, Note_on_c, 0, 81, 0
1, 27048, Note_on_c, 0, 79, 75
1, 27056, Note_on_c, 0, 79, 0
1, 27056, Note_on_c, 0, 77, 75
1, 27064, Note_on_c, 0, 77, 0
1, 27064, Note_on_c, 0, 79, 75
1, 27065, Note_on_c, 1, 70, 0
1, 27072, Note_on_c, 0, 79, 0
1, 27072, Note_on_c, 0, 89, 75
1, 27072, Note_on_c, 1, 74, 75
1, 27087, Note_on_c, 0, 89, 0
1, 27088, Note_on_c, 0, 81, 75
1, 27104, Note_on_c, 0, 81, 0
1, 27104, Note_on_c, 0, 82, 75
1, 27119, Note_on_c, 0, 82, 0
1, 27120, Note_on_c, 0, 88, 75
1, 27120, Note_on_c, 1, 74, 0
1, 27120, Note_on_c, 1, 72, 75
1, 27135, Note_on_c, 0, 88, 0
1, 27136, Note_on_c, 0, 80, 75
1, 27152, Note_on_c, 0, 80, 0
1, 27152, Note_on_c, 0, 81, 75
1, 27165, Note_on_c, 1, 72, 0
1, 27167, Note_on_c, 0, 81, 0
1, 27168, Note_on_c, 0, 86, 75
1, 27168, Note_on_c, 1, 70, 75
1, 27183, Note_on_c, 0, 86, 0
1, 27184, Note_on_c, 0, 78, 75
1, 27200, Note_on_c, 0, 78, 0
1, 27200, Note_on_c, 0, 79, 75
1, 27213, Note_on_c, 1, 70, 0
1, 27215, Note_on_c, 0, 79, 0
1, 27216, Note_on_c, 0, 84, 75
1, 27216, Note_on_c, 1, 69, 75
1, 27231, Note_on_c, 0, 84, 0
1, 27232, Note_on_c, 0, 76, 75
1, 27248, Note_on_c, 0, 76, 0
1, 27248, Note_on_c, 0, 77, 75
1, 27261, Note_on_c, 1, 69, 0
1, 27263, Note_on_c, 0, 77, 0
1, 27264, Note_on_c, 0, 82, 75
1, 27264, Note_on_c, 1, 67, 75
1, 27279, Note_on_c, 0, 82, 0
1, 27280, Note_on_c, 0, 79, 75
1, 27295, Note_on_c, 0, 79, 0
1, 27296, Note_on_c, 0, 76, 75
1, 27309, Note_on_c, 1, 67, 0
1, 27311, Note_on_c, 0, 76, 0
1, 27312, Note_on_c, 0, 72, 75
1, 27312, Note_on_c, 1, 64, 75
1, 27327, Note_on_c, 0, 72, 0
1, 27328, Note_on_c, 0, 74, 75
1, 27343, Note_on_c, 0, 74, 0
1, 27344, Note_on_c, 0, 70, 75
1, 27357, Note_on_c, 1, 64, 0
1, 27359, Note_on_c, 0, 70, 0
1, 27360, Note_on_c, 0, 69, 75
1, 27360, Note_on_c, 1, 65, 75
1, 27375, Note_on_c, 0, 69, 0
1, 27376, Note_on_c, 0, 77, 75
1, 27391, Note_on_c, 0, 77, 0
1, 27392, Note_on_c, 0, 73, 75
1, 27405, Note_on_c, 1, 65, 0
1, 27407, Note_on_c, 0, 73, 0
1, 27408, Note_on_c, 0, 74, 75
1, 27408, Note_on_c, 1, 58, 75
1, 27423, Note_on_c, 0, 74, 0
1, 27424, Note_on_c, 0, 70, 75
1, 27439, Note_on_c, 0, 70, 0
1, 27440, Note_on_c, 0, 67, 75
1, 27453, Note_on_c, 1, 58, 0
1, 27455, Note_on_c, 0, 67, 0
1, 27456, Note_on_c, 0, 65, 75
1, 27456, Note_on_c, 1, 57, 75
1, 27471, Note_on_c, 0, 65, 0
1, 27472, Note_on_c, 0, 72, 75
1, 27479, Note_on_c, 0, 72, 0
1, 27488, Note_on_c, 0, 72, 75
1, 27495, Note_on_c, 0, 72, 0
1, 27504, Note_on_c, 0, 72, 75
1, 27511, Note_on_c, 0, 72, 0
1, 27520, Note_on_c, 0, 69, 75
1, 27535, Note_on_c, 0, 69, 0
1, 27536, Note_on_c, 0, 65, 75
1, 27545, Note_on_c, 1, 57, 0
1, 27551, Note_on_c, 0, 65, 0
1, 27552, Note_on_c, 0, 69, 75
1, 27552, Note_on_c, 1, 58, 75
1, 27560, Note_on_c, 0, 69, 0
1, 27560, Note_on_c, 0, 67, 75
1, 27568, Note_on_c, 0, 67, 0
1, 27568, Note_on_c, 0, 69, 75
1, 27576, Note_on_c, 0, 69, 0
1, 27576, Note_on_c, 0, 67, 75
1, 27584, Note_on_c, 0, 67, 0
1, 27584, Note_on_c, 0, 69, 75
1, 27592, Note_on_c, 0, 69, 0
1, 27592, Note_on_c, 0, 67, 75
1, 27600, Note_on_c, 0, 67, 0
1, 27600, Note_on_c, 0, 69, 75
1, 27608, Note_on_c, 0, 69, 0
1, 27608, Note_on_c, 0, 67, 75
1, 27616, Note_on_c, 0, 67, 0
1, 27616, Note_on_c, 0, 69, 75
1, 27624, Note_on_c, 0, 69, 0
1, 27624, Note_on_c, 0, 67, 75
1, 27632, Note_on_c, 0, 67, 0
1, 27632, Note_on_c, 0, 65, 75
1, 27640, Note_on_c, 0, 65, 0
1, 27640, Note_on_c, 0, 67, 75
1, 27641, Note_on_c, 1, 58, 0
1, 27648, Note_on_c, 0, 67, 0
1, 27648, Note_on_c, 0, 65, 75
1, 27648, Note_on_c, 1, 41, 75
1, 27663, Note_on_c, 1, 41, 0
1, 27664, Note_on_c, 1, 45, 75
1, 27679, Note_on_c, 1, 45, 0
1, 27680, Note_on_c, 1, 48, 75
1, 27695, Note_on_c, 1, 48, 0
1, 27696, Note_on_c, 1, 53, 75
1, 27711, Note_on_c, 1, 53, 0
1, 27712, Note_on_c, 1, 57, 75
1, 27727, Note_on_c, 1, 57, 0
1, 27728, Note_on_c, 1, 53, 75
1, 27737, Note_on_c, 0, 65, 0
1, 27743, Note_on_c, 1, 53, 0
1, 27744, Note_on_c, 1, 48, 75
1, 27759, Note_on_c, 1, 48, 0
1, 27760, Note_on_c, 1, 53, 75
1, 27775, Note_on_c, 1, 53, 0
1, 27776, Note_on_c, 1, 48, 75
1, 27791, Note_on_c, 1, 48, 0
1, 27792, Note_on_c, 1, 45, 75
1, 27807, Note_on_c, 1, 45, 0
1, 27808, Note_on_c, 1, 48, 75
1, 27823, Note_on_c, 1, 48, 0
1, 27824, Note_on_c, 1, 45, 75
1, 27839, Note_on_c, 1, 45, 0
1, 27840, Note_on_c, 1, 41, 75
1, 27885, Note_on_c, 1, 41, 0
1, 27912, Note_on_c, 1, 53, 75
1, 27935, Note_on_c, 1, 53, 0
1, 27936, Note_on_c, 1, 63, 75
1, 28003, Note_on_c, 1, 63, 0
1, 28008, Note_on_c, 0, 65, 75
1, 28008, Note_on_c, 1, 63, 75
1, 28031, Note_on_c, 0, 65, 0
1, 28031, Note_on_c, 1, 63, 0
1, 28032, Note_on_c, 0, 81, 75
1, 28032, Note_on_c, 0, 72, 75
1, 28032, Note_on_c, 1, 63, 75
1, 28099, Note_on_c, 0, 81, 0
1, 28099, Note_on_c, 0, 72, 0
1, 28104, Note_on_c, 0, 81, 75
1, 28104, Note_on_c, 0, 72, 75
1, 28121, Note_on_c, 1, 63, 0
1, 28127, Note_on_c, 0, 81, 0
1, 28127, Note_on_c, 0, 72, 0
1, 28128, Note_on_c, 0, 81, 75
1, 28128, Note_on_c, 0, 72, 75
1, 28200, Note_on_c, 1, 50, 75
1, 28217, Note_on_c, 0, 81, 0
1, 28217, Note_on_c, 0, 72, 0
1, 28223, Note_on_c, 1, 50, 0
1, 28224, Note_on_c, 1, 69, 75
1, 28224, Note_on_c, 1, 66, 75
1, 28291, Note_on_c, 1, 69, 0
1, 28291, Note_on_c, 1, 66, 0
1, 28296, Note_on_c, 0, 72, 75
1, 28296, Note_on_c, 1, 69, 75
1, 28296, Note_on_c, 1, 66, 75
1, 28319, Note_on_c, 0, 72, 0
1, 28319, Note_on_c, 1, 69, 0
1, 28319, Note_on_c, 1, 66, 0
1, 28320, Note_on_c, 0, 87, 75
1, 28320, Note_on_c, 0, 84, 75
1, 28320, Note_on_c, 1, 69, 75
1, 28320, Note_on_c, 1, 66, 75
1, 28387, Note_on_c, 0, 87, 0
1, 28387, Note_on_c, 0, 84, 0
1, 28392, Note_on_c, 0, 87, 75
1, 28392, Note_on_c, 0, 84, 75
1, 28415, Note_on_c, 0, 87, 0
1, 28415, Note_on_c, 0, 84, 0
1, 28416, Note_on_c, 0, 87, 75
1, 28416, Note_on_c, 0, 84, 75
1, 28453, Note_on_c, 1, 69, 0
1, 28453, Note_on_c, 1, 66, 0
1, 28464, Note_on_c, 1, 69, 66
1, 28464, Note_on_c, 1, 66, 66
1, 28483, Note_on_c, 0, 87, 0
1, 28483, Note_on_c, 0, 84, 0
1, 28488, Note_on_c, 0, 86, 66
1, 28500, Note_on_c, 0, 86, 0
1, 28500, Note_on_c, 0, 84, 66
1, 28509, Note_on_c, 1, 69, 0
1, 28509, Note_on_c, 1, 66, 0
1, 28512, Note_on_c, 0, 84, 0
1, 28512, Note_on_c, 0, 82, 66
1, 28512, Note_on_c, 1, 70, 66
1, 28512, Note_on_c, 1, 67, 66
1, 28527, Note_on_c, 0, 82, 0
1, 28528, Note_on_c, 0, 84, 66
1, 28543, Note_on_c, 0, 84, 0
1, 28544, Note_on_c, 0, 82, 66
1, 28557, Note_on_c, 1, 70, 0
1, 28557, Note_on_c, 1, 67, 0
1, 28559, Note_on_c, 0, 82, 0
1, 28560, Note_on_c, 0, 81, 66
1, 28560, Note_on_c, 1, 72, 66
1, 28560, Note_on_c, 1, 69, 66
1, 28575, Note_on_c, 0, 81, 0
1, 28576, Note_on_c, 0, 82, 66
1, 28591, Note_on_c, 0, 82, 0
1, 28592, Note_on_c, 0, 81, 66
1, 28605, Note_on_c, 1, 72, 0
1, 28605, Note_on_c, 1, 69, 0
1, 28607, Note_on_c, 0, 81, 0
1, 28608, Note_on_c, 0, 79, 66
1, 28608, Note_on_c, 1, 74, 66
1, 28608, Note_on_c, 1, 70, 66
1, 28623, Note_on_c, 0, 79, 0
1, 28624, Note_on_c, 0, 81, 66
1, 28639, Note_on_c, 0, 81, 0
1, 28640, Note_on_c, 0, 79, 66
1, 28653, Note_on_c, 1, 74, 0
1, 28653, Note_on_c, 1, 70, 0
1, 28655, Note_on_c, 0, 79, 0
1, 28656, Note_on_c, 0, 77, 66
1, 28656, Note_on_c, 1, 72, 66
1, 28656, Note_on_c, 1, 69, 66
1, 28671, Note_on_c, 0, 77, 0
1, 28672, Note_on_c, 0, 79, 66
1, 28687, Note_on_c, 0, 79, 0
1, 28688, Note_on_c, 0, 77, 66
1, 28701, Note_on_c, 1, 72, 0
1, 28701, Note_on_c, 1, 69, 0
1, 28703, Note_on_c, 0, 77, 0
1, 28704, Note_on_c, 0, 76, 66
1, 28704, Note_on_c, 1, 70, 66
1, 28704, Note_on_c, 1, 67, 66
1, 28719, Note_on_c, 0, 76, 0
1, 28720, Note_on_c, 0, 77, 66
1, 28735, Note_on_c, 0, 77, 0
1, 28736, Note_on_c, 0, 76, 66
1, 28749, Note_on_c, 1, 70, 0
1, 28749, Note_on_c, 1, 67, 0
1, 28751, Note_on_c, 0, 76, 0
1, 28752, Note_on_c, 0, 77, 66
1, 28752, Note_on_c, 1, 71, 66
1, 28752, Note_on_c, 1, 68, 66
1, 28767, Note_on_c, 0, 77, 0
1, 28768, Note_on_c, 0, 76, 66
1, 28783, Note_on_c, 0, 76, 0
1, 28784, Note_on_c, 0, 74, 66
1, 28797, Note_on_c, 1, 71, 0
1, 28797, Note_on_c, 1, 68, 0
1, 28799, Note_on_c, 0, 74, 0
1, 28800, Note_on_c, 0, 74, 66
1, 28800, Note_on_c, 1, 69, 66
1, 28889, Note_on_c, 1, 69, 0
1, 28896, Note_on_c, 0, 74, 0
1, 28896, Note_on_c, 0, 73, 66
1, 28896, Note_on_c, 1, 57, 66
1, 28911, Note_on_c, 0, 73, 0
1, 28912, Note_on_c, 0, 74, 66
1, 28927, Note_on_c, 0, 74, 0
1, 28928, Note_on_c, 0, 76, 66
1, 28943, Note_on_c, 0, 76, 0
1, 28944, Note_on_c, 0, 74, 66
1, 28959, Note_on_c, 0, 74, 0
1, 28960, Note_on_c, 0, 73, 66
1, 28975, Note_on_c, 0, 73, 0
1, 28976, Note_on_c, 0, 70, 66
1, 28985, Note_on_c, 1, 57, 0
1, 28991, Note_on_c, 0, 70, 0
1, 28992, Note_on_c, 0, 69, 66
1, 29007, Note_on_c, 0, 69, 0
1, 29008, Note_on_c, 0, 70, 67
1, 29023, Note_on_c, 0, 70, 0
1, 29024, Note_on_c, 0, 69, 69
1, 29039, Note_on_c, 0, 69, 0
1, 29040, Note_on_c, 0, 67, 71
1, 29055, Note_on_c, 0, 67, 0
1, 29056, Note_on_c, 0, 65, 73
1, 29064, Note_on_c, 1, 45, 80
1, 29064, Note_on_c, 1, 33, 80
1, 29071, Note_on_c, 0, 65, 0
1, 29072, Note_on_c, 0, 64, 74
1, 29087, Note_on_c, 0, 64, 0
1, 29087, Note_on_c, 1, 45, 0
1, 29087, Note_on_c, 1, 33, 0
1, 29088, Note_on_c, 1, 50, 80
1, 29088, Note_on_c, 1, 38, 80
1, 29104, Note_on_c, 0, 81, 80
1, 29104, Note_on_c, 0, 77, 80
1, 29119, Note_on_c, 0, 81, 0
1, 29119, Note_on_c, 0, 77, 0
1, 29120, Note_on_c, 0, 81, 80
1, 29120, Note_on_c, 0, 77, 80
1, 29135, Note_on_c, 0, 81, 0
1, 29135, Note_on_c, 0, 77, 0
1, 29136, Note_on_c, 0, 81, 80
1, 29136, Note_on_c, 0, 77, 80
1, 29151, Note_on_c, 0, 81, 0
1, 29151, Note_on_c, 0, 77, 0
1, 29152, Note_on_c, 0, 79, 80
1, 29152, Note_on_c, 0, 76, 80
1, 29155, Note_on_c, 1, 50, 0
1, 29155, Note_on_c, 1, 38, 0
1, 29160, Note_on_c, 1, 50, 80
1, 29160, Note_on_c, 1, 38, 80
1, 29167, Note_on_c, 0, 79, 0
1, 29167, Note_on_c, 0, 76, 0
1, 29168, Note_on_c, 0, 77, 80
1, 29168, Note_on_c, 0, 74, 80
1, 29183, Note_on_c, 0, 77, 0
1, 29183, Note_on_c, 0, 74, 0
1, 29183, Note_on_c, 1, 50, 0
1, 29183, Note_on_c, 1, 38, 0
1, 29184, Note_on_c, 1, 52, 80
1, 29184, Note_on_c, 1, 40, 80
1, 29200, Note_on_c, 0, 85, 80
1, 29200, Note_on_c, 0, 82, 80
1, 29215, Note_on_c, 0, 85, 0
1, 29215, Note_on_c, 0, 82, 0
1, 29216, Note_on_c, 0, 85, 80
1, 29216, Note_on_c, 0, 82, 80
1, 29231, Note_on_c, 0, 85, 0
1, 29231, Note_on_c, 0, 82, 0
1, 29232, Note_on_c, 0, 85, 80
1, 29232, Note_on_c, 0, 82, 80
1, 29247, Note_on_c, 0, 85, 0
1, 29247, Note_on_c, 0, 82, 0
1, 29248, Note_on_c, 0, 86, 80
1, 29248, Note_on_c, 0, 81, 80
1, 29251, Note_on_c, 1, 52, 0
1, 29251, Note_on_c, 1, 40, 0
1, 29256, Note_on_c, 1, 52, 80
1, 29256, Note_on_c, 1, 40, 80
1, 29263, Note_on_c, 0, 86, 0
1, 29263, Note_on_c, 0, 81, 0
1, 29264, Note_on_c, 0, 88, 80
1, 29264, Note_on_c, 0, 79, 80
1, 29279, Note_on_c, 0, 88, 0
1, 29279, Note_on_c, 0, 79, 0
1, 29279, Note_on_c, 1, 52, 0
1, 29279, Note_on_c, 1, 40, 0
1, 29280, Note_on_c, 1, 53, 80
1, 29280, Note_on_c, 1, 41, 80
1, 29296, Note_on_c, 0, 86, 80
1, 29296, Note_on_c, 0, 74, 80
1, 29311, Note_on_c, 0, 86, 0
1, 29311, Note_on_c, 0, 74, 0
1, 29312, Note_on_c, 0, 86, 80
1, 29312, Note_on_c, 0, 74, 80
1, 29325, Note_on_c, 1, 53, 0
1, 29325, Note_on_c, 1, 41, 0
1, 29327, Note_on_c, 0, 86, 0
1, 29327, Note_on_c, 0, 74, 0
1, 29328, Note_on_c, 1, 54, 80
1, 29328, Note_on_c, 1, 42, 80
1, 29344, Note_on_c, 0, 84, 80
1, 29344, Note_on_c, 0, 72, 80
1, 29359, Note_on_c, 0, 84, 0
1, 29359, Note_on_c, 0, 72, 0
1, 29360, Note_on_c, 0, 84, 80
1, 29360, Note_on_c, 0, 72, 80
1, 29373, Note_on_c, 1, 54, 0
1, 29373, Note_on_c, 1, 42, 0
1, 29375, Note_on_c, 0, 84, 0
1, 29375, Note_on_c, 0, 72, 0
1, 29376, Note_on_c, 1, 55, 80
1, 29376, Note_on_c, 1, 43, 80
1, 29392, Note_on_c, 0, 82, 80
1, 29392, Note_on_c, 0, 70, 80
1, 29407, Note_on_c, 0, 82, 0
1, 29407, Note_on_c, 0, 70, 0
1, 29408, Note_on_c, 0, 82, 80
1, 29408, Note_on_c, 0, 70, 80
1, 29421, Note_on_c, 1, 55, 0
1, 29421, Note_on_c, 1, 43, 0
1, 29423, Note_on_c, 0, 82, 0
1, 29423, Note_on_c, 0, 70, 0
1, 29424, Note_on_c, 1, 58, 80
1, 29424, Note_on_c, 1, 46, 80
1, 29440, Note_on_c, 0, 79, 80
1, 29440, Note_on_c, 0, 67, 80
1, 29455, Note_on_c, 0, 79, 0
1, 29455, Note_on_c, 0, 67, 0
1, 29456, Note_on_c, 0, 79, 80
1, 29456, Note_on_c, 0, 67, 80
1, 29469, Note_on_c, 1, 58, 0
1, 29469, Note_on_c, 1, 46, 0
1, 29471, Note_on_c, 0, 79, 0
1, 29471, Note_on_c, 0, 67, 0
1, 29472, Note_on_c, 1, 57, 80
1, 29479, Note_on_c, 1, 57, 0
1, 29488, Note_on_c, 1, 62, 80
1, 29495, Note_on_c, 1, 62, 0
1, 29504, Note_on_c, 1, 65, 80
1, 29511, Note_on_c, 1, 65, 0
1, 29520, Note_on_c, 0, 69, 80
1, 29527, Note_on_c, 0, 69, 0
1, 29536, Note_on_c, 0, 74, 80
1, 29543, Note_on_c, 0, 74, 0
1, 29552, Note_on_c, 0, 77, 80
1, 29559, Note_on_c, 0, 77, 0
1, 29568, Note_on_c, 0, 81, 80
1, 29615, Note_on_c, 0, 81, 0
1, 29664, Note_on_c, 0, 57, 66
1, 29679, Note_on_c, 0, 57, 0
1, 29680, Note_on_c, 0, 61, 66
1, 29695, Note_on_c, 0, 61, 0
1, 29696, Note_on_c, 0, 64, 66
1, 29711, Note_on_c, 0, 64, 0
1, 29712, Note_on_c, 0, 67, 66
1, 29727, Note_on_c, 0, 67, 0
1, 29728, Note_on_c, 0, 73, 66
1, 29743, Note_on_c, 0, 73, 0
1, 29744, Note_on_c, 0, 76, 66
1, 29759, Note_on_c, 0, 76, 0
1, 29760, Note_on_c, 0, 79, 66
1, 29849, Note_on_c, 0, 79, 0
1, 29952, Note_on_c, 1, 46, 80
1, 29952, Note_on_c, 1, 34, 80
1, 29968, Note_on_c, 0, 88, 80
1, 29984, Note_on_c, 0, 88, 0
1, 29984, Note_on_c, 0, 89, 80
1, 29999, Note_on_c, 0, 89, 0
1, 30000, Note_on_c, 0, 85, 80
1, 30016, Note_on_c, 0, 85, 0
1, 30016, Note_on_c, 0, 86, 80
1, 30031, Note_on_c, 0, 86, 0
1, 30032, Note_on_c, 0, 81, 80
1, 30048, Note_on_c, 0, 81, 0
1, 30048, Note_on_c, 0, 82, 80
1, 30063, Note_on_c, 0, 82, 0
1, 30064, Note_on_c, 0, 80, 80
1, 30080, Note_on_c, 0, 80, 0
1, 30080, Note_on_c, 0, 81, 80
1, 30095, Note_on_c, 0, 81, 0
1, 30096, Note_on_c, 0, 76, 80
1, 30112, Note_on_c, 0, 76, 0
1, 30112, Note_on_c, 0, 77, 80
1, 30127, Note_on_c, 0, 77, 0
1, 30128, Note_on_c, 0, 73, 80
1, 30144, Note_on_c, 0, 73, 0
1, 30144, Note_on_c, 0, 74, 80
1, 30159, Note_on_c, 0, 74, 0
1, 30160, Note_on_c, 0, 77, 80
1, 30175, Note_on_c, 0, 77, 0
1, 30176, Note_on_c, 0, 69, 80
1, 30192, Note_on_c, 0, 69, 0
1, 30192, Note_on_c, 0, 70, 80
1, 30207, Note_on_c, 0, 70, 0
1, 30208, Note_on_c, 0, 74, 80
1, 30217, Note_on_c, 1, 46, 0
1, 30217, Note_on_c, 1, 34, 0
1, 30223, Note_on_c, 0, 74, 0
1, 30224, Note_on_c, 0, 68, 80
1, 30240, Note_on_c, 0, 68, 0
1, 30240, Note_on_c, 0, 69, 80
1, 30240, Note_on_c, 1, 45, 80
1, 30240, Note_on_c, 1, 33, 80
1, 30255, Note_on_c, 0, 69, 0
1, 30256, Note_on_c, 0, 70, 79
1, 30271, Note_on_c, 0, 70, 0
1, 30272, Note_on_c, 0, 71, 78
1, 30287, Note_on_c, 0, 71, 0
1, 30288, Note_on_c, 0, 72, 77
1, 30303, Note_on_c, 0, 72, 0
1, 30304, Note_on_c, 0, 73, 77
1, 30319, Note_on_c, 0, 73, 0
1, 30320, Note_on_c, 0, 74, 76
1, 30335, Note_on_c, 0, 74, 0
1, 30336, Note_on_c, 0, 75, 75
1, 30351, Note_on_c, 0, 75, 0
1, 30352, Note_on_c, 0, 76, 75
1, 30367, Note_on_c, 0, 76, 0
1, 30368, Note_on_c, 0, 77, 74
1, 30383, Note_on_c, 0, 77, 0
1, 30384, Note_on_c, 0, 78, 73
1, 30399, Note_on_c, 0, 78, 0
1, 30400, Note_on_c, 0, 79, 73
1, 30415, Note_on_c, 0, 79, 0
1, 30416, Note_on_c, 0, 80, 72
1, 30417, Note_on_c, 1, 45, 0
1, 30417, Note_on_c, 1, 33, 0
1, 30431, Note_on_c, 0, 80, 0
1, 30432, Note_on_c, 0, 81, 71
1, 30477, Note_on_c, 0, 81, 0
1, 30480, Note_on_c, 0, 73, 66
1, 30480, Note_on_c, 0, 67, 66
1, 30480, Note_on_c, 1, 57, 66
1, 30525, Note_on_c, 0, 73, 0
1, 30525, Note_on_c, 0, 67, 0
1, 30525, Note_on_c, 1, 57, 0
1, 30528, Note_on_c, 0, 73, 66
1, 30528, Note_on_c, 0, 67, 66
1, 30528, Note_on_c, 1, 50, 66
1, 30617, Note_on_c, 1, 50, 0
1, 30624, Note_on_c, 0, 73, 0
1, 30624, Note_on_c, 0, 67, 0
1, 30624, Note_on_c, 0, 74, 66
1, 30624, Note_on_c, 0, 65, 66
1, 30624, Note_on_c, 1, 62, 66
1, 30671, Note_on_c, 0, 74, 0
1, 30671, Note_on_c, 0, 65, 0
1, 30671, Note_on_c, 1, 62, 0
1, 30792, Note_on_c, 1, 53, 75
1, 30815, Note_on_c, 1, 53, 0
1, 30816, Note_on_c, 1, 63, 75
1, 30883, Note_on_c, 1, 63, 0
1, 30888, Note_on_c, 0, 65, 75
1, 30888, Note_on_c, 1, 63, 75
1, 30911, Note_on_c, 0, 65, 0
1, 30911, Note_on_c, 1, 63, 0
1, 30912, Note_on_c, 0, 81, 75
1, 30912, Note_on_c, 0, 72, 75
1, 30912, Note_on_c, 1, 63, 75
1, 30979, Note_on_c, 0, 81, 0
1, 30979, Note_on_c, 0, 72, 0
1, 30984, Note_on_c, 0, 81, 75
1, 30984, Note_on_c, 0, 72, 75
1, 31001, Note_on_c, 1, 63, 0
1, 31007, Note_on_c, 0, 81, 0
1, 31007, Note_on_c, 0, 72, 0
1, 31008, Note_on_c, 0, 81, 75
1, 31008, Note_on_c, 0, 72, 75
1, 31080, Note_on_c, 1, 50, 75
1, 31097, Note_on_c, 0, 81, 0
1, 31097, Note_on_c, 0, 72, 0
1, 31103, Note_on_c, 1, 50, 0
1, 31104, Note_on_c, 1, 69, 75
1, 31104, Note_on_c, 1, 66, 75
1, 31171, Note_on_c, 1, 69, 0
1, 31171, Note_on_c, 1, 66, 0
1, 31176, Note_on_c, 0, 72, 75
1, 31176, Note_on_c, 1, 69, 75
1, 31176, Note_on_c, 1, 66, 75
1, 31199, Note_on_c, 0, 72, 0
1, 31199, Note_on_c, 1, 69, 0
1, 31199, Note_on_c, 1, 66, 0
1, 31200, Note_on_c, 0, 87, 75
1, 31200, Note_on_c, 0, 84, 75
1, 31200, Note_on_c, 1, 69, 75
1, 31200, Note_on_c, 1, 66, 75
1, 31267, Note_on_c, 0, 87, 0
1, 31267, Note_on_c, 0, 84, 0
1, 31272, Note_on_c, 0, 87, 75
1, 31272, Note_on_c, 0, 84, 75
1, 31295, Note_on_c, 0, 87, 0
1, 31295, Note_on_c, 0, 84, 0
1, 31296, Note_on_c, 0, 87, 75
1, 31296, Note_on_c, 0, 84, 75
1, 31333, Note_on_c, 1, 69, 0
1, 31333, Note_on_c, 1, 66, 0
1, 31344, Note_on_c, 1, 69, 66
1, 31344, Note_on_c, 1, 66, 66
1, 31363, Note_on_c, 0, 87, 0
1, 31363, Note_on_c, 0, 84, 0
1, 31368, Note_on_c, 0, 86, 66
1, 31380, Note_on_c, 0, 86, 0
1, 31380, Note_on_c, 0, 84, 66
1, 31389, Note_on_c, 1, 69, 0
1, 31389, Note_on_c, 1, 66, 0
1, 31392, Note_on_c, 0, 84, 0
1, 31392, Note_on_c, 0, 82, 66
1, 31392, Note_on_c, 1, 70, 66
1, 31392, Note_on_c, 1, 67, 66
1, 31407, Note_on_c, 0, 82, 0
1, 31408, Note_on_c, 0, 84, 66
1, 31423, Note_on_c, 0, 84, 0
1, 31424, Note_on_c, 0, 82, 66
1, 31437, Note_on_c, 1, 70, 0
1, 31437, Note_on_c, 1, 67, 0
1, 31439, Note_on_c, 0, 82, 0
1, 31440, Note_on_c, 0, 81, 66
1, 31440, Note_on_c, 1, 72, 66
1, 31440, Note_on_c, 1, 69, 66
1, 31455, Note_on_c, 0, 81, 0
1, 31456, Note_on_c, 0, 82, 66
1, 31471, Note_on_c, 0, 82, 0
1, 31472, Note_on_c, 0, 81, 66
1, 31485, Note_on_c, 1, 72, 0
1, 31485, Note_on_c, 1, 69, 0
1, 31487, Note_on_c, 0, 81, 0
1, 31488, Note_on_c, 0, 79, 66
1, 31488, Note_on_c, 1, 74, 66
1, 31488, Note_on_c, 1, 70, 66
1, 31503, Note_on_c, 0, 79, 0
1, 31504, Note_on_c, 0, 81, 66
1, 31519, Note_on_c, 0, 81, 0
1, 31520, Note_on_c, 0, 79, 66
1, 31533, Note_on_c, 1, 74, 0
1, 31533, Note_on_c, 1, 70, 0
1, 31535, Note_on_c, 0, 79, 0
1, 31536, Note_on_c, 0, 77, 66
1, 31536, Note_on_c, 1, 72, 66
1, 31536, Note_on_c, 1, 69, 66
1, 31551, Note_on_c, 0, 77, 0
1, 31552, Note_on_c, 0, 79, 66
1, 31567, Note_on_c, 0, 79, 0
1, 31568, Note_on_c, 0, 77, 66
1, 31581, Note_on_c, 1, 72, 0
1, 31581, Note_on_c, 1, 69, 0
1, 31583, Note_on_c, 0, 77, 0
1, 31584, Note_on_c, 0, 76, 66
1, 31584, Note_on_c, 1, 70, 66
1, 31584, Note_on_c, 1, 67, 66
1, 31599, Note_on_c, 0, 76, 0
1, 31600, Note_on_c, 0, 77, 66
1, 31615, Note_on_c, 0, 77, 0
1, 31616, Note_on_c, 0, 76, 66
1, 31629, Note_on_c, 1, 70, 0
1, 31629, Note_on_c, 1, 67, 0
1, 31631, Note_on_c, 0, 76, 0
1, 31632, Note_on_c, 0, 77, 66
1, 31632, Note_on_c, 1, 71, 66
1, 31632, Note_on_c, 1, 68, 66
1, 31647, Note_on_c, 0, 77, 0
1, 31648, Note_on_c, 0, 76, 66
1, 31663, Note_on_c, 0, 76, 0
1, 31664, Note_on_c, 0, 74, 66
1, 31677, Note_on_c, 1, 71, 0
1, 31677, Note_on_c, 1, 68, 0
1, 31679, Note_on_c, 0, 74, 0
1, 31680, Note_on_c, 0, 74, 66
1, 31680, Note_on_c, 1, 69, 66
1, 31769, Note_on_c, 1, 69, 0
1, 31776, Note_on_c, 0, 74, 0
1, 31776, Note_on_c, 0, 73, 66
1, 31776, Note_on_c, 1, 57, 66
1, 31791, Note_on_c, 0, 73, 0
1, 31792, Note_on_c, 0, 74, 66
1, 31807, Note_on_c, 0, 74, 0
1, 31808, Note_on_c, 0, 76, 66
1, 31823, Note_on_c, 0, 76, 0
1, 31824, Note_on_c, 0, 74, 66
1, 31839, Note_on_c, 0, 74, 0
1, 31840, Note_on_c, 0, 73, 66
1, 31855, Note_on_c, 0, 73, 0
1, 31856, Note_on_c, 0, 70, 66
1, 31865, Note_on_c, 1, 57, 0
1, 31871, Note_on_c, 0, 70, 0
1, 31872, Note_on_c, 0, 69, 66
1, 31887, Note_on_c, 0, 69, 0
1, 31888, Note_on_c, 0, 70, 67
1, 31903, Note_on_c, 0, 70, 0
1, 31904, Note_on_c, 0, 69, 69
1, 31919, Note_on_c, 0, 69, 0
1, 31920, Note_on_c, 0, 67, 71
1, 31935, Note_on_c, 0, 67, 0
1, 31936, Note_on_c, 0, 65, 73
1, 31944, Note_on_c, 1, 45, 80
1, 31944, Note_on_c, 1, 33, 80
1, 31951, Note_on_c, 0, 65, 0
1, 31952, Note_on_c, 0, 64, 74
1, 31967, Note_on_c, 0, 64, 0
1, 31967, Note_on_c, 1, 45, 0
1, 31967, Note_on_c, 1, 33, 0
1, 31968, Note_on_c, 1, 50, 80
1, 31968, Note_on_c, 1, 38, 80
1, 31984, Note_on_c, 0, 81, 80
1, 31984, Note_on_c, 0, 77, 80
1, 31999, Note_on_c, 0, 81, 0
1, 31999, Note_on_c, 0, 77, 0
1, 32000, Note_on_c, 0, 81, 80
1, 32000, Note_on_c, 0, 77, 80
1, 32015, Note_on_c, 0, 81, 0
1, 32015, Note_on_c, 0, 77, 0
1, 32016, Note_on_c, 0, 81, 80
1, 32016, Note_on_c, 0, 77, 80
1, 32031, Note_on_c, 0, 81, 0
1, 32031, Note_on_c, 0, 77, 0
1, 32032, Note_on_c, 0, 79, 80
1, 32032, Note_on_c, 0, 76, 80
1, 32035, Note_on_c, 1, 50, 0
1, 32035, Note_on_c, 1, 38, 0
1, 32040, Note_on_c, 1, 50, 80
1, 32040, Note_on_c, 1, 38, 80
1, 32047, Note_on_c, 0, 79, 0
1, 32047, Note_on_c, 0, 76, 0
1, 32048, Note_on_c, 0, 77, 80
1, 32048, Note_on_c, 0, 74, 80
1, 32063, Note_on_c, 0, 77, 0
1, 32063, Note_on_c, 0, 74, 0
1, 32063, Note_on_c, 1, 50, 0
1, 32063, Note_on_c, 1, 38, 0
1, 32064, Note_on_c, 1, 52, 80
1, 32064, Note_on_c, 1, 40, 80
1, 32080, Note_on_c, 0, 85, 80
1, 32080, Note_on_c, 0, 82, 80
1, 32095, Note_on_c, 0, 85, 0
1, 32095, Note_on_c, 0, 82, 0
1, 32096, Note_on_c, 0, 85, 80
1, 32096, Note_on_c, 0, 82, 80
1, 32111, Note_on_c, 0, 85, 0
1, 32111, Note_on_c, 0, 82, 0
1, 32112, Note_on_c, 0, 85, 80
1, 32112, Note_on_c, 0, 82, 80
1, 32127, Note_on_c, 0, 85, 0
1, 32127, Note_on_c, 0, 82, 0
1, 32128, Note_on_c, 0, 86, 80
1, 32128, Note_on_c, 0, 81, 80
1, 32131, Note_on_c, 1, 52, 0
1, 32131, Note_on_c, 1, 40, 0
1, 32136, Note_on_c, 1, 52, 80
1, 32136, Note_on_c, 1, 40, 80
1, 32143, Note_on_c, 0, 86, 0
1, 32143, Note_on_c, 0, 81, 0
1, 32144, Note_on_c, 0, 88, 80
1, 32144, Note_on_c, 0, 79, 80
1, 32159, Note_on_c, 0, 88, 0
1, 32159, Note_on_c, 0, 79, 0
1, 32159, Note_on_c, 1, 52, 0
1, 32159, Note_on_c, 1, 40, 0
1, 32160, Note_on_c, 1, 53, 80
1, 32160, Note_on_c, 1, 41, 80
1, 32176, Note_on_c, 0, 86, 80
1, 32176, Note_on_c, 0, 74, 80
1, 32191, Note_on_c, 0, 86, 0
1, 32191, Note_on_c, 0, 74, 0
1, 32192, Note_on_c, 0, 86, 80
1, 32192, Note_on_c, 0, 74, 80
1, 32205, Note_on_c, 1, 53, 0
1, 32205, Note_on_c, 1, 41, 0
1, 32207, Note_on_c, 0, 86, 0
1, 32207, Note_on_c, 0, 74, 0
1, 32208, Note_on_c, 1, 54, 80
1, 32208, Note_on_c, 1, 42, 80
1, 32224, Note_on_c, 0, 84, 80
1, 32224, Note_on_c, 0, 72, 80
1, 32239, Note_on_c, 0, 84, 0
1, 32239, Note_on_c, 0, 72, 0
1, 32240, Note_on_c, 0, 84, 80
1, 32240, Note_on_c, 0, 72, 80
1, 32253, Note_on_c, 1, 54, 0
1, 32253, Note_on_c, 1, 42, 0
1, 32255, Note_on_c, 0, 84, 0
1, 32255, Note_on_c, 0, 72, 0
1, 32256, Note_on_c, 1, 55, 80
1, 32256, Note_on_c, 1, 43, 80
1, 32272, Note_on_c, 0, 82, 80
1, 32272, Note_on_c, 0, 70, 80
1, 32287, Note_on_c, 0, 82, 0
1, 32287, Note_on_c, 0, 70, 0
1, 32288, Note_on_c, 0, 82, 80
1, 32288, Note_on_c, 0, 70, 80
1, 32301, Note_on_c, 1, 55, 0
1, 32301, Note_on_c, 1, 43, 0
1, 32303, Note_on_c, 0, 82, 0
1, 32303, Note_on_c, 0, 70, 0
1, 32304, Note_on_c, 1, 58, 80
1, 32304, Note_on_c, 1, 46, 80
1, 32320, Note_on_c, 0, 79, 80
1, 32320, Note_on_c, 0, 67, 80
1, 32335, Note_on_c, 0, 79, 0
1, 32335, Note_on_c, 0, 67, 0
1, 32336, Note_on_c, 0, 79, 80
1, 32336, Note_on_c, 0, 67, 80
1, 32349, Note_on_c, 1, 58, 0
1, 32349, Note_on_c, 1, 46, 0
1, 32351, Note_on_c, 0, 79, 0
1, 32351, Note_on_c, 0, 67, 0
1, 32352, Note_on_c, 1, 57, 80
1, 32359, Note_on_c, 1, 57, 0
1, 32368, Note_on_c, 1, 62, 80
1, 32375, Note_on_c, 1, 62, 0
1, 32384, Note_on_c, 1, 65, 80
1, 32391, Note_on_c, 1, 65, 0
1, 32400, Note_on_c, 0, 69, 80
1, 32407, Note_on_c, 0, 69, 0
1, 32416, Note_on_c, 0, 74, 80
1, 32423, Note_on_c, 0, 74, 0
1, 32432, Note_on_c, 0, 77, 80
1, 32439, Note_on_c, 0, 77, 0
1, 32448, Note_on_c, 0, 81, 80
1, 32495, Note_on_c, 0, 81, 0
1, 32544, Note_on_c, 0, 57, 66
1, 32559, Note_on_c, 0, 57, 0
1, 32560, Note_on_c, 0, 61, 66
1, 32575, Note_on_c, 0, 61, 0
1, 32576, Note_on_c, 0, 64, 66
1, 32591, Note_on_c, 0, 64, 0
1, 32592, Note_on_c, 0, 67, 66
1, 32607, Note_on_c, 0, 67, 0
1, 32608, Note_on_c, 0, 73, 66
1, 32623, Note_on_c, 0, 73, 0
1, 32624, Note_on_c, 0, 76, 66
1, 32639, Note_on_c, 0, 76, 0
1, 32640, Note_on_c, 0, 79, 66
1, 32729, Note_on_c, 0, 79, 0
1, 32832, Note_on_c, 1, 46, 80
1, 32832, Note_on_c, 1, 34, 80
1, 32848, Note_on_c, 0, 88, 80
1, 32864, Note_on_c, 0, 88, 0
1, 32864, Note_on_c, 0, 89, 80
1, 32879, Note_on_c, 0, 89, 0
1, 32880, Note_on_c, 0, 85, 80
1, 32896, Note_on_c, 0, 85, 0
1, 32896, Note_on_c, 0, 86, 80
1, 32911, Note_on_c, 0, 86, 0
1, 32912, Note_on_c, 0, 81, 80
1, 32928, Note_on_c, 0, 81, 0
1, 32928, Note_on_c, 0, 82, 80
1, 32943, Note_on_c, 0, 82, 0
1, 32944, Note_on_c, 0, 80, 80
1, 32960, Note_on_c, 0, 80, 0
1, 32960, Note_on_c, 0, 81, 80
1, 32975, Note_on_c, 0, 81, 0
1, 32976, Note_on_c, 0, 76, 80
1, 32992, Note_on_c, 0, 76, 0
1, 32992, Note_on_c, 0, 77, 80
1, 33007, Note_on_c, 0, 77, 0
1, 33008, Note_on_c, 0, 73, 80
1, 33024, Note_on_c, 0, 73, 0
1, 33024, Note_on_c, 0, 74, 80
1, 33039, Note_on_c, 0, 74, 0
1, 33040, Note_on_c, 0, 77, 80
1, 33055, Note_on_c, 0, 77, 0
1, 33056, Note_on_c, 0, 69, 80
1, 33072, Note_on_c, 0, 69, 0
1, 33072, Note_on_c, 0, 70, 80
1, 33087, Note_on_c, 0, 70, 0
1, 33088, Note_on_c, 0, 74, 80
1, 33097, Note_on_c, 1, 46, 0
1, 33097, Note_on_c, 1, 34, 0
1, 33103, Note_on_c, 0, 74, 0
1, 33104, Note_on_c, 0, 68, 80
1, 33120, Note_on_c, 0, 68, 0
1, 33120, Note_on_c, 0, 69, 80
1, 33120, Note_on_c, 1, 45, 80
1, 33120, Note_on_c, 1, 33, 80
1, 33135, Note_on_c, 0, 69, 0
1, 33136, Note_on_c, 0, 70, 79
1, 33151, Note_on_c, 0, 70, 0
1, 33152, Note_on_c, 0, 71, 78
1, 33167, Note_on_c, 0, 71, 0
1, 33168, Note_on_c, 0, 72, 77
1, 33183, Note_on_c, 0, 72, 0
1, 33184, Note_on_c, 0, 73, 77
1, 33199, Note_on_c, 0, 73, 0
1, 33200, Note_on_c, 0, 74, 76
1, 33215, Note_on_c, 0, 74, 0
1, 33216, Note_on_c, 0, 75, 75
1, 33231, Note_on_c, 0, 75, 0
1, 33232, Note_on_c, 0, 76, 75
1, 33247, Note_on_c, 0, 76, 0
1, 33248, Note_on_c, 0, 77, 74
1, 33263, Note_on_c, 0, 77, 0
1, 33264, Note_on_c, 0, 78, 73
1, 33279, Note_on_c, 0, 78, 0
1, 33280, Note_on_c, 0, 79, 73
1, 33295, Note_on_c, 0, 79, 0
1, 33296, Note_on_c, 0, 80, 72
1, 33297, Note_on_c, 1, 45, 0
1, 33297, Note_on_c, 1, 33, 0
1, 33311, Note_on_c, 0, 80, 0
1, 33312, Note_on_c, 0, 81, 71
1, 33357, Note_on_c, 0, 81, 0
1, 33360, Note_on_c, 0, 73, 66
1, 33360, Note_on_c, 0, 67, 66
1, 33360, Note_on_c, 1, 57, 66
1, 33405, Note_on_c, 0, 73, 0
1, 33405, Note_on_c, 0, 67, 0
1, 33405, Note_on_c, 1, 57, 0
1, 33408, Note_on_c, 0, 73, 66
1, 33408, Note_on_c, 0, 67, 66
1, 33408, Note_on_c, 1, 58, 66
1, 33504, Note_on_c, 0, 73, 0
1, 33504, Note_on_c, 0, 67, 0
1, 33504, Note_on_c, 0, 74, 66
1, 33504, Note_on_c, 0, 65, 66
1, 33551, Note_on_c, 0, 74, 0
1, 33551, Note_on_c, 0, 65, 0
1, 33551, Note_on_c, 1, 58, 0
1, 33672, Note_on_c, 0, 62, 66
1, 33672, Note_on_c, 0, 58, 66
1, 33695, Note_on_c, 0, 62, 0
1, 33695, Note_on_c, 0, 58, 0
1, 33696, Note_on_c, 0, 65, 66
1, 33696, Note_on_c, 0, 62, 66
1, 33763, Note_on_c, 0, 65, 0
1, 33763, Note_on_c, 0, 62, 0
1, 33768, Note_on_c, 0, 65, 66
1, 33768, Note_on_c, 0, 62, 66
1, 33768, Note_on_c, 1, 46, 66
1, 33791, Note_on_c, 0, 65, 0
1, 33791, Note_on_c, 0, 62, 0
1, 33791, Note_on_c, 1, 46, 0
1, 33792, Note_on_c, 0, 65, 66
1, 33792, Note_on_c, 0, 62, 66
1, 33792, Note_on_c, 1, 58, 66
1, 33859, Note_on_c, 1, 58, 0
1, 33864, Note_on_c, 1, 58, 66
1, 33881, Note_on_c, 0, 65, 0
1, 33881, Note_on_c, 0, 62, 0
1, 33887, Note_on_c, 1, 58, 0
1, 33888, Note_on_c, 1, 58, 66
1, 33933, Note_on_c, 1, 58, 0
1, 33960, Note_on_c, 0, 65, 80
1, 33960, Note_on_c, 0, 62, 80
1, 33983, Note_on_c, 0, 65, 0
1, 33983, Note_on_c, 0, 62, 0
1, 33984, Note_on_c, 0, 68, 80
1, 33984, Note_on_c, 0, 65, 80
1, 34051, Note_on_c, 0, 68, 0
1, 34051, Note_on_c, 0, 65, 0
1, 34056, Note_on_c, 0, 68, 80
1, 34056, Note_on_c, 0, 65, 80
1, 34056, Note_on_c, 1, 46, 80
1, 34056, Note_on_c, 1, 34, 80
1, 34079, Note_on_c, 0, 68, 0
1, 34079, Note_on_c, 0, 65, 0
1, 34079, Note_on_c, 1, 46, 0
1, 34079, Note_on_c, 1, 34, 0
1, 34080, Note_on_c, 0, 68, 80
1, 34080, Note_on_c, 0, 65, 80
1, 34080, Note_on_c, 1, 62, 80
1, 34080, Note_on_c, 1, 58, 80
1, 34147, Note_on_c, 1, 62, 0
1, 34147, Note_on_c, 1, 58, 0
1, 34152, Note_on_c, 1, 62, 80
1, 34152, Note_on_c, 1, 58, 80
1, 34169, Note_on_c, 0, 68, 0
1, 34169, Note_on_c, 0, 65, 0
1, 34175, Note_on_c, 1, 62, 0
1, 34175, Note_on_c, 1, 58, 0
1, 34176, Note_on_c, 1, 62, 80
1, 34176, Note_on_c, 1, 58, 80
1, 34243, Note_on_c, 1, 62, 0
1, 34243, Note_on_c, 1, 58, 0
1, 34248, Note_on_c, 0, 68, 80
1, 34248, Note_on_c, 1, 62, 80
1, 34248, Note_on_c, 1, 58, 80
1, 34271, Note_on_c, 0, 68, 0
1, 34271, Note_on_c, 1, 62, 0
1, 34271, Note_on_c, 1, 58, 0
1, 34272, Note_on_c, 0, 69, 80
1, 34272, Note_on_c, 1, 61, 80
1, 34272, Note_on_c, 1, 57, 80
1, 34339, Note_on_c, 0, 69, 0
1, 34339, Note_on_c, 1, 61, 0
1, 34339, Note_on_c, 1, 57, 0
1, 34344, Note_on_c, 0, 69, 80
1, 34344, Note_on_c, 1, 61, 80
1, 34344, Note_on_c, 1, 57, 80
1, 34367, Note_on_c, 0, 69, 0
1, 34367, Note_on_c, 1, 61, 0
1, 34367, Note_on_c, 1, 57, 0
1, 34368, Note_on_c, 0, 71, 80
1, 34368, Note_on_c, 1, 62, 80
1, 34368, Note_on_c, 1, 57, 80
1, 34435, Note_on_c, 0, 71, 0
1, 34435, Note_on_c, 1, 62, 0
1, 34435, Note_on_c, 1, 57, 0
1, 34440, Note_on_c, 0, 71, 80
1, 34440, Note_on_c, 1, 62, 80
1, 34440, Note_on_c, 1, 57, 80
1, 34463, Note_on_c, 0, 71, 0
1, 34463, Note_on_c, 1, 62, 0
1, 34463, Note_on_c, 1, 57, 0
1, 34464, Tempo, 1428571
1, 34464, Note_on_c, 0, 73, 80
1, 34464, Note_on_c, 0, 67, 80
1, 34464, Note_on_c, 1, 64, 80
1, 34464, Note_on_c, 1, 57, 80
1, 34531, Note_on_c, 0, 73, 0
1, 34531, Note_on_c, 0, 67, 0
1, 34531, Note_on_c, 1, 64, 0
1, 34531, Note_on_c, 1, 57, 0
1, 34536, Tempo, 1000000
1, 34536, Note_on_c, 0, 69, 82
1, 34560, Note_on_c, 0, 69, 0
1, 34560, Note_on_c, 0, 74, 66
1, 34560, Note_on_c, 1, 66, 66
1, 34560, Note_on_c, 1, 62, 66
1, 34605, Note_on_c, 1, 66, 0
1, 34605, Note_on_c, 1, 62, 0
1, 34627, Note_on_c, 0, 74, 0
1, 34632, Note_on_c, 0, 74, 66
1, 34642, Note_on_c, 0, 74, 0
1, 34656, Note_on_c, 0, 74, 66
1, 34656, Note_on_c, 1, 66, 66
1, 34656, Note_on_c, 1, 62, 66
1, 34676, Note_on_c, 0, 74, 0
1, 34701, Note_on_c, 1, 66, 0
1, 34701, Note_on_c, 1, 62, 0
1, 34824, Note_on_c, 0, 69, 66
1, 34832, Note_on_c, 0, 69, 0
1, 34832, Note_on_c, 0, 74, 66
1, 34840, Note_on_c, 0, 74, 0
1, 34840, Note_on_c, 0, 78, 66
1, 34848, Note_on_c, 0, 78, 0
1, 34848, Note_on_c, 0, 76, 66
1, 34848, Note_on_c, 1, 67, 66
1, 34848, Note_on_c, 1, 62, 66
1, 34920, Note_on_c, 0, 76, 0
1, 34920, Note_on_c, 0, 73, 66
1, 34943, Note_on_c, 0, 73, 0
1, 34944, Note_on_c, 0, 74, 66
1, 34944, Note_on_c, 1, 67, 0
1, 34944, Note_on_c, 1, 66, 66
1, 34964, Note_on_c, 0, 74, 0
1, 34989, Note_on_c, 1, 66, 0
1, 34989, Note_on_c, 1, 62, 0
1, 35088, Note_on_c, 0, 69, 66
1, 35100, Note_on_c, 0, 69, 0
1, 35100, Note_on_c, 0, 74, 66
1, 35112, Note_on_c, 0, 74, 0
1, 35112, Note_on_c, 0, 78, 66
1, 35124, Note_on_c, 0, 78, 0
1, 35124, Note_on_c, 0, 81, 66
1, 35136, Note_on_c, 0, 81, 0
1, 35136, Note_on_c, 0, 81, 106
1, 35136, Note_on_c, 1, 71, 66
1, 35156, Note_on_c, 1, 71, 0
1, 35184, Note_on_c, 0, 81, 0
1, 35184, Note_on_c, 0, 79, 66
1, 35194, Note_on_c, 0, 79, 0
1, 35220, Note_on_c, 0, 78, 66
1, 35220, Note_on_c, 1, 69, 66
1, 35225, Note_on_c, 1, 69, 0
1, 35232, Note_on_c, 0, 78, 0
1, 35232, Note_on_c, 0, 78, 106
1, 35232, Note_on_c, 1, 67, 66
1, 35252, Note_on_c, 1, 67, 0
1, 35280, Note_on_c, 0, 78, 0
1, 35280, Note_on_c, 0, 76, 66
1, 35290, Note_on_c, 0, 76, 0
1, 35316, Note_on_c, 0, 74, 66
1, 35316, Note_on_c, 1, 66, 66
1, 35321, Note_on_c, 1, 66, 0
1, 35328, Note_on_c, 0, 74, 0
1, 35328, Note_on_c, 0, 74, 106
1, 35328, Note_on_c, 1, 64, 66
1, 35348, Note_on_c, 1, 64, 0
1, 35376, Note_on_c, 0, 74, 0
1, 35376, Note_on_c, 0, 73, 66
1, 35386, Note_on_c, 0, 73, 0
1, 35412, Note_on_c, 0, 74, 66
1, 35412, Note_on_c, 1, 62, 66
1, 35424, Note_on_c, 0, 74, 0
1, 35424, Note_on_c, 0, 78, 66
1, 35424, Note_on_c, 1, 62, 0
1, 35424, Note_on_c, 1, 62, 66
1, 35424, Note_on_c, 1, 57, 66
1, 35520, Note_on_c, 0, 78, 0
1, 35520, Note_on_c, 0, 76, 66
1, 35520, Note_on_c, 1, 62, 0
1, 35520, Note_on_c, 1, 61, 66
1, 35540, Note_on_c, 0, 76, 0
1, 35565, Note_on_c, 1, 61, 0
1, 35565, Note_on_c, 1, 57, 0
1, 35688, Note_on_c, 0, 74, 80
1, 35696, Note_on_c, 0, 74, 0
1, 35696, Note_on_c, 0, 78, 80
1, 35704, Note_on_c, 0, 78, 0
1, 35704, Note_on_c, 0, 81, 80
1, 35712, Note_on_c, 0, 81, 0
1, 35712, Note_on_c, 0, 86, 80
1, 35712, Note_on_c, 1, 57, 80
1, 35712, Note_on_c, 1, 54, 80
1, 35712, Note_on_c, 1, 50, 80
1, 35732, Note_on_c, 0, 86, 0
1, 35760, Note_on_c, 0, 88, 80
1, 35766, Note_on_c, 0, 88, 0
1, 35766, Note_on_c, 0, 86, 80
1, 35772, Note_on_c, 0, 86, 0
1, 35772, Note_on_c, 0, 85, 80
1, 35778, Note_on_c, 0, 85, 0
1, 35778, Note_on_c, 0, 86, 80
1, 35794, Note_on_c, 0, 86, 0
1, 35796, Note_on_c, 0, 88, 80
1, 35801, Note_on_c, 1, 57, 0
1, 35801, Note_on_c, 1, 54, 0
1, 35801, Note_on_c, 1, 50, 0
1, 35808, Note_on_c, 0, 88, 0
1, 35808, Note_on_c, 0, 85, 80
1, 35808, Note_on_c, 1, 61, 80
1, 35808, Note_on_c, 1, 57, 80
1, 35808, Note_on_c, 1, 55, 80
1, 35808, Note_on_c, 1, 52, 80
1, 35855, Note_on_c, 0, 85, 0
1, 35897, Note_on_c, 1, 61, 0
1, 35897, Note_on_c, 1, 57, 0
1, 35897, Note_on_c, 1, 55, 0
1, 35897, Note_on_c, 1, 52, 0
1, 35904, Note_on_c, 0, 81, 80
1, 35949, Note_on_c, 0, 81, 0
1, 35952, Note_on_c, 0, 83, 80
1, 35958, Note_on_c, 0, 83, 0
1, 35958, Note_on_c, 0, 81, 80
1, 35964, Note_on_c, 0, 81, 0
1, 35964, Note_on_c, 0, 80, 80
1, 35970, Note_on_c, 0, 80, 0
1, 35970, Note_on_c, 0, 81, 80
1, 35986, Note_on_c, 0, 81, 0
1, 35988, Note_on_c, 0, 83, 80
1, 36000, Note_on_c, 0, 83, 0
1, 36000, Note_on_c, 0, 86, 80
1, 36000, Note_on_c, 1, 79, 80
1, 36000, Note_on_c, 1, 76, 80
1, 36024, Note_on_c, 0, 86, 0
1, 36024, Note_on_c, 0, 84, 96
1, 36048, Note_on_c, 0, 84, 0
1, 36048, Note_on_c, 0, 84, 76
1, 36082, Note_on_c, 0, 84, 0
1, 36084, Note_on_c, 0, 83, 74
1, 36089, Note_on_c, 1, 79, 0
1, 36089, Note_on_c, 1, 76, 0
1, 36096, Note_on_c, 0, 83, 0
1, 36096, Note_on_c, 0, 83, 73
1, 36096, Note_on_c, 1, 78, 74
1, 36096, Note_on_c, 1, 75, 74
1, 36216, Note_on_c, 0, 83, 0
1, 36216, Note_on_c, 0, 81, 66
1, 36229, Note_on_c, 1, 78, 0
1, 36229, Note_on_c, 1, 75, 0
1, 36239, Note_on_c, 0, 81, 0
1, 36240, Note_on_c, 0, 84, 66
1, 36240, Note_on_c, 1, 75, 66
1, 36264, Note_on_c, 0, 84, 0
1, 36264, Note_on_c, 0, 81, 66
1, 36287, Note_on_c, 0, 81, 0
1, 36288, Note_on_c, 0, 81, 66
1, 36288, Note_on_c, 1, 75, 0
1, 36288, Note_on_c, 1, 76, 66
1, 36312, Note_on_c, 0, 81, 0
1, 36312, Note_on_c, 0, 79, 66
1, 36333, Note_on_c, 1, 76, 0
1, 36335, Note_on_c, 0, 79, 0
1, 36336, Note_on_c, 0, 83, 66
1, 36336, Note_on_c, 1, 73, 66
1, 36360, Note_on_c, 0, 83, 0
1, 36360, Note_on_c, 0, 79, 66
1, 36381, Note_on_c, 1, 73, 0
1, 36383, Note_on_c, 0, 79, 0
1, 36384, Note_on_c, 0, 79, 66
1, 36384, Note_on_c, 1, 74, 66
1, 36408, Note_on_c, 0, 79, 0
1, 36408, Note_on_c, 0, 78, 66
1, 36429, Note_on_c, 1, 74, 0
1, 36431, Note_on_c, 0, 78, 0
1, 36432, Note_on_c, 0, 81, 66
1, 36432, Note_on_c, 1, 66, 66
1, 36456, Note_on_c, 0, 81, 0
1, 36456, Note_on_c, 0, 78, 66
1, 36477, Note_on_c, 1, 66, 0
1, 36479, Note_on_c, 0, 78, 0
1, 36480, Note_on_c, 0, 78, 66
1, 36480, Note_on_c, 1, 67, 66
1, 36504, Note_on_c, 0, 78, 0
1, 36504, Note_on_c, 0, 76, 66
1, 36525, Note_on_c, 1, 67, 0
1, 36527, Note_on_c, 0, 76, 0
1, 36528, Note_on_c, 0, 77, 106
1, 36528, Note_on_c, 1, 68, 66
1, 36552, Note_on_c, 0, 77, 0
1, 36552, Note_on_c, 0, 74, 66
1, 36573, Note_on_c, 1, 68, 0
1, 36575, Note_on_c, 0, 74, 0
1, 36576, Note_on_c, 0, 74, 66
1, 36576, Note_on_c, 1, 69, 66
1, 36665, Note_on_c, 1, 69, 0
1, 36672, Note_on_c, 0, 74, 0
1, 36672, Note_on_c, 0, 73, 66
1, 36672, Note_on_c, 1, 57, 66
1, 36717, Note_on_c, 0, 73, 0
1, 36717, Note_on_c, 1, 57, 0
1, 36840, Note_on_c, 0, 69, 80
1, 36863, Note_on_c, 0, 69, 0
1, 36864, Note_on_c, 0, 74, 80
1, 36864, Note_on_c, 1, 50, 80
1, 36864, Note_on_c, 1, 45, 80
1, 36864, Note_on_c, 1, 42, 80
1, 36864, Note_on_c, 1, 38, 80
1, 36924, Note_on_c, 0, 74, 0
1, 36924, Note_on_c, 0, 73, 80
1, 36930, Note_on_c, 0, 73, 0
1, 36930, Note_on_c, 0, 71, 80
1, 36936, Note_on_c, 0, 71, 0
1, 36936, Note_on_c, 0, 69, 80
1, 36942, Note_on_c, 0, 69, 0
1, 36942, Note_on_c, 0, 67, 80
1, 36948, Note_on_c, 0, 67, 0
1, 36948, Note_on_c, 0, 66, 80
1, 36953, Note_on_c, 1, 50, 0
1, 36953, Note_on_c, 1, 45, 0
1, 36953, Note_on_c, 1, 42, 0
1, 36953, Note_on_c, 1, 38, 0
1, 36954, Note_on_c, 0, 66, 0
1, 36954, Note_on_c, 0, 64, 80
1, 36960, Note_on_c, 0, 64, 0
1, 36960, Note_on_c, 0, 62, 80
1, 37005, Note_on_c, 0, 62, 0
1, 37032, Note_on_c, 0, 81, 80
1, 37040, Note_on_c, 0, 81, 0
1, 37040, Note_on_c, 0, 83, 80
1, 37048, Note_on_c, 0, 83, 0
1, 37048, Note_on_c, 0, 81, 80
1, 37056, Note_on_c, 0, 81, 0
1, 37056, Note_on_c, 0, 86, 80
1, 37116, Note_on_c, 0, 86, 0
1, 37116, Note_on_c, 0, 85, 80
1, 37128, Note_on_c, 0, 85, 0
1, 37128, Note_on_c, 0, 83, 80
1, 37134, Note_on_c, 0, 83, 0
1, 37134, Note_on_c, 0, 81, 80
1, 37140, Note_on_c, 0, 81, 0
1, 37140, Note_on_c, 0, 79, 80
1, 37146, Note_on_c, 0, 79, 0
1, 37146, Note_on_c, 0, 78, 80
1, 37152, Note_on_c, 0, 78, 0
1, 37152, Note_on_c, 0, 76, 80
1, 37152, Note_on_c, 1, 67, 80
1, 37152, Note_on_c, 1, 62, 80
1, 37212, Note_on_c, 0, 76, 0
1, 37212, Note_on_c, 0, 74, 80
1, 37224, Note_on_c, 0, 74, 0
1, 37224, Note_on_c, 0, 73, 80
1, 37236, Note_on_c, 0, 73, 0
1, 37236, Note_on_c, 0, 71, 80
1, 37241, Note_on_c, 1, 67, 0
1, 37241, Note_on_c, 1, 62, 0
1, 37242, Note_on_c, 0, 71, 0
1, 37242, Note_on_c, 0, 69, 80
1, 37248, Note_on_c, 0, 69, 0
1, 37248, Note_on_c, 0, 74, 80
1, 37248, Note_on_c, 1, 66, 80
1, 37248, Note_on_c, 1, 62, 80
1, 37293, Note_on_c, 1, 66, 0
1, 37293, Note_on_c, 1, 62, 0
1, 37295, Note_on_c, 0, 74, 0
1, 37332, Note_on_c, 0, 73, 80
1, 37344, Note_on_c, 0, 73, 0
1, 37344, Note_on_c, 0, 74, 80
1, 37356, Note_on_c, 0, 74, 0
1, 37356, Note_on_c, 0, 78, 78
1, 37368, Note_on_c, 0, 78, 0
1, 37368, Note_on_c, 0, 76, 77
1, 37380, Note_on_c, 0, 76, 0
1, 37380, Note_on_c, 0, 79, 75
1, 37392, Note_on_c, 0, 79, 0
1, 37392, Note_on_c, 0, 78, 74
1, 37404, Note_on_c, 0, 78, 0
1, 37404, Note_on_c, 0, 81, 73
1, 37416, Note_on_c, 0, 81, 0
1, 37416, Note_on_c, 0, 79, 71
1, 37428, Note_on_c, 0, 79, 0
1, 37428, Note_on_c, 0, 83, 70
1, 37440, Note_on_c, 0, 83, 0
1, 37440, Note_on_c, 0, 81, 68
1, 37440, Note_on_c, 1, 71, 66
1, 37460, Note_on_c, 1, 71, 0
1, 37464, Note_on_c, 0, 81, 0
1, 37464, Note_on_c, 0, 79, 66
1, 37487, Note_on_c, 0, 79, 0
1, 37488, Note_on_c, 1, 69, 66
1, 37508, Note_on_c, 1, 69, 0
1, 37512, Note_on_c, 0, 78, 66
1, 37535, Note_on_c, 0, 78, 0
1, 37536, Note_on_c, 1, 67, 66
1, 37556, Note_on_c, 1, 67, 0
1, 37560, Note_on_c, 0, 76, 68
1, 37583, Note_on_c, 0, 76, 0
1, 37584, Note_on_c, 1, 66, 68
1, 37604, Note_on_c, 1, 66, 0
1, 37608, Note_on_c, 0, 74, 71
1, 37631, Note_on_c, 0, 74, 0
1, 37632, Note_on_c, 1, 64, 70
1, 37652, Note_on_c, 1, 64, 0
1, 37656, Note_on_c, 0, 73, 74
1, 37679, Note_on_c, 0, 73, 0
1, 37680, Note_on_c, 1, 62, 73
1, 37700, Note_on_c, 1, 62, 0
1, 37704, Note_on_c, 0, 74, 76
1, 37727, Note_on_c, 0, 74, 0
1, 37728, Note_on_c, 0, 79, 78
1, 37728, Note_on_c, 1, 62, 75
1, 37728, Note_on_c, 1, 57, 75
1, 37734, Note_on_c, 0, 79, 0
1, 37734, Note_on_c, 0, 78, 78
1, 37740, Note_on_c, 0, 78, 0
1, 37740, Note_on_c, 0, 76, 78
1, 37746, Note_on_c, 0, 76, 0
1, 37746, Note_on_c, 0, 78, 78
1, 37762, Note_on_c, 0, 78, 0
1, 37764, Note_on_c, 0, 79, 80
1, 37776, Note_on_c, 0, 79, 0
1, 37776, Note_on_c, 0, 80, 80
1, 37804, Note_on_c, 0, 80, 0
1, 37806, Note_on_c, 0, 83, 80
1, 37812, Note_on_c, 0, 83, 0
1, 37812, Note_on_c, 0, 81, 80
1, 37824, Note_on_c, 0, 81, 0
1, 37824, Note_on_c, 0, 79, 80
1, 37824, Note_on_c, 1, 62, 0
1, 37824, Note_on_c, 1, 61, 80
1, 37830, Note_on_c, 0, 79, 0
1, 37830, Note_on_c, 0, 78, 80
1, 37836, Note_on_c, 0, 78, 0
1, 37836, Note_on_c, 0, 76, 80
1, 37842, Note_on_c, 0, 76, 0
1, 37842, Note_on_c, 0, 78, 80
1, 37848, Note_on_c, 0, 78, 0
1, 37848, Note_on_c, 0, 76, 80
1, 37869, Note_on_c, 0, 76, 0
1, 37869, Note_on_c, 1, 61, 0
1, 37869, Note_on_c, 1, 57, 0
1, 37992, Note_on_c, 0, 74, 80
1, 38000, Note_on_c, 0, 74, 0
1, 38000, Note_on_c, 0, 78, 80
1, 38008, Note_on_c, 0, 78, 0
1, 38008, Note_on_c, 0, 81, 80
1, 38016, Note_on_c, 0, 81, 0
1, 38016, Note_on_c, 0, 86, 80
1, 38016, Note_on_c, 1, 57, 80
1, 38016, Note_on_c, 1, 54, 80
1, 38016, Note_on_c, 1, 50, 80
1, 38036, Note_on_c, 0, 86, 0
1, 38064, Note_on_c, 0, 88, 80
1, 38070, Note_on_c, 0, 88, 0
1, 38070, Note_on_c, 0, 86, 80
1, 38076, Note_on_c, 0, 86, 0
1, 38076, Note_on_c, 0, 85, 80
1, 38082, Note_on_c, 0, 85, 0
1, 38082, Note_on_c, 0, 86, 80
1, 38098, Note_on_c, 0, 86, 0
1, 38100, Note_on_c, 0, 88, 80
1, 38105, Note_on_c, 1, 57, 0
1, 38105, Note_on_c, 1, 54, 0
1, 38105, Note_on_c, 1, 50, 0
1, 38112, Note_on_c, 0, 88, 0
1, 38112, Note_on_c, 0, 85, 80
1, 38112, Note_on_c, 1, 61, 80
1, 38112, Note_on_c, 1, 57, 80
1, 38112, Note_on_c, 1, 55, 80
1, 38112, Note_on_c, 1, 52, 80
1, 38159, Note_on_c, 0, 85, 0
1, 38201, Note_on_c, 1, 61, 0
1, 38201, Note_on_c, 1, 57, 0
1, 38201, Note_on_c, 1, 55, 0
1, 38201, Note_on_c, 1, 52, 0
1, 38208, Note_on_c, 1, 57, 80
1, 38253, Note_on_c, 1, 57, 0
1, 38256, Note_on_c, 1, 59, 80
1, 38262, Note_on_c, 1, 59, 0
1, 38262, Note_on_c, 1, 57, 80
1, 38268, Note_on_c, 1, 57, 0
1, 38268, Note_on_c, 1, 56, 80
1, 38274, Note_on_c, 1, 56, 0
1, 38274, Note_on_c, 1, 57, 80
1, 38290, Note_on_c, 1, 57, 0
1, 38292, Note_on_c, 1, 59, 80
1, 38304, Note_on_c, 0, 62, 80
1, 38304, Note_on_c, 1, 59, 0
1, 38304, Note_on_c, 1, 55, 80
1, 38304, Note_on_c, 1, 52, 80
1, 38349, Note_on_c, 0, 62, 0
1, 38352, Note_on_c, 0, 60, 80
1, 38393, Note_on_c, 1, 55, 0
1, 38393, Note_on_c, 1, 52, 0
1, 38400, Note_on_c, 1, 54, 80
1, 38400, Note_on_c, 1, 51, 80
1, 38434, Note_on_c, 0, 60, 0
1, 38436, Note_on_c, 0, 59, 80
1, 38448, Note_on_c, 0, 59, 0
1, 38448, Note_on_c, 0, 72, 104
1, 38489, Note_on_c, 1, 54, 0
1, 38489, Note_on_c, 1, 51, 0
1, 38496, Note_on_c, 1, 66, 66
1, 38496, Note_on_c, 1, 63, 66
1, 38519, Note_on_c, 0, 72, 0
1, 38520, Note_on_c, 0, 71, 76
1, 38543, Note_on_c, 0, 71, 0
1, 38544, Note_on_c, 0, 70, 73
1, 38567, Note_on_c, 0, 70, 0
1, 38568, Note_on_c, 0, 69, 69
1, 38585, Note_on_c, 1, 66, 0
1, 38585, Note_on_c, 1, 63, 0
1, 38591, Note_on_c, 0, 69, 0
1, 38592, Note_on_c, 0, 69, 66
1, 38592, Note_on_c, 1, 64, 66
1, 38615, Note_on_c, 0, 69, 0
1, 38616, Note_on_c, 0, 67, 66
1, 38637, Note_on_c, 1, 64, 0
1, 38640, Note_on_c, 1, 61, 66
1, 38661, Note_on_c, 0, 67, 0
1, 38664, Note_on_c, 0, 71, 66
1, 38670, Note_on_c, 0, 71, 0
1, 38670, Note_on_c, 0, 69, 66
1, 38685, Note_on_c, 1, 61, 0
1, 38687, Note_on_c, 0, 69, 0
1, 38688, Note_on_c, 0, 67, 66
1, 38688, Note_on_c, 1, 62, 66
1, 38711, Note_on_c, 0, 67, 0
1, 38712, Note_on_c, 0, 66, 66
1, 38733, Note_on_c, 1, 62, 0
1, 38736, Note_on_c, 1, 54, 80
1, 38736, Note_on_c, 1, 42, 80
1, 38757, Note_on_c, 0, 66, 0
1, 38760, Note_on_c, 0, 81, 80
1, 38760, Note_on_c, 0, 69, 80
1, 38781, Note_on_c, 1, 54, 0
1, 38781, Note_on_c, 1, 42, 0
1, 38784, Note_on_c, 1, 55, 80
1, 38784, Note_on_c, 1, 43, 80
1, 38805, Note_on_c, 0, 81, 0
1, 38805, Note_on_c, 0, 69, 0
1, 38808, Note_on_c, 0, 82, 80
1, 38808, Note_on_c, 0, 70, 80
1, 38829, Note_on_c, 1, 55, 0
1, 38829, Note_on_c, 1, 43, 0
1, 38832, Note_on_c, 1, 56, 80
1, 38832, Note_on_c, 1, 44, 80
1, 38853, Note_on_c, 0, 82, 0
1, 38853, Note_on_c, 0, 70, 0
1, 38856, Note_on_c, 0, 83, 80
1, 38856, Note_on_c, 0, 71, 80
1, 38877, Note_on_c, 1, 56, 0
1, 38877, Note_on_c, 1, 44, 0
1, 38879, Note_on_c, 0, 83, 0
1, 38879, Note_on_c, 0, 71, 0
1, 38880, Note_on_c, 0, 78, 80
1, 38880, Note_on_c, 0, 74, 80
1, 38880, Note_on_c, 1, 66, 80
1, 38947, Note_on_c, 1, 66, 0
1, 38952, Note_on_c, 1, 68, 74
1, 38975, Note_on_c, 1, 68, 0
1, 38976, Note_on_c, 0, 78, 0
1, 38976, Note_on_c, 0, 74, 0
1, 38976, Note_on_c, 0, 76, 73
1, 38976, Note_on_c, 0, 73, 73
1, 38976, Note_on_c, 1, 69, 73
1, 39065, Note_on_c, 0, 76, 0
1, 39065, Note_on_c, 0, 73, 0
1, 39065, Note_on_c, 1, 69, 0
1, 39144, Note_on_c, 1, 47, 80
1, 39152, Note_on_c, 1, 47, 0
1, 39152, Note_on_c, 1, 51, 80
1, 39160, Note_on_c, 1, 51, 0
1, 39160, Note_on_c, 1, 54, 80
1, 39168, Note_on_c, 1, 54, 0
1, 39168, Note_on_c, 1, 59, 80
1, 39235, Note_on_c, 1, 59, 0
1, 39240, Note_on_c, 1, 59, 80
1, 39263, Note_on_c, 1, 59, 0
1, 39264, Note_on_c, 1, 59, 80
1, 39309, Note_on_c, 1, 59, 0
1, 39312, Note_on_c, 0, 84, 66
1, 39336, Note_on_c, 0, 84, 0
1, 39336, Note_on_c, 0, 81, 66
1, 39359, Note_on_c, 0, 81, 0
1, 39360, Note_on_c, 0, 83, 66
1, 39384, Note_on_c, 0, 83, 0
1, 39384, Note_on_c, 0, 79, 66
1, 39407, Note_on_c, 0, 79, 0
1, 39408, Note_on_c, 0, 81, 66
1, 39432, Note_on_c, 0, 81, 0
1, 39432, Note_on_c, 0, 78, 66
1, 39432, Note_on_c, 1, 63, 66
1, 39455, Note_on_c, 0, 78, 0
1, 39455, Note_on_c, 1, 63, 0
1, 39456, Note_on_c, 0, 79, 66
1, 39456, Note_on_c, 1, 64, 66
1, 39480, Note_on_c, 1, 64, 0
1, 39480, Note_on_c, 1, 67, 66
1, 39501, Note_on_c, 0, 79, 0
1, 39503, Note_on_c, 1, 67, 0
1, 39504, Note_on_c, 1, 66, 66
1, 39528, Note_on_c, 1, 66, 0
1, 39528, Note_on_c, 1, 69, 66
1, 39551, Note_on_c, 1, 69, 0
1, 39552, Note_on_c, 1, 67, 66
1, 39597, Note_on_c, 1, 67, 0
1, 39600, Note_on_c, 0, 84, 66
1, 39615, Note_on_c, 0, 84, 0
1, 39616, Note_on_c, 0, 83, 66
1, 39631, Note_on_c, 0, 83, 0
1, 39632, Note_on_c, 0, 79, 66
1, 39647, Note_on_c, 0, 79, 0
1, 39648, Note_on_c, 0, 83, 66
1, 39663, Note_on_c, 0, 83, 0
1, 39664, Note_on_c, 0, 81, 66
1, 39679, Note_on_c, 0, 81, 0
1, 39680, Note_on_c, 0, 78, 66
1, 39695, Note_on_c, 0, 78, 0
1, 39696, Note_on_c, 0, 81, 66
1, 39711, Note_on_c, 0, 81, 0
1, 39712, Note_on_c, 0, 79, 66
1, 39720, Note_on_c, 1, 61, 66
1, 39727, Note_on_c, 0, 79, 0
1, 39728, Note_on_c, 0, 76, 66
1, 39743, Note_on_c, 0, 76, 0
1, 39743, Note_on_c, 1, 61, 0
1, 39744, Note_on_c, 0, 78, 66
1, 39744, Note_on_c, 1, 61, 66
1, 39759, Note_on_c, 1, 61, 0
1, 39760, Note_on_c, 1, 62, 66
1, 39775, Note_on_c, 1, 62, 0
1, 39776, Note_on_c, 1, 66, 66
1, 39789, Note_on_c, 0, 78, 0
1, 39791, Note_on_c, 1, 66, 0
1, 39792, Note_on_c, 1, 63, 66
1, 39807, Note_on_c, 1, 63, 0
1, 39808, Note_on_c, 1, 64, 66
1, 39823, Note_on_c, 1, 64, 0
1, 39824, Note_on_c, 1, 67, 66
1, 39839, Note_on_c, 1, 67, 0
1, 39840, Note_on_c, 1, 66, 66
1, 39856, Note_on_c, 0, 86, 66
1, 39871, Note_on_c, 0, 86, 0
1, 39872, Note_on_c, 0, 85, 66
1, 39885, Note_on_c, 1, 66, 0
1, 39887, Note_on_c, 0, 85, 0
1, 39888, Note_on_c, 0, 84, 66
1, 39903, Note_on_c, 0, 84, 0
1, 39904, Note_on_c, 0, 83, 66
1, 39919, Note_on_c, 0, 83, 0
1, 39920, Note_on_c, 0, 82, 66
1, 39935, Note_on_c, 0, 82, 0
1, 39936, Note_on_c, 0, 81, 66
1, 39951, Note_on_c, 0, 81, 0
1, 39952, Note_on_c, 0, 80, 66
1, 39967, Note_on_c, 0, 80, 0
1, 39968, Note_on_c, 0, 79, 66
1, 39983, Note_on_c, 0, 79, 0
1, 39984, Note_on_c, 0, 78, 66
1, 39999, Note_on_c, 0, 78, 0
1, 40000, Note_on_c, 0, 77, 66
1, 40015, Note_on_c, 0, 77, 0
1, 40016, Note_on_c, 0, 76, 66
1, 40031, Note_on_c, 0, 76, 0
1, 40032, Note_on_c, 0, 74, 66
1, 40032, Note_on_c, 1, 66, 66
1, 40032, Note_on_c, 1, 57, 66
1, 40128, Note_on_c, 0, 74, 0
1, 40128, Note_on_c, 0, 73, 66
1, 40128, Note_on_c, 1, 66, 0
1, 40128, Note_on_c, 1, 64, 66
1, 40173, Note_on_c, 0, 73, 0
1, 40173, Note_on_c, 1, 64, 0
1, 40173, Note_on_c, 1, 57, 0
1, 40176, Note_on_c, 1, 71, 70
1, 40176, Note_on_c, 1, 67, 70
1, 40221, Note_on_c, 1, 71, 0
1, 40221, Note_on_c, 1, 67, 0
1, 40224, Note_on_c, 1, 69, 67
1, 40224, Note_on_c, 1, 66, 67
1, 40269, Note_on_c, 1, 69, 0
1, 40269, Note_on_c, 1, 66, 0
1, 40272, Note_on_c, 1, 67, 64
1, 40272, Note_on_c, 1, 64, 64
1, 40296, Note_on_c, 0, 69, 66
1, 40317, Note_on_c, 1, 67, 0
1, 40317, Note_on_c, 1, 64, 0
1, 40319, Note_on_c, 0, 69, 0
1, 40320, Note_on_c, 0, 74, 66
1, 40320, Note_on_c, 1, 66, 66
1, 40320, Note_on_c, 1, 62, 66
1, 40365, Note_on_c, 1, 66, 0
1, 40365, Note_on_c, 1, 62, 0
1, 40387, Note_on_c, 0, 74, 0
1, 40392, Note_on_c, 0, 74, 66
1, 40402, Note_on_c, 0, 74, 0
1, 40416, Note_on_c, 0, 74, 66
1, 40416, Note_on_c, 1, 66, 66
1, 40416, Note_on_c, 1, 62, 66
1, 40436, Note_on_c, 0, 74, 0
1, 40461, Note_on_c, 1, 66, 0
1, 40461, Note_on_c, 1, 62, 0
1, 40584, Note_on_c, 0, 69, 66
1, 40592, Note_on_c, 0, 69, 0
1, 40592, Note_on_c, 0, 74, 66
1, 40600, Note_on_c, 0, 74, 0
1, 40600, Note_on_c, 0, 78, 66
1, 40608, Note_on_c, 0, 78, 0
1, 40608, Note_on_c, 0, 78, 66
1, 40608, Note_on_c, 1, 67, 66
1, 40608, Note_on_c, 1, 62, 66
1, 40632, Note_on_c, 0, 78, 0
1, 40632, Note_on_c, 0, 76, 66
1, 40655, Note_on_c, 0, 76, 0
1, 40656, Note_on_c, 0, 83, 66
1, 40680, Note_on_c, 0, 83, 0
1, 40680, Note_on_c, 0, 73, 66
1, 40703, Note_on_c, 0, 73, 0
1, 40704, Note_on_c, 0, 76, 66
1, 40704, Note_on_c, 1, 67, 0
1, 40704, Note_on_c, 1, 66, 66
1, 40727, Note_on_c, 0, 76, 0
1, 40728, Note_on_c, 0, 74, 66
1, 40749, Note_on_c, 1, 66, 0
1, 40749, Note_on_c, 1, 62, 0
1, 40751, Note_on_c, 0, 74, 0
1, 40752, Note_on_c, 0, 86, 66
1, 40823, Note_on_c, 0, 86, 0
1, 40824, Note_on_c, 0, 85, 67
1, 40836, Note_on_c, 0, 85, 0
1, 40836, Note_on_c, 0, 86, 68
1, 40848, Note_on_c, 0, 86, 0
1, 40848, Note_on_c, 0, 88, 69
1, 40860, Note_on_c, 0, 88, 0
1, 40860, Note_on_c, 0, 86, 70
1, 40872, Note_on_c, 0, 86, 0
1, 40872, Note_on_c, 0, 85, 71
1, 40884, Note_on_c, 0, 85, 0
1, 40884, Note_on_c, 0, 83, 72
1, 40896, Note_on_c, 0, 83, 0
1, 40896, Note_on_c, 0, 79, 73
1, 40896, Note_on_c, 1, 74, 75
1, 40896, Note_on_c, 1, 71, 75
1, 40906, Note_on_c, 0, 79, 0
1, 40920, Note_on_c, 0, 79, 75
1, 40932, Note_on_c, 0, 79, 0
1, 40932, Note_on_c, 0, 81, 75
1, 40941, Note_on_c, 1, 74, 0
1, 40941, Note_on_c, 1, 71, 0
1, 40944, Note_on_c, 0, 81, 0
1, 40944, Note_on_c, 0, 83, 75
1, 40956, Note_on_c, 0, 83, 0
1, 40956, Note_on_c, 0, 81, 75
1, 40968, Note_on_c, 0, 81, 0
1, 40968, Note_on_c, 0, 79, 75
1, 40980, Note_on_c, 0, 79, 0
1, 40980, Note_on_c, 0, 78, 75
1, 40980, Note_on_c, 1, 73, 75
1, 40980, Note_on_c, 1, 69, 75
1, 40992, Note_on_c, 0, 78, 0
1, 40992, Note_on_c, 0, 76, 75
1, 40992, Note_on_c, 1, 73, 0
1, 40992, Note_on_c, 1, 69, 0
1, 40992, Note_on_c, 1, 71, 75
1, 40992, Note_on_c, 1, 67, 75
1, 41002, Note_on_c, 0, 76, 0
1, 41016, Note_on_c, 0, 76, 73
1, 41028, Note_on_c, 0, 76, 0
1, 41028, Note_on_c, 0, 78, 72
1, 41037, Note_on_c, 1, 71, 0
1, 41037, Note_on_c, 1, 67, 0
1, 41040, Note_on_c, 0, 78, 0
1, 41040, Note_on_c, 0, 79, 71
1, 41052, Note_on_c, 0, 79, 0
1, 41052, Note_on_c, 0, 78, 70
1, 41064, Note_on_c, 0, 78, 0
1, 41064, Note_on_c, 0, 76, 69
1, 41076, Note_on_c, 0, 76, 0
1, 41076, Note_on_c, 0, 74, 68
1, 41076, Note_on_c, 1, 69, 69
1, 41076, Note_on_c, 1, 66, 69
1, 41088, Note_on_c, 0, 74, 0
1, 41088, Note_on_c, 0, 73, 67
1, 41088, Note_on_c, 1, 69, 0
1, 41088, Note_on_c, 1, 66, 0
1, 41088, Note_on_c, 1, 67, 69
1, 41088, Note_on_c, 1, 64, 69
1, 41111, Note_on_c, 0, 73, 0
1, 41133, Note_on_c, 1, 67, 0
1, 41133, Note_on_c, 1, 64, 0
1, 41136, Note_on_c, 0, 74, 66
1, 41146, Note_on_c, 0, 74, 0
1, 41172, Note_on_c, 1, 66, 66
1, 41172, Note_on_c, 1, 62, 66
1, 41184, Note_on_c, 0, 78, 66
1, 41184, Note_on_c, 1, 66, 0
1, 41184, Note_on_c, 1, 62, 0
1, 41184, Note_on_c, 1, 62, 66
1, 41280, Note_on_c, 0, 78, 0
1, 41280, Note_on_c, 0, 76, 66
1, 41280, Note_on_c, 1, 62, 0
1, 41280, Note_on_c, 1, 61, 66
1, 41369, Note_on_c, 0, 76, 0
1, 41369, Note_on_c, 1, 61, 0
1, 41448, Note_on_c, 0, 74, 80
1, 41456, Note_on_c, 0, 74, 0
1, 41456, Note_on_c, 0, 78, 80
1, 41464, Note_on_c, 0, 78, 0
1, 41464, Note_on_c, 0, 81, 80
1, 41472, Note_on_c, 0, 81, 0
1, 41472, Note_on_c, 0, 86, 80
1, 41472, Note_on_c, 1, 57, 84
1, 41472, Note_on_c, 1, 54, 84
1, 41472, Note_on_c, 1, 50, 84
1, 41492, Note_on_c, 0, 86, 0
1, 41520, Note_on_c, 0, 88, 80
1, 41526, Note_on_c, 0, 88, 0
1, 41526, Note_on_c, 0, 86, 80
1, 41532, Note_on_c, 0, 86, 0
1, 41532, Note_on_c, 0, 85, 80
1, 41538, Note_on_c, 0, 85, 0
1, 41538, Note_on_c, 0, 86, 80
1, 41554, Note_on_c, 0, 86, 0
1, 41556, Note_on_c, 0, 88, 80
1, 41561, Note_on_c, 1, 57, 0
1, 41561, Note_on_c, 1, 54, 0
1, 41561, Note_on_c, 1, 50, 0
1, 41568, Note_on_c, 0, 88, 0
1, 41568, Note_on_c, 0, 85, 80
1, 41568, Note_on_c, 1, 61, 84
1, 41568, Note_on_c, 1, 57, 84
1, 41568, Note_on_c, 1, 55, 84
1, 41568, Note_on_c, 1, 52, 84
1, 41615, Note_on_c, 0, 85, 0
1, 41657, Note_on_c, 1, 61, 0
1, 41657, Note_on_c, 1, 57, 0
1, 41657, Note_on_c, 1, 55, 0
1, 41657, Note_on_c, 1, 52, 0
1, 41664, Note_on_c, 0, 69, 80
1, 41676, Note_on_c, 0, 69, 0
1, 41676, Note_on_c, 0, 71, 80
1, 41688, Note_on_c, 0, 71, 0
1, 41688, Note_on_c, 0, 73, 81
1, 41700, Note_on_c, 0, 73, 0
1, 41700, Note_on_c, 0, 74, 81
1, 41712, Note_on_c, 0, 74, 0
1, 41712, Note_on_c, 0, 76, 82
1, 41722, Note_on_c, 0, 76, 0
1, 41722, Note_on_c, 0, 78, 82
1, 41732, Note_on_c, 0, 78, 0
1, 41732, Note_on_c, 0, 79, 82
1, 41742, Note_on_c, 0, 79, 0
1, 41742, Note_on_c, 0, 81, 82
1, 41751, Note_on_c, 0, 81, 0
1, 41751, Note_on_c, 0, 83, 83
1, 41760, Note_on_c, 0, 83, 0
1, 41760, Note_on_c, 0, 85, 84
1, 41760, Note_on_c, 1, 61, 84
1, 41760, Note_on_c, 1, 55, 84
1, 41760, Note_on_c, 1, 52, 84
1, 41805, Note_on_c, 0, 85, 0
1, 41808, Note_on_c, 0, 86, 108
1, 41814, Note_on_c, 0, 86, 0
1, 41814, Note_on_c, 0, 85, 108
1, 41820, Note_on_c, 0, 85, 0
1, 41820, Note_on_c, 0, 83, 108
1, 41826, Note_on_c, 0, 83, 0
1, 41826, Note_on_c, 0, 85, 124
1, 41844, Note_on_c, 0, 85, 0
1, 41844, Note_on_c, 0, 86, 84
1, 41849, Note_on_c, 1, 61, 0
1, 41849, Note_on_c, 1, 55, 0
1, 41849, Note_on_c, 1, 52, 0
1, 41856, Note_on_c, 0, 86, 0
1, 41856, Note_on_c, 0, 84, 84
1, 41856, Note_on_c, 1, 63, 84
1, 41856, Note_on_c, 1, 60, 84
1, 41856, Note_on_c, 1, 57, 84
1, 41856, Note_on_c, 1, 54, 84
1, 41901, Note_on_c, 0, 84, 0
1, 41904, Note_on_c, 0, 86, 108
1, 41910, Note_on_c, 0, 86, 0
1, 41910, Note_on_c, 0, 84, 108
1, 41916, Note_on_c, 0, 84, 0
1, 41916, Note_on_c, 0, 83, 108
1, 41922, Note_on_c, 0, 83, 0
1, 41922, Note_on_c, 0, 84, 124
1, 41940, Note_on_c, 0, 84, 0
1, 41940, Note_on_c, 0, 86, 84
1, 41945, Note_on_c, 1, 63, 0
1, 41945, Note_on_c, 1, 60, 0
1, 41945, Note_on_c, 1, 57, 0
1, 41945, Note_on_c, 1, 54, 0
1, 41952, Note_on_c, 0, 86, 0
1, 41952, Note_on_c, 0, 83, 84
1, 41952, Note_on_c, 1, 64, 84
1, 41952, Note_on_c, 1, 59, 84
1, 41952, Note_on_c, 1, 55, 84
1, 41997, Note_on_c, 0, 83, 0
1, 42000, Note_on_c, 0, 81, 84
1, 42012, Note_on_c, 0, 81, 0
1, 42012, Note_on_c, 0, 79, 84
1, 42024, Note_on_c, 0, 79, 0
1, 42024, Note_on_c, 0, 78, 84
1, 42036, Note_on_c, 0, 78, 0
1, 42036, Note_on_c, 0, 76, 84
1, 42041, Note_on_c, 1, 64, 0
1, 42041, Note_on_c, 1, 59, 0
1, 42041, Note_on_c, 1, 55, 0
1, 42048, Note_on_c, 0, 76, 0
1, 42048, Note_on_c, 0, 81, 80
1, 42048, Note_on_c, 1, 66, 84
1, 42048, Note_on_c, 1, 62, 84
1, 42048, Note_on_c, 1, 57, 84
1, 42189, Note_on_c, 0, 81, 0
1, 42192, Note_on_c, 0, 79, 69
1, 42204, Note_on_c, 0, 79, 0
1, 42204, Note_on_c, 0, 78, 68
1, 42216, Note_on_c, 0, 78, 0
1, 42216, Note_on_c, 0, 76, 67
1, 42225, Note_on_c, 1, 66, 0
1, 42225, Note_on_c, 1, 62, 0
1, 42225, Note_on_c, 1, 57, 0
1, 42228, Note_on_c, 0, 76, 0
1, 42228, Note_on_c, 0, 74, 66
1, 42240, Note_on_c, 0, 74, 0
1, 42240, Note_on_c, 0, 73, 66
1, 42240, Note_on_c, 1, 67, 66
1, 42240, Note_on_c, 1, 64, 66
1, 42240, Note_on_c, 1, 57, 66
1, 42260, Note_on_c, 0, 73, 0
1, 42285, Note_on_c, 1, 67, 0
1, 42285, Note_on_c, 1, 64, 0
1, 42285, Note_on_c, 1, 57, 0
1, 42288, Note_on_c, 0, 76, 66
1, 42288, Note_on_c, 0, 67, 66
1, 42308, Note_on_c, 0, 76, 0
1, 42308, Note_on_c, 0, 67, 0
1, 42336, Note_on_c, 0, 74, 66
1, 42336, Note_on_c, 0, 66, 66
1, 42336, Note_on_c, 1, 50, 62
1, 42356, Note_on_c, 0, 74, 0
1, 42356, Note_on_c, 0, 66, 0
1, 42381, Note_on_c, 1, 50, 0
1, 42432, Note_on_c, 1, 62, 62
1, 42477, Note_on_c, 1, 62, 0
1, 42588, Note_on_c, 1, 47, 80
1, 42600, Note_on_c, 1, 47, 0
1, 42600, Note_on_c, 1, 51, 80
1, 42612, Note_on_c, 1, 51, 0
1, 42612, Note_on_c, 1, 54, 80
1, 42624, Note_on_c, 1, 54, 0
1, 42624, Note_on_c, 1, 59, 80
1, 42636, Note_on_c, 0, 71, 80
1, 42636, Note_on_c, 1, 59, 0
1, 42648, Note_on_c, 0, 71, 0
1, 42648, Note_on_c, 0, 75, 80
1, 42660, Note_on_c, 0, 75, 0
1, 42660, Note_on_c, 0, 78, 80
1, 42672, Note_on_c, 0, 78, 0
1, 42672, Note_on_c, 0, 83, 80
1, 42684, Note_on_c, 0, 83, 0
1, 42684, Note_on_c, 1, 59, 80
1, 42696, Note_on_c, 1, 59, 0
1, 42696, Note_on_c, 1, 63, 80
1, 42708, Note_on_c, 1, 63, 0
1, 42708, Note_on_c, 1, 66, 80
1, 42720, Note_on_c, 1, 66, 0
1, 42720, Note_on_c, 1, 69, 80
1, 42732, Note_on_c, 0, 71, 80
1, 42732, Note_on_c, 1, 69, 0
1, 42744, Note_on_c, 0, 71, 0
1, 42744, Note_on_c, 0, 75, 80
1, 42756, Note_on_c, 0, 75, 0
1, 42756, Note_on_c, 0, 78, 80
1, 42768, Note_on_c, 0, 78, 0
1, 42768, Note_on_c, 0, 81, 80
1, 42780, Note_on_c, 0, 81, 0
1, 42780, Note_on_c, 1, 63, 80
1, 42792, Note_on_c, 1, 63, 0
1, 42792, Note_on_c, 1, 66, 80
1, 42804, Note_on_c, 1, 66, 0
1, 42804, Note_on_c, 1, 69, 80
1, 42816, Note_on_c, 1, 69, 0
1, 42816, Note_on_c, 1, 72, 80
1, 42828, Note_on_c, 0, 75, 80
1, 42828, Note_on_c, 1, 72, 0
1, 42840, Note_on_c, 0, 75, 0
1, 42840, Note_on_c, 0, 78, 80
1, 42852, Note_on_c, 0, 78, 0
1, 42852, Note_on_c, 0, 81, 80
1, 42864, Note_on_c, 0, 81, 0
1, 42864, Note_on_c, 0, 84, 80
1, 42876, Note_on_c, 0, 84, 0
1, 42876, Note_on_c, 0, 81, 80
1, 42888, Note_on_c, 0, 81, 0
1, 42888, Note_on_c, 0, 79, 80
1, 42900, Note_on_c, 0, 79, 0
1, 42900, Note_on_c, 0, 78, 80
1, 42912, Note_on_c, 0, 78, 0
1, 42912, Note_on_c, 0, 79, 80
1, 42924, Note_on_c, 0, 79, 0
1, 42924, Note_on_c, 0, 64, 80
1, 42936, Note_on_c, 0, 64, 0
1, 42936, Note_on_c, 0, 67, 80
1, 42948, Note_on_c, 0, 67, 0
1, 42948, Note_on_c, 0, 71, 80
1, 42960, Note_on_c, 0, 71, 0
1, 42960, Note_on_c, 0, 76, 80
1, 42972, Note_on_c, 0, 76, 0
1, 42972, Note_on_c, 0, 79, 80
1, 42984, Note_on_c, 0, 79, 0
1, 42984, Note_on_c, 0, 83, 80
1, 42996, Note_on_c, 0, 83, 0
1, 42996, Note_on_c, 0, 87, 80
1, 43008, Note_on_c, 0, 87, 0
1, 43008, Note_on_c, 0, 88, 80
1, 43020, Note_on_c, 0, 88, 0
1, 43020, Note_on_c, 0, 83, 80
1, 43032, Note_on_c, 0, 83, 0
1, 43032, Note_on_c, 0, 84, 80
1, 43044, Note_on_c, 0, 84, 0
1, 43044, Note_on_c, 0, 81, 80
1, 43056, Note_on_c, 0, 81, 0
1, 43056, Note_on_c, 0, 83, 80
1, 43068, Note_on_c, 0, 83, 0
1, 43068, Note_on_c, 0, 79, 80
1, 43080, Note_on_c, 0, 79, 0
1, 43080, Note_on_c, 0, 81, 80
1, 43092, Note_on_c, 0, 81, 0
1, 43092, Note_on_c, 0, 78, 80
1, 43104, Note_on_c, 0, 78, 0
1, 43104, Note_on_c, 0, 79, 80
1, 43116, Note_on_c, 0, 79, 0
1, 43116, Note_on_c, 0, 81, 80
1, 43128, Note_on_c, 0, 81, 0
1, 43128, Note_on_c, 0, 83, 80
1, 43140, Note_on_c, 0, 83, 0
1, 43140, Note_on_c, 0, 81, 80
1, 43152, Note_on_c, 0, 81, 0
1, 43152, Note_on_c, 0, 79, 80
1, 43164, Note_on_c, 0, 79, 0
1, 43164, Note_on_c, 0, 78, 80
1, 43176, Note_on_c, 0, 78, 0
1, 43176, Note_on_c, 0, 76, 80
1, 43188, Note_on_c, 0, 76, 0
1, 43188, Note_on_c, 0, 74, 80
1, 43200, Note_on_c, 0, 74, 0
1, 43200, Note_on_c, 0, 73, 80
1, 43212, Note_on_c, 0, 73, 0
1, 43212, Note_on_c, 0, 57, 80
1, 43224, Note_on_c, 0, 57, 0
1, 43224, Note_on_c, 0, 61, 80
1, 43236, Note_on_c, 0, 61, 0
1, 43236, Note_on_c, 0, 64, 80
1, 43248, Note_on_c, 0, 64, 0
1, 43248, Note_on_c, 0, 67, 80
1, 43260, Note_on_c, 0, 67, 0
1, 43260, Note_on_c, 0, 69, 80
1, 43272, Note_on_c, 0, 69, 0
1, 43272, Note_on_c, 0, 73, 80
1, 43284, Note_on_c, 0, 73, 0
1, 43284, Note_on_c, 0, 76, 80
1, 43296, Note_on_c, 0, 76, 0
1, 43296, Note_on_c, 0, 79, 80
1, 43308, Note_on_c, 0, 79, 0
1, 43308, Note_on_c, 0, 57, 80
1, 43320, Note_on_c, 0, 57, 0
1, 43320, Note_on_c, 0, 61, 80
1, 43332, Note_on_c, 0, 61, 0
1, 43332, Note_on_c, 0, 62, 80
1, 43344, Note_on_c, 0, 62, 0
1, 43344, Note_on_c, 0, 66, 80
1, 43356, Note_on_c, 0, 66, 0
1, 43356, Note_on_c, 0, 69, 80
1, 43368, Note_on_c, 0, 69, 0
1, 43368, Note_on_c, 0, 74, 80
1, 43380, Note_on_c, 0, 74, 0
1, 43380, Note_on_c, 0, 78, 80
1, 43392, Note_on_c, 0, 78, 0
1, 43392, Note_on_c, 0, 81, 80
1, 43404, Note_on_c, 0, 81, 0
1, 43404, Note_on_c, 0, 74, 80
1, 43416, Note_on_c, 0, 74, 0
1, 43416, Note_on_c, 0, 78, 80
1, 43428, Note_on_c, 0, 78, 0
1, 43428, Note_on_c, 0, 81, 80
1, 43440, Note_on_c, 0, 81, 0
1, 43440, Note_on_c, 0, 86, 80
1, 43474, Note_on_c, 0, 86, 0
1, 43476, Note_on_c, 0, 78, 80
1, 43488, Note_on_c, 0, 78, 0
1, 43488, Note_on_c, 0, 79, 80
1, 43488, Note_on_c, 1, 62, 80
1, 43488, Note_on_c, 1, 57, 80
1, 43496, Note_on_c, 0, 79, 0
1, 43496, Note_on_c, 0, 78, 79
1, 43504, Note_on_c, 0, 78, 0
1, 43504, Note_on_c, 0, 79, 79
1, 43512, Note_on_c, 0, 79, 0
1, 43512, Note_on_c, 0, 78, 79
1, 43520, Note_on_c, 0, 78, 0
1, 43520, Note_on_c, 0, 79, 78
1, 43528, Note_on_c, 0, 79, 0
1, 43528, Note_on_c, 0, 78, 78
1, 43536, Note_on_c, 0, 78, 0
1, 43536, Note_on_c, 0, 79, 78
1, 43544, Note_on_c, 0, 79, 0
1, 43544, Note_on_c, 0, 78, 77
1, 43552, Note_on_c, 0, 78, 0
1, 43552, Note_on_c, 0, 79, 77
1, 43560, Note_on_c, 0, 79, 0
1, 43560, Note_on_c, 0, 78, 77
1, 43568, Note_on_c, 0, 78, 0
1, 43568, Note_on_c, 0, 76, 76
1, 43576, Note_on_c, 0, 76, 0
1, 43576, Note_on_c, 0, 78, 76
1, 43584, Note_on_c, 0, 78, 0
1, 43584, Note_on_c, 0, 76, 76
1, 43584, Note_on_c, 1, 62, 0
1, 43584, Note_on_c, 1, 61, 75
1, 43673, Note_on_c, 0, 76, 0
1, 43673, Note_on_c, 1, 61, 0
1, 43673, Note_on_c, 1, 57, 0
1, 43752, Note_on_c, 0, 69, 66
1, 43775, Note_on_c, 0, 69, 0
1, 43776, Note_on_c, 0, 74, 66
1, 43776, Note_on_c, 1, 66, 66
1, 43776, Note_on_c, 1, 62, 66
1, 43821, Note_on_c, 1, 66, 0
1, 43821, Note_on_c, 1, 62, 0
1, 43843, Note_on_c, 0, 74, 0
1, 43848, Note_on_c, 0, 74, 66
1, 43871, Note_on_c, 0, 74, 0
1, 43872, Note_on_c, 0, 74, 66
1, 43872, Note_on_c, 1, 66, 66
1, 43872, Note_on_c, 1, 62, 66
1, 43884, Note_on_c, 0, 74, 0
1, 43884, Note_on_c, 0, 78, 66
1, 43896, Note_on_c, 0, 78, 0
1, 43896, Note_on_c, 0, 76, 66
1, 43908, Note_on_c, 0, 76, 0
1, 43908, Note_on_c, 0, 79, 66
1, 43917, Note_on_c, 1, 66, 0
1, 43917, Note_on_c, 1, 62, 0
1, 43920, Note_on_c, 0, 79, 0
1, 43920, Note_on_c, 0, 78, 66
1, 43932, Note_on_c, 0, 78, 0
1, 43932, Note_on_c, 0, 81, 66
1, 43944, Note_on_c, 0, 81, 0
1, 43944, Note_on_c, 0, 79, 66
1, 43956, Note_on_c, 0, 79, 0
1, 43956, Note_on_c, 0, 83, 66
1, 43968, Note_on_c, 0, 83, 0
1, 43968, Note_on_c, 0, 81, 66
1, 43978, Note_on_c, 0, 81, 0
1, 43992, Note_on_c, 0, 83, 66
1, 44002, Note_on_c, 0, 83, 0
1, 44016, Note_on_c, 0, 85, 66
1, 44026, Note_on_c, 0, 85, 0
1, 44040, Note_on_c, 0, 86, 66
1, 44050, Note_on_c, 0, 86, 0
1, 44064, Note_on_c, 0, 88, 66
1, 44064, Note_on_c, 1, 67, 66
1, 44064, Note_on_c, 1, 62, 66
1, 44087, Note_on_c, 0, 88, 0
1, 44088, Note_on_c, 0, 76, 90
1, 44124, Note_on_c, 0, 76, 0
1, 44124, Note_on_c, 0, 79, 66
1, 44136, Note_on_c, 0, 79, 0
1, 44136, Note_on_c, 0, 76, 66
1, 44148, Note_on_c, 0, 76, 0
1, 44148, Note_on_c, 0, 73, 66
1, 44160, Note_on_c, 0, 73, 0
1, 44160, Note_on_c, 0, 74, 66
1, 44160, Note_on_c, 1, 67, 0
1, 44160, Note_on_c, 1, 66, 66
1, 44205, Note_on_c, 0, 74, 0
1, 44205, Note_on_c, 1, 66, 0
1, 44205, Note_on_c, 1, 62, 0
1, 44256, Note_on_c, 0, 62, 66
1, 44264, Note_on_c, 0, 62, 0
1, 44264, Note_on_c, 0, 64, 66
1, 44272, Note_on_c, 0, 64, 0
1, 44272, Note_on_c, 0, 66, 66
1, 44280, Note_on_c, 0, 66, 0
1, 44280, Note_on_c, 0, 67, 66
1, 44288, Note_on_c, 0, 67, 0
1, 44288, Note_on_c, 0, 69, 66
1, 44296, Note_on_c, 0, 69, 0
1, 44296, Note_on_c, 0, 71, 66
1, 44304, Note_on_c, 0, 71, 0
1, 44304, Note_on_c, 0, 73, 66
1, 44312, Note_on_c, 0, 73, 0
1, 44312, Note_on_c, 0, 74, 66
1, 44320, Note_on_c, 0, 74, 0
1, 44320, Note_on_c, 0, 76, 66
1, 44328, Note_on_c, 0, 76, 0
1, 44328, Note_on_c, 0, 78, 66
1, 44336, Note_on_c, 0, 78, 0
1, 44336, Note_on_c, 0, 79, 66
1, 44344, Note_on_c, 0, 79, 0
1, 44344, Note_on_c, 0, 81, 66
1, 44352, Note_on_c, 0, 81, 0
1, 44352, Note_on_c, 0, 79, 66
1, 44352, Note_on_c, 1, 74, 66
1, 44352, Note_on_c, 1, 71, 66
1, 44362, Note_on_c, 0, 79, 0
1, 44376, Note_on_c, 0, 79, 66
1, 44388, Note_on_c, 0, 79, 0
1, 44388, Note_on_c, 0, 83, 66
1, 44397, Note_on_c, 1, 74, 0
1, 44397, Note_on_c, 1, 71, 0
1, 44400, Note_on_c, 0, 83, 0
1, 44400, Note_on_c, 0, 86, 66
1, 44412, Note_on_c, 0, 86, 0
1, 44412, Note_on_c, 0, 83, 66
1, 44424, Note_on_c, 0, 83, 0
1, 44424, Note_on_c, 0, 79, 66
1, 44436, Note_on_c, 0, 79, 0
1, 44436, Note_on_c, 0, 78, 66
1, 44436, Note_on_c, 1, 73, 66
1, 44436, Note_on_c, 1, 69, 66
1, 44448, Note_on_c, 0, 78, 0
1, 44448, Note_on_c, 0, 76, 66
1, 44448, Note_on_c, 1, 73, 0
1, 44448, Note_on_c, 1, 69, 0
1, 44448, Note_on_c, 1, 71, 66
1, 44448, Note_on_c, 1, 67, 66
1, 44458, Note_on_c, 0, 76, 0
1, 44472, Note_on_c, 0, 76, 66
1, 44484, Note_on_c, 0, 76, 0
1, 44484, Note_on_c, 0, 79, 66
1, 44493, Note_on_c, 1, 71, 0
1, 44493, Note_on_c, 1, 67, 0
1, 44496, Note_on_c, 0, 79, 0
1, 44496, Note_on_c, 0, 83, 66
1, 44508, Note_on_c, 0, 83, 0
1, 44508, Note_on_c, 0, 79, 66
1, 44520, Note_on_c, 0, 79, 0
1, 44520, Note_on_c, 0, 76, 66
1, 44532, Note_on_c, 0, 76, 0
1, 44532, Note_on_c, 0, 74, 66
1, 44532, Note_on_c, 1, 69, 66
1, 44532, Note_on_c, 1, 66, 66
1, 44544, Note_on_c, 0, 74, 0
1, 44544, Note_on_c, 0, 73, 66
1, 44544, Note_on_c, 1, 69, 0
1, 44544, Note_on_c, 1, 66, 0
1, 44544, Note_on_c, 1, 67, 66
1, 44544, Note_on_c, 1, 64, 66
1, 44567, Note_on_c, 0, 73, 0
1, 44589, Note_on_c, 1, 67, 0
1, 44589, Note_on_c, 1, 64, 0
1, 44592, Note_on_c, 0, 74, 66
1, 44615, Note_on_c, 0, 74, 0
1, 44628, Note_on_c, 1, 66, 66
1, 44628, Note_on_c, 1, 62, 66
1, 44640, Note_on_c, 0, 78, 66
1, 44640, Note_on_c, 0, 74, 66
1, 44640, Note_on_c, 1, 66, 0
1, 44640, Note_on_c, 1, 62, 0
1, 44640, Note_on_c, 1, 57, 66
1, 44652, Note_on_c, 1, 57, 0
1, 44652, Note_on_c, 1, 59, 66
1, 44664, Note_on_c, 1, 59, 0
1, 44664, Note_on_c, 1, 61, 66
1, 44676, Note_on_c, 1, 61, 0
1, 44676, Note_on_c, 1, 62, 66
1, 44688, Note_on_c, 1, 62, 0
1, 44688, Note_on_c, 1, 64, 66
1, 44700, Note_on_c, 1, 64, 0
1, 44700, Note_on_c, 1, 66, 66
1, 44712, Note_on_c, 1, 66, 0
1, 44712, Note_on_c, 1, 68, 66
1, 44724, Note_on_c, 1, 68, 0
1, 44724, Note_on_c, 1, 69, 66
1, 44736, Note_on_c, 1, 69, 0
1, 44736, Note_on_c, 1, 68, 66
1, 44748, Note_on_c, 1, 68, 0
1, 44748, Note_on_c, 1, 69, 66
1, 44760, Note_on_c, 1, 69, 0
1, 44760, Note_on_c, 1, 68, 66
1, 44772, Note_on_c, 1, 68, 0
1, 44772, Note_on_c, 1, 69, 66
1, 44784, Note_on_c, 1, 69, 0
1, 44784, Note_on_c, 1, 68, 66
1, 44796, Note_on_c, 1, 68, 0
1, 44796, Note_on_c, 1, 69, 66
1, 44808, Note_on_c, 1, 69, 0
1, 44808, Note_on_c, 1, 68, 66
1, 44820, Note_on_c, 1, 68, 0
1, 44820, Note_on_c, 1, 69, 66
1, 44832, Note_on_c, 0, 78, 0
1, 44832, Note_on_c, 0, 74, 0
1, 44832, Note_on_c, 0, 76, 66
1, 44832, Note_on_c, 0, 73, 66
1, 44832, Note_on_c, 1, 69, 0
1, 44832, Note_on_c, 1, 57, 66
1, 44852, Note_on_c, 1, 57, 0
1, 44877, Note_on_c, 0, 76, 0
1, 44877, Note_on_c, 0, 73, 0
1, 44892, Note_on_c, 0, 74, 66
1, 44904, Note_on_c, 0, 74, 0
1, 44904, Note_on_c, 0, 78, 68
1, 44916, Note_on_c, 0, 78, 0
1, 44916, Note_on_c, 0, 81, 70
1, 44928, Note_on_c, 0, 81, 0
1, 44928, Note_on_c, 0, 86, 72
1, 44928, Note_on_c, 1, 57, 80
1, 44928, Note_on_c, 1, 54, 80
1, 44928, Note_on_c, 1, 50, 80
1, 44948, Note_on_c, 0, 86, 0
1, 44976, Note_on_c, 0, 88, 80
1, 44982, Note_on_c, 0, 88, 0
1, 44982, Note_on_c, 0, 86, 80
1, 44988, Note_on_c, 0, 86, 0
1, 44988, Note_on_c, 0, 85, 80
1, 44994, Note_on_c, 0, 85, 0
1, 44994, Note_on_c, 0, 86, 80
1, 45010, Note_on_c, 0, 86, 0
1, 45012, Note_on_c, 0, 88, 80
1, 45017, Note_on_c, 1, 57, 0
1, 45017, Note_on_c, 1, 54, 0
1, 45017, Note_on_c, 1, 50, 0
1, 45024, Note_on_c, 0, 88, 0
1, 45024, Note_on_c, 0, 85, 80
1, 45024, Note_on_c, 1, 61, 80
1, 45024, Note_on_c, 1, 57, 80
1, 45024, Note_on_c, 1, 55, 80
1, 45024, Note_on_c, 1, 52, 80
1, 45071, Note_on_c, 0, 85, 0
1, 45113, Note_on_c, 1, 61, 0
1, 45113, Note_on_c, 1, 57, 0
1, 45113, Note_on_c, 1, 55, 0
1, 45113, Note_on_c, 1, 52, 0
1, 45120, Note_on_c, 0, 69, 80
1, 45132, Note_on_c, 0, 69, 0
1, 45132, Note_on_c, 0, 68, 80
1, 45144, Note_on_c, 0, 68, 0
1, 45144, Note_on_c, 0, 71, 80
1, 45156, Note_on_c, 0, 71, 0
1, 45156, Note_on_c, 0, 69, 80
1, 45168, Note_on_c, 0, 69, 0
1, 45168, Note_on_c, 0, 73, 80
1, 45180, Note_on_c, 0, 73, 0
1, 45180, Note_on_c, 0, 71, 80
1, 45192, Note_on_c, 0, 71, 0
1, 45192, Note_on_c, 0, 74, 80
1, 45204, Note_on_c, 0, 74, 0
1, 45204, Note_on_c, 0, 73, 80
1, 45216, Note_on_c, 0, 73, 0
1, 45216, Note_on_c, 0, 76, 80
1, 45216, Note_on_c, 1, 61, 104
1, 45216, Note_on_c, 1, 55, 104
1, 45216, Note_on_c, 1, 52, 104
1, 45228, Note_on_c, 0, 76, 0
1, 45228, Note_on_c, 0, 74, 80
1, 45240, Note_on_c, 0, 74, 0
1, 45240, Note_on_c, 0, 78, 80
1, 45252, Note_on_c, 0, 78, 0
1, 45252, Note_on_c, 0, 76, 80
1, 45264, Note_on_c, 0, 76, 0
1, 45264, Note_on_c, 0, 79, 80
1, 45276, Note_on_c, 0, 79, 0
1, 45276, Note_on_c, 0, 78, 80
1, 45288, Note_on_c, 0, 78, 0
1, 45288, Note_on_c, 0, 81, 80
1, 45300, Note_on_c, 0, 81, 0
1, 45300, Note_on_c, 0, 79, 80
1, 45305, Note_on_c, 1, 61, 0
1, 45305, Note_on_c, 1, 55, 0
1, 45305, Note_on_c, 1, 52, 0
1, 45312, Note_on_c, 0, 79, 0
1, 45312, Note_on_c, 0, 83, 80
1, 45312, Note_on_c, 1, 63, 104
1, 45312, Note_on_c, 1, 60, 104
1, 45312, Note_on_c, 1, 57, 104
1, 45312, Note_on_c, 1, 54, 104
1, 45324, Note_on_c, 0, 83, 0
1, 45324, Note_on_c, 0, 81, 80
1, 45336, Note_on_c, 0, 81, 0
1, 45336, Note_on_c, 0, 84, 80
1, 45348, Note_on_c, 0, 84, 0
1, 45348, Note_on_c, 0, 83, 80
1, 45360, Note_on_c, 0, 83, 0
1, 45360, Note_on_c, 0, 86, 80
1, 45372, Note_on_c, 0, 86, 0
1, 45372, Note_on_c, 0, 84, 80
1, 45384, Note_on_c, 0, 84, 0
1, 45384, Note_on_c, 0, 83, 80
1, 45396, Note_on_c, 0, 83, 0
1, 45396, Note_on_c, 0, 81, 80
1, 45401, Note_on_c, 1, 63, 0
1, 45401, Note_on_c, 1, 60, 0
1, 45401, Note_on_c, 1, 57, 0
1, 45401, Note_on_c, 1, 54, 0
1, 45408, Note_on_c, 0, 81, 0
1, 45408, Note_on_c, 0, 81, 80
1, 45408, Note_on_c, 1, 64, 104
1, 45408, Note_on_c, 1, 59, 104
1, 45408, Note_on_c, 1, 55, 104
1, 45420, Note_on_c, 0, 81, 0
1, 45420, Note_on_c, 0, 79, 80
1, 45432, Note_on_c, 0, 79, 0
1, 45432, Note_on_c, 0, 83, 80
1, 45444, Note_on_c, 0, 83, 0
1, 45444, Note_on_c, 0, 81, 80
1, 45456, Note_on_c, 0, 81, 0
1, 45456, Note_on_c, 0, 84, 80
1, 45468, Note_on_c, 0, 84, 0
1, 45468, Note_on_c, 0, 83, 80
1, 45480, Note_on_c, 0, 83, 0
1, 45480, Note_on_c, 0, 81, 80
1, 45492, Note_on_c, 0, 81, 0
1, 45492, Note_on_c, 0, 79, 80
1, 45497, Note_on_c, 1, 64, 0
1, 45497, Note_on_c, 1, 59, 0
1, 45497, Note_on_c, 1, 55, 0
1, 45504, Note_on_c, 0, 79, 0
1, 45504, Note_on_c, 0, 78, 80
1, 45504, Note_on_c, 1, 66, 80
1, 45504, Note_on_c, 1, 62, 80
1, 45504, Note_on_c, 1, 57, 80
1, 45524, Note_on_c, 0, 78, 0
1, 45552, Note_on_c, 0, 81, 80
1, 45572, Note_on_c, 0, 81, 0
1, 45593, Note_on_c, 1, 66, 0
1, 45593, Note_on_c, 1, 62, 0
1, 45593, Note_on_c, 1, 57, 0
1, 45648, Note_on_c, 0, 79, 66
1, 45660, Note_on_c, 0, 79, 0
1, 45660, Note_on_c, 0, 78, 66
1, 45672, Note_on_c, 0, 78, 0
1, 45672, Note_on_c, 0, 76, 66
1, 45684, Note_on_c, 0, 76, 0
1, 45684, Note_on_c, 0, 74, 66
1, 45696, Note_on_c, 0, 74, 0
1, 45696, Note_on_c, 0, 73, 66
1, 45696, Note_on_c, 1, 64, 66
1, 45696, Note_on_c, 1, 57, 66
1, 45741, Note_on_c, 0, 73, 0
1, 45744, Note_on_c, 0, 76, 66
1, 45744, Note_on_c, 0, 67, 66
1, 45785, Note_on_c, 1, 64, 0
1, 45785, Note_on_c, 1, 57, 0
1, 45789, Note_on_c, 0, 76, 0
1, 45789, Note_on_c, 0, 67, 0
1, 45792, Note_on_c, 1, 50, 66
1, 45881, Note_on_c, 1, 50, 0
1, 45888, Note_on_c, 0, 74, 66
1, 45888, Note_on_c, 0, 66, 66
1, 45888, Note_on_c, 1, 62, 66
1, 45977, Note_on_c, 0, 74, 0
1, 45977, Note_on_c, 0, 66, 0
1, 45977, Note_on_c, 1, 62, 0
1, 46056, Note_on_c, 0, 74, 66
1, 46064, Note_on_c, 0, 74, 0
1, 46064, Note_on_c, 0, 78, 66
1, 46072, Note_on_c, 0, 78, 0
1, 46072, Note_on_c, 0, 81, 66
1, 46080, Note_on_c, 0, 81, 0
1, 46080, Note_on_c, 0, 86, 66
1, 46080, Note_on_c, 1, 66, 66
1, 46080, Note_on_c, 1, 62, 66
1, 46100, Note_on_c, 0, 86, 0
1, 46128, Note_on_c, 0, 88, 66
1, 46134, Note_on_c, 0, 88, 0
1, 46134, Note_on_c, 0, 86, 66
1, 46140, Note_on_c, 0, 86, 0
1, 46140, Note_on_c, 0, 85, 66
1, 46146, Note_on_c, 0, 85, 0
1, 46146, Note_on_c, 0, 86, 66
1, 46164, Note_on_c, 0, 86, 0
1, 46164, Note_on_c, 0, 88, 66
1, 46169, Note_on_c, 1, 66, 0
1, 46169, Note_on_c, 1, 62, 0
1, 46176, Note_on_c, 0, 88, 0
1, 46176, Note_on_c, 0, 85, 66
1, 46176, Note_on_c, 1, 67, 66
1, 46176, Note_on_c, 1, 64, 66
1, 46223, Note_on_c, 0, 85, 0
1, 46265, Note_on_c, 1, 67, 0
1, 46265, Note_on_c, 1, 64, 0
1, 46344, Note_on_c, 0, 69, 66
1, 46352, Note_on_c, 0, 69, 0
1, 46352, Note_on_c, 0, 73, 66
1, 46360, Note_on_c, 0, 73, 0
1, 46360, Note_on_c, 0, 76, 66
1, 46368, Note_on_c, 0, 76, 0
1, 46368, Note_on_c, 0, 79, 82
1, 46368, Note_on_c, 1, 61, 66
1, 46368, Note_on_c, 1, 52, 66
1, 46413, Note_on_c, 1, 61, 0
1, 46413, Note_on_c, 1, 52, 0
1, 46416, Note_on_c, 0, 79, 0
1, 46416, Note_on_c, 0, 76, 67
1, 46428, Note_on_c, 0, 76, 0
1, 46428, Note_on_c, 0, 73, 67
1, 46440, Note_on_c, 0, 73, 0
1, 46464, Note_on_c, 0, 81, 85
1, 46464, Note_on_c, 1, 60, 69
1, 46464, Note_on_c, 1, 54, 69
1, 46509, Note_on_c, 1, 60, 0
1, 46509, Note_on_c, 1, 54, 0
1, 46512, Note_on_c, 0, 81, 0
1, 46512, Note_on_c, 0, 78, 70
1, 46524, Note_on_c, 0, 78, 0
1, 46524, Note_on_c, 0, 75, 70
1, 46536, Note_on_c, 0, 75, 0
1, 46560, Note_on_c, 0, 83, 88
1, 46560, Note_on_c, 1, 59, 72
1, 46560, Note_on_c, 1, 55, 72
1, 46605, Note_on_c, 1, 59, 0
1, 46605, Note_on_c, 1, 55, 0
1, 46608, Note_on_c, 0, 83, 0
1, 46608, Note_on_c, 0, 79, 73
1, 46620, Note_on_c, 0, 79, 0
1, 46620, Note_on_c, 0, 76, 73
1, 46632, Note_on_c, 0, 76, 0
1, 46656, Note_on_c, 0, 81, 91
1, 46656, Note_on_c, 1, 66, 91
1, 46656, Note_on_c, 1, 62, 91
1, 46656, Note_on_c, 1, 57, 91
1, 46767, Note_on_c, 0, 81, 0
1, 46768, Note_on_c, 0, 80, 71
1, 46783, Note_on_c, 0, 80, 0
1, 46784, Note_on_c, 0, 79, 71
1, 46799, Note_on_c, 0, 79, 0
1, 46800, Note_on_c, 0, 78, 70
1, 46815, Note_on_c, 0, 78, 0
1, 46816, Note_on_c, 0, 77, 70
1, 46831, Note_on_c, 0, 77, 0
1, 46832, Note_on_c, 0, 76, 70
1, 46847, Note_on_c, 0, 76, 0
1, 46848, Note_on_c, 0, 74, 69
1, 46848, Note_on_c, 1, 66, 0
1, 46848, Note_on_c, 1, 62, 0
1, 46848, Note_on_c, 1, 57, 0
1, 46858, Note_on_c, 0, 74, 0
1, 46896, Note_on_c, 0, 73, 68
1, 46896, Note_on_c, 0, 67, 68
1, 46896, Note_on_c, 1, 57, 67
1, 46919, Note_on_c, 0, 73, 0
1, 46919, Note_on_c, 0, 67, 0
1, 46919, Note_on_c, 1, 57, 0
1, 46944, Note_on_c, 0, 76, 62
1, 46944, Note_on_c, 0, 67, 62
1, 46944, Note_on_c, 1, 50, 62
1, 47040, Note_on_c, 0, 76, 0
1, 47040, Note_on_c, 0, 67, 0
1, 47040, Note_on_c, 0, 74, 62
1, 47040, Note_on_c, 0, 66, 62
1, 47040, Note_on_c, 1, 50, 0
1, 47040, Note_on_c, 1, 62, 62
1, 47107, Note_on_c, 0, 74, 0
1, 47107, Note_on_c, 0, 66, 0
1, 47107, Note_on_c, 1, 62, 0
1, 47232, Note_on_c, 1, 50, 0
1, 47321, Note_on_c, 1, 50, 0
1, 47331, End_track
0, 0, End_of_file