0, 0, Header, 0, 1, 96
1, 0, Start_track
1, 0, Tempo, 1090909
1, 0, Note_on_c, 0, 84, 64
1, 0, Note_on_c, 1, 68, 64
1, 0, Note_on_c, 1, 65, 64
1, 89, Note_on_c, 0, 84, 0
1, 89, Note_on_c, 1, 68, 0
1, 89, Note_on_c, 1, 65, 0
1, 96, Note_on_c, 0, 82, 64
1, 96, Note_on_c, 1, 68, 64
1, 96, Note_on_c, 1, 65, 64
1, 108, Note_on_c, 0, 82, 0
1, 108, Note_on_c, 0, 80, 64
1, 120, Note_on_c, 0, 80, 0
1, 120, Note_on_c, 0, 79, 64
1, 132, Note_on_c, 0, 79, 0
1, 132, Note_on_c, 0, 77, 64
1, 141, Note_on_c, 1, 68, 0
1, 141, Note_on_c, 1, 65, 0
1, 144, Note_on_c, 0, 77, 0
1, 144, Note_on_c, 0, 77, 64
1, 144, Note_on_c, 1, 72, 64
1, 144, Note_on_c, 1, 68, 64
1, 233, Note_on_c, 0, 77, 0
1, 233, Note_on_c, 1, 72, 0
1, 233, Note_on_c, 1, 68, 0
1, 240, Note_on_c, 0, 77, 64
1, 240, Note_on_c, 1, 72, 64
1, 240, Note_on_c, 1, 68, 64
1, 285, Note_on_c, 0, 77, 0
1, 288, Note_on_c, 0, 77, 64
1, 288, Note_on_c, 1, 72, 0
1, 288, Note_on_c, 1, 68, 0
1, 288, Note_on_c, 1, 73, 64
1, 288, Note_on_c, 1, 70, 64
1, 355, Note_on_c, 0, 77, 0
1, 360, Note_on_c, 0, 79, 64
1, 377, Note_on_c, 1, 73, 0
1, 377, Note_on_c, 1, 70, 0
1, 383, Note_on_c, 0, 79, 0
1, 384, Note_on_c, 0, 77, 64
1, 384, Note_on_c, 1, 73, 64
1, 384, Note_on_c, 1, 70, 64
1, 417, Note_on_c, 0, 77, 0
1, 420, Note_on_c, 0, 77, 64
1, 426, Note_on_c, 0, 77, 0
1, 426, Note_on_c, 0, 79, 64
1, 432, Note_on_c, 0, 79, 0
1, 432, Note_on_c, 0, 80, 64
1, 432, Note_on_c, 1, 73, 0
1, 432, Note_on_c, 1, 70, 0
1, 432, Note_on_c, 1, 72, 64
1, 432, Note_on_c, 1, 68, 64
1, 477, Note_on_c, 0, 80, 0
1, 477, Note_on_c, 1, 72, 0
1, 477, Note_on_c, 1, 68, 0
1, 528, Note_on_c, 0, 68, 80
1, 528, Note_on_c, 1, 56, 80
1, 575, Note_on_c, 0, 68, 0
1, 575, Note_on_c, 1, 56, 0
1, 576, Note_on_c, 0, 70, 80
1, 576, Note_on_c, 1, 58, 80
1, 643, Note_on_c, 0, 70, 0
1, 643, Note_on_c, 1, 58, 0
1, 648, Note_on_c, 0, 73, 80
1, 648, Note_on_c, 1, 61, 80
1, 660, Note_on_c, 0, 73, 0
1, 660, Note_on_c, 0, 72, 80
1, 660, Note_on_c, 1, 61, 0
1, 660, Note_on_c, 1, 60, 80
1, 672, Note_on_c, 0, 72, 0
1, 672, Note_on_c, 0, 70, 80
1, 672, Note_on_c, 1, 60, 0
1, 672, Note_on_c, 1, 58, 80
1, 684, Note_on_c, 0, 70, 0
1, 684, Note_on_c, 0, 68, 80
1, 684, Note_on_c, 1, 58, 0
1, 684, Note_on_c, 1, 56, 80
1, 696, Note_on_c, 0, 68, 0
1, 696, Note_on_c, 0, 67, 80
1, 696, Note_on_c, 1, 56, 0
1, 696, Note_on_c, 1, 55, 80
1, 708, Note_on_c, 0, 67, 0
1, 708, Note_on_c, 0, 65, 80
1, 708, Note_on_c, 1, 55, 0
1, 708, Note_on_c, 1, 53, 80
1, 720, Note_on_c, 0, 65, 0
1, 720, Note_on_c, 0, 64, 80
1, 720, Note_on_c, 1, 53, 0
1, 720, Note_on_c, 1, 52, 80
1, 768, Note_on_c, 0, 64, 0
1, 768, Note_on_c, 0, 67, 80
1, 768, Note_on_c, 1, 52, 0
1, 768, Note_on_c, 1, 55, 80
1, 791, Note_on_c, 0, 67, 0
1, 791, Note_on_c, 1, 55, 0
1, 792, Note_on_c, 0, 61, 80
1, 792, Note_on_c, 1, 49, 80
1, 802, Note_on_c, 0, 61, 0
1, 802, Note_on_c, 1, 49, 0
1, 816, Note_on_c, 0, 60, 80
1, 816, Note_on_c, 1, 48, 80
1, 826, Note_on_c, 0, 60, 0
1, 826, Note_on_c, 1, 48, 0
1, 840, Note_on_c, 0, 58, 80
1, 840, Note_on_c, 1, 46, 80
1, 850, Note_on_c, 0, 58, 0
1, 850, Note_on_c, 1, 46, 0
1, 864, Note_on_c, 0, 56, 80
1, 864, Note_on_c, 1, 44, 80
1, 887, Note_on_c, 0, 56, 0
1, 887, Note_on_c, 1, 44, 0
1, 888, Note_on_c, 0, 55, 80
1, 888, Note_on_c, 1, 43, 80
1, 911, Note_on_c, 0, 55, 0
1, 911, Note_on_c, 1, 43, 0
1, 912, Note_on_c, 0, 53, 80
1, 912, Note_on_c, 1, 41, 80
1, 932, Note_on_c, 0, 53, 0
1, 932, Note_on_c, 1, 41, 0
1, 960, Note_on_c, 0, 53, 80
1, 960, Note_on_c, 1, 41, 80
1, 980, Note_on_c, 0, 53, 0
1, 980, Note_on_c, 1, 41, 0
1, 1008, Note_on_c, 0, 53, 80
1, 1008, Note_on_c, 1, 41, 80
1, 1053, Note_on_c, 0, 53, 0
1, 1053, Note_on_c, 1, 41, 0
1, 1080, Note_on_c, 0, 72, 64
1, 1103, Note_on_c, 0, 72, 0
1, 1104, Note_on_c, 0, 77, 64
1, 1127, Note_on_c, 0, 77, 0
1, 1128, Note_on_c, 0, 80, 64
1, 1151, Note_on_c, 0, 80, 0
1, 1152, Note_on_c, 0, 84, 64
1, 1152, Note_on_c, 1, 68, 64
1, 1152, Note_on_c, 1, 65, 64
1, 1241, Note_on_c, 0, 84, 0
1, 1241, Note_on_c, 1, 68, 0
1, 1241, Note_on_c, 1, 65, 0
1, 1248, Note_on_c, 0, 82, 64
1, 1248, Note_on_c, 1, 68, 64
1, 1248, Note_on_c, 1, 65, 64
1, 1260, Note_on_c, 0, 82, 0
1, 1260, Note_on_c, 0, 80, 64
1, 1272, Note_on_c, 0, 80, 0
1, 1272, Note_on_c, 0, 79, 64
1, 1284, Note_on_c, 0, 79, 0
1, 1284, Note_on_c, 0, 77, 64
1, 1293, Note_on_c, 1, 68, 0
1, 1293, Note_on_c, 1, 65, 0
1, 1296, Note_on_c, 0, 77, 0
1, 1296, Note_on_c, 0, 77, 64
1, 1296, Note_on_c, 1, 72, 64
1, 1296, Note_on_c, 1, 68, 64
1, 1385, Note_on_c, 0, 77, 0
1, 1385, Note_on_c, 1, 72, 0
1, 1385, Note_on_c, 1, 68, 0
1, 1392, Note_on_c, 0, 77, 64
1, 1392, Note_on_c, 1, 72, 64
1, 1392, Note_on_c, 1, 68, 64
1, 1437, Note_on_c, 0, 77, 0
1, 1440, Note_on_c, 0, 77, 64
1, 1440, Note_on_c, 1, 72, 0
1, 1440, Note_on_c, 1, 68, 0
1, 1440, Note_on_c, 1, 73, 64
1, 1440, Note_on_c, 1, 70, 64
1, 1507, Note_on_c, 0, 77, 0
1, 1512, Note_on_c, 0, 79, 64
1, 1529, Note_on_c, 1, 73, 0
1, 1529, Note_on_c, 1, 70, 0
1, 1535, Note_on_c, 0, 79, 0
1, 1536, Note_on_c, 0, 77, 64
1, 1536, Note_on_c, 1, 72, 64
1, 1536, Note_on_c, 1, 68, 64
1, 1569, Note_on_c, 0, 77, 0
1, 1572, Note_on_c, 0, 76, 64
1, 1578, Note_on_c, 0, 76, 0
1, 1578, Note_on_c, 0, 79, 64
1, 1584, Note_on_c, 0, 79, 0
1, 1584, Note_on_c, 0, 82, 64
1, 1584, Note_on_c, 1, 72, 0
1, 1584, Note_on_c, 1, 68, 0
1, 1584, Note_on_c, 1, 70, 64
1, 1584, Note_on_c, 1, 67, 64
1, 1629, Note_on_c, 0, 82, 0
1, 1629, Note_on_c, 1, 70, 0
1, 1629, Note_on_c, 1, 67, 0
1, 1680, Note_on_c, 0, 80, 64
1, 1680, Note_on_c, 0, 77, 64
1, 1680, Note_on_c, 1, 65, 64
1, 1725, Note_on_c, 0, 80, 0
1, 1725, Note_on_c, 0, 77, 0
1, 1725, Note_on_c, 1, 65, 0
1, 1728, Note_on_c, 0, 79, 64
1, 1728, Note_on_c, 0, 76, 64
1, 1728, Note_on_c, 1, 72, 64
1, 1795, Note_on_c, 0, 79, 0
1, 1795, Note_on_c, 0, 76, 0
1, 1795, Note_on_c, 1, 72, 0
1, 1800, Note_on_c, 0, 80, 64
1, 1800, Note_on_c, 0, 77, 64
1, 1800, Note_on_c, 1, 71, 64
1, 1823, Note_on_c, 0, 80, 0
1, 1823, Note_on_c, 0, 77, 0
1, 1823, Note_on_c, 1, 71, 0
1, 1824, Note_on_c, 0, 79, 64
1, 1824, Note_on_c, 0, 76, 64
1, 1824, Note_on_c, 1, 72, 64
1, 1869, Note_on_c, 0, 79, 0
1, 1869, Note_on_c, 0, 76, 0
1, 1869, Note_on_c, 1, 72, 0
1, 1872, Note_on_c, 0, 82, 64
1, 1872, Note_on_c, 0, 79, 64
1, 1872, Note_on_c, 0, 76, 64
1, 1872, Note_on_c, 1, 60, 64
1, 1917, Note_on_c, 0, 82, 0
1, 1917, Note_on_c, 0, 79, 0
1, 1917, Note_on_c, 0, 76, 0
1, 1917, Note_on_c, 1, 60, 0
1, 1968, Note_on_c, 0, 80, 58
1, 1968, Note_on_c, 0, 77, 58
1, 1968, Note_on_c, 1, 71, 58
1, 2013, Note_on_c, 0, 80, 0
1, 2013, Note_on_c, 0, 77, 0
1, 2013, Note_on_c, 1, 71, 0
1, 2016, Note_on_c, 0, 79, 58
1, 2016, Note_on_c, 0, 76, 58
1, 2016, Note_on_c, 1, 72, 58
1, 2083, Note_on_c, 0, 79, 0
1, 2083, Note_on_c, 0, 76, 0
1, 2083, Note_on_c, 1, 72, 0
1, 2088, Note_on_c, 0, 80, 58
1, 2088, Note_on_c, 0, 77, 58
1, 2088, Note_on_c, 1, 71, 58
1, 2111, Note_on_c, 0, 80, 0
1, 2111, Note_on_c, 0, 77, 0
1, 2111, Note_on_c, 1, 71, 0
1, 2112, Note_on_c, 0, 79, 58
1, 2112, Note_on_c, 0, 76, 58
1, 2112, Note_on_c, 1, 72, 58
1, 2157, Note_on_c, 0, 79, 0
1, 2157, Note_on_c, 0, 76, 0
1, 2157, Note_on_c, 1, 72, 0
1, 2160, Note_on_c, 0, 79, 58
1, 2160, Note_on_c, 0, 76, 58
1, 2160, Note_on_c, 1, 72, 58
1, 2238, Note_on_c, 0, 79, 0
1, 2238, Note_on_c, 0, 76, 0
1, 2238, Note_on_c, 1, 72, 0
1, 2244, Tempo, 1333333
1, 2304, Tempo, 1090909
1, 2304, Note_on_c, 0, 72, 80
1, 2304, Note_on_c, 1, 44, 80
1, 2310, Note_on_c, 1, 48, 80
1, 2312, Note_on_c, 0, 75, 80
1, 2316, Note_on_c, 1, 51, 80
1, 2320, Note_on_c, 0, 80, 80
1, 2322, Note_on_c, 1, 56, 80
1, 2397, Note_on_c, 0, 80, 0
1, 2397, Note_on_c, 0, 75, 0
1, 2397, Note_on_c, 0, 72, 0
1, 2400, Note_on_c, 0, 75, 80
1, 2420, Note_on_c, 0, 75, 0
1, 2448, Note_on_c, 0, 72, 80
1, 2468, Note_on_c, 0, 72, 0
1, 2496, Note_on_c, 0, 68, 74
1, 2516, Note_on_c, 0, 68, 0
1, 2544, Note_on_c, 0, 63, 69
1, 2564, Note_on_c, 0, 63, 0
1, 2577, Note_on_c, 1, 56, 0
1, 2577, Note_on_c, 1, 51, 0
1, 2577, Note_on_c, 1, 48, 0
1, 2577, Note_on_c, 1, 44, 0
1, 2592, Note_on_c, 0, 61, 64
1, 2592, Note_on_c, 1, 56, 64
1, 2592, Note_on_c, 1, 53, 64
1, 2592, Note_on_c, 1, 46, 64
1, 2659, Note_on_c, 0, 61, 0
1, 2664, Note_on_c, 0, 63, 64
1, 2686, Note_on_c, 1, 56, 0
1, 2686, Note_on_c, 1, 53, 0
1, 2686, Note_on_c, 1, 46, 0
1, 2687, Note_on_c, 0, 63, 0
1, 2688, Note_on_c, 0, 61, 64
1, 2688, Note_on_c, 1, 56, 64
1, 2688, Note_on_c, 1, 53, 64
1, 2688, Note_on_c, 1, 46, 64
1, 2733, Note_on_c, 0, 61, 0
1, 2735, Note_on_c, 1, 56, 0
1, 2735, Note_on_c, 1, 53, 0
1, 2735, Note_on_c, 1, 46, 0
1, 2736, Note_on_c, 0, 61, 64
1, 2736, Note_on_c, 1, 56, 64
1, 2736, Note_on_c, 1, 53, 64
1, 2736, Note_on_c, 1, 46, 64
1, 2803, Note_on_c, 0, 61, 0
1, 2806, Note_on_c, 1, 56, 0
1, 2806, Note_on_c, 1, 53, 0
1, 2806, Note_on_c, 1, 46, 0
1, 2880, Note_on_c, 0, 70, 80
1, 2880, Note_on_c, 1, 43, 80
1, 2886, Note_on_c, 0, 73, 80
1, 2886, Note_on_c, 1, 46, 80
1, 2892, Note_on_c, 0, 79, 80
1, 2892, Note_on_c, 1, 51, 80
1, 2898, Note_on_c, 0, 82, 80
1, 2898, Note_on_c, 1, 55, 80
1, 2973, Note_on_c, 0, 82, 0
1, 2973, Note_on_c, 0, 79, 0
1, 2973, Note_on_c, 0, 73, 0
1, 2973, Note_on_c, 0, 70, 0
1, 2976, Note_on_c, 0, 80, 80
1, 2982, Note_on_c, 0, 80, 0
1, 2982, Note_on_c, 0, 79, 80
1, 2988, Note_on_c, 0, 79, 0
1, 2988, Note_on_c, 0, 77, 80
1, 2994, Note_on_c, 0, 77, 0
1, 2994, Note_on_c, 0, 79, 80
1, 3021, Note_on_c, 0, 79, 0
1, 3024, Note_on_c, 0, 77, 80
1, 3030, Note_on_c, 0, 77, 0
1, 3030, Note_on_c, 0, 75, 80
1, 3036, Note_on_c, 0, 75, 0
1, 3036, Note_on_c, 0, 74, 80
1, 3042, Note_on_c, 0, 74, 0
1, 3042, Note_on_c, 0, 75, 80
1, 3069, Note_on_c, 0, 75, 0
1, 3072, Note_on_c, 0, 84, 80
1, 3078, Note_on_c, 0, 84, 0
1, 3078, Note_on_c, 0, 82, 80
1, 3084, Note_on_c, 0, 82, 0
1, 3084, Note_on_c, 0, 80, 80
1, 3090, Note_on_c, 0, 80, 0
1, 3090, Note_on_c, 0, 82, 80
1, 3117, Note_on_c, 0, 82, 0
1, 3120, Note_on_c, 0, 73, 80
1, 3127, Note_on_c, 0, 73, 0
1, 3127, Note_on_c, 0, 75, 80
1, 3134, Note_on_c, 0, 75, 0
1, 3134, Note_on_c, 0, 73, 80
1, 3141, Note_on_c, 0, 73, 0
1, 3141, Note_on_c, 0, 75, 80
1, 3148, Note_on_c, 0, 75, 0
1, 3148, Note_on_c, 0, 73, 80
1, 3153, Note_on_c, 1, 55, 0
1, 3153, Note_on_c, 1, 51, 0
1, 3153, Note_on_c, 1, 46, 0
1, 3153, Note_on_c, 1, 43, 0
1, 3155, Note_on_c, 0, 73, 0
1, 3155, Note_on_c, 0, 72, 80
1, 3162, Note_on_c, 0, 72, 0
1, 3162, Note_on_c, 0, 73, 80
1, 3168, Note_on_c, 0, 73, 0
1, 3168, Note_on_c, 0, 72, 64
1, 3168, Note_on_c, 1, 56, 64
1, 3168, Note_on_c, 1, 51, 64
1, 3168, Note_on_c, 1, 44, 64
1, 3235, Note_on_c, 0, 72, 0
1, 3240, Note_on_c, 0, 73, 64
1, 3262, Note_on_c, 1, 56, 0
1, 3262, Note_on_c, 1, 51, 0
1, 3262, Note_on_c, 1, 44, 0
1, 3263, Note_on_c, 0, 73, 0
1, 3264, Note_on_c, 0, 72, 64
1, 3264, Note_on_c, 1, 56, 64
1, 3264, Note_on_c, 1, 51, 64
1, 3264, Note_on_c, 1, 44, 64
1, 3309, Note_on_c, 0, 72, 0
1, 3311, Note_on_c, 1, 56, 0
1, 3311, Note_on_c, 1, 51, 0
1, 3311, Note_on_c, 1, 44, 0
1, 3312, Note_on_c, 0, 72, 64
1, 3312, Note_on_c, 1, 56, 64
1, 3312, Note_on_c, 1, 51, 64
1, 3312, Note_on_c, 1, 44, 64
1, 3357, Note_on_c, 0, 72, 0
1, 3359, Note_on_c, 1, 56, 0
1, 3359, Note_on_c, 1, 51, 0
1, 3359, Note_on_c, 1, 44, 0
1, 3408, Note_on_c, 0, 80, 75
1, 3453, Note_on_c, 0, 80, 0
1, 3456, Note_on_c, 0, 79, 91
1, 3456, Note_on_c, 1, 68, 75
1, 3456, Note_on_c, 1, 61, 75
1, 3501, Note_on_c, 1, 68, 0
1, 3501, Note_on_c, 1, 61, 0
1, 3504, Note_on_c, 0, 79, 0
1, 3504, Note_on_c, 0, 77, 75
1, 3549, Note_on_c, 0, 77, 0
1, 3552, Note_on_c, 0, 80, 75
1, 3597, Note_on_c, 0, 80, 0
1, 3600, Note_on_c, 0, 77, 91
1, 3600, Note_on_c, 1, 68, 75
1, 3600, Note_on_c, 1, 60, 75
1, 3645, Note_on_c, 1, 68, 0
1, 3645, Note_on_c, 1, 60, 0
1, 3648, Note_on_c, 0, 77, 0
1, 3648, Note_on_c, 0, 75, 75
1, 3693, Note_on_c, 0, 75, 0
1, 3696, Note_on_c, 0, 80, 75
1, 3741, Note_on_c, 0, 80, 0
1, 3744, Note_on_c, 0, 75, 75
1, 3756, Note_on_c, 0, 75, 0
1, 3756, Note_on_c, 0, 73, 75
1, 3789, Note_on_c, 0, 73, 0
1, 3792, Note_on_c, 0, 73, 75
1, 3792, Note_on_c, 1, 65, 75
1, 3792, Note_on_c, 1, 58, 75
1, 3812, Note_on_c, 0, 73, 0
1, 3812, Note_on_c, 1, 65, 0
1, 3812, Note_on_c, 1, 58, 0
1, 3840, Note_on_c, 0, 73, 75
1, 3840, Note_on_c, 1, 64, 75
1, 3840, Note_on_c, 1, 56, 75
1, 3860, Note_on_c, 0, 73, 0
1, 3860, Note_on_c, 1, 64, 0
1, 3860, Note_on_c, 1, 56, 0
1, 3888, Note_on_c, 0, 73, 75
1, 3888, Note_on_c, 1, 63, 75
1, 3888, Note_on_c, 1, 55, 75
1, 3955, Note_on_c, 0, 73, 0
1, 3960, Note_on_c, 0, 70, 75
1, 3983, Note_on_c, 0, 70, 0
1, 3984, Note_on_c, 0, 72, 75
1, 3984, Note_on_c, 1, 55, 0
1, 3984, Note_on_c, 1, 56, 75
1, 4029, Note_on_c, 0, 72, 0
1, 4029, Note_on_c, 1, 63, 0
1, 4029, Note_on_c, 1, 56, 0
1, 4032, Note_on_c, 0, 72, 75
1, 4032, Note_on_c, 1, 61, 75
1, 4032, Note_on_c, 1, 49, 75
1, 4044, Note_on_c, 0, 72, 0
1, 4044, Note_on_c, 0, 70, 75
1, 4077, Note_on_c, 0, 70, 0
1, 4077, Note_on_c, 1, 61, 0
1, 4077, Note_on_c, 1, 49, 0
1, 4080, Note_on_c, 0, 70, 75
1, 4080, Note_on_c, 1, 60, 75
1, 4080, Note_on_c, 1, 51, 75
1, 4092, Note_on_c, 0, 70, 0
1, 4092, Note_on_c, 0, 68, 75
1, 4125, Note_on_c, 0, 68, 0
1, 4125, Note_on_c, 1, 60, 0
1, 4125, Note_on_c, 1, 51, 0
1, 4128, Note_on_c, 0, 68, 75
1, 4128, Note_on_c, 1, 58, 75
1, 4128, Note_on_c, 1, 51, 75
1, 4140, Note_on_c, 0, 68, 0
1, 4140, Note_on_c, 0, 67, 75
1, 4173, Note_on_c, 1, 58, 0
1, 4173, Note_on_c, 1, 51, 0
1, 4176, Note_on_c, 0, 67, 0
1, 4176, Note_on_c, 0, 68, 75
1, 4176, Note_on_c, 1, 56, 75
1, 4176, Note_on_c, 1, 44, 75
1, 4221, Note_on_c, 0, 68, 0
1, 4223, Note_on_c, 1, 56, 0
1, 4223, Note_on_c, 1, 44, 0
1, 4248, Note_on_c, 0, 79, 64
1, 4260, Note_on_c, 0, 79, 0
1, 4260, Note_on_c, 0, 80, 64
1, 4272, Note_on_c, 0, 80, 0
1, 4272, Note_on_c, 0, 82, 64
1, 4284, Note_on_c, 0, 82, 0
1, 4284, Note_on_c, 0, 80, 64
1, 4296, Note_on_c, 0, 80, 0
1, 4296, Note_on_c, 0, 79, 64
1, 4308, Note_on_c, 0, 79, 0
1, 4308, Note_on_c, 0, 80, 64
1, 4320, Note_on_c, 0, 80, 0
1, 4320, Note_on_c, 0, 79, 64
1, 4320, Note_on_c, 1, 68, 64
1, 4320, Note_on_c, 1, 61, 64
1, 4365, Note_on_c, 1, 68, 0
1, 4365, Note_on_c, 1, 61, 0
1, 4368, Note_on_c, 0, 79, 0
1, 4368, Note_on_c, 0, 77, 64
1, 4387, Note_on_c, 0, 77, 0
1, 4392, Note_on_c, 0, 79, 64
1, 4404, Note_on_c, 0, 79, 0
1, 4404, Note_on_c, 0, 80, 64
1, 4416, Note_on_c, 0, 80, 0
1, 4416, Note_on_c, 0, 82, 64
1, 4428, Note_on_c, 0, 82, 0
1, 4428, Note_on_c, 0, 80, 64
1, 4440, Note_on_c, 0, 80, 0
1, 4440, Note_on_c, 0, 79, 64
1, 4452, Note_on_c, 0, 79, 0
1, 4452, Note_on_c, 0, 80, 64
1, 4464, Note_on_c, 0, 80, 0
1, 4464, Note_on_c, 0, 77, 64
1, 4464, Note_on_c, 1, 68, 64
1, 4464, Note_on_c, 1, 60, 64
1, 4509, Note_on_c, 1, 68, 0
1, 4509, Note_on_c, 1, 60, 0
1, 4512, Note_on_c, 0, 77, 0
1, 4512, Note_on_c, 0, 75, 64
1, 4531, Note_on_c, 0, 75, 0
1, 4536, Note_on_c, 0, 80, 64
1, 4548, Note_on_c, 0, 80, 0
1, 4548, Note_on_c, 0, 84, 64
1, 4560, Note_on_c, 0, 84, 0
1, 4560, Note_on_c, 0, 82, 64
1, 4572, Note_on_c, 0, 82, 0
1, 4572, Note_on_c, 0, 80, 64
1, 4584, Note_on_c, 0, 80, 0
1, 4584, Note_on_c, 0, 79, 64
1, 4596, Note_on_c, 0, 79, 0
1, 4596, Note_on_c, 0, 77, 64
1, 4608, Note_on_c, 0, 77, 0
1, 4608, Note_on_c, 0, 75, 64
1, 4631, Note_on_c, 0, 75, 0
1, 4632, Note_on_c, 0, 74, 64
1, 4655, Note_on_c, 0, 74, 0
1, 4656, Note_on_c, 0, 73, 64
1, 4656, Note_on_c, 1, 65, 64
1, 4656, Note_on_c, 1, 58, 64
1, 4676, Note_on_c, 0, 73, 0
1, 4676, Note_on_c, 1, 65, 0
1, 4676, Note_on_c, 1, 58, 0
1, 4704, Note_on_c, 0, 73, 64
1, 4704, Note_on_c, 1, 64, 64
1, 4704, Note_on_c, 1, 56, 64
1, 4724, Note_on_c, 0, 73, 0
1, 4724, Note_on_c, 1, 64, 0
1, 4724, Note_on_c, 1, 56, 0
1, 4752, Note_on_c, 0, 73, 64
1, 4752, Note_on_c, 1, 63, 64
1, 4752, Note_on_c, 1, 55, 64
1, 4764, Note_on_c, 0, 73, 0
1, 4764, Note_on_c, 0, 82, 64
1, 4815, Note_on_c, 0, 82, 0
1, 4816, Note_on_c, 0, 80, 64
1, 4823, Note_on_c, 0, 80, 0
1, 4832, Note_on_c, 0, 79, 64
1, 4839, Note_on_c, 0, 79, 0
1, 4848, Note_on_c, 0, 77, 64
1, 4855, Note_on_c, 0, 77, 0
1, 4864, Note_on_c, 0, 75, 64
1, 4871, Note_on_c, 0, 75, 0
1, 4880, Note_on_c, 0, 73, 64
1, 4885, Note_on_c, 1, 63, 0
1, 4885, Note_on_c, 1, 55, 0
1, 4887, Note_on_c, 0, 73, 0
1, 4896, Note_on_c, 0, 72, 80
1, 4908, Note_on_c, 0, 72, 0
1, 4908, Note_on_c, 0, 87, 80
1, 4944, Note_on_c, 1, 60, 80
1, 4944, Note_on_c, 1, 56, 80
1, 4967, Note_on_c, 0, 87, 0
1, 4968, Note_on_c, 0, 85, 80
1, 4973, Note_on_c, 0, 85, 0
1, 4980, Note_on_c, 0, 84, 80
1, 4985, Note_on_c, 0, 84, 0
1, 4989, Note_on_c, 1, 60, 0
1, 4989, Note_on_c, 1, 56, 0
1, 4992, Note_on_c, 0, 82, 80
1, 4992, Note_on_c, 1, 63, 80
1, 4992, Note_on_c, 1, 60, 80
1, 5004, Note_on_c, 0, 82, 0
1, 5004, Note_on_c, 0, 80, 79
1, 5016, Note_on_c, 0, 80, 0
1, 5016, Note_on_c, 0, 79, 78
1, 5028, Note_on_c, 0, 79, 0
1, 5028, Note_on_c, 0, 80, 77
1, 5037, Note_on_c, 1, 63, 0
1, 5037, Note_on_c, 1, 60, 0
1, 5040, Note_on_c, 0, 80, 0
1, 5040, Note_on_c, 0, 79, 76
1, 5040, Note_on_c, 1, 61, 76
1, 5052, Note_on_c, 0, 79, 0
1, 5052, Note_on_c, 0, 77, 75
1, 5064, Note_on_c, 0, 77, 0
1, 5064, Note_on_c, 0, 75, 74
1, 5076, Note_on_c, 0, 75, 0
1, 5076, Note_on_c, 0, 73, 73
1, 5088, Note_on_c, 0, 73, 0
1, 5088, Note_on_c, 0, 72, 72
1, 5088, Note_on_c, 1, 61, 0
1, 5088, Note_on_c, 1, 63, 72
1, 5133, Note_on_c, 0, 72, 0
1, 5133, Note_on_c, 1, 63, 0
1, 5136, Note_on_c, 0, 70, 68
1, 5136, Note_on_c, 1, 61, 68
1, 5136, Note_on_c, 1, 51, 68
1, 5143, Note_on_c, 0, 70, 0
1, 5143, Note_on_c, 0, 72, 67
1, 5150, Note_on_c, 0, 72, 0
1, 5150, Note_on_c, 0, 70, 67
1, 5157, Note_on_c, 0, 70, 0
1, 5157, Note_on_c, 0, 72, 66
1, 5164, Note_on_c, 0, 72, 0
1, 5164, Note_on_c, 0, 70, 66
1, 5171, Note_on_c, 0, 70, 0
1, 5171, Note_on_c, 0, 68, 65
1, 5178, Note_on_c, 0, 68, 0
1, 5178, Note_on_c, 0, 70, 65
1, 5181, Note_on_c, 1, 61, 0
1, 5181, Note_on_c, 1, 51, 0
1, 5184, Note_on_c, 0, 70, 0
1, 5184, Note_on_c, 0, 68, 64
1, 5184, Note_on_c, 1, 60, 64
1, 5184, Note_on_c, 1, 56, 64
1, 5229, Note_on_c, 0, 68, 0
1, 5229, Note_on_c, 1, 60, 0
1, 5229, Note_on_c, 1, 56, 0
1, 5232, Note_on_c, 0, 63, 64
1, 5232, Note_on_c, 0, 60, 64
1, 5232, Note_on_c, 1, 56, 64
1, 5232, Note_on_c, 1, 44, 64
1, 5252, Note_on_c, 0, 63, 0
1, 5252, Note_on_c, 0, 60, 0
1, 5252, Note_on_c, 1, 56, 0
1, 5252, Note_on_c, 1, 44, 0
1, 5280, Note_on_c, 0, 63, 64
1, 5280, Note_on_c, 0, 60, 64
1, 5280, Note_on_c, 1, 56, 64
1, 5280, Note_on_c, 1, 44, 64
1, 5300, Note_on_c, 0, 63, 0
1, 5300, Note_on_c, 0, 60, 0
1, 5300, Note_on_c, 1, 56, 0
1, 5300, Note_on_c, 1, 44, 0
1, 5328, Note_on_c, 0, 60, 64
1, 5328, Note_on_c, 1, 56, 64
1, 5328, Note_on_c, 1, 44, 64
1, 5336, Note_on_c, 0, 63, 64
1, 5344, Note_on_c, 0, 68, 64
1, 5421, Note_on_c, 0, 68, 0
1, 5421, Note_on_c, 0, 63, 0
1, 5421, Note_on_c, 0, 60, 0
1, 5421, Note_on_c, 1, 56, 0
1, 5421, Note_on_c, 1, 44, 0
1, 5472, Note_on_c, 0, 84, 64
1, 5472, Note_on_c, 1, 68, 64
1, 5472, Note_on_c, 1, 65, 64
1, 5561, Note_on_c, 0, 84, 0
1, 5561, Note_on_c, 1, 68, 0
1, 5561, Note_on_c, 1, 65, 0
1, 5568, Note_on_c, 0, 82, 64
1, 5568, Note_on_c, 1, 68, 64
1, 5568, Note_on_c, 1, 65, 64
1, 5580, Note_on_c, 0, 82, 0
1, 5580, Note_on_c, 0, 80, 64
1, 5592, Note_on_c, 0, 80, 0
1, 5592, Note_on_c, 0, 79, 64
1, 5604, Note_on_c, 0, 79, 0
1, 5604, Note_on_c, 0, 77, 64
1, 5613, Note_on_c, 1, 68, 0
1, 5613, Note_on_c, 1, 65, 0
1, 5616, Note_on_c, 0, 77, 0
1, 5616, Note_on_c, 0, 77, 64
1, 5616, Note_on_c, 1, 72, 64
1, 5616, Note_on_c, 1, 68, 64
1, 5705, Note_on_c, 0, 77, 0
1, 5705, Note_on_c, 1, 72, 0
1, 5705, Note_on_c, 1, 68, 0
1, 5712, Note_on_c, 0, 77, 64
1, 5712, Note_on_c, 1, 72, 64
1, 5712, Note_on_c, 1, 68, 64
1, 5757, Note_on_c, 0, 77, 0
1, 5760, Note_on_c, 0, 77, 64
1, 5760, Note_on_c, 1, 72, 0
1, 5760, Note_on_c, 1, 68, 0
1, 5760, Note_on_c, 1, 73, 64
1, 5760, Note_on_c, 1, 70, 64
1, 5827, Note_on_c, 0, 77, 0
1, 5832, Note_on_c, 0, 79, 64
1, 5849, Note_on_c, 1, 73, 0
1, 5849, Note_on_c, 1, 70, 0
1, 5855, Note_on_c, 0, 79, 0
1, 5856, Note_on_c, 0, 77, 64
1, 5856, Note_on_c, 1, 73, 64
1, 5856, Note_on_c, 1, 70, 64
1, 5889, Note_on_c, 0, 77, 0
1, 5892, Note_on_c, 0, 77, 64
1, 5898, Note_on_c, 0, 77, 0
1, 5898, Note_on_c, 0, 79, 64
1, 5904, Note_on_c, 0, 79, 0
1, 5904, Note_on_c, 0, 80, 64
1, 5904, Note_on_c, 1, 73, 0
1, 5904, Note_on_c, 1, 70, 0
1, 5904, Note_on_c, 1, 72, 64
1, 5904, Note_on_c, 1, 68, 64
1, 5949, Note_on_c, 0, 80, 0
1, 5949, Note_on_c, 1, 72, 0
1, 5949, Note_on_c, 1, 68, 0
1, 6000, Note_on_c, 0, 68, 80
1, 6000, Note_on_c, 1, 56, 80
1, 6047, Note_on_c, 0, 68, 0
1, 6047, Note_on_c, 1, 56, 0
1, 6048, Note_on_c, 0, 70, 80
1, 6048, Note_on_c, 1, 58, 80
1, 6115, Note_on_c, 0, 70, 0
1, 6115, Note_on_c, 1, 58, 0
1, 6120, Note_on_c, 0, 73, 80
1, 6120, Note_on_c, 1, 61, 80
1, 6132, Note_on_c, 0, 73, 0
1, 6132, Note_on_c, 0, 72, 80
1, 6132, Note_on_c, 1, 61, 0
1, 6132, Note_on_c, 1, 60, 80
1, 6144, Note_on_c, 0, 72, 0
1, 6144, Note_on_c, 0, 70, 80
1, 6144, Note_on_c, 1, 60, 0
1, 6144, Note_on_c, 1, 58, 80
1, 6156, Note_on_c, 0, 70, 0
1, 6156, Note_on_c, 0, 68, 80
1, 6156, Note_on_c, 1, 58, 0
1, 6156, Note_on_c, 1, 56, 80
1, 6168, Note_on_c, 0, 68, 0
1, 6168, Note_on_c, 0, 67, 80
1, 6168, Note_on_c, 1, 56, 0
1, 6168, Note_on_c, 1, 55, 80
1, 6180, Note_on_c, 0, 67, 0
1, 6180, Note_on_c, 0, 65, 80
1, 6180, Note_on_c, 1, 55, 0
1, 6180, Note_on_c, 1, 53, 80
1, 6192, Note_on_c, 0, 65, 0
1, 6192, Note_on_c, 0, 64, 80
1, 6192, Note_on_c, 1, 53, 0
1, 6192, Note_on_c, 1, 52, 80
1, 6240, Note_on_c, 0, 64, 0
1, 6240, Note_on_c, 0, 67, 80
1, 6240, Note_on_c, 1, 52, 0
1, 6240, Note_on_c, 1, 55, 80
1, 6263, Note_on_c, 0, 67, 0
1, 6263, Note_on_c, 1, 55, 0
1, 6264, Note_on_c, 0, 61, 80
1, 6264, Note_on_c, 1, 49, 80
1, 6274, Note_on_c, 0, 61, 0
1, 6274, Note_on_c, 1, 49, 0
1, 6288, Note_on_c, 0, 60, 80
1, 6288, Note_on_c, 1, 48, 80
1, 6298, Note_on_c, 0, 60, 0
1, 6298, Note_on_c, 1, 48, 0
1, 6312, Note_on_c, 0, 58, 80
1, 6312, Note_on_c, 1, 46, 80
1, 6322, Note_on_c, 0, 58, 0
1, 6322, Note_on_c, 1, 46, 0
1, 6336, Note_on_c, 0, 56, 80
1, 6336, Note_on_c, 1, 44, 80
1, 6359, Note_on_c, 0, 56, 0
1, 6359, Note_on_c, 1, 44, 0
1, 6360, Note_on_c, 0, 55, 80
1, 6360, Note_on_c, 1, 43, 80
1, 6383, Note_on_c, 0, 55, 0
1, 6383, Note_on_c, 1, 43, 0
1, 6384, Note_on_c, 0, 53, 80
1, 6384, Note_on_c, 1, 41, 80
1, 6404, Note_on_c, 0, 53, 0
1, 6404, Note_on_c, 1, 41, 0
1, 6432, Note_on_c, 0, 53, 80
1, 6432, Note_on_c, 1, 41, 80
1, 6452, Note_on_c, 0, 53, 0
1, 6452, Note_on_c, 1, 41, 0
1, 6480, Note_on_c, 0, 53, 80
1, 6480, Note_on_c, 1, 41, 80
1, 6525, Note_on_c, 0, 53, 0
1, 6525, Note_on_c, 1, 41, 0
1, 6552, Note_on_c, 0, 72, 64
1, 6575, Note_on_c, 0, 72, 0
1, 6576, Note_on_c, 0, 77, 64
1, 6599, Note_on_c, 0, 77, 0
1, 6600, Note_on_c, 0, 80, 64
1, 6623, Note_on_c, 0, 80, 0
1, 6624, Note_on_c, 0, 84, 64
1, 6624, Note_on_c, 1, 68, 64
1, 6624, Note_on_c, 1, 65, 64
1, 6713, Note_on_c, 0, 84, 0
1, 6713, Note_on_c, 1, 68, 0
1, 6713, Note_on_c, 1, 65, 0
1, 6720, Note_on_c, 0, 82, 64
1, 6720, Note_on_c, 1, 68, 64
1, 6720, Note_on_c, 1, 65, 64
1, 6732, Note_on_c, 0, 82, 0
1, 6732, Note_on_c, 0, 80, 64
1, 6744, Note_on_c, 0, 80, 0
1, 6744, Note_on_c, 0, 79, 64
1, 6756, Note_on_c, 0, 79, 0
1, 6756, Note_on_c, 0, 77, 64
1, 6765, Note_on_c, 1, 68, 0
1, 6765, Note_on_c, 1, 65, 0
1, 6768, Note_on_c, 0, 77, 0
1, 6768, Note_on_c, 0, 77, 64
1, 6768, Note_on_c, 1, 72, 64
1, 6768, Note_on_c, 1, 68, 64
1, 6857, Note_on_c, 0, 77, 0
1, 6857, Note_on_c, 1, 72, 0
1, 6857, Note_on_c, 1, 68, 0
1, 6864, Note_on_c, 0, 77, 64
1, 6864, Note_on_c, 1, 72, 64
1, 6864, Note_on_c, 1, 68, 64
1, 6909, Note_on_c, 0, 77, 0
1, 6912, Note_on_c, 0, 77, 64
1, 6912, Note_on_c, 1, 72, 0
1, 6912, Note_on_c, 1, 68, 0
1, 6912, Note_on_c, 1, 73, 64
1, 6912, Note_on_c, 1, 70, 64
1, 6979, Note_on_c, 0, 77, 0
1, 6984, Note_on_c, 0, 79, 64
1, 7001, Note_on_c, 1, 73, 0
1, 7001, Note_on_c, 1, 70, 0
1, 7007, Note_on_c, 0, 79, 0
1, 7008, Note_on_c, 0, 77, 64
1, 7008, Note_on_c, 1, 72, 64
1, 7008, Note_on_c, 1, 68, 64
1, 7041, Note_on_c, 0, 77, 0
1, 7044, Note_on_c, 0, 76, 64
1, 7050, Note_on_c, 0, 76, 0
1, 7050, Note_on_c, 0, 79, 64
1, 7056, Note_on_c, 0, 79, 0
1, 7056, Note_on_c, 0, 82, 64
1, 7056, Note_on_c, 1, 72, 0
1, 7056, Note_on_c, 1, 68, 0
1, 7056, Note_on_c, 1, 70, 64
1, 7056, Note_on_c, 1, 67, 64
1, 7101, Note_on_c, 0, 82, 0
1, 7101, Note_on_c, 1, 70, 0
1, 7101, Note_on_c, 1, 67, 0
1, 7152, Note_on_c, 0, 80, 64
1, 7152, Note_on_c, 0, 77, 64
1, 7152, Note_on_c, 1, 65, 64
1, 7197, Note_on_c, 0, 80, 0
1, 7197, Note_on_c, 0, 77, 0
1, 7197, Note_on_c, 1, 65, 0
1, 7200, Note_on_c, 0, 79, 64
1, 7200, Note_on_c, 0, 76, 64
1, 7200, Note_on_c, 1, 72, 64
1, 7267, Note_on_c, 0, 79, 0
1, 7267, Note_on_c, 0, 76, 0
1, 7267, Note_on_c, 1, 72, 0
1, 7272, Note_on_c, 0, 80, 64
1, 7272, Note_on_c, 0, 77, 64
1, 7272, Note_on_c, 1, 71, 64
1, 7295, Note_on_c, 0, 80, 0
1, 7295, Note_on_c, 0, 77, 0
1, 7295, Note_on_c, 1, 71, 0
1, 7296, Note_on_c, 0, 79, 64
1, 7296, Note_on_c, 0, 76, 64
1, 7296, Note_on_c, 1, 72, 64
1, 7341, Note_on_c, 0, 79, 0
1, 7341, Note_on_c, 0, 76, 0
1, 7341, Note_on_c, 1, 72, 0
1, 7344, Note_on_c, 0, 82, 64
1, 7344, Note_on_c, 0, 79, 64
1, 7344, Note_on_c, 0, 76, 64
1, 7344, Note_on_c, 1, 60, 64
1, 7389, Note_on_c, 0, 82, 0
1, 7389, Note_on_c, 0, 79, 0
1, 7389, Note_on_c, 0, 76, 0
1, 7389, Note_on_c, 1, 60, 0
1, 7440, Note_on_c, 0, 80, 58
1, 7440, Note_on_c, 0, 77, 58
1, 7440, Note_on_c, 1, 71, 58
1, 7485, Note_on_c, 0, 80, 0
1, 7485, Note_on_c, 0, 77, 0
1, 7485, Note_on_c, 1, 71, 0
1, 7488, Note_on_c, 0, 79, 58
1, 7488, Note_on_c, 0, 76, 58
1, 7488, Note_on_c, 1, 72, 58
1, 7555, Note_on_c, 0, 79, 0
1, 7555, Note_on_c, 0, 76, 0
1, 7555, Note_on_c, 1, 72, 0
1, 7560, Note_on_c, 0, 80, 58
1, 7560, Note_on_c, 0, 77, 58
1, 7560, Note_on_c, 1, 71, 58
1, 7583, Note_on_c, 0, 80, 0
1, 7583, Note_on_c, 0, 77, 0
1, 7583, Note_on_c, 1, 71, 0
1, 7584, Note_on_c, 0, 79, 58
1, 7584, Note_on_c, 0, 76, 58
1, 7584, Note_on_c, 1, 72, 58
1, 7629, Note_on_c, 0, 79, 0
1, 7629, Note_on_c, 0, 76, 0
1, 7629, Note_on_c, 1, 72, 0
1, 7632, Note_on_c, 0, 79, 58
1, 7632, Note_on_c, 0, 76, 58
1, 7632, Note_on_c, 1, 72, 58
1, 7710, Note_on_c, 0, 79, 0
1, 7710, Note_on_c, 0, 76, 0
1, 7710, Note_on_c, 1, 72, 0
1, 7716, Tempo, 1333333
1, 7776, Tempo, 1090909
1, 7776, Note_on_c, 0, 72, 80
1, 7776, Note_on_c, 1, 44, 80
1, 7782, Note_on_c, 1, 48, 80
1, 7784, Note_on_c, 0, 75, 80
1, 7788, Note_on_c, 1, 51, 80
1, 7792, Note_on_c, 0, 80, 80
1, 7794, Note_on_c, 1, 56, 80
1, 7869, Note_on_c, 0, 80, 0
1, 7869, Note_on_c, 0, 75, 0
1, 7869, Note_on_c, 0, 72, 0
1, 7872, Note_on_c, 0, 75, 80
1, 7892, Note_on_c, 0, 75, 0
1, 7920, Note_on_c, 0, 72, 80
1, 7940, Note_on_c, 0, 72, 0
1, 7968, Note_on_c, 0, 68, 74
1, 7988, Note_on_c, 0, 68, 0
1, 8016, Note_on_c, 0, 63, 69
1, 8036, Note_on_c, 0, 63, 0
1, 8049, Note_on_c, 1, 56, 0
1, 8049, Note_on_c, 1, 51, 0
1, 8049, Note_on_c, 1, 48, 0
1, 8049, Note_on_c, 1, 44, 0
1, 8064, Note_on_c, 0, 61, 64
1, 8064, Note_on_c, 1, 56, 64
1, 8064, Note_on_c, 1, 53, 64
1, 8064, Note_on_c, 1, 46, 64
1, 8131, Note_on_c, 0, 61, 0
1, 8136, Note_on_c, 0, 63, 64
1, 8158, Note_on_c, 1, 56, 0
1, 8158, Note_on_c, 1, 53, 0
1, 8158, Note_on_c, 1, 46, 0
1, 8159, Note_on_c, 0, 63, 0
1, 8160, Note_on_c, 0, 61, 64
1, 8160, Note_on_c, 1, 56, 64
1, 8160, Note_on_c, 1, 53, 64
1, 8160, Note_on_c, 1, 46, 64
1, 8205, Note_on_c, 0, 61, 0
1, 8207, Note_on_c, 1, 56, 0
1, 8207, Note_on_c, 1, 53, 0
1, 8207, Note_on_c, 1, 46, 0
1, 8208, Note_on_c, 0, 61, 64
1, 8208, Note_on_c, 1, 56, 64
1, 8208, Note_on_c, 1, 53, 64
1, 8208, Note_on_c, 1, 46, 64
1, 8275, Note_on_c, 0, 61, 0
1, 8278, Note_on_c, 1, 56, 0
1, 8278, Note_on_c, 1, 53, 0
1, 8278, Note_on_c, 1, 46, 0
1, 8352, Note_on_c, 0, 70, 80
1, 8352, Note_on_c, 1, 43, 80
1, 8358, Note_on_c, 0, 73, 80
1, 8358, Note_on_c, 1, 46, 80
1, 8364, Note_on_c, 0, 79, 80
1, 8364, Note_on_c, 1, 51, 80
1, 8370, Note_on_c, 0, 82, 80
1, 8370, Note_on_c, 1, 55, 80
1, 8445, Note_on_c, 0, 82, 0
1, 8445, Note_on_c, 0, 79, 0
1, 8445, Note_on_c, 0, 73, 0
1, 8445, Note_on_c, 0, 70, 0
1, 8448, Note_on_c, 0, 80, 80
1, 8454, Note_on_c, 0, 80, 0
1, 8454, Note_on_c, 0, 79, 80
1, 8460, Note_on_c, 0, 79, 0
1, 8460, Note_on_c, 0, 77, 80
1, 8466, Note_on_c, 0, 77, 0
1, 8466, Note_on_c, 0, 79, 80
1, 8493, Note_on_c, 0, 79, 0
1, 8496, Note_on_c, 0, 77, 80
1, 8502, Note_on_c, 0, 77, 0
1, 8502, Note_on_c, 0, 75, 80
1, 8508, Note_on_c, 0, 75, 0
1, 8508, Note_on_c, 0, 74, 80
1, 8514, Note_on_c, 0, 74, 0
1, 8514, Note_on_c, 0, 75, 80
1, 8541, Note_on_c, 0, 75, 0
1, 8544, Note_on_c, 0, 84, 80
1, 8550, Note_on_c, 0, 84, 0
1, 8550, Note_on_c, 0, 82, 80
1, 8556, Note_on_c, 0, 82, 0
1, 8556, Note_on_c, 0, 80, 80
1, 8562, Note_on_c, 0, 80, 0
1, 8562, Note_on_c, 0, 82, 80
1, 8589, Note_on_c, 0, 82, 0
1, 8592, Note_on_c, 0, 73, 80
1, 8599, Note_on_c, 0, 73, 0
1, 8599, Note_on_c, 0, 75, 80
1, 8606, Note_on_c, 0, 75, 0
1, 8606, Note_on_c, 0, 73, 80
1, 8613, Note_on_c, 0, 73, 0
1, 8613, Note_on_c, 0, 75, 80
1, 8620, Note_on_c, 0, 75, 0
1, 8620, Note_on_c, 0, 73, 80
1, 8625, Note_on_c, 1, 55, 0
1, 8625, Note_on_c, 1, 51, 0
1, 8625, Note_on_c, 1, 46, 0
1, 8625, Note_on_c, 1, 43, 0
1, 8627, Note_on_c, 0, 73, 0
1, 8627, Note_on_c, 0, 72, 80
1, 8634, Note_on_c, 0, 72, 0
1, 8634, Note_on_c, 0, 73, 80
1, 8640, Note_on_c, 0, 73, 0
1, 8640, Note_on_c, 0, 72, 64
1, 8640, Note_on_c, 1, 56, 64
1, 8640, Note_on_c, 1, 51, 64
1, 8640, Note_on_c, 1, 44, 64
1, 8707, Note_on_c, 0, 72, 0
1, 8712, Note_on_c, 0, 73, 64
1, 8734, Note_on_c, 1, 56, 0
1, 8734, Note_on_c, 1, 51, 0
1, 8734, Note_on_c, 1, 44, 0
1, 8735, Note_on_c, 0, 73, 0
1, 8736, Note_on_c, 0, 72, 64
1, 8736, Note_on_c, 1, 56, 64
1, 8736, Note_on_c, 1, 51, 64
1, 8736, Note_on_c, 1, 44, 64
1, 8781, Note_on_c, 0, 72, 0
1, 8783, Note_on_c, 1, 56, 0
1, 8783, Note_on_c, 1, 51, 0
1, 8783, Note_on_c, 1, 44, 0
1, 8784, Note_on_c, 0, 72, 64
1, 8784, Note_on_c, 1, 56, 64
1, 8784, Note_on_c, 1, 51, 64
1, 8784, Note_on_c, 1, 44, 64
1, 8829, Note_on_c, 0, 72, 0
1, 8831, Note_on_c, 1, 56, 0
1, 8831, Note_on_c, 1, 51, 0
1, 8831, Note_on_c, 1, 44, 0
1, 8880, Note_on_c, 0, 80, 75
1, 8925, Note_on_c, 0, 80, 0
1, 8928, Note_on_c, 0, 79, 91
1, 8928, Note_on_c, 1, 68, 75
1, 8928, Note_on_c, 1, 61, 75
1, 8973, Note_on_c, 1, 68, 0
1, 8973, Note_on_c, 1, 61, 0
1, 8976, Note_on_c, 0, 79, 0
1, 8976, Note_on_c, 0, 77, 75
1, 9021, Note_on_c, 0, 77, 0
1, 9024, Note_on_c, 0, 80, 75
1, 9069, Note_on_c, 0, 80, 0
1, 9072, Note_on_c, 0, 77, 91
1, 9072, Note_on_c, 1, 68, 75
1, 9072, Note_on_c, 1, 60, 75
1, 9117, Note_on_c, 1, 68, 0
1, 9117, Note_on_c, 1, 60, 0
1, 9120, Note_on_c, 0, 77, 0
1, 9120, Note_on_c, 0, 75, 75
1, 9165, Note_on_c, 0, 75, 0
1, 9168, Note_on_c, 0, 80, 75
1, 9213, Note_on_c, 0, 80, 0
1, 9216, Note_on_c, 0, 75, 75
1, 9228, Note_on_c, 0, 75, 0
1, 9228, Note_on_c, 0, 73, 75
1, 9261, Note_on_c, 0, 73, 0
1, 9264, Note_on_c, 0, 73, 75
1, 9264, Note_on_c, 1, 65, 75
1, 9264, Note_on_c, 1, 58, 75
1, 9284, Note_on_c, 0, 73, 0
1, 9284, Note_on_c, 1, 65, 0
1, 9284, Note_on_c, 1, 58, 0
1, 9312, Note_on_c, 0, 73, 75
1, 9312, Note_on_c, 1, 64, 75
1, 9312, Note_on_c, 1, 56, 75
1, 9332, Note_on_c, 0, 73, 0
1, 9332, Note_on_c, 1, 64, 0
1, 9332, Note_on_c, 1, 56, 0
1, 9360, Note_on_c, 0, 73, 75
1, 9360, Note_on_c, 1, 63, 75
1, 9360, Note_on_c, 1, 55, 75
1, 9427, Note_on_c, 0, 73, 0
1, 9432, Note_on_c, 0, 70, 75
1, 9455, Note_on_c, 0, 70, 0
1, 9456, Note_on_c, 0, 72, 75
1, 9456, Note_on_c, 1, 55, 0
1, 9456, Note_on_c, 1, 56, 75
1, 9501, Note_on_c, 0, 72, 0
1, 9501, Note_on_c, 1, 63, 0
1, 9501, Note_on_c, 1, 56, 0
1, 9504, Note_on_c, 0, 72, 75
1, 9504, Note_on_c, 1, 61, 75
1, 9504, Note_on_c, 1, 49, 75
1, 9516, Note_on_c, 0, 72, 0
1, 9516, Note_on_c, 0, 70, 75
1, 9549, Note_on_c, 0, 70, 0
1, 9549, Note_on_c, 1, 61, 0
1, 9549, Note_on_c, 1, 49, 0
1, 9552, Note_on_c, 0, 70, 75
1, 9552, Note_on_c, 1, 60, 75
1, 9552, Note_on_c, 1, 51, 75
1, 9564, Note_on_c, 0, 70, 0
1, 9564, Note_on_c, 0, 68, 75
1, 9597, Note_on_c, 0, 68, 0
1, 9597, Note_on_c, 1, 60, 0
1, 9597, Note_on_c, 1, 51, 0
1, 9600, Note_on_c, 0, 68, 75
1, 9600, Note_on_c, 1, 58, 75
1, 9600, Note_on_c, 1, 51, 75
1, 9612, Note_on_c, 0, 68, 0
1, 9612, Note_on_c, 0, 67, 75
1, 9645, Note_on_c, 1, 58, 0
1, 9645, Note_on_c, 1, 51, 0
1, 9648, Note_on_c, 0, 67, 0
1, 9648, Note_on_c, 0, 68, 75
1, 9648, Note_on_c, 1, 56, 75
1, 9648, Note_on_c, 1, 44, 75
1, 9693, Note_on_c, 0, 68, 0
1, 9695, Note_on_c, 1, 56, 0
1, 9695, Note_on_c, 1, 44, 0
1, 9720, Note_on_c, 0, 79, 64
1, 9732, Note_on_c, 0, 79, 0
1, 9732, Note_on_c, 0, 80, 64
1, 9744, Note_on_c, 0, 80, 0
1, 9744, Note_on_c, 0, 82, 64
1, 9756, Note_on_c, 0, 82, 0
1, 9756, Note_on_c, 0, 80, 64
1, 9768, Note_on_c, 0, 80, 0
1, 9768, Note_on_c, 0, 79, 64
1, 9780, Note_on_c, 0, 79, 0
1, 9780, Note_on_c, 0, 80, 64
1, 9792, Note_on_c, 0, 80, 0
1, 9792, Note_on_c, 0, 79, 64
1, 9792, Note_on_c, 1, 68, 64
1, 9792, Note_on_c, 1, 61, 64
1, 9837, Note_on_c, 1, 68, 0
1, 9837, Note_on_c, 1, 61, 0
1, 9840, Note_on_c, 0, 79, 0
1, 9840, Note_on_c, 0, 77, 64
1, 9859, Note_on_c, 0, 77, 0
1, 9864, Note_on_c, 0, 79, 64
1, 9876, Note_on_c, 0, 79, 0
1, 9876, Note_on_c, 0, 80, 64
1, 9888, Note_on_c, 0, 80, 0
1, 9888, Note_on_c, 0, 82, 64
1, 9900, Note_on_c, 0, 82, 0
1, 9900, Note_on_c, 0, 80, 64
1, 9912, Note_on_c, 0, 80, 0
1, 9912, Note_on_c, 0, 79, 64
1, 9924, Note_on_c, 0, 79, 0
1, 9924, Note_on_c, 0, 80, 64
1, 9936, Note_on_c, 0, 80, 0
1, 9936, Note_on_c, 0, 77, 64
1, 9936, Note_on_c, 1, 68, 64
1, 9936, Note_on_c, 1, 60, 64
1, 9981, Note_on_c, 1, 68, 0
1, 9981, Note_on_c, 1, 60, 0
1, 9984, Note_on_c, 0, 77, 0
1, 9984, Note_on_c, 0, 75, 64
1, 10003, Note_on_c, 0, 75, 0
1, 10008, Note_on_c, 0, 80, 64
1, 10020, Note_on_c, 0, 80, 0
1, 10020, Note_on_c, 0, 84, 64
1, 10032, Note_on_c, 0, 84, 0
1, 10032, Note_on_c, 0, 82, 64
1, 10044, Note_on_c, 0, 82, 0
1, 10044, Note_on_c, 0, 80, 64
1, 10056, Note_on_c, 0, 80, 0
1, 10056, Note_on_c, 0, 79, 64
1, 10068, Note_on_c, 0, 79, 0
1, 10068, Note_on_c, 0, 77, 64
1, 10080, Note_on_c, 0, 77, 0
1, 10080, Note_on_c, 0, 75, 64
1, 10103, Note_on_c, 0, 75, 0
1, 10104, Note_on_c, 0, 74, 64
1, 10127, Note_on_c, 0, 74, 0
1, 10128, Note_on_c, 0, 73, 64
1, 10128, Note_on_c, 1, 65, 64
1, 10128, Note_on_c, 1, 58, 64
1, 10148, Note_on_c, 0, 73, 0
1, 10148, Note_on_c, 1, 65, 0
1, 10148, Note_on_c, 1, 58, 0
1, 10176, Note_on_c, 0, 73, 64
1, 10176, Note_on_c, 1, 64, 64
1, 10176, Note_on_c, 1, 56, 64
1, 10196, Note_on_c, 0, 73, 0
1, 10196, Note_on_c, 1, 64, 0
1, 10196, Note_on_c, 1, 56, 0
1, 10224, Note_on_c, 0, 73, 64
1, 10224, Note_on_c, 1, 63, 64
1, 10224, Note_on_c, 1, 55, 64
1, 10236, Note_on_c, 0, 73, 0
1, 10236, Note_on_c, 0, 82, 64
1, 10287, Note_on_c, 0, 82, 0
1, 10288, Note_on_c, 0, 80, 64
1, 10295, Note_on_c, 0, 80, 0
1, 10304, Note_on_c, 0, 79, 64
1, 10311, Note_on_c, 0, 79, 0
1, 10320, Note_on_c, 0, 77, 64
1, 10327, Note_on_c, 0, 77, 0
1, 10336, Note_on_c, 0, 75, 64
1, 10343, Note_on_c, 0, 75, 0
1, 10352, Note_on_c, 0, 73, 64
1, 10357, Note_on_c, 1, 63, 0
1, 10357, Note_on_c, 1, 55, 0
1, 10359, Note_on_c, 0, 73, 0
1, 10368, Note_on_c, 0, 72, 80
1, 10380, Note_on_c, 0, 72, 0
1, 10380, Note_on_c, 0, 87, 80
1, 10416, Note_on_c, 1, 60, 80
1, 10416, Note_on_c, 1, 56, 80
1, 10439, Note_on_c, 0, 87, 0
1, 10440, Note_on_c, 0, 85, 80
1, 10445, Note_on_c, 0, 85, 0
1, 10452, Note_on_c, 0, 84, 80
1, 10457, Note_on_c, 0, 84, 0
1, 10461, Note_on_c, 1, 60, 0
1, 10461, Note_on_c, 1, 56, 0
1, 10464, Note_on_c, 0, 82, 80
1, 10464, Note_on_c, 1, 63, 80
1, 10464, Note_on_c, 1, 60, 80
1, 10476, Note_on_c, 0, 82, 0
1, 10476, Note_on_c, 0, 80, 79
1, 10488, Note_on_c, 0, 80, 0
1, 10488, Note_on_c, 0, 79, 78
1, 10500, Note_on_c, 0, 79, 0
1, 10500, Note_on_c, 0, 80, 77
1, 10509, Note_on_c, 1, 63, 0
1, 10509, Note_on_c, 1, 60, 0
1, 10512, Note_on_c, 0, 80, 0
1, 10512, Note_on_c, 0, 79, 76
1, 10512, Note_on_c, 1, 61, 76
1, 10524, Note_on_c, 0, 79, 0
1, 10524, Note_on_c, 0, 77, 75
1, 10536, Note_on_c, 0, 77, 0
1, 10536, Note_on_c, 0, 75, 74
1, 10548, Note_on_c, 0, 75, 0
1, 10548, Note_on_c, 0, 73, 73
1, 10560, Note_on_c, 0, 73, 0
1, 10560, Note_on_c, 0, 72, 72
1, 10560, Note_on_c, 1, 61, 0
1, 10560, Note_on_c, 1, 63, 72
1, 10605, Note_on_c, 0, 72, 0
1, 10605, Note_on_c, 1, 63, 0
1, 10608, Note_on_c, 0, 70, 68
1, 10608, Note_on_c, 1, 61, 68
1, 10608, Note_on_c, 1, 51, 68
1, 10615, Note_on_c, 0, 70, 0
1, 10615, Note_on_c, 0, 72, 67
1, 10622, Note_on_c, 0, 72, 0
1, 10622, Note_on_c, 0, 70, 67
1, 10629, Note_on_c, 0, 70, 0
1, 10629, Note_on_c, 0, 72, 66
1, 10636, Note_on_c, 0, 72, 0
1, 10636, Note_on_c, 0, 70, 66
1, 10643, Note_on_c, 0, 70, 0
1, 10643, Note_on_c, 0, 68, 65
1, 10650, Note_on_c, 0, 68, 0
1, 10650, Note_on_c, 0, 70, 65
1, 10653, Note_on_c, 1, 61, 0
1, 10653, Note_on_c, 1, 51, 0
1, 10656, Note_on_c, 0, 70, 0
1, 10656, Note_on_c, 0, 68, 64
1, 10656, Note_on_c, 1, 60, 64
1, 10656, Note_on_c, 1, 56, 64
1, 10701, Note_on_c, 0, 68, 0
1, 10701, Note_on_c, 1, 60, 0
1, 10701, Note_on_c, 1, 56, 0
1, 10704, Note_on_c, 0, 63, 64
1, 10704, Note_on_c, 0, 60, 64
1, 10704, Note_on_c, 1, 56, 64
1, 10704, Note_on_c, 1, 44, 64
1, 10724, Note_on_c, 0, 63, 0
1, 10724, Note_on_c, 0, 60, 0
1, 10724, Note_on_c, 1, 56, 0
1, 10724, Note_on_c, 1, 44, 0
1, 10752, Note_on_c, 0, 63, 64
1, 10752, Note_on_c, 0, 60, 64
1, 10752, Note_on_c, 1, 56, 64
1, 10752, Note_on_c, 1, 44, 64
1, 10772, Note_on_c, 0, 63, 0
1, 10772, Note_on_c, 0, 60, 0
1, 10772, Note_on_c, 1, 56, 0
1, 10772, Note_on_c, 1, 44, 0
1, 10800, Note_on_c, 0, 60, 64
1, 10800, Note_on_c, 1, 56, 64
1, 10800, Note_on_c, 1, 44, 64
1, 10808, Note_on_c, 0, 63, 64
1, 10816, Note_on_c, 0, 68, 64
1, 10893, Note_on_c, 0, 68, 0
1, 10893, Note_on_c, 0, 63, 0
1, 10893, Note_on_c, 0, 60, 0
1, 10893, Note_on_c, 1, 56, 0
1, 10893, Note_on_c, 1, 44, 0
1, 10944, Note_on_c, 0, 75, 64
1, 10944, Note_on_c, 1, 60, 64
1, 10944, Note_on_c, 1, 56, 64
1, 11033, Note_on_c, 0, 75, 0
1, 11033, Note_on_c, 1, 60, 0
1, 11033, Note_on_c, 1, 56, 0
1, 11040, Note_on_c, 0, 73, 64
1, 11040, Note_on_c, 1, 60, 64
1, 11040, Note_on_c, 1, 56, 64
1, 11052, Note_on_c, 0, 73, 0
1, 11052, Note_on_c, 0, 72, 64
1, 11064, Note_on_c, 0, 72, 0
1, 11064, Note_on_c, 0, 70, 64
1, 11076, Note_on_c, 0, 70, 0
1, 11076, Note_on_c, 0, 68, 64
1, 11088, Note_on_c, 0, 68, 0
1, 11088, Note_on_c, 0, 68, 64
1, 11088, Note_on_c, 1, 56, 0
1, 11088, Note_on_c, 1, 63, 64
1, 11177, Note_on_c, 0, 68, 0
1, 11177, Note_on_c, 1, 63, 0
1, 11177, Note_on_c, 1, 60, 0
1, 11184, Note_on_c, 0, 69, 64
1, 11184, Note_on_c, 1, 63, 64
1, 11184, Note_on_c, 1, 60, 64
1, 11232, Note_on_c, 0, 69, 0
1, 11232, Note_on_c, 0, 70, 64
1, 11232, Note_on_c, 1, 63, 0
1, 11232, Note_on_c, 1, 60, 0
1, 11232, Note_on_c, 1, 65, 64
1, 11232, Note_on_c, 1, 61, 64
1, 11299, Note_on_c, 0, 70, 0
1, 11304, Note_on_c, 0, 72, 64
1, 11321, Note_on_c, 1, 65, 0
1, 11321, Note_on_c, 1, 61, 0
1, 11327, Note_on_c, 0, 72, 0
1, 11328, Note_on_c, 0, 70, 64
1, 11328, Note_on_c, 1, 65, 64
1, 11328, Note_on_c, 1, 61, 64
1, 11373, Note_on_c, 0, 70, 0
1, 11373, Note_on_c, 1, 65, 0
1, 11373, Note_on_c, 1, 61, 0
1, 11376, Note_on_c, 0, 70, 64
1, 11376, Note_on_c, 1, 65, 64
1, 11376, Note_on_c, 1, 61, 64
1, 11421, Note_on_c, 0, 70, 0
1, 11421, Note_on_c, 1, 65, 0
1, 11421, Note_on_c, 1, 61, 0
1, 11520, Note_on_c, 0, 65, 75
1, 11526, Note_on_c, 0, 65, 0
1, 11526, Note_on_c, 0, 70, 75
1, 11532, Note_on_c, 0, 70, 0
1, 11532, Note_on_c, 0, 73, 75
1, 11538, Note_on_c, 0, 73, 0
1, 11538, Note_on_c, 0, 77, 75
1, 11609, Note_on_c, 0, 77, 0
1, 11616, Note_on_c, 0, 75, 75
1, 11628, Note_on_c, 0, 75, 0
1, 11628, Note_on_c, 0, 73, 75
1, 11640, Note_on_c, 0, 73, 0
1, 11640, Note_on_c, 0, 72, 75
1, 11652, Note_on_c, 0, 72, 0
1, 11652, Note_on_c, 0, 70, 75
1, 11664, Note_on_c, 0, 70, 0
1, 11664, Note_on_c, 0, 70, 75
1, 11753, Note_on_c, 0, 70, 0
1, 11760, Note_on_c, 0, 71, 75
1, 11760, Note_on_c, 1, 68, 75
1, 11760, Note_on_c, 1, 65, 75
1, 11808, Note_on_c, 0, 71, 0
1, 11808, Note_on_c, 0, 72, 75
1, 11808, Note_on_c, 1, 68, 0
1, 11808, Note_on_c, 1, 65, 0
1, 11808, Note_on_c, 1, 67, 75
1, 11808, Note_on_c, 1, 64, 75
1, 11875, Note_on_c, 0, 72, 0
1, 11880, Note_on_c, 0, 73, 75
1, 11897, Note_on_c, 1, 67, 0
1, 11897, Note_on_c, 1, 64, 0
1, 11903, Note_on_c, 0, 73, 0
1, 11904, Note_on_c, 0, 72, 75
1, 11904, Note_on_c, 1, 67, 75
1, 11904, Note_on_c, 1, 64, 75
1, 11949, Note_on_c, 0, 72, 0
1, 11949, Note_on_c, 1, 67, 0
1, 11949, Note_on_c, 1, 64, 0
1, 11952, Note_on_c, 0, 72, 75
1, 11952, Note_on_c, 1, 67, 75
1, 11952, Note_on_c, 1, 64, 75
1, 11997, Note_on_c, 0, 72, 0
1, 11997, Note_on_c, 1, 67, 0
1, 11997, Note_on_c, 1, 64, 0
1, 12048, Note_on_c, 0, 72, 80
1, 12048, Note_on_c, 1, 60, 80
1, 12048, Note_on_c, 1, 52, 80
1, 12060, Note_on_c, 0, 72, 0
1, 12060, Note_on_c, 0, 76, 80
1, 12072, Note_on_c, 0, 76, 0
1, 12072, Note_on_c, 0, 79, 80
1, 12084, Note_on_c, 0, 79, 0
1, 12084, Note_on_c, 0, 84, 80
1, 12096, Note_on_c, 0, 84, 0
1, 12096, Note_on_c, 0, 82, 80
1, 12096, Note_on_c, 1, 52, 0
1, 12096, Note_on_c, 1, 53, 80
1, 12144, Note_on_c, 0, 82, 0
1, 12144, Note_on_c, 0, 80, 80
1, 12154, Note_on_c, 0, 80, 0
1, 12168, Note_on_c, 0, 84, 80
1, 12180, Note_on_c, 0, 84, 0
1, 12180, Note_on_c, 0, 82, 80
1, 12185, Note_on_c, 1, 60, 0
1, 12185, Note_on_c, 1, 53, 0
1, 12192, Note_on_c, 0, 82, 0
1, 12192, Note_on_c, 0, 80, 80
1, 12192, Note_on_c, 1, 65, 80
1, 12192, Note_on_c, 1, 56, 80
1, 12204, Note_on_c, 0, 80, 0
1, 12204, Note_on_c, 0, 79, 80
1, 12216, Note_on_c, 0, 79, 0
1, 12216, Note_on_c, 0, 77, 80
1, 12228, Note_on_c, 0, 77, 0
1, 12228, Note_on_c, 0, 75, 80
1, 12240, Note_on_c, 0, 75, 0
1, 12240, Note_on_c, 0, 75, 80
1, 12240, Note_on_c, 1, 56, 0
1, 12240, Note_on_c, 1, 58, 80
1, 12288, Note_on_c, 0, 75, 0
1, 12288, Note_on_c, 0, 73, 80
1, 12298, Note_on_c, 0, 73, 0
1, 12312, Note_on_c, 0, 77, 80
1, 12324, Note_on_c, 0, 77, 0
1, 12324, Note_on_c, 0, 75, 80
1, 12329, Note_on_c, 1, 65, 0
1, 12329, Note_on_c, 1, 58, 0
1, 12336, Note_on_c, 0, 75, 0
1, 12336, Note_on_c, 0, 73, 80
1, 12336, Note_on_c, 1, 65, 80
1, 12336, Note_on_c, 1, 61, 80
1, 12348, Note_on_c, 0, 73, 0
1, 12348, Note_on_c, 0, 72, 80
1, 12360, Note_on_c, 0, 72, 0
1, 12360, Note_on_c, 0, 70, 80
1, 12372, Note_on_c, 0, 70, 0
1, 12372, Note_on_c, 0, 68, 80
1, 12384, Note_on_c, 0, 68, 0
1, 12384, Note_on_c, 0, 68, 80
1, 12384, Note_on_c, 1, 65, 0
1, 12384, Note_on_c, 1, 61, 0
1, 12384, Note_on_c, 1, 63, 80
1, 12432, Note_on_c, 0, 68, 0
1, 12432, Note_on_c, 0, 67, 80
1, 12442, Note_on_c, 0, 67, 0
1, 12456, Note_on_c, 0, 82, 80
1, 12468, Note_on_c, 0, 82, 0
1, 12468, Note_on_c, 0, 80, 80
1, 12473, Note_on_c, 1, 63, 0
1, 12480, Note_on_c, 0, 80, 0
1, 12480, Note_on_c, 0, 79, 80
1, 12480, Note_on_c, 1, 63, 80
1, 12480, Note_on_c, 1, 55, 80
1, 12492, Note_on_c, 0, 79, 0
1, 12492, Note_on_c, 0, 77, 80
1, 12504, Note_on_c, 0, 77, 0
1, 12504, Note_on_c, 0, 75, 80
1, 12516, Note_on_c, 0, 75, 0
1, 12516, Note_on_c, 0, 73, 80
1, 12528, Note_on_c, 0, 73, 0
1, 12528, Note_on_c, 0, 73, 80
1, 12528, Note_on_c, 1, 55, 0
1, 12528, Note_on_c, 1, 56, 80
1, 12576, Note_on_c, 0, 73, 0
1, 12576, Note_on_c, 0, 72, 80
1, 12586, Note_on_c, 0, 72, 0
1, 12600, Note_on_c, 0, 75, 80
1, 12612, Note_on_c, 0, 75, 0
1, 12612, Note_on_c, 0, 73, 80
1, 12617, Note_on_c, 1, 63, 0
1, 12617, Note_on_c, 1, 56, 0
1, 12624, Note_on_c, 0, 73, 0
1, 12624, Note_on_c, 0, 72, 80
1, 12624, Note_on_c, 1, 63, 80
1, 12624, Note_on_c, 1, 60, 80
1, 12636, Note_on_c, 0, 72, 0
1, 12636, Note_on_c, 0, 70, 80
1, 12648, Note_on_c, 0, 70, 0
1, 12648, Note_on_c, 0, 68, 80
1, 12660, Note_on_c, 0, 68, 0
1, 12660, Note_on_c, 0, 67, 80
1, 12672, Note_on_c, 0, 67, 0
1, 12672, Note_on_c, 0, 67, 80
1, 12672, Note_on_c, 1, 63, 0
1, 12672, Note_on_c, 1, 60, 0
1, 12672, Note_on_c, 1, 61, 80
1, 12720, Note_on_c, 0, 67, 0
1, 12720, Note_on_c, 0, 65, 80
1, 12730, Note_on_c, 0, 65, 0
1, 12744, Note_on_c, 0, 80, 80
1, 12756, Note_on_c, 0, 80, 0
1, 12756, Note_on_c, 0, 79, 80
1, 12761, Note_on_c, 1, 61, 0
1, 12768, Note_on_c, 0, 79, 0
1, 12768, Note_on_c, 0, 77, 80
1, 12768, Note_on_c, 1, 61, 80
1, 12768, Note_on_c, 1, 53, 80
1, 12780, Note_on_c, 0, 77, 0
1, 12780, Note_on_c, 0, 75, 80
1, 12792, Note_on_c, 0, 75, 0
1, 12792, Note_on_c, 0, 73, 80
1, 12804, Note_on_c, 0, 73, 0
1, 12804, Note_on_c, 0, 72, 80
1, 12816, Note_on_c, 0, 72, 0
1, 12816, Note_on_c, 0, 72, 80
1, 12816, Note_on_c, 1, 53, 0
1, 12816, Note_on_c, 1, 55, 80
1, 12864, Note_on_c, 0, 72, 0
1, 12864, Note_on_c, 0, 70, 80
1, 12874, Note_on_c, 0, 70, 0
1, 12888, Note_on_c, 0, 73, 80
1, 12900, Note_on_c, 0, 73, 0
1, 12900, Note_on_c, 0, 72, 80
1, 12905, Note_on_c, 1, 61, 0
1, 12905, Note_on_c, 1, 55, 0
1, 12912, Note_on_c, 0, 72, 0
1, 12912, Note_on_c, 0, 70, 80
1, 12912, Note_on_c, 1, 61, 80
1, 12912, Note_on_c, 1, 58, 80
1, 12924, Note_on_c, 0, 70, 0
1, 12924, Note_on_c, 0, 68, 80
1, 12936, Note_on_c, 0, 68, 0
1, 12936, Note_on_c, 0, 67, 80
1, 12948, Note_on_c, 0, 67, 0
1, 12948, Note_on_c, 0, 65, 80
1, 12960, Note_on_c, 0, 65, 0
1, 12960, Note_on_c, 0, 65, 80
1, 12960, Note_on_c, 1, 61, 0
1, 12960, Note_on_c, 1, 58, 0
1, 12960, Note_on_c, 1, 60, 80
1, 13008, Note_on_c, 0, 65, 0
1, 13008, Note_on_c, 0, 64, 80
1, 13018, Note_on_c, 0, 64, 0
1, 13032, Note_on_c, 0, 79, 80
1, 13044, Note_on_c, 0, 79, 0
1, 13044, Note_on_c, 0, 77, 80
1, 13049, Note_on_c, 1, 60, 0
1, 13056, Note_on_c, 0, 77, 0
1, 13056, Note_on_c, 0, 76, 80
1, 13056, Note_on_c, 1, 60, 80
1, 13056, Note_on_c, 1, 52, 80
1, 13068, Note_on_c, 0, 76, 0
1, 13068, Note_on_c, 0, 73, 80
1, 13080, Note_on_c, 0, 73, 0
1, 13080, Note_on_c, 0, 72, 80
1, 13092, Note_on_c, 0, 72, 0
1, 13092, Note_on_c, 0, 70, 80
1, 13104, Note_on_c, 0, 70, 0
1, 13104, Note_on_c, 0, 70, 80
1, 13104, Note_on_c, 1, 52, 0
1, 13104, Note_on_c, 1, 53, 80
1, 13152, Note_on_c, 0, 70, 0
1, 13152, Note_on_c, 0, 68, 76
1, 13193, Note_on_c, 1, 60, 0
1, 13193, Note_on_c, 1, 53, 0
1, 13197, Note_on_c, 0, 68, 0
1, 13200, Note_on_c, 0, 67, 73
1, 13200, Note_on_c, 1, 60, 80
1, 13200, Note_on_c, 1, 51, 80
1, 13245, Note_on_c, 0, 67, 0
1, 13245, Note_on_c, 1, 60, 0
1, 13245, Note_on_c, 1, 51, 0
1, 13248, Note_on_c, 0, 65, 75
1, 13248, Note_on_c, 1, 60, 80
1, 13248, Note_on_c, 1, 49, 80
1, 13271, Note_on_c, 0, 65, 0
1, 13272, Note_on_c, 0, 64, 75
1, 13295, Note_on_c, 0, 64, 0
1, 13296, Note_on_c, 0, 65, 76
1, 13319, Note_on_c, 0, 65, 0
1, 13320, Note_on_c, 0, 68, 76
1, 13337, Note_on_c, 1, 60, 0
1, 13337, Note_on_c, 1, 49, 0
1, 13343, Note_on_c, 0, 68, 0
1, 13344, Note_on_c, 0, 67, 77
1, 13344, Note_on_c, 1, 59, 80
1, 13344, Note_on_c, 1, 49, 80
1, 13367, Note_on_c, 0, 67, 0
1, 13368, Note_on_c, 0, 65, 77
1, 13389, Note_on_c, 1, 59, 0
1, 13389, Note_on_c, 1, 49, 0
1, 13391, Note_on_c, 0, 65, 0
1, 13392, Note_on_c, 0, 64, 78
1, 13392, Note_on_c, 1, 60, 80
1, 13392, Note_on_c, 1, 48, 80
1, 13396, Note_on_c, 0, 67, 78
1, 13400, Note_on_c, 0, 72, 78
1, 13437, Note_on_c, 1, 60, 0
1, 13437, Note_on_c, 1, 48, 0
1, 13450, Note_on_c, 0, 72, 0
1, 13450, Note_on_c, 0, 67, 0
1, 13450, Note_on_c, 0, 64, 0
1, 13488, Note_on_c, 0, 68, 80
1, 13488, Note_on_c, 0, 65, 80
1, 13536, Note_on_c, 0, 68, 0
1, 13536, Note_on_c, 0, 65, 0
1, 13536, Note_on_c, 0, 67, 77
1, 13536, Note_on_c, 0, 64, 77
1, 13536, Note_on_c, 1, 48, 77
1, 13536, Note_on_c, 1, 36, 77
1, 13581, Note_on_c, 0, 67, 0
1, 13581, Note_on_c, 0, 64, 0
1, 13581, Note_on_c, 1, 48, 0
1, 13581, Note_on_c, 1, 36, 0
1, 13632, Note_on_c, 0, 65, 72
1, 13632, Note_on_c, 0, 59, 72
1, 13680, Note_on_c, 0, 65, 0
1, 13680, Note_on_c, 0, 59, 0
1, 13680, Note_on_c, 0, 64, 69
1, 13680, Note_on_c, 0, 60, 69
1, 13680, Note_on_c, 1, 48, 69
1, 13680, Note_on_c, 1, 36, 69
1, 13769, Note_on_c, 0, 64, 0
1, 13769, Note_on_c, 0, 60, 0
1, 13769, Note_on_c, 1, 48, 0
1, 13769, Note_on_c, 1, 36, 0
1, 13776, Tempo, 2400000
1, 13824, Tempo, 1090909
1, 13824, Note_on_c, 0, 84, 64
1, 13824, Note_on_c, 1, 68, 64
1, 13824, Note_on_c, 1, 65, 64
1, 13913, Note_on_c, 0, 84, 0
1, 13913, Note_on_c, 1, 68, 0
1, 13913, Note_on_c, 1, 65, 0
1, 13920, Note_on_c, 0, 82, 64
1, 13920, Note_on_c, 1, 68, 64
1, 13920, Note_on_c, 1, 65, 64
1, 13932, Note_on_c, 0, 82, 0
1, 13932, Note_on_c, 0, 80, 64
1, 13944, Note_on_c, 0, 80, 0
1, 13944, Note_on_c, 0, 79, 64
1, 13956, Note_on_c, 0, 79, 0
1, 13956, Note_on_c, 0, 77, 64
1, 13965, Note_on_c, 1, 68, 0
1, 13965, Note_on_c, 1, 65, 0
1, 13968, Note_on_c, 0, 77, 0
1, 13968, Note_on_c, 0, 77, 64
1, 13968, Note_on_c, 1, 72, 64
1, 13968, Note_on_c, 1, 68, 64
1, 14057, Note_on_c, 0, 77, 0
1, 14057, Note_on_c, 1, 72, 0
1, 14057, Note_on_c, 1, 68, 0
1, 14064, Note_on_c, 0, 77, 64
1, 14064, Note_on_c, 1, 72, 64
1, 14064, Note_on_c, 1, 68, 64
1, 14109, Note_on_c, 0, 77, 0
1, 14112, Note_on_c, 0, 77, 64
1, 14112, Note_on_c, 1, 72, 0
1, 14112, Note_on_c, 1, 68, 0
1, 14112, Note_on_c, 1, 73, 64
1, 14112, Note_on_c, 1, 70, 64
1, 14179, Note_on_c, 0, 77, 0
1, 14184, Note_on_c, 0, 79, 64
1, 14201, Note_on_c, 1, 73, 0
1, 14201, Note_on_c, 1, 70, 0
1, 14207, Note_on_c, 0, 79, 0
1, 14208, Note_on_c, 0, 77, 64
1, 14208, Note_on_c, 1, 73, 64
1, 14208, Note_on_c, 1, 70, 64
1, 14241, Note_on_c, 0, 77, 0
1, 14244, Note_on_c, 0, 77, 64
1, 14250, Note_on_c, 0, 77, 0
1, 14250, Note_on_c, 0, 79, 64
1, 14256, Note_on_c, 0, 79, 0
1, 14256, Note_on_c, 0, 80, 64
1, 14256, Note_on_c, 1, 73, 0
1, 14256, Note_on_c, 1, 70, 0
1, 14256, Note_on_c, 1, 72, 64
1, 14256, Note_on_c, 1, 68, 64
1, 14301, Note_on_c, 0, 80, 0
1, 14301, Note_on_c, 1, 72, 0
1, 14301, Note_on_c, 1, 68, 0
1, 14352, Note_on_c, 0, 68, 80
1, 14352, Note_on_c, 1, 56, 80
1, 14399, Note_on_c, 0, 68, 0
1, 14399, Note_on_c, 1, 56, 0
1, 14400, Note_on_c, 0, 70, 80
1, 14400, Note_on_c, 1, 58, 80
1, 14467, Note_on_c, 0, 70, 0
1, 14467, Note_on_c, 1, 58, 0
1, 14472, Note_on_c, 0, 73, 80
1, 14472, Note_on_c, 1, 61, 80
1, 14484, Note_on_c, 0, 73, 0
1, 14484, Note_on_c, 0, 72, 80
1, 14484, Note_on_c, 1, 61, 0
1, 14484, Note_on_c, 1, 60, 80
1, 14496, Note_on_c, 0, 72, 0
1, 14496, Note_on_c, 0, 70, 80
1, 14496, Note_on_c, 1, 60, 0
1, 14496, Note_on_c, 1, 58, 80
1, 14508, Note_on_c, 0, 70, 0
1, 14508, Note_on_c, 0, 68, 80
1, 14508, Note_on_c, 1, 58, 0
1, 14508, Note_on_c, 1, 56, 80
1, 14520, Note_on_c, 0, 68, 0
1, 14520, Note_on_c, 0, 67, 80
1, 14520, Note_on_c, 1, 56, 0
1, 14520, Note_on_c, 1, 55, 80
1, 14532, Note_on_c, 0, 67, 0
1, 14532, Note_on_c, 0, 65, 80
1, 14532, Note_on_c, 1, 55, 0
1, 14532, Note_on_c, 1, 53, 80
1, 14544, Note_on_c, 0, 65, 0
1, 14544, Note_on_c, 0, 64, 80
1, 14544, Note_on_c, 1, 53, 0
1, 14544, Note_on_c, 1, 52, 80
1, 14592, Note_on_c, 0, 64, 0
1, 14592, Note_on_c, 0, 67, 80
1, 14592, Note_on_c, 1, 52, 0
1, 14592, Note_on_c, 1, 55, 80
1, 14615, Note_on_c, 0, 67, 0
1, 14615, Note_on_c, 1, 55, 0
1, 14616, Note_on_c, 0, 61, 80
1, 14616, Note_on_c, 1, 49, 80
1, 14626, Note_on_c, 0, 61, 0
1, 14626, Note_on_c, 1, 49, 0
1, 14640, Note_on_c, 0, 60, 80
1, 14640, Note_on_c, 1, 48, 80
1, 14650, Note_on_c, 0, 60, 0
1, 14650, Note_on_c, 1, 48, 0
1, 14664, Note_on_c, 0, 58, 80
1, 14664, Note_on_c, 1, 46, 80
1, 14674, Note_on_c, 0, 58, 0
1, 14674, Note_on_c, 1, 46, 0
1, 14688, Note_on_c, 0, 57, 80
1, 14688, Note_on_c, 1, 45, 80
1, 14733, Note_on_c, 0, 57, 0
1, 14736, Note_on_c, 0, 66, 75
1, 14736, Note_on_c, 0, 63, 75
1, 14756, Note_on_c, 0, 66, 0
1, 14756, Note_on_c, 0, 63, 0
1, 14777, Note_on_c, 1, 45, 0
1, 14784, Note_on_c, 0, 66, 75
1, 14784, Note_on_c, 0, 63, 75
1, 14804, Note_on_c, 0, 66, 0
1, 14804, Note_on_c, 0, 63, 0
1, 14832, Note_on_c, 0, 66, 75
1, 14832, Note_on_c, 0, 63, 75
1, 14832, Note_on_c, 1, 45, 75
1, 14832, Note_on_c, 1, 33, 75
1, 14899, Note_on_c, 0, 66, 0
1, 14899, Note_on_c, 0, 63, 0
1, 14904, Note_on_c, 0, 65, 75
1, 14904, Note_on_c, 0, 61, 75
1, 14921, Note_on_c, 1, 45, 0
1, 14921, Note_on_c, 1, 33, 0
1, 14927, Note_on_c, 0, 65, 0
1, 14927, Note_on_c, 0, 61, 0
1, 14928, Note_on_c, 0, 63, 75
1, 14928, Note_on_c, 0, 60, 75
1, 14928, Note_on_c, 1, 45, 75
1, 14928, Note_on_c, 1, 33, 75
1, 14973, Note_on_c, 0, 63, 0
1, 14973, Note_on_c, 0, 60, 0
1, 14973, Note_on_c, 1, 45, 0
1, 14973, Note_on_c, 1, 33, 0
1, 14976, Note_on_c, 0, 61, 75
1, 14976, Note_on_c, 0, 58, 75
1, 14976, Note_on_c, 1, 46, 75
1, 14976, Note_on_c, 1, 34, 75
1, 15021, Note_on_c, 0, 61, 0
1, 15021, Note_on_c, 0, 58, 0
1, 15024, Note_on_c, 0, 73, 75
1, 15044, Note_on_c, 0, 73, 0
1, 15065, Note_on_c, 1, 46, 0
1, 15065, Note_on_c, 1, 34, 0
1, 15072, Note_on_c, 0, 73, 76
1, 15092, Note_on_c, 0, 73, 0
1, 15120, Note_on_c, 0, 73, 77
1, 15120, Note_on_c, 1, 61, 76
1, 15120, Note_on_c, 1, 58, 76
1, 15187, Note_on_c, 0, 73, 0
1, 15192, Note_on_c, 0, 72, 78
1, 15204, Note_on_c, 0, 72, 0
1, 15204, Note_on_c, 0, 70, 78
1, 15209, Note_on_c, 1, 61, 0
1, 15209, Note_on_c, 1, 58, 0
1, 15216, Note_on_c, 0, 70, 0
1, 15216, Note_on_c, 0, 70, 79
1, 15216, Note_on_c, 1, 62, 78
1, 15216, Note_on_c, 1, 59, 78
1, 15228, Note_on_c, 0, 70, 0
1, 15228, Note_on_c, 0, 68, 79
1, 15240, Note_on_c, 0, 68, 0
1, 15240, Note_on_c, 0, 67, 79
1, 15252, Note_on_c, 0, 67, 0
1, 15252, Note_on_c, 0, 65, 79
1, 15261, Note_on_c, 1, 62, 0
1, 15261, Note_on_c, 1, 59, 0
1, 15264, Note_on_c, 0, 65, 0
1, 15264, Note_on_c, 0, 64, 80
1, 15264, Note_on_c, 1, 60, 80
1, 15309, Note_on_c, 0, 64, 0
1, 15312, Note_on_c, 0, 79, 80
1, 15332, Note_on_c, 0, 79, 0
1, 15353, Note_on_c, 1, 60, 0
1, 15360, Note_on_c, 0, 79, 80
1, 15380, Note_on_c, 0, 79, 0
1, 15408, Note_on_c, 0, 79, 80
1, 15408, Note_on_c, 1, 60, 80
1, 15408, Note_on_c, 1, 52, 80
1, 15475, Note_on_c, 0, 79, 0
1, 15480, Note_on_c, 0, 76, 80
1, 15497, Note_on_c, 1, 60, 0
1, 15497, Note_on_c, 1, 52, 0
1, 15503, Note_on_c, 0, 76, 0
1, 15504, Note_on_c, 0, 70, 80
1, 15504, Note_on_c, 1, 60, 80
1, 15504, Note_on_c, 1, 52, 80
1, 15549, Note_on_c, 0, 70, 0
1, 15549, Note_on_c, 1, 60, 0
1, 15549, Note_on_c, 1, 52, 0
1, 15552, Note_on_c, 0, 68, 80
1, 15552, Note_on_c, 1, 60, 80
1, 15552, Note_on_c, 1, 53, 80
1, 15619, Note_on_c, 0, 68, 0
1, 15624, Note_on_c, 0, 72, 80
1, 15636, Note_on_c, 0, 72, 0
1, 15636, Note_on_c, 0, 68, 80
1, 15641, Note_on_c, 1, 60, 0
1, 15641, Note_on_c, 1, 53, 0
1, 15648, Note_on_c, 0, 68, 0
1, 15648, Note_on_c, 0, 65, 80
1, 15648, Note_on_c, 1, 44, 80
1, 15648, Note_on_c, 1, 32, 80
1, 15693, Note_on_c, 0, 65, 0
1, 15693, Note_on_c, 1, 44, 0
1, 15693, Note_on_c, 1, 32, 0
1, 15696, Note_on_c, 0, 67, 80
1, 15696, Note_on_c, 1, 46, 80
1, 15696, Note_on_c, 1, 34, 80
1, 15763, Note_on_c, 0, 67, 0
1, 15768, Note_on_c, 0, 70, 76
1, 15780, Note_on_c, 0, 70, 0
1, 15780, Note_on_c, 0, 67, 76
1, 15785, Note_on_c, 1, 46, 0
1, 15785, Note_on_c, 1, 34, 0
1, 15792, Note_on_c, 0, 67, 0
1, 15792, Note_on_c, 0, 64, 75
1, 15792, Note_on_c, 1, 48, 76
1, 15792, Note_on_c, 1, 36, 76
1, 15837, Note_on_c, 0, 64, 0
1, 15837, Note_on_c, 1, 48, 0
1, 15837, Note_on_c, 1, 36, 0
1, 15840, Note_on_c, 0, 65, 73
1, 15840, Note_on_c, 1, 53, 74
1, 15840, Note_on_c, 1, 41, 74
1, 15888, Note_on_c, 0, 65, 0
1, 15888, Note_on_c, 0, 60, 70
1, 15929, Note_on_c, 1, 53, 0
1, 15929, Note_on_c, 1, 41, 0
1, 15933, Note_on_c, 0, 60, 0
1, 15936, Note_on_c, 0, 68, 68
1, 15936, Note_on_c, 1, 53, 70
1, 15936, Note_on_c, 1, 41, 70
1, 15981, Note_on_c, 0, 68, 0
1, 15981, Note_on_c, 1, 53, 0
1, 15981, Note_on_c, 1, 41, 0
1, 15984, Note_on_c, 0, 65, 66
1, 15984, Note_on_c, 1, 53, 68
1, 15984, Note_on_c, 1, 41, 68
1, 16029, Note_on_c, 0, 65, 0
1, 16073, Note_on_c, 1, 53, 0
1, 16073, Note_on_c, 1, 41, 0
1, 16080, Note_on_c, 0, 84, 64
1, 16125, Note_on_c, 0, 84, 0
1, 16128, Note_on_c, 0, 82, 80
1, 16128, Note_on_c, 1, 72, 64
1, 16128, Note_on_c, 1, 65, 64
1, 16176, Note_on_c, 0, 82, 0
1, 16176, Note_on_c, 0, 80, 64
1, 16217, Note_on_c, 1, 72, 0
1, 16217, Note_on_c, 1, 65, 0
1, 16221, Note_on_c, 0, 80, 0
1, 16224, Note_on_c, 0, 84, 64
1, 16269, Note_on_c, 0, 84, 0
1, 16272, Note_on_c, 0, 80, 80
1, 16272, Note_on_c, 1, 72, 64
1, 16272, Note_on_c, 1, 64, 64
1, 16320, Note_on_c, 0, 80, 0
1, 16320, Note_on_c, 0, 79, 64
1, 16361, Note_on_c, 1, 72, 0
1, 16361, Note_on_c, 1, 64, 0
1, 16365, Note_on_c, 0, 79, 0
1, 16368, Note_on_c, 0, 84, 64
1, 16413, Note_on_c, 0, 84, 0
1, 16416, Note_on_c, 0, 82, 80
1, 16416, Note_on_c, 1, 72, 64
1, 16416, Note_on_c, 1, 65, 64
1, 16440, Note_on_c, 0, 82, 0
1, 16440, Note_on_c, 0, 80, 64
1, 16463, Note_on_c, 0, 80, 0
1, 16464, Note_on_c, 0, 79, 64
1, 16487, Note_on_c, 0, 79, 0
1, 16488, Note_on_c, 0, 77, 64
1, 16505, Note_on_c, 1, 72, 0
1, 16505, Note_on_c, 1, 65, 0
1, 16511, Note_on_c, 0, 77, 0
1, 16512, Note_on_c, 0, 76, 64
1, 16512, Note_on_c, 1, 65, 64
1, 16512, Note_on_c, 1, 61, 64
1, 16535, Note_on_c, 0, 76, 0
1, 16536, Note_on_c, 0, 77, 64
1, 16559, Note_on_c, 0, 77, 0
1, 16560, Note_on_c, 0, 79, 64
1, 16560, Note_on_c, 1, 65, 0
1, 16560, Note_on_c, 1, 61, 0
1, 16560, Note_on_c, 1, 64, 64
1, 16560, Note_on_c, 1, 60, 64
1, 16605, Note_on_c, 0, 79, 0
1, 16649, Note_on_c, 1, 64, 0
1, 16649, Note_on_c, 1, 60, 0
1, 16656, Note_on_c, 0, 77, 75
1, 16701, Note_on_c, 0, 77, 0
1, 16704, Note_on_c, 0, 75, 91
1, 16704, Note_on_c, 1, 65, 75
1, 16704, Note_on_c, 1, 58, 75
1, 16749, Note_on_c, 1, 65, 0
1, 16749, Note_on_c, 1, 58, 0
1, 16752, Note_on_c, 0, 75, 0
1, 16752, Note_on_c, 0, 73, 75
1, 16797, Note_on_c, 0, 73, 0
1, 16800, Note_on_c, 0, 77, 75
1, 16845, Note_on_c, 0, 77, 0
1, 16848, Note_on_c, 0, 73, 91
1, 16848, Note_on_c, 1, 65, 75
1, 16848, Note_on_c, 1, 56, 75
1, 16893, Note_on_c, 1, 65, 0
1, 16893, Note_on_c, 1, 56, 0
1, 16896, Note_on_c, 0, 73, 0
1, 16896, Note_on_c, 0, 72, 75
1, 16941, Note_on_c, 0, 72, 0
1, 16944, Note_on_c, 0, 77, 75
1, 16989, Note_on_c, 0, 77, 0
1, 16992, Note_on_c, 0, 72, 75
1, 17004, Note_on_c, 0, 72, 0
1, 17004, Note_on_c, 0, 70, 75
1, 17037, Note_on_c, 0, 70, 0
1, 17040, Note_on_c, 0, 70, 76
1, 17040, Note_on_c, 1, 61, 76
1, 17040, Note_on_c, 1, 55, 76
1, 17060, Note_on_c, 0, 70, 0
1, 17060, Note_on_c, 1, 61, 0
1, 17060, Note_on_c, 1, 55, 0
1, 17088, Note_on_c, 0, 70, 78
1, 17088, Note_on_c, 1, 61, 78
1, 17088, Note_on_c, 1, 53, 78
1, 17108, Note_on_c, 0, 70, 0
1, 17108, Note_on_c, 1, 61, 0
1, 17108, Note_on_c, 1, 53, 0
1, 17136, Note_on_c, 0, 70, 80
1, 17136, Note_on_c, 1, 60, 80
1, 17136, Note_on_c, 1, 52, 80
1, 17203, Note_on_c, 0, 70, 0
1, 17208, Note_on_c, 0, 67, 77
1, 17231, Note_on_c, 0, 67, 0
1, 17232, Note_on_c, 0, 68, 76
1, 17232, Note_on_c, 1, 52, 0
1, 17232, Note_on_c, 1, 53, 76
1, 17277, Note_on_c, 0, 68, 0
1, 17277, Note_on_c, 1, 60, 0
1, 17277, Note_on_c, 1, 53, 0
1, 17280, Note_on_c, 0, 68, 75
1, 17280, Note_on_c, 1, 58, 75
1, 17280, Note_on_c, 1, 46, 75
1, 17292, Note_on_c, 0, 68, 0
1, 17292, Note_on_c, 0, 67, 75
1, 17325, Note_on_c, 0, 67, 0
1, 17325, Note_on_c, 1, 58, 0
1, 17325, Note_on_c, 1, 46, 0
1, 17328, Note_on_c, 0, 67, 75
1, 17328, Note_on_c, 1, 56, 75
1, 17328, Note_on_c, 1, 48, 75
1, 17340, Note_on_c, 0, 67, 0
1, 17340, Note_on_c, 0, 65, 75
1, 17373, Note_on_c, 0, 65, 0
1, 17373, Note_on_c, 1, 56, 0
1, 17373, Note_on_c, 1, 48, 0
1, 17376, Note_on_c, 0, 65, 75
1, 17376, Note_on_c, 1, 55, 75
1, 17376, Note_on_c, 1, 48, 75
1, 17388, Note_on_c, 0, 65, 0
1, 17388, Note_on_c, 0, 64, 75
1, 17421, Note_on_c, 1, 55, 0
1, 17421, Note_on_c, 1, 48, 0
1, 17424, Note_on_c, 0, 64, 0
1, 17424, Note_on_c, 0, 65, 75
1, 17424, Note_on_c, 1, 53, 75
1, 17424, Note_on_c, 1, 41, 75
1, 17469, Note_on_c, 0, 65, 0
1, 17469, Note_on_c, 1, 53, 0
1, 17469, Note_on_c, 1, 41, 0
1, 17496, Note_on_c, 0, 83, 64
1, 17508, Note_on_c, 0, 83, 0
1, 17508, Note_on_c, 0, 84, 64
1, 17520, Note_on_c, 0, 84, 0
1, 17520, Note_on_c, 0, 82, 64
1, 17532, Note_on_c, 0, 82, 0
1, 17532, Note_on_c, 0, 80, 64
1, 17544, Note_on_c, 0, 80, 0
1, 17544, Note_on_c, 0, 79, 64
1, 17556, Note_on_c, 0, 79, 0
1, 17556, Note_on_c, 0, 77, 64
1, 17568, Note_on_c, 0, 77, 0
1, 17568, Note_on_c, 0, 77, 64
1, 17568, Note_on_c, 1, 73, 64
1, 17568, Note_on_c, 1, 70, 64
1, 17613, Note_on_c, 0, 77, 0
1, 17613, Note_on_c, 1, 73, 0
1, 17613, Note_on_c, 1, 70, 0
1, 17640, Note_on_c, 0, 83, 64
1, 17652, Note_on_c, 0, 83, 0
1, 17652, Note_on_c, 0, 84, 65
1, 17664, Note_on_c, 0, 84, 0
1, 17664, Note_on_c, 0, 82, 66
1, 17676, Note_on_c, 0, 82, 0
1, 17676, Note_on_c, 0, 80, 67
1, 17688, Note_on_c, 0, 80, 0
1, 17688, Note_on_c, 0, 79, 68
1, 17700, Note_on_c, 0, 79, 0
1, 17700, Note_on_c, 0, 77, 69
1, 17712, Note_on_c, 0, 77, 0
1, 17712, Note_on_c, 0, 77, 70
1, 17712, Note_on_c, 1, 72, 69
1, 17712, Note_on_c, 1, 68, 69
1, 17757, Note_on_c, 0, 77, 0
1, 17757, Note_on_c, 1, 72, 0
1, 17757, Note_on_c, 1, 68, 0
1, 17784, Note_on_c, 0, 83, 76
1, 17796, Note_on_c, 0, 83, 0
1, 17796, Note_on_c, 0, 84, 77
1, 17808, Note_on_c, 0, 84, 0
1, 17808, Note_on_c, 0, 82, 78
1, 17820, Note_on_c, 0, 82, 0
1, 17820, Note_on_c, 0, 80, 80
1, 17832, Note_on_c, 0, 80, 0
1, 17832, Note_on_c, 0, 79, 80
1, 17844, Note_on_c, 0, 79, 0
1, 17844, Note_on_c, 0, 77, 80
1, 17856, Note_on_c, 0, 77, 0
1, 17856, Note_on_c, 0, 76, 80
1, 17901, Note_on_c, 0, 76, 0
1, 17904, Note_on_c, 0, 85, 80
1, 17904, Note_on_c, 1, 70, 80
1, 17904, Note_on_c, 1, 67, 80
1, 17949, Note_on_c, 0, 85, 0
1, 17949, Note_on_c, 1, 70, 0
1, 17949, Note_on_c, 1, 67, 0
1, 17952, Note_on_c, 0, 85, 80
1, 17952, Note_on_c, 1, 68, 80
1, 17952, Note_on_c, 1, 65, 80
1, 17997, Note_on_c, 0, 85, 0
1, 17997, Note_on_c, 1, 68, 0
1, 17997, Note_on_c, 1, 65, 0
1, 18000, Note_on_c, 0, 84, 80
1, 18000, Note_on_c, 1, 67, 80
1, 18000, Note_on_c, 1, 64, 80
1, 18006, Note_on_c, 0, 84, 0
1, 18006, Note_on_c, 0, 85, 80
1, 18012, Note_on_c, 0, 85, 0
1, 18012, Note_on_c, 0, 87, 80
1, 18018, Note_on_c, 0, 87, 0
1, 18018, Note_on_c, 0, 85, 80
1, 18067, Note_on_c, 0, 85, 0
1, 18072, Note_on_c, 0, 84, 77
1, 18089, Note_on_c, 1, 67, 0
1, 18089, Note_on_c, 1, 64, 0
1, 18095, Note_on_c, 0, 84, 0
1, 18096, Note_on_c, 0, 82, 76
1, 18096, Note_on_c, 1, 67, 76
1, 18096, Note_on_c, 1, 64, 76
1, 18141, Note_on_c, 0, 82, 0
1, 18144, Note_on_c, 0, 80, 75
1, 18144, Note_on_c, 1, 67, 0
1, 18144, Note_on_c, 1, 64, 0
1, 18144, Note_on_c, 1, 65, 75
1, 18233, Note_on_c, 0, 80, 0
1, 18233, Note_on_c, 1, 65, 0
1, 18240, Note_on_c, 0, 84, 75
1, 18240, Note_on_c, 1, 72, 75
1, 18240, Note_on_c, 1, 68, 75
1, 18252, Note_on_c, 0, 84, 0
1, 18252, Note_on_c, 0, 80, 74
1, 18264, Note_on_c, 0, 80, 0
1, 18264, Note_on_c, 0, 79, 73
1, 18276, Note_on_c, 0, 79, 0
1, 18276, Note_on_c, 0, 77, 72
1, 18288, Note_on_c, 0, 77, 0
1, 18288, Note_on_c, 0, 79, 72
1, 18288, Note_on_c, 1, 72, 0
1, 18288, Note_on_c, 1, 68, 0
1, 18288, Note_on_c, 1, 73, 72
1, 18288, Note_on_c, 1, 70, 72
1, 18377, Note_on_c, 0, 79, 0
1, 18377, Note_on_c, 1, 73, 0
1, 18377, Note_on_c, 1, 70, 0
1, 18384, Note_on_c, 0, 82, 66
1, 18384, Note_on_c, 1, 70, 66
1, 18384, Note_on_c, 1, 60, 66
1, 18396, Note_on_c, 0, 82, 0
1, 18396, Note_on_c, 0, 79, 66
1, 18408, Note_on_c, 0, 79, 0
1, 18408, Note_on_c, 0, 77, 65
1, 18420, Note_on_c, 0, 77, 0
1, 18420, Note_on_c, 0, 76, 64
1, 18432, Note_on_c, 0, 76, 0
1, 18432, Note_on_c, 0, 77, 64
1, 18432, Note_on_c, 1, 70, 0
1, 18432, Note_on_c, 1, 60, 0
1, 18432, Note_on_c, 1, 68, 64
1, 18432, Note_on_c, 1, 61, 64
1, 18477, Note_on_c, 0, 77, 0
1, 18477, Note_on_c, 1, 68, 0
1, 18477, Note_on_c, 1, 61, 0
1, 18480, Note_on_c, 0, 71, 64
1, 18480, Note_on_c, 0, 65, 64
1, 18500, Note_on_c, 0, 71, 0
1, 18500, Note_on_c, 0, 65, 0
1, 18528, Note_on_c, 0, 71, 64
1, 18528, Note_on_c, 0, 65, 64
1, 18548, Note_on_c, 0, 71, 0
1, 18548, Note_on_c, 0, 65, 0
1, 18576, Note_on_c, 0, 71, 64
1, 18576, Note_on_c, 0, 68, 64
1, 18624, Note_on_c, 1, 49, 64
1, 18624, Note_on_c, 1, 37, 64
1, 18643, Note_on_c, 0, 68, 0
1, 18644, Note_on_c, 1, 49, 0
1, 18644, Note_on_c, 1, 37, 0
1, 18648, Note_on_c, 0, 67, 64
1, 18671, Note_on_c, 0, 67, 0
1, 18672, Note_on_c, 0, 65, 64
1, 18672, Note_on_c, 1, 49, 64
1, 18672, Note_on_c, 1, 37, 64
1, 18692, Note_on_c, 1, 49, 0
1, 18692, Note_on_c, 1, 37, 0
1, 18717, Note_on_c, 0, 65, 0
1, 18720, Note_on_c, 0, 71, 0
1, 18720, Note_on_c, 0, 72, 64
1, 18720, Note_on_c, 0, 64, 64
1, 18720, Note_on_c, 1, 48, 64
1, 18720, Note_on_c, 1, 36, 64
1, 18765, Note_on_c, 0, 72, 0
1, 18765, Note_on_c, 0, 64, 0
1, 18768, Tempo, 1200000
1, 18768, Note_on_c, 0, 60, 64
1, 18768, Note_on_c, 0, 52, 64
1, 18788, Note_on_c, 0, 60, 0
1, 18788, Note_on_c, 0, 52, 0
1, 18816, Tempo, 1333333
1, 18816, Note_on_c, 0, 60, 64
1, 18816, Note_on_c, 0, 52, 64
1, 18836, Note_on_c, 0, 60, 0
1, 18836, Note_on_c, 0, 52, 0
1, 18861, Note_on_c, 1, 48, 0
1, 18861, Note_on_c, 1, 36, 0
1, 18864, Tempo, 1500000
1, 18864, Note_on_c, 0, 60, 64
1, 18864, Note_on_c, 0, 52, 64
1, 18864, Note_on_c, 1, 48, 64
1, 18864, Note_on_c, 1, 36, 64
1, 19008, Tempo, 600000
1, 19097, Note_on_c, 0, 60, 0
1, 19097, Note_on_c, 0, 52, 0
1, 19097, Note_on_c, 1, 48, 0
1, 19097, Note_on_c, 1, 36, 0
1, 19152, Tempo, 521739
1, 19152, Note_on_c, 0, 72, 80
1, 19172, Note_on_c, 0, 72, 0
1, 19200, Note_on_c, 0, 70, 96
1, 19200, Note_on_c, 1, 53, 80
1, 19224, Note_on_c, 0, 70, 0
1, 19224, Note_on_c, 0, 69, 80
1, 19245, Note_on_c, 1, 53, 0
1, 19247, Note_on_c, 0, 69, 0
1, 19248, Note_on_c, 0, 67, 80
1, 19248, Note_on_c, 1, 57, 80
1, 19271, Note_on_c, 0, 67, 0
1, 19272, Note_on_c, 0, 65, 80
1, 19293, Note_on_c, 1, 57, 0
1, 19295, Note_on_c, 0, 65, 0
1, 19296, Note_on_c, 0, 74, 80
1, 19296, Note_on_c, 1, 58, 80
1, 19316, Note_on_c, 0, 74, 0
1, 19341, Note_on_c, 1, 58, 0
1, 19344, Note_on_c, 1, 46, 80
1, 19389, Note_on_c, 1, 46, 0
1, 19392, Note_on_c, 0, 74, 96
1, 19392, Note_on_c, 1, 57, 80
1, 19416, Note_on_c, 0, 74, 0
1, 19416, Note_on_c, 0, 72, 80
1, 19437, Note_on_c, 1, 57, 0
1, 19439, Note_on_c, 0, 72, 0
1, 19440, Note_on_c, 0, 70, 80
1, 19440, Note_on_c, 1, 53, 80
1, 19463, Note_on_c, 0, 70, 0
1, 19464, Note_on_c, 0, 69, 80
1, 19485, Note_on_c, 1, 53, 0
1, 19487, Note_on_c, 0, 69, 0
1, 19488, Note_on_c, 0, 67, 80
1, 19488, Note_on_c, 1, 52, 80
1, 19508, Note_on_c, 0, 67, 0
1, 19533, Note_on_c, 1, 52, 0
1, 19536, Note_on_c, 1, 48, 80
1, 19581, Note_on_c, 1, 48, 0
1, 19584, Note_on_c, 0, 70, 96
1, 19584, Note_on_c, 1, 53, 80
1, 19608, Note_on_c, 0, 70, 0
1, 19608, Note_on_c, 0, 69, 80
1, 19631, Note_on_c, 0, 69, 0
1, 19632, Note_on_c, 0, 67, 80
1, 19655, Note_on_c, 0, 67, 0
1, 19656, Note_on_c, 0, 65, 80
1, 19673, Note_on_c, 1, 53, 0
1, 19679, Note_on_c, 0, 65, 0
1, 19680, Note_on_c, 0, 77, 80
1, 19700, Note_on_c, 0, 77, 0
1, 19728, Note_on_c, 0, 69, 80
1, 19728, Note_on_c, 1, 65, 80
1, 19752, Note_on_c, 0, 69, 0
1, 19752, Note_on_c, 0, 74, 80
1, 19773, Note_on_c, 1, 65, 0
1, 19775, Note_on_c, 0, 74, 0
1, 19776, Note_on_c, 0, 70, 80
1, 19776, Note_on_c, 1, 67, 80
1, 19789, Note_on_c, 0, 70, 0
1, 19790, Note_on_c, 0, 72, 80
1, 19803, Note_on_c, 0, 72, 0
1, 19804, Note_on_c, 0, 70, 80
1, 19817, Note_on_c, 0, 70, 0
1, 19818, Note_on_c, 0, 72, 80
1, 19821, Note_on_c, 1, 67, 0
1, 19824, Note_on_c, 1, 60, 80
1, 19831, Note_on_c, 0, 72, 0
1, 19832, Note_on_c, 0, 70, 80
1, 19845, Note_on_c, 0, 70, 0
1, 19846, Note_on_c, 0, 69, 80
1, 19858, Note_on_c, 0, 69, 0
1, 19859, Note_on_c, 0, 70, 80
1, 19869, Note_on_c, 1, 60, 0
1, 19871, Note_on_c, 0, 70, 0
1, 19872, Note_on_c, 0, 69, 80
1, 19872, Note_on_c, 1, 65, 80
1, 19917, Note_on_c, 0, 69, 0
1, 19920, Note_on_c, 0, 72, 80
1, 19940, Note_on_c, 0, 72, 0
1, 19961, Note_on_c, 1, 65, 0
1, 19968, Note_on_c, 0, 70, 96
1, 19968, Note_on_c, 1, 53, 80
1, 19992, Note_on_c, 0, 70, 0
1, 19992, Note_on_c, 0, 69, 80
1, 20013, Note_on_c, 1, 53, 0
1, 20015, Note_on_c, 0, 69, 0
1, 20016, Note_on_c, 0, 67, 80
1, 20016, Note_on_c, 1, 57, 80
1, 20039, Note_on_c, 0, 67, 0
1, 20040, Note_on_c, 0, 65, 80
1, 20061, Note_on_c, 1, 57, 0
1, 20063, Note_on_c, 0, 65, 0
1, 20064, Note_on_c, 0, 74, 80
1, 20064, Note_on_c, 1, 58, 80
1, 20084, Note_on_c, 0, 74, 0
1, 20109, Note_on_c, 1, 58, 0
1, 20112, Note_on_c, 1, 46, 80
1, 20157, Note_on_c, 1, 46, 0
1, 20160, Note_on_c, 0, 74, 96
1, 20160, Note_on_c, 1, 57, 80
1, 20184, Note_on_c, 0, 74, 0
1, 20184, Note_on_c, 0, 72, 80
1, 20205, Note_on_c, 1, 57, 0
1, 20207, Note_on_c, 0, 72, 0
1, 20208, Note_on_c, 0, 70, 80
1, 20208, Note_on_c, 1, 53, 80
1, 20231, Note_on_c, 0, 70, 0
1, 20232, Note_on_c, 0, 69, 80
1, 20253, Note_on_c, 1, 53, 0
1, 20255, Note_on_c, 0, 69, 0
1, 20256, Note_on_c, 0, 67, 80
1, 20256, Note_on_c, 1, 52, 80
1, 20276, Note_on_c, 0, 67, 0
1, 20301, Note_on_c, 1, 52, 0
1, 20304, Note_on_c, 1, 48, 80
1, 20349, Note_on_c, 1, 48, 0
1, 20352, Note_on_c, 0, 69, 80
1, 20352, Note_on_c, 1, 53, 80
1, 20375, Note_on_c, 0, 69, 0
1, 20376, Note_on_c, 0, 72, 80
1, 20397, Note_on_c, 1, 53, 0
1, 20399, Note_on_c, 0, 72, 0
1, 20400, Note_on_c, 0, 65, 80
1, 20400, Note_on_c, 1, 62, 80
1, 20423, Note_on_c, 0, 65, 0
1, 20424, Note_on_c, 0, 69, 80
1, 20445, Note_on_c, 1, 62, 0
1, 20447, Note_on_c, 0, 69, 0
1, 20448, Note_on_c, 0, 67, 80
1, 20448, Note_on_c, 1, 58, 80
1, 20471, Note_on_c, 0, 67, 0
1, 20472, Note_on_c, 0, 70, 80
1, 20493, Note_on_c, 1, 58, 0
1, 20495, Note_on_c, 0, 70, 0
1, 20496, Note_on_c, 0, 64, 80
1, 20496, Note_on_c, 1, 60, 80
1, 20519, Note_on_c, 0, 64, 0
1, 20520, Note_on_c, 0, 67, 80
1, 20541, Note_on_c, 1, 60, 0
1, 20543, Note_on_c, 0, 67, 0
1, 20544, Note_on_c, 0, 65, 80
1, 20544, Note_on_c, 1, 53, 80
1, 20564, Note_on_c, 1, 53, 0
1, 20592, Note_on_c, 1, 48, 80
1, 20612, Note_on_c, 1, 48, 0
1, 20633, Note_on_c, 0, 65, 0
1, 20640, Note_on_c, 1, 41, 80
1, 20685, Note_on_c, 1, 41, 0
1, 20688, Note_on_c, 0, 60, 75
1, 20708, Note_on_c, 0, 60, 0
1, 20736, Note_on_c, 0, 60, 75
1, 20784, Note_on_c, 1, 57, 75
1, 20829, Note_on_c, 1, 57, 0
1, 20832, Note_on_c, 1, 55, 75
1, 20869, Note_on_c, 0, 60, 0
1, 20877, Note_on_c, 1, 55, 0
1, 20880, Note_on_c, 0, 69, 75
1, 20880, Note_on_c, 1, 53, 75
1, 20903, Note_on_c, 0, 69, 0
1, 20904, Note_on_c, 0, 65, 75
1, 20925, Note_on_c, 1, 53, 0
1, 20927, Note_on_c, 0, 65, 0
1, 20928, Note_on_c, 0, 60, 75
1, 20976, Note_on_c, 1, 52, 75
1, 21021, Note_on_c, 1, 52, 0
1, 21024, Note_on_c, 1, 50, 75
1, 21061, Note_on_c, 0, 60, 0
1, 21069, Note_on_c, 1, 50, 0
1, 21072, Note_on_c, 0, 70, 75
1, 21072, Note_on_c, 1, 48, 75
1, 21095, Note_on_c, 0, 70, 0
1, 21096, Note_on_c, 0, 67, 75
1, 21117, Note_on_c, 1, 48, 0
1, 21119, Note_on_c, 0, 67, 0
1, 21120, Note_on_c, 0, 69, 75
1, 21120, Note_on_c, 1, 53, 75
1, 21143, Note_on_c, 0, 69, 0
1, 21144, Note_on_c, 0, 65, 75
1, 21165, Note_on_c, 1, 53, 0
1, 21167, Note_on_c, 0, 65, 0
1, 21168, Note_on_c, 0, 70, 75
1, 21168, Note_on_c, 1, 55, 75
1, 21191, Note_on_c, 0, 70, 0
1, 21192, Note_on_c, 0, 65, 75
1, 21213, Note_on_c, 1, 55, 0
1, 21215, Note_on_c, 0, 65, 0
1, 21216, Note_on_c, 0, 72, 75
1, 21216, Note_on_c, 1, 57, 75
1, 21236, Note_on_c, 0, 72, 0
1, 21236, Note_on_c, 1, 57, 0
1, 21264, Note_on_c, 0, 60, 70
1, 21284, Note_on_c, 0, 60, 0
1, 21312, Note_on_c, 0, 60, 70
1, 21360, Note_on_c, 1, 57, 70
1, 21405, Note_on_c, 1, 57, 0
1, 21408, Note_on_c, 1, 55, 70
1, 21445, Note_on_c, 0, 60, 0
1, 21453, Note_on_c, 1, 55, 0
1, 21456, Note_on_c, 0, 69, 70
1, 21456, Note_on_c, 1, 53, 70
1, 21479, Note_on_c, 0, 69, 0
1, 21480, Note_on_c, 0, 65, 70
1, 21501, Note_on_c, 1, 53, 0
1, 21503, Note_on_c, 0, 65, 0
1, 21504, Note_on_c, 0, 60, 70
1, 21552, Note_on_c, 1, 52, 70
1, 21597, Note_on_c, 1, 52, 0
1, 21600, Note_on_c, 1, 50, 70
1, 21637, Note_on_c, 0, 60, 0
1, 21645, Note_on_c, 1, 50, 0
1, 21648, Note_on_c, 0, 70, 70
1, 21648, Note_on_c, 1, 48, 70
1, 21671, Note_on_c, 0, 70, 0
1, 21672, Note_on_c, 0, 67, 70
1, 21693, Note_on_c, 1, 48, 0
1, 21695, Note_on_c, 0, 67, 0
1, 21696, Note_on_c, 0, 69, 70
1, 21696, Note_on_c, 1, 53, 70
1, 21719, Note_on_c, 0, 69, 0
1, 21720, Note_on_c, 0, 65, 70
1, 21741, Note_on_c, 1, 53, 0
1, 21743, Note_on_c, 0, 65, 0
1, 21744, Note_on_c, 0, 70, 70
1, 21744, Note_on_c, 1, 55, 70
1, 21767, Note_on_c, 0, 70, 0
1, 21768, Note_on_c, 0, 65, 70
1, 21789, Note_on_c, 1, 55, 0
1, 21791, Note_on_c, 0, 65, 0
1, 21792, Note_on_c, 0, 72, 70
1, 21792, Note_on_c, 1, 57, 70
1, 21812, Note_on_c, 0, 72, 0
1, 21812, Note_on_c, 1, 57, 0
1, 21840, Note_on_c, 0, 77, 80
1, 21860, Note_on_c, 0, 77, 0
1, 21888, Note_on_c, 0, 76, 80
1, 21936, Note_on_c, 1, 65, 80
1, 21936, Note_on_c, 1, 58, 80
1, 21956, Note_on_c, 1, 65, 0
1, 21956, Note_on_c, 1, 58, 0
1, 21984, Note_on_c, 0, 76, 0
1, 21984, Note_on_c, 0, 74, 80
1, 21984, Note_on_c, 1, 65, 80
1, 21984, Note_on_c, 1, 58, 80
1, 22004, Note_on_c, 1, 65, 0
1, 22004, Note_on_c, 1, 58, 0
1, 22029, Note_on_c, 0, 74, 0
1, 22032, Note_on_c, 0, 77, 80
1, 22052, Note_on_c, 0, 77, 0
1, 22080, Note_on_c, 0, 74, 80
1, 22128, Note_on_c, 1, 65, 80
1, 22128, Note_on_c, 1, 57, 80
1, 22148, Note_on_c, 1, 65, 0
1, 22148, Note_on_c, 1, 57, 0
1, 22176, Note_on_c, 0, 74, 0
1, 22176, Note_on_c, 0, 72, 80
1, 22176, Note_on_c, 1, 65, 80
1, 22176, Note_on_c, 1, 57, 80
1, 22196, Note_on_c, 1, 65, 0
1, 22196, Note_on_c, 1, 57, 0
1, 22199, Note_on_c, 0, 72, 0
1, 22200, Note_on_c, 0, 77, 80
1, 22223, Note_on_c, 0, 77, 0
1, 22224, Note_on_c, 0, 81, 80
1, 22247, Note_on_c, 0, 81, 0
1, 22248, Note_on_c, 0, 84, 80
1, 22271, Note_on_c, 0, 84, 0
1, 22272, Note_on_c, 0, 72, 80
1, 22320, Note_on_c, 1, 64, 80
1, 22320, Note_on_c, 1, 55, 80
1, 22340, Note_on_c, 1, 64, 0
1, 22340, Note_on_c, 1, 55, 0
1, 22368, Note_on_c, 0, 72, 0
1, 22368, Note_on_c, 0, 70, 80
1, 22368, Note_on_c, 1, 64, 80
1, 22368, Note_on_c, 1, 55, 80
1, 22388, Note_on_c, 1, 64, 0
1, 22388, Note_on_c, 1, 55, 0
1, 22413, Note_on_c, 0, 70, 0
1, 22416, Note_on_c, 0, 69, 80
1, 22416, Note_on_c, 1, 65, 80
1, 22416, Note_on_c, 1, 53, 80
1, 22436, Note_on_c, 0, 69, 0
1, 22436, Note_on_c, 1, 65, 0
1, 22436, Note_on_c, 1, 53, 0
1, 22464, Note_on_c, 0, 69, 80
1, 22464, Note_on_c, 1, 65, 80
1, 22464, Note_on_c, 1, 60, 64
1, 22476, Note_on_c, 0, 69, 0
1, 22476, Note_on_c, 0, 70, 80
1, 22488, Note_on_c, 0, 70, 0
1, 22488, Note_on_c, 0, 69, 80
1, 22512, Note_on_c, 0, 69, 0
1, 22512, Note_on_c, 0, 67, 80
1, 22512, Note_on_c, 1, 65, 0
1, 22512, Note_on_c, 1, 64, 80
1, 22553, Note_on_c, 1, 60, 0
1, 22557, Note_on_c, 0, 67, 0
1, 22557, Note_on_c, 1, 64, 0
1, 22608, Note_on_c, 0, 79, 75
1, 22628, Note_on_c, 0, 79, 0
1, 22656, Note_on_c, 0, 77, 107
1, 22680, Note_on_c, 0, 77, 0
1, 22680, Note_on_c, 0, 76, 75
1, 22703, Note_on_c, 0, 76, 0
1, 22704, Note_on_c, 0, 74, 75
1, 22727, Note_on_c, 0, 74, 0
1, 22728, Note_on_c, 0, 72, 75
1, 22751, Note_on_c, 0, 72, 0
1, 22752, Note_on_c, 0, 84, 75
1, 22772, Note_on_c, 0, 84, 0
1, 22800, Note_on_c, 0, 72, 75
1, 22800, Note_on_c, 1, 64, 75
1, 22820, Note_on_c, 0, 72, 0
1, 22823, Note_on_c, 1, 64, 0
1, 22824, Note_on_c, 1, 67, 75
1, 22847, Note_on_c, 1, 67, 0
1, 22848, Note_on_c, 0, 71, 75
1, 22848, Note_on_c, 1, 65, 75
1, 22871, Note_on_c, 1, 65, 0
1, 22872, Note_on_c, 1, 67, 75
1, 22895, Note_on_c, 1, 67, 0
1, 22896, Note_on_c, 0, 71, 0
1, 22896, Note_on_c, 0, 72, 75
1, 22896, Note_on_c, 1, 64, 75
1, 22919, Note_on_c, 1, 64, 0
1, 22920, Note_on_c, 1, 67, 75
1, 22941, Note_on_c, 0, 72, 0
1, 22943, Note_on_c, 1, 67, 0
1, 22944, Note_on_c, 0, 71, 75
1, 22944, Note_on_c, 1, 65, 75
1, 22967, Note_on_c, 1, 65, 0
1, 22968, Note_on_c, 1, 67, 75
1, 22991, Note_on_c, 1, 67, 0
1, 22992, Note_on_c, 0, 71, 0
1, 22992, Note_on_c, 0, 72, 75
1, 22992, Note_on_c, 1, 64, 75
1, 23015, Note_on_c, 1, 64, 0
1, 23016, Note_on_c, 1, 67, 75
1, 23037, Note_on_c, 0, 72, 0
1, 23039, Note_on_c, 1, 67, 0
1, 23040, Note_on_c, 0, 77, 75
1, 23040, Note_on_c, 1, 62, 75
1, 23063, Note_on_c, 0, 77, 0
1, 23064, Note_on_c, 0, 81, 75
1, 23085, Note_on_c, 1, 62, 0
1, 23087, Note_on_c, 0, 81, 0
1, 23088, Note_on_c, 0, 74, 75
1, 23088, Note_on_c, 1, 59, 75
1, 23111, Note_on_c, 0, 74, 0
1, 23112, Note_on_c, 0, 77, 75
1, 23133, Note_on_c, 1, 59, 0
1, 23135, Note_on_c, 0, 77, 0
1, 23136, Note_on_c, 0, 76, 75
1, 23136, Note_on_c, 1, 60, 75
1, 23156, Note_on_c, 0, 76, 0
1, 23156, Note_on_c, 1, 60, 0
1, 23184, Note_on_c, 0, 79, 64
1, 23204, Note_on_c, 0, 79, 0
1, 23232, Note_on_c, 0, 77, 80
1, 23256, Note_on_c, 0, 77, 0
1, 23256, Note_on_c, 0, 76, 64
1, 23279, Note_on_c, 0, 76, 0
1, 23280, Note_on_c, 0, 74, 64
1, 23303, Note_on_c, 0, 74, 0
1, 23304, Note_on_c, 0, 72, 64
1, 23327, Note_on_c, 0, 72, 0
1, 23328, Note_on_c, 0, 84, 64
1, 23348, Note_on_c, 0, 84, 0
1, 23376, Note_on_c, 0, 72, 64
1, 23376, Note_on_c, 1, 64, 64
1, 23396, Note_on_c, 0, 72, 0
1, 23399, Note_on_c, 1, 64, 0
1, 23400, Note_on_c, 1, 67, 64
1, 23423, Note_on_c, 1, 67, 0
1, 23424, Note_on_c, 0, 71, 64
1, 23424, Note_on_c, 1, 65, 64
1, 23447, Note_on_c, 1, 65, 0
1, 23448, Note_on_c, 1, 67, 64
1, 23471, Note_on_c, 1, 67, 0
1, 23472, Note_on_c, 0, 71, 0
1, 23472, Note_on_c, 0, 72, 64
1, 23472, Note_on_c, 1, 64, 64
1, 23495, Note_on_c, 1, 64, 0
1, 23496, Note_on_c, 1, 67, 64
1, 23517, Note_on_c, 0, 72, 0
1, 23519, Note_on_c, 1, 67, 0
1, 23520, Note_on_c, 0, 71, 64
1, 23520, Note_on_c, 1, 65, 64
1, 23543, Note_on_c, 1, 65, 0
1, 23544, Note_on_c, 1, 67, 64
1, 23567, Note_on_c, 1, 67, 0
1, 23568, Note_on_c, 0, 71, 0
1, 23568, Note_on_c, 0, 72, 64
1, 23568, Note_on_c, 1, 64, 64
1, 23591, Note_on_c, 1, 64, 0
1, 23592, Note_on_c, 1, 67, 64
1, 23613, Note_on_c, 0, 72, 0
1, 23615, Note_on_c, 1, 67, 0
1, 23616, Note_on_c, 0, 77, 64
1, 23616, Note_on_c, 1, 62, 64
1, 23639, Note_on_c, 0, 77, 0
1, 23640, Note_on_c, 0, 81, 64
1, 23661, Note_on_c, 1, 62, 0
1, 23663, Note_on_c, 0, 81, 0
1, 23664, Note_on_c, 0, 74, 64
1, 23664, Note_on_c, 1, 59, 64
1, 23687, Note_on_c, 0, 74, 0
1, 23688, Note_on_c, 0, 77, 64
1, 23709, Note_on_c, 1, 59, 0
1, 23711, Note_on_c, 0, 77, 0
1, 23712, Note_on_c, 0, 76, 64
1, 23712, Note_on_c, 1, 60, 64
1, 23735, Note_on_c, 0, 76, 0
1, 23736, Note_on_c, 0, 79, 64
1, 23757, Note_on_c, 1, 60, 0
1, 23759, Note_on_c, 0, 79, 0
1, 23760, Note_on_c, 0, 72, 64
1, 23760, Note_on_c, 1, 64, 64
1, 23783, Note_on_c, 0, 72, 0
1, 23784, Note_on_c, 0, 76, 64
1, 23805, Note_on_c, 1, 64, 0
1, 23807, Note_on_c, 0, 76, 0
1, 23808, Note_on_c, 0, 74, 64
1, 23808, Note_on_c, 1, 65, 64
1, 23831, Note_on_c, 0, 74, 0
1, 23832, Note_on_c, 0, 77, 64
1, 23853, Note_on_c, 1, 65, 0
1, 23855, Note_on_c, 0, 77, 0
1, 23856, Note_on_c, 0, 71, 64
1, 23856, Note_on_c, 1, 62, 64
1, 23879, Note_on_c, 0, 71, 0
1, 23880, Note_on_c, 0, 74, 64
1, 23901, Note_on_c, 1, 62, 0
1, 23903, Note_on_c, 0, 74, 0
1, 23904, Note_on_c, 0, 72, 64
1, 23904, Note_on_c, 1, 64, 64
1, 23927, Note_on_c, 0, 72, 0
1, 23928, Note_on_c, 0, 76, 64
1, 23949, Note_on_c, 1, 64, 0
1, 23951, Note_on_c, 0, 76, 0
1, 23952, Note_on_c, 0, 79, 64
1, 23952, Note_on_c, 1, 60, 64
1, 23975, Note_on_c, 0, 79, 0
1, 23976, Note_on_c, 0, 76, 64
1, 23997, Note_on_c, 1, 60, 0
1, 23999, Note_on_c, 0, 76, 0
1, 24000, Note_on_c, 0, 77, 64
1, 24000, Note_on_c, 1, 62, 64
1, 24023, Note_on_c, 0, 77, 0
1, 24024, Note_on_c, 0, 81, 64
1, 24045, Note_on_c, 1, 62, 0
1, 24047, Note_on_c, 0, 81, 0
1, 24048, Note_on_c, 0, 74, 65
1, 24048, Note_on_c, 1, 59, 65
1, 24071, Note_on_c, 0, 74, 0
1, 24072, Note_on_c, 0, 77, 65
1, 24093, Note_on_c, 1, 59, 0
1, 24095, Note_on_c, 0, 77, 0
1, 24096, Note_on_c, 0, 76, 66
1, 24096, Note_on_c, 1, 60, 66
1, 24119, Note_on_c, 0, 76, 0
1, 24120, Note_on_c, 0, 79, 66
1, 24141, Note_on_c, 1, 60, 0
1, 24143, Note_on_c, 0, 79, 0
1, 24144, Note_on_c, 0, 72, 67
1, 24144, Note_on_c, 1, 64, 67
1, 24167, Note_on_c, 0, 72, 0
1, 24168, Note_on_c, 0, 76, 67
1, 24189, Note_on_c, 1, 64, 0
1, 24191, Note_on_c, 0, 76, 0
1, 24192, Note_on_c, 0, 74, 68
1, 24192, Note_on_c, 1, 65, 68
1, 24215, Note_on_c, 0, 74, 0
1, 24216, Note_on_c, 0, 77, 68
1, 24237, Note_on_c, 1, 65, 0
1, 24239, Note_on_c, 0, 77, 0
1, 24240, Note_on_c, 0, 71, 69
1, 24240, Note_on_c, 1, 62, 70
1, 24263, Note_on_c, 0, 71, 0
1, 24264, Note_on_c, 0, 74, 70
1, 24285, Note_on_c, 1, 62, 0
1, 24287, Note_on_c, 0, 74, 0
1, 24288, Note_on_c, 0, 72, 70
1, 24288, Note_on_c, 1, 60, 71
1, 24311, Note_on_c, 0, 72, 0
1, 24312, Note_on_c, 0, 76, 71
1, 24333, Note_on_c, 1, 60, 0
1, 24335, Note_on_c, 0, 76, 0
1, 24336, Note_on_c, 0, 79, 71
1, 24359, Note_on_c, 0, 79, 0
1, 24360, Note_on_c, 0, 84, 72
1, 24383, Note_on_c, 0, 84, 0
1, 24384, Note_on_c, 0, 79, 88
1, 24432, Note_on_c, 1, 60, 75
1, 24432, Note_on_c, 1, 57, 75
1, 24452, Note_on_c, 1, 60, 0
1, 24452, Note_on_c, 1, 57, 0
1, 24480, Note_on_c, 0, 79, 0
1, 24480, Note_on_c, 0, 78, 75
1, 24480, Note_on_c, 1, 60, 75
1, 24480, Note_on_c, 1, 57, 75
1, 24500, Note_on_c, 1, 60, 0
1, 24500, Note_on_c, 1, 57, 0
1, 24503, Note_on_c, 0, 78, 0
1, 24504, Note_on_c, 0, 72, 75
1, 24527, Note_on_c, 0, 72, 0
1, 24528, Note_on_c, 0, 78, 75
1, 24551, Note_on_c, 0, 78, 0
1, 24552, Note_on_c, 0, 84, 75
1, 24575, Note_on_c, 0, 84, 0
1, 24576, Note_on_c, 0, 79, 91
1, 24624, Note_on_c, 1, 60, 76
1, 24624, Note_on_c, 1, 57, 76
1, 24644, Note_on_c, 1, 60, 0
1, 24644, Note_on_c, 1, 57, 0
1, 24672, Note_on_c, 0, 79, 0
1, 24672, Note_on_c, 0, 78, 76
1, 24672, Note_on_c, 1, 60, 77
1, 24672, Note_on_c, 1, 57, 77
1, 24692, Note_on_c, 1, 60, 0
1, 24692, Note_on_c, 1, 57, 0
1, 24695, Note_on_c, 0, 78, 0
1, 24696, Note_on_c, 0, 72, 77
1, 24719, Note_on_c, 0, 72, 0
1, 24720, Note_on_c, 0, 78, 77
1, 24743, Note_on_c, 0, 78, 0
1, 24744, Note_on_c, 0, 84, 77
1, 24767, Note_on_c, 0, 84, 0
1, 24768, Note_on_c, 0, 79, 94
1, 24816, Note_on_c, 1, 60, 80
1, 24816, Note_on_c, 1, 57, 80
1, 24836, Note_on_c, 1, 60, 0
1, 24836, Note_on_c, 1, 57, 0
1, 24864, Note_on_c, 0, 79, 0
1, 24864, Note_on_c, 0, 78, 80
1, 24864, Note_on_c, 1, 60, 80
1, 24864, Note_on_c, 1, 57, 80
1, 24884, Note_on_c, 1, 60, 0
1, 24884, Note_on_c, 1, 57, 0
1, 24887, Note_on_c, 0, 78, 0
1, 24888, Note_on_c, 0, 87, 80
1, 24911, Note_on_c, 0, 87, 0
1, 24912, Note_on_c, 0, 86, 80
1, 24935, Note_on_c, 0, 86, 0
1, 24936, Note_on_c, 0, 84, 80
1, 24959, Note_on_c, 0, 84, 0
1, 24960, Note_on_c, 0, 84, 96
1, 25008, Note_on_c, 1, 62, 80
1, 25008, Note_on_c, 1, 55, 80
1, 25028, Note_on_c, 1, 62, 0
1, 25028, Note_on_c, 1, 55, 0
1, 25056, Note_on_c, 0, 84, 0
1, 25056, Note_on_c, 0, 83, 80
1, 25056, Note_on_c, 1, 62, 80
1, 25056, Note_on_c, 1, 55, 80
1, 25076, Note_on_c, 1, 62, 0
1, 25076, Note_on_c, 1, 55, 0
1, 25079, Note_on_c, 0, 83, 0
1, 25080, Note_on_c, 0, 86, 80
1, 25103, Note_on_c, 0, 86, 0
1, 25104, Note_on_c, 0, 83, 80
1, 25127, Note_on_c, 0, 83, 0
1, 25128, Note_on_c, 0, 81, 80
1, 25151, Note_on_c, 0, 81, 0
1, 25152, Note_on_c, 0, 81, 96
1, 25200, Note_on_c, 1, 62, 80
1, 25200, Note_on_c, 1, 59, 80
1, 25220, Note_on_c, 1, 62, 0
1, 25220, Note_on_c, 1, 59, 0
1, 25248, Note_on_c, 0, 81, 0
1, 25248, Note_on_c, 0, 79, 80
1, 25248, Note_on_c, 1, 62, 80
1, 25248, Note_on_c, 1, 59, 80
1, 25268, Note_on_c, 1, 62, 0
1, 25268, Note_on_c, 1, 59, 0
1, 25271, Note_on_c, 0, 79, 0
1, 25272, Note_on_c, 0, 86, 80
1, 25295, Note_on_c, 0, 86, 0
1, 25296, Note_on_c, 0, 79, 78
1, 25319, Note_on_c, 0, 79, 0
1, 25320, Note_on_c, 0, 77, 77
1, 25343, Note_on_c, 0, 77, 0
1, 25344, Note_on_c, 0, 77, 91
1, 25392, Note_on_c, 1, 60, 73
1, 25412, Note_on_c, 1, 60, 0
1, 25440, Note_on_c, 0, 77, 0
1, 25440, Note_on_c, 0, 76, 69
1, 25440, Note_on_c, 1, 60, 70
1, 25460, Note_on_c, 1, 60, 0
1, 25463, Note_on_c, 0, 76, 0
1, 25464, Note_on_c, 0, 79, 68
1, 25487, Note_on_c, 0, 79, 0
1, 25488, Note_on_c, 0, 76, 66
1, 25511, Note_on_c, 0, 76, 0
1, 25512, Note_on_c, 0, 72, 65
1, 25535, Note_on_c, 0, 72, 0
1, 25536, Note_on_c, 0, 81, 64
1, 25536, Note_on_c, 1, 60, 64
1, 25536, Note_on_c, 1, 53, 64
1, 25581, Note_on_c, 0, 81, 0
1, 25584, Note_on_c, 0, 69, 64
1, 25596, Note_on_c, 0, 69, 0
1, 25596, Note_on_c, 0, 81, 64
1, 25625, Note_on_c, 1, 60, 0
1, 25625, Note_on_c, 1, 53, 0
1, 25629, Note_on_c, 0, 81, 0
1, 25632, Note_on_c, 0, 69, 72
1, 25644, Note_on_c, 0, 69, 0
1, 25644, Note_on_c, 0, 81, 72
1, 25677, Note_on_c, 0, 81, 0
1, 25680, Note_on_c, 0, 69, 80
1, 25692, Note_on_c, 0, 69, 0
1, 25692, Note_on_c, 0, 81, 80
1, 25725, Note_on_c, 0, 81, 0
1, 25728, Note_on_c, 0, 69, 74
1, 25740, Note_on_c, 0, 69, 0
1, 25740, Note_on_c, 0, 81, 74
1, 25817, Note_on_c, 0, 81, 0
1, 25920, Note_on_c, 1, 53, 80
1, 25920, Note_on_c, 1, 41, 80
1, 25968, Note_on_c, 0, 57, 80
1, 25992, Note_on_c, 0, 57, 0
1, 25992, Note_on_c, 0, 62, 80
1, 26009, Note_on_c, 1, 53, 0
1, 26009, Note_on_c, 1, 41, 0
1, 26015, Note_on_c, 0, 62, 0
1, 26016, Note_on_c, 0, 62, 80
1, 26040, Note_on_c, 0, 62, 0
1, 26040, Note_on_c, 0, 65, 80
1, 26063, Note_on_c, 0, 65, 0
1, 26064, Note_on_c, 0, 65, 80
1, 26088, Note_on_c, 0, 65, 0
1, 26088, Note_on_c, 0, 69, 80
1, 26111, Note_on_c, 0, 69, 0
1, 26112, Note_on_c, 0, 69, 80
1, 26136, Note_on_c, 0, 69, 0
1, 26136, Note_on_c, 0, 74, 80
1, 26159, Note_on_c, 0, 74, 0
1, 26160, Note_on_c, 0, 74, 80
1, 26184, Note_on_c, 0, 74, 0
1, 26184, Note_on_c, 0, 77, 80
1, 26207, Note_on_c, 0, 77, 0
1, 26208, Note_on_c, 0, 77, 80
1, 26232, Note_on_c, 0, 77, 0
1, 26232, Note_on_c, 0, 81, 80
1, 26255, Note_on_c, 0, 81, 0
1, 26256, Note_on_c, 0, 81, 80
1, 26256, Note_on_c, 1, 59, 80
1, 26280, Note_on_c, 0, 81, 0
1, 26280, Note_on_c, 0, 77, 80
1, 26301, Note_on_c, 1, 59, 0
1, 26303, Note_on_c, 0, 77, 0
1, 26304, Note_on_c, 0, 77, 80
1, 26304, Note_on_c, 1, 60, 80
1, 26328, Note_on_c, 0, 77, 0
1, 26328, Note_on_c, 0, 76, 80
1, 26349, Note_on_c, 1, 60, 0
1, 26351, Note_on_c, 0, 76, 0
1, 26352, Note_on_c, 0, 79, 80
1, 26352, Note_on_c, 1, 52, 80
1, 26376, Note_on_c, 0, 79, 0
1, 26376, Note_on_c, 0, 72, 80
1, 26397, Note_on_c, 1, 52, 0
1, 26399, Note_on_c, 0, 72, 0
1, 26400, Note_on_c, 0, 74, 80
1, 26400, Note_on_c, 1, 53, 80
1, 26413, Note_on_c, 0, 74, 0
1, 26414, Note_on_c, 0, 76, 80
1, 26427, Note_on_c, 0, 76, 0
1, 26428, Note_on_c, 0, 74, 80
1, 26441, Note_on_c, 0, 74, 0
1, 26442, Note_on_c, 0, 76, 80
1, 26445, Note_on_c, 1, 53, 0
1, 26448, Note_on_c, 1, 55, 80
1, 26455, Note_on_c, 0, 76, 0
1, 26456, Note_on_c, 0, 74, 80
1, 26469, Note_on_c, 0, 74, 0
1, 26470, Note_on_c, 0, 72, 80
1, 26482, Note_on_c, 0, 72, 0
1, 26483, Note_on_c, 0, 74, 80
1, 26493, Note_on_c, 1, 55, 0
1, 26495, Note_on_c, 0, 74, 0
1, 26496, Note_on_c, 0, 72, 80
1, 26496, Note_on_c, 1, 48, 80
1, 26541, Note_on_c, 0, 72, 0
1, 26541, Note_on_c, 1, 48, 0
1, 26544, Note_on_c, 1, 60, 64
1, 26564, Note_on_c, 1, 60, 0
1, 26592, Note_on_c, 0, 81, 64
1, 26615, Note_on_c, 0, 81, 0
1, 26616, Note_on_c, 0, 84, 64
1, 26639, Note_on_c, 0, 84, 0
1, 26640, Note_on_c, 0, 83, 64
1, 26640, Note_on_c, 1, 76, 64
1, 26640, Note_on_c, 1, 72, 64
1, 26660, Note_on_c, 1, 76, 0
1, 26660, Note_on_c, 1, 72, 0
1, 26663, Note_on_c, 0, 83, 0
1, 26664, Note_on_c, 0, 81, 64
1, 26687, Note_on_c, 0, 81, 0
1, 26688, Note_on_c, 0, 81, 80
1, 26688, Note_on_c, 1, 74, 64
1, 26688, Note_on_c, 1, 71, 64
1, 26708, Note_on_c, 1, 74, 0
1, 26708, Note_on_c, 1, 71, 0
1, 26712, Note_on_c, 0, 81, 0
1, 26712, Note_on_c, 0, 79, 64
1, 26735, Note_on_c, 0, 79, 0
1, 26736, Note_on_c, 0, 78, 64
1, 26736, Note_on_c, 1, 74, 64
1, 26736, Note_on_c, 1, 71, 64
1, 26756, Note_on_c, 1, 74, 0
1, 26756, Note_on_c, 1, 71, 0
1, 26759, Note_on_c, 0, 78, 0
1, 26760, Note_on_c, 0, 79, 64
1, 26783, Note_on_c, 0, 79, 0
1, 26784, Note_on_c, 0, 77, 80
1, 26784, Note_on_c, 1, 72, 64
1, 26784, Note_on_c, 1, 69, 64
1, 26804, Note_on_c, 1, 72, 0
1, 26804, Note_on_c, 1, 69, 0
1, 26808, Note_on_c, 0, 77, 0
1, 26808, Note_on_c, 0, 81, 64
1, 26831, Note_on_c, 0, 81, 0
1, 26832, Note_on_c, 0, 79, 64
1, 26832, Note_on_c, 1, 72, 64
1, 26832, Note_on_c, 1, 69, 64
1, 26852, Note_on_c, 1, 72, 0
1, 26852, Note_on_c, 1, 69, 0
1, 26855, Note_on_c, 0, 79, 0
1, 26856, Note_on_c, 0, 77, 64
1, 26879, Note_on_c, 0, 77, 0
1, 26880, Note_on_c, 0, 77, 64
1, 26880, Note_on_c, 1, 71, 64
1, 26880, Note_on_c, 1, 67, 64
1, 26900, Note_on_c, 1, 71, 0
1, 26900, Note_on_c, 1, 67, 0
1, 26903, Note_on_c, 0, 77, 0
1, 26904, Note_on_c, 0, 76, 64
1, 26927, Note_on_c, 0, 76, 0
1, 26928, Note_on_c, 0, 75, 64
1, 26928, Note_on_c, 1, 71, 64
1, 26928, Note_on_c, 1, 67, 64
1, 26948, Note_on_c, 1, 71, 0
1, 26948, Note_on_c, 1, 67, 0
1, 26951, Note_on_c, 0, 75, 0
1, 26952, Note_on_c, 0, 76, 64
1, 26975, Note_on_c, 0, 76, 0
1, 26976, Note_on_c, 0, 74, 64
1, 26976, Note_on_c, 1, 69, 64
1, 26976, Note_on_c, 1, 65, 64
1, 26996, Note_on_c, 1, 69, 0
1, 26996, Note_on_c, 1, 65, 0
1, 26999, Note_on_c, 0, 74, 0
1, 27000, Note_on_c, 0, 77, 64
1, 27023, Note_on_c, 0, 77, 0
1, 27024, Note_on_c, 0, 76, 64
1, 27024, Note_on_c, 1, 69, 64
1, 27024, Note_on_c, 1, 65, 64
1, 27044, Note_on_c, 1, 69, 0
1, 27044, Note_on_c, 1, 65, 0
1, 27047, Note_on_c, 0, 76, 0
1, 27048, Note_on_c, 0, 74, 64
1, 27071, Note_on_c, 0, 74, 0
1, 27072, Note_on_c, 0, 74, 64
1, 27072, Note_on_c, 1, 67, 64
1, 27072, Note_on_c, 1, 64, 64
1, 27095, Note_on_c, 0, 74, 0
1, 27096, Note_on_c, 0, 72, 68
1, 27119, Note_on_c, 0, 72, 0
1, 27120, Note_on_c, 0, 71, 72
1, 27143, Note_on_c, 0, 71, 0
1, 27144, Note_on_c, 0, 72, 76
1, 27161, Note_on_c, 1, 67, 0
1, 27161, Note_on_c, 1, 64, 0
1, 27167, Note_on_c, 0, 72, 0
1, 27168, Note_on_c, 0, 79, 96
1, 27216, Note_on_c, 1, 64, 80
1, 27264, Note_on_c, 1, 64, 0
1, 27264, Note_on_c, 1, 65, 80
1, 27287, Note_on_c, 0, 79, 0
1, 27288, Note_on_c, 0, 77, 78
1, 27309, Note_on_c, 1, 65, 0
1, 27311, Note_on_c, 0, 77, 0
1, 27312, Note_on_c, 0, 76, 76
1, 27312, Note_on_c, 1, 65, 76
1, 27332, Note_on_c, 1, 65, 0
1, 27335, Note_on_c, 0, 76, 0
1, 27336, Note_on_c, 0, 74, 74
1, 27359, Note_on_c, 0, 74, 0
1, 27360, Note_on_c, 0, 72, 72
1, 27360, Note_on_c, 1, 67, 72
1, 27372, Note_on_c, 0, 72, 0
1, 27372, Note_on_c, 0, 74, 71
1, 27380, Note_on_c, 1, 67, 0
1, 27384, Note_on_c, 0, 74, 0
1, 27384, Note_on_c, 0, 76, 70
1, 27396, Note_on_c, 0, 76, 0
1, 27396, Note_on_c, 0, 74, 69
1, 27408, Note_on_c, 0, 74, 0
1, 27408, Note_on_c, 0, 76, 68
1, 27408, Note_on_c, 1, 67, 68
1, 27420, Note_on_c, 0, 76, 0
1, 27420, Note_on_c, 0, 74, 67
1, 27428, Note_on_c, 1, 67, 0
1, 27432, Note_on_c, 0, 74, 0
1, 27432, Note_on_c, 0, 72, 66
1, 27444, Note_on_c, 0, 72, 0
1, 27444, Note_on_c, 0, 74, 65
1, 27456, Note_on_c, 0, 74, 0
1, 27456, Note_on_c, 0, 72, 64
1, 27504, Note_on_c, 1, 60, 64
1, 27524, Note_on_c, 1, 60, 0
1, 27545, Note_on_c, 0, 72, 0
1, 27552, Note_on_c, 1, 76, 64
1, 27552, Note_on_c, 1, 72, 64
1, 27568, Note_on_c, 0, 81, 64
1, 27572, Note_on_c, 1, 76, 0
1, 27572, Note_on_c, 1, 72, 0
1, 27583, Note_on_c, 0, 81, 0
1, 27584, Note_on_c, 0, 83, 64
1, 27599, Note_on_c, 0, 83, 0
1, 27600, Note_on_c, 0, 84, 64
1, 27600, Note_on_c, 1, 76, 64
1, 27600, Note_on_c, 1, 72, 64
1, 27615, Note_on_c, 0, 84, 0
1, 27616, Note_on_c, 0, 83, 64
1, 27620, Note_on_c, 1, 76, 0
1, 27620, Note_on_c, 1, 72, 0
1, 27631, Note_on_c, 0, 83, 0
1, 27632, Note_on_c, 0, 81, 64
1, 27647, Note_on_c, 0, 81, 0
1, 27648, Note_on_c, 0, 81, 80
1, 27648, Note_on_c, 1, 74, 64
1, 27648, Note_on_c, 1, 71, 64
1, 27668, Note_on_c, 1, 74, 0
1, 27668, Note_on_c, 1, 71, 0
1, 27672, Note_on_c, 0, 81, 0
1, 27672, Note_on_c, 0, 79, 65
1, 27695, Note_on_c, 0, 79, 0
1, 27696, Note_on_c, 0, 78, 66
1, 27696, Note_on_c, 1, 74, 66
1, 27696, Note_on_c, 1, 71, 66
1, 27716, Note_on_c, 1, 74, 0
1, 27716, Note_on_c, 1, 71, 0
1, 27719, Note_on_c, 0, 78, 0
1, 27720, Note_on_c, 0, 79, 67
1, 27743, Note_on_c, 0, 79, 0
1, 27744, Note_on_c, 1, 72, 68
1, 27744, Note_on_c, 1, 69, 68
1, 27760, Note_on_c, 0, 77, 68
1, 27764, Note_on_c, 1, 72, 0
1, 27764, Note_on_c, 1, 69, 0
1, 27775, Note_on_c, 0, 77, 0
1, 27776, Note_on_c, 0, 79, 69
1, 27791, Note_on_c, 0, 79, 0
1, 27792, Note_on_c, 0, 81, 69
1, 27792, Note_on_c, 1, 72, 70
1, 27792, Note_on_c, 1, 69, 70
1, 27807, Note_on_c, 0, 81, 0
1, 27808, Note_on_c, 0, 79, 70
1, 27812, Note_on_c, 1, 72, 0
1, 27812, Note_on_c, 1, 69, 0
1, 27823, Note_on_c, 0, 79, 0
1, 27824, Note_on_c, 0, 77, 70
1, 27839, Note_on_c, 0, 77, 0
1, 27840, Note_on_c, 0, 77, 87
1, 27840, Note_on_c, 1, 71, 72
1, 27840, Note_on_c, 1, 67, 72
1, 27860, Note_on_c, 1, 71, 0
1, 27860, Note_on_c, 1, 67, 0
1, 27864, Note_on_c, 0, 77, 0
1, 27864, Note_on_c, 0, 76, 72
1, 27887, Note_on_c, 0, 76, 0
1, 27888, Note_on_c, 0, 75, 73
1, 27888, Note_on_c, 1, 71, 74
1, 27888, Note_on_c, 1, 67, 74
1, 27908, Note_on_c, 1, 71, 0
1, 27908, Note_on_c, 1, 67, 0
1, 27911, Note_on_c, 0, 75, 0
1, 27912, Note_on_c, 0, 76, 74
1, 27935, Note_on_c, 0, 76, 0
1, 27936, Note_on_c, 1, 69, 76
1, 27936, Note_on_c, 1, 65, 76
1, 27952, Note_on_c, 0, 74, 75
1, 27956, Note_on_c, 1, 69, 0
1, 27956, Note_on_c, 1, 65, 0
1, 27967, Note_on_c, 0, 74, 0
1, 27968, Note_on_c, 0, 76, 76
1, 27983, Note_on_c, 0, 76, 0
1, 27984, Note_on_c, 0, 77, 76
1, 27984, Note_on_c, 1, 69, 78
1, 27984, Note_on_c, 1, 65, 78
1, 27999, Note_on_c, 0, 77, 0
1, 28000, Note_on_c, 0, 76, 77
1, 28004, Note_on_c, 1, 69, 0
1, 28004, Note_on_c, 1, 65, 0
1, 28015, Note_on_c, 0, 76, 0
1, 28016, Note_on_c, 0, 74, 77
1, 28031, Note_on_c, 0, 74, 0
1, 28032, Note_on_c, 0, 72, 78
1, 28032, Note_on_c, 1, 67, 80
1, 28032, Note_on_c, 1, 64, 80
1, 28055, Note_on_c, 0, 72, 0
1, 28056, Note_on_c, 0, 74, 79
1, 28068, Note_on_c, 0, 74, 0
1, 28068, Note_on_c, 0, 76, 79
1, 28071, Note_on_c, 1, 67, 0
1, 28071, Note_on_c, 1, 64, 0
1, 28080, Note_on_c, 0, 76, 0
1, 28080, Note_on_c, 0, 77, 80
1, 28092, Note_on_c, 0, 77, 0
1, 28092, Note_on_c, 0, 79, 80
1, 28104, Note_on_c, 0, 79, 0
1, 28104, Note_on_c, 0, 81, 81
1, 28116, Note_on_c, 0, 81, 0
1, 28116, Note_on_c, 0, 83, 81
1, 28128, Note_on_c, 0, 83, 0
1, 28128, Note_on_c, 0, 84, 82
1, 28148, Note_on_c, 0, 84, 0
1, 28176, Note_on_c, 1, 60, 80
1, 28176, Note_on_c, 1, 52, 80
1, 28196, Note_on_c, 1, 60, 0
1, 28196, Note_on_c, 1, 52, 0
1, 28224, Note_on_c, 0, 81, 80
1, 28224, Note_on_c, 1, 60, 80
1, 28224, Note_on_c, 1, 53, 80
1, 28239, Note_on_c, 0, 81, 0
1, 28240, Note_on_c, 0, 79, 80
1, 28244, Note_on_c, 1, 60, 0
1, 28244, Note_on_c, 1, 53, 0
1, 28255, Note_on_c, 0, 79, 0
1, 28256, Note_on_c, 0, 77, 80
1, 28271, Note_on_c, 0, 77, 0
1, 28272, Note_on_c, 0, 76, 80
1, 28272, Note_on_c, 1, 60, 80
1, 28272, Note_on_c, 1, 53, 80
1, 28287, Note_on_c, 0, 76, 0
1, 28288, Note_on_c, 0, 74, 80
1, 28292, Note_on_c, 1, 60, 0
1, 28292, Note_on_c, 1, 53, 0
1, 28303, Note_on_c, 0, 74, 0
1, 28304, Note_on_c, 0, 72, 80
1, 28319, Note_on_c, 0, 72, 0
1, 28320, Note_on_c, 0, 74, 80
1, 28320, Note_on_c, 1, 60, 80
1, 28320, Note_on_c, 1, 55, 80
1, 28333, Note_on_c, 0, 74, 0
1, 28334, Note_on_c, 0, 76, 80
1, 28340, Note_on_c, 1, 60, 0
1, 28340, Note_on_c, 1, 55, 0
1, 28347, Note_on_c, 0, 76, 0
1, 28348, Note_on_c, 0, 74, 80
1, 28361, Note_on_c, 0, 74, 0
1, 28362, Note_on_c, 0, 76, 80
1, 28368, Note_on_c, 1, 59, 80
1, 28368, Note_on_c, 1, 55, 80
1, 28375, Note_on_c, 0, 76, 0
1, 28376, Note_on_c, 0, 74, 80
1, 28389, Note_on_c, 0, 74, 0
1, 28390, Note_on_c, 0, 72, 80
1, 28402, Note_on_c, 0, 72, 0
1, 28403, Note_on_c, 0, 74, 80
1, 28415, Note_on_c, 0, 74, 0
1, 28416, Note_on_c, 0, 72, 80
1, 28416, Note_on_c, 1, 59, 0
1, 28416, Note_on_c, 1, 55, 0
1, 28416, Note_on_c, 1, 60, 80
1, 28461, Note_on_c, 1, 60, 0
1, 28464, Note_on_c, 1, 55, 80
1, 28484, Note_on_c, 1, 55, 0
1, 28505, Note_on_c, 0, 72, 0
1, 28512, Note_on_c, 1, 48, 80
1, 28532, Note_on_c, 1, 48, 0
1, 28560, Tempo, 521739
1, 28560, Note_on_c, 0, 72, 80
1, 28580, Note_on_c, 0, 72, 0
1, 28608, Note_on_c, 0, 70, 96
1, 28608, Note_on_c, 1, 53, 80
1, 28632, Note_on_c, 0, 70, 0
1, 28632, Note_on_c, 0, 69, 80
1, 28653, Note_on_c, 1, 53, 0
1, 28655, Note_on_c, 0, 69, 0
1, 28656, Note_on_c, 0, 67, 80
1, 28656, Note_on_c, 1, 57, 80
1, 28679, Note_on_c, 0, 67, 0
1, 28680, Note_on_c, 0, 65, 80
1, 28701, Note_on_c, 1, 57, 0
1, 28703, Note_on_c, 0, 65, 0
1, 28704, Note_on_c, 0, 74, 80
1, 28704, Note_on_c, 1, 58, 80
1, 28724, Note_on_c, 0, 74, 0
1, 28749, Note_on_c, 1, 58, 0
1, 28752, Note_on_c, 1, 46, 80
1, 28797, Note_on_c, 1, 46, 0
1, 28800, Note_on_c, 0, 74, 96
1, 28800, Note_on_c, 1, 57, 80
1, 28824, Note_on_c, 0, 74, 0
1, 28824, Note_on_c, 0, 72, 80
1, 28845, Note_on_c, 1, 57, 0
1, 28847, Note_on_c, 0, 72, 0
1, 28848, Note_on_c, 0, 70, 80
1, 28848, Note_on_c, 1, 53, 80
1, 28871, Note_on_c, 0, 70, 0
1, 28872, Note_on_c, 0, 69, 80
1, 28893, Note_on_c, 1, 53, 0
1, 28895, Note_on_c, 0, 69, 0
1, 28896, Note_on_c, 0, 67, 80
1, 28896, Note_on_c, 1, 52, 80
1, 28916, Note_on_c, 0, 67, 0
1, 28941, Note_on_c, 1, 52, 0
1, 28944, Note_on_c, 1, 48, 80
1, 28989, Note_on_c, 1, 48, 0
1, 28992, Note_on_c, 0, 70, 96
1, 28992, Note_on_c, 1, 53, 80
1, 29016, Note_on_c, 0, 70, 0
1, 29016, Note_on_c, 0, 69, 80
1, 29039, Note_on_c, 0, 69, 0
1, 29040, Note_on_c, 0, 67, 80
1, 29063, Note_on_c, 0, 67, 0
1, 29064, Note_on_c, 0, 65, 80
1, 29081, Note_on_c, 1, 53, 0
1, 29087, Note_on_c, 0, 65, 0
1, 29088, Note_on_c, 0, 77, 80
1, 29108, Note_on_c, 0, 77, 0
1, 29136, Note_on_c, 0, 69, 80
1, 29136, Note_on_c, 1, 65, 80
1, 29160, Note_on_c, 0, 69, 0
1, 29160, Note_on_c, 0, 74, 80
1, 29181, Note_on_c, 1, 65, 0
1, 29183, Note_on_c, 0, 74, 0
1, 29184, Note_on_c, 0, 70, 80
1, 29184, Note_on_c, 1, 67, 80
1, 29197, Note_on_c, 0, 70, 0
1, 29198, Note_on_c, 0, 72, 80
1, 29211, Note_on_c, 0, 72, 0
1, 29212, Note_on_c, 0, 70, 80
1, 29225, Note_on_c, 0, 70, 0
1, 29226, Note_on_c, 0, 72, 80
1, 29229, Note_on_c, 1, 67, 0
1, 29232, Note_on_c, 1, 60, 80
1, 29239, Note_on_c, 0, 72, 0
1, 29240, Note_on_c, 0, 70, 80
1, 29253, Note_on_c, 0, 70, 0
1, 29254, Note_on_c, 0, 69, 80
1, 29266, Note_on_c, 0, 69, 0
1, 29267, Note_on_c, 0, 70, 80
1, 29277, Note_on_c, 1, 60, 0
1, 29279, Note_on_c, 0, 70, 0
1, 29280, Note_on_c, 0, 69, 80
1, 29280, Note_on_c, 1, 65, 80
1, 29325, Note_on_c, 0, 69, 0
1, 29328, Note_on_c, 0, 72, 80
1, 29348, Note_on_c, 0, 72, 0
1, 29369, Note_on_c, 1, 65, 0
1, 29376, Note_on_c, 0, 70, 96
1, 29376, Note_on_c, 1, 53, 80
1, 29400, Note_on_c, 0, 70, 0
1, 29400, Note_on_c, 0, 69, 80
1, 29421, Note_on_c, 1, 53, 0
1, 29423, Note_on_c, 0, 69, 0
1, 29424, Note_on_c, 0, 67, 80
1, 29424, Note_on_c, 1, 57, 80
1, 29447, Note_on_c, 0, 67, 0
1, 29448, Note_on_c, 0, 65, 80
1, 29469, Note_on_c, 1, 57, 0
1, 29471, Note_on_c, 0, 65, 0
1, 29472, Note_on_c, 0, 74, 80
1, 29472, Note_on_c, 1, 58, 80
1, 29492, Note_on_c, 0, 74, 0
1, 29517, Note_on_c, 1, 58, 0
1, 29520, Note_on_c, 1, 46, 80
1, 29565, Note_on_c, 1, 46, 0
1, 29568, Note_on_c, 0, 74, 96
1, 29568, Note_on_c, 1, 57, 80
1, 29592, Note_on_c, 0, 74, 0
1, 29592, Note_on_c, 0, 72, 80
1, 29613, Note_on_c, 1, 57, 0
1, 29615, Note_on_c, 0, 72, 0
1, 29616, Note_on_c, 0, 70, 80
1, 29616, Note_on_c, 1, 53, 80
1, 29639, Note_on_c, 0, 70, 0
1, 29640, Note_on_c, 0, 69, 80
1, 29661, Note_on_c, 1, 53, 0
1, 29663, Note_on_c, 0, 69, 0
1, 29664, Note_on_c, 0, 67, 80
1, 29664, Note_on_c, 1, 52, 80
1, 29684, Note_on_c, 0, 67, 0
1, 29709, Note_on_c, 1, 52, 0
1, 29712, Note_on_c, 1, 48, 80
1, 29757, Note_on_c, 1, 48, 0
1, 29760, Note_on_c, 0, 69, 80
1, 29760, Note_on_c, 1, 53, 80
1, 29783, Note_on_c, 0, 69, 0
1, 29784, Note_on_c, 0, 72, 80
1, 29805, Note_on_c, 1, 53, 0
1, 29807, Note_on_c, 0, 72, 0
1, 29808, Note_on_c, 0, 65, 80
1, 29808, Note_on_c, 1, 62, 80
1, 29831, Note_on_c, 0, 65, 0
1, 29832, Note_on_c, 0, 69, 80
1, 29853, Note_on_c, 1, 62, 0
1, 29855, Note_on_c, 0, 69, 0
1, 29856, Note_on_c, 0, 67, 80
1, 29856, Note_on_c, 1, 58, 80
1, 29879, Note_on_c, 0, 67, 0
1, 29880, Note_on_c, 0, 70, 80
1, 29901, Note_on_c, 1, 58, 0
1, 29903, Note_on_c, 0, 70, 0
1, 29904, Note_on_c, 0, 64, 80
1, 29904, Note_on_c, 1, 60, 80
1, 29927, Note_on_c, 0, 64, 0
1, 29928, Note_on_c, 0, 67, 80
1, 29949, Note_on_c, 1, 60, 0
1, 29951, Note_on_c, 0, 67, 0
1, 29952, Note_on_c, 0, 65, 80
1, 29952, Note_on_c, 1, 53, 80
1, 29972, Note_on_c, 1, 53, 0
1, 30000, Note_on_c, 1, 48, 80
1, 30020, Note_on_c, 1, 48, 0
1, 30041, Note_on_c, 0, 65, 0
1, 30048, Note_on_c, 1, 41, 80
1, 30093, Note_on_c, 1, 41, 0
1, 30096, Note_on_c, 0, 60, 75
1, 30116, Note_on_c, 0, 60, 0
1, 30144, Note_on_c, 0, 60, 75
1, 30192, Note_on_c, 1, 57, 75
1, 30237, Note_on_c, 1, 57, 0
1, 30240, Note_on_c, 1, 55, 75
1, 30277, Note_on_c, 0, 60, 0
1, 30285, Note_on_c, 1, 55, 0
1, 30288, Note_on_c, 0, 69, 75
1, 30288, Note_on_c, 1, 53, 75
1, 30311, Note_on_c, 0, 69, 0
1, 30312, Note_on_c, 0, 65, 75
1, 30333, Note_on_c, 1, 53, 0
1, 30335, Note_on_c, 0, 65, 0
1, 30336, Note_on_c, 0, 60, 75
1, 30384, Note_on_c, 1, 52, 75
1, 30429, Note_on_c, 1, 52, 0
1, 30432, Note_on_c, 1, 50, 75
1, 30469, Note_on_c, 0, 60, 0
1, 30477, Note_on_c, 1, 50, 0
1, 30480, Note_on_c, 0, 70, 75
1, 30480, Note_on_c, 1, 48, 75
1, 30503, Note_on_c, 0, 70, 0
1, 30504, Note_on_c, 0, 67, 75
1, 30525, Note_on_c, 1, 48, 0
1, 30527, Note_on_c, 0, 67, 0
1, 30528, Note_on_c, 0, 69, 75
1, 30528, Note_on_c, 1, 53, 75
1, 30551, Note_on_c, 0, 69, 0
1, 30552, Note_on_c, 0, 65, 75
1, 30573, Note_on_c, 1, 53, 0
1, 30575, Note_on_c, 0, 65, 0
1, 30576, Note_on_c, 0, 70, 75
1, 30576, Note_on_c, 1, 55, 75
1, 30599, Note_on_c, 0, 70, 0
1, 30600, Note_on_c, 0, 65, 75
1, 30621, Note_on_c, 1, 55, 0
1, 30623, Note_on_c, 0, 65, 0
1, 30624, Note_on_c, 0, 72, 75
1, 30624, Note_on_c, 1, 57, 75
1, 30644, Note_on_c, 0, 72, 0
1, 30644, Note_on_c, 1, 57, 0
1, 30672, Note_on_c, 0, 60, 70
1, 30692, Note_on_c, 0, 60, 0
1, 30720, Note_on_c, 0, 60, 70
1, 30768, Note_on_c, 1, 57, 70
1, 30813, Note_on_c, 1, 57, 0
1, 30816, Note_on_c, 1, 55, 70
1, 30853, Note_on_c, 0, 60, 0
1, 30861, Note_on_c, 1, 55, 0
1, 30864, Note_on_c, 0, 69, 70
1, 30864, Note_on_c, 1, 53, 70
1, 30887, Note_on_c, 0, 69, 0
1, 30888, Note_on_c, 0, 65, 70
1, 30909, Note_on_c, 1, 53, 0
1, 30911, Note_on_c, 0, 65, 0
1, 30912, Note_on_c, 0, 60, 70
1, 30960, Note_on_c, 1, 52, 70
1, 31005, Note_on_c, 1, 52, 0
1, 31008, Note_on_c, 1, 50, 70
1, 31045, Note_on_c, 0, 60, 0
1, 31053, Note_on_c, 1, 50, 0
1, 31056, Note_on_c, 0, 70, 70
1, 31056, Note_on_c, 1, 48, 70
1, 31079, Note_on_c, 0, 70, 0
1, 31080, Note_on_c, 0, 67, 70
1, 31101, Note_on_c, 1, 48, 0
1, 31103, Note_on_c, 0, 67, 0
1, 31104, Note_on_c, 0, 69, 70
1, 31104, Note_on_c, 1, 53, 70
1, 31127, Note_on_c, 0, 69, 0
1, 31128, Note_on_c, 0, 65, 70
1, 31149, Note_on_c, 1, 53, 0
1, 31151, Note_on_c, 0, 65, 0
1, 31152, Note_on_c, 0, 70, 70
1, 31152, Note_on_c, 1, 55, 70
1, 31175, Note_on_c, 0, 70, 0
1, 31176, Note_on_c, 0, 65, 70
1, 31197, Note_on_c, 1, 55, 0
1, 31199, Note_on_c, 0, 65, 0
1, 31200, Note_on_c, 0, 72, 70
1, 31200, Note_on_c, 1, 57, 70
1, 31220, Note_on_c, 0, 72, 0
1, 31220, Note_on_c, 1, 57, 0
1, 31248, Note_on_c, 0, 77, 80
1, 31268, Note_on_c, 0, 77, 0
1, 31296, Note_on_c, 0, 76, 80
1, 31344, Note_on_c, 1, 65, 80
1, 31344, Note_on_c, 1, 58, 80
1, 31364, Note_on_c, 1, 65, 0
1, 31364, Note_on_c, 1, 58, 0
1, 31392, Note_on_c, 0, 76, 0
1, 31392, Note_on_c, 0, 74, 80
1, 31392, Note_on_c, 1, 65, 80
1, 31392, Note_on_c, 1, 58, 80
1, 31412, Note_on_c, 1, 65, 0
1, 31412, Note_on_c, 1, 58, 0
1, 31437, Note_on_c, 0, 74, 0
1, 31440, Note_on_c, 0, 77, 80
1, 31460, Note_on_c, 0, 77, 0
1, 31488, Note_on_c, 0, 74, 80
1, 31536, Note_on_c, 1, 65, 80
1, 31536, Note_on_c, 1, 57, 80
1, 31556, Note_on_c, 1, 65, 0
1, 31556, Note_on_c, 1, 57, 0
1, 31584, Note_on_c, 0, 74, 0
1, 31584, Note_on_c, 0, 72, 80
1, 31584, Note_on_c, 1, 65, 80
1, 31584, Note_on_c, 1, 57, 80
1, 31604, Note_on_c, 1, 65, 0
1, 31604, Note_on_c, 1, 57, 0
1, 31607, Note_on_c, 0, 72, 0
1, 31608, Note_on_c, 0, 77, 80
1, 31631, Note_on_c, 0, 77, 0
1, 31632, Note_on_c, 0, 81, 80
1, 31655, Note_on_c, 0, 81, 0
1, 31656, Note_on_c, 0, 84, 80
1, 31679, Note_on_c, 0, 84, 0
1, 31680, Note_on_c, 0, 72, 80
1, 31728, Note_on_c, 1, 64, 80
1, 31728, Note_on_c, 1, 55, 80
1, 31748, Note_on_c, 1, 64, 0
1, 31748, Note_on_c, 1, 55, 0
1, 31776, Note_on_c, 0, 72, 0
1, 31776, Note_on_c, 0, 70, 80
1, 31776, Note_on_c, 1, 64, 80
1, 31776, Note_on_c, 1, 55, 80
1, 31796, Note_on_c, 1, 64, 0
1, 31796, Note_on_c, 1, 55, 0
1, 31821, Note_on_c, 0, 70, 0
1, 31824, Note_on_c, 0, 69, 80
1, 31824, Note_on_c, 1, 65, 80
1, 31824, Note_on_c, 1, 53, 80
1, 31844, Note_on_c, 0, 69, 0
1, 31844, Note_on_c, 1, 65, 0
1, 31844, Note_on_c, 1, 53, 0
1, 31872, Note_on_c, 0, 69, 80
1, 31872, Note_on_c, 1, 65, 80
1, 31872, Note_on_c, 1, 60, 64
1, 31884, Note_on_c, 0, 69, 0
1, 31884, Note_on_c, 0, 70, 80
1, 31896, Note_on_c, 0, 70, 0
1, 31896, Note_on_c, 0, 69, 80
1, 31920, Note_on_c, 0, 69, 0
1, 31920, Note_on_c, 0, 67, 80
1, 31920, Note_on_c, 1, 65, 0
1, 31920, Note_on_c, 1, 64, 80
1, 31961, Note_on_c, 1, 60, 0
1, 31965, Note_on_c, 0, 67, 0
1, 31965, Note_on_c, 1, 64, 0
1, 32016, Note_on_c, 0, 79, 75
1, 32036, Note_on_c, 0, 79, 0
1, 32064, Note_on_c, 0, 77, 107
1, 32088, Note_on_c, 0, 77, 0
1, 32088, Note_on_c, 0, 76, 75
1, 32111, Note_on_c, 0, 76, 0
1, 32112, Note_on_c, 0, 74, 75
1, 32135, Note_on_c, 0, 74, 0
1, 32136, Note_on_c, 0, 72, 75
1, 32159, Note_on_c, 0, 72, 0
1, 32160, Note_on_c, 0, 84, 75
1, 32180, Note_on_c, 0, 84, 0
1, 32208, Note_on_c, 0, 72, 75
1, 32208, Note_on_c, 1, 64, 75
1, 32228, Note_on_c, 0, 72, 0
1, 32231, Note_on_c, 1, 64, 0
1, 32232, Note_on_c, 1, 67, 75
1, 32255, Note_on_c, 1, 67, 0
1, 32256, Note_on_c, 0, 71, 75
1, 32256, Note_on_c, 1, 65, 75
1, 32279, Note_on_c, 1, 65, 0
1, 32280, Note_on_c, 1, 67, 75
1, 32303, Note_on_c, 1, 67, 0
1, 32304, Note_on_c, 0, 71, 0
1, 32304, Note_on_c, 0, 72, 75
1, 32304, Note_on_c, 1, 64, 75
1, 32327, Note_on_c, 1, 64, 0
1, 32328, Note_on_c, 1, 67, 75
1, 32349, Note_on_c, 0, 72, 0
1, 32351, Note_on_c, 1, 67, 0
1, 32352, Note_on_c, 0, 71, 75
1, 32352, Note_on_c, 1, 65, 75
1, 32375, Note_on_c, 1, 65, 0
1, 32376, Note_on_c, 1, 67, 75
1, 32399, Note_on_c, 1, 67, 0
1, 32400, Note_on_c, 0, 71, 0
1, 32400, Note_on_c, 0, 72, 75
1, 32400, Note_on_c, 1, 64, 75
1, 32423, Note_on_c, 1, 64, 0
1, 32424, Note_on_c, 1, 67, 75
1, 32445, Note_on_c, 0, 72, 0
1, 32447, Note_on_c, 1, 67, 0
1, 32448, Note_on_c, 0, 77, 75
1, 32448, Note_on_c, 1, 62, 75
1, 32471, Note_on_c, 0, 77, 0
1, 32472, Note_on_c, 0, 81, 75
1, 32493, Note_on_c, 1, 62, 0
1, 32495, Note_on_c, 0, 81, 0
1, 32496, Note_on_c, 0, 74, 75
1, 32496, Note_on_c, 1, 59, 75
1, 32519, Note_on_c, 0, 74, 0
1, 32520, Note_on_c, 0, 77, 75
1, 32541, Note_on_c, 1, 59, 0
1, 32543, Note_on_c, 0, 77, 0
1, 32544, Note_on_c, 0, 76, 75
1, 32544, Note_on_c, 1, 60, 75
1, 32564, Note_on_c, 0, 76, 0
1, 32564, Note_on_c, 1, 60, 0
1, 32592, Note_on_c, 0, 79, 64
1, 32612, Note_on_c, 0, 79, 0
1, 32640, Note_on_c, 0, 77, 80
1, 32664, Note_on_c, 0, 77, 0
1, 32664, Note_on_c, 0, 76, 64
1, 32687, Note_on_c, 0, 76, 0
1, 32688, Note_on_c, 0, 74, 64
1, 32711, Note_on_c, 0, 74, 0
1, 32712, Note_on_c, 0, 72, 64
1, 32735, Note_on_c, 0, 72, 0
1, 32736, Note_on_c, 0, 84, 64
1, 32756, Note_on_c, 0, 84, 0
1, 32784, Note_on_c, 0, 72, 64
1, 32784, Note_on_c, 1, 64, 64
1, 32804, Note_on_c, 0, 72, 0
1, 32807, Note_on_c, 1, 64, 0
1, 32808, Note_on_c, 1, 67, 64
1, 32831, Note_on_c, 1, 67, 0
1, 32832, Note_on_c, 0, 71, 64
1, 32832, Note_on_c, 1, 65, 64
1, 32855, Note_on_c, 1, 65, 0
1, 32856, Note_on_c, 1, 67, 64
1, 32879, Note_on_c, 1, 67, 0
1, 32880, Note_on_c, 0, 71, 0
1, 32880, Note_on_c, 0, 72, 64
1, 32880, Note_on_c, 1, 64, 64
1, 32903, Note_on_c, 1, 64, 0
1, 32904, Note_on_c, 1, 67, 64
1, 32925, Note_on_c, 0, 72, 0
1, 32927, Note_on_c, 1, 67, 0
1, 32928, Note_on_c, 0, 71, 64
1, 32928, Note_on_c, 1, 65, 64
1, 32951, Note_on_c, 1, 65, 0
1, 32952, Note_on_c, 1, 67, 64
1, 32975, Note_on_c, 1, 67, 0
1, 32976, Note_on_c, 0, 71, 0
1, 32976, Note_on_c, 0, 72, 64
1, 32976, Note_on_c, 1, 64, 64
1, 32999, Note_on_c, 1, 64, 0
1, 33000, Note_on_c, 1, 67, 64
1, 33021, Note_on_c, 0, 72, 0
1, 33023, Note_on_c, 1, 67, 0
1, 33024, Note_on_c, 0, 77, 64
1, 33024, Note_on_c, 1, 62, 64
1, 33047, Note_on_c, 0, 77, 0
1, 33048, Note_on_c, 0, 81, 64
1, 33069, Note_on_c, 1, 62, 0
1, 33071, Note_on_c, 0, 81, 0
1, 33072, Note_on_c, 0, 74, 64
1, 33072, Note_on_c, 1, 59, 64
1, 33095, Note_on_c, 0, 74, 0
1, 33096, Note_on_c, 0, 77, 64
1, 33117, Note_on_c, 1, 59, 0
1, 33119, Note_on_c, 0, 77, 0
1, 33120, Note_on_c, 0, 76, 64
1, 33120, Note_on_c, 1, 60, 64
1, 33143, Note_on_c, 0, 76, 0
1, 33144, Note_on_c, 0, 79, 64
1, 33165, Note_on_c, 1, 60, 0
1, 33167, Note_on_c, 0, 79, 0
1, 33168, Note_on_c, 0, 72, 64
1, 33168, Note_on_c, 1, 64, 64
1, 33191, Note_on_c, 0, 72, 0
1, 33192, Note_on_c, 0, 76, 64
1, 33213, Note_on_c, 1, 64, 0
1, 33215, Note_on_c, 0, 76, 0
1, 33216, Note_on_c, 0, 74, 64
1, 33216, Note_on_c, 1, 65, 64
1, 33239, Note_on_c, 0, 74, 0
1, 33240, Note_on_c, 0, 77, 64
1, 33261, Note_on_c, 1, 65, 0
1, 33263, Note_on_c, 0, 77, 0
1, 33264, Note_on_c, 0, 71, 64
1, 33264, Note_on_c, 1, 62, 64
1, 33287, Note_on_c, 0, 71, 0
1, 33288, Note_on_c, 0, 74, 64
1, 33309, Note_on_c, 1, 62, 0
1, 33311, Note_on_c, 0, 74, 0
1, 33312, Note_on_c, 0, 72, 64
1, 33312, Note_on_c, 1, 64, 64
1, 33335, Note_on_c, 0, 72, 0
1, 33336, Note_on_c, 0, 76, 64
1, 33357, Note_on_c, 1, 64, 0
1, 33359, Note_on_c, 0, 76, 0
1, 33360, Note_on_c, 0, 79, 64
1, 33360, Note_on_c, 1, 60, 64
1, 33383, Note_on_c, 0, 79, 0
1, 33384, Note_on_c, 0, 76, 64
1, 33405, Note_on_c, 1, 60, 0
1, 33407, Note_on_c, 0, 76, 0
1, 33408, Note_on_c, 0, 77, 64
1, 33408, Note_on_c, 1, 62, 64
1, 33431, Note_on_c, 0, 77, 0
1, 33432, Note_on_c, 0, 81, 64
1, 33453, Note_on_c, 1, 62, 0
1, 33455, Note_on_c, 0, 81, 0
1, 33456, Note_on_c, 0, 74, 65
1, 33456, Note_on_c, 1, 59, 65
1, 33479, Note_on_c, 0, 74, 0
1, 33480, Note_on_c, 0, 77, 65
1, 33501, Note_on_c, 1, 59, 0
1, 33503, Note_on_c, 0, 77, 0
1, 33504, Note_on_c, 0, 76, 66
1, 33504, Note_on_c, 1, 60, 66
1, 33527, Note_on_c, 0, 76, 0
1, 33528, Note_on_c, 0, 79, 66
1, 33549, Note_on_c, 1, 60, 0
1, 33551, Note_on_c, 0, 79, 0
1, 33552, Note_on_c, 0, 72, 67
1, 33552, Note_on_c, 1, 64, 67
1, 33575, Note_on_c, 0, 72, 0
1, 33576, Note_on_c, 0, 76, 67
1, 33597, Note_on_c, 1, 64, 0
1, 33599, Note_on_c, 0, 76, 0
1, 33600, Note_on_c, 0, 74, 68
1, 33600, Note_on_c, 1, 65, 68
1, 33623, Note_on_c, 0, 74, 0
1, 33624, Note_on_c, 0, 77, 68
1, 33645, Note_on_c, 1, 65, 0
1, 33647, Note_on_c, 0, 77, 0
1, 33648, Note_on_c, 0, 71, 69
1, 33648, Note_on_c, 1, 62, 70
1, 33671, Note_on_c, 0, 71, 0
1, 33672, Note_on_c, 0, 74, 70
1, 33693, Note_on_c, 1, 62, 0
1, 33695, Note_on_c, 0, 74, 0
1, 33696, Note_on_c, 0, 72, 70
1, 33696, Note_on_c, 1, 60, 71
1, 33719, Note_on_c, 0, 72, 0
1, 33720, Note_on_c, 0, 76, 71
1, 33741, Note_on_c, 1, 60, 0
1, 33743, Note_on_c, 0, 76, 0
1, 33744, Note_on_c, 0, 79, 71
1, 33767, Note_on_c, 0, 79, 0
1, 33768, Note_on_c, 0, 84, 72
1, 33791, Note_on_c, 0, 84, 0
1, 33792, Note_on_c, 0, 79, 88
1, 33840, Note_on_c, 1, 60, 75
1, 33840, Note_on_c, 1, 57, 75
1, 33860, Note_on_c, 1, 60, 0
1, 33860, Note_on_c, 1, 57, 0
1, 33888, Note_on_c, 0, 79, 0
1, 33888, Note_on_c, 0, 78, 75
1, 33888, Note_on_c, 1, 60, 75
1, 33888, Note_on_c, 1, 57, 75
1, 33908, Note_on_c, 1, 60, 0
1, 33908, Note_on_c, 1, 57, 0
1, 33911, Note_on_c, 0, 78, 0
1, 33912, Note_on_c, 0, 72, 75
1, 33935, Note_on_c, 0, 72, 0
1, 33936, Note_on_c, 0, 78, 75
1, 33959, Note_on_c, 0, 78, 0
1, 33960, Note_on_c, 0, 84, 75
1, 33983, Note_on_c, 0, 84, 0
1, 33984, Note_on_c, 0, 79, 91
1, 34032, Note_on_c, 1, 60, 76
1, 34032, Note_on_c, 1, 57, 76
1, 34052, Note_on_c, 1, 60, 0
1, 34052, Note_on_c, 1, 57, 0
1, 34080, Note_on_c, 0, 79, 0
1, 34080, Note_on_c, 0, 78, 76
1, 34080, Note_on_c, 1, 60, 77
1, 34080, Note_on_c, 1, 57, 77
1, 34100, Note_on_c, 1, 60, 0
1, 34100, Note_on_c, 1, 57, 0
1, 34103, Note_on_c, 0, 78, 0
1, 34104, Note_on_c, 0, 72, 77
1, 34127, Note_on_c, 0, 72, 0
1, 34128, Note_on_c, 0, 78, 77
1, 34151, Note_on_c, 0, 78, 0
1, 34152, Note_on_c, 0, 84, 77
1, 34175, Note_on_c, 0, 84, 0
1, 34176, Note_on_c, 0, 79, 94
1, 34224, Note_on_c, 1, 60, 80
1, 34224, Note_on_c, 1, 57, 80
1, 34244, Note_on_c, 1, 60, 0
1, 34244, Note_on_c, 1, 57, 0
1, 34272, Note_on_c, 0, 79, 0
1, 34272, Note_on_c, 0, 78, 80
1, 34272, Note_on_c, 1, 60, 80
1, 34272, Note_on_c, 1, 57, 80
1, 34292, Note_on_c, 1, 60, 0
1, 34292, Note_on_c, 1, 57, 0
1, 34295, Note_on_c, 0, 78, 0
1, 34296, Note_on_c, 0, 87, 80
1, 34319, Note_on_c, 0, 87, 0
1, 34320, Note_on_c, 0, 86, 80
1, 34343, Note_on_c, 0, 86, 0
1, 34344, Note_on_c, 0, 84, 80
1, 34367, Note_on_c, 0, 84, 0
1, 34368, Note_on_c, 0, 84, 96
1, 34416, Note_on_c, 1, 62, 80
1, 34416, Note_on_c, 1, 55, 80
1, 34436, Note_on_c, 1, 62, 0
1, 34436, Note_on_c, 1, 55, 0
1, 34464, Note_on_c, 0, 84, 0
1, 34464, Note_on_c, 0, 83, 80
1, 34464, Note_on_c, 1, 62, 80
1, 34464, Note_on_c, 1, 55, 80
1, 34484, Note_on_c, 1, 62, 0
1, 34484, Note_on_c, 1, 55, 0
1, 34487, Note_on_c, 0, 83, 0
1, 34488, Note_on_c, 0, 86, 80
1, 34511, Note_on_c, 0, 86, 0
1, 34512, Note_on_c, 0, 83, 80
1, 34535, Note_on_c, 0, 83, 0
1, 34536, Note_on_c, 0, 81, 80
1, 34559, Note_on_c, 0, 81, 0
1, 34560, Note_on_c, 0, 81, 96
1, 34608, Note_on_c, 1, 62, 80
1, 34608, Note_on_c, 1, 59, 80
1, 34628, Note_on_c, 1, 62, 0
1, 34628, Note_on_c, 1, 59, 0
1, 34656, Note_on_c, 0, 81, 0
1, 34656, Note_on_c, 0, 79, 80
1, 34656, Note_on_c, 1, 62, 80
1, 34656, Note_on_c, 1, 59, 80
1, 34676, Note_on_c, 1, 62, 0
1, 34676, Note_on_c, 1, 59, 0
1, 34679, Note_on_c, 0, 79, 0
1, 34680, Note_on_c, 0, 86, 80
1, 34703, Note_on_c, 0, 86, 0
1, 34704, Note_on_c, 0, 79, 78
1, 34727, Note_on_c, 0, 79, 0
1, 34728, Note_on_c, 0, 77, 77
1, 34751, Note_on_c, 0, 77, 0
1, 34752, Note_on_c, 0, 77, 91
1, 34800, Note_on_c, 1, 60, 73
1, 34820, Note_on_c, 1, 60, 0
1, 34848, Note_on_c, 0, 77, 0
1, 34848, Note_on_c, 0, 76, 69
1, 34848, Note_on_c, 1, 60, 70
1, 34868, Note_on_c, 1, 60, 0
1, 34871, Note_on_c, 0, 76, 0
1, 34872, Note_on_c, 0, 79, 68
1, 34895, Note_on_c, 0, 79, 0
1, 34896, Note_on_c, 0, 76, 66
1, 34919, Note_on_c, 0, 76, 0
1, 34920, Note_on_c, 0, 72, 65
1, 34943, Note_on_c, 0, 72, 0
1, 34944, Note_on_c, 0, 81, 64
1, 34944, Note_on_c, 1, 60, 64
1, 34944, Note_on_c, 1, 53, 64
1, 34989, Note_on_c, 0, 81, 0
1, 34992, Note_on_c, 0, 69, 64
1, 35004, Note_on_c, 0, 69, 0
1, 35004, Note_on_c, 0, 81, 64
1, 35033, Note_on_c, 1, 60, 0
1, 35033, Note_on_c, 1, 53, 0
1, 35037, Note_on_c, 0, 81, 0
1, 35040, Note_on_c, 0, 69, 72
1, 35052, Note_on_c, 0, 69, 0
1, 35052, Note_on_c, 0, 81, 72
1, 35085, Note_on_c, 0, 81, 0
1, 35088, Note_on_c, 0, 69, 80
1, 35100, Note_on_c, 0, 69, 0
1, 35100, Note_on_c, 0, 81, 80
1, 35133, Note_on_c, 0, 81, 0
1, 35136, Note_on_c, 0, 69, 74
1, 35148, Note_on_c, 0, 69, 0
1, 35148, Note_on_c, 0, 81, 74
1, 35225, Note_on_c, 0, 81, 0
1, 35328, Note_on_c, 1, 53, 80
1, 35328, Note_on_c, 1, 41, 80
1, 35376, Note_on_c, 0, 57, 80
1, 35400, Note_on_c, 0, 57, 0
1, 35400, Note_on_c, 0, 62, 80
1, 35417, Note_on_c, 1, 53, 0
1, 35417, Note_on_c, 1, 41, 0
1, 35423, Note_on_c, 0, 62, 0
1, 35424, Note_on_c, 0, 62, 80
1, 35448, Note_on_c, 0, 62, 0
1, 35448, Note_on_c, 0, 65, 80
1, 35471, Note_on_c, 0, 65, 0
1, 35472, Note_on_c, 0, 65, 80
1, 35496, Note_on_c, 0, 65, 0
1, 35496, Note_on_c, 0, 69, 80
1, 35519, Note_on_c, 0, 69, 0
1, 35520, Note_on_c, 0, 69, 80
1, 35544, Note_on_c, 0, 69, 0
1, 35544, Note_on_c, 0, 74, 80
1, 35567, Note_on_c, 0, 74, 0
1, 35568, Note_on_c, 0, 74, 80
1, 35592, Note_on_c, 0, 74, 0
1, 35592, Note_on_c, 0, 77, 80
1, 35615, Note_on_c, 0, 77, 0
1, 35616, Note_on_c, 0, 77, 80
1, 35640, Note_on_c, 0, 77, 0
1, 35640, Note_on_c, 0, 81, 80
1, 35663, Note_on_c, 0, 81, 0
1, 35664, Note_on_c, 0, 81, 80
1, 35664, Note_on_c, 1, 59, 80
1, 35688, Note_on_c, 0, 81, 0
1, 35688, Note_on_c, 0, 77, 80
1, 35709, Note_on_c, 1, 59, 0
1, 35711, Note_on_c, 0, 77, 0
1, 35712, Note_on_c, 0, 77, 80
1, 35712, Note_on_c, 1, 60, 80
1, 35736, Note_on_c, 0, 77, 0
1, 35736, Note_on_c, 0, 76, 80
1, 35757, Note_on_c, 1, 60, 0
1, 35759, Note_on_c, 0, 76, 0
1, 35760, Note_on_c, 0, 79, 80
1, 35760, Note_on_c, 1, 52, 80
1, 35784, Note_on_c, 0, 79, 0
1, 35784, Note_on_c, 0, 72, 80
1, 35805, Note_on_c, 1, 52, 0
1, 35807, Note_on_c, 0, 72, 0
1, 35808, Note_on_c, 0, 74, 80
1, 35808, Note_on_c, 1, 53, 80
1, 35821, Note_on_c, 0, 74, 0
1, 35822, Note_on_c, 0, 76, 80
1, 35835, Note_on_c, 0, 76, 0
1, 35836, Note_on_c, 0, 74, 80
1, 35849, Note_on_c, 0, 74, 0
1, 35850, Note_on_c, 0, 76, 80
1, 35853, Note_on_c, 1, 53, 0
1, 35856, Note_on_c, 1, 55, 80
1, 35863, Note_on_c, 0, 76, 0
1, 35864, Note_on_c, 0, 74, 80
1, 35877, Note_on_c, 0, 74, 0
1, 35878, Note_on_c, 0, 72, 80
1, 35890, Note_on_c, 0, 72, 0
1, 35891, Note_on_c, 0, 74, 80
1, 35901, Note_on_c, 1, 55, 0
1, 35903, Note_on_c, 0, 74, 0
1, 35904, Note_on_c, 0, 72, 80
1, 35904, Note_on_c, 1, 48, 80
1, 35949, Note_on_c, 0, 72, 0
1, 35949, Note_on_c, 1, 48, 0
1, 35952, Note_on_c, 1, 60, 64
1, 35972, Note_on_c, 1, 60, 0
1, 36000, Note_on_c, 0, 81, 64
1, 36023, Note_on_c, 0, 81, 0
1, 36024, Note_on_c, 0, 84, 64
1, 36047, Note_on_c, 0, 84, 0
1, 36048, Note_on_c, 0, 83, 64
1, 36048, Note_on_c, 1, 76, 64
1, 36048, Note_on_c, 1, 72, 64
1, 36068, Note_on_c, 1, 76, 0
1, 36068, Note_on_c, 1, 72, 0
1, 36071, Note_on_c, 0, 83, 0
1, 36072, Note_on_c, 0, 81, 64
1, 36095, Note_on_c, 0, 81, 0
1, 36096, Note_on_c, 0, 81, 80
1, 36096, Note_on_c, 1, 74, 64
1, 36096, Note_on_c, 1, 71, 64
1, 36116, Note_on_c, 1, 74, 0
1, 36116, Note_on_c, 1, 71, 0
1, 36120, Note_on_c, 0, 81, 0
1, 36120, Note_on_c, 0, 79, 64
1, 36143, Note_on_c, 0, 79, 0
1, 36144, Note_on_c, 0, 78, 64
1, 36144, Note_on_c, 1, 74, 64
1, 36144, Note_on_c, 1, 71, 64
1, 36164, Note_on_c, 1, 74, 0
1, 36164, Note_on_c, 1, 71, 0
1, 36167, Note_on_c, 0, 78, 0
1, 36168, Note_on_c, 0, 79, 64
1, 36191, Note_on_c, 0, 79, 0
1, 36192, Note_on_c, 0, 77, 80
1, 36192, Note_on_c, 1, 72, 64
1, 36192, Note_on_c, 1, 69, 64
1, 36212, Note_on_c, 1, 72, 0
1, 36212, Note_on_c, 1, 69, 0
1, 36216, Note_on_c, 0, 77, 0
1, 36216, Note_on_c, 0, 81, 64
1, 36239, Note_on_c, 0, 81, 0
1, 36240, Note_on_c, 0, 79, 64
1, 36240, Note_on_c, 1, 72, 64
1, 36240, Note_on_c, 1, 69, 64
1, 36260, Note_on_c, 1, 72, 0
1, 36260, Note_on_c, 1, 69, 0
1, 36263, Note_on_c, 0, 79, 0
1, 36264, Note_on_c, 0, 77, 64
1, 36287, Note_on_c, 0, 77, 0
1, 36288, Note_on_c, 0, 77, 64
1, 36288, Note_on_c, 1, 71, 64
1, 36288, Note_on_c, 1, 67, 64
1, 36308, Note_on_c, 1, 71, 0
1, 36308, Note_on_c, 1, 67, 0
1, 36311, Note_on_c, 0, 77, 0
1, 36312, Note_on_c, 0, 76, 64
1, 36335, Note_on_c, 0, 76, 0
1, 36336, Note_on_c, 0, 75, 64
1, 36336, Note_on_c, 1, 71, 64
1, 36336, Note_on_c, 1, 67, 64
1, 36356, Note_on_c, 1, 71, 0
1, 36356, Note_on_c, 1, 67, 0
1, 36359, Note_on_c, 0, 75, 0
1, 36360, Note_on_c, 0, 76, 64
1, 36383, Note_on_c, 0, 76, 0
1, 36384, Note_on_c, 0, 74, 64
1, 36384, Note_on_c, 1, 69, 64
1, 36384, Note_on_c, 1, 65, 64
1, 36404, Note_on_c, 1, 69, 0
1, 36404, Note_on_c, 1, 65, 0
1, 36407, Note_on_c, 0, 74, 0
1, 36408, Note_on_c, 0, 77, 64
1, 36431, Note_on_c, 0, 77, 0
1, 36432, Note_on_c, 0, 76, 64
1, 36432, Note_on_c, 1, 69, 64
1, 36432, Note_on_c, 1, 65, 64
1, 36452, Note_on_c, 1, 69, 0
1, 36452, Note_on_c, 1, 65, 0
1, 36455, Note_on_c, 0, 76, 0
1, 36456, Note_on_c, 0, 74, 64
1, 36479, Note_on_c, 0, 74, 0
1, 36480, Note_on_c, 0, 74, 64
1, 36480, Note_on_c, 1, 67, 64
1, 36480, Note_on_c, 1, 64, 64
1, 36503, Note_on_c, 0, 74, 0
1, 36504, Note_on_c, 0, 72, 68
1, 36527, Note_on_c, 0, 72, 0
1, 36528, Note_on_c, 0, 71, 72
1, 36551, Note_on_c, 0, 71, 0
1, 36552, Note_on_c, 0, 72, 76
1, 36569, Note_on_c, 1, 67, 0
1, 36569, Note_on_c, 1, 64, 0
1, 36575, Note_on_c, 0, 72, 0
1, 36576, Note_on_c, 0, 79, 96
1, 36624, Note_on_c, 1, 64, 80
1, 36672, Note_on_c, 1, 64, 0
1, 36672, Note_on_c, 1, 65, 80
1, 36695, Note_on_c, 0, 79, 0
1, 36696, Note_on_c, 0, 77, 78
1, 36717, Note_on_c, 1, 65, 0
1, 36719, Note_on_c, 0, 77, 0
1, 36720, Note_on_c, 0, 76, 76
1, 36720, Note_on_c, 1, 65, 76
1, 36740, Note_on_c, 1, 65, 0
1, 36743, Note_on_c, 0, 76, 0
1, 36744, Note_on_c, 0, 74, 74
1, 36767, Note_on_c, 0, 74, 0
1, 36768, Note_on_c, 0, 72, 72
1, 36768, Note_on_c, 1, 67, 72
1, 36780, Note_on_c, 0, 72, 0
1, 36780, Note_on_c, 0, 74, 71
1, 36788, Note_on_c, 1, 67, 0
1, 36792, Note_on_c, 0, 74, 0
1, 36792, Note_on_c, 0, 76, 70
1, 36804, Note_on_c, 0, 76, 0
1, 36804, Note_on_c, 0, 74, 69
1, 36816, Note_on_c, 0, 74, 0
1, 36816, Note_on_c, 0, 76, 68
1, 36816, Note_on_c, 1, 67, 68
1, 36828, Note_on_c, 0, 76, 0
1, 36828, Note_on_c, 0, 74, 67
1, 36836, Note_on_c, 1, 67, 0
1, 36840, Note_on_c, 0, 74, 0
1, 36840, Note_on_c, 0, 72, 66
1, 36852, Note_on_c, 0, 72, 0
1, 36852, Note_on_c, 0, 74, 65
1, 36864, Note_on_c, 0, 74, 0
1, 36864, Note_on_c, 0, 72, 64
1, 36912, Note_on_c, 1, 60, 64
1, 36932, Note_on_c, 1, 60, 0
1, 36953, Note_on_c, 0, 72, 0
1, 36960, Note_on_c, 1, 76, 64
1, 36960, Note_on_c, 1, 72, 64
1, 36976, Note_on_c, 0, 81, 64
1, 36980, Note_on_c, 1, 76, 0
1, 36980, Note_on_c, 1, 72, 0
1, 36991, Note_on_c, 0, 81, 0
1, 36992, Note_on_c, 0, 83, 64
1, 37007, Note_on_c, 0, 83, 0
1, 37008, Note_on_c, 0, 84, 64
1, 37008, Note_on_c, 1, 76, 64
1, 37008, Note_on_c, 1, 72, 64
1, 37023, Note_on_c, 0, 84, 0
1, 37024, Note_on_c, 0, 83, 64
1, 37028, Note_on_c, 1, 76, 0
1, 37028, Note_on_c, 1, 72, 0
1, 37039, Note_on_c, 0, 83, 0
1, 37040, Note_on_c, 0, 81, 64
1, 37055, Note_on_c, 0, 81, 0
1, 37056, Note_on_c, 0, 81, 80
1, 37056, Note_on_c, 1, 74, 64
1, 37056, Note_on_c, 1, 71, 64
1, 37076, Note_on_c, 1, 74, 0
1, 37076, Note_on_c, 1, 71, 0
1, 37080, Note_on_c, 0, 81, 0
1, 37080, Note_on_c, 0, 79, 65
1, 37103, Note_on_c, 0, 79, 0
1, 37104, Note_on_c, 0, 78, 66
1, 37104, Note_on_c, 1, 74, 66
1, 37104, Note_on_c, 1, 71, 66
1, 37124, Note_on_c, 1, 74, 0
1, 37124, Note_on_c, 1, 71, 0
1, 37127, Note_on_c, 0, 78, 0
1, 37128, Note_on_c, 0, 79, 67
1, 37151, Note_on_c, 0, 79, 0
1, 37152, Note_on_c, 1, 72, 68
1, 37152, Note_on_c, 1, 69, 68
1, 37168, Note_on_c, 0, 77, 68
1, 37172, Note_on_c, 1, 72, 0
1, 37172, Note_on_c, 1, 69, 0
1, 37183, Note_on_c, 0, 77, 0
1, 37184, Note_on_c, 0, 79, 69
1, 37199, Note_on_c, 0, 79, 0
1, 37200, Note_on_c, 0, 81, 69
1, 37200, Note_on_c, 1, 72, 70
1, 37200, Note_on_c, 1, 69, 70
1, 37215, Note_on_c, 0, 81, 0
1, 37216, Note_on_c, 0, 79, 70
1, 37220, Note_on_c, 1, 72, 0
1, 37220, Note_on_c, 1, 69, 0
1, 37231, Note_on_c, 0, 79, 0
1, 37232, Note_on_c, 0, 77, 70
1, 37247, Note_on_c, 0, 77, 0
1, 37248, Note_on_c, 0, 77, 87
1, 37248, Note_on_c, 1, 71, 72
1, 37248, Note_on_c, 1, 67, 72
1, 37268, Note_on_c, 1, 71, 0
1, 37268, Note_on_c, 1, 67, 0
1, 37272, Note_on_c, 0, 77, 0
1, 37272, Note_on_c, 0, 76, 72
1, 37295, Note_on_c, 0, 76, 0
1, 37296, Note_on_c, 0, 75, 73
1, 37296, Note_on_c, 1, 71, 74
1, 37296, Note_on_c, 1, 67, 74
1, 37316, Note_on_c, 1, 71, 0
1, 37316, Note_on_c, 1, 67, 0
1, 37319, Note_on_c, 0, 75, 0
1, 37320, Note_on_c, 0, 76, 74
1, 37343, Note_on_c, 0, 76, 0
1, 37344, Note_on_c, 1, 69, 76
1, 37344, Note_on_c, 1, 65, 76
1, 37360, Note_on_c, 0, 74, 75
1, 37364, Note_on_c, 1, 69, 0
1, 37364, Note_on_c, 1, 65, 0
1, 37375, Note_on_c, 0, 74, 0
1, 37376, Note_on_c, 0, 76, 76
1, 37391, Note_on_c, 0, 76, 0
1, 37392, Note_on_c, 0, 77, 76
1, 37392, Note_on_c, 1, 69, 78
1, 37392, Note_on_c, 1, 65, 78
1, 37407, Note_on_c, 0, 77, 0
1, 37408, Note_on_c, 0, 76, 77
1, 37412, Note_on_c, 1, 69, 0
1, 37412, Note_on_c, 1, 65, 0
1, 37423, Note_on_c, 0, 76, 0
1, 37424, Note_on_c, 0, 74, 77
1, 37439, Note_on_c, 0, 74, 0
1, 37440, Note_on_c, 0, 72, 78
1, 37440, Note_on_c, 1, 67, 80
1, 37440, Note_on_c, 1, 64, 80
1, 37463, Note_on_c, 0, 72, 0
1, 37464, Note_on_c, 0, 74, 79
1, 37476, Note_on_c, 0, 74, 0
1, 37476, Note_on_c, 0, 76, 79
1, 37479, Note_on_c, 1, 67, 0
1, 37479, Note_on_c, 1, 64, 0
1, 37488, Note_on_c, 0, 76, 0
1, 37488, Note_on_c, 0, 77, 80
1, 37500, Note_on_c, 0, 77, 0
1, 37500, Note_on_c, 0, 79, 80
1, 37512, Note_on_c, 0, 79, 0
1, 37512, Note_on_c, 0, 81, 81
1, 37524, Note_on_c, 0, 81, 0
1, 37524, Note_on_c, 0, 83, 81
1, 37536, Note_on_c, 0, 83, 0
1, 37536, Note_on_c, 0, 84, 82
1, 37556, Note_on_c, 0, 84, 0
1, 37584, Note_on_c, 1, 60, 80
1, 37584, Note_on_c, 1, 52, 80
1, 37604, Note_on_c, 1, 60, 0
1, 37604, Note_on_c, 1, 52, 0
1, 37632, Note_on_c, 0, 81, 80
1, 37632, Note_on_c, 1, 60, 80
1, 37632, Note_on_c, 1, 53, 80
1, 37647, Note_on_c, 0, 81, 0
1, 37648, Note_on_c, 0, 79, 80
1, 37652, Note_on_c, 1, 60, 0
1, 37652, Note_on_c, 1, 53, 0
1, 37663, Note_on_c, 0, 79, 0
1, 37664, Note_on_c, 0, 77, 80
1, 37679, Note_on_c, 0, 77, 0
1, 37680, Note_on_c, 0, 76, 80
1, 37680, Note_on_c, 1, 60, 80
1, 37680, Note_on_c, 1, 53, 80
1, 37695, Note_on_c, 0, 76, 0
1, 37696, Note_on_c, 0, 74, 80
1, 37700, Note_on_c, 1, 60, 0
1, 37700, Note_on_c, 1, 53, 0
1, 37711, Note_on_c, 0, 74, 0
1, 37712, Note_on_c, 0, 72, 80
1, 37727, Note_on_c, 0, 72, 0
1, 37728, Note_on_c, 0, 74, 80
1, 37728, Note_on_c, 1, 60, 80
1, 37728, Note_on_c, 1, 55, 80
1, 37741, Note_on_c, 0, 74, 0
1, 37742, Note_on_c, 0, 76, 80
1, 37748, Note_on_c, 1, 60, 0
1, 37748, Note_on_c, 1, 55, 0
1, 37755, Note_on_c, 0, 76, 0
1, 37756, Note_on_c, 0, 74, 80
1, 37769, Note_on_c, 0, 74, 0
1, 37770, Note_on_c, 0, 76, 80
1, 37776, Note_on_c, 1, 59, 80
1, 37776, Note_on_c, 1, 55, 80
1, 37783, Note_on_c, 0, 76, 0
1, 37784, Note_on_c, 0, 74, 80
1, 37797, Note_on_c, 0, 74, 0
1, 37798, Note_on_c, 0, 72, 80
1, 37810, Note_on_c, 0, 72, 0
1, 37811, Note_on_c, 0, 74, 80
1, 37823, Note_on_c, 0, 74, 0
1, 37824, Note_on_c, 0, 72, 80
1, 37824, Note_on_c, 1, 59, 0
1, 37824, Note_on_c, 1, 55, 0
1, 37824, Note_on_c, 1, 60, 80
1, 37869, Note_on_c, 1, 60, 0
1, 37872, Note_on_c, 1, 55, 80
1, 37892, Note_on_c, 1, 55, 0
1, 37913, Note_on_c, 0, 72, 0
1, 37920, Note_on_c, 1, 48, 80
1, 37940, Note_on_c, 1, 48, 0
1, 37968, Note_on_c, 0, 79, 80
1, 37988, Note_on_c, 0, 79, 0
1, 38016, Note_on_c, 0, 77, 96
1, 38016, Note_on_c, 1, 60, 80
1, 38040, Note_on_c, 0, 77, 0
1, 38040, Note_on_c, 0, 76, 80
1, 38061, Note_on_c, 1, 60, 0
1, 38063, Note_on_c, 0, 76, 0
1, 38064, Note_on_c, 0, 74, 80
1, 38064, Note_on_c, 1, 64, 80
1, 38087, Note_on_c, 0, 74, 0
1, 38088, Note_on_c, 0, 72, 80
1, 38109, Note_on_c, 1, 64, 0
1, 38111, Note_on_c, 0, 72, 0
1, 38112, Note_on_c, 0, 81, 80
1, 38112, Note_on_c, 1, 65, 80
1, 38132, Note_on_c, 0, 81, 0
1, 38157, Note_on_c, 1, 65, 0
1, 38160, Note_on_c, 1, 53, 80
1, 38205, Note_on_c, 1, 53, 0
1, 38208, Note_on_c, 0, 81, 96
1, 38208, Note_on_c, 1, 64, 80
1, 38232, Note_on_c, 0, 81, 0
1, 38232, Note_on_c, 0, 79, 80
1, 38253, Note_on_c, 1, 64, 0
1, 38255, Note_on_c, 0, 79, 0
1, 38256, Note_on_c, 0, 77, 80
1, 38256, Note_on_c, 1, 60, 80
1, 38279, Note_on_c, 0, 77, 0
1, 38280, Note_on_c, 0, 76, 80
1, 38301, Note_on_c, 1, 60, 0
1, 38303, Note_on_c, 0, 76, 0
1, 38304, Note_on_c, 0, 74, 80
1, 38304, Note_on_c, 1, 59, 80
1, 38324, Note_on_c, 0, 74, 0
1, 38349, Note_on_c, 1, 59, 0
1, 38352, Note_on_c, 1, 55, 80
1, 38397, Note_on_c, 1, 55, 0
1, 38400, Note_on_c, 0, 77, 96
1, 38400, Note_on_c, 1, 60, 80
1, 38424, Note_on_c, 0, 77, 0
1, 38424, Note_on_c, 0, 76, 80
1, 38447, Note_on_c, 0, 76, 0
1, 38448, Note_on_c, 0, 74, 80
1, 38471, Note_on_c, 0, 74, 0
1, 38472, Note_on_c, 0, 72, 80
1, 38489, Note_on_c, 1, 60, 0
1, 38495, Note_on_c, 0, 72, 0
1, 38496, Note_on_c, 0, 84, 80
1, 38516, Note_on_c, 0, 84, 0
1, 38544, Note_on_c, 0, 76, 80
1, 38544, Note_on_c, 1, 72, 80
1, 38568, Note_on_c, 0, 76, 0
1, 38568, Note_on_c, 0, 81, 80
1, 38589, Note_on_c, 1, 72, 0
1, 38591, Note_on_c, 0, 81, 0
1, 38592, Note_on_c, 0, 77, 80
1, 38592, Note_on_c, 1, 74, 80
1, 38605, Note_on_c, 0, 77, 0
1, 38606, Note_on_c, 0, 79, 80
1, 38619, Note_on_c, 0, 79, 0
1, 38620, Note_on_c, 0, 77, 80
1, 38633, Note_on_c, 0, 77, 0
1, 38634, Note_on_c, 0, 79, 80
1, 38637, Note_on_c, 1, 74, 0
1, 38640, Note_on_c, 1, 67, 80
1, 38647, Note_on_c, 0, 79, 0
1, 38648, Note_on_c, 0, 77, 80
1, 38661, Note_on_c, 0, 77, 0
1, 38662, Note_on_c, 0, 76, 80
1, 38674, Note_on_c, 0, 76, 0
1, 38675, Note_on_c, 0, 77, 80
1, 38685, Note_on_c, 1, 67, 0
1, 38687, Note_on_c, 0, 77, 0
1, 38688, Note_on_c, 0, 76, 80
1, 38688, Note_on_c, 1, 72, 80
1, 38733, Note_on_c, 0, 76, 0
1, 38733, Note_on_c, 1, 72, 0
1, 38736, Note_on_c, 0, 79, 80
1, 38756, Note_on_c, 0, 79, 0
1, 38784, Note_on_c, 0, 77, 96
1, 38784, Note_on_c, 1, 60, 80
1, 38808, Note_on_c, 0, 77, 0
1, 38808, Note_on_c, 0, 76, 80
1, 38829, Note_on_c, 1, 60, 0
1, 38831, Note_on_c, 0, 76, 0
1, 38832, Note_on_c, 0, 74, 80
1, 38832, Note_on_c, 1, 64, 80
1, 38855, Note_on_c, 0, 74, 0
1, 38856, Note_on_c, 0, 72, 80
1, 38877, Note_on_c, 1, 64, 0
1, 38879, Note_on_c, 0, 72, 0
1, 38880, Note_on_c, 0, 81, 80
1, 38880, Note_on_c, 1, 65, 80
1, 38900, Note_on_c, 0, 81, 0
1, 38925, Note_on_c, 1, 65, 0
1, 38928, Note_on_c, 1, 53, 80
1, 38973, Note_on_c, 1, 53, 0
1, 38976, Note_on_c, 0, 81, 96
1, 38976, Note_on_c, 1, 64, 80
1, 39000, Note_on_c, 0, 81, 0
1, 39000, Note_on_c, 0, 79, 80
1, 39021, Note_on_c, 1, 64, 0
1, 39023, Note_on_c, 0, 79, 0
1, 39024, Note_on_c, 0, 77, 80
1, 39024, Note_on_c, 1, 60, 80
1, 39047, Note_on_c, 0, 77, 0
1, 39048, Note_on_c, 0, 76, 80
1, 39069, Note_on_c, 1, 60, 0
1, 39071, Note_on_c, 0, 76, 0
1, 39072, Note_on_c, 0, 74, 80
1, 39072, Note_on_c, 1, 59, 80
1, 39092, Note_on_c, 0, 74, 0
1, 39117, Note_on_c, 1, 59, 0
1, 39120, Note_on_c, 1, 55, 80
1, 39165, Note_on_c, 1, 55, 0
1, 39168, Note_on_c, 0, 76, 80
1, 39168, Note_on_c, 1, 60, 80
1, 39191, Note_on_c, 0, 76, 0
1, 39192, Note_on_c, 0, 79, 80
1, 39213, Note_on_c, 1, 60, 0
1, 39215, Note_on_c, 0, 79, 0
1, 39216, Note_on_c, 0, 72, 80
1, 39216, Note_on_c, 1, 69, 80
1, 39239, Note_on_c, 0, 72, 0
1, 39240, Note_on_c, 0, 76, 80
1, 39261, Note_on_c, 1, 69, 0
1, 39263, Note_on_c, 0, 76, 0
1, 39264, Note_on_c, 0, 74, 80
1, 39264, Note_on_c, 1, 65, 80
1, 39287, Note_on_c, 0, 74, 0
1, 39288, Note_on_c, 0, 77, 80
1, 39309, Note_on_c, 1, 65, 0
1, 39311, Note_on_c, 0, 77, 0
1, 39312, Note_on_c, 0, 71, 80
1, 39312, Note_on_c, 1, 67, 80
1, 39335, Note_on_c, 0, 71, 0
1, 39336, Note_on_c, 0, 74, 80
1, 39357, Note_on_c, 1, 67, 0
1, 39359, Note_on_c, 0, 74, 0
1, 39360, Note_on_c, 0, 72, 80
1, 39360, Note_on_c, 1, 60, 80
1, 39380, Note_on_c, 1, 60, 0
1, 39408, Note_on_c, 1, 55, 80
1, 39428, Note_on_c, 1, 55, 0
1, 39449, Note_on_c, 0, 72, 0
1, 39456, Note_on_c, 1, 48, 80
1, 39476, Note_on_c, 1, 48, 0
1, 39504, Note_on_c, 0, 67, 64
1, 39524, Note_on_c, 0, 67, 0
1, 39552, Note_on_c, 0, 65, 80
1, 39576, Note_on_c, 0, 65, 0
1, 39576, Note_on_c, 0, 63, 64
1, 39599, Note_on_c, 0, 63, 0
1, 39600, Note_on_c, 0, 62, 64
1, 39623, Note_on_c, 0, 62, 0
1, 39624, Note_on_c, 0, 60, 64
1, 39647, Note_on_c, 0, 60, 0
1, 39648, Note_on_c, 0, 72, 64
1, 39668, Note_on_c, 0, 72, 0
1, 39696, Note_on_c, 0, 75, 64
1, 39716, Note_on_c, 0, 75, 0
1, 39744, Note_on_c, 0, 67, 64
1, 39792, Note_on_c, 1, 62, 64
1, 39792, Note_on_c, 1, 60, 64
1, 39812, Note_on_c, 1, 62, 0
1, 39812, Note_on_c, 1, 60, 0
1, 39840, Note_on_c, 0, 67, 0
1, 39840, Note_on_c, 0, 66, 64
1, 39840, Note_on_c, 1, 62, 64
1, 39840, Note_on_c, 1, 60, 64
1, 39860, Note_on_c, 1, 62, 0
1, 39860, Note_on_c, 1, 60, 0
1, 39885, Note_on_c, 0, 66, 0
1, 39888, Note_on_c, 0, 69, 64
1, 39908, Note_on_c, 0, 69, 0
1, 39936, Note_on_c, 0, 69, 65
1, 39984, Note_on_c, 1, 62, 66
1, 39984, Note_on_c, 1, 58, 66
1, 40004, Note_on_c, 1, 62, 0
1, 40004, Note_on_c, 1, 58, 0
1, 40032, Note_on_c, 0, 69, 0
1, 40032, Note_on_c, 0, 67, 67
1, 40032, Note_on_c, 1, 62, 67
1, 40032, Note_on_c, 1, 58, 67
1, 40052, Note_on_c, 1, 62, 0
1, 40052, Note_on_c, 1, 58, 0
1, 40077, Note_on_c, 0, 67, 0
1, 40080, Note_on_c, 0, 70, 68
1, 40100, Note_on_c, 0, 70, 0
1, 40128, Note_on_c, 0, 70, 70
1, 40176, Note_on_c, 1, 62, 71
1, 40176, Note_on_c, 1, 54, 71
1, 40196, Note_on_c, 1, 62, 0
1, 40196, Note_on_c, 1, 54, 0
1, 40224, Note_on_c, 0, 70, 0
1, 40224, Note_on_c, 0, 69, 72
1, 40224, Note_on_c, 1, 62, 72
1, 40224, Note_on_c, 1, 54, 72
1, 40244, Note_on_c, 1, 62, 0
1, 40244, Note_on_c, 1, 54, 0
1, 40269, Note_on_c, 0, 69, 0
1, 40272, Note_on_c, 0, 74, 73
1, 40272, Note_on_c, 1, 62, 74
1, 40272, Note_on_c, 1, 54, 74
1, 40292, Note_on_c, 0, 74, 0
1, 40292, Note_on_c, 1, 62, 0
1, 40292, Note_on_c, 1, 54, 0
1, 40320, Note_on_c, 0, 72, 91
1, 40320, Note_on_c, 1, 62, 75
1, 40320, Note_on_c, 1, 55, 75
1, 40344, Note_on_c, 0, 72, 0
1, 40344, Note_on_c, 0, 70, 75
1, 40367, Note_on_c, 0, 70, 0
1, 40368, Note_on_c, 0, 69, 76
1, 40391, Note_on_c, 0, 69, 0
1, 40392, Note_on_c, 0, 67, 76
1, 40409, Note_on_c, 1, 62, 0
1, 40409, Note_on_c, 1, 55, 0
1, 40415, Note_on_c, 0, 67, 0
1, 40416, Note_on_c, 0, 79, 77
1, 40436, Note_on_c, 0, 79, 0
1, 40464, Note_on_c, 0, 67, 78
1, 40464, Note_on_c, 1, 58, 79
1, 40484, Note_on_c, 0, 67, 0
1, 40487, Note_on_c, 1, 58, 0
1, 40488, Note_on_c, 1, 62, 80
1, 40511, Note_on_c, 1, 62, 0
1, 40512, Note_on_c, 0, 66, 80
1, 40512, Note_on_c, 1, 60, 80
1, 40535, Note_on_c, 1, 60, 0
1, 40536, Note_on_c, 1, 62, 80
1, 40559, Note_on_c, 1, 62, 0
1, 40560, Note_on_c, 0, 66, 0
1, 40560, Note_on_c, 0, 67, 80
1, 40560, Note_on_c, 1, 58, 80
1, 40583, Note_on_c, 1, 58, 0
1, 40584, Note_on_c, 1, 62, 80
1, 40605, Note_on_c, 0, 67, 0
1, 40607, Note_on_c, 1, 62, 0
1, 40608, Note_on_c, 0, 66, 80
1, 40608, Note_on_c, 1, 60, 80
1, 40631, Note_on_c, 1, 60, 0
1, 40632, Note_on_c, 1, 62, 80
1, 40655, Note_on_c, 1, 62, 0
1, 40656, Note_on_c, 0, 66, 0
1, 40656, Note_on_c, 0, 67, 80
1, 40656, Note_on_c, 1, 58, 80
1, 40679, Note_on_c, 1, 58, 0
1, 40680, Note_on_c, 1, 62, 80
1, 40701, Note_on_c, 0, 67, 0
1, 40703, Note_on_c, 1, 62, 0
1, 40704, Note_on_c, 0, 72, 80
1, 40704, Note_on_c, 1, 57, 80
1, 40728, Note_on_c, 0, 72, 0
1, 40728, Note_on_c, 0, 75, 80
1, 40749, Note_on_c, 1, 57, 0
1, 40751, Note_on_c, 0, 75, 0
1, 40752, Note_on_c, 0, 69, 80
1, 40752, Note_on_c, 1, 54, 80
1, 40776, Note_on_c, 0, 69, 0
1, 40776, Note_on_c, 0, 72, 80
1, 40797, Note_on_c, 1, 54, 0
1, 40799, Note_on_c, 0, 72, 0
1, 40800, Note_on_c, 0, 70, 80
1, 40800, Note_on_c, 1, 55, 80
1, 40820, Note_on_c, 0, 70, 0
1, 40845, Note_on_c, 1, 55, 0
1, 40848, Note_on_c, 0, 79, 80
1, 40848, Note_on_c, 1, 70, 80
1, 40868, Note_on_c, 0, 79, 0
1, 40871, Note_on_c, 1, 70, 0
1, 40872, Note_on_c, 1, 74, 80
1, 40895, Note_on_c, 1, 74, 0
1, 40896, Note_on_c, 0, 78, 80
1, 40896, Note_on_c, 1, 72, 80
1, 40919, Note_on_c, 1, 72, 0
1, 40920, Note_on_c, 1, 74, 80
1, 40943, Note_on_c, 1, 74, 0
1, 40944, Note_on_c, 0, 78, 0
1, 40944, Note_on_c, 0, 79, 80
1, 40944, Note_on_c, 1, 70, 80
1, 40967, Note_on_c, 1, 70, 0
1, 40968, Note_on_c, 1, 74, 80
1, 40989, Note_on_c, 0, 79, 0
1, 40991, Note_on_c, 1, 74, 0
1, 40992, Note_on_c, 0, 78, 80
1, 40992, Note_on_c, 1, 72, 80
1, 41015, Note_on_c, 1, 72, 0
1, 41016, Note_on_c, 1, 74, 80
1, 41039, Note_on_c, 1, 74, 0
1, 41040, Note_on_c, 0, 78, 0
1, 41040, Note_on_c, 0, 79, 80
1, 41040, Note_on_c, 1, 70, 80
1, 41063, Note_on_c, 1, 70, 0
1, 41064, Note_on_c, 1, 74, 80
1, 41085, Note_on_c, 0, 79, 0
1, 41087, Note_on_c, 1, 74, 0
1, 41088, Note_on_c, 0, 84, 80
1, 41088, Note_on_c, 1, 69, 80
1, 41112, Note_on_c, 0, 84, 0
1, 41112, Note_on_c, 0, 87, 80
1, 41133, Note_on_c, 1, 69, 0
1, 41135, Note_on_c, 0, 87, 0
1, 41136, Note_on_c, 0, 81, 80
1, 41136, Note_on_c, 1, 66, 80
1, 41160, Note_on_c, 0, 81, 0
1, 41160, Note_on_c, 0, 84, 80
1, 41181, Note_on_c, 1, 66, 0
1, 41183, Note_on_c, 0, 84, 0
1, 41184, Note_on_c, 0, 82, 80
1, 41184, Note_on_c, 1, 67, 80
1, 41229, Note_on_c, 0, 82, 0
1, 41229, Note_on_c, 1, 67, 0
1, 41232, Note_on_c, 0, 79, 75
1, 41255, Note_on_c, 0, 79, 0
1, 41256, Note_on_c, 0, 81, 75
1, 41279, Note_on_c, 0, 81, 0
1, 41280, Note_on_c, 0, 82, 75
1, 41280, Note_on_c, 1, 67, 75
1, 41303, Note_on_c, 0, 82, 0
1, 41304, Note_on_c, 0, 84, 75
1, 41327, Note_on_c, 0, 84, 0
1, 41328, Note_on_c, 0, 82, 75
1, 41351, Note_on_c, 0, 82, 0
1, 41352, Note_on_c, 0, 81, 75
1, 41375, Note_on_c, 0, 81, 0
1, 41376, Note_on_c, 0, 79, 75
1, 41399, Note_on_c, 0, 79, 0
1, 41400, Note_on_c, 0, 77, 75
1, 41423, Note_on_c, 0, 77, 0
1, 41424, Note_on_c, 0, 76, 75
1, 41424, Note_on_c, 1, 67, 0
1, 41424, Note_on_c, 1, 68, 75
1, 41447, Note_on_c, 0, 76, 0
1, 41448, Note_on_c, 0, 74, 75
1, 41469, Note_on_c, 1, 68, 0
1, 41471, Note_on_c, 0, 74, 0
1, 41472, Note_on_c, 0, 74, 75
1, 41472, Note_on_c, 1, 69, 75
1, 41517, Note_on_c, 1, 69, 0
1, 41520, Note_on_c, 1, 64, 73
1, 41540, Note_on_c, 1, 64, 0
1, 41568, Note_on_c, 0, 74, 0
1, 41568, Note_on_c, 0, 73, 71
1, 41568, Note_on_c, 1, 57, 71
1, 41588, Note_on_c, 1, 57, 0
1, 41613, Note_on_c, 0, 73, 0
1, 41616, Note_on_c, 0, 81, 80
1, 41636, Note_on_c, 0, 81, 0
1, 41664, Note_on_c, 0, 79, 96
1, 41664, Note_on_c, 1, 62, 80
1, 41688, Note_on_c, 0, 79, 0
1, 41688, Note_on_c, 0, 77, 80
1, 41709, Note_on_c, 1, 62, 0
1, 41711, Note_on_c, 0, 77, 0
1, 41712, Note_on_c, 0, 76, 80
1, 41712, Note_on_c, 1, 65, 80
1, 41735, Note_on_c, 0, 76, 0
1, 41736, Note_on_c, 0, 74, 80
1, 41757, Note_on_c, 1, 65, 0
1, 41759, Note_on_c, 0, 74, 0
1, 41760, Note_on_c, 0, 82, 80
1, 41760, Note_on_c, 1, 67, 80
1, 41780, Note_on_c, 0, 82, 0
1, 41805, Note_on_c, 1, 67, 0
1, 41808, Note_on_c, 1, 62, 80
1, 41853, Note_on_c, 1, 62, 0
1, 41856, Note_on_c, 0, 82, 96
1, 41856, Note_on_c, 1, 65, 80
1, 41880, Note_on_c, 0, 82, 0
1, 41880, Note_on_c, 0, 81, 80
1, 41901, Note_on_c, 1, 65, 0
1, 41903, Note_on_c, 0, 81, 0
1, 41904, Note_on_c, 0, 79, 80
1, 41904, Note_on_c, 1, 62, 80
1, 41927, Note_on_c, 0, 79, 0
1, 41928, Note_on_c, 0, 77, 80
1, 41949, Note_on_c, 1, 62, 0
1, 41951, Note_on_c, 0, 77, 0
1, 41952, Note_on_c, 0, 79, 80
1, 41952, Note_on_c, 1, 64, 80
1, 41972, Note_on_c, 0, 79, 0
1, 41997, Note_on_c, 1, 64, 0
1, 42000, Note_on_c, 1, 57, 80
1, 42045, Note_on_c, 1, 57, 0
1, 42048, Note_on_c, 0, 79, 91
1, 42048, Note_on_c, 1, 62, 75
1, 42072, Note_on_c, 0, 79, 0
1, 42072, Note_on_c, 0, 77, 75
1, 42093, Note_on_c, 1, 62, 0
1, 42095, Note_on_c, 0, 77, 0
1, 42096, Note_on_c, 0, 76, 75
1, 42096, Note_on_c, 1, 65, 75
1, 42119, Note_on_c, 0, 76, 0
1, 42120, Note_on_c, 0, 74, 75
1, 42141, Note_on_c, 1, 65, 0
1, 42143, Note_on_c, 0, 74, 0
1, 42144, Note_on_c, 0, 82, 75
1, 42144, Note_on_c, 1, 67, 75
1, 42164, Note_on_c, 0, 82, 0
1, 42189, Note_on_c, 1, 67, 0
1, 42192, Note_on_c, 1, 62, 75
1, 42237, Note_on_c, 1, 62, 0
1, 42240, Note_on_c, 0, 82, 91
1, 42240, Note_on_c, 1, 65, 75
1, 42264, Note_on_c, 0, 82, 0
1, 42264, Note_on_c, 0, 81, 75
1, 42285, Note_on_c, 1, 65, 0
1, 42287, Note_on_c, 0, 81, 0
1, 42288, Note_on_c, 0, 79, 75
1, 42288, Note_on_c, 1, 62, 75
1, 42311, Note_on_c, 0, 79, 0
1, 42312, Note_on_c, 0, 77, 75
1, 42333, Note_on_c, 1, 62, 0
1, 42335, Note_on_c, 0, 77, 0
1, 42336, Note_on_c, 0, 79, 75
1, 42336, Note_on_c, 1, 64, 75
1, 42356, Note_on_c, 0, 79, 0
1, 42381, Note_on_c, 1, 64, 0
1, 42384, Note_on_c, 1, 57, 75
1, 42429, Note_on_c, 1, 57, 0
1, 42432, Note_on_c, 0, 79, 80
1, 42432, Note_on_c, 1, 62, 64
1, 42456, Note_on_c, 0, 79, 0
1, 42456, Note_on_c, 0, 77, 64
1, 42477, Note_on_c, 1, 62, 0
1, 42479, Note_on_c, 0, 77, 0
1, 42480, Note_on_c, 0, 76, 64
1, 42480, Note_on_c, 1, 62, 64
1, 42503, Note_on_c, 0, 76, 0
1, 42504, Note_on_c, 0, 74, 64
1, 42504, Note_on_c, 1, 62, 0
1, 42504, Note_on_c, 1, 65, 64
1, 42527, Note_on_c, 0, 74, 0
1, 42527, Note_on_c, 1, 65, 0
1, 42528, Note_on_c, 0, 74, 64
1, 42528, Note_on_c, 1, 64, 64
1, 42552, Note_on_c, 1, 64, 0
1, 42552, Note_on_c, 1, 67, 64
1, 42573, Note_on_c, 0, 74, 0
1, 42575, Note_on_c, 1, 67, 0
1, 42576, Note_on_c, 0, 74, 64
1, 42576, Note_on_c, 1, 65, 64
1, 42596, Note_on_c, 0, 74, 0
1, 42600, Note_on_c, 1, 65, 0
1, 42600, Note_on_c, 1, 69, 64
1, 42623, Note_on_c, 1, 69, 0
1, 42624, Note_on_c, 0, 74, 64
1, 42624, Note_on_c, 1, 67, 64
1, 42669, Note_on_c, 0, 74, 0
1, 42672, Note_on_c, 0, 76, 64
1, 42695, Note_on_c, 0, 76, 0
1, 42696, Note_on_c, 0, 79, 64
1, 42713, Note_on_c, 1, 67, 0
1, 42719, Note_on_c, 0, 79, 0
1, 42720, Note_on_c, 0, 77, 64
1, 42720, Note_on_c, 1, 69, 64
1, 42743, Note_on_c, 0, 77, 0
1, 42744, Note_on_c, 0, 76, 64
1, 42767, Note_on_c, 0, 76, 0
1, 42768, Note_on_c, 0, 74, 64
1, 42791, Note_on_c, 0, 74, 0
1, 42792, Note_on_c, 0, 73, 64
1, 42809, Note_on_c, 1, 69, 0
1, 42815, Note_on_c, 0, 73, 0
1, 42816, Note_on_c, 0, 74, 64
1, 42816, Note_on_c, 1, 70, 64
1, 42836, Note_on_c, 0, 74, 0
1, 42861, Note_on_c, 1, 70, 0
1, 42864, Note_on_c, 0, 74, 65
1, 42864, Note_on_c, 1, 62, 65
1, 42884, Note_on_c, 0, 74, 0
1, 42888, Note_on_c, 1, 62, 0
1, 42888, Note_on_c, 1, 65, 66
1, 42911, Note_on_c, 1, 65, 0
1, 42912, Note_on_c, 0, 74, 67
1, 42912, Note_on_c, 1, 64, 67
1, 42932, Note_on_c, 0, 74, 0
1, 42936, Note_on_c, 1, 64, 0
1, 42936, Note_on_c, 1, 67, 68
1, 42959, Note_on_c, 1, 67, 0
1, 42960, Note_on_c, 0, 74, 68
1, 42960, Note_on_c, 1, 65, 69
1, 42980, Note_on_c, 0, 74, 0
1, 42984, Note_on_c, 1, 65, 0
1, 42984, Note_on_c, 1, 69, 70
1, 43007, Note_on_c, 1, 69, 0
1, 43008, Note_on_c, 0, 74, 70
1, 43008, Note_on_c, 1, 67, 71
1, 43053, Note_on_c, 0, 74, 0
1, 43056, Note_on_c, 0, 76, 72
1, 43079, Note_on_c, 0, 76, 0
1, 43080, Note_on_c, 0, 79, 72
1, 43097, Note_on_c, 1, 67, 0
1, 43103, Note_on_c, 0, 79, 0
1, 43104, Note_on_c, 0, 77, 73
1, 43104, Note_on_c, 1, 69, 74
1, 43127, Note_on_c, 0, 77, 0
1, 43128, Note_on_c, 0, 76, 74
1, 43151, Note_on_c, 0, 76, 0
1, 43152, Note_on_c, 0, 74, 75
1, 43175, Note_on_c, 0, 74, 0
1, 43176, Note_on_c, 0, 73, 76
1, 43193, Note_on_c, 1, 69, 0
1, 43199, Note_on_c, 0, 73, 0
1, 43200, Note_on_c, 0, 74, 76
1, 43200, Note_on_c, 1, 62, 78
1, 43245, Note_on_c, 1, 62, 0
1, 43248, Note_on_c, 1, 57, 80
1, 43268, Note_on_c, 1, 57, 0
1, 43289, Note_on_c, 0, 74, 0
1, 43296, Note_on_c, 1, 50, 80
1, 43341, Note_on_c, 1, 50, 0
1, 43344, Note_on_c, 0, 69, 80
1, 43356, Note_on_c, 0, 69, 0
1, 43356, Note_on_c, 0, 81, 80
1, 43389, Note_on_c, 0, 81, 0
1, 43392, Note_on_c, 0, 68, 79
1, 43398, Note_on_c, 0, 68, 0
1, 43398, Note_on_c, 0, 80, 79
1, 43437, Note_on_c, 0, 80, 0
1, 43440, Note_on_c, 1, 64, 78
1, 43440, Note_on_c, 1, 62, 78
1, 43460, Note_on_c, 1, 64, 0
1, 43460, Note_on_c, 1, 62, 0
1, 43488, Note_on_c, 1, 64, 78
1, 43488, Note_on_c, 1, 62, 78
1, 43512, Note_on_c, 0, 86, 77
1, 43535, Note_on_c, 0, 86, 0
1, 43536, Note_on_c, 0, 83, 77
1, 43559, Note_on_c, 0, 83, 0
1, 43560, Note_on_c, 0, 80, 76
1, 43577, Note_on_c, 1, 64, 0
1, 43577, Note_on_c, 1, 62, 0
1, 43583, Note_on_c, 0, 80, 0
1, 43584, Note_on_c, 0, 81, 76
1, 43632, Note_on_c, 1, 64, 76
1, 43632, Note_on_c, 1, 60, 76
1, 43652, Note_on_c, 1, 64, 0
1, 43652, Note_on_c, 1, 60, 0
1, 43673, Note_on_c, 0, 81, 0
1, 43680, Note_on_c, 1, 64, 75
1, 43680, Note_on_c, 1, 60, 75
1, 43728, Note_on_c, 0, 67, 74
1, 43740, Note_on_c, 0, 67, 0
1, 43740, Note_on_c, 0, 79, 74
1, 43769, Note_on_c, 1, 64, 0
1, 43769, Note_on_c, 1, 60, 0
1, 43773, Note_on_c, 0, 79, 0
1, 43776, Note_on_c, 0, 66, 73
1, 43788, Note_on_c, 0, 66, 0
1, 43788, Note_on_c, 0, 78, 73
1, 43821, Note_on_c, 0, 78, 0
1, 43824, Note_on_c, 1, 62, 73
1, 43824, Note_on_c, 1, 60, 73
1, 43844, Note_on_c, 1, 62, 0
1, 43844, Note_on_c, 1, 60, 0
1, 43872, Note_on_c, 1, 62, 72
1, 43872, Note_on_c, 1, 60, 72
1, 43896, Note_on_c, 0, 84, 72
1, 43919, Note_on_c, 0, 84, 0
1, 43920, Note_on_c, 0, 81, 71
1, 43943, Note_on_c, 0, 81, 0
1, 43944, Note_on_c, 0, 78, 71
1, 43961, Note_on_c, 1, 62, 0
1, 43961, Note_on_c, 1, 60, 0
1, 43967, Note_on_c, 0, 78, 0
1, 43968, Note_on_c, 0, 79, 71
1, 44016, Note_on_c, 1, 62, 71
1, 44016, Note_on_c, 1, 58, 71
1, 44036, Note_on_c, 1, 62, 0
1, 44036, Note_on_c, 1, 58, 0
1, 44057, Note_on_c, 0, 79, 0
1, 44064, Note_on_c, 1, 62, 70
1, 44064, Note_on_c, 1, 58, 70
1, 44112, Note_on_c, 0, 65, 69
1, 44124, Note_on_c, 0, 65, 0
1, 44124, Note_on_c, 0, 77, 69
1, 44153, Note_on_c, 1, 62, 0
1, 44153, Note_on_c, 1, 58, 0
1, 44157, Note_on_c, 0, 77, 0
1, 44160, Note_on_c, 0, 64, 68
1, 44172, Note_on_c, 0, 64, 0
1, 44172, Note_on_c, 0, 76, 68
1, 44205, Note_on_c, 0, 76, 0
1, 44208, Note_on_c, 1, 60, 68
1, 44208, Note_on_c, 1, 58, 68
1, 44228, Note_on_c, 1, 60, 0
1, 44228, Note_on_c, 1, 58, 0
1, 44256, Note_on_c, 1, 60, 67
1, 44256, Note_on_c, 1, 58, 67
1, 44280, Note_on_c, 0, 84, 66
1, 44303, Note_on_c, 0, 84, 0
1, 44304, Note_on_c, 0, 79, 66
1, 44327, Note_on_c, 0, 79, 0
1, 44328, Note_on_c, 0, 76, 66
1, 44345, Note_on_c, 1, 60, 0
1, 44345, Note_on_c, 1, 58, 0
1, 44351, Note_on_c, 0, 76, 0
1, 44352, Note_on_c, 0, 79, 65
1, 44400, Note_on_c, 1, 60, 65
1, 44400, Note_on_c, 1, 57, 65
1, 44420, Note_on_c, 1, 60, 0
1, 44420, Note_on_c, 1, 57, 0
1, 44448, Note_on_c, 0, 79, 0
1, 44448, Note_on_c, 0, 77, 64
1, 44448, Note_on_c, 1, 60, 65
1, 44448, Note_on_c, 1, 57, 65
1, 44471, Note_on_c, 0, 77, 0
1, 44472, Note_on_c, 0, 72, 64
1, 44495, Note_on_c, 0, 72, 0
1, 44496, Note_on_c, 0, 77, 67
1, 44519, Note_on_c, 0, 77, 0
1, 44520, Note_on_c, 0, 81, 70
1, 44537, Note_on_c, 1, 60, 0
1, 44537, Note_on_c, 1, 57, 0
1, 44543, Note_on_c, 0, 81, 0
1, 44544, Note_on_c, 0, 72, 73
1, 44564, Note_on_c, 0, 72, 0
1, 44592, Note_on_c, 0, 82, 96
1, 44592, Note_on_c, 0, 79, 96
1, 44592, Note_on_c, 1, 60, 80
1, 44592, Note_on_c, 1, 52, 80
1, 44612, Note_on_c, 1, 60, 0
1, 44612, Note_on_c, 1, 52, 0
1, 44640, Note_on_c, 1, 60, 76
1, 44640, Note_on_c, 1, 52, 76
1, 44660, Note_on_c, 1, 60, 0
1, 44660, Note_on_c, 1, 52, 0
1, 44688, Note_on_c, 0, 82, 0
1, 44688, Note_on_c, 0, 79, 0
1, 44688, Note_on_c, 0, 81, 73
1, 44688, Note_on_c, 0, 77, 73
1, 44688, Note_on_c, 1, 60, 73
1, 44688, Note_on_c, 1, 53, 73
1, 44708, Note_on_c, 1, 60, 0
1, 44708, Note_on_c, 1, 53, 0
1, 44733, Note_on_c, 0, 81, 0
1, 44733, Note_on_c, 0, 77, 0
1, 44736, Note_on_c, 0, 81, 70
1, 44736, Note_on_c, 0, 77, 70
1, 44736, Note_on_c, 1, 60, 70
1, 44781, Note_on_c, 1, 60, 0
1, 44784, Note_on_c, 0, 81, 0
1, 44784, Note_on_c, 0, 77, 0
1, 44784, Note_on_c, 0, 79, 67
1, 44784, Note_on_c, 0, 76, 67
1, 44784, Note_on_c, 1, 48, 67
1, 44829, Note_on_c, 0, 79, 0
1, 44829, Note_on_c, 0, 76, 0
1, 44829, Note_on_c, 1, 48, 0
1, 44880, Note_on_c, 0, 72, 80
1, 44900, Note_on_c, 0, 72, 0
1, 44928, Note_on_c, 0, 70, 96
1, 44928, Note_on_c, 1, 53, 80
1, 44952, Note_on_c, 0, 70, 0
1, 44952, Note_on_c, 0, 69, 80
1, 44973, Note_on_c, 1, 53, 0
1, 44975, Note_on_c, 0, 69, 0
1, 44976, Note_on_c, 0, 67, 80
1, 44976, Note_on_c, 1, 57, 80
1, 44999, Note_on_c, 0, 67, 0
1, 45000, Note_on_c, 0, 65, 80
1, 45021, Note_on_c, 1, 57, 0
1, 45023, Note_on_c, 0, 65, 0
1, 45024, Note_on_c, 0, 74, 80
1, 45024, Note_on_c, 1, 58, 80
1, 45044, Note_on_c, 0, 74, 0
1, 45069, Note_on_c, 1, 58, 0
1, 45072, Note_on_c, 1, 46, 80
1, 45117, Note_on_c, 1, 46, 0
1, 45120, Note_on_c, 0, 74, 96
1, 45120, Note_on_c, 1, 57, 80
1, 45144, Note_on_c, 0, 74, 0
1, 45144, Note_on_c, 0, 72, 80
1, 45165, Note_on_c, 1, 57, 0
1, 45167, Note_on_c, 0, 72, 0
1, 45168, Note_on_c, 0, 70, 80
1, 45168, Note_on_c, 1, 53, 80
1, 45191, Note_on_c, 0, 70, 0
1, 45192, Note_on_c, 0, 69, 80
1, 45213, Note_on_c, 1, 53, 0
1, 45215, Note_on_c, 0, 69, 0
1, 45216, Note_on_c, 0, 67, 80
1, 45216, Note_on_c, 1, 52, 80
1, 45236, Note_on_c, 0, 67, 0
1, 45261, Note_on_c, 1, 52, 0
1, 45264, Note_on_c, 1, 48, 80
1, 45309, Note_on_c, 1, 48, 0
1, 45312, Note_on_c, 0, 70, 96
1, 45312, Note_on_c, 1, 53, 80
1, 45336, Note_on_c, 0, 70, 0
1, 45336, Note_on_c, 0, 69, 80
1, 45359, Note_on_c, 0, 69, 0
1, 45360, Note_on_c, 0, 67, 80
1, 45383, Note_on_c, 0, 67, 0
1, 45384, Note_on_c, 0, 65, 80
1, 45401, Note_on_c, 1, 53, 0
1, 45407, Note_on_c, 0, 65, 0
1, 45408, Note_on_c, 0, 77, 80
1, 45428, Note_on_c, 0, 77, 0
1, 45456, Note_on_c, 0, 69, 80
1, 45456, Note_on_c, 1, 65, 80
1, 45480, Note_on_c, 0, 69, 0
1, 45480, Note_on_c, 0, 74, 80
1, 45501, Note_on_c, 1, 65, 0
1, 45503, Note_on_c, 0, 74, 0
1, 45504, Note_on_c, 0, 72, 80
1, 45504, Note_on_c, 1, 67, 80
1, 45516, Note_on_c, 0, 72, 0
1, 45516, Note_on_c, 0, 70, 80
1, 45528, Note_on_c, 0, 70, 0
1, 45528, Note_on_c, 0, 72, 80
1, 45540, Note_on_c, 0, 72, 0
1, 45540, Note_on_c, 0, 70, 80
1, 45549, Note_on_c, 1, 67, 0
1, 45552, Note_on_c, 0, 70, 0
1, 45552, Note_on_c, 0, 72, 80
1, 45552, Note_on_c, 1, 60, 80
1, 45564, Note_on_c, 0, 72, 0
1, 45564, Note_on_c, 0, 70, 80
1, 45576, Note_on_c, 0, 70, 0
1, 45576, Note_on_c, 0, 69, 80
1, 45588, Note_on_c, 0, 69, 0
1, 45588, Note_on_c, 0, 70, 80
1, 45597, Note_on_c, 1, 60, 0
1, 45600, Note_on_c, 0, 70, 0
1, 45600, Note_on_c, 0, 69, 80
1, 45600, Note_on_c, 1, 65, 80
1, 45645, Note_on_c, 0, 69, 0
1, 45645, Note_on_c, 1, 65, 0
1, 45648, Note_on_c, 0, 72, 70
1, 45668, Note_on_c, 0, 72, 0
1, 45696, Note_on_c, 0, 70, 86
1, 45696, Note_on_c, 1, 53, 70
1, 45720, Note_on_c, 0, 70, 0
1, 45720, Note_on_c, 0, 68, 70
1, 45741, Note_on_c, 1, 53, 0
1, 45743, Note_on_c, 0, 68, 0
1, 45744, Note_on_c, 0, 67, 70
1, 45744, Note_on_c, 1, 56, 70
1, 45767, Note_on_c, 0, 67, 0
1, 45768, Note_on_c, 0, 65, 70
1, 45789, Note_on_c, 1, 56, 0
1, 45791, Note_on_c, 0, 65, 0
1, 45792, Note_on_c, 0, 73, 70
1, 45792, Note_on_c, 1, 58, 70
1, 45812, Note_on_c, 0, 73, 0
1, 45837, Note_on_c, 1, 58, 0
1, 45840, Note_on_c, 1, 53, 70
1, 45885, Note_on_c, 1, 53, 0
1, 45888, Note_on_c, 0, 73, 86
1, 45888, Note_on_c, 1, 56, 70
1, 45912, Note_on_c, 0, 73, 0
1, 45912, Note_on_c, 0, 72, 70
1, 45933, Note_on_c, 1, 56, 0
1, 45935, Note_on_c, 0, 72, 0
1, 45936, Note_on_c, 0, 70, 70
1, 45936, Note_on_c, 1, 53, 70
1, 45959, Note_on_c, 0, 70, 0
1, 45960, Note_on_c, 0, 68, 70
1, 45981, Note_on_c, 1, 53, 0
1, 45983, Note_on_c, 0, 68, 0
1, 45984, Note_on_c, 0, 67, 70
1, 45984, Note_on_c, 1, 55, 70
1, 46004, Note_on_c, 0, 67, 0
1, 46029, Note_on_c, 1, 55, 0
1, 46032, Note_on_c, 1, 48, 70
1, 46077, Note_on_c, 1, 48, 0
1, 46080, Note_on_c, 0, 70, 86
1, 46080, Note_on_c, 1, 53, 70
1, 46104, Note_on_c, 0, 70, 0
1, 46104, Note_on_c, 0, 68, 70
1, 46125, Note_on_c, 1, 53, 0
1, 46127, Note_on_c, 0, 68, 0
1, 46128, Note_on_c, 0, 67, 70
1, 46128, Note_on_c, 1, 56, 70
1, 46151, Note_on_c, 0, 67, 0
1, 46152, Note_on_c, 0, 65, 70
1, 46173, Note_on_c, 1, 56, 0
1, 46175, Note_on_c, 0, 65, 0
1, 46176, Note_on_c, 0, 75, 86
1, 46176, Note_on_c, 1, 58, 70
1, 46200, Note_on_c, 0, 75, 0
1, 46200, Note_on_c, 0, 73, 70
1, 46221, Note_on_c, 1, 58, 0
1, 46223, Note_on_c, 0, 73, 0
1, 46224, Note_on_c, 0, 72, 70
1, 46224, Note_on_c, 1, 53, 70
1, 46247, Note_on_c, 0, 72, 0
1, 46248, Note_on_c, 0, 70, 70
1, 46269, Note_on_c, 1, 53, 0
1, 46271, Note_on_c, 0, 70, 0
1, 46272, Note_on_c, 0, 73, 86
1, 46272, Note_on_c, 1, 56, 70
1, 46296, Note_on_c, 0, 73, 0
1, 46296, Note_on_c, 0, 72, 70
1, 46317, Note_on_c, 1, 56, 0
1, 46319, Note_on_c, 0, 72, 0
1, 46320, Note_on_c, 0, 70, 70
1, 46320, Note_on_c, 1, 53, 70
1, 46343, Note_on_c, 0, 70, 0
1, 46344, Note_on_c, 0, 68, 70
1, 46365, Note_on_c, 1, 53, 0
1, 46367, Note_on_c, 0, 68, 0
1, 46368, Note_on_c, 0, 72, 86
1, 46368, Note_on_c, 1, 55, 70
1, 46392, Note_on_c, 0, 72, 0
1, 46392, Note_on_c, 0, 70, 70
1, 46413, Note_on_c, 1, 55, 0
1, 46415, Note_on_c, 0, 70, 0
1, 46416, Note_on_c, 0, 68, 70
1, 46416, Note_on_c, 1, 48, 70
1, 46439, Note_on_c, 0, 68, 0
1, 46440, Note_on_c, 0, 67, 70
1, 46461, Note_on_c, 1, 48, 0
1, 46463, Note_on_c, 0, 67, 0
1, 46464, Note_on_c, 0, 70, 86
1, 46464, Note_on_c, 1, 53, 70
1, 46488, Note_on_c, 0, 70, 0
1, 46488, Note_on_c, 0, 68, 70
1, 46509, Note_on_c, 1, 53, 0
1, 46511, Note_on_c, 0, 68, 0
1, 46512, Note_on_c, 0, 67, 70
1, 46512, Note_on_c, 1, 56, 70
1, 46535, Note_on_c, 0, 67, 0
1, 46536, Note_on_c, 0, 65, 71
1, 46557, Note_on_c, 1, 56, 0
1, 46559, Note_on_c, 0, 65, 0
1, 46560, Note_on_c, 0, 75, 87
1, 46560, Note_on_c, 1, 58, 71
1, 46584, Note_on_c, 0, 75, 0
1, 46584, Note_on_c, 0, 73, 72
1, 46605, Note_on_c, 1, 58, 0
1, 46607, Note_on_c, 0, 73, 0
1, 46608, Note_on_c, 0, 72, 72
1, 46608, Note_on_c, 1, 53, 72
1, 46631, Note_on_c, 0, 72, 0
1, 46632, Note_on_c, 0, 70, 72
1, 46653, Note_on_c, 1, 53, 0
1, 46655, Note_on_c, 0, 70, 0
1, 46656, Note_on_c, 0, 73, 89
1, 46656, Note_on_c, 1, 56, 73
1, 46680, Note_on_c, 0, 73, 0
1, 46680, Note_on_c, 0, 72, 73
1, 46701, Note_on_c, 1, 56, 0
1, 46703, Note_on_c, 0, 72, 0
1, 46704, Note_on_c, 0, 70, 74
1, 46704, Note_on_c, 1, 53, 74
1, 46727, Note_on_c, 0, 70, 0
1, 46728, Note_on_c, 0, 68, 74
1, 46749, Note_on_c, 1, 53, 0
1, 46751, Note_on_c, 0, 68, 0
1, 46752, Note_on_c, 0, 72, 91
1, 46752, Note_on_c, 1, 55, 75
1, 46776, Note_on_c, 0, 72, 0
1, 46776, Note_on_c, 0, 70, 75
1, 46797, Note_on_c, 1, 55, 0
1, 46799, Note_on_c, 0, 70, 0
1, 46800, Note_on_c, 0, 68, 75
1, 46800, Note_on_c, 1, 48, 75
1, 46823, Note_on_c, 0, 68, 0
1, 46824, Note_on_c, 0, 67, 76
1, 46845, Note_on_c, 1, 48, 0
1, 46847, Note_on_c, 0, 67, 0
1, 46848, Note_on_c, 0, 70, 92
1, 46848, Note_on_c, 1, 53, 76
1, 46872, Note_on_c, 0, 70, 0
1, 46872, Note_on_c, 0, 68, 77
1, 46895, Note_on_c, 0, 68, 0
1, 46896, Note_on_c, 0, 67, 77
1, 46919, Note_on_c, 0, 67, 0
1, 46920, Note_on_c, 0, 65, 77
1, 46937, Note_on_c, 1, 53, 0
1, 46943, Note_on_c, 0, 65, 0
1, 46944, Note_on_c, 0, 77, 78
1, 46964, Note_on_c, 0, 77, 0
1, 46992, Note_on_c, 0, 71, 79
1, 46992, Note_on_c, 0, 65, 79
1, 46992, Note_on_c, 1, 49, 79
1, 46992, Note_on_c, 1, 37, 79
1, 47012, Note_on_c, 0, 71, 0
1, 47012, Note_on_c, 0, 65, 0
1, 47012, Note_on_c, 1, 49, 0
1, 47012, Note_on_c, 1, 37, 0
1, 47040, Note_on_c, 0, 72, 80
1, 47040, Note_on_c, 0, 64, 80
1, 47040, Note_on_c, 1, 48, 80
1, 47040, Note_on_c, 1, 36, 80
1, 47129, Note_on_c, 0, 72, 0
1, 47129, Note_on_c, 0, 64, 0
1, 47129, Note_on_c, 1, 48, 0
1, 47129, Note_on_c, 1, 36, 0
1, 47184, Note_on_c, 0, 60, 75
1, 47229, Note_on_c, 0, 60, 0
1, 47232, Note_on_c, 0, 60, 75
1, 47280, Note_on_c, 1, 57, 75
1, 47325, Note_on_c, 1, 57, 0
1, 47328, Note_on_c, 1, 55, 75
1, 47365, Note_on_c, 0, 60, 0
1, 47373, Note_on_c, 1, 55, 0
1, 47376, Note_on_c, 0, 69, 75
1, 47376, Note_on_c, 1, 53, 75
1, 47399, Note_on_c, 0, 69, 0
1, 47400, Note_on_c, 0, 65, 75
1, 47421, Note_on_c, 1, 53, 0
1, 47423, Note_on_c, 0, 65, 0
1, 47424, Note_on_c, 0, 60, 75
1, 47472, Note_on_c, 1, 52, 75
1, 47517, Note_on_c, 1, 52, 0
1, 47520, Note_on_c, 1, 50, 75
1, 47557, Note_on_c, 0, 60, 0
1, 47565, Note_on_c, 1, 50, 0
1, 47568, Note_on_c, 0, 70, 75
1, 47568, Note_on_c, 1, 48, 75
1, 47591, Note_on_c, 0, 70, 0
1, 47592, Note_on_c, 0, 67, 75
1, 47613, Note_on_c, 1, 48, 0
1, 47615, Note_on_c, 0, 67, 0
1, 47616, Note_on_c, 0, 69, 75
1, 47616, Note_on_c, 1, 53, 75
1, 47639, Note_on_c, 0, 69, 0
1, 47640, Note_on_c, 0, 65, 75
1, 47661, Note_on_c, 1, 53, 0
1, 47663, Note_on_c, 0, 65, 0
1, 47664, Note_on_c, 0, 70, 75
1, 47664, Note_on_c, 1, 55, 75
1, 47687, Note_on_c, 0, 70, 0
1, 47688, Note_on_c, 0, 65, 75
1, 47709, Note_on_c, 1, 55, 0
1, 47711, Note_on_c, 0, 65, 0
1, 47712, Note_on_c, 0, 72, 75
1, 47712, Note_on_c, 1, 57, 75
1, 47732, Note_on_c, 0, 72, 0
1, 47732, Note_on_c, 1, 57, 0
1, 47760, Note_on_c, 0, 60, 64
1, 47780, Note_on_c, 0, 60, 0
1, 47808, Note_on_c, 0, 60, 64
1, 47856, Note_on_c, 1, 57, 64
1, 47901, Note_on_c, 1, 57, 0
1, 47904, Note_on_c, 1, 55, 64
1, 47927, Note_on_c, 0, 60, 0
1, 47928, Note_on_c, 0, 64, 64
1, 47949, Note_on_c, 1, 55, 0
1, 47951, Note_on_c, 0, 64, 0
1, 47952, Note_on_c, 0, 65, 64
1, 47952, Note_on_c, 1, 53, 64
1, 47975, Note_on_c, 0, 65, 0
1, 47976, Note_on_c, 0, 69, 64
1, 47997, Note_on_c, 1, 53, 0
1, 47999, Note_on_c, 0, 69, 0
1, 48000, Note_on_c, 0, 60, 64
1, 48048, Note_on_c, 1, 52, 64
1, 48093, Note_on_c, 1, 52, 0
1, 48096, Note_on_c, 1, 50, 64
1, 48119, Note_on_c, 0, 60, 0
1, 48120, Note_on_c, 0, 64, 64
1, 48141, Note_on_c, 1, 50, 0
1, 48143, Note_on_c, 0, 64, 0
1, 48144, Note_on_c, 0, 67, 64
1, 48144, Note_on_c, 1, 48, 64
1, 48167, Note_on_c, 0, 67, 0
1, 48168, Note_on_c, 0, 70, 64
1, 48189, Note_on_c, 1, 48, 0
1, 48191, Note_on_c, 0, 70, 0
1, 48192, Note_on_c, 0, 69, 64
1, 48192, Note_on_c, 1, 53, 64
1, 48215, Note_on_c, 0, 69, 0
1, 48216, Note_on_c, 0, 65, 64
1, 48237, Note_on_c, 1, 53, 0
1, 48239, Note_on_c, 0, 65, 0
1, 48240, Note_on_c, 0, 70, 64
1, 48240, Note_on_c, 1, 55, 64
1, 48263, Note_on_c, 0, 70, 0
1, 48264, Note_on_c, 0, 65, 64
1, 48285, Note_on_c, 1, 55, 0
1, 48287, Note_on_c, 0, 65, 0
1, 48288, Note_on_c, 0, 72, 64
1, 48288, Note_on_c, 1, 57, 64
1, 48308, Note_on_c, 0, 72, 0
1, 48333, Note_on_c, 1, 57, 0
1, 48336, Note_on_c, 0, 77, 80
1, 48381, Note_on_c, 0, 77, 0
1, 48384, Note_on_c, 0, 76, 80
1, 48432, Note_on_c, 1, 65, 80
1, 48432, Note_on_c, 1, 58, 80
1, 48452, Note_on_c, 1, 65, 0
1, 48452, Note_on_c, 1, 58, 0
1, 48480, Note_on_c, 0, 76, 0
1, 48480, Note_on_c, 0, 74, 80
1, 48480, Note_on_c, 1, 65, 80
1, 48480, Note_on_c, 1, 58, 80
1, 48500, Note_on_c, 1, 65, 0
1, 48500, Note_on_c, 1, 58, 0
1, 48525, Note_on_c, 0, 74, 0
1, 48528, Note_on_c, 0, 77, 80
1, 48548, Note_on_c, 0, 77, 0
1, 48576, Note_on_c, 0, 74, 80
1, 48624, Note_on_c, 1, 65, 80
1, 48624, Note_on_c, 1, 57, 80
1, 48644, Note_on_c, 1, 65, 0
1, 48644, Note_on_c, 1, 57, 0
1, 48672, Note_on_c, 0, 74, 0
1, 48672, Note_on_c, 0, 72, 80
1, 48672, Note_on_c, 1, 65, 80
1, 48672, Note_on_c, 1, 57, 80
1, 48692, Note_on_c, 1, 65, 0
1, 48692, Note_on_c, 1, 57, 0
1, 48695, Note_on_c, 0, 72, 0
1, 48696, Note_on_c, 0, 77, 80
1, 48719, Note_on_c, 0, 77, 0
1, 48720, Note_on_c, 0, 81, 80
1, 48743, Note_on_c, 0, 81, 0
1, 48744, Note_on_c, 0, 84, 80
1, 48767, Note_on_c, 0, 84, 0
1, 48768, Note_on_c, 0, 72, 80
1, 48816, Note_on_c, 1, 57, 80
1, 48816, Note_on_c, 1, 48, 80
1, 48836, Note_on_c, 1, 57, 0
1, 48836, Note_on_c, 1, 48, 0
1, 48864, Note_on_c, 0, 72, 0
1, 48864, Note_on_c, 0, 70, 80
1, 48864, Note_on_c, 1, 55, 80
1, 48864, Note_on_c, 1, 48, 80
1, 48884, Note_on_c, 1, 55, 0
1, 48884, Note_on_c, 1, 48, 0
1, 48909, Note_on_c, 0, 70, 0
1, 48912, Note_on_c, 0, 69, 80
1, 48912, Note_on_c, 1, 53, 80
1, 48912, Note_on_c, 1, 48, 80
1, 48932, Note_on_c, 0, 69, 0
1, 48932, Note_on_c, 1, 53, 0
1, 48932, Note_on_c, 1, 48, 0
1, 48960, Note_on_c, 0, 69, 80
1, 48960, Note_on_c, 1, 53, 80
1, 48960, Note_on_c, 1, 48, 64
1, 48972, Note_on_c, 0, 69, 0
1, 48972, Note_on_c, 0, 70, 80
1, 48984, Note_on_c, 0, 70, 0
1, 48984, Note_on_c, 0, 69, 80
1, 49008, Note_on_c, 0, 69, 0
1, 49008, Note_on_c, 0, 67, 80
1, 49008, Note_on_c, 1, 53, 0
1, 49008, Note_on_c, 1, 52, 80
1, 49049, Note_on_c, 1, 48, 0
1, 49053, Note_on_c, 0, 67, 0
1, 49053, Note_on_c, 1, 52, 0
1, 49104, Note_on_c, 0, 72, 75
1, 49124, Note_on_c, 0, 72, 0
1, 49152, Note_on_c, 0, 70, 91
1, 49176, Note_on_c, 0, 70, 0
1, 49176, Note_on_c, 0, 69, 75
1, 49199, Note_on_c, 0, 69, 0
1, 49200, Note_on_c, 0, 67, 75
1, 49223, Note_on_c, 0, 67, 0
1, 49224, Note_on_c, 0, 65, 75
1, 49247, Note_on_c, 0, 65, 0
1, 49248, Note_on_c, 0, 77, 75
1, 49268, Note_on_c, 0, 77, 0
1, 49296, Note_on_c, 0, 65, 75
1, 49296, Note_on_c, 1, 57, 75
1, 49316, Note_on_c, 0, 65, 0
1, 49319, Note_on_c, 1, 57, 0
1, 49320, Note_on_c, 1, 60, 75
1, 49343, Note_on_c, 1, 60, 0
1, 49344, Note_on_c, 0, 64, 75
1, 49344, Note_on_c, 1, 58, 75
1, 49367, Note_on_c, 1, 58, 0
1, 49368, Note_on_c, 1, 60, 75
1, 49391, Note_on_c, 1, 60, 0
1, 49392, Note_on_c, 0, 64, 0
1, 49392, Note_on_c, 0, 65, 75
1, 49392, Note_on_c, 1, 57, 75
1, 49415, Note_on_c, 1, 57, 0
1, 49416, Note_on_c, 1, 60, 75
1, 49437, Note_on_c, 0, 65, 0
1, 49439, Note_on_c, 1, 60, 0
1, 49440, Note_on_c, 0, 64, 75
1, 49440, Note_on_c, 1, 58, 75
1, 49463, Note_on_c, 1, 58, 0
1, 49464, Note_on_c, 1, 60, 75
1, 49487, Note_on_c, 1, 60, 0
1, 49488, Note_on_c, 0, 64, 0
1, 49488, Note_on_c, 0, 65, 75
1, 49488, Note_on_c, 1, 57, 75
1, 49511, Note_on_c, 1, 57, 0
1, 49512, Note_on_c, 1, 60, 75
1, 49533, Note_on_c, 0, 65, 0
1, 49535, Note_on_c, 1, 60, 0
1, 49536, Note_on_c, 0, 70, 75
1, 49536, Note_on_c, 1, 55, 75
1, 49559, Note_on_c, 0, 70, 0
1, 49560, Note_on_c, 0, 74, 75
1, 49581, Note_on_c, 1, 55, 0
1, 49583, Note_on_c, 0, 74, 0
1, 49584, Note_on_c, 0, 67, 75
1, 49584, Note_on_c, 1, 64, 75
1, 49607, Note_on_c, 0, 67, 0
1, 49608, Note_on_c, 0, 70, 75
1, 49629, Note_on_c, 1, 64, 0
1, 49631, Note_on_c, 0, 70, 0
1, 49632, Note_on_c, 0, 69, 75
1, 49632, Note_on_c, 1, 65, 75
1, 49652, Note_on_c, 0, 69, 0
1, 49652, Note_on_c, 1, 65, 0
1, 49680, Note_on_c, 0, 72, 64
1, 49700, Note_on_c, 0, 72, 0
1, 49728, Note_on_c, 0, 70, 80
1, 49752, Note_on_c, 0, 70, 0
1, 49752, Note_on_c, 0, 69, 64
1, 49775, Note_on_c, 0, 69, 0
1, 49776, Note_on_c, 0, 67, 64
1, 49799, Note_on_c, 0, 67, 0
1, 49800, Note_on_c, 0, 65, 64
1, 49823, Note_on_c, 0, 65, 0
1, 49824, Note_on_c, 0, 77, 64
1, 49844, Note_on_c, 0, 77, 0
1, 49872, Note_on_c, 0, 65, 64
1, 49872, Note_on_c, 1, 57, 64
1, 49892, Note_on_c, 0, 65, 0
1, 49895, Note_on_c, 1, 57, 0
1, 49896, Note_on_c, 1, 60, 64
1, 49919, Note_on_c, 1, 60, 0
1, 49920, Note_on_c, 0, 64, 64
1, 49920, Note_on_c, 1, 58, 64
1, 49943, Note_on_c, 1, 58, 0
1, 49944, Note_on_c, 1, 60, 64
1, 49967, Note_on_c, 1, 60, 0
1, 49968, Note_on_c, 0, 64, 0
1, 49968, Note_on_c, 0, 65, 64
1, 49968, Note_on_c, 1, 57, 64
1, 49991, Note_on_c, 1, 57, 0
1, 49992, Note_on_c, 1, 60, 64
1, 50013, Note_on_c, 0, 65, 0
1, 50015, Note_on_c, 1, 60, 0
1, 50016, Note_on_c, 0, 64, 64
1, 50016, Note_on_c, 1, 58, 64
1, 50039, Note_on_c, 1, 58, 0
1, 50040, Note_on_c, 1, 60, 64
1, 50063, Note_on_c, 1, 60, 0
1, 50064, Note_on_c, 0, 64, 0
1, 50064, Note_on_c, 0, 65, 64
1, 50064, Note_on_c, 1, 57, 64
1, 50087, Note_on_c, 1, 57, 0
1, 50088, Note_on_c, 1, 60, 64
1, 50109, Note_on_c, 0, 65, 0
1, 50111, Note_on_c, 1, 60, 0
1, 50112, Note_on_c, 0, 70, 64
1, 50112, Note_on_c, 1, 55, 64
1, 50135, Note_on_c, 0, 70, 0
1, 50136, Note_on_c, 0, 74, 64
1, 50157, Note_on_c, 1, 55, 0
1, 50159, Note_on_c, 0, 74, 0
1, 50160, Note_on_c, 0, 67, 64
1, 50160, Note_on_c, 1, 52, 64
1, 50183, Note_on_c, 0, 67, 0
1, 50184, Note_on_c, 0, 70, 64
1, 50205, Note_on_c, 1, 52, 0
1, 50207, Note_on_c, 0, 70, 0
1, 50208, Note_on_c, 0, 69, 64
1, 50208, Note_on_c, 1, 53, 64
1, 50231, Note_on_c, 0, 69, 0
1, 50232, Note_on_c, 0, 72, 64
1, 50253, Note_on_c, 1, 53, 0
1, 50255, Note_on_c, 0, 72, 0
1, 50256, Note_on_c, 0, 65, 64
1, 50256, Note_on_c, 1, 57, 64
1, 50279, Note_on_c, 0, 65, 0
1, 50280, Note_on_c, 0, 69, 64
1, 50301, Note_on_c, 1, 57, 0
1, 50303, Note_on_c, 0, 69, 0
1, 50304, Note_on_c, 0, 67, 64
1, 50304, Note_on_c, 1, 58, 64
1, 50327, Note_on_c, 0, 67, 0
1, 50328, Note_on_c, 0, 70, 64
1, 50349, Note_on_c, 1, 58, 0
1, 50351, Note_on_c, 0, 70, 0
1, 50352, Note_on_c, 0, 64, 64
1, 50352, Note_on_c, 1, 55, 64
1, 50375, Note_on_c, 0, 64, 0
1, 50376, Note_on_c, 0, 67, 64
1, 50397, Note_on_c, 1, 55, 0
1, 50399, Note_on_c, 0, 67, 0
1, 50400, Note_on_c, 0, 65, 64
1, 50400, Note_on_c, 1, 57, 64
1, 50423, Note_on_c, 0, 65, 0
1, 50424, Note_on_c, 0, 69, 64
1, 50445, Note_on_c, 1, 57, 0
1, 50447, Note_on_c, 0, 69, 0
1, 50448, Note_on_c, 0, 72, 64
1, 50448, Note_on_c, 1, 53, 64
1, 50471, Note_on_c, 0, 72, 0
1, 50472, Note_on_c, 0, 69, 64
1, 50493, Note_on_c, 1, 53, 0
1, 50495, Note_on_c, 0, 69, 0
1, 50496, Note_on_c, 0, 70, 64
1, 50496, Note_on_c, 1, 55, 64
1, 50519, Note_on_c, 0, 70, 0
1, 50520, Note_on_c, 0, 74, 64
1, 50541, Note_on_c, 1, 55, 0
1, 50543, Note_on_c, 0, 74, 0
1, 50544, Note_on_c, 0, 67, 65
1, 50544, Note_on_c, 1, 52, 65
1, 50567, Note_on_c, 0, 67, 0
1, 50568, Note_on_c, 0, 70, 65
1, 50589, Note_on_c, 1, 52, 0
1, 50591, Note_on_c, 0, 70, 0
1, 50592, Note_on_c, 0, 69, 66
1, 50592, Note_on_c, 1, 53, 66
1, 50615, Note_on_c, 0, 69, 0
1, 50616, Note_on_c, 0, 72, 66
1, 50637, Note_on_c, 1, 53, 0
1, 50639, Note_on_c, 0, 72, 0
1, 50640, Note_on_c, 0, 65, 67
1, 50640, Note_on_c, 1, 57, 67
1, 50663, Note_on_c, 0, 65, 0
1, 50664, Note_on_c, 0, 69, 67
1, 50685, Note_on_c, 1, 57, 0
1, 50687, Note_on_c, 0, 69, 0
1, 50688, Note_on_c, 0, 67, 68
1, 50688, Note_on_c, 1, 58, 68
1, 50711, Note_on_c, 0, 67, 0
1, 50712, Note_on_c, 0, 70, 68
1, 50733, Note_on_c, 1, 58, 0
1, 50735, Note_on_c, 0, 70, 0
1, 50736, Note_on_c, 0, 64, 69
1, 50736, Note_on_c, 1, 60, 70
1, 50759, Note_on_c, 0, 64, 0
1, 50760, Note_on_c, 0, 67, 70
1, 50781, Note_on_c, 1, 60, 0
1, 50783, Note_on_c, 0, 67, 0
1, 50784, Note_on_c, 0, 65, 70
1, 50784, Note_on_c, 1, 53, 71
1, 50807, Note_on_c, 0, 65, 0
1, 50808, Note_on_c, 0, 69, 71
1, 50829, Note_on_c, 1, 53, 0
1, 50831, Note_on_c, 0, 69, 0
1, 50832, Note_on_c, 0, 72, 71
1, 50855, Note_on_c, 0, 72, 0
1, 50856, Note_on_c, 0, 77, 72
1, 50879, Note_on_c, 0, 77, 0
1, 50880, Note_on_c, 0, 72, 88
1, 50928, Note_on_c, 1, 53, 75
1, 50928, Note_on_c, 1, 49, 75
1, 50948, Note_on_c, 1, 53, 0
1, 50948, Note_on_c, 1, 49, 0
1, 50976, Note_on_c, 0, 72, 0
1, 50976, Note_on_c, 0, 71, 75
1, 50976, Note_on_c, 1, 53, 75
1, 50976, Note_on_c, 1, 49, 75
1, 50996, Note_on_c, 1, 53, 0
1, 50996, Note_on_c, 1, 49, 0
1, 50999, Note_on_c, 0, 71, 0
1, 51000, Note_on_c, 0, 65, 75
1, 51023, Note_on_c, 0, 65, 0
1, 51024, Note_on_c, 0, 71, 75
1, 51047, Note_on_c, 0, 71, 0
1, 51048, Note_on_c, 0, 77, 75
1, 51071, Note_on_c, 0, 77, 0
1, 51072, Note_on_c, 0, 72, 91
1, 51120, Note_on_c, 1, 53, 76
1, 51120, Note_on_c, 1, 49, 76
1, 51140, Note_on_c, 1, 53, 0
1, 51140, Note_on_c, 1, 49, 0
1, 51168, Note_on_c, 0, 72, 0
1, 51168, Note_on_c, 0, 71, 76
1, 51168, Note_on_c, 1, 53, 77
1, 51168, Note_on_c, 1, 49, 77
1, 51188, Note_on_c, 1, 53, 0
1, 51188, Note_on_c, 1, 49, 0
1, 51191, Note_on_c, 0, 71, 0
1, 51192, Note_on_c, 0, 65, 77
1, 51215, Note_on_c, 0, 65, 0
1, 51216, Note_on_c, 0, 71, 77
1, 51239, Note_on_c, 0, 71, 0
1, 51240, Note_on_c, 0, 77, 77
1, 51263, Note_on_c, 0, 77, 0
1, 51264, Note_on_c, 0, 72, 94
1, 51312, Note_on_c, 1, 53, 80
1, 51312, Note_on_c, 1, 49, 80
1, 51332, Note_on_c, 1, 53, 0
1, 51332, Note_on_c, 1, 49, 0
1, 51360, Note_on_c, 0, 72, 0
1, 51360, Note_on_c, 0, 71, 80
1, 51360, Note_on_c, 1, 53, 80
1, 51360, Note_on_c, 1, 49, 80
1, 51380, Note_on_c, 1, 53, 0
1, 51380, Note_on_c, 1, 49, 0
1, 51383, Note_on_c, 0, 71, 0
1, 51384, Note_on_c, 0, 80, 80
1, 51407, Note_on_c, 0, 80, 0
1, 51408, Note_on_c, 0, 79, 80
1, 51431, Note_on_c, 0, 79, 0
1, 51432, Note_on_c, 0, 77, 80
1, 51455, Note_on_c, 0, 77, 0
1, 51456, Note_on_c, 0, 77, 96
1, 51504, Note_on_c, 1, 55, 80
1, 51504, Note_on_c, 1, 48, 80
1, 51524, Note_on_c, 1, 55, 0
1, 51524, Note_on_c, 1, 48, 0
1, 51552, Note_on_c, 0, 77, 0
1, 51552, Note_on_c, 0, 76, 80
1, 51552, Note_on_c, 1, 55, 80
1, 51552, Note_on_c, 1, 48, 80
1, 51572, Note_on_c, 1, 55, 0
1, 51572, Note_on_c, 1, 48, 0
1, 51575, Note_on_c, 0, 76, 0
1, 51576, Note_on_c, 0, 79, 80
1, 51599, Note_on_c, 0, 79, 0
1, 51600, Note_on_c, 0, 76, 80
1, 51623, Note_on_c, 0, 76, 0
1, 51624, Note_on_c, 0, 74, 80
1, 51647, Note_on_c, 0, 74, 0
1, 51648, Note_on_c, 0, 74, 96
1, 51696, Note_on_c, 1, 55, 80
1, 51696, Note_on_c, 1, 52, 80
1, 51716, Note_on_c, 1, 55, 0
1, 51716, Note_on_c, 1, 52, 0
1, 51744, Note_on_c, 0, 74, 0
1, 51744, Note_on_c, 0, 72, 80
1, 51744, Note_on_c, 1, 55, 80
1, 51744, Note_on_c, 1, 52, 80
1, 51764, Note_on_c, 1, 55, 0
1, 51764, Note_on_c, 1, 52, 0
1, 51767, Note_on_c, 0, 72, 0
1, 51768, Note_on_c, 0, 79, 80
1, 51791, Note_on_c, 0, 79, 0
1, 51792, Note_on_c, 0, 72, 79
1, 51815, Note_on_c, 0, 72, 0
1, 51816, Note_on_c, 0, 70, 78
1, 51839, Note_on_c, 0, 70, 0
1, 51840, Note_on_c, 0, 70, 93
1, 51888, Note_on_c, 1, 60, 75
1, 51888, Note_on_c, 1, 53, 75
1, 51908, Note_on_c, 1, 60, 0
1, 51908, Note_on_c, 1, 53, 0
1, 51936, Note_on_c, 0, 70, 0
1, 51936, Note_on_c, 0, 69, 75
1, 51936, Note_on_c, 1, 60, 75
1, 51936, Note_on_c, 1, 53, 75
1, 51956, Note_on_c, 1, 60, 0
1, 51956, Note_on_c, 1, 53, 0
1, 51959, Note_on_c, 0, 69, 0
1, 51960, Note_on_c, 0, 72, 75
1, 51983, Note_on_c, 0, 72, 0
1, 51984, Note_on_c, 0, 69, 73
1, 52007, Note_on_c, 0, 69, 0
1, 52008, Note_on_c, 0, 65, 71
1, 52031, Note_on_c, 0, 65, 0
1, 52032, Note_on_c, 0, 74, 70
1, 52032, Note_on_c, 1, 53, 75
1, 52032, Note_on_c, 1, 46, 75
1, 52077, Note_on_c, 0, 74, 0
1, 52077, Note_on_c, 1, 53, 0
1, 52077, Note_on_c, 1, 46, 0
1, 52080, Note_on_c, 0, 62, 71
1, 52092, Note_on_c, 0, 62, 0
1, 52092, Note_on_c, 0, 74, 71
1, 52125, Note_on_c, 0, 74, 0
1, 52128, Note_on_c, 0, 62, 73
1, 52140, Note_on_c, 0, 62, 0
1, 52140, Note_on_c, 0, 74, 73
1, 52173, Note_on_c, 0, 74, 0
1, 52176, Note_on_c, 0, 62, 75
1, 52188, Note_on_c, 0, 62, 0
1, 52188, Note_on_c, 0, 74, 75
1, 52221, Note_on_c, 0, 74, 0
1, 52224, Note_on_c, 0, 62, 73
1, 52236, Note_on_c, 0, 62, 0
1, 52236, Note_on_c, 0, 74, 73
1, 52313, Note_on_c, 0, 74, 0
1, 52416, Note_on_c, 1, 46, 80
1, 52416, Note_on_c, 1, 34, 80
1, 52464, Note_on_c, 0, 62, 80
1, 52488, Note_on_c, 0, 62, 0
1, 52488, Note_on_c, 0, 67, 80
1, 52505, Note_on_c, 1, 46, 0
1, 52505, Note_on_c, 1, 34, 0
1, 52511, Note_on_c, 0, 67, 0
1, 52512, Note_on_c, 0, 67, 80
1, 52536, Note_on_c, 0, 67, 0
1, 52536, Note_on_c, 0, 70, 80
1, 52559, Note_on_c, 0, 70, 0
1, 52560, Note_on_c, 0, 70, 80
1, 52584, Note_on_c, 0, 70, 0
1, 52584, Note_on_c, 0, 74, 80
1, 52607, Note_on_c, 0, 74, 0
1, 52608, Note_on_c, 0, 74, 80
1, 52632, Note_on_c, 0, 74, 0
1, 52632, Note_on_c, 0, 79, 80
1, 52655, Note_on_c, 0, 79, 0
1, 52656, Note_on_c, 0, 79, 80
1, 52680, Note_on_c, 0, 79, 0
1, 52680, Note_on_c, 0, 82, 80
1, 52703, Note_on_c, 0, 82, 0
1, 52704, Note_on_c, 0, 82, 80
1, 52728, Note_on_c, 0, 82, 0
1, 52728, Note_on_c, 0, 86, 80
1, 52751, Note_on_c, 0, 86, 0
1, 52752, Note_on_c, 0, 86, 80
1, 52752, Note_on_c, 1, 64, 80
1, 52772, Note_on_c, 1, 64, 0
1, 52776, Note_on_c, 0, 86, 0
1, 52776, Note_on_c, 0, 82, 80
1, 52799, Note_on_c, 0, 82, 0
1, 52800, Note_on_c, 0, 82, 80
1, 52800, Note_on_c, 1, 65, 80
1, 52824, Note_on_c, 0, 82, 0
1, 52824, Note_on_c, 0, 81, 80
1, 52845, Note_on_c, 1, 65, 0
1, 52847, Note_on_c, 0, 81, 0
1, 52848, Note_on_c, 0, 84, 80
1, 52848, Note_on_c, 1, 57, 80
1, 52872, Note_on_c, 0, 84, 0
1, 52872, Note_on_c, 0, 77, 80
1, 52893, Note_on_c, 1, 57, 0
1, 52895, Note_on_c, 0, 77, 0
1, 52896, Note_on_c, 0, 81, 80
1, 52896, Note_on_c, 1, 58, 80
1, 52908, Note_on_c, 0, 81, 0
1, 52908, Note_on_c, 0, 79, 80
1, 52920, Note_on_c, 0, 79, 0
1, 52920, Note_on_c, 0, 81, 80
1, 52932, Note_on_c, 0, 81, 0
1, 52932, Note_on_c, 0, 79, 80
1, 52941, Note_on_c, 1, 58, 0
1, 52944, Note_on_c, 0, 79, 0
1, 52944, Note_on_c, 0, 81, 80
1, 52944, Note_on_c, 1, 60, 80
1, 52956, Note_on_c, 0, 81, 0
1, 52956, Note_on_c, 0, 79, 80
1, 52968, Note_on_c, 0, 79, 0
1, 52968, Note_on_c, 0, 77, 80
1, 52980, Note_on_c, 0, 77, 0
1, 52980, Note_on_c, 0, 79, 80
1, 52989, Note_on_c, 1, 60, 0
1, 52992, Note_on_c, 0, 79, 0
1, 52992, Note_on_c, 0, 77, 80
1, 52992, Note_on_c, 1, 53, 80
1, 53037, Note_on_c, 1, 53, 0
1, 53040, Note_on_c, 1, 41, 80
1, 53060, Note_on_c, 1, 41, 0
1, 53081, Note_on_c, 0, 77, 0
1, 53088, Note_on_c, 0, 74, 64
1, 53111, Note_on_c, 0, 74, 0
1, 53112, Note_on_c, 0, 77, 64
1, 53135, Note_on_c, 0, 77, 0
1, 53136, Note_on_c, 0, 76, 64
1, 53136, Note_on_c, 1, 69, 64
1, 53136, Note_on_c, 1, 65, 64
1, 53156, Note_on_c, 1, 69, 0
1, 53156, Note_on_c, 1, 65, 0
1, 53159, Note_on_c, 0, 76, 0
1, 53160, Note_on_c, 0, 74, 64
1, 53183, Note_on_c, 0, 74, 0
1, 53184, Note_on_c, 0, 74, 64
1, 53184, Note_on_c, 1, 67, 64
1, 53184, Note_on_c, 1, 64, 64
1, 53204, Note_on_c, 1, 67, 0
1, 53204, Note_on_c, 1, 64, 0
1, 53207, Note_on_c, 0, 74, 0
1, 53208, Note_on_c, 0, 72, 64
1, 53231, Note_on_c, 0, 72, 0
1, 53232, Note_on_c, 0, 71, 64
1, 53232, Note_on_c, 1, 67, 64
1, 53232, Note_on_c, 1, 64, 64
1, 53252, Note_on_c, 1, 67, 0
1, 53252, Note_on_c, 1, 64, 0
1, 53255, Note_on_c, 0, 71, 0
1, 53256, Note_on_c, 0, 72, 64
1, 53279, Note_on_c, 0, 72, 0
1, 53280, Note_on_c, 0, 70, 64
1, 53280, Note_on_c, 1, 65, 64
1, 53280, Note_on_c, 1, 62, 64
1, 53300, Note_on_c, 1, 65, 0
1, 53300, Note_on_c, 1, 62, 0
1, 53303, Note_on_c, 0, 70, 0
1, 53304, Note_on_c, 0, 74, 64
1, 53327, Note_on_c, 0, 74, 0
1, 53328, Note_on_c, 0, 72, 64
1, 53328, Note_on_c, 1, 65, 64
1, 53328, Note_on_c, 1, 62, 64
1, 53348, Note_on_c, 1, 65, 0
1, 53348, Note_on_c, 1, 62, 0
1, 53351, Note_on_c, 0, 72, 0
1, 53352, Note_on_c, 0, 70, 64
1, 53375, Note_on_c, 0, 70, 0
1, 53376, Note_on_c, 0, 70, 80
1, 53376, Note_on_c, 1, 64, 64
1, 53376, Note_on_c, 1, 60, 64
1, 53396, Note_on_c, 1, 64, 0
1, 53396, Note_on_c, 1, 60, 0
1, 53400, Note_on_c, 0, 70, 0
1, 53400, Note_on_c, 0, 69, 64
1, 53423, Note_on_c, 0, 69, 0
1, 53424, Note_on_c, 0, 68, 64
1, 53424, Note_on_c, 1, 64, 64
1, 53424, Note_on_c, 1, 60, 64
1, 53444, Note_on_c, 1, 64, 0
1, 53444, Note_on_c, 1, 60, 0
1, 53447, Note_on_c, 0, 68, 0
1, 53448, Note_on_c, 0, 69, 64
1, 53471, Note_on_c, 0, 69, 0
1, 53472, Note_on_c, 0, 67, 64
1, 53472, Note_on_c, 1, 62, 64
1, 53472, Note_on_c, 1, 58, 64
1, 53492, Note_on_c, 1, 62, 0
1, 53492, Note_on_c, 1, 58, 0
1, 53495, Note_on_c, 0, 67, 0
1, 53496, Note_on_c, 0, 70, 64
1, 53519, Note_on_c, 0, 70, 0
1, 53520, Note_on_c, 0, 69, 64
1, 53520, Note_on_c, 1, 62, 64
1, 53520, Note_on_c, 1, 58, 64
1, 53540, Note_on_c, 1, 62, 0
1, 53540, Note_on_c, 1, 58, 0
1, 53543, Note_on_c, 0, 69, 0
1, 53544, Note_on_c, 0, 67, 64
1, 53567, Note_on_c, 0, 67, 0
1, 53568, Note_on_c, 0, 67, 64
1, 53568, Note_on_c, 1, 60, 64
1, 53568, Note_on_c, 1, 57, 64
1, 53591, Note_on_c, 0, 67, 0
1, 53592, Note_on_c, 0, 65, 65
1, 53615, Note_on_c, 0, 65, 0
1, 53616, Note_on_c, 0, 64, 66
1, 53639, Note_on_c, 0, 64, 0
1, 53640, Note_on_c, 0, 65, 68
1, 53657, Note_on_c, 1, 60, 0
1, 53657, Note_on_c, 1, 57, 0
1, 53663, Note_on_c, 0, 65, 0
1, 53664, Note_on_c, 0, 72, 85
1, 53712, Note_on_c, 1, 57, 75
1, 53760, Note_on_c, 1, 57, 0
1, 53760, Note_on_c, 1, 58, 75
1, 53783, Note_on_c, 0, 72, 0
1, 53784, Note_on_c, 0, 70, 75
1, 53805, Note_on_c, 1, 58, 0
1, 53807, Note_on_c, 0, 70, 0
1, 53808, Note_on_c, 0, 69, 75
1, 53808, Note_on_c, 1, 58, 75
1, 53828, Note_on_c, 1, 58, 0
1, 53831, Note_on_c, 0, 69, 0
1, 53832, Note_on_c, 0, 67, 75
1, 53855, Note_on_c, 0, 67, 0
1, 53856, Note_on_c, 0, 65, 75
1, 53856, Note_on_c, 1, 60, 75
1, 53876, Note_on_c, 1, 60, 0
1, 53901, Note_on_c, 0, 65, 0
1, 53904, Note_on_c, 0, 67, 75
1, 53904, Note_on_c, 1, 48, 75
1, 53916, Note_on_c, 0, 67, 0
1, 53916, Note_on_c, 0, 69, 75
1, 53924, Note_on_c, 1, 48, 0
1, 53928, Note_on_c, 0, 69, 0
1, 53928, Note_on_c, 0, 67, 75
1, 53949, Note_on_c, 0, 67, 0
1, 53952, Note_on_c, 0, 65, 75
1, 53952, Note_on_c, 1, 53, 75
1, 53972, Note_on_c, 1, 53, 0
1, 54000, Note_on_c, 1, 41, 75
1, 54020, Note_on_c, 1, 41, 0
1, 54041, Note_on_c, 0, 65, 0
1, 54048, Note_on_c, 1, 69, 75
1, 54048, Note_on_c, 1, 65, 75
1, 54064, Note_on_c, 0, 74, 75
1, 54068, Note_on_c, 1, 69, 0
1, 54068, Note_on_c, 1, 65, 0
1, 54079, Note_on_c, 0, 74, 0
1, 54080, Note_on_c, 0, 76, 75
1, 54095, Note_on_c, 0, 76, 0
1, 54096, Note_on_c, 0, 77, 75
1, 54096, Note_on_c, 1, 69, 75
1, 54096, Note_on_c, 1, 65, 75
1, 54111, Note_on_c, 0, 77, 0
1, 54112, Note_on_c, 0, 76, 75
1, 54116, Note_on_c, 1, 69, 0
1, 54116, Note_on_c, 1, 65, 0
1, 54127, Note_on_c, 0, 76, 0
1, 54128, Note_on_c, 0, 74, 75
1, 54143, Note_on_c, 0, 74, 0
1, 54144, Note_on_c, 0, 74, 64
1, 54144, Note_on_c, 1, 67, 64
1, 54144, Note_on_c, 1, 64, 64
1, 54164, Note_on_c, 1, 67, 0
1, 54164, Note_on_c, 1, 64, 0
1, 54167, Note_on_c, 0, 74, 0
1, 54168, Note_on_c, 0, 72, 65
1, 54191, Note_on_c, 0, 72, 0
1, 54192, Note_on_c, 0, 71, 66
1, 54192, Note_on_c, 1, 67, 66
1, 54192, Note_on_c, 1, 64, 66
1, 54212, Note_on_c, 1, 67, 0
1, 54212, Note_on_c, 1, 64, 0
1, 54215, Note_on_c, 0, 71, 0
1, 54216, Note_on_c, 0, 72, 68
1, 54239, Note_on_c, 0, 72, 0
1, 54240, Note_on_c, 1, 65, 69
1, 54240, Note_on_c, 1, 62, 69
1, 54256, Note_on_c, 0, 70, 70
1, 54260, Note_on_c, 1, 65, 0
1, 54260, Note_on_c, 1, 62, 0
1, 54271, Note_on_c, 0, 70, 0
1, 54272, Note_on_c, 0, 72, 70
1, 54287, Note_on_c, 0, 72, 0
1, 54288, Note_on_c, 0, 74, 71
1, 54288, Note_on_c, 1, 65, 72
1, 54288, Note_on_c, 1, 62, 72
1, 54303, Note_on_c, 0, 74, 0
1, 54304, Note_on_c, 0, 72, 72
1, 54308, Note_on_c, 1, 65, 0
1, 54308, Note_on_c, 1, 62, 0
1, 54319, Note_on_c, 0, 72, 0
1, 54320, Note_on_c, 0, 70, 72
1, 54335, Note_on_c, 0, 70, 0
1, 54336, Note_on_c, 0, 70, 73
1, 54336, Note_on_c, 1, 64, 74
1, 54336, Note_on_c, 1, 60, 74
1, 54356, Note_on_c, 1, 64, 0
1, 54356, Note_on_c, 1, 60, 0
1, 54359, Note_on_c, 0, 70, 0
1, 54360, Note_on_c, 0, 69, 74
1, 54383, Note_on_c, 0, 69, 0
1, 54384, Note_on_c, 0, 68, 76
1, 54384, Note_on_c, 1, 64, 77
1, 54384, Note_on_c, 1, 60, 77
1, 54404, Note_on_c, 1, 64, 0
1, 54404, Note_on_c, 1, 60, 0
1, 54407, Note_on_c, 0, 68, 0
1, 54408, Note_on_c, 0, 69, 77
1, 54431, Note_on_c, 0, 69, 0
1, 54432, Note_on_c, 1, 62, 80
1, 54432, Note_on_c, 1, 58, 80
1, 54448, Note_on_c, 0, 67, 80
1, 54452, Note_on_c, 1, 62, 0
1, 54452, Note_on_c, 1, 58, 0
1, 54463, Note_on_c, 0, 67, 0
1, 54464, Note_on_c, 0, 69, 80
1, 54479, Note_on_c, 0, 69, 0
1, 54480, Note_on_c, 0, 70, 80
1, 54480, Note_on_c, 1, 62, 80
1, 54480, Note_on_c, 1, 58, 80
1, 54495, Note_on_c, 0, 70, 0
1, 54496, Note_on_c, 0, 69, 80
1, 54500, Note_on_c, 1, 62, 0
1, 54500, Note_on_c, 1, 58, 0
1, 54511, Note_on_c, 0, 69, 0
1, 54512, Note_on_c, 0, 67, 80
1, 54527, Note_on_c, 0, 67, 0
1, 54528, Note_on_c, 0, 65, 80
1, 54528, Note_on_c, 1, 60, 80
1, 54528, Note_on_c, 1, 57, 80
1, 54551, Note_on_c, 0, 65, 0
1, 54552, Note_on_c, 0, 67, 81
1, 54564, Note_on_c, 0, 67, 0
1, 54564, Note_on_c, 0, 69, 81
1, 54576, Note_on_c, 0, 69, 0
1, 54576, Note_on_c, 0, 70, 82
1, 54588, Note_on_c, 0, 70, 0
1, 54588, Note_on_c, 0, 72, 82
1, 54600, Note_on_c, 0, 72, 0
1, 54600, Note_on_c, 0, 74, 83
1, 54612, Note_on_c, 0, 74, 0
1, 54612, Note_on_c, 0, 76, 83
1, 54617, Note_on_c, 1, 60, 0
1, 54617, Note_on_c, 1, 57, 0
1, 54624, Note_on_c, 0, 76, 0
1, 54624, Note_on_c, 0, 77, 84
1, 54644, Note_on_c, 0, 77, 0
1, 54672, Note_on_c, 1, 53, 80
1, 54672, Note_on_c, 1, 45, 80
1, 54717, Note_on_c, 1, 53, 0
1, 54717, Note_on_c, 1, 45, 0
1, 54720, Note_on_c, 0, 74, 80
1, 54720, Note_on_c, 1, 53, 80
1, 54720, Note_on_c, 1, 46, 80
1, 54735, Note_on_c, 0, 74, 0
1, 54736, Note_on_c, 0, 72, 80
1, 54740, Note_on_c, 1, 53, 0
1, 54740, Note_on_c, 1, 46, 0
1, 54751, Note_on_c, 0, 72, 0
1, 54752, Note_on_c, 0, 70, 80
1, 54767, Note_on_c, 0, 70, 0
1, 54768, Note_on_c, 0, 69, 80
1, 54768, Note_on_c, 1, 53, 80
1, 54768, Note_on_c, 1, 46, 80
1, 54783, Note_on_c, 0, 69, 0
1, 54784, Note_on_c, 0, 67, 80
1, 54788, Note_on_c, 1, 53, 0
1, 54788, Note_on_c, 1, 46, 0
1, 54799, Note_on_c, 0, 67, 0
1, 54800, Note_on_c, 0, 65, 80
1, 54815, Note_on_c, 0, 65, 0
1, 54816, Note_on_c, 0, 67, 80
1, 54816, Note_on_c, 1, 53, 80
1, 54816, Note_on_c, 1, 48, 80
1, 54829, Note_on_c, 0, 67, 0
1, 54830, Note_on_c, 0, 69, 80
1, 54836, Note_on_c, 1, 53, 0
1, 54836, Note_on_c, 1, 48, 0
1, 54843, Note_on_c, 0, 69, 0
1, 54844, Note_on_c, 0, 67, 80
1, 54857, Note_on_c, 0, 67, 0
1, 54858, Note_on_c, 0, 69, 80
1, 54864, Note_on_c, 1, 52, 80
1, 54864, Note_on_c, 1, 48, 80
1, 54871, Note_on_c, 0, 69, 0
1, 54872, Note_on_c, 0, 67, 80
1, 54885, Note_on_c, 0, 67, 0
1, 54886, Note_on_c, 0, 65, 80
1, 54898, Note_on_c, 0, 65, 0
1, 54899, Note_on_c, 0, 67, 80
1, 54911, Note_on_c, 0, 67, 0
1, 54912, Note_on_c, 0, 65, 80
1, 54912, Note_on_c, 1, 52, 0
1, 54912, Note_on_c, 1, 48, 0
1, 54912, Note_on_c, 1, 53, 80
1, 54912, Note_on_c, 1, 41, 80
1, 55001, Note_on_c, 0, 65, 0
1, 55001, Note_on_c, 1, 53, 0
1, 55001, Note_on_c, 1, 41, 0
1, 55056, Note_on_c, 0, 79, 80
1, 55076, Note_on_c, 0, 79, 0
1, 55104, Note_on_c, 0, 77, 96
1, 55104, Note_on_c, 1, 60, 80
1, 55128, Note_on_c, 0, 77, 0
1, 55128, Note_on_c, 0, 76, 80
1, 55149, Note_on_c, 1, 60, 0
1, 55151, Note_on_c, 0, 76, 0
1, 55152, Note_on_c, 0, 74, 80
1, 55152, Note_on_c, 1, 64, 80
1, 55175, Note_on_c, 0, 74, 0
1, 55176, Note_on_c, 0, 72, 80
1, 55197, Note_on_c, 1, 64, 0
1, 55199, Note_on_c, 0, 72, 0
1, 55200, Note_on_c, 0, 81, 80
1, 55200, Note_on_c, 1, 65, 80
1, 55220, Note_on_c, 0, 81, 0
1, 55245, Note_on_c, 1, 65, 0
1, 55248, Note_on_c, 1, 53, 80
1, 55293, Note_on_c, 1, 53, 0
1, 55296, Note_on_c, 0, 81, 96
1, 55296, Note_on_c, 1, 64, 80
1, 55320, Note_on_c, 0, 81, 0
1, 55320, Note_on_c, 0, 79, 80
1, 55341, Note_on_c, 1, 64, 0
1, 55343, Note_on_c, 0, 79, 0
1, 55344, Note_on_c, 0, 77, 80
1, 55344, Note_on_c, 1, 60, 80
1, 55367, Note_on_c, 0, 77, 0
1, 55368, Note_on_c, 0, 76, 80
1, 55389, Note_on_c, 1, 60, 0
1, 55391, Note_on_c, 0, 76, 0
1, 55392, Note_on_c, 0, 74, 80
1, 55392, Note_on_c, 1, 59, 80
1, 55412, Note_on_c, 0, 74, 0
1, 55437, Note_on_c, 1, 59, 0
1, 55440, Note_on_c, 1, 55, 80
1, 55485, Note_on_c, 1, 55, 0
1, 55488, Note_on_c, 0, 77, 96
1, 55488, Note_on_c, 1, 60, 80
1, 55512, Note_on_c, 0, 77, 0
1, 55512, Note_on_c, 0, 76, 80
1, 55535, Note_on_c, 0, 76, 0
1, 55536, Note_on_c, 0, 74, 80
1, 55559, Note_on_c, 0, 74, 0
1, 55560, Note_on_c, 0, 72, 80
1, 55577, Note_on_c, 1, 60, 0
1, 55583, Note_on_c, 0, 72, 0
1, 55584, Note_on_c, 0, 84, 80
1, 55604, Note_on_c, 0, 84, 0
1, 55632, Note_on_c, 0, 76, 80
1, 55632, Note_on_c, 1, 72, 80
1, 55656, Note_on_c, 0, 76, 0
1, 55656, Note_on_c, 0, 81, 80
1, 55677, Note_on_c, 1, 72, 0
1, 55679, Note_on_c, 0, 81, 0
1, 55680, Note_on_c, 0, 77, 80
1, 55680, Note_on_c, 1, 74, 80
1, 55693, Note_on_c, 0, 77, 0
1, 55694, Note_on_c, 0, 79, 80
1, 55707, Note_on_c, 0, 79, 0
1, 55708, Note_on_c, 0, 77, 80
1, 55721, Note_on_c, 0, 77, 0
1, 55722, Note_on_c, 0, 79, 80
1, 55725, Note_on_c, 1, 74, 0
1, 55728, Note_on_c, 1, 67, 80
1, 55735, Note_on_c, 0, 79, 0
1, 55736, Note_on_c, 0, 77, 80
1, 55749, Note_on_c, 0, 77, 0
1, 55750, Note_on_c, 0, 76, 80
1, 55762, Note_on_c, 0, 76, 0
1, 55763, Note_on_c, 0, 77, 80
1, 55773, Note_on_c, 1, 67, 0
1, 55775, Note_on_c, 0, 77, 0
1, 55776, Note_on_c, 0, 76, 80
1, 55776, Note_on_c, 1, 72, 80
1, 55821, Note_on_c, 0, 76, 0
1, 55821, Note_on_c, 1, 72, 0
1, 55824, Note_on_c, 0, 79, 80
1, 55844, Note_on_c, 0, 79, 0
1, 55872, Note_on_c, 0, 77, 96
1, 55872, Note_on_c, 1, 60, 80
1, 55896, Note_on_c, 0, 77, 0
1, 55896, Note_on_c, 0, 76, 80
1, 55917, Note_on_c, 1, 60, 0
1, 55919, Note_on_c, 0, 76, 0
1, 55920, Note_on_c, 0, 74, 80
1, 55920, Note_on_c, 1, 64, 80
1, 55943, Note_on_c, 0, 74, 0
1, 55944, Note_on_c, 0, 72, 80
1, 55965, Note_on_c, 1, 64, 0
1, 55967, Note_on_c, 0, 72, 0
1, 55968, Note_on_c, 0, 81, 80
1, 55968, Note_on_c, 1, 65, 80
1, 55988, Note_on_c, 0, 81, 0
1, 56013, Note_on_c, 1, 65, 0
1, 56016, Note_on_c, 1, 53, 80
1, 56061, Note_on_c, 1, 53, 0
1, 56064, Note_on_c, 0, 81, 96
1, 56064, Note_on_c, 1, 64, 80
1, 56088, Note_on_c, 0, 81, 0
1, 56088, Note_on_c, 0, 79, 80
1, 56109, Note_on_c, 1, 64, 0
1, 56111, Note_on_c, 0, 79, 0
1, 56112, Note_on_c, 0, 77, 80
1, 56112, Note_on_c, 1, 60, 80
1, 56135, Note_on_c, 0, 77, 0
1, 56136, Note_on_c, 0, 76, 80
1, 56157, Note_on_c, 1, 60, 0
1, 56159, Note_on_c, 0, 76, 0
1, 56160, Note_on_c, 0, 74, 80
1, 56160, Note_on_c, 1, 59, 80
1, 56180, Note_on_c, 0, 74, 0
1, 56205, Note_on_c, 1, 59, 0
1, 56208, Note_on_c, 1, 55, 80
1, 56253, Note_on_c, 1, 55, 0
1, 56256, Note_on_c, 0, 76, 80
1, 56256, Note_on_c, 1, 60, 80
1, 56279, Note_on_c, 0, 76, 0
1, 56280, Note_on_c, 0, 79, 80
1, 56301, Note_on_c, 1, 60, 0
1, 56303, Note_on_c, 0, 79, 0
1, 56304, Note_on_c, 0, 72, 80
1, 56304, Note_on_c, 1, 69, 80
1, 56327, Note_on_c, 0, 72, 0
1, 56328, Note_on_c, 0, 76, 80
1, 56349, Note_on_c, 1, 69, 0
1, 56351, Note_on_c, 0, 76, 0
1, 56352, Note_on_c, 0, 74, 80
1, 56352, Note_on_c, 1, 65, 80
1, 56375, Note_on_c, 0, 74, 0
1, 56376, Note_on_c, 0, 77, 80
1, 56397, Note_on_c, 1, 65, 0
1, 56399, Note_on_c, 0, 77, 0
1, 56400, Note_on_c, 0, 71, 80
1, 56400, Note_on_c, 1, 67, 80
1, 56423, Note_on_c, 0, 71, 0
1, 56424, Note_on_c, 0, 74, 80
1, 56445, Note_on_c, 1, 67, 0
1, 56447, Note_on_c, 0, 74, 0
1, 56448, Note_on_c, 0, 72, 80
1, 56448, Note_on_c, 1, 60, 80
1, 56468, Note_on_c, 1, 60, 0
1, 56496, Note_on_c, 1, 55, 80
1, 56516, Note_on_c, 1, 55, 0
1, 56537, Note_on_c, 0, 72, 0
1, 56544, Note_on_c, 1, 48, 80
1, 56564, Note_on_c, 1, 48, 0
1, 56592, Note_on_c, 0, 67, 64
1, 56612, Note_on_c, 0, 67, 0
1, 56640, Note_on_c, 0, 65, 80
1, 56664, Note_on_c, 0, 65, 0
1, 56664, Note_on_c, 0, 63, 64
1, 56687, Note_on_c, 0, 63, 0
1, 56688, Note_on_c, 0, 62, 64
1, 56711, Note_on_c, 0, 62, 0
1, 56712, Note_on_c, 0, 60, 64
1, 56735, Note_on_c, 0, 60, 0
1, 56736, Note_on_c, 0, 72, 64
1, 56756, Note_on_c, 0, 72, 0
1, 56784, Note_on_c, 0, 75, 64
1, 56804, Note_on_c, 0, 75, 0
1, 56832, Note_on_c, 0, 67, 64
1, 56880, Note_on_c, 1, 62, 64
1, 56880, Note_on_c, 1, 60, 64
1, 56900, Note_on_c, 1, 62, 0
1, 56900, Note_on_c, 1, 60, 0
1, 56928, Note_on_c, 0, 67, 0
1, 56928, Note_on_c, 0, 66, 64
1, 56928, Note_on_c, 1, 62, 64
1, 56928, Note_on_c, 1, 60, 64
1, 56948, Note_on_c, 1, 62, 0
1, 56948, Note_on_c, 1, 60, 0
1, 56973, Note_on_c, 0, 66, 0
1, 56976, Note_on_c, 0, 69, 64
1, 56996, Note_on_c, 0, 69, 0
1, 57024, Note_on_c, 0, 69, 65
1, 57072, Note_on_c, 1, 62, 66
1, 57072, Note_on_c, 1, 58, 66
1, 57092, Note_on_c, 1, 62, 0
1, 57092, Note_on_c, 1, 58, 0
1, 57120, Note_on_c, 0, 69, 0
1, 57120, Note_on_c, 0, 67, 67
1, 57120, Note_on_c, 1, 62, 67
1, 57120, Note_on_c, 1, 58, 67
1, 57140, Note_on_c, 1, 62, 0
1, 57140, Note_on_c, 1, 58, 0
1, 57165, Note_on_c, 0, 67, 0
1, 57168, Note_on_c, 0, 70, 68
1, 57188, Note_on_c, 0, 70, 0
1, 57216, Note_on_c, 0, 70, 70
1, 57264, Note_on_c, 1, 62, 71
1, 57264, Note_on_c, 1, 54, 71
1, 57284, Note_on_c, 1, 62, 0
1, 57284, Note_on_c, 1, 54, 0
1, 57312, Note_on_c, 0, 70, 0
1, 57312, Note_on_c, 0, 69, 72
1, 57312, Note_on_c, 1, 62, 72
1, 57312, Note_on_c, 1, 54, 72
1, 57332, Note_on_c, 1, 62, 0
1, 57332, Note_on_c, 1, 54, 0
1, 57357, Note_on_c, 0, 69, 0
1, 57360, Note_on_c, 0, 74, 73
1, 57360, Note_on_c, 1, 62, 74
1, 57360, Note_on_c, 1, 54, 74
1, 57380, Note_on_c, 0, 74, 0
1, 57380, Note_on_c, 1, 62, 0
1, 57380, Note_on_c, 1, 54, 0
1, 57408, Note_on_c, 0, 72, 91
1, 57408, Note_on_c, 1, 62, 75
1, 57408, Note_on_c, 1, 55, 75
1, 57432, Note_on_c, 0, 72, 0
1, 57432, Note_on_c, 0, 70, 75
1, 57455, Note_on_c, 0, 70, 0
1, 57456, Note_on_c, 0, 69, 76
1, 57479, Note_on_c, 0, 69, 0
1, 57480, Note_on_c, 0, 67, 76
1, 57497, Note_on_c, 1, 62, 0
1, 57497, Note_on_c, 1, 55, 0
1, 57503, Note_on_c, 0, 67, 0
1, 57504, Note_on_c, 0, 79, 77
1, 57524, Note_on_c, 0, 79, 0
1, 57552, Note_on_c, 0, 67, 78
1, 57552, Note_on_c, 1, 58, 79
1, 57572, Note_on_c, 0, 67, 0
1, 57575, Note_on_c, 1, 58, 0
1, 57576, Note_on_c, 1, 62, 80
1, 57599, Note_on_c, 1, 62, 0
1, 57600, Note_on_c, 0, 66, 80
1, 57600, Note_on_c, 1, 60, 80
1, 57623, Note_on_c, 1, 60, 0
1, 57624, Note_on_c, 1, 62, 80
1, 57647, Note_on_c, 1, 62, 0
1, 57648, Note_on_c, 0, 66, 0
1, 57648, Note_on_c, 0, 67, 80
1, 57648, Note_on_c, 1, 58, 80
1, 57671, Note_on_c, 1, 58, 0
1, 57672, Note_on_c, 1, 62, 80
1, 57693, Note_on_c, 0, 67, 0
1, 57695, Note_on_c, 1, 62, 0
1, 57696, Note_on_c, 0, 66, 80
1, 57696, Note_on_c, 1, 60, 80
1, 57719, Note_on_c, 1, 60, 0
1, 57720, Note_on_c, 1, 62, 80
1, 57743, Note_on_c, 1, 62, 0
1, 57744, Note_on_c, 0, 66, 0
1, 57744, Note_on_c, 0, 67, 80
1, 57744, Note_on_c, 1, 58, 80
1, 57767, Note_on_c, 1, 58, 0
1, 57768, Note_on_c, 1, 62, 80
1, 57789, Note_on_c, 0, 67, 0
1, 57791, Note_on_c, 1, 62, 0
1, 57792, Note_on_c, 0, 72, 80
1, 57792, Note_on_c, 1, 57, 80
1, 57816, Note_on_c, 0, 72, 0
1, 57816, Note_on_c, 0, 75, 80
1, 57837, Note_on_c, 1, 57, 0
1, 57839, Note_on_c, 0, 75, 0
1, 57840, Note_on_c, 0, 69, 80
1, 57840, Note_on_c, 1, 54, 80
1, 57864, Note_on_c, 0, 69, 0
1, 57864, Note_on_c, 0, 72, 80
1, 57885, Note_on_c, 1, 54, 0
1, 57887, Note_on_c, 0, 72, 0
1, 57888, Note_on_c, 0, 70, 80
1, 57888, Note_on_c, 1, 55, 80
1, 57908, Note_on_c, 0, 70, 0
1, 57933, Note_on_c, 1, 55, 0
1, 57936, Note_on_c, 0, 79, 80
1, 57936, Note_on_c, 1, 70, 80
1, 57956, Note_on_c, 0, 79, 0
1, 57959, Note_on_c, 1, 70, 0
1, 57960, Note_on_c, 1, 74, 80
1, 57983, Note_on_c, 1, 74, 0
1, 57984, Note_on_c, 0, 78, 80
1, 57984, Note_on_c, 1, 72, 80
1, 58007, Note_on_c, 1, 72, 0
1, 58008, Note_on_c, 1, 74, 80
1, 58031, Note_on_c, 1, 74, 0
1, 58032, Note_on_c, 0, 78, 0
1, 58032, Note_on_c, 0, 79, 80
1, 58032, Note_on_c, 1, 70, 80
1, 58055, Note_on_c, 1, 70, 0
1, 58056, Note_on_c, 1, 74, 80
1, 58077, Note_on_c, 0, 79, 0
1, 58079, Note_on_c, 1, 74, 0
1, 58080, Note_on_c, 0, 78, 80
1, 58080, Note_on_c, 1, 72, 80
1, 58103, Note_on_c, 1, 72, 0
1, 58104, Note_on_c, 1, 74, 80
1, 58127, Note_on_c, 1, 74, 0
1, 58128, Note_on_c, 0, 78, 0
1, 58128, Note_on_c, 0, 79, 80
1, 58128, Note_on_c, 1, 70, 80
1, 58151, Note_on_c, 1, 70, 0
1, 58152, Note_on_c, 1, 74, 80
1, 58173, Note_on_c, 0, 79, 0
1, 58175, Note_on_c, 1, 74, 0
1, 58176, Note_on_c, 0, 84, 80
1, 58176, Note_on_c, 1, 69, 80
1, 58200, Note_on_c, 0, 84, 0
1, 58200, Note_on_c, 0, 87, 80
1, 58221, Note_on_c, 1, 69, 0
1, 58223, Note_on_c, 0, 87, 0
1, 58224, Note_on_c, 0, 81, 80
1, 58224, Note_on_c, 1, 66, 80
1, 58248, Note_on_c, 0, 81, 0
1, 58248, Note_on_c, 0, 84, 80
1, 58269, Note_on_c, 1, 66, 0
1, 58271, Note_on_c, 0, 84, 0
1, 58272, Note_on_c, 0, 82, 80
1, 58272, Note_on_c, 1, 67, 80
1, 58317, Note_on_c, 0, 82, 0
1, 58317, Note_on_c, 1, 67, 0
1, 58320, Note_on_c, 0, 79, 75
1, 58343, Note_on_c, 0, 79, 0
1, 58344, Note_on_c, 0, 81, 75
1, 58367, Note_on_c, 0, 81, 0
1, 58368, Note_on_c, 0, 82, 75
1, 58368, Note_on_c, 1, 67, 75
1, 58391, Note_on_c, 0, 82, 0
1, 58392, Note_on_c, 0, 84, 75
1, 58415, Note_on_c, 0, 84, 0
1, 58416, Note_on_c, 0, 82, 75
1, 58439, Note_on_c, 0, 82, 0
1, 58440, Note_on_c, 0, 81, 75
1, 58463, Note_on_c, 0, 81, 0
1, 58464, Note_on_c, 0, 79, 75
1, 58487, Note_on_c, 0, 79, 0
1, 58488, Note_on_c, 0, 77, 75
1, 58511, Note_on_c, 0, 77, 0
1, 58512, Note_on_c, 0, 76, 75
1, 58512, Note_on_c, 1, 67, 0
1, 58512, Note_on_c, 1, 68, 75
1, 58535, Note_on_c, 0, 76, 0
1, 58536, Note_on_c, 0, 74, 75
1, 58557, Note_on_c, 1, 68, 0
1, 58559, Note_on_c, 0, 74, 0
1, 58560, Note_on_c, 0, 74, 75
1, 58560, Note_on_c, 1, 69, 75
1, 58605, Note_on_c, 1, 69, 0
1, 58608, Note_on_c, 1, 64, 73
1, 58628, Note_on_c, 1, 64, 0
1, 58656, Note_on_c, 0, 74, 0
1, 58656, Note_on_c, 0, 73, 71
1, 58656, Note_on_c, 1, 57, 71
1, 58676, Note_on_c, 1, 57, 0
1, 58701, Note_on_c, 0, 73, 0
1, 58704, Note_on_c, 0, 81, 80
1, 58724, Note_on_c, 0, 81, 0
1, 58752, Note_on_c, 0, 79, 96
1, 58752, Note_on_c, 1, 62, 80
1, 58776, Note_on_c, 0, 79, 0
1, 58776, Note_on_c, 0, 77, 80
1, 58797, Note_on_c, 1, 62, 0
1, 58799, Note_on_c, 0, 77, 0
1, 58800, Note_on_c, 0, 76, 80
1, 58800, Note_on_c, 1, 65, 80
1, 58823, Note_on_c, 0, 76, 0
1, 58824, Note_on_c, 0, 74, 80
1, 58845, Note_on_c, 1, 65, 0
1, 58847, Note_on_c, 0, 74, 0
1, 58848, Note_on_c, 0, 82, 80
1, 58848, Note_on_c, 1, 67, 80
1, 58868, Note_on_c, 0, 82, 0
1, 58893, Note_on_c, 1, 67, 0
1, 58896, Note_on_c, 1, 62, 80
1, 58941, Note_on_c, 1, 62, 0
1, 58944, Note_on_c, 0, 82, 96
1, 58944, Note_on_c, 1, 65, 80
1, 58968, Note_on_c, 0, 82, 0
1, 58968, Note_on_c, 0, 81, 80
1, 58989, Note_on_c, 1, 65, 0
1, 58991, Note_on_c, 0, 81, 0
1, 58992, Note_on_c, 0, 79, 80
1, 58992, Note_on_c, 1, 62, 80
1, 59015, Note_on_c, 0, 79, 0
1, 59016, Note_on_c, 0, 77, 80
1, 59037, Note_on_c, 1, 62, 0
1, 59039, Note_on_c, 0, 77, 0
1, 59040, Note_on_c, 0, 79, 80
1, 59040, Note_on_c, 1, 64, 80
1, 59060, Note_on_c, 0, 79, 0
1, 59085, Note_on_c, 1, 64, 0
1, 59088, Note_on_c, 1, 57, 80
1, 59133, Note_on_c, 1, 57, 0
1, 59136, Note_on_c, 0, 79, 91
1, 59136, Note_on_c, 1, 62, 75
1, 59160, Note_on_c, 0, 79, 0
1, 59160, Note_on_c, 0, 77, 75
1, 59181, Note_on_c, 1, 62, 0
1, 59183, Note_on_c, 0, 77, 0
1, 59184, Note_on_c, 0, 76, 75
1, 59184, Note_on_c, 1, 65, 75
1, 59207, Note_on_c, 0, 76, 0
1, 59208, Note_on_c, 0, 74, 75
1, 59229, Note_on_c, 1, 65, 0
1, 59231, Note_on_c, 0, 74, 0
1, 59232, Note_on_c, 0, 82, 75
1, 59232, Note_on_c, 1, 67, 75
1, 59252, Note_on_c, 0, 82, 0
1, 59277, Note_on_c, 1, 67, 0
1, 59280, Note_on_c, 1, 62, 75
1, 59325, Note_on_c, 1, 62, 0
1, 59328, Note_on_c, 0, 82, 91
1, 59328, Note_on_c, 1, 65, 75
1, 59352, Note_on_c, 0, 82, 0
1, 59352, Note_on_c, 0, 81, 75
1, 59373, Note_on_c, 1, 65, 0
1, 59375, Note_on_c, 0, 81, 0
1, 59376, Note_on_c, 0, 79, 75
1, 59376, Note_on_c, 1, 62, 75
1, 59399, Note_on_c, 0, 79, 0
1, 59400, Note_on_c, 0, 77, 75
1, 59421, Note_on_c, 1, 62, 0
1, 59423, Note_on_c, 0, 77, 0
1, 59424, Note_on_c, 0, 79, 75
1, 59424, Note_on_c, 1, 64, 75
1, 59444, Note_on_c, 0, 79, 0
1, 59469, Note_on_c, 1, 64, 0
1, 59472, Note_on_c, 1, 57, 75
1, 59517, Note_on_c, 1, 57, 0
1, 59520, Note_on_c, 0, 79, 80
1, 59520, Note_on_c, 1, 62, 64
1, 59544, Note_on_c, 0, 79, 0
1, 59544, Note_on_c, 0, 77, 64
1, 59565, Note_on_c, 1, 62, 0
1, 59567, Note_on_c, 0, 77, 0
1, 59568, Note_on_c, 0, 76, 64
1, 59568, Note_on_c, 1, 62, 64
1, 59591, Note_on_c, 0, 76, 0
1, 59592, Note_on_c, 0, 74, 64
1, 59592, Note_on_c, 1, 62, 0
1, 59592, Note_on_c, 1, 65, 64
1, 59615, Note_on_c, 0, 74, 0
1, 59615, Note_on_c, 1, 65, 0
1, 59616, Note_on_c, 0, 74, 64
1, 59616, Note_on_c, 1, 64, 64
1, 59640, Note_on_c, 1, 64, 0
1, 59640, Note_on_c, 1, 67, 64
1, 59661, Note_on_c, 0, 74, 0
1, 59663, Note_on_c, 1, 67, 0
1, 59664, Note_on_c, 0, 74, 64
1, 59664, Note_on_c, 1, 65, 64
1, 59684, Note_on_c, 0, 74, 0
1, 59688, Note_on_c, 1, 65, 0
1, 59688, Note_on_c, 1, 69, 64
1, 59711, Note_on_c, 1, 69, 0
1, 59712, Note_on_c, 0, 74, 64
1, 59712, Note_on_c, 1, 67, 64
1, 59757, Note_on_c, 0, 74, 0
1, 59760, Note_on_c, 0, 76, 64
1, 59783, Note_on_c, 0, 76, 0
1, 59784, Note_on_c, 0, 79, 64
1, 59801, Note_on_c, 1, 67, 0
1, 59807, Note_on_c, 0, 79, 0
1, 59808, Note_on_c, 0, 77, 64
1, 59808, Note_on_c, 1, 69, 64
1, 59831, Note_on_c, 0, 77, 0
1, 59832, Note_on_c, 0, 76, 64
1, 59855, Note_on_c, 0, 76, 0
1, 59856, Note_on_c, 0, 74, 64
1, 59879, Note_on_c, 0, 74, 0
1, 59880, Note_on_c, 0, 73, 64
1, 59897, Note_on_c, 1, 69, 0
1, 59903, Note_on_c, 0, 73, 0
1, 59904, Note_on_c, 0, 74, 64
1, 59904, Note_on_c, 1, 70, 64
1, 59924, Note_on_c, 0, 74, 0
1, 59949, Note_on_c, 1, 70, 0
1, 59952, Note_on_c, 0, 74, 65
1, 59952, Note_on_c, 1, 62, 65
1, 59972, Note_on_c, 0, 74, 0
1, 59976, Note_on_c, 1, 62, 0
1, 59976, Note_on_c, 1, 65, 66
1, 59999, Note_on_c, 1, 65, 0
1, 60000, Note_on_c, 0, 74, 67
1, 60000, Note_on_c, 1, 64, 67
1, 60020, Note_on_c, 0, 74, 0
1, 60024, Note_on_c, 1, 64, 0
1, 60024, Note_on_c, 1, 67, 68
1, 60047, Note_on_c, 1, 67, 0
1, 60048, Note_on_c, 0, 74, 68
1, 60048, Note_on_c, 1, 65, 69
1, 60068, Note_on_c, 0, 74, 0
1, 60072, Note_on_c, 1, 65, 0
1, 60072, Note_on_c, 1, 69, 70
1, 60095, Note_on_c, 1, 69, 0
1, 60096, Note_on_c, 0, 74, 70
1, 60096, Note_on_c, 1, 67, 71
1, 60141, Note_on_c, 0, 74, 0
1, 60144, Note_on_c, 0, 76, 72
1, 60167, Note_on_c, 0, 76, 0
1, 60168, Note_on_c, 0, 79, 72
1, 60185, Note_on_c, 1, 67, 0
1, 60191, Note_on_c, 0, 79, 0
1, 60192, Note_on_c, 0, 77, 73
1, 60192, Note_on_c, 1, 69, 74
1, 60215, Note_on_c, 0, 77, 0
1, 60216, Note_on_c, 0, 76, 74
1, 60239, Note_on_c, 0, 76, 0
1, 60240, Note_on_c, 0, 74, 75
1, 60263, Note_on_c, 0, 74, 0
1, 60264, Note_on_c, 0, 73, 76
1, 60281, Note_on_c, 1, 69, 0
1, 60287, Note_on_c, 0, 73, 0
1, 60288, Note_on_c, 0, 74, 76
1, 60288, Note_on_c, 1, 62, 78
1, 60333, Note_on_c, 1, 62, 0
1, 60336, Note_on_c, 1, 57, 80
1, 60356, Note_on_c, 1, 57, 0
1, 60377, Note_on_c, 0, 74, 0
1, 60384, Note_on_c, 1, 50, 80
1, 60429, Note_on_c, 1, 50, 0
1, 60432, Note_on_c, 0, 69, 80
1, 60444, Note_on_c, 0, 69, 0
1, 60444, Note_on_c, 0, 81, 80
1, 60477, Note_on_c, 0, 81, 0
1, 60480, Note_on_c, 0, 68, 79
1, 60486, Note_on_c, 0, 68, 0
1, 60486, Note_on_c, 0, 80, 79
1, 60525, Note_on_c, 0, 80, 0
1, 60528, Note_on_c, 1, 64, 78
1, 60528, Note_on_c, 1, 62, 78
1, 60548, Note_on_c, 1, 64, 0
1, 60548, Note_on_c, 1, 62, 0
1, 60576, Note_on_c, 1, 64, 78
1, 60576, Note_on_c, 1, 62, 78
1, 60600, Note_on_c, 0, 86, 77
1, 60623, Note_on_c, 0, 86, 0
1, 60624, Note_on_c, 0, 83, 77
1, 60647, Note_on_c, 0, 83, 0
1, 60648, Note_on_c, 0, 80, 76
1, 60665, Note_on_c, 1, 64, 0
1, 60665, Note_on_c, 1, 62, 0
1, 60671, Note_on_c, 0, 80, 0
1, 60672, Note_on_c, 0, 81, 76
1, 60720, Note_on_c, 1, 64, 76
1, 60720, Note_on_c, 1, 60, 76
1, 60740, Note_on_c, 1, 64, 0
1, 60740, Note_on_c, 1, 60, 0
1, 60761, Note_on_c, 0, 81, 0
1, 60768, Note_on_c, 1, 64, 75
1, 60768, Note_on_c, 1, 60, 75
1, 60816, Note_on_c, 0, 67, 74
1, 60828, Note_on_c, 0, 67, 0
1, 60828, Note_on_c, 0, 79, 74
1, 60857, Note_on_c, 1, 64, 0
1, 60857, Note_on_c, 1, 60, 0
1, 60861, Note_on_c, 0, 79, 0
1, 60864, Note_on_c, 0, 66, 73
1, 60876, Note_on_c, 0, 66, 0
1, 60876, Note_on_c, 0, 78, 73
1, 60909, Note_on_c, 0, 78, 0
1, 60912, Note_on_c, 1, 62, 73
1, 60912, Note_on_c, 1, 60, 73
1, 60932, Note_on_c, 1, 62, 0
1, 60932, Note_on_c, 1, 60, 0
1, 60960, Note_on_c, 1, 62, 72
1, 60960, Note_on_c, 1, 60, 72
1, 60984, Note_on_c, 0, 84, 72
1, 61007, Note_on_c, 0, 84, 0
1, 61008, Note_on_c, 0, 81, 71
1, 61031, Note_on_c, 0, 81, 0
1, 61032, Note_on_c, 0, 78, 71
1, 61049, Note_on_c, 1, 62, 0
1, 61049, Note_on_c, 1, 60, 0
1, 61055, Note_on_c, 0, 78, 0
1, 61056, Note_on_c, 0, 79, 71
1, 61104, Note_on_c, 1, 62, 71
1, 61104, Note_on_c, 1, 58, 71
1, 61124, Note_on_c, 1, 62, 0
1, 61124, Note_on_c, 1, 58, 0
1, 61145, Note_on_c, 0, 79, 0
1, 61152, Note_on_c, 1, 62, 70
1, 61152, Note_on_c, 1, 58, 70
1, 61200, Note_on_c, 0, 65, 69
1, 61212, Note_on_c, 0, 65, 0
1, 61212, Note_on_c, 0, 77, 69
1, 61241, Note_on_c, 1, 62, 0
1, 61241, Note_on_c, 1, 58, 0
1, 61245, Note_on_c, 0, 77, 0
1, 61248, Note_on_c, 0, 64, 68
1, 61260, Note_on_c, 0, 64, 0
1, 61260, Note_on_c, 0, 76, 68
1, 61293, Note_on_c, 0, 76, 0
1, 61296, Note_on_c, 1, 60, 68
1, 61296, Note_on_c, 1, 58, 68
1, 61316, Note_on_c, 1, 60, 0
1, 61316, Note_on_c, 1, 58, 0
1, 61344, Note_on_c, 1, 60, 67
1, 61344, Note_on_c, 1, 58, 67
1, 61368, Note_on_c, 0, 84, 66
1, 61391, Note_on_c, 0, 84, 0
1, 61392, Note_on_c, 0, 79, 66
1, 61415, Note_on_c, 0, 79, 0
1, 61416, Note_on_c, 0, 76, 66
1, 61433, Note_on_c, 1, 60, 0
1, 61433, Note_on_c, 1, 58, 0
1, 61439, Note_on_c, 0, 76, 0
1, 61440, Note_on_c, 0, 79, 65
1, 61488, Note_on_c, 1, 60, 65
1, 61488, Note_on_c, 1, 57, 65
1, 61508, Note_on_c, 1, 60, 0
1, 61508, Note_on_c, 1, 57, 0
1, 61536, Note_on_c, 0, 79, 0
1, 61536, Note_on_c, 0, 77, 64
1, 61536, Note_on_c, 1, 60, 65
1, 61536, Note_on_c, 1, 57, 65
1, 61559, Note_on_c, 0, 77, 0
1, 61560, Note_on_c, 0, 72, 64
1, 61583, Note_on_c, 0, 72, 0
1, 61584, Note_on_c, 0, 77, 67
1, 61607, Note_on_c, 0, 77, 0
1, 61608, Note_on_c, 0, 81, 70
1, 61625, Note_on_c, 1, 60, 0
1, 61625, Note_on_c, 1, 57, 0
1, 61631, Note_on_c, 0, 81, 0
1, 61632, Note_on_c, 0, 72, 73
1, 61652, Note_on_c, 0, 72, 0
1, 61680, Note_on_c, 0, 82, 96
1, 61680, Note_on_c, 0, 79, 96
1, 61680, Note_on_c, 1, 60, 80
1, 61680, Note_on_c, 1, 52, 80
1, 61700, Note_on_c, 1, 60, 0
1, 61700, Note_on_c, 1, 52, 0
1, 61728, Note_on_c, 1, 60, 76
1, 61728, Note_on_c, 1, 52, 76
1, 61748, Note_on_c, 1, 60, 0
1, 61748, Note_on_c, 1, 52, 0
1, 61776, Note_on_c, 0, 82, 0
1, 61776, Note_on_c, 0, 79, 0
1, 61776, Note_on_c, 0, 81, 73
1, 61776, Note_on_c, 0, 77, 73
1, 61776, Note_on_c, 1, 60, 73
1, 61776, Note_on_c, 1, 53, 73
1, 61796, Note_on_c, 1, 60, 0
1, 61796, Note_on_c, 1, 53, 0
1, 61821, Note_on_c, 0, 81, 0
1, 61821, Note_on_c, 0, 77, 0
1, 61824, Note_on_c, 0, 81, 70
1, 61824, Note_on_c, 0, 77, 70
1, 61824, Note_on_c, 1, 60, 70
1, 61869, Note_on_c, 1, 60, 0
1, 61872, Note_on_c, 0, 81, 0
1, 61872, Note_on_c, 0, 77, 0
1, 61872, Note_on_c, 0, 79, 67
1, 61872, Note_on_c, 0, 76, 67
1, 61872, Note_on_c, 1, 48, 67
1, 61917, Note_on_c, 0, 79, 0
1, 61917, Note_on_c, 0, 76, 0
1, 61917, Note_on_c, 1, 48, 0
1, 61968, Note_on_c, 0, 72, 80
1, 61988, Note_on_c, 0, 72, 0
1, 62016, Note_on_c, 0, 70, 96
1, 62016, Note_on_c, 1, 53, 80
1, 62040, Note_on_c, 0, 70, 0
1, 62040, Note_on_c, 0, 69, 80
1, 62061, Note_on_c, 1, 53, 0
1, 62063, Note_on_c, 0, 69, 0
1, 62064, Note_on_c, 0, 67, 80
1, 62064, Note_on_c, 1, 57, 80
1, 62087, Note_on_c, 0, 67, 0
1, 62088, Note_on_c, 0, 65, 80
1, 62109, Note_on_c, 1, 57, 0
1, 62111, Note_on_c, 0, 65, 0
1, 62112, Note_on_c, 0, 74, 80
1, 62112, Note_on_c, 1, 58, 80
1, 62132, Note_on_c, 0, 74, 0
1, 62157, Note_on_c, 1, 58, 0
1, 62160, Note_on_c, 1, 46, 80
1, 62205, Note_on_c, 1, 46, 0
1, 62208, Note_on_c, 0, 74, 96
1, 62208, Note_on_c, 1, 57, 80
1, 62232, Note_on_c, 0, 74, 0
1, 62232, Note_on_c, 0, 72, 80
1, 62253, Note_on_c, 1, 57, 0
1, 62255, Note_on_c, 0, 72, 0
1, 62256, Note_on_c, 0, 70, 80
1, 62256, Note_on_c, 1, 53, 80
1, 62279, Note_on_c, 0, 70, 0
1, 62280, Note_on_c, 0, 69, 80
1, 62301, Note_on_c, 1, 53, 0
1, 62303, Note_on_c, 0, 69, 0
1, 62304, Note_on_c, 0, 67, 80
1, 62304, Note_on_c, 1, 52, 80
1, 62324, Note_on_c, 0, 67, 0
1, 62349, Note_on_c, 1, 52, 0
1, 62352, Note_on_c, 1, 48, 80
1, 62397, Note_on_c, 1, 48, 0
1, 62400, Note_on_c, 0, 70, 96
1, 62400, Note_on_c, 1, 53, 80
1, 62424, Note_on_c, 0, 70, 0
1, 62424, Note_on_c, 0, 69, 80
1, 62447, Note_on_c, 0, 69, 0
1, 62448, Note_on_c, 0, 67, 80
1, 62471, Note_on_c, 0, 67, 0
1, 62472, Note_on_c, 0, 65, 80
1, 62489, Note_on_c, 1, 53, 0
1, 62495, Note_on_c, 0, 65, 0
1, 62496, Note_on_c, 0, 77, 80
1, 62516, Note_on_c, 0, 77, 0
1, 62544, Note_on_c, 0, 69, 80
1, 62544, Note_on_c, 1, 65, 80
1, 62568, Note_on_c, 0, 69, 0
1, 62568, Note_on_c, 0, 74, 80
1, 62589, Note_on_c, 1, 65, 0
1, 62591, Note_on_c, 0, 74, 0
1, 62592, Note_on_c, 0, 72, 80
1, 62592, Note_on_c, 1, 67, 80
1, 62604, Note_on_c, 0, 72, 0
1, 62604, Note_on_c, 0, 70, 80
1, 62616, Note_on_c, 0, 70, 0
1, 62616, Note_on_c, 0, 72, 80
1, 62628, Note_on_c, 0, 72, 0
1, 62628, Note_on_c, 0, 70, 80
1, 62637, Note_on_c, 1, 67, 0
1, 62640, Note_on_c, 0, 70, 0
1, 62640, Note_on_c, 0, 72, 80
1, 62640, Note_on_c, 1, 60, 80
1, 62652, Note_on_c, 0, 72, 0
1, 62652, Note_on_c, 0, 70, 80
1, 62664, Note_on_c, 0, 70, 0
1, 62664, Note_on_c, 0, 69, 80
1, 62676, Note_on_c, 0, 69, 0
1, 62676, Note_on_c, 0, 70, 80
1, 62685, Note_on_c, 1, 60, 0
1, 62688, Note_on_c, 0, 70, 0
1, 62688, Note_on_c, 0, 69, 80
1, 62688, Note_on_c, 1, 65, 80
1, 62733, Note_on_c, 0, 69, 0
1, 62733, Note_on_c, 1, 65, 0
1, 62736, Note_on_c, 0, 72, 70
1, 62756, Note_on_c, 0, 72, 0
1, 62784, Note_on_c, 0, 70, 86
1, 62784, Note_on_c, 1, 53, 70
1, 62808, Note_on_c, 0, 70, 0
1, 62808, Note_on_c, 0, 68, 70
1, 62829, Note_on_c, 1, 53, 0
1, 62831, Note_on_c, 0, 68, 0
1, 62832, Note_on_c, 0, 67, 70
1, 62832, Note_on_c, 1, 56, 70
1, 62855, Note_on_c, 0, 67, 0
1, 62856, Note_on_c, 0, 65, 70
1, 62877, Note_on_c, 1, 56, 0
1, 62879, Note_on_c, 0, 65, 0
1, 62880, Note_on_c, 0, 73, 70
1, 62880, Note_on_c, 1, 58, 70
1, 62900, Note_on_c, 0, 73, 0
1, 62925, Note_on_c, 1, 58, 0
1, 62928, Note_on_c, 1, 53, 70
1, 62973, Note_on_c, 1, 53, 0
1, 62976, Note_on_c, 0, 73, 86
1, 62976, Note_on_c, 1, 56, 70
1, 63000, Note_on_c, 0, 73, 0
1, 63000, Note_on_c, 0, 72, 70
1, 63021, Note_on_c, 1, 56, 0
1, 63023, Note_on_c, 0, 72, 0
1, 63024, Note_on_c, 0, 70, 70
1, 63024, Note_on_c, 1, 53, 70
1, 63047, Note_on_c, 0, 70, 0
1, 63048, Note_on_c, 0, 68, 70
1, 63069, Note_on_c, 1, 53, 0
1, 63071, Note_on_c, 0, 68, 0
1, 63072, Note_on_c, 0, 67, 70
1, 63072, Note_on_c, 1, 55, 70
1, 63092, Note_on_c, 0, 67, 0
1, 63117, Note_on_c, 1, 55, 0
1, 63120, Note_on_c, 1, 48, 70
1, 63165, Note_on_c, 1, 48, 0
1, 63168, Note_on_c, 0, 70, 86
1, 63168, Note_on_c, 1, 53, 70
1, 63192, Note_on_c, 0, 70, 0
1, 63192, Note_on_c, 0, 68, 70
1, 63213, Note_on_c, 1, 53, 0
1, 63215, Note_on_c, 0, 68, 0
1, 63216, Note_on_c, 0, 67, 70
1, 63216, Note_on_c, 1, 56, 70
1, 63239, Note_on_c, 0, 67, 0
1, 63240, Note_on_c, 0, 65, 70
1, 63261, Note_on_c, 1, 56, 0
1, 63263, Note_on_c, 0, 65, 0
1, 63264, Note_on_c, 0, 75, 86
1, 63264, Note_on_c, 1, 58, 70
1, 63288, Note_on_c, 0, 75, 0
1, 63288, Note_on_c, 0, 73, 70
1, 63309, Note_on_c, 1, 58, 0
1, 63311, Note_on_c, 0, 73, 0
1, 63312, Note_on_c, 0, 72, 70
1, 63312, Note_on_c, 1, 53, 70
1, 63335, Note_on_c, 0, 72, 0
1, 63336, Note_on_c, 0, 70, 70
1, 63357, Note_on_c, 1, 53, 0
1, 63359, Note_on_c, 0, 70, 0
1, 63360, Note_on_c, 0, 73, 86
1, 63360, Note_on_c, 1, 56, 70
1, 63384, Note_on_c, 0, 73, 0
1, 63384, Note_on_c, 0, 72, 70
1, 63405, Note_on_c, 1, 56, 0
1, 63407, Note_on_c, 0, 72, 0
1, 63408, Note_on_c, 0, 70, 70
1, 63408, Note_on_c, 1, 53, 70
1, 63431, Note_on_c, 0, 70, 0
1, 63432, Note_on_c, 0, 68, 70
1, 63453, Note_on_c, 1, 53, 0
1, 63455, Note_on_c, 0, 68, 0
1, 63456, Note_on_c, 0, 72, 86
1, 63456, Note_on_c, 1, 55, 70
1, 63480, Note_on_c, 0, 72, 0
1, 63480, Note_on_c, 0, 70, 70
1, 63501, Note_on_c, 1, 55, 0
1, 63503, Note_on_c, 0, 70, 0
1, 63504, Note_on_c, 0, 68, 70
1, 63504, Note_on_c, 1, 48, 70
1, 63527, Note_on_c, 0, 68, 0
1, 63528, Note_on_c, 0, 67, 70
1, 63549, Note_on_c, 1, 48, 0
1, 63551, Note_on_c, 0, 67, 0
1, 63552, Note_on_c, 0, 70, 86
1, 63552, Note_on_c, 1, 53, 70
1, 63576, Note_on_c, 0, 70, 0
1, 63576, Note_on_c, 0, 68, 70
1, 63597, Note_on_c, 1, 53, 0
1, 63599, Note_on_c, 0, 68, 0
1, 63600, Note_on_c, 0, 67, 70
1, 63600, Note_on_c, 1, 56, 70
1, 63623, Note_on_c, 0, 67, 0
1, 63624, Note_on_c, 0, 65, 71
1, 63645, Note_on_c, 1, 56, 0
1, 63647, Note_on_c, 0, 65, 0
1, 63648, Note_on_c, 0, 75, 87
1, 63648, Note_on_c, 1, 58, 71
1, 63672, Note_on_c, 0, 75, 0
1, 63672, Note_on_c, 0, 73, 72
1, 63693, Note_on_c, 1, 58, 0
1, 63695, Note_on_c, 0, 73, 0
1, 63696, Note_on_c, 0, 72, 72
1, 63696, Note_on_c, 1, 53, 72
1, 63719, Note_on_c, 0, 72, 0
1, 63720, Note_on_c, 0, 70, 72
1, 63741, Note_on_c, 1, 53, 0
1, 63743, Note_on_c, 0, 70, 0
1, 63744, Note_on_c, 0, 73, 89
1, 63744, Note_on_c, 1, 56, 73
1, 63768, Note_on_c, 0, 73, 0
1, 63768, Note_on_c, 0, 72, 73
1, 63789, Note_on_c, 1, 56, 0
1, 63791, Note_on_c, 0, 72, 0
1, 63792, Note_on_c, 0, 70, 74
1, 63792, Note_on_c, 1, 53, 74
1, 63815, Note_on_c, 0, 70, 0
1, 63816, Note_on_c, 0, 68, 74
1, 63837, Note_on_c, 1, 53, 0
1, 63839, Note_on_c, 0, 68, 0
1, 63840, Note_on_c, 0, 72, 91
1, 63840, Note_on_c, 1, 55, 75
1, 63864, Note_on_c, 0, 72, 0
1, 63864, Note_on_c, 0, 70, 75
1, 63885, Note_on_c, 1, 55, 0
1, 63887, Note_on_c, 0, 70, 0
1, 63888, Note_on_c, 0, 68, 75
1, 63888, Note_on_c, 1, 48, 75
1, 63911, Note_on_c, 0, 68, 0
1, 63912, Note_on_c, 0, 67, 76
1, 63933, Note_on_c, 1, 48, 0
1, 63935, Note_on_c, 0, 67, 0
1, 63936, Note_on_c, 0, 70, 92
1, 63936, Note_on_c, 1, 53, 76
1, 63960, Note_on_c, 0, 70, 0
1, 63960, Note_on_c, 0, 68, 77
1, 63983, Note_on_c, 0, 68, 0
1, 63984, Note_on_c, 0, 67, 77
1, 64007, Note_on_c, 0, 67, 0
1, 64008, Note_on_c, 0, 65, 77
1, 64025, Note_on_c, 1, 53, 0
1, 64031, Note_on_c, 0, 65, 0
1, 64032, Note_on_c, 0, 77, 78
1, 64052, Note_on_c, 0, 77, 0
1, 64080, Note_on_c, 0, 71, 79
1, 64080, Note_on_c, 0, 65, 79
1, 64080, Note_on_c, 1, 49, 79
1, 64080, Note_on_c, 1, 37, 79
1, 64100, Note_on_c, 0, 71, 0
1, 64100, Note_on_c, 0, 65, 0
1, 64100, Note_on_c, 1, 49, 0
1, 64100, Note_on_c, 1, 37, 0
1, 64128, Note_on_c, 0, 72, 80
1, 64128, Note_on_c, 0, 64, 80
1, 64128, Note_on_c, 1, 48, 80
1, 64128, Note_on_c, 1, 36, 80
1, 64217, Note_on_c, 0, 72, 0
1, 64217, Note_on_c, 0, 64, 0
1, 64217, Note_on_c, 1, 48, 0
1, 64217, Note_on_c, 1, 36, 0
1, 64272, Note_on_c, 0, 60, 75
1, 64317, Note_on_c, 0, 60, 0
1, 64320, Note_on_c, 0, 60, 75
1, 64368, Note_on_c, 1, 57, 75
1, 64413, Note_on_c, 1, 57, 0
1, 64416, Note_on_c, 1, 55, 75
1, 64453, Note_on_c, 0, 60, 0
1, 64461, Note_on_c, 1, 55, 0
1, 64464, Note_on_c, 0, 69, 75
1, 64464, Note_on_c, 1, 53, 75
1, 64487, Note_on_c, 0, 69, 0
1, 64488, Note_on_c, 0, 65, 75
1, 64509, Note_on_c, 1, 53, 0
1, 64511, Note_on_c, 0, 65, 0
1, 64512, Note_on_c, 0, 60, 75
1, 64560, Note_on_c, 1, 52, 75
1, 64605, Note_on_c, 1, 52, 0
1, 64608, Note_on_c, 1, 50, 75
1, 64645, Note_on_c, 0, 60, 0
1, 64653, Note_on_c, 1, 50, 0
1, 64656, Note_on_c, 0, 70, 75
1, 64656, Note_on_c, 1, 48, 75
1, 64679, Note_on_c, 0, 70, 0
1, 64680, Note_on_c, 0, 67, 75
1, 64701, Note_on_c, 1, 48, 0
1, 64703, Note_on_c, 0, 67, 0
1, 64704, Note_on_c, 0, 69, 75
1, 64704, Note_on_c, 1, 53, 75
1, 64727, Note_on_c, 0, 69, 0
1, 64728, Note_on_c, 0, 65, 75
1, 64749, Note_on_c, 1, 53, 0
1, 64751, Note_on_c, 0, 65, 0
1, 64752, Note_on_c, 0, 70, 75
1, 64752, Note_on_c, 1, 55, 75
1, 64775, Note_on_c, 0, 70, 0
1, 64776, Note_on_c, 0, 65, 75
1, 64797, Note_on_c, 1, 55, 0
1, 64799, Note_on_c, 0, 65, 0
1, 64800, Note_on_c, 0, 72, 75
1, 64800, Note_on_c, 1, 57, 75
1, 64820, Note_on_c, 0, 72, 0
1, 64820, Note_on_c, 1, 57, 0
1, 64848, Note_on_c, 0, 60, 64
1, 64868, Note_on_c, 0, 60, 0
1, 64896, Note_on_c, 0, 60, 64
1, 64944, Note_on_c, 1, 57, 64
1, 64989, Note_on_c, 1, 57, 0
1, 64992, Note_on_c, 1, 55, 64
1, 65015, Note_on_c, 0, 60, 0
1, 65016, Note_on_c, 0, 64, 64
1, 65037, Note_on_c, 1, 55, 0
1, 65039, Note_on_c, 0, 64, 0
1, 65040, Note_on_c, 0, 65, 64
1, 65040, Note_on_c, 1, 53, 64
1, 65063, Note_on_c, 0, 65, 0
1, 65064, Note_on_c, 0, 69, 64
1, 65085, Note_on_c, 1, 53, 0
1, 65087, Note_on_c, 0, 69, 0
1, 65088, Note_on_c, 0, 60, 64
1, 65136, Note_on_c, 1, 52, 64
1, 65181, Note_on_c, 1, 52, 0
1, 65184, Note_on_c, 1, 50, 64
1, 65207, Note_on_c, 0, 60, 0
1, 65208, Note_on_c, 0, 64, 64
1, 65229, Note_on_c, 1, 50, 0
1, 65231, Note_on_c, 0, 64, 0
1, 65232, Note_on_c, 0, 67, 64
1, 65232, Note_on_c, 1, 48, 64
1, 65255, Note_on_c, 0, 67, 0
1, 65256, Note_on_c, 0, 70, 64
1, 65277, Note_on_c, 1, 48, 0
1, 65279, Note_on_c, 0, 70, 0
1, 65280, Note_on_c, 0, 69, 64
1, 65280, Note_on_c, 1, 53, 64
1, 65303, Note_on_c, 0, 69, 0
1, 65304, Note_on_c, 0, 65, 64
1, 65325, Note_on_c, 1, 53, 0
1, 65327, Note_on_c, 0, 65, 0
1, 65328, Note_on_c, 0, 70, 64
1, 65328, Note_on_c, 1, 55, 64
1, 65351, Note_on_c, 0, 70, 0
1, 65352, Note_on_c, 0, 65, 64
1, 65373, Note_on_c, 1, 55, 0
1, 65375, Note_on_c, 0, 65, 0
1, 65376, Note_on_c, 0, 72, 64
1, 65376, Note_on_c, 1, 57, 64
1, 65396, Note_on_c, 0, 72, 0
1, 65421, Note_on_c, 1, 57, 0
1, 65424, Note_on_c, 0, 77, 80
1, 65469, Note_on_c, 0, 77, 0
1, 65472, Note_on_c, 0, 76, 80
1, 65520, Note_on_c, 1, 65, 80
1, 65520, Note_on_c, 1, 58, 80
1, 65540, Note_on_c, 1, 65, 0
1, 65540, Note_on_c, 1, 58, 0
1, 65568, Note_on_c, 0, 76, 0
1, 65568, Note_on_c, 0, 74, 80
1, 65568, Note_on_c, 1, 65, 80
1, 65568, Note_on_c, 1, 58, 80
1, 65588, Note_on_c, 1, 65, 0
1, 65588, Note_on_c, 1, 58, 0
1, 65613, Note_on_c, 0, 74, 0
1, 65616, Note_on_c, 0, 77, 80
1, 65636, Note_on_c, 0, 77, 0
1, 65664, Note_on_c, 0, 74, 80
1, 65712, Note_on_c, 1, 65, 80
1, 65712, Note_on_c, 1, 57, 80
1, 65732, Note_on_c, 1, 65, 0
1, 65732, Note_on_c, 1, 57, 0
1, 65760, Note_on_c, 0, 74, 0
1, 65760, Note_on_c, 0, 72, 80
1, 65760, Note_on_c, 1, 65, 80
1, 65760, Note_on_c, 1, 57, 80
1, 65780, Note_on_c, 1, 65, 0
1, 65780, Note_on_c, 1, 57, 0
1, 65783, Note_on_c, 0, 72, 0
1, 65784, Note_on_c, 0, 77, 80
1, 65807, Note_on_c, 0, 77, 0
1, 65808, Note_on_c, 0, 81, 80
1, 65831, Note_on_c, 0, 81, 0
1, 65832, Note_on_c, 0, 84, 80
1, 65855, Note_on_c, 0, 84, 0
1, 65856, Note_on_c, 0, 72, 80
1, 65904, Note_on_c, 1, 57, 80
1, 65904, Note_on_c, 1, 48, 80
1, 65924, Note_on_c, 1, 57, 0
1, 65924, Note_on_c, 1, 48, 0
1, 65952, Note_on_c, 0, 72, 0
1, 65952, Note_on_c, 0, 70, 80
1, 65952, Note_on_c, 1, 55, 80
1, 65952, Note_on_c, 1, 48, 80
1, 65972, Note_on_c, 1, 55, 0
1, 65972, Note_on_c, 1, 48, 0
1, 65997, Note_on_c, 0, 70, 0
1, 66000, Note_on_c, 0, 69, 80
1, 66000, Note_on_c, 1, 53, 80
1, 66000, Note_on_c, 1, 48, 80
1, 66020, Note_on_c, 0, 69, 0
1, 66020, Note_on_c, 1, 53, 0
1, 66020, Note_on_c, 1, 48, 0
1, 66048, Note_on_c, 0, 69, 80
1, 66048, Note_on_c, 1, 53, 80
1, 66048, Note_on_c, 1, 48, 64
1, 66060, Note_on_c, 0, 69, 0
1, 66060, Note_on_c, 0, 70, 80
1, 66072, Note_on_c, 0, 70, 0
1, 66072, Note_on_c, 0, 69, 80
1, 66096, Note_on_c, 0, 69, 0
1, 66096, Note_on_c, 0, 67, 80
1, 66096, Note_on_c, 1, 53, 0
1, 66096, Note_on_c, 1, 52, 80
1, 66137, Note_on_c, 1, 48, 0
1, 66141, Note_on_c, 0, 67, 0
1, 66141, Note_on_c, 1, 52, 0
1, 66192, Note_on_c, 0, 72, 75
1, 66212, Note_on_c, 0, 72, 0
1, 66240, Note_on_c, 0, 70, 91
1, 66264, Note_on_c, 0, 70, 0
1, 66264, Note_on_c, 0, 69, 75
1, 66287, Note_on_c, 0, 69, 0
1, 66288, Note_on_c, 0, 67, 75
1, 66311, Note_on_c, 0, 67, 0
1, 66312, Note_on_c, 0, 65, 75
1, 66335, Note_on_c, 0, 65, 0
1, 66336, Note_on_c, 0, 77, 75
1, 66356, Note_on_c, 0, 77, 0
1, 66384, Note_on_c, 0, 65, 75
1, 66384, Note_on_c, 1, 57, 75
1, 66404, Note_on_c, 0, 65, 0
1, 66407, Note_on_c, 1, 57, 0
1, 66408, Note_on_c, 1, 60, 75
1, 66431, Note_on_c, 1, 60, 0
1, 66432, Note_on_c, 0, 64, 75
1, 66432, Note_on_c, 1, 58, 75
1, 66455, Note_on_c, 1, 58, 0
1, 66456, Note_on_c, 1, 60, 75
1, 66479, Note_on_c, 1, 60, 0
1, 66480, Note_on_c, 0, 64, 0
1, 66480, Note_on_c, 0, 65, 75
1, 66480, Note_on_c, 1, 57, 75
1, 66503, Note_on_c, 1, 57, 0
1, 66504, Note_on_c, 1, 60, 75
1, 66525, Note_on_c, 0, 65, 0
1, 66527, Note_on_c, 1, 60, 0
1, 66528, Note_on_c, 0, 64, 75
1, 66528, Note_on_c, 1, 58, 75
1, 66551, Note_on_c, 1, 58, 0
1, 66552, Note_on_c, 1, 60, 75
1, 66575, Note_on_c, 1, 60, 0
1, 66576, Note_on_c, 0, 64, 0
1, 66576, Note_on_c, 0, 65, 75
1, 66576, Note_on_c, 1, 57, 75
1, 66599, Note_on_c, 1, 57, 0
1, 66600, Note_on_c, 1, 60, 75
1, 66621, Note_on_c, 0, 65, 0
1, 66623, Note_on_c, 1, 60, 0
1, 66624, Note_on_c, 0, 70, 75
1, 66624, Note_on_c, 1, 55, 75
1, 66647, Note_on_c, 0, 70, 0
1, 66648, Note_on_c, 0, 74, 75
1, 66669, Note_on_c, 1, 55, 0
1, 66671, Note_on_c, 0, 74, 0
1, 66672, Note_on_c, 0, 67, 75
1, 66672, Note_on_c, 1, 64, 75
1, 66695, Note_on_c, 0, 67, 0
1, 66696, Note_on_c, 0, 70, 75
1, 66717, Note_on_c, 1, 64, 0
1, 66719, Note_on_c, 0, 70, 0
1, 66720, Note_on_c, 0, 69, 75
1, 66720, Note_on_c, 1, 65, 75
1, 66740, Note_on_c, 0, 69, 0
1, 66740, Note_on_c, 1, 65, 0
1, 66768, Note_on_c, 0, 72, 64
1, 66788, Note_on_c, 0, 72, 0
1, 66816, Note_on_c, 0, 70, 80
1, 66840, Note_on_c, 0, 70, 0
1, 66840, Note_on_c, 0, 69, 64
1, 66863, Note_on_c, 0, 69, 0
1, 66864, Note_on_c, 0, 67, 64
1, 66887, Note_on_c, 0, 67, 0
1, 66888, Note_on_c, 0, 65, 64
1, 66911, Note_on_c, 0, 65, 0
1, 66912, Note_on_c, 0, 77, 64
1, 66932, Note_on_c, 0, 77, 0
1, 66960, Note_on_c, 0, 65, 64
1, 66960, Note_on_c, 1, 57, 64
1, 66980, Note_on_c, 0, 65, 0
1, 66983, Note_on_c, 1, 57, 0
1, 66984, Note_on_c, 1, 60, 64
1, 67007, Note_on_c, 1, 60, 0
1, 67008, Note_on_c, 0, 64, 64
1, 67008, Note_on_c, 1, 58, 64
1, 67031, Note_on_c, 1, 58, 0
1, 67032, Note_on_c, 1, 60, 64
1, 67055, Note_on_c, 1, 60, 0
1, 67056, Note_on_c, 0, 64, 0
1, 67056, Note_on_c, 0, 65, 64
1, 67056, Note_on_c, 1, 57, 64
1, 67079, Note_on_c, 1, 57, 0
1, 67080, Note_on_c, 1, 60, 64
1, 67101, Note_on_c, 0, 65, 0
1, 67103, Note_on_c, 1, 60, 0
1, 67104, Note_on_c, 0, 64, 64
1, 67104, Note_on_c, 1, 58, 64
1, 67127, Note_on_c, 1, 58, 0
1, 67128, Note_on_c, 1, 60, 64
1, 67151, Note_on_c, 1, 60, 0
1, 67152, Note_on_c, 0, 64, 0
1, 67152, Note_on_c, 0, 65, 64
1, 67152, Note_on_c, 1, 57, 64
1, 67175, Note_on_c, 1, 57, 0
1, 67176, Note_on_c, 1, 60, 64
1, 67197, Note_on_c, 0, 65, 0
1, 67199, Note_on_c, 1, 60, 0
1, 67200, Note_on_c, 0, 70, 64
1, 67200, Note_on_c, 1, 55, 64
1, 67223, Note_on_c, 0, 70, 0
1, 67224, Note_on_c, 0, 74, 64
1, 67245, Note_on_c, 1, 55, 0
1, 67247, Note_on_c, 0, 74, 0
1, 67248, Note_on_c, 0, 67, 64
1, 67248, Note_on_c, 1, 52, 64
1, 67271, Note_on_c, 0, 67, 0
1, 67272, Note_on_c, 0, 70, 64
1, 67293, Note_on_c, 1, 52, 0
1, 67295, Note_on_c, 0, 70, 0
1, 67296, Note_on_c, 0, 69, 64
1, 67296, Note_on_c, 1, 53, 64
1, 67319, Note_on_c, 0, 69, 0
1, 67320, Note_on_c, 0, 72, 64
1, 67341, Note_on_c, 1, 53, 0
1, 67343, Note_on_c, 0, 72, 0
1, 67344, Note_on_c, 0, 65, 64
1, 67344, Note_on_c, 1, 57, 64
1, 67367, Note_on_c, 0, 65, 0
1, 67368, Note_on_c, 0, 69, 64
1, 67389, Note_on_c, 1, 57, 0
1, 67391, Note_on_c, 0, 69, 0
1, 67392, Note_on_c, 0, 67, 64
1, 67392, Note_on_c, 1, 58, 64
1, 67415, Note_on_c, 0, 67, 0
1, 67416, Note_on_c, 0, 70, 64
1, 67437, Note_on_c, 1, 58, 0
1, 67439, Note_on_c, 0, 70, 0
1, 67440, Note_on_c, 0, 64, 64
1, 67440, Note_on_c, 1, 55, 64
1, 67463, Note_on_c, 0, 64, 0
1, 67464, Note_on_c, 0, 67, 64
1, 67485, Note_on_c, 1, 55, 0
1, 67487, Note_on_c, 0, 67, 0
1, 67488, Note_on_c, 0, 65, 64
1, 67488, Note_on_c, 1, 57, 64
1, 67511, Note_on_c, 0, 65, 0
1, 67512, Note_on_c, 0, 69, 64
1, 67533, Note_on_c, 1, 57, 0
1, 67535, Note_on_c, 0, 69, 0
1, 67536, Note_on_c, 0, 72, 64
1, 67536, Note_on_c, 1, 53, 64
1, 67559, Note_on_c, 0, 72, 0
1, 67560, Note_on_c, 0, 69, 64
1, 67581, Note_on_c, 1, 53, 0
1, 67583, Note_on_c, 0, 69, 0
1, 67584, Note_on_c, 0, 70, 64
1, 67584, Note_on_c, 1, 55, 64
1, 67607, Note_on_c, 0, 70, 0
1, 67608, Note_on_c, 0, 74, 64
1, 67629, Note_on_c, 1, 55, 0
1, 67631, Note_on_c, 0, 74, 0
1, 67632, Note_on_c, 0, 67, 65
1, 67632, Note_on_c, 1, 52, 65
1, 67655, Note_on_c, 0, 67, 0
1, 67656, Note_on_c, 0, 70, 65
1, 67677, Note_on_c, 1, 52, 0
1, 67679, Note_on_c, 0, 70, 0
1, 67680, Note_on_c, 0, 69, 66
1, 67680, Note_on_c, 1, 53, 66
1, 67703, Note_on_c, 0, 69, 0
1, 67704, Note_on_c, 0, 72, 66
1, 67725, Note_on_c, 1, 53, 0
1, 67727, Note_on_c, 0, 72, 0
1, 67728, Note_on_c, 0, 65, 67
1, 67728, Note_on_c, 1, 57, 67
1, 67751, Note_on_c, 0, 65, 0
1, 67752, Note_on_c, 0, 69, 67
1, 67773, Note_on_c, 1, 57, 0
1, 67775, Note_on_c, 0, 69, 0
1, 67776, Note_on_c, 0, 67, 68
1, 67776, Note_on_c, 1, 58, 68
1, 67799, Note_on_c, 0, 67, 0
1, 67800, Note_on_c, 0, 70, 68
1, 67821, Note_on_c, 1, 58, 0
1, 67823, Note_on_c, 0, 70, 0
1, 67824, Note_on_c, 0, 64, 69
1, 67824, Note_on_c, 1, 60, 70
1, 67847, Note_on_c, 0, 64, 0
1, 67848, Note_on_c, 0, 67, 70
1, 67869, Note_on_c, 1, 60, 0
1, 67871, Note_on_c, 0, 67, 0
1, 67872, Note_on_c, 0, 65, 70
1, 67872, Note_on_c, 1, 53, 71
1, 67895, Note_on_c, 0, 65, 0
1, 67896, Note_on_c, 0, 69, 71
1, 67917, Note_on_c, 1, 53, 0
1, 67919, Note_on_c, 0, 69, 0
1, 67920, Note_on_c, 0, 72, 71
1, 67943, Note_on_c, 0, 72, 0
1, 67944, Note_on_c, 0, 77, 72
1, 67967, Note_on_c, 0, 77, 0
1, 67968, Note_on_c, 0, 72, 88
1, 68016, Note_on_c, 1, 53, 75
1, 68016, Note_on_c, 1, 49, 75
1, 68036, Note_on_c, 1, 53, 0
1, 68036, Note_on_c, 1, 49, 0
1, 68064, Note_on_c, 0, 72, 0
1, 68064, Note_on_c, 0, 71, 75
1, 68064, Note_on_c, 1, 53, 75
1, 68064, Note_on_c, 1, 49, 75
1, 68084, Note_on_c, 1, 53, 0
1, 68084, Note_on_c, 1, 49, 0
1, 68087, Note_on_c, 0, 71, 0
1, 68088, Note_on_c, 0, 65, 75
1, 68111, Note_on_c, 0, 65, 0
1, 68112, Note_on_c, 0, 71, 75
1, 68135, Note_on_c, 0, 71, 0
1, 68136, Note_on_c, 0, 77, 75
1, 68159, Note_on_c, 0, 77, 0
1, 68160, Note_on_c, 0, 72, 91
1, 68208, Note_on_c, 1, 53, 76
1, 68208, Note_on_c, 1, 49, 76
1, 68228, Note_on_c, 1, 53, 0
1, 68228, Note_on_c, 1, 49, 0
1, 68256, Note_on_c, 0, 72, 0
1, 68256, Note_on_c, 0, 71, 76
1, 68256, Note_on_c, 1, 53, 77
1, 68256, Note_on_c, 1, 49, 77
1, 68276, Note_on_c, 1, 53, 0
1, 68276, Note_on_c, 1, 49, 0
1, 68279, Note_on_c, 0, 71, 0
1, 68280, Note_on_c, 0, 65, 77
1, 68303, Note_on_c, 0, 65, 0
1, 68304, Note_on_c, 0, 71, 77
1, 68327, Note_on_c, 0, 71, 0
1, 68328, Note_on_c, 0, 77, 77
1, 68351, Note_on_c, 0, 77, 0
1, 68352, Note_on_c, 0, 72, 94
1, 68400, Note_on_c, 1, 53, 80
1, 68400, Note_on_c, 1, 49, 80
1, 68420, Note_on_c, 1, 53, 0
1, 68420, Note_on_c, 1, 49, 0
1, 68448, Note_on_c, 0, 72, 0
1, 68448, Note_on_c, 0, 71, 80
1, 68448, Note_on_c, 1, 53, 80
1, 68448, Note_on_c, 1, 49, 80
1, 68468, Note_on_c, 1, 53, 0
1, 68468, Note_on_c, 1, 49, 0
1, 68471, Note_on_c, 0, 71, 0
1, 68472, Note_on_c, 0, 80, 80
1, 68495, Note_on_c, 0, 80, 0
1, 68496, Note_on_c, 0, 79, 80
1, 68519, Note_on_c, 0, 79, 0
1, 68520, Note_on_c, 0, 77, 80
1, 68543, Note_on_c, 0, 77, 0
1, 68544, Note_on_c, 0, 77, 96
1, 68592, Note_on_c, 1, 55, 80
1, 68592, Note_on_c, 1, 48, 80
1, 68612, Note_on_c, 1, 55, 0
1, 68612, Note_on_c, 1, 48, 0
1, 68640, Note_on_c, 0, 77, 0
1, 68640, Note_on_c, 0, 76, 80
1, 68640, Note_on_c, 1, 55, 80
1, 68640, Note_on_c, 1, 48, 80
1, 68660, Note_on_c, 1, 55, 0
1, 68660, Note_on_c, 1, 48, 0
1, 68663, Note_on_c, 0, 76, 0
1, 68664, Note_on_c, 0, 79, 80
1, 68687, Note_on_c, 0, 79, 0
1, 68688, Note_on_c, 0, 76, 80
1, 68711, Note_on_c, 0, 76, 0
1, 68712, Note_on_c, 0, 74, 80
1, 68735, Note_on_c, 0, 74, 0
1, 68736, Note_on_c, 0, 74, 96
1, 68784, Note_on_c, 1, 55, 80
1, 68784, Note_on_c, 1, 52, 80
1, 68804, Note_on_c, 1, 55, 0
1, 68804, Note_on_c, 1, 52, 0
1, 68832, Note_on_c, 0, 74, 0
1, 68832, Note_on_c, 0, 72, 80
1, 68832, Note_on_c, 1, 55, 80
1, 68832, Note_on_c, 1, 52, 80
1, 68852, Note_on_c, 1, 55, 0
1, 68852, Note_on_c, 1, 52, 0
1, 68855, Note_on_c, 0, 72, 0
1, 68856, Note_on_c, 0, 79, 80
1, 68879, Note_on_c, 0, 79, 0
1, 68880, Note_on_c, 0, 72, 79
1, 68903, Note_on_c, 0, 72, 0
1, 68904, Note_on_c, 0, 70, 78
1, 68927, Note_on_c, 0, 70, 0
1, 68928, Note_on_c, 0, 70, 93
1, 68976, Note_on_c, 1, 60, 75
1, 68976, Note_on_c, 1, 53, 75
1, 68996, Note_on_c, 1, 60, 0
1, 68996, Note_on_c, 1, 53, 0
1, 69024, Note_on_c, 0, 70, 0
1, 69024, Note_on_c, 0, 69, 75
1, 69024, Note_on_c, 1, 60, 75
1, 69024, Note_on_c, 1, 53, 75
1, 69044, Note_on_c, 1, 60, 0
1, 69044, Note_on_c, 1, 53, 0
1, 69047, Note_on_c, 0, 69, 0
1, 69048, Note_on_c, 0, 72, 75
1, 69071, Note_on_c, 0, 72, 0
1, 69072, Note_on_c, 0, 69, 73
1, 69095, Note_on_c, 0, 69, 0
1, 69096, Note_on_c, 0, 65, 71
1, 69119, Note_on_c, 0, 65, 0
1, 69120, Note_on_c, 0, 74, 70
1, 69120, Note_on_c, 1, 53, 75
1, 69120, Note_on_c, 1, 46, 75
1, 69165, Note_on_c, 0, 74, 0
1, 69165, Note_on_c, 1, 53, 0
1, 69165, Note_on_c, 1, 46, 0
1, 69168, Note_on_c, 0, 62, 71
1, 69180, Note_on_c, 0, 62, 0
1, 69180, Note_on_c, 0, 74, 71
1, 69213, Note_on_c, 0, 74, 0
1, 69216, Note_on_c, 0, 62, 73
1, 69228, Note_on_c, 0, 62, 0
1, 69228, Note_on_c, 0, 74, 73
1, 69261, Note_on_c, 0, 74, 0
1, 69264, Note_on_c, 0, 62, 75
1, 69276, Note_on_c, 0, 62, 0
1, 69276, Note_on_c, 0, 74, 75
1, 69309, Note_on_c, 0, 74, 0
1, 69312, Note_on_c, 0, 62, 73
1, 69324, Note_on_c, 0, 62, 0
1, 69324, Note_on_c, 0, 74, 73
1, 69401, Note_on_c, 0, 74, 0
1, 69504, Note_on_c, 1, 46, 80
1, 69504, Note_on_c, 1, 34, 80
1, 69552, Note_on_c, 0, 62, 80
1, 69576, Note_on_c, 0, 62, 0
1, 69576, Note_on_c, 0, 67, 80
1, 69593, Note_on_c, 1, 46, 0
1, 69593, Note_on_c, 1, 34, 0
1, 69599, Note_on_c, 0, 67, 0
1, 69600, Note_on_c, 0, 67, 80
1, 69624, Note_on_c, 0, 67, 0
1, 69624, Note_on_c, 0, 70, 80
1, 69647, Note_on_c, 0, 70, 0
1, 69648, Note_on_c, 0, 70, 80
1, 69672, Note_on_c, 0, 70, 0
1, 69672, Note_on_c, 0, 74, 80
1, 69695, Note_on_c, 0, 74, 0
1, 69696, Note_on_c, 0, 74, 80
1, 69720, Note_on_c, 0, 74, 0
1, 69720, Note_on_c, 0, 79, 80
1, 69743, Note_on_c, 0, 79, 0
1, 69744, Note_on_c, 0, 79, 80
1, 69768, Note_on_c, 0, 79, 0
1, 69768, Note_on_c, 0, 82, 80
1, 69791, Note_on_c, 0, 82, 0
1, 69792, Note_on_c, 0, 82, 80
1, 69816, Note_on_c, 0, 82, 0
1, 69816, Note_on_c, 0, 86, 80
1, 69839, Note_on_c, 0, 86, 0
1, 69840, Note_on_c, 0, 86, 80
1, 69840, Note_on_c, 1, 64, 80
1, 69860, Note_on_c, 1, 64, 0
1, 69864, Note_on_c, 0, 86, 0
1, 69864, Note_on_c, 0, 82, 80
1, 69887, Note_on_c, 0, 82, 0
1, 69888, Note_on_c, 0, 82, 80
1, 69888, Note_on_c, 1, 65, 80
1, 69912, Note_on_c, 0, 82, 0
1, 69912, Note_on_c, 0, 81, 80
1, 69933, Note_on_c, 1, 65, 0
1, 69935, Note_on_c, 0, 81, 0
1, 69936, Note_on_c, 0, 84, 80
1, 69936, Note_on_c, 1, 57, 80
1, 69960, Note_on_c, 0, 84, 0
1, 69960, Note_on_c, 0, 77, 80
1, 69981, Note_on_c, 1, 57, 0
1, 69983, Note_on_c, 0, 77, 0
1, 69984, Note_on_c, 0, 81, 80
1, 69984, Note_on_c, 1, 58, 80
1, 69996, Note_on_c, 0, 81, 0
1, 69996, Note_on_c, 0, 79, 80
1, 70008, Note_on_c, 0, 79, 0
1, 70008, Note_on_c, 0, 81, 80
1, 70020, Note_on_c, 0, 81, 0
1, 70020, Note_on_c, 0, 79, 80
1, 70029, Note_on_c, 1, 58, 0
1, 70032, Note_on_c, 0, 79, 0
1, 70032, Note_on_c, 0, 81, 80
1, 70032, Note_on_c, 1, 60, 80
1, 70044, Note_on_c, 0, 81, 0
1, 70044, Note_on_c, 0, 79, 80
1, 70056, Note_on_c, 0, 79, 0
1, 70056, Note_on_c, 0, 77, 80
1, 70068, Note_on_c, 0, 77, 0
1, 70068, Note_on_c, 0, 79, 80
1, 70077, Note_on_c, 1, 60, 0
1, 70080, Note_on_c, 0, 79, 0
1, 70080, Note_on_c, 0, 77, 80
1, 70080, Note_on_c, 1, 53, 80
1, 70125, Note_on_c, 1, 53, 0
1, 70128, Note_on_c, 1, 41, 80
1, 70148, Note_on_c, 1, 41, 0
1, 70169, Note_on_c, 0, 77, 0
1, 70176, Note_on_c, 0, 74, 64
1, 70199, Note_on_c, 0, 74, 0
1, 70200, Note_on_c, 0, 77, 64
1, 70223, Note_on_c, 0, 77, 0
1, 70224, Note_on_c, 0, 76, 64
1, 70224, Note_on_c, 1, 69, 64
1, 70224, Note_on_c, 1, 65, 64
1, 70244, Note_on_c, 1, 69, 0
1, 70244, Note_on_c, 1, 65, 0
1, 70247, Note_on_c, 0, 76, 0
1, 70248, Note_on_c, 0, 74, 64
1, 70271, Note_on_c, 0, 74, 0
1, 70272, Note_on_c, 0, 74, 64
1, 70272, Note_on_c, 1, 67, 64
1, 70272, Note_on_c, 1, 64, 64
1, 70292, Note_on_c, 1, 67, 0
1, 70292, Note_on_c, 1, 64, 0
1, 70295, Note_on_c, 0, 74, 0
1, 70296, Note_on_c, 0, 72, 64
1, 70319, Note_on_c, 0, 72, 0
1, 70320, Note_on_c, 0, 71, 64
1, 70320, Note_on_c, 1, 67, 64
1, 70320, Note_on_c, 1, 64, 64
1, 70340, Note_on_c, 1, 67, 0
1, 70340, Note_on_c, 1, 64, 0
1, 70343, Note_on_c, 0, 71, 0
1, 70344, Note_on_c, 0, 72, 64
1, 70367, Note_on_c, 0, 72, 0
1, 70368, Note_on_c, 0, 70, 64
1, 70368, Note_on_c, 1, 65, 64
1, 70368, Note_on_c, 1, 62, 64
1, 70388, Note_on_c, 1, 65, 0
1, 70388, Note_on_c, 1, 62, 0
1, 70391, Note_on_c, 0, 70, 0
1, 70392, Note_on_c, 0, 74, 64
1, 70415, Note_on_c, 0, 74, 0
1, 70416, Note_on_c, 0, 72, 64
1, 70416, Note_on_c, 1, 65, 64
1, 70416, Note_on_c, 1, 62, 64
1, 70436, Note_on_c, 1, 65, 0
1, 70436, Note_on_c, 1, 62, 0
1, 70439, Note_on_c, 0, 72, 0
1, 70440, Note_on_c, 0, 70, 64
1, 70463, Note_on_c, 0, 70, 0
1, 70464, Note_on_c, 0, 70, 80
1, 70464, Note_on_c, 1, 64, 64
1, 70464, Note_on_c, 1, 60, 64
1, 70484, Note_on_c, 1, 64, 0
1, 70484, Note_on_c, 1, 60, 0
1, 70488, Note_on_c, 0, 70, 0
1, 70488, Note_on_c, 0, 69, 64
1, 70511, Note_on_c, 0, 69, 0
1, 70512, Note_on_c, 0, 68, 64
1, 70512, Note_on_c, 1, 64, 64
1, 70512, Note_on_c, 1, 60, 64
1, 70532, Note_on_c, 1, 64, 0
1, 70532, Note_on_c, 1, 60, 0
1, 70535, Note_on_c, 0, 68, 0
1, 70536, Note_on_c, 0, 69, 64
1, 70559, Note_on_c, 0, 69, 0
1, 70560, Note_on_c, 0, 67, 64
1, 70560, Note_on_c, 1, 62, 64
1, 70560, Note_on_c, 1, 58, 64
1, 70580, Note_on_c, 1, 62, 0
1, 70580, Note_on_c, 1, 58, 0
1, 70583, Note_on_c, 0, 67, 0
1, 70584, Note_on_c, 0, 70, 64
1, 70607, Note_on_c, 0, 70, 0
1, 70608, Note_on_c, 0, 69, 64
1, 70608, Note_on_c, 1, 62, 64
1, 70608, Note_on_c, 1, 58, 64
1, 70628, Note_on_c, 1, 62, 0
1, 70628, Note_on_c, 1, 58, 0
1, 70631, Note_on_c, 0, 69, 0
1, 70632, Note_on_c, 0, 67, 64
1, 70655, Note_on_c, 0, 67, 0
1, 70656, Note_on_c, 0, 67, 64
1, 70656, Note_on_c, 1, 60, 64
1, 70656, Note_on_c, 1, 57, 64
1, 70679, Note_on_c, 0, 67, 0
1, 70680, Note_on_c, 0, 65, 65
1, 70703, Note_on_c, 0, 65, 0
1, 70704, Note_on_c, 0, 64, 66
1, 70727, Note_on_c, 0, 64, 0
1, 70728, Note_on_c, 0, 65, 68
1, 70745, Note_on_c, 1, 60, 0
1, 70745, Note_on_c, 1, 57, 0
1, 70751, Note_on_c, 0, 65, 0
1, 70752, Note_on_c, 0, 72, 85
1, 70800, Note_on_c, 1, 57, 75
1, 70848, Note_on_c, 1, 57, 0
1, 70848, Note_on_c, 1, 58, 75
1, 70871, Note_on_c, 0, 72, 0
1, 70872, Note_on_c, 0, 70, 75
1, 70893, Note_on_c, 1, 58, 0
1, 70895, Note_on_c, 0, 70, 0
1, 70896, Note_on_c, 0, 69, 75
1, 70896, Note_on_c, 1, 58, 75
1, 70916, Note_on_c, 1, 58, 0
1, 70919, Note_on_c, 0, 69, 0
1, 70920, Note_on_c, 0, 67, 75
1, 70943, Note_on_c, 0, 67, 0
1, 70944, Note_on_c, 0, 65, 75
1, 70944, Note_on_c, 1, 60, 75
1, 70964, Note_on_c, 1, 60, 0
1, 70989, Note_on_c, 0, 65, 0
1, 70992, Note_on_c, 0, 67, 75
1, 70992, Note_on_c, 1, 48, 75
1, 71004, Note_on_c, 0, 67, 0
1, 71004, Note_on_c, 0, 69, 75
1, 71012, Note_on_c, 1, 48, 0
1, 71016, Note_on_c, 0, 69, 0
1, 71016, Note_on_c, 0, 67, 75
1, 71037, Note_on_c, 0, 67, 0
1, 71040, Note_on_c, 0, 65, 75
1, 71040, Note_on_c, 1, 53, 75
1, 71060, Note_on_c, 1, 53, 0
1, 71088, Note_on_c, 1, 41, 75
1, 71108, Note_on_c, 1, 41, 0
1, 71129, Note_on_c, 0, 65, 0
1, 71136, Note_on_c, 1, 69, 75
1, 71136, Note_on_c, 1, 65, 75
1, 71152, Note_on_c, 0, 74, 75
1, 71156, Note_on_c, 1, 69, 0
1, 71156, Note_on_c, 1, 65, 0
1, 71167, Note_on_c, 0, 74, 0
1, 71168, Note_on_c, 0, 76, 75
1, 71183, Note_on_c, 0, 76, 0
1, 71184, Note_on_c, 0, 77, 75
1, 71184, Note_on_c, 1, 69, 75
1, 71184, Note_on_c, 1, 65, 75
1, 71199, Note_on_c, 0, 77, 0
1, 71200, Note_on_c, 0, 76, 75
1, 71204, Note_on_c, 1, 69, 0
1, 71204, Note_on_c, 1, 65, 0
1, 71215, Note_on_c, 0, 76, 0
1, 71216, Note_on_c, 0, 74, 75
1, 71231, Note_on_c, 0, 74, 0
1, 71232, Note_on_c, 0, 74, 64
1, 71232, Note_on_c, 1, 67, 64
1, 71232, Note_on_c, 1, 64, 64
1, 71252, Note_on_c, 1, 67, 0
1, 71252, Note_on_c, 1, 64, 0
1, 71255, Note_on_c, 0, 74, 0
1, 71256, Note_on_c, 0, 72, 65
1, 71279, Note_on_c, 0, 72, 0
1, 71280, Note_on_c, 0, 71, 66
1, 71280, Note_on_c, 1, 67, 66
1, 71280, Note_on_c, 1, 64, 66
1, 71300, Note_on_c, 1, 67, 0
1, 71300, Note_on_c, 1, 64, 0
1, 71303, Note_on_c, 0, 71, 0
1, 71304, Note_on_c, 0, 72, 68
1, 71327, Note_on_c, 0, 72, 0
1, 71328, Note_on_c, 1, 65, 69
1, 71328, Note_on_c, 1, 62, 69
1, 71344, Note_on_c, 0, 70, 70
1, 71348, Note_on_c, 1, 65, 0
1, 71348, Note_on_c, 1, 62, 0
1, 71359, Note_on_c, 0, 70, 0
1, 71360, Note_on_c, 0, 72, 70
1, 71375, Note_on_c, 0, 72, 0
1, 71376, Note_on_c, 0, 74, 71
1, 71376, Note_on_c, 1, 65, 72
1, 71376, Note_on_c, 1, 62, 72
1, 71391, Note_on_c, 0, 74, 0
1, 71392, Note_on_c, 0, 72, 72
1, 71396, Note_on_c, 1, 65, 0
1, 71396, Note_on_c, 1, 62, 0
1, 71407, Note_on_c, 0, 72, 0
1, 71408, Note_on_c, 0, 70, 72
1, 71423, Note_on_c, 0, 70, 0
1, 71424, Note_on_c, 0, 70, 73
1, 71424, Note_on_c, 1, 64, 74
1, 71424, Note_on_c, 1, 60, 74
1, 71444, Note_on_c, 1, 64, 0
1, 71444, Note_on_c, 1, 60, 0
1, 71447, Note_on_c, 0, 70, 0
1, 71448, Note_on_c, 0, 69, 74
1, 71471, Note_on_c, 0, 69, 0
1, 71472, Note_on_c, 0, 68, 76
1, 71472, Note_on_c, 1, 64, 77
1, 71472, Note_on_c, 1, 60, 77
1, 71492, Note_on_c, 1, 64, 0
1, 71492, Note_on_c, 1, 60, 0
1, 71495, Note_on_c, 0, 68, 0
1, 71496, Note_on_c, 0, 69, 77
1, 71519, Note_on_c, 0, 69, 0
1, 71520, Note_on_c, 1, 62, 80
1, 71520, Note_on_c, 1, 58, 80
1, 71536, Note_on_c, 0, 67, 80
1, 71540, Note_on_c, 1, 62, 0
1, 71540, Note_on_c, 1, 58, 0
1, 71551, Note_on_c, 0, 67, 0
1, 71552, Note_on_c, 0, 69, 80
1, 71567, Note_on_c, 0, 69, 0
1, 71568, Note_on_c, 0, 70, 80
1, 71568, Note_on_c, 1, 62, 80
1, 71568, Note_on_c, 1, 58, 80
1, 71583, Note_on_c, 0, 70, 0
1, 71584, Note_on_c, 0, 69, 80
1, 71588, Note_on_c, 1, 62, 0
1, 71588, Note_on_c, 1, 58, 0
1, 71599, Note_on_c, 0, 69, 0
1, 71600, Note_on_c, 0, 67, 80
1, 71615, Note_on_c, 0, 67, 0
1, 71616, Note_on_c, 0, 65, 80
1, 71616, Note_on_c, 1, 60, 80
1, 71616, Note_on_c, 1, 57, 80
1, 71639, Note_on_c, 0, 65, 0
1, 71640, Note_on_c, 0, 67, 81
1, 71652, Note_on_c, 0, 67, 0
1, 71652, Note_on_c, 0, 69, 81
1, 71664, Note_on_c, 0, 69, 0
1, 71664, Note_on_c, 0, 70, 82
1, 71676, Note_on_c, 0, 70, 0
1, 71676, Note_on_c, 0, 72, 82
1, 71688, Note_on_c, 0, 72, 0
1, 71688, Note_on_c, 0, 74, 83
1, 71700, Note_on_c, 0, 74, 0
1, 71700, Note_on_c, 0, 76, 83
1, 71705, Note_on_c, 1, 60, 0
1, 71705, Note_on_c, 1, 57, 0
1, 71712, Note_on_c, 0, 76, 0
1, 71712, Note_on_c, 0, 77, 84
1, 71732, Note_on_c, 0, 77, 0
1, 71760, Note_on_c, 1, 53, 80
1, 71760, Note_on_c, 1, 45, 80
1, 71805, Note_on_c, 1, 53, 0
1, 71805, Note_on_c, 1, 45, 0
1, 71808, Note_on_c, 0, 74, 80
1, 71808, Note_on_c, 1, 53, 80
1, 71808, Note_on_c, 1, 46, 80
1, 71823, Note_on_c, 0, 74, 0
1, 71824, Note_on_c, 0, 72, 80
1, 71828, Note_on_c, 1, 53, 0
1, 71828, Note_on_c, 1, 46, 0
1, 71839, Note_on_c, 0, 72, 0
1, 71840, Note_on_c, 0, 70, 80
1, 71855, Note_on_c, 0, 70, 0
1, 71856, Note_on_c, 0, 69, 80
1, 71856, Note_on_c, 1, 53, 80
1, 71856, Note_on_c, 1, 46, 80
1, 71871, Note_on_c, 0, 69, 0
1, 71872, Note_on_c, 0, 67, 80
1, 71876, Note_on_c, 1, 53, 0
1, 71876, Note_on_c, 1, 46, 0
1, 71887, Note_on_c, 0, 67, 0
1, 71888, Note_on_c, 0, 65, 80
1, 71903, Note_on_c, 0, 65, 0
1, 71904, Note_on_c, 0, 67, 80
1, 71904, Note_on_c, 1, 53, 80
1, 71904, Note_on_c, 1, 48, 80
1, 71917, Note_on_c, 0, 67, 0
1, 71918, Note_on_c, 0, 69, 80
1, 71924, Note_on_c, 1, 53, 0
1, 71924, Note_on_c, 1, 48, 0
1, 71931, Note_on_c, 0, 69, 0
1, 71932, Note_on_c, 0, 67, 80
1, 71945, Note_on_c, 0, 67, 0
1, 71946, Note_on_c, 0, 69, 80
1, 71952, Note_on_c, 1, 52, 80
1, 71952, Note_on_c, 1, 48, 80
1, 71959, Note_on_c, 0, 69, 0
1, 71960, Note_on_c, 0, 67, 80
1, 71973, Note_on_c, 0, 67, 0
1, 71974, Note_on_c, 0, 65, 80
1, 71986, Note_on_c, 0, 65, 0
1, 71987, Note_on_c, 0, 67, 80
1, 71999, Note_on_c, 0, 67, 0
1, 72000, Note_on_c, 0, 65, 80
1, 72000, Note_on_c, 1, 52, 0
1, 72000, Note_on_c, 1, 48, 0
1, 72000, Note_on_c, 1, 53, 80
1, 72000, Note_on_c, 1, 41, 80
1, 72089, Note_on_c, 0, 65, 0
1, 72089, Note_on_c, 1, 53, 0
1, 72089, Note_on_c, 1, 41, 0
1, 72144, Note_on_c, 1, 41, 0
1, 72189, Note_on_c, 1, 41, 0
1, 72199, End_track
0, 0, End_of_file