0, 0, Header, 0, 1, 96
1, 0, Start_track
1, 0, Tempo, 779220
1, 0, Note_on_c, 0, 63, 75
1, 48, Note_on_c, 1, 58, 70
1, 48, Note_on_c, 1, 55, 70
1, 48, Note_on_c, 1, 51, 70
1, 89, Note_on_c, 0, 63, 0
1, 95, Note_on_c, 1, 58, 0
1, 95, Note_on_c, 1, 55, 0
1, 95, Note_on_c, 1, 51, 0
1, 96, Note_on_c, 0, 63, 75
1, 96, Note_on_c, 1, 58, 70
1, 96, Note_on_c, 1, 55, 70
1, 96, Note_on_c, 1, 51, 70
1, 130, Note_on_c, 0, 63, 0
1, 132, Note_on_c, 0, 65, 75
1, 143, Note_on_c, 1, 58, 0
1, 143, Note_on_c, 1, 55, 0
1, 143, Note_on_c, 1, 51, 0
1, 144, Note_on_c, 0, 65, 0
1, 144, Note_on_c, 0, 67, 75
1, 144, Note_on_c, 1, 58, 70
1, 144, Note_on_c, 1, 55, 70
1, 144, Note_on_c, 1, 51, 70
1, 178, Note_on_c, 0, 67, 0
1, 180, Note_on_c, 0, 68, 75
1, 191, Note_on_c, 1, 58, 0
1, 191, Note_on_c, 1, 55, 0
1, 191, Note_on_c, 1, 51, 0
1, 192, Note_on_c, 0, 68, 0
1, 192, Note_on_c, 0, 70, 75
1, 240, Note_on_c, 1, 58, 70
1, 240, Note_on_c, 1, 55, 70
1, 240, Note_on_c, 1, 51, 70
1, 287, Note_on_c, 1, 58, 0
1, 287, Note_on_c, 1, 55, 0
1, 287, Note_on_c, 1, 51, 0
1, 288, Note_on_c, 1, 58, 70
1, 288, Note_on_c, 1, 55, 70
1, 288, Note_on_c, 1, 51, 70
1, 311, Note_on_c, 0, 70, 0
1, 312, Note_on_c, 0, 72, 77
1, 324, Note_on_c, 0, 72, 0
1, 324, Note_on_c, 0, 74, 77
1, 335, Note_on_c, 1, 58, 0
1, 335, Note_on_c, 1, 55, 0
1, 335, Note_on_c, 1, 51, 0
1, 336, Note_on_c, 0, 74, 0
1, 336, Note_on_c, 0, 75, 78
1, 336, Note_on_c, 1, 58, 70
1, 336, Note_on_c, 1, 55, 70
1, 336, Note_on_c, 1, 51, 70
1, 348, Note_on_c, 0, 75, 0
1, 348, Note_on_c, 0, 77, 78
1, 360, Note_on_c, 0, 77, 0
1, 360, Note_on_c, 0, 79, 78
1, 372, Note_on_c, 0, 79, 0
1, 372, Note_on_c, 0, 80, 78
1, 383, Note_on_c, 1, 58, 0
1, 383, Note_on_c, 1, 55, 0
1, 383, Note_on_c, 1, 51, 0
1, 384, Note_on_c, 0, 80, 0
1, 384, Note_on_c, 0, 82, 95
1, 432, Note_on_c, 1, 58, 70
1, 432, Note_on_c, 1, 55, 70
1, 432, Note_on_c, 1, 51, 70
1, 479, Note_on_c, 1, 58, 0
1, 479, Note_on_c, 1, 55, 0
1, 479, Note_on_c, 1, 51, 0
1, 480, Note_on_c, 0, 82, 0
1, 480, Note_on_c, 0, 80, 75
1, 480, Note_on_c, 1, 58, 70
1, 480, Note_on_c, 1, 55, 70
1, 480, Note_on_c, 1, 51, 70
1, 503, Note_on_c, 0, 80, 0
1, 504, Note_on_c, 0, 79, 75
1, 527, Note_on_c, 0, 79, 0
1, 527, Note_on_c, 1, 58, 0
1, 527, Note_on_c, 1, 55, 0
1, 527, Note_on_c, 1, 51, 0
1, 528, Note_on_c, 0, 77, 75
1, 528, Note_on_c, 1, 58, 70
1, 528, Note_on_c, 1, 55, 70
1, 528, Note_on_c, 1, 51, 70
1, 551, Note_on_c, 0, 77, 0
1, 552, Note_on_c, 0, 75, 75
1, 575, Note_on_c, 0, 75, 0
1, 575, Note_on_c, 1, 58, 0
1, 575, Note_on_c, 1, 55, 0
1, 575, Note_on_c, 1, 51, 0
1, 576, Note_on_c, 0, 80, 75
1, 576, Note_on_c, 1, 56, 70
1, 576, Note_on_c, 1, 51, 70
1, 591, Note_on_c, 0, 80, 0
1, 592, Note_on_c, 0, 82, 81
1, 607, Note_on_c, 0, 82, 0
1, 608, Note_on_c, 0, 84, 80
1, 623, Note_on_c, 0, 84, 0
1, 623, Note_on_c, 1, 56, 0
1, 623, Note_on_c, 1, 51, 0
1, 624, Note_on_c, 0, 82, 79
1, 624, Note_on_c, 1, 55, 70
1, 624, Note_on_c, 1, 51, 70
1, 669, Note_on_c, 0, 82, 0
1, 671, Note_on_c, 1, 55, 0
1, 671, Note_on_c, 1, 51, 0
1, 672, Note_on_c, 0, 75, 75
1, 687, Note_on_c, 0, 75, 0
1, 688, Note_on_c, 0, 74, 75
1, 703, Note_on_c, 0, 74, 0
1, 704, Note_on_c, 0, 72, 75
1, 719, Note_on_c, 0, 72, 0
1, 720, Note_on_c, 0, 70, 75
1, 720, Note_on_c, 1, 67, 75
1, 730, Note_on_c, 0, 70, 0
1, 744, Note_on_c, 0, 70, 75
1, 765, Note_on_c, 1, 67, 0
1, 767, Note_on_c, 0, 70, 0
1, 768, Note_on_c, 0, 68, 75
1, 768, Note_on_c, 1, 65, 75
1, 768, Note_on_c, 1, 58, 75
1, 778, Note_on_c, 0, 68, 0
1, 778, Note_on_c, 0, 70, 75
1, 788, Note_on_c, 0, 70, 0
1, 788, Note_on_c, 0, 68, 75
1, 798, Note_on_c, 0, 68, 0
1, 798, Note_on_c, 0, 67, 75
1, 807, Note_on_c, 0, 67, 0
1, 807, Note_on_c, 0, 68, 75
1, 813, Note_on_c, 1, 65, 0
1, 813, Note_on_c, 1, 58, 0
1, 816, Note_on_c, 0, 68, 0
1, 816, Note_on_c, 0, 67, 75
1, 816, Note_on_c, 1, 63, 75
1, 861, Note_on_c, 0, 67, 0
1, 861, Note_on_c, 1, 63, 0
1, 864, Note_on_c, 0, 75, 75
1, 879, Note_on_c, 0, 75, 0
1, 880, Note_on_c, 0, 74, 75
1, 895, Note_on_c, 0, 74, 0
1, 896, Note_on_c, 0, 72, 75
1, 911, Note_on_c, 0, 72, 0
1, 912, Note_on_c, 0, 70, 75
1, 912, Note_on_c, 1, 67, 75
1, 912, Note_on_c, 1, 58, 75
1, 922, Note_on_c, 0, 70, 0
1, 936, Note_on_c, 0, 82, 75
1, 957, Note_on_c, 1, 67, 0
1, 957, Note_on_c, 1, 58, 0
1, 959, Note_on_c, 0, 82, 0
1, 960, Note_on_c, 0, 80, 75
1, 960, Note_on_c, 1, 65, 75
1, 970, Note_on_c, 0, 80, 0
1, 970, Note_on_c, 0, 82, 75
1, 980, Note_on_c, 0, 82, 0
1, 980, Note_on_c, 0, 80, 75
1, 990, Note_on_c, 0, 80, 0
1, 990, Note_on_c, 0, 79, 75
1, 999, Note_on_c, 0, 79, 0
1, 999, Note_on_c, 0, 80, 75
1, 1005, Note_on_c, 1, 65, 0
1, 1008, Note_on_c, 0, 80, 0
1, 1008, Note_on_c, 0, 79, 75
1, 1008, Note_on_c, 1, 63, 75
1, 1053, Note_on_c, 0, 79, 0
1, 1053, Note_on_c, 1, 63, 0
1, 1056, Note_on_c, 0, 79, 75
1, 1056, Note_on_c, 1, 56, 75
1, 1090, Note_on_c, 0, 79, 0
1, 1092, Note_on_c, 0, 77, 75
1, 1104, Note_on_c, 0, 77, 0
1, 1104, Note_on_c, 0, 84, 75
1, 1104, Note_on_c, 1, 56, 0
1, 1104, Note_on_c, 1, 57, 75
1, 1138, Note_on_c, 0, 84, 0
1, 1140, Note_on_c, 0, 75, 75
1, 1149, Note_on_c, 1, 57, 0
1, 1152, Note_on_c, 0, 75, 0
1, 1152, Note_on_c, 0, 75, 75
1, 1152, Note_on_c, 1, 58, 75
1, 1197, Note_on_c, 1, 58, 0
1, 1200, Note_on_c, 0, 75, 0
1, 1200, Note_on_c, 0, 74, 75
1, 1200, Note_on_c, 1, 46, 75
1, 1245, Note_on_c, 0, 74, 0
1, 1245, Note_on_c, 1, 46, 0
1, 1248, Note_on_c, 0, 58, 75
1, 1282, Note_on_c, 0, 58, 0
1, 1284, Note_on_c, 0, 60, 75
1, 1296, Note_on_c, 0, 60, 0
1, 1296, Note_on_c, 0, 62, 75
1, 1330, Note_on_c, 0, 62, 0
1, 1332, Note_on_c, 0, 63, 75
1, 1344, Note_on_c, 0, 63, 0
1, 1344, Note_on_c, 0, 65, 75
1, 1392, Note_on_c, 1, 53, 70
1, 1392, Note_on_c, 1, 50, 70
1, 1392, Note_on_c, 1, 46, 70
1, 1439, Note_on_c, 1, 53, 0
1, 1439, Note_on_c, 1, 50, 0
1, 1439, Note_on_c, 1, 46, 0
1, 1440, Note_on_c, 1, 53, 70
1, 1440, Note_on_c, 1, 50, 70
1, 1440, Note_on_c, 1, 46, 70
1, 1463, Note_on_c, 0, 65, 0
1, 1464, Note_on_c, 0, 67, 75
1, 1476, Note_on_c, 0, 67, 0
1, 1476, Note_on_c, 0, 69, 76
1, 1487, Note_on_c, 1, 53, 0
1, 1487, Note_on_c, 1, 50, 0
1, 1487, Note_on_c, 1, 46, 0
1, 1488, Note_on_c, 0, 69, 0
1, 1488, Note_on_c, 0, 70, 76
1, 1488, Note_on_c, 1, 53, 70
1, 1488, Note_on_c, 1, 50, 70
1, 1488, Note_on_c, 1, 46, 70
1, 1500, Note_on_c, 0, 70, 0
1, 1500, Note_on_c, 0, 72, 76
1, 1512, Note_on_c, 0, 72, 0
1, 1512, Note_on_c, 0, 74, 77
1, 1524, Note_on_c, 0, 74, 0
1, 1524, Note_on_c, 0, 75, 77
1, 1535, Note_on_c, 1, 53, 0
1, 1535, Note_on_c, 1, 50, 0
1, 1535, Note_on_c, 1, 46, 0
1, 1536, Note_on_c, 0, 75, 0
1, 1536, Note_on_c, 0, 77, 94
1, 1584, Note_on_c, 1, 53, 70
1, 1584, Note_on_c, 1, 50, 70
1, 1584, Note_on_c, 1, 46, 70
1, 1631, Note_on_c, 1, 53, 0
1, 1631, Note_on_c, 1, 50, 0
1, 1631, Note_on_c, 1, 46, 0
1, 1632, Note_on_c, 0, 77, 0
1, 1632, Note_on_c, 0, 75, 75
1, 1632, Note_on_c, 1, 53, 70
1, 1632, Note_on_c, 1, 50, 70
1, 1632, Note_on_c, 1, 46, 70
1, 1655, Note_on_c, 0, 75, 0
1, 1656, Note_on_c, 0, 74, 75
1, 1679, Note_on_c, 0, 74, 0
1, 1679, Note_on_c, 1, 53, 0
1, 1679, Note_on_c, 1, 50, 0
1, 1679, Note_on_c, 1, 46, 0
1, 1680, Note_on_c, 0, 72, 75
1, 1680, Note_on_c, 1, 53, 70
1, 1680, Note_on_c, 1, 50, 70
1, 1680, Note_on_c, 1, 46, 70
1, 1703, Note_on_c, 0, 72, 0
1, 1704, Note_on_c, 0, 70, 75
1, 1727, Note_on_c, 0, 70, 0
1, 1727, Note_on_c, 1, 53, 0
1, 1727, Note_on_c, 1, 50, 0
1, 1727, Note_on_c, 1, 46, 0
1, 1728, Note_on_c, 0, 75, 75
1, 1728, Note_on_c, 1, 51, 70
1, 1728, Note_on_c, 1, 46, 70
1, 1743, Note_on_c, 0, 75, 0
1, 1744, Note_on_c, 0, 77, 77
1, 1759, Note_on_c, 0, 77, 0
1, 1760, Note_on_c, 0, 79, 79
1, 1775, Note_on_c, 0, 79, 0
1, 1775, Note_on_c, 1, 51, 0
1, 1775, Note_on_c, 1, 46, 0
1, 1776, Note_on_c, 0, 77, 80
1, 1776, Note_on_c, 1, 50, 70
1, 1776, Note_on_c, 1, 46, 70
1, 1821, Note_on_c, 0, 77, 0
1, 1823, Note_on_c, 1, 50, 0
1, 1823, Note_on_c, 1, 46, 0
1, 1824, Note_on_c, 0, 82, 75
1, 1839, Note_on_c, 0, 82, 0
1, 1840, Note_on_c, 0, 81, 75
1, 1855, Note_on_c, 0, 81, 0
1, 1856, Note_on_c, 0, 79, 75
1, 1871, Note_on_c, 0, 79, 0
1, 1872, Note_on_c, 0, 77, 75
1, 1872, Note_on_c, 1, 62, 75
1, 1882, Note_on_c, 0, 77, 0
1, 1896, Note_on_c, 0, 77, 75
1, 1917, Note_on_c, 1, 62, 0
1, 1919, Note_on_c, 0, 77, 0
1, 1920, Note_on_c, 0, 75, 75
1, 1920, Note_on_c, 1, 60, 75
1, 1920, Note_on_c, 1, 53, 75
1, 1930, Note_on_c, 0, 75, 0
1, 1930, Note_on_c, 0, 77, 75
1, 1940, Note_on_c, 0, 77, 0
1, 1940, Note_on_c, 0, 75, 75
1, 1950, Note_on_c, 0, 75, 0
1, 1950, Note_on_c, 0, 74, 75
1, 1959, Note_on_c, 0, 74, 0
1, 1959, Note_on_c, 0, 75, 75
1, 1965, Note_on_c, 1, 60, 0
1, 1965, Note_on_c, 1, 53, 0
1, 1968, Note_on_c, 0, 75, 0
1, 1968, Note_on_c, 0, 74, 75
1, 1968, Note_on_c, 1, 58, 75
1, 2013, Note_on_c, 0, 74, 0
1, 2013, Note_on_c, 1, 58, 0
1, 2016, Note_on_c, 0, 82, 75
1, 2031, Note_on_c, 0, 82, 0
1, 2032, Note_on_c, 0, 81, 75
1, 2047, Note_on_c, 0, 81, 0
1, 2048, Note_on_c, 0, 79, 75
1, 2063, Note_on_c, 0, 79, 0
1, 2064, Note_on_c, 0, 77, 75
1, 2064, Note_on_c, 1, 62, 75
1, 2074, Note_on_c, 0, 77, 0
1, 2088, Note_on_c, 0, 77, 75
1, 2109, Note_on_c, 1, 62, 0
1, 2111, Note_on_c, 0, 77, 0
1, 2112, Note_on_c, 0, 75, 75
1, 2112, Note_on_c, 1, 60, 75
1, 2112, Note_on_c, 1, 53, 75
1, 2122, Note_on_c, 0, 75, 0
1, 2122, Note_on_c, 0, 77, 75
1, 2132, Note_on_c, 0, 77, 0
1, 2132, Note_on_c, 0, 75, 75
1, 2142, Note_on_c, 0, 75, 0
1, 2142, Note_on_c, 0, 74, 75
1, 2151, Note_on_c, 0, 74, 0
1, 2151, Note_on_c, 0, 75, 75
1, 2157, Note_on_c, 1, 60, 0
1, 2157, Note_on_c, 1, 53, 0
1, 2160, Note_on_c, 0, 75, 0
1, 2160, Note_on_c, 0, 74, 75
1, 2160, Note_on_c, 1, 58, 75
1, 2205, Note_on_c, 0, 74, 0
1, 2205, Note_on_c, 1, 58, 0
1, 2208, Note_on_c, 0, 77, 75
1, 2223, Note_on_c, 0, 77, 0
1, 2224, Note_on_c, 0, 75, 75
1, 2239, Note_on_c, 0, 75, 0
1, 2240, Note_on_c, 0, 74, 75
1, 2255, Note_on_c, 0, 74, 0
1, 2256, Note_on_c, 0, 72, 75
1, 2256, Note_on_c, 1, 58, 75
1, 2256, Note_on_c, 1, 50, 75
1, 2271, Note_on_c, 0, 72, 0
1, 2272, Note_on_c, 0, 70, 75
1, 2287, Note_on_c, 0, 70, 0
1, 2288, Note_on_c, 0, 68, 75
1, 2301, Note_on_c, 1, 58, 0
1, 2301, Note_on_c, 1, 50, 0
1, 2303, Note_on_c, 0, 68, 0
1, 2304, Note_on_c, 0, 67, 75
1, 2304, Note_on_c, 1, 58, 70
1, 2304, Note_on_c, 1, 55, 70
1, 2304, Note_on_c, 1, 51, 70
1, 2322, Note_on_c, 0, 67, 0
1, 2322, Note_on_c, 0, 75, 75
1, 2351, Note_on_c, 1, 58, 0
1, 2351, Note_on_c, 1, 55, 0
1, 2351, Note_on_c, 1, 51, 0
1, 2352, Note_on_c, 1, 58, 70
1, 2352, Note_on_c, 1, 55, 70
1, 2352, Note_on_c, 1, 51, 70
1, 2393, Note_on_c, 0, 75, 0
1, 2399, Note_on_c, 1, 58, 0
1, 2399, Note_on_c, 1, 55, 0
1, 2399, Note_on_c, 1, 51, 0
1, 2400, Note_on_c, 0, 75, 75
1, 2400, Note_on_c, 1, 58, 70
1, 2400, Note_on_c, 1, 55, 70
1, 2400, Note_on_c, 1, 51, 70
1, 2434, Note_on_c, 0, 75, 0
1, 2436, Note_on_c, 0, 77, 75
1, 2447, Note_on_c, 1, 58, 0
1, 2447, Note_on_c, 1, 55, 0
1, 2447, Note_on_c, 1, 51, 0
1, 2448, Note_on_c, 0, 77, 0
1, 2448, Note_on_c, 0, 79, 75
1, 2448, Note_on_c, 1, 58, 70
1, 2448, Note_on_c, 1, 55, 70
1, 2448, Note_on_c, 1, 51, 70
1, 2482, Note_on_c, 0, 79, 0
1, 2484, Note_on_c, 0, 80, 75
1, 2495, Note_on_c, 1, 58, 0
1, 2495, Note_on_c, 1, 55, 0
1, 2495, Note_on_c, 1, 51, 0
1, 2496, Note_on_c, 0, 80, 0
1, 2496, Note_on_c, 0, 82, 91
1, 2544, Note_on_c, 1, 58, 70
1, 2544, Note_on_c, 1, 55, 70
1, 2544, Note_on_c, 1, 51, 70
1, 2591, Note_on_c, 1, 58, 0
1, 2591, Note_on_c, 1, 55, 0
1, 2591, Note_on_c, 1, 51, 0
1, 2592, Note_on_c, 0, 82, 0
1, 2592, Note_on_c, 0, 80, 75
1, 2592, Note_on_c, 1, 58, 70
1, 2592, Note_on_c, 1, 55, 70
1, 2592, Note_on_c, 1, 51, 70
1, 2615, Note_on_c, 0, 80, 0
1, 2616, Note_on_c, 0, 79, 75
1, 2639, Note_on_c, 0, 79, 0
1, 2639, Note_on_c, 1, 58, 0
1, 2639, Note_on_c, 1, 55, 0
1, 2639, Note_on_c, 1, 51, 0
1, 2640, Note_on_c, 0, 77, 75
1, 2640, Note_on_c, 1, 58, 70
1, 2640, Note_on_c, 1, 55, 70
1, 2640, Note_on_c, 1, 51, 70
1, 2663, Note_on_c, 0, 77, 0
1, 2664, Note_on_c, 0, 75, 75
1, 2687, Note_on_c, 0, 75, 0
1, 2687, Note_on_c, 1, 58, 0
1, 2687, Note_on_c, 1, 55, 0
1, 2687, Note_on_c, 1, 51, 0
1, 2688, Note_on_c, 0, 74, 75
1, 2711, Note_on_c, 0, 74, 0
1, 2712, Note_on_c, 0, 72, 75
1, 2735, Note_on_c, 0, 72, 0
1, 2736, Note_on_c, 0, 72, 75
1, 2736, Note_on_c, 1, 56, 70
1, 2736, Note_on_c, 1, 51, 70
1, 2783, Note_on_c, 1, 56, 0
1, 2783, Note_on_c, 1, 51, 0
1, 2784, Note_on_c, 1, 56, 70
1, 2784, Note_on_c, 1, 51, 70
1, 2829, Note_on_c, 0, 72, 0
1, 2831, Note_on_c, 1, 56, 0
1, 2831, Note_on_c, 1, 51, 0
1, 2832, Note_on_c, 0, 75, 75
1, 2832, Note_on_c, 1, 56, 70
1, 2832, Note_on_c, 1, 51, 70
1, 2855, Note_on_c, 0, 75, 0
1, 2856, Note_on_c, 0, 72, 75
1, 2879, Note_on_c, 0, 72, 0
1, 2879, Note_on_c, 1, 56, 0
1, 2879, Note_on_c, 1, 51, 0
1, 2880, Note_on_c, 0, 72, 75
1, 2903, Note_on_c, 0, 72, 0
1, 2904, Note_on_c, 0, 70, 75
1, 2927, Note_on_c, 0, 70, 0
1, 2928, Note_on_c, 0, 70, 75
1, 2928, Note_on_c, 1, 55, 70
1, 2928, Note_on_c, 1, 51, 70
1, 2975, Note_on_c, 1, 55, 0
1, 2975, Note_on_c, 1, 51, 0
1, 2976, Note_on_c, 1, 55, 70
1, 2976, Note_on_c, 1, 51, 70
1, 2999, Note_on_c, 0, 70, 0
1, 3000, Note_on_c, 0, 75, 75
1, 3023, Note_on_c, 0, 75, 0
1, 3023, Note_on_c, 1, 55, 0
1, 3023, Note_on_c, 1, 51, 0
1, 3024, Note_on_c, 0, 79, 75
1, 3024, Note_on_c, 1, 55, 70
1, 3024, Note_on_c, 1, 51, 70
1, 3047, Note_on_c, 0, 79, 0
1, 3048, Note_on_c, 0, 75, 75
1, 3071, Note_on_c, 0, 75, 0
1, 3071, Note_on_c, 1, 55, 0
1, 3071, Note_on_c, 1, 51, 0
1, 3072, Note_on_c, 0, 74, 75
1, 3078, Note_on_c, 0, 74, 0
1, 3078, Note_on_c, 0, 75, 75
1, 3084, Note_on_c, 0, 75, 0
1, 3084, Note_on_c, 0, 74, 75
1, 3095, Note_on_c, 0, 74, 0
1, 3096, Note_on_c, 0, 72, 75
1, 3119, Note_on_c, 0, 72, 0
1, 3120, Note_on_c, 0, 72, 75
1, 3120, Note_on_c, 1, 56, 70
1, 3120, Note_on_c, 1, 51, 70
1, 3167, Note_on_c, 1, 56, 0
1, 3167, Note_on_c, 1, 51, 0
1, 3168, Note_on_c, 1, 56, 70
1, 3168, Note_on_c, 1, 51, 70
1, 3191, Note_on_c, 0, 72, 0
1, 3192, Note_on_c, 0, 75, 75
1, 3204, Note_on_c, 0, 75, 0
1, 3204, Note_on_c, 0, 74, 75
1, 3215, Note_on_c, 1, 56, 0
1, 3215, Note_on_c, 1, 51, 0
1, 3216, Note_on_c, 0, 74, 0
1, 3216, Note_on_c, 0, 77, 75
1, 3216, Note_on_c, 1, 56, 70
1, 3216, Note_on_c, 1, 51, 70
1, 3228, Note_on_c, 0, 77, 0
1, 3228, Note_on_c, 0, 75, 75
1, 3240, Note_on_c, 0, 75, 0
1, 3240, Note_on_c, 0, 74, 75
1, 3252, Note_on_c, 0, 74, 0
1, 3252, Note_on_c, 0, 72, 75
1, 3263, Note_on_c, 1, 56, 0
1, 3263, Note_on_c, 1, 51, 0
1, 3264, Note_on_c, 0, 72, 0
1, 3264, Note_on_c, 0, 72, 91
1, 3264, Note_on_c, 1, 55, 70
1, 3264, Note_on_c, 1, 51, 70
1, 3288, Note_on_c, 0, 72, 0
1, 3288, Note_on_c, 0, 70, 75
1, 3311, Note_on_c, 0, 70, 0
1, 3312, Note_on_c, 0, 70, 75
1, 3353, Note_on_c, 1, 55, 0
1, 3353, Note_on_c, 1, 51, 0
1, 3360, Note_on_c, 1, 63, 70
1, 3360, Note_on_c, 1, 55, 70
1, 3394, Note_on_c, 0, 70, 0
1, 3396, Note_on_c, 0, 75, 75
1, 3408, Note_on_c, 0, 75, 0
1, 3408, Note_on_c, 0, 75, 75
1, 3442, Note_on_c, 0, 75, 0
1, 3444, Note_on_c, 0, 75, 75
1, 3449, Note_on_c, 1, 63, 0
1, 3449, Note_on_c, 1, 55, 0
1, 3456, Note_on_c, 0, 75, 0
1, 3456, Note_on_c, 0, 75, 75
1, 3456, Note_on_c, 1, 63, 70
1, 3456, Note_on_c, 1, 56, 70
1, 3490, Note_on_c, 0, 75, 0
1, 3492, Note_on_c, 0, 65, 75
1, 3504, Note_on_c, 0, 65, 0
1, 3504, Note_on_c, 0, 65, 75
1, 3545, Note_on_c, 1, 63, 0
1, 3545, Note_on_c, 1, 56, 0
1, 3552, Note_on_c, 1, 62, 70
1, 3552, Note_on_c, 1, 58, 70
1, 3586, Note_on_c, 0, 65, 0
1, 3588, Note_on_c, 0, 72, 75
1, 3600, Note_on_c, 0, 72, 0
1, 3600, Note_on_c, 0, 70, 75
1, 3634, Note_on_c, 0, 70, 0
1, 3636, Note_on_c, 0, 68, 75
1, 3641, Note_on_c, 1, 62, 0
1, 3641, Note_on_c, 1, 58, 0
1, 3648, Note_on_c, 0, 68, 0
1, 3648, Note_on_c, 0, 70, 75
1, 3648, Note_on_c, 1, 63, 70
1, 3648, Note_on_c, 1, 60, 70
1, 3654, Note_on_c, 0, 70, 0
1, 3654, Note_on_c, 0, 68, 75
1, 3660, Note_on_c, 0, 68, 0
1, 3660, Note_on_c, 0, 67, 75
1, 3666, Note_on_c, 0, 67, 0
1, 3666, Note_on_c, 0, 68, 75
1, 3682, Note_on_c, 0, 68, 0
1, 3684, Note_on_c, 0, 67, 75
1, 3696, Note_on_c, 0, 67, 0
1, 3696, Note_on_c, 0, 67, 75
1, 3737, Note_on_c, 1, 63, 0
1, 3737, Note_on_c, 1, 60, 0
1, 3744, Note_on_c, 1, 63, 70
1, 3744, Note_on_c, 1, 55, 70
1, 3778, Note_on_c, 0, 67, 0
1, 3780, Note_on_c, 0, 75, 75
1, 3792, Note_on_c, 0, 75, 0
1, 3792, Note_on_c, 0, 75, 75
1, 3826, Note_on_c, 0, 75, 0
1, 3828, Note_on_c, 0, 75, 75
1, 3833, Note_on_c, 1, 63, 0
1, 3833, Note_on_c, 1, 55, 0
1, 3840, Note_on_c, 0, 75, 0
1, 3840, Note_on_c, 0, 75, 75
1, 3840, Note_on_c, 1, 63, 70
1, 3840, Note_on_c, 1, 56, 70
1, 3874, Note_on_c, 0, 75, 0
1, 3876, Note_on_c, 0, 65, 75
1, 3888, Note_on_c, 0, 65, 0
1, 3888, Note_on_c, 0, 65, 75
1, 3929, Note_on_c, 1, 63, 0
1, 3929, Note_on_c, 1, 56, 0
1, 3936, Note_on_c, 1, 62, 70
1, 3936, Note_on_c, 1, 58, 70
1, 3981, Note_on_c, 0, 65, 0
1, 3984, Note_on_c, 0, 68, 75
1, 3999, Note_on_c, 0, 68, 0
1, 4000, Note_on_c, 0, 65, 74
1, 4015, Note_on_c, 0, 65, 0
1, 4016, Note_on_c, 0, 62, 74
1, 4025, Note_on_c, 1, 62, 0
1, 4025, Note_on_c, 1, 58, 0
1, 4031, Note_on_c, 0, 62, 0
1, 4032, Note_on_c, 0, 63, 74
1, 4032, Note_on_c, 1, 51, 70
1, 4077, Note_on_c, 0, 63, 0
1, 4077, Note_on_c, 1, 51, 0
1, 4080, Note_on_c, 0, 68, 73
1, 4080, Note_on_c, 1, 58, 69
1, 4095, Note_on_c, 0, 68, 0
1, 4096, Note_on_c, 0, 65, 73
1, 4111, Note_on_c, 0, 65, 0
1, 4112, Note_on_c, 0, 62, 72
1, 4125, Note_on_c, 1, 58, 0
1, 4127, Note_on_c, 0, 62, 0
1, 4128, Note_on_c, 0, 63, 72
1, 4128, Note_on_c, 1, 51, 68
1, 4173, Note_on_c, 0, 63, 0
1, 4173, Note_on_c, 1, 51, 0
1, 4176, Note_on_c, 0, 68, 71
1, 4176, Note_on_c, 1, 58, 67
1, 4191, Note_on_c, 0, 68, 0
1, 4192, Note_on_c, 0, 65, 71
1, 4207, Note_on_c, 0, 65, 0
1, 4208, Note_on_c, 0, 62, 71
1, 4221, Note_on_c, 1, 58, 0
1, 4223, Note_on_c, 0, 62, 0
1, 4224, Note_on_c, 0, 63, 70
1, 4224, Note_on_c, 1, 51, 66
1, 4313, Note_on_c, 0, 63, 0
1, 4313, Note_on_c, 1, 51, 0
1, 4392, Note_on_c, 0, 82, 70
1, 4402, Note_on_c, 0, 82, 0
1, 4416, Note_on_c, 0, 78, 70
1, 4416, Note_on_c, 0, 63, 70
1, 4440, Note_on_c, 0, 78, 0
1, 4440, Note_on_c, 0, 79, 70
1, 4463, Note_on_c, 0, 79, 0
1, 4464, Note_on_c, 1, 70, 70
1, 4488, Note_on_c, 0, 82, 70
1, 4498, Note_on_c, 0, 82, 0
1, 4505, Note_on_c, 0, 63, 0
1, 4512, Note_on_c, 0, 76, 70
1, 4512, Note_on_c, 0, 62, 70
1, 4536, Note_on_c, 0, 76, 0
1, 4536, Note_on_c, 0, 77, 70
1, 4553, Note_on_c, 1, 70, 0
1, 4559, Note_on_c, 0, 77, 0
1, 4560, Note_on_c, 1, 70, 70
1, 4584, Note_on_c, 0, 82, 70
1, 4594, Note_on_c, 0, 82, 0
1, 4601, Note_on_c, 0, 62, 0
1, 4608, Note_on_c, 0, 77, 70
1, 4608, Note_on_c, 0, 60, 70
1, 4653, Note_on_c, 1, 70, 0
1, 4653, Note_on_c, 0, 60, 0
1, 4656, Note_on_c, 1, 69, 70
1, 4656, Note_on_c, 0, 65, 70
1, 4658, Note_on_c, 0, 77, 0
1, 4658, Note_on_c, 0, 75, 70
1, 4668, Note_on_c, 0, 75, 0
1, 4668, Note_on_c, 0, 77, 70
1, 4677, Note_on_c, 0, 77, 0
1, 4677, Note_on_c, 0, 75, 70
1, 4686, Note_on_c, 0, 75, 0
1, 4686, Note_on_c, 0, 74, 70
1, 4695, Note_on_c, 0, 74, 0
1, 4695, Note_on_c, 0, 75, 70
1, 4701, Note_on_c, 1, 69, 0
1, 4701, Note_on_c, 0, 65, 0
1, 4704, Note_on_c, 0, 75, 0
1, 4704, Note_on_c, 0, 74, 70
1, 4704, Note_on_c, 1, 70, 70
1, 4704, Note_on_c, 0, 58, 70
1, 4771, Note_on_c, 0, 74, 0
1, 4776, Note_on_c, 0, 82, 70
1, 4793, Note_on_c, 1, 70, 0
1, 4793, Note_on_c, 0, 58, 0
1, 4799, Note_on_c, 0, 82, 0
1, 4800, Note_on_c, 0, 78, 70
1, 4800, Note_on_c, 0, 63, 70
1, 4812, Note_on_c, 0, 78, 0
1, 4812, Note_on_c, 0, 79, 70
1, 4824, Note_on_c, 0, 79, 0
1, 4824, Note_on_c, 0, 78, 70
1, 4836, Note_on_c, 0, 78, 0
1, 4836, Note_on_c, 0, 79, 70
1, 4848, Note_on_c, 0, 79, 0
1, 4848, Note_on_c, 1, 70, 70
1, 4872, Note_on_c, 0, 82, 70
1, 4889, Note_on_c, 0, 63, 0
1, 4895, Note_on_c, 0, 82, 0
1, 4896, Note_on_c, 0, 76, 70
1, 4896, Note_on_c, 0, 62, 70
1, 4908, Note_on_c, 0, 76, 0
1, 4908, Note_on_c, 0, 77, 70
1, 4920, Note_on_c, 0, 77, 0
1, 4920, Note_on_c, 0, 76, 70
1, 4932, Note_on_c, 0, 76, 0
1, 4932, Note_on_c, 0, 77, 70
1, 4937, Note_on_c, 1, 70, 0
1, 4944, Note_on_c, 0, 77, 0
1, 4944, Note_on_c, 1, 70, 70
1, 4956, Note_on_c, 0, 82, 70
1, 4968, Note_on_c, 0, 82, 0
1, 4968, Note_on_c, 0, 81, 70
1, 4980, Note_on_c, 0, 81, 0
1, 4980, Note_on_c, 0, 79, 70
1, 4985, Note_on_c, 0, 62, 0
1, 4992, Note_on_c, 0, 79, 0
1, 4992, Note_on_c, 0, 77, 70
1, 4992, Note_on_c, 0, 60, 70
1, 5037, Note_on_c, 1, 70, 0
1, 5037, Note_on_c, 0, 60, 0
1, 5040, Note_on_c, 1, 69, 70
1, 5040, Note_on_c, 0, 65, 70
1, 5042, Note_on_c, 0, 77, 0
1, 5042, Note_on_c, 0, 75, 70
1, 5052, Note_on_c, 0, 75, 0
1, 5052, Note_on_c, 0, 77, 70
1, 5061, Note_on_c, 0, 77, 0
1, 5061, Note_on_c, 0, 75, 70
1, 5070, Note_on_c, 0, 75, 0
1, 5070, Note_on_c, 0, 74, 70
1, 5079, Note_on_c, 0, 74, 0
1, 5079, Note_on_c, 0, 75, 70
1, 5085, Note_on_c, 1, 69, 0
1, 5085, Note_on_c, 0, 65, 0
1, 5088, Note_on_c, 0, 75, 0
1, 5088, Note_on_c, 0, 74, 70
1, 5088, Note_on_c, 1, 70, 66
1, 5088, Note_on_c, 0, 70, 66
1, 5133, Note_on_c, 0, 70, 0
1, 5136, Note_on_c, 0, 58, 75
1, 5177, Note_on_c, 0, 74, 0
1, 5177, Note_on_c, 1, 70, 0
1, 5181, Note_on_c, 0, 58, 0
1, 5184, Note_on_c, 0, 74, 70
1, 5184, Note_on_c, 1, 63, 70
1, 5207, Note_on_c, 0, 74, 0
1, 5207, Note_on_c, 1, 63, 0
1, 5208, Note_on_c, 0, 72, 70
1, 5208, Note_on_c, 1, 67, 70
1, 5231, Note_on_c, 0, 72, 0
1, 5231, Note_on_c, 1, 67, 0
1, 5232, Note_on_c, 0, 72, 70
1, 5232, Note_on_c, 1, 63, 71
1, 5255, Note_on_c, 1, 63, 0
1, 5256, Note_on_c, 1, 67, 71
1, 5279, Note_on_c, 1, 67, 0
1, 5280, Note_on_c, 1, 63, 72
1, 5303, Note_on_c, 1, 63, 0
1, 5304, Note_on_c, 1, 67, 72
1, 5327, Note_on_c, 1, 67, 0
1, 5328, Note_on_c, 1, 63, 73
1, 5347, Note_on_c, 0, 72, 0
1, 5351, Note_on_c, 1, 63, 0
1, 5352, Note_on_c, 0, 79, 73
1, 5352, Note_on_c, 1, 67, 73
1, 5364, Note_on_c, 0, 79, 0
1, 5364, Note_on_c, 0, 75, 73
1, 5375, Note_on_c, 1, 67, 0
1, 5376, Note_on_c, 0, 75, 0
1, 5376, Note_on_c, 0, 74, 73
1, 5376, Note_on_c, 1, 63, 74
1, 5399, Note_on_c, 0, 74, 0
1, 5399, Note_on_c, 1, 63, 0
1, 5400, Note_on_c, 0, 72, 74
1, 5400, Note_on_c, 1, 67, 74
1, 5423, Note_on_c, 0, 72, 0
1, 5423, Note_on_c, 1, 67, 0
1, 5424, Note_on_c, 0, 72, 74
1, 5424, Note_on_c, 1, 63, 75
1, 5447, Note_on_c, 1, 63, 0
1, 5448, Note_on_c, 1, 67, 75
1, 5471, Note_on_c, 1, 67, 0
1, 5472, Note_on_c, 1, 63, 76
1, 5495, Note_on_c, 1, 63, 0
1, 5496, Note_on_c, 1, 67, 76
1, 5519, Note_on_c, 1, 67, 0
1, 5520, Note_on_c, 1, 63, 77
1, 5539, Note_on_c, 0, 72, 0
1, 5543, Note_on_c, 1, 63, 0
1, 5544, Note_on_c, 0, 79, 76
1, 5544, Note_on_c, 1, 67, 77
1, 5556, Note_on_c, 0, 79, 0
1, 5556, Note_on_c, 0, 76, 77
1, 5567, Note_on_c, 1, 67, 0
1, 5568, Note_on_c, 0, 76, 0
1, 5568, Note_on_c, 0, 72, 77
1, 5568, Note_on_c, 1, 64, 78
1, 5591, Note_on_c, 1, 64, 0
1, 5592, Note_on_c, 1, 67, 78
1, 5615, Note_on_c, 1, 67, 0
1, 5616, Note_on_c, 1, 64, 79
1, 5639, Note_on_c, 1, 64, 0
1, 5640, Note_on_c, 1, 67, 79
1, 5657, Note_on_c, 0, 72, 0
1, 5663, Note_on_c, 1, 67, 0
1, 5664, Note_on_c, 0, 72, 79
1, 5664, Note_on_c, 1, 64, 80
1, 5674, Note_on_c, 0, 72, 0
1, 5674, Note_on_c, 0, 70, 79
1, 5684, Note_on_c, 0, 70, 0
1, 5684, Note_on_c, 0, 72, 79
1, 5687, Note_on_c, 1, 64, 0
1, 5688, Note_on_c, 1, 67, 81
1, 5694, Note_on_c, 0, 72, 0
1, 5694, Note_on_c, 0, 70, 79
1, 5704, Note_on_c, 0, 70, 0
1, 5704, Note_on_c, 0, 72, 79
1, 5711, Note_on_c, 1, 67, 0
1, 5712, Note_on_c, 1, 64, 81
1, 5714, Note_on_c, 0, 72, 0
1, 5714, Note_on_c, 0, 70, 79
1, 5724, Note_on_c, 0, 70, 0
1, 5724, Note_on_c, 0, 72, 79
1, 5733, Note_on_c, 0, 72, 0
1, 5733, Note_on_c, 0, 70, 79
1, 5735, Note_on_c, 1, 64, 0
1, 5736, Note_on_c, 1, 67, 81
1, 5742, Note_on_c, 0, 70, 0
1, 5742, Note_on_c, 0, 69, 80
1, 5751, Note_on_c, 0, 69, 0
1, 5751, Note_on_c, 0, 70, 80
1, 5759, Note_on_c, 1, 67, 0
1, 5760, Note_on_c, 0, 70, 0
1, 5760, Note_on_c, 0, 69, 81
1, 5760, Note_on_c, 1, 65, 81
1, 5783, Note_on_c, 0, 69, 0
1, 5784, Note_on_c, 0, 77, 81
1, 5807, Note_on_c, 0, 77, 0
1, 5807, Note_on_c, 1, 65, 0
1, 5808, Note_on_c, 1, 69, 75
1, 5808, Note_on_c, 1, 65, 75
1, 5832, Note_on_c, 0, 77, 81
1, 5842, Note_on_c, 0, 77, 0
1, 5855, Note_on_c, 1, 69, 0
1, 5855, Note_on_c, 1, 65, 0
1, 5856, Note_on_c, 0, 75, 81
1, 5856, Note_on_c, 1, 70, 75
1, 5856, Note_on_c, 1, 65, 75
1, 5866, Note_on_c, 0, 75, 0
1, 5866, Note_on_c, 0, 73, 81
1, 5876, Note_on_c, 0, 73, 0
1, 5876, Note_on_c, 0, 75, 81
1, 5886, Note_on_c, 0, 75, 0
1, 5886, Note_on_c, 0, 73, 81
1, 5896, Note_on_c, 0, 73, 0
1, 5896, Note_on_c, 0, 75, 81
1, 5903, Note_on_c, 1, 70, 0
1, 5903, Note_on_c, 1, 65, 0
1, 5904, Note_on_c, 1, 70, 75
1, 5904, Note_on_c, 1, 65, 75
1, 5906, Note_on_c, 0, 75, 0
1, 5906, Note_on_c, 0, 73, 81
1, 5916, Note_on_c, 0, 73, 0
1, 5916, Note_on_c, 0, 75, 81
1, 5925, Note_on_c, 0, 75, 0
1, 5925, Note_on_c, 0, 73, 81
1, 5934, Note_on_c, 0, 73, 0
1, 5934, Note_on_c, 0, 72, 81
1, 5943, Note_on_c, 0, 72, 0
1, 5943, Note_on_c, 0, 73, 81
1, 5951, Note_on_c, 1, 70, 0
1, 5951, Note_on_c, 1, 65, 0
1, 5952, Note_on_c, 0, 73, 0
1, 5952, Note_on_c, 0, 72, 81
1, 5952, Note_on_c, 1, 69, 75
1, 5952, Note_on_c, 1, 65, 75
1, 5975, Note_on_c, 0, 72, 0
1, 5976, Note_on_c, 0, 77, 81
1, 5999, Note_on_c, 0, 77, 0
1, 5999, Note_on_c, 1, 69, 0
1, 5999, Note_on_c, 1, 65, 0
1, 6000, Note_on_c, 1, 69, 75
1, 6000, Note_on_c, 1, 65, 75
1, 6024, Note_on_c, 0, 77, 81
1, 6034, Note_on_c, 0, 77, 0
1, 6047, Note_on_c, 1, 69, 0
1, 6047, Note_on_c, 1, 65, 0
1, 6048, Note_on_c, 0, 75, 81
1, 6048, Note_on_c, 1, 70, 75
1, 6048, Note_on_c, 1, 65, 75
1, 6058, Note_on_c, 0, 75, 0
1, 6058, Note_on_c, 0, 73, 81
1, 6068, Note_on_c, 0, 73, 0
1, 6068, Note_on_c, 0, 75, 81
1, 6078, Note_on_c, 0, 75, 0
1, 6078, Note_on_c, 0, 73, 81
1, 6088, Note_on_c, 0, 73, 0
1, 6088, Note_on_c, 0, 75, 81
1, 6095, Note_on_c, 1, 70, 0
1, 6095, Note_on_c, 1, 65, 0
1, 6096, Note_on_c, 1, 70, 75
1, 6096, Note_on_c, 1, 65, 75
1, 6098, Note_on_c, 0, 75, 0
1, 6098, Note_on_c, 0, 73, 81
1, 6108, Note_on_c, 0, 73, 0
1, 6108, Note_on_c, 0, 75, 81
1, 6117, Note_on_c, 0, 75, 0
1, 6117, Note_on_c, 0, 73, 81
1, 6126, Note_on_c, 0, 73, 0
1, 6126, Note_on_c, 0, 72, 81
1, 6135, Note_on_c, 0, 72, 0
1, 6135, Note_on_c, 0, 73, 81
1, 6143, Note_on_c, 1, 70, 0
1, 6143, Note_on_c, 1, 65, 0
1, 6144, Note_on_c, 0, 73, 0
1, 6144, Note_on_c, 0, 72, 81
1, 6144, Note_on_c, 1, 69, 75
1, 6144, Note_on_c, 1, 65, 75
1, 6167, Note_on_c, 0, 72, 0
1, 6168, Note_on_c, 0, 77, 81
1, 6191, Note_on_c, 0, 77, 0
1, 6191, Note_on_c, 1, 69, 0
1, 6191, Note_on_c, 1, 65, 0
1, 6192, Note_on_c, 1, 69, 75
1, 6192, Note_on_c, 1, 65, 75
1, 6216, Note_on_c, 0, 77, 81
1, 6226, Note_on_c, 0, 77, 0
1, 6239, Note_on_c, 1, 69, 0
1, 6239, Note_on_c, 1, 65, 0
1, 6240, Note_on_c, 0, 75, 81
1, 6240, Note_on_c, 1, 70, 75
1, 6240, Note_on_c, 1, 65, 75
1, 6250, Note_on_c, 0, 75, 0
1, 6250, Note_on_c, 0, 73, 81
1, 6260, Note_on_c, 0, 73, 0
1, 6260, Note_on_c, 0, 75, 81
1, 6270, Note_on_c, 0, 75, 0
1, 6270, Note_on_c, 0, 73, 81
1, 6280, Note_on_c, 0, 73, 0
1, 6280, Note_on_c, 0, 75, 81
1, 6287, Note_on_c, 1, 70, 0
1, 6287, Note_on_c, 1, 65, 0
1, 6288, Note_on_c, 1, 70, 75
1, 6288, Note_on_c, 1, 65, 75
1, 6290, Note_on_c, 0, 75, 0
1, 6290, Note_on_c, 0, 73, 81
1, 6300, Note_on_c, 0, 73, 0
1, 6300, Note_on_c, 0, 75, 81
1, 6309, Note_on_c, 0, 75, 0
1, 6309, Note_on_c, 0, 73, 81
1, 6318, Note_on_c, 0, 73, 0
1, 6318, Note_on_c, 0, 72, 81
1, 6327, Note_on_c, 0, 72, 0
1, 6327, Note_on_c, 0, 73, 81
1, 6335, Note_on_c, 1, 70, 0
1, 6335, Note_on_c, 1, 65, 0
1, 6336, Note_on_c, 0, 73, 0
1, 6336, Note_on_c, 0, 72, 81
1, 6336, Note_on_c, 1, 69, 75
1, 6336, Note_on_c, 1, 65, 75
1, 6425, Note_on_c, 0, 72, 0
1, 6425, Note_on_c, 1, 69, 0
1, 6425, Note_on_c, 1, 65, 0
1, 6432, Note_on_c, 1, 62, 75
1, 6480, Note_on_c, 0, 70, 75
1, 6503, Note_on_c, 0, 70, 0
1, 6504, Note_on_c, 0, 70, 75
1, 6521, Note_on_c, 1, 62, 0
1, 6527, Note_on_c, 0, 70, 0
1, 6528, Note_on_c, 0, 70, 75
1, 6528, Note_on_c, 1, 60, 75
1, 6534, Note_on_c, 0, 70, 0
1, 6534, Note_on_c, 0, 72, 75
1, 6540, Note_on_c, 0, 72, 0
1, 6540, Note_on_c, 0, 70, 75
1, 6551, Note_on_c, 0, 70, 0
1, 6552, Note_on_c, 0, 69, 75
1, 6573, Note_on_c, 1, 60, 0
1, 6575, Note_on_c, 0, 69, 0
1, 6576, Note_on_c, 0, 75, 75
1, 6576, Note_on_c, 1, 57, 75
1, 6599, Note_on_c, 0, 75, 0
1, 6600, Note_on_c, 0, 75, 75
1, 6621, Note_on_c, 1, 57, 0
1, 6623, Note_on_c, 0, 75, 0
1, 6624, Note_on_c, 0, 75, 75
1, 6624, Note_on_c, 1, 58, 75
1, 6630, Note_on_c, 0, 75, 0
1, 6630, Note_on_c, 0, 77, 75
1, 6636, Note_on_c, 0, 77, 0
1, 6636, Note_on_c, 0, 75, 75
1, 6647, Note_on_c, 0, 75, 0
1, 6648, Note_on_c, 0, 74, 75
1, 6669, Note_on_c, 1, 58, 0
1, 6671, Note_on_c, 0, 74, 0
1, 6672, Note_on_c, 0, 79, 75
1, 6672, Note_on_c, 1, 63, 75
1, 6695, Note_on_c, 0, 79, 0
1, 6696, Note_on_c, 0, 79, 75
1, 6717, Note_on_c, 1, 63, 0
1, 6719, Note_on_c, 0, 79, 0
1, 6720, Note_on_c, 0, 79, 75
1, 6720, Note_on_c, 1, 62, 75
1, 6726, Note_on_c, 0, 79, 0
1, 6726, Note_on_c, 0, 81, 75
1, 6732, Note_on_c, 0, 81, 0
1, 6732, Note_on_c, 0, 79, 75
1, 6743, Note_on_c, 0, 79, 0
1, 6744, Note_on_c, 0, 77, 75
1, 6767, Note_on_c, 0, 77, 0
1, 6768, Note_on_c, 0, 77, 75
1, 6791, Note_on_c, 0, 77, 0
1, 6792, Note_on_c, 0, 75, 75
1, 6809, Note_on_c, 1, 62, 0
1, 6815, Note_on_c, 0, 75, 0
1, 6816, Note_on_c, 0, 77, 75
1, 6826, Note_on_c, 0, 77, 0
1, 6826, Note_on_c, 0, 75, 75
1, 6836, Note_on_c, 0, 75, 0
1, 6836, Note_on_c, 0, 77, 75
1, 6846, Note_on_c, 0, 77, 0
1, 6846, Note_on_c, 0, 75, 75
1, 6856, Note_on_c, 0, 75, 0
1, 6856, Note_on_c, 0, 77, 75
1, 6864, Note_on_c, 1, 57, 75
1, 6866, Note_on_c, 0, 77, 0
1, 6866, Note_on_c, 0, 75, 75
1, 6876, Note_on_c, 0, 75, 0
1, 6876, Note_on_c, 0, 77, 75
1, 6885, Note_on_c, 0, 77, 0
1, 6885, Note_on_c, 0, 75, 75
1, 6894, Note_on_c, 0, 75, 0
1, 6894, Note_on_c, 0, 74, 75
1, 6903, Note_on_c, 0, 74, 0
1, 6903, Note_on_c, 0, 72, 75
1, 6909, Note_on_c, 1, 57, 0
1, 6912, Note_on_c, 0, 72, 0
1, 6912, Note_on_c, 0, 74, 75
1, 6912, Note_on_c, 1, 58, 75
1, 6927, Note_on_c, 0, 74, 0
1, 6928, Note_on_c, 0, 86, 75
1, 6943, Note_on_c, 0, 86, 0
1, 6944, Note_on_c, 0, 82, 75
1, 6957, Note_on_c, 1, 58, 0
1, 6959, Note_on_c, 0, 82, 0
1, 6960, Note_on_c, 0, 81, 75
1, 6960, Note_on_c, 1, 62, 75
1, 6975, Note_on_c, 0, 81, 0
1, 6976, Note_on_c, 0, 79, 75
1, 6991, Note_on_c, 0, 79, 0
1, 6992, Note_on_c, 0, 77, 75
1, 7005, Note_on_c, 1, 62, 0
1, 7007, Note_on_c, 0, 77, 0
1, 7008, Note_on_c, 0, 86, 75
1, 7008, Note_on_c, 1, 63, 75
1, 7018, Note_on_c, 0, 86, 0
1, 7018, Note_on_c, 0, 84, 75
1, 7028, Note_on_c, 0, 84, 0
1, 7028, Note_on_c, 0, 86, 75
1, 7038, Note_on_c, 0, 86, 0
1, 7038, Note_on_c, 0, 84, 75
1, 7048, Note_on_c, 0, 84, 0
1, 7048, Note_on_c, 0, 86, 75
1, 7053, Note_on_c, 1, 63, 0
1, 7056, Note_on_c, 1, 65, 75
1, 7058, Note_on_c, 0, 86, 0
1, 7058, Note_on_c, 0, 84, 75
1, 7068, Note_on_c, 0, 84, 0
1, 7068, Note_on_c, 0, 86, 75
1, 7077, Note_on_c, 0, 86, 0
1, 7077, Note_on_c, 0, 84, 75
1, 7086, Note_on_c, 0, 84, 0
1, 7086, Note_on_c, 0, 82, 75
1, 7095, Note_on_c, 0, 82, 0
1, 7095, Note_on_c, 0, 84, 75
1, 7101, Note_on_c, 1, 65, 0
1, 7104, Note_on_c, 0, 84, 0
1, 7104, Note_on_c, 0, 82, 75
1, 7104, Note_on_c, 1, 58, 75
1, 7149, Note_on_c, 0, 82, 0
1, 7149, Note_on_c, 1, 58, 0
1, 7152, Note_on_c, 0, 79, 76
1, 7152, Note_on_c, 1, 62, 76
1, 7162, Note_on_c, 0, 79, 0
1, 7162, Note_on_c, 0, 77, 76
1, 7172, Note_on_c, 0, 77, 0
1, 7172, Note_on_c, 0, 79, 76
1, 7175, Note_on_c, 1, 62, 0
1, 7176, Note_on_c, 1, 65, 76
1, 7182, Note_on_c, 0, 79, 0
1, 7182, Note_on_c, 0, 77, 76
1, 7192, Note_on_c, 0, 77, 0
1, 7192, Note_on_c, 0, 79, 76
1, 7199, Note_on_c, 1, 65, 0
1, 7200, Note_on_c, 1, 60, 77
1, 7202, Note_on_c, 0, 79, 0
1, 7202, Note_on_c, 0, 77, 76
1, 7212, Note_on_c, 0, 77, 0
1, 7212, Note_on_c, 0, 79, 76
1, 7221, Note_on_c, 0, 79, 0
1, 7221, Note_on_c, 0, 77, 77
1, 7223, Note_on_c, 1, 60, 0
1, 7224, Note_on_c, 1, 63, 77
1, 7230, Note_on_c, 0, 77, 0
1, 7230, Note_on_c, 0, 79, 77
1, 7239, Note_on_c, 0, 79, 0
1, 7239, Note_on_c, 0, 77, 77
1, 7247, Note_on_c, 1, 63, 0
1, 7248, Note_on_c, 0, 77, 0
1, 7248, Note_on_c, 0, 79, 77
1, 7248, Note_on_c, 1, 58, 78
1, 7258, Note_on_c, 0, 79, 0
1, 7258, Note_on_c, 0, 77, 77
1, 7268, Note_on_c, 0, 77, 0
1, 7268, Note_on_c, 0, 79, 77
1, 7271, Note_on_c, 1, 58, 0
1, 7272, Note_on_c, 1, 62, 78
1, 7278, Note_on_c, 0, 79, 0
1, 7278, Note_on_c, 0, 77, 77
1, 7287, Note_on_c, 0, 77, 0
1, 7287, Note_on_c, 0, 79, 78
1, 7295, Note_on_c, 1, 62, 0
1, 7296, Note_on_c, 0, 79, 0
1, 7296, Note_on_c, 0, 77, 78
1, 7296, Note_on_c, 1, 60, 79
1, 7296, Note_on_c, 1, 57, 79
1, 7363, Note_on_c, 0, 77, 0
1, 7368, Note_on_c, 0, 81, 81
1, 7380, Note_on_c, 0, 81, 0
1, 7380, Note_on_c, 0, 82, 80
1, 7385, Note_on_c, 1, 60, 0
1, 7385, Note_on_c, 1, 57, 0
1, 7392, Note_on_c, 0, 82, 0
1, 7392, Note_on_c, 0, 84, 80
1, 7407, Note_on_c, 0, 84, 0
1, 7408, Note_on_c, 0, 82, 79
1, 7423, Note_on_c, 0, 82, 0
1, 7424, Note_on_c, 0, 81, 79
1, 7439, Note_on_c, 0, 81, 0
1, 7440, Note_on_c, 0, 79, 78
1, 7455, Note_on_c, 0, 79, 0
1, 7456, Note_on_c, 0, 77, 78
1, 7471, Note_on_c, 0, 77, 0
1, 7472, Note_on_c, 0, 75, 78
1, 7487, Note_on_c, 0, 75, 0
1, 7488, Note_on_c, 0, 74, 77
1, 7533, Note_on_c, 0, 74, 0
1, 7536, Note_on_c, 0, 79, 75
1, 7536, Note_on_c, 1, 62, 75
1, 7546, Note_on_c, 0, 79, 0
1, 7546, Note_on_c, 0, 77, 75
1, 7556, Note_on_c, 0, 77, 0
1, 7556, Note_on_c, 0, 79, 75
1, 7559, Note_on_c, 1, 62, 0
1, 7560, Note_on_c, 1, 65, 75
1, 7566, Note_on_c, 0, 79, 0
1, 7566, Note_on_c, 0, 77, 75
1, 7576, Note_on_c, 0, 77, 0
1, 7576, Note_on_c, 0, 79, 75
1, 7583, Note_on_c, 1, 65, 0
1, 7584, Note_on_c, 1, 60, 76
1, 7586, Note_on_c, 0, 79, 0
1, 7586, Note_on_c, 0, 77, 75
1, 7596, Note_on_c, 0, 77, 0
1, 7596, Note_on_c, 0, 79, 76
1, 7605, Note_on_c, 0, 79, 0
1, 7605, Note_on_c, 0, 77, 76
1, 7607, Note_on_c, 1, 60, 0
1, 7608, Note_on_c, 1, 63, 76
1, 7614, Note_on_c, 0, 77, 0
1, 7614, Note_on_c, 0, 79, 76
1, 7623, Note_on_c, 0, 79, 0
1, 7623, Note_on_c, 0, 77, 76
1, 7631, Note_on_c, 1, 63, 0
1, 7632, Note_on_c, 0, 77, 0
1, 7632, Note_on_c, 0, 79, 76
1, 7632, Note_on_c, 1, 58, 77
1, 7642, Note_on_c, 0, 79, 0
1, 7642, Note_on_c, 0, 77, 76
1, 7652, Note_on_c, 0, 77, 0
1, 7652, Note_on_c, 0, 79, 77
1, 7655, Note_on_c, 1, 58, 0
1, 7656, Note_on_c, 1, 62, 78
1, 7662, Note_on_c, 0, 79, 0
1, 7662, Note_on_c, 0, 77, 77
1, 7671, Note_on_c, 0, 77, 0
1, 7671, Note_on_c, 0, 79, 77
1, 7679, Note_on_c, 1, 62, 0
1, 7680, Note_on_c, 0, 79, 0
1, 7680, Note_on_c, 0, 77, 77
1, 7680, Note_on_c, 1, 60, 78
1, 7680, Note_on_c, 1, 57, 78
1, 7747, Note_on_c, 0, 77, 0
1, 7752, Note_on_c, 0, 81, 81
1, 7764, Note_on_c, 0, 81, 0
1, 7764, Note_on_c, 0, 82, 81
1, 7769, Note_on_c, 1, 60, 0
1, 7769, Note_on_c, 1, 57, 0
1, 7776, Note_on_c, 0, 82, 0
1, 7776, Note_on_c, 0, 84, 81
1, 7791, Note_on_c, 0, 84, 0
1, 7792, Note_on_c, 0, 82, 80
1, 7807, Note_on_c, 0, 82, 0
1, 7808, Note_on_c, 0, 81, 79
1, 7823, Note_on_c, 0, 81, 0
1, 7824, Note_on_c, 0, 79, 78
1, 7839, Note_on_c, 0, 79, 0
1, 7840, Note_on_c, 0, 77, 78
1, 7855, Note_on_c, 0, 77, 0
1, 7856, Note_on_c, 0, 75, 77
1, 7871, Note_on_c, 0, 75, 0
1, 7872, Note_on_c, 0, 74, 75
1, 7872, Note_on_c, 1, 58, 81
1, 7872, Note_on_c, 1, 46, 81
1, 7917, Note_on_c, 0, 74, 0
1, 7920, Note_on_c, 0, 77, 75
1, 7935, Note_on_c, 0, 77, 0
1, 7936, Note_on_c, 0, 79, 75
1, 7951, Note_on_c, 0, 79, 0
1, 7952, Note_on_c, 0, 77, 75
1, 7961, Note_on_c, 1, 58, 0
1, 7961, Note_on_c, 1, 46, 0
1, 7967, Note_on_c, 0, 77, 0
1, 7968, Note_on_c, 0, 82, 75
1, 7983, Note_on_c, 0, 82, 0
1, 7984, Note_on_c, 0, 81, 75
1, 7999, Note_on_c, 0, 81, 0
1, 8000, Note_on_c, 0, 79, 75
1, 8015, Note_on_c, 0, 79, 0
1, 8016, Note_on_c, 0, 77, 75
1, 8016, Note_on_c, 1, 58, 81
1, 8016, Note_on_c, 1, 46, 81
1, 8031, Note_on_c, 0, 77, 0
1, 8032, Note_on_c, 0, 75, 75
1, 8047, Note_on_c, 0, 75, 0
1, 8048, Note_on_c, 0, 74, 75
1, 8061, Note_on_c, 1, 58, 0
1, 8061, Note_on_c, 1, 46, 0
1, 8063, Note_on_c, 0, 74, 0
1, 8064, Note_on_c, 0, 72, 75
1, 8064, Note_on_c, 1, 58, 81
1, 8064, Note_on_c, 1, 51, 81
1, 8079, Note_on_c, 0, 72, 0
1, 8080, Note_on_c, 0, 78, 75
1, 8096, Note_on_c, 0, 78, 0
1, 8096, Note_on_c, 0, 79, 75
1, 8111, Note_on_c, 0, 79, 0
1, 8111, Note_on_c, 1, 58, 0
1, 8111, Note_on_c, 1, 51, 0
1, 8112, Note_on_c, 0, 77, 75
1, 8112, Note_on_c, 1, 60, 81
1, 8112, Note_on_c, 1, 51, 81
1, 8124, Note_on_c, 0, 77, 0
1, 8124, Note_on_c, 0, 75, 75
1, 8136, Note_on_c, 0, 75, 0
1, 8136, Note_on_c, 0, 74, 75
1, 8148, Note_on_c, 0, 74, 0
1, 8148, Note_on_c, 0, 72, 75
1, 8159, Note_on_c, 1, 60, 0
1, 8159, Note_on_c, 1, 51, 0
1, 8160, Note_on_c, 0, 72, 0
1, 8160, Note_on_c, 0, 70, 75
1, 8160, Note_on_c, 1, 62, 81
1, 8160, Note_on_c, 1, 53, 81
1, 8205, Note_on_c, 0, 70, 0
1, 8207, Note_on_c, 1, 62, 0
1, 8207, Note_on_c, 1, 53, 0
1, 8208, Note_on_c, 0, 69, 75
1, 8208, Note_on_c, 1, 60, 81
1, 8208, Note_on_c, 1, 53, 81
1, 8218, Note_on_c, 0, 69, 0
1, 8218, Note_on_c, 0, 70, 75
1, 8228, Note_on_c, 0, 70, 0
1, 8228, Note_on_c, 0, 69, 75
1, 8238, Note_on_c, 0, 69, 0
1, 8238, Note_on_c, 0, 67, 75
1, 8247, Note_on_c, 0, 67, 0
1, 8247, Note_on_c, 0, 69, 75
1, 8255, Note_on_c, 1, 60, 0
1, 8255, Note_on_c, 1, 53, 0
1, 8256, Note_on_c, 0, 69, 0
1, 8256, Note_on_c, 0, 70, 75
1, 8256, Note_on_c, 1, 58, 81
1, 8301, Note_on_c, 0, 70, 0
1, 8304, Note_on_c, 0, 77, 70
1, 8304, Note_on_c, 0, 74, 70
1, 8345, Note_on_c, 1, 58, 0
1, 8349, Note_on_c, 0, 77, 0
1, 8349, Note_on_c, 0, 74, 0
1, 8352, Note_on_c, 0, 77, 70
1, 8352, Note_on_c, 0, 74, 70
1, 8397, Note_on_c, 0, 77, 0
1, 8397, Note_on_c, 0, 74, 0
1, 8400, Note_on_c, 0, 77, 70
1, 8400, Note_on_c, 0, 74, 70
1, 8445, Note_on_c, 0, 77, 0
1, 8445, Note_on_c, 0, 74, 0
1, 8448, Note_on_c, 0, 77, 86
1, 8448, Note_on_c, 0, 74, 64
1, 8448, Note_on_c, 1, 58, 70
1, 8448, Note_on_c, 1, 46, 70
1, 8520, Note_on_c, 0, 77, 0
1, 8520, Note_on_c, 0, 79, 70
1, 8532, Note_on_c, 0, 79, 0
1, 8532, Note_on_c, 0, 81, 70
1, 8537, Note_on_c, 0, 74, 0
1, 8537, Note_on_c, 1, 58, 0
1, 8537, Note_on_c, 1, 46, 0
1, 8544, Note_on_c, 0, 81, 0
1, 8544, Note_on_c, 0, 82, 70
1, 8633, Note_on_c, 0, 82, 0
1, 8640, Note_on_c, 0, 75, 70
1, 8688, Note_on_c, 1, 70, 66
1, 8688, Note_on_c, 1, 67, 66
1, 8735, Note_on_c, 1, 70, 0
1, 8735, Note_on_c, 1, 67, 0
1, 8736, Note_on_c, 1, 70, 66
1, 8736, Note_on_c, 1, 67, 66
1, 8783, Note_on_c, 1, 70, 0
1, 8783, Note_on_c, 1, 67, 0
1, 8784, Note_on_c, 1, 70, 66
1, 8784, Note_on_c, 1, 67, 66
1, 8795, Note_on_c, 0, 75, 0
1, 8808, Note_on_c, 0, 79, 70
1, 8820, Note_on_c, 0, 79, 0
1, 8820, Note_on_c, 0, 75, 70
1, 8831, Note_on_c, 1, 70, 0
1, 8831, Note_on_c, 1, 67, 0
1, 8832, Note_on_c, 0, 75, 0
1, 8832, Note_on_c, 0, 73, 70
1, 8880, Note_on_c, 0, 73, 0
1, 8880, Note_on_c, 0, 74, 70
1, 8880, Note_on_c, 1, 69, 66
1, 8880, Note_on_c, 1, 65, 66
1, 8925, Note_on_c, 0, 74, 0
1, 8927, Note_on_c, 1, 69, 0
1, 8927, Note_on_c, 1, 65, 0
1, 8928, Note_on_c, 1, 69, 66
1, 8928, Note_on_c, 1, 65, 66
1, 8975, Note_on_c, 1, 69, 0
1, 8975, Note_on_c, 1, 65, 0
1, 8976, Note_on_c, 1, 69, 66
1, 8976, Note_on_c, 1, 65, 66
1, 9000, Note_on_c, 0, 77, 70
1, 9012, Note_on_c, 0, 77, 0
1, 9012, Note_on_c, 0, 74, 70
1, 9023, Note_on_c, 1, 69, 0
1, 9023, Note_on_c, 1, 65, 0
1, 9024, Note_on_c, 0, 74, 0
1, 9024, Note_on_c, 0, 71, 70
1, 9072, Note_on_c, 0, 71, 0
1, 9072, Note_on_c, 0, 72, 70
1, 9072, Note_on_c, 1, 67, 66
1, 9072, Note_on_c, 1, 63, 66
1, 9117, Note_on_c, 0, 72, 0
1, 9119, Note_on_c, 1, 67, 0
1, 9119, Note_on_c, 1, 63, 0
1, 9120, Note_on_c, 1, 67, 66
1, 9120, Note_on_c, 1, 63, 66
1, 9167, Note_on_c, 1, 67, 0
1, 9167, Note_on_c, 1, 63, 0
1, 9168, Note_on_c, 1, 67, 66
1, 9168, Note_on_c, 1, 63, 66
1, 9192, Note_on_c, 0, 75, 70
1, 9204, Note_on_c, 0, 75, 0
1, 9204, Note_on_c, 0, 72, 70
1, 9215, Note_on_c, 1, 67, 0
1, 9215, Note_on_c, 1, 63, 0
1, 9216, Note_on_c, 0, 72, 0
1, 9216, Note_on_c, 0, 69, 70
1, 9264, Note_on_c, 0, 69, 0
1, 9264, Note_on_c, 0, 70, 72
1, 9264, Note_on_c, 1, 65, 66
1, 9264, Note_on_c, 1, 62, 66
1, 9309, Note_on_c, 0, 70, 0
1, 9309, Note_on_c, 1, 65, 0
1, 9309, Note_on_c, 1, 62, 0
1, 9312, Note_on_c, 0, 70, 74
1, 9324, Note_on_c, 0, 70, 0
1, 9324, Note_on_c, 0, 72, 74
1, 9336, Note_on_c, 0, 72, 0
1, 9336, Note_on_c, 0, 74, 75
1, 9348, Note_on_c, 0, 74, 0
1, 9348, Note_on_c, 0, 75, 75
1, 9360, Note_on_c, 0, 75, 0
1, 9360, Note_on_c, 0, 77, 76
1, 9360, Note_on_c, 1, 58, 75
1, 9360, Note_on_c, 0, 50, 75
1, 9372, Note_on_c, 0, 77, 0
1, 9372, Note_on_c, 0, 79, 76
1, 9384, Note_on_c, 0, 79, 0
1, 9384, Note_on_c, 0, 81, 77
1, 9396, Note_on_c, 0, 81, 0
1, 9396, Note_on_c, 0, 82, 77
1, 9405, Note_on_c, 1, 58, 0
1, 9405, Note_on_c, 0, 50, 0
1, 9408, Note_on_c, 0, 82, 0
1, 9408, Note_on_c, 0, 79, 78
1, 9408, Note_on_c, 1, 58, 81
1, 9408, Note_on_c, 0, 51, 81
1, 9475, Note_on_c, 0, 79, 0
1, 9480, Note_on_c, 0, 77, 81
1, 9492, Note_on_c, 0, 77, 0
1, 9492, Note_on_c, 0, 75, 81
1, 9497, Note_on_c, 1, 58, 0
1, 9497, Note_on_c, 0, 51, 0
1, 9504, Note_on_c, 0, 75, 0
1, 9504, Note_on_c, 0, 74, 81
1, 9504, Note_on_c, 1, 58, 81
1, 9504, Note_on_c, 0, 53, 81
1, 9549, Note_on_c, 0, 74, 0
1, 9549, Note_on_c, 1, 58, 0
1, 9552, Note_on_c, 0, 72, 78
1, 9552, Note_on_c, 1, 57, 81
1, 9562, Note_on_c, 0, 72, 0
1, 9562, Note_on_c, 0, 74, 77
1, 9572, Note_on_c, 0, 74, 0
1, 9572, Note_on_c, 0, 72, 77
1, 9582, Note_on_c, 0, 72, 0
1, 9582, Note_on_c, 0, 74, 76
1, 9591, Note_on_c, 0, 74, 0
1, 9591, Note_on_c, 0, 72, 76
1, 9593, Note_on_c, 0, 53, 0
1, 9597, Note_on_c, 1, 57, 0
1, 9600, Note_on_c, 0, 72, 0
1, 9600, Note_on_c, 0, 70, 75
1, 9600, Note_on_c, 1, 58, 75
1, 9615, Note_on_c, 1, 58, 0
1, 9616, Note_on_c, 1, 62, 75
1, 9623, Note_on_c, 0, 70, 0
1, 9631, Note_on_c, 1, 62, 0
1, 9632, Note_on_c, 1, 65, 75
1, 9647, Note_on_c, 1, 65, 0
1, 9648, Note_on_c, 0, 70, 75
1, 9663, Note_on_c, 0, 70, 0
1, 9664, Note_on_c, 0, 74, 75
1, 9679, Note_on_c, 0, 74, 0
1, 9680, Note_on_c, 0, 77, 75
1, 9695, Note_on_c, 0, 77, 0
1, 9696, Note_on_c, 0, 75, 75
1, 9711, Note_on_c, 0, 75, 0
1, 9712, Note_on_c, 0, 72, 75
1, 9727, Note_on_c, 0, 72, 0
1, 9728, Note_on_c, 0, 69, 75
1, 9743, Note_on_c, 0, 69, 0
1, 9744, Note_on_c, 0, 72, 75
1, 9744, Note_on_c, 1, 60, 75
1, 9744, Note_on_c, 0, 53, 81
1, 9759, Note_on_c, 0, 72, 0
1, 9760, Note_on_c, 0, 69, 75
1, 9775, Note_on_c, 0, 69, 0
1, 9776, Note_on_c, 0, 65, 75
1, 9789, Note_on_c, 1, 60, 0
1, 9789, Note_on_c, 0, 53, 0
1, 9791, Note_on_c, 0, 65, 0
1, 9792, Note_on_c, 0, 62, 75
1, 9792, Note_on_c, 0, 58, 81
1, 9807, Note_on_c, 0, 62, 0
1, 9808, Note_on_c, 0, 65, 75
1, 9823, Note_on_c, 0, 65, 0
1, 9824, Note_on_c, 0, 70, 75
1, 9837, Note_on_c, 0, 58, 0
1, 9839, Note_on_c, 0, 70, 0
1, 9840, Note_on_c, 0, 67, 75
1, 9840, Note_on_c, 1, 63, 75
1, 9840, Note_on_c, 0, 51, 81
1, 9855, Note_on_c, 0, 67, 0
1, 9856, Note_on_c, 0, 75, 75
1, 9871, Note_on_c, 0, 75, 0
1, 9872, Note_on_c, 0, 72, 75
1, 9885, Note_on_c, 1, 63, 0
1, 9885, Note_on_c, 0, 51, 0
1, 9887, Note_on_c, 0, 72, 0
1, 9888, Note_on_c, 0, 70, 75
1, 9888, Note_on_c, 1, 62, 75
1, 9888, Note_on_c, 0, 53, 81
1, 9933, Note_on_c, 0, 70, 0
1, 9933, Note_on_c, 1, 62, 0
1, 9936, Note_on_c, 0, 69, 75
1, 9936, Note_on_c, 1, 60, 75
1, 9946, Note_on_c, 0, 69, 0
1, 9946, Note_on_c, 0, 70, 75
1, 9956, Note_on_c, 0, 70, 0
1, 9956, Note_on_c, 0, 69, 75
1, 9966, Note_on_c, 0, 69, 0
1, 9966, Note_on_c, 0, 67, 75
1, 9975, Note_on_c, 0, 67, 0
1, 9975, Note_on_c, 0, 69, 75
1, 9977, Note_on_c, 0, 53, 0
1, 9981, Note_on_c, 1, 60, 0
1, 9984, Note_on_c, 0, 69, 0
1, 9984, Note_on_c, 0, 70, 75
1, 9984, Note_on_c, 1, 58, 75
1, 9999, Note_on_c, 1, 58, 0
1, 10000, Note_on_c, 1, 62, 75
1, 10007, Note_on_c, 0, 70, 0
1, 10015, Note_on_c, 1, 62, 0
1, 10016, Note_on_c, 1, 65, 75
1, 10031, Note_on_c, 1, 65, 0
1, 10032, Note_on_c, 0, 70, 75
1, 10047, Note_on_c, 0, 70, 0
1, 10048, Note_on_c, 0, 74, 75
1, 10063, Note_on_c, 0, 74, 0
1, 10064, Note_on_c, 0, 77, 75
1, 10079, Note_on_c, 0, 77, 0
1, 10080, Note_on_c, 0, 75, 75
1, 10095, Note_on_c, 0, 75, 0
1, 10096, Note_on_c, 0, 72, 75
1, 10111, Note_on_c, 0, 72, 0
1, 10112, Note_on_c, 0, 69, 75
1, 10127, Note_on_c, 0, 69, 0
1, 10128, Note_on_c, 0, 72, 75
1, 10128, Note_on_c, 1, 60, 75
1, 10128, Note_on_c, 0, 53, 81
1, 10143, Note_on_c, 0, 72, 0
1, 10144, Note_on_c, 0, 69, 75
1, 10159, Note_on_c, 0, 69, 0
1, 10160, Note_on_c, 0, 65, 75
1, 10173, Note_on_c, 1, 60, 0
1, 10173, Note_on_c, 0, 53, 0
1, 10175, Note_on_c, 0, 65, 0
1, 10176, Note_on_c, 0, 62, 75
1, 10176, Note_on_c, 0, 58, 81
1, 10191, Note_on_c, 0, 62, 0
1, 10192, Note_on_c, 0, 65, 75
1, 10207, Note_on_c, 0, 65, 0
1, 10208, Note_on_c, 0, 70, 75
1, 10221, Note_on_c, 0, 58, 0
1, 10223, Note_on_c, 0, 70, 0
1, 10224, Note_on_c, 0, 67, 75
1, 10224, Note_on_c, 1, 63, 75
1, 10224, Note_on_c, 0, 51, 81
1, 10239, Note_on_c, 0, 67, 0
1, 10240, Note_on_c, 0, 75, 75
1, 10255, Note_on_c, 0, 75, 0
1, 10256, Note_on_c, 0, 72, 75
1, 10269, Note_on_c, 1, 63, 0
1, 10269, Note_on_c, 0, 51, 0
1, 10271, Note_on_c, 0, 72, 0
1, 10272, Note_on_c, 0, 70, 75
1, 10272, Note_on_c, 1, 62, 75
1, 10272, Note_on_c, 0, 53, 81
1, 10317, Note_on_c, 0, 70, 0
1, 10317, Note_on_c, 1, 62, 0
1, 10320, Note_on_c, 0, 69, 75
1, 10320, Note_on_c, 1, 60, 75
1, 10330, Note_on_c, 0, 69, 0
1, 10330, Note_on_c, 0, 70, 75
1, 10340, Note_on_c, 0, 70, 0
1, 10340, Note_on_c, 0, 69, 75
1, 10350, Note_on_c, 0, 69, 0
1, 10350, Note_on_c, 0, 67, 75
1, 10359, Note_on_c, 0, 67, 0
1, 10359, Note_on_c, 0, 69, 75
1, 10361, Note_on_c, 0, 53, 0
1, 10365, Note_on_c, 1, 60, 0
1, 10368, Note_on_c, 0, 69, 0
1, 10368, Note_on_c, 0, 70, 75
1, 10368, Note_on_c, 1, 58, 75
1, 10457, Note_on_c, 0, 70, 0
1, 10457, Note_on_c, 1, 58, 0
1, 10464, Note_on_c, 0, 65, 70
1, 10464, Note_on_c, 1, 60, 66
1, 10464, Note_on_c, 1, 53, 66
1, 10482, Note_on_c, 0, 65, 0
1, 10482, Note_on_c, 0, 75, 70
1, 10531, Note_on_c, 0, 75, 0
1, 10536, Note_on_c, 0, 72, 70
1, 10548, Note_on_c, 0, 72, 0
1, 10548, Note_on_c, 0, 69, 70
1, 10553, Note_on_c, 1, 60, 0
1, 10553, Note_on_c, 1, 53, 0
1, 10560, Note_on_c, 0, 69, 0
1, 10560, Note_on_c, 0, 70, 70
1, 10560, Note_on_c, 1, 62, 66
1, 10560, Note_on_c, 1, 58, 66
1, 10649, Note_on_c, 0, 70, 0
1, 10649, Note_on_c, 1, 62, 0
1, 10649, Note_on_c, 1, 58, 0
1, 10752, Note_on_c, 0, 63, 75
1, 10800, Note_on_c, 1, 58, 70
1, 10800, Note_on_c, 1, 55, 70
1, 10800, Note_on_c, 1, 51, 70
1, 10841, Note_on_c, 0, 63, 0
1, 10847, Note_on_c, 1, 58, 0
1, 10847, Note_on_c, 1, 55, 0
1, 10847, Note_on_c, 1, 51, 0
1, 10848, Note_on_c, 0, 63, 75
1, 10848, Note_on_c, 1, 58, 70
1, 10848, Note_on_c, 1, 55, 70
1, 10848, Note_on_c, 1, 51, 70
1, 10882, Note_on_c, 0, 63, 0
1, 10884, Note_on_c, 0, 65, 75
1, 10895, Note_on_c, 1, 58, 0
1, 10895, Note_on_c, 1, 55, 0
1, 10895, Note_on_c, 1, 51, 0
1, 10896, Note_on_c, 0, 65, 0
1, 10896, Note_on_c, 0, 67, 75
1, 10896, Note_on_c, 1, 58, 70
1, 10896, Note_on_c, 1, 55, 70
1, 10896, Note_on_c, 1, 51, 70
1, 10930, Note_on_c, 0, 67, 0
1, 10932, Note_on_c, 0, 68, 75
1, 10943, Note_on_c, 1, 58, 0
1, 10943, Note_on_c, 1, 55, 0
1, 10943, Note_on_c, 1, 51, 0
1, 10944, Note_on_c, 0, 68, 0
1, 10944, Note_on_c, 0, 70, 75
1, 10992, Note_on_c, 1, 58, 70
1, 10992, Note_on_c, 1, 55, 70
1, 10992, Note_on_c, 1, 51, 70
1, 11039, Note_on_c, 1, 58, 0
1, 11039, Note_on_c, 1, 55, 0
1, 11039, Note_on_c, 1, 51, 0
1, 11040, Note_on_c, 1, 58, 70
1, 11040, Note_on_c, 1, 55, 70
1, 11040, Note_on_c, 1, 51, 70
1, 11063, Note_on_c, 0, 70, 0
1, 11064, Note_on_c, 0, 72, 77
1, 11076, Note_on_c, 0, 72, 0
1, 11076, Note_on_c, 0, 74, 77
1, 11087, Note_on_c, 1, 58, 0
1, 11087, Note_on_c, 1, 55, 0
1, 11087, Note_on_c, 1, 51, 0
1, 11088, Note_on_c, 0, 74, 0
1, 11088, Note_on_c, 0, 75, 78
1, 11088, Note_on_c, 1, 58, 70
1, 11088, Note_on_c, 1, 55, 70
1, 11088, Note_on_c, 1, 51, 70
1, 11100, Note_on_c, 0, 75, 0
1, 11100, Note_on_c, 0, 77, 78
1, 11112, Note_on_c, 0, 77, 0
1, 11112, Note_on_c, 0, 79, 78
1, 11124, Note_on_c, 0, 79, 0
1, 11124, Note_on_c, 0, 80, 78
1, 11135, Note_on_c, 1, 58, 0
1, 11135, Note_on_c, 1, 55, 0
1, 11135, Note_on_c, 1, 51, 0
1, 11136, Note_on_c, 0, 80, 0
1, 11136, Note_on_c, 0, 82, 95
1, 11184, Note_on_c, 1, 58, 70
1, 11184, Note_on_c, 1, 55, 70
1, 11184, Note_on_c, 1, 51, 70
1, 11231, Note_on_c, 1, 58, 0
1, 11231, Note_on_c, 1, 55, 0
1, 11231, Note_on_c, 1, 51, 0
1, 11232, Note_on_c, 0, 82, 0
1, 11232, Note_on_c, 0, 80, 75
1, 11232, Note_on_c, 1, 58, 70
1, 11232, Note_on_c, 1, 55, 70
1, 11232, Note_on_c, 1, 51, 70
1, 11255, Note_on_c, 0, 80, 0
1, 11256, Note_on_c, 0, 79, 75
1, 11279, Note_on_c, 0, 79, 0
1, 11279, Note_on_c, 1, 58, 0
1, 11279, Note_on_c, 1, 55, 0
1, 11279, Note_on_c, 1, 51, 0
1, 11280, Note_on_c, 0, 77, 75
1, 11280, Note_on_c, 1, 58, 70
1, 11280, Note_on_c, 1, 55, 70
1, 11280, Note_on_c, 1, 51, 70
1, 11303, Note_on_c, 0, 77, 0
1, 11304, Note_on_c, 0, 75, 75
1, 11327, Note_on_c, 0, 75, 0
1, 11327, Note_on_c, 1, 58, 0
1, 11327, Note_on_c, 1, 55, 0
1, 11327, Note_on_c, 1, 51, 0
1, 11328, Note_on_c, 0, 80, 75
1, 11328, Note_on_c, 1, 56, 70
1, 11328, Note_on_c, 1, 51, 70
1, 11343, Note_on_c, 0, 80, 0
1, 11344, Note_on_c, 0, 82, 81
1, 11359, Note_on_c, 0, 82, 0
1, 11360, Note_on_c, 0, 84, 80
1, 11375, Note_on_c, 0, 84, 0
1, 11375, Note_on_c, 1, 56, 0
1, 11375, Note_on_c, 1, 51, 0
1, 11376, Note_on_c, 0, 82, 79
1, 11376, Note_on_c, 1, 55, 70
1, 11376, Note_on_c, 1, 51, 70
1, 11421, Note_on_c, 0, 82, 0
1, 11423, Note_on_c, 1, 55, 0
1, 11423, Note_on_c, 1, 51, 0
1, 11424, Note_on_c, 0, 75, 75
1, 11439, Note_on_c, 0, 75, 0
1, 11440, Note_on_c, 0, 74, 75
1, 11455, Note_on_c, 0, 74, 0
1, 11456, Note_on_c, 0, 72, 75
1, 11471, Note_on_c, 0, 72, 0
1, 11472, Note_on_c, 0, 70, 75
1, 11472, Note_on_c, 1, 67, 75
1, 11482, Note_on_c, 0, 70, 0
1, 11496, Note_on_c, 0, 70, 75
1, 11517, Note_on_c, 1, 67, 0
1, 11519, Note_on_c, 0, 70, 0
1, 11520, Note_on_c, 0, 68, 75
1, 11520, Note_on_c, 1, 65, 75
1, 11520, Note_on_c, 1, 58, 75
1, 11530, Note_on_c, 0, 68, 0
1, 11530, Note_on_c, 0, 70, 75
1, 11540, Note_on_c, 0, 70, 0
1, 11540, Note_on_c, 0, 68, 75
1, 11550, Note_on_c, 0, 68, 0
1, 11550, Note_on_c, 0, 67, 75
1, 11559, Note_on_c, 0, 67, 0
1, 11559, Note_on_c, 0, 68, 75
1, 11565, Note_on_c, 1, 65, 0
1, 11565, Note_on_c, 1, 58, 0
1, 11568, Note_on_c, 0, 68, 0
1, 11568, Note_on_c, 0, 67, 75
1, 11568, Note_on_c, 1, 63, 75
1, 11613, Note_on_c, 0, 67, 0
1, 11613, Note_on_c, 1, 63, 0
1, 11616, Note_on_c, 0, 75, 75
1, 11631, Note_on_c, 0, 75, 0
1, 11632, Note_on_c, 0, 74, 75
1, 11647, Note_on_c, 0, 74, 0
1, 11648, Note_on_c, 0, 72, 75
1, 11663, Note_on_c, 0, 72, 0
1, 11664, Note_on_c, 0, 70, 75
1, 11664, Note_on_c, 1, 67, 75
1, 11664, Note_on_c, 1, 58, 75
1, 11674, Note_on_c, 0, 70, 0
1, 11688, Note_on_c, 0, 82, 75
1, 11709, Note_on_c, 1, 67, 0
1, 11709, Note_on_c, 1, 58, 0
1, 11711, Note_on_c, 0, 82, 0
1, 11712, Note_on_c, 0, 80, 75
1, 11712, Note_on_c, 1, 65, 75
1, 11722, Note_on_c, 0, 80, 0
1, 11722, Note_on_c, 0, 82, 75
1, 11732, Note_on_c, 0, 82, 0
1, 11732, Note_on_c, 0, 80, 75
1, 11742, Note_on_c, 0, 80, 0
1, 11742, Note_on_c, 0, 79, 75
1, 11751, Note_on_c, 0, 79, 0
1, 11751, Note_on_c, 0, 80, 75
1, 11757, Note_on_c, 1, 65, 0
1, 11760, Note_on_c, 0, 80, 0
1, 11760, Note_on_c, 0, 79, 75
1, 11760, Note_on_c, 1, 63, 75
1, 11805, Note_on_c, 0, 79, 0
1, 11805, Note_on_c, 1, 63, 0
1, 11808, Note_on_c, 0, 79, 75
1, 11808, Note_on_c, 1, 56, 75
1, 11842, Note_on_c, 0, 79, 0
1, 11844, Note_on_c, 0, 77, 75
1, 11856, Note_on_c, 0, 77, 0
1, 11856, Note_on_c, 0, 84, 75
1, 11856, Note_on_c, 1, 56, 0
1, 11856, Note_on_c, 1, 57, 75
1, 11890, Note_on_c, 0, 84, 0
1, 11892, Note_on_c, 0, 75, 75
1, 11901, Note_on_c, 1, 57, 0
1, 11904, Note_on_c, 0, 75, 0
1, 11904, Note_on_c, 0, 75, 75
1, 11904, Note_on_c, 1, 58, 75
1, 11949, Note_on_c, 1, 58, 0
1, 11952, Note_on_c, 0, 75, 0
1, 11952, Note_on_c, 0, 74, 75
1, 11952, Note_on_c, 1, 46, 75
1, 11997, Note_on_c, 0, 74, 0
1, 11997, Note_on_c, 1, 46, 0
1, 12000, Note_on_c, 0, 58, 75
1, 12034, Note_on_c, 0, 58, 0
1, 12036, Note_on_c, 0, 60, 75
1, 12048, Note_on_c, 0, 60, 0
1, 12048, Note_on_c, 0, 62, 75
1, 12082, Note_on_c, 0, 62, 0
1, 12084, Note_on_c, 0, 63, 75
1, 12096, Note_on_c, 0, 63, 0
1, 12096, Note_on_c, 0, 65, 75
1, 12144, Note_on_c, 1, 53, 70
1, 12144, Note_on_c, 1, 50, 70
1, 12144, Note_on_c, 1, 46, 70
1, 12191, Note_on_c, 1, 53, 0
1, 12191, Note_on_c, 1, 50, 0
1, 12191, Note_on_c, 1, 46, 0
1, 12192, Note_on_c, 1, 53, 70
1, 12192, Note_on_c, 1, 50, 70
1, 12192, Note_on_c, 1, 46, 70
1, 12215, Note_on_c, 0, 65, 0
1, 12216, Note_on_c, 0, 67, 75
1, 12228, Note_on_c, 0, 67, 0
1, 12228, Note_on_c, 0, 69, 76
1, 12239, Note_on_c, 1, 53, 0
1, 12239, Note_on_c, 1, 50, 0
1, 12239, Note_on_c, 1, 46, 0
1, 12240, Note_on_c, 0, 69, 0
1, 12240, Note_on_c, 0, 70, 76
1, 12240, Note_on_c, 1, 53, 70
1, 12240, Note_on_c, 1, 50, 70
1, 12240, Note_on_c, 1, 46, 70
1, 12252, Note_on_c, 0, 70, 0
1, 12252, Note_on_c, 0, 72, 76
1, 12264, Note_on_c, 0, 72, 0
1, 12264, Note_on_c, 0, 74, 77
1, 12276, Note_on_c, 0, 74, 0
1, 12276, Note_on_c, 0, 75, 77
1, 12287, Note_on_c, 1, 53, 0
1, 12287, Note_on_c, 1, 50, 0
1, 12287, Note_on_c, 1, 46, 0
1, 12288, Note_on_c, 0, 75, 0
1, 12288, Note_on_c, 0, 77, 94
1, 12336, Note_on_c, 1, 53, 70
1, 12336, Note_on_c, 1, 50, 70
1, 12336, Note_on_c, 1, 46, 70
1, 12383, Note_on_c, 1, 53, 0
1, 12383, Note_on_c, 1, 50, 0
1, 12383, Note_on_c, 1, 46, 0
1, 12384, Note_on_c, 0, 77, 0
1, 12384, Note_on_c, 0, 75, 75
1, 12384, Note_on_c, 1, 53, 70
1, 12384, Note_on_c, 1, 50, 70
1, 12384, Note_on_c, 1, 46, 70
1, 12407, Note_on_c, 0, 75, 0
1, 12408, Note_on_c, 0, 74, 75
1, 12431, Note_on_c, 0, 74, 0
1, 12431, Note_on_c, 1, 53, 0
1, 12431, Note_on_c, 1, 50, 0
1, 12431, Note_on_c, 1, 46, 0
1, 12432, Note_on_c, 0, 72, 75
1, 12432, Note_on_c, 1, 53, 70
1, 12432, Note_on_c, 1, 50, 70
1, 12432, Note_on_c, 1, 46, 70
1, 12455, Note_on_c, 0, 72, 0
1, 12456, Note_on_c, 0, 70, 75
1, 12479, Note_on_c, 0, 70, 0
1, 12479, Note_on_c, 1, 53, 0
1, 12479, Note_on_c, 1, 50, 0
1, 12479, Note_on_c, 1, 46, 0
1, 12480, Note_on_c, 0, 75, 75
1, 12480, Note_on_c, 1, 51, 70
1, 12480, Note_on_c, 1, 46, 70
1, 12495, Note_on_c, 0, 75, 0
1, 12496, Note_on_c, 0, 77, 77
1, 12511, Note_on_c, 0, 77, 0
1, 12512, Note_on_c, 0, 79, 79
1, 12527, Note_on_c, 0, 79, 0
1, 12527, Note_on_c, 1, 51, 0
1, 12527, Note_on_c, 1, 46, 0
1, 12528, Note_on_c, 0, 77, 80
1, 12528, Note_on_c, 1, 50, 70
1, 12528, Note_on_c, 1, 46, 70
1, 12573, Note_on_c, 0, 77, 0
1, 12575, Note_on_c, 1, 50, 0
1, 12575, Note_on_c, 1, 46, 0
1, 12576, Note_on_c, 0, 82, 75
1, 12591, Note_on_c, 0, 82, 0
1, 12592, Note_on_c, 0, 81, 75
1, 12607, Note_on_c, 0, 81, 0
1, 12608, Note_on_c, 0, 79, 75
1, 12623, Note_on_c, 0, 79, 0
1, 12624, Note_on_c, 0, 77, 75
1, 12624, Note_on_c, 1, 62, 75
1, 12634, Note_on_c, 0, 77, 0
1, 12648, Note_on_c, 0, 77, 75
1, 12669, Note_on_c, 1, 62, 0
1, 12671, Note_on_c, 0, 77, 0
1, 12672, Note_on_c, 0, 75, 75
1, 12672, Note_on_c, 1, 60, 75
1, 12672, Note_on_c, 1, 53, 75
1, 12682, Note_on_c, 0, 75, 0
1, 12682, Note_on_c, 0, 77, 75
1, 12692, Note_on_c, 0, 77, 0
1, 12692, Note_on_c, 0, 75, 75
1, 12702, Note_on_c, 0, 75, 0
1, 12702, Note_on_c, 0, 74, 75
1, 12711, Note_on_c, 0, 74, 0
1, 12711, Note_on_c, 0, 75, 75
1, 12717, Note_on_c, 1, 60, 0
1, 12717, Note_on_c, 1, 53, 0
1, 12720, Note_on_c, 0, 75, 0
1, 12720, Note_on_c, 0, 74, 75
1, 12720, Note_on_c, 1, 58, 75
1, 12765, Note_on_c, 0, 74, 0
1, 12765, Note_on_c, 1, 58, 0
1, 12768, Note_on_c, 0, 82, 75
1, 12783, Note_on_c, 0, 82, 0
1, 12784, Note_on_c, 0, 81, 75
1, 12799, Note_on_c, 0, 81, 0
1, 12800, Note_on_c, 0, 79, 75
1, 12815, Note_on_c, 0, 79, 0
1, 12816, Note_on_c, 0, 77, 75
1, 12816, Note_on_c, 1, 62, 75
1, 12826, Note_on_c, 0, 77, 0
1, 12840, Note_on_c, 0, 77, 75
1, 12861, Note_on_c, 1, 62, 0
1, 12863, Note_on_c, 0, 77, 0
1, 12864, Note_on_c, 0, 75, 75
1, 12864, Note_on_c, 1, 60, 75
1, 12864, Note_on_c, 1, 53, 75
1, 12874, Note_on_c, 0, 75, 0
1, 12874, Note_on_c, 0, 77, 75
1, 12884, Note_on_c, 0, 77, 0
1, 12884, Note_on_c, 0, 75, 75
1, 12894, Note_on_c, 0, 75, 0
1, 12894, Note_on_c, 0, 74, 75
1, 12903, Note_on_c, 0, 74, 0
1, 12903, Note_on_c, 0, 75, 75
1, 12909, Note_on_c, 1, 60, 0
1, 12909, Note_on_c, 1, 53, 0
1, 12912, Note_on_c, 0, 75, 0
1, 12912, Note_on_c, 0, 74, 75
1, 12912, Note_on_c, 1, 58, 75
1, 12957, Note_on_c, 0, 74, 0
1, 12957, Note_on_c, 1, 58, 0
1, 12960, Note_on_c, 0, 77, 75
1, 12975, Note_on_c, 0, 77, 0
1, 12976, Note_on_c, 0, 75, 75
1, 12991, Note_on_c, 0, 75, 0
1, 12992, Note_on_c, 0, 74, 75
1, 13007, Note_on_c, 0, 74, 0
1, 13008, Note_on_c, 0, 72, 75
1, 13008, Note_on_c, 1, 58, 75
1, 13008, Note_on_c, 1, 50, 75
1, 13023, Note_on_c, 0, 72, 0
1, 13024, Note_on_c, 0, 70, 75
1, 13039, Note_on_c, 0, 70, 0
1, 13040, Note_on_c, 0, 68, 75
1, 13053, Note_on_c, 1, 58, 0
1, 13053, Note_on_c, 1, 50, 0
1, 13055, Note_on_c, 0, 68, 0
1, 13056, Note_on_c, 0, 67, 75
1, 13056, Note_on_c, 1, 58, 70
1, 13056, Note_on_c, 1, 55, 70
1, 13056, Note_on_c, 1, 51, 70
1, 13074, Note_on_c, 0, 67, 0
1, 13074, Note_on_c, 0, 75, 75
1, 13103, Note_on_c, 1, 58, 0
1, 13103, Note_on_c, 1, 55, 0
1, 13103, Note_on_c, 1, 51, 0
1, 13104, Note_on_c, 1, 58, 70
1, 13104, Note_on_c, 1, 55, 70
1, 13104, Note_on_c, 1, 51, 70
1, 13145, Note_on_c, 0, 75, 0
1, 13151, Note_on_c, 1, 58, 0
1, 13151, Note_on_c, 1, 55, 0
1, 13151, Note_on_c, 1, 51, 0
1, 13152, Note_on_c, 0, 75, 75
1, 13152, Note_on_c, 1, 58, 70
1, 13152, Note_on_c, 1, 55, 70
1, 13152, Note_on_c, 1, 51, 70
1, 13186, Note_on_c, 0, 75, 0
1, 13188, Note_on_c, 0, 77, 75
1, 13199, Note_on_c, 1, 58, 0
1, 13199, Note_on_c, 1, 55, 0
1, 13199, Note_on_c, 1, 51, 0
1, 13200, Note_on_c, 0, 77, 0
1, 13200, Note_on_c, 0, 79, 75
1, 13200, Note_on_c, 1, 58, 70
1, 13200, Note_on_c, 1, 55, 70
1, 13200, Note_on_c, 1, 51, 70
1, 13234, Note_on_c, 0, 79, 0
1, 13236, Note_on_c, 0, 80, 75
1, 13247, Note_on_c, 1, 58, 0
1, 13247, Note_on_c, 1, 55, 0
1, 13247, Note_on_c, 1, 51, 0
1, 13248, Note_on_c, 0, 80, 0
1, 13248, Note_on_c, 0, 82, 91
1, 13296, Note_on_c, 1, 58, 70
1, 13296, Note_on_c, 1, 55, 70
1, 13296, Note_on_c, 1, 51, 70
1, 13343, Note_on_c, 1, 58, 0
1, 13343, Note_on_c, 1, 55, 0
1, 13343, Note_on_c, 1, 51, 0
1, 13344, Note_on_c, 0, 82, 0
1, 13344, Note_on_c, 0, 80, 75
1, 13344, Note_on_c, 1, 58, 70
1, 13344, Note_on_c, 1, 55, 70
1, 13344, Note_on_c, 1, 51, 70
1, 13367, Note_on_c, 0, 80, 0
1, 13368, Note_on_c, 0, 79, 75
1, 13391, Note_on_c, 0, 79, 0
1, 13391, Note_on_c, 1, 58, 0
1, 13391, Note_on_c, 1, 55, 0
1, 13391, Note_on_c, 1, 51, 0
1, 13392, Note_on_c, 0, 77, 75
1, 13392, Note_on_c, 1, 58, 70
1, 13392, Note_on_c, 1, 55, 70
1, 13392, Note_on_c, 1, 51, 70
1, 13415, Note_on_c, 0, 77, 0
1, 13416, Note_on_c, 0, 75, 75
1, 13439, Note_on_c, 0, 75, 0
1, 13439, Note_on_c, 1, 58, 0
1, 13439, Note_on_c, 1, 55, 0
1, 13439, Note_on_c, 1, 51, 0
1, 13440, Note_on_c, 0, 74, 75
1, 13463, Note_on_c, 0, 74, 0
1, 13464, Note_on_c, 0, 72, 75
1, 13487, Note_on_c, 0, 72, 0
1, 13488, Note_on_c, 0, 72, 75
1, 13488, Note_on_c, 1, 56, 70
1, 13488, Note_on_c, 1, 51, 70
1, 13535, Note_on_c, 1, 56, 0
1, 13535, Note_on_c, 1, 51, 0
1, 13536, Note_on_c, 1, 56, 70
1, 13536, Note_on_c, 1, 51, 70
1, 13581, Note_on_c, 0, 72, 0
1, 13583, Note_on_c, 1, 56, 0
1, 13583, Note_on_c, 1, 51, 0
1, 13584, Note_on_c, 0, 75, 75
1, 13584, Note_on_c, 1, 56, 70
1, 13584, Note_on_c, 1, 51, 70
1, 13607, Note_on_c, 0, 75, 0
1, 13608, Note_on_c, 0, 72, 75
1, 13631, Note_on_c, 0, 72, 0
1, 13631, Note_on_c, 1, 56, 0
1, 13631, Note_on_c, 1, 51, 0
1, 13632, Note_on_c, 0, 72, 75
1, 13655, Note_on_c, 0, 72, 0
1, 13656, Note_on_c, 0, 70, 75
1, 13679, Note_on_c, 0, 70, 0
1, 13680, Note_on_c, 0, 70, 75
1, 13680, Note_on_c, 1, 55, 70
1, 13680, Note_on_c, 1, 51, 70
1, 13727, Note_on_c, 1, 55, 0
1, 13727, Note_on_c, 1, 51, 0
1, 13728, Note_on_c, 1, 55, 70
1, 13728, Note_on_c, 1, 51, 70
1, 13751, Note_on_c, 0, 70, 0
1, 13752, Note_on_c, 0, 75, 75
1, 13775, Note_on_c, 0, 75, 0
1, 13775, Note_on_c, 1, 55, 0
1, 13775, Note_on_c, 1, 51, 0
1, 13776, Note_on_c, 0, 79, 75
1, 13776, Note_on_c, 1, 55, 70
1, 13776, Note_on_c, 1, 51, 70
1, 13799, Note_on_c, 0, 79, 0
1, 13800, Note_on_c, 0, 75, 75
1, 13823, Note_on_c, 0, 75, 0
1, 13823, Note_on_c, 1, 55, 0
1, 13823, Note_on_c, 1, 51, 0
1, 13824, Note_on_c, 0, 74, 75
1, 13830, Note_on_c, 0, 74, 0
1, 13830, Note_on_c, 0, 75, 75
1, 13836, Note_on_c, 0, 75, 0
1, 13836, Note_on_c, 0, 74, 75
1, 13847, Note_on_c, 0, 74, 0
1, 13848, Note_on_c, 0, 72, 75
1, 13871, Note_on_c, 0, 72, 0
1, 13872, Note_on_c, 0, 72, 75
1, 13872, Note_on_c, 1, 56, 70
1, 13872, Note_on_c, 1, 51, 70
1, 13919, Note_on_c, 1, 56, 0
1, 13919, Note_on_c, 1, 51, 0
1, 13920, Note_on_c, 1, 56, 70
1, 13920, Note_on_c, 1, 51, 70
1, 13943, Note_on_c, 0, 72, 0
1, 13944, Note_on_c, 0, 75, 75
1, 13956, Note_on_c, 0, 75, 0
1, 13956, Note_on_c, 0, 74, 75
1, 13967, Note_on_c, 1, 56, 0
1, 13967, Note_on_c, 1, 51, 0
1, 13968, Note_on_c, 0, 74, 0
1, 13968, Note_on_c, 0, 77, 75
1, 13968, Note_on_c, 1, 56, 70
1, 13968, Note_on_c, 1, 51, 70
1, 13980, Note_on_c, 0, 77, 0
1, 13980, Note_on_c, 0, 75, 75
1, 13992, Note_on_c, 0, 75, 0
1, 13992, Note_on_c, 0, 74, 75
1, 14004, Note_on_c, 0, 74, 0
1, 14004, Note_on_c, 0, 72, 75
1, 14015, Note_on_c, 1, 56, 0
1, 14015, Note_on_c, 1, 51, 0
1, 14016, Note_on_c, 0, 72, 0
1, 14016, Note_on_c, 0, 72, 91
1, 14016, Note_on_c, 1, 55, 70
1, 14016, Note_on_c, 1, 51, 70
1, 14040, Note_on_c, 0, 72, 0
1, 14040, Note_on_c, 0, 70, 75
1, 14063, Note_on_c, 0, 70, 0
1, 14064, Note_on_c, 0, 70, 75
1, 14105, Note_on_c, 1, 55, 0
1, 14105, Note_on_c, 1, 51, 0
1, 14112, Note_on_c, 1, 63, 70
1, 14112, Note_on_c, 1, 55, 70
1, 14146, Note_on_c, 0, 70, 0
1, 14148, Note_on_c, 0, 75, 75
1, 14160, Note_on_c, 0, 75, 0
1, 14160, Note_on_c, 0, 75, 75
1, 14194, Note_on_c, 0, 75, 0
1, 14196, Note_on_c, 0, 75, 75
1, 14201, Note_on_c, 1, 63, 0
1, 14201, Note_on_c, 1, 55, 0
1, 14208, Note_on_c, 0, 75, 0
1, 14208, Note_on_c, 0, 75, 75
1, 14208, Note_on_c, 1, 63, 70
1, 14208, Note_on_c, 1, 56, 70
1, 14242, Note_on_c, 0, 75, 0
1, 14244, Note_on_c, 0, 65, 75
1, 14256, Note_on_c, 0, 65, 0
1, 14256, Note_on_c, 0, 65, 75
1, 14297, Note_on_c, 1, 63, 0
1, 14297, Note_on_c, 1, 56, 0
1, 14304, Note_on_c, 1, 62, 70
1, 14304, Note_on_c, 1, 58, 70
1, 14338, Note_on_c, 0, 65, 0
1, 14340, Note_on_c, 0, 72, 75
1, 14352, Note_on_c, 0, 72, 0
1, 14352, Note_on_c, 0, 70, 75
1, 14386, Note_on_c, 0, 70, 0
1, 14388, Note_on_c, 0, 68, 75
1, 14393, Note_on_c, 1, 62, 0
1, 14393, Note_on_c, 1, 58, 0
1, 14400, Note_on_c, 0, 68, 0
1, 14400, Note_on_c, 0, 70, 75
1, 14400, Note_on_c, 1, 63, 70
1, 14400, Note_on_c, 1, 60, 70
1, 14406, Note_on_c, 0, 70, 0
1, 14406, Note_on_c, 0, 68, 75
1, 14412, Note_on_c, 0, 68, 0
1, 14412, Note_on_c, 0, 67, 75
1, 14418, Note_on_c, 0, 67, 0
1, 14418, Note_on_c, 0, 68, 75
1, 14434, Note_on_c, 0, 68, 0
1, 14436, Note_on_c, 0, 67, 75
1, 14448, Note_on_c, 0, 67, 0
1, 14448, Note_on_c, 0, 67, 75
1, 14489, Note_on_c, 1, 63, 0
1, 14489, Note_on_c, 1, 60, 0
1, 14496, Note_on_c, 1, 63, 70
1, 14496, Note_on_c, 1, 55, 70
1, 14530, Note_on_c, 0, 67, 0
1, 14532, Note_on_c, 0, 75, 75
1, 14544, Note_on_c, 0, 75, 0
1, 14544, Note_on_c, 0, 75, 75
1, 14578, Note_on_c, 0, 75, 0
1, 14580, Note_on_c, 0, 75, 75
1, 14585, Note_on_c, 1, 63, 0
1, 14585, Note_on_c, 1, 55, 0
1, 14592, Note_on_c, 0, 75, 0
1, 14592, Note_on_c, 0, 75, 75
1, 14592, Note_on_c, 1, 63, 70
1, 14592, Note_on_c, 1, 56, 70
1, 14626, Note_on_c, 0, 75, 0
1, 14628, Note_on_c, 0, 65, 75
1, 14640, Note_on_c, 0, 65, 0
1, 14640, Note_on_c, 0, 65, 75
1, 14681, Note_on_c, 1, 63, 0
1, 14681, Note_on_c, 1, 56, 0
1, 14688, Note_on_c, 1, 62, 70
1, 14688, Note_on_c, 1, 58, 70
1, 14733, Note_on_c, 0, 65, 0
1, 14736, Note_on_c, 0, 68, 75
1, 14751, Note_on_c, 0, 68, 0
1, 14752, Note_on_c, 0, 65, 74
1, 14767, Note_on_c, 0, 65, 0
1, 14768, Note_on_c, 0, 62, 74
1, 14777, Note_on_c, 1, 62, 0
1, 14777, Note_on_c, 1, 58, 0
1, 14783, Note_on_c, 0, 62, 0
1, 14784, Note_on_c, 0, 63, 74
1, 14784, Note_on_c, 1, 51, 70
1, 14829, Note_on_c, 0, 63, 0
1, 14829, Note_on_c, 1, 51, 0
1, 14832, Note_on_c, 0, 68, 73
1, 14832, Note_on_c, 1, 58, 69
1, 14847, Note_on_c, 0, 68, 0
1, 14848, Note_on_c, 0, 65, 73
1, 14863, Note_on_c, 0, 65, 0
1, 14864, Note_on_c, 0, 62, 72
1, 14877, Note_on_c, 1, 58, 0
1, 14879, Note_on_c, 0, 62, 0
1, 14880, Note_on_c, 0, 63, 72
1, 14880, Note_on_c, 1, 51, 68
1, 14925, Note_on_c, 0, 63, 0
1, 14925, Note_on_c, 1, 51, 0
1, 14928, Note_on_c, 0, 68, 71
1, 14928, Note_on_c, 1, 58, 67
1, 14943, Note_on_c, 0, 68, 0
1, 14944, Note_on_c, 0, 65, 71
1, 14959, Note_on_c, 0, 65, 0
1, 14960, Note_on_c, 0, 62, 71
1, 14973, Note_on_c, 1, 58, 0
1, 14975, Note_on_c, 0, 62, 0
1, 14976, Note_on_c, 0, 63, 70
1, 14976, Note_on_c, 1, 51, 66
1, 15065, Note_on_c, 0, 63, 0
1, 15065, Note_on_c, 1, 51, 0
1, 15144, Note_on_c, 0, 82, 70
1, 15154, Note_on_c, 0, 82, 0
1, 15168, Note_on_c, 0, 78, 70
1, 15168, Note_on_c, 0, 63, 70
1, 15192, Note_on_c, 0, 78, 0
1, 15192, Note_on_c, 0, 79, 70
1, 15215, Note_on_c, 0, 79, 0
1, 15216, Note_on_c, 1, 70, 70
1, 15240, Note_on_c, 0, 82, 70
1, 15250, Note_on_c, 0, 82, 0
1, 15257, Note_on_c, 0, 63, 0
1, 15264, Note_on_c, 0, 76, 70
1, 15264, Note_on_c, 0, 62, 70
1, 15288, Note_on_c, 0, 76, 0
1, 15288, Note_on_c, 0, 77, 70
1, 15305, Note_on_c, 1, 70, 0
1, 15311, Note_on_c, 0, 77, 0
1, 15312, Note_on_c, 1, 70, 70
1, 15336, Note_on_c, 0, 82, 70
1, 15346, Note_on_c, 0, 82, 0
1, 15353, Note_on_c, 0, 62, 0
1, 15360, Note_on_c, 0, 77, 70
1, 15360, Note_on_c, 0, 60, 70
1, 15405, Note_on_c, 1, 70, 0
1, 15405, Note_on_c, 0, 60, 0
1, 15408, Note_on_c, 1, 69, 70
1, 15408, Note_on_c, 0, 65, 70
1, 15410, Note_on_c, 0, 77, 0
1, 15410, Note_on_c, 0, 75, 70
1, 15420, Note_on_c, 0, 75, 0
1, 15420, Note_on_c, 0, 77, 70
1, 15429, Note_on_c, 0, 77, 0
1, 15429, Note_on_c, 0, 75, 70
1, 15438, Note_on_c, 0, 75, 0
1, 15438, Note_on_c, 0, 74, 70
1, 15447, Note_on_c, 0, 74, 0
1, 15447, Note_on_c, 0, 75, 70
1, 15453, Note_on_c, 1, 69, 0
1, 15453, Note_on_c, 0, 65, 0
1, 15456, Note_on_c, 0, 75, 0
1, 15456, Note_on_c, 0, 74, 70
1, 15456, Note_on_c, 1, 70, 70
1, 15456, Note_on_c, 0, 58, 70
1, 15523, Note_on_c, 0, 74, 0
1, 15528, Note_on_c, 0, 82, 70
1, 15545, Note_on_c, 1, 70, 0
1, 15545, Note_on_c, 0, 58, 0
1, 15551, Note_on_c, 0, 82, 0
1, 15552, Note_on_c, 0, 78, 70
1, 15552, Note_on_c, 0, 63, 70
1, 15564, Note_on_c, 0, 78, 0
1, 15564, Note_on_c, 0, 79, 70
1, 15576, Note_on_c, 0, 79, 0
1, 15576, Note_on_c, 0, 78, 70
1, 15588, Note_on_c, 0, 78, 0
1, 15588, Note_on_c, 0, 79, 70
1, 15600, Note_on_c, 0, 79, 0
1, 15600, Note_on_c, 1, 70, 70
1, 15624, Note_on_c, 0, 82, 70
1, 15641, Note_on_c, 0, 63, 0
1, 15647, Note_on_c, 0, 82, 0
1, 15648, Note_on_c, 0, 76, 70
1, 15648, Note_on_c, 0, 62, 70
1, 15660, Note_on_c, 0, 76, 0
1, 15660, Note_on_c, 0, 77, 70
1, 15672, Note_on_c, 0, 77, 0
1, 15672, Note_on_c, 0, 76, 70
1, 15684, Note_on_c, 0, 76, 0
1, 15684, Note_on_c, 0, 77, 70
1, 15689, Note_on_c, 1, 70, 0
1, 15696, Note_on_c, 0, 77, 0
1, 15696, Note_on_c, 1, 70, 70
1, 15708, Note_on_c, 0, 82, 70
1, 15720, Note_on_c, 0, 82, 0
1, 15720, Note_on_c, 0, 81, 70
1, 15732, Note_on_c, 0, 81, 0
1, 15732, Note_on_c, 0, 79, 70
1, 15737, Note_on_c, 0, 62, 0
1, 15744, Note_on_c, 0, 79, 0
1, 15744, Note_on_c, 0, 77, 70
1, 15744, Note_on_c, 0, 60, 70
1, 15789, Note_on_c, 1, 70, 0
1, 15789, Note_on_c, 0, 60, 0
1, 15792, Note_on_c, 1, 69, 70
1, 15792, Note_on_c, 0, 65, 70
1, 15794, Note_on_c, 0, 77, 0
1, 15794, Note_on_c, 0, 75, 70
1, 15804, Note_on_c, 0, 75, 0
1, 15804, Note_on_c, 0, 77, 70
1, 15813, Note_on_c, 0, 77, 0
1, 15813, Note_on_c, 0, 75, 70
1, 15822, Note_on_c, 0, 75, 0
1, 15822, Note_on_c, 0, 74, 70
1, 15831, Note_on_c, 0, 74, 0
1, 15831, Note_on_c, 0, 75, 70
1, 15837, Note_on_c, 1, 69, 0
1, 15837, Note_on_c, 0, 65, 0
1, 15840, Note_on_c, 0, 75, 0
1, 15840, Note_on_c, 0, 74, 70
1, 15840, Note_on_c, 1, 70, 66
1, 15840, Note_on_c, 0, 70, 66
1, 15885, Note_on_c, 0, 70, 0
1, 15888, Note_on_c, 0, 58, 75
1, 15929, Note_on_c, 0, 74, 0
1, 15929, Note_on_c, 1, 70, 0
1, 15933, Note_on_c, 0, 58, 0
1, 15936, Note_on_c, 0, 74, 70
1, 15936, Note_on_c, 1, 63, 70
1, 15959, Note_on_c, 0, 74, 0
1, 15959, Note_on_c, 1, 63, 0
1, 15960, Note_on_c, 0, 72, 70
1, 15960, Note_on_c, 1, 67, 70
1, 15983, Note_on_c, 0, 72, 0
1, 15983, Note_on_c, 1, 67, 0
1, 15984, Note_on_c, 0, 72, 70
1, 15984, Note_on_c, 1, 63, 71
1, 16007, Note_on_c, 1, 63, 0
1, 16008, Note_on_c, 1, 67, 71
1, 16031, Note_on_c, 1, 67, 0
1, 16032, Note_on_c, 1, 63, 72
1, 16055, Note_on_c, 1, 63, 0
1, 16056, Note_on_c, 1, 67, 72
1, 16079, Note_on_c, 1, 67, 0
1, 16080, Note_on_c, 1, 63, 73
1, 16099, Note_on_c, 0, 72, 0
1, 16103, Note_on_c, 1, 63, 0
1, 16104, Note_on_c, 0, 79, 73
1, 16104, Note_on_c, 1, 67, 73
1, 16116, Note_on_c, 0, 79, 0
1, 16116, Note_on_c, 0, 75, 73
1, 16127, Note_on_c, 1, 67, 0
1, 16128, Note_on_c, 0, 75, 0
1, 16128, Note_on_c, 0, 74, 73
1, 16128, Note_on_c, 1, 63, 74
1, 16151, Note_on_c, 0, 74, 0
1, 16151, Note_on_c, 1, 63, 0
1, 16152, Note_on_c, 0, 72, 74
1, 16152, Note_on_c, 1, 67, 74
1, 16175, Note_on_c, 0, 72, 0
1, 16175, Note_on_c, 1, 67, 0
1, 16176, Note_on_c, 0, 72, 74
1, 16176, Note_on_c, 1, 63, 75
1, 16199, Note_on_c, 1, 63, 0
1, 16200, Note_on_c, 1, 67, 75
1, 16223, Note_on_c, 1, 67, 0
1, 16224, Note_on_c, 1, 63, 76
1, 16247, Note_on_c, 1, 63, 0
1, 16248, Note_on_c, 1, 67, 76
1, 16271, Note_on_c, 1, 67, 0
1, 16272, Note_on_c, 1, 63, 77
1, 16291, Note_on_c, 0, 72, 0
1, 16295, Note_on_c, 1, 63, 0
1, 16296, Note_on_c, 0, 79, 76
1, 16296, Note_on_c, 1, 67, 77
1, 16308, Note_on_c, 0, 79, 0
1, 16308, Note_on_c, 0, 76, 77
1, 16319, Note_on_c, 1, 67, 0
1, 16320, Note_on_c, 0, 76, 0
1, 16320, Note_on_c, 0, 72, 77
1, 16320, Note_on_c, 1, 64, 78
1, 16343, Note_on_c, 1, 64, 0
1, 16344, Note_on_c, 1, 67, 78
1, 16367, Note_on_c, 1, 67, 0
1, 16368, Note_on_c, 1, 64, 79
1, 16391, Note_on_c, 1, 64, 0
1, 16392, Note_on_c, 1, 67, 79
1, 16409, Note_on_c, 0, 72, 0
1, 16415, Note_on_c, 1, 67, 0
1, 16416, Note_on_c, 0, 72, 79
1, 16416, Note_on_c, 1, 64, 80
1, 16426, Note_on_c, 0, 72, 0
1, 16426, Note_on_c, 0, 70, 79
1, 16436, Note_on_c, 0, 70, 0
1, 16436, Note_on_c, 0, 72, 79
1, 16439, Note_on_c, 1, 64, 0
1, 16440, Note_on_c, 1, 67, 81
1, 16446, Note_on_c, 0, 72, 0
1, 16446, Note_on_c, 0, 70, 79
1, 16456, Note_on_c, 0, 70, 0
1, 16456, Note_on_c, 0, 72, 79
1, 16463, Note_on_c, 1, 67, 0
1, 16464, Note_on_c, 1, 64, 81
1, 16466, Note_on_c, 0, 72, 0
1, 16466, Note_on_c, 0, 70, 79
1, 16476, Note_on_c, 0, 70, 0
1, 16476, Note_on_c, 0, 72, 79
1, 16485, Note_on_c, 0, 72, 0
1, 16485, Note_on_c, 0, 70, 79
1, 16487, Note_on_c, 1, 64, 0
1, 16488, Note_on_c, 1, 67, 81
1, 16494, Note_on_c, 0, 70, 0
1, 16494, Note_on_c, 0, 69, 80
1, 16503, Note_on_c, 0, 69, 0
1, 16503, Note_on_c, 0, 70, 80
1, 16511, Note_on_c, 1, 67, 0
1, 16512, Note_on_c, 0, 70, 0
1, 16512, Note_on_c, 0, 69, 81
1, 16512, Note_on_c, 1, 65, 81
1, 16535, Note_on_c, 0, 69, 0
1, 16536, Note_on_c, 0, 77, 81
1, 16559, Note_on_c, 0, 77, 0
1, 16559, Note_on_c, 1, 65, 0
1, 16560, Note_on_c, 1, 69, 75
1, 16560, Note_on_c, 1, 65, 75
1, 16584, Note_on_c, 0, 77, 81
1, 16594, Note_on_c, 0, 77, 0
1, 16607, Note_on_c, 1, 69, 0
1, 16607, Note_on_c, 1, 65, 0
1, 16608, Note_on_c, 0, 75, 81
1, 16608, Note_on_c, 1, 70, 75
1, 16608, Note_on_c, 1, 65, 75
1, 16618, Note_on_c, 0, 75, 0
1, 16618, Note_on_c, 0, 73, 81
1, 16628, Note_on_c, 0, 73, 0
1, 16628, Note_on_c, 0, 75, 81
1, 16638, Note_on_c, 0, 75, 0
1, 16638, Note_on_c, 0, 73, 81
1, 16648, Note_on_c, 0, 73, 0
1, 16648, Note_on_c, 0, 75, 81
1, 16655, Note_on_c, 1, 70, 0
1, 16655, Note_on_c, 1, 65, 0
1, 16656, Note_on_c, 1, 70, 75
1, 16656, Note_on_c, 1, 65, 75
1, 16658, Note_on_c, 0, 75, 0
1, 16658, Note_on_c, 0, 73, 81
1, 16668, Note_on_c, 0, 73, 0
1, 16668, Note_on_c, 0, 75, 81
1, 16677, Note_on_c, 0, 75, 0
1, 16677, Note_on_c, 0, 73, 81
1, 16686, Note_on_c, 0, 73, 0
1, 16686, Note_on_c, 0, 72, 81
1, 16695, Note_on_c, 0, 72, 0
1, 16695, Note_on_c, 0, 73, 81
1, 16703, Note_on_c, 1, 70, 0
1, 16703, Note_on_c, 1, 65, 0
1, 16704, Note_on_c, 0, 73, 0
1, 16704, Note_on_c, 0, 72, 81
1, 16704, Note_on_c, 1, 69, 75
1, 16704, Note_on_c, 1, 65, 75
1, 16727, Note_on_c, 0, 72, 0
1, 16728, Note_on_c, 0, 77, 81
1, 16751, Note_on_c, 0, 77, 0
1, 16751, Note_on_c, 1, 69, 0
1, 16751, Note_on_c, 1, 65, 0
1, 16752, Note_on_c, 1, 69, 75
1, 16752, Note_on_c, 1, 65, 75
1, 16776, Note_on_c, 0, 77, 81
1, 16786, Note_on_c, 0, 77, 0
1, 16799, Note_on_c, 1, 69, 0
1, 16799, Note_on_c, 1, 65, 0
1, 16800, Note_on_c, 0, 75, 81
1, 16800, Note_on_c, 1, 70, 75
1, 16800, Note_on_c, 1, 65, 75
1, 16810, Note_on_c, 0, 75, 0
1, 16810, Note_on_c, 0, 73, 81
1, 16820, Note_on_c, 0, 73, 0
1, 16820, Note_on_c, 0, 75, 81
1, 16830, Note_on_c, 0, 75, 0
1, 16830, Note_on_c, 0, 73, 81
1, 16840, Note_on_c, 0, 73, 0
1, 16840, Note_on_c, 0, 75, 81
1, 16847, Note_on_c, 1, 70, 0
1, 16847, Note_on_c, 1, 65, 0
1, 16848, Note_on_c, 1, 70, 75
1, 16848, Note_on_c, 1, 65, 75
1, 16850, Note_on_c, 0, 75, 0
1, 16850, Note_on_c, 0, 73, 81
1, 16860, Note_on_c, 0, 73, 0
1, 16860, Note_on_c, 0, 75, 81
1, 16869, Note_on_c, 0, 75, 0
1, 16869, Note_on_c, 0, 73, 81
1, 16878, Note_on_c, 0, 73, 0
1, 16878, Note_on_c, 0, 72, 81
1, 16887, Note_on_c, 0, 72, 0
1, 16887, Note_on_c, 0, 73, 81
1, 16895, Note_on_c, 1, 70, 0
1, 16895, Note_on_c, 1, 65, 0
1, 16896, Note_on_c, 0, 73, 0
1, 16896, Note_on_c, 0, 72, 81
1, 16896, Note_on_c, 1, 69, 75
1, 16896, Note_on_c, 1, 65, 75
1, 16919, Note_on_c, 0, 72, 0
1, 16920, Note_on_c, 0, 77, 81
1, 16943, Note_on_c, 0, 77, 0
1, 16943, Note_on_c, 1, 69, 0
1, 16943, Note_on_c, 1, 65, 0
1, 16944, Note_on_c, 1, 69, 75
1, 16944, Note_on_c, 1, 65, 75
1, 16968, Note_on_c, 0, 77, 81
1, 16978, Note_on_c, 0, 77, 0
1, 16991, Note_on_c, 1, 69, 0
1, 16991, Note_on_c, 1, 65, 0
1, 16992, Note_on_c, 0, 75, 81
1, 16992, Note_on_c, 1, 70, 75
1, 16992, Note_on_c, 1, 65, 75
1, 17002, Note_on_c, 0, 75, 0
1, 17002, Note_on_c, 0, 73, 81
1, 17012, Note_on_c, 0, 73, 0
1, 17012, Note_on_c, 0, 75, 81
1, 17022, Note_on_c, 0, 75, 0
1, 17022, Note_on_c, 0, 73, 81
1, 17032, Note_on_c, 0, 73, 0
1, 17032, Note_on_c, 0, 75, 81
1, 17039, Note_on_c, 1, 70, 0
1, 17039, Note_on_c, 1, 65, 0
1, 17040, Note_on_c, 1, 70, 75
1, 17040, Note_on_c, 1, 65, 75
1, 17042, Note_on_c, 0, 75, 0
1, 17042, Note_on_c, 0, 73, 81
1, 17052, Note_on_c, 0, 73, 0
1, 17052, Note_on_c, 0, 75, 81
1, 17061, Note_on_c, 0, 75, 0
1, 17061, Note_on_c, 0, 73, 81
1, 17070, Note_on_c, 0, 73, 0
1, 17070, Note_on_c, 0, 72, 81
1, 17079, Note_on_c, 0, 72, 0
1, 17079, Note_on_c, 0, 73, 81
1, 17087, Note_on_c, 1, 70, 0
1, 17087, Note_on_c, 1, 65, 0
1, 17088, Note_on_c, 0, 73, 0
1, 17088, Note_on_c, 0, 72, 81
1, 17088, Note_on_c, 1, 69, 75
1, 17088, Note_on_c, 1, 65, 75
1, 17177, Note_on_c, 0, 72, 0
1, 17177, Note_on_c, 1, 69, 0
1, 17177, Note_on_c, 1, 65, 0
1, 17184, Note_on_c, 1, 62, 75
1, 17232, Note_on_c, 0, 70, 75
1, 17255, Note_on_c, 0, 70, 0
1, 17256, Note_on_c, 0, 70, 75
1, 17273, Note_on_c, 1, 62, 0
1, 17279, Note_on_c, 0, 70, 0
1, 17280, Note_on_c, 0, 70, 75
1, 17280, Note_on_c, 1, 60, 75
1, 17286, Note_on_c, 0, 70, 0
1, 17286, Note_on_c, 0, 72, 75
1, 17292, Note_on_c, 0, 72, 0
1, 17292, Note_on_c, 0, 70, 75
1, 17303, Note_on_c, 0, 70, 0
1, 17304, Note_on_c, 0, 69, 75
1, 17325, Note_on_c, 1, 60, 0
1, 17327, Note_on_c, 0, 69, 0
1, 17328, Note_on_c, 0, 75, 75
1, 17328, Note_on_c, 1, 57, 75
1, 17351, Note_on_c, 0, 75, 0
1, 17352, Note_on_c, 0, 75, 75
1, 17373, Note_on_c, 1, 57, 0
1, 17375, Note_on_c, 0, 75, 0
1, 17376, Note_on_c, 0, 75, 75
1, 17376, Note_on_c, 1, 58, 75
1, 17382, Note_on_c, 0, 75, 0
1, 17382, Note_on_c, 0, 77, 75
1, 17388, Note_on_c, 0, 77, 0
1, 17388, Note_on_c, 0, 75, 75
1, 17399, Note_on_c, 0, 75, 0
1, 17400, Note_on_c, 0, 74, 75
1, 17421, Note_on_c, 1, 58, 0
1, 17423, Note_on_c, 0, 74, 0
1, 17424, Note_on_c, 0, 79, 75
1, 17424, Note_on_c, 1, 63, 75
1, 17447, Note_on_c, 0, 79, 0
1, 17448, Note_on_c, 0, 79, 75
1, 17469, Note_on_c, 1, 63, 0
1, 17471, Note_on_c, 0, 79, 0
1, 17472, Note_on_c, 0, 79, 75
1, 17472, Note_on_c, 1, 62, 75
1, 17478, Note_on_c, 0, 79, 0
1, 17478, Note_on_c, 0, 81, 75
1, 17484, Note_on_c, 0, 81, 0
1, 17484, Note_on_c, 0, 79, 75
1, 17495, Note_on_c, 0, 79, 0
1, 17496, Note_on_c, 0, 77, 75
1, 17519, Note_on_c, 0, 77, 0
1, 17520, Note_on_c, 0, 77, 75
1, 17543, Note_on_c, 0, 77, 0
1, 17544, Note_on_c, 0, 75, 75
1, 17561, Note_on_c, 1, 62, 0
1, 17567, Note_on_c, 0, 75, 0
1, 17568, Note_on_c, 0, 77, 75
1, 17578, Note_on_c, 0, 77, 0
1, 17578, Note_on_c, 0, 75, 75
1, 17588, Note_on_c, 0, 75, 0
1, 17588, Note_on_c, 0, 77, 75
1, 17598, Note_on_c, 0, 77, 0
1, 17598, Note_on_c, 0, 75, 75
1, 17608, Note_on_c, 0, 75, 0
1, 17608, Note_on_c, 0, 77, 75
1, 17616, Note_on_c, 1, 57, 75
1, 17618, Note_on_c, 0, 77, 0
1, 17618, Note_on_c, 0, 75, 75
1, 17628, Note_on_c, 0, 75, 0
1, 17628, Note_on_c, 0, 77, 75
1, 17637, Note_on_c, 0, 77, 0
1, 17637, Note_on_c, 0, 75, 75
1, 17646, Note_on_c, 0, 75, 0
1, 17646, Note_on_c, 0, 74, 75
1, 17655, Note_on_c, 0, 74, 0
1, 17655, Note_on_c, 0, 72, 75
1, 17661, Note_on_c, 1, 57, 0
1, 17664, Note_on_c, 0, 72, 0
1, 17664, Note_on_c, 0, 74, 75
1, 17664, Note_on_c, 1, 58, 75
1, 17679, Note_on_c, 0, 74, 0
1, 17680, Note_on_c, 0, 86, 75
1, 17695, Note_on_c, 0, 86, 0
1, 17696, Note_on_c, 0, 82, 75
1, 17709, Note_on_c, 1, 58, 0
1, 17711, Note_on_c, 0, 82, 0
1, 17712, Note_on_c, 0, 81, 75
1, 17712, Note_on_c, 1, 62, 75
1, 17727, Note_on_c, 0, 81, 0
1, 17728, Note_on_c, 0, 79, 75
1, 17743, Note_on_c, 0, 79, 0
1, 17744, Note_on_c, 0, 77, 75
1, 17757, Note_on_c, 1, 62, 0
1, 17759, Note_on_c, 0, 77, 0
1, 17760, Note_on_c, 0, 86, 75
1, 17760, Note_on_c, 1, 63, 75
1, 17770, Note_on_c, 0, 86, 0
1, 17770, Note_on_c, 0, 84, 75
1, 17780, Note_on_c, 0, 84, 0
1, 17780, Note_on_c, 0, 86, 75
1, 17790, Note_on_c, 0, 86, 0
1, 17790, Note_on_c, 0, 84, 75
1, 17800, Note_on_c, 0, 84, 0
1, 17800, Note_on_c, 0, 86, 75
1, 17805, Note_on_c, 1, 63, 0
1, 17808, Note_on_c, 1, 65, 75
1, 17810, Note_on_c, 0, 86, 0
1, 17810, Note_on_c, 0, 84, 75
1, 17820, Note_on_c, 0, 84, 0
1, 17820, Note_on_c, 0, 86, 75
1, 17829, Note_on_c, 0, 86, 0
1, 17829, Note_on_c, 0, 84, 75
1, 17838, Note_on_c, 0, 84, 0
1, 17838, Note_on_c, 0, 82, 75
1, 17847, Note_on_c, 0, 82, 0
1, 17847, Note_on_c, 0, 84, 75
1, 17853, Note_on_c, 1, 65, 0
1, 17856, Note_on_c, 0, 84, 0
1, 17856, Note_on_c, 0, 82, 75
1, 17856, Note_on_c, 1, 58, 75
1, 17901, Note_on_c, 0, 82, 0
1, 17901, Note_on_c, 1, 58, 0
1, 17904, Note_on_c, 0, 79, 76
1, 17904, Note_on_c, 1, 62, 76
1, 17914, Note_on_c, 0, 79, 0
1, 17914, Note_on_c, 0, 77, 76
1, 17924, Note_on_c, 0, 77, 0
1, 17924, Note_on_c, 0, 79, 76
1, 17927, Note_on_c, 1, 62, 0
1, 17928, Note_on_c, 1, 65, 76
1, 17934, Note_on_c, 0, 79, 0
1, 17934, Note_on_c, 0, 77, 76
1, 17944, Note_on_c, 0, 77, 0
1, 17944, Note_on_c, 0, 79, 76
1, 17951, Note_on_c, 1, 65, 0
1, 17952, Note_on_c, 1, 60, 77
1, 17954, Note_on_c, 0, 79, 0
1, 17954, Note_on_c, 0, 77, 76
1, 17964, Note_on_c, 0, 77, 0
1, 17964, Note_on_c, 0, 79, 76
1, 17973, Note_on_c, 0, 79, 0
1, 17973, Note_on_c, 0, 77, 77
1, 17975, Note_on_c, 1, 60, 0
1, 17976, Note_on_c, 1, 63, 77
1, 17982, Note_on_c, 0, 77, 0
1, 17982, Note_on_c, 0, 79, 77
1, 17991, Note_on_c, 0, 79, 0
1, 17991, Note_on_c, 0, 77, 77
1, 17999, Note_on_c, 1, 63, 0
1, 18000, Note_on_c, 0, 77, 0
1, 18000, Note_on_c, 0, 79, 77
1, 18000, Note_on_c, 1, 58, 78
1, 18010, Note_on_c, 0, 79, 0
1, 18010, Note_on_c, 0, 77, 77
1, 18020, Note_on_c, 0, 77, 0
1, 18020, Note_on_c, 0, 79, 77
1, 18023, Note_on_c, 1, 58, 0
1, 18024, Note_on_c, 1, 62, 78
1, 18030, Note_on_c, 0, 79, 0
1, 18030, Note_on_c, 0, 77, 77
1, 18039, Note_on_c, 0, 77, 0
1, 18039, Note_on_c, 0, 79, 78
1, 18047, Note_on_c, 1, 62, 0
1, 18048, Note_on_c, 0, 79, 0
1, 18048, Note_on_c, 0, 77, 78
1, 18048, Note_on_c, 1, 60, 79
1, 18048, Note_on_c, 1, 57, 79
1, 18115, Note_on_c, 0, 77, 0
1, 18120, Note_on_c, 0, 81, 81
1, 18132, Note_on_c, 0, 81, 0
1, 18132, Note_on_c, 0, 82, 80
1, 18137, Note_on_c, 1, 60, 0
1, 18137, Note_on_c, 1, 57, 0
1, 18144, Note_on_c, 0, 82, 0
1, 18144, Note_on_c, 0, 84, 80
1, 18159, Note_on_c, 0, 84, 0
1, 18160, Note_on_c, 0, 82, 79
1, 18175, Note_on_c, 0, 82, 0
1, 18176, Note_on_c, 0, 81, 79
1, 18191, Note_on_c, 0, 81, 0
1, 18192, Note_on_c, 0, 79, 78
1, 18207, Note_on_c, 0, 79, 0
1, 18208, Note_on_c, 0, 77, 78
1, 18223, Note_on_c, 0, 77, 0
1, 18224, Note_on_c, 0, 75, 78
1, 18239, Note_on_c, 0, 75, 0
1, 18240, Note_on_c, 0, 74, 77
1, 18285, Note_on_c, 0, 74, 0
1, 18288, Note_on_c, 0, 79, 75
1, 18288, Note_on_c, 1, 62, 75
1, 18298, Note_on_c, 0, 79, 0
1, 18298, Note_on_c, 0, 77, 75
1, 18308, Note_on_c, 0, 77, 0
1, 18308, Note_on_c, 0, 79, 75
1, 18311, Note_on_c, 1, 62, 0
1, 18312, Note_on_c, 1, 65, 75
1, 18318, Note_on_c, 0, 79, 0
1, 18318, Note_on_c, 0, 77, 75
1, 18328, Note_on_c, 0, 77, 0
1, 18328, Note_on_c, 0, 79, 75
1, 18335, Note_on_c, 1, 65, 0
1, 18336, Note_on_c, 1, 60, 76
1, 18338, Note_on_c, 0, 79, 0
1, 18338, Note_on_c, 0, 77, 75
1, 18348, Note_on_c, 0, 77, 0
1, 18348, Note_on_c, 0, 79, 76
1, 18357, Note_on_c, 0, 79, 0
1, 18357, Note_on_c, 0, 77, 76
1, 18359, Note_on_c, 1, 60, 0
1, 18360, Note_on_c, 1, 63, 76
1, 18366, Note_on_c, 0, 77, 0
1, 18366, Note_on_c, 0, 79, 76
1, 18375, Note_on_c, 0, 79, 0
1, 18375, Note_on_c, 0, 77, 76
1, 18383, Note_on_c, 1, 63, 0
1, 18384, Note_on_c, 0, 77, 0
1, 18384, Note_on_c, 0, 79, 76
1, 18384, Note_on_c, 1, 58, 77
1, 18394, Note_on_c, 0, 79, 0
1, 18394, Note_on_c, 0, 77, 76
1, 18404, Note_on_c, 0, 77, 0
1, 18404, Note_on_c, 0, 79, 77
1, 18407, Note_on_c, 1, 58, 0
1, 18408, Note_on_c, 1, 62, 78
1, 18414, Note_on_c, 0, 79, 0
1, 18414, Note_on_c, 0, 77, 77
1, 18423, Note_on_c, 0, 77, 0
1, 18423, Note_on_c, 0, 79, 77
1, 18431, Note_on_c, 1, 62, 0
1, 18432, Note_on_c, 0, 79, 0
1, 18432, Note_on_c, 0, 77, 77
1, 18432, Note_on_c, 1, 60, 78
1, 18432, Note_on_c, 1, 57, 78
1, 18499, Note_on_c, 0, 77, 0
1, 18504, Note_on_c, 0, 81, 81
1, 18516, Note_on_c, 0, 81, 0
1, 18516, Note_on_c, 0, 82, 81
1, 18521, Note_on_c, 1, 60, 0
1, 18521, Note_on_c, 1, 57, 0
1, 18528, Note_on_c, 0, 82, 0
1, 18528, Note_on_c, 0, 84, 81
1, 18543, Note_on_c, 0, 84, 0
1, 18544, Note_on_c, 0, 82, 80
1, 18559, Note_on_c, 0, 82, 0
1, 18560, Note_on_c, 0, 81, 79
1, 18575, Note_on_c, 0, 81, 0
1, 18576, Note_on_c, 0, 79, 78
1, 18591, Note_on_c, 0, 79, 0
1, 18592, Note_on_c, 0, 77, 78
1, 18607, Note_on_c, 0, 77, 0
1, 18608, Note_on_c, 0, 75, 77
1, 18623, Note_on_c, 0, 75, 0
1, 18624, Note_on_c, 0, 74, 75
1, 18624, Note_on_c, 1, 58, 81
1, 18624, Note_on_c, 1, 46, 81
1, 18669, Note_on_c, 0, 74, 0
1, 18672, Note_on_c, 0, 77, 75
1, 18687, Note_on_c, 0, 77, 0
1, 18688, Note_on_c, 0, 79, 75
1, 18703, Note_on_c, 0, 79, 0
1, 18704, Note_on_c, 0, 77, 75
1, 18713, Note_on_c, 1, 58, 0
1, 18713, Note_on_c, 1, 46, 0
1, 18719, Note_on_c, 0, 77, 0
1, 18720, Note_on_c, 0, 82, 75
1, 18735, Note_on_c, 0, 82, 0
1, 18736, Note_on_c, 0, 81, 75
1, 18751, Note_on_c, 0, 81, 0
1, 18752, Note_on_c, 0, 79, 75
1, 18767, Note_on_c, 0, 79, 0
1, 18768, Note_on_c, 0, 77, 75
1, 18768, Note_on_c, 1, 58, 81
1, 18768, Note_on_c, 1, 46, 81
1, 18783, Note_on_c, 0, 77, 0
1, 18784, Note_on_c, 0, 75, 75
1, 18799, Note_on_c, 0, 75, 0
1, 18800, Note_on_c, 0, 74, 75
1, 18813, Note_on_c, 1, 58, 0
1, 18813, Note_on_c, 1, 46, 0
1, 18815, Note_on_c, 0, 74, 0
1, 18816, Note_on_c, 0, 72, 75
1, 18816, Note_on_c, 1, 58, 81
1, 18816, Note_on_c, 1, 51, 81
1, 18831, Note_on_c, 0, 72, 0
1, 18832, Note_on_c, 0, 78, 75
1, 18848, Note_on_c, 0, 78, 0
1, 18848, Note_on_c, 0, 79, 75
1, 18863, Note_on_c, 0, 79, 0
1, 18863, Note_on_c, 1, 58, 0
1, 18863, Note_on_c, 1, 51, 0
1, 18864, Note_on_c, 0, 77, 75
1, 18864, Note_on_c, 1, 60, 81
1, 18864, Note_on_c, 1, 51, 81
1, 18876, Note_on_c, 0, 77, 0
1, 18876, Note_on_c, 0, 75, 75
1, 18888, Note_on_c, 0, 75, 0
1, 18888, Note_on_c, 0, 74, 75
1, 18900, Note_on_c, 0, 74, 0
1, 18900, Note_on_c, 0, 72, 75
1, 18911, Note_on_c, 1, 60, 0
1, 18911, Note_on_c, 1, 51, 0
1, 18912, Note_on_c, 0, 72, 0
1, 18912, Note_on_c, 0, 70, 75
1, 18912, Note_on_c, 1, 62, 81
1, 18912, Note_on_c, 1, 53, 81
1, 18957, Note_on_c, 0, 70, 0
1, 18959, Note_on_c, 1, 62, 0
1, 18959, Note_on_c, 1, 53, 0
1, 18960, Note_on_c, 0, 69, 75
1, 18960, Note_on_c, 1, 60, 81
1, 18960, Note_on_c, 1, 53, 81
1, 18970, Note_on_c, 0, 69, 0
1, 18970, Note_on_c, 0, 70, 75
1, 18980, Note_on_c, 0, 70, 0
1, 18980, Note_on_c, 0, 69, 75
1, 18990, Note_on_c, 0, 69, 0
1, 18990, Note_on_c, 0, 67, 75
1, 18999, Note_on_c, 0, 67, 0
1, 18999, Note_on_c, 0, 69, 75
1, 19007, Note_on_c, 1, 60, 0
1, 19007, Note_on_c, 1, 53, 0
1, 19008, Note_on_c, 0, 69, 0
1, 19008, Note_on_c, 0, 70, 75
1, 19008, Note_on_c, 1, 58, 81
1, 19053, Note_on_c, 0, 70, 0
1, 19056, Note_on_c, 0, 77, 70
1, 19056, Note_on_c, 0, 74, 70
1, 19097, Note_on_c, 1, 58, 0
1, 19101, Note_on_c, 0, 77, 0
1, 19101, Note_on_c, 0, 74, 0
1, 19104, Note_on_c, 0, 77, 70
1, 19104, Note_on_c, 0, 74, 70
1, 19149, Note_on_c, 0, 77, 0
1, 19149, Note_on_c, 0, 74, 0
1, 19152, Note_on_c, 0, 77, 70
1, 19152, Note_on_c, 0, 74, 70
1, 19197, Note_on_c, 0, 77, 0
1, 19197, Note_on_c, 0, 74, 0
1, 19200, Note_on_c, 0, 77, 86
1, 19200, Note_on_c, 0, 74, 64
1, 19200, Note_on_c, 1, 58, 70
1, 19200, Note_on_c, 1, 46, 70
1, 19272, Note_on_c, 0, 77, 0
1, 19272, Note_on_c, 0, 79, 70
1, 19284, Note_on_c, 0, 79, 0
1, 19284, Note_on_c, 0, 81, 70
1, 19289, Note_on_c, 0, 74, 0
1, 19289, Note_on_c, 1, 58, 0
1, 19289, Note_on_c, 1, 46, 0
1, 19296, Note_on_c, 0, 81, 0
1, 19296, Note_on_c, 0, 82, 70
1, 19385, Note_on_c, 0, 82, 0
1, 19392, Note_on_c, 0, 75, 70
1, 19440, Note_on_c, 1, 70, 66
1, 19440, Note_on_c, 1, 67, 66
1, 19487, Note_on_c, 1, 70, 0
1, 19487, Note_on_c, 1, 67, 0
1, 19488, Note_on_c, 1, 70, 66
1, 19488, Note_on_c, 1, 67, 66
1, 19535, Note_on_c, 1, 70, 0
1, 19535, Note_on_c, 1, 67, 0
1, 19536, Note_on_c, 1, 70, 66
1, 19536, Note_on_c, 1, 67, 66
1, 19547, Note_on_c, 0, 75, 0
1, 19560, Note_on_c, 0, 79, 70
1, 19572, Note_on_c, 0, 79, 0
1, 19572, Note_on_c, 0, 75, 70
1, 19583, Note_on_c, 1, 70, 0
1, 19583, Note_on_c, 1, 67, 0
1, 19584, Note_on_c, 0, 75, 0
1, 19584, Note_on_c, 0, 73, 70
1, 19632, Note_on_c, 0, 73, 0
1, 19632, Note_on_c, 0, 74, 70
1, 19632, Note_on_c, 1, 69, 66
1, 19632, Note_on_c, 1, 65, 66
1, 19677, Note_on_c, 0, 74, 0
1, 19679, Note_on_c, 1, 69, 0
1, 19679, Note_on_c, 1, 65, 0
1, 19680, Note_on_c, 1, 69, 66
1, 19680, Note_on_c, 1, 65, 66
1, 19727, Note_on_c, 1, 69, 0
1, 19727, Note_on_c, 1, 65, 0
1, 19728, Note_on_c, 1, 69, 66
1, 19728, Note_on_c, 1, 65, 66
1, 19752, Note_on_c, 0, 77, 70
1, 19764, Note_on_c, 0, 77, 0
1, 19764, Note_on_c, 0, 74, 70
1, 19775, Note_on_c, 1, 69, 0
1, 19775, Note_on_c, 1, 65, 0
1, 19776, Note_on_c, 0, 74, 0
1, 19776, Note_on_c, 0, 71, 70
1, 19824, Note_on_c, 0, 71, 0
1, 19824, Note_on_c, 0, 72, 70
1, 19824, Note_on_c, 1, 67, 66
1, 19824, Note_on_c, 1, 63, 66
1, 19869, Note_on_c, 0, 72, 0
1, 19871, Note_on_c, 1, 67, 0
1, 19871, Note_on_c, 1, 63, 0
1, 19872, Note_on_c, 1, 67, 66
1, 19872, Note_on_c, 1, 63, 66
1, 19919, Note_on_c, 1, 67, 0
1, 19919, Note_on_c, 1, 63, 0
1, 19920, Note_on_c, 1, 67, 66
1, 19920, Note_on_c, 1, 63, 66
1, 19944, Note_on_c, 0, 75, 70
1, 19956, Note_on_c, 0, 75, 0
1, 19956, Note_on_c, 0, 72, 70
1, 19967, Note_on_c, 1, 67, 0
1, 19967, Note_on_c, 1, 63, 0
1, 19968, Note_on_c, 0, 72, 0
1, 19968, Note_on_c, 0, 69, 70
1, 20016, Note_on_c, 0, 69, 0
1, 20016, Note_on_c, 0, 70, 72
1, 20016, Note_on_c, 1, 65, 66
1, 20016, Note_on_c, 1, 62, 66
1, 20061, Note_on_c, 0, 70, 0
1, 20061, Note_on_c, 1, 65, 0
1, 20061, Note_on_c, 1, 62, 0
1, 20064, Note_on_c, 0, 70, 74
1, 20076, Note_on_c, 0, 70, 0
1, 20076, Note_on_c, 0, 72, 74
1, 20088, Note_on_c, 0, 72, 0
1, 20088, Note_on_c, 0, 74, 75
1, 20100, Note_on_c, 0, 74, 0
1, 20100, Note_on_c, 0, 75, 75
1, 20112, Note_on_c, 0, 75, 0
1, 20112, Note_on_c, 0, 77, 76
1, 20112, Note_on_c, 1, 58, 75
1, 20112, Note_on_c, 0, 50, 75
1, 20124, Note_on_c, 0, 77, 0
1, 20124, Note_on_c, 0, 79, 76
1, 20136, Note_on_c, 0, 79, 0
1, 20136, Note_on_c, 0, 81, 77
1, 20148, Note_on_c, 0, 81, 0
1, 20148, Note_on_c, 0, 82, 77
1, 20157, Note_on_c, 1, 58, 0
1, 20157, Note_on_c, 0, 50, 0
1, 20160, Note_on_c, 0, 82, 0
1, 20160, Note_on_c, 0, 79, 78
1, 20160, Note_on_c, 1, 58, 81
1, 20160, Note_on_c, 0, 51, 81
1, 20227, Note_on_c, 0, 79, 0
1, 20232, Note_on_c, 0, 77, 81
1, 20244, Note_on_c, 0, 77, 0
1, 20244, Note_on_c, 0, 75, 81
1, 20249, Note_on_c, 1, 58, 0
1, 20249, Note_on_c, 0, 51, 0
1, 20256, Note_on_c, 0, 75, 0
1, 20256, Note_on_c, 0, 74, 81
1, 20256, Note_on_c, 1, 58, 81
1, 20256, Note_on_c, 0, 53, 81
1, 20301, Note_on_c, 0, 74, 0
1, 20301, Note_on_c, 1, 58, 0
1, 20304, Note_on_c, 0, 72, 78
1, 20304, Note_on_c, 1, 57, 81
1, 20314, Note_on_c, 0, 72, 0
1, 20314, Note_on_c, 0, 74, 77
1, 20324, Note_on_c, 0, 74, 0
1, 20324, Note_on_c, 0, 72, 77
1, 20334, Note_on_c, 0, 72, 0
1, 20334, Note_on_c, 0, 74, 76
1, 20343, Note_on_c, 0, 74, 0
1, 20343, Note_on_c, 0, 72, 76
1, 20345, Note_on_c, 0, 53, 0
1, 20349, Note_on_c, 1, 57, 0
1, 20352, Note_on_c, 0, 72, 0
1, 20352, Note_on_c, 0, 70, 75
1, 20352, Note_on_c, 1, 58, 75
1, 20367, Note_on_c, 1, 58, 0
1, 20368, Note_on_c, 1, 62, 75
1, 20375, Note_on_c, 0, 70, 0
1, 20383, Note_on_c, 1, 62, 0
1, 20384, Note_on_c, 1, 65, 75
1, 20399, Note_on_c, 1, 65, 0
1, 20400, Note_on_c, 0, 70, 75
1, 20415, Note_on_c, 0, 70, 0
1, 20416, Note_on_c, 0, 74, 75
1, 20431, Note_on_c, 0, 74, 0
1, 20432, Note_on_c, 0, 77, 75
1, 20447, Note_on_c, 0, 77, 0
1, 20448, Note_on_c, 0, 75, 75
1, 20463, Note_on_c, 0, 75, 0
1, 20464, Note_on_c, 0, 72, 75
1, 20479, Note_on_c, 0, 72, 0
1, 20480, Note_on_c, 0, 69, 75
1, 20495, Note_on_c, 0, 69, 0
1, 20496, Note_on_c, 0, 72, 75
1, 20496, Note_on_c, 1, 60, 75
1, 20496, Note_on_c, 0, 53, 81
1, 20511, Note_on_c, 0, 72, 0
1, 20512, Note_on_c, 0, 69, 75
1, 20527, Note_on_c, 0, 69, 0
1, 20528, Note_on_c, 0, 65, 75
1, 20541, Note_on_c, 1, 60, 0
1, 20541, Note_on_c, 0, 53, 0
1, 20543, Note_on_c, 0, 65, 0
1, 20544, Note_on_c, 0, 62, 75
1, 20544, Note_on_c, 0, 58, 81
1, 20559, Note_on_c, 0, 62, 0
1, 20560, Note_on_c, 0, 65, 75
1, 20575, Note_on_c, 0, 65, 0
1, 20576, Note_on_c, 0, 70, 75
1, 20589, Note_on_c, 0, 58, 0
1, 20591, Note_on_c, 0, 70, 0
1, 20592, Note_on_c, 0, 67, 75
1, 20592, Note_on_c, 1, 63, 75
1, 20592, Note_on_c, 0, 51, 81
1, 20607, Note_on_c, 0, 67, 0
1, 20608, Note_on_c, 0, 75, 75
1, 20623, Note_on_c, 0, 75, 0
1, 20624, Note_on_c, 0, 72, 75
1, 20637, Note_on_c, 1, 63, 0
1, 20637, Note_on_c, 0, 51, 0
1, 20639, Note_on_c, 0, 72, 0
1, 20640, Note_on_c, 0, 70, 75
1, 20640, Note_on_c, 1, 62, 75
1, 20640, Note_on_c, 0, 53, 81
1, 20685, Note_on_c, 0, 70, 0
1, 20685, Note_on_c, 1, 62, 0
1, 20688, Note_on_c, 0, 69, 75
1, 20688, Note_on_c, 1, 60, 75
1, 20698, Note_on_c, 0, 69, 0
1, 20698, Note_on_c, 0, 70, 75
1, 20708, Note_on_c, 0, 70, 0
1, 20708, Note_on_c, 0, 69, 75
1, 20718, Note_on_c, 0, 69, 0
1, 20718, Note_on_c, 0, 67, 75
1, 20727, Note_on_c, 0, 67, 0
1, 20727, Note_on_c, 0, 69, 75
1, 20729, Note_on_c, 0, 53, 0
1, 20733, Note_on_c, 1, 60, 0
1, 20736, Note_on_c, 0, 69, 0
1, 20736, Note_on_c, 0, 70, 75
1, 20736, Note_on_c, 1, 58, 75
1, 20751, Note_on_c, 1, 58, 0
1, 20752, Note_on_c, 1, 62, 75
1, 20759, Note_on_c, 0, 70, 0
1, 20767, Note_on_c, 1, 62, 0
1, 20768, Note_on_c, 1, 65, 75
1, 20783, Note_on_c, 1, 65, 0
1, 20784, Note_on_c, 0, 70, 75
1, 20799, Note_on_c, 0, 70, 0
1, 20800, Note_on_c, 0, 74, 75
1, 20815, Note_on_c, 0, 74, 0
1, 20816, Note_on_c, 0, 77, 75
1, 20831, Note_on_c, 0, 77, 0
1, 20832, Note_on_c, 0, 75, 75
1, 20847, Note_on_c, 0, 75, 0
1, 20848, Note_on_c, 0, 72, 75
1, 20863, Note_on_c, 0, 72, 0
1, 20864, Note_on_c, 0, 69, 75
1, 20879, Note_on_c, 0, 69, 0
1, 20880, Note_on_c, 0, 72, 75
1, 20880, Note_on_c, 1, 60, 75
1, 20880, Note_on_c, 0, 53, 81
1, 20895, Note_on_c, 0, 72, 0
1, 20896, Note_on_c, 0, 69, 75
1, 20911, Note_on_c, 0, 69, 0
1, 20912, Note_on_c, 0, 65, 75
1, 20925, Note_on_c, 1, 60, 0
1, 20925, Note_on_c, 0, 53, 0
1, 20927, Note_on_c, 0, 65, 0
1, 20928, Note_on_c, 0, 62, 75
1, 20928, Note_on_c, 0, 58, 81
1, 20943, Note_on_c, 0, 62, 0
1, 20944, Note_on_c, 0, 65, 75
1, 20959, Note_on_c, 0, 65, 0
1, 20960, Note_on_c, 0, 70, 75
1, 20973, Note_on_c, 0, 58, 0
1, 20975, Note_on_c, 0, 70, 0
1, 20976, Note_on_c, 0, 67, 75
1, 20976, Note_on_c, 1, 63, 75
1, 20976, Note_on_c, 0, 51, 81
1, 20991, Note_on_c, 0, 67, 0
1, 20992, Note_on_c, 0, 75, 75
1, 21007, Note_on_c, 0, 75, 0
1, 21008, Note_on_c, 0, 72, 75
1, 21021, Note_on_c, 1, 63, 0
1, 21021, Note_on_c, 0, 51, 0
1, 21023, Note_on_c, 0, 72, 0
1, 21024, Note_on_c, 0, 70, 75
1, 21024, Note_on_c, 1, 62, 75
1, 21024, Note_on_c, 0, 53, 81
1, 21069, Note_on_c, 0, 70, 0
1, 21069, Note_on_c, 1, 62, 0
1, 21072, Note_on_c, 0, 69, 75
1, 21072, Note_on_c, 1, 60, 75
1, 21082, Note_on_c, 0, 69, 0
1, 21082, Note_on_c, 0, 70, 75
1, 21092, Note_on_c, 0, 70, 0
1, 21092, Note_on_c, 0, 69, 75
1, 21102, Note_on_c, 0, 69, 0
1, 21102, Note_on_c, 0, 67, 75
1, 21111, Note_on_c, 0, 67, 0
1, 21111, Note_on_c, 0, 69, 75
1, 21113, Note_on_c, 0, 53, 0
1, 21117, Note_on_c, 1, 60, 0
1, 21120, Note_on_c, 0, 69, 0
1, 21120, Note_on_c, 0, 70, 75
1, 21120, Note_on_c, 1, 58, 75
1, 21209, Note_on_c, 0, 70, 0
1, 21209, Note_on_c, 1, 58, 0
1, 21216, Note_on_c, 0, 65, 70
1, 21216, Note_on_c, 1, 60, 66
1, 21216, Note_on_c, 1, 53, 66
1, 21234, Note_on_c, 0, 65, 0
1, 21234, Note_on_c, 0, 75, 70
1, 21283, Note_on_c, 0, 75, 0
1, 21288, Note_on_c, 0, 72, 70
1, 21300, Note_on_c, 0, 72, 0
1, 21300, Note_on_c, 0, 69, 70
1, 21305, Note_on_c, 1, 60, 0
1, 21305, Note_on_c, 1, 53, 0
1, 21312, Note_on_c, 0, 69, 0
1, 21312, Note_on_c, 0, 70, 70
1, 21312, Note_on_c, 1, 62, 66
1, 21312, Note_on_c, 1, 58, 66
1, 21401, Note_on_c, 0, 70, 0
1, 21401, Note_on_c, 1, 62, 0
1, 21401, Note_on_c, 1, 58, 0
1, 21504, Note_on_c, 0, 58, 75
1, 21552, Note_on_c, 1, 53, 70
1, 21552, Note_on_c, 1, 50, 70
1, 21552, Note_on_c, 1, 46, 70
1, 21593, Note_on_c, 0, 58, 0
1, 21599, Note_on_c, 1, 53, 0
1, 21599, Note_on_c, 1, 50, 0
1, 21599, Note_on_c, 1, 46, 0
1, 21600, Note_on_c, 0, 58, 75
1, 21600, Note_on_c, 1, 53, 70
1, 21600, Note_on_c, 1, 50, 70
1, 21600, Note_on_c, 1, 46, 70
1, 21634, Note_on_c, 0, 58, 0
1, 21636, Note_on_c, 0, 60, 75
1, 21647, Note_on_c, 1, 53, 0
1, 21647, Note_on_c, 1, 50, 0
1, 21647, Note_on_c, 1, 46, 0
1, 21648, Note_on_c, 0, 60, 0
1, 21648, Note_on_c, 0, 62, 75
1, 21648, Note_on_c, 1, 53, 70
1, 21648, Note_on_c, 1, 50, 70
1, 21648, Note_on_c, 1, 46, 70
1, 21682, Note_on_c, 0, 62, 0
1, 21684, Note_on_c, 0, 63, 75
1, 21695, Note_on_c, 1, 53, 0
1, 21695, Note_on_c, 1, 50, 0
1, 21695, Note_on_c, 1, 46, 0
1, 21696, Note_on_c, 0, 63, 0
1, 21696, Note_on_c, 0, 65, 75
1, 21744, Note_on_c, 1, 53, 70
1, 21744, Note_on_c, 1, 50, 70
1, 21744, Note_on_c, 1, 46, 70
1, 21791, Note_on_c, 1, 53, 0
1, 21791, Note_on_c, 1, 50, 0
1, 21791, Note_on_c, 1, 46, 0
1, 21792, Note_on_c, 1, 53, 70
1, 21792, Note_on_c, 1, 50, 70
1, 21792, Note_on_c, 1, 46, 70
1, 21815, Note_on_c, 0, 65, 0
1, 21816, Note_on_c, 0, 67, 77
1, 21828, Note_on_c, 0, 67, 0
1, 21828, Note_on_c, 0, 69, 77
1, 21839, Note_on_c, 1, 53, 0
1, 21839, Note_on_c, 1, 50, 0
1, 21839, Note_on_c, 1, 46, 0
1, 21840, Note_on_c, 0, 69, 0
1, 21840, Note_on_c, 0, 70, 78
1, 21840, Note_on_c, 1, 53, 70
1, 21840, Note_on_c, 1, 50, 70
1, 21840, Note_on_c, 1, 46, 70
1, 21852, Note_on_c, 0, 70, 0
1, 21852, Note_on_c, 0, 72, 78
1, 21864, Note_on_c, 0, 72, 0
1, 21864, Note_on_c, 0, 74, 78
1, 21876, Note_on_c, 0, 74, 0
1, 21876, Note_on_c, 0, 75, 78
1, 21887, Note_on_c, 1, 53, 0
1, 21887, Note_on_c, 1, 50, 0
1, 21887, Note_on_c, 1, 46, 0
1, 21888, Note_on_c, 0, 75, 0
1, 21888, Note_on_c, 0, 77, 95
1, 21936, Note_on_c, 1, 53, 70
1, 21936, Note_on_c, 1, 50, 70
1, 21936, Note_on_c, 1, 46, 70
1, 21983, Note_on_c, 1, 53, 0
1, 21983, Note_on_c, 1, 50, 0
1, 21983, Note_on_c, 1, 46, 0
1, 21984, Note_on_c, 0, 77, 0
1, 21984, Note_on_c, 0, 75, 75
1, 21984, Note_on_c, 1, 53, 70
1, 21984, Note_on_c, 1, 50, 70
1, 21984, Note_on_c, 1, 46, 70
1, 22007, Note_on_c, 0, 75, 0
1, 22008, Note_on_c, 0, 74, 75
1, 22031, Note_on_c, 0, 74, 0
1, 22031, Note_on_c, 1, 53, 0
1, 22031, Note_on_c, 1, 50, 0
1, 22031, Note_on_c, 1, 46, 0
1, 22032, Note_on_c, 0, 72, 75
1, 22032, Note_on_c, 1, 53, 70
1, 22032, Note_on_c, 1, 50, 70
1, 22032, Note_on_c, 1, 46, 70
1, 22055, Note_on_c, 0, 72, 0
1, 22056, Note_on_c, 0, 70, 75
1, 22079, Note_on_c, 0, 70, 0
1, 22079, Note_on_c, 1, 53, 0
1, 22079, Note_on_c, 1, 50, 0
1, 22079, Note_on_c, 1, 46, 0
1, 22080, Note_on_c, 0, 75, 75
1, 22080, Note_on_c, 1, 51, 70
1, 22080, Note_on_c, 1, 46, 70
1, 22095, Note_on_c, 0, 75, 0
1, 22096, Note_on_c, 0, 77, 81
1, 22111, Note_on_c, 0, 77, 0
1, 22112, Note_on_c, 0, 79, 80
1, 22127, Note_on_c, 0, 79, 0
1, 22127, Note_on_c, 1, 51, 0
1, 22127, Note_on_c, 1, 46, 0
1, 22128, Note_on_c, 0, 77, 79
1, 22128, Note_on_c, 1, 50, 70
1, 22128, Note_on_c, 1, 46, 70
1, 22173, Note_on_c, 0, 77, 0
1, 22175, Note_on_c, 1, 50, 0
1, 22175, Note_on_c, 1, 46, 0
1, 22176, Note_on_c, 0, 82, 75
1, 22191, Note_on_c, 0, 82, 0
1, 22192, Note_on_c, 0, 81, 75
1, 22207, Note_on_c, 0, 81, 0
1, 22208, Note_on_c, 0, 79, 75
1, 22223, Note_on_c, 0, 79, 0
1, 22224, Note_on_c, 0, 77, 75
1, 22224, Note_on_c, 1, 62, 75
1, 22234, Note_on_c, 0, 77, 0
1, 22248, Note_on_c, 0, 77, 75
1, 22269, Note_on_c, 1, 62, 0
1, 22271, Note_on_c, 0, 77, 0
1, 22272, Note_on_c, 0, 75, 75
1, 22272, Note_on_c, 1, 60, 75
1, 22272, Note_on_c, 1, 53, 75
1, 22282, Note_on_c, 0, 75, 0
1, 22282, Note_on_c, 0, 77, 75
1, 22292, Note_on_c, 0, 77, 0
1, 22292, Note_on_c, 0, 75, 75
1, 22302, Note_on_c, 0, 75, 0
1, 22302, Note_on_c, 0, 74, 75
1, 22311, Note_on_c, 0, 74, 0
1, 22311, Note_on_c, 0, 75, 75
1, 22317, Note_on_c, 1, 60, 0
1, 22317, Note_on_c, 1, 53, 0
1, 22320, Note_on_c, 0, 75, 0
1, 22320, Note_on_c, 0, 74, 75
1, 22320, Note_on_c, 1, 58, 75
1, 22365, Note_on_c, 0, 74, 0
1, 22365, Note_on_c, 1, 58, 0
1, 22368, Note_on_c, 0, 82, 75
1, 22383, Note_on_c, 0, 82, 0
1, 22384, Note_on_c, 0, 81, 75
1, 22399, Note_on_c, 0, 81, 0
1, 22400, Note_on_c, 0, 79, 75
1, 22415, Note_on_c, 0, 79, 0
1, 22416, Note_on_c, 0, 77, 75
1, 22416, Note_on_c, 1, 62, 75
1, 22426, Note_on_c, 0, 77, 0
1, 22440, Note_on_c, 0, 77, 75
1, 22461, Note_on_c, 1, 62, 0
1, 22463, Note_on_c, 0, 77, 0
1, 22464, Note_on_c, 0, 75, 75
1, 22464, Note_on_c, 1, 60, 75
1, 22464, Note_on_c, 1, 53, 75
1, 22474, Note_on_c, 0, 75, 0
1, 22474, Note_on_c, 0, 77, 75
1, 22484, Note_on_c, 0, 77, 0
1, 22484, Note_on_c, 0, 75, 75
1, 22494, Note_on_c, 0, 75, 0
1, 22494, Note_on_c, 0, 74, 75
1, 22503, Note_on_c, 0, 74, 0
1, 22503, Note_on_c, 0, 75, 75
1, 22509, Note_on_c, 1, 60, 0
1, 22509, Note_on_c, 1, 53, 0
1, 22512, Note_on_c, 0, 75, 0
1, 22512, Note_on_c, 0, 74, 75
1, 22512, Note_on_c, 1, 58, 75
1, 22557, Note_on_c, 0, 74, 0
1, 22557, Note_on_c, 1, 58, 0
1, 22560, Note_on_c, 0, 77, 75
1, 22575, Note_on_c, 0, 77, 0
1, 22576, Note_on_c, 0, 75, 75
1, 22591, Note_on_c, 0, 75, 0
1, 22592, Note_on_c, 0, 74, 75
1, 22607, Note_on_c, 0, 74, 0
1, 22608, Note_on_c, 0, 72, 75
1, 22608, Note_on_c, 1, 50, 75
1, 22623, Note_on_c, 0, 72, 0
1, 22624, Note_on_c, 0, 70, 75
1, 22639, Note_on_c, 0, 70, 0
1, 22640, Note_on_c, 0, 68, 75
1, 22653, Note_on_c, 1, 50, 0
1, 22655, Note_on_c, 0, 68, 0
1, 22656, Note_on_c, 0, 67, 75
1, 22656, Note_on_c, 1, 51, 75
1, 22666, Note_on_c, 0, 67, 0
1, 22680, Note_on_c, 0, 71, 75
1, 22701, Note_on_c, 1, 51, 0
1, 22703, Note_on_c, 0, 71, 0
1, 22704, Note_on_c, 0, 72, 75
1, 22704, Note_on_c, 1, 39, 75
1, 22727, Note_on_c, 0, 72, 0
1, 22728, Note_on_c, 0, 71, 75
1, 22749, Note_on_c, 1, 39, 0
1, 22751, Note_on_c, 0, 71, 0
1, 22752, Note_on_c, 0, 72, 75
1, 22752, Note_on_c, 0, 51, 81
1, 22762, Note_on_c, 0, 72, 0
1, 22762, Note_on_c, 0, 74, 75
1, 22772, Note_on_c, 0, 74, 0
1, 22772, Note_on_c, 0, 72, 75
1, 22776, Note_on_c, 1, 55, 70
1, 22782, Note_on_c, 0, 72, 0
1, 22782, Note_on_c, 0, 74, 75
1, 22792, Note_on_c, 0, 74, 0
1, 22792, Note_on_c, 0, 72, 75
1, 22799, Note_on_c, 1, 55, 0
1, 22800, Note_on_c, 1, 60, 70
1, 22802, Note_on_c, 0, 72, 0
1, 22802, Note_on_c, 0, 74, 75
1, 22812, Note_on_c, 0, 74, 0
1, 22812, Note_on_c, 0, 72, 75
1, 22821, Note_on_c, 0, 72, 0
1, 22821, Note_on_c, 0, 74, 75
1, 22823, Note_on_c, 1, 60, 0
1, 22824, Note_on_c, 1, 59, 70
1, 22830, Note_on_c, 0, 74, 0
1, 22830, Note_on_c, 0, 72, 75
1, 22841, Note_on_c, 0, 51, 0
1, 22847, Note_on_c, 1, 59, 0
1, 22848, Note_on_c, 1, 60, 70
1, 22848, Note_on_c, 0, 51, 81
1, 22872, Note_on_c, 0, 72, 0
1, 22873, Note_on_c, 0, 74, 75
1, 22896, Note_on_c, 0, 74, 0
1, 22897, Note_on_c, 0, 75, 75
1, 22920, Note_on_c, 0, 75, 0
1, 22921, Note_on_c, 0, 77, 75
1, 22937, Note_on_c, 1, 60, 0
1, 22937, Note_on_c, 0, 51, 0
1, 22944, Note_on_c, 0, 77, 0
1, 22945, Note_on_c, 0, 79, 75
1, 22960, Note_on_c, 0, 79, 0
1, 22961, Note_on_c, 0, 77, 75
1, 22976, Note_on_c, 0, 77, 0
1, 22977, Note_on_c, 0, 75, 75
1, 22992, Note_on_c, 0, 75, 0
1, 22992, Note_on_c, 0, 52, 81
1, 22993, Note_on_c, 0, 74, 75
1, 23008, Note_on_c, 0, 74, 0
1, 23009, Note_on_c, 0, 72, 75
1, 23024, Note_on_c, 0, 72, 0
1, 23025, Note_on_c, 0, 70, 75
1, 23037, Note_on_c, 0, 52, 0
1, 23040, Note_on_c, 0, 70, 0
1, 23040, Note_on_c, 1, 53, 70
1, 23041, Note_on_c, 0, 69, 75
1, 23051, Note_on_c, 0, 69, 0
1, 23065, Note_on_c, 0, 73, 70
1, 23085, Note_on_c, 1, 53, 0
1, 23088, Note_on_c, 0, 73, 0
1, 23088, Note_on_c, 1, 41, 70
1, 23089, Note_on_c, 0, 74, 70
1, 23112, Note_on_c, 0, 74, 0
1, 23113, Note_on_c, 0, 73, 70
1, 23133, Note_on_c, 1, 41, 0
1, 23136, Note_on_c, 0, 73, 0
1, 23136, Note_on_c, 0, 53, 70
1, 23137, Note_on_c, 0, 74, 71
1, 23147, Note_on_c, 0, 74, 0
1, 23147, Note_on_c, 0, 75, 71
1, 23157, Note_on_c, 0, 75, 0
1, 23157, Note_on_c, 0, 74, 71
1, 23160, Note_on_c, 1, 57, 71
1, 23167, Note_on_c, 0, 74, 0
1, 23167, Note_on_c, 0, 75, 71
1, 23177, Note_on_c, 0, 75, 0
1, 23177, Note_on_c, 0, 74, 71
1, 23183, Note_on_c, 1, 57, 0
1, 23184, Note_on_c, 1, 62, 71
1, 23187, Note_on_c, 0, 74, 0
1, 23187, Note_on_c, 0, 75, 71
1, 23197, Note_on_c, 0, 75, 0
1, 23197, Note_on_c, 0, 74, 71
1, 23206, Note_on_c, 0, 74, 0
1, 23206, Note_on_c, 0, 75, 71
1, 23207, Note_on_c, 1, 62, 0
1, 23208, Note_on_c, 1, 61, 71
1, 23215, Note_on_c, 0, 75, 0
1, 23215, Note_on_c, 0, 74, 71
1, 23225, Note_on_c, 0, 53, 0
1, 23231, Note_on_c, 1, 61, 0
1, 23232, Note_on_c, 1, 62, 72
1, 23232, Note_on_c, 0, 53, 71
1, 23257, Note_on_c, 0, 74, 0
1, 23258, Note_on_c, 0, 76, 72
1, 23281, Note_on_c, 0, 76, 0
1, 23282, Note_on_c, 0, 77, 72
1, 23305, Note_on_c, 0, 77, 0
1, 23306, Note_on_c, 0, 79, 73
1, 23321, Note_on_c, 1, 62, 0
1, 23321, Note_on_c, 0, 53, 0
1, 23329, Note_on_c, 0, 79, 0
1, 23330, Note_on_c, 0, 81, 73
1, 23345, Note_on_c, 0, 81, 0
1, 23346, Note_on_c, 0, 79, 73
1, 23361, Note_on_c, 0, 79, 0
1, 23362, Note_on_c, 0, 77, 73
1, 23376, Note_on_c, 0, 54, 73
1, 23377, Note_on_c, 0, 77, 0
1, 23378, Note_on_c, 0, 75, 73
1, 23393, Note_on_c, 0, 75, 0
1, 23394, Note_on_c, 0, 74, 74
1, 23409, Note_on_c, 0, 74, 0
1, 23410, Note_on_c, 0, 72, 74
1, 23421, Note_on_c, 0, 54, 0
1, 23424, Note_on_c, 1, 55, 74
1, 23425, Note_on_c, 0, 72, 0
1, 23426, Note_on_c, 0, 70, 74
1, 23436, Note_on_c, 0, 70, 0
1, 23450, Note_on_c, 0, 74, 74
1, 23469, Note_on_c, 1, 55, 0
1, 23472, Note_on_c, 1, 43, 75
1, 23473, Note_on_c, 0, 74, 0
1, 23474, Note_on_c, 0, 75, 75
1, 23497, Note_on_c, 0, 75, 0
1, 23498, Note_on_c, 0, 74, 75
1, 23517, Note_on_c, 1, 43, 0
1, 23520, Note_on_c, 0, 55, 75
1, 23521, Note_on_c, 0, 74, 0
1, 23522, Note_on_c, 0, 77, 75
1, 23544, Note_on_c, 1, 58, 76
1, 23562, Note_on_c, 0, 77, 0
1, 23562, Note_on_c, 0, 75, 76
1, 23567, Note_on_c, 1, 58, 0
1, 23568, Note_on_c, 1, 63, 76
1, 23572, Note_on_c, 0, 75, 0
1, 23572, Note_on_c, 0, 77, 76
1, 23582, Note_on_c, 0, 77, 0
1, 23582, Note_on_c, 0, 75, 76
1, 23591, Note_on_c, 0, 75, 0
1, 23591, Note_on_c, 0, 77, 76
1, 23591, Note_on_c, 1, 63, 0
1, 23592, Note_on_c, 1, 62, 77
1, 23600, Note_on_c, 0, 77, 0
1, 23600, Note_on_c, 0, 75, 76
1, 23609, Note_on_c, 0, 75, 0
1, 23609, Note_on_c, 0, 77, 76
1, 23609, Note_on_c, 0, 55, 0
1, 23615, Note_on_c, 1, 62, 0
1, 23616, Note_on_c, 1, 63, 77
1, 23616, Note_on_c, 0, 55, 76
1, 23618, Note_on_c, 0, 77, 0
1, 23618, Note_on_c, 0, 75, 76
1, 23641, Note_on_c, 0, 75, 0
1, 23642, Note_on_c, 0, 77, 76
1, 23665, Note_on_c, 0, 77, 0
1, 23666, Note_on_c, 0, 79, 77
1, 23689, Note_on_c, 0, 79, 0
1, 23690, Note_on_c, 0, 81, 77
1, 23705, Note_on_c, 1, 63, 0
1, 23705, Note_on_c, 0, 55, 0
1, 23713, Note_on_c, 0, 81, 0
1, 23714, Note_on_c, 0, 82, 77
1, 23729, Note_on_c, 0, 82, 0
1, 23730, Note_on_c, 0, 81, 78
1, 23745, Note_on_c, 0, 81, 0
1, 23746, Note_on_c, 0, 79, 78
1, 23760, Note_on_c, 0, 55, 78
1, 23761, Note_on_c, 0, 79, 0
1, 23762, Note_on_c, 0, 77, 78
1, 23777, Note_on_c, 0, 77, 0
1, 23778, Note_on_c, 0, 75, 78
1, 23793, Note_on_c, 0, 75, 0
1, 23794, Note_on_c, 0, 74, 78
1, 23805, Note_on_c, 0, 55, 0
1, 23808, Note_on_c, 1, 57, 80
1, 23809, Note_on_c, 0, 74, 0
1, 23810, Note_on_c, 0, 72, 79
1, 23820, Note_on_c, 0, 72, 0
1, 23834, Note_on_c, 0, 76, 81
1, 23853, Note_on_c, 1, 57, 0
1, 23856, Note_on_c, 1, 45, 81
1, 23857, Note_on_c, 0, 76, 0
1, 23858, Note_on_c, 0, 77, 81
1, 23881, Note_on_c, 0, 77, 0
1, 23882, Note_on_c, 0, 76, 81
1, 23901, Note_on_c, 1, 45, 0
1, 23904, Note_on_c, 0, 57, 81
1, 23905, Note_on_c, 0, 76, 0
1, 23906, Note_on_c, 0, 79, 81
1, 23928, Note_on_c, 1, 55, 81
1, 23946, Note_on_c, 0, 79, 0
1, 23946, Note_on_c, 0, 77, 81
1, 23951, Note_on_c, 1, 55, 0
1, 23952, Note_on_c, 1, 65, 81
1, 23956, Note_on_c, 0, 77, 0
1, 23956, Note_on_c, 0, 79, 81
1, 23966, Note_on_c, 0, 79, 0
1, 23966, Note_on_c, 0, 77, 81
1, 23975, Note_on_c, 0, 77, 0
1, 23975, Note_on_c, 0, 79, 81
1, 23975, Note_on_c, 1, 65, 0
1, 23976, Note_on_c, 1, 64, 81
1, 23984, Note_on_c, 0, 79, 0
1, 23984, Note_on_c, 0, 77, 81
1, 23993, Note_on_c, 0, 77, 0
1, 23993, Note_on_c, 0, 79, 81
1, 23993, Note_on_c, 0, 57, 0
1, 23999, Note_on_c, 1, 64, 0
1, 24000, Note_on_c, 1, 65, 81
1, 24000, Note_on_c, 0, 57, 81
1, 24002, Note_on_c, 0, 79, 0
1, 24002, Note_on_c, 0, 77, 81
1, 24025, Note_on_c, 0, 77, 0
1, 24026, Note_on_c, 0, 79, 81
1, 24049, Note_on_c, 0, 79, 0
1, 24050, Note_on_c, 0, 81, 81
1, 24073, Note_on_c, 0, 81, 0
1, 24074, Note_on_c, 0, 82, 81
1, 24089, Note_on_c, 1, 65, 0
1, 24089, Note_on_c, 0, 57, 0
1, 24097, Note_on_c, 0, 82, 0
1, 24098, Note_on_c, 0, 84, 81
1, 24113, Note_on_c, 0, 84, 0
1, 24114, Note_on_c, 0, 82, 81
1, 24129, Note_on_c, 0, 82, 0
1, 24130, Note_on_c, 0, 81, 81
1, 24144, Note_on_c, 0, 57, 81
1, 24145, Note_on_c, 0, 81, 0
1, 24146, Note_on_c, 0, 79, 81
1, 24161, Note_on_c, 0, 79, 0
1, 24162, Note_on_c, 0, 77, 81
1, 24177, Note_on_c, 0, 77, 0
1, 24178, Note_on_c, 0, 75, 81
1, 24189, Note_on_c, 0, 57, 0
1, 24192, Note_on_c, 1, 58, 66
1, 24193, Note_on_c, 0, 75, 0
1, 24194, Note_on_c, 0, 74, 70
1, 24215, Note_on_c, 1, 58, 0
1, 24216, Note_on_c, 1, 62, 66
1, 24239, Note_on_c, 0, 74, 0
1, 24239, Note_on_c, 1, 62, 0
1, 24240, Note_on_c, 1, 58, 66
1, 24242, Note_on_c, 0, 79, 86
1, 24263, Note_on_c, 1, 58, 0
1, 24264, Note_on_c, 1, 62, 66
1, 24287, Note_on_c, 1, 62, 0
1, 24288, Note_on_c, 1, 58, 66
1, 24311, Note_on_c, 1, 58, 0
1, 24312, Note_on_c, 1, 62, 66
1, 24324, Note_on_c, 0, 79, 0
1, 24326, Note_on_c, 0, 82, 70
1, 24335, Note_on_c, 1, 62, 0
1, 24336, Note_on_c, 1, 58, 66
1, 24338, Note_on_c, 0, 82, 0
1, 24338, Note_on_c, 0, 81, 70
1, 24359, Note_on_c, 1, 58, 0
1, 24360, Note_on_c, 1, 62, 66
1, 24372, Note_on_c, 0, 81, 0
1, 24374, Note_on_c, 0, 79, 70
1, 24383, Note_on_c, 1, 62, 0
1, 24384, Note_on_c, 1, 57, 66
1, 24386, Note_on_c, 0, 79, 0
1, 24386, Note_on_c, 0, 79, 70
1, 24407, Note_on_c, 1, 57, 0
1, 24408, Note_on_c, 1, 60, 66
1, 24431, Note_on_c, 1, 60, 0
1, 24432, Note_on_c, 1, 57, 66
1, 24455, Note_on_c, 1, 57, 0
1, 24456, Note_on_c, 1, 60, 66
1, 24479, Note_on_c, 1, 60, 0
1, 24480, Note_on_c, 1, 57, 66
1, 24482, Note_on_c, 0, 79, 0
1, 24482, Note_on_c, 0, 78, 70
1, 24503, Note_on_c, 1, 57, 0
1, 24504, Note_on_c, 1, 60, 66
1, 24527, Note_on_c, 0, 78, 0
1, 24527, Note_on_c, 1, 60, 0
1, 24528, Note_on_c, 1, 57, 66
1, 24551, Note_on_c, 1, 57, 0
1, 24552, Note_on_c, 1, 60, 66
1, 24575, Note_on_c, 1, 60, 0
1, 24576, Note_on_c, 1, 54, 66
1, 24576, Note_on_c, 1, 57, 66
1, 24576, Note_on_c, 1, 60, 66
1, 24578, Note_on_c, 0, 69, 70
1, 24593, Note_on_c, 0, 69, 0
1, 24594, Note_on_c, 0, 72, 70
1, 24609, Note_on_c, 0, 72, 0
1, 24610, Note_on_c, 0, 75, 71
1, 24625, Note_on_c, 0, 75, 0
1, 24626, Note_on_c, 0, 78, 71
1, 24641, Note_on_c, 0, 78, 0
1, 24642, Note_on_c, 0, 81, 72
1, 24657, Note_on_c, 0, 81, 0
1, 24658, Note_on_c, 0, 84, 73
1, 24665, Note_on_c, 1, 60, 0
1, 24665, Note_on_c, 1, 57, 0
1, 24665, Note_on_c, 1, 54, 0
1, 24673, Note_on_c, 0, 84, 0
1, 24674, Note_on_c, 0, 82, 73
1, 24689, Note_on_c, 0, 82, 0
1, 24690, Note_on_c, 0, 81, 74
1, 24705, Note_on_c, 0, 81, 0
1, 24706, Note_on_c, 0, 79, 75
1, 24721, Note_on_c, 0, 79, 0
1, 24722, Note_on_c, 0, 78, 74
1, 24737, Note_on_c, 0, 78, 0
1, 24738, Note_on_c, 0, 75, 73
1, 24753, Note_on_c, 0, 75, 0
1, 24754, Note_on_c, 0, 74, 73
1, 24769, Note_on_c, 0, 74, 0
1, 24770, Note_on_c, 0, 72, 70
1, 24792, Note_on_c, 1, 55, 68
1, 24815, Note_on_c, 1, 55, 0
1, 24816, Note_on_c, 1, 58, 70
1, 24839, Note_on_c, 1, 58, 0
1, 24840, Note_on_c, 1, 62, 72
1, 24863, Note_on_c, 1, 62, 0
1, 24864, Note_on_c, 1, 67, 75
1, 24866, Note_on_c, 0, 72, 0
1, 24866, Note_on_c, 0, 70, 70
1, 24887, Note_on_c, 1, 67, 0
1, 24888, Note_on_c, 1, 62, 72
1, 24911, Note_on_c, 1, 62, 0
1, 24912, Note_on_c, 1, 58, 70
1, 24935, Note_on_c, 1, 58, 0
1, 24936, Note_on_c, 1, 55, 68
1, 24955, Note_on_c, 0, 70, 0
1, 24959, Note_on_c, 1, 55, 0
1, 24960, Note_on_c, 1, 63, 66
1, 24960, Note_on_c, 1, 60, 66
1, 24962, Note_on_c, 0, 69, 70
1, 24977, Note_on_c, 0, 69, 0
1, 24978, Note_on_c, 0, 72, 70
1, 24993, Note_on_c, 0, 72, 0
1, 24994, Note_on_c, 0, 75, 70
1, 25009, Note_on_c, 0, 75, 0
1, 25010, Note_on_c, 0, 74, 70
1, 25025, Note_on_c, 0, 74, 0
1, 25026, Note_on_c, 0, 72, 70
1, 25041, Note_on_c, 0, 72, 0
1, 25042, Note_on_c, 0, 70, 70
1, 25049, Note_on_c, 1, 63, 0
1, 25049, Note_on_c, 1, 60, 0
1, 25057, Note_on_c, 0, 70, 0
1, 25058, Note_on_c, 0, 69, 70
1, 25073, Note_on_c, 0, 69, 0
1, 25074, Note_on_c, 0, 75, 70
1, 25089, Note_on_c, 0, 75, 0
1, 25090, Note_on_c, 0, 74, 70
1, 25104, Note_on_c, 1, 60, 66
1, 25105, Note_on_c, 0, 74, 0
1, 25106, Note_on_c, 0, 72, 70
1, 25121, Note_on_c, 0, 72, 0
1, 25122, Note_on_c, 0, 70, 70
1, 25137, Note_on_c, 0, 70, 0
1, 25138, Note_on_c, 0, 69, 70
1, 25149, Note_on_c, 1, 60, 0
1, 25152, Note_on_c, 1, 62, 66
1, 25153, Note_on_c, 0, 69, 0
1, 25154, Note_on_c, 0, 67, 70
1, 25197, Note_on_c, 1, 62, 0
1, 25200, Note_on_c, 1, 50, 66
1, 25202, Note_on_c, 0, 67, 0
1, 25202, Note_on_c, 0, 66, 70
1, 25245, Note_on_c, 1, 50, 0
1, 25247, Note_on_c, 0, 66, 0
1, 25248, Note_on_c, 1, 62, 66
1, 25271, Note_on_c, 1, 62, 0
1, 25272, Note_on_c, 1, 66, 66
1, 25295, Note_on_c, 1, 66, 0
1, 25296, Note_on_c, 1, 62, 66
1, 25298, Note_on_c, 0, 74, 70
1, 25308, Note_on_c, 0, 74, 0
1, 25319, Note_on_c, 1, 62, 0
1, 25320, Note_on_c, 1, 66, 66
1, 25322, Note_on_c, 0, 74, 70
1, 25343, Note_on_c, 1, 66, 0
1, 25344, Note_on_c, 1, 64, 67
1, 25345, Note_on_c, 0, 74, 0
1, 25346, Note_on_c, 0, 74, 71
1, 25352, Note_on_c, 0, 74, 0
1, 25352, Note_on_c, 0, 75, 71
1, 25358, Note_on_c, 0, 75, 0
1, 25358, Note_on_c, 0, 74, 71
1, 25367, Note_on_c, 1, 64, 0
1, 25368, Note_on_c, 1, 67, 67
1, 25369, Note_on_c, 0, 74, 0
1, 25370, Note_on_c, 0, 73, 71
1, 25391, Note_on_c, 1, 67, 0
1, 25392, Note_on_c, 1, 64, 67
1, 25393, Note_on_c, 0, 73, 0
1, 25394, Note_on_c, 0, 73, 71
1, 25415, Note_on_c, 1, 64, 0
1, 25416, Note_on_c, 1, 67, 67
1, 25439, Note_on_c, 0, 73, 0
1, 25439, Note_on_c, 1, 67, 0
1, 25440, Note_on_c, 1, 66, 68
1, 25463, Note_on_c, 1, 66, 0
1, 25464, Note_on_c, 1, 69, 68
1, 25487, Note_on_c, 1, 69, 0
1, 25488, Note_on_c, 1, 66, 68
1, 25490, Note_on_c, 0, 81, 73
1, 25511, Note_on_c, 1, 66, 0
1, 25512, Note_on_c, 1, 69, 68
1, 25513, Note_on_c, 0, 81, 0
1, 25514, Note_on_c, 0, 72, 73
1, 25535, Note_on_c, 1, 69, 0
1, 25536, Note_on_c, 1, 67, 69
1, 25537, Note_on_c, 0, 72, 0
1, 25538, Note_on_c, 0, 72, 73
1, 25544, Note_on_c, 0, 72, 0
1, 25544, Note_on_c, 0, 74, 73
1, 25546, Note_on_c, 1, 67, 0
1, 25550, Note_on_c, 0, 74, 0
1, 25550, Note_on_c, 0, 72, 73
1, 25560, Note_on_c, 1, 62, 69
1, 25561, Note_on_c, 0, 72, 0
1, 25562, Note_on_c, 0, 70, 74
1, 25570, Note_on_c, 1, 62, 0
1, 25584, Note_on_c, 1, 58, 69
1, 25585, Note_on_c, 0, 70, 0
1, 25586, Note_on_c, 0, 70, 74
1, 25594, Note_on_c, 1, 58, 0
1, 25608, Note_on_c, 1, 55, 69
1, 25618, Note_on_c, 1, 55, 0
1, 25631, Note_on_c, 0, 70, 0
1, 25632, Note_on_c, 1, 67, 70
1, 25655, Note_on_c, 1, 67, 0
1, 25656, Note_on_c, 1, 70, 70
1, 25679, Note_on_c, 1, 70, 0
1, 25680, Note_on_c, 1, 67, 70
1, 25682, Note_on_c, 0, 79, 75
1, 25692, Note_on_c, 0, 79, 0
1, 25703, Note_on_c, 1, 67, 0
1, 25704, Note_on_c, 1, 70, 70
1, 25706, Note_on_c, 0, 79, 75
1, 25727, Note_on_c, 1, 70, 0
1, 25728, Note_on_c, 1, 69, 71
1, 25729, Note_on_c, 0, 79, 0
1, 25730, Note_on_c, 0, 79, 76
1, 25736, Note_on_c, 0, 79, 0
1, 25736, Note_on_c, 0, 81, 76
1, 25742, Note_on_c, 0, 81, 0
1, 25742, Note_on_c, 0, 79, 76
1, 25751, Note_on_c, 1, 69, 0
1, 25752, Note_on_c, 1, 72, 71
1, 25753, Note_on_c, 0, 79, 0
1, 25754, Note_on_c, 0, 78, 77
1, 25775, Note_on_c, 1, 72, 0
1, 25776, Note_on_c, 1, 69, 72
1, 25777, Note_on_c, 0, 78, 0
1, 25778, Note_on_c, 0, 78, 77
1, 25799, Note_on_c, 1, 69, 0
1, 25800, Note_on_c, 1, 72, 72
1, 25823, Note_on_c, 0, 78, 0
1, 25823, Note_on_c, 1, 72, 0
1, 25824, Note_on_c, 1, 71, 73
1, 25847, Note_on_c, 1, 71, 0
1, 25848, Note_on_c, 1, 74, 73
1, 25871, Note_on_c, 1, 74, 0
1, 25872, Note_on_c, 1, 71, 74
1, 25874, Note_on_c, 0, 86, 80
1, 25895, Note_on_c, 1, 71, 0
1, 25896, Note_on_c, 1, 74, 75
1, 25897, Note_on_c, 0, 86, 0
1, 25898, Note_on_c, 0, 77, 81
1, 25919, Note_on_c, 1, 74, 0
1, 25920, Note_on_c, 1, 72, 75
1, 25921, Note_on_c, 0, 77, 0
1, 25922, Note_on_c, 0, 77, 81
1, 25945, Note_on_c, 0, 77, 0
1, 25946, Note_on_c, 0, 75, 81
1, 25965, Note_on_c, 1, 72, 0
1, 25968, Note_on_c, 1, 69, 75
1, 25969, Note_on_c, 0, 75, 0
1, 25970, Note_on_c, 0, 84, 81
1, 25993, Note_on_c, 0, 84, 0
1, 25994, Note_on_c, 0, 75, 81
1, 26013, Note_on_c, 1, 69, 0
1, 26016, Note_on_c, 1, 70, 75
1, 26017, Note_on_c, 0, 75, 0
1, 26018, Note_on_c, 0, 75, 81
1, 26041, Note_on_c, 0, 75, 0
1, 26042, Note_on_c, 0, 74, 81
1, 26061, Note_on_c, 1, 70, 0
1, 26064, Note_on_c, 1, 67, 75
1, 26065, Note_on_c, 0, 74, 0
1, 26066, Note_on_c, 0, 82, 81
1, 26089, Note_on_c, 0, 82, 0
1, 26090, Note_on_c, 0, 74, 81
1, 26109, Note_on_c, 1, 67, 0
1, 26112, Note_on_c, 1, 69, 75
1, 26113, Note_on_c, 0, 74, 0
1, 26114, Note_on_c, 0, 74, 81
1, 26120, Note_on_c, 0, 74, 0
1, 26120, Note_on_c, 0, 75, 81
1, 26126, Note_on_c, 0, 75, 0
1, 26126, Note_on_c, 0, 74, 81
1, 26137, Note_on_c, 0, 74, 0
1, 26138, Note_on_c, 0, 72, 81
1, 26157, Note_on_c, 1, 69, 0
1, 26160, Note_on_c, 1, 66, 75
1, 26161, Note_on_c, 0, 72, 0
1, 26162, Note_on_c, 0, 81, 81
1, 26185, Note_on_c, 0, 81, 0
1, 26186, Note_on_c, 0, 72, 81
1, 26205, Note_on_c, 1, 66, 0
1, 26208, Note_on_c, 1, 67, 75
1, 26209, Note_on_c, 0, 72, 0
1, 26210, Note_on_c, 0, 72, 81
1, 26216, Note_on_c, 0, 72, 0
1, 26216, Note_on_c, 0, 74, 81
1, 26222, Note_on_c, 0, 74, 0
1, 26222, Note_on_c, 0, 72, 81
1, 26233, Note_on_c, 0, 72, 0
1, 26234, Note_on_c, 0, 70, 81
1, 26253, Note_on_c, 1, 67, 0
1, 26256, Note_on_c, 1, 60, 75
1, 26257, Note_on_c, 0, 70, 0
1, 26258, Note_on_c, 0, 75, 81
1, 26281, Note_on_c, 0, 75, 0
1, 26282, Note_on_c, 0, 75, 81
1, 26301, Note_on_c, 1, 60, 0
1, 26304, Note_on_c, 1, 58, 75
1, 26305, Note_on_c, 0, 75, 0
1, 26306, Note_on_c, 0, 75, 81
1, 26312, Note_on_c, 0, 75, 0
1, 26312, Note_on_c, 0, 77, 81
1, 26318, Note_on_c, 0, 77, 0
1, 26318, Note_on_c, 0, 75, 81
1, 26329, Note_on_c, 0, 75, 0
1, 26330, Note_on_c, 0, 74, 81
1, 26349, Note_on_c, 1, 58, 0
1, 26352, Note_on_c, 1, 63, 75
1, 26353, Note_on_c, 0, 74, 0
1, 26354, Note_on_c, 0, 79, 81
1, 26377, Note_on_c, 0, 79, 0
1, 26378, Note_on_c, 0, 79, 81
1, 26397, Note_on_c, 1, 63, 0
1, 26400, Note_on_c, 1, 62, 75
1, 26401, Note_on_c, 0, 79, 0
1, 26402, Note_on_c, 0, 79, 81
1, 26408, Note_on_c, 0, 79, 0
1, 26408, Note_on_c, 0, 81, 81
1, 26414, Note_on_c, 0, 81, 0
1, 26414, Note_on_c, 0, 79, 81
1, 26425, Note_on_c, 0, 79, 0
1, 26426, Note_on_c, 0, 78, 81
1, 26445, Note_on_c, 1, 62, 0
1, 26448, Note_on_c, 1, 66, 75
1, 26449, Note_on_c, 0, 78, 0
1, 26450, Note_on_c, 0, 84, 81
1, 26473, Note_on_c, 0, 84, 0
1, 26474, Note_on_c, 0, 84, 81
1, 26493, Note_on_c, 1, 66, 0
1, 26496, Note_on_c, 1, 67, 75
1, 26497, Note_on_c, 0, 84, 0
1, 26498, Note_on_c, 0, 82, 81
1, 26513, Note_on_c, 0, 82, 0
1, 26514, Note_on_c, 0, 81, 81
1, 26529, Note_on_c, 0, 81, 0
1, 26530, Note_on_c, 0, 79, 81
1, 26544, Note_on_c, 0, 58, 81
1, 26545, Note_on_c, 0, 79, 0
1, 26546, Note_on_c, 0, 78, 81
1, 26561, Note_on_c, 0, 78, 0
1, 26562, Note_on_c, 0, 76, 81
1, 26577, Note_on_c, 0, 76, 0
1, 26578, Note_on_c, 0, 74, 81
1, 26589, Note_on_c, 0, 58, 0
1, 26592, Note_on_c, 0, 60, 81
1, 26593, Note_on_c, 0, 74, 0
1, 26594, Note_on_c, 0, 81, 81
1, 26605, Note_on_c, 0, 81, 0
1, 26605, Note_on_c, 0, 82, 81
1, 26616, Note_on_c, 0, 82, 0
1, 26616, Note_on_c, 0, 81, 81
1, 26627, Note_on_c, 0, 81, 0
1, 26627, Note_on_c, 0, 82, 81
1, 26629, Note_on_c, 1, 67, 0
1, 26637, Note_on_c, 0, 60, 0
1, 26638, Note_on_c, 0, 82, 0
1, 26638, Note_on_c, 0, 81, 81
1, 26640, Note_on_c, 1, 66, 75
1, 26640, Note_on_c, 0, 62, 81
1, 26649, Note_on_c, 0, 81, 0
1, 26649, Note_on_c, 0, 82, 81
1, 26660, Note_on_c, 0, 82, 0
1, 26660, Note_on_c, 0, 81, 81
1, 26670, Note_on_c, 0, 81, 0
1, 26670, Note_on_c, 0, 79, 81
1, 26680, Note_on_c, 0, 79, 0
1, 26680, Note_on_c, 0, 81, 81
1, 26685, Note_on_c, 1, 66, 0
1, 26685, Note_on_c, 0, 62, 0
1, 26688, Note_on_c, 1, 67, 75
1, 26690, Note_on_c, 0, 81, 0
1, 26690, Note_on_c, 0, 79, 81
1, 26733, Note_on_c, 1, 67, 0
1, 26736, Note_on_c, 1, 55, 75
1, 26779, Note_on_c, 0, 79, 0
1, 26781, Note_on_c, 1, 55, 0
1, 26786, Note_on_c, 0, 74, 70
1, 26792, Note_on_c, 0, 74, 0
1, 26792, Note_on_c, 0, 79, 70
1, 26798, Note_on_c, 0, 79, 0
1, 26798, Note_on_c, 0, 82, 86
1, 26858, Note_on_c, 0, 82, 0
1, 26858, Note_on_c, 0, 79, 70
1, 26870, Note_on_c, 0, 79, 0
1, 26870, Note_on_c, 0, 76, 70
1, 26880, Note_on_c, 1, 69, 70
1, 26880, Note_on_c, 1, 67, 70
1, 26882, Note_on_c, 0, 76, 0
1, 26882, Note_on_c, 0, 73, 70
1, 26897, Note_on_c, 0, 73, 0
1, 26898, Note_on_c, 0, 74, 70
1, 26913, Note_on_c, 0, 74, 0
1, 26914, Note_on_c, 0, 76, 70
1, 26927, Note_on_c, 1, 69, 0
1, 26927, Note_on_c, 1, 67, 0
1, 26928, Note_on_c, 1, 69, 70
1, 26928, Note_on_c, 1, 65, 70
1, 26929, Note_on_c, 0, 76, 0
1, 26930, Note_on_c, 0, 74, 70
1, 26975, Note_on_c, 0, 74, 0
1, 26975, Note_on_c, 1, 69, 0
1, 26975, Note_on_c, 1, 65, 0
1, 26978, Note_on_c, 0, 80, 86
1, 27050, Note_on_c, 0, 80, 0
1, 27050, Note_on_c, 0, 77, 70
1, 27062, Note_on_c, 0, 77, 0
1, 27062, Note_on_c, 0, 74, 70
1, 27072, Note_on_c, 1, 67, 70
1, 27072, Note_on_c, 1, 65, 70
1, 27074, Note_on_c, 0, 74, 0
1, 27074, Note_on_c, 0, 71, 70
1, 27089, Note_on_c, 0, 71, 0
1, 27090, Note_on_c, 0, 72, 70
1, 27105, Note_on_c, 0, 72, 0
1, 27106, Note_on_c, 0, 74, 70
1, 27119, Note_on_c, 1, 67, 0
1, 27119, Note_on_c, 1, 65, 0
1, 27120, Note_on_c, 1, 67, 70
1, 27120, Note_on_c, 1, 63, 70
1, 27121, Note_on_c, 0, 74, 0
1, 27122, Note_on_c, 0, 72, 70
1, 27167, Note_on_c, 0, 72, 0
1, 27167, Note_on_c, 1, 67, 0
1, 27167, Note_on_c, 1, 63, 0
1, 27170, Note_on_c, 0, 75, 70
1, 27176, Note_on_c, 0, 75, 0
1, 27176, Note_on_c, 0, 77, 70
1, 27182, Note_on_c, 0, 77, 0
1, 27182, Note_on_c, 0, 79, 70
1, 27237, Note_on_c, 0, 79, 0
1, 27242, Note_on_c, 0, 75, 70
1, 27254, Note_on_c, 0, 75, 0
1, 27254, Note_on_c, 0, 72, 70
1, 27264, Note_on_c, 1, 65, 70
1, 27264, Note_on_c, 1, 63, 70
1, 27266, Note_on_c, 0, 72, 0
1, 27266, Note_on_c, 0, 69, 70
1, 27281, Note_on_c, 0, 69, 0
1, 27282, Note_on_c, 0, 70, 70
1, 27297, Note_on_c, 0, 70, 0
1, 27298, Note_on_c, 0, 72, 70
1, 27311, Note_on_c, 1, 65, 0
1, 27311, Note_on_c, 1, 63, 0
1, 27312, Note_on_c, 1, 65, 70
1, 27312, Note_on_c, 1, 62, 70
1, 27313, Note_on_c, 0, 72, 0
1, 27314, Note_on_c, 0, 70, 70
1, 27359, Note_on_c, 0, 70, 0
1, 27359, Note_on_c, 1, 65, 0
1, 27359, Note_on_c, 1, 62, 0
1, 27360, Note_on_c, 1, 62, 70
1, 27360, Note_on_c, 1, 58, 70
1, 27362, Note_on_c, 0, 77, 75
1, 27377, Note_on_c, 0, 77, 0
1, 27378, Note_on_c, 0, 75, 75
1, 27393, Note_on_c, 0, 75, 0
1, 27394, Note_on_c, 0, 74, 75
1, 27407, Note_on_c, 1, 62, 0
1, 27407, Note_on_c, 1, 58, 0
1, 27408, Note_on_c, 1, 62, 70
1, 27408, Note_on_c, 1, 58, 70
1, 27409, Note_on_c, 0, 74, 0
1, 27410, Note_on_c, 0, 72, 75
1, 27425, Note_on_c, 0, 72, 0
1, 27426, Note_on_c, 0, 70, 75
1, 27441, Note_on_c, 0, 70, 0
1, 27442, Note_on_c, 0, 68, 75
1, 27455, Note_on_c, 1, 62, 0
1, 27455, Note_on_c, 1, 58, 0
1, 27456, Note_on_c, 1, 63, 70
1, 27456, Note_on_c, 1, 58, 70
1, 27457, Note_on_c, 0, 68, 0
1, 27458, Note_on_c, 0, 67, 75
1, 27468, Note_on_c, 0, 67, 0
1, 27482, Note_on_c, 0, 70, 76
1, 27492, Note_on_c, 0, 70, 0
1, 27503, Note_on_c, 1, 63, 0
1, 27503, Note_on_c, 1, 58, 0
1, 27504, Note_on_c, 1, 63, 70
1, 27504, Note_on_c, 1, 58, 70
1, 27506, Note_on_c, 0, 75, 77
1, 27516, Note_on_c, 0, 75, 0
1, 27530, Note_on_c, 0, 79, 79
1, 27540, Note_on_c, 0, 79, 0
1, 27551, Note_on_c, 1, 63, 0
1, 27551, Note_on_c, 1, 58, 0
1, 27552, Note_on_c, 1, 62, 70
1, 27552, Note_on_c, 1, 58, 70
1, 27554, Note_on_c, 0, 77, 80
1, 27569, Note_on_c, 0, 77, 0
1, 27570, Note_on_c, 0, 75, 81
1, 27585, Note_on_c, 0, 75, 0
1, 27586, Note_on_c, 0, 74, 80
1, 27599, Note_on_c, 1, 62, 0
1, 27599, Note_on_c, 1, 58, 0
1, 27600, Note_on_c, 1, 62, 70
1, 27600, Note_on_c, 1, 58, 70
1, 27601, Note_on_c, 0, 74, 0
1, 27602, Note_on_c, 0, 72, 79
1, 27617, Note_on_c, 0, 72, 0
1, 27618, Note_on_c, 0, 70, 78
1, 27633, Note_on_c, 0, 70, 0
1, 27634, Note_on_c, 0, 68, 77
1, 27647, Note_on_c, 1, 62, 0
1, 27647, Note_on_c, 1, 58, 0
1, 27648, Note_on_c, 1, 63, 70
1, 27648, Note_on_c, 1, 58, 70
1, 27649, Note_on_c, 0, 68, 0
1, 27650, Note_on_c, 0, 67, 75
1, 27660, Note_on_c, 0, 67, 0
1, 27674, Note_on_c, 0, 70, 76
1, 27684, Note_on_c, 0, 70, 0
1, 27695, Note_on_c, 1, 63, 0
1, 27695, Note_on_c, 1, 58, 0
1, 27696, Note_on_c, 1, 63, 70
1, 27696, Note_on_c, 1, 58, 70
1, 27698, Note_on_c, 0, 75, 77
1, 27708, Note_on_c, 0, 75, 0
1, 27722, Note_on_c, 0, 79, 79
1, 27732, Note_on_c, 0, 79, 0
1, 27743, Note_on_c, 1, 63, 0
1, 27743, Note_on_c, 1, 58, 0
1, 27744, Note_on_c, 1, 62, 70
1, 27744, Note_on_c, 1, 58, 70
1, 27746, Note_on_c, 0, 77, 80
1, 27761, Note_on_c, 0, 77, 0
1, 27762, Note_on_c, 0, 75, 81
1, 27777, Note_on_c, 0, 75, 0
1, 27778, Note_on_c, 0, 74, 80
1, 27791, Note_on_c, 1, 62, 0
1, 27791, Note_on_c, 1, 58, 0
1, 27792, Note_on_c, 1, 62, 70
1, 27792, Note_on_c, 1, 58, 70
1, 27793, Note_on_c, 0, 74, 0
1, 27794, Note_on_c, 0, 72, 79
1, 27809, Note_on_c, 0, 72, 0
1, 27810, Note_on_c, 0, 70, 78
1, 27825, Note_on_c, 0, 70, 0
1, 27826, Note_on_c, 0, 68, 77
1, 27839, Note_on_c, 1, 62, 0
1, 27839, Note_on_c, 1, 58, 0
1, 27840, Note_on_c, 1, 58, 75
1, 27841, Note_on_c, 0, 68, 0
1, 27842, Note_on_c, 0, 67, 81
1, 27853, Note_on_c, 0, 67, 0
1, 27853, Note_on_c, 0, 68, 81
1, 27863, Note_on_c, 1, 58, 0
1, 27864, Note_on_c, 0, 68, 0
1, 27864, Note_on_c, 0, 67, 81
1, 27864, Note_on_c, 1, 63, 75
1, 27874, Note_on_c, 0, 67, 0
1, 27874, Note_on_c, 0, 68, 81
1, 27884, Note_on_c, 0, 68, 0
1, 27884, Note_on_c, 0, 67, 81
1, 27887, Note_on_c, 1, 63, 0
1, 27888, Note_on_c, 1, 58, 75
1, 27894, Note_on_c, 0, 67, 0
1, 27894, Note_on_c, 0, 68, 81
1, 27904, Note_on_c, 0, 68, 0
1, 27904, Note_on_c, 0, 67, 81
1, 27911, Note_on_c, 1, 58, 0
1, 27912, Note_on_c, 1, 63, 75
1, 27914, Note_on_c, 0, 67, 0
1, 27914, Note_on_c, 0, 68, 81
1, 27924, Note_on_c, 0, 68, 0
1, 27924, Note_on_c, 0, 67, 81
1, 27934, Note_on_c, 0, 67, 0
1, 27934, Note_on_c, 0, 68, 81
1, 27935, Note_on_c, 1, 63, 0
1, 27936, Note_on_c, 1, 58, 75
1, 27944, Note_on_c, 0, 68, 0
1, 27944, Note_on_c, 0, 67, 81
1, 27954, Note_on_c, 0, 67, 0
1, 27954, Note_on_c, 0, 68, 81
1, 27959, Note_on_c, 1, 58, 0
1, 27960, Note_on_c, 1, 63, 75
1, 27964, Note_on_c, 0, 68, 0
1, 27964, Note_on_c, 0, 67, 81
1, 27974, Note_on_c, 0, 67, 0
1, 27974, Note_on_c, 0, 68, 81
1, 27983, Note_on_c, 1, 63, 0
1, 27984, Note_on_c, 0, 68, 0
1, 27984, Note_on_c, 0, 67, 81
1, 27984, Note_on_c, 1, 58, 75
1, 27994, Note_on_c, 0, 67, 0
1, 27994, Note_on_c, 0, 68, 81
1, 28004, Note_on_c, 0, 68, 0
1, 28004, Note_on_c, 0, 67, 81
1, 28007, Note_on_c, 1, 58, 0
1, 28008, Note_on_c, 1, 63, 75
1, 28014, Note_on_c, 0, 67, 0
1, 28014, Note_on_c, 0, 68, 81
1, 28024, Note_on_c, 0, 68, 0
1, 28024, Note_on_c, 0, 67, 81
1, 28031, Note_on_c, 1, 63, 0
1, 28032, Note_on_c, 1, 57, 75
1, 28034, Note_on_c, 0, 67, 0
1, 28034, Note_on_c, 0, 68, 81
1, 28044, Note_on_c, 0, 68, 0
1, 28044, Note_on_c, 0, 66, 81
1, 28054, Note_on_c, 0, 66, 0
1, 28054, Note_on_c, 0, 68, 81
1, 28055, Note_on_c, 1, 57, 0
1, 28056, Note_on_c, 1, 63, 75
1, 28064, Note_on_c, 0, 68, 0
1, 28064, Note_on_c, 0, 66, 81
1, 28074, Note_on_c, 0, 66, 0
1, 28074, Note_on_c, 0, 68, 81
1, 28079, Note_on_c, 1, 63, 0
1, 28080, Note_on_c, 1, 57, 75
1, 28084, Note_on_c, 0, 68, 0
1, 28084, Note_on_c, 0, 66, 81
1, 28094, Note_on_c, 0, 66, 0
1, 28094, Note_on_c, 0, 68, 81
1, 28103, Note_on_c, 1, 57, 0
1, 28104, Note_on_c, 0, 68, 0
1, 28104, Note_on_c, 0, 66, 81
1, 28104, Note_on_c, 1, 63, 75
1, 28114, Note_on_c, 0, 66, 0
1, 28114, Note_on_c, 0, 68, 81
1, 28124, Note_on_c, 0, 68, 0
1, 28124, Note_on_c, 0, 66, 81
1, 28127, Note_on_c, 1, 63, 0
1, 28128, Note_on_c, 1, 57, 75
1, 28134, Note_on_c, 0, 66, 0
1, 28134, Note_on_c, 0, 68, 81
1, 28144, Note_on_c, 0, 68, 0
1, 28144, Note_on_c, 0, 66, 81
1, 28151, Note_on_c, 1, 57, 0
1, 28152, Note_on_c, 1, 63, 75
1, 28154, Note_on_c, 0, 66, 0
1, 28154, Note_on_c, 0, 68, 81
1, 28163, Note_on_c, 0, 68, 0
1, 28163, Note_on_c, 0, 66, 81
1, 28172, Note_on_c, 0, 66, 0
1, 28172, Note_on_c, 0, 68, 81
1, 28175, Note_on_c, 1, 63, 0
1, 28176, Note_on_c, 1, 57, 75
1, 28181, Note_on_c, 0, 68, 0
1, 28181, Note_on_c, 0, 66, 81
1, 28190, Note_on_c, 0, 66, 0
1, 28190, Note_on_c, 0, 68, 81
1, 28199, Note_on_c, 0, 68, 0
1, 28199, Note_on_c, 0, 66, 81
1, 28199, Note_on_c, 1, 57, 0
1, 28200, Note_on_c, 1, 63, 75
1, 28208, Note_on_c, 0, 66, 0
1, 28208, Note_on_c, 0, 65, 81
1, 28217, Note_on_c, 0, 65, 0
1, 28217, Note_on_c, 0, 66, 81
1, 28223, Note_on_c, 1, 63, 0
1, 28224, Note_on_c, 1, 58, 75
1, 28226, Note_on_c, 0, 66, 0
1, 28226, Note_on_c, 0, 65, 81
1, 28249, Note_on_c, 0, 65, 0
1, 28250, Note_on_c, 0, 70, 81
1, 28269, Note_on_c, 1, 58, 0
1, 28272, Note_on_c, 1, 62, 75
1, 28272, Note_on_c, 1, 58, 75
1, 28273, Note_on_c, 0, 70, 0
1, 28298, Note_on_c, 0, 70, 81
1, 28308, Note_on_c, 0, 70, 0
1, 28317, Note_on_c, 1, 62, 0
1, 28317, Note_on_c, 1, 58, 0
1, 28320, Note_on_c, 1, 63, 75
1, 28320, Note_on_c, 1, 58, 75
1, 28322, Note_on_c, 0, 68, 81
1, 28332, Note_on_c, 0, 68, 0
1, 28332, Note_on_c, 0, 66, 81
1, 28342, Note_on_c, 0, 66, 0
1, 28342, Note_on_c, 0, 68, 81
1, 28352, Note_on_c, 0, 68, 0
1, 28352, Note_on_c, 0, 66, 81
1, 28362, Note_on_c, 0, 66, 0
1, 28362, Note_on_c, 0, 68, 81
1, 28365, Note_on_c, 1, 63, 0
1, 28365, Note_on_c, 1, 58, 0
1, 28368, Note_on_c, 1, 63, 75
1, 28368, Note_on_c, 1, 58, 75
1, 28372, Note_on_c, 0, 68, 0
1, 28372, Note_on_c, 0, 66, 81
1, 28382, Note_on_c, 0, 66, 0
1, 28382, Note_on_c, 0, 68, 81
1, 28391, Note_on_c, 0, 68, 0
1, 28391, Note_on_c, 0, 66, 81
1, 28400, Note_on_c, 0, 66, 0
1, 28400, Note_on_c, 0, 65, 81
1, 28409, Note_on_c, 0, 65, 0
1, 28409, Note_on_c, 0, 66, 81
1, 28413, Note_on_c, 1, 63, 0
1, 28413, Note_on_c, 1, 58, 0
1, 28416, Note_on_c, 1, 62, 75
1, 28416, Note_on_c, 1, 58, 75
1, 28418, Note_on_c, 0, 66, 0
1, 28418, Note_on_c, 0, 65, 81
1, 28441, Note_on_c, 0, 65, 0
1, 28442, Note_on_c, 0, 70, 81
1, 28461, Note_on_c, 1, 62, 0
1, 28461, Note_on_c, 1, 58, 0
1, 28464, Note_on_c, 1, 62, 75
1, 28464, Note_on_c, 1, 58, 75
1, 28465, Note_on_c, 0, 70, 0
1, 28490, Note_on_c, 0, 70, 81
1, 28500, Note_on_c, 0, 70, 0
1, 28509, Note_on_c, 1, 62, 0
1, 28509, Note_on_c, 1, 58, 0
1, 28512, Note_on_c, 1, 63, 75
1, 28512, Note_on_c, 1, 58, 75
1, 28514, Note_on_c, 0, 68, 81
1, 28524, Note_on_c, 0, 68, 0
1, 28524, Note_on_c, 0, 66, 81
1, 28534, Note_on_c, 0, 66, 0
1, 28534, Note_on_c, 0, 68, 81
1, 28544, Note_on_c, 0, 68, 0
1, 28544, Note_on_c, 0, 66, 81
1, 28554, Note_on_c, 0, 66, 0
1, 28554, Note_on_c, 0, 68, 81
1, 28557, Note_on_c, 1, 63, 0
1, 28557, Note_on_c, 1, 58, 0
1, 28560, Note_on_c, 1, 63, 75
1, 28560, Note_on_c, 1, 58, 75
1, 28564, Note_on_c, 0, 68, 0
1, 28564, Note_on_c, 0, 66, 81
1, 28574, Note_on_c, 0, 66, 0
1, 28574, Note_on_c, 0, 68, 81
1, 28583, Note_on_c, 0, 68, 0
1, 28583, Note_on_c, 0, 66, 81
1, 28592, Note_on_c, 0, 66, 0
1, 28592, Note_on_c, 0, 65, 81
1, 28601, Note_on_c, 0, 65, 0
1, 28601, Note_on_c, 0, 66, 81
1, 28605, Note_on_c, 1, 63, 0
1, 28605, Note_on_c, 1, 58, 0
1, 28608, Note_on_c, 1, 62, 75
1, 28608, Note_on_c, 1, 58, 75
1, 28610, Note_on_c, 0, 66, 0
1, 28610, Note_on_c, 0, 65, 81
1, 28697, Note_on_c, 1, 62, 0
1, 28697, Note_on_c, 1, 58, 0
1, 28699, Note_on_c, 0, 65, 0
1, 28790, Note_on_c, 0, 67, 81
1, 28800, Note_on_c, 1, 58, 70
1, 28800, Note_on_c, 1, 55, 70
1, 28800, Note_on_c, 1, 51, 70
1, 28802, Note_on_c, 0, 67, 0
1, 28802, Note_on_c, 0, 75, 75
1, 28847, Note_on_c, 1, 58, 0
1, 28847, Note_on_c, 1, 55, 0
1, 28847, Note_on_c, 1, 51, 0
1, 28848, Note_on_c, 1, 58, 70
1, 28848, Note_on_c, 1, 55, 70
1, 28848, Note_on_c, 1, 51, 70
1, 28891, Note_on_c, 0, 75, 0
1, 28895, Note_on_c, 1, 58, 0
1, 28895, Note_on_c, 1, 55, 0
1, 28895, Note_on_c, 1, 51, 0
1, 28896, Note_on_c, 1, 58, 70
1, 28896, Note_on_c, 1, 55, 70
1, 28896, Note_on_c, 1, 51, 70
1, 28898, Note_on_c, 0, 75, 75
1, 28932, Note_on_c, 0, 75, 0
1, 28934, Note_on_c, 0, 77, 75
1, 28943, Note_on_c, 1, 58, 0
1, 28943, Note_on_c, 1, 55, 0
1, 28943, Note_on_c, 1, 51, 0
1, 28944, Note_on_c, 1, 58, 70
1, 28944, Note_on_c, 1, 55, 70
1, 28944, Note_on_c, 1, 51, 70
1, 28946, Note_on_c, 0, 77, 0
1, 28946, Note_on_c, 0, 79, 75
1, 28980, Note_on_c, 0, 79, 0
1, 28982, Note_on_c, 0, 80, 75
1, 28991, Note_on_c, 1, 58, 0
1, 28991, Note_on_c, 1, 55, 0
1, 28991, Note_on_c, 1, 51, 0
1, 28994, Note_on_c, 0, 80, 0
1, 28994, Note_on_c, 0, 82, 91
1, 29040, Note_on_c, 1, 58, 70
1, 29040, Note_on_c, 1, 55, 70
1, 29040, Note_on_c, 1, 51, 70
1, 29087, Note_on_c, 1, 58, 0
1, 29087, Note_on_c, 1, 55, 0
1, 29087, Note_on_c, 1, 51, 0
1, 29088, Note_on_c, 1, 58, 70
1, 29088, Note_on_c, 1, 55, 70
1, 29088, Note_on_c, 1, 51, 70
1, 29090, Note_on_c, 0, 82, 0
1, 29090, Note_on_c, 0, 80, 75
1, 29113, Note_on_c, 0, 80, 0
1, 29114, Note_on_c, 0, 79, 75
1, 29135, Note_on_c, 1, 58, 0
1, 29135, Note_on_c, 1, 55, 0
1, 29135, Note_on_c, 1, 51, 0
1, 29136, Note_on_c, 1, 58, 70
1, 29136, Note_on_c, 1, 55, 70
1, 29136, Note_on_c, 1, 51, 70
1, 29137, Note_on_c, 0, 79, 0
1, 29138, Note_on_c, 0, 77, 75
1, 29161, Note_on_c, 0, 77, 0
1, 29162, Note_on_c, 0, 75, 75
1, 29183, Note_on_c, 1, 58, 0
1, 29183, Note_on_c, 1, 55, 0
1, 29183, Note_on_c, 1, 51, 0
1, 29185, Note_on_c, 0, 75, 0
1, 29186, Note_on_c, 0, 74, 75
1, 29209, Note_on_c, 0, 74, 0
1, 29210, Note_on_c, 0, 72, 75
1, 29232, Note_on_c, 1, 56, 70
1, 29232, Note_on_c, 1, 51, 70
1, 29233, Note_on_c, 0, 72, 0
1, 29234, Note_on_c, 0, 72, 75
1, 29279, Note_on_c, 1, 56, 0
1, 29279, Note_on_c, 1, 51, 0
1, 29280, Note_on_c, 1, 56, 70
1, 29280, Note_on_c, 1, 51, 70
1, 29327, Note_on_c, 0, 72, 0
1, 29327, Note_on_c, 1, 56, 0
1, 29327, Note_on_c, 1, 51, 0
1, 29328, Note_on_c, 1, 56, 70
1, 29328, Note_on_c, 1, 51, 70
1, 29330, Note_on_c, 0, 75, 75
1, 29353, Note_on_c, 0, 75, 0
1, 29354, Note_on_c, 0, 72, 75
1, 29375, Note_on_c, 1, 56, 0
1, 29375, Note_on_c, 1, 51, 0
1, 29377, Note_on_c, 0, 72, 0
1, 29378, Note_on_c, 0, 72, 75
1, 29401, Note_on_c, 0, 72, 0
1, 29402, Note_on_c, 0, 70, 75
1, 29424, Note_on_c, 1, 55, 70
1, 29424, Note_on_c, 1, 51, 70
1, 29425, Note_on_c, 0, 70, 0
1, 29426, Note_on_c, 0, 70, 75
1, 29471, Note_on_c, 1, 55, 0
1, 29471, Note_on_c, 1, 51, 0
1, 29472, Note_on_c, 1, 55, 70
1, 29472, Note_on_c, 1, 51, 70
1, 29497, Note_on_c, 0, 70, 0
1, 29498, Note_on_c, 0, 75, 75
1, 29519, Note_on_c, 1, 55, 0
1, 29519, Note_on_c, 1, 51, 0
1, 29520, Note_on_c, 1, 55, 70
1, 29520, Note_on_c, 1, 51, 70
1, 29521, Note_on_c, 0, 75, 0
1, 29522, Note_on_c, 0, 79, 75
1, 29545, Note_on_c, 0, 79, 0
1, 29546, Note_on_c, 0, 75, 75
1, 29567, Note_on_c, 1, 55, 0
1, 29567, Note_on_c, 1, 51, 0
1, 29569, Note_on_c, 0, 75, 0
1, 29570, Note_on_c, 0, 74, 75
1, 29576, Note_on_c, 0, 74, 0
1, 29576, Note_on_c, 0, 75, 75
1, 29582, Note_on_c, 0, 75, 0
1, 29582, Note_on_c, 0, 74, 75
1, 29593, Note_on_c, 0, 74, 0
1, 29594, Note_on_c, 0, 72, 75
1, 29616, Note_on_c, 1, 56, 70
1, 29616, Note_on_c, 1, 51, 70
1, 29617, Note_on_c, 0, 72, 0
1, 29618, Note_on_c, 0, 72, 75
1, 29663, Note_on_c, 1, 56, 0
1, 29663, Note_on_c, 1, 51, 0
1, 29664, Note_on_c, 1, 56, 70
1, 29664, Note_on_c, 1, 51, 70
1, 29689, Note_on_c, 0, 72, 0
1, 29690, Note_on_c, 0, 75, 75
1, 29702, Note_on_c, 0, 75, 0
1, 29702, Note_on_c, 0, 74, 75
1, 29711, Note_on_c, 1, 56, 0
1, 29711, Note_on_c, 1, 51, 0
1, 29712, Note_on_c, 1, 56, 70
1, 29712, Note_on_c, 1, 51, 70
1, 29714, Note_on_c, 0, 74, 0
1, 29714, Note_on_c, 0, 77, 75
1, 29726, Note_on_c, 0, 77, 0
1, 29726, Note_on_c, 0, 75, 75
1, 29738, Note_on_c, 0, 75, 0
1, 29738, Note_on_c, 0, 74, 75
1, 29750, Note_on_c, 0, 74, 0
1, 29750, Note_on_c, 0, 72, 75
1, 29759, Note_on_c, 1, 56, 0
1, 29759, Note_on_c, 1, 51, 0
1, 29760, Note_on_c, 1, 55, 70
1, 29760, Note_on_c, 1, 51, 70
1, 29762, Note_on_c, 0, 72, 0
1, 29762, Note_on_c, 0, 72, 91
1, 29786, Note_on_c, 0, 72, 0
1, 29786, Note_on_c, 0, 70, 75
1, 29809, Note_on_c, 0, 70, 0
1, 29810, Note_on_c, 0, 70, 75
1, 29849, Note_on_c, 1, 55, 0
1, 29849, Note_on_c, 1, 51, 0
1, 29856, Note_on_c, 1, 63, 70
1, 29856, Note_on_c, 1, 55, 70
1, 29892, Note_on_c, 0, 70, 0
1, 29894, Note_on_c, 0, 75, 75
1, 29906, Note_on_c, 0, 75, 0
1, 29906, Note_on_c, 0, 75, 75
1, 29940, Note_on_c, 0, 75, 0
1, 29942, Note_on_c, 0, 75, 75
1, 29945, Note_on_c, 1, 63, 0
1, 29945, Note_on_c, 1, 55, 0
1, 29952, Note_on_c, 1, 63, 70
1, 29952, Note_on_c, 1, 56, 70
1, 29954, Note_on_c, 0, 75, 0
1, 29954, Note_on_c, 0, 75, 75
1, 29988, Note_on_c, 0, 75, 0
1, 29990, Note_on_c, 0, 65, 75
1, 30002, Note_on_c, 0, 65, 0
1, 30002, Note_on_c, 0, 65, 75
1, 30041, Note_on_c, 1, 63, 0
1, 30041, Note_on_c, 1, 56, 0
1, 30048, Note_on_c, 1, 62, 70
1, 30048, Note_on_c, 1, 58, 70
1, 30084, Note_on_c, 0, 65, 0
1, 30086, Note_on_c, 0, 72, 75
1, 30098, Note_on_c, 0, 72, 0
1, 30098, Note_on_c, 0, 70, 75
1, 30132, Note_on_c, 0, 70, 0
1, 30134, Note_on_c, 0, 68, 75
1, 30137, Note_on_c, 1, 62, 0
1, 30137, Note_on_c, 1, 58, 0
1, 30144, Note_on_c, 1, 63, 70
1, 30144, Note_on_c, 1, 60, 70
1, 30146, Note_on_c, 0, 68, 0
1, 30146, Note_on_c, 0, 70, 75
1, 30152, Note_on_c, 0, 70, 0
1, 30152, Note_on_c, 0, 68, 75
1, 30158, Note_on_c, 0, 68, 0
1, 30158, Note_on_c, 0, 67, 75
1, 30164, Note_on_c, 0, 67, 0
1, 30164, Note_on_c, 0, 68, 75
1, 30180, Note_on_c, 0, 68, 0
1, 30182, Note_on_c, 0, 67, 75
1, 30194, Note_on_c, 0, 67, 0
1, 30194, Note_on_c, 0, 67, 75
1, 30233, Note_on_c, 1, 63, 0
1, 30233, Note_on_c, 1, 60, 0
1, 30240, Note_on_c, 1, 63, 70
1, 30240, Note_on_c, 1, 55, 70
1, 30276, Note_on_c, 0, 67, 0
1, 30278, Note_on_c, 0, 75, 75
1, 30290, Note_on_c, 0, 75, 0
1, 30290, Note_on_c, 0, 75, 75
1, 30324, Note_on_c, 0, 75, 0
1, 30326, Note_on_c, 0, 75, 75
1, 30329, Note_on_c, 1, 63, 0
1, 30329, Note_on_c, 1, 55, 0
1, 30336, Note_on_c, 1, 63, 70
1, 30336, Note_on_c, 1, 56, 70
1, 30338, Note_on_c, 0, 75, 0
1, 30338, Note_on_c, 0, 75, 75
1, 30372, Note_on_c, 0, 75, 0
1, 30374, Note_on_c, 0, 65, 75
1, 30386, Note_on_c, 0, 65, 0
1, 30386, Note_on_c, 0, 65, 75
1, 30425, Note_on_c, 1, 63, 0
1, 30425, Note_on_c, 1, 56, 0
1, 30432, Note_on_c, 1, 62, 70
1, 30432, Note_on_c, 1, 58, 70
1, 30479, Note_on_c, 0, 65, 0
1, 30482, Note_on_c, 0, 68, 75
1, 30497, Note_on_c, 0, 68, 0
1, 30498, Note_on_c, 0, 65, 75
1, 30513, Note_on_c, 0, 65, 0
1, 30514, Note_on_c, 0, 62, 75
1, 30521, Note_on_c, 1, 62, 0
1, 30521, Note_on_c, 1, 58, 0
1, 30528, Note_on_c, 1, 60, 70
1, 30529, Note_on_c, 0, 62, 0
1, 30530, Note_on_c, 0, 63, 75
1, 30573, Note_on_c, 1, 60, 0
1, 30575, Note_on_c, 0, 63, 0
1, 30576, Note_on_c, 1, 62, 70
1, 30578, Note_on_c, 0, 72, 76
1, 30593, Note_on_c, 0, 72, 0
1, 30594, Note_on_c, 0, 68, 76
1, 30609, Note_on_c, 0, 68, 0
1, 30610, Note_on_c, 0, 65, 76
1, 30621, Note_on_c, 1, 62, 0
1, 30624, Note_on_c, 1, 63, 71
1, 30625, Note_on_c, 0, 65, 0
1, 30626, Note_on_c, 0, 67, 76
1, 30671, Note_on_c, 0, 67, 0
1, 30674, Note_on_c, 0, 77, 77
1, 30686, Note_on_c, 0, 77, 0
1, 30686, Note_on_c, 0, 75, 77
1, 30698, Note_on_c, 0, 75, 0
1, 30698, Note_on_c, 0, 74, 77
1, 30710, Note_on_c, 0, 74, 0
1, 30710, Note_on_c, 0, 72, 77
1, 30713, Note_on_c, 1, 63, 0
1, 30722, Note_on_c, 0, 72, 0
1, 30722, Note_on_c, 0, 70, 77
1, 30768, Note_on_c, 1, 65, 73
1, 30768, Note_on_c, 1, 63, 73
1, 30768, Note_on_c, 1, 60, 73
1, 30811, Note_on_c, 0, 70, 0
1, 30813, Note_on_c, 1, 65, 0
1, 30813, Note_on_c, 1, 63, 0
1, 30813, Note_on_c, 1, 60, 0
1, 30816, Note_on_c, 1, 65, 73
1, 30816, Note_on_c, 1, 63, 73
1, 30816, Note_on_c, 1, 60, 73
1, 30818, Note_on_c, 0, 69, 79
1, 30829, Note_on_c, 0, 69, 0
1, 30829, Note_on_c, 0, 70, 79
1, 30840, Note_on_c, 0, 70, 0
1, 30840, Note_on_c, 0, 69, 79
1, 30851, Note_on_c, 0, 69, 0
1, 30851, Note_on_c, 0, 70, 79
1, 30861, Note_on_c, 1, 65, 0
1, 30861, Note_on_c, 1, 63, 0
1, 30861, Note_on_c, 1, 60, 0
1, 30862, Note_on_c, 0, 70, 0
1, 30862, Note_on_c, 0, 69, 79
1, 30864, Note_on_c, 1, 65, 74
1, 30864, Note_on_c, 1, 63, 74
1, 30864, Note_on_c, 1, 60, 74
1, 30873, Note_on_c, 0, 69, 0
1, 30873, Note_on_c, 0, 70, 79
1, 30884, Note_on_c, 0, 70, 0
1, 30884, Note_on_c, 0, 69, 79
1, 30894, Note_on_c, 0, 69, 0
1, 30894, Note_on_c, 0, 67, 79
1, 30904, Note_on_c, 0, 67, 0
1, 30904, Note_on_c, 0, 69, 79
1, 30909, Note_on_c, 1, 65, 0
1, 30909, Note_on_c, 1, 63, 0
1, 30909, Note_on_c, 1, 60, 0
1, 30912, Note_on_c, 1, 65, 75
1, 30912, Note_on_c, 1, 62, 75
1, 30912, Note_on_c, 1, 58, 75
1, 30914, Note_on_c, 0, 69, 0
1, 30914, Note_on_c, 0, 70, 81
1, 30937, Note_on_c, 0, 70, 0
1, 30938, Note_on_c, 0, 72, 70
1, 30950, Note_on_c, 0, 72, 0
1, 30950, Note_on_c, 0, 74, 69
1, 30962, Note_on_c, 0, 74, 0
1, 30962, Note_on_c, 0, 75, 68
1, 30974, Note_on_c, 0, 75, 0
1, 30974, Note_on_c, 0, 77, 68
1, 30986, Note_on_c, 0, 77, 0
1, 30986, Note_on_c, 0, 79, 67
1, 30998, Note_on_c, 0, 79, 0
1, 30998, Note_on_c, 0, 81, 66
1, 31001, Note_on_c, 1, 65, 0
1, 31001, Note_on_c, 1, 62, 0
1, 31001, Note_on_c, 1, 58, 0
1, 31010, Tempo, 1764705
1, 31010, Note_on_c, 0, 81, 0
1, 31010, Note_on_c, 0, 82, 66
1, 31022, Note_on_c, 0, 82, 0
1, 31056, Note_on_c, 1, 55, 75
1, 31058, Tempo, 779220
1, 31058, Note_on_c, 0, 63, 75
1, 31081, Note_on_c, 0, 63, 0
1, 31082, Note_on_c, 0, 63, 75
1, 31101, Note_on_c, 1, 55, 0
1, 31104, Note_on_c, 1, 53, 75
1, 31105, Note_on_c, 0, 63, 0
1, 31106, Note_on_c, 0, 63, 75
1, 31112, Note_on_c, 0, 63, 0
1, 31112, Note_on_c, 0, 65, 75
1, 31118, Note_on_c, 0, 65, 0
1, 31118, Note_on_c, 0, 63, 75
1, 31129, Note_on_c, 0, 63, 0
1, 31130, Note_on_c, 0, 62, 75
1, 31149, Note_on_c, 1, 53, 0
1, 31152, Note_on_c, 1, 50, 75
1, 31153, Note_on_c, 0, 62, 0
1, 31154, Note_on_c, 0, 68, 75
1, 31177, Note_on_c, 0, 68, 0
1, 31178, Note_on_c, 0, 68, 75
1, 31197, Note_on_c, 1, 50, 0
1, 31200, Note_on_c, 1, 51, 75
1, 31201, Note_on_c, 0, 68, 0
1, 31202, Note_on_c, 0, 68, 75
1, 31208, Note_on_c, 0, 68, 0
1, 31208, Note_on_c, 0, 70, 75
1, 31214, Note_on_c, 0, 70, 0
1, 31214, Note_on_c, 0, 68, 75
1, 31225, Note_on_c, 0, 68, 0
1, 31226, Note_on_c, 0, 67, 75
1, 31245, Note_on_c, 1, 51, 0
1, 31248, Note_on_c, 1, 56, 75
1, 31249, Note_on_c, 0, 67, 0
1, 31250, Note_on_c, 0, 72, 75
1, 31273, Note_on_c, 0, 72, 0
1, 31274, Note_on_c, 0, 72, 75
1, 31293, Note_on_c, 1, 56, 0
1, 31296, Note_on_c, 1, 55, 75
1, 31297, Note_on_c, 0, 72, 0
1, 31298, Note_on_c, 0, 72, 75
1, 31304, Note_on_c, 0, 72, 0
1, 31304, Note_on_c, 0, 74, 75
1, 31310, Note_on_c, 0, 74, 0
1, 31310, Note_on_c, 0, 72, 75
1, 31321, Note_on_c, 0, 72, 0
1, 31322, Note_on_c, 0, 70, 75
1, 31345, Note_on_c, 0, 70, 0
1, 31346, Note_on_c, 0, 70, 75
1, 31370, Note_on_c, 0, 70, 0
1, 31370, Note_on_c, 0, 80, 75
1, 31385, Note_on_c, 1, 55, 0
1, 31393, Note_on_c, 0, 80, 0
1, 31394, Note_on_c, 0, 80, 75
1, 31440, Note_on_c, 1, 62, 75
1, 31461, Note_on_c, 0, 80, 0
1, 31466, Note_on_c, 0, 79, 75
1, 31478, Note_on_c, 0, 79, 0
1, 31478, Note_on_c, 0, 77, 75
1, 31485, Note_on_c, 1, 62, 0
1, 31488, Note_on_c, 1, 63, 75
1, 31490, Note_on_c, 0, 77, 0
1, 31490, Note_on_c, 0, 79, 75
1, 31505, Note_on_c, 0, 79, 0
1, 31506, Note_on_c, 0, 77, 75
1, 31521, Note_on_c, 0, 77, 0
1, 31522, Note_on_c, 0, 75, 75
1, 31536, Note_on_c, 0, 55, 81
1, 31537, Note_on_c, 0, 75, 0
1, 31538, Note_on_c, 0, 74, 75
1, 31553, Note_on_c, 0, 74, 0
1, 31554, Note_on_c, 0, 72, 75
1, 31569, Note_on_c, 0, 72, 0
1, 31570, Note_on_c, 0, 70, 75
1, 31581, Note_on_c, 0, 55, 0
1, 31584, Note_on_c, 0, 56, 81
1, 31585, Note_on_c, 0, 70, 0
1, 31586, Note_on_c, 0, 79, 75
1, 31596, Note_on_c, 0, 79, 0
1, 31596, Note_on_c, 0, 77, 75
1, 31606, Note_on_c, 0, 77, 0
1, 31606, Note_on_c, 0, 79, 75
1, 31616, Note_on_c, 0, 79, 0
1, 31616, Note_on_c, 0, 77, 75
1, 31621, Note_on_c, 1, 63, 0
1, 31626, Note_on_c, 0, 77, 0
1, 31626, Note_on_c, 0, 79, 76
1, 31629, Note_on_c, 0, 56, 0
1, 31632, Note_on_c, 1, 62, 75
1, 31632, Note_on_c, 0, 58, 81
1, 31636, Note_on_c, 0, 79, 0
1, 31636, Note_on_c, 0, 77, 76
1, 31646, Note_on_c, 0, 77, 0
1, 31646, Note_on_c, 0, 79, 76
1, 31655, Note_on_c, 0, 79, 0
1, 31655, Note_on_c, 0, 77, 76
1, 31664, Note_on_c, 0, 77, 0
1, 31664, Note_on_c, 0, 75, 77
1, 31673, Note_on_c, 0, 75, 0
1, 31673, Note_on_c, 0, 77, 77
1, 31677, Note_on_c, 1, 62, 0
1, 31677, Note_on_c, 0, 58, 0
1, 31680, Note_on_c, 1, 63, 78
1, 31682, Note_on_c, 0, 77, 0
1, 31682, Note_on_c, 0, 75, 77
1, 31725, Note_on_c, 1, 63, 0
1, 31727, Note_on_c, 0, 75, 0
1, 31728, Note_on_c, 1, 55, 81
1, 31730, Note_on_c, 0, 72, 81
1, 31740, Note_on_c, 0, 72, 0
1, 31740, Note_on_c, 0, 70, 81
1, 31750, Note_on_c, 0, 70, 0
1, 31750, Note_on_c, 0, 72, 81
1, 31751, Note_on_c, 1, 55, 0
1, 31752, Note_on_c, 1, 58, 81
1, 31760, Note_on_c, 0, 72, 0
1, 31760, Note_on_c, 0, 70, 81
1, 31770, Note_on_c, 0, 70, 0
1, 31770, Note_on_c, 0, 72, 81
1, 31775, Note_on_c, 1, 58, 0
1, 31776, Note_on_c, 1, 53, 81
1, 31780, Note_on_c, 0, 72, 0
1, 31780, Note_on_c, 0, 70, 81
1, 31790, Note_on_c, 0, 70, 0
1, 31790, Note_on_c, 0, 72, 81
1, 31799, Note_on_c, 0, 72, 0
1, 31799, Note_on_c, 0, 70, 81
1, 31799, Note_on_c, 1, 53, 0
1, 31800, Note_on_c, 1, 56, 81
1, 31808, Note_on_c, 0, 70, 0
1, 31808, Note_on_c, 0, 72, 81
1, 31817, Note_on_c, 0, 72, 0
1, 31817, Note_on_c, 0, 70, 81
1, 31823, Note_on_c, 1, 56, 0
1, 31824, Note_on_c, 1, 51, 81
1, 31826, Note_on_c, 0, 70, 0
1, 31826, Note_on_c, 0, 72, 81
1, 31836, Note_on_c, 0, 72, 0
1, 31836, Note_on_c, 0, 70, 81
1, 31846, Note_on_c, 0, 70, 0
1, 31846, Note_on_c, 0, 72, 81
1, 31847, Note_on_c, 1, 51, 0
1, 31848, Note_on_c, 1, 55, 81
1, 31856, Note_on_c, 0, 72, 0
1, 31856, Note_on_c, 0, 70, 81
1, 31865, Note_on_c, 0, 70, 0
1, 31865, Note_on_c, 0, 72, 81
1, 31871, Note_on_c, 1, 55, 0
1, 31872, Note_on_c, 1, 53, 81
1, 31872, Note_on_c, 1, 50, 81
1, 31874, Note_on_c, 0, 72, 0
1, 31874, Note_on_c, 0, 70, 81
1, 31941, Note_on_c, 0, 70, 0
1, 31946, Note_on_c, 0, 74, 81
1, 31958, Note_on_c, 0, 74, 0
1, 31958, Note_on_c, 0, 75, 81
1, 31961, Note_on_c, 1, 53, 0
1, 31961, Note_on_c, 1, 50, 0
1, 31970, Note_on_c, 0, 75, 0
1, 31970, Note_on_c, 0, 77, 81
1, 31985, Note_on_c, 0, 77, 0
1, 31986, Note_on_c, 0, 75, 81
1, 32001, Note_on_c, 0, 75, 0
1, 32002, Note_on_c, 0, 74, 81
1, 32017, Note_on_c, 0, 74, 0
1, 32018, Note_on_c, 0, 72, 81
1, 32033, Note_on_c, 0, 72, 0
1, 32034, Note_on_c, 0, 70, 81
1, 32049, Note_on_c, 0, 70, 0
1, 32050, Note_on_c, 0, 68, 81
1, 32065, Note_on_c, 0, 68, 0
1, 32066, Note_on_c, 0, 67, 81
1, 32111, Note_on_c, 0, 67, 0
1, 32112, Note_on_c, 1, 55, 81
1, 32114, Note_on_c, 0, 72, 81
1, 32124, Note_on_c, 0, 72, 0
1, 32124, Note_on_c, 0, 70, 81
1, 32134, Note_on_c, 0, 70, 0
1, 32134, Note_on_c, 0, 72, 81
1, 32135, Note_on_c, 1, 55, 0
1, 32136, Note_on_c, 1, 58, 81
1, 32144, Note_on_c, 0, 72, 0
1, 32144, Note_on_c, 0, 70, 81
1, 32154, Note_on_c, 0, 70, 0
1, 32154, Note_on_c, 0, 72, 81
1, 32159, Note_on_c, 1, 58, 0
1, 32160, Note_on_c, 1, 53, 81
1, 32164, Note_on_c, 0, 72, 0
1, 32164, Note_on_c, 0, 70, 81
1, 32174, Note_on_c, 0, 70, 0
1, 32174, Note_on_c, 0, 72, 81
1, 32183, Note_on_c, 0, 72, 0
1, 32183, Note_on_c, 0, 70, 81
1, 32183, Note_on_c, 1, 53, 0
1, 32184, Note_on_c, 1, 56, 81
1, 32192, Note_on_c, 0, 70, 0
1, 32192, Note_on_c, 0, 72, 81
1, 32201, Note_on_c, 0, 72, 0
1, 32201, Note_on_c, 0, 70, 81
1, 32207, Note_on_c, 1, 56, 0
1, 32208, Note_on_c, 1, 51, 81
1, 32210, Note_on_c, 0, 70, 0
1, 32210, Note_on_c, 0, 72, 81
1, 32220, Note_on_c, 0, 72, 0
1, 32220, Note_on_c, 0, 70, 81
1, 32230, Note_on_c, 0, 70, 0
1, 32230, Note_on_c, 0, 72, 81
1, 32231, Note_on_c, 1, 51, 0
1, 32232, Note_on_c, 1, 55, 81
1, 32240, Note_on_c, 0, 72, 0
1, 32240, Note_on_c, 0, 70, 81
1, 32249, Note_on_c, 0, 70, 0
1, 32249, Note_on_c, 0, 72, 81
1, 32255, Note_on_c, 1, 55, 0
1, 32256, Note_on_c, 1, 53, 81
1, 32256, Note_on_c, 1, 50, 81
1, 32258, Note_on_c, 0, 72, 0
1, 32258, Note_on_c, 0, 70, 81
1, 32325, Note_on_c, 0, 70, 0
1, 32330, Note_on_c, 0, 74, 81
1, 32342, Note_on_c, 0, 74, 0
1, 32342, Note_on_c, 0, 75, 80
1, 32345, Note_on_c, 1, 53, 0
1, 32345, Note_on_c, 1, 50, 0
1, 32354, Note_on_c, 0, 75, 0
1, 32354, Note_on_c, 0, 77, 79
1, 32369, Note_on_c, 0, 77, 0
1, 32370, Note_on_c, 0, 75, 79
1, 32385, Note_on_c, 0, 75, 0
1, 32386, Note_on_c, 0, 74, 78
1, 32401, Note_on_c, 0, 74, 0
1, 32402, Note_on_c, 0, 72, 78
1, 32417, Note_on_c, 0, 72, 0
1, 32418, Note_on_c, 0, 70, 77
1, 32433, Note_on_c, 0, 70, 0
1, 32434, Note_on_c, 0, 68, 76
1, 32448, Note_on_c, 1, 51, 75
1, 32448, Note_on_c, 1, 39, 75
1, 32449, Note_on_c, 0, 68, 0
1, 32450, Note_on_c, 0, 67, 75
1, 32495, Note_on_c, 0, 67, 0
1, 32498, Note_on_c, 0, 70, 75
1, 32513, Note_on_c, 0, 70, 0
1, 32514, Note_on_c, 0, 72, 75
1, 32529, Note_on_c, 0, 72, 0
1, 32530, Note_on_c, 0, 70, 75
1, 32537, Note_on_c, 1, 51, 0
1, 32537, Note_on_c, 1, 39, 0
1, 32545, Note_on_c, 0, 70, 0
1, 32546, Note_on_c, 0, 75, 75
1, 32561, Note_on_c, 0, 75, 0
1, 32562, Note_on_c, 0, 74, 75
1, 32577, Note_on_c, 0, 74, 0
1, 32578, Note_on_c, 0, 72, 75
1, 32592, Note_on_c, 1, 55, 75
1, 32592, Note_on_c, 1, 43, 75
1, 32593, Note_on_c, 0, 72, 0
1, 32594, Note_on_c, 0, 70, 75
1, 32609, Note_on_c, 0, 70, 0
1, 32610, Note_on_c, 0, 68, 75
1, 32625, Note_on_c, 0, 68, 0
1, 32626, Note_on_c, 0, 67, 75
1, 32637, Note_on_c, 1, 55, 0
1, 32637, Note_on_c, 1, 43, 0
1, 32640, Note_on_c, 1, 56, 75
1, 32640, Note_on_c, 0, 44, 81
1, 32641, Note_on_c, 0, 67, 0
1, 32642, Note_on_c, 0, 65, 75
1, 32657, Note_on_c, 0, 65, 0
1, 32658, Note_on_c, 0, 71, 75
1, 32674, Note_on_c, 0, 71, 0
1, 32674, Note_on_c, 0, 72, 75
1, 32689, Note_on_c, 0, 72, 0
1, 32690, Note_on_c, 0, 70, 75
1, 32702, Note_on_c, 0, 70, 0
1, 32702, Note_on_c, 0, 68, 75
1, 32714, Note_on_c, 0, 68, 0
1, 32714, Note_on_c, 0, 67, 75
1, 32726, Note_on_c, 0, 67, 0
1, 32726, Note_on_c, 0, 65, 75
1, 32729, Note_on_c, 1, 56, 0
1, 32729, Note_on_c, 0, 44, 0
1, 32736, Note_on_c, 1, 55, 75
1, 32736, Note_on_c, 0, 46, 81
1, 32738, Note_on_c, 0, 65, 0
1, 32738, Note_on_c, 0, 63, 75
1, 32781, Note_on_c, 1, 55, 0
1, 32783, Note_on_c, 0, 63, 0
1, 32784, Note_on_c, 1, 53, 75
1, 32786, Note_on_c, 0, 62, 75
1, 32796, Note_on_c, 0, 62, 0
1, 32796, Note_on_c, 0, 63, 75
1, 32806, Note_on_c, 0, 63, 0
1, 32806, Note_on_c, 0, 62, 75
1, 32816, Note_on_c, 0, 62, 0
1, 32816, Note_on_c, 0, 60, 75
1, 32825, Note_on_c, 0, 60, 0
1, 32825, Note_on_c, 0, 62, 75
1, 32825, Note_on_c, 0, 46, 0
1, 32829, Note_on_c, 1, 53, 0
1, 32832, Note_on_c, 1, 51, 75
1, 32832, Note_on_c, 0, 51, 81
1, 32834, Note_on_c, 0, 62, 0
1, 32834, Note_on_c, 0, 63, 75
1, 32879, Note_on_c, 0, 63, 0
1, 32882, Note_on_c, 0, 70, 70
1, 32882, Note_on_c, 0, 67, 70
1, 32921, Note_on_c, 1, 51, 0
1, 32921, Note_on_c, 0, 51, 0
1, 32927, Note_on_c, 0, 70, 0
1, 32927, Note_on_c, 0, 67, 0
1, 32930, Note_on_c, 0, 70, 70
1, 32930, Note_on_c, 0, 67, 70
1, 32975, Note_on_c, 0, 70, 0
1, 32975, Note_on_c, 0, 67, 0
1, 32978, Note_on_c, 0, 70, 70
1, 32978, Note_on_c, 0, 67, 70
1, 33023, Note_on_c, 0, 70, 0
1, 33023, Note_on_c, 0, 67, 0
1, 33024, Note_on_c, 0, 67, 70
1, 33024, Note_on_c, 1, 51, 75
1, 33024, Note_on_c, 1, 39, 75
1, 33026, Note_on_c, 0, 70, 86
1, 33098, Note_on_c, 0, 70, 0
1, 33098, Note_on_c, 0, 72, 70
1, 33110, Note_on_c, 0, 72, 0
1, 33110, Note_on_c, 0, 74, 70
1, 33113, Note_on_c, 0, 67, 0
1, 33113, Note_on_c, 1, 51, 0
1, 33113, Note_on_c, 1, 39, 0
1, 33122, Note_on_c, 0, 74, 0
1, 33122, Note_on_c, 0, 75, 70
1, 33211, Note_on_c, 0, 75, 0
1, 33218, Note_on_c, 0, 68, 70
1, 33264, Note_on_c, 1, 63, 66
1, 33264, Note_on_c, 1, 60, 66
1, 33311, Note_on_c, 1, 63, 0
1, 33311, Note_on_c, 1, 60, 0
1, 33312, Note_on_c, 1, 63, 66
1, 33312, Note_on_c, 1, 60, 66
1, 33359, Note_on_c, 1, 63, 0
1, 33359, Note_on_c, 1, 60, 0
1, 33360, Note_on_c, 1, 63, 66
1, 33360, Note_on_c, 1, 60, 66
1, 33381, Note_on_c, 0, 68, 0
1, 33386, Note_on_c, 0, 72, 70
1, 33398, Note_on_c, 0, 72, 0
1, 33398, Note_on_c, 0, 68, 70
1, 33407, Note_on_c, 1, 63, 0
1, 33407, Note_on_c, 1, 60, 0
1, 33410, Note_on_c, 0, 68, 0
1, 33410, Note_on_c, 0, 66, 70
1, 33456, Note_on_c, 1, 62, 66
1, 33456, Note_on_c, 1, 58, 66
1, 33458, Note_on_c, 0, 66, 0
1, 33458, Note_on_c, 0, 67, 70
1, 33503, Note_on_c, 0, 67, 0
1, 33503, Note_on_c, 1, 62, 0
1, 33503, Note_on_c, 1, 58, 0
1, 33504, Note_on_c, 1, 62, 66
1, 33504, Note_on_c, 1, 58, 66
1, 33551, Note_on_c, 1, 62, 0
1, 33551, Note_on_c, 1, 58, 0
1, 33552, Note_on_c, 1, 62, 66
1, 33552, Note_on_c, 1, 58, 66
1, 33578, Note_on_c, 0, 82, 70
1, 33590, Note_on_c, 0, 82, 0
1, 33590, Note_on_c, 0, 79, 70
1, 33599, Note_on_c, 1, 62, 0
1, 33599, Note_on_c, 1, 58, 0
1, 33602, Note_on_c, 0, 79, 0
1, 33602, Note_on_c, 0, 76, 70
1, 33648, Note_on_c, 1, 60, 66
1, 33648, Note_on_c, 1, 56, 66
1, 33650, Note_on_c, 0, 76, 0
1, 33650, Note_on_c, 0, 77, 70
1, 33695, Note_on_c, 0, 77, 0
1, 33695, Note_on_c, 1, 60, 0
1, 33695, Note_on_c, 1, 56, 0
1, 33696, Note_on_c, 1, 60, 66
1, 33696, Note_on_c, 1, 56, 66
1, 33743, Note_on_c, 1, 60, 0
1, 33743, Note_on_c, 1, 56, 0
1, 33744, Note_on_c, 1, 60, 66
1, 33744, Note_on_c, 1, 56, 66
1, 33770, Note_on_c, 0, 80, 70
1, 33782, Note_on_c, 0, 80, 0
1, 33782, Note_on_c, 0, 77, 70
1, 33791, Note_on_c, 1, 60, 0
1, 33791, Note_on_c, 1, 56, 0
1, 33794, Note_on_c, 0, 77, 0
1, 33794, Note_on_c, 0, 74, 70
1, 33840, Note_on_c, 1, 58, 66
1, 33840, Note_on_c, 1, 55, 66
1, 33842, Note_on_c, 0, 74, 0
1, 33842, Note_on_c, 0, 75, 70
1, 33885, Note_on_c, 1, 58, 0
1, 33885, Note_on_c, 1, 55, 0
1, 33887, Note_on_c, 0, 75, 0
1, 33890, Note_on_c, 0, 75, 70
1, 33905, Note_on_c, 0, 75, 0
1, 33906, Note_on_c, 0, 79, 70
1, 33921, Note_on_c, 0, 79, 0
1, 33922, Note_on_c, 0, 80, 71
1, 33936, Note_on_c, 1, 63, 75
1, 33936, Note_on_c, 0, 55, 75
1, 33937, Note_on_c, 0, 80, 0
1, 33938, Note_on_c, 0, 82, 71
1, 33953, Note_on_c, 0, 82, 0
1, 33954, Note_on_c, 0, 84, 72
1, 33969, Note_on_c, 0, 84, 0
1, 33970, Note_on_c, 0, 86, 73
1, 33981, Note_on_c, 1, 63, 0
1, 33981, Note_on_c, 0, 55, 0
1, 33984, Note_on_c, 1, 63, 75
1, 33984, Note_on_c, 0, 56, 75
1, 33985, Note_on_c, 0, 86, 0
1, 33986, Note_on_c, 0, 84, 91
1, 34058, Note_on_c, 0, 84, 0
1, 34058, Note_on_c, 0, 82, 75
1, 34070, Note_on_c, 0, 82, 0
1, 34070, Note_on_c, 0, 80, 75
1, 34073, Note_on_c, 1, 63, 0
1, 34073, Note_on_c, 0, 56, 0
1, 34080, Note_on_c, 1, 63, 75
1, 34080, Note_on_c, 0, 58, 75
1, 34082, Note_on_c, 0, 80, 0
1, 34082, Note_on_c, 0, 79, 75
1, 34125, Note_on_c, 1, 63, 0
1, 34127, Note_on_c, 0, 79, 0
1, 34128, Note_on_c, 1, 62, 75
1, 34130, Note_on_c, 0, 77, 75
1, 34140, Note_on_c, 0, 77, 0
1, 34140, Note_on_c, 0, 79, 75
1, 34150, Note_on_c, 0, 79, 0
1, 34150, Note_on_c, 0, 77, 75
1, 34160, Note_on_c, 0, 77, 0
1, 34160, Note_on_c, 0, 75, 75
1, 34169, Note_on_c, 0, 75, 0
1, 34169, Note_on_c, 0, 77, 75
1, 34169, Note_on_c, 0, 58, 0
1, 34173, Note_on_c, 1, 62, 0
1, 34176, Note_on_c, 1, 63, 75
1, 34178, Note_on_c, 0, 77, 0
1, 34178, Note_on_c, 0, 75, 75
1, 34191, Note_on_c, 1, 63, 0
1, 34192, Note_on_c, 1, 67, 75
1, 34201, Note_on_c, 0, 75, 0
1, 34207, Note_on_c, 1, 67, 0
1, 34208, Note_on_c, 1, 70, 75
1, 34223, Note_on_c, 1, 70, 0
1, 34226, Note_on_c, 0, 75, 75
1, 34241, Note_on_c, 0, 75, 0
1, 34242, Note_on_c, 0, 79, 75
1, 34257, Note_on_c, 0, 79, 0
1, 34258, Note_on_c, 0, 82, 75
1, 34273, Note_on_c, 0, 82, 0
1, 34274, Note_on_c, 0, 80, 75
1, 34289, Note_on_c, 0, 80, 0
1, 34290, Note_on_c, 0, 77, 75
1, 34305, Note_on_c, 0, 77, 0
1, 34306, Note_on_c, 0, 74, 75
1, 34320, Note_on_c, 1, 65, 75
1, 34320, Note_on_c, 0, 58, 75
1, 34321, Note_on_c, 0, 74, 0
1, 34322, Note_on_c, 0, 77, 75
1, 34337, Note_on_c, 0, 77, 0
1, 34338, Note_on_c, 0, 74, 75
1, 34353, Note_on_c, 0, 74, 0
1, 34354, Note_on_c, 0, 68, 75
1, 34365, Note_on_c, 1, 65, 0
1, 34365, Note_on_c, 0, 58, 0
1, 34368, Note_on_c, 1, 63, 75
1, 34368, Note_on_c, 0, 63, 75
1, 34369, Note_on_c, 0, 68, 0
1, 34370, Note_on_c, 0, 67, 75
1, 34385, Note_on_c, 0, 67, 0
1, 34386, Note_on_c, 0, 70, 75
1, 34401, Note_on_c, 0, 70, 0
1, 34402, Note_on_c, 0, 75, 75
1, 34413, Note_on_c, 1, 63, 0
1, 34413, Note_on_c, 0, 63, 0
1, 34416, Note_on_c, 1, 68, 75
1, 34416, Note_on_c, 0, 56, 75
1, 34417, Note_on_c, 0, 75, 0
1, 34418, Note_on_c, 0, 72, 75
1, 34433, Note_on_c, 0, 72, 0
1, 34434, Note_on_c, 0, 80, 75
1, 34449, Note_on_c, 0, 80, 0
1, 34450, Note_on_c, 0, 77, 75
1, 34461, Note_on_c, 1, 68, 0
1, 34461, Note_on_c, 0, 56, 0
1, 34464, Note_on_c, 1, 67, 75
1, 34464, Note_on_c, 0, 58, 75
1, 34465, Note_on_c, 0, 77, 0
1, 34466, Note_on_c, 0, 75, 75
1, 34509, Note_on_c, 1, 67, 0
1, 34511, Note_on_c, 0, 75, 0
1, 34512, Note_on_c, 1, 65, 75
1, 34514, Note_on_c, 0, 74, 75
1, 34524, Note_on_c, 0, 74, 0
1, 34524, Note_on_c, 0, 75, 75
1, 34534, Note_on_c, 0, 75, 0
1, 34534, Note_on_c, 0, 74, 75
1, 34544, Note_on_c, 0, 74, 0
1, 34544, Note_on_c, 0, 72, 75
1, 34553, Note_on_c, 0, 72, 0
1, 34553, Note_on_c, 0, 74, 75
1, 34553, Note_on_c, 0, 58, 0
1, 34557, Note_on_c, 1, 65, 0
1, 34560, Note_on_c, 1, 51, 75
1, 34562, Note_on_c, 0, 74, 0
1, 34562, Note_on_c, 0, 75, 75
1, 34575, Note_on_c, 1, 51, 0
1, 34576, Note_on_c, 1, 55, 75
1, 34585, Note_on_c, 0, 75, 0
1, 34591, Note_on_c, 1, 55, 0
1, 34592, Note_on_c, 1, 58, 75
1, 34607, Note_on_c, 1, 58, 0
1, 34610, Note_on_c, 0, 63, 75
1, 34625, Note_on_c, 0, 63, 0
1, 34626, Note_on_c, 0, 67, 75
1, 34641, Note_on_c, 0, 67, 0
1, 34642, Note_on_c, 0, 70, 75
1, 34657, Note_on_c, 0, 70, 0
1, 34658, Note_on_c, 0, 68, 75
1, 34673, Note_on_c, 0, 68, 0
1, 34674, Note_on_c, 0, 65, 75
1, 34689, Note_on_c, 0, 65, 0
1, 34690, Note_on_c, 0, 62, 75
1, 34704, Note_on_c, 1, 53, 75
1, 34704, Note_on_c, 0, 46, 75
1, 34705, Note_on_c, 0, 62, 0
1, 34706, Note_on_c, 0, 65, 75
1, 34721, Note_on_c, 0, 65, 0
1, 34722, Note_on_c, 0, 62, 75
1, 34737, Note_on_c, 0, 62, 0
1, 34738, Note_on_c, 0, 56, 75
1, 34749, Note_on_c, 1, 53, 0
1, 34749, Note_on_c, 0, 46, 0
1, 34752, Note_on_c, 1, 51, 75
1, 34752, Note_on_c, 0, 51, 75
1, 34753, Note_on_c, 0, 56, 0
1, 34754, Note_on_c, 0, 55, 75
1, 34769, Note_on_c, 0, 55, 0
1, 34770, Note_on_c, 0, 58, 75
1, 34785, Note_on_c, 0, 58, 0
1, 34786, Note_on_c, 0, 63, 75
1, 34797, Note_on_c, 1, 51, 0
1, 34797, Note_on_c, 0, 51, 0
1, 34800, Note_on_c, 1, 56, 75
1, 34800, Note_on_c, 0, 44, 75
1, 34801, Note_on_c, 0, 63, 0
1, 34802, Note_on_c, 0, 60, 75
1, 34817, Note_on_c, 0, 60, 0
1, 34818, Note_on_c, 0, 68, 75
1, 34833, Note_on_c, 0, 68, 0
1, 34834, Note_on_c, 0, 65, 75
1, 34845, Note_on_c, 1, 56, 0
1, 34845, Note_on_c, 0, 44, 0
1, 34848, Note_on_c, 1, 55, 75
1, 34848, Note_on_c, 0, 46, 75
1, 34849, Note_on_c, 0, 65, 0
1, 34850, Note_on_c, 0, 63, 75
1, 34893, Note_on_c, 1, 55, 0
1, 34895, Note_on_c, 0, 63, 0
1, 34896, Note_on_c, 1, 53, 75
1, 34898, Note_on_c, 0, 62, 75
1, 34908, Note_on_c, 0, 62, 0
1, 34908, Note_on_c, 0, 63, 75
1, 34918, Note_on_c, 0, 63, 0
1, 34918, Note_on_c, 0, 62, 75
1, 34928, Note_on_c, 0, 62, 0
1, 34928, Note_on_c, 0, 60, 75
1, 34937, Note_on_c, 0, 60, 0
1, 34937, Note_on_c, 0, 62, 75
1, 34937, Note_on_c, 0, 46, 0
1, 34941, Note_on_c, 1, 53, 0
1, 34944, Note_on_c, 1, 51, 75
1, 34946, Note_on_c, 0, 62, 0
1, 34946, Note_on_c, 0, 63, 75
1, 35033, Note_on_c, 1, 51, 0
1, 35035, Note_on_c, 0, 63, 0
1, 35040, Note_on_c, 1, 53, 66
1, 35040, Note_on_c, 1, 46, 66
1, 35042, Note_on_c, 0, 58, 70
1, 35060, Note_on_c, 0, 58, 0
1, 35060, Note_on_c, 0, 68, 70
1, 35109, Note_on_c, 0, 68, 0
1, 35114, Note_on_c, 0, 65, 70
1, 35126, Note_on_c, 0, 65, 0
1, 35126, Note_on_c, 0, 62, 70
1, 35129, Note_on_c, 1, 53, 0
1, 35129, Note_on_c, 1, 46, 0
1, 35136, Note_on_c, 1, 55, 66
1, 35136, Note_on_c, 1, 51, 66
1, 35138, Note_on_c, 0, 62, 0
1, 35138, Note_on_c, 0, 63, 70
1, 35225, Note_on_c, 1, 55, 0
1, 35225, Note_on_c, 1, 51, 0
1, 35227, Note_on_c, 0, 63, 0
1, 35330, Note_on_c, 0, 58, 75
1, 35376, Note_on_c, 1, 53, 70
1, 35376, Note_on_c, 1, 50, 70
1, 35376, Note_on_c, 1, 46, 70
1, 35419, Note_on_c, 0, 58, 0
1, 35423, Note_on_c, 1, 53, 0
1, 35423, Note_on_c, 1, 50, 0
1, 35423, Note_on_c, 1, 46, 0
1, 35424, Note_on_c, 1, 53, 70
1, 35424, Note_on_c, 1, 50, 70
1, 35424, Note_on_c, 1, 46, 70
1, 35426, Note_on_c, 0, 58, 75
1, 35460, Note_on_c, 0, 58, 0
1, 35462, Note_on_c, 0, 60, 75
1, 35471, Note_on_c, 1, 53, 0
1, 35471, Note_on_c, 1, 50, 0
1, 35471, Note_on_c, 1, 46, 0
1, 35472, Note_on_c, 1, 53, 70
1, 35472, Note_on_c, 1, 50, 70
1, 35472, Note_on_c, 1, 46, 70
1, 35474, Note_on_c, 0, 60, 0
1, 35474, Note_on_c, 0, 62, 75
1, 35508, Note_on_c, 0, 62, 0
1, 35510, Note_on_c, 0, 63, 75
1, 35519, Note_on_c, 1, 53, 0
1, 35519, Note_on_c, 1, 50, 0
1, 35519, Note_on_c, 1, 46, 0
1, 35522, Note_on_c, 0, 63, 0
1, 35522, Note_on_c, 0, 65, 75
1, 35568, Note_on_c, 1, 53, 70
1, 35568, Note_on_c, 1, 50, 70
1, 35568, Note_on_c, 1, 46, 70
1, 35615, Note_on_c, 1, 53, 0
1, 35615, Note_on_c, 1, 50, 0
1, 35615, Note_on_c, 1, 46, 0
1, 35616, Note_on_c, 1, 53, 70
1, 35616, Note_on_c, 1, 50, 70
1, 35616, Note_on_c, 1, 46, 70
1, 35641, Note_on_c, 0, 65, 0
1, 35642, Note_on_c, 0, 67, 77
1, 35654, Note_on_c, 0, 67, 0
1, 35654, Note_on_c, 0, 69, 77
1, 35663, Note_on_c, 1, 53, 0
1, 35663, Note_on_c, 1, 50, 0
1, 35663, Note_on_c, 1, 46, 0
1, 35664, Note_on_c, 1, 53, 70
1, 35664, Note_on_c, 1, 50, 70
1, 35664, Note_on_c, 1, 46, 70
1, 35666, Note_on_c, 0, 69, 0
1, 35666, Note_on_c, 0, 70, 78
1, 35678, Note_on_c, 0, 70, 0
1, 35678, Note_on_c, 0, 72, 78
1, 35690, Note_on_c, 0, 72, 0
1, 35690, Note_on_c, 0, 74, 78
1, 35702, Note_on_c, 0, 74, 0
1, 35702, Note_on_c, 0, 75, 78
1, 35711, Note_on_c, 1, 53, 0
1, 35711, Note_on_c, 1, 50, 0
1, 35711, Note_on_c, 1, 46, 0
1, 35714, Note_on_c, 0, 75, 0
1, 35714, Note_on_c, 0, 77, 95
1, 35760, Note_on_c, 1, 53, 70
1, 35760, Note_on_c, 1, 50, 70
1, 35760, Note_on_c, 1, 46, 70
1, 35807, Note_on_c, 1, 53, 0
1, 35807, Note_on_c, 1, 50, 0
1, 35807, Note_on_c, 1, 46, 0
1, 35808, Note_on_c, 1, 53, 70
1, 35808, Note_on_c, 1, 50, 70
1, 35808, Note_on_c, 1, 46, 70
1, 35810, Note_on_c, 0, 77, 0
1, 35810, Note_on_c, 0, 75, 75
1, 35833, Note_on_c, 0, 75, 0
1, 35834, Note_on_c, 0, 74, 75
1, 35855, Note_on_c, 1, 53, 0
1, 35855, Note_on_c, 1, 50, 0
1, 35855, Note_on_c, 1, 46, 0
1, 35856, Note_on_c, 1, 53, 70
1, 35856, Note_on_c, 1, 50, 70
1, 35856, Note_on_c, 1, 46, 70
1, 35857, Note_on_c, 0, 74, 0
1, 35858, Note_on_c, 0, 72, 75
1, 35881, Note_on_c, 0, 72, 0
1, 35882, Note_on_c, 0, 70, 75
1, 35903, Note_on_c, 1, 53, 0
1, 35903, Note_on_c, 1, 50, 0
1, 35903, Note_on_c, 1, 46, 0
1, 35904, Note_on_c, 1, 51, 70
1, 35904, Note_on_c, 1, 46, 70
1, 35905, Note_on_c, 0, 70, 0
1, 35906, Note_on_c, 0, 75, 75
1, 35921, Note_on_c, 0, 75, 0
1, 35922, Note_on_c, 0, 77, 81
1, 35937, Note_on_c, 0, 77, 0
1, 35938, Note_on_c, 0, 79, 80
1, 35951, Note_on_c, 1, 51, 0
1, 35951, Note_on_c, 1, 46, 0
1, 35952, Note_on_c, 1, 50, 70
1, 35952, Note_on_c, 1, 46, 70
1, 35953, Note_on_c, 0, 79, 0
1, 35954, Note_on_c, 0, 77, 79
1, 35999, Note_on_c, 0, 77, 0
1, 35999, Note_on_c, 1, 50, 0
1, 35999, Note_on_c, 1, 46, 0
1, 36002, Note_on_c, 0, 82, 75
1, 36017, Note_on_c, 0, 82, 0
1, 36018, Note_on_c, 0, 81, 75
1, 36033, Note_on_c, 0, 81, 0
1, 36034, Note_on_c, 0, 79, 75
1, 36048, Note_on_c, 1, 62, 75
1, 36049, Note_on_c, 0, 79, 0
1, 36050, Note_on_c, 0, 77, 75
1, 36060, Note_on_c, 0, 77, 0
1, 36074, Note_on_c, 0, 77, 75
1, 36093, Note_on_c, 1, 62, 0
1, 36096, Note_on_c, 1, 60, 75
1, 36096, Note_on_c, 1, 53, 75
1, 36097, Note_on_c, 0, 77, 0
1, 36098, Note_on_c, 0, 75, 75
1, 36108, Note_on_c, 0, 75, 0
1, 36108, Note_on_c, 0, 77, 75
1, 36118, Note_on_c, 0, 77, 0
1, 36118, Note_on_c, 0, 75, 75
1, 36128, Note_on_c, 0, 75, 0
1, 36128, Note_on_c, 0, 74, 75
1, 36137, Note_on_c, 0, 74, 0
1, 36137, Note_on_c, 0, 75, 75
1, 36141, Note_on_c, 1, 60, 0
1, 36141, Note_on_c, 1, 53, 0
1, 36144, Note_on_c, 1, 58, 75
1, 36146, Note_on_c, 0, 75, 0
1, 36146, Note_on_c, 0, 74, 75
1, 36189, Note_on_c, 1, 58, 0
1, 36191, Note_on_c, 0, 74, 0
1, 36194, Note_on_c, 0, 82, 75
1, 36209, Note_on_c, 0, 82, 0
1, 36210, Note_on_c, 0, 81, 75
1, 36225, Note_on_c, 0, 81, 0
1, 36226, Note_on_c, 0, 79, 75
1, 36240, Note_on_c, 1, 62, 75
1, 36241, Note_on_c, 0, 79, 0
1, 36242, Note_on_c, 0, 77, 75
1, 36252, Note_on_c, 0, 77, 0
1, 36266, Note_on_c, 0, 77, 75
1, 36285, Note_on_c, 1, 62, 0
1, 36288, Note_on_c, 1, 60, 75
1, 36288, Note_on_c, 1, 53, 75
1, 36289, Note_on_c, 0, 77, 0
1, 36290, Note_on_c, 0, 75, 75
1, 36300, Note_on_c, 0, 75, 0
1, 36300, Note_on_c, 0, 77, 75
1, 36310, Note_on_c, 0, 77, 0
1, 36310, Note_on_c, 0, 75, 75
1, 36320, Note_on_c, 0, 75, 0
1, 36320, Note_on_c, 0, 74, 75
1, 36329, Note_on_c, 0, 74, 0
1, 36329, Note_on_c, 0, 75, 75
1, 36333, Note_on_c, 1, 60, 0
1, 36333, Note_on_c, 1, 53, 0
1, 36336, Note_on_c, 1, 58, 75
1, 36338, Note_on_c, 0, 75, 0
1, 36338, Note_on_c, 0, 74, 75
1, 36381, Note_on_c, 1, 58, 0
1, 36383, Note_on_c, 0, 74, 0
1, 36386, Note_on_c, 0, 77, 75
1, 36401, Note_on_c, 0, 77, 0
1, 36402, Note_on_c, 0, 75, 75
1, 36417, Note_on_c, 0, 75, 0
1, 36418, Note_on_c, 0, 74, 75
1, 36432, Note_on_c, 1, 50, 75
1, 36433, Note_on_c, 0, 74, 0
1, 36434, Note_on_c, 0, 72, 75
1, 36449, Note_on_c, 0, 72, 0
1, 36450, Note_on_c, 0, 70, 75
1, 36465, Note_on_c, 0, 70, 0
1, 36466, Note_on_c, 0, 68, 75
1, 36477, Note_on_c, 1, 50, 0
1, 36480, Note_on_c, 1, 51, 75
1, 36481, Note_on_c, 0, 68, 0
1, 36482, Note_on_c, 0, 67, 75
1, 36492, Note_on_c, 0, 67, 0
1, 36506, Note_on_c, 0, 71, 75
1, 36525, Note_on_c, 1, 51, 0
1, 36528, Note_on_c, 1, 39, 75
1, 36529, Note_on_c, 0, 71, 0
1, 36530, Note_on_c, 0, 72, 75
1, 36553, Note_on_c, 0, 72, 0
1, 36554, Note_on_c, 0, 71, 75
1, 36573, Note_on_c, 1, 39, 0
1, 36576, Note_on_c, 0, 51, 81
1, 36577, Note_on_c, 0, 71, 0
1, 36578, Note_on_c, 0, 72, 75
1, 36588, Note_on_c, 0, 72, 0
1, 36588, Note_on_c, 0, 74, 75
1, 36598, Note_on_c, 0, 74, 0
1, 36598, Note_on_c, 0, 72, 75
1, 36600, Note_on_c, 1, 55, 70
1, 36608, Note_on_c, 0, 72, 0
1, 36608, Note_on_c, 0, 74, 75
1, 36618, Note_on_c, 0, 74, 0
1, 36618, Note_on_c, 0, 72, 75
1, 36623, Note_on_c, 1, 55, 0
1, 36624, Note_on_c, 1, 60, 70
1, 36628, Note_on_c, 0, 72, 0
1, 36628, Note_on_c, 0, 74, 75
1, 36638, Note_on_c, 0, 74, 0
1, 36638, Note_on_c, 0, 72, 75
1, 36647, Note_on_c, 0, 72, 0
1, 36647, Note_on_c, 0, 74, 75
1, 36647, Note_on_c, 1, 60, 0
1, 36648, Note_on_c, 1, 59, 70
1, 36656, Note_on_c, 0, 74, 0
1, 36656, Note_on_c, 0, 72, 75
1, 36665, Note_on_c, 0, 51, 0
1, 36671, Note_on_c, 1, 59, 0
1, 36672, Note_on_c, 1, 60, 70
1, 36672, Note_on_c, 0, 51, 81
1, 36698, Note_on_c, 0, 72, 0
1, 36699, Note_on_c, 0, 74, 75
1, 36722, Note_on_c, 0, 74, 0
1, 36723, Note_on_c, 0, 75, 75
1, 36746, Note_on_c, 0, 75, 0
1, 36747, Note_on_c, 0, 77, 75
1, 36761, Note_on_c, 1, 60, 0
1, 36761, Note_on_c, 0, 51, 0
1, 36770, Note_on_c, 0, 77, 0
1, 36771, Note_on_c, 0, 79, 75
1, 36786, Note_on_c, 0, 79, 0
1, 36787, Note_on_c, 0, 77, 75
1, 36802, Note_on_c, 0, 77, 0
1, 36803, Note_on_c, 0, 75, 75
1, 36816, Note_on_c, 0, 52, 81
1, 36818, Note_on_c, 0, 75, 0
1, 36819, Note_on_c, 0, 74, 75
1, 36834, Note_on_c, 0, 74, 0
1, 36835, Note_on_c, 0, 72, 75
1, 36850, Note_on_c, 0, 72, 0
1, 36851, Note_on_c, 0, 70, 75
1, 36861, Note_on_c, 0, 52, 0
1, 36864, Note_on_c, 1, 53, 70
1, 36866, Note_on_c, 0, 70, 0
1, 36867, Note_on_c, 0, 69, 75
1, 36877, Note_on_c, 0, 69, 0
1, 36891, Note_on_c, 0, 73, 70
1, 36909, Note_on_c, 1, 53, 0
1, 36912, Note_on_c, 1, 41, 70
1, 36914, Note_on_c, 0, 73, 0
1, 36915, Note_on_c, 0, 74, 70
1, 36938, Note_on_c, 0, 74, 0
1, 36939, Note_on_c, 0, 73, 70
1, 36957, Note_on_c, 1, 41, 0
1, 36960, Note_on_c, 0, 53, 70
1, 36962, Note_on_c, 0, 73, 0
1, 36963, Note_on_c, 0, 74, 71
1, 36973, Note_on_c, 0, 74, 0
1, 36973, Note_on_c, 0, 75, 71
1, 36983, Note_on_c, 0, 75, 0
1, 36983, Note_on_c, 0, 74, 71
1, 36984, Note_on_c, 1, 57, 71
1, 36993, Note_on_c, 0, 74, 0
1, 36993, Note_on_c, 0, 75, 71
1, 37003, Note_on_c, 0, 75, 0
1, 37003, Note_on_c, 0, 74, 71
1, 37007, Note_on_c, 1, 57, 0
1, 37008, Note_on_c, 1, 62, 71
1, 37013, Note_on_c, 0, 74, 0
1, 37013, Note_on_c, 0, 75, 71
1, 37023, Note_on_c, 0, 75, 0
1, 37023, Note_on_c, 0, 74, 71
1, 37031, Note_on_c, 1, 62, 0
1, 37032, Note_on_c, 0, 74, 0
1, 37032, Note_on_c, 0, 75, 71
1, 37032, Note_on_c, 1, 61, 71
1, 37041, Note_on_c, 0, 75, 0
1, 37041, Note_on_c, 0, 74, 71
1, 37049, Note_on_c, 0, 53, 0
1, 37055, Note_on_c, 1, 61, 0
1, 37056, Note_on_c, 1, 62, 72
1, 37056, Note_on_c, 0, 53, 71
1, 37083, Note_on_c, 0, 74, 0
1, 37084, Note_on_c, 0, 76, 72
1, 37107, Note_on_c, 0, 76, 0
1, 37108, Note_on_c, 0, 77, 72
1, 37131, Note_on_c, 0, 77, 0
1, 37132, Note_on_c, 0, 79, 73
1, 37145, Note_on_c, 1, 62, 0
1, 37145, Note_on_c, 0, 53, 0
1, 37155, Note_on_c, 0, 79, 0
1, 37156, Note_on_c, 0, 81, 73
1, 37171, Note_on_c, 0, 81, 0
1, 37172, Note_on_c, 0, 79, 73
1, 37187, Note_on_c, 0, 79, 0
1, 37188, Note_on_c, 0, 77, 73
1, 37200, Note_on_c, 0, 54, 73
1, 37203, Note_on_c, 0, 77, 0
1, 37204, Note_on_c, 0, 75, 73
1, 37219, Note_on_c, 0, 75, 0
1, 37220, Note_on_c, 0, 74, 74
1, 37235, Note_on_c, 0, 74, 0
1, 37236, Note_on_c, 0, 72, 74
1, 37245, Note_on_c, 0, 54, 0
1, 37248, Note_on_c, 1, 55, 74
1, 37251, Note_on_c, 0, 72, 0
1, 37252, Note_on_c, 0, 70, 74
1, 37262, Note_on_c, 0, 70, 0
1, 37276, Note_on_c, 0, 74, 74
1, 37293, Note_on_c, 1, 55, 0
1, 37296, Note_on_c, 1, 43, 75
1, 37299, Note_on_c, 0, 74, 0
1, 37300, Note_on_c, 0, 75, 75
1, 37323, Note_on_c, 0, 75, 0
1, 37324, Note_on_c, 0, 74, 75
1, 37341, Note_on_c, 1, 43, 0
1, 37344, Note_on_c, 0, 55, 75
1, 37347, Note_on_c, 0, 74, 0
1, 37348, Note_on_c, 0, 77, 75
1, 37368, Note_on_c, 1, 58, 76
1, 37388, Note_on_c, 0, 77, 0
1, 37388, Note_on_c, 0, 75, 76
1, 37391, Note_on_c, 1, 58, 0
1, 37392, Note_on_c, 1, 63, 76
1, 37398, Note_on_c, 0, 75, 0
1, 37398, Note_on_c, 0, 77, 76
1, 37408, Note_on_c, 0, 77, 0
1, 37408, Note_on_c, 0, 75, 76
1, 37415, Note_on_c, 1, 63, 0
1, 37416, Note_on_c, 1, 62, 77
1, 37417, Note_on_c, 0, 75, 0
1, 37417, Note_on_c, 0, 77, 76
1, 37426, Note_on_c, 0, 77, 0
1, 37426, Note_on_c, 0, 75, 76
1, 37433, Note_on_c, 0, 55, 0
1, 37435, Note_on_c, 0, 75, 0
1, 37435, Note_on_c, 0, 77, 76
1, 37439, Note_on_c, 1, 62, 0
1, 37440, Note_on_c, 1, 63, 77
1, 37440, Note_on_c, 0, 55, 76
1, 37444, Note_on_c, 0, 77, 0
1, 37444, Note_on_c, 0, 75, 76
1, 37467, Note_on_c, 0, 75, 0
1, 37468, Note_on_c, 0, 77, 76
1, 37491, Note_on_c, 0, 77, 0
1, 37492, Note_on_c, 0, 79, 77
1, 37515, Note_on_c, 0, 79, 0
1, 37516, Note_on_c, 0, 81, 77
1, 37529, Note_on_c, 1, 63, 0
1, 37529, Note_on_c, 0, 55, 0
1, 37539, Note_on_c, 0, 81, 0
1, 37540, Note_on_c, 0, 82, 77
1, 37555, Note_on_c, 0, 82, 0
1, 37556, Note_on_c, 0, 81, 78
1, 37571, Note_on_c, 0, 81, 0
1, 37572, Note_on_c, 0, 79, 78
1, 37584, Note_on_c, 0, 55, 78
1, 37587, Note_on_c, 0, 79, 0
1, 37588, Note_on_c, 0, 77, 78
1, 37603, Note_on_c, 0, 77, 0
1, 37604, Note_on_c, 0, 75, 78
1, 37619, Note_on_c, 0, 75, 0
1, 37620, Note_on_c, 0, 74, 78
1, 37629, Note_on_c, 0, 55, 0
1, 37632, Note_on_c, 1, 57, 80
1, 37635, Note_on_c, 0, 74, 0
1, 37636, Note_on_c, 0, 72, 79
1, 37646, Note_on_c, 0, 72, 0
1, 37660, Note_on_c, 0, 76, 81
1, 37677, Note_on_c, 1, 57, 0
1, 37680, Note_on_c, 1, 45, 81
1, 37683, Note_on_c, 0, 76, 0
1, 37684, Note_on_c, 0, 77, 81
1, 37707, Note_on_c, 0, 77, 0
1, 37708, Note_on_c, 0, 76, 81
1, 37725, Note_on_c, 1, 45, 0
1, 37728, Note_on_c, 0, 57, 81
1, 37731, Note_on_c, 0, 76, 0
1, 37732, Note_on_c, 0, 79, 81
1, 37752, Note_on_c, 1, 55, 81
1, 37772, Note_on_c, 0, 79, 0
1, 37772, Note_on_c, 0, 77, 81
1, 37775, Note_on_c, 1, 55, 0
1, 37776, Note_on_c, 1, 65, 81
1, 37782, Note_on_c, 0, 77, 0
1, 37782, Note_on_c, 0, 79, 81
1, 37792, Note_on_c, 0, 79, 0
1, 37792, Note_on_c, 0, 77, 81
1, 37799, Note_on_c, 1, 65, 0
1, 37800, Note_on_c, 1, 64, 81
1, 37801, Note_on_c, 0, 77, 0
1, 37801, Note_on_c, 0, 79, 81
1, 37810, Note_on_c, 0, 79, 0
1, 37810, Note_on_c, 0, 77, 81
1, 37817, Note_on_c, 0, 57, 0
1, 37819, Note_on_c, 0, 77, 0
1, 37819, Note_on_c, 0, 79, 81
1, 37823, Note_on_c, 1, 64, 0
1, 37824, Note_on_c, 1, 65, 81
1, 37824, Note_on_c, 0, 57, 81
1, 37828, Note_on_c, 0, 79, 0
1, 37828, Note_on_c, 0, 77, 81
1, 37851, Note_on_c, 0, 77, 0
1, 37852, Note_on_c, 0, 79, 81
1, 37875, Note_on_c, 0, 79, 0
1, 37876, Note_on_c, 0, 81, 81
1, 37899, Note_on_c, 0, 81, 0
1, 37900, Note_on_c, 0, 82, 81
1, 37913, Note_on_c, 1, 65, 0
1, 37913, Note_on_c, 0, 57, 0
1, 37923, Note_on_c, 0, 82, 0
1, 37924, Note_on_c, 0, 84, 81
1, 37939, Note_on_c, 0, 84, 0
1, 37940, Note_on_c, 0, 82, 81
1, 37955, Note_on_c, 0, 82, 0
1, 37956, Note_on_c, 0, 81, 81
1, 37968, Note_on_c, 0, 57, 81
1, 37971, Note_on_c, 0, 81, 0
1, 37972, Note_on_c, 0, 79, 81
1, 37987, Note_on_c, 0, 79, 0
1, 37988, Note_on_c, 0, 77, 81
1, 38003, Note_on_c, 0, 77, 0
1, 38004, Note_on_c, 0, 75, 81
1, 38013, Note_on_c, 0, 57, 0
1, 38016, Note_on_c, 1, 58, 66
1, 38019, Note_on_c, 0, 75, 0
1, 38020, Note_on_c, 0, 74, 70
1, 38039, Note_on_c, 1, 58, 0
1, 38040, Note_on_c, 1, 62, 66
1, 38063, Note_on_c, 1, 62, 0
1, 38064, Note_on_c, 1, 58, 66
1, 38065, Note_on_c, 0, 74, 0
1, 38068, Note_on_c, 0, 79, 86
1, 38087, Note_on_c, 1, 58, 0
1, 38088, Note_on_c, 1, 62, 66
1, 38111, Note_on_c, 1, 62, 0
1, 38112, Note_on_c, 1, 58, 66
1, 38135, Note_on_c, 1, 58, 0
1, 38136, Note_on_c, 1, 62, 66
1, 38150, Note_on_c, 0, 79, 0
1, 38152, Note_on_c, 0, 82, 70
1, 38159, Note_on_c, 1, 62, 0
1, 38160, Note_on_c, 1, 58, 66
1, 38164, Note_on_c, 0, 82, 0
1, 38164, Note_on_c, 0, 81, 70
1, 38183, Note_on_c, 1, 58, 0
1, 38184, Note_on_c, 1, 62, 66
1, 38198, Note_on_c, 0, 81, 0
1, 38200, Note_on_c, 0, 79, 70
1, 38207, Note_on_c, 1, 62, 0
1, 38208, Note_on_c, 1, 57, 66
1, 38212, Note_on_c, 0, 79, 0
1, 38212, Note_on_c, 0, 79, 70
1, 38231, Note_on_c, 1, 57, 0
1, 38232, Note_on_c, 1, 60, 66
1, 38255, Note_on_c, 1, 60, 0
1, 38256, Note_on_c, 1, 57, 66
1, 38279, Note_on_c, 1, 57, 0
1, 38280, Note_on_c, 1, 60, 66
1, 38303, Note_on_c, 1, 60, 0
1, 38304, Note_on_c, 1, 57, 66
1, 38308, Note_on_c, 0, 79, 0
1, 38308, Note_on_c, 0, 78, 70
1, 38327, Note_on_c, 1, 57, 0
1, 38328, Note_on_c, 1, 60, 66
1, 38351, Note_on_c, 1, 60, 0
1, 38352, Note_on_c, 1, 57, 66
1, 38353, Note_on_c, 0, 78, 0
1, 38375, Note_on_c, 1, 57, 0
1, 38376, Note_on_c, 1, 60, 66
1, 38399, Note_on_c, 1, 60, 0
1, 38400, Note_on_c, 1, 54, 66
1, 38400, Note_on_c, 1, 57, 66
1, 38400, Note_on_c, 1, 60, 66
1, 38404, Note_on_c, 0, 69, 70
1, 38419, Note_on_c, 0, 69, 0
1, 38420, Note_on_c, 0, 72, 70
1, 38435, Note_on_c, 0, 72, 0
1, 38436, Note_on_c, 0, 75, 71
1, 38451, Note_on_c, 0, 75, 0
1, 38452, Note_on_c, 0, 78, 71
1, 38467, Note_on_c, 0, 78, 0
1, 38468, Note_on_c, 0, 81, 72
1, 38483, Note_on_c, 0, 81, 0
1, 38484, Note_on_c, 0, 84, 73
1, 38489, Note_on_c, 1, 60, 0
1, 38489, Note_on_c, 1, 57, 0
1, 38489, Note_on_c, 1, 54, 0
1, 38499, Note_on_c, 0, 84, 0
1, 38500, Note_on_c, 0, 82, 73
1, 38515, Note_on_c, 0, 82, 0
1, 38516, Note_on_c, 0, 81, 74
1, 38531, Note_on_c, 0, 81, 0
1, 38532, Note_on_c, 0, 79, 75
1, 38547, Note_on_c, 0, 79, 0
1, 38548, Note_on_c, 0, 78, 74
1, 38563, Note_on_c, 0, 78, 0
1, 38564, Note_on_c, 0, 75, 73
1, 38579, Note_on_c, 0, 75, 0
1, 38580, Note_on_c, 0, 74, 73
1, 38595, Note_on_c, 0, 74, 0
1, 38596, Note_on_c, 0, 72, 70
1, 38616, Note_on_c, 1, 55, 68
1, 38639, Note_on_c, 1, 55, 0
1, 38640, Note_on_c, 1, 58, 70
1, 38663, Note_on_c, 1, 58, 0
1, 38664, Note_on_c, 1, 62, 72
1, 38687, Note_on_c, 1, 62, 0
1, 38688, Note_on_c, 1, 67, 75
1, 38692, Note_on_c, 0, 72, 0
1, 38692, Note_on_c, 0, 70, 70
1, 38711, Note_on_c, 1, 67, 0
1, 38712, Note_on_c, 1, 62, 72
1, 38735, Note_on_c, 1, 62, 0
1, 38736, Note_on_c, 1, 58, 70
1, 38759, Note_on_c, 1, 58, 0
1, 38760, Note_on_c, 1, 55, 68
1, 38781, Note_on_c, 0, 70, 0
1, 38783, Note_on_c, 1, 55, 0
1, 38784, Note_on_c, 1, 63, 66
1, 38784, Note_on_c, 1, 60, 66
1, 38788, Note_on_c, 0, 69, 70
1, 38803, Note_on_c, 0, 69, 0
1, 38804, Note_on_c, 0, 72, 70
1, 38819, Note_on_c, 0, 72, 0
1, 38820, Note_on_c, 0, 75, 70
1, 38835, Note_on_c, 0, 75, 0
1, 38836, Note_on_c, 0, 74, 70
1, 38851, Note_on_c, 0, 74, 0
1, 38852, Note_on_c, 0, 72, 70
1, 38867, Note_on_c, 0, 72, 0
1, 38868, Note_on_c, 0, 70, 70
1, 38873, Note_on_c, 1, 63, 0
1, 38873, Note_on_c, 1, 60, 0
1, 38883, Note_on_c, 0, 70, 0
1, 38884, Note_on_c, 0, 69, 70
1, 38899, Note_on_c, 0, 69, 0
1, 38900, Note_on_c, 0, 75, 70
1, 38915, Note_on_c, 0, 75, 0
1, 38916, Note_on_c, 0, 74, 70
1, 38928, Note_on_c, 1, 60, 66
1, 38931, Note_on_c, 0, 74, 0
1, 38932, Note_on_c, 0, 72, 70
1, 38947, Note_on_c, 0, 72, 0
1, 38948, Note_on_c, 0, 70, 70
1, 38963, Note_on_c, 0, 70, 0
1, 38964, Note_on_c, 0, 69, 70
1, 38973, Note_on_c, 1, 60, 0
1, 38976, Note_on_c, 1, 62, 66
1, 38979, Note_on_c, 0, 69, 0
1, 38980, Note_on_c, 0, 67, 70
1, 39021, Note_on_c, 1, 62, 0
1, 39024, Note_on_c, 1, 50, 66
1, 39028, Note_on_c, 0, 67, 0
1, 39028, Note_on_c, 0, 66, 70
1, 39069, Note_on_c, 1, 50, 0
1, 39072, Note_on_c, 1, 62, 66
1, 39073, Note_on_c, 0, 66, 0
1, 39095, Note_on_c, 1, 62, 0
1, 39096, Note_on_c, 1, 66, 66
1, 39119, Note_on_c, 1, 66, 0
1, 39120, Note_on_c, 1, 62, 66
1, 39124, Note_on_c, 0, 74, 70
1, 39134, Note_on_c, 0, 74, 0
1, 39143, Note_on_c, 1, 62, 0
1, 39144, Note_on_c, 1, 66, 66
1, 39148, Note_on_c, 0, 74, 70
1, 39167, Note_on_c, 1, 66, 0
1, 39168, Note_on_c, 1, 64, 67
1, 39171, Note_on_c, 0, 74, 0
1, 39172, Note_on_c, 0, 74, 71
1, 39178, Note_on_c, 0, 74, 0
1, 39178, Note_on_c, 0, 75, 71
1, 39184, Note_on_c, 0, 75, 0
1, 39184, Note_on_c, 0, 74, 71
1, 39191, Note_on_c, 1, 64, 0
1, 39192, Note_on_c, 1, 67, 67
1, 39195, Note_on_c, 0, 74, 0
1, 39196, Note_on_c, 0, 73, 71
1, 39215, Note_on_c, 1, 67, 0
1, 39216, Note_on_c, 1, 64, 67
1, 39219, Note_on_c, 0, 73, 0
1, 39220, Note_on_c, 0, 73, 71
1, 39239, Note_on_c, 1, 64, 0
1, 39240, Note_on_c, 1, 67, 67
1, 39263, Note_on_c, 1, 67, 0
1, 39264, Note_on_c, 1, 66, 68
1, 39265, Note_on_c, 0, 73, 0
1, 39287, Note_on_c, 1, 66, 0
1, 39288, Note_on_c, 1, 69, 68
1, 39311, Note_on_c, 1, 69, 0
1, 39312, Note_on_c, 1, 66, 68
1, 39316, Note_on_c, 0, 81, 73
1, 39335, Note_on_c, 1, 66, 0
1, 39336, Note_on_c, 1, 69, 68
1, 39339, Note_on_c, 0, 81, 0
1, 39340, Note_on_c, 0, 72, 73
1, 39359, Note_on_c, 1, 69, 0
1, 39360, Note_on_c, 1, 67, 69
1, 39363, Note_on_c, 0, 72, 0
1, 39364, Note_on_c, 0, 72, 73
1, 39370, Note_on_c, 0, 72, 0
1, 39370, Note_on_c, 0, 74, 73
1, 39370, Note_on_c, 1, 67, 0
1, 39376, Note_on_c, 0, 74, 0
1, 39376, Note_on_c, 0, 72, 73
1, 39384, Note_on_c, 1, 62, 69
1, 39387, Note_on_c, 0, 72, 0
1, 39388, Note_on_c, 0, 70, 74
1, 39394, Note_on_c, 1, 62, 0
1, 39408, Note_on_c, 1, 58, 69
1, 39411, Note_on_c, 0, 70, 0
1, 39412, Note_on_c, 0, 70, 74
1, 39418, Note_on_c, 1, 58, 0
1, 39432, Note_on_c, 1, 55, 69
1, 39442, Note_on_c, 1, 55, 0
1, 39456, Note_on_c, 1, 67, 70
1, 39457, Note_on_c, 0, 70, 0
1, 39479, Note_on_c, 1, 67, 0
1, 39480, Note_on_c, 1, 70, 70
1, 39503, Note_on_c, 1, 70, 0
1, 39504, Note_on_c, 1, 67, 70
1, 39508, Note_on_c, 0, 79, 75
1, 39518, Note_on_c, 0, 79, 0
1, 39527, Note_on_c, 1, 67, 0
1, 39528, Note_on_c, 1, 70, 70
1, 39532, Note_on_c, 0, 79, 75
1, 39551, Note_on_c, 1, 70, 0
1, 39552, Note_on_c, 1, 69, 71
1, 39555, Note_on_c, 0, 79, 0
1, 39556, Note_on_c, 0, 79, 76
1, 39562, Note_on_c, 0, 79, 0
1, 39562, Note_on_c, 0, 81, 76
1, 39568, Note_on_c, 0, 81, 0
1, 39568, Note_on_c, 0, 79, 76
1, 39575, Note_on_c, 1, 69, 0
1, 39576, Note_on_c, 1, 72, 71
1, 39579, Note_on_c, 0, 79, 0
1, 39580, Note_on_c, 0, 78, 77
1, 39599, Note_on_c, 1, 72, 0
1, 39600, Note_on_c, 1, 69, 72
1, 39603, Note_on_c, 0, 78, 0
1, 39604, Note_on_c, 0, 78, 77
1, 39623, Note_on_c, 1, 69, 0
1, 39624, Note_on_c, 1, 72, 72
1, 39647, Note_on_c, 1, 72, 0
1, 39648, Note_on_c, 1, 71, 73
1, 39649, Note_on_c, 0, 78, 0
1, 39671, Note_on_c, 1, 71, 0
1, 39672, Note_on_c, 1, 74, 73
1, 39695, Note_on_c, 1, 74, 0
1, 39696, Note_on_c, 1, 71, 74
1, 39700, Note_on_c, 0, 86, 80
1, 39719, Note_on_c, 1, 71, 0
1, 39720, Note_on_c, 1, 74, 75
1, 39723, Note_on_c, 0, 86, 0
1, 39724, Note_on_c, 0, 77, 81
1, 39743, Note_on_c, 1, 74, 0
1, 39744, Note_on_c, 1, 72, 75
1, 39747, Note_on_c, 0, 77, 0
1, 39748, Note_on_c, 0, 77, 81
1, 39771, Note_on_c, 0, 77, 0
1, 39772, Note_on_c, 0, 75, 81
1, 39789, Note_on_c, 1, 72, 0
1, 39792, Note_on_c, 1, 69, 75
1, 39795, Note_on_c, 0, 75, 0
1, 39796, Note_on_c, 0, 84, 81
1, 39819, Note_on_c, 0, 84, 0
1, 39820, Note_on_c, 0, 75, 81
1, 39837, Note_on_c, 1, 69, 0
1, 39840, Note_on_c, 1, 70, 75
1, 39843, Note_on_c, 0, 75, 0
1, 39844, Note_on_c, 0, 75, 81
1, 39867, Note_on_c, 0, 75, 0
1, 39868, Note_on_c, 0, 74, 81
1, 39885, Note_on_c, 1, 70, 0
1, 39888, Note_on_c, 1, 67, 75
1, 39891, Note_on_c, 0, 74, 0
1, 39892, Note_on_c, 0, 82, 81
1, 39915, Note_on_c, 0, 82, 0
1, 39916, Note_on_c, 0, 74, 81
1, 39933, Note_on_c, 1, 67, 0
1, 39936, Note_on_c, 1, 69, 75
1, 39939, Note_on_c, 0, 74, 0
1, 39940, Note_on_c, 0, 74, 81
1, 39946, Note_on_c, 0, 74, 0
1, 39946, Note_on_c, 0, 75, 81
1, 39952, Note_on_c, 0, 75, 0
1, 39952, Note_on_c, 0, 74, 81
1, 39963, Note_on_c, 0, 74, 0
1, 39964, Note_on_c, 0, 72, 81
1, 39981, Note_on_c, 1, 69, 0
1, 39984, Note_on_c, 1, 66, 75
1, 39987, Note_on_c, 0, 72, 0
1, 39988, Note_on_c, 0, 81, 81
1, 40011, Note_on_c, 0, 81, 0
1, 40012, Note_on_c, 0, 72, 81
1, 40029, Note_on_c, 1, 66, 0
1, 40032, Note_on_c, 1, 67, 75
1, 40035, Note_on_c, 0, 72, 0
1, 40036, Note_on_c, 0, 72, 81
1, 40042, Note_on_c, 0, 72, 0
1, 40042, Note_on_c, 0, 74, 81
1, 40048, Note_on_c, 0, 74, 0
1, 40048, Note_on_c, 0, 72, 81
1, 40059, Note_on_c, 0, 72, 0
1, 40060, Note_on_c, 0, 70, 81
1, 40077, Note_on_c, 1, 67, 0
1, 40080, Note_on_c, 1, 60, 75
1, 40083, Note_on_c, 0, 70, 0
1, 40084, Note_on_c, 0, 75, 81
1, 40107, Note_on_c, 0, 75, 0
1, 40108, Note_on_c, 0, 75, 81
1, 40125, Note_on_c, 1, 60, 0
1, 40128, Note_on_c, 1, 58, 75
1, 40131, Note_on_c, 0, 75, 0
1, 40132, Note_on_c, 0, 75, 81
1, 40138, Note_on_c, 0, 75, 0
1, 40138, Note_on_c, 0, 77, 81
1, 40144, Note_on_c, 0, 77, 0
1, 40144, Note_on_c, 0, 75, 81
1, 40155, Note_on_c, 0, 75, 0
1, 40156, Note_on_c, 0, 74, 81
1, 40173, Note_on_c, 1, 58, 0
1, 40176, Note_on_c, 1, 63, 75
1, 40179, Note_on_c, 0, 74, 0
1, 40180, Note_on_c, 0, 79, 81
1, 40203, Note_on_c, 0, 79, 0
1, 40204, Note_on_c, 0, 79, 81
1, 40221, Note_on_c, 1, 63, 0
1, 40224, Note_on_c, 1, 62, 75
1, 40227, Note_on_c, 0, 79, 0
1, 40228, Note_on_c, 0, 79, 81
1, 40234, Note_on_c, 0, 79, 0
1, 40234, Note_on_c, 0, 81, 81
1, 40240, Note_on_c, 0, 81, 0
1, 40240, Note_on_c, 0, 79, 81
1, 40251, Note_on_c, 0, 79, 0
1, 40252, Note_on_c, 0, 78, 81
1, 40269, Note_on_c, 1, 62, 0
1, 40272, Note_on_c, 1, 66, 75
1, 40275, Note_on_c, 0, 78, 0
1, 40276, Note_on_c, 0, 84, 81
1, 40299, Note_on_c, 0, 84, 0
1, 40300, Note_on_c, 0, 84, 81
1, 40317, Note_on_c, 1, 66, 0
1, 40320, Note_on_c, 1, 67, 75
1, 40323, Note_on_c, 0, 84, 0
1, 40324, Note_on_c, 0, 82, 81
1, 40339, Note_on_c, 0, 82, 0
1, 40340, Note_on_c, 0, 81, 81
1, 40355, Note_on_c, 0, 81, 0
1, 40356, Note_on_c, 0, 79, 81
1, 40368, Note_on_c, 0, 58, 81
1, 40371, Note_on_c, 0, 79, 0
1, 40372, Note_on_c, 0, 78, 81
1, 40387, Note_on_c, 0, 78, 0
1, 40388, Note_on_c, 0, 76, 81
1, 40403, Note_on_c, 0, 76, 0
1, 40404, Note_on_c, 0, 74, 81
1, 40413, Note_on_c, 0, 58, 0
1, 40416, Note_on_c, 0, 60, 81
1, 40419, Note_on_c, 0, 74, 0
1, 40420, Note_on_c, 0, 81, 81
1, 40431, Note_on_c, 0, 81, 0
1, 40431, Note_on_c, 0, 82, 81
1, 40442, Note_on_c, 0, 82, 0
1, 40442, Note_on_c, 0, 81, 81
1, 40453, Note_on_c, 0, 81, 0
1, 40453, Note_on_c, 0, 82, 81
1, 40453, Note_on_c, 1, 67, 0
1, 40461, Note_on_c, 0, 60, 0
1, 40464, Note_on_c, 0, 82, 0
1, 40464, Note_on_c, 0, 81, 81
1, 40464, Note_on_c, 1, 66, 75
1, 40464, Note_on_c, 0, 62, 81
1, 40475, Note_on_c, 0, 81, 0
1, 40475, Note_on_c, 0, 82, 81
1, 40486, Note_on_c, 0, 82, 0
1, 40486, Note_on_c, 0, 81, 81
1, 40496, Note_on_c, 0, 81, 0
1, 40496, Note_on_c, 0, 79, 81
1, 40506, Note_on_c, 0, 79, 0
1, 40506, Note_on_c, 0, 81, 81
1, 40509, Note_on_c, 1, 66, 0
1, 40509, Note_on_c, 0, 62, 0
1, 40512, Note_on_c, 1, 67, 75
1, 40516, Note_on_c, 0, 81, 0
1, 40516, Note_on_c, 0, 79, 81
1, 40557, Note_on_c, 1, 67, 0
1, 40560, Note_on_c, 1, 55, 75
1, 40605, Note_on_c, 0, 79, 0
1, 40605, Note_on_c, 1, 55, 0
1, 40612, Note_on_c, 0, 74, 70
1, 40618, Note_on_c, 0, 74, 0
1, 40618, Note_on_c, 0, 79, 70
1, 40624, Note_on_c, 0, 79, 0
1, 40624, Note_on_c, 0, 82, 86
1, 40684, Note_on_c, 0, 82, 0
1, 40684, Note_on_c, 0, 79, 70
1, 40696, Note_on_c, 0, 79, 0
1, 40696, Note_on_c, 0, 76, 70
1, 40704, Note_on_c, 1, 69, 70
1, 40704, Note_on_c, 1, 67, 70
1, 40708, Note_on_c, 0, 76, 0
1, 40708, Note_on_c, 0, 73, 70
1, 40723, Note_on_c, 0, 73, 0
1, 40724, Note_on_c, 0, 74, 70
1, 40739, Note_on_c, 0, 74, 0
1, 40740, Note_on_c, 0, 76, 70
1, 40751, Note_on_c, 1, 69, 0
1, 40751, Note_on_c, 1, 67, 0
1, 40752, Note_on_c, 1, 69, 70
1, 40752, Note_on_c, 1, 65, 70
1, 40755, Note_on_c, 0, 76, 0
1, 40756, Note_on_c, 0, 74, 70
1, 40799, Note_on_c, 1, 69, 0
1, 40799, Note_on_c, 1, 65, 0
1, 40801, Note_on_c, 0, 74, 0
1, 40804, Note_on_c, 0, 80, 86
1, 40876, Note_on_c, 0, 80, 0
1, 40876, Note_on_c, 0, 77, 70
1, 40888, Note_on_c, 0, 77, 0
1, 40888, Note_on_c, 0, 74, 70
1, 40896, Note_on_c, 1, 67, 70
1, 40896, Note_on_c, 1, 65, 70
1, 40900, Note_on_c, 0, 74, 0
1, 40900, Note_on_c, 0, 71, 70
1, 40915, Note_on_c, 0, 71, 0
1, 40916, Note_on_c, 0, 72, 70
1, 40931, Note_on_c, 0, 72, 0
1, 40932, Note_on_c, 0, 74, 70
1, 40943, Note_on_c, 1, 67, 0
1, 40943, Note_on_c, 1, 65, 0
1, 40944, Note_on_c, 1, 67, 70
1, 40944, Note_on_c, 1, 63, 70
1, 40947, Note_on_c, 0, 74, 0
1, 40948, Note_on_c, 0, 72, 70
1, 40991, Note_on_c, 1, 67, 0
1, 40991, Note_on_c, 1, 63, 0
1, 40993, Note_on_c, 0, 72, 0
1, 40996, Note_on_c, 0, 75, 70
1, 41002, Note_on_c, 0, 75, 0
1, 41002, Note_on_c, 0, 77, 70
1, 41008, Note_on_c, 0, 77, 0
1, 41008, Note_on_c, 0, 79, 70
1, 41063, Note_on_c, 0, 79, 0
1, 41068, Note_on_c, 0, 75, 70
1, 41080, Note_on_c, 0, 75, 0
1, 41080, Note_on_c, 0, 72, 70
1, 41088, Note_on_c, 1, 65, 70
1, 41088, Note_on_c, 1, 63, 70
1, 41092, Note_on_c, 0, 72, 0
1, 41092, Note_on_c, 0, 69, 70
1, 41107, Note_on_c, 0, 69, 0
1, 41108, Note_on_c, 0, 70, 70
1, 41123, Note_on_c, 0, 70, 0
1, 41124, Note_on_c, 0, 72, 70
1, 41135, Note_on_c, 1, 65, 0
1, 41135, Note_on_c, 1, 63, 0
1, 41136, Note_on_c, 1, 65, 70
1, 41136, Note_on_c, 1, 62, 70
1, 41139, Note_on_c, 0, 72, 0
1, 41140, Note_on_c, 0, 70, 70
1, 41183, Note_on_c, 1, 65, 0
1, 41183, Note_on_c, 1, 62, 0
1, 41184, Note_on_c, 1, 62, 70
1, 41184, Note_on_c, 1, 58, 70
1, 41185, Note_on_c, 0, 70, 0
1, 41188, Note_on_c, 0, 77, 75
1, 41203, Note_on_c, 0, 77, 0
1, 41204, Note_on_c, 0, 75, 75
1, 41219, Note_on_c, 0, 75, 0
1, 41220, Note_on_c, 0, 74, 75
1, 41231, Note_on_c, 1, 62, 0
1, 41231, Note_on_c, 1, 58, 0
1, 41232, Note_on_c, 1, 62, 70
1, 41232, Note_on_c, 1, 58, 70
1, 41235, Note_on_c, 0, 74, 0
1, 41236, Note_on_c, 0, 72, 75
1, 41251, Note_on_c, 0, 72, 0
1, 41252, Note_on_c, 0, 70, 75
1, 41267, Note_on_c, 0, 70, 0
1, 41268, Note_on_c, 0, 68, 75
1, 41279, Note_on_c, 1, 62, 0
1, 41279, Note_on_c, 1, 58, 0
1, 41280, Note_on_c, 1, 63, 70
1, 41280, Note_on_c, 1, 58, 70
1, 41283, Note_on_c, 0, 68, 0
1, 41284, Note_on_c, 0, 67, 75
1, 41294, Note_on_c, 0, 67, 0
1, 41308, Note_on_c, 0, 70, 76
1, 41318, Note_on_c, 0, 70, 0
1, 41327, Note_on_c, 1, 63, 0
1, 41327, Note_on_c, 1, 58, 0
1, 41328, Note_on_c, 1, 63, 70
1, 41328, Note_on_c, 1, 58, 70
1, 41332, Note_on_c, 0, 75, 77
1, 41342, Note_on_c, 0, 75, 0
1, 41356, Note_on_c, 0, 79, 79
1, 41366, Note_on_c, 0, 79, 0
1, 41375, Note_on_c, 1, 63, 0
1, 41375, Note_on_c, 1, 58, 0
1, 41376, Note_on_c, 1, 62, 70
1, 41376, Note_on_c, 1, 58, 70
1, 41380, Note_on_c, 0, 77, 80
1, 41395, Note_on_c, 0, 77, 0
1, 41396, Note_on_c, 0, 75, 81
1, 41411, Note_on_c, 0, 75, 0
1, 41412, Note_on_c, 0, 74, 80
1, 41423, Note_on_c, 1, 62, 0
1, 41423, Note_on_c, 1, 58, 0
1, 41424, Note_on_c, 1, 62, 70
1, 41424, Note_on_c, 1, 58, 70
1, 41427, Note_on_c, 0, 74, 0
1, 41428, Note_on_c, 0, 72, 79
1, 41443, Note_on_c, 0, 72, 0
1, 41444, Note_on_c, 0, 70, 78
1, 41459, Note_on_c, 0, 70, 0
1, 41460, Note_on_c, 0, 68, 77
1, 41471, Note_on_c, 1, 62, 0
1, 41471, Note_on_c, 1, 58, 0
1, 41472, Note_on_c, 1, 63, 70
1, 41472, Note_on_c, 1, 58, 70
1, 41475, Note_on_c, 0, 68, 0
1, 41476, Note_on_c, 0, 67, 75
1, 41486, Note_on_c, 0, 67, 0
1, 41500, Note_on_c, 0, 70, 76
1, 41510, Note_on_c, 0, 70, 0
1, 41519, Note_on_c, 1, 63, 0
1, 41519, Note_on_c, 1, 58, 0
1, 41520, Note_on_c, 1, 63, 70
1, 41520, Note_on_c, 1, 58, 70
1, 41524, Note_on_c, 0, 75, 77
1, 41534, Note_on_c, 0, 75, 0
1, 41548, Note_on_c, 0, 79, 79
1, 41558, Note_on_c, 0, 79, 0
1, 41567, Note_on_c, 1, 63, 0
1, 41567, Note_on_c, 1, 58, 0
1, 41568, Note_on_c, 1, 62, 70
1, 41568, Note_on_c, 1, 58, 70
1, 41572, Note_on_c, 0, 77, 80
1, 41587, Note_on_c, 0, 77, 0
1, 41588, Note_on_c, 0, 75, 81
1, 41603, Note_on_c, 0, 75, 0
1, 41604, Note_on_c, 0, 74, 80
1, 41615, Note_on_c, 1, 62, 0
1, 41615, Note_on_c, 1, 58, 0
1, 41616, Note_on_c, 1, 62, 70
1, 41616, Note_on_c, 1, 58, 70
1, 41619, Note_on_c, 0, 74, 0
1, 41620, Note_on_c, 0, 72, 79
1, 41635, Note_on_c, 0, 72, 0
1, 41636, Note_on_c, 0, 70, 78
1, 41651, Note_on_c, 0, 70, 0
1, 41652, Note_on_c, 0, 68, 77
1, 41663, Note_on_c, 1, 62, 0
1, 41663, Note_on_c, 1, 58, 0
1, 41664, Note_on_c, 1, 58, 75
1, 41667, Note_on_c, 0, 68, 0
1, 41668, Note_on_c, 0, 67, 81
1, 41679, Note_on_c, 0, 67, 0
1, 41679, Note_on_c, 0, 68, 81
1, 41687, Note_on_c, 1, 58, 0
1, 41688, Note_on_c, 1, 63, 75
1, 41690, Note_on_c, 0, 68, 0
1, 41690, Note_on_c, 0, 67, 81
1, 41700, Note_on_c, 0, 67, 0
1, 41700, Note_on_c, 0, 68, 81
1, 41710, Note_on_c, 0, 68, 0
1, 41710, Note_on_c, 0, 67, 81
1, 41711, Note_on_c, 1, 63, 0
1, 41712, Note_on_c, 1, 58, 75
1, 41720, Note_on_c, 0, 67, 0
1, 41720, Note_on_c, 0, 68, 81
1, 41730, Note_on_c, 0, 68, 0
1, 41730, Note_on_c, 0, 67, 81
1, 41735, Note_on_c, 1, 58, 0
1, 41736, Note_on_c, 1, 63, 75
1, 41740, Note_on_c, 0, 67, 0
1, 41740, Note_on_c, 0, 68, 81
1, 41750, Note_on_c, 0, 68, 0
1, 41750, Note_on_c, 0, 67, 81
1, 41759, Note_on_c, 1, 63, 0
1, 41760, Note_on_c, 0, 67, 0
1, 41760, Note_on_c, 0, 68, 81
1, 41760, Note_on_c, 1, 58, 75
1, 41770, Note_on_c, 0, 68, 0
1, 41770, Note_on_c, 0, 67, 81
1, 41780, Note_on_c, 0, 67, 0
1, 41780, Note_on_c, 0, 68, 81
1, 41783, Note_on_c, 1, 58, 0
1, 41784, Note_on_c, 1, 63, 75
1, 41790, Note_on_c, 0, 68, 0
1, 41790, Note_on_c, 0, 67, 81
1, 41800, Note_on_c, 0, 67, 0
1, 41800, Note_on_c, 0, 68, 81
1, 41807, Note_on_c, 1, 63, 0
1, 41808, Note_on_c, 1, 58, 75
1, 41810, Note_on_c, 0, 68, 0
1, 41810, Note_on_c, 0, 67, 81
1, 41820, Note_on_c, 0, 67, 0
1, 41820, Note_on_c, 0, 68, 81
1, 41830, Note_on_c, 0, 68, 0
1, 41830, Note_on_c, 0, 67, 81
1, 41831, Note_on_c, 1, 58, 0
1, 41832, Note_on_c, 1, 63, 75
1, 41840, Note_on_c, 0, 67, 0
1, 41840, Note_on_c, 0, 68, 81
1, 41850, Note_on_c, 0, 68, 0
1, 41850, Note_on_c, 0, 67, 81
1, 41855, Note_on_c, 1, 63, 0
1, 41856, Note_on_c, 1, 57, 75
1, 41860, Note_on_c, 0, 67, 0
1, 41860, Note_on_c, 0, 68, 81
1, 41870, Note_on_c, 0, 68, 0
1, 41870, Note_on_c, 0, 66, 81
1, 41879, Note_on_c, 1, 57, 0
1, 41880, Note_on_c, 0, 66, 0
1, 41880, Note_on_c, 0, 68, 81
1, 41880, Note_on_c, 1, 63, 75
1, 41890, Note_on_c, 0, 68, 0
1, 41890, Note_on_c, 0, 66, 81
1, 41900, Note_on_c, 0, 66, 0
1, 41900, Note_on_c, 0, 68, 81
1, 41903, Note_on_c, 1, 63, 0
1, 41904, Note_on_c, 1, 57, 75
1, 41910, Note_on_c, 0, 68, 0
1, 41910, Note_on_c, 0, 66, 81
1, 41920, Note_on_c, 0, 66, 0
1, 41920, Note_on_c, 0, 68, 81
1, 41927, Note_on_c, 1, 57, 0
1, 41928, Note_on_c, 1, 63, 75
1, 41930, Note_on_c, 0, 68, 0
1, 41930, Note_on_c, 0, 66, 81
1, 41940, Note_on_c, 0, 66, 0
1, 41940, Note_on_c, 0, 68, 81
1, 41950, Note_on_c, 0, 68, 0
1, 41950, Note_on_c, 0, 66, 81
1, 41951, Note_on_c, 1, 63, 0
1, 41952, Note_on_c, 1, 57, 75
1, 41960, Note_on_c, 0, 66, 0
1, 41960, Note_on_c, 0, 68, 81
1, 41970, Note_on_c, 0, 68, 0
1, 41970, Note_on_c, 0, 66, 81
1, 41975, Note_on_c, 1, 57, 0
1, 41976, Note_on_c, 1, 63, 75
1, 41980, Note_on_c, 0, 66, 0
1, 41980, Note_on_c, 0, 68, 81
1, 41989, Note_on_c, 0, 68, 0
1, 41989, Note_on_c, 0, 66, 81
1, 41998, Note_on_c, 0, 66, 0
1, 41998, Note_on_c, 0, 68, 81
1, 41999, Note_on_c, 1, 63, 0
1, 42000, Note_on_c, 1, 57, 75
1, 42007, Note_on_c, 0, 68, 0
1, 42007, Note_on_c, 0, 66, 81
1, 42016, Note_on_c, 0, 66, 0
1, 42016, Note_on_c, 0, 68, 81
1, 42023, Note_on_c, 1, 57, 0
1, 42024, Note_on_c, 1, 63, 75
1, 42025, Note_on_c, 0, 68, 0
1, 42025, Note_on_c, 0, 66, 81
1, 42034, Note_on_c, 0, 66, 0
1, 42034, Note_on_c, 0, 65, 81
1, 42043, Note_on_c, 0, 65, 0
1, 42043, Note_on_c, 0, 66, 81
1, 42047, Note_on_c, 1, 63, 0
1, 42048, Note_on_c, 1, 58, 75
1, 42052, Note_on_c, 0, 66, 0
1, 42052, Note_on_c, 0, 65, 81
1, 42075, Note_on_c, 0, 65, 0
1, 42076, Note_on_c, 0, 70, 81
1, 42093, Note_on_c, 1, 58, 0
1, 42096, Note_on_c, 1, 62, 75
1, 42096, Note_on_c, 1, 58, 75
1, 42099, Note_on_c, 0, 70, 0
1, 42124, Note_on_c, 0, 70, 81
1, 42134, Note_on_c, 0, 70, 0
1, 42141, Note_on_c, 1, 62, 0
1, 42141, Note_on_c, 1, 58, 0
1, 42144, Note_on_c, 1, 63, 75
1, 42144, Note_on_c, 1, 58, 75
1, 42148, Note_on_c, 0, 68, 81
1, 42158, Note_on_c, 0, 68, 0
1, 42158, Note_on_c, 0, 66, 81
1, 42168, Note_on_c, 0, 66, 0
1, 42168, Note_on_c, 0, 68, 81
1, 42178, Note_on_c, 0, 68, 0
1, 42178, Note_on_c, 0, 66, 81
1, 42188, Note_on_c, 0, 66, 0
1, 42188, Note_on_c, 0, 68, 81
1, 42189, Note_on_c, 1, 63, 0
1, 42189, Note_on_c, 1, 58, 0
1, 42192, Note_on_c, 1, 63, 75
1, 42192, Note_on_c, 1, 58, 75
1, 42198, Note_on_c, 0, 68, 0
1, 42198, Note_on_c, 0, 66, 81
1, 42208, Note_on_c, 0, 66, 0
1, 42208, Note_on_c, 0, 68, 81
1, 42217, Note_on_c, 0, 68, 0
1, 42217, Note_on_c, 0, 66, 81
1, 42226, Note_on_c, 0, 66, 0
1, 42226, Note_on_c, 0, 65, 81
1, 42235, Note_on_c, 0, 65, 0
1, 42235, Note_on_c, 0, 66, 81
1, 42237, Note_on_c, 1, 63, 0
1, 42237, Note_on_c, 1, 58, 0
1, 42240, Note_on_c, 1, 62, 75
1, 42240, Note_on_c, 1, 58, 75
1, 42244, Note_on_c, 0, 66, 0
1, 42244, Note_on_c, 0, 65, 81
1, 42267, Note_on_c, 0, 65, 0
1, 42268, Note_on_c, 0, 70, 81
1, 42285, Note_on_c, 1, 62, 0
1, 42285, Note_on_c, 1, 58, 0
1, 42288, Note_on_c, 1, 62, 75
1, 42288, Note_on_c, 1, 58, 75
1, 42291, Note_on_c, 0, 70, 0
1, 42316, Note_on_c, 0, 70, 81
1, 42326, Note_on_c, 0, 70, 0
1, 42333, Note_on_c, 1, 62, 0
1, 42333, Note_on_c, 1, 58, 0
1, 42336, Note_on_c, 1, 63, 75
1, 42336, Note_on_c, 1, 58, 75
1, 42340, Note_on_c, 0, 68, 81
1, 42350, Note_on_c, 0, 68, 0
1, 42350, Note_on_c, 0, 66, 81
1, 42360, Note_on_c, 0, 66, 0
1, 42360, Note_on_c, 0, 68, 81
1, 42370, Note_on_c, 0, 68, 0
1, 42370, Note_on_c, 0, 66, 81
1, 42380, Note_on_c, 0, 66, 0
1, 42380, Note_on_c, 0, 68, 81
1, 42381, Note_on_c, 1, 63, 0
1, 42381, Note_on_c, 1, 58, 0
1, 42384, Note_on_c, 1, 63, 75
1, 42384, Note_on_c, 1, 58, 75
1, 42390, Note_on_c, 0, 68, 0
1, 42390, Note_on_c, 0, 66, 81
1, 42400, Note_on_c, 0, 66, 0
1, 42400, Note_on_c, 0, 68, 81
1, 42409, Note_on_c, 0, 68, 0
1, 42409, Note_on_c, 0, 66, 81
1, 42418, Note_on_c, 0, 66, 0
1, 42418, Note_on_c, 0, 65, 81
1, 42427, Note_on_c, 0, 65, 0
1, 42427, Note_on_c, 0, 66, 81
1, 42429, Note_on_c, 1, 63, 0
1, 42429, Note_on_c, 1, 58, 0
1, 42432, Note_on_c, 1, 62, 75
1, 42432, Note_on_c, 1, 58, 75
1, 42436, Note_on_c, 0, 66, 0
1, 42436, Note_on_c, 0, 65, 81
1, 42521, Note_on_c, 1, 62, 0
1, 42521, Note_on_c, 1, 58, 0
1, 42525, Note_on_c, 0, 65, 0
1, 42616, Note_on_c, 0, 67, 81
1, 42624, Note_on_c, 1, 58, 70
1, 42624, Note_on_c, 1, 55, 70
1, 42624, Note_on_c, 1, 51, 70
1, 42628, Note_on_c, 0, 67, 0
1, 42628, Note_on_c, 0, 75, 75
1, 42671, Note_on_c, 1, 58, 0
1, 42671, Note_on_c, 1, 55, 0
1, 42671, Note_on_c, 1, 51, 0
1, 42672, Note_on_c, 1, 58, 70
1, 42672, Note_on_c, 1, 55, 70
1, 42672, Note_on_c, 1, 51, 70
1, 42717, Note_on_c, 0, 75, 0
1, 42719, Note_on_c, 1, 58, 0
1, 42719, Note_on_c, 1, 55, 0
1, 42719, Note_on_c, 1, 51, 0
1, 42720, Note_on_c, 1, 58, 70
1, 42720, Note_on_c, 1, 55, 70
1, 42720, Note_on_c, 1, 51, 70
1, 42724, Note_on_c, 0, 75, 75
1, 42758, Note_on_c, 0, 75, 0
1, 42760, Note_on_c, 0, 77, 75
1, 42767, Note_on_c, 1, 58, 0
1, 42767, Note_on_c, 1, 55, 0
1, 42767, Note_on_c, 1, 51, 0
1, 42768, Note_on_c, 1, 58, 70
1, 42768, Note_on_c, 1, 55, 70
1, 42768, Note_on_c, 1, 51, 70
1, 42772, Note_on_c, 0, 77, 0
1, 42772, Note_on_c, 0, 79, 75
1, 42806, Note_on_c, 0, 79, 0
1, 42808, Note_on_c, 0, 80, 75
1, 42815, Note_on_c, 1, 58, 0
1, 42815, Note_on_c, 1, 55, 0
1, 42815, Note_on_c, 1, 51, 0
1, 42820, Note_on_c, 0, 80, 0
1, 42820, Note_on_c, 0, 82, 91
1, 42864, Note_on_c, 1, 58, 70
1, 42864, Note_on_c, 1, 55, 70
1, 42864, Note_on_c, 1, 51, 70
1, 42911, Note_on_c, 1, 58, 0
1, 42911, Note_on_c, 1, 55, 0
1, 42911, Note_on_c, 1, 51, 0
1, 42912, Note_on_c, 1, 58, 70
1, 42912, Note_on_c, 1, 55, 70
1, 42912, Note_on_c, 1, 51, 70
1, 42916, Note_on_c, 0, 82, 0
1, 42916, Note_on_c, 0, 80, 75
1, 42939, Note_on_c, 0, 80, 0
1, 42940, Note_on_c, 0, 79, 75
1, 42959, Note_on_c, 1, 58, 0
1, 42959, Note_on_c, 1, 55, 0
1, 42959, Note_on_c, 1, 51, 0
1, 42960, Note_on_c, 1, 58, 70
1, 42960, Note_on_c, 1, 55, 70
1, 42960, Note_on_c, 1, 51, 70
1, 42963, Note_on_c, 0, 79, 0
1, 42964, Note_on_c, 0, 77, 75
1, 42987, Note_on_c, 0, 77, 0
1, 42988, Note_on_c, 0, 75, 75
1, 43007, Note_on_c, 1, 58, 0
1, 43007, Note_on_c, 1, 55, 0
1, 43007, Note_on_c, 1, 51, 0
1, 43011, Note_on_c, 0, 75, 0
1, 43012, Note_on_c, 0, 74, 75
1, 43035, Note_on_c, 0, 74, 0
1, 43036, Note_on_c, 0, 72, 75
1, 43056, Note_on_c, 1, 56, 70
1, 43056, Note_on_c, 1, 51, 70
1, 43059, Note_on_c, 0, 72, 0
1, 43060, Note_on_c, 0, 72, 75
1, 43103, Note_on_c, 1, 56, 0
1, 43103, Note_on_c, 1, 51, 0
1, 43104, Note_on_c, 1, 56, 70
1, 43104, Note_on_c, 1, 51, 70
1, 43151, Note_on_c, 1, 56, 0
1, 43151, Note_on_c, 1, 51, 0
1, 43152, Note_on_c, 1, 56, 70
1, 43152, Note_on_c, 1, 51, 70
1, 43153, Note_on_c, 0, 72, 0
1, 43156, Note_on_c, 0, 75, 75
1, 43179, Note_on_c, 0, 75, 0
1, 43180, Note_on_c, 0, 72, 75
1, 43199, Note_on_c, 1, 56, 0
1, 43199, Note_on_c, 1, 51, 0
1, 43203, Note_on_c, 0, 72, 0
1, 43204, Note_on_c, 0, 72, 75
1, 43227, Note_on_c, 0, 72, 0
1, 43228, Note_on_c, 0, 70, 75
1, 43248, Note_on_c, 1, 55, 70
1, 43248, Note_on_c, 1, 51, 70
1, 43251, Note_on_c, 0, 70, 0
1, 43252, Note_on_c, 0, 70, 75
1, 43295, Note_on_c, 1, 55, 0
1, 43295, Note_on_c, 1, 51, 0
1, 43296, Note_on_c, 1, 55, 70
1, 43296, Note_on_c, 1, 51, 70
1, 43323, Note_on_c, 0, 70, 0
1, 43324, Note_on_c, 0, 75, 75
1, 43343, Note_on_c, 1, 55, 0
1, 43343, Note_on_c, 1, 51, 0
1, 43344, Note_on_c, 1, 55, 70
1, 43344, Note_on_c, 1, 51, 70
1, 43347, Note_on_c, 0, 75, 0
1, 43348, Note_on_c, 0, 79, 75
1, 43371, Note_on_c, 0, 79, 0
1, 43372, Note_on_c, 0, 75, 75
1, 43391, Note_on_c, 1, 55, 0
1, 43391, Note_on_c, 1, 51, 0
1, 43395, Note_on_c, 0, 75, 0
1, 43396, Note_on_c, 0, 74, 75
1, 43402, Note_on_c, 0, 74, 0
1, 43402, Note_on_c, 0, 75, 75
1, 43408, Note_on_c, 0, 75, 0
1, 43408, Note_on_c, 0, 74, 75
1, 43419, Note_on_c, 0, 74, 0
1, 43420, Note_on_c, 0, 72, 75
1, 43440, Note_on_c, 1, 56, 70
1, 43440, Note_on_c, 1, 51, 70
1, 43443, Note_on_c, 0, 72, 0
1, 43444, Note_on_c, 0, 72, 75
1, 43487, Note_on_c, 1, 56, 0
1, 43487, Note_on_c, 1, 51, 0
1, 43488, Note_on_c, 1, 56, 70
1, 43488, Note_on_c, 1, 51, 70
1, 43515, Note_on_c, 0, 72, 0
1, 43516, Note_on_c, 0, 75, 75
1, 43528, Note_on_c, 0, 75, 0
1, 43528, Note_on_c, 0, 74, 75
1, 43535, Note_on_c, 1, 56, 0
1, 43535, Note_on_c, 1, 51, 0
1, 43536, Note_on_c, 1, 56, 70
1, 43536, Note_on_c, 1, 51, 70
1, 43540, Note_on_c, 0, 74, 0
1, 43540, Note_on_c, 0, 77, 75
1, 43552, Note_on_c, 0, 77, 0
1, 43552, Note_on_c, 0, 75, 75
1, 43564, Note_on_c, 0, 75, 0
1, 43564, Note_on_c, 0, 74, 75
1, 43576, Note_on_c, 0, 74, 0
1, 43576, Note_on_c, 0, 72, 75
1, 43583, Note_on_c, 1, 56, 0
1, 43583, Note_on_c, 1, 51, 0
1, 43584, Note_on_c, 1, 55, 70
1, 43584, Note_on_c, 1, 51, 70
1, 43588, Note_on_c, 0, 72, 0
1, 43588, Note_on_c, 0, 72, 91
1, 43612, Note_on_c, 0, 72, 0
1, 43612, Note_on_c, 0, 70, 75
1, 43635, Note_on_c, 0, 70, 0
1, 43636, Note_on_c, 0, 70, 75
1, 43673, Note_on_c, 1, 55, 0
1, 43673, Note_on_c, 1, 51, 0
1, 43680, Note_on_c, 1, 63, 70
1, 43680, Note_on_c, 1, 55, 70
1, 43718, Note_on_c, 0, 70, 0
1, 43720, Note_on_c, 0, 75, 75
1, 43732, Note_on_c, 0, 75, 0
1, 43732, Note_on_c, 0, 75, 75
1, 43766, Note_on_c, 0, 75, 0
1, 43768, Note_on_c, 0, 75, 75
1, 43769, Note_on_c, 1, 63, 0
1, 43769, Note_on_c, 1, 55, 0
1, 43776, Note_on_c, 1, 63, 70
1, 43776, Note_on_c, 1, 56, 70
1, 43780, Note_on_c, 0, 75, 0
1, 43780, Note_on_c, 0, 75, 75
1, 43814, Note_on_c, 0, 75, 0
1, 43816, Note_on_c, 0, 65, 75
1, 43828, Note_on_c, 0, 65, 0
1, 43828, Note_on_c, 0, 65, 75
1, 43865, Note_on_c, 1, 63, 0
1, 43865, Note_on_c, 1, 56, 0
1, 43872, Note_on_c, 1, 62, 70
1, 43872, Note_on_c, 1, 58, 70
1, 43910, Note_on_c, 0, 65, 0
1, 43912, Note_on_c, 0, 72, 75
1, 43924, Note_on_c, 0, 72, 0
1, 43924, Note_on_c, 0, 70, 75
1, 43958, Note_on_c, 0, 70, 0
1, 43960, Note_on_c, 0, 68, 75
1, 43961, Note_on_c, 1, 62, 0
1, 43961, Note_on_c, 1, 58, 0
1, 43968, Note_on_c, 1, 63, 70
1, 43968, Note_on_c, 1, 60, 70
1, 43972, Note_on_c, 0, 68, 0
1, 43972, Note_on_c, 0, 70, 75
1, 43978, Note_on_c, 0, 70, 0
1, 43978, Note_on_c, 0, 68, 75
1, 43984, Note_on_c, 0, 68, 0
1, 43984, Note_on_c, 0, 67, 75
1, 43990, Note_on_c, 0, 67, 0
1, 43990, Note_on_c, 0, 68, 75
1, 44006, Note_on_c, 0, 68, 0
1, 44008, Note_on_c, 0, 67, 75
1, 44020, Note_on_c, 0, 67, 0
1, 44020, Note_on_c, 0, 67, 75
1, 44057, Note_on_c, 1, 63, 0
1, 44057, Note_on_c, 1, 60, 0
1, 44064, Note_on_c, 1, 63, 70
1, 44064, Note_on_c, 1, 55, 70
1, 44102, Note_on_c, 0, 67, 0
1, 44104, Note_on_c, 0, 75, 75
1, 44116, Note_on_c, 0, 75, 0
1, 44116, Note_on_c, 0, 75, 75
1, 44150, Note_on_c, 0, 75, 0
1, 44152, Note_on_c, 0, 75, 75
1, 44153, Note_on_c, 1, 63, 0
1, 44153, Note_on_c, 1, 55, 0
1, 44160, Note_on_c, 1, 63, 70
1, 44160, Note_on_c, 1, 56, 70
1, 44164, Note_on_c, 0, 75, 0
1, 44164, Note_on_c, 0, 75, 75
1, 44198, Note_on_c, 0, 75, 0
1, 44200, Note_on_c, 0, 65, 75
1, 44212, Note_on_c, 0, 65, 0
1, 44212, Note_on_c, 0, 65, 75
1, 44249, Note_on_c, 1, 63, 0
1, 44249, Note_on_c, 1, 56, 0
1, 44256, Note_on_c, 1, 62, 70
1, 44256, Note_on_c, 1, 58, 70
1, 44305, Note_on_c, 0, 65, 0
1, 44308, Note_on_c, 0, 68, 75
1, 44323, Note_on_c, 0, 68, 0
1, 44324, Note_on_c, 0, 65, 75
1, 44339, Note_on_c, 0, 65, 0
1, 44340, Note_on_c, 0, 62, 75
1, 44345, Note_on_c, 1, 62, 0
1, 44345, Note_on_c, 1, 58, 0
1, 44352, Note_on_c, 1, 60, 70
1, 44355, Note_on_c, 0, 62, 0
1, 44356, Note_on_c, 0, 63, 75
1, 44397, Note_on_c, 1, 60, 0
1, 44400, Note_on_c, 1, 62, 70
1, 44401, Note_on_c, 0, 63, 0
1, 44404, Note_on_c, 0, 72, 76
1, 44419, Note_on_c, 0, 72, 0
1, 44420, Note_on_c, 0, 68, 76
1, 44435, Note_on_c, 0, 68, 0
1, 44436, Note_on_c, 0, 65, 76
1, 44445, Note_on_c, 1, 62, 0
1, 44448, Note_on_c, 1, 63, 71
1, 44451, Note_on_c, 0, 65, 0
1, 44452, Note_on_c, 0, 67, 76
1, 44497, Note_on_c, 0, 67, 0
1, 44500, Note_on_c, 0, 77, 77
1, 44512, Note_on_c, 0, 77, 0
1, 44512, Note_on_c, 0, 75, 77
1, 44524, Note_on_c, 0, 75, 0
1, 44524, Note_on_c, 0, 74, 77
1, 44536, Note_on_c, 0, 74, 0
1, 44536, Note_on_c, 0, 72, 77
1, 44537, Note_on_c, 1, 63, 0
1, 44548, Note_on_c, 0, 72, 0
1, 44548, Note_on_c, 0, 70, 77
1, 44592, Note_on_c, 1, 65, 73
1, 44592, Note_on_c, 1, 63, 73
1, 44592, Note_on_c, 1, 60, 73
1, 44637, Note_on_c, 0, 70, 0
1, 44637, Note_on_c, 1, 65, 0
1, 44637, Note_on_c, 1, 63, 0
1, 44637, Note_on_c, 1, 60, 0
1, 44640, Note_on_c, 1, 65, 73
1, 44640, Note_on_c, 1, 63, 73
1, 44640, Note_on_c, 1, 60, 73
1, 44644, Note_on_c, 0, 69, 79
1, 44655, Note_on_c, 0, 69, 0
1, 44655, Note_on_c, 0, 70, 79
1, 44666, Note_on_c, 0, 70, 0
1, 44666, Note_on_c, 0, 69, 79
1, 44677, Note_on_c, 0, 69, 0
1, 44677, Note_on_c, 0, 70, 79
1, 44685, Note_on_c, 1, 65, 0
1, 44685, Note_on_c, 1, 63, 0
1, 44685, Note_on_c, 1, 60, 0
1, 44688, Note_on_c, 0, 70, 0
1, 44688, Note_on_c, 0, 69, 79
1, 44688, Note_on_c, 1, 65, 74
1, 44688, Note_on_c, 1, 63, 74
1, 44688, Note_on_c, 1, 60, 74
1, 44699, Note_on_c, 0, 69, 0
1, 44699, Note_on_c, 0, 70, 79
1, 44710, Note_on_c, 0, 70, 0
1, 44710, Note_on_c, 0, 69, 79
1, 44720, Note_on_c, 0, 69, 0
1, 44720, Note_on_c, 0, 67, 79
1, 44730, Note_on_c, 0, 67, 0
1, 44730, Note_on_c, 0, 69, 79
1, 44733, Note_on_c, 1, 65, 0
1, 44733, Note_on_c, 1, 63, 0
1, 44733, Note_on_c, 1, 60, 0
1, 44736, Note_on_c, 1, 65, 75
1, 44736, Note_on_c, 1, 62, 75
1, 44736, Note_on_c, 1, 58, 75
1, 44740, Note_on_c, 0, 69, 0
1, 44740, Note_on_c, 0, 70, 81
1, 44763, Note_on_c, 0, 70, 0
1, 44764, Note_on_c, 0, 72, 70
1, 44776, Note_on_c, 0, 72, 0
1, 44776, Note_on_c, 0, 74, 69
1, 44788, Note_on_c, 0, 74, 0
1, 44788, Note_on_c, 0, 75, 68
1, 44800, Note_on_c, 0, 75, 0
1, 44800, Note_on_c, 0, 77, 68
1, 44812, Note_on_c, 0, 77, 0
1, 44812, Note_on_c, 0, 79, 67
1, 44824, Note_on_c, 0, 79, 0
1, 44824, Note_on_c, 0, 81, 66
1, 44825, Note_on_c, 1, 65, 0
1, 44825, Note_on_c, 1, 62, 0
1, 44825, Note_on_c, 1, 58, 0
1, 44836, Tempo, 1764705
1, 44836, Note_on_c, 0, 81, 0
1, 44836, Note_on_c, 0, 82, 66
1, 44848, Note_on_c, 0, 82, 0
1, 44880, Note_on_c, 1, 55, 75
1, 44884, Tempo, 779220
1, 44884, Note_on_c, 0, 63, 75
1, 44907, Note_on_c, 0, 63, 0
1, 44908, Note_on_c, 0, 63, 75
1, 44925, Note_on_c, 1, 55, 0
1, 44928, Note_on_c, 1, 53, 75
1, 44931, Note_on_c, 0, 63, 0
1, 44932, Note_on_c, 0, 63, 75
1, 44938, Note_on_c, 0, 63, 0
1, 44938, Note_on_c, 0, 65, 75
1, 44944, Note_on_c, 0, 65, 0
1, 44944, Note_on_c, 0, 63, 75
1, 44955, Note_on_c, 0, 63, 0
1, 44956, Note_on_c, 0, 62, 75
1, 44973, Note_on_c, 1, 53, 0
1, 44976, Note_on_c, 1, 50, 75
1, 44979, Note_on_c, 0, 62, 0
1, 44980, Note_on_c, 0, 68, 75
1, 45003, Note_on_c, 0, 68, 0
1, 45004, Note_on_c, 0, 68, 75
1, 45021, Note_on_c, 1, 50, 0
1, 45024, Note_on_c, 1, 51, 75
1, 45027, Note_on_c, 0, 68, 0
1, 45028, Note_on_c, 0, 68, 75
1, 45034, Note_on_c, 0, 68, 0
1, 45034, Note_on_c, 0, 70, 75
1, 45040, Note_on_c, 0, 70, 0
1, 45040, Note_on_c, 0, 68, 75
1, 45051, Note_on_c, 0, 68, 0
1, 45052, Note_on_c, 0, 67, 75
1, 45069, Note_on_c, 1, 51, 0
1, 45072, Note_on_c, 1, 56, 75
1, 45075, Note_on_c, 0, 67, 0
1, 45076, Note_on_c, 0, 72, 75
1, 45099, Note_on_c, 0, 72, 0
1, 45100, Note_on_c, 0, 72, 75
1, 45117, Note_on_c, 1, 56, 0
1, 45120, Note_on_c, 1, 55, 75
1, 45123, Note_on_c, 0, 72, 0
1, 45124, Note_on_c, 0, 72, 75
1, 45130, Note_on_c, 0, 72, 0
1, 45130, Note_on_c, 0, 74, 75
1, 45136, Note_on_c, 0, 74, 0
1, 45136, Note_on_c, 0, 72, 75
1, 45147, Note_on_c, 0, 72, 0
1, 45148, Note_on_c, 0, 70, 75
1, 45171, Note_on_c, 0, 70, 0
1, 45172, Note_on_c, 0, 70, 75
1, 45196, Note_on_c, 0, 70, 0
1, 45196, Note_on_c, 0, 80, 75
1, 45209, Note_on_c, 1, 55, 0
1, 45219, Note_on_c, 0, 80, 0
1, 45220, Note_on_c, 0, 80, 75
1, 45264, Note_on_c, 1, 62, 75
1, 45287, Note_on_c, 0, 80, 0
1, 45292, Note_on_c, 0, 79, 75
1, 45304, Note_on_c, 0, 79, 0
1, 45304, Note_on_c, 0, 77, 75
1, 45309, Note_on_c, 1, 62, 0
1, 45312, Note_on_c, 1, 63, 75
1, 45316, Note_on_c, 0, 77, 0
1, 45316, Note_on_c, 0, 79, 75
1, 45331, Note_on_c, 0, 79, 0
1, 45332, Note_on_c, 0, 77, 75
1, 45347, Note_on_c, 0, 77, 0
1, 45348, Note_on_c, 0, 75, 75
1, 45360, Note_on_c, 0, 55, 81
1, 45363, Note_on_c, 0, 75, 0
1, 45364, Note_on_c, 0, 74, 75
1, 45379, Note_on_c, 0, 74, 0
1, 45380, Note_on_c, 0, 72, 75
1, 45395, Note_on_c, 0, 72, 0
1, 45396, Note_on_c, 0, 70, 75
1, 45405, Note_on_c, 0, 55, 0
1, 45408, Note_on_c, 0, 56, 81
1, 45411, Note_on_c, 0, 70, 0
1, 45412, Note_on_c, 0, 79, 75
1, 45422, Note_on_c, 0, 79, 0
1, 45422, Note_on_c, 0, 77, 75
1, 45432, Note_on_c, 0, 77, 0
1, 45432, Note_on_c, 0, 79, 75
1, 45442, Note_on_c, 0, 79, 0
1, 45442, Note_on_c, 0, 77, 75
1, 45445, Note_on_c, 1, 63, 0
1, 45452, Note_on_c, 0, 77, 0
1, 45452, Note_on_c, 0, 79, 76
1, 45453, Note_on_c, 0, 56, 0
1, 45456, Note_on_c, 1, 62, 75
1, 45456, Note_on_c, 0, 58, 81
1, 45462, Note_on_c, 0, 79, 0
1, 45462, Note_on_c, 0, 77, 76
1, 45472, Note_on_c, 0, 77, 0
1, 45472, Note_on_c, 0, 79, 76
1, 45481, Note_on_c, 0, 79, 0
1, 45481, Note_on_c, 0, 77, 76
1, 45490, Note_on_c, 0, 77, 0
1, 45490, Note_on_c, 0, 75, 77
1, 45499, Note_on_c, 0, 75, 0
1, 45499, Note_on_c, 0, 77, 77
1, 45501, Note_on_c, 1, 62, 0
1, 45501, Note_on_c, 0, 58, 0
1, 45504, Note_on_c, 1, 63, 78
1, 45508, Note_on_c, 0, 77, 0
1, 45508, Note_on_c, 0, 75, 77
1, 45549, Note_on_c, 1, 63, 0
1, 45552, Note_on_c, 1, 55, 81
1, 45553, Note_on_c, 0, 75, 0
1, 45556, Note_on_c, 0, 72, 81
1, 45566, Note_on_c, 0, 72, 0
1, 45566, Note_on_c, 0, 70, 81
1, 45575, Note_on_c, 1, 55, 0
1, 45576, Note_on_c, 0, 70, 0
1, 45576, Note_on_c, 0, 72, 81
1, 45576, Note_on_c, 1, 58, 81
1, 45586, Note_on_c, 0, 72, 0
1, 45586, Note_on_c, 0, 70, 81
1, 45596, Note_on_c, 0, 70, 0
1, 45596, Note_on_c, 0, 72, 81
1, 45599, Note_on_c, 1, 58, 0
1, 45600, Note_on_c, 1, 53, 81
1, 45606, Note_on_c, 0, 72, 0
1, 45606, Note_on_c, 0, 70, 81
1, 45616, Note_on_c, 0, 70, 0
1, 45616, Note_on_c, 0, 72, 81
1, 45623, Note_on_c, 1, 53, 0
1, 45624, Note_on_c, 1, 56, 81
1, 45625, Note_on_c, 0, 72, 0
1, 45625, Note_on_c, 0, 70, 81
1, 45634, Note_on_c, 0, 70, 0
1, 45634, Note_on_c, 0, 72, 81
1, 45643, Note_on_c, 0, 72, 0
1, 45643, Note_on_c, 0, 70, 81
1, 45647, Note_on_c, 1, 56, 0
1, 45648, Note_on_c, 1, 51, 81
1, 45652, Note_on_c, 0, 70, 0
1, 45652, Note_on_c, 0, 72, 81
1, 45662, Note_on_c, 0, 72, 0
1, 45662, Note_on_c, 0, 70, 81
1, 45671, Note_on_c, 1, 51, 0
1, 45672, Note_on_c, 0, 70, 0
1, 45672, Note_on_c, 0, 72, 81
1, 45672, Note_on_c, 1, 55, 81
1, 45682, Note_on_c, 0, 72, 0
1, 45682, Note_on_c, 0, 70, 81
1, 45691, Note_on_c, 0, 70, 0
1, 45691, Note_on_c, 0, 72, 81
1, 45695, Note_on_c, 1, 55, 0
1, 45696, Note_on_c, 1, 53, 81
1, 45696, Note_on_c, 1, 50, 81
1, 45700, Note_on_c, 0, 72, 0
1, 45700, Note_on_c, 0, 70, 81
1, 45767, Note_on_c, 0, 70, 0
1, 45772, Note_on_c, 0, 74, 81
1, 45784, Note_on_c, 0, 74, 0
1, 45784, Note_on_c, 0, 75, 81
1, 45785, Note_on_c, 1, 53, 0
1, 45785, Note_on_c, 1, 50, 0
1, 45796, Note_on_c, 0, 75, 0
1, 45796, Note_on_c, 0, 77, 81
1, 45811, Note_on_c, 0, 77, 0
1, 45812, Note_on_c, 0, 75, 81
1, 45827, Note_on_c, 0, 75, 0
1, 45828, Note_on_c, 0, 74, 81
1, 45843, Note_on_c, 0, 74, 0
1, 45844, Note_on_c, 0, 72, 81
1, 45859, Note_on_c, 0, 72, 0
1, 45860, Note_on_c, 0, 70, 81
1, 45875, Note_on_c, 0, 70, 0
1, 45876, Note_on_c, 0, 68, 81
1, 45891, Note_on_c, 0, 68, 0
1, 45892, Note_on_c, 0, 67, 81
1, 45936, Note_on_c, 1, 55, 81
1, 45937, Note_on_c, 0, 67, 0
1, 45940, Note_on_c, 0, 72, 81
1, 45950, Note_on_c, 0, 72, 0
1, 45950, Note_on_c, 0, 70, 81
1, 45959, Note_on_c, 1, 55, 0
1, 45960, Note_on_c, 0, 70, 0
1, 45960, Note_on_c, 0, 72, 81
1, 45960, Note_on_c, 1, 58, 81
1, 45970, Note_on_c, 0, 72, 0
1, 45970, Note_on_c, 0, 70, 81
1, 45980, Note_on_c, 0, 70, 0
1, 45980, Note_on_c, 0, 72, 81
1, 45983, Note_on_c, 1, 58, 0
1, 45984, Note_on_c, 1, 53, 81
1, 45990, Note_on_c, 0, 72, 0
1, 45990, Note_on_c, 0, 70, 81
1, 46000, Note_on_c, 0, 70, 0
1, 46000, Note_on_c, 0, 72, 81
1, 46007, Note_on_c, 1, 53, 0
1, 46008, Note_on_c, 1, 56, 81
1, 46009, Note_on_c, 0, 72, 0
1, 46009, Note_on_c, 0, 70, 81
1, 46018, Note_on_c, 0, 70, 0
1, 46018, Note_on_c, 0, 72, 81
1, 46027, Note_on_c, 0, 72, 0
1, 46027, Note_on_c, 0, 70, 81
1, 46031, Note_on_c, 1, 56, 0
1, 46032, Note_on_c, 1, 51, 81
1, 46036, Note_on_c, 0, 70, 0
1, 46036, Note_on_c, 0, 72, 81
1, 46046, Note_on_c, 0, 72, 0
1, 46046, Note_on_c, 0, 70, 81
1, 46055, Note_on_c, 1, 51, 0
1, 46056, Note_on_c, 0, 70, 0
1, 46056, Note_on_c, 0, 72, 81
1, 46056, Note_on_c, 1, 55, 81
1, 46066, Note_on_c, 0, 72, 0
1, 46066, Note_on_c, 0, 70, 81
1, 46075, Note_on_c, 0, 70, 0
1, 46075, Note_on_c, 0, 72, 81
1, 46079, Note_on_c, 1, 55, 0
1, 46080, Note_on_c, 1, 53, 81
1, 46080, Note_on_c, 1, 50, 81
1, 46084, Note_on_c, 0, 72, 0
1, 46084, Note_on_c, 0, 70, 81
1, 46151, Note_on_c, 0, 70, 0
1, 46156, Note_on_c, 0, 74, 81
1, 46168, Note_on_c, 0, 74, 0
1, 46168, Note_on_c, 0, 75, 80
1, 46169, Note_on_c, 1, 53, 0
1, 46169, Note_on_c, 1, 50, 0
1, 46180, Note_on_c, 0, 75, 0
1, 46180, Note_on_c, 0, 77, 79
1, 46195, Note_on_c, 0, 77, 0
1, 46196, Note_on_c, 0, 75, 79
1, 46211, Note_on_c, 0, 75, 0
1, 46212, Note_on_c, 0, 74, 78
1, 46227, Note_on_c, 0, 74, 0
1, 46228, Note_on_c, 0, 72, 78
1, 46243, Note_on_c, 0, 72, 0
1, 46244, Note_on_c, 0, 70, 77
1, 46259, Note_on_c, 0, 70, 0
1, 46260, Note_on_c, 0, 68, 76
1, 46272, Note_on_c, 1, 51, 75
1, 46272, Note_on_c, 1, 39, 75
1, 46275, Note_on_c, 0, 68, 0
1, 46276, Note_on_c, 0, 67, 75
1, 46321, Note_on_c, 0, 67, 0
1, 46324, Note_on_c, 0, 70, 75
1, 46339, Note_on_c, 0, 70, 0
1, 46340, Note_on_c, 0, 72, 75
1, 46355, Note_on_c, 0, 72, 0
1, 46356, Note_on_c, 0, 70, 75
1, 46361, Note_on_c, 1, 51, 0
1, 46361, Note_on_c, 1, 39, 0
1, 46371, Note_on_c, 0, 70, 0
1, 46372, Note_on_c, 0, 75, 75
1, 46387, Note_on_c, 0, 75, 0
1, 46388, Note_on_c, 0, 74, 75
1, 46403, Note_on_c, 0, 74, 0
1, 46404, Note_on_c, 0, 72, 75
1, 46416, Note_on_c, 1, 55, 75
1, 46416, Note_on_c, 1, 43, 75
1, 46419, Note_on_c, 0, 72, 0
1, 46420, Note_on_c, 0, 70, 75
1, 46435, Note_on_c, 0, 70, 0
1, 46436, Note_on_c, 0, 68, 75
1, 46451, Note_on_c, 0, 68, 0
1, 46452, Note_on_c, 0, 67, 75
1, 46461, Note_on_c, 1, 55, 0
1, 46461, Note_on_c, 1, 43, 0
1, 46464, Note_on_c, 1, 56, 75
1, 46464, Note_on_c, 0, 44, 81
1, 46467, Note_on_c, 0, 67, 0
1, 46468, Note_on_c, 0, 65, 75
1, 46483, Note_on_c, 0, 65, 0
1, 46484, Note_on_c, 0, 71, 75
1, 46500, Note_on_c, 0, 71, 0
1, 46500, Note_on_c, 0, 72, 75
1, 46515, Note_on_c, 0, 72, 0
1, 46516, Note_on_c, 0, 70, 75
1, 46528, Note_on_c, 0, 70, 0
1, 46528, Note_on_c, 0, 68, 75
1, 46540, Note_on_c, 0, 68, 0
1, 46540, Note_on_c, 0, 67, 75
1, 46552, Note_on_c, 0, 67, 0
1, 46552, Note_on_c, 0, 65, 75
1, 46553, Note_on_c, 1, 56, 0
1, 46553, Note_on_c, 0, 44, 0
1, 46560, Note_on_c, 1, 55, 75
1, 46560, Note_on_c, 0, 46, 81
1, 46564, Note_on_c, 0, 65, 0
1, 46564, Note_on_c, 0, 63, 75
1, 46605, Note_on_c, 1, 55, 0
1, 46608, Note_on_c, 1, 53, 75
1, 46609, Note_on_c, 0, 63, 0
1, 46612, Note_on_c, 0, 62, 75
1, 46622, Note_on_c, 0, 62, 0
1, 46622, Note_on_c, 0, 63, 75
1, 46632, Note_on_c, 0, 63, 0
1, 46632, Note_on_c, 0, 62, 75
1, 46642, Note_on_c, 0, 62, 0
1, 46642, Note_on_c, 0, 60, 75
1, 46649, Note_on_c, 0, 46, 0
1, 46651, Note_on_c, 0, 60, 0
1, 46651, Note_on_c, 0, 62, 75
1, 46653, Note_on_c, 1, 53, 0
1, 46656, Note_on_c, 1, 51, 75
1, 46656, Note_on_c, 0, 51, 81
1, 46660, Note_on_c, 0, 62, 0
1, 46660, Note_on_c, 0, 63, 75
1, 46705, Note_on_c, 0, 63, 0
1, 46708, Note_on_c, 0, 70, 70
1, 46708, Note_on_c, 0, 67, 70
1, 46745, Note_on_c, 1, 51, 0
1, 46745, Note_on_c, 0, 51, 0
1, 46753, Note_on_c, 0, 70, 0
1, 46753, Note_on_c, 0, 67, 0
1, 46756, Note_on_c, 0, 70, 70
1, 46756, Note_on_c, 0, 67, 70
1, 46801, Note_on_c, 0, 70, 0
1, 46801, Note_on_c, 0, 67, 0
1, 46804, Note_on_c, 0, 70, 70
1, 46804, Note_on_c, 0, 67, 70
1, 46848, Note_on_c, 0, 67, 70
1, 46848, Note_on_c, 1, 51, 75
1, 46848, Note_on_c, 1, 39, 75
1, 46849, Note_on_c, 0, 70, 0
1, 46849, Note_on_c, 0, 67, 0
1, 46852, Note_on_c, 0, 70, 86
1, 46924, Note_on_c, 0, 70, 0
1, 46924, Note_on_c, 0, 72, 70
1, 46936, Note_on_c, 0, 72, 0
1, 46936, Note_on_c, 0, 74, 70
1, 46937, Note_on_c, 0, 67, 0
1, 46937, Note_on_c, 1, 51, 0
1, 46937, Note_on_c, 1, 39, 0
1, 46948, Note_on_c, 0, 74, 0
1, 46948, Note_on_c, 0, 75, 70
1, 47037, Note_on_c, 0, 75, 0
1, 47044, Note_on_c, 0, 68, 70
1, 47088, Note_on_c, 1, 63, 66
1, 47088, Note_on_c, 1, 60, 66
1, 47135, Note_on_c, 1, 63, 0
1, 47135, Note_on_c, 1, 60, 0
1, 47136, Note_on_c, 1, 63, 66
1, 47136, Note_on_c, 1, 60, 66
1, 47183, Note_on_c, 1, 63, 0
1, 47183, Note_on_c, 1, 60, 0
1, 47184, Note_on_c, 1, 63, 66
1, 47184, Note_on_c, 1, 60, 66
1, 47207, Note_on_c, 0, 68, 0
1, 47212, Note_on_c, 0, 72, 70
1, 47224, Note_on_c, 0, 72, 0
1, 47224, Note_on_c, 0, 68, 70
1, 47231, Note_on_c, 1, 63, 0
1, 47231, Note_on_c, 1, 60, 0
1, 47236, Note_on_c, 0, 68, 0
1, 47236, Note_on_c, 0, 66, 70
1, 47280, Note_on_c, 1, 62, 66
1, 47280, Note_on_c, 1, 58, 66
1, 47284, Note_on_c, 0, 66, 0
1, 47284, Note_on_c, 0, 67, 70
1, 47327, Note_on_c, 1, 62, 0
1, 47327, Note_on_c, 1, 58, 0
1, 47328, Note_on_c, 1, 62, 66
1, 47328, Note_on_c, 1, 58, 66
1, 47329, Note_on_c, 0, 67, 0
1, 47375, Note_on_c, 1, 62, 0
1, 47375, Note_on_c, 1, 58, 0
1, 47376, Note_on_c, 1, 62, 66
1, 47376, Note_on_c, 1, 58, 66
1, 47404, Note_on_c, 0, 82, 70
1, 47416, Note_on_c, 0, 82, 0
1, 47416, Note_on_c, 0, 79, 70
1, 47423, Note_on_c, 1, 62, 0
1, 47423, Note_on_c, 1, 58, 0
1, 47428, Note_on_c, 0, 79, 0
1, 47428, Note_on_c, 0, 76, 70
1, 47472, Note_on_c, 1, 60, 66
1, 47472, Note_on_c, 1, 56, 66
1, 47476, Note_on_c, 0, 76, 0
1, 47476, Note_on_c, 0, 77, 70
1, 47519, Note_on_c, 1, 60, 0
1, 47519, Note_on_c, 1, 56, 0
1, 47520, Note_on_c, 1, 60, 66
1, 47520, Note_on_c, 1, 56, 66
1, 47521, Note_on_c, 0, 77, 0
1, 47567, Note_on_c, 1, 60, 0
1, 47567, Note_on_c, 1, 56, 0
1, 47568, Note_on_c, 1, 60, 66
1, 47568, Note_on_c, 1, 56, 66
1, 47596, Note_on_c, 0, 80, 70
1, 47608, Note_on_c, 0, 80, 0
1, 47608, Note_on_c, 0, 77, 70
1, 47615, Note_on_c, 1, 60, 0
1, 47615, Note_on_c, 1, 56, 0
1, 47620, Note_on_c, 0, 77, 0
1, 47620, Note_on_c, 0, 74, 70
1, 47664, Note_on_c, 1, 58, 66
1, 47664, Note_on_c, 1, 55, 66
1, 47668, Note_on_c, 0, 74, 0
1, 47668, Note_on_c, 0, 75, 70
1, 47709, Note_on_c, 1, 58, 0
1, 47709, Note_on_c, 1, 55, 0
1, 47713, Note_on_c, 0, 75, 0
1, 47716, Note_on_c, 0, 75, 70
1, 47731, Note_on_c, 0, 75, 0
1, 47732, Note_on_c, 0, 79, 70
1, 47747, Note_on_c, 0, 79, 0
1, 47748, Note_on_c, 0, 80, 71
1, 47760, Note_on_c, 1, 63, 75
1, 47760, Note_on_c, 0, 55, 75
1, 47763, Note_on_c, 0, 80, 0
1, 47764, Note_on_c, 0, 82, 71
1, 47779, Note_on_c, 0, 82, 0
1, 47780, Note_on_c, 0, 84, 72
1, 47795, Note_on_c, 0, 84, 0
1, 47796, Note_on_c, 0, 86, 73
1, 47805, Note_on_c, 1, 63, 0
1, 47805, Note_on_c, 0, 55, 0
1, 47808, Note_on_c, 1, 63, 75
1, 47808, Note_on_c, 0, 56, 75
1, 47811, Note_on_c, 0, 86, 0
1, 47812, Note_on_c, 0, 84, 91
1, 47884, Note_on_c, 0, 84, 0
1, 47884, Note_on_c, 0, 82, 75
1, 47896, Note_on_c, 0, 82, 0
1, 47896, Note_on_c, 0, 80, 75
1, 47897, Note_on_c, 1, 63, 0
1, 47897, Note_on_c, 0, 56, 0
1, 47904, Note_on_c, 1, 63, 75
1, 47904, Note_on_c, 0, 58, 75
1, 47908, Note_on_c, 0, 80, 0
1, 47908, Note_on_c, 0, 79, 75
1, 47949, Note_on_c, 1, 63, 0
1, 47952, Note_on_c, 1, 62, 75
1, 47953, Note_on_c, 0, 79, 0
1, 47956, Note_on_c, 0, 77, 75
1, 47966, Note_on_c, 0, 77, 0
1, 47966, Note_on_c, 0, 79, 75
1, 47976, Note_on_c, 0, 79, 0
1, 47976, Note_on_c, 0, 77, 75
1, 47986, Note_on_c, 0, 77, 0
1, 47986, Note_on_c, 0, 75, 75
1, 47993, Note_on_c, 0, 58, 0
1, 47995, Note_on_c, 0, 75, 0
1, 47995, Note_on_c, 0, 77, 75
1, 47997, Note_on_c, 1, 62, 0
1, 48000, Note_on_c, 1, 63, 75
1, 48004, Note_on_c, 0, 77, 0
1, 48004, Note_on_c, 0, 75, 75
1, 48015, Note_on_c, 1, 63, 0
1, 48016, Note_on_c, 1, 67, 75
1, 48027, Note_on_c, 0, 75, 0
1, 48031, Note_on_c, 1, 67, 0
1, 48032, Note_on_c, 1, 70, 75
1, 48047, Note_on_c, 1, 70, 0
1, 48052, Note_on_c, 0, 75, 75
1, 48067, Note_on_c, 0, 75, 0
1, 48068, Note_on_c, 0, 79, 75
1, 48083, Note_on_c, 0, 79, 0
1, 48084, Note_on_c, 0, 82, 75
1, 48099, Note_on_c, 0, 82, 0
1, 48100, Note_on_c, 0, 80, 75
1, 48115, Note_on_c, 0, 80, 0
1, 48116, Note_on_c, 0, 77, 75
1, 48131, Note_on_c, 0, 77, 0
1, 48132, Note_on_c, 0, 74, 75
1, 48144, Note_on_c, 1, 65, 75
1, 48144, Note_on_c, 0, 58, 75
1, 48147, Note_on_c, 0, 74, 0
1, 48148, Note_on_c, 0, 77, 75
1, 48163, Note_on_c, 0, 77, 0
1, 48164, Note_on_c, 0, 74, 75
1, 48179, Note_on_c, 0, 74, 0
1, 48180, Note_on_c, 0, 68, 75
1, 48189, Note_on_c, 1, 65, 0
1, 48189, Note_on_c, 0, 58, 0
1, 48192, Note_on_c, 1, 63, 75
1, 48192, Note_on_c, 0, 63, 75
1, 48195, Note_on_c, 0, 68, 0
1, 48196, Note_on_c, 0, 67, 75
1, 48211, Note_on_c, 0, 67, 0
1, 48212, Note_on_c, 0, 70, 75
1, 48227, Note_on_c, 0, 70, 0
1, 48228, Note_on_c, 0, 75, 75
1, 48237, Note_on_c, 1, 63, 0
1, 48237, Note_on_c, 0, 63, 0
1, 48240, Note_on_c, 1, 68, 75
1, 48240, Note_on_c, 0, 56, 75
1, 48243, Note_on_c, 0, 75, 0
1, 48244, Note_on_c, 0, 72, 75
1, 48259, Note_on_c, 0, 72, 0
1, 48260, Note_on_c, 0, 80, 75
1, 48275, Note_on_c, 0, 80, 0
1, 48276, Note_on_c, 0, 77, 75
1, 48285, Note_on_c, 1, 68, 0
1, 48285, Note_on_c, 0, 56, 0
1, 48288, Note_on_c, 1, 67, 75
1, 48288, Note_on_c, 0, 58, 75
1, 48291, Note_on_c, 0, 77, 0
1, 48292, Note_on_c, 0, 75, 75
1, 48333, Note_on_c, 1, 67, 0
1, 48336, Note_on_c, 1, 65, 75
1, 48337, Note_on_c, 0, 75, 0
1, 48340, Note_on_c, 0, 74, 75
1, 48350, Note_on_c, 0, 74, 0
1, 48350, Note_on_c, 0, 75, 75
1, 48360, Note_on_c, 0, 75, 0
1, 48360, Note_on_c, 0, 74, 75
1, 48370, Note_on_c, 0, 74, 0
1, 48370, Note_on_c, 0, 72, 75
1, 48377, Note_on_c, 0, 58, 0
1, 48379, Note_on_c, 0, 72, 0
1, 48379, Note_on_c, 0, 74, 75
1, 48381, Note_on_c, 1, 65, 0
1, 48384, Note_on_c, 1, 51, 75
1, 48388, Note_on_c, 0, 74, 0
1, 48388, Note_on_c, 0, 75, 75
1, 48399, Note_on_c, 1, 51, 0
1, 48400, Note_on_c, 1, 55, 75
1, 48411, Note_on_c, 0, 75, 0
1, 48415, Note_on_c, 1, 55, 0
1, 48416, Note_on_c, 1, 58, 75
1, 48431, Note_on_c, 1, 58, 0
1, 48436, Note_on_c, 0, 63, 75
1, 48451, Note_on_c, 0, 63, 0
1, 48452, Note_on_c, 0, 67, 75
1, 48467, Note_on_c, 0, 67, 0
1, 48468, Note_on_c, 0, 70, 75
1, 48483, Note_on_c, 0, 70, 0
1, 48484, Note_on_c, 0, 68, 75
1, 48499, Note_on_c, 0, 68, 0
1, 48500, Note_on_c, 0, 65, 75
1, 48515, Note_on_c, 0, 65, 0
1, 48516, Note_on_c, 0, 62, 75
1, 48528, Note_on_c, 1, 53, 75
1, 48528, Note_on_c, 0, 46, 75
1, 48531, Note_on_c, 0, 62, 0
1, 48532, Note_on_c, 0, 65, 75
1, 48547, Note_on_c, 0, 65, 0
1, 48548, Note_on_c, 0, 62, 75
1, 48563, Note_on_c, 0, 62, 0
1, 48564, Note_on_c, 0, 56, 75
1, 48573, Note_on_c, 1, 53, 0
1, 48573, Note_on_c, 0, 46, 0
1, 48576, Note_on_c, 1, 51, 75
1, 48576, Note_on_c, 0, 51, 75
1, 48579, Note_on_c, 0, 56, 0
1, 48580, Note_on_c, 0, 55, 75
1, 48595, Note_on_c, 0, 55, 0
1, 48596, Note_on_c, 0, 58, 75
1, 48611, Note_on_c, 0, 58, 0
1, 48612, Note_on_c, 0, 63, 75
1, 48621, Note_on_c, 1, 51, 0
1, 48621, Note_on_c, 0, 51, 0
1, 48624, Note_on_c, 1, 56, 75
1, 48624, Note_on_c, 0, 44, 75
1, 48627, Note_on_c, 0, 63, 0
1, 48628, Note_on_c, 0, 60, 75
1, 48643, Note_on_c, 0, 60, 0
1, 48644, Note_on_c, 0, 68, 75
1, 48659, Note_on_c, 0, 68, 0
1, 48660, Note_on_c, 0, 65, 75
1, 48669, Note_on_c, 1, 56, 0
1, 48669, Note_on_c, 0, 44, 0
1, 48672, Note_on_c, 1, 55, 75
1, 48672, Note_on_c, 0, 46, 75
1, 48675, Note_on_c, 0, 65, 0
1, 48676, Note_on_c, 0, 63, 75
1, 48717, Note_on_c, 1, 55, 0
1, 48720, Note_on_c, 1, 53, 75
1, 48721, Note_on_c, 0, 63, 0
1, 48724, Note_on_c, 0, 62, 75
1, 48734, Note_on_c, 0, 62, 0
1, 48734, Note_on_c, 0, 63, 75
1, 48744, Note_on_c, 0, 63, 0
1, 48744, Note_on_c, 0, 62, 75
1, 48754, Note_on_c, 0, 62, 0
1, 48754, Note_on_c, 0, 60, 75
1, 48761, Note_on_c, 0, 46, 0
1, 48763, Note_on_c, 0, 60, 0
1, 48763, Note_on_c, 0, 62, 75
1, 48765, Note_on_c, 1, 53, 0
1, 48768, Note_on_c, 1, 51, 75
1, 48772, Note_on_c, 0, 62, 0
1, 48772, Note_on_c, 0, 63, 75
1, 48857, Note_on_c, 1, 51, 0
1, 48861, Note_on_c, 0, 63, 0
1, 48864, Note_on_c, 1, 53, 66
1, 48864, Note_on_c, 1, 46, 66
1, 48868, Note_on_c, 0, 58, 70
1, 48886, Note_on_c, 0, 58, 0
1, 48886, Note_on_c, 0, 68, 70
1, 48935, Note_on_c, 0, 68, 0
1, 48940, Note_on_c, 0, 65, 70
1, 48952, Note_on_c, 0, 65, 0
1, 48952, Note_on_c, 0, 62, 70
1, 48953, Note_on_c, 1, 53, 0
1, 48953, Note_on_c, 1, 46, 0
1, 48960, Note_on_c, 1, 55, 66
1, 48960, Note_on_c, 1, 51, 66
1, 48964, Note_on_c, 0, 62, 0
1, 48964, Note_on_c, 0, 63, 70
1, 49049, Note_on_c, 1, 55, 0
1, 49049, Note_on_c, 1, 51, 0
1, 49053, Note_on_c, 0, 63, 0
1, 49152, Note_on_c, 1, 51, 0
1, 49241, Note_on_c, 1, 51, 0
1, 49251, End_track
0, 0, End_of_file