0, 0, Header, 0, 1, 96
1, 0, Start_track
1, 0, Tempo, 545454
1, 0, Note_on_c, 0, 72, 64
1, 20, Note_on_c, 0, 72, 0
1, 96, Note_on_c, 0, 67, 64
1, 116, Note_on_c, 0, 67, 0
1, 192, Note_on_c, 0, 64, 64
1, 212, Note_on_c, 0, 64, 0
1, 240, Note_on_c, 1, 48, 64
1, 260, Note_on_c, 1, 48, 0
1, 288, Note_on_c, 1, 36, 64
1, 308, Note_on_c, 1, 36, 0
1, 336, Note_on_c, 0, 69, 64
1, 356, Note_on_c, 0, 69, 0
1, 384, Note_on_c, 0, 62, 64
1, 404, Note_on_c, 0, 62, 0
1, 432, Note_on_c, 1, 48, 64
1, 452, Note_on_c, 1, 48, 0
1, 480, Note_on_c, 1, 36, 64
1, 500, Note_on_c, 1, 36, 0
1, 528, Note_on_c, 0, 67, 64
1, 548, Note_on_c, 0, 67, 0
1, 576, Note_on_c, 0, 60, 64
1, 596, Note_on_c, 0, 60, 0
1, 624, Note_on_c, 1, 48, 64
1, 644, Note_on_c, 1, 48, 0
1, 672, Note_on_c, 1, 36, 64
1, 692, Note_on_c, 1, 36, 0
1, 720, Note_on_c, 0, 76, 64
1, 768, Note_on_c, 0, 76, 0
1, 768, Note_on_c, 0, 65, 64
1, 788, Note_on_c, 0, 65, 0
1, 816, Note_on_c, 1, 48, 64
1, 864, Note_on_c, 1, 48, 0
1, 864, Note_on_c, 1, 36, 64
1, 884, Note_on_c, 1, 36, 0
1, 912, Note_on_c, 0, 74, 64
1, 960, Note_on_c, 0, 74, 0
1, 960, Note_on_c, 0, 64, 64
1, 980, Note_on_c, 0, 64, 0
1, 1008, Note_on_c, 1, 48, 64
1, 1056, Note_on_c, 1, 48, 0
1, 1056, Note_on_c, 1, 36, 64
1, 1076, Note_on_c, 1, 36, 0
1, 1104, Note_on_c, 0, 72, 64
1, 1149, Note_on_c, 0, 72, 0
1, 1152, Note_on_c, 0, 62, 64
1, 1200, Note_on_c, 0, 62, 0
1, 1200, Note_on_c, 0, 69, 64
1, 1200, Note_on_c, 1, 48, 64
1, 1245, Note_on_c, 0, 69, 0
1, 1248, Note_on_c, 0, 57, 64
1, 1248, Note_on_c, 1, 48, 0
1, 1248, Note_on_c, 1, 36, 64
1, 1268, Note_on_c, 1, 36, 0
1, 1296, Note_on_c, 0, 57, 0
1, 1296, Note_on_c, 0, 59, 64
1, 1341, Note_on_c, 0, 59, 0
1, 1344, Note_on_c, 0, 62, 64
1, 1392, Note_on_c, 0, 62, 0
1, 1392, Note_on_c, 0, 60, 64
1, 1392, Note_on_c, 1, 48, 64
1, 1437, Note_on_c, 0, 60, 0
1, 1440, Note_on_c, 1, 48, 0
1, 1440, Note_on_c, 1, 36, 64
1, 1460, Note_on_c, 1, 36, 0
1, 1488, Note_on_c, 0, 62, 64
1, 1488, Note_on_c, 0, 59, 64
1, 1508, Note_on_c, 0, 62, 0
1, 1508, Note_on_c, 0, 59, 0
1, 1536, Note_on_c, 0, 65, 64
1, 1536, Note_on_c, 0, 62, 64
1, 1584, Note_on_c, 0, 65, 0
1, 1584, Note_on_c, 0, 62, 0
1, 1584, Note_on_c, 0, 64, 64
1, 1584, Note_on_c, 0, 60, 64
1, 1584, Note_on_c, 1, 48, 64
1, 1629, Note_on_c, 0, 64, 0
1, 1629, Note_on_c, 0, 60, 0
1, 1632, Note_on_c, 1, 48, 0
1, 1632, Note_on_c, 1, 36, 64
1, 1652, Note_on_c, 1, 36, 0
1, 1680, Note_on_c, 0, 65, 64
1, 1680, Note_on_c, 0, 62, 64
1, 1700, Note_on_c, 0, 65, 0
1, 1700, Note_on_c, 0, 62, 0
1, 1728, Note_on_c, 0, 69, 64
1, 1728, Note_on_c, 0, 65, 64
1, 1776, Note_on_c, 0, 69, 0
1, 1776, Note_on_c, 0, 65, 0
1, 1776, Note_on_c, 0, 67, 64
1, 1776, Note_on_c, 0, 64, 64
1, 1776, Note_on_c, 1, 48, 64
1, 1821, Note_on_c, 0, 67, 0
1, 1821, Note_on_c, 0, 64, 0
1, 1824, Note_on_c, 1, 48, 0
1, 1824, Note_on_c, 1, 36, 66
1, 1844, Note_on_c, 1, 36, 0
1, 1872, Note_on_c, 0, 71, 68
1, 1872, Note_on_c, 0, 62, 68
1, 1892, Note_on_c, 0, 71, 0
1, 1892, Note_on_c, 0, 62, 0
1, 1920, Note_on_c, 0, 74, 70
1, 1920, Note_on_c, 0, 65, 70
1, 1968, Note_on_c, 0, 74, 0
1, 1968, Note_on_c, 0, 65, 0
1, 1968, Note_on_c, 0, 72, 73
1, 1968, Note_on_c, 0, 64, 73
1, 1968, Note_on_c, 1, 48, 74
1, 2013, Note_on_c, 0, 72, 0
1, 2013, Note_on_c, 0, 64, 0
1, 2016, Note_on_c, 1, 48, 0
1, 2016, Note_on_c, 1, 36, 77
1, 2036, Note_on_c, 1, 36, 0
1, 2064, Note_on_c, 0, 74, 77
1, 2064, Note_on_c, 0, 71, 77
1, 2084, Note_on_c, 0, 74, 0
1, 2084, Note_on_c, 0, 71, 0
1, 2112, Tempo, 1500000
1, 2112, Note_on_c, 0, 77, 98
1, 2112, Note_on_c, 0, 74, 98
1, 2208, Note_on_c, 0, 77, 0
1, 2208, Note_on_c, 0, 74, 0
1, 2208, Note_on_c, 0, 76, 64
1, 2208, Note_on_c, 0, 72, 64
1, 2223, Note_on_c, 0, 76, 0
1, 2223, Note_on_c, 0, 72, 0
1, 2304, Tempo, 545454
1, 2304, Note_on_c, 0, 72, 80
1, 2304, Note_on_c, 1, 36, 80
1, 2310, Note_on_c, 0, 76, 80
1, 2310, Note_on_c, 1, 40, 80
1, 2316, Note_on_c, 0, 79, 80
1, 2316, Note_on_c, 1, 43, 80
1, 2322, Note_on_c, 0, 84, 80
1, 2322, Note_on_c, 1, 48, 80
1, 2349, Note_on_c, 0, 84, 0
1, 2349, Note_on_c, 0, 79, 0
1, 2349, Note_on_c, 0, 76, 0
1, 2349, Note_on_c, 0, 72, 0
1, 2349, Note_on_c, 1, 48, 0
1, 2349, Note_on_c, 1, 43, 0
1, 2349, Note_on_c, 1, 40, 0
1, 2349, Note_on_c, 1, 36, 0
1, 2400, Note_on_c, 0, 71, 80
1, 2400, Note_on_c, 1, 43, 80
1, 2406, Note_on_c, 1, 47, 80
1, 2408, Note_on_c, 0, 74, 80
1, 2412, Note_on_c, 1, 50, 80
1, 2416, Note_on_c, 0, 79, 80
1, 2418, Note_on_c, 1, 55, 80
1, 2445, Note_on_c, 0, 79, 0
1, 2445, Note_on_c, 0, 74, 0
1, 2445, Note_on_c, 0, 71, 0
1, 2445, Note_on_c, 1, 55, 0
1, 2445, Note_on_c, 1, 50, 0
1, 2445, Note_on_c, 1, 47, 0
1, 2445, Note_on_c, 1, 43, 0
1, 2496, Note_on_c, 0, 67, 80
1, 2496, Note_on_c, 1, 48, 80
1, 2502, Note_on_c, 1, 52, 80
1, 2504, Note_on_c, 0, 72, 80
1, 2508, Note_on_c, 1, 55, 80
1, 2512, Note_on_c, 0, 76, 80
1, 2514, Note_on_c, 1, 60, 80
1, 2541, Note_on_c, 0, 76, 0
1, 2541, Note_on_c, 0, 72, 0
1, 2541, Note_on_c, 0, 67, 0
1, 2541, Note_on_c, 1, 60, 0
1, 2541, Note_on_c, 1, 55, 0
1, 2541, Note_on_c, 1, 52, 0
1, 2541, Note_on_c, 1, 48, 0
1, 2640, Note_on_c, 0, 83, 75
1, 2652, Note_on_c, 0, 83, 0
1, 2652, Note_on_c, 0, 81, 75
1, 2664, Note_on_c, 0, 81, 0
1, 2664, Note_on_c, 0, 80, 75
1, 2676, Note_on_c, 0, 80, 0
1, 2676, Note_on_c, 0, 81, 75
1, 2688, Note_on_c, 0, 81, 0
1, 2688, Note_on_c, 0, 74, 75
1, 2708, Note_on_c, 0, 74, 0
1, 2736, Note_on_c, 1, 71, 64
1, 2736, Note_on_c, 1, 65, 64
1, 2756, Note_on_c, 1, 71, 0
1, 2756, Note_on_c, 1, 65, 0
1, 2784, Note_on_c, 1, 71, 64
1, 2784, Note_on_c, 1, 65, 64
1, 2804, Note_on_c, 1, 71, 0
1, 2804, Note_on_c, 1, 65, 0
1, 2832, Note_on_c, 0, 81, 75
1, 2844, Note_on_c, 0, 81, 0
1, 2844, Note_on_c, 0, 79, 75
1, 2856, Note_on_c, 0, 79, 0
1, 2856, Note_on_c, 0, 78, 75
1, 2868, Note_on_c, 0, 78, 0
1, 2868, Note_on_c, 0, 79, 75
1, 2880, Note_on_c, 0, 79, 0
1, 2880, Note_on_c, 0, 72, 75
1, 2900, Note_on_c, 0, 72, 0
1, 2928, Note_on_c, 1, 67, 64
1, 2928, Note_on_c, 1, 64, 64
1, 2948, Note_on_c, 1, 67, 0
1, 2948, Note_on_c, 1, 64, 0
1, 2976, Note_on_c, 1, 67, 64
1, 2976, Note_on_c, 1, 64, 64
1, 2996, Note_on_c, 1, 67, 0
1, 2996, Note_on_c, 1, 64, 0
1, 3024, Note_on_c, 0, 88, 75
1, 3072, Note_on_c, 0, 88, 0
1, 3072, Note_on_c, 0, 77, 75
1, 3092, Note_on_c, 0, 77, 0
1, 3096, Note_on_c, 1, 62, 70
1, 3119, Note_on_c, 1, 62, 0
1, 3120, Note_on_c, 1, 61, 69
1, 3143, Note_on_c, 1, 61, 0
1, 3144, Note_on_c, 1, 62, 68
1, 3167, Note_on_c, 1, 62, 0
1, 3168, Note_on_c, 1, 60, 67
1, 3191, Note_on_c, 1, 60, 0
1, 3192, Note_on_c, 1, 59, 66
1, 3215, Note_on_c, 1, 59, 0
1, 3216, Note_on_c, 0, 86, 75
1, 3216, Note_on_c, 1, 57, 65
1, 3239, Note_on_c, 1, 57, 0
1, 3240, Note_on_c, 1, 55, 64
1, 3263, Note_on_c, 1, 55, 0
1, 3264, Note_on_c, 0, 86, 0
1, 3264, Note_on_c, 0, 76, 75
1, 3284, Note_on_c, 0, 76, 0
1, 3288, Note_on_c, 1, 60, 64
1, 3311, Note_on_c, 1, 60, 0
1, 3312, Note_on_c, 1, 62, 63
1, 3335, Note_on_c, 1, 62, 0
1, 3336, Note_on_c, 1, 64, 62
1, 3359, Note_on_c, 1, 64, 0
1, 3360, Note_on_c, 1, 65, 61
1, 3383, Note_on_c, 1, 65, 0
1, 3384, Note_on_c, 1, 67, 60
1, 3407, Note_on_c, 1, 67, 0
1, 3408, Note_on_c, 0, 84, 75
1, 3408, Note_on_c, 1, 68, 59
1, 3431, Note_on_c, 1, 68, 0
1, 3432, Note_on_c, 1, 69, 58
1, 3455, Note_on_c, 1, 69, 0
1, 3456, Note_on_c, 0, 84, 0
1, 3456, Note_on_c, 0, 74, 75
1, 3456, Note_on_c, 1, 65, 58
1, 3476, Note_on_c, 0, 74, 0
1, 3504, Note_on_c, 0, 77, 75
1, 3504, Note_on_c, 0, 81, 64
1, 3545, Note_on_c, 1, 65, 0
1, 3549, Note_on_c, 0, 77, 0
1, 3549, Note_on_c, 0, 81, 0
1, 3552, Note_on_c, 0, 76, 75
1, 3552, Note_on_c, 0, 79, 64
1, 3597, Note_on_c, 0, 76, 0
1, 3600, Note_on_c, 0, 79, 0
1, 3600, Note_on_c, 0, 71, 64
1, 3600, Note_on_c, 1, 67, 58
1, 3645, Note_on_c, 0, 71, 0
1, 3645, Note_on_c, 1, 67, 0
1, 3648, Note_on_c, 0, 72, 75
1, 3648, Note_on_c, 1, 64, 70
1, 3648, Note_on_c, 1, 60, 75
1, 3668, Note_on_c, 0, 72, 0
1, 3671, Note_on_c, 1, 64, 0
1, 3672, Note_on_c, 1, 67, 70
1, 3693, Note_on_c, 1, 60, 0
1, 3695, Note_on_c, 1, 67, 0
1, 3696, Note_on_c, 0, 72, 75
1, 3696, Note_on_c, 1, 64, 70
1, 3696, Note_on_c, 1, 60, 72
1, 3716, Note_on_c, 0, 72, 0
1, 3719, Note_on_c, 1, 64, 0
1, 3720, Note_on_c, 1, 67, 70
1, 3741, Note_on_c, 1, 60, 0
1, 3743, Note_on_c, 1, 67, 0
1, 3744, Note_on_c, 1, 64, 70
1, 3744, Note_on_c, 1, 60, 70
1, 3767, Note_on_c, 1, 64, 0
1, 3768, Note_on_c, 1, 67, 70
1, 3789, Note_on_c, 1, 60, 0
1, 3791, Note_on_c, 1, 67, 0
1, 3792, Note_on_c, 0, 81, 80
1, 3792, Note_on_c, 1, 64, 70
1, 3792, Note_on_c, 1, 60, 70
1, 3804, Note_on_c, 0, 81, 0
1, 3804, Note_on_c, 0, 79, 80
1, 3815, Note_on_c, 1, 64, 0
1, 3816, Note_on_c, 0, 79, 0
1, 3816, Note_on_c, 0, 78, 80
1, 3816, Note_on_c, 1, 67, 70
1, 3828, Note_on_c, 0, 78, 0
1, 3828, Note_on_c, 0, 79, 80
1, 3837, Note_on_c, 1, 60, 0
1, 3839, Note_on_c, 1, 67, 0
1, 3840, Note_on_c, 0, 79, 0
1, 3840, Note_on_c, 0, 71, 80
1, 3840, Note_on_c, 1, 65, 70
1, 3840, Note_on_c, 1, 62, 70
1, 3840, Note_on_c, 1, 60, 70
1, 3860, Note_on_c, 0, 71, 0
1, 3863, Note_on_c, 1, 65, 0
1, 3863, Note_on_c, 1, 62, 0
1, 3864, Note_on_c, 1, 67, 70
1, 3885, Note_on_c, 1, 60, 0
1, 3887, Note_on_c, 1, 67, 0
1, 3888, Note_on_c, 0, 71, 80
1, 3888, Note_on_c, 1, 65, 70
1, 3888, Note_on_c, 1, 62, 70
1, 3888, Note_on_c, 1, 60, 70
1, 3908, Note_on_c, 0, 71, 0
1, 3911, Note_on_c, 1, 65, 0
1, 3911, Note_on_c, 1, 62, 0
1, 3912, Note_on_c, 1, 67, 70
1, 3933, Note_on_c, 1, 60, 0
1, 3935, Note_on_c, 1, 67, 0
1, 3936, Note_on_c, 1, 65, 70
1, 3936, Note_on_c, 1, 62, 70
1, 3936, Note_on_c, 1, 60, 70
1, 3959, Note_on_c, 1, 65, 0
1, 3959, Note_on_c, 1, 62, 0
1, 3960, Note_on_c, 1, 67, 70
1, 3981, Note_on_c, 1, 60, 0
1, 3983, Note_on_c, 1, 67, 0
1, 3984, Note_on_c, 0, 81, 80
1, 3984, Note_on_c, 1, 65, 70
1, 3984, Note_on_c, 1, 62, 70
1, 3984, Note_on_c, 1, 60, 70
1, 3996, Note_on_c, 0, 81, 0
1, 3996, Note_on_c, 0, 79, 80
1, 4007, Note_on_c, 1, 65, 0
1, 4007, Note_on_c, 1, 62, 0
1, 4008, Note_on_c, 0, 79, 0
1, 4008, Note_on_c, 0, 78, 80
1, 4008, Note_on_c, 1, 67, 70
1, 4020, Note_on_c, 0, 78, 0
1, 4020, Note_on_c, 0, 79, 80
1, 4029, Note_on_c, 1, 60, 0
1, 4031, Note_on_c, 1, 67, 0
1, 4032, Note_on_c, 0, 79, 0
1, 4032, Note_on_c, 0, 84, 80
1, 4032, Note_on_c, 1, 64, 70
1, 4032, Note_on_c, 1, 60, 70
1, 4055, Note_on_c, 1, 64, 0
1, 4056, Note_on_c, 1, 67, 68
1, 4077, Note_on_c, 1, 60, 0
1, 4079, Note_on_c, 1, 67, 0
1, 4080, Note_on_c, 0, 84, 0
1, 4080, Note_on_c, 0, 88, 80
1, 4080, Note_on_c, 1, 64, 67
1, 4080, Note_on_c, 1, 60, 70
1, 4103, Note_on_c, 1, 64, 0
1, 4104, Note_on_c, 1, 67, 66
1, 4125, Note_on_c, 0, 88, 0
1, 4125, Note_on_c, 1, 60, 0
1, 4127, Note_on_c, 1, 67, 0
1, 4128, Note_on_c, 1, 64, 65
1, 4128, Note_on_c, 1, 60, 70
1, 4151, Note_on_c, 1, 64, 0
1, 4152, Note_on_c, 0, 79, 70
1, 4152, Note_on_c, 1, 67, 64
1, 4173, Note_on_c, 1, 60, 0
1, 4175, Note_on_c, 0, 79, 0
1, 4175, Note_on_c, 1, 67, 0
1, 4176, Note_on_c, 0, 81, 70
1, 4176, Note_on_c, 1, 64, 64
1, 4176, Note_on_c, 1, 60, 70
1, 4188, Note_on_c, 0, 81, 0
1, 4188, Note_on_c, 0, 79, 70
1, 4199, Note_on_c, 1, 64, 0
1, 4200, Note_on_c, 0, 79, 0
1, 4200, Note_on_c, 0, 78, 70
1, 4200, Note_on_c, 1, 67, 64
1, 4212, Note_on_c, 0, 78, 0
1, 4212, Note_on_c, 0, 79, 70
1, 4221, Note_on_c, 1, 60, 0
1, 4223, Note_on_c, 1, 67, 0
1, 4224, Note_on_c, 0, 79, 0
1, 4224, Note_on_c, 0, 71, 70
1, 4224, Note_on_c, 1, 65, 64
1, 4224, Note_on_c, 1, 62, 64
1, 4224, Note_on_c, 1, 60, 70
1, 4244, Note_on_c, 0, 71, 0
1, 4247, Note_on_c, 1, 65, 0
1, 4247, Note_on_c, 1, 62, 0
1, 4248, Note_on_c, 1, 67, 64
1, 4269, Note_on_c, 1, 60, 0
1, 4271, Note_on_c, 1, 67, 0
1, 4272, Note_on_c, 0, 71, 70
1, 4272, Note_on_c, 1, 65, 64
1, 4272, Note_on_c, 1, 62, 64
1, 4272, Note_on_c, 1, 60, 70
1, 4292, Note_on_c, 0, 71, 0
1, 4295, Note_on_c, 1, 65, 0
1, 4295, Note_on_c, 1, 62, 0
1, 4296, Note_on_c, 1, 67, 64
1, 4317, Note_on_c, 1, 60, 0
1, 4319, Note_on_c, 1, 67, 0
1, 4320, Note_on_c, 1, 65, 64
1, 4320, Note_on_c, 1, 62, 64
1, 4320, Note_on_c, 1, 60, 70
1, 4343, Note_on_c, 1, 65, 0
1, 4343, Note_on_c, 1, 62, 0
1, 4344, Note_on_c, 0, 79, 70
1, 4344, Note_on_c, 1, 67, 64
1, 4365, Note_on_c, 1, 60, 0
1, 4367, Note_on_c, 0, 79, 0
1, 4367, Note_on_c, 1, 67, 0
1, 4368, Note_on_c, 0, 81, 70
1, 4368, Note_on_c, 1, 65, 64
1, 4368, Note_on_c, 1, 62, 64
1, 4368, Note_on_c, 1, 60, 70
1, 4380, Note_on_c, 0, 81, 0
1, 4380, Note_on_c, 0, 79, 70
1, 4391, Note_on_c, 1, 65, 0
1, 4391, Note_on_c, 1, 62, 0
1, 4392, Note_on_c, 0, 79, 0
1, 4392, Note_on_c, 0, 78, 70
1, 4392, Note_on_c, 1, 67, 64
1, 4404, Note_on_c, 0, 78, 0
1, 4404, Note_on_c, 0, 79, 70
1, 4413, Note_on_c, 1, 60, 0
1, 4415, Note_on_c, 1, 67, 0
1, 4416, Note_on_c, 0, 79, 0
1, 4416, Note_on_c, 0, 84, 70
1, 4416, Note_on_c, 1, 64, 64
1, 4416, Note_on_c, 1, 60, 70
1, 4439, Note_on_c, 1, 64, 0
1, 4440, Note_on_c, 1, 67, 65
1, 4461, Note_on_c, 1, 60, 0
1, 4463, Note_on_c, 1, 67, 0
1, 4464, Note_on_c, 0, 84, 0
1, 4464, Note_on_c, 0, 88, 70
1, 4464, Note_on_c, 1, 64, 66
1, 4464, Note_on_c, 1, 60, 70
1, 4487, Note_on_c, 1, 64, 0
1, 4488, Note_on_c, 1, 67, 67
1, 4509, Note_on_c, 0, 88, 0
1, 4509, Note_on_c, 1, 60, 0
1, 4511, Note_on_c, 1, 67, 0
1, 4512, Note_on_c, 1, 64, 68
1, 4512, Note_on_c, 1, 60, 70
1, 4535, Note_on_c, 1, 64, 0
1, 4536, Note_on_c, 0, 79, 80
1, 4536, Note_on_c, 1, 67, 70
1, 4557, Note_on_c, 1, 60, 0
1, 4559, Note_on_c, 0, 79, 0
1, 4559, Note_on_c, 1, 67, 0
1, 4560, Note_on_c, 0, 81, 80
1, 4560, Note_on_c, 1, 64, 70
1, 4560, Note_on_c, 1, 60, 70
1, 4572, Note_on_c, 0, 81, 0
1, 4572, Note_on_c, 0, 79, 80
1, 4583, Note_on_c, 1, 64, 0
1, 4584, Note_on_c, 0, 79, 0
1, 4584, Note_on_c, 0, 78, 80
1, 4584, Note_on_c, 1, 67, 70
1, 4596, Note_on_c, 0, 78, 0
1, 4596, Note_on_c, 0, 79, 80
1, 4605, Note_on_c, 1, 60, 0
1, 4607, Note_on_c, 1, 67, 0
1, 4608, Note_on_c, 0, 79, 0
1, 4608, Note_on_c, 0, 71, 80
1, 4608, Note_on_c, 1, 65, 70
1, 4608, Note_on_c, 1, 62, 70
1, 4608, Note_on_c, 1, 60, 70
1, 4628, Note_on_c, 0, 71, 0
1, 4631, Note_on_c, 1, 65, 0
1, 4631, Note_on_c, 1, 62, 0
1, 4632, Note_on_c, 1, 67, 70
1, 4653, Note_on_c, 1, 60, 0
1, 4655, Note_on_c, 1, 67, 0
1, 4656, Note_on_c, 0, 71, 80
1, 4656, Note_on_c, 1, 65, 70
1, 4656, Note_on_c, 1, 62, 70
1, 4656, Note_on_c, 1, 60, 70
1, 4676, Note_on_c, 0, 71, 0
1, 4679, Note_on_c, 1, 65, 0
1, 4679, Note_on_c, 1, 62, 0
1, 4680, Note_on_c, 1, 67, 70
1, 4701, Note_on_c, 1, 60, 0
1, 4703, Note_on_c, 1, 67, 0
1, 4704, Note_on_c, 1, 65, 70
1, 4704, Note_on_c, 1, 62, 70
1, 4704, Note_on_c, 1, 60, 70
1, 4727, Note_on_c, 1, 65, 0
1, 4727, Note_on_c, 1, 62, 0
1, 4728, Note_on_c, 1, 67, 70
1, 4749, Note_on_c, 1, 60, 0
1, 4751, Note_on_c, 1, 67, 0
1, 4752, Note_on_c, 0, 81, 80
1, 4752, Note_on_c, 1, 65, 70
1, 4752, Note_on_c, 1, 62, 70
1, 4752, Note_on_c, 1, 60, 70
1, 4764, Note_on_c, 0, 81, 0
1, 4764, Note_on_c, 0, 79, 80
1, 4775, Note_on_c, 1, 65, 0
1, 4775, Note_on_c, 1, 62, 0
1, 4776, Note_on_c, 0, 79, 0
1, 4776, Note_on_c, 0, 78, 80
1, 4776, Note_on_c, 1, 67, 70
1, 4788, Note_on_c, 0, 78, 0
1, 4788, Note_on_c, 0, 79, 80
1, 4797, Note_on_c, 1, 60, 0
1, 4799, Note_on_c, 1, 67, 0
1, 4800, Note_on_c, 0, 79, 0
1, 4800, Note_on_c, 0, 72, 80
1, 4800, Note_on_c, 1, 64, 70
1, 4800, Note_on_c, 1, 60, 70
1, 4820, Note_on_c, 0, 72, 0
1, 4823, Note_on_c, 1, 64, 0
1, 4824, Note_on_c, 1, 67, 70
1, 4845, Note_on_c, 1, 60, 0
1, 4847, Note_on_c, 1, 67, 0
1, 4848, Note_on_c, 0, 81, 80
1, 4848, Note_on_c, 1, 64, 70
1, 4848, Note_on_c, 1, 60, 70
1, 4860, Note_on_c, 0, 81, 0
1, 4860, Note_on_c, 0, 79, 80
1, 4871, Note_on_c, 1, 64, 0
1, 4872, Note_on_c, 0, 79, 0
1, 4872, Note_on_c, 0, 78, 80
1, 4872, Note_on_c, 1, 67, 70
1, 4884, Note_on_c, 0, 78, 0
1, 4884, Note_on_c, 0, 79, 80
1, 4893, Note_on_c, 1, 60, 0
1, 4895, Note_on_c, 1, 67, 0
1, 4896, Note_on_c, 0, 79, 0
1, 4896, Note_on_c, 0, 74, 80
1, 4896, Note_on_c, 1, 62, 70
1, 4896, Note_on_c, 1, 59, 70
1, 4916, Note_on_c, 0, 74, 0
1, 4919, Note_on_c, 1, 62, 0
1, 4920, Note_on_c, 1, 67, 70
1, 4941, Note_on_c, 1, 59, 0
1, 4943, Note_on_c, 1, 67, 0
1, 4944, Note_on_c, 0, 81, 80
1, 4944, Note_on_c, 1, 62, 70
1, 4944, Note_on_c, 1, 59, 70
1, 4956, Note_on_c, 0, 81, 0
1, 4956, Note_on_c, 0, 79, 80
1, 4967, Note_on_c, 1, 62, 0
1, 4968, Note_on_c, 0, 79, 0
1, 4968, Note_on_c, 0, 78, 80
1, 4968, Note_on_c, 1, 67, 70
1, 4980, Note_on_c, 0, 78, 0
1, 4980, Note_on_c, 0, 79, 80
1, 4989, Note_on_c, 1, 59, 0
1, 4991, Note_on_c, 1, 67, 0
1, 4992, Note_on_c, 0, 79, 0
1, 4992, Note_on_c, 0, 76, 80
1, 4992, Note_on_c, 1, 64, 70
1, 4992, Note_on_c, 1, 60, 70
1, 5012, Note_on_c, 0, 76, 0
1, 5015, Note_on_c, 1, 64, 0
1, 5016, Note_on_c, 1, 67, 70
1, 5037, Note_on_c, 1, 60, 0
1, 5039, Note_on_c, 1, 67, 0
1, 5040, Note_on_c, 0, 81, 80
1, 5040, Note_on_c, 1, 64, 70
1, 5040, Note_on_c, 1, 60, 70
1, 5052, Note_on_c, 0, 81, 0
1, 5052, Note_on_c, 0, 79, 80
1, 5063, Note_on_c, 1, 64, 0
1, 5064, Note_on_c, 0, 79, 0
1, 5064, Note_on_c, 0, 78, 80
1, 5064, Note_on_c, 1, 67, 70
1, 5076, Note_on_c, 0, 78, 0
1, 5076, Note_on_c, 0, 79, 80
1, 5085, Note_on_c, 1, 60, 0
1, 5087, Note_on_c, 1, 67, 0
1, 5088, Note_on_c, 0, 79, 0
1, 5088, Note_on_c, 0, 71, 80
1, 5088, Note_on_c, 1, 65, 70
1, 5088, Note_on_c, 1, 62, 70
1, 5108, Note_on_c, 0, 71, 0
1, 5111, Note_on_c, 1, 65, 0
1, 5112, Note_on_c, 1, 67, 70
1, 5133, Note_on_c, 1, 62, 0
1, 5135, Note_on_c, 1, 67, 0
1, 5136, Note_on_c, 0, 81, 80
1, 5136, Note_on_c, 1, 65, 70
1, 5136, Note_on_c, 1, 62, 70
1, 5148, Note_on_c, 0, 81, 0
1, 5148, Note_on_c, 0, 79, 80
1, 5159, Note_on_c, 1, 65, 0
1, 5160, Note_on_c, 0, 79, 0
1, 5160, Note_on_c, 0, 78, 80
1, 5160, Note_on_c, 1, 67, 70
1, 5172, Note_on_c, 0, 78, 0
1, 5172, Note_on_c, 0, 79, 80
1, 5181, Note_on_c, 1, 62, 0
1, 5183, Note_on_c, 1, 67, 0
1, 5184, Note_on_c, 0, 79, 0
1, 5184, Note_on_c, 0, 72, 75
1, 5184, Note_on_c, 1, 64, 70
1, 5184, Note_on_c, 1, 64, 70
1, 5204, Note_on_c, 0, 72, 0
1, 5207, Note_on_c, 1, 64, 0
1, 5208, Note_on_c, 1, 67, 70
1, 5229, Note_on_c, 1, 64, 0
1, 5231, Note_on_c, 1, 67, 0
1, 5232, Note_on_c, 0, 81, 76
1, 5232, Note_on_c, 1, 64, 71
1, 5232, Note_on_c, 1, 64, 70
1, 5244, Note_on_c, 0, 81, 0
1, 5244, Note_on_c, 0, 79, 76
1, 5255, Note_on_c, 1, 64, 0
1, 5256, Note_on_c, 0, 79, 0
1, 5256, Note_on_c, 0, 78, 76
1, 5256, Note_on_c, 1, 67, 71
1, 5268, Note_on_c, 0, 78, 0
1, 5268, Note_on_c, 0, 79, 76
1, 5277, Note_on_c, 1, 64, 0
1, 5279, Note_on_c, 1, 67, 0
1, 5280, Note_on_c, 0, 79, 0
1, 5280, Note_on_c, 0, 74, 77
1, 5280, Note_on_c, 1, 62, 72
1, 5280, Note_on_c, 1, 59, 70
1, 5300, Note_on_c, 0, 74, 0
1, 5303, Note_on_c, 1, 62, 0
1, 5304, Note_on_c, 1, 67, 73
1, 5325, Note_on_c, 1, 59, 0
1, 5327, Note_on_c, 1, 67, 0
1, 5328, Note_on_c, 0, 81, 78
1, 5328, Note_on_c, 1, 62, 73
1, 5328, Note_on_c, 1, 59, 70
1, 5340, Note_on_c, 0, 81, 0
1, 5340, Note_on_c, 0, 79, 78
1, 5351, Note_on_c, 1, 62, 0
1, 5352, Note_on_c, 0, 79, 0
1, 5352, Note_on_c, 0, 78, 78
1, 5352, Note_on_c, 1, 67, 74
1, 5364, Note_on_c, 0, 78, 0
1, 5364, Note_on_c, 0, 79, 78
1, 5373, Note_on_c, 1, 59, 0
1, 5375, Note_on_c, 1, 67, 0
1, 5376, Note_on_c, 0, 79, 0
1, 5376, Note_on_c, 0, 76, 79
1, 5396, Note_on_c, 0, 76, 0
1, 5400, Note_on_c, 1, 60, 80
1, 5423, Note_on_c, 1, 60, 0
1, 5424, Note_on_c, 1, 64, 80
1, 5447, Note_on_c, 1, 64, 0
1, 5448, Note_on_c, 1, 67, 80
1, 5471, Note_on_c, 1, 67, 0
1, 5472, Note_on_c, 1, 72, 80
1, 5492, Note_on_c, 1, 72, 0
1, 5496, Note_on_c, 0, 76, 80
1, 5519, Note_on_c, 0, 76, 0
1, 5520, Note_on_c, 0, 79, 80
1, 5543, Note_on_c, 0, 79, 0
1, 5544, Note_on_c, 0, 84, 80
1, 5567, Note_on_c, 0, 84, 0
1, 5568, Note_on_c, 0, 88, 114
1, 5640, Note_on_c, 0, 88, 0
1, 5640, Note_on_c, 0, 86, 80
1, 5640, Note_on_c, 0, 83, 80
1, 5663, Note_on_c, 0, 86, 0
1, 5663, Note_on_c, 0, 83, 0
1, 5664, Note_on_c, 0, 84, 79
1, 5664, Note_on_c, 0, 81, 79
1, 5687, Note_on_c, 0, 84, 0
1, 5687, Note_on_c, 0, 81, 0
1, 5688, Note_on_c, 0, 83, 78
1, 5688, Note_on_c, 0, 79, 78
1, 5711, Note_on_c, 0, 83, 0
1, 5711, Note_on_c, 0, 79, 0
1, 5712, Note_on_c, 0, 81, 77
1, 5712, Note_on_c, 0, 77, 77
1, 5735, Note_on_c, 0, 81, 0
1, 5735, Note_on_c, 0, 77, 0
1, 5736, Note_on_c, 0, 79, 76
1, 5736, Note_on_c, 0, 76, 76
1, 5759, Note_on_c, 0, 79, 0
1, 5759, Note_on_c, 0, 76, 0
1, 5760, Note_on_c, 0, 77, 75
1, 5760, Note_on_c, 0, 74, 75
1, 5784, Note_on_c, 1, 61, 80
1, 5807, Note_on_c, 1, 61, 0
1, 5808, Note_on_c, 1, 62, 80
1, 5831, Note_on_c, 1, 62, 0
1, 5832, Note_on_c, 1, 64, 80
1, 5855, Note_on_c, 1, 64, 0
1, 5856, Note_on_c, 1, 65, 80
1, 5879, Note_on_c, 1, 65, 0
1, 5880, Note_on_c, 1, 64, 80
1, 5893, Note_on_c, 0, 77, 0
1, 5893, Note_on_c, 0, 74, 0
1, 5903, Note_on_c, 1, 64, 0
1, 5904, Note_on_c, 0, 76, 70
1, 5904, Note_on_c, 0, 72, 70
1, 5904, Note_on_c, 1, 65, 80
1, 5927, Note_on_c, 1, 65, 0
1, 5928, Note_on_c, 1, 66, 80
1, 5949, Note_on_c, 0, 76, 0
1, 5949, Note_on_c, 0, 72, 0
1, 5951, Note_on_c, 1, 66, 0
1, 5952, Note_on_c, 0, 74, 70
1, 5952, Note_on_c, 0, 71, 70
1, 5952, Note_on_c, 1, 67, 80
1, 5972, Note_on_c, 0, 74, 0
1, 5972, Note_on_c, 0, 71, 0
1, 5975, Note_on_c, 1, 67, 0
1, 5976, Note_on_c, 1, 55, 80
1, 5999, Note_on_c, 1, 55, 0
1, 6000, Note_on_c, 1, 67, 80
1, 6023, Note_on_c, 1, 67, 0
1, 6024, Note_on_c, 0, 79, 70
1, 6024, Note_on_c, 0, 76, 70
1, 6047, Note_on_c, 0, 79, 0
1, 6047, Note_on_c, 0, 76, 0
1, 6048, Note_on_c, 0, 78, 70
1, 6048, Note_on_c, 0, 75, 70
1, 6071, Note_on_c, 0, 78, 0
1, 6071, Note_on_c, 0, 75, 0
1, 6072, Note_on_c, 0, 79, 71
1, 6072, Note_on_c, 0, 76, 71
1, 6095, Note_on_c, 0, 79, 0
1, 6095, Note_on_c, 0, 76, 0
1, 6096, Note_on_c, 0, 81, 72
1, 6096, Note_on_c, 0, 77, 72
1, 6119, Note_on_c, 0, 81, 0
1, 6119, Note_on_c, 0, 77, 0
1, 6120, Note_on_c, 0, 79, 72
1, 6120, Note_on_c, 0, 76, 72
1, 6143, Note_on_c, 0, 79, 0
1, 6143, Note_on_c, 0, 76, 0
1, 6144, Note_on_c, 0, 77, 73
1, 6144, Note_on_c, 0, 74, 73
1, 6164, Note_on_c, 0, 77, 0
1, 6164, Note_on_c, 0, 74, 0
1, 6168, Note_on_c, 1, 67, 80
1, 6192, Note_on_c, 1, 67, 0
1, 6192, Note_on_c, 1, 55, 80
1, 6216, Note_on_c, 0, 79, 75
1, 6216, Note_on_c, 0, 76, 75
1, 6237, Note_on_c, 1, 55, 0
1, 6240, Note_on_c, 0, 79, 0
1, 6240, Note_on_c, 0, 72, 75
1, 6260, Note_on_c, 0, 76, 0
1, 6260, Note_on_c, 0, 72, 0
1, 6264, Note_on_c, 1, 67, 80
1, 6288, Note_on_c, 1, 67, 0
1, 6288, Note_on_c, 1, 55, 80
1, 6312, Note_on_c, 0, 77, 75
1, 6312, Note_on_c, 0, 74, 75
1, 6333, Note_on_c, 1, 55, 0
1, 6336, Note_on_c, 0, 77, 0
1, 6336, Note_on_c, 0, 71, 75
1, 6356, Note_on_c, 0, 74, 0
1, 6356, Note_on_c, 0, 71, 0
1, 6360, Note_on_c, 1, 67, 80
1, 6384, Note_on_c, 1, 67, 0
1, 6384, Note_on_c, 1, 55, 80
1, 6408, Note_on_c, 0, 79, 75
1, 6408, Note_on_c, 0, 76, 75
1, 6418, Note_on_c, 0, 79, 0
1, 6418, Note_on_c, 0, 76, 0
1, 6429, Note_on_c, 1, 55, 0
1, 6432, Note_on_c, 0, 78, 75
1, 6432, Note_on_c, 0, 75, 75
1, 6455, Note_on_c, 0, 78, 0
1, 6455, Note_on_c, 0, 75, 0
1, 6456, Note_on_c, 0, 79, 75
1, 6456, Note_on_c, 0, 76, 75
1, 6479, Note_on_c, 0, 79, 0
1, 6479, Note_on_c, 0, 76, 0
1, 6480, Note_on_c, 0, 81, 75
1, 6480, Note_on_c, 0, 77, 75
1, 6503, Note_on_c, 0, 81, 0
1, 6503, Note_on_c, 0, 77, 0
1, 6504, Note_on_c, 0, 79, 75
1, 6504, Note_on_c, 0, 76, 75
1, 6527, Note_on_c, 0, 79, 0
1, 6527, Note_on_c, 0, 76, 0
1, 6528, Note_on_c, 0, 77, 75
1, 6528, Note_on_c, 0, 74, 75
1, 6548, Note_on_c, 0, 77, 0
1, 6548, Note_on_c, 0, 74, 0
1, 6552, Note_on_c, 1, 67, 80
1, 6576, Note_on_c, 1, 67, 0
1, 6576, Note_on_c, 1, 55, 80
1, 6600, Note_on_c, 0, 83, 75
1, 6600, Note_on_c, 0, 77, 75
1, 6621, Note_on_c, 1, 55, 0
1, 6624, Note_on_c, 0, 83, 0
1, 6624, Note_on_c, 0, 77, 0
1, 6624, Note_on_c, 0, 84, 75
1, 6624, Note_on_c, 0, 76, 75
1, 6644, Note_on_c, 0, 84, 0
1, 6644, Note_on_c, 0, 76, 0
1, 6648, Note_on_c, 1, 67, 80
1, 6672, Note_on_c, 1, 67, 0
1, 6672, Note_on_c, 1, 55, 80
1, 6696, Note_on_c, 0, 76, 75
1, 6696, Note_on_c, 0, 72, 75
1, 6717, Note_on_c, 1, 55, 0
1, 6720, Note_on_c, 0, 76, 0
1, 6720, Note_on_c, 0, 72, 0
1, 6720, Note_on_c, 0, 74, 75
1, 6720, Note_on_c, 0, 71, 75
1, 6740, Note_on_c, 0, 74, 0
1, 6740, Note_on_c, 0, 71, 0
1, 6744, Note_on_c, 1, 67, 80
1, 6768, Note_on_c, 1, 67, 0
1, 6768, Note_on_c, 1, 55, 80
1, 6792, Note_on_c, 0, 76, 75
1, 6792, Note_on_c, 0, 72, 75
1, 6802, Note_on_c, 0, 76, 0
1, 6802, Note_on_c, 0, 72, 0
1, 6813, Note_on_c, 1, 55, 0
1, 6816, Note_on_c, 0, 74, 75
1, 6816, Note_on_c, 0, 71, 75
1, 6839, Note_on_c, 0, 74, 0
1, 6839, Note_on_c, 0, 71, 0
1, 6840, Note_on_c, 0, 76, 75
1, 6840, Note_on_c, 0, 72, 75
1, 6863, Note_on_c, 0, 76, 0
1, 6863, Note_on_c, 0, 72, 0
1, 6864, Note_on_c, 0, 74, 75
1, 6864, Note_on_c, 0, 71, 75
1, 6887, Note_on_c, 0, 74, 0
1, 6887, Note_on_c, 0, 71, 0
1, 6888, Note_on_c, 0, 76, 75
1, 6888, Note_on_c, 0, 72, 75
1, 6911, Note_on_c, 0, 76, 0
1, 6911, Note_on_c, 0, 72, 0
1, 6912, Note_on_c, 0, 74, 75
1, 6912, Note_on_c, 0, 71, 75
1, 6932, Note_on_c, 0, 74, 0
1, 6932, Note_on_c, 0, 71, 0
1, 6984, Note_on_c, 0, 54, 64
1, 6984, Note_on_c, 1, 42, 64
1, 7007, Note_on_c, 0, 54, 0
1, 7007, Note_on_c, 1, 42, 0
1, 7008, Note_on_c, 0, 55, 64
1, 7008, Note_on_c, 1, 43, 64
1, 7031, Note_on_c, 0, 55, 0
1, 7031, Note_on_c, 1, 43, 0
1, 7032, Note_on_c, 0, 54, 64
1, 7032, Note_on_c, 1, 42, 64
1, 7055, Note_on_c, 0, 54, 0
1, 7055, Note_on_c, 1, 42, 0
1, 7056, Note_on_c, 0, 55, 64
1, 7056, Note_on_c, 1, 43, 64
1, 7079, Note_on_c, 0, 55, 0
1, 7079, Note_on_c, 1, 43, 0
1, 7080, Note_on_c, 0, 54, 64
1, 7080, Note_on_c, 1, 42, 64
1, 7103, Note_on_c, 0, 54, 0
1, 7103, Note_on_c, 1, 42, 0
1, 7104, Note_on_c, 0, 55, 64
1, 7104, Note_on_c, 1, 43, 64
1, 7149, Note_on_c, 0, 55, 0
1, 7149, Note_on_c, 1, 43, 0
1, 7296, Note_on_c, 1, 55, 80
1, 7296, Note_on_c, 1, 43, 80
1, 7320, Note_on_c, 0, 74, 80
1, 7330, Note_on_c, 0, 74, 0
1, 7341, Note_on_c, 1, 55, 0
1, 7341, Note_on_c, 1, 43, 0
1, 7344, Note_on_c, 0, 76, 80
1, 7354, Note_on_c, 0, 76, 0
1, 7368, Note_on_c, 0, 78, 80
1, 7378, Note_on_c, 0, 78, 0
1, 7392, Note_on_c, 0, 79, 80
1, 7392, Note_on_c, 1, 50, 80
1, 7392, Note_on_c, 1, 38, 80
1, 7402, Note_on_c, 0, 79, 0
1, 7416, Note_on_c, 0, 81, 80
1, 7426, Note_on_c, 0, 81, 0
1, 7437, Note_on_c, 1, 50, 0
1, 7437, Note_on_c, 1, 38, 0
1, 7440, Note_on_c, 0, 83, 80
1, 7450, Note_on_c, 0, 83, 0
1, 7464, Note_on_c, 0, 84, 80
1, 7474, Note_on_c, 0, 84, 0
1, 7488, Note_on_c, 0, 86, 80
1, 7488, Note_on_c, 1, 47, 80
1, 7488, Note_on_c, 1, 35, 80
1, 7498, Note_on_c, 0, 86, 0
1, 7512, Note_on_c, 0, 84, 80
1, 7522, Note_on_c, 0, 84, 0
1, 7533, Note_on_c, 1, 47, 0
1, 7533, Note_on_c, 1, 35, 0
1, 7536, Note_on_c, 0, 83, 80
1, 7546, Note_on_c, 0, 83, 0
1, 7560, Note_on_c, 0, 81, 80
1, 7570, Note_on_c, 0, 81, 0
1, 7584, Note_on_c, 0, 79, 80
1, 7607, Note_on_c, 0, 79, 0
1, 7608, Note_on_c, 0, 81, 80
1, 7631, Note_on_c, 0, 81, 0
1, 7632, Note_on_c, 0, 83, 80
1, 7632, Note_on_c, 1, 52, 80
1, 7632, Note_on_c, 1, 40, 80
1, 7655, Note_on_c, 0, 83, 0
1, 7656, Note_on_c, 0, 79, 80
1, 7677, Note_on_c, 1, 52, 0
1, 7677, Note_on_c, 1, 40, 0
1, 7679, Note_on_c, 0, 79, 0
1, 7680, Note_on_c, 0, 84, 80
1, 7680, Note_on_c, 1, 45, 80
1, 7680, Note_on_c, 1, 33, 80
1, 7690, Note_on_c, 0, 84, 0
1, 7704, Note_on_c, 0, 83, 80
1, 7714, Note_on_c, 0, 83, 0
1, 7725, Note_on_c, 1, 45, 0
1, 7725, Note_on_c, 1, 33, 0
1, 7728, Note_on_c, 0, 81, 80
1, 7738, Note_on_c, 0, 81, 0
1, 7752, Note_on_c, 0, 79, 80
1, 7762, Note_on_c, 0, 79, 0
1, 7776, Note_on_c, 0, 78, 80
1, 7786, Note_on_c, 0, 78, 0
1, 7800, Note_on_c, 0, 79, 80
1, 7810, Note_on_c, 0, 79, 0
1, 7824, Note_on_c, 0, 81, 80
1, 7824, Note_on_c, 1, 50, 80
1, 7824, Note_on_c, 1, 38, 80
1, 7834, Note_on_c, 0, 81, 0
1, 7848, Note_on_c, 0, 78, 80
1, 7858, Note_on_c, 0, 78, 0
1, 7869, Note_on_c, 1, 50, 0
1, 7869, Note_on_c, 1, 38, 0
1, 7872, Note_on_c, 0, 83, 80
1, 7872, Note_on_c, 1, 43, 80
1, 7872, Note_on_c, 1, 31, 80
1, 7882, Note_on_c, 0, 83, 0
1, 7896, Note_on_c, 0, 81, 80
1, 7919, Note_on_c, 0, 81, 0
1, 7920, Note_on_c, 0, 79, 80
1, 7943, Note_on_c, 0, 79, 0
1, 7944, Note_on_c, 0, 78, 80
1, 7961, Note_on_c, 1, 43, 0
1, 7961, Note_on_c, 1, 31, 0
1, 7967, Note_on_c, 0, 78, 0
1, 7968, Note_on_c, 0, 76, 80
1, 7978, Note_on_c, 0, 76, 0
1, 7992, Note_on_c, 0, 74, 80
1, 8002, Note_on_c, 0, 74, 0
1, 8016, Note_on_c, 0, 72, 80
1, 8016, Note_on_c, 1, 64, 80
1, 8026, Note_on_c, 0, 72, 0
1, 8040, Note_on_c, 0, 71, 80
1, 8050, Note_on_c, 0, 71, 0
1, 8064, Note_on_c, 0, 69, 80
1, 8064, Note_on_c, 1, 64, 0
1, 8064, Note_on_c, 1, 54, 80
1, 8074, Note_on_c, 0, 69, 0
1, 8088, Note_on_c, 0, 79, 80
1, 8109, Note_on_c, 1, 54, 0
1, 8111, Note_on_c, 0, 79, 0
1, 8112, Note_on_c, 0, 78, 80
1, 8135, Note_on_c, 0, 78, 0
1, 8136, Note_on_c, 0, 76, 80
1, 8159, Note_on_c, 0, 76, 0
1, 8160, Note_on_c, 0, 74, 80
1, 8183, Note_on_c, 0, 74, 0
1, 8184, Note_on_c, 0, 72, 80
1, 8207, Note_on_c, 0, 72, 0
1, 8208, Note_on_c, 0, 71, 80
1, 8208, Note_on_c, 1, 62, 80
1, 8231, Note_on_c, 0, 71, 0
1, 8232, Note_on_c, 0, 69, 80
1, 8255, Note_on_c, 0, 69, 0
1, 8256, Note_on_c, 0, 67, 80
1, 8256, Note_on_c, 1, 62, 0
1, 8256, Note_on_c, 1, 52, 80
1, 8266, Note_on_c, 0, 67, 0
1, 8280, Note_on_c, 0, 78, 80
1, 8301, Note_on_c, 1, 52, 0
1, 8303, Note_on_c, 0, 78, 0
1, 8304, Note_on_c, 0, 76, 80
1, 8327, Note_on_c, 0, 76, 0
1, 8328, Note_on_c, 0, 74, 80
1, 8351, Note_on_c, 0, 74, 0
1, 8352, Note_on_c, 0, 72, 80
1, 8375, Note_on_c, 0, 72, 0
1, 8376, Note_on_c, 0, 71, 80
1, 8399, Note_on_c, 0, 71, 0
1, 8400, Note_on_c, 0, 69, 80
1, 8400, Note_on_c, 1, 60, 80
1, 8423, Note_on_c, 0, 69, 0
1, 8424, Note_on_c, 0, 67, 80
1, 8447, Note_on_c, 0, 67, 0
1, 8448, Note_on_c, 0, 66, 80
1, 8448, Note_on_c, 1, 50, 80
1, 8471, Note_on_c, 0, 66, 0
1, 8472, Note_on_c, 0, 71, 80
1, 8495, Note_on_c, 0, 71, 0
1, 8496, Note_on_c, 0, 69, 80
1, 8519, Note_on_c, 0, 69, 0
1, 8520, Note_on_c, 0, 66, 81
1, 8537, Note_on_c, 1, 60, 0
1, 8543, Note_on_c, 0, 66, 0
1, 8544, Note_on_c, 0, 62, 81
1, 8544, Note_on_c, 1, 59, 80
1, 8567, Note_on_c, 0, 62, 0
1, 8568, Note_on_c, 0, 72, 81
1, 8591, Note_on_c, 0, 72, 0
1, 8592, Note_on_c, 0, 71, 82
1, 8615, Note_on_c, 0, 71, 0
1, 8616, Note_on_c, 0, 67, 82
1, 8633, Note_on_c, 1, 59, 0
1, 8639, Note_on_c, 0, 67, 0
1, 8640, Note_on_c, 0, 62, 82
1, 8640, Note_on_c, 1, 54, 80
1, 8663, Note_on_c, 0, 62, 0
1, 8664, Note_on_c, 0, 74, 83
1, 8687, Note_on_c, 0, 74, 0
1, 8688, Note_on_c, 0, 72, 83
1, 8711, Note_on_c, 0, 72, 0
1, 8712, Note_on_c, 0, 69, 83
1, 8729, Note_on_c, 1, 54, 0
1, 8735, Note_on_c, 0, 69, 0
1, 8736, Note_on_c, 0, 62, 84
1, 8736, Note_on_c, 1, 55, 80
1, 8759, Note_on_c, 0, 62, 0
1, 8760, Note_on_c, 0, 76, 84
1, 8783, Note_on_c, 0, 76, 0
1, 8784, Note_on_c, 0, 74, 84
1, 8802, Note_on_c, 1, 50, 0
1, 8807, Note_on_c, 0, 74, 0
1, 8808, Note_on_c, 0, 71, 85
1, 8825, Note_on_c, 1, 55, 0
1, 8831, Note_on_c, 0, 71, 0
1, 8832, Note_on_c, 0, 67, 85
1, 8832, Note_on_c, 1, 61, 80
1, 8832, Note_on_c, 1, 55, 80
1, 8832, Note_on_c, 1, 52, 80
1, 8832, Note_on_c, 1, 50, 80
1, 8855, Note_on_c, 0, 67, 0
1, 8856, Note_on_c, 0, 81, 86
1, 8879, Note_on_c, 0, 81, 0
1, 8880, Note_on_c, 0, 79, 86
1, 8903, Note_on_c, 0, 79, 0
1, 8904, Note_on_c, 0, 78, 86
1, 8927, Note_on_c, 0, 78, 0
1, 8928, Note_on_c, 0, 76, 86
1, 8951, Note_on_c, 0, 76, 0
1, 8952, Note_on_c, 0, 74, 85
1, 8975, Note_on_c, 0, 74, 0
1, 8976, Note_on_c, 0, 73, 85
1, 8999, Note_on_c, 0, 73, 0
1, 9000, Note_on_c, 0, 71, 84
1, 9009, Note_on_c, 1, 61, 0
1, 9009, Note_on_c, 1, 55, 0
1, 9009, Note_on_c, 1, 52, 0
1, 9009, Note_on_c, 1, 50, 0
1, 9023, Note_on_c, 0, 71, 0
1, 9024, Note_on_c, 0, 69, 84
1, 9047, Note_on_c, 0, 69, 0
1, 9048, Note_on_c, 0, 67, 83
1, 9071, Note_on_c, 0, 67, 0
1, 9072, Note_on_c, 0, 66, 83
1, 9095, Note_on_c, 0, 66, 0
1, 9096, Note_on_c, 0, 64, 82
1, 9119, Note_on_c, 0, 64, 0
1, 9120, Note_on_c, 0, 62, 82
1, 9143, Note_on_c, 0, 62, 0
1, 9144, Note_on_c, 0, 61, 81
1, 9167, Note_on_c, 0, 61, 0
1, 9168, Note_on_c, 0, 59, 81
1, 9191, Note_on_c, 0, 59, 0
1, 9192, Note_on_c, 0, 57, 80
1, 9215, Note_on_c, 0, 57, 0
1, 9216, Note_on_c, 0, 55, 80
1, 9240, Note_on_c, 1, 38, 80
1, 9263, Note_on_c, 1, 38, 0
1, 9264, Note_on_c, 1, 45, 80
1, 9287, Note_on_c, 1, 45, 0
1, 9288, Note_on_c, 1, 49, 80
1, 9311, Note_on_c, 1, 49, 0
1, 9312, Note_on_c, 1, 50, 80
1, 9335, Note_on_c, 1, 50, 0
1, 9336, Note_on_c, 1, 49, 80
1, 9359, Note_on_c, 1, 49, 0
1, 9360, Note_on_c, 1, 50, 80
1, 9383, Note_on_c, 1, 50, 0
1, 9384, Note_on_c, 1, 49, 80
1, 9393, Note_on_c, 0, 55, 0
1, 9407, Note_on_c, 1, 49, 0
1, 9408, Note_on_c, 0, 54, 80
1, 9408, Note_on_c, 1, 50, 80
1, 9431, Note_on_c, 0, 54, 0
1, 9432, Note_on_c, 0, 55, 80
1, 9455, Note_on_c, 0, 55, 0
1, 9456, Note_on_c, 0, 57, 80
1, 9479, Note_on_c, 0, 57, 0
1, 9480, Note_on_c, 0, 55, 80
1, 9497, Note_on_c, 1, 50, 0
1, 9503, Note_on_c, 0, 55, 0
1, 9504, Note_on_c, 0, 59, 80
1, 9527, Note_on_c, 0, 59, 0
1, 9528, Note_on_c, 0, 57, 80
1, 9551, Note_on_c, 0, 57, 0
1, 9552, Note_on_c, 0, 60, 80
1, 9575, Note_on_c, 0, 60, 0
1, 9576, Note_on_c, 0, 59, 80
1, 9599, Note_on_c, 0, 59, 0
1, 9600, Note_on_c, 0, 62, 80
1, 9623, Note_on_c, 0, 62, 0
1, 9624, Note_on_c, 0, 60, 80
1, 9647, Note_on_c, 0, 60, 0
1, 9648, Note_on_c, 0, 57, 80
1, 9671, Note_on_c, 0, 57, 0
1, 9672, Note_on_c, 0, 54, 80
1, 9696, Note_on_c, 0, 54, 0
1, 9696, Note_on_c, 0, 50, 80
1, 9719, Note_on_c, 0, 50, 0
1, 9720, Note_on_c, 0, 66, 80
1, 9744, Note_on_c, 0, 66, 0
1, 9744, Note_on_c, 0, 62, 80
1, 9767, Note_on_c, 0, 62, 0
1, 9768, Note_on_c, 0, 60, 80
1, 9792, Note_on_c, 0, 60, 0
1, 9792, Note_on_c, 0, 57, 80
1, 9815, Note_on_c, 0, 57, 0
1, 9816, Note_on_c, 0, 72, 80
1, 9840, Note_on_c, 0, 72, 0
1, 9840, Note_on_c, 0, 69, 80
1, 9863, Note_on_c, 0, 69, 0
1, 9864, Note_on_c, 0, 66, 80
1, 9888, Note_on_c, 0, 66, 0
1, 9888, Note_on_c, 0, 62, 80
1, 9911, Note_on_c, 0, 62, 0
1, 9912, Note_on_c, 0, 78, 80
1, 9936, Note_on_c, 0, 78, 0
1, 9936, Note_on_c, 0, 74, 80
1, 9959, Note_on_c, 0, 74, 0
1, 9960, Note_on_c, 0, 72, 80
1, 9984, Note_on_c, 0, 72, 0
1, 9984, Note_on_c, 0, 69, 80
1, 10007, Note_on_c, 0, 69, 0
1, 10008, Note_on_c, 0, 84, 80
1, 10032, Note_on_c, 0, 84, 0
1, 10032, Note_on_c, 0, 81, 80
1, 10055, Note_on_c, 0, 81, 0
1, 10056, Note_on_c, 0, 78, 80
1, 10080, Note_on_c, 0, 78, 0
1, 10080, Note_on_c, 0, 74, 80
1, 10103, Note_on_c, 0, 74, 0
1, 10104, Note_on_c, 0, 88, 80
1, 10127, Note_on_c, 0, 88, 0
1, 10128, Note_on_c, 0, 86, 80
1, 10151, Note_on_c, 0, 86, 0
1, 10152, Note_on_c, 0, 84, 80
1, 10175, Note_on_c, 0, 84, 0
1, 10176, Note_on_c, 0, 83, 80
1, 10199, Note_on_c, 0, 83, 0
1, 10200, Note_on_c, 0, 81, 80
1, 10223, Note_on_c, 0, 81, 0
1, 10224, Note_on_c, 0, 79, 80
1, 10247, Note_on_c, 0, 79, 0
1, 10248, Note_on_c, 0, 78, 80
1, 10271, Note_on_c, 0, 78, 0
1, 10272, Note_on_c, 0, 76, 80
1, 10295, Note_on_c, 0, 76, 0
1, 10296, Note_on_c, 0, 74, 80
1, 10319, Note_on_c, 0, 74, 0
1, 10320, Note_on_c, 0, 73, 80
1, 10343, Note_on_c, 0, 73, 0
1, 10344, Note_on_c, 0, 72, 80
1, 10367, Note_on_c, 0, 72, 0
1, 10368, Note_on_c, 0, 81, 80
1, 10392, Note_on_c, 1, 62, 80
1, 10413, Note_on_c, 0, 81, 0
1, 10415, Note_on_c, 1, 62, 0
1, 10416, Note_on_c, 1, 66, 80
1, 10439, Note_on_c, 1, 66, 0
1, 10440, Note_on_c, 1, 69, 80
1, 10463, Note_on_c, 1, 69, 0
1, 10464, Note_on_c, 1, 72, 80
1, 10488, Note_on_c, 0, 74, 80
1, 10509, Note_on_c, 1, 72, 0
1, 10511, Note_on_c, 0, 74, 0
1, 10512, Note_on_c, 0, 78, 79
1, 10535, Note_on_c, 0, 78, 0
1, 10536, Note_on_c, 0, 81, 78
1, 10559, Note_on_c, 0, 81, 0
1, 10560, Note_on_c, 0, 84, 77
1, 10583, Note_on_c, 0, 84, 0
1, 10584, Note_on_c, 0, 74, 76
1, 10607, Note_on_c, 0, 74, 0
1, 10608, Note_on_c, 0, 78, 75
1, 10631, Note_on_c, 0, 78, 0
1, 10632, Note_on_c, 0, 81, 74
1, 10655, Note_on_c, 0, 81, 0
1, 10656, Note_on_c, 0, 84, 74
1, 10679, Note_on_c, 0, 84, 0
1, 10680, Note_on_c, 0, 74, 73
1, 10703, Note_on_c, 0, 74, 0
1, 10704, Note_on_c, 0, 78, 72
1, 10727, Note_on_c, 0, 78, 0
1, 10728, Note_on_c, 0, 81, 71
1, 10751, Note_on_c, 0, 81, 0
1, 10752, Note_on_c, 0, 84, 70
1, 10752, Note_on_c, 0, 81, 70
1, 10944, Note_on_c, 0, 84, 0
1, 10944, Note_on_c, 0, 81, 0
1, 10944, Note_on_c, 0, 82, 64
1, 10944, Note_on_c, 0, 78, 64
1, 11131, Note_on_c, 0, 82, 0
1, 11131, Note_on_c, 0, 78, 0
1, 11136, Note_on_c, 0, 83, 80
1, 11136, Note_on_c, 0, 79, 80
1, 11156, Note_on_c, 0, 83, 0
1, 11156, Note_on_c, 0, 79, 0
1, 11160, Note_on_c, 1, 43, 80
1, 11183, Note_on_c, 1, 43, 0
1, 11184, Note_on_c, 1, 45, 80
1, 11207, Note_on_c, 1, 45, 0
1, 11208, Note_on_c, 1, 47, 80
1, 11231, Note_on_c, 1, 47, 0
1, 11232, Note_on_c, 0, 79, 80
1, 11232, Note_on_c, 0, 74, 80
1, 11232, Note_on_c, 1, 48, 80
1, 11252, Note_on_c, 0, 79, 0
1, 11252, Note_on_c, 0, 74, 0
1, 11255, Note_on_c, 1, 48, 0
1, 11256, Note_on_c, 1, 50, 80
1, 11279, Note_on_c, 1, 50, 0
1, 11280, Note_on_c, 1, 52, 80
1, 11303, Note_on_c, 1, 52, 0
1, 11304, Note_on_c, 1, 54, 80
1, 11327, Note_on_c, 1, 54, 0
1, 11328, Note_on_c, 0, 74, 80
1, 11328, Note_on_c, 0, 71, 80
1, 11328, Note_on_c, 1, 55, 80
1, 11348, Note_on_c, 0, 74, 0
1, 11348, Note_on_c, 0, 71, 0
1, 11351, Note_on_c, 1, 55, 0
1, 11352, Note_on_c, 1, 54, 80
1, 11375, Note_on_c, 1, 54, 0
1, 11376, Note_on_c, 1, 55, 80
1, 11399, Note_on_c, 1, 55, 0
1, 11400, Note_on_c, 1, 57, 80
1, 11423, Note_on_c, 1, 57, 0
1, 11424, Note_on_c, 1, 59, 80
1, 11469, Note_on_c, 1, 59, 0
1, 11472, Note_on_c, 0, 76, 80
1, 11520, Note_on_c, 0, 76, 0
1, 11520, Note_on_c, 0, 69, 80
1, 11540, Note_on_c, 0, 69, 0
1, 11544, Note_on_c, 1, 67, 80
1, 11567, Note_on_c, 1, 67, 0
1, 11568, Note_on_c, 1, 66, 80
1, 11591, Note_on_c, 1, 66, 0
1, 11592, Note_on_c, 1, 64, 80
1, 11615, Note_on_c, 1, 64, 0
1, 11616, Note_on_c, 1, 66, 80
1, 11661, Note_on_c, 1, 66, 0
1, 11664, Note_on_c, 0, 74, 80
1, 11712, Note_on_c, 0, 74, 0
1, 11712, Note_on_c, 0, 67, 80
1, 11732, Note_on_c, 0, 67, 0
1, 11736, Note_on_c, 1, 66, 80
1, 11759, Note_on_c, 1, 66, 0
1, 11760, Note_on_c, 1, 64, 80
1, 11783, Note_on_c, 1, 64, 0
1, 11784, Note_on_c, 1, 63, 80
1, 11807, Note_on_c, 1, 63, 0
1, 11808, Note_on_c, 1, 64, 80
1, 11853, Note_on_c, 1, 64, 0
1, 11856, Note_on_c, 0, 88, 80
1, 11856, Note_on_c, 0, 84, 80
1, 11904, Note_on_c, 0, 88, 0
1, 11904, Note_on_c, 0, 84, 0
1, 11904, Note_on_c, 0, 81, 80
1, 11904, Note_on_c, 0, 78, 80
1, 11924, Note_on_c, 0, 81, 0
1, 11924, Note_on_c, 0, 78, 0
1, 11952, Note_on_c, 1, 69, 80
1, 11952, Note_on_c, 1, 66, 80
1, 11972, Note_on_c, 1, 69, 0
1, 11972, Note_on_c, 1, 66, 0
1, 12000, Note_on_c, 1, 74, 80
1, 12000, Note_on_c, 1, 71, 80
1, 12020, Note_on_c, 1, 74, 0
1, 12020, Note_on_c, 1, 71, 0
1, 12048, Note_on_c, 0, 86, 80
1, 12048, Note_on_c, 0, 83, 80
1, 12096, Note_on_c, 0, 86, 0
1, 12096, Note_on_c, 0, 83, 0
1, 12096, Note_on_c, 0, 79, 80
1, 12096, Note_on_c, 0, 76, 80
1, 12116, Note_on_c, 0, 79, 0
1, 12116, Note_on_c, 0, 76, 0
1, 12120, Note_on_c, 1, 67, 80
1, 12120, Note_on_c, 1, 64, 80
1, 12143, Note_on_c, 1, 67, 0
1, 12143, Note_on_c, 1, 64, 0
1, 12144, Note_on_c, 1, 69, 80
1, 12144, Note_on_c, 1, 66, 80
1, 12167, Note_on_c, 1, 69, 0
1, 12167, Note_on_c, 1, 66, 0
1, 12168, Note_on_c, 1, 71, 80
1, 12168, Note_on_c, 1, 67, 80
1, 12191, Note_on_c, 1, 71, 0
1, 12191, Note_on_c, 1, 67, 0
1, 12192, Note_on_c, 1, 72, 80
1, 12192, Note_on_c, 1, 69, 80
1, 12212, Note_on_c, 1, 72, 0
1, 12212, Note_on_c, 1, 69, 0
1, 12240, Note_on_c, 0, 84, 80
1, 12285, Note_on_c, 0, 84, 0
1, 12288, Note_on_c, 0, 74, 80
1, 12311, Note_on_c, 0, 74, 0
1, 12312, Note_on_c, 0, 84, 80
1, 12335, Note_on_c, 0, 84, 0
1, 12336, Note_on_c, 0, 83, 80
1, 12336, Note_on_c, 1, 66, 80
1, 12359, Note_on_c, 0, 83, 0
1, 12360, Note_on_c, 0, 82, 80
1, 12381, Note_on_c, 1, 66, 0
1, 12383, Note_on_c, 0, 82, 0
1, 12384, Note_on_c, 0, 83, 80
1, 12384, Note_on_c, 1, 67, 80
1, 12407, Note_on_c, 0, 83, 0
1, 12408, Note_on_c, 0, 78, 80
1, 12431, Note_on_c, 0, 78, 0
1, 12432, Note_on_c, 0, 79, 80
1, 12432, Note_on_c, 1, 59, 75
1, 12455, Note_on_c, 0, 79, 0
1, 12456, Note_on_c, 0, 74, 80
1, 12477, Note_on_c, 1, 59, 0
1, 12479, Note_on_c, 0, 74, 0
1, 12480, Note_on_c, 0, 75, 80
1, 12480, Note_on_c, 1, 60, 75
1, 12503, Note_on_c, 0, 75, 0
1, 12504, Note_on_c, 0, 76, 80
1, 12517, Note_on_c, 1, 67, 0
1, 12527, Note_on_c, 0, 76, 0
1, 12528, Note_on_c, 0, 80, 80
1, 12528, Note_on_c, 1, 72, 80
1, 12551, Note_on_c, 0, 80, 0
1, 12552, Note_on_c, 0, 81, 80
1, 12569, Note_on_c, 1, 60, 0
1, 12573, Note_on_c, 1, 72, 0
1, 12575, Note_on_c, 0, 81, 0
1, 12576, Note_on_c, 0, 79, 80
1, 12576, Note_on_c, 1, 71, 80
1, 12576, Note_on_c, 1, 62, 75
1, 12596, Note_on_c, 0, 79, 0
1, 12621, Note_on_c, 1, 71, 0
1, 12624, Note_on_c, 0, 78, 96
1, 12624, Note_on_c, 1, 69, 80
1, 12644, Note_on_c, 0, 78, 0
1, 12665, Note_on_c, 1, 62, 0
1, 12669, Note_on_c, 1, 69, 0
1, 12672, Note_on_c, 1, 55, 64
1, 12695, Note_on_c, 1, 55, 0
1, 12696, Note_on_c, 0, 83, 75
1, 12696, Note_on_c, 0, 79, 75
1, 12696, Note_on_c, 1, 67, 64
1, 12719, Note_on_c, 1, 67, 0
1, 12720, Note_on_c, 0, 83, 0
1, 12720, Note_on_c, 0, 79, 0
1, 12720, Note_on_c, 0, 81, 75
1, 12720, Note_on_c, 0, 78, 75
1, 12720, Note_on_c, 1, 55, 64
1, 12730, Note_on_c, 0, 81, 0
1, 12730, Note_on_c, 0, 78, 0
1, 12743, Note_on_c, 1, 55, 0
1, 12744, Note_on_c, 0, 84, 76
1, 12744, Note_on_c, 0, 81, 76
1, 12744, Note_on_c, 1, 67, 64
1, 12767, Note_on_c, 1, 67, 0
1, 12768, Note_on_c, 0, 84, 0
1, 12768, Note_on_c, 0, 81, 0
1, 12768, Note_on_c, 0, 83, 77
1, 12768, Note_on_c, 0, 79, 77
1, 12768, Note_on_c, 1, 55, 64
1, 12778, Note_on_c, 0, 83, 0
1, 12778, Note_on_c, 0, 79, 0
1, 12791, Note_on_c, 1, 55, 0
1, 12792, Note_on_c, 0, 86, 77
1, 12792, Note_on_c, 0, 83, 77
1, 12792, Note_on_c, 1, 67, 64
1, 12815, Note_on_c, 1, 67, 0
1, 12816, Note_on_c, 0, 86, 0
1, 12816, Note_on_c, 0, 83, 0
1, 12816, Note_on_c, 0, 84, 78
1, 12816, Note_on_c, 0, 81, 78
1, 12816, Note_on_c, 1, 55, 64
1, 12826, Note_on_c, 0, 84, 0
1, 12826, Note_on_c, 0, 81, 0
1, 12839, Note_on_c, 1, 55, 0
1, 12840, Note_on_c, 0, 88, 79
1, 12840, Note_on_c, 0, 84, 79
1, 12840, Note_on_c, 1, 67, 64
1, 12863, Note_on_c, 1, 67, 0
1, 12864, Note_on_c, 0, 88, 0
1, 12864, Note_on_c, 0, 84, 0
1, 12864, Note_on_c, 0, 86, 96
1, 12864, Note_on_c, 0, 83, 96
1, 12864, Note_on_c, 1, 55, 64
1, 12884, Note_on_c, 0, 86, 0
1, 12884, Note_on_c, 0, 83, 0
1, 12887, Note_on_c, 1, 55, 0
1, 12888, Note_on_c, 1, 67, 64
1, 12911, Note_on_c, 1, 67, 0
1, 12912, Note_on_c, 1, 55, 64
1, 12935, Note_on_c, 1, 55, 0
1, 12936, Note_on_c, 0, 84, 74
1, 12936, Note_on_c, 0, 81, 74
1, 12936, Note_on_c, 1, 67, 64
1, 12959, Note_on_c, 1, 67, 0
1, 12960, Note_on_c, 0, 84, 0
1, 12960, Note_on_c, 0, 81, 0
1, 12960, Note_on_c, 0, 83, 72
1, 12960, Note_on_c, 0, 79, 72
1, 12960, Note_on_c, 1, 55, 64
1, 12980, Note_on_c, 0, 83, 0
1, 12980, Note_on_c, 0, 79, 0
1, 12983, Note_on_c, 1, 55, 0
1, 12984, Note_on_c, 1, 67, 64
1, 13007, Note_on_c, 1, 67, 0
1, 13008, Note_on_c, 1, 55, 64
1, 13031, Note_on_c, 1, 55, 0
1, 13032, Note_on_c, 0, 81, 66
1, 13032, Note_on_c, 0, 72, 66
1, 13032, Note_on_c, 1, 67, 64
1, 13055, Note_on_c, 1, 67, 0
1, 13056, Note_on_c, 0, 81, 0
1, 13056, Note_on_c, 0, 72, 0
1, 13056, Note_on_c, 0, 79, 64
1, 13056, Note_on_c, 0, 71, 64
1, 13056, Note_on_c, 1, 55, 64
1, 13066, Note_on_c, 0, 79, 0
1, 13066, Note_on_c, 0, 71, 0
1, 13079, Note_on_c, 1, 55, 0
1, 13080, Note_on_c, 0, 83, 66
1, 13080, Note_on_c, 0, 79, 66
1, 13080, Note_on_c, 1, 67, 64
1, 13103, Note_on_c, 1, 67, 0
1, 13104, Note_on_c, 0, 83, 0
1, 13104, Note_on_c, 0, 79, 0
1, 13104, Note_on_c, 0, 81, 68
1, 13104, Note_on_c, 0, 78, 68
1, 13104, Note_on_c, 1, 55, 64
1, 13114, Note_on_c, 0, 81, 0
1, 13114, Note_on_c, 0, 78, 0
1, 13127, Note_on_c, 1, 55, 0
1, 13128, Note_on_c, 0, 84, 70
1, 13128, Note_on_c, 0, 81, 70
1, 13128, Note_on_c, 1, 67, 64
1, 13151, Note_on_c, 1, 67, 0
1, 13152, Note_on_c, 0, 84, 0
1, 13152, Note_on_c, 0, 81, 0
1, 13152, Note_on_c, 0, 83, 72
1, 13152, Note_on_c, 0, 79, 72
1, 13152, Note_on_c, 1, 55, 64
1, 13162, Note_on_c, 0, 83, 0
1, 13162, Note_on_c, 0, 79, 0
1, 13175, Note_on_c, 1, 55, 0
1, 13176, Note_on_c, 0, 86, 74
1, 13176, Note_on_c, 0, 83, 74
1, 13176, Note_on_c, 1, 67, 64
1, 13199, Note_on_c, 1, 67, 0
1, 13200, Note_on_c, 0, 86, 0
1, 13200, Note_on_c, 0, 83, 0
1, 13200, Note_on_c, 0, 84, 76
1, 13200, Note_on_c, 0, 81, 76
1, 13200, Note_on_c, 1, 55, 64
1, 13210, Note_on_c, 0, 84, 0
1, 13210, Note_on_c, 0, 81, 0
1, 13223, Note_on_c, 1, 55, 0
1, 13224, Note_on_c, 0, 88, 78
1, 13224, Note_on_c, 0, 84, 78
1, 13224, Note_on_c, 1, 67, 64
1, 13247, Note_on_c, 1, 67, 0
1, 13248, Note_on_c, 0, 88, 0
1, 13248, Note_on_c, 0, 84, 0
1, 13248, Note_on_c, 0, 86, 96
1, 13248, Note_on_c, 0, 83, 96
1, 13248, Note_on_c, 1, 55, 64
1, 13268, Note_on_c, 0, 86, 0
1, 13268, Note_on_c, 0, 83, 0
1, 13271, Note_on_c, 1, 55, 0
1, 13272, Note_on_c, 1, 67, 64
1, 13295, Note_on_c, 1, 67, 0
1, 13296, Note_on_c, 1, 55, 64
1, 13319, Note_on_c, 1, 55, 0
1, 13320, Note_on_c, 0, 84, 74
1, 13320, Note_on_c, 0, 81, 74
1, 13320, Note_on_c, 1, 67, 64
1, 13343, Note_on_c, 1, 67, 0
1, 13344, Note_on_c, 0, 84, 0
1, 13344, Note_on_c, 0, 81, 0
1, 13344, Note_on_c, 0, 83, 72
1, 13344, Note_on_c, 0, 79, 72
1, 13344, Note_on_c, 1, 55, 64
1, 13364, Note_on_c, 0, 83, 0
1, 13364, Note_on_c, 0, 79, 0
1, 13367, Note_on_c, 1, 55, 0
1, 13368, Note_on_c, 1, 67, 64
1, 13391, Note_on_c, 1, 67, 0
1, 13392, Note_on_c, 1, 55, 64
1, 13415, Note_on_c, 1, 55, 0
1, 13416, Note_on_c, 0, 81, 66
1, 13416, Note_on_c, 0, 72, 66
1, 13416, Note_on_c, 1, 67, 64
1, 13439, Note_on_c, 1, 67, 0
1, 13440, Note_on_c, 0, 81, 0
1, 13440, Note_on_c, 0, 72, 0
1, 13440, Note_on_c, 0, 79, 64
1, 13440, Note_on_c, 0, 71, 64
1, 13440, Note_on_c, 1, 55, 64
1, 13450, Note_on_c, 0, 79, 0
1, 13450, Note_on_c, 0, 71, 0
1, 13463, Note_on_c, 1, 55, 0
1, 13464, Note_on_c, 0, 83, 66
1, 13464, Note_on_c, 0, 79, 66
1, 13464, Note_on_c, 1, 67, 64
1, 13487, Note_on_c, 1, 67, 0
1, 13488, Note_on_c, 0, 83, 0
1, 13488, Note_on_c, 0, 79, 0
1, 13488, Note_on_c, 0, 81, 68
1, 13488, Note_on_c, 0, 78, 68
1, 13488, Note_on_c, 1, 55, 64
1, 13498, Note_on_c, 0, 81, 0
1, 13498, Note_on_c, 0, 78, 0
1, 13511, Note_on_c, 1, 55, 0
1, 13512, Note_on_c, 0, 84, 70
1, 13512, Note_on_c, 0, 81, 70
1, 13512, Note_on_c, 1, 67, 64
1, 13535, Note_on_c, 1, 67, 0
1, 13536, Note_on_c, 0, 84, 0
1, 13536, Note_on_c, 0, 81, 0
1, 13536, Note_on_c, 0, 83, 72
1, 13536, Note_on_c, 0, 79, 72
1, 13536, Note_on_c, 1, 55, 64
1, 13546, Note_on_c, 0, 83, 0
1, 13546, Note_on_c, 0, 79, 0
1, 13559, Note_on_c, 1, 55, 0
1, 13560, Note_on_c, 0, 86, 74
1, 13560, Note_on_c, 0, 83, 74
1, 13560, Note_on_c, 1, 67, 64
1, 13583, Note_on_c, 1, 67, 0
1, 13584, Note_on_c, 0, 86, 0
1, 13584, Note_on_c, 0, 83, 0
1, 13584, Note_on_c, 0, 84, 76
1, 13584, Note_on_c, 0, 81, 76
1, 13584, Note_on_c, 1, 55, 64
1, 13594, Note_on_c, 0, 84, 0
1, 13594, Note_on_c, 0, 81, 0
1, 13607, Note_on_c, 1, 55, 0
1, 13608, Note_on_c, 0, 88, 78
1, 13608, Note_on_c, 0, 84, 78
1, 13608, Note_on_c, 1, 67, 64
1, 13631, Note_on_c, 1, 67, 0
1, 13632, Note_on_c, 0, 88, 0
1, 13632, Note_on_c, 0, 84, 0
1, 13632, Note_on_c, 0, 86, 96
1, 13632, Note_on_c, 0, 83, 96
1, 13632, Note_on_c, 1, 55, 64
1, 13652, Note_on_c, 0, 86, 0
1, 13652, Note_on_c, 0, 83, 0
1, 13655, Note_on_c, 1, 55, 0
1, 13656, Note_on_c, 1, 67, 64
1, 13679, Note_on_c, 1, 67, 0
1, 13680, Note_on_c, 1, 55, 64
1, 13703, Note_on_c, 1, 55, 0
1, 13704, Note_on_c, 0, 84, 74
1, 13704, Note_on_c, 0, 81, 74
1, 13704, Note_on_c, 1, 67, 64
1, 13727, Note_on_c, 1, 67, 0
1, 13728, Note_on_c, 0, 84, 0
1, 13728, Note_on_c, 0, 81, 0
1, 13728, Note_on_c, 0, 83, 72
1, 13728, Note_on_c, 0, 79, 72
1, 13728, Note_on_c, 1, 55, 64
1, 13748, Note_on_c, 0, 83, 0
1, 13748, Note_on_c, 0, 79, 0
1, 13751, Note_on_c, 1, 55, 0
1, 13752, Note_on_c, 1, 67, 64
1, 13775, Note_on_c, 1, 67, 0
1, 13776, Note_on_c, 1, 55, 64
1, 13799, Note_on_c, 1, 55, 0
1, 13800, Note_on_c, 0, 81, 66
1, 13800, Note_on_c, 0, 72, 66
1, 13800, Note_on_c, 1, 67, 64
1, 13823, Note_on_c, 1, 67, 0
1, 13824, Note_on_c, 0, 81, 0
1, 13824, Note_on_c, 0, 72, 0
1, 13824, Note_on_c, 0, 79, 70
1, 13824, Note_on_c, 0, 71, 70
1, 13824, Note_on_c, 1, 55, 64
1, 13847, Note_on_c, 1, 55, 0
1, 13848, Note_on_c, 1, 67, 64
1, 13871, Note_on_c, 1, 67, 0
1, 13872, Note_on_c, 1, 55, 64
1, 13895, Note_on_c, 1, 55, 0
1, 13896, Note_on_c, 1, 67, 64
1, 13919, Note_on_c, 1, 67, 0
1, 13920, Note_on_c, 1, 55, 64
1, 13943, Note_on_c, 1, 55, 0
1, 13944, Note_on_c, 1, 67, 64
1, 13967, Note_on_c, 1, 67, 0
1, 13968, Note_on_c, 1, 55, 64
1, 13991, Note_on_c, 1, 55, 0
1, 13992, Note_on_c, 1, 67, 64
1, 14015, Note_on_c, 1, 67, 0
1, 14016, Note_on_c, 0, 79, 0
1, 14016, Note_on_c, 0, 80, 86
1, 14016, Note_on_c, 1, 55, 64
1, 14039, Note_on_c, 1, 55, 0
1, 14040, Note_on_c, 1, 65, 64
1, 14063, Note_on_c, 1, 65, 0
1, 14064, Note_on_c, 1, 55, 64
1, 14087, Note_on_c, 1, 55, 0
1, 14088, Note_on_c, 1, 65, 64
1, 14111, Note_on_c, 1, 65, 0
1, 14112, Note_on_c, 1, 55, 64
1, 14135, Note_on_c, 1, 55, 0
1, 14136, Note_on_c, 1, 65, 64
1, 14159, Note_on_c, 1, 65, 0
1, 14160, Note_on_c, 1, 55, 64
1, 14183, Note_on_c, 1, 55, 0
1, 14184, Note_on_c, 1, 65, 64
1, 14193, Note_on_c, 0, 71, 0
1, 14207, Note_on_c, 1, 65, 0
1, 14208, Note_on_c, 0, 72, 70
1, 14208, Note_on_c, 1, 55, 64
1, 14231, Note_on_c, 1, 55, 0
1, 14232, Note_on_c, 1, 63, 64
1, 14255, Note_on_c, 1, 63, 0
1, 14256, Note_on_c, 1, 55, 64
1, 14279, Note_on_c, 1, 55, 0
1, 14280, Note_on_c, 1, 63, 64
1, 14297, Note_on_c, 0, 80, 0
1, 14303, Note_on_c, 1, 63, 0
1, 14304, Note_on_c, 0, 79, 70
1, 14304, Note_on_c, 1, 55, 64
1, 14327, Note_on_c, 1, 55, 0
1, 14328, Note_on_c, 1, 63, 64
1, 14351, Note_on_c, 1, 63, 0
1, 14352, Note_on_c, 1, 55, 64
1, 14375, Note_on_c, 1, 55, 0
1, 14376, Note_on_c, 1, 63, 64
1, 14385, Note_on_c, 0, 72, 0
1, 14393, Note_on_c, 0, 79, 0
1, 14399, Note_on_c, 1, 63, 0
1, 14400, Note_on_c, 0, 78, 88
1, 14400, Note_on_c, 0, 72, 88
1, 14400, Note_on_c, 1, 57, 82
1, 14423, Note_on_c, 1, 57, 0
1, 14424, Note_on_c, 1, 63, 64
1, 14447, Note_on_c, 1, 63, 0
1, 14448, Note_on_c, 1, 57, 64
1, 14471, Note_on_c, 1, 57, 0
1, 14472, Note_on_c, 1, 63, 64
1, 14495, Note_on_c, 1, 63, 0
1, 14496, Note_on_c, 1, 57, 64
1, 14519, Note_on_c, 1, 57, 0
1, 14520, Note_on_c, 1, 63, 64
1, 14543, Note_on_c, 1, 63, 0
1, 14544, Note_on_c, 1, 57, 64
1, 14567, Note_on_c, 1, 57, 0
1, 14568, Note_on_c, 1, 63, 64
1, 14577, Note_on_c, 0, 78, 0
1, 14577, Note_on_c, 0, 72, 0
1, 14591, Note_on_c, 1, 63, 0
1, 14592, Note_on_c, 0, 77, 70
1, 14592, Note_on_c, 0, 67, 70
1, 14592, Note_on_c, 1, 59, 64
1, 14615, Note_on_c, 1, 59, 0
1, 14616, Note_on_c, 1, 62, 64
1, 14639, Note_on_c, 1, 62, 0
1, 14640, Note_on_c, 1, 59, 64
1, 14663, Note_on_c, 1, 59, 0
1, 14664, Note_on_c, 1, 62, 64
1, 14681, Note_on_c, 0, 67, 0
1, 14687, Note_on_c, 1, 62, 0
1, 14688, Note_on_c, 0, 74, 70
1, 14688, Note_on_c, 1, 59, 64
1, 14711, Note_on_c, 1, 59, 0
1, 14712, Note_on_c, 1, 67, 64
1, 14735, Note_on_c, 1, 67, 0
1, 14736, Note_on_c, 1, 59, 64
1, 14759, Note_on_c, 1, 59, 0
1, 14760, Note_on_c, 1, 67, 64
1, 14783, Note_on_c, 1, 67, 0
1, 14784, Note_on_c, 0, 77, 0
1, 14784, Note_on_c, 0, 76, 70
1, 14784, Note_on_c, 1, 60, 64
1, 14807, Note_on_c, 1, 60, 0
1, 14808, Note_on_c, 1, 67, 64
1, 14831, Note_on_c, 1, 67, 0
1, 14832, Note_on_c, 1, 60, 64
1, 14855, Note_on_c, 1, 60, 0
1, 14856, Note_on_c, 1, 67, 64
1, 14865, Note_on_c, 0, 74, 0
1, 14879, Note_on_c, 1, 67, 0
1, 14880, Note_on_c, 0, 71, 70
1, 14880, Note_on_c, 1, 60, 64
1, 14903, Note_on_c, 1, 60, 0
1, 14904, Note_on_c, 1, 68, 64
1, 14927, Note_on_c, 1, 68, 0
1, 14928, Note_on_c, 1, 60, 64
1, 14951, Note_on_c, 1, 60, 0
1, 14952, Note_on_c, 1, 68, 64
1, 14961, Note_on_c, 0, 76, 0
1, 14969, Note_on_c, 0, 71, 0
1, 14975, Note_on_c, 1, 68, 0
1, 14976, Note_on_c, 0, 76, 70
1, 14976, Note_on_c, 0, 72, 70
1, 14976, Note_on_c, 1, 60, 64
1, 14999, Note_on_c, 1, 60, 0
1, 15000, Note_on_c, 1, 69, 64
1, 15023, Note_on_c, 1, 69, 0
1, 15024, Note_on_c, 1, 60, 64
1, 15047, Note_on_c, 1, 60, 0
1, 15048, Note_on_c, 1, 69, 64
1, 15071, Note_on_c, 1, 69, 0
1, 15072, Note_on_c, 1, 60, 64
1, 15095, Note_on_c, 1, 60, 0
1, 15096, Note_on_c, 1, 69, 64
1, 15119, Note_on_c, 1, 69, 0
1, 15120, Note_on_c, 1, 60, 64
1, 15143, Note_on_c, 1, 60, 0
1, 15144, Note_on_c, 1, 69, 64
1, 15153, Note_on_c, 0, 76, 0
1, 15153, Note_on_c, 0, 72, 0
1, 15167, Note_on_c, 1, 69, 0
1, 15168, Note_on_c, 0, 76, 88
1, 15168, Note_on_c, 0, 70, 88
1, 15168, Note_on_c, 1, 61, 82
1, 15191, Note_on_c, 1, 61, 0
1, 15192, Note_on_c, 1, 67, 64
1, 15215, Note_on_c, 1, 67, 0
1, 15216, Note_on_c, 1, 61, 64
1, 15239, Note_on_c, 1, 61, 0
1, 15240, Note_on_c, 1, 67, 64
1, 15263, Note_on_c, 1, 67, 0
1, 15264, Note_on_c, 1, 61, 64
1, 15287, Note_on_c, 1, 61, 0
1, 15288, Note_on_c, 1, 67, 64
1, 15311, Note_on_c, 1, 67, 0
1, 15312, Note_on_c, 1, 61, 64
1, 15335, Note_on_c, 1, 61, 0
1, 15336, Note_on_c, 1, 67, 64
1, 15345, Note_on_c, 0, 76, 0
1, 15359, Note_on_c, 1, 67, 0
1, 15360, Note_on_c, 0, 74, 70
1, 15360, Note_on_c, 1, 62, 64
1, 15383, Note_on_c, 1, 62, 0
1, 15384, Note_on_c, 1, 67, 64
1, 15407, Note_on_c, 1, 67, 0
1, 15408, Note_on_c, 1, 62, 64
1, 15431, Note_on_c, 1, 62, 0
1, 15432, Note_on_c, 1, 67, 64
1, 15449, Note_on_c, 0, 70, 0
1, 15455, Note_on_c, 1, 67, 0
1, 15456, Note_on_c, 0, 69, 70
1, 15456, Note_on_c, 1, 62, 64
1, 15479, Note_on_c, 1, 62, 0
1, 15480, Note_on_c, 1, 67, 64
1, 15503, Note_on_c, 1, 67, 0
1, 15504, Note_on_c, 1, 62, 64
1, 15527, Note_on_c, 1, 62, 0
1, 15528, Note_on_c, 1, 67, 64
1, 15545, Note_on_c, 0, 69, 0
1, 15551, Note_on_c, 1, 67, 0
1, 15552, Note_on_c, 0, 71, 70
1, 15552, Note_on_c, 1, 62, 64
1, 15575, Note_on_c, 1, 62, 0
1, 15576, Note_on_c, 1, 66, 64
1, 15599, Note_on_c, 1, 66, 0
1, 15600, Note_on_c, 1, 62, 64
1, 15623, Note_on_c, 1, 62, 0
1, 15624, Note_on_c, 1, 66, 64
1, 15641, Note_on_c, 0, 71, 0
1, 15647, Note_on_c, 1, 66, 0
1, 15648, Note_on_c, 0, 72, 70
1, 15648, Note_on_c, 1, 62, 64
1, 15671, Note_on_c, 1, 62, 0
1, 15672, Note_on_c, 1, 66, 64
1, 15695, Note_on_c, 1, 66, 0
1, 15696, Note_on_c, 1, 62, 64
1, 15719, Note_on_c, 1, 62, 0
1, 15720, Note_on_c, 1, 66, 64
1, 15737, Note_on_c, 0, 72, 0
1, 15743, Note_on_c, 1, 66, 0
1, 15744, Note_on_c, 0, 71, 70
1, 15744, Note_on_c, 1, 67, 64
1, 15789, Note_on_c, 0, 74, 0
1, 15789, Note_on_c, 0, 71, 0
1, 15789, Note_on_c, 1, 67, 0
1, 15792, Note_on_c, 0, 74, 80
1, 15792, Note_on_c, 1, 55, 80
1, 15800, Note_on_c, 0, 79, 80
1, 15800, Note_on_c, 1, 59, 80
1, 15808, Note_on_c, 0, 83, 80
1, 15808, Note_on_c, 1, 62, 80
1, 15837, Note_on_c, 0, 83, 0
1, 15837, Note_on_c, 0, 79, 0
1, 15837, Note_on_c, 0, 74, 0
1, 15837, Note_on_c, 1, 62, 0
1, 15837, Note_on_c, 1, 59, 0
1, 15837, Note_on_c, 1, 55, 0
1, 15840, Note_on_c, 0, 74, 80
1, 15840, Note_on_c, 1, 54, 80
1, 15848, Note_on_c, 0, 81, 80
1, 15848, Note_on_c, 1, 57, 80
1, 15856, Note_on_c, 0, 84, 80
1, 15856, Note_on_c, 1, 62, 80
1, 15885, Note_on_c, 0, 84, 0
1, 15885, Note_on_c, 0, 81, 0
1, 15885, Note_on_c, 0, 74, 0
1, 15885, Note_on_c, 1, 62, 0
1, 15885, Note_on_c, 1, 57, 0
1, 15885, Note_on_c, 1, 54, 0
1, 15888, Note_on_c, 0, 74, 80
1, 15888, Note_on_c, 1, 55, 80
1, 15896, Note_on_c, 0, 79, 80
1, 15896, Note_on_c, 1, 59, 80
1, 15904, Note_on_c, 0, 83, 80
1, 15904, Note_on_c, 1, 62, 80
1, 15933, Note_on_c, 0, 83, 0
1, 15933, Note_on_c, 0, 79, 0
1, 15933, Note_on_c, 0, 74, 0
1, 15933, Note_on_c, 1, 62, 0
1, 15933, Note_on_c, 1, 59, 0
1, 15933, Note_on_c, 1, 55, 0
1, 15936, Note_on_c, 0, 76, 80
1, 15936, Note_on_c, 1, 60, 80
1, 15936, Note_on_c, 1, 48, 80
1, 15944, Note_on_c, 0, 84, 80
1, 15952, Note_on_c, 0, 88, 80
1, 15981, Note_on_c, 0, 88, 0
1, 15981, Note_on_c, 0, 84, 0
1, 15981, Note_on_c, 0, 76, 0
1, 15981, Note_on_c, 1, 60, 0
1, 15981, Note_on_c, 1, 48, 0
1, 16032, Note_on_c, 0, 69, 64
1, 16032, Note_on_c, 1, 66, 64
1, 16066, Note_on_c, 0, 69, 0
1, 16068, Note_on_c, 0, 71, 64
1, 16080, Note_on_c, 0, 71, 0
1, 16080, Note_on_c, 0, 72, 64
1, 16080, Note_on_c, 1, 66, 0
1, 16080, Note_on_c, 1, 62, 64
1, 16114, Note_on_c, 0, 72, 0
1, 16116, Note_on_c, 0, 74, 64
1, 16125, Note_on_c, 1, 62, 0
1, 16128, Note_on_c, 0, 74, 0
1, 16128, Note_on_c, 0, 74, 64
1, 16128, Note_on_c, 0, 71, 64
1, 16128, Note_on_c, 1, 67, 64
1, 16173, Note_on_c, 0, 74, 0
1, 16173, Note_on_c, 0, 71, 0
1, 16173, Note_on_c, 1, 67, 0
1, 16176, Note_on_c, 0, 74, 80
1, 16176, Note_on_c, 1, 55, 80
1, 16184, Note_on_c, 0, 79, 80
1, 16184, Note_on_c, 1, 59, 80
1, 16192, Note_on_c, 0, 83, 80
1, 16192, Note_on_c, 1, 62, 80
1, 16221, Note_on_c, 0, 83, 0
1, 16221, Note_on_c, 0, 79, 0
1, 16221, Note_on_c, 0, 74, 0
1, 16221, Note_on_c, 1, 62, 0
1, 16221, Note_on_c, 1, 59, 0
1, 16221, Note_on_c, 1, 55, 0
1, 16224, Note_on_c, 0, 74, 80
1, 16224, Note_on_c, 1, 54, 80
1, 16232, Note_on_c, 0, 81, 80
1, 16232, Note_on_c, 1, 57, 80
1, 16240, Note_on_c, 0, 84, 80
1, 16240, Note_on_c, 1, 62, 80
1, 16269, Note_on_c, 0, 84, 0
1, 16269, Note_on_c, 0, 81, 0
1, 16269, Note_on_c, 0, 74, 0
1, 16269, Note_on_c, 1, 62, 0
1, 16269, Note_on_c, 1, 57, 0
1, 16269, Note_on_c, 1, 54, 0
1, 16272, Note_on_c, 0, 74, 80
1, 16272, Note_on_c, 1, 55, 80
1, 16280, Note_on_c, 0, 79, 80
1, 16280, Note_on_c, 1, 59, 80
1, 16288, Note_on_c, 0, 83, 80
1, 16288, Note_on_c, 1, 62, 80
1, 16317, Note_on_c, 0, 83, 0
1, 16317, Note_on_c, 0, 79, 0
1, 16317, Note_on_c, 0, 74, 0
1, 16317, Note_on_c, 1, 62, 0
1, 16317, Note_on_c, 1, 59, 0
1, 16317, Note_on_c, 1, 55, 0
1, 16320, Note_on_c, 0, 76, 80
1, 16320, Note_on_c, 1, 60, 80
1, 16320, Note_on_c, 1, 48, 80
1, 16328, Note_on_c, 0, 84, 80
1, 16336, Note_on_c, 0, 88, 80
1, 16365, Note_on_c, 0, 88, 0
1, 16365, Note_on_c, 0, 84, 0
1, 16365, Note_on_c, 0, 76, 0
1, 16365, Note_on_c, 1, 60, 0
1, 16365, Note_on_c, 1, 48, 0
1, 16416, Note_on_c, 0, 66, 80
1, 16431, Note_on_c, 0, 66, 0
1, 16432, Note_on_c, 0, 69, 80
1, 16447, Note_on_c, 0, 69, 0
1, 16448, Note_on_c, 0, 72, 80
1, 16463, Note_on_c, 0, 72, 0
1, 16464, Note_on_c, 0, 76, 80
1, 16464, Note_on_c, 1, 57, 80
1, 16464, Note_on_c, 1, 50, 80
1, 16479, Note_on_c, 0, 76, 0
1, 16480, Note_on_c, 0, 74, 80
1, 16495, Note_on_c, 0, 74, 0
1, 16496, Note_on_c, 0, 72, 80
1, 16509, Note_on_c, 1, 57, 0
1, 16509, Note_on_c, 1, 50, 0
1, 16511, Note_on_c, 0, 72, 0
1, 16512, Note_on_c, 0, 71, 80
1, 16512, Note_on_c, 1, 55, 80
1, 16532, Note_on_c, 0, 71, 0
1, 16532, Note_on_c, 1, 55, 0
1, 16560, Note_on_c, 0, 74, 80
1, 16560, Note_on_c, 1, 55, 80
1, 16575, Note_on_c, 0, 74, 0
1, 16575, Note_on_c, 1, 55, 0
1, 16576, Note_on_c, 0, 79, 80
1, 16576, Note_on_c, 1, 59, 80
1, 16591, Note_on_c, 0, 79, 0
1, 16591, Note_on_c, 1, 59, 0
1, 16592, Note_on_c, 0, 83, 80
1, 16592, Note_on_c, 1, 62, 80
1, 16607, Note_on_c, 0, 83, 0
1, 16607, Note_on_c, 1, 62, 0
1, 16608, Note_on_c, 0, 74, 80
1, 16608, Note_on_c, 1, 54, 80
1, 16623, Note_on_c, 0, 74, 0
1, 16623, Note_on_c, 1, 54, 0
1, 16624, Note_on_c, 0, 81, 80
1, 16624, Note_on_c, 1, 57, 80
1, 16639, Note_on_c, 0, 81, 0
1, 16639, Note_on_c, 1, 57, 0
1, 16640, Note_on_c, 0, 84, 80
1, 16640, Note_on_c, 1, 62, 80
1, 16655, Note_on_c, 0, 84, 0
1, 16655, Note_on_c, 1, 62, 0
1, 16656, Note_on_c, 0, 74, 80
1, 16656, Note_on_c, 1, 55, 80
1, 16671, Note_on_c, 0, 74, 0
1, 16671, Note_on_c, 1, 55, 0
1, 16672, Note_on_c, 0, 79, 80
1, 16672, Note_on_c, 1, 59, 80
1, 16687, Note_on_c, 0, 79, 0
1, 16687, Note_on_c, 1, 59, 0
1, 16688, Note_on_c, 0, 83, 80
1, 16688, Note_on_c, 1, 62, 80
1, 16703, Note_on_c, 0, 83, 0
1, 16703, Note_on_c, 1, 62, 0
1, 16704, Note_on_c, 0, 76, 80
1, 16704, Note_on_c, 1, 48, 80
1, 16719, Note_on_c, 0, 76, 0
1, 16720, Note_on_c, 0, 88, 80
1, 16724, Note_on_c, 1, 48, 0
1, 16735, Note_on_c, 0, 88, 0
1, 16736, Note_on_c, 0, 86, 80
1, 16751, Note_on_c, 0, 86, 0
1, 16752, Note_on_c, 0, 84, 80
1, 16767, Note_on_c, 0, 84, 0
1, 16768, Note_on_c, 0, 83, 80
1, 16783, Note_on_c, 0, 83, 0
1, 16784, Note_on_c, 0, 81, 80
1, 16799, Note_on_c, 0, 81, 0
1, 16800, Note_on_c, 0, 80, 80
1, 16800, Note_on_c, 1, 64, 80
1, 16800, Note_on_c, 1, 60, 80
1, 16815, Note_on_c, 0, 80, 0
1, 16816, Note_on_c, 0, 81, 80
1, 16820, Note_on_c, 1, 64, 0
1, 16820, Note_on_c, 1, 60, 0
1, 16831, Note_on_c, 0, 81, 0
1, 16832, Note_on_c, 0, 88, 80
1, 16847, Note_on_c, 0, 88, 0
1, 16848, Note_on_c, 0, 86, 80
1, 16863, Note_on_c, 0, 86, 0
1, 16864, Note_on_c, 0, 84, 80
1, 16879, Note_on_c, 0, 84, 0
1, 16880, Note_on_c, 0, 83, 80
1, 16895, Note_on_c, 0, 83, 0
1, 16896, Note_on_c, 0, 81, 80
1, 16896, Note_on_c, 1, 64, 80
1, 16896, Note_on_c, 1, 60, 80
1, 16911, Note_on_c, 0, 81, 0
1, 16912, Note_on_c, 0, 80, 79
1, 16916, Note_on_c, 1, 64, 0
1, 16916, Note_on_c, 1, 60, 0
1, 16927, Note_on_c, 0, 80, 0
1, 16928, Note_on_c, 0, 88, 79
1, 16943, Note_on_c, 0, 88, 0
1, 16944, Note_on_c, 0, 86, 78
1, 16959, Note_on_c, 0, 86, 0
1, 16960, Note_on_c, 0, 84, 78
1, 16975, Note_on_c, 0, 84, 0
1, 16976, Note_on_c, 0, 83, 77
1, 16991, Note_on_c, 0, 83, 0
1, 16992, Note_on_c, 0, 81, 77
1, 16992, Note_on_c, 1, 64, 76
1, 16992, Note_on_c, 1, 60, 76
1, 17007, Note_on_c, 0, 81, 0
1, 17008, Note_on_c, 0, 80, 76
1, 17012, Note_on_c, 1, 64, 0
1, 17012, Note_on_c, 1, 60, 0
1, 17023, Note_on_c, 0, 80, 0
1, 17024, Note_on_c, 0, 88, 76
1, 17039, Note_on_c, 0, 88, 0
1, 17040, Note_on_c, 0, 86, 75
1, 17055, Note_on_c, 0, 86, 0
1, 17056, Note_on_c, 0, 84, 75
1, 17071, Note_on_c, 0, 84, 0
1, 17072, Note_on_c, 0, 83, 74
1, 17087, Note_on_c, 0, 83, 0
1, 17088, Note_on_c, 0, 81, 74
1, 17088, Note_on_c, 1, 64, 72
1, 17088, Note_on_c, 1, 60, 72
1, 17103, Note_on_c, 0, 81, 0
1, 17104, Note_on_c, 0, 80, 73
1, 17108, Note_on_c, 1, 64, 0
1, 17108, Note_on_c, 1, 60, 0
1, 17119, Note_on_c, 0, 80, 0
1, 17120, Note_on_c, 0, 88, 73
1, 17135, Note_on_c, 0, 88, 0
1, 17136, Note_on_c, 0, 86, 72
1, 17151, Note_on_c, 0, 86, 0
1, 17152, Note_on_c, 0, 84, 72
1, 17167, Note_on_c, 0, 84, 0
1, 17168, Note_on_c, 0, 83, 71
1, 17183, Note_on_c, 0, 83, 0
1, 17184, Note_on_c, 0, 81, 71
1, 17184, Note_on_c, 1, 64, 68
1, 17184, Note_on_c, 1, 60, 68
1, 17199, Note_on_c, 0, 81, 0
1, 17200, Note_on_c, 0, 88, 70
1, 17204, Note_on_c, 1, 64, 0
1, 17204, Note_on_c, 1, 60, 0
1, 17215, Note_on_c, 0, 88, 0
1, 17216, Note_on_c, 0, 86, 70
1, 17231, Note_on_c, 0, 86, 0
1, 17232, Note_on_c, 0, 84, 69
1, 17247, Note_on_c, 0, 84, 0
1, 17248, Note_on_c, 0, 83, 69
1, 17263, Note_on_c, 0, 83, 0
1, 17264, Note_on_c, 0, 81, 68
1, 17279, Note_on_c, 0, 81, 0
1, 17280, Note_on_c, 0, 83, 64
1, 17280, Note_on_c, 1, 59, 64
1, 17280, Note_on_c, 1, 55, 64
1, 17280, Note_on_c, 1, 50, 64
1, 17295, Note_on_c, 0, 83, 0
1, 17296, Note_on_c, 0, 86, 64
1, 17311, Note_on_c, 0, 86, 0
1, 17312, Note_on_c, 0, 84, 65
1, 17327, Note_on_c, 0, 84, 0
1, 17328, Note_on_c, 0, 83, 66
1, 17343, Note_on_c, 0, 83, 0
1, 17344, Note_on_c, 0, 81, 67
1, 17359, Note_on_c, 0, 81, 0
1, 17360, Note_on_c, 0, 79, 68
1, 17374, Note_on_c, 1, 59, 0
1, 17374, Note_on_c, 1, 55, 0
1, 17374, Note_on_c, 1, 50, 0
1, 17375, Note_on_c, 0, 79, 0
1, 17376, Note_on_c, 0, 78, 69
1, 17391, Note_on_c, 0, 78, 0
1, 17392, Note_on_c, 0, 76, 70
1, 17407, Note_on_c, 0, 76, 0
1, 17408, Note_on_c, 0, 74, 71
1, 17423, Note_on_c, 0, 74, 0
1, 17424, Note_on_c, 0, 86, 72
1, 17439, Note_on_c, 0, 86, 0
1, 17440, Note_on_c, 0, 83, 73
1, 17455, Note_on_c, 0, 83, 0
1, 17456, Note_on_c, 0, 79, 74
1, 17471, Note_on_c, 0, 79, 0
1, 17472, Note_on_c, 0, 83, 75
1, 17472, Note_on_c, 1, 50, 79
1, 17484, Note_on_c, 0, 83, 0
1, 17484, Note_on_c, 0, 81, 80
1, 17487, Note_on_c, 1, 50, 0
1, 17488, Note_on_c, 1, 54, 80
1, 17496, Note_on_c, 0, 81, 0
1, 17496, Note_on_c, 0, 83, 80
1, 17503, Note_on_c, 1, 54, 0
1, 17504, Note_on_c, 1, 57, 80
1, 17508, Note_on_c, 0, 83, 0
1, 17508, Note_on_c, 0, 81, 80
1, 17519, Note_on_c, 1, 57, 0
1, 17520, Note_on_c, 0, 81, 0
1, 17520, Note_on_c, 0, 83, 80
1, 17520, Note_on_c, 1, 62, 80
1, 17532, Note_on_c, 0, 83, 0
1, 17532, Note_on_c, 0, 81, 80
1, 17535, Note_on_c, 1, 62, 0
1, 17536, Note_on_c, 1, 66, 80
1, 17544, Note_on_c, 0, 81, 0
1, 17544, Note_on_c, 0, 83, 80
1, 17551, Note_on_c, 1, 66, 0
1, 17552, Note_on_c, 1, 69, 80
1, 17556, Note_on_c, 0, 83, 0
1, 17556, Note_on_c, 0, 81, 80
1, 17567, Note_on_c, 1, 69, 0
1, 17568, Note_on_c, 0, 81, 0
1, 17568, Note_on_c, 0, 83, 80
1, 17568, Note_on_c, 1, 72, 80
1, 17580, Note_on_c, 0, 83, 0
1, 17580, Note_on_c, 0, 81, 80
1, 17588, Note_on_c, 1, 72, 0
1, 17592, Note_on_c, 0, 81, 0
1, 17592, Note_on_c, 0, 83, 80
1, 17604, Note_on_c, 0, 83, 0
1, 17604, Note_on_c, 0, 81, 80
1, 17616, Note_on_c, 0, 81, 0
1, 17616, Note_on_c, 0, 83, 80
1, 17628, Note_on_c, 0, 83, 0
1, 17628, Note_on_c, 0, 81, 80
1, 17640, Note_on_c, 0, 81, 0
1, 17640, Note_on_c, 0, 79, 80
1, 17652, Note_on_c, 0, 79, 0
1, 17652, Note_on_c, 0, 81, 80
1, 17664, Note_on_c, 0, 81, 0
1, 17664, Note_on_c, 0, 79, 96
1, 17664, Note_on_c, 1, 59, 64
1, 17664, Note_on_c, 1, 55, 70
1, 17684, Note_on_c, 0, 79, 0
1, 17687, Note_on_c, 1, 59, 0
1, 17688, Note_on_c, 1, 62, 64
1, 17709, Note_on_c, 1, 55, 0
1, 17711, Note_on_c, 1, 62, 0
1, 17712, Note_on_c, 0, 83, 80
1, 17712, Note_on_c, 1, 59, 64
1, 17712, Note_on_c, 1, 55, 70
1, 17732, Note_on_c, 0, 83, 0
1, 17735, Note_on_c, 1, 59, 0
1, 17736, Note_on_c, 1, 62, 64
1, 17757, Note_on_c, 1, 55, 0
1, 17759, Note_on_c, 1, 62, 0
1, 17760, Note_on_c, 1, 59, 64
1, 17760, Note_on_c, 1, 55, 70
1, 17783, Note_on_c, 1, 59, 0
1, 17784, Note_on_c, 1, 62, 64
1, 17805, Note_on_c, 1, 55, 0
1, 17807, Note_on_c, 1, 62, 0
1, 17808, Note_on_c, 0, 79, 80
1, 17808, Note_on_c, 1, 59, 64
1, 17808, Note_on_c, 1, 55, 70
1, 17828, Note_on_c, 0, 79, 0
1, 17831, Note_on_c, 1, 59, 0
1, 17832, Note_on_c, 1, 62, 64
1, 17853, Note_on_c, 1, 55, 0
1, 17855, Note_on_c, 1, 62, 0
1, 17856, Note_on_c, 1, 59, 64
1, 17856, Note_on_c, 1, 55, 70
1, 17879, Note_on_c, 1, 59, 0
1, 17880, Note_on_c, 1, 62, 64
1, 17901, Note_on_c, 1, 55, 0
1, 17903, Note_on_c, 1, 62, 0
1, 17904, Note_on_c, 0, 76, 80
1, 17904, Note_on_c, 1, 59, 64
1, 17904, Note_on_c, 1, 55, 70
1, 17916, Note_on_c, 0, 76, 0
1, 17916, Note_on_c, 0, 74, 80
1, 17927, Note_on_c, 1, 59, 0
1, 17928, Note_on_c, 1, 62, 64
1, 17949, Note_on_c, 0, 74, 0
1, 17949, Note_on_c, 1, 55, 0
1, 17951, Note_on_c, 1, 62, 0
1, 17952, Note_on_c, 0, 72, 80
1, 17952, Note_on_c, 1, 59, 64
1, 17952, Note_on_c, 1, 55, 70
1, 17964, Note_on_c, 0, 72, 0
1, 17964, Note_on_c, 0, 71, 80
1, 17975, Note_on_c, 1, 59, 0
1, 17976, Note_on_c, 1, 62, 64
1, 17997, Note_on_c, 0, 71, 0
1, 17997, Note_on_c, 1, 55, 0
1, 17999, Note_on_c, 1, 62, 0
1, 18000, Note_on_c, 0, 69, 80
1, 18000, Note_on_c, 1, 59, 64
1, 18000, Note_on_c, 1, 55, 70
1, 18012, Note_on_c, 0, 69, 0
1, 18012, Note_on_c, 0, 67, 80
1, 18023, Note_on_c, 1, 59, 0
1, 18024, Note_on_c, 1, 62, 64
1, 18045, Note_on_c, 0, 67, 0
1, 18045, Note_on_c, 1, 55, 0
1, 18047, Note_on_c, 1, 62, 0
1, 18048, Note_on_c, 0, 66, 80
1, 18048, Note_on_c, 1, 60, 64
1, 18048, Note_on_c, 1, 55, 70
1, 18071, Note_on_c, 1, 60, 0
1, 18072, Note_on_c, 1, 62, 64
1, 18093, Note_on_c, 1, 55, 0
1, 18095, Note_on_c, 1, 62, 0
1, 18096, Note_on_c, 1, 60, 64
1, 18096, Note_on_c, 1, 55, 70
1, 18119, Note_on_c, 1, 60, 0
1, 18120, Note_on_c, 1, 62, 64
1, 18141, Note_on_c, 1, 55, 0
1, 18143, Note_on_c, 1, 62, 0
1, 18144, Note_on_c, 1, 60, 64
1, 18144, Note_on_c, 1, 55, 70
1, 18167, Note_on_c, 0, 66, 0
1, 18167, Note_on_c, 1, 60, 0
1, 18168, Note_on_c, 0, 67, 80
1, 18168, Note_on_c, 1, 62, 64
1, 18178, Note_on_c, 0, 67, 0
1, 18189, Note_on_c, 1, 55, 0
1, 18191, Note_on_c, 1, 62, 0
1, 18192, Note_on_c, 0, 69, 80
1, 18192, Note_on_c, 1, 60, 64
1, 18192, Note_on_c, 1, 55, 70
1, 18202, Note_on_c, 0, 69, 0
1, 18215, Note_on_c, 1, 60, 0
1, 18216, Note_on_c, 0, 71, 80
1, 18216, Note_on_c, 1, 62, 64
1, 18226, Note_on_c, 0, 71, 0
1, 18237, Note_on_c, 1, 55, 0
1, 18239, Note_on_c, 1, 62, 0
1, 18240, Note_on_c, 0, 72, 80
1, 18240, Note_on_c, 1, 60, 64
1, 18240, Note_on_c, 1, 55, 70
1, 18250, Note_on_c, 0, 72, 0
1, 18263, Note_on_c, 1, 60, 0
1, 18264, Note_on_c, 0, 74, 80
1, 18264, Note_on_c, 1, 62, 64
1, 18274, Note_on_c, 0, 74, 0
1, 18285, Note_on_c, 1, 55, 0
1, 18287, Note_on_c, 1, 62, 0
1, 18288, Note_on_c, 0, 76, 80
1, 18288, Note_on_c, 1, 60, 64
1, 18288, Note_on_c, 1, 55, 70
1, 18298, Note_on_c, 0, 76, 0
1, 18311, Note_on_c, 1, 60, 0
1, 18312, Note_on_c, 0, 78, 80
1, 18312, Note_on_c, 1, 62, 64
1, 18322, Note_on_c, 0, 78, 0
1, 18333, Note_on_c, 1, 55, 0
1, 18335, Note_on_c, 1, 62, 0
1, 18336, Note_on_c, 0, 79, 80
1, 18336, Note_on_c, 1, 60, 64
1, 18336, Note_on_c, 1, 55, 70
1, 18346, Note_on_c, 0, 79, 0
1, 18359, Note_on_c, 1, 60, 0
1, 18360, Note_on_c, 0, 81, 80
1, 18360, Note_on_c, 1, 62, 64
1, 18370, Note_on_c, 0, 81, 0
1, 18381, Note_on_c, 1, 55, 0
1, 18383, Note_on_c, 1, 62, 0
1, 18384, Note_on_c, 0, 83, 80
1, 18384, Note_on_c, 1, 60, 64
1, 18384, Note_on_c, 1, 55, 70
1, 18394, Note_on_c, 0, 83, 0
1, 18407, Note_on_c, 1, 60, 0
1, 18408, Note_on_c, 0, 84, 80
1, 18408, Note_on_c, 1, 62, 64
1, 18418, Note_on_c, 0, 84, 0
1, 18429, Note_on_c, 1, 55, 0
1, 18431, Note_on_c, 1, 62, 0
1, 18432, Note_on_c, 0, 86, 80
1, 18432, Note_on_c, 1, 59, 64
1, 18432, Note_on_c, 1, 55, 70
1, 18452, Note_on_c, 0, 86, 0
1, 18455, Note_on_c, 1, 59, 0
1, 18456, Note_on_c, 1, 62, 64
1, 18477, Note_on_c, 1, 55, 0
1, 18479, Note_on_c, 1, 62, 0
1, 18480, Note_on_c, 0, 83, 80
1, 18480, Note_on_c, 1, 59, 64
1, 18480, Note_on_c, 1, 55, 70
1, 18500, Note_on_c, 0, 83, 0
1, 18503, Note_on_c, 1, 59, 0
1, 18504, Note_on_c, 1, 62, 64
1, 18525, Note_on_c, 1, 55, 0
1, 18527, Note_on_c, 1, 62, 0
1, 18528, Note_on_c, 1, 59, 64
1, 18528, Note_on_c, 1, 55, 70
1, 18551, Note_on_c, 1, 59, 0
1, 18552, Note_on_c, 1, 62, 64
1, 18573, Note_on_c, 1, 55, 0
1, 18575, Note_on_c, 1, 62, 0
1, 18576, Note_on_c, 0, 79, 75
1, 18576, Note_on_c, 1, 59, 64
1, 18576, Note_on_c, 1, 55, 70
1, 18596, Note_on_c, 0, 79, 0
1, 18599, Note_on_c, 1, 59, 0
1, 18600, Note_on_c, 1, 62, 64
1, 18621, Note_on_c, 1, 55, 0
1, 18623, Note_on_c, 1, 62, 0
1, 18624, Note_on_c, 1, 59, 64
1, 18624, Note_on_c, 1, 55, 70
1, 18647, Note_on_c, 1, 59, 0
1, 18648, Note_on_c, 1, 62, 64
1, 18669, Note_on_c, 1, 55, 0
1, 18671, Note_on_c, 1, 62, 0
1, 18672, Note_on_c, 0, 76, 75
1, 18672, Note_on_c, 1, 59, 64
1, 18672, Note_on_c, 1, 55, 70
1, 18684, Note_on_c, 0, 76, 0
1, 18684, Note_on_c, 0, 74, 75
1, 18695, Note_on_c, 1, 59, 0
1, 18696, Note_on_c, 1, 62, 64
1, 18717, Note_on_c, 0, 74, 0
1, 18717, Note_on_c, 1, 55, 0
1, 18719, Note_on_c, 1, 62, 0
1, 18720, Note_on_c, 0, 72, 75
1, 18720, Note_on_c, 1, 59, 64
1, 18720, Note_on_c, 1, 55, 70
1, 18732, Note_on_c, 0, 72, 0
1, 18732, Note_on_c, 0, 71, 75
1, 18743, Note_on_c, 1, 59, 0
1, 18744, Note_on_c, 1, 62, 64
1, 18765, Note_on_c, 0, 71, 0
1, 18765, Note_on_c, 1, 55, 0
1, 18767, Note_on_c, 1, 62, 0
1, 18768, Note_on_c, 0, 69, 75
1, 18768, Note_on_c, 1, 59, 64
1, 18768, Note_on_c, 1, 55, 70
1, 18780, Note_on_c, 0, 69, 0
1, 18780, Note_on_c, 0, 67, 75
1, 18791, Note_on_c, 1, 59, 0
1, 18792, Note_on_c, 1, 62, 64
1, 18813, Note_on_c, 0, 67, 0
1, 18813, Note_on_c, 1, 55, 0
1, 18815, Note_on_c, 1, 62, 0
1, 18816, Note_on_c, 0, 66, 75
1, 18816, Note_on_c, 1, 60, 64
1, 18816, Note_on_c, 1, 55, 70
1, 18839, Note_on_c, 1, 60, 0
1, 18840, Note_on_c, 1, 62, 64
1, 18861, Note_on_c, 1, 55, 0
1, 18863, Note_on_c, 1, 62, 0
1, 18864, Note_on_c, 1, 60, 64
1, 18864, Note_on_c, 1, 55, 70
1, 18887, Note_on_c, 1, 60, 0
1, 18888, Note_on_c, 1, 62, 64
1, 18909, Note_on_c, 1, 55, 0
1, 18911, Note_on_c, 1, 62, 0
1, 18912, Note_on_c, 1, 60, 64
1, 18912, Note_on_c, 1, 55, 70
1, 18935, Note_on_c, 0, 66, 0
1, 18935, Note_on_c, 1, 60, 0
1, 18936, Note_on_c, 0, 83, 75
1, 18936, Note_on_c, 1, 62, 64
1, 18957, Note_on_c, 1, 55, 0
1, 18959, Note_on_c, 0, 83, 0
1, 18959, Note_on_c, 1, 62, 0
1, 18960, Note_on_c, 0, 81, 75
1, 18960, Note_on_c, 1, 60, 64
1, 18960, Note_on_c, 1, 55, 70
1, 18983, Note_on_c, 0, 81, 0
1, 18983, Note_on_c, 1, 60, 0
1, 18984, Note_on_c, 0, 79, 75
1, 18984, Note_on_c, 1, 62, 64
1, 19005, Note_on_c, 1, 55, 0
1, 19007, Note_on_c, 0, 79, 0
1, 19007, Note_on_c, 1, 62, 0
1, 19008, Note_on_c, 0, 78, 75
1, 19008, Note_on_c, 1, 60, 64
1, 19008, Note_on_c, 1, 55, 70
1, 19031, Note_on_c, 0, 78, 0
1, 19031, Note_on_c, 1, 60, 0
1, 19032, Note_on_c, 0, 76, 75
1, 19032, Note_on_c, 1, 62, 64
1, 19053, Note_on_c, 1, 55, 0
1, 19055, Note_on_c, 0, 76, 0
1, 19055, Note_on_c, 1, 62, 0
1, 19056, Note_on_c, 0, 74, 75
1, 19056, Note_on_c, 1, 60, 64
1, 19056, Note_on_c, 1, 55, 70
1, 19079, Note_on_c, 0, 74, 0
1, 19079, Note_on_c, 1, 60, 0
1, 19080, Note_on_c, 0, 72, 75
1, 19080, Note_on_c, 1, 62, 64
1, 19101, Note_on_c, 1, 55, 0
1, 19103, Note_on_c, 0, 72, 0
1, 19103, Note_on_c, 1, 62, 0
1, 19104, Note_on_c, 0, 71, 75
1, 19104, Note_on_c, 1, 60, 64
1, 19104, Note_on_c, 1, 55, 70
1, 19127, Note_on_c, 0, 71, 0
1, 19127, Note_on_c, 1, 60, 0
1, 19128, Note_on_c, 0, 69, 75
1, 19128, Note_on_c, 1, 62, 64
1, 19149, Note_on_c, 1, 55, 0
1, 19151, Note_on_c, 0, 69, 0
1, 19151, Note_on_c, 1, 62, 0
1, 19152, Note_on_c, 0, 67, 75
1, 19152, Note_on_c, 1, 60, 64
1, 19152, Note_on_c, 1, 55, 70
1, 19175, Note_on_c, 0, 67, 0
1, 19175, Note_on_c, 1, 60, 0
1, 19176, Note_on_c, 0, 66, 75
1, 19176, Note_on_c, 1, 62, 64
1, 19197, Note_on_c, 1, 55, 0
1, 19199, Note_on_c, 0, 66, 0
1, 19199, Note_on_c, 1, 62, 0
1, 19200, Note_on_c, 0, 67, 75
1, 19200, Note_on_c, 1, 59, 64
1, 19200, Note_on_c, 1, 55, 64
1, 19220, Note_on_c, 0, 67, 0
1, 19245, Note_on_c, 1, 59, 0
1, 19245, Note_on_c, 1, 55, 0
1, 19248, Note_on_c, 0, 69, 64
1, 19248, Note_on_c, 0, 66, 64
1, 19271, Note_on_c, 0, 66, 0
1, 19272, Note_on_c, 0, 62, 64
1, 19293, Note_on_c, 0, 69, 0
1, 19295, Note_on_c, 0, 62, 0
1, 19296, Note_on_c, 0, 71, 64
1, 19296, Note_on_c, 0, 67, 64
1, 19319, Note_on_c, 0, 67, 0
1, 19320, Note_on_c, 0, 62, 64
1, 19341, Note_on_c, 0, 71, 0
1, 19343, Note_on_c, 0, 62, 0
1, 19344, Note_on_c, 0, 72, 64
1, 19344, Note_on_c, 0, 69, 64
1, 19367, Note_on_c, 0, 69, 0
1, 19368, Note_on_c, 0, 62, 64
1, 19389, Note_on_c, 0, 72, 0
1, 19391, Note_on_c, 0, 62, 0
1, 19392, Note_on_c, 0, 74, 64
1, 19392, Note_on_c, 0, 71, 64
1, 19437, Note_on_c, 0, 74, 0
1, 19437, Note_on_c, 0, 71, 0
1, 19440, Note_on_c, 0, 69, 80
1, 19440, Note_on_c, 0, 64, 80
1, 19440, Note_on_c, 1, 48, 82
1, 19463, Note_on_c, 0, 64, 0
1, 19464, Note_on_c, 0, 60, 80
1, 19464, Note_on_c, 1, 48, 0
1, 19464, Note_on_c, 1, 45, 64
1, 19485, Note_on_c, 0, 69, 0
1, 19487, Note_on_c, 0, 60, 0
1, 19487, Note_on_c, 1, 45, 0
1, 19488, Note_on_c, 0, 67, 80
1, 19488, Note_on_c, 0, 62, 80
1, 19488, Note_on_c, 1, 50, 64
1, 19508, Note_on_c, 1, 50, 0
1, 19511, Note_on_c, 0, 62, 0
1, 19512, Note_on_c, 0, 59, 80
1, 19533, Note_on_c, 0, 67, 0
1, 19535, Note_on_c, 0, 59, 0
1, 19536, Note_on_c, 0, 66, 80
1, 19536, Note_on_c, 0, 60, 80
1, 19536, Note_on_c, 1, 50, 64
1, 19536, Note_on_c, 1, 38, 64
1, 19556, Note_on_c, 1, 50, 0
1, 19556, Note_on_c, 1, 38, 0
1, 19559, Note_on_c, 0, 60, 0
1, 19560, Note_on_c, 0, 57, 80
1, 19581, Note_on_c, 0, 66, 0
1, 19583, Note_on_c, 0, 57, 0
1, 19584, Note_on_c, 0, 67, 80
1, 19584, Note_on_c, 0, 59, 80
1, 19584, Note_on_c, 1, 43, 64
1, 19584, Note_on_c, 1, 31, 64
1, 19604, Note_on_c, 0, 59, 0
1, 19629, Note_on_c, 1, 43, 0
1, 19629, Note_on_c, 1, 31, 0
1, 19631, Note_on_c, 0, 67, 0
1, 19632, Note_on_c, 0, 69, 64
1, 19632, Note_on_c, 0, 66, 64
1, 19655, Note_on_c, 0, 66, 0
1, 19656, Note_on_c, 0, 62, 64
1, 19677, Note_on_c, 0, 69, 0
1, 19679, Note_on_c, 0, 62, 0
1, 19680, Note_on_c, 0, 71, 64
1, 19680, Note_on_c, 0, 67, 64
1, 19703, Note_on_c, 0, 67, 0
1, 19704, Note_on_c, 0, 62, 64
1, 19725, Note_on_c, 0, 71, 0
1, 19727, Note_on_c, 0, 62, 0
1, 19728, Note_on_c, 0, 72, 64
1, 19728, Note_on_c, 0, 69, 64
1, 19751, Note_on_c, 0, 69, 0
1, 19752, Note_on_c, 0, 62, 64
1, 19773, Note_on_c, 0, 72, 0
1, 19775, Note_on_c, 0, 62, 0
1, 19776, Note_on_c, 0, 74, 64
1, 19776, Note_on_c, 0, 71, 64
1, 19821, Note_on_c, 0, 74, 0
1, 19821, Note_on_c, 0, 71, 0
1, 19824, Note_on_c, 0, 69, 80
1, 19824, Note_on_c, 0, 64, 80
1, 19824, Note_on_c, 1, 48, 82
1, 19847, Note_on_c, 0, 64, 0
1, 19848, Note_on_c, 0, 60, 80
1, 19848, Note_on_c, 1, 48, 0
1, 19848, Note_on_c, 1, 45, 64
1, 19869, Note_on_c, 0, 69, 0
1, 19871, Note_on_c, 0, 60, 0
1, 19871, Note_on_c, 1, 45, 0
1, 19872, Note_on_c, 0, 67, 80
1, 19872, Note_on_c, 0, 62, 80
1, 19872, Note_on_c, 1, 50, 64
1, 19892, Note_on_c, 1, 50, 0
1, 19895, Note_on_c, 0, 62, 0
1, 19896, Note_on_c, 0, 59, 80
1, 19917, Note_on_c, 0, 67, 0
1, 19919, Note_on_c, 0, 59, 0
1, 19920, Note_on_c, 0, 66, 80
1, 19920, Note_on_c, 0, 60, 80
1, 19920, Note_on_c, 1, 50, 64
1, 19920, Note_on_c, 1, 38, 64
1, 19940, Note_on_c, 1, 50, 0
1, 19940, Note_on_c, 1, 38, 0
1, 19943, Note_on_c, 0, 60, 0
1, 19944, Note_on_c, 0, 57, 80
1, 19965, Note_on_c, 0, 66, 0
1, 19967, Note_on_c, 0, 57, 0
1, 19968, Note_on_c, 0, 67, 80
1, 19968, Note_on_c, 1, 43, 64
1, 19968, Note_on_c, 1, 31, 64
1, 19988, Note_on_c, 0, 67, 0
1, 20013, Note_on_c, 1, 43, 0
1, 20013, Note_on_c, 1, 31, 0
1, 20064, Note_on_c, 0, 78, 80
1, 20064, Note_on_c, 0, 72, 80
1, 20064, Note_on_c, 0, 69, 80
1, 20064, Note_on_c, 1, 50, 64
1, 20064, Note_on_c, 1, 38, 64
1, 20109, Note_on_c, 0, 78, 0
1, 20109, Note_on_c, 0, 72, 0
1, 20109, Note_on_c, 0, 69, 0
1, 20109, Note_on_c, 1, 50, 0
1, 20109, Note_on_c, 1, 38, 0
1, 20160, Note_on_c, 0, 79, 80
1, 20160, Note_on_c, 0, 74, 80
1, 20160, Note_on_c, 0, 71, 80
1, 20160, Note_on_c, 1, 43, 64
1, 20160, Note_on_c, 1, 31, 64
1, 20205, Note_on_c, 0, 79, 0
1, 20205, Note_on_c, 0, 74, 0
1, 20205, Note_on_c, 0, 71, 0
1, 20205, Note_on_c, 1, 43, 0
1, 20205, Note_on_c, 1, 31, 0
1, 20352, Note_on_c, 0, 72, 64
1, 20372, Note_on_c, 0, 72, 0
1, 20448, Note_on_c, 0, 67, 64
1, 20468, Note_on_c, 0, 67, 0
1, 20544, Note_on_c, 0, 64, 64
1, 20564, Note_on_c, 0, 64, 0
1, 20592, Note_on_c, 1, 48, 64
1, 20612, Note_on_c, 1, 48, 0
1, 20640, Note_on_c, 1, 36, 64
1, 20660, Note_on_c, 1, 36, 0
1, 20688, Note_on_c, 0, 69, 64
1, 20708, Note_on_c, 0, 69, 0
1, 20736, Note_on_c, 0, 62, 64
1, 20756, Note_on_c, 0, 62, 0
1, 20784, Note_on_c, 1, 48, 64
1, 20804, Note_on_c, 1, 48, 0
1, 20832, Note_on_c, 1, 36, 64
1, 20852, Note_on_c, 1, 36, 0
1, 20880, Note_on_c, 0, 67, 64
1, 20900, Note_on_c, 0, 67, 0
1, 20928, Note_on_c, 0, 60, 64
1, 20948, Note_on_c, 0, 60, 0
1, 20976, Note_on_c, 1, 48, 64
1, 20996, Note_on_c, 1, 48, 0
1, 21024, Note_on_c, 1, 36, 64
1, 21044, Note_on_c, 1, 36, 0
1, 21072, Note_on_c, 0, 76, 64
1, 21120, Note_on_c, 0, 76, 0
1, 21120, Note_on_c, 0, 65, 64
1, 21140, Note_on_c, 0, 65, 0
1, 21168, Note_on_c, 1, 48, 64
1, 21216, Note_on_c, 1, 48, 0
1, 21216, Note_on_c, 1, 36, 64
1, 21236, Note_on_c, 1, 36, 0
1, 21264, Note_on_c, 0, 74, 64
1, 21312, Note_on_c, 0, 74, 0
1, 21312, Note_on_c, 0, 64, 64
1, 21332, Note_on_c, 0, 64, 0
1, 21360, Note_on_c, 1, 48, 64
1, 21408, Note_on_c, 1, 48, 0
1, 21408, Note_on_c, 1, 36, 64
1, 21428, Note_on_c, 1, 36, 0
1, 21456, Note_on_c, 0, 72, 64
1, 21501, Note_on_c, 0, 72, 0
1, 21504, Note_on_c, 0, 62, 64
1, 21552, Note_on_c, 0, 62, 0
1, 21552, Note_on_c, 0, 69, 64
1, 21552, Note_on_c, 1, 48, 64
1, 21597, Note_on_c, 0, 69, 0
1, 21600, Note_on_c, 0, 57, 64
1, 21600, Note_on_c, 1, 48, 0
1, 21600, Note_on_c, 1, 36, 64
1, 21620, Note_on_c, 1, 36, 0
1, 21648, Note_on_c, 0, 57, 0
1, 21648, Note_on_c, 0, 59, 64
1, 21693, Note_on_c, 0, 59, 0
1, 21696, Note_on_c, 0, 62, 64
1, 21744, Note_on_c, 0, 62, 0
1, 21744, Note_on_c, 0, 60, 64
1, 21744, Note_on_c, 1, 48, 64
1, 21789, Note_on_c, 0, 60, 0
1, 21792, Note_on_c, 1, 48, 0
1, 21792, Note_on_c, 1, 36, 64
1, 21812, Note_on_c, 1, 36, 0
1, 21840, Note_on_c, 0, 62, 64
1, 21840, Note_on_c, 0, 59, 64
1, 21860, Note_on_c, 0, 62, 0
1, 21860, Note_on_c, 0, 59, 0
1, 21888, Note_on_c, 0, 65, 64
1, 21888, Note_on_c, 0, 62, 64
1, 21936, Note_on_c, 0, 65, 0
1, 21936, Note_on_c, 0, 62, 0
1, 21936, Note_on_c, 0, 64, 64
1, 21936, Note_on_c, 0, 60, 64
1, 21936, Note_on_c, 1, 48, 64
1, 21981, Note_on_c, 0, 64, 0
1, 21981, Note_on_c, 0, 60, 0
1, 21984, Note_on_c, 1, 48, 0
1, 21984, Note_on_c, 1, 36, 64
1, 22004, Note_on_c, 1, 36, 0
1, 22032, Note_on_c, 0, 65, 64
1, 22032, Note_on_c, 0, 62, 64
1, 22052, Note_on_c, 0, 65, 0
1, 22052, Note_on_c, 0, 62, 0
1, 22080, Note_on_c, 0, 69, 64
1, 22080, Note_on_c, 0, 65, 64
1, 22128, Note_on_c, 0, 69, 0
1, 22128, Note_on_c, 0, 65, 0
1, 22128, Note_on_c, 0, 67, 64
1, 22128, Note_on_c, 0, 64, 64
1, 22128, Note_on_c, 1, 48, 64
1, 22173, Note_on_c, 0, 67, 0
1, 22173, Note_on_c, 0, 64, 0
1, 22176, Note_on_c, 1, 48, 0
1, 22176, Note_on_c, 1, 36, 66
1, 22196, Note_on_c, 1, 36, 0
1, 22224, Note_on_c, 0, 71, 68
1, 22224, Note_on_c, 0, 62, 68
1, 22244, Note_on_c, 0, 71, 0
1, 22244, Note_on_c, 0, 62, 0
1, 22272, Note_on_c, 0, 74, 70
1, 22272, Note_on_c, 0, 65, 70
1, 22320, Note_on_c, 0, 74, 0
1, 22320, Note_on_c, 0, 65, 0
1, 22320, Note_on_c, 0, 72, 73
1, 22320, Note_on_c, 0, 64, 73
1, 22320, Note_on_c, 1, 48, 74
1, 22365, Note_on_c, 0, 72, 0
1, 22365, Note_on_c, 0, 64, 0
1, 22368, Note_on_c, 1, 48, 0
1, 22368, Note_on_c, 1, 36, 77
1, 22388, Note_on_c, 1, 36, 0
1, 22416, Note_on_c, 0, 74, 77
1, 22416, Note_on_c, 0, 71, 77
1, 22436, Note_on_c, 0, 74, 0
1, 22436, Note_on_c, 0, 71, 0
1, 22464, Tempo, 1500000
1, 22464, Note_on_c, 0, 77, 98
1, 22464, Note_on_c, 0, 74, 98
1, 22560, Note_on_c, 0, 77, 0
1, 22560, Note_on_c, 0, 74, 0
1, 22560, Note_on_c, 0, 76, 64
1, 22560, Note_on_c, 0, 72, 64
1, 22575, Note_on_c, 0, 76, 0
1, 22575, Note_on_c, 0, 72, 0
1, 22656, Tempo, 545454
1, 22656, Note_on_c, 0, 72, 80
1, 22656, Note_on_c, 1, 36, 80
1, 22662, Note_on_c, 0, 76, 80
1, 22662, Note_on_c, 1, 40, 80
1, 22668, Note_on_c, 0, 79, 80
1, 22668, Note_on_c, 1, 43, 80
1, 22674, Note_on_c, 0, 84, 80
1, 22674, Note_on_c, 1, 48, 80
1, 22701, Note_on_c, 0, 84, 0
1, 22701, Note_on_c, 0, 79, 0
1, 22701, Note_on_c, 0, 76, 0
1, 22701, Note_on_c, 0, 72, 0
1, 22701, Note_on_c, 1, 48, 0
1, 22701, Note_on_c, 1, 43, 0
1, 22701, Note_on_c, 1, 40, 0
1, 22701, Note_on_c, 1, 36, 0
1, 22752, Note_on_c, 0, 71, 80
1, 22752, Note_on_c, 1, 43, 80
1, 22758, Note_on_c, 1, 47, 80
1, 22760, Note_on_c, 0, 74, 80
1, 22764, Note_on_c, 1, 50, 80
1, 22768, Note_on_c, 0, 79, 80
1, 22770, Note_on_c, 1, 55, 80
1, 22797, Note_on_c, 0, 79, 0
1, 22797, Note_on_c, 0, 74, 0
1, 22797, Note_on_c, 0, 71, 0
1, 22797, Note_on_c, 1, 55, 0
1, 22797, Note_on_c, 1, 50, 0
1, 22797, Note_on_c, 1, 47, 0
1, 22797, Note_on_c, 1, 43, 0
1, 22848, Note_on_c, 0, 67, 80
1, 22848, Note_on_c, 1, 48, 80
1, 22854, Note_on_c, 1, 52, 80
1, 22856, Note_on_c, 0, 72, 80
1, 22860, Note_on_c, 1, 55, 80
1, 22864, Note_on_c, 0, 76, 80
1, 22866, Note_on_c, 1, 60, 80
1, 22893, Note_on_c, 0, 76, 0
1, 22893, Note_on_c, 0, 72, 0
1, 22893, Note_on_c, 0, 67, 0
1, 22893, Note_on_c, 1, 60, 0
1, 22893, Note_on_c, 1, 55, 0
1, 22893, Note_on_c, 1, 52, 0
1, 22893, Note_on_c, 1, 48, 0
1, 22992, Note_on_c, 0, 83, 75
1, 23004, Note_on_c, 0, 83, 0
1, 23004, Note_on_c, 0, 81, 75
1, 23016, Note_on_c, 0, 81, 0
1, 23016, Note_on_c, 0, 80, 75
1, 23028, Note_on_c, 0, 80, 0
1, 23028, Note_on_c, 0, 81, 75
1, 23040, Note_on_c, 0, 81, 0
1, 23040, Note_on_c, 0, 74, 75
1, 23060, Note_on_c, 0, 74, 0
1, 23088, Note_on_c, 1, 71, 64
1, 23088, Note_on_c, 1, 65, 64
1, 23108, Note_on_c, 1, 71, 0
1, 23108, Note_on_c, 1, 65, 0
1, 23136, Note_on_c, 1, 71, 64
1, 23136, Note_on_c, 1, 65, 64
1, 23156, Note_on_c, 1, 71, 0
1, 23156, Note_on_c, 1, 65, 0
1, 23184, Note_on_c, 0, 81, 75
1, 23196, Note_on_c, 0, 81, 0
1, 23196, Note_on_c, 0, 79, 75
1, 23208, Note_on_c, 0, 79, 0
1, 23208, Note_on_c, 0, 78, 75
1, 23220, Note_on_c, 0, 78, 0
1, 23220, Note_on_c, 0, 79, 75
1, 23232, Note_on_c, 0, 79, 0
1, 23232, Note_on_c, 0, 72, 75
1, 23252, Note_on_c, 0, 72, 0
1, 23280, Note_on_c, 1, 67, 64
1, 23280, Note_on_c, 1, 64, 64
1, 23300, Note_on_c, 1, 67, 0
1, 23300, Note_on_c, 1, 64, 0
1, 23328, Note_on_c, 1, 67, 64
1, 23328, Note_on_c, 1, 64, 64
1, 23348, Note_on_c, 1, 67, 0
1, 23348, Note_on_c, 1, 64, 0
1, 23376, Note_on_c, 0, 88, 75
1, 23424, Note_on_c, 0, 88, 0
1, 23424, Note_on_c, 0, 77, 75
1, 23444, Note_on_c, 0, 77, 0
1, 23448, Note_on_c, 1, 62, 70
1, 23471, Note_on_c, 1, 62, 0
1, 23472, Note_on_c, 1, 61, 69
1, 23495, Note_on_c, 1, 61, 0
1, 23496, Note_on_c, 1, 62, 68
1, 23519, Note_on_c, 1, 62, 0
1, 23520, Note_on_c, 1, 60, 67
1, 23543, Note_on_c, 1, 60, 0
1, 23544, Note_on_c, 1, 59, 66
1, 23567, Note_on_c, 1, 59, 0
1, 23568, Note_on_c, 0, 86, 75
1, 23568, Note_on_c, 1, 57, 65
1, 23591, Note_on_c, 1, 57, 0
1, 23592, Note_on_c, 1, 55, 64
1, 23615, Note_on_c, 1, 55, 0
1, 23616, Note_on_c, 0, 86, 0
1, 23616, Note_on_c, 0, 76, 75
1, 23636, Note_on_c, 0, 76, 0
1, 23640, Note_on_c, 1, 60, 64
1, 23663, Note_on_c, 1, 60, 0
1, 23664, Note_on_c, 1, 62, 63
1, 23687, Note_on_c, 1, 62, 0
1, 23688, Note_on_c, 1, 64, 62
1, 23711, Note_on_c, 1, 64, 0
1, 23712, Note_on_c, 1, 65, 61
1, 23735, Note_on_c, 1, 65, 0
1, 23736, Note_on_c, 1, 67, 60
1, 23759, Note_on_c, 1, 67, 0
1, 23760, Note_on_c, 0, 84, 75
1, 23760, Note_on_c, 1, 68, 59
1, 23783, Note_on_c, 1, 68, 0
1, 23784, Note_on_c, 1, 69, 58
1, 23807, Note_on_c, 1, 69, 0
1, 23808, Note_on_c, 0, 84, 0
1, 23808, Note_on_c, 0, 74, 75
1, 23808, Note_on_c, 1, 65, 58
1, 23828, Note_on_c, 0, 74, 0
1, 23856, Note_on_c, 0, 77, 75
1, 23856, Note_on_c, 0, 81, 64
1, 23897, Note_on_c, 1, 65, 0
1, 23901, Note_on_c, 0, 77, 0
1, 23901, Note_on_c, 0, 81, 0
1, 23904, Note_on_c, 0, 76, 75
1, 23904, Note_on_c, 0, 79, 64
1, 23949, Note_on_c, 0, 76, 0
1, 23952, Note_on_c, 0, 79, 0
1, 23952, Note_on_c, 0, 71, 64
1, 23952, Note_on_c, 1, 67, 58
1, 23997, Note_on_c, 0, 71, 0
1, 23997, Note_on_c, 1, 67, 0
1, 24000, Note_on_c, 0, 72, 75
1, 24000, Note_on_c, 1, 64, 70
1, 24000, Note_on_c, 1, 60, 75
1, 24020, Note_on_c, 0, 72, 0
1, 24023, Note_on_c, 1, 64, 0
1, 24024, Note_on_c, 1, 67, 70
1, 24045, Note_on_c, 1, 60, 0
1, 24047, Note_on_c, 1, 67, 0
1, 24048, Note_on_c, 0, 72, 75
1, 24048, Note_on_c, 1, 64, 70
1, 24048, Note_on_c, 1, 60, 72
1, 24068, Note_on_c, 0, 72, 0
1, 24071, Note_on_c, 1, 64, 0
1, 24072, Note_on_c, 1, 67, 70
1, 24093, Note_on_c, 1, 60, 0
1, 24095, Note_on_c, 1, 67, 0
1, 24096, Note_on_c, 1, 64, 70
1, 24096, Note_on_c, 1, 60, 70
1, 24119, Note_on_c, 1, 64, 0
1, 24120, Note_on_c, 1, 67, 70
1, 24141, Note_on_c, 1, 60, 0
1, 24143, Note_on_c, 1, 67, 0
1, 24144, Note_on_c, 0, 81, 80
1, 24144, Note_on_c, 1, 64, 70
1, 24144, Note_on_c, 1, 60, 70
1, 24156, Note_on_c, 0, 81, 0
1, 24156, Note_on_c, 0, 79, 80
1, 24167, Note_on_c, 1, 64, 0
1, 24168, Note_on_c, 0, 79, 0
1, 24168, Note_on_c, 0, 78, 80
1, 24168, Note_on_c, 1, 67, 70
1, 24180, Note_on_c, 0, 78, 0
1, 24180, Note_on_c, 0, 79, 80
1, 24189, Note_on_c, 1, 60, 0
1, 24191, Note_on_c, 1, 67, 0
1, 24192, Note_on_c, 0, 79, 0
1, 24192, Note_on_c, 0, 71, 80
1, 24192, Note_on_c, 1, 65, 70
1, 24192, Note_on_c, 1, 62, 70
1, 24192, Note_on_c, 1, 60, 70
1, 24212, Note_on_c, 0, 71, 0
1, 24215, Note_on_c, 1, 65, 0
1, 24215, Note_on_c, 1, 62, 0
1, 24216, Note_on_c, 1, 67, 70
1, 24237, Note_on_c, 1, 60, 0
1, 24239, Note_on_c, 1, 67, 0
1, 24240, Note_on_c, 0, 71, 80
1, 24240, Note_on_c, 1, 65, 70
1, 24240, Note_on_c, 1, 62, 70
1, 24240, Note_on_c, 1, 60, 70
1, 24260, Note_on_c, 0, 71, 0
1, 24263, Note_on_c, 1, 65, 0
1, 24263, Note_on_c, 1, 62, 0
1, 24264, Note_on_c, 1, 67, 70
1, 24285, Note_on_c, 1, 60, 0
1, 24287, Note_on_c, 1, 67, 0
1, 24288, Note_on_c, 1, 65, 70
1, 24288, Note_on_c, 1, 62, 70
1, 24288, Note_on_c, 1, 60, 70
1, 24311, Note_on_c, 1, 65, 0
1, 24311, Note_on_c, 1, 62, 0
1, 24312, Note_on_c, 1, 67, 70
1, 24333, Note_on_c, 1, 60, 0
1, 24335, Note_on_c, 1, 67, 0
1, 24336, Note_on_c, 0, 81, 80
1, 24336, Note_on_c, 1, 65, 70
1, 24336, Note_on_c, 1, 62, 70
1, 24336, Note_on_c, 1, 60, 70
1, 24348, Note_on_c, 0, 81, 0
1, 24348, Note_on_c, 0, 79, 80
1, 24359, Note_on_c, 1, 65, 0
1, 24359, Note_on_c, 1, 62, 0
1, 24360, Note_on_c, 0, 79, 0
1, 24360, Note_on_c, 0, 78, 80
1, 24360, Note_on_c, 1, 67, 70
1, 24372, Note_on_c, 0, 78, 0
1, 24372, Note_on_c, 0, 79, 80
1, 24381, Note_on_c, 1, 60, 0
1, 24383, Note_on_c, 1, 67, 0
1, 24384, Note_on_c, 0, 79, 0
1, 24384, Note_on_c, 0, 84, 80
1, 24384, Note_on_c, 1, 64, 70
1, 24384, Note_on_c, 1, 60, 70
1, 24407, Note_on_c, 1, 64, 0
1, 24408, Note_on_c, 1, 67, 68
1, 24429, Note_on_c, 1, 60, 0
1, 24431, Note_on_c, 1, 67, 0
1, 24432, Note_on_c, 0, 84, 0
1, 24432, Note_on_c, 0, 88, 80
1, 24432, Note_on_c, 1, 64, 67
1, 24432, Note_on_c, 1, 60, 70
1, 24455, Note_on_c, 1, 64, 0
1, 24456, Note_on_c, 1, 67, 66
1, 24477, Note_on_c, 0, 88, 0
1, 24477, Note_on_c, 1, 60, 0
1, 24479, Note_on_c, 1, 67, 0
1, 24480, Note_on_c, 1, 64, 65
1, 24480, Note_on_c, 1, 60, 70
1, 24503, Note_on_c, 1, 64, 0
1, 24504, Note_on_c, 0, 79, 70
1, 24504, Note_on_c, 1, 67, 64
1, 24525, Note_on_c, 1, 60, 0
1, 24527, Note_on_c, 0, 79, 0
1, 24527, Note_on_c, 1, 67, 0
1, 24528, Note_on_c, 0, 81, 70
1, 24528, Note_on_c, 1, 64, 64
1, 24528, Note_on_c, 1, 60, 70
1, 24540, Note_on_c, 0, 81, 0
1, 24540, Note_on_c, 0, 79, 70
1, 24551, Note_on_c, 1, 64, 0
1, 24552, Note_on_c, 0, 79, 0
1, 24552, Note_on_c, 0, 78, 70
1, 24552, Note_on_c, 1, 67, 64
1, 24564, Note_on_c, 0, 78, 0
1, 24564, Note_on_c, 0, 79, 70
1, 24573, Note_on_c, 1, 60, 0
1, 24575, Note_on_c, 1, 67, 0
1, 24576, Note_on_c, 0, 79, 0
1, 24576, Note_on_c, 0, 71, 70
1, 24576, Note_on_c, 1, 65, 64
1, 24576, Note_on_c, 1, 62, 64
1, 24576, Note_on_c, 1, 60, 70
1, 24596, Note_on_c, 0, 71, 0
1, 24599, Note_on_c, 1, 65, 0
1, 24599, Note_on_c, 1, 62, 0
1, 24600, Note_on_c, 1, 67, 64
1, 24621, Note_on_c, 1, 60, 0
1, 24623, Note_on_c, 1, 67, 0
1, 24624, Note_on_c, 0, 71, 70
1, 24624, Note_on_c, 1, 65, 64
1, 24624, Note_on_c, 1, 62, 64
1, 24624, Note_on_c, 1, 60, 70
1, 24644, Note_on_c, 0, 71, 0
1, 24647, Note_on_c, 1, 65, 0
1, 24647, Note_on_c, 1, 62, 0
1, 24648, Note_on_c, 1, 67, 64
1, 24669, Note_on_c, 1, 60, 0
1, 24671, Note_on_c, 1, 67, 0
1, 24672, Note_on_c, 1, 65, 64
1, 24672, Note_on_c, 1, 62, 64
1, 24672, Note_on_c, 1, 60, 70
1, 24695, Note_on_c, 1, 65, 0
1, 24695, Note_on_c, 1, 62, 0
1, 24696, Note_on_c, 0, 79, 70
1, 24696, Note_on_c, 1, 67, 64
1, 24717, Note_on_c, 1, 60, 0
1, 24719, Note_on_c, 0, 79, 0
1, 24719, Note_on_c, 1, 67, 0
1, 24720, Note_on_c, 0, 81, 70
1, 24720, Note_on_c, 1, 65, 64
1, 24720, Note_on_c, 1, 62, 64
1, 24720, Note_on_c, 1, 60, 70
1, 24732, Note_on_c, 0, 81, 0
1, 24732, Note_on_c, 0, 79, 70
1, 24743, Note_on_c, 1, 65, 0
1, 24743, Note_on_c, 1, 62, 0
1, 24744, Note_on_c, 0, 79, 0
1, 24744, Note_on_c, 0, 78, 70
1, 24744, Note_on_c, 1, 67, 64
1, 24756, Note_on_c, 0, 78, 0
1, 24756, Note_on_c, 0, 79, 70
1, 24765, Note_on_c, 1, 60, 0
1, 24767, Note_on_c, 1, 67, 0
1, 24768, Note_on_c, 0, 79, 0
1, 24768, Note_on_c, 0, 84, 70
1, 24768, Note_on_c, 1, 64, 64
1, 24768, Note_on_c, 1, 60, 70
1, 24791, Note_on_c, 1, 64, 0
1, 24792, Note_on_c, 1, 67, 65
1, 24813, Note_on_c, 1, 60, 0
1, 24815, Note_on_c, 1, 67, 0
1, 24816, Note_on_c, 0, 84, 0
1, 24816, Note_on_c, 0, 88, 70
1, 24816, Note_on_c, 1, 64, 66
1, 24816, Note_on_c, 1, 60, 70
1, 24839, Note_on_c, 1, 64, 0
1, 24840, Note_on_c, 1, 67, 67
1, 24861, Note_on_c, 0, 88, 0
1, 24861, Note_on_c, 1, 60, 0
1, 24863, Note_on_c, 1, 67, 0
1, 24864, Note_on_c, 1, 64, 68
1, 24864, Note_on_c, 1, 60, 70
1, 24887, Note_on_c, 1, 64, 0
1, 24888, Note_on_c, 0, 79, 80
1, 24888, Note_on_c, 1, 67, 70
1, 24909, Note_on_c, 1, 60, 0
1, 24911, Note_on_c, 0, 79, 0
1, 24911, Note_on_c, 1, 67, 0
1, 24912, Note_on_c, 0, 81, 80
1, 24912, Note_on_c, 1, 64, 70
1, 24912, Note_on_c, 1, 60, 70
1, 24924, Note_on_c, 0, 81, 0
1, 24924, Note_on_c, 0, 79, 80
1, 24935, Note_on_c, 1, 64, 0
1, 24936, Note_on_c, 0, 79, 0
1, 24936, Note_on_c, 0, 78, 80
1, 24936, Note_on_c, 1, 67, 70
1, 24948, Note_on_c, 0, 78, 0
1, 24948, Note_on_c, 0, 79, 80
1, 24957, Note_on_c, 1, 60, 0
1, 24959, Note_on_c, 1, 67, 0
1, 24960, Note_on_c, 0, 79, 0
1, 24960, Note_on_c, 0, 71, 80
1, 24960, Note_on_c, 1, 65, 70
1, 24960, Note_on_c, 1, 62, 70
1, 24960, Note_on_c, 1, 60, 70
1, 24980, Note_on_c, 0, 71, 0
1, 24983, Note_on_c, 1, 65, 0
1, 24983, Note_on_c, 1, 62, 0
1, 24984, Note_on_c, 1, 67, 70
1, 25005, Note_on_c, 1, 60, 0
1, 25007, Note_on_c, 1, 67, 0
1, 25008, Note_on_c, 0, 71, 80
1, 25008, Note_on_c, 1, 65, 70
1, 25008, Note_on_c, 1, 62, 70
1, 25008, Note_on_c, 1, 60, 70
1, 25028, Note_on_c, 0, 71, 0
1, 25031, Note_on_c, 1, 65, 0
1, 25031, Note_on_c, 1, 62, 0
1, 25032, Note_on_c, 1, 67, 70
1, 25053, Note_on_c, 1, 60, 0
1, 25055, Note_on_c, 1, 67, 0
1, 25056, Note_on_c, 1, 65, 70
1, 25056, Note_on_c, 1, 62, 70
1, 25056, Note_on_c, 1, 60, 70
1, 25079, Note_on_c, 1, 65, 0
1, 25079, Note_on_c, 1, 62, 0
1, 25080, Note_on_c, 1, 67, 70
1, 25101, Note_on_c, 1, 60, 0
1, 25103, Note_on_c, 1, 67, 0
1, 25104, Note_on_c, 0, 81, 80
1, 25104, Note_on_c, 1, 65, 70
1, 25104, Note_on_c, 1, 62, 70
1, 25104, Note_on_c, 1, 60, 70
1, 25116, Note_on_c, 0, 81, 0
1, 25116, Note_on_c, 0, 79, 80
1, 25127, Note_on_c, 1, 65, 0
1, 25127, Note_on_c, 1, 62, 0
1, 25128, Note_on_c, 0, 79, 0
1, 25128, Note_on_c, 0, 78, 80
1, 25128, Note_on_c, 1, 67, 70
1, 25140, Note_on_c, 0, 78, 0
1, 25140, Note_on_c, 0, 79, 80
1, 25149, Note_on_c, 1, 60, 0
1, 25151, Note_on_c, 1, 67, 0
1, 25152, Note_on_c, 0, 79, 0
1, 25152, Note_on_c, 0, 72, 80
1, 25152, Note_on_c, 1, 64, 70
1, 25152, Note_on_c, 1, 60, 70
1, 25172, Note_on_c, 0, 72, 0
1, 25175, Note_on_c, 1, 64, 0
1, 25176, Note_on_c, 1, 67, 70
1, 25197, Note_on_c, 1, 60, 0
1, 25199, Note_on_c, 1, 67, 0
1, 25200, Note_on_c, 0, 81, 80
1, 25200, Note_on_c, 1, 64, 70
1, 25200, Note_on_c, 1, 60, 70
1, 25212, Note_on_c, 0, 81, 0
1, 25212, Note_on_c, 0, 79, 80
1, 25223, Note_on_c, 1, 64, 0
1, 25224, Note_on_c, 0, 79, 0
1, 25224, Note_on_c, 0, 78, 80
1, 25224, Note_on_c, 1, 67, 70
1, 25236, Note_on_c, 0, 78, 0
1, 25236, Note_on_c, 0, 79, 80
1, 25245, Note_on_c, 1, 60, 0
1, 25247, Note_on_c, 1, 67, 0
1, 25248, Note_on_c, 0, 79, 0
1, 25248, Note_on_c, 0, 74, 80
1, 25248, Note_on_c, 1, 62, 70
1, 25248, Note_on_c, 1, 59, 70
1, 25268, Note_on_c, 0, 74, 0
1, 25271, Note_on_c, 1, 62, 0
1, 25272, Note_on_c, 1, 67, 70
1, 25293, Note_on_c, 1, 59, 0
1, 25295, Note_on_c, 1, 67, 0
1, 25296, Note_on_c, 0, 81, 80
1, 25296, Note_on_c, 1, 62, 70
1, 25296, Note_on_c, 1, 59, 70
1, 25308, Note_on_c, 0, 81, 0
1, 25308, Note_on_c, 0, 79, 80
1, 25319, Note_on_c, 1, 62, 0
1, 25320, Note_on_c, 0, 79, 0
1, 25320, Note_on_c, 0, 78, 80
1, 25320, Note_on_c, 1, 67, 70
1, 25332, Note_on_c, 0, 78, 0
1, 25332, Note_on_c, 0, 79, 80
1, 25341, Note_on_c, 1, 59, 0
1, 25343, Note_on_c, 1, 67, 0
1, 25344, Note_on_c, 0, 79, 0
1, 25344, Note_on_c, 0, 76, 80
1, 25344, Note_on_c, 1, 64, 70
1, 25344, Note_on_c, 1, 60, 70
1, 25364, Note_on_c, 0, 76, 0
1, 25367, Note_on_c, 1, 64, 0
1, 25368, Note_on_c, 1, 67, 70
1, 25389, Note_on_c, 1, 60, 0
1, 25391, Note_on_c, 1, 67, 0
1, 25392, Note_on_c, 0, 81, 80
1, 25392, Note_on_c, 1, 64, 70
1, 25392, Note_on_c, 1, 60, 70
1, 25404, Note_on_c, 0, 81, 0
1, 25404, Note_on_c, 0, 79, 80
1, 25415, Note_on_c, 1, 64, 0
1, 25416, Note_on_c, 0, 79, 0
1, 25416, Note_on_c, 0, 78, 80
1, 25416, Note_on_c, 1, 67, 70
1, 25428, Note_on_c, 0, 78, 0
1, 25428, Note_on_c, 0, 79, 80
1, 25437, Note_on_c, 1, 60, 0
1, 25439, Note_on_c, 1, 67, 0
1, 25440, Note_on_c, 0, 79, 0
1, 25440, Note_on_c, 0, 71, 80
1, 25440, Note_on_c, 1, 65, 70
1, 25440, Note_on_c, 1, 62, 70
1, 25460, Note_on_c, 0, 71, 0
1, 25463, Note_on_c, 1, 65, 0
1, 25464, Note_on_c, 1, 67, 70
1, 25485, Note_on_c, 1, 62, 0
1, 25487, Note_on_c, 1, 67, 0
1, 25488, Note_on_c, 0, 81, 80
1, 25488, Note_on_c, 1, 65, 70
1, 25488, Note_on_c, 1, 62, 70
1, 25500, Note_on_c, 0, 81, 0
1, 25500, Note_on_c, 0, 79, 80
1, 25511, Note_on_c, 1, 65, 0
1, 25512, Note_on_c, 0, 79, 0
1, 25512, Note_on_c, 0, 78, 80
1, 25512, Note_on_c, 1, 67, 70
1, 25524, Note_on_c, 0, 78, 0
1, 25524, Note_on_c, 0, 79, 80
1, 25533, Note_on_c, 1, 62, 0
1, 25535, Note_on_c, 1, 67, 0
1, 25536, Note_on_c, 0, 79, 0
1, 25536, Note_on_c, 0, 72, 75
1, 25536, Note_on_c, 1, 64, 70
1, 25536, Note_on_c, 1, 64, 70
1, 25556, Note_on_c, 0, 72, 0
1, 25559, Note_on_c, 1, 64, 0
1, 25560, Note_on_c, 1, 67, 70
1, 25581, Note_on_c, 1, 64, 0
1, 25583, Note_on_c, 1, 67, 0
1, 25584, Note_on_c, 0, 81, 76
1, 25584, Note_on_c, 1, 64, 71
1, 25584, Note_on_c, 1, 64, 70
1, 25596, Note_on_c, 0, 81, 0
1, 25596, Note_on_c, 0, 79, 76
1, 25607, Note_on_c, 1, 64, 0
1, 25608, Note_on_c, 0, 79, 0
1, 25608, Note_on_c, 0, 78, 76
1, 25608, Note_on_c, 1, 67, 71
1, 25620, Note_on_c, 0, 78, 0
1, 25620, Note_on_c, 0, 79, 76
1, 25629, Note_on_c, 1, 64, 0
1, 25631, Note_on_c, 1, 67, 0
1, 25632, Note_on_c, 0, 79, 0
1, 25632, Note_on_c, 0, 74, 77
1, 25632, Note_on_c, 1, 62, 72
1, 25632, Note_on_c, 1, 59, 70
1, 25652, Note_on_c, 0, 74, 0
1, 25655, Note_on_c, 1, 62, 0
1, 25656, Note_on_c, 1, 67, 73
1, 25677, Note_on_c, 1, 59, 0
1, 25679, Note_on_c, 1, 67, 0
1, 25680, Note_on_c, 0, 81, 78
1, 25680, Note_on_c, 1, 62, 73
1, 25680, Note_on_c, 1, 59, 70
1, 25692, Note_on_c, 0, 81, 0
1, 25692, Note_on_c, 0, 79, 78
1, 25703, Note_on_c, 1, 62, 0
1, 25704, Note_on_c, 0, 79, 0
1, 25704, Note_on_c, 0, 78, 78
1, 25704, Note_on_c, 1, 67, 74
1, 25716, Note_on_c, 0, 78, 0
1, 25716, Note_on_c, 0, 79, 78
1, 25725, Note_on_c, 1, 59, 0
1, 25727, Note_on_c, 1, 67, 0
1, 25728, Note_on_c, 0, 79, 0
1, 25728, Note_on_c, 0, 76, 79
1, 25748, Note_on_c, 0, 76, 0
1, 25752, Note_on_c, 1, 60, 80
1, 25775, Note_on_c, 1, 60, 0
1, 25776, Note_on_c, 1, 64, 80
1, 25799, Note_on_c, 1, 64, 0
1, 25800, Note_on_c, 1, 67, 80
1, 25823, Note_on_c, 1, 67, 0
1, 25824, Note_on_c, 1, 72, 80
1, 25844, Note_on_c, 1, 72, 0
1, 25848, Note_on_c, 0, 76, 80
1, 25871, Note_on_c, 0, 76, 0
1, 25872, Note_on_c, 0, 79, 80
1, 25895, Note_on_c, 0, 79, 0
1, 25896, Note_on_c, 0, 84, 80
1, 25919, Note_on_c, 0, 84, 0
1, 25920, Note_on_c, 0, 88, 114
1, 25992, Note_on_c, 0, 88, 0
1, 25992, Note_on_c, 0, 86, 80
1, 25992, Note_on_c, 0, 83, 80
1, 26015, Note_on_c, 0, 86, 0
1, 26015, Note_on_c, 0, 83, 0
1, 26016, Note_on_c, 0, 84, 79
1, 26016, Note_on_c, 0, 81, 79
1, 26039, Note_on_c, 0, 84, 0
1, 26039, Note_on_c, 0, 81, 0
1, 26040, Note_on_c, 0, 83, 78
1, 26040, Note_on_c, 0, 79, 78
1, 26063, Note_on_c, 0, 83, 0
1, 26063, Note_on_c, 0, 79, 0
1, 26064, Note_on_c, 0, 81, 77
1, 26064, Note_on_c, 0, 77, 77
1, 26087, Note_on_c, 0, 81, 0
1, 26087, Note_on_c, 0, 77, 0
1, 26088, Note_on_c, 0, 79, 76
1, 26088, Note_on_c, 0, 76, 76
1, 26111, Note_on_c, 0, 79, 0
1, 26111, Note_on_c, 0, 76, 0
1, 26112, Note_on_c, 0, 77, 75
1, 26112, Note_on_c, 0, 74, 75
1, 26136, Note_on_c, 1, 61, 80
1, 26159, Note_on_c, 1, 61, 0
1, 26160, Note_on_c, 1, 62, 80
1, 26183, Note_on_c, 1, 62, 0
1, 26184, Note_on_c, 1, 64, 80
1, 26207, Note_on_c, 1, 64, 0
1, 26208, Note_on_c, 1, 65, 80
1, 26231, Note_on_c, 1, 65, 0
1, 26232, Note_on_c, 1, 64, 80
1, 26245, Note_on_c, 0, 77, 0
1, 26245, Note_on_c, 0, 74, 0
1, 26255, Note_on_c, 1, 64, 0
1, 26256, Note_on_c, 0, 76, 70
1, 26256, Note_on_c, 0, 72, 70
1, 26256, Note_on_c, 1, 65, 80
1, 26279, Note_on_c, 1, 65, 0
1, 26280, Note_on_c, 1, 66, 80
1, 26301, Note_on_c, 0, 76, 0
1, 26301, Note_on_c, 0, 72, 0
1, 26303, Note_on_c, 1, 66, 0
1, 26304, Note_on_c, 0, 74, 70
1, 26304, Note_on_c, 0, 71, 70
1, 26304, Note_on_c, 1, 67, 80
1, 26324, Note_on_c, 0, 74, 0
1, 26324, Note_on_c, 0, 71, 0
1, 26327, Note_on_c, 1, 67, 0
1, 26328, Note_on_c, 1, 55, 80
1, 26351, Note_on_c, 1, 55, 0
1, 26352, Note_on_c, 1, 67, 80
1, 26375, Note_on_c, 1, 67, 0
1, 26376, Note_on_c, 0, 79, 70
1, 26376, Note_on_c, 0, 76, 70
1, 26399, Note_on_c, 0, 79, 0
1, 26399, Note_on_c, 0, 76, 0
1, 26400, Note_on_c, 0, 78, 70
1, 26400, Note_on_c, 0, 75, 70
1, 26423, Note_on_c, 0, 78, 0
1, 26423, Note_on_c, 0, 75, 0
1, 26424, Note_on_c, 0, 79, 71
1, 26424, Note_on_c, 0, 76, 71
1, 26447, Note_on_c, 0, 79, 0
1, 26447, Note_on_c, 0, 76, 0
1, 26448, Note_on_c, 0, 81, 72
1, 26448, Note_on_c, 0, 77, 72
1, 26471, Note_on_c, 0, 81, 0
1, 26471, Note_on_c, 0, 77, 0
1, 26472, Note_on_c, 0, 79, 72
1, 26472, Note_on_c, 0, 76, 72
1, 26495, Note_on_c, 0, 79, 0
1, 26495, Note_on_c, 0, 76, 0
1, 26496, Note_on_c, 0, 77, 73
1, 26496, Note_on_c, 0, 74, 73
1, 26516, Note_on_c, 0, 77, 0
1, 26516, Note_on_c, 0, 74, 0
1, 26520, Note_on_c, 1, 67, 80
1, 26544, Note_on_c, 1, 67, 0
1, 26544, Note_on_c, 1, 55, 80
1, 26568, Note_on_c, 0, 79, 75
1, 26568, Note_on_c, 0, 76, 75
1, 26589, Note_on_c, 1, 55, 0
1, 26592, Note_on_c, 0, 79, 0
1, 26592, Note_on_c, 0, 72, 75
1, 26612, Note_on_c, 0, 76, 0
1, 26612, Note_on_c, 0, 72, 0
1, 26616, Note_on_c, 1, 67, 80
1, 26640, Note_on_c, 1, 67, 0
1, 26640, Note_on_c, 1, 55, 80
1, 26664, Note_on_c, 0, 77, 75
1, 26664, Note_on_c, 0, 74, 75
1, 26685, Note_on_c, 1, 55, 0
1, 26688, Note_on_c, 0, 77, 0
1, 26688, Note_on_c, 0, 71, 75
1, 26708, Note_on_c, 0, 74, 0
1, 26708, Note_on_c, 0, 71, 0
1, 26712, Note_on_c, 1, 67, 80
1, 26736, Note_on_c, 1, 67, 0
1, 26736, Note_on_c, 1, 55, 80
1, 26760, Note_on_c, 0, 79, 75
1, 26760, Note_on_c, 0, 76, 75
1, 26770, Note_on_c, 0, 79, 0
1, 26770, Note_on_c, 0, 76, 0
1, 26781, Note_on_c, 1, 55, 0
1, 26784, Note_on_c, 0, 78, 75
1, 26784, Note_on_c, 0, 75, 75
1, 26807, Note_on_c, 0, 78, 0
1, 26807, Note_on_c, 0, 75, 0
1, 26808, Note_on_c, 0, 79, 75
1, 26808, Note_on_c, 0, 76, 75
1, 26831, Note_on_c, 0, 79, 0
1, 26831, Note_on_c, 0, 76, 0
1, 26832, Note_on_c, 0, 81, 75
1, 26832, Note_on_c, 0, 77, 75
1, 26855, Note_on_c, 0, 81, 0
1, 26855, Note_on_c, 0, 77, 0
1, 26856, Note_on_c, 0, 79, 75
1, 26856, Note_on_c, 0, 76, 75
1, 26879, Note_on_c, 0, 79, 0
1, 26879, Note_on_c, 0, 76, 0
1, 26880, Note_on_c, 0, 77, 75
1, 26880, Note_on_c, 0, 74, 75
1, 26900, Note_on_c, 0, 77, 0
1, 26900, Note_on_c, 0, 74, 0
1, 26904, Note_on_c, 1, 67, 80
1, 26928, Note_on_c, 1, 67, 0
1, 26928, Note_on_c, 1, 55, 80
1, 26952, Note_on_c, 0, 83, 75
1, 26952, Note_on_c, 0, 77, 75
1, 26973, Note_on_c, 1, 55, 0
1, 26976, Note_on_c, 0, 83, 0
1, 26976, Note_on_c, 0, 77, 0
1, 26976, Note_on_c, 0, 84, 75
1, 26976, Note_on_c, 0, 76, 75
1, 26996, Note_on_c, 0, 84, 0
1, 26996, Note_on_c, 0, 76, 0
1, 27000, Note_on_c, 1, 67, 80
1, 27024, Note_on_c, 1, 67, 0
1, 27024, Note_on_c, 1, 55, 80
1, 27048, Note_on_c, 0, 76, 75
1, 27048, Note_on_c, 0, 72, 75
1, 27069, Note_on_c, 1, 55, 0
1, 27072, Note_on_c, 0, 76, 0
1, 27072, Note_on_c, 0, 72, 0
1, 27072, Note_on_c, 0, 74, 75
1, 27072, Note_on_c, 0, 71, 75
1, 27092, Note_on_c, 0, 74, 0
1, 27092, Note_on_c, 0, 71, 0
1, 27096, Note_on_c, 1, 67, 80
1, 27120, Note_on_c, 1, 67, 0
1, 27120, Note_on_c, 1, 55, 80
1, 27144, Note_on_c, 0, 76, 75
1, 27144, Note_on_c, 0, 72, 75
1, 27154, Note_on_c, 0, 76, 0
1, 27154, Note_on_c, 0, 72, 0
1, 27165, Note_on_c, 1, 55, 0
1, 27168, Note_on_c, 0, 74, 75
1, 27168, Note_on_c, 0, 71, 75
1, 27191, Note_on_c, 0, 74, 0
1, 27191, Note_on_c, 0, 71, 0
1, 27192, Note_on_c, 0, 76, 75
1, 27192, Note_on_c, 0, 72, 75
1, 27215, Note_on_c, 0, 76, 0
1, 27215, Note_on_c, 0, 72, 0
1, 27216, Note_on_c, 0, 74, 75
1, 27216, Note_on_c, 0, 71, 75
1, 27239, Note_on_c, 0, 74, 0
1, 27239, Note_on_c, 0, 71, 0
1, 27240, Note_on_c, 0, 76, 75
1, 27240, Note_on_c, 0, 72, 75
1, 27263, Note_on_c, 0, 76, 0
1, 27263, Note_on_c, 0, 72, 0
1, 27264, Note_on_c, 0, 74, 75
1, 27264, Note_on_c, 0, 71, 75
1, 27284, Note_on_c, 0, 74, 0
1, 27284, Note_on_c, 0, 71, 0
1, 27336, Note_on_c, 0, 54, 64
1, 27336, Note_on_c, 1, 42, 64
1, 27359, Note_on_c, 0, 54, 0
1, 27359, Note_on_c, 1, 42, 0
1, 27360, Note_on_c, 0, 55, 64
1, 27360, Note_on_c, 1, 43, 64
1, 27383, Note_on_c, 0, 55, 0
1, 27383, Note_on_c, 1, 43, 0
1, 27384, Note_on_c, 0, 54, 64
1, 27384, Note_on_c, 1, 42, 64
1, 27407, Note_on_c, 0, 54, 0
1, 27407, Note_on_c, 1, 42, 0
1, 27408, Note_on_c, 0, 55, 64
1, 27408, Note_on_c, 1, 43, 64
1, 27431, Note_on_c, 0, 55, 0
1, 27431, Note_on_c, 1, 43, 0
1, 27432, Note_on_c, 0, 54, 64
1, 27432, Note_on_c, 1, 42, 64
1, 27455, Note_on_c, 0, 54, 0
1, 27455, Note_on_c, 1, 42, 0
1, 27456, Note_on_c, 0, 55, 64
1, 27456, Note_on_c, 1, 43, 64
1, 27501, Note_on_c, 0, 55, 0
1, 27501, Note_on_c, 1, 43, 0
1, 27648, Note_on_c, 1, 55, 80
1, 27648, Note_on_c, 1, 43, 80
1, 27672, Note_on_c, 0, 74, 80
1, 27682, Note_on_c, 0, 74, 0
1, 27693, Note_on_c, 1, 55, 0
1, 27693, Note_on_c, 1, 43, 0
1, 27696, Note_on_c, 0, 76, 80
1, 27706, Note_on_c, 0, 76, 0
1, 27720, Note_on_c, 0, 78, 80
1, 27730, Note_on_c, 0, 78, 0
1, 27744, Note_on_c, 0, 79, 80
1, 27744, Note_on_c, 1, 50, 80
1, 27744, Note_on_c, 1, 38, 80
1, 27754, Note_on_c, 0, 79, 0
1, 27768, Note_on_c, 0, 81, 80
1, 27778, Note_on_c, 0, 81, 0
1, 27789, Note_on_c, 1, 50, 0
1, 27789, Note_on_c, 1, 38, 0
1, 27792, Note_on_c, 0, 83, 80
1, 27802, Note_on_c, 0, 83, 0
1, 27816, Note_on_c, 0, 84, 80
1, 27826, Note_on_c, 0, 84, 0
1, 27840, Note_on_c, 0, 86, 80
1, 27840, Note_on_c, 1, 47, 80
1, 27840, Note_on_c, 1, 35, 80
1, 27850, Note_on_c, 0, 86, 0
1, 27864, Note_on_c, 0, 84, 80
1, 27874, Note_on_c, 0, 84, 0
1, 27885, Note_on_c, 1, 47, 0
1, 27885, Note_on_c, 1, 35, 0
1, 27888, Note_on_c, 0, 83, 80
1, 27898, Note_on_c, 0, 83, 0
1, 27912, Note_on_c, 0, 81, 80
1, 27922, Note_on_c, 0, 81, 0
1, 27936, Note_on_c, 0, 79, 80
1, 27959, Note_on_c, 0, 79, 0
1, 27960, Note_on_c, 0, 81, 80
1, 27983, Note_on_c, 0, 81, 0
1, 27984, Note_on_c, 0, 83, 80
1, 27984, Note_on_c, 1, 52, 80
1, 27984, Note_on_c, 1, 40, 80
1, 28007, Note_on_c, 0, 83, 0
1, 28008, Note_on_c, 0, 79, 80
1, 28029, Note_on_c, 1, 52, 0
1, 28029, Note_on_c, 1, 40, 0
1, 28031, Note_on_c, 0, 79, 0
1, 28032, Note_on_c, 0, 84, 80
1, 28032, Note_on_c, 1, 45, 80
1, 28032, Note_on_c, 1, 33, 80
1, 28042, Note_on_c, 0, 84, 0
1, 28056, Note_on_c, 0, 83, 80
1, 28066, Note_on_c, 0, 83, 0
1, 28077, Note_on_c, 1, 45, 0
1, 28077, Note_on_c, 1, 33, 0
1, 28080, Note_on_c, 0, 81, 80
1, 28090, Note_on_c, 0, 81, 0
1, 28104, Note_on_c, 0, 79, 80
1, 28114, Note_on_c, 0, 79, 0
1, 28128, Note_on_c, 0, 78, 80
1, 28138, Note_on_c, 0, 78, 0
1, 28152, Note_on_c, 0, 79, 80
1, 28162, Note_on_c, 0, 79, 0
1, 28176, Note_on_c, 0, 81, 80
1, 28176, Note_on_c, 1, 50, 80
1, 28176, Note_on_c, 1, 38, 80
1, 28186, Note_on_c, 0, 81, 0
1, 28200, Note_on_c, 0, 78, 80
1, 28210, Note_on_c, 0, 78, 0
1, 28221, Note_on_c, 1, 50, 0
1, 28221, Note_on_c, 1, 38, 0
1, 28224, Note_on_c, 0, 83, 80
1, 28224, Note_on_c, 1, 43, 80
1, 28224, Note_on_c, 1, 31, 80
1, 28234, Note_on_c, 0, 83, 0
1, 28248, Note_on_c, 0, 81, 80
1, 28271, Note_on_c, 0, 81, 0
1, 28272, Note_on_c, 0, 79, 80
1, 28295, Note_on_c, 0, 79, 0
1, 28296, Note_on_c, 0, 78, 80
1, 28313, Note_on_c, 1, 43, 0
1, 28313, Note_on_c, 1, 31, 0
1, 28319, Note_on_c, 0, 78, 0
1, 28320, Note_on_c, 0, 76, 80
1, 28330, Note_on_c, 0, 76, 0
1, 28344, Note_on_c, 0, 74, 80
1, 28354, Note_on_c, 0, 74, 0
1, 28368, Note_on_c, 0, 72, 80
1, 28368, Note_on_c, 1, 64, 80
1, 28378, Note_on_c, 0, 72, 0
1, 28392, Note_on_c, 0, 71, 80
1, 28402, Note_on_c, 0, 71, 0
1, 28416, Note_on_c, 0, 69, 80
1, 28416, Note_on_c, 1, 64, 0
1, 28416, Note_on_c, 1, 54, 80
1, 28426, Note_on_c, 0, 69, 0
1, 28440, Note_on_c, 0, 79, 80
1, 28461, Note_on_c, 1, 54, 0
1, 28463, Note_on_c, 0, 79, 0
1, 28464, Note_on_c, 0, 78, 80
1, 28487, Note_on_c, 0, 78, 0
1, 28488, Note_on_c, 0, 76, 80
1, 28511, Note_on_c, 0, 76, 0
1, 28512, Note_on_c, 0, 74, 80
1, 28535, Note_on_c, 0, 74, 0
1, 28536, Note_on_c, 0, 72, 80
1, 28559, Note_on_c, 0, 72, 0
1, 28560, Note_on_c, 0, 71, 80
1, 28560, Note_on_c, 1, 62, 80
1, 28583, Note_on_c, 0, 71, 0
1, 28584, Note_on_c, 0, 69, 80
1, 28607, Note_on_c, 0, 69, 0
1, 28608, Note_on_c, 0, 67, 80
1, 28608, Note_on_c, 1, 62, 0
1, 28608, Note_on_c, 1, 52, 80
1, 28618, Note_on_c, 0, 67, 0
1, 28632, Note_on_c, 0, 78, 80
1, 28653, Note_on_c, 1, 52, 0
1, 28655, Note_on_c, 0, 78, 0
1, 28656, Note_on_c, 0, 76, 80
1, 28679, Note_on_c, 0, 76, 0
1, 28680, Note_on_c, 0, 74, 80
1, 28703, Note_on_c, 0, 74, 0
1, 28704, Note_on_c, 0, 72, 80
1, 28727, Note_on_c, 0, 72, 0
1, 28728, Note_on_c, 0, 71, 80
1, 28751, Note_on_c, 0, 71, 0
1, 28752, Note_on_c, 0, 69, 80
1, 28752, Note_on_c, 1, 60, 80
1, 28775, Note_on_c, 0, 69, 0
1, 28776, Note_on_c, 0, 67, 80
1, 28799, Note_on_c, 0, 67, 0
1, 28800, Note_on_c, 0, 66, 80
1, 28800, Note_on_c, 1, 50, 80
1, 28823, Note_on_c, 0, 66, 0
1, 28824, Note_on_c, 0, 71, 80
1, 28847, Note_on_c, 0, 71, 0
1, 28848, Note_on_c, 0, 69, 80
1, 28871, Note_on_c, 0, 69, 0
1, 28872, Note_on_c, 0, 66, 81
1, 28889, Note_on_c, 1, 60, 0
1, 28895, Note_on_c, 0, 66, 0
1, 28896, Note_on_c, 0, 62, 81
1, 28896, Note_on_c, 1, 59, 80
1, 28919, Note_on_c, 0, 62, 0
1, 28920, Note_on_c, 0, 72, 81
1, 28943, Note_on_c, 0, 72, 0
1, 28944, Note_on_c, 0, 71, 82
1, 28967, Note_on_c, 0, 71, 0
1, 28968, Note_on_c, 0, 67, 82
1, 28985, Note_on_c, 1, 59, 0
1, 28991, Note_on_c, 0, 67, 0
1, 28992, Note_on_c, 0, 62, 82
1, 28992, Note_on_c, 1, 54, 80
1, 29015, Note_on_c, 0, 62, 0
1, 29016, Note_on_c, 0, 74, 83
1, 29039, Note_on_c, 0, 74, 0
1, 29040, Note_on_c, 0, 72, 83
1, 29063, Note_on_c, 0, 72, 0
1, 29064, Note_on_c, 0, 69, 83
1, 29081, Note_on_c, 1, 54, 0
1, 29087, Note_on_c, 0, 69, 0
1, 29088, Note_on_c, 0, 62, 84
1, 29088, Note_on_c, 1, 55, 80
1, 29111, Note_on_c, 0, 62, 0
1, 29112, Note_on_c, 0, 76, 84
1, 29135, Note_on_c, 0, 76, 0
1, 29136, Note_on_c, 0, 74, 84
1, 29154, Note_on_c, 1, 50, 0
1, 29159, Note_on_c, 0, 74, 0
1, 29160, Note_on_c, 0, 71, 85
1, 29177, Note_on_c, 1, 55, 0
1, 29183, Note_on_c, 0, 71, 0
1, 29184, Note_on_c, 0, 67, 85
1, 29184, Note_on_c, 1, 61, 80
1, 29184, Note_on_c, 1, 55, 80
1, 29184, Note_on_c, 1, 52, 80
1, 29184, Note_on_c, 1, 50, 80
1, 29207, Note_on_c, 0, 67, 0
1, 29208, Note_on_c, 0, 81, 86
1, 29231, Note_on_c, 0, 81, 0
1, 29232, Note_on_c, 0, 79, 86
1, 29255, Note_on_c, 0, 79, 0
1, 29256, Note_on_c, 0, 78, 86
1, 29279, Note_on_c, 0, 78, 0
1, 29280, Note_on_c, 0, 76, 86
1, 29303, Note_on_c, 0, 76, 0
1, 29304, Note_on_c, 0, 74, 85
1, 29327, Note_on_c, 0, 74, 0
1, 29328, Note_on_c, 0, 73, 85
1, 29351, Note_on_c, 0, 73, 0
1, 29352, Note_on_c, 0, 71, 84
1, 29361, Note_on_c, 1, 61, 0
1, 29361, Note_on_c, 1, 55, 0
1, 29361, Note_on_c, 1, 52, 0
1, 29361, Note_on_c, 1, 50, 0
1, 29375, Note_on_c, 0, 71, 0
1, 29376, Note_on_c, 0, 69, 84
1, 29399, Note_on_c, 0, 69, 0
1, 29400, Note_on_c, 0, 67, 83
1, 29423, Note_on_c, 0, 67, 0
1, 29424, Note_on_c, 0, 66, 83
1, 29447, Note_on_c, 0, 66, 0
1, 29448, Note_on_c, 0, 64, 82
1, 29471, Note_on_c, 0, 64, 0
1, 29472, Note_on_c, 0, 62, 82
1, 29495, Note_on_c, 0, 62, 0
1, 29496, Note_on_c, 0, 61, 81
1, 29519, Note_on_c, 0, 61, 0
1, 29520, Note_on_c, 0, 59, 81
1, 29543, Note_on_c, 0, 59, 0
1, 29544, Note_on_c, 0, 57, 80
1, 29567, Note_on_c, 0, 57, 0
1, 29568, Note_on_c, 0, 55, 80
1, 29592, Note_on_c, 1, 38, 80
1, 29615, Note_on_c, 1, 38, 0
1, 29616, Note_on_c, 1, 45, 80
1, 29639, Note_on_c, 1, 45, 0
1, 29640, Note_on_c, 1, 49, 80
1, 29663, Note_on_c, 1, 49, 0
1, 29664, Note_on_c, 1, 50, 80
1, 29687, Note_on_c, 1, 50, 0
1, 29688, Note_on_c, 1, 49, 80
1, 29711, Note_on_c, 1, 49, 0
1, 29712, Note_on_c, 1, 50, 80
1, 29735, Note_on_c, 1, 50, 0
1, 29736, Note_on_c, 1, 49, 80
1, 29745, Note_on_c, 0, 55, 0
1, 29759, Note_on_c, 1, 49, 0
1, 29760, Note_on_c, 0, 54, 80
1, 29760, Note_on_c, 1, 50, 80
1, 29783, Note_on_c, 0, 54, 0
1, 29784, Note_on_c, 0, 55, 80
1, 29807, Note_on_c, 0, 55, 0
1, 29808, Note_on_c, 0, 57, 80
1, 29831, Note_on_c, 0, 57, 0
1, 29832, Note_on_c, 0, 55, 80
1, 29849, Note_on_c, 1, 50, 0
1, 29855, Note_on_c, 0, 55, 0
1, 29856, Note_on_c, 0, 59, 80
1, 29879, Note_on_c, 0, 59, 0
1, 29880, Note_on_c, 0, 57, 80
1, 29903, Note_on_c, 0, 57, 0
1, 29904, Note_on_c, 0, 60, 80
1, 29927, Note_on_c, 0, 60, 0
1, 29928, Note_on_c, 0, 59, 80
1, 29951, Note_on_c, 0, 59, 0
1, 29952, Note_on_c, 0, 62, 80
1, 29975, Note_on_c, 0, 62, 0
1, 29976, Note_on_c, 0, 60, 80
1, 29999, Note_on_c, 0, 60, 0
1, 30000, Note_on_c, 0, 57, 80
1, 30023, Note_on_c, 0, 57, 0
1, 30024, Note_on_c, 0, 54, 80
1, 30048, Note_on_c, 0, 54, 0
1, 30048, Note_on_c, 0, 50, 80
1, 30071, Note_on_c, 0, 50, 0
1, 30072, Note_on_c, 0, 66, 80
1, 30096, Note_on_c, 0, 66, 0
1, 30096, Note_on_c, 0, 62, 80
1, 30119, Note_on_c, 0, 62, 0
1, 30120, Note_on_c, 0, 60, 80
1, 30144, Note_on_c, 0, 60, 0
1, 30144, Note_on_c, 0, 57, 80
1, 30167, Note_on_c, 0, 57, 0
1, 30168, Note_on_c, 0, 72, 80
1, 30192, Note_on_c, 0, 72, 0
1, 30192, Note_on_c, 0, 69, 80
1, 30215, Note_on_c, 0, 69, 0
1, 30216, Note_on_c, 0, 66, 80
1, 30240, Note_on_c, 0, 66, 0
1, 30240, Note_on_c, 0, 62, 80
1, 30263, Note_on_c, 0, 62, 0
1, 30264, Note_on_c, 0, 78, 80
1, 30288, Note_on_c, 0, 78, 0
1, 30288, Note_on_c, 0, 74, 80
1, 30311, Note_on_c, 0, 74, 0
1, 30312, Note_on_c, 0, 72, 80
1, 30336, Note_on_c, 0, 72, 0
1, 30336, Note_on_c, 0, 69, 80
1, 30359, Note_on_c, 0, 69, 0
1, 30360, Note_on_c, 0, 84, 80
1, 30384, Note_on_c, 0, 84, 0
1, 30384, Note_on_c, 0, 81, 80
1, 30407, Note_on_c, 0, 81, 0
1, 30408, Note_on_c, 0, 78, 80
1, 30432, Note_on_c, 0, 78, 0
1, 30432, Note_on_c, 0, 74, 80
1, 30455, Note_on_c, 0, 74, 0
1, 30456, Note_on_c, 0, 88, 80
1, 30479, Note_on_c, 0, 88, 0
1, 30480, Note_on_c, 0, 86, 80
1, 30503, Note_on_c, 0, 86, 0
1, 30504, Note_on_c, 0, 84, 80
1, 30527, Note_on_c, 0, 84, 0
1, 30528, Note_on_c, 0, 83, 80
1, 30551, Note_on_c, 0, 83, 0
1, 30552, Note_on_c, 0, 81, 80
1, 30575, Note_on_c, 0, 81, 0
1, 30576, Note_on_c, 0, 79, 80
1, 30599, Note_on_c, 0, 79, 0
1, 30600, Note_on_c, 0, 78, 80
1, 30623, Note_on_c, 0, 78, 0
1, 30624, Note_on_c, 0, 76, 80
1, 30647, Note_on_c, 0, 76, 0
1, 30648, Note_on_c, 0, 74, 80
1, 30671, Note_on_c, 0, 74, 0
1, 30672, Note_on_c, 0, 73, 80
1, 30695, Note_on_c, 0, 73, 0
1, 30696, Note_on_c, 0, 72, 80
1, 30719, Note_on_c, 0, 72, 0
1, 30720, Note_on_c, 0, 81, 80
1, 30744, Note_on_c, 1, 62, 80
1, 30765, Note_on_c, 0, 81, 0
1, 30767, Note_on_c, 1, 62, 0
1, 30768, Note_on_c, 1, 66, 80
1, 30791, Note_on_c, 1, 66, 0
1, 30792, Note_on_c, 1, 69, 80
1, 30815, Note_on_c, 1, 69, 0
1, 30816, Note_on_c, 1, 72, 80
1, 30840, Note_on_c, 0, 74, 80
1, 30861, Note_on_c, 1, 72, 0
1, 30863, Note_on_c, 0, 74, 0
1, 30864, Note_on_c, 0, 78, 79
1, 30887, Note_on_c, 0, 78, 0
1, 30888, Note_on_c, 0, 81, 78
1, 30911, Note_on_c, 0, 81, 0
1, 30912, Note_on_c, 0, 84, 77
1, 30935, Note_on_c, 0, 84, 0
1, 30936, Note_on_c, 0, 74, 76
1, 30959, Note_on_c, 0, 74, 0
1, 30960, Note_on_c, 0, 78, 75
1, 30983, Note_on_c, 0, 78, 0
1, 30984, Note_on_c, 0, 81, 74
1, 31007, Note_on_c, 0, 81, 0
1, 31008, Note_on_c, 0, 84, 74
1, 31031, Note_on_c, 0, 84, 0
1, 31032, Note_on_c, 0, 74, 73
1, 31055, Note_on_c, 0, 74, 0
1, 31056, Note_on_c, 0, 78, 72
1, 31079, Note_on_c, 0, 78, 0
1, 31080, Note_on_c, 0, 81, 71
1, 31103, Note_on_c, 0, 81, 0
1, 31104, Note_on_c, 0, 84, 70
1, 31104, Note_on_c, 0, 81, 70
1, 31296, Note_on_c, 0, 84, 0
1, 31296, Note_on_c, 0, 81, 0
1, 31296, Note_on_c, 0, 82, 64
1, 31296, Note_on_c, 0, 78, 64
1, 31483, Note_on_c, 0, 82, 0
1, 31483, Note_on_c, 0, 78, 0
1, 31488, Note_on_c, 0, 83, 80
1, 31488, Note_on_c, 0, 79, 80
1, 31508, Note_on_c, 0, 83, 0
1, 31508, Note_on_c, 0, 79, 0
1, 31512, Note_on_c, 1, 43, 80
1, 31535, Note_on_c, 1, 43, 0
1, 31536, Note_on_c, 1, 45, 80
1, 31559, Note_on_c, 1, 45, 0
1, 31560, Note_on_c, 1, 47, 80
1, 31583, Note_on_c, 1, 47, 0
1, 31584, Note_on_c, 0, 79, 80
1, 31584, Note_on_c, 0, 74, 80
1, 31584, Note_on_c, 1, 48, 80
1, 31604, Note_on_c, 0, 79, 0
1, 31604, Note_on_c, 0, 74, 0
1, 31607, Note_on_c, 1, 48, 0
1, 31608, Note_on_c, 1, 50, 80
1, 31631, Note_on_c, 1, 50, 0
1, 31632, Note_on_c, 1, 52, 80
1, 31655, Note_on_c, 1, 52, 0
1, 31656, Note_on_c, 1, 54, 80
1, 31679, Note_on_c, 1, 54, 0
1, 31680, Note_on_c, 0, 74, 80
1, 31680, Note_on_c, 0, 71, 80
1, 31680, Note_on_c, 1, 55, 80
1, 31700, Note_on_c, 0, 74, 0
1, 31700, Note_on_c, 0, 71, 0
1, 31703, Note_on_c, 1, 55, 0
1, 31704, Note_on_c, 1, 54, 80
1, 31727, Note_on_c, 1, 54, 0
1, 31728, Note_on_c, 1, 55, 80
1, 31751, Note_on_c, 1, 55, 0
1, 31752, Note_on_c, 1, 57, 80
1, 31775, Note_on_c, 1, 57, 0
1, 31776, Note_on_c, 1, 59, 80
1, 31821, Note_on_c, 1, 59, 0
1, 31824, Note_on_c, 0, 76, 80
1, 31872, Note_on_c, 0, 76, 0
1, 31872, Note_on_c, 0, 69, 80
1, 31892, Note_on_c, 0, 69, 0
1, 31896, Note_on_c, 1, 67, 80
1, 31919, Note_on_c, 1, 67, 0
1, 31920, Note_on_c, 1, 66, 80
1, 31943, Note_on_c, 1, 66, 0
1, 31944, Note_on_c, 1, 64, 80
1, 31967, Note_on_c, 1, 64, 0
1, 31968, Note_on_c, 1, 66, 80
1, 32013, Note_on_c, 1, 66, 0
1, 32016, Note_on_c, 0, 74, 80
1, 32064, Note_on_c, 0, 74, 0
1, 32064, Note_on_c, 0, 67, 80
1, 32084, Note_on_c, 0, 67, 0
1, 32088, Note_on_c, 1, 66, 80
1, 32111, Note_on_c, 1, 66, 0
1, 32112, Note_on_c, 1, 64, 80
1, 32135, Note_on_c, 1, 64, 0
1, 32136, Note_on_c, 1, 63, 80
1, 32159, Note_on_c, 1, 63, 0
1, 32160, Note_on_c, 1, 64, 80
1, 32205, Note_on_c, 1, 64, 0
1, 32208, Note_on_c, 0, 88, 80
1, 32208, Note_on_c, 0, 84, 80
1, 32256, Note_on_c, 0, 88, 0
1, 32256, Note_on_c, 0, 84, 0
1, 32256, Note_on_c, 0, 81, 80
1, 32256, Note_on_c, 0, 78, 80
1, 32276, Note_on_c, 0, 81, 0
1, 32276, Note_on_c, 0, 78, 0
1, 32304, Note_on_c, 1, 69, 80
1, 32304, Note_on_c, 1, 66, 80
1, 32324, Note_on_c, 1, 69, 0
1, 32324, Note_on_c, 1, 66, 0
1, 32352, Note_on_c, 1, 74, 80
1, 32352, Note_on_c, 1, 71, 80
1, 32372, Note_on_c, 1, 74, 0
1, 32372, Note_on_c, 1, 71, 0
1, 32400, Note_on_c, 0, 86, 80
1, 32400, Note_on_c, 0, 83, 80
1, 32448, Note_on_c, 0, 86, 0
1, 32448, Note_on_c, 0, 83, 0
1, 32448, Note_on_c, 0, 79, 80
1, 32448, Note_on_c, 0, 76, 80
1, 32468, Note_on_c, 0, 79, 0
1, 32468, Note_on_c, 0, 76, 0
1, 32472, Note_on_c, 1, 67, 80
1, 32472, Note_on_c, 1, 64, 80
1, 32495, Note_on_c, 1, 67, 0
1, 32495, Note_on_c, 1, 64, 0
1, 32496, Note_on_c, 1, 69, 80
1, 32496, Note_on_c, 1, 66, 80
1, 32519, Note_on_c, 1, 69, 0
1, 32519, Note_on_c, 1, 66, 0
1, 32520, Note_on_c, 1, 71, 80
1, 32520, Note_on_c, 1, 67, 80
1, 32543, Note_on_c, 1, 71, 0
1, 32543, Note_on_c, 1, 67, 0
1, 32544, Note_on_c, 1, 72, 80
1, 32544, Note_on_c, 1, 69, 80
1, 32564, Note_on_c, 1, 72, 0
1, 32564, Note_on_c, 1, 69, 0
1, 32592, Note_on_c, 0, 84, 80
1, 32637, Note_on_c, 0, 84, 0
1, 32640, Note_on_c, 0, 74, 80
1, 32663, Note_on_c, 0, 74, 0
1, 32664, Note_on_c, 0, 84, 80
1, 32687, Note_on_c, 0, 84, 0
1, 32688, Note_on_c, 0, 83, 80
1, 32688, Note_on_c, 1, 66, 80
1, 32711, Note_on_c, 0, 83, 0
1, 32712, Note_on_c, 0, 82, 80
1, 32733, Note_on_c, 1, 66, 0
1, 32735, Note_on_c, 0, 82, 0
1, 32736, Note_on_c, 0, 83, 80
1, 32736, Note_on_c, 1, 67, 80
1, 32759, Note_on_c, 0, 83, 0
1, 32760, Note_on_c, 0, 78, 80
1, 32783, Note_on_c, 0, 78, 0
1, 32784, Note_on_c, 0, 79, 80
1, 32784, Note_on_c, 1, 59, 75
1, 32807, Note_on_c, 0, 79, 0
1, 32808, Note_on_c, 0, 74, 80
1, 32829, Note_on_c, 1, 59, 0
1, 32831, Note_on_c, 0, 74, 0
1, 32832, Note_on_c, 0, 75, 80
1, 32832, Note_on_c, 1, 60, 75
1, 32855, Note_on_c, 0, 75, 0
1, 32856, Note_on_c, 0, 76, 80
1, 32869, Note_on_c, 1, 67, 0
1, 32879, Note_on_c, 0, 76, 0
1, 32880, Note_on_c, 0, 80, 80
1, 32880, Note_on_c, 1, 72, 80
1, 32903, Note_on_c, 0, 80, 0
1, 32904, Note_on_c, 0, 81, 80
1, 32921, Note_on_c, 1, 60, 0
1, 32925, Note_on_c, 1, 72, 0
1, 32927, Note_on_c, 0, 81, 0
1, 32928, Note_on_c, 0, 79, 80
1, 32928, Note_on_c, 1, 71, 80
1, 32928, Note_on_c, 1, 62, 75
1, 32948, Note_on_c, 0, 79, 0
1, 32973, Note_on_c, 1, 71, 0
1, 32976, Note_on_c, 0, 78, 96
1, 32976, Note_on_c, 1, 69, 80
1, 32996, Note_on_c, 0, 78, 0
1, 33017, Note_on_c, 1, 62, 0
1, 33021, Note_on_c, 1, 69, 0
1, 33024, Note_on_c, 1, 55, 64
1, 33047, Note_on_c, 1, 55, 0
1, 33048, Note_on_c, 0, 83, 75
1, 33048, Note_on_c, 0, 79, 75
1, 33048, Note_on_c, 1, 67, 64
1, 33071, Note_on_c, 1, 67, 0
1, 33072, Note_on_c, 0, 83, 0
1, 33072, Note_on_c, 0, 79, 0
1, 33072, Note_on_c, 0, 81, 75
1, 33072, Note_on_c, 0, 78, 75
1, 33072, Note_on_c, 1, 55, 64
1, 33082, Note_on_c, 0, 81, 0
1, 33082, Note_on_c, 0, 78, 0
1, 33095, Note_on_c, 1, 55, 0
1, 33096, Note_on_c, 0, 84, 76
1, 33096, Note_on_c, 0, 81, 76
1, 33096, Note_on_c, 1, 67, 64
1, 33119, Note_on_c, 1, 67, 0
1, 33120, Note_on_c, 0, 84, 0
1, 33120, Note_on_c, 0, 81, 0
1, 33120, Note_on_c, 0, 83, 77
1, 33120, Note_on_c, 0, 79, 77
1, 33120, Note_on_c, 1, 55, 64
1, 33130, Note_on_c, 0, 83, 0
1, 33130, Note_on_c, 0, 79, 0
1, 33143, Note_on_c, 1, 55, 0
1, 33144, Note_on_c, 0, 86, 77
1, 33144, Note_on_c, 0, 83, 77
1, 33144, Note_on_c, 1, 67, 64
1, 33167, Note_on_c, 1, 67, 0
1, 33168, Note_on_c, 0, 86, 0
1, 33168, Note_on_c, 0, 83, 0
1, 33168, Note_on_c, 0, 84, 78
1, 33168, Note_on_c, 0, 81, 78
1, 33168, Note_on_c, 1, 55, 64
1, 33178, Note_on_c, 0, 84, 0
1, 33178, Note_on_c, 0, 81, 0
1, 33191, Note_on_c, 1, 55, 0
1, 33192, Note_on_c, 0, 88, 79
1, 33192, Note_on_c, 0, 84, 79
1, 33192, Note_on_c, 1, 67, 64
1, 33215, Note_on_c, 1, 67, 0
1, 33216, Note_on_c, 0, 88, 0
1, 33216, Note_on_c, 0, 84, 0
1, 33216, Note_on_c, 0, 86, 96
1, 33216, Note_on_c, 0, 83, 96
1, 33216, Note_on_c, 1, 55, 64
1, 33236, Note_on_c, 0, 86, 0
1, 33236, Note_on_c, 0, 83, 0
1, 33239, Note_on_c, 1, 55, 0
1, 33240, Note_on_c, 1, 67, 64
1, 33263, Note_on_c, 1, 67, 0
1, 33264, Note_on_c, 1, 55, 64
1, 33287, Note_on_c, 1, 55, 0
1, 33288, Note_on_c, 0, 84, 74
1, 33288, Note_on_c, 0, 81, 74
1, 33288, Note_on_c, 1, 67, 64
1, 33311, Note_on_c, 1, 67, 0
1, 33312, Note_on_c, 0, 84, 0
1, 33312, Note_on_c, 0, 81, 0
1, 33312, Note_on_c, 0, 83, 72
1, 33312, Note_on_c, 0, 79, 72
1, 33312, Note_on_c, 1, 55, 64
1, 33332, Note_on_c, 0, 83, 0
1, 33332, Note_on_c, 0, 79, 0
1, 33335, Note_on_c, 1, 55, 0
1, 33336, Note_on_c, 1, 67, 64
1, 33359, Note_on_c, 1, 67, 0
1, 33360, Note_on_c, 1, 55, 64
1, 33383, Note_on_c, 1, 55, 0
1, 33384, Note_on_c, 0, 81, 66
1, 33384, Note_on_c, 0, 72, 66
1, 33384, Note_on_c, 1, 67, 64
1, 33407, Note_on_c, 1, 67, 0
1, 33408, Note_on_c, 0, 81, 0
1, 33408, Note_on_c, 0, 72, 0
1, 33408, Note_on_c, 0, 79, 64
1, 33408, Note_on_c, 0, 71, 64
1, 33408, Note_on_c, 1, 55, 64
1, 33418, Note_on_c, 0, 79, 0
1, 33418, Note_on_c, 0, 71, 0
1, 33431, Note_on_c, 1, 55, 0
1, 33432, Note_on_c, 0, 83, 66
1, 33432, Note_on_c, 0, 79, 66
1, 33432, Note_on_c, 1, 67, 64
1, 33455, Note_on_c, 1, 67, 0
1, 33456, Note_on_c, 0, 83, 0
1, 33456, Note_on_c, 0, 79, 0
1, 33456, Note_on_c, 0, 81, 68
1, 33456, Note_on_c, 0, 78, 68
1, 33456, Note_on_c, 1, 55, 64
1, 33466, Note_on_c, 0, 81, 0
1, 33466, Note_on_c, 0, 78, 0
1, 33479, Note_on_c, 1, 55, 0
1, 33480, Note_on_c, 0, 84, 70
1, 33480, Note_on_c, 0, 81, 70
1, 33480, Note_on_c, 1, 67, 64
1, 33503, Note_on_c, 1, 67, 0
1, 33504, Note_on_c, 0, 84, 0
1, 33504, Note_on_c, 0, 81, 0
1, 33504, Note_on_c, 0, 83, 72
1, 33504, Note_on_c, 0, 79, 72
1, 33504, Note_on_c, 1, 55, 64
1, 33514, Note_on_c, 0, 83, 0
1, 33514, Note_on_c, 0, 79, 0
1, 33527, Note_on_c, 1, 55, 0
1, 33528, Note_on_c, 0, 86, 74
1, 33528, Note_on_c, 0, 83, 74
1, 33528, Note_on_c, 1, 67, 64
1, 33551, Note_on_c, 1, 67, 0
1, 33552, Note_on_c, 0, 86, 0
1, 33552, Note_on_c, 0, 83, 0
1, 33552, Note_on_c, 0, 84, 76
1, 33552, Note_on_c, 0, 81, 76
1, 33552, Note_on_c, 1, 55, 64
1, 33562, Note_on_c, 0, 84, 0
1, 33562, Note_on_c, 0, 81, 0
1, 33575, Note_on_c, 1, 55, 0
1, 33576, Note_on_c, 0, 88, 78
1, 33576, Note_on_c, 0, 84, 78
1, 33576, Note_on_c, 1, 67, 64
1, 33599, Note_on_c, 1, 67, 0
1, 33600, Note_on_c, 0, 88, 0
1, 33600, Note_on_c, 0, 84, 0
1, 33600, Note_on_c, 0, 86, 96
1, 33600, Note_on_c, 0, 83, 96
1, 33600, Note_on_c, 1, 55, 64
1, 33620, Note_on_c, 0, 86, 0
1, 33620, Note_on_c, 0, 83, 0
1, 33623, Note_on_c, 1, 55, 0
1, 33624, Note_on_c, 1, 67, 64
1, 33647, Note_on_c, 1, 67, 0
1, 33648, Note_on_c, 1, 55, 64
1, 33671, Note_on_c, 1, 55, 0
1, 33672, Note_on_c, 0, 84, 74
1, 33672, Note_on_c, 0, 81, 74
1, 33672, Note_on_c, 1, 67, 64
1, 33695, Note_on_c, 1, 67, 0
1, 33696, Note_on_c, 0, 84, 0
1, 33696, Note_on_c, 0, 81, 0
1, 33696, Note_on_c, 0, 83, 72
1, 33696, Note_on_c, 0, 79, 72
1, 33696, Note_on_c, 1, 55, 64
1, 33716, Note_on_c, 0, 83, 0
1, 33716, Note_on_c, 0, 79, 0
1, 33719, Note_on_c, 1, 55, 0
1, 33720, Note_on_c, 1, 67, 64
1, 33743, Note_on_c, 1, 67, 0
1, 33744, Note_on_c, 1, 55, 64
1, 33767, Note_on_c, 1, 55, 0
1, 33768, Note_on_c, 0, 81, 66
1, 33768, Note_on_c, 0, 72, 66
1, 33768, Note_on_c, 1, 67, 64
1, 33791, Note_on_c, 1, 67, 0
1, 33792, Note_on_c, 0, 81, 0
1, 33792, Note_on_c, 0, 72, 0
1, 33792, Note_on_c, 0, 79, 64
1, 33792, Note_on_c, 0, 71, 64
1, 33792, Note_on_c, 1, 55, 64
1, 33802, Note_on_c, 0, 79, 0
1, 33802, Note_on_c, 0, 71, 0
1, 33815, Note_on_c, 1, 55, 0
1, 33816, Note_on_c, 0, 83, 66
1, 33816, Note_on_c, 0, 79, 66
1, 33816, Note_on_c, 1, 67, 64
1, 33839, Note_on_c, 1, 67, 0
1, 33840, Note_on_c, 0, 83, 0
1, 33840, Note_on_c, 0, 79, 0
1, 33840, Note_on_c, 0, 81, 68
1, 33840, Note_on_c, 0, 78, 68
1, 33840, Note_on_c, 1, 55, 64
1, 33850, Note_on_c, 0, 81, 0
1, 33850, Note_on_c, 0, 78, 0
1, 33863, Note_on_c, 1, 55, 0
1, 33864, Note_on_c, 0, 84, 70
1, 33864, Note_on_c, 0, 81, 70
1, 33864, Note_on_c, 1, 67, 64
1, 33887, Note_on_c, 1, 67, 0
1, 33888, Note_on_c, 0, 84, 0
1, 33888, Note_on_c, 0, 81, 0
1, 33888, Note_on_c, 0, 83, 72
1, 33888, Note_on_c, 0, 79, 72
1, 33888, Note_on_c, 1, 55, 64
1, 33898, Note_on_c, 0, 83, 0
1, 33898, Note_on_c, 0, 79, 0
1, 33911, Note_on_c, 1, 55, 0
1, 33912, Note_on_c, 0, 86, 74
1, 33912, Note_on_c, 0, 83, 74
1, 33912, Note_on_c, 1, 67, 64
1, 33935, Note_on_c, 1, 67, 0
1, 33936, Note_on_c, 0, 86, 0
1, 33936, Note_on_c, 0, 83, 0
1, 33936, Note_on_c, 0, 84, 76
1, 33936, Note_on_c, 0, 81, 76
1, 33936, Note_on_c, 1, 55, 64
1, 33946, Note_on_c, 0, 84, 0
1, 33946, Note_on_c, 0, 81, 0
1, 33959, Note_on_c, 1, 55, 0
1, 33960, Note_on_c, 0, 88, 78
1, 33960, Note_on_c, 0, 84, 78
1, 33960, Note_on_c, 1, 67, 64
1, 33983, Note_on_c, 1, 67, 0
1, 33984, Note_on_c, 0, 88, 0
1, 33984, Note_on_c, 0, 84, 0
1, 33984, Note_on_c, 0, 86, 96
1, 33984, Note_on_c, 0, 83, 96
1, 33984, Note_on_c, 1, 55, 64
1, 34004, Note_on_c, 0, 86, 0
1, 34004, Note_on_c, 0, 83, 0
1, 34007, Note_on_c, 1, 55, 0
1, 34008, Note_on_c, 1, 67, 64
1, 34031, Note_on_c, 1, 67, 0
1, 34032, Note_on_c, 1, 55, 64
1, 34055, Note_on_c, 1, 55, 0
1, 34056, Note_on_c, 0, 84, 74
1, 34056, Note_on_c, 0, 81, 74
1, 34056, Note_on_c, 1, 67, 64
1, 34079, Note_on_c, 1, 67, 0
1, 34080, Note_on_c, 0, 84, 0
1, 34080, Note_on_c, 0, 81, 0
1, 34080, Note_on_c, 0, 83, 72
1, 34080, Note_on_c, 0, 79, 72
1, 34080, Note_on_c, 1, 55, 64
1, 34100, Note_on_c, 0, 83, 0
1, 34100, Note_on_c, 0, 79, 0
1, 34103, Note_on_c, 1, 55, 0
1, 34104, Note_on_c, 1, 67, 64
1, 34127, Note_on_c, 1, 67, 0
1, 34128, Note_on_c, 1, 55, 64
1, 34151, Note_on_c, 1, 55, 0
1, 34152, Note_on_c, 0, 81, 66
1, 34152, Note_on_c, 0, 72, 66
1, 34152, Note_on_c, 1, 67, 64
1, 34175, Note_on_c, 1, 67, 0
1, 34176, Note_on_c, 0, 81, 0
1, 34176, Note_on_c, 0, 72, 0
1, 34176, Note_on_c, 0, 79, 70
1, 34176, Note_on_c, 0, 71, 70
1, 34176, Note_on_c, 1, 55, 64
1, 34199, Note_on_c, 1, 55, 0
1, 34200, Note_on_c, 1, 67, 64
1, 34223, Note_on_c, 1, 67, 0
1, 34224, Note_on_c, 1, 55, 64
1, 34247, Note_on_c, 1, 55, 0
1, 34248, Note_on_c, 1, 67, 64
1, 34271, Note_on_c, 1, 67, 0
1, 34272, Note_on_c, 1, 55, 64
1, 34295, Note_on_c, 1, 55, 0
1, 34296, Note_on_c, 1, 67, 64
1, 34319, Note_on_c, 1, 67, 0
1, 34320, Note_on_c, 1, 55, 64
1, 34343, Note_on_c, 1, 55, 0
1, 34344, Note_on_c, 1, 67, 64
1, 34367, Note_on_c, 1, 67, 0
1, 34368, Note_on_c, 0, 79, 0
1, 34368, Note_on_c, 0, 80, 86
1, 34368, Note_on_c, 1, 55, 64
1, 34391, Note_on_c, 1, 55, 0
1, 34392, Note_on_c, 1, 65, 64
1, 34415, Note_on_c, 1, 65, 0
1, 34416, Note_on_c, 1, 55, 64
1, 34439, Note_on_c, 1, 55, 0
1, 34440, Note_on_c, 1, 65, 64
1, 34463, Note_on_c, 1, 65, 0
1, 34464, Note_on_c, 1, 55, 64
1, 34487, Note_on_c, 1, 55, 0
1, 34488, Note_on_c, 1, 65, 64
1, 34511, Note_on_c, 1, 65, 0
1, 34512, Note_on_c, 1, 55, 64
1, 34535, Note_on_c, 1, 55, 0
1, 34536, Note_on_c, 1, 65, 64
1, 34545, Note_on_c, 0, 71, 0
1, 34559, Note_on_c, 1, 65, 0
1, 34560, Note_on_c, 0, 72, 70
1, 34560, Note_on_c, 1, 55, 64
1, 34583, Note_on_c, 1, 55, 0
1, 34584, Note_on_c, 1, 63, 64
1, 34607, Note_on_c, 1, 63, 0
1, 34608, Note_on_c, 1, 55, 64
1, 34631, Note_on_c, 1, 55, 0
1, 34632, Note_on_c, 1, 63, 64
1, 34649, Note_on_c, 0, 80, 0
1, 34655, Note_on_c, 1, 63, 0
1, 34656, Note_on_c, 0, 79, 70
1, 34656, Note_on_c, 1, 55, 64
1, 34679, Note_on_c, 1, 55, 0
1, 34680, Note_on_c, 1, 63, 64
1, 34703, Note_on_c, 1, 63, 0
1, 34704, Note_on_c, 1, 55, 64
1, 34727, Note_on_c, 1, 55, 0
1, 34728, Note_on_c, 1, 63, 64
1, 34737, Note_on_c, 0, 72, 0
1, 34745, Note_on_c, 0, 79, 0
1, 34751, Note_on_c, 1, 63, 0
1, 34752, Note_on_c, 0, 78, 88
1, 34752, Note_on_c, 0, 72, 88
1, 34752, Note_on_c, 1, 57, 82
1, 34775, Note_on_c, 1, 57, 0
1, 34776, Note_on_c, 1, 63, 64
1, 34799, Note_on_c, 1, 63, 0
1, 34800, Note_on_c, 1, 57, 64
1, 34823, Note_on_c, 1, 57, 0
1, 34824, Note_on_c, 1, 63, 64
1, 34847, Note_on_c, 1, 63, 0
1, 34848, Note_on_c, 1, 57, 64
1, 34871, Note_on_c, 1, 57, 0
1, 34872, Note_on_c, 1, 63, 64
1, 34895, Note_on_c, 1, 63, 0
1, 34896, Note_on_c, 1, 57, 64
1, 34919, Note_on_c, 1, 57, 0
1, 34920, Note_on_c, 1, 63, 64
1, 34929, Note_on_c, 0, 78, 0
1, 34929, Note_on_c, 0, 72, 0
1, 34943, Note_on_c, 1, 63, 0
1, 34944, Note_on_c, 0, 77, 70
1, 34944, Note_on_c, 0, 67, 70
1, 34944, Note_on_c, 1, 59, 64
1, 34967, Note_on_c, 1, 59, 0
1, 34968, Note_on_c, 1, 62, 64
1, 34991, Note_on_c, 1, 62, 0
1, 34992, Note_on_c, 1, 59, 64
1, 35015, Note_on_c, 1, 59, 0
1, 35016, Note_on_c, 1, 62, 64
1, 35033, Note_on_c, 0, 67, 0
1, 35039, Note_on_c, 1, 62, 0
1, 35040, Note_on_c, 0, 74, 70
1, 35040, Note_on_c, 1, 59, 64
1, 35063, Note_on_c, 1, 59, 0
1, 35064, Note_on_c, 1, 67, 64
1, 35087, Note_on_c, 1, 67, 0
1, 35088, Note_on_c, 1, 59, 64
1, 35111, Note_on_c, 1, 59, 0
1, 35112, Note_on_c, 1, 67, 64
1, 35135, Note_on_c, 1, 67, 0
1, 35136, Note_on_c, 0, 77, 0
1, 35136, Note_on_c, 0, 76, 70
1, 35136, Note_on_c, 1, 60, 64
1, 35159, Note_on_c, 1, 60, 0
1, 35160, Note_on_c, 1, 67, 64
1, 35183, Note_on_c, 1, 67, 0
1, 35184, Note_on_c, 1, 60, 64
1, 35207, Note_on_c, 1, 60, 0
1, 35208, Note_on_c, 1, 67, 64
1, 35217, Note_on_c, 0, 74, 0
1, 35231, Note_on_c, 1, 67, 0
1, 35232, Note_on_c, 0, 71, 70
1, 35232, Note_on_c, 1, 60, 64
1, 35255, Note_on_c, 1, 60, 0
1, 35256, Note_on_c, 1, 68, 64
1, 35279, Note_on_c, 1, 68, 0
1, 35280, Note_on_c, 1, 60, 64
1, 35303, Note_on_c, 1, 60, 0
1, 35304, Note_on_c, 1, 68, 64
1, 35313, Note_on_c, 0, 76, 0
1, 35321, Note_on_c, 0, 71, 0
1, 35327, Note_on_c, 1, 68, 0
1, 35328, Note_on_c, 0, 76, 70
1, 35328, Note_on_c, 0, 72, 70
1, 35328, Note_on_c, 1, 60, 64
1, 35351, Note_on_c, 1, 60, 0
1, 35352, Note_on_c, 1, 69, 64
1, 35375, Note_on_c, 1, 69, 0
1, 35376, Note_on_c, 1, 60, 64
1, 35399, Note_on_c, 1, 60, 0
1, 35400, Note_on_c, 1, 69, 64
1, 35423, Note_on_c, 1, 69, 0
1, 35424, Note_on_c, 1, 60, 64
1, 35447, Note_on_c, 1, 60, 0
1, 35448, Note_on_c, 1, 69, 64
1, 35471, Note_on_c, 1, 69, 0
1, 35472, Note_on_c, 1, 60, 64
1, 35495, Note_on_c, 1, 60, 0
1, 35496, Note_on_c, 1, 69, 64
1, 35505, Note_on_c, 0, 76, 0
1, 35505, Note_on_c, 0, 72, 0
1, 35519, Note_on_c, 1, 69, 0
1, 35520, Note_on_c, 0, 76, 88
1, 35520, Note_on_c, 0, 70, 88
1, 35520, Note_on_c, 1, 61, 82
1, 35543, Note_on_c, 1, 61, 0
1, 35544, Note_on_c, 1, 67, 64
1, 35567, Note_on_c, 1, 67, 0
1, 35568, Note_on_c, 1, 61, 64
1, 35591, Note_on_c, 1, 61, 0
1, 35592, Note_on_c, 1, 67, 64
1, 35615, Note_on_c, 1, 67, 0
1, 35616, Note_on_c, 1, 61, 64
1, 35639, Note_on_c, 1, 61, 0
1, 35640, Note_on_c, 1, 67, 64
1, 35663, Note_on_c, 1, 67, 0
1, 35664, Note_on_c, 1, 61, 64
1, 35687, Note_on_c, 1, 61, 0
1, 35688, Note_on_c, 1, 67, 64
1, 35697, Note_on_c, 0, 76, 0
1, 35711, Note_on_c, 1, 67, 0
1, 35712, Note_on_c, 0, 74, 70
1, 35712, Note_on_c, 1, 62, 64
1, 35735, Note_on_c, 1, 62, 0
1, 35736, Note_on_c, 1, 67, 64
1, 35759, Note_on_c, 1, 67, 0
1, 35760, Note_on_c, 1, 62, 64
1, 35783, Note_on_c, 1, 62, 0
1, 35784, Note_on_c, 1, 67, 64
1, 35801, Note_on_c, 0, 70, 0
1, 35807, Note_on_c, 1, 67, 0
1, 35808, Note_on_c, 0, 69, 70
1, 35808, Note_on_c, 1, 62, 64
1, 35831, Note_on_c, 1, 62, 0
1, 35832, Note_on_c, 1, 67, 64
1, 35855, Note_on_c, 1, 67, 0
1, 35856, Note_on_c, 1, 62, 64
1, 35879, Note_on_c, 1, 62, 0
1, 35880, Note_on_c, 1, 67, 64
1, 35897, Note_on_c, 0, 69, 0
1, 35903, Note_on_c, 1, 67, 0
1, 35904, Note_on_c, 0, 71, 70
1, 35904, Note_on_c, 1, 62, 64
1, 35927, Note_on_c, 1, 62, 0
1, 35928, Note_on_c, 1, 66, 64
1, 35951, Note_on_c, 1, 66, 0
1, 35952, Note_on_c, 1, 62, 64
1, 35975, Note_on_c, 1, 62, 0
1, 35976, Note_on_c, 1, 66, 64
1, 35993, Note_on_c, 0, 71, 0
1, 35999, Note_on_c, 1, 66, 0
1, 36000, Note_on_c, 0, 72, 70
1, 36000, Note_on_c, 1, 62, 64
1, 36023, Note_on_c, 1, 62, 0
1, 36024, Note_on_c, 1, 66, 64
1, 36047, Note_on_c, 1, 66, 0
1, 36048, Note_on_c, 1, 62, 64
1, 36071, Note_on_c, 1, 62, 0
1, 36072, Note_on_c, 1, 66, 64
1, 36089, Note_on_c, 0, 72, 0
1, 36095, Note_on_c, 1, 66, 0
1, 36096, Note_on_c, 0, 71, 70
1, 36096, Note_on_c, 1, 67, 64
1, 36141, Note_on_c, 0, 74, 0
1, 36141, Note_on_c, 0, 71, 0
1, 36141, Note_on_c, 1, 67, 0
1, 36144, Note_on_c, 0, 74, 80
1, 36144, Note_on_c, 1, 55, 80
1, 36152, Note_on_c, 0, 79, 80
1, 36152, Note_on_c, 1, 59, 80
1, 36160, Note_on_c, 0, 83, 80
1, 36160, Note_on_c, 1, 62, 80
1, 36189, Note_on_c, 0, 83, 0
1, 36189, Note_on_c, 0, 79, 0
1, 36189, Note_on_c, 0, 74, 0
1, 36189, Note_on_c, 1, 62, 0
1, 36189, Note_on_c, 1, 59, 0
1, 36189, Note_on_c, 1, 55, 0
1, 36192, Note_on_c, 0, 74, 80
1, 36192, Note_on_c, 1, 54, 80
1, 36200, Note_on_c, 0, 81, 80
1, 36200, Note_on_c, 1, 57, 80
1, 36208, Note_on_c, 0, 84, 80
1, 36208, Note_on_c, 1, 62, 80
1, 36237, Note_on_c, 0, 84, 0
1, 36237, Note_on_c, 0, 81, 0
1, 36237, Note_on_c, 0, 74, 0
1, 36237, Note_on_c, 1, 62, 0
1, 36237, Note_on_c, 1, 57, 0
1, 36237, Note_on_c, 1, 54, 0
1, 36240, Note_on_c, 0, 74, 80
1, 36240, Note_on_c, 1, 55, 80
1, 36248, Note_on_c, 0, 79, 80
1, 36248, Note_on_c, 1, 59, 80
1, 36256, Note_on_c, 0, 83, 80
1, 36256, Note_on_c, 1, 62, 80
1, 36285, Note_on_c, 0, 83, 0
1, 36285, Note_on_c, 0, 79, 0
1, 36285, Note_on_c, 0, 74, 0
1, 36285, Note_on_c, 1, 62, 0
1, 36285, Note_on_c, 1, 59, 0
1, 36285, Note_on_c, 1, 55, 0
1, 36288, Note_on_c, 0, 76, 80
1, 36288, Note_on_c, 1, 60, 80
1, 36288, Note_on_c, 1, 48, 80
1, 36296, Note_on_c, 0, 84, 80
1, 36304, Note_on_c, 0, 88, 80
1, 36333, Note_on_c, 0, 88, 0
1, 36333, Note_on_c, 0, 84, 0
1, 36333, Note_on_c, 0, 76, 0
1, 36333, Note_on_c, 1, 60, 0
1, 36333, Note_on_c, 1, 48, 0
1, 36384, Note_on_c, 0, 69, 64
1, 36384, Note_on_c, 1, 66, 64
1, 36418, Note_on_c, 0, 69, 0
1, 36420, Note_on_c, 0, 71, 64
1, 36432, Note_on_c, 0, 71, 0
1, 36432, Note_on_c, 0, 72, 64
1, 36432, Note_on_c, 1, 66, 0
1, 36432, Note_on_c, 1, 62, 64
1, 36466, Note_on_c, 0, 72, 0
1, 36468, Note_on_c, 0, 74, 64
1, 36477, Note_on_c, 1, 62, 0
1, 36480, Note_on_c, 0, 74, 0
1, 36480, Note_on_c, 0, 74, 64
1, 36480, Note_on_c, 0, 71, 64
1, 36480, Note_on_c, 1, 67, 64
1, 36525, Note_on_c, 0, 74, 0
1, 36525, Note_on_c, 0, 71, 0
1, 36525, Note_on_c, 1, 67, 0
1, 36528, Note_on_c, 0, 74, 80
1, 36528, Note_on_c, 1, 55, 80
1, 36536, Note_on_c, 0, 79, 80
1, 36536, Note_on_c, 1, 59, 80
1, 36544, Note_on_c, 0, 83, 80
1, 36544, Note_on_c, 1, 62, 80
1, 36573, Note_on_c, 0, 83, 0
1, 36573, Note_on_c, 0, 79, 0
1, 36573, Note_on_c, 0, 74, 0
1, 36573, Note_on_c, 1, 62, 0
1, 36573, Note_on_c, 1, 59, 0
1, 36573, Note_on_c, 1, 55, 0
1, 36576, Note_on_c, 0, 74, 80
1, 36576, Note_on_c, 1, 54, 80
1, 36584, Note_on_c, 0, 81, 80
1, 36584, Note_on_c, 1, 57, 80
1, 36592, Note_on_c, 0, 84, 80
1, 36592, Note_on_c, 1, 62, 80
1, 36621, Note_on_c, 0, 84, 0
1, 36621, Note_on_c, 0, 81, 0
1, 36621, Note_on_c, 0, 74, 0
1, 36621, Note_on_c, 1, 62, 0
1, 36621, Note_on_c, 1, 57, 0
1, 36621, Note_on_c, 1, 54, 0
1, 36624, Note_on_c, 0, 74, 80
1, 36624, Note_on_c, 1, 55, 80
1, 36632, Note_on_c, 0, 79, 80
1, 36632, Note_on_c, 1, 59, 80
1, 36640, Note_on_c, 0, 83, 80
1, 36640, Note_on_c, 1, 62, 80
1, 36669, Note_on_c, 0, 83, 0
1, 36669, Note_on_c, 0, 79, 0
1, 36669, Note_on_c, 0, 74, 0
1, 36669, Note_on_c, 1, 62, 0
1, 36669, Note_on_c, 1, 59, 0
1, 36669, Note_on_c, 1, 55, 0
1, 36672, Note_on_c, 0, 76, 80
1, 36672, Note_on_c, 1, 60, 80
1, 36672, Note_on_c, 1, 48, 80
1, 36680, Note_on_c, 0, 84, 80
1, 36688, Note_on_c, 0, 88, 80
1, 36717, Note_on_c, 0, 88, 0
1, 36717, Note_on_c, 0, 84, 0
1, 36717, Note_on_c, 0, 76, 0
1, 36717, Note_on_c, 1, 60, 0
1, 36717, Note_on_c, 1, 48, 0
1, 36768, Note_on_c, 0, 66, 80
1, 36783, Note_on_c, 0, 66, 0
1, 36784, Note_on_c, 0, 69, 80
1, 36799, Note_on_c, 0, 69, 0
1, 36800, Note_on_c, 0, 72, 80
1, 36815, Note_on_c, 0, 72, 0
1, 36816, Note_on_c, 0, 76, 80
1, 36816, Note_on_c, 1, 57, 80
1, 36816, Note_on_c, 1, 50, 80
1, 36831, Note_on_c, 0, 76, 0
1, 36832, Note_on_c, 0, 74, 80
1, 36847, Note_on_c, 0, 74, 0
1, 36848, Note_on_c, 0, 72, 80
1, 36861, Note_on_c, 1, 57, 0
1, 36861, Note_on_c, 1, 50, 0
1, 36863, Note_on_c, 0, 72, 0
1, 36864, Note_on_c, 0, 71, 80
1, 36864, Note_on_c, 1, 55, 80
1, 36884, Note_on_c, 0, 71, 0
1, 36884, Note_on_c, 1, 55, 0
1, 36912, Note_on_c, 0, 74, 80
1, 36912, Note_on_c, 1, 55, 80
1, 36927, Note_on_c, 0, 74, 0
1, 36927, Note_on_c, 1, 55, 0
1, 36928, Note_on_c, 0, 79, 80
1, 36928, Note_on_c, 1, 59, 80
1, 36943, Note_on_c, 0, 79, 0
1, 36943, Note_on_c, 1, 59, 0
1, 36944, Note_on_c, 0, 83, 80
1, 36944, Note_on_c, 1, 62, 80
1, 36959, Note_on_c, 0, 83, 0
1, 36959, Note_on_c, 1, 62, 0
1, 36960, Note_on_c, 0, 74, 80
1, 36960, Note_on_c, 1, 54, 80
1, 36975, Note_on_c, 0, 74, 0
1, 36975, Note_on_c, 1, 54, 0
1, 36976, Note_on_c, 0, 81, 80
1, 36976, Note_on_c, 1, 57, 80
1, 36991, Note_on_c, 0, 81, 0
1, 36991, Note_on_c, 1, 57, 0
1, 36992, Note_on_c, 0, 84, 80
1, 36992, Note_on_c, 1, 62, 80
1, 37007, Note_on_c, 0, 84, 0
1, 37007, Note_on_c, 1, 62, 0
1, 37008, Note_on_c, 0, 74, 80
1, 37008, Note_on_c, 1, 55, 80
1, 37023, Note_on_c, 0, 74, 0
1, 37023, Note_on_c, 1, 55, 0
1, 37024, Note_on_c, 0, 79, 80
1, 37024, Note_on_c, 1, 59, 80
1, 37039, Note_on_c, 0, 79, 0
1, 37039, Note_on_c, 1, 59, 0
1, 37040, Note_on_c, 0, 83, 80
1, 37040, Note_on_c, 1, 62, 80
1, 37055, Note_on_c, 0, 83, 0
1, 37055, Note_on_c, 1, 62, 0
1, 37056, Note_on_c, 0, 76, 80
1, 37056, Note_on_c, 1, 48, 80
1, 37071, Note_on_c, 0, 76, 0
1, 37072, Note_on_c, 0, 88, 80
1, 37076, Note_on_c, 1, 48, 0
1, 37087, Note_on_c, 0, 88, 0
1, 37088, Note_on_c, 0, 86, 80
1, 37103, Note_on_c, 0, 86, 0
1, 37104, Note_on_c, 0, 84, 80
1, 37119, Note_on_c, 0, 84, 0
1, 37120, Note_on_c, 0, 83, 80
1, 37135, Note_on_c, 0, 83, 0
1, 37136, Note_on_c, 0, 81, 80
1, 37151, Note_on_c, 0, 81, 0
1, 37152, Note_on_c, 0, 80, 80
1, 37152, Note_on_c, 1, 64, 80
1, 37152, Note_on_c, 1, 60, 80
1, 37167, Note_on_c, 0, 80, 0
1, 37168, Note_on_c, 0, 81, 80
1, 37172, Note_on_c, 1, 64, 0
1, 37172, Note_on_c, 1, 60, 0
1, 37183, Note_on_c, 0, 81, 0
1, 37184, Note_on_c, 0, 88, 80
1, 37199, Note_on_c, 0, 88, 0
1, 37200, Note_on_c, 0, 86, 80
1, 37215, Note_on_c, 0, 86, 0
1, 37216, Note_on_c, 0, 84, 80
1, 37231, Note_on_c, 0, 84, 0
1, 37232, Note_on_c, 0, 83, 80
1, 37247, Note_on_c, 0, 83, 0
1, 37248, Note_on_c, 0, 81, 80
1, 37248, Note_on_c, 1, 64, 80
1, 37248, Note_on_c, 1, 60, 80
1, 37263, Note_on_c, 0, 81, 0
1, 37264, Note_on_c, 0, 80, 79
1, 37268, Note_on_c, 1, 64, 0
1, 37268, Note_on_c, 1, 60, 0
1, 37279, Note_on_c, 0, 80, 0
1, 37280, Note_on_c, 0, 88, 79
1, 37295, Note_on_c, 0, 88, 0
1, 37296, Note_on_c, 0, 86, 78
1, 37311, Note_on_c, 0, 86, 0
1, 37312, Note_on_c, 0, 84, 78
1, 37327, Note_on_c, 0, 84, 0
1, 37328, Note_on_c, 0, 83, 77
1, 37343, Note_on_c, 0, 83, 0
1, 37344, Note_on_c, 0, 81, 77
1, 37344, Note_on_c, 1, 64, 76
1, 37344, Note_on_c, 1, 60, 76
1, 37359, Note_on_c, 0, 81, 0
1, 37360, Note_on_c, 0, 80, 76
1, 37364, Note_on_c, 1, 64, 0
1, 37364, Note_on_c, 1, 60, 0
1, 37375, Note_on_c, 0, 80, 0
1, 37376, Note_on_c, 0, 88, 76
1, 37391, Note_on_c, 0, 88, 0
1, 37392, Note_on_c, 0, 86, 75
1, 37407, Note_on_c, 0, 86, 0
1, 37408, Note_on_c, 0, 84, 75
1, 37423, Note_on_c, 0, 84, 0
1, 37424, Note_on_c, 0, 83, 74
1, 37439, Note_on_c, 0, 83, 0
1, 37440, Note_on_c, 0, 81, 74
1, 37440, Note_on_c, 1, 64, 72
1, 37440, Note_on_c, 1, 60, 72
1, 37455, Note_on_c, 0, 81, 0
1, 37456, Note_on_c, 0, 80, 73
1, 37460, Note_on_c, 1, 64, 0
1, 37460, Note_on_c, 1, 60, 0
1, 37471, Note_on_c, 0, 80, 0
1, 37472, Note_on_c, 0, 88, 73
1, 37487, Note_on_c, 0, 88, 0
1, 37488, Note_on_c, 0, 86, 72
1, 37503, Note_on_c, 0, 86, 0
1, 37504, Note_on_c, 0, 84, 72
1, 37519, Note_on_c, 0, 84, 0
1, 37520, Note_on_c, 0, 83, 71
1, 37535, Note_on_c, 0, 83, 0
1, 37536, Note_on_c, 0, 81, 71
1, 37536, Note_on_c, 1, 64, 68
1, 37536, Note_on_c, 1, 60, 68
1, 37551, Note_on_c, 0, 81, 0
1, 37552, Note_on_c, 0, 88, 70
1, 37556, Note_on_c, 1, 64, 0
1, 37556, Note_on_c, 1, 60, 0
1, 37567, Note_on_c, 0, 88, 0
1, 37568, Note_on_c, 0, 86, 70
1, 37583, Note_on_c, 0, 86, 0
1, 37584, Note_on_c, 0, 84, 69
1, 37599, Note_on_c, 0, 84, 0
1, 37600, Note_on_c, 0, 83, 69
1, 37615, Note_on_c, 0, 83, 0
1, 37616, Note_on_c, 0, 81, 68
1, 37631, Note_on_c, 0, 81, 0
1, 37632, Note_on_c, 0, 83, 64
1, 37632, Note_on_c, 1, 59, 64
1, 37632, Note_on_c, 1, 55, 64
1, 37632, Note_on_c, 1, 50, 64
1, 37647, Note_on_c, 0, 83, 0
1, 37648, Note_on_c, 0, 86, 64
1, 37663, Note_on_c, 0, 86, 0
1, 37664, Note_on_c, 0, 84, 65
1, 37679, Note_on_c, 0, 84, 0
1, 37680, Note_on_c, 0, 83, 66
1, 37695, Note_on_c, 0, 83, 0
1, 37696, Note_on_c, 0, 81, 67
1, 37711, Note_on_c, 0, 81, 0
1, 37712, Note_on_c, 0, 79, 68
1, 37726, Note_on_c, 1, 59, 0
1, 37726, Note_on_c, 1, 55, 0
1, 37726, Note_on_c, 1, 50, 0
1, 37727, Note_on_c, 0, 79, 0
1, 37728, Note_on_c, 0, 78, 69
1, 37743, Note_on_c, 0, 78, 0
1, 37744, Note_on_c, 0, 76, 70
1, 37759, Note_on_c, 0, 76, 0
1, 37760, Note_on_c, 0, 74, 71
1, 37775, Note_on_c, 0, 74, 0
1, 37776, Note_on_c, 0, 86, 72
1, 37791, Note_on_c, 0, 86, 0
1, 37792, Note_on_c, 0, 83, 73
1, 37807, Note_on_c, 0, 83, 0
1, 37808, Note_on_c, 0, 79, 74
1, 37823, Note_on_c, 0, 79, 0
1, 37824, Note_on_c, 0, 83, 75
1, 37824, Note_on_c, 1, 50, 79
1, 37836, Note_on_c, 0, 83, 0
1, 37836, Note_on_c, 0, 81, 80
1, 37839, Note_on_c, 1, 50, 0
1, 37840, Note_on_c, 1, 54, 80
1, 37848, Note_on_c, 0, 81, 0
1, 37848, Note_on_c, 0, 83, 80
1, 37855, Note_on_c, 1, 54, 0
1, 37856, Note_on_c, 1, 57, 80
1, 37860, Note_on_c, 0, 83, 0
1, 37860, Note_on_c, 0, 81, 80
1, 37871, Note_on_c, 1, 57, 0
1, 37872, Note_on_c, 0, 81, 0
1, 37872, Note_on_c, 0, 83, 80
1, 37872, Note_on_c, 1, 62, 80
1, 37884, Note_on_c, 0, 83, 0
1, 37884, Note_on_c, 0, 81, 80
1, 37887, Note_on_c, 1, 62, 0
1, 37888, Note_on_c, 1, 66, 80
1, 37896, Note_on_c, 0, 81, 0
1, 37896, Note_on_c, 0, 83, 80
1, 37903, Note_on_c, 1, 66, 0
1, 37904, Note_on_c, 1, 69, 80
1, 37908, Note_on_c, 0, 83, 0
1, 37908, Note_on_c, 0, 81, 80
1, 37919, Note_on_c, 1, 69, 0
1, 37920, Note_on_c, 0, 81, 0
1, 37920, Note_on_c, 0, 83, 80
1, 37920, Note_on_c, 1, 72, 80
1, 37932, Note_on_c, 0, 83, 0
1, 37932, Note_on_c, 0, 81, 80
1, 37940, Note_on_c, 1, 72, 0
1, 37944, Note_on_c, 0, 81, 0
1, 37944, Note_on_c, 0, 83, 80
1, 37956, Note_on_c, 0, 83, 0
1, 37956, Note_on_c, 0, 81, 80
1, 37968, Note_on_c, 0, 81, 0
1, 37968, Note_on_c, 0, 83, 80
1, 37980, Note_on_c, 0, 83, 0
1, 37980, Note_on_c, 0, 81, 80
1, 37992, Note_on_c, 0, 81, 0
1, 37992, Note_on_c, 0, 79, 80
1, 38004, Note_on_c, 0, 79, 0
1, 38004, Note_on_c, 0, 81, 80
1, 38016, Note_on_c, 0, 81, 0
1, 38016, Note_on_c, 0, 79, 96
1, 38016, Note_on_c, 1, 59, 64
1, 38016, Note_on_c, 1, 55, 70
1, 38036, Note_on_c, 0, 79, 0
1, 38039, Note_on_c, 1, 59, 0
1, 38040, Note_on_c, 1, 62, 64
1, 38061, Note_on_c, 1, 55, 0
1, 38063, Note_on_c, 1, 62, 0
1, 38064, Note_on_c, 0, 83, 80
1, 38064, Note_on_c, 1, 59, 64
1, 38064, Note_on_c, 1, 55, 70
1, 38084, Note_on_c, 0, 83, 0
1, 38087, Note_on_c, 1, 59, 0
1, 38088, Note_on_c, 1, 62, 64
1, 38109, Note_on_c, 1, 55, 0
1, 38111, Note_on_c, 1, 62, 0
1, 38112, Note_on_c, 1, 59, 64
1, 38112, Note_on_c, 1, 55, 70
1, 38135, Note_on_c, 1, 59, 0
1, 38136, Note_on_c, 1, 62, 64
1, 38157, Note_on_c, 1, 55, 0
1, 38159, Note_on_c, 1, 62, 0
1, 38160, Note_on_c, 0, 79, 80
1, 38160, Note_on_c, 1, 59, 64
1, 38160, Note_on_c, 1, 55, 70
1, 38180, Note_on_c, 0, 79, 0
1, 38183, Note_on_c, 1, 59, 0
1, 38184, Note_on_c, 1, 62, 64
1, 38205, Note_on_c, 1, 55, 0
1, 38207, Note_on_c, 1, 62, 0
1, 38208, Note_on_c, 1, 59, 64
1, 38208, Note_on_c, 1, 55, 70
1, 38231, Note_on_c, 1, 59, 0
1, 38232, Note_on_c, 1, 62, 64
1, 38253, Note_on_c, 1, 55, 0
1, 38255, Note_on_c, 1, 62, 0
1, 38256, Note_on_c, 0, 76, 80
1, 38256, Note_on_c, 1, 59, 64
1, 38256, Note_on_c, 1, 55, 70
1, 38268, Note_on_c, 0, 76, 0
1, 38268, Note_on_c, 0, 74, 80
1, 38279, Note_on_c, 1, 59, 0
1, 38280, Note_on_c, 1, 62, 64
1, 38301, Note_on_c, 0, 74, 0
1, 38301, Note_on_c, 1, 55, 0
1, 38303, Note_on_c, 1, 62, 0
1, 38304, Note_on_c, 0, 72, 80
1, 38304, Note_on_c, 1, 59, 64
1, 38304, Note_on_c, 1, 55, 70
1, 38316, Note_on_c, 0, 72, 0
1, 38316, Note_on_c, 0, 71, 80
1, 38327, Note_on_c, 1, 59, 0
1, 38328, Note_on_c, 1, 62, 64
1, 38349, Note_on_c, 0, 71, 0
1, 38349, Note_on_c, 1, 55, 0
1, 38351, Note_on_c, 1, 62, 0
1, 38352, Note_on_c, 0, 69, 80
1, 38352, Note_on_c, 1, 59, 64
1, 38352, Note_on_c, 1, 55, 70
1, 38364, Note_on_c, 0, 69, 0
1, 38364, Note_on_c, 0, 67, 80
1, 38375, Note_on_c, 1, 59, 0
1, 38376, Note_on_c, 1, 62, 64
1, 38397, Note_on_c, 0, 67, 0
1, 38397, Note_on_c, 1, 55, 0
1, 38399, Note_on_c, 1, 62, 0
1, 38400, Note_on_c, 0, 66, 80
1, 38400, Note_on_c, 1, 60, 64
1, 38400, Note_on_c, 1, 55, 70
1, 38423, Note_on_c, 1, 60, 0
1, 38424, Note_on_c, 1, 62, 64
1, 38445, Note_on_c, 1, 55, 0
1, 38447, Note_on_c, 1, 62, 0
1, 38448, Note_on_c, 1, 60, 64
1, 38448, Note_on_c, 1, 55, 70
1, 38471, Note_on_c, 1, 60, 0
1, 38472, Note_on_c, 1, 62, 64
1, 38493, Note_on_c, 1, 55, 0
1, 38495, Note_on_c, 1, 62, 0
1, 38496, Note_on_c, 1, 60, 64
1, 38496, Note_on_c, 1, 55, 70
1, 38519, Note_on_c, 0, 66, 0
1, 38519, Note_on_c, 1, 60, 0
1, 38520, Note_on_c, 0, 67, 80
1, 38520, Note_on_c, 1, 62, 64
1, 38530, Note_on_c, 0, 67, 0
1, 38541, Note_on_c, 1, 55, 0
1, 38543, Note_on_c, 1, 62, 0
1, 38544, Note_on_c, 0, 69, 80
1, 38544, Note_on_c, 1, 60, 64
1, 38544, Note_on_c, 1, 55, 70
1, 38554, Note_on_c, 0, 69, 0
1, 38567, Note_on_c, 1, 60, 0
1, 38568, Note_on_c, 0, 71, 80
1, 38568, Note_on_c, 1, 62, 64
1, 38578, Note_on_c, 0, 71, 0
1, 38589, Note_on_c, 1, 55, 0
1, 38591, Note_on_c, 1, 62, 0
1, 38592, Note_on_c, 0, 72, 80
1, 38592, Note_on_c, 1, 60, 64
1, 38592, Note_on_c, 1, 55, 70
1, 38602, Note_on_c, 0, 72, 0
1, 38615, Note_on_c, 1, 60, 0
1, 38616, Note_on_c, 0, 74, 80
1, 38616, Note_on_c, 1, 62, 64
1, 38626, Note_on_c, 0, 74, 0
1, 38637, Note_on_c, 1, 55, 0
1, 38639, Note_on_c, 1, 62, 0
1, 38640, Note_on_c, 0, 76, 80
1, 38640, Note_on_c, 1, 60, 64
1, 38640, Note_on_c, 1, 55, 70
1, 38650, Note_on_c, 0, 76, 0
1, 38663, Note_on_c, 1, 60, 0
1, 38664, Note_on_c, 0, 78, 80
1, 38664, Note_on_c, 1, 62, 64
1, 38674, Note_on_c, 0, 78, 0
1, 38685, Note_on_c, 1, 55, 0
1, 38687, Note_on_c, 1, 62, 0
1, 38688, Note_on_c, 0, 79, 80
1, 38688, Note_on_c, 1, 60, 64
1, 38688, Note_on_c, 1, 55, 70
1, 38698, Note_on_c, 0, 79, 0
1, 38711, Note_on_c, 1, 60, 0
1, 38712, Note_on_c, 0, 81, 80
1, 38712, Note_on_c, 1, 62, 64
1, 38722, Note_on_c, 0, 81, 0
1, 38733, Note_on_c, 1, 55, 0
1, 38735, Note_on_c, 1, 62, 0
1, 38736, Note_on_c, 0, 83, 80
1, 38736, Note_on_c, 1, 60, 64
1, 38736, Note_on_c, 1, 55, 70
1, 38746, Note_on_c, 0, 83, 0
1, 38759, Note_on_c, 1, 60, 0
1, 38760, Note_on_c, 0, 84, 80
1, 38760, Note_on_c, 1, 62, 64
1, 38770, Note_on_c, 0, 84, 0
1, 38781, Note_on_c, 1, 55, 0
1, 38783, Note_on_c, 1, 62, 0
1, 38784, Note_on_c, 0, 86, 80
1, 38784, Note_on_c, 1, 59, 64
1, 38784, Note_on_c, 1, 55, 70
1, 38804, Note_on_c, 0, 86, 0
1, 38807, Note_on_c, 1, 59, 0
1, 38808, Note_on_c, 1, 62, 64
1, 38829, Note_on_c, 1, 55, 0
1, 38831, Note_on_c, 1, 62, 0
1, 38832, Note_on_c, 0, 83, 80
1, 38832, Note_on_c, 1, 59, 64
1, 38832, Note_on_c, 1, 55, 70
1, 38852, Note_on_c, 0, 83, 0
1, 38855, Note_on_c, 1, 59, 0
1, 38856, Note_on_c, 1, 62, 64
1, 38877, Note_on_c, 1, 55, 0
1, 38879, Note_on_c, 1, 62, 0
1, 38880, Note_on_c, 1, 59, 64
1, 38880, Note_on_c, 1, 55, 70
1, 38903, Note_on_c, 1, 59, 0
1, 38904, Note_on_c, 1, 62, 64
1, 38925, Note_on_c, 1, 55, 0
1, 38927, Note_on_c, 1, 62, 0
1, 38928, Note_on_c, 0, 79, 75
1, 38928, Note_on_c, 1, 59, 64
1, 38928, Note_on_c, 1, 55, 70
1, 38948, Note_on_c, 0, 79, 0
1, 38951, Note_on_c, 1, 59, 0
1, 38952, Note_on_c, 1, 62, 64
1, 38973, Note_on_c, 1, 55, 0
1, 38975, Note_on_c, 1, 62, 0
1, 38976, Note_on_c, 1, 59, 64
1, 38976, Note_on_c, 1, 55, 70
1, 38999, Note_on_c, 1, 59, 0
1, 39000, Note_on_c, 1, 62, 64
1, 39021, Note_on_c, 1, 55, 0
1, 39023, Note_on_c, 1, 62, 0
1, 39024, Note_on_c, 0, 76, 75
1, 39024, Note_on_c, 1, 59, 64
1, 39024, Note_on_c, 1, 55, 70
1, 39036, Note_on_c, 0, 76, 0
1, 39036, Note_on_c, 0, 74, 75
1, 39047, Note_on_c, 1, 59, 0
1, 39048, Note_on_c, 1, 62, 64
1, 39069, Note_on_c, 0, 74, 0
1, 39069, Note_on_c, 1, 55, 0
1, 39071, Note_on_c, 1, 62, 0
1, 39072, Note_on_c, 0, 72, 75
1, 39072, Note_on_c, 1, 59, 64
1, 39072, Note_on_c, 1, 55, 70
1, 39084, Note_on_c, 0, 72, 0
1, 39084, Note_on_c, 0, 71, 75
1, 39095, Note_on_c, 1, 59, 0
1, 39096, Note_on_c, 1, 62, 64
1, 39117, Note_on_c, 0, 71, 0
1, 39117, Note_on_c, 1, 55, 0
1, 39119, Note_on_c, 1, 62, 0
1, 39120, Note_on_c, 0, 69, 75
1, 39120, Note_on_c, 1, 59, 64
1, 39120, Note_on_c, 1, 55, 70
1, 39132, Note_on_c, 0, 69, 0
1, 39132, Note_on_c, 0, 67, 75
1, 39143, Note_on_c, 1, 59, 0
1, 39144, Note_on_c, 1, 62, 64
1, 39165, Note_on_c, 0, 67, 0
1, 39165, Note_on_c, 1, 55, 0
1, 39167, Note_on_c, 1, 62, 0
1, 39168, Note_on_c, 0, 66, 75
1, 39168, Note_on_c, 1, 60, 64
1, 39168, Note_on_c, 1, 55, 70
1, 39191, Note_on_c, 1, 60, 0
1, 39192, Note_on_c, 1, 62, 64
1, 39213, Note_on_c, 1, 55, 0
1, 39215, Note_on_c, 1, 62, 0
1, 39216, Note_on_c, 1, 60, 64
1, 39216, Note_on_c, 1, 55, 70
1, 39239, Note_on_c, 1, 60, 0
1, 39240, Note_on_c, 1, 62, 64
1, 39261, Note_on_c, 1, 55, 0
1, 39263, Note_on_c, 1, 62, 0
1, 39264, Note_on_c, 1, 60, 64
1, 39264, Note_on_c, 1, 55, 70
1, 39287, Note_on_c, 0, 66, 0
1, 39287, Note_on_c, 1, 60, 0
1, 39288, Note_on_c, 0, 83, 75
1, 39288, Note_on_c, 1, 62, 64
1, 39309, Note_on_c, 1, 55, 0
1, 39311, Note_on_c, 0, 83, 0
1, 39311, Note_on_c, 1, 62, 0
1, 39312, Note_on_c, 0, 81, 75
1, 39312, Note_on_c, 1, 60, 64
1, 39312, Note_on_c, 1, 55, 70
1, 39335, Note_on_c, 0, 81, 0
1, 39335, Note_on_c, 1, 60, 0
1, 39336, Note_on_c, 0, 79, 75
1, 39336, Note_on_c, 1, 62, 64
1, 39357, Note_on_c, 1, 55, 0
1, 39359, Note_on_c, 0, 79, 0
1, 39359, Note_on_c, 1, 62, 0
1, 39360, Note_on_c, 0, 78, 75
1, 39360, Note_on_c, 1, 60, 64
1, 39360, Note_on_c, 1, 55, 70
1, 39383, Note_on_c, 0, 78, 0
1, 39383, Note_on_c, 1, 60, 0
1, 39384, Note_on_c, 0, 76, 75
1, 39384, Note_on_c, 1, 62, 64
1, 39405, Note_on_c, 1, 55, 0
1, 39407, Note_on_c, 0, 76, 0
1, 39407, Note_on_c, 1, 62, 0
1, 39408, Note_on_c, 0, 74, 75
1, 39408, Note_on_c, 1, 60, 64
1, 39408, Note_on_c, 1, 55, 70
1, 39431, Note_on_c, 0, 74, 0
1, 39431, Note_on_c, 1, 60, 0
1, 39432, Note_on_c, 0, 72, 75
1, 39432, Note_on_c, 1, 62, 64
1, 39453, Note_on_c, 1, 55, 0
1, 39455, Note_on_c, 0, 72, 0
1, 39455, Note_on_c, 1, 62, 0
1, 39456, Note_on_c, 0, 71, 75
1, 39456, Note_on_c, 1, 60, 64
1, 39456, Note_on_c, 1, 55, 70
1, 39479, Note_on_c, 0, 71, 0
1, 39479, Note_on_c, 1, 60, 0
1, 39480, Note_on_c, 0, 69, 75
1, 39480, Note_on_c, 1, 62, 64
1, 39501, Note_on_c, 1, 55, 0
1, 39503, Note_on_c, 0, 69, 0
1, 39503, Note_on_c, 1, 62, 0
1, 39504, Note_on_c, 0, 67, 75
1, 39504, Note_on_c, 1, 60, 64
1, 39504, Note_on_c, 1, 55, 70
1, 39527, Note_on_c, 0, 67, 0
1, 39527, Note_on_c, 1, 60, 0
1, 39528, Note_on_c, 0, 66, 75
1, 39528, Note_on_c, 1, 62, 64
1, 39549, Note_on_c, 1, 55, 0
1, 39551, Note_on_c, 0, 66, 0
1, 39551, Note_on_c, 1, 62, 0
1, 39552, Note_on_c, 0, 67, 75
1, 39552, Note_on_c, 1, 59, 64
1, 39552, Note_on_c, 1, 55, 64
1, 39572, Note_on_c, 0, 67, 0
1, 39597, Note_on_c, 1, 59, 0
1, 39597, Note_on_c, 1, 55, 0
1, 39600, Note_on_c, 0, 69, 64
1, 39600, Note_on_c, 0, 66, 64
1, 39623, Note_on_c, 0, 66, 0
1, 39624, Note_on_c, 0, 62, 64
1, 39645, Note_on_c, 0, 69, 0
1, 39647, Note_on_c, 0, 62, 0
1, 39648, Note_on_c, 0, 71, 64
1, 39648, Note_on_c, 0, 67, 64
1, 39671, Note_on_c, 0, 67, 0
1, 39672, Note_on_c, 0, 62, 64
1, 39693, Note_on_c, 0, 71, 0
1, 39695, Note_on_c, 0, 62, 0
1, 39696, Note_on_c, 0, 72, 64
1, 39696, Note_on_c, 0, 69, 64
1, 39719, Note_on_c, 0, 69, 0
1, 39720, Note_on_c, 0, 62, 64
1, 39741, Note_on_c, 0, 72, 0
1, 39743, Note_on_c, 0, 62, 0
1, 39744, Note_on_c, 0, 74, 64
1, 39744, Note_on_c, 0, 71, 64
1, 39789, Note_on_c, 0, 74, 0
1, 39789, Note_on_c, 0, 71, 0
1, 39792, Note_on_c, 0, 69, 80
1, 39792, Note_on_c, 0, 64, 80
1, 39792, Note_on_c, 1, 48, 82
1, 39815, Note_on_c, 0, 64, 0
1, 39816, Note_on_c, 0, 60, 80
1, 39816, Note_on_c, 1, 48, 0
1, 39816, Note_on_c, 1, 45, 64
1, 39837, Note_on_c, 0, 69, 0
1, 39839, Note_on_c, 0, 60, 0
1, 39839, Note_on_c, 1, 45, 0
1, 39840, Note_on_c, 0, 67, 80
1, 39840, Note_on_c, 0, 62, 80
1, 39840, Note_on_c, 1, 50, 64
1, 39860, Note_on_c, 1, 50, 0
1, 39863, Note_on_c, 0, 62, 0
1, 39864, Note_on_c, 0, 59, 80
1, 39885, Note_on_c, 0, 67, 0
1, 39887, Note_on_c, 0, 59, 0
1, 39888, Note_on_c, 0, 66, 80
1, 39888, Note_on_c, 0, 60, 80
1, 39888, Note_on_c, 1, 50, 64
1, 39888, Note_on_c, 1, 38, 64
1, 39908, Note_on_c, 1, 50, 0
1, 39908, Note_on_c, 1, 38, 0
1, 39911, Note_on_c, 0, 60, 0
1, 39912, Note_on_c, 0, 57, 80
1, 39933, Note_on_c, 0, 66, 0
1, 39935, Note_on_c, 0, 57, 0
1, 39936, Note_on_c, 0, 67, 80
1, 39936, Note_on_c, 0, 59, 80
1, 39936, Note_on_c, 1, 43, 64
1, 39936, Note_on_c, 1, 31, 64
1, 39956, Note_on_c, 0, 59, 0
1, 39981, Note_on_c, 1, 43, 0
1, 39981, Note_on_c, 1, 31, 0
1, 39983, Note_on_c, 0, 67, 0
1, 39984, Note_on_c, 0, 69, 64
1, 39984, Note_on_c, 0, 66, 64
1, 40007, Note_on_c, 0, 66, 0
1, 40008, Note_on_c, 0, 62, 64
1, 40029, Note_on_c, 0, 69, 0
1, 40031, Note_on_c, 0, 62, 0
1, 40032, Note_on_c, 0, 71, 64
1, 40032, Note_on_c, 0, 67, 64
1, 40055, Note_on_c, 0, 67, 0
1, 40056, Note_on_c, 0, 62, 64
1, 40077, Note_on_c, 0, 71, 0
1, 40079, Note_on_c, 0, 62, 0
1, 40080, Note_on_c, 0, 72, 64
1, 40080, Note_on_c, 0, 69, 64
1, 40103, Note_on_c, 0, 69, 0
1, 40104, Note_on_c, 0, 62, 64
1, 40125, Note_on_c, 0, 72, 0
1, 40127, Note_on_c, 0, 62, 0
1, 40128, Note_on_c, 0, 74, 64
1, 40128, Note_on_c, 0, 71, 64
1, 40173, Note_on_c, 0, 74, 0
1, 40173, Note_on_c, 0, 71, 0
1, 40176, Note_on_c, 0, 69, 80
1, 40176, Note_on_c, 0, 64, 80
1, 40176, Note_on_c, 1, 48, 82
1, 40199, Note_on_c, 0, 64, 0
1, 40200, Note_on_c, 0, 60, 80
1, 40200, Note_on_c, 1, 48, 0
1, 40200, Note_on_c, 1, 45, 64
1, 40221, Note_on_c, 0, 69, 0
1, 40223, Note_on_c, 0, 60, 0
1, 40223, Note_on_c, 1, 45, 0
1, 40224, Note_on_c, 0, 67, 80
1, 40224, Note_on_c, 0, 62, 80
1, 40224, Note_on_c, 1, 50, 64
1, 40244, Note_on_c, 1, 50, 0
1, 40247, Note_on_c, 0, 62, 0
1, 40248, Note_on_c, 0, 59, 80
1, 40269, Note_on_c, 0, 67, 0
1, 40271, Note_on_c, 0, 59, 0
1, 40272, Note_on_c, 0, 66, 80
1, 40272, Note_on_c, 0, 60, 80
1, 40272, Note_on_c, 1, 50, 64
1, 40272, Note_on_c, 1, 38, 64
1, 40292, Note_on_c, 1, 50, 0
1, 40292, Note_on_c, 1, 38, 0
1, 40295, Note_on_c, 0, 60, 0
1, 40296, Note_on_c, 0, 57, 80
1, 40317, Note_on_c, 0, 66, 0
1, 40319, Note_on_c, 0, 57, 0
1, 40320, Note_on_c, 0, 67, 80
1, 40320, Note_on_c, 1, 43, 64
1, 40320, Note_on_c, 1, 31, 64
1, 40340, Note_on_c, 0, 67, 0
1, 40365, Note_on_c, 1, 43, 0
1, 40365, Note_on_c, 1, 31, 0
1, 40416, Note_on_c, 0, 78, 80
1, 40416, Note_on_c, 0, 72, 80
1, 40416, Note_on_c, 0, 69, 80
1, 40416, Note_on_c, 1, 50, 64
1, 40416, Note_on_c, 1, 38, 64
1, 40461, Note_on_c, 0, 78, 0
1, 40461, Note_on_c, 0, 72, 0
1, 40461, Note_on_c, 0, 69, 0
1, 40461, Note_on_c, 1, 50, 0
1, 40461, Note_on_c, 1, 38, 0
1, 40512, Note_on_c, 0, 79, 80
1, 40512, Note_on_c, 0, 74, 80
1, 40512, Note_on_c, 0, 71, 80
1, 40512, Note_on_c, 1, 43, 64
1, 40512, Note_on_c, 1, 31, 64
1, 40557, Note_on_c, 0, 79, 0
1, 40557, Note_on_c, 0, 74, 0
1, 40557, Note_on_c, 0, 71, 0
1, 40557, Note_on_c, 1, 43, 0
1, 40557, Note_on_c, 1, 31, 0
1, 40704, Note_on_c, 1, 67, 64
1, 40724, Note_on_c, 1, 67, 0
1, 40728, Note_on_c, 0, 74, 64
1, 40738, Note_on_c, 0, 74, 0
1, 40752, Note_on_c, 0, 76, 64
1, 40762, Note_on_c, 0, 76, 0
1, 40776, Note_on_c, 0, 78, 64
1, 40786, Note_on_c, 0, 78, 0
1, 40800, Note_on_c, 0, 79, 64
1, 40800, Note_on_c, 1, 62, 64
1, 40810, Note_on_c, 0, 79, 0
1, 40820, Note_on_c, 1, 62, 0
1, 40824, Note_on_c, 0, 81, 64
1, 40834, Note_on_c, 0, 81, 0
1, 40848, Note_on_c, 0, 82, 64
1, 40858, Note_on_c, 0, 82, 0
1, 40872, Note_on_c, 0, 84, 64
1, 40882, Note_on_c, 0, 84, 0
1, 40896, Note_on_c, 0, 86, 64
1, 40896, Note_on_c, 1, 58, 64
1, 40906, Note_on_c, 0, 86, 0
1, 40920, Note_on_c, 0, 84, 64
1, 40930, Note_on_c, 0, 84, 0
1, 40944, Note_on_c, 0, 82, 64
1, 40954, Note_on_c, 0, 82, 0
1, 40968, Note_on_c, 0, 81, 64
1, 40978, Note_on_c, 0, 81, 0
1, 40985, Note_on_c, 1, 58, 0
1, 40992, Note_on_c, 0, 79, 64
1, 41015, Note_on_c, 0, 79, 0
1, 41016, Note_on_c, 0, 81, 64
1, 41039, Note_on_c, 0, 81, 0
1, 41040, Note_on_c, 0, 82, 64
1, 41040, Note_on_c, 1, 63, 64
1, 41063, Note_on_c, 0, 82, 0
1, 41064, Note_on_c, 0, 79, 64
1, 41087, Note_on_c, 0, 79, 0
1, 41088, Note_on_c, 0, 84, 64
1, 41088, Note_on_c, 1, 63, 0
1, 41088, Note_on_c, 1, 57, 64
1, 41098, Note_on_c, 0, 84, 0
1, 41112, Note_on_c, 0, 82, 64
1, 41122, Note_on_c, 0, 82, 0
1, 41136, Note_on_c, 0, 81, 64
1, 41146, Note_on_c, 0, 81, 0
1, 41160, Note_on_c, 0, 79, 64
1, 41170, Note_on_c, 0, 79, 0
1, 41177, Note_on_c, 1, 57, 0
1, 41184, Note_on_c, 0, 78, 64
1, 41207, Note_on_c, 0, 78, 0
1, 41208, Note_on_c, 0, 79, 64
1, 41231, Note_on_c, 0, 79, 0
1, 41232, Note_on_c, 0, 81, 64
1, 41232, Note_on_c, 1, 62, 64
1, 41255, Note_on_c, 0, 81, 0
1, 41256, Note_on_c, 0, 78, 64
1, 41279, Note_on_c, 0, 78, 0
1, 41280, Note_on_c, 0, 82, 64
1, 41280, Note_on_c, 1, 62, 0
1, 41280, Note_on_c, 1, 55, 64
1, 41303, Note_on_c, 0, 82, 0
1, 41304, Note_on_c, 0, 84, 64
1, 41327, Note_on_c, 0, 84, 0
1, 41328, Note_on_c, 0, 82, 64
1, 41351, Note_on_c, 0, 82, 0
1, 41352, Note_on_c, 0, 81, 64
1, 41369, Note_on_c, 1, 55, 0
1, 41375, Note_on_c, 0, 81, 0
1, 41376, Note_on_c, 0, 79, 64
1, 41376, Note_on_c, 1, 58, 64
1, 41386, Note_on_c, 0, 79, 0
1, 41400, Note_on_c, 0, 77, 64
1, 41410, Note_on_c, 0, 77, 0
1, 41424, Note_on_c, 0, 76, 64
1, 41434, Note_on_c, 0, 76, 0
1, 41448, Note_on_c, 0, 74, 64
1, 41458, Note_on_c, 0, 74, 0
1, 41465, Note_on_c, 1, 58, 0
1, 41472, Note_on_c, 0, 81, 64
1, 41472, Note_on_c, 0, 73, 64
1, 41492, Note_on_c, 0, 81, 0
1, 41492, Note_on_c, 0, 73, 0
1, 41496, Note_on_c, 1, 45, 65
1, 41519, Note_on_c, 1, 45, 0
1, 41520, Note_on_c, 1, 47, 66
1, 41543, Note_on_c, 1, 47, 0
1, 41544, Note_on_c, 1, 49, 68
1, 41567, Note_on_c, 1, 49, 0
1, 41568, Note_on_c, 0, 76, 67
1, 41568, Note_on_c, 0, 73, 67
1, 41568, Note_on_c, 1, 50, 69
1, 41588, Note_on_c, 0, 76, 0
1, 41588, Note_on_c, 0, 73, 0
1, 41591, Note_on_c, 1, 50, 0
1, 41592, Note_on_c, 1, 52, 70
1, 41615, Note_on_c, 1, 52, 0
1, 41616, Note_on_c, 1, 54, 72
1, 41639, Note_on_c, 1, 54, 0
1, 41640, Note_on_c, 1, 56, 73
1, 41663, Note_on_c, 1, 56, 0
1, 41664, Note_on_c, 0, 73, 71
1, 41664, Note_on_c, 0, 64, 71
1, 41664, Note_on_c, 1, 57, 75
1, 41687, Note_on_c, 1, 57, 0
1, 41688, Note_on_c, 1, 56, 73
1, 41711, Note_on_c, 1, 56, 0
1, 41712, Note_on_c, 1, 57, 72
1, 41735, Note_on_c, 1, 57, 0
1, 41736, Note_on_c, 1, 58, 70
1, 41753, Note_on_c, 0, 73, 0
1, 41753, Note_on_c, 0, 64, 0
1, 41759, Note_on_c, 1, 58, 0
1, 41760, Note_on_c, 1, 57, 69
1, 41783, Note_on_c, 1, 57, 0
1, 41784, Note_on_c, 1, 55, 68
1, 41807, Note_on_c, 1, 55, 0
1, 41808, Note_on_c, 0, 69, 64
1, 41808, Note_on_c, 1, 53, 66
1, 41831, Note_on_c, 1, 53, 0
1, 41832, Note_on_c, 1, 52, 65
1, 41853, Note_on_c, 0, 69, 0
1, 41855, Note_on_c, 1, 52, 0
1, 41856, Note_on_c, 0, 81, 64
1, 41856, Note_on_c, 1, 53, 64
1, 41879, Note_on_c, 0, 81, 0
1, 41880, Note_on_c, 0, 80, 68
1, 41903, Note_on_c, 0, 80, 0
1, 41904, Note_on_c, 0, 81, 72
1, 41927, Note_on_c, 0, 81, 0
1, 41928, Note_on_c, 0, 82, 76
1, 41945, Note_on_c, 1, 53, 0
1, 41951, Note_on_c, 0, 82, 0
1, 41952, Note_on_c, 0, 81, 80
1, 41975, Note_on_c, 0, 81, 0
1, 41976, Note_on_c, 0, 79, 76
1, 41999, Note_on_c, 0, 79, 0
1, 42000, Note_on_c, 0, 77, 72
1, 42000, Note_on_c, 1, 57, 64
1, 42023, Note_on_c, 0, 77, 0
1, 42024, Note_on_c, 0, 76, 68
1, 42045, Note_on_c, 1, 57, 0
1, 42047, Note_on_c, 0, 76, 0
1, 42048, Note_on_c, 0, 77, 64
1, 42048, Note_on_c, 1, 69, 64
1, 42071, Note_on_c, 0, 77, 0
1, 42071, Note_on_c, 1, 69, 0
1, 42072, Note_on_c, 0, 76, 68
1, 42072, Note_on_c, 1, 68, 68
1, 42095, Note_on_c, 0, 76, 0
1, 42095, Note_on_c, 1, 68, 0
1, 42096, Note_on_c, 0, 77, 72
1, 42096, Note_on_c, 1, 69, 72
1, 42119, Note_on_c, 0, 77, 0
1, 42119, Note_on_c, 1, 69, 0
1, 42120, Note_on_c, 0, 79, 76
1, 42120, Note_on_c, 1, 70, 76
1, 42143, Note_on_c, 0, 79, 0
1, 42143, Note_on_c, 1, 70, 0
1, 42144, Note_on_c, 0, 77, 80
1, 42144, Note_on_c, 1, 69, 80
1, 42167, Note_on_c, 0, 77, 0
1, 42167, Note_on_c, 1, 69, 0
1, 42168, Note_on_c, 0, 76, 76
1, 42168, Note_on_c, 1, 67, 76
1, 42191, Note_on_c, 0, 76, 0
1, 42191, Note_on_c, 1, 67, 0
1, 42192, Note_on_c, 0, 74, 72
1, 42192, Note_on_c, 1, 65, 72
1, 42215, Note_on_c, 0, 74, 0
1, 42215, Note_on_c, 1, 65, 0
1, 42216, Note_on_c, 0, 73, 68
1, 42216, Note_on_c, 1, 64, 68
1, 42239, Note_on_c, 0, 73, 0
1, 42239, Note_on_c, 1, 64, 0
1, 42240, Note_on_c, 0, 74, 64
1, 42240, Note_on_c, 0, 69, 64
1, 42240, Note_on_c, 1, 65, 64
1, 42263, Note_on_c, 0, 69, 0
1, 42264, Note_on_c, 0, 68, 69
1, 42287, Note_on_c, 0, 68, 0
1, 42288, Note_on_c, 0, 69, 74
1, 42311, Note_on_c, 0, 69, 0
1, 42312, Note_on_c, 0, 70, 80
1, 42329, Note_on_c, 0, 74, 0
1, 42329, Note_on_c, 1, 65, 0
1, 42335, Note_on_c, 0, 70, 0
1, 42336, Note_on_c, 0, 69, 76
1, 42359, Note_on_c, 0, 69, 0
1, 42360, Note_on_c, 0, 67, 73
1, 42383, Note_on_c, 0, 67, 0
1, 42384, Note_on_c, 0, 65, 70
1, 42384, Note_on_c, 1, 61, 64
1, 42407, Note_on_c, 0, 65, 0
1, 42408, Note_on_c, 0, 64, 67
1, 42429, Note_on_c, 1, 61, 0
1, 42431, Note_on_c, 0, 64, 0
1, 42432, Note_on_c, 0, 65, 64
1, 42432, Note_on_c, 1, 62, 64
1, 42455, Note_on_c, 1, 62, 0
1, 42456, Note_on_c, 1, 61, 68
1, 42479, Note_on_c, 1, 61, 0
1, 42480, Note_on_c, 1, 62, 72
1, 42503, Note_on_c, 1, 62, 0
1, 42504, Note_on_c, 1, 57, 76
1, 42527, Note_on_c, 1, 57, 0
1, 42528, Note_on_c, 0, 65, 0
1, 42528, Note_on_c, 0, 66, 64
1, 42528, Note_on_c, 1, 60, 80
1, 42551, Note_on_c, 1, 60, 0
1, 42552, Note_on_c, 1, 59, 76
1, 42575, Note_on_c, 1, 59, 0
1, 42576, Note_on_c, 1, 60, 72
1, 42599, Note_on_c, 1, 60, 0
1, 42600, Note_on_c, 1, 57, 68
1, 42617, Note_on_c, 0, 66, 0
1, 42623, Note_on_c, 1, 57, 0
1, 42624, Note_on_c, 0, 74, 64
1, 42624, Note_on_c, 0, 67, 64
1, 42624, Note_on_c, 1, 58, 64
1, 42647, Note_on_c, 0, 74, 0
1, 42648, Note_on_c, 0, 73, 68
1, 42671, Note_on_c, 0, 73, 0
1, 42672, Note_on_c, 0, 74, 72
1, 42672, Note_on_c, 1, 58, 0
1, 42672, Note_on_c, 1, 55, 62
1, 42695, Note_on_c, 0, 74, 0
1, 42696, Note_on_c, 0, 70, 76
1, 42713, Note_on_c, 0, 67, 0
1, 42717, Note_on_c, 1, 55, 0
1, 42719, Note_on_c, 0, 70, 0
1, 42720, Note_on_c, 0, 72, 80
1, 42720, Note_on_c, 0, 62, 64
1, 42720, Note_on_c, 1, 57, 61
1, 42743, Note_on_c, 0, 72, 0
1, 42744, Note_on_c, 0, 71, 76
1, 42767, Note_on_c, 0, 71, 0
1, 42768, Note_on_c, 0, 72, 72
1, 42768, Note_on_c, 1, 57, 0
1, 42768, Note_on_c, 1, 54, 59
1, 42791, Note_on_c, 0, 72, 0
1, 42792, Note_on_c, 0, 69, 68
1, 42809, Note_on_c, 0, 62, 0
1, 42813, Note_on_c, 1, 54, 0
1, 42815, Note_on_c, 0, 69, 0
1, 42816, Note_on_c, 0, 70, 64
1, 42816, Note_on_c, 1, 58, 58
1, 42816, Note_on_c, 1, 55, 58
1, 42839, Note_on_c, 0, 70, 0
1, 42840, Note_on_c, 0, 62, 64
1, 42863, Note_on_c, 0, 62, 0
1, 42864, Note_on_c, 0, 64, 65
1, 42887, Note_on_c, 0, 64, 0
1, 42888, Note_on_c, 0, 66, 66
1, 42905, Note_on_c, 1, 58, 0
1, 42905, Note_on_c, 1, 55, 0
1, 42911, Note_on_c, 0, 66, 0
1, 42912, Note_on_c, 0, 67, 67
1, 42912, Note_on_c, 1, 57, 58
1, 42912, Note_on_c, 1, 53, 58
1, 42935, Note_on_c, 0, 67, 0
1, 42936, Note_on_c, 0, 69, 68
1, 42959, Note_on_c, 0, 69, 0
1, 42960, Note_on_c, 0, 70, 69
1, 42983, Note_on_c, 0, 70, 0
1, 42984, Note_on_c, 0, 72, 70
1, 43001, Note_on_c, 1, 57, 0
1, 43001, Note_on_c, 1, 53, 0
1, 43007, Note_on_c, 0, 72, 0
1, 43008, Note_on_c, 0, 74, 71
1, 43008, Note_on_c, 1, 55, 58
1, 43008, Note_on_c, 1, 52, 58
1, 43031, Note_on_c, 0, 74, 0
1, 43032, Note_on_c, 0, 72, 72
1, 43055, Note_on_c, 0, 72, 0
1, 43056, Note_on_c, 0, 79, 73
1, 43079, Note_on_c, 0, 79, 0
1, 43080, Note_on_c, 0, 77, 74
1, 43103, Note_on_c, 0, 77, 0
1, 43104, Note_on_c, 0, 76, 75
1, 43127, Note_on_c, 0, 76, 0
1, 43128, Note_on_c, 0, 74, 76
1, 43151, Note_on_c, 0, 74, 0
1, 43152, Note_on_c, 0, 72, 77
1, 43175, Note_on_c, 0, 72, 0
1, 43176, Note_on_c, 0, 70, 78
1, 43185, Note_on_c, 1, 55, 0
1, 43185, Note_on_c, 1, 52, 0
1, 43199, Note_on_c, 0, 70, 0
1, 43200, Note_on_c, 0, 69, 80
1, 43200, Note_on_c, 1, 53, 80
1, 43200, Note_on_c, 1, 41, 80
1, 43223, Note_on_c, 0, 69, 0
1, 43224, Note_on_c, 0, 65, 80
1, 43247, Note_on_c, 0, 65, 0
1, 43248, Note_on_c, 0, 67, 80
1, 43260, Note_on_c, 0, 67, 0
1, 43260, Note_on_c, 0, 65, 80
1, 43272, Note_on_c, 0, 65, 0
1, 43272, Note_on_c, 0, 64, 80
1, 43284, Note_on_c, 0, 64, 0
1, 43284, Note_on_c, 0, 65, 80
1, 43289, Note_on_c, 1, 53, 0
1, 43289, Note_on_c, 1, 41, 0
1, 43296, Note_on_c, 0, 65, 0
1, 43296, Note_on_c, 1, 48, 80
1, 43296, Note_on_c, 1, 36, 80
1, 43320, Note_on_c, 0, 69, 80
1, 43343, Note_on_c, 0, 69, 0
1, 43344, Note_on_c, 0, 70, 80
1, 43356, Note_on_c, 0, 70, 0
1, 43356, Note_on_c, 0, 69, 80
1, 43368, Note_on_c, 0, 69, 0
1, 43368, Note_on_c, 0, 67, 80
1, 43380, Note_on_c, 0, 67, 0
1, 43380, Note_on_c, 0, 69, 80
1, 43385, Note_on_c, 1, 48, 0
1, 43385, Note_on_c, 1, 36, 0
1, 43392, Note_on_c, 0, 69, 0
1, 43392, Note_on_c, 1, 45, 80
1, 43392, Note_on_c, 1, 33, 80
1, 43416, Note_on_c, 0, 72, 80
1, 43439, Note_on_c, 0, 72, 0
1, 43440, Note_on_c, 0, 74, 80
1, 43452, Note_on_c, 0, 74, 0
1, 43452, Note_on_c, 0, 72, 80
1, 43464, Note_on_c, 0, 72, 0
1, 43464, Note_on_c, 0, 70, 80
1, 43476, Note_on_c, 0, 70, 0
1, 43476, Note_on_c, 0, 72, 80
1, 43481, Note_on_c, 1, 45, 0
1, 43481, Note_on_c, 1, 33, 0
1, 43488, Note_on_c, 0, 72, 0
1, 43488, Note_on_c, 0, 77, 80
1, 43536, Note_on_c, 1, 50, 80
1, 43536, Note_on_c, 1, 38, 80
1, 43581, Note_on_c, 1, 50, 0
1, 43581, Note_on_c, 1, 38, 0
1, 43584, Note_on_c, 1, 43, 80
1, 43584, Note_on_c, 1, 31, 80
1, 43629, Note_on_c, 0, 77, 0
1, 43632, Note_on_c, 0, 76, 80
1, 43644, Note_on_c, 0, 76, 0
1, 43644, Note_on_c, 0, 77, 80
1, 43656, Note_on_c, 0, 77, 0
1, 43656, Note_on_c, 0, 79, 80
1, 43668, Note_on_c, 0, 79, 0
1, 43668, Note_on_c, 0, 81, 80
1, 43673, Note_on_c, 1, 43, 0
1, 43673, Note_on_c, 1, 31, 0
1, 43680, Note_on_c, 0, 81, 0
1, 43680, Note_on_c, 0, 82, 80
1, 43728, Note_on_c, 1, 48, 80
1, 43728, Note_on_c, 1, 36, 80
1, 43773, Note_on_c, 1, 48, 0
1, 43773, Note_on_c, 1, 36, 0
1, 43776, Note_on_c, 1, 41, 80
1, 43776, Note_on_c, 1, 29, 80
1, 43821, Note_on_c, 0, 82, 0
1, 43821, Note_on_c, 1, 41, 0
1, 43821, Note_on_c, 1, 29, 0
1, 43824, Note_on_c, 0, 81, 80
1, 43836, Note_on_c, 0, 81, 0
1, 43836, Note_on_c, 0, 79, 80
1, 43848, Note_on_c, 0, 79, 0
1, 43848, Note_on_c, 0, 81, 80
1, 43860, Note_on_c, 0, 81, 0
1, 43860, Note_on_c, 0, 82, 80
1, 43872, Note_on_c, 0, 82, 0
1, 43872, Note_on_c, 0, 84, 80
1, 43920, Note_on_c, 1, 69, 64
1, 43968, Note_on_c, 1, 69, 0
1, 43968, Note_on_c, 1, 58, 64
1, 43991, Note_on_c, 0, 84, 0
1, 43992, Note_on_c, 0, 85, 64
1, 44015, Note_on_c, 0, 85, 0
1, 44016, Note_on_c, 0, 86, 64
1, 44039, Note_on_c, 0, 86, 0
1, 44040, Note_on_c, 0, 78, 64
1, 44057, Note_on_c, 1, 58, 0
1, 44063, Note_on_c, 0, 78, 0
1, 44064, Note_on_c, 0, 79, 64
1, 44087, Note_on_c, 0, 79, 0
1, 44088, Note_on_c, 0, 81, 64
1, 44111, Note_on_c, 0, 81, 0
1, 44112, Note_on_c, 0, 82, 64
1, 44112, Note_on_c, 1, 67, 64
1, 44160, Note_on_c, 1, 67, 0
1, 44160, Note_on_c, 1, 57, 64
1, 44183, Note_on_c, 0, 82, 0
1, 44184, Note_on_c, 0, 83, 64
1, 44207, Note_on_c, 0, 83, 0
1, 44208, Note_on_c, 0, 84, 64
1, 44231, Note_on_c, 0, 84, 0
1, 44232, Note_on_c, 0, 76, 64
1, 44249, Note_on_c, 1, 57, 0
1, 44255, Note_on_c, 0, 76, 0
1, 44256, Note_on_c, 0, 77, 64
1, 44279, Note_on_c, 0, 77, 0
1, 44280, Note_on_c, 0, 79, 65
1, 44303, Note_on_c, 0, 79, 0
1, 44304, Note_on_c, 0, 81, 66
1, 44304, Note_on_c, 1, 65, 64
1, 44352, Note_on_c, 1, 65, 0
1, 44352, Note_on_c, 1, 55, 64
1, 44375, Note_on_c, 0, 81, 0
1, 44376, Note_on_c, 0, 84, 69
1, 44399, Note_on_c, 0, 84, 0
1, 44400, Note_on_c, 0, 82, 70
1, 44423, Note_on_c, 0, 82, 0
1, 44424, Note_on_c, 0, 79, 72
1, 44441, Note_on_c, 1, 55, 0
1, 44447, Note_on_c, 0, 79, 0
1, 44448, Note_on_c, 0, 76, 73
1, 44448, Note_on_c, 1, 60, 70
1, 44471, Note_on_c, 0, 76, 0
1, 44472, Note_on_c, 0, 72, 74
1, 44495, Note_on_c, 0, 72, 0
1, 44496, Note_on_c, 0, 70, 75
1, 44519, Note_on_c, 0, 70, 0
1, 44520, Note_on_c, 0, 67, 76
1, 44537, Note_on_c, 1, 60, 0
1, 44543, Note_on_c, 0, 67, 0
1, 44544, Note_on_c, 0, 69, 77
1, 44544, Note_on_c, 1, 57, 64
1, 44544, Note_on_c, 1, 53, 70
1, 44564, Note_on_c, 0, 69, 0
1, 44567, Note_on_c, 1, 57, 0
1, 44568, Note_on_c, 1, 60, 64
1, 44589, Note_on_c, 1, 53, 0
1, 44591, Note_on_c, 1, 60, 0
1, 44592, Note_on_c, 0, 69, 80
1, 44592, Note_on_c, 1, 57, 64
1, 44592, Note_on_c, 1, 53, 70
1, 44612, Note_on_c, 0, 69, 0
1, 44615, Note_on_c, 1, 57, 0
1, 44616, Note_on_c, 1, 60, 64
1, 44637, Note_on_c, 1, 53, 0
1, 44639, Note_on_c, 1, 60, 0
1, 44640, Note_on_c, 1, 57, 64
1, 44640, Note_on_c, 1, 53, 70
1, 44663, Note_on_c, 1, 57, 0
1, 44664, Note_on_c, 0, 72, 80
1, 44664, Note_on_c, 1, 60, 64
1, 44674, Note_on_c, 0, 72, 0
1, 44685, Note_on_c, 1, 53, 0
1, 44687, Note_on_c, 1, 60, 0
1, 44688, Note_on_c, 0, 74, 80
1, 44688, Note_on_c, 1, 57, 64
1, 44688, Note_on_c, 1, 53, 70
1, 44700, Note_on_c, 0, 74, 0
1, 44700, Note_on_c, 0, 72, 80
1, 44711, Note_on_c, 1, 57, 0
1, 44712, Note_on_c, 0, 72, 0
1, 44712, Note_on_c, 0, 71, 80
1, 44712, Note_on_c, 1, 60, 64
1, 44724, Note_on_c, 0, 71, 0
1, 44724, Note_on_c, 0, 72, 80
1, 44733, Note_on_c, 1, 53, 0
1, 44735, Note_on_c, 1, 60, 0
1, 44736, Note_on_c, 0, 72, 0
1, 44736, Note_on_c, 0, 64, 80
1, 44736, Note_on_c, 1, 58, 64
1, 44736, Note_on_c, 1, 53, 70
1, 44756, Note_on_c, 0, 64, 0
1, 44759, Note_on_c, 1, 58, 0
1, 44760, Note_on_c, 1, 60, 64
1, 44781, Note_on_c, 1, 53, 0
1, 44783, Note_on_c, 1, 60, 0
1, 44784, Note_on_c, 0, 64, 80
1, 44784, Note_on_c, 1, 58, 64
1, 44784, Note_on_c, 1, 53, 70
1, 44804, Note_on_c, 0, 64, 0
1, 44807, Note_on_c, 1, 58, 0
1, 44808, Note_on_c, 1, 60, 64
1, 44829, Note_on_c, 1, 53, 0
1, 44831, Note_on_c, 1, 60, 0
1, 44832, Note_on_c, 1, 58, 64
1, 44832, Note_on_c, 1, 53, 70
1, 44855, Note_on_c, 1, 58, 0
1, 44856, Note_on_c, 0, 72, 80
1, 44856, Note_on_c, 1, 60, 64
1, 44866, Note_on_c, 0, 72, 0
1, 44877, Note_on_c, 1, 53, 0
1, 44879, Note_on_c, 1, 60, 0
1, 44880, Note_on_c, 0, 74, 80
1, 44880, Note_on_c, 1, 58, 64
1, 44880, Note_on_c, 1, 53, 70
1, 44892, Note_on_c, 0, 74, 0
1, 44892, Note_on_c, 0, 72, 80
1, 44903, Note_on_c, 1, 58, 0
1, 44904, Note_on_c, 0, 72, 0
1, 44904, Note_on_c, 0, 71, 80
1, 44904, Note_on_c, 1, 60, 64
1, 44916, Note_on_c, 0, 71, 0
1, 44916, Note_on_c, 0, 72, 80
1, 44925, Note_on_c, 1, 53, 0
1, 44927, Note_on_c, 1, 60, 0
1, 44928, Note_on_c, 0, 72, 0
1, 44928, Note_on_c, 0, 77, 80
1, 44928, Note_on_c, 1, 57, 64
1, 44928, Note_on_c, 1, 53, 70
1, 44951, Note_on_c, 1, 57, 0
1, 44952, Note_on_c, 1, 60, 64
1, 44973, Note_on_c, 1, 53, 0
1, 44975, Note_on_c, 1, 60, 0
1, 44976, Note_on_c, 0, 77, 0
1, 44976, Note_on_c, 0, 81, 80
1, 44976, Note_on_c, 1, 57, 64
1, 44976, Note_on_c, 1, 53, 70
1, 44999, Note_on_c, 1, 57, 0
1, 45000, Note_on_c, 1, 60, 64
1, 45021, Note_on_c, 0, 81, 0
1, 45021, Note_on_c, 1, 53, 0
1, 45023, Note_on_c, 1, 60, 0
1, 45024, Note_on_c, 1, 57, 64
1, 45024, Note_on_c, 1, 53, 70
1, 45047, Note_on_c, 1, 57, 0
1, 45048, Note_on_c, 0, 84, 80
1, 45048, Note_on_c, 1, 60, 64
1, 45058, Note_on_c, 0, 84, 0
1, 45069, Note_on_c, 1, 53, 0
1, 45071, Note_on_c, 1, 60, 0
1, 45072, Note_on_c, 0, 86, 80
1, 45072, Note_on_c, 1, 57, 64
1, 45072, Note_on_c, 1, 53, 70
1, 45084, Note_on_c, 0, 86, 0
1, 45084, Note_on_c, 0, 84, 80
1, 45095, Note_on_c, 1, 57, 0
1, 45096, Note_on_c, 0, 84, 0
1, 45096, Note_on_c, 0, 83, 80
1, 45096, Note_on_c, 1, 60, 64
1, 45108, Note_on_c, 0, 83, 0
1, 45108, Note_on_c, 0, 84, 80
1, 45117, Note_on_c, 1, 53, 0
1, 45119, Note_on_c, 1, 60, 0
1, 45120, Note_on_c, 0, 84, 0
1, 45120, Note_on_c, 0, 76, 80
1, 45120, Note_on_c, 1, 58, 64
1, 45120, Note_on_c, 1, 53, 70
1, 45140, Note_on_c, 0, 76, 0
1, 45143, Note_on_c, 1, 58, 0
1, 45144, Note_on_c, 1, 60, 65
1, 45165, Note_on_c, 1, 53, 0
1, 45167, Note_on_c, 1, 60, 0
1, 45168, Note_on_c, 0, 76, 80
1, 45168, Note_on_c, 1, 58, 66
1, 45168, Note_on_c, 1, 53, 70
1, 45188, Note_on_c, 0, 76, 0
1, 45191, Note_on_c, 1, 58, 0
1, 45192, Note_on_c, 1, 60, 67
1, 45213, Note_on_c, 1, 53, 0
1, 45215, Note_on_c, 1, 60, 0
1, 45216, Note_on_c, 1, 58, 68
1, 45216, Note_on_c, 1, 53, 70
1, 45239, Note_on_c, 1, 58, 0
1, 45240, Note_on_c, 0, 84, 81
1, 45240, Note_on_c, 1, 60, 70
1, 45250, Note_on_c, 0, 84, 0
1, 45261, Note_on_c, 1, 53, 0
1, 45263, Note_on_c, 1, 60, 0
1, 45264, Note_on_c, 0, 86, 81
1, 45264, Note_on_c, 1, 58, 71
1, 45264, Note_on_c, 1, 53, 70
1, 45276, Note_on_c, 0, 86, 0
1, 45276, Note_on_c, 0, 84, 81
1, 45287, Note_on_c, 1, 58, 0
1, 45288, Note_on_c, 0, 84, 0
1, 45288, Note_on_c, 0, 83, 81
1, 45288, Note_on_c, 1, 60, 72
1, 45300, Note_on_c, 0, 83, 0
1, 45300, Note_on_c, 0, 84, 81
1, 45309, Note_on_c, 1, 53, 0
1, 45311, Note_on_c, 1, 60, 0
1, 45312, Note_on_c, 0, 84, 0
1, 45312, Note_on_c, 0, 80, 82
1, 45312, Note_on_c, 1, 53, 73
1, 45335, Note_on_c, 1, 53, 0
1, 45336, Note_on_c, 1, 60, 75
1, 45359, Note_on_c, 1, 60, 0
1, 45360, Note_on_c, 1, 53, 75
1, 45383, Note_on_c, 1, 53, 0
1, 45384, Note_on_c, 1, 60, 75
1, 45407, Note_on_c, 1, 60, 0
1, 45408, Note_on_c, 1, 53, 75
1, 45431, Note_on_c, 1, 53, 0
1, 45432, Note_on_c, 1, 60, 75
1, 45455, Note_on_c, 1, 60, 0
1, 45456, Note_on_c, 1, 53, 75
1, 45479, Note_on_c, 1, 53, 0
1, 45480, Note_on_c, 1, 60, 75
1, 45489, Note_on_c, 0, 80, 0
1, 45503, Note_on_c, 1, 60, 0
1, 45504, Note_on_c, 0, 89, 100
1, 45504, Note_on_c, 1, 53, 75
1, 45527, Note_on_c, 1, 53, 0
1, 45528, Note_on_c, 1, 61, 75
1, 45551, Note_on_c, 1, 61, 0
1, 45552, Note_on_c, 1, 53, 75
1, 45575, Note_on_c, 1, 53, 0
1, 45576, Note_on_c, 1, 61, 75
1, 45599, Note_on_c, 1, 61, 0
1, 45600, Note_on_c, 1, 53, 75
1, 45623, Note_on_c, 1, 53, 0
1, 45624, Note_on_c, 1, 61, 75
1, 45647, Note_on_c, 1, 61, 0
1, 45648, Note_on_c, 1, 53, 75
1, 45671, Note_on_c, 1, 53, 0
1, 45672, Note_on_c, 1, 61, 75
1, 45691, Note_on_c, 0, 89, 0
1, 45695, Note_on_c, 1, 61, 0
1, 45696, Note_on_c, 0, 79, 86
1, 45696, Note_on_c, 1, 51, 75
1, 45719, Note_on_c, 1, 51, 0
1, 45720, Note_on_c, 1, 61, 74
1, 45741, Note_on_c, 0, 79, 0
1, 45743, Note_on_c, 1, 61, 0
1, 45744, Note_on_c, 0, 89, 85
1, 45744, Note_on_c, 1, 51, 74
1, 45767, Note_on_c, 1, 51, 0
1, 45768, Note_on_c, 1, 61, 74
1, 45791, Note_on_c, 0, 89, 0
1, 45791, Note_on_c, 1, 61, 0
1, 45792, Note_on_c, 0, 87, 84
1, 45792, Note_on_c, 1, 51, 73
1, 45815, Note_on_c, 1, 51, 0
1, 45816, Note_on_c, 1, 60, 73
1, 45837, Note_on_c, 0, 87, 0
1, 45839, Note_on_c, 1, 60, 0
1, 45840, Note_on_c, 0, 80, 83
1, 45840, Note_on_c, 1, 51, 73
1, 45863, Note_on_c, 1, 51, 0
1, 45864, Note_on_c, 1, 60, 72
1, 45885, Note_on_c, 0, 80, 0
1, 45887, Note_on_c, 1, 60, 0
1, 45888, Note_on_c, 0, 79, 83
1, 45888, Note_on_c, 1, 51, 72
1, 45911, Note_on_c, 1, 51, 0
1, 45912, Note_on_c, 1, 58, 72
1, 45933, Note_on_c, 0, 79, 0
1, 45935, Note_on_c, 1, 58, 0
1, 45936, Note_on_c, 0, 85, 82
1, 45936, Note_on_c, 1, 51, 71
1, 45959, Note_on_c, 1, 51, 0
1, 45960, Note_on_c, 1, 58, 71
1, 45981, Note_on_c, 0, 85, 0
1, 45983, Note_on_c, 1, 58, 0
1, 45984, Note_on_c, 0, 84, 81
1, 45984, Note_on_c, 1, 51, 71
1, 46007, Note_on_c, 1, 51, 0
1, 46008, Note_on_c, 1, 56, 70
1, 46029, Note_on_c, 0, 84, 0
1, 46031, Note_on_c, 1, 56, 0
1, 46032, Note_on_c, 0, 80, 80
1, 46032, Note_on_c, 1, 51, 70
1, 46055, Note_on_c, 1, 51, 0
1, 46056, Note_on_c, 1, 56, 70
1, 46077, Note_on_c, 0, 80, 0
1, 46079, Note_on_c, 1, 56, 0
1, 46080, Note_on_c, 0, 79, 80
1, 46080, Note_on_c, 1, 51, 70
1, 46103, Note_on_c, 1, 51, 0
1, 46104, Note_on_c, 1, 61, 70
1, 46125, Note_on_c, 0, 79, 0
1, 46127, Note_on_c, 1, 61, 0
1, 46128, Note_on_c, 0, 89, 80
1, 46128, Note_on_c, 1, 51, 70
1, 46151, Note_on_c, 1, 51, 0
1, 46152, Note_on_c, 1, 61, 69
1, 46175, Note_on_c, 0, 89, 0
1, 46175, Note_on_c, 1, 61, 0
1, 46176, Note_on_c, 0, 87, 79
1, 46176, Note_on_c, 1, 51, 69
1, 46199, Note_on_c, 1, 51, 0
1, 46200, Note_on_c, 1, 60, 68
1, 46221, Note_on_c, 0, 87, 0
1, 46223, Note_on_c, 1, 60, 0
1, 46224, Note_on_c, 0, 80, 78
1, 46224, Note_on_c, 1, 51, 68
1, 46247, Note_on_c, 1, 51, 0
1, 46248, Note_on_c, 1, 60, 67
1, 46269, Note_on_c, 0, 80, 0
1, 46271, Note_on_c, 1, 60, 0
1, 46272, Note_on_c, 0, 79, 77
1, 46272, Note_on_c, 1, 51, 67
1, 46295, Note_on_c, 1, 51, 0
1, 46296, Note_on_c, 1, 58, 67
1, 46317, Note_on_c, 0, 79, 0
1, 46319, Note_on_c, 1, 58, 0
1, 46320, Note_on_c, 0, 85, 77
1, 46320, Note_on_c, 1, 51, 66
1, 46343, Note_on_c, 1, 51, 0
1, 46344, Note_on_c, 1, 58, 66
1, 46365, Note_on_c, 0, 85, 0
1, 46367, Note_on_c, 1, 58, 0
1, 46368, Note_on_c, 0, 84, 76
1, 46368, Note_on_c, 1, 51, 65
1, 46391, Note_on_c, 1, 51, 0
1, 46392, Note_on_c, 1, 56, 65
1, 46413, Note_on_c, 0, 84, 0
1, 46415, Note_on_c, 1, 56, 0
1, 46416, Note_on_c, 0, 80, 75
1, 46416, Note_on_c, 1, 51, 64
1, 46439, Note_on_c, 1, 51, 0
1, 46440, Note_on_c, 1, 56, 64
1, 46461, Note_on_c, 0, 80, 0
1, 46463, Note_on_c, 1, 56, 0
1, 46464, Note_on_c, 0, 74, 86
1, 46464, Note_on_c, 1, 51, 75
1, 46487, Note_on_c, 1, 51, 0
1, 46488, Note_on_c, 1, 56, 74
1, 46509, Note_on_c, 0, 74, 0
1, 46511, Note_on_c, 1, 56, 0
1, 46512, Note_on_c, 0, 83, 83
1, 46512, Note_on_c, 1, 51, 73
1, 46535, Note_on_c, 1, 51, 0
1, 46536, Note_on_c, 1, 56, 72
1, 46557, Note_on_c, 0, 83, 0
1, 46559, Note_on_c, 1, 56, 0
1, 46560, Note_on_c, 0, 80, 81
1, 46560, Note_on_c, 1, 51, 71
1, 46583, Note_on_c, 1, 51, 0
1, 46584, Note_on_c, 1, 56, 70
1, 46605, Note_on_c, 0, 80, 0
1, 46607, Note_on_c, 1, 56, 0
1, 46608, Note_on_c, 0, 74, 78
1, 46608, Note_on_c, 1, 51, 69
1, 46631, Note_on_c, 1, 51, 0
1, 46632, Note_on_c, 1, 56, 68
1, 46653, Note_on_c, 0, 74, 0
1, 46655, Note_on_c, 1, 56, 0
1, 46656, Note_on_c, 0, 75, 76
1, 46656, Note_on_c, 1, 51, 67
1, 46679, Note_on_c, 1, 51, 0
1, 46680, Note_on_c, 1, 55, 66
1, 46701, Note_on_c, 0, 75, 0
1, 46703, Note_on_c, 1, 55, 0
1, 46704, Note_on_c, 0, 82, 73
1, 46704, Note_on_c, 1, 51, 65
1, 46727, Note_on_c, 1, 51, 0
1, 46728, Note_on_c, 1, 55, 64
1, 46749, Note_on_c, 0, 82, 0
1, 46751, Note_on_c, 1, 55, 0
1, 46752, Note_on_c, 0, 79, 71
1, 46752, Note_on_c, 1, 51, 63
1, 46775, Note_on_c, 1, 51, 0
1, 46776, Note_on_c, 1, 55, 62
1, 46797, Note_on_c, 0, 79, 0
1, 46799, Note_on_c, 1, 55, 0
1, 46800, Note_on_c, 0, 75, 68
1, 46800, Note_on_c, 1, 51, 61
1, 46823, Note_on_c, 1, 51, 0
1, 46824, Note_on_c, 1, 55, 60
1, 46845, Note_on_c, 0, 75, 0
1, 46847, Note_on_c, 1, 55, 0
1, 46848, Note_on_c, 0, 74, 66
1, 46848, Note_on_c, 1, 51, 59
1, 46871, Note_on_c, 1, 51, 0
1, 46872, Note_on_c, 1, 56, 58
1, 46893, Note_on_c, 0, 74, 0
1, 46895, Note_on_c, 1, 56, 0
1, 46896, Note_on_c, 0, 71, 64
1, 46896, Note_on_c, 1, 51, 58
1, 46919, Note_on_c, 1, 51, 0
1, 46920, Note_on_c, 1, 56, 58
1, 46941, Note_on_c, 0, 71, 0
1, 46943, Note_on_c, 1, 56, 0
1, 46944, Note_on_c, 0, 68, 64
1, 46944, Note_on_c, 1, 51, 58
1, 46967, Note_on_c, 1, 51, 0
1, 46968, Note_on_c, 1, 56, 58
1, 46989, Note_on_c, 0, 68, 0
1, 46991, Note_on_c, 1, 56, 0
1, 46992, Note_on_c, 0, 62, 64
1, 46992, Note_on_c, 1, 51, 58
1, 47015, Note_on_c, 1, 51, 0
1, 47016, Note_on_c, 1, 56, 58
1, 47037, Note_on_c, 0, 62, 0
1, 47039, Note_on_c, 1, 56, 0
1, 47040, Note_on_c, 0, 63, 64
1, 47040, Note_on_c, 1, 51, 58
1, 47063, Note_on_c, 1, 51, 0
1, 47064, Note_on_c, 1, 55, 58
1, 47085, Note_on_c, 0, 63, 0
1, 47087, Note_on_c, 1, 55, 0
1, 47088, Note_on_c, 0, 70, 64
1, 47088, Note_on_c, 1, 51, 58
1, 47111, Note_on_c, 1, 51, 0
1, 47112, Note_on_c, 1, 55, 58
1, 47133, Note_on_c, 0, 70, 0
1, 47135, Note_on_c, 1, 55, 0
1, 47136, Note_on_c, 0, 67, 64
1, 47136, Note_on_c, 1, 51, 58
1, 47159, Note_on_c, 1, 51, 0
1, 47160, Note_on_c, 1, 55, 58
1, 47181, Note_on_c, 0, 67, 0
1, 47183, Note_on_c, 1, 55, 0
1, 47184, Note_on_c, 0, 63, 64
1, 47184, Note_on_c, 1, 51, 58
1, 47207, Note_on_c, 1, 51, 0
1, 47208, Note_on_c, 1, 55, 58
1, 47229, Note_on_c, 0, 63, 0
1, 47231, Note_on_c, 1, 55, 0
1, 47232, Note_on_c, 0, 62, 64
1, 47232, Note_on_c, 1, 56, 58
1, 47232, Note_on_c, 1, 51, 58
1, 47277, Note_on_c, 0, 62, 0
1, 47280, Note_on_c, 0, 59, 64
1, 47325, Note_on_c, 0, 59, 0
1, 47328, Note_on_c, 0, 58, 64
1, 47373, Note_on_c, 0, 58, 0
1, 47376, Note_on_c, 0, 62, 64
1, 47421, Note_on_c, 0, 62, 0
1, 47424, Note_on_c, 0, 65, 64
1, 47469, Note_on_c, 0, 65, 0
1, 47472, Note_on_c, 0, 68, 64
1, 47517, Note_on_c, 0, 68, 0
1, 47520, Note_on_c, 0, 71, 64
1, 47565, Note_on_c, 0, 71, 0
1, 47568, Note_on_c, 0, 62, 64
1, 47613, Note_on_c, 0, 62, 0
1, 47616, Note_on_c, 0, 63, 64
1, 47616, Note_on_c, 1, 56, 0
1, 47616, Note_on_c, 1, 55, 58
1, 47683, Note_on_c, 0, 63, 0
1, 47688, Note_on_c, 0, 62, 64
1, 47705, Note_on_c, 1, 55, 0
1, 47705, Note_on_c, 1, 51, 0
1, 47711, Note_on_c, 0, 62, 0
1, 47712, Note_on_c, 0, 63, 64
1, 47712, Note_on_c, 1, 55, 58
1, 47712, Note_on_c, 1, 51, 58
1, 47735, Note_on_c, 0, 63, 0
1, 47736, Note_on_c, 0, 62, 64
1, 47757, Note_on_c, 1, 55, 0
1, 47757, Note_on_c, 1, 51, 0
1, 47759, Note_on_c, 0, 62, 0
1, 47760, Note_on_c, 0, 63, 64
1, 47760, Note_on_c, 1, 55, 58
1, 47760, Note_on_c, 1, 51, 58
1, 47783, Note_on_c, 0, 63, 0
1, 47784, Note_on_c, 0, 62, 64
1, 47805, Note_on_c, 1, 55, 0
1, 47805, Note_on_c, 1, 51, 0
1, 47807, Note_on_c, 0, 62, 0
1, 47808, Note_on_c, 0, 63, 64
1, 47808, Note_on_c, 1, 55, 58
1, 47808, Note_on_c, 1, 51, 58
1, 47897, Note_on_c, 0, 63, 0
1, 47897, Note_on_c, 1, 55, 0
1, 47897, Note_on_c, 1, 51, 0
1, 48000, Note_on_c, 0, 56, 64
1, 48000, Note_on_c, 1, 44, 58
1, 48089, Note_on_c, 0, 56, 0
1, 48089, Note_on_c, 1, 44, 0
1, 48096, Note_on_c, 0, 51, 64
1, 48096, Note_on_c, 1, 39, 58
1, 48185, Note_on_c, 0, 51, 0
1, 48185, Note_on_c, 1, 39, 0
1, 48192, Note_on_c, 0, 48, 64
1, 48192, Note_on_c, 1, 36, 58
1, 48281, Note_on_c, 0, 48, 0
1, 48281, Note_on_c, 1, 36, 0
1, 48336, Note_on_c, 0, 53, 64
1, 48336, Note_on_c, 1, 41, 58
1, 48384, Note_on_c, 0, 53, 0
1, 48384, Note_on_c, 0, 46, 64
1, 48384, Note_on_c, 1, 41, 0
1, 48384, Note_on_c, 1, 34, 58
1, 48473, Note_on_c, 0, 46, 0
1, 48473, Note_on_c, 1, 34, 0
1, 48528, Note_on_c, 0, 51, 64
1, 48528, Note_on_c, 1, 39, 58
1, 48576, Note_on_c, 0, 51, 0
1, 48576, Note_on_c, 0, 44, 64
1, 48576, Note_on_c, 1, 39, 0
1, 48576, Note_on_c, 1, 32, 58
1, 48665, Note_on_c, 0, 44, 0
1, 48665, Note_on_c, 1, 32, 0
1, 48720, Note_on_c, 0, 72, 64
1, 48768, Note_on_c, 0, 72, 0
1, 48768, Note_on_c, 0, 61, 64
1, 48816, Note_on_c, 1, 56, 58
1, 48816, Note_on_c, 1, 53, 58
1, 48857, Note_on_c, 0, 61, 0
1, 48864, Note_on_c, 1, 56, 0
1, 48864, Note_on_c, 1, 53, 0
1, 48864, Note_on_c, 1, 58, 58
1, 48864, Note_on_c, 1, 55, 58
1, 48909, Note_on_c, 1, 58, 0
1, 48909, Note_on_c, 1, 55, 0
1, 48912, Note_on_c, 0, 70, 64
1, 48960, Note_on_c, 0, 70, 0
1, 48960, Note_on_c, 0, 60, 64
1, 49008, Note_on_c, 1, 55, 58
1, 49008, Note_on_c, 1, 52, 58
1, 49049, Note_on_c, 0, 60, 0
1, 49056, Note_on_c, 1, 55, 0
1, 49056, Note_on_c, 1, 52, 0
1, 49056, Note_on_c, 1, 56, 58
1, 49056, Note_on_c, 1, 53, 58
1, 49101, Note_on_c, 1, 56, 0
1, 49101, Note_on_c, 1, 53, 0
1, 49104, Note_on_c, 0, 68, 64
1, 49152, Note_on_c, 0, 68, 0
1, 49152, Note_on_c, 0, 59, 64
1, 49200, Note_on_c, 0, 59, 0
1, 49200, Note_on_c, 0, 68, 64
1, 49200, Note_on_c, 1, 53, 76
1, 49200, Note_on_c, 1, 50, 76
1, 49245, Note_on_c, 0, 68, 0
1, 49245, Note_on_c, 1, 53, 0
1, 49245, Note_on_c, 1, 50, 0
1, 49248, Note_on_c, 0, 60, 64
1, 49296, Note_on_c, 0, 60, 0
1, 49296, Note_on_c, 0, 68, 64
1, 49296, Note_on_c, 1, 51, 76
1, 49296, Note_on_c, 1, 48, 76
1, 49341, Note_on_c, 0, 68, 0
1, 49341, Note_on_c, 1, 51, 0
1, 49341, Note_on_c, 1, 48, 0
1, 49344, Note_on_c, 0, 62, 65
1, 49392, Note_on_c, 0, 62, 0
1, 49392, Note_on_c, 0, 68, 66
1, 49392, Note_on_c, 1, 50, 78
1, 49392, Note_on_c, 1, 47, 78
1, 49437, Note_on_c, 0, 68, 0
1, 49437, Note_on_c, 1, 50, 0
1, 49437, Note_on_c, 1, 47, 0
1, 49440, Note_on_c, 0, 60, 66
1, 49488, Note_on_c, 0, 60, 0
1, 49488, Note_on_c, 0, 68, 67
1, 49488, Note_on_c, 1, 51, 80
1, 49488, Note_on_c, 1, 48, 80
1, 49533, Note_on_c, 0, 68, 0
1, 49533, Note_on_c, 1, 51, 0
1, 49533, Note_on_c, 1, 48, 0
1, 49536, Note_on_c, 0, 59, 68
1, 49559, Note_on_c, 0, 59, 0
1, 49560, Note_on_c, 0, 68, 68
1, 49583, Note_on_c, 0, 68, 0
1, 49584, Note_on_c, 0, 59, 69
1, 49584, Note_on_c, 1, 53, 82
1, 49584, Note_on_c, 1, 50, 82
1, 49607, Note_on_c, 0, 59, 0
1, 49608, Note_on_c, 0, 68, 69
1, 49629, Note_on_c, 1, 53, 0
1, 49629, Note_on_c, 1, 50, 0
1, 49631, Note_on_c, 0, 68, 0
1, 49632, Note_on_c, 0, 60, 69
1, 49655, Note_on_c, 0, 60, 0
1, 49656, Note_on_c, 0, 68, 70
1, 49679, Note_on_c, 0, 68, 0
1, 49680, Note_on_c, 0, 60, 70
1, 49680, Note_on_c, 1, 51, 83
1, 49680, Note_on_c, 1, 48, 83
1, 49703, Note_on_c, 0, 60, 0
1, 49704, Note_on_c, 0, 68, 70
1, 49725, Note_on_c, 1, 51, 0
1, 49725, Note_on_c, 1, 48, 0
1, 49727, Note_on_c, 0, 68, 0
1, 49728, Note_on_c, 0, 62, 71
1, 49751, Note_on_c, 0, 62, 0
1, 49752, Note_on_c, 0, 68, 71
1, 49775, Note_on_c, 0, 68, 0
1, 49776, Note_on_c, 0, 62, 71
1, 49776, Note_on_c, 1, 50, 85
1, 49776, Note_on_c, 1, 47, 85
1, 49799, Note_on_c, 0, 62, 0
1, 49800, Note_on_c, 0, 68, 72
1, 49821, Note_on_c, 1, 50, 0
1, 49821, Note_on_c, 1, 47, 0
1, 49823, Note_on_c, 0, 68, 0
1, 49824, Note_on_c, 0, 59, 72
1, 49847, Note_on_c, 0, 59, 0
1, 49848, Note_on_c, 0, 68, 73
1, 49871, Note_on_c, 0, 68, 0
1, 49872, Note_on_c, 0, 59, 73
1, 49872, Note_on_c, 1, 53, 87
1, 49872, Note_on_c, 1, 50, 87
1, 49895, Note_on_c, 0, 59, 0
1, 49896, Note_on_c, 0, 68, 73
1, 49917, Note_on_c, 1, 53, 0
1, 49917, Note_on_c, 1, 50, 0
1, 49919, Note_on_c, 0, 68, 0
1, 49920, Note_on_c, 0, 60, 74
1, 49943, Note_on_c, 0, 60, 0
1, 49944, Note_on_c, 0, 72, 74
1, 49967, Note_on_c, 0, 72, 0
1, 49968, Note_on_c, 0, 60, 74
1, 49968, Note_on_c, 1, 55, 89
1, 49968, Note_on_c, 1, 51, 89
1, 49991, Note_on_c, 0, 60, 0
1, 49992, Note_on_c, 0, 72, 75
1, 50013, Note_on_c, 1, 55, 0
1, 50013, Note_on_c, 1, 51, 0
1, 50015, Note_on_c, 0, 72, 0
1, 50016, Note_on_c, 0, 59, 75
1, 50039, Note_on_c, 0, 59, 0
1, 50040, Note_on_c, 0, 71, 75
1, 50063, Note_on_c, 0, 71, 0
1, 50064, Note_on_c, 0, 59, 76
1, 50064, Note_on_c, 1, 53, 90
1, 50064, Note_on_c, 1, 50, 90
1, 50087, Note_on_c, 0, 59, 0
1, 50088, Note_on_c, 0, 71, 76
1, 50109, Note_on_c, 1, 53, 0
1, 50109, Note_on_c, 1, 50, 0
1, 50111, Note_on_c, 0, 71, 0
1, 50112, Note_on_c, 0, 60, 76
1, 50135, Note_on_c, 0, 60, 0
1, 50136, Note_on_c, 0, 72, 77
1, 50159, Note_on_c, 0, 72, 0
1, 50160, Note_on_c, 0, 60, 77
1, 50160, Note_on_c, 1, 55, 92
1, 50160, Note_on_c, 1, 51, 92
1, 50183, Note_on_c, 0, 60, 0
1, 50184, Note_on_c, 0, 72, 78
1, 50205, Note_on_c, 1, 55, 0
1, 50205, Note_on_c, 1, 51, 0
1, 50207, Note_on_c, 0, 72, 0
1, 50208, Note_on_c, 0, 61, 78
1, 50231, Note_on_c, 0, 61, 0
1, 50232, Note_on_c, 0, 73, 78
1, 50255, Note_on_c, 0, 73, 0
1, 50256, Note_on_c, 0, 61, 79
1, 50256, Note_on_c, 1, 55, 94
1, 50256, Note_on_c, 1, 52, 94
1, 50279, Note_on_c, 0, 61, 0
1, 50280, Note_on_c, 0, 73, 79
1, 50301, Note_on_c, 1, 55, 0
1, 50301, Note_on_c, 1, 52, 0
1, 50303, Note_on_c, 0, 73, 0
1, 50304, Note_on_c, 0, 62, 79
1, 50327, Note_on_c, 0, 62, 0
1, 50328, Note_on_c, 0, 74, 80
1, 50351, Note_on_c, 0, 74, 0
1, 50352, Note_on_c, 0, 62, 80
1, 50352, Note_on_c, 1, 57, 96
1, 50352, Note_on_c, 1, 53, 96
1, 50375, Note_on_c, 0, 62, 0
1, 50376, Note_on_c, 0, 74, 80
1, 50397, Note_on_c, 1, 57, 0
1, 50397, Note_on_c, 1, 53, 0
1, 50399, Note_on_c, 0, 74, 0
1, 50400, Note_on_c, 0, 61, 81
1, 50423, Note_on_c, 0, 61, 0
1, 50424, Note_on_c, 0, 73, 81
1, 50447, Note_on_c, 0, 73, 0
1, 50448, Note_on_c, 0, 61, 82
1, 50448, Note_on_c, 1, 55, 97
1, 50448, Note_on_c, 1, 52, 97
1, 50471, Note_on_c, 0, 61, 0
1, 50472, Note_on_c, 0, 73, 82
1, 50493, Note_on_c, 1, 55, 0
1, 50493, Note_on_c, 1, 52, 0
1, 50495, Note_on_c, 0, 73, 0
1, 50496, Note_on_c, 0, 62, 82
1, 50519, Note_on_c, 0, 62, 0
1, 50520, Note_on_c, 0, 74, 83
1, 50543, Note_on_c, 0, 74, 0
1, 50544, Note_on_c, 0, 62, 83
1, 50544, Note_on_c, 1, 57, 99
1, 50544, Note_on_c, 1, 53, 99
1, 50567, Note_on_c, 0, 62, 0
1, 50568, Note_on_c, 0, 74, 83
1, 50589, Note_on_c, 1, 57, 0
1, 50589, Note_on_c, 1, 53, 0
1, 50591, Note_on_c, 0, 74, 0
1, 50592, Note_on_c, 0, 63, 84
1, 50615, Note_on_c, 0, 63, 0
1, 50616, Note_on_c, 0, 75, 84
1, 50639, Note_on_c, 0, 75, 0
1, 50640, Note_on_c, 0, 63, 84
1, 50640, Note_on_c, 1, 57, 101
1, 50640, Note_on_c, 1, 53, 101
1, 50663, Note_on_c, 0, 63, 0
1, 50664, Note_on_c, 0, 75, 85
1, 50685, Note_on_c, 1, 57, 0
1, 50685, Note_on_c, 1, 53, 0
1, 50687, Note_on_c, 0, 75, 0
1, 50688, Note_on_c, 0, 64, 85
1, 50688, Note_on_c, 1, 59, 84
1, 50688, Note_on_c, 1, 56, 84
1, 50688, Note_on_c, 1, 52, 84
1, 50711, Note_on_c, 0, 64, 0
1, 50712, Note_on_c, 0, 76, 86
1, 50735, Note_on_c, 0, 76, 0
1, 50736, Note_on_c, 0, 64, 86
1, 50759, Note_on_c, 0, 64, 0
1, 50760, Note_on_c, 0, 76, 86
1, 50782, Note_on_c, 1, 59, 0
1, 50782, Note_on_c, 1, 56, 0
1, 50782, Note_on_c, 1, 52, 0
1, 50783, Note_on_c, 0, 76, 0
1, 50784, Note_on_c, 0, 64, 86
1, 50807, Note_on_c, 0, 64, 0
1, 50808, Note_on_c, 0, 76, 86
1, 50831, Note_on_c, 0, 76, 0
1, 50832, Note_on_c, 0, 64, 86
1, 50832, Note_on_c, 1, 62, 102
1, 50855, Note_on_c, 0, 64, 0
1, 50856, Note_on_c, 0, 76, 86
1, 50879, Note_on_c, 0, 76, 0
1, 50880, Note_on_c, 0, 64, 86
1, 50880, Note_on_c, 1, 62, 0
1, 50880, Note_on_c, 1, 68, 102
1, 50903, Note_on_c, 0, 64, 0
1, 50904, Note_on_c, 0, 76, 86
1, 50927, Note_on_c, 0, 76, 0
1, 50928, Note_on_c, 0, 64, 86
1, 50951, Note_on_c, 0, 64, 0
1, 50952, Note_on_c, 0, 76, 86
1, 50975, Note_on_c, 0, 76, 0
1, 50976, Note_on_c, 0, 64, 86
1, 50976, Note_on_c, 1, 68, 0
1, 50999, Note_on_c, 0, 64, 0
1, 51000, Note_on_c, 0, 76, 86
1, 51023, Note_on_c, 0, 76, 0
1, 51024, Note_on_c, 0, 64, 86
1, 51024, Note_on_c, 1, 60, 102
1, 51047, Note_on_c, 0, 64, 0
1, 51048, Note_on_c, 0, 76, 86
1, 51071, Note_on_c, 0, 76, 0
1, 51072, Note_on_c, 0, 64, 86
1, 51072, Note_on_c, 1, 60, 0
1, 51072, Note_on_c, 1, 69, 102
1, 51095, Note_on_c, 0, 64, 0
1, 51096, Note_on_c, 0, 76, 86
1, 51119, Note_on_c, 0, 76, 0
1, 51120, Note_on_c, 0, 64, 86
1, 51143, Note_on_c, 0, 64, 0
1, 51144, Note_on_c, 0, 76, 86
1, 51167, Note_on_c, 0, 76, 0
1, 51168, Note_on_c, 0, 64, 86
1, 51168, Note_on_c, 1, 69, 0
1, 51191, Note_on_c, 0, 64, 0
1, 51192, Note_on_c, 0, 76, 86
1, 51215, Note_on_c, 0, 76, 0
1, 51216, Note_on_c, 0, 64, 86
1, 51216, Note_on_c, 1, 47, 102
1, 51216, Note_on_c, 1, 44, 102
1, 51239, Note_on_c, 0, 64, 0
1, 51240, Note_on_c, 0, 76, 86
1, 51263, Note_on_c, 0, 76, 0
1, 51264, Note_on_c, 0, 64, 86
1, 51264, Note_on_c, 1, 47, 0
1, 51264, Note_on_c, 1, 44, 0
1, 51264, Note_on_c, 1, 62, 102
1, 51264, Note_on_c, 1, 59, 102
1, 51287, Note_on_c, 0, 64, 0
1, 51288, Note_on_c, 0, 76, 86
1, 51311, Note_on_c, 0, 76, 0
1, 51312, Note_on_c, 0, 64, 86
1, 51335, Note_on_c, 0, 64, 0
1, 51336, Note_on_c, 0, 76, 86
1, 51359, Note_on_c, 0, 76, 0
1, 51360, Note_on_c, 0, 64, 86
1, 51360, Note_on_c, 1, 62, 0
1, 51360, Note_on_c, 1, 59, 0
1, 51383, Note_on_c, 0, 64, 0
1, 51384, Note_on_c, 0, 76, 86
1, 51407, Note_on_c, 0, 76, 0
1, 51408, Note_on_c, 0, 64, 86
1, 51408, Note_on_c, 1, 48, 102
1, 51408, Note_on_c, 1, 45, 102
1, 51431, Note_on_c, 0, 64, 0
1, 51432, Note_on_c, 0, 76, 86
1, 51455, Note_on_c, 0, 76, 0
1, 51456, Note_on_c, 0, 64, 86
1, 51456, Note_on_c, 1, 48, 0
1, 51456, Note_on_c, 1, 45, 0
1, 51456, Note_on_c, 1, 60, 102
1, 51456, Note_on_c, 1, 57, 102
1, 51479, Note_on_c, 0, 64, 0
1, 51480, Note_on_c, 0, 76, 86
1, 51503, Note_on_c, 0, 76, 0
1, 51504, Note_on_c, 0, 64, 86
1, 51527, Note_on_c, 0, 64, 0
1, 51528, Note_on_c, 0, 76, 86
1, 51551, Note_on_c, 0, 76, 0
1, 51552, Note_on_c, 0, 64, 86
1, 51552, Note_on_c, 1, 60, 0
1, 51552, Note_on_c, 1, 57, 0
1, 51575, Note_on_c, 0, 64, 0
1, 51576, Note_on_c, 0, 76, 86
1, 51599, Note_on_c, 0, 76, 0
1, 51600, Note_on_c, 0, 64, 86
1, 51600, Note_on_c, 1, 48, 102
1, 51600, Note_on_c, 1, 36, 102
1, 51623, Note_on_c, 0, 64, 0
1, 51624, Note_on_c, 0, 76, 86
1, 51647, Note_on_c, 0, 76, 0
1, 51648, Note_on_c, 0, 67, 86
1, 51648, Note_on_c, 1, 48, 0
1, 51648, Note_on_c, 1, 36, 0
1, 51648, Note_on_c, 1, 58, 102
1, 51648, Note_on_c, 1, 46, 102
1, 51671, Note_on_c, 0, 67, 0
1, 51672, Note_on_c, 0, 76, 86
1, 51695, Note_on_c, 0, 76, 0
1, 51696, Note_on_c, 0, 67, 86
1, 51719, Note_on_c, 0, 67, 0
1, 51720, Note_on_c, 0, 76, 86
1, 51743, Note_on_c, 0, 76, 0
1, 51744, Note_on_c, 0, 67, 86
1, 51767, Note_on_c, 0, 67, 0
1, 51768, Note_on_c, 0, 76, 86
1, 51791, Note_on_c, 0, 76, 0
1, 51792, Note_on_c, 0, 67, 86
1, 51815, Note_on_c, 0, 67, 0
1, 51816, Note_on_c, 0, 76, 86
1, 51839, Note_on_c, 0, 76, 0
1, 51840, Note_on_c, 0, 75, 86
1, 51840, Note_on_c, 0, 66, 86
1, 51840, Note_on_c, 1, 58, 0
1, 51840, Note_on_c, 1, 46, 0
1, 51840, Note_on_c, 1, 47, 86
1, 51863, Note_on_c, 1, 47, 0
1, 51864, Note_on_c, 1, 59, 83
1, 51887, Note_on_c, 1, 59, 0
1, 51888, Note_on_c, 1, 47, 81
1, 51911, Note_on_c, 1, 47, 0
1, 51912, Note_on_c, 1, 59, 78
1, 51935, Note_on_c, 1, 59, 0
1, 51936, Note_on_c, 1, 47, 76
1, 51959, Note_on_c, 1, 47, 0
1, 51960, Note_on_c, 1, 59, 73
1, 51983, Note_on_c, 1, 59, 0
1, 51984, Note_on_c, 1, 47, 71
1, 52007, Note_on_c, 1, 47, 0
1, 52008, Note_on_c, 1, 59, 68
1, 52017, Note_on_c, 0, 75, 0
1, 52017, Note_on_c, 0, 66, 0
1, 52031, Note_on_c, 1, 59, 0
1, 52032, Note_on_c, 0, 78, 64
1, 52032, Note_on_c, 0, 69, 64
1, 52032, Note_on_c, 1, 47, 66
1, 52055, Note_on_c, 1, 47, 0
1, 52056, Note_on_c, 1, 59, 64
1, 52079, Note_on_c, 1, 59, 0
1, 52080, Note_on_c, 1, 47, 64
1, 52103, Note_on_c, 1, 47, 0
1, 52104, Note_on_c, 1, 59, 64
1, 52127, Note_on_c, 1, 59, 0
1, 52128, Note_on_c, 1, 47, 64
1, 52151, Note_on_c, 1, 47, 0
1, 52152, Note_on_c, 1, 59, 64
1, 52175, Note_on_c, 1, 59, 0
1, 52176, Note_on_c, 1, 47, 64
1, 52199, Note_on_c, 1, 47, 0
1, 52200, Note_on_c, 1, 59, 64
1, 52209, Note_on_c, 0, 78, 0
1, 52209, Note_on_c, 0, 69, 0
1, 52223, Note_on_c, 1, 59, 0
1, 52224, Note_on_c, 0, 78, 64
1, 52224, Note_on_c, 0, 68, 64
1, 52224, Note_on_c, 1, 47, 64
1, 52247, Note_on_c, 1, 47, 0
1, 52248, Note_on_c, 1, 59, 64
1, 52271, Note_on_c, 1, 59, 0
1, 52272, Note_on_c, 1, 47, 64
1, 52295, Note_on_c, 1, 47, 0
1, 52296, Note_on_c, 1, 59, 64
1, 52319, Note_on_c, 1, 59, 0
1, 52320, Note_on_c, 1, 47, 64
1, 52343, Note_on_c, 1, 47, 0
1, 52344, Note_on_c, 1, 59, 64
1, 52367, Note_on_c, 1, 59, 0
1, 52368, Note_on_c, 1, 47, 64
1, 52391, Note_on_c, 1, 47, 0
1, 52392, Note_on_c, 1, 59, 64
1, 52401, Note_on_c, 0, 78, 0
1, 52415, Note_on_c, 1, 59, 0
1, 52416, Note_on_c, 0, 77, 64
1, 52416, Note_on_c, 1, 47, 64
1, 52439, Note_on_c, 1, 47, 0
1, 52440, Note_on_c, 1, 59, 64
1, 52463, Note_on_c, 1, 59, 0
1, 52464, Note_on_c, 1, 47, 64
1, 52487, Note_on_c, 1, 47, 0
1, 52488, Note_on_c, 1, 59, 64
1, 52505, Note_on_c, 0, 77, 0
1, 52511, Note_on_c, 1, 59, 0
1, 52512, Note_on_c, 0, 76, 64
1, 52512, Note_on_c, 1, 47, 64
1, 52535, Note_on_c, 1, 47, 0
1, 52536, Note_on_c, 1, 59, 64
1, 52559, Note_on_c, 1, 59, 0
1, 52560, Note_on_c, 1, 47, 64
1, 52578, Note_on_c, 0, 68, 0
1, 52583, Note_on_c, 1, 47, 0
1, 52584, Note_on_c, 1, 59, 64
1, 52601, Note_on_c, 0, 76, 0
1, 52607, Note_on_c, 1, 59, 0
1, 52608, Note_on_c, 0, 76, 64
1, 52608, Note_on_c, 0, 67, 64
1, 52608, Note_on_c, 1, 48, 64
1, 52631, Note_on_c, 1, 48, 0
1, 52632, Note_on_c, 1, 57, 64
1, 52655, Note_on_c, 1, 57, 0
1, 52656, Note_on_c, 1, 48, 64
1, 52679, Note_on_c, 1, 48, 0
1, 52680, Note_on_c, 1, 57, 64
1, 52703, Note_on_c, 1, 57, 0
1, 52704, Note_on_c, 1, 48, 64
1, 52727, Note_on_c, 1, 48, 0
1, 52728, Note_on_c, 1, 57, 65
1, 52751, Note_on_c, 1, 57, 0
1, 52752, Note_on_c, 1, 48, 67
1, 52775, Note_on_c, 1, 48, 0
1, 52776, Note_on_c, 1, 57, 69
1, 52799, Note_on_c, 1, 57, 0
1, 52800, Note_on_c, 1, 49, 71
1, 52823, Note_on_c, 1, 49, 0
1, 52824, Note_on_c, 1, 58, 73
1, 52847, Note_on_c, 1, 58, 0
1, 52848, Note_on_c, 1, 49, 75
1, 52871, Note_on_c, 1, 49, 0
1, 52872, Note_on_c, 1, 58, 76
1, 52895, Note_on_c, 1, 58, 0
1, 52896, Note_on_c, 1, 49, 78
1, 52919, Note_on_c, 1, 49, 0
1, 52920, Note_on_c, 1, 58, 80
1, 52943, Note_on_c, 1, 58, 0
1, 52944, Note_on_c, 1, 49, 82
1, 52962, Note_on_c, 0, 76, 0
1, 52962, Note_on_c, 0, 67, 0
1, 52967, Note_on_c, 1, 49, 0
1, 52968, Note_on_c, 1, 58, 84
1, 52991, Note_on_c, 1, 58, 0
1, 52992, Note_on_c, 0, 74, 104
1, 52992, Note_on_c, 0, 71, 86
1, 52992, Note_on_c, 0, 67, 86
1, 52992, Note_on_c, 0, 62, 86
1, 52992, Note_on_c, 1, 50, 104
1, 53015, Note_on_c, 1, 50, 0
1, 53016, Note_on_c, 1, 59, 86
1, 53039, Note_on_c, 1, 59, 0
1, 53040, Note_on_c, 1, 50, 86
1, 53063, Note_on_c, 1, 50, 0
1, 53064, Note_on_c, 1, 59, 86
1, 53087, Note_on_c, 1, 59, 0
1, 53088, Note_on_c, 1, 50, 86
1, 53111, Note_on_c, 1, 50, 0
1, 53112, Note_on_c, 1, 59, 86
1, 53135, Note_on_c, 1, 59, 0
1, 53136, Note_on_c, 1, 50, 86
1, 53159, Note_on_c, 1, 50, 0
1, 53160, Note_on_c, 1, 59, 86
1, 53169, Note_on_c, 0, 71, 0
1, 53169, Note_on_c, 0, 67, 0
1, 53169, Note_on_c, 0, 62, 0
1, 53183, Note_on_c, 1, 59, 0
1, 53184, Note_on_c, 0, 66, 86
1, 53184, Note_on_c, 0, 62, 86
1, 53184, Note_on_c, 1, 50, 86
1, 53207, Note_on_c, 1, 50, 0
1, 53208, Note_on_c, 1, 57, 86
1, 53231, Note_on_c, 1, 57, 0
1, 53232, Note_on_c, 1, 50, 86
1, 53255, Note_on_c, 1, 50, 0
1, 53256, Note_on_c, 1, 57, 86
1, 53257, Note_on_c, 0, 74, 0
1, 53279, Note_on_c, 1, 57, 0
1, 53280, Note_on_c, 0, 72, 86
1, 53280, Note_on_c, 1, 50, 86
1, 53303, Note_on_c, 1, 50, 0
1, 53304, Note_on_c, 1, 57, 86
1, 53327, Note_on_c, 1, 57, 0
1, 53328, Note_on_c, 1, 50, 86
1, 53351, Note_on_c, 1, 50, 0
1, 53352, Note_on_c, 1, 57, 86
1, 53361, Note_on_c, 0, 66, 0
1, 53361, Note_on_c, 0, 62, 0
1, 53369, Note_on_c, 0, 72, 0
1, 53375, Note_on_c, 1, 57, 0
1, 53376, Note_on_c, 0, 72, 104
1, 53376, Note_on_c, 0, 65, 104
1, 53376, Note_on_c, 0, 62, 104
1, 53376, Note_on_c, 1, 43, 104
1, 53399, Note_on_c, 1, 43, 0
1, 53400, Note_on_c, 1, 55, 86
1, 53423, Note_on_c, 1, 55, 0
1, 53424, Note_on_c, 1, 43, 86
1, 53447, Note_on_c, 1, 43, 0
1, 53448, Note_on_c, 1, 55, 86
1, 53471, Note_on_c, 1, 55, 0
1, 53472, Note_on_c, 1, 43, 86
1, 53495, Note_on_c, 1, 43, 0
1, 53496, Note_on_c, 1, 55, 86
1, 53519, Note_on_c, 1, 55, 0
1, 53520, Note_on_c, 1, 43, 86
1, 53543, Note_on_c, 1, 43, 0
1, 53544, Note_on_c, 1, 55, 86
1, 53553, Note_on_c, 0, 72, 0
1, 53567, Note_on_c, 1, 55, 0
1, 53568, Note_on_c, 0, 71, 86
1, 53568, Note_on_c, 1, 44, 86
1, 53591, Note_on_c, 1, 44, 0
1, 53592, Note_on_c, 1, 56, 86
1, 53615, Note_on_c, 1, 56, 0
1, 53616, Note_on_c, 1, 44, 86
1, 53639, Note_on_c, 1, 44, 0
1, 53640, Note_on_c, 1, 56, 86
1, 53641, Note_on_c, 0, 65, 0
1, 53641, Note_on_c, 0, 62, 0
1, 53663, Note_on_c, 1, 56, 0
1, 53664, Note_on_c, 0, 64, 86
1, 53664, Note_on_c, 0, 62, 86
1, 53664, Note_on_c, 1, 44, 86
1, 53687, Note_on_c, 1, 44, 0
1, 53688, Note_on_c, 1, 56, 86
1, 53711, Note_on_c, 1, 56, 0
1, 53712, Note_on_c, 1, 44, 86
1, 53735, Note_on_c, 1, 44, 0
1, 53736, Note_on_c, 1, 56, 86
1, 53745, Note_on_c, 0, 71, 0
1, 53753, Note_on_c, 0, 64, 0
1, 53753, Note_on_c, 0, 62, 0
1, 53759, Note_on_c, 1, 56, 0
1, 53760, Note_on_c, 0, 71, 104
1, 53760, Note_on_c, 0, 64, 104
1, 53760, Note_on_c, 0, 60, 104
1, 53760, Note_on_c, 1, 45, 104
1, 53783, Note_on_c, 1, 45, 0
1, 53784, Note_on_c, 1, 57, 86
1, 53807, Note_on_c, 1, 57, 0
1, 53808, Note_on_c, 1, 45, 86
1, 53831, Note_on_c, 1, 45, 0
1, 53832, Note_on_c, 1, 57, 86
1, 53855, Note_on_c, 1, 57, 0
1, 53856, Note_on_c, 1, 45, 86
1, 53879, Note_on_c, 1, 45, 0
1, 53880, Note_on_c, 1, 57, 86
1, 53903, Note_on_c, 1, 57, 0
1, 53904, Note_on_c, 1, 45, 86
1, 53927, Note_on_c, 1, 45, 0
1, 53928, Note_on_c, 1, 57, 86
1, 53937, Note_on_c, 0, 71, 0
1, 53937, Note_on_c, 0, 64, 0
1, 53937, Note_on_c, 0, 60, 0
1, 53951, Note_on_c, 1, 57, 0
1, 53952, Note_on_c, 0, 69, 86
1, 53952, Note_on_c, 0, 63, 86
1, 53952, Note_on_c, 0, 60, 86
1, 53952, Note_on_c, 1, 41, 86
1, 53975, Note_on_c, 1, 41, 0
1, 53976, Note_on_c, 1, 53, 86
1, 53999, Note_on_c, 1, 53, 0
1, 54000, Note_on_c, 1, 41, 86
1, 54023, Note_on_c, 1, 41, 0
1, 54024, Note_on_c, 1, 53, 86
1, 54041, Note_on_c, 0, 60, 0
1, 54047, Note_on_c, 1, 53, 0
1, 54048, Note_on_c, 0, 59, 86
1, 54048, Note_on_c, 1, 41, 86
1, 54071, Note_on_c, 1, 41, 0
1, 54072, Note_on_c, 1, 53, 86
1, 54095, Note_on_c, 1, 53, 0
1, 54096, Note_on_c, 0, 59, 0
1, 54096, Note_on_c, 0, 57, 86
1, 54096, Note_on_c, 1, 41, 86
1, 54119, Note_on_c, 1, 41, 0
1, 54120, Note_on_c, 1, 53, 86
1, 54129, Note_on_c, 0, 69, 0
1, 54129, Note_on_c, 0, 63, 0
1, 54141, Note_on_c, 0, 57, 0
1, 54143, Note_on_c, 1, 53, 0
1, 54144, Note_on_c, 0, 68, 86
1, 54144, Note_on_c, 0, 64, 86
1, 54144, Note_on_c, 0, 59, 86
1, 54144, Note_on_c, 1, 40, 86
1, 54167, Note_on_c, 1, 40, 0
1, 54168, Note_on_c, 1, 52, 86
1, 54189, Note_on_c, 0, 68, 0
1, 54189, Note_on_c, 0, 64, 0
1, 54189, Note_on_c, 0, 59, 0
1, 54191, Note_on_c, 1, 52, 0
1, 54192, Note_on_c, 1, 40, 86
1, 54215, Note_on_c, 1, 40, 0
1, 54216, Note_on_c, 0, 76, 75
1, 54216, Note_on_c, 0, 72, 75
1, 54239, Note_on_c, 0, 76, 0
1, 54239, Note_on_c, 0, 72, 0
1, 54240, Note_on_c, 0, 74, 75
1, 54240, Note_on_c, 0, 71, 75
1, 54263, Note_on_c, 0, 74, 0
1, 54263, Note_on_c, 0, 71, 0
1, 54264, Note_on_c, 0, 76, 75
1, 54264, Note_on_c, 0, 72, 75
1, 54287, Note_on_c, 0, 76, 0
1, 54287, Note_on_c, 0, 72, 0
1, 54288, Note_on_c, 0, 77, 75
1, 54288, Note_on_c, 0, 74, 75
1, 54311, Note_on_c, 0, 77, 0
1, 54311, Note_on_c, 0, 74, 0
1, 54312, Note_on_c, 0, 76, 75
1, 54312, Note_on_c, 0, 72, 75
1, 54335, Note_on_c, 0, 76, 0
1, 54335, Note_on_c, 0, 72, 0
1, 54336, Note_on_c, 0, 74, 75
1, 54336, Note_on_c, 0, 71, 75
1, 54356, Note_on_c, 0, 74, 0
1, 54356, Note_on_c, 0, 71, 0
1, 54360, Note_on_c, 1, 52, 75
1, 54384, Note_on_c, 1, 52, 0
1, 54384, Note_on_c, 1, 40, 75
1, 54408, Note_on_c, 0, 76, 75
1, 54408, Note_on_c, 0, 72, 75
1, 54429, Note_on_c, 1, 40, 0
1, 54432, Note_on_c, 0, 76, 0
1, 54432, Note_on_c, 0, 69, 75
1, 54452, Note_on_c, 0, 72, 0
1, 54452, Note_on_c, 0, 69, 0
1, 54456, Note_on_c, 1, 52, 75
1, 54480, Note_on_c, 1, 52, 0
1, 54480, Note_on_c, 1, 40, 75
1, 54504, Note_on_c, 0, 74, 75
1, 54504, Note_on_c, 0, 71, 75
1, 54525, Note_on_c, 1, 40, 0
1, 54528, Note_on_c, 0, 74, 0
1, 54528, Note_on_c, 0, 71, 0
1, 54528, Note_on_c, 0, 68, 75
1, 54528, Note_on_c, 0, 64, 75
1, 54552, Note_on_c, 1, 52, 75
1, 54575, Note_on_c, 0, 68, 0
1, 54575, Note_on_c, 0, 64, 0
1, 54576, Note_on_c, 1, 52, 0
1, 54576, Note_on_c, 1, 40, 75
1, 54600, Note_on_c, 0, 76, 75
1, 54600, Note_on_c, 0, 72, 75
1, 54621, Note_on_c, 1, 40, 0
1, 54623, Note_on_c, 0, 76, 0
1, 54623, Note_on_c, 0, 72, 0
1, 54624, Note_on_c, 0, 74, 75
1, 54624, Note_on_c, 0, 71, 75
1, 54647, Note_on_c, 0, 74, 0
1, 54647, Note_on_c, 0, 71, 0
1, 54648, Note_on_c, 0, 76, 75
1, 54648, Note_on_c, 0, 72, 75
1, 54671, Note_on_c, 0, 76, 0
1, 54671, Note_on_c, 0, 72, 0
1, 54672, Note_on_c, 0, 77, 75
1, 54672, Note_on_c, 0, 74, 75
1, 54695, Note_on_c, 0, 77, 0
1, 54695, Note_on_c, 0, 74, 0
1, 54696, Note_on_c, 0, 76, 75
1, 54696, Note_on_c, 0, 72, 75
1, 54719, Note_on_c, 0, 76, 0
1, 54719, Note_on_c, 0, 72, 0
1, 54720, Note_on_c, 0, 74, 76
1, 54720, Note_on_c, 0, 71, 76
1, 54740, Note_on_c, 0, 74, 0
1, 54740, Note_on_c, 0, 71, 0
1, 54744, Note_on_c, 1, 52, 76
1, 54768, Note_on_c, 1, 52, 0
1, 54768, Note_on_c, 1, 40, 76
1, 54792, Note_on_c, 0, 80, 76
1, 54792, Note_on_c, 0, 74, 76
1, 54813, Note_on_c, 1, 40, 0
1, 54816, Note_on_c, 0, 80, 0
1, 54816, Note_on_c, 0, 74, 0
1, 54816, Note_on_c, 0, 81, 76
1, 54816, Note_on_c, 0, 72, 76
1, 54836, Note_on_c, 0, 81, 0
1, 54836, Note_on_c, 0, 72, 0
1, 54840, Note_on_c, 1, 52, 76
1, 54864, Note_on_c, 1, 52, 0
1, 54864, Note_on_c, 1, 40, 77
1, 54888, Note_on_c, 0, 72, 77
1, 54888, Note_on_c, 0, 69, 77
1, 54909, Note_on_c, 1, 40, 0
1, 54912, Note_on_c, 0, 72, 0
1, 54912, Note_on_c, 0, 69, 0
1, 54912, Note_on_c, 0, 71, 77
1, 54912, Note_on_c, 0, 68, 77
1, 54936, Note_on_c, 1, 52, 77
1, 54957, Note_on_c, 0, 71, 0
1, 54957, Note_on_c, 0, 68, 0
1, 54960, Note_on_c, 1, 52, 0
1, 54960, Note_on_c, 1, 40, 77
1, 54984, Note_on_c, 0, 72, 78
1, 54984, Note_on_c, 0, 69, 78
1, 55005, Note_on_c, 1, 40, 0
1, 55007, Note_on_c, 0, 72, 0
1, 55007, Note_on_c, 0, 69, 0
1, 55008, Note_on_c, 0, 71, 78
1, 55008, Note_on_c, 0, 68, 78
1, 55031, Note_on_c, 0, 71, 0
1, 55031, Note_on_c, 0, 68, 0
1, 55032, Note_on_c, 0, 72, 78
1, 55032, Note_on_c, 0, 69, 78
1, 55055, Note_on_c, 0, 72, 0
1, 55055, Note_on_c, 0, 69, 0
1, 55056, Note_on_c, 0, 71, 78
1, 55056, Note_on_c, 0, 68, 78
1, 55079, Note_on_c, 0, 71, 0
1, 55079, Note_on_c, 0, 68, 0
1, 55080, Note_on_c, 0, 72, 79
1, 55080, Note_on_c, 0, 69, 79
1, 55103, Note_on_c, 0, 72, 0
1, 55103, Note_on_c, 0, 69, 0
1, 55104, Note_on_c, 0, 71, 79
1, 55104, Note_on_c, 0, 68, 79
1, 55124, Note_on_c, 0, 71, 0
1, 55124, Note_on_c, 0, 68, 0
1, 55176, Note_on_c, 0, 51, 79
1, 55176, Note_on_c, 1, 39, 79
1, 55199, Note_on_c, 0, 51, 0
1, 55199, Note_on_c, 1, 39, 0
1, 55200, Note_on_c, 0, 52, 80
1, 55200, Note_on_c, 1, 40, 80
1, 55223, Note_on_c, 0, 52, 0
1, 55223, Note_on_c, 1, 40, 0
1, 55224, Note_on_c, 0, 51, 80
1, 55224, Note_on_c, 1, 39, 80
1, 55247, Note_on_c, 0, 51, 0
1, 55247, Note_on_c, 1, 39, 0
1, 55248, Note_on_c, 0, 52, 80
1, 55248, Note_on_c, 1, 40, 80
1, 55271, Note_on_c, 0, 52, 0
1, 55271, Note_on_c, 1, 40, 0
1, 55272, Note_on_c, 0, 51, 80
1, 55272, Note_on_c, 1, 39, 80
1, 55295, Note_on_c, 0, 51, 0
1, 55295, Note_on_c, 1, 39, 0
1, 55296, Note_on_c, 0, 52, 80
1, 55296, Note_on_c, 1, 40, 80
1, 55316, Note_on_c, 0, 52, 0
1, 55316, Note_on_c, 1, 40, 0
1, 55368, Note_on_c, 0, 75, 64
1, 55391, Note_on_c, 0, 75, 0
1, 55392, Note_on_c, 0, 76, 64
1, 55415, Note_on_c, 0, 76, 0
1, 55416, Note_on_c, 0, 75, 64
1, 55439, Note_on_c, 0, 75, 0
1, 55440, Note_on_c, 0, 76, 64
1, 55463, Note_on_c, 0, 76, 0
1, 55464, Note_on_c, 0, 75, 64
1, 55487, Note_on_c, 0, 75, 0
1, 55488, Note_on_c, 0, 76, 64
1, 55533, Note_on_c, 0, 76, 0
1, 55560, Note_on_c, 1, 63, 64
1, 55583, Note_on_c, 1, 63, 0
1, 55584, Note_on_c, 1, 64, 64
1, 55607, Note_on_c, 1, 64, 0
1, 55608, Note_on_c, 1, 63, 64
1, 55631, Note_on_c, 1, 63, 0
1, 55632, Note_on_c, 1, 64, 64
1, 55655, Note_on_c, 1, 64, 0
1, 55656, Note_on_c, 1, 63, 64
1, 55679, Note_on_c, 1, 63, 0
1, 55680, Note_on_c, 1, 64, 64
1, 55725, Note_on_c, 1, 64, 0
1, 55752, Note_on_c, 0, 75, 64
1, 55775, Note_on_c, 0, 75, 0
1, 55776, Note_on_c, 0, 76, 64
1, 55799, Note_on_c, 0, 76, 0
1, 55800, Note_on_c, 0, 75, 64
1, 55823, Note_on_c, 0, 75, 0
1, 55824, Note_on_c, 0, 76, 64
1, 55847, Note_on_c, 0, 76, 0
1, 55848, Note_on_c, 0, 75, 64
1, 55871, Note_on_c, 0, 75, 0
1, 55872, Note_on_c, 0, 76, 64
1, 55917, Note_on_c, 0, 76, 0
1, 55944, Note_on_c, 0, 75, 58
1, 55967, Note_on_c, 0, 75, 0
1, 55968, Note_on_c, 0, 76, 58
1, 55991, Note_on_c, 0, 76, 0
1, 55992, Note_on_c, 0, 75, 58
1, 56015, Note_on_c, 0, 75, 0
1, 56016, Note_on_c, 0, 76, 58
1, 56039, Note_on_c, 0, 76, 0
1, 56040, Note_on_c, 0, 75, 58
1, 56063, Note_on_c, 0, 75, 0
1, 56064, Note_on_c, 0, 76, 58
1, 56109, Note_on_c, 0, 76, 0
1, 56136, Note_on_c, 0, 75, 64
1, 56159, Note_on_c, 0, 75, 0
1, 56160, Note_on_c, 0, 76, 65
1, 56160, Note_on_c, 1, 70, 64
1, 56160, Note_on_c, 1, 67, 64
1, 56183, Note_on_c, 0, 76, 0
1, 56184, Note_on_c, 0, 75, 66
1, 56207, Note_on_c, 0, 75, 0
1, 56208, Note_on_c, 0, 76, 67
1, 56208, Note_on_c, 1, 70, 0
1, 56208, Note_on_c, 1, 67, 0
1, 56208, Note_on_c, 1, 69, 66
1, 56208, Note_on_c, 1, 65, 66
1, 56231, Note_on_c, 0, 76, 0
1, 56232, Note_on_c, 0, 77, 68
1, 56253, Note_on_c, 1, 69, 0
1, 56253, Note_on_c, 1, 65, 0
1, 56255, Note_on_c, 0, 77, 0
1, 56256, Note_on_c, 0, 79, 70
1, 56256, Note_on_c, 1, 67, 69
1, 56256, Note_on_c, 1, 64, 69
1, 56276, Note_on_c, 1, 67, 0
1, 56276, Note_on_c, 1, 64, 0
1, 56301, Note_on_c, 0, 79, 0
1, 56328, Note_on_c, 0, 78, 73
1, 56351, Note_on_c, 0, 78, 0
1, 56352, Note_on_c, 0, 79, 75
1, 56352, Note_on_c, 1, 67, 74
1, 56352, Note_on_c, 1, 64, 74
1, 56375, Note_on_c, 0, 79, 0
1, 56376, Note_on_c, 0, 78, 76
1, 56399, Note_on_c, 0, 78, 0
1, 56400, Note_on_c, 0, 79, 77
1, 56400, Note_on_c, 1, 67, 0
1, 56400, Note_on_c, 1, 64, 0
1, 56400, Note_on_c, 1, 65, 77
1, 56400, Note_on_c, 1, 62, 77
1, 56423, Note_on_c, 0, 79, 0
1, 56424, Note_on_c, 0, 81, 78
1, 56445, Note_on_c, 1, 65, 0
1, 56445, Note_on_c, 1, 62, 0
1, 56447, Note_on_c, 0, 81, 0
1, 56448, Note_on_c, 0, 82, 98
1, 56448, Note_on_c, 1, 64, 98
1, 56448, Note_on_c, 1, 61, 98
1, 56581, Note_on_c, 0, 82, 0
1, 56592, Note_on_c, 0, 81, 80
1, 56604, Note_on_c, 0, 81, 0
1, 56604, Note_on_c, 0, 79, 80
1, 56616, Note_on_c, 0, 79, 0
1, 56616, Note_on_c, 0, 77, 80
1, 56625, Note_on_c, 1, 64, 0
1, 56625, Note_on_c, 1, 61, 0
1, 56628, Note_on_c, 0, 77, 0
1, 56628, Note_on_c, 0, 76, 80
1, 56640, Note_on_c, 0, 76, 0
1, 56640, Note_on_c, 0, 74, 80
1, 56640, Note_on_c, 1, 65, 80
1, 56640, Note_on_c, 1, 62, 80
1, 56655, Note_on_c, 0, 74, 0
1, 56656, Note_on_c, 0, 81, 80
1, 56671, Note_on_c, 0, 81, 0
1, 56672, Note_on_c, 0, 79, 80
1, 56687, Note_on_c, 0, 79, 0
1, 56688, Note_on_c, 0, 77, 80
1, 56703, Note_on_c, 0, 77, 0
1, 56704, Note_on_c, 0, 76, 80
1, 56719, Note_on_c, 0, 76, 0
1, 56720, Note_on_c, 0, 74, 80
1, 56729, Note_on_c, 1, 65, 0
1, 56729, Note_on_c, 1, 62, 0
1, 56735, Note_on_c, 0, 74, 0
1, 56736, Note_on_c, 0, 73, 80
1, 56736, Note_on_c, 1, 67, 80
1, 56736, Note_on_c, 1, 64, 80
1, 56736, Note_on_c, 1, 62, 80
1, 56751, Note_on_c, 0, 73, 0
1, 56752, Note_on_c, 0, 79, 80
1, 56767, Note_on_c, 0, 79, 0
1, 56768, Note_on_c, 0, 77, 80
1, 56783, Note_on_c, 0, 77, 0
1, 56784, Note_on_c, 0, 76, 80
1, 56799, Note_on_c, 0, 76, 0
1, 56800, Note_on_c, 0, 74, 80
1, 56815, Note_on_c, 0, 74, 0
1, 56816, Note_on_c, 0, 73, 80
1, 56825, Note_on_c, 1, 67, 0
1, 56825, Note_on_c, 1, 64, 0
1, 56825, Note_on_c, 1, 62, 0
1, 56831, Note_on_c, 0, 73, 0
1, 56832, Note_on_c, 0, 74, 80
1, 56832, Note_on_c, 1, 65, 80
1, 56832, Note_on_c, 1, 62, 80
1, 56847, Note_on_c, 0, 74, 0
1, 56848, Note_on_c, 0, 81, 80
1, 56863, Note_on_c, 0, 81, 0
1, 56864, Note_on_c, 0, 79, 80
1, 56879, Note_on_c, 0, 79, 0
1, 56880, Note_on_c, 0, 77, 80
1, 56895, Note_on_c, 0, 77, 0
1, 56896, Note_on_c, 0, 76, 80
1, 56911, Note_on_c, 0, 76, 0
1, 56912, Note_on_c, 0, 74, 80
1, 56921, Note_on_c, 1, 65, 0
1, 56921, Note_on_c, 1, 62, 0
1, 56927, Note_on_c, 0, 74, 0
1, 56928, Note_on_c, 0, 73, 80
1, 56928, Note_on_c, 1, 67, 80
1, 56928, Note_on_c, 1, 64, 80
1, 56928, Note_on_c, 1, 62, 80
1, 56943, Note_on_c, 0, 73, 0
1, 56944, Note_on_c, 0, 79, 80
1, 56959, Note_on_c, 0, 79, 0
1, 56960, Note_on_c, 0, 77, 80
1, 56975, Note_on_c, 0, 77, 0
1, 56976, Note_on_c, 0, 76, 80
1, 56991, Note_on_c, 0, 76, 0
1, 56992, Note_on_c, 0, 74, 80
1, 57007, Note_on_c, 0, 74, 0
1, 57008, Note_on_c, 0, 73, 80
1, 57017, Note_on_c, 1, 67, 0
1, 57017, Note_on_c, 1, 64, 0
1, 57017, Note_on_c, 1, 62, 0
1, 57023, Note_on_c, 0, 73, 0
1, 57024, Note_on_c, 0, 74, 80
1, 57048, Note_on_c, 1, 62, 64
1, 57069, Note_on_c, 0, 74, 0
1, 57071, Note_on_c, 1, 62, 0
1, 57072, Note_on_c, 1, 65, 64
1, 57095, Note_on_c, 1, 65, 0
1, 57096, Note_on_c, 1, 69, 64
1, 57119, Note_on_c, 1, 69, 0
1, 57120, Note_on_c, 1, 74, 64
1, 57140, Note_on_c, 1, 74, 0
1, 57144, Note_on_c, 0, 77, 64
1, 57167, Note_on_c, 0, 77, 0
1, 57168, Note_on_c, 0, 81, 64
1, 57191, Note_on_c, 0, 81, 0
1, 57192, Note_on_c, 0, 86, 64
1, 57215, Note_on_c, 0, 86, 0
1, 57216, Note_on_c, 0, 89, 64
1, 57236, Note_on_c, 0, 89, 0
1, 57288, Note_on_c, 0, 49, 80
1, 57288, Note_on_c, 1, 37, 80
1, 57311, Note_on_c, 0, 49, 0
1, 57311, Note_on_c, 1, 37, 0
1, 57312, Note_on_c, 0, 50, 80
1, 57312, Note_on_c, 1, 38, 80
1, 57335, Note_on_c, 0, 50, 0
1, 57335, Note_on_c, 1, 38, 0
1, 57336, Note_on_c, 0, 49, 80
1, 57336, Note_on_c, 1, 37, 80
1, 57359, Note_on_c, 0, 49, 0
1, 57359, Note_on_c, 1, 37, 0
1, 57360, Note_on_c, 0, 50, 80
1, 57360, Note_on_c, 1, 38, 80
1, 57383, Note_on_c, 0, 50, 0
1, 57383, Note_on_c, 1, 38, 0
1, 57384, Note_on_c, 0, 49, 80
1, 57384, Note_on_c, 1, 37, 80
1, 57407, Note_on_c, 0, 49, 0
1, 57407, Note_on_c, 1, 37, 0
1, 57408, Note_on_c, 0, 50, 80
1, 57408, Note_on_c, 1, 38, 80
1, 57428, Note_on_c, 0, 50, 0
1, 57428, Note_on_c, 1, 38, 0
1, 57480, Note_on_c, 0, 73, 64
1, 57503, Note_on_c, 0, 73, 0
1, 57504, Note_on_c, 0, 74, 64
1, 57504, Note_on_c, 1, 69, 64
1, 57504, Note_on_c, 1, 65, 64
1, 57527, Note_on_c, 0, 74, 0
1, 57528, Note_on_c, 0, 73, 64
1, 57551, Note_on_c, 0, 73, 0
1, 57552, Note_on_c, 0, 74, 64
1, 57552, Note_on_c, 1, 69, 0
1, 57552, Note_on_c, 1, 65, 0
1, 57552, Note_on_c, 1, 67, 64
1, 57552, Note_on_c, 1, 64, 64
1, 57575, Note_on_c, 0, 74, 0
1, 57576, Note_on_c, 0, 76, 64
1, 57597, Note_on_c, 1, 67, 0
1, 57597, Note_on_c, 1, 64, 0
1, 57599, Note_on_c, 0, 76, 0
1, 57600, Note_on_c, 0, 77, 64
1, 57600, Note_on_c, 1, 65, 64
1, 57600, Note_on_c, 1, 62, 64
1, 57645, Note_on_c, 0, 77, 0
1, 57645, Note_on_c, 1, 65, 0
1, 57645, Note_on_c, 1, 62, 0
1, 57672, Note_on_c, 0, 76, 64
1, 57695, Note_on_c, 0, 76, 0
1, 57696, Note_on_c, 0, 77, 64
1, 57696, Note_on_c, 1, 65, 64
1, 57696, Note_on_c, 1, 62, 64
1, 57719, Note_on_c, 0, 77, 0
1, 57720, Note_on_c, 0, 76, 64
1, 57743, Note_on_c, 0, 76, 0
1, 57744, Note_on_c, 0, 77, 64
1, 57744, Note_on_c, 1, 65, 0
1, 57744, Note_on_c, 1, 62, 0
1, 57744, Note_on_c, 1, 64, 64
1, 57744, Note_on_c, 1, 60, 64
1, 57767, Note_on_c, 0, 77, 0
1, 57768, Note_on_c, 0, 79, 64
1, 57789, Note_on_c, 1, 64, 0
1, 57789, Note_on_c, 1, 60, 0
1, 57791, Note_on_c, 0, 79, 0
1, 57792, Note_on_c, 0, 80, 64
1, 57792, Note_on_c, 1, 62, 64
1, 57792, Note_on_c, 1, 59, 64
1, 57837, Note_on_c, 0, 80, 0
1, 57837, Note_on_c, 1, 62, 0
1, 57837, Note_on_c, 1, 59, 0
1, 57864, Note_on_c, 0, 56, 80
1, 57864, Note_on_c, 1, 44, 64
1, 57887, Note_on_c, 0, 56, 0
1, 57887, Note_on_c, 1, 44, 0
1, 57888, Note_on_c, 0, 55, 80
1, 57888, Note_on_c, 1, 43, 64
1, 57911, Note_on_c, 0, 55, 0
1, 57911, Note_on_c, 1, 43, 0
1, 57912, Note_on_c, 0, 56, 80
1, 57912, Note_on_c, 1, 44, 64
1, 57935, Note_on_c, 0, 56, 0
1, 57935, Note_on_c, 1, 44, 0
1, 57936, Note_on_c, 0, 55, 80
1, 57936, Note_on_c, 1, 43, 64
1, 57959, Note_on_c, 0, 55, 0
1, 57959, Note_on_c, 1, 43, 0
1, 57960, Note_on_c, 0, 56, 80
1, 57960, Note_on_c, 1, 44, 64
1, 57983, Note_on_c, 0, 56, 0
1, 57983, Note_on_c, 1, 44, 0
1, 57984, Note_on_c, 0, 55, 80
1, 57984, Note_on_c, 1, 43, 64
1, 58004, Note_on_c, 0, 55, 0
1, 58004, Note_on_c, 1, 43, 0
1, 58032, Tempo, 555555
1, 58056, Note_on_c, 0, 64, 70
1, 58079, Note_on_c, 0, 64, 0
1, 58080, Note_on_c, 0, 65, 70
1, 58080, Note_on_c, 1, 62, 70
1, 58080, Note_on_c, 1, 59, 70
1, 58103, Note_on_c, 0, 65, 0
1, 58104, Note_on_c, 0, 64, 70
1, 58127, Note_on_c, 0, 64, 0
1, 58128, Note_on_c, 0, 65, 70
1, 58128, Note_on_c, 1, 62, 0
1, 58128, Note_on_c, 1, 59, 0
1, 58128, Note_on_c, 1, 60, 70
1, 58128, Note_on_c, 1, 57, 70
1, 58151, Note_on_c, 0, 65, 0
1, 58152, Note_on_c, 0, 64, 70
1, 58173, Note_on_c, 1, 60, 0
1, 58173, Note_on_c, 1, 57, 0
1, 58175, Note_on_c, 0, 64, 0
1, 58176, Note_on_c, 0, 65, 70
1, 58176, Note_on_c, 1, 59, 70
1, 58176, Note_on_c, 1, 55, 70
1, 58221, Note_on_c, 0, 65, 0
1, 58221, Note_on_c, 1, 59, 0
1, 58221, Note_on_c, 1, 55, 0
1, 58248, Tempo, 576923
1, 58248, Note_on_c, 1, 66, 75
1, 58271, Note_on_c, 1, 66, 0
1, 58272, Note_on_c, 0, 77, 75
1, 58272, Note_on_c, 0, 74, 75
1, 58272, Note_on_c, 1, 67, 75
1, 58295, Note_on_c, 1, 67, 0
1, 58296, Note_on_c, 1, 66, 75
1, 58319, Note_on_c, 1, 66, 0
1, 58320, Note_on_c, 0, 77, 0
1, 58320, Note_on_c, 0, 74, 0
1, 58320, Note_on_c, 0, 76, 75
1, 58320, Note_on_c, 0, 72, 75
1, 58320, Note_on_c, 1, 67, 75
1, 58343, Note_on_c, 1, 67, 0
1, 58344, Note_on_c, 1, 66, 75
1, 58365, Note_on_c, 0, 76, 0
1, 58365, Note_on_c, 0, 72, 0
1, 58367, Note_on_c, 1, 66, 0
1, 58368, Note_on_c, 0, 74, 75
1, 58368, Note_on_c, 0, 71, 75
1, 58368, Note_on_c, 1, 67, 75
1, 58413, Note_on_c, 0, 74, 0
1, 58413, Note_on_c, 0, 71, 0
1, 58413, Note_on_c, 1, 67, 0
1, 58440, Note_on_c, 1, 66, 80
1, 58463, Note_on_c, 1, 66, 0
1, 58464, Tempo, 600000
1, 58464, Note_on_c, 0, 86, 80
1, 58464, Note_on_c, 0, 77, 80
1, 58464, Note_on_c, 1, 67, 80
1, 58487, Note_on_c, 1, 67, 0
1, 58488, Note_on_c, 1, 66, 80
1, 58511, Note_on_c, 1, 66, 0
1, 58512, Note_on_c, 0, 86, 0
1, 58512, Note_on_c, 0, 77, 0
1, 58512, Note_on_c, 0, 84, 80
1, 58512, Note_on_c, 0, 76, 80
1, 58512, Note_on_c, 1, 67, 80
1, 58532, Note_on_c, 0, 84, 0
1, 58532, Note_on_c, 0, 76, 0
1, 58535, Note_on_c, 1, 67, 0
1, 58536, Note_on_c, 1, 66, 80
1, 58559, Note_on_c, 1, 66, 0
1, 58560, Note_on_c, 0, 83, 80
1, 58560, Note_on_c, 0, 74, 80
1, 58560, Note_on_c, 1, 67, 80
1, 58580, Note_on_c, 0, 83, 0
1, 58580, Note_on_c, 0, 74, 0
1, 58605, Note_on_c, 1, 67, 0
1, 58656, Tempo, 625000
1, 58656, Note_on_c, 0, 89, 86
1, 58656, Note_on_c, 0, 86, 86
1, 58656, Note_on_c, 0, 83, 86
1, 58656, Note_on_c, 0, 79, 86
1, 58656, Note_on_c, 1, 65, 86
1, 58656, Note_on_c, 1, 62, 86
1, 58656, Note_on_c, 1, 59, 86
1, 58656, Note_on_c, 1, 55, 86
1, 58701, Note_on_c, 0, 89, 0
1, 58701, Note_on_c, 0, 86, 0
1, 58701, Note_on_c, 0, 83, 0
1, 58701, Note_on_c, 0, 79, 0
1, 58701, Note_on_c, 1, 65, 0
1, 58701, Note_on_c, 1, 62, 0
1, 58701, Note_on_c, 1, 59, 0
1, 58701, Note_on_c, 1, 55, 0
1, 58704, Note_on_c, 0, 89, 86
1, 58704, Note_on_c, 0, 86, 86
1, 58704, Note_on_c, 0, 83, 86
1, 58704, Note_on_c, 0, 79, 86
1, 58704, Note_on_c, 1, 65, 86
1, 58704, Note_on_c, 1, 62, 86
1, 58704, Note_on_c, 1, 59, 86
1, 58704, Note_on_c, 1, 55, 86
1, 58749, Note_on_c, 0, 89, 0
1, 58749, Note_on_c, 0, 86, 0
1, 58749, Note_on_c, 0, 83, 0
1, 58749, Note_on_c, 0, 79, 0
1, 58749, Note_on_c, 1, 65, 0
1, 58749, Note_on_c, 1, 62, 0
1, 58749, Note_on_c, 1, 59, 0
1, 58749, Note_on_c, 1, 55, 0
1, 58752, Tempo, 923076
1, 58752, Note_on_c, 0, 89, 86
1, 58752, Note_on_c, 0, 86, 86
1, 58752, Note_on_c, 0, 83, 86
1, 58752, Note_on_c, 0, 79, 86
1, 58752, Note_on_c, 1, 65, 86
1, 58752, Note_on_c, 1, 62, 86
1, 58752, Note_on_c, 1, 59, 86
1, 58752, Note_on_c, 1, 55, 86
1, 58929, Note_on_c, 0, 89, 0
1, 58929, Note_on_c, 0, 86, 0
1, 58929, Note_on_c, 0, 83, 0
1, 58929, Note_on_c, 0, 79, 0
1, 58929, Note_on_c, 1, 65, 0
1, 58929, Note_on_c, 1, 62, 0
1, 58929, Note_on_c, 1, 59, 0
1, 58929, Note_on_c, 1, 55, 0
1, 58944, Tempo, 545454
1, 59136, Note_on_c, 0, 72, 64
1, 59156, Note_on_c, 0, 72, 0
1, 59232, Note_on_c, 0, 67, 64
1, 59252, Note_on_c, 0, 67, 0
1, 59328, Note_on_c, 0, 64, 64
1, 59348, Note_on_c, 0, 64, 0
1, 59376, Note_on_c, 1, 48, 64
1, 59424, Note_on_c, 1, 48, 0
1, 59424, Note_on_c, 1, 36, 64
1, 59444, Note_on_c, 1, 36, 0
1, 59472, Note_on_c, 0, 69, 64
1, 59520, Note_on_c, 0, 69, 0
1, 59520, Note_on_c, 0, 62, 64
1, 59540, Note_on_c, 0, 62, 0
1, 59568, Note_on_c, 1, 48, 64
1, 59616, Note_on_c, 1, 48, 0
1, 59616, Note_on_c, 1, 36, 64
1, 59636, Note_on_c, 1, 36, 0
1, 59664, Note_on_c, 0, 67, 64
1, 59712, Note_on_c, 0, 67, 0
1, 59712, Note_on_c, 0, 60, 64
1, 59732, Note_on_c, 0, 60, 0
1, 59760, Note_on_c, 1, 48, 64
1, 59808, Note_on_c, 1, 48, 0
1, 59808, Note_on_c, 1, 36, 64
1, 59828, Note_on_c, 1, 36, 0
1, 59856, Note_on_c, 0, 76, 64
1, 59904, Note_on_c, 0, 76, 0
1, 59904, Note_on_c, 0, 65, 64
1, 59924, Note_on_c, 0, 65, 0
1, 59928, Note_on_c, 1, 48, 64
1, 59951, Note_on_c, 1, 48, 0
1, 59952, Note_on_c, 1, 36, 64
1, 59975, Note_on_c, 1, 36, 0
1, 59976, Note_on_c, 1, 48, 64
1, 59999, Note_on_c, 1, 48, 0
1, 60000, Note_on_c, 1, 36, 64
1, 60024, Note_on_c, 0, 74, 64
1, 60045, Note_on_c, 1, 36, 0
1, 60047, Note_on_c, 0, 74, 0
1, 60048, Note_on_c, 0, 65, 64
1, 60071, Note_on_c, 0, 65, 0
1, 60072, Note_on_c, 0, 74, 64
1, 60095, Note_on_c, 0, 74, 0
1, 60096, Note_on_c, 0, 64, 64
1, 60120, Note_on_c, 1, 48, 64
1, 60141, Note_on_c, 0, 64, 0
1, 60143, Note_on_c, 1, 48, 0
1, 60144, Note_on_c, 1, 36, 64
1, 60167, Note_on_c, 1, 36, 0
1, 60168, Note_on_c, 1, 48, 64
1, 60191, Note_on_c, 1, 48, 0
1, 60192, Note_on_c, 1, 36, 64
1, 60216, Note_on_c, 0, 72, 64
1, 60237, Note_on_c, 1, 36, 0
1, 60239, Note_on_c, 0, 72, 0
1, 60240, Note_on_c, 0, 64, 64
1, 60263, Note_on_c, 0, 64, 0
1, 60264, Note_on_c, 0, 72, 64
1, 60287, Note_on_c, 0, 72, 0
1, 60288, Note_on_c, 0, 62, 64
1, 60336, Note_on_c, 0, 62, 0
1, 60336, Note_on_c, 0, 69, 64
1, 60381, Note_on_c, 0, 69, 0
1, 60384, Note_on_c, 0, 57, 64
1, 60432, Note_on_c, 0, 57, 0
1, 60432, Note_on_c, 0, 59, 64
1, 60477, Note_on_c, 0, 59, 0
1, 60480, Note_on_c, 0, 62, 64
1, 60504, Note_on_c, 1, 48, 64
1, 60527, Note_on_c, 1, 48, 0
1, 60528, Note_on_c, 0, 62, 0
1, 60528, Note_on_c, 0, 60, 64
1, 60528, Note_on_c, 1, 36, 64
1, 60551, Note_on_c, 1, 36, 0
1, 60552, Note_on_c, 1, 48, 64
1, 60573, Note_on_c, 0, 60, 0
1, 60575, Note_on_c, 1, 48, 0
1, 60576, Note_on_c, 1, 36, 64
1, 60621, Note_on_c, 1, 36, 0
1, 60624, Note_on_c, 0, 62, 64
1, 60624, Note_on_c, 0, 59, 64
1, 60644, Note_on_c, 0, 62, 0
1, 60644, Note_on_c, 0, 59, 0
1, 60672, Note_on_c, 0, 65, 64
1, 60672, Note_on_c, 0, 62, 64
1, 60696, Note_on_c, 1, 48, 64
1, 60719, Note_on_c, 1, 48, 0
1, 60720, Note_on_c, 0, 65, 0
1, 60720, Note_on_c, 0, 62, 0
1, 60720, Note_on_c, 0, 64, 64
1, 60720, Note_on_c, 0, 60, 64
1, 60720, Note_on_c, 1, 36, 64
1, 60743, Note_on_c, 1, 36, 0
1, 60744, Note_on_c, 1, 48, 64
1, 60765, Note_on_c, 0, 64, 0
1, 60765, Note_on_c, 0, 60, 0
1, 60767, Note_on_c, 1, 48, 0
1, 60768, Note_on_c, 1, 36, 64
1, 60813, Note_on_c, 1, 36, 0
1, 60816, Note_on_c, 0, 65, 64
1, 60816, Note_on_c, 0, 62, 64
1, 60836, Note_on_c, 0, 65, 0
1, 60836, Note_on_c, 0, 62, 0
1, 60864, Note_on_c, 0, 69, 64
1, 60864, Note_on_c, 0, 65, 64
1, 60888, Note_on_c, 1, 48, 64
1, 60911, Note_on_c, 1, 48, 0
1, 60912, Note_on_c, 0, 69, 0
1, 60912, Note_on_c, 0, 65, 0
1, 60912, Note_on_c, 0, 67, 64
1, 60912, Note_on_c, 0, 64, 64
1, 60912, Note_on_c, 1, 36, 65
1, 60935, Note_on_c, 1, 36, 0
1, 60936, Note_on_c, 1, 48, 66
1, 60957, Note_on_c, 0, 67, 0
1, 60957, Note_on_c, 0, 64, 0
1, 60959, Note_on_c, 1, 48, 0
1, 60960, Note_on_c, 1, 36, 67
1, 60984, Note_on_c, 0, 71, 67
1, 61005, Note_on_c, 1, 36, 0
1, 61007, Note_on_c, 0, 71, 0
1, 61008, Note_on_c, 0, 62, 68
1, 61031, Note_on_c, 0, 62, 0
1, 61032, Note_on_c, 0, 71, 69
1, 61055, Note_on_c, 0, 71, 0
1, 61056, Note_on_c, 0, 74, 70
1, 61056, Note_on_c, 0, 65, 70
1, 61080, Note_on_c, 1, 48, 73
1, 61103, Note_on_c, 1, 48, 0
1, 61104, Note_on_c, 0, 74, 0
1, 61104, Note_on_c, 0, 65, 0
1, 61104, Note_on_c, 0, 72, 73
1, 61104, Note_on_c, 0, 64, 73
1, 61104, Note_on_c, 1, 36, 75
1, 61127, Note_on_c, 1, 36, 0
1, 61128, Note_on_c, 1, 48, 76
1, 61149, Note_on_c, 0, 72, 0
1, 61149, Note_on_c, 0, 64, 0
1, 61151, Note_on_c, 1, 48, 0
1, 61152, Note_on_c, 1, 36, 77
1, 61197, Note_on_c, 1, 36, 0
1, 61200, Note_on_c, 0, 74, 77
1, 61200, Note_on_c, 0, 71, 77
1, 61220, Note_on_c, 0, 74, 0
1, 61220, Note_on_c, 0, 71, 0
1, 61248, Tempo, 1500000
1, 61248, Note_on_c, 0, 77, 98
1, 61248, Note_on_c, 0, 74, 98
1, 61344, Note_on_c, 0, 77, 0
1, 61344, Note_on_c, 0, 74, 0
1, 61344, Note_on_c, 0, 76, 64
1, 61344, Note_on_c, 0, 72, 64
1, 61359, Note_on_c, 0, 76, 0
1, 61359, Note_on_c, 0, 72, 0
1, 61440, Tempo, 545454
1, 61440, Note_on_c, 0, 72, 80
1, 61440, Note_on_c, 1, 36, 80
1, 61446, Note_on_c, 0, 76, 80
1, 61446, Note_on_c, 1, 40, 80
1, 61452, Note_on_c, 0, 79, 80
1, 61452, Note_on_c, 1, 43, 80
1, 61458, Note_on_c, 0, 84, 80
1, 61458, Note_on_c, 1, 48, 80
1, 61485, Note_on_c, 0, 84, 0
1, 61485, Note_on_c, 0, 79, 0
1, 61485, Note_on_c, 0, 76, 0
1, 61485, Note_on_c, 0, 72, 0
1, 61485, Note_on_c, 1, 48, 0
1, 61485, Note_on_c, 1, 43, 0
1, 61485, Note_on_c, 1, 40, 0
1, 61485, Note_on_c, 1, 36, 0
1, 61536, Note_on_c, 0, 71, 80
1, 61536, Note_on_c, 1, 43, 80
1, 61542, Note_on_c, 1, 47, 80
1, 61544, Note_on_c, 0, 74, 80
1, 61548, Note_on_c, 1, 50, 80
1, 61552, Note_on_c, 0, 79, 80
1, 61554, Note_on_c, 1, 55, 80
1, 61581, Note_on_c, 0, 79, 0
1, 61581, Note_on_c, 0, 74, 0
1, 61581, Note_on_c, 0, 71, 0
1, 61581, Note_on_c, 1, 55, 0
1, 61581, Note_on_c, 1, 50, 0
1, 61581, Note_on_c, 1, 47, 0
1, 61581, Note_on_c, 1, 43, 0
1, 61632, Note_on_c, 0, 67, 80
1, 61632, Note_on_c, 1, 48, 80
1, 61638, Note_on_c, 1, 52, 80
1, 61640, Note_on_c, 0, 72, 80
1, 61644, Note_on_c, 1, 55, 80
1, 61648, Note_on_c, 0, 76, 80
1, 61650, Note_on_c, 1, 60, 80
1, 61677, Note_on_c, 0, 76, 0
1, 61677, Note_on_c, 0, 72, 0
1, 61677, Note_on_c, 0, 67, 0
1, 61677, Note_on_c, 1, 60, 0
1, 61677, Note_on_c, 1, 55, 0
1, 61677, Note_on_c, 1, 52, 0
1, 61677, Note_on_c, 1, 48, 0
1, 61776, Note_on_c, 0, 83, 75
1, 61788, Note_on_c, 0, 83, 0
1, 61788, Note_on_c, 0, 81, 75
1, 61800, Note_on_c, 0, 81, 0
1, 61800, Note_on_c, 0, 80, 75
1, 61812, Note_on_c, 0, 80, 0
1, 61812, Note_on_c, 0, 81, 75
1, 61824, Note_on_c, 0, 81, 0
1, 61824, Note_on_c, 0, 74, 75
1, 61844, Note_on_c, 0, 74, 0
1, 61872, Note_on_c, 1, 67, 75
1, 61884, Note_on_c, 1, 67, 0
1, 61884, Note_on_c, 1, 65, 75
1, 61896, Note_on_c, 1, 65, 0
1, 61896, Note_on_c, 1, 64, 75
1, 61908, Note_on_c, 1, 64, 0
1, 61908, Note_on_c, 1, 65, 75
1, 61920, Note_on_c, 1, 65, 0
1, 61920, Note_on_c, 1, 71, 75
1, 61940, Note_on_c, 1, 71, 0
1, 61968, Note_on_c, 0, 81, 75
1, 61980, Note_on_c, 0, 81, 0
1, 61980, Note_on_c, 0, 79, 75
1, 61992, Note_on_c, 0, 79, 0
1, 61992, Note_on_c, 0, 78, 75
1, 62004, Note_on_c, 0, 78, 0
1, 62004, Note_on_c, 0, 79, 75
1, 62016, Note_on_c, 0, 79, 0
1, 62016, Note_on_c, 0, 72, 75
1, 62036, Note_on_c, 0, 72, 0
1, 62064, Note_on_c, 1, 65, 75
1, 62076, Note_on_c, 1, 65, 0
1, 62076, Note_on_c, 1, 64, 75
1, 62088, Note_on_c, 1, 64, 0
1, 62088, Note_on_c, 1, 62, 75
1, 62100, Note_on_c, 1, 62, 0
1, 62100, Note_on_c, 1, 64, 75
1, 62112, Note_on_c, 1, 64, 0
1, 62112, Note_on_c, 1, 72, 75
1, 62132, Note_on_c, 1, 72, 0
1, 62160, Note_on_c, 0, 88, 75
1, 62208, Note_on_c, 0, 88, 0
1, 62208, Note_on_c, 0, 77, 75
1, 62228, Note_on_c, 0, 77, 0
1, 62232, Note_on_c, 1, 62, 75
1, 62255, Note_on_c, 1, 62, 0
1, 62256, Note_on_c, 1, 61, 75
1, 62279, Note_on_c, 1, 61, 0
1, 62280, Note_on_c, 1, 62, 75
1, 62303, Note_on_c, 1, 62, 0
1, 62304, Note_on_c, 1, 60, 75
1, 62327, Note_on_c, 1, 60, 0
1, 62328, Note_on_c, 1, 59, 75
1, 62351, Note_on_c, 1, 59, 0
1, 62352, Note_on_c, 0, 86, 75
1, 62352, Note_on_c, 1, 57, 75
1, 62375, Note_on_c, 1, 57, 0
1, 62376, Note_on_c, 1, 55, 75
1, 62399, Note_on_c, 1, 55, 0
1, 62400, Note_on_c, 0, 86, 0
1, 62400, Note_on_c, 0, 76, 75
1, 62420, Note_on_c, 0, 76, 0
1, 62424, Note_on_c, 1, 60, 75
1, 62447, Note_on_c, 1, 60, 0
1, 62448, Note_on_c, 1, 62, 75
1, 62471, Note_on_c, 1, 62, 0
1, 62472, Note_on_c, 1, 64, 75
1, 62495, Note_on_c, 1, 64, 0
1, 62496, Note_on_c, 1, 65, 75
1, 62519, Note_on_c, 1, 65, 0
1, 62520, Note_on_c, 1, 67, 75
1, 62543, Note_on_c, 1, 67, 0
1, 62544, Note_on_c, 0, 84, 75
1, 62544, Note_on_c, 1, 68, 75
1, 62567, Note_on_c, 1, 68, 0
1, 62568, Note_on_c, 1, 69, 75
1, 62591, Note_on_c, 1, 69, 0
1, 62592, Note_on_c, 0, 84, 0
1, 62592, Note_on_c, 0, 74, 75
1, 62592, Note_on_c, 1, 65, 75
1, 62612, Note_on_c, 0, 74, 0
1, 62640, Note_on_c, 0, 81, 75
1, 62640, Note_on_c, 0, 77, 75
1, 62681, Note_on_c, 1, 65, 0
1, 62685, Note_on_c, 0, 81, 0
1, 62685, Note_on_c, 0, 77, 0
1, 62688, Note_on_c, 0, 79, 75
1, 62688, Note_on_c, 0, 76, 75
1, 62736, Note_on_c, 0, 79, 0
1, 62736, Note_on_c, 0, 76, 0
1, 62736, Note_on_c, 0, 71, 75
1, 62736, Note_on_c, 1, 67, 75
1, 62781, Note_on_c, 0, 71, 0
1, 62781, Note_on_c, 1, 67, 0
1, 62784, Note_on_c, 0, 72, 75
1, 62784, Note_on_c, 1, 64, 64
1, 62784, Note_on_c, 1, 60, 70
1, 62804, Note_on_c, 0, 72, 0
1, 62807, Note_on_c, 1, 64, 0
1, 62808, Note_on_c, 1, 67, 64
1, 62829, Note_on_c, 1, 60, 0
1, 62831, Note_on_c, 1, 67, 0
1, 62832, Note_on_c, 0, 72, 75
1, 62832, Note_on_c, 1, 64, 64
1, 62832, Note_on_c, 1, 60, 70
1, 62852, Note_on_c, 0, 72, 0
1, 62855, Note_on_c, 1, 64, 0
1, 62856, Note_on_c, 1, 67, 64
1, 62877, Note_on_c, 1, 60, 0
1, 62879, Note_on_c, 1, 67, 0
1, 62880, Note_on_c, 1, 64, 64
1, 62880, Note_on_c, 1, 60, 70
1, 62903, Note_on_c, 1, 64, 0
1, 62904, Note_on_c, 1, 67, 64
1, 62925, Note_on_c, 1, 60, 0
1, 62927, Note_on_c, 1, 67, 0
1, 62928, Note_on_c, 0, 81, 80
1, 62928, Note_on_c, 1, 64, 64
1, 62928, Note_on_c, 1, 60, 70
1, 62940, Note_on_c, 0, 81, 0
1, 62940, Note_on_c, 0, 79, 80
1, 62951, Note_on_c, 1, 64, 0
1, 62952, Note_on_c, 0, 79, 0
1, 62952, Note_on_c, 0, 78, 80
1, 62952, Note_on_c, 1, 67, 64
1, 62964, Note_on_c, 0, 78, 0
1, 62964, Note_on_c, 0, 79, 80
1, 62973, Note_on_c, 1, 60, 0
1, 62975, Note_on_c, 1, 67, 0
1, 62976, Note_on_c, 0, 79, 0
1, 62976, Note_on_c, 0, 71, 80
1, 62976, Note_on_c, 1, 65, 64
1, 62976, Note_on_c, 1, 60, 70
1, 62996, Note_on_c, 0, 71, 0
1, 62999, Note_on_c, 1, 65, 0
1, 63000, Note_on_c, 1, 67, 64
1, 63021, Note_on_c, 1, 60, 0
1, 63023, Note_on_c, 1, 67, 0
1, 63024, Note_on_c, 0, 71, 80
1, 63024, Note_on_c, 1, 65, 64
1, 63024, Note_on_c, 1, 60, 70
1, 63044, Note_on_c, 0, 71, 0
1, 63047, Note_on_c, 1, 65, 0
1, 63048, Note_on_c, 1, 67, 64
1, 63069, Note_on_c, 1, 60, 0
1, 63071, Note_on_c, 1, 67, 0
1, 63072, Note_on_c, 1, 65, 64
1, 63072, Note_on_c, 1, 60, 70
1, 63095, Note_on_c, 1, 65, 0
1, 63096, Note_on_c, 1, 67, 64
1, 63117, Note_on_c, 1, 60, 0
1, 63119, Note_on_c, 1, 67, 0
1, 63120, Note_on_c, 0, 81, 80
1, 63120, Note_on_c, 1, 65, 64
1, 63120, Note_on_c, 1, 60, 70
1, 63132, Note_on_c, 0, 81, 0
1, 63132, Note_on_c, 0, 79, 80
1, 63143, Note_on_c, 1, 65, 0
1, 63144, Note_on_c, 0, 79, 0
1, 63144, Note_on_c, 0, 78, 80
1, 63144, Note_on_c, 1, 67, 64
1, 63156, Note_on_c, 0, 78, 0
1, 63156, Note_on_c, 0, 79, 80
1, 63165, Note_on_c, 1, 60, 0
1, 63167, Note_on_c, 1, 67, 0
1, 63168, Note_on_c, 0, 79, 0
1, 63168, Note_on_c, 0, 84, 80
1, 63168, Note_on_c, 1, 64, 64
1, 63168, Note_on_c, 1, 60, 70
1, 63191, Note_on_c, 1, 64, 0
1, 63192, Note_on_c, 1, 67, 64
1, 63213, Note_on_c, 1, 60, 0
1, 63215, Note_on_c, 1, 67, 0
1, 63216, Note_on_c, 0, 84, 0
1, 63216, Note_on_c, 0, 88, 80
1, 63216, Note_on_c, 1, 64, 64
1, 63216, Note_on_c, 1, 60, 70
1, 63239, Note_on_c, 1, 64, 0
1, 63240, Note_on_c, 1, 67, 64
1, 63261, Note_on_c, 0, 88, 0
1, 63261, Note_on_c, 1, 60, 0
1, 63263, Note_on_c, 1, 67, 0
1, 63264, Note_on_c, 1, 64, 64
1, 63264, Note_on_c, 1, 60, 70
1, 63287, Note_on_c, 1, 64, 0
1, 63288, Note_on_c, 0, 79, 70
1, 63288, Note_on_c, 1, 67, 64
1, 63309, Note_on_c, 1, 60, 0
1, 63311, Note_on_c, 0, 79, 0
1, 63311, Note_on_c, 1, 67, 0
1, 63312, Note_on_c, 0, 81, 70
1, 63312, Note_on_c, 1, 64, 64
1, 63312, Note_on_c, 1, 60, 70
1, 63324, Note_on_c, 0, 81, 0
1, 63324, Note_on_c, 0, 79, 70
1, 63335, Note_on_c, 1, 64, 0
1, 63336, Note_on_c, 0, 79, 0
1, 63336, Note_on_c, 0, 78, 70
1, 63336, Note_on_c, 1, 67, 64
1, 63348, Note_on_c, 0, 78, 0
1, 63348, Note_on_c, 0, 79, 70
1, 63357, Note_on_c, 1, 60, 0
1, 63359, Note_on_c, 1, 67, 0
1, 63360, Note_on_c, 0, 79, 0
1, 63360, Note_on_c, 0, 71, 70
1, 63360, Note_on_c, 1, 65, 64
1, 63360, Note_on_c, 1, 60, 70
1, 63380, Note_on_c, 0, 71, 0
1, 63383, Note_on_c, 1, 65, 0
1, 63384, Note_on_c, 1, 67, 64
1, 63405, Note_on_c, 1, 60, 0
1, 63407, Note_on_c, 1, 67, 0
1, 63408, Note_on_c, 0, 71, 70
1, 63408, Note_on_c, 1, 65, 64
1, 63408, Note_on_c, 1, 60, 70
1, 63428, Note_on_c, 0, 71, 0
1, 63431, Note_on_c, 1, 65, 0
1, 63432, Note_on_c, 1, 67, 64
1, 63453, Note_on_c, 1, 60, 0
1, 63455, Note_on_c, 1, 67, 0
1, 63456, Note_on_c, 1, 65, 64
1, 63456, Note_on_c, 1, 60, 70
1, 63479, Note_on_c, 1, 65, 0
1, 63480, Note_on_c, 0, 79, 70
1, 63480, Note_on_c, 1, 67, 64
1, 63501, Note_on_c, 1, 60, 0
1, 63503, Note_on_c, 0, 79, 0
1, 63503, Note_on_c, 1, 67, 0
1, 63504, Note_on_c, 0, 81, 70
1, 63504, Note_on_c, 1, 65, 64
1, 63504, Note_on_c, 1, 60, 70
1, 63516, Note_on_c, 0, 81, 0
1, 63516, Note_on_c, 0, 79, 70
1, 63527, Note_on_c, 1, 65, 0
1, 63528, Note_on_c, 0, 79, 0
1, 63528, Note_on_c, 0, 78, 70
1, 63528, Note_on_c, 1, 67, 64
1, 63540, Note_on_c, 0, 78, 0
1, 63540, Note_on_c, 0, 79, 70
1, 63549, Note_on_c, 1, 60, 0
1, 63551, Note_on_c, 1, 67, 0
1, 63552, Note_on_c, 0, 79, 0
1, 63552, Note_on_c, 0, 84, 70
1, 63552, Note_on_c, 1, 64, 64
1, 63552, Note_on_c, 1, 60, 70
1, 63575, Note_on_c, 1, 64, 0
1, 63576, Note_on_c, 1, 67, 64
1, 63597, Note_on_c, 1, 60, 0
1, 63599, Note_on_c, 1, 67, 0
1, 63600, Note_on_c, 0, 84, 0
1, 63600, Note_on_c, 0, 88, 70
1, 63600, Note_on_c, 1, 64, 64
1, 63600, Note_on_c, 1, 60, 70
1, 63623, Note_on_c, 1, 64, 0
1, 63624, Note_on_c, 1, 67, 64
1, 63645, Note_on_c, 0, 88, 0
1, 63645, Note_on_c, 1, 60, 0
1, 63647, Note_on_c, 1, 67, 0
1, 63648, Note_on_c, 1, 64, 64
1, 63648, Note_on_c, 1, 60, 70
1, 63671, Note_on_c, 1, 64, 0
1, 63672, Note_on_c, 0, 79, 80
1, 63672, Note_on_c, 1, 67, 64
1, 63693, Note_on_c, 1, 60, 0
1, 63695, Note_on_c, 0, 79, 0
1, 63695, Note_on_c, 1, 67, 0
1, 63696, Note_on_c, 0, 81, 80
1, 63696, Note_on_c, 1, 64, 64
1, 63696, Note_on_c, 1, 60, 70
1, 63708, Note_on_c, 0, 81, 0
1, 63708, Note_on_c, 0, 79, 80
1, 63719, Note_on_c, 1, 64, 0
1, 63720, Note_on_c, 0, 79, 0
1, 63720, Note_on_c, 0, 78, 80
1, 63720, Note_on_c, 1, 67, 64
1, 63732, Note_on_c, 0, 78, 0
1, 63732, Note_on_c, 0, 79, 80
1, 63741, Note_on_c, 1, 60, 0
1, 63743, Note_on_c, 1, 67, 0
1, 63744, Note_on_c, 0, 79, 0
1, 63744, Note_on_c, 0, 71, 80
1, 63744, Note_on_c, 1, 65, 64
1, 63744, Note_on_c, 1, 60, 70
1, 63764, Note_on_c, 0, 71, 0
1, 63767, Note_on_c, 1, 65, 0
1, 63768, Note_on_c, 1, 67, 64
1, 63789, Note_on_c, 1, 60, 0
1, 63791, Note_on_c, 1, 67, 0
1, 63792, Note_on_c, 0, 71, 80
1, 63792, Note_on_c, 1, 65, 64
1, 63792, Note_on_c, 1, 60, 70
1, 63812, Note_on_c, 0, 71, 0
1, 63815, Note_on_c, 1, 65, 0
1, 63816, Note_on_c, 1, 67, 64
1, 63837, Note_on_c, 1, 60, 0
1, 63839, Note_on_c, 1, 67, 0
1, 63840, Note_on_c, 1, 65, 64
1, 63840, Note_on_c, 1, 60, 70
1, 63863, Note_on_c, 1, 65, 0
1, 63864, Note_on_c, 1, 67, 64
1, 63885, Note_on_c, 1, 60, 0
1, 63887, Note_on_c, 1, 67, 0
1, 63888, Note_on_c, 0, 81, 80
1, 63888, Note_on_c, 1, 65, 64
1, 63888, Note_on_c, 1, 60, 70
1, 63900, Note_on_c, 0, 81, 0
1, 63900, Note_on_c, 0, 79, 80
1, 63911, Note_on_c, 1, 65, 0
1, 63912, Note_on_c, 0, 79, 0
1, 63912, Note_on_c, 0, 78, 80
1, 63912, Note_on_c, 1, 67, 64
1, 63924, Note_on_c, 0, 78, 0
1, 63924, Note_on_c, 0, 79, 80
1, 63933, Note_on_c, 1, 60, 0
1, 63935, Note_on_c, 1, 67, 0
1, 63936, Note_on_c, 0, 79, 0
1, 63936, Note_on_c, 0, 72, 80
1, 63936, Note_on_c, 1, 64, 64
1, 63936, Note_on_c, 1, 60, 70
1, 63956, Note_on_c, 0, 72, 0
1, 63959, Note_on_c, 1, 64, 0
1, 63960, Note_on_c, 1, 67, 64
1, 63981, Note_on_c, 1, 60, 0
1, 63983, Note_on_c, 1, 67, 0
1, 63984, Note_on_c, 0, 81, 80
1, 63984, Note_on_c, 1, 64, 64
1, 63984, Note_on_c, 1, 60, 70
1, 63996, Note_on_c, 0, 81, 0
1, 63996, Note_on_c, 0, 79, 80
1, 64007, Note_on_c, 1, 64, 0
1, 64008, Note_on_c, 0, 79, 0
1, 64008, Note_on_c, 0, 78, 80
1, 64008, Note_on_c, 1, 67, 64
1, 64020, Note_on_c, 0, 78, 0
1, 64020, Note_on_c, 0, 79, 80
1, 64029, Note_on_c, 1, 60, 0
1, 64031, Note_on_c, 1, 67, 0
1, 64032, Note_on_c, 0, 79, 0
1, 64032, Note_on_c, 0, 74, 80
1, 64032, Note_on_c, 1, 62, 64
1, 64032, Note_on_c, 1, 59, 70
1, 64052, Note_on_c, 0, 74, 0
1, 64055, Note_on_c, 1, 62, 0
1, 64056, Note_on_c, 1, 67, 64
1, 64077, Note_on_c, 1, 59, 0
1, 64079, Note_on_c, 1, 67, 0
1, 64080, Note_on_c, 0, 81, 80
1, 64080, Note_on_c, 1, 62, 64
1, 64080, Note_on_c, 1, 59, 70
1, 64092, Note_on_c, 0, 81, 0
1, 64092, Note_on_c, 0, 79, 80
1, 64103, Note_on_c, 1, 62, 0
1, 64104, Note_on_c, 0, 79, 0
1, 64104, Note_on_c, 0, 78, 80
1, 64104, Note_on_c, 1, 67, 64
1, 64116, Note_on_c, 0, 78, 0
1, 64116, Note_on_c, 0, 79, 80
1, 64125, Note_on_c, 1, 59, 0
1, 64127, Note_on_c, 1, 67, 0
1, 64128, Note_on_c, 0, 79, 0
1, 64128, Note_on_c, 0, 76, 80
1, 64128, Note_on_c, 1, 64, 64
1, 64128, Note_on_c, 1, 60, 70
1, 64148, Note_on_c, 0, 76, 0
1, 64151, Note_on_c, 1, 64, 0
1, 64152, Note_on_c, 1, 67, 64
1, 64173, Note_on_c, 1, 60, 0
1, 64175, Note_on_c, 1, 67, 0
1, 64176, Note_on_c, 0, 81, 80
1, 64176, Note_on_c, 1, 64, 64
1, 64176, Note_on_c, 1, 60, 70
1, 64188, Note_on_c, 0, 81, 0
1, 64188, Note_on_c, 0, 79, 80
1, 64199, Note_on_c, 1, 64, 0
1, 64200, Note_on_c, 0, 79, 0
1, 64200, Note_on_c, 0, 78, 80
1, 64200, Note_on_c, 1, 67, 64
1, 64212, Note_on_c, 0, 78, 0
1, 64212, Note_on_c, 0, 79, 80
1, 64221, Note_on_c, 1, 60, 0
1, 64223, Note_on_c, 1, 67, 0
1, 64224, Note_on_c, 0, 79, 0
1, 64224, Note_on_c, 0, 71, 80
1, 64224, Note_on_c, 1, 65, 64
1, 64224, Note_on_c, 1, 62, 70
1, 64244, Note_on_c, 0, 71, 0
1, 64247, Note_on_c, 1, 65, 0
1, 64248, Note_on_c, 1, 67, 64
1, 64269, Note_on_c, 1, 62, 0
1, 64271, Note_on_c, 1, 67, 0
1, 64272, Note_on_c, 0, 80, 80
1, 64272, Note_on_c, 1, 65, 64
1, 64272, Note_on_c, 1, 62, 70
1, 64284, Note_on_c, 0, 80, 0
1, 64284, Note_on_c, 0, 79, 80
1, 64295, Note_on_c, 1, 65, 0
1, 64296, Note_on_c, 0, 79, 0
1, 64296, Note_on_c, 0, 78, 80
1, 64296, Note_on_c, 1, 67, 64
1, 64308, Note_on_c, 0, 78, 0
1, 64308, Note_on_c, 0, 79, 80
1, 64317, Note_on_c, 1, 62, 0
1, 64319, Note_on_c, 1, 67, 0
1, 64320, Note_on_c, 0, 79, 0
1, 64320, Note_on_c, 0, 72, 75
1, 64320, Note_on_c, 1, 63, 64
1, 64320, Note_on_c, 1, 63, 70
1, 64340, Note_on_c, 0, 72, 0
1, 64343, Note_on_c, 1, 63, 0
1, 64344, Note_on_c, 1, 67, 64
1, 64365, Note_on_c, 1, 63, 0
1, 64367, Note_on_c, 1, 67, 0
1, 64368, Note_on_c, 0, 80, 75
1, 64368, Note_on_c, 1, 63, 65
1, 64368, Note_on_c, 1, 63, 70
1, 64380, Note_on_c, 0, 80, 0
1, 64380, Note_on_c, 0, 79, 75
1, 64391, Note_on_c, 1, 63, 0
1, 64392, Note_on_c, 0, 79, 0
1, 64392, Note_on_c, 0, 78, 75
1, 64392, Note_on_c, 1, 67, 66
1, 64404, Note_on_c, 0, 78, 0
1, 64404, Note_on_c, 0, 79, 76
1, 64413, Note_on_c, 1, 63, 0
1, 64415, Note_on_c, 1, 67, 0
1, 64416, Note_on_c, 0, 79, 0
1, 64416, Note_on_c, 0, 74, 76
1, 64416, Note_on_c, 1, 62, 66
1, 64416, Note_on_c, 1, 59, 70
1, 64436, Note_on_c, 0, 74, 0
1, 64439, Note_on_c, 1, 62, 0
1, 64440, Note_on_c, 1, 67, 67
1, 64461, Note_on_c, 1, 59, 0
1, 64463, Note_on_c, 1, 67, 0
1, 64464, Note_on_c, 0, 80, 76
1, 64464, Note_on_c, 1, 62, 68
1, 64464, Note_on_c, 1, 59, 71
1, 64476, Note_on_c, 0, 80, 0
1, 64476, Note_on_c, 0, 79, 76
1, 64487, Note_on_c, 1, 62, 0
1, 64488, Note_on_c, 0, 79, 0
1, 64488, Note_on_c, 0, 78, 77
1, 64488, Note_on_c, 1, 67, 68
1, 64500, Note_on_c, 0, 78, 0
1, 64500, Note_on_c, 0, 79, 77
1, 64509, Note_on_c, 1, 59, 0
1, 64511, Note_on_c, 1, 67, 0
1, 64512, Note_on_c, 0, 79, 0
1, 64512, Note_on_c, 0, 75, 77
1, 64512, Note_on_c, 1, 63, 69
1, 64512, Note_on_c, 1, 60, 69
1, 64532, Note_on_c, 0, 75, 0
1, 64560, Note_on_c, 0, 86, 77
1, 64572, Note_on_c, 0, 86, 0
1, 64572, Note_on_c, 0, 84, 78
1, 64584, Note_on_c, 0, 84, 0
1, 64584, Note_on_c, 0, 83, 78
1, 64596, Note_on_c, 0, 83, 0
1, 64596, Note_on_c, 0, 84, 78
1, 64601, Note_on_c, 1, 63, 0
1, 64601, Note_on_c, 1, 60, 0
1, 64608, Note_on_c, 0, 84, 0
1, 64608, Note_on_c, 0, 79, 78
1, 64628, Note_on_c, 0, 79, 0
1, 64656, Note_on_c, 0, 89, 79
1, 64668, Note_on_c, 0, 89, 0
1, 64668, Note_on_c, 0, 87, 79
1, 64680, Note_on_c, 0, 87, 0
1, 64680, Note_on_c, 0, 86, 79
1, 64692, Note_on_c, 0, 86, 0
1, 64692, Note_on_c, 0, 87, 79
1, 64704, Note_on_c, 0, 87, 0
1, 64704, Note_on_c, 1, 60, 74
1, 64704, Note_on_c, 1, 56, 74
1, 64728, Note_on_c, 0, 83, 80
1, 64751, Note_on_c, 0, 83, 0
1, 64752, Note_on_c, 0, 86, 80
1, 64775, Note_on_c, 0, 86, 0
1, 64776, Note_on_c, 0, 84, 80
1, 64799, Note_on_c, 0, 84, 0
1, 64800, Note_on_c, 0, 82, 80
1, 64823, Note_on_c, 0, 82, 0
1, 64824, Note_on_c, 0, 80, 80
1, 64847, Note_on_c, 0, 80, 0
1, 64848, Note_on_c, 0, 79, 80
1, 64871, Note_on_c, 0, 79, 0
1, 64872, Note_on_c, 0, 78, 80
1, 64895, Note_on_c, 0, 78, 0
1, 64896, Note_on_c, 0, 79, 80
1, 64896, Note_on_c, 1, 60, 0
1, 64896, Note_on_c, 1, 56, 0
1, 64896, Note_on_c, 1, 59, 80
1, 64896, Note_on_c, 1, 55, 80
1, 64919, Note_on_c, 0, 79, 0
1, 64920, Note_on_c, 0, 78, 80
1, 64943, Note_on_c, 0, 78, 0
1, 64944, Note_on_c, 0, 79, 80
1, 64967, Note_on_c, 0, 79, 0
1, 64968, Note_on_c, 0, 74, 80
1, 64985, Note_on_c, 1, 59, 0
1, 64985, Note_on_c, 1, 55, 0
1, 64991, Note_on_c, 0, 74, 0
1, 64992, Note_on_c, 0, 75, 80
1, 65015, Note_on_c, 0, 75, 0
1, 65016, Note_on_c, 0, 74, 80
1, 65039, Note_on_c, 0, 74, 0
1, 65040, Note_on_c, 0, 75, 80
1, 65063, Note_on_c, 0, 75, 0
1, 65064, Note_on_c, 0, 71, 80
1, 65087, Note_on_c, 0, 71, 0
1, 65088, Note_on_c, 0, 72, 80
1, 65111, Note_on_c, 0, 72, 0
1, 65112, Note_on_c, 0, 71, 80
1, 65135, Note_on_c, 0, 71, 0
1, 65136, Note_on_c, 0, 72, 80
1, 65159, Note_on_c, 0, 72, 0
1, 65160, Note_on_c, 0, 67, 80
1, 65183, Note_on_c, 0, 67, 0
1, 65184, Note_on_c, 0, 68, 80
1, 65207, Note_on_c, 0, 68, 0
1, 65208, Note_on_c, 0, 67, 80
1, 65231, Note_on_c, 0, 67, 0
1, 65232, Note_on_c, 0, 68, 80
1, 65255, Note_on_c, 0, 68, 0
1, 65256, Note_on_c, 0, 66, 80
1, 65279, Note_on_c, 0, 66, 0
1, 65280, Note_on_c, 0, 67, 80
1, 65280, Note_on_c, 1, 55, 80
1, 65303, Note_on_c, 0, 67, 0
1, 65303, Note_on_c, 1, 55, 0
1, 65304, Note_on_c, 0, 66, 80
1, 65304, Note_on_c, 1, 54, 80
1, 65327, Note_on_c, 0, 66, 0
1, 65327, Note_on_c, 1, 54, 0
1, 65328, Note_on_c, 0, 67, 80
1, 65328, Note_on_c, 1, 55, 80
1, 65351, Note_on_c, 0, 67, 0
1, 65351, Note_on_c, 1, 55, 0
1, 65352, Note_on_c, 0, 62, 80
1, 65352, Note_on_c, 1, 50, 80
1, 65375, Note_on_c, 0, 62, 0
1, 65375, Note_on_c, 1, 50, 0
1, 65376, Note_on_c, 0, 63, 80
1, 65376, Note_on_c, 1, 51, 80
1, 65399, Note_on_c, 0, 63, 0
1, 65399, Note_on_c, 1, 51, 0
1, 65400, Note_on_c, 0, 62, 80
1, 65400, Note_on_c, 1, 50, 80
1, 65423, Note_on_c, 0, 62, 0
1, 65423, Note_on_c, 1, 50, 0
1, 65424, Note_on_c, 0, 63, 80
1, 65424, Note_on_c, 1, 51, 80
1, 65447, Note_on_c, 0, 63, 0
1, 65447, Note_on_c, 1, 51, 0
1, 65448, Note_on_c, 0, 59, 80
1, 65448, Note_on_c, 1, 47, 80
1, 65471, Note_on_c, 0, 59, 0
1, 65471, Note_on_c, 1, 47, 0
1, 65472, Note_on_c, 0, 60, 80
1, 65472, Note_on_c, 1, 48, 80
1, 65495, Note_on_c, 0, 60, 0
1, 65495, Note_on_c, 1, 48, 0
1, 65496, Note_on_c, 0, 59, 80
1, 65496, Note_on_c, 1, 47, 80
1, 65519, Note_on_c, 0, 59, 0
1, 65519, Note_on_c, 1, 47, 0
1, 65520, Note_on_c, 0, 60, 80
1, 65520, Note_on_c, 1, 48, 80
1, 65543, Note_on_c, 0, 60, 0
1, 65543, Note_on_c, 1, 48, 0
1, 65544, Note_on_c, 0, 55, 80
1, 65544, Note_on_c, 1, 43, 80
1, 65567, Note_on_c, 0, 55, 0
1, 65567, Note_on_c, 1, 43, 0
1, 65568, Note_on_c, 0, 56, 80
1, 65568, Note_on_c, 1, 44, 80
1, 65591, Note_on_c, 0, 56, 0
1, 65591, Note_on_c, 1, 44, 0
1, 65592, Note_on_c, 0, 55, 80
1, 65592, Note_on_c, 1, 43, 80
1, 65615, Note_on_c, 0, 55, 0
1, 65615, Note_on_c, 1, 43, 0
1, 65616, Note_on_c, 0, 56, 80
1, 65616, Note_on_c, 1, 44, 80
1, 65639, Note_on_c, 0, 56, 0
1, 65639, Note_on_c, 1, 44, 0
1, 65640, Note_on_c, 0, 54, 80
1, 65640, Note_on_c, 1, 42, 80
1, 65663, Note_on_c, 0, 54, 0
1, 65663, Note_on_c, 1, 42, 0
1, 65664, Note_on_c, 1, 55, 80
1, 65664, Note_on_c, 1, 43, 75
1, 65687, Note_on_c, 1, 43, 0
1, 65688, Note_on_c, 1, 31, 75
1, 65711, Note_on_c, 1, 31, 0
1, 65712, Note_on_c, 1, 35, 75
1, 65735, Note_on_c, 1, 35, 0
1, 65736, Note_on_c, 1, 38, 75
1, 65753, Note_on_c, 1, 55, 0
1, 65759, Note_on_c, 1, 38, 0
1, 65760, Note_on_c, 1, 55, 80
1, 65760, Note_on_c, 1, 50, 80
1, 65760, Note_on_c, 1, 47, 80
1, 65760, Note_on_c, 1, 43, 75
1, 65783, Note_on_c, 1, 43, 0
1, 65784, Note_on_c, 1, 31, 75
1, 65807, Note_on_c, 1, 31, 0
1, 65808, Note_on_c, 1, 35, 75
1, 65831, Note_on_c, 1, 35, 0
1, 65832, Note_on_c, 1, 38, 75
1, 65849, Note_on_c, 1, 55, 0
1, 65849, Note_on_c, 1, 50, 0
1, 65849, Note_on_c, 1, 47, 0
1, 65855, Note_on_c, 1, 38, 0
1, 65856, Note_on_c, 1, 55, 80
1, 65856, Note_on_c, 1, 50, 80
1, 65856, Note_on_c, 1, 47, 80
1, 65856, Note_on_c, 1, 43, 75
1, 65945, Note_on_c, 1, 55, 0
1, 65945, Note_on_c, 1, 50, 0
1, 65945, Note_on_c, 1, 47, 0
1, 65945, Note_on_c, 1, 43, 0
1, 66048, Note_on_c, 1, 72, 58
1, 66096, Note_on_c, 0, 76, 58
1, 66137, Note_on_c, 1, 72, 0
1, 66144, Note_on_c, 1, 67, 58
1, 66185, Note_on_c, 0, 76, 0
1, 66192, Note_on_c, 0, 79, 58
1, 66233, Note_on_c, 1, 67, 0
1, 66240, Note_on_c, 1, 64, 58
1, 66281, Note_on_c, 0, 79, 0
1, 66288, Note_on_c, 0, 84, 58
1, 66329, Note_on_c, 1, 64, 0
1, 66336, Note_on_c, 1, 69, 58
1, 66377, Note_on_c, 0, 84, 0
1, 66384, Note_on_c, 0, 85, 58
1, 66384, Note_on_c, 0, 79, 58
1, 66425, Note_on_c, 1, 69, 0
1, 66432, Note_on_c, 1, 62, 58
1, 66477, Note_on_c, 0, 85, 0
1, 66477, Note_on_c, 0, 79, 0
1, 66480, Note_on_c, 0, 86, 58
1, 66480, Note_on_c, 0, 77, 58
1, 66521, Note_on_c, 1, 62, 0
1, 66528, Note_on_c, 1, 67, 58
1, 66569, Note_on_c, 0, 86, 0
1, 66569, Note_on_c, 0, 77, 0
1, 66576, Note_on_c, 0, 83, 58
1, 66576, Note_on_c, 0, 77, 58
1, 66617, Note_on_c, 1, 67, 0
1, 66624, Note_on_c, 1, 60, 58
1, 66665, Note_on_c, 0, 83, 0
1, 66665, Note_on_c, 0, 77, 0
1, 66672, Note_on_c, 0, 84, 58
1, 66672, Note_on_c, 0, 76, 58
1, 66713, Note_on_c, 1, 60, 0
1, 66720, Note_on_c, 1, 76, 58
1, 66761, Note_on_c, 0, 84, 0
1, 66761, Note_on_c, 0, 76, 0
1, 66768, Note_on_c, 0, 80, 58
1, 66816, Note_on_c, 1, 65, 58
1, 66861, Note_on_c, 0, 80, 0
1, 66864, Note_on_c, 0, 81, 58
1, 66905, Note_on_c, 1, 76, 0
1, 66912, Note_on_c, 1, 74, 58
1, 66953, Note_on_c, 0, 81, 0
1, 66960, Note_on_c, 0, 89, 58
1, 66993, Note_on_c, 1, 65, 0
1, 67008, Note_on_c, 1, 64, 58
1, 67049, Note_on_c, 0, 89, 0
1, 67056, Note_on_c, 0, 79, 58
1, 67089, Note_on_c, 1, 74, 0
1, 67104, Note_on_c, 1, 72, 58
1, 67145, Note_on_c, 0, 79, 0
1, 67152, Note_on_c, 0, 88, 58
1, 67185, Note_on_c, 1, 64, 0
1, 67200, Note_on_c, 1, 62, 58
1, 67245, Note_on_c, 0, 88, 0
1, 67248, Note_on_c, 0, 77, 58
1, 67289, Note_on_c, 1, 72, 0
1, 67296, Note_on_c, 1, 71, 58
1, 67337, Note_on_c, 0, 77, 0
1, 67344, Note_on_c, 0, 86, 58
1, 67377, Note_on_c, 1, 62, 0
1, 67385, Note_on_c, 1, 71, 0
1, 67392, Note_on_c, 1, 72, 58
1, 67392, Note_on_c, 1, 60, 58
1, 67433, Note_on_c, 0, 86, 0
1, 67440, Note_on_c, 0, 76, 58
1, 67481, Note_on_c, 1, 72, 0
1, 67481, Note_on_c, 1, 60, 0
1, 67488, Note_on_c, 1, 67, 58
1, 67488, Note_on_c, 1, 64, 58
1, 67488, Note_on_c, 1, 64, 58
1, 67529, Note_on_c, 0, 76, 0
1, 67536, Note_on_c, 0, 84, 58
1, 67577, Note_on_c, 1, 64, 0
1, 67584, Note_on_c, 1, 67, 0
1, 67584, Note_on_c, 1, 64, 0
1, 67584, Note_on_c, 1, 69, 58
1, 67584, Note_on_c, 1, 65, 58
1, 67629, Note_on_c, 0, 84, 0
1, 67632, Note_on_c, 0, 74, 60
1, 67678, Note_on_c, 1, 69, 0
1, 67678, Note_on_c, 1, 65, 0
1, 67680, Note_on_c, 1, 69, 62
1, 67680, Note_on_c, 1, 66, 62
1, 67728, Note_on_c, 0, 74, 0
1, 67728, Note_on_c, 0, 72, 66
1, 67769, Note_on_c, 1, 69, 0
1, 67769, Note_on_c, 1, 66, 0
1, 67773, Note_on_c, 0, 72, 0
1, 67776, Note_on_c, 0, 71, 68
1, 67776, Note_on_c, 1, 67, 66
1, 67799, Note_on_c, 0, 71, 0
1, 67800, Note_on_c, 0, 79, 70
1, 67823, Note_on_c, 0, 79, 0
1, 67824, Note_on_c, 0, 77, 70
1, 67847, Note_on_c, 0, 77, 0
1, 67848, Note_on_c, 0, 74, 70
1, 67865, Note_on_c, 1, 67, 0
1, 67871, Note_on_c, 0, 74, 0
1, 67872, Note_on_c, 0, 71, 70
1, 67896, Note_on_c, 1, 67, 70
1, 67917, Note_on_c, 0, 71, 0
1, 67919, Note_on_c, 1, 67, 0
1, 67920, Note_on_c, 1, 65, 70
1, 67943, Note_on_c, 1, 65, 0
1, 67944, Note_on_c, 1, 62, 70
1, 67967, Note_on_c, 1, 62, 0
1, 67968, Note_on_c, 1, 64, 70
1, 67992, Note_on_c, 0, 79, 70
1, 68013, Note_on_c, 1, 64, 0
1, 68015, Note_on_c, 0, 79, 0
1, 68016, Note_on_c, 0, 76, 70
1, 68039, Note_on_c, 0, 76, 0
1, 68040, Note_on_c, 0, 72, 70
1, 68063, Note_on_c, 0, 72, 0
1, 68064, Note_on_c, 0, 67, 70
1, 68088, Note_on_c, 1, 64, 70
1, 68109, Note_on_c, 0, 67, 0
1, 68111, Note_on_c, 1, 64, 0
1, 68112, Note_on_c, 1, 62, 70
1, 68135, Note_on_c, 1, 62, 0
1, 68136, Note_on_c, 1, 60, 70
1, 68159, Note_on_c, 1, 60, 0
1, 68160, Note_on_c, 1, 59, 70
1, 68184, Note_on_c, 0, 79, 70
1, 68205, Note_on_c, 1, 59, 0
1, 68207, Note_on_c, 0, 79, 0
1, 68208, Note_on_c, 0, 77, 70
1, 68231, Note_on_c, 0, 77, 0
1, 68232, Note_on_c, 0, 74, 70
1, 68255, Note_on_c, 0, 74, 0
1, 68256, Note_on_c, 0, 71, 70
1, 68280, Note_on_c, 1, 67, 70
1, 68301, Note_on_c, 0, 71, 0
1, 68303, Note_on_c, 1, 67, 0
1, 68304, Note_on_c, 1, 65, 70
1, 68327, Note_on_c, 1, 65, 0
1, 68328, Note_on_c, 1, 62, 70
1, 68351, Note_on_c, 1, 62, 0
1, 68352, Note_on_c, 1, 60, 70
1, 68376, Note_on_c, 0, 76, 70
1, 68397, Note_on_c, 1, 60, 0
1, 68400, Note_on_c, 0, 76, 0
1, 68400, Note_on_c, 0, 72, 70
1, 68423, Note_on_c, 0, 72, 0
1, 68424, Note_on_c, 1, 67, 70
1, 68448, Note_on_c, 1, 67, 0
1, 68448, Note_on_c, 1, 64, 70
1, 68471, Note_on_c, 1, 64, 0
1, 68472, Note_on_c, 0, 79, 64
1, 68496, Note_on_c, 0, 79, 0
1, 68496, Note_on_c, 0, 76, 65
1, 68519, Note_on_c, 0, 76, 0
1, 68520, Note_on_c, 1, 72, 66
1, 68544, Note_on_c, 1, 72, 0
1, 68544, Note_on_c, 1, 67, 67
1, 68567, Note_on_c, 1, 67, 0
1, 68568, Note_on_c, 0, 84, 68
1, 68592, Note_on_c, 0, 84, 0
1, 68592, Note_on_c, 0, 79, 69
1, 68615, Note_on_c, 0, 79, 0
1, 68616, Note_on_c, 1, 76, 70
1, 68640, Note_on_c, 1, 76, 0
1, 68640, Note_on_c, 1, 72, 71
1, 68663, Note_on_c, 1, 72, 0
1, 68664, Note_on_c, 0, 88, 72
1, 68688, Note_on_c, 0, 88, 0
1, 68688, Note_on_c, 0, 84, 73
1, 68711, Note_on_c, 0, 84, 0
1, 68712, Note_on_c, 1, 80, 74
1, 68736, Note_on_c, 1, 80, 0
1, 68736, Note_on_c, 1, 81, 75
1, 68759, Note_on_c, 1, 81, 0
1, 68760, Note_on_c, 0, 83, 75
1, 68784, Note_on_c, 0, 83, 0
1, 68784, Note_on_c, 0, 84, 75
1, 68807, Note_on_c, 0, 84, 0
1, 68808, Note_on_c, 1, 76, 75
1, 68832, Note_on_c, 1, 76, 0
1, 68832, Note_on_c, 1, 77, 75
1, 68855, Note_on_c, 1, 77, 0
1, 68856, Note_on_c, 0, 80, 75
1, 68880, Note_on_c, 0, 80, 0
1, 68880, Note_on_c, 0, 81, 75
1, 68903, Note_on_c, 0, 81, 0
1, 68904, Note_on_c, 1, 73, 75
1, 68928, Note_on_c, 1, 73, 0
1, 68928, Note_on_c, 1, 74, 75
1, 68951, Note_on_c, 1, 74, 0
1, 68952, Note_on_c, 0, 76, 75
1, 68976, Note_on_c, 0, 76, 0
1, 68976, Note_on_c, 0, 77, 75
1, 68999, Note_on_c, 0, 77, 0
1, 69000, Note_on_c, 1, 64, 75
1, 69024, Note_on_c, 1, 64, 0
1, 69024, Note_on_c, 1, 65, 75
1, 69047, Note_on_c, 1, 65, 0
1, 69048, Note_on_c, 0, 73, 75
1, 69072, Note_on_c, 0, 73, 0
1, 69072, Note_on_c, 0, 74, 75
1, 69095, Note_on_c, 0, 74, 0
1, 69096, Note_on_c, 1, 54, 75
1, 69120, Note_on_c, 1, 54, 0
1, 69120, Note_on_c, 1, 55, 75
1, 69144, Note_on_c, 0, 67, 75
1, 69167, Note_on_c, 0, 67, 0
1, 69168, Note_on_c, 0, 68, 75
1, 69191, Note_on_c, 0, 68, 0
1, 69192, Note_on_c, 0, 69, 75
1, 69209, Note_on_c, 1, 55, 0
1, 69215, Note_on_c, 0, 69, 0
1, 69216, Note_on_c, 0, 70, 75
1, 69239, Note_on_c, 0, 70, 0
1, 69240, Note_on_c, 0, 71, 75
1, 69263, Note_on_c, 0, 71, 0
1, 69264, Note_on_c, 0, 72, 75
1, 69287, Note_on_c, 0, 72, 0
1, 69288, Note_on_c, 0, 73, 75
1, 69311, Note_on_c, 0, 73, 0
1, 69312, Note_on_c, 0, 74, 75
1, 69335, Note_on_c, 0, 74, 0
1, 69336, Note_on_c, 0, 75, 75
1, 69359, Note_on_c, 0, 75, 0
1, 69360, Note_on_c, 0, 76, 75
1, 69383, Note_on_c, 0, 76, 0
1, 69384, Note_on_c, 0, 77, 75
1, 69407, Note_on_c, 0, 77, 0
1, 69408, Note_on_c, 0, 78, 75
1, 69431, Note_on_c, 0, 78, 0
1, 69432, Note_on_c, 0, 79, 75
1, 69455, Note_on_c, 0, 79, 0
1, 69456, Note_on_c, 0, 76, 75
1, 69479, Note_on_c, 0, 76, 0
1, 69480, Note_on_c, 0, 72, 75
1, 69503, Note_on_c, 0, 72, 0
1, 69504, Note_on_c, 0, 76, 96
1, 69504, Note_on_c, 1, 65, 80
1, 69504, Note_on_c, 1, 62, 80
1, 69504, Note_on_c, 1, 59, 80
1, 69504, Note_on_c, 1, 55, 80
1, 69517, Note_on_c, 0, 76, 0
1, 69517, Note_on_c, 0, 74, 80
1, 69529, Note_on_c, 0, 74, 0
1, 69530, Note_on_c, 0, 76, 80
1, 69542, Note_on_c, 0, 76, 0
1, 69543, Note_on_c, 0, 74, 80
1, 69555, Note_on_c, 0, 74, 0
1, 69556, Note_on_c, 0, 76, 80
1, 69568, Note_on_c, 0, 76, 0
1, 69569, Note_on_c, 0, 74, 80
1, 69581, Note_on_c, 0, 74, 0
1, 69582, Note_on_c, 0, 76, 80
1, 69594, Note_on_c, 0, 76, 0
1, 69595, Note_on_c, 0, 74, 80
1, 69607, Note_on_c, 0, 74, 0
1, 69608, Note_on_c, 0, 76, 80
1, 69620, Note_on_c, 0, 76, 0
1, 69621, Note_on_c, 0, 74, 80
1, 69633, Note_on_c, 0, 74, 0
1, 69634, Note_on_c, 0, 76, 80
1, 69646, Note_on_c, 0, 76, 0
1, 69647, Note_on_c, 0, 74, 80
1, 69659, Note_on_c, 0, 74, 0
1, 69660, Note_on_c, 0, 76, 80
1, 69672, Note_on_c, 0, 76, 0
1, 69673, Note_on_c, 0, 74, 80
1, 69681, Note_on_c, 1, 65, 0
1, 69681, Note_on_c, 1, 62, 0
1, 69681, Note_on_c, 1, 59, 0
1, 69681, Note_on_c, 1, 55, 0
1, 69685, Note_on_c, 0, 74, 0
1, 69686, Note_on_c, 0, 76, 80
1, 69696, Note_on_c, 1, 81, 70
1, 69698, Note_on_c, 0, 76, 0
1, 69699, Note_on_c, 0, 74, 80
1, 69711, Note_on_c, 0, 74, 0
1, 69712, Note_on_c, 0, 76, 80
1, 69724, Note_on_c, 0, 76, 0
1, 69725, Note_on_c, 0, 74, 80
1, 69732, Note_on_c, 1, 81, 0
1, 69732, Note_on_c, 1, 83, 64
1, 69737, Note_on_c, 0, 74, 0
1, 69738, Note_on_c, 0, 76, 80
1, 69744, Note_on_c, 1, 83, 0
1, 69744, Note_on_c, 1, 84, 64
1, 69750, Note_on_c, 0, 76, 0
1, 69751, Note_on_c, 0, 74, 80
1, 69756, Note_on_c, 1, 84, 0
1, 69756, Note_on_c, 1, 83, 64
1, 69763, Note_on_c, 0, 74, 0
1, 69764, Note_on_c, 0, 76, 80
1, 69768, Note_on_c, 1, 83, 0
1, 69768, Note_on_c, 1, 84, 64
1, 69776, Note_on_c, 0, 76, 0
1, 69777, Note_on_c, 0, 74, 80
1, 69780, Note_on_c, 1, 84, 0
1, 69780, Note_on_c, 1, 83, 64
1, 69789, Note_on_c, 0, 74, 0
1, 69790, Note_on_c, 0, 76, 80
1, 69792, Note_on_c, 1, 83, 0
1, 69792, Note_on_c, 1, 84, 64
1, 69802, Note_on_c, 0, 76, 0
1, 69803, Note_on_c, 0, 74, 80
1, 69804, Note_on_c, 1, 84, 0
1, 69804, Note_on_c, 1, 83, 64
1, 69815, Note_on_c, 0, 74, 0
1, 69816, Note_on_c, 0, 76, 80
1, 69816, Note_on_c, 1, 83, 0
1, 69816, Note_on_c, 1, 84, 64
1, 69828, Note_on_c, 0, 76, 0
1, 69828, Note_on_c, 0, 74, 80
1, 69828, Note_on_c, 1, 84, 0
1, 69828, Note_on_c, 1, 83, 64
1, 69840, Note_on_c, 0, 74, 0
1, 69840, Note_on_c, 0, 76, 80
1, 69840, Note_on_c, 1, 83, 0
1, 69840, Note_on_c, 1, 84, 64
1, 69852, Note_on_c, 0, 76, 0
1, 69852, Note_on_c, 0, 74, 80
1, 69852, Note_on_c, 1, 84, 0
1, 69852, Note_on_c, 1, 83, 64
1, 69864, Note_on_c, 0, 74, 0
1, 69864, Note_on_c, 0, 72, 80
1, 69864, Note_on_c, 1, 83, 0
1, 69864, Note_on_c, 1, 81, 64
1, 69876, Note_on_c, 0, 72, 0
1, 69876, Note_on_c, 0, 74, 80
1, 69876, Note_on_c, 1, 81, 0
1, 69876, Note_on_c, 1, 83, 64
1, 69888, Note_on_c, 0, 74, 0
1, 69888, Note_on_c, 1, 83, 0
1, 69888, Note_on_c, 1, 48, 80
1, 69912, Note_on_c, 0, 76, 75
1, 69912, Note_on_c, 0, 72, 75
1, 69912, Note_on_c, 1, 48, 0
1, 69912, Note_on_c, 1, 60, 64
1, 69935, Note_on_c, 1, 60, 0
1, 69936, Note_on_c, 0, 76, 0
1, 69936, Note_on_c, 0, 72, 0
1, 69936, Note_on_c, 0, 74, 75
1, 69936, Note_on_c, 0, 71, 75
1, 69936, Note_on_c, 1, 48, 64
1, 69946, Note_on_c, 0, 74, 0
1, 69946, Note_on_c, 0, 71, 0
1, 69959, Note_on_c, 1, 48, 0
1, 69960, Note_on_c, 0, 77, 76
1, 69960, Note_on_c, 0, 74, 76
1, 69960, Note_on_c, 1, 60, 64
1, 69983, Note_on_c, 1, 60, 0
1, 69984, Note_on_c, 0, 77, 0
1, 69984, Note_on_c, 0, 74, 0
1, 69984, Note_on_c, 0, 76, 77
1, 69984, Note_on_c, 0, 72, 77
1, 69984, Note_on_c, 1, 48, 64
1, 69994, Note_on_c, 0, 76, 0
1, 69994, Note_on_c, 0, 72, 0
1, 70007, Note_on_c, 1, 48, 0
1, 70008, Note_on_c, 0, 79, 77
1, 70008, Note_on_c, 0, 76, 77
1, 70008, Note_on_c, 1, 60, 64
1, 70031, Note_on_c, 1, 60, 0
1, 70032, Note_on_c, 0, 79, 0
1, 70032, Note_on_c, 0, 76, 0
1, 70032, Note_on_c, 0, 77, 78
1, 70032, Note_on_c, 0, 74, 78
1, 70032, Note_on_c, 1, 48, 64
1, 70042, Note_on_c, 0, 77, 0
1, 70042, Note_on_c, 0, 74, 0
1, 70055, Note_on_c, 1, 48, 0
1, 70056, Note_on_c, 0, 81, 79
1, 70056, Note_on_c, 0, 77, 79
1, 70056, Note_on_c, 1, 60, 64
1, 70079, Note_on_c, 1, 60, 0
1, 70080, Note_on_c, 0, 81, 0
1, 70080, Note_on_c, 0, 77, 0
1, 70080, Note_on_c, 0, 79, 96
1, 70080, Note_on_c, 0, 76, 96
1, 70080, Note_on_c, 1, 48, 64
1, 70100, Note_on_c, 0, 79, 0
1, 70100, Note_on_c, 0, 76, 0
1, 70103, Note_on_c, 1, 48, 0
1, 70104, Note_on_c, 1, 60, 64
1, 70127, Note_on_c, 1, 60, 0
1, 70128, Note_on_c, 1, 48, 64
1, 70151, Note_on_c, 1, 48, 0
1, 70152, Note_on_c, 0, 77, 74
1, 70152, Note_on_c, 0, 74, 74
1, 70152, Note_on_c, 1, 60, 64
1, 70175, Note_on_c, 1, 60, 0
1, 70176, Note_on_c, 0, 77, 0
1, 70176, Note_on_c, 0, 74, 0
1, 70176, Note_on_c, 0, 76, 72
1, 70176, Note_on_c, 0, 72, 72
1, 70176, Note_on_c, 1, 48, 64
1, 70196, Note_on_c, 0, 76, 0
1, 70196, Note_on_c, 0, 72, 0
1, 70199, Note_on_c, 1, 48, 0
1, 70200, Note_on_c, 1, 60, 64
1, 70223, Note_on_c, 1, 60, 0
1, 70224, Note_on_c, 1, 48, 64
1, 70247, Note_on_c, 1, 48, 0
1, 70248, Note_on_c, 0, 74, 66
1, 70248, Note_on_c, 0, 65, 66
1, 70248, Note_on_c, 1, 60, 64
1, 70271, Note_on_c, 1, 60, 0
1, 70272, Note_on_c, 0, 74, 0
1, 70272, Note_on_c, 0, 65, 0
1, 70272, Note_on_c, 0, 72, 64
1, 70272, Note_on_c, 0, 64, 64
1, 70272, Note_on_c, 1, 48, 64
1, 70282, Note_on_c, 0, 72, 0
1, 70282, Note_on_c, 0, 64, 0
1, 70295, Note_on_c, 1, 48, 0
1, 70296, Note_on_c, 0, 76, 66
1, 70296, Note_on_c, 0, 72, 66
1, 70296, Note_on_c, 1, 60, 64
1, 70319, Note_on_c, 1, 60, 0
1, 70320, Note_on_c, 0, 76, 0
1, 70320, Note_on_c, 0, 72, 0
1, 70320, Note_on_c, 0, 74, 68
1, 70320, Note_on_c, 0, 71, 68
1, 70320, Note_on_c, 1, 48, 64
1, 70330, Note_on_c, 0, 74, 0
1, 70330, Note_on_c, 0, 71, 0
1, 70343, Note_on_c, 1, 48, 0
1, 70344, Note_on_c, 0, 77, 70
1, 70344, Note_on_c, 0, 74, 70
1, 70344, Note_on_c, 1, 60, 64
1, 70367, Note_on_c, 1, 60, 0
1, 70368, Note_on_c, 0, 77, 0
1, 70368, Note_on_c, 0, 74, 0
1, 70368, Note_on_c, 0, 76, 72
1, 70368, Note_on_c, 0, 72, 72
1, 70368, Note_on_c, 1, 48, 64
1, 70378, Note_on_c, 0, 76, 0
1, 70378, Note_on_c, 0, 72, 0
1, 70391, Note_on_c, 1, 48, 0
1, 70392, Note_on_c, 0, 79, 74
1, 70392, Note_on_c, 0, 76, 74
1, 70392, Note_on_c, 1, 60, 64
1, 70415, Note_on_c, 1, 60, 0
1, 70416, Note_on_c, 0, 79, 0
1, 70416, Note_on_c, 0, 76, 0
1, 70416, Note_on_c, 0, 77, 76
1, 70416, Note_on_c, 0, 74, 76
1, 70416, Note_on_c, 1, 48, 64
1, 70426, Note_on_c, 0, 77, 0
1, 70426, Note_on_c, 0, 74, 0
1, 70439, Note_on_c, 1, 48, 0
1, 70440, Note_on_c, 0, 81, 78
1, 70440, Note_on_c, 0, 77, 78
1, 70440, Note_on_c, 1, 60, 64
1, 70463, Note_on_c, 1, 60, 0
1, 70464, Note_on_c, 0, 81, 0
1, 70464, Note_on_c, 0, 77, 0
1, 70464, Note_on_c, 0, 79, 96
1, 70464, Note_on_c, 0, 76, 96
1, 70464, Note_on_c, 1, 48, 64
1, 70484, Note_on_c, 0, 79, 0
1, 70484, Note_on_c, 0, 76, 0
1, 70487, Note_on_c, 1, 48, 0
1, 70488, Note_on_c, 1, 60, 64
1, 70511, Note_on_c, 1, 60, 0
1, 70512, Note_on_c, 1, 48, 64
1, 70535, Note_on_c, 1, 48, 0
1, 70536, Note_on_c, 0, 77, 74
1, 70536, Note_on_c, 0, 74, 74
1, 70536, Note_on_c, 1, 60, 64
1, 70559, Note_on_c, 1, 60, 0
1, 70560, Note_on_c, 0, 77, 0
1, 70560, Note_on_c, 0, 74, 0
1, 70560, Note_on_c, 0, 76, 72
1, 70560, Note_on_c, 0, 72, 72
1, 70560, Note_on_c, 1, 48, 64
1, 70580, Note_on_c, 0, 76, 0
1, 70580, Note_on_c, 0, 72, 0
1, 70583, Note_on_c, 1, 48, 0
1, 70584, Note_on_c, 1, 60, 64
1, 70607, Note_on_c, 1, 60, 0
1, 70608, Note_on_c, 1, 48, 64
1, 70631, Note_on_c, 1, 48, 0
1, 70632, Note_on_c, 0, 74, 66
1, 70632, Note_on_c, 0, 65, 66
1, 70632, Note_on_c, 1, 60, 64
1, 70655, Note_on_c, 1, 60, 0
1, 70656, Note_on_c, 0, 74, 0
1, 70656, Note_on_c, 0, 65, 0
1, 70656, Note_on_c, 0, 72, 64
1, 70656, Note_on_c, 0, 64, 64
1, 70656, Note_on_c, 1, 48, 64
1, 70666, Note_on_c, 0, 72, 0
1, 70666, Note_on_c, 0, 64, 0
1, 70679, Note_on_c, 1, 48, 0
1, 70680, Note_on_c, 0, 76, 66
1, 70680, Note_on_c, 0, 72, 66
1, 70680, Note_on_c, 1, 60, 64
1, 70703, Note_on_c, 1, 60, 0
1, 70704, Note_on_c, 0, 76, 0
1, 70704, Note_on_c, 0, 74, 68
1, 70704, Note_on_c, 1, 48, 64
1, 70714, Note_on_c, 0, 74, 0
1, 70714, Note_on_c, 0, 72, 0
1, 70727, Note_on_c, 1, 48, 0
1, 70728, Note_on_c, 0, 77, 70
1, 70728, Note_on_c, 0, 74, 70
1, 70728, Note_on_c, 1, 60, 64
1, 70751, Note_on_c, 1, 60, 0
1, 70752, Note_on_c, 0, 77, 0
1, 70752, Note_on_c, 0, 74, 0
1, 70752, Note_on_c, 0, 76, 72
1, 70752, Note_on_c, 0, 72, 72
1, 70752, Note_on_c, 1, 48, 64
1, 70762, Note_on_c, 0, 76, 0
1, 70762, Note_on_c, 0, 72, 0
1, 70775, Note_on_c, 1, 48, 0
1, 70776, Note_on_c, 0, 79, 74
1, 70776, Note_on_c, 0, 76, 74
1, 70776, Note_on_c, 1, 60, 64
1, 70799, Note_on_c, 1, 60, 0
1, 70800, Note_on_c, 0, 79, 0
1, 70800, Note_on_c, 0, 76, 0
1, 70800, Note_on_c, 0, 77, 76
1, 70800, Note_on_c, 0, 74, 76
1, 70800, Note_on_c, 1, 48, 64
1, 70810, Note_on_c, 0, 77, 0
1, 70810, Note_on_c, 0, 74, 0
1, 70823, Note_on_c, 1, 48, 0
1, 70824, Note_on_c, 0, 81, 78
1, 70824, Note_on_c, 0, 77, 78
1, 70824, Note_on_c, 1, 60, 64
1, 70847, Note_on_c, 1, 60, 0
1, 70848, Note_on_c, 0, 81, 0
1, 70848, Note_on_c, 0, 77, 0
1, 70848, Note_on_c, 0, 79, 96
1, 70848, Note_on_c, 0, 76, 96
1, 70848, Note_on_c, 1, 48, 64
1, 70868, Note_on_c, 0, 79, 0
1, 70868, Note_on_c, 0, 76, 0
1, 70871, Note_on_c, 1, 48, 0
1, 70872, Note_on_c, 1, 60, 64
1, 70895, Note_on_c, 1, 60, 0
1, 70896, Note_on_c, 1, 48, 64
1, 70919, Note_on_c, 1, 48, 0
1, 70920, Note_on_c, 0, 77, 74
1, 70920, Note_on_c, 0, 74, 74
1, 70920, Note_on_c, 1, 60, 64
1, 70943, Note_on_c, 1, 60, 0
1, 70944, Note_on_c, 0, 77, 0
1, 70944, Note_on_c, 0, 74, 0
1, 70944, Note_on_c, 0, 76, 72
1, 70944, Note_on_c, 0, 72, 72
1, 70944, Note_on_c, 1, 48, 64
1, 70964, Note_on_c, 0, 76, 0
1, 70964, Note_on_c, 0, 72, 0
1, 70967, Note_on_c, 1, 48, 0
1, 70968, Note_on_c, 1, 60, 64
1, 70991, Note_on_c, 1, 60, 0
1, 70992, Note_on_c, 1, 48, 64
1, 71015, Note_on_c, 1, 48, 0
1, 71016, Note_on_c, 0, 74, 66
1, 71016, Note_on_c, 0, 65, 66
1, 71016, Note_on_c, 1, 60, 64
1, 71039, Note_on_c, 1, 60, 0
1, 71040, Note_on_c, 0, 74, 0
1, 71040, Note_on_c, 0, 65, 0
1, 71040, Note_on_c, 0, 72, 70
1, 71040, Note_on_c, 0, 64, 70
1, 71040, Note_on_c, 1, 48, 64
1, 71063, Note_on_c, 1, 48, 0
1, 71064, Note_on_c, 1, 60, 64
1, 71087, Note_on_c, 1, 60, 0
1, 71088, Note_on_c, 1, 48, 64
1, 71111, Note_on_c, 1, 48, 0
1, 71112, Note_on_c, 1, 60, 64
1, 71135, Note_on_c, 1, 60, 0
1, 71136, Note_on_c, 1, 48, 64
1, 71159, Note_on_c, 1, 48, 0
1, 71160, Note_on_c, 1, 60, 64
1, 71183, Note_on_c, 1, 60, 0
1, 71184, Note_on_c, 1, 48, 64
1, 71207, Note_on_c, 1, 48, 0
1, 71208, Note_on_c, 1, 60, 64
1, 71231, Note_on_c, 1, 60, 0
1, 71232, Note_on_c, 0, 72, 0
1, 71232, Note_on_c, 0, 73, 70
1, 71232, Note_on_c, 1, 48, 64
1, 71255, Note_on_c, 1, 48, 0
1, 71256, Note_on_c, 1, 58, 64
1, 71279, Note_on_c, 1, 58, 0
1, 71280, Note_on_c, 1, 48, 64
1, 71303, Note_on_c, 1, 48, 0
1, 71304, Note_on_c, 1, 58, 64
1, 71327, Note_on_c, 1, 58, 0
1, 71328, Note_on_c, 1, 48, 64
1, 71351, Note_on_c, 1, 48, 0
1, 71352, Note_on_c, 1, 58, 64
1, 71375, Note_on_c, 1, 58, 0
1, 71376, Note_on_c, 1, 48, 64
1, 71399, Note_on_c, 1, 48, 0
1, 71400, Note_on_c, 1, 58, 64
1, 71423, Note_on_c, 1, 58, 0
1, 71424, Note_on_c, 0, 64, 0
1, 71424, Note_on_c, 0, 65, 58
1, 71424, Note_on_c, 1, 48, 64
1, 71447, Note_on_c, 1, 48, 0
1, 71448, Note_on_c, 1, 56, 64
1, 71471, Note_on_c, 1, 56, 0
1, 71472, Note_on_c, 1, 48, 64
1, 71495, Note_on_c, 1, 48, 0
1, 71496, Note_on_c, 1, 56, 64
1, 71513, Note_on_c, 0, 73, 0
1, 71519, Note_on_c, 1, 56, 0
1, 71520, Note_on_c, 0, 72, 70
1, 71520, Note_on_c, 1, 48, 64
1, 71543, Note_on_c, 1, 48, 0
1, 71544, Note_on_c, 1, 56, 64
1, 71567, Note_on_c, 1, 56, 0
1, 71568, Note_on_c, 1, 48, 64
1, 71591, Note_on_c, 1, 48, 0
1, 71592, Note_on_c, 1, 56, 64
1, 71601, Note_on_c, 0, 65, 0
1, 71609, Note_on_c, 0, 72, 0
1, 71615, Note_on_c, 1, 56, 0
1, 71616, Note_on_c, 0, 71, 88
1, 71616, Note_on_c, 0, 65, 76
1, 71616, Note_on_c, 1, 50, 82
1, 71639, Note_on_c, 1, 50, 0
1, 71640, Note_on_c, 1, 56, 64
1, 71663, Note_on_c, 1, 56, 0
1, 71664, Note_on_c, 1, 50, 64
1, 71687, Note_on_c, 1, 50, 0
1, 71688, Note_on_c, 1, 56, 64
1, 71711, Note_on_c, 1, 56, 0
1, 71712, Note_on_c, 1, 50, 64
1, 71735, Note_on_c, 1, 50, 0
1, 71736, Note_on_c, 1, 56, 64
1, 71759, Note_on_c, 1, 56, 0
1, 71760, Note_on_c, 1, 50, 64
1, 71783, Note_on_c, 1, 50, 0
1, 71784, Note_on_c, 1, 56, 64
1, 71793, Note_on_c, 0, 71, 0
1, 71793, Note_on_c, 0, 65, 0
1, 71807, Note_on_c, 1, 56, 0
1, 71808, Note_on_c, 0, 70, 70
1, 71808, Note_on_c, 0, 60, 58
1, 71808, Note_on_c, 1, 52, 64
1, 71831, Note_on_c, 1, 52, 0
1, 71832, Note_on_c, 1, 55, 64
1, 71855, Note_on_c, 1, 55, 0
1, 71856, Note_on_c, 1, 52, 64
1, 71879, Note_on_c, 1, 52, 0
1, 71880, Note_on_c, 1, 55, 64
1, 71897, Note_on_c, 0, 60, 0
1, 71903, Note_on_c, 1, 55, 0
1, 71904, Note_on_c, 0, 67, 58
1, 71904, Note_on_c, 1, 52, 64
1, 71927, Note_on_c, 1, 52, 0
1, 71928, Note_on_c, 1, 60, 64
1, 71951, Note_on_c, 1, 60, 0
1, 71952, Note_on_c, 1, 52, 64
1, 71975, Note_on_c, 1, 52, 0
1, 71976, Note_on_c, 1, 60, 64
1, 71999, Note_on_c, 1, 60, 0
1, 72000, Note_on_c, 0, 70, 0
1, 72000, Note_on_c, 0, 69, 70
1, 72000, Note_on_c, 1, 53, 64
1, 72023, Note_on_c, 1, 53, 0
1, 72024, Note_on_c, 1, 60, 64
1, 72047, Note_on_c, 1, 60, 0
1, 72048, Note_on_c, 1, 53, 64
1, 72071, Note_on_c, 1, 53, 0
1, 72072, Note_on_c, 1, 60, 64
1, 72081, Note_on_c, 0, 67, 0
1, 72095, Note_on_c, 1, 60, 0
1, 72096, Note_on_c, 0, 64, 58
1, 72096, Note_on_c, 1, 53, 64
1, 72119, Note_on_c, 1, 53, 0
1, 72120, Note_on_c, 1, 61, 64
1, 72143, Note_on_c, 1, 61, 0
1, 72144, Note_on_c, 1, 53, 64
1, 72167, Note_on_c, 1, 53, 0
1, 72168, Note_on_c, 1, 61, 64
1, 72177, Note_on_c, 0, 69, 0
1, 72185, Note_on_c, 0, 64, 0
1, 72191, Note_on_c, 1, 61, 0
1, 72192, Note_on_c, 0, 69, 70
1, 72192, Note_on_c, 0, 65, 58
1, 72192, Note_on_c, 1, 53, 64
1, 72215, Note_on_c, 1, 53, 0
1, 72216, Note_on_c, 1, 62, 64
1, 72239, Note_on_c, 1, 62, 0
1, 72240, Note_on_c, 1, 53, 64
1, 72263, Note_on_c, 1, 53, 0
1, 72264, Note_on_c, 1, 62, 64
1, 72287, Note_on_c, 1, 62, 0
1, 72288, Note_on_c, 1, 53, 64
1, 72311, Note_on_c, 1, 53, 0
1, 72312, Note_on_c, 1, 62, 64
1, 72335, Note_on_c, 1, 62, 0
1, 72336, Note_on_c, 1, 53, 64
1, 72359, Note_on_c, 1, 53, 0
1, 72360, Note_on_c, 1, 62, 64
1, 72369, Note_on_c, 0, 69, 0
1, 72369, Note_on_c, 0, 65, 0
1, 72383, Note_on_c, 1, 62, 0
1, 72384, Note_on_c, 0, 69, 88
1, 72384, Note_on_c, 0, 63, 76
1, 72384, Note_on_c, 1, 54, 82
1, 72407, Note_on_c, 1, 54, 0
1, 72408, Note_on_c, 1, 60, 64
1, 72431, Note_on_c, 1, 60, 0
1, 72432, Note_on_c, 1, 54, 64
1, 72455, Note_on_c, 1, 54, 0
1, 72456, Note_on_c, 1, 60, 64
1, 72479, Note_on_c, 1, 60, 0
1, 72480, Note_on_c, 1, 54, 64
1, 72503, Note_on_c, 1, 54, 0
1, 72504, Note_on_c, 1, 60, 64
1, 72527, Note_on_c, 1, 60, 0
1, 72528, Note_on_c, 1, 54, 64
1, 72551, Note_on_c, 1, 54, 0
1, 72552, Note_on_c, 1, 60, 64
1, 72561, Note_on_c, 0, 69, 0
1, 72575, Note_on_c, 1, 60, 0
1, 72576, Note_on_c, 0, 67, 70
1, 72576, Note_on_c, 1, 55, 64
1, 72599, Note_on_c, 1, 55, 0
1, 72600, Note_on_c, 1, 60, 64
1, 72623, Note_on_c, 1, 60, 0
1, 72624, Note_on_c, 1, 55, 64
1, 72647, Note_on_c, 1, 55, 0
1, 72648, Note_on_c, 1, 60, 64
1, 72665, Note_on_c, 0, 63, 0
1, 72671, Note_on_c, 1, 60, 0
1, 72672, Note_on_c, 0, 62, 58
1, 72672, Note_on_c, 1, 55, 64
1, 72695, Note_on_c, 1, 55, 0
1, 72696, Note_on_c, 1, 60, 64
1, 72719, Note_on_c, 1, 60, 0
1, 72720, Note_on_c, 1, 55, 64
1, 72743, Note_on_c, 1, 55, 0
1, 72744, Note_on_c, 1, 60, 64
1, 72761, Note_on_c, 0, 62, 0
1, 72767, Note_on_c, 1, 60, 0
1, 72768, Note_on_c, 0, 64, 58
1, 72768, Note_on_c, 1, 55, 64
1, 72791, Note_on_c, 1, 55, 0
1, 72792, Note_on_c, 1, 59, 64
1, 72815, Note_on_c, 1, 59, 0
1, 72816, Note_on_c, 1, 55, 64
1, 72839, Note_on_c, 1, 55, 0
1, 72840, Note_on_c, 1, 59, 64
1, 72857, Note_on_c, 0, 64, 0
1, 72863, Note_on_c, 1, 59, 0
1, 72864, Note_on_c, 0, 65, 58
1, 72864, Note_on_c, 1, 55, 64
1, 72887, Note_on_c, 1, 55, 0
1, 72888, Note_on_c, 1, 59, 64
1, 72911, Note_on_c, 1, 59, 0
1, 72912, Note_on_c, 1, 55, 64
1, 72935, Note_on_c, 1, 55, 0
1, 72936, Note_on_c, 1, 59, 64
1, 72959, Note_on_c, 1, 59, 0
1, 72960, Note_on_c, 0, 65, 0
1, 72960, Note_on_c, 0, 64, 58
1, 72960, Note_on_c, 1, 60, 64
1, 73005, Note_on_c, 0, 67, 0
1, 73005, Note_on_c, 0, 64, 0
1, 73005, Note_on_c, 1, 60, 0
1, 73008, Note_on_c, 0, 76, 80
1, 73008, Note_on_c, 0, 72, 80
1, 73008, Note_on_c, 0, 67, 80
1, 73008, Note_on_c, 1, 55, 80
1, 73008, Note_on_c, 1, 52, 80
1, 73008, Note_on_c, 1, 48, 80
1, 73028, Note_on_c, 0, 76, 0
1, 73028, Note_on_c, 0, 72, 0
1, 73028, Note_on_c, 0, 67, 0
1, 73028, Note_on_c, 1, 55, 0
1, 73028, Note_on_c, 1, 52, 0
1, 73028, Note_on_c, 1, 48, 0
1, 73056, Note_on_c, 0, 77, 80
1, 73056, Note_on_c, 0, 74, 80
1, 73056, Note_on_c, 0, 67, 80
1, 73056, Note_on_c, 1, 55, 80
1, 73056, Note_on_c, 1, 50, 80
1, 73056, Note_on_c, 1, 47, 80
1, 73076, Note_on_c, 0, 77, 0
1, 73076, Note_on_c, 0, 74, 0
1, 73076, Note_on_c, 0, 67, 0
1, 73076, Note_on_c, 1, 55, 0
1, 73076, Note_on_c, 1, 50, 0
1, 73076, Note_on_c, 1, 47, 0
1, 73104, Note_on_c, 0, 76, 80
1, 73104, Note_on_c, 0, 72, 80
1, 73104, Note_on_c, 0, 67, 80
1, 73104, Note_on_c, 1, 55, 80
1, 73104, Note_on_c, 1, 52, 80
1, 73104, Note_on_c, 1, 48, 80
1, 73124, Note_on_c, 0, 76, 0
1, 73124, Note_on_c, 0, 72, 0
1, 73124, Note_on_c, 0, 67, 0
1, 73124, Note_on_c, 1, 55, 0
1, 73124, Note_on_c, 1, 52, 0
1, 73124, Note_on_c, 1, 48, 0
1, 73152, Note_on_c, 0, 81, 80
1, 73152, Note_on_c, 0, 77, 80
1, 73152, Note_on_c, 0, 69, 80
1, 73152, Note_on_c, 1, 53, 80
1, 73152, Note_on_c, 1, 41, 80
1, 73172, Note_on_c, 0, 81, 0
1, 73172, Note_on_c, 0, 77, 0
1, 73172, Note_on_c, 0, 69, 0
1, 73197, Note_on_c, 1, 53, 0
1, 73197, Note_on_c, 1, 41, 0
1, 73248, Note_on_c, 0, 62, 64
1, 73282, Note_on_c, 0, 62, 0
1, 73284, Note_on_c, 0, 64, 64
1, 73296, Note_on_c, 0, 64, 0
1, 73296, Note_on_c, 0, 65, 64
1, 73296, Note_on_c, 1, 55, 64
1, 73296, Note_on_c, 1, 47, 64
1, 73330, Note_on_c, 0, 65, 0
1, 73332, Note_on_c, 0, 67, 64
1, 73341, Note_on_c, 1, 55, 0
1, 73341, Note_on_c, 1, 47, 0
1, 73344, Note_on_c, 0, 67, 0
1, 73344, Note_on_c, 0, 67, 64
1, 73344, Note_on_c, 0, 64, 64
1, 73344, Note_on_c, 1, 60, 64
1, 73389, Note_on_c, 0, 67, 0
1, 73389, Note_on_c, 0, 64, 0
1, 73389, Note_on_c, 1, 60, 0
1, 73392, Note_on_c, 0, 76, 80
1, 73392, Note_on_c, 0, 72, 80
1, 73392, Note_on_c, 0, 67, 80
1, 73392, Note_on_c, 1, 55, 80
1, 73392, Note_on_c, 1, 52, 80
1, 73392, Note_on_c, 1, 48, 80
1, 73412, Note_on_c, 0, 76, 0
1, 73412, Note_on_c, 0, 72, 0
1, 73412, Note_on_c, 0, 67, 0
1, 73412, Note_on_c, 1, 55, 0
1, 73412, Note_on_c, 1, 52, 0
1, 73412, Note_on_c, 1, 48, 0
1, 73440, Note_on_c, 0, 77, 80
1, 73440, Note_on_c, 0, 74, 80
1, 73440, Note_on_c, 0, 67, 80
1, 73440, Note_on_c, 1, 55, 80
1, 73440, Note_on_c, 1, 50, 80
1, 73440, Note_on_c, 1, 47, 80
1, 73460, Note_on_c, 0, 77, 0
1, 73460, Note_on_c, 0, 74, 0
1, 73460, Note_on_c, 0, 67, 0
1, 73460, Note_on_c, 1, 55, 0
1, 73460, Note_on_c, 1, 50, 0
1, 73460, Note_on_c, 1, 47, 0
1, 73488, Note_on_c, 0, 76, 80
1, 73488, Note_on_c, 0, 72, 80
1, 73488, Note_on_c, 0, 67, 80
1, 73488, Note_on_c, 1, 55, 80
1, 73488, Note_on_c, 1, 52, 80
1, 73488, Note_on_c, 1, 48, 80
1, 73508, Note_on_c, 0, 76, 0
1, 73508, Note_on_c, 0, 72, 0
1, 73508, Note_on_c, 0, 67, 0
1, 73508, Note_on_c, 1, 55, 0
1, 73508, Note_on_c, 1, 52, 0
1, 73508, Note_on_c, 1, 48, 0
1, 73536, Note_on_c, 0, 81, 80
1, 73536, Note_on_c, 0, 77, 80
1, 73536, Note_on_c, 0, 69, 80
1, 73536, Note_on_c, 1, 53, 80
1, 73536, Note_on_c, 1, 41, 80
1, 73556, Note_on_c, 0, 81, 0
1, 73556, Note_on_c, 0, 77, 0
1, 73556, Note_on_c, 0, 69, 0
1, 73581, Note_on_c, 1, 53, 0
1, 73581, Note_on_c, 1, 41, 0
1, 73632, Note_on_c, 0, 59, 64
1, 73647, Note_on_c, 0, 59, 0
1, 73648, Note_on_c, 0, 62, 64
1, 73663, Note_on_c, 0, 62, 0
1, 73664, Note_on_c, 0, 65, 64
1, 73679, Note_on_c, 0, 65, 0
1, 73680, Note_on_c, 0, 69, 64
1, 73680, Note_on_c, 1, 55, 64
1, 73680, Note_on_c, 1, 47, 64
1, 73695, Note_on_c, 0, 69, 0
1, 73696, Note_on_c, 0, 67, 64
1, 73711, Note_on_c, 0, 67, 0
1, 73712, Note_on_c, 0, 65, 64
1, 73725, Note_on_c, 1, 55, 0
1, 73725, Note_on_c, 1, 47, 0
1, 73727, Note_on_c, 0, 65, 0
1, 73728, Note_on_c, 0, 64, 64
1, 73728, Note_on_c, 1, 48, 64
1, 73748, Note_on_c, 0, 64, 0
1, 73748, Note_on_c, 1, 48, 0
1, 73776, Note_on_c, 0, 67, 80
1, 73776, Note_on_c, 1, 48, 80
1, 73791, Note_on_c, 0, 67, 0
1, 73791, Note_on_c, 1, 48, 0
1, 73792, Note_on_c, 0, 72, 80
1, 73792, Note_on_c, 1, 52, 80
1, 73807, Note_on_c, 0, 72, 0
1, 73807, Note_on_c, 1, 52, 0
1, 73808, Note_on_c, 0, 76, 80
1, 73808, Note_on_c, 1, 55, 80
1, 73823, Note_on_c, 0, 76, 0
1, 73823, Note_on_c, 1, 55, 0
1, 73824, Note_on_c, 0, 67, 80
1, 73824, Note_on_c, 1, 47, 80
1, 73839, Note_on_c, 0, 67, 0
1, 73839, Note_on_c, 1, 47, 0
1, 73840, Note_on_c, 0, 74, 80
1, 73840, Note_on_c, 1, 50, 80
1, 73855, Note_on_c, 0, 74, 0
1, 73855, Note_on_c, 1, 50, 0
1, 73856, Note_on_c, 0, 77, 80
1, 73856, Note_on_c, 1, 55, 80
1, 73871, Note_on_c, 0, 77, 0
1, 73871, Note_on_c, 1, 55, 0
1, 73872, Note_on_c, 0, 67, 80
1, 73872, Note_on_c, 1, 48, 80
1, 73887, Note_on_c, 0, 67, 0
1, 73887, Note_on_c, 1, 48, 0
1, 73888, Note_on_c, 0, 72, 80
1, 73888, Note_on_c, 1, 52, 80
1, 73903, Note_on_c, 0, 72, 0
1, 73903, Note_on_c, 1, 52, 0
1, 73904, Note_on_c, 0, 76, 80
1, 73904, Note_on_c, 1, 55, 80
1, 73919, Note_on_c, 0, 76, 0
1, 73919, Note_on_c, 1, 55, 0
1, 73920, Note_on_c, 0, 69, 80
1, 73920, Note_on_c, 1, 41, 80
1, 73935, Note_on_c, 0, 69, 0
1, 73936, Note_on_c, 0, 81, 80
1, 73951, Note_on_c, 0, 81, 0
1, 73952, Note_on_c, 0, 79, 80
1, 73965, Note_on_c, 1, 41, 0
1, 73967, Note_on_c, 0, 79, 0
1, 73968, Note_on_c, 0, 77, 80
1, 73983, Note_on_c, 0, 77, 0
1, 73984, Note_on_c, 0, 76, 80
1, 73999, Note_on_c, 0, 76, 0
1, 74000, Note_on_c, 0, 74, 80
1, 74015, Note_on_c, 0, 74, 0
1, 74016, Note_on_c, 0, 73, 80
1, 74016, Note_on_c, 1, 57, 80
1, 74016, Note_on_c, 1, 53, 80
1, 74031, Note_on_c, 0, 73, 0
1, 74032, Note_on_c, 0, 74, 80
1, 74036, Note_on_c, 1, 57, 0
1, 74036, Note_on_c, 1, 53, 0
1, 74047, Note_on_c, 0, 74, 0
1, 74048, Note_on_c, 0, 81, 80
1, 74063, Note_on_c, 0, 81, 0
1, 74064, Note_on_c, 0, 79, 80
1, 74079, Note_on_c, 0, 79, 0
1, 74080, Note_on_c, 0, 77, 80
1, 74095, Note_on_c, 0, 77, 0
1, 74096, Note_on_c, 0, 76, 80
1, 74111, Note_on_c, 0, 76, 0
1, 74112, Note_on_c, 0, 74, 80
1, 74112, Note_on_c, 1, 57, 80
1, 74112, Note_on_c, 1, 53, 80
1, 74127, Note_on_c, 0, 74, 0
1, 74128, Note_on_c, 0, 73, 79
1, 74132, Note_on_c, 1, 57, 0
1, 74132, Note_on_c, 1, 53, 0
1, 74143, Note_on_c, 0, 73, 0
1, 74144, Note_on_c, 0, 81, 79
1, 74159, Note_on_c, 0, 81, 0
1, 74160, Note_on_c, 0, 79, 79
1, 74175, Note_on_c, 0, 79, 0
1, 74176, Note_on_c, 0, 77, 79
1, 74191, Note_on_c, 0, 77, 0
1, 74192, Note_on_c, 0, 76, 79
1, 74207, Note_on_c, 0, 76, 0
1, 74208, Note_on_c, 0, 74, 79
1, 74208, Note_on_c, 1, 57, 78
1, 74208, Note_on_c, 1, 53, 78
1, 74223, Note_on_c, 0, 74, 0
1, 74224, Note_on_c, 0, 73, 78
1, 74228, Note_on_c, 1, 57, 0
1, 74228, Note_on_c, 1, 53, 0
1, 74239, Note_on_c, 0, 73, 0
1, 74240, Note_on_c, 0, 81, 78
1, 74255, Note_on_c, 0, 81, 0
1, 74256, Note_on_c, 0, 79, 78
1, 74271, Note_on_c, 0, 79, 0
1, 74272, Note_on_c, 0, 77, 78
1, 74287, Note_on_c, 0, 77, 0
1, 74288, Note_on_c, 0, 76, 78
1, 74303, Note_on_c, 0, 76, 0
1, 74304, Note_on_c, 0, 74, 78
1, 74304, Note_on_c, 1, 57, 77
1, 74304, Note_on_c, 1, 53, 77
1, 74319, Note_on_c, 0, 74, 0
1, 74320, Note_on_c, 0, 73, 77
1, 74324, Note_on_c, 1, 57, 0
1, 74324, Note_on_c, 1, 53, 0
1, 74335, Note_on_c, 0, 73, 0
1, 74336, Note_on_c, 0, 81, 77
1, 74351, Note_on_c, 0, 81, 0
1, 74352, Note_on_c, 0, 79, 77
1, 74367, Note_on_c, 0, 79, 0
1, 74368, Note_on_c, 0, 77, 77
1, 74383, Note_on_c, 0, 77, 0
1, 74384, Note_on_c, 0, 76, 77
1, 74399, Note_on_c, 0, 76, 0
1, 74400, Note_on_c, 0, 74, 77
1, 74400, Note_on_c, 1, 57, 76
1, 74400, Note_on_c, 1, 53, 76
1, 74415, Note_on_c, 0, 74, 0
1, 74416, Note_on_c, 0, 81, 77
1, 74420, Note_on_c, 1, 57, 0
1, 74420, Note_on_c, 1, 53, 0
1, 74431, Note_on_c, 0, 81, 0
1, 74432, Note_on_c, 0, 79, 76
1, 74447, Note_on_c, 0, 79, 0
1, 74448, Note_on_c, 0, 77, 76
1, 74463, Note_on_c, 0, 77, 0
1, 74464, Note_on_c, 0, 76, 76
1, 74479, Note_on_c, 0, 76, 0
1, 74480, Note_on_c, 0, 74, 76
1, 74495, Note_on_c, 0, 74, 0
1, 74496, Note_on_c, 0, 76, 75
1, 74496, Note_on_c, 1, 64, 75
1, 74496, Note_on_c, 1, 60, 75
1, 74496, Note_on_c, 1, 55, 75
1, 74511, Note_on_c, 0, 76, 0
1, 74512, Note_on_c, 0, 79, 75
1, 74527, Note_on_c, 0, 79, 0
1, 74528, Note_on_c, 0, 77, 75
1, 74543, Note_on_c, 0, 77, 0
1, 74544, Note_on_c, 0, 76, 75
1, 74559, Note_on_c, 0, 76, 0
1, 74560, Note_on_c, 0, 74, 76
1, 74575, Note_on_c, 0, 74, 0
1, 74576, Note_on_c, 0, 72, 76
1, 74590, Note_on_c, 1, 64, 0
1, 74590, Note_on_c, 1, 60, 0
1, 74590, Note_on_c, 1, 55, 0
1, 74591, Note_on_c, 0, 72, 0
1, 74592, Note_on_c, 0, 71, 76
1, 74607, Note_on_c, 0, 71, 0
1, 74608, Note_on_c, 0, 69, 77
1, 74623, Note_on_c, 0, 69, 0
1, 74624, Note_on_c, 0, 67, 77
1, 74639, Note_on_c, 0, 67, 0
1, 74640, Note_on_c, 0, 79, 77
1, 74655, Note_on_c, 0, 79, 0
1, 74656, Note_on_c, 0, 76, 77
1, 74671, Note_on_c, 0, 76, 0
1, 74672, Note_on_c, 0, 72, 78
1, 74687, Note_on_c, 0, 72, 0
1, 74688, Note_on_c, 0, 76, 78
1, 74688, Note_on_c, 1, 55, 80
1, 74699, Note_on_c, 1, 59, 80
1, 74700, Note_on_c, 0, 76, 0
1, 74700, Note_on_c, 0, 74, 80
1, 74710, Note_on_c, 1, 62, 80
1, 74712, Note_on_c, 0, 74, 0
1, 74712, Note_on_c, 0, 76, 80
1, 74721, Note_on_c, 1, 65, 80
1, 74724, Note_on_c, 0, 76, 0
1, 74724, Note_on_c, 0, 74, 80
1, 74736, Note_on_c, 0, 74, 0
1, 74736, Note_on_c, 0, 76, 80
1, 74748, Note_on_c, 0, 76, 0
1, 74748, Note_on_c, 0, 74, 80
1, 74760, Note_on_c, 0, 74, 0
1, 74760, Note_on_c, 0, 76, 80
1, 74772, Note_on_c, 0, 76, 0
1, 74772, Note_on_c, 0, 74, 80
1, 74784, Note_on_c, 0, 74, 0
1, 74784, Note_on_c, 0, 76, 80
1, 74796, Note_on_c, 0, 76, 0
1, 74796, Note_on_c, 0, 74, 80
1, 74808, Note_on_c, 0, 74, 0
1, 74808, Note_on_c, 0, 76, 80
1, 74820, Note_on_c, 0, 76, 0
1, 74820, Note_on_c, 0, 74, 80
1, 74832, Note_on_c, 0, 74, 0
1, 74832, Note_on_c, 0, 76, 80
1, 74844, Note_on_c, 0, 76, 0
1, 74844, Note_on_c, 0, 74, 80
1, 74856, Note_on_c, 0, 74, 0
1, 74856, Note_on_c, 0, 72, 80
1, 74868, Note_on_c, 0, 72, 0
1, 74868, Note_on_c, 0, 74, 80
1, 74878, Note_on_c, 1, 65, 0
1, 74878, Note_on_c, 1, 62, 0
1, 74878, Note_on_c, 1, 59, 0
1, 74878, Note_on_c, 1, 55, 0
1, 74880, Note_on_c, 0, 74, 0
1, 74880, Note_on_c, 0, 72, 80
1, 74880, Note_on_c, 1, 64, 64
1, 74880, Note_on_c, 1, 60, 70
1, 74900, Note_on_c, 0, 72, 0
1, 74903, Note_on_c, 1, 64, 0
1, 74904, Note_on_c, 1, 67, 64
1, 74925, Note_on_c, 1, 60, 0
1, 74927, Note_on_c, 1, 67, 0
1, 74928, Note_on_c, 0, 79, 80
1, 74928, Note_on_c, 1, 64, 64
1, 74928, Note_on_c, 1, 60, 70
1, 74948, Note_on_c, 0, 79, 0
1, 74951, Note_on_c, 1, 64, 0
1, 74952, Note_on_c, 1, 67, 64
1, 74973, Note_on_c, 1, 60, 0
1, 74975, Note_on_c, 1, 67, 0
1, 74976, Note_on_c, 1, 64, 64
1, 74976, Note_on_c, 1, 60, 70
1, 74999, Note_on_c, 1, 64, 0
1, 75000, Note_on_c, 1, 67, 64
1, 75021, Note_on_c, 1, 60, 0
1, 75023, Note_on_c, 1, 67, 0
1, 75024, Note_on_c, 0, 84, 80
1, 75024, Note_on_c, 1, 64, 64
1, 75024, Note_on_c, 1, 60, 70
1, 75044, Note_on_c, 0, 84, 0
1, 75047, Note_on_c, 1, 64, 0
1, 75048, Note_on_c, 1, 67, 64
1, 75069, Note_on_c, 1, 60, 0
1, 75071, Note_on_c, 1, 67, 0
1, 75072, Note_on_c, 1, 64, 64
1, 75072, Note_on_c, 1, 60, 70
1, 75095, Note_on_c, 1, 64, 0
1, 75096, Note_on_c, 1, 67, 64
1, 75117, Note_on_c, 1, 60, 0
1, 75119, Note_on_c, 1, 67, 0
1, 75120, Note_on_c, 0, 79, 80
1, 75120, Note_on_c, 1, 64, 64
1, 75120, Note_on_c, 1, 60, 70
1, 75143, Note_on_c, 0, 79, 0
1, 75143, Note_on_c, 1, 64, 0
1, 75144, Note_on_c, 0, 88, 80
1, 75144, Note_on_c, 1, 67, 64
1, 75165, Note_on_c, 1, 60, 0
1, 75167, Note_on_c, 0, 88, 0
1, 75167, Note_on_c, 1, 67, 0
1, 75168, Note_on_c, 0, 86, 80
1, 75168, Note_on_c, 1, 64, 64
1, 75168, Note_on_c, 1, 60, 70
1, 75191, Note_on_c, 0, 86, 0
1, 75191, Note_on_c, 1, 64, 0
1, 75192, Note_on_c, 0, 84, 80
1, 75192, Note_on_c, 1, 67, 64
1, 75213, Note_on_c, 1, 60, 0
1, 75215, Note_on_c, 0, 84, 0
1, 75215, Note_on_c, 1, 67, 0
1, 75216, Note_on_c, 0, 83, 80
1, 75216, Note_on_c, 1, 64, 64
1, 75216, Note_on_c, 1, 60, 70
1, 75239, Note_on_c, 0, 83, 0
1, 75239, Note_on_c, 1, 64, 0
1, 75240, Note_on_c, 0, 81, 80
1, 75240, Note_on_c, 1, 67, 64
1, 75261, Note_on_c, 1, 60, 0
1, 75263, Note_on_c, 0, 81, 0
1, 75263, Note_on_c, 1, 67, 0
1, 75264, Note_on_c, 0, 79, 96
1, 75264, Note_on_c, 1, 65, 64
1, 75264, Note_on_c, 1, 62, 70
1, 75264, Note_on_c, 1, 59, 70
1, 75287, Note_on_c, 1, 65, 0
1, 75288, Note_on_c, 1, 67, 64
1, 75309, Note_on_c, 1, 62, 0
1, 75309, Note_on_c, 1, 59, 0
1, 75311, Note_on_c, 1, 67, 0
1, 75312, Note_on_c, 1, 65, 64
1, 75312, Note_on_c, 1, 62, 70
1, 75312, Note_on_c, 1, 59, 70
1, 75335, Note_on_c, 1, 65, 0
1, 75336, Note_on_c, 1, 67, 64
1, 75357, Note_on_c, 1, 62, 0
1, 75357, Note_on_c, 1, 59, 0
1, 75359, Note_on_c, 1, 67, 0
1, 75360, Note_on_c, 1, 65, 64
1, 75360, Note_on_c, 1, 62, 70
1, 75360, Note_on_c, 1, 59, 70
1, 75383, Note_on_c, 0, 79, 0
1, 75383, Note_on_c, 1, 65, 0
1, 75384, Note_on_c, 0, 80, 80
1, 75384, Note_on_c, 1, 67, 64
1, 75405, Note_on_c, 1, 62, 0
1, 75405, Note_on_c, 1, 59, 0
1, 75407, Note_on_c, 0, 80, 0
1, 75407, Note_on_c, 1, 67, 0
1, 75408, Note_on_c, 0, 81, 80
1, 75408, Note_on_c, 1, 65, 64
1, 75408, Note_on_c, 1, 62, 70
1, 75408, Note_on_c, 1, 59, 70
1, 75431, Note_on_c, 0, 81, 0
1, 75431, Note_on_c, 1, 65, 0
1, 75432, Note_on_c, 0, 82, 80
1, 75432, Note_on_c, 1, 67, 64
1, 75453, Note_on_c, 1, 62, 0
1, 75453, Note_on_c, 1, 59, 0
1, 75455, Note_on_c, 0, 82, 0
1, 75455, Note_on_c, 1, 67, 0
1, 75456, Note_on_c, 0, 83, 80
1, 75456, Note_on_c, 1, 65, 64
1, 75456, Note_on_c, 1, 62, 70
1, 75456, Note_on_c, 1, 59, 70
1, 75479, Note_on_c, 0, 83, 0
1, 75479, Note_on_c, 1, 65, 0
1, 75480, Note_on_c, 0, 84, 82
1, 75480, Note_on_c, 1, 67, 64
1, 75501, Note_on_c, 1, 62, 0
1, 75501, Note_on_c, 1, 59, 0
1, 75503, Note_on_c, 0, 84, 0
1, 75503, Note_on_c, 1, 67, 0
1, 75504, Note_on_c, 0, 85, 84
1, 75504, Note_on_c, 1, 65, 64
1, 75504, Note_on_c, 1, 62, 70
1, 75504, Note_on_c, 1, 59, 70
1, 75527, Note_on_c, 0, 85, 0
1, 75527, Note_on_c, 1, 65, 0
1, 75528, Note_on_c, 0, 86, 86
1, 75528, Note_on_c, 1, 67, 64
1, 75549, Note_on_c, 1, 62, 0
1, 75549, Note_on_c, 1, 59, 0
1, 75551, Note_on_c, 0, 86, 0
1, 75551, Note_on_c, 1, 67, 0
1, 75552, Note_on_c, 0, 88, 84
1, 75552, Note_on_c, 1, 65, 64
1, 75552, Note_on_c, 1, 62, 70
1, 75552, Note_on_c, 1, 59, 70
1, 75575, Note_on_c, 0, 88, 0
1, 75575, Note_on_c, 1, 65, 0
1, 75576, Note_on_c, 0, 86, 83
1, 75576, Note_on_c, 1, 67, 64
1, 75597, Note_on_c, 1, 62, 0
1, 75597, Note_on_c, 1, 59, 0
1, 75599, Note_on_c, 0, 86, 0
1, 75599, Note_on_c, 1, 67, 0
1, 75600, Note_on_c, 0, 83, 81
1, 75600, Note_on_c, 1, 65, 64
1, 75600, Note_on_c, 1, 62, 70
1, 75600, Note_on_c, 1, 59, 70
1, 75623, Note_on_c, 0, 83, 0
1, 75623, Note_on_c, 1, 65, 0
1, 75624, Note_on_c, 0, 77, 80
1, 75624, Note_on_c, 1, 67, 64
1, 75645, Note_on_c, 1, 62, 0
1, 75645, Note_on_c, 1, 59, 0
1, 75647, Note_on_c, 0, 77, 0
1, 75647, Note_on_c, 1, 67, 0
1, 75648, Note_on_c, 0, 76, 75
1, 75648, Note_on_c, 1, 64, 64
1, 75648, Note_on_c, 1, 60, 70
1, 75668, Note_on_c, 0, 76, 0
1, 75671, Note_on_c, 1, 64, 0
1, 75672, Note_on_c, 1, 67, 64
1, 75693, Note_on_c, 1, 60, 0
1, 75695, Note_on_c, 1, 67, 0
1, 75696, Note_on_c, 0, 79, 75
1, 75696, Note_on_c, 1, 64, 64
1, 75696, Note_on_c, 1, 60, 70
1, 75716, Note_on_c, 0, 79, 0
1, 75719, Note_on_c, 1, 64, 0
1, 75720, Note_on_c, 1, 67, 64
1, 75741, Note_on_c, 1, 60, 0
1, 75743, Note_on_c, 1, 67, 0
1, 75744, Note_on_c, 1, 64, 64
1, 75744, Note_on_c, 1, 60, 70
1, 75767, Note_on_c, 1, 64, 0
1, 75768, Note_on_c, 1, 67, 64
1, 75789, Note_on_c, 1, 60, 0
1, 75791, Note_on_c, 1, 67, 0
1, 75792, Note_on_c, 0, 84, 75
1, 75792, Note_on_c, 1, 64, 64
1, 75792, Note_on_c, 1, 60, 70
1, 75804, Note_on_c, 0, 84, 0
1, 75804, Note_on_c, 0, 86, 75
1, 75815, Note_on_c, 1, 64, 0
1, 75816, Note_on_c, 0, 86, 0
1, 75816, Note_on_c, 0, 84, 75
1, 75816, Note_on_c, 1, 67, 64
1, 75828, Note_on_c, 0, 84, 0
1, 75828, Note_on_c, 0, 86, 75
1, 75837, Note_on_c, 0, 86, 0
1, 75837, Note_on_c, 1, 60, 0
1, 75839, Note_on_c, 1, 67, 0
1, 75840, Note_on_c, 1, 64, 64
1, 75840, Note_on_c, 1, 60, 70
1, 75863, Note_on_c, 1, 64, 0
1, 75864, Note_on_c, 1, 67, 64
1, 75885, Note_on_c, 1, 60, 0
1, 75887, Note_on_c, 1, 67, 0
1, 75888, Note_on_c, 0, 79, 75
1, 75888, Note_on_c, 1, 64, 64
1, 75888, Note_on_c, 1, 60, 70
1, 75911, Note_on_c, 0, 79, 0
1, 75911, Note_on_c, 1, 64, 0
1, 75912, Note_on_c, 0, 88, 75
1, 75912, Note_on_c, 1, 67, 64
1, 75933, Note_on_c, 1, 60, 0
1, 75935, Note_on_c, 0, 88, 0
1, 75935, Note_on_c, 1, 67, 0
1, 75936, Note_on_c, 0, 86, 75
1, 75936, Note_on_c, 1, 64, 64
1, 75936, Note_on_c, 1, 60, 70
1, 75959, Note_on_c, 0, 86, 0
1, 75959, Note_on_c, 1, 64, 0
1, 75960, Note_on_c, 0, 84, 75
1, 75960, Note_on_c, 1, 67, 64
1, 75981, Note_on_c, 1, 60, 0
1, 75983, Note_on_c, 0, 84, 0
1, 75983, Note_on_c, 1, 67, 0
1, 75984, Note_on_c, 0, 83, 75
1, 75984, Note_on_c, 1, 64, 64
1, 75984, Note_on_c, 1, 60, 70
1, 76007, Note_on_c, 0, 83, 0
1, 76007, Note_on_c, 1, 64, 0
1, 76008, Note_on_c, 0, 81, 75
1, 76008, Note_on_c, 1, 67, 64
1, 76029, Note_on_c, 1, 60, 0
1, 76031, Note_on_c, 0, 81, 0
1, 76031, Note_on_c, 1, 67, 0
1, 76032, Note_on_c, 0, 79, 91
1, 76032, Note_on_c, 1, 65, 64
1, 76032, Note_on_c, 1, 62, 70
1, 76032, Note_on_c, 1, 59, 70
1, 76055, Note_on_c, 1, 65, 0
1, 76056, Note_on_c, 1, 67, 64
1, 76077, Note_on_c, 1, 62, 0
1, 76077, Note_on_c, 1, 59, 0
1, 76079, Note_on_c, 1, 67, 0
1, 76080, Note_on_c, 1, 65, 64
1, 76080, Note_on_c, 1, 62, 70
1, 76080, Note_on_c, 1, 59, 70
1, 76103, Note_on_c, 1, 65, 0
1, 76104, Note_on_c, 1, 67, 64
1, 76125, Note_on_c, 1, 62, 0
1, 76125, Note_on_c, 1, 59, 0
1, 76127, Note_on_c, 1, 67, 0
1, 76128, Note_on_c, 1, 65, 64
1, 76128, Note_on_c, 1, 62, 70
1, 76128, Note_on_c, 1, 59, 70
1, 76151, Note_on_c, 0, 79, 0
1, 76151, Note_on_c, 1, 65, 0
1, 76152, Note_on_c, 0, 80, 75
1, 76152, Note_on_c, 1, 67, 64
1, 76173, Note_on_c, 1, 62, 0
1, 76173, Note_on_c, 1, 59, 0
1, 76175, Note_on_c, 0, 80, 0
1, 76175, Note_on_c, 1, 67, 0
1, 76176, Note_on_c, 0, 81, 75
1, 76176, Note_on_c, 1, 65, 64
1, 76176, Note_on_c, 1, 62, 70
1, 76176, Note_on_c, 1, 59, 70
1, 76199, Note_on_c, 0, 81, 0
1, 76199, Note_on_c, 1, 65, 0
1, 76200, Note_on_c, 0, 82, 75
1, 76200, Note_on_c, 1, 67, 64
1, 76221, Note_on_c, 1, 62, 0
1, 76221, Note_on_c, 1, 59, 0
1, 76223, Note_on_c, 0, 82, 0
1, 76223, Note_on_c, 1, 67, 0
1, 76224, Note_on_c, 0, 83, 75
1, 76224, Note_on_c, 1, 65, 64
1, 76224, Note_on_c, 1, 62, 70
1, 76224, Note_on_c, 1, 59, 70
1, 76247, Note_on_c, 0, 83, 0
1, 76247, Note_on_c, 1, 65, 0
1, 76248, Note_on_c, 0, 84, 76
1, 76248, Note_on_c, 1, 67, 64
1, 76269, Note_on_c, 1, 62, 0
1, 76269, Note_on_c, 1, 59, 0
1, 76271, Note_on_c, 0, 84, 0
1, 76271, Note_on_c, 1, 67, 0
1, 76272, Note_on_c, 0, 85, 77
1, 76272, Note_on_c, 1, 65, 64
1, 76272, Note_on_c, 1, 62, 70
1, 76272, Note_on_c, 1, 59, 70
1, 76295, Note_on_c, 0, 85, 0
1, 76295, Note_on_c, 1, 65, 0
1, 76296, Note_on_c, 0, 86, 78
1, 76296, Note_on_c, 1, 67, 64
1, 76317, Note_on_c, 1, 62, 0
1, 76317, Note_on_c, 1, 59, 0
1, 76319, Note_on_c, 0, 86, 0
1, 76319, Note_on_c, 1, 67, 0
1, 76320, Note_on_c, 0, 88, 80
1, 76320, Note_on_c, 1, 65, 64
1, 76320, Note_on_c, 1, 62, 70
1, 76320, Note_on_c, 1, 59, 70
1, 76343, Note_on_c, 0, 88, 0
1, 76343, Note_on_c, 1, 65, 0
1, 76344, Note_on_c, 0, 86, 78
1, 76344, Note_on_c, 1, 67, 64
1, 76365, Note_on_c, 1, 62, 0
1, 76365, Note_on_c, 1, 59, 0
1, 76367, Note_on_c, 0, 86, 0
1, 76367, Note_on_c, 1, 67, 0
1, 76368, Note_on_c, 0, 83, 77
1, 76368, Note_on_c, 1, 65, 64
1, 76368, Note_on_c, 1, 62, 70
1, 76368, Note_on_c, 1, 59, 70
1, 76391, Note_on_c, 0, 83, 0
1, 76391, Note_on_c, 1, 65, 0
1, 76392, Note_on_c, 0, 77, 76
1, 76392, Note_on_c, 1, 67, 64
1, 76413, Note_on_c, 1, 62, 0
1, 76413, Note_on_c, 1, 59, 0
1, 76415, Note_on_c, 0, 77, 0
1, 76415, Note_on_c, 1, 67, 0
1, 76416, Note_on_c, 0, 76, 75
1, 76416, Note_on_c, 1, 64, 64
1, 76416, Note_on_c, 1, 60, 64
1, 76439, Note_on_c, 0, 76, 0
1, 76440, Note_on_c, 0, 77, 75
1, 76463, Note_on_c, 0, 77, 0
1, 76464, Note_on_c, 0, 78, 75
1, 76487, Note_on_c, 0, 78, 0
1, 76488, Note_on_c, 0, 79, 75
1, 76505, Note_on_c, 1, 64, 0
1, 76505, Note_on_c, 1, 60, 0
1, 76511, Note_on_c, 0, 79, 0
1, 76512, Note_on_c, 0, 81, 76
1, 76535, Note_on_c, 0, 81, 0
1, 76536, Note_on_c, 0, 79, 76
1, 76559, Note_on_c, 0, 79, 0
1, 76560, Note_on_c, 0, 76, 76
1, 76583, Note_on_c, 0, 76, 0
1, 76584, Note_on_c, 0, 72, 76
1, 76607, Note_on_c, 0, 72, 0
1, 76608, Note_on_c, 0, 71, 77
1, 76608, Note_on_c, 1, 65, 72
1, 76608, Note_on_c, 1, 62, 72
1, 76608, Note_on_c, 1, 55, 72
1, 76631, Note_on_c, 0, 71, 0
1, 76632, Note_on_c, 0, 72, 77
1, 76655, Note_on_c, 0, 72, 0
1, 76656, Note_on_c, 0, 73, 77
1, 76679, Note_on_c, 0, 73, 0
1, 76680, Note_on_c, 0, 74, 78
1, 76697, Note_on_c, 1, 65, 0
1, 76697, Note_on_c, 1, 62, 0
1, 76697, Note_on_c, 1, 55, 0
1, 76703, Note_on_c, 0, 74, 0
1, 76704, Note_on_c, 0, 76, 78
1, 76727, Note_on_c, 0, 76, 0
1, 76728, Note_on_c, 0, 74, 78
1, 76751, Note_on_c, 0, 74, 0
1, 76752, Note_on_c, 0, 71, 78
1, 76775, Note_on_c, 0, 71, 0
1, 76776, Note_on_c, 0, 67, 79
1, 76799, Note_on_c, 0, 67, 0
1, 76800, Note_on_c, 0, 72, 79
1, 76800, Note_on_c, 1, 64, 80
1, 76800, Note_on_c, 1, 60, 80
1, 76820, Note_on_c, 0, 72, 0
1, 76845, Note_on_c, 1, 64, 0
1, 76845, Note_on_c, 1, 60, 0
1, 76848, Note_on_c, 0, 74, 64
1, 76848, Note_on_c, 0, 71, 64
1, 76871, Note_on_c, 0, 71, 0
1, 76872, Note_on_c, 0, 67, 64
1, 76893, Note_on_c, 0, 74, 0
1, 76895, Note_on_c, 0, 67, 0
1, 76896, Note_on_c, 0, 76, 64
1, 76896, Note_on_c, 0, 72, 64
1, 76919, Note_on_c, 0, 72, 0
1, 76920, Note_on_c, 0, 67, 64
1, 76941, Note_on_c, 0, 76, 0
1, 76943, Note_on_c, 0, 67, 0
1, 76944, Note_on_c, 0, 77, 64
1, 76944, Note_on_c, 0, 74, 64
1, 76967, Note_on_c, 0, 74, 0
1, 76968, Note_on_c, 0, 67, 64
1, 76989, Note_on_c, 0, 77, 0
1, 76991, Note_on_c, 0, 67, 0
1, 76992, Note_on_c, 0, 79, 64
1, 76992, Note_on_c, 0, 76, 64
1, 77037, Note_on_c, 0, 79, 0
1, 77037, Note_on_c, 0, 76, 0
1, 77040, Note_on_c, 0, 74, 80
1, 77040, Note_on_c, 0, 69, 80
1, 77040, Note_on_c, 1, 53, 80
1, 77063, Note_on_c, 0, 69, 0
1, 77064, Note_on_c, 0, 65, 80
1, 77064, Note_on_c, 1, 53, 0
1, 77064, Note_on_c, 1, 50, 80
1, 77085, Note_on_c, 0, 74, 0
1, 77087, Note_on_c, 0, 65, 0
1, 77087, Note_on_c, 1, 50, 0
1, 77088, Note_on_c, 0, 72, 80
1, 77088, Note_on_c, 0, 67, 80
1, 77088, Note_on_c, 1, 55, 80
1, 77108, Note_on_c, 1, 55, 0
1, 77111, Note_on_c, 0, 67, 0
1, 77112, Note_on_c, 0, 64, 80
1, 77133, Note_on_c, 0, 72, 0
1, 77135, Note_on_c, 0, 64, 0
1, 77136, Note_on_c, 0, 71, 80
1, 77136, Note_on_c, 0, 65, 80
1, 77136, Note_on_c, 1, 55, 80
1, 77136, Note_on_c, 1, 43, 80
1, 77156, Note_on_c, 1, 55, 0
1, 77156, Note_on_c, 1, 43, 0
1, 77159, Note_on_c, 0, 65, 0
1, 77160, Note_on_c, 0, 62, 80
1, 77181, Note_on_c, 0, 71, 0
1, 77183, Note_on_c, 0, 62, 0
1, 77184, Note_on_c, 0, 72, 80
1, 77184, Note_on_c, 0, 64, 80
1, 77184, Note_on_c, 1, 48, 80
1, 77184, Note_on_c, 1, 36, 80
1, 77204, Note_on_c, 0, 72, 0
1, 77229, Note_on_c, 0, 64, 0
1, 77229, Note_on_c, 1, 48, 0
1, 77229, Note_on_c, 1, 36, 0
1, 77232, Note_on_c, 0, 74, 64
1, 77232, Note_on_c, 0, 71, 64
1, 77255, Note_on_c, 0, 71, 0
1, 77256, Note_on_c, 0, 67, 64
1, 77277, Note_on_c, 0, 74, 0
1, 77279, Note_on_c, 0, 67, 0
1, 77280, Note_on_c, 0, 76, 64
1, 77280, Note_on_c, 0, 72, 64
1, 77303, Note_on_c, 0, 72, 0
1, 77304, Note_on_c, 0, 67, 64
1, 77325, Note_on_c, 0, 76, 0
1, 77327, Note_on_c, 0, 67, 0
1, 77328, Note_on_c, 0, 77, 64
1, 77328, Note_on_c, 0, 74, 64
1, 77351, Note_on_c, 0, 74, 0
1, 77352, Note_on_c, 0, 67, 64
1, 77373, Note_on_c, 0, 77, 0
1, 77375, Note_on_c, 0, 67, 0
1, 77376, Note_on_c, 0, 79, 64
1, 77376, Note_on_c, 0, 76, 64
1, 77421, Note_on_c, 0, 79, 0
1, 77421, Note_on_c, 0, 76, 0
1, 77424, Note_on_c, 0, 74, 80
1, 77424, Note_on_c, 0, 69, 80
1, 77424, Note_on_c, 1, 53, 80
1, 77447, Note_on_c, 0, 69, 0
1, 77448, Note_on_c, 0, 65, 80
1, 77448, Note_on_c, 1, 53, 0
1, 77448, Note_on_c, 1, 50, 80
1, 77469, Note_on_c, 0, 74, 0
1, 77471, Note_on_c, 0, 65, 0
1, 77471, Note_on_c, 1, 50, 0
1, 77472, Note_on_c, 0, 72, 80
1, 77472, Note_on_c, 0, 67, 80
1, 77472, Note_on_c, 1, 55, 80
1, 77492, Note_on_c, 1, 55, 0
1, 77495, Note_on_c, 0, 67, 0
1, 77496, Note_on_c, 0, 64, 80
1, 77517, Note_on_c, 0, 72, 0
1, 77519, Note_on_c, 0, 64, 0
1, 77520, Note_on_c, 0, 71, 80
1, 77520, Note_on_c, 0, 65, 80
1, 77520, Note_on_c, 1, 55, 80
1, 77520, Note_on_c, 1, 43, 80
1, 77540, Note_on_c, 1, 55, 0
1, 77540, Note_on_c, 1, 43, 0
1, 77543, Note_on_c, 0, 65, 0
1, 77544, Note_on_c, 0, 62, 80
1, 77565, Note_on_c, 0, 71, 0
1, 77567, Note_on_c, 0, 62, 0
1, 77568, Note_on_c, 0, 72, 80
1, 77568, Note_on_c, 0, 64, 80
1, 77568, Note_on_c, 1, 48, 80
1, 77568, Note_on_c, 1, 36, 80
1, 77588, Note_on_c, 0, 72, 0
1, 77588, Note_on_c, 0, 64, 0
1, 77613, Note_on_c, 1, 48, 0
1, 77613, Note_on_c, 1, 36, 0
1, 77664, Note_on_c, 0, 74, 86
1, 77664, Note_on_c, 1, 43, 86
1, 77670, Note_on_c, 1, 47, 86
1, 77672, Note_on_c, 0, 77, 86
1, 77676, Note_on_c, 1, 50, 86
1, 77680, Note_on_c, 0, 83, 86
1, 77682, Note_on_c, 1, 55, 86
1, 77709, Note_on_c, 0, 83, 0
1, 77709, Note_on_c, 0, 77, 0
1, 77709, Note_on_c, 0, 74, 0
1, 77709, Note_on_c, 1, 55, 0
1, 77709, Note_on_c, 1, 50, 0
1, 77709, Note_on_c, 1, 47, 0
1, 77709, Note_on_c, 1, 43, 0
1, 77760, Note_on_c, 0, 72, 86
1, 77760, Note_on_c, 1, 36, 86
1, 77766, Note_on_c, 0, 76, 86
1, 77766, Note_on_c, 1, 40, 86
1, 77772, Note_on_c, 0, 79, 86
1, 77772, Note_on_c, 1, 43, 86
1, 77778, Note_on_c, 0, 84, 86
1, 77778, Note_on_c, 1, 48, 86
1, 77853, Note_on_c, 0, 84, 0
1, 77853, Note_on_c, 0, 79, 0
1, 77853, Note_on_c, 0, 76, 0
1, 77853, Note_on_c, 0, 72, 0
1, 77853, Note_on_c, 1, 48, 0
1, 77853, Note_on_c, 1, 43, 0
1, 77853, Note_on_c, 1, 40, 0
1, 77853, Note_on_c, 1, 36, 0
1, 77952, Note_on_c, 1, 67, 64
1, 77972, Note_on_c, 1, 67, 0
1, 77976, Note_on_c, 0, 74, 64
1, 77986, Note_on_c, 0, 74, 0
1, 78000, Note_on_c, 0, 76, 64
1, 78010, Note_on_c, 0, 76, 0
1, 78024, Note_on_c, 0, 78, 64
1, 78034, Note_on_c, 0, 78, 0
1, 78048, Note_on_c, 0, 79, 64
1, 78048, Note_on_c, 1, 62, 64
1, 78058, Note_on_c, 0, 79, 0
1, 78068, Note_on_c, 1, 62, 0
1, 78072, Note_on_c, 0, 81, 64
1, 78082, Note_on_c, 0, 81, 0
1, 78096, Note_on_c, 0, 82, 64
1, 78106, Note_on_c, 0, 82, 0
1, 78120, Note_on_c, 0, 84, 64
1, 78130, Note_on_c, 0, 84, 0
1, 78144, Note_on_c, 0, 86, 64
1, 78144, Note_on_c, 1, 58, 64
1, 78154, Note_on_c, 0, 86, 0
1, 78168, Note_on_c, 0, 84, 64
1, 78178, Note_on_c, 0, 84, 0
1, 78192, Note_on_c, 0, 82, 64
1, 78202, Note_on_c, 0, 82, 0
1, 78216, Note_on_c, 0, 81, 64
1, 78226, Note_on_c, 0, 81, 0
1, 78233, Note_on_c, 1, 58, 0
1, 78240, Note_on_c, 0, 79, 64
1, 78263, Note_on_c, 0, 79, 0
1, 78264, Note_on_c, 0, 81, 64
1, 78287, Note_on_c, 0, 81, 0
1, 78288, Note_on_c, 0, 82, 64
1, 78288, Note_on_c, 1, 63, 64
1, 78311, Note_on_c, 0, 82, 0
1, 78312, Note_on_c, 0, 79, 64
1, 78335, Note_on_c, 0, 79, 0
1, 78336, Note_on_c, 0, 84, 64
1, 78336, Note_on_c, 1, 63, 0
1, 78336, Note_on_c, 1, 57, 64
1, 78346, Note_on_c, 0, 84, 0
1, 78360, Note_on_c, 0, 82, 64
1, 78370, Note_on_c, 0, 82, 0
1, 78384, Note_on_c, 0, 81, 64
1, 78394, Note_on_c, 0, 81, 0
1, 78408, Note_on_c, 0, 79, 64
1, 78418, Note_on_c, 0, 79, 0
1, 78425, Note_on_c, 1, 57, 0
1, 78432, Note_on_c, 0, 78, 64
1, 78455, Note_on_c, 0, 78, 0
1, 78456, Note_on_c, 0, 79, 64
1, 78479, Note_on_c, 0, 79, 0
1, 78480, Note_on_c, 0, 81, 64
1, 78480, Note_on_c, 1, 62, 64
1, 78503, Note_on_c, 0, 81, 0
1, 78504, Note_on_c, 0, 78, 64
1, 78527, Note_on_c, 0, 78, 0
1, 78528, Note_on_c, 0, 82, 64
1, 78528, Note_on_c, 1, 62, 0
1, 78528, Note_on_c, 1, 55, 64
1, 78551, Note_on_c, 0, 82, 0
1, 78552, Note_on_c, 0, 84, 64
1, 78575, Note_on_c, 0, 84, 0
1, 78576, Note_on_c, 0, 82, 64
1, 78599, Note_on_c, 0, 82, 0
1, 78600, Note_on_c, 0, 81, 64
1, 78617, Note_on_c, 1, 55, 0
1, 78623, Note_on_c, 0, 81, 0
1, 78624, Note_on_c, 0, 79, 64
1, 78624, Note_on_c, 1, 58, 64
1, 78634, Note_on_c, 0, 79, 0
1, 78648, Note_on_c, 0, 77, 64
1, 78658, Note_on_c, 0, 77, 0
1, 78672, Note_on_c, 0, 76, 64
1, 78682, Note_on_c, 0, 76, 0
1, 78696, Note_on_c, 0, 74, 64
1, 78706, Note_on_c, 0, 74, 0
1, 78713, Note_on_c, 1, 58, 0
1, 78720, Note_on_c, 0, 81, 64
1, 78720, Note_on_c, 0, 73, 64
1, 78740, Note_on_c, 0, 81, 0
1, 78740, Note_on_c, 0, 73, 0
1, 78744, Note_on_c, 1, 45, 65
1, 78767, Note_on_c, 1, 45, 0
1, 78768, Note_on_c, 1, 47, 66
1, 78791, Note_on_c, 1, 47, 0
1, 78792, Note_on_c, 1, 49, 68
1, 78815, Note_on_c, 1, 49, 0
1, 78816, Note_on_c, 0, 76, 67
1, 78816, Note_on_c, 0, 73, 67
1, 78816, Note_on_c, 1, 50, 69
1, 78836, Note_on_c, 0, 76, 0
1, 78836, Note_on_c, 0, 73, 0
1, 78839, Note_on_c, 1, 50, 0
1, 78840, Note_on_c, 1, 52, 70
1, 78863, Note_on_c, 1, 52, 0
1, 78864, Note_on_c, 1, 54, 72
1, 78887, Note_on_c, 1, 54, 0
1, 78888, Note_on_c, 1, 56, 73
1, 78911, Note_on_c, 1, 56, 0
1, 78912, Note_on_c, 0, 73, 71
1, 78912, Note_on_c, 0, 64, 71
1, 78912, Note_on_c, 1, 57, 75
1, 78935, Note_on_c, 1, 57, 0
1, 78936, Note_on_c, 1, 56, 73
1, 78959, Note_on_c, 1, 56, 0
1, 78960, Note_on_c, 1, 57, 72
1, 78983, Note_on_c, 1, 57, 0
1, 78984, Note_on_c, 1, 58, 70
1, 79001, Note_on_c, 0, 73, 0
1, 79001, Note_on_c, 0, 64, 0
1, 79007, Note_on_c, 1, 58, 0
1, 79008, Note_on_c, 1, 57, 69
1, 79031, Note_on_c, 1, 57, 0
1, 79032, Note_on_c, 1, 55, 68
1, 79055, Note_on_c, 1, 55, 0
1, 79056, Note_on_c, 0, 69, 64
1, 79056, Note_on_c, 1, 53, 66
1, 79079, Note_on_c, 1, 53, 0
1, 79080, Note_on_c, 1, 52, 65
1, 79101, Note_on_c, 0, 69, 0
1, 79103, Note_on_c, 1, 52, 0
1, 79104, Note_on_c, 0, 81, 64
1, 79104, Note_on_c, 1, 53, 64
1, 79127, Note_on_c, 0, 81, 0
1, 79128, Note_on_c, 0, 80, 68
1, 79151, Note_on_c, 0, 80, 0
1, 79152, Note_on_c, 0, 81, 72
1, 79175, Note_on_c, 0, 81, 0
1, 79176, Note_on_c, 0, 82, 76
1, 79193, Note_on_c, 1, 53, 0
1, 79199, Note_on_c, 0, 82, 0
1, 79200, Note_on_c, 0, 81, 80
1, 79223, Note_on_c, 0, 81, 0
1, 79224, Note_on_c, 0, 79, 76
1, 79247, Note_on_c, 0, 79, 0
1, 79248, Note_on_c, 0, 77, 72
1, 79248, Note_on_c, 1, 57, 64
1, 79271, Note_on_c, 0, 77, 0
1, 79272, Note_on_c, 0, 76, 68
1, 79293, Note_on_c, 1, 57, 0
1, 79295, Note_on_c, 0, 76, 0
1, 79296, Note_on_c, 0, 77, 64
1, 79296, Note_on_c, 1, 69, 64
1, 79319, Note_on_c, 0, 77, 0
1, 79319, Note_on_c, 1, 69, 0
1, 79320, Note_on_c, 0, 76, 68
1, 79320, Note_on_c, 1, 68, 68
1, 79343, Note_on_c, 0, 76, 0
1, 79343, Note_on_c, 1, 68, 0
1, 79344, Note_on_c, 0, 77, 72
1, 79344, Note_on_c, 1, 69, 72
1, 79367, Note_on_c, 0, 77, 0
1, 79367, Note_on_c, 1, 69, 0
1, 79368, Note_on_c, 0, 79, 76
1, 79368, Note_on_c, 1, 70, 76
1, 79391, Note_on_c, 0, 79, 0
1, 79391, Note_on_c, 1, 70, 0
1, 79392, Note_on_c, 0, 77, 80
1, 79392, Note_on_c, 1, 69, 80
1, 79415, Note_on_c, 0, 77, 0
1, 79415, Note_on_c, 1, 69, 0
1, 79416, Note_on_c, 0, 76, 76
1, 79416, Note_on_c, 1, 67, 76
1, 79439, Note_on_c, 0, 76, 0
1, 79439, Note_on_c, 1, 67, 0
1, 79440, Note_on_c, 0, 74, 72
1, 79440, Note_on_c, 1, 65, 72
1, 79463, Note_on_c, 0, 74, 0
1, 79463, Note_on_c, 1, 65, 0
1, 79464, Note_on_c, 0, 73, 68
1, 79464, Note_on_c, 1, 64, 68
1, 79487, Note_on_c, 0, 73, 0
1, 79487, Note_on_c, 1, 64, 0
1, 79488, Note_on_c, 0, 74, 64
1, 79488, Note_on_c, 0, 69, 64
1, 79488, Note_on_c, 1, 65, 64
1, 79511, Note_on_c, 0, 69, 0
1, 79512, Note_on_c, 0, 68, 69
1, 79535, Note_on_c, 0, 68, 0
1, 79536, Note_on_c, 0, 69, 74
1, 79559, Note_on_c, 0, 69, 0
1, 79560, Note_on_c, 0, 70, 80
1, 79577, Note_on_c, 0, 74, 0
1, 79577, Note_on_c, 1, 65, 0
1, 79583, Note_on_c, 0, 70, 0
1, 79584, Note_on_c, 0, 69, 76
1, 79607, Note_on_c, 0, 69, 0
1, 79608, Note_on_c, 0, 67, 73
1, 79631, Note_on_c, 0, 67, 0
1, 79632, Note_on_c, 0, 65, 70
1, 79632, Note_on_c, 1, 61, 64
1, 79655, Note_on_c, 0, 65, 0
1, 79656, Note_on_c, 0, 64, 67
1, 79677, Note_on_c, 1, 61, 0
1, 79679, Note_on_c, 0, 64, 0
1, 79680, Note_on_c, 0, 65, 64
1, 79680, Note_on_c, 1, 62, 64
1, 79703, Note_on_c, 1, 62, 0
1, 79704, Note_on_c, 1, 61, 68
1, 79727, Note_on_c, 1, 61, 0
1, 79728, Note_on_c, 1, 62, 72
1, 79751, Note_on_c, 1, 62, 0
1, 79752, Note_on_c, 1, 57, 76
1, 79775, Note_on_c, 1, 57, 0
1, 79776, Note_on_c, 0, 65, 0
1, 79776, Note_on_c, 0, 66, 64
1, 79776, Note_on_c, 1, 60, 80
1, 79799, Note_on_c, 1, 60, 0
1, 79800, Note_on_c, 1, 59, 76
1, 79823, Note_on_c, 1, 59, 0
1, 79824, Note_on_c, 1, 60, 72
1, 79847, Note_on_c, 1, 60, 0
1, 79848, Note_on_c, 1, 57, 68
1, 79865, Note_on_c, 0, 66, 0
1, 79871, Note_on_c, 1, 57, 0
1, 79872, Note_on_c, 0, 74, 64
1, 79872, Note_on_c, 0, 67, 64
1, 79872, Note_on_c, 1, 58, 64
1, 79895, Note_on_c, 0, 74, 0
1, 79896, Note_on_c, 0, 73, 68
1, 79919, Note_on_c, 0, 73, 0
1, 79920, Note_on_c, 0, 74, 72
1, 79920, Note_on_c, 1, 58, 0
1, 79920, Note_on_c, 1, 55, 62
1, 79943, Note_on_c, 0, 74, 0
1, 79944, Note_on_c, 0, 70, 76
1, 79961, Note_on_c, 0, 67, 0
1, 79965, Note_on_c, 1, 55, 0
1, 79967, Note_on_c, 0, 70, 0
1, 79968, Note_on_c, 0, 72, 80
1, 79968, Note_on_c, 0, 62, 64
1, 79968, Note_on_c, 1, 57, 61
1, 79991, Note_on_c, 0, 72, 0
1, 79992, Note_on_c, 0, 71, 76
1, 80015, Note_on_c, 0, 71, 0
1, 80016, Note_on_c, 0, 72, 72
1, 80016, Note_on_c, 1, 57, 0
1, 80016, Note_on_c, 1, 54, 59
1, 80039, Note_on_c, 0, 72, 0
1, 80040, Note_on_c, 0, 69, 68
1, 80057, Note_on_c, 0, 62, 0
1, 80061, Note_on_c, 1, 54, 0
1, 80063, Note_on_c, 0, 69, 0
1, 80064, Note_on_c, 0, 70, 64
1, 80064, Note_on_c, 1, 58, 58
1, 80064, Note_on_c, 1, 55, 58
1, 80087, Note_on_c, 0, 70, 0
1, 80088, Note_on_c, 0, 62, 64
1, 80111, Note_on_c, 0, 62, 0
1, 80112, Note_on_c, 0, 64, 65
1, 80135, Note_on_c, 0, 64, 0
1, 80136, Note_on_c, 0, 66, 66
1, 80153, Note_on_c, 1, 58, 0
1, 80153, Note_on_c, 1, 55, 0
1, 80159, Note_on_c, 0, 66, 0
1, 80160, Note_on_c, 0, 67, 67
1, 80160, Note_on_c, 1, 57, 58
1, 80160, Note_on_c, 1, 53, 58
1, 80183, Note_on_c, 0, 67, 0
1, 80184, Note_on_c, 0, 69, 68
1, 80207, Note_on_c, 0, 69, 0
1, 80208, Note_on_c, 0, 70, 69
1, 80231, Note_on_c, 0, 70, 0
1, 80232, Note_on_c, 0, 72, 70
1, 80249, Note_on_c, 1, 57, 0
1, 80249, Note_on_c, 1, 53, 0
1, 80255, Note_on_c, 0, 72, 0
1, 80256, Note_on_c, 0, 74, 71
1, 80256, Note_on_c, 1, 55, 58
1, 80256, Note_on_c, 1, 52, 58
1, 80279, Note_on_c, 0, 74, 0
1, 80280, Note_on_c, 0, 72, 72
1, 80303, Note_on_c, 0, 72, 0
1, 80304, Note_on_c, 0, 79, 73
1, 80327, Note_on_c, 0, 79, 0
1, 80328, Note_on_c, 0, 77, 74
1, 80351, Note_on_c, 0, 77, 0
1, 80352, Note_on_c, 0, 76, 75
1, 80375, Note_on_c, 0, 76, 0
1, 80376, Note_on_c, 0, 74, 76
1, 80399, Note_on_c, 0, 74, 0
1, 80400, Note_on_c, 0, 72, 77
1, 80423, Note_on_c, 0, 72, 0
1, 80424, Note_on_c, 0, 70, 78
1, 80433, Note_on_c, 1, 55, 0
1, 80433, Note_on_c, 1, 52, 0
1, 80447, Note_on_c, 0, 70, 0
1, 80448, Note_on_c, 0, 69, 80
1, 80448, Note_on_c, 1, 53, 80
1, 80448, Note_on_c, 1, 41, 80
1, 80471, Note_on_c, 0, 69, 0
1, 80472, Note_on_c, 0, 65, 80
1, 80495, Note_on_c, 0, 65, 0
1, 80496, Note_on_c, 0, 67, 80
1, 80508, Note_on_c, 0, 67, 0
1, 80508, Note_on_c, 0, 65, 80
1, 80520, Note_on_c, 0, 65, 0
1, 80520, Note_on_c, 0, 64, 80
1, 80532, Note_on_c, 0, 64, 0
1, 80532, Note_on_c, 0, 65, 80
1, 80537, Note_on_c, 1, 53, 0
1, 80537, Note_on_c, 1, 41, 0
1, 80544, Note_on_c, 0, 65, 0
1, 80544, Note_on_c, 1, 48, 80
1, 80544, Note_on_c, 1, 36, 80
1, 80568, Note_on_c, 0, 69, 80
1, 80591, Note_on_c, 0, 69, 0
1, 80592, Note_on_c, 0, 70, 80
1, 80604, Note_on_c, 0, 70, 0
1, 80604, Note_on_c, 0, 69, 80
1, 80616, Note_on_c, 0, 69, 0
1, 80616, Note_on_c, 0, 67, 80
1, 80628, Note_on_c, 0, 67, 0
1, 80628, Note_on_c, 0, 69, 80
1, 80633, Note_on_c, 1, 48, 0
1, 80633, Note_on_c, 1, 36, 0
1, 80640, Note_on_c, 0, 69, 0
1, 80640, Note_on_c, 1, 45, 80
1, 80640, Note_on_c, 1, 33, 80
1, 80664, Note_on_c, 0, 72, 80
1, 80687, Note_on_c, 0, 72, 0
1, 80688, Note_on_c, 0, 74, 80
1, 80700, Note_on_c, 0, 74, 0
1, 80700, Note_on_c, 0, 72, 80
1, 80712, Note_on_c, 0, 72, 0
1, 80712, Note_on_c, 0, 70, 80
1, 80724, Note_on_c, 0, 70, 0
1, 80724, Note_on_c, 0, 72, 80
1, 80729, Note_on_c, 1, 45, 0
1, 80729, Note_on_c, 1, 33, 0
1, 80736, Note_on_c, 0, 72, 0
1, 80736, Note_on_c, 0, 77, 80
1, 80784, Note_on_c, 1, 50, 80
1, 80784, Note_on_c, 1, 38, 80
1, 80829, Note_on_c, 1, 50, 0
1, 80829, Note_on_c, 1, 38, 0
1, 80832, Note_on_c, 1, 43, 80
1, 80832, Note_on_c, 1, 31, 80
1, 80877, Note_on_c, 0, 77, 0
1, 80880, Note_on_c, 0, 76, 80
1, 80892, Note_on_c, 0, 76, 0
1, 80892, Note_on_c, 0, 77, 80
1, 80904, Note_on_c, 0, 77, 0
1, 80904, Note_on_c, 0, 79, 80
1, 80916, Note_on_c, 0, 79, 0
1, 80916, Note_on_c, 0, 81, 80
1, 80921, Note_on_c, 1, 43, 0
1, 80921, Note_on_c, 1, 31, 0
1, 80928, Note_on_c, 0, 81, 0
1, 80928, Note_on_c, 0, 82, 80
1, 80976, Note_on_c, 1, 48, 80
1, 80976, Note_on_c, 1, 36, 80
1, 81021, Note_on_c, 1, 48, 0
1, 81021, Note_on_c, 1, 36, 0
1, 81024, Note_on_c, 1, 41, 80
1, 81024, Note_on_c, 1, 29, 80
1, 81069, Note_on_c, 0, 82, 0
1, 81069, Note_on_c, 1, 41, 0
1, 81069, Note_on_c, 1, 29, 0
1, 81072, Note_on_c, 0, 81, 80
1, 81084, Note_on_c, 0, 81, 0
1, 81084, Note_on_c, 0, 79, 80
1, 81096, Note_on_c, 0, 79, 0
1, 81096, Note_on_c, 0, 81, 80
1, 81108, Note_on_c, 0, 81, 0
1, 81108, Note_on_c, 0, 82, 80
1, 81120, Note_on_c, 0, 82, 0
1, 81120, Note_on_c, 0, 84, 80
1, 81168, Note_on_c, 1, 69, 64
1, 81216, Note_on_c, 1, 69, 0
1, 81216, Note_on_c, 1, 58, 64
1, 81239, Note_on_c, 0, 84, 0
1, 81240, Note_on_c, 0, 85, 64
1, 81263, Note_on_c, 0, 85, 0
1, 81264, Note_on_c, 0, 86, 64
1, 81287, Note_on_c, 0, 86, 0
1, 81288, Note_on_c, 0, 78, 64
1, 81305, Note_on_c, 1, 58, 0
1, 81311, Note_on_c, 0, 78, 0
1, 81312, Note_on_c, 0, 79, 64
1, 81335, Note_on_c, 0, 79, 0
1, 81336, Note_on_c, 0, 81, 64
1, 81359, Note_on_c, 0, 81, 0
1, 81360, Note_on_c, 0, 82, 64
1, 81360, Note_on_c, 1, 67, 64
1, 81408, Note_on_c, 1, 67, 0
1, 81408, Note_on_c, 1, 57, 64
1, 81431, Note_on_c, 0, 82, 0
1, 81432, Note_on_c, 0, 83, 64
1, 81455, Note_on_c, 0, 83, 0
1, 81456, Note_on_c, 0, 84, 64
1, 81479, Note_on_c, 0, 84, 0
1, 81480, Note_on_c, 0, 76, 64
1, 81497, Note_on_c, 1, 57, 0
1, 81503, Note_on_c, 0, 76, 0
1, 81504, Note_on_c, 0, 77, 64
1, 81527, Note_on_c, 0, 77, 0
1, 81528, Note_on_c, 0, 79, 65
1, 81551, Note_on_c, 0, 79, 0
1, 81552, Note_on_c, 0, 81, 66
1, 81552, Note_on_c, 1, 65, 64
1, 81600, Note_on_c, 1, 65, 0
1, 81600, Note_on_c, 1, 55, 64
1, 81623, Note_on_c, 0, 81, 0
1, 81624, Note_on_c, 0, 84, 69
1, 81647, Note_on_c, 0, 84, 0
1, 81648, Note_on_c, 0, 82, 70
1, 81671, Note_on_c, 0, 82, 0
1, 81672, Note_on_c, 0, 79, 72
1, 81689, Note_on_c, 1, 55, 0
1, 81695, Note_on_c, 0, 79, 0
1, 81696, Note_on_c, 0, 76, 73
1, 81696, Note_on_c, 1, 60, 70
1, 81719, Note_on_c, 0, 76, 0
1, 81720, Note_on_c, 0, 72, 74
1, 81743, Note_on_c, 0, 72, 0
1, 81744, Note_on_c, 0, 70, 75
1, 81767, Note_on_c, 0, 70, 0
1, 81768, Note_on_c, 0, 67, 76
1, 81785, Note_on_c, 1, 60, 0
1, 81791, Note_on_c, 0, 67, 0
1, 81792, Note_on_c, 0, 69, 77
1, 81792, Note_on_c, 1, 57, 64
1, 81792, Note_on_c, 1, 53, 70
1, 81812, Note_on_c, 0, 69, 0
1, 81815, Note_on_c, 1, 57, 0
1, 81816, Note_on_c, 1, 60, 64
1, 81837, Note_on_c, 1, 53, 0
1, 81839, Note_on_c, 1, 60, 0
1, 81840, Note_on_c, 0, 69, 80
1, 81840, Note_on_c, 1, 57, 64
1, 81840, Note_on_c, 1, 53, 70
1, 81860, Note_on_c, 0, 69, 0
1, 81863, Note_on_c, 1, 57, 0
1, 81864, Note_on_c, 1, 60, 64
1, 81885, Note_on_c, 1, 53, 0
1, 81887, Note_on_c, 1, 60, 0
1, 81888, Note_on_c, 1, 57, 64
1, 81888, Note_on_c, 1, 53, 70
1, 81911, Note_on_c, 1, 57, 0
1, 81912, Note_on_c, 0, 72, 80
1, 81912, Note_on_c, 1, 60, 64
1, 81922, Note_on_c, 0, 72, 0
1, 81933, Note_on_c, 1, 53, 0
1, 81935, Note_on_c, 1, 60, 0
1, 81936, Note_on_c, 0, 74, 80
1, 81936, Note_on_c, 1, 57, 64
1, 81936, Note_on_c, 1, 53, 70
1, 81948, Note_on_c, 0, 74, 0
1, 81948, Note_on_c, 0, 72, 80
1, 81959, Note_on_c, 1, 57, 0
1, 81960, Note_on_c, 0, 72, 0
1, 81960, Note_on_c, 0, 71, 80
1, 81960, Note_on_c, 1, 60, 64
1, 81972, Note_on_c, 0, 71, 0
1, 81972, Note_on_c, 0, 72, 80
1, 81981, Note_on_c, 1, 53, 0
1, 81983, Note_on_c, 1, 60, 0
1, 81984, Note_on_c, 0, 72, 0
1, 81984, Note_on_c, 0, 64, 80
1, 81984, Note_on_c, 1, 58, 64
1, 81984, Note_on_c, 1, 53, 70
1, 82004, Note_on_c, 0, 64, 0
1, 82007, Note_on_c, 1, 58, 0
1, 82008, Note_on_c, 1, 60, 64
1, 82029, Note_on_c, 1, 53, 0
1, 82031, Note_on_c, 1, 60, 0
1, 82032, Note_on_c, 0, 64, 80
1, 82032, Note_on_c, 1, 58, 64
1, 82032, Note_on_c, 1, 53, 70
1, 82052, Note_on_c, 0, 64, 0
1, 82055, Note_on_c, 1, 58, 0
1, 82056, Note_on_c, 1, 60, 64
1, 82077, Note_on_c, 1, 53, 0
1, 82079, Note_on_c, 1, 60, 0
1, 82080, Note_on_c, 1, 58, 64
1, 82080, Note_on_c, 1, 53, 70
1, 82103, Note_on_c, 1, 58, 0
1, 82104, Note_on_c, 0, 72, 80
1, 82104, Note_on_c, 1, 60, 64
1, 82114, Note_on_c, 0, 72, 0
1, 82125, Note_on_c, 1, 53, 0
1, 82127, Note_on_c, 1, 60, 0
1, 82128, Note_on_c, 0, 74, 80
1, 82128, Note_on_c, 1, 58, 64
1, 82128, Note_on_c, 1, 53, 70
1, 82140, Note_on_c, 0, 74, 0
1, 82140, Note_on_c, 0, 72, 80
1, 82151, Note_on_c, 1, 58, 0
1, 82152, Note_on_c, 0, 72, 0
1, 82152, Note_on_c, 0, 71, 80
1, 82152, Note_on_c, 1, 60, 64
1, 82164, Note_on_c, 0, 71, 0
1, 82164, Note_on_c, 0, 72, 80
1, 82173, Note_on_c, 1, 53, 0
1, 82175, Note_on_c, 1, 60, 0
1, 82176, Note_on_c, 0, 72, 0
1, 82176, Note_on_c, 0, 77, 80
1, 82176, Note_on_c, 1, 57, 64
1, 82176, Note_on_c, 1, 53, 70
1, 82199, Note_on_c, 1, 57, 0
1, 82200, Note_on_c, 1, 60, 64
1, 82221, Note_on_c, 1, 53, 0
1, 82223, Note_on_c, 1, 60, 0
1, 82224, Note_on_c, 0, 77, 0
1, 82224, Note_on_c, 0, 81, 80
1, 82224, Note_on_c, 1, 57, 64
1, 82224, Note_on_c, 1, 53, 70
1, 82247, Note_on_c, 1, 57, 0
1, 82248, Note_on_c, 1, 60, 64
1, 82269, Note_on_c, 0, 81, 0
1, 82269, Note_on_c, 1, 53, 0
1, 82271, Note_on_c, 1, 60, 0
1, 82272, Note_on_c, 1, 57, 64
1, 82272, Note_on_c, 1, 53, 70
1, 82295, Note_on_c, 1, 57, 0
1, 82296, Note_on_c, 0, 84, 80
1, 82296, Note_on_c, 1, 60, 64
1, 82306, Note_on_c, 0, 84, 0
1, 82317, Note_on_c, 1, 53, 0
1, 82319, Note_on_c, 1, 60, 0
1, 82320, Note_on_c, 0, 86, 80
1, 82320, Note_on_c, 1, 57, 64
1, 82320, Note_on_c, 1, 53, 70
1, 82332, Note_on_c, 0, 86, 0
1, 82332, Note_on_c, 0, 84, 80
1, 82343, Note_on_c, 1, 57, 0
1, 82344, Note_on_c, 0, 84, 0
1, 82344, Note_on_c, 0, 83, 80
1, 82344, Note_on_c, 1, 60, 64
1, 82356, Note_on_c, 0, 83, 0
1, 82356, Note_on_c, 0, 84, 80
1, 82365, Note_on_c, 1, 53, 0
1, 82367, Note_on_c, 1, 60, 0
1, 82368, Note_on_c, 0, 84, 0
1, 82368, Note_on_c, 0, 76, 80
1, 82368, Note_on_c, 1, 58, 64
1, 82368, Note_on_c, 1, 53, 70
1, 82388, Note_on_c, 0, 76, 0
1, 82391, Note_on_c, 1, 58, 0
1, 82392, Note_on_c, 1, 60, 65
1, 82413, Note_on_c, 1, 53, 0
1, 82415, Note_on_c, 1, 60, 0
1, 82416, Note_on_c, 0, 76, 80
1, 82416, Note_on_c, 1, 58, 66
1, 82416, Note_on_c, 1, 53, 70
1, 82436, Note_on_c, 0, 76, 0
1, 82439, Note_on_c, 1, 58, 0
1, 82440, Note_on_c, 1, 60, 67
1, 82461, Note_on_c, 1, 53, 0
1, 82463, Note_on_c, 1, 60, 0
1, 82464, Note_on_c, 1, 58, 68
1, 82464, Note_on_c, 1, 53, 70
1, 82487, Note_on_c, 1, 58, 0
1, 82488, Note_on_c, 0, 84, 81
1, 82488, Note_on_c, 1, 60, 70
1, 82498, Note_on_c, 0, 84, 0
1, 82509, Note_on_c, 1, 53, 0
1, 82511, Note_on_c, 1, 60, 0
1, 82512, Note_on_c, 0, 86, 81
1, 82512, Note_on_c, 1, 58, 71
1, 82512, Note_on_c, 1, 53, 70
1, 82524, Note_on_c, 0, 86, 0
1, 82524, Note_on_c, 0, 84, 81
1, 82535, Note_on_c, 1, 58, 0
1, 82536, Note_on_c, 0, 84, 0
1, 82536, Note_on_c, 0, 83, 81
1, 82536, Note_on_c, 1, 60, 72
1, 82548, Note_on_c, 0, 83, 0
1, 82548, Note_on_c, 0, 84, 81
1, 82557, Note_on_c, 1, 53, 0
1, 82559, Note_on_c, 1, 60, 0
1, 82560, Note_on_c, 0, 84, 0
1, 82560, Note_on_c, 0, 80, 82
1, 82560, Note_on_c, 1, 53, 73
1, 82583, Note_on_c, 1, 53, 0
1, 82584, Note_on_c, 1, 60, 75
1, 82607, Note_on_c, 1, 60, 0
1, 82608, Note_on_c, 1, 53, 75
1, 82631, Note_on_c, 1, 53, 0
1, 82632, Note_on_c, 1, 60, 75
1, 82655, Note_on_c, 1, 60, 0
1, 82656, Note_on_c, 1, 53, 75
1, 82679, Note_on_c, 1, 53, 0
1, 82680, Note_on_c, 1, 60, 75
1, 82703, Note_on_c, 1, 60, 0
1, 82704, Note_on_c, 1, 53, 75
1, 82727, Note_on_c, 1, 53, 0
1, 82728, Note_on_c, 1, 60, 75
1, 82737, Note_on_c, 0, 80, 0
1, 82751, Note_on_c, 1, 60, 0
1, 82752, Note_on_c, 0, 89, 100
1, 82752, Note_on_c, 1, 53, 75
1, 82775, Note_on_c, 1, 53, 0
1, 82776, Note_on_c, 1, 61, 75
1, 82799, Note_on_c, 1, 61, 0
1, 82800, Note_on_c, 1, 53, 75
1, 82823, Note_on_c, 1, 53, 0
1, 82824, Note_on_c, 1, 61, 75
1, 82847, Note_on_c, 1, 61, 0
1, 82848, Note_on_c, 1, 53, 75
1, 82871, Note_on_c, 1, 53, 0
1, 82872, Note_on_c, 1, 61, 75
1, 82895, Note_on_c, 1, 61, 0
1, 82896, Note_on_c, 1, 53, 75
1, 82919, Note_on_c, 1, 53, 0
1, 82920, Note_on_c, 1, 61, 75
1, 82939, Note_on_c, 0, 89, 0
1, 82943, Note_on_c, 1, 61, 0
1, 82944, Note_on_c, 0, 79, 86
1, 82944, Note_on_c, 1, 51, 75
1, 82967, Note_on_c, 1, 51, 0
1, 82968, Note_on_c, 1, 61, 74
1, 82989, Note_on_c, 0, 79, 0
1, 82991, Note_on_c, 1, 61, 0
1, 82992, Note_on_c, 0, 89, 85
1, 82992, Note_on_c, 1, 51, 74
1, 83015, Note_on_c, 1, 51, 0
1, 83016, Note_on_c, 1, 61, 74
1, 83039, Note_on_c, 0, 89, 0
1, 83039, Note_on_c, 1, 61, 0
1, 83040, Note_on_c, 0, 87, 84
1, 83040, Note_on_c, 1, 51, 73
1, 83063, Note_on_c, 1, 51, 0
1, 83064, Note_on_c, 1, 60, 73
1, 83085, Note_on_c, 0, 87, 0
1, 83087, Note_on_c, 1, 60, 0
1, 83088, Note_on_c, 0, 80, 83
1, 83088, Note_on_c, 1, 51, 73
1, 83111, Note_on_c, 1, 51, 0
1, 83112, Note_on_c, 1, 60, 72
1, 83133, Note_on_c, 0, 80, 0
1, 83135, Note_on_c, 1, 60, 0
1, 83136, Note_on_c, 0, 79, 83
1, 83136, Note_on_c, 1, 51, 72
1, 83159, Note_on_c, 1, 51, 0
1, 83160, Note_on_c, 1, 58, 72
1, 83181, Note_on_c, 0, 79, 0
1, 83183, Note_on_c, 1, 58, 0
1, 83184, Note_on_c, 0, 85, 82
1, 83184, Note_on_c, 1, 51, 71
1, 83207, Note_on_c, 1, 51, 0
1, 83208, Note_on_c, 1, 58, 71
1, 83229, Note_on_c, 0, 85, 0
1, 83231, Note_on_c, 1, 58, 0
1, 83232, Note_on_c, 0, 84, 81
1, 83232, Note_on_c, 1, 51, 71
1, 83255, Note_on_c, 1, 51, 0
1, 83256, Note_on_c, 1, 56, 70
1, 83277, Note_on_c, 0, 84, 0
1, 83279, Note_on_c, 1, 56, 0
1, 83280, Note_on_c, 0, 80, 80
1, 83280, Note_on_c, 1, 51, 70
1, 83303, Note_on_c, 1, 51, 0
1, 83304, Note_on_c, 1, 56, 70
1, 83325, Note_on_c, 0, 80, 0
1, 83327, Note_on_c, 1, 56, 0
1, 83328, Note_on_c, 0, 79, 80
1, 83328, Note_on_c, 1, 51, 70
1, 83351, Note_on_c, 1, 51, 0
1, 83352, Note_on_c, 1, 61, 70
1, 83373, Note_on_c, 0, 79, 0
1, 83375, Note_on_c, 1, 61, 0
1, 83376, Note_on_c, 0, 89, 80
1, 83376, Note_on_c, 1, 51, 70
1, 83399, Note_on_c, 1, 51, 0
1, 83400, Note_on_c, 1, 61, 69
1, 83423, Note_on_c, 0, 89, 0
1, 83423, Note_on_c, 1, 61, 0
1, 83424, Note_on_c, 0, 87, 79
1, 83424, Note_on_c, 1, 51, 69
1, 83447, Note_on_c, 1, 51, 0
1, 83448, Note_on_c, 1, 60, 68
1, 83469, Note_on_c, 0, 87, 0
1, 83471, Note_on_c, 1, 60, 0
1, 83472, Note_on_c, 0, 80, 78
1, 83472, Note_on_c, 1, 51, 68
1, 83495, Note_on_c, 1, 51, 0
1, 83496, Note_on_c, 1, 60, 67
1, 83517, Note_on_c, 0, 80, 0
1, 83519, Note_on_c, 1, 60, 0
1, 83520, Note_on_c, 0, 79, 77
1, 83520, Note_on_c, 1, 51, 67
1, 83543, Note_on_c, 1, 51, 0
1, 83544, Note_on_c, 1, 58, 67
1, 83565, Note_on_c, 0, 79, 0
1, 83567, Note_on_c, 1, 58, 0
1, 83568, Note_on_c, 0, 85, 77
1, 83568, Note_on_c, 1, 51, 66
1, 83591, Note_on_c, 1, 51, 0
1, 83592, Note_on_c, 1, 58, 66
1, 83613, Note_on_c, 0, 85, 0
1, 83615, Note_on_c, 1, 58, 0
1, 83616, Note_on_c, 0, 84, 76
1, 83616, Note_on_c, 1, 51, 65
1, 83639, Note_on_c, 1, 51, 0
1, 83640, Note_on_c, 1, 56, 65
1, 83661, Note_on_c, 0, 84, 0
1, 83663, Note_on_c, 1, 56, 0
1, 83664, Note_on_c, 0, 80, 75
1, 83664, Note_on_c, 1, 51, 64
1, 83687, Note_on_c, 1, 51, 0
1, 83688, Note_on_c, 1, 56, 64
1, 83709, Note_on_c, 0, 80, 0
1, 83711, Note_on_c, 1, 56, 0
1, 83712, Note_on_c, 0, 74, 86
1, 83712, Note_on_c, 1, 51, 75
1, 83735, Note_on_c, 1, 51, 0
1, 83736, Note_on_c, 1, 56, 74
1, 83757, Note_on_c, 0, 74, 0
1, 83759, Note_on_c, 1, 56, 0
1, 83760, Note_on_c, 0, 83, 83
1, 83760, Note_on_c, 1, 51, 73
1, 83783, Note_on_c, 1, 51, 0
1, 83784, Note_on_c, 1, 56, 72
1, 83805, Note_on_c, 0, 83, 0
1, 83807, Note_on_c, 1, 56, 0
1, 83808, Note_on_c, 0, 80, 81
1, 83808, Note_on_c, 1, 51, 71
1, 83831, Note_on_c, 1, 51, 0
1, 83832, Note_on_c, 1, 56, 70
1, 83853, Note_on_c, 0, 80, 0
1, 83855, Note_on_c, 1, 56, 0
1, 83856, Note_on_c, 0, 74, 78
1, 83856, Note_on_c, 1, 51, 69
1, 83879, Note_on_c, 1, 51, 0
1, 83880, Note_on_c, 1, 56, 68
1, 83901, Note_on_c, 0, 74, 0
1, 83903, Note_on_c, 1, 56, 0
1, 83904, Note_on_c, 0, 75, 76
1, 83904, Note_on_c, 1, 51, 67
1, 83927, Note_on_c, 1, 51, 0
1, 83928, Note_on_c, 1, 55, 66
1, 83949, Note_on_c, 0, 75, 0
1, 83951, Note_on_c, 1, 55, 0
1, 83952, Note_on_c, 0, 82, 73
1, 83952, Note_on_c, 1, 51, 65
1, 83975, Note_on_c, 1, 51, 0
1, 83976, Note_on_c, 1, 55, 64
1, 83997, Note_on_c, 0, 82, 0
1, 83999, Note_on_c, 1, 55, 0
1, 84000, Note_on_c, 0, 79, 71
1, 84000, Note_on_c, 1, 51, 63
1, 84023, Note_on_c, 1, 51, 0
1, 84024, Note_on_c, 1, 55, 62
1, 84045, Note_on_c, 0, 79, 0
1, 84047, Note_on_c, 1, 55, 0
1, 84048, Note_on_c, 0, 75, 68
1, 84048, Note_on_c, 1, 51, 61
1, 84071, Note_on_c, 1, 51, 0
1, 84072, Note_on_c, 1, 55, 60
1, 84093, Note_on_c, 0, 75, 0
1, 84095, Note_on_c, 1, 55, 0
1, 84096, Note_on_c, 0, 74, 66
1, 84096, Note_on_c, 1, 51, 59
1, 84119, Note_on_c, 1, 51, 0
1, 84120, Note_on_c, 1, 56, 58
1, 84141, Note_on_c, 0, 74, 0
1, 84143, Note_on_c, 1, 56, 0
1, 84144, Note_on_c, 0, 71, 64
1, 84144, Note_on_c, 1, 51, 58
1, 84167, Note_on_c, 1, 51, 0
1, 84168, Note_on_c, 1, 56, 58
1, 84189, Note_on_c, 0, 71, 0
1, 84191, Note_on_c, 1, 56, 0
1, 84192, Note_on_c, 0, 68, 64
1, 84192, Note_on_c, 1, 51, 58
1, 84215, Note_on_c, 1, 51, 0
1, 84216, Note_on_c, 1, 56, 58
1, 84237, Note_on_c, 0, 68, 0
1, 84239, Note_on_c, 1, 56, 0
1, 84240, Note_on_c, 0, 62, 64
1, 84240, Note_on_c, 1, 51, 58
1, 84263, Note_on_c, 1, 51, 0
1, 84264, Note_on_c, 1, 56, 58
1, 84285, Note_on_c, 0, 62, 0
1, 84287, Note_on_c, 1, 56, 0
1, 84288, Note_on_c, 0, 63, 64
1, 84288, Note_on_c, 1, 51, 58
1, 84311, Note_on_c, 1, 51, 0
1, 84312, Note_on_c, 1, 55, 58
1, 84333, Note_on_c, 0, 63, 0
1, 84335, Note_on_c, 1, 55, 0
1, 84336, Note_on_c, 0, 70, 64
1, 84336, Note_on_c, 1, 51, 58
1, 84359, Note_on_c, 1, 51, 0
1, 84360, Note_on_c, 1, 55, 58
1, 84381, Note_on_c, 0, 70, 0
1, 84383, Note_on_c, 1, 55, 0
1, 84384, Note_on_c, 0, 67, 64
1, 84384, Note_on_c, 1, 51, 58
1, 84407, Note_on_c, 1, 51, 0
1, 84408, Note_on_c, 1, 55, 58
1, 84429, Note_on_c, 0, 67, 0
1, 84431, Note_on_c, 1, 55, 0
1, 84432, Note_on_c, 0, 63, 64
1, 84432, Note_on_c, 1, 51, 58
1, 84455, Note_on_c, 1, 51, 0
1, 84456, Note_on_c, 1, 55, 58
1, 84477, Note_on_c, 0, 63, 0
1, 84479, Note_on_c, 1, 55, 0
1, 84480, Note_on_c, 0, 62, 64
1, 84480, Note_on_c, 1, 56, 58
1, 84480, Note_on_c, 1, 51, 58
1, 84525, Note_on_c, 0, 62, 0
1, 84528, Note_on_c, 0, 59, 64
1, 84573, Note_on_c, 0, 59, 0
1, 84576, Note_on_c, 0, 58, 64
1, 84621, Note_on_c, 0, 58, 0
1, 84624, Note_on_c, 0, 62, 64
1, 84669, Note_on_c, 0, 62, 0
1, 84672, Note_on_c, 0, 65, 64
1, 84717, Note_on_c, 0, 65, 0
1, 84720, Note_on_c, 0, 68, 64
1, 84765, Note_on_c, 0, 68, 0
1, 84768, Note_on_c, 0, 71, 64
1, 84813, Note_on_c, 0, 71, 0
1, 84816, Note_on_c, 0, 62, 64
1, 84861, Note_on_c, 0, 62, 0
1, 84864, Note_on_c, 0, 63, 64
1, 84864, Note_on_c, 1, 56, 0
1, 84864, Note_on_c, 1, 55, 58
1, 84931, Note_on_c, 0, 63, 0
1, 84936, Note_on_c, 0, 62, 64
1, 84953, Note_on_c, 1, 55, 0
1, 84953, Note_on_c, 1, 51, 0
1, 84959, Note_on_c, 0, 62, 0
1, 84960, Note_on_c, 0, 63, 64
1, 84960, Note_on_c, 1, 55, 58
1, 84960, Note_on_c, 1, 51, 58
1, 84983, Note_on_c, 0, 63, 0
1, 84984, Note_on_c, 0, 62, 64
1, 85005, Note_on_c, 1, 55, 0
1, 85005, Note_on_c, 1, 51, 0
1, 85007, Note_on_c, 0, 62, 0
1, 85008, Note_on_c, 0, 63, 64
1, 85008, Note_on_c, 1, 55, 58
1, 85008, Note_on_c, 1, 51, 58
1, 85031, Note_on_c, 0, 63, 0
1, 85032, Note_on_c, 0, 62, 64
1, 85053, Note_on_c, 1, 55, 0
1, 85053, Note_on_c, 1, 51, 0
1, 85055, Note_on_c, 0, 62, 0
1, 85056, Note_on_c, 0, 63, 64
1, 85056, Note_on_c, 1, 55, 58
1, 85056, Note_on_c, 1, 51, 58
1, 85145, Note_on_c, 0, 63, 0
1, 85145, Note_on_c, 1, 55, 0
1, 85145, Note_on_c, 1, 51, 0
1, 85248, Note_on_c, 0, 56, 64
1, 85248, Note_on_c, 1, 44, 58
1, 85337, Note_on_c, 0, 56, 0
1, 85337, Note_on_c, 1, 44, 0
1, 85344, Note_on_c, 0, 51, 64
1, 85344, Note_on_c, 1, 39, 58
1, 85433, Note_on_c, 0, 51, 0
1, 85433, Note_on_c, 1, 39, 0
1, 85440, Note_on_c, 0, 48, 64
1, 85440, Note_on_c, 1, 36, 58
1, 85529, Note_on_c, 0, 48, 0
1, 85529, Note_on_c, 1, 36, 0
1, 85584, Note_on_c, 0, 53, 64
1, 85584, Note_on_c, 1, 41, 58
1, 85632, Note_on_c, 0, 53, 0
1, 85632, Note_on_c, 0, 46, 64
1, 85632, Note_on_c, 1, 41, 0
1, 85632, Note_on_c, 1, 34, 58
1, 85721, Note_on_c, 0, 46, 0
1, 85721, Note_on_c, 1, 34, 0
1, 85776, Note_on_c, 0, 51, 64
1, 85776, Note_on_c, 1, 39, 58
1, 85824, Note_on_c, 0, 51, 0
1, 85824, Note_on_c, 0, 44, 64
1, 85824, Note_on_c, 1, 39, 0
1, 85824, Note_on_c, 1, 32, 58
1, 85913, Note_on_c, 0, 44, 0
1, 85913, Note_on_c, 1, 32, 0
1, 85968, Note_on_c, 0, 72, 64
1, 86016, Note_on_c, 0, 72, 0
1, 86016, Note_on_c, 0, 61, 64
1, 86064, Note_on_c, 1, 56, 58
1, 86064, Note_on_c, 1, 53, 58
1, 86105, Note_on_c, 0, 61, 0
1, 86112, Note_on_c, 1, 56, 0
1, 86112, Note_on_c, 1, 53, 0
1, 86112, Note_on_c, 1, 58, 58
1, 86112, Note_on_c, 1, 55, 58
1, 86157, Note_on_c, 1, 58, 0
1, 86157, Note_on_c, 1, 55, 0
1, 86160, Note_on_c, 0, 70, 64
1, 86208, Note_on_c, 0, 70, 0
1, 86208, Note_on_c, 0, 60, 64
1, 86256, Note_on_c, 1, 55, 58
1, 86256, Note_on_c, 1, 52, 58
1, 86297, Note_on_c, 0, 60, 0
1, 86304, Note_on_c, 1, 55, 0
1, 86304, Note_on_c, 1, 52, 0
1, 86304, Note_on_c, 1, 56, 58
1, 86304, Note_on_c, 1, 53, 58
1, 86349, Note_on_c, 1, 56, 0
1, 86349, Note_on_c, 1, 53, 0
1, 86352, Note_on_c, 0, 68, 64
1, 86400, Note_on_c, 0, 68, 0
1, 86400, Note_on_c, 0, 59, 64
1, 86448, Note_on_c, 0, 59, 0
1, 86448, Note_on_c, 0, 68, 64
1, 86448, Note_on_c, 1, 53, 76
1, 86448, Note_on_c, 1, 50, 76
1, 86493, Note_on_c, 0, 68, 0
1, 86493, Note_on_c, 1, 53, 0
1, 86493, Note_on_c, 1, 50, 0
1, 86496, Note_on_c, 0, 60, 64
1, 86544, Note_on_c, 0, 60, 0
1, 86544, Note_on_c, 0, 68, 64
1, 86544, Note_on_c, 1, 51, 76
1, 86544, Note_on_c, 1, 48, 76
1, 86589, Note_on_c, 0, 68, 0
1, 86589, Note_on_c, 1, 51, 0
1, 86589, Note_on_c, 1, 48, 0
1, 86592, Note_on_c, 0, 62, 65
1, 86640, Note_on_c, 0, 62, 0
1, 86640, Note_on_c, 0, 68, 66
1, 86640, Note_on_c, 1, 50, 78
1, 86640, Note_on_c, 1, 47, 78
1, 86685, Note_on_c, 0, 68, 0
1, 86685, Note_on_c, 1, 50, 0
1, 86685, Note_on_c, 1, 47, 0
1, 86688, Note_on_c, 0, 60, 66
1, 86736, Note_on_c, 0, 60, 0
1, 86736, Note_on_c, 0, 68, 67
1, 86736, Note_on_c, 1, 51, 80
1, 86736, Note_on_c, 1, 48, 80
1, 86781, Note_on_c, 0, 68, 0
1, 86781, Note_on_c, 1, 51, 0
1, 86781, Note_on_c, 1, 48, 0
1, 86784, Note_on_c, 0, 59, 68
1, 86807, Note_on_c, 0, 59, 0
1, 86808, Note_on_c, 0, 68, 68
1, 86831, Note_on_c, 0, 68, 0
1, 86832, Note_on_c, 0, 59, 69
1, 86832, Note_on_c, 1, 53, 82
1, 86832, Note_on_c, 1, 50, 82
1, 86855, Note_on_c, 0, 59, 0
1, 86856, Note_on_c, 0, 68, 69
1, 86877, Note_on_c, 1, 53, 0
1, 86877, Note_on_c, 1, 50, 0
1, 86879, Note_on_c, 0, 68, 0
1, 86880, Note_on_c, 0, 60, 69
1, 86903, Note_on_c, 0, 60, 0
1, 86904, Note_on_c, 0, 68, 70
1, 86927, Note_on_c, 0, 68, 0
1, 86928, Note_on_c, 0, 60, 70
1, 86928, Note_on_c, 1, 51, 83
1, 86928, Note_on_c, 1, 48, 83
1, 86951, Note_on_c, 0, 60, 0
1, 86952, Note_on_c, 0, 68, 70
1, 86973, Note_on_c, 1, 51, 0
1, 86973, Note_on_c, 1, 48, 0
1, 86975, Note_on_c, 0, 68, 0
1, 86976, Note_on_c, 0, 62, 71
1, 86999, Note_on_c, 0, 62, 0
1, 87000, Note_on_c, 0, 68, 71
1, 87023, Note_on_c, 0, 68, 0
1, 87024, Note_on_c, 0, 62, 71
1, 87024, Note_on_c, 1, 50, 85
1, 87024, Note_on_c, 1, 47, 85
1, 87047, Note_on_c, 0, 62, 0
1, 87048, Note_on_c, 0, 68, 72
1, 87069, Note_on_c, 1, 50, 0
1, 87069, Note_on_c, 1, 47, 0
1, 87071, Note_on_c, 0, 68, 0
1, 87072, Note_on_c, 0, 59, 72
1, 87095, Note_on_c, 0, 59, 0
1, 87096, Note_on_c, 0, 68, 73
1, 87119, Note_on_c, 0, 68, 0
1, 87120, Note_on_c, 0, 59, 73
1, 87120, Note_on_c, 1, 53, 87
1, 87120, Note_on_c, 1, 50, 87
1, 87143, Note_on_c, 0, 59, 0
1, 87144, Note_on_c, 0, 68, 73
1, 87165, Note_on_c, 1, 53, 0
1, 87165, Note_on_c, 1, 50, 0
1, 87167, Note_on_c, 0, 68, 0
1, 87168, Note_on_c, 0, 60, 74
1, 87191, Note_on_c, 0, 60, 0
1, 87192, Note_on_c, 0, 72, 74
1, 87215, Note_on_c, 0, 72, 0
1, 87216, Note_on_c, 0, 60, 74
1, 87216, Note_on_c, 1, 55, 89
1, 87216, Note_on_c, 1, 51, 89
1, 87239, Note_on_c, 0, 60, 0
1, 87240, Note_on_c, 0, 72, 75
1, 87261, Note_on_c, 1, 55, 0
1, 87261, Note_on_c, 1, 51, 0
1, 87263, Note_on_c, 0, 72, 0
1, 87264, Note_on_c, 0, 59, 75
1, 87287, Note_on_c, 0, 59, 0
1, 87288, Note_on_c, 0, 71, 75
1, 87311, Note_on_c, 0, 71, 0
1, 87312, Note_on_c, 0, 59, 76
1, 87312, Note_on_c, 1, 53, 90
1, 87312, Note_on_c, 1, 50, 90
1, 87335, Note_on_c, 0, 59, 0
1, 87336, Note_on_c, 0, 71, 76
1, 87357, Note_on_c, 1, 53, 0
1, 87357, Note_on_c, 1, 50, 0
1, 87359, Note_on_c, 0, 71, 0
1, 87360, Note_on_c, 0, 60, 76
1, 87383, Note_on_c, 0, 60, 0
1, 87384, Note_on_c, 0, 72, 77
1, 87407, Note_on_c, 0, 72, 0
1, 87408, Note_on_c, 0, 60, 77
1, 87408, Note_on_c, 1, 55, 92
1, 87408, Note_on_c, 1, 51, 92
1, 87431, Note_on_c, 0, 60, 0
1, 87432, Note_on_c, 0, 72, 78
1, 87453, Note_on_c, 1, 55, 0
1, 87453, Note_on_c, 1, 51, 0
1, 87455, Note_on_c, 0, 72, 0
1, 87456, Note_on_c, 0, 61, 78
1, 87479, Note_on_c, 0, 61, 0
1, 87480, Note_on_c, 0, 73, 78
1, 87503, Note_on_c, 0, 73, 0
1, 87504, Note_on_c, 0, 61, 79
1, 87504, Note_on_c, 1, 55, 94
1, 87504, Note_on_c, 1, 52, 94
1, 87527, Note_on_c, 0, 61, 0
1, 87528, Note_on_c, 0, 73, 79
1, 87549, Note_on_c, 1, 55, 0
1, 87549, Note_on_c, 1, 52, 0
1, 87551, Note_on_c, 0, 73, 0
1, 87552, Note_on_c, 0, 62, 79
1, 87575, Note_on_c, 0, 62, 0
1, 87576, Note_on_c, 0, 74, 80
1, 87599, Note_on_c, 0, 74, 0
1, 87600, Note_on_c, 0, 62, 80
1, 87600, Note_on_c, 1, 57, 96
1, 87600, Note_on_c, 1, 53, 96
1, 87623, Note_on_c, 0, 62, 0
1, 87624, Note_on_c, 0, 74, 80
1, 87645, Note_on_c, 1, 57, 0
1, 87645, Note_on_c, 1, 53, 0
1, 87647, Note_on_c, 0, 74, 0
1, 87648, Note_on_c, 0, 61, 81
1, 87671, Note_on_c, 0, 61, 0
1, 87672, Note_on_c, 0, 73, 81
1, 87695, Note_on_c, 0, 73, 0
1, 87696, Note_on_c, 0, 61, 82
1, 87696, Note_on_c, 1, 55, 97
1, 87696, Note_on_c, 1, 52, 97
1, 87719, Note_on_c, 0, 61, 0
1, 87720, Note_on_c, 0, 73, 82
1, 87741, Note_on_c, 1, 55, 0
1, 87741, Note_on_c, 1, 52, 0
1, 87743, Note_on_c, 0, 73, 0
1, 87744, Note_on_c, 0, 62, 82
1, 87767, Note_on_c, 0, 62, 0
1, 87768, Note_on_c, 0, 74, 83
1, 87791, Note_on_c, 0, 74, 0
1, 87792, Note_on_c, 0, 62, 83
1, 87792, Note_on_c, 1, 57, 99
1, 87792, Note_on_c, 1, 53, 99
1, 87815, Note_on_c, 0, 62, 0
1, 87816, Note_on_c, 0, 74, 83
1, 87837, Note_on_c, 1, 57, 0
1, 87837, Note_on_c, 1, 53, 0
1, 87839, Note_on_c, 0, 74, 0
1, 87840, Note_on_c, 0, 63, 84
1, 87863, Note_on_c, 0, 63, 0
1, 87864, Note_on_c, 0, 75, 84
1, 87887, Note_on_c, 0, 75, 0
1, 87888, Note_on_c, 0, 63, 84
1, 87888, Note_on_c, 1, 57, 101
1, 87888, Note_on_c, 1, 53, 101
1, 87911, Note_on_c, 0, 63, 0
1, 87912, Note_on_c, 0, 75, 85
1, 87933, Note_on_c, 1, 57, 0
1, 87933, Note_on_c, 1, 53, 0
1, 87935, Note_on_c, 0, 75, 0
1, 87936, Note_on_c, 0, 64, 85
1, 87936, Note_on_c, 1, 59, 84
1, 87936, Note_on_c, 1, 56, 84
1, 87936, Note_on_c, 1, 52, 84
1, 87959, Note_on_c, 0, 64, 0
1, 87960, Note_on_c, 0, 76, 86
1, 87983, Note_on_c, 0, 76, 0
1, 87984, Note_on_c, 0, 64, 86
1, 88007, Note_on_c, 0, 64, 0
1, 88008, Note_on_c, 0, 76, 86
1, 88030, Note_on_c, 1, 59, 0
1, 88030, Note_on_c, 1, 56, 0
1, 88030, Note_on_c, 1, 52, 0
1, 88031, Note_on_c, 0, 76, 0
1, 88032, Note_on_c, 0, 64, 86
1, 88055, Note_on_c, 0, 64, 0
1, 88056, Note_on_c, 0, 76, 86
1, 88079, Note_on_c, 0, 76, 0
1, 88080, Note_on_c, 0, 64, 86
1, 88080, Note_on_c, 1, 62, 102
1, 88103, Note_on_c, 0, 64, 0
1, 88104, Note_on_c, 0, 76, 86
1, 88127, Note_on_c, 0, 76, 0
1, 88128, Note_on_c, 0, 64, 86
1, 88128, Note_on_c, 1, 62, 0
1, 88128, Note_on_c, 1, 68, 102
1, 88151, Note_on_c, 0, 64, 0
1, 88152, Note_on_c, 0, 76, 86
1, 88175, Note_on_c, 0, 76, 0
1, 88176, Note_on_c, 0, 64, 86
1, 88199, Note_on_c, 0, 64, 0
1, 88200, Note_on_c, 0, 76, 86
1, 88223, Note_on_c, 0, 76, 0
1, 88224, Note_on_c, 0, 64, 86
1, 88224, Note_on_c, 1, 68, 0
1, 88247, Note_on_c, 0, 64, 0
1, 88248, Note_on_c, 0, 76, 86
1, 88271, Note_on_c, 0, 76, 0
1, 88272, Note_on_c, 0, 64, 86
1, 88272, Note_on_c, 1, 60, 102
1, 88295, Note_on_c, 0, 64, 0
1, 88296, Note_on_c, 0, 76, 86
1, 88319, Note_on_c, 0, 76, 0
1, 88320, Note_on_c, 0, 64, 86
1, 88320, Note_on_c, 1, 60, 0
1, 88320, Note_on_c, 1, 69, 102
1, 88343, Note_on_c, 0, 64, 0
1, 88344, Note_on_c, 0, 76, 86
1, 88367, Note_on_c, 0, 76, 0
1, 88368, Note_on_c, 0, 64, 86
1, 88391, Note_on_c, 0, 64, 0
1, 88392, Note_on_c, 0, 76, 86
1, 88415, Note_on_c, 0, 76, 0
1, 88416, Note_on_c, 0, 64, 86
1, 88416, Note_on_c, 1, 69, 0
1, 88439, Note_on_c, 0, 64, 0
1, 88440, Note_on_c, 0, 76, 86
1, 88463, Note_on_c, 0, 76, 0
1, 88464, Note_on_c, 0, 64, 86
1, 88464, Note_on_c, 1, 47, 102
1, 88464, Note_on_c, 1, 44, 102
1, 88487, Note_on_c, 0, 64, 0
1, 88488, Note_on_c, 0, 76, 86
1, 88511, Note_on_c, 0, 76, 0
1, 88512, Note_on_c, 0, 64, 86
1, 88512, Note_on_c, 1, 47, 0
1, 88512, Note_on_c, 1, 44, 0
1, 88512, Note_on_c, 1, 62, 102
1, 88512, Note_on_c, 1, 59, 102
1, 88535, Note_on_c, 0, 64, 0
1, 88536, Note_on_c, 0, 76, 86
1, 88559, Note_on_c, 0, 76, 0
1, 88560, Note_on_c, 0, 64, 86
1, 88583, Note_on_c, 0, 64, 0
1, 88584, Note_on_c, 0, 76, 86
1, 88607, Note_on_c, 0, 76, 0
1, 88608, Note_on_c, 0, 64, 86
1, 88608, Note_on_c, 1, 62, 0
1, 88608, Note_on_c, 1, 59, 0
1, 88631, Note_on_c, 0, 64, 0
1, 88632, Note_on_c, 0, 76, 86
1, 88655, Note_on_c, 0, 76, 0
1, 88656, Note_on_c, 0, 64, 86
1, 88656, Note_on_c, 1, 48, 102
1, 88656, Note_on_c, 1, 45, 102
1, 88679, Note_on_c, 0, 64, 0
1, 88680, Note_on_c, 0, 76, 86
1, 88703, Note_on_c, 0, 76, 0
1, 88704, Note_on_c, 0, 64, 86
1, 88704, Note_on_c, 1, 48, 0
1, 88704, Note_on_c, 1, 45, 0
1, 88704, Note_on_c, 1, 60, 102
1, 88704, Note_on_c, 1, 57, 102
1, 88727, Note_on_c, 0, 64, 0
1, 88728, Note_on_c, 0, 76, 86
1, 88751, Note_on_c, 0, 76, 0
1, 88752, Note_on_c, 0, 64, 86
1, 88775, Note_on_c, 0, 64, 0
1, 88776, Note_on_c, 0, 76, 86
1, 88799, Note_on_c, 0, 76, 0
1, 88800, Note_on_c, 0, 64, 86
1, 88800, Note_on_c, 1, 60, 0
1, 88800, Note_on_c, 1, 57, 0
1, 88823, Note_on_c, 0, 64, 0
1, 88824, Note_on_c, 0, 76, 86
1, 88847, Note_on_c, 0, 76, 0
1, 88848, Note_on_c, 0, 64, 86
1, 88848, Note_on_c, 1, 48, 102
1, 88848, Note_on_c, 1, 36, 102
1, 88871, Note_on_c, 0, 64, 0
1, 88872, Note_on_c, 0, 76, 86
1, 88895, Note_on_c, 0, 76, 0
1, 88896, Note_on_c, 0, 67, 86
1, 88896, Note_on_c, 1, 48, 0
1, 88896, Note_on_c, 1, 36, 0
1, 88896, Note_on_c, 1, 58, 102
1, 88896, Note_on_c, 1, 46, 102
1, 88919, Note_on_c, 0, 67, 0
1, 88920, Note_on_c, 0, 76, 86
1, 88943, Note_on_c, 0, 76, 0
1, 88944, Note_on_c, 0, 67, 86
1, 88967, Note_on_c, 0, 67, 0
1, 88968, Note_on_c, 0, 76, 86
1, 88991, Note_on_c, 0, 76, 0
1, 88992, Note_on_c, 0, 67, 86
1, 89015, Note_on_c, 0, 67, 0
1, 89016, Note_on_c, 0, 76, 86
1, 89039, Note_on_c, 0, 76, 0
1, 89040, Note_on_c, 0, 67, 86
1, 89063, Note_on_c, 0, 67, 0
1, 89064, Note_on_c, 0, 76, 86
1, 89087, Note_on_c, 0, 76, 0
1, 89088, Note_on_c, 0, 75, 86
1, 89088, Note_on_c, 0, 66, 86
1, 89088, Note_on_c, 1, 58, 0
1, 89088, Note_on_c, 1, 46, 0
1, 89088, Note_on_c, 1, 47, 86
1, 89111, Note_on_c, 1, 47, 0
1, 89112, Note_on_c, 1, 59, 83
1, 89135, Note_on_c, 1, 59, 0
1, 89136, Note_on_c, 1, 47, 81
1, 89159, Note_on_c, 1, 47, 0
1, 89160, Note_on_c, 1, 59, 78
1, 89183, Note_on_c, 1, 59, 0
1, 89184, Note_on_c, 1, 47, 76
1, 89207, Note_on_c, 1, 47, 0
1, 89208, Note_on_c, 1, 59, 73
1, 89231, Note_on_c, 1, 59, 0
1, 89232, Note_on_c, 1, 47, 71
1, 89255, Note_on_c, 1, 47, 0
1, 89256, Note_on_c, 1, 59, 68
1, 89265, Note_on_c, 0, 75, 0
1, 89265, Note_on_c, 0, 66, 0
1, 89279, Note_on_c, 1, 59, 0
1, 89280, Note_on_c, 0, 78, 64
1, 89280, Note_on_c, 0, 69, 64
1, 89280, Note_on_c, 1, 47, 66
1, 89303, Note_on_c, 1, 47, 0
1, 89304, Note_on_c, 1, 59, 64
1, 89327, Note_on_c, 1, 59, 0
1, 89328, Note_on_c, 1, 47, 64
1, 89351, Note_on_c, 1, 47, 0
1, 89352, Note_on_c, 1, 59, 64
1, 89375, Note_on_c, 1, 59, 0
1, 89376, Note_on_c, 1, 47, 64
1, 89399, Note_on_c, 1, 47, 0
1, 89400, Note_on_c, 1, 59, 64
1, 89423, Note_on_c, 1, 59, 0
1, 89424, Note_on_c, 1, 47, 64
1, 89447, Note_on_c, 1, 47, 0
1, 89448, Note_on_c, 1, 59, 64
1, 89457, Note_on_c, 0, 78, 0
1, 89457, Note_on_c, 0, 69, 0
1, 89471, Note_on_c, 1, 59, 0
1, 89472, Note_on_c, 0, 78, 64
1, 89472, Note_on_c, 0, 68, 64
1, 89472, Note_on_c, 1, 47, 64
1, 89495, Note_on_c, 1, 47, 0
1, 89496, Note_on_c, 1, 59, 64
1, 89519, Note_on_c, 1, 59, 0
1, 89520, Note_on_c, 1, 47, 64
1, 89543, Note_on_c, 1, 47, 0
1, 89544, Note_on_c, 1, 59, 64
1, 89567, Note_on_c, 1, 59, 0
1, 89568, Note_on_c, 1, 47, 64
1, 89591, Note_on_c, 1, 47, 0
1, 89592, Note_on_c, 1, 59, 64
1, 89615, Note_on_c, 1, 59, 0
1, 89616, Note_on_c, 1, 47, 64
1, 89639, Note_on_c, 1, 47, 0
1, 89640, Note_on_c, 1, 59, 64
1, 89649, Note_on_c, 0, 78, 0
1, 89663, Note_on_c, 1, 59, 0
1, 89664, Note_on_c, 0, 77, 64
1, 89664, Note_on_c, 1, 47, 64
1, 89687, Note_on_c, 1, 47, 0
1, 89688, Note_on_c, 1, 59, 64
1, 89711, Note_on_c, 1, 59, 0
1, 89712, Note_on_c, 1, 47, 64
1, 89735, Note_on_c, 1, 47, 0
1, 89736, Note_on_c, 1, 59, 64
1, 89753, Note_on_c, 0, 77, 0
1, 89759, Note_on_c, 1, 59, 0
1, 89760, Note_on_c, 0, 76, 64
1, 89760, Note_on_c, 1, 47, 64
1, 89783, Note_on_c, 1, 47, 0
1, 89784, Note_on_c, 1, 59, 64
1, 89807, Note_on_c, 1, 59, 0
1, 89808, Note_on_c, 1, 47, 64
1, 89826, Note_on_c, 0, 68, 0
1, 89831, Note_on_c, 1, 47, 0
1, 89832, Note_on_c, 1, 59, 64
1, 89849, Note_on_c, 0, 76, 0
1, 89855, Note_on_c, 1, 59, 0
1, 89856, Note_on_c, 0, 76, 64
1, 89856, Note_on_c, 0, 67, 64
1, 89856, Note_on_c, 1, 48, 64
1, 89879, Note_on_c, 1, 48, 0
1, 89880, Note_on_c, 1, 57, 64
1, 89903, Note_on_c, 1, 57, 0
1, 89904, Note_on_c, 1, 48, 64
1, 89927, Note_on_c, 1, 48, 0
1, 89928, Note_on_c, 1, 57, 64
1, 89951, Note_on_c, 1, 57, 0
1, 89952, Note_on_c, 1, 48, 64
1, 89975, Note_on_c, 1, 48, 0
1, 89976, Note_on_c, 1, 57, 65
1, 89999, Note_on_c, 1, 57, 0
1, 90000, Note_on_c, 1, 48, 67
1, 90023, Note_on_c, 1, 48, 0
1, 90024, Note_on_c, 1, 57, 69
1, 90047, Note_on_c, 1, 57, 0
1, 90048, Note_on_c, 1, 49, 71
1, 90071, Note_on_c, 1, 49, 0
1, 90072, Note_on_c, 1, 58, 73
1, 90095, Note_on_c, 1, 58, 0
1, 90096, Note_on_c, 1, 49, 75
1, 90119, Note_on_c, 1, 49, 0
1, 90120, Note_on_c, 1, 58, 76
1, 90143, Note_on_c, 1, 58, 0
1, 90144, Note_on_c, 1, 49, 78
1, 90167, Note_on_c, 1, 49, 0
1, 90168, Note_on_c, 1, 58, 80
1, 90191, Note_on_c, 1, 58, 0
1, 90192, Note_on_c, 1, 49, 82
1, 90210, Note_on_c, 0, 76, 0
1, 90210, Note_on_c, 0, 67, 0
1, 90215, Note_on_c, 1, 49, 0
1, 90216, Note_on_c, 1, 58, 84
1, 90239, Note_on_c, 1, 58, 0
1, 90240, Note_on_c, 0, 74, 104
1, 90240, Note_on_c, 0, 71, 86
1, 90240, Note_on_c, 0, 67, 86
1, 90240, Note_on_c, 0, 62, 86
1, 90240, Note_on_c, 1, 50, 104
1, 90263, Note_on_c, 1, 50, 0
1, 90264, Note_on_c, 1, 59, 86
1, 90287, Note_on_c, 1, 59, 0
1, 90288, Note_on_c, 1, 50, 86
1, 90311, Note_on_c, 1, 50, 0
1, 90312, Note_on_c, 1, 59, 86
1, 90335, Note_on_c, 1, 59, 0
1, 90336, Note_on_c, 1, 50, 86
1, 90359, Note_on_c, 1, 50, 0
1, 90360, Note_on_c, 1, 59, 86
1, 90383, Note_on_c, 1, 59, 0
1, 90384, Note_on_c, 1, 50, 86
1, 90407, Note_on_c, 1, 50, 0
1, 90408, Note_on_c, 1, 59, 86
1, 90417, Note_on_c, 0, 71, 0
1, 90417, Note_on_c, 0, 67, 0
1, 90417, Note_on_c, 0, 62, 0
1, 90431, Note_on_c, 1, 59, 0
1, 90432, Note_on_c, 0, 66, 86
1, 90432, Note_on_c, 0, 62, 86
1, 90432, Note_on_c, 1, 50, 86
1, 90455, Note_on_c, 1, 50, 0
1, 90456, Note_on_c, 1, 57, 86
1, 90479, Note_on_c, 1, 57, 0
1, 90480, Note_on_c, 1, 50, 86
1, 90503, Note_on_c, 1, 50, 0
1, 90504, Note_on_c, 1, 57, 86
1, 90505, Note_on_c, 0, 74, 0
1, 90527, Note_on_c, 1, 57, 0
1, 90528, Note_on_c, 0, 72, 86
1, 90528, Note_on_c, 1, 50, 86
1, 90551, Note_on_c, 1, 50, 0
1, 90552, Note_on_c, 1, 57, 86
1, 90575, Note_on_c, 1, 57, 0
1, 90576, Note_on_c, 1, 50, 86
1, 90599, Note_on_c, 1, 50, 0
1, 90600, Note_on_c, 1, 57, 86
1, 90609, Note_on_c, 0, 66, 0
1, 90609, Note_on_c, 0, 62, 0
1, 90617, Note_on_c, 0, 72, 0
1, 90623, Note_on_c, 1, 57, 0
1, 90624, Note_on_c, 0, 72, 104
1, 90624, Note_on_c, 0, 65, 104
1, 90624, Note_on_c, 0, 62, 104
1, 90624, Note_on_c, 1, 43, 104
1, 90647, Note_on_c, 1, 43, 0
1, 90648, Note_on_c, 1, 55, 86
1, 90671, Note_on_c, 1, 55, 0
1, 90672, Note_on_c, 1, 43, 86
1, 90695, Note_on_c, 1, 43, 0
1, 90696, Note_on_c, 1, 55, 86
1, 90719, Note_on_c, 1, 55, 0
1, 90720, Note_on_c, 1, 43, 86
1, 90743, Note_on_c, 1, 43, 0
1, 90744, Note_on_c, 1, 55, 86
1, 90767, Note_on_c, 1, 55, 0
1, 90768, Note_on_c, 1, 43, 86
1, 90791, Note_on_c, 1, 43, 0
1, 90792, Note_on_c, 1, 55, 86
1, 90801, Note_on_c, 0, 72, 0
1, 90815, Note_on_c, 1, 55, 0
1, 90816, Note_on_c, 0, 71, 86
1, 90816, Note_on_c, 1, 44, 86
1, 90839, Note_on_c, 1, 44, 0
1, 90840, Note_on_c, 1, 56, 86
1, 90863, Note_on_c, 1, 56, 0
1, 90864, Note_on_c, 1, 44, 86
1, 90887, Note_on_c, 1, 44, 0
1, 90888, Note_on_c, 1, 56, 86
1, 90889, Note_on_c, 0, 65, 0
1, 90889, Note_on_c, 0, 62, 0
1, 90911, Note_on_c, 1, 56, 0
1, 90912, Note_on_c, 0, 64, 86
1, 90912, Note_on_c, 0, 62, 86
1, 90912, Note_on_c, 1, 44, 86
1, 90935, Note_on_c, 1, 44, 0
1, 90936, Note_on_c, 1, 56, 86
1, 90959, Note_on_c, 1, 56, 0
1, 90960, Note_on_c, 1, 44, 86
1, 90983, Note_on_c, 1, 44, 0
1, 90984, Note_on_c, 1, 56, 86
1, 90993, Note_on_c, 0, 71, 0
1, 91001, Note_on_c, 0, 64, 0
1, 91001, Note_on_c, 0, 62, 0
1, 91007, Note_on_c, 1, 56, 0
1, 91008, Note_on_c, 0, 71, 104
1, 91008, Note_on_c, 0, 64, 104
1, 91008, Note_on_c, 0, 60, 104
1, 91008, Note_on_c, 1, 45, 104
1, 91031, Note_on_c, 1, 45, 0
1, 91032, Note_on_c, 1, 57, 86
1, 91055, Note_on_c, 1, 57, 0
1, 91056, Note_on_c, 1, 45, 86
1, 91079, Note_on_c, 1, 45, 0
1, 91080, Note_on_c, 1, 57, 86
1, 91103, Note_on_c, 1, 57, 0
1, 91104, Note_on_c, 1, 45, 86
1, 91127, Note_on_c, 1, 45, 0
1, 91128, Note_on_c, 1, 57, 86
1, 91151, Note_on_c, 1, 57, 0
1, 91152, Note_on_c, 1, 45, 86
1, 91175, Note_on_c, 1, 45, 0
1, 91176, Note_on_c, 1, 57, 86
1, 91185, Note_on_c, 0, 71, 0
1, 91185, Note_on_c, 0, 64, 0
1, 91185, Note_on_c, 0, 60, 0
1, 91199, Note_on_c, 1, 57, 0
1, 91200, Note_on_c, 0, 69, 86
1, 91200, Note_on_c, 0, 63, 86
1, 91200, Note_on_c, 0, 60, 86
1, 91200, Note_on_c, 1, 41, 86
1, 91223, Note_on_c, 1, 41, 0
1, 91224, Note_on_c, 1, 53, 86
1, 91247, Note_on_c, 1, 53, 0
1, 91248, Note_on_c, 1, 41, 86
1, 91271, Note_on_c, 1, 41, 0
1, 91272, Note_on_c, 1, 53, 86
1, 91289, Note_on_c, 0, 60, 0
1, 91295, Note_on_c, 1, 53, 0
1, 91296, Note_on_c, 0, 59, 86
1, 91296, Note_on_c, 1, 41, 86
1, 91319, Note_on_c, 1, 41, 0
1, 91320, Note_on_c, 1, 53, 86
1, 91343, Note_on_c, 1, 53, 0
1, 91344, Note_on_c, 0, 59, 0
1, 91344, Note_on_c, 0, 57, 86
1, 91344, Note_on_c, 1, 41, 86
1, 91367, Note_on_c, 1, 41, 0
1, 91368, Note_on_c, 1, 53, 86
1, 91377, Note_on_c, 0, 69, 0
1, 91377, Note_on_c, 0, 63, 0
1, 91389, Note_on_c, 0, 57, 0
1, 91391, Note_on_c, 1, 53, 0
1, 91392, Note_on_c, 0, 68, 86
1, 91392, Note_on_c, 0, 64, 86
1, 91392, Note_on_c, 0, 59, 86
1, 91392, Note_on_c, 1, 40, 86
1, 91415, Note_on_c, 1, 40, 0
1, 91416, Note_on_c, 1, 52, 86
1, 91437, Note_on_c, 0, 68, 0
1, 91437, Note_on_c, 0, 64, 0
1, 91437, Note_on_c, 0, 59, 0
1, 91439, Note_on_c, 1, 52, 0
1, 91440, Note_on_c, 1, 40, 86
1, 91463, Note_on_c, 1, 40, 0
1, 91464, Note_on_c, 0, 76, 75
1, 91464, Note_on_c, 0, 72, 75
1, 91487, Note_on_c, 0, 76, 0
1, 91487, Note_on_c, 0, 72, 0
1, 91488, Note_on_c, 0, 74, 75
1, 91488, Note_on_c, 0, 71, 75
1, 91511, Note_on_c, 0, 74, 0
1, 91511, Note_on_c, 0, 71, 0
1, 91512, Note_on_c, 0, 76, 75
1, 91512, Note_on_c, 0, 72, 75
1, 91535, Note_on_c, 0, 76, 0
1, 91535, Note_on_c, 0, 72, 0
1, 91536, Note_on_c, 0, 77, 75
1, 91536, Note_on_c, 0, 74, 75
1, 91559, Note_on_c, 0, 77, 0
1, 91559, Note_on_c, 0, 74, 0
1, 91560, Note_on_c, 0, 76, 75
1, 91560, Note_on_c, 0, 72, 75
1, 91583, Note_on_c, 0, 76, 0
1, 91583, Note_on_c, 0, 72, 0
1, 91584, Note_on_c, 0, 74, 75
1, 91584, Note_on_c, 0, 71, 75
1, 91604, Note_on_c, 0, 74, 0
1, 91604, Note_on_c, 0, 71, 0
1, 91608, Note_on_c, 1, 52, 75
1, 91632, Note_on_c, 1, 52, 0
1, 91632, Note_on_c, 1, 40, 75
1, 91656, Note_on_c, 0, 76, 75
1, 91656, Note_on_c, 0, 72, 75
1, 91677, Note_on_c, 1, 40, 0
1, 91680, Note_on_c, 0, 76, 0
1, 91680, Note_on_c, 0, 69, 75
1, 91700, Note_on_c, 0, 72, 0
1, 91700, Note_on_c, 0, 69, 0
1, 91704, Note_on_c, 1, 52, 75
1, 91728, Note_on_c, 1, 52, 0
1, 91728, Note_on_c, 1, 40, 75
1, 91752, Note_on_c, 0, 74, 75
1, 91752, Note_on_c, 0, 71, 75
1, 91773, Note_on_c, 1, 40, 0
1, 91776, Note_on_c, 0, 74, 0
1, 91776, Note_on_c, 0, 71, 0
1, 91776, Note_on_c, 0, 68, 75
1, 91776, Note_on_c, 0, 64, 75
1, 91800, Note_on_c, 1, 52, 75
1, 91823, Note_on_c, 0, 68, 0
1, 91823, Note_on_c, 0, 64, 0
1, 91824, Note_on_c, 1, 52, 0
1, 91824, Note_on_c, 1, 40, 75
1, 91848, Note_on_c, 0, 76, 75
1, 91848, Note_on_c, 0, 72, 75
1, 91869, Note_on_c, 1, 40, 0
1, 91871, Note_on_c, 0, 76, 0
1, 91871, Note_on_c, 0, 72, 0
1, 91872, Note_on_c, 0, 74, 75
1, 91872, Note_on_c, 0, 71, 75
1, 91895, Note_on_c, 0, 74, 0
1, 91895, Note_on_c, 0, 71, 0
1, 91896, Note_on_c, 0, 76, 75
1, 91896, Note_on_c, 0, 72, 75
1, 91919, Note_on_c, 0, 76, 0
1, 91919, Note_on_c, 0, 72, 0
1, 91920, Note_on_c, 0, 77, 75
1, 91920, Note_on_c, 0, 74, 75
1, 91943, Note_on_c, 0, 77, 0
1, 91943, Note_on_c, 0, 74, 0
1, 91944, Note_on_c, 0, 76, 75
1, 91944, Note_on_c, 0, 72, 75
1, 91967, Note_on_c, 0, 76, 0
1, 91967, Note_on_c, 0, 72, 0
1, 91968, Note_on_c, 0, 74, 76
1, 91968, Note_on_c, 0, 71, 76
1, 91988, Note_on_c, 0, 74, 0
1, 91988, Note_on_c, 0, 71, 0
1, 91992, Note_on_c, 1, 52, 76
1, 92016, Note_on_c, 1, 52, 0
1, 92016, Note_on_c, 1, 40, 76
1, 92040, Note_on_c, 0, 80, 76
1, 92040, Note_on_c, 0, 74, 76
1, 92061, Note_on_c, 1, 40, 0
1, 92064, Note_on_c, 0, 80, 0
1, 92064, Note_on_c, 0, 74, 0
1, 92064, Note_on_c, 0, 81, 76
1, 92064, Note_on_c, 0, 72, 76
1, 92084, Note_on_c, 0, 81, 0
1, 92084, Note_on_c, 0, 72, 0
1, 92088, Note_on_c, 1, 52, 76
1, 92112, Note_on_c, 1, 52, 0
1, 92112, Note_on_c, 1, 40, 77
1, 92136, Note_on_c, 0, 72, 77
1, 92136, Note_on_c, 0, 69, 77
1, 92157, Note_on_c, 1, 40, 0
1, 92160, Note_on_c, 0, 72, 0
1, 92160, Note_on_c, 0, 69, 0
1, 92160, Note_on_c, 0, 71, 77
1, 92160, Note_on_c, 0, 68, 77
1, 92184, Note_on_c, 1, 52, 77
1, 92205, Note_on_c, 0, 71, 0
1, 92205, Note_on_c, 0, 68, 0
1, 92208, Note_on_c, 1, 52, 0
1, 92208, Note_on_c, 1, 40, 77
1, 92232, Note_on_c, 0, 72, 78
1, 92232, Note_on_c, 0, 69, 78
1, 92253, Note_on_c, 1, 40, 0
1, 92255, Note_on_c, 0, 72, 0
1, 92255, Note_on_c, 0, 69, 0
1, 92256, Note_on_c, 0, 71, 78
1, 92256, Note_on_c, 0, 68, 78
1, 92279, Note_on_c, 0, 71, 0
1, 92279, Note_on_c, 0, 68, 0
1, 92280, Note_on_c, 0, 72, 78
1, 92280, Note_on_c, 0, 69, 78
1, 92303, Note_on_c, 0, 72, 0
1, 92303, Note_on_c, 0, 69, 0
1, 92304, Note_on_c, 0, 71, 78
1, 92304, Note_on_c, 0, 68, 78
1, 92327, Note_on_c, 0, 71, 0
1, 92327, Note_on_c, 0, 68, 0
1, 92328, Note_on_c, 0, 72, 79
1, 92328, Note_on_c, 0, 69, 79
1, 92351, Note_on_c, 0, 72, 0
1, 92351, Note_on_c, 0, 69, 0
1, 92352, Note_on_c, 0, 71, 79
1, 92352, Note_on_c, 0, 68, 79
1, 92372, Note_on_c, 0, 71, 0
1, 92372, Note_on_c, 0, 68, 0
1, 92424, Note_on_c, 0, 51, 79
1, 92424, Note_on_c, 1, 39, 79
1, 92447, Note_on_c, 0, 51, 0
1, 92447, Note_on_c, 1, 39, 0
1, 92448, Note_on_c, 0, 52, 80
1, 92448, Note_on_c, 1, 40, 80
1, 92471, Note_on_c, 0, 52, 0
1, 92471, Note_on_c, 1, 40, 0
1, 92472, Note_on_c, 0, 51, 80
1, 92472, Note_on_c, 1, 39, 80
1, 92495, Note_on_c, 0, 51, 0
1, 92495, Note_on_c, 1, 39, 0
1, 92496, Note_on_c, 0, 52, 80
1, 92496, Note_on_c, 1, 40, 80
1, 92519, Note_on_c, 0, 52, 0
1, 92519, Note_on_c, 1, 40, 0
1, 92520, Note_on_c, 0, 51, 80
1, 92520, Note_on_c, 1, 39, 80
1, 92543, Note_on_c, 0, 51, 0
1, 92543, Note_on_c, 1, 39, 0
1, 92544, Note_on_c, 0, 52, 80
1, 92544, Note_on_c, 1, 40, 80
1, 92564, Note_on_c, 0, 52, 0
1, 92564, Note_on_c, 1, 40, 0
1, 92616, Note_on_c, 0, 75, 64
1, 92639, Note_on_c, 0, 75, 0
1, 92640, Note_on_c, 0, 76, 64
1, 92663, Note_on_c, 0, 76, 0
1, 92664, Note_on_c, 0, 75, 64
1, 92687, Note_on_c, 0, 75, 0
1, 92688, Note_on_c, 0, 76, 64
1, 92711, Note_on_c, 0, 76, 0
1, 92712, Note_on_c, 0, 75, 64
1, 92735, Note_on_c, 0, 75, 0
1, 92736, Note_on_c, 0, 76, 64
1, 92781, Note_on_c, 0, 76, 0
1, 92808, Note_on_c, 1, 63, 64
1, 92831, Note_on_c, 1, 63, 0
1, 92832, Note_on_c, 1, 64, 64
1, 92855, Note_on_c, 1, 64, 0
1, 92856, Note_on_c, 1, 63, 64
1, 92879, Note_on_c, 1, 63, 0
1, 92880, Note_on_c, 1, 64, 64
1, 92903, Note_on_c, 1, 64, 0
1, 92904, Note_on_c, 1, 63, 64
1, 92927, Note_on_c, 1, 63, 0
1, 92928, Note_on_c, 1, 64, 64
1, 92973, Note_on_c, 1, 64, 0
1, 93000, Note_on_c, 0, 75, 64
1, 93023, Note_on_c, 0, 75, 0
1, 93024, Note_on_c, 0, 76, 64
1, 93047, Note_on_c, 0, 76, 0
1, 93048, Note_on_c, 0, 75, 64
1, 93071, Note_on_c, 0, 75, 0
1, 93072, Note_on_c, 0, 76, 64
1, 93095, Note_on_c, 0, 76, 0
1, 93096, Note_on_c, 0, 75, 64
1, 93119, Note_on_c, 0, 75, 0
1, 93120, Note_on_c, 0, 76, 64
1, 93165, Note_on_c, 0, 76, 0
1, 93192, Note_on_c, 0, 75, 58
1, 93215, Note_on_c, 0, 75, 0
1, 93216, Note_on_c, 0, 76, 58
1, 93239, Note_on_c, 0, 76, 0
1, 93240, Note_on_c, 0, 75, 58
1, 93263, Note_on_c, 0, 75, 0
1, 93264, Note_on_c, 0, 76, 58
1, 93287, Note_on_c, 0, 76, 0
1, 93288, Note_on_c, 0, 75, 58
1, 93311, Note_on_c, 0, 75, 0
1, 93312, Note_on_c, 0, 76, 58
1, 93357, Note_on_c, 0, 76, 0
1, 93384, Note_on_c, 0, 75, 64
1, 93407, Note_on_c, 0, 75, 0
1, 93408, Note_on_c, 0, 76, 65
1, 93408, Note_on_c, 1, 70, 64
1, 93408, Note_on_c, 1, 67, 64
1, 93431, Note_on_c, 0, 76, 0
1, 93432, Note_on_c, 0, 75, 66
1, 93455, Note_on_c, 0, 75, 0
1, 93456, Note_on_c, 0, 76, 67
1, 93456, Note_on_c, 1, 70, 0
1, 93456, Note_on_c, 1, 67, 0
1, 93456, Note_on_c, 1, 69, 66
1, 93456, Note_on_c, 1, 65, 66
1, 93479, Note_on_c, 0, 76, 0
1, 93480, Note_on_c, 0, 77, 68
1, 93501, Note_on_c, 1, 69, 0
1, 93501, Note_on_c, 1, 65, 0
1, 93503, Note_on_c, 0, 77, 0
1, 93504, Note_on_c, 0, 79, 70
1, 93504, Note_on_c, 1, 67, 69
1, 93504, Note_on_c, 1, 64, 69
1, 93524, Note_on_c, 1, 67, 0
1, 93524, Note_on_c, 1, 64, 0
1, 93549, Note_on_c, 0, 79, 0
1, 93576, Note_on_c, 0, 78, 73
1, 93599, Note_on_c, 0, 78, 0
1, 93600, Note_on_c, 0, 79, 75
1, 93600, Note_on_c, 1, 67, 74
1, 93600, Note_on_c, 1, 64, 74
1, 93623, Note_on_c, 0, 79, 0
1, 93624, Note_on_c, 0, 78, 76
1, 93647, Note_on_c, 0, 78, 0
1, 93648, Note_on_c, 0, 79, 77
1, 93648, Note_on_c, 1, 67, 0
1, 93648, Note_on_c, 1, 64, 0
1, 93648, Note_on_c, 1, 65, 77
1, 93648, Note_on_c, 1, 62, 77
1, 93671, Note_on_c, 0, 79, 0
1, 93672, Note_on_c, 0, 81, 78
1, 93693, Note_on_c, 1, 65, 0
1, 93693, Note_on_c, 1, 62, 0
1, 93695, Note_on_c, 0, 81, 0
1, 93696, Note_on_c, 0, 82, 98
1, 93696, Note_on_c, 1, 64, 98
1, 93696, Note_on_c, 1, 61, 98
1, 93829, Note_on_c, 0, 82, 0
1, 93840, Note_on_c, 0, 81, 80
1, 93852, Note_on_c, 0, 81, 0
1, 93852, Note_on_c, 0, 79, 80
1, 93864, Note_on_c, 0, 79, 0
1, 93864, Note_on_c, 0, 77, 80
1, 93873, Note_on_c, 1, 64, 0
1, 93873, Note_on_c, 1, 61, 0
1, 93876, Note_on_c, 0, 77, 0
1, 93876, Note_on_c, 0, 76, 80
1, 93888, Note_on_c, 0, 76, 0
1, 93888, Note_on_c, 0, 74, 80
1, 93888, Note_on_c, 1, 65, 80
1, 93888, Note_on_c, 1, 62, 80
1, 93903, Note_on_c, 0, 74, 0
1, 93904, Note_on_c, 0, 81, 80
1, 93919, Note_on_c, 0, 81, 0
1, 93920, Note_on_c, 0, 79, 80
1, 93935, Note_on_c, 0, 79, 0
1, 93936, Note_on_c, 0, 77, 80
1, 93951, Note_on_c, 0, 77, 0
1, 93952, Note_on_c, 0, 76, 80
1, 93967, Note_on_c, 0, 76, 0
1, 93968, Note_on_c, 0, 74, 80
1, 93977, Note_on_c, 1, 65, 0
1, 93977, Note_on_c, 1, 62, 0
1, 93983, Note_on_c, 0, 74, 0
1, 93984, Note_on_c, 0, 73, 80
1, 93984, Note_on_c, 1, 67, 80
1, 93984, Note_on_c, 1, 64, 80
1, 93984, Note_on_c, 1, 62, 80
1, 93999, Note_on_c, 0, 73, 0
1, 94000, Note_on_c, 0, 79, 80
1, 94015, Note_on_c, 0, 79, 0
1, 94016, Note_on_c, 0, 77, 80
1, 94031, Note_on_c, 0, 77, 0
1, 94032, Note_on_c, 0, 76, 80
1, 94047, Note_on_c, 0, 76, 0
1, 94048, Note_on_c, 0, 74, 80
1, 94063, Note_on_c, 0, 74, 0
1, 94064, Note_on_c, 0, 73, 80
1, 94073, Note_on_c, 1, 67, 0
1, 94073, Note_on_c, 1, 64, 0
1, 94073, Note_on_c, 1, 62, 0
1, 94079, Note_on_c, 0, 73, 0
1, 94080, Note_on_c, 0, 74, 80
1, 94080, Note_on_c, 1, 65, 80
1, 94080, Note_on_c, 1, 62, 80
1, 94095, Note_on_c, 0, 74, 0
1, 94096, Note_on_c, 0, 81, 80
1, 94111, Note_on_c, 0, 81, 0
1, 94112, Note_on_c, 0, 79, 80
1, 94127, Note_on_c, 0, 79, 0
1, 94128, Note_on_c, 0, 77, 80
1, 94143, Note_on_c, 0, 77, 0
1, 94144, Note_on_c, 0, 76, 80
1, 94159, Note_on_c, 0, 76, 0
1, 94160, Note_on_c, 0, 74, 80
1, 94169, Note_on_c, 1, 65, 0
1, 94169, Note_on_c, 1, 62, 0
1, 94175, Note_on_c, 0, 74, 0
1, 94176, Note_on_c, 0, 73, 80
1, 94176, Note_on_c, 1, 67, 80
1, 94176, Note_on_c, 1, 64, 80
1, 94176, Note_on_c, 1, 62, 80
1, 94191, Note_on_c, 0, 73, 0
1, 94192, Note_on_c, 0, 79, 80
1, 94207, Note_on_c, 0, 79, 0
1, 94208, Note_on_c, 0, 77, 80
1, 94223, Note_on_c, 0, 77, 0
1, 94224, Note_on_c, 0, 76, 80
1, 94239, Note_on_c, 0, 76, 0
1, 94240, Note_on_c, 0, 74, 80
1, 94255, Note_on_c, 0, 74, 0
1, 94256, Note_on_c, 0, 73, 80
1, 94265, Note_on_c, 1, 67, 0
1, 94265, Note_on_c, 1, 64, 0
1, 94265, Note_on_c, 1, 62, 0
1, 94271, Note_on_c, 0, 73, 0
1, 94272, Note_on_c, 0, 74, 80
1, 94296, Note_on_c, 1, 62, 64
1, 94317, Note_on_c, 0, 74, 0
1, 94319, Note_on_c, 1, 62, 0
1, 94320, Note_on_c, 1, 65, 64
1, 94343, Note_on_c, 1, 65, 0
1, 94344, Note_on_c, 1, 69, 64
1, 94367, Note_on_c, 1, 69, 0
1, 94368, Note_on_c, 1, 74, 64
1, 94388, Note_on_c, 1, 74, 0
1, 94392, Note_on_c, 0, 77, 64
1, 94415, Note_on_c, 0, 77, 0
1, 94416, Note_on_c, 0, 81, 64
1, 94439, Note_on_c, 0, 81, 0
1, 94440, Note_on_c, 0, 86, 64
1, 94463, Note_on_c, 0, 86, 0
1, 94464, Note_on_c, 0, 89, 64
1, 94484, Note_on_c, 0, 89, 0
1, 94536, Note_on_c, 0, 49, 80
1, 94536, Note_on_c, 1, 37, 80
1, 94559, Note_on_c, 0, 49, 0
1, 94559, Note_on_c, 1, 37, 0
1, 94560, Note_on_c, 0, 50, 80
1, 94560, Note_on_c, 1, 38, 80
1, 94583, Note_on_c, 0, 50, 0
1, 94583, Note_on_c, 1, 38, 0
1, 94584, Note_on_c, 0, 49, 80
1, 94584, Note_on_c, 1, 37, 80
1, 94607, Note_on_c, 0, 49, 0
1, 94607, Note_on_c, 1, 37, 0
1, 94608, Note_on_c, 0, 50, 80
1, 94608, Note_on_c, 1, 38, 80
1, 94631, Note_on_c, 0, 50, 0
1, 94631, Note_on_c, 1, 38, 0
1, 94632, Note_on_c, 0, 49, 80
1, 94632, Note_on_c, 1, 37, 80
1, 94655, Note_on_c, 0, 49, 0
1, 94655, Note_on_c, 1, 37, 0
1, 94656, Note_on_c, 0, 50, 80
1, 94656, Note_on_c, 1, 38, 80
1, 94676, Note_on_c, 0, 50, 0
1, 94676, Note_on_c, 1, 38, 0
1, 94728, Note_on_c, 0, 73, 64
1, 94751, Note_on_c, 0, 73, 0
1, 94752, Note_on_c, 0, 74, 64
1, 94752, Note_on_c, 1, 69, 64
1, 94752, Note_on_c, 1, 65, 64
1, 94775, Note_on_c, 0, 74, 0
1, 94776, Note_on_c, 0, 73, 64
1, 94799, Note_on_c, 0, 73, 0
1, 94800, Note_on_c, 0, 74, 64
1, 94800, Note_on_c, 1, 69, 0
1, 94800, Note_on_c, 1, 65, 0
1, 94800, Note_on_c, 1, 67, 64
1, 94800, Note_on_c, 1, 64, 64
1, 94823, Note_on_c, 0, 74, 0
1, 94824, Note_on_c, 0, 76, 64
1, 94845, Note_on_c, 1, 67, 0
1, 94845, Note_on_c, 1, 64, 0
1, 94847, Note_on_c, 0, 76, 0
1, 94848, Note_on_c, 0, 77, 64
1, 94848, Note_on_c, 1, 65, 64
1, 94848, Note_on_c, 1, 62, 64
1, 94893, Note_on_c, 0, 77, 0
1, 94893, Note_on_c, 1, 65, 0
1, 94893, Note_on_c, 1, 62, 0
1, 94920, Note_on_c, 0, 76, 64
1, 94943, Note_on_c, 0, 76, 0
1, 94944, Note_on_c, 0, 77, 64
1, 94944, Note_on_c, 1, 65, 64
1, 94944, Note_on_c, 1, 62, 64
1, 94967, Note_on_c, 0, 77, 0
1, 94968, Note_on_c, 0, 76, 64
1, 94991, Note_on_c, 0, 76, 0
1, 94992, Note_on_c, 0, 77, 64
1, 94992, Note_on_c, 1, 65, 0
1, 94992, Note_on_c, 1, 62, 0
1, 94992, Note_on_c, 1, 64, 64
1, 94992, Note_on_c, 1, 60, 64
1, 95015, Note_on_c, 0, 77, 0
1, 95016, Note_on_c, 0, 79, 64
1, 95037, Note_on_c, 1, 64, 0
1, 95037, Note_on_c, 1, 60, 0
1, 95039, Note_on_c, 0, 79, 0
1, 95040, Note_on_c, 0, 80, 64
1, 95040, Note_on_c, 1, 62, 64
1, 95040, Note_on_c, 1, 59, 64
1, 95085, Note_on_c, 0, 80, 0
1, 95085, Note_on_c, 1, 62, 0
1, 95085, Note_on_c, 1, 59, 0
1, 95112, Note_on_c, 0, 56, 80
1, 95112, Note_on_c, 1, 44, 64
1, 95135, Note_on_c, 0, 56, 0
1, 95135, Note_on_c, 1, 44, 0
1, 95136, Note_on_c, 0, 55, 80
1, 95136, Note_on_c, 1, 43, 64
1, 95159, Note_on_c, 0, 55, 0
1, 95159, Note_on_c, 1, 43, 0
1, 95160, Note_on_c, 0, 56, 80
1, 95160, Note_on_c, 1, 44, 64
1, 95183, Note_on_c, 0, 56, 0
1, 95183, Note_on_c, 1, 44, 0
1, 95184, Note_on_c, 0, 55, 80
1, 95184, Note_on_c, 1, 43, 64
1, 95207, Note_on_c, 0, 55, 0
1, 95207, Note_on_c, 1, 43, 0
1, 95208, Note_on_c, 0, 56, 80
1, 95208, Note_on_c, 1, 44, 64
1, 95231, Note_on_c, 0, 56, 0
1, 95231, Note_on_c, 1, 44, 0
1, 95232, Note_on_c, 0, 55, 80
1, 95232, Note_on_c, 1, 43, 64
1, 95252, Note_on_c, 0, 55, 0
1, 95252, Note_on_c, 1, 43, 0
1, 95280, Tempo, 555555
1, 95304, Note_on_c, 0, 64, 70
1, 95327, Note_on_c, 0, 64, 0
1, 95328, Note_on_c, 0, 65, 70
1, 95328, Note_on_c, 1, 62, 70
1, 95328, Note_on_c, 1, 59, 70
1, 95351, Note_on_c, 0, 65, 0
1, 95352, Note_on_c, 0, 64, 70
1, 95375, Note_on_c, 0, 64, 0
1, 95376, Note_on_c, 0, 65, 70
1, 95376, Note_on_c, 1, 62, 0
1, 95376, Note_on_c, 1, 59, 0
1, 95376, Note_on_c, 1, 60, 70
1, 95376, Note_on_c, 1, 57, 70
1, 95399, Note_on_c, 0, 65, 0
1, 95400, Note_on_c, 0, 64, 70
1, 95421, Note_on_c, 1, 60, 0
1, 95421, Note_on_c, 1, 57, 0
1, 95423, Note_on_c, 0, 64, 0
1, 95424, Note_on_c, 0, 65, 70
1, 95424, Note_on_c, 1, 59, 70
1, 95424, Note_on_c, 1, 55, 70
1, 95469, Note_on_c, 0, 65, 0
1, 95469, Note_on_c, 1, 59, 0
1, 95469, Note_on_c, 1, 55, 0
1, 95496, Tempo, 576923
1, 95496, Note_on_c, 1, 66, 75
1, 95519, Note_on_c, 1, 66, 0
1, 95520, Note_on_c, 0, 77, 75
1, 95520, Note_on_c, 0, 74, 75
1, 95520, Note_on_c, 1, 67, 75
1, 95543, Note_on_c, 1, 67, 0
1, 95544, Note_on_c, 1, 66, 75
1, 95567, Note_on_c, 1, 66, 0
1, 95568, Note_on_c, 0, 77, 0
1, 95568, Note_on_c, 0, 74, 0
1, 95568, Note_on_c, 0, 76, 75
1, 95568, Note_on_c, 0, 72, 75
1, 95568, Note_on_c, 1, 67, 75
1, 95591, Note_on_c, 1, 67, 0
1, 95592, Note_on_c, 1, 66, 75
1, 95613, Note_on_c, 0, 76, 0
1, 95613, Note_on_c, 0, 72, 0
1, 95615, Note_on_c, 1, 66, 0
1, 95616, Note_on_c, 0, 74, 75
1, 95616, Note_on_c, 0, 71, 75
1, 95616, Note_on_c, 1, 67, 75
1, 95661, Note_on_c, 0, 74, 0
1, 95661, Note_on_c, 0, 71, 0
1, 95661, Note_on_c, 1, 67, 0
1, 95688, Note_on_c, 1, 66, 80
1, 95711, Note_on_c, 1, 66, 0
1, 95712, Tempo, 600000
1, 95712, Note_on_c, 0, 86, 80
1, 95712, Note_on_c, 0, 77, 80
1, 95712, Note_on_c, 1, 67, 80
1, 95735, Note_on_c, 1, 67, 0
1, 95736, Note_on_c, 1, 66, 80
1, 95759, Note_on_c, 1, 66, 0
1, 95760, Note_on_c, 0, 86, 0
1, 95760, Note_on_c, 0, 77, 0
1, 95760, Note_on_c, 0, 84, 80
1, 95760, Note_on_c, 0, 76, 80
1, 95760, Note_on_c, 1, 67, 80
1, 95780, Note_on_c, 0, 84, 0
1, 95780, Note_on_c, 0, 76, 0
1, 95783, Note_on_c, 1, 67, 0
1, 95784, Note_on_c, 1, 66, 80
1, 95807, Note_on_c, 1, 66, 0
1, 95808, Note_on_c, 0, 83, 80
1, 95808, Note_on_c, 0, 74, 80
1, 95808, Note_on_c, 1, 67, 80
1, 95828, Note_on_c, 0, 83, 0
1, 95828, Note_on_c, 0, 74, 0
1, 95853, Note_on_c, 1, 67, 0
1, 95904, Tempo, 625000
1, 95904, Note_on_c, 0, 89, 86
1, 95904, Note_on_c, 0, 86, 86
1, 95904, Note_on_c, 0, 83, 86
1, 95904, Note_on_c, 0, 79, 86
1, 95904, Note_on_c, 1, 65, 86
1, 95904, Note_on_c, 1, 62, 86
1, 95904, Note_on_c, 1, 59, 86
1, 95904, Note_on_c, 1, 55, 86
1, 95949, Note_on_c, 0, 89, 0
1, 95949, Note_on_c, 0, 86, 0
1, 95949, Note_on_c, 0, 83, 0
1, 95949, Note_on_c, 0, 79, 0
1, 95949, Note_on_c, 1, 65, 0
1, 95949, Note_on_c, 1, 62, 0
1, 95949, Note_on_c, 1, 59, 0
1, 95949, Note_on_c, 1, 55, 0
1, 95952, Note_on_c, 0, 89, 86
1, 95952, Note_on_c, 0, 86, 86
1, 95952, Note_on_c, 0, 83, 86
1, 95952, Note_on_c, 0, 79, 86
1, 95952, Note_on_c, 1, 65, 86
1, 95952, Note_on_c, 1, 62, 86
1, 95952, Note_on_c, 1, 59, 86
1, 95952, Note_on_c, 1, 55, 86
1, 95997, Note_on_c, 0, 89, 0
1, 95997, Note_on_c, 0, 86, 0
1, 95997, Note_on_c, 0, 83, 0
1, 95997, Note_on_c, 0, 79, 0
1, 95997, Note_on_c, 1, 65, 0
1, 95997, Note_on_c, 1, 62, 0
1, 95997, Note_on_c, 1, 59, 0
1, 95997, Note_on_c, 1, 55, 0
1, 96000, Tempo, 923076
1, 96000, Note_on_c, 0, 89, 86
1, 96000, Note_on_c, 0, 86, 86
1, 96000, Note_on_c, 0, 83, 86
1, 96000, Note_on_c, 0, 79, 86
1, 96000, Note_on_c, 1, 65, 86
1, 96000, Note_on_c, 1, 62, 86
1, 96000, Note_on_c, 1, 59, 86
1, 96000, Note_on_c, 1, 55, 86
1, 96177, Note_on_c, 0, 89, 0
1, 96177, Note_on_c, 0, 86, 0
1, 96177, Note_on_c, 0, 83, 0
1, 96177, Note_on_c, 0, 79, 0
1, 96177, Note_on_c, 1, 65, 0
1, 96177, Note_on_c, 1, 62, 0
1, 96177, Note_on_c, 1, 59, 0
1, 96177, Note_on_c, 1, 55, 0
1, 96192, Tempo, 545454
1, 96384, Note_on_c, 0, 72, 64
1, 96404, Note_on_c, 0, 72, 0
1, 96480, Note_on_c, 0, 67, 64
1, 96500, Note_on_c, 0, 67, 0
1, 96576, Note_on_c, 0, 64, 64
1, 96596, Note_on_c, 0, 64, 0
1, 96624, Note_on_c, 1, 48, 64
1, 96672, Note_on_c, 1, 48, 0
1, 96672, Note_on_c, 1, 36, 64
1, 96692, Note_on_c, 1, 36, 0
1, 96720, Note_on_c, 0, 69, 64
1, 96768, Note_on_c, 0, 69, 0
1, 96768, Note_on_c, 0, 62, 64
1, 96788, Note_on_c, 0, 62, 0
1, 96816, Note_on_c, 1, 48, 64
1, 96864, Note_on_c, 1, 48, 0
1, 96864, Note_on_c, 1, 36, 64
1, 96884, Note_on_c, 1, 36, 0
1, 96912, Note_on_c, 0, 67, 64
1, 96960, Note_on_c, 0, 67, 0
1, 96960, Note_on_c, 0, 60, 64
1, 96980, Note_on_c, 0, 60, 0
1, 97008, Note_on_c, 1, 48, 64
1, 97056, Note_on_c, 1, 48, 0
1, 97056, Note_on_c, 1, 36, 64
1, 97076, Note_on_c, 1, 36, 0
1, 97104, Note_on_c, 0, 76, 64
1, 97152, Note_on_c, 0, 76, 0
1, 97152, Note_on_c, 0, 65, 64
1, 97172, Note_on_c, 0, 65, 0
1, 97176, Note_on_c, 1, 48, 64
1, 97199, Note_on_c, 1, 48, 0
1, 97200, Note_on_c, 1, 36, 64
1, 97223, Note_on_c, 1, 36, 0
1, 97224, Note_on_c, 1, 48, 64
1, 97247, Note_on_c, 1, 48, 0
1, 97248, Note_on_c, 1, 36, 64
1, 97272, Note_on_c, 0, 74, 64
1, 97293, Note_on_c, 1, 36, 0
1, 97295, Note_on_c, 0, 74, 0
1, 97296, Note_on_c, 0, 65, 64
1, 97319, Note_on_c, 0, 65, 0
1, 97320, Note_on_c, 0, 74, 64
1, 97343, Note_on_c, 0, 74, 0
1, 97344, Note_on_c, 0, 64, 64
1, 97368, Note_on_c, 1, 48, 64
1, 97389, Note_on_c, 0, 64, 0
1, 97391, Note_on_c, 1, 48, 0
1, 97392, Note_on_c, 1, 36, 64
1, 97415, Note_on_c, 1, 36, 0
1, 97416, Note_on_c, 1, 48, 64
1, 97439, Note_on_c, 1, 48, 0
1, 97440, Note_on_c, 1, 36, 64
1, 97464, Note_on_c, 0, 72, 64
1, 97485, Note_on_c, 1, 36, 0
1, 97487, Note_on_c, 0, 72, 0
1, 97488, Note_on_c, 0, 64, 64
1, 97511, Note_on_c, 0, 64, 0
1, 97512, Note_on_c, 0, 72, 64
1, 97535, Note_on_c, 0, 72, 0
1, 97536, Note_on_c, 0, 62, 64
1, 97584, Note_on_c, 0, 62, 0
1, 97584, Note_on_c, 0, 69, 64
1, 97629, Note_on_c, 0, 69, 0
1, 97632, Note_on_c, 0, 57, 64
1, 97680, Note_on_c, 0, 57, 0
1, 97680, Note_on_c, 0, 59, 64
1, 97725, Note_on_c, 0, 59, 0
1, 97728, Note_on_c, 0, 62, 64
1, 97752, Note_on_c, 1, 48, 64
1, 97775, Note_on_c, 1, 48, 0
1, 97776, Note_on_c, 0, 62, 0
1, 97776, Note_on_c, 0, 60, 64
1, 97776, Note_on_c, 1, 36, 64
1, 97799, Note_on_c, 1, 36, 0
1, 97800, Note_on_c, 1, 48, 64
1, 97821, Note_on_c, 0, 60, 0
1, 97823, Note_on_c, 1, 48, 0
1, 97824, Note_on_c, 1, 36, 64
1, 97869, Note_on_c, 1, 36, 0
1, 97872, Note_on_c, 0, 62, 64
1, 97872, Note_on_c, 0, 59, 64
1, 97892, Note_on_c, 0, 62, 0
1, 97892, Note_on_c, 0, 59, 0
1, 97920, Note_on_c, 0, 65, 64
1, 97920, Note_on_c, 0, 62, 64
1, 97944, Note_on_c, 1, 48, 64
1, 97967, Note_on_c, 1, 48, 0
1, 97968, Note_on_c, 0, 65, 0
1, 97968, Note_on_c, 0, 62, 0
1, 97968, Note_on_c, 0, 64, 64
1, 97968, Note_on_c, 0, 60, 64
1, 97968, Note_on_c, 1, 36, 64
1, 97991, Note_on_c, 1, 36, 0
1, 97992, Note_on_c, 1, 48, 64
1, 98013, Note_on_c, 0, 64, 0
1, 98013, Note_on_c, 0, 60, 0
1, 98015, Note_on_c, 1, 48, 0
1, 98016, Note_on_c, 1, 36, 64
1, 98061, Note_on_c, 1, 36, 0
1, 98064, Note_on_c, 0, 65, 64
1, 98064, Note_on_c, 0, 62, 64
1, 98084, Note_on_c, 0, 65, 0
1, 98084, Note_on_c, 0, 62, 0
1, 98112, Note_on_c, 0, 69, 64
1, 98112, Note_on_c, 0, 65, 64
1, 98136, Note_on_c, 1, 48, 64
1, 98159, Note_on_c, 1, 48, 0
1, 98160, Note_on_c, 0, 69, 0
1, 98160, Note_on_c, 0, 65, 0
1, 98160, Note_on_c, 0, 67, 64
1, 98160, Note_on_c, 0, 64, 64
1, 98160, Note_on_c, 1, 36, 65
1, 98183, Note_on_c, 1, 36, 0
1, 98184, Note_on_c, 1, 48, 66
1, 98205, Note_on_c, 0, 67, 0
1, 98205, Note_on_c, 0, 64, 0
1, 98207, Note_on_c, 1, 48, 0
1, 98208, Note_on_c, 1, 36, 67
1, 98232, Note_on_c, 0, 71, 67
1, 98253, Note_on_c, 1, 36, 0
1, 98255, Note_on_c, 0, 71, 0
1, 98256, Note_on_c, 0, 62, 68
1, 98279, Note_on_c, 0, 62, 0
1, 98280, Note_on_c, 0, 71, 69
1, 98303, Note_on_c, 0, 71, 0
1, 98304, Note_on_c, 0, 74, 70
1, 98304, Note_on_c, 0, 65, 70
1, 98328, Note_on_c, 1, 48, 73
1, 98351, Note_on_c, 1, 48, 0
1, 98352, Note_on_c, 0, 74, 0
1, 98352, Note_on_c, 0, 65, 0
1, 98352, Note_on_c, 0, 72, 73
1, 98352, Note_on_c, 0, 64, 73
1, 98352, Note_on_c, 1, 36, 75
1, 98375, Note_on_c, 1, 36, 0
1, 98376, Note_on_c, 1, 48, 76
1, 98397, Note_on_c, 0, 72, 0
1, 98397, Note_on_c, 0, 64, 0
1, 98399, Note_on_c, 1, 48, 0
1, 98400, Note_on_c, 1, 36, 77
1, 98445, Note_on_c, 1, 36, 0
1, 98448, Note_on_c, 0, 74, 77
1, 98448, Note_on_c, 0, 71, 77
1, 98468, Note_on_c, 0, 74, 0
1, 98468, Note_on_c, 0, 71, 0
1, 98496, Tempo, 1500000
1, 98496, Note_on_c, 0, 77, 98
1, 98496, Note_on_c, 0, 74, 98
1, 98592, Note_on_c, 0, 77, 0
1, 98592, Note_on_c, 0, 74, 0
1, 98592, Note_on_c, 0, 76, 64
1, 98592, Note_on_c, 0, 72, 64
1, 98607, Note_on_c, 0, 76, 0
1, 98607, Note_on_c, 0, 72, 0
1, 98688, Tempo, 545454
1, 98688, Note_on_c, 0, 72, 80
1, 98688, Note_on_c, 1, 36, 80
1, 98694, Note_on_c, 0, 76, 80
1, 98694, Note_on_c, 1, 40, 80
1, 98700, Note_on_c, 0, 79, 80
1, 98700, Note_on_c, 1, 43, 80
1, 98706, Note_on_c, 0, 84, 80
1, 98706, Note_on_c, 1, 48, 80
1, 98733, Note_on_c, 0, 84, 0
1, 98733, Note_on_c, 0, 79, 0
1, 98733, Note_on_c, 0, 76, 0
1, 98733, Note_on_c, 0, 72, 0
1, 98733, Note_on_c, 1, 48, 0
1, 98733, Note_on_c, 1, 43, 0
1, 98733, Note_on_c, 1, 40, 0
1, 98733, Note_on_c, 1, 36, 0
1, 98784, Note_on_c, 0, 71, 80
1, 98784, Note_on_c, 1, 43, 80
1, 98790, Note_on_c, 1, 47, 80
1, 98792, Note_on_c, 0, 74, 80
1, 98796, Note_on_c, 1, 50, 80
1, 98800, Note_on_c, 0, 79, 80
1, 98802, Note_on_c, 1, 55, 80
1, 98829, Note_on_c, 0, 79, 0
1, 98829, Note_on_c, 0, 74, 0
1, 98829, Note_on_c, 0, 71, 0
1, 98829, Note_on_c, 1, 55, 0
1, 98829, Note_on_c, 1, 50, 0
1, 98829, Note_on_c, 1, 47, 0
1, 98829, Note_on_c, 1, 43, 0
1, 98880, Note_on_c, 0, 67, 80
1, 98880, Note_on_c, 1, 48, 80
1, 98886, Note_on_c, 1, 52, 80
1, 98888, Note_on_c, 0, 72, 80
1, 98892, Note_on_c, 1, 55, 80
1, 98896, Note_on_c, 0, 76, 80
1, 98898, Note_on_c, 1, 60, 80
1, 98925, Note_on_c, 0, 76, 0
1, 98925, Note_on_c, 0, 72, 0
1, 98925, Note_on_c, 0, 67, 0
1, 98925, Note_on_c, 1, 60, 0
1, 98925, Note_on_c, 1, 55, 0
1, 98925, Note_on_c, 1, 52, 0
1, 98925, Note_on_c, 1, 48, 0
1, 99024, Note_on_c, 0, 83, 75
1, 99036, Note_on_c, 0, 83, 0
1, 99036, Note_on_c, 0, 81, 75
1, 99048, Note_on_c, 0, 81, 0
1, 99048, Note_on_c, 0, 80, 75
1, 99060, Note_on_c, 0, 80, 0
1, 99060, Note_on_c, 0, 81, 75
1, 99072, Note_on_c, 0, 81, 0
1, 99072, Note_on_c, 0, 74, 75
1, 99092, Note_on_c, 0, 74, 0
1, 99120, Note_on_c, 1, 67, 75
1, 99132, Note_on_c, 1, 67, 0
1, 99132, Note_on_c, 1, 65, 75
1, 99144, Note_on_c, 1, 65, 0
1, 99144, Note_on_c, 1, 64, 75
1, 99156, Note_on_c, 1, 64, 0
1, 99156, Note_on_c, 1, 65, 75
1, 99168, Note_on_c, 1, 65, 0
1, 99168, Note_on_c, 1, 71, 75
1, 99188, Note_on_c, 1, 71, 0
1, 99216, Note_on_c, 0, 81, 75
1, 99228, Note_on_c, 0, 81, 0
1, 99228, Note_on_c, 0, 79, 75
1, 99240, Note_on_c, 0, 79, 0
1, 99240, Note_on_c, 0, 78, 75
1, 99252, Note_on_c, 0, 78, 0
1, 99252, Note_on_c, 0, 79, 75
1, 99264, Note_on_c, 0, 79, 0
1, 99264, Note_on_c, 0, 72, 75
1, 99284, Note_on_c, 0, 72, 0
1, 99312, Note_on_c, 1, 65, 75
1, 99324, Note_on_c, 1, 65, 0
1, 99324, Note_on_c, 1, 64, 75
1, 99336, Note_on_c, 1, 64, 0
1, 99336, Note_on_c, 1, 62, 75
1, 99348, Note_on_c, 1, 62, 0
1, 99348, Note_on_c, 1, 64, 75
1, 99360, Note_on_c, 1, 64, 0
1, 99360, Note_on_c, 1, 72, 75
1, 99380, Note_on_c, 1, 72, 0
1, 99408, Note_on_c, 0, 88, 75
1, 99456, Note_on_c, 0, 88, 0
1, 99456, Note_on_c, 0, 77, 75
1, 99476, Note_on_c, 0, 77, 0
1, 99480, Note_on_c, 1, 62, 75
1, 99503, Note_on_c, 1, 62, 0
1, 99504, Note_on_c, 1, 61, 75
1, 99527, Note_on_c, 1, 61, 0
1, 99528, Note_on_c, 1, 62, 75
1, 99551, Note_on_c, 1, 62, 0
1, 99552, Note_on_c, 1, 60, 75
1, 99575, Note_on_c, 1, 60, 0
1, 99576, Note_on_c, 1, 59, 75
1, 99599, Note_on_c, 1, 59, 0
1, 99600, Note_on_c, 0, 86, 75
1, 99600, Note_on_c, 1, 57, 75
1, 99623, Note_on_c, 1, 57, 0
1, 99624, Note_on_c, 1, 55, 75
1, 99647, Note_on_c, 1, 55, 0
1, 99648, Note_on_c, 0, 86, 0
1, 99648, Note_on_c, 0, 76, 75
1, 99668, Note_on_c, 0, 76, 0
1, 99672, Note_on_c, 1, 60, 75
1, 99695, Note_on_c, 1, 60, 0
1, 99696, Note_on_c, 1, 62, 75
1, 99719, Note_on_c, 1, 62, 0
1, 99720, Note_on_c, 1, 64, 75
1, 99743, Note_on_c, 1, 64, 0
1, 99744, Note_on_c, 1, 65, 75
1, 99767, Note_on_c, 1, 65, 0
1, 99768, Note_on_c, 1, 67, 75
1, 99791, Note_on_c, 1, 67, 0
1, 99792, Note_on_c, 0, 84, 75
1, 99792, Note_on_c, 1, 68, 75
1, 99815, Note_on_c, 1, 68, 0
1, 99816, Note_on_c, 1, 69, 75
1, 99839, Note_on_c, 1, 69, 0
1, 99840, Note_on_c, 0, 84, 0
1, 99840, Note_on_c, 0, 74, 75
1, 99840, Note_on_c, 1, 65, 75
1, 99860, Note_on_c, 0, 74, 0
1, 99888, Note_on_c, 0, 81, 75
1, 99888, Note_on_c, 0, 77, 75
1, 99929, Note_on_c, 1, 65, 0
1, 99933, Note_on_c, 0, 81, 0
1, 99933, Note_on_c, 0, 77, 0
1, 99936, Note_on_c, 0, 79, 75
1, 99936, Note_on_c, 0, 76, 75
1, 99984, Note_on_c, 0, 79, 0
1, 99984, Note_on_c, 0, 76, 0
1, 99984, Note_on_c, 0, 71, 75
1, 99984, Note_on_c, 1, 67, 75
1, 100029, Note_on_c, 0, 71, 0
1, 100029, Note_on_c, 1, 67, 0
1, 100032, Note_on_c, 0, 72, 75
1, 100032, Note_on_c, 1, 64, 64
1, 100032, Note_on_c, 1, 60, 70
1, 100052, Note_on_c, 0, 72, 0
1, 100055, Note_on_c, 1, 64, 0
1, 100056, Note_on_c, 1, 67, 64
1, 100077, Note_on_c, 1, 60, 0
1, 100079, Note_on_c, 1, 67, 0
1, 100080, Note_on_c, 0, 72, 75
1, 100080, Note_on_c, 1, 64, 64
1, 100080, Note_on_c, 1, 60, 70
1, 100100, Note_on_c, 0, 72, 0
1, 100103, Note_on_c, 1, 64, 0
1, 100104, Note_on_c, 1, 67, 64
1, 100125, Note_on_c, 1, 60, 0
1, 100127, Note_on_c, 1, 67, 0
1, 100128, Note_on_c, 1, 64, 64
1, 100128, Note_on_c, 1, 60, 70
1, 100151, Note_on_c, 1, 64, 0
1, 100152, Note_on_c, 1, 67, 64
1, 100173, Note_on_c, 1, 60, 0
1, 100175, Note_on_c, 1, 67, 0
1, 100176, Note_on_c, 0, 81, 80
1, 100176, Note_on_c, 1, 64, 64
1, 100176, Note_on_c, 1, 60, 70
1, 100188, Note_on_c, 0, 81, 0
1, 100188, Note_on_c, 0, 79, 80
1, 100199, Note_on_c, 1, 64, 0
1, 100200, Note_on_c, 0, 79, 0
1, 100200, Note_on_c, 0, 78, 80
1, 100200, Note_on_c, 1, 67, 64
1, 100212, Note_on_c, 0, 78, 0
1, 100212, Note_on_c, 0, 79, 80
1, 100221, Note_on_c, 1, 60, 0
1, 100223, Note_on_c, 1, 67, 0
1, 100224, Note_on_c, 0, 79, 0
1, 100224, Note_on_c, 0, 71, 80
1, 100224, Note_on_c, 1, 65, 64
1, 100224, Note_on_c, 1, 60, 70
1, 100244, Note_on_c, 0, 71, 0
1, 100247, Note_on_c, 1, 65, 0
1, 100248, Note_on_c, 1, 67, 64
1, 100269, Note_on_c, 1, 60, 0
1, 100271, Note_on_c, 1, 67, 0
1, 100272, Note_on_c, 0, 71, 80
1, 100272, Note_on_c, 1, 65, 64
1, 100272, Note_on_c, 1, 60, 70
1, 100292, Note_on_c, 0, 71, 0
1, 100295, Note_on_c, 1, 65, 0
1, 100296, Note_on_c, 1, 67, 64
1, 100317, Note_on_c, 1, 60, 0
1, 100319, Note_on_c, 1, 67, 0
1, 100320, Note_on_c, 1, 65, 64
1, 100320, Note_on_c, 1, 60, 70
1, 100343, Note_on_c, 1, 65, 0
1, 100344, Note_on_c, 1, 67, 64
1, 100365, Note_on_c, 1, 60, 0
1, 100367, Note_on_c, 1, 67, 0
1, 100368, Note_on_c, 0, 81, 80
1, 100368, Note_on_c, 1, 65, 64
1, 100368, Note_on_c, 1, 60, 70
1, 100380, Note_on_c, 0, 81, 0
1, 100380, Note_on_c, 0, 79, 80
1, 100391, Note_on_c, 1, 65, 0
1, 100392, Note_on_c, 0, 79, 0
1, 100392, Note_on_c, 0, 78, 80
1, 100392, Note_on_c, 1, 67, 64
1, 100404, Note_on_c, 0, 78, 0
1, 100404, Note_on_c, 0, 79, 80
1, 100413, Note_on_c, 1, 60, 0
1, 100415, Note_on_c, 1, 67, 0
1, 100416, Note_on_c, 0, 79, 0
1, 100416, Note_on_c, 0, 84, 80
1, 100416, Note_on_c, 1, 64, 64
1, 100416, Note_on_c, 1, 60, 70
1, 100439, Note_on_c, 1, 64, 0
1, 100440, Note_on_c, 1, 67, 64
1, 100461, Note_on_c, 1, 60, 0
1, 100463, Note_on_c, 1, 67, 0
1, 100464, Note_on_c, 0, 84, 0
1, 100464, Note_on_c, 0, 88, 80
1, 100464, Note_on_c, 1, 64, 64
1, 100464, Note_on_c, 1, 60, 70
1, 100487, Note_on_c, 1, 64, 0
1, 100488, Note_on_c, 1, 67, 64
1, 100509, Note_on_c, 0, 88, 0
1, 100509, Note_on_c, 1, 60, 0
1, 100511, Note_on_c, 1, 67, 0
1, 100512, Note_on_c, 1, 64, 64
1, 100512, Note_on_c, 1, 60, 70
1, 100535, Note_on_c, 1, 64, 0
1, 100536, Note_on_c, 0, 79, 70
1, 100536, Note_on_c, 1, 67, 64
1, 100557, Note_on_c, 1, 60, 0
1, 100559, Note_on_c, 0, 79, 0
1, 100559, Note_on_c, 1, 67, 0
1, 100560, Note_on_c, 0, 81, 70
1, 100560, Note_on_c, 1, 64, 64
1, 100560, Note_on_c, 1, 60, 70
1, 100572, Note_on_c, 0, 81, 0
1, 100572, Note_on_c, 0, 79, 70
1, 100583, Note_on_c, 1, 64, 0
1, 100584, Note_on_c, 0, 79, 0
1, 100584, Note_on_c, 0, 78, 70
1, 100584, Note_on_c, 1, 67, 64
1, 100596, Note_on_c, 0, 78, 0
1, 100596, Note_on_c, 0, 79, 70
1, 100605, Note_on_c, 1, 60, 0
1, 100607, Note_on_c, 1, 67, 0
1, 100608, Note_on_c, 0, 79, 0
1, 100608, Note_on_c, 0, 71, 70
1, 100608, Note_on_c, 1, 65, 64
1, 100608, Note_on_c, 1, 60, 70
1, 100628, Note_on_c, 0, 71, 0
1, 100631, Note_on_c, 1, 65, 0
1, 100632, Note_on_c, 1, 67, 64
1, 100653, Note_on_c, 1, 60, 0
1, 100655, Note_on_c, 1, 67, 0
1, 100656, Note_on_c, 0, 71, 70
1, 100656, Note_on_c, 1, 65, 64
1, 100656, Note_on_c, 1, 60, 70
1, 100676, Note_on_c, 0, 71, 0
1, 100679, Note_on_c, 1, 65, 0
1, 100680, Note_on_c, 1, 67, 64
1, 100701, Note_on_c, 1, 60, 0
1, 100703, Note_on_c, 1, 67, 0
1, 100704, Note_on_c, 1, 65, 64
1, 100704, Note_on_c, 1, 60, 70
1, 100727, Note_on_c, 1, 65, 0
1, 100728, Note_on_c, 0, 79, 70
1, 100728, Note_on_c, 1, 67, 64
1, 100749, Note_on_c, 1, 60, 0
1, 100751, Note_on_c, 0, 79, 0
1, 100751, Note_on_c, 1, 67, 0
1, 100752, Note_on_c, 0, 81, 70
1, 100752, Note_on_c, 1, 65, 64
1, 100752, Note_on_c, 1, 60, 70
1, 100764, Note_on_c, 0, 81, 0
1, 100764, Note_on_c, 0, 79, 70
1, 100775, Note_on_c, 1, 65, 0
1, 100776, Note_on_c, 0, 79, 0
1, 100776, Note_on_c, 0, 78, 70
1, 100776, Note_on_c, 1, 67, 64
1, 100788, Note_on_c, 0, 78, 0
1, 100788, Note_on_c, 0, 79, 70
1, 100797, Note_on_c, 1, 60, 0
1, 100799, Note_on_c, 1, 67, 0
1, 100800, Note_on_c, 0, 79, 0
1, 100800, Note_on_c, 0, 84, 70
1, 100800, Note_on_c, 1, 64, 64
1, 100800, Note_on_c, 1, 60, 70
1, 100823, Note_on_c, 1, 64, 0
1, 100824, Note_on_c, 1, 67, 64
1, 100845, Note_on_c, 1, 60, 0
1, 100847, Note_on_c, 1, 67, 0
1, 100848, Note_on_c, 0, 84, 0
1, 100848, Note_on_c, 0, 88, 70
1, 100848, Note_on_c, 1, 64, 64
1, 100848, Note_on_c, 1, 60, 70
1, 100871, Note_on_c, 1, 64, 0
1, 100872, Note_on_c, 1, 67, 64
1, 100893, Note_on_c, 0, 88, 0
1, 100893, Note_on_c, 1, 60, 0
1, 100895, Note_on_c, 1, 67, 0
1, 100896, Note_on_c, 1, 64, 64
1, 100896, Note_on_c, 1, 60, 70
1, 100919, Note_on_c, 1, 64, 0
1, 100920, Note_on_c, 0, 79, 80
1, 100920, Note_on_c, 1, 67, 64
1, 100941, Note_on_c, 1, 60, 0
1, 100943, Note_on_c, 0, 79, 0
1, 100943, Note_on_c, 1, 67, 0
1, 100944, Note_on_c, 0, 81, 80
1, 100944, Note_on_c, 1, 64, 64
1, 100944, Note_on_c, 1, 60, 70
1, 100956, Note_on_c, 0, 81, 0
1, 100956, Note_on_c, 0, 79, 80
1, 100967, Note_on_c, 1, 64, 0
1, 100968, Note_on_c, 0, 79, 0
1, 100968, Note_on_c, 0, 78, 80
1, 100968, Note_on_c, 1, 67, 64
1, 100980, Note_on_c, 0, 78, 0
1, 100980, Note_on_c, 0, 79, 80
1, 100989, Note_on_c, 1, 60, 0
1, 100991, Note_on_c, 1, 67, 0
1, 100992, Note_on_c, 0, 79, 0
1, 100992, Note_on_c, 0, 71, 80
1, 100992, Note_on_c, 1, 65, 64
1, 100992, Note_on_c, 1, 60, 70
1, 101012, Note_on_c, 0, 71, 0
1, 101015, Note_on_c, 1, 65, 0
1, 101016, Note_on_c, 1, 67, 64
1, 101037, Note_on_c, 1, 60, 0
1, 101039, Note_on_c, 1, 67, 0
1, 101040, Note_on_c, 0, 71, 80
1, 101040, Note_on_c, 1, 65, 64
1, 101040, Note_on_c, 1, 60, 70
1, 101060, Note_on_c, 0, 71, 0
1, 101063, Note_on_c, 1, 65, 0
1, 101064, Note_on_c, 1, 67, 64
1, 101085, Note_on_c, 1, 60, 0
1, 101087, Note_on_c, 1, 67, 0
1, 101088, Note_on_c, 1, 65, 64
1, 101088, Note_on_c, 1, 60, 70
1, 101111, Note_on_c, 1, 65, 0
1, 101112, Note_on_c, 1, 67, 64
1, 101133, Note_on_c, 1, 60, 0
1, 101135, Note_on_c, 1, 67, 0
1, 101136, Note_on_c, 0, 81, 80
1, 101136, Note_on_c, 1, 65, 64
1, 101136, Note_on_c, 1, 60, 70
1, 101148, Note_on_c, 0, 81, 0
1, 101148, Note_on_c, 0, 79, 80
1, 101159, Note_on_c, 1, 65, 0
1, 101160, Note_on_c, 0, 79, 0
1, 101160, Note_on_c, 0, 78, 80
1, 101160, Note_on_c, 1, 67, 64
1, 101172, Note_on_c, 0, 78, 0
1, 101172, Note_on_c, 0, 79, 80
1, 101181, Note_on_c, 1, 60, 0
1, 101183, Note_on_c, 1, 67, 0
1, 101184, Note_on_c, 0, 79, 0
1, 101184, Note_on_c, 0, 72, 80
1, 101184, Note_on_c, 1, 64, 64
1, 101184, Note_on_c, 1, 60, 70
1, 101204, Note_on_c, 0, 72, 0
1, 101207, Note_on_c, 1, 64, 0
1, 101208, Note_on_c, 1, 67, 64
1, 101229, Note_on_c, 1, 60, 0
1, 101231, Note_on_c, 1, 67, 0
1, 101232, Note_on_c, 0, 81, 80
1, 101232, Note_on_c, 1, 64, 64
1, 101232, Note_on_c, 1, 60, 70
1, 101244, Note_on_c, 0, 81, 0
1, 101244, Note_on_c, 0, 79, 80
1, 101255, Note_on_c, 1, 64, 0
1, 101256, Note_on_c, 0, 79, 0
1, 101256, Note_on_c, 0, 78, 80
1, 101256, Note_on_c, 1, 67, 64
1, 101268, Note_on_c, 0, 78, 0
1, 101268, Note_on_c, 0, 79, 80
1, 101277, Note_on_c, 1, 60, 0
1, 101279, Note_on_c, 1, 67, 0
1, 101280, Note_on_c, 0, 79, 0
1, 101280, Note_on_c, 0, 74, 80
1, 101280, Note_on_c, 1, 62, 64
1, 101280, Note_on_c, 1, 59, 70
1, 101300, Note_on_c, 0, 74, 0
1, 101303, Note_on_c, 1, 62, 0
1, 101304, Note_on_c, 1, 67, 64
1, 101325, Note_on_c, 1, 59, 0
1, 101327, Note_on_c, 1, 67, 0
1, 101328, Note_on_c, 0, 81, 80
1, 101328, Note_on_c, 1, 62, 64
1, 101328, Note_on_c, 1, 59, 70
1, 101340, Note_on_c, 0, 81, 0
1, 101340, Note_on_c, 0, 79, 80
1, 101351, Note_on_c, 1, 62, 0
1, 101352, Note_on_c, 0, 79, 0
1, 101352, Note_on_c, 0, 78, 80
1, 101352, Note_on_c, 1, 67, 64
1, 101364, Note_on_c, 0, 78, 0
1, 101364, Note_on_c, 0, 79, 80
1, 101373, Note_on_c, 1, 59, 0
1, 101375, Note_on_c, 1, 67, 0
1, 101376, Note_on_c, 0, 79, 0
1, 101376, Note_on_c, 0, 76, 80
1, 101376, Note_on_c, 1, 64, 64
1, 101376, Note_on_c, 1, 60, 70
1, 101396, Note_on_c, 0, 76, 0
1, 101399, Note_on_c, 1, 64, 0
1, 101400, Note_on_c, 1, 67, 64
1, 101421, Note_on_c, 1, 60, 0
1, 101423, Note_on_c, 1, 67, 0
1, 101424, Note_on_c, 0, 81, 80
1, 101424, Note_on_c, 1, 64, 64
1, 101424, Note_on_c, 1, 60, 70
1, 101436, Note_on_c, 0, 81, 0
1, 101436, Note_on_c, 0, 79, 80
1, 101447, Note_on_c, 1, 64, 0
1, 101448, Note_on_c, 0, 79, 0
1, 101448, Note_on_c, 0, 78, 80
1, 101448, Note_on_c, 1, 67, 64
1, 101460, Note_on_c, 0, 78, 0
1, 101460, Note_on_c, 0, 79, 80
1, 101469, Note_on_c, 1, 60, 0
1, 101471, Note_on_c, 1, 67, 0
1, 101472, Note_on_c, 0, 79, 0
1, 101472, Note_on_c, 0, 71, 80
1, 101472, Note_on_c, 1, 65, 64
1, 101472, Note_on_c, 1, 62, 70
1, 101492, Note_on_c, 0, 71, 0
1, 101495, Note_on_c, 1, 65, 0
1, 101496, Note_on_c, 1, 67, 64
1, 101517, Note_on_c, 1, 62, 0
1, 101519, Note_on_c, 1, 67, 0
1, 101520, Note_on_c, 0, 80, 80
1, 101520, Note_on_c, 1, 65, 64
1, 101520, Note_on_c, 1, 62, 70
1, 101532, Note_on_c, 0, 80, 0
1, 101532, Note_on_c, 0, 79, 80
1, 101543, Note_on_c, 1, 65, 0
1, 101544, Note_on_c, 0, 79, 0
1, 101544, Note_on_c, 0, 78, 80
1, 101544, Note_on_c, 1, 67, 64
1, 101556, Note_on_c, 0, 78, 0
1, 101556, Note_on_c, 0, 79, 80
1, 101565, Note_on_c, 1, 62, 0
1, 101567, Note_on_c, 1, 67, 0
1, 101568, Note_on_c, 0, 79, 0
1, 101568, Note_on_c, 0, 72, 75
1, 101568, Note_on_c, 1, 63, 64
1, 101568, Note_on_c, 1, 63, 70
1, 101588, Note_on_c, 0, 72, 0
1, 101591, Note_on_c, 1, 63, 0
1, 101592, Note_on_c, 1, 67, 64
1, 101613, Note_on_c, 1, 63, 0
1, 101615, Note_on_c, 1, 67, 0
1, 101616, Note_on_c, 0, 80, 75
1, 101616, Note_on_c, 1, 63, 65
1, 101616, Note_on_c, 1, 63, 70
1, 101628, Note_on_c, 0, 80, 0
1, 101628, Note_on_c, 0, 79, 75
1, 101639, Note_on_c, 1, 63, 0
1, 101640, Note_on_c, 0, 79, 0
1, 101640, Note_on_c, 0, 78, 75
1, 101640, Note_on_c, 1, 67, 66
1, 101652, Note_on_c, 0, 78, 0
1, 101652, Note_on_c, 0, 79, 76
1, 101661, Note_on_c, 1, 63, 0
1, 101663, Note_on_c, 1, 67, 0
1, 101664, Note_on_c, 0, 79, 0
1, 101664, Note_on_c, 0, 74, 76
1, 101664, Note_on_c, 1, 62, 66
1, 101664, Note_on_c, 1, 59, 70
1, 101684, Note_on_c, 0, 74, 0
1, 101687, Note_on_c, 1, 62, 0
1, 101688, Note_on_c, 1, 67, 67
1, 101709, Note_on_c, 1, 59, 0
1, 101711, Note_on_c, 1, 67, 0
1, 101712, Note_on_c, 0, 80, 76
1, 101712, Note_on_c, 1, 62, 68
1, 101712, Note_on_c, 1, 59, 71
1, 101724, Note_on_c, 0, 80, 0
1, 101724, Note_on_c, 0, 79, 76
1, 101735, Note_on_c, 1, 62, 0
1, 101736, Note_on_c, 0, 79, 0
1, 101736, Note_on_c, 0, 78, 77
1, 101736, Note_on_c, 1, 67, 68
1, 101748, Note_on_c, 0, 78, 0
1, 101748, Note_on_c, 0, 79, 77
1, 101757, Note_on_c, 1, 59, 0
1, 101759, Note_on_c, 1, 67, 0
1, 101760, Note_on_c, 0, 79, 0
1, 101760, Note_on_c, 0, 75, 77
1, 101760, Note_on_c, 1, 63, 69
1, 101760, Note_on_c, 1, 60, 69
1, 101780, Note_on_c, 0, 75, 0
1, 101808, Note_on_c, 0, 86, 77
1, 101820, Note_on_c, 0, 86, 0
1, 101820, Note_on_c, 0, 84, 78
1, 101832, Note_on_c, 0, 84, 0
1, 101832, Note_on_c, 0, 83, 78
1, 101844, Note_on_c, 0, 83, 0
1, 101844, Note_on_c, 0, 84, 78
1, 101849, Note_on_c, 1, 63, 0
1, 101849, Note_on_c, 1, 60, 0
1, 101856, Note_on_c, 0, 84, 0
1, 101856, Note_on_c, 0, 79, 78
1, 101876, Note_on_c, 0, 79, 0
1, 101904, Note_on_c, 0, 89, 79
1, 101916, Note_on_c, 0, 89, 0
1, 101916, Note_on_c, 0, 87, 79
1, 101928, Note_on_c, 0, 87, 0
1, 101928, Note_on_c, 0, 86, 79
1, 101940, Note_on_c, 0, 86, 0
1, 101940, Note_on_c, 0, 87, 79
1, 101952, Note_on_c, 0, 87, 0
1, 101952, Note_on_c, 1, 60, 74
1, 101952, Note_on_c, 1, 56, 74
1, 101976, Note_on_c, 0, 83, 80
1, 101999, Note_on_c, 0, 83, 0
1, 102000, Note_on_c, 0, 86, 80
1, 102023, Note_on_c, 0, 86, 0
1, 102024, Note_on_c, 0, 84, 80
1, 102047, Note_on_c, 0, 84, 0
1, 102048, Note_on_c, 0, 82, 80
1, 102071, Note_on_c, 0, 82, 0
1, 102072, Note_on_c, 0, 80, 80
1, 102095, Note_on_c, 0, 80, 0
1, 102096, Note_on_c, 0, 79, 80
1, 102119, Note_on_c, 0, 79, 0
1, 102120, Note_on_c, 0, 78, 80
1, 102143, Note_on_c, 0, 78, 0
1, 102144, Note_on_c, 0, 79, 80
1, 102144, Note_on_c, 1, 60, 0
1, 102144, Note_on_c, 1, 56, 0
1, 102144, Note_on_c, 1, 59, 80
1, 102144, Note_on_c, 1, 55, 80
1, 102167, Note_on_c, 0, 79, 0
1, 102168, Note_on_c, 0, 78, 80
1, 102191, Note_on_c, 0, 78, 0
1, 102192, Note_on_c, 0, 79, 80
1, 102215, Note_on_c, 0, 79, 0
1, 102216, Note_on_c, 0, 74, 80
1, 102233, Note_on_c, 1, 59, 0
1, 102233, Note_on_c, 1, 55, 0
1, 102239, Note_on_c, 0, 74, 0
1, 102240, Note_on_c, 0, 75, 80
1, 102263, Note_on_c, 0, 75, 0
1, 102264, Note_on_c, 0, 74, 80
1, 102287, Note_on_c, 0, 74, 0
1, 102288, Note_on_c, 0, 75, 80
1, 102311, Note_on_c, 0, 75, 0
1, 102312, Note_on_c, 0, 71, 80
1, 102335, Note_on_c, 0, 71, 0
1, 102336, Note_on_c, 0, 72, 80
1, 102359, Note_on_c, 0, 72, 0
1, 102360, Note_on_c, 0, 71, 80
1, 102383, Note_on_c, 0, 71, 0
1, 102384, Note_on_c, 0, 72, 80
1, 102407, Note_on_c, 0, 72, 0
1, 102408, Note_on_c, 0, 67, 80
1, 102431, Note_on_c, 0, 67, 0
1, 102432, Note_on_c, 0, 68, 80
1, 102455, Note_on_c, 0, 68, 0
1, 102456, Note_on_c, 0, 67, 80
1, 102479, Note_on_c, 0, 67, 0
1, 102480, Note_on_c, 0, 68, 80
1, 102503, Note_on_c, 0, 68, 0
1, 102504, Note_on_c, 0, 66, 80
1, 102527, Note_on_c, 0, 66, 0
1, 102528, Note_on_c, 0, 67, 80
1, 102528, Note_on_c, 1, 55, 80
1, 102551, Note_on_c, 0, 67, 0
1, 102551, Note_on_c, 1, 55, 0
1, 102552, Note_on_c, 0, 66, 80
1, 102552, Note_on_c, 1, 54, 80
1, 102575, Note_on_c, 0, 66, 0
1, 102575, Note_on_c, 1, 54, 0
1, 102576, Note_on_c, 0, 67, 80
1, 102576, Note_on_c, 1, 55, 80
1, 102599, Note_on_c, 0, 67, 0
1, 102599, Note_on_c, 1, 55, 0
1, 102600, Note_on_c, 0, 62, 80
1, 102600, Note_on_c, 1, 50, 80
1, 102623, Note_on_c, 0, 62, 0
1, 102623, Note_on_c, 1, 50, 0
1, 102624, Note_on_c, 0, 63, 80
1, 102624, Note_on_c, 1, 51, 80
1, 102647, Note_on_c, 0, 63, 0
1, 102647, Note_on_c, 1, 51, 0
1, 102648, Note_on_c, 0, 62, 80
1, 102648, Note_on_c, 1, 50, 80
1, 102671, Note_on_c, 0, 62, 0
1, 102671, Note_on_c, 1, 50, 0
1, 102672, Note_on_c, 0, 63, 80
1, 102672, Note_on_c, 1, 51, 80
1, 102695, Note_on_c, 0, 63, 0
1, 102695, Note_on_c, 1, 51, 0
1, 102696, Note_on_c, 0, 59, 80
1, 102696, Note_on_c, 1, 47, 80
1, 102719, Note_on_c, 0, 59, 0
1, 102719, Note_on_c, 1, 47, 0
1, 102720, Note_on_c, 0, 60, 80
1, 102720, Note_on_c, 1, 48, 80
1, 102743, Note_on_c, 0, 60, 0
1, 102743, Note_on_c, 1, 48, 0
1, 102744, Note_on_c, 0, 59, 80
1, 102744, Note_on_c, 1, 47, 80
1, 102767, Note_on_c, 0, 59, 0
1, 102767, Note_on_c, 1, 47, 0
1, 102768, Note_on_c, 0, 60, 80
1, 102768, Note_on_c, 1, 48, 80
1, 102791, Note_on_c, 0, 60, 0
1, 102791, Note_on_c, 1, 48, 0
1, 102792, Note_on_c, 0, 55, 80
1, 102792, Note_on_c, 1, 43, 80
1, 102815, Note_on_c, 0, 55, 0
1, 102815, Note_on_c, 1, 43, 0
1, 102816, Note_on_c, 0, 56, 80
1, 102816, Note_on_c, 1, 44, 80
1, 102839, Note_on_c, 0, 56, 0
1, 102839, Note_on_c, 1, 44, 0
1, 102840, Note_on_c, 0, 55, 80
1, 102840, Note_on_c, 1, 43, 80
1, 102863, Note_on_c, 0, 55, 0
1, 102863, Note_on_c, 1, 43, 0
1, 102864, Note_on_c, 0, 56, 80
1, 102864, Note_on_c, 1, 44, 80
1, 102887, Note_on_c, 0, 56, 0
1, 102887, Note_on_c, 1, 44, 0
1, 102888, Note_on_c, 0, 54, 80
1, 102888, Note_on_c, 1, 42, 80
1, 102911, Note_on_c, 0, 54, 0
1, 102911, Note_on_c, 1, 42, 0
1, 102912, Note_on_c, 1, 55, 80
1, 102912, Note_on_c, 1, 43, 75
1, 102935, Note_on_c, 1, 43, 0
1, 102936, Note_on_c, 1, 31, 75
1, 102959, Note_on_c, 1, 31, 0
1, 102960, Note_on_c, 1, 35, 75
1, 102983, Note_on_c, 1, 35, 0
1, 102984, Note_on_c, 1, 38, 75
1, 103001, Note_on_c, 1, 55, 0
1, 103007, Note_on_c, 1, 38, 0
1, 103008, Note_on_c, 1, 55, 80
1, 103008, Note_on_c, 1, 50, 80
1, 103008, Note_on_c, 1, 47, 80
1, 103008, Note_on_c, 1, 43, 75
1, 103031, Note_on_c, 1, 43, 0
1, 103032, Note_on_c, 1, 31, 75
1, 103055, Note_on_c, 1, 31, 0
1, 103056, Note_on_c, 1, 35, 75
1, 103079, Note_on_c, 1, 35, 0
1, 103080, Note_on_c, 1, 38, 75
1, 103097, Note_on_c, 1, 55, 0
1, 103097, Note_on_c, 1, 50, 0
1, 103097, Note_on_c, 1, 47, 0
1, 103103, Note_on_c, 1, 38, 0
1, 103104, Note_on_c, 1, 55, 80
1, 103104, Note_on_c, 1, 50, 80
1, 103104, Note_on_c, 1, 47, 80
1, 103104, Note_on_c, 1, 43, 75
1, 103193, Note_on_c, 1, 55, 0
1, 103193, Note_on_c, 1, 50, 0
1, 103193, Note_on_c, 1, 47, 0
1, 103193, Note_on_c, 1, 43, 0
1, 103296, Note_on_c, 1, 72, 58
1, 103344, Note_on_c, 0, 76, 58
1, 103385, Note_on_c, 1, 72, 0
1, 103392, Note_on_c, 1, 67, 58
1, 103433, Note_on_c, 0, 76, 0
1, 103440, Note_on_c, 0, 79, 58
1, 103481, Note_on_c, 1, 67, 0
1, 103488, Note_on_c, 1, 64, 58
1, 103529, Note_on_c, 0, 79, 0
1, 103536, Note_on_c, 0, 84, 58
1, 103577, Note_on_c, 1, 64, 0
1, 103584, Note_on_c, 1, 69, 58
1, 103625, Note_on_c, 0, 84, 0
1, 103632, Note_on_c, 0, 85, 58
1, 103632, Note_on_c, 0, 79, 58
1, 103673, Note_on_c, 1, 69, 0
1, 103680, Note_on_c, 1, 62, 58
1, 103725, Note_on_c, 0, 85, 0
1, 103725, Note_on_c, 0, 79, 0
1, 103728, Note_on_c, 0, 86, 58
1, 103728, Note_on_c, 0, 77, 58
1, 103769, Note_on_c, 1, 62, 0
1, 103776, Note_on_c, 1, 67, 58
1, 103817, Note_on_c, 0, 86, 0
1, 103817, Note_on_c, 0, 77, 0
1, 103824, Note_on_c, 0, 83, 58
1, 103824, Note_on_c, 0, 77, 58
1, 103865, Note_on_c, 1, 67, 0
1, 103872, Note_on_c, 1, 60, 58
1, 103913, Note_on_c, 0, 83, 0
1, 103913, Note_on_c, 0, 77, 0
1, 103920, Note_on_c, 0, 84, 58
1, 103920, Note_on_c, 0, 76, 58
1, 103961, Note_on_c, 1, 60, 0
1, 103968, Note_on_c, 1, 76, 58
1, 104009, Note_on_c, 0, 84, 0
1, 104009, Note_on_c, 0, 76, 0
1, 104016, Note_on_c, 0, 80, 58
1, 104064, Note_on_c, 1, 65, 58
1, 104109, Note_on_c, 0, 80, 0
1, 104112, Note_on_c, 0, 81, 58
1, 104153, Note_on_c, 1, 76, 0
1, 104160, Note_on_c, 1, 74, 58
1, 104201, Note_on_c, 0, 81, 0
1, 104208, Note_on_c, 0, 89, 58
1, 104241, Note_on_c, 1, 65, 0
1, 104256, Note_on_c, 1, 64, 58
1, 104297, Note_on_c, 0, 89, 0
1, 104304, Note_on_c, 0, 79, 58
1, 104337, Note_on_c, 1, 74, 0
1, 104352, Note_on_c, 1, 72, 58
1, 104393, Note_on_c, 0, 79, 0
1, 104400, Note_on_c, 0, 88, 58
1, 104433, Note_on_c, 1, 64, 0
1, 104448, Note_on_c, 1, 62, 58
1, 104493, Note_on_c, 0, 88, 0
1, 104496, Note_on_c, 0, 77, 58
1, 104537, Note_on_c, 1, 72, 0
1, 104544, Note_on_c, 1, 71, 58
1, 104585, Note_on_c, 0, 77, 0
1, 104592, Note_on_c, 0, 86, 58
1, 104625, Note_on_c, 1, 62, 0
1, 104633, Note_on_c, 1, 71, 0
1, 104640, Note_on_c, 1, 72, 58
1, 104640, Note_on_c, 1, 60, 58
1, 104681, Note_on_c, 0, 86, 0
1, 104688, Note_on_c, 0, 76, 58
1, 104729, Note_on_c, 1, 72, 0
1, 104729, Note_on_c, 1, 60, 0
1, 104736, Note_on_c, 1, 67, 58
1, 104736, Note_on_c, 1, 64, 58
1, 104736, Note_on_c, 1, 64, 58
1, 104777, Note_on_c, 0, 76, 0
1, 104784, Note_on_c, 0, 84, 58
1, 104825, Note_on_c, 1, 64, 0
1, 104832, Note_on_c, 1, 67, 0
1, 104832, Note_on_c, 1, 64, 0
1, 104832, Note_on_c, 1, 69, 58
1, 104832, Note_on_c, 1, 65, 58
1, 104877, Note_on_c, 0, 84, 0
1, 104880, Note_on_c, 0, 74, 60
1, 104926, Note_on_c, 1, 69, 0
1, 104926, Note_on_c, 1, 65, 0
1, 104928, Note_on_c, 1, 69, 62
1, 104928, Note_on_c, 1, 66, 62
1, 104976, Note_on_c, 0, 74, 0
1, 104976, Note_on_c, 0, 72, 66
1, 105017, Note_on_c, 1, 69, 0
1, 105017, Note_on_c, 1, 66, 0
1, 105021, Note_on_c, 0, 72, 0
1, 105024, Note_on_c, 0, 71, 68
1, 105024, Note_on_c, 1, 67, 66
1, 105047, Note_on_c, 0, 71, 0
1, 105048, Note_on_c, 0, 79, 70
1, 105071, Note_on_c, 0, 79, 0
1, 105072, Note_on_c, 0, 77, 70
1, 105095, Note_on_c, 0, 77, 0
1, 105096, Note_on_c, 0, 74, 70
1, 105113, Note_on_c, 1, 67, 0
1, 105119, Note_on_c, 0, 74, 0
1, 105120, Note_on_c, 0, 71, 70
1, 105144, Note_on_c, 1, 67, 70
1, 105165, Note_on_c, 0, 71, 0
1, 105167, Note_on_c, 1, 67, 0
1, 105168, Note_on_c, 1, 65, 70
1, 105191, Note_on_c, 1, 65, 0
1, 105192, Note_on_c, 1, 62, 70
1, 105215, Note_on_c, 1, 62, 0
1, 105216, Note_on_c, 1, 64, 70
1, 105240, Note_on_c, 0, 79, 70
1, 105261, Note_on_c, 1, 64, 0
1, 105263, Note_on_c, 0, 79, 0
1, 105264, Note_on_c, 0, 76, 70
1, 105287, Note_on_c, 0, 76, 0
1, 105288, Note_on_c, 0, 72, 70
1, 105311, Note_on_c, 0, 72, 0
1, 105312, Note_on_c, 0, 67, 70
1, 105336, Note_on_c, 1, 64, 70
1, 105357, Note_on_c, 0, 67, 0
1, 105359, Note_on_c, 1, 64, 0
1, 105360, Note_on_c, 1, 62, 70
1, 105383, Note_on_c, 1, 62, 0
1, 105384, Note_on_c, 1, 60, 70
1, 105407, Note_on_c, 1, 60, 0
1, 105408, Note_on_c, 1, 59, 70
1, 105432, Note_on_c, 0, 79, 70
1, 105453, Note_on_c, 1, 59, 0
1, 105455, Note_on_c, 0, 79, 0
1, 105456, Note_on_c, 0, 77, 70
1, 105479, Note_on_c, 0, 77, 0
1, 105480, Note_on_c, 0, 74, 70
1, 105503, Note_on_c, 0, 74, 0
1, 105504, Note_on_c, 0, 71, 70
1, 105528, Note_on_c, 1, 67, 70
1, 105549, Note_on_c, 0, 71, 0
1, 105551, Note_on_c, 1, 67, 0
1, 105552, Note_on_c, 1, 65, 70
1, 105575, Note_on_c, 1, 65, 0
1, 105576, Note_on_c, 1, 62, 70
1, 105599, Note_on_c, 1, 62, 0
1, 105600, Note_on_c, 1, 60, 70
1, 105624, Note_on_c, 0, 76, 70
1, 105645, Note_on_c, 1, 60, 0
1, 105648, Note_on_c, 0, 76, 0
1, 105648, Note_on_c, 0, 72, 70
1, 105671, Note_on_c, 0, 72, 0
1, 105672, Note_on_c, 1, 67, 70
1, 105696, Note_on_c, 1, 67, 0
1, 105696, Note_on_c, 1, 64, 70
1, 105719, Note_on_c, 1, 64, 0
1, 105720, Note_on_c, 0, 79, 64
1, 105744, Note_on_c, 0, 79, 0
1, 105744, Note_on_c, 0, 76, 65
1, 105767, Note_on_c, 0, 76, 0
1, 105768, Note_on_c, 1, 72, 66
1, 105792, Note_on_c, 1, 72, 0
1, 105792, Note_on_c, 1, 67, 67
1, 105815, Note_on_c, 1, 67, 0
1, 105816, Note_on_c, 0, 84, 68
1, 105840, Note_on_c, 0, 84, 0
1, 105840, Note_on_c, 0, 79, 69
1, 105863, Note_on_c, 0, 79, 0
1, 105864, Note_on_c, 1, 76, 70
1, 105888, Note_on_c, 1, 76, 0
1, 105888, Note_on_c, 1, 72, 71
1, 105911, Note_on_c, 1, 72, 0
1, 105912, Note_on_c, 0, 88, 72
1, 105936, Note_on_c, 0, 88, 0
1, 105936, Note_on_c, 0, 84, 73
1, 105959, Note_on_c, 0, 84, 0
1, 105960, Note_on_c, 1, 80, 74
1, 105984, Note_on_c, 1, 80, 0
1, 105984, Note_on_c, 1, 81, 75
1, 106007, Note_on_c, 1, 81, 0
1, 106008, Note_on_c, 0, 83, 75
1, 106032, Note_on_c, 0, 83, 0
1, 106032, Note_on_c, 0, 84, 75
1, 106055, Note_on_c, 0, 84, 0
1, 106056, Note_on_c, 1, 76, 75
1, 106080, Note_on_c, 1, 76, 0
1, 106080, Note_on_c, 1, 77, 75
1, 106103, Note_on_c, 1, 77, 0
1, 106104, Note_on_c, 0, 80, 75
1, 106128, Note_on_c, 0, 80, 0
1, 106128, Note_on_c, 0, 81, 75
1, 106151, Note_on_c, 0, 81, 0
1, 106152, Note_on_c, 1, 73, 75
1, 106176, Note_on_c, 1, 73, 0
1, 106176, Note_on_c, 1, 74, 75
1, 106199, Note_on_c, 1, 74, 0
1, 106200, Note_on_c, 0, 76, 75
1, 106224, Note_on_c, 0, 76, 0
1, 106224, Note_on_c, 0, 77, 75
1, 106247, Note_on_c, 0, 77, 0
1, 106248, Note_on_c, 1, 64, 75
1, 106272, Note_on_c, 1, 64, 0
1, 106272, Note_on_c, 1, 65, 75
1, 106295, Note_on_c, 1, 65, 0
1, 106296, Note_on_c, 0, 73, 75
1, 106320, Note_on_c, 0, 73, 0
1, 106320, Note_on_c, 0, 74, 75
1, 106343, Note_on_c, 0, 74, 0
1, 106344, Note_on_c, 1, 54, 75
1, 106368, Note_on_c, 1, 54, 0
1, 106368, Note_on_c, 1, 55, 75
1, 106392, Note_on_c, 0, 67, 75
1, 106415, Note_on_c, 0, 67, 0
1, 106416, Note_on_c, 0, 68, 75
1, 106439, Note_on_c, 0, 68, 0
1, 106440, Note_on_c, 0, 69, 75
1, 106457, Note_on_c, 1, 55, 0
1, 106463, Note_on_c, 0, 69, 0
1, 106464, Note_on_c, 0, 70, 75
1, 106487, Note_on_c, 0, 70, 0
1, 106488, Note_on_c, 0, 71, 75
1, 106511, Note_on_c, 0, 71, 0
1, 106512, Note_on_c, 0, 72, 75
1, 106535, Note_on_c, 0, 72, 0
1, 106536, Note_on_c, 0, 73, 75
1, 106559, Note_on_c, 0, 73, 0
1, 106560, Note_on_c, 0, 74, 75
1, 106583, Note_on_c, 0, 74, 0
1, 106584, Note_on_c, 0, 75, 75
1, 106607, Note_on_c, 0, 75, 0
1, 106608, Note_on_c, 0, 76, 75
1, 106631, Note_on_c, 0, 76, 0
1, 106632, Note_on_c, 0, 77, 75
1, 106655, Note_on_c, 0, 77, 0
1, 106656, Note_on_c, 0, 78, 75
1, 106679, Note_on_c, 0, 78, 0
1, 106680, Note_on_c, 0, 79, 75
1, 106703, Note_on_c, 0, 79, 0
1, 106704, Note_on_c, 0, 76, 75
1, 106727, Note_on_c, 0, 76, 0
1, 106728, Note_on_c, 0, 72, 75
1, 106751, Note_on_c, 0, 72, 0
1, 106752, Note_on_c, 0, 76, 96
1, 106752, Note_on_c, 1, 65, 80
1, 106752, Note_on_c, 1, 62, 80
1, 106752, Note_on_c, 1, 59, 80
1, 106752, Note_on_c, 1, 55, 80
1, 106765, Note_on_c, 0, 76, 0
1, 106765, Note_on_c, 0, 74, 80
1, 106777, Note_on_c, 0, 74, 0
1, 106778, Note_on_c, 0, 76, 80
1, 106790, Note_on_c, 0, 76, 0
1, 106791, Note_on_c, 0, 74, 80
1, 106803, Note_on_c, 0, 74, 0
1, 106804, Note_on_c, 0, 76, 80
1, 106816, Note_on_c, 0, 76, 0
1, 106817, Note_on_c, 0, 74, 80
1, 106829, Note_on_c, 0, 74, 0
1, 106830, Note_on_c, 0, 76, 80
1, 106842, Note_on_c, 0, 76, 0
1, 106843, Note_on_c, 0, 74, 80
1, 106855, Note_on_c, 0, 74, 0
1, 106856, Note_on_c, 0, 76, 80
1, 106868, Note_on_c, 0, 76, 0
1, 106869, Note_on_c, 0, 74, 80
1, 106881, Note_on_c, 0, 74, 0
1, 106882, Note_on_c, 0, 76, 80
1, 106894, Note_on_c, 0, 76, 0
1, 106895, Note_on_c, 0, 74, 80
1, 106907, Note_on_c, 0, 74, 0
1, 106908, Note_on_c, 0, 76, 80
1, 106920, Note_on_c, 0, 76, 0
1, 106921, Note_on_c, 0, 74, 80
1, 106929, Note_on_c, 1, 65, 0
1, 106929, Note_on_c, 1, 62, 0
1, 106929, Note_on_c, 1, 59, 0
1, 106929, Note_on_c, 1, 55, 0
1, 106933, Note_on_c, 0, 74, 0
1, 106934, Note_on_c, 0, 76, 80
1, 106944, Note_on_c, 1, 81, 70
1, 106946, Note_on_c, 0, 76, 0
1, 106947, Note_on_c, 0, 74, 80
1, 106959, Note_on_c, 0, 74, 0
1, 106960, Note_on_c, 0, 76, 80
1, 106972, Note_on_c, 0, 76, 0
1, 106973, Note_on_c, 0, 74, 80
1, 106980, Note_on_c, 1, 81, 0
1, 106980, Note_on_c, 1, 83, 64
1, 106985, Note_on_c, 0, 74, 0
1, 106986, Note_on_c, 0, 76, 80
1, 106992, Note_on_c, 1, 83, 0
1, 106992, Note_on_c, 1, 84, 64
1, 106998, Note_on_c, 0, 76, 0
1, 106999, Note_on_c, 0, 74, 80
1, 107004, Note_on_c, 1, 84, 0
1, 107004, Note_on_c, 1, 83, 64
1, 107011, Note_on_c, 0, 74, 0
1, 107012, Note_on_c, 0, 76, 80
1, 107016, Note_on_c, 1, 83, 0
1, 107016, Note_on_c, 1, 84, 64
1, 107024, Note_on_c, 0, 76, 0
1, 107025, Note_on_c, 0, 74, 80
1, 107028, Note_on_c, 1, 84, 0
1, 107028, Note_on_c, 1, 83, 64
1, 107037, Note_on_c, 0, 74, 0
1, 107038, Note_on_c, 0, 76, 80
1, 107040, Note_on_c, 1, 83, 0
1, 107040, Note_on_c, 1, 84, 64
1, 107050, Note_on_c, 0, 76, 0
1, 107051, Note_on_c, 0, 74, 80
1, 107052, Note_on_c, 1, 84, 0
1, 107052, Note_on_c, 1, 83, 64
1, 107063, Note_on_c, 0, 74, 0
1, 107064, Note_on_c, 0, 76, 80
1, 107064, Note_on_c, 1, 83, 0
1, 107064, Note_on_c, 1, 84, 64
1, 107076, Note_on_c, 0, 76, 0
1, 107076, Note_on_c, 0, 74, 80
1, 107076, Note_on_c, 1, 84, 0
1, 107076, Note_on_c, 1, 83, 64
1, 107088, Note_on_c, 0, 74, 0
1, 107088, Note_on_c, 0, 76, 80
1, 107088, Note_on_c, 1, 83, 0
1, 107088, Note_on_c, 1, 84, 64
1, 107100, Note_on_c, 0, 76, 0
1, 107100, Note_on_c, 0, 74, 80
1, 107100, Note_on_c, 1, 84, 0
1, 107100, Note_on_c, 1, 83, 64
1, 107112, Note_on_c, 0, 74, 0
1, 107112, Note_on_c, 0, 72, 80
1, 107112, Note_on_c, 1, 83, 0
1, 107112, Note_on_c, 1, 81, 64
1, 107124, Note_on_c, 0, 72, 0
1, 107124, Note_on_c, 0, 74, 80
1, 107124, Note_on_c, 1, 81, 0
1, 107124, Note_on_c, 1, 83, 64
1, 107136, Note_on_c, 0, 74, 0
1, 107136, Note_on_c, 1, 83, 0
1, 107136, Note_on_c, 1, 48, 80
1, 107160, Note_on_c, 0, 76, 75
1, 107160, Note_on_c, 0, 72, 75
1, 107160, Note_on_c, 1, 48, 0
1, 107160, Note_on_c, 1, 60, 64
1, 107183, Note_on_c, 1, 60, 0
1, 107184, Note_on_c, 0, 76, 0
1, 107184, Note_on_c, 0, 72, 0
1, 107184, Note_on_c, 0, 74, 75
1, 107184, Note_on_c, 0, 71, 75
1, 107184, Note_on_c, 1, 48, 64
1, 107194, Note_on_c, 0, 74, 0
1, 107194, Note_on_c, 0, 71, 0
1, 107207, Note_on_c, 1, 48, 0
1, 107208, Note_on_c, 0, 77, 76
1, 107208, Note_on_c, 0, 74, 76
1, 107208, Note_on_c, 1, 60, 64
1, 107231, Note_on_c, 1, 60, 0
1, 107232, Note_on_c, 0, 77, 0
1, 107232, Note_on_c, 0, 74, 0
1, 107232, Note_on_c, 0, 76, 77
1, 107232, Note_on_c, 0, 72, 77
1, 107232, Note_on_c, 1, 48, 64
1, 107242, Note_on_c, 0, 76, 0
1, 107242, Note_on_c, 0, 72, 0
1, 107255, Note_on_c, 1, 48, 0
1, 107256, Note_on_c, 0, 79, 77
1, 107256, Note_on_c, 0, 76, 77
1, 107256, Note_on_c, 1, 60, 64
1, 107279, Note_on_c, 1, 60, 0
1, 107280, Note_on_c, 0, 79, 0
1, 107280, Note_on_c, 0, 76, 0
1, 107280, Note_on_c, 0, 77, 78
1, 107280, Note_on_c, 0, 74, 78
1, 107280, Note_on_c, 1, 48, 64
1, 107290, Note_on_c, 0, 77, 0
1, 107290, Note_on_c, 0, 74, 0
1, 107303, Note_on_c, 1, 48, 0
1, 107304, Note_on_c, 0, 81, 79
1, 107304, Note_on_c, 0, 77, 79
1, 107304, Note_on_c, 1, 60, 64
1, 107327, Note_on_c, 1, 60, 0
1, 107328, Note_on_c, 0, 81, 0
1, 107328, Note_on_c, 0, 77, 0
1, 107328, Note_on_c, 0, 79, 96
1, 107328, Note_on_c, 0, 76, 96
1, 107328, Note_on_c, 1, 48, 64
1, 107348, Note_on_c, 0, 79, 0
1, 107348, Note_on_c, 0, 76, 0
1, 107351, Note_on_c, 1, 48, 0
1, 107352, Note_on_c, 1, 60, 64
1, 107375, Note_on_c, 1, 60, 0
1, 107376, Note_on_c, 1, 48, 64
1, 107399, Note_on_c, 1, 48, 0
1, 107400, Note_on_c, 0, 77, 74
1, 107400, Note_on_c, 0, 74, 74
1, 107400, Note_on_c, 1, 60, 64
1, 107423, Note_on_c, 1, 60, 0
1, 107424, Note_on_c, 0, 77, 0
1, 107424, Note_on_c, 0, 74, 0
1, 107424, Note_on_c, 0, 76, 72
1, 107424, Note_on_c, 0, 72, 72
1, 107424, Note_on_c, 1, 48, 64
1, 107444, Note_on_c, 0, 76, 0
1, 107444, Note_on_c, 0, 72, 0
1, 107447, Note_on_c, 1, 48, 0
1, 107448, Note_on_c, 1, 60, 64
1, 107471, Note_on_c, 1, 60, 0
1, 107472, Note_on_c, 1, 48, 64
1, 107495, Note_on_c, 1, 48, 0
1, 107496, Note_on_c, 0, 74, 66
1, 107496, Note_on_c, 0, 65, 66
1, 107496, Note_on_c, 1, 60, 64
1, 107519, Note_on_c, 1, 60, 0
1, 107520, Note_on_c, 0, 74, 0
1, 107520, Note_on_c, 0, 65, 0
1, 107520, Note_on_c, 0, 72, 64
1, 107520, Note_on_c, 0, 64, 64
1, 107520, Note_on_c, 1, 48, 64
1, 107530, Note_on_c, 0, 72, 0
1, 107530, Note_on_c, 0, 64, 0
1, 107543, Note_on_c, 1, 48, 0
1, 107544, Note_on_c, 0, 76, 66
1, 107544, Note_on_c, 0, 72, 66
1, 107544, Note_on_c, 1, 60, 64
1, 107567, Note_on_c, 1, 60, 0
1, 107568, Note_on_c, 0, 76, 0
1, 107568, Note_on_c, 0, 72, 0
1, 107568, Note_on_c, 0, 74, 68
1, 107568, Note_on_c, 0, 71, 68
1, 107568, Note_on_c, 1, 48, 64
1, 107578, Note_on_c, 0, 74, 0
1, 107578, Note_on_c, 0, 71, 0
1, 107591, Note_on_c, 1, 48, 0
1, 107592, Note_on_c, 0, 77, 70
1, 107592, Note_on_c, 0, 74, 70
1, 107592, Note_on_c, 1, 60, 64
1, 107615, Note_on_c, 1, 60, 0
1, 107616, Note_on_c, 0, 77, 0
1, 107616, Note_on_c, 0, 74, 0
1, 107616, Note_on_c, 0, 76, 72
1, 107616, Note_on_c, 0, 72, 72
1, 107616, Note_on_c, 1, 48, 64
1, 107626, Note_on_c, 0, 76, 0
1, 107626, Note_on_c, 0, 72, 0
1, 107639, Note_on_c, 1, 48, 0
1, 107640, Note_on_c, 0, 79, 74
1, 107640, Note_on_c, 0, 76, 74
1, 107640, Note_on_c, 1, 60, 64
1, 107663, Note_on_c, 1, 60, 0
1, 107664, Note_on_c, 0, 79, 0
1, 107664, Note_on_c, 0, 76, 0
1, 107664, Note_on_c, 0, 77, 76
1, 107664, Note_on_c, 0, 74, 76
1, 107664, Note_on_c, 1, 48, 64
1, 107674, Note_on_c, 0, 77, 0
1, 107674, Note_on_c, 0, 74, 0
1, 107687, Note_on_c, 1, 48, 0
1, 107688, Note_on_c, 0, 81, 78
1, 107688, Note_on_c, 0, 77, 78
1, 107688, Note_on_c, 1, 60, 64
1, 107711, Note_on_c, 1, 60, 0
1, 107712, Note_on_c, 0, 81, 0
1, 107712, Note_on_c, 0, 77, 0
1, 107712, Note_on_c, 0, 79, 96
1, 107712, Note_on_c, 0, 76, 96
1, 107712, Note_on_c, 1, 48, 64
1, 107732, Note_on_c, 0, 79, 0
1, 107732, Note_on_c, 0, 76, 0
1, 107735, Note_on_c, 1, 48, 0
1, 107736, Note_on_c, 1, 60, 64
1, 107759, Note_on_c, 1, 60, 0
1, 107760, Note_on_c, 1, 48, 64
1, 107783, Note_on_c, 1, 48, 0
1, 107784, Note_on_c, 0, 77, 74
1, 107784, Note_on_c, 0, 74, 74
1, 107784, Note_on_c, 1, 60, 64
1, 107807, Note_on_c, 1, 60, 0
1, 107808, Note_on_c, 0, 77, 0
1, 107808, Note_on_c, 0, 74, 0
1, 107808, Note_on_c, 0, 76, 72
1, 107808, Note_on_c, 0, 72, 72
1, 107808, Note_on_c, 1, 48, 64
1, 107828, Note_on_c, 0, 76, 0
1, 107828, Note_on_c, 0, 72, 0
1, 107831, Note_on_c, 1, 48, 0
1, 107832, Note_on_c, 1, 60, 64
1, 107855, Note_on_c, 1, 60, 0
1, 107856, Note_on_c, 1, 48, 64
1, 107879, Note_on_c, 1, 48, 0
1, 107880, Note_on_c, 0, 74, 66
1, 107880, Note_on_c, 0, 65, 66
1, 107880, Note_on_c, 1, 60, 64
1, 107903, Note_on_c, 1, 60, 0
1, 107904, Note_on_c, 0, 74, 0
1, 107904, Note_on_c, 0, 65, 0
1, 107904, Note_on_c, 0, 72, 64
1, 107904, Note_on_c, 0, 64, 64
1, 107904, Note_on_c, 1, 48, 64
1, 107914, Note_on_c, 0, 72, 0
1, 107914, Note_on_c, 0, 64, 0
1, 107927, Note_on_c, 1, 48, 0
1, 107928, Note_on_c, 0, 76, 66
1, 107928, Note_on_c, 0, 72, 66
1, 107928, Note_on_c, 1, 60, 64
1, 107951, Note_on_c, 1, 60, 0
1, 107952, Note_on_c, 0, 76, 0
1, 107952, Note_on_c, 0, 74, 68
1, 107952, Note_on_c, 1, 48, 64
1, 107962, Note_on_c, 0, 74, 0
1, 107962, Note_on_c, 0, 72, 0
1, 107975, Note_on_c, 1, 48, 0
1, 107976, Note_on_c, 0, 77, 70
1, 107976, Note_on_c, 0, 74, 70
1, 107976, Note_on_c, 1, 60, 64
1, 107999, Note_on_c, 1, 60, 0
1, 108000, Note_on_c, 0, 77, 0
1, 108000, Note_on_c, 0, 74, 0
1, 108000, Note_on_c, 0, 76, 72
1, 108000, Note_on_c, 0, 72, 72
1, 108000, Note_on_c, 1, 48, 64
1, 108010, Note_on_c, 0, 76, 0
1, 108010, Note_on_c, 0, 72, 0
1, 108023, Note_on_c, 1, 48, 0
1, 108024, Note_on_c, 0, 79, 74
1, 108024, Note_on_c, 0, 76, 74
1, 108024, Note_on_c, 1, 60, 64
1, 108047, Note_on_c, 1, 60, 0
1, 108048, Note_on_c, 0, 79, 0
1, 108048, Note_on_c, 0, 76, 0
1, 108048, Note_on_c, 0, 77, 76
1, 108048, Note_on_c, 0, 74, 76
1, 108048, Note_on_c, 1, 48, 64
1, 108058, Note_on_c, 0, 77, 0
1, 108058, Note_on_c, 0, 74, 0
1, 108071, Note_on_c, 1, 48, 0
1, 108072, Note_on_c, 0, 81, 78
1, 108072, Note_on_c, 0, 77, 78
1, 108072, Note_on_c, 1, 60, 64
1, 108095, Note_on_c, 1, 60, 0
1, 108096, Note_on_c, 0, 81, 0
1, 108096, Note_on_c, 0, 77, 0
1, 108096, Note_on_c, 0, 79, 96
1, 108096, Note_on_c, 0, 76, 96
1, 108096, Note_on_c, 1, 48, 64
1, 108116, Note_on_c, 0, 79, 0
1, 108116, Note_on_c, 0, 76, 0
1, 108119, Note_on_c, 1, 48, 0
1, 108120, Note_on_c, 1, 60, 64
1, 108143, Note_on_c, 1, 60, 0
1, 108144, Note_on_c, 1, 48, 64
1, 108167, Note_on_c, 1, 48, 0
1, 108168, Note_on_c, 0, 77, 74
1, 108168, Note_on_c, 0, 74, 74
1, 108168, Note_on_c, 1, 60, 64
1, 108191, Note_on_c, 1, 60, 0
1, 108192, Note_on_c, 0, 77, 0
1, 108192, Note_on_c, 0, 74, 0
1, 108192, Note_on_c, 0, 76, 72
1, 108192, Note_on_c, 0, 72, 72
1, 108192, Note_on_c, 1, 48, 64
1, 108212, Note_on_c, 0, 76, 0
1, 108212, Note_on_c, 0, 72, 0
1, 108215, Note_on_c, 1, 48, 0
1, 108216, Note_on_c, 1, 60, 64
1, 108239, Note_on_c, 1, 60, 0
1, 108240, Note_on_c, 1, 48, 64
1, 108263, Note_on_c, 1, 48, 0
1, 108264, Note_on_c, 0, 74, 66
1, 108264, Note_on_c, 0, 65, 66
1, 108264, Note_on_c, 1, 60, 64
1, 108287, Note_on_c, 1, 60, 0
1, 108288, Note_on_c, 0, 74, 0
1, 108288, Note_on_c, 0, 65, 0
1, 108288, Note_on_c, 0, 72, 70
1, 108288, Note_on_c, 0, 64, 70
1, 108288, Note_on_c, 1, 48, 64
1, 108311, Note_on_c, 1, 48, 0
1, 108312, Note_on_c, 1, 60, 64
1, 108335, Note_on_c, 1, 60, 0
1, 108336, Note_on_c, 1, 48, 64
1, 108359, Note_on_c, 1, 48, 0
1, 108360, Note_on_c, 1, 60, 64
1, 108383, Note_on_c, 1, 60, 0
1, 108384, Note_on_c, 1, 48, 64
1, 108407, Note_on_c, 1, 48, 0
1, 108408, Note_on_c, 1, 60, 64
1, 108431, Note_on_c, 1, 60, 0
1, 108432, Note_on_c, 1, 48, 64
1, 108455, Note_on_c, 1, 48, 0
1, 108456, Note_on_c, 1, 60, 64
1, 108479, Note_on_c, 1, 60, 0
1, 108480, Note_on_c, 0, 72, 0
1, 108480, Note_on_c, 0, 73, 70
1, 108480, Note_on_c, 1, 48, 64
1, 108503, Note_on_c, 1, 48, 0
1, 108504, Note_on_c, 1, 58, 64
1, 108527, Note_on_c, 1, 58, 0
1, 108528, Note_on_c, 1, 48, 64
1, 108551, Note_on_c, 1, 48, 0
1, 108552, Note_on_c, 1, 58, 64
1, 108575, Note_on_c, 1, 58, 0
1, 108576, Note_on_c, 1, 48, 64
1, 108599, Note_on_c, 1, 48, 0
1, 108600, Note_on_c, 1, 58, 64
1, 108623, Note_on_c, 1, 58, 0
1, 108624, Note_on_c, 1, 48, 64
1, 108647, Note_on_c, 1, 48, 0
1, 108648, Note_on_c, 1, 58, 64
1, 108671, Note_on_c, 1, 58, 0
1, 108672, Note_on_c, 0, 64, 0
1, 108672, Note_on_c, 0, 65, 58
1, 108672, Note_on_c, 1, 48, 64
1, 108695, Note_on_c, 1, 48, 0
1, 108696, Note_on_c, 1, 56, 64
1, 108719, Note_on_c, 1, 56, 0
1, 108720, Note_on_c, 1, 48, 64
1, 108743, Note_on_c, 1, 48, 0
1, 108744, Note_on_c, 1, 56, 64
1, 108761, Note_on_c, 0, 73, 0
1, 108767, Note_on_c, 1, 56, 0
1, 108768, Note_on_c, 0, 72, 70
1, 108768, Note_on_c, 1, 48, 64
1, 108791, Note_on_c, 1, 48, 0
1, 108792, Note_on_c, 1, 56, 64
1, 108815, Note_on_c, 1, 56, 0
1, 108816, Note_on_c, 1, 48, 64
1, 108839, Note_on_c, 1, 48, 0
1, 108840, Note_on_c, 1, 56, 64
1, 108849, Note_on_c, 0, 65, 0
1, 108857, Note_on_c, 0, 72, 0
1, 108863, Note_on_c, 1, 56, 0
1, 108864, Note_on_c, 0, 71, 88
1, 108864, Note_on_c, 0, 65, 76
1, 108864, Note_on_c, 1, 50, 82
1, 108887, Note_on_c, 1, 50, 0
1, 108888, Note_on_c, 1, 56, 64
1, 108911, Note_on_c, 1, 56, 0
1, 108912, Note_on_c, 1, 50, 64
1, 108935, Note_on_c, 1, 50, 0
1, 108936, Note_on_c, 1, 56, 64
1, 108959, Note_on_c, 1, 56, 0
1, 108960, Note_on_c, 1, 50, 64
1, 108983, Note_on_c, 1, 50, 0
1, 108984, Note_on_c, 1, 56, 64
1, 109007, Note_on_c, 1, 56, 0
1, 109008, Note_on_c, 1, 50, 64
1, 109031, Note_on_c, 1, 50, 0
1, 109032, Note_on_c, 1, 56, 64
1, 109041, Note_on_c, 0, 71, 0
1, 109041, Note_on_c, 0, 65, 0
1, 109055, Note_on_c, 1, 56, 0
1, 109056, Note_on_c, 0, 70, 70
1, 109056, Note_on_c, 0, 60, 58
1, 109056, Note_on_c, 1, 52, 64
1, 109079, Note_on_c, 1, 52, 0
1, 109080, Note_on_c, 1, 55, 64
1, 109103, Note_on_c, 1, 55, 0
1, 109104, Note_on_c, 1, 52, 64
1, 109127, Note_on_c, 1, 52, 0
1, 109128, Note_on_c, 1, 55, 64
1, 109145, Note_on_c, 0, 60, 0
1, 109151, Note_on_c, 1, 55, 0
1, 109152, Note_on_c, 0, 67, 58
1, 109152, Note_on_c, 1, 52, 64
1, 109175, Note_on_c, 1, 52, 0
1, 109176, Note_on_c, 1, 60, 64
1, 109199, Note_on_c, 1, 60, 0
1, 109200, Note_on_c, 1, 52, 64
1, 109223, Note_on_c, 1, 52, 0
1, 109224, Note_on_c, 1, 60, 64
1, 109247, Note_on_c, 1, 60, 0
1, 109248, Note_on_c, 0, 70, 0
1, 109248, Note_on_c, 0, 69, 70
1, 109248, Note_on_c, 1, 53, 64
1, 109271, Note_on_c, 1, 53, 0
1, 109272, Note_on_c, 1, 60, 64
1, 109295, Note_on_c, 1, 60, 0
1, 109296, Note_on_c, 1, 53, 64
1, 109319, Note_on_c, 1, 53, 0
1, 109320, Note_on_c, 1, 60, 64
1, 109329, Note_on_c, 0, 67, 0
1, 109343, Note_on_c, 1, 60, 0
1, 109344, Note_on_c, 0, 64, 58
1, 109344, Note_on_c, 1, 53, 64
1, 109367, Note_on_c, 1, 53, 0
1, 109368, Note_on_c, 1, 61, 64
1, 109391, Note_on_c, 1, 61, 0
1, 109392, Note_on_c, 1, 53, 64
1, 109415, Note_on_c, 1, 53, 0
1, 109416, Note_on_c, 1, 61, 64
1, 109425, Note_on_c, 0, 69, 0
1, 109433, Note_on_c, 0, 64, 0
1, 109439, Note_on_c, 1, 61, 0
1, 109440, Note_on_c, 0, 69, 70
1, 109440, Note_on_c, 0, 65, 58
1, 109440, Note_on_c, 1, 53, 64
1, 109463, Note_on_c, 1, 53, 0
1, 109464, Note_on_c, 1, 62, 64
1, 109487, Note_on_c, 1, 62, 0
1, 109488, Note_on_c, 1, 53, 64
1, 109511, Note_on_c, 1, 53, 0
1, 109512, Note_on_c, 1, 62, 64
1, 109535, Note_on_c, 1, 62, 0
1, 109536, Note_on_c, 1, 53, 64
1, 109559, Note_on_c, 1, 53, 0
1, 109560, Note_on_c, 1, 62, 64
1, 109583, Note_on_c, 1, 62, 0
1, 109584, Note_on_c, 1, 53, 64
1, 109607, Note_on_c, 1, 53, 0
1, 109608, Note_on_c, 1, 62, 64
1, 109617, Note_on_c, 0, 69, 0
1, 109617, Note_on_c, 0, 65, 0
1, 109631, Note_on_c, 1, 62, 0
1, 109632, Note_on_c, 0, 69, 88
1, 109632, Note_on_c, 0, 63, 76
1, 109632, Note_on_c, 1, 54, 82
1, 109655, Note_on_c, 1, 54, 0
1, 109656, Note_on_c, 1, 60, 64
1, 109679, Note_on_c, 1, 60, 0
1, 109680, Note_on_c, 1, 54, 64
1, 109703, Note_on_c, 1, 54, 0
1, 109704, Note_on_c, 1, 60, 64
1, 109727, Note_on_c, 1, 60, 0
1, 109728, Note_on_c, 1, 54, 64
1, 109751, Note_on_c, 1, 54, 0
1, 109752, Note_on_c, 1, 60, 64
1, 109775, Note_on_c, 1, 60, 0
1, 109776, Note_on_c, 1, 54, 64
1, 109799, Note_on_c, 1, 54, 0
1, 109800, Note_on_c, 1, 60, 64
1, 109809, Note_on_c, 0, 69, 0
1, 109823, Note_on_c, 1, 60, 0
1, 109824, Note_on_c, 0, 67, 70
1, 109824, Note_on_c, 1, 55, 64
1, 109847, Note_on_c, 1, 55, 0
1, 109848, Note_on_c, 1, 60, 64
1, 109871, Note_on_c, 1, 60, 0
1, 109872, Note_on_c, 1, 55, 64
1, 109895, Note_on_c, 1, 55, 0
1, 109896, Note_on_c, 1, 60, 64
1, 109913, Note_on_c, 0, 63, 0
1, 109919, Note_on_c, 1, 60, 0
1, 109920, Note_on_c, 0, 62, 58
1, 109920, Note_on_c, 1, 55, 64
1, 109943, Note_on_c, 1, 55, 0
1, 109944, Note_on_c, 1, 60, 64
1, 109967, Note_on_c, 1, 60, 0
1, 109968, Note_on_c, 1, 55, 64
1, 109991, Note_on_c, 1, 55, 0
1, 109992, Note_on_c, 1, 60, 64
1, 110009, Note_on_c, 0, 62, 0
1, 110015, Note_on_c, 1, 60, 0
1, 110016, Note_on_c, 0, 64, 58
1, 110016, Note_on_c, 1, 55, 64
1, 110039, Note_on_c, 1, 55, 0
1, 110040, Note_on_c, 1, 59, 64
1, 110063, Note_on_c, 1, 59, 0
1, 110064, Note_on_c, 1, 55, 64
1, 110087, Note_on_c, 1, 55, 0
1, 110088, Note_on_c, 1, 59, 64
1, 110105, Note_on_c, 0, 64, 0
1, 110111, Note_on_c, 1, 59, 0
1, 110112, Note_on_c, 0, 65, 58
1, 110112, Note_on_c, 1, 55, 64
1, 110135, Note_on_c, 1, 55, 0
1, 110136, Note_on_c, 1, 59, 64
1, 110159, Note_on_c, 1, 59, 0
1, 110160, Note_on_c, 1, 55, 64
1, 110183, Note_on_c, 1, 55, 0
1, 110184, Note_on_c, 1, 59, 64
1, 110207, Note_on_c, 1, 59, 0
1, 110208, Note_on_c, 0, 65, 0
1, 110208, Note_on_c, 0, 64, 58
1, 110208, Note_on_c, 1, 60, 64
1, 110253, Note_on_c, 0, 67, 0
1, 110253, Note_on_c, 0, 64, 0
1, 110253, Note_on_c, 1, 60, 0
1, 110256, Note_on_c, 0, 76, 80
1, 110256, Note_on_c, 0, 72, 80
1, 110256, Note_on_c, 0, 67, 80
1, 110256, Note_on_c, 1, 55, 80
1, 110256, Note_on_c, 1, 52, 80
1, 110256, Note_on_c, 1, 48, 80
1, 110276, Note_on_c, 0, 76, 0
1, 110276, Note_on_c, 0, 72, 0
1, 110276, Note_on_c, 0, 67, 0
1, 110276, Note_on_c, 1, 55, 0
1, 110276, Note_on_c, 1, 52, 0
1, 110276, Note_on_c, 1, 48, 0
1, 110304, Note_on_c, 0, 77, 80
1, 110304, Note_on_c, 0, 74, 80
1, 110304, Note_on_c, 0, 67, 80
1, 110304, Note_on_c, 1, 55, 80
1, 110304, Note_on_c, 1, 50, 80
1, 110304, Note_on_c, 1, 47, 80
1, 110324, Note_on_c, 0, 77, 0
1, 110324, Note_on_c, 0, 74, 0
1, 110324, Note_on_c, 0, 67, 0
1, 110324, Note_on_c, 1, 55, 0
1, 110324, Note_on_c, 1, 50, 0
1, 110324, Note_on_c, 1, 47, 0
1, 110352, Note_on_c, 0, 76, 80
1, 110352, Note_on_c, 0, 72, 80
1, 110352, Note_on_c, 0, 67, 80
1, 110352, Note_on_c, 1, 55, 80
1, 110352, Note_on_c, 1, 52, 80
1, 110352, Note_on_c, 1, 48, 80
1, 110372, Note_on_c, 0, 76, 0
1, 110372, Note_on_c, 0, 72, 0
1, 110372, Note_on_c, 0, 67, 0
1, 110372, Note_on_c, 1, 55, 0
1, 110372, Note_on_c, 1, 52, 0
1, 110372, Note_on_c, 1, 48, 0
1, 110400, Note_on_c, 0, 81, 80
1, 110400, Note_on_c, 0, 77, 80
1, 110400, Note_on_c, 0, 69, 80
1, 110400, Note_on_c, 1, 53, 80
1, 110400, Note_on_c, 1, 41, 80
1, 110420, Note_on_c, 0, 81, 0
1, 110420, Note_on_c, 0, 77, 0
1, 110420, Note_on_c, 0, 69, 0
1, 110445, Note_on_c, 1, 53, 0
1, 110445, Note_on_c, 1, 41, 0
1, 110496, Note_on_c, 0, 62, 64
1, 110530, Note_on_c, 0, 62, 0
1, 110532, Note_on_c, 0, 64, 64
1, 110544, Note_on_c, 0, 64, 0
1, 110544, Note_on_c, 0, 65, 64
1, 110544, Note_on_c, 1, 55, 64
1, 110544, Note_on_c, 1, 47, 64
1, 110578, Note_on_c, 0, 65, 0
1, 110580, Note_on_c, 0, 67, 64
1, 110589, Note_on_c, 1, 55, 0
1, 110589, Note_on_c, 1, 47, 0
1, 110592, Note_on_c, 0, 67, 0
1, 110592, Note_on_c, 0, 67, 64
1, 110592, Note_on_c, 0, 64, 64
1, 110592, Note_on_c, 1, 60, 64
1, 110637, Note_on_c, 0, 67, 0
1, 110637, Note_on_c, 0, 64, 0
1, 110637, Note_on_c, 1, 60, 0
1, 110640, Note_on_c, 0, 76, 80
1, 110640, Note_on_c, 0, 72, 80
1, 110640, Note_on_c, 0, 67, 80
1, 110640, Note_on_c, 1, 55, 80
1, 110640, Note_on_c, 1, 52, 80
1, 110640, Note_on_c, 1, 48, 80
1, 110660, Note_on_c, 0, 76, 0
1, 110660, Note_on_c, 0, 72, 0
1, 110660, Note_on_c, 0, 67, 0
1, 110660, Note_on_c, 1, 55, 0
1, 110660, Note_on_c, 1, 52, 0
1, 110660, Note_on_c, 1, 48, 0
1, 110688, Note_on_c, 0, 77, 80
1, 110688, Note_on_c, 0, 74, 80
1, 110688, Note_on_c, 0, 67, 80
1, 110688, Note_on_c, 1, 55, 80
1, 110688, Note_on_c, 1, 50, 80
1, 110688, Note_on_c, 1, 47, 80
1, 110708, Note_on_c, 0, 77, 0
1, 110708, Note_on_c, 0, 74, 0
1, 110708, Note_on_c, 0, 67, 0
1, 110708, Note_on_c, 1, 55, 0
1, 110708, Note_on_c, 1, 50, 0
1, 110708, Note_on_c, 1, 47, 0
1, 110736, Note_on_c, 0, 76, 80
1, 110736, Note_on_c, 0, 72, 80
1, 110736, Note_on_c, 0, 67, 80
1, 110736, Note_on_c, 1, 55, 80
1, 110736, Note_on_c, 1, 52, 80
1, 110736, Note_on_c, 1, 48, 80
1, 110756, Note_on_c, 0, 76, 0
1, 110756, Note_on_c, 0, 72, 0
1, 110756, Note_on_c, 0, 67, 0
1, 110756, Note_on_c, 1, 55, 0
1, 110756, Note_on_c, 1, 52, 0
1, 110756, Note_on_c, 1, 48, 0
1, 110784, Note_on_c, 0, 81, 80
1, 110784, Note_on_c, 0, 77, 80
1, 110784, Note_on_c, 0, 69, 80
1, 110784, Note_on_c, 1, 53, 80
1, 110784, Note_on_c, 1, 41, 80
1, 110804, Note_on_c, 0, 81, 0
1, 110804, Note_on_c, 0, 77, 0
1, 110804, Note_on_c, 0, 69, 0
1, 110829, Note_on_c, 1, 53, 0
1, 110829, Note_on_c, 1, 41, 0
1, 110880, Note_on_c, 0, 59, 64
1, 110895, Note_on_c, 0, 59, 0
1, 110896, Note_on_c, 0, 62, 64
1, 110911, Note_on_c, 0, 62, 0
1, 110912, Note_on_c, 0, 65, 64
1, 110927, Note_on_c, 0, 65, 0
1, 110928, Note_on_c, 0, 69, 64
1, 110928, Note_on_c, 1, 55, 64
1, 110928, Note_on_c, 1, 47, 64
1, 110943, Note_on_c, 0, 69, 0
1, 110944, Note_on_c, 0, 67, 64
1, 110959, Note_on_c, 0, 67, 0
1, 110960, Note_on_c, 0, 65, 64
1, 110973, Note_on_c, 1, 55, 0
1, 110973, Note_on_c, 1, 47, 0
1, 110975, Note_on_c, 0, 65, 0
1, 110976, Note_on_c, 0, 64, 64
1, 110976, Note_on_c, 1, 48, 64
1, 110996, Note_on_c, 0, 64, 0
1, 110996, Note_on_c, 1, 48, 0
1, 111024, Note_on_c, 0, 67, 80
1, 111024, Note_on_c, 1, 48, 80
1, 111039, Note_on_c, 0, 67, 0
1, 111039, Note_on_c, 1, 48, 0
1, 111040, Note_on_c, 0, 72, 80
1, 111040, Note_on_c, 1, 52, 80
1, 111055, Note_on_c, 0, 72, 0
1, 111055, Note_on_c, 1, 52, 0
1, 111056, Note_on_c, 0, 76, 80
1, 111056, Note_on_c, 1, 55, 80
1, 111071, Note_on_c, 0, 76, 0
1, 111071, Note_on_c, 1, 55, 0
1, 111072, Note_on_c, 0, 67, 80
1, 111072, Note_on_c, 1, 47, 80
1, 111087, Note_on_c, 0, 67, 0
1, 111087, Note_on_c, 1, 47, 0
1, 111088, Note_on_c, 0, 74, 80
1, 111088, Note_on_c, 1, 50, 80
1, 111103, Note_on_c, 0, 74, 0
1, 111103, Note_on_c, 1, 50, 0
1, 111104, Note_on_c, 0, 77, 80
1, 111104, Note_on_c, 1, 55, 80
1, 111119, Note_on_c, 0, 77, 0
1, 111119, Note_on_c, 1, 55, 0
1, 111120, Note_on_c, 0, 67, 80
1, 111120, Note_on_c, 1, 48, 80
1, 111135, Note_on_c, 0, 67, 0
1, 111135, Note_on_c, 1, 48, 0
1, 111136, Note_on_c, 0, 72, 80
1, 111136, Note_on_c, 1, 52, 80
1, 111151, Note_on_c, 0, 72, 0
1, 111151, Note_on_c, 1, 52, 0
1, 111152, Note_on_c, 0, 76, 80
1, 111152, Note_on_c, 1, 55, 80
1, 111167, Note_on_c, 0, 76, 0
1, 111167, Note_on_c, 1, 55, 0
1, 111168, Note_on_c, 0, 69, 80
1, 111168, Note_on_c, 1, 41, 80
1, 111183, Note_on_c, 0, 69, 0
1, 111184, Note_on_c, 0, 81, 80
1, 111199, Note_on_c, 0, 81, 0
1, 111200, Note_on_c, 0, 79, 80
1, 111213, Note_on_c, 1, 41, 0
1, 111215, Note_on_c, 0, 79, 0
1, 111216, Note_on_c, 0, 77, 80
1, 111231, Note_on_c, 0, 77, 0
1, 111232, Note_on_c, 0, 76, 80
1, 111247, Note_on_c, 0, 76, 0
1, 111248, Note_on_c, 0, 74, 80
1, 111263, Note_on_c, 0, 74, 0
1, 111264, Note_on_c, 0, 73, 80
1, 111264, Note_on_c, 1, 57, 80
1, 111264, Note_on_c, 1, 53, 80
1, 111279, Note_on_c, 0, 73, 0
1, 111280, Note_on_c, 0, 74, 80
1, 111284, Note_on_c, 1, 57, 0
1, 111284, Note_on_c, 1, 53, 0
1, 111295, Note_on_c, 0, 74, 0
1, 111296, Note_on_c, 0, 81, 80
1, 111311, Note_on_c, 0, 81, 0
1, 111312, Note_on_c, 0, 79, 80
1, 111327, Note_on_c, 0, 79, 0
1, 111328, Note_on_c, 0, 77, 80
1, 111343, Note_on_c, 0, 77, 0
1, 111344, Note_on_c, 0, 76, 80
1, 111359, Note_on_c, 0, 76, 0
1, 111360, Note_on_c, 0, 74, 80
1, 111360, Note_on_c, 1, 57, 80
1, 111360, Note_on_c, 1, 53, 80
1, 111375, Note_on_c, 0, 74, 0
1, 111376, Note_on_c, 0, 73, 79
1, 111380, Note_on_c, 1, 57, 0
1, 111380, Note_on_c, 1, 53, 0
1, 111391, Note_on_c, 0, 73, 0
1, 111392, Note_on_c, 0, 81, 79
1, 111407, Note_on_c, 0, 81, 0
1, 111408, Note_on_c, 0, 79, 79
1, 111423, Note_on_c, 0, 79, 0
1, 111424, Note_on_c, 0, 77, 79
1, 111439, Note_on_c, 0, 77, 0
1, 111440, Note_on_c, 0, 76, 79
1, 111455, Note_on_c, 0, 76, 0
1, 111456, Note_on_c, 0, 74, 79
1, 111456, Note_on_c, 1, 57, 78
1, 111456, Note_on_c, 1, 53, 78
1, 111471, Note_on_c, 0, 74, 0
1, 111472, Note_on_c, 0, 73, 78
1, 111476, Note_on_c, 1, 57, 0
1, 111476, Note_on_c, 1, 53, 0
1, 111487, Note_on_c, 0, 73, 0
1, 111488, Note_on_c, 0, 81, 78
1, 111503, Note_on_c, 0, 81, 0
1, 111504, Note_on_c, 0, 79, 78
1, 111519, Note_on_c, 0, 79, 0
1, 111520, Note_on_c, 0, 77, 78
1, 111535, Note_on_c, 0, 77, 0
1, 111536, Note_on_c, 0, 76, 78
1, 111551, Note_on_c, 0, 76, 0
1, 111552, Note_on_c, 0, 74, 78
1, 111552, Note_on_c, 1, 57, 77
1, 111552, Note_on_c, 1, 53, 77
1, 111567, Note_on_c, 0, 74, 0
1, 111568, Note_on_c, 0, 73, 77
1, 111572, Note_on_c, 1, 57, 0
1, 111572, Note_on_c, 1, 53, 0
1, 111583, Note_on_c, 0, 73, 0
1, 111584, Note_on_c, 0, 81, 77
1, 111599, Note_on_c, 0, 81, 0
1, 111600, Note_on_c, 0, 79, 77
1, 111615, Note_on_c, 0, 79, 0
1, 111616, Note_on_c, 0, 77, 77
1, 111631, Note_on_c, 0, 77, 0
1, 111632, Note_on_c, 0, 76, 77
1, 111647, Note_on_c, 0, 76, 0
1, 111648, Note_on_c, 0, 74, 77
1, 111648, Note_on_c, 1, 57, 76
1, 111648, Note_on_c, 1, 53, 76
1, 111663, Note_on_c, 0, 74, 0
1, 111664, Note_on_c, 0, 81, 77
1, 111668, Note_on_c, 1, 57, 0
1, 111668, Note_on_c, 1, 53, 0
1, 111679, Note_on_c, 0, 81, 0
1, 111680, Note_on_c, 0, 79, 76
1, 111695, Note_on_c, 0, 79, 0
1, 111696, Note_on_c, 0, 77, 76
1, 111711, Note_on_c, 0, 77, 0
1, 111712, Note_on_c, 0, 76, 76
1, 111727, Note_on_c, 0, 76, 0
1, 111728, Note_on_c, 0, 74, 76
1, 111743, Note_on_c, 0, 74, 0
1, 111744, Note_on_c, 0, 76, 75
1, 111744, Note_on_c, 1, 64, 75
1, 111744, Note_on_c, 1, 60, 75
1, 111744, Note_on_c, 1, 55, 75
1, 111759, Note_on_c, 0, 76, 0
1, 111760, Note_on_c, 0, 79, 75
1, 111775, Note_on_c, 0, 79, 0
1, 111776, Note_on_c, 0, 77, 75
1, 111791, Note_on_c, 0, 77, 0
1, 111792, Note_on_c, 0, 76, 75
1, 111807, Note_on_c, 0, 76, 0
1, 111808, Note_on_c, 0, 74, 76
1, 111823, Note_on_c, 0, 74, 0
1, 111824, Note_on_c, 0, 72, 76
1, 111838, Note_on_c, 1, 64, 0
1, 111838, Note_on_c, 1, 60, 0
1, 111838, Note_on_c, 1, 55, 0
1, 111839, Note_on_c, 0, 72, 0
1, 111840, Note_on_c, 0, 71, 76
1, 111855, Note_on_c, 0, 71, 0
1, 111856, Note_on_c, 0, 69, 77
1, 111871, Note_on_c, 0, 69, 0
1, 111872, Note_on_c, 0, 67, 77
1, 111887, Note_on_c, 0, 67, 0
1, 111888, Note_on_c, 0, 79, 77
1, 111903, Note_on_c, 0, 79, 0
1, 111904, Note_on_c, 0, 76, 77
1, 111919, Note_on_c, 0, 76, 0
1, 111920, Note_on_c, 0, 72, 78
1, 111935, Note_on_c, 0, 72, 0
1, 111936, Note_on_c, 0, 76, 78
1, 111936, Note_on_c, 1, 55, 80
1, 111947, Note_on_c, 1, 59, 80
1, 111948, Note_on_c, 0, 76, 0
1, 111948, Note_on_c, 0, 74, 80
1, 111958, Note_on_c, 1, 62, 80
1, 111960, Note_on_c, 0, 74, 0
1, 111960, Note_on_c, 0, 76, 80
1, 111969, Note_on_c, 1, 65, 80
1, 111972, Note_on_c, 0, 76, 0
1, 111972, Note_on_c, 0, 74, 80
1, 111984, Note_on_c, 0, 74, 0
1, 111984, Note_on_c, 0, 76, 80
1, 111996, Note_on_c, 0, 76, 0
1, 111996, Note_on_c, 0, 74, 80
1, 112008, Note_on_c, 0, 74, 0
1, 112008, Note_on_c, 0, 76, 80
1, 112020, Note_on_c, 0, 76, 0
1, 112020, Note_on_c, 0, 74, 80
1, 112032, Note_on_c, 0, 74, 0
1, 112032, Note_on_c, 0, 76, 80
1, 112044, Note_on_c, 0, 76, 0
1, 112044, Note_on_c, 0, 74, 80
1, 112056, Note_on_c, 0, 74, 0
1, 112056, Note_on_c, 0, 76, 80
1, 112068, Note_on_c, 0, 76, 0
1, 112068, Note_on_c, 0, 74, 80
1, 112080, Note_on_c, 0, 74, 0
1, 112080, Note_on_c, 0, 76, 80
1, 112092, Note_on_c, 0, 76, 0
1, 112092, Note_on_c, 0, 74, 80
1, 112104, Note_on_c, 0, 74, 0
1, 112104, Note_on_c, 0, 72, 80
1, 112116, Note_on_c, 0, 72, 0
1, 112116, Note_on_c, 0, 74, 80
1, 112126, Note_on_c, 1, 65, 0
1, 112126, Note_on_c, 1, 62, 0
1, 112126, Note_on_c, 1, 59, 0
1, 112126, Note_on_c, 1, 55, 0
1, 112128, Note_on_c, 0, 74, 0
1, 112128, Note_on_c, 0, 72, 80
1, 112128, Note_on_c, 1, 64, 64
1, 112128, Note_on_c, 1, 60, 70
1, 112148, Note_on_c, 0, 72, 0
1, 112151, Note_on_c, 1, 64, 0
1, 112152, Note_on_c, 1, 67, 64
1, 112173, Note_on_c, 1, 60, 0
1, 112175, Note_on_c, 1, 67, 0
1, 112176, Note_on_c, 0, 79, 80
1, 112176, Note_on_c, 1, 64, 64
1, 112176, Note_on_c, 1, 60, 70
1, 112196, Note_on_c, 0, 79, 0
1, 112199, Note_on_c, 1, 64, 0
1, 112200, Note_on_c, 1, 67, 64
1, 112221, Note_on_c, 1, 60, 0
1, 112223, Note_on_c, 1, 67, 0
1, 112224, Note_on_c, 1, 64, 64
1, 112224, Note_on_c, 1, 60, 70
1, 112247, Note_on_c, 1, 64, 0
1, 112248, Note_on_c, 1, 67, 64
1, 112269, Note_on_c, 1, 60, 0
1, 112271, Note_on_c, 1, 67, 0
1, 112272, Note_on_c, 0, 84, 80
1, 112272, Note_on_c, 1, 64, 64
1, 112272, Note_on_c, 1, 60, 70
1, 112292, Note_on_c, 0, 84, 0
1, 112295, Note_on_c, 1, 64, 0
1, 112296, Note_on_c, 1, 67, 64
1, 112317, Note_on_c, 1, 60, 0
1, 112319, Note_on_c, 1, 67, 0
1, 112320, Note_on_c, 1, 64, 64
1, 112320, Note_on_c, 1, 60, 70
1, 112343, Note_on_c, 1, 64, 0
1, 112344, Note_on_c, 1, 67, 64
1, 112365, Note_on_c, 1, 60, 0
1, 112367, Note_on_c, 1, 67, 0
1, 112368, Note_on_c, 0, 79, 80
1, 112368, Note_on_c, 1, 64, 64
1, 112368, Note_on_c, 1, 60, 70
1, 112391, Note_on_c, 0, 79, 0
1, 112391, Note_on_c, 1, 64, 0
1, 112392, Note_on_c, 0, 88, 80
1, 112392, Note_on_c, 1, 67, 64
1, 112413, Note_on_c, 1, 60, 0
1, 112415, Note_on_c, 0, 88, 0
1, 112415, Note_on_c, 1, 67, 0
1, 112416, Note_on_c, 0, 86, 80
1, 112416, Note_on_c, 1, 64, 64
1, 112416, Note_on_c, 1, 60, 70
1, 112439, Note_on_c, 0, 86, 0
1, 112439, Note_on_c, 1, 64, 0
1, 112440, Note_on_c, 0, 84, 80
1, 112440, Note_on_c, 1, 67, 64
1, 112461, Note_on_c, 1, 60, 0
1, 112463, Note_on_c, 0, 84, 0
1, 112463, Note_on_c, 1, 67, 0
1, 112464, Note_on_c, 0, 83, 80
1, 112464, Note_on_c, 1, 64, 64
1, 112464, Note_on_c, 1, 60, 70
1, 112487, Note_on_c, 0, 83, 0
1, 112487, Note_on_c, 1, 64, 0
1, 112488, Note_on_c, 0, 81, 80
1, 112488, Note_on_c, 1, 67, 64
1, 112509, Note_on_c, 1, 60, 0
1, 112511, Note_on_c, 0, 81, 0
1, 112511, Note_on_c, 1, 67, 0
1, 112512, Note_on_c, 0, 79, 96
1, 112512, Note_on_c, 1, 65, 64
1, 112512, Note_on_c, 1, 62, 70
1, 112512, Note_on_c, 1, 59, 70
1, 112535, Note_on_c, 1, 65, 0
1, 112536, Note_on_c, 1, 67, 64
1, 112557, Note_on_c, 1, 62, 0
1, 112557, Note_on_c, 1, 59, 0
1, 112559, Note_on_c, 1, 67, 0
1, 112560, Note_on_c, 1, 65, 64
1, 112560, Note_on_c, 1, 62, 70
1, 112560, Note_on_c, 1, 59, 70
1, 112583, Note_on_c, 1, 65, 0
1, 112584, Note_on_c, 1, 67, 64
1, 112605, Note_on_c, 1, 62, 0
1, 112605, Note_on_c, 1, 59, 0
1, 112607, Note_on_c, 1, 67, 0
1, 112608, Note_on_c, 1, 65, 64
1, 112608, Note_on_c, 1, 62, 70
1, 112608, Note_on_c, 1, 59, 70
1, 112631, Note_on_c, 0, 79, 0
1, 112631, Note_on_c, 1, 65, 0
1, 112632, Note_on_c, 0, 80, 80
1, 112632, Note_on_c, 1, 67, 64
1, 112653, Note_on_c, 1, 62, 0
1, 112653, Note_on_c, 1, 59, 0
1, 112655, Note_on_c, 0, 80, 0
1, 112655, Note_on_c, 1, 67, 0
1, 112656, Note_on_c, 0, 81, 80
1, 112656, Note_on_c, 1, 65, 64
1, 112656, Note_on_c, 1, 62, 70
1, 112656, Note_on_c, 1, 59, 70
1, 112679, Note_on_c, 0, 81, 0
1, 112679, Note_on_c, 1, 65, 0
1, 112680, Note_on_c, 0, 82, 80
1, 112680, Note_on_c, 1, 67, 64
1, 112701, Note_on_c, 1, 62, 0
1, 112701, Note_on_c, 1, 59, 0
1, 112703, Note_on_c, 0, 82, 0
1, 112703, Note_on_c, 1, 67, 0
1, 112704, Note_on_c, 0, 83, 80
1, 112704, Note_on_c, 1, 65, 64
1, 112704, Note_on_c, 1, 62, 70
1, 112704, Note_on_c, 1, 59, 70
1, 112727, Note_on_c, 0, 83, 0
1, 112727, Note_on_c, 1, 65, 0
1, 112728, Note_on_c, 0, 84, 82
1, 112728, Note_on_c, 1, 67, 64
1, 112749, Note_on_c, 1, 62, 0
1, 112749, Note_on_c, 1, 59, 0
1, 112751, Note_on_c, 0, 84, 0
1, 112751, Note_on_c, 1, 67, 0
1, 112752, Note_on_c, 0, 85, 84
1, 112752, Note_on_c, 1, 65, 64
1, 112752, Note_on_c, 1, 62, 70
1, 112752, Note_on_c, 1, 59, 70
1, 112775, Note_on_c, 0, 85, 0
1, 112775, Note_on_c, 1, 65, 0
1, 112776, Note_on_c, 0, 86, 86
1, 112776, Note_on_c, 1, 67, 64
1, 112797, Note_on_c, 1, 62, 0
1, 112797, Note_on_c, 1, 59, 0
1, 112799, Note_on_c, 0, 86, 0
1, 112799, Note_on_c, 1, 67, 0
1, 112800, Note_on_c, 0, 88, 84
1, 112800, Note_on_c, 1, 65, 64
1, 112800, Note_on_c, 1, 62, 70
1, 112800, Note_on_c, 1, 59, 70
1, 112823, Note_on_c, 0, 88, 0
1, 112823, Note_on_c, 1, 65, 0
1, 112824, Note_on_c, 0, 86, 83
1, 112824, Note_on_c, 1, 67, 64
1, 112845, Note_on_c, 1, 62, 0
1, 112845, Note_on_c, 1, 59, 0
1, 112847, Note_on_c, 0, 86, 0
1, 112847, Note_on_c, 1, 67, 0
1, 112848, Note_on_c, 0, 83, 81
1, 112848, Note_on_c, 1, 65, 64
1, 112848, Note_on_c, 1, 62, 70
1, 112848, Note_on_c, 1, 59, 70
1, 112871, Note_on_c, 0, 83, 0
1, 112871, Note_on_c, 1, 65, 0
1, 112872, Note_on_c, 0, 77, 80
1, 112872, Note_on_c, 1, 67, 64
1, 112893, Note_on_c, 1, 62, 0
1, 112893, Note_on_c, 1, 59, 0
1, 112895, Note_on_c, 0, 77, 0
1, 112895, Note_on_c, 1, 67, 0
1, 112896, Note_on_c, 0, 76, 75
1, 112896, Note_on_c, 1, 64, 64
1, 112896, Note_on_c, 1, 60, 70
1, 112916, Note_on_c, 0, 76, 0
1, 112919, Note_on_c, 1, 64, 0
1, 112920, Note_on_c, 1, 67, 64
1, 112941, Note_on_c, 1, 60, 0
1, 112943, Note_on_c, 1, 67, 0
1, 112944, Note_on_c, 0, 79, 75
1, 112944, Note_on_c, 1, 64, 64
1, 112944, Note_on_c, 1, 60, 70
1, 112964, Note_on_c, 0, 79, 0
1, 112967, Note_on_c, 1, 64, 0
1, 112968, Note_on_c, 1, 67, 64
1, 112989, Note_on_c, 1, 60, 0
1, 112991, Note_on_c, 1, 67, 0
1, 112992, Note_on_c, 1, 64, 64
1, 112992, Note_on_c, 1, 60, 70
1, 113015, Note_on_c, 1, 64, 0
1, 113016, Note_on_c, 1, 67, 64
1, 113037, Note_on_c, 1, 60, 0
1, 113039, Note_on_c, 1, 67, 0
1, 113040, Note_on_c, 0, 84, 75
1, 113040, Note_on_c, 1, 64, 64
1, 113040, Note_on_c, 1, 60, 70
1, 113052, Note_on_c, 0, 84, 0
1, 113052, Note_on_c, 0, 86, 75
1, 113063, Note_on_c, 1, 64, 0
1, 113064, Note_on_c, 0, 86, 0
1, 113064, Note_on_c, 0, 84, 75
1, 113064, Note_on_c, 1, 67, 64
1, 113076, Note_on_c, 0, 84, 0
1, 113076, Note_on_c, 0, 86, 75
1, 113085, Note_on_c, 0, 86, 0
1, 113085, Note_on_c, 1, 60, 0
1, 113087, Note_on_c, 1, 67, 0
1, 113088, Note_on_c, 1, 64, 64
1, 113088, Note_on_c, 1, 60, 70
1, 113111, Note_on_c, 1, 64, 0
1, 113112, Note_on_c, 1, 67, 64
1, 113133, Note_on_c, 1, 60, 0
1, 113135, Note_on_c, 1, 67, 0
1, 113136, Note_on_c, 0, 79, 75
1, 113136, Note_on_c, 1, 64, 64
1, 113136, Note_on_c, 1, 60, 70
1, 113159, Note_on_c, 0, 79, 0
1, 113159, Note_on_c, 1, 64, 0
1, 113160, Note_on_c, 0, 88, 75
1, 113160, Note_on_c, 1, 67, 64
1, 113181, Note_on_c, 1, 60, 0
1, 113183, Note_on_c, 0, 88, 0
1, 113183, Note_on_c, 1, 67, 0
1, 113184, Note_on_c, 0, 86, 75
1, 113184, Note_on_c, 1, 64, 64
1, 113184, Note_on_c, 1, 60, 70
1, 113207, Note_on_c, 0, 86, 0
1, 113207, Note_on_c, 1, 64, 0
1, 113208, Note_on_c, 0, 84, 75
1, 113208, Note_on_c, 1, 67, 64
1, 113229, Note_on_c, 1, 60, 0
1, 113231, Note_on_c, 0, 84, 0
1, 113231, Note_on_c, 1, 67, 0
1, 113232, Note_on_c, 0, 83, 75
1, 113232, Note_on_c, 1, 64, 64
1, 113232, Note_on_c, 1, 60, 70
1, 113255, Note_on_c, 0, 83, 0
1, 113255, Note_on_c, 1, 64, 0
1, 113256, Note_on_c, 0, 81, 75
1, 113256, Note_on_c, 1, 67, 64
1, 113277, Note_on_c, 1, 60, 0
1, 113279, Note_on_c, 0, 81, 0
1, 113279, Note_on_c, 1, 67, 0
1, 113280, Note_on_c, 0, 79, 91
1, 113280, Note_on_c, 1, 65, 64
1, 113280, Note_on_c, 1, 62, 70
1, 113280, Note_on_c, 1, 59, 70
1, 113303, Note_on_c, 1, 65, 0
1, 113304, Note_on_c, 1, 67, 64
1, 113325, Note_on_c, 1, 62, 0
1, 113325, Note_on_c, 1, 59, 0
1, 113327, Note_on_c, 1, 67, 0
1, 113328, Note_on_c, 1, 65, 64
1, 113328, Note_on_c, 1, 62, 70
1, 113328, Note_on_c, 1, 59, 70
1, 113351, Note_on_c, 1, 65, 0
1, 113352, Note_on_c, 1, 67, 64
1, 113373, Note_on_c, 1, 62, 0
1, 113373, Note_on_c, 1, 59, 0
1, 113375, Note_on_c, 1, 67, 0
1, 113376, Note_on_c, 1, 65, 64
1, 113376, Note_on_c, 1, 62, 70
1, 113376, Note_on_c, 1, 59, 70
1, 113399, Note_on_c, 0, 79, 0
1, 113399, Note_on_c, 1, 65, 0
1, 113400, Note_on_c, 0, 80, 75
1, 113400, Note_on_c, 1, 67, 64
1, 113421, Note_on_c, 1, 62, 0
1, 113421, Note_on_c, 1, 59, 0
1, 113423, Note_on_c, 0, 80, 0
1, 113423, Note_on_c, 1, 67, 0
1, 113424, Note_on_c, 0, 81, 75
1, 113424, Note_on_c, 1, 65, 64
1, 113424, Note_on_c, 1, 62, 70
1, 113424, Note_on_c, 1, 59, 70
1, 113447, Note_on_c, 0, 81, 0
1, 113447, Note_on_c, 1, 65, 0
1, 113448, Note_on_c, 0, 82, 75
1, 113448, Note_on_c, 1, 67, 64
1, 113469, Note_on_c, 1, 62, 0
1, 113469, Note_on_c, 1, 59, 0
1, 113471, Note_on_c, 0, 82, 0
1, 113471, Note_on_c, 1, 67, 0
1, 113472, Note_on_c, 0, 83, 75
1, 113472, Note_on_c, 1, 65, 64
1, 113472, Note_on_c, 1, 62, 70
1, 113472, Note_on_c, 1, 59, 70
1, 113495, Note_on_c, 0, 83, 0
1, 113495, Note_on_c, 1, 65, 0
1, 113496, Note_on_c, 0, 84, 76
1, 113496, Note_on_c, 1, 67, 64
1, 113517, Note_on_c, 1, 62, 0
1, 113517, Note_on_c, 1, 59, 0
1, 113519, Note_on_c, 0, 84, 0
1, 113519, Note_on_c, 1, 67, 0
1, 113520, Note_on_c, 0, 85, 77
1, 113520, Note_on_c, 1, 65, 64
1, 113520, Note_on_c, 1, 62, 70
1, 113520, Note_on_c, 1, 59, 70
1, 113543, Note_on_c, 0, 85, 0
1, 113543, Note_on_c, 1, 65, 0
1, 113544, Note_on_c, 0, 86, 78
1, 113544, Note_on_c, 1, 67, 64
1, 113565, Note_on_c, 1, 62, 0
1, 113565, Note_on_c, 1, 59, 0
1, 113567, Note_on_c, 0, 86, 0
1, 113567, Note_on_c, 1, 67, 0
1, 113568, Note_on_c, 0, 88, 80
1, 113568, Note_on_c, 1, 65, 64
1, 113568, Note_on_c, 1, 62, 70
1, 113568, Note_on_c, 1, 59, 70
1, 113591, Note_on_c, 0, 88, 0
1, 113591, Note_on_c, 1, 65, 0
1, 113592, Note_on_c, 0, 86, 78
1, 113592, Note_on_c, 1, 67, 64
1, 113613, Note_on_c, 1, 62, 0
1, 113613, Note_on_c, 1, 59, 0
1, 113615, Note_on_c, 0, 86, 0
1, 113615, Note_on_c, 1, 67, 0
1, 113616, Note_on_c, 0, 83, 77
1, 113616, Note_on_c, 1, 65, 64
1, 113616, Note_on_c, 1, 62, 70
1, 113616, Note_on_c, 1, 59, 70
1, 113639, Note_on_c, 0, 83, 0
1, 113639, Note_on_c, 1, 65, 0
1, 113640, Note_on_c, 0, 77, 76
1, 113640, Note_on_c, 1, 67, 64
1, 113661, Note_on_c, 1, 62, 0
1, 113661, Note_on_c, 1, 59, 0
1, 113663, Note_on_c, 0, 77, 0
1, 113663, Note_on_c, 1, 67, 0
1, 113664, Note_on_c, 0, 76, 75
1, 113664, Note_on_c, 1, 64, 64
1, 113664, Note_on_c, 1, 60, 64
1, 113687, Note_on_c, 0, 76, 0
1, 113688, Note_on_c, 0, 77, 75
1, 113711, Note_on_c, 0, 77, 0
1, 113712, Note_on_c, 0, 78, 75
1, 113735, Note_on_c, 0, 78, 0
1, 113736, Note_on_c, 0, 79, 75
1, 113753, Note_on_c, 1, 64, 0
1, 113753, Note_on_c, 1, 60, 0
1, 113759, Note_on_c, 0, 79, 0
1, 113760, Note_on_c, 0, 81, 76
1, 113783, Note_on_c, 0, 81, 0
1, 113784, Note_on_c, 0, 79, 76
1, 113807, Note_on_c, 0, 79, 0
1, 113808, Note_on_c, 0, 76, 76
1, 113831, Note_on_c, 0, 76, 0
1, 113832, Note_on_c, 0, 72, 76
1, 113855, Note_on_c, 0, 72, 0
1, 113856, Note_on_c, 0, 71, 77
1, 113856, Note_on_c, 1, 65, 72
1, 113856, Note_on_c, 1, 62, 72
1, 113856, Note_on_c, 1, 55, 72
1, 113879, Note_on_c, 0, 71, 0
1, 113880, Note_on_c, 0, 72, 77
1, 113903, Note_on_c, 0, 72, 0
1, 113904, Note_on_c, 0, 73, 77
1, 113927, Note_on_c, 0, 73, 0
1, 113928, Note_on_c, 0, 74, 78
1, 113945, Note_on_c, 1, 65, 0
1, 113945, Note_on_c, 1, 62, 0
1, 113945, Note_on_c, 1, 55, 0
1, 113951, Note_on_c, 0, 74, 0
1, 113952, Note_on_c, 0, 76, 78
1, 113975, Note_on_c, 0, 76, 0
1, 113976, Note_on_c, 0, 74, 78
1, 113999, Note_on_c, 0, 74, 0
1, 114000, Note_on_c, 0, 71, 78
1, 114023, Note_on_c, 0, 71, 0
1, 114024, Note_on_c, 0, 67, 79
1, 114047, Note_on_c, 0, 67, 0
1, 114048, Note_on_c, 0, 72, 79
1, 114048, Note_on_c, 1, 64, 80
1, 114048, Note_on_c, 1, 60, 80
1, 114068, Note_on_c, 0, 72, 0
1, 114093, Note_on_c, 1, 64, 0
1, 114093, Note_on_c, 1, 60, 0
1, 114096, Note_on_c, 0, 74, 64
1, 114096, Note_on_c, 0, 71, 64
1, 114119, Note_on_c, 0, 71, 0
1, 114120, Note_on_c, 0, 67, 64
1, 114141, Note_on_c, 0, 74, 0
1, 114143, Note_on_c, 0, 67, 0
1, 114144, Note_on_c, 0, 76, 64
1, 114144, Note_on_c, 0, 72, 64
1, 114167, Note_on_c, 0, 72, 0
1, 114168, Note_on_c, 0, 67, 64
1, 114189, Note_on_c, 0, 76, 0
1, 114191, Note_on_c, 0, 67, 0
1, 114192, Note_on_c, 0, 77, 64
1, 114192, Note_on_c, 0, 74, 64
1, 114215, Note_on_c, 0, 74, 0
1, 114216, Note_on_c, 0, 67, 64
1, 114237, Note_on_c, 0, 77, 0
1, 114239, Note_on_c, 0, 67, 0
1, 114240, Note_on_c, 0, 79, 64
1, 114240, Note_on_c, 0, 76, 64
1, 114285, Note_on_c, 0, 79, 0
1, 114285, Note_on_c, 0, 76, 0
1, 114288, Note_on_c, 0, 74, 80
1, 114288, Note_on_c, 0, 69, 80
1, 114288, Note_on_c, 1, 53, 80
1, 114311, Note_on_c, 0, 69, 0
1, 114312, Note_on_c, 0, 65, 80
1, 114312, Note_on_c, 1, 53, 0
1, 114312, Note_on_c, 1, 50, 80
1, 114333, Note_on_c, 0, 74, 0
1, 114335, Note_on_c, 0, 65, 0
1, 114335, Note_on_c, 1, 50, 0
1, 114336, Note_on_c, 0, 72, 80
1, 114336, Note_on_c, 0, 67, 80
1, 114336, Note_on_c, 1, 55, 80
1, 114356, Note_on_c, 1, 55, 0
1, 114359, Note_on_c, 0, 67, 0
1, 114360, Note_on_c, 0, 64, 80
1, 114381, Note_on_c, 0, 72, 0
1, 114383, Note_on_c, 0, 64, 0
1, 114384, Note_on_c, 0, 71, 80
1, 114384, Note_on_c, 0, 65, 80
1, 114384, Note_on_c, 1, 55, 80
1, 114384, Note_on_c, 1, 43, 80
1, 114404, Note_on_c, 1, 55, 0
1, 114404, Note_on_c, 1, 43, 0
1, 114407, Note_on_c, 0, 65, 0
1, 114408, Note_on_c, 0, 62, 80
1, 114429, Note_on_c, 0, 71, 0
1, 114431, Note_on_c, 0, 62, 0
1, 114432, Note_on_c, 0, 72, 80
1, 114432, Note_on_c, 0, 64, 80
1, 114432, Note_on_c, 1, 48, 80
1, 114432, Note_on_c, 1, 36, 80
1, 114452, Note_on_c, 0, 72, 0
1, 114477, Note_on_c, 0, 64, 0
1, 114477, Note_on_c, 1, 48, 0
1, 114477, Note_on_c, 1, 36, 0
1, 114480, Note_on_c, 0, 74, 64
1, 114480, Note_on_c, 0, 71, 64
1, 114503, Note_on_c, 0, 71, 0
1, 114504, Note_on_c, 0, 67, 64
1, 114525, Note_on_c, 0, 74, 0
1, 114527, Note_on_c, 0, 67, 0
1, 114528, Note_on_c, 0, 76, 64
1, 114528, Note_on_c, 0, 72, 64
1, 114551, Note_on_c, 0, 72, 0
1, 114552, Note_on_c, 0, 67, 64
1, 114573, Note_on_c, 0, 76, 0
1, 114575, Note_on_c, 0, 67, 0
1, 114576, Note_on_c, 0, 77, 64
1, 114576, Note_on_c, 0, 74, 64
1, 114599, Note_on_c, 0, 74, 0
1, 114600, Note_on_c, 0, 67, 64
1, 114621, Note_on_c, 0, 77, 0
1, 114623, Note_on_c, 0, 67, 0
1, 114624, Note_on_c, 0, 79, 64
1, 114624, Note_on_c, 0, 76, 64
1, 114669, Note_on_c, 0, 79, 0
1, 114669, Note_on_c, 0, 76, 0
1, 114672, Note_on_c, 0, 74, 80
1, 114672, Note_on_c, 0, 69, 80
1, 114672, Note_on_c, 1, 53, 80
1, 114695, Note_on_c, 0, 69, 0
1, 114696, Note_on_c, 0, 65, 80
1, 114696, Note_on_c, 1, 53, 0
1, 114696, Note_on_c, 1, 50, 80
1, 114717, Note_on_c, 0, 74, 0
1, 114719, Note_on_c, 0, 65, 0
1, 114719, Note_on_c, 1, 50, 0
1, 114720, Note_on_c, 0, 72, 80
1, 114720, Note_on_c, 0, 67, 80
1, 114720, Note_on_c, 1, 55, 80
1, 114740, Note_on_c, 1, 55, 0
1, 114743, Note_on_c, 0, 67, 0
1, 114744, Note_on_c, 0, 64, 80
1, 114765, Note_on_c, 0, 72, 0
1, 114767, Note_on_c, 0, 64, 0
1, 114768, Note_on_c, 0, 71, 80
1, 114768, Note_on_c, 0, 65, 80
1, 114768, Note_on_c, 1, 55, 80
1, 114768, Note_on_c, 1, 43, 80
1, 114788, Note_on_c, 1, 55, 0
1, 114788, Note_on_c, 1, 43, 0
1, 114791, Note_on_c, 0, 65, 0
1, 114792, Note_on_c, 0, 62, 80
1, 114813, Note_on_c, 0, 71, 0
1, 114815, Note_on_c, 0, 62, 0
1, 114816, Note_on_c, 0, 72, 80
1, 114816, Note_on_c, 0, 64, 80
1, 114816, Note_on_c, 1, 48, 80
1, 114816, Note_on_c, 1, 36, 80
1, 114836, Note_on_c, 0, 72, 0
1, 114836, Note_on_c, 0, 64, 0
1, 114861, Note_on_c, 1, 48, 0
1, 114861, Note_on_c, 1, 36, 0
1, 114912, Note_on_c, 0, 74, 86
1, 114912, Note_on_c, 1, 43, 86
1, 114918, Note_on_c, 1, 47, 86
1, 114920, Note_on_c, 0, 77, 86
1, 114924, Note_on_c, 1, 50, 86
1, 114928, Note_on_c, 0, 83, 86
1, 114930, Note_on_c, 1, 55, 86
1, 114957, Note_on_c, 0, 83, 0
1, 114957, Note_on_c, 0, 77, 0
1, 114957, Note_on_c, 0, 74, 0
1, 114957, Note_on_c, 1, 55, 0
1, 114957, Note_on_c, 1, 50, 0
1, 114957, Note_on_c, 1, 47, 0
1, 114957, Note_on_c, 1, 43, 0
1, 115008, Note_on_c, 0, 72, 86
1, 115008, Note_on_c, 1, 36, 86
1, 115014, Note_on_c, 0, 76, 86
1, 115014, Note_on_c, 1, 40, 86
1, 115020, Note_on_c, 0, 79, 86
1, 115020, Note_on_c, 1, 43, 86
1, 115026, Note_on_c, 0, 84, 86
1, 115026, Note_on_c, 1, 48, 86
1, 115101, Note_on_c, 0, 84, 0
1, 115101, Note_on_c, 0, 79, 0
1, 115101, Note_on_c, 0, 76, 0
1, 115101, Note_on_c, 0, 72, 0
1, 115101, Note_on_c, 1, 48, 0
1, 115101, Note_on_c, 1, 43, 0
1, 115101, Note_on_c, 1, 40, 0
1, 115101, Note_on_c, 1, 36, 0
1, 115200, Note_on_c, 1, 36, 0
1, 115245, Note_on_c, 1, 36, 0
1, 115255, End_track
0, 0, End_of_file