0, 0, Header, 0, 1, 96
1, 0, Start_track
1, 0, Tempo, 545454
1, 0, Note_on_c, 0, 78, 75
1, 0, Note_on_c, 1, 59, 64
1, 23, Note_on_c, 1, 59, 0
1, 24, Note_on_c, 1, 63, 64
1, 39, Note_on_c, 0, 78, 0
1, 47, Note_on_c, 1, 63, 0
1, 48, Note_on_c, 1, 59, 64
1, 71, Note_on_c, 1, 59, 0
1, 72, Note_on_c, 1, 63, 64
1, 95, Note_on_c, 1, 63, 0
1, 96, Note_on_c, 0, 78, 91
1, 96, Note_on_c, 1, 59, 64
1, 119, Note_on_c, 1, 59, 0
1, 120, Note_on_c, 1, 63, 64
1, 143, Note_on_c, 1, 63, 0
1, 144, Note_on_c, 1, 59, 64
1, 167, Note_on_c, 1, 59, 0
1, 168, Note_on_c, 1, 63, 64
1, 191, Note_on_c, 1, 63, 0
1, 192, Note_on_c, 1, 59, 64
1, 215, Note_on_c, 1, 59, 0
1, 216, Note_on_c, 1, 63, 64
1, 239, Note_on_c, 1, 63, 0
1, 240, Note_on_c, 1, 59, 64
1, 263, Note_on_c, 1, 59, 0
1, 264, Note_on_c, 1, 63, 64
1, 287, Note_on_c, 1, 63, 0
1, 288, Note_on_c, 0, 78, 0
1, 288, Note_on_c, 0, 83, 78
1, 288, Note_on_c, 1, 59, 64
1, 311, Note_on_c, 1, 59, 0
1, 312, Note_on_c, 1, 63, 64
1, 335, Note_on_c, 1, 63, 0
1, 336, Note_on_c, 1, 59, 64
1, 359, Note_on_c, 1, 59, 0
1, 360, Note_on_c, 1, 63, 64
1, 377, Note_on_c, 0, 83, 0
1, 383, Note_on_c, 1, 63, 0
1, 384, Note_on_c, 0, 82, 80
1, 384, Note_on_c, 1, 59, 64
1, 407, Note_on_c, 1, 59, 0
1, 408, Note_on_c, 1, 64, 64
1, 431, Note_on_c, 1, 64, 0
1, 432, Note_on_c, 0, 82, 0
1, 432, Note_on_c, 0, 80, 79
1, 432, Note_on_c, 1, 59, 64
1, 455, Note_on_c, 1, 59, 0
1, 456, Note_on_c, 1, 64, 64
1, 477, Note_on_c, 0, 80, 0
1, 479, Note_on_c, 1, 64, 0
1, 480, Note_on_c, 0, 80, 94
1, 480, Note_on_c, 1, 59, 64
1, 503, Note_on_c, 1, 59, 0
1, 504, Note_on_c, 1, 64, 64
1, 527, Note_on_c, 1, 64, 0
1, 528, Note_on_c, 1, 59, 64
1, 551, Note_on_c, 1, 59, 0
1, 552, Note_on_c, 1, 64, 64
1, 575, Note_on_c, 1, 64, 0
1, 576, Note_on_c, 1, 59, 64
1, 599, Note_on_c, 1, 59, 0
1, 600, Note_on_c, 1, 64, 64
1, 623, Note_on_c, 1, 64, 0
1, 624, Note_on_c, 1, 59, 64
1, 647, Note_on_c, 1, 59, 0
1, 648, Note_on_c, 1, 64, 64
1, 671, Note_on_c, 1, 64, 0
1, 672, Note_on_c, 0, 80, 0
1, 672, Note_on_c, 0, 78, 75
1, 672, Note_on_c, 1, 59, 64
1, 695, Note_on_c, 1, 59, 0
1, 696, Note_on_c, 1, 63, 64
1, 719, Note_on_c, 1, 63, 0
1, 720, Note_on_c, 1, 59, 64
1, 743, Note_on_c, 1, 59, 0
1, 744, Note_on_c, 1, 63, 64
1, 761, Note_on_c, 0, 78, 0
1, 767, Note_on_c, 1, 63, 0
1, 768, Note_on_c, 0, 78, 75
1, 768, Note_on_c, 1, 58, 64
1, 780, Note_on_c, 0, 78, 0
1, 780, Note_on_c, 0, 76, 75
1, 791, Note_on_c, 1, 58, 0
1, 792, Note_on_c, 0, 76, 0
1, 792, Note_on_c, 0, 78, 76
1, 792, Note_on_c, 1, 61, 64
1, 804, Note_on_c, 0, 78, 0
1, 804, Note_on_c, 0, 76, 76
1, 815, Note_on_c, 1, 61, 0
1, 816, Note_on_c, 0, 76, 0
1, 816, Note_on_c, 0, 78, 77
1, 816, Note_on_c, 1, 58, 64
1, 828, Note_on_c, 0, 78, 0
1, 828, Note_on_c, 0, 76, 78
1, 839, Note_on_c, 1, 58, 0
1, 840, Note_on_c, 0, 76, 0
1, 840, Note_on_c, 0, 75, 78
1, 840, Note_on_c, 1, 61, 64
1, 852, Note_on_c, 0, 75, 0
1, 852, Note_on_c, 0, 76, 79
1, 863, Note_on_c, 1, 61, 0
1, 864, Note_on_c, 0, 76, 0
1, 864, Note_on_c, 0, 85, 96
1, 864, Note_on_c, 1, 58, 64
1, 887, Note_on_c, 1, 58, 0
1, 888, Note_on_c, 1, 61, 64
1, 911, Note_on_c, 1, 61, 0
1, 912, Note_on_c, 1, 58, 64
1, 935, Note_on_c, 1, 58, 0
1, 936, Note_on_c, 1, 61, 64
1, 959, Note_on_c, 1, 61, 0
1, 960, Note_on_c, 1, 58, 64
1, 983, Note_on_c, 1, 58, 0
1, 984, Note_on_c, 1, 61, 64
1, 1007, Note_on_c, 1, 61, 0
1, 1008, Note_on_c, 1, 58, 64
1, 1031, Note_on_c, 1, 58, 0
1, 1032, Note_on_c, 1, 61, 64
1, 1055, Note_on_c, 1, 61, 0
1, 1056, Note_on_c, 0, 85, 0
1, 1056, Note_on_c, 0, 76, 77
1, 1056, Note_on_c, 1, 58, 64
1, 1079, Note_on_c, 1, 58, 0
1, 1080, Note_on_c, 1, 61, 64
1, 1103, Note_on_c, 1, 61, 0
1, 1104, Note_on_c, 1, 58, 64
1, 1127, Note_on_c, 1, 58, 0
1, 1128, Note_on_c, 1, 61, 64
1, 1145, Note_on_c, 0, 76, 0
1, 1151, Note_on_c, 1, 61, 0
1, 1152, Note_on_c, 0, 74, 76
1, 1152, Note_on_c, 1, 59, 64
1, 1175, Note_on_c, 1, 59, 0
1, 1176, Note_on_c, 1, 63, 64
1, 1199, Note_on_c, 1, 63, 0
1, 1200, Note_on_c, 0, 74, 0
1, 1200, Note_on_c, 0, 75, 75
1, 1200, Note_on_c, 1, 59, 64
1, 1223, Note_on_c, 1, 59, 0
1, 1224, Note_on_c, 1, 63, 64
1, 1245, Note_on_c, 0, 75, 0
1, 1247, Note_on_c, 1, 63, 0
1, 1248, Note_on_c, 0, 75, 91
1, 1248, Note_on_c, 1, 59, 64
1, 1271, Note_on_c, 1, 59, 0
1, 1272, Note_on_c, 1, 63, 64
1, 1295, Note_on_c, 1, 63, 0
1, 1296, Note_on_c, 1, 59, 64
1, 1319, Note_on_c, 1, 59, 0
1, 1320, Note_on_c, 1, 63, 64
1, 1343, Note_on_c, 1, 63, 0
1, 1344, Note_on_c, 1, 59, 64
1, 1367, Note_on_c, 0, 75, 0
1, 1368, Note_on_c, 0, 71, 75
1, 1391, Note_on_c, 0, 71, 0
1, 1392, Note_on_c, 0, 73, 76
1, 1415, Note_on_c, 0, 73, 0
1, 1416, Note_on_c, 0, 75, 76
1, 1433, Note_on_c, 1, 59, 0
1, 1439, Note_on_c, 0, 75, 0
1, 1440, Note_on_c, 0, 76, 77
1, 1463, Note_on_c, 0, 76, 0
1, 1464, Note_on_c, 0, 78, 78
1, 1487, Note_on_c, 0, 78, 0
1, 1488, Note_on_c, 0, 80, 78
1, 1511, Note_on_c, 0, 80, 0
1, 1512, Note_on_c, 0, 82, 79
1, 1535, Note_on_c, 0, 82, 0
1, 1536, Note_on_c, 0, 83, 96
1, 1536, Note_on_c, 1, 63, 64
1, 1536, Note_on_c, 1, 59, 64
1, 1560, Note_on_c, 0, 83, 0
1, 1560, Note_on_c, 0, 71, 75
1, 1583, Note_on_c, 0, 71, 0
1, 1584, Note_on_c, 0, 73, 75
1, 1607, Note_on_c, 0, 73, 0
1, 1608, Note_on_c, 0, 75, 76
1, 1625, Note_on_c, 1, 63, 0
1, 1625, Note_on_c, 1, 59, 0
1, 1631, Note_on_c, 0, 75, 0
1, 1632, Note_on_c, 0, 76, 77
1, 1655, Note_on_c, 0, 76, 0
1, 1656, Note_on_c, 0, 78, 77
1, 1679, Note_on_c, 0, 78, 0
1, 1680, Note_on_c, 0, 80, 78
1, 1703, Note_on_c, 0, 80, 0
1, 1704, Note_on_c, 0, 82, 79
1, 1727, Note_on_c, 0, 82, 0
1, 1728, Note_on_c, 0, 83, 96
1, 1728, Note_on_c, 1, 66, 64
1, 1728, Note_on_c, 1, 63, 64
1, 1728, Note_on_c, 1, 59, 64
1, 1752, Note_on_c, 0, 83, 0
1, 1752, Note_on_c, 0, 71, 75
1, 1775, Note_on_c, 0, 71, 0
1, 1776, Note_on_c, 0, 73, 75
1, 1799, Note_on_c, 0, 73, 0
1, 1800, Note_on_c, 0, 75, 76
1, 1817, Note_on_c, 1, 66, 0
1, 1817, Note_on_c, 1, 63, 0
1, 1817, Note_on_c, 1, 59, 0
1, 1823, Note_on_c, 0, 75, 0
1, 1824, Note_on_c, 0, 76, 76
1, 1847, Note_on_c, 0, 76, 0
1, 1848, Note_on_c, 0, 78, 77
1, 1871, Note_on_c, 0, 78, 0
1, 1872, Note_on_c, 0, 80, 77
1, 1895, Note_on_c, 0, 80, 0
1, 1896, Note_on_c, 0, 82, 78
1, 1919, Note_on_c, 0, 82, 0
1, 1920, Note_on_c, 0, 83, 94
1, 1920, Note_on_c, 1, 59, 64
1, 1940, Note_on_c, 0, 83, 0
1, 1943, Note_on_c, 1, 59, 0
1, 1944, Note_on_c, 1, 63, 64
1, 1967, Note_on_c, 1, 63, 0
1, 1968, Note_on_c, 0, 78, 75
1, 1968, Note_on_c, 1, 59, 64
1, 1988, Note_on_c, 0, 78, 0
1, 1991, Note_on_c, 1, 59, 0
1, 1992, Note_on_c, 1, 63, 64
1, 2015, Note_on_c, 1, 63, 0
1, 2016, Note_on_c, 0, 80, 75
1, 2016, Note_on_c, 1, 59, 64
1, 2028, Note_on_c, 0, 80, 0
1, 2028, Note_on_c, 0, 78, 75
1, 2039, Note_on_c, 1, 59, 0
1, 2040, Note_on_c, 0, 78, 0
1, 2040, Note_on_c, 0, 80, 75
1, 2040, Note_on_c, 1, 63, 64
1, 2052, Note_on_c, 0, 80, 0
1, 2052, Note_on_c, 0, 78, 75
1, 2063, Note_on_c, 1, 63, 0
1, 2064, Note_on_c, 0, 78, 0
1, 2064, Note_on_c, 0, 80, 75
1, 2064, Note_on_c, 1, 59, 64
1, 2076, Note_on_c, 0, 80, 0
1, 2076, Note_on_c, 0, 78, 75
1, 2087, Note_on_c, 1, 59, 0
1, 2088, Note_on_c, 0, 78, 0
1, 2088, Note_on_c, 0, 76, 75
1, 2088, Note_on_c, 1, 63, 64
1, 2100, Note_on_c, 0, 76, 0
1, 2100, Note_on_c, 0, 78, 75
1, 2111, Note_on_c, 1, 63, 0
1, 2112, Note_on_c, 0, 78, 0
1, 2112, Note_on_c, 0, 83, 75
1, 2112, Note_on_c, 1, 59, 64
1, 2132, Note_on_c, 0, 83, 0
1, 2135, Note_on_c, 1, 59, 0
1, 2136, Note_on_c, 1, 64, 64
1, 2159, Note_on_c, 1, 64, 0
1, 2160, Note_on_c, 0, 80, 75
1, 2160, Note_on_c, 1, 59, 64
1, 2180, Note_on_c, 0, 80, 0
1, 2183, Note_on_c, 1, 59, 0
1, 2184, Note_on_c, 1, 64, 64
1, 2207, Note_on_c, 1, 64, 0
1, 2208, Note_on_c, 0, 82, 75
1, 2208, Note_on_c, 1, 59, 64
1, 2220, Note_on_c, 0, 82, 0
1, 2220, Note_on_c, 0, 80, 75
1, 2231, Note_on_c, 1, 59, 0
1, 2232, Note_on_c, 0, 80, 0
1, 2232, Note_on_c, 0, 82, 75
1, 2232, Note_on_c, 1, 64, 64
1, 2244, Note_on_c, 0, 82, 0
1, 2244, Note_on_c, 0, 80, 75
1, 2255, Note_on_c, 1, 64, 0
1, 2256, Note_on_c, 0, 80, 0
1, 2256, Note_on_c, 0, 82, 75
1, 2256, Note_on_c, 1, 59, 64
1, 2268, Note_on_c, 0, 82, 0
1, 2268, Note_on_c, 0, 80, 75
1, 2279, Note_on_c, 1, 59, 0
1, 2280, Note_on_c, 0, 80, 0
1, 2280, Note_on_c, 0, 78, 75
1, 2280, Note_on_c, 1, 64, 64
1, 2292, Note_on_c, 0, 78, 0
1, 2292, Note_on_c, 0, 80, 75
1, 2303, Note_on_c, 1, 64, 0
1, 2304, Note_on_c, 0, 80, 0
1, 2304, Note_on_c, 0, 83, 75
1, 2304, Note_on_c, 1, 63, 64
1, 2304, Note_on_c, 1, 59, 64
1, 2352, Note_on_c, 0, 83, 0
1, 2352, Note_on_c, 0, 78, 75
1, 2393, Note_on_c, 1, 63, 0
1, 2393, Note_on_c, 1, 59, 0
1, 2397, Note_on_c, 0, 78, 0
1, 2400, Note_on_c, 0, 83, 76
1, 2448, Note_on_c, 0, 83, 0
1, 2448, Note_on_c, 0, 76, 93
1, 2448, Note_on_c, 1, 61, 64
1, 2448, Note_on_c, 1, 59, 64
1, 2496, Note_on_c, 0, 76, 0
1, 2496, Note_on_c, 0, 83, 77
1, 2537, Note_on_c, 1, 61, 0
1, 2537, Note_on_c, 1, 59, 0
1, 2544, Note_on_c, 0, 83, 0
1, 2544, Note_on_c, 0, 75, 94
1, 2544, Note_on_c, 1, 59, 64
1, 2544, Note_on_c, 1, 56, 64
1, 2592, Note_on_c, 0, 75, 0
1, 2592, Note_on_c, 0, 83, 79
1, 2633, Note_on_c, 1, 59, 0
1, 2633, Note_on_c, 1, 56, 0
1, 2640, Note_on_c, 0, 83, 0
1, 2640, Note_on_c, 0, 75, 80
1, 2640, Note_on_c, 0, 71, 80
1, 2640, Note_on_c, 1, 51, 64
1, 2660, Note_on_c, 0, 75, 0
1, 2660, Note_on_c, 0, 71, 0
1, 2663, Note_on_c, 1, 51, 0
1, 2664, Note_on_c, 1, 52, 64
1, 2687, Note_on_c, 1, 52, 0
1, 2688, Note_on_c, 0, 75, 96
1, 2688, Note_on_c, 0, 71, 96
1, 2688, Note_on_c, 1, 54, 64
1, 2711, Note_on_c, 1, 54, 0
1, 2712, Note_on_c, 1, 53, 64
1, 2735, Note_on_c, 1, 53, 0
1, 2736, Note_on_c, 1, 54, 64
1, 2759, Note_on_c, 1, 54, 0
1, 2760, Note_on_c, 1, 53, 64
1, 2783, Note_on_c, 1, 53, 0
1, 2784, Note_on_c, 0, 75, 0
1, 2784, Note_on_c, 0, 71, 0
1, 2784, Note_on_c, 0, 73, 77
1, 2784, Note_on_c, 0, 70, 77
1, 2784, Note_on_c, 1, 54, 64
1, 2807, Note_on_c, 1, 54, 0
1, 2808, Note_on_c, 1, 49, 64
1, 2831, Note_on_c, 1, 49, 0
1, 2832, Note_on_c, 1, 46, 64
1, 2855, Note_on_c, 1, 46, 0
1, 2856, Note_on_c, 1, 49, 64
1, 2873, Note_on_c, 0, 73, 0
1, 2873, Note_on_c, 0, 70, 0
1, 2879, Note_on_c, 1, 49, 0
1, 2880, Note_on_c, 1, 42, 64
1, 2925, Note_on_c, 1, 42, 0
1, 2928, Note_on_c, 1, 44, 64
1, 2973, Note_on_c, 1, 44, 0
1, 2976, Note_on_c, 1, 42, 64
1, 2988, Note_on_c, 1, 42, 0
1, 2988, Note_on_c, 1, 44, 64
1, 3000, Note_on_c, 1, 44, 0
1, 3000, Note_on_c, 1, 42, 64
1, 3021, Note_on_c, 1, 42, 0
1, 3024, Note_on_c, 1, 40, 64
1, 3069, Note_on_c, 1, 40, 0
1, 3072, Note_on_c, 0, 78, 75
1, 3072, Note_on_c, 1, 39, 64
1, 3095, Note_on_c, 0, 78, 0
1, 3096, Note_on_c, 0, 75, 75
1, 3117, Note_on_c, 1, 39, 0
1, 3119, Note_on_c, 0, 75, 0
1, 3120, Note_on_c, 0, 71, 75
1, 3120, Note_on_c, 1, 51, 64
1, 3143, Note_on_c, 0, 71, 0
1, 3144, Note_on_c, 0, 66, 75
1, 3165, Note_on_c, 1, 51, 0
1, 3167, Note_on_c, 0, 66, 0
1, 3168, Note_on_c, 0, 72, 75
1, 3168, Note_on_c, 1, 52, 64
1, 3191, Note_on_c, 1, 52, 0
1, 3192, Note_on_c, 0, 72, 0
1, 3192, Note_on_c, 0, 73, 75
1, 3192, Note_on_c, 1, 56, 64
1, 3215, Note_on_c, 0, 73, 0
1, 3215, Note_on_c, 1, 56, 0
1, 3216, Note_on_c, 0, 73, 91
1, 3216, Note_on_c, 1, 61, 64
1, 3239, Note_on_c, 1, 61, 0
1, 3240, Note_on_c, 1, 56, 64
1, 3263, Note_on_c, 1, 56, 0
1, 3264, Note_on_c, 1, 52, 64
1, 3287, Note_on_c, 0, 73, 0
1, 3287, Note_on_c, 1, 52, 0
1, 3288, Note_on_c, 0, 75, 75
1, 3288, Note_on_c, 1, 56, 64
1, 3311, Note_on_c, 0, 75, 0
1, 3311, Note_on_c, 1, 56, 0
1, 3312, Note_on_c, 0, 76, 75
1, 3312, Note_on_c, 1, 61, 64
1, 3335, Note_on_c, 0, 76, 0
1, 3335, Note_on_c, 1, 61, 0
1, 3336, Note_on_c, 0, 75, 75
1, 3336, Note_on_c, 1, 56, 64
1, 3359, Note_on_c, 0, 75, 0
1, 3359, Note_on_c, 1, 56, 0
1, 3360, Note_on_c, 0, 73, 75
1, 3360, Note_on_c, 1, 52, 64
1, 3383, Note_on_c, 0, 73, 0
1, 3383, Note_on_c, 1, 52, 0
1, 3384, Note_on_c, 0, 71, 75
1, 3384, Note_on_c, 1, 56, 64
1, 3407, Note_on_c, 0, 71, 0
1, 3407, Note_on_c, 1, 56, 0
1, 3408, Note_on_c, 0, 70, 75
1, 3408, Note_on_c, 1, 61, 64
1, 3431, Note_on_c, 0, 70, 0
1, 3431, Note_on_c, 1, 61, 0
1, 3432, Note_on_c, 0, 68, 75
1, 3432, Note_on_c, 1, 56, 64
1, 3455, Note_on_c, 0, 68, 0
1, 3455, Note_on_c, 1, 56, 0
1, 3456, Note_on_c, 0, 66, 75
1, 3456, Note_on_c, 1, 54, 64
1, 3479, Note_on_c, 1, 54, 0
1, 3480, Note_on_c, 1, 59, 64
1, 3501, Note_on_c, 0, 66, 0
1, 3503, Note_on_c, 1, 59, 0
1, 3504, Note_on_c, 0, 77, 75
1, 3504, Note_on_c, 1, 63, 64
1, 3527, Note_on_c, 1, 63, 0
1, 3528, Note_on_c, 0, 77, 0
1, 3528, Note_on_c, 0, 78, 75
1, 3528, Note_on_c, 1, 59, 64
1, 3551, Note_on_c, 0, 78, 0
1, 3551, Note_on_c, 1, 59, 0
1, 3552, Note_on_c, 0, 76, 75
1, 3552, Note_on_c, 1, 54, 64
1, 3575, Note_on_c, 0, 76, 0
1, 3575, Note_on_c, 1, 54, 0
1, 3576, Note_on_c, 0, 75, 75
1, 3576, Note_on_c, 1, 59, 64
1, 3599, Note_on_c, 0, 75, 0
1, 3599, Note_on_c, 1, 59, 0
1, 3600, Note_on_c, 0, 73, 75
1, 3600, Note_on_c, 1, 63, 64
1, 3623, Note_on_c, 0, 73, 0
1, 3623, Note_on_c, 1, 63, 0
1, 3624, Note_on_c, 0, 71, 75
1, 3624, Note_on_c, 1, 59, 64
1, 3647, Note_on_c, 0, 71, 0
1, 3647, Note_on_c, 1, 59, 0
1, 3648, Note_on_c, 0, 73, 75
1, 3648, Note_on_c, 1, 54, 64
1, 3660, Note_on_c, 0, 73, 0
1, 3660, Note_on_c, 0, 75, 75
1, 3671, Note_on_c, 1, 54, 0
1, 3672, Note_on_c, 0, 75, 0
1, 3672, Note_on_c, 0, 73, 75
1, 3672, Note_on_c, 1, 58, 64
1, 3684, Note_on_c, 0, 73, 0
1, 3684, Note_on_c, 0, 75, 75
1, 3695, Note_on_c, 1, 58, 0
1, 3696, Note_on_c, 0, 75, 0
1, 3696, Note_on_c, 0, 73, 75
1, 3696, Note_on_c, 1, 64, 64
1, 3708, Note_on_c, 0, 73, 0
1, 3708, Note_on_c, 0, 75, 75
1, 3719, Note_on_c, 0, 75, 0
1, 3719, Note_on_c, 0, 73, 75
1, 3719, Note_on_c, 1, 64, 0
1, 3720, Note_on_c, 1, 58, 64
1, 3730, Note_on_c, 0, 73, 0
1, 3730, Note_on_c, 0, 75, 75
1, 3741, Note_on_c, 0, 75, 0
1, 3741, Note_on_c, 0, 73, 75
1, 3743, Note_on_c, 1, 58, 0
1, 3744, Note_on_c, 1, 54, 64
1, 3752, Note_on_c, 0, 73, 0
1, 3752, Note_on_c, 0, 75, 75
1, 3763, Note_on_c, 0, 75, 0
1, 3763, Note_on_c, 0, 73, 75
1, 3767, Note_on_c, 1, 54, 0
1, 3768, Note_on_c, 1, 58, 64
1, 3774, Note_on_c, 0, 73, 0
1, 3774, Note_on_c, 0, 75, 75
1, 3785, Note_on_c, 0, 75, 0
1, 3785, Note_on_c, 0, 73, 75
1, 3791, Note_on_c, 1, 58, 0
1, 3792, Note_on_c, 1, 64, 64
1, 3796, Note_on_c, 0, 73, 0
1, 3796, Note_on_c, 0, 71, 75
1, 3815, Note_on_c, 1, 64, 0
1, 3816, Note_on_c, 1, 58, 64
1, 3818, Note_on_c, 0, 71, 0
1, 3818, Note_on_c, 0, 73, 75
1, 3839, Note_on_c, 1, 58, 0
1, 3840, Note_on_c, 0, 73, 0
1, 3840, Note_on_c, 0, 71, 91
1, 3840, Note_on_c, 1, 63, 64
1, 3840, Note_on_c, 1, 59, 64
1, 3864, Note_on_c, 0, 71, 0
1, 3864, Note_on_c, 0, 66, 75
1, 3887, Note_on_c, 0, 66, 0
1, 3888, Note_on_c, 0, 68, 75
1, 3911, Note_on_c, 0, 68, 0
1, 3912, Note_on_c, 0, 70, 76
1, 3929, Note_on_c, 1, 63, 0
1, 3929, Note_on_c, 1, 59, 0
1, 3935, Note_on_c, 0, 70, 0
1, 3936, Note_on_c, 0, 71, 76
1, 3959, Note_on_c, 0, 71, 0
1, 3960, Note_on_c, 0, 73, 77
1, 3983, Note_on_c, 0, 73, 0
1, 3984, Note_on_c, 0, 75, 78
1, 4007, Note_on_c, 0, 75, 0
1, 4008, Note_on_c, 0, 77, 78
1, 4031, Note_on_c, 0, 77, 0
1, 4032, Note_on_c, 0, 78, 95
1, 4056, Note_on_c, 0, 78, 0
1, 4056, Note_on_c, 0, 73, 80
1, 4056, Note_on_c, 1, 61, 80
1, 4079, Note_on_c, 0, 73, 0
1, 4079, Note_on_c, 1, 61, 0
1, 4080, Note_on_c, 0, 75, 80
1, 4080, Note_on_c, 1, 63, 80
1, 4103, Note_on_c, 0, 75, 0
1, 4103, Note_on_c, 1, 63, 0
1, 4104, Note_on_c, 0, 77, 80
1, 4104, Note_on_c, 1, 65, 80
1, 4127, Note_on_c, 0, 77, 0
1, 4127, Note_on_c, 1, 65, 0
1, 4128, Note_on_c, 0, 78, 80
1, 4128, Note_on_c, 1, 66, 80
1, 4151, Note_on_c, 0, 78, 0
1, 4151, Note_on_c, 1, 66, 0
1, 4152, Note_on_c, 0, 80, 80
1, 4152, Note_on_c, 1, 68, 80
1, 4175, Note_on_c, 0, 80, 0
1, 4175, Note_on_c, 1, 68, 0
1, 4176, Note_on_c, 0, 82, 80
1, 4176, Note_on_c, 1, 70, 80
1, 4199, Note_on_c, 0, 82, 0
1, 4199, Note_on_c, 1, 70, 0
1, 4200, Note_on_c, 0, 84, 80
1, 4200, Note_on_c, 1, 72, 80
1, 4223, Note_on_c, 0, 84, 0
1, 4223, Note_on_c, 1, 72, 0
1, 4224, Note_on_c, 0, 85, 96
1, 4224, Note_on_c, 1, 73, 80
1, 4269, Note_on_c, 1, 73, 0
1, 4272, Note_on_c, 0, 85, 0
1, 4296, Note_on_c, 0, 84, 80
1, 4296, Note_on_c, 1, 72, 80
1, 4320, Note_on_c, 0, 84, 0
1, 4320, Note_on_c, 0, 85, 80
1, 4320, Note_on_c, 1, 72, 0
1, 4320, Note_on_c, 1, 73, 80
1, 4365, Note_on_c, 0, 85, 0
1, 4365, Note_on_c, 1, 73, 0
1, 4392, Note_on_c, 0, 84, 80
1, 4392, Note_on_c, 1, 72, 80
1, 4416, Note_on_c, 0, 84, 0
1, 4416, Note_on_c, 0, 85, 80
1, 4416, Note_on_c, 1, 72, 0
1, 4416, Note_on_c, 1, 73, 80
1, 4505, Note_on_c, 0, 85, 0
1, 4505, Note_on_c, 1, 73, 0
1, 4608, Note_on_c, 0, 87, 96
1, 4608, Note_on_c, 0, 83, 96
1, 4656, Note_on_c, 0, 87, 0
1, 4656, Note_on_c, 0, 83, 0
1, 4656, Note_on_c, 0, 85, 80
1, 4656, Note_on_c, 0, 82, 80
1, 4701, Note_on_c, 0, 85, 0
1, 4701, Note_on_c, 0, 82, 0
1, 4704, Note_on_c, 0, 83, 79
1, 4704, Note_on_c, 0, 80, 79
1, 4752, Note_on_c, 0, 83, 0
1, 4752, Note_on_c, 0, 80, 0
1, 4752, Note_on_c, 0, 82, 78
1, 4752, Note_on_c, 0, 78, 78
1, 4797, Note_on_c, 0, 82, 0
1, 4797, Note_on_c, 0, 78, 0
1, 4800, Note_on_c, 0, 85, 93
1, 4800, Note_on_c, 0, 82, 93
1, 4848, Note_on_c, 0, 85, 0
1, 4848, Note_on_c, 0, 82, 0
1, 4848, Note_on_c, 0, 83, 77
1, 4848, Note_on_c, 0, 80, 77
1, 4893, Note_on_c, 0, 83, 0
1, 4893, Note_on_c, 0, 80, 0
1, 4896, Note_on_c, 0, 82, 76
1, 4896, Note_on_c, 0, 78, 76
1, 4944, Note_on_c, 0, 82, 0
1, 4944, Note_on_c, 0, 78, 0
1, 4944, Note_on_c, 0, 80, 75
1, 4944, Note_on_c, 0, 77, 75
1, 4989, Note_on_c, 0, 80, 0
1, 4989, Note_on_c, 0, 77, 0
1, 4992, Note_on_c, 0, 78, 75
1, 4992, Note_on_c, 1, 61, 64
1, 5015, Note_on_c, 1, 61, 0
1, 5016, Note_on_c, 0, 78, 0
1, 5016, Note_on_c, 0, 73, 75
1, 5016, Note_on_c, 1, 70, 64
1, 5039, Note_on_c, 0, 73, 0
1, 5039, Note_on_c, 1, 70, 0
1, 5040, Note_on_c, 0, 73, 96
1, 5040, Note_on_c, 1, 66, 64
1, 5063, Note_on_c, 1, 66, 0
1, 5064, Note_on_c, 1, 70, 64
1, 5087, Note_on_c, 1, 70, 0
1, 5088, Note_on_c, 1, 61, 64
1, 5111, Note_on_c, 1, 61, 0
1, 5112, Note_on_c, 1, 70, 64
1, 5135, Note_on_c, 1, 70, 0
1, 5136, Note_on_c, 0, 73, 0
1, 5136, Note_on_c, 0, 78, 80
1, 5136, Note_on_c, 1, 66, 64
1, 5159, Note_on_c, 1, 66, 0
1, 5160, Note_on_c, 1, 70, 64
1, 5183, Note_on_c, 1, 70, 0
1, 5184, Note_on_c, 1, 61, 64
1, 5207, Note_on_c, 1, 61, 0
1, 5208, Note_on_c, 1, 70, 64
1, 5225, Note_on_c, 0, 78, 0
1, 5231, Note_on_c, 1, 70, 0
1, 5232, Note_on_c, 0, 82, 80
1, 5232, Note_on_c, 1, 66, 64
1, 5255, Note_on_c, 1, 66, 0
1, 5256, Note_on_c, 1, 70, 64
1, 5279, Note_on_c, 1, 70, 0
1, 5280, Note_on_c, 1, 61, 64
1, 5303, Note_on_c, 0, 82, 0
1, 5303, Note_on_c, 1, 61, 0
1, 5304, Note_on_c, 1, 70, 64
1, 5310, Note_on_c, 0, 80, 80
1, 5316, Note_on_c, 0, 80, 0
1, 5316, Note_on_c, 0, 78, 80
1, 5322, Note_on_c, 0, 78, 0
1, 5322, Note_on_c, 0, 77, 80
1, 5327, Note_on_c, 1, 70, 0
1, 5328, Note_on_c, 0, 77, 0
1, 5328, Note_on_c, 0, 78, 80
1, 5328, Note_on_c, 1, 66, 64
1, 5351, Note_on_c, 1, 66, 0
1, 5352, Note_on_c, 1, 70, 64
1, 5373, Note_on_c, 0, 78, 0
1, 5375, Note_on_c, 1, 70, 0
1, 5376, Note_on_c, 0, 77, 80
1, 5376, Note_on_c, 1, 61, 64
1, 5396, Note_on_c, 0, 77, 0
1, 5399, Note_on_c, 1, 61, 0
1, 5400, Note_on_c, 1, 71, 64
1, 5423, Note_on_c, 1, 71, 0
1, 5424, Note_on_c, 0, 80, 97
1, 5424, Note_on_c, 1, 68, 64
1, 5447, Note_on_c, 1, 68, 0
1, 5448, Note_on_c, 1, 71, 64
1, 5471, Note_on_c, 1, 71, 0
1, 5472, Note_on_c, 1, 61, 64
1, 5495, Note_on_c, 1, 61, 0
1, 5496, Note_on_c, 1, 71, 64
1, 5519, Note_on_c, 1, 71, 0
1, 5520, Note_on_c, 0, 80, 0
1, 5520, Note_on_c, 0, 83, 83
1, 5520, Note_on_c, 1, 68, 64
1, 5543, Note_on_c, 1, 68, 0
1, 5544, Note_on_c, 1, 71, 64
1, 5567, Note_on_c, 1, 71, 0
1, 5568, Note_on_c, 1, 61, 64
1, 5591, Note_on_c, 1, 61, 0
1, 5592, Note_on_c, 1, 71, 64
1, 5609, Note_on_c, 0, 83, 0
1, 5615, Note_on_c, 1, 71, 0
1, 5616, Note_on_c, 0, 86, 86
1, 5616, Note_on_c, 1, 68, 64
1, 5639, Note_on_c, 1, 68, 0
1, 5640, Note_on_c, 1, 71, 64
1, 5663, Note_on_c, 1, 71, 0
1, 5664, Note_on_c, 1, 61, 64
1, 5687, Note_on_c, 1, 61, 0
1, 5688, Note_on_c, 1, 71, 64
1, 5705, Note_on_c, 0, 86, 0
1, 5711, Note_on_c, 1, 71, 0
1, 5712, Note_on_c, 0, 77, 84
1, 5712, Note_on_c, 1, 68, 64
1, 5735, Note_on_c, 1, 68, 0
1, 5736, Note_on_c, 1, 71, 64
1, 5757, Note_on_c, 0, 77, 0
1, 5759, Note_on_c, 1, 71, 0
1, 5760, Note_on_c, 0, 78, 83
1, 5760, Note_on_c, 1, 61, 64
1, 5780, Note_on_c, 0, 78, 0
1, 5783, Note_on_c, 1, 61, 0
1, 5784, Note_on_c, 1, 69, 64
1, 5807, Note_on_c, 1, 69, 0
1, 5808, Note_on_c, 0, 78, 98
1, 5808, Note_on_c, 1, 66, 64
1, 5831, Note_on_c, 1, 66, 0
1, 5832, Note_on_c, 1, 69, 64
1, 5855, Note_on_c, 1, 69, 0
1, 5856, Note_on_c, 1, 61, 64
1, 5879, Note_on_c, 1, 61, 0
1, 5880, Note_on_c, 1, 69, 64
1, 5903, Note_on_c, 1, 69, 0
1, 5904, Note_on_c, 0, 78, 0
1, 5904, Note_on_c, 0, 78, 80
1, 5904, Note_on_c, 1, 66, 64
1, 5927, Note_on_c, 1, 66, 0
1, 5928, Note_on_c, 1, 69, 64
1, 5951, Note_on_c, 1, 69, 0
1, 5952, Note_on_c, 1, 61, 64
1, 5975, Note_on_c, 1, 61, 0
1, 5976, Note_on_c, 1, 69, 64
1, 5993, Note_on_c, 0, 78, 0
1, 5999, Note_on_c, 1, 69, 0
1, 6000, Note_on_c, 0, 78, 80
1, 6000, Note_on_c, 1, 66, 64
1, 6023, Note_on_c, 1, 66, 0
1, 6024, Note_on_c, 1, 69, 64
1, 6047, Note_on_c, 1, 69, 0
1, 6048, Note_on_c, 1, 61, 64
1, 6071, Note_on_c, 0, 78, 0
1, 6071, Note_on_c, 1, 61, 0
1, 6072, Note_on_c, 1, 69, 64
1, 6078, Note_on_c, 0, 80, 80
1, 6084, Note_on_c, 0, 80, 0
1, 6084, Note_on_c, 0, 78, 80
1, 6090, Note_on_c, 0, 78, 0
1, 6090, Note_on_c, 0, 77, 80
1, 6095, Note_on_c, 1, 69, 0
1, 6096, Note_on_c, 0, 77, 0
1, 6096, Note_on_c, 0, 78, 80
1, 6096, Note_on_c, 1, 66, 64
1, 6119, Note_on_c, 1, 66, 0
1, 6120, Note_on_c, 1, 69, 64
1, 6141, Note_on_c, 0, 78, 0
1, 6143, Note_on_c, 1, 69, 0
1, 6144, Note_on_c, 0, 78, 80
1, 6144, Note_on_c, 1, 62, 64
1, 6164, Note_on_c, 0, 78, 0
1, 6167, Note_on_c, 1, 62, 0
1, 6168, Note_on_c, 1, 69, 64
1, 6191, Note_on_c, 1, 69, 0
1, 6192, Note_on_c, 0, 78, 96
1, 6192, Note_on_c, 1, 66, 64
1, 6215, Note_on_c, 1, 66, 0
1, 6216, Note_on_c, 1, 69, 64
1, 6239, Note_on_c, 1, 69, 0
1, 6240, Note_on_c, 1, 62, 64
1, 6263, Note_on_c, 1, 62, 0
1, 6264, Note_on_c, 1, 69, 64
1, 6287, Note_on_c, 1, 69, 0
1, 6288, Note_on_c, 0, 78, 0
1, 6288, Note_on_c, 0, 78, 80
1, 6288, Note_on_c, 1, 66, 64
1, 6311, Note_on_c, 1, 66, 0
1, 6312, Note_on_c, 1, 69, 64
1, 6335, Note_on_c, 1, 69, 0
1, 6336, Note_on_c, 1, 62, 64
1, 6359, Note_on_c, 1, 62, 0
1, 6360, Note_on_c, 1, 69, 64
1, 6377, Note_on_c, 0, 78, 0
1, 6383, Note_on_c, 1, 69, 0
1, 6384, Note_on_c, 0, 78, 80
1, 6384, Note_on_c, 1, 66, 64
1, 6407, Note_on_c, 1, 66, 0
1, 6408, Note_on_c, 1, 69, 64
1, 6431, Note_on_c, 1, 69, 0
1, 6432, Note_on_c, 1, 62, 64
1, 6455, Note_on_c, 0, 78, 0
1, 6455, Note_on_c, 1, 62, 0
1, 6456, Note_on_c, 1, 69, 64
1, 6462, Note_on_c, 0, 80, 80
1, 6468, Note_on_c, 0, 80, 0
1, 6468, Note_on_c, 0, 78, 80
1, 6474, Note_on_c, 0, 78, 0
1, 6474, Note_on_c, 0, 77, 80
1, 6479, Note_on_c, 1, 69, 0
1, 6480, Note_on_c, 0, 77, 0
1, 6480, Note_on_c, 0, 78, 80
1, 6480, Note_on_c, 1, 66, 64
1, 6503, Note_on_c, 1, 66, 0
1, 6504, Note_on_c, 1, 69, 64
1, 6525, Note_on_c, 0, 78, 0
1, 6527, Note_on_c, 1, 69, 0
1, 6528, Note_on_c, 0, 78, 96
1, 6528, Note_on_c, 1, 60, 64
1, 6551, Note_on_c, 1, 60, 0
1, 6552, Note_on_c, 1, 69, 64
1, 6575, Note_on_c, 1, 69, 0
1, 6576, Note_on_c, 1, 66, 64
1, 6599, Note_on_c, 1, 66, 0
1, 6600, Note_on_c, 1, 69, 64
1, 6623, Note_on_c, 1, 69, 0
1, 6624, Note_on_c, 1, 60, 64
1, 6647, Note_on_c, 1, 60, 0
1, 6648, Note_on_c, 1, 69, 64
1, 6671, Note_on_c, 1, 69, 0
1, 6672, Note_on_c, 0, 78, 0
1, 6672, Note_on_c, 0, 77, 80
1, 6672, Note_on_c, 1, 66, 64
1, 6695, Note_on_c, 1, 66, 0
1, 6696, Note_on_c, 1, 69, 64
1, 6719, Note_on_c, 1, 69, 0
1, 6720, Note_on_c, 0, 77, 0
1, 6720, Note_on_c, 0, 78, 80
1, 6720, Note_on_c, 1, 60, 64
1, 6740, Note_on_c, 0, 78, 0
1, 6743, Note_on_c, 1, 60, 0
1, 6744, Note_on_c, 1, 69, 64
1, 6767, Note_on_c, 1, 69, 0
1, 6768, Note_on_c, 0, 77, 80
1, 6768, Note_on_c, 1, 66, 64
1, 6791, Note_on_c, 1, 66, 0
1, 6792, Note_on_c, 1, 69, 64
1, 6815, Note_on_c, 1, 69, 0
1, 6816, Note_on_c, 0, 77, 0
1, 6816, Note_on_c, 0, 78, 80
1, 6816, Note_on_c, 1, 60, 64
1, 6836, Note_on_c, 0, 78, 0
1, 6839, Note_on_c, 1, 60, 0
1, 6840, Note_on_c, 1, 69, 64
1, 6863, Note_on_c, 1, 69, 0
1, 6864, Note_on_c, 0, 77, 80
1, 6864, Note_on_c, 1, 66, 64
1, 6887, Note_on_c, 1, 66, 0
1, 6888, Note_on_c, 1, 69, 64
1, 6911, Note_on_c, 1, 69, 0
1, 6912, Note_on_c, 0, 77, 0
1, 6912, Note_on_c, 0, 78, 80
1, 6912, Note_on_c, 1, 66, 80
1, 6912, Note_on_c, 1, 63, 80
1, 6912, Note_on_c, 1, 59, 80
1, 6932, Note_on_c, 0, 78, 0
1, 6960, Note_on_c, 0, 81, 80
1, 7005, Note_on_c, 0, 81, 0
1, 7008, Note_on_c, 0, 80, 80
1, 7008, Note_on_c, 1, 66, 0
1, 7008, Note_on_c, 1, 63, 0
1, 7008, Note_on_c, 1, 59, 0
1, 7053, Note_on_c, 0, 80, 0
1, 7056, Note_on_c, 0, 78, 80
1, 7101, Note_on_c, 0, 78, 0
1, 7104, Note_on_c, 1, 66, 64
1, 7104, Note_on_c, 1, 63, 64
1, 7104, Note_on_c, 1, 59, 64
1, 7152, Note_on_c, 0, 84, 80
1, 7193, Note_on_c, 1, 66, 0
1, 7193, Note_on_c, 1, 63, 0
1, 7193, Note_on_c, 1, 59, 0
1, 7197, Note_on_c, 0, 84, 0
1, 7200, Note_on_c, 0, 83, 80
1, 7245, Note_on_c, 0, 83, 0
1, 7248, Note_on_c, 0, 81, 80
1, 7293, Note_on_c, 0, 81, 0
1, 7296, Note_on_c, 1, 67, 80
1, 7296, Note_on_c, 1, 64, 80
1, 7296, Note_on_c, 1, 59, 80
1, 7344, Note_on_c, 0, 83, 80
1, 7344, Note_on_c, 0, 79, 80
1, 7389, Note_on_c, 0, 83, 0
1, 7389, Note_on_c, 0, 79, 0
1, 7392, Note_on_c, 0, 81, 80
1, 7392, Note_on_c, 0, 78, 80
1, 7392, Note_on_c, 1, 67, 0
1, 7392, Note_on_c, 1, 64, 0
1, 7392, Note_on_c, 1, 59, 0
1, 7437, Note_on_c, 0, 81, 0
1, 7437, Note_on_c, 0, 78, 0
1, 7440, Note_on_c, 0, 79, 80
1, 7440, Note_on_c, 0, 76, 80
1, 7485, Note_on_c, 0, 79, 0
1, 7485, Note_on_c, 0, 76, 0
1, 7488, Note_on_c, 1, 67, 64
1, 7488, Note_on_c, 1, 64, 64
1, 7488, Note_on_c, 1, 59, 64
1, 7536, Note_on_c, 0, 71, 80
1, 7536, Note_on_c, 0, 67, 80
1, 7577, Note_on_c, 1, 67, 0
1, 7577, Note_on_c, 1, 64, 0
1, 7577, Note_on_c, 1, 59, 0
1, 7581, Note_on_c, 0, 71, 0
1, 7581, Note_on_c, 0, 67, 0
1, 7584, Note_on_c, 0, 69, 80
1, 7584, Note_on_c, 0, 66, 80
1, 7629, Note_on_c, 0, 69, 0
1, 7629, Note_on_c, 0, 66, 0
1, 7632, Note_on_c, 0, 67, 80
1, 7632, Note_on_c, 0, 64, 80
1, 7677, Note_on_c, 0, 67, 0
1, 7677, Note_on_c, 0, 64, 0
1, 7680, Note_on_c, 0, 65, 80
1, 7680, Note_on_c, 1, 47, 64
1, 7692, Note_on_c, 0, 65, 0
1, 7693, Note_on_c, 0, 67, 80
1, 7703, Note_on_c, 1, 47, 0
1, 7704, Note_on_c, 1, 50, 64
1, 7705, Note_on_c, 0, 67, 0
1, 7706, Note_on_c, 0, 65, 80
1, 7718, Note_on_c, 0, 65, 0
1, 7719, Note_on_c, 0, 67, 80
1, 7727, Note_on_c, 1, 50, 0
1, 7728, Note_on_c, 1, 49, 64
1, 7731, Note_on_c, 0, 67, 0
1, 7732, Note_on_c, 0, 65, 80
1, 7744, Note_on_c, 0, 65, 0
1, 7745, Note_on_c, 0, 67, 80
1, 7751, Note_on_c, 1, 49, 0
1, 7752, Note_on_c, 1, 50, 64
1, 7757, Note_on_c, 0, 67, 0
1, 7758, Note_on_c, 0, 65, 80
1, 7770, Note_on_c, 0, 65, 0
1, 7771, Note_on_c, 0, 67, 80
1, 7775, Note_on_c, 1, 50, 0
1, 7776, Note_on_c, 1, 47, 64
1, 7783, Note_on_c, 0, 67, 0
1, 7784, Note_on_c, 0, 65, 80
1, 7796, Note_on_c, 0, 65, 0
1, 7797, Note_on_c, 0, 67, 80
1, 7799, Note_on_c, 1, 47, 0
1, 7800, Note_on_c, 1, 50, 64
1, 7809, Note_on_c, 0, 67, 0
1, 7810, Note_on_c, 0, 65, 80
1, 7822, Note_on_c, 0, 65, 0
1, 7823, Note_on_c, 0, 64, 80
1, 7823, Note_on_c, 1, 50, 0
1, 7824, Note_on_c, 1, 49, 64
1, 7847, Note_on_c, 1, 49, 0
1, 7848, Note_on_c, 0, 64, 0
1, 7848, Note_on_c, 0, 65, 80
1, 7848, Note_on_c, 1, 50, 64
1, 7871, Note_on_c, 1, 50, 0
1, 7872, Note_on_c, 0, 65, 0
1, 7872, Note_on_c, 0, 64, 80
1, 7872, Note_on_c, 1, 48, 64
1, 7895, Note_on_c, 1, 48, 0
1, 7896, Note_on_c, 1, 55, 64
1, 7919, Note_on_c, 1, 55, 0
1, 7920, Note_on_c, 1, 52, 64
1, 7943, Note_on_c, 1, 52, 0
1, 7944, Note_on_c, 1, 55, 64
1, 7961, Note_on_c, 0, 64, 0
1, 7967, Note_on_c, 1, 55, 0
1, 7968, Note_on_c, 1, 48, 64
1, 7991, Note_on_c, 1, 48, 0
1, 7992, Note_on_c, 1, 55, 64
1, 8015, Note_on_c, 1, 55, 0
1, 8016, Note_on_c, 1, 52, 64
1, 8039, Note_on_c, 1, 52, 0
1, 8040, Note_on_c, 1, 55, 64
1, 8063, Note_on_c, 1, 55, 0
1, 8064, Note_on_c, 0, 65, 80
1, 8064, Note_on_c, 1, 59, 64
1, 8064, Note_on_c, 1, 50, 64
1, 8064, Note_on_c, 1, 47, 64
1, 8064, Note_on_c, 1, 43, 64
1, 8087, Note_on_c, 1, 59, 0
1, 8088, Note_on_c, 1, 62, 64
1, 8111, Note_on_c, 1, 62, 0
1, 8112, Note_on_c, 1, 61, 64
1, 8135, Note_on_c, 1, 61, 0
1, 8136, Note_on_c, 1, 59, 64
1, 8159, Note_on_c, 1, 59, 0
1, 8184, Note_on_c, 1, 62, 64
1, 8207, Note_on_c, 1, 62, 0
1, 8208, Note_on_c, 1, 61, 64
1, 8231, Note_on_c, 1, 61, 0
1, 8232, Note_on_c, 1, 59, 64
1, 8255, Note_on_c, 1, 59, 0
1, 8256, Note_on_c, 0, 65, 0
1, 8256, Note_on_c, 0, 66, 80
1, 8256, Note_on_c, 1, 58, 64
1, 8256, Note_on_c, 1, 50, 0
1, 8256, Note_on_c, 1, 47, 0
1, 8256, Note_on_c, 1, 43, 0
1, 8256, Note_on_c, 1, 49, 64
1, 8256, Note_on_c, 1, 42, 64
1, 8279, Note_on_c, 0, 66, 0
1, 8280, Note_on_c, 0, 61, 80
1, 8303, Note_on_c, 0, 61, 0
1, 8304, Note_on_c, 0, 63, 80
1, 8327, Note_on_c, 0, 63, 0
1, 8328, Note_on_c, 0, 65, 80
1, 8345, Note_on_c, 1, 58, 0
1, 8345, Note_on_c, 1, 49, 0
1, 8345, Note_on_c, 1, 42, 0
1, 8351, Note_on_c, 0, 65, 0
1, 8352, Note_on_c, 0, 66, 80
1, 8375, Note_on_c, 0, 66, 0
1, 8376, Note_on_c, 0, 68, 80
1, 8399, Note_on_c, 0, 68, 0
1, 8400, Note_on_c, 0, 70, 80
1, 8423, Note_on_c, 0, 70, 0
1, 8424, Note_on_c, 0, 71, 80
1, 8447, Note_on_c, 0, 71, 0
1, 8448, Note_on_c, 0, 73, 80
1, 8448, Note_on_c, 1, 49, 64
1, 8471, Note_on_c, 1, 49, 0
1, 8472, Note_on_c, 1, 58, 64
1, 8493, Note_on_c, 0, 73, 0
1, 8495, Note_on_c, 1, 58, 0
1, 8496, Note_on_c, 0, 75, 80
1, 8496, Note_on_c, 1, 54, 64
1, 8519, Note_on_c, 0, 75, 0
1, 8519, Note_on_c, 1, 54, 0
1, 8520, Note_on_c, 0, 73, 80
1, 8520, Note_on_c, 1, 58, 64
1, 8543, Note_on_c, 0, 73, 0
1, 8543, Note_on_c, 1, 58, 0
1, 8544, Note_on_c, 0, 71, 80
1, 8544, Note_on_c, 1, 49, 64
1, 8567, Note_on_c, 0, 71, 0
1, 8567, Note_on_c, 1, 49, 0
1, 8568, Note_on_c, 0, 70, 80
1, 8568, Note_on_c, 1, 58, 64
1, 8591, Note_on_c, 0, 70, 0
1, 8591, Note_on_c, 1, 58, 0
1, 8592, Note_on_c, 0, 68, 80
1, 8592, Note_on_c, 1, 54, 64
1, 8615, Note_on_c, 0, 68, 0
1, 8615, Note_on_c, 1, 54, 0
1, 8616, Note_on_c, 0, 66, 80
1, 8616, Note_on_c, 1, 58, 64
1, 8639, Note_on_c, 0, 66, 0
1, 8639, Note_on_c, 1, 58, 0
1, 8640, Note_on_c, 0, 68, 80
1, 8640, Note_on_c, 1, 49, 64
1, 8652, Note_on_c, 0, 68, 0
1, 8652, Note_on_c, 0, 70, 80
1, 8663, Note_on_c, 1, 49, 0
1, 8664, Note_on_c, 0, 70, 0
1, 8664, Note_on_c, 0, 68, 80
1, 8664, Note_on_c, 1, 59, 64
1, 8676, Note_on_c, 0, 68, 0
1, 8676, Note_on_c, 0, 70, 80
1, 8687, Note_on_c, 1, 59, 0
1, 8688, Note_on_c, 0, 70, 0
1, 8688, Note_on_c, 0, 68, 80
1, 8688, Note_on_c, 1, 53, 64
1, 8700, Note_on_c, 0, 68, 0
1, 8700, Note_on_c, 0, 70, 80
1, 8711, Note_on_c, 0, 70, 0
1, 8711, Note_on_c, 0, 68, 80
1, 8711, Note_on_c, 1, 53, 0
1, 8712, Note_on_c, 1, 59, 64
1, 8722, Note_on_c, 0, 68, 0
1, 8722, Note_on_c, 0, 70, 80
1, 8733, Note_on_c, 0, 70, 0
1, 8733, Note_on_c, 0, 68, 80
1, 8735, Note_on_c, 1, 59, 0
1, 8736, Note_on_c, 1, 49, 64
1, 8744, Note_on_c, 0, 68, 0
1, 8744, Note_on_c, 0, 70, 80
1, 8755, Note_on_c, 0, 70, 0
1, 8755, Note_on_c, 0, 68, 80
1, 8759, Note_on_c, 1, 49, 0
1, 8760, Note_on_c, 1, 59, 64
1, 8766, Note_on_c, 0, 68, 0
1, 8766, Note_on_c, 0, 70, 80
1, 8777, Note_on_c, 0, 70, 0
1, 8777, Note_on_c, 0, 68, 80
1, 8783, Note_on_c, 1, 59, 0
1, 8784, Note_on_c, 1, 53, 64
1, 8788, Note_on_c, 0, 68, 0
1, 8788, Note_on_c, 0, 66, 80
1, 8807, Note_on_c, 1, 53, 0
1, 8808, Note_on_c, 1, 59, 64
1, 8810, Note_on_c, 0, 66, 0
1, 8810, Note_on_c, 0, 68, 80
1, 8831, Note_on_c, 1, 59, 0
1, 8832, Note_on_c, 0, 68, 0
1, 8832, Note_on_c, 0, 66, 80
1, 8832, Note_on_c, 1, 58, 64
1, 8832, Note_on_c, 1, 54, 64
1, 8921, Note_on_c, 0, 66, 0
1, 8921, Note_on_c, 1, 58, 0
1, 8921, Note_on_c, 1, 54, 0
1, 9024, Note_on_c, 0, 73, 75
1, 9054, Note_on_c, 0, 73, 0
1, 9056, Note_on_c, 0, 70, 75
1, 9086, Note_on_c, 0, 70, 0
1, 9088, Note_on_c, 0, 66, 75
1, 9118, Note_on_c, 0, 66, 0
1, 9120, Note_on_c, 0, 65, 75
1, 9120, Note_on_c, 1, 56, 75
1, 9120, Note_on_c, 1, 49, 75
1, 9150, Note_on_c, 0, 65, 0
1, 9152, Note_on_c, 0, 68, 75
1, 9182, Note_on_c, 0, 68, 0
1, 9184, Note_on_c, 0, 71, 75
1, 9209, Note_on_c, 1, 56, 0
1, 9209, Note_on_c, 1, 49, 0
1, 9214, Note_on_c, 0, 71, 0
1, 9216, Note_on_c, 0, 70, 75
1, 9216, Note_on_c, 1, 54, 75
1, 9305, Note_on_c, 0, 70, 0
1, 9305, Note_on_c, 1, 54, 0
1, 9408, Note_on_c, 0, 85, 70
1, 9438, Note_on_c, 0, 85, 0
1, 9440, Note_on_c, 0, 82, 70
1, 9470, Note_on_c, 0, 82, 0
1, 9472, Note_on_c, 0, 78, 70
1, 9502, Note_on_c, 0, 78, 0
1, 9504, Note_on_c, 0, 83, 70
1, 9504, Note_on_c, 1, 68, 70
1, 9504, Note_on_c, 1, 61, 70
1, 9534, Note_on_c, 0, 83, 0
1, 9536, Note_on_c, 0, 80, 70
1, 9566, Note_on_c, 0, 80, 0
1, 9568, Note_on_c, 0, 77, 70
1, 9593, Note_on_c, 1, 68, 0
1, 9593, Note_on_c, 1, 61, 0
1, 9598, Note_on_c, 0, 77, 0
1, 9600, Note_on_c, 0, 78, 70
1, 9600, Note_on_c, 0, 70, 70
1, 9600, Note_on_c, 1, 66, 70
1, 9639, Note_on_c, 0, 78, 0
1, 9639, Note_on_c, 0, 70, 0
1, 9639, Note_on_c, 1, 66, 0
1, 9696, Note_on_c, 0, 82, 64
1, 9696, Note_on_c, 0, 73, 64
1, 9735, Note_on_c, 0, 82, 0
1, 9735, Note_on_c, 0, 73, 0
1, 9792, Note_on_c, 0, 78, 64
1, 9792, Note_on_c, 0, 70, 64
1, 9881, Note_on_c, 0, 78, 0
1, 9881, Note_on_c, 0, 70, 0
1, 9984, Note_on_c, 0, 78, 75
1, 9984, Note_on_c, 1, 59, 64
1, 10007, Note_on_c, 1, 59, 0
1, 10008, Note_on_c, 1, 63, 64
1, 10023, Note_on_c, 0, 78, 0
1, 10031, Note_on_c, 1, 63, 0
1, 10032, Note_on_c, 1, 59, 64
1, 10055, Note_on_c, 1, 59, 0
1, 10056, Note_on_c, 1, 63, 64
1, 10079, Note_on_c, 1, 63, 0
1, 10080, Note_on_c, 0, 78, 91
1, 10080, Note_on_c, 1, 59, 64
1, 10103, Note_on_c, 1, 59, 0
1, 10104, Note_on_c, 1, 63, 64
1, 10127, Note_on_c, 1, 63, 0
1, 10128, Note_on_c, 1, 59, 64
1, 10151, Note_on_c, 1, 59, 0
1, 10152, Note_on_c, 1, 63, 64
1, 10175, Note_on_c, 1, 63, 0
1, 10176, Note_on_c, 1, 59, 64
1, 10199, Note_on_c, 1, 59, 0
1, 10200, Note_on_c, 1, 63, 64
1, 10223, Note_on_c, 1, 63, 0
1, 10224, Note_on_c, 1, 59, 64
1, 10247, Note_on_c, 1, 59, 0
1, 10248, Note_on_c, 1, 63, 64
1, 10271, Note_on_c, 1, 63, 0
1, 10272, Note_on_c, 0, 78, 0
1, 10272, Note_on_c, 0, 83, 78
1, 10272, Note_on_c, 1, 59, 64
1, 10295, Note_on_c, 1, 59, 0
1, 10296, Note_on_c, 1, 63, 64
1, 10319, Note_on_c, 1, 63, 0
1, 10320, Note_on_c, 1, 59, 64
1, 10343, Note_on_c, 1, 59, 0
1, 10344, Note_on_c, 1, 63, 64
1, 10361, Note_on_c, 0, 83, 0
1, 10367, Note_on_c, 1, 63, 0
1, 10368, Note_on_c, 0, 82, 80
1, 10368, Note_on_c, 1, 59, 64
1, 10391, Note_on_c, 1, 59, 0
1, 10392, Note_on_c, 1, 64, 64
1, 10415, Note_on_c, 1, 64, 0
1, 10416, Note_on_c, 0, 82, 0
1, 10416, Note_on_c, 0, 80, 79
1, 10416, Note_on_c, 1, 59, 64
1, 10439, Note_on_c, 1, 59, 0
1, 10440, Note_on_c, 1, 64, 64
1, 10461, Note_on_c, 0, 80, 0
1, 10463, Note_on_c, 1, 64, 0
1, 10464, Note_on_c, 0, 80, 94
1, 10464, Note_on_c, 1, 59, 64
1, 10487, Note_on_c, 1, 59, 0
1, 10488, Note_on_c, 1, 64, 64
1, 10511, Note_on_c, 1, 64, 0
1, 10512, Note_on_c, 1, 59, 64
1, 10535, Note_on_c, 1, 59, 0
1, 10536, Note_on_c, 1, 64, 64
1, 10559, Note_on_c, 1, 64, 0
1, 10560, Note_on_c, 1, 59, 64
1, 10583, Note_on_c, 1, 59, 0
1, 10584, Note_on_c, 1, 64, 64
1, 10607, Note_on_c, 1, 64, 0
1, 10608, Note_on_c, 1, 59, 64
1, 10631, Note_on_c, 1, 59, 0
1, 10632, Note_on_c, 1, 64, 64
1, 10655, Note_on_c, 1, 64, 0
1, 10656, Note_on_c, 0, 80, 0
1, 10656, Note_on_c, 0, 78, 75
1, 10656, Note_on_c, 1, 59, 64
1, 10679, Note_on_c, 1, 59, 0
1, 10680, Note_on_c, 1, 63, 64
1, 10703, Note_on_c, 1, 63, 0
1, 10704, Note_on_c, 1, 59, 64
1, 10727, Note_on_c, 1, 59, 0
1, 10728, Note_on_c, 1, 63, 64
1, 10745, Note_on_c, 0, 78, 0
1, 10751, Note_on_c, 1, 63, 0
1, 10752, Note_on_c, 0, 78, 75
1, 10752, Note_on_c, 1, 58, 64
1, 10764, Note_on_c, 0, 78, 0
1, 10764, Note_on_c, 0, 76, 75
1, 10775, Note_on_c, 1, 58, 0
1, 10776, Note_on_c, 0, 76, 0
1, 10776, Note_on_c, 0, 78, 76
1, 10776, Note_on_c, 1, 61, 64
1, 10788, Note_on_c, 0, 78, 0
1, 10788, Note_on_c, 0, 76, 76
1, 10799, Note_on_c, 1, 61, 0
1, 10800, Note_on_c, 0, 76, 0
1, 10800, Note_on_c, 0, 78, 77
1, 10800, Note_on_c, 1, 58, 64
1, 10812, Note_on_c, 0, 78, 0
1, 10812, Note_on_c, 0, 76, 78
1, 10823, Note_on_c, 1, 58, 0
1, 10824, Note_on_c, 0, 76, 0
1, 10824, Note_on_c, 0, 75, 78
1, 10824, Note_on_c, 1, 61, 64
1, 10836, Note_on_c, 0, 75, 0
1, 10836, Note_on_c, 0, 76, 79
1, 10847, Note_on_c, 1, 61, 0
1, 10848, Note_on_c, 0, 76, 0
1, 10848, Note_on_c, 0, 85, 96
1, 10848, Note_on_c, 1, 58, 64
1, 10871, Note_on_c, 1, 58, 0
1, 10872, Note_on_c, 1, 61, 64
1, 10895, Note_on_c, 1, 61, 0
1, 10896, Note_on_c, 1, 58, 64
1, 10919, Note_on_c, 1, 58, 0
1, 10920, Note_on_c, 1, 61, 64
1, 10943, Note_on_c, 1, 61, 0
1, 10944, Note_on_c, 1, 58, 64
1, 10967, Note_on_c, 1, 58, 0
1, 10968, Note_on_c, 1, 61, 64
1, 10991, Note_on_c, 1, 61, 0
1, 10992, Note_on_c, 1, 58, 64
1, 11015, Note_on_c, 1, 58, 0
1, 11016, Note_on_c, 1, 61, 64
1, 11039, Note_on_c, 1, 61, 0
1, 11040, Note_on_c, 0, 85, 0
1, 11040, Note_on_c, 0, 76, 77
1, 11040, Note_on_c, 1, 58, 64
1, 11063, Note_on_c, 1, 58, 0
1, 11064, Note_on_c, 1, 61, 64
1, 11087, Note_on_c, 1, 61, 0
1, 11088, Note_on_c, 1, 58, 64
1, 11111, Note_on_c, 1, 58, 0
1, 11112, Note_on_c, 1, 61, 64
1, 11129, Note_on_c, 0, 76, 0
1, 11135, Note_on_c, 1, 61, 0
1, 11136, Note_on_c, 0, 74, 76
1, 11136, Note_on_c, 1, 59, 64
1, 11159, Note_on_c, 1, 59, 0
1, 11160, Note_on_c, 1, 63, 64
1, 11183, Note_on_c, 1, 63, 0
1, 11184, Note_on_c, 0, 74, 0
1, 11184, Note_on_c, 0, 75, 75
1, 11184, Note_on_c, 1, 59, 64
1, 11207, Note_on_c, 1, 59, 0
1, 11208, Note_on_c, 1, 63, 64
1, 11229, Note_on_c, 0, 75, 0
1, 11231, Note_on_c, 1, 63, 0
1, 11232, Note_on_c, 0, 75, 91
1, 11232, Note_on_c, 1, 59, 64
1, 11255, Note_on_c, 1, 59, 0
1, 11256, Note_on_c, 1, 63, 64
1, 11279, Note_on_c, 1, 63, 0
1, 11280, Note_on_c, 1, 59, 64
1, 11303, Note_on_c, 1, 59, 0
1, 11304, Note_on_c, 1, 63, 64
1, 11327, Note_on_c, 1, 63, 0
1, 11328, Note_on_c, 1, 59, 64
1, 11351, Note_on_c, 0, 75, 0
1, 11352, Note_on_c, 0, 71, 75
1, 11375, Note_on_c, 0, 71, 0
1, 11376, Note_on_c, 0, 73, 76
1, 11399, Note_on_c, 0, 73, 0
1, 11400, Note_on_c, 0, 75, 76
1, 11417, Note_on_c, 1, 59, 0
1, 11423, Note_on_c, 0, 75, 0
1, 11424, Note_on_c, 0, 76, 77
1, 11447, Note_on_c, 0, 76, 0
1, 11448, Note_on_c, 0, 78, 78
1, 11471, Note_on_c, 0, 78, 0
1, 11472, Note_on_c, 0, 80, 78
1, 11495, Note_on_c, 0, 80, 0
1, 11496, Note_on_c, 0, 82, 79
1, 11519, Note_on_c, 0, 82, 0
1, 11520, Note_on_c, 0, 83, 96
1, 11520, Note_on_c, 1, 63, 64
1, 11520, Note_on_c, 1, 59, 64
1, 11544, Note_on_c, 0, 83, 0
1, 11544, Note_on_c, 0, 71, 75
1, 11567, Note_on_c, 0, 71, 0
1, 11568, Note_on_c, 0, 73, 75
1, 11591, Note_on_c, 0, 73, 0
1, 11592, Note_on_c, 0, 75, 76
1, 11609, Note_on_c, 1, 63, 0
1, 11609, Note_on_c, 1, 59, 0
1, 11615, Note_on_c, 0, 75, 0
1, 11616, Note_on_c, 0, 76, 77
1, 11639, Note_on_c, 0, 76, 0
1, 11640, Note_on_c, 0, 78, 77
1, 11663, Note_on_c, 0, 78, 0
1, 11664, Note_on_c, 0, 80, 78
1, 11687, Note_on_c, 0, 80, 0
1, 11688, Note_on_c, 0, 82, 79
1, 11711, Note_on_c, 0, 82, 0
1, 11712, Note_on_c, 0, 83, 96
1, 11712, Note_on_c, 1, 66, 64
1, 11712, Note_on_c, 1, 63, 64
1, 11712, Note_on_c, 1, 59, 64
1, 11736, Note_on_c, 0, 83, 0
1, 11736, Note_on_c, 0, 71, 75
1, 11759, Note_on_c, 0, 71, 0
1, 11760, Note_on_c, 0, 73, 75
1, 11783, Note_on_c, 0, 73, 0
1, 11784, Note_on_c, 0, 75, 76
1, 11801, Note_on_c, 1, 66, 0
1, 11801, Note_on_c, 1, 63, 0
1, 11801, Note_on_c, 1, 59, 0
1, 11807, Note_on_c, 0, 75, 0
1, 11808, Note_on_c, 0, 76, 76
1, 11831, Note_on_c, 0, 76, 0
1, 11832, Note_on_c, 0, 78, 77
1, 11855, Note_on_c, 0, 78, 0
1, 11856, Note_on_c, 0, 80, 77
1, 11879, Note_on_c, 0, 80, 0
1, 11880, Note_on_c, 0, 82, 78
1, 11903, Note_on_c, 0, 82, 0
1, 11904, Note_on_c, 0, 83, 94
1, 11904, Note_on_c, 1, 59, 64
1, 11924, Note_on_c, 0, 83, 0
1, 11927, Note_on_c, 1, 59, 0
1, 11928, Note_on_c, 1, 63, 64
1, 11951, Note_on_c, 1, 63, 0
1, 11952, Note_on_c, 0, 78, 75
1, 11952, Note_on_c, 1, 59, 64
1, 11972, Note_on_c, 0, 78, 0
1, 11975, Note_on_c, 1, 59, 0
1, 11976, Note_on_c, 1, 63, 64
1, 11999, Note_on_c, 1, 63, 0
1, 12000, Note_on_c, 0, 80, 75
1, 12000, Note_on_c, 1, 59, 64
1, 12012, Note_on_c, 0, 80, 0
1, 12012, Note_on_c, 0, 78, 75
1, 12023, Note_on_c, 1, 59, 0
1, 12024, Note_on_c, 0, 78, 0
1, 12024, Note_on_c, 0, 80, 75
1, 12024, Note_on_c, 1, 63, 64
1, 12036, Note_on_c, 0, 80, 0
1, 12036, Note_on_c, 0, 78, 75
1, 12047, Note_on_c, 1, 63, 0
1, 12048, Note_on_c, 0, 78, 0
1, 12048, Note_on_c, 0, 80, 75
1, 12048, Note_on_c, 1, 59, 64
1, 12060, Note_on_c, 0, 80, 0
1, 12060, Note_on_c, 0, 78, 75
1, 12071, Note_on_c, 1, 59, 0
1, 12072, Note_on_c, 0, 78, 0
1, 12072, Note_on_c, 0, 76, 75
1, 12072, Note_on_c, 1, 63, 64
1, 12084, Note_on_c, 0, 76, 0
1, 12084, Note_on_c, 0, 78, 75
1, 12095, Note_on_c, 1, 63, 0
1, 12096, Note_on_c, 0, 78, 0
1, 12096, Note_on_c, 0, 83, 75
1, 12096, Note_on_c, 1, 59, 64
1, 12116, Note_on_c, 0, 83, 0
1, 12119, Note_on_c, 1, 59, 0
1, 12120, Note_on_c, 1, 64, 64
1, 12143, Note_on_c, 1, 64, 0
1, 12144, Note_on_c, 0, 80, 75
1, 12144, Note_on_c, 1, 59, 64
1, 12164, Note_on_c, 0, 80, 0
1, 12167, Note_on_c, 1, 59, 0
1, 12168, Note_on_c, 1, 64, 64
1, 12191, Note_on_c, 1, 64, 0
1, 12192, Note_on_c, 0, 82, 75
1, 12192, Note_on_c, 1, 59, 64
1, 12204, Note_on_c, 0, 82, 0
1, 12204, Note_on_c, 0, 80, 75
1, 12215, Note_on_c, 1, 59, 0
1, 12216, Note_on_c, 0, 80, 0
1, 12216, Note_on_c, 0, 82, 75
1, 12216, Note_on_c, 1, 64, 64
1, 12228, Note_on_c, 0, 82, 0
1, 12228, Note_on_c, 0, 80, 75
1, 12239, Note_on_c, 1, 64, 0
1, 12240, Note_on_c, 0, 80, 0
1, 12240, Note_on_c, 0, 82, 75
1, 12240, Note_on_c, 1, 59, 64
1, 12252, Note_on_c, 0, 82, 0
1, 12252, Note_on_c, 0, 80, 75
1, 12263, Note_on_c, 1, 59, 0
1, 12264, Note_on_c, 0, 80, 0
1, 12264, Note_on_c, 0, 78, 75
1, 12264, Note_on_c, 1, 64, 64
1, 12276, Note_on_c, 0, 78, 0
1, 12276, Note_on_c, 0, 80, 75
1, 12287, Note_on_c, 1, 64, 0
1, 12288, Note_on_c, 0, 80, 0
1, 12288, Note_on_c, 0, 83, 75
1, 12288, Note_on_c, 1, 63, 64
1, 12288, Note_on_c, 1, 59, 64
1, 12336, Note_on_c, 0, 83, 0
1, 12336, Note_on_c, 0, 78, 75
1, 12377, Note_on_c, 1, 63, 0
1, 12377, Note_on_c, 1, 59, 0
1, 12381, Note_on_c, 0, 78, 0
1, 12384, Note_on_c, 0, 83, 76
1, 12432, Note_on_c, 0, 83, 0
1, 12432, Note_on_c, 0, 76, 93
1, 12432, Note_on_c, 1, 61, 64
1, 12432, Note_on_c, 1, 59, 64
1, 12480, Note_on_c, 0, 76, 0
1, 12480, Note_on_c, 0, 83, 77
1, 12521, Note_on_c, 1, 61, 0
1, 12521, Note_on_c, 1, 59, 0
1, 12528, Note_on_c, 0, 83, 0
1, 12528, Note_on_c, 0, 75, 94
1, 12528, Note_on_c, 1, 59, 64
1, 12528, Note_on_c, 1, 56, 64
1, 12576, Note_on_c, 0, 75, 0
1, 12576, Note_on_c, 0, 83, 79
1, 12617, Note_on_c, 1, 59, 0
1, 12617, Note_on_c, 1, 56, 0
1, 12624, Note_on_c, 0, 83, 0
1, 12624, Note_on_c, 0, 75, 80
1, 12624, Note_on_c, 0, 71, 80
1, 12624, Note_on_c, 1, 51, 64
1, 12644, Note_on_c, 0, 75, 0
1, 12644, Note_on_c, 0, 71, 0
1, 12647, Note_on_c, 1, 51, 0
1, 12648, Note_on_c, 1, 52, 64
1, 12671, Note_on_c, 1, 52, 0
1, 12672, Note_on_c, 0, 75, 96
1, 12672, Note_on_c, 0, 71, 96
1, 12672, Note_on_c, 1, 54, 64
1, 12695, Note_on_c, 1, 54, 0
1, 12696, Note_on_c, 1, 53, 64
1, 12719, Note_on_c, 1, 53, 0
1, 12720, Note_on_c, 1, 54, 64
1, 12743, Note_on_c, 1, 54, 0
1, 12744, Note_on_c, 1, 53, 64
1, 12767, Note_on_c, 1, 53, 0
1, 12768, Note_on_c, 0, 75, 0
1, 12768, Note_on_c, 0, 71, 0
1, 12768, Note_on_c, 0, 73, 77
1, 12768, Note_on_c, 0, 70, 77
1, 12768, Note_on_c, 1, 54, 64
1, 12791, Note_on_c, 1, 54, 0
1, 12792, Note_on_c, 1, 49, 64
1, 12815, Note_on_c, 1, 49, 0
1, 12816, Note_on_c, 1, 46, 64
1, 12839, Note_on_c, 1, 46, 0
1, 12840, Note_on_c, 1, 49, 64
1, 12857, Note_on_c, 0, 73, 0
1, 12857, Note_on_c, 0, 70, 0
1, 12863, Note_on_c, 1, 49, 0
1, 12864, Note_on_c, 1, 42, 64
1, 12909, Note_on_c, 1, 42, 0
1, 12912, Note_on_c, 1, 44, 64
1, 12957, Note_on_c, 1, 44, 0
1, 12960, Note_on_c, 1, 42, 64
1, 12972, Note_on_c, 1, 42, 0
1, 12972, Note_on_c, 1, 44, 64
1, 12984, Note_on_c, 1, 44, 0
1, 12984, Note_on_c, 1, 42, 64
1, 13005, Note_on_c, 1, 42, 0
1, 13008, Note_on_c, 1, 40, 64
1, 13053, Note_on_c, 1, 40, 0
1, 13056, Note_on_c, 0, 78, 75
1, 13056, Note_on_c, 1, 39, 64
1, 13079, Note_on_c, 0, 78, 0
1, 13080, Note_on_c, 0, 75, 75
1, 13101, Note_on_c, 1, 39, 0
1, 13103, Note_on_c, 0, 75, 0
1, 13104, Note_on_c, 0, 71, 75
1, 13104, Note_on_c, 1, 51, 64
1, 13127, Note_on_c, 0, 71, 0
1, 13128, Note_on_c, 0, 66, 75
1, 13149, Note_on_c, 1, 51, 0
1, 13151, Note_on_c, 0, 66, 0
1, 13152, Note_on_c, 0, 72, 75
1, 13152, Note_on_c, 1, 52, 64
1, 13175, Note_on_c, 1, 52, 0
1, 13176, Note_on_c, 0, 72, 0
1, 13176, Note_on_c, 0, 73, 75
1, 13176, Note_on_c, 1, 56, 64
1, 13199, Note_on_c, 0, 73, 0
1, 13199, Note_on_c, 1, 56, 0
1, 13200, Note_on_c, 0, 73, 91
1, 13200, Note_on_c, 1, 61, 64
1, 13223, Note_on_c, 1, 61, 0
1, 13224, Note_on_c, 1, 56, 64
1, 13247, Note_on_c, 1, 56, 0
1, 13248, Note_on_c, 1, 52, 64
1, 13271, Note_on_c, 0, 73, 0
1, 13271, Note_on_c, 1, 52, 0
1, 13272, Note_on_c, 0, 75, 75
1, 13272, Note_on_c, 1, 56, 64
1, 13295, Note_on_c, 0, 75, 0
1, 13295, Note_on_c, 1, 56, 0
1, 13296, Note_on_c, 0, 76, 75
1, 13296, Note_on_c, 1, 61, 64
1, 13319, Note_on_c, 0, 76, 0
1, 13319, Note_on_c, 1, 61, 0
1, 13320, Note_on_c, 0, 75, 75
1, 13320, Note_on_c, 1, 56, 64
1, 13343, Note_on_c, 0, 75, 0
1, 13343, Note_on_c, 1, 56, 0
1, 13344, Note_on_c, 0, 73, 75
1, 13344, Note_on_c, 1, 52, 64
1, 13367, Note_on_c, 0, 73, 0
1, 13367, Note_on_c, 1, 52, 0
1, 13368, Note_on_c, 0, 71, 75
1, 13368, Note_on_c, 1, 56, 64
1, 13391, Note_on_c, 0, 71, 0
1, 13391, Note_on_c, 1, 56, 0
1, 13392, Note_on_c, 0, 70, 75
1, 13392, Note_on_c, 1, 61, 64
1, 13415, Note_on_c, 0, 70, 0
1, 13415, Note_on_c, 1, 61, 0
1, 13416, Note_on_c, 0, 68, 75
1, 13416, Note_on_c, 1, 56, 64
1, 13439, Note_on_c, 0, 68, 0
1, 13439, Note_on_c, 1, 56, 0
1, 13440, Note_on_c, 0, 66, 75
1, 13440, Note_on_c, 1, 54, 64
1, 13463, Note_on_c, 1, 54, 0
1, 13464, Note_on_c, 1, 59, 64
1, 13485, Note_on_c, 0, 66, 0
1, 13487, Note_on_c, 1, 59, 0
1, 13488, Note_on_c, 0, 77, 75
1, 13488, Note_on_c, 1, 63, 64
1, 13511, Note_on_c, 1, 63, 0
1, 13512, Note_on_c, 0, 77, 0
1, 13512, Note_on_c, 0, 78, 75
1, 13512, Note_on_c, 1, 59, 64
1, 13535, Note_on_c, 0, 78, 0
1, 13535, Note_on_c, 1, 59, 0
1, 13536, Note_on_c, 0, 76, 75
1, 13536, Note_on_c, 1, 54, 64
1, 13559, Note_on_c, 0, 76, 0
1, 13559, Note_on_c, 1, 54, 0
1, 13560, Note_on_c, 0, 75, 75
1, 13560, Note_on_c, 1, 59, 64
1, 13583, Note_on_c, 0, 75, 0
1, 13583, Note_on_c, 1, 59, 0
1, 13584, Note_on_c, 0, 73, 75
1, 13584, Note_on_c, 1, 63, 64
1, 13607, Note_on_c, 0, 73, 0
1, 13607, Note_on_c, 1, 63, 0
1, 13608, Note_on_c, 0, 71, 75
1, 13608, Note_on_c, 1, 59, 64
1, 13631, Note_on_c, 0, 71, 0
1, 13631, Note_on_c, 1, 59, 0
1, 13632, Note_on_c, 0, 73, 75
1, 13632, Note_on_c, 1, 54, 64
1, 13644, Note_on_c, 0, 73, 0
1, 13644, Note_on_c, 0, 75, 75
1, 13655, Note_on_c, 1, 54, 0
1, 13656, Note_on_c, 0, 75, 0
1, 13656, Note_on_c, 0, 73, 75
1, 13656, Note_on_c, 1, 58, 64
1, 13668, Note_on_c, 0, 73, 0
1, 13668, Note_on_c, 0, 75, 75
1, 13679, Note_on_c, 1, 58, 0
1, 13680, Note_on_c, 0, 75, 0
1, 13680, Note_on_c, 0, 73, 75
1, 13680, Note_on_c, 1, 64, 64
1, 13692, Note_on_c, 0, 73, 0
1, 13692, Note_on_c, 0, 75, 75
1, 13703, Note_on_c, 0, 75, 0
1, 13703, Note_on_c, 0, 73, 75
1, 13703, Note_on_c, 1, 64, 0
1, 13704, Note_on_c, 1, 58, 64
1, 13714, Note_on_c, 0, 73, 0
1, 13714, Note_on_c, 0, 75, 75
1, 13725, Note_on_c, 0, 75, 0
1, 13725, Note_on_c, 0, 73, 75
1, 13727, Note_on_c, 1, 58, 0
1, 13728, Note_on_c, 1, 54, 64
1, 13736, Note_on_c, 0, 73, 0
1, 13736, Note_on_c, 0, 75, 75
1, 13747, Note_on_c, 0, 75, 0
1, 13747, Note_on_c, 0, 73, 75
1, 13751, Note_on_c, 1, 54, 0
1, 13752, Note_on_c, 1, 58, 64
1, 13758, Note_on_c, 0, 73, 0
1, 13758, Note_on_c, 0, 75, 75
1, 13769, Note_on_c, 0, 75, 0
1, 13769, Note_on_c, 0, 73, 75
1, 13775, Note_on_c, 1, 58, 0
1, 13776, Note_on_c, 1, 64, 64
1, 13780, Note_on_c, 0, 73, 0
1, 13780, Note_on_c, 0, 71, 75
1, 13799, Note_on_c, 1, 64, 0
1, 13800, Note_on_c, 1, 58, 64
1, 13802, Note_on_c, 0, 71, 0
1, 13802, Note_on_c, 0, 73, 75
1, 13823, Note_on_c, 1, 58, 0
1, 13824, Note_on_c, 0, 73, 0
1, 13824, Note_on_c, 0, 71, 91
1, 13824, Note_on_c, 1, 63, 64
1, 13824, Note_on_c, 1, 59, 64
1, 13848, Note_on_c, 0, 71, 0
1, 13848, Note_on_c, 0, 66, 75
1, 13871, Note_on_c, 0, 66, 0
1, 13872, Note_on_c, 0, 68, 75
1, 13895, Note_on_c, 0, 68, 0
1, 13896, Note_on_c, 0, 70, 76
1, 13913, Note_on_c, 1, 63, 0
1, 13913, Note_on_c, 1, 59, 0
1, 13919, Note_on_c, 0, 70, 0
1, 13920, Note_on_c, 0, 71, 76
1, 13943, Note_on_c, 0, 71, 0
1, 13944, Note_on_c, 0, 73, 77
1, 13967, Note_on_c, 0, 73, 0
1, 13968, Note_on_c, 0, 75, 78
1, 13991, Note_on_c, 0, 75, 0
1, 13992, Note_on_c, 0, 77, 78
1, 14015, Note_on_c, 0, 77, 0
1, 14016, Note_on_c, 0, 78, 95
1, 14040, Note_on_c, 0, 78, 0
1, 14040, Note_on_c, 0, 73, 80
1, 14040, Note_on_c, 1, 61, 80
1, 14063, Note_on_c, 0, 73, 0
1, 14063, Note_on_c, 1, 61, 0
1, 14064, Note_on_c, 0, 75, 80
1, 14064, Note_on_c, 1, 63, 80
1, 14087, Note_on_c, 0, 75, 0
1, 14087, Note_on_c, 1, 63, 0
1, 14088, Note_on_c, 0, 77, 80
1, 14088, Note_on_c, 1, 65, 80
1, 14111, Note_on_c, 0, 77, 0
1, 14111, Note_on_c, 1, 65, 0
1, 14112, Note_on_c, 0, 78, 80
1, 14112, Note_on_c, 1, 66, 80
1, 14135, Note_on_c, 0, 78, 0
1, 14135, Note_on_c, 1, 66, 0
1, 14136, Note_on_c, 0, 80, 80
1, 14136, Note_on_c, 1, 68, 80
1, 14159, Note_on_c, 0, 80, 0
1, 14159, Note_on_c, 1, 68, 0
1, 14160, Note_on_c, 0, 82, 80
1, 14160, Note_on_c, 1, 70, 80
1, 14183, Note_on_c, 0, 82, 0
1, 14183, Note_on_c, 1, 70, 0
1, 14184, Note_on_c, 0, 84, 80
1, 14184, Note_on_c, 1, 72, 80
1, 14207, Note_on_c, 0, 84, 0
1, 14207, Note_on_c, 1, 72, 0
1, 14208, Note_on_c, 0, 85, 96
1, 14208, Note_on_c, 1, 73, 80
1, 14253, Note_on_c, 1, 73, 0
1, 14256, Note_on_c, 0, 85, 0
1, 14280, Note_on_c, 0, 84, 80
1, 14280, Note_on_c, 1, 72, 80
1, 14304, Note_on_c, 0, 84, 0
1, 14304, Note_on_c, 0, 85, 80
1, 14304, Note_on_c, 1, 72, 0
1, 14304, Note_on_c, 1, 73, 80
1, 14349, Note_on_c, 0, 85, 0
1, 14349, Note_on_c, 1, 73, 0
1, 14376, Note_on_c, 0, 84, 80
1, 14376, Note_on_c, 1, 72, 80
1, 14400, Note_on_c, 0, 84, 0
1, 14400, Note_on_c, 0, 85, 80
1, 14400, Note_on_c, 1, 72, 0
1, 14400, Note_on_c, 1, 73, 80
1, 14489, Note_on_c, 0, 85, 0
1, 14489, Note_on_c, 1, 73, 0
1, 14592, Note_on_c, 0, 87, 96
1, 14592, Note_on_c, 0, 83, 96
1, 14640, Note_on_c, 0, 87, 0
1, 14640, Note_on_c, 0, 83, 0
1, 14640, Note_on_c, 0, 85, 80
1, 14640, Note_on_c, 0, 82, 80
1, 14685, Note_on_c, 0, 85, 0
1, 14685, Note_on_c, 0, 82, 0
1, 14688, Note_on_c, 0, 83, 79
1, 14688, Note_on_c, 0, 80, 79
1, 14736, Note_on_c, 0, 83, 0
1, 14736, Note_on_c, 0, 80, 0
1, 14736, Note_on_c, 0, 82, 78
1, 14736, Note_on_c, 0, 78, 78
1, 14781, Note_on_c, 0, 82, 0
1, 14781, Note_on_c, 0, 78, 0
1, 14784, Note_on_c, 0, 85, 93
1, 14784, Note_on_c, 0, 82, 93
1, 14832, Note_on_c, 0, 85, 0
1, 14832, Note_on_c, 0, 82, 0
1, 14832, Note_on_c, 0, 83, 77
1, 14832, Note_on_c, 0, 80, 77
1, 14877, Note_on_c, 0, 83, 0
1, 14877, Note_on_c, 0, 80, 0
1, 14880, Note_on_c, 0, 82, 76
1, 14880, Note_on_c, 0, 78, 76
1, 14928, Note_on_c, 0, 82, 0
1, 14928, Note_on_c, 0, 78, 0
1, 14928, Note_on_c, 0, 80, 75
1, 14928, Note_on_c, 0, 77, 75
1, 14973, Note_on_c, 0, 80, 0
1, 14973, Note_on_c, 0, 77, 0
1, 14976, Note_on_c, 0, 78, 75
1, 14976, Note_on_c, 1, 61, 64
1, 14999, Note_on_c, 1, 61, 0
1, 15000, Note_on_c, 0, 78, 0
1, 15000, Note_on_c, 0, 73, 75
1, 15000, Note_on_c, 1, 70, 64
1, 15023, Note_on_c, 0, 73, 0
1, 15023, Note_on_c, 1, 70, 0
1, 15024, Note_on_c, 0, 73, 96
1, 15024, Note_on_c, 1, 66, 64
1, 15047, Note_on_c, 1, 66, 0
1, 15048, Note_on_c, 1, 70, 64
1, 15071, Note_on_c, 1, 70, 0
1, 15072, Note_on_c, 1, 61, 64
1, 15095, Note_on_c, 1, 61, 0
1, 15096, Note_on_c, 1, 70, 64
1, 15119, Note_on_c, 1, 70, 0
1, 15120, Note_on_c, 0, 73, 0
1, 15120, Note_on_c, 0, 78, 80
1, 15120, Note_on_c, 1, 66, 64
1, 15143, Note_on_c, 1, 66, 0
1, 15144, Note_on_c, 1, 70, 64
1, 15167, Note_on_c, 1, 70, 0
1, 15168, Note_on_c, 1, 61, 64
1, 15191, Note_on_c, 1, 61, 0
1, 15192, Note_on_c, 1, 70, 64
1, 15209, Note_on_c, 0, 78, 0
1, 15215, Note_on_c, 1, 70, 0
1, 15216, Note_on_c, 0, 82, 80
1, 15216, Note_on_c, 1, 66, 64
1, 15239, Note_on_c, 1, 66, 0
1, 15240, Note_on_c, 1, 70, 64
1, 15263, Note_on_c, 1, 70, 0
1, 15264, Note_on_c, 1, 61, 64
1, 15287, Note_on_c, 0, 82, 0
1, 15287, Note_on_c, 1, 61, 0
1, 15288, Note_on_c, 1, 70, 64
1, 15294, Note_on_c, 0, 80, 80
1, 15300, Note_on_c, 0, 80, 0
1, 15300, Note_on_c, 0, 78, 80
1, 15306, Note_on_c, 0, 78, 0
1, 15306, Note_on_c, 0, 77, 80
1, 15311, Note_on_c, 1, 70, 0
1, 15312, Note_on_c, 0, 77, 0
1, 15312, Note_on_c, 0, 78, 80
1, 15312, Note_on_c, 1, 66, 64
1, 15335, Note_on_c, 1, 66, 0
1, 15336, Note_on_c, 1, 70, 64
1, 15357, Note_on_c, 0, 78, 0
1, 15359, Note_on_c, 1, 70, 0
1, 15360, Note_on_c, 0, 77, 80
1, 15360, Note_on_c, 1, 61, 64
1, 15380, Note_on_c, 0, 77, 0
1, 15383, Note_on_c, 1, 61, 0
1, 15384, Note_on_c, 1, 71, 64
1, 15407, Note_on_c, 1, 71, 0
1, 15408, Note_on_c, 0, 80, 97
1, 15408, Note_on_c, 1, 68, 64
1, 15431, Note_on_c, 1, 68, 0
1, 15432, Note_on_c, 1, 71, 64
1, 15455, Note_on_c, 1, 71, 0
1, 15456, Note_on_c, 1, 61, 64
1, 15479, Note_on_c, 1, 61, 0
1, 15480, Note_on_c, 1, 71, 64
1, 15503, Note_on_c, 1, 71, 0
1, 15504, Note_on_c, 0, 80, 0
1, 15504, Note_on_c, 0, 83, 83
1, 15504, Note_on_c, 1, 68, 64
1, 15527, Note_on_c, 1, 68, 0
1, 15528, Note_on_c, 1, 71, 64
1, 15551, Note_on_c, 1, 71, 0
1, 15552, Note_on_c, 1, 61, 64
1, 15575, Note_on_c, 1, 61, 0
1, 15576, Note_on_c, 1, 71, 64
1, 15593, Note_on_c, 0, 83, 0
1, 15599, Note_on_c, 1, 71, 0
1, 15600, Note_on_c, 0, 86, 86
1, 15600, Note_on_c, 1, 68, 64
1, 15623, Note_on_c, 1, 68, 0
1, 15624, Note_on_c, 1, 71, 64
1, 15647, Note_on_c, 1, 71, 0
1, 15648, Note_on_c, 1, 61, 64
1, 15671, Note_on_c, 1, 61, 0
1, 15672, Note_on_c, 1, 71, 64
1, 15689, Note_on_c, 0, 86, 0
1, 15695, Note_on_c, 1, 71, 0
1, 15696, Note_on_c, 0, 77, 84
1, 15696, Note_on_c, 1, 68, 64
1, 15719, Note_on_c, 1, 68, 0
1, 15720, Note_on_c, 1, 71, 64
1, 15741, Note_on_c, 0, 77, 0
1, 15743, Note_on_c, 1, 71, 0
1, 15744, Note_on_c, 0, 78, 83
1, 15744, Note_on_c, 1, 61, 64
1, 15764, Note_on_c, 0, 78, 0
1, 15767, Note_on_c, 1, 61, 0
1, 15768, Note_on_c, 1, 69, 64
1, 15791, Note_on_c, 1, 69, 0
1, 15792, Note_on_c, 0, 78, 98
1, 15792, Note_on_c, 1, 66, 64
1, 15815, Note_on_c, 1, 66, 0
1, 15816, Note_on_c, 1, 69, 64
1, 15839, Note_on_c, 1, 69, 0
1, 15840, Note_on_c, 1, 61, 64
1, 15863, Note_on_c, 1, 61, 0
1, 15864, Note_on_c, 1, 69, 64
1, 15887, Note_on_c, 1, 69, 0
1, 15888, Note_on_c, 0, 78, 0
1, 15888, Note_on_c, 0, 78, 80
1, 15888, Note_on_c, 1, 66, 64
1, 15911, Note_on_c, 1, 66, 0
1, 15912, Note_on_c, 1, 69, 64
1, 15935, Note_on_c, 1, 69, 0
1, 15936, Note_on_c, 1, 61, 64
1, 15959, Note_on_c, 1, 61, 0
1, 15960, Note_on_c, 1, 69, 64
1, 15977, Note_on_c, 0, 78, 0
1, 15983, Note_on_c, 1, 69, 0
1, 15984, Note_on_c, 0, 78, 80
1, 15984, Note_on_c, 1, 66, 64
1, 16007, Note_on_c, 1, 66, 0
1, 16008, Note_on_c, 1, 69, 64
1, 16031, Note_on_c, 1, 69, 0
1, 16032, Note_on_c, 1, 61, 64
1, 16055, Note_on_c, 0, 78, 0
1, 16055, Note_on_c, 1, 61, 0
1, 16056, Note_on_c, 1, 69, 64
1, 16062, Note_on_c, 0, 80, 80
1, 16068, Note_on_c, 0, 80, 0
1, 16068, Note_on_c, 0, 78, 80
1, 16074, Note_on_c, 0, 78, 0
1, 16074, Note_on_c, 0, 77, 80
1, 16079, Note_on_c, 1, 69, 0
1, 16080, Note_on_c, 0, 77, 0
1, 16080, Note_on_c, 0, 78, 80
1, 16080, Note_on_c, 1, 66, 64
1, 16103, Note_on_c, 1, 66, 0
1, 16104, Note_on_c, 1, 69, 64
1, 16125, Note_on_c, 0, 78, 0
1, 16127, Note_on_c, 1, 69, 0
1, 16128, Note_on_c, 0, 78, 80
1, 16128, Note_on_c, 1, 62, 64
1, 16148, Note_on_c, 0, 78, 0
1, 16151, Note_on_c, 1, 62, 0
1, 16152, Note_on_c, 1, 69, 64
1, 16175, Note_on_c, 1, 69, 0
1, 16176, Note_on_c, 0, 78, 96
1, 16176, Note_on_c, 1, 66, 64
1, 16199, Note_on_c, 1, 66, 0
1, 16200, Note_on_c, 1, 69, 64
1, 16223, Note_on_c, 1, 69, 0
1, 16224, Note_on_c, 1, 62, 64
1, 16247, Note_on_c, 1, 62, 0
1, 16248, Note_on_c, 1, 69, 64
1, 16271, Note_on_c, 1, 69, 0
1, 16272, Note_on_c, 0, 78, 0
1, 16272, Note_on_c, 0, 78, 80
1, 16272, Note_on_c, 1, 66, 64
1, 16295, Note_on_c, 1, 66, 0
1, 16296, Note_on_c, 1, 69, 64
1, 16319, Note_on_c, 1, 69, 0
1, 16320, Note_on_c, 1, 62, 64
1, 16343, Note_on_c, 1, 62, 0
1, 16344, Note_on_c, 1, 69, 64
1, 16361, Note_on_c, 0, 78, 0
1, 16367, Note_on_c, 1, 69, 0
1, 16368, Note_on_c, 0, 78, 80
1, 16368, Note_on_c, 1, 66, 64
1, 16391, Note_on_c, 1, 66, 0
1, 16392, Note_on_c, 1, 69, 64
1, 16415, Note_on_c, 1, 69, 0
1, 16416, Note_on_c, 1, 62, 64
1, 16439, Note_on_c, 0, 78, 0
1, 16439, Note_on_c, 1, 62, 0
1, 16440, Note_on_c, 1, 69, 64
1, 16446, Note_on_c, 0, 80, 80
1, 16452, Note_on_c, 0, 80, 0
1, 16452, Note_on_c, 0, 78, 80
1, 16458, Note_on_c, 0, 78, 0
1, 16458, Note_on_c, 0, 77, 80
1, 16463, Note_on_c, 1, 69, 0
1, 16464, Note_on_c, 0, 77, 0
1, 16464, Note_on_c, 0, 78, 80
1, 16464, Note_on_c, 1, 66, 64
1, 16487, Note_on_c, 1, 66, 0
1, 16488, Note_on_c, 1, 69, 64
1, 16509, Note_on_c, 0, 78, 0
1, 16511, Note_on_c, 1, 69, 0
1, 16512, Note_on_c, 0, 78, 96
1, 16512, Note_on_c, 1, 60, 64
1, 16535, Note_on_c, 1, 60, 0
1, 16536, Note_on_c, 1, 69, 64
1, 16559, Note_on_c, 1, 69, 0
1, 16560, Note_on_c, 1, 66, 64
1, 16583, Note_on_c, 1, 66, 0
1, 16584, Note_on_c, 1, 69, 64
1, 16607, Note_on_c, 1, 69, 0
1, 16608, Note_on_c, 1, 60, 64
1, 16631, Note_on_c, 1, 60, 0
1, 16632, Note_on_c, 1, 69, 64
1, 16655, Note_on_c, 1, 69, 0
1, 16656, Note_on_c, 0, 78, 0
1, 16656, Note_on_c, 0, 77, 80
1, 16656, Note_on_c, 1, 66, 64
1, 16679, Note_on_c, 1, 66, 0
1, 16680, Note_on_c, 1, 69, 64
1, 16703, Note_on_c, 1, 69, 0
1, 16704, Note_on_c, 0, 77, 0
1, 16704, Note_on_c, 0, 78, 80
1, 16704, Note_on_c, 1, 60, 64
1, 16724, Note_on_c, 0, 78, 0
1, 16727, Note_on_c, 1, 60, 0
1, 16728, Note_on_c, 1, 69, 64
1, 16751, Note_on_c, 1, 69, 0
1, 16752, Note_on_c, 0, 77, 80
1, 16752, Note_on_c, 1, 66, 64
1, 16775, Note_on_c, 1, 66, 0
1, 16776, Note_on_c, 1, 69, 64
1, 16799, Note_on_c, 1, 69, 0
1, 16800, Note_on_c, 0, 77, 0
1, 16800, Note_on_c, 0, 78, 80
1, 16800, Note_on_c, 1, 60, 64
1, 16820, Note_on_c, 0, 78, 0
1, 16823, Note_on_c, 1, 60, 0
1, 16824, Note_on_c, 1, 69, 64
1, 16847, Note_on_c, 1, 69, 0
1, 16848, Note_on_c, 0, 77, 80
1, 16848, Note_on_c, 1, 66, 64
1, 16871, Note_on_c, 1, 66, 0
1, 16872, Note_on_c, 1, 69, 64
1, 16895, Note_on_c, 1, 69, 0
1, 16896, Note_on_c, 0, 77, 0
1, 16896, Note_on_c, 0, 78, 80
1, 16896, Note_on_c, 1, 66, 80
1, 16896, Note_on_c, 1, 63, 80
1, 16896, Note_on_c, 1, 59, 80
1, 16916, Note_on_c, 0, 78, 0
1, 16944, Note_on_c, 0, 81, 80
1, 16989, Note_on_c, 0, 81, 0
1, 16992, Note_on_c, 0, 80, 80
1, 16992, Note_on_c, 1, 66, 0
1, 16992, Note_on_c, 1, 63, 0
1, 16992, Note_on_c, 1, 59, 0
1, 17037, Note_on_c, 0, 80, 0
1, 17040, Note_on_c, 0, 78, 80
1, 17085, Note_on_c, 0, 78, 0
1, 17088, Note_on_c, 1, 66, 64
1, 17088, Note_on_c, 1, 63, 64
1, 17088, Note_on_c, 1, 59, 64
1, 17136, Note_on_c, 0, 84, 80
1, 17177, Note_on_c, 1, 66, 0
1, 17177, Note_on_c, 1, 63, 0
1, 17177, Note_on_c, 1, 59, 0
1, 17181, Note_on_c, 0, 84, 0
1, 17184, Note_on_c, 0, 83, 80
1, 17229, Note_on_c, 0, 83, 0
1, 17232, Note_on_c, 0, 81, 80
1, 17277, Note_on_c, 0, 81, 0
1, 17280, Note_on_c, 1, 67, 80
1, 17280, Note_on_c, 1, 64, 80
1, 17280, Note_on_c, 1, 59, 80
1, 17328, Note_on_c, 0, 83, 80
1, 17328, Note_on_c, 0, 79, 80
1, 17373, Note_on_c, 0, 83, 0
1, 17373, Note_on_c, 0, 79, 0
1, 17376, Note_on_c, 0, 81, 80
1, 17376, Note_on_c, 0, 78, 80
1, 17376, Note_on_c, 1, 67, 0
1, 17376, Note_on_c, 1, 64, 0
1, 17376, Note_on_c, 1, 59, 0
1, 17421, Note_on_c, 0, 81, 0
1, 17421, Note_on_c, 0, 78, 0
1, 17424, Note_on_c, 0, 79, 80
1, 17424, Note_on_c, 0, 76, 80
1, 17469, Note_on_c, 0, 79, 0
1, 17469, Note_on_c, 0, 76, 0
1, 17472, Note_on_c, 1, 67, 64
1, 17472, Note_on_c, 1, 64, 64
1, 17472, Note_on_c, 1, 59, 64
1, 17520, Note_on_c, 0, 71, 80
1, 17520, Note_on_c, 0, 67, 80
1, 17561, Note_on_c, 1, 67, 0
1, 17561, Note_on_c, 1, 64, 0
1, 17561, Note_on_c, 1, 59, 0
1, 17565, Note_on_c, 0, 71, 0
1, 17565, Note_on_c, 0, 67, 0
1, 17568, Note_on_c, 0, 69, 80
1, 17568, Note_on_c, 0, 66, 80
1, 17613, Note_on_c, 0, 69, 0
1, 17613, Note_on_c, 0, 66, 0
1, 17616, Note_on_c, 0, 67, 80
1, 17616, Note_on_c, 0, 64, 80
1, 17661, Note_on_c, 0, 67, 0
1, 17661, Note_on_c, 0, 64, 0
1, 17664, Note_on_c, 0, 65, 80
1, 17664, Note_on_c, 1, 47, 64
1, 17676, Note_on_c, 0, 65, 0
1, 17677, Note_on_c, 0, 67, 80
1, 17687, Note_on_c, 1, 47, 0
1, 17688, Note_on_c, 1, 50, 64
1, 17689, Note_on_c, 0, 67, 0
1, 17690, Note_on_c, 0, 65, 80
1, 17702, Note_on_c, 0, 65, 0
1, 17703, Note_on_c, 0, 67, 80
1, 17711, Note_on_c, 1, 50, 0
1, 17712, Note_on_c, 1, 49, 64
1, 17715, Note_on_c, 0, 67, 0
1, 17716, Note_on_c, 0, 65, 80
1, 17728, Note_on_c, 0, 65, 0
1, 17729, Note_on_c, 0, 67, 80
1, 17735, Note_on_c, 1, 49, 0
1, 17736, Note_on_c, 1, 50, 64
1, 17741, Note_on_c, 0, 67, 0
1, 17742, Note_on_c, 0, 65, 80
1, 17754, Note_on_c, 0, 65, 0
1, 17755, Note_on_c, 0, 67, 80
1, 17759, Note_on_c, 1, 50, 0
1, 17760, Note_on_c, 1, 47, 64
1, 17767, Note_on_c, 0, 67, 0
1, 17768, Note_on_c, 0, 65, 80
1, 17780, Note_on_c, 0, 65, 0
1, 17781, Note_on_c, 0, 67, 80
1, 17783, Note_on_c, 1, 47, 0
1, 17784, Note_on_c, 1, 50, 64
1, 17793, Note_on_c, 0, 67, 0
1, 17794, Note_on_c, 0, 65, 80
1, 17806, Note_on_c, 0, 65, 0
1, 17807, Note_on_c, 0, 64, 80
1, 17807, Note_on_c, 1, 50, 0
1, 17808, Note_on_c, 1, 49, 64
1, 17831, Note_on_c, 1, 49, 0
1, 17832, Note_on_c, 0, 64, 0
1, 17832, Note_on_c, 0, 65, 80
1, 17832, Note_on_c, 1, 50, 64
1, 17855, Note_on_c, 1, 50, 0
1, 17856, Note_on_c, 0, 65, 0
1, 17856, Note_on_c, 0, 64, 80
1, 17856, Note_on_c, 1, 48, 64
1, 17879, Note_on_c, 1, 48, 0
1, 17880, Note_on_c, 1, 55, 64
1, 17903, Note_on_c, 1, 55, 0
1, 17904, Note_on_c, 1, 52, 64
1, 17927, Note_on_c, 1, 52, 0
1, 17928, Note_on_c, 1, 55, 64
1, 17945, Note_on_c, 0, 64, 0
1, 17951, Note_on_c, 1, 55, 0
1, 17952, Note_on_c, 1, 48, 64
1, 17975, Note_on_c, 1, 48, 0
1, 17976, Note_on_c, 1, 55, 64
1, 17999, Note_on_c, 1, 55, 0
1, 18000, Note_on_c, 1, 52, 64
1, 18023, Note_on_c, 1, 52, 0
1, 18024, Note_on_c, 1, 55, 64
1, 18047, Note_on_c, 1, 55, 0
1, 18048, Note_on_c, 0, 65, 80
1, 18048, Note_on_c, 1, 59, 64
1, 18048, Note_on_c, 1, 50, 64
1, 18048, Note_on_c, 1, 47, 64
1, 18048, Note_on_c, 1, 43, 64
1, 18071, Note_on_c, 1, 59, 0
1, 18072, Note_on_c, 1, 62, 64
1, 18095, Note_on_c, 1, 62, 0
1, 18096, Note_on_c, 1, 61, 64
1, 18119, Note_on_c, 1, 61, 0
1, 18120, Note_on_c, 1, 59, 64
1, 18143, Note_on_c, 1, 59, 0
1, 18168, Note_on_c, 1, 62, 64
1, 18191, Note_on_c, 1, 62, 0
1, 18192, Note_on_c, 1, 61, 64
1, 18215, Note_on_c, 1, 61, 0
1, 18216, Note_on_c, 1, 59, 64
1, 18239, Note_on_c, 1, 59, 0
1, 18240, Note_on_c, 0, 65, 0
1, 18240, Note_on_c, 0, 66, 80
1, 18240, Note_on_c, 1, 58, 64
1, 18240, Note_on_c, 1, 50, 0
1, 18240, Note_on_c, 1, 47, 0
1, 18240, Note_on_c, 1, 43, 0
1, 18240, Note_on_c, 1, 49, 64
1, 18240, Note_on_c, 1, 42, 64
1, 18263, Note_on_c, 0, 66, 0
1, 18264, Note_on_c, 0, 61, 80
1, 18287, Note_on_c, 0, 61, 0
1, 18288, Note_on_c, 0, 63, 80
1, 18311, Note_on_c, 0, 63, 0
1, 18312, Note_on_c, 0, 65, 80
1, 18329, Note_on_c, 1, 58, 0
1, 18329, Note_on_c, 1, 49, 0
1, 18329, Note_on_c, 1, 42, 0
1, 18335, Note_on_c, 0, 65, 0
1, 18336, Note_on_c, 0, 66, 80
1, 18359, Note_on_c, 0, 66, 0
1, 18360, Note_on_c, 0, 68, 80
1, 18383, Note_on_c, 0, 68, 0
1, 18384, Note_on_c, 0, 70, 80
1, 18407, Note_on_c, 0, 70, 0
1, 18408, Note_on_c, 0, 71, 80
1, 18431, Note_on_c, 0, 71, 0
1, 18432, Note_on_c, 0, 73, 80
1, 18432, Note_on_c, 1, 49, 64
1, 18455, Note_on_c, 1, 49, 0
1, 18456, Note_on_c, 1, 58, 64
1, 18477, Note_on_c, 0, 73, 0
1, 18479, Note_on_c, 1, 58, 0
1, 18480, Note_on_c, 0, 75, 80
1, 18480, Note_on_c, 1, 54, 64
1, 18503, Note_on_c, 0, 75, 0
1, 18503, Note_on_c, 1, 54, 0
1, 18504, Note_on_c, 0, 73, 80
1, 18504, Note_on_c, 1, 58, 64
1, 18527, Note_on_c, 0, 73, 0
1, 18527, Note_on_c, 1, 58, 0
1, 18528, Note_on_c, 0, 71, 80
1, 18528, Note_on_c, 1, 49, 64
1, 18551, Note_on_c, 0, 71, 0
1, 18551, Note_on_c, 1, 49, 0
1, 18552, Note_on_c, 0, 70, 80
1, 18552, Note_on_c, 1, 58, 64
1, 18575, Note_on_c, 0, 70, 0
1, 18575, Note_on_c, 1, 58, 0
1, 18576, Note_on_c, 0, 68, 80
1, 18576, Note_on_c, 1, 54, 64
1, 18599, Note_on_c, 0, 68, 0
1, 18599, Note_on_c, 1, 54, 0
1, 18600, Note_on_c, 0, 66, 80
1, 18600, Note_on_c, 1, 58, 64
1, 18623, Note_on_c, 0, 66, 0
1, 18623, Note_on_c, 1, 58, 0
1, 18624, Note_on_c, 0, 68, 80
1, 18624, Note_on_c, 1, 49, 64
1, 18636, Note_on_c, 0, 68, 0
1, 18636, Note_on_c, 0, 70, 80
1, 18647, Note_on_c, 1, 49, 0
1, 18648, Note_on_c, 0, 70, 0
1, 18648, Note_on_c, 0, 68, 80
1, 18648, Note_on_c, 1, 59, 64
1, 18660, Note_on_c, 0, 68, 0
1, 18660, Note_on_c, 0, 70, 80
1, 18671, Note_on_c, 1, 59, 0
1, 18672, Note_on_c, 0, 70, 0
1, 18672, Note_on_c, 0, 68, 80
1, 18672, Note_on_c, 1, 53, 64
1, 18684, Note_on_c, 0, 68, 0
1, 18684, Note_on_c, 0, 70, 80
1, 18695, Note_on_c, 0, 70, 0
1, 18695, Note_on_c, 0, 68, 80
1, 18695, Note_on_c, 1, 53, 0
1, 18696, Note_on_c, 1, 59, 64
1, 18706, Note_on_c, 0, 68, 0
1, 18706, Note_on_c, 0, 70, 80
1, 18717, Note_on_c, 0, 70, 0
1, 18717, Note_on_c, 0, 68, 80
1, 18719, Note_on_c, 1, 59, 0
1, 18720, Note_on_c, 1, 49, 64
1, 18728, Note_on_c, 0, 68, 0
1, 18728, Note_on_c, 0, 70, 80
1, 18739, Note_on_c, 0, 70, 0
1, 18739, Note_on_c, 0, 68, 80
1, 18743, Note_on_c, 1, 49, 0
1, 18744, Note_on_c, 1, 59, 64
1, 18750, Note_on_c, 0, 68, 0
1, 18750, Note_on_c, 0, 70, 80
1, 18761, Note_on_c, 0, 70, 0
1, 18761, Note_on_c, 0, 68, 80
1, 18767, Note_on_c, 1, 59, 0
1, 18768, Note_on_c, 1, 53, 64
1, 18772, Note_on_c, 0, 68, 0
1, 18772, Note_on_c, 0, 66, 80
1, 18791, Note_on_c, 1, 53, 0
1, 18792, Note_on_c, 1, 59, 64
1, 18794, Note_on_c, 0, 66, 0
1, 18794, Note_on_c, 0, 68, 80
1, 18815, Note_on_c, 1, 59, 0
1, 18816, Note_on_c, 0, 68, 0
1, 18816, Note_on_c, 0, 66, 80
1, 18816, Note_on_c, 1, 58, 64
1, 18816, Note_on_c, 1, 54, 64
1, 18905, Note_on_c, 0, 66, 0
1, 18905, Note_on_c, 1, 58, 0
1, 18905, Note_on_c, 1, 54, 0
1, 19008, Note_on_c, 0, 73, 75
1, 19038, Note_on_c, 0, 73, 0
1, 19040, Note_on_c, 0, 70, 75
1, 19070, Note_on_c, 0, 70, 0
1, 19072, Note_on_c, 0, 66, 75
1, 19102, Note_on_c, 0, 66, 0
1, 19104, Note_on_c, 0, 65, 75
1, 19104, Note_on_c, 1, 56, 75
1, 19104, Note_on_c, 1, 49, 75
1, 19134, Note_on_c, 0, 65, 0
1, 19136, Note_on_c, 0, 68, 75
1, 19166, Note_on_c, 0, 68, 0
1, 19168, Note_on_c, 0, 71, 75
1, 19193, Note_on_c, 1, 56, 0
1, 19193, Note_on_c, 1, 49, 0
1, 19198, Note_on_c, 0, 71, 0
1, 19200, Note_on_c, 0, 70, 75
1, 19200, Note_on_c, 1, 54, 75
1, 19289, Note_on_c, 0, 70, 0
1, 19289, Note_on_c, 1, 54, 0
1, 19392, Note_on_c, 0, 85, 70
1, 19422, Note_on_c, 0, 85, 0
1, 19424, Note_on_c, 0, 82, 70
1, 19454, Note_on_c, 0, 82, 0
1, 19456, Note_on_c, 0, 78, 70
1, 19486, Note_on_c, 0, 78, 0
1, 19488, Note_on_c, 0, 83, 70
1, 19488, Note_on_c, 1, 68, 70
1, 19488, Note_on_c, 1, 61, 70
1, 19518, Note_on_c, 0, 83, 0
1, 19520, Note_on_c, 0, 80, 70
1, 19550, Note_on_c, 0, 80, 0
1, 19552, Note_on_c, 0, 77, 70
1, 19577, Note_on_c, 1, 68, 0
1, 19577, Note_on_c, 1, 61, 0
1, 19582, Note_on_c, 0, 77, 0
1, 19584, Note_on_c, 0, 78, 70
1, 19584, Note_on_c, 0, 70, 70
1, 19584, Note_on_c, 1, 66, 70
1, 19623, Note_on_c, 0, 78, 0
1, 19623, Note_on_c, 0, 70, 0
1, 19623, Note_on_c, 1, 66, 0
1, 19680, Note_on_c, 0, 82, 64
1, 19680, Note_on_c, 0, 73, 64
1, 19719, Note_on_c, 0, 82, 0
1, 19719, Note_on_c, 0, 73, 0
1, 19776, Note_on_c, 0, 78, 64
1, 19776, Note_on_c, 0, 70, 64
1, 19865, Note_on_c, 0, 78, 0
1, 19865, Note_on_c, 0, 70, 0
1, 19968, Note_on_c, 0, 83, 64
1, 19968, Note_on_c, 0, 74, 64
1, 20007, Note_on_c, 0, 83, 0
1, 20007, Note_on_c, 0, 74, 0
1, 20064, Note_on_c, 0, 86, 64
1, 20064, Note_on_c, 0, 78, 64
1, 20103, Note_on_c, 0, 86, 0
1, 20103, Note_on_c, 0, 78, 0
1, 20160, Note_on_c, 0, 83, 64
1, 20160, Note_on_c, 0, 74, 64
1, 20249, Note_on_c, 0, 83, 0
1, 20249, Note_on_c, 0, 74, 0
1, 20352, Note_on_c, 0, 78, 64
1, 20352, Note_on_c, 0, 71, 64
1, 20391, Note_on_c, 0, 78, 0
1, 20391, Note_on_c, 0, 71, 0
1, 20448, Note_on_c, 0, 83, 64
1, 20448, Note_on_c, 0, 74, 64
1, 20487, Note_on_c, 0, 83, 0
1, 20487, Note_on_c, 0, 74, 0
1, 20544, Note_on_c, 0, 78, 64
1, 20544, Note_on_c, 0, 71, 64
1, 20633, Note_on_c, 0, 78, 0
1, 20633, Note_on_c, 0, 71, 0
1, 20736, Note_on_c, 0, 74, 64
1, 20736, Note_on_c, 0, 66, 64
1, 20775, Note_on_c, 0, 74, 0
1, 20775, Note_on_c, 0, 66, 0
1, 20832, Note_on_c, 0, 78, 64
1, 20832, Note_on_c, 0, 71, 64
1, 20871, Note_on_c, 0, 78, 0
1, 20871, Note_on_c, 0, 71, 0
1, 20928, Note_on_c, 0, 74, 64
1, 20928, Note_on_c, 0, 66, 64
1, 21017, Note_on_c, 0, 74, 0
1, 21017, Note_on_c, 0, 66, 0
1, 21120, Note_on_c, 0, 79, 80
1, 21120, Note_on_c, 0, 76, 80
1, 21120, Note_on_c, 1, 42, 75
1, 21143, Note_on_c, 1, 42, 0
1, 21144, Note_on_c, 1, 46, 75
1, 21159, Note_on_c, 0, 79, 0
1, 21159, Note_on_c, 0, 76, 0
1, 21167, Note_on_c, 1, 46, 0
1, 21168, Note_on_c, 1, 49, 75
1, 21191, Note_on_c, 1, 49, 0
1, 21192, Note_on_c, 1, 52, 75
1, 21215, Note_on_c, 1, 52, 0
1, 21216, Note_on_c, 0, 79, 96
1, 21216, Note_on_c, 0, 76, 96
1, 21216, Note_on_c, 1, 42, 75
1, 21239, Note_on_c, 1, 42, 0
1, 21240, Note_on_c, 1, 46, 75
1, 21263, Note_on_c, 1, 46, 0
1, 21264, Note_on_c, 1, 49, 75
1, 21287, Note_on_c, 1, 49, 0
1, 21288, Note_on_c, 1, 52, 75
1, 21311, Note_on_c, 1, 52, 0
1, 21312, Note_on_c, 1, 42, 75
1, 21335, Note_on_c, 1, 42, 0
1, 21336, Note_on_c, 1, 46, 75
1, 21359, Note_on_c, 1, 46, 0
1, 21360, Note_on_c, 1, 49, 75
1, 21383, Note_on_c, 1, 49, 0
1, 21384, Note_on_c, 1, 52, 75
1, 21407, Note_on_c, 1, 52, 0
1, 21408, Note_on_c, 0, 79, 0
1, 21408, Note_on_c, 0, 76, 0
1, 21408, Note_on_c, 0, 78, 80
1, 21408, Note_on_c, 0, 74, 80
1, 21408, Note_on_c, 1, 42, 75
1, 21431, Note_on_c, 1, 42, 0
1, 21432, Note_on_c, 1, 46, 75
1, 21455, Note_on_c, 1, 46, 0
1, 21456, Note_on_c, 0, 78, 0
1, 21456, Note_on_c, 0, 74, 0
1, 21456, Note_on_c, 0, 76, 80
1, 21456, Note_on_c, 0, 73, 80
1, 21456, Note_on_c, 1, 49, 75
1, 21479, Note_on_c, 1, 49, 0
1, 21480, Note_on_c, 1, 52, 75
1, 21501, Note_on_c, 0, 76, 0
1, 21501, Note_on_c, 0, 73, 0
1, 21503, Note_on_c, 1, 52, 0
1, 21504, Note_on_c, 0, 76, 96
1, 21504, Note_on_c, 0, 73, 96
1, 21504, Note_on_c, 1, 42, 75
1, 21527, Note_on_c, 1, 42, 0
1, 21528, Note_on_c, 1, 47, 75
1, 21551, Note_on_c, 1, 47, 0
1, 21552, Note_on_c, 0, 76, 0
1, 21552, Note_on_c, 0, 73, 0
1, 21552, Note_on_c, 0, 74, 80
1, 21552, Note_on_c, 0, 71, 80
1, 21552, Note_on_c, 1, 50, 75
1, 21575, Note_on_c, 1, 50, 0
1, 21576, Note_on_c, 1, 54, 75
1, 21597, Note_on_c, 0, 74, 0
1, 21597, Note_on_c, 0, 71, 0
1, 21599, Note_on_c, 1, 54, 0
1, 21600, Note_on_c, 0, 74, 96
1, 21600, Note_on_c, 0, 71, 96
1, 21600, Note_on_c, 1, 42, 75
1, 21623, Note_on_c, 1, 42, 0
1, 21624, Note_on_c, 1, 47, 75
1, 21647, Note_on_c, 1, 47, 0
1, 21648, Note_on_c, 1, 50, 75
1, 21671, Note_on_c, 1, 50, 0
1, 21672, Note_on_c, 1, 54, 75
1, 21695, Note_on_c, 1, 54, 0
1, 21696, Note_on_c, 1, 42, 75
1, 21719, Note_on_c, 1, 42, 0
1, 21720, Note_on_c, 1, 47, 75
1, 21743, Note_on_c, 1, 47, 0
1, 21744, Note_on_c, 1, 50, 75
1, 21767, Note_on_c, 1, 50, 0
1, 21768, Note_on_c, 1, 54, 75
1, 21791, Note_on_c, 1, 54, 0
1, 21792, Note_on_c, 0, 74, 0
1, 21792, Note_on_c, 0, 71, 0
1, 21792, Note_on_c, 0, 74, 80
1, 21792, Note_on_c, 0, 71, 80
1, 21792, Note_on_c, 1, 42, 75
1, 21815, Note_on_c, 1, 42, 0
1, 21816, Note_on_c, 1, 47, 75
1, 21839, Note_on_c, 1, 47, 0
1, 21840, Note_on_c, 1, 50, 75
1, 21863, Note_on_c, 1, 50, 0
1, 21864, Note_on_c, 1, 54, 75
1, 21881, Note_on_c, 0, 74, 0
1, 21881, Note_on_c, 0, 71, 0
1, 21887, Note_on_c, 1, 54, 0
1, 21888, Note_on_c, 0, 72, 97
1, 21888, Note_on_c, 0, 67, 97
1, 21888, Note_on_c, 0, 64, 97
1, 21888, Note_on_c, 1, 40, 75
1, 21911, Note_on_c, 1, 40, 0
1, 21912, Note_on_c, 1, 43, 75
1, 21935, Note_on_c, 1, 43, 0
1, 21936, Note_on_c, 1, 48, 75
1, 21959, Note_on_c, 1, 48, 0
1, 21960, Note_on_c, 1, 52, 75
1, 21977, Note_on_c, 0, 72, 0
1, 21977, Note_on_c, 0, 67, 0
1, 21977, Note_on_c, 0, 64, 0
1, 21983, Note_on_c, 1, 52, 0
1, 21984, Note_on_c, 0, 79, 96
1, 21984, Note_on_c, 0, 76, 96
1, 21984, Note_on_c, 0, 72, 96
1, 21984, Note_on_c, 1, 40, 75
1, 22007, Note_on_c, 1, 40, 0
1, 22008, Note_on_c, 1, 43, 75
1, 22031, Note_on_c, 1, 43, 0
1, 22032, Note_on_c, 1, 48, 75
1, 22055, Note_on_c, 1, 48, 0
1, 22056, Note_on_c, 1, 52, 75
1, 22079, Note_on_c, 1, 52, 0
1, 22080, Note_on_c, 1, 40, 75
1, 22103, Note_on_c, 1, 40, 0
1, 22104, Note_on_c, 1, 43, 75
1, 22127, Note_on_c, 1, 43, 0
1, 22128, Note_on_c, 1, 48, 75
1, 22151, Note_on_c, 1, 48, 0
1, 22152, Note_on_c, 1, 52, 75
1, 22175, Note_on_c, 1, 52, 0
1, 22176, Note_on_c, 0, 79, 0
1, 22176, Note_on_c, 0, 76, 0
1, 22176, Note_on_c, 0, 72, 0
1, 22176, Note_on_c, 0, 70, 80
1, 22176, Note_on_c, 0, 61, 80
1, 22176, Note_on_c, 1, 40, 75
1, 22199, Note_on_c, 1, 40, 0
1, 22200, Note_on_c, 1, 46, 75
1, 22223, Note_on_c, 1, 46, 0
1, 22224, Note_on_c, 1, 49, 75
1, 22247, Note_on_c, 1, 49, 0
1, 22248, Note_on_c, 1, 52, 75
1, 22265, Note_on_c, 0, 70, 0
1, 22265, Note_on_c, 0, 61, 0
1, 22271, Note_on_c, 1, 52, 0
1, 22272, Note_on_c, 0, 70, 96
1, 22272, Note_on_c, 0, 61, 96
1, 22272, Note_on_c, 1, 47, 75
1, 22295, Note_on_c, 1, 47, 0
1, 22296, Note_on_c, 1, 50, 75
1, 22319, Note_on_c, 1, 50, 0
1, 22320, Note_on_c, 0, 70, 0
1, 22320, Note_on_c, 0, 61, 0
1, 22320, Note_on_c, 0, 71, 80
1, 22320, Note_on_c, 0, 62, 80
1, 22320, Note_on_c, 1, 54, 75
1, 22343, Note_on_c, 1, 54, 0
1, 22344, Note_on_c, 1, 59, 75
1, 22365, Note_on_c, 0, 71, 0
1, 22365, Note_on_c, 0, 62, 0
1, 22367, Note_on_c, 1, 59, 0
1, 22368, Note_on_c, 0, 71, 96
1, 22368, Note_on_c, 0, 62, 96
1, 22368, Note_on_c, 1, 47, 75
1, 22391, Note_on_c, 1, 47, 0
1, 22392, Note_on_c, 1, 50, 75
1, 22415, Note_on_c, 1, 50, 0
1, 22416, Note_on_c, 1, 54, 75
1, 22439, Note_on_c, 1, 54, 0
1, 22440, Note_on_c, 1, 59, 75
1, 22463, Note_on_c, 1, 59, 0
1, 22464, Note_on_c, 1, 47, 75
1, 22487, Note_on_c, 0, 71, 0
1, 22487, Note_on_c, 0, 62, 0
1, 22487, Note_on_c, 1, 47, 0
1, 22488, Note_on_c, 0, 66, 75
1, 22488, Note_on_c, 1, 50, 75
1, 22511, Note_on_c, 0, 66, 0
1, 22511, Note_on_c, 1, 50, 0
1, 22512, Note_on_c, 0, 68, 75
1, 22512, Note_on_c, 1, 54, 75
1, 22535, Note_on_c, 0, 68, 0
1, 22535, Note_on_c, 1, 54, 0
1, 22536, Note_on_c, 0, 70, 76
1, 22536, Note_on_c, 1, 59, 75
1, 22559, Note_on_c, 0, 70, 0
1, 22559, Note_on_c, 1, 59, 0
1, 22560, Note_on_c, 0, 71, 76
1, 22560, Note_on_c, 1, 47, 75
1, 22583, Note_on_c, 0, 71, 0
1, 22583, Note_on_c, 1, 47, 0
1, 22584, Note_on_c, 0, 73, 77
1, 22584, Note_on_c, 1, 50, 75
1, 22607, Note_on_c, 0, 73, 0
1, 22607, Note_on_c, 1, 50, 0
1, 22608, Note_on_c, 0, 74, 78
1, 22608, Note_on_c, 1, 54, 75
1, 22631, Note_on_c, 0, 74, 0
1, 22631, Note_on_c, 1, 54, 0
1, 22632, Note_on_c, 0, 76, 78
1, 22632, Note_on_c, 1, 59, 75
1, 22655, Note_on_c, 0, 76, 0
1, 22655, Note_on_c, 1, 59, 0
1, 22656, Note_on_c, 0, 78, 95
1, 22656, Note_on_c, 1, 47, 75
1, 22679, Note_on_c, 1, 47, 0
1, 22680, Note_on_c, 0, 78, 0
1, 22680, Note_on_c, 0, 66, 75
1, 22680, Note_on_c, 1, 50, 75
1, 22703, Note_on_c, 0, 66, 0
1, 22703, Note_on_c, 1, 50, 0
1, 22704, Note_on_c, 0, 68, 75
1, 22704, Note_on_c, 1, 54, 75
1, 22727, Note_on_c, 0, 68, 0
1, 22727, Note_on_c, 1, 54, 0
1, 22728, Note_on_c, 0, 70, 76
1, 22728, Note_on_c, 1, 59, 75
1, 22751, Note_on_c, 0, 70, 0
1, 22751, Note_on_c, 1, 59, 0
1, 22752, Note_on_c, 0, 71, 76
1, 22752, Note_on_c, 1, 47, 75
1, 22775, Note_on_c, 0, 71, 0
1, 22775, Note_on_c, 1, 47, 0
1, 22776, Note_on_c, 0, 73, 77
1, 22776, Note_on_c, 1, 50, 75
1, 22799, Note_on_c, 0, 73, 0
1, 22799, Note_on_c, 1, 50, 0
1, 22800, Note_on_c, 0, 74, 78
1, 22800, Note_on_c, 1, 54, 75
1, 22823, Note_on_c, 0, 74, 0
1, 22823, Note_on_c, 1, 54, 0
1, 22824, Note_on_c, 0, 76, 78
1, 22824, Note_on_c, 1, 59, 75
1, 22847, Note_on_c, 0, 76, 0
1, 22847, Note_on_c, 1, 59, 0
1, 22848, Note_on_c, 0, 78, 95
1, 22848, Note_on_c, 1, 59, 75
1, 22848, Note_on_c, 1, 54, 75
1, 22848, Note_on_c, 1, 50, 75
1, 22848, Note_on_c, 1, 47, 75
1, 22872, Note_on_c, 0, 78, 0
1, 22872, Note_on_c, 0, 66, 75
1, 22895, Note_on_c, 0, 66, 0
1, 22896, Note_on_c, 0, 68, 75
1, 22919, Note_on_c, 0, 68, 0
1, 22920, Note_on_c, 0, 70, 76
1, 22937, Note_on_c, 1, 59, 0
1, 22937, Note_on_c, 1, 54, 0
1, 22937, Note_on_c, 1, 50, 0
1, 22937, Note_on_c, 1, 47, 0
1, 22943, Note_on_c, 0, 70, 0
1, 22944, Note_on_c, 0, 71, 77
1, 22963, Note_on_c, 0, 71, 0
1, 22964, Note_on_c, 0, 73, 77
1, 22982, Note_on_c, 0, 73, 0
1, 22983, Note_on_c, 0, 74, 78
1, 23001, Note_on_c, 0, 74, 0
1, 23002, Note_on_c, 0, 76, 78
1, 23020, Note_on_c, 0, 76, 0
1, 23021, Note_on_c, 0, 78, 79
1, 23039, Note_on_c, 0, 78, 0
1, 23040, Note_on_c, 0, 79, 96
1, 23064, Note_on_c, 0, 79, 0
1, 23064, Note_on_c, 0, 67, 75
1, 23087, Note_on_c, 0, 67, 0
1, 23088, Note_on_c, 0, 69, 75
1, 23111, Note_on_c, 0, 69, 0
1, 23112, Note_on_c, 0, 71, 76
1, 23135, Note_on_c, 0, 71, 0
1, 23136, Note_on_c, 0, 72, 76
1, 23159, Note_on_c, 0, 72, 0
1, 23160, Note_on_c, 0, 74, 77
1, 23183, Note_on_c, 0, 74, 0
1, 23184, Note_on_c, 0, 76, 77
1, 23207, Note_on_c, 0, 76, 0
1, 23208, Note_on_c, 0, 78, 78
1, 23231, Note_on_c, 0, 78, 0
1, 23232, Note_on_c, 0, 79, 94
1, 23232, Note_on_c, 1, 59, 64
1, 23255, Note_on_c, 1, 59, 0
1, 23256, Note_on_c, 1, 67, 64
1, 23279, Note_on_c, 1, 67, 0
1, 23280, Note_on_c, 0, 79, 0
1, 23280, Note_on_c, 0, 74, 75
1, 23280, Note_on_c, 1, 62, 64
1, 23303, Note_on_c, 1, 62, 0
1, 23304, Note_on_c, 1, 67, 64
1, 23327, Note_on_c, 1, 67, 0
1, 23328, Note_on_c, 0, 74, 75
1, 23328, Note_on_c, 1, 59, 64
1, 23340, Note_on_c, 0, 74, 0
1, 23340, Note_on_c, 0, 76, 75
1, 23351, Note_on_c, 1, 59, 0
1, 23352, Note_on_c, 0, 76, 0
1, 23352, Note_on_c, 0, 74, 75
1, 23352, Note_on_c, 1, 67, 64
1, 23375, Note_on_c, 1, 67, 0
1, 23376, Note_on_c, 1, 62, 64
1, 23399, Note_on_c, 1, 62, 0
1, 23400, Note_on_c, 1, 67, 64
1, 23417, Note_on_c, 0, 74, 0
1, 23423, Note_on_c, 1, 67, 0
1, 23424, Note_on_c, 0, 79, 75
1, 23424, Note_on_c, 1, 60, 64
1, 23447, Note_on_c, 1, 60, 0
1, 23448, Note_on_c, 1, 67, 64
1, 23469, Note_on_c, 0, 79, 0
1, 23471, Note_on_c, 1, 67, 0
1, 23472, Note_on_c, 0, 76, 75
1, 23472, Note_on_c, 1, 64, 64
1, 23495, Note_on_c, 1, 64, 0
1, 23496, Note_on_c, 1, 67, 64
1, 23519, Note_on_c, 1, 67, 0
1, 23520, Note_on_c, 0, 76, 75
1, 23520, Note_on_c, 1, 60, 64
1, 23532, Note_on_c, 0, 76, 0
1, 23532, Note_on_c, 0, 78, 75
1, 23543, Note_on_c, 1, 60, 0
1, 23544, Note_on_c, 0, 78, 0
1, 23544, Note_on_c, 0, 76, 75
1, 23544, Note_on_c, 1, 67, 64
1, 23567, Note_on_c, 1, 67, 0
1, 23568, Note_on_c, 1, 64, 64
1, 23591, Note_on_c, 1, 64, 0
1, 23592, Note_on_c, 1, 67, 64
1, 23609, Note_on_c, 0, 76, 0
1, 23615, Note_on_c, 1, 67, 0
1, 23616, Note_on_c, 0, 81, 75
1, 23616, Note_on_c, 1, 54, 64
1, 23639, Note_on_c, 1, 54, 0
1, 23640, Note_on_c, 1, 62, 64
1, 23661, Note_on_c, 0, 81, 0
1, 23663, Note_on_c, 1, 62, 0
1, 23664, Note_on_c, 0, 72, 75
1, 23664, Note_on_c, 1, 57, 64
1, 23687, Note_on_c, 1, 57, 0
1, 23688, Note_on_c, 1, 62, 64
1, 23711, Note_on_c, 1, 62, 0
1, 23712, Note_on_c, 0, 72, 75
1, 23712, Note_on_c, 1, 54, 64
1, 23724, Note_on_c, 0, 72, 0
1, 23724, Note_on_c, 0, 74, 75
1, 23735, Note_on_c, 1, 54, 0
1, 23736, Note_on_c, 0, 74, 0
1, 23736, Note_on_c, 0, 72, 75
1, 23736, Note_on_c, 1, 62, 64
1, 23759, Note_on_c, 1, 62, 0
1, 23760, Note_on_c, 1, 57, 64
1, 23783, Note_on_c, 1, 57, 0
1, 23784, Note_on_c, 1, 62, 64
1, 23801, Note_on_c, 0, 72, 0
1, 23807, Note_on_c, 1, 62, 0
1, 23808, Note_on_c, 1, 55, 64
1, 23831, Note_on_c, 1, 55, 0
1, 23832, Note_on_c, 1, 62, 64
1, 23855, Note_on_c, 1, 62, 0
1, 23856, Note_on_c, 0, 71, 75
1, 23856, Note_on_c, 1, 59, 64
1, 23879, Note_on_c, 1, 59, 0
1, 23880, Note_on_c, 1, 62, 64
1, 23901, Note_on_c, 0, 71, 0
1, 23903, Note_on_c, 1, 62, 0
1, 23904, Note_on_c, 1, 55, 64
1, 23927, Note_on_c, 1, 55, 0
1, 23928, Note_on_c, 1, 62, 64
1, 23951, Note_on_c, 1, 62, 0
1, 23952, Note_on_c, 0, 83, 91
1, 23952, Note_on_c, 1, 59, 64
1, 23975, Note_on_c, 1, 59, 0
1, 23976, Note_on_c, 1, 62, 64
1, 23999, Note_on_c, 1, 62, 0
1, 24000, Note_on_c, 1, 48, 64
1, 24000, Note_on_c, 1, 48, 64
1, 24023, Note_on_c, 1, 48, 0
1, 24024, Note_on_c, 1, 57, 64
1, 24045, Note_on_c, 0, 83, 0
1, 24047, Note_on_c, 1, 57, 0
1, 24048, Note_on_c, 0, 81, 77
1, 24048, Note_on_c, 1, 52, 65
1, 24071, Note_on_c, 1, 52, 0
1, 24072, Note_on_c, 1, 57, 66
1, 24089, Note_on_c, 1, 48, 0
1, 24095, Note_on_c, 1, 57, 0
1, 24096, Note_on_c, 1, 49, 66
1, 24096, Note_on_c, 1, 49, 64
1, 24119, Note_on_c, 1, 49, 0
1, 24120, Note_on_c, 1, 57, 67
1, 24137, Note_on_c, 0, 81, 0
1, 24143, Note_on_c, 1, 57, 0
1, 24144, Note_on_c, 0, 79, 81
1, 24144, Note_on_c, 1, 52, 68
1, 24167, Note_on_c, 1, 52, 0
1, 24168, Note_on_c, 1, 57, 68
1, 24185, Note_on_c, 1, 49, 0
1, 24189, Note_on_c, 0, 79, 0
1, 24191, Note_on_c, 1, 57, 0
1, 24192, Note_on_c, 0, 78, 83
1, 24192, Note_on_c, 1, 50, 69
1, 24192, Note_on_c, 1, 50, 64
1, 24215, Note_on_c, 1, 50, 0
1, 24216, Note_on_c, 1, 57, 70
1, 24237, Note_on_c, 0, 78, 0
1, 24239, Note_on_c, 1, 57, 0
1, 24240, Note_on_c, 0, 86, 102
1, 24240, Note_on_c, 1, 54, 70
1, 24263, Note_on_c, 1, 54, 0
1, 24264, Note_on_c, 1, 57, 70
1, 24281, Note_on_c, 1, 50, 0
1, 24287, Note_on_c, 1, 57, 0
1, 24288, Note_on_c, 1, 51, 86
1, 24312, Note_on_c, 1, 51, 0
1, 24312, Note_on_c, 1, 57, 70
1, 24335, Note_on_c, 1, 57, 0
1, 24336, Note_on_c, 0, 86, 0
1, 24336, Note_on_c, 0, 84, 86
1, 24336, Note_on_c, 1, 54, 70
1, 24359, Note_on_c, 1, 54, 0
1, 24360, Note_on_c, 1, 57, 70
1, 24383, Note_on_c, 1, 57, 0
1, 24384, Note_on_c, 1, 51, 70
1, 24407, Note_on_c, 1, 51, 0
1, 24408, Note_on_c, 1, 57, 70
1, 24429, Note_on_c, 0, 84, 0
1, 24431, Note_on_c, 1, 57, 0
1, 24432, Note_on_c, 0, 83, 86
1, 24432, Note_on_c, 1, 54, 70
1, 24455, Note_on_c, 1, 54, 0
1, 24456, Note_on_c, 1, 57, 70
1, 24479, Note_on_c, 1, 57, 0
1, 24480, Note_on_c, 1, 47, 70
1, 24503, Note_on_c, 1, 47, 0
1, 24504, Note_on_c, 1, 54, 70
1, 24521, Note_on_c, 0, 83, 0
1, 24527, Note_on_c, 1, 54, 0
1, 24528, Note_on_c, 0, 81, 86
1, 24528, Note_on_c, 1, 51, 70
1, 24551, Note_on_c, 1, 51, 0
1, 24552, Note_on_c, 1, 54, 70
1, 24575, Note_on_c, 1, 54, 0
1, 24576, Note_on_c, 1, 52, 70
1, 24599, Note_on_c, 1, 52, 0
1, 24600, Note_on_c, 1, 59, 70
1, 24617, Note_on_c, 0, 81, 0
1, 24623, Note_on_c, 1, 59, 0
1, 24624, Note_on_c, 0, 79, 86
1, 24624, Note_on_c, 1, 55, 70
1, 24647, Note_on_c, 1, 55, 0
1, 24648, Note_on_c, 1, 59, 70
1, 24671, Note_on_c, 1, 59, 0
1, 24672, Note_on_c, 1, 47, 70
1, 24695, Note_on_c, 1, 47, 0
1, 24696, Note_on_c, 1, 55, 70
1, 24713, Note_on_c, 0, 79, 0
1, 24719, Note_on_c, 1, 55, 0
1, 24720, Note_on_c, 0, 77, 86
1, 24720, Note_on_c, 1, 50, 70
1, 24743, Note_on_c, 1, 50, 0
1, 24744, Note_on_c, 1, 55, 70
1, 24767, Note_on_c, 1, 55, 0
1, 24768, Note_on_c, 1, 48, 70
1, 24791, Note_on_c, 1, 48, 0
1, 24792, Note_on_c, 1, 55, 70
1, 24813, Note_on_c, 0, 77, 0
1, 24815, Note_on_c, 1, 55, 0
1, 24816, Note_on_c, 0, 76, 86
1, 24816, Note_on_c, 1, 52, 70
1, 24839, Note_on_c, 1, 52, 0
1, 24840, Note_on_c, 1, 55, 70
1, 24863, Note_on_c, 1, 55, 0
1, 24864, Note_on_c, 1, 44, 70
1, 24887, Note_on_c, 1, 44, 0
1, 24888, Note_on_c, 1, 52, 70
1, 24905, Note_on_c, 0, 76, 0
1, 24911, Note_on_c, 1, 52, 0
1, 24912, Note_on_c, 0, 74, 86
1, 24912, Note_on_c, 1, 47, 70
1, 24935, Note_on_c, 1, 47, 0
1, 24936, Note_on_c, 1, 52, 70
1, 24959, Note_on_c, 1, 52, 0
1, 24960, Note_on_c, 1, 45, 70
1, 24983, Note_on_c, 1, 45, 0
1, 24984, Note_on_c, 1, 52, 70
1, 25001, Note_on_c, 0, 74, 0
1, 25007, Note_on_c, 1, 52, 0
1, 25008, Note_on_c, 0, 72, 86
1, 25008, Note_on_c, 1, 48, 70
1, 25031, Note_on_c, 1, 48, 0
1, 25032, Note_on_c, 1, 52, 70
1, 25055, Note_on_c, 1, 52, 0
1, 25056, Note_on_c, 1, 38, 70
1, 25079, Note_on_c, 1, 38, 0
1, 25080, Note_on_c, 1, 46, 70
1, 25097, Note_on_c, 0, 72, 0
1, 25103, Note_on_c, 1, 46, 0
1, 25104, Note_on_c, 0, 70, 86
1, 25104, Note_on_c, 1, 41, 70
1, 25127, Note_on_c, 1, 41, 0
1, 25128, Note_on_c, 1, 46, 70
1, 25151, Note_on_c, 1, 46, 0
1, 25152, Note_on_c, 1, 36, 70
1, 25175, Note_on_c, 1, 36, 0
1, 25176, Note_on_c, 1, 45, 70
1, 25197, Note_on_c, 0, 70, 0
1, 25199, Note_on_c, 1, 45, 0
1, 25200, Note_on_c, 0, 69, 86
1, 25200, Note_on_c, 1, 40, 70
1, 25223, Note_on_c, 1, 40, 0
1, 25224, Note_on_c, 1, 45, 70
1, 25247, Note_on_c, 1, 45, 0
1, 25248, Note_on_c, 1, 35, 70
1, 25271, Note_on_c, 1, 35, 0
1, 25272, Note_on_c, 1, 44, 70
1, 25289, Note_on_c, 0, 69, 0
1, 25295, Note_on_c, 1, 44, 0
1, 25296, Note_on_c, 0, 68, 86
1, 25296, Note_on_c, 1, 40, 70
1, 25319, Note_on_c, 1, 40, 0
1, 25320, Note_on_c, 1, 44, 70
1, 25341, Note_on_c, 0, 68, 0
1, 25343, Note_on_c, 1, 44, 0
1, 25344, Note_on_c, 0, 69, 86
1, 25344, Note_on_c, 1, 45, 70
1, 25367, Note_on_c, 1, 45, 0
1, 25368, Note_on_c, 1, 48, 70
1, 25391, Note_on_c, 1, 48, 0
1, 25392, Note_on_c, 1, 52, 70
1, 25415, Note_on_c, 1, 52, 0
1, 25416, Note_on_c, 1, 48, 70
1, 25433, Note_on_c, 0, 69, 0
1, 25439, Note_on_c, 1, 48, 0
1, 25440, Note_on_c, 0, 72, 86
1, 25440, Note_on_c, 1, 45, 70
1, 25463, Note_on_c, 1, 45, 0
1, 25464, Note_on_c, 1, 51, 70
1, 25487, Note_on_c, 1, 51, 0
1, 25488, Note_on_c, 1, 54, 70
1, 25511, Note_on_c, 1, 54, 0
1, 25512, Note_on_c, 1, 51, 70
1, 25529, Note_on_c, 0, 72, 0
1, 25535, Note_on_c, 1, 51, 0
1, 25536, Note_on_c, 0, 71, 91
1, 25536, Note_on_c, 1, 52, 64
1, 25536, Note_on_c, 1, 47, 64
1, 25536, Note_on_c, 1, 43, 64
1, 25568, Note_on_c, 0, 71, 0
1, 25568, Note_on_c, 0, 67, 75
1, 25598, Note_on_c, 0, 67, 0
1, 25600, Note_on_c, 0, 64, 75
1, 25625, Note_on_c, 1, 52, 0
1, 25625, Note_on_c, 1, 47, 0
1, 25625, Note_on_c, 1, 43, 0
1, 25630, Note_on_c, 0, 64, 0
1, 25632, Note_on_c, 0, 63, 75
1, 25662, Note_on_c, 0, 63, 0
1, 25664, Note_on_c, 0, 66, 75
1, 25694, Note_on_c, 0, 66, 0
1, 25696, Note_on_c, 0, 69, 75
1, 25726, Note_on_c, 0, 69, 0
1, 25728, Note_on_c, 0, 67, 75
1, 25728, Note_on_c, 1, 59, 75
1, 25758, Note_on_c, 1, 59, 0
1, 25760, Note_on_c, 1, 55, 75
1, 25790, Note_on_c, 1, 55, 0
1, 25792, Note_on_c, 1, 52, 75
1, 25817, Note_on_c, 0, 67, 0
1, 25822, Note_on_c, 1, 52, 0
1, 25824, Note_on_c, 1, 51, 75
1, 25854, Note_on_c, 1, 51, 0
1, 25856, Note_on_c, 1, 54, 75
1, 25886, Note_on_c, 1, 54, 0
1, 25888, Note_on_c, 1, 57, 75
1, 25918, Note_on_c, 1, 57, 0
1, 25920, Note_on_c, 0, 67, 75
1, 25920, Note_on_c, 1, 59, 75
1, 25950, Note_on_c, 0, 67, 0
1, 25952, Note_on_c, 0, 64, 75
1, 25982, Note_on_c, 0, 64, 0
1, 25984, Note_on_c, 0, 59, 75
1, 26009, Note_on_c, 1, 59, 0
1, 26014, Note_on_c, 0, 59, 0
1, 26016, Note_on_c, 0, 55, 75
1, 26046, Note_on_c, 0, 55, 0
1, 26048, Note_on_c, 0, 59, 75
1, 26078, Note_on_c, 0, 59, 0
1, 26080, Note_on_c, 0, 64, 75
1, 26110, Note_on_c, 0, 64, 0
1, 26112, Note_on_c, 0, 66, 75
1, 26112, Note_on_c, 1, 54, 75
1, 26142, Note_on_c, 0, 66, 0
1, 26142, Note_on_c, 1, 54, 0
1, 26144, Note_on_c, 0, 62, 75
1, 26144, Note_on_c, 1, 50, 75
1, 26174, Note_on_c, 0, 62, 0
1, 26174, Note_on_c, 1, 50, 0
1, 26176, Note_on_c, 0, 59, 75
1, 26176, Note_on_c, 1, 47, 75
1, 26206, Note_on_c, 0, 59, 0
1, 26206, Note_on_c, 1, 47, 0
1, 26208, Note_on_c, 0, 54, 75
1, 26208, Note_on_c, 1, 42, 75
1, 26238, Note_on_c, 0, 54, 0
1, 26238, Note_on_c, 1, 42, 0
1, 26240, Note_on_c, 0, 59, 75
1, 26240, Note_on_c, 1, 47, 75
1, 26270, Note_on_c, 0, 59, 0
1, 26270, Note_on_c, 1, 47, 0
1, 26272, Note_on_c, 0, 62, 75
1, 26272, Note_on_c, 1, 50, 75
1, 26302, Note_on_c, 0, 62, 0
1, 26302, Note_on_c, 1, 50, 0
1, 26304, Note_on_c, 0, 66, 75
1, 26304, Note_on_c, 1, 54, 75
1, 26334, Note_on_c, 0, 66, 0
1, 26334, Note_on_c, 1, 54, 0
1, 26336, Note_on_c, 0, 62, 75
1, 26336, Note_on_c, 1, 50, 75
1, 26366, Note_on_c, 0, 62, 0
1, 26366, Note_on_c, 1, 50, 0
1, 26368, Note_on_c, 0, 59, 75
1, 26368, Note_on_c, 1, 47, 75
1, 26398, Note_on_c, 0, 59, 0
1, 26398, Note_on_c, 1, 47, 0
1, 26400, Note_on_c, 0, 54, 75
1, 26400, Note_on_c, 1, 42, 75
1, 26430, Note_on_c, 0, 54, 0
1, 26430, Note_on_c, 1, 42, 0
1, 26432, Note_on_c, 0, 59, 75
1, 26432, Note_on_c, 1, 47, 75
1, 26462, Note_on_c, 0, 59, 0
1, 26462, Note_on_c, 1, 47, 0
1, 26464, Note_on_c, 0, 62, 75
1, 26464, Note_on_c, 1, 50, 75
1, 26494, Note_on_c, 0, 62, 0
1, 26494, Note_on_c, 1, 50, 0
1, 26496, Note_on_c, 0, 67, 75
1, 26496, Note_on_c, 1, 55, 75
1, 26526, Note_on_c, 0, 67, 0
1, 26526, Note_on_c, 1, 55, 0
1, 26528, Note_on_c, 0, 62, 75
1, 26528, Note_on_c, 1, 50, 75
1, 26558, Note_on_c, 0, 62, 0
1, 26558, Note_on_c, 1, 50, 0
1, 26560, Note_on_c, 0, 59, 75
1, 26560, Note_on_c, 1, 47, 75
1, 26590, Note_on_c, 0, 59, 0
1, 26590, Note_on_c, 1, 47, 0
1, 26592, Note_on_c, 0, 55, 75
1, 26592, Note_on_c, 1, 43, 75
1, 26622, Note_on_c, 0, 55, 0
1, 26622, Note_on_c, 1, 43, 0
1, 26624, Note_on_c, 0, 59, 75
1, 26624, Note_on_c, 1, 47, 75
1, 26654, Note_on_c, 0, 59, 0
1, 26654, Note_on_c, 1, 47, 0
1, 26656, Note_on_c, 0, 62, 75
1, 26656, Note_on_c, 1, 50, 75
1, 26686, Note_on_c, 0, 62, 0
1, 26686, Note_on_c, 1, 50, 0
1, 26688, Note_on_c, 0, 67, 75
1, 26688, Note_on_c, 1, 55, 75
1, 26718, Note_on_c, 0, 67, 0
1, 26718, Note_on_c, 1, 55, 0
1, 26720, Note_on_c, 0, 62, 75
1, 26720, Note_on_c, 1, 50, 75
1, 26750, Note_on_c, 0, 62, 0
1, 26750, Note_on_c, 1, 50, 0
1, 26752, Note_on_c, 0, 59, 75
1, 26752, Note_on_c, 1, 47, 75
1, 26782, Note_on_c, 0, 59, 0
1, 26782, Note_on_c, 1, 47, 0
1, 26784, Note_on_c, 0, 55, 75
1, 26784, Note_on_c, 1, 43, 75
1, 26814, Note_on_c, 0, 55, 0
1, 26814, Note_on_c, 1, 43, 0
1, 26816, Note_on_c, 0, 59, 75
1, 26816, Note_on_c, 1, 47, 75
1, 26846, Note_on_c, 0, 59, 0
1, 26846, Note_on_c, 1, 47, 0
1, 26848, Note_on_c, 0, 62, 75
1, 26848, Note_on_c, 1, 50, 75
1, 26878, Note_on_c, 0, 62, 0
1, 26878, Note_on_c, 1, 50, 0
1, 26880, Note_on_c, 0, 67, 75
1, 26880, Note_on_c, 0, 64, 75
1, 26880, Note_on_c, 0, 61, 75
1, 26880, Note_on_c, 0, 58, 75
1, 26880, Note_on_c, 1, 52, 75
1, 26880, Note_on_c, 1, 49, 75
1, 26880, Note_on_c, 1, 46, 75
1, 27168, Note_on_c, 0, 67, 0
1, 27168, Note_on_c, 0, 66, 75
1, 27337, Note_on_c, 1, 52, 0
1, 27337, Note_on_c, 1, 49, 0
1, 27337, Note_on_c, 1, 46, 0
1, 27353, Note_on_c, 0, 66, 0
1, 27353, Note_on_c, 0, 64, 0
1, 27353, Note_on_c, 0, 61, 0
1, 27353, Note_on_c, 0, 58, 0
1, 27480, Note_on_c, 0, 66, 75
1, 27503, Note_on_c, 0, 66, 0
1, 27504, Note_on_c, 0, 68, 75
1, 27527, Note_on_c, 0, 68, 0
1, 27528, Note_on_c, 0, 70, 76
1, 27551, Note_on_c, 0, 70, 0
1, 27552, Note_on_c, 0, 71, 76
1, 27575, Note_on_c, 0, 71, 0
1, 27576, Note_on_c, 0, 73, 77
1, 27599, Note_on_c, 0, 73, 0
1, 27600, Note_on_c, 0, 75, 78
1, 27623, Note_on_c, 0, 75, 0
1, 27624, Note_on_c, 0, 76, 78
1, 27647, Note_on_c, 0, 76, 0
1, 27648, Note_on_c, 0, 78, 95
1, 27672, Note_on_c, 0, 78, 0
1, 27672, Note_on_c, 0, 71, 75
1, 27695, Note_on_c, 0, 71, 0
1, 27696, Note_on_c, 0, 73, 75
1, 27719, Note_on_c, 0, 73, 0
1, 27720, Note_on_c, 0, 75, 76
1, 27743, Note_on_c, 0, 75, 0
1, 27744, Note_on_c, 0, 76, 76
1, 27767, Note_on_c, 0, 76, 0
1, 27768, Note_on_c, 0, 78, 77
1, 27791, Note_on_c, 0, 78, 0
1, 27792, Note_on_c, 0, 80, 77
1, 27815, Note_on_c, 0, 80, 0
1, 27816, Note_on_c, 0, 82, 78
1, 27839, Note_on_c, 0, 82, 0
1, 27840, Note_on_c, 0, 83, 94
1, 27840, Note_on_c, 1, 47, 64
1, 27860, Note_on_c, 0, 83, 0
1, 27863, Note_on_c, 1, 47, 0
1, 27864, Note_on_c, 1, 54, 64
1, 27887, Note_on_c, 1, 54, 0
1, 27888, Note_on_c, 0, 78, 75
1, 27888, Note_on_c, 1, 51, 64
1, 27908, Note_on_c, 0, 78, 0
1, 27911, Note_on_c, 1, 51, 0
1, 27912, Note_on_c, 1, 54, 64
1, 27935, Note_on_c, 1, 54, 0
1, 27936, Note_on_c, 0, 80, 75
1, 27936, Note_on_c, 1, 47, 64
1, 27948, Note_on_c, 0, 80, 0
1, 27948, Note_on_c, 0, 78, 75
1, 27959, Note_on_c, 1, 47, 0
1, 27960, Note_on_c, 0, 78, 0
1, 27960, Note_on_c, 0, 80, 75
1, 27960, Note_on_c, 1, 54, 64
1, 27972, Note_on_c, 0, 80, 0
1, 27972, Note_on_c, 0, 78, 75
1, 27983, Note_on_c, 1, 54, 0
1, 27984, Note_on_c, 0, 78, 0
1, 27984, Note_on_c, 0, 80, 75
1, 27984, Note_on_c, 1, 51, 64
1, 27996, Note_on_c, 0, 80, 0
1, 27996, Note_on_c, 0, 78, 75
1, 28007, Note_on_c, 1, 51, 0
1, 28008, Note_on_c, 0, 78, 0
1, 28008, Note_on_c, 0, 76, 75
1, 28008, Note_on_c, 1, 54, 64
1, 28020, Note_on_c, 0, 76, 0
1, 28020, Note_on_c, 0, 78, 75
1, 28031, Note_on_c, 1, 54, 0
1, 28032, Note_on_c, 0, 78, 0
1, 28032, Note_on_c, 0, 83, 75
1, 28032, Note_on_c, 1, 47, 64
1, 28052, Note_on_c, 0, 83, 0
1, 28055, Note_on_c, 1, 47, 0
1, 28056, Note_on_c, 1, 56, 64
1, 28079, Note_on_c, 1, 56, 0
1, 28080, Note_on_c, 0, 80, 75
1, 28080, Note_on_c, 1, 52, 64
1, 28100, Note_on_c, 0, 80, 0
1, 28103, Note_on_c, 1, 52, 0
1, 28104, Note_on_c, 1, 56, 64
1, 28127, Note_on_c, 1, 56, 0
1, 28128, Note_on_c, 0, 82, 75
1, 28128, Note_on_c, 1, 47, 64
1, 28140, Note_on_c, 0, 82, 0
1, 28140, Note_on_c, 0, 80, 75
1, 28151, Note_on_c, 1, 47, 0
1, 28152, Note_on_c, 0, 80, 0
1, 28152, Note_on_c, 0, 82, 75
1, 28152, Note_on_c, 1, 56, 64
1, 28164, Note_on_c, 0, 82, 0
1, 28164, Note_on_c, 0, 80, 75
1, 28175, Note_on_c, 1, 56, 0
1, 28176, Note_on_c, 0, 80, 0
1, 28176, Note_on_c, 0, 82, 75
1, 28176, Note_on_c, 1, 52, 64
1, 28188, Note_on_c, 0, 82, 0
1, 28188, Note_on_c, 0, 80, 75
1, 28199, Note_on_c, 1, 52, 0
1, 28200, Note_on_c, 0, 80, 0
1, 28200, Note_on_c, 0, 78, 75
1, 28200, Note_on_c, 1, 56, 64
1, 28212, Note_on_c, 0, 78, 0
1, 28212, Note_on_c, 0, 80, 75
1, 28223, Note_on_c, 1, 56, 0
1, 28224, Note_on_c, 0, 80, 0
1, 28224, Note_on_c, 0, 78, 75
1, 28224, Note_on_c, 1, 51, 64
1, 28224, Note_on_c, 1, 47, 64
1, 28269, Note_on_c, 0, 78, 0
1, 28272, Note_on_c, 0, 83, 75
1, 28313, Note_on_c, 1, 51, 0
1, 28313, Note_on_c, 1, 47, 0
1, 28317, Note_on_c, 0, 83, 0
1, 28320, Note_on_c, 0, 76, 76
1, 28332, Note_on_c, 0, 76, 0
1, 28332, Note_on_c, 0, 78, 76
1, 28344, Note_on_c, 0, 78, 0
1, 28344, Note_on_c, 0, 76, 76
1, 28365, Note_on_c, 0, 76, 0
1, 28368, Note_on_c, 0, 83, 92
1, 28368, Note_on_c, 1, 49, 64
1, 28368, Note_on_c, 1, 47, 64
1, 28416, Note_on_c, 0, 83, 0
1, 28416, Note_on_c, 0, 75, 77
1, 28428, Note_on_c, 0, 75, 0
1, 28428, Note_on_c, 0, 76, 77
1, 28440, Note_on_c, 0, 76, 0
1, 28440, Note_on_c, 0, 75, 77
1, 28457, Note_on_c, 1, 49, 0
1, 28457, Note_on_c, 1, 47, 0
1, 28464, Note_on_c, 0, 75, 0
1, 28464, Note_on_c, 0, 83, 94
1, 28464, Note_on_c, 1, 47, 64
1, 28464, Note_on_c, 1, 44, 64
1, 28509, Note_on_c, 1, 47, 0
1, 28509, Note_on_c, 1, 44, 0
1, 28512, Note_on_c, 0, 83, 0
1, 28512, Note_on_c, 1, 41, 80
1, 28560, Note_on_c, 0, 75, 79
1, 28580, Note_on_c, 0, 75, 0
1, 28608, Tempo, 600000
1, 28608, Note_on_c, 0, 75, 96
1, 28608, Note_on_c, 0, 71, 96
1, 28608, Note_on_c, 1, 41, 0
1, 28608, Note_on_c, 1, 42, 64
1, 28631, Note_on_c, 1, 42, 0
1, 28632, Note_on_c, 1, 47, 64
1, 28655, Note_on_c, 1, 47, 0
1, 28656, Note_on_c, 1, 51, 64
1, 28679, Note_on_c, 1, 51, 0
1, 28680, Note_on_c, 1, 54, 64
1, 28703, Note_on_c, 1, 54, 0
1, 28704, Note_on_c, 0, 75, 0
1, 28704, Note_on_c, 0, 71, 0
1, 28704, Note_on_c, 0, 73, 77
1, 28704, Note_on_c, 0, 70, 77
1, 28704, Note_on_c, 1, 42, 64
1, 28793, Note_on_c, 0, 73, 0
1, 28793, Note_on_c, 0, 70, 0
1, 28793, Note_on_c, 1, 42, 0
1, 28944, Note_on_c, 0, 62, 75
1, 28944, Note_on_c, 0, 59, 75
1, 28964, Note_on_c, 0, 62, 0
1, 28964, Note_on_c, 0, 59, 0
1, 28992, Tempo, 705882
1, 28992, Note_on_c, 0, 62, 91
1, 28992, Note_on_c, 0, 59, 91
1, 28992, Note_on_c, 1, 30, 64
1, 29015, Note_on_c, 1, 30, 0
1, 29016, Note_on_c, 1, 35, 64
1, 29039, Note_on_c, 1, 35, 0
1, 29040, Note_on_c, 1, 39, 64
1, 29063, Note_on_c, 1, 39, 0
1, 29064, Note_on_c, 1, 42, 64
1, 29087, Note_on_c, 1, 42, 0
1, 29088, Note_on_c, 0, 62, 0
1, 29088, Note_on_c, 0, 59, 0
1, 29088, Note_on_c, 0, 61, 75
1, 29088, Note_on_c, 0, 58, 75
1, 29088, Note_on_c, 1, 30, 64
1, 29177, Note_on_c, 0, 61, 0
1, 29177, Note_on_c, 0, 58, 0
1, 29177, Note_on_c, 1, 30, 0
1, 29184, Tempo, 545454
1, 29376, Note_on_c, 0, 78, 75
1, 29376, Note_on_c, 1, 39, 64
1, 29399, Note_on_c, 0, 78, 0
1, 29400, Note_on_c, 0, 75, 75
1, 29421, Note_on_c, 1, 39, 0
1, 29423, Note_on_c, 0, 75, 0
1, 29424, Note_on_c, 0, 71, 75
1, 29424, Note_on_c, 1, 51, 64
1, 29447, Note_on_c, 0, 71, 0
1, 29448, Note_on_c, 0, 66, 75
1, 29469, Note_on_c, 1, 51, 0
1, 29471, Note_on_c, 0, 66, 0
1, 29472, Note_on_c, 0, 72, 75
1, 29472, Note_on_c, 1, 52, 64
1, 29495, Note_on_c, 1, 52, 0
1, 29496, Note_on_c, 0, 72, 0
1, 29496, Note_on_c, 0, 73, 75
1, 29496, Note_on_c, 1, 56, 64
1, 29519, Note_on_c, 0, 73, 0
1, 29519, Note_on_c, 1, 56, 0
1, 29520, Note_on_c, 0, 73, 91
1, 29520, Note_on_c, 1, 61, 64
1, 29543, Note_on_c, 1, 61, 0
1, 29544, Note_on_c, 1, 56, 64
1, 29567, Note_on_c, 1, 56, 0
1, 29568, Note_on_c, 1, 52, 64
1, 29591, Note_on_c, 0, 73, 0
1, 29591, Note_on_c, 1, 52, 0
1, 29592, Note_on_c, 0, 75, 75
1, 29592, Note_on_c, 1, 56, 64
1, 29615, Note_on_c, 0, 75, 0
1, 29615, Note_on_c, 1, 56, 0
1, 29616, Note_on_c, 0, 76, 75
1, 29616, Note_on_c, 1, 61, 64
1, 29639, Note_on_c, 0, 76, 0
1, 29639, Note_on_c, 1, 61, 0
1, 29640, Note_on_c, 0, 75, 75
1, 29640, Note_on_c, 1, 56, 64
1, 29663, Note_on_c, 0, 75, 0
1, 29663, Note_on_c, 1, 56, 0
1, 29664, Note_on_c, 0, 73, 75
1, 29664, Note_on_c, 1, 52, 64
1, 29687, Note_on_c, 0, 73, 0
1, 29687, Note_on_c, 1, 52, 0
1, 29688, Note_on_c, 0, 71, 75
1, 29688, Note_on_c, 1, 56, 64
1, 29711, Note_on_c, 0, 71, 0
1, 29711, Note_on_c, 1, 56, 0
1, 29712, Note_on_c, 0, 70, 75
1, 29712, Note_on_c, 1, 61, 64
1, 29735, Note_on_c, 0, 70, 0
1, 29735, Note_on_c, 1, 61, 0
1, 29736, Note_on_c, 0, 68, 75
1, 29736, Note_on_c, 1, 56, 64
1, 29759, Note_on_c, 0, 68, 0
1, 29759, Note_on_c, 1, 56, 0
1, 29760, Note_on_c, 0, 66, 75
1, 29760, Note_on_c, 1, 54, 64
1, 29783, Note_on_c, 1, 54, 0
1, 29784, Note_on_c, 1, 59, 64
1, 29805, Note_on_c, 0, 66, 0
1, 29807, Note_on_c, 1, 59, 0
1, 29808, Note_on_c, 0, 77, 75
1, 29808, Note_on_c, 1, 63, 64
1, 29831, Note_on_c, 1, 63, 0
1, 29832, Note_on_c, 0, 77, 0
1, 29832, Note_on_c, 0, 78, 75
1, 29832, Note_on_c, 1, 59, 64
1, 29855, Note_on_c, 0, 78, 0
1, 29855, Note_on_c, 1, 59, 0
1, 29856, Note_on_c, 0, 76, 75
1, 29856, Note_on_c, 1, 54, 64
1, 29879, Note_on_c, 0, 76, 0
1, 29879, Note_on_c, 1, 54, 0
1, 29880, Note_on_c, 0, 75, 75
1, 29880, Note_on_c, 1, 59, 64
1, 29903, Note_on_c, 0, 75, 0
1, 29903, Note_on_c, 1, 59, 0
1, 29904, Note_on_c, 0, 73, 75
1, 29904, Note_on_c, 1, 63, 64
1, 29927, Note_on_c, 0, 73, 0
1, 29927, Note_on_c, 1, 63, 0
1, 29928, Note_on_c, 0, 71, 75
1, 29928, Note_on_c, 1, 59, 64
1, 29951, Note_on_c, 0, 71, 0
1, 29951, Note_on_c, 1, 59, 0
1, 29952, Note_on_c, 0, 73, 75
1, 29952, Note_on_c, 1, 54, 64
1, 29964, Note_on_c, 0, 73, 0
1, 29964, Note_on_c, 0, 75, 75
1, 29975, Note_on_c, 1, 54, 0
1, 29976, Note_on_c, 0, 75, 0
1, 29976, Note_on_c, 0, 73, 75
1, 29976, Note_on_c, 1, 58, 64
1, 29988, Note_on_c, 0, 73, 0
1, 29988, Note_on_c, 0, 75, 75
1, 29999, Note_on_c, 1, 58, 0
1, 30000, Note_on_c, 0, 75, 0
1, 30000, Note_on_c, 0, 73, 75
1, 30000, Note_on_c, 1, 64, 64
1, 30012, Note_on_c, 0, 73, 0
1, 30012, Note_on_c, 0, 75, 75
1, 30023, Note_on_c, 0, 75, 0
1, 30023, Note_on_c, 0, 73, 75
1, 30023, Note_on_c, 1, 64, 0
1, 30024, Note_on_c, 1, 58, 64
1, 30034, Note_on_c, 0, 73, 0
1, 30034, Note_on_c, 0, 75, 75
1, 30045, Note_on_c, 0, 75, 0
1, 30045, Note_on_c, 0, 73, 75
1, 30047, Note_on_c, 1, 58, 0
1, 30048, Note_on_c, 1, 54, 64
1, 30056, Note_on_c, 0, 73, 0
1, 30056, Note_on_c, 0, 75, 75
1, 30067, Note_on_c, 0, 75, 0
1, 30067, Note_on_c, 0, 73, 75
1, 30071, Note_on_c, 1, 54, 0
1, 30072, Note_on_c, 1, 58, 64
1, 30078, Note_on_c, 0, 73, 0
1, 30078, Note_on_c, 0, 75, 75
1, 30089, Note_on_c, 0, 75, 0
1, 30089, Note_on_c, 0, 73, 75
1, 30095, Note_on_c, 1, 58, 0
1, 30096, Note_on_c, 1, 64, 64
1, 30100, Note_on_c, 0, 73, 0
1, 30100, Note_on_c, 0, 71, 75
1, 30119, Note_on_c, 1, 64, 0
1, 30120, Note_on_c, 1, 58, 64
1, 30122, Note_on_c, 0, 71, 0
1, 30122, Note_on_c, 0, 73, 75
1, 30143, Note_on_c, 1, 58, 0
1, 30144, Note_on_c, 0, 73, 0
1, 30144, Note_on_c, 0, 71, 75
1, 30144, Note_on_c, 1, 59, 64
1, 30167, Note_on_c, 0, 71, 0
1, 30167, Note_on_c, 1, 59, 0
1, 30168, Note_on_c, 0, 54, 75
1, 30168, Note_on_c, 1, 42, 80
1, 30191, Note_on_c, 0, 54, 0
1, 30191, Note_on_c, 1, 42, 0
1, 30192, Note_on_c, 0, 56, 75
1, 30192, Note_on_c, 1, 44, 80
1, 30215, Note_on_c, 0, 56, 0
1, 30215, Note_on_c, 1, 44, 0
1, 30216, Note_on_c, 0, 58, 75
1, 30216, Note_on_c, 1, 46, 80
1, 30239, Note_on_c, 0, 58, 0
1, 30239, Note_on_c, 1, 46, 0
1, 30240, Note_on_c, 0, 59, 75
1, 30240, Note_on_c, 1, 47, 80
1, 30263, Note_on_c, 0, 59, 0
1, 30263, Note_on_c, 1, 47, 0
1, 30264, Note_on_c, 0, 61, 75
1, 30264, Note_on_c, 1, 49, 80
1, 30287, Note_on_c, 0, 61, 0
1, 30287, Note_on_c, 1, 49, 0
1, 30288, Note_on_c, 0, 63, 75
1, 30288, Note_on_c, 1, 51, 80
1, 30311, Note_on_c, 0, 63, 0
1, 30311, Note_on_c, 1, 51, 0
1, 30312, Note_on_c, 0, 64, 75
1, 30312, Note_on_c, 1, 52, 80
1, 30335, Note_on_c, 0, 64, 0
1, 30335, Note_on_c, 1, 52, 0
1, 30336, Note_on_c, 0, 66, 75
1, 30336, Note_on_c, 1, 54, 80
1, 30346, Note_on_c, 0, 66, 0
1, 30346, Note_on_c, 1, 54, 0
1, 30360, Note_on_c, 0, 66, 75
1, 30360, Note_on_c, 1, 54, 80
1, 30383, Note_on_c, 0, 66, 0
1, 30383, Note_on_c, 1, 54, 0
1, 30384, Note_on_c, 0, 68, 75
1, 30384, Note_on_c, 1, 56, 80
1, 30407, Note_on_c, 0, 68, 0
1, 30407, Note_on_c, 1, 56, 0
1, 30408, Note_on_c, 0, 70, 75
1, 30408, Note_on_c, 1, 58, 80
1, 30431, Note_on_c, 0, 70, 0
1, 30431, Note_on_c, 1, 58, 0
1, 30432, Note_on_c, 0, 71, 75
1, 30432, Note_on_c, 1, 59, 80
1, 30455, Note_on_c, 0, 71, 0
1, 30455, Note_on_c, 1, 59, 0
1, 30456, Note_on_c, 0, 73, 75
1, 30456, Note_on_c, 1, 61, 80
1, 30479, Note_on_c, 0, 73, 0
1, 30479, Note_on_c, 1, 61, 0
1, 30480, Note_on_c, 0, 75, 75
1, 30480, Note_on_c, 1, 63, 80
1, 30503, Note_on_c, 0, 75, 0
1, 30503, Note_on_c, 1, 63, 0
1, 30504, Note_on_c, 0, 76, 75
1, 30504, Note_on_c, 1, 64, 80
1, 30527, Note_on_c, 0, 76, 0
1, 30527, Note_on_c, 1, 64, 0
1, 30528, Note_on_c, 0, 78, 91
1, 30528, Note_on_c, 1, 66, 96
1, 30576, Note_on_c, 0, 78, 0
1, 30576, Note_on_c, 1, 66, 0
1, 30600, Note_on_c, 0, 77, 75
1, 30600, Note_on_c, 1, 65, 80
1, 30624, Note_on_c, 0, 77, 0
1, 30624, Note_on_c, 0, 78, 75
1, 30624, Note_on_c, 1, 65, 0
1, 30624, Note_on_c, 1, 66, 80
1, 30669, Note_on_c, 0, 78, 0
1, 30669, Note_on_c, 1, 66, 0
1, 30696, Note_on_c, 0, 77, 75
1, 30696, Note_on_c, 1, 65, 80
1, 30720, Note_on_c, 0, 77, 0
1, 30720, Note_on_c, 0, 78, 75
1, 30720, Note_on_c, 1, 65, 0
1, 30720, Note_on_c, 1, 66, 80
1, 30809, Note_on_c, 0, 78, 0
1, 30809, Note_on_c, 1, 66, 0
1, 30912, Note_on_c, 0, 80, 96
1, 30912, Note_on_c, 0, 76, 96
1, 30960, Note_on_c, 0, 80, 0
1, 30960, Note_on_c, 0, 76, 0
1, 30960, Note_on_c, 0, 78, 79
1, 30960, Note_on_c, 0, 75, 79
1, 31005, Note_on_c, 0, 78, 0
1, 31005, Note_on_c, 0, 75, 0
1, 31008, Note_on_c, 0, 76, 78
1, 31008, Note_on_c, 0, 73, 78
1, 31056, Note_on_c, 0, 76, 0
1, 31056, Note_on_c, 0, 73, 0
1, 31056, Note_on_c, 0, 75, 78
1, 31056, Note_on_c, 0, 71, 78
1, 31101, Note_on_c, 0, 75, 0
1, 31101, Note_on_c, 0, 71, 0
1, 31104, Note_on_c, 0, 78, 93
1, 31104, Note_on_c, 0, 75, 93
1, 31152, Note_on_c, 0, 78, 0
1, 31152, Note_on_c, 0, 75, 0
1, 31152, Note_on_c, 0, 76, 76
1, 31152, Note_on_c, 0, 73, 76
1, 31197, Note_on_c, 0, 76, 0
1, 31197, Note_on_c, 0, 73, 0
1, 31200, Note_on_c, 0, 75, 76
1, 31200, Note_on_c, 0, 71, 76
1, 31248, Note_on_c, 0, 75, 0
1, 31248, Note_on_c, 0, 71, 0
1, 31248, Note_on_c, 0, 73, 75
1, 31248, Note_on_c, 0, 70, 75
1, 31293, Note_on_c, 0, 73, 0
1, 31293, Note_on_c, 0, 70, 0
1, 31296, Note_on_c, 0, 71, 75
1, 31296, Note_on_c, 1, 54, 64
1, 31319, Note_on_c, 1, 54, 0
1, 31320, Note_on_c, 0, 71, 0
1, 31320, Note_on_c, 0, 66, 75
1, 31320, Note_on_c, 1, 63, 64
1, 31343, Note_on_c, 0, 66, 0
1, 31343, Note_on_c, 1, 63, 0
1, 31344, Note_on_c, 0, 66, 96
1, 31344, Note_on_c, 1, 59, 64
1, 31367, Note_on_c, 1, 59, 0
1, 31368, Note_on_c, 1, 63, 64
1, 31391, Note_on_c, 1, 63, 0
1, 31392, Note_on_c, 1, 54, 64
1, 31415, Note_on_c, 1, 54, 0
1, 31416, Note_on_c, 1, 63, 64
1, 31439, Note_on_c, 1, 63, 0
1, 31440, Note_on_c, 0, 66, 0
1, 31440, Note_on_c, 0, 71, 80
1, 31440, Note_on_c, 1, 59, 64
1, 31463, Note_on_c, 1, 59, 0
1, 31464, Note_on_c, 1, 63, 64
1, 31487, Note_on_c, 1, 63, 0
1, 31488, Note_on_c, 1, 54, 64
1, 31511, Note_on_c, 1, 54, 0
1, 31512, Note_on_c, 1, 63, 64
1, 31529, Note_on_c, 0, 71, 0
1, 31535, Note_on_c, 1, 63, 0
1, 31536, Note_on_c, 0, 75, 80
1, 31536, Note_on_c, 1, 59, 64
1, 31559, Note_on_c, 1, 59, 0
1, 31560, Note_on_c, 1, 63, 64
1, 31583, Note_on_c, 1, 63, 0
1, 31584, Note_on_c, 1, 54, 64
1, 31607, Note_on_c, 0, 75, 0
1, 31607, Note_on_c, 1, 54, 0
1, 31608, Note_on_c, 1, 63, 64
1, 31614, Note_on_c, 0, 73, 80
1, 31620, Note_on_c, 0, 73, 0
1, 31620, Note_on_c, 0, 71, 80
1, 31626, Note_on_c, 0, 71, 0
1, 31626, Note_on_c, 0, 70, 80
1, 31631, Note_on_c, 1, 63, 0
1, 31632, Note_on_c, 0, 70, 0
1, 31632, Note_on_c, 0, 71, 80
1, 31632, Note_on_c, 1, 59, 64
1, 31655, Note_on_c, 1, 59, 0
1, 31656, Note_on_c, 1, 63, 64
1, 31677, Note_on_c, 0, 71, 0
1, 31679, Note_on_c, 1, 63, 0
1, 31680, Note_on_c, 0, 70, 80
1, 31680, Note_on_c, 1, 54, 64
1, 31700, Note_on_c, 0, 70, 0
1, 31703, Note_on_c, 1, 54, 0
1, 31704, Note_on_c, 1, 64, 64
1, 31727, Note_on_c, 1, 64, 0
1, 31728, Note_on_c, 0, 73, 97
1, 31728, Note_on_c, 1, 58, 64
1, 31751, Note_on_c, 1, 58, 0
1, 31752, Note_on_c, 1, 64, 64
1, 31775, Note_on_c, 1, 64, 0
1, 31776, Note_on_c, 1, 54, 64
1, 31799, Note_on_c, 1, 54, 0
1, 31800, Note_on_c, 1, 64, 64
1, 31823, Note_on_c, 1, 64, 0
1, 31824, Note_on_c, 0, 73, 0
1, 31824, Note_on_c, 0, 76, 83
1, 31824, Note_on_c, 1, 58, 64
1, 31847, Note_on_c, 1, 58, 0
1, 31848, Note_on_c, 1, 64, 64
1, 31871, Note_on_c, 1, 64, 0
1, 31872, Note_on_c, 1, 54, 64
1, 31895, Note_on_c, 1, 54, 0
1, 31896, Note_on_c, 1, 64, 64
1, 31913, Note_on_c, 0, 76, 0
1, 31919, Note_on_c, 1, 64, 0
1, 31920, Note_on_c, 0, 79, 86
1, 31920, Note_on_c, 1, 58, 64
1, 31943, Note_on_c, 1, 58, 0
1, 31944, Note_on_c, 1, 64, 64
1, 31967, Note_on_c, 1, 64, 0
1, 31968, Note_on_c, 1, 54, 64
1, 31991, Note_on_c, 1, 54, 0
1, 31992, Note_on_c, 1, 64, 64
1, 32009, Note_on_c, 0, 79, 0
1, 32015, Note_on_c, 1, 64, 0
1, 32016, Note_on_c, 0, 70, 84
1, 32016, Note_on_c, 1, 58, 64
1, 32039, Note_on_c, 1, 58, 0
1, 32040, Note_on_c, 1, 64, 64
1, 32061, Note_on_c, 0, 70, 0
1, 32063, Note_on_c, 1, 64, 0
1, 32064, Note_on_c, 0, 71, 83
1, 32064, Note_on_c, 1, 54, 64
1, 32084, Note_on_c, 0, 71, 0
1, 32087, Note_on_c, 1, 54, 0
1, 32088, Note_on_c, 1, 62, 64
1, 32111, Note_on_c, 1, 62, 0
1, 32112, Note_on_c, 0, 71, 98
1, 32112, Note_on_c, 1, 59, 64
1, 32135, Note_on_c, 1, 59, 0
1, 32136, Note_on_c, 1, 62, 64
1, 32159, Note_on_c, 1, 62, 0
1, 32160, Note_on_c, 1, 54, 64
1, 32183, Note_on_c, 1, 54, 0
1, 32184, Note_on_c, 1, 62, 64
1, 32207, Note_on_c, 1, 62, 0
1, 32208, Note_on_c, 0, 71, 0
1, 32208, Note_on_c, 0, 71, 80
1, 32208, Note_on_c, 1, 59, 64
1, 32231, Note_on_c, 1, 59, 0
1, 32232, Note_on_c, 1, 62, 64
1, 32255, Note_on_c, 1, 62, 0
1, 32256, Note_on_c, 1, 54, 64
1, 32279, Note_on_c, 1, 54, 0
1, 32280, Note_on_c, 1, 62, 64
1, 32297, Note_on_c, 0, 71, 0
1, 32303, Note_on_c, 1, 62, 0
1, 32304, Note_on_c, 0, 71, 80
1, 32304, Note_on_c, 1, 59, 64
1, 32327, Note_on_c, 1, 59, 0
1, 32328, Note_on_c, 1, 62, 64
1, 32351, Note_on_c, 1, 62, 0
1, 32352, Note_on_c, 1, 54, 64
1, 32375, Note_on_c, 0, 71, 0
1, 32375, Note_on_c, 1, 54, 0
1, 32376, Note_on_c, 1, 62, 64
1, 32382, Note_on_c, 0, 73, 80
1, 32388, Note_on_c, 0, 73, 0
1, 32388, Note_on_c, 0, 71, 80
1, 32394, Note_on_c, 0, 71, 0
1, 32394, Note_on_c, 0, 70, 80
1, 32399, Note_on_c, 1, 62, 0
1, 32400, Note_on_c, 0, 70, 0
1, 32400, Note_on_c, 0, 71, 80
1, 32400, Note_on_c, 1, 59, 64
1, 32423, Note_on_c, 1, 59, 0
1, 32424, Note_on_c, 1, 62, 64
1, 32445, Note_on_c, 0, 71, 0
1, 32447, Note_on_c, 1, 62, 0
1, 32448, Note_on_c, 0, 71, 80
1, 32448, Note_on_c, 1, 55, 64
1, 32468, Note_on_c, 0, 71, 0
1, 32471, Note_on_c, 1, 55, 0
1, 32472, Note_on_c, 1, 62, 65
1, 32495, Note_on_c, 1, 62, 0
1, 32496, Note_on_c, 0, 83, 96
1, 32496, Note_on_c, 0, 71, 96
1, 32496, Note_on_c, 1, 59, 66
1, 32519, Note_on_c, 1, 59, 0
1, 32520, Note_on_c, 1, 62, 68
1, 32543, Note_on_c, 1, 62, 0
1, 32544, Note_on_c, 1, 55, 69
1, 32567, Note_on_c, 1, 55, 0
1, 32568, Note_on_c, 1, 62, 70
1, 32591, Note_on_c, 1, 62, 0
1, 32592, Note_on_c, 0, 83, 0
1, 32592, Note_on_c, 0, 71, 0
1, 32592, Note_on_c, 0, 83, 80
1, 32592, Note_on_c, 0, 71, 80
1, 32592, Note_on_c, 1, 59, 72
1, 32615, Note_on_c, 1, 59, 0
1, 32616, Note_on_c, 1, 62, 73
1, 32639, Note_on_c, 1, 62, 0
1, 32640, Note_on_c, 1, 43, 75
1, 32663, Note_on_c, 1, 43, 0
1, 32664, Note_on_c, 1, 50, 75
1, 32681, Note_on_c, 0, 83, 0
1, 32681, Note_on_c, 0, 71, 0
1, 32687, Note_on_c, 1, 50, 0
1, 32688, Note_on_c, 0, 83, 80
1, 32688, Note_on_c, 0, 71, 80
1, 32688, Note_on_c, 1, 47, 75
1, 32711, Note_on_c, 1, 47, 0
1, 32712, Note_on_c, 1, 50, 75
1, 32735, Note_on_c, 1, 50, 0
1, 32736, Note_on_c, 1, 43, 75
1, 32755, Note_on_c, 0, 83, 0
1, 32755, Note_on_c, 0, 71, 0
1, 32759, Note_on_c, 1, 43, 0
1, 32760, Note_on_c, 0, 83, 80
1, 32760, Note_on_c, 0, 71, 80
1, 32760, Note_on_c, 1, 50, 75
1, 32770, Note_on_c, 0, 83, 0
1, 32770, Note_on_c, 0, 71, 0
1, 32783, Note_on_c, 1, 50, 0
1, 32784, Note_on_c, 0, 83, 80
1, 32784, Note_on_c, 0, 71, 80
1, 32784, Note_on_c, 1, 47, 75
1, 32794, Note_on_c, 0, 83, 0
1, 32794, Note_on_c, 0, 71, 0
1, 32807, Note_on_c, 1, 47, 0
1, 32808, Note_on_c, 0, 83, 80
1, 32808, Note_on_c, 0, 71, 80
1, 32808, Note_on_c, 1, 50, 75
1, 32818, Note_on_c, 0, 83, 0
1, 32818, Note_on_c, 0, 71, 0
1, 32831, Note_on_c, 1, 50, 0
1, 32832, Note_on_c, 0, 83, 96
1, 32832, Note_on_c, 0, 71, 96
1, 32832, Note_on_c, 1, 41, 75
1, 32855, Note_on_c, 1, 41, 0
1, 32856, Note_on_c, 1, 50, 75
1, 32879, Note_on_c, 1, 50, 0
1, 32880, Note_on_c, 1, 47, 75
1, 32903, Note_on_c, 1, 47, 0
1, 32904, Note_on_c, 1, 50, 75
1, 32927, Note_on_c, 1, 50, 0
1, 32928, Note_on_c, 1, 41, 75
1, 32951, Note_on_c, 1, 41, 0
1, 32952, Note_on_c, 1, 50, 75
1, 32975, Note_on_c, 1, 50, 0
1, 32976, Note_on_c, 0, 83, 0
1, 32976, Note_on_c, 0, 71, 0
1, 32976, Note_on_c, 0, 82, 80
1, 32976, Note_on_c, 0, 70, 80
1, 32976, Note_on_c, 1, 47, 75
1, 32999, Note_on_c, 1, 47, 0
1, 33000, Note_on_c, 1, 50, 75
1, 33023, Note_on_c, 1, 50, 0
1, 33024, Note_on_c, 0, 82, 0
1, 33024, Note_on_c, 0, 70, 0
1, 33024, Note_on_c, 0, 83, 80
1, 33024, Note_on_c, 0, 71, 80
1, 33024, Note_on_c, 1, 41, 75
1, 33044, Note_on_c, 0, 83, 0
1, 33044, Note_on_c, 0, 71, 0
1, 33047, Note_on_c, 1, 41, 0
1, 33048, Note_on_c, 1, 50, 75
1, 33071, Note_on_c, 1, 50, 0
1, 33072, Note_on_c, 0, 82, 80
1, 33072, Note_on_c, 0, 70, 80
1, 33072, Note_on_c, 1, 47, 75
1, 33095, Note_on_c, 1, 47, 0
1, 33096, Note_on_c, 1, 50, 75
1, 33119, Note_on_c, 1, 50, 0
1, 33120, Note_on_c, 0, 82, 0
1, 33120, Note_on_c, 0, 70, 0
1, 33120, Note_on_c, 0, 83, 80
1, 33120, Note_on_c, 0, 71, 80
1, 33120, Note_on_c, 1, 41, 75
1, 33140, Note_on_c, 0, 83, 0
1, 33140, Note_on_c, 0, 71, 0
1, 33143, Note_on_c, 1, 41, 0
1, 33144, Note_on_c, 1, 50, 75
1, 33167, Note_on_c, 1, 50, 0
1, 33168, Note_on_c, 0, 82, 80
1, 33168, Note_on_c, 0, 70, 80
1, 33168, Note_on_c, 1, 47, 75
1, 33191, Note_on_c, 1, 47, 0
1, 33192, Note_on_c, 1, 50, 75
1, 33215, Note_on_c, 1, 50, 0
1, 33216, Note_on_c, 0, 82, 0
1, 33216, Note_on_c, 0, 70, 0
1, 33216, Note_on_c, 0, 83, 80
1, 33216, Note_on_c, 0, 71, 80
1, 33216, Note_on_c, 1, 52, 91
1, 33216, Note_on_c, 1, 47, 91
1, 33216, Note_on_c, 1, 44, 91
1, 33216, Note_on_c, 1, 40, 91
1, 33236, Note_on_c, 0, 83, 0
1, 33236, Note_on_c, 0, 71, 0
1, 33264, Note_on_c, 0, 86, 80
1, 33264, Note_on_c, 0, 74, 80
1, 33309, Note_on_c, 0, 86, 0
1, 33309, Note_on_c, 0, 74, 0
1, 33312, Note_on_c, 0, 85, 80
1, 33312, Note_on_c, 0, 73, 80
1, 33312, Note_on_c, 1, 52, 0
1, 33312, Note_on_c, 1, 47, 0
1, 33312, Note_on_c, 1, 44, 0
1, 33312, Note_on_c, 1, 40, 0
1, 33357, Note_on_c, 0, 85, 0
1, 33357, Note_on_c, 0, 73, 0
1, 33360, Note_on_c, 0, 83, 80
1, 33360, Note_on_c, 0, 71, 80
1, 33405, Note_on_c, 0, 83, 0
1, 33405, Note_on_c, 0, 71, 0
1, 33408, Note_on_c, 1, 59, 75
1, 33408, Note_on_c, 1, 56, 75
1, 33408, Note_on_c, 1, 52, 75
1, 33456, Note_on_c, 0, 77, 80
1, 33497, Note_on_c, 1, 59, 0
1, 33497, Note_on_c, 1, 56, 0
1, 33497, Note_on_c, 1, 52, 0
1, 33501, Note_on_c, 0, 77, 0
1, 33504, Note_on_c, 0, 76, 80
1, 33549, Note_on_c, 0, 76, 0
1, 33552, Note_on_c, 0, 74, 80
1, 33597, Note_on_c, 0, 74, 0
1, 33600, Note_on_c, 1, 52, 91
1, 33600, Note_on_c, 1, 48, 91
1, 33600, Note_on_c, 1, 45, 91
1, 33600, Note_on_c, 1, 40, 91
1, 33648, Note_on_c, 0, 88, 80
1, 33648, Note_on_c, 0, 84, 80
1, 33693, Note_on_c, 0, 88, 0
1, 33693, Note_on_c, 0, 84, 0
1, 33696, Note_on_c, 0, 86, 80
1, 33696, Note_on_c, 0, 83, 80
1, 33696, Note_on_c, 1, 52, 0
1, 33696, Note_on_c, 1, 48, 0
1, 33696, Note_on_c, 1, 45, 0
1, 33696, Note_on_c, 1, 40, 0
1, 33741, Note_on_c, 0, 86, 0
1, 33741, Note_on_c, 0, 83, 0
1, 33744, Note_on_c, 0, 84, 80
1, 33744, Note_on_c, 0, 81, 80
1, 33789, Note_on_c, 0, 84, 0
1, 33789, Note_on_c, 0, 81, 0
1, 33792, Note_on_c, 1, 60, 75
1, 33792, Note_on_c, 1, 57, 75
1, 33792, Note_on_c, 1, 52, 75
1, 33840, Note_on_c, 0, 76, 80
1, 33840, Note_on_c, 0, 72, 80
1, 33881, Note_on_c, 1, 60, 0
1, 33881, Note_on_c, 1, 57, 0
1, 33881, Note_on_c, 1, 52, 0
1, 33885, Note_on_c, 0, 76, 0
1, 33885, Note_on_c, 0, 72, 0
1, 33888, Note_on_c, 0, 74, 80
1, 33888, Note_on_c, 0, 71, 80
1, 33933, Note_on_c, 0, 74, 0
1, 33933, Note_on_c, 0, 71, 0
1, 33936, Note_on_c, 0, 72, 80
1, 33936, Note_on_c, 0, 69, 80
1, 33981, Note_on_c, 0, 72, 0
1, 33981, Note_on_c, 0, 69, 0
1, 33984, Note_on_c, 0, 70, 80
1, 33984, Note_on_c, 1, 40, 70
1, 33996, Note_on_c, 0, 70, 0
1, 33997, Note_on_c, 0, 72, 80
1, 34007, Note_on_c, 1, 40, 0
1, 34008, Note_on_c, 1, 43, 70
1, 34009, Note_on_c, 0, 72, 0
1, 34010, Note_on_c, 0, 70, 80
1, 34022, Note_on_c, 0, 70, 0
1, 34023, Note_on_c, 0, 72, 80
1, 34031, Note_on_c, 1, 43, 0
1, 34032, Note_on_c, 1, 41, 70
1, 34035, Note_on_c, 0, 72, 0
1, 34036, Note_on_c, 0, 70, 80
1, 34048, Note_on_c, 0, 70, 0
1, 34049, Note_on_c, 0, 72, 80
1, 34055, Note_on_c, 1, 41, 0
1, 34056, Note_on_c, 1, 43, 70
1, 34061, Note_on_c, 0, 72, 0
1, 34062, Note_on_c, 0, 70, 80
1, 34074, Note_on_c, 0, 70, 0
1, 34075, Note_on_c, 0, 72, 80
1, 34079, Note_on_c, 1, 43, 0
1, 34080, Note_on_c, 1, 40, 70
1, 34087, Note_on_c, 0, 72, 0
1, 34088, Note_on_c, 0, 70, 80
1, 34100, Note_on_c, 0, 70, 0
1, 34101, Note_on_c, 0, 72, 80
1, 34103, Note_on_c, 1, 40, 0
1, 34104, Note_on_c, 1, 43, 70
1, 34113, Note_on_c, 0, 72, 0
1, 34114, Note_on_c, 0, 70, 80
1, 34126, Note_on_c, 0, 70, 0
1, 34127, Note_on_c, 0, 69, 80
1, 34127, Note_on_c, 1, 43, 0
1, 34128, Note_on_c, 1, 41, 70
1, 34151, Note_on_c, 1, 41, 0
1, 34152, Note_on_c, 0, 69, 0
1, 34152, Note_on_c, 0, 70, 80
1, 34152, Note_on_c, 1, 43, 70
1, 34175, Note_on_c, 1, 43, 0
1, 34176, Note_on_c, 0, 70, 0
1, 34176, Note_on_c, 0, 69, 80
1, 34176, Note_on_c, 1, 41, 70
1, 34199, Note_on_c, 1, 41, 0
1, 34200, Note_on_c, 1, 48, 70
1, 34223, Note_on_c, 1, 48, 0
1, 34224, Note_on_c, 1, 45, 70
1, 34247, Note_on_c, 1, 45, 0
1, 34248, Note_on_c, 1, 48, 70
1, 34265, Note_on_c, 0, 69, 0
1, 34271, Note_on_c, 1, 48, 0
1, 34272, Note_on_c, 1, 41, 70
1, 34295, Note_on_c, 1, 41, 0
1, 34296, Note_on_c, 1, 48, 70
1, 34319, Note_on_c, 1, 48, 0
1, 34320, Note_on_c, 1, 45, 70
1, 34343, Note_on_c, 1, 45, 0
1, 34344, Note_on_c, 1, 48, 70
1, 34367, Note_on_c, 1, 48, 0
1, 34368, Note_on_c, 0, 70, 80
1, 34368, Note_on_c, 0, 64, 64
1, 34368, Note_on_c, 1, 36, 70
1, 34391, Note_on_c, 0, 64, 0
1, 34391, Note_on_c, 1, 36, 0
1, 34392, Note_on_c, 0, 67, 64
1, 34392, Note_on_c, 1, 48, 70
1, 34415, Note_on_c, 0, 67, 0
1, 34415, Note_on_c, 1, 48, 0
1, 34416, Note_on_c, 0, 66, 64
1, 34416, Note_on_c, 1, 36, 70
1, 34439, Note_on_c, 0, 66, 0
1, 34439, Note_on_c, 1, 36, 0
1, 34440, Note_on_c, 0, 64, 64
1, 34440, Note_on_c, 1, 48, 70
1, 34463, Note_on_c, 0, 64, 0
1, 34463, Note_on_c, 1, 48, 0
1, 34464, Note_on_c, 1, 36, 70
1, 34487, Note_on_c, 1, 36, 0
1, 34488, Note_on_c, 0, 67, 64
1, 34488, Note_on_c, 1, 48, 70
1, 34511, Note_on_c, 0, 67, 0
1, 34511, Note_on_c, 1, 48, 0
1, 34512, Note_on_c, 0, 66, 64
1, 34512, Note_on_c, 1, 36, 70
1, 34535, Note_on_c, 0, 66, 0
1, 34535, Note_on_c, 1, 36, 0
1, 34536, Note_on_c, 0, 64, 64
1, 34536, Note_on_c, 1, 48, 70
1, 34559, Note_on_c, 0, 64, 0
1, 34559, Note_on_c, 1, 48, 0
1, 34560, Note_on_c, 0, 70, 0
1, 34560, Note_on_c, 0, 71, 80
1, 34560, Note_on_c, 0, 63, 64
1, 34560, Note_on_c, 1, 35, 70
1, 34583, Note_on_c, 0, 71, 0
1, 34584, Note_on_c, 0, 66, 80
1, 34607, Note_on_c, 0, 66, 0
1, 34608, Note_on_c, 0, 68, 80
1, 34631, Note_on_c, 0, 68, 0
1, 34632, Note_on_c, 0, 70, 80
1, 34649, Note_on_c, 0, 63, 0
1, 34649, Note_on_c, 1, 35, 0
1, 34655, Note_on_c, 0, 70, 0
1, 34656, Note_on_c, 0, 71, 80
1, 34679, Note_on_c, 0, 71, 0
1, 34680, Note_on_c, 0, 73, 80
1, 34703, Note_on_c, 0, 73, 0
1, 34704, Note_on_c, 0, 75, 80
1, 34727, Note_on_c, 0, 75, 0
1, 34728, Note_on_c, 0, 76, 80
1, 34751, Note_on_c, 0, 76, 0
1, 34752, Note_on_c, 0, 78, 80
1, 34752, Note_on_c, 1, 54, 64
1, 34775, Note_on_c, 0, 78, 0
1, 34775, Note_on_c, 1, 54, 0
1, 34776, Note_on_c, 0, 82, 80
1, 34776, Note_on_c, 1, 63, 64
1, 34799, Note_on_c, 0, 82, 0
1, 34799, Note_on_c, 1, 63, 0
1, 34800, Note_on_c, 0, 83, 80
1, 34800, Note_on_c, 1, 59, 64
1, 34823, Note_on_c, 0, 83, 0
1, 34823, Note_on_c, 1, 59, 0
1, 34824, Note_on_c, 0, 78, 80
1, 34824, Note_on_c, 1, 63, 64
1, 34847, Note_on_c, 0, 78, 0
1, 34847, Note_on_c, 1, 63, 0
1, 34848, Note_on_c, 0, 76, 80
1, 34848, Note_on_c, 1, 54, 64
1, 34871, Note_on_c, 0, 76, 0
1, 34871, Note_on_c, 1, 54, 0
1, 34872, Note_on_c, 0, 75, 80
1, 34872, Note_on_c, 1, 63, 64
1, 34895, Note_on_c, 0, 75, 0
1, 34895, Note_on_c, 1, 63, 0
1, 34896, Note_on_c, 0, 73, 80
1, 34896, Note_on_c, 1, 59, 64
1, 34919, Note_on_c, 0, 73, 0
1, 34919, Note_on_c, 1, 59, 0
1, 34920, Note_on_c, 0, 71, 80
1, 34920, Note_on_c, 1, 63, 64
1, 34943, Note_on_c, 0, 71, 0
1, 34943, Note_on_c, 1, 63, 0
1, 34944, Note_on_c, 0, 73, 80
1, 34944, Note_on_c, 1, 54, 64
1, 34956, Note_on_c, 0, 73, 0
1, 34956, Note_on_c, 0, 75, 80
1, 34967, Note_on_c, 1, 54, 0
1, 34968, Note_on_c, 0, 75, 0
1, 34968, Note_on_c, 0, 73, 80
1, 34968, Note_on_c, 1, 64, 64
1, 34980, Note_on_c, 0, 73, 0
1, 34980, Note_on_c, 0, 75, 80
1, 34991, Note_on_c, 1, 64, 0
1, 34992, Note_on_c, 0, 75, 0
1, 34992, Note_on_c, 0, 73, 80
1, 34992, Note_on_c, 1, 61, 64
1, 35004, Note_on_c, 0, 73, 0
1, 35004, Note_on_c, 0, 75, 80
1, 35015, Note_on_c, 0, 75, 0
1, 35015, Note_on_c, 0, 73, 80
1, 35015, Note_on_c, 1, 61, 0
1, 35016, Note_on_c, 1, 64, 64
1, 35026, Note_on_c, 0, 73, 0
1, 35026, Note_on_c, 0, 75, 80
1, 35037, Note_on_c, 0, 75, 0
1, 35037, Note_on_c, 0, 73, 80
1, 35039, Note_on_c, 1, 64, 0
1, 35040, Note_on_c, 1, 54, 64
1, 35048, Note_on_c, 0, 73, 0
1, 35048, Note_on_c, 0, 75, 80
1, 35059, Note_on_c, 0, 75, 0
1, 35059, Note_on_c, 0, 73, 80
1, 35063, Note_on_c, 1, 54, 0
1, 35064, Note_on_c, 1, 64, 64
1, 35070, Note_on_c, 0, 73, 0
1, 35070, Note_on_c, 0, 75, 80
1, 35081, Note_on_c, 0, 75, 0
1, 35081, Note_on_c, 0, 73, 80
1, 35087, Note_on_c, 1, 64, 0
1, 35088, Note_on_c, 1, 61, 64
1, 35092, Note_on_c, 0, 73, 0
1, 35092, Note_on_c, 0, 71, 80
1, 35111, Note_on_c, 1, 61, 0
1, 35112, Note_on_c, 1, 64, 64
1, 35114, Note_on_c, 0, 71, 0
1, 35114, Note_on_c, 0, 73, 80
1, 35135, Note_on_c, 1, 64, 0
1, 35136, Note_on_c, 0, 73, 0
1, 35136, Note_on_c, 0, 71, 80
1, 35136, Note_on_c, 1, 63, 64
1, 35136, Note_on_c, 1, 59, 64
1, 35225, Note_on_c, 0, 71, 0
1, 35225, Note_on_c, 1, 63, 0
1, 35225, Note_on_c, 1, 59, 0
1, 35328, Note_on_c, 0, 78, 75
1, 35358, Note_on_c, 0, 78, 0
1, 35360, Note_on_c, 0, 75, 75
1, 35390, Note_on_c, 0, 75, 0
1, 35392, Note_on_c, 0, 71, 75
1, 35422, Note_on_c, 0, 71, 0
1, 35424, Note_on_c, 0, 70, 75
1, 35424, Note_on_c, 1, 61, 75
1, 35424, Note_on_c, 1, 54, 75
1, 35454, Note_on_c, 0, 70, 0
1, 35456, Note_on_c, 0, 73, 75
1, 35486, Note_on_c, 0, 73, 0
1, 35488, Note_on_c, 0, 76, 75
1, 35513, Note_on_c, 1, 61, 0
1, 35513, Note_on_c, 1, 54, 0
1, 35518, Note_on_c, 0, 76, 0
1, 35520, Note_on_c, 0, 78, 75
1, 35520, Note_on_c, 1, 63, 75
1, 35520, Note_on_c, 1, 59, 75
1, 35538, Note_on_c, 0, 78, 0
1, 35538, Note_on_c, 0, 76, 75
1, 35616, Note_on_c, 0, 76, 0
1, 35616, Note_on_c, 0, 75, 75
1, 35697, Note_on_c, 1, 63, 0
1, 35697, Note_on_c, 1, 59, 0
1, 35705, Note_on_c, 0, 75, 0
1, 35712, Note_on_c, 0, 66, 80
1, 35712, Note_on_c, 1, 54, 80
1, 35742, Note_on_c, 0, 66, 0
1, 35742, Note_on_c, 1, 54, 0
1, 35744, Note_on_c, 0, 63, 80
1, 35744, Note_on_c, 1, 51, 80
1, 35774, Note_on_c, 0, 63, 0
1, 35774, Note_on_c, 1, 51, 0
1, 35776, Note_on_c, 0, 59, 80
1, 35776, Note_on_c, 1, 47, 80
1, 35806, Note_on_c, 0, 59, 0
1, 35806, Note_on_c, 1, 47, 0
1, 35808, Note_on_c, 0, 64, 80
1, 35808, Note_on_c, 1, 52, 80
1, 35838, Note_on_c, 0, 64, 0
1, 35838, Note_on_c, 1, 52, 0
1, 35840, Note_on_c, 0, 61, 80
1, 35840, Note_on_c, 1, 49, 80
1, 35870, Note_on_c, 0, 61, 0
1, 35870, Note_on_c, 1, 49, 0
1, 35872, Note_on_c, 0, 58, 80
1, 35872, Note_on_c, 1, 46, 80
1, 35902, Note_on_c, 0, 58, 0
1, 35902, Note_on_c, 1, 46, 0
1, 35904, Note_on_c, 0, 59, 80
1, 35904, Note_on_c, 1, 47, 80
1, 35943, Note_on_c, 0, 59, 0
1, 35943, Note_on_c, 1, 47, 0
1, 36000, Note_on_c, 0, 71, 80
1, 36000, Note_on_c, 0, 66, 80
1, 36000, Note_on_c, 0, 63, 80
1, 36000, Note_on_c, 0, 59, 80
1, 36000, Note_on_c, 1, 47, 80
1, 36039, Note_on_c, 0, 71, 0
1, 36039, Note_on_c, 0, 66, 0
1, 36039, Note_on_c, 0, 63, 0
1, 36039, Note_on_c, 0, 59, 0
1, 36039, Note_on_c, 1, 47, 0
1, 36096, Note_on_c, 0, 71, 80
1, 36096, Note_on_c, 0, 66, 80
1, 36096, Note_on_c, 0, 63, 80
1, 36096, Note_on_c, 0, 59, 80
1, 36096, Note_on_c, 1, 47, 80
1, 36185, Note_on_c, 0, 71, 0
1, 36185, Note_on_c, 0, 66, 0
1, 36185, Note_on_c, 0, 63, 0
1, 36185, Note_on_c, 0, 59, 0
1, 36185, Note_on_c, 1, 47, 0
1, 36288, Note_on_c, 0, 83, 64
1, 36288, Note_on_c, 0, 74, 64
1, 36327, Note_on_c, 0, 83, 0
1, 36327, Note_on_c, 0, 74, 0
1, 36384, Note_on_c, 0, 86, 64
1, 36384, Note_on_c, 0, 78, 64
1, 36423, Note_on_c, 0, 86, 0
1, 36423, Note_on_c, 0, 78, 0
1, 36480, Note_on_c, 0, 83, 64
1, 36480, Note_on_c, 0, 74, 64
1, 36569, Note_on_c, 0, 83, 0
1, 36569, Note_on_c, 0, 74, 0
1, 36672, Note_on_c, 0, 78, 64
1, 36672, Note_on_c, 0, 71, 64
1, 36711, Note_on_c, 0, 78, 0
1, 36711, Note_on_c, 0, 71, 0
1, 36768, Note_on_c, 0, 83, 64
1, 36768, Note_on_c, 0, 74, 64
1, 36807, Note_on_c, 0, 83, 0
1, 36807, Note_on_c, 0, 74, 0
1, 36864, Note_on_c, 0, 78, 64
1, 36864, Note_on_c, 0, 71, 64
1, 36953, Note_on_c, 0, 78, 0
1, 36953, Note_on_c, 0, 71, 0
1, 37056, Note_on_c, 0, 74, 64
1, 37056, Note_on_c, 0, 66, 64
1, 37095, Note_on_c, 0, 74, 0
1, 37095, Note_on_c, 0, 66, 0
1, 37152, Note_on_c, 0, 78, 64
1, 37152, Note_on_c, 0, 71, 64
1, 37191, Note_on_c, 0, 78, 0
1, 37191, Note_on_c, 0, 71, 0
1, 37248, Note_on_c, 0, 74, 64
1, 37248, Note_on_c, 0, 66, 64
1, 37337, Note_on_c, 0, 74, 0
1, 37337, Note_on_c, 0, 66, 0
1, 37440, Note_on_c, 0, 79, 80
1, 37440, Note_on_c, 0, 76, 80
1, 37440, Note_on_c, 1, 42, 75
1, 37463, Note_on_c, 1, 42, 0
1, 37464, Note_on_c, 1, 46, 75
1, 37479, Note_on_c, 0, 79, 0
1, 37479, Note_on_c, 0, 76, 0
1, 37487, Note_on_c, 1, 46, 0
1, 37488, Note_on_c, 1, 49, 75
1, 37511, Note_on_c, 1, 49, 0
1, 37512, Note_on_c, 1, 52, 75
1, 37535, Note_on_c, 1, 52, 0
1, 37536, Note_on_c, 0, 79, 96
1, 37536, Note_on_c, 0, 76, 96
1, 37536, Note_on_c, 1, 42, 75
1, 37559, Note_on_c, 1, 42, 0
1, 37560, Note_on_c, 1, 46, 75
1, 37583, Note_on_c, 1, 46, 0
1, 37584, Note_on_c, 1, 49, 75
1, 37607, Note_on_c, 1, 49, 0
1, 37608, Note_on_c, 1, 52, 75
1, 37631, Note_on_c, 1, 52, 0
1, 37632, Note_on_c, 1, 42, 75
1, 37655, Note_on_c, 1, 42, 0
1, 37656, Note_on_c, 1, 46, 75
1, 37679, Note_on_c, 1, 46, 0
1, 37680, Note_on_c, 1, 49, 75
1, 37703, Note_on_c, 1, 49, 0
1, 37704, Note_on_c, 1, 52, 75
1, 37727, Note_on_c, 1, 52, 0
1, 37728, Note_on_c, 0, 79, 0
1, 37728, Note_on_c, 0, 76, 0
1, 37728, Note_on_c, 0, 78, 80
1, 37728, Note_on_c, 0, 74, 80
1, 37728, Note_on_c, 1, 42, 75
1, 37751, Note_on_c, 1, 42, 0
1, 37752, Note_on_c, 1, 46, 75
1, 37775, Note_on_c, 1, 46, 0
1, 37776, Note_on_c, 0, 78, 0
1, 37776, Note_on_c, 0, 74, 0
1, 37776, Note_on_c, 0, 76, 80
1, 37776, Note_on_c, 0, 73, 80
1, 37776, Note_on_c, 1, 49, 75
1, 37799, Note_on_c, 1, 49, 0
1, 37800, Note_on_c, 1, 52, 75
1, 37821, Note_on_c, 0, 76, 0
1, 37821, Note_on_c, 0, 73, 0
1, 37823, Note_on_c, 1, 52, 0
1, 37824, Note_on_c, 0, 76, 96
1, 37824, Note_on_c, 0, 73, 96
1, 37824, Note_on_c, 1, 42, 75
1, 37847, Note_on_c, 1, 42, 0
1, 37848, Note_on_c, 1, 47, 75
1, 37871, Note_on_c, 1, 47, 0
1, 37872, Note_on_c, 0, 76, 0
1, 37872, Note_on_c, 0, 73, 0
1, 37872, Note_on_c, 0, 74, 80
1, 37872, Note_on_c, 0, 71, 80
1, 37872, Note_on_c, 1, 50, 75
1, 37895, Note_on_c, 1, 50, 0
1, 37896, Note_on_c, 1, 54, 75
1, 37917, Note_on_c, 0, 74, 0
1, 37917, Note_on_c, 0, 71, 0
1, 37919, Note_on_c, 1, 54, 0
1, 37920, Note_on_c, 0, 74, 96
1, 37920, Note_on_c, 0, 71, 96
1, 37920, Note_on_c, 1, 42, 75
1, 37943, Note_on_c, 1, 42, 0
1, 37944, Note_on_c, 1, 47, 75
1, 37967, Note_on_c, 1, 47, 0
1, 37968, Note_on_c, 1, 50, 75
1, 37991, Note_on_c, 1, 50, 0
1, 37992, Note_on_c, 1, 54, 75
1, 38015, Note_on_c, 1, 54, 0
1, 38016, Note_on_c, 1, 42, 75
1, 38039, Note_on_c, 1, 42, 0
1, 38040, Note_on_c, 1, 47, 75
1, 38063, Note_on_c, 1, 47, 0
1, 38064, Note_on_c, 1, 50, 75
1, 38087, Note_on_c, 1, 50, 0
1, 38088, Note_on_c, 1, 54, 75
1, 38111, Note_on_c, 1, 54, 0
1, 38112, Note_on_c, 0, 74, 0
1, 38112, Note_on_c, 0, 71, 0
1, 38112, Note_on_c, 0, 74, 80
1, 38112, Note_on_c, 0, 71, 80
1, 38112, Note_on_c, 1, 42, 75
1, 38135, Note_on_c, 1, 42, 0
1, 38136, Note_on_c, 1, 47, 75
1, 38159, Note_on_c, 1, 47, 0
1, 38160, Note_on_c, 1, 50, 75
1, 38183, Note_on_c, 1, 50, 0
1, 38184, Note_on_c, 1, 54, 75
1, 38201, Note_on_c, 0, 74, 0
1, 38201, Note_on_c, 0, 71, 0
1, 38207, Note_on_c, 1, 54, 0
1, 38208, Note_on_c, 0, 72, 97
1, 38208, Note_on_c, 0, 67, 97
1, 38208, Note_on_c, 0, 64, 97
1, 38208, Note_on_c, 1, 40, 75
1, 38231, Note_on_c, 1, 40, 0
1, 38232, Note_on_c, 1, 43, 75
1, 38255, Note_on_c, 1, 43, 0
1, 38256, Note_on_c, 1, 48, 75
1, 38279, Note_on_c, 1, 48, 0
1, 38280, Note_on_c, 1, 52, 75
1, 38297, Note_on_c, 0, 72, 0
1, 38297, Note_on_c, 0, 67, 0
1, 38297, Note_on_c, 0, 64, 0
1, 38303, Note_on_c, 1, 52, 0
1, 38304, Note_on_c, 0, 79, 96
1, 38304, Note_on_c, 0, 76, 96
1, 38304, Note_on_c, 0, 72, 96
1, 38304, Note_on_c, 1, 40, 75
1, 38327, Note_on_c, 1, 40, 0
1, 38328, Note_on_c, 1, 43, 75
1, 38351, Note_on_c, 1, 43, 0
1, 38352, Note_on_c, 1, 48, 75
1, 38375, Note_on_c, 1, 48, 0
1, 38376, Note_on_c, 1, 52, 75
1, 38399, Note_on_c, 1, 52, 0
1, 38400, Note_on_c, 1, 40, 75
1, 38423, Note_on_c, 1, 40, 0
1, 38424, Note_on_c, 1, 43, 75
1, 38447, Note_on_c, 1, 43, 0
1, 38448, Note_on_c, 1, 48, 75
1, 38471, Note_on_c, 1, 48, 0
1, 38472, Note_on_c, 1, 52, 75
1, 38495, Note_on_c, 1, 52, 0
1, 38496, Note_on_c, 0, 79, 0
1, 38496, Note_on_c, 0, 76, 0
1, 38496, Note_on_c, 0, 72, 0
1, 38496, Note_on_c, 0, 70, 80
1, 38496, Note_on_c, 0, 61, 80
1, 38496, Note_on_c, 1, 40, 75
1, 38519, Note_on_c, 1, 40, 0
1, 38520, Note_on_c, 1, 46, 75
1, 38543, Note_on_c, 1, 46, 0
1, 38544, Note_on_c, 1, 49, 75
1, 38567, Note_on_c, 1, 49, 0
1, 38568, Note_on_c, 1, 52, 75
1, 38585, Note_on_c, 0, 70, 0
1, 38585, Note_on_c, 0, 61, 0
1, 38591, Note_on_c, 1, 52, 0
1, 38592, Note_on_c, 0, 70, 96
1, 38592, Note_on_c, 0, 61, 96
1, 38592, Note_on_c, 1, 47, 75
1, 38615, Note_on_c, 1, 47, 0
1, 38616, Note_on_c, 1, 50, 75
1, 38639, Note_on_c, 1, 50, 0
1, 38640, Note_on_c, 0, 70, 0
1, 38640, Note_on_c, 0, 61, 0
1, 38640, Note_on_c, 0, 71, 80
1, 38640, Note_on_c, 0, 62, 80
1, 38640, Note_on_c, 1, 54, 75
1, 38663, Note_on_c, 1, 54, 0
1, 38664, Note_on_c, 1, 59, 75
1, 38685, Note_on_c, 0, 71, 0
1, 38685, Note_on_c, 0, 62, 0
1, 38687, Note_on_c, 1, 59, 0
1, 38688, Note_on_c, 0, 71, 96
1, 38688, Note_on_c, 0, 62, 96
1, 38688, Note_on_c, 1, 47, 75
1, 38711, Note_on_c, 1, 47, 0
1, 38712, Note_on_c, 1, 50, 75
1, 38735, Note_on_c, 1, 50, 0
1, 38736, Note_on_c, 1, 54, 75
1, 38759, Note_on_c, 1, 54, 0
1, 38760, Note_on_c, 1, 59, 75
1, 38783, Note_on_c, 1, 59, 0
1, 38784, Note_on_c, 1, 47, 75
1, 38807, Note_on_c, 0, 71, 0
1, 38807, Note_on_c, 0, 62, 0
1, 38807, Note_on_c, 1, 47, 0
1, 38808, Note_on_c, 0, 66, 75
1, 38808, Note_on_c, 1, 50, 75
1, 38831, Note_on_c, 0, 66, 0
1, 38831, Note_on_c, 1, 50, 0
1, 38832, Note_on_c, 0, 68, 75
1, 38832, Note_on_c, 1, 54, 75
1, 38855, Note_on_c, 0, 68, 0
1, 38855, Note_on_c, 1, 54, 0
1, 38856, Note_on_c, 0, 70, 76
1, 38856, Note_on_c, 1, 59, 75
1, 38879, Note_on_c, 0, 70, 0
1, 38879, Note_on_c, 1, 59, 0
1, 38880, Note_on_c, 0, 71, 76
1, 38880, Note_on_c, 1, 47, 75
1, 38903, Note_on_c, 0, 71, 0
1, 38903, Note_on_c, 1, 47, 0
1, 38904, Note_on_c, 0, 73, 77
1, 38904, Note_on_c, 1, 50, 75
1, 38927, Note_on_c, 0, 73, 0
1, 38927, Note_on_c, 1, 50, 0
1, 38928, Note_on_c, 0, 74, 78
1, 38928, Note_on_c, 1, 54, 75
1, 38951, Note_on_c, 0, 74, 0
1, 38951, Note_on_c, 1, 54, 0
1, 38952, Note_on_c, 0, 76, 78
1, 38952, Note_on_c, 1, 59, 75
1, 38975, Note_on_c, 0, 76, 0
1, 38975, Note_on_c, 1, 59, 0
1, 38976, Note_on_c, 0, 78, 95
1, 38976, Note_on_c, 1, 47, 75
1, 38999, Note_on_c, 1, 47, 0
1, 39000, Note_on_c, 0, 78, 0
1, 39000, Note_on_c, 0, 66, 75
1, 39000, Note_on_c, 1, 50, 75
1, 39023, Note_on_c, 0, 66, 0
1, 39023, Note_on_c, 1, 50, 0
1, 39024, Note_on_c, 0, 68, 75
1, 39024, Note_on_c, 1, 54, 75
1, 39047, Note_on_c, 0, 68, 0
1, 39047, Note_on_c, 1, 54, 0
1, 39048, Note_on_c, 0, 70, 76
1, 39048, Note_on_c, 1, 59, 75
1, 39071, Note_on_c, 0, 70, 0
1, 39071, Note_on_c, 1, 59, 0
1, 39072, Note_on_c, 0, 71, 76
1, 39072, Note_on_c, 1, 47, 75
1, 39095, Note_on_c, 0, 71, 0
1, 39095, Note_on_c, 1, 47, 0
1, 39096, Note_on_c, 0, 73, 77
1, 39096, Note_on_c, 1, 50, 75
1, 39119, Note_on_c, 0, 73, 0
1, 39119, Note_on_c, 1, 50, 0
1, 39120, Note_on_c, 0, 74, 78
1, 39120, Note_on_c, 1, 54, 75
1, 39143, Note_on_c, 0, 74, 0
1, 39143, Note_on_c, 1, 54, 0
1, 39144, Note_on_c, 0, 76, 78
1, 39144, Note_on_c, 1, 59, 75
1, 39167, Note_on_c, 0, 76, 0
1, 39167, Note_on_c, 1, 59, 0
1, 39168, Note_on_c, 0, 78, 95
1, 39168, Note_on_c, 1, 59, 75
1, 39168, Note_on_c, 1, 54, 75
1, 39168, Note_on_c, 1, 50, 75
1, 39168, Note_on_c, 1, 47, 75
1, 39192, Note_on_c, 0, 78, 0
1, 39192, Note_on_c, 0, 66, 75
1, 39215, Note_on_c, 0, 66, 0
1, 39216, Note_on_c, 0, 68, 75
1, 39239, Note_on_c, 0, 68, 0
1, 39240, Note_on_c, 0, 70, 76
1, 39257, Note_on_c, 1, 59, 0
1, 39257, Note_on_c, 1, 54, 0
1, 39257, Note_on_c, 1, 50, 0
1, 39257, Note_on_c, 1, 47, 0
1, 39263, Note_on_c, 0, 70, 0
1, 39264, Note_on_c, 0, 71, 77
1, 39283, Note_on_c, 0, 71, 0
1, 39284, Note_on_c, 0, 73, 77
1, 39302, Note_on_c, 0, 73, 0
1, 39303, Note_on_c, 0, 74, 78
1, 39321, Note_on_c, 0, 74, 0
1, 39322, Note_on_c, 0, 76, 78
1, 39340, Note_on_c, 0, 76, 0
1, 39341, Note_on_c, 0, 78, 79
1, 39359, Note_on_c, 0, 78, 0
1, 39360, Note_on_c, 0, 79, 96
1, 39384, Note_on_c, 0, 79, 0
1, 39384, Note_on_c, 0, 67, 75
1, 39407, Note_on_c, 0, 67, 0
1, 39408, Note_on_c, 0, 69, 75
1, 39431, Note_on_c, 0, 69, 0
1, 39432, Note_on_c, 0, 71, 76
1, 39455, Note_on_c, 0, 71, 0
1, 39456, Note_on_c, 0, 72, 76
1, 39479, Note_on_c, 0, 72, 0
1, 39480, Note_on_c, 0, 74, 77
1, 39503, Note_on_c, 0, 74, 0
1, 39504, Note_on_c, 0, 76, 77
1, 39527, Note_on_c, 0, 76, 0
1, 39528, Note_on_c, 0, 78, 78
1, 39551, Note_on_c, 0, 78, 0
1, 39552, Note_on_c, 0, 79, 94
1, 39552, Note_on_c, 1, 59, 64
1, 39575, Note_on_c, 1, 59, 0
1, 39576, Note_on_c, 1, 67, 64
1, 39599, Note_on_c, 1, 67, 0
1, 39600, Note_on_c, 0, 79, 0
1, 39600, Note_on_c, 0, 74, 75
1, 39600, Note_on_c, 1, 62, 64
1, 39623, Note_on_c, 1, 62, 0
1, 39624, Note_on_c, 1, 67, 64
1, 39647, Note_on_c, 1, 67, 0
1, 39648, Note_on_c, 0, 74, 75
1, 39648, Note_on_c, 1, 59, 64
1, 39660, Note_on_c, 0, 74, 0
1, 39660, Note_on_c, 0, 76, 75
1, 39671, Note_on_c, 1, 59, 0
1, 39672, Note_on_c, 0, 76, 0
1, 39672, Note_on_c, 0, 74, 75
1, 39672, Note_on_c, 1, 67, 64
1, 39695, Note_on_c, 1, 67, 0
1, 39696, Note_on_c, 1, 62, 64
1, 39719, Note_on_c, 1, 62, 0
1, 39720, Note_on_c, 1, 67, 64
1, 39737, Note_on_c, 0, 74, 0
1, 39743, Note_on_c, 1, 67, 0
1, 39744, Note_on_c, 0, 79, 75
1, 39744, Note_on_c, 1, 60, 64
1, 39767, Note_on_c, 1, 60, 0
1, 39768, Note_on_c, 1, 67, 64
1, 39789, Note_on_c, 0, 79, 0
1, 39791, Note_on_c, 1, 67, 0
1, 39792, Note_on_c, 0, 76, 75
1, 39792, Note_on_c, 1, 64, 64
1, 39815, Note_on_c, 1, 64, 0
1, 39816, Note_on_c, 1, 67, 64
1, 39839, Note_on_c, 1, 67, 0
1, 39840, Note_on_c, 0, 76, 75
1, 39840, Note_on_c, 1, 60, 64
1, 39852, Note_on_c, 0, 76, 0
1, 39852, Note_on_c, 0, 78, 75
1, 39863, Note_on_c, 1, 60, 0
1, 39864, Note_on_c, 0, 78, 0
1, 39864, Note_on_c, 0, 76, 75
1, 39864, Note_on_c, 1, 67, 64
1, 39887, Note_on_c, 1, 67, 0
1, 39888, Note_on_c, 1, 64, 64
1, 39911, Note_on_c, 1, 64, 0
1, 39912, Note_on_c, 1, 67, 64
1, 39929, Note_on_c, 0, 76, 0
1, 39935, Note_on_c, 1, 67, 0
1, 39936, Note_on_c, 0, 81, 75
1, 39936, Note_on_c, 1, 54, 64
1, 39959, Note_on_c, 1, 54, 0
1, 39960, Note_on_c, 1, 62, 64
1, 39981, Note_on_c, 0, 81, 0
1, 39983, Note_on_c, 1, 62, 0
1, 39984, Note_on_c, 0, 72, 75
1, 39984, Note_on_c, 1, 57, 64
1, 40007, Note_on_c, 1, 57, 0
1, 40008, Note_on_c, 1, 62, 64
1, 40031, Note_on_c, 1, 62, 0
1, 40032, Note_on_c, 0, 72, 75
1, 40032, Note_on_c, 1, 54, 64
1, 40044, Note_on_c, 0, 72, 0
1, 40044, Note_on_c, 0, 74, 75
1, 40055, Note_on_c, 1, 54, 0
1, 40056, Note_on_c, 0, 74, 0
1, 40056, Note_on_c, 0, 72, 75
1, 40056, Note_on_c, 1, 62, 64
1, 40079, Note_on_c, 1, 62, 0
1, 40080, Note_on_c, 1, 57, 64
1, 40103, Note_on_c, 1, 57, 0
1, 40104, Note_on_c, 1, 62, 64
1, 40121, Note_on_c, 0, 72, 0
1, 40127, Note_on_c, 1, 62, 0
1, 40128, Note_on_c, 1, 55, 64
1, 40151, Note_on_c, 1, 55, 0
1, 40152, Note_on_c, 1, 62, 64
1, 40175, Note_on_c, 1, 62, 0
1, 40176, Note_on_c, 0, 71, 75
1, 40176, Note_on_c, 1, 59, 64
1, 40199, Note_on_c, 1, 59, 0
1, 40200, Note_on_c, 1, 62, 64
1, 40221, Note_on_c, 0, 71, 0
1, 40223, Note_on_c, 1, 62, 0
1, 40224, Note_on_c, 1, 55, 64
1, 40247, Note_on_c, 1, 55, 0
1, 40248, Note_on_c, 1, 62, 64
1, 40271, Note_on_c, 1, 62, 0
1, 40272, Note_on_c, 0, 83, 91
1, 40272, Note_on_c, 1, 59, 64
1, 40295, Note_on_c, 1, 59, 0
1, 40296, Note_on_c, 1, 62, 64
1, 40319, Note_on_c, 1, 62, 0
1, 40320, Note_on_c, 1, 48, 64
1, 40320, Note_on_c, 1, 48, 64
1, 40343, Note_on_c, 1, 48, 0
1, 40344, Note_on_c, 1, 57, 64
1, 40365, Note_on_c, 0, 83, 0
1, 40367, Note_on_c, 1, 57, 0
1, 40368, Note_on_c, 0, 81, 77
1, 40368, Note_on_c, 1, 52, 65
1, 40391, Note_on_c, 1, 52, 0
1, 40392, Note_on_c, 1, 57, 66
1, 40409, Note_on_c, 1, 48, 0
1, 40415, Note_on_c, 1, 57, 0
1, 40416, Note_on_c, 1, 49, 66
1, 40416, Note_on_c, 1, 49, 64
1, 40439, Note_on_c, 1, 49, 0
1, 40440, Note_on_c, 1, 57, 67
1, 40457, Note_on_c, 0, 81, 0
1, 40463, Note_on_c, 1, 57, 0
1, 40464, Note_on_c, 0, 79, 81
1, 40464, Note_on_c, 1, 52, 68
1, 40487, Note_on_c, 1, 52, 0
1, 40488, Note_on_c, 1, 57, 68
1, 40505, Note_on_c, 1, 49, 0
1, 40509, Note_on_c, 0, 79, 0
1, 40511, Note_on_c, 1, 57, 0
1, 40512, Note_on_c, 0, 78, 83
1, 40512, Note_on_c, 1, 50, 69
1, 40512, Note_on_c, 1, 50, 64
1, 40535, Note_on_c, 1, 50, 0
1, 40536, Note_on_c, 1, 57, 70
1, 40557, Note_on_c, 0, 78, 0
1, 40559, Note_on_c, 1, 57, 0
1, 40560, Note_on_c, 0, 86, 102
1, 40560, Note_on_c, 1, 54, 70
1, 40583, Note_on_c, 1, 54, 0
1, 40584, Note_on_c, 1, 57, 70
1, 40601, Note_on_c, 1, 50, 0
1, 40607, Note_on_c, 1, 57, 0
1, 40608, Note_on_c, 1, 51, 86
1, 40632, Note_on_c, 1, 51, 0
1, 40632, Note_on_c, 1, 57, 70
1, 40655, Note_on_c, 1, 57, 0
1, 40656, Note_on_c, 0, 86, 0
1, 40656, Note_on_c, 0, 84, 86
1, 40656, Note_on_c, 1, 54, 70
1, 40679, Note_on_c, 1, 54, 0
1, 40680, Note_on_c, 1, 57, 70
1, 40703, Note_on_c, 1, 57, 0
1, 40704, Note_on_c, 1, 51, 70
1, 40727, Note_on_c, 1, 51, 0
1, 40728, Note_on_c, 1, 57, 70
1, 40749, Note_on_c, 0, 84, 0
1, 40751, Note_on_c, 1, 57, 0
1, 40752, Note_on_c, 0, 83, 86
1, 40752, Note_on_c, 1, 54, 70
1, 40775, Note_on_c, 1, 54, 0
1, 40776, Note_on_c, 1, 57, 70
1, 40799, Note_on_c, 1, 57, 0
1, 40800, Note_on_c, 1, 47, 70
1, 40823, Note_on_c, 1, 47, 0
1, 40824, Note_on_c, 1, 54, 70
1, 40841, Note_on_c, 0, 83, 0
1, 40847, Note_on_c, 1, 54, 0
1, 40848, Note_on_c, 0, 81, 86
1, 40848, Note_on_c, 1, 51, 70
1, 40871, Note_on_c, 1, 51, 0
1, 40872, Note_on_c, 1, 54, 70
1, 40895, Note_on_c, 1, 54, 0
1, 40896, Note_on_c, 1, 52, 70
1, 40919, Note_on_c, 1, 52, 0
1, 40920, Note_on_c, 1, 59, 70
1, 40937, Note_on_c, 0, 81, 0
1, 40943, Note_on_c, 1, 59, 0
1, 40944, Note_on_c, 0, 79, 86
1, 40944, Note_on_c, 1, 55, 70
1, 40967, Note_on_c, 1, 55, 0
1, 40968, Note_on_c, 1, 59, 70
1, 40991, Note_on_c, 1, 59, 0
1, 40992, Note_on_c, 1, 47, 70
1, 41015, Note_on_c, 1, 47, 0
1, 41016, Note_on_c, 1, 55, 70
1, 41033, Note_on_c, 0, 79, 0
1, 41039, Note_on_c, 1, 55, 0
1, 41040, Note_on_c, 0, 77, 86
1, 41040, Note_on_c, 1, 50, 70
1, 41063, Note_on_c, 1, 50, 0
1, 41064, Note_on_c, 1, 55, 70
1, 41087, Note_on_c, 1, 55, 0
1, 41088, Note_on_c, 1, 48, 70
1, 41111, Note_on_c, 1, 48, 0
1, 41112, Note_on_c, 1, 55, 70
1, 41133, Note_on_c, 0, 77, 0
1, 41135, Note_on_c, 1, 55, 0
1, 41136, Note_on_c, 0, 76, 86
1, 41136, Note_on_c, 1, 52, 70
1, 41159, Note_on_c, 1, 52, 0
1, 41160, Note_on_c, 1, 55, 70
1, 41183, Note_on_c, 1, 55, 0
1, 41184, Note_on_c, 1, 44, 70
1, 41207, Note_on_c, 1, 44, 0
1, 41208, Note_on_c, 1, 52, 70
1, 41225, Note_on_c, 0, 76, 0
1, 41231, Note_on_c, 1, 52, 0
1, 41232, Note_on_c, 0, 74, 86
1, 41232, Note_on_c, 1, 47, 70
1, 41255, Note_on_c, 1, 47, 0
1, 41256, Note_on_c, 1, 52, 70
1, 41279, Note_on_c, 1, 52, 0
1, 41280, Note_on_c, 1, 45, 70
1, 41303, Note_on_c, 1, 45, 0
1, 41304, Note_on_c, 1, 52, 70
1, 41321, Note_on_c, 0, 74, 0
1, 41327, Note_on_c, 1, 52, 0
1, 41328, Note_on_c, 0, 72, 86
1, 41328, Note_on_c, 1, 48, 70
1, 41351, Note_on_c, 1, 48, 0
1, 41352, Note_on_c, 1, 52, 70
1, 41375, Note_on_c, 1, 52, 0
1, 41376, Note_on_c, 1, 38, 70
1, 41399, Note_on_c, 1, 38, 0
1, 41400, Note_on_c, 1, 46, 70
1, 41417, Note_on_c, 0, 72, 0
1, 41423, Note_on_c, 1, 46, 0
1, 41424, Note_on_c, 0, 70, 86
1, 41424, Note_on_c, 1, 41, 70
1, 41447, Note_on_c, 1, 41, 0
1, 41448, Note_on_c, 1, 46, 70
1, 41471, Note_on_c, 1, 46, 0
1, 41472, Note_on_c, 1, 36, 70
1, 41495, Note_on_c, 1, 36, 0
1, 41496, Note_on_c, 1, 45, 70
1, 41517, Note_on_c, 0, 70, 0
1, 41519, Note_on_c, 1, 45, 0
1, 41520, Note_on_c, 0, 69, 86
1, 41520, Note_on_c, 1, 40, 70
1, 41543, Note_on_c, 1, 40, 0
1, 41544, Note_on_c, 1, 45, 70
1, 41567, Note_on_c, 1, 45, 0
1, 41568, Note_on_c, 1, 35, 70
1, 41591, Note_on_c, 1, 35, 0
1, 41592, Note_on_c, 1, 44, 70
1, 41609, Note_on_c, 0, 69, 0
1, 41615, Note_on_c, 1, 44, 0
1, 41616, Note_on_c, 0, 68, 86
1, 41616, Note_on_c, 1, 40, 70
1, 41639, Note_on_c, 1, 40, 0
1, 41640, Note_on_c, 1, 44, 70
1, 41661, Note_on_c, 0, 68, 0
1, 41663, Note_on_c, 1, 44, 0
1, 41664, Note_on_c, 0, 69, 86
1, 41664, Note_on_c, 1, 45, 70
1, 41687, Note_on_c, 1, 45, 0
1, 41688, Note_on_c, 1, 48, 70
1, 41711, Note_on_c, 1, 48, 0
1, 41712, Note_on_c, 1, 52, 70
1, 41735, Note_on_c, 1, 52, 0
1, 41736, Note_on_c, 1, 48, 70
1, 41753, Note_on_c, 0, 69, 0
1, 41759, Note_on_c, 1, 48, 0
1, 41760, Note_on_c, 0, 72, 86
1, 41760, Note_on_c, 1, 45, 70
1, 41783, Note_on_c, 1, 45, 0
1, 41784, Note_on_c, 1, 51, 70
1, 41807, Note_on_c, 1, 51, 0
1, 41808, Note_on_c, 1, 54, 70
1, 41831, Note_on_c, 1, 54, 0
1, 41832, Note_on_c, 1, 51, 70
1, 41849, Note_on_c, 0, 72, 0
1, 41855, Note_on_c, 1, 51, 0
1, 41856, Note_on_c, 0, 71, 91
1, 41856, Note_on_c, 1, 52, 64
1, 41856, Note_on_c, 1, 47, 64
1, 41856, Note_on_c, 1, 43, 64
1, 41888, Note_on_c, 0, 71, 0
1, 41888, Note_on_c, 0, 67, 75
1, 41918, Note_on_c, 0, 67, 0
1, 41920, Note_on_c, 0, 64, 75
1, 41945, Note_on_c, 1, 52, 0
1, 41945, Note_on_c, 1, 47, 0
1, 41945, Note_on_c, 1, 43, 0
1, 41950, Note_on_c, 0, 64, 0
1, 41952, Note_on_c, 0, 63, 75
1, 41982, Note_on_c, 0, 63, 0
1, 41984, Note_on_c, 0, 66, 75
1, 42014, Note_on_c, 0, 66, 0
1, 42016, Note_on_c, 0, 69, 75
1, 42046, Note_on_c, 0, 69, 0
1, 42048, Note_on_c, 0, 67, 75
1, 42048, Note_on_c, 1, 59, 75
1, 42078, Note_on_c, 1, 59, 0
1, 42080, Note_on_c, 1, 55, 75
1, 42110, Note_on_c, 1, 55, 0
1, 42112, Note_on_c, 1, 52, 75
1, 42137, Note_on_c, 0, 67, 0
1, 42142, Note_on_c, 1, 52, 0
1, 42144, Note_on_c, 1, 51, 75
1, 42174, Note_on_c, 1, 51, 0
1, 42176, Note_on_c, 1, 54, 75
1, 42206, Note_on_c, 1, 54, 0
1, 42208, Note_on_c, 1, 57, 75
1, 42238, Note_on_c, 1, 57, 0
1, 42240, Note_on_c, 0, 67, 75
1, 42240, Note_on_c, 1, 59, 75
1, 42270, Note_on_c, 0, 67, 0
1, 42272, Note_on_c, 0, 64, 75
1, 42302, Note_on_c, 0, 64, 0
1, 42304, Note_on_c, 0, 59, 75
1, 42329, Note_on_c, 1, 59, 0
1, 42334, Note_on_c, 0, 59, 0
1, 42336, Note_on_c, 0, 55, 75
1, 42366, Note_on_c, 0, 55, 0
1, 42368, Note_on_c, 0, 59, 75
1, 42398, Note_on_c, 0, 59, 0
1, 42400, Note_on_c, 0, 64, 75
1, 42430, Note_on_c, 0, 64, 0
1, 42432, Note_on_c, 0, 66, 75
1, 42432, Note_on_c, 1, 54, 75
1, 42462, Note_on_c, 0, 66, 0
1, 42462, Note_on_c, 1, 54, 0
1, 42464, Note_on_c, 0, 62, 75
1, 42464, Note_on_c, 1, 50, 75
1, 42494, Note_on_c, 0, 62, 0
1, 42494, Note_on_c, 1, 50, 0
1, 42496, Note_on_c, 0, 59, 75
1, 42496, Note_on_c, 1, 47, 75
1, 42526, Note_on_c, 0, 59, 0
1, 42526, Note_on_c, 1, 47, 0
1, 42528, Note_on_c, 0, 54, 75
1, 42528, Note_on_c, 1, 42, 75
1, 42558, Note_on_c, 0, 54, 0
1, 42558, Note_on_c, 1, 42, 0
1, 42560, Note_on_c, 0, 59, 75
1, 42560, Note_on_c, 1, 47, 75
1, 42590, Note_on_c, 0, 59, 0
1, 42590, Note_on_c, 1, 47, 0
1, 42592, Note_on_c, 0, 62, 75
1, 42592, Note_on_c, 1, 50, 75
1, 42622, Note_on_c, 0, 62, 0
1, 42622, Note_on_c, 1, 50, 0
1, 42624, Note_on_c, 0, 66, 75
1, 42624, Note_on_c, 1, 54, 75
1, 42654, Note_on_c, 0, 66, 0
1, 42654, Note_on_c, 1, 54, 0
1, 42656, Note_on_c, 0, 62, 75
1, 42656, Note_on_c, 1, 50, 75
1, 42686, Note_on_c, 0, 62, 0
1, 42686, Note_on_c, 1, 50, 0
1, 42688, Note_on_c, 0, 59, 75
1, 42688, Note_on_c, 1, 47, 75
1, 42718, Note_on_c, 0, 59, 0
1, 42718, Note_on_c, 1, 47, 0
1, 42720, Note_on_c, 0, 54, 75
1, 42720, Note_on_c, 1, 42, 75
1, 42750, Note_on_c, 0, 54, 0
1, 42750, Note_on_c, 1, 42, 0
1, 42752, Note_on_c, 0, 59, 75
1, 42752, Note_on_c, 1, 47, 75
1, 42782, Note_on_c, 0, 59, 0
1, 42782, Note_on_c, 1, 47, 0
1, 42784, Note_on_c, 0, 62, 75
1, 42784, Note_on_c, 1, 50, 75
1, 42814, Note_on_c, 0, 62, 0
1, 42814, Note_on_c, 1, 50, 0
1, 42816, Note_on_c, 0, 67, 75
1, 42816, Note_on_c, 1, 55, 75
1, 42846, Note_on_c, 0, 67, 0
1, 42846, Note_on_c, 1, 55, 0
1, 42848, Note_on_c, 0, 62, 75
1, 42848, Note_on_c, 1, 50, 75
1, 42878, Note_on_c, 0, 62, 0
1, 42878, Note_on_c, 1, 50, 0
1, 42880, Note_on_c, 0, 59, 75
1, 42880, Note_on_c, 1, 47, 75
1, 42910, Note_on_c, 0, 59, 0
1, 42910, Note_on_c, 1, 47, 0
1, 42912, Note_on_c, 0, 55, 75
1, 42912, Note_on_c, 1, 43, 75
1, 42942, Note_on_c, 0, 55, 0
1, 42942, Note_on_c, 1, 43, 0
1, 42944, Note_on_c, 0, 59, 75
1, 42944, Note_on_c, 1, 47, 75
1, 42974, Note_on_c, 0, 59, 0
1, 42974, Note_on_c, 1, 47, 0
1, 42976, Note_on_c, 0, 62, 75
1, 42976, Note_on_c, 1, 50, 75
1, 43006, Note_on_c, 0, 62, 0
1, 43006, Note_on_c, 1, 50, 0
1, 43008, Note_on_c, 0, 67, 75
1, 43008, Note_on_c, 1, 55, 75
1, 43038, Note_on_c, 0, 67, 0
1, 43038, Note_on_c, 1, 55, 0
1, 43040, Note_on_c, 0, 62, 75
1, 43040, Note_on_c, 1, 50, 75
1, 43070, Note_on_c, 0, 62, 0
1, 43070, Note_on_c, 1, 50, 0
1, 43072, Note_on_c, 0, 59, 75
1, 43072, Note_on_c, 1, 47, 75
1, 43102, Note_on_c, 0, 59, 0
1, 43102, Note_on_c, 1, 47, 0
1, 43104, Note_on_c, 0, 55, 75
1, 43104, Note_on_c, 1, 43, 75
1, 43134, Note_on_c, 0, 55, 0
1, 43134, Note_on_c, 1, 43, 0
1, 43136, Note_on_c, 0, 59, 75
1, 43136, Note_on_c, 1, 47, 75
1, 43166, Note_on_c, 0, 59, 0
1, 43166, Note_on_c, 1, 47, 0
1, 43168, Note_on_c, 0, 62, 75
1, 43168, Note_on_c, 1, 50, 75
1, 43198, Note_on_c, 0, 62, 0
1, 43198, Note_on_c, 1, 50, 0
1, 43200, Note_on_c, 0, 67, 75
1, 43200, Note_on_c, 0, 64, 75
1, 43200, Note_on_c, 0, 61, 75
1, 43200, Note_on_c, 0, 58, 75
1, 43200, Note_on_c, 1, 52, 75
1, 43200, Note_on_c, 1, 49, 75
1, 43200, Note_on_c, 1, 46, 75
1, 43488, Note_on_c, 0, 67, 0
1, 43488, Note_on_c, 0, 66, 75
1, 43657, Note_on_c, 1, 52, 0
1, 43657, Note_on_c, 1, 49, 0
1, 43657, Note_on_c, 1, 46, 0
1, 43673, Note_on_c, 0, 66, 0
1, 43673, Note_on_c, 0, 64, 0
1, 43673, Note_on_c, 0, 61, 0
1, 43673, Note_on_c, 0, 58, 0
1, 43800, Note_on_c, 0, 66, 75
1, 43823, Note_on_c, 0, 66, 0
1, 43824, Note_on_c, 0, 68, 75
1, 43847, Note_on_c, 0, 68, 0
1, 43848, Note_on_c, 0, 70, 76
1, 43871, Note_on_c, 0, 70, 0
1, 43872, Note_on_c, 0, 71, 76
1, 43895, Note_on_c, 0, 71, 0
1, 43896, Note_on_c, 0, 73, 77
1, 43919, Note_on_c, 0, 73, 0
1, 43920, Note_on_c, 0, 75, 78
1, 43943, Note_on_c, 0, 75, 0
1, 43944, Note_on_c, 0, 76, 78
1, 43967, Note_on_c, 0, 76, 0
1, 43968, Note_on_c, 0, 78, 95
1, 43992, Note_on_c, 0, 78, 0
1, 43992, Note_on_c, 0, 71, 75
1, 44015, Note_on_c, 0, 71, 0
1, 44016, Note_on_c, 0, 73, 75
1, 44039, Note_on_c, 0, 73, 0
1, 44040, Note_on_c, 0, 75, 76
1, 44063, Note_on_c, 0, 75, 0
1, 44064, Note_on_c, 0, 76, 76
1, 44087, Note_on_c, 0, 76, 0
1, 44088, Note_on_c, 0, 78, 77
1, 44111, Note_on_c, 0, 78, 0
1, 44112, Note_on_c, 0, 80, 77
1, 44135, Note_on_c, 0, 80, 0
1, 44136, Note_on_c, 0, 82, 78
1, 44159, Note_on_c, 0, 82, 0
1, 44160, Note_on_c, 0, 83, 94
1, 44160, Note_on_c, 1, 47, 64
1, 44180, Note_on_c, 0, 83, 0
1, 44183, Note_on_c, 1, 47, 0
1, 44184, Note_on_c, 1, 54, 64
1, 44207, Note_on_c, 1, 54, 0
1, 44208, Note_on_c, 0, 78, 75
1, 44208, Note_on_c, 1, 51, 64
1, 44228, Note_on_c, 0, 78, 0
1, 44231, Note_on_c, 1, 51, 0
1, 44232, Note_on_c, 1, 54, 64
1, 44255, Note_on_c, 1, 54, 0
1, 44256, Note_on_c, 0, 80, 75
1, 44256, Note_on_c, 1, 47, 64
1, 44268, Note_on_c, 0, 80, 0
1, 44268, Note_on_c, 0, 78, 75
1, 44279, Note_on_c, 1, 47, 0
1, 44280, Note_on_c, 0, 78, 0
1, 44280, Note_on_c, 0, 80, 75
1, 44280, Note_on_c, 1, 54, 64
1, 44292, Note_on_c, 0, 80, 0
1, 44292, Note_on_c, 0, 78, 75
1, 44303, Note_on_c, 1, 54, 0
1, 44304, Note_on_c, 0, 78, 0
1, 44304, Note_on_c, 0, 80, 75
1, 44304, Note_on_c, 1, 51, 64
1, 44316, Note_on_c, 0, 80, 0
1, 44316, Note_on_c, 0, 78, 75
1, 44327, Note_on_c, 1, 51, 0
1, 44328, Note_on_c, 0, 78, 0
1, 44328, Note_on_c, 0, 76, 75
1, 44328, Note_on_c, 1, 54, 64
1, 44340, Note_on_c, 0, 76, 0
1, 44340, Note_on_c, 0, 78, 75
1, 44351, Note_on_c, 1, 54, 0
1, 44352, Note_on_c, 0, 78, 0
1, 44352, Note_on_c, 0, 83, 75
1, 44352, Note_on_c, 1, 47, 64
1, 44372, Note_on_c, 0, 83, 0
1, 44375, Note_on_c, 1, 47, 0
1, 44376, Note_on_c, 1, 56, 64
1, 44399, Note_on_c, 1, 56, 0
1, 44400, Note_on_c, 0, 80, 75
1, 44400, Note_on_c, 1, 52, 64
1, 44420, Note_on_c, 0, 80, 0
1, 44423, Note_on_c, 1, 52, 0
1, 44424, Note_on_c, 1, 56, 64
1, 44447, Note_on_c, 1, 56, 0
1, 44448, Note_on_c, 0, 82, 75
1, 44448, Note_on_c, 1, 47, 64
1, 44460, Note_on_c, 0, 82, 0
1, 44460, Note_on_c, 0, 80, 75
1, 44471, Note_on_c, 1, 47, 0
1, 44472, Note_on_c, 0, 80, 0
1, 44472, Note_on_c, 0, 82, 75
1, 44472, Note_on_c, 1, 56, 64
1, 44484, Note_on_c, 0, 82, 0
1, 44484, Note_on_c, 0, 80, 75
1, 44495, Note_on_c, 1, 56, 0
1, 44496, Note_on_c, 0, 80, 0
1, 44496, Note_on_c, 0, 82, 75
1, 44496, Note_on_c, 1, 52, 64
1, 44508, Note_on_c, 0, 82, 0
1, 44508, Note_on_c, 0, 80, 75
1, 44519, Note_on_c, 1, 52, 0
1, 44520, Note_on_c, 0, 80, 0
1, 44520, Note_on_c, 0, 78, 75
1, 44520, Note_on_c, 1, 56, 64
1, 44532, Note_on_c, 0, 78, 0
1, 44532, Note_on_c, 0, 80, 75
1, 44543, Note_on_c, 1, 56, 0
1, 44544, Note_on_c, 0, 80, 0
1, 44544, Note_on_c, 0, 78, 75
1, 44544, Note_on_c, 1, 51, 64
1, 44544, Note_on_c, 1, 47, 64
1, 44589, Note_on_c, 0, 78, 0
1, 44592, Note_on_c, 0, 83, 75
1, 44633, Note_on_c, 1, 51, 0
1, 44633, Note_on_c, 1, 47, 0
1, 44637, Note_on_c, 0, 83, 0
1, 44640, Note_on_c, 0, 76, 76
1, 44652, Note_on_c, 0, 76, 0
1, 44652, Note_on_c, 0, 78, 76
1, 44664, Note_on_c, 0, 78, 0
1, 44664, Note_on_c, 0, 76, 76
1, 44685, Note_on_c, 0, 76, 0
1, 44688, Note_on_c, 0, 83, 92
1, 44688, Note_on_c, 1, 49, 64
1, 44688, Note_on_c, 1, 47, 64
1, 44736, Note_on_c, 0, 83, 0
1, 44736, Note_on_c, 0, 75, 77
1, 44748, Note_on_c, 0, 75, 0
1, 44748, Note_on_c, 0, 76, 77
1, 44760, Note_on_c, 0, 76, 0
1, 44760, Note_on_c, 0, 75, 77
1, 44777, Note_on_c, 1, 49, 0
1, 44777, Note_on_c, 1, 47, 0
1, 44784, Note_on_c, 0, 75, 0
1, 44784, Note_on_c, 0, 83, 94
1, 44784, Note_on_c, 1, 47, 64
1, 44784, Note_on_c, 1, 44, 64
1, 44829, Note_on_c, 1, 47, 0
1, 44829, Note_on_c, 1, 44, 0
1, 44832, Note_on_c, 0, 83, 0
1, 44832, Note_on_c, 1, 41, 80
1, 44880, Note_on_c, 0, 75, 79
1, 44900, Note_on_c, 0, 75, 0
1, 44928, Tempo, 600000
1, 44928, Note_on_c, 0, 75, 96
1, 44928, Note_on_c, 0, 71, 96
1, 44928, Note_on_c, 1, 41, 0
1, 44928, Note_on_c, 1, 42, 64
1, 44951, Note_on_c, 1, 42, 0
1, 44952, Note_on_c, 1, 47, 64
1, 44975, Note_on_c, 1, 47, 0
1, 44976, Note_on_c, 1, 51, 64
1, 44999, Note_on_c, 1, 51, 0
1, 45000, Note_on_c, 1, 54, 64
1, 45023, Note_on_c, 1, 54, 0
1, 45024, Note_on_c, 0, 75, 0
1, 45024, Note_on_c, 0, 71, 0
1, 45024, Note_on_c, 0, 73, 77
1, 45024, Note_on_c, 0, 70, 77
1, 45024, Note_on_c, 1, 42, 64
1, 45113, Note_on_c, 0, 73, 0
1, 45113, Note_on_c, 0, 70, 0
1, 45113, Note_on_c, 1, 42, 0
1, 45264, Note_on_c, 0, 62, 75
1, 45264, Note_on_c, 0, 59, 75
1, 45284, Note_on_c, 0, 62, 0
1, 45284, Note_on_c, 0, 59, 0
1, 45312, Tempo, 705882
1, 45312, Note_on_c, 0, 62, 91
1, 45312, Note_on_c, 0, 59, 91
1, 45312, Note_on_c, 1, 30, 64
1, 45335, Note_on_c, 1, 30, 0
1, 45336, Note_on_c, 1, 35, 64
1, 45359, Note_on_c, 1, 35, 0
1, 45360, Note_on_c, 1, 39, 64
1, 45383, Note_on_c, 1, 39, 0
1, 45384, Note_on_c, 1, 42, 64
1, 45407, Note_on_c, 1, 42, 0
1, 45408, Note_on_c, 0, 62, 0
1, 45408, Note_on_c, 0, 59, 0
1, 45408, Note_on_c, 0, 61, 75
1, 45408, Note_on_c, 0, 58, 75
1, 45408, Note_on_c, 1, 30, 64
1, 45497, Note_on_c, 0, 61, 0
1, 45497, Note_on_c, 0, 58, 0
1, 45497, Note_on_c, 1, 30, 0
1, 45504, Tempo, 545454
1, 45696, Note_on_c, 0, 78, 75
1, 45696, Note_on_c, 1, 39, 64
1, 45719, Note_on_c, 0, 78, 0
1, 45720, Note_on_c, 0, 75, 75
1, 45741, Note_on_c, 1, 39, 0
1, 45743, Note_on_c, 0, 75, 0
1, 45744, Note_on_c, 0, 71, 75
1, 45744, Note_on_c, 1, 51, 64
1, 45767, Note_on_c, 0, 71, 0
1, 45768, Note_on_c, 0, 66, 75
1, 45789, Note_on_c, 1, 51, 0
1, 45791, Note_on_c, 0, 66, 0
1, 45792, Note_on_c, 0, 72, 75
1, 45792, Note_on_c, 1, 52, 64
1, 45815, Note_on_c, 1, 52, 0
1, 45816, Note_on_c, 0, 72, 0
1, 45816, Note_on_c, 0, 73, 75
1, 45816, Note_on_c, 1, 56, 64
1, 45839, Note_on_c, 0, 73, 0
1, 45839, Note_on_c, 1, 56, 0
1, 45840, Note_on_c, 0, 73, 91
1, 45840, Note_on_c, 1, 61, 64
1, 45863, Note_on_c, 1, 61, 0
1, 45864, Note_on_c, 1, 56, 64
1, 45887, Note_on_c, 1, 56, 0
1, 45888, Note_on_c, 1, 52, 64
1, 45911, Note_on_c, 0, 73, 0
1, 45911, Note_on_c, 1, 52, 0
1, 45912, Note_on_c, 0, 75, 75
1, 45912, Note_on_c, 1, 56, 64
1, 45935, Note_on_c, 0, 75, 0
1, 45935, Note_on_c, 1, 56, 0
1, 45936, Note_on_c, 0, 76, 75
1, 45936, Note_on_c, 1, 61, 64
1, 45959, Note_on_c, 0, 76, 0
1, 45959, Note_on_c, 1, 61, 0
1, 45960, Note_on_c, 0, 75, 75
1, 45960, Note_on_c, 1, 56, 64
1, 45983, Note_on_c, 0, 75, 0
1, 45983, Note_on_c, 1, 56, 0
1, 45984, Note_on_c, 0, 73, 75
1, 45984, Note_on_c, 1, 52, 64
1, 46007, Note_on_c, 0, 73, 0
1, 46007, Note_on_c, 1, 52, 0
1, 46008, Note_on_c, 0, 71, 75
1, 46008, Note_on_c, 1, 56, 64
1, 46031, Note_on_c, 0, 71, 0
1, 46031, Note_on_c, 1, 56, 0
1, 46032, Note_on_c, 0, 70, 75
1, 46032, Note_on_c, 1, 61, 64
1, 46055, Note_on_c, 0, 70, 0
1, 46055, Note_on_c, 1, 61, 0
1, 46056, Note_on_c, 0, 68, 75
1, 46056, Note_on_c, 1, 56, 64
1, 46079, Note_on_c, 0, 68, 0
1, 46079, Note_on_c, 1, 56, 0
1, 46080, Note_on_c, 0, 66, 75
1, 46080, Note_on_c, 1, 54, 64
1, 46103, Note_on_c, 1, 54, 0
1, 46104, Note_on_c, 1, 59, 64
1, 46125, Note_on_c, 0, 66, 0
1, 46127, Note_on_c, 1, 59, 0
1, 46128, Note_on_c, 0, 77, 75
1, 46128, Note_on_c, 1, 63, 64
1, 46151, Note_on_c, 1, 63, 0
1, 46152, Note_on_c, 0, 77, 0
1, 46152, Note_on_c, 0, 78, 75
1, 46152, Note_on_c, 1, 59, 64
1, 46175, Note_on_c, 0, 78, 0
1, 46175, Note_on_c, 1, 59, 0
1, 46176, Note_on_c, 0, 76, 75
1, 46176, Note_on_c, 1, 54, 64
1, 46199, Note_on_c, 0, 76, 0
1, 46199, Note_on_c, 1, 54, 0
1, 46200, Note_on_c, 0, 75, 75
1, 46200, Note_on_c, 1, 59, 64
1, 46223, Note_on_c, 0, 75, 0
1, 46223, Note_on_c, 1, 59, 0
1, 46224, Note_on_c, 0, 73, 75
1, 46224, Note_on_c, 1, 63, 64
1, 46247, Note_on_c, 0, 73, 0
1, 46247, Note_on_c, 1, 63, 0
1, 46248, Note_on_c, 0, 71, 75
1, 46248, Note_on_c, 1, 59, 64
1, 46271, Note_on_c, 0, 71, 0
1, 46271, Note_on_c, 1, 59, 0
1, 46272, Note_on_c, 0, 73, 75
1, 46272, Note_on_c, 1, 54, 64
1, 46284, Note_on_c, 0, 73, 0
1, 46284, Note_on_c, 0, 75, 75
1, 46295, Note_on_c, 1, 54, 0
1, 46296, Note_on_c, 0, 75, 0
1, 46296, Note_on_c, 0, 73, 75
1, 46296, Note_on_c, 1, 58, 64
1, 46308, Note_on_c, 0, 73, 0
1, 46308, Note_on_c, 0, 75, 75
1, 46319, Note_on_c, 1, 58, 0
1, 46320, Note_on_c, 0, 75, 0
1, 46320, Note_on_c, 0, 73, 75
1, 46320, Note_on_c, 1, 64, 64
1, 46332, Note_on_c, 0, 73, 0
1, 46332, Note_on_c, 0, 75, 75
1, 46343, Note_on_c, 0, 75, 0
1, 46343, Note_on_c, 0, 73, 75
1, 46343, Note_on_c, 1, 64, 0
1, 46344, Note_on_c, 1, 58, 64
1, 46354, Note_on_c, 0, 73, 0
1, 46354, Note_on_c, 0, 75, 75
1, 46365, Note_on_c, 0, 75, 0
1, 46365, Note_on_c, 0, 73, 75
1, 46367, Note_on_c, 1, 58, 0
1, 46368, Note_on_c, 1, 54, 64
1, 46376, Note_on_c, 0, 73, 0
1, 46376, Note_on_c, 0, 75, 75
1, 46387, Note_on_c, 0, 75, 0
1, 46387, Note_on_c, 0, 73, 75
1, 46391, Note_on_c, 1, 54, 0
1, 46392, Note_on_c, 1, 58, 64
1, 46398, Note_on_c, 0, 73, 0
1, 46398, Note_on_c, 0, 75, 75
1, 46409, Note_on_c, 0, 75, 0
1, 46409, Note_on_c, 0, 73, 75
1, 46415, Note_on_c, 1, 58, 0
1, 46416, Note_on_c, 1, 64, 64
1, 46420, Note_on_c, 0, 73, 0
1, 46420, Note_on_c, 0, 71, 75
1, 46439, Note_on_c, 1, 64, 0
1, 46440, Note_on_c, 1, 58, 64
1, 46442, Note_on_c, 0, 71, 0
1, 46442, Note_on_c, 0, 73, 75
1, 46463, Note_on_c, 1, 58, 0
1, 46464, Note_on_c, 0, 73, 0
1, 46464, Note_on_c, 0, 71, 75
1, 46464, Note_on_c, 1, 59, 64
1, 46487, Note_on_c, 0, 71, 0
1, 46487, Note_on_c, 1, 59, 0
1, 46488, Note_on_c, 0, 54, 75
1, 46488, Note_on_c, 1, 42, 80
1, 46511, Note_on_c, 0, 54, 0
1, 46511, Note_on_c, 1, 42, 0
1, 46512, Note_on_c, 0, 56, 75
1, 46512, Note_on_c, 1, 44, 80
1, 46535, Note_on_c, 0, 56, 0
1, 46535, Note_on_c, 1, 44, 0
1, 46536, Note_on_c, 0, 58, 75
1, 46536, Note_on_c, 1, 46, 80
1, 46559, Note_on_c, 0, 58, 0
1, 46559, Note_on_c, 1, 46, 0
1, 46560, Note_on_c, 0, 59, 75
1, 46560, Note_on_c, 1, 47, 80
1, 46583, Note_on_c, 0, 59, 0
1, 46583, Note_on_c, 1, 47, 0
1, 46584, Note_on_c, 0, 61, 75
1, 46584, Note_on_c, 1, 49, 80
1, 46607, Note_on_c, 0, 61, 0
1, 46607, Note_on_c, 1, 49, 0
1, 46608, Note_on_c, 0, 63, 75
1, 46608, Note_on_c, 1, 51, 80
1, 46631, Note_on_c, 0, 63, 0
1, 46631, Note_on_c, 1, 51, 0
1, 46632, Note_on_c, 0, 64, 75
1, 46632, Note_on_c, 1, 52, 80
1, 46655, Note_on_c, 0, 64, 0
1, 46655, Note_on_c, 1, 52, 0
1, 46656, Note_on_c, 0, 66, 75
1, 46656, Note_on_c, 1, 54, 80
1, 46666, Note_on_c, 0, 66, 0
1, 46666, Note_on_c, 1, 54, 0
1, 46680, Note_on_c, 0, 66, 75
1, 46680, Note_on_c, 1, 54, 80
1, 46703, Note_on_c, 0, 66, 0
1, 46703, Note_on_c, 1, 54, 0
1, 46704, Note_on_c, 0, 68, 75
1, 46704, Note_on_c, 1, 56, 80
1, 46727, Note_on_c, 0, 68, 0
1, 46727, Note_on_c, 1, 56, 0
1, 46728, Note_on_c, 0, 70, 75
1, 46728, Note_on_c, 1, 58, 80
1, 46751, Note_on_c, 0, 70, 0
1, 46751, Note_on_c, 1, 58, 0
1, 46752, Note_on_c, 0, 71, 75
1, 46752, Note_on_c, 1, 59, 80
1, 46775, Note_on_c, 0, 71, 0
1, 46775, Note_on_c, 1, 59, 0
1, 46776, Note_on_c, 0, 73, 75
1, 46776, Note_on_c, 1, 61, 80
1, 46799, Note_on_c, 0, 73, 0
1, 46799, Note_on_c, 1, 61, 0
1, 46800, Note_on_c, 0, 75, 75
1, 46800, Note_on_c, 1, 63, 80
1, 46823, Note_on_c, 0, 75, 0
1, 46823, Note_on_c, 1, 63, 0
1, 46824, Note_on_c, 0, 76, 75
1, 46824, Note_on_c, 1, 64, 80
1, 46847, Note_on_c, 0, 76, 0
1, 46847, Note_on_c, 1, 64, 0
1, 46848, Note_on_c, 0, 78, 91
1, 46848, Note_on_c, 1, 66, 96
1, 46896, Note_on_c, 0, 78, 0
1, 46896, Note_on_c, 1, 66, 0
1, 46920, Note_on_c, 0, 77, 75
1, 46920, Note_on_c, 1, 65, 80
1, 46944, Note_on_c, 0, 77, 0
1, 46944, Note_on_c, 0, 78, 75
1, 46944, Note_on_c, 1, 65, 0
1, 46944, Note_on_c, 1, 66, 80
1, 46989, Note_on_c, 0, 78, 0
1, 46989, Note_on_c, 1, 66, 0
1, 47016, Note_on_c, 0, 77, 75
1, 47016, Note_on_c, 1, 65, 80
1, 47040, Note_on_c, 0, 77, 0
1, 47040, Note_on_c, 0, 78, 75
1, 47040, Note_on_c, 1, 65, 0
1, 47040, Note_on_c, 1, 66, 80
1, 47129, Note_on_c, 0, 78, 0
1, 47129, Note_on_c, 1, 66, 0
1, 47232, Note_on_c, 0, 80, 96
1, 47232, Note_on_c, 0, 76, 96
1, 47280, Note_on_c, 0, 80, 0
1, 47280, Note_on_c, 0, 76, 0
1, 47280, Note_on_c, 0, 78, 79
1, 47280, Note_on_c, 0, 75, 79
1, 47325, Note_on_c, 0, 78, 0
1, 47325, Note_on_c, 0, 75, 0
1, 47328, Note_on_c, 0, 76, 78
1, 47328, Note_on_c, 0, 73, 78
1, 47376, Note_on_c, 0, 76, 0
1, 47376, Note_on_c, 0, 73, 0
1, 47376, Note_on_c, 0, 75, 78
1, 47376, Note_on_c, 0, 71, 78
1, 47421, Note_on_c, 0, 75, 0
1, 47421, Note_on_c, 0, 71, 0
1, 47424, Note_on_c, 0, 78, 93
1, 47424, Note_on_c, 0, 75, 93
1, 47472, Note_on_c, 0, 78, 0
1, 47472, Note_on_c, 0, 75, 0
1, 47472, Note_on_c, 0, 76, 76
1, 47472, Note_on_c, 0, 73, 76
1, 47517, Note_on_c, 0, 76, 0
1, 47517, Note_on_c, 0, 73, 0
1, 47520, Note_on_c, 0, 75, 76
1, 47520, Note_on_c, 0, 71, 76
1, 47568, Note_on_c, 0, 75, 0
1, 47568, Note_on_c, 0, 71, 0
1, 47568, Note_on_c, 0, 73, 75
1, 47568, Note_on_c, 0, 70, 75
1, 47613, Note_on_c, 0, 73, 0
1, 47613, Note_on_c, 0, 70, 0
1, 47616, Note_on_c, 0, 71, 75
1, 47616, Note_on_c, 1, 54, 64
1, 47639, Note_on_c, 1, 54, 0
1, 47640, Note_on_c, 0, 71, 0
1, 47640, Note_on_c, 0, 66, 75
1, 47640, Note_on_c, 1, 63, 64
1, 47663, Note_on_c, 0, 66, 0
1, 47663, Note_on_c, 1, 63, 0
1, 47664, Note_on_c, 0, 66, 96
1, 47664, Note_on_c, 1, 59, 64
1, 47687, Note_on_c, 1, 59, 0
1, 47688, Note_on_c, 1, 63, 64
1, 47711, Note_on_c, 1, 63, 0
1, 47712, Note_on_c, 1, 54, 64
1, 47735, Note_on_c, 1, 54, 0
1, 47736, Note_on_c, 1, 63, 64
1, 47759, Note_on_c, 1, 63, 0
1, 47760, Note_on_c, 0, 66, 0
1, 47760, Note_on_c, 0, 71, 80
1, 47760, Note_on_c, 1, 59, 64
1, 47783, Note_on_c, 1, 59, 0
1, 47784, Note_on_c, 1, 63, 64
1, 47807, Note_on_c, 1, 63, 0
1, 47808, Note_on_c, 1, 54, 64
1, 47831, Note_on_c, 1, 54, 0
1, 47832, Note_on_c, 1, 63, 64
1, 47849, Note_on_c, 0, 71, 0
1, 47855, Note_on_c, 1, 63, 0
1, 47856, Note_on_c, 0, 75, 80
1, 47856, Note_on_c, 1, 59, 64
1, 47879, Note_on_c, 1, 59, 0
1, 47880, Note_on_c, 1, 63, 64
1, 47903, Note_on_c, 1, 63, 0
1, 47904, Note_on_c, 1, 54, 64
1, 47927, Note_on_c, 0, 75, 0
1, 47927, Note_on_c, 1, 54, 0
1, 47928, Note_on_c, 1, 63, 64
1, 47934, Note_on_c, 0, 73, 80
1, 47940, Note_on_c, 0, 73, 0
1, 47940, Note_on_c, 0, 71, 80
1, 47946, Note_on_c, 0, 71, 0
1, 47946, Note_on_c, 0, 70, 80
1, 47951, Note_on_c, 1, 63, 0
1, 47952, Note_on_c, 0, 70, 0
1, 47952, Note_on_c, 0, 71, 80
1, 47952, Note_on_c, 1, 59, 64
1, 47975, Note_on_c, 1, 59, 0
1, 47976, Note_on_c, 1, 63, 64
1, 47997, Note_on_c, 0, 71, 0
1, 47999, Note_on_c, 1, 63, 0
1, 48000, Note_on_c, 0, 70, 80
1, 48000, Note_on_c, 1, 54, 64
1, 48020, Note_on_c, 0, 70, 0
1, 48023, Note_on_c, 1, 54, 0
1, 48024, Note_on_c, 1, 64, 64
1, 48047, Note_on_c, 1, 64, 0
1, 48048, Note_on_c, 0, 73, 97
1, 48048, Note_on_c, 1, 58, 64
1, 48071, Note_on_c, 1, 58, 0
1, 48072, Note_on_c, 1, 64, 64
1, 48095, Note_on_c, 1, 64, 0
1, 48096, Note_on_c, 1, 54, 64
1, 48119, Note_on_c, 1, 54, 0
1, 48120, Note_on_c, 1, 64, 64
1, 48143, Note_on_c, 1, 64, 0
1, 48144, Note_on_c, 0, 73, 0
1, 48144, Note_on_c, 0, 76, 83
1, 48144, Note_on_c, 1, 58, 64
1, 48167, Note_on_c, 1, 58, 0
1, 48168, Note_on_c, 1, 64, 64
1, 48191, Note_on_c, 1, 64, 0
1, 48192, Note_on_c, 1, 54, 64
1, 48215, Note_on_c, 1, 54, 0
1, 48216, Note_on_c, 1, 64, 64
1, 48233, Note_on_c, 0, 76, 0
1, 48239, Note_on_c, 1, 64, 0
1, 48240, Note_on_c, 0, 79, 86
1, 48240, Note_on_c, 1, 58, 64
1, 48263, Note_on_c, 1, 58, 0
1, 48264, Note_on_c, 1, 64, 64
1, 48287, Note_on_c, 1, 64, 0
1, 48288, Note_on_c, 1, 54, 64
1, 48311, Note_on_c, 1, 54, 0
1, 48312, Note_on_c, 1, 64, 64
1, 48329, Note_on_c, 0, 79, 0
1, 48335, Note_on_c, 1, 64, 0
1, 48336, Note_on_c, 0, 70, 84
1, 48336, Note_on_c, 1, 58, 64
1, 48359, Note_on_c, 1, 58, 0
1, 48360, Note_on_c, 1, 64, 64
1, 48381, Note_on_c, 0, 70, 0
1, 48383, Note_on_c, 1, 64, 0
1, 48384, Note_on_c, 0, 71, 83
1, 48384, Note_on_c, 1, 54, 64
1, 48404, Note_on_c, 0, 71, 0
1, 48407, Note_on_c, 1, 54, 0
1, 48408, Note_on_c, 1, 62, 64
1, 48431, Note_on_c, 1, 62, 0
1, 48432, Note_on_c, 0, 71, 98
1, 48432, Note_on_c, 1, 59, 64
1, 48455, Note_on_c, 1, 59, 0
1, 48456, Note_on_c, 1, 62, 64
1, 48479, Note_on_c, 1, 62, 0
1, 48480, Note_on_c, 1, 54, 64
1, 48503, Note_on_c, 1, 54, 0
1, 48504, Note_on_c, 1, 62, 64
1, 48527, Note_on_c, 1, 62, 0
1, 48528, Note_on_c, 0, 71, 0
1, 48528, Note_on_c, 0, 71, 80
1, 48528, Note_on_c, 1, 59, 64
1, 48551, Note_on_c, 1, 59, 0
1, 48552, Note_on_c, 1, 62, 64
1, 48575, Note_on_c, 1, 62, 0
1, 48576, Note_on_c, 1, 54, 64
1, 48599, Note_on_c, 1, 54, 0
1, 48600, Note_on_c, 1, 62, 64
1, 48617, Note_on_c, 0, 71, 0
1, 48623, Note_on_c, 1, 62, 0
1, 48624, Note_on_c, 0, 71, 80
1, 48624, Note_on_c, 1, 59, 64
1, 48647, Note_on_c, 1, 59, 0
1, 48648, Note_on_c, 1, 62, 64
1, 48671, Note_on_c, 1, 62, 0
1, 48672, Note_on_c, 1, 54, 64
1, 48695, Note_on_c, 0, 71, 0
1, 48695, Note_on_c, 1, 54, 0
1, 48696, Note_on_c, 1, 62, 64
1, 48702, Note_on_c, 0, 73, 80
1, 48708, Note_on_c, 0, 73, 0
1, 48708, Note_on_c, 0, 71, 80
1, 48714, Note_on_c, 0, 71, 0
1, 48714, Note_on_c, 0, 70, 80
1, 48719, Note_on_c, 1, 62, 0
1, 48720, Note_on_c, 0, 70, 0
1, 48720, Note_on_c, 0, 71, 80
1, 48720, Note_on_c, 1, 59, 64
1, 48743, Note_on_c, 1, 59, 0
1, 48744, Note_on_c, 1, 62, 64
1, 48765, Note_on_c, 0, 71, 0
1, 48767, Note_on_c, 1, 62, 0
1, 48768, Note_on_c, 0, 71, 80
1, 48768, Note_on_c, 1, 55, 64
1, 48788, Note_on_c, 0, 71, 0
1, 48791, Note_on_c, 1, 55, 0
1, 48792, Note_on_c, 1, 62, 65
1, 48815, Note_on_c, 1, 62, 0
1, 48816, Note_on_c, 0, 83, 96
1, 48816, Note_on_c, 0, 71, 96
1, 48816, Note_on_c, 1, 59, 66
1, 48839, Note_on_c, 1, 59, 0
1, 48840, Note_on_c, 1, 62, 68
1, 48863, Note_on_c, 1, 62, 0
1, 48864, Note_on_c, 1, 55, 69
1, 48887, Note_on_c, 1, 55, 0
1, 48888, Note_on_c, 1, 62, 70
1, 48911, Note_on_c, 1, 62, 0
1, 48912, Note_on_c, 0, 83, 0
1, 48912, Note_on_c, 0, 71, 0
1, 48912, Note_on_c, 0, 83, 80
1, 48912, Note_on_c, 0, 71, 80
1, 48912, Note_on_c, 1, 59, 72
1, 48935, Note_on_c, 1, 59, 0
1, 48936, Note_on_c, 1, 62, 73
1, 48959, Note_on_c, 1, 62, 0
1, 48960, Note_on_c, 1, 43, 75
1, 48983, Note_on_c, 1, 43, 0
1, 48984, Note_on_c, 1, 50, 75
1, 49001, Note_on_c, 0, 83, 0
1, 49001, Note_on_c, 0, 71, 0
1, 49007, Note_on_c, 1, 50, 0
1, 49008, Note_on_c, 0, 83, 80
1, 49008, Note_on_c, 0, 71, 80
1, 49008, Note_on_c, 1, 47, 75
1, 49031, Note_on_c, 1, 47, 0
1, 49032, Note_on_c, 1, 50, 75
1, 49055, Note_on_c, 1, 50, 0
1, 49056, Note_on_c, 1, 43, 75
1, 49075, Note_on_c, 0, 83, 0
1, 49075, Note_on_c, 0, 71, 0
1, 49079, Note_on_c, 1, 43, 0
1, 49080, Note_on_c, 0, 83, 80
1, 49080, Note_on_c, 0, 71, 80
1, 49080, Note_on_c, 1, 50, 75
1, 49090, Note_on_c, 0, 83, 0
1, 49090, Note_on_c, 0, 71, 0
1, 49103, Note_on_c, 1, 50, 0
1, 49104, Note_on_c, 0, 83, 80
1, 49104, Note_on_c, 0, 71, 80
1, 49104, Note_on_c, 1, 47, 75
1, 49114, Note_on_c, 0, 83, 0
1, 49114, Note_on_c, 0, 71, 0
1, 49127, Note_on_c, 1, 47, 0
1, 49128, Note_on_c, 0, 83, 80
1, 49128, Note_on_c, 0, 71, 80
1, 49128, Note_on_c, 1, 50, 75
1, 49138, Note_on_c, 0, 83, 0
1, 49138, Note_on_c, 0, 71, 0
1, 49151, Note_on_c, 1, 50, 0
1, 49152, Note_on_c, 0, 83, 96
1, 49152, Note_on_c, 0, 71, 96
1, 49152, Note_on_c, 1, 41, 75
1, 49175, Note_on_c, 1, 41, 0
1, 49176, Note_on_c, 1, 50, 75
1, 49199, Note_on_c, 1, 50, 0
1, 49200, Note_on_c, 1, 47, 75
1, 49223, Note_on_c, 1, 47, 0
1, 49224, Note_on_c, 1, 50, 75
1, 49247, Note_on_c, 1, 50, 0
1, 49248, Note_on_c, 1, 41, 75
1, 49271, Note_on_c, 1, 41, 0
1, 49272, Note_on_c, 1, 50, 75
1, 49295, Note_on_c, 1, 50, 0
1, 49296, Note_on_c, 0, 83, 0
1, 49296, Note_on_c, 0, 71, 0
1, 49296, Note_on_c, 0, 82, 80
1, 49296, Note_on_c, 0, 70, 80
1, 49296, Note_on_c, 1, 47, 75
1, 49319, Note_on_c, 1, 47, 0
1, 49320, Note_on_c, 1, 50, 75
1, 49343, Note_on_c, 1, 50, 0
1, 49344, Note_on_c, 0, 82, 0
1, 49344, Note_on_c, 0, 70, 0
1, 49344, Note_on_c, 0, 83, 80
1, 49344, Note_on_c, 0, 71, 80
1, 49344, Note_on_c, 1, 41, 75
1, 49364, Note_on_c, 0, 83, 0
1, 49364, Note_on_c, 0, 71, 0
1, 49367, Note_on_c, 1, 41, 0
1, 49368, Note_on_c, 1, 50, 75
1, 49391, Note_on_c, 1, 50, 0
1, 49392, Note_on_c, 0, 82, 80
1, 49392, Note_on_c, 0, 70, 80
1, 49392, Note_on_c, 1, 47, 75
1, 49415, Note_on_c, 1, 47, 0
1, 49416, Note_on_c, 1, 50, 75
1, 49439, Note_on_c, 1, 50, 0
1, 49440, Note_on_c, 0, 82, 0
1, 49440, Note_on_c, 0, 70, 0
1, 49440, Note_on_c, 0, 83, 80
1, 49440, Note_on_c, 0, 71, 80
1, 49440, Note_on_c, 1, 41, 75
1, 49460, Note_on_c, 0, 83, 0
1, 49460, Note_on_c, 0, 71, 0
1, 49463, Note_on_c, 1, 41, 0
1, 49464, Note_on_c, 1, 50, 75
1, 49487, Note_on_c, 1, 50, 0
1, 49488, Note_on_c, 0, 82, 80
1, 49488, Note_on_c, 0, 70, 80
1, 49488, Note_on_c, 1, 47, 75
1, 49511, Note_on_c, 1, 47, 0
1, 49512, Note_on_c, 1, 50, 75
1, 49535, Note_on_c, 1, 50, 0
1, 49536, Note_on_c, 0, 82, 0
1, 49536, Note_on_c, 0, 70, 0
1, 49536, Note_on_c, 0, 83, 80
1, 49536, Note_on_c, 0, 71, 80
1, 49536, Note_on_c, 1, 52, 91
1, 49536, Note_on_c, 1, 47, 91
1, 49536, Note_on_c, 1, 44, 91
1, 49536, Note_on_c, 1, 40, 91
1, 49556, Note_on_c, 0, 83, 0
1, 49556, Note_on_c, 0, 71, 0
1, 49584, Note_on_c, 0, 86, 80
1, 49584, Note_on_c, 0, 74, 80
1, 49629, Note_on_c, 0, 86, 0
1, 49629, Note_on_c, 0, 74, 0
1, 49632, Note_on_c, 0, 85, 80
1, 49632, Note_on_c, 0, 73, 80
1, 49632, Note_on_c, 1, 52, 0
1, 49632, Note_on_c, 1, 47, 0
1, 49632, Note_on_c, 1, 44, 0
1, 49632, Note_on_c, 1, 40, 0
1, 49677, Note_on_c, 0, 85, 0
1, 49677, Note_on_c, 0, 73, 0
1, 49680, Note_on_c, 0, 83, 80
1, 49680, Note_on_c, 0, 71, 80
1, 49725, Note_on_c, 0, 83, 0
1, 49725, Note_on_c, 0, 71, 0
1, 49728, Note_on_c, 1, 59, 75
1, 49728, Note_on_c, 1, 56, 75
1, 49728, Note_on_c, 1, 52, 75
1, 49776, Note_on_c, 0, 77, 80
1, 49817, Note_on_c, 1, 59, 0
1, 49817, Note_on_c, 1, 56, 0
1, 49817, Note_on_c, 1, 52, 0
1, 49821, Note_on_c, 0, 77, 0
1, 49824, Note_on_c, 0, 76, 80
1, 49869, Note_on_c, 0, 76, 0
1, 49872, Note_on_c, 0, 74, 80
1, 49917, Note_on_c, 0, 74, 0
1, 49920, Note_on_c, 1, 52, 91
1, 49920, Note_on_c, 1, 48, 91
1, 49920, Note_on_c, 1, 45, 91
1, 49920, Note_on_c, 1, 40, 91
1, 49968, Note_on_c, 0, 88, 80
1, 49968, Note_on_c, 0, 84, 80
1, 50013, Note_on_c, 0, 88, 0
1, 50013, Note_on_c, 0, 84, 0
1, 50016, Note_on_c, 0, 86, 80
1, 50016, Note_on_c, 0, 83, 80
1, 50016, Note_on_c, 1, 52, 0
1, 50016, Note_on_c, 1, 48, 0
1, 50016, Note_on_c, 1, 45, 0
1, 50016, Note_on_c, 1, 40, 0
1, 50061, Note_on_c, 0, 86, 0
1, 50061, Note_on_c, 0, 83, 0
1, 50064, Note_on_c, 0, 84, 80
1, 50064, Note_on_c, 0, 81, 80
1, 50109, Note_on_c, 0, 84, 0
1, 50109, Note_on_c, 0, 81, 0
1, 50112, Note_on_c, 1, 60, 75
1, 50112, Note_on_c, 1, 57, 75
1, 50112, Note_on_c, 1, 52, 75
1, 50160, Note_on_c, 0, 76, 80
1, 50160, Note_on_c, 0, 72, 80
1, 50201, Note_on_c, 1, 60, 0
1, 50201, Note_on_c, 1, 57, 0
1, 50201, Note_on_c, 1, 52, 0
1, 50205, Note_on_c, 0, 76, 0
1, 50205, Note_on_c, 0, 72, 0
1, 50208, Note_on_c, 0, 74, 80
1, 50208, Note_on_c, 0, 71, 80
1, 50253, Note_on_c, 0, 74, 0
1, 50253, Note_on_c, 0, 71, 0
1, 50256, Note_on_c, 0, 72, 80
1, 50256, Note_on_c, 0, 69, 80
1, 50301, Note_on_c, 0, 72, 0
1, 50301, Note_on_c, 0, 69, 0
1, 50304, Note_on_c, 0, 70, 80
1, 50304, Note_on_c, 1, 40, 70
1, 50316, Note_on_c, 0, 70, 0
1, 50317, Note_on_c, 0, 72, 80
1, 50327, Note_on_c, 1, 40, 0
1, 50328, Note_on_c, 1, 43, 70
1, 50329, Note_on_c, 0, 72, 0
1, 50330, Note_on_c, 0, 70, 80
1, 50342, Note_on_c, 0, 70, 0
1, 50343, Note_on_c, 0, 72, 80
1, 50351, Note_on_c, 1, 43, 0
1, 50352, Note_on_c, 1, 41, 70
1, 50355, Note_on_c, 0, 72, 0
1, 50356, Note_on_c, 0, 70, 80
1, 50368, Note_on_c, 0, 70, 0
1, 50369, Note_on_c, 0, 72, 80
1, 50375, Note_on_c, 1, 41, 0
1, 50376, Note_on_c, 1, 43, 70
1, 50381, Note_on_c, 0, 72, 0
1, 50382, Note_on_c, 0, 70, 80
1, 50394, Note_on_c, 0, 70, 0
1, 50395, Note_on_c, 0, 72, 80
1, 50399, Note_on_c, 1, 43, 0
1, 50400, Note_on_c, 1, 40, 70
1, 50407, Note_on_c, 0, 72, 0
1, 50408, Note_on_c, 0, 70, 80
1, 50420, Note_on_c, 0, 70, 0
1, 50421, Note_on_c, 0, 72, 80
1, 50423, Note_on_c, 1, 40, 0
1, 50424, Note_on_c, 1, 43, 70
1, 50433, Note_on_c, 0, 72, 0
1, 50434, Note_on_c, 0, 70, 80
1, 50446, Note_on_c, 0, 70, 0
1, 50447, Note_on_c, 0, 69, 80
1, 50447, Note_on_c, 1, 43, 0
1, 50448, Note_on_c, 1, 41, 70
1, 50471, Note_on_c, 1, 41, 0
1, 50472, Note_on_c, 0, 69, 0
1, 50472, Note_on_c, 0, 70, 80
1, 50472, Note_on_c, 1, 43, 70
1, 50495, Note_on_c, 1, 43, 0
1, 50496, Note_on_c, 0, 70, 0
1, 50496, Note_on_c, 0, 69, 80
1, 50496, Note_on_c, 1, 41, 70
1, 50519, Note_on_c, 1, 41, 0
1, 50520, Note_on_c, 1, 48, 70
1, 50543, Note_on_c, 1, 48, 0
1, 50544, Note_on_c, 1, 45, 70
1, 50567, Note_on_c, 1, 45, 0
1, 50568, Note_on_c, 1, 48, 70
1, 50585, Note_on_c, 0, 69, 0
1, 50591, Note_on_c, 1, 48, 0
1, 50592, Note_on_c, 1, 41, 70
1, 50615, Note_on_c, 1, 41, 0
1, 50616, Note_on_c, 1, 48, 70
1, 50639, Note_on_c, 1, 48, 0
1, 50640, Note_on_c, 1, 45, 70
1, 50663, Note_on_c, 1, 45, 0
1, 50664, Note_on_c, 1, 48, 70
1, 50687, Note_on_c, 1, 48, 0
1, 50688, Note_on_c, 0, 70, 80
1, 50688, Note_on_c, 0, 64, 64
1, 50688, Note_on_c, 1, 36, 70
1, 50711, Note_on_c, 0, 64, 0
1, 50711, Note_on_c, 1, 36, 0
1, 50712, Note_on_c, 0, 67, 64
1, 50712, Note_on_c, 1, 48, 70
1, 50735, Note_on_c, 0, 67, 0
1, 50735, Note_on_c, 1, 48, 0
1, 50736, Note_on_c, 0, 66, 64
1, 50736, Note_on_c, 1, 36, 70
1, 50759, Note_on_c, 0, 66, 0
1, 50759, Note_on_c, 1, 36, 0
1, 50760, Note_on_c, 0, 64, 64
1, 50760, Note_on_c, 1, 48, 70
1, 50783, Note_on_c, 0, 64, 0
1, 50783, Note_on_c, 1, 48, 0
1, 50784, Note_on_c, 1, 36, 70
1, 50807, Note_on_c, 1, 36, 0
1, 50808, Note_on_c, 0, 67, 64
1, 50808, Note_on_c, 1, 48, 70
1, 50831, Note_on_c, 0, 67, 0
1, 50831, Note_on_c, 1, 48, 0
1, 50832, Note_on_c, 0, 66, 64
1, 50832, Note_on_c, 1, 36, 70
1, 50855, Note_on_c, 0, 66, 0
1, 50855, Note_on_c, 1, 36, 0
1, 50856, Note_on_c, 0, 64, 64
1, 50856, Note_on_c, 1, 48, 70
1, 50879, Note_on_c, 0, 64, 0
1, 50879, Note_on_c, 1, 48, 0
1, 50880, Note_on_c, 0, 70, 0
1, 50880, Note_on_c, 0, 71, 80
1, 50880, Note_on_c, 0, 63, 64
1, 50880, Note_on_c, 1, 35, 70
1, 50903, Note_on_c, 0, 71, 0
1, 50904, Note_on_c, 0, 66, 80
1, 50927, Note_on_c, 0, 66, 0
1, 50928, Note_on_c, 0, 68, 80
1, 50951, Note_on_c, 0, 68, 0
1, 50952, Note_on_c, 0, 70, 80
1, 50969, Note_on_c, 0, 63, 0
1, 50969, Note_on_c, 1, 35, 0
1, 50975, Note_on_c, 0, 70, 0
1, 50976, Note_on_c, 0, 71, 80
1, 50999, Note_on_c, 0, 71, 0
1, 51000, Note_on_c, 0, 73, 80
1, 51023, Note_on_c, 0, 73, 0
1, 51024, Note_on_c, 0, 75, 80
1, 51047, Note_on_c, 0, 75, 0
1, 51048, Note_on_c, 0, 76, 80
1, 51071, Note_on_c, 0, 76, 0
1, 51072, Note_on_c, 0, 78, 80
1, 51072, Note_on_c, 1, 54, 64
1, 51095, Note_on_c, 0, 78, 0
1, 51095, Note_on_c, 1, 54, 0
1, 51096, Note_on_c, 0, 82, 80
1, 51096, Note_on_c, 1, 63, 64
1, 51119, Note_on_c, 0, 82, 0
1, 51119, Note_on_c, 1, 63, 0
1, 51120, Note_on_c, 0, 83, 80
1, 51120, Note_on_c, 1, 59, 64
1, 51143, Note_on_c, 0, 83, 0
1, 51143, Note_on_c, 1, 59, 0
1, 51144, Note_on_c, 0, 78, 80
1, 51144, Note_on_c, 1, 63, 64
1, 51167, Note_on_c, 0, 78, 0
1, 51167, Note_on_c, 1, 63, 0
1, 51168, Note_on_c, 0, 76, 80
1, 51168, Note_on_c, 1, 54, 64
1, 51191, Note_on_c, 0, 76, 0
1, 51191, Note_on_c, 1, 54, 0
1, 51192, Note_on_c, 0, 75, 80
1, 51192, Note_on_c, 1, 63, 64
1, 51215, Note_on_c, 0, 75, 0
1, 51215, Note_on_c, 1, 63, 0
1, 51216, Note_on_c, 0, 73, 80
1, 51216, Note_on_c, 1, 59, 64
1, 51239, Note_on_c, 0, 73, 0
1, 51239, Note_on_c, 1, 59, 0
1, 51240, Note_on_c, 0, 71, 80
1, 51240, Note_on_c, 1, 63, 64
1, 51263, Note_on_c, 0, 71, 0
1, 51263, Note_on_c, 1, 63, 0
1, 51264, Note_on_c, 0, 73, 80
1, 51264, Note_on_c, 1, 54, 64
1, 51276, Note_on_c, 0, 73, 0
1, 51276, Note_on_c, 0, 75, 80
1, 51287, Note_on_c, 1, 54, 0
1, 51288, Note_on_c, 0, 75, 0
1, 51288, Note_on_c, 0, 73, 80
1, 51288, Note_on_c, 1, 64, 64
1, 51300, Note_on_c, 0, 73, 0
1, 51300, Note_on_c, 0, 75, 80
1, 51311, Note_on_c, 1, 64, 0
1, 51312, Note_on_c, 0, 75, 0
1, 51312, Note_on_c, 0, 73, 80
1, 51312, Note_on_c, 1, 61, 64
1, 51324, Note_on_c, 0, 73, 0
1, 51324, Note_on_c, 0, 75, 80
1, 51335, Note_on_c, 0, 75, 0
1, 51335, Note_on_c, 0, 73, 80
1, 51335, Note_on_c, 1, 61, 0
1, 51336, Note_on_c, 1, 64, 64
1, 51346, Note_on_c, 0, 73, 0
1, 51346, Note_on_c, 0, 75, 80
1, 51357, Note_on_c, 0, 75, 0
1, 51357, Note_on_c, 0, 73, 80
1, 51359, Note_on_c, 1, 64, 0
1, 51360, Note_on_c, 1, 54, 64
1, 51368, Note_on_c, 0, 73, 0
1, 51368, Note_on_c, 0, 75, 80
1, 51379, Note_on_c, 0, 75, 0
1, 51379, Note_on_c, 0, 73, 80
1, 51383, Note_on_c, 1, 54, 0
1, 51384, Note_on_c, 1, 64, 64
1, 51390, Note_on_c, 0, 73, 0
1, 51390, Note_on_c, 0, 75, 80
1, 51401, Note_on_c, 0, 75, 0
1, 51401, Note_on_c, 0, 73, 80
1, 51407, Note_on_c, 1, 64, 0
1, 51408, Note_on_c, 1, 61, 64
1, 51412, Note_on_c, 0, 73, 0
1, 51412, Note_on_c, 0, 71, 80
1, 51431, Note_on_c, 1, 61, 0
1, 51432, Note_on_c, 1, 64, 64
1, 51434, Note_on_c, 0, 71, 0
1, 51434, Note_on_c, 0, 73, 80
1, 51455, Note_on_c, 1, 64, 0
1, 51456, Note_on_c, 0, 73, 0
1, 51456, Note_on_c, 0, 71, 80
1, 51456, Note_on_c, 1, 63, 64
1, 51456, Note_on_c, 1, 59, 64
1, 51545, Note_on_c, 0, 71, 0
1, 51545, Note_on_c, 1, 63, 0
1, 51545, Note_on_c, 1, 59, 0
1, 51648, Note_on_c, 0, 78, 75
1, 51678, Note_on_c, 0, 78, 0
1, 51680, Note_on_c, 0, 75, 75
1, 51710, Note_on_c, 0, 75, 0
1, 51712, Note_on_c, 0, 71, 75
1, 51742, Note_on_c, 0, 71, 0
1, 51744, Note_on_c, 0, 70, 75
1, 51744, Note_on_c, 1, 61, 75
1, 51744, Note_on_c, 1, 54, 75
1, 51774, Note_on_c, 0, 70, 0
1, 51776, Note_on_c, 0, 73, 75
1, 51806, Note_on_c, 0, 73, 0
1, 51808, Note_on_c, 0, 76, 75
1, 51833, Note_on_c, 1, 61, 0
1, 51833, Note_on_c, 1, 54, 0
1, 51838, Note_on_c, 0, 76, 0
1, 51840, Note_on_c, 0, 78, 75
1, 51840, Note_on_c, 1, 63, 75
1, 51840, Note_on_c, 1, 59, 75
1, 51858, Note_on_c, 0, 78, 0
1, 51858, Note_on_c, 0, 76, 75
1, 51936, Note_on_c, 0, 76, 0
1, 51936, Note_on_c, 0, 75, 75
1, 52017, Note_on_c, 1, 63, 0
1, 52017, Note_on_c, 1, 59, 0
1, 52025, Note_on_c, 0, 75, 0
1, 52032, Note_on_c, 0, 66, 80
1, 52032, Note_on_c, 1, 54, 80
1, 52062, Note_on_c, 0, 66, 0
1, 52062, Note_on_c, 1, 54, 0
1, 52064, Note_on_c, 0, 63, 80
1, 52064, Note_on_c, 1, 51, 80
1, 52094, Note_on_c, 0, 63, 0
1, 52094, Note_on_c, 1, 51, 0
1, 52096, Note_on_c, 0, 59, 80
1, 52096, Note_on_c, 1, 47, 80
1, 52126, Note_on_c, 0, 59, 0
1, 52126, Note_on_c, 1, 47, 0
1, 52128, Note_on_c, 0, 64, 80
1, 52128, Note_on_c, 1, 52, 80
1, 52158, Note_on_c, 0, 64, 0
1, 52158, Note_on_c, 1, 52, 0
1, 52160, Note_on_c, 0, 61, 80
1, 52160, Note_on_c, 1, 49, 80
1, 52190, Note_on_c, 0, 61, 0
1, 52190, Note_on_c, 1, 49, 0
1, 52192, Note_on_c, 0, 58, 80
1, 52192, Note_on_c, 1, 46, 80
1, 52222, Note_on_c, 0, 58, 0
1, 52222, Note_on_c, 1, 46, 0
1, 52224, Note_on_c, 0, 59, 80
1, 52224, Note_on_c, 1, 47, 80
1, 52263, Note_on_c, 0, 59, 0
1, 52263, Note_on_c, 1, 47, 0
1, 52320, Note_on_c, 0, 71, 80
1, 52320, Note_on_c, 0, 66, 80
1, 52320, Note_on_c, 0, 63, 80
1, 52320, Note_on_c, 0, 59, 80
1, 52320, Note_on_c, 1, 47, 80
1, 52359, Note_on_c, 0, 71, 0
1, 52359, Note_on_c, 0, 66, 0
1, 52359, Note_on_c, 0, 63, 0
1, 52359, Note_on_c, 0, 59, 0
1, 52359, Note_on_c, 1, 47, 0
1, 52416, Note_on_c, 0, 71, 80
1, 52416, Note_on_c, 0, 66, 80
1, 52416, Note_on_c, 0, 63, 80
1, 52416, Note_on_c, 0, 59, 80
1, 52416, Note_on_c, 1, 47, 80
1, 52505, Note_on_c, 0, 71, 0
1, 52505, Note_on_c, 0, 66, 0
1, 52505, Note_on_c, 0, 63, 0
1, 52505, Note_on_c, 0, 59, 0
1, 52505, Note_on_c, 1, 47, 0
1, 52608, Note_on_c, 1, 47, 0
1, 52697, Note_on_c, 1, 47, 0
1, 52707, End_track
0, 0, End_of_file