0, 0, Header, 0, 1, 96
1, 0, Start_track
1, 0, Tempo, 1200000
1, 0, Note_on_c, 0, 57, 104
1, 0, Note_on_c, 1, 41, 80
1, 6, Note_on_c, 0, 57, 0
1, 6, Note_on_c, 0, 60, 104
1, 6, Note_on_c, 1, 45, 80
1, 12, Note_on_c, 0, 60, 0
1, 12, Note_on_c, 0, 65, 104
1, 12, Note_on_c, 1, 48, 80
1, 18, Note_on_c, 1, 53, 80
1, 93, Note_on_c, 1, 53, 0
1, 93, Note_on_c, 1, 48, 0
1, 93, Note_on_c, 1, 45, 0
1, 93, Note_on_c, 1, 41, 0
1, 96, Note_on_c, 1, 57, 75
1, 96, Note_on_c, 1, 53, 75
1, 108, Note_on_c, 0, 65, 0
1, 108, Note_on_c, 0, 60, 80
1, 120, Note_on_c, 0, 60, 0
1, 120, Note_on_c, 0, 65, 80
1, 132, Note_on_c, 0, 65, 0
1, 132, Note_on_c, 0, 69, 80
1, 144, Note_on_c, 0, 69, 0
1, 144, Note_on_c, 0, 72, 80
1, 178, Note_on_c, 0, 72, 0
1, 180, Note_on_c, 0, 69, 80
1, 190, Note_on_c, 1, 57, 0
1, 190, Note_on_c, 1, 53, 0
1, 192, Note_on_c, 0, 69, 0
1, 192, Note_on_c, 0, 72, 80
1, 192, Note_on_c, 1, 58, 80
1, 192, Note_on_c, 1, 53, 80
1, 192, Note_on_c, 1, 64, 64
1, 215, Note_on_c, 0, 72, 0
1, 216, Note_on_c, 0, 70, 79
1, 239, Note_on_c, 0, 70, 0
1, 239, Note_on_c, 1, 64, 0
1, 240, Note_on_c, 0, 67, 78
1, 263, Note_on_c, 0, 67, 0
1, 264, Note_on_c, 0, 64, 77
1, 286, Note_on_c, 1, 58, 0
1, 286, Note_on_c, 1, 53, 0
1, 287, Note_on_c, 0, 64, 0
1, 288, Note_on_c, 0, 65, 76
1, 288, Note_on_c, 1, 60, 76
1, 288, Note_on_c, 1, 57, 76
1, 288, Note_on_c, 1, 53, 76
1, 333, Note_on_c, 0, 65, 0
1, 336, Note_on_c, 0, 67, 74
1, 342, Note_on_c, 0, 67, 0
1, 342, Note_on_c, 0, 65, 74
1, 348, Note_on_c, 0, 65, 0
1, 348, Note_on_c, 0, 64, 74
1, 354, Note_on_c, 0, 64, 0
1, 354, Note_on_c, 0, 65, 74
1, 370, Note_on_c, 0, 65, 0
1, 372, Note_on_c, 0, 69, 72
1, 377, Note_on_c, 1, 60, 0
1, 377, Note_on_c, 1, 57, 0
1, 377, Note_on_c, 1, 53, 0
1, 384, Note_on_c, 0, 69, 0
1, 384, Note_on_c, 0, 60, 72
1, 429, Note_on_c, 0, 60, 0
1, 480, Note_on_c, 1, 57, 70
1, 492, Note_on_c, 1, 57, 0
1, 492, Note_on_c, 1, 60, 70
1, 504, Note_on_c, 1, 60, 0
1, 504, Note_on_c, 1, 64, 71
1, 516, Note_on_c, 1, 64, 0
1, 516, Note_on_c, 1, 65, 72
1, 528, Note_on_c, 0, 69, 72
1, 528, Note_on_c, 1, 65, 0
1, 540, Note_on_c, 0, 69, 0
1, 540, Note_on_c, 0, 72, 73
1, 552, Note_on_c, 0, 72, 0
1, 552, Note_on_c, 0, 76, 73
1, 564, Note_on_c, 0, 76, 0
1, 564, Note_on_c, 0, 77, 74
1, 576, Note_on_c, 0, 77, 0
1, 576, Note_on_c, 0, 77, 91
1, 576, Note_on_c, 1, 62, 76
1, 576, Note_on_c, 1, 58, 76
1, 621, Note_on_c, 1, 62, 0
1, 621, Note_on_c, 1, 58, 0
1, 672, Note_on_c, 1, 74, 64
1, 672, Note_on_c, 1, 70, 64
1, 695, Note_on_c, 0, 77, 0
1, 696, Note_on_c, 0, 76, 78
1, 719, Note_on_c, 0, 76, 0
1, 719, Note_on_c, 1, 74, 0
1, 719, Note_on_c, 1, 70, 0
1, 720, Note_on_c, 0, 79, 77
1, 743, Note_on_c, 0, 79, 0
1, 744, Note_on_c, 0, 77, 76
1, 767, Note_on_c, 0, 77, 0
1, 768, Note_on_c, 0, 76, 75
1, 791, Note_on_c, 0, 76, 0
1, 792, Note_on_c, 0, 74, 73
1, 815, Note_on_c, 0, 74, 0
1, 816, Note_on_c, 0, 72, 72
1, 839, Note_on_c, 0, 72, 0
1, 840, Note_on_c, 0, 70, 71
1, 863, Note_on_c, 0, 70, 0
1, 864, Note_on_c, 0, 69, 64
1, 864, Note_on_c, 1, 65, 80
1, 864, Note_on_c, 1, 60, 64
1, 887, Note_on_c, 0, 69, 0
1, 888, Note_on_c, 0, 70, 66
1, 911, Note_on_c, 0, 70, 0
1, 912, Note_on_c, 0, 71, 69
1, 924, Note_on_c, 0, 71, 0
1, 924, Note_on_c, 0, 72, 70
1, 928, Note_on_c, 0, 72, 0
1, 928, Note_on_c, 0, 71, 70
1, 932, Note_on_c, 0, 71, 0
1, 932, Note_on_c, 0, 69, 70
1, 936, Note_on_c, 0, 69, 0
1, 936, Note_on_c, 0, 71, 70
1, 942, Note_on_c, 0, 71, 0
1, 942, Note_on_c, 0, 72, 71
1, 959, Note_on_c, 0, 72, 0
1, 960, Note_on_c, 0, 74, 73
1, 960, Note_on_c, 1, 65, 0
1, 960, Note_on_c, 1, 64, 80
1, 972, Note_on_c, 0, 74, 0
1, 972, Note_on_c, 0, 72, 75
1, 984, Note_on_c, 0, 72, 0
1, 984, Note_on_c, 0, 70, 74
1, 996, Note_on_c, 0, 70, 0
1, 996, Note_on_c, 0, 69, 73
1, 1008, Note_on_c, 0, 69, 0
1, 1008, Note_on_c, 0, 67, 72
1, 1041, Note_on_c, 1, 60, 0
1, 1042, Note_on_c, 0, 67, 0
1, 1044, Note_on_c, 0, 70, 69
1, 1049, Note_on_c, 1, 64, 0
1, 1050, Note_on_c, 0, 70, 0
1, 1050, Note_on_c, 0, 69, 69
1, 1056, Note_on_c, 0, 69, 0
1, 1056, Note_on_c, 0, 67, 68
1, 1101, Note_on_c, 0, 67, 0
1, 1152, Note_on_c, 0, 57, 104
1, 1152, Note_on_c, 1, 41, 80
1, 1158, Note_on_c, 0, 57, 0
1, 1158, Note_on_c, 0, 60, 104
1, 1158, Note_on_c, 1, 45, 80
1, 1164, Note_on_c, 0, 60, 0
1, 1164, Note_on_c, 0, 65, 104
1, 1164, Note_on_c, 1, 48, 80
1, 1170, Note_on_c, 1, 53, 80
1, 1245, Note_on_c, 1, 53, 0
1, 1245, Note_on_c, 1, 48, 0
1, 1245, Note_on_c, 1, 45, 0
1, 1245, Note_on_c, 1, 41, 0
1, 1248, Note_on_c, 1, 57, 75
1, 1248, Note_on_c, 1, 53, 75
1, 1260, Note_on_c, 0, 65, 0
1, 1260, Note_on_c, 0, 60, 80
1, 1272, Note_on_c, 0, 60, 0
1, 1272, Note_on_c, 0, 65, 80
1, 1284, Note_on_c, 0, 65, 0
1, 1284, Note_on_c, 0, 69, 80
1, 1296, Note_on_c, 0, 69, 0
1, 1296, Note_on_c, 0, 72, 80
1, 1308, Note_on_c, 0, 72, 0
1, 1308, Note_on_c, 0, 69, 80
1, 1320, Note_on_c, 0, 69, 0
1, 1320, Note_on_c, 0, 77, 80
1, 1332, Note_on_c, 0, 77, 0
1, 1332, Note_on_c, 0, 69, 80
1, 1342, Note_on_c, 1, 57, 0
1, 1342, Note_on_c, 1, 53, 0
1, 1344, Note_on_c, 0, 69, 0
1, 1344, Note_on_c, 0, 72, 80
1, 1344, Note_on_c, 1, 58, 80
1, 1344, Note_on_c, 1, 53, 80
1, 1344, Note_on_c, 1, 64, 64
1, 1356, Note_on_c, 0, 72, 0
1, 1356, Note_on_c, 0, 71, 79
1, 1368, Note_on_c, 0, 71, 0
1, 1368, Note_on_c, 0, 74, 78
1, 1380, Note_on_c, 0, 74, 0
1, 1380, Note_on_c, 0, 72, 77
1, 1391, Note_on_c, 1, 64, 0
1, 1392, Note_on_c, 0, 72, 0
1, 1392, Note_on_c, 0, 70, 76
1, 1404, Note_on_c, 0, 70, 0
1, 1404, Note_on_c, 0, 69, 75
1, 1416, Note_on_c, 0, 69, 0
1, 1416, Note_on_c, 0, 70, 74
1, 1428, Note_on_c, 0, 70, 0
1, 1428, Note_on_c, 0, 67, 73
1, 1438, Note_on_c, 1, 58, 0
1, 1438, Note_on_c, 1, 53, 0
1, 1440, Note_on_c, 0, 67, 0
1, 1440, Note_on_c, 0, 65, 72
1, 1440, Note_on_c, 1, 60, 75
1, 1440, Note_on_c, 1, 57, 75
1, 1440, Note_on_c, 1, 53, 75
1, 1463, Note_on_c, 0, 65, 0
1, 1464, Note_on_c, 0, 67, 70
1, 1472, Note_on_c, 0, 67, 0
1, 1472, Note_on_c, 0, 65, 70
1, 1480, Note_on_c, 0, 65, 0
1, 1480, Note_on_c, 0, 64, 70
1, 1488, Note_on_c, 0, 64, 0
1, 1488, Note_on_c, 0, 65, 70
1, 1522, Note_on_c, 0, 65, 0
1, 1524, Note_on_c, 0, 69, 70
1, 1529, Note_on_c, 1, 60, 0
1, 1529, Note_on_c, 1, 57, 0
1, 1529, Note_on_c, 1, 53, 0
1, 1536, Note_on_c, 0, 69, 0
1, 1536, Note_on_c, 0, 61, 94
1, 1536, Note_on_c, 1, 45, 94
1, 1536, Note_on_c, 1, 33, 94
1, 1728, Note_on_c, 0, 61, 0
1, 1728, Note_on_c, 0, 62, 70
1, 1728, Note_on_c, 1, 45, 0
1, 1728, Note_on_c, 1, 33, 0
1, 1728, Note_on_c, 1, 46, 70
1, 1728, Note_on_c, 1, 34, 70
1, 1745, Note_on_c, 0, 62, 0
1, 1752, Note_on_c, 0, 64, 70
1, 1758, Note_on_c, 0, 64, 0
1, 1758, Note_on_c, 0, 68, 70
1, 1764, Note_on_c, 0, 68, 0
1, 1764, Note_on_c, 0, 69, 70
1, 1770, Note_on_c, 0, 69, 0
1, 1770, Note_on_c, 0, 70, 70
1, 1776, Note_on_c, 0, 70, 0
1, 1776, Note_on_c, 0, 72, 70
1, 1782, Note_on_c, 0, 72, 0
1, 1782, Note_on_c, 0, 74, 70
1, 1788, Note_on_c, 0, 74, 0
1, 1788, Note_on_c, 0, 76, 70
1, 1794, Note_on_c, 0, 76, 0
1, 1794, Note_on_c, 0, 78, 70
1, 1800, Note_on_c, 0, 78, 0
1, 1800, Note_on_c, 0, 80, 70
1, 1806, Note_on_c, 0, 80, 0
1, 1806, Note_on_c, 0, 81, 70
1, 1812, Note_on_c, 0, 81, 0
1, 1812, Note_on_c, 0, 82, 70
1, 1817, Note_on_c, 1, 46, 0
1, 1817, Note_on_c, 1, 34, 0
1, 1818, Note_on_c, 0, 82, 0
1, 1818, Note_on_c, 0, 84, 70
1, 1824, Note_on_c, 0, 84, 0
1, 1824, Note_on_c, 0, 86, 70
1, 1844, Note_on_c, 0, 86, 0
1, 1920, Note_on_c, 1, 58, 70
1, 1920, Note_on_c, 1, 48, 70
1, 1944, Note_on_c, 0, 72, 80
1, 1956, Note_on_c, 0, 72, 0
1, 1956, Note_on_c, 0, 70, 79
1, 1961, Note_on_c, 0, 70, 0
1, 1968, Note_on_c, 0, 69, 102
1, 1980, Note_on_c, 0, 69, 0
1, 1980, Note_on_c, 0, 67, 77
1, 1985, Note_on_c, 0, 67, 0
1, 1992, Note_on_c, 0, 65, 100
1, 2004, Note_on_c, 0, 65, 0
1, 2004, Note_on_c, 0, 64, 75
1, 2009, Note_on_c, 0, 64, 0
1, 2009, Note_on_c, 1, 58, 0
1, 2009, Note_on_c, 1, 48, 0
1, 2016, Note_on_c, 0, 67, 74
1, 2016, Note_on_c, 1, 58, 70
1, 2016, Note_on_c, 1, 53, 64
1, 2112, Note_on_c, 0, 67, 0
1, 2112, Note_on_c, 0, 65, 67
1, 2112, Note_on_c, 1, 58, 0
1, 2112, Note_on_c, 1, 57, 66
1, 2149, Note_on_c, 1, 53, 0
1, 2157, Note_on_c, 0, 65, 0
1, 2157, Note_on_c, 1, 57, 0
1, 2184, Note_on_c, 0, 72, 58
1, 2194, Note_on_c, 0, 72, 0
1, 2208, Note_on_c, 0, 74, 58
1, 2218, Note_on_c, 0, 74, 0
1, 2232, Note_on_c, 0, 76, 58
1, 2242, Note_on_c, 0, 76, 0
1, 2256, Note_on_c, 0, 77, 58
1, 2266, Note_on_c, 0, 77, 0
1, 2280, Note_on_c, 0, 79, 58
1, 2290, Note_on_c, 0, 79, 0
1, 2304, Note_on_c, 0, 81, 58
1, 2304, Note_on_c, 1, 65, 64
1, 2328, Note_on_c, 1, 71, 64
1, 2351, Note_on_c, 1, 71, 0
1, 2352, Note_on_c, 1, 72, 64
1, 2375, Note_on_c, 1, 72, 0
1, 2376, Note_on_c, 1, 74, 64
1, 2399, Note_on_c, 1, 74, 0
1, 2400, Note_on_c, 1, 72, 64
1, 2423, Note_on_c, 0, 81, 0
1, 2424, Note_on_c, 0, 80, 58
1, 2447, Note_on_c, 0, 80, 0
1, 2448, Note_on_c, 0, 81, 58
1, 2471, Note_on_c, 0, 81, 0
1, 2472, Note_on_c, 0, 82, 58
1, 2481, Note_on_c, 1, 65, 0
1, 2495, Note_on_c, 0, 82, 0
1, 2496, Note_on_c, 0, 81, 58
1, 2496, Note_on_c, 1, 65, 64
1, 2519, Note_on_c, 0, 81, 0
1, 2520, Note_on_c, 0, 84, 58
1, 2543, Note_on_c, 0, 84, 0
1, 2544, Note_on_c, 0, 83, 82
1, 2567, Note_on_c, 0, 83, 0
1, 2568, Note_on_c, 0, 81, 58
1, 2585, Note_on_c, 1, 65, 0
1, 2591, Note_on_c, 0, 81, 0
1, 2592, Note_on_c, 0, 79, 58
1, 2592, Note_on_c, 1, 64, 64
1, 2615, Note_on_c, 1, 72, 0
1, 2616, Note_on_c, 1, 71, 64
1, 2639, Note_on_c, 1, 71, 0
1, 2640, Note_on_c, 1, 72, 88
1, 2663, Note_on_c, 1, 72, 0
1, 2664, Note_on_c, 1, 74, 64
1, 2687, Note_on_c, 1, 74, 0
1, 2688, Note_on_c, 1, 72, 64
1, 2711, Note_on_c, 0, 79, 0
1, 2712, Note_on_c, 0, 78, 58
1, 2735, Note_on_c, 0, 78, 0
1, 2736, Note_on_c, 0, 79, 58
1, 2759, Note_on_c, 0, 79, 0
1, 2760, Note_on_c, 0, 81, 58
1, 2769, Note_on_c, 1, 64, 0
1, 2783, Note_on_c, 0, 81, 0
1, 2784, Note_on_c, 0, 79, 58
1, 2784, Note_on_c, 1, 64, 64
1, 2796, Note_on_c, 0, 79, 0
1, 2796, Note_on_c, 0, 83, 58
1, 2808, Note_on_c, 0, 83, 0
1, 2808, Note_on_c, 0, 84, 58
1, 2820, Note_on_c, 0, 84, 0
1, 2820, Note_on_c, 0, 88, 58
1, 2832, Note_on_c, 0, 88, 0
1, 2832, Note_on_c, 0, 86, 58
1, 2844, Note_on_c, 0, 86, 0
1, 2844, Note_on_c, 0, 84, 58
1, 2856, Note_on_c, 0, 84, 0
1, 2856, Note_on_c, 0, 83, 58
1, 2865, Note_on_c, 1, 72, 0
1, 2868, Note_on_c, 0, 83, 0
1, 2868, Note_on_c, 0, 81, 58
1, 2873, Note_on_c, 1, 64, 0
1, 2880, Note_on_c, 0, 81, 0
1, 2880, Note_on_c, 0, 79, 58
1, 2880, Note_on_c, 0, 72, 70
1, 2880, Note_on_c, 1, 69, 64
1, 2880, Note_on_c, 1, 62, 64
1, 2903, Note_on_c, 0, 72, 0
1, 2903, Note_on_c, 1, 69, 0
1, 2904, Note_on_c, 0, 71, 71
1, 2904, Note_on_c, 1, 68, 65
1, 2927, Note_on_c, 0, 71, 0
1, 2927, Note_on_c, 1, 68, 0
1, 2928, Note_on_c, 0, 72, 72
1, 2928, Note_on_c, 1, 69, 67
1, 2951, Note_on_c, 0, 72, 0
1, 2951, Note_on_c, 1, 69, 0
1, 2952, Note_on_c, 0, 74, 73
1, 2952, Note_on_c, 1, 71, 68
1, 2969, Note_on_c, 0, 79, 0
1, 2975, Note_on_c, 0, 74, 0
1, 2975, Note_on_c, 1, 71, 0
1, 2976, Note_on_c, 0, 78, 74
1, 2976, Note_on_c, 0, 72, 74
1, 2976, Note_on_c, 0, 69, 74
1, 2999, Note_on_c, 1, 62, 0
1, 3000, Note_on_c, 1, 63, 71
1, 3023, Note_on_c, 1, 63, 0
1, 3024, Note_on_c, 1, 62, 72
1, 3047, Note_on_c, 1, 62, 0
1, 3048, Note_on_c, 1, 60, 73
1, 3071, Note_on_c, 1, 60, 0
1, 3072, Note_on_c, 0, 78, 0
1, 3072, Note_on_c, 0, 72, 0
1, 3072, Note_on_c, 0, 69, 0
1, 3072, Note_on_c, 0, 77, 74
1, 3072, Note_on_c, 0, 74, 74
1, 3072, Note_on_c, 0, 67, 74
1, 3072, Note_on_c, 1, 59, 75
1, 3095, Note_on_c, 1, 59, 0
1, 3096, Note_on_c, 1, 55, 75
1, 3119, Note_on_c, 1, 55, 0
1, 3120, Note_on_c, 1, 60, 76
1, 3143, Note_on_c, 1, 60, 0
1, 3144, Note_on_c, 0, 77, 0
1, 3144, Note_on_c, 0, 74, 0
1, 3144, Note_on_c, 0, 67, 0
1, 3144, Note_on_c, 0, 76, 74
1, 3144, Note_on_c, 0, 72, 74
1, 3144, Note_on_c, 1, 54, 76
1, 3167, Note_on_c, 1, 54, 0
1, 3168, Note_on_c, 1, 55, 77
1, 3191, Note_on_c, 0, 76, 0
1, 3191, Note_on_c, 0, 72, 0
1, 3192, Note_on_c, 0, 73, 58
1, 3192, Note_on_c, 0, 70, 58
1, 3215, Note_on_c, 0, 73, 0
1, 3215, Note_on_c, 0, 70, 0
1, 3216, Note_on_c, 0, 74, 58
1, 3216, Note_on_c, 0, 71, 58
1, 3239, Note_on_c, 0, 74, 0
1, 3239, Note_on_c, 0, 71, 0
1, 3240, Note_on_c, 0, 76, 58
1, 3240, Note_on_c, 0, 72, 58
1, 3257, Note_on_c, 1, 55, 0
1, 3263, Note_on_c, 0, 76, 0
1, 3263, Note_on_c, 0, 72, 0
1, 3264, Note_on_c, 0, 74, 58
1, 3264, Note_on_c, 0, 71, 58
1, 3288, Note_on_c, 1, 42, 80
1, 3309, Note_on_c, 0, 74, 0
1, 3309, Note_on_c, 0, 71, 0
1, 3311, Note_on_c, 1, 42, 0
1, 3312, Note_on_c, 1, 43, 80
1, 3335, Note_on_c, 1, 43, 0
1, 3336, Note_on_c, 1, 45, 80
1, 3359, Note_on_c, 1, 45, 0
1, 3360, Note_on_c, 1, 43, 80
1, 3384, Note_on_c, 0, 55, 64
1, 3405, Note_on_c, 1, 43, 0
1, 3407, Note_on_c, 0, 55, 0
1, 3408, Note_on_c, 0, 59, 66
1, 3431, Note_on_c, 0, 59, 0
1, 3432, Note_on_c, 0, 62, 68
1, 3455, Note_on_c, 0, 62, 0
1, 3456, Note_on_c, 0, 65, 70
1, 3480, Note_on_c, 1, 43, 80
1, 3503, Note_on_c, 1, 43, 0
1, 3504, Note_on_c, 1, 38, 80
1, 3527, Note_on_c, 1, 38, 0
1, 3528, Note_on_c, 1, 35, 80
1, 3551, Note_on_c, 1, 35, 0
1, 3552, Note_on_c, 1, 31, 80
1, 3564, Note_on_c, 0, 65, 0
1, 3564, Note_on_c, 0, 55, 80
1, 3576, Note_on_c, 0, 55, 0
1, 3576, Note_on_c, 0, 59, 80
1, 3588, Note_on_c, 0, 59, 0
1, 3588, Note_on_c, 0, 62, 80
1, 3597, Note_on_c, 1, 31, 0
1, 3600, Note_on_c, 0, 62, 0
1, 3600, Note_on_c, 0, 65, 80
1, 3612, Note_on_c, 0, 65, 0
1, 3612, Note_on_c, 0, 59, 80
1, 3624, Note_on_c, 0, 59, 0
1, 3624, Note_on_c, 0, 62, 80
1, 3636, Note_on_c, 0, 62, 0
1, 3636, Note_on_c, 0, 65, 80
1, 3648, Note_on_c, 0, 65, 0
1, 3648, Note_on_c, 0, 69, 80
1, 3671, Note_on_c, 0, 69, 0
1, 3672, Note_on_c, 0, 65, 80
1, 3695, Note_on_c, 0, 65, 0
1, 3696, Note_on_c, 0, 64, 80
1, 3696, Note_on_c, 1, 59, 64
1, 3696, Note_on_c, 1, 53, 64
1, 3719, Note_on_c, 0, 64, 0
1, 3720, Note_on_c, 0, 62, 80
1, 3743, Note_on_c, 0, 62, 0
1, 3743, Note_on_c, 1, 59, 0
1, 3743, Note_on_c, 1, 53, 0
1, 3744, Note_on_c, 0, 69, 80
1, 3744, Note_on_c, 1, 60, 64
1, 3744, Note_on_c, 1, 52, 64
1, 3756, Note_on_c, 0, 69, 0
1, 3756, Note_on_c, 0, 67, 80
1, 3768, Note_on_c, 0, 67, 0
1, 3768, Note_on_c, 0, 71, 80
1, 3780, Note_on_c, 0, 71, 0
1, 3780, Note_on_c, 0, 69, 80
1, 3792, Note_on_c, 0, 69, 0
1, 3792, Note_on_c, 0, 72, 80
1, 3804, Note_on_c, 0, 72, 0
1, 3804, Note_on_c, 0, 71, 80
1, 3816, Note_on_c, 0, 71, 0
1, 3816, Note_on_c, 0, 74, 80
1, 3828, Note_on_c, 0, 74, 0
1, 3828, Note_on_c, 0, 72, 80
1, 3833, Note_on_c, 1, 60, 0
1, 3833, Note_on_c, 1, 52, 0
1, 3840, Note_on_c, 0, 72, 0
1, 3840, Note_on_c, 0, 67, 80
1, 3885, Note_on_c, 0, 67, 0
1, 3912, Note_on_c, 1, 55, 88
1, 3935, Note_on_c, 1, 55, 0
1, 3936, Note_on_c, 1, 54, 80
1, 3948, Note_on_c, 1, 54, 0
1, 3948, Note_on_c, 1, 55, 79
1, 3960, Note_on_c, 1, 55, 0
1, 3960, Note_on_c, 1, 57, 78
1, 3972, Note_on_c, 1, 57, 0
1, 3972, Note_on_c, 1, 55, 78
1, 3984, Note_on_c, 1, 55, 0
1, 3984, Note_on_c, 1, 53, 77
1, 3996, Note_on_c, 1, 53, 0
1, 3996, Note_on_c, 1, 52, 76
1, 4008, Note_on_c, 1, 52, 0
1, 4008, Note_on_c, 1, 50, 76
1, 4020, Note_on_c, 1, 50, 0
1, 4020, Note_on_c, 1, 48, 75
1, 4032, Note_on_c, 1, 48, 0
1, 4032, Note_on_c, 1, 47, 75
1, 4044, Note_on_c, 0, 67, 75
1, 4056, Note_on_c, 0, 67, 0
1, 4056, Note_on_c, 0, 71, 75
1, 4068, Note_on_c, 0, 71, 0
1, 4068, Note_on_c, 0, 74, 75
1, 4077, Note_on_c, 1, 47, 0
1, 4080, Note_on_c, 0, 74, 0
1, 4080, Note_on_c, 0, 77, 75
1, 4092, Note_on_c, 1, 55, 75
1, 4104, Note_on_c, 1, 55, 0
1, 4104, Note_on_c, 1, 59, 75
1, 4116, Note_on_c, 1, 59, 0
1, 4116, Note_on_c, 1, 62, 75
1, 4128, Note_on_c, 1, 62, 0
1, 4128, Note_on_c, 1, 65, 75
1, 4140, Note_on_c, 0, 77, 0
1, 4140, Note_on_c, 0, 67, 75
1, 4152, Note_on_c, 0, 67, 0
1, 4152, Note_on_c, 0, 71, 75
1, 4164, Note_on_c, 0, 71, 0
1, 4164, Note_on_c, 0, 74, 75
1, 4176, Note_on_c, 0, 74, 0
1, 4176, Note_on_c, 0, 77, 75
1, 4188, Note_on_c, 0, 77, 0
1, 4188, Note_on_c, 0, 71, 75
1, 4200, Note_on_c, 0, 71, 0
1, 4200, Note_on_c, 0, 74, 75
1, 4212, Note_on_c, 0, 74, 0
1, 4212, Note_on_c, 0, 77, 75
1, 4217, Note_on_c, 1, 65, 0
1, 4224, Note_on_c, 0, 77, 0
1, 4224, Note_on_c, 0, 81, 75
1, 4236, Note_on_c, 0, 81, 0
1, 4236, Note_on_c, 0, 80, 75
1, 4248, Note_on_c, 0, 80, 0
1, 4248, Note_on_c, 0, 83, 75
1, 4260, Note_on_c, 0, 83, 0
1, 4260, Note_on_c, 0, 81, 75
1, 4272, Note_on_c, 0, 81, 0
1, 4272, Note_on_c, 0, 79, 75
1, 4272, Note_on_c, 1, 71, 75
1, 4272, Note_on_c, 1, 65, 75
1, 4284, Note_on_c, 0, 79, 0
1, 4284, Note_on_c, 0, 77, 75
1, 4296, Note_on_c, 0, 77, 0
1, 4296, Note_on_c, 0, 76, 75
1, 4308, Note_on_c, 0, 76, 0
1, 4308, Note_on_c, 0, 74, 75
1, 4319, Note_on_c, 1, 71, 0
1, 4319, Note_on_c, 1, 65, 0
1, 4320, Note_on_c, 0, 74, 0
1, 4320, Note_on_c, 0, 81, 75
1, 4320, Note_on_c, 1, 72, 75
1, 4320, Note_on_c, 1, 64, 75
1, 4332, Note_on_c, 0, 81, 0
1, 4332, Note_on_c, 0, 79, 75
1, 4344, Note_on_c, 0, 79, 0
1, 4344, Note_on_c, 0, 83, 75
1, 4356, Note_on_c, 0, 83, 0
1, 4356, Note_on_c, 0, 81, 75
1, 4368, Note_on_c, 0, 81, 0
1, 4368, Note_on_c, 0, 84, 75
1, 4380, Note_on_c, 0, 84, 0
1, 4380, Note_on_c, 0, 83, 75
1, 4392, Note_on_c, 0, 83, 0
1, 4392, Note_on_c, 0, 86, 75
1, 4404, Note_on_c, 0, 86, 0
1, 4404, Note_on_c, 0, 84, 75
1, 4409, Note_on_c, 1, 72, 0
1, 4409, Note_on_c, 1, 64, 0
1, 4416, Note_on_c, 0, 84, 0
1, 4416, Note_on_c, 0, 79, 75
1, 4461, Note_on_c, 0, 79, 0
1, 4488, Note_on_c, 0, 79, 75
1, 4511, Note_on_c, 0, 79, 0
1, 4512, Note_on_c, 0, 84, 75
1, 4512, Note_on_c, 1, 60, 75
1, 4512, Note_on_c, 1, 55, 75
1, 4512, Note_on_c, 1, 52, 75
1, 4524, Note_on_c, 0, 84, 0
1, 4524, Note_on_c, 0, 83, 75
1, 4536, Note_on_c, 0, 83, 0
1, 4536, Note_on_c, 0, 86, 75
1, 4548, Note_on_c, 0, 86, 0
1, 4548, Note_on_c, 0, 84, 75
1, 4560, Note_on_c, 0, 84, 0
1, 4560, Note_on_c, 0, 88, 76
1, 4572, Note_on_c, 0, 88, 0
1, 4572, Note_on_c, 0, 84, 76
1, 4584, Note_on_c, 0, 84, 0
1, 4584, Note_on_c, 0, 79, 76
1, 4596, Note_on_c, 0, 79, 0
1, 4596, Note_on_c, 0, 88, 77
1, 4601, Note_on_c, 1, 60, 0
1, 4601, Note_on_c, 1, 55, 0
1, 4601, Note_on_c, 1, 52, 0
1, 4608, Note_on_c, 0, 88, 0
1, 4608, Note_on_c, 0, 84, 77
1, 4608, Note_on_c, 1, 60, 77
1, 4608, Note_on_c, 1, 57, 77
1, 4608, Note_on_c, 1, 53, 77
1, 4620, Note_on_c, 0, 84, 0
1, 4620, Note_on_c, 0, 81, 77
1, 4632, Note_on_c, 0, 81, 0
1, 4632, Note_on_c, 0, 89, 94
1, 4697, Note_on_c, 1, 60, 0
1, 4697, Note_on_c, 1, 57, 0
1, 4697, Note_on_c, 1, 53, 0
1, 4704, Note_on_c, 0, 89, 0
1, 4704, Note_on_c, 0, 72, 80
1, 4704, Note_on_c, 1, 55, 80
1, 4716, Note_on_c, 0, 72, 0
1, 4716, Note_on_c, 0, 74, 80
1, 4722, Note_on_c, 0, 74, 0
1, 4722, Note_on_c, 0, 76, 80
1, 4728, Note_on_c, 0, 76, 0
1, 4728, Note_on_c, 0, 74, 80
1, 4734, Note_on_c, 0, 74, 0
1, 4734, Note_on_c, 0, 76, 80
1, 4740, Note_on_c, 0, 76, 0
1, 4740, Note_on_c, 0, 74, 80
1, 4746, Note_on_c, 0, 74, 0
1, 4746, Note_on_c, 0, 76, 80
1, 4752, Note_on_c, 0, 76, 0
1, 4752, Note_on_c, 0, 74, 80
1, 4758, Note_on_c, 0, 74, 0
1, 4758, Note_on_c, 0, 76, 80
1, 4764, Note_on_c, 0, 76, 0
1, 4764, Note_on_c, 0, 74, 80
1, 4770, Note_on_c, 0, 74, 0
1, 4770, Note_on_c, 0, 76, 80
1, 4776, Note_on_c, 0, 76, 0
1, 4776, Note_on_c, 0, 74, 80
1, 4782, Note_on_c, 0, 74, 0
1, 4782, Note_on_c, 0, 76, 80
1, 4788, Note_on_c, 0, 76, 0
1, 4788, Note_on_c, 0, 74, 80
1, 4794, Note_on_c, 0, 74, 0
1, 4794, Note_on_c, 0, 76, 80
1, 4800, Note_on_c, 0, 76, 0
1, 4800, Note_on_c, 0, 74, 80
1, 4800, Note_on_c, 1, 65, 75
1, 4800, Note_on_c, 1, 59, 75
1, 4806, Note_on_c, 0, 74, 0
1, 4806, Note_on_c, 0, 76, 80
1, 4812, Note_on_c, 0, 76, 0
1, 4812, Note_on_c, 0, 74, 80
1, 4818, Note_on_c, 0, 74, 0
1, 4818, Note_on_c, 0, 76, 80
1, 4824, Note_on_c, 0, 76, 0
1, 4824, Note_on_c, 0, 74, 80
1, 4830, Note_on_c, 0, 74, 0
1, 4830, Note_on_c, 0, 76, 80
1, 4836, Note_on_c, 0, 76, 0
1, 4836, Note_on_c, 0, 74, 80
1, 4842, Note_on_c, 0, 74, 0
1, 4842, Note_on_c, 0, 76, 80
1, 4848, Note_on_c, 0, 76, 0
1, 4848, Note_on_c, 0, 74, 80
1, 4854, Note_on_c, 0, 74, 0
1, 4854, Note_on_c, 0, 76, 80
1, 4860, Note_on_c, 0, 76, 0
1, 4860, Note_on_c, 0, 74, 80
1, 4866, Note_on_c, 0, 74, 0
1, 4866, Note_on_c, 0, 76, 80
1, 4871, Note_on_c, 0, 76, 0
1, 4871, Note_on_c, 0, 74, 80
1, 4876, Note_on_c, 0, 74, 0
1, 4876, Note_on_c, 0, 76, 80
1, 4881, Note_on_c, 0, 76, 0
1, 4881, Note_on_c, 0, 74, 80
1, 4881, Note_on_c, 1, 55, 0
1, 4886, Note_on_c, 0, 74, 0
1, 4886, Note_on_c, 0, 79, 80
1, 4889, Note_on_c, 1, 65, 0
1, 4889, Note_on_c, 1, 59, 0
1, 4896, Note_on_c, 0, 79, 0
1, 4896, Note_on_c, 0, 72, 80
1, 4896, Note_on_c, 1, 64, 64
1, 4896, Note_on_c, 1, 60, 64
1, 4919, Note_on_c, 1, 64, 0
1, 4920, Note_on_c, 1, 67, 64
1, 4941, Note_on_c, 1, 60, 0
1, 4943, Note_on_c, 1, 67, 0
1, 4944, Note_on_c, 1, 64, 64
1, 4944, Note_on_c, 1, 60, 64
1, 4967, Note_on_c, 1, 64, 0
1, 4968, Note_on_c, 1, 67, 64
1, 4985, Note_on_c, 0, 72, 0
1, 4989, Note_on_c, 1, 60, 0
1, 4991, Note_on_c, 1, 67, 0
1, 4992, Note_on_c, 1, 64, 64
1, 4992, Note_on_c, 1, 60, 64
1, 5004, Note_on_c, 0, 88, 70
1, 5009, Note_on_c, 0, 88, 0
1, 5015, Note_on_c, 1, 64, 0
1, 5016, Note_on_c, 0, 86, 70
1, 5016, Note_on_c, 1, 67, 64
1, 5021, Note_on_c, 0, 86, 0
1, 5028, Note_on_c, 0, 84, 70
1, 5033, Note_on_c, 0, 84, 0
1, 5037, Note_on_c, 1, 60, 0
1, 5039, Note_on_c, 1, 67, 0
1, 5040, Note_on_c, 0, 83, 70
1, 5040, Note_on_c, 1, 64, 64
1, 5040, Note_on_c, 1, 60, 64
1, 5045, Note_on_c, 0, 83, 0
1, 5052, Note_on_c, 0, 81, 70
1, 5057, Note_on_c, 0, 81, 0
1, 5063, Note_on_c, 1, 64, 0
1, 5064, Note_on_c, 0, 79, 70
1, 5064, Note_on_c, 1, 67, 64
1, 5069, Note_on_c, 0, 79, 0
1, 5076, Note_on_c, 0, 77, 70
1, 5081, Note_on_c, 0, 77, 0
1, 5085, Note_on_c, 1, 60, 0
1, 5087, Note_on_c, 1, 67, 0
1, 5088, Note_on_c, 0, 76, 70
1, 5088, Note_on_c, 1, 64, 64
1, 5088, Note_on_c, 1, 60, 64
1, 5098, Note_on_c, 0, 76, 0
1, 5111, Note_on_c, 1, 64, 0
1, 5112, Note_on_c, 0, 74, 70
1, 5112, Note_on_c, 1, 67, 64
1, 5122, Note_on_c, 0, 74, 0
1, 5133, Note_on_c, 1, 60, 0
1, 5135, Note_on_c, 1, 67, 0
1, 5136, Note_on_c, 0, 76, 70
1, 5136, Note_on_c, 1, 64, 64
1, 5136, Note_on_c, 1, 60, 64
1, 5146, Note_on_c, 0, 76, 0
1, 5159, Note_on_c, 1, 64, 0
1, 5160, Note_on_c, 0, 77, 70
1, 5160, Note_on_c, 1, 67, 64
1, 5170, Note_on_c, 0, 77, 0
1, 5181, Note_on_c, 1, 60, 0
1, 5183, Note_on_c, 1, 67, 0
1, 5184, Note_on_c, 0, 78, 70
1, 5184, Note_on_c, 1, 65, 64
1, 5184, Note_on_c, 1, 62, 64
1, 5184, Note_on_c, 1, 59, 64
1, 5207, Note_on_c, 1, 65, 0
1, 5208, Note_on_c, 0, 78, 0
1, 5208, Note_on_c, 0, 79, 94
1, 5208, Note_on_c, 1, 67, 64
1, 5229, Note_on_c, 1, 62, 0
1, 5229, Note_on_c, 1, 59, 0
1, 5231, Note_on_c, 1, 67, 0
1, 5232, Note_on_c, 1, 65, 64
1, 5232, Note_on_c, 1, 62, 64
1, 5232, Note_on_c, 1, 59, 64
1, 5255, Note_on_c, 1, 65, 0
1, 5256, Note_on_c, 1, 67, 64
1, 5275, Note_on_c, 0, 79, 0
1, 5277, Note_on_c, 1, 62, 0
1, 5277, Note_on_c, 1, 59, 0
1, 5279, Note_on_c, 1, 67, 0
1, 5280, Note_on_c, 1, 65, 64
1, 5280, Note_on_c, 1, 62, 64
1, 5280, Note_on_c, 1, 59, 64
1, 5292, Note_on_c, 0, 89, 70
1, 5297, Note_on_c, 0, 89, 0
1, 5303, Note_on_c, 1, 65, 0
1, 5304, Note_on_c, 0, 88, 70
1, 5304, Note_on_c, 1, 67, 64
1, 5309, Note_on_c, 0, 88, 0
1, 5316, Note_on_c, 0, 86, 70
1, 5321, Note_on_c, 0, 86, 0
1, 5325, Note_on_c, 1, 62, 0
1, 5325, Note_on_c, 1, 59, 0
1, 5327, Note_on_c, 1, 67, 0
1, 5328, Note_on_c, 0, 84, 70
1, 5328, Note_on_c, 1, 65, 64
1, 5328, Note_on_c, 1, 62, 64
1, 5328, Note_on_c, 1, 59, 64
1, 5333, Note_on_c, 0, 84, 0
1, 5340, Note_on_c, 0, 83, 70
1, 5345, Note_on_c, 0, 83, 0
1, 5351, Note_on_c, 1, 65, 0
1, 5352, Note_on_c, 0, 81, 70
1, 5352, Note_on_c, 1, 67, 64
1, 5357, Note_on_c, 0, 81, 0
1, 5364, Note_on_c, 0, 79, 70
1, 5369, Note_on_c, 0, 79, 0
1, 5373, Note_on_c, 1, 62, 0
1, 5373, Note_on_c, 1, 59, 0
1, 5375, Note_on_c, 1, 67, 0
1, 5376, Note_on_c, 0, 78, 70
1, 5376, Note_on_c, 1, 65, 64
1, 5376, Note_on_c, 1, 62, 64
1, 5376, Note_on_c, 1, 59, 64
1, 5386, Note_on_c, 0, 78, 0
1, 5399, Note_on_c, 1, 65, 0
1, 5400, Note_on_c, 0, 79, 70
1, 5400, Note_on_c, 1, 67, 64
1, 5410, Note_on_c, 0, 79, 0
1, 5421, Note_on_c, 1, 62, 0
1, 5421, Note_on_c, 1, 59, 0
1, 5423, Note_on_c, 1, 67, 0
1, 5424, Note_on_c, 0, 81, 70
1, 5424, Note_on_c, 1, 65, 64
1, 5424, Note_on_c, 1, 62, 64
1, 5424, Note_on_c, 1, 59, 64
1, 5434, Note_on_c, 0, 81, 0
1, 5447, Note_on_c, 1, 65, 0
1, 5448, Note_on_c, 0, 77, 70
1, 5448, Note_on_c, 1, 67, 64
1, 5458, Note_on_c, 0, 77, 0
1, 5469, Note_on_c, 1, 62, 0
1, 5469, Note_on_c, 1, 59, 0
1, 5471, Note_on_c, 1, 67, 0
1, 5472, Note_on_c, 0, 75, 70
1, 5472, Note_on_c, 1, 64, 64
1, 5472, Note_on_c, 1, 60, 64
1, 5495, Note_on_c, 1, 64, 0
1, 5496, Note_on_c, 0, 75, 0
1, 5496, Note_on_c, 0, 76, 94
1, 5496, Note_on_c, 1, 67, 64
1, 5517, Note_on_c, 1, 60, 0
1, 5519, Note_on_c, 1, 67, 0
1, 5520, Note_on_c, 1, 64, 64
1, 5520, Note_on_c, 1, 60, 64
1, 5543, Note_on_c, 1, 64, 0
1, 5544, Note_on_c, 1, 67, 64
1, 5563, Note_on_c, 0, 76, 0
1, 5565, Note_on_c, 1, 60, 0
1, 5567, Note_on_c, 1, 67, 0
1, 5568, Note_on_c, 1, 52, 70
1, 5568, Note_on_c, 1, 48, 70
1, 5580, Note_on_c, 0, 88, 75
1, 5580, Note_on_c, 0, 76, 75
1, 5585, Note_on_c, 0, 88, 0
1, 5585, Note_on_c, 0, 76, 0
1, 5591, Note_on_c, 1, 52, 0
1, 5592, Note_on_c, 0, 86, 75
1, 5592, Note_on_c, 0, 74, 75
1, 5592, Note_on_c, 1, 55, 70
1, 5597, Note_on_c, 0, 86, 0
1, 5597, Note_on_c, 0, 74, 0
1, 5604, Note_on_c, 0, 84, 75
1, 5604, Note_on_c, 0, 72, 75
1, 5609, Note_on_c, 0, 84, 0
1, 5609, Note_on_c, 0, 72, 0
1, 5613, Note_on_c, 1, 48, 0
1, 5615, Note_on_c, 1, 55, 0
1, 5616, Note_on_c, 0, 83, 75
1, 5616, Note_on_c, 0, 71, 75
1, 5616, Note_on_c, 1, 52, 70
1, 5616, Note_on_c, 1, 48, 70
1, 5621, Note_on_c, 0, 83, 0
1, 5621, Note_on_c, 0, 71, 0
1, 5628, Note_on_c, 0, 81, 75
1, 5628, Note_on_c, 0, 69, 75
1, 5633, Note_on_c, 0, 81, 0
1, 5633, Note_on_c, 0, 69, 0
1, 5639, Note_on_c, 1, 52, 0
1, 5640, Note_on_c, 0, 79, 75
1, 5640, Note_on_c, 0, 67, 75
1, 5640, Note_on_c, 1, 55, 70
1, 5645, Note_on_c, 0, 79, 0
1, 5645, Note_on_c, 0, 67, 0
1, 5652, Note_on_c, 0, 77, 75
1, 5652, Note_on_c, 0, 65, 75
1, 5657, Note_on_c, 0, 77, 0
1, 5657, Note_on_c, 0, 65, 0
1, 5661, Note_on_c, 1, 48, 0
1, 5663, Note_on_c, 1, 55, 0
1, 5664, Note_on_c, 0, 76, 75
1, 5664, Note_on_c, 0, 64, 75
1, 5664, Note_on_c, 1, 52, 70
1, 5664, Note_on_c, 1, 48, 70
1, 5674, Note_on_c, 0, 76, 0
1, 5674, Note_on_c, 0, 64, 0
1, 5687, Note_on_c, 1, 52, 0
1, 5688, Note_on_c, 0, 74, 75
1, 5688, Note_on_c, 0, 62, 75
1, 5688, Note_on_c, 1, 55, 70
1, 5698, Note_on_c, 0, 74, 0
1, 5698, Note_on_c, 0, 62, 0
1, 5709, Note_on_c, 1, 48, 0
1, 5711, Note_on_c, 1, 55, 0
1, 5712, Note_on_c, 0, 76, 75
1, 5712, Note_on_c, 0, 64, 75
1, 5712, Note_on_c, 1, 52, 70
1, 5712, Note_on_c, 1, 48, 70
1, 5722, Note_on_c, 0, 76, 0
1, 5722, Note_on_c, 0, 64, 0
1, 5735, Note_on_c, 1, 52, 0
1, 5736, Note_on_c, 0, 77, 75
1, 5736, Note_on_c, 0, 65, 75
1, 5736, Note_on_c, 1, 55, 70
1, 5746, Note_on_c, 0, 77, 0
1, 5746, Note_on_c, 0, 65, 0
1, 5757, Note_on_c, 1, 48, 0
1, 5759, Note_on_c, 1, 55, 0
1, 5760, Note_on_c, 0, 78, 75
1, 5760, Note_on_c, 0, 66, 75
1, 5760, Note_on_c, 1, 53, 70
1, 5760, Note_on_c, 1, 50, 70
1, 5760, Note_on_c, 1, 47, 70
1, 5783, Note_on_c, 1, 53, 0
1, 5784, Note_on_c, 0, 78, 0
1, 5784, Note_on_c, 0, 66, 0
1, 5784, Note_on_c, 0, 79, 99
1, 5784, Note_on_c, 0, 67, 99
1, 5784, Note_on_c, 1, 55, 70
1, 5805, Note_on_c, 1, 50, 0
1, 5805, Note_on_c, 1, 47, 0
1, 5807, Note_on_c, 1, 55, 0
1, 5808, Note_on_c, 1, 53, 70
1, 5808, Note_on_c, 1, 50, 70
1, 5808, Note_on_c, 1, 47, 70
1, 5831, Note_on_c, 1, 53, 0
1, 5832, Note_on_c, 1, 55, 70
1, 5851, Note_on_c, 0, 79, 0
1, 5851, Note_on_c, 0, 67, 0
1, 5853, Note_on_c, 1, 50, 0
1, 5853, Note_on_c, 1, 47, 0
1, 5855, Note_on_c, 1, 55, 0
1, 5856, Note_on_c, 1, 53, 70
1, 5856, Note_on_c, 1, 50, 70
1, 5856, Note_on_c, 1, 47, 70
1, 5868, Note_on_c, 0, 89, 75
1, 5868, Note_on_c, 0, 77, 75
1, 5873, Note_on_c, 0, 89, 0
1, 5873, Note_on_c, 0, 77, 0
1, 5879, Note_on_c, 1, 53, 0
1, 5880, Note_on_c, 0, 88, 75
1, 5880, Note_on_c, 0, 76, 75
1, 5880, Note_on_c, 1, 55, 70
1, 5885, Note_on_c, 0, 88, 0
1, 5885, Note_on_c, 0, 76, 0
1, 5892, Note_on_c, 0, 86, 75
1, 5892, Note_on_c, 0, 74, 75
1, 5897, Note_on_c, 0, 86, 0
1, 5897, Note_on_c, 0, 74, 0
1, 5901, Note_on_c, 1, 50, 0
1, 5901, Note_on_c, 1, 47, 0
1, 5903, Note_on_c, 1, 55, 0
1, 5904, Note_on_c, 0, 84, 75
1, 5904, Note_on_c, 0, 72, 75
1, 5904, Note_on_c, 1, 53, 70
1, 5904, Note_on_c, 1, 50, 70
1, 5904, Note_on_c, 1, 47, 70
1, 5909, Note_on_c, 0, 84, 0
1, 5909, Note_on_c, 0, 72, 0
1, 5916, Note_on_c, 0, 83, 75
1, 5916, Note_on_c, 0, 71, 75
1, 5921, Note_on_c, 0, 83, 0
1, 5921, Note_on_c, 0, 71, 0
1, 5927, Note_on_c, 1, 53, 0
1, 5928, Note_on_c, 0, 81, 75
1, 5928, Note_on_c, 0, 69, 75
1, 5928, Note_on_c, 1, 55, 70
1, 5933, Note_on_c, 0, 81, 0
1, 5933, Note_on_c, 0, 69, 0
1, 5940, Note_on_c, 0, 79, 75
1, 5940, Note_on_c, 0, 67, 75
1, 5945, Note_on_c, 0, 79, 0
1, 5945, Note_on_c, 0, 67, 0
1, 5949, Note_on_c, 1, 50, 0
1, 5949, Note_on_c, 1, 47, 0
1, 5951, Note_on_c, 1, 55, 0
1, 5952, Note_on_c, 0, 78, 75
1, 5952, Note_on_c, 0, 66, 75
1, 5952, Note_on_c, 1, 53, 70
1, 5952, Note_on_c, 1, 50, 70
1, 5952, Note_on_c, 1, 47, 70
1, 5962, Note_on_c, 0, 78, 0
1, 5962, Note_on_c, 0, 66, 0
1, 5975, Note_on_c, 1, 53, 0
1, 5976, Note_on_c, 0, 79, 75
1, 5976, Note_on_c, 0, 67, 75
1, 5976, Note_on_c, 1, 55, 70
1, 5986, Note_on_c, 0, 79, 0
1, 5986, Note_on_c, 0, 67, 0
1, 5997, Note_on_c, 1, 50, 0
1, 5997, Note_on_c, 1, 47, 0
1, 5999, Note_on_c, 1, 55, 0
1, 6000, Note_on_c, 0, 81, 75
1, 6000, Note_on_c, 0, 69, 75
1, 6000, Note_on_c, 1, 53, 70
1, 6000, Note_on_c, 1, 50, 70
1, 6000, Note_on_c, 1, 47, 70
1, 6010, Note_on_c, 0, 81, 0
1, 6010, Note_on_c, 0, 69, 0
1, 6023, Note_on_c, 1, 53, 0
1, 6024, Note_on_c, 0, 77, 75
1, 6024, Note_on_c, 0, 65, 75
1, 6024, Note_on_c, 1, 55, 70
1, 6034, Note_on_c, 0, 77, 0
1, 6034, Note_on_c, 0, 65, 0
1, 6045, Note_on_c, 1, 50, 0
1, 6045, Note_on_c, 1, 47, 0
1, 6047, Note_on_c, 1, 55, 0
1, 6048, Note_on_c, 0, 76, 75
1, 6048, Note_on_c, 0, 64, 75
1, 6048, Note_on_c, 1, 52, 70
1, 6048, Note_on_c, 1, 48, 70
1, 6093, Note_on_c, 0, 76, 0
1, 6093, Note_on_c, 0, 64, 0
1, 6096, Note_on_c, 0, 84, 75
1, 6096, Note_on_c, 0, 76, 75
1, 6137, Note_on_c, 1, 52, 0
1, 6137, Note_on_c, 1, 48, 0
1, 6141, Note_on_c, 0, 84, 0
1, 6141, Note_on_c, 0, 76, 0
1, 6144, Note_on_c, 0, 57, 75
1, 6155, Note_on_c, 0, 57, 0
1, 6155, Note_on_c, 0, 60, 75
1, 6166, Note_on_c, 0, 60, 0
1, 6166, Note_on_c, 0, 63, 75
1, 6177, Note_on_c, 0, 63, 0
1, 6177, Note_on_c, 0, 66, 75
1, 6188, Note_on_c, 0, 66, 0
1, 6188, Note_on_c, 0, 69, 75
1, 6199, Note_on_c, 0, 69, 0
1, 6199, Note_on_c, 0, 72, 75
1, 6210, Note_on_c, 0, 72, 0
1, 6210, Note_on_c, 0, 75, 75
1, 6220, Note_on_c, 0, 75, 0
1, 6220, Note_on_c, 0, 78, 75
1, 6230, Note_on_c, 0, 78, 0
1, 6230, Note_on_c, 0, 81, 75
1, 6240, Note_on_c, 0, 81, 0
1, 6240, Note_on_c, 1, 43, 80
1, 6285, Note_on_c, 1, 43, 0
1, 6288, Note_on_c, 0, 71, 75
1, 6288, Note_on_c, 0, 65, 75
1, 6300, Note_on_c, 0, 71, 0
1, 6300, Note_on_c, 0, 72, 74
1, 6308, Note_on_c, 0, 72, 0
1, 6308, Note_on_c, 0, 71, 74
1, 6316, Note_on_c, 0, 71, 0
1, 6316, Note_on_c, 0, 69, 74
1, 6324, Note_on_c, 0, 69, 0
1, 6324, Note_on_c, 0, 71, 74
1, 6333, Note_on_c, 0, 65, 0
1, 6336, Note_on_c, 0, 71, 0
1, 6336, Note_on_c, 0, 74, 74
1, 6336, Note_on_c, 0, 65, 74
1, 6336, Note_on_c, 1, 48, 78
1, 6425, Note_on_c, 1, 48, 0
1, 6432, Note_on_c, 0, 74, 0
1, 6432, Note_on_c, 0, 65, 0
1, 6432, Note_on_c, 0, 72, 71
1, 6432, Note_on_c, 0, 64, 71
1, 6499, Note_on_c, 0, 72, 0
1, 6499, Note_on_c, 0, 64, 0
1, 6624, Note_on_c, 1, 39, 75
1, 6648, Note_on_c, 0, 67, 75
1, 6671, Note_on_c, 0, 67, 0
1, 6672, Note_on_c, 0, 69, 75
1, 6695, Note_on_c, 0, 69, 0
1, 6696, Note_on_c, 0, 71, 75
1, 6719, Note_on_c, 0, 71, 0
1, 6720, Note_on_c, 0, 72, 75
1, 6743, Note_on_c, 0, 72, 0
1, 6744, Note_on_c, 0, 74, 75
1, 6767, Note_on_c, 0, 74, 0
1, 6768, Note_on_c, 0, 75, 75
1, 6791, Note_on_c, 0, 75, 0
1, 6792, Note_on_c, 0, 71, 75
1, 6801, Note_on_c, 1, 39, 0
1, 6815, Note_on_c, 0, 71, 0
1, 6816, Note_on_c, 0, 72, 75
1, 6816, Note_on_c, 1, 51, 75
1, 6839, Note_on_c, 0, 72, 0
1, 6840, Note_on_c, 0, 67, 75
1, 6863, Note_on_c, 0, 67, 0
1, 6864, Note_on_c, 0, 84, 75
1, 6887, Note_on_c, 0, 84, 0
1, 6888, Note_on_c, 0, 81, 75
1, 6905, Note_on_c, 1, 51, 0
1, 6911, Note_on_c, 0, 81, 0
1, 6912, Note_on_c, 0, 79, 75
1, 6912, Note_on_c, 1, 50, 75
1, 6936, Note_on_c, 0, 72, 75
1, 6959, Note_on_c, 0, 72, 0
1, 6960, Note_on_c, 0, 74, 75
1, 6983, Note_on_c, 0, 74, 0
1, 6984, Note_on_c, 0, 75, 75
1, 7007, Note_on_c, 0, 75, 0
1, 7008, Note_on_c, 0, 79, 0
1, 7008, Note_on_c, 0, 78, 75
1, 7008, Note_on_c, 0, 74, 75
1, 7031, Note_on_c, 0, 74, 0
1, 7032, Note_on_c, 0, 72, 75
1, 7032, Note_on_c, 1, 54, 75
1, 7055, Note_on_c, 0, 72, 0
1, 7055, Note_on_c, 1, 54, 0
1, 7056, Note_on_c, 0, 70, 75
1, 7056, Note_on_c, 1, 55, 75
1, 7079, Note_on_c, 0, 70, 0
1, 7079, Note_on_c, 1, 55, 0
1, 7080, Note_on_c, 0, 69, 75
1, 7080, Note_on_c, 1, 57, 75
1, 7097, Note_on_c, 0, 78, 0
1, 7103, Note_on_c, 0, 69, 0
1, 7103, Note_on_c, 1, 57, 0
1, 7104, Note_on_c, 0, 79, 75
1, 7104, Note_on_c, 0, 67, 75
1, 7104, Note_on_c, 1, 58, 75
1, 7127, Note_on_c, 0, 79, 0
1, 7128, Note_on_c, 0, 78, 75
1, 7151, Note_on_c, 0, 78, 0
1, 7152, Note_on_c, 0, 79, 75
1, 7175, Note_on_c, 0, 79, 0
1, 7176, Note_on_c, 0, 76, 75
1, 7177, Note_on_c, 1, 50, 0
1, 7193, Note_on_c, 0, 67, 0
1, 7193, Note_on_c, 1, 58, 0
1, 7199, Note_on_c, 0, 76, 0
1, 7200, Note_on_c, 0, 74, 75
1, 7200, Note_on_c, 1, 52, 75
1, 7224, Note_on_c, 0, 67, 75
1, 7224, Note_on_c, 1, 58, 75
1, 7247, Note_on_c, 0, 67, 0
1, 7247, Note_on_c, 1, 58, 0
1, 7248, Note_on_c, 0, 69, 75
1, 7248, Note_on_c, 1, 57, 75
1, 7271, Note_on_c, 0, 69, 0
1, 7271, Note_on_c, 1, 57, 0
1, 7272, Note_on_c, 0, 70, 75
1, 7272, Note_on_c, 1, 55, 75
1, 7289, Note_on_c, 0, 74, 0
1, 7295, Note_on_c, 0, 70, 0
1, 7295, Note_on_c, 1, 55, 0
1, 7296, Note_on_c, 0, 73, 75
1, 7296, Note_on_c, 0, 69, 75
1, 7296, Note_on_c, 1, 57, 75
1, 7319, Note_on_c, 0, 69, 0
1, 7319, Note_on_c, 1, 57, 0
1, 7320, Note_on_c, 0, 67, 75
1, 7320, Note_on_c, 1, 58, 75
1, 7343, Note_on_c, 0, 67, 0
1, 7343, Note_on_c, 1, 58, 0
1, 7344, Note_on_c, 0, 69, 75
1, 7344, Note_on_c, 1, 57, 75
1, 7367, Note_on_c, 0, 69, 0
1, 7367, Note_on_c, 1, 57, 0
1, 7368, Note_on_c, 0, 70, 75
1, 7368, Note_on_c, 1, 55, 75
1, 7391, Note_on_c, 0, 70, 0
1, 7391, Note_on_c, 1, 55, 0
1, 7392, Note_on_c, 0, 69, 75
1, 7392, Note_on_c, 1, 57, 75
1, 7415, Note_on_c, 0, 69, 0
1, 7415, Note_on_c, 1, 57, 0
1, 7416, Note_on_c, 0, 67, 75
1, 7416, Note_on_c, 1, 58, 75
1, 7439, Note_on_c, 0, 67, 0
1, 7439, Note_on_c, 1, 58, 0
1, 7440, Note_on_c, 0, 69, 75
1, 7440, Note_on_c, 1, 57, 75
1, 7459, Note_on_c, 0, 73, 0
1, 7463, Note_on_c, 0, 69, 0
1, 7463, Note_on_c, 1, 57, 0
1, 7464, Note_on_c, 0, 76, 75
1, 7464, Note_on_c, 0, 70, 75
1, 7464, Note_on_c, 1, 55, 75
1, 7465, Note_on_c, 1, 52, 0
1, 7487, Note_on_c, 0, 76, 0
1, 7487, Note_on_c, 0, 70, 0
1, 7487, Note_on_c, 1, 55, 0
1, 7488, Note_on_c, 0, 76, 75
1, 7488, Note_on_c, 0, 69, 75
1, 7488, Note_on_c, 1, 53, 75
1, 7488, Note_on_c, 1, 57, 75
1, 7511, Note_on_c, 0, 76, 0
1, 7512, Note_on_c, 0, 74, 75
1, 7535, Note_on_c, 0, 74, 0
1, 7536, Note_on_c, 0, 76, 75
1, 7559, Note_on_c, 0, 76, 0
1, 7560, Note_on_c, 0, 77, 75
1, 7577, Note_on_c, 1, 57, 0
1, 7583, Note_on_c, 0, 77, 0
1, 7584, Note_on_c, 0, 76, 75
1, 7584, Note_on_c, 1, 62, 75
1, 7607, Note_on_c, 0, 76, 0
1, 7608, Note_on_c, 0, 74, 75
1, 7631, Note_on_c, 0, 74, 0
1, 7632, Note_on_c, 0, 76, 75
1, 7655, Note_on_c, 0, 76, 0
1, 7656, Note_on_c, 0, 77, 75
1, 7665, Note_on_c, 1, 53, 0
1, 7679, Note_on_c, 0, 77, 0
1, 7680, Note_on_c, 0, 76, 75
1, 7680, Note_on_c, 1, 54, 75
1, 7703, Note_on_c, 0, 76, 0
1, 7704, Note_on_c, 0, 74, 75
1, 7727, Note_on_c, 0, 74, 0
1, 7728, Note_on_c, 0, 76, 75
1, 7751, Note_on_c, 0, 76, 0
1, 7752, Note_on_c, 0, 72, 75
1, 7753, Note_on_c, 0, 69, 0
1, 7761, Note_on_c, 1, 62, 0
1, 7769, Note_on_c, 1, 54, 0
1, 7775, Note_on_c, 0, 72, 0
1, 7776, Note_on_c, 0, 72, 75
1, 7776, Note_on_c, 0, 65, 75
1, 7776, Note_on_c, 1, 62, 75
1, 7776, Note_on_c, 1, 55, 75
1, 7799, Note_on_c, 0, 65, 0
1, 7799, Note_on_c, 1, 62, 0
1, 7800, Note_on_c, 0, 64, 75
1, 7800, Note_on_c, 1, 61, 75
1, 7823, Note_on_c, 0, 64, 0
1, 7823, Note_on_c, 1, 61, 0
1, 7824, Note_on_c, 0, 65, 75
1, 7824, Note_on_c, 1, 62, 75
1, 7847, Note_on_c, 0, 65, 0
1, 7847, Note_on_c, 1, 62, 0
1, 7848, Note_on_c, 0, 67, 75
1, 7848, Note_on_c, 1, 64, 75
1, 7865, Note_on_c, 0, 72, 0
1, 7871, Note_on_c, 0, 67, 0
1, 7871, Note_on_c, 1, 64, 0
1, 7872, Note_on_c, 0, 71, 75
1, 7872, Note_on_c, 0, 65, 75
1, 7872, Note_on_c, 1, 62, 75
1, 7895, Note_on_c, 0, 65, 0
1, 7895, Note_on_c, 1, 62, 0
1, 7896, Note_on_c, 0, 64, 75
1, 7896, Note_on_c, 1, 61, 75
1, 7919, Note_on_c, 0, 64, 0
1, 7919, Note_on_c, 1, 61, 0
1, 7920, Note_on_c, 0, 65, 75
1, 7920, Note_on_c, 1, 62, 75
1, 7943, Note_on_c, 0, 65, 0
1, 7943, Note_on_c, 1, 62, 0
1, 7944, Note_on_c, 0, 67, 75
1, 7944, Note_on_c, 1, 64, 75
1, 7967, Note_on_c, 0, 67, 0
1, 7967, Note_on_c, 1, 64, 0
1, 7968, Note_on_c, 0, 65, 75
1, 7968, Note_on_c, 1, 62, 75
1, 7991, Note_on_c, 0, 65, 0
1, 7991, Note_on_c, 1, 62, 0
1, 7992, Note_on_c, 0, 69, 75
1, 7992, Note_on_c, 1, 65, 75
1, 8015, Note_on_c, 0, 69, 0
1, 8015, Note_on_c, 1, 65, 0
1, 8016, Note_on_c, 0, 67, 75
1, 8016, Note_on_c, 1, 64, 75
1, 8039, Note_on_c, 0, 67, 0
1, 8039, Note_on_c, 1, 64, 0
1, 8040, Note_on_c, 0, 65, 75
1, 8040, Note_on_c, 1, 62, 75
1, 8041, Note_on_c, 1, 55, 0
1, 8049, Note_on_c, 0, 71, 0
1, 8063, Note_on_c, 0, 65, 0
1, 8063, Note_on_c, 1, 62, 0
1, 8064, Note_on_c, 0, 70, 75
1, 8064, Note_on_c, 1, 64, 75
1, 8064, Note_on_c, 1, 60, 75
1, 8087, Note_on_c, 0, 70, 0
1, 8088, Note_on_c, 0, 69, 75
1, 8111, Note_on_c, 0, 69, 0
1, 8112, Note_on_c, 0, 70, 75
1, 8135, Note_on_c, 0, 70, 0
1, 8136, Note_on_c, 0, 72, 75
1, 8153, Note_on_c, 1, 64, 0
1, 8153, Note_on_c, 1, 60, 0
1, 8159, Note_on_c, 0, 72, 0
1, 8160, Note_on_c, 0, 70, 75
1, 8160, Note_on_c, 1, 65, 99
1, 8160, Note_on_c, 1, 61, 99
1, 8183, Note_on_c, 0, 70, 0
1, 8184, Note_on_c, 0, 69, 73
1, 8207, Note_on_c, 0, 69, 0
1, 8208, Note_on_c, 0, 70, 72
1, 8231, Note_on_c, 0, 70, 0
1, 8232, Note_on_c, 0, 72, 70
1, 8255, Note_on_c, 0, 72, 0
1, 8256, Note_on_c, 0, 70, 69
1, 8279, Note_on_c, 0, 70, 0
1, 8280, Note_on_c, 0, 69, 68
1, 8303, Note_on_c, 0, 69, 0
1, 8304, Note_on_c, 0, 70, 66
1, 8327, Note_on_c, 0, 70, 0
1, 8328, Note_on_c, 0, 72, 65
1, 8337, Note_on_c, 1, 65, 0
1, 8337, Note_on_c, 1, 61, 0
1, 8351, Note_on_c, 0, 72, 0
1, 8352, Note_on_c, 0, 70, 64
1, 8352, Note_on_c, 1, 65, 75
1, 8352, Note_on_c, 1, 62, 75
1, 8375, Note_on_c, 0, 70, 0
1, 8376, Note_on_c, 0, 69, 64
1, 8399, Note_on_c, 0, 69, 0
1, 8400, Note_on_c, 0, 70, 64
1, 8423, Note_on_c, 0, 70, 0
1, 8424, Note_on_c, 0, 72, 64
1, 8441, Note_on_c, 1, 65, 0
1, 8441, Note_on_c, 1, 62, 0
1, 8447, Note_on_c, 0, 72, 0
1, 8448, Note_on_c, 0, 70, 64
1, 8448, Note_on_c, 1, 66, 99
1, 8448, Note_on_c, 1, 63, 99
1, 8471, Note_on_c, 0, 70, 0
1, 8472, Note_on_c, 0, 69, 64
1, 8495, Note_on_c, 0, 69, 0
1, 8496, Note_on_c, 0, 70, 64
1, 8519, Note_on_c, 0, 70, 0
1, 8520, Note_on_c, 0, 72, 64
1, 8543, Note_on_c, 0, 72, 0
1, 8544, Note_on_c, 0, 70, 64
1, 8567, Note_on_c, 0, 70, 0
1, 8568, Note_on_c, 0, 69, 64
1, 8591, Note_on_c, 0, 69, 0
1, 8592, Note_on_c, 0, 70, 64
1, 8615, Note_on_c, 0, 70, 0
1, 8616, Note_on_c, 0, 72, 64
1, 8625, Note_on_c, 1, 66, 0
1, 8625, Note_on_c, 1, 63, 0
1, 8639, Note_on_c, 0, 72, 0
1, 8640, Note_on_c, 0, 70, 64
1, 8640, Note_on_c, 1, 67, 75
1, 8640, Note_on_c, 1, 64, 75
1, 8652, Note_on_c, 0, 70, 0
1, 8652, Note_on_c, 0, 69, 64
1, 8664, Note_on_c, 0, 69, 0
1, 8664, Note_on_c, 0, 70, 64
1, 8676, Note_on_c, 0, 70, 0
1, 8676, Note_on_c, 0, 72, 64
1, 8688, Note_on_c, 0, 72, 0
1, 8688, Note_on_c, 0, 70, 64
1, 8700, Note_on_c, 0, 70, 0
1, 8700, Note_on_c, 0, 69, 64
1, 8712, Note_on_c, 0, 69, 0
1, 8712, Note_on_c, 0, 70, 65
1, 8724, Note_on_c, 0, 70, 0
1, 8724, Note_on_c, 0, 72, 66
1, 8736, Note_on_c, 0, 72, 0
1, 8736, Note_on_c, 0, 70, 67
1, 8748, Note_on_c, 0, 70, 0
1, 8748, Note_on_c, 0, 74, 68
1, 8760, Note_on_c, 0, 74, 0
1, 8760, Note_on_c, 0, 72, 68
1, 8772, Note_on_c, 0, 72, 0
1, 8772, Note_on_c, 0, 77, 69
1, 8784, Note_on_c, 0, 77, 0
1, 8784, Note_on_c, 0, 76, 70
1, 8796, Note_on_c, 0, 76, 0
1, 8796, Note_on_c, 0, 79, 71
1, 8808, Note_on_c, 0, 79, 0
1, 8808, Note_on_c, 0, 77, 72
1, 8820, Note_on_c, 0, 77, 0
1, 8820, Note_on_c, 0, 81, 72
1, 8832, Note_on_c, 0, 81, 0
1, 8832, Note_on_c, 0, 79, 73
1, 8844, Note_on_c, 0, 79, 0
1, 8844, Note_on_c, 0, 82, 74
1, 8856, Note_on_c, 0, 82, 0
1, 8856, Note_on_c, 0, 86, 75
1, 8868, Note_on_c, 0, 86, 0
1, 8868, Note_on_c, 0, 84, 76
1, 8880, Note_on_c, 0, 84, 0
1, 8880, Note_on_c, 0, 82, 76
1, 8892, Note_on_c, 0, 82, 0
1, 8892, Note_on_c, 0, 81, 77
1, 8904, Note_on_c, 0, 81, 0
1, 8904, Note_on_c, 0, 79, 78
1, 8905, Note_on_c, 1, 67, 0
1, 8905, Note_on_c, 1, 64, 0
1, 8916, Note_on_c, 0, 79, 0
1, 8916, Note_on_c, 0, 77, 79
1, 8928, Note_on_c, 0, 77, 0
1, 8928, Note_on_c, 0, 76, 80
1, 8940, Note_on_c, 0, 76, 0
1, 8940, Note_on_c, 0, 84, 80
1, 8952, Note_on_c, 0, 84, 0
1, 8952, Note_on_c, 0, 82, 80
1, 8964, Note_on_c, 0, 82, 0
1, 8964, Note_on_c, 0, 79, 80
1, 8976, Note_on_c, 0, 79, 0
1, 8976, Note_on_c, 0, 76, 80
1, 8988, Note_on_c, 0, 76, 0
1, 8988, Note_on_c, 0, 72, 80
1, 9000, Note_on_c, 0, 72, 0
1, 9000, Note_on_c, 0, 70, 80
1, 9012, Note_on_c, 0, 70, 0
1, 9012, Note_on_c, 0, 67, 80
1, 9024, Note_on_c, 0, 67, 0
1, 9024, Note_on_c, 0, 64, 80
1, 9036, Note_on_c, 0, 64, 0
1, 9036, Note_on_c, 0, 60, 80
1, 9048, Note_on_c, 0, 60, 0
1, 9048, Note_on_c, 0, 58, 80
1, 9060, Note_on_c, 0, 58, 0
1, 9060, Note_on_c, 0, 55, 80
1, 9072, Note_on_c, 0, 55, 0
1, 9072, Note_on_c, 1, 52, 75
1, 9084, Note_on_c, 1, 52, 0
1, 9084, Note_on_c, 1, 48, 75
1, 9096, Note_on_c, 1, 48, 0
1, 9096, Note_on_c, 1, 52, 75
1, 9108, Note_on_c, 1, 52, 0
1, 9108, Note_on_c, 1, 55, 75
1, 9120, Note_on_c, 1, 55, 0
1, 9120, Note_on_c, 1, 58, 75
1, 9129, Note_on_c, 0, 60, 80
1, 9132, Note_on_c, 1, 58, 0
1, 9138, Note_on_c, 0, 60, 0
1, 9138, Note_on_c, 0, 61, 79
1, 9147, Note_on_c, 0, 61, 0
1, 9147, Note_on_c, 0, 62, 78
1, 9156, Note_on_c, 0, 62, 0
1, 9156, Note_on_c, 0, 63, 77
1, 9165, Note_on_c, 0, 63, 0
1, 9165, Note_on_c, 0, 64, 77
1, 9174, Note_on_c, 0, 64, 0
1, 9174, Note_on_c, 0, 65, 76
1, 9183, Note_on_c, 0, 65, 0
1, 9183, Note_on_c, 0, 66, 75
1, 9192, Note_on_c, 0, 66, 0
1, 9192, Note_on_c, 0, 67, 75
1, 9200, Note_on_c, 0, 67, 0
1, 9200, Note_on_c, 0, 68, 74
1, 9208, Note_on_c, 0, 68, 0
1, 9208, Note_on_c, 0, 69, 73
1, 9216, Note_on_c, 0, 69, 0
1, 9216, Note_on_c, 0, 70, 73
1, 9236, Note_on_c, 0, 70, 0
1, 9264, Note_on_c, 0, 67, 64
1, 9284, Note_on_c, 0, 67, 0
1, 9312, Note_on_c, 0, 64, 64
1, 9312, Note_on_c, 1, 60, 64
1, 9312, Note_on_c, 1, 58, 64
1, 9312, Note_on_c, 1, 55, 64
1, 9499, Note_on_c, 0, 64, 0
1, 9499, Note_on_c, 1, 60, 0
1, 9499, Note_on_c, 1, 58, 0
1, 9499, Note_on_c, 1, 55, 0
1, 9504, Note_on_c, 0, 57, 104
1, 9504, Note_on_c, 1, 41, 80
1, 9510, Note_on_c, 0, 57, 0
1, 9510, Note_on_c, 0, 60, 104
1, 9510, Note_on_c, 1, 45, 80
1, 9516, Note_on_c, 0, 60, 0
1, 9516, Note_on_c, 0, 65, 104
1, 9516, Note_on_c, 1, 48, 80
1, 9522, Note_on_c, 1, 53, 80
1, 9597, Note_on_c, 1, 53, 0
1, 9597, Note_on_c, 1, 48, 0
1, 9597, Note_on_c, 1, 45, 0
1, 9597, Note_on_c, 1, 41, 0
1, 9600, Note_on_c, 1, 57, 75
1, 9600, Note_on_c, 1, 53, 75
1, 9612, Note_on_c, 0, 65, 0
1, 9612, Note_on_c, 0, 60, 80
1, 9624, Note_on_c, 0, 60, 0
1, 9624, Note_on_c, 0, 65, 80
1, 9636, Note_on_c, 0, 65, 0
1, 9636, Note_on_c, 0, 69, 80
1, 9648, Note_on_c, 0, 69, 0
1, 9648, Note_on_c, 0, 72, 80
1, 9682, Note_on_c, 0, 72, 0
1, 9684, Note_on_c, 0, 69, 80
1, 9694, Note_on_c, 1, 57, 0
1, 9694, Note_on_c, 1, 53, 0
1, 9696, Note_on_c, 0, 69, 0
1, 9696, Note_on_c, 0, 72, 80
1, 9696, Note_on_c, 1, 58, 80
1, 9696, Note_on_c, 1, 53, 80
1, 9696, Note_on_c, 1, 64, 75
1, 9719, Note_on_c, 0, 72, 0
1, 9720, Note_on_c, 0, 70, 79
1, 9743, Note_on_c, 0, 70, 0
1, 9743, Note_on_c, 1, 64, 0
1, 9744, Note_on_c, 0, 67, 78
1, 9767, Note_on_c, 0, 67, 0
1, 9768, Note_on_c, 0, 64, 77
1, 9790, Note_on_c, 1, 58, 0
1, 9790, Note_on_c, 1, 53, 0
1, 9791, Note_on_c, 0, 64, 0
1, 9792, Note_on_c, 0, 65, 76
1, 9792, Note_on_c, 1, 60, 76
1, 9792, Note_on_c, 1, 57, 76
1, 9792, Note_on_c, 1, 53, 76
1, 9815, Note_on_c, 0, 65, 0
1, 9816, Note_on_c, 0, 67, 75
1, 9824, Note_on_c, 0, 67, 0
1, 9824, Note_on_c, 0, 65, 74
1, 9832, Note_on_c, 0, 65, 0
1, 9832, Note_on_c, 0, 64, 74
1, 9840, Note_on_c, 0, 64, 0
1, 9840, Note_on_c, 0, 65, 74
1, 9874, Note_on_c, 0, 65, 0
1, 9876, Note_on_c, 0, 69, 72
1, 9881, Note_on_c, 1, 60, 0
1, 9881, Note_on_c, 1, 57, 0
1, 9881, Note_on_c, 1, 53, 0
1, 9888, Note_on_c, 0, 69, 0
1, 9888, Note_on_c, 0, 60, 72
1, 9933, Note_on_c, 0, 60, 0
1, 9984, Note_on_c, 0, 53, 70
1, 9990, Note_on_c, 0, 53, 0
1, 9990, Note_on_c, 0, 55, 70
1, 9996, Note_on_c, 0, 55, 0
1, 9996, Note_on_c, 0, 57, 70
1, 10002, Note_on_c, 0, 57, 0
1, 10002, Note_on_c, 0, 58, 70
1, 10008, Note_on_c, 0, 58, 0
1, 10008, Note_on_c, 0, 60, 70
1, 10014, Note_on_c, 0, 60, 0
1, 10014, Note_on_c, 0, 62, 70
1, 10020, Note_on_c, 0, 62, 0
1, 10020, Note_on_c, 0, 64, 70
1, 10025, Note_on_c, 0, 64, 0
1, 10025, Note_on_c, 0, 65, 70
1, 10030, Note_on_c, 0, 65, 0
1, 10030, Note_on_c, 0, 67, 70
1, 10035, Note_on_c, 0, 67, 0
1, 10035, Note_on_c, 0, 69, 70
1, 10040, Note_on_c, 0, 69, 0
1, 10040, Note_on_c, 0, 70, 70
1, 10045, Note_on_c, 0, 70, 0
1, 10045, Note_on_c, 0, 72, 70
1, 10050, Note_on_c, 0, 72, 0
1, 10050, Note_on_c, 0, 74, 70
1, 10055, Note_on_c, 0, 74, 0
1, 10055, Note_on_c, 0, 76, 70
1, 10060, Note_on_c, 0, 76, 0
1, 10060, Note_on_c, 0, 77, 70
1, 10065, Note_on_c, 0, 77, 0
1, 10065, Note_on_c, 0, 76, 70
1, 10070, Note_on_c, 0, 76, 0
1, 10070, Note_on_c, 0, 77, 70
1, 10075, Note_on_c, 0, 77, 0
1, 10075, Note_on_c, 0, 79, 70
1, 10080, Note_on_c, 0, 79, 0
1, 10080, Note_on_c, 0, 77, 70
1, 10080, Note_on_c, 1, 62, 75
1, 10080, Note_on_c, 1, 58, 75
1, 10127, Note_on_c, 1, 62, 0
1, 10127, Note_on_c, 1, 58, 0
1, 10176, Note_on_c, 1, 74, 70
1, 10176, Note_on_c, 1, 70, 70
1, 10188, Note_on_c, 0, 77, 0
1, 10188, Note_on_c, 0, 76, 80
1, 10200, Note_on_c, 0, 76, 0
1, 10200, Note_on_c, 0, 79, 80
1, 10212, Note_on_c, 0, 79, 0
1, 10212, Note_on_c, 0, 77, 80
1, 10223, Note_on_c, 1, 74, 0
1, 10223, Note_on_c, 1, 70, 0
1, 10224, Note_on_c, 0, 77, 0
1, 10224, Note_on_c, 0, 76, 80
1, 10236, Note_on_c, 0, 76, 0
1, 10236, Note_on_c, 0, 74, 80
1, 10248, Note_on_c, 0, 74, 0
1, 10248, Note_on_c, 0, 79, 80
1, 10260, Note_on_c, 0, 79, 0
1, 10260, Note_on_c, 0, 77, 80
1, 10272, Note_on_c, 0, 77, 0
1, 10272, Note_on_c, 0, 76, 80
1, 10284, Note_on_c, 0, 76, 0
1, 10284, Note_on_c, 0, 74, 80
1, 10296, Note_on_c, 0, 74, 0
1, 10296, Note_on_c, 0, 79, 80
1, 10308, Note_on_c, 0, 79, 0
1, 10308, Note_on_c, 0, 77, 80
1, 10320, Note_on_c, 0, 77, 0
1, 10320, Note_on_c, 0, 76, 80
1, 10332, Note_on_c, 0, 76, 0
1, 10332, Note_on_c, 0, 74, 80
1, 10344, Note_on_c, 0, 74, 0
1, 10344, Note_on_c, 0, 72, 80
1, 10356, Note_on_c, 0, 72, 0
1, 10356, Note_on_c, 0, 70, 80
1, 10368, Note_on_c, 0, 70, 0
1, 10368, Note_on_c, 0, 69, 80
1, 10368, Note_on_c, 1, 69, 75
1, 10368, Note_on_c, 1, 65, 75
1, 10368, Note_on_c, 1, 60, 75
1, 10380, Note_on_c, 0, 69, 0
1, 10380, Note_on_c, 0, 81, 80
1, 10392, Note_on_c, 0, 81, 0
1, 10392, Note_on_c, 0, 70, 80
1, 10404, Note_on_c, 0, 70, 0
1, 10404, Note_on_c, 0, 82, 80
1, 10416, Note_on_c, 0, 82, 0
1, 10416, Note_on_c, 0, 71, 80
1, 10428, Note_on_c, 0, 71, 0
1, 10428, Note_on_c, 0, 83, 80
1, 10440, Note_on_c, 0, 83, 0
1, 10440, Note_on_c, 0, 72, 80
1, 10452, Note_on_c, 0, 72, 0
1, 10452, Note_on_c, 0, 84, 80
1, 10464, Note_on_c, 0, 84, 0
1, 10464, Note_on_c, 1, 69, 0
1, 10464, Note_on_c, 1, 65, 0
1, 10464, Note_on_c, 1, 67, 75
1, 10464, Note_on_c, 1, 64, 75
1, 10501, Note_on_c, 1, 60, 0
1, 10509, Note_on_c, 1, 67, 0
1, 10509, Note_on_c, 1, 64, 0
1, 10536, Note_on_c, 1, 48, 80
1, 10548, Note_on_c, 1, 48, 0
1, 10548, Note_on_c, 1, 36, 80
1, 10560, Note_on_c, 1, 36, 0
1, 10560, Note_on_c, 1, 47, 80
1, 10572, Note_on_c, 1, 47, 0
1, 10572, Note_on_c, 1, 35, 80
1, 10584, Note_on_c, 1, 35, 0
1, 10584, Note_on_c, 1, 46, 80
1, 10596, Note_on_c, 1, 46, 0
1, 10596, Note_on_c, 1, 34, 80
1, 10608, Note_on_c, 1, 34, 0
1, 10608, Note_on_c, 1, 45, 80
1, 10620, Note_on_c, 1, 45, 0
1, 10620, Note_on_c, 1, 33, 80
1, 10632, Note_on_c, 1, 33, 0
1, 10632, Note_on_c, 1, 43, 80
1, 10644, Note_on_c, 1, 43, 0
1, 10644, Note_on_c, 1, 31, 80
1, 10656, Note_on_c, 0, 57, 104
1, 10656, Note_on_c, 1, 41, 80
1, 10656, Note_on_c, 1, 29, 80
1, 10656, Note_on_c, 1, 31, 0
1, 10662, Note_on_c, 0, 57, 0
1, 10662, Note_on_c, 0, 60, 104
1, 10668, Note_on_c, 0, 60, 0
1, 10668, Note_on_c, 0, 65, 104
1, 10745, Note_on_c, 1, 41, 0
1, 10745, Note_on_c, 1, 29, 0
1, 10752, Note_on_c, 1, 57, 80
1, 10752, Note_on_c, 1, 53, 80
1, 10764, Note_on_c, 0, 65, 0
1, 10764, Note_on_c, 0, 60, 80
1, 10776, Note_on_c, 0, 60, 0
1, 10776, Note_on_c, 0, 65, 80
1, 10788, Note_on_c, 0, 65, 0
1, 10788, Note_on_c, 0, 69, 80
1, 10800, Note_on_c, 0, 69, 0
1, 10800, Note_on_c, 0, 72, 80
1, 10812, Note_on_c, 0, 72, 0
1, 10812, Note_on_c, 0, 69, 80
1, 10824, Note_on_c, 0, 69, 0
1, 10824, Note_on_c, 0, 77, 80
1, 10836, Note_on_c, 0, 77, 0
1, 10836, Note_on_c, 0, 69, 80
1, 10846, Note_on_c, 1, 57, 0
1, 10846, Note_on_c, 1, 53, 0
1, 10848, Note_on_c, 0, 69, 0
1, 10848, Note_on_c, 0, 72, 80
1, 10848, Note_on_c, 1, 58, 80
1, 10848, Note_on_c, 1, 53, 80
1, 10848, Note_on_c, 1, 64, 80
1, 10860, Note_on_c, 0, 72, 0
1, 10860, Note_on_c, 0, 71, 79
1, 10872, Note_on_c, 0, 71, 0
1, 10872, Note_on_c, 0, 74, 78
1, 10884, Note_on_c, 0, 74, 0
1, 10884, Note_on_c, 0, 72, 77
1, 10895, Note_on_c, 1, 64, 0
1, 10896, Note_on_c, 0, 72, 0
1, 10896, Note_on_c, 0, 70, 76
1, 10908, Note_on_c, 0, 70, 0
1, 10908, Note_on_c, 0, 69, 75
1, 10920, Note_on_c, 0, 69, 0
1, 10920, Note_on_c, 0, 70, 74
1, 10932, Note_on_c, 0, 70, 0
1, 10932, Note_on_c, 0, 67, 73
1, 10942, Note_on_c, 1, 58, 0
1, 10942, Note_on_c, 1, 53, 0
1, 10944, Note_on_c, 0, 67, 0
1, 10944, Note_on_c, 0, 65, 72
1, 10944, Note_on_c, 1, 60, 75
1, 10944, Note_on_c, 1, 57, 75
1, 10944, Note_on_c, 1, 53, 75
1, 10967, Note_on_c, 0, 65, 0
1, 10968, Note_on_c, 0, 67, 70
1, 10976, Note_on_c, 0, 67, 0
1, 10976, Note_on_c, 0, 65, 70
1, 10984, Note_on_c, 0, 65, 0
1, 10984, Note_on_c, 0, 64, 70
1, 10992, Note_on_c, 0, 64, 0
1, 10992, Note_on_c, 0, 65, 70
1, 11026, Note_on_c, 0, 65, 0
1, 11028, Note_on_c, 0, 69, 70
1, 11033, Note_on_c, 1, 60, 0
1, 11033, Note_on_c, 1, 57, 0
1, 11033, Note_on_c, 1, 53, 0
1, 11040, Note_on_c, 0, 69, 0
1, 11040, Note_on_c, 0, 61, 94
1, 11040, Note_on_c, 1, 45, 94
1, 11040, Note_on_c, 1, 33, 94
1, 11107, Note_on_c, 0, 61, 0
1, 11112, Note_on_c, 0, 61, 70
1, 11124, Note_on_c, 0, 61, 0
1, 11124, Note_on_c, 0, 61, 70
1, 11136, Note_on_c, 0, 61, 0
1, 11136, Note_on_c, 0, 61, 70
1, 11159, Note_on_c, 0, 61, 0
1, 11160, Note_on_c, 0, 61, 70
1, 11172, Note_on_c, 0, 61, 0
1, 11172, Note_on_c, 0, 61, 70
1, 11184, Note_on_c, 0, 61, 0
1, 11184, Note_on_c, 0, 61, 70
1, 11207, Note_on_c, 0, 61, 0
1, 11208, Note_on_c, 0, 61, 70
1, 11231, Note_on_c, 0, 61, 0
1, 11232, Note_on_c, 0, 62, 70
1, 11232, Note_on_c, 1, 45, 0
1, 11232, Note_on_c, 1, 33, 0
1, 11232, Note_on_c, 1, 46, 70
1, 11232, Note_on_c, 1, 34, 70
1, 11249, Note_on_c, 0, 62, 0
1, 11256, Note_on_c, 0, 64, 70
1, 11262, Note_on_c, 0, 64, 0
1, 11262, Note_on_c, 0, 68, 70
1, 11268, Note_on_c, 0, 68, 0
1, 11268, Note_on_c, 0, 69, 70
1, 11274, Note_on_c, 0, 69, 0
1, 11274, Note_on_c, 0, 70, 70
1, 11280, Note_on_c, 0, 70, 0
1, 11280, Note_on_c, 0, 72, 70
1, 11286, Note_on_c, 0, 72, 0
1, 11286, Note_on_c, 0, 74, 70
1, 11292, Note_on_c, 0, 74, 0
1, 11292, Note_on_c, 0, 76, 70
1, 11298, Note_on_c, 0, 76, 0
1, 11298, Note_on_c, 0, 78, 70
1, 11304, Note_on_c, 0, 78, 0
1, 11304, Note_on_c, 0, 80, 70
1, 11310, Note_on_c, 0, 80, 0
1, 11310, Note_on_c, 0, 81, 70
1, 11316, Note_on_c, 0, 81, 0
1, 11316, Note_on_c, 0, 82, 70
1, 11321, Note_on_c, 1, 46, 0
1, 11321, Note_on_c, 1, 34, 0
1, 11322, Note_on_c, 0, 82, 0
1, 11322, Note_on_c, 0, 84, 70
1, 11328, Note_on_c, 0, 84, 0
1, 11328, Note_on_c, 0, 86, 70
1, 11373, Note_on_c, 0, 86, 0
1, 11424, Note_on_c, 1, 58, 70
1, 11424, Note_on_c, 1, 48, 70
1, 11448, Note_on_c, 0, 72, 80
1, 11460, Note_on_c, 0, 72, 0
1, 11460, Note_on_c, 0, 70, 79
1, 11465, Note_on_c, 0, 70, 0
1, 11472, Note_on_c, 0, 69, 102
1, 11484, Note_on_c, 0, 69, 0
1, 11484, Note_on_c, 0, 67, 77
1, 11489, Note_on_c, 0, 67, 0
1, 11496, Note_on_c, 0, 65, 100
1, 11508, Note_on_c, 0, 65, 0
1, 11508, Note_on_c, 0, 64, 75
1, 11513, Note_on_c, 0, 64, 0
1, 11513, Note_on_c, 1, 58, 0
1, 11513, Note_on_c, 1, 48, 0
1, 11520, Note_on_c, 0, 67, 74
1, 11520, Note_on_c, 1, 58, 70
1, 11520, Note_on_c, 1, 53, 75
1, 11616, Note_on_c, 0, 67, 0
1, 11616, Note_on_c, 0, 65, 67
1, 11616, Note_on_c, 1, 58, 0
1, 11616, Note_on_c, 1, 57, 66
1, 11653, Note_on_c, 1, 53, 0
1, 11661, Note_on_c, 0, 65, 0
1, 11661, Note_on_c, 1, 57, 0
1, 11688, Note_on_c, 0, 60, 64
1, 11698, Note_on_c, 0, 60, 0
1, 11712, Note_on_c, 0, 62, 64
1, 11722, Note_on_c, 0, 62, 0
1, 11736, Note_on_c, 0, 64, 64
1, 11746, Note_on_c, 0, 64, 0
1, 11760, Note_on_c, 0, 65, 64
1, 11770, Note_on_c, 0, 65, 0
1, 11784, Note_on_c, 0, 67, 64
1, 11794, Note_on_c, 0, 67, 0
1, 11808, Note_on_c, 0, 68, 64
1, 11832, Note_on_c, 1, 41, 64
1, 11855, Note_on_c, 1, 41, 0
1, 11856, Note_on_c, 1, 43, 64
1, 11879, Note_on_c, 1, 43, 0
1, 11880, Note_on_c, 1, 44, 64
1, 11897, Note_on_c, 0, 68, 0
1, 11903, Note_on_c, 1, 44, 0
1, 11904, Note_on_c, 0, 67, 64
1, 11904, Note_on_c, 1, 46, 64
1, 11927, Note_on_c, 1, 46, 0
1, 11928, Note_on_c, 1, 48, 64
1, 11951, Note_on_c, 1, 48, 0
1, 11952, Note_on_c, 0, 67, 0
1, 11952, Note_on_c, 0, 65, 64
1, 11952, Note_on_c, 1, 49, 64
1, 11975, Note_on_c, 1, 49, 0
1, 11976, Note_on_c, 1, 47, 64
1, 11997, Note_on_c, 0, 65, 0
1, 11999, Note_on_c, 1, 47, 0
1, 12000, Note_on_c, 0, 64, 64
1, 12000, Note_on_c, 1, 48, 64
1, 12023, Note_on_c, 1, 48, 0
1, 12024, Note_on_c, 1, 61, 64
1, 12047, Note_on_c, 1, 61, 0
1, 12048, Note_on_c, 0, 64, 0
1, 12048, Note_on_c, 0, 67, 64
1, 12048, Note_on_c, 1, 60, 64
1, 12071, Note_on_c, 1, 60, 0
1, 12072, Note_on_c, 1, 58, 64
1, 12093, Note_on_c, 0, 67, 0
1, 12095, Note_on_c, 1, 58, 0
1, 12096, Note_on_c, 0, 72, 70
1, 12096, Note_on_c, 0, 68, 70
1, 12120, Note_on_c, 1, 41, 70
1, 12143, Note_on_c, 1, 41, 0
1, 12144, Note_on_c, 1, 43, 70
1, 12167, Note_on_c, 1, 43, 0
1, 12168, Note_on_c, 1, 44, 70
1, 12185, Note_on_c, 0, 72, 0
1, 12185, Note_on_c, 0, 68, 0
1, 12191, Note_on_c, 1, 44, 0
1, 12192, Note_on_c, 0, 70, 70
1, 12192, Note_on_c, 0, 67, 70
1, 12192, Note_on_c, 1, 46, 70
1, 12215, Note_on_c, 1, 46, 0
1, 12216, Note_on_c, 1, 48, 70
1, 12239, Note_on_c, 1, 48, 0
1, 12240, Note_on_c, 0, 70, 0
1, 12240, Note_on_c, 0, 67, 0
1, 12240, Note_on_c, 0, 68, 70
1, 12240, Note_on_c, 0, 65, 70
1, 12240, Note_on_c, 1, 49, 70
1, 12263, Note_on_c, 1, 49, 0
1, 12264, Note_on_c, 1, 47, 70
1, 12285, Note_on_c, 0, 68, 0
1, 12285, Note_on_c, 0, 65, 0
1, 12287, Note_on_c, 1, 47, 0
1, 12288, Note_on_c, 0, 67, 70
1, 12288, Note_on_c, 0, 64, 70
1, 12288, Note_on_c, 1, 48, 70
1, 12311, Note_on_c, 1, 48, 0
1, 12312, Note_on_c, 1, 61, 71
1, 12335, Note_on_c, 1, 61, 0
1, 12336, Note_on_c, 0, 67, 0
1, 12336, Note_on_c, 0, 64, 0
1, 12336, Note_on_c, 0, 76, 72
1, 12336, Note_on_c, 0, 72, 72
1, 12336, Note_on_c, 1, 60, 72
1, 12359, Note_on_c, 1, 60, 0
1, 12360, Note_on_c, 1, 58, 73
1, 12381, Note_on_c, 0, 76, 0
1, 12381, Note_on_c, 0, 72, 0
1, 12383, Note_on_c, 1, 58, 0
1, 12384, Note_on_c, 0, 77, 75
1, 12384, Note_on_c, 1, 60, 75
1, 12384, Note_on_c, 1, 56, 75
1, 12407, Note_on_c, 0, 77, 0
1, 12408, Note_on_c, 0, 84, 75
1, 12431, Note_on_c, 0, 84, 0
1, 12432, Note_on_c, 0, 82, 75
1, 12455, Note_on_c, 0, 82, 0
1, 12456, Note_on_c, 0, 80, 75
1, 12473, Note_on_c, 1, 60, 0
1, 12473, Note_on_c, 1, 56, 0
1, 12479, Note_on_c, 0, 80, 0
1, 12480, Note_on_c, 0, 79, 75
1, 12480, Note_on_c, 1, 61, 75
1, 12480, Note_on_c, 1, 58, 75
1, 12503, Note_on_c, 0, 79, 0
1, 12504, Note_on_c, 0, 85, 75
1, 12527, Note_on_c, 0, 85, 0
1, 12528, Note_on_c, 0, 84, 75
1, 12551, Note_on_c, 0, 84, 0
1, 12552, Note_on_c, 0, 82, 75
1, 12575, Note_on_c, 0, 82, 0
1, 12576, Note_on_c, 0, 80, 75
1, 12599, Note_on_c, 0, 80, 0
1, 12600, Note_on_c, 0, 79, 75
1, 12613, Note_on_c, 1, 61, 0
1, 12613, Note_on_c, 1, 58, 0
1, 12623, Note_on_c, 0, 79, 0
1, 12624, Note_on_c, 0, 80, 75
1, 12624, Note_on_c, 1, 62, 75
1, 12624, Note_on_c, 1, 59, 75
1, 12647, Note_on_c, 0, 80, 0
1, 12648, Note_on_c, 0, 77, 75
1, 12669, Note_on_c, 1, 62, 0
1, 12669, Note_on_c, 1, 59, 0
1, 12671, Note_on_c, 0, 77, 0
1, 12672, Note_on_c, 0, 77, 75
1, 12672, Note_on_c, 1, 60, 75
1, 12696, Note_on_c, 0, 73, 75
1, 12719, Note_on_c, 0, 73, 0
1, 12720, Note_on_c, 0, 72, 75
1, 12743, Note_on_c, 0, 72, 0
1, 12744, Note_on_c, 0, 71, 75
1, 12767, Note_on_c, 0, 71, 0
1, 12768, Note_on_c, 0, 77, 0
1, 12768, Note_on_c, 0, 76, 75
1, 12768, Note_on_c, 0, 72, 75
1, 12791, Note_on_c, 0, 72, 0
1, 12792, Note_on_c, 0, 70, 75
1, 12815, Note_on_c, 0, 70, 0
1, 12816, Note_on_c, 0, 68, 75
1, 12839, Note_on_c, 0, 68, 0
1, 12840, Note_on_c, 0, 67, 75
1, 12857, Note_on_c, 0, 76, 0
1, 12863, Note_on_c, 0, 67, 0
1, 12864, Note_on_c, 0, 77, 75
1, 12864, Note_on_c, 0, 68, 75
1, 12887, Note_on_c, 0, 77, 0
1, 12887, Note_on_c, 0, 68, 0
1, 12888, Note_on_c, 0, 72, 75
1, 12888, Note_on_c, 0, 68, 75
1, 12911, Note_on_c, 0, 72, 0
1, 12911, Note_on_c, 0, 68, 0
1, 12912, Note_on_c, 0, 70, 75
1, 12912, Note_on_c, 0, 67, 75
1, 12935, Note_on_c, 0, 70, 0
1, 12935, Note_on_c, 0, 67, 0
1, 12936, Note_on_c, 0, 68, 75
1, 12936, Note_on_c, 0, 65, 75
1, 12959, Note_on_c, 0, 68, 0
1, 12959, Note_on_c, 0, 65, 0
1, 12960, Note_on_c, 0, 68, 91
1, 12960, Note_on_c, 0, 65, 91
1, 12983, Note_on_c, 1, 60, 0
1, 12984, Note_on_c, 1, 61, 75
1, 13007, Note_on_c, 1, 61, 0
1, 13008, Note_on_c, 1, 60, 75
1, 13031, Note_on_c, 1, 60, 0
1, 13032, Note_on_c, 1, 59, 75
1, 13055, Note_on_c, 1, 59, 0
1, 13056, Note_on_c, 0, 68, 0
1, 13056, Note_on_c, 0, 65, 0
1, 13056, Note_on_c, 0, 67, 75
1, 13056, Note_on_c, 0, 64, 75
1, 13056, Note_on_c, 1, 60, 75
1, 13079, Note_on_c, 1, 60, 0
1, 13080, Note_on_c, 1, 61, 73
1, 13103, Note_on_c, 1, 61, 0
1, 13104, Note_on_c, 1, 60, 71
1, 13127, Note_on_c, 1, 60, 0
1, 13128, Note_on_c, 1, 59, 69
1, 13145, Note_on_c, 0, 67, 0
1, 13145, Note_on_c, 0, 64, 0
1, 13151, Note_on_c, 1, 59, 0
1, 13152, Note_on_c, 1, 60, 67
1, 13175, Note_on_c, 1, 60, 0
1, 13176, Note_on_c, 1, 61, 65
1, 13199, Note_on_c, 1, 61, 0
1, 13200, Note_on_c, 0, 56, 70
1, 13200, Note_on_c, 0, 53, 70
1, 13200, Note_on_c, 1, 60, 64
1, 13220, Note_on_c, 0, 56, 0
1, 13220, Note_on_c, 0, 53, 0
1, 13223, Note_on_c, 1, 60, 0
1, 13224, Note_on_c, 1, 59, 64
1, 13247, Note_on_c, 1, 59, 0
1, 13248, Note_on_c, 0, 56, 86
1, 13248, Note_on_c, 0, 53, 86
1, 13248, Note_on_c, 1, 60, 64
1, 13271, Note_on_c, 1, 60, 0
1, 13272, Note_on_c, 1, 61, 64
1, 13295, Note_on_c, 1, 61, 0
1, 13296, Note_on_c, 1, 60, 64
1, 13319, Note_on_c, 1, 60, 0
1, 13320, Note_on_c, 1, 59, 64
1, 13343, Note_on_c, 1, 59, 0
1, 13344, Note_on_c, 0, 56, 0
1, 13344, Note_on_c, 0, 53, 0
1, 13344, Note_on_c, 0, 55, 70
1, 13344, Note_on_c, 0, 52, 70
1, 13344, Note_on_c, 1, 60, 64
1, 13367, Note_on_c, 1, 60, 0
1, 13368, Note_on_c, 1, 61, 64
1, 13391, Note_on_c, 1, 61, 0
1, 13392, Note_on_c, 1, 60, 64
1, 13415, Note_on_c, 1, 60, 0
1, 13416, Note_on_c, 1, 59, 64
1, 13433, Note_on_c, 0, 55, 0
1, 13433, Note_on_c, 0, 52, 0
1, 13439, Note_on_c, 1, 59, 0
1, 13440, Note_on_c, 1, 60, 64
1, 13463, Note_on_c, 1, 60, 0
1, 13464, Note_on_c, 0, 60, 70
1, 13487, Note_on_c, 0, 60, 0
1, 13488, Note_on_c, 0, 64, 71
1, 13511, Note_on_c, 0, 64, 0
1, 13512, Note_on_c, 0, 67, 72
1, 13535, Note_on_c, 0, 67, 0
1, 13536, Note_on_c, 0, 70, 74
1, 13560, Note_on_c, 1, 48, 80
1, 13583, Note_on_c, 1, 48, 0
1, 13584, Note_on_c, 1, 43, 80
1, 13607, Note_on_c, 1, 43, 0
1, 13608, Note_on_c, 1, 40, 80
1, 13631, Note_on_c, 1, 40, 0
1, 13632, Note_on_c, 1, 36, 80
1, 13644, Note_on_c, 0, 70, 0
1, 13644, Note_on_c, 0, 60, 80
1, 13656, Note_on_c, 0, 60, 0
1, 13656, Note_on_c, 0, 64, 80
1, 13668, Note_on_c, 0, 64, 0
1, 13668, Note_on_c, 0, 67, 80
1, 13677, Note_on_c, 1, 36, 0
1, 13680, Note_on_c, 0, 67, 0
1, 13680, Note_on_c, 0, 70, 80
1, 13692, Note_on_c, 0, 70, 0
1, 13692, Note_on_c, 0, 64, 80
1, 13704, Note_on_c, 0, 64, 0
1, 13704, Note_on_c, 0, 67, 80
1, 13716, Note_on_c, 0, 67, 0
1, 13716, Note_on_c, 0, 70, 80
1, 13728, Note_on_c, 0, 70, 0
1, 13728, Note_on_c, 0, 74, 80
1, 13751, Note_on_c, 0, 74, 0
1, 13752, Note_on_c, 0, 70, 80
1, 13775, Note_on_c, 0, 70, 0
1, 13776, Note_on_c, 0, 69, 80
1, 13776, Note_on_c, 1, 64, 80
1, 13776, Note_on_c, 1, 58, 80
1, 13799, Note_on_c, 0, 69, 0
1, 13800, Note_on_c, 0, 67, 80
1, 13821, Note_on_c, 1, 64, 0
1, 13821, Note_on_c, 1, 58, 0
1, 13823, Note_on_c, 0, 67, 0
1, 13824, Note_on_c, 0, 74, 80
1, 13824, Note_on_c, 1, 65, 80
1, 13824, Note_on_c, 1, 57, 80
1, 13836, Note_on_c, 0, 74, 0
1, 13836, Note_on_c, 0, 72, 80
1, 13848, Note_on_c, 0, 72, 0
1, 13848, Note_on_c, 0, 76, 80
1, 13860, Note_on_c, 0, 76, 0
1, 13860, Note_on_c, 0, 74, 80
1, 13872, Note_on_c, 0, 74, 0
1, 13872, Note_on_c, 0, 77, 80
1, 13884, Note_on_c, 0, 77, 0
1, 13884, Note_on_c, 0, 76, 80
1, 13896, Note_on_c, 0, 76, 0
1, 13896, Note_on_c, 0, 79, 80
1, 13908, Note_on_c, 0, 79, 0
1, 13908, Note_on_c, 0, 77, 80
1, 13913, Note_on_c, 1, 65, 0
1, 13913, Note_on_c, 1, 57, 0
1, 13920, Note_on_c, 0, 77, 0
1, 13920, Note_on_c, 0, 72, 80
1, 13965, Note_on_c, 0, 72, 0
1, 13992, Note_on_c, 1, 60, 104
1, 14015, Note_on_c, 1, 60, 0
1, 14016, Note_on_c, 1, 59, 80
1, 14028, Note_on_c, 1, 59, 0
1, 14028, Note_on_c, 1, 60, 79
1, 14040, Note_on_c, 1, 60, 0
1, 14040, Note_on_c, 1, 62, 78
1, 14052, Note_on_c, 1, 62, 0
1, 14052, Note_on_c, 1, 60, 78
1, 14064, Note_on_c, 1, 60, 0
1, 14064, Note_on_c, 1, 58, 77
1, 14076, Note_on_c, 1, 58, 0
1, 14076, Note_on_c, 1, 57, 77
1, 14088, Note_on_c, 1, 57, 0
1, 14088, Note_on_c, 1, 55, 76
1, 14100, Note_on_c, 1, 55, 0
1, 14100, Note_on_c, 1, 53, 76
1, 14112, Note_on_c, 1, 53, 0
1, 14112, Note_on_c, 1, 52, 75
1, 14124, Note_on_c, 0, 84, 75
1, 14124, Note_on_c, 1, 52, 0
1, 14136, Note_on_c, 0, 84, 0
1, 14136, Note_on_c, 0, 82, 75
1, 14148, Note_on_c, 0, 82, 0
1, 14148, Note_on_c, 0, 79, 75
1, 14160, Note_on_c, 0, 79, 0
1, 14160, Note_on_c, 0, 76, 75
1, 14172, Note_on_c, 0, 76, 0
1, 14172, Note_on_c, 1, 72, 75
1, 14184, Note_on_c, 1, 72, 0
1, 14184, Note_on_c, 1, 70, 75
1, 14196, Note_on_c, 1, 70, 0
1, 14196, Note_on_c, 1, 67, 75
1, 14208, Note_on_c, 1, 67, 0
1, 14208, Note_on_c, 1, 64, 75
1, 14220, Note_on_c, 0, 60, 75
1, 14220, Note_on_c, 1, 64, 0
1, 14232, Note_on_c, 0, 60, 0
1, 14232, Note_on_c, 0, 58, 75
1, 14244, Note_on_c, 0, 58, 0
1, 14244, Note_on_c, 0, 55, 75
1, 14256, Note_on_c, 0, 55, 0
1, 14256, Note_on_c, 0, 52, 75
1, 14268, Note_on_c, 0, 52, 0
1, 14268, Note_on_c, 1, 48, 75
1, 14280, Note_on_c, 1, 48, 0
1, 14280, Note_on_c, 1, 46, 75
1, 14292, Note_on_c, 1, 46, 0
1, 14292, Note_on_c, 1, 43, 75
1, 14304, Note_on_c, 1, 43, 0
1, 14304, Note_on_c, 1, 40, 75
1, 14316, Note_on_c, 1, 40, 0
1, 14316, Note_on_c, 1, 43, 75
1, 14328, Note_on_c, 1, 43, 0
1, 14328, Note_on_c, 1, 40, 75
1, 14340, Note_on_c, 1, 40, 0
1, 14340, Note_on_c, 1, 36, 75
1, 14352, Note_on_c, 1, 36, 0
1, 14352, Note_on_c, 1, 34, 75
1, 14364, Note_on_c, 0, 52, 75
1, 14376, Note_on_c, 0, 52, 0
1, 14376, Note_on_c, 0, 55, 75
1, 14388, Note_on_c, 0, 55, 0
1, 14388, Note_on_c, 0, 58, 75
1, 14397, Note_on_c, 1, 34, 0
1, 14400, Note_on_c, 0, 58, 0
1, 14400, Note_on_c, 0, 62, 75
1, 14400, Note_on_c, 1, 33, 75
1, 14412, Note_on_c, 0, 62, 0
1, 14412, Note_on_c, 0, 60, 75
1, 14424, Note_on_c, 0, 60, 0
1, 14424, Note_on_c, 0, 64, 75
1, 14436, Note_on_c, 0, 64, 0
1, 14436, Note_on_c, 0, 62, 75
1, 14448, Note_on_c, 0, 62, 0
1, 14448, Note_on_c, 0, 65, 75
1, 14460, Note_on_c, 0, 65, 0
1, 14460, Note_on_c, 0, 64, 75
1, 14472, Note_on_c, 0, 64, 0
1, 14472, Note_on_c, 0, 67, 75
1, 14484, Note_on_c, 0, 67, 0
1, 14484, Note_on_c, 0, 65, 75
1, 14496, Note_on_c, 0, 65, 0
1, 14496, Note_on_c, 0, 60, 75
1, 14541, Note_on_c, 0, 60, 0
1, 14541, Note_on_c, 1, 33, 0
1, 14568, Note_on_c, 0, 60, 75
1, 14591, Note_on_c, 0, 60, 0
1, 14592, Note_on_c, 0, 65, 75
1, 14592, Note_on_c, 1, 53, 75
1, 14592, Note_on_c, 1, 48, 75
1, 14592, Note_on_c, 1, 45, 75
1, 14604, Note_on_c, 0, 65, 0
1, 14604, Note_on_c, 0, 64, 75
1, 14616, Note_on_c, 0, 64, 0
1, 14616, Note_on_c, 0, 67, 75
1, 14628, Note_on_c, 0, 67, 0
1, 14628, Note_on_c, 0, 65, 75
1, 14640, Note_on_c, 0, 65, 0
1, 14640, Note_on_c, 0, 69, 76
1, 14652, Note_on_c, 0, 69, 0
1, 14652, Note_on_c, 0, 65, 76
1, 14664, Note_on_c, 0, 65, 0
1, 14664, Note_on_c, 0, 60, 76
1, 14676, Note_on_c, 0, 60, 0
1, 14676, Note_on_c, 0, 69, 77
1, 14681, Note_on_c, 1, 53, 0
1, 14681, Note_on_c, 1, 48, 0
1, 14681, Note_on_c, 1, 45, 0
1, 14688, Note_on_c, 0, 69, 0
1, 14688, Note_on_c, 0, 65, 77
1, 14688, Note_on_c, 1, 53, 75
1, 14688, Note_on_c, 1, 50, 75
1, 14688, Note_on_c, 1, 46, 75
1, 14700, Note_on_c, 0, 65, 0
1, 14700, Note_on_c, 0, 62, 77
1, 14712, Note_on_c, 0, 62, 0
1, 14712, Note_on_c, 0, 89, 94
1, 14777, Note_on_c, 1, 53, 0
1, 14777, Note_on_c, 1, 50, 0
1, 14777, Note_on_c, 1, 46, 0
1, 14784, Note_on_c, 0, 89, 0
1, 14784, Note_on_c, 0, 65, 80
1, 14784, Note_on_c, 1, 48, 75
1, 14796, Note_on_c, 0, 65, 0
1, 14796, Note_on_c, 0, 67, 80
1, 14802, Note_on_c, 0, 67, 0
1, 14802, Note_on_c, 0, 69, 80
1, 14808, Note_on_c, 0, 69, 0
1, 14808, Note_on_c, 0, 67, 80
1, 14814, Note_on_c, 0, 67, 0
1, 14814, Note_on_c, 0, 69, 80
1, 14820, Note_on_c, 0, 69, 0
1, 14820, Note_on_c, 0, 67, 80
1, 14826, Note_on_c, 0, 67, 0
1, 14826, Note_on_c, 0, 69, 80
1, 14832, Note_on_c, 0, 69, 0
1, 14832, Note_on_c, 0, 67, 80
1, 14838, Note_on_c, 0, 67, 0
1, 14838, Note_on_c, 0, 69, 80
1, 14844, Note_on_c, 0, 69, 0
1, 14844, Note_on_c, 0, 67, 80
1, 14850, Note_on_c, 0, 67, 0
1, 14850, Note_on_c, 0, 69, 80
1, 14856, Note_on_c, 0, 69, 0
1, 14856, Note_on_c, 0, 67, 80
1, 14862, Note_on_c, 0, 67, 0
1, 14862, Note_on_c, 0, 69, 80
1, 14868, Note_on_c, 0, 69, 0
1, 14868, Note_on_c, 0, 67, 80
1, 14874, Note_on_c, 0, 67, 0
1, 14874, Note_on_c, 0, 69, 80
1, 14880, Note_on_c, 0, 69, 0
1, 14880, Note_on_c, 0, 67, 80
1, 14880, Note_on_c, 1, 58, 75
1, 14880, Note_on_c, 1, 52, 75
1, 14886, Note_on_c, 0, 67, 0
1, 14886, Note_on_c, 0, 69, 80
1, 14892, Note_on_c, 0, 69, 0
1, 14892, Note_on_c, 0, 67, 80
1, 14898, Note_on_c, 0, 67, 0
1, 14898, Note_on_c, 0, 69, 80
1, 14904, Note_on_c, 0, 69, 0
1, 14904, Note_on_c, 0, 67, 80
1, 14910, Note_on_c, 0, 67, 0
1, 14910, Note_on_c, 0, 69, 80
1, 14916, Note_on_c, 0, 69, 0
1, 14916, Note_on_c, 0, 67, 80
1, 14922, Note_on_c, 0, 67, 0
1, 14922, Note_on_c, 0, 69, 80
1, 14928, Note_on_c, 0, 69, 0
1, 14928, Note_on_c, 0, 67, 80
1, 14934, Note_on_c, 0, 67, 0
1, 14934, Note_on_c, 0, 69, 80
1, 14940, Note_on_c, 0, 69, 0
1, 14940, Note_on_c, 0, 67, 80
1, 14946, Note_on_c, 0, 67, 0
1, 14946, Note_on_c, 0, 69, 80
1, 14951, Note_on_c, 0, 69, 0
1, 14951, Note_on_c, 0, 67, 80
1, 14956, Note_on_c, 0, 67, 0
1, 14956, Note_on_c, 0, 69, 80
1, 14961, Note_on_c, 0, 69, 0
1, 14961, Note_on_c, 0, 67, 80
1, 14961, Note_on_c, 1, 48, 0
1, 14966, Note_on_c, 0, 67, 0
1, 14966, Note_on_c, 0, 72, 80
1, 14969, Note_on_c, 1, 58, 0
1, 14969, Note_on_c, 1, 52, 0
1, 14976, Note_on_c, 0, 72, 0
1, 14976, Note_on_c, 0, 65, 80
1, 14976, Note_on_c, 1, 57, 64
1, 14976, Note_on_c, 1, 53, 64
1, 14999, Note_on_c, 1, 57, 0
1, 15000, Note_on_c, 1, 60, 64
1, 15021, Note_on_c, 1, 53, 0
1, 15023, Note_on_c, 1, 60, 0
1, 15024, Note_on_c, 1, 57, 64
1, 15024, Note_on_c, 1, 53, 64
1, 15047, Note_on_c, 1, 57, 0
1, 15048, Note_on_c, 1, 60, 64
1, 15065, Note_on_c, 0, 65, 0
1, 15069, Note_on_c, 1, 53, 0
1, 15071, Note_on_c, 1, 60, 0
1, 15072, Note_on_c, 1, 57, 64
1, 15072, Note_on_c, 1, 53, 64
1, 15084, Note_on_c, 0, 81, 64
1, 15089, Note_on_c, 0, 81, 0
1, 15095, Note_on_c, 1, 57, 0
1, 15096, Note_on_c, 0, 79, 64
1, 15096, Note_on_c, 1, 60, 64
1, 15101, Note_on_c, 0, 79, 0
1, 15108, Note_on_c, 0, 77, 64
1, 15113, Note_on_c, 0, 77, 0
1, 15117, Note_on_c, 1, 53, 0
1, 15119, Note_on_c, 1, 60, 0
1, 15120, Note_on_c, 0, 76, 64
1, 15120, Note_on_c, 1, 57, 64
1, 15120, Note_on_c, 1, 53, 64
1, 15125, Note_on_c, 0, 76, 0
1, 15132, Note_on_c, 0, 74, 64
1, 15137, Note_on_c, 0, 74, 0
1, 15143, Note_on_c, 1, 57, 0
1, 15144, Note_on_c, 0, 72, 64
1, 15144, Note_on_c, 1, 60, 64
1, 15149, Note_on_c, 0, 72, 0
1, 15156, Note_on_c, 0, 70, 64
1, 15161, Note_on_c, 0, 70, 0
1, 15165, Note_on_c, 1, 53, 0
1, 15167, Note_on_c, 1, 60, 0
1, 15168, Note_on_c, 0, 69, 64
1, 15168, Note_on_c, 1, 57, 64
1, 15168, Note_on_c, 1, 53, 64
1, 15178, Note_on_c, 0, 69, 0
1, 15191, Note_on_c, 1, 57, 0
1, 15192, Note_on_c, 0, 67, 64
1, 15192, Note_on_c, 1, 60, 64
1, 15202, Note_on_c, 0, 67, 0
1, 15213, Note_on_c, 1, 53, 0
1, 15215, Note_on_c, 1, 60, 0
1, 15216, Note_on_c, 0, 69, 64
1, 15216, Note_on_c, 1, 57, 64
1, 15216, Note_on_c, 1, 53, 64
1, 15226, Note_on_c, 0, 69, 0
1, 15239, Note_on_c, 1, 57, 0
1, 15240, Note_on_c, 0, 70, 64
1, 15240, Note_on_c, 1, 60, 64
1, 15250, Note_on_c, 0, 70, 0
1, 15261, Note_on_c, 1, 53, 0
1, 15263, Note_on_c, 1, 60, 0
1, 15264, Note_on_c, 0, 71, 64
1, 15264, Note_on_c, 1, 58, 64
1, 15264, Note_on_c, 1, 55, 64
1, 15264, Note_on_c, 1, 52, 64
1, 15287, Note_on_c, 1, 58, 0
1, 15288, Note_on_c, 0, 71, 0
1, 15288, Note_on_c, 0, 72, 88
1, 15288, Note_on_c, 1, 60, 64
1, 15309, Note_on_c, 1, 55, 0
1, 15309, Note_on_c, 1, 52, 0
1, 15311, Note_on_c, 1, 60, 0
1, 15312, Note_on_c, 1, 58, 64
1, 15312, Note_on_c, 1, 55, 64
1, 15312, Note_on_c, 1, 52, 64
1, 15335, Note_on_c, 1, 58, 0
1, 15336, Note_on_c, 1, 60, 64
1, 15355, Note_on_c, 0, 72, 0
1, 15357, Note_on_c, 1, 55, 0
1, 15357, Note_on_c, 1, 52, 0
1, 15359, Note_on_c, 1, 60, 0
1, 15360, Note_on_c, 1, 58, 64
1, 15360, Note_on_c, 1, 55, 64
1, 15360, Note_on_c, 1, 52, 64
1, 15372, Note_on_c, 0, 82, 64
1, 15377, Note_on_c, 0, 82, 0
1, 15383, Note_on_c, 1, 58, 0
1, 15384, Note_on_c, 0, 81, 64
1, 15384, Note_on_c, 1, 60, 64
1, 15389, Note_on_c, 0, 81, 0
1, 15396, Note_on_c, 0, 79, 64
1, 15401, Note_on_c, 0, 79, 0
1, 15405, Note_on_c, 1, 55, 0
1, 15405, Note_on_c, 1, 52, 0
1, 15407, Note_on_c, 1, 60, 0
1, 15408, Note_on_c, 0, 77, 64
1, 15408, Note_on_c, 1, 58, 64
1, 15408, Note_on_c, 1, 55, 64
1, 15408, Note_on_c, 1, 52, 64
1, 15413, Note_on_c, 0, 77, 0
1, 15420, Note_on_c, 0, 76, 64
1, 15425, Note_on_c, 0, 76, 0
1, 15431, Note_on_c, 1, 58, 0
1, 15432, Note_on_c, 0, 74, 64
1, 15432, Note_on_c, 1, 60, 64
1, 15437, Note_on_c, 0, 74, 0
1, 15444, Note_on_c, 0, 72, 64
1, 15449, Note_on_c, 0, 72, 0
1, 15453, Note_on_c, 1, 55, 0
1, 15453, Note_on_c, 1, 52, 0
1, 15455, Note_on_c, 1, 60, 0
1, 15456, Note_on_c, 0, 71, 64
1, 15456, Note_on_c, 1, 58, 64
1, 15456, Note_on_c, 1, 55, 64
1, 15456, Note_on_c, 1, 52, 64
1, 15466, Note_on_c, 0, 71, 0
1, 15479, Note_on_c, 1, 58, 0
1, 15480, Note_on_c, 0, 72, 64
1, 15480, Note_on_c, 1, 60, 64
1, 15490, Note_on_c, 0, 72, 0
1, 15501, Note_on_c, 1, 55, 0
1, 15501, Note_on_c, 1, 52, 0
1, 15503, Note_on_c, 1, 60, 0
1, 15504, Note_on_c, 0, 74, 64
1, 15504, Note_on_c, 1, 58, 64
1, 15504, Note_on_c, 1, 55, 64
1, 15504, Note_on_c, 1, 52, 64
1, 15514, Note_on_c, 0, 74, 0
1, 15527, Note_on_c, 1, 58, 0
1, 15528, Note_on_c, 0, 70, 64
1, 15528, Note_on_c, 1, 60, 64
1, 15538, Note_on_c, 0, 70, 0
1, 15549, Note_on_c, 1, 55, 0
1, 15549, Note_on_c, 1, 52, 0
1, 15551, Note_on_c, 1, 60, 0
1, 15552, Note_on_c, 0, 68, 64
1, 15552, Note_on_c, 1, 57, 64
1, 15552, Note_on_c, 1, 53, 64
1, 15575, Note_on_c, 1, 57, 0
1, 15576, Note_on_c, 0, 68, 0
1, 15576, Note_on_c, 0, 69, 88
1, 15576, Note_on_c, 1, 60, 64
1, 15597, Note_on_c, 1, 53, 0
1, 15599, Note_on_c, 1, 60, 0
1, 15600, Note_on_c, 1, 57, 64
1, 15600, Note_on_c, 1, 53, 64
1, 15623, Note_on_c, 1, 57, 0
1, 15624, Note_on_c, 1, 60, 64
1, 15643, Note_on_c, 0, 69, 0
1, 15645, Note_on_c, 1, 53, 0
1, 15647, Note_on_c, 1, 60, 0
1, 15648, Note_on_c, 1, 45, 70
1, 15648, Note_on_c, 1, 41, 70
1, 15660, Note_on_c, 0, 72, 75
1, 15660, Note_on_c, 0, 60, 75
1, 15665, Note_on_c, 0, 72, 0
1, 15665, Note_on_c, 0, 60, 0
1, 15671, Note_on_c, 1, 45, 0
1, 15672, Note_on_c, 0, 74, 75
1, 15672, Note_on_c, 0, 62, 75
1, 15672, Note_on_c, 1, 48, 70
1, 15677, Note_on_c, 0, 74, 0
1, 15677, Note_on_c, 0, 62, 0
1, 15684, Note_on_c, 0, 76, 75
1, 15684, Note_on_c, 0, 64, 75
1, 15689, Note_on_c, 0, 76, 0
1, 15689, Note_on_c, 0, 64, 0
1, 15693, Note_on_c, 1, 41, 0
1, 15695, Note_on_c, 1, 48, 0
1, 15696, Note_on_c, 0, 77, 75
1, 15696, Note_on_c, 0, 65, 75
1, 15696, Note_on_c, 1, 45, 70
1, 15696, Note_on_c, 1, 41, 70
1, 15701, Note_on_c, 0, 77, 0
1, 15701, Note_on_c, 0, 65, 0
1, 15708, Note_on_c, 0, 79, 75
1, 15708, Note_on_c, 0, 67, 75
1, 15713, Note_on_c, 0, 79, 0
1, 15713, Note_on_c, 0, 67, 0
1, 15719, Note_on_c, 1, 45, 0
1, 15720, Note_on_c, 0, 81, 75
1, 15720, Note_on_c, 0, 69, 75
1, 15720, Note_on_c, 1, 48, 70
1, 15725, Note_on_c, 0, 81, 0
1, 15725, Note_on_c, 0, 69, 0
1, 15732, Note_on_c, 0, 82, 75
1, 15732, Note_on_c, 0, 70, 75
1, 15737, Note_on_c, 0, 82, 0
1, 15737, Note_on_c, 0, 70, 0
1, 15741, Note_on_c, 1, 41, 0
1, 15743, Note_on_c, 1, 48, 0
1, 15744, Note_on_c, 0, 84, 75
1, 15744, Note_on_c, 0, 72, 75
1, 15744, Note_on_c, 1, 45, 70
1, 15744, Note_on_c, 1, 41, 70
1, 15754, Note_on_c, 0, 84, 0
1, 15754, Note_on_c, 0, 72, 0
1, 15767, Note_on_c, 1, 45, 0
1, 15768, Note_on_c, 0, 86, 75
1, 15768, Note_on_c, 0, 74, 75
1, 15768, Note_on_c, 1, 48, 70
1, 15778, Note_on_c, 0, 86, 0
1, 15778, Note_on_c, 0, 74, 0
1, 15789, Note_on_c, 1, 41, 0
1, 15791, Note_on_c, 1, 48, 0
1, 15792, Note_on_c, 0, 88, 75
1, 15792, Note_on_c, 0, 76, 75
1, 15792, Note_on_c, 1, 45, 70
1, 15792, Note_on_c, 1, 41, 70
1, 15802, Note_on_c, 0, 88, 0
1, 15802, Note_on_c, 0, 76, 0
1, 15815, Note_on_c, 1, 45, 0
1, 15816, Note_on_c, 0, 89, 75
1, 15816, Note_on_c, 0, 77, 75
1, 15816, Note_on_c, 1, 48, 70
1, 15826, Note_on_c, 0, 89, 0
1, 15826, Note_on_c, 0, 77, 0
1, 15837, Note_on_c, 1, 41, 0
1, 15839, Note_on_c, 1, 48, 0
1, 15840, Note_on_c, 0, 89, 91
1, 15840, Note_on_c, 0, 77, 91
1, 15840, Note_on_c, 1, 46, 70
1, 15840, Note_on_c, 1, 43, 70
1, 15863, Note_on_c, 1, 46, 0
1, 15864, Note_on_c, 1, 48, 70
1, 15885, Note_on_c, 1, 43, 0
1, 15887, Note_on_c, 1, 48, 0
1, 15888, Note_on_c, 1, 46, 71
1, 15888, Note_on_c, 1, 43, 70
1, 15911, Note_on_c, 1, 46, 0
1, 15912, Note_on_c, 0, 89, 0
1, 15912, Note_on_c, 0, 77, 0
1, 15912, Note_on_c, 0, 88, 76
1, 15912, Note_on_c, 0, 76, 76
1, 15912, Note_on_c, 1, 48, 72
1, 15933, Note_on_c, 1, 43, 0
1, 15935, Note_on_c, 1, 48, 0
1, 15936, Note_on_c, 1, 46, 73
1, 15936, Note_on_c, 1, 43, 70
1, 15957, Note_on_c, 0, 88, 0
1, 15957, Note_on_c, 0, 76, 0
1, 15959, Note_on_c, 1, 46, 0
1, 15960, Note_on_c, 0, 86, 77
1, 15960, Note_on_c, 0, 74, 77
1, 15960, Note_on_c, 1, 52, 74
1, 15981, Note_on_c, 1, 43, 0
1, 15983, Note_on_c, 1, 52, 0
1, 15984, Note_on_c, 1, 46, 75
1, 15984, Note_on_c, 1, 43, 70
1, 16005, Note_on_c, 0, 86, 0
1, 16005, Note_on_c, 0, 74, 0
1, 16007, Note_on_c, 1, 46, 0
1, 16008, Note_on_c, 0, 84, 77
1, 16008, Note_on_c, 0, 72, 77
1, 16008, Note_on_c, 1, 52, 75
1, 16029, Note_on_c, 1, 43, 0
1, 16031, Note_on_c, 1, 52, 0
1, 16032, Note_on_c, 1, 46, 76
1, 16032, Note_on_c, 1, 43, 70
1, 16053, Note_on_c, 0, 84, 0
1, 16053, Note_on_c, 0, 72, 0
1, 16055, Note_on_c, 1, 46, 0
1, 16056, Note_on_c, 0, 82, 78
1, 16056, Note_on_c, 0, 70, 78
1, 16056, Note_on_c, 1, 52, 77
1, 16077, Note_on_c, 1, 43, 0
1, 16079, Note_on_c, 1, 52, 0
1, 16080, Note_on_c, 1, 48, 78
1, 16080, Note_on_c, 1, 45, 70
1, 16101, Note_on_c, 0, 82, 0
1, 16101, Note_on_c, 0, 70, 0
1, 16103, Note_on_c, 1, 48, 0
1, 16104, Note_on_c, 0, 81, 79
1, 16104, Note_on_c, 0, 69, 79
1, 16104, Note_on_c, 1, 53, 79
1, 16125, Note_on_c, 1, 45, 0
1, 16127, Note_on_c, 1, 53, 0
1, 16128, Note_on_c, 1, 50, 80
1, 16128, Note_on_c, 1, 46, 70
1, 16151, Note_on_c, 0, 81, 0
1, 16151, Note_on_c, 0, 69, 0
1, 16151, Note_on_c, 1, 50, 0
1, 16152, Note_on_c, 0, 79, 80
1, 16152, Note_on_c, 0, 67, 80
1, 16152, Note_on_c, 1, 55, 80
1, 16173, Note_on_c, 1, 46, 0
1, 16175, Note_on_c, 1, 55, 0
1, 16176, Note_on_c, 1, 51, 80
1, 16176, Note_on_c, 1, 48, 70
1, 16197, Note_on_c, 0, 79, 0
1, 16197, Note_on_c, 0, 67, 0
1, 16199, Note_on_c, 1, 51, 0
1, 16200, Note_on_c, 0, 78, 80
1, 16200, Note_on_c, 0, 66, 80
1, 16200, Note_on_c, 1, 57, 80
1, 16221, Note_on_c, 1, 48, 0
1, 16223, Note_on_c, 1, 57, 0
1, 16224, Note_on_c, 1, 50, 80
1, 16224, Note_on_c, 1, 46, 70
1, 16245, Note_on_c, 0, 78, 0
1, 16245, Note_on_c, 0, 66, 0
1, 16247, Note_on_c, 1, 50, 0
1, 16248, Note_on_c, 0, 79, 80
1, 16248, Note_on_c, 0, 67, 80
1, 16248, Note_on_c, 1, 55, 80
1, 16269, Note_on_c, 1, 46, 0
1, 16271, Note_on_c, 1, 55, 0
1, 16272, Note_on_c, 1, 50, 80
1, 16272, Note_on_c, 1, 47, 70
1, 16293, Note_on_c, 0, 79, 0
1, 16293, Note_on_c, 0, 67, 0
1, 16295, Note_on_c, 1, 50, 0
1, 16296, Note_on_c, 0, 77, 80
1, 16296, Note_on_c, 0, 65, 80
1, 16296, Note_on_c, 1, 56, 80
1, 16317, Note_on_c, 1, 47, 0
1, 16319, Note_on_c, 1, 56, 0
1, 16320, Note_on_c, 1, 52, 80
1, 16320, Note_on_c, 1, 48, 70
1, 16341, Note_on_c, 0, 77, 0
1, 16341, Note_on_c, 0, 65, 0
1, 16343, Note_on_c, 1, 52, 0
1, 16344, Note_on_c, 0, 76, 80
1, 16344, Note_on_c, 0, 64, 80
1, 16344, Note_on_c, 1, 55, 80
1, 16365, Note_on_c, 1, 48, 0
1, 16367, Note_on_c, 1, 55, 0
1, 16368, Note_on_c, 1, 55, 80
1, 16368, Note_on_c, 1, 52, 70
1, 16389, Note_on_c, 0, 76, 0
1, 16389, Note_on_c, 0, 64, 0
1, 16391, Note_on_c, 1, 55, 0
1, 16392, Note_on_c, 0, 82, 80
1, 16392, Note_on_c, 0, 70, 80
1, 16392, Note_on_c, 1, 60, 80
1, 16413, Note_on_c, 1, 52, 0
1, 16415, Note_on_c, 1, 60, 0
1, 16416, Note_on_c, 1, 57, 80
1, 16416, Note_on_c, 1, 53, 70
1, 16439, Note_on_c, 0, 82, 0
1, 16439, Note_on_c, 0, 70, 0
1, 16439, Note_on_c, 1, 57, 0
1, 16440, Note_on_c, 0, 81, 80
1, 16440, Note_on_c, 0, 69, 80
1, 16440, Note_on_c, 1, 60, 80
1, 16461, Note_on_c, 1, 53, 0
1, 16463, Note_on_c, 1, 60, 0
1, 16464, Note_on_c, 1, 57, 78
1, 16485, Note_on_c, 0, 81, 0
1, 16485, Note_on_c, 0, 69, 0
1, 16487, Note_on_c, 1, 57, 0
1, 16488, Note_on_c, 0, 85, 76
1, 16488, Note_on_c, 0, 73, 76
1, 16488, Note_on_c, 1, 65, 76
1, 16511, Note_on_c, 1, 65, 0
1, 16512, Note_on_c, 1, 58, 74
1, 16533, Note_on_c, 0, 85, 0
1, 16533, Note_on_c, 0, 73, 0
1, 16535, Note_on_c, 1, 58, 0
1, 16536, Note_on_c, 0, 86, 72
1, 16536, Note_on_c, 0, 74, 72
1, 16536, Note_on_c, 1, 65, 72
1, 16559, Note_on_c, 0, 86, 0
1, 16559, Note_on_c, 0, 74, 0
1, 16559, Note_on_c, 1, 65, 0
1, 16608, Note_on_c, 1, 74, 64
1, 16608, Note_on_c, 1, 71, 64
1, 16653, Note_on_c, 1, 74, 0
1, 16653, Note_on_c, 1, 71, 0
1, 16656, Note_on_c, 0, 89, 64
1, 16656, Note_on_c, 0, 80, 64
1, 16701, Note_on_c, 0, 89, 0
1, 16701, Note_on_c, 0, 80, 0
1, 16704, Note_on_c, 0, 60, 64
1, 16738, Note_on_c, 0, 60, 0
1, 16740, Note_on_c, 0, 65, 64
1, 16752, Note_on_c, 0, 65, 0
1, 16752, Note_on_c, 0, 69, 64
1, 16764, Note_on_c, 0, 69, 0
1, 16764, Note_on_c, 0, 72, 64
1, 16776, Note_on_c, 0, 72, 0
1, 16776, Note_on_c, 0, 77, 64
1, 16788, Note_on_c, 0, 77, 0
1, 16788, Note_on_c, 0, 81, 64
1, 16800, Note_on_c, 0, 81, 0
1, 16800, Note_on_c, 0, 84, 64
1, 16845, Note_on_c, 0, 84, 0
1, 16896, Note_on_c, 1, 36, 70
1, 16944, Note_on_c, 0, 64, 64
1, 16944, Note_on_c, 0, 58, 64
1, 16985, Note_on_c, 1, 36, 0
1, 16989, Note_on_c, 0, 64, 0
1, 16989, Note_on_c, 0, 58, 0
1, 16992, Note_on_c, 0, 67, 64
1, 16992, Note_on_c, 0, 58, 64
1, 16992, Note_on_c, 1, 41, 70
1, 17016, Note_on_c, 1, 49, 70
1, 17039, Note_on_c, 1, 49, 0
1, 17040, Note_on_c, 1, 48, 70
1, 17063, Note_on_c, 1, 48, 0
1, 17064, Note_on_c, 1, 52, 70
1, 17087, Note_on_c, 1, 52, 0
1, 17088, Note_on_c, 0, 67, 0
1, 17088, Note_on_c, 0, 58, 0
1, 17088, Note_on_c, 0, 65, 64
1, 17088, Note_on_c, 0, 57, 64
1, 17088, Note_on_c, 1, 53, 70
1, 17111, Note_on_c, 0, 65, 0
1, 17111, Note_on_c, 0, 57, 0
1, 17112, Note_on_c, 0, 60, 64
1, 17135, Note_on_c, 0, 60, 0
1, 17136, Note_on_c, 0, 69, 64
1, 17159, Note_on_c, 0, 69, 0
1, 17160, Note_on_c, 0, 65, 64
1, 17169, Note_on_c, 1, 41, 0
1, 17177, Note_on_c, 1, 53, 0
1, 17183, Note_on_c, 0, 65, 0
1, 17184, Note_on_c, 0, 72, 64
1, 17232, Note_on_c, 1, 36, 70
1, 17251, Note_on_c, 0, 72, 0
1, 17256, Note_on_c, 0, 64, 64
1, 17256, Note_on_c, 0, 58, 64
1, 17277, Note_on_c, 1, 36, 0
1, 17279, Note_on_c, 0, 64, 0
1, 17279, Note_on_c, 0, 58, 0
1, 17280, Note_on_c, 0, 67, 64
1, 17280, Note_on_c, 0, 58, 64
1, 17280, Note_on_c, 1, 41, 70
1, 17304, Note_on_c, 1, 49, 70
1, 17327, Note_on_c, 1, 49, 0
1, 17328, Note_on_c, 1, 48, 70
1, 17351, Note_on_c, 1, 48, 0
1, 17352, Note_on_c, 1, 52, 70
1, 17375, Note_on_c, 1, 52, 0
1, 17376, Note_on_c, 0, 67, 0
1, 17376, Note_on_c, 0, 58, 0
1, 17376, Note_on_c, 0, 65, 64
1, 17376, Note_on_c, 0, 57, 64
1, 17376, Note_on_c, 1, 53, 70
1, 17399, Note_on_c, 0, 65, 0
1, 17399, Note_on_c, 0, 57, 0
1, 17400, Note_on_c, 0, 60, 64
1, 17423, Note_on_c, 0, 60, 0
1, 17424, Note_on_c, 0, 69, 64
1, 17447, Note_on_c, 0, 69, 0
1, 17448, Note_on_c, 0, 65, 64
1, 17457, Note_on_c, 1, 41, 0
1, 17465, Note_on_c, 1, 53, 0
1, 17471, Note_on_c, 0, 65, 0
1, 17472, Note_on_c, 0, 74, 64
1, 17496, Note_on_c, 0, 74, 0
1, 17496, Note_on_c, 0, 72, 64
1, 17519, Note_on_c, 0, 72, 0
1, 17520, Note_on_c, 1, 36, 70
1, 17544, Note_on_c, 0, 64, 64
1, 17554, Note_on_c, 0, 64, 0
1, 17565, Note_on_c, 1, 36, 0
1, 17568, Note_on_c, 0, 67, 64
1, 17568, Note_on_c, 0, 58, 64
1, 17568, Note_on_c, 1, 41, 70
1, 17592, Note_on_c, 1, 49, 70
1, 17615, Note_on_c, 1, 49, 0
1, 17616, Note_on_c, 1, 48, 70
1, 17639, Note_on_c, 1, 48, 0
1, 17640, Note_on_c, 1, 52, 70
1, 17663, Note_on_c, 1, 52, 0
1, 17664, Note_on_c, 0, 67, 0
1, 17664, Note_on_c, 0, 58, 0
1, 17664, Note_on_c, 0, 65, 64
1, 17664, Note_on_c, 0, 57, 64
1, 17664, Note_on_c, 1, 53, 70
1, 17711, Note_on_c, 0, 65, 0
1, 17711, Note_on_c, 0, 57, 0
1, 17760, Note_on_c, 0, 60, 58
1, 17778, Note_on_c, 0, 60, 0
1, 17778, Note_on_c, 0, 69, 58
1, 17833, Note_on_c, 1, 41, 0
1, 17849, Note_on_c, 0, 69, 0
1, 17851, Note_on_c, 1, 53, 0
1, 17856, Note_on_c, 0, 45, 58
1, 17856, Note_on_c, 1, 29, 70
1, 17880, Note_on_c, 0, 45, 0
1, 17880, Note_on_c, 0, 53, 58
1, 18121, Note_on_c, 0, 53, 0
1, 18121, Note_on_c, 1, 29, 0
1, 18144, Note_on_c, 1, 29, 0
1, 18233, Note_on_c, 1, 29, 0
1, 18243, End_track
0, 0, End_of_file