0, 0, Header, 0, 1, 96
1, 0, Start_track
1, 0, Tempo, 750000
1, 0, Note_on_c, 0, 77, 75
1, 0, Note_on_c, 0, 74, 75
1, 0, Note_on_c, 1, 46, 64
1, 89, Note_on_c, 1, 46, 0
1, 96, Note_on_c, 1, 58, 64
1, 177, Note_on_c, 0, 77, 0
1, 177, Note_on_c, 0, 74, 0
1, 185, Note_on_c, 1, 58, 0
1, 192, Note_on_c, 0, 81, 75
1, 198, Note_on_c, 0, 81, 0
1, 198, Note_on_c, 0, 79, 75
1, 198, Note_on_c, 0, 75, 75
1, 259, Note_on_c, 0, 79, 0
1, 259, Note_on_c, 0, 75, 0
1, 264, Note_on_c, 0, 77, 75
1, 264, Note_on_c, 0, 74, 75
1, 287, Note_on_c, 0, 77, 0
1, 287, Note_on_c, 0, 74, 0
1, 288, Note_on_c, 0, 77, 75
1, 288, Note_on_c, 0, 74, 75
1, 377, Note_on_c, 0, 77, 0
1, 377, Note_on_c, 0, 74, 0
1, 384, Note_on_c, 0, 75, 75
1, 384, Note_on_c, 0, 72, 64
1, 384, Note_on_c, 1, 65, 64
1, 393, Note_on_c, 0, 75, 0
1, 393, Note_on_c, 0, 77, 75
1, 402, Note_on_c, 0, 77, 0
1, 402, Note_on_c, 0, 75, 75
1, 411, Note_on_c, 0, 75, 0
1, 411, Note_on_c, 0, 77, 75
1, 420, Note_on_c, 0, 77, 0
1, 420, Note_on_c, 0, 75, 75
1, 429, Note_on_c, 0, 75, 0
1, 429, Note_on_c, 0, 77, 75
1, 438, Note_on_c, 0, 77, 0
1, 438, Note_on_c, 0, 75, 75
1, 447, Note_on_c, 0, 75, 0
1, 447, Note_on_c, 0, 74, 75
1, 464, Note_on_c, 0, 74, 0
1, 464, Note_on_c, 0, 75, 75
1, 473, Note_on_c, 0, 72, 0
1, 473, Note_on_c, 1, 65, 0
1, 480, Note_on_c, 0, 75, 0
1, 480, Note_on_c, 0, 74, 75
1, 480, Note_on_c, 0, 70, 75
1, 480, Note_on_c, 1, 67, 64
1, 569, Note_on_c, 0, 74, 0
1, 569, Note_on_c, 0, 70, 0
1, 569, Note_on_c, 1, 67, 0
1, 576, Note_on_c, 0, 79, 75
1, 576, Note_on_c, 1, 70, 64
1, 576, Note_on_c, 1, 63, 64
1, 586, Note_on_c, 0, 79, 0
1, 600, Note_on_c, 0, 81, 75
1, 608, Note_on_c, 0, 81, 0
1, 608, Note_on_c, 0, 79, 75
1, 616, Note_on_c, 0, 79, 0
1, 616, Note_on_c, 0, 78, 75
1, 624, Note_on_c, 0, 78, 0
1, 624, Note_on_c, 0, 79, 75
1, 647, Note_on_c, 0, 79, 0
1, 648, Note_on_c, 0, 81, 75
1, 665, Note_on_c, 1, 70, 0
1, 665, Note_on_c, 1, 63, 0
1, 671, Note_on_c, 0, 81, 0
1, 672, Note_on_c, 0, 82, 75
1, 672, Note_on_c, 1, 70, 64
1, 672, Note_on_c, 1, 62, 64
1, 739, Note_on_c, 0, 82, 0
1, 744, Note_on_c, 0, 81, 75
1, 761, Note_on_c, 1, 70, 0
1, 761, Note_on_c, 1, 62, 0
1, 767, Note_on_c, 0, 81, 0
1, 768, Note_on_c, 0, 79, 75
1, 835, Note_on_c, 0, 79, 0
1, 840, Note_on_c, 0, 77, 75
1, 863, Note_on_c, 0, 77, 0
1, 864, Note_on_c, 0, 77, 75
1, 864, Note_on_c, 1, 60, 64
1, 960, Note_on_c, 0, 77, 0
1, 960, Note_on_c, 0, 75, 75
1, 960, Note_on_c, 1, 69, 64
1, 1041, Note_on_c, 0, 75, 0
1, 1041, Note_on_c, 1, 60, 0
1, 1049, Note_on_c, 1, 69, 0
1, 1056, Note_on_c, 0, 74, 75
1, 1056, Note_on_c, 1, 70, 64
1, 1056, Note_on_c, 1, 58, 64
1, 1145, Note_on_c, 0, 74, 0
1, 1150, Note_on_c, 1, 70, 0
1, 1150, Note_on_c, 1, 58, 0
1, 1152, Note_on_c, 0, 72, 75
1, 1152, Note_on_c, 1, 67, 64
1, 1152, Note_on_c, 1, 63, 64
1, 1161, Note_on_c, 0, 72, 0
1, 1161, Note_on_c, 0, 74, 75
1, 1170, Note_on_c, 0, 74, 0
1, 1170, Note_on_c, 0, 72, 75
1, 1179, Note_on_c, 0, 72, 0
1, 1179, Note_on_c, 0, 74, 75
1, 1188, Note_on_c, 0, 74, 0
1, 1188, Note_on_c, 0, 72, 75
1, 1197, Note_on_c, 0, 72, 0
1, 1197, Note_on_c, 0, 74, 75
1, 1206, Note_on_c, 0, 74, 0
1, 1206, Note_on_c, 0, 72, 75
1, 1215, Note_on_c, 0, 72, 0
1, 1215, Note_on_c, 0, 71, 75
1, 1232, Note_on_c, 0, 71, 0
1, 1232, Note_on_c, 0, 72, 75
1, 1241, Note_on_c, 1, 67, 0
1, 1241, Note_on_c, 1, 63, 0
1, 1248, Note_on_c, 0, 72, 0
1, 1248, Note_on_c, 0, 79, 75
1, 1315, Note_on_c, 0, 79, 0
1, 1320, Note_on_c, 0, 75, 75
1, 1343, Note_on_c, 0, 75, 0
1, 1344, Note_on_c, 0, 74, 75
1, 1411, Note_on_c, 0, 74, 0
1, 1416, Note_on_c, 0, 72, 75
1, 1439, Note_on_c, 0, 72, 0
1, 1440, Note_on_c, 0, 70, 75
1, 1536, Note_on_c, 1, 65, 64
1, 1536, Note_on_c, 1, 63, 64
1, 1559, Note_on_c, 0, 70, 0
1, 1560, Note_on_c, 0, 69, 75
1, 1583, Note_on_c, 0, 69, 0
1, 1584, Note_on_c, 0, 70, 75
1, 1596, Note_on_c, 0, 70, 0
1, 1596, Note_on_c, 0, 69, 75
1, 1608, Note_on_c, 0, 69, 0
1, 1608, Note_on_c, 0, 67, 75
1, 1620, Note_on_c, 0, 67, 0
1, 1620, Note_on_c, 0, 69, 75
1, 1625, Note_on_c, 1, 65, 0
1, 1625, Note_on_c, 1, 63, 0
1, 1632, Note_on_c, 0, 69, 0
1, 1632, Note_on_c, 0, 70, 75
1, 1632, Note_on_c, 1, 65, 64
1, 1632, Note_on_c, 1, 62, 64
1, 1699, Note_on_c, 0, 70, 0
1, 1704, Note_on_c, 0, 74, 75
1, 1721, Note_on_c, 1, 65, 0
1, 1721, Note_on_c, 1, 62, 0
1, 1727, Note_on_c, 0, 74, 0
1, 1728, Note_on_c, 0, 65, 75
1, 1824, Note_on_c, 1, 62, 64
1, 1824, Note_on_c, 1, 53, 64
1, 1854, Note_on_c, 0, 65, 0
1, 1856, Note_on_c, 0, 67, 75
1, 1886, Note_on_c, 0, 67, 0
1, 1888, Note_on_c, 0, 65, 75
1, 1913, Note_on_c, 1, 62, 0
1, 1913, Note_on_c, 1, 53, 0
1, 1918, Note_on_c, 0, 65, 0
1, 1920, Note_on_c, 0, 63, 75
1, 1920, Note_on_c, 1, 60, 64
1, 1920, Note_on_c, 1, 53, 64
1, 1950, Note_on_c, 0, 63, 0
1, 1952, Note_on_c, 0, 62, 75
1, 1982, Note_on_c, 0, 62, 0
1, 1984, Note_on_c, 0, 63, 75
1, 2009, Note_on_c, 1, 60, 0
1, 2009, Note_on_c, 1, 53, 0
1, 2014, Note_on_c, 0, 63, 0
1, 2016, Note_on_c, 0, 63, 75
1, 2016, Note_on_c, 1, 58, 64
1, 2105, Note_on_c, 1, 58, 0
1, 2112, Note_on_c, 0, 63, 0
1, 2112, Note_on_c, 0, 62, 75
1, 2112, Note_on_c, 1, 46, 64
1, 2201, Note_on_c, 0, 62, 0
1, 2201, Note_on_c, 1, 46, 0
1, 2304, Note_on_c, 0, 77, 75
1, 2304, Note_on_c, 0, 74, 75
1, 2304, Note_on_c, 1, 34, 64
1, 2393, Note_on_c, 1, 34, 0
1, 2400, Note_on_c, 1, 46, 64
1, 2445, Note_on_c, 0, 77, 0
1, 2445, Note_on_c, 0, 74, 0
1, 2448, Note_on_c, 0, 79, 75
1, 2471, Note_on_c, 0, 79, 0
1, 2472, Note_on_c, 0, 81, 75
1, 2489, Note_on_c, 1, 46, 0
1, 2495, Note_on_c, 0, 81, 0
1, 2496, Note_on_c, 0, 84, 75
1, 2519, Note_on_c, 0, 84, 0
1, 2520, Note_on_c, 0, 82, 75
1, 2543, Note_on_c, 0, 82, 0
1, 2544, Note_on_c, 0, 81, 75
1, 2567, Note_on_c, 0, 81, 0
1, 2568, Note_on_c, 0, 79, 75
1, 2568, Note_on_c, 1, 75, 64
1, 2591, Note_on_c, 0, 79, 0
1, 2591, Note_on_c, 1, 75, 0
1, 2592, Note_on_c, 0, 77, 75
1, 2592, Note_on_c, 1, 74, 64
1, 2681, Note_on_c, 0, 77, 0
1, 2681, Note_on_c, 1, 74, 0
1, 2688, Note_on_c, 0, 75, 75
1, 2688, Note_on_c, 1, 72, 64
1, 2688, Note_on_c, 1, 66, 64
1, 2697, Note_on_c, 0, 75, 0
1, 2697, Note_on_c, 0, 77, 75
1, 2706, Note_on_c, 0, 77, 0
1, 2706, Note_on_c, 0, 75, 75
1, 2715, Note_on_c, 0, 75, 0
1, 2715, Note_on_c, 0, 77, 75
1, 2724, Note_on_c, 0, 77, 0
1, 2724, Note_on_c, 0, 75, 75
1, 2733, Note_on_c, 0, 75, 0
1, 2733, Note_on_c, 0, 77, 75
1, 2742, Note_on_c, 0, 77, 0
1, 2742, Note_on_c, 0, 75, 75
1, 2751, Note_on_c, 0, 75, 0
1, 2751, Note_on_c, 0, 74, 75
1, 2768, Note_on_c, 0, 74, 0
1, 2768, Note_on_c, 0, 75, 75
1, 2777, Note_on_c, 1, 72, 0
1, 2777, Note_on_c, 1, 66, 0
1, 2784, Note_on_c, 0, 75, 0
1, 2784, Note_on_c, 0, 74, 75
1, 2784, Note_on_c, 1, 70, 64
1, 2784, Note_on_c, 1, 67, 64
1, 2873, Note_on_c, 0, 74, 0
1, 2873, Note_on_c, 1, 70, 0
1, 2873, Note_on_c, 1, 67, 0
1, 2880, Note_on_c, 1, 70, 64
1, 2880, Note_on_c, 1, 63, 64
1, 2928, Note_on_c, 0, 78, 75
1, 2973, Note_on_c, 0, 78, 0
1, 2976, Note_on_c, 0, 79, 75
1, 3021, Note_on_c, 0, 79, 0
1, 3024, Note_on_c, 0, 81, 75
1, 3069, Note_on_c, 0, 81, 0
1, 3072, Note_on_c, 0, 84, 75
1, 3095, Note_on_c, 0, 84, 0
1, 3096, Note_on_c, 0, 82, 75
1, 3119, Note_on_c, 0, 82, 0
1, 3120, Note_on_c, 0, 81, 75
1, 3143, Note_on_c, 0, 81, 0
1, 3144, Note_on_c, 0, 79, 75
1, 3167, Note_on_c, 0, 79, 0
1, 3168, Note_on_c, 0, 79, 75
1, 3168, Note_on_c, 1, 63, 0
1, 3168, Note_on_c, 1, 62, 64
1, 3191, Note_on_c, 0, 79, 0
1, 3192, Note_on_c, 0, 77, 75
1, 3215, Note_on_c, 0, 77, 0
1, 3216, Note_on_c, 0, 76, 75
1, 3239, Note_on_c, 0, 76, 0
1, 3240, Note_on_c, 0, 79, 75
1, 3263, Note_on_c, 0, 79, 0
1, 3264, Note_on_c, 0, 77, 75
1, 3309, Note_on_c, 0, 77, 0
1, 3312, Note_on_c, 0, 79, 75
1, 3324, Note_on_c, 0, 79, 0
1, 3324, Note_on_c, 0, 77, 75
1, 3336, Note_on_c, 0, 77, 0
1, 3336, Note_on_c, 0, 76, 75
1, 3345, Note_on_c, 1, 70, 0
1, 3345, Note_on_c, 1, 62, 0
1, 3348, Note_on_c, 0, 76, 0
1, 3348, Note_on_c, 0, 77, 75
1, 3360, Note_on_c, 0, 77, 0
1, 3360, Note_on_c, 0, 82, 75
1, 3405, Note_on_c, 0, 82, 0
1, 3408, Note_on_c, 0, 74, 75
1, 3453, Note_on_c, 0, 74, 0
1, 3456, Note_on_c, 0, 77, 75
1, 3552, Note_on_c, 1, 69, 64
1, 3552, Note_on_c, 1, 60, 64
1, 3589, Note_on_c, 0, 77, 0
1, 3600, Note_on_c, 0, 75, 75
1, 3612, Note_on_c, 0, 75, 0
1, 3612, Note_on_c, 0, 77, 75
1, 3624, Note_on_c, 0, 77, 0
1, 3624, Note_on_c, 0, 75, 75
1, 3641, Note_on_c, 1, 69, 0
1, 3641, Note_on_c, 1, 60, 0
1, 3645, Note_on_c, 0, 75, 0
1, 3648, Note_on_c, 0, 74, 75
1, 3648, Note_on_c, 1, 70, 64
1, 3648, Note_on_c, 1, 58, 64
1, 3671, Note_on_c, 0, 74, 0
1, 3672, Note_on_c, 0, 75, 75
1, 3695, Note_on_c, 0, 75, 0
1, 3696, Note_on_c, 0, 76, 75
1, 3719, Note_on_c, 0, 76, 0
1, 3720, Note_on_c, 0, 77, 75
1, 3737, Note_on_c, 1, 70, 0
1, 3737, Note_on_c, 1, 58, 0
1, 3743, Note_on_c, 0, 77, 0
1, 3744, Note_on_c, 0, 75, 75
1, 3744, Note_on_c, 1, 70, 64
1, 3744, Note_on_c, 1, 65, 64
1, 3767, Note_on_c, 0, 75, 0
1, 3768, Note_on_c, 0, 74, 75
1, 3791, Note_on_c, 0, 74, 0
1, 3792, Note_on_c, 0, 72, 75
1, 3815, Note_on_c, 0, 72, 0
1, 3816, Note_on_c, 0, 74, 75
1, 3833, Note_on_c, 1, 70, 0
1, 3839, Note_on_c, 0, 74, 0
1, 3840, Note_on_c, 0, 72, 75
1, 3840, Note_on_c, 1, 69, 64
1, 3879, Note_on_c, 0, 72, 0
1, 3921, Note_on_c, 1, 65, 0
1, 3929, Note_on_c, 1, 69, 0
1, 4032, Note_on_c, 1, 41, 64
1, 4080, Note_on_c, 0, 84, 75
1, 4080, Note_on_c, 0, 81, 75
1, 4121, Note_on_c, 1, 41, 0
1, 4125, Note_on_c, 0, 84, 0
1, 4125, Note_on_c, 0, 81, 0
1, 4128, Note_on_c, 0, 82, 75
1, 4128, Note_on_c, 0, 79, 75
1, 4173, Note_on_c, 0, 82, 0
1, 4173, Note_on_c, 0, 79, 0
1, 4176, Note_on_c, 0, 81, 75
1, 4176, Note_on_c, 0, 77, 75
1, 4221, Note_on_c, 0, 81, 0
1, 4221, Note_on_c, 0, 77, 0
1, 4224, Note_on_c, 0, 79, 75
1, 4224, Note_on_c, 0, 76, 75
1, 4269, Note_on_c, 0, 79, 0
1, 4269, Note_on_c, 0, 76, 0
1, 4272, Note_on_c, 0, 81, 75
1, 4272, Note_on_c, 0, 77, 75
1, 4317, Note_on_c, 0, 81, 0
1, 4317, Note_on_c, 0, 77, 0
1, 4320, Note_on_c, 0, 81, 91
1, 4320, Note_on_c, 0, 78, 91
1, 4368, Note_on_c, 1, 60, 64
1, 4413, Note_on_c, 1, 60, 0
1, 4416, Note_on_c, 0, 81, 0
1, 4416, Note_on_c, 0, 78, 0
1, 4416, Note_on_c, 0, 82, 75
1, 4416, Note_on_c, 0, 79, 75
1, 4416, Note_on_c, 1, 48, 64
1, 4461, Note_on_c, 1, 48, 0
1, 4464, Note_on_c, 1, 52, 64
1, 4509, Note_on_c, 1, 52, 0
1, 4512, Note_on_c, 1, 55, 64
1, 4557, Note_on_c, 1, 55, 0
1, 4560, Note_on_c, 1, 59, 64
1, 4605, Note_on_c, 1, 59, 0
1, 4608, Note_on_c, 1, 60, 64
1, 4653, Note_on_c, 0, 82, 0
1, 4653, Note_on_c, 0, 79, 0
1, 4656, Note_on_c, 0, 86, 75
1, 4656, Note_on_c, 0, 82, 75
1, 4697, Note_on_c, 1, 60, 0
1, 4701, Note_on_c, 0, 86, 0
1, 4701, Note_on_c, 0, 82, 0
1, 4704, Note_on_c, 0, 84, 75
1, 4704, Note_on_c, 0, 81, 75
1, 4749, Note_on_c, 0, 84, 0
1, 4749, Note_on_c, 0, 81, 0
1, 4752, Note_on_c, 0, 82, 75
1, 4752, Note_on_c, 0, 79, 75
1, 4797, Note_on_c, 0, 82, 0
1, 4797, Note_on_c, 0, 79, 0
1, 4800, Note_on_c, 0, 81, 75
1, 4800, Note_on_c, 0, 77, 75
1, 4845, Note_on_c, 0, 81, 0
1, 4845, Note_on_c, 0, 77, 0
1, 4848, Note_on_c, 0, 79, 75
1, 4848, Note_on_c, 0, 76, 75
1, 4893, Note_on_c, 0, 79, 0
1, 4893, Note_on_c, 0, 76, 0
1, 4896, Note_on_c, 0, 80, 91
1, 4896, Note_on_c, 0, 76, 91
1, 4944, Note_on_c, 1, 53, 64
1, 4989, Note_on_c, 1, 53, 0
1, 4992, Note_on_c, 0, 80, 0
1, 4992, Note_on_c, 0, 76, 0
1, 4992, Note_on_c, 0, 81, 75
1, 4992, Note_on_c, 0, 77, 75
1, 4992, Note_on_c, 1, 41, 64
1, 5037, Note_on_c, 1, 41, 0
1, 5040, Note_on_c, 1, 45, 64
1, 5085, Note_on_c, 1, 45, 0
1, 5088, Note_on_c, 1, 48, 64
1, 5133, Note_on_c, 1, 48, 0
1, 5136, Note_on_c, 1, 52, 64
1, 5169, Note_on_c, 0, 81, 0
1, 5169, Note_on_c, 0, 77, 0
1, 5181, Note_on_c, 1, 52, 0
1, 5184, Note_on_c, 1, 53, 64
1, 5232, Note_on_c, 0, 80, 75
1, 5277, Note_on_c, 0, 80, 0
1, 5280, Note_on_c, 0, 81, 75
1, 5325, Note_on_c, 0, 81, 0
1, 5328, Note_on_c, 0, 76, 75
1, 5373, Note_on_c, 0, 76, 0
1, 5376, Note_on_c, 0, 77, 75
1, 5421, Note_on_c, 0, 77, 0
1, 5424, Note_on_c, 0, 74, 75
1, 5449, Note_on_c, 1, 53, 0
1, 5469, Note_on_c, 0, 74, 0
1, 5472, Note_on_c, 0, 72, 75
1, 5517, Note_on_c, 0, 72, 0
1, 5520, Note_on_c, 0, 71, 75
1, 5568, Note_on_c, 1, 65, 64
1, 5609, Note_on_c, 0, 71, 0
1, 5616, Note_on_c, 0, 80, 75
1, 5657, Note_on_c, 1, 65, 0
1, 5664, Note_on_c, 1, 64, 64
1, 5705, Note_on_c, 0, 80, 0
1, 5712, Note_on_c, 0, 79, 75
1, 5760, Note_on_c, 1, 70, 64
1, 5805, Note_on_c, 0, 79, 0
1, 5808, Note_on_c, 0, 86, 75
1, 5849, Note_on_c, 1, 70, 0
1, 5856, Note_on_c, 1, 67, 64
1, 5897, Note_on_c, 0, 86, 0
1, 5904, Note_on_c, 0, 84, 75
1, 5945, Note_on_c, 1, 67, 0
1, 5949, Note_on_c, 0, 84, 0
1, 5952, Note_on_c, 0, 84, 75
1, 5952, Note_on_c, 1, 72, 64
1, 5986, Note_on_c, 0, 84, 0
1, 5988, Note_on_c, 0, 82, 75
1, 6000, Note_on_c, 0, 82, 0
1, 6000, Note_on_c, 0, 84, 75
1, 6012, Note_on_c, 0, 84, 0
1, 6012, Note_on_c, 0, 82, 75
1, 6024, Note_on_c, 0, 82, 0
1, 6024, Note_on_c, 0, 81, 75
1, 6025, Note_on_c, 1, 64, 0
1, 6036, Note_on_c, 0, 81, 0
1, 6036, Note_on_c, 0, 82, 75
1, 6048, Note_on_c, 0, 82, 0
1, 6048, Note_on_c, 0, 82, 75
1, 6048, Note_on_c, 1, 65, 64
1, 6093, Note_on_c, 0, 82, 0
1, 6096, Note_on_c, 0, 80, 75
1, 6141, Note_on_c, 0, 80, 0
1, 6144, Note_on_c, 0, 81, 75
1, 6181, Note_on_c, 1, 72, 0
1, 6192, Note_on_c, 1, 73, 64
1, 6237, Note_on_c, 1, 73, 0
1, 6240, Note_on_c, 1, 74, 64
1, 6263, Note_on_c, 0, 81, 0
1, 6264, Note_on_c, 0, 84, 75
1, 6287, Note_on_c, 0, 84, 0
1, 6288, Note_on_c, 0, 82, 75
1, 6311, Note_on_c, 0, 82, 0
1, 6312, Note_on_c, 0, 81, 75
1, 6313, Note_on_c, 1, 65, 0
1, 6335, Note_on_c, 0, 81, 0
1, 6336, Note_on_c, 0, 81, 75
1, 6336, Note_on_c, 1, 64, 64
1, 6381, Note_on_c, 0, 81, 0
1, 6384, Note_on_c, 0, 78, 75
1, 6429, Note_on_c, 0, 78, 0
1, 6432, Note_on_c, 0, 79, 75
1, 6469, Note_on_c, 1, 74, 0
1, 6480, Note_on_c, 1, 71, 64
1, 6525, Note_on_c, 1, 71, 0
1, 6528, Note_on_c, 1, 72, 64
1, 6551, Note_on_c, 0, 79, 0
1, 6552, Note_on_c, 0, 82, 75
1, 6575, Note_on_c, 0, 82, 0
1, 6576, Note_on_c, 0, 81, 75
1, 6599, Note_on_c, 0, 81, 0
1, 6600, Note_on_c, 0, 79, 75
1, 6601, Note_on_c, 1, 64, 0
1, 6623, Note_on_c, 0, 79, 0
1, 6624, Note_on_c, 0, 79, 75
1, 6624, Note_on_c, 1, 62, 64
1, 6669, Note_on_c, 0, 79, 0
1, 6672, Note_on_c, 0, 77, 75
1, 6713, Note_on_c, 1, 72, 0
1, 6720, Note_on_c, 1, 69, 64
1, 6761, Note_on_c, 0, 77, 0
1, 6768, Note_on_c, 0, 77, 75
1, 6809, Note_on_c, 1, 69, 0
1, 6816, Note_on_c, 1, 71, 64
1, 6839, Note_on_c, 0, 77, 0
1, 6840, Note_on_c, 0, 81, 75
1, 6863, Note_on_c, 0, 81, 0
1, 6864, Note_on_c, 0, 79, 75
1, 6887, Note_on_c, 0, 79, 0
1, 6888, Note_on_c, 0, 77, 75
1, 6889, Note_on_c, 1, 62, 0
1, 6905, Note_on_c, 1, 71, 0
1, 6911, Note_on_c, 0, 77, 0
1, 6912, Note_on_c, 0, 77, 75
1, 6912, Note_on_c, 1, 71, 64
1, 6912, Note_on_c, 1, 60, 64
1, 7008, Note_on_c, 1, 71, 0
1, 7008, Note_on_c, 1, 72, 64
1, 7053, Note_on_c, 0, 77, 0
1, 7056, Note_on_c, 0, 75, 75
1, 7089, Note_on_c, 1, 60, 0
1, 7097, Note_on_c, 1, 72, 0
1, 7101, Note_on_c, 0, 75, 0
1, 7104, Note_on_c, 0, 76, 75
1, 7127, Note_on_c, 0, 76, 0
1, 7128, Note_on_c, 0, 79, 75
1, 7151, Note_on_c, 0, 79, 0
1, 7152, Note_on_c, 0, 77, 75
1, 7175, Note_on_c, 0, 77, 0
1, 7176, Note_on_c, 0, 81, 75
1, 7199, Note_on_c, 0, 81, 0
1, 7200, Note_on_c, 0, 79, 75
1, 7223, Note_on_c, 0, 79, 0
1, 7224, Note_on_c, 0, 82, 75
1, 7247, Note_on_c, 0, 82, 0
1, 7248, Note_on_c, 0, 81, 75
1, 7271, Note_on_c, 0, 81, 0
1, 7272, Note_on_c, 0, 84, 75
1, 7295, Note_on_c, 0, 84, 0
1, 7296, Note_on_c, 0, 82, 75
1, 7319, Note_on_c, 0, 82, 0
1, 7320, Note_on_c, 0, 81, 75
1, 7343, Note_on_c, 0, 81, 0
1, 7344, Note_on_c, 0, 79, 75
1, 7367, Note_on_c, 0, 79, 0
1, 7368, Note_on_c, 0, 77, 75
1, 7391, Note_on_c, 0, 77, 0
1, 7392, Note_on_c, 0, 76, 75
1, 7415, Note_on_c, 0, 76, 0
1, 7416, Note_on_c, 0, 74, 75
1, 7439, Note_on_c, 0, 74, 0
1, 7440, Note_on_c, 0, 72, 75
1, 7463, Note_on_c, 0, 72, 0
1, 7464, Note_on_c, 0, 70, 75
1, 7487, Note_on_c, 0, 70, 0
1, 7488, Note_on_c, 0, 69, 75
1, 7533, Note_on_c, 0, 69, 0
1, 7536, Note_on_c, 0, 77, 75
1, 7584, Note_on_c, 1, 62, 64
1, 7632, Note_on_c, 0, 70, 64
1, 7669, Note_on_c, 0, 77, 0
1, 7673, Note_on_c, 1, 62, 0
1, 7677, Note_on_c, 0, 70, 0
1, 7680, Note_on_c, 0, 76, 75
1, 7680, Note_on_c, 0, 72, 64
1, 7680, Note_on_c, 1, 60, 64
1, 7686, Note_on_c, 0, 72, 0
1, 7686, Note_on_c, 0, 70, 64
1, 7725, Note_on_c, 0, 70, 0
1, 7728, Note_on_c, 0, 69, 64
1, 7769, Note_on_c, 0, 76, 0
1, 7769, Note_on_c, 1, 60, 0
1, 7773, Note_on_c, 0, 69, 0
1, 7776, Note_on_c, 0, 74, 75
1, 7824, Note_on_c, 0, 62, 64
1, 7869, Note_on_c, 0, 62, 0
1, 7872, Note_on_c, 0, 66, 64
1, 7872, Note_on_c, 1, 58, 64
1, 7917, Note_on_c, 0, 66, 0
1, 7920, Note_on_c, 0, 67, 64
1, 7953, Note_on_c, 0, 74, 0
1, 7961, Note_on_c, 1, 58, 0
1, 7965, Note_on_c, 0, 67, 0
1, 7968, Note_on_c, 0, 72, 75
1, 7968, Note_on_c, 0, 69, 64
1, 7968, Note_on_c, 1, 57, 64
1, 7974, Note_on_c, 0, 69, 0
1, 7974, Note_on_c, 0, 67, 64
1, 8013, Note_on_c, 0, 67, 0
1, 8016, Note_on_c, 0, 65, 64
1, 8057, Note_on_c, 0, 72, 0
1, 8057, Note_on_c, 1, 57, 0
1, 8064, Note_on_c, 0, 70, 75
1, 8064, Note_on_c, 1, 55, 64
1, 8109, Note_on_c, 0, 65, 0
1, 8112, Note_on_c, 0, 62, 64
1, 8153, Note_on_c, 1, 55, 0
1, 8157, Note_on_c, 0, 62, 0
1, 8160, Note_on_c, 0, 64, 64
1, 8160, Note_on_c, 1, 48, 64
1, 8205, Note_on_c, 0, 64, 0
1, 8208, Note_on_c, 0, 67, 64
1, 8249, Note_on_c, 1, 48, 0
1, 8253, Note_on_c, 0, 67, 0
1, 8256, Note_on_c, 0, 60, 64
1, 8256, Note_on_c, 1, 53, 64
1, 8301, Note_on_c, 0, 70, 0
1, 8304, Note_on_c, 0, 69, 75
1, 8345, Note_on_c, 0, 60, 0
1, 8345, Note_on_c, 1, 53, 0
1, 8352, Note_on_c, 0, 58, 64
1, 8352, Note_on_c, 1, 46, 64
1, 8375, Note_on_c, 0, 69, 0
1, 8376, Note_on_c, 0, 67, 75
1, 8399, Note_on_c, 0, 67, 0
1, 8400, Note_on_c, 0, 70, 75
1, 8423, Note_on_c, 0, 70, 0
1, 8424, Note_on_c, 0, 67, 75
1, 8441, Note_on_c, 0, 58, 0
1, 8441, Note_on_c, 1, 46, 0
1, 8447, Note_on_c, 0, 67, 0
1, 8448, Note_on_c, 0, 65, 75
1, 8448, Note_on_c, 0, 57, 64
1, 8448, Note_on_c, 1, 48, 64
1, 8537, Note_on_c, 0, 65, 0
1, 8537, Note_on_c, 0, 57, 0
1, 8544, Note_on_c, 0, 64, 75
1, 8544, Note_on_c, 0, 55, 64
1, 8555, Note_on_c, 0, 64, 0
1, 8555, Note_on_c, 0, 65, 75
1, 8566, Note_on_c, 0, 65, 0
1, 8566, Note_on_c, 0, 64, 75
1, 8577, Note_on_c, 0, 64, 0
1, 8577, Note_on_c, 0, 65, 75
1, 8588, Note_on_c, 0, 65, 0
1, 8588, Note_on_c, 0, 64, 75
1, 8599, Note_on_c, 0, 64, 0
1, 8599, Note_on_c, 0, 62, 75
1, 8620, Note_on_c, 0, 62, 0
1, 8620, Note_on_c, 0, 64, 75
1, 8625, Note_on_c, 1, 48, 0
1, 8633, Note_on_c, 0, 55, 0
1, 8640, Note_on_c, 0, 64, 0
1, 8640, Note_on_c, 0, 77, 75
1, 8640, Note_on_c, 1, 50, 64
1, 8688, Note_on_c, 0, 70, 64
1, 8729, Note_on_c, 1, 50, 0
1, 8733, Note_on_c, 0, 70, 0
1, 8736, Note_on_c, 0, 72, 64
1, 8736, Note_on_c, 1, 62, 64
1, 8759, Note_on_c, 0, 72, 0
1, 8760, Note_on_c, 0, 70, 64
1, 8783, Note_on_c, 0, 70, 0
1, 8784, Note_on_c, 0, 69, 64
1, 8807, Note_on_c, 0, 69, 0
1, 8808, Note_on_c, 0, 70, 64
1, 8817, Note_on_c, 0, 77, 0
1, 8825, Note_on_c, 1, 62, 0
1, 8831, Note_on_c, 0, 70, 0
1, 8832, Note_on_c, 0, 76, 75
1, 8832, Note_on_c, 0, 70, 64
1, 8832, Note_on_c, 1, 60, 64
1, 8877, Note_on_c, 0, 70, 0
1, 8880, Note_on_c, 0, 69, 64
1, 8921, Note_on_c, 0, 76, 0
1, 8921, Note_on_c, 1, 60, 0
1, 8928, Note_on_c, 0, 74, 75
1, 8928, Note_on_c, 1, 46, 64
1, 8973, Note_on_c, 0, 69, 0
1, 8976, Note_on_c, 0, 67, 64
1, 9017, Note_on_c, 1, 46, 0
1, 9021, Note_on_c, 0, 67, 0
1, 9024, Note_on_c, 0, 69, 64
1, 9024, Note_on_c, 1, 58, 64
1, 9047, Note_on_c, 0, 69, 0
1, 9048, Note_on_c, 0, 67, 64
1, 9071, Note_on_c, 0, 67, 0
1, 9072, Note_on_c, 0, 66, 64
1, 9095, Note_on_c, 0, 66, 0
1, 9096, Note_on_c, 0, 67, 64
1, 9105, Note_on_c, 0, 74, 0
1, 9113, Note_on_c, 1, 58, 0
1, 9119, Note_on_c, 0, 67, 0
1, 9120, Note_on_c, 0, 72, 75
1, 9120, Note_on_c, 0, 67, 64
1, 9120, Note_on_c, 1, 57, 64
1, 9165, Note_on_c, 0, 67, 0
1, 9168, Note_on_c, 0, 65, 64
1, 9209, Note_on_c, 0, 72, 0
1, 9209, Note_on_c, 1, 57, 0
1, 9216, Note_on_c, 0, 70, 75
1, 9216, Note_on_c, 1, 55, 64
1, 9261, Note_on_c, 0, 65, 0
1, 9264, Note_on_c, 0, 65, 64
1, 9309, Note_on_c, 0, 65, 0
1, 9312, Note_on_c, 0, 67, 64
1, 9335, Note_on_c, 0, 67, 0
1, 9336, Note_on_c, 0, 65, 64
1, 9359, Note_on_c, 0, 65, 0
1, 9360, Note_on_c, 0, 64, 64
1, 9383, Note_on_c, 0, 64, 0
1, 9384, Note_on_c, 0, 65, 64
1, 9407, Note_on_c, 0, 65, 0
1, 9408, Note_on_c, 0, 64, 64
1, 9453, Note_on_c, 0, 70, 0
1, 9456, Note_on_c, 0, 70, 75
1, 9501, Note_on_c, 0, 70, 0
1, 9504, Note_on_c, 0, 72, 75
1, 9527, Note_on_c, 0, 72, 0
1, 9528, Note_on_c, 0, 70, 75
1, 9551, Note_on_c, 0, 70, 0
1, 9552, Note_on_c, 0, 69, 75
1, 9575, Note_on_c, 0, 69, 0
1, 9576, Note_on_c, 0, 70, 75
1, 9599, Note_on_c, 0, 70, 0
1, 9600, Note_on_c, 0, 79, 75
1, 9600, Note_on_c, 0, 70, 75
1, 9648, Note_on_c, 1, 60, 64
1, 9693, Note_on_c, 1, 60, 0
1, 9696, Note_on_c, 1, 59, 64
1, 9719, Note_on_c, 1, 59, 0
1, 9720, Note_on_c, 1, 60, 64
1, 9743, Note_on_c, 1, 60, 0
1, 9744, Note_on_c, 1, 62, 64
1, 9767, Note_on_c, 1, 62, 0
1, 9768, Note_on_c, 1, 60, 64
1, 9791, Note_on_c, 1, 60, 0
1, 9792, Note_on_c, 1, 60, 64
1, 9969, Note_on_c, 0, 79, 0
1, 9969, Note_on_c, 0, 70, 0
1, 9969, Note_on_c, 0, 64, 0
1, 9969, Note_on_c, 1, 55, 0
1, 9969, Note_on_c, 1, 60, 0
1, 10032, Note_on_c, 0, 76, 75
1, 10032, Note_on_c, 1, 70, 64
1, 10056, Note_on_c, 0, 76, 0
1, 10056, Note_on_c, 0, 72, 75
1, 10079, Note_on_c, 0, 72, 0
1, 10080, Note_on_c, 0, 77, 75
1, 10080, Note_on_c, 1, 70, 0
1, 10080, Note_on_c, 1, 69, 64
1, 10100, Note_on_c, 0, 77, 0
1, 10100, Note_on_c, 1, 69, 0
1, 10128, Note_on_c, 0, 76, 75
1, 10128, Note_on_c, 1, 70, 64
1, 10152, Note_on_c, 0, 76, 0
1, 10152, Note_on_c, 0, 72, 75
1, 10175, Note_on_c, 0, 72, 0
1, 10176, Note_on_c, 0, 77, 75
1, 10176, Note_on_c, 1, 70, 0
1, 10176, Note_on_c, 1, 69, 64
1, 10196, Note_on_c, 0, 77, 0
1, 10196, Note_on_c, 1, 69, 0
1, 10224, Note_on_c, 0, 76, 75
1, 10224, Note_on_c, 1, 70, 64
1, 10248, Note_on_c, 0, 76, 0
1, 10248, Note_on_c, 0, 72, 75
1, 10271, Note_on_c, 0, 72, 0
1, 10272, Note_on_c, 0, 77, 75
1, 10272, Note_on_c, 1, 70, 0
1, 10272, Note_on_c, 1, 69, 64
1, 10292, Note_on_c, 0, 77, 0
1, 10292, Note_on_c, 1, 69, 0
1, 10320, Note_on_c, 0, 79, 75
1, 10320, Note_on_c, 1, 64, 64
1, 10344, Note_on_c, 0, 79, 0
1, 10344, Note_on_c, 0, 72, 75
1, 10365, Note_on_c, 1, 64, 0
1, 10367, Note_on_c, 0, 72, 0
1, 10368, Note_on_c, 0, 81, 75
1, 10368, Note_on_c, 1, 65, 64
1, 10388, Note_on_c, 0, 81, 0
1, 10415, Note_on_c, 1, 65, 0
1, 10416, Note_on_c, 0, 82, 75
1, 10416, Note_on_c, 1, 67, 64
1, 10439, Note_on_c, 0, 82, 0
1, 10440, Note_on_c, 0, 72, 75
1, 10461, Note_on_c, 1, 67, 0
1, 10463, Note_on_c, 0, 72, 0
1, 10464, Note_on_c, 0, 84, 75
1, 10464, Note_on_c, 1, 69, 64
1, 10484, Note_on_c, 0, 84, 0
1, 10509, Note_on_c, 1, 69, 0
1, 10560, Note_on_c, 0, 82, 75
1, 10583, Note_on_c, 0, 82, 0
1, 10584, Note_on_c, 0, 81, 75
1, 10607, Note_on_c, 0, 81, 0
1, 10608, Note_on_c, 0, 79, 75
1, 10608, Note_on_c, 1, 57, 64
1, 10631, Note_on_c, 0, 79, 0
1, 10632, Note_on_c, 0, 77, 75
1, 10653, Note_on_c, 1, 57, 0
1, 10655, Note_on_c, 0, 77, 0
1, 10656, Note_on_c, 0, 76, 75
1, 10656, Note_on_c, 1, 58, 64
1, 10679, Note_on_c, 0, 76, 0
1, 10680, Note_on_c, 0, 74, 75
1, 10703, Note_on_c, 0, 74, 0
1, 10704, Note_on_c, 0, 72, 75
1, 10727, Note_on_c, 0, 72, 0
1, 10728, Note_on_c, 0, 70, 75
1, 10745, Note_on_c, 1, 58, 0
1, 10751, Note_on_c, 0, 70, 0
1, 10752, Note_on_c, 0, 69, 75
1, 10752, Note_on_c, 1, 60, 64
1, 10841, Note_on_c, 0, 69, 0
1, 10841, Note_on_c, 1, 60, 0
1, 10848, Note_on_c, 0, 67, 75
1, 10848, Note_on_c, 1, 48, 64
1, 10857, Note_on_c, 0, 67, 0
1, 10857, Note_on_c, 0, 69, 75
1, 10866, Note_on_c, 0, 69, 0
1, 10866, Note_on_c, 0, 67, 75
1, 10875, Note_on_c, 0, 67, 0
1, 10875, Note_on_c, 0, 69, 75
1, 10884, Note_on_c, 0, 69, 0
1, 10884, Note_on_c, 0, 67, 75
1, 10893, Note_on_c, 0, 67, 0
1, 10893, Note_on_c, 0, 69, 75
1, 10902, Note_on_c, 0, 69, 0
1, 10902, Note_on_c, 0, 67, 75
1, 10911, Note_on_c, 0, 67, 0
1, 10911, Note_on_c, 0, 65, 75
1, 10928, Note_on_c, 0, 65, 0
1, 10928, Note_on_c, 0, 67, 75
1, 10937, Note_on_c, 1, 48, 0
1, 10944, Note_on_c, 0, 67, 0
1, 10944, Note_on_c, 0, 65, 75
1, 10944, Note_on_c, 1, 53, 64
1, 10989, Note_on_c, 0, 65, 0
1, 10989, Note_on_c, 1, 53, 0
1, 10992, Note_on_c, 0, 76, 75
1, 10992, Note_on_c, 1, 70, 64
1, 11015, Note_on_c, 0, 76, 0
1, 11016, Note_on_c, 0, 72, 75
1, 11037, Note_on_c, 1, 70, 0
1, 11039, Note_on_c, 0, 72, 0
1, 11040, Note_on_c, 0, 77, 75
1, 11040, Note_on_c, 1, 69, 64
1, 11063, Note_on_c, 0, 77, 0
1, 11064, Note_on_c, 0, 72, 75
1, 11085, Note_on_c, 1, 69, 0
1, 11087, Note_on_c, 0, 72, 0
1, 11088, Note_on_c, 0, 76, 75
1, 11088, Note_on_c, 1, 70, 64
1, 11111, Note_on_c, 0, 76, 0
1, 11112, Note_on_c, 0, 72, 75
1, 11133, Note_on_c, 1, 70, 0
1, 11135, Note_on_c, 0, 72, 0
1, 11136, Note_on_c, 0, 77, 75
1, 11136, Note_on_c, 1, 69, 64
1, 11159, Note_on_c, 0, 77, 0
1, 11160, Note_on_c, 0, 72, 75
1, 11181, Note_on_c, 1, 69, 0
1, 11183, Note_on_c, 0, 72, 0
1, 11184, Note_on_c, 0, 79, 75
1, 11184, Note_on_c, 1, 64, 64
1, 11207, Note_on_c, 0, 79, 0
1, 11208, Note_on_c, 0, 72, 75
1, 11229, Note_on_c, 1, 64, 0
1, 11231, Note_on_c, 0, 72, 0
1, 11232, Note_on_c, 0, 81, 75
1, 11232, Note_on_c, 1, 65, 64
1, 11255, Note_on_c, 0, 81, 0
1, 11256, Note_on_c, 0, 72, 75
1, 11277, Note_on_c, 1, 65, 0
1, 11279, Note_on_c, 0, 72, 0
1, 11280, Note_on_c, 0, 82, 75
1, 11280, Note_on_c, 1, 67, 64
1, 11303, Note_on_c, 0, 82, 0
1, 11304, Note_on_c, 0, 72, 75
1, 11325, Note_on_c, 1, 67, 0
1, 11327, Note_on_c, 0, 72, 0
1, 11328, Note_on_c, 0, 84, 75
1, 11328, Note_on_c, 1, 69, 64
1, 11348, Note_on_c, 0, 84, 0
1, 11373, Note_on_c, 1, 69, 0
1, 11376, Note_on_c, 0, 77, 75
1, 11399, Note_on_c, 0, 77, 0
1, 11400, Note_on_c, 0, 89, 75
1, 11423, Note_on_c, 0, 89, 0
1, 11424, Note_on_c, 0, 76, 75
1, 11447, Note_on_c, 0, 76, 0
1, 11448, Note_on_c, 0, 88, 75
1, 11471, Note_on_c, 0, 88, 0
1, 11472, Note_on_c, 0, 75, 75
1, 11472, Note_on_c, 1, 57, 64
1, 11495, Note_on_c, 0, 75, 0
1, 11496, Note_on_c, 0, 87, 75
1, 11517, Note_on_c, 1, 57, 0
1, 11519, Note_on_c, 0, 87, 0
1, 11520, Note_on_c, 0, 74, 75
1, 11520, Note_on_c, 1, 58, 64
1, 11543, Note_on_c, 0, 74, 0
1, 11544, Note_on_c, 0, 86, 75
1, 11544, Note_on_c, 0, 82, 75
1, 11567, Note_on_c, 0, 86, 0
1, 11567, Note_on_c, 0, 82, 0
1, 11568, Note_on_c, 0, 84, 75
1, 11568, Note_on_c, 0, 81, 75
1, 11591, Note_on_c, 0, 84, 0
1, 11591, Note_on_c, 0, 81, 0
1, 11592, Note_on_c, 0, 82, 75
1, 11592, Note_on_c, 0, 79, 75
1, 11609, Note_on_c, 1, 58, 0
1, 11615, Note_on_c, 0, 82, 0
1, 11615, Note_on_c, 0, 79, 0
1, 11616, Note_on_c, 0, 81, 75
1, 11616, Note_on_c, 0, 77, 75
1, 11616, Note_on_c, 1, 60, 64
1, 11705, Note_on_c, 0, 81, 0
1, 11705, Note_on_c, 0, 77, 0
1, 11705, Note_on_c, 1, 60, 0
1, 11712, Note_on_c, 0, 79, 75
1, 11712, Note_on_c, 0, 76, 64
1, 11712, Note_on_c, 1, 48, 64
1, 11721, Note_on_c, 0, 79, 0
1, 11721, Note_on_c, 0, 81, 75
1, 11730, Note_on_c, 0, 81, 0
1, 11730, Note_on_c, 0, 79, 75
1, 11739, Note_on_c, 0, 79, 0
1, 11739, Note_on_c, 0, 81, 75
1, 11748, Note_on_c, 0, 81, 0
1, 11748, Note_on_c, 0, 79, 75
1, 11757, Note_on_c, 0, 79, 0
1, 11757, Note_on_c, 0, 81, 75
1, 11766, Note_on_c, 0, 81, 0
1, 11766, Note_on_c, 0, 79, 75
1, 11775, Note_on_c, 0, 79, 0
1, 11775, Note_on_c, 0, 77, 75
1, 11792, Note_on_c, 0, 77, 0
1, 11792, Note_on_c, 0, 79, 75
1, 11801, Note_on_c, 0, 76, 0
1, 11801, Note_on_c, 1, 48, 0
1, 11808, Note_on_c, 0, 79, 0
1, 11808, Note_on_c, 0, 77, 75
1, 11808, Note_on_c, 1, 53, 64
1, 11897, Note_on_c, 0, 77, 0
1, 11897, Note_on_c, 1, 53, 0
1, 11904, Note_on_c, 1, 41, 64
1, 11952, Note_on_c, 0, 72, 70
1, 11952, Note_on_c, 0, 69, 70
1, 11993, Note_on_c, 1, 41, 0
1, 12000, Note_on_c, 0, 72, 0
1, 12000, Note_on_c, 0, 69, 0
1, 12000, Note_on_c, 0, 74, 70
1, 12000, Note_on_c, 0, 70, 70
1, 12045, Note_on_c, 0, 74, 0
1, 12045, Note_on_c, 0, 70, 0
1, 12048, Note_on_c, 0, 70, 70
1, 12048, Note_on_c, 0, 64, 70
1, 12068, Note_on_c, 0, 70, 0
1, 12068, Note_on_c, 0, 64, 0
1, 12096, Note_on_c, 0, 70, 70
1, 12096, Note_on_c, 0, 64, 70
1, 12096, Note_on_c, 1, 53, 64
1, 12185, Note_on_c, 1, 53, 0
1, 12192, Note_on_c, 0, 70, 0
1, 12192, Note_on_c, 0, 64, 0
1, 12192, Note_on_c, 0, 69, 70
1, 12192, Note_on_c, 0, 65, 70
1, 12192, Note_on_c, 1, 41, 64
1, 12212, Note_on_c, 0, 69, 0
1, 12212, Note_on_c, 0, 65, 0
1, 12240, Note_on_c, 0, 69, 70
1, 12240, Note_on_c, 0, 60, 70
1, 12281, Note_on_c, 1, 41, 0
1, 12288, Note_on_c, 0, 69, 0
1, 12288, Note_on_c, 0, 60, 0
1, 12288, Note_on_c, 0, 70, 70
1, 12288, Note_on_c, 0, 62, 70
1, 12333, Note_on_c, 0, 70, 0
1, 12333, Note_on_c, 0, 62, 0
1, 12336, Note_on_c, 0, 64, 70
1, 12336, Note_on_c, 0, 58, 70
1, 12356, Note_on_c, 0, 64, 0
1, 12356, Note_on_c, 0, 58, 0
1, 12384, Note_on_c, 0, 64, 70
1, 12384, Note_on_c, 0, 58, 70
1, 12384, Note_on_c, 1, 53, 64
1, 12473, Note_on_c, 1, 53, 0
1, 12480, Note_on_c, 0, 64, 0
1, 12480, Note_on_c, 0, 58, 0
1, 12480, Note_on_c, 0, 65, 70
1, 12480, Note_on_c, 0, 57, 70
1, 12480, Note_on_c, 1, 41, 64
1, 12500, Note_on_c, 0, 65, 0
1, 12500, Note_on_c, 0, 57, 0
1, 12528, Note_on_c, 0, 60, 70
1, 12528, Note_on_c, 0, 57, 70
1, 12569, Note_on_c, 1, 41, 0
1, 12573, Note_on_c, 0, 60, 0
1, 12573, Note_on_c, 0, 57, 0
1, 12576, Note_on_c, 0, 62, 70
1, 12576, Note_on_c, 0, 58, 70
1, 12621, Note_on_c, 0, 62, 0
1, 12621, Note_on_c, 0, 58, 0
1, 12624, Note_on_c, 1, 52, 64
1, 12624, Note_on_c, 1, 46, 64
1, 12644, Note_on_c, 1, 52, 0
1, 12644, Note_on_c, 1, 46, 0
1, 12672, Note_on_c, 1, 52, 64
1, 12672, Note_on_c, 1, 46, 64
1, 12768, Note_on_c, 1, 52, 0
1, 12768, Note_on_c, 1, 46, 0
1, 12768, Note_on_c, 1, 53, 64
1, 12768, Note_on_c, 1, 45, 64
1, 12857, Note_on_c, 1, 53, 0
1, 12857, Note_on_c, 1, 45, 0
1, 12960, Note_on_c, 0, 77, 75
1, 12960, Note_on_c, 0, 74, 75
1, 12960, Note_on_c, 1, 46, 64
1, 13049, Note_on_c, 1, 46, 0
1, 13056, Note_on_c, 1, 58, 64
1, 13137, Note_on_c, 0, 77, 0
1, 13137, Note_on_c, 0, 74, 0
1, 13145, Note_on_c, 1, 58, 0
1, 13152, Note_on_c, 0, 81, 75
1, 13158, Note_on_c, 0, 81, 0
1, 13158, Note_on_c, 0, 79, 75
1, 13158, Note_on_c, 0, 75, 75
1, 13219, Note_on_c, 0, 79, 0
1, 13219, Note_on_c, 0, 75, 0
1, 13224, Note_on_c, 0, 77, 75
1, 13224, Note_on_c, 0, 74, 75
1, 13247, Note_on_c, 0, 77, 0
1, 13247, Note_on_c, 0, 74, 0
1, 13248, Note_on_c, 0, 77, 75
1, 13248, Note_on_c, 0, 74, 75
1, 13337, Note_on_c, 0, 77, 0
1, 13337, Note_on_c, 0, 74, 0
1, 13344, Note_on_c, 0, 75, 75
1, 13344, Note_on_c, 0, 72, 64
1, 13344, Note_on_c, 1, 65, 64
1, 13353, Note_on_c, 0, 75, 0
1, 13353, Note_on_c, 0, 77, 75
1, 13362, Note_on_c, 0, 77, 0
1, 13362, Note_on_c, 0, 75, 75
1, 13371, Note_on_c, 0, 75, 0
1, 13371, Note_on_c, 0, 77, 75
1, 13380, Note_on_c, 0, 77, 0
1, 13380, Note_on_c, 0, 75, 75
1, 13389, Note_on_c, 0, 75, 0
1, 13389, Note_on_c, 0, 77, 75
1, 13398, Note_on_c, 0, 77, 0
1, 13398, Note_on_c, 0, 75, 75
1, 13407, Note_on_c, 0, 75, 0
1, 13407, Note_on_c, 0, 74, 75
1, 13424, Note_on_c, 0, 74, 0
1, 13424, Note_on_c, 0, 75, 75
1, 13433, Note_on_c, 0, 72, 0
1, 13433, Note_on_c, 1, 65, 0
1, 13440, Note_on_c, 0, 75, 0
1, 13440, Note_on_c, 0, 74, 75
1, 13440, Note_on_c, 0, 70, 75
1, 13440, Note_on_c, 1, 67, 64
1, 13529, Note_on_c, 0, 74, 0
1, 13529, Note_on_c, 0, 70, 0
1, 13529, Note_on_c, 1, 67, 0
1, 13536, Note_on_c, 0, 79, 75
1, 13536, Note_on_c, 1, 70, 64
1, 13536, Note_on_c, 1, 63, 64
1, 13546, Note_on_c, 0, 79, 0
1, 13560, Note_on_c, 0, 81, 75
1, 13568, Note_on_c, 0, 81, 0
1, 13568, Note_on_c, 0, 79, 75
1, 13576, Note_on_c, 0, 79, 0
1, 13576, Note_on_c, 0, 78, 75
1, 13584, Note_on_c, 0, 78, 0
1, 13584, Note_on_c, 0, 79, 75
1, 13607, Note_on_c, 0, 79, 0
1, 13608, Note_on_c, 0, 81, 75
1, 13625, Note_on_c, 1, 70, 0
1, 13625, Note_on_c, 1, 63, 0
1, 13631, Note_on_c, 0, 81, 0
1, 13632, Note_on_c, 0, 82, 75
1, 13632, Note_on_c, 1, 70, 64
1, 13632, Note_on_c, 1, 62, 64
1, 13699, Note_on_c, 0, 82, 0
1, 13704, Note_on_c, 0, 81, 75
1, 13721, Note_on_c, 1, 70, 0
1, 13721, Note_on_c, 1, 62, 0
1, 13727, Note_on_c, 0, 81, 0
1, 13728, Note_on_c, 0, 79, 75
1, 13795, Note_on_c, 0, 79, 0
1, 13800, Note_on_c, 0, 77, 75
1, 13823, Note_on_c, 0, 77, 0
1, 13824, Note_on_c, 0, 77, 75
1, 13824, Note_on_c, 1, 60, 64
1, 13920, Note_on_c, 0, 77, 0
1, 13920, Note_on_c, 0, 75, 75
1, 13920, Note_on_c, 1, 69, 64
1, 14001, Note_on_c, 0, 75, 0
1, 14001, Note_on_c, 1, 60, 0
1, 14009, Note_on_c, 1, 69, 0
1, 14016, Note_on_c, 0, 74, 75
1, 14016, Note_on_c, 1, 70, 64
1, 14016, Note_on_c, 1, 58, 64
1, 14105, Note_on_c, 0, 74, 0
1, 14110, Note_on_c, 1, 70, 0
1, 14110, Note_on_c, 1, 58, 0
1, 14112, Note_on_c, 0, 72, 75
1, 14112, Note_on_c, 1, 67, 64
1, 14112, Note_on_c, 1, 63, 64
1, 14121, Note_on_c, 0, 72, 0
1, 14121, Note_on_c, 0, 74, 75
1, 14130, Note_on_c, 0, 74, 0
1, 14130, Note_on_c, 0, 72, 75
1, 14139, Note_on_c, 0, 72, 0
1, 14139, Note_on_c, 0, 74, 75
1, 14148, Note_on_c, 0, 74, 0
1, 14148, Note_on_c, 0, 72, 75
1, 14157, Note_on_c, 0, 72, 0
1, 14157, Note_on_c, 0, 74, 75
1, 14166, Note_on_c, 0, 74, 0
1, 14166, Note_on_c, 0, 72, 75
1, 14175, Note_on_c, 0, 72, 0
1, 14175, Note_on_c, 0, 71, 75
1, 14192, Note_on_c, 0, 71, 0
1, 14192, Note_on_c, 0, 72, 75
1, 14201, Note_on_c, 1, 67, 0
1, 14201, Note_on_c, 1, 63, 0
1, 14208, Note_on_c, 0, 72, 0
1, 14208, Note_on_c, 0, 79, 75
1, 14275, Note_on_c, 0, 79, 0
1, 14280, Note_on_c, 0, 75, 75
1, 14303, Note_on_c, 0, 75, 0
1, 14304, Note_on_c, 0, 74, 75
1, 14371, Note_on_c, 0, 74, 0
1, 14376, Note_on_c, 0, 72, 75
1, 14399, Note_on_c, 0, 72, 0
1, 14400, Note_on_c, 0, 70, 75
1, 14496, Note_on_c, 1, 65, 64
1, 14496, Note_on_c, 1, 63, 64
1, 14519, Note_on_c, 0, 70, 0
1, 14520, Note_on_c, 0, 69, 75
1, 14543, Note_on_c, 0, 69, 0
1, 14544, Note_on_c, 0, 70, 75
1, 14556, Note_on_c, 0, 70, 0
1, 14556, Note_on_c, 0, 69, 75
1, 14568, Note_on_c, 0, 69, 0
1, 14568, Note_on_c, 0, 67, 75
1, 14580, Note_on_c, 0, 67, 0
1, 14580, Note_on_c, 0, 69, 75
1, 14585, Note_on_c, 1, 65, 0
1, 14585, Note_on_c, 1, 63, 0
1, 14592, Note_on_c, 0, 69, 0
1, 14592, Note_on_c, 0, 70, 75
1, 14592, Note_on_c, 1, 65, 64
1, 14592, Note_on_c, 1, 62, 64
1, 14659, Note_on_c, 0, 70, 0
1, 14664, Note_on_c, 0, 74, 75
1, 14681, Note_on_c, 1, 65, 0
1, 14681, Note_on_c, 1, 62, 0
1, 14687, Note_on_c, 0, 74, 0
1, 14688, Note_on_c, 0, 65, 75
1, 14784, Note_on_c, 1, 62, 64
1, 14784, Note_on_c, 1, 53, 64
1, 14814, Note_on_c, 0, 65, 0
1, 14816, Note_on_c, 0, 67, 75
1, 14846, Note_on_c, 0, 67, 0
1, 14848, Note_on_c, 0, 65, 75
1, 14873, Note_on_c, 1, 62, 0
1, 14873, Note_on_c, 1, 53, 0
1, 14878, Note_on_c, 0, 65, 0
1, 14880, Note_on_c, 0, 63, 75
1, 14880, Note_on_c, 1, 60, 64
1, 14880, Note_on_c, 1, 53, 64
1, 14910, Note_on_c, 0, 63, 0
1, 14912, Note_on_c, 0, 62, 75
1, 14942, Note_on_c, 0, 62, 0
1, 14944, Note_on_c, 0, 63, 75
1, 14969, Note_on_c, 1, 60, 0
1, 14969, Note_on_c, 1, 53, 0
1, 14974, Note_on_c, 0, 63, 0
1, 14976, Note_on_c, 0, 63, 75
1, 14976, Note_on_c, 1, 58, 64
1, 15065, Note_on_c, 1, 58, 0
1, 15072, Note_on_c, 0, 63, 0
1, 15072, Note_on_c, 0, 62, 75
1, 15072, Note_on_c, 1, 46, 64
1, 15161, Note_on_c, 0, 62, 0
1, 15161, Note_on_c, 1, 46, 0
1, 15264, Note_on_c, 0, 77, 75
1, 15264, Note_on_c, 0, 74, 75
1, 15264, Note_on_c, 1, 34, 64
1, 15353, Note_on_c, 1, 34, 0
1, 15360, Note_on_c, 1, 46, 64
1, 15405, Note_on_c, 0, 77, 0
1, 15405, Note_on_c, 0, 74, 0
1, 15408, Note_on_c, 0, 79, 75
1, 15431, Note_on_c, 0, 79, 0
1, 15432, Note_on_c, 0, 81, 75
1, 15449, Note_on_c, 1, 46, 0
1, 15455, Note_on_c, 0, 81, 0
1, 15456, Note_on_c, 0, 84, 75
1, 15479, Note_on_c, 0, 84, 0
1, 15480, Note_on_c, 0, 82, 75
1, 15503, Note_on_c, 0, 82, 0
1, 15504, Note_on_c, 0, 81, 75
1, 15527, Note_on_c, 0, 81, 0
1, 15528, Note_on_c, 0, 79, 75
1, 15528, Note_on_c, 1, 75, 64
1, 15551, Note_on_c, 0, 79, 0
1, 15551, Note_on_c, 1, 75, 0
1, 15552, Note_on_c, 0, 77, 75
1, 15552, Note_on_c, 1, 74, 64
1, 15641, Note_on_c, 0, 77, 0
1, 15641, Note_on_c, 1, 74, 0
1, 15648, Note_on_c, 0, 75, 75
1, 15648, Note_on_c, 1, 72, 64
1, 15648, Note_on_c, 1, 66, 64
1, 15657, Note_on_c, 0, 75, 0
1, 15657, Note_on_c, 0, 77, 75
1, 15666, Note_on_c, 0, 77, 0
1, 15666, Note_on_c, 0, 75, 75
1, 15675, Note_on_c, 0, 75, 0
1, 15675, Note_on_c, 0, 77, 75
1, 15684, Note_on_c, 0, 77, 0
1, 15684, Note_on_c, 0, 75, 75
1, 15693, Note_on_c, 0, 75, 0
1, 15693, Note_on_c, 0, 77, 75
1, 15702, Note_on_c, 0, 77, 0
1, 15702, Note_on_c, 0, 75, 75
1, 15711, Note_on_c, 0, 75, 0
1, 15711, Note_on_c, 0, 74, 75
1, 15728, Note_on_c, 0, 74, 0
1, 15728, Note_on_c, 0, 75, 75
1, 15737, Note_on_c, 1, 72, 0
1, 15737, Note_on_c, 1, 66, 0
1, 15744, Note_on_c, 0, 75, 0
1, 15744, Note_on_c, 0, 74, 75
1, 15744, Note_on_c, 1, 70, 64
1, 15744, Note_on_c, 1, 67, 64
1, 15833, Note_on_c, 0, 74, 0
1, 15833, Note_on_c, 1, 70, 0
1, 15833, Note_on_c, 1, 67, 0
1, 15840, Note_on_c, 1, 70, 64
1, 15840, Note_on_c, 1, 63, 64
1, 15888, Note_on_c, 0, 78, 75
1, 15933, Note_on_c, 0, 78, 0
1, 15936, Note_on_c, 0, 79, 75
1, 15981, Note_on_c, 0, 79, 0
1, 15984, Note_on_c, 0, 81, 75
1, 16029, Note_on_c, 0, 81, 0
1, 16032, Note_on_c, 0, 84, 75
1, 16055, Note_on_c, 0, 84, 0
1, 16056, Note_on_c, 0, 82, 75
1, 16079, Note_on_c, 0, 82, 0
1, 16080, Note_on_c, 0, 81, 75
1, 16103, Note_on_c, 0, 81, 0
1, 16104, Note_on_c, 0, 79, 75
1, 16127, Note_on_c, 0, 79, 0
1, 16128, Note_on_c, 0, 79, 75
1, 16128, Note_on_c, 1, 63, 0
1, 16128, Note_on_c, 1, 62, 64
1, 16151, Note_on_c, 0, 79, 0
1, 16152, Note_on_c, 0, 77, 75
1, 16175, Note_on_c, 0, 77, 0
1, 16176, Note_on_c, 0, 76, 75
1, 16199, Note_on_c, 0, 76, 0
1, 16200, Note_on_c, 0, 79, 75
1, 16223, Note_on_c, 0, 79, 0
1, 16224, Note_on_c, 0, 77, 75
1, 16269, Note_on_c, 0, 77, 0
1, 16272, Note_on_c, 0, 79, 75
1, 16284, Note_on_c, 0, 79, 0
1, 16284, Note_on_c, 0, 77, 75
1, 16296, Note_on_c, 0, 77, 0
1, 16296, Note_on_c, 0, 76, 75
1, 16305, Note_on_c, 1, 70, 0
1, 16305, Note_on_c, 1, 62, 0
1, 16308, Note_on_c, 0, 76, 0
1, 16308, Note_on_c, 0, 77, 75
1, 16320, Note_on_c, 0, 77, 0
1, 16320, Note_on_c, 0, 82, 75
1, 16365, Note_on_c, 0, 82, 0
1, 16368, Note_on_c, 0, 74, 75
1, 16413, Note_on_c, 0, 74, 0
1, 16416, Note_on_c, 0, 77, 75
1, 16512, Note_on_c, 1, 69, 64
1, 16512, Note_on_c, 1, 60, 64
1, 16549, Note_on_c, 0, 77, 0
1, 16560, Note_on_c, 0, 75, 75
1, 16572, Note_on_c, 0, 75, 0
1, 16572, Note_on_c, 0, 77, 75
1, 16584, Note_on_c, 0, 77, 0
1, 16584, Note_on_c, 0, 75, 75
1, 16601, Note_on_c, 1, 69, 0
1, 16601, Note_on_c, 1, 60, 0
1, 16605, Note_on_c, 0, 75, 0
1, 16608, Note_on_c, 0, 74, 75
1, 16608, Note_on_c, 1, 70, 64
1, 16608, Note_on_c, 1, 58, 64
1, 16631, Note_on_c, 0, 74, 0
1, 16632, Note_on_c, 0, 75, 75
1, 16655, Note_on_c, 0, 75, 0
1, 16656, Note_on_c, 0, 76, 75
1, 16679, Note_on_c, 0, 76, 0
1, 16680, Note_on_c, 0, 77, 75
1, 16697, Note_on_c, 1, 70, 0
1, 16697, Note_on_c, 1, 58, 0
1, 16703, Note_on_c, 0, 77, 0
1, 16704, Note_on_c, 0, 75, 75
1, 16704, Note_on_c, 1, 70, 64
1, 16704, Note_on_c, 1, 65, 64
1, 16727, Note_on_c, 0, 75, 0
1, 16728, Note_on_c, 0, 74, 75
1, 16751, Note_on_c, 0, 74, 0
1, 16752, Note_on_c, 0, 72, 75
1, 16775, Note_on_c, 0, 72, 0
1, 16776, Note_on_c, 0, 74, 75
1, 16793, Note_on_c, 1, 70, 0
1, 16799, Note_on_c, 0, 74, 0
1, 16800, Note_on_c, 0, 72, 75
1, 16800, Note_on_c, 1, 69, 64
1, 16839, Note_on_c, 0, 72, 0
1, 16881, Note_on_c, 1, 65, 0
1, 16889, Note_on_c, 1, 69, 0
1, 16992, Note_on_c, 1, 41, 64
1, 17040, Note_on_c, 0, 84, 75
1, 17040, Note_on_c, 0, 81, 75
1, 17081, Note_on_c, 1, 41, 0
1, 17085, Note_on_c, 0, 84, 0
1, 17085, Note_on_c, 0, 81, 0
1, 17088, Note_on_c, 0, 82, 75
1, 17088, Note_on_c, 0, 79, 75
1, 17133, Note_on_c, 0, 82, 0
1, 17133, Note_on_c, 0, 79, 0
1, 17136, Note_on_c, 0, 81, 75
1, 17136, Note_on_c, 0, 77, 75
1, 17181, Note_on_c, 0, 81, 0
1, 17181, Note_on_c, 0, 77, 0
1, 17184, Note_on_c, 0, 79, 75
1, 17184, Note_on_c, 0, 76, 75
1, 17229, Note_on_c, 0, 79, 0
1, 17229, Note_on_c, 0, 76, 0
1, 17232, Note_on_c, 0, 81, 75
1, 17232, Note_on_c, 0, 77, 75
1, 17277, Note_on_c, 0, 81, 0
1, 17277, Note_on_c, 0, 77, 0
1, 17280, Note_on_c, 0, 81, 91
1, 17280, Note_on_c, 0, 78, 91
1, 17328, Note_on_c, 1, 60, 64
1, 17373, Note_on_c, 1, 60, 0
1, 17376, Note_on_c, 0, 81, 0
1, 17376, Note_on_c, 0, 78, 0
1, 17376, Note_on_c, 0, 82, 75
1, 17376, Note_on_c, 0, 79, 75
1, 17376, Note_on_c, 1, 48, 64
1, 17421, Note_on_c, 1, 48, 0
1, 17424, Note_on_c, 1, 52, 64
1, 17469, Note_on_c, 1, 52, 0
1, 17472, Note_on_c, 1, 55, 64
1, 17517, Note_on_c, 1, 55, 0
1, 17520, Note_on_c, 1, 59, 64
1, 17565, Note_on_c, 1, 59, 0
1, 17568, Note_on_c, 1, 60, 64
1, 17613, Note_on_c, 0, 82, 0
1, 17613, Note_on_c, 0, 79, 0
1, 17616, Note_on_c, 0, 86, 75
1, 17616, Note_on_c, 0, 82, 75
1, 17657, Note_on_c, 1, 60, 0
1, 17661, Note_on_c, 0, 86, 0
1, 17661, Note_on_c, 0, 82, 0
1, 17664, Note_on_c, 0, 84, 75
1, 17664, Note_on_c, 0, 81, 75
1, 17709, Note_on_c, 0, 84, 0
1, 17709, Note_on_c, 0, 81, 0
1, 17712, Note_on_c, 0, 82, 75
1, 17712, Note_on_c, 0, 79, 75
1, 17757, Note_on_c, 0, 82, 0
1, 17757, Note_on_c, 0, 79, 0
1, 17760, Note_on_c, 0, 81, 75
1, 17760, Note_on_c, 0, 77, 75
1, 17805, Note_on_c, 0, 81, 0
1, 17805, Note_on_c, 0, 77, 0
1, 17808, Note_on_c, 0, 79, 75
1, 17808, Note_on_c, 0, 76, 75
1, 17853, Note_on_c, 0, 79, 0
1, 17853, Note_on_c, 0, 76, 0
1, 17856, Note_on_c, 0, 80, 91
1, 17856, Note_on_c, 0, 76, 91
1, 17904, Note_on_c, 1, 53, 64
1, 17949, Note_on_c, 1, 53, 0
1, 17952, Note_on_c, 0, 80, 0
1, 17952, Note_on_c, 0, 76, 0
1, 17952, Note_on_c, 0, 81, 75
1, 17952, Note_on_c, 0, 77, 75
1, 17952, Note_on_c, 1, 41, 64
1, 17997, Note_on_c, 1, 41, 0
1, 18000, Note_on_c, 1, 45, 64
1, 18045, Note_on_c, 1, 45, 0
1, 18048, Note_on_c, 1, 48, 64
1, 18093, Note_on_c, 1, 48, 0
1, 18096, Note_on_c, 1, 52, 64
1, 18129, Note_on_c, 0, 81, 0
1, 18129, Note_on_c, 0, 77, 0
1, 18141, Note_on_c, 1, 52, 0
1, 18144, Note_on_c, 1, 53, 64
1, 18192, Note_on_c, 0, 80, 75
1, 18237, Note_on_c, 0, 80, 0
1, 18240, Note_on_c, 0, 81, 75
1, 18285, Note_on_c, 0, 81, 0
1, 18288, Note_on_c, 0, 76, 75
1, 18333, Note_on_c, 0, 76, 0
1, 18336, Note_on_c, 0, 77, 75
1, 18381, Note_on_c, 0, 77, 0
1, 18384, Note_on_c, 0, 74, 75
1, 18409, Note_on_c, 1, 53, 0
1, 18429, Note_on_c, 0, 74, 0
1, 18432, Note_on_c, 0, 72, 75
1, 18477, Note_on_c, 0, 72, 0
1, 18480, Note_on_c, 0, 71, 75
1, 18528, Note_on_c, 1, 65, 64
1, 18569, Note_on_c, 0, 71, 0
1, 18576, Note_on_c, 0, 80, 75
1, 18617, Note_on_c, 1, 65, 0
1, 18624, Note_on_c, 1, 64, 64
1, 18665, Note_on_c, 0, 80, 0
1, 18672, Note_on_c, 0, 79, 75
1, 18720, Note_on_c, 1, 70, 64
1, 18765, Note_on_c, 0, 79, 0
1, 18768, Note_on_c, 0, 86, 75
1, 18809, Note_on_c, 1, 70, 0
1, 18816, Note_on_c, 1, 67, 64
1, 18857, Note_on_c, 0, 86, 0
1, 18864, Note_on_c, 0, 84, 75
1, 18905, Note_on_c, 1, 67, 0
1, 18909, Note_on_c, 0, 84, 0
1, 18912, Note_on_c, 0, 84, 75
1, 18912, Note_on_c, 1, 72, 64
1, 18946, Note_on_c, 0, 84, 0
1, 18948, Note_on_c, 0, 82, 75
1, 18960, Note_on_c, 0, 82, 0
1, 18960, Note_on_c, 0, 84, 75
1, 18972, Note_on_c, 0, 84, 0
1, 18972, Note_on_c, 0, 82, 75
1, 18984, Note_on_c, 0, 82, 0
1, 18984, Note_on_c, 0, 81, 75
1, 18985, Note_on_c, 1, 64, 0
1, 18996, Note_on_c, 0, 81, 0
1, 18996, Note_on_c, 0, 82, 75
1, 19008, Note_on_c, 0, 82, 0
1, 19008, Note_on_c, 0, 82, 75
1, 19008, Note_on_c, 1, 65, 64
1, 19053, Note_on_c, 0, 82, 0
1, 19056, Note_on_c, 0, 80, 75
1, 19101, Note_on_c, 0, 80, 0
1, 19104, Note_on_c, 0, 81, 75
1, 19141, Note_on_c, 1, 72, 0
1, 19152, Note_on_c, 1, 73, 64
1, 19197, Note_on_c, 1, 73, 0
1, 19200, Note_on_c, 1, 74, 64
1, 19223, Note_on_c, 0, 81, 0
1, 19224, Note_on_c, 0, 84, 75
1, 19247, Note_on_c, 0, 84, 0
1, 19248, Note_on_c, 0, 82, 75
1, 19271, Note_on_c, 0, 82, 0
1, 19272, Note_on_c, 0, 81, 75
1, 19273, Note_on_c, 1, 65, 0
1, 19295, Note_on_c, 0, 81, 0
1, 19296, Note_on_c, 0, 81, 75
1, 19296, Note_on_c, 1, 64, 64
1, 19341, Note_on_c, 0, 81, 0
1, 19344, Note_on_c, 0, 78, 75
1, 19389, Note_on_c, 0, 78, 0
1, 19392, Note_on_c, 0, 79, 75
1, 19429, Note_on_c, 1, 74, 0
1, 19440, Note_on_c, 1, 71, 64
1, 19485, Note_on_c, 1, 71, 0
1, 19488, Note_on_c, 1, 72, 64
1, 19511, Note_on_c, 0, 79, 0
1, 19512, Note_on_c, 0, 82, 75
1, 19535, Note_on_c, 0, 82, 0
1, 19536, Note_on_c, 0, 81, 75
1, 19559, Note_on_c, 0, 81, 0
1, 19560, Note_on_c, 0, 79, 75
1, 19561, Note_on_c, 1, 64, 0
1, 19583, Note_on_c, 0, 79, 0
1, 19584, Note_on_c, 0, 79, 75
1, 19584, Note_on_c, 1, 62, 64
1, 19629, Note_on_c, 0, 79, 0
1, 19632, Note_on_c, 0, 77, 75
1, 19673, Note_on_c, 1, 72, 0
1, 19680, Note_on_c, 1, 69, 64
1, 19721, Note_on_c, 0, 77, 0
1, 19728, Note_on_c, 0, 77, 75
1, 19769, Note_on_c, 1, 69, 0
1, 19776, Note_on_c, 1, 71, 64
1, 19799, Note_on_c, 0, 77, 0
1, 19800, Note_on_c, 0, 81, 75
1, 19823, Note_on_c, 0, 81, 0
1, 19824, Note_on_c, 0, 79, 75
1, 19847, Note_on_c, 0, 79, 0
1, 19848, Note_on_c, 0, 77, 75
1, 19849, Note_on_c, 1, 62, 0
1, 19865, Note_on_c, 1, 71, 0
1, 19871, Note_on_c, 0, 77, 0
1, 19872, Note_on_c, 0, 77, 75
1, 19872, Note_on_c, 1, 71, 64
1, 19872, Note_on_c, 1, 60, 64
1, 19968, Note_on_c, 1, 71, 0
1, 19968, Note_on_c, 1, 72, 64
1, 20013, Note_on_c, 0, 77, 0
1, 20016, Note_on_c, 0, 75, 75
1, 20049, Note_on_c, 1, 60, 0
1, 20057, Note_on_c, 1, 72, 0
1, 20061, Note_on_c, 0, 75, 0
1, 20064, Note_on_c, 0, 76, 75
1, 20087, Note_on_c, 0, 76, 0
1, 20088, Note_on_c, 0, 79, 75
1, 20111, Note_on_c, 0, 79, 0
1, 20112, Note_on_c, 0, 77, 75
1, 20135, Note_on_c, 0, 77, 0
1, 20136, Note_on_c, 0, 81, 75
1, 20159, Note_on_c, 0, 81, 0
1, 20160, Note_on_c, 0, 79, 75
1, 20183, Note_on_c, 0, 79, 0
1, 20184, Note_on_c, 0, 82, 75
1, 20207, Note_on_c, 0, 82, 0
1, 20208, Note_on_c, 0, 81, 75
1, 20231, Note_on_c, 0, 81, 0
1, 20232, Note_on_c, 0, 84, 75
1, 20255, Note_on_c, 0, 84, 0
1, 20256, Note_on_c, 0, 82, 75
1, 20279, Note_on_c, 0, 82, 0
1, 20280, Note_on_c, 0, 81, 75
1, 20303, Note_on_c, 0, 81, 0
1, 20304, Note_on_c, 0, 79, 75
1, 20327, Note_on_c, 0, 79, 0
1, 20328, Note_on_c, 0, 77, 75
1, 20351, Note_on_c, 0, 77, 0
1, 20352, Note_on_c, 0, 76, 75
1, 20375, Note_on_c, 0, 76, 0
1, 20376, Note_on_c, 0, 74, 75
1, 20399, Note_on_c, 0, 74, 0
1, 20400, Note_on_c, 0, 72, 75
1, 20423, Note_on_c, 0, 72, 0
1, 20424, Note_on_c, 0, 70, 75
1, 20447, Note_on_c, 0, 70, 0
1, 20448, Note_on_c, 0, 69, 75
1, 20493, Note_on_c, 0, 69, 0
1, 20496, Note_on_c, 0, 77, 75
1, 20544, Note_on_c, 1, 62, 64
1, 20592, Note_on_c, 0, 70, 64
1, 20629, Note_on_c, 0, 77, 0
1, 20633, Note_on_c, 1, 62, 0
1, 20637, Note_on_c, 0, 70, 0
1, 20640, Note_on_c, 0, 76, 75
1, 20640, Note_on_c, 0, 72, 64
1, 20640, Note_on_c, 1, 60, 64
1, 20646, Note_on_c, 0, 72, 0
1, 20646, Note_on_c, 0, 70, 64
1, 20685, Note_on_c, 0, 70, 0
1, 20688, Note_on_c, 0, 69, 64
1, 20729, Note_on_c, 0, 76, 0
1, 20729, Note_on_c, 1, 60, 0
1, 20733, Note_on_c, 0, 69, 0
1, 20736, Note_on_c, 0, 74, 75
1, 20784, Note_on_c, 0, 62, 64
1, 20829, Note_on_c, 0, 62, 0
1, 20832, Note_on_c, 0, 66, 64
1, 20832, Note_on_c, 1, 58, 64
1, 20877, Note_on_c, 0, 66, 0
1, 20880, Note_on_c, 0, 67, 64
1, 20913, Note_on_c, 0, 74, 0
1, 20921, Note_on_c, 1, 58, 0
1, 20925, Note_on_c, 0, 67, 0
1, 20928, Note_on_c, 0, 72, 75
1, 20928, Note_on_c, 0, 69, 64
1, 20928, Note_on_c, 1, 57, 64
1, 20934, Note_on_c, 0, 69, 0
1, 20934, Note_on_c, 0, 67, 64
1, 20973, Note_on_c, 0, 67, 0
1, 20976, Note_on_c, 0, 65, 64
1, 21017, Note_on_c, 0, 72, 0
1, 21017, Note_on_c, 1, 57, 0
1, 21024, Note_on_c, 0, 70, 75
1, 21024, Note_on_c, 1, 55, 64
1, 21069, Note_on_c, 0, 65, 0
1, 21072, Note_on_c, 0, 62, 64
1, 21113, Note_on_c, 1, 55, 0
1, 21117, Note_on_c, 0, 62, 0
1, 21120, Note_on_c, 0, 64, 64
1, 21120, Note_on_c, 1, 48, 64
1, 21165, Note_on_c, 0, 64, 0
1, 21168, Note_on_c, 0, 67, 64
1, 21209, Note_on_c, 1, 48, 0
1, 21213, Note_on_c, 0, 67, 0
1, 21216, Note_on_c, 0, 60, 64
1, 21216, Note_on_c, 1, 53, 64
1, 21261, Note_on_c, 0, 70, 0
1, 21264, Note_on_c, 0, 69, 75
1, 21305, Note_on_c, 0, 60, 0
1, 21305, Note_on_c, 1, 53, 0
1, 21312, Note_on_c, 0, 58, 64
1, 21312, Note_on_c, 1, 46, 64
1, 21335, Note_on_c, 0, 69, 0
1, 21336, Note_on_c, 0, 67, 75
1, 21359, Note_on_c, 0, 67, 0
1, 21360, Note_on_c, 0, 70, 75
1, 21383, Note_on_c, 0, 70, 0
1, 21384, Note_on_c, 0, 67, 75
1, 21401, Note_on_c, 0, 58, 0
1, 21401, Note_on_c, 1, 46, 0
1, 21407, Note_on_c, 0, 67, 0
1, 21408, Note_on_c, 0, 65, 75
1, 21408, Note_on_c, 0, 57, 64
1, 21408, Note_on_c, 1, 48, 64
1, 21497, Note_on_c, 0, 65, 0
1, 21497, Note_on_c, 0, 57, 0
1, 21504, Note_on_c, 0, 64, 75
1, 21504, Note_on_c, 0, 55, 64
1, 21515, Note_on_c, 0, 64, 0
1, 21515, Note_on_c, 0, 65, 75
1, 21526, Note_on_c, 0, 65, 0
1, 21526, Note_on_c, 0, 64, 75
1, 21537, Note_on_c, 0, 64, 0
1, 21537, Note_on_c, 0, 65, 75
1, 21548, Note_on_c, 0, 65, 0
1, 21548, Note_on_c, 0, 64, 75
1, 21559, Note_on_c, 0, 64, 0
1, 21559, Note_on_c, 0, 62, 75
1, 21580, Note_on_c, 0, 62, 0
1, 21580, Note_on_c, 0, 64, 75
1, 21585, Note_on_c, 1, 48, 0
1, 21593, Note_on_c, 0, 55, 0
1, 21600, Note_on_c, 0, 64, 0
1, 21600, Note_on_c, 0, 77, 75
1, 21600, Note_on_c, 1, 50, 64
1, 21648, Note_on_c, 0, 70, 64
1, 21689, Note_on_c, 1, 50, 0
1, 21693, Note_on_c, 0, 70, 0
1, 21696, Note_on_c, 0, 72, 64
1, 21696, Note_on_c, 1, 62, 64
1, 21719, Note_on_c, 0, 72, 0
1, 21720, Note_on_c, 0, 70, 64
1, 21743, Note_on_c, 0, 70, 0
1, 21744, Note_on_c, 0, 69, 64
1, 21767, Note_on_c, 0, 69, 0
1, 21768, Note_on_c, 0, 70, 64
1, 21777, Note_on_c, 0, 77, 0
1, 21785, Note_on_c, 1, 62, 0
1, 21791, Note_on_c, 0, 70, 0
1, 21792, Note_on_c, 0, 76, 75
1, 21792, Note_on_c, 0, 70, 64
1, 21792, Note_on_c, 1, 60, 64
1, 21837, Note_on_c, 0, 70, 0
1, 21840, Note_on_c, 0, 69, 64
1, 21881, Note_on_c, 0, 76, 0
1, 21881, Note_on_c, 1, 60, 0
1, 21888, Note_on_c, 0, 74, 75
1, 21888, Note_on_c, 1, 46, 64
1, 21933, Note_on_c, 0, 69, 0
1, 21936, Note_on_c, 0, 67, 64
1, 21977, Note_on_c, 1, 46, 0
1, 21981, Note_on_c, 0, 67, 0
1, 21984, Note_on_c, 0, 69, 64
1, 21984, Note_on_c, 1, 58, 64
1, 22007, Note_on_c, 0, 69, 0
1, 22008, Note_on_c, 0, 67, 64
1, 22031, Note_on_c, 0, 67, 0
1, 22032, Note_on_c, 0, 66, 64
1, 22055, Note_on_c, 0, 66, 0
1, 22056, Note_on_c, 0, 67, 64
1, 22065, Note_on_c, 0, 74, 0
1, 22073, Note_on_c, 1, 58, 0
1, 22079, Note_on_c, 0, 67, 0
1, 22080, Note_on_c, 0, 72, 75
1, 22080, Note_on_c, 0, 67, 64
1, 22080, Note_on_c, 1, 57, 64
1, 22125, Note_on_c, 0, 67, 0
1, 22128, Note_on_c, 0, 65, 64
1, 22169, Note_on_c, 0, 72, 0
1, 22169, Note_on_c, 1, 57, 0
1, 22176, Note_on_c, 0, 70, 75
1, 22176, Note_on_c, 1, 55, 64
1, 22221, Note_on_c, 0, 65, 0
1, 22224, Note_on_c, 0, 65, 64
1, 22269, Note_on_c, 0, 65, 0
1, 22272, Note_on_c, 0, 67, 64
1, 22295, Note_on_c, 0, 67, 0
1, 22296, Note_on_c, 0, 65, 64
1, 22319, Note_on_c, 0, 65, 0
1, 22320, Note_on_c, 0, 64, 64
1, 22343, Note_on_c, 0, 64, 0
1, 22344, Note_on_c, 0, 65, 64
1, 22367, Note_on_c, 0, 65, 0
1, 22368, Note_on_c, 0, 64, 64
1, 22413, Note_on_c, 0, 70, 0
1, 22416, Note_on_c, 0, 70, 75
1, 22461, Note_on_c, 0, 70, 0
1, 22464, Note_on_c, 0, 72, 75
1, 22487, Note_on_c, 0, 72, 0
1, 22488, Note_on_c, 0, 70, 75
1, 22511, Note_on_c, 0, 70, 0
1, 22512, Note_on_c, 0, 69, 75
1, 22535, Note_on_c, 0, 69, 0
1, 22536, Note_on_c, 0, 70, 75
1, 22559, Note_on_c, 0, 70, 0
1, 22560, Note_on_c, 0, 79, 75
1, 22560, Note_on_c, 0, 70, 75
1, 22608, Note_on_c, 1, 60, 64
1, 22653, Note_on_c, 1, 60, 0
1, 22656, Note_on_c, 1, 59, 64
1, 22679, Note_on_c, 1, 59, 0
1, 22680, Note_on_c, 1, 60, 64
1, 22703, Note_on_c, 1, 60, 0
1, 22704, Note_on_c, 1, 62, 64
1, 22727, Note_on_c, 1, 62, 0
1, 22728, Note_on_c, 1, 60, 64
1, 22751, Note_on_c, 1, 60, 0
1, 22752, Note_on_c, 1, 60, 64
1, 22929, Note_on_c, 0, 79, 0
1, 22929, Note_on_c, 0, 70, 0
1, 22929, Note_on_c, 0, 64, 0
1, 22929, Note_on_c, 1, 55, 0
1, 22929, Note_on_c, 1, 60, 0
1, 22992, Note_on_c, 0, 76, 75
1, 22992, Note_on_c, 1, 70, 64
1, 23016, Note_on_c, 0, 76, 0
1, 23016, Note_on_c, 0, 72, 75
1, 23039, Note_on_c, 0, 72, 0
1, 23040, Note_on_c, 0, 77, 75
1, 23040, Note_on_c, 1, 70, 0
1, 23040, Note_on_c, 1, 69, 64
1, 23060, Note_on_c, 0, 77, 0
1, 23060, Note_on_c, 1, 69, 0
1, 23088, Note_on_c, 0, 76, 75
1, 23088, Note_on_c, 1, 70, 64
1, 23112, Note_on_c, 0, 76, 0
1, 23112, Note_on_c, 0, 72, 75
1, 23135, Note_on_c, 0, 72, 0
1, 23136, Note_on_c, 0, 77, 75
1, 23136, Note_on_c, 1, 70, 0
1, 23136, Note_on_c, 1, 69, 64
1, 23156, Note_on_c, 0, 77, 0
1, 23156, Note_on_c, 1, 69, 0
1, 23184, Note_on_c, 0, 76, 75
1, 23184, Note_on_c, 1, 70, 64
1, 23208, Note_on_c, 0, 76, 0
1, 23208, Note_on_c, 0, 72, 75
1, 23231, Note_on_c, 0, 72, 0
1, 23232, Note_on_c, 0, 77, 75
1, 23232, Note_on_c, 1, 70, 0
1, 23232, Note_on_c, 1, 69, 64
1, 23252, Note_on_c, 0, 77, 0
1, 23252, Note_on_c, 1, 69, 0
1, 23280, Note_on_c, 0, 79, 75
1, 23280, Note_on_c, 1, 64, 64
1, 23304, Note_on_c, 0, 79, 0
1, 23304, Note_on_c, 0, 72, 75
1, 23325, Note_on_c, 1, 64, 0
1, 23327, Note_on_c, 0, 72, 0
1, 23328, Note_on_c, 0, 81, 75
1, 23328, Note_on_c, 1, 65, 64
1, 23348, Note_on_c, 0, 81, 0
1, 23375, Note_on_c, 1, 65, 0
1, 23376, Note_on_c, 0, 82, 75
1, 23376, Note_on_c, 1, 67, 64
1, 23399, Note_on_c, 0, 82, 0
1, 23400, Note_on_c, 0, 72, 75
1, 23421, Note_on_c, 1, 67, 0
1, 23423, Note_on_c, 0, 72, 0
1, 23424, Note_on_c, 0, 84, 75
1, 23424, Note_on_c, 1, 69, 64
1, 23444, Note_on_c, 0, 84, 0
1, 23469, Note_on_c, 1, 69, 0
1, 23520, Note_on_c, 0, 82, 75
1, 23543, Note_on_c, 0, 82, 0
1, 23544, Note_on_c, 0, 81, 75
1, 23567, Note_on_c, 0, 81, 0
1, 23568, Note_on_c, 0, 79, 75
1, 23568, Note_on_c, 1, 57, 64
1, 23591, Note_on_c, 0, 79, 0
1, 23592, Note_on_c, 0, 77, 75
1, 23613, Note_on_c, 1, 57, 0
1, 23615, Note_on_c, 0, 77, 0
1, 23616, Note_on_c, 0, 76, 75
1, 23616, Note_on_c, 1, 58, 64
1, 23639, Note_on_c, 0, 76, 0
1, 23640, Note_on_c, 0, 74, 75
1, 23663, Note_on_c, 0, 74, 0
1, 23664, Note_on_c, 0, 72, 75
1, 23687, Note_on_c, 0, 72, 0
1, 23688, Note_on_c, 0, 70, 75
1, 23705, Note_on_c, 1, 58, 0
1, 23711, Note_on_c, 0, 70, 0
1, 23712, Note_on_c, 0, 69, 75
1, 23712, Note_on_c, 1, 60, 64
1, 23801, Note_on_c, 0, 69, 0
1, 23801, Note_on_c, 1, 60, 0
1, 23808, Note_on_c, 0, 67, 75
1, 23808, Note_on_c, 1, 48, 64
1, 23817, Note_on_c, 0, 67, 0
1, 23817, Note_on_c, 0, 69, 75
1, 23826, Note_on_c, 0, 69, 0
1, 23826, Note_on_c, 0, 67, 75
1, 23835, Note_on_c, 0, 67, 0
1, 23835, Note_on_c, 0, 69, 75
1, 23844, Note_on_c, 0, 69, 0
1, 23844, Note_on_c, 0, 67, 75
1, 23853, Note_on_c, 0, 67, 0
1, 23853, Note_on_c, 0, 69, 75
1, 23862, Note_on_c, 0, 69, 0
1, 23862, Note_on_c, 0, 67, 75
1, 23871, Note_on_c, 0, 67, 0
1, 23871, Note_on_c, 0, 65, 75
1, 23888, Note_on_c, 0, 65, 0
1, 23888, Note_on_c, 0, 67, 75
1, 23897, Note_on_c, 1, 48, 0
1, 23904, Note_on_c, 0, 67, 0
1, 23904, Note_on_c, 0, 65, 75
1, 23904, Note_on_c, 1, 53, 64
1, 23949, Note_on_c, 0, 65, 0
1, 23949, Note_on_c, 1, 53, 0
1, 23952, Note_on_c, 0, 76, 75
1, 23952, Note_on_c, 1, 70, 64
1, 23975, Note_on_c, 0, 76, 0
1, 23976, Note_on_c, 0, 72, 75
1, 23997, Note_on_c, 1, 70, 0
1, 23999, Note_on_c, 0, 72, 0
1, 24000, Note_on_c, 0, 77, 75
1, 24000, Note_on_c, 1, 69, 64
1, 24023, Note_on_c, 0, 77, 0
1, 24024, Note_on_c, 0, 72, 75
1, 24045, Note_on_c, 1, 69, 0
1, 24047, Note_on_c, 0, 72, 0
1, 24048, Note_on_c, 0, 76, 75
1, 24048, Note_on_c, 1, 70, 64
1, 24071, Note_on_c, 0, 76, 0
1, 24072, Note_on_c, 0, 72, 75
1, 24093, Note_on_c, 1, 70, 0
1, 24095, Note_on_c, 0, 72, 0
1, 24096, Note_on_c, 0, 77, 75
1, 24096, Note_on_c, 1, 69, 64
1, 24119, Note_on_c, 0, 77, 0
1, 24120, Note_on_c, 0, 72, 75
1, 24141, Note_on_c, 1, 69, 0
1, 24143, Note_on_c, 0, 72, 0
1, 24144, Note_on_c, 0, 79, 75
1, 24144, Note_on_c, 1, 64, 64
1, 24167, Note_on_c, 0, 79, 0
1, 24168, Note_on_c, 0, 72, 75
1, 24189, Note_on_c, 1, 64, 0
1, 24191, Note_on_c, 0, 72, 0
1, 24192, Note_on_c, 0, 81, 75
1, 24192, Note_on_c, 1, 65, 64
1, 24215, Note_on_c, 0, 81, 0
1, 24216, Note_on_c, 0, 72, 75
1, 24237, Note_on_c, 1, 65, 0
1, 24239, Note_on_c, 0, 72, 0
1, 24240, Note_on_c, 0, 82, 75
1, 24240, Note_on_c, 1, 67, 64
1, 24263, Note_on_c, 0, 82, 0
1, 24264, Note_on_c, 0, 72, 75
1, 24285, Note_on_c, 1, 67, 0
1, 24287, Note_on_c, 0, 72, 0
1, 24288, Note_on_c, 0, 84, 75
1, 24288, Note_on_c, 1, 69, 64
1, 24308, Note_on_c, 0, 84, 0
1, 24333, Note_on_c, 1, 69, 0
1, 24336, Note_on_c, 0, 77, 75
1, 24359, Note_on_c, 0, 77, 0
1, 24360, Note_on_c, 0, 89, 75
1, 24383, Note_on_c, 0, 89, 0
1, 24384, Note_on_c, 0, 76, 75
1, 24407, Note_on_c, 0, 76, 0
1, 24408, Note_on_c, 0, 88, 75
1, 24431, Note_on_c, 0, 88, 0
1, 24432, Note_on_c, 0, 75, 75
1, 24432, Note_on_c, 1, 57, 64
1, 24455, Note_on_c, 0, 75, 0
1, 24456, Note_on_c, 0, 87, 75
1, 24477, Note_on_c, 1, 57, 0
1, 24479, Note_on_c, 0, 87, 0
1, 24480, Note_on_c, 0, 74, 75
1, 24480, Note_on_c, 1, 58, 64
1, 24503, Note_on_c, 0, 74, 0
1, 24504, Note_on_c, 0, 86, 75
1, 24504, Note_on_c, 0, 82, 75
1, 24527, Note_on_c, 0, 86, 0
1, 24527, Note_on_c, 0, 82, 0
1, 24528, Note_on_c, 0, 84, 75
1, 24528, Note_on_c, 0, 81, 75
1, 24551, Note_on_c, 0, 84, 0
1, 24551, Note_on_c, 0, 81, 0
1, 24552, Note_on_c, 0, 82, 75
1, 24552, Note_on_c, 0, 79, 75
1, 24569, Note_on_c, 1, 58, 0
1, 24575, Note_on_c, 0, 82, 0
1, 24575, Note_on_c, 0, 79, 0
1, 24576, Note_on_c, 0, 81, 75
1, 24576, Note_on_c, 0, 77, 75
1, 24576, Note_on_c, 1, 60, 64
1, 24665, Note_on_c, 0, 81, 0
1, 24665, Note_on_c, 0, 77, 0
1, 24665, Note_on_c, 1, 60, 0
1, 24672, Note_on_c, 0, 79, 75
1, 24672, Note_on_c, 0, 76, 64
1, 24672, Note_on_c, 1, 48, 64
1, 24681, Note_on_c, 0, 79, 0
1, 24681, Note_on_c, 0, 81, 75
1, 24690, Note_on_c, 0, 81, 0
1, 24690, Note_on_c, 0, 79, 75
1, 24699, Note_on_c, 0, 79, 0
1, 24699, Note_on_c, 0, 81, 75
1, 24708, Note_on_c, 0, 81, 0
1, 24708, Note_on_c, 0, 79, 75
1, 24717, Note_on_c, 0, 79, 0
1, 24717, Note_on_c, 0, 81, 75
1, 24726, Note_on_c, 0, 81, 0
1, 24726, Note_on_c, 0, 79, 75
1, 24735, Note_on_c, 0, 79, 0
1, 24735, Note_on_c, 0, 77, 75
1, 24752, Note_on_c, 0, 77, 0
1, 24752, Note_on_c, 0, 79, 75
1, 24761, Note_on_c, 0, 76, 0
1, 24761, Note_on_c, 1, 48, 0
1, 24768, Note_on_c, 0, 79, 0
1, 24768, Note_on_c, 0, 77, 75
1, 24768, Note_on_c, 1, 53, 64
1, 24857, Note_on_c, 0, 77, 0
1, 24857, Note_on_c, 1, 53, 0
1, 24864, Note_on_c, 1, 41, 64
1, 24912, Note_on_c, 0, 72, 70
1, 24912, Note_on_c, 0, 69, 70
1, 24953, Note_on_c, 1, 41, 0
1, 24960, Note_on_c, 0, 72, 0
1, 24960, Note_on_c, 0, 69, 0
1, 24960, Note_on_c, 0, 74, 70
1, 24960, Note_on_c, 0, 70, 70
1, 25005, Note_on_c, 0, 74, 0
1, 25005, Note_on_c, 0, 70, 0
1, 25008, Note_on_c, 0, 70, 70
1, 25008, Note_on_c, 0, 64, 70
1, 25028, Note_on_c, 0, 70, 0
1, 25028, Note_on_c, 0, 64, 0
1, 25056, Note_on_c, 0, 70, 70
1, 25056, Note_on_c, 0, 64, 70
1, 25056, Note_on_c, 1, 53, 64
1, 25145, Note_on_c, 1, 53, 0
1, 25152, Note_on_c, 0, 70, 0
1, 25152, Note_on_c, 0, 64, 0
1, 25152, Note_on_c, 0, 69, 70
1, 25152, Note_on_c, 0, 65, 70
1, 25152, Note_on_c, 1, 41, 64
1, 25172, Note_on_c, 0, 69, 0
1, 25172, Note_on_c, 0, 65, 0
1, 25200, Note_on_c, 0, 69, 70
1, 25200, Note_on_c, 0, 60, 70
1, 25241, Note_on_c, 1, 41, 0
1, 25248, Note_on_c, 0, 69, 0
1, 25248, Note_on_c, 0, 60, 0
1, 25248, Note_on_c, 0, 70, 70
1, 25248, Note_on_c, 0, 62, 70
1, 25293, Note_on_c, 0, 70, 0
1, 25293, Note_on_c, 0, 62, 0
1, 25296, Note_on_c, 0, 64, 70
1, 25296, Note_on_c, 0, 58, 70
1, 25316, Note_on_c, 0, 64, 0
1, 25316, Note_on_c, 0, 58, 0
1, 25344, Note_on_c, 0, 64, 70
1, 25344, Note_on_c, 0, 58, 70
1, 25344, Note_on_c, 1, 53, 64
1, 25433, Note_on_c, 1, 53, 0
1, 25440, Note_on_c, 0, 64, 0
1, 25440, Note_on_c, 0, 58, 0
1, 25440, Note_on_c, 0, 65, 70
1, 25440, Note_on_c, 0, 57, 70
1, 25440, Note_on_c, 1, 41, 64
1, 25460, Note_on_c, 0, 65, 0
1, 25460, Note_on_c, 0, 57, 0
1, 25488, Note_on_c, 0, 60, 70
1, 25488, Note_on_c, 0, 57, 70
1, 25529, Note_on_c, 1, 41, 0
1, 25533, Note_on_c, 0, 60, 0
1, 25533, Note_on_c, 0, 57, 0
1, 25536, Note_on_c, 0, 62, 70
1, 25536, Note_on_c, 0, 58, 70
1, 25581, Note_on_c, 0, 62, 0
1, 25581, Note_on_c, 0, 58, 0
1, 25584, Note_on_c, 1, 52, 64
1, 25584, Note_on_c, 1, 46, 64
1, 25604, Note_on_c, 1, 52, 0
1, 25604, Note_on_c, 1, 46, 0
1, 25632, Note_on_c, 1, 52, 64
1, 25632, Note_on_c, 1, 46, 64
1, 25728, Note_on_c, 1, 52, 0
1, 25728, Note_on_c, 1, 46, 0
1, 25728, Note_on_c, 1, 53, 64
1, 25728, Note_on_c, 1, 45, 64
1, 25817, Note_on_c, 1, 53, 0
1, 25817, Note_on_c, 1, 45, 0
1, 25920, Note_on_c, 0, 72, 75
1, 25920, Note_on_c, 0, 69, 75
1, 25920, Note_on_c, 1, 41, 64
1, 26009, Note_on_c, 1, 41, 0
1, 26016, Note_on_c, 1, 53, 64
1, 26097, Note_on_c, 0, 72, 0
1, 26097, Note_on_c, 0, 69, 0
1, 26105, Note_on_c, 1, 53, 0
1, 26112, Note_on_c, 0, 76, 75
1, 26118, Note_on_c, 0, 76, 0
1, 26118, Note_on_c, 0, 74, 75
1, 26118, Note_on_c, 0, 70, 75
1, 26179, Note_on_c, 0, 74, 0
1, 26179, Note_on_c, 0, 70, 0
1, 26184, Note_on_c, 0, 72, 75
1, 26184, Note_on_c, 0, 69, 75
1, 26207, Note_on_c, 0, 72, 0
1, 26207, Note_on_c, 0, 69, 0
1, 26208, Note_on_c, 0, 72, 75
1, 26208, Note_on_c, 0, 69, 75
1, 26297, Note_on_c, 0, 72, 0
1, 26297, Note_on_c, 0, 69, 0
1, 26304, Note_on_c, 0, 70, 75
1, 26304, Note_on_c, 0, 67, 64
1, 26304, Note_on_c, 1, 60, 64
1, 26313, Note_on_c, 0, 70, 0
1, 26313, Note_on_c, 0, 72, 75
1, 26322, Note_on_c, 0, 72, 0
1, 26322, Note_on_c, 0, 70, 75
1, 26331, Note_on_c, 0, 70, 0
1, 26331, Note_on_c, 0, 72, 75
1, 26340, Note_on_c, 0, 72, 0
1, 26340, Note_on_c, 0, 70, 75
1, 26349, Note_on_c, 0, 70, 0
1, 26349, Note_on_c, 0, 72, 75
1, 26358, Note_on_c, 0, 72, 0
1, 26358, Note_on_c, 0, 70, 75
1, 26367, Note_on_c, 0, 70, 0
1, 26367, Note_on_c, 0, 69, 75
1, 26384, Note_on_c, 0, 69, 0
1, 26384, Note_on_c, 0, 70, 75
1, 26393, Note_on_c, 0, 67, 0
1, 26393, Note_on_c, 1, 60, 0
1, 26400, Note_on_c, 0, 70, 0
1, 26400, Note_on_c, 0, 69, 75
1, 26400, Note_on_c, 0, 65, 75
1, 26400, Note_on_c, 1, 62, 64
1, 26489, Note_on_c, 0, 69, 0
1, 26489, Note_on_c, 0, 65, 0
1, 26489, Note_on_c, 1, 62, 0
1, 26496, Note_on_c, 0, 74, 75
1, 26496, Note_on_c, 1, 65, 64
1, 26496, Note_on_c, 1, 58, 64
1, 26519, Note_on_c, 0, 74, 0
1, 26520, Note_on_c, 0, 73, 75
1, 26543, Note_on_c, 0, 73, 0
1, 26544, Note_on_c, 0, 74, 75
1, 26567, Note_on_c, 0, 74, 0
1, 26568, Note_on_c, 0, 76, 75
1, 26585, Note_on_c, 1, 65, 0
1, 26585, Note_on_c, 1, 58, 0
1, 26591, Note_on_c, 0, 76, 0
1, 26592, Note_on_c, 0, 77, 75
1, 26592, Note_on_c, 1, 65, 64
1, 26592, Note_on_c, 1, 57, 64
1, 26615, Note_on_c, 0, 77, 0
1, 26616, Note_on_c, 0, 76, 75
1, 26639, Note_on_c, 0, 76, 0
1, 26640, Note_on_c, 0, 79, 75
1, 26663, Note_on_c, 0, 79, 0
1, 26664, Note_on_c, 0, 77, 75
1, 26681, Note_on_c, 1, 65, 0
1, 26681, Note_on_c, 1, 57, 0
1, 26687, Note_on_c, 0, 77, 0
1, 26688, Note_on_c, 0, 81, 75
1, 26711, Note_on_c, 0, 81, 0
1, 26712, Note_on_c, 0, 77, 75
1, 26735, Note_on_c, 0, 77, 0
1, 26736, Note_on_c, 0, 76, 75
1, 26759, Note_on_c, 0, 76, 0
1, 26760, Note_on_c, 0, 74, 75
1, 26783, Note_on_c, 0, 74, 0
1, 26784, Note_on_c, 0, 72, 75
1, 26873, Note_on_c, 0, 72, 0
1, 26880, Note_on_c, 0, 70, 75
1, 26880, Note_on_c, 1, 64, 64
1, 26880, Note_on_c, 1, 55, 64
1, 26889, Note_on_c, 0, 70, 0
1, 26889, Note_on_c, 0, 72, 75
1, 26898, Note_on_c, 0, 72, 0
1, 26898, Note_on_c, 0, 70, 75
1, 26907, Note_on_c, 0, 70, 0
1, 26907, Note_on_c, 0, 72, 75
1, 26916, Note_on_c, 0, 72, 0
1, 26916, Note_on_c, 0, 70, 75
1, 26925, Note_on_c, 0, 70, 0
1, 26925, Note_on_c, 0, 72, 75
1, 26934, Note_on_c, 0, 72, 0
1, 26934, Note_on_c, 0, 70, 75
1, 26943, Note_on_c, 0, 70, 0
1, 26943, Note_on_c, 0, 69, 75
1, 26960, Note_on_c, 0, 69, 0
1, 26960, Note_on_c, 0, 70, 75
1, 26969, Note_on_c, 1, 64, 0
1, 26969, Note_on_c, 1, 55, 0
1, 26976, Note_on_c, 0, 70, 0
1, 26976, Note_on_c, 0, 69, 75
1, 26976, Note_on_c, 1, 65, 64
1, 26976, Note_on_c, 1, 53, 64
1, 27161, Note_on_c, 0, 69, 0
1, 27161, Note_on_c, 1, 65, 0
1, 27161, Note_on_c, 1, 53, 0
1, 27360, Note_on_c, 0, 77, 75
1, 27383, Note_on_c, 0, 77, 0
1, 27384, Note_on_c, 0, 76, 75
1, 27407, Note_on_c, 0, 76, 0
1, 27408, Note_on_c, 0, 79, 75
1, 27431, Note_on_c, 0, 79, 0
1, 27432, Note_on_c, 0, 77, 75
1, 27455, Note_on_c, 0, 77, 0
1, 27456, Note_on_c, 0, 80, 75
1, 27501, Note_on_c, 0, 80, 0
1, 27504, Note_on_c, 0, 77, 75
1, 27549, Note_on_c, 0, 77, 0
1, 27552, Note_on_c, 0, 75, 75
1, 27597, Note_on_c, 0, 75, 0
1, 27600, Note_on_c, 0, 74, 75
1, 27645, Note_on_c, 0, 74, 0
1, 27648, Note_on_c, 0, 72, 75
1, 27648, Note_on_c, 1, 65, 64
1, 27671, Note_on_c, 1, 65, 0
1, 27672, Note_on_c, 1, 64, 64
1, 27695, Note_on_c, 1, 64, 0
1, 27696, Note_on_c, 1, 67, 64
1, 27719, Note_on_c, 1, 67, 0
1, 27720, Note_on_c, 1, 65, 64
1, 27737, Note_on_c, 0, 72, 0
1, 27743, Note_on_c, 1, 65, 0
1, 27744, Note_on_c, 0, 71, 75
1, 27744, Note_on_c, 1, 68, 64
1, 27789, Note_on_c, 1, 68, 0
1, 27792, Note_on_c, 1, 65, 64
1, 27833, Note_on_c, 0, 71, 0
1, 27837, Note_on_c, 1, 65, 0
1, 27840, Note_on_c, 0, 74, 75
1, 27840, Note_on_c, 1, 63, 64
1, 27885, Note_on_c, 1, 63, 0
1, 27888, Note_on_c, 1, 62, 64
1, 27933, Note_on_c, 1, 62, 0
1, 27936, Note_on_c, 1, 63, 64
1, 27981, Note_on_c, 0, 74, 0
1, 27984, Note_on_c, 0, 67, 75
1, 28029, Note_on_c, 0, 67, 0
1, 28032, Note_on_c, 0, 72, 75
1, 28055, Note_on_c, 0, 72, 0
1, 28056, Note_on_c, 0, 71, 75
1, 28079, Note_on_c, 0, 71, 0
1, 28080, Note_on_c, 0, 74, 75
1, 28103, Note_on_c, 0, 74, 0
1, 28104, Note_on_c, 0, 72, 75
1, 28127, Note_on_c, 0, 72, 0
1, 28128, Note_on_c, 0, 75, 75
1, 28151, Note_on_c, 0, 75, 0
1, 28152, Note_on_c, 0, 74, 75
1, 28175, Note_on_c, 0, 74, 0
1, 28176, Note_on_c, 0, 77, 75
1, 28199, Note_on_c, 0, 77, 0
1, 28200, Note_on_c, 0, 75, 75
1, 28223, Note_on_c, 0, 75, 0
1, 28224, Note_on_c, 0, 79, 75
1, 28272, Note_on_c, 0, 71, 64
1, 28317, Note_on_c, 0, 71, 0
1, 28320, Note_on_c, 0, 72, 64
1, 28365, Note_on_c, 0, 72, 0
1, 28368, Note_on_c, 0, 74, 64
1, 28413, Note_on_c, 0, 74, 0
1, 28416, Note_on_c, 0, 77, 64
1, 28422, Note_on_c, 0, 77, 0
1, 28422, Note_on_c, 0, 75, 64
1, 28461, Note_on_c, 0, 75, 0
1, 28464, Note_on_c, 0, 74, 64
1, 28489, Note_on_c, 1, 63, 0
1, 28509, Note_on_c, 0, 74, 0
1, 28512, Note_on_c, 0, 74, 64
1, 28512, Note_on_c, 1, 63, 64
1, 28560, Note_on_c, 1, 67, 64
1, 28601, Note_on_c, 0, 74, 0
1, 28605, Note_on_c, 1, 67, 0
1, 28608, Note_on_c, 0, 73, 64
1, 28608, Note_on_c, 1, 69, 64
1, 28653, Note_on_c, 1, 69, 0
1, 28656, Note_on_c, 1, 70, 64
1, 28701, Note_on_c, 1, 70, 0
1, 28704, Note_on_c, 1, 69, 64
1, 28749, Note_on_c, 1, 69, 0
1, 28752, Note_on_c, 1, 67, 64
1, 28777, Note_on_c, 1, 63, 0
1, 28785, Note_on_c, 0, 73, 0
1, 28797, Note_on_c, 1, 67, 0
1, 28800, Note_on_c, 0, 74, 64
1, 28800, Note_on_c, 1, 69, 64
1, 28800, Note_on_c, 1, 62, 64
1, 28845, Note_on_c, 0, 79, 0
1, 28848, Note_on_c, 0, 78, 75
1, 28893, Note_on_c, 0, 78, 0
1, 28896, Note_on_c, 0, 79, 75
1, 28919, Note_on_c, 0, 79, 0
1, 28920, Note_on_c, 0, 78, 75
1, 28943, Note_on_c, 0, 78, 0
1, 28944, Note_on_c, 0, 76, 75
1, 28967, Note_on_c, 0, 76, 0
1, 28968, Note_on_c, 0, 78, 75
1, 28991, Note_on_c, 0, 78, 0
1, 28992, Note_on_c, 0, 81, 75
1, 29037, Note_on_c, 0, 74, 0
1, 29040, Note_on_c, 0, 72, 64
1, 29085, Note_on_c, 0, 72, 0
1, 29088, Note_on_c, 0, 74, 64
1, 29111, Note_on_c, 0, 74, 0
1, 29112, Note_on_c, 0, 72, 64
1, 29135, Note_on_c, 0, 72, 0
1, 29136, Note_on_c, 0, 71, 64
1, 29159, Note_on_c, 0, 71, 0
1, 29160, Note_on_c, 0, 72, 64
1, 29183, Note_on_c, 0, 72, 0
1, 29184, Note_on_c, 0, 72, 64
1, 29221, Note_on_c, 1, 69, 0
1, 29232, Note_on_c, 1, 66, 64
1, 29277, Note_on_c, 1, 66, 0
1, 29280, Note_on_c, 1, 64, 64
1, 29303, Note_on_c, 1, 64, 0
1, 29304, Note_on_c, 1, 66, 64
1, 29327, Note_on_c, 1, 66, 0
1, 29328, Note_on_c, 1, 67, 64
1, 29351, Note_on_c, 1, 67, 0
1, 29352, Note_on_c, 1, 66, 64
1, 29375, Note_on_c, 1, 66, 0
1, 29376, Note_on_c, 1, 66, 64
1, 29553, Note_on_c, 0, 81, 0
1, 29553, Note_on_c, 0, 72, 0
1, 29553, Note_on_c, 1, 66, 0
1, 29553, Note_on_c, 1, 62, 0
1, 29616, Note_on_c, 0, 78, 75
1, 29616, Note_on_c, 1, 72, 64
1, 29639, Note_on_c, 0, 78, 0
1, 29640, Note_on_c, 0, 74, 75
1, 29663, Note_on_c, 0, 74, 0
1, 29664, Note_on_c, 0, 79, 75
1, 29664, Note_on_c, 1, 72, 0
1, 29664, Note_on_c, 1, 70, 64
1, 29684, Note_on_c, 0, 79, 0
1, 29684, Note_on_c, 1, 70, 0
1, 29712, Note_on_c, 0, 78, 75
1, 29712, Note_on_c, 1, 72, 64
1, 29735, Note_on_c, 0, 78, 0
1, 29736, Note_on_c, 0, 74, 75
1, 29759, Note_on_c, 0, 74, 0
1, 29760, Note_on_c, 0, 79, 75
1, 29760, Note_on_c, 1, 72, 0
1, 29760, Note_on_c, 1, 70, 64
1, 29780, Note_on_c, 0, 79, 0
1, 29780, Note_on_c, 1, 70, 0
1, 29808, Note_on_c, 0, 78, 75
1, 29808, Note_on_c, 1, 72, 64
1, 29831, Note_on_c, 0, 78, 0
1, 29832, Note_on_c, 0, 74, 75
1, 29855, Note_on_c, 0, 74, 0
1, 29856, Note_on_c, 0, 79, 75
1, 29856, Note_on_c, 1, 72, 0
1, 29856, Note_on_c, 1, 70, 64
1, 29876, Note_on_c, 0, 79, 0
1, 29876, Note_on_c, 1, 70, 0
1, 29904, Note_on_c, 0, 81, 75
1, 29904, Note_on_c, 1, 66, 64
1, 29927, Note_on_c, 0, 81, 0
1, 29928, Note_on_c, 0, 74, 75
1, 29951, Note_on_c, 0, 74, 0
1, 29952, Note_on_c, 0, 82, 75
1, 29952, Note_on_c, 1, 66, 0
1, 29952, Note_on_c, 1, 67, 64
1, 29972, Note_on_c, 0, 82, 0
1, 29997, Note_on_c, 1, 67, 0
1, 30000, Note_on_c, 0, 84, 75
1, 30000, Note_on_c, 1, 69, 64
1, 30023, Note_on_c, 0, 84, 0
1, 30024, Note_on_c, 0, 74, 75
1, 30045, Note_on_c, 1, 69, 0
1, 30047, Note_on_c, 0, 74, 0
1, 30048, Note_on_c, 0, 86, 75
1, 30048, Note_on_c, 1, 70, 64
1, 30068, Note_on_c, 0, 86, 0
1, 30093, Note_on_c, 1, 70, 0
1, 30144, Note_on_c, 0, 84, 75
1, 30167, Note_on_c, 0, 84, 0
1, 30168, Note_on_c, 0, 82, 75
1, 30191, Note_on_c, 0, 82, 0
1, 30192, Note_on_c, 0, 81, 75
1, 30192, Note_on_c, 1, 58, 64
1, 30215, Note_on_c, 0, 81, 0
1, 30216, Note_on_c, 0, 79, 75
1, 30237, Note_on_c, 1, 58, 0
1, 30239, Note_on_c, 0, 79, 0
1, 30240, Note_on_c, 0, 77, 75
1, 30240, Note_on_c, 1, 60, 64
1, 30263, Note_on_c, 0, 77, 0
1, 30264, Note_on_c, 0, 75, 75
1, 30287, Note_on_c, 0, 75, 0
1, 30288, Note_on_c, 0, 74, 75
1, 30311, Note_on_c, 0, 74, 0
1, 30312, Note_on_c, 0, 72, 75
1, 30329, Note_on_c, 1, 60, 0
1, 30335, Note_on_c, 0, 72, 0
1, 30336, Note_on_c, 0, 70, 75
1, 30336, Note_on_c, 1, 62, 64
1, 30425, Note_on_c, 0, 70, 0
1, 30425, Note_on_c, 1, 62, 0
1, 30432, Note_on_c, 0, 69, 75
1, 30432, Note_on_c, 1, 50, 64
1, 30441, Note_on_c, 0, 69, 0
1, 30441, Note_on_c, 0, 70, 75
1, 30450, Note_on_c, 0, 70, 0
1, 30450, Note_on_c, 0, 69, 75
1, 30459, Note_on_c, 0, 69, 0
1, 30459, Note_on_c, 0, 70, 75
1, 30468, Note_on_c, 0, 70, 0
1, 30468, Note_on_c, 0, 69, 75
1, 30477, Note_on_c, 0, 69, 0
1, 30477, Note_on_c, 0, 70, 75
1, 30486, Note_on_c, 0, 70, 0
1, 30486, Note_on_c, 0, 69, 75
1, 30495, Note_on_c, 0, 69, 0
1, 30495, Note_on_c, 0, 67, 75
1, 30512, Note_on_c, 0, 67, 0
1, 30512, Note_on_c, 0, 69, 75
1, 30521, Note_on_c, 1, 50, 0
1, 30528, Note_on_c, 0, 69, 0
1, 30528, Note_on_c, 0, 67, 75
1, 30528, Note_on_c, 1, 55, 64
1, 30573, Note_on_c, 0, 67, 0
1, 30573, Note_on_c, 1, 55, 0
1, 30576, Note_on_c, 0, 78, 75
1, 30576, Note_on_c, 1, 72, 75
1, 30599, Note_on_c, 0, 78, 0
1, 30600, Note_on_c, 0, 74, 75
1, 30621, Note_on_c, 1, 72, 0
1, 30623, Note_on_c, 0, 74, 0
1, 30624, Note_on_c, 0, 79, 75
1, 30624, Note_on_c, 1, 70, 75
1, 30647, Note_on_c, 0, 79, 0
1, 30648, Note_on_c, 0, 74, 76
1, 30671, Note_on_c, 0, 74, 0
1, 30672, Note_on_c, 0, 78, 76
1, 30672, Note_on_c, 1, 70, 0
1, 30672, Note_on_c, 1, 72, 76
1, 30695, Note_on_c, 0, 78, 0
1, 30696, Note_on_c, 0, 74, 77
1, 30717, Note_on_c, 1, 72, 0
1, 30719, Note_on_c, 0, 74, 0
1, 30720, Note_on_c, 0, 79, 77
1, 30720, Note_on_c, 1, 70, 77
1, 30743, Note_on_c, 0, 79, 0
1, 30744, Note_on_c, 0, 74, 78
1, 30765, Note_on_c, 1, 70, 0
1, 30767, Note_on_c, 0, 74, 0
1, 30768, Note_on_c, 0, 81, 78
1, 30768, Note_on_c, 1, 66, 78
1, 30791, Note_on_c, 0, 81, 0
1, 30792, Note_on_c, 0, 74, 79
1, 30813, Note_on_c, 1, 66, 0
1, 30815, Note_on_c, 0, 74, 0
1, 30816, Note_on_c, 0, 82, 95
1, 30816, Note_on_c, 1, 67, 79
1, 30840, Note_on_c, 0, 82, 0
1, 30840, Note_on_c, 0, 74, 75
1, 30861, Note_on_c, 1, 67, 0
1, 30863, Note_on_c, 0, 74, 0
1, 30864, Note_on_c, 0, 76, 75
1, 30864, Note_on_c, 1, 70, 75
1, 30887, Note_on_c, 0, 76, 0
1, 30888, Note_on_c, 0, 72, 75
1, 30909, Note_on_c, 1, 70, 0
1, 30911, Note_on_c, 0, 72, 0
1, 30912, Note_on_c, 0, 77, 76
1, 30912, Note_on_c, 1, 68, 75
1, 30935, Note_on_c, 0, 77, 0
1, 30936, Note_on_c, 0, 72, 76
1, 30957, Note_on_c, 1, 68, 0
1, 30959, Note_on_c, 0, 72, 0
1, 30960, Note_on_c, 0, 76, 77
1, 30960, Note_on_c, 1, 70, 76
1, 30983, Note_on_c, 0, 76, 0
1, 30984, Note_on_c, 0, 72, 77
1, 31005, Note_on_c, 1, 70, 0
1, 31007, Note_on_c, 0, 72, 0
1, 31008, Note_on_c, 0, 77, 77
1, 31008, Note_on_c, 1, 68, 77
1, 31031, Note_on_c, 0, 77, 0
1, 31032, Note_on_c, 0, 72, 78
1, 31053, Note_on_c, 1, 68, 0
1, 31055, Note_on_c, 0, 72, 0
1, 31056, Note_on_c, 0, 79, 78
1, 31056, Note_on_c, 1, 64, 78
1, 31079, Note_on_c, 0, 79, 0
1, 31080, Note_on_c, 0, 72, 79
1, 31101, Note_on_c, 1, 64, 0
1, 31103, Note_on_c, 0, 72, 0
1, 31104, Note_on_c, 0, 80, 95
1, 31104, Note_on_c, 1, 65, 79
1, 31128, Note_on_c, 0, 80, 0
1, 31128, Note_on_c, 0, 72, 75
1, 31149, Note_on_c, 1, 65, 0
1, 31151, Note_on_c, 0, 72, 0
1, 31152, Note_on_c, 0, 74, 75
1, 31152, Note_on_c, 1, 68, 75
1, 31175, Note_on_c, 0, 74, 0
1, 31176, Note_on_c, 0, 70, 75
1, 31197, Note_on_c, 1, 68, 0
1, 31199, Note_on_c, 0, 70, 0
1, 31200, Note_on_c, 0, 75, 76
1, 31200, Note_on_c, 1, 67, 75
1, 31223, Note_on_c, 0, 75, 0
1, 31224, Note_on_c, 0, 70, 76
1, 31245, Note_on_c, 1, 67, 0
1, 31247, Note_on_c, 0, 70, 0
1, 31248, Note_on_c, 0, 74, 76
1, 31248, Note_on_c, 1, 68, 76
1, 31271, Note_on_c, 0, 74, 0
1, 31272, Note_on_c, 0, 70, 77
1, 31293, Note_on_c, 1, 68, 0
1, 31295, Note_on_c, 0, 70, 0
1, 31296, Note_on_c, 0, 75, 77
1, 31296, Note_on_c, 1, 67, 77
1, 31319, Note_on_c, 0, 75, 0
1, 31320, Note_on_c, 0, 70, 78
1, 31341, Note_on_c, 1, 67, 0
1, 31343, Note_on_c, 0, 70, 0
1, 31344, Note_on_c, 0, 65, 78
1, 31344, Note_on_c, 1, 62, 77
1, 31367, Note_on_c, 0, 65, 0
1, 31368, Note_on_c, 0, 77, 78
1, 31389, Note_on_c, 1, 62, 0
1, 31391, Note_on_c, 0, 77, 0
1, 31392, Note_on_c, 0, 67, 79
1, 31392, Note_on_c, 1, 63, 78
1, 31415, Note_on_c, 0, 67, 0
1, 31416, Note_on_c, 0, 79, 79
1, 31439, Note_on_c, 0, 79, 0
1, 31440, Note_on_c, 0, 65, 80
1, 31463, Note_on_c, 0, 65, 0
1, 31464, Note_on_c, 0, 77, 80
1, 31481, Note_on_c, 1, 63, 0
1, 31487, Note_on_c, 0, 77, 0
1, 31488, Note_on_c, 0, 63, 80
1, 31511, Note_on_c, 0, 63, 0
1, 31512, Note_on_c, 0, 75, 80
1, 31535, Note_on_c, 0, 75, 0
1, 31536, Note_on_c, 0, 62, 80
1, 31559, Note_on_c, 0, 62, 0
1, 31560, Note_on_c, 0, 74, 80
1, 31583, Note_on_c, 0, 74, 0
1, 31584, Note_on_c, 0, 60, 80
1, 31607, Note_on_c, 0, 60, 0
1, 31608, Note_on_c, 0, 72, 80
1, 31631, Note_on_c, 0, 72, 0
1, 31632, Note_on_c, 0, 58, 80
1, 31655, Note_on_c, 0, 58, 0
1, 31656, Note_on_c, 0, 70, 80
1, 31679, Note_on_c, 0, 70, 0
1, 31680, Note_on_c, 0, 57, 80
1, 31680, Note_on_c, 1, 41, 80
1, 31703, Note_on_c, 0, 57, 0
1, 31703, Note_on_c, 1, 41, 0
1, 31704, Note_on_c, 0, 69, 80
1, 31704, Note_on_c, 1, 53, 79
1, 31727, Note_on_c, 0, 69, 0
1, 31727, Note_on_c, 1, 53, 0
1, 31728, Note_on_c, 1, 43, 79
1, 31751, Note_on_c, 1, 43, 0
1, 31752, Note_on_c, 1, 55, 78
1, 31775, Note_on_c, 1, 55, 0
1, 31776, Note_on_c, 1, 41, 78
1, 31799, Note_on_c, 1, 41, 0
1, 31800, Note_on_c, 1, 53, 77
1, 31823, Note_on_c, 1, 53, 0
1, 31824, Note_on_c, 1, 39, 77
1, 31847, Note_on_c, 1, 39, 0
1, 31848, Note_on_c, 1, 51, 77
1, 31871, Note_on_c, 1, 51, 0
1, 31872, Note_on_c, 1, 38, 76
1, 31895, Note_on_c, 1, 38, 0
1, 31896, Note_on_c, 1, 50, 76
1, 31919, Note_on_c, 1, 50, 0
1, 31920, Note_on_c, 1, 36, 75
1, 31943, Note_on_c, 1, 36, 0
1, 31944, Note_on_c, 1, 48, 75
1, 31967, Note_on_c, 1, 48, 0
1, 31968, Note_on_c, 0, 77, 75
1, 31968, Note_on_c, 0, 74, 75
1, 31968, Note_on_c, 1, 34, 75
1, 32007, Note_on_c, 1, 34, 0
1, 32064, Note_on_c, 1, 58, 75
1, 32103, Note_on_c, 1, 58, 0
1, 32145, Note_on_c, 0, 77, 0
1, 32145, Note_on_c, 0, 74, 0
1, 32160, Note_on_c, 0, 81, 75
1, 32166, Note_on_c, 0, 81, 0
1, 32166, Note_on_c, 0, 79, 75
1, 32166, Note_on_c, 0, 75, 75
1, 32227, Note_on_c, 0, 79, 0
1, 32227, Note_on_c, 0, 75, 0
1, 32232, Note_on_c, 0, 77, 75
1, 32232, Note_on_c, 0, 74, 75
1, 32255, Note_on_c, 0, 77, 0
1, 32255, Note_on_c, 0, 74, 0
1, 32256, Note_on_c, 0, 77, 75
1, 32256, Note_on_c, 0, 74, 75
1, 32345, Note_on_c, 0, 77, 0
1, 32345, Note_on_c, 0, 74, 0
1, 32352, Note_on_c, 0, 75, 75
1, 32352, Note_on_c, 0, 72, 64
1, 32352, Note_on_c, 1, 65, 75
1, 32361, Note_on_c, 0, 75, 0
1, 32361, Note_on_c, 0, 77, 75
1, 32370, Note_on_c, 0, 77, 0
1, 32370, Note_on_c, 0, 75, 75
1, 32379, Note_on_c, 0, 75, 0
1, 32379, Note_on_c, 0, 77, 75
1, 32388, Note_on_c, 0, 77, 0
1, 32388, Note_on_c, 0, 75, 75
1, 32397, Note_on_c, 0, 75, 0
1, 32397, Note_on_c, 0, 77, 75
1, 32406, Note_on_c, 0, 77, 0
1, 32406, Note_on_c, 0, 75, 75
1, 32415, Note_on_c, 0, 75, 0
1, 32415, Note_on_c, 0, 74, 75
1, 32432, Note_on_c, 0, 74, 0
1, 32432, Note_on_c, 0, 75, 75
1, 32441, Note_on_c, 0, 72, 0
1, 32441, Note_on_c, 1, 65, 0
1, 32448, Note_on_c, 0, 75, 0
1, 32448, Note_on_c, 0, 74, 75
1, 32448, Note_on_c, 0, 70, 75
1, 32448, Note_on_c, 1, 67, 75
1, 32537, Note_on_c, 0, 74, 0
1, 32537, Note_on_c, 0, 70, 0
1, 32537, Note_on_c, 1, 67, 0
1, 32544, Note_on_c, 0, 79, 75
1, 32544, Note_on_c, 1, 70, 75
1, 32544, Note_on_c, 1, 63, 75
1, 32554, Note_on_c, 0, 79, 0
1, 32568, Note_on_c, 0, 81, 75
1, 32576, Note_on_c, 0, 81, 0
1, 32576, Note_on_c, 0, 79, 75
1, 32584, Note_on_c, 0, 79, 0
1, 32584, Note_on_c, 0, 78, 75
1, 32592, Note_on_c, 0, 78, 0
1, 32592, Note_on_c, 0, 79, 75
1, 32615, Note_on_c, 0, 79, 0
1, 32616, Note_on_c, 0, 81, 75
1, 32633, Note_on_c, 1, 70, 0
1, 32633, Note_on_c, 1, 63, 0
1, 32639, Note_on_c, 0, 81, 0
1, 32640, Note_on_c, 0, 82, 75
1, 32640, Note_on_c, 1, 70, 75
1, 32640, Note_on_c, 1, 62, 75
1, 32707, Note_on_c, 0, 82, 0
1, 32712, Note_on_c, 0, 85, 75
1, 32729, Note_on_c, 1, 70, 0
1, 32729, Note_on_c, 1, 62, 0
1, 32735, Note_on_c, 0, 85, 0
1, 32736, Note_on_c, 0, 86, 75
1, 32759, Note_on_c, 0, 86, 0
1, 32760, Note_on_c, 0, 81, 75
1, 32783, Note_on_c, 0, 81, 0
1, 32784, Note_on_c, 0, 82, 75
1, 32807, Note_on_c, 0, 82, 0
1, 32808, Note_on_c, 0, 79, 75
1, 32831, Note_on_c, 0, 79, 0
1, 32832, Note_on_c, 0, 77, 75
1, 32832, Note_on_c, 1, 60, 64
1, 32928, Note_on_c, 1, 69, 75
1, 32995, Note_on_c, 0, 77, 0
1, 33000, Note_on_c, 0, 75, 75
1, 33006, Note_on_c, 0, 75, 0
1, 33006, Note_on_c, 0, 77, 75
1, 33009, Note_on_c, 1, 60, 0
1, 33012, Note_on_c, 0, 77, 0
1, 33012, Note_on_c, 0, 75, 75
1, 33017, Note_on_c, 1, 69, 0
1, 33023, Note_on_c, 0, 75, 0
1, 33024, Note_on_c, 0, 74, 75
1, 33024, Note_on_c, 1, 70, 75
1, 33024, Note_on_c, 1, 58, 64
1, 33113, Note_on_c, 0, 74, 0
1, 33118, Note_on_c, 1, 70, 0
1, 33118, Note_on_c, 1, 58, 0
1, 33120, Note_on_c, 0, 72, 75
1, 33120, Note_on_c, 1, 67, 75
1, 33120, Note_on_c, 1, 63, 75
1, 33129, Note_on_c, 0, 72, 0
1, 33129, Note_on_c, 0, 74, 75
1, 33138, Note_on_c, 0, 74, 0
1, 33138, Note_on_c, 0, 72, 75
1, 33147, Note_on_c, 0, 72, 0
1, 33147, Note_on_c, 0, 74, 75
1, 33156, Note_on_c, 0, 74, 0
1, 33156, Note_on_c, 0, 72, 75
1, 33165, Note_on_c, 0, 72, 0
1, 33165, Note_on_c, 0, 74, 75
1, 33174, Note_on_c, 0, 74, 0
1, 33174, Note_on_c, 0, 72, 75
1, 33183, Note_on_c, 0, 72, 0
1, 33183, Note_on_c, 0, 71, 75
1, 33200, Note_on_c, 0, 71, 0
1, 33200, Note_on_c, 0, 72, 75
1, 33209, Note_on_c, 1, 67, 0
1, 33209, Note_on_c, 1, 63, 0
1, 33216, Note_on_c, 0, 72, 0
1, 33216, Note_on_c, 0, 79, 75
1, 33245, Note_on_c, 0, 79, 0
1, 33288, Note_on_c, 0, 75, 75
1, 33311, Note_on_c, 0, 75, 0
1, 33312, Note_on_c, 0, 75, 75
1, 33318, Note_on_c, 0, 75, 0
1, 33318, Note_on_c, 0, 74, 75
1, 33341, Note_on_c, 0, 74, 0
1, 33384, Note_on_c, 0, 72, 75
1, 33407, Note_on_c, 0, 72, 0
1, 33408, Note_on_c, 0, 70, 75
1, 33504, Note_on_c, 1, 65, 75
1, 33504, Note_on_c, 1, 63, 75
1, 33527, Note_on_c, 0, 70, 0
1, 33528, Note_on_c, 0, 69, 75
1, 33551, Note_on_c, 0, 69, 0
1, 33552, Note_on_c, 0, 70, 75
1, 33564, Note_on_c, 0, 70, 0
1, 33564, Note_on_c, 0, 69, 75
1, 33576, Note_on_c, 0, 69, 0
1, 33576, Note_on_c, 0, 67, 75
1, 33588, Note_on_c, 0, 67, 0
1, 33588, Note_on_c, 0, 69, 75
1, 33593, Note_on_c, 1, 65, 0
1, 33593, Note_on_c, 1, 63, 0
1, 33600, Note_on_c, 0, 69, 0
1, 33600, Note_on_c, 0, 70, 75
1, 33600, Note_on_c, 1, 65, 75
1, 33600, Note_on_c, 1, 62, 75
1, 33623, Note_on_c, 0, 70, 0
1, 33624, Note_on_c, 0, 72, 75
1, 33632, Note_on_c, 0, 72, 0
1, 33632, Note_on_c, 0, 70, 75
1, 33640, Note_on_c, 0, 70, 0
1, 33640, Note_on_c, 0, 69, 75
1, 33648, Note_on_c, 0, 69, 0
1, 33648, Note_on_c, 0, 70, 75
1, 33671, Note_on_c, 0, 70, 0
1, 33672, Note_on_c, 0, 74, 75
1, 33689, Note_on_c, 1, 65, 0
1, 33689, Note_on_c, 1, 62, 0
1, 33695, Note_on_c, 0, 74, 0
1, 33696, Note_on_c, 0, 65, 75
1, 33792, Note_on_c, 1, 62, 75
1, 33792, Note_on_c, 1, 53, 75
1, 33822, Note_on_c, 0, 65, 0
1, 33824, Note_on_c, 0, 67, 75
1, 33854, Note_on_c, 0, 67, 0
1, 33856, Note_on_c, 0, 65, 75
1, 33881, Note_on_c, 1, 62, 0
1, 33881, Note_on_c, 1, 53, 0
1, 33886, Note_on_c, 0, 65, 0
1, 33888, Note_on_c, 0, 63, 75
1, 33888, Note_on_c, 1, 60, 75
1, 33888, Note_on_c, 1, 53, 75
1, 33894, Note_on_c, 0, 63, 0
1, 33894, Note_on_c, 0, 65, 75
1, 33900, Note_on_c, 0, 65, 0
1, 33900, Note_on_c, 0, 63, 75
1, 33918, Note_on_c, 0, 63, 0
1, 33920, Note_on_c, 0, 62, 75
1, 33950, Note_on_c, 0, 62, 0
1, 33952, Note_on_c, 0, 63, 75
1, 33977, Note_on_c, 1, 60, 0
1, 33977, Note_on_c, 1, 53, 0
1, 33982, Note_on_c, 0, 63, 0
1, 33984, Note_on_c, 0, 63, 75
1, 33984, Note_on_c, 1, 58, 75
1, 34073, Note_on_c, 1, 58, 0
1, 34080, Note_on_c, 1, 46, 75
1, 34110, Note_on_c, 0, 63, 0
1, 34112, Note_on_c, 0, 62, 75
1, 34142, Note_on_c, 0, 62, 0
1, 34144, Note_on_c, 0, 65, 75
1, 34169, Note_on_c, 1, 46, 0
1, 34174, Note_on_c, 0, 65, 0
1, 34176, Note_on_c, 0, 69, 75
1, 34206, Note_on_c, 0, 69, 0
1, 34208, Note_on_c, 0, 70, 75
1, 34238, Note_on_c, 0, 70, 0
1, 34240, Note_on_c, 0, 74, 75
1, 34272, Note_on_c, 0, 77, 75
1, 34272, Note_on_c, 1, 34, 75
1, 34361, Note_on_c, 1, 34, 0
1, 34368, Note_on_c, 1, 58, 75
1, 34413, Note_on_c, 0, 77, 0
1, 34413, Note_on_c, 0, 74, 0
1, 34416, Note_on_c, 0, 79, 75
1, 34439, Note_on_c, 0, 79, 0
1, 34440, Note_on_c, 0, 81, 75
1, 34457, Note_on_c, 1, 58, 0
1, 34463, Note_on_c, 0, 81, 0
1, 34464, Note_on_c, 0, 84, 75
1, 34487, Note_on_c, 0, 84, 0
1, 34488, Note_on_c, 0, 82, 75
1, 34511, Note_on_c, 0, 82, 0
1, 34512, Note_on_c, 0, 81, 75
1, 34535, Note_on_c, 0, 81, 0
1, 34536, Note_on_c, 0, 79, 75
1, 34536, Note_on_c, 1, 75, 75
1, 34559, Note_on_c, 0, 79, 0
1, 34559, Note_on_c, 1, 75, 0
1, 34560, Note_on_c, 0, 77, 75
1, 34560, Note_on_c, 1, 74, 75
1, 34649, Note_on_c, 0, 77, 0
1, 34649, Note_on_c, 1, 74, 0
1, 34656, Note_on_c, 0, 75, 75
1, 34656, Note_on_c, 1, 72, 75
1, 34656, Note_on_c, 1, 66, 75
1, 34665, Note_on_c, 0, 75, 0
1, 34665, Note_on_c, 0, 77, 75
1, 34674, Note_on_c, 0, 77, 0
1, 34674, Note_on_c, 0, 75, 75
1, 34683, Note_on_c, 0, 75, 0
1, 34683, Note_on_c, 0, 77, 75
1, 34692, Note_on_c, 0, 77, 0
1, 34692, Note_on_c, 0, 75, 75
1, 34701, Note_on_c, 0, 75, 0
1, 34701, Note_on_c, 0, 77, 75
1, 34710, Note_on_c, 0, 77, 0
1, 34710, Note_on_c, 0, 75, 75
1, 34719, Note_on_c, 0, 75, 0
1, 34719, Note_on_c, 0, 74, 75
1, 34736, Note_on_c, 0, 74, 0
1, 34736, Note_on_c, 0, 75, 75
1, 34745, Note_on_c, 1, 72, 0
1, 34745, Note_on_c, 1, 66, 0
1, 34752, Note_on_c, 0, 75, 0
1, 34752, Note_on_c, 0, 74, 75
1, 34752, Note_on_c, 1, 70, 75
1, 34752, Note_on_c, 1, 67, 75
1, 34841, Note_on_c, 0, 74, 0
1, 34841, Note_on_c, 1, 70, 0
1, 34841, Note_on_c, 1, 67, 0
1, 34848, Note_on_c, 1, 70, 70
1, 34848, Note_on_c, 1, 63, 70
1, 34896, Note_on_c, 0, 78, 70
1, 34941, Note_on_c, 0, 78, 0
1, 34944, Note_on_c, 0, 79, 70
1, 34989, Note_on_c, 0, 79, 0
1, 34992, Note_on_c, 0, 81, 70
1, 35037, Note_on_c, 0, 81, 0
1, 35040, Note_on_c, 0, 84, 70
1, 35063, Note_on_c, 0, 84, 0
1, 35064, Note_on_c, 0, 82, 70
1, 35087, Note_on_c, 0, 82, 0
1, 35088, Note_on_c, 0, 81, 70
1, 35111, Note_on_c, 0, 81, 0
1, 35112, Note_on_c, 0, 79, 70
1, 35135, Note_on_c, 0, 79, 0
1, 35136, Note_on_c, 0, 79, 70
1, 35136, Note_on_c, 1, 63, 0
1, 35136, Note_on_c, 1, 62, 70
1, 35159, Note_on_c, 0, 79, 0
1, 35160, Note_on_c, 0, 77, 70
1, 35183, Note_on_c, 0, 77, 0
1, 35184, Note_on_c, 0, 76, 70
1, 35207, Note_on_c, 0, 76, 0
1, 35208, Note_on_c, 0, 79, 70
1, 35231, Note_on_c, 0, 79, 0
1, 35232, Note_on_c, 0, 77, 70
1, 35277, Note_on_c, 0, 77, 0
1, 35280, Note_on_c, 0, 79, 70
1, 35292, Note_on_c, 0, 79, 0
1, 35292, Note_on_c, 0, 77, 70
1, 35304, Note_on_c, 0, 77, 0
1, 35304, Note_on_c, 0, 76, 70
1, 35316, Note_on_c, 0, 76, 0
1, 35316, Note_on_c, 0, 77, 70
1, 35328, Note_on_c, 0, 77, 0
1, 35328, Note_on_c, 0, 81, 70
1, 35373, Note_on_c, 0, 81, 0
1, 35376, Note_on_c, 0, 82, 70
1, 35401, Note_on_c, 1, 70, 0
1, 35401, Note_on_c, 1, 62, 0
1, 35424, Note_on_c, 1, 70, 70
1, 35424, Note_on_c, 1, 63, 70
1, 35469, Note_on_c, 0, 82, 0
1, 35472, Note_on_c, 0, 78, 70
1, 35517, Note_on_c, 0, 78, 0
1, 35520, Note_on_c, 0, 81, 70
1, 35543, Note_on_c, 0, 81, 0
1, 35544, Note_on_c, 0, 79, 70
1, 35567, Note_on_c, 0, 79, 0
1, 35568, Note_on_c, 0, 82, 70
1, 35591, Note_on_c, 0, 82, 0
1, 35592, Note_on_c, 0, 81, 70
1, 35615, Note_on_c, 0, 81, 0
1, 35616, Note_on_c, 0, 84, 70
1, 35639, Note_on_c, 0, 84, 0
1, 35640, Note_on_c, 0, 82, 70
1, 35663, Note_on_c, 0, 82, 0
1, 35664, Note_on_c, 0, 81, 70
1, 35687, Note_on_c, 0, 81, 0
1, 35688, Note_on_c, 0, 79, 70
1, 35689, Note_on_c, 1, 70, 0
1, 35689, Note_on_c, 1, 63, 0
1, 35711, Note_on_c, 0, 79, 0
1, 35712, Note_on_c, 0, 79, 70
1, 35712, Note_on_c, 1, 71, 70
1, 35712, Note_on_c, 1, 62, 70
1, 35735, Note_on_c, 0, 79, 0
1, 35736, Note_on_c, 0, 77, 70
1, 35759, Note_on_c, 0, 77, 0
1, 35760, Note_on_c, 0, 76, 70
1, 35783, Note_on_c, 0, 76, 0
1, 35784, Note_on_c, 0, 79, 70
1, 35807, Note_on_c, 0, 79, 0
1, 35808, Note_on_c, 0, 77, 70
1, 35853, Note_on_c, 0, 77, 0
1, 35856, Note_on_c, 0, 79, 70
1, 35868, Note_on_c, 0, 79, 0
1, 35868, Note_on_c, 0, 77, 70
1, 35880, Note_on_c, 0, 77, 0
1, 35880, Note_on_c, 0, 76, 70
1, 35892, Note_on_c, 0, 76, 0
1, 35892, Note_on_c, 0, 77, 70
1, 35904, Note_on_c, 0, 77, 0
1, 35904, Note_on_c, 0, 86, 70
1, 35949, Note_on_c, 0, 86, 0
1, 35952, Note_on_c, 0, 77, 70
1, 35977, Note_on_c, 1, 71, 0
1, 35977, Note_on_c, 1, 62, 0
1, 35997, Note_on_c, 0, 77, 0
1, 36000, Note_on_c, 0, 77, 70
1, 36000, Note_on_c, 1, 72, 70
1, 36000, Note_on_c, 1, 60, 64
1, 36048, Note_on_c, 0, 77, 0
1, 36048, Note_on_c, 0, 75, 70
1, 36068, Note_on_c, 0, 75, 0
1, 36089, Note_on_c, 1, 72, 0
1, 36096, Note_on_c, 1, 69, 70
1, 36120, Note_on_c, 0, 75, 70
1, 36143, Note_on_c, 0, 75, 0
1, 36144, Note_on_c, 0, 77, 70
1, 36156, Note_on_c, 0, 77, 0
1, 36156, Note_on_c, 0, 75, 70
1, 36168, Note_on_c, 0, 75, 0
1, 36168, Note_on_c, 0, 74, 70
1, 36180, Note_on_c, 0, 74, 0
1, 36180, Note_on_c, 0, 75, 70
1, 36192, Note_on_c, 0, 75, 0
1, 36192, Note_on_c, 0, 84, 70
1, 36237, Note_on_c, 0, 84, 0
1, 36240, Note_on_c, 0, 75, 70
1, 36265, Note_on_c, 1, 60, 0
1, 36273, Note_on_c, 1, 69, 0
1, 36288, Note_on_c, 1, 70, 70
1, 36288, Note_on_c, 1, 58, 70
1, 36333, Note_on_c, 0, 75, 0
1, 36336, Note_on_c, 0, 74, 70
1, 36381, Note_on_c, 0, 74, 0
1, 36382, Note_on_c, 1, 70, 0
1, 36382, Note_on_c, 1, 58, 0
1, 36384, Note_on_c, 0, 74, 70
1, 36384, Note_on_c, 1, 63, 70
1, 36407, Note_on_c, 0, 74, 0
1, 36408, Note_on_c, 0, 71, 70
1, 36431, Note_on_c, 0, 71, 0
1, 36432, Note_on_c, 0, 72, 70
1, 36455, Note_on_c, 0, 72, 0
1, 36456, Note_on_c, 0, 79, 70
1, 36473, Note_on_c, 1, 63, 0
1, 36479, Note_on_c, 0, 79, 0
1, 36480, Note_on_c, 0, 77, 70
1, 36503, Note_on_c, 0, 77, 0
1, 36504, Note_on_c, 0, 75, 70
1, 36527, Note_on_c, 0, 75, 0
1, 36528, Note_on_c, 0, 74, 70
1, 36551, Note_on_c, 0, 74, 0
1, 36552, Note_on_c, 0, 72, 70
1, 36575, Note_on_c, 0, 72, 0
1, 36576, Note_on_c, 0, 70, 70
1, 36624, Note_on_c, 1, 53, 75
1, 36669, Note_on_c, 1, 53, 0
1, 36672, Note_on_c, 0, 70, 0
1, 36672, Note_on_c, 0, 69, 70
1, 36672, Note_on_c, 1, 41, 75
1, 36678, Note_on_c, 0, 69, 0
1, 36678, Note_on_c, 0, 70, 70
1, 36684, Note_on_c, 0, 70, 0
1, 36684, Note_on_c, 0, 69, 70
1, 36717, Note_on_c, 0, 69, 0
1, 36717, Note_on_c, 1, 41, 0
1, 36720, Note_on_c, 1, 45, 75
1, 36765, Note_on_c, 1, 45, 0
1, 36768, Note_on_c, 1, 48, 75
1, 36813, Note_on_c, 1, 48, 0
1, 36816, Note_on_c, 1, 52, 75
1, 36861, Note_on_c, 1, 52, 0
1, 36864, Note_on_c, 1, 53, 75
1, 36912, Note_on_c, 0, 77, 75
1, 36912, Note_on_c, 0, 74, 75
1, 36953, Note_on_c, 1, 53, 0
1, 36957, Note_on_c, 0, 77, 0
1, 36957, Note_on_c, 0, 74, 0
1, 36960, Note_on_c, 0, 75, 75
1, 36960, Note_on_c, 0, 72, 75
1, 37005, Note_on_c, 0, 75, 0
1, 37005, Note_on_c, 0, 72, 0
1, 37008, Note_on_c, 0, 74, 75
1, 37008, Note_on_c, 0, 70, 75
1, 37053, Note_on_c, 0, 74, 0
1, 37053, Note_on_c, 0, 70, 0
1, 37056, Note_on_c, 0, 72, 75
1, 37056, Note_on_c, 0, 69, 75
1, 37101, Note_on_c, 0, 72, 0
1, 37101, Note_on_c, 0, 69, 0
1, 37104, Note_on_c, 0, 74, 75
1, 37104, Note_on_c, 0, 70, 75
1, 37149, Note_on_c, 0, 74, 0
1, 37149, Note_on_c, 0, 70, 0
1, 37152, Note_on_c, 0, 74, 91
1, 37152, Note_on_c, 0, 71, 91
1, 37200, Note_on_c, 1, 53, 75
1, 37245, Note_on_c, 1, 53, 0
1, 37248, Note_on_c, 0, 74, 0
1, 37248, Note_on_c, 0, 71, 0
1, 37248, Note_on_c, 0, 75, 75
1, 37248, Note_on_c, 0, 72, 75
1, 37248, Note_on_c, 1, 41, 75
1, 37293, Note_on_c, 1, 41, 0
1, 37296, Note_on_c, 1, 45, 75
1, 37341, Note_on_c, 1, 45, 0
1, 37344, Note_on_c, 1, 48, 75
1, 37389, Note_on_c, 1, 48, 0
1, 37392, Note_on_c, 1, 52, 75
1, 37437, Note_on_c, 1, 52, 0
1, 37440, Note_on_c, 1, 53, 75
1, 37485, Note_on_c, 0, 75, 0
1, 37485, Note_on_c, 0, 72, 0
1, 37488, Note_on_c, 0, 79, 75
1, 37488, Note_on_c, 0, 75, 75
1, 37529, Note_on_c, 1, 53, 0
1, 37533, Note_on_c, 0, 79, 0
1, 37533, Note_on_c, 0, 75, 0
1, 37536, Note_on_c, 0, 77, 75
1, 37536, Note_on_c, 0, 74, 75
1, 37581, Note_on_c, 0, 77, 0
1, 37581, Note_on_c, 0, 74, 0
1, 37584, Note_on_c, 0, 75, 75
1, 37584, Note_on_c, 0, 72, 75
1, 37629, Note_on_c, 0, 75, 0
1, 37629, Note_on_c, 0, 72, 0
1, 37632, Note_on_c, 0, 74, 75
1, 37632, Note_on_c, 0, 70, 75
1, 37677, Note_on_c, 0, 74, 0
1, 37677, Note_on_c, 0, 70, 0
1, 37680, Note_on_c, 0, 72, 75
1, 37680, Note_on_c, 0, 69, 75
1, 37725, Note_on_c, 0, 72, 0
1, 37725, Note_on_c, 0, 69, 0
1, 37728, Note_on_c, 0, 73, 91
1, 37728, Note_on_c, 0, 69, 91
1, 37776, Note_on_c, 1, 58, 75
1, 37821, Note_on_c, 1, 58, 0
1, 37824, Note_on_c, 0, 73, 0
1, 37824, Note_on_c, 0, 69, 0
1, 37824, Note_on_c, 0, 74, 75
1, 37824, Note_on_c, 0, 70, 75
1, 37824, Note_on_c, 1, 46, 75
1, 37869, Note_on_c, 1, 46, 0
1, 37872, Note_on_c, 1, 50, 75
1, 37917, Note_on_c, 1, 50, 0
1, 37920, Note_on_c, 1, 53, 75
1, 37965, Note_on_c, 1, 53, 0
1, 37968, Note_on_c, 1, 57, 75
1, 38001, Note_on_c, 0, 74, 0
1, 38001, Note_on_c, 0, 70, 0
1, 38013, Note_on_c, 1, 57, 0
1, 38016, Note_on_c, 1, 58, 75
1, 38064, Note_on_c, 0, 85, 75
1, 38109, Note_on_c, 0, 85, 0
1, 38112, Note_on_c, 0, 86, 75
1, 38157, Note_on_c, 0, 86, 0
1, 38160, Note_on_c, 0, 81, 75
1, 38205, Note_on_c, 0, 81, 0
1, 38208, Note_on_c, 0, 82, 75
1, 38253, Note_on_c, 0, 82, 0
1, 38256, Note_on_c, 0, 79, 75
1, 38281, Note_on_c, 1, 58, 0
1, 38301, Note_on_c, 0, 79, 0
1, 38304, Note_on_c, 0, 77, 75
1, 38349, Note_on_c, 0, 77, 0
1, 38352, Note_on_c, 0, 76, 75
1, 38400, Note_on_c, 1, 70, 75
1, 38441, Note_on_c, 0, 76, 0
1, 38448, Note_on_c, 0, 85, 75
1, 38489, Note_on_c, 1, 70, 0
1, 38496, Note_on_c, 1, 69, 75
1, 38537, Note_on_c, 0, 85, 0
1, 38544, Note_on_c, 0, 84, 75
1, 38592, Note_on_c, 1, 77, 75
1, 38615, Note_on_c, 0, 84, 0
1, 38616, Note_on_c, 0, 87, 75
1, 38639, Note_on_c, 0, 87, 0
1, 38640, Note_on_c, 0, 86, 75
1, 38663, Note_on_c, 0, 86, 0
1, 38664, Note_on_c, 0, 89, 75
1, 38687, Note_on_c, 0, 89, 0
1, 38688, Note_on_c, 0, 87, 75
1, 38711, Note_on_c, 0, 87, 0
1, 38712, Note_on_c, 0, 86, 75
1, 38735, Note_on_c, 0, 86, 0
1, 38736, Note_on_c, 0, 84, 75
1, 38759, Note_on_c, 0, 84, 0
1, 38760, Note_on_c, 0, 82, 75
1, 38769, Note_on_c, 1, 77, 0
1, 38769, Note_on_c, 1, 69, 0
1, 38783, Note_on_c, 0, 82, 0
1, 38784, Note_on_c, 0, 81, 75
1, 38807, Note_on_c, 0, 81, 0
1, 38808, Note_on_c, 0, 79, 75
1, 38831, Note_on_c, 0, 79, 0
1, 38832, Note_on_c, 0, 77, 75
1, 38855, Note_on_c, 0, 77, 0
1, 38856, Note_on_c, 0, 75, 75
1, 38879, Note_on_c, 0, 75, 0
1, 38880, Note_on_c, 0, 74, 75
1, 38925, Note_on_c, 0, 74, 0
1, 38928, Note_on_c, 0, 82, 75
1, 38976, Note_on_c, 1, 67, 75
1, 39024, Note_on_c, 0, 75, 64
1, 39061, Note_on_c, 0, 82, 0
1, 39065, Note_on_c, 1, 67, 0
1, 39069, Note_on_c, 0, 75, 0
1, 39072, Note_on_c, 0, 81, 75
1, 39072, Note_on_c, 0, 77, 64
1, 39072, Note_on_c, 1, 65, 75
1, 39078, Note_on_c, 0, 77, 0
1, 39078, Note_on_c, 0, 75, 64
1, 39117, Note_on_c, 0, 75, 0
1, 39120, Note_on_c, 0, 74, 64
1, 39161, Note_on_c, 0, 81, 0
1, 39161, Note_on_c, 1, 65, 0
1, 39165, Note_on_c, 0, 74, 0
1, 39168, Note_on_c, 0, 79, 75
1, 39216, Note_on_c, 0, 67, 64
1, 39261, Note_on_c, 0, 67, 0
1, 39264, Note_on_c, 0, 71, 64
1, 39264, Note_on_c, 1, 63, 75
1, 39309, Note_on_c, 0, 71, 0
1, 39312, Note_on_c, 0, 72, 64
1, 39345, Note_on_c, 0, 79, 0
1, 39353, Note_on_c, 1, 63, 0
1, 39357, Note_on_c, 0, 72, 0
1, 39360, Note_on_c, 0, 77, 75
1, 39360, Note_on_c, 0, 74, 64
1, 39360, Note_on_c, 1, 62, 75
1, 39366, Note_on_c, 0, 74, 0
1, 39366, Note_on_c, 0, 72, 64
1, 39405, Note_on_c, 0, 72, 0
1, 39408, Note_on_c, 0, 70, 64
1, 39449, Note_on_c, 0, 77, 0
1, 39449, Note_on_c, 1, 62, 0
1, 39456, Note_on_c, 0, 75, 75
1, 39456, Note_on_c, 1, 60, 75
1, 39501, Note_on_c, 0, 70, 0
1, 39504, Note_on_c, 0, 67, 64
1, 39545, Note_on_c, 1, 60, 0
1, 39549, Note_on_c, 0, 67, 0
1, 39552, Note_on_c, 0, 69, 64
1, 39552, Note_on_c, 1, 53, 75
1, 39597, Note_on_c, 0, 69, 0
1, 39600, Note_on_c, 0, 72, 64
1, 39641, Note_on_c, 1, 53, 0
1, 39645, Note_on_c, 0, 72, 0
1, 39648, Note_on_c, 0, 65, 64
1, 39648, Note_on_c, 1, 58, 75
1, 39693, Note_on_c, 0, 75, 0
1, 39696, Note_on_c, 0, 74, 75
1, 39737, Note_on_c, 0, 65, 0
1, 39737, Note_on_c, 1, 58, 0
1, 39744, Note_on_c, 0, 67, 64
1, 39744, Note_on_c, 1, 51, 75
1, 39767, Note_on_c, 0, 74, 0
1, 39768, Note_on_c, 0, 72, 75
1, 39791, Note_on_c, 0, 72, 0
1, 39792, Note_on_c, 0, 75, 75
1, 39815, Note_on_c, 0, 75, 0
1, 39816, Note_on_c, 0, 72, 75
1, 39833, Note_on_c, 0, 67, 0
1, 39833, Note_on_c, 1, 51, 0
1, 39839, Note_on_c, 0, 72, 0
1, 39840, Note_on_c, 0, 70, 75
1, 39840, Note_on_c, 0, 62, 64
1, 39840, Note_on_c, 1, 53, 75
1, 39929, Note_on_c, 0, 70, 0
1, 39929, Note_on_c, 0, 62, 0
1, 39936, Note_on_c, 0, 69, 75
1, 39936, Note_on_c, 0, 60, 64
1, 39947, Note_on_c, 0, 69, 0
1, 39947, Note_on_c, 0, 70, 75
1, 39958, Note_on_c, 0, 70, 0
1, 39958, Note_on_c, 0, 69, 75
1, 39969, Note_on_c, 0, 69, 0
1, 39969, Note_on_c, 0, 70, 75
1, 39980, Note_on_c, 0, 70, 0
1, 39980, Note_on_c, 0, 69, 75
1, 39991, Note_on_c, 0, 69, 0
1, 39991, Note_on_c, 0, 67, 75
1, 40012, Note_on_c, 0, 67, 0
1, 40012, Note_on_c, 0, 69, 75
1, 40017, Note_on_c, 1, 53, 0
1, 40025, Note_on_c, 0, 60, 0
1, 40032, Note_on_c, 0, 69, 0
1, 40032, Note_on_c, 0, 82, 75
1, 40032, Note_on_c, 1, 55, 75
1, 40080, Note_on_c, 0, 75, 64
1, 40125, Note_on_c, 0, 75, 0
1, 40128, Note_on_c, 0, 77, 64
1, 40128, Note_on_c, 1, 55, 0
1, 40128, Note_on_c, 1, 67, 75
1, 40151, Note_on_c, 0, 77, 0
1, 40152, Note_on_c, 0, 75, 64
1, 40175, Note_on_c, 0, 75, 0
1, 40176, Note_on_c, 0, 74, 64
1, 40199, Note_on_c, 0, 74, 0
1, 40200, Note_on_c, 0, 75, 64
1, 40209, Note_on_c, 0, 82, 0
1, 40217, Note_on_c, 1, 67, 0
1, 40223, Note_on_c, 0, 75, 0
1, 40224, Note_on_c, 0, 81, 75
1, 40224, Note_on_c, 0, 75, 64
1, 40224, Note_on_c, 1, 65, 75
1, 40269, Note_on_c, 0, 75, 0
1, 40272, Note_on_c, 0, 74, 64
1, 40313, Note_on_c, 0, 81, 0
1, 40313, Note_on_c, 1, 65, 0
1, 40320, Note_on_c, 0, 79, 75
1, 40320, Note_on_c, 1, 51, 75
1, 40365, Note_on_c, 0, 74, 0
1, 40368, Note_on_c, 0, 72, 64
1, 40409, Note_on_c, 1, 51, 0
1, 40413, Note_on_c, 0, 72, 0
1, 40416, Note_on_c, 0, 74, 64
1, 40416, Note_on_c, 1, 63, 75
1, 40439, Note_on_c, 0, 74, 0
1, 40440, Note_on_c, 0, 72, 64
1, 40463, Note_on_c, 0, 72, 0
1, 40464, Note_on_c, 0, 71, 64
1, 40487, Note_on_c, 0, 71, 0
1, 40488, Note_on_c, 0, 72, 64
1, 40497, Note_on_c, 0, 79, 0
1, 40505, Note_on_c, 1, 63, 0
1, 40511, Note_on_c, 0, 72, 0
1, 40512, Note_on_c, 0, 77, 75
1, 40512, Note_on_c, 0, 72, 64
1, 40512, Note_on_c, 1, 62, 75
1, 40557, Note_on_c, 0, 72, 0
1, 40560, Note_on_c, 0, 70, 64
1, 40601, Note_on_c, 0, 77, 0
1, 40601, Note_on_c, 1, 62, 0
1, 40608, Note_on_c, 0, 75, 75
1, 40608, Note_on_c, 1, 60, 75
1, 40653, Note_on_c, 0, 70, 0
1, 40656, Note_on_c, 0, 70, 64
1, 40701, Note_on_c, 0, 70, 0
1, 40704, Note_on_c, 0, 72, 64
1, 40727, Note_on_c, 0, 72, 0
1, 40728, Note_on_c, 0, 70, 64
1, 40751, Note_on_c, 0, 70, 0
1, 40752, Note_on_c, 0, 69, 64
1, 40775, Note_on_c, 0, 69, 0
1, 40776, Note_on_c, 0, 70, 64
1, 40799, Note_on_c, 0, 70, 0
1, 40800, Note_on_c, 0, 69, 64
1, 40845, Note_on_c, 0, 75, 0
1, 40848, Note_on_c, 0, 75, 75
1, 40893, Note_on_c, 0, 75, 0
1, 40896, Note_on_c, 0, 77, 75
1, 40919, Note_on_c, 0, 77, 0
1, 40920, Note_on_c, 0, 75, 75
1, 40943, Note_on_c, 0, 75, 0
1, 40944, Note_on_c, 0, 74, 75
1, 40967, Note_on_c, 0, 74, 0
1, 40968, Note_on_c, 0, 75, 75
1, 40991, Note_on_c, 0, 75, 0
1, 40992, Note_on_c, 0, 84, 75
1, 40992, Note_on_c, 0, 75, 75
1, 41040, Note_on_c, 1, 65, 64
1, 41085, Note_on_c, 1, 65, 0
1, 41088, Note_on_c, 1, 64, 64
1, 41111, Note_on_c, 1, 64, 0
1, 41112, Note_on_c, 1, 65, 64
1, 41135, Note_on_c, 1, 65, 0
1, 41136, Note_on_c, 1, 67, 64
1, 41159, Note_on_c, 1, 67, 0
1, 41160, Note_on_c, 1, 65, 64
1, 41183, Note_on_c, 1, 65, 0
1, 41184, Note_on_c, 1, 65, 64
1, 41361, Note_on_c, 0, 84, 0
1, 41361, Note_on_c, 0, 75, 0
1, 41361, Note_on_c, 0, 69, 0
1, 41361, Note_on_c, 1, 60, 0
1, 41361, Note_on_c, 1, 65, 0
1, 41424, Note_on_c, 0, 81, 75
1, 41424, Note_on_c, 1, 75, 75
1, 41447, Note_on_c, 0, 81, 0
1, 41448, Note_on_c, 0, 77, 75
1, 41471, Note_on_c, 0, 77, 0
1, 41472, Note_on_c, 0, 82, 75
1, 41472, Note_on_c, 1, 75, 0
1, 41472, Note_on_c, 1, 74, 75
1, 41492, Note_on_c, 0, 82, 0
1, 41492, Note_on_c, 1, 74, 0
1, 41520, Note_on_c, 0, 81, 75
1, 41520, Note_on_c, 1, 75, 75
1, 41543, Note_on_c, 0, 81, 0
1, 41544, Note_on_c, 0, 77, 75
1, 41567, Note_on_c, 0, 77, 0
1, 41568, Note_on_c, 0, 82, 75
1, 41568, Note_on_c, 1, 75, 0
1, 41568, Note_on_c, 1, 74, 75
1, 41588, Note_on_c, 0, 82, 0
1, 41588, Note_on_c, 1, 74, 0
1, 41616, Note_on_c, 0, 81, 75
1, 41616, Note_on_c, 1, 75, 75
1, 41639, Note_on_c, 0, 81, 0
1, 41640, Note_on_c, 0, 77, 75
1, 41663, Note_on_c, 0, 77, 0
1, 41664, Note_on_c, 0, 82, 75
1, 41664, Note_on_c, 1, 75, 0
1, 41664, Note_on_c, 1, 74, 75
1, 41684, Note_on_c, 0, 82, 0
1, 41684, Note_on_c, 1, 74, 0
1, 41712, Note_on_c, 0, 84, 75
1, 41712, Note_on_c, 1, 69, 75
1, 41735, Note_on_c, 0, 84, 0
1, 41736, Note_on_c, 0, 77, 75
1, 41759, Note_on_c, 0, 77, 0
1, 41760, Note_on_c, 0, 86, 75
1, 41760, Note_on_c, 1, 69, 0
1, 41760, Note_on_c, 1, 70, 75
1, 41780, Note_on_c, 0, 86, 0
1, 41780, Note_on_c, 1, 70, 0
1, 41808, Note_on_c, 0, 87, 75
1, 41808, Note_on_c, 1, 72, 75
1, 41831, Note_on_c, 0, 87, 0
1, 41832, Note_on_c, 0, 77, 75
1, 41855, Note_on_c, 0, 77, 0
1, 41856, Note_on_c, 0, 89, 75
1, 41856, Note_on_c, 1, 72, 0
1, 41856, Note_on_c, 1, 74, 75
1, 41876, Note_on_c, 0, 89, 0
1, 41876, Note_on_c, 1, 74, 0
1, 41952, Note_on_c, 0, 87, 75
1, 41975, Note_on_c, 0, 87, 0
1, 41976, Note_on_c, 0, 86, 75
1, 41999, Note_on_c, 0, 86, 0
1, 42000, Note_on_c, 0, 84, 75
1, 42000, Note_on_c, 1, 62, 75
1, 42023, Note_on_c, 0, 84, 0
1, 42024, Note_on_c, 0, 82, 75
1, 42045, Note_on_c, 1, 62, 0
1, 42047, Note_on_c, 0, 82, 0
1, 42048, Note_on_c, 0, 81, 75
1, 42048, Note_on_c, 1, 63, 75
1, 42071, Note_on_c, 0, 81, 0
1, 42072, Note_on_c, 0, 79, 75
1, 42095, Note_on_c, 0, 79, 0
1, 42096, Note_on_c, 0, 77, 75
1, 42119, Note_on_c, 0, 77, 0
1, 42120, Note_on_c, 0, 75, 75
1, 42137, Note_on_c, 1, 63, 0
1, 42143, Note_on_c, 0, 75, 0
1, 42144, Note_on_c, 0, 74, 75
1, 42144, Note_on_c, 1, 65, 75
1, 42233, Note_on_c, 0, 74, 0
1, 42233, Note_on_c, 1, 65, 0
1, 42240, Note_on_c, 0, 72, 75
1, 42240, Note_on_c, 1, 53, 75
1, 42249, Note_on_c, 0, 72, 0
1, 42249, Note_on_c, 0, 74, 75
1, 42258, Note_on_c, 0, 74, 0
1, 42258, Note_on_c, 0, 72, 75
1, 42267, Note_on_c, 0, 72, 0
1, 42267, Note_on_c, 0, 74, 75
1, 42276, Note_on_c, 0, 74, 0
1, 42276, Note_on_c, 0, 72, 75
1, 42285, Note_on_c, 0, 72, 0
1, 42285, Note_on_c, 0, 74, 75
1, 42294, Note_on_c, 0, 74, 0
1, 42294, Note_on_c, 0, 72, 75
1, 42303, Note_on_c, 0, 72, 0
1, 42303, Note_on_c, 0, 70, 75
1, 42320, Note_on_c, 0, 70, 0
1, 42320, Note_on_c, 0, 72, 75
1, 42329, Note_on_c, 1, 53, 0
1, 42336, Note_on_c, 0, 72, 0
1, 42336, Note_on_c, 0, 70, 75
1, 42336, Note_on_c, 1, 58, 75
1, 42381, Note_on_c, 0, 70, 0
1, 42381, Note_on_c, 1, 58, 0
1, 42384, Note_on_c, 0, 69, 75
1, 42384, Note_on_c, 1, 63, 75
1, 42407, Note_on_c, 0, 69, 0
1, 42408, Note_on_c, 0, 65, 75
1, 42429, Note_on_c, 1, 63, 0
1, 42431, Note_on_c, 0, 65, 0
1, 42432, Note_on_c, 0, 70, 75
1, 42432, Note_on_c, 1, 62, 75
1, 42455, Note_on_c, 0, 70, 0
1, 42456, Note_on_c, 0, 65, 75
1, 42477, Note_on_c, 1, 62, 0
1, 42479, Note_on_c, 0, 65, 0
1, 42480, Note_on_c, 0, 69, 75
1, 42480, Note_on_c, 1, 63, 75
1, 42503, Note_on_c, 0, 69, 0
1, 42504, Note_on_c, 0, 65, 75
1, 42525, Note_on_c, 1, 63, 0
1, 42527, Note_on_c, 0, 65, 0
1, 42528, Note_on_c, 0, 70, 75
1, 42528, Note_on_c, 1, 62, 75
1, 42551, Note_on_c, 0, 70, 0
1, 42552, Note_on_c, 0, 65, 75
1, 42573, Note_on_c, 1, 62, 0
1, 42575, Note_on_c, 0, 65, 0
1, 42576, Note_on_c, 0, 72, 75
1, 42576, Note_on_c, 1, 57, 75
1, 42599, Note_on_c, 0, 72, 0
1, 42600, Note_on_c, 0, 65, 75
1, 42621, Note_on_c, 1, 57, 0
1, 42623, Note_on_c, 0, 65, 0
1, 42624, Note_on_c, 0, 74, 75
1, 42624, Note_on_c, 1, 58, 75
1, 42647, Note_on_c, 0, 74, 0
1, 42648, Note_on_c, 0, 65, 75
1, 42669, Note_on_c, 1, 58, 0
1, 42671, Note_on_c, 0, 65, 0
1, 42672, Note_on_c, 0, 75, 75
1, 42672, Note_on_c, 1, 60, 75
1, 42695, Note_on_c, 0, 75, 0
1, 42696, Note_on_c, 0, 65, 75
1, 42717, Note_on_c, 1, 60, 0
1, 42719, Note_on_c, 0, 65, 0
1, 42720, Note_on_c, 0, 77, 75
1, 42720, Note_on_c, 1, 62, 75
1, 42765, Note_on_c, 0, 77, 0
1, 42765, Note_on_c, 1, 62, 0
1, 42768, Note_on_c, 0, 82, 75
1, 42791, Note_on_c, 0, 82, 0
1, 42792, Note_on_c, 0, 70, 75
1, 42815, Note_on_c, 0, 70, 0
1, 42816, Note_on_c, 0, 81, 75
1, 42839, Note_on_c, 0, 81, 0
1, 42840, Note_on_c, 0, 69, 75
1, 42863, Note_on_c, 0, 69, 0
1, 42864, Note_on_c, 0, 80, 75
1, 42864, Note_on_c, 1, 50, 75
1, 42887, Note_on_c, 0, 80, 0
1, 42888, Note_on_c, 0, 68, 75
1, 42909, Note_on_c, 1, 50, 0
1, 42911, Note_on_c, 0, 68, 0
1, 42912, Note_on_c, 0, 67, 75
1, 42912, Note_on_c, 1, 51, 75
1, 42922, Note_on_c, 0, 67, 0
1, 42936, Note_on_c, 0, 79, 75
1, 42936, Note_on_c, 0, 75, 75
1, 42959, Note_on_c, 0, 79, 0
1, 42959, Note_on_c, 0, 75, 0
1, 42960, Note_on_c, 0, 77, 75
1, 42960, Note_on_c, 0, 74, 75
1, 42983, Note_on_c, 0, 77, 0
1, 42983, Note_on_c, 0, 74, 0
1, 42984, Note_on_c, 0, 75, 75
1, 42984, Note_on_c, 0, 72, 75
1, 43001, Note_on_c, 1, 51, 0
1, 43007, Note_on_c, 0, 75, 0
1, 43007, Note_on_c, 0, 72, 0
1, 43008, Note_on_c, 0, 74, 75
1, 43008, Note_on_c, 0, 70, 75
1, 43008, Note_on_c, 1, 53, 75
1, 43097, Note_on_c, 0, 74, 0
1, 43097, Note_on_c, 0, 70, 0
1, 43097, Note_on_c, 1, 53, 0
1, 43104, Note_on_c, 0, 72, 75
1, 43104, Note_on_c, 0, 69, 64
1, 43104, Note_on_c, 1, 41, 75
1, 43113, Note_on_c, 0, 72, 0
1, 43113, Note_on_c, 0, 74, 75
1, 43122, Note_on_c, 0, 74, 0
1, 43122, Note_on_c, 0, 72, 75
1, 43131, Note_on_c, 0, 72, 0
1, 43131, Note_on_c, 0, 74, 75
1, 43140, Note_on_c, 0, 74, 0
1, 43140, Note_on_c, 0, 72, 75
1, 43149, Note_on_c, 0, 72, 0
1, 43149, Note_on_c, 0, 74, 75
1, 43158, Note_on_c, 0, 74, 0
1, 43158, Note_on_c, 0, 72, 75
1, 43167, Note_on_c, 0, 72, 0
1, 43167, Note_on_c, 0, 70, 75
1, 43184, Note_on_c, 0, 70, 0
1, 43184, Note_on_c, 0, 72, 75
1, 43193, Note_on_c, 0, 69, 0
1, 43193, Note_on_c, 1, 41, 0
1, 43200, Note_on_c, 0, 72, 0
1, 43200, Note_on_c, 0, 70, 75
1, 43200, Note_on_c, 1, 46, 75
1, 43289, Note_on_c, 0, 70, 0
1, 43289, Note_on_c, 1, 46, 0
1, 43296, Note_on_c, 1, 34, 75
1, 43344, Note_on_c, 0, 77, 70
1, 43344, Note_on_c, 0, 74, 70
1, 43385, Note_on_c, 1, 34, 0
1, 43392, Note_on_c, 0, 77, 0
1, 43392, Note_on_c, 0, 74, 0
1, 43392, Note_on_c, 0, 79, 70
1, 43392, Note_on_c, 0, 75, 70
1, 43437, Note_on_c, 0, 79, 0
1, 43437, Note_on_c, 0, 75, 0
1, 43440, Note_on_c, 0, 75, 70
1, 43440, Note_on_c, 0, 69, 70
1, 43460, Note_on_c, 0, 75, 0
1, 43460, Note_on_c, 0, 69, 0
1, 43488, Note_on_c, 0, 75, 70
1, 43488, Note_on_c, 0, 69, 70
1, 43488, Note_on_c, 1, 46, 75
1, 43577, Note_on_c, 1, 46, 0
1, 43584, Note_on_c, 0, 75, 0
1, 43584, Note_on_c, 0, 69, 0
1, 43584, Note_on_c, 0, 74, 70
1, 43584, Note_on_c, 0, 70, 70
1, 43584, Note_on_c, 1, 34, 75
1, 43604, Note_on_c, 0, 74, 0
1, 43604, Note_on_c, 0, 70, 0
1, 43632, Note_on_c, 0, 74, 70
1, 43632, Note_on_c, 0, 65, 70
1, 43673, Note_on_c, 1, 34, 0
1, 43677, Note_on_c, 0, 74, 0
1, 43677, Note_on_c, 0, 65, 0
1, 43680, Note_on_c, 0, 75, 70
1, 43680, Note_on_c, 0, 67, 70
1, 43725, Note_on_c, 0, 75, 0
1, 43725, Note_on_c, 0, 67, 0
1, 43728, Note_on_c, 0, 69, 70
1, 43728, Note_on_c, 0, 63, 70
1, 43748, Note_on_c, 0, 69, 0
1, 43748, Note_on_c, 0, 63, 0
1, 43776, Note_on_c, 0, 69, 70
1, 43776, Note_on_c, 0, 63, 70
1, 43776, Note_on_c, 1, 46, 75
1, 43865, Note_on_c, 1, 46, 0
1, 43872, Note_on_c, 0, 69, 0
1, 43872, Note_on_c, 0, 63, 0
1, 43872, Note_on_c, 0, 70, 70
1, 43872, Note_on_c, 0, 62, 70
1, 43872, Note_on_c, 1, 34, 75
1, 43892, Note_on_c, 0, 70, 0
1, 43892, Note_on_c, 0, 62, 0
1, 43920, Note_on_c, 0, 65, 70
1, 43920, Note_on_c, 0, 62, 70
1, 43961, Note_on_c, 1, 34, 0
1, 43965, Note_on_c, 0, 65, 0
1, 43965, Note_on_c, 0, 62, 0
1, 43968, Note_on_c, 0, 67, 70
1, 43968, Note_on_c, 0, 63, 70
1, 44013, Note_on_c, 0, 67, 0
1, 44013, Note_on_c, 0, 63, 0
1, 44016, Note_on_c, 0, 57, 70
1, 44016, Note_on_c, 0, 51, 70
1, 44036, Note_on_c, 0, 57, 0
1, 44036, Note_on_c, 0, 51, 0
1, 44064, Note_on_c, 0, 57, 70
1, 44064, Note_on_c, 0, 51, 70
1, 44064, Note_on_c, 1, 46, 75
1, 44352, Note_on_c, 0, 57, 0
1, 44352, Note_on_c, 0, 51, 0
1, 44352, Note_on_c, 0, 58, 70
1, 44352, Note_on_c, 0, 50, 70
1, 44352, Note_on_c, 1, 46, 0
1, 44352, Note_on_c, 1, 34, 75
1, 44441, Note_on_c, 0, 58, 0
1, 44441, Note_on_c, 0, 50, 0
1, 44441, Note_on_c, 1, 34, 0
1, 44640, Note_on_c, 0, 72, 75
1, 44640, Note_on_c, 0, 69, 75
1, 44640, Note_on_c, 1, 41, 64
1, 44729, Note_on_c, 1, 41, 0
1, 44736, Note_on_c, 1, 53, 64
1, 44817, Note_on_c, 0, 72, 0
1, 44817, Note_on_c, 0, 69, 0
1, 44825, Note_on_c, 1, 53, 0
1, 44832, Note_on_c, 0, 76, 75
1, 44838, Note_on_c, 0, 76, 0
1, 44838, Note_on_c, 0, 74, 75
1, 44838, Note_on_c, 0, 70, 75
1, 44899, Note_on_c, 0, 74, 0
1, 44899, Note_on_c, 0, 70, 0
1, 44904, Note_on_c, 0, 72, 75
1, 44904, Note_on_c, 0, 69, 75
1, 44927, Note_on_c, 0, 72, 0
1, 44927, Note_on_c, 0, 69, 0
1, 44928, Note_on_c, 0, 72, 75
1, 44928, Note_on_c, 0, 69, 75
1, 45017, Note_on_c, 0, 72, 0
1, 45017, Note_on_c, 0, 69, 0
1, 45024, Note_on_c, 0, 70, 75
1, 45024, Note_on_c, 0, 67, 64
1, 45024, Note_on_c, 1, 60, 64
1, 45033, Note_on_c, 0, 70, 0
1, 45033, Note_on_c, 0, 72, 75
1, 45042, Note_on_c, 0, 72, 0
1, 45042, Note_on_c, 0, 70, 75
1, 45051, Note_on_c, 0, 70, 0
1, 45051, Note_on_c, 0, 72, 75
1, 45060, Note_on_c, 0, 72, 0
1, 45060, Note_on_c, 0, 70, 75
1, 45069, Note_on_c, 0, 70, 0
1, 45069, Note_on_c, 0, 72, 75
1, 45078, Note_on_c, 0, 72, 0
1, 45078, Note_on_c, 0, 70, 75
1, 45087, Note_on_c, 0, 70, 0
1, 45087, Note_on_c, 0, 69, 75
1, 45104, Note_on_c, 0, 69, 0
1, 45104, Note_on_c, 0, 70, 75
1, 45113, Note_on_c, 0, 67, 0
1, 45113, Note_on_c, 1, 60, 0
1, 45120, Note_on_c, 0, 70, 0
1, 45120, Note_on_c, 0, 69, 75
1, 45120, Note_on_c, 0, 65, 75
1, 45120, Note_on_c, 1, 62, 64
1, 45209, Note_on_c, 0, 69, 0
1, 45209, Note_on_c, 0, 65, 0
1, 45209, Note_on_c, 1, 62, 0
1, 45216, Note_on_c, 0, 74, 75
1, 45216, Note_on_c, 1, 65, 64
1, 45216, Note_on_c, 1, 58, 64
1, 45239, Note_on_c, 0, 74, 0
1, 45240, Note_on_c, 0, 73, 75
1, 45263, Note_on_c, 0, 73, 0
1, 45264, Note_on_c, 0, 74, 75
1, 45287, Note_on_c, 0, 74, 0
1, 45288, Note_on_c, 0, 76, 75
1, 45305, Note_on_c, 1, 65, 0
1, 45305, Note_on_c, 1, 58, 0
1, 45311, Note_on_c, 0, 76, 0
1, 45312, Note_on_c, 0, 77, 75
1, 45312, Note_on_c, 1, 65, 64
1, 45312, Note_on_c, 1, 57, 64
1, 45335, Note_on_c, 0, 77, 0
1, 45336, Note_on_c, 0, 76, 75
1, 45359, Note_on_c, 0, 76, 0
1, 45360, Note_on_c, 0, 79, 75
1, 45383, Note_on_c, 0, 79, 0
1, 45384, Note_on_c, 0, 77, 75
1, 45401, Note_on_c, 1, 65, 0
1, 45401, Note_on_c, 1, 57, 0
1, 45407, Note_on_c, 0, 77, 0
1, 45408, Note_on_c, 0, 81, 75
1, 45431, Note_on_c, 0, 81, 0
1, 45432, Note_on_c, 0, 77, 75
1, 45455, Note_on_c, 0, 77, 0
1, 45456, Note_on_c, 0, 76, 75
1, 45479, Note_on_c, 0, 76, 0
1, 45480, Note_on_c, 0, 74, 75
1, 45503, Note_on_c, 0, 74, 0
1, 45504, Note_on_c, 0, 72, 75
1, 45593, Note_on_c, 0, 72, 0
1, 45600, Note_on_c, 0, 70, 75
1, 45600, Note_on_c, 1, 64, 64
1, 45600, Note_on_c, 1, 55, 64
1, 45609, Note_on_c, 0, 70, 0
1, 45609, Note_on_c, 0, 72, 75
1, 45618, Note_on_c, 0, 72, 0
1, 45618, Note_on_c, 0, 70, 75
1, 45627, Note_on_c, 0, 70, 0
1, 45627, Note_on_c, 0, 72, 75
1, 45636, Note_on_c, 0, 72, 0
1, 45636, Note_on_c, 0, 70, 75
1, 45645, Note_on_c, 0, 70, 0
1, 45645, Note_on_c, 0, 72, 75
1, 45654, Note_on_c, 0, 72, 0
1, 45654, Note_on_c, 0, 70, 75
1, 45663, Note_on_c, 0, 70, 0
1, 45663, Note_on_c, 0, 69, 75
1, 45680, Note_on_c, 0, 69, 0
1, 45680, Note_on_c, 0, 70, 75
1, 45689, Note_on_c, 1, 64, 0
1, 45689, Note_on_c, 1, 55, 0
1, 45696, Note_on_c, 0, 70, 0
1, 45696, Note_on_c, 0, 69, 75
1, 45696, Note_on_c, 1, 65, 64
1, 45696, Note_on_c, 1, 53, 64
1, 45881, Note_on_c, 0, 69, 0
1, 45881, Note_on_c, 1, 65, 0
1, 45881, Note_on_c, 1, 53, 0
1, 46080, Note_on_c, 0, 77, 75
1, 46103, Note_on_c, 0, 77, 0
1, 46104, Note_on_c, 0, 76, 75
1, 46127, Note_on_c, 0, 76, 0
1, 46128, Note_on_c, 0, 79, 75
1, 46151, Note_on_c, 0, 79, 0
1, 46152, Note_on_c, 0, 77, 75
1, 46175, Note_on_c, 0, 77, 0
1, 46176, Note_on_c, 0, 80, 75
1, 46221, Note_on_c, 0, 80, 0
1, 46224, Note_on_c, 0, 77, 75
1, 46269, Note_on_c, 0, 77, 0
1, 46272, Note_on_c, 0, 75, 75
1, 46317, Note_on_c, 0, 75, 0
1, 46320, Note_on_c, 0, 74, 75
1, 46365, Note_on_c, 0, 74, 0
1, 46368, Note_on_c, 0, 72, 75
1, 46368, Note_on_c, 1, 65, 64
1, 46391, Note_on_c, 1, 65, 0
1, 46392, Note_on_c, 1, 64, 64
1, 46415, Note_on_c, 1, 64, 0
1, 46416, Note_on_c, 1, 67, 64
1, 46439, Note_on_c, 1, 67, 0
1, 46440, Note_on_c, 1, 65, 64
1, 46457, Note_on_c, 0, 72, 0
1, 46463, Note_on_c, 1, 65, 0
1, 46464, Note_on_c, 0, 71, 75
1, 46464, Note_on_c, 1, 68, 64
1, 46509, Note_on_c, 1, 68, 0
1, 46512, Note_on_c, 1, 65, 64
1, 46553, Note_on_c, 0, 71, 0
1, 46557, Note_on_c, 1, 65, 0
1, 46560, Note_on_c, 0, 74, 75
1, 46560, Note_on_c, 1, 63, 64
1, 46605, Note_on_c, 1, 63, 0
1, 46608, Note_on_c, 1, 62, 64
1, 46653, Note_on_c, 1, 62, 0
1, 46656, Note_on_c, 1, 63, 64
1, 46701, Note_on_c, 0, 74, 0
1, 46704, Note_on_c, 0, 67, 75
1, 46749, Note_on_c, 0, 67, 0
1, 46752, Note_on_c, 0, 72, 75
1, 46775, Note_on_c, 0, 72, 0
1, 46776, Note_on_c, 0, 71, 75
1, 46799, Note_on_c, 0, 71, 0
1, 46800, Note_on_c, 0, 74, 75
1, 46823, Note_on_c, 0, 74, 0
1, 46824, Note_on_c, 0, 72, 75
1, 46847, Note_on_c, 0, 72, 0
1, 46848, Note_on_c, 0, 75, 75
1, 46871, Note_on_c, 0, 75, 0
1, 46872, Note_on_c, 0, 74, 75
1, 46895, Note_on_c, 0, 74, 0
1, 46896, Note_on_c, 0, 77, 75
1, 46919, Note_on_c, 0, 77, 0
1, 46920, Note_on_c, 0, 75, 75
1, 46943, Note_on_c, 0, 75, 0
1, 46944, Note_on_c, 0, 79, 75
1, 46992, Note_on_c, 0, 71, 64
1, 47037, Note_on_c, 0, 71, 0
1, 47040, Note_on_c, 0, 72, 64
1, 47085, Note_on_c, 0, 72, 0
1, 47088, Note_on_c, 0, 74, 64
1, 47133, Note_on_c, 0, 74, 0
1, 47136, Note_on_c, 0, 77, 64
1, 47142, Note_on_c, 0, 77, 0
1, 47142, Note_on_c, 0, 75, 64
1, 47181, Note_on_c, 0, 75, 0
1, 47184, Note_on_c, 0, 74, 64
1, 47209, Note_on_c, 1, 63, 0
1, 47229, Note_on_c, 0, 74, 0
1, 47232, Note_on_c, 0, 74, 64
1, 47232, Note_on_c, 1, 63, 64
1, 47280, Note_on_c, 1, 67, 64
1, 47321, Note_on_c, 0, 74, 0
1, 47325, Note_on_c, 1, 67, 0
1, 47328, Note_on_c, 0, 73, 64
1, 47328, Note_on_c, 1, 69, 64
1, 47373, Note_on_c, 1, 69, 0
1, 47376, Note_on_c, 1, 70, 64
1, 47421, Note_on_c, 1, 70, 0
1, 47424, Note_on_c, 1, 69, 64
1, 47469, Note_on_c, 1, 69, 0
1, 47472, Note_on_c, 1, 67, 64
1, 47497, Note_on_c, 1, 63, 0
1, 47505, Note_on_c, 0, 73, 0
1, 47517, Note_on_c, 1, 67, 0
1, 47520, Note_on_c, 0, 74, 64
1, 47520, Note_on_c, 1, 69, 64
1, 47520, Note_on_c, 1, 62, 64
1, 47565, Note_on_c, 0, 79, 0
1, 47568, Note_on_c, 0, 78, 75
1, 47613, Note_on_c, 0, 78, 0
1, 47616, Note_on_c, 0, 79, 75
1, 47639, Note_on_c, 0, 79, 0
1, 47640, Note_on_c, 0, 78, 75
1, 47663, Note_on_c, 0, 78, 0
1, 47664, Note_on_c, 0, 76, 75
1, 47687, Note_on_c, 0, 76, 0
1, 47688, Note_on_c, 0, 78, 75
1, 47711, Note_on_c, 0, 78, 0
1, 47712, Note_on_c, 0, 81, 75
1, 47757, Note_on_c, 0, 74, 0
1, 47760, Note_on_c, 0, 72, 64
1, 47805, Note_on_c, 0, 72, 0
1, 47808, Note_on_c, 0, 74, 64
1, 47831, Note_on_c, 0, 74, 0
1, 47832, Note_on_c, 0, 72, 64
1, 47855, Note_on_c, 0, 72, 0
1, 47856, Note_on_c, 0, 71, 64
1, 47879, Note_on_c, 0, 71, 0
1, 47880, Note_on_c, 0, 72, 64
1, 47903, Note_on_c, 0, 72, 0
1, 47904, Note_on_c, 0, 72, 64
1, 47941, Note_on_c, 1, 69, 0
1, 47952, Note_on_c, 1, 66, 64
1, 47997, Note_on_c, 1, 66, 0
1, 48000, Note_on_c, 1, 64, 64
1, 48023, Note_on_c, 1, 64, 0
1, 48024, Note_on_c, 1, 66, 64
1, 48047, Note_on_c, 1, 66, 0
1, 48048, Note_on_c, 1, 67, 64
1, 48071, Note_on_c, 1, 67, 0
1, 48072, Note_on_c, 1, 66, 64
1, 48095, Note_on_c, 1, 66, 0
1, 48096, Note_on_c, 1, 66, 64
1, 48273, Note_on_c, 0, 81, 0
1, 48273, Note_on_c, 0, 72, 0
1, 48273, Note_on_c, 1, 66, 0
1, 48273, Note_on_c, 1, 62, 0
1, 48336, Note_on_c, 0, 78, 75
1, 48336, Note_on_c, 1, 72, 64
1, 48359, Note_on_c, 0, 78, 0
1, 48360, Note_on_c, 0, 74, 75
1, 48383, Note_on_c, 0, 74, 0
1, 48384, Note_on_c, 0, 79, 75
1, 48384, Note_on_c, 1, 72, 0
1, 48384, Note_on_c, 1, 70, 64
1, 48404, Note_on_c, 0, 79, 0
1, 48404, Note_on_c, 1, 70, 0
1, 48432, Note_on_c, 0, 78, 75
1, 48432, Note_on_c, 1, 72, 64
1, 48455, Note_on_c, 0, 78, 0
1, 48456, Note_on_c, 0, 74, 75
1, 48479, Note_on_c, 0, 74, 0
1, 48480, Note_on_c, 0, 79, 75
1, 48480, Note_on_c, 1, 72, 0
1, 48480, Note_on_c, 1, 70, 64
1, 48500, Note_on_c, 0, 79, 0
1, 48500, Note_on_c, 1, 70, 0
1, 48528, Note_on_c, 0, 78, 75
1, 48528, Note_on_c, 1, 72, 64
1, 48551, Note_on_c, 0, 78, 0
1, 48552, Note_on_c, 0, 74, 75
1, 48575, Note_on_c, 0, 74, 0
1, 48576, Note_on_c, 0, 79, 75
1, 48576, Note_on_c, 1, 72, 0
1, 48576, Note_on_c, 1, 70, 64
1, 48596, Note_on_c, 0, 79, 0
1, 48596, Note_on_c, 1, 70, 0
1, 48624, Note_on_c, 0, 81, 75
1, 48624, Note_on_c, 1, 66, 64
1, 48647, Note_on_c, 0, 81, 0
1, 48648, Note_on_c, 0, 74, 75
1, 48671, Note_on_c, 0, 74, 0
1, 48672, Note_on_c, 0, 82, 75
1, 48672, Note_on_c, 1, 66, 0
1, 48672, Note_on_c, 1, 67, 64
1, 48692, Note_on_c, 0, 82, 0
1, 48717, Note_on_c, 1, 67, 0
1, 48720, Note_on_c, 0, 84, 75
1, 48720, Note_on_c, 1, 69, 64
1, 48743, Note_on_c, 0, 84, 0
1, 48744, Note_on_c, 0, 74, 75
1, 48765, Note_on_c, 1, 69, 0
1, 48767, Note_on_c, 0, 74, 0
1, 48768, Note_on_c, 0, 86, 75
1, 48768, Note_on_c, 1, 70, 64
1, 48788, Note_on_c, 0, 86, 0
1, 48813, Note_on_c, 1, 70, 0
1, 48864, Note_on_c, 0, 84, 75
1, 48887, Note_on_c, 0, 84, 0
1, 48888, Note_on_c, 0, 82, 75
1, 48911, Note_on_c, 0, 82, 0
1, 48912, Note_on_c, 0, 81, 75
1, 48912, Note_on_c, 1, 58, 64
1, 48935, Note_on_c, 0, 81, 0
1, 48936, Note_on_c, 0, 79, 75
1, 48957, Note_on_c, 1, 58, 0
1, 48959, Note_on_c, 0, 79, 0
1, 48960, Note_on_c, 0, 77, 75
1, 48960, Note_on_c, 1, 60, 64
1, 48983, Note_on_c, 0, 77, 0
1, 48984, Note_on_c, 0, 75, 75
1, 49007, Note_on_c, 0, 75, 0
1, 49008, Note_on_c, 0, 74, 75
1, 49031, Note_on_c, 0, 74, 0
1, 49032, Note_on_c, 0, 72, 75
1, 49049, Note_on_c, 1, 60, 0
1, 49055, Note_on_c, 0, 72, 0
1, 49056, Note_on_c, 0, 70, 75
1, 49056, Note_on_c, 1, 62, 64
1, 49145, Note_on_c, 0, 70, 0
1, 49145, Note_on_c, 1, 62, 0
1, 49152, Note_on_c, 0, 69, 75
1, 49152, Note_on_c, 1, 50, 64
1, 49161, Note_on_c, 0, 69, 0
1, 49161, Note_on_c, 0, 70, 75
1, 49170, Note_on_c, 0, 70, 0
1, 49170, Note_on_c, 0, 69, 75
1, 49179, Note_on_c, 0, 69, 0
1, 49179, Note_on_c, 0, 70, 75
1, 49188, Note_on_c, 0, 70, 0
1, 49188, Note_on_c, 0, 69, 75
1, 49197, Note_on_c, 0, 69, 0
1, 49197, Note_on_c, 0, 70, 75
1, 49206, Note_on_c, 0, 70, 0
1, 49206, Note_on_c, 0, 69, 75
1, 49215, Note_on_c, 0, 69, 0
1, 49215, Note_on_c, 0, 67, 75
1, 49232, Note_on_c, 0, 67, 0
1, 49232, Note_on_c, 0, 69, 75
1, 49241, Note_on_c, 1, 50, 0
1, 49248, Note_on_c, 0, 69, 0
1, 49248, Note_on_c, 0, 67, 75
1, 49248, Note_on_c, 1, 55, 64
1, 49293, Note_on_c, 0, 67, 0
1, 49293, Note_on_c, 1, 55, 0
1, 49296, Note_on_c, 0, 78, 75
1, 49296, Note_on_c, 1, 72, 75
1, 49319, Note_on_c, 0, 78, 0
1, 49320, Note_on_c, 0, 74, 75
1, 49341, Note_on_c, 1, 72, 0
1, 49343, Note_on_c, 0, 74, 0
1, 49344, Note_on_c, 0, 79, 75
1, 49344, Note_on_c, 1, 70, 75
1, 49367, Note_on_c, 0, 79, 0
1, 49368, Note_on_c, 0, 74, 76
1, 49391, Note_on_c, 0, 74, 0
1, 49392, Note_on_c, 0, 78, 76
1, 49392, Note_on_c, 1, 70, 0
1, 49392, Note_on_c, 1, 72, 76
1, 49415, Note_on_c, 0, 78, 0
1, 49416, Note_on_c, 0, 74, 77
1, 49437, Note_on_c, 1, 72, 0
1, 49439, Note_on_c, 0, 74, 0
1, 49440, Note_on_c, 0, 79, 77
1, 49440, Note_on_c, 1, 70, 77
1, 49463, Note_on_c, 0, 79, 0
1, 49464, Note_on_c, 0, 74, 78
1, 49485, Note_on_c, 1, 70, 0
1, 49487, Note_on_c, 0, 74, 0
1, 49488, Note_on_c, 0, 81, 78
1, 49488, Note_on_c, 1, 66, 78
1, 49511, Note_on_c, 0, 81, 0
1, 49512, Note_on_c, 0, 74, 79
1, 49533, Note_on_c, 1, 66, 0
1, 49535, Note_on_c, 0, 74, 0
1, 49536, Note_on_c, 0, 82, 95
1, 49536, Note_on_c, 1, 67, 79
1, 49560, Note_on_c, 0, 82, 0
1, 49560, Note_on_c, 0, 74, 75
1, 49581, Note_on_c, 1, 67, 0
1, 49583, Note_on_c, 0, 74, 0
1, 49584, Note_on_c, 0, 76, 75
1, 49584, Note_on_c, 1, 70, 75
1, 49607, Note_on_c, 0, 76, 0
1, 49608, Note_on_c, 0, 72, 75
1, 49629, Note_on_c, 1, 70, 0
1, 49631, Note_on_c, 0, 72, 0
1, 49632, Note_on_c, 0, 77, 76
1, 49632, Note_on_c, 1, 68, 75
1, 49655, Note_on_c, 0, 77, 0
1, 49656, Note_on_c, 0, 72, 76
1, 49677, Note_on_c, 1, 68, 0
1, 49679, Note_on_c, 0, 72, 0
1, 49680, Note_on_c, 0, 76, 77
1, 49680, Note_on_c, 1, 70, 76
1, 49703, Note_on_c, 0, 76, 0
1, 49704, Note_on_c, 0, 72, 77
1, 49725, Note_on_c, 1, 70, 0
1, 49727, Note_on_c, 0, 72, 0
1, 49728, Note_on_c, 0, 77, 77
1, 49728, Note_on_c, 1, 68, 77
1, 49751, Note_on_c, 0, 77, 0
1, 49752, Note_on_c, 0, 72, 78
1, 49773, Note_on_c, 1, 68, 0
1, 49775, Note_on_c, 0, 72, 0
1, 49776, Note_on_c, 0, 79, 78
1, 49776, Note_on_c, 1, 64, 78
1, 49799, Note_on_c, 0, 79, 0
1, 49800, Note_on_c, 0, 72, 79
1, 49821, Note_on_c, 1, 64, 0
1, 49823, Note_on_c, 0, 72, 0
1, 49824, Note_on_c, 0, 80, 95
1, 49824, Note_on_c, 1, 65, 79
1, 49848, Note_on_c, 0, 80, 0
1, 49848, Note_on_c, 0, 72, 75
1, 49869, Note_on_c, 1, 65, 0
1, 49871, Note_on_c, 0, 72, 0
1, 49872, Note_on_c, 0, 74, 75
1, 49872, Note_on_c, 1, 68, 75
1, 49895, Note_on_c, 0, 74, 0
1, 49896, Note_on_c, 0, 70, 75
1, 49917, Note_on_c, 1, 68, 0
1, 49919, Note_on_c, 0, 70, 0
1, 49920, Note_on_c, 0, 75, 76
1, 49920, Note_on_c, 1, 67, 75
1, 49943, Note_on_c, 0, 75, 0
1, 49944, Note_on_c, 0, 70, 76
1, 49965, Note_on_c, 1, 67, 0
1, 49967, Note_on_c, 0, 70, 0
1, 49968, Note_on_c, 0, 74, 76
1, 49968, Note_on_c, 1, 68, 76
1, 49991, Note_on_c, 0, 74, 0
1, 49992, Note_on_c, 0, 70, 77
1, 50013, Note_on_c, 1, 68, 0
1, 50015, Note_on_c, 0, 70, 0
1, 50016, Note_on_c, 0, 75, 77
1, 50016, Note_on_c, 1, 67, 77
1, 50039, Note_on_c, 0, 75, 0
1, 50040, Note_on_c, 0, 70, 78
1, 50061, Note_on_c, 1, 67, 0
1, 50063, Note_on_c, 0, 70, 0
1, 50064, Note_on_c, 0, 65, 78
1, 50064, Note_on_c, 1, 62, 77
1, 50087, Note_on_c, 0, 65, 0
1, 50088, Note_on_c, 0, 77, 78
1, 50109, Note_on_c, 1, 62, 0
1, 50111, Note_on_c, 0, 77, 0
1, 50112, Note_on_c, 0, 67, 79
1, 50112, Note_on_c, 1, 63, 78
1, 50135, Note_on_c, 0, 67, 0
1, 50136, Note_on_c, 0, 79, 79
1, 50159, Note_on_c, 0, 79, 0
1, 50160, Note_on_c, 0, 65, 80
1, 50183, Note_on_c, 0, 65, 0
1, 50184, Note_on_c, 0, 77, 80
1, 50201, Note_on_c, 1, 63, 0
1, 50207, Note_on_c, 0, 77, 0
1, 50208, Note_on_c, 0, 63, 80
1, 50231, Note_on_c, 0, 63, 0
1, 50232, Note_on_c, 0, 75, 80
1, 50255, Note_on_c, 0, 75, 0
1, 50256, Note_on_c, 0, 62, 80
1, 50279, Note_on_c, 0, 62, 0
1, 50280, Note_on_c, 0, 74, 80
1, 50303, Note_on_c, 0, 74, 0
1, 50304, Note_on_c, 0, 60, 80
1, 50327, Note_on_c, 0, 60, 0
1, 50328, Note_on_c, 0, 72, 80
1, 50351, Note_on_c, 0, 72, 0
1, 50352, Note_on_c, 0, 58, 80
1, 50375, Note_on_c, 0, 58, 0
1, 50376, Note_on_c, 0, 70, 80
1, 50399, Note_on_c, 0, 70, 0
1, 50400, Note_on_c, 0, 57, 80
1, 50400, Note_on_c, 1, 41, 80
1, 50423, Note_on_c, 0, 57, 0
1, 50423, Note_on_c, 1, 41, 0
1, 50424, Note_on_c, 0, 69, 80
1, 50424, Note_on_c, 1, 53, 79
1, 50447, Note_on_c, 0, 69, 0
1, 50447, Note_on_c, 1, 53, 0
1, 50448, Note_on_c, 1, 43, 79
1, 50471, Note_on_c, 1, 43, 0
1, 50472, Note_on_c, 1, 55, 78
1, 50495, Note_on_c, 1, 55, 0
1, 50496, Note_on_c, 1, 41, 78
1, 50519, Note_on_c, 1, 41, 0
1, 50520, Note_on_c, 1, 53, 77
1, 50543, Note_on_c, 1, 53, 0
1, 50544, Note_on_c, 1, 39, 77
1, 50567, Note_on_c, 1, 39, 0
1, 50568, Note_on_c, 1, 51, 77
1, 50591, Note_on_c, 1, 51, 0
1, 50592, Note_on_c, 1, 38, 76
1, 50615, Note_on_c, 1, 38, 0
1, 50616, Note_on_c, 1, 50, 76
1, 50639, Note_on_c, 1, 50, 0
1, 50640, Note_on_c, 1, 36, 75
1, 50663, Note_on_c, 1, 36, 0
1, 50664, Note_on_c, 1, 48, 75
1, 50687, Note_on_c, 1, 48, 0
1, 50688, Note_on_c, 0, 77, 75
1, 50688, Note_on_c, 0, 74, 75
1, 50688, Note_on_c, 1, 34, 75
1, 50727, Note_on_c, 1, 34, 0
1, 50784, Note_on_c, 1, 58, 75
1, 50823, Note_on_c, 1, 58, 0
1, 50865, Note_on_c, 0, 77, 0
1, 50865, Note_on_c, 0, 74, 0
1, 50880, Note_on_c, 0, 81, 75
1, 50886, Note_on_c, 0, 81, 0
1, 50886, Note_on_c, 0, 79, 75
1, 50886, Note_on_c, 0, 75, 75
1, 50947, Note_on_c, 0, 79, 0
1, 50947, Note_on_c, 0, 75, 0
1, 50952, Note_on_c, 0, 77, 75
1, 50952, Note_on_c, 0, 74, 75
1, 50975, Note_on_c, 0, 77, 0
1, 50975, Note_on_c, 0, 74, 0
1, 50976, Note_on_c, 0, 77, 75
1, 50976, Note_on_c, 0, 74, 75
1, 51065, Note_on_c, 0, 77, 0
1, 51065, Note_on_c, 0, 74, 0
1, 51072, Note_on_c, 0, 75, 75
1, 51072, Note_on_c, 0, 72, 64
1, 51072, Note_on_c, 1, 65, 75
1, 51081, Note_on_c, 0, 75, 0
1, 51081, Note_on_c, 0, 77, 75
1, 51090, Note_on_c, 0, 77, 0
1, 51090, Note_on_c, 0, 75, 75
1, 51099, Note_on_c, 0, 75, 0
1, 51099, Note_on_c, 0, 77, 75
1, 51108, Note_on_c, 0, 77, 0
1, 51108, Note_on_c, 0, 75, 75
1, 51117, Note_on_c, 0, 75, 0
1, 51117, Note_on_c, 0, 77, 75
1, 51126, Note_on_c, 0, 77, 0
1, 51126, Note_on_c, 0, 75, 75
1, 51135, Note_on_c, 0, 75, 0
1, 51135, Note_on_c, 0, 74, 75
1, 51152, Note_on_c, 0, 74, 0
1, 51152, Note_on_c, 0, 75, 75
1, 51161, Note_on_c, 0, 72, 0
1, 51161, Note_on_c, 1, 65, 0
1, 51168, Note_on_c, 0, 75, 0
1, 51168, Note_on_c, 0, 74, 75
1, 51168, Note_on_c, 0, 70, 75
1, 51168, Note_on_c, 1, 67, 75
1, 51257, Note_on_c, 0, 74, 0
1, 51257, Note_on_c, 0, 70, 0
1, 51257, Note_on_c, 1, 67, 0
1, 51264, Note_on_c, 0, 79, 75
1, 51264, Note_on_c, 1, 70, 75
1, 51264, Note_on_c, 1, 63, 75
1, 51274, Note_on_c, 0, 79, 0
1, 51288, Note_on_c, 0, 81, 75
1, 51296, Note_on_c, 0, 81, 0
1, 51296, Note_on_c, 0, 79, 75
1, 51304, Note_on_c, 0, 79, 0
1, 51304, Note_on_c, 0, 78, 75
1, 51312, Note_on_c, 0, 78, 0
1, 51312, Note_on_c, 0, 79, 75
1, 51335, Note_on_c, 0, 79, 0
1, 51336, Note_on_c, 0, 81, 75
1, 51353, Note_on_c, 1, 70, 0
1, 51353, Note_on_c, 1, 63, 0
1, 51359, Note_on_c, 0, 81, 0
1, 51360, Note_on_c, 0, 82, 75
1, 51360, Note_on_c, 1, 70, 75
1, 51360, Note_on_c, 1, 62, 75
1, 51427, Note_on_c, 0, 82, 0
1, 51432, Note_on_c, 0, 85, 75
1, 51449, Note_on_c, 1, 70, 0
1, 51449, Note_on_c, 1, 62, 0
1, 51455, Note_on_c, 0, 85, 0
1, 51456, Note_on_c, 0, 86, 75
1, 51479, Note_on_c, 0, 86, 0
1, 51480, Note_on_c, 0, 81, 75
1, 51503, Note_on_c, 0, 81, 0
1, 51504, Note_on_c, 0, 82, 75
1, 51527, Note_on_c, 0, 82, 0
1, 51528, Note_on_c, 0, 79, 75
1, 51551, Note_on_c, 0, 79, 0
1, 51552, Note_on_c, 0, 77, 75
1, 51552, Note_on_c, 1, 60, 64
1, 51648, Note_on_c, 1, 69, 75
1, 51715, Note_on_c, 0, 77, 0
1, 51720, Note_on_c, 0, 75, 75
1, 51726, Note_on_c, 0, 75, 0
1, 51726, Note_on_c, 0, 77, 75
1, 51729, Note_on_c, 1, 60, 0
1, 51732, Note_on_c, 0, 77, 0
1, 51732, Note_on_c, 0, 75, 75
1, 51737, Note_on_c, 1, 69, 0
1, 51743, Note_on_c, 0, 75, 0
1, 51744, Note_on_c, 0, 74, 75
1, 51744, Note_on_c, 1, 70, 75
1, 51744, Note_on_c, 1, 58, 64
1, 51833, Note_on_c, 0, 74, 0
1, 51838, Note_on_c, 1, 70, 0
1, 51838, Note_on_c, 1, 58, 0
1, 51840, Note_on_c, 0, 72, 75
1, 51840, Note_on_c, 1, 67, 75
1, 51840, Note_on_c, 1, 63, 75
1, 51849, Note_on_c, 0, 72, 0
1, 51849, Note_on_c, 0, 74, 75
1, 51858, Note_on_c, 0, 74, 0
1, 51858, Note_on_c, 0, 72, 75
1, 51867, Note_on_c, 0, 72, 0
1, 51867, Note_on_c, 0, 74, 75
1, 51876, Note_on_c, 0, 74, 0
1, 51876, Note_on_c, 0, 72, 75
1, 51885, Note_on_c, 0, 72, 0
1, 51885, Note_on_c, 0, 74, 75
1, 51894, Note_on_c, 0, 74, 0
1, 51894, Note_on_c, 0, 72, 75
1, 51903, Note_on_c, 0, 72, 0
1, 51903, Note_on_c, 0, 71, 75
1, 51920, Note_on_c, 0, 71, 0
1, 51920, Note_on_c, 0, 72, 75
1, 51929, Note_on_c, 1, 67, 0
1, 51929, Note_on_c, 1, 63, 0
1, 51936, Note_on_c, 0, 72, 0
1, 51936, Note_on_c, 0, 79, 75
1, 51965, Note_on_c, 0, 79, 0
1, 52008, Note_on_c, 0, 75, 75
1, 52031, Note_on_c, 0, 75, 0
1, 52032, Note_on_c, 0, 75, 75
1, 52038, Note_on_c, 0, 75, 0
1, 52038, Note_on_c, 0, 74, 75
1, 52061, Note_on_c, 0, 74, 0
1, 52104, Note_on_c, 0, 72, 75
1, 52127, Note_on_c, 0, 72, 0
1, 52128, Note_on_c, 0, 70, 75
1, 52224, Note_on_c, 1, 65, 75
1, 52224, Note_on_c, 1, 63, 75
1, 52247, Note_on_c, 0, 70, 0
1, 52248, Note_on_c, 0, 69, 75
1, 52271, Note_on_c, 0, 69, 0
1, 52272, Note_on_c, 0, 70, 75
1, 52284, Note_on_c, 0, 70, 0
1, 52284, Note_on_c, 0, 69, 75
1, 52296, Note_on_c, 0, 69, 0
1, 52296, Note_on_c, 0, 67, 75
1, 52308, Note_on_c, 0, 67, 0
1, 52308, Note_on_c, 0, 69, 75
1, 52313, Note_on_c, 1, 65, 0
1, 52313, Note_on_c, 1, 63, 0
1, 52320, Note_on_c, 0, 69, 0
1, 52320, Note_on_c, 0, 70, 75
1, 52320, Note_on_c, 1, 65, 75
1, 52320, Note_on_c, 1, 62, 75
1, 52343, Note_on_c, 0, 70, 0
1, 52344, Note_on_c, 0, 72, 75
1, 52352, Note_on_c, 0, 72, 0
1, 52352, Note_on_c, 0, 70, 75
1, 52360, Note_on_c, 0, 70, 0
1, 52360, Note_on_c, 0, 69, 75
1, 52368, Note_on_c, 0, 69, 0
1, 52368, Note_on_c, 0, 70, 75
1, 52391, Note_on_c, 0, 70, 0
1, 52392, Note_on_c, 0, 74, 75
1, 52409, Note_on_c, 1, 65, 0
1, 52409, Note_on_c, 1, 62, 0
1, 52415, Note_on_c, 0, 74, 0
1, 52416, Note_on_c, 0, 65, 75
1, 52512, Note_on_c, 1, 62, 75
1, 52512, Note_on_c, 1, 53, 75
1, 52542, Note_on_c, 0, 65, 0
1, 52544, Note_on_c, 0, 67, 75
1, 52574, Note_on_c, 0, 67, 0
1, 52576, Note_on_c, 0, 65, 75
1, 52601, Note_on_c, 1, 62, 0
1, 52601, Note_on_c, 1, 53, 0
1, 52606, Note_on_c, 0, 65, 0
1, 52608, Note_on_c, 0, 63, 75
1, 52608, Note_on_c, 1, 60, 75
1, 52608, Note_on_c, 1, 53, 75
1, 52614, Note_on_c, 0, 63, 0
1, 52614, Note_on_c, 0, 65, 75
1, 52620, Note_on_c, 0, 65, 0
1, 52620, Note_on_c, 0, 63, 75
1, 52638, Note_on_c, 0, 63, 0
1, 52640, Note_on_c, 0, 62, 75
1, 52670, Note_on_c, 0, 62, 0
1, 52672, Note_on_c, 0, 63, 75
1, 52697, Note_on_c, 1, 60, 0
1, 52697, Note_on_c, 1, 53, 0
1, 52702, Note_on_c, 0, 63, 0
1, 52704, Note_on_c, 0, 63, 75
1, 52704, Note_on_c, 1, 58, 75
1, 52793, Note_on_c, 1, 58, 0
1, 52800, Note_on_c, 1, 46, 75
1, 52830, Note_on_c, 0, 63, 0
1, 52832, Note_on_c, 0, 62, 75
1, 52862, Note_on_c, 0, 62, 0
1, 52864, Note_on_c, 0, 65, 75
1, 52889, Note_on_c, 1, 46, 0
1, 52894, Note_on_c, 0, 65, 0
1, 52896, Note_on_c, 0, 69, 75
1, 52926, Note_on_c, 0, 69, 0
1, 52928, Note_on_c, 0, 70, 75
1, 52958, Note_on_c, 0, 70, 0
1, 52960, Note_on_c, 0, 74, 75
1, 52992, Note_on_c, 0, 77, 75
1, 52992, Note_on_c, 1, 34, 75
1, 53081, Note_on_c, 1, 34, 0
1, 53088, Note_on_c, 1, 58, 75
1, 53133, Note_on_c, 0, 77, 0
1, 53133, Note_on_c, 0, 74, 0
1, 53136, Note_on_c, 0, 79, 75
1, 53159, Note_on_c, 0, 79, 0
1, 53160, Note_on_c, 0, 81, 75
1, 53177, Note_on_c, 1, 58, 0
1, 53183, Note_on_c, 0, 81, 0
1, 53184, Note_on_c, 0, 84, 75
1, 53207, Note_on_c, 0, 84, 0
1, 53208, Note_on_c, 0, 82, 75
1, 53231, Note_on_c, 0, 82, 0
1, 53232, Note_on_c, 0, 81, 75
1, 53255, Note_on_c, 0, 81, 0
1, 53256, Note_on_c, 0, 79, 75
1, 53256, Note_on_c, 1, 75, 75
1, 53279, Note_on_c, 0, 79, 0
1, 53279, Note_on_c, 1, 75, 0
1, 53280, Note_on_c, 0, 77, 75
1, 53280, Note_on_c, 1, 74, 75
1, 53369, Note_on_c, 0, 77, 0
1, 53369, Note_on_c, 1, 74, 0
1, 53376, Note_on_c, 0, 75, 75
1, 53376, Note_on_c, 1, 72, 75
1, 53376, Note_on_c, 1, 66, 75
1, 53385, Note_on_c, 0, 75, 0
1, 53385, Note_on_c, 0, 77, 75
1, 53394, Note_on_c, 0, 77, 0
1, 53394, Note_on_c, 0, 75, 75
1, 53403, Note_on_c, 0, 75, 0
1, 53403, Note_on_c, 0, 77, 75
1, 53412, Note_on_c, 0, 77, 0
1, 53412, Note_on_c, 0, 75, 75
1, 53421, Note_on_c, 0, 75, 0
1, 53421, Note_on_c, 0, 77, 75
1, 53430, Note_on_c, 0, 77, 0
1, 53430, Note_on_c, 0, 75, 75
1, 53439, Note_on_c, 0, 75, 0
1, 53439, Note_on_c, 0, 74, 75
1, 53456, Note_on_c, 0, 74, 0
1, 53456, Note_on_c, 0, 75, 75
1, 53465, Note_on_c, 1, 72, 0
1, 53465, Note_on_c, 1, 66, 0
1, 53472, Note_on_c, 0, 75, 0
1, 53472, Note_on_c, 0, 74, 75
1, 53472, Note_on_c, 1, 70, 75
1, 53472, Note_on_c, 1, 67, 75
1, 53561, Note_on_c, 0, 74, 0
1, 53561, Note_on_c, 1, 70, 0
1, 53561, Note_on_c, 1, 67, 0
1, 53568, Note_on_c, 1, 70, 70
1, 53568, Note_on_c, 1, 63, 70
1, 53616, Note_on_c, 0, 78, 70
1, 53661, Note_on_c, 0, 78, 0
1, 53664, Note_on_c, 0, 79, 70
1, 53709, Note_on_c, 0, 79, 0
1, 53712, Note_on_c, 0, 81, 70
1, 53757, Note_on_c, 0, 81, 0
1, 53760, Note_on_c, 0, 84, 70
1, 53783, Note_on_c, 0, 84, 0
1, 53784, Note_on_c, 0, 82, 70
1, 53807, Note_on_c, 0, 82, 0
1, 53808, Note_on_c, 0, 81, 70
1, 53831, Note_on_c, 0, 81, 0
1, 53832, Note_on_c, 0, 79, 70
1, 53855, Note_on_c, 0, 79, 0
1, 53856, Note_on_c, 0, 79, 70
1, 53856, Note_on_c, 1, 63, 0
1, 53856, Note_on_c, 1, 62, 70
1, 53879, Note_on_c, 0, 79, 0
1, 53880, Note_on_c, 0, 77, 70
1, 53903, Note_on_c, 0, 77, 0
1, 53904, Note_on_c, 0, 76, 70
1, 53927, Note_on_c, 0, 76, 0
1, 53928, Note_on_c, 0, 79, 70
1, 53951, Note_on_c, 0, 79, 0
1, 53952, Note_on_c, 0, 77, 70
1, 53997, Note_on_c, 0, 77, 0
1, 54000, Note_on_c, 0, 79, 70
1, 54012, Note_on_c, 0, 79, 0
1, 54012, Note_on_c, 0, 77, 70
1, 54024, Note_on_c, 0, 77, 0
1, 54024, Note_on_c, 0, 76, 70
1, 54036, Note_on_c, 0, 76, 0
1, 54036, Note_on_c, 0, 77, 70
1, 54048, Note_on_c, 0, 77, 0
1, 54048, Note_on_c, 0, 81, 70
1, 54093, Note_on_c, 0, 81, 0
1, 54096, Note_on_c, 0, 82, 70
1, 54121, Note_on_c, 1, 70, 0
1, 54121, Note_on_c, 1, 62, 0
1, 54144, Note_on_c, 1, 70, 70
1, 54144, Note_on_c, 1, 63, 70
1, 54189, Note_on_c, 0, 82, 0
1, 54192, Note_on_c, 0, 78, 70
1, 54237, Note_on_c, 0, 78, 0
1, 54240, Note_on_c, 0, 81, 70
1, 54263, Note_on_c, 0, 81, 0
1, 54264, Note_on_c, 0, 79, 70
1, 54287, Note_on_c, 0, 79, 0
1, 54288, Note_on_c, 0, 82, 70
1, 54311, Note_on_c, 0, 82, 0
1, 54312, Note_on_c, 0, 81, 70
1, 54335, Note_on_c, 0, 81, 0
1, 54336, Note_on_c, 0, 84, 70
1, 54359, Note_on_c, 0, 84, 0
1, 54360, Note_on_c, 0, 82, 70
1, 54383, Note_on_c, 0, 82, 0
1, 54384, Note_on_c, 0, 81, 70
1, 54407, Note_on_c, 0, 81, 0
1, 54408, Note_on_c, 0, 79, 70
1, 54409, Note_on_c, 1, 70, 0
1, 54409, Note_on_c, 1, 63, 0
1, 54431, Note_on_c, 0, 79, 0
1, 54432, Note_on_c, 0, 79, 70
1, 54432, Note_on_c, 1, 71, 70
1, 54432, Note_on_c, 1, 62, 70
1, 54455, Note_on_c, 0, 79, 0
1, 54456, Note_on_c, 0, 77, 70
1, 54479, Note_on_c, 0, 77, 0
1, 54480, Note_on_c, 0, 76, 70
1, 54503, Note_on_c, 0, 76, 0
1, 54504, Note_on_c, 0, 79, 70
1, 54527, Note_on_c, 0, 79, 0
1, 54528, Note_on_c, 0, 77, 70
1, 54573, Note_on_c, 0, 77, 0
1, 54576, Note_on_c, 0, 79, 70
1, 54588, Note_on_c, 0, 79, 0
1, 54588, Note_on_c, 0, 77, 70
1, 54600, Note_on_c, 0, 77, 0
1, 54600, Note_on_c, 0, 76, 70
1, 54612, Note_on_c, 0, 76, 0
1, 54612, Note_on_c, 0, 77, 70
1, 54624, Note_on_c, 0, 77, 0
1, 54624, Note_on_c, 0, 86, 70
1, 54669, Note_on_c, 0, 86, 0
1, 54672, Note_on_c, 0, 77, 70
1, 54697, Note_on_c, 1, 71, 0
1, 54697, Note_on_c, 1, 62, 0
1, 54717, Note_on_c, 0, 77, 0
1, 54720, Note_on_c, 0, 77, 70
1, 54720, Note_on_c, 1, 72, 70
1, 54720, Note_on_c, 1, 60, 64
1, 54768, Note_on_c, 0, 77, 0
1, 54768, Note_on_c, 0, 75, 70
1, 54788, Note_on_c, 0, 75, 0
1, 54809, Note_on_c, 1, 72, 0
1, 54816, Note_on_c, 1, 69, 70
1, 54840, Note_on_c, 0, 75, 70
1, 54863, Note_on_c, 0, 75, 0
1, 54864, Note_on_c, 0, 77, 70
1, 54876, Note_on_c, 0, 77, 0
1, 54876, Note_on_c, 0, 75, 70
1, 54888, Note_on_c, 0, 75, 0
1, 54888, Note_on_c, 0, 74, 70
1, 54900, Note_on_c, 0, 74, 0
1, 54900, Note_on_c, 0, 75, 70
1, 54912, Note_on_c, 0, 75, 0
1, 54912, Note_on_c, 0, 84, 70
1, 54957, Note_on_c, 0, 84, 0
1, 54960, Note_on_c, 0, 75, 70
1, 54985, Note_on_c, 1, 60, 0
1, 54993, Note_on_c, 1, 69, 0
1, 55008, Note_on_c, 1, 70, 70
1, 55008, Note_on_c, 1, 58, 70
1, 55053, Note_on_c, 0, 75, 0
1, 55056, Note_on_c, 0, 74, 70
1, 55101, Note_on_c, 0, 74, 0
1, 55102, Note_on_c, 1, 70, 0
1, 55102, Note_on_c, 1, 58, 0
1, 55104, Note_on_c, 0, 74, 70
1, 55104, Note_on_c, 1, 63, 70
1, 55127, Note_on_c, 0, 74, 0
1, 55128, Note_on_c, 0, 71, 70
1, 55151, Note_on_c, 0, 71, 0
1, 55152, Note_on_c, 0, 72, 70
1, 55175, Note_on_c, 0, 72, 0
1, 55176, Note_on_c, 0, 79, 70
1, 55193, Note_on_c, 1, 63, 0
1, 55199, Note_on_c, 0, 79, 0
1, 55200, Note_on_c, 0, 77, 70
1, 55223, Note_on_c, 0, 77, 0
1, 55224, Note_on_c, 0, 75, 70
1, 55247, Note_on_c, 0, 75, 0
1, 55248, Note_on_c, 0, 74, 70
1, 55271, Note_on_c, 0, 74, 0
1, 55272, Note_on_c, 0, 72, 70
1, 55295, Note_on_c, 0, 72, 0
1, 55296, Note_on_c, 0, 70, 70
1, 55344, Note_on_c, 1, 53, 75
1, 55389, Note_on_c, 1, 53, 0
1, 55392, Note_on_c, 0, 70, 0
1, 55392, Note_on_c, 0, 69, 70
1, 55392, Note_on_c, 1, 41, 75
1, 55398, Note_on_c, 0, 69, 0
1, 55398, Note_on_c, 0, 70, 70
1, 55404, Note_on_c, 0, 70, 0
1, 55404, Note_on_c, 0, 69, 70
1, 55437, Note_on_c, 0, 69, 0
1, 55437, Note_on_c, 1, 41, 0
1, 55440, Note_on_c, 1, 45, 75
1, 55485, Note_on_c, 1, 45, 0
1, 55488, Note_on_c, 1, 48, 75
1, 55533, Note_on_c, 1, 48, 0
1, 55536, Note_on_c, 1, 52, 75
1, 55581, Note_on_c, 1, 52, 0
1, 55584, Note_on_c, 1, 53, 75
1, 55632, Note_on_c, 0, 77, 75
1, 55632, Note_on_c, 0, 74, 75
1, 55673, Note_on_c, 1, 53, 0
1, 55677, Note_on_c, 0, 77, 0
1, 55677, Note_on_c, 0, 74, 0
1, 55680, Note_on_c, 0, 75, 75
1, 55680, Note_on_c, 0, 72, 75
1, 55725, Note_on_c, 0, 75, 0
1, 55725, Note_on_c, 0, 72, 0
1, 55728, Note_on_c, 0, 74, 75
1, 55728, Note_on_c, 0, 70, 75
1, 55773, Note_on_c, 0, 74, 0
1, 55773, Note_on_c, 0, 70, 0
1, 55776, Note_on_c, 0, 72, 75
1, 55776, Note_on_c, 0, 69, 75
1, 55821, Note_on_c, 0, 72, 0
1, 55821, Note_on_c, 0, 69, 0
1, 55824, Note_on_c, 0, 74, 75
1, 55824, Note_on_c, 0, 70, 75
1, 55869, Note_on_c, 0, 74, 0
1, 55869, Note_on_c, 0, 70, 0
1, 55872, Note_on_c, 0, 74, 91
1, 55872, Note_on_c, 0, 71, 91
1, 55920, Note_on_c, 1, 53, 75
1, 55965, Note_on_c, 1, 53, 0
1, 55968, Note_on_c, 0, 74, 0
1, 55968, Note_on_c, 0, 71, 0
1, 55968, Note_on_c, 0, 75, 75
1, 55968, Note_on_c, 0, 72, 75
1, 55968, Note_on_c, 1, 41, 75
1, 56013, Note_on_c, 1, 41, 0
1, 56016, Note_on_c, 1, 45, 75
1, 56061, Note_on_c, 1, 45, 0
1, 56064, Note_on_c, 1, 48, 75
1, 56109, Note_on_c, 1, 48, 0
1, 56112, Note_on_c, 1, 52, 75
1, 56157, Note_on_c, 1, 52, 0
1, 56160, Note_on_c, 1, 53, 75
1, 56205, Note_on_c, 0, 75, 0
1, 56205, Note_on_c, 0, 72, 0
1, 56208, Note_on_c, 0, 79, 75
1, 56208, Note_on_c, 0, 75, 75
1, 56249, Note_on_c, 1, 53, 0
1, 56253, Note_on_c, 0, 79, 0
1, 56253, Note_on_c, 0, 75, 0
1, 56256, Note_on_c, 0, 77, 75
1, 56256, Note_on_c, 0, 74, 75
1, 56301, Note_on_c, 0, 77, 0
1, 56301, Note_on_c, 0, 74, 0
1, 56304, Note_on_c, 0, 75, 75
1, 56304, Note_on_c, 0, 72, 75
1, 56349, Note_on_c, 0, 75, 0
1, 56349, Note_on_c, 0, 72, 0
1, 56352, Note_on_c, 0, 74, 75
1, 56352, Note_on_c, 0, 70, 75
1, 56397, Note_on_c, 0, 74, 0
1, 56397, Note_on_c, 0, 70, 0
1, 56400, Note_on_c, 0, 72, 75
1, 56400, Note_on_c, 0, 69, 75
1, 56445, Note_on_c, 0, 72, 0
1, 56445, Note_on_c, 0, 69, 0
1, 56448, Note_on_c, 0, 73, 91
1, 56448, Note_on_c, 0, 69, 91
1, 56496, Note_on_c, 1, 58, 75
1, 56541, Note_on_c, 1, 58, 0
1, 56544, Note_on_c, 0, 73, 0
1, 56544, Note_on_c, 0, 69, 0
1, 56544, Note_on_c, 0, 74, 75
1, 56544, Note_on_c, 0, 70, 75
1, 56544, Note_on_c, 1, 46, 75
1, 56589, Note_on_c, 1, 46, 0
1, 56592, Note_on_c, 1, 50, 75
1, 56637, Note_on_c, 1, 50, 0
1, 56640, Note_on_c, 1, 53, 75
1, 56685, Note_on_c, 1, 53, 0
1, 56688, Note_on_c, 1, 57, 75
1, 56721, Note_on_c, 0, 74, 0
1, 56721, Note_on_c, 0, 70, 0
1, 56733, Note_on_c, 1, 57, 0
1, 56736, Note_on_c, 1, 58, 75
1, 56784, Note_on_c, 0, 85, 75
1, 56829, Note_on_c, 0, 85, 0
1, 56832, Note_on_c, 0, 86, 75
1, 56877, Note_on_c, 0, 86, 0
1, 56880, Note_on_c, 0, 81, 75
1, 56925, Note_on_c, 0, 81, 0
1, 56928, Note_on_c, 0, 82, 75
1, 56973, Note_on_c, 0, 82, 0
1, 56976, Note_on_c, 0, 79, 75
1, 57001, Note_on_c, 1, 58, 0
1, 57021, Note_on_c, 0, 79, 0
1, 57024, Note_on_c, 0, 77, 75
1, 57069, Note_on_c, 0, 77, 0
1, 57072, Note_on_c, 0, 76, 75
1, 57120, Note_on_c, 1, 70, 75
1, 57161, Note_on_c, 0, 76, 0
1, 57168, Note_on_c, 0, 85, 75
1, 57209, Note_on_c, 1, 70, 0
1, 57216, Note_on_c, 1, 69, 75
1, 57257, Note_on_c, 0, 85, 0
1, 57264, Note_on_c, 0, 84, 75
1, 57312, Note_on_c, 1, 77, 75
1, 57335, Note_on_c, 0, 84, 0
1, 57336, Note_on_c, 0, 87, 75
1, 57359, Note_on_c, 0, 87, 0
1, 57360, Note_on_c, 0, 86, 75
1, 57383, Note_on_c, 0, 86, 0
1, 57384, Note_on_c, 0, 89, 75
1, 57407, Note_on_c, 0, 89, 0
1, 57408, Note_on_c, 0, 87, 75
1, 57431, Note_on_c, 0, 87, 0
1, 57432, Note_on_c, 0, 86, 75
1, 57455, Note_on_c, 0, 86, 0
1, 57456, Note_on_c, 0, 84, 75
1, 57479, Note_on_c, 0, 84, 0
1, 57480, Note_on_c, 0, 82, 75
1, 57489, Note_on_c, 1, 77, 0
1, 57489, Note_on_c, 1, 69, 0
1, 57503, Note_on_c, 0, 82, 0
1, 57504, Note_on_c, 0, 81, 75
1, 57527, Note_on_c, 0, 81, 0
1, 57528, Note_on_c, 0, 79, 75
1, 57551, Note_on_c, 0, 79, 0
1, 57552, Note_on_c, 0, 77, 75
1, 57575, Note_on_c, 0, 77, 0
1, 57576, Note_on_c, 0, 75, 75
1, 57599, Note_on_c, 0, 75, 0
1, 57600, Note_on_c, 0, 74, 75
1, 57645, Note_on_c, 0, 74, 0
1, 57648, Note_on_c, 0, 82, 75
1, 57696, Note_on_c, 1, 67, 75
1, 57744, Note_on_c, 0, 75, 64
1, 57781, Note_on_c, 0, 82, 0
1, 57785, Note_on_c, 1, 67, 0
1, 57789, Note_on_c, 0, 75, 0
1, 57792, Note_on_c, 0, 81, 75
1, 57792, Note_on_c, 0, 77, 64
1, 57792, Note_on_c, 1, 65, 75
1, 57798, Note_on_c, 0, 77, 0
1, 57798, Note_on_c, 0, 75, 64
1, 57837, Note_on_c, 0, 75, 0
1, 57840, Note_on_c, 0, 74, 64
1, 57881, Note_on_c, 0, 81, 0
1, 57881, Note_on_c, 1, 65, 0
1, 57885, Note_on_c, 0, 74, 0
1, 57888, Note_on_c, 0, 79, 75
1, 57936, Note_on_c, 0, 67, 64
1, 57981, Note_on_c, 0, 67, 0
1, 57984, Note_on_c, 0, 71, 64
1, 57984, Note_on_c, 1, 63, 75
1, 58029, Note_on_c, 0, 71, 0
1, 58032, Note_on_c, 0, 72, 64
1, 58065, Note_on_c, 0, 79, 0
1, 58073, Note_on_c, 1, 63, 0
1, 58077, Note_on_c, 0, 72, 0
1, 58080, Note_on_c, 0, 77, 75
1, 58080, Note_on_c, 0, 74, 64
1, 58080, Note_on_c, 1, 62, 75
1, 58086, Note_on_c, 0, 74, 0
1, 58086, Note_on_c, 0, 72, 64
1, 58125, Note_on_c, 0, 72, 0
1, 58128, Note_on_c, 0, 70, 64
1, 58169, Note_on_c, 0, 77, 0
1, 58169, Note_on_c, 1, 62, 0
1, 58176, Note_on_c, 0, 75, 75
1, 58176, Note_on_c, 1, 60, 75
1, 58221, Note_on_c, 0, 70, 0
1, 58224, Note_on_c, 0, 67, 64
1, 58265, Note_on_c, 1, 60, 0
1, 58269, Note_on_c, 0, 67, 0
1, 58272, Note_on_c, 0, 69, 64
1, 58272, Note_on_c, 1, 53, 75
1, 58317, Note_on_c, 0, 69, 0
1, 58320, Note_on_c, 0, 72, 64
1, 58361, Note_on_c, 1, 53, 0
1, 58365, Note_on_c, 0, 72, 0
1, 58368, Note_on_c, 0, 65, 64
1, 58368, Note_on_c, 1, 58, 75
1, 58413, Note_on_c, 0, 75, 0
1, 58416, Note_on_c, 0, 74, 75
1, 58457, Note_on_c, 0, 65, 0
1, 58457, Note_on_c, 1, 58, 0
1, 58464, Note_on_c, 0, 67, 64
1, 58464, Note_on_c, 1, 51, 75
1, 58487, Note_on_c, 0, 74, 0
1, 58488, Note_on_c, 0, 72, 75
1, 58511, Note_on_c, 0, 72, 0
1, 58512, Note_on_c, 0, 75, 75
1, 58535, Note_on_c, 0, 75, 0
1, 58536, Note_on_c, 0, 72, 75
1, 58553, Note_on_c, 0, 67, 0
1, 58553, Note_on_c, 1, 51, 0
1, 58559, Note_on_c, 0, 72, 0
1, 58560, Note_on_c, 0, 70, 75
1, 58560, Note_on_c, 0, 62, 64
1, 58560, Note_on_c, 1, 53, 75
1, 58649, Note_on_c, 0, 70, 0
1, 58649, Note_on_c, 0, 62, 0
1, 58656, Note_on_c, 0, 69, 75
1, 58656, Note_on_c, 0, 60, 64
1, 58667, Note_on_c, 0, 69, 0
1, 58667, Note_on_c, 0, 70, 75
1, 58678, Note_on_c, 0, 70, 0
1, 58678, Note_on_c, 0, 69, 75
1, 58689, Note_on_c, 0, 69, 0
1, 58689, Note_on_c, 0, 70, 75
1, 58700, Note_on_c, 0, 70, 0
1, 58700, Note_on_c, 0, 69, 75
1, 58711, Note_on_c, 0, 69, 0
1, 58711, Note_on_c, 0, 67, 75
1, 58732, Note_on_c, 0, 67, 0
1, 58732, Note_on_c, 0, 69, 75
1, 58737, Note_on_c, 1, 53, 0
1, 58745, Note_on_c, 0, 60, 0
1, 58752, Note_on_c, 0, 69, 0
1, 58752, Note_on_c, 0, 82, 75
1, 58752, Note_on_c, 1, 55, 75
1, 58800, Note_on_c, 0, 75, 64
1, 58845, Note_on_c, 0, 75, 0
1, 58848, Note_on_c, 0, 77, 64
1, 58848, Note_on_c, 1, 55, 0
1, 58848, Note_on_c, 1, 67, 75
1, 58871, Note_on_c, 0, 77, 0
1, 58872, Note_on_c, 0, 75, 64
1, 58895, Note_on_c, 0, 75, 0
1, 58896, Note_on_c, 0, 74, 64
1, 58919, Note_on_c, 0, 74, 0
1, 58920, Note_on_c, 0, 75, 64
1, 58929, Note_on_c, 0, 82, 0
1, 58937, Note_on_c, 1, 67, 0
1, 58943, Note_on_c, 0, 75, 0
1, 58944, Note_on_c, 0, 81, 75
1, 58944, Note_on_c, 0, 75, 64
1, 58944, Note_on_c, 1, 65, 75
1, 58989, Note_on_c, 0, 75, 0
1, 58992, Note_on_c, 0, 74, 64
1, 59033, Note_on_c, 0, 81, 0
1, 59033, Note_on_c, 1, 65, 0
1, 59040, Note_on_c, 0, 79, 75
1, 59040, Note_on_c, 1, 51, 75
1, 59085, Note_on_c, 0, 74, 0
1, 59088, Note_on_c, 0, 72, 64
1, 59129, Note_on_c, 1, 51, 0
1, 59133, Note_on_c, 0, 72, 0
1, 59136, Note_on_c, 0, 74, 64
1, 59136, Note_on_c, 1, 63, 75
1, 59159, Note_on_c, 0, 74, 0
1, 59160, Note_on_c, 0, 72, 64
1, 59183, Note_on_c, 0, 72, 0
1, 59184, Note_on_c, 0, 71, 64
1, 59207, Note_on_c, 0, 71, 0
1, 59208, Note_on_c, 0, 72, 64
1, 59217, Note_on_c, 0, 79, 0
1, 59225, Note_on_c, 1, 63, 0
1, 59231, Note_on_c, 0, 72, 0
1, 59232, Note_on_c, 0, 77, 75
1, 59232, Note_on_c, 0, 72, 64
1, 59232, Note_on_c, 1, 62, 75
1, 59277, Note_on_c, 0, 72, 0
1, 59280, Note_on_c, 0, 70, 64
1, 59321, Note_on_c, 0, 77, 0
1, 59321, Note_on_c, 1, 62, 0
1, 59328, Note_on_c, 0, 75, 75
1, 59328, Note_on_c, 1, 60, 75
1, 59373, Note_on_c, 0, 70, 0
1, 59376, Note_on_c, 0, 70, 64
1, 59421, Note_on_c, 0, 70, 0
1, 59424, Note_on_c, 0, 72, 64
1, 59447, Note_on_c, 0, 72, 0
1, 59448, Note_on_c, 0, 70, 64
1, 59471, Note_on_c, 0, 70, 0
1, 59472, Note_on_c, 0, 69, 64
1, 59495, Note_on_c, 0, 69, 0
1, 59496, Note_on_c, 0, 70, 64
1, 59519, Note_on_c, 0, 70, 0
1, 59520, Note_on_c, 0, 69, 64
1, 59565, Note_on_c, 0, 75, 0
1, 59568, Note_on_c, 0, 75, 75
1, 59613, Note_on_c, 0, 75, 0
1, 59616, Note_on_c, 0, 77, 75
1, 59639, Note_on_c, 0, 77, 0
1, 59640, Note_on_c, 0, 75, 75
1, 59663, Note_on_c, 0, 75, 0
1, 59664, Note_on_c, 0, 74, 75
1, 59687, Note_on_c, 0, 74, 0
1, 59688, Note_on_c, 0, 75, 75
1, 59711, Note_on_c, 0, 75, 0
1, 59712, Note_on_c, 0, 84, 75
1, 59712, Note_on_c, 0, 75, 75
1, 59760, Note_on_c, 1, 65, 64
1, 59805, Note_on_c, 1, 65, 0
1, 59808, Note_on_c, 1, 64, 64
1, 59831, Note_on_c, 1, 64, 0
1, 59832, Note_on_c, 1, 65, 64
1, 59855, Note_on_c, 1, 65, 0
1, 59856, Note_on_c, 1, 67, 64
1, 59879, Note_on_c, 1, 67, 0
1, 59880, Note_on_c, 1, 65, 64
1, 59903, Note_on_c, 1, 65, 0
1, 59904, Note_on_c, 1, 65, 64
1, 60081, Note_on_c, 0, 84, 0
1, 60081, Note_on_c, 0, 75, 0
1, 60081, Note_on_c, 0, 69, 0
1, 60081, Note_on_c, 1, 60, 0
1, 60081, Note_on_c, 1, 65, 0
1, 60144, Note_on_c, 0, 81, 75
1, 60144, Note_on_c, 1, 75, 75
1, 60167, Note_on_c, 0, 81, 0
1, 60168, Note_on_c, 0, 77, 75
1, 60191, Note_on_c, 0, 77, 0
1, 60192, Note_on_c, 0, 82, 75
1, 60192, Note_on_c, 1, 75, 0
1, 60192, Note_on_c, 1, 74, 75
1, 60212, Note_on_c, 0, 82, 0
1, 60212, Note_on_c, 1, 74, 0
1, 60240, Note_on_c, 0, 81, 75
1, 60240, Note_on_c, 1, 75, 75
1, 60263, Note_on_c, 0, 81, 0
1, 60264, Note_on_c, 0, 77, 75
1, 60287, Note_on_c, 0, 77, 0
1, 60288, Note_on_c, 0, 82, 75
1, 60288, Note_on_c, 1, 75, 0
1, 60288, Note_on_c, 1, 74, 75
1, 60308, Note_on_c, 0, 82, 0
1, 60308, Note_on_c, 1, 74, 0
1, 60336, Note_on_c, 0, 81, 75
1, 60336, Note_on_c, 1, 75, 75
1, 60359, Note_on_c, 0, 81, 0
1, 60360, Note_on_c, 0, 77, 75
1, 60383, Note_on_c, 0, 77, 0
1, 60384, Note_on_c, 0, 82, 75
1, 60384, Note_on_c, 1, 75, 0
1, 60384, Note_on_c, 1, 74, 75
1, 60404, Note_on_c, 0, 82, 0
1, 60404, Note_on_c, 1, 74, 0
1, 60432, Note_on_c, 0, 84, 75
1, 60432, Note_on_c, 1, 69, 75
1, 60455, Note_on_c, 0, 84, 0
1, 60456, Note_on_c, 0, 77, 75
1, 60479, Note_on_c, 0, 77, 0
1, 60480, Note_on_c, 0, 86, 75
1, 60480, Note_on_c, 1, 69, 0
1, 60480, Note_on_c, 1, 70, 75
1, 60500, Note_on_c, 0, 86, 0
1, 60500, Note_on_c, 1, 70, 0
1, 60528, Note_on_c, 0, 87, 75
1, 60528, Note_on_c, 1, 72, 75
1, 60551, Note_on_c, 0, 87, 0
1, 60552, Note_on_c, 0, 77, 75
1, 60575, Note_on_c, 0, 77, 0
1, 60576, Note_on_c, 0, 89, 75
1, 60576, Note_on_c, 1, 72, 0
1, 60576, Note_on_c, 1, 74, 75
1, 60596, Note_on_c, 0, 89, 0
1, 60596, Note_on_c, 1, 74, 0
1, 60672, Note_on_c, 0, 87, 75
1, 60695, Note_on_c, 0, 87, 0
1, 60696, Note_on_c, 0, 86, 75
1, 60719, Note_on_c, 0, 86, 0
1, 60720, Note_on_c, 0, 84, 75
1, 60720, Note_on_c, 1, 62, 75
1, 60743, Note_on_c, 0, 84, 0
1, 60744, Note_on_c, 0, 82, 75
1, 60765, Note_on_c, 1, 62, 0
1, 60767, Note_on_c, 0, 82, 0
1, 60768, Note_on_c, 0, 81, 75
1, 60768, Note_on_c, 1, 63, 75
1, 60791, Note_on_c, 0, 81, 0
1, 60792, Note_on_c, 0, 79, 75
1, 60815, Note_on_c, 0, 79, 0
1, 60816, Note_on_c, 0, 77, 75
1, 60839, Note_on_c, 0, 77, 0
1, 60840, Note_on_c, 0, 75, 75
1, 60857, Note_on_c, 1, 63, 0
1, 60863, Note_on_c, 0, 75, 0
1, 60864, Note_on_c, 0, 74, 75
1, 60864, Note_on_c, 1, 65, 75
1, 60953, Note_on_c, 0, 74, 0
1, 60953, Note_on_c, 1, 65, 0
1, 60960, Note_on_c, 0, 72, 75
1, 60960, Note_on_c, 1, 53, 75
1, 60969, Note_on_c, 0, 72, 0
1, 60969, Note_on_c, 0, 74, 75
1, 60978, Note_on_c, 0, 74, 0
1, 60978, Note_on_c, 0, 72, 75
1, 60987, Note_on_c, 0, 72, 0
1, 60987, Note_on_c, 0, 74, 75
1, 60996, Note_on_c, 0, 74, 0
1, 60996, Note_on_c, 0, 72, 75
1, 61005, Note_on_c, 0, 72, 0
1, 61005, Note_on_c, 0, 74, 75
1, 61014, Note_on_c, 0, 74, 0
1, 61014, Note_on_c, 0, 72, 75
1, 61023, Note_on_c, 0, 72, 0
1, 61023, Note_on_c, 0, 70, 75
1, 61040, Note_on_c, 0, 70, 0
1, 61040, Note_on_c, 0, 72, 75
1, 61049, Note_on_c, 1, 53, 0
1, 61056, Note_on_c, 0, 72, 0
1, 61056, Note_on_c, 0, 70, 75
1, 61056, Note_on_c, 1, 58, 75
1, 61101, Note_on_c, 0, 70, 0
1, 61101, Note_on_c, 1, 58, 0
1, 61104, Note_on_c, 0, 69, 75
1, 61104, Note_on_c, 1, 63, 75
1, 61127, Note_on_c, 0, 69, 0
1, 61128, Note_on_c, 0, 65, 75
1, 61149, Note_on_c, 1, 63, 0
1, 61151, Note_on_c, 0, 65, 0
1, 61152, Note_on_c, 0, 70, 75
1, 61152, Note_on_c, 1, 62, 75
1, 61175, Note_on_c, 0, 70, 0
1, 61176, Note_on_c, 0, 65, 75
1, 61197, Note_on_c, 1, 62, 0
1, 61199, Note_on_c, 0, 65, 0
1, 61200, Note_on_c, 0, 69, 75
1, 61200, Note_on_c, 1, 63, 75
1, 61223, Note_on_c, 0, 69, 0
1, 61224, Note_on_c, 0, 65, 75
1, 61245, Note_on_c, 1, 63, 0
1, 61247, Note_on_c, 0, 65, 0
1, 61248, Note_on_c, 0, 70, 75
1, 61248, Note_on_c, 1, 62, 75
1, 61271, Note_on_c, 0, 70, 0
1, 61272, Note_on_c, 0, 65, 75
1, 61293, Note_on_c, 1, 62, 0
1, 61295, Note_on_c, 0, 65, 0
1, 61296, Note_on_c, 0, 72, 75
1, 61296, Note_on_c, 1, 57, 75
1, 61319, Note_on_c, 0, 72, 0
1, 61320, Note_on_c, 0, 65, 75
1, 61341, Note_on_c, 1, 57, 0
1, 61343, Note_on_c, 0, 65, 0
1, 61344, Note_on_c, 0, 74, 75
1, 61344, Note_on_c, 1, 58, 75
1, 61367, Note_on_c, 0, 74, 0
1, 61368, Note_on_c, 0, 65, 75
1, 61389, Note_on_c, 1, 58, 0
1, 61391, Note_on_c, 0, 65, 0
1, 61392, Note_on_c, 0, 75, 75
1, 61392, Note_on_c, 1, 60, 75
1, 61415, Note_on_c, 0, 75, 0
1, 61416, Note_on_c, 0, 65, 75
1, 61437, Note_on_c, 1, 60, 0
1, 61439, Note_on_c, 0, 65, 0
1, 61440, Note_on_c, 0, 77, 75
1, 61440, Note_on_c, 1, 62, 75
1, 61485, Note_on_c, 0, 77, 0
1, 61485, Note_on_c, 1, 62, 0
1, 61488, Note_on_c, 0, 82, 75
1, 61511, Note_on_c, 0, 82, 0
1, 61512, Note_on_c, 0, 70, 75
1, 61535, Note_on_c, 0, 70, 0
1, 61536, Note_on_c, 0, 81, 75
1, 61559, Note_on_c, 0, 81, 0
1, 61560, Note_on_c, 0, 69, 75
1, 61583, Note_on_c, 0, 69, 0
1, 61584, Note_on_c, 0, 80, 75
1, 61584, Note_on_c, 1, 50, 75
1, 61607, Note_on_c, 0, 80, 0
1, 61608, Note_on_c, 0, 68, 75
1, 61629, Note_on_c, 1, 50, 0
1, 61631, Note_on_c, 0, 68, 0
1, 61632, Note_on_c, 0, 67, 75
1, 61632, Note_on_c, 1, 51, 75
1, 61642, Note_on_c, 0, 67, 0
1, 61656, Note_on_c, 0, 79, 75
1, 61656, Note_on_c, 0, 75, 75
1, 61679, Note_on_c, 0, 79, 0
1, 61679, Note_on_c, 0, 75, 0
1, 61680, Note_on_c, 0, 77, 75
1, 61680, Note_on_c, 0, 74, 75
1, 61703, Note_on_c, 0, 77, 0
1, 61703, Note_on_c, 0, 74, 0
1, 61704, Note_on_c, 0, 75, 75
1, 61704, Note_on_c, 0, 72, 75
1, 61721, Note_on_c, 1, 51, 0
1, 61727, Note_on_c, 0, 75, 0
1, 61727, Note_on_c, 0, 72, 0
1, 61728, Note_on_c, 0, 74, 75
1, 61728, Note_on_c, 0, 70, 75
1, 61728, Note_on_c, 1, 53, 75
1, 61817, Note_on_c, 0, 74, 0
1, 61817, Note_on_c, 0, 70, 0
1, 61817, Note_on_c, 1, 53, 0
1, 61824, Note_on_c, 0, 72, 75
1, 61824, Note_on_c, 0, 69, 64
1, 61824, Note_on_c, 1, 41, 75
1, 61833, Note_on_c, 0, 72, 0
1, 61833, Note_on_c, 0, 74, 75
1, 61842, Note_on_c, 0, 74, 0
1, 61842, Note_on_c, 0, 72, 75
1, 61851, Note_on_c, 0, 72, 0
1, 61851, Note_on_c, 0, 74, 75
1, 61860, Note_on_c, 0, 74, 0
1, 61860, Note_on_c, 0, 72, 75
1, 61869, Note_on_c, 0, 72, 0
1, 61869, Note_on_c, 0, 74, 75
1, 61878, Note_on_c, 0, 74, 0
1, 61878, Note_on_c, 0, 72, 75
1, 61887, Note_on_c, 0, 72, 0
1, 61887, Note_on_c, 0, 70, 75
1, 61904, Note_on_c, 0, 70, 0
1, 61904, Note_on_c, 0, 72, 75
1, 61913, Note_on_c, 0, 69, 0
1, 61913, Note_on_c, 1, 41, 0
1, 61920, Note_on_c, 0, 72, 0
1, 61920, Note_on_c, 0, 70, 75
1, 61920, Note_on_c, 1, 46, 75
1, 62009, Note_on_c, 0, 70, 0
1, 62009, Note_on_c, 1, 46, 0
1, 62016, Note_on_c, 1, 34, 75
1, 62064, Note_on_c, 0, 77, 70
1, 62064, Note_on_c, 0, 74, 70
1, 62105, Note_on_c, 1, 34, 0
1, 62112, Note_on_c, 0, 77, 0
1, 62112, Note_on_c, 0, 74, 0
1, 62112, Note_on_c, 0, 79, 70
1, 62112, Note_on_c, 0, 75, 70
1, 62157, Note_on_c, 0, 79, 0
1, 62157, Note_on_c, 0, 75, 0
1, 62160, Note_on_c, 0, 75, 70
1, 62160, Note_on_c, 0, 69, 70
1, 62180, Note_on_c, 0, 75, 0
1, 62180, Note_on_c, 0, 69, 0
1, 62208, Note_on_c, 0, 75, 70
1, 62208, Note_on_c, 0, 69, 70
1, 62208, Note_on_c, 1, 46, 75
1, 62297, Note_on_c, 1, 46, 0
1, 62304, Note_on_c, 0, 75, 0
1, 62304, Note_on_c, 0, 69, 0
1, 62304, Note_on_c, 0, 74, 70
1, 62304, Note_on_c, 0, 70, 70
1, 62304, Note_on_c, 1, 34, 75
1, 62324, Note_on_c, 0, 74, 0
1, 62324, Note_on_c, 0, 70, 0
1, 62352, Note_on_c, 0, 74, 70
1, 62352, Note_on_c, 0, 65, 70
1, 62393, Note_on_c, 1, 34, 0
1, 62397, Note_on_c, 0, 74, 0
1, 62397, Note_on_c, 0, 65, 0
1, 62400, Note_on_c, 0, 75, 70
1, 62400, Note_on_c, 0, 67, 70
1, 62445, Note_on_c, 0, 75, 0
1, 62445, Note_on_c, 0, 67, 0
1, 62448, Note_on_c, 0, 69, 70
1, 62448, Note_on_c, 0, 63, 70
1, 62468, Note_on_c, 0, 69, 0
1, 62468, Note_on_c, 0, 63, 0
1, 62496, Note_on_c, 0, 69, 70
1, 62496, Note_on_c, 0, 63, 70
1, 62496, Note_on_c, 1, 46, 75
1, 62585, Note_on_c, 1, 46, 0
1, 62592, Note_on_c, 0, 69, 0
1, 62592, Note_on_c, 0, 63, 0
1, 62592, Note_on_c, 0, 70, 70
1, 62592, Note_on_c, 0, 62, 70
1, 62592, Note_on_c, 1, 34, 75
1, 62612, Note_on_c, 0, 70, 0
1, 62612, Note_on_c, 0, 62, 0
1, 62640, Note_on_c, 0, 65, 70
1, 62640, Note_on_c, 0, 62, 70
1, 62681, Note_on_c, 1, 34, 0
1, 62685, Note_on_c, 0, 65, 0
1, 62685, Note_on_c, 0, 62, 0
1, 62688, Note_on_c, 0, 67, 70
1, 62688, Note_on_c, 0, 63, 70
1, 62733, Note_on_c, 0, 67, 0
1, 62733, Note_on_c, 0, 63, 0
1, 62736, Note_on_c, 0, 57, 70
1, 62736, Note_on_c, 0, 51, 70
1, 62756, Note_on_c, 0, 57, 0
1, 62756, Note_on_c, 0, 51, 0
1, 62784, Note_on_c, 0, 57, 70
1, 62784, Note_on_c, 0, 51, 70
1, 62784, Note_on_c, 1, 46, 75
1, 63072, Note_on_c, 0, 57, 0
1, 63072, Note_on_c, 0, 51, 0
1, 63072, Note_on_c, 0, 58, 70
1, 63072, Note_on_c, 0, 50, 70
1, 63072, Note_on_c, 1, 46, 0
1, 63072, Note_on_c, 1, 34, 75
1, 63161, Note_on_c, 0, 58, 0
1, 63161, Note_on_c, 0, 50, 0
1, 63161, Note_on_c, 1, 34, 0
1, 63171, End_track
0, 0, End_of_file