0, 0, Header, 0, 1, 96
1, 0, Start_track
1, 0, Tempo, 1090909
1, 0, Note_on_c, 0, 83, 80
1, 6, Note_on_c, 0, 83, 0
1, 6, Note_on_c, 0, 81, 80
1, 12, Note_on_c, 0, 81, 0
1, 12, Note_on_c, 0, 80, 80
1, 18, Note_on_c, 0, 80, 0
1, 18, Note_on_c, 0, 81, 80
1, 48, Note_on_c, 1, 61, 64
1, 48, Note_on_c, 1, 57, 64
1, 95, Note_on_c, 1, 61, 0
1, 95, Note_on_c, 1, 57, 0
1, 96, Note_on_c, 1, 61, 64
1, 96, Note_on_c, 1, 57, 64
1, 111, Note_on_c, 0, 81, 0
1, 112, Note_on_c, 0, 80, 80
1, 127, Note_on_c, 0, 80, 0
1, 128, Note_on_c, 0, 78, 80
1, 143, Note_on_c, 0, 78, 0
1, 143, Note_on_c, 1, 61, 0
1, 143, Note_on_c, 1, 57, 0
1, 144, Note_on_c, 0, 76, 80
1, 144, Note_on_c, 1, 61, 64
1, 144, Note_on_c, 1, 57, 64
1, 159, Note_on_c, 0, 76, 0
1, 160, Note_on_c, 0, 74, 80
1, 175, Note_on_c, 0, 74, 0
1, 176, Note_on_c, 0, 73, 80
1, 191, Note_on_c, 0, 73, 0
1, 191, Note_on_c, 1, 61, 0
1, 191, Note_on_c, 1, 57, 0
1, 192, Note_on_c, 0, 71, 80
1, 207, Note_on_c, 0, 71, 0
1, 208, Note_on_c, 0, 76, 80
1, 223, Note_on_c, 0, 76, 0
1, 224, Note_on_c, 0, 74, 80
1, 239, Note_on_c, 0, 74, 0
1, 240, Note_on_c, 0, 74, 80
1, 240, Note_on_c, 1, 59, 64
1, 240, Note_on_c, 1, 57, 64
1, 285, Note_on_c, 0, 74, 0
1, 287, Note_on_c, 1, 59, 0
1, 287, Note_on_c, 1, 57, 0
1, 288, Note_on_c, 0, 74, 80
1, 288, Note_on_c, 1, 59, 64
1, 288, Note_on_c, 1, 57, 64
1, 294, Note_on_c, 0, 74, 0
1, 294, Note_on_c, 0, 76, 80
1, 300, Note_on_c, 0, 76, 0
1, 300, Note_on_c, 0, 74, 80
1, 306, Note_on_c, 0, 74, 0
1, 306, Note_on_c, 0, 73, 80
1, 321, Note_on_c, 0, 73, 0
1, 321, Note_on_c, 0, 74, 80
1, 335, Note_on_c, 1, 59, 0
1, 335, Note_on_c, 1, 57, 0
1, 336, Note_on_c, 0, 74, 0
1, 336, Note_on_c, 0, 74, 80
1, 336, Note_on_c, 1, 59, 64
1, 336, Note_on_c, 1, 57, 64
1, 342, Note_on_c, 0, 74, 0
1, 342, Note_on_c, 0, 76, 80
1, 348, Note_on_c, 0, 76, 0
1, 348, Note_on_c, 0, 74, 80
1, 354, Note_on_c, 0, 74, 0
1, 354, Note_on_c, 0, 73, 80
1, 369, Note_on_c, 0, 73, 0
1, 369, Note_on_c, 0, 74, 80
1, 383, Note_on_c, 1, 59, 0
1, 383, Note_on_c, 1, 57, 0
1, 384, Note_on_c, 0, 74, 0
1, 384, Note_on_c, 0, 74, 80
1, 429, Note_on_c, 0, 74, 0
1, 432, Note_on_c, 0, 83, 80
1, 432, Note_on_c, 1, 59, 64
1, 432, Note_on_c, 1, 56, 64
1, 479, Note_on_c, 1, 59, 0
1, 479, Note_on_c, 1, 56, 0
1, 480, Note_on_c, 1, 59, 64
1, 480, Note_on_c, 1, 56, 64
1, 495, Note_on_c, 0, 83, 0
1, 496, Note_on_c, 0, 81, 80
1, 511, Note_on_c, 0, 81, 0
1, 512, Note_on_c, 0, 80, 80
1, 527, Note_on_c, 0, 80, 0
1, 527, Note_on_c, 1, 59, 0
1, 527, Note_on_c, 1, 56, 0
1, 528, Note_on_c, 0, 78, 80
1, 528, Note_on_c, 1, 59, 64
1, 528, Note_on_c, 1, 56, 64
1, 543, Note_on_c, 0, 78, 0
1, 544, Note_on_c, 0, 76, 80
1, 559, Note_on_c, 0, 76, 0
1, 560, Note_on_c, 0, 74, 80
1, 575, Note_on_c, 0, 74, 0
1, 575, Note_on_c, 1, 59, 0
1, 575, Note_on_c, 1, 56, 0
1, 576, Note_on_c, 0, 73, 80
1, 576, Note_on_c, 1, 57, 64
1, 591, Note_on_c, 0, 73, 0
1, 592, Note_on_c, 0, 76, 80
1, 607, Note_on_c, 0, 76, 0
1, 608, Note_on_c, 0, 68, 80
1, 623, Note_on_c, 0, 68, 0
1, 624, Note_on_c, 0, 69, 80
1, 665, Note_on_c, 1, 57, 0
1, 669, Note_on_c, 0, 69, 0
1, 672, Note_on_c, 1, 45, 75
1, 687, Note_on_c, 1, 45, 0
1, 688, Note_on_c, 1, 49, 75
1, 703, Note_on_c, 1, 49, 0
1, 704, Note_on_c, 1, 52, 75
1, 719, Note_on_c, 1, 52, 0
1, 720, Note_on_c, 1, 47, 75
1, 735, Note_on_c, 1, 47, 0
1, 736, Note_on_c, 1, 50, 75
1, 751, Note_on_c, 1, 50, 0
1, 752, Note_on_c, 1, 56, 75
1, 767, Note_on_c, 1, 56, 0
1, 768, Note_on_c, 0, 69, 80
1, 768, Note_on_c, 1, 57, 75
1, 783, Note_on_c, 0, 69, 0
1, 784, Note_on_c, 0, 73, 80
1, 799, Note_on_c, 0, 73, 0
1, 800, Note_on_c, 0, 69, 80
1, 815, Note_on_c, 0, 69, 0
1, 816, Note_on_c, 0, 76, 80
1, 831, Note_on_c, 0, 76, 0
1, 832, Note_on_c, 0, 73, 80
1, 847, Note_on_c, 0, 73, 0
1, 848, Note_on_c, 0, 69, 80
1, 857, Note_on_c, 1, 57, 0
1, 863, Note_on_c, 0, 69, 0
1, 864, Note_on_c, 0, 74, 80
1, 879, Note_on_c, 0, 74, 0
1, 880, Note_on_c, 0, 71, 80
1, 895, Note_on_c, 0, 71, 0
1, 896, Note_on_c, 0, 68, 80
1, 911, Note_on_c, 0, 68, 0
1, 912, Note_on_c, 0, 62, 80
1, 912, Note_on_c, 1, 59, 75
1, 912, Note_on_c, 1, 52, 75
1, 927, Note_on_c, 0, 62, 0
1, 928, Note_on_c, 0, 68, 80
1, 943, Note_on_c, 0, 68, 0
1, 944, Note_on_c, 0, 62, 80
1, 957, Note_on_c, 1, 59, 0
1, 957, Note_on_c, 1, 52, 0
1, 959, Note_on_c, 0, 62, 0
1, 960, Note_on_c, 0, 61, 80
1, 960, Note_on_c, 1, 57, 75
1, 960, Note_on_c, 1, 45, 75
1, 975, Note_on_c, 0, 61, 0
1, 976, Note_on_c, 0, 64, 80
1, 991, Note_on_c, 0, 64, 0
1, 992, Note_on_c, 0, 69, 80
1, 1007, Note_on_c, 0, 69, 0
1, 1008, Note_on_c, 0, 73, 80
1, 1023, Note_on_c, 0, 73, 0
1, 1024, Note_on_c, 0, 76, 80
1, 1039, Note_on_c, 0, 76, 0
1, 1040, Note_on_c, 0, 69, 80
1, 1049, Note_on_c, 1, 57, 0
1, 1049, Note_on_c, 1, 45, 0
1, 1055, Note_on_c, 0, 69, 0
1, 1056, Note_on_c, 0, 74, 80
1, 1071, Note_on_c, 0, 74, 0
1, 1072, Note_on_c, 0, 71, 80
1, 1087, Note_on_c, 0, 71, 0
1, 1088, Note_on_c, 0, 68, 80
1, 1103, Note_on_c, 0, 68, 0
1, 1104, Note_on_c, 0, 62, 80
1, 1104, Note_on_c, 1, 59, 75
1, 1104, Note_on_c, 1, 52, 75
1, 1119, Note_on_c, 0, 62, 0
1, 1120, Note_on_c, 0, 68, 80
1, 1135, Note_on_c, 0, 68, 0
1, 1136, Note_on_c, 0, 62, 80
1, 1149, Note_on_c, 1, 59, 0
1, 1149, Note_on_c, 1, 52, 0
1, 1151, Note_on_c, 0, 62, 0
1, 1152, Note_on_c, 0, 61, 75
1, 1152, Note_on_c, 1, 57, 75
1, 1152, Note_on_c, 1, 45, 75
1, 1167, Note_on_c, 0, 61, 0
1, 1168, Note_on_c, 0, 64, 75
1, 1183, Note_on_c, 0, 64, 0
1, 1184, Note_on_c, 0, 69, 75
1, 1197, Note_on_c, 1, 57, 0
1, 1197, Note_on_c, 1, 45, 0
1, 1199, Note_on_c, 0, 69, 0
1, 1200, Note_on_c, 0, 64, 76
1, 1200, Note_on_c, 1, 61, 70
1, 1200, Note_on_c, 1, 57, 70
1, 1215, Note_on_c, 0, 64, 0
1, 1216, Note_on_c, 0, 69, 76
1, 1231, Note_on_c, 0, 69, 0
1, 1232, Note_on_c, 0, 73, 76
1, 1245, Note_on_c, 1, 61, 0
1, 1245, Note_on_c, 1, 57, 0
1, 1247, Note_on_c, 0, 73, 0
1, 1248, Note_on_c, 0, 69, 77
1, 1248, Note_on_c, 1, 61, 71
1, 1248, Note_on_c, 1, 57, 71
1, 1263, Note_on_c, 0, 69, 0
1, 1264, Note_on_c, 0, 73, 77
1, 1279, Note_on_c, 0, 73, 0
1, 1280, Note_on_c, 0, 76, 78
1, 1293, Note_on_c, 1, 61, 0
1, 1293, Note_on_c, 1, 57, 0
1, 1295, Note_on_c, 0, 76, 0
1, 1296, Note_on_c, 0, 73, 78
1, 1296, Note_on_c, 1, 61, 73
1, 1296, Note_on_c, 1, 57, 73
1, 1311, Note_on_c, 0, 73, 0
1, 1312, Note_on_c, 0, 76, 80
1, 1327, Note_on_c, 0, 76, 0
1, 1328, Note_on_c, 0, 81, 80
1, 1341, Note_on_c, 1, 61, 0
1, 1341, Note_on_c, 1, 57, 0
1, 1343, Note_on_c, 0, 81, 0
1, 1344, Note_on_c, 0, 64, 75
1, 1359, Note_on_c, 0, 64, 0
1, 1360, Note_on_c, 0, 68, 75
1, 1375, Note_on_c, 0, 68, 0
1, 1376, Note_on_c, 0, 71, 75
1, 1391, Note_on_c, 0, 71, 0
1, 1392, Note_on_c, 0, 68, 75
1, 1392, Note_on_c, 1, 56, 72
1, 1392, Note_on_c, 1, 52, 72
1, 1407, Note_on_c, 0, 68, 0
1, 1408, Note_on_c, 0, 71, 76
1, 1423, Note_on_c, 0, 71, 0
1, 1424, Note_on_c, 0, 76, 76
1, 1437, Note_on_c, 1, 56, 0
1, 1437, Note_on_c, 1, 52, 0
1, 1439, Note_on_c, 0, 76, 0
1, 1440, Note_on_c, 0, 71, 76
1, 1440, Note_on_c, 1, 56, 74
1, 1440, Note_on_c, 1, 52, 74
1, 1455, Note_on_c, 0, 71, 0
1, 1456, Note_on_c, 0, 76, 77
1, 1471, Note_on_c, 0, 76, 0
1, 1472, Note_on_c, 0, 80, 77
1, 1485, Note_on_c, 1, 56, 0
1, 1485, Note_on_c, 1, 52, 0
1, 1487, Note_on_c, 0, 80, 0
1, 1488, Note_on_c, 0, 76, 77
1, 1488, Note_on_c, 1, 56, 76
1, 1488, Note_on_c, 1, 52, 76
1, 1503, Note_on_c, 0, 76, 0
1, 1504, Note_on_c, 0, 80, 77
1, 1519, Note_on_c, 0, 80, 0
1, 1520, Note_on_c, 0, 83, 78
1, 1533, Note_on_c, 1, 56, 0
1, 1533, Note_on_c, 1, 52, 0
1, 1535, Note_on_c, 0, 83, 0
1, 1536, Note_on_c, 0, 81, 78
1, 1536, Note_on_c, 1, 54, 78
1, 1543, Note_on_c, 0, 81, 0
1, 1552, Note_on_c, 0, 81, 78
1, 1567, Note_on_c, 0, 81, 0
1, 1568, Note_on_c, 0, 80, 79
1, 1581, Note_on_c, 1, 54, 0
1, 1583, Note_on_c, 0, 80, 0
1, 1584, Note_on_c, 0, 78, 79
1, 1584, Note_on_c, 1, 57, 80
1, 1591, Note_on_c, 0, 78, 0
1, 1600, Note_on_c, 0, 78, 79
1, 1615, Note_on_c, 0, 78, 0
1, 1616, Note_on_c, 0, 76, 80
1, 1629, Note_on_c, 1, 57, 0
1, 1631, Note_on_c, 0, 76, 0
1, 1632, Note_on_c, 0, 75, 79
1, 1632, Note_on_c, 1, 59, 78
1, 1639, Note_on_c, 0, 75, 0
1, 1648, Note_on_c, 0, 75, 79
1, 1663, Note_on_c, 0, 75, 0
1, 1664, Note_on_c, 0, 73, 79
1, 1677, Note_on_c, 1, 59, 0
1, 1679, Note_on_c, 0, 73, 0
1, 1680, Note_on_c, 0, 71, 78
1, 1680, Note_on_c, 1, 63, 77
1, 1687, Note_on_c, 0, 71, 0
1, 1696, Note_on_c, 0, 71, 78
1, 1711, Note_on_c, 0, 71, 0
1, 1712, Note_on_c, 0, 69, 78
1, 1725, Note_on_c, 1, 63, 0
1, 1727, Note_on_c, 0, 69, 0
1, 1728, Note_on_c, 0, 68, 78
1, 1728, Note_on_c, 1, 64, 76
1, 1743, Note_on_c, 0, 68, 0
1, 1744, Note_on_c, 0, 66, 77
1, 1759, Note_on_c, 0, 66, 0
1, 1760, Note_on_c, 0, 64, 77
1, 1773, Note_on_c, 1, 64, 0
1, 1775, Note_on_c, 0, 64, 0
1, 1776, Note_on_c, 0, 71, 75
1, 1776, Note_on_c, 1, 56, 75
1, 1791, Note_on_c, 0, 71, 0
1, 1792, Note_on_c, 0, 73, 75
1, 1807, Note_on_c, 0, 73, 0
1, 1808, Note_on_c, 0, 74, 75
1, 1821, Note_on_c, 1, 56, 0
1, 1823, Note_on_c, 0, 74, 0
1, 1824, Note_on_c, 0, 73, 75
1, 1824, Note_on_c, 1, 57, 75
1, 1839, Note_on_c, 0, 73, 0
1, 1840, Note_on_c, 0, 71, 75
1, 1855, Note_on_c, 0, 71, 0
1, 1856, Note_on_c, 0, 69, 75
1, 1871, Note_on_c, 0, 69, 0
1, 1872, Note_on_c, 0, 81, 75
1, 1887, Note_on_c, 0, 81, 0
1, 1888, Note_on_c, 0, 80, 73
1, 1903, Note_on_c, 0, 80, 0
1, 1904, Note_on_c, 0, 78, 72
1, 1913, Note_on_c, 1, 57, 0
1, 1919, Note_on_c, 0, 78, 0
1, 1920, Note_on_c, 0, 76, 70
1, 1920, Note_on_c, 1, 59, 70
1, 1965, Note_on_c, 1, 59, 0
1, 1968, Note_on_c, 0, 76, 0
1, 1968, Note_on_c, 0, 75, 70
1, 1968, Note_on_c, 1, 47, 70
1, 2009, Note_on_c, 0, 75, 0
1, 2013, Note_on_c, 1, 47, 0
1, 2016, Note_on_c, 0, 73, 70
1, 2016, Note_on_c, 1, 59, 70
1, 2023, Note_on_c, 0, 73, 0
1, 2023, Note_on_c, 0, 71, 70
1, 2030, Note_on_c, 0, 71, 0
1, 2030, Note_on_c, 0, 73, 70
1, 2031, Note_on_c, 1, 59, 0
1, 2032, Note_on_c, 1, 63, 70
1, 2037, Note_on_c, 0, 73, 0
1, 2037, Note_on_c, 0, 71, 70
1, 2044, Note_on_c, 0, 71, 0
1, 2044, Note_on_c, 0, 73, 70
1, 2047, Note_on_c, 1, 63, 0
1, 2048, Note_on_c, 1, 66, 70
1, 2051, Note_on_c, 0, 73, 0
1, 2051, Note_on_c, 0, 71, 70
1, 2058, Note_on_c, 0, 71, 0
1, 2058, Note_on_c, 0, 73, 70
1, 2063, Note_on_c, 1, 66, 0
1, 2064, Note_on_c, 1, 63, 70
1, 2065, Note_on_c, 0, 73, 0
1, 2065, Note_on_c, 0, 71, 70
1, 2072, Note_on_c, 0, 71, 0
1, 2072, Note_on_c, 0, 73, 70
1, 2079, Note_on_c, 0, 73, 0
1, 2079, Note_on_c, 0, 71, 70
1, 2079, Note_on_c, 1, 63, 0
1, 2080, Note_on_c, 1, 66, 70
1, 2086, Note_on_c, 0, 71, 0
1, 2086, Note_on_c, 0, 73, 70
1, 2093, Note_on_c, 0, 73, 0
1, 2093, Note_on_c, 0, 71, 70
1, 2095, Note_on_c, 1, 66, 0
1, 2096, Note_on_c, 1, 69, 70
1, 2100, Note_on_c, 0, 71, 0
1, 2100, Note_on_c, 0, 73, 70
1, 2106, Note_on_c, 0, 73, 0
1, 2106, Note_on_c, 0, 71, 70
1, 2111, Note_on_c, 1, 69, 0
1, 2112, Note_on_c, 1, 68, 70
1, 2127, Note_on_c, 0, 71, 0
1, 2128, Note_on_c, 0, 83, 69
1, 2143, Note_on_c, 0, 83, 0
1, 2144, Note_on_c, 0, 81, 68
1, 2159, Note_on_c, 0, 81, 0
1, 2160, Note_on_c, 0, 80, 67
1, 2175, Note_on_c, 0, 80, 0
1, 2176, Note_on_c, 0, 78, 67
1, 2191, Note_on_c, 0, 78, 0
1, 2192, Note_on_c, 0, 76, 66
1, 2201, Note_on_c, 1, 68, 0
1, 2207, Note_on_c, 0, 76, 0
1, 2208, Note_on_c, 0, 73, 64
1, 2208, Note_on_c, 1, 59, 64
1, 2215, Note_on_c, 0, 73, 0
1, 2215, Note_on_c, 0, 71, 64
1, 2222, Note_on_c, 0, 71, 0
1, 2222, Note_on_c, 0, 73, 64
1, 2223, Note_on_c, 1, 59, 0
1, 2224, Note_on_c, 1, 63, 64
1, 2229, Note_on_c, 0, 73, 0
1, 2229, Note_on_c, 0, 71, 64
1, 2236, Note_on_c, 0, 71, 0
1, 2236, Note_on_c, 0, 73, 64
1, 2239, Note_on_c, 1, 63, 0
1, 2240, Note_on_c, 1, 66, 64
1, 2243, Note_on_c, 0, 73, 0
1, 2243, Note_on_c, 0, 71, 64
1, 2250, Note_on_c, 0, 71, 0
1, 2250, Note_on_c, 0, 73, 64
1, 2255, Note_on_c, 1, 66, 0
1, 2256, Note_on_c, 1, 63, 64
1, 2257, Note_on_c, 0, 73, 0
1, 2257, Note_on_c, 0, 71, 64
1, 2264, Note_on_c, 0, 71, 0
1, 2264, Note_on_c, 0, 73, 64
1, 2271, Note_on_c, 0, 73, 0
1, 2271, Note_on_c, 0, 71, 64
1, 2271, Note_on_c, 1, 63, 0
1, 2272, Note_on_c, 1, 66, 64
1, 2278, Note_on_c, 0, 71, 0
1, 2278, Note_on_c, 0, 73, 64
1, 2285, Note_on_c, 0, 73, 0
1, 2285, Note_on_c, 0, 71, 64
1, 2287, Note_on_c, 1, 66, 0
1, 2288, Note_on_c, 1, 69, 64
1, 2292, Note_on_c, 0, 71, 0
1, 2292, Note_on_c, 0, 73, 64
1, 2298, Note_on_c, 0, 73, 0
1, 2298, Note_on_c, 0, 71, 64
1, 2303, Note_on_c, 1, 69, 0
1, 2304, Note_on_c, 1, 68, 64
1, 2319, Note_on_c, 0, 71, 0
1, 2320, Note_on_c, 0, 83, 64
1, 2335, Note_on_c, 0, 83, 0
1, 2336, Note_on_c, 0, 81, 64
1, 2351, Note_on_c, 0, 81, 0
1, 2352, Note_on_c, 0, 80, 64
1, 2367, Note_on_c, 0, 80, 0
1, 2368, Note_on_c, 0, 78, 64
1, 2383, Note_on_c, 0, 78, 0
1, 2384, Note_on_c, 0, 76, 64
1, 2393, Note_on_c, 1, 68, 0
1, 2399, Note_on_c, 0, 76, 0
1, 2400, Note_on_c, 0, 85, 80
1, 2400, Note_on_c, 1, 57, 64
1, 2415, Note_on_c, 1, 57, 0
1, 2416, Note_on_c, 1, 61, 64
1, 2431, Note_on_c, 1, 61, 0
1, 2432, Note_on_c, 1, 66, 64
1, 2447, Note_on_c, 1, 66, 0
1, 2448, Note_on_c, 0, 85, 0
1, 2448, Note_on_c, 0, 78, 64
1, 2448, Note_on_c, 1, 69, 64
1, 2463, Note_on_c, 0, 78, 0
1, 2463, Note_on_c, 1, 69, 0
1, 2464, Note_on_c, 0, 80, 64
1, 2464, Note_on_c, 1, 68, 64
1, 2479, Note_on_c, 0, 80, 0
1, 2479, Note_on_c, 1, 68, 0
1, 2480, Note_on_c, 0, 81, 64
1, 2480, Note_on_c, 1, 66, 64
1, 2495, Note_on_c, 0, 81, 0
1, 2495, Note_on_c, 1, 66, 0
1, 2496, Note_on_c, 0, 83, 86
1, 2496, Note_on_c, 1, 56, 70
1, 2511, Note_on_c, 1, 56, 0
1, 2512, Note_on_c, 1, 59, 70
1, 2527, Note_on_c, 1, 59, 0
1, 2528, Note_on_c, 1, 64, 70
1, 2543, Note_on_c, 1, 64, 0
1, 2544, Note_on_c, 0, 83, 0
1, 2544, Note_on_c, 0, 76, 70
1, 2544, Note_on_c, 1, 68, 70
1, 2559, Note_on_c, 0, 76, 0
1, 2559, Note_on_c, 1, 68, 0
1, 2560, Note_on_c, 0, 78, 70
1, 2560, Note_on_c, 1, 66, 70
1, 2575, Note_on_c, 0, 78, 0
1, 2575, Note_on_c, 1, 66, 0
1, 2576, Note_on_c, 0, 80, 70
1, 2576, Note_on_c, 1, 64, 70
1, 2591, Note_on_c, 0, 80, 0
1, 2591, Note_on_c, 1, 64, 0
1, 2592, Note_on_c, 0, 81, 70
1, 2592, Note_on_c, 1, 63, 70
1, 2607, Note_on_c, 0, 81, 0
1, 2608, Note_on_c, 0, 80, 70
1, 2623, Note_on_c, 0, 80, 0
1, 2624, Note_on_c, 0, 78, 70
1, 2637, Note_on_c, 1, 63, 0
1, 2639, Note_on_c, 0, 78, 0
1, 2640, Note_on_c, 0, 80, 70
1, 2640, Note_on_c, 1, 64, 70
1, 2655, Note_on_c, 0, 80, 0
1, 2655, Note_on_c, 1, 64, 0
1, 2656, Note_on_c, 0, 78, 71
1, 2656, Note_on_c, 1, 66, 70
1, 2671, Note_on_c, 0, 78, 0
1, 2671, Note_on_c, 1, 66, 0
1, 2672, Note_on_c, 0, 76, 71
1, 2672, Note_on_c, 1, 68, 70
1, 2687, Note_on_c, 0, 76, 0
1, 2687, Note_on_c, 1, 68, 0
1, 2688, Note_on_c, 0, 75, 71
1, 2688, Note_on_c, 1, 69, 70
1, 2703, Note_on_c, 0, 75, 0
1, 2703, Note_on_c, 1, 69, 0
1, 2704, Note_on_c, 0, 76, 72
1, 2704, Note_on_c, 1, 68, 70
1, 2719, Note_on_c, 0, 76, 0
1, 2719, Note_on_c, 1, 68, 0
1, 2720, Note_on_c, 0, 78, 72
1, 2720, Note_on_c, 1, 66, 70
1, 2735, Note_on_c, 0, 78, 0
1, 2735, Note_on_c, 1, 66, 0
1, 2736, Note_on_c, 0, 76, 72
1, 2736, Note_on_c, 1, 68, 70
1, 2751, Note_on_c, 0, 76, 0
1, 2751, Note_on_c, 1, 68, 0
1, 2752, Note_on_c, 0, 78, 73
1, 2752, Note_on_c, 1, 66, 70
1, 2767, Note_on_c, 0, 78, 0
1, 2767, Note_on_c, 1, 66, 0
1, 2768, Note_on_c, 0, 80, 73
1, 2768, Note_on_c, 1, 64, 70
1, 2783, Note_on_c, 0, 80, 0
1, 2783, Note_on_c, 1, 64, 0
1, 2784, Note_on_c, 0, 81, 75
1, 2784, Note_on_c, 1, 63, 70
1, 2799, Note_on_c, 0, 81, 0
1, 2800, Note_on_c, 0, 80, 75
1, 2815, Note_on_c, 0, 80, 0
1, 2816, Note_on_c, 0, 78, 76
1, 2829, Note_on_c, 1, 63, 0
1, 2831, Note_on_c, 0, 78, 0
1, 2832, Note_on_c, 0, 80, 76
1, 2832, Note_on_c, 1, 64, 72
1, 2847, Note_on_c, 0, 80, 0
1, 2848, Note_on_c, 0, 78, 77
1, 2863, Note_on_c, 0, 78, 0
1, 2864, Note_on_c, 0, 76, 78
1, 2877, Note_on_c, 1, 64, 0
1, 2879, Note_on_c, 0, 76, 0
1, 2880, Note_on_c, 0, 81, 80
1, 2880, Note_on_c, 1, 63, 80
1, 2880, Note_on_c, 1, 51, 80
1, 2895, Note_on_c, 0, 81, 0
1, 2896, Note_on_c, 0, 78, 80
1, 2911, Note_on_c, 0, 78, 0
1, 2912, Note_on_c, 0, 71, 80
1, 2925, Note_on_c, 1, 63, 0
1, 2925, Note_on_c, 1, 51, 0
1, 2927, Note_on_c, 0, 71, 0
1, 2928, Note_on_c, 0, 80, 80
1, 2928, Note_on_c, 1, 64, 80
1, 2928, Note_on_c, 1, 52, 80
1, 2943, Note_on_c, 0, 80, 0
1, 2944, Note_on_c, 0, 76, 80
1, 2959, Note_on_c, 0, 76, 0
1, 2960, Note_on_c, 0, 71, 80
1, 2973, Note_on_c, 1, 64, 0
1, 2973, Note_on_c, 1, 52, 0
1, 2975, Note_on_c, 0, 71, 0
1, 2976, Note_on_c, 0, 78, 75
1, 2976, Note_on_c, 1, 61, 64
1, 2976, Note_on_c, 1, 57, 64
1, 2982, Note_on_c, 0, 78, 0
1, 2982, Note_on_c, 0, 80, 75
1, 2988, Note_on_c, 0, 80, 0
1, 2988, Note_on_c, 0, 78, 75
1, 2994, Note_on_c, 0, 78, 0
1, 2994, Note_on_c, 0, 77, 75
1, 3009, Note_on_c, 0, 77, 0
1, 3009, Note_on_c, 0, 78, 75
1, 3021, Note_on_c, 1, 61, 0
1, 3021, Note_on_c, 1, 57, 0
1, 3024, Note_on_c, 0, 78, 0
1, 3024, Note_on_c, 0, 78, 75
1, 3024, Note_on_c, 1, 61, 64
1, 3024, Note_on_c, 1, 57, 64
1, 3030, Note_on_c, 0, 78, 0
1, 3030, Note_on_c, 0, 80, 75
1, 3036, Note_on_c, 0, 80, 0
1, 3036, Note_on_c, 0, 78, 75
1, 3042, Note_on_c, 0, 78, 0
1, 3042, Note_on_c, 0, 77, 75
1, 3057, Note_on_c, 0, 77, 0
1, 3057, Note_on_c, 0, 78, 75
1, 3069, Note_on_c, 1, 61, 0
1, 3069, Note_on_c, 1, 57, 0
1, 3072, Note_on_c, 0, 78, 0
1, 3072, Note_on_c, 0, 83, 75
1, 3072, Note_on_c, 1, 56, 75
1, 3072, Note_on_c, 1, 59, 64
1, 3087, Note_on_c, 0, 83, 0
1, 3088, Note_on_c, 0, 80, 75
1, 3103, Note_on_c, 0, 80, 0
1, 3104, Note_on_c, 0, 76, 75
1, 3117, Note_on_c, 1, 59, 0
1, 3119, Note_on_c, 0, 76, 0
1, 3120, Note_on_c, 0, 71, 75
1, 3135, Note_on_c, 0, 71, 0
1, 3136, Note_on_c, 0, 68, 75
1, 3139, Note_on_c, 1, 56, 0
1, 3144, Note_on_c, 1, 61, 75
1, 3151, Note_on_c, 0, 68, 0
1, 3152, Note_on_c, 0, 64, 75
1, 3167, Note_on_c, 0, 64, 0
1, 3167, Note_on_c, 1, 61, 0
1, 3168, Note_on_c, 0, 68, 75
1, 3168, Note_on_c, 1, 59, 75
1, 3175, Note_on_c, 0, 68, 0
1, 3175, Note_on_c, 0, 66, 75
1, 3182, Note_on_c, 0, 66, 0
1, 3182, Note_on_c, 0, 68, 75
1, 3189, Note_on_c, 0, 68, 0
1, 3189, Note_on_c, 0, 66, 75
1, 3196, Note_on_c, 0, 66, 0
1, 3196, Note_on_c, 0, 68, 75
1, 3203, Note_on_c, 0, 68, 0
1, 3203, Note_on_c, 0, 66, 75
1, 3210, Note_on_c, 0, 66, 0
1, 3210, Note_on_c, 0, 68, 75
1, 3213, Note_on_c, 1, 59, 0
1, 3216, Note_on_c, 1, 47, 75
1, 3217, Note_on_c, 0, 68, 0
1, 3217, Note_on_c, 0, 66, 75
1, 3224, Note_on_c, 0, 66, 0
1, 3224, Note_on_c, 0, 68, 75
1, 3231, Note_on_c, 0, 68, 0
1, 3231, Note_on_c, 0, 66, 75
1, 3238, Note_on_c, 0, 66, 0
1, 3238, Note_on_c, 0, 64, 75
1, 3252, Note_on_c, 0, 64, 0
1, 3252, Note_on_c, 0, 66, 75
1, 3261, Note_on_c, 1, 47, 0
1, 3264, Note_on_c, 0, 66, 0
1, 3264, Note_on_c, 0, 64, 75
1, 3264, Note_on_c, 1, 52, 75
1, 3309, Note_on_c, 0, 64, 0
1, 3312, Note_on_c, 0, 76, 70
1, 3312, Note_on_c, 1, 56, 64
1, 3319, Note_on_c, 0, 76, 0
1, 3328, Note_on_c, 0, 76, 70
1, 3343, Note_on_c, 0, 76, 0
1, 3344, Note_on_c, 0, 71, 70
1, 3357, Note_on_c, 1, 56, 0
1, 3359, Note_on_c, 0, 71, 0
1, 3360, Note_on_c, 0, 73, 70
1, 3360, Note_on_c, 1, 57, 64
1, 3367, Note_on_c, 0, 73, 0
1, 3376, Note_on_c, 0, 73, 70
1, 3391, Note_on_c, 0, 73, 0
1, 3392, Note_on_c, 0, 69, 70
1, 3405, Note_on_c, 1, 57, 0
1, 3407, Note_on_c, 0, 69, 0
1, 3408, Note_on_c, 0, 66, 70
1, 3408, Note_on_c, 1, 57, 64
1, 3423, Note_on_c, 0, 66, 0
1, 3424, Note_on_c, 0, 71, 70
1, 3439, Note_on_c, 0, 71, 0
1, 3440, Note_on_c, 0, 63, 70
1, 3453, Note_on_c, 1, 57, 0
1, 3455, Note_on_c, 0, 63, 0
1, 3456, Note_on_c, 0, 64, 70
1, 3456, Note_on_c, 1, 56, 64
1, 3501, Note_on_c, 0, 64, 0
1, 3501, Note_on_c, 1, 56, 0
1, 3504, Note_on_c, 0, 76, 70
1, 3504, Note_on_c, 1, 56, 64
1, 3511, Note_on_c, 0, 76, 0
1, 3520, Note_on_c, 0, 76, 70
1, 3535, Note_on_c, 0, 76, 0
1, 3536, Note_on_c, 0, 71, 70
1, 3549, Note_on_c, 1, 56, 0
1, 3551, Note_on_c, 0, 71, 0
1, 3552, Note_on_c, 0, 73, 70
1, 3552, Note_on_c, 1, 57, 64
1, 3559, Note_on_c, 0, 73, 0
1, 3568, Note_on_c, 0, 73, 70
1, 3583, Note_on_c, 0, 73, 0
1, 3584, Note_on_c, 0, 69, 70
1, 3597, Note_on_c, 1, 57, 0
1, 3599, Note_on_c, 0, 69, 0
1, 3600, Note_on_c, 0, 81, 70
1, 3600, Note_on_c, 1, 54, 64
1, 3607, Note_on_c, 0, 81, 0
1, 3616, Note_on_c, 0, 81, 70
1, 3631, Note_on_c, 0, 81, 0
1, 3632, Note_on_c, 0, 75, 70
1, 3633, Note_on_c, 1, 52, 0
1, 3645, Note_on_c, 1, 54, 0
1, 3647, Note_on_c, 0, 75, 0
1, 3648, Note_on_c, 0, 78, 70
1, 3648, Note_on_c, 1, 52, 75
1, 3654, Note_on_c, 0, 78, 0
1, 3654, Note_on_c, 0, 76, 70
1, 3660, Note_on_c, 0, 76, 0
1, 3660, Note_on_c, 0, 75, 70
1, 3666, Note_on_c, 0, 75, 0
1, 3666, Note_on_c, 0, 76, 70
1, 3693, Note_on_c, 1, 52, 0
1, 3696, Note_on_c, 1, 64, 75
1, 3774, Note_on_c, 1, 64, 0
1, 3781, Note_on_c, 0, 76, 0
1, 3840, Note_on_c, 0, 83, 80
1, 3846, Note_on_c, 0, 83, 0
1, 3846, Note_on_c, 0, 81, 80
1, 3852, Note_on_c, 0, 81, 0
1, 3852, Note_on_c, 0, 80, 80
1, 3858, Note_on_c, 0, 80, 0
1, 3858, Note_on_c, 0, 81, 80
1, 3888, Note_on_c, 1, 61, 64
1, 3888, Note_on_c, 1, 57, 64
1, 3935, Note_on_c, 1, 61, 0
1, 3935, Note_on_c, 1, 57, 0
1, 3936, Note_on_c, 1, 61, 64
1, 3936, Note_on_c, 1, 57, 64
1, 3951, Note_on_c, 0, 81, 0
1, 3952, Note_on_c, 0, 80, 80
1, 3967, Note_on_c, 0, 80, 0
1, 3968, Note_on_c, 0, 78, 80
1, 3983, Note_on_c, 0, 78, 0
1, 3983, Note_on_c, 1, 61, 0
1, 3983, Note_on_c, 1, 57, 0
1, 3984, Note_on_c, 0, 76, 80
1, 3984, Note_on_c, 1, 61, 64
1, 3984, Note_on_c, 1, 57, 64
1, 3999, Note_on_c, 0, 76, 0
1, 4000, Note_on_c, 0, 74, 80
1, 4015, Note_on_c, 0, 74, 0
1, 4016, Note_on_c, 0, 73, 80
1, 4031, Note_on_c, 0, 73, 0
1, 4031, Note_on_c, 1, 61, 0
1, 4031, Note_on_c, 1, 57, 0
1, 4032, Note_on_c, 0, 71, 80
1, 4047, Note_on_c, 0, 71, 0
1, 4048, Note_on_c, 0, 76, 80
1, 4063, Note_on_c, 0, 76, 0
1, 4064, Note_on_c, 0, 74, 80
1, 4079, Note_on_c, 0, 74, 0
1, 4080, Note_on_c, 0, 74, 80
1, 4080, Note_on_c, 1, 59, 64
1, 4080, Note_on_c, 1, 57, 64
1, 4125, Note_on_c, 0, 74, 0
1, 4127, Note_on_c, 1, 59, 0
1, 4127, Note_on_c, 1, 57, 0
1, 4128, Note_on_c, 0, 74, 80
1, 4128, Note_on_c, 1, 59, 64
1, 4128, Note_on_c, 1, 57, 64
1, 4134, Note_on_c, 0, 74, 0
1, 4134, Note_on_c, 0, 76, 80
1, 4140, Note_on_c, 0, 76, 0
1, 4140, Note_on_c, 0, 74, 80
1, 4146, Note_on_c, 0, 74, 0
1, 4146, Note_on_c, 0, 73, 80
1, 4161, Note_on_c, 0, 73, 0
1, 4161, Note_on_c, 0, 74, 80
1, 4175, Note_on_c, 1, 59, 0
1, 4175, Note_on_c, 1, 57, 0
1, 4176, Note_on_c, 0, 74, 0
1, 4176, Note_on_c, 0, 74, 80
1, 4176, Note_on_c, 1, 59, 64
1, 4176, Note_on_c, 1, 57, 64
1, 4182, Note_on_c, 0, 74, 0
1, 4182, Note_on_c, 0, 76, 80
1, 4188, Note_on_c, 0, 76, 0
1, 4188, Note_on_c, 0, 74, 80
1, 4194, Note_on_c, 0, 74, 0
1, 4194, Note_on_c, 0, 73, 80
1, 4209, Note_on_c, 0, 73, 0
1, 4209, Note_on_c, 0, 74, 80
1, 4223, Note_on_c, 1, 59, 0
1, 4223, Note_on_c, 1, 57, 0
1, 4224, Note_on_c, 0, 74, 0
1, 4224, Note_on_c, 0, 74, 80
1, 4269, Note_on_c, 0, 74, 0
1, 4272, Note_on_c, 0, 83, 80
1, 4272, Note_on_c, 1, 59, 64
1, 4272, Note_on_c, 1, 56, 64
1, 4319, Note_on_c, 1, 59, 0
1, 4319, Note_on_c, 1, 56, 0
1, 4320, Note_on_c, 1, 59, 64
1, 4320, Note_on_c, 1, 56, 64
1, 4335, Note_on_c, 0, 83, 0
1, 4336, Note_on_c, 0, 81, 80
1, 4351, Note_on_c, 0, 81, 0
1, 4352, Note_on_c, 0, 80, 80
1, 4367, Note_on_c, 0, 80, 0
1, 4367, Note_on_c, 1, 59, 0
1, 4367, Note_on_c, 1, 56, 0
1, 4368, Note_on_c, 0, 78, 80
1, 4368, Note_on_c, 1, 59, 64
1, 4368, Note_on_c, 1, 56, 64
1, 4383, Note_on_c, 0, 78, 0
1, 4384, Note_on_c, 0, 76, 80
1, 4399, Note_on_c, 0, 76, 0
1, 4400, Note_on_c, 0, 74, 80
1, 4415, Note_on_c, 0, 74, 0
1, 4415, Note_on_c, 1, 59, 0
1, 4415, Note_on_c, 1, 56, 0
1, 4416, Note_on_c, 0, 73, 80
1, 4416, Note_on_c, 1, 57, 64
1, 4431, Note_on_c, 0, 73, 0
1, 4432, Note_on_c, 0, 76, 80
1, 4447, Note_on_c, 0, 76, 0
1, 4448, Note_on_c, 0, 68, 80
1, 4463, Note_on_c, 0, 68, 0
1, 4464, Note_on_c, 0, 69, 80
1, 4505, Note_on_c, 1, 57, 0
1, 4509, Note_on_c, 0, 69, 0
1, 4512, Note_on_c, 1, 45, 75
1, 4527, Note_on_c, 1, 45, 0
1, 4528, Note_on_c, 1, 49, 75
1, 4543, Note_on_c, 1, 49, 0
1, 4544, Note_on_c, 1, 52, 75
1, 4559, Note_on_c, 1, 52, 0
1, 4560, Note_on_c, 1, 47, 75
1, 4575, Note_on_c, 1, 47, 0
1, 4576, Note_on_c, 1, 50, 75
1, 4591, Note_on_c, 1, 50, 0
1, 4592, Note_on_c, 1, 56, 75
1, 4607, Note_on_c, 1, 56, 0
1, 4608, Note_on_c, 0, 69, 80
1, 4608, Note_on_c, 1, 57, 75
1, 4623, Note_on_c, 0, 69, 0
1, 4624, Note_on_c, 0, 73, 80
1, 4639, Note_on_c, 0, 73, 0
1, 4640, Note_on_c, 0, 69, 80
1, 4655, Note_on_c, 0, 69, 0
1, 4656, Note_on_c, 0, 76, 80
1, 4671, Note_on_c, 0, 76, 0
1, 4672, Note_on_c, 0, 73, 80
1, 4687, Note_on_c, 0, 73, 0
1, 4688, Note_on_c, 0, 69, 80
1, 4697, Note_on_c, 1, 57, 0
1, 4703, Note_on_c, 0, 69, 0
1, 4704, Note_on_c, 0, 74, 80
1, 4719, Note_on_c, 0, 74, 0
1, 4720, Note_on_c, 0, 71, 80
1, 4735, Note_on_c, 0, 71, 0
1, 4736, Note_on_c, 0, 68, 80
1, 4751, Note_on_c, 0, 68, 0
1, 4752, Note_on_c, 0, 62, 80
1, 4752, Note_on_c, 1, 59, 75
1, 4752, Note_on_c, 1, 52, 75
1, 4767, Note_on_c, 0, 62, 0
1, 4768, Note_on_c, 0, 68, 80
1, 4783, Note_on_c, 0, 68, 0
1, 4784, Note_on_c, 0, 62, 80
1, 4797, Note_on_c, 1, 59, 0
1, 4797, Note_on_c, 1, 52, 0
1, 4799, Note_on_c, 0, 62, 0
1, 4800, Note_on_c, 0, 61, 80
1, 4800, Note_on_c, 1, 57, 75
1, 4800, Note_on_c, 1, 45, 75
1, 4815, Note_on_c, 0, 61, 0
1, 4816, Note_on_c, 0, 64, 80
1, 4831, Note_on_c, 0, 64, 0
1, 4832, Note_on_c, 0, 69, 80
1, 4847, Note_on_c, 0, 69, 0
1, 4848, Note_on_c, 0, 73, 80
1, 4863, Note_on_c, 0, 73, 0
1, 4864, Note_on_c, 0, 76, 80
1, 4879, Note_on_c, 0, 76, 0
1, 4880, Note_on_c, 0, 69, 80
1, 4889, Note_on_c, 1, 57, 0
1, 4889, Note_on_c, 1, 45, 0
1, 4895, Note_on_c, 0, 69, 0
1, 4896, Note_on_c, 0, 74, 80
1, 4911, Note_on_c, 0, 74, 0
1, 4912, Note_on_c, 0, 71, 80
1, 4927, Note_on_c, 0, 71, 0
1, 4928, Note_on_c, 0, 68, 80
1, 4943, Note_on_c, 0, 68, 0
1, 4944, Note_on_c, 0, 62, 80
1, 4944, Note_on_c, 1, 59, 75
1, 4944, Note_on_c, 1, 52, 75
1, 4959, Note_on_c, 0, 62, 0
1, 4960, Note_on_c, 0, 68, 80
1, 4975, Note_on_c, 0, 68, 0
1, 4976, Note_on_c, 0, 62, 80
1, 4989, Note_on_c, 1, 59, 0
1, 4989, Note_on_c, 1, 52, 0
1, 4991, Note_on_c, 0, 62, 0
1, 4992, Note_on_c, 0, 61, 75
1, 4992, Note_on_c, 1, 57, 75
1, 4992, Note_on_c, 1, 45, 75
1, 5007, Note_on_c, 0, 61, 0
1, 5008, Note_on_c, 0, 64, 75
1, 5023, Note_on_c, 0, 64, 0
1, 5024, Note_on_c, 0, 69, 75
1, 5037, Note_on_c, 1, 57, 0
1, 5037, Note_on_c, 1, 45, 0
1, 5039, Note_on_c, 0, 69, 0
1, 5040, Note_on_c, 0, 64, 76
1, 5040, Note_on_c, 1, 61, 70
1, 5040, Note_on_c, 1, 57, 70
1, 5055, Note_on_c, 0, 64, 0
1, 5056, Note_on_c, 0, 69, 76
1, 5071, Note_on_c, 0, 69, 0
1, 5072, Note_on_c, 0, 73, 76
1, 5085, Note_on_c, 1, 61, 0
1, 5085, Note_on_c, 1, 57, 0
1, 5087, Note_on_c, 0, 73, 0
1, 5088, Note_on_c, 0, 69, 77
1, 5088, Note_on_c, 1, 61, 71
1, 5088, Note_on_c, 1, 57, 71
1, 5103, Note_on_c, 0, 69, 0
1, 5104, Note_on_c, 0, 73, 77
1, 5119, Note_on_c, 0, 73, 0
1, 5120, Note_on_c, 0, 76, 78
1, 5133, Note_on_c, 1, 61, 0
1, 5133, Note_on_c, 1, 57, 0
1, 5135, Note_on_c, 0, 76, 0
1, 5136, Note_on_c, 0, 73, 78
1, 5136, Note_on_c, 1, 61, 73
1, 5136, Note_on_c, 1, 57, 73
1, 5151, Note_on_c, 0, 73, 0
1, 5152, Note_on_c, 0, 76, 80
1, 5167, Note_on_c, 0, 76, 0
1, 5168, Note_on_c, 0, 81, 80
1, 5181, Note_on_c, 1, 61, 0
1, 5181, Note_on_c, 1, 57, 0
1, 5183, Note_on_c, 0, 81, 0
1, 5184, Note_on_c, 0, 64, 75
1, 5199, Note_on_c, 0, 64, 0
1, 5200, Note_on_c, 0, 68, 75
1, 5215, Note_on_c, 0, 68, 0
1, 5216, Note_on_c, 0, 71, 75
1, 5231, Note_on_c, 0, 71, 0
1, 5232, Note_on_c, 0, 68, 75
1, 5232, Note_on_c, 1, 56, 72
1, 5232, Note_on_c, 1, 52, 72
1, 5247, Note_on_c, 0, 68, 0
1, 5248, Note_on_c, 0, 71, 76
1, 5263, Note_on_c, 0, 71, 0
1, 5264, Note_on_c, 0, 76, 76
1, 5277, Note_on_c, 1, 56, 0
1, 5277, Note_on_c, 1, 52, 0
1, 5279, Note_on_c, 0, 76, 0
1, 5280, Note_on_c, 0, 71, 76
1, 5280, Note_on_c, 1, 56, 74
1, 5280, Note_on_c, 1, 52, 74
1, 5295, Note_on_c, 0, 71, 0
1, 5296, Note_on_c, 0, 76, 77
1, 5311, Note_on_c, 0, 76, 0
1, 5312, Note_on_c, 0, 80, 77
1, 5325, Note_on_c, 1, 56, 0
1, 5325, Note_on_c, 1, 52, 0
1, 5327, Note_on_c, 0, 80, 0
1, 5328, Note_on_c, 0, 76, 77
1, 5328, Note_on_c, 1, 56, 76
1, 5328, Note_on_c, 1, 52, 76
1, 5343, Note_on_c, 0, 76, 0
1, 5344, Note_on_c, 0, 80, 77
1, 5359, Note_on_c, 0, 80, 0
1, 5360, Note_on_c, 0, 83, 78
1, 5373, Note_on_c, 1, 56, 0
1, 5373, Note_on_c, 1, 52, 0
1, 5375, Note_on_c, 0, 83, 0
1, 5376, Note_on_c, 0, 81, 78
1, 5376, Note_on_c, 1, 54, 78
1, 5383, Note_on_c, 0, 81, 0
1, 5392, Note_on_c, 0, 81, 78
1, 5407, Note_on_c, 0, 81, 0
1, 5408, Note_on_c, 0, 80, 79
1, 5421, Note_on_c, 1, 54, 0
1, 5423, Note_on_c, 0, 80, 0
1, 5424, Note_on_c, 0, 78, 79
1, 5424, Note_on_c, 1, 57, 80
1, 5431, Note_on_c, 0, 78, 0
1, 5440, Note_on_c, 0, 78, 79
1, 5455, Note_on_c, 0, 78, 0
1, 5456, Note_on_c, 0, 76, 80
1, 5469, Note_on_c, 1, 57, 0
1, 5471, Note_on_c, 0, 76, 0
1, 5472, Note_on_c, 0, 75, 79
1, 5472, Note_on_c, 1, 59, 78
1, 5479, Note_on_c, 0, 75, 0
1, 5488, Note_on_c, 0, 75, 79
1, 5503, Note_on_c, 0, 75, 0
1, 5504, Note_on_c, 0, 73, 79
1, 5517, Note_on_c, 1, 59, 0
1, 5519, Note_on_c, 0, 73, 0
1, 5520, Note_on_c, 0, 71, 78
1, 5520, Note_on_c, 1, 63, 77
1, 5527, Note_on_c, 0, 71, 0
1, 5536, Note_on_c, 0, 71, 78
1, 5551, Note_on_c, 0, 71, 0
1, 5552, Note_on_c, 0, 69, 78
1, 5565, Note_on_c, 1, 63, 0
1, 5567, Note_on_c, 0, 69, 0
1, 5568, Note_on_c, 0, 68, 78
1, 5568, Note_on_c, 1, 64, 76
1, 5583, Note_on_c, 0, 68, 0
1, 5584, Note_on_c, 0, 66, 77
1, 5599, Note_on_c, 0, 66, 0
1, 5600, Note_on_c, 0, 64, 77
1, 5613, Note_on_c, 1, 64, 0
1, 5615, Note_on_c, 0, 64, 0
1, 5616, Note_on_c, 0, 71, 75
1, 5616, Note_on_c, 1, 56, 75
1, 5631, Note_on_c, 0, 71, 0
1, 5632, Note_on_c, 0, 73, 75
1, 5647, Note_on_c, 0, 73, 0
1, 5648, Note_on_c, 0, 74, 75
1, 5661, Note_on_c, 1, 56, 0
1, 5663, Note_on_c, 0, 74, 0
1, 5664, Note_on_c, 0, 73, 75
1, 5664, Note_on_c, 1, 57, 75
1, 5679, Note_on_c, 0, 73, 0
1, 5680, Note_on_c, 0, 71, 75
1, 5695, Note_on_c, 0, 71, 0
1, 5696, Note_on_c, 0, 69, 75
1, 5711, Note_on_c, 0, 69, 0
1, 5712, Note_on_c, 0, 81, 75
1, 5727, Note_on_c, 0, 81, 0
1, 5728, Note_on_c, 0, 80, 73
1, 5743, Note_on_c, 0, 80, 0
1, 5744, Note_on_c, 0, 78, 72
1, 5753, Note_on_c, 1, 57, 0
1, 5759, Note_on_c, 0, 78, 0
1, 5760, Note_on_c, 0, 76, 70
1, 5760, Note_on_c, 1, 59, 70
1, 5805, Note_on_c, 1, 59, 0
1, 5808, Note_on_c, 0, 76, 0
1, 5808, Note_on_c, 0, 75, 70
1, 5808, Note_on_c, 1, 47, 70
1, 5849, Note_on_c, 0, 75, 0
1, 5853, Note_on_c, 1, 47, 0
1, 5856, Note_on_c, 0, 73, 70
1, 5856, Note_on_c, 1, 59, 70
1, 5863, Note_on_c, 0, 73, 0
1, 5863, Note_on_c, 0, 71, 70
1, 5870, Note_on_c, 0, 71, 0
1, 5870, Note_on_c, 0, 73, 70
1, 5871, Note_on_c, 1, 59, 0
1, 5872, Note_on_c, 1, 63, 70
1, 5877, Note_on_c, 0, 73, 0
1, 5877, Note_on_c, 0, 71, 70
1, 5884, Note_on_c, 0, 71, 0
1, 5884, Note_on_c, 0, 73, 70
1, 5887, Note_on_c, 1, 63, 0
1, 5888, Note_on_c, 1, 66, 70
1, 5891, Note_on_c, 0, 73, 0
1, 5891, Note_on_c, 0, 71, 70
1, 5898, Note_on_c, 0, 71, 0
1, 5898, Note_on_c, 0, 73, 70
1, 5903, Note_on_c, 1, 66, 0
1, 5904, Note_on_c, 1, 63, 70
1, 5905, Note_on_c, 0, 73, 0
1, 5905, Note_on_c, 0, 71, 70
1, 5912, Note_on_c, 0, 71, 0
1, 5912, Note_on_c, 0, 73, 70
1, 5919, Note_on_c, 0, 73, 0
1, 5919, Note_on_c, 0, 71, 70
1, 5919, Note_on_c, 1, 63, 0
1, 5920, Note_on_c, 1, 66, 70
1, 5926, Note_on_c, 0, 71, 0
1, 5926, Note_on_c, 0, 73, 70
1, 5933, Note_on_c, 0, 73, 0
1, 5933, Note_on_c, 0, 71, 70
1, 5935, Note_on_c, 1, 66, 0
1, 5936, Note_on_c, 1, 69, 70
1, 5940, Note_on_c, 0, 71, 0
1, 5940, Note_on_c, 0, 73, 70
1, 5946, Note_on_c, 0, 73, 0
1, 5946, Note_on_c, 0, 71, 70
1, 5951, Note_on_c, 1, 69, 0
1, 5952, Note_on_c, 1, 68, 70
1, 5967, Note_on_c, 0, 71, 0
1, 5968, Note_on_c, 0, 83, 69
1, 5983, Note_on_c, 0, 83, 0
1, 5984, Note_on_c, 0, 81, 68
1, 5999, Note_on_c, 0, 81, 0
1, 6000, Note_on_c, 0, 80, 67
1, 6015, Note_on_c, 0, 80, 0
1, 6016, Note_on_c, 0, 78, 67
1, 6031, Note_on_c, 0, 78, 0
1, 6032, Note_on_c, 0, 76, 66
1, 6041, Note_on_c, 1, 68, 0
1, 6047, Note_on_c, 0, 76, 0
1, 6048, Note_on_c, 0, 73, 64
1, 6048, Note_on_c, 1, 59, 64
1, 6055, Note_on_c, 0, 73, 0
1, 6055, Note_on_c, 0, 71, 64
1, 6062, Note_on_c, 0, 71, 0
1, 6062, Note_on_c, 0, 73, 64
1, 6063, Note_on_c, 1, 59, 0
1, 6064, Note_on_c, 1, 63, 64
1, 6069, Note_on_c, 0, 73, 0
1, 6069, Note_on_c, 0, 71, 64
1, 6076, Note_on_c, 0, 71, 0
1, 6076, Note_on_c, 0, 73, 64
1, 6079, Note_on_c, 1, 63, 0
1, 6080, Note_on_c, 1, 66, 64
1, 6083, Note_on_c, 0, 73, 0
1, 6083, Note_on_c, 0, 71, 64
1, 6090, Note_on_c, 0, 71, 0
1, 6090, Note_on_c, 0, 73, 64
1, 6095, Note_on_c, 1, 66, 0
1, 6096, Note_on_c, 1, 63, 64
1, 6097, Note_on_c, 0, 73, 0
1, 6097, Note_on_c, 0, 71, 64
1, 6104, Note_on_c, 0, 71, 0
1, 6104, Note_on_c, 0, 73, 64
1, 6111, Note_on_c, 0, 73, 0
1, 6111, Note_on_c, 0, 71, 64
1, 6111, Note_on_c, 1, 63, 0
1, 6112, Note_on_c, 1, 66, 64
1, 6118, Note_on_c, 0, 71, 0
1, 6118, Note_on_c, 0, 73, 64
1, 6125, Note_on_c, 0, 73, 0
1, 6125, Note_on_c, 0, 71, 64
1, 6127, Note_on_c, 1, 66, 0
1, 6128, Note_on_c, 1, 69, 64
1, 6132, Note_on_c, 0, 71, 0
1, 6132, Note_on_c, 0, 73, 64
1, 6138, Note_on_c, 0, 73, 0
1, 6138, Note_on_c, 0, 71, 64
1, 6143, Note_on_c, 1, 69, 0
1, 6144, Note_on_c, 1, 68, 64
1, 6159, Note_on_c, 0, 71, 0
1, 6160, Note_on_c, 0, 83, 64
1, 6175, Note_on_c, 0, 83, 0
1, 6176, Note_on_c, 0, 81, 64
1, 6191, Note_on_c, 0, 81, 0
1, 6192, Note_on_c, 0, 80, 64
1, 6207, Note_on_c, 0, 80, 0
1, 6208, Note_on_c, 0, 78, 64
1, 6223, Note_on_c, 0, 78, 0
1, 6224, Note_on_c, 0, 76, 64
1, 6233, Note_on_c, 1, 68, 0
1, 6239, Note_on_c, 0, 76, 0
1, 6240, Note_on_c, 0, 85, 80
1, 6240, Note_on_c, 1, 57, 64
1, 6255, Note_on_c, 1, 57, 0
1, 6256, Note_on_c, 1, 61, 64
1, 6271, Note_on_c, 1, 61, 0
1, 6272, Note_on_c, 1, 66, 64
1, 6287, Note_on_c, 1, 66, 0
1, 6288, Note_on_c, 0, 85, 0
1, 6288, Note_on_c, 0, 78, 64
1, 6288, Note_on_c, 1, 69, 64
1, 6303, Note_on_c, 0, 78, 0
1, 6303, Note_on_c, 1, 69, 0
1, 6304, Note_on_c, 0, 80, 64
1, 6304, Note_on_c, 1, 68, 64
1, 6319, Note_on_c, 0, 80, 0
1, 6319, Note_on_c, 1, 68, 0
1, 6320, Note_on_c, 0, 81, 64
1, 6320, Note_on_c, 1, 66, 64
1, 6335, Note_on_c, 0, 81, 0
1, 6335, Note_on_c, 1, 66, 0
1, 6336, Note_on_c, 0, 83, 86
1, 6336, Note_on_c, 1, 56, 70
1, 6351, Note_on_c, 1, 56, 0
1, 6352, Note_on_c, 1, 59, 70
1, 6367, Note_on_c, 1, 59, 0
1, 6368, Note_on_c, 1, 64, 70
1, 6383, Note_on_c, 1, 64, 0
1, 6384, Note_on_c, 0, 83, 0
1, 6384, Note_on_c, 0, 76, 70
1, 6384, Note_on_c, 1, 68, 70
1, 6399, Note_on_c, 0, 76, 0
1, 6399, Note_on_c, 1, 68, 0
1, 6400, Note_on_c, 0, 78, 70
1, 6400, Note_on_c, 1, 66, 70
1, 6415, Note_on_c, 0, 78, 0
1, 6415, Note_on_c, 1, 66, 0
1, 6416, Note_on_c, 0, 80, 70
1, 6416, Note_on_c, 1, 64, 70
1, 6431, Note_on_c, 0, 80, 0
1, 6431, Note_on_c, 1, 64, 0
1, 6432, Note_on_c, 0, 81, 70
1, 6432, Note_on_c, 1, 63, 70
1, 6447, Note_on_c, 0, 81, 0
1, 6448, Note_on_c, 0, 80, 70
1, 6463, Note_on_c, 0, 80, 0
1, 6464, Note_on_c, 0, 78, 70
1, 6477, Note_on_c, 1, 63, 0
1, 6479, Note_on_c, 0, 78, 0
1, 6480, Note_on_c, 0, 80, 70
1, 6480, Note_on_c, 1, 64, 70
1, 6495, Note_on_c, 0, 80, 0
1, 6495, Note_on_c, 1, 64, 0
1, 6496, Note_on_c, 0, 78, 71
1, 6496, Note_on_c, 1, 66, 70
1, 6511, Note_on_c, 0, 78, 0
1, 6511, Note_on_c, 1, 66, 0
1, 6512, Note_on_c, 0, 76, 71
1, 6512, Note_on_c, 1, 68, 70
1, 6527, Note_on_c, 0, 76, 0
1, 6527, Note_on_c, 1, 68, 0
1, 6528, Note_on_c, 0, 75, 71
1, 6528, Note_on_c, 1, 69, 70
1, 6543, Note_on_c, 0, 75, 0
1, 6543, Note_on_c, 1, 69, 0
1, 6544, Note_on_c, 0, 76, 72
1, 6544, Note_on_c, 1, 68, 70
1, 6559, Note_on_c, 0, 76, 0
1, 6559, Note_on_c, 1, 68, 0
1, 6560, Note_on_c, 0, 78, 72
1, 6560, Note_on_c, 1, 66, 70
1, 6575, Note_on_c, 0, 78, 0
1, 6575, Note_on_c, 1, 66, 0
1, 6576, Note_on_c, 0, 76, 72
1, 6576, Note_on_c, 1, 68, 70
1, 6591, Note_on_c, 0, 76, 0
1, 6591, Note_on_c, 1, 68, 0
1, 6592, Note_on_c, 0, 78, 73
1, 6592, Note_on_c, 1, 66, 70
1, 6607, Note_on_c, 0, 78, 0
1, 6607, Note_on_c, 1, 66, 0
1, 6608, Note_on_c, 0, 80, 73
1, 6608, Note_on_c, 1, 64, 70
1, 6623, Note_on_c, 0, 80, 0
1, 6623, Note_on_c, 1, 64, 0
1, 6624, Note_on_c, 0, 81, 75
1, 6624, Note_on_c, 1, 63, 70
1, 6639, Note_on_c, 0, 81, 0
1, 6640, Note_on_c, 0, 80, 75
1, 6655, Note_on_c, 0, 80, 0
1, 6656, Note_on_c, 0, 78, 76
1, 6669, Note_on_c, 1, 63, 0
1, 6671, Note_on_c, 0, 78, 0
1, 6672, Note_on_c, 0, 80, 76
1, 6672, Note_on_c, 1, 64, 72
1, 6687, Note_on_c, 0, 80, 0
1, 6688, Note_on_c, 0, 78, 77
1, 6703, Note_on_c, 0, 78, 0
1, 6704, Note_on_c, 0, 76, 78
1, 6717, Note_on_c, 1, 64, 0
1, 6719, Note_on_c, 0, 76, 0
1, 6720, Note_on_c, 0, 81, 80
1, 6720, Note_on_c, 1, 63, 80
1, 6720, Note_on_c, 1, 51, 80
1, 6735, Note_on_c, 0, 81, 0
1, 6736, Note_on_c, 0, 78, 80
1, 6751, Note_on_c, 0, 78, 0
1, 6752, Note_on_c, 0, 71, 80
1, 6765, Note_on_c, 1, 63, 0
1, 6765, Note_on_c, 1, 51, 0
1, 6767, Note_on_c, 0, 71, 0
1, 6768, Note_on_c, 0, 80, 80
1, 6768, Note_on_c, 1, 64, 80
1, 6768, Note_on_c, 1, 52, 80
1, 6783, Note_on_c, 0, 80, 0
1, 6784, Note_on_c, 0, 76, 80
1, 6799, Note_on_c, 0, 76, 0
1, 6800, Note_on_c, 0, 71, 80
1, 6813, Note_on_c, 1, 64, 0
1, 6813, Note_on_c, 1, 52, 0
1, 6815, Note_on_c, 0, 71, 0
1, 6816, Note_on_c, 0, 78, 75
1, 6816, Note_on_c, 1, 61, 64
1, 6816, Note_on_c, 1, 57, 64
1, 6822, Note_on_c, 0, 78, 0
1, 6822, Note_on_c, 0, 80, 75
1, 6828, Note_on_c, 0, 80, 0
1, 6828, Note_on_c, 0, 78, 75
1, 6834, Note_on_c, 0, 78, 0
1, 6834, Note_on_c, 0, 77, 75
1, 6849, Note_on_c, 0, 77, 0
1, 6849, Note_on_c, 0, 78, 75
1, 6861, Note_on_c, 1, 61, 0
1, 6861, Note_on_c, 1, 57, 0
1, 6864, Note_on_c, 0, 78, 0
1, 6864, Note_on_c, 0, 78, 75
1, 6864, Note_on_c, 1, 61, 64
1, 6864, Note_on_c, 1, 57, 64
1, 6870, Note_on_c, 0, 78, 0
1, 6870, Note_on_c, 0, 80, 75
1, 6876, Note_on_c, 0, 80, 0
1, 6876, Note_on_c, 0, 78, 75
1, 6882, Note_on_c, 0, 78, 0
1, 6882, Note_on_c, 0, 77, 75
1, 6897, Note_on_c, 0, 77, 0
1, 6897, Note_on_c, 0, 78, 75
1, 6909, Note_on_c, 1, 61, 0
1, 6909, Note_on_c, 1, 57, 0
1, 6912, Note_on_c, 0, 78, 0
1, 6912, Note_on_c, 0, 83, 75
1, 6912, Note_on_c, 1, 56, 75
1, 6912, Note_on_c, 1, 59, 64
1, 6927, Note_on_c, 0, 83, 0
1, 6928, Note_on_c, 0, 80, 75
1, 6943, Note_on_c, 0, 80, 0
1, 6944, Note_on_c, 0, 76, 75
1, 6957, Note_on_c, 1, 59, 0
1, 6959, Note_on_c, 0, 76, 0
1, 6960, Note_on_c, 0, 71, 75
1, 6975, Note_on_c, 0, 71, 0
1, 6976, Note_on_c, 0, 68, 75
1, 6979, Note_on_c, 1, 56, 0
1, 6984, Note_on_c, 1, 61, 75
1, 6991, Note_on_c, 0, 68, 0
1, 6992, Note_on_c, 0, 64, 75
1, 7007, Note_on_c, 0, 64, 0
1, 7007, Note_on_c, 1, 61, 0
1, 7008, Note_on_c, 0, 68, 75
1, 7008, Note_on_c, 1, 59, 75
1, 7015, Note_on_c, 0, 68, 0
1, 7015, Note_on_c, 0, 66, 75
1, 7022, Note_on_c, 0, 66, 0
1, 7022, Note_on_c, 0, 68, 75
1, 7029, Note_on_c, 0, 68, 0
1, 7029, Note_on_c, 0, 66, 75
1, 7036, Note_on_c, 0, 66, 0
1, 7036, Note_on_c, 0, 68, 75
1, 7043, Note_on_c, 0, 68, 0
1, 7043, Note_on_c, 0, 66, 75
1, 7050, Note_on_c, 0, 66, 0
1, 7050, Note_on_c, 0, 68, 75
1, 7053, Note_on_c, 1, 59, 0
1, 7056, Note_on_c, 1, 47, 75
1, 7057, Note_on_c, 0, 68, 0
1, 7057, Note_on_c, 0, 66, 75
1, 7064, Note_on_c, 0, 66, 0
1, 7064, Note_on_c, 0, 68, 75
1, 7071, Note_on_c, 0, 68, 0
1, 7071, Note_on_c, 0, 66, 75
1, 7078, Note_on_c, 0, 66, 0
1, 7078, Note_on_c, 0, 64, 75
1, 7092, Note_on_c, 0, 64, 0
1, 7092, Note_on_c, 0, 66, 75
1, 7101, Note_on_c, 1, 47, 0
1, 7104, Note_on_c, 0, 66, 0
1, 7104, Note_on_c, 0, 64, 75
1, 7104, Note_on_c, 1, 52, 75
1, 7149, Note_on_c, 0, 64, 0
1, 7152, Note_on_c, 0, 76, 70
1, 7152, Note_on_c, 1, 56, 64
1, 7159, Note_on_c, 0, 76, 0
1, 7168, Note_on_c, 0, 76, 70
1, 7183, Note_on_c, 0, 76, 0
1, 7184, Note_on_c, 0, 71, 70
1, 7197, Note_on_c, 1, 56, 0
1, 7199, Note_on_c, 0, 71, 0
1, 7200, Note_on_c, 0, 73, 70
1, 7200, Note_on_c, 1, 57, 64
1, 7207, Note_on_c, 0, 73, 0
1, 7216, Note_on_c, 0, 73, 70
1, 7231, Note_on_c, 0, 73, 0
1, 7232, Note_on_c, 0, 69, 70
1, 7245, Note_on_c, 1, 57, 0
1, 7247, Note_on_c, 0, 69, 0
1, 7248, Note_on_c, 0, 66, 70
1, 7248, Note_on_c, 1, 57, 64
1, 7263, Note_on_c, 0, 66, 0
1, 7264, Note_on_c, 0, 71, 70
1, 7279, Note_on_c, 0, 71, 0
1, 7280, Note_on_c, 0, 63, 70
1, 7293, Note_on_c, 1, 57, 0
1, 7295, Note_on_c, 0, 63, 0
1, 7296, Note_on_c, 0, 64, 70
1, 7296, Note_on_c, 1, 56, 64
1, 7341, Note_on_c, 0, 64, 0
1, 7341, Note_on_c, 1, 56, 0
1, 7344, Note_on_c, 0, 76, 70
1, 7344, Note_on_c, 1, 56, 64
1, 7351, Note_on_c, 0, 76, 0
1, 7360, Note_on_c, 0, 76, 70
1, 7375, Note_on_c, 0, 76, 0
1, 7376, Note_on_c, 0, 71, 70
1, 7389, Note_on_c, 1, 56, 0
1, 7391, Note_on_c, 0, 71, 0
1, 7392, Note_on_c, 0, 73, 70
1, 7392, Note_on_c, 1, 57, 64
1, 7399, Note_on_c, 0, 73, 0
1, 7408, Note_on_c, 0, 73, 70
1, 7423, Note_on_c, 0, 73, 0
1, 7424, Note_on_c, 0, 69, 70
1, 7437, Note_on_c, 1, 57, 0
1, 7439, Note_on_c, 0, 69, 0
1, 7440, Note_on_c, 0, 81, 70
1, 7440, Note_on_c, 1, 54, 64
1, 7447, Note_on_c, 0, 81, 0
1, 7456, Note_on_c, 0, 81, 70
1, 7471, Note_on_c, 0, 81, 0
1, 7472, Note_on_c, 0, 75, 70
1, 7473, Note_on_c, 1, 52, 0
1, 7485, Note_on_c, 1, 54, 0
1, 7487, Note_on_c, 0, 75, 0
1, 7488, Note_on_c, 0, 78, 70
1, 7488, Note_on_c, 1, 52, 75
1, 7494, Note_on_c, 0, 78, 0
1, 7494, Note_on_c, 0, 76, 70
1, 7500, Note_on_c, 0, 76, 0
1, 7500, Note_on_c, 0, 75, 70
1, 7506, Note_on_c, 0, 75, 0
1, 7506, Note_on_c, 0, 76, 70
1, 7533, Note_on_c, 1, 52, 0
1, 7536, Note_on_c, 1, 64, 75
1, 7614, Note_on_c, 1, 64, 0
1, 7621, Note_on_c, 0, 76, 0
1, 7680, Note_on_c, 0, 76, 80
1, 7686, Note_on_c, 0, 76, 0
1, 7686, Note_on_c, 0, 75, 80
1, 7692, Note_on_c, 0, 75, 0
1, 7692, Note_on_c, 0, 76, 80
1, 7696, Note_on_c, 1, 64, 75
1, 7711, Note_on_c, 1, 64, 0
1, 7712, Note_on_c, 1, 68, 75
1, 7723, Note_on_c, 0, 76, 0
1, 7727, Note_on_c, 1, 68, 0
1, 7728, Note_on_c, 0, 76, 80
1, 7734, Note_on_c, 0, 76, 0
1, 7734, Note_on_c, 0, 75, 80
1, 7740, Note_on_c, 0, 75, 0
1, 7740, Note_on_c, 0, 76, 80
1, 7744, Note_on_c, 1, 66, 76
1, 7759, Note_on_c, 1, 66, 0
1, 7760, Note_on_c, 1, 69, 76
1, 7771, Note_on_c, 0, 76, 0
1, 7775, Note_on_c, 1, 69, 0
1, 7776, Note_on_c, 0, 76, 80
1, 7782, Note_on_c, 0, 76, 0
1, 7782, Note_on_c, 0, 75, 80
1, 7788, Note_on_c, 0, 75, 0
1, 7788, Note_on_c, 0, 76, 80
1, 7792, Note_on_c, 1, 68, 77
1, 7807, Note_on_c, 1, 68, 0
1, 7808, Note_on_c, 1, 71, 78
1, 7819, Note_on_c, 0, 76, 0
1, 7823, Note_on_c, 1, 71, 0
1, 7824, Note_on_c, 0, 76, 80
1, 7830, Note_on_c, 0, 76, 0
1, 7830, Note_on_c, 0, 75, 80
1, 7836, Note_on_c, 0, 75, 0
1, 7836, Note_on_c, 0, 76, 80
1, 7840, Note_on_c, 1, 69, 79
1, 7855, Note_on_c, 1, 69, 0
1, 7856, Note_on_c, 1, 73, 79
1, 7867, Note_on_c, 0, 76, 0
1, 7871, Note_on_c, 1, 73, 0
1, 7872, Note_on_c, 0, 78, 80
1, 7872, Note_on_c, 1, 71, 79
1, 7879, Note_on_c, 0, 78, 0
1, 7879, Note_on_c, 0, 76, 80
1, 7886, Note_on_c, 0, 76, 0
1, 7886, Note_on_c, 0, 78, 80
1, 7887, Note_on_c, 1, 71, 0
1, 7888, Note_on_c, 1, 74, 79
1, 7893, Note_on_c, 0, 78, 0
1, 7893, Note_on_c, 0, 76, 80
1, 7900, Note_on_c, 0, 76, 0
1, 7900, Note_on_c, 0, 78, 80
1, 7903, Note_on_c, 1, 74, 0
1, 7904, Note_on_c, 1, 71, 79
1, 7907, Note_on_c, 0, 78, 0
1, 7907, Note_on_c, 0, 76, 80
1, 7914, Note_on_c, 0, 76, 0
1, 7914, Note_on_c, 0, 78, 80
1, 7919, Note_on_c, 1, 71, 0
1, 7920, Note_on_c, 1, 68, 78
1, 7921, Note_on_c, 0, 78, 0
1, 7921, Note_on_c, 0, 76, 80
1, 7928, Note_on_c, 0, 76, 0
1, 7928, Note_on_c, 0, 78, 80
1, 7935, Note_on_c, 0, 78, 0
1, 7935, Note_on_c, 0, 76, 80
1, 7935, Note_on_c, 1, 68, 0
1, 7936, Note_on_c, 1, 71, 78
1, 7942, Note_on_c, 0, 76, 0
1, 7942, Note_on_c, 0, 78, 80
1, 7949, Note_on_c, 0, 78, 0
1, 7949, Note_on_c, 0, 76, 80
1, 7951, Note_on_c, 1, 71, 0
1, 7952, Note_on_c, 1, 68, 78
1, 7956, Note_on_c, 0, 76, 0
1, 7956, Note_on_c, 0, 78, 80
1, 7963, Note_on_c, 0, 78, 0
1, 7963, Note_on_c, 0, 76, 80
1, 7967, Note_on_c, 1, 68, 0
1, 7968, Note_on_c, 1, 64, 77
1, 7970, Note_on_c, 0, 76, 0
1, 7970, Note_on_c, 0, 78, 80
1, 7977, Note_on_c, 0, 78, 0
1, 7977, Note_on_c, 0, 76, 80
1, 7984, Note_on_c, 0, 76, 0
1, 7984, Note_on_c, 0, 78, 80
1, 7991, Note_on_c, 0, 78, 0
1, 7991, Note_on_c, 0, 76, 80
1, 7998, Note_on_c, 0, 76, 0
1, 7998, Note_on_c, 0, 78, 80
1, 8005, Note_on_c, 0, 78, 0
1, 8005, Note_on_c, 0, 76, 80
1, 8012, Note_on_c, 0, 76, 0
1, 8012, Note_on_c, 0, 78, 80
1, 8013, Note_on_c, 1, 64, 0
1, 8016, Note_on_c, 1, 52, 80
1, 8016, Note_on_c, 1, 40, 80
1, 8019, Note_on_c, 0, 78, 0
1, 8019, Note_on_c, 0, 76, 80
1, 8026, Note_on_c, 0, 76, 0
1, 8026, Note_on_c, 0, 78, 80
1, 8033, Note_on_c, 0, 78, 0
1, 8033, Note_on_c, 0, 76, 80
1, 8040, Note_on_c, 0, 76, 0
1, 8040, Note_on_c, 0, 78, 80
1, 8046, Note_on_c, 0, 78, 0
1, 8046, Note_on_c, 0, 76, 80
1, 8052, Note_on_c, 0, 76, 0
1, 8052, Note_on_c, 0, 78, 80
1, 8058, Note_on_c, 0, 78, 0
1, 8058, Note_on_c, 0, 76, 80
1, 8061, Note_on_c, 1, 52, 0
1, 8061, Note_on_c, 1, 40, 0
1, 8064, Note_on_c, 0, 76, 0
1, 8064, Note_on_c, 0, 78, 80
1, 8064, Note_on_c, 1, 33, 80
1, 8071, Note_on_c, 0, 78, 0
1, 8071, Note_on_c, 0, 76, 80
1, 8078, Note_on_c, 0, 76, 0
1, 8078, Note_on_c, 0, 78, 80
1, 8079, Note_on_c, 1, 33, 0
1, 8080, Note_on_c, 1, 45, 80
1, 8085, Note_on_c, 0, 78, 0
1, 8085, Note_on_c, 0, 76, 80
1, 8092, Note_on_c, 0, 76, 0
1, 8092, Note_on_c, 0, 78, 80
1, 8095, Note_on_c, 1, 45, 0
1, 8096, Note_on_c, 1, 49, 81
1, 8099, Note_on_c, 0, 78, 0
1, 8099, Note_on_c, 0, 76, 80
1, 8106, Note_on_c, 0, 76, 0
1, 8106, Note_on_c, 0, 78, 80
1, 8111, Note_on_c, 1, 49, 0
1, 8112, Note_on_c, 1, 52, 82
1, 8113, Note_on_c, 0, 78, 0
1, 8113, Note_on_c, 0, 76, 80
1, 8120, Note_on_c, 0, 76, 0
1, 8120, Note_on_c, 0, 78, 80
1, 8127, Note_on_c, 0, 78, 0
1, 8127, Note_on_c, 0, 76, 80
1, 8127, Note_on_c, 1, 52, 0
1, 8128, Note_on_c, 1, 57, 82
1, 8134, Note_on_c, 0, 76, 0
1, 8134, Note_on_c, 0, 78, 80
1, 8141, Note_on_c, 0, 78, 0
1, 8141, Note_on_c, 0, 76, 80
1, 8143, Note_on_c, 1, 57, 0
1, 8144, Note_on_c, 1, 61, 83
1, 8148, Note_on_c, 0, 76, 0
1, 8148, Note_on_c, 0, 78, 80
1, 8155, Note_on_c, 0, 78, 0
1, 8155, Note_on_c, 0, 76, 80
1, 8159, Note_on_c, 1, 61, 0
1, 8160, Note_on_c, 1, 64, 84
1, 8162, Note_on_c, 0, 76, 0
1, 8162, Note_on_c, 0, 78, 80
1, 8169, Note_on_c, 0, 78, 0
1, 8169, Note_on_c, 0, 76, 80
1, 8175, Note_on_c, 1, 64, 0
1, 8176, Note_on_c, 0, 76, 0
1, 8176, Note_on_c, 0, 78, 80
1, 8176, Note_on_c, 1, 61, 84
1, 8183, Note_on_c, 0, 78, 0
1, 8183, Note_on_c, 0, 76, 80
1, 8190, Note_on_c, 0, 76, 0
1, 8190, Note_on_c, 0, 78, 80
1, 8191, Note_on_c, 1, 61, 0
1, 8192, Note_on_c, 1, 57, 85
1, 8197, Note_on_c, 0, 78, 0
1, 8197, Note_on_c, 0, 76, 80
1, 8204, Note_on_c, 0, 76, 0
1, 8204, Note_on_c, 0, 78, 80
1, 8207, Note_on_c, 1, 57, 0
1, 8208, Note_on_c, 1, 52, 86
1, 8211, Note_on_c, 0, 78, 0
1, 8211, Note_on_c, 0, 76, 80
1, 8218, Note_on_c, 0, 76, 0
1, 8218, Note_on_c, 0, 78, 80
1, 8223, Note_on_c, 1, 52, 0
1, 8224, Note_on_c, 1, 62, 85
1, 8225, Note_on_c, 0, 78, 0
1, 8225, Note_on_c, 0, 76, 80
1, 8232, Note_on_c, 0, 76, 0
1, 8232, Note_on_c, 0, 78, 80
1, 8238, Note_on_c, 0, 78, 0
1, 8238, Note_on_c, 0, 76, 80
1, 8239, Note_on_c, 1, 62, 0
1, 8240, Note_on_c, 1, 59, 85
1, 8244, Note_on_c, 0, 76, 0
1, 8244, Note_on_c, 0, 78, 80
1, 8250, Note_on_c, 0, 78, 0
1, 8250, Note_on_c, 0, 76, 80
1, 8255, Note_on_c, 1, 59, 0
1, 8256, Note_on_c, 1, 61, 84
1, 8271, Note_on_c, 0, 76, 0
1, 8272, Note_on_c, 0, 81, 80
1, 8287, Note_on_c, 0, 81, 0
1, 8288, Note_on_c, 0, 80, 80
1, 8303, Note_on_c, 0, 80, 0
1, 8304, Note_on_c, 0, 81, 80
1, 8319, Note_on_c, 0, 81, 0
1, 8320, Note_on_c, 0, 76, 80
1, 8335, Note_on_c, 0, 76, 0
1, 8336, Note_on_c, 0, 73, 80
1, 8345, Note_on_c, 1, 61, 0
1, 8351, Note_on_c, 0, 73, 0
1, 8352, Note_on_c, 0, 69, 80
1, 8359, Note_on_c, 0, 69, 0
1, 8368, Note_on_c, 0, 69, 80
1, 8383, Note_on_c, 0, 69, 0
1, 8384, Note_on_c, 0, 73, 80
1, 8399, Note_on_c, 0, 73, 0
1, 8400, Note_on_c, 0, 71, 80
1, 8400, Note_on_c, 1, 56, 75
1, 8400, Note_on_c, 1, 52, 75
1, 8407, Note_on_c, 0, 71, 0
1, 8416, Note_on_c, 0, 71, 80
1, 8431, Note_on_c, 0, 71, 0
1, 8432, Note_on_c, 0, 74, 80
1, 8445, Note_on_c, 1, 56, 0
1, 8445, Note_on_c, 1, 52, 0
1, 8447, Note_on_c, 0, 74, 0
1, 8448, Note_on_c, 0, 73, 80
1, 8448, Note_on_c, 1, 57, 75
1, 8448, Note_on_c, 1, 45, 75
1, 8463, Note_on_c, 0, 73, 0
1, 8464, Note_on_c, 0, 81, 80
1, 8479, Note_on_c, 0, 81, 0
1, 8480, Note_on_c, 0, 80, 80
1, 8495, Note_on_c, 0, 80, 0
1, 8496, Note_on_c, 0, 81, 80
1, 8511, Note_on_c, 0, 81, 0
1, 8512, Note_on_c, 0, 76, 80
1, 8527, Note_on_c, 0, 76, 0
1, 8528, Note_on_c, 0, 73, 80
1, 8537, Note_on_c, 1, 57, 0
1, 8537, Note_on_c, 1, 45, 0
1, 8543, Note_on_c, 0, 73, 0
1, 8544, Note_on_c, 0, 69, 80
1, 8559, Note_on_c, 0, 69, 0
1, 8560, Note_on_c, 0, 79, 80
1, 8567, Note_on_c, 0, 79, 0
1, 8576, Note_on_c, 0, 79, 80
1, 8591, Note_on_c, 0, 79, 0
1, 8592, Note_on_c, 0, 79, 80
1, 8592, Note_on_c, 1, 61, 75
1, 8592, Note_on_c, 1, 57, 75
1, 8607, Note_on_c, 0, 79, 0
1, 8608, Note_on_c, 0, 78, 80
1, 8623, Note_on_c, 0, 78, 0
1, 8624, Note_on_c, 0, 76, 80
1, 8637, Note_on_c, 1, 61, 0
1, 8637, Note_on_c, 1, 57, 0
1, 8639, Note_on_c, 0, 76, 0
1, 8640, Note_on_c, 0, 79, 80
1, 8640, Note_on_c, 1, 50, 75
1, 8647, Note_on_c, 0, 79, 0
1, 8647, Note_on_c, 0, 78, 80
1, 8654, Note_on_c, 0, 78, 0
1, 8654, Note_on_c, 0, 79, 80
1, 8655, Note_on_c, 1, 50, 0
1, 8656, Note_on_c, 1, 54, 75
1, 8661, Note_on_c, 0, 79, 0
1, 8661, Note_on_c, 0, 78, 80
1, 8668, Note_on_c, 0, 78, 0
1, 8668, Note_on_c, 0, 79, 80
1, 8671, Note_on_c, 1, 54, 0
1, 8672, Note_on_c, 1, 57, 75
1, 8675, Note_on_c, 0, 79, 0
1, 8675, Note_on_c, 0, 78, 80
1, 8682, Note_on_c, 0, 78, 0
1, 8682, Note_on_c, 0, 79, 80
1, 8687, Note_on_c, 1, 57, 0
1, 8688, Note_on_c, 1, 62, 75
1, 8689, Note_on_c, 0, 79, 0
1, 8689, Note_on_c, 0, 78, 80
1, 8696, Note_on_c, 0, 78, 0
1, 8696, Note_on_c, 0, 79, 80
1, 8703, Note_on_c, 0, 79, 0
1, 8703, Note_on_c, 0, 78, 80
1, 8703, Note_on_c, 1, 62, 0
1, 8704, Note_on_c, 1, 66, 76
1, 8710, Note_on_c, 0, 78, 0
1, 8710, Note_on_c, 0, 79, 80
1, 8717, Note_on_c, 0, 79, 0
1, 8717, Note_on_c, 0, 78, 80
1, 8719, Note_on_c, 1, 66, 0
1, 8720, Note_on_c, 1, 69, 76
1, 8724, Note_on_c, 0, 78, 0
1, 8724, Note_on_c, 0, 79, 80
1, 8730, Note_on_c, 0, 79, 0
1, 8730, Note_on_c, 0, 78, 80
1, 8735, Note_on_c, 1, 69, 0
1, 8736, Note_on_c, 1, 62, 76
1, 8751, Note_on_c, 0, 78, 0
1, 8752, Note_on_c, 0, 86, 80
1, 8767, Note_on_c, 0, 86, 0
1, 8768, Note_on_c, 0, 81, 80
1, 8783, Note_on_c, 0, 81, 0
1, 8784, Note_on_c, 0, 78, 80
1, 8799, Note_on_c, 0, 78, 0
1, 8800, Note_on_c, 0, 74, 80
1, 8815, Note_on_c, 0, 74, 0
1, 8816, Note_on_c, 0, 78, 80
1, 8825, Note_on_c, 1, 62, 0
1, 8831, Note_on_c, 0, 78, 0
1, 8832, Note_on_c, 0, 78, 80
1, 8832, Note_on_c, 1, 45, 75
1, 8839, Note_on_c, 0, 78, 0
1, 8839, Note_on_c, 0, 76, 80
1, 8846, Note_on_c, 0, 76, 0
1, 8846, Note_on_c, 0, 78, 80
1, 8847, Note_on_c, 1, 45, 0
1, 8848, Note_on_c, 1, 49, 75
1, 8853, Note_on_c, 0, 78, 0
1, 8853, Note_on_c, 0, 76, 80
1, 8860, Note_on_c, 0, 76, 0
1, 8860, Note_on_c, 0, 78, 80
1, 8863, Note_on_c, 1, 49, 0
1, 8864, Note_on_c, 1, 52, 76
1, 8867, Note_on_c, 0, 78, 0
1, 8867, Note_on_c, 0, 76, 80
1, 8874, Note_on_c, 0, 76, 0
1, 8874, Note_on_c, 0, 78, 80
1, 8879, Note_on_c, 1, 52, 0
1, 8880, Note_on_c, 1, 57, 76
1, 8881, Note_on_c, 0, 78, 0
1, 8881, Note_on_c, 0, 76, 80
1, 8888, Note_on_c, 0, 76, 0
1, 8888, Note_on_c, 0, 78, 80
1, 8895, Note_on_c, 0, 78, 0
1, 8895, Note_on_c, 0, 76, 80
1, 8895, Note_on_c, 1, 57, 0
1, 8896, Note_on_c, 1, 61, 77
1, 8902, Note_on_c, 0, 76, 0
1, 8902, Note_on_c, 0, 78, 80
1, 8909, Note_on_c, 0, 78, 0
1, 8909, Note_on_c, 0, 76, 80
1, 8911, Note_on_c, 1, 61, 0
1, 8912, Note_on_c, 1, 64, 78
1, 8916, Note_on_c, 0, 76, 0
1, 8916, Note_on_c, 0, 78, 80
1, 8922, Note_on_c, 0, 78, 0
1, 8922, Note_on_c, 0, 76, 80
1, 8927, Note_on_c, 1, 64, 0
1, 8928, Note_on_c, 1, 57, 80
1, 8943, Note_on_c, 0, 76, 0
1, 8944, Note_on_c, 0, 85, 80
1, 8959, Note_on_c, 0, 85, 0
1, 8960, Note_on_c, 0, 81, 80
1, 8975, Note_on_c, 0, 81, 0
1, 8976, Note_on_c, 0, 76, 80
1, 8991, Note_on_c, 0, 76, 0
1, 8992, Note_on_c, 0, 73, 80
1, 9007, Note_on_c, 0, 73, 0
1, 9008, Note_on_c, 0, 76, 80
1, 9017, Note_on_c, 1, 57, 0
1, 9023, Note_on_c, 0, 76, 0
1, 9024, Note_on_c, 0, 76, 80
1, 9024, Note_on_c, 1, 52, 75
1, 9031, Note_on_c, 0, 76, 0
1, 9031, Note_on_c, 0, 74, 80
1, 9038, Note_on_c, 0, 74, 0
1, 9038, Note_on_c, 0, 76, 80
1, 9039, Note_on_c, 1, 52, 0
1, 9040, Note_on_c, 1, 56, 75
1, 9045, Note_on_c, 0, 76, 0
1, 9045, Note_on_c, 0, 74, 80
1, 9052, Note_on_c, 0, 74, 0
1, 9052, Note_on_c, 0, 76, 80
1, 9055, Note_on_c, 1, 56, 0
1, 9056, Note_on_c, 1, 59, 76
1, 9059, Note_on_c, 0, 76, 0
1, 9059, Note_on_c, 0, 74, 80
1, 9066, Note_on_c, 0, 74, 0
1, 9066, Note_on_c, 0, 76, 80
1, 9071, Note_on_c, 1, 59, 0
1, 9072, Note_on_c, 1, 64, 76
1, 9073, Note_on_c, 0, 76, 0
1, 9073, Note_on_c, 0, 74, 80
1, 9080, Note_on_c, 0, 74, 0
1, 9080, Note_on_c, 0, 76, 80
1, 9087, Note_on_c, 0, 76, 0
1, 9087, Note_on_c, 0, 74, 80
1, 9087, Note_on_c, 1, 64, 0
1, 9088, Note_on_c, 1, 68, 77
1, 9094, Note_on_c, 0, 74, 0
1, 9094, Note_on_c, 0, 76, 80
1, 9101, Note_on_c, 0, 76, 0
1, 9101, Note_on_c, 0, 74, 80
1, 9103, Note_on_c, 1, 68, 0
1, 9104, Note_on_c, 1, 71, 78
1, 9108, Note_on_c, 0, 74, 0
1, 9108, Note_on_c, 0, 76, 80
1, 9114, Note_on_c, 0, 76, 0
1, 9114, Note_on_c, 0, 74, 80
1, 9119, Note_on_c, 1, 71, 0
1, 9120, Note_on_c, 1, 64, 80
1, 9135, Note_on_c, 0, 74, 0
1, 9136, Note_on_c, 0, 83, 73
1, 9151, Note_on_c, 0, 83, 0
1, 9152, Note_on_c, 0, 80, 72
1, 9167, Note_on_c, 0, 80, 0
1, 9168, Note_on_c, 0, 74, 70
1, 9183, Note_on_c, 0, 74, 0
1, 9184, Note_on_c, 0, 71, 69
1, 9199, Note_on_c, 0, 71, 0
1, 9200, Note_on_c, 0, 74, 68
1, 9209, Note_on_c, 1, 64, 0
1, 9215, Note_on_c, 0, 74, 0
1, 9216, Note_on_c, 0, 73, 64
1, 9216, Note_on_c, 1, 45, 64
1, 9231, Note_on_c, 0, 73, 0
1, 9232, Note_on_c, 0, 76, 64
1, 9247, Note_on_c, 0, 76, 0
1, 9248, Note_on_c, 0, 74, 64
1, 9263, Note_on_c, 0, 74, 0
1, 9264, Note_on_c, 0, 73, 64
1, 9271, Note_on_c, 0, 73, 0
1, 9280, Note_on_c, 0, 73, 65
1, 9295, Note_on_c, 0, 73, 0
1, 9296, Note_on_c, 0, 71, 65
1, 9311, Note_on_c, 0, 71, 0
1, 9312, Note_on_c, 0, 69, 65
1, 9319, Note_on_c, 0, 69, 0
1, 9328, Note_on_c, 0, 69, 65
1, 9343, Note_on_c, 0, 69, 0
1, 9344, Note_on_c, 0, 68, 66
1, 9349, Note_on_c, 1, 45, 0
1, 9359, Note_on_c, 0, 68, 0
1, 9360, Note_on_c, 0, 66, 66
1, 9360, Note_on_c, 1, 45, 67
1, 9367, Note_on_c, 0, 66, 0
1, 9376, Note_on_c, 0, 66, 66
1, 9391, Note_on_c, 0, 66, 0
1, 9392, Note_on_c, 0, 64, 66
1, 9405, Note_on_c, 1, 45, 0
1, 9407, Note_on_c, 0, 64, 0
1, 9408, Note_on_c, 0, 62, 67
1, 9408, Note_on_c, 1, 47, 68
1, 9423, Note_on_c, 0, 62, 0
1, 9424, Note_on_c, 0, 78, 67
1, 9439, Note_on_c, 0, 78, 0
1, 9440, Note_on_c, 0, 76, 67
1, 9455, Note_on_c, 0, 76, 0
1, 9456, Note_on_c, 0, 74, 67
1, 9463, Note_on_c, 0, 74, 0
1, 9472, Note_on_c, 0, 74, 68
1, 9487, Note_on_c, 0, 74, 0
1, 9488, Note_on_c, 0, 73, 68
1, 9503, Note_on_c, 0, 73, 0
1, 9504, Note_on_c, 0, 71, 68
1, 9511, Note_on_c, 0, 71, 0
1, 9520, Note_on_c, 0, 71, 68
1, 9535, Note_on_c, 0, 71, 0
1, 9536, Note_on_c, 0, 69, 69
1, 9541, Note_on_c, 1, 47, 0
1, 9551, Note_on_c, 0, 69, 0
1, 9552, Note_on_c, 0, 68, 69
1, 9552, Note_on_c, 1, 47, 71
1, 9559, Note_on_c, 0, 68, 0
1, 9568, Note_on_c, 0, 68, 69
1, 9583, Note_on_c, 0, 68, 0
1, 9584, Note_on_c, 0, 66, 69
1, 9597, Note_on_c, 1, 47, 0
1, 9599, Note_on_c, 0, 66, 0
1, 9600, Note_on_c, 0, 64, 70
1, 9600, Note_on_c, 1, 49, 72
1, 9615, Note_on_c, 0, 64, 0
1, 9616, Note_on_c, 0, 80, 70
1, 9631, Note_on_c, 0, 80, 0
1, 9632, Note_on_c, 0, 78, 70
1, 9647, Note_on_c, 0, 78, 0
1, 9648, Note_on_c, 0, 76, 70
1, 9655, Note_on_c, 0, 76, 0
1, 9664, Note_on_c, 0, 76, 71
1, 9679, Note_on_c, 0, 76, 0
1, 9680, Note_on_c, 0, 74, 71
1, 9695, Note_on_c, 0, 74, 0
1, 9696, Note_on_c, 0, 73, 71
1, 9703, Note_on_c, 0, 73, 0
1, 9712, Note_on_c, 0, 73, 71
1, 9727, Note_on_c, 0, 73, 0
1, 9728, Note_on_c, 0, 71, 72
1, 9733, Note_on_c, 1, 49, 0
1, 9743, Note_on_c, 0, 71, 0
1, 9744, Note_on_c, 0, 69, 72
1, 9744, Note_on_c, 1, 49, 75
1, 9751, Note_on_c, 0, 69, 0
1, 9760, Note_on_c, 0, 69, 72
1, 9775, Note_on_c, 0, 69, 0
1, 9776, Note_on_c, 0, 68, 72
1, 9789, Note_on_c, 1, 49, 0
1, 9791, Note_on_c, 0, 68, 0
1, 9792, Note_on_c, 0, 66, 73
1, 9792, Note_on_c, 1, 50, 76
1, 9807, Note_on_c, 0, 66, 0
1, 9808, Note_on_c, 0, 81, 73
1, 9823, Note_on_c, 0, 81, 0
1, 9824, Note_on_c, 0, 80, 73
1, 9839, Note_on_c, 0, 80, 0
1, 9840, Note_on_c, 0, 78, 73
1, 9847, Note_on_c, 0, 78, 0
1, 9856, Note_on_c, 0, 78, 74
1, 9871, Note_on_c, 0, 78, 0
1, 9872, Note_on_c, 0, 76, 74
1, 9887, Note_on_c, 0, 76, 0
1, 9888, Note_on_c, 0, 74, 74
1, 9895, Note_on_c, 0, 74, 0
1, 9904, Note_on_c, 0, 74, 74
1, 9919, Note_on_c, 0, 74, 0
1, 9920, Note_on_c, 0, 73, 75
1, 9925, Note_on_c, 1, 50, 0
1, 9935, Note_on_c, 0, 73, 0
1, 9936, Note_on_c, 0, 71, 75
1, 9936, Note_on_c, 1, 51, 79
1, 9943, Note_on_c, 0, 71, 0
1, 9952, Note_on_c, 0, 71, 75
1, 9967, Note_on_c, 0, 71, 0
1, 9968, Note_on_c, 0, 69, 75
1, 9981, Note_on_c, 1, 51, 0
1, 9983, Note_on_c, 0, 69, 0
1, 9984, Note_on_c, 0, 68, 80
1, 9984, Note_on_c, 1, 52, 80
1, 9999, Note_on_c, 0, 68, 0
1, 10000, Note_on_c, 0, 83, 80
1, 10015, Note_on_c, 0, 83, 0
1, 10016, Note_on_c, 0, 81, 80
1, 10029, Note_on_c, 1, 52, 0
1, 10031, Note_on_c, 0, 81, 0
1, 10032, Note_on_c, 0, 80, 80
1, 10032, Note_on_c, 1, 56, 80
1, 10039, Note_on_c, 0, 80, 0
1, 10048, Note_on_c, 0, 80, 80
1, 10063, Note_on_c, 0, 80, 0
1, 10064, Note_on_c, 0, 78, 80
1, 10077, Note_on_c, 1, 56, 0
1, 10079, Note_on_c, 0, 78, 0
1, 10080, Note_on_c, 0, 76, 80
1, 10080, Note_on_c, 1, 59, 80
1, 10087, Note_on_c, 0, 76, 0
1, 10096, Note_on_c, 0, 76, 80
1, 10111, Note_on_c, 0, 76, 0
1, 10112, Note_on_c, 0, 74, 80
1, 10125, Note_on_c, 1, 59, 0
1, 10127, Note_on_c, 0, 74, 0
1, 10128, Note_on_c, 0, 73, 80
1, 10128, Note_on_c, 1, 64, 80
1, 10143, Note_on_c, 0, 73, 0
1, 10144, Note_on_c, 0, 74, 80
1, 10159, Note_on_c, 0, 74, 0
1, 10160, Note_on_c, 0, 71, 80
1, 10173, Note_on_c, 1, 64, 0
1, 10175, Note_on_c, 0, 71, 0
1, 10176, Note_on_c, 0, 73, 80
1, 10176, Note_on_c, 1, 57, 80
1, 10191, Note_on_c, 0, 73, 0
1, 10191, Note_on_c, 1, 57, 0
1, 10192, Note_on_c, 0, 71, 80
1, 10192, Note_on_c, 1, 61, 80
1, 10207, Note_on_c, 0, 71, 0
1, 10207, Note_on_c, 1, 61, 0
1, 10208, Note_on_c, 0, 69, 80
1, 10208, Note_on_c, 1, 64, 80
1, 10223, Note_on_c, 0, 69, 0
1, 10223, Note_on_c, 1, 64, 0
1, 10224, Note_on_c, 0, 76, 80
1, 10224, Note_on_c, 1, 57, 80
1, 10239, Note_on_c, 1, 57, 0
1, 10240, Note_on_c, 1, 61, 80
1, 10255, Note_on_c, 1, 61, 0
1, 10256, Note_on_c, 1, 64, 80
1, 10269, Note_on_c, 0, 76, 0
1, 10271, Note_on_c, 1, 64, 0
1, 10272, Note_on_c, 0, 83, 80
1, 10272, Note_on_c, 1, 56, 80
1, 10287, Note_on_c, 0, 83, 0
1, 10287, Note_on_c, 1, 56, 0
1, 10288, Note_on_c, 0, 80, 80
1, 10288, Note_on_c, 1, 59, 80
1, 10303, Note_on_c, 0, 80, 0
1, 10303, Note_on_c, 1, 59, 0
1, 10304, Note_on_c, 0, 76, 80
1, 10304, Note_on_c, 1, 64, 80
1, 10319, Note_on_c, 0, 76, 0
1, 10319, Note_on_c, 1, 64, 0
1, 10320, Note_on_c, 0, 74, 80
1, 10320, Note_on_c, 1, 56, 80
1, 10335, Note_on_c, 1, 56, 0
1, 10336, Note_on_c, 1, 59, 77
1, 10351, Note_on_c, 1, 59, 0
1, 10352, Note_on_c, 1, 64, 75
1, 10365, Note_on_c, 0, 74, 0
1, 10367, Note_on_c, 1, 64, 0
1, 10368, Note_on_c, 0, 73, 70
1, 10368, Note_on_c, 1, 57, 70
1, 10383, Note_on_c, 0, 73, 0
1, 10383, Note_on_c, 1, 57, 0
1, 10384, Note_on_c, 0, 71, 70
1, 10384, Note_on_c, 1, 61, 70
1, 10399, Note_on_c, 0, 71, 0
1, 10399, Note_on_c, 1, 61, 0
1, 10400, Note_on_c, 0, 69, 70
1, 10400, Note_on_c, 1, 64, 70
1, 10415, Note_on_c, 0, 69, 0
1, 10415, Note_on_c, 1, 64, 0
1, 10416, Note_on_c, 0, 76, 71
1, 10416, Note_on_c, 1, 57, 71
1, 10423, Note_on_c, 0, 76, 0
1, 10423, Note_on_c, 0, 78, 71
1, 10430, Note_on_c, 0, 78, 0
1, 10430, Note_on_c, 0, 76, 71
1, 10431, Note_on_c, 1, 57, 0
1, 10432, Note_on_c, 1, 61, 71
1, 10437, Note_on_c, 0, 76, 0
1, 10437, Note_on_c, 0, 78, 71
1, 10444, Note_on_c, 0, 78, 0
1, 10444, Note_on_c, 0, 76, 71
1, 10447, Note_on_c, 1, 61, 0
1, 10448, Note_on_c, 1, 64, 71
1, 10451, Note_on_c, 0, 76, 0
1, 10451, Note_on_c, 0, 78, 71
1, 10458, Note_on_c, 0, 78, 0
1, 10458, Note_on_c, 0, 76, 72
1, 10463, Note_on_c, 1, 64, 0
1, 10464, Note_on_c, 0, 76, 0
1, 10464, Note_on_c, 0, 83, 72
1, 10464, Note_on_c, 1, 56, 72
1, 10479, Note_on_c, 0, 83, 0
1, 10479, Note_on_c, 1, 56, 0
1, 10480, Note_on_c, 0, 80, 72
1, 10480, Note_on_c, 1, 59, 72
1, 10495, Note_on_c, 0, 80, 0
1, 10495, Note_on_c, 1, 59, 0
1, 10496, Note_on_c, 0, 76, 73
1, 10496, Note_on_c, 1, 64, 72
1, 10511, Note_on_c, 0, 76, 0
1, 10511, Note_on_c, 1, 64, 0
1, 10512, Note_on_c, 0, 74, 73
1, 10512, Note_on_c, 1, 56, 73
1, 10519, Note_on_c, 0, 74, 0
1, 10519, Note_on_c, 0, 76, 73
1, 10526, Note_on_c, 0, 76, 0
1, 10526, Note_on_c, 0, 74, 73
1, 10527, Note_on_c, 1, 56, 0
1, 10528, Note_on_c, 1, 59, 73
1, 10533, Note_on_c, 0, 74, 0
1, 10533, Note_on_c, 0, 76, 73
1, 10540, Note_on_c, 0, 76, 0
1, 10540, Note_on_c, 0, 74, 74
1, 10543, Note_on_c, 1, 59, 0
1, 10544, Note_on_c, 1, 64, 73
1, 10547, Note_on_c, 0, 74, 0
1, 10547, Note_on_c, 0, 76, 74
1, 10554, Note_on_c, 0, 76, 0
1, 10554, Note_on_c, 0, 74, 74
1, 10559, Note_on_c, 1, 64, 0
1, 10560, Note_on_c, 0, 74, 0
1, 10560, Note_on_c, 0, 73, 74
1, 10560, Note_on_c, 1, 57, 74
1, 10575, Note_on_c, 0, 73, 0
1, 10576, Note_on_c, 0, 71, 75
1, 10591, Note_on_c, 0, 71, 0
1, 10592, Note_on_c, 0, 69, 74
1, 10605, Note_on_c, 1, 57, 0
1, 10607, Note_on_c, 0, 69, 0
1, 10608, Note_on_c, 0, 81, 74
1, 10608, Note_on_c, 1, 61, 74
1, 10623, Note_on_c, 0, 81, 0
1, 10624, Note_on_c, 0, 76, 74
1, 10639, Note_on_c, 0, 76, 0
1, 10640, Note_on_c, 0, 77, 73
1, 10653, Note_on_c, 1, 61, 0
1, 10655, Note_on_c, 0, 77, 0
1, 10656, Note_on_c, 0, 78, 73
1, 10656, Note_on_c, 1, 62, 73
1, 10671, Note_on_c, 0, 78, 0
1, 10672, Note_on_c, 0, 70, 73
1, 10687, Note_on_c, 0, 70, 0
1, 10688, Note_on_c, 0, 71, 73
1, 10701, Note_on_c, 1, 62, 0
1, 10703, Note_on_c, 0, 71, 0
1, 10704, Note_on_c, 0, 74, 72
1, 10704, Note_on_c, 1, 50, 72
1, 10719, Note_on_c, 0, 74, 0
1, 10720, Note_on_c, 0, 66, 72
1, 10735, Note_on_c, 0, 66, 0
1, 10736, Note_on_c, 0, 71, 72
1, 10749, Note_on_c, 1, 50, 0
1, 10751, Note_on_c, 0, 71, 0
1, 10752, Note_on_c, 0, 69, 70
1, 10752, Note_on_c, 1, 52, 70
1, 10797, Note_on_c, 1, 52, 0
1, 10800, Note_on_c, 0, 69, 0
1, 10800, Note_on_c, 0, 68, 70
1, 10800, Note_on_c, 1, 40, 71
1, 10841, Note_on_c, 0, 68, 0
1, 10845, Note_on_c, 1, 40, 0
1, 10848, Note_on_c, 1, 52, 72
1, 10863, Note_on_c, 1, 52, 0
1, 10864, Note_on_c, 1, 54, 72
1, 10879, Note_on_c, 1, 54, 0
1, 10880, Note_on_c, 1, 52, 73
1, 10895, Note_on_c, 1, 52, 0
1, 10896, Note_on_c, 1, 50, 73
1, 10911, Note_on_c, 1, 50, 0
1, 10912, Note_on_c, 1, 49, 73
1, 10927, Note_on_c, 1, 49, 0
1, 10928, Note_on_c, 1, 47, 74
1, 10943, Note_on_c, 1, 47, 0
1, 10944, Note_on_c, 0, 83, 80
1, 10944, Note_on_c, 1, 45, 91
1, 10950, Note_on_c, 0, 83, 0
1, 10950, Note_on_c, 0, 81, 80
1, 10956, Note_on_c, 0, 81, 0
1, 10956, Note_on_c, 0, 80, 80
1, 10962, Note_on_c, 0, 80, 0
1, 10962, Note_on_c, 0, 81, 80
1, 10992, Note_on_c, 1, 45, 0
1, 10992, Note_on_c, 1, 61, 64
1, 10992, Note_on_c, 1, 57, 64
1, 11039, Note_on_c, 1, 61, 0
1, 11039, Note_on_c, 1, 57, 0
1, 11040, Note_on_c, 1, 61, 64
1, 11040, Note_on_c, 1, 57, 64
1, 11055, Note_on_c, 0, 81, 0
1, 11056, Note_on_c, 0, 80, 80
1, 11071, Note_on_c, 0, 80, 0
1, 11072, Note_on_c, 0, 78, 80
1, 11087, Note_on_c, 0, 78, 0
1, 11087, Note_on_c, 1, 61, 0
1, 11087, Note_on_c, 1, 57, 0
1, 11088, Note_on_c, 0, 76, 80
1, 11088, Note_on_c, 1, 61, 64
1, 11088, Note_on_c, 1, 57, 64
1, 11103, Note_on_c, 0, 76, 0
1, 11104, Note_on_c, 0, 74, 80
1, 11119, Note_on_c, 0, 74, 0
1, 11120, Note_on_c, 0, 73, 80
1, 11135, Note_on_c, 0, 73, 0
1, 11135, Note_on_c, 1, 61, 0
1, 11135, Note_on_c, 1, 57, 0
1, 11136, Note_on_c, 0, 71, 80
1, 11151, Note_on_c, 0, 71, 0
1, 11152, Note_on_c, 0, 76, 80
1, 11167, Note_on_c, 0, 76, 0
1, 11168, Note_on_c, 0, 74, 80
1, 11183, Note_on_c, 0, 74, 0
1, 11184, Note_on_c, 0, 74, 80
1, 11184, Note_on_c, 1, 59, 64
1, 11184, Note_on_c, 1, 57, 64
1, 11229, Note_on_c, 0, 74, 0
1, 11231, Note_on_c, 1, 59, 0
1, 11231, Note_on_c, 1, 57, 0
1, 11232, Note_on_c, 0, 74, 80
1, 11232, Note_on_c, 1, 59, 64
1, 11232, Note_on_c, 1, 57, 64
1, 11238, Note_on_c, 0, 74, 0
1, 11238, Note_on_c, 0, 76, 80
1, 11244, Note_on_c, 0, 76, 0
1, 11244, Note_on_c, 0, 74, 80
1, 11250, Note_on_c, 0, 74, 0
1, 11250, Note_on_c, 0, 73, 80
1, 11265, Note_on_c, 0, 73, 0
1, 11265, Note_on_c, 0, 74, 80
1, 11279, Note_on_c, 1, 59, 0
1, 11279, Note_on_c, 1, 57, 0
1, 11280, Note_on_c, 0, 74, 0
1, 11280, Note_on_c, 0, 74, 80
1, 11280, Note_on_c, 1, 59, 64
1, 11280, Note_on_c, 1, 57, 64
1, 11286, Note_on_c, 0, 74, 0
1, 11286, Note_on_c, 0, 76, 80
1, 11292, Note_on_c, 0, 76, 0
1, 11292, Note_on_c, 0, 74, 80
1, 11298, Note_on_c, 0, 74, 0
1, 11298, Note_on_c, 0, 73, 80
1, 11313, Note_on_c, 0, 73, 0
1, 11313, Note_on_c, 0, 74, 80
1, 11327, Note_on_c, 1, 59, 0
1, 11327, Note_on_c, 1, 57, 0
1, 11328, Note_on_c, 0, 74, 0
1, 11328, Note_on_c, 0, 74, 80
1, 11373, Note_on_c, 0, 74, 0
1, 11376, Note_on_c, 0, 83, 80
1, 11376, Note_on_c, 1, 59, 64
1, 11376, Note_on_c, 1, 56, 64
1, 11421, Note_on_c, 0, 83, 0
1, 11423, Note_on_c, 1, 59, 0
1, 11423, Note_on_c, 1, 56, 0
1, 11424, Note_on_c, 0, 85, 80
1, 11424, Note_on_c, 1, 59, 64
1, 11424, Note_on_c, 1, 56, 64
1, 11430, Note_on_c, 0, 85, 0
1, 11430, Note_on_c, 0, 83, 80
1, 11439, Note_on_c, 0, 83, 0
1, 11440, Note_on_c, 0, 81, 80
1, 11455, Note_on_c, 0, 81, 0
1, 11456, Note_on_c, 0, 80, 80
1, 11471, Note_on_c, 0, 80, 0
1, 11471, Note_on_c, 1, 59, 0
1, 11471, Note_on_c, 1, 56, 0
1, 11472, Note_on_c, 0, 78, 80
1, 11472, Note_on_c, 1, 59, 64
1, 11472, Note_on_c, 1, 56, 64
1, 11487, Note_on_c, 0, 78, 0
1, 11488, Note_on_c, 0, 76, 80
1, 11503, Note_on_c, 0, 76, 0
1, 11504, Note_on_c, 0, 74, 80
1, 11519, Note_on_c, 0, 74, 0
1, 11519, Note_on_c, 1, 59, 0
1, 11519, Note_on_c, 1, 56, 0
1, 11520, Note_on_c, 0, 73, 80
1, 11520, Note_on_c, 1, 57, 64
1, 11535, Note_on_c, 0, 73, 0
1, 11536, Note_on_c, 0, 69, 80
1, 11551, Note_on_c, 0, 69, 0
1, 11552, Note_on_c, 0, 73, 80
1, 11567, Note_on_c, 0, 73, 0
1, 11568, Note_on_c, 0, 76, 80
1, 11583, Note_on_c, 0, 76, 0
1, 11584, Note_on_c, 0, 73, 80
1, 11599, Note_on_c, 0, 73, 0
1, 11600, Note_on_c, 0, 69, 80
1, 11609, Note_on_c, 1, 57, 0
1, 11615, Note_on_c, 0, 69, 0
1, 11616, Note_on_c, 0, 74, 80
1, 11631, Note_on_c, 0, 74, 0
1, 11632, Note_on_c, 0, 71, 80
1, 11647, Note_on_c, 0, 71, 0
1, 11648, Note_on_c, 0, 68, 80
1, 11663, Note_on_c, 0, 68, 0
1, 11664, Note_on_c, 0, 62, 80
1, 11664, Note_on_c, 1, 59, 64
1, 11664, Note_on_c, 1, 52, 64
1, 11679, Note_on_c, 0, 62, 0
1, 11680, Note_on_c, 0, 68, 80
1, 11695, Note_on_c, 0, 68, 0
1, 11696, Note_on_c, 0, 62, 80
1, 11709, Note_on_c, 1, 59, 0
1, 11709, Note_on_c, 1, 52, 0
1, 11711, Note_on_c, 0, 62, 0
1, 11712, Note_on_c, 0, 61, 80
1, 11712, Note_on_c, 1, 57, 64
1, 11712, Note_on_c, 1, 45, 64
1, 11727, Note_on_c, 0, 61, 0
1, 11728, Note_on_c, 0, 64, 80
1, 11743, Note_on_c, 0, 64, 0
1, 11744, Note_on_c, 0, 69, 80
1, 11759, Note_on_c, 0, 69, 0
1, 11760, Note_on_c, 0, 73, 80
1, 11775, Note_on_c, 0, 73, 0
1, 11776, Note_on_c, 0, 76, 80
1, 11791, Note_on_c, 0, 76, 0
1, 11792, Note_on_c, 0, 69, 80
1, 11801, Note_on_c, 1, 57, 0
1, 11801, Note_on_c, 1, 45, 0
1, 11807, Note_on_c, 0, 69, 0
1, 11808, Note_on_c, 0, 74, 80
1, 11823, Note_on_c, 0, 74, 0
1, 11824, Note_on_c, 0, 71, 80
1, 11839, Note_on_c, 0, 71, 0
1, 11840, Note_on_c, 0, 68, 80
1, 11855, Note_on_c, 0, 68, 0
1, 11856, Note_on_c, 0, 62, 80
1, 11856, Note_on_c, 1, 59, 64
1, 11871, Note_on_c, 0, 62, 0
1, 11872, Note_on_c, 0, 68, 80
1, 11887, Note_on_c, 0, 68, 0
1, 11888, Note_on_c, 0, 62, 80
1, 11901, Note_on_c, 1, 59, 0
1, 11903, Note_on_c, 0, 62, 0
1, 11904, Note_on_c, 0, 61, 75
1, 11904, Note_on_c, 1, 57, 64
1, 11904, Note_on_c, 1, 45, 64
1, 11919, Note_on_c, 0, 61, 0
1, 11920, Note_on_c, 0, 64, 75
1, 11935, Note_on_c, 0, 64, 0
1, 11936, Note_on_c, 0, 69, 75
1, 11951, Note_on_c, 0, 69, 0
1, 11952, Note_on_c, 0, 64, 76
1, 11967, Note_on_c, 0, 64, 0
1, 11968, Note_on_c, 0, 69, 76
1, 11983, Note_on_c, 0, 69, 0
1, 11984, Note_on_c, 0, 73, 76
1, 11993, Note_on_c, 1, 57, 0
1, 11993, Note_on_c, 1, 45, 0
1, 11999, Note_on_c, 0, 73, 0
1, 12000, Note_on_c, 0, 69, 77
1, 12015, Note_on_c, 0, 69, 0
1, 12016, Note_on_c, 0, 73, 77
1, 12031, Note_on_c, 0, 73, 0
1, 12032, Note_on_c, 0, 76, 78
1, 12047, Note_on_c, 0, 76, 0
1, 12048, Note_on_c, 0, 73, 78
1, 12048, Note_on_c, 1, 57, 72
1, 12063, Note_on_c, 0, 73, 0
1, 12064, Note_on_c, 0, 76, 80
1, 12079, Note_on_c, 0, 76, 0
1, 12080, Note_on_c, 0, 79, 80
1, 12093, Note_on_c, 1, 57, 0
1, 12095, Note_on_c, 0, 79, 0
1, 12096, Note_on_c, 0, 78, 80
1, 12096, Note_on_c, 1, 62, 75
1, 12111, Note_on_c, 0, 78, 0
1, 12112, Note_on_c, 0, 76, 80
1, 12127, Note_on_c, 0, 76, 0
1, 12128, Note_on_c, 0, 78, 80
1, 12141, Note_on_c, 1, 62, 0
1, 12143, Note_on_c, 0, 78, 0
1, 12144, Note_on_c, 0, 86, 80
1, 12144, Note_on_c, 1, 59, 75
1, 12159, Note_on_c, 0, 86, 0
1, 12160, Note_on_c, 0, 74, 80
1, 12175, Note_on_c, 0, 74, 0
1, 12176, Note_on_c, 0, 78, 80
1, 12189, Note_on_c, 1, 59, 0
1, 12191, Note_on_c, 0, 78, 0
1, 12192, Note_on_c, 0, 76, 80
1, 12192, Note_on_c, 1, 61, 75
1, 12207, Note_on_c, 0, 76, 0
1, 12208, Note_on_c, 0, 81, 80
1, 12223, Note_on_c, 0, 81, 0
1, 12224, Note_on_c, 0, 80, 80
1, 12237, Note_on_c, 1, 61, 0
1, 12239, Note_on_c, 0, 80, 0
1, 12240, Note_on_c, 0, 81, 80
1, 12240, Note_on_c, 1, 57, 75
1, 12255, Note_on_c, 0, 81, 0
1, 12256, Note_on_c, 0, 73, 80
1, 12271, Note_on_c, 0, 73, 0
1, 12272, Note_on_c, 0, 76, 80
1, 12285, Note_on_c, 1, 57, 0
1, 12287, Note_on_c, 0, 76, 0
1, 12288, Note_on_c, 0, 74, 80
1, 12288, Note_on_c, 1, 59, 75
1, 12303, Note_on_c, 0, 74, 0
1, 12304, Note_on_c, 0, 73, 80
1, 12319, Note_on_c, 0, 73, 0
1, 12320, Note_on_c, 0, 74, 80
1, 12333, Note_on_c, 1, 59, 0
1, 12335, Note_on_c, 0, 74, 0
1, 12336, Note_on_c, 0, 78, 80
1, 12336, Note_on_c, 1, 56, 75
1, 12351, Note_on_c, 0, 78, 0
1, 12352, Note_on_c, 0, 76, 80
1, 12367, Note_on_c, 0, 76, 0
1, 12368, Note_on_c, 0, 74, 80
1, 12381, Note_on_c, 1, 56, 0
1, 12383, Note_on_c, 0, 74, 0
1, 12384, Note_on_c, 0, 73, 80
1, 12384, Note_on_c, 1, 57, 75
1, 12399, Note_on_c, 0, 73, 0
1, 12400, Note_on_c, 0, 81, 80
1, 12415, Note_on_c, 0, 81, 0
1, 12416, Note_on_c, 0, 76, 80
1, 12429, Note_on_c, 1, 57, 0
1, 12431, Note_on_c, 0, 76, 0
1, 12432, Note_on_c, 0, 78, 80
1, 12432, Note_on_c, 1, 50, 75
1, 12447, Note_on_c, 0, 78, 0
1, 12448, Note_on_c, 0, 74, 79
1, 12463, Note_on_c, 0, 74, 0
1, 12464, Note_on_c, 0, 71, 79
1, 12477, Note_on_c, 1, 50, 0
1, 12479, Note_on_c, 0, 71, 0
1, 12480, Note_on_c, 0, 69, 78
1, 12480, Note_on_c, 1, 52, 73
1, 12525, Note_on_c, 1, 52, 0
1, 12528, Note_on_c, 0, 69, 0
1, 12528, Note_on_c, 0, 68, 78
1, 12528, Note_on_c, 1, 40, 71
1, 12569, Note_on_c, 0, 68, 0
1, 12573, Note_on_c, 1, 40, 0
1, 12576, Note_on_c, 0, 78, 75
1, 12576, Note_on_c, 1, 52, 70
1, 12583, Note_on_c, 0, 78, 0
1, 12583, Note_on_c, 0, 76, 75
1, 12590, Note_on_c, 0, 76, 0
1, 12590, Note_on_c, 0, 78, 75
1, 12591, Note_on_c, 1, 52, 0
1, 12592, Note_on_c, 1, 56, 70
1, 12597, Note_on_c, 0, 78, 0
1, 12597, Note_on_c, 0, 76, 75
1, 12604, Note_on_c, 0, 76, 0
1, 12604, Note_on_c, 0, 78, 76
1, 12607, Note_on_c, 1, 56, 0
1, 12608, Note_on_c, 1, 59, 70
1, 12611, Note_on_c, 0, 78, 0
1, 12611, Note_on_c, 0, 76, 76
1, 12618, Note_on_c, 0, 76, 0
1, 12618, Note_on_c, 0, 78, 76
1, 12623, Note_on_c, 1, 59, 0
1, 12624, Note_on_c, 1, 56, 70
1, 12625, Note_on_c, 0, 78, 0
1, 12625, Note_on_c, 0, 76, 76
1, 12632, Note_on_c, 0, 76, 0
1, 12632, Note_on_c, 0, 78, 77
1, 12639, Note_on_c, 0, 78, 0
1, 12639, Note_on_c, 0, 76, 77
1, 12639, Note_on_c, 1, 56, 0
1, 12640, Note_on_c, 1, 59, 71
1, 12646, Note_on_c, 0, 76, 0
1, 12646, Note_on_c, 0, 78, 77
1, 12653, Note_on_c, 0, 78, 0
1, 12653, Note_on_c, 0, 76, 78
1, 12655, Note_on_c, 1, 59, 0
1, 12656, Note_on_c, 1, 62, 71
1, 12660, Note_on_c, 0, 76, 0
1, 12660, Note_on_c, 0, 78, 78
1, 12666, Note_on_c, 0, 78, 0
1, 12666, Note_on_c, 0, 76, 78
1, 12671, Note_on_c, 1, 62, 0
1, 12672, Note_on_c, 1, 61, 71
1, 12687, Note_on_c, 0, 76, 0
1, 12688, Note_on_c, 0, 80, 80
1, 12703, Note_on_c, 0, 80, 0
1, 12704, Note_on_c, 0, 81, 80
1, 12719, Note_on_c, 0, 81, 0
1, 12720, Note_on_c, 0, 85, 80
1, 12735, Note_on_c, 0, 85, 0
1, 12736, Note_on_c, 0, 80, 80
1, 12751, Note_on_c, 0, 80, 0
1, 12752, Note_on_c, 0, 81, 80
1, 12761, Note_on_c, 1, 61, 0
1, 12767, Note_on_c, 0, 81, 0
1, 12768, Note_on_c, 0, 78, 70
1, 12768, Note_on_c, 1, 52, 70
1, 12775, Note_on_c, 0, 78, 0
1, 12775, Note_on_c, 0, 76, 70
1, 12782, Note_on_c, 0, 76, 0
1, 12782, Note_on_c, 0, 78, 70
1, 12783, Note_on_c, 1, 52, 0
1, 12784, Note_on_c, 1, 56, 70
1, 12789, Note_on_c, 0, 78, 0
1, 12789, Note_on_c, 0, 76, 70
1, 12796, Note_on_c, 0, 76, 0
1, 12796, Note_on_c, 0, 78, 71
1, 12799, Note_on_c, 1, 56, 0
1, 12800, Note_on_c, 1, 59, 70
1, 12803, Note_on_c, 0, 78, 0
1, 12803, Note_on_c, 0, 76, 71
1, 12810, Note_on_c, 0, 76, 0
1, 12810, Note_on_c, 0, 78, 71
1, 12815, Note_on_c, 1, 59, 0
1, 12816, Note_on_c, 1, 56, 70
1, 12817, Note_on_c, 0, 78, 0
1, 12817, Note_on_c, 0, 76, 71
1, 12824, Note_on_c, 0, 76, 0
1, 12824, Note_on_c, 0, 78, 72
1, 12831, Note_on_c, 0, 78, 0
1, 12831, Note_on_c, 0, 76, 72
1, 12831, Note_on_c, 1, 56, 0
1, 12832, Note_on_c, 1, 59, 71
1, 12838, Note_on_c, 0, 76, 0
1, 12838, Note_on_c, 0, 78, 72
1, 12845, Note_on_c, 0, 78, 0
1, 12845, Note_on_c, 0, 76, 73
1, 12847, Note_on_c, 1, 59, 0
1, 12848, Note_on_c, 1, 62, 71
1, 12852, Note_on_c, 0, 76, 0
1, 12852, Note_on_c, 0, 78, 73
1, 12858, Note_on_c, 0, 78, 0
1, 12858, Note_on_c, 0, 76, 73
1, 12863, Note_on_c, 1, 62, 0
1, 12864, Note_on_c, 1, 61, 71
1, 12879, Note_on_c, 0, 76, 0
1, 12880, Note_on_c, 0, 80, 75
1, 12895, Note_on_c, 0, 80, 0
1, 12896, Note_on_c, 0, 81, 75
1, 12911, Note_on_c, 0, 81, 0
1, 12912, Note_on_c, 0, 85, 75
1, 12927, Note_on_c, 0, 85, 0
1, 12928, Note_on_c, 0, 80, 75
1, 12943, Note_on_c, 0, 80, 0
1, 12944, Note_on_c, 0, 81, 75
1, 12953, Note_on_c, 1, 61, 0
1, 12959, Note_on_c, 0, 81, 0
1, 12960, Note_on_c, 0, 78, 91
1, 12960, Note_on_c, 1, 50, 75
1, 12966, Note_on_c, 0, 78, 0
1, 12966, Note_on_c, 0, 80, 91
1, 12972, Note_on_c, 0, 80, 0
1, 12972, Note_on_c, 0, 78, 91
1, 12975, Note_on_c, 1, 50, 0
1, 12976, Note_on_c, 1, 54, 75
1, 12991, Note_on_c, 1, 54, 0
1, 12992, Note_on_c, 1, 59, 75
1, 13007, Note_on_c, 1, 59, 0
1, 13008, Note_on_c, 0, 78, 0
1, 13008, Note_on_c, 0, 71, 75
1, 13008, Note_on_c, 1, 62, 75
1, 13023, Note_on_c, 0, 71, 0
1, 13023, Note_on_c, 1, 62, 0
1, 13024, Note_on_c, 0, 73, 75
1, 13024, Note_on_c, 1, 61, 75
1, 13039, Note_on_c, 0, 73, 0
1, 13039, Note_on_c, 1, 61, 0
1, 13040, Note_on_c, 0, 74, 75
1, 13040, Note_on_c, 1, 59, 75
1, 13055, Note_on_c, 0, 74, 0
1, 13055, Note_on_c, 1, 59, 0
1, 13056, Note_on_c, 0, 76, 91
1, 13056, Note_on_c, 1, 49, 75
1, 13062, Note_on_c, 0, 76, 0
1, 13062, Note_on_c, 0, 78, 91
1, 13068, Note_on_c, 0, 78, 0
1, 13068, Note_on_c, 0, 76, 91
1, 13071, Note_on_c, 1, 49, 0
1, 13072, Note_on_c, 1, 52, 75
1, 13087, Note_on_c, 1, 52, 0
1, 13088, Note_on_c, 1, 57, 75
1, 13103, Note_on_c, 1, 57, 0
1, 13104, Note_on_c, 0, 76, 0
1, 13104, Note_on_c, 0, 69, 75
1, 13104, Note_on_c, 1, 61, 75
1, 13119, Note_on_c, 0, 69, 0
1, 13119, Note_on_c, 1, 61, 0
1, 13120, Note_on_c, 0, 71, 75
1, 13120, Note_on_c, 1, 59, 75
1, 13135, Note_on_c, 0, 71, 0
1, 13135, Note_on_c, 1, 59, 0
1, 13136, Note_on_c, 0, 73, 75
1, 13136, Note_on_c, 1, 57, 75
1, 13151, Note_on_c, 0, 73, 0
1, 13151, Note_on_c, 1, 57, 0
1, 13152, Note_on_c, 0, 74, 75
1, 13152, Note_on_c, 1, 56, 75
1, 13167, Note_on_c, 0, 74, 0
1, 13168, Note_on_c, 0, 73, 75
1, 13183, Note_on_c, 0, 73, 0
1, 13184, Note_on_c, 0, 71, 75
1, 13197, Note_on_c, 1, 56, 0
1, 13199, Note_on_c, 0, 71, 0
1, 13200, Note_on_c, 0, 73, 75
1, 13200, Note_on_c, 1, 57, 75
1, 13215, Note_on_c, 0, 73, 0
1, 13215, Note_on_c, 1, 57, 0
1, 13216, Note_on_c, 0, 71, 75
1, 13216, Note_on_c, 1, 59, 75
1, 13231, Note_on_c, 0, 71, 0
1, 13231, Note_on_c, 1, 59, 0
1, 13232, Note_on_c, 0, 69, 75
1, 13232, Note_on_c, 1, 61, 75
1, 13247, Note_on_c, 0, 69, 0
1, 13247, Note_on_c, 1, 61, 0
1, 13248, Note_on_c, 0, 68, 75
1, 13248, Note_on_c, 1, 62, 75
1, 13263, Note_on_c, 0, 68, 0
1, 13263, Note_on_c, 1, 62, 0
1, 13264, Note_on_c, 0, 69, 75
1, 13264, Note_on_c, 1, 61, 75
1, 13279, Note_on_c, 0, 69, 0
1, 13279, Note_on_c, 1, 61, 0
1, 13280, Note_on_c, 0, 71, 75
1, 13280, Note_on_c, 1, 59, 75
1, 13295, Note_on_c, 0, 71, 0
1, 13295, Note_on_c, 1, 59, 0
1, 13296, Note_on_c, 0, 69, 75
1, 13296, Note_on_c, 1, 61, 75
1, 13311, Note_on_c, 0, 69, 0
1, 13311, Note_on_c, 1, 61, 0
1, 13312, Note_on_c, 0, 71, 75
1, 13312, Note_on_c, 1, 59, 75
1, 13327, Note_on_c, 0, 71, 0
1, 13327, Note_on_c, 1, 59, 0
1, 13328, Note_on_c, 0, 73, 75
1, 13328, Note_on_c, 1, 57, 75
1, 13343, Note_on_c, 0, 73, 0
1, 13343, Note_on_c, 1, 57, 0
1, 13344, Note_on_c, 0, 74, 75
1, 13344, Note_on_c, 1, 56, 75
1, 13359, Note_on_c, 0, 74, 0
1, 13360, Note_on_c, 0, 73, 75
1, 13375, Note_on_c, 0, 73, 0
1, 13376, Note_on_c, 0, 71, 75
1, 13389, Note_on_c, 1, 56, 0
1, 13391, Note_on_c, 0, 71, 0
1, 13392, Note_on_c, 0, 73, 75
1, 13392, Note_on_c, 1, 57, 75
1, 13407, Note_on_c, 0, 73, 0
1, 13408, Note_on_c, 0, 71, 75
1, 13423, Note_on_c, 0, 71, 0
1, 13424, Note_on_c, 0, 69, 75
1, 13437, Note_on_c, 1, 57, 0
1, 13439, Note_on_c, 0, 69, 0
1, 13440, Note_on_c, 0, 74, 80
1, 13440, Note_on_c, 1, 56, 80
1, 13440, Note_on_c, 1, 44, 80
1, 13455, Note_on_c, 0, 74, 0
1, 13456, Note_on_c, 0, 71, 80
1, 13471, Note_on_c, 0, 71, 0
1, 13472, Note_on_c, 0, 64, 80
1, 13485, Note_on_c, 1, 56, 0
1, 13485, Note_on_c, 1, 44, 0
1, 13487, Note_on_c, 0, 64, 0
1, 13488, Note_on_c, 0, 73, 80
1, 13488, Note_on_c, 1, 57, 80
1, 13488, Note_on_c, 1, 45, 80
1, 13503, Note_on_c, 0, 73, 0
1, 13504, Note_on_c, 0, 69, 80
1, 13519, Note_on_c, 0, 69, 0
1, 13520, Note_on_c, 0, 64, 80
1, 13533, Note_on_c, 1, 57, 0
1, 13533, Note_on_c, 1, 45, 0
1, 13535, Note_on_c, 0, 64, 0
1, 13536, Note_on_c, 0, 71, 75
1, 13536, Note_on_c, 1, 54, 64
1, 13536, Note_on_c, 1, 50, 64
1, 13542, Note_on_c, 0, 71, 0
1, 13542, Note_on_c, 0, 73, 75
1, 13548, Note_on_c, 0, 73, 0
1, 13548, Note_on_c, 0, 71, 75
1, 13554, Note_on_c, 0, 71, 0
1, 13554, Note_on_c, 0, 70, 75
1, 13569, Note_on_c, 0, 70, 0
1, 13569, Note_on_c, 0, 71, 75
1, 13583, Note_on_c, 1, 54, 0
1, 13583, Note_on_c, 1, 50, 0
1, 13584, Note_on_c, 0, 71, 0
1, 13584, Note_on_c, 0, 71, 75
1, 13584, Note_on_c, 1, 54, 64
1, 13584, Note_on_c, 1, 50, 64
1, 13590, Note_on_c, 0, 71, 0
1, 13590, Note_on_c, 0, 73, 75
1, 13596, Note_on_c, 0, 73, 0
1, 13596, Note_on_c, 0, 71, 75
1, 13602, Note_on_c, 0, 71, 0
1, 13602, Note_on_c, 0, 70, 75
1, 13617, Note_on_c, 0, 70, 0
1, 13617, Note_on_c, 0, 71, 75
1, 13631, Note_on_c, 1, 54, 0
1, 13631, Note_on_c, 1, 50, 0
1, 13632, Note_on_c, 0, 71, 0
1, 13632, Note_on_c, 0, 76, 75
1, 13632, Note_on_c, 1, 52, 64
1, 13632, Note_on_c, 1, 49, 75
1, 13647, Note_on_c, 0, 76, 0
1, 13648, Note_on_c, 0, 73, 75
1, 13663, Note_on_c, 0, 73, 0
1, 13664, Note_on_c, 0, 69, 75
1, 13677, Note_on_c, 1, 52, 0
1, 13679, Note_on_c, 0, 69, 0
1, 13680, Note_on_c, 0, 81, 75
1, 13695, Note_on_c, 0, 81, 0
1, 13696, Note_on_c, 0, 78, 75
1, 13699, Note_on_c, 1, 49, 0
1, 13704, Note_on_c, 1, 54, 75
1, 13711, Note_on_c, 0, 78, 0
1, 13712, Note_on_c, 0, 74, 75
1, 13727, Note_on_c, 0, 74, 0
1, 13727, Note_on_c, 1, 54, 0
1, 13728, Note_on_c, 0, 73, 75
1, 13728, Note_on_c, 1, 52, 75
1, 13773, Note_on_c, 0, 73, 0
1, 13773, Note_on_c, 1, 52, 0
1, 13776, Note_on_c, 0, 73, 75
1, 13776, Note_on_c, 1, 40, 75
1, 13783, Note_on_c, 0, 73, 0
1, 13783, Note_on_c, 0, 71, 75
1, 13790, Note_on_c, 0, 71, 0
1, 13790, Note_on_c, 0, 73, 75
1, 13797, Note_on_c, 0, 73, 0
1, 13797, Note_on_c, 0, 71, 75
1, 13804, Note_on_c, 0, 71, 0
1, 13804, Note_on_c, 0, 73, 75
1, 13811, Note_on_c, 0, 73, 0
1, 13811, Note_on_c, 0, 69, 75
1, 13818, Note_on_c, 0, 69, 0
1, 13818, Note_on_c, 0, 71, 75
1, 13821, Note_on_c, 1, 40, 0
1, 13824, Note_on_c, 0, 71, 0
1, 13824, Note_on_c, 0, 69, 75
1, 13824, Note_on_c, 1, 45, 75
1, 13869, Note_on_c, 0, 69, 0
1, 13872, Note_on_c, 0, 69, 70
1, 13872, Note_on_c, 1, 49, 64
1, 13879, Note_on_c, 0, 69, 0
1, 13888, Note_on_c, 0, 69, 70
1, 13903, Note_on_c, 0, 69, 0
1, 13904, Note_on_c, 0, 64, 70
1, 13917, Note_on_c, 1, 49, 0
1, 13919, Note_on_c, 0, 64, 0
1, 13920, Note_on_c, 0, 66, 70
1, 13920, Note_on_c, 1, 50, 64
1, 13927, Note_on_c, 0, 66, 0
1, 13936, Note_on_c, 0, 66, 70
1, 13951, Note_on_c, 0, 66, 0
1, 13952, Note_on_c, 0, 62, 70
1, 13965, Note_on_c, 1, 50, 0
1, 13967, Note_on_c, 0, 62, 0
1, 13968, Note_on_c, 0, 59, 70
1, 13968, Note_on_c, 1, 50, 64
1, 13983, Note_on_c, 0, 59, 0
1, 13984, Note_on_c, 0, 64, 70
1, 13999, Note_on_c, 0, 64, 0
1, 14000, Note_on_c, 0, 56, 70
1, 14013, Note_on_c, 1, 50, 0
1, 14015, Note_on_c, 0, 56, 0
1, 14016, Note_on_c, 0, 57, 70
1, 14016, Note_on_c, 1, 49, 64
1, 14061, Note_on_c, 0, 57, 0
1, 14061, Note_on_c, 1, 49, 0
1, 14064, Note_on_c, 0, 69, 70
1, 14064, Note_on_c, 1, 49, 64
1, 14071, Note_on_c, 0, 69, 0
1, 14080, Note_on_c, 0, 69, 70
1, 14095, Note_on_c, 0, 69, 0
1, 14096, Note_on_c, 0, 64, 70
1, 14109, Note_on_c, 1, 49, 0
1, 14111, Note_on_c, 0, 64, 0
1, 14112, Note_on_c, 0, 66, 70
1, 14112, Note_on_c, 1, 50, 64
1, 14119, Note_on_c, 0, 66, 0
1, 14128, Note_on_c, 0, 66, 70
1, 14143, Note_on_c, 0, 66, 0
1, 14144, Note_on_c, 0, 62, 70
1, 14157, Note_on_c, 1, 50, 0
1, 14159, Note_on_c, 0, 62, 0
1, 14160, Note_on_c, 0, 74, 70
1, 14160, Note_on_c, 1, 47, 64
1, 14167, Note_on_c, 0, 74, 0
1, 14176, Note_on_c, 0, 74, 70
1, 14191, Note_on_c, 0, 74, 0
1, 14192, Note_on_c, 0, 68, 70
1, 14193, Note_on_c, 1, 45, 0
1, 14205, Note_on_c, 1, 47, 0
1, 14207, Note_on_c, 0, 68, 0
1, 14208, Note_on_c, 0, 71, 70
1, 14208, Note_on_c, 1, 49, 64
1, 14208, Note_on_c, 1, 45, 64
1, 14214, Note_on_c, 0, 71, 0
1, 14214, Note_on_c, 0, 69, 70
1, 14220, Note_on_c, 0, 69, 0
1, 14220, Note_on_c, 0, 68, 70
1, 14226, Note_on_c, 0, 68, 0
1, 14226, Note_on_c, 0, 69, 70
1, 14253, Note_on_c, 1, 49, 0
1, 14253, Note_on_c, 1, 45, 0
1, 14256, Note_on_c, 1, 57, 64
1, 14323, Note_on_c, 1, 57, 0
1, 14341, Note_on_c, 0, 69, 0
1, 14400, Note_on_c, 0, 76, 80
1, 14406, Note_on_c, 0, 76, 0
1, 14406, Note_on_c, 0, 75, 80
1, 14412, Note_on_c, 0, 75, 0
1, 14412, Note_on_c, 0, 76, 80
1, 14416, Note_on_c, 1, 64, 75
1, 14431, Note_on_c, 1, 64, 0
1, 14432, Note_on_c, 1, 68, 75
1, 14443, Note_on_c, 0, 76, 0
1, 14447, Note_on_c, 1, 68, 0
1, 14448, Note_on_c, 0, 76, 80
1, 14454, Note_on_c, 0, 76, 0
1, 14454, Note_on_c, 0, 75, 80
1, 14460, Note_on_c, 0, 75, 0
1, 14460, Note_on_c, 0, 76, 80
1, 14464, Note_on_c, 1, 66, 76
1, 14479, Note_on_c, 1, 66, 0
1, 14480, Note_on_c, 1, 69, 76
1, 14491, Note_on_c, 0, 76, 0
1, 14495, Note_on_c, 1, 69, 0
1, 14496, Note_on_c, 0, 76, 80
1, 14502, Note_on_c, 0, 76, 0
1, 14502, Note_on_c, 0, 75, 80
1, 14508, Note_on_c, 0, 75, 0
1, 14508, Note_on_c, 0, 76, 80
1, 14512, Note_on_c, 1, 68, 77
1, 14527, Note_on_c, 1, 68, 0
1, 14528, Note_on_c, 1, 71, 78
1, 14539, Note_on_c, 0, 76, 0
1, 14543, Note_on_c, 1, 71, 0
1, 14544, Note_on_c, 0, 76, 80
1, 14550, Note_on_c, 0, 76, 0
1, 14550, Note_on_c, 0, 75, 80
1, 14556, Note_on_c, 0, 75, 0
1, 14556, Note_on_c, 0, 76, 80
1, 14560, Note_on_c, 1, 69, 79
1, 14575, Note_on_c, 1, 69, 0
1, 14576, Note_on_c, 1, 73, 79
1, 14587, Note_on_c, 0, 76, 0
1, 14591, Note_on_c, 1, 73, 0
1, 14592, Note_on_c, 0, 78, 80
1, 14592, Note_on_c, 1, 71, 79
1, 14599, Note_on_c, 0, 78, 0
1, 14599, Note_on_c, 0, 76, 80
1, 14606, Note_on_c, 0, 76, 0
1, 14606, Note_on_c, 0, 78, 80
1, 14607, Note_on_c, 1, 71, 0
1, 14608, Note_on_c, 1, 74, 79
1, 14613, Note_on_c, 0, 78, 0
1, 14613, Note_on_c, 0, 76, 80
1, 14620, Note_on_c, 0, 76, 0
1, 14620, Note_on_c, 0, 78, 80
1, 14623, Note_on_c, 1, 74, 0
1, 14624, Note_on_c, 1, 71, 79
1, 14627, Note_on_c, 0, 78, 0
1, 14627, Note_on_c, 0, 76, 80
1, 14634, Note_on_c, 0, 76, 0
1, 14634, Note_on_c, 0, 78, 80
1, 14639, Note_on_c, 1, 71, 0
1, 14640, Note_on_c, 1, 68, 78
1, 14641, Note_on_c, 0, 78, 0
1, 14641, Note_on_c, 0, 76, 80
1, 14648, Note_on_c, 0, 76, 0
1, 14648, Note_on_c, 0, 78, 80
1, 14655, Note_on_c, 0, 78, 0
1, 14655, Note_on_c, 0, 76, 80
1, 14655, Note_on_c, 1, 68, 0
1, 14656, Note_on_c, 1, 71, 78
1, 14662, Note_on_c, 0, 76, 0
1, 14662, Note_on_c, 0, 78, 80
1, 14669, Note_on_c, 0, 78, 0
1, 14669, Note_on_c, 0, 76, 80
1, 14671, Note_on_c, 1, 71, 0
1, 14672, Note_on_c, 1, 68, 78
1, 14676, Note_on_c, 0, 76, 0
1, 14676, Note_on_c, 0, 78, 80
1, 14683, Note_on_c, 0, 78, 0
1, 14683, Note_on_c, 0, 76, 80
1, 14687, Note_on_c, 1, 68, 0
1, 14688, Note_on_c, 1, 64, 77
1, 14690, Note_on_c, 0, 76, 0
1, 14690, Note_on_c, 0, 78, 80
1, 14697, Note_on_c, 0, 78, 0
1, 14697, Note_on_c, 0, 76, 80
1, 14704, Note_on_c, 0, 76, 0
1, 14704, Note_on_c, 0, 78, 80
1, 14711, Note_on_c, 0, 78, 0
1, 14711, Note_on_c, 0, 76, 80
1, 14718, Note_on_c, 0, 76, 0
1, 14718, Note_on_c, 0, 78, 80
1, 14725, Note_on_c, 0, 78, 0
1, 14725, Note_on_c, 0, 76, 80
1, 14732, Note_on_c, 0, 76, 0
1, 14732, Note_on_c, 0, 78, 80
1, 14733, Note_on_c, 1, 64, 0
1, 14736, Note_on_c, 1, 52, 80
1, 14736, Note_on_c, 1, 40, 80
1, 14739, Note_on_c, 0, 78, 0
1, 14739, Note_on_c, 0, 76, 80
1, 14746, Note_on_c, 0, 76, 0
1, 14746, Note_on_c, 0, 78, 80
1, 14753, Note_on_c, 0, 78, 0
1, 14753, Note_on_c, 0, 76, 80
1, 14760, Note_on_c, 0, 76, 0
1, 14760, Note_on_c, 0, 78, 80
1, 14766, Note_on_c, 0, 78, 0
1, 14766, Note_on_c, 0, 76, 80
1, 14772, Note_on_c, 0, 76, 0
1, 14772, Note_on_c, 0, 78, 80
1, 14778, Note_on_c, 0, 78, 0
1, 14778, Note_on_c, 0, 76, 80
1, 14781, Note_on_c, 1, 52, 0
1, 14781, Note_on_c, 1, 40, 0
1, 14784, Note_on_c, 0, 76, 0
1, 14784, Note_on_c, 0, 78, 80
1, 14784, Note_on_c, 1, 33, 80
1, 14791, Note_on_c, 0, 78, 0
1, 14791, Note_on_c, 0, 76, 80
1, 14798, Note_on_c, 0, 76, 0
1, 14798, Note_on_c, 0, 78, 80
1, 14799, Note_on_c, 1, 33, 0
1, 14800, Note_on_c, 1, 45, 80
1, 14805, Note_on_c, 0, 78, 0
1, 14805, Note_on_c, 0, 76, 80
1, 14812, Note_on_c, 0, 76, 0
1, 14812, Note_on_c, 0, 78, 80
1, 14815, Note_on_c, 1, 45, 0
1, 14816, Note_on_c, 1, 49, 81
1, 14819, Note_on_c, 0, 78, 0
1, 14819, Note_on_c, 0, 76, 80
1, 14826, Note_on_c, 0, 76, 0
1, 14826, Note_on_c, 0, 78, 80
1, 14831, Note_on_c, 1, 49, 0
1, 14832, Note_on_c, 1, 52, 82
1, 14833, Note_on_c, 0, 78, 0
1, 14833, Note_on_c, 0, 76, 80
1, 14840, Note_on_c, 0, 76, 0
1, 14840, Note_on_c, 0, 78, 80
1, 14847, Note_on_c, 0, 78, 0
1, 14847, Note_on_c, 0, 76, 80
1, 14847, Note_on_c, 1, 52, 0
1, 14848, Note_on_c, 1, 57, 82
1, 14854, Note_on_c, 0, 76, 0
1, 14854, Note_on_c, 0, 78, 80
1, 14861, Note_on_c, 0, 78, 0
1, 14861, Note_on_c, 0, 76, 80
1, 14863, Note_on_c, 1, 57, 0
1, 14864, Note_on_c, 1, 61, 83
1, 14868, Note_on_c, 0, 76, 0
1, 14868, Note_on_c, 0, 78, 80
1, 14875, Note_on_c, 0, 78, 0
1, 14875, Note_on_c, 0, 76, 80
1, 14879, Note_on_c, 1, 61, 0
1, 14880, Note_on_c, 1, 64, 84
1, 14882, Note_on_c, 0, 76, 0
1, 14882, Note_on_c, 0, 78, 80
1, 14889, Note_on_c, 0, 78, 0
1, 14889, Note_on_c, 0, 76, 80
1, 14895, Note_on_c, 1, 64, 0
1, 14896, Note_on_c, 0, 76, 0
1, 14896, Note_on_c, 0, 78, 80
1, 14896, Note_on_c, 1, 61, 84
1, 14903, Note_on_c, 0, 78, 0
1, 14903, Note_on_c, 0, 76, 80
1, 14910, Note_on_c, 0, 76, 0
1, 14910, Note_on_c, 0, 78, 80
1, 14911, Note_on_c, 1, 61, 0
1, 14912, Note_on_c, 1, 57, 85
1, 14917, Note_on_c, 0, 78, 0
1, 14917, Note_on_c, 0, 76, 80
1, 14924, Note_on_c, 0, 76, 0
1, 14924, Note_on_c, 0, 78, 80
1, 14927, Note_on_c, 1, 57, 0
1, 14928, Note_on_c, 1, 52, 86
1, 14931, Note_on_c, 0, 78, 0
1, 14931, Note_on_c, 0, 76, 80
1, 14938, Note_on_c, 0, 76, 0
1, 14938, Note_on_c, 0, 78, 80
1, 14943, Note_on_c, 1, 52, 0
1, 14944, Note_on_c, 1, 62, 85
1, 14945, Note_on_c, 0, 78, 0
1, 14945, Note_on_c, 0, 76, 80
1, 14952, Note_on_c, 0, 76, 0
1, 14952, Note_on_c, 0, 78, 80
1, 14958, Note_on_c, 0, 78, 0
1, 14958, Note_on_c, 0, 76, 80
1, 14959, Note_on_c, 1, 62, 0
1, 14960, Note_on_c, 1, 59, 85
1, 14964, Note_on_c, 0, 76, 0
1, 14964, Note_on_c, 0, 78, 80
1, 14970, Note_on_c, 0, 78, 0
1, 14970, Note_on_c, 0, 76, 80
1, 14975, Note_on_c, 1, 59, 0
1, 14976, Note_on_c, 1, 61, 84
1, 14991, Note_on_c, 0, 76, 0
1, 14992, Note_on_c, 0, 81, 80
1, 15007, Note_on_c, 0, 81, 0
1, 15008, Note_on_c, 0, 80, 80
1, 15023, Note_on_c, 0, 80, 0
1, 15024, Note_on_c, 0, 81, 80
1, 15039, Note_on_c, 0, 81, 0
1, 15040, Note_on_c, 0, 76, 80
1, 15055, Note_on_c, 0, 76, 0
1, 15056, Note_on_c, 0, 73, 80
1, 15065, Note_on_c, 1, 61, 0
1, 15071, Note_on_c, 0, 73, 0
1, 15072, Note_on_c, 0, 69, 80
1, 15079, Note_on_c, 0, 69, 0
1, 15088, Note_on_c, 0, 69, 80
1, 15103, Note_on_c, 0, 69, 0
1, 15104, Note_on_c, 0, 73, 80
1, 15119, Note_on_c, 0, 73, 0
1, 15120, Note_on_c, 0, 71, 80
1, 15120, Note_on_c, 1, 56, 75
1, 15120, Note_on_c, 1, 52, 75
1, 15127, Note_on_c, 0, 71, 0
1, 15136, Note_on_c, 0, 71, 80
1, 15151, Note_on_c, 0, 71, 0
1, 15152, Note_on_c, 0, 74, 80
1, 15165, Note_on_c, 1, 56, 0
1, 15165, Note_on_c, 1, 52, 0
1, 15167, Note_on_c, 0, 74, 0
1, 15168, Note_on_c, 0, 73, 80
1, 15168, Note_on_c, 1, 57, 75
1, 15168, Note_on_c, 1, 45, 75
1, 15183, Note_on_c, 0, 73, 0
1, 15184, Note_on_c, 0, 81, 80
1, 15199, Note_on_c, 0, 81, 0
1, 15200, Note_on_c, 0, 80, 80
1, 15215, Note_on_c, 0, 80, 0
1, 15216, Note_on_c, 0, 81, 80
1, 15231, Note_on_c, 0, 81, 0
1, 15232, Note_on_c, 0, 76, 80
1, 15247, Note_on_c, 0, 76, 0
1, 15248, Note_on_c, 0, 73, 80
1, 15257, Note_on_c, 1, 57, 0
1, 15257, Note_on_c, 1, 45, 0
1, 15263, Note_on_c, 0, 73, 0
1, 15264, Note_on_c, 0, 69, 80
1, 15279, Note_on_c, 0, 69, 0
1, 15280, Note_on_c, 0, 79, 80
1, 15287, Note_on_c, 0, 79, 0
1, 15296, Note_on_c, 0, 79, 80
1, 15311, Note_on_c, 0, 79, 0
1, 15312, Note_on_c, 0, 79, 80
1, 15312, Note_on_c, 1, 61, 75
1, 15312, Note_on_c, 1, 57, 75
1, 15327, Note_on_c, 0, 79, 0
1, 15328, Note_on_c, 0, 78, 80
1, 15343, Note_on_c, 0, 78, 0
1, 15344, Note_on_c, 0, 76, 80
1, 15357, Note_on_c, 1, 61, 0
1, 15357, Note_on_c, 1, 57, 0
1, 15359, Note_on_c, 0, 76, 0
1, 15360, Note_on_c, 0, 79, 80
1, 15360, Note_on_c, 1, 50, 75
1, 15367, Note_on_c, 0, 79, 0
1, 15367, Note_on_c, 0, 78, 80
1, 15374, Note_on_c, 0, 78, 0
1, 15374, Note_on_c, 0, 79, 80
1, 15375, Note_on_c, 1, 50, 0
1, 15376, Note_on_c, 1, 54, 75
1, 15381, Note_on_c, 0, 79, 0
1, 15381, Note_on_c, 0, 78, 80
1, 15388, Note_on_c, 0, 78, 0
1, 15388, Note_on_c, 0, 79, 80
1, 15391, Note_on_c, 1, 54, 0
1, 15392, Note_on_c, 1, 57, 75
1, 15395, Note_on_c, 0, 79, 0
1, 15395, Note_on_c, 0, 78, 80
1, 15402, Note_on_c, 0, 78, 0
1, 15402, Note_on_c, 0, 79, 80
1, 15407, Note_on_c, 1, 57, 0
1, 15408, Note_on_c, 1, 62, 75
1, 15409, Note_on_c, 0, 79, 0
1, 15409, Note_on_c, 0, 78, 80
1, 15416, Note_on_c, 0, 78, 0
1, 15416, Note_on_c, 0, 79, 80
1, 15423, Note_on_c, 0, 79, 0
1, 15423, Note_on_c, 0, 78, 80
1, 15423, Note_on_c, 1, 62, 0
1, 15424, Note_on_c, 1, 66, 76
1, 15430, Note_on_c, 0, 78, 0
1, 15430, Note_on_c, 0, 79, 80
1, 15437, Note_on_c, 0, 79, 0
1, 15437, Note_on_c, 0, 78, 80
1, 15439, Note_on_c, 1, 66, 0
1, 15440, Note_on_c, 1, 69, 76
1, 15444, Note_on_c, 0, 78, 0
1, 15444, Note_on_c, 0, 79, 80
1, 15450, Note_on_c, 0, 79, 0
1, 15450, Note_on_c, 0, 78, 80
1, 15455, Note_on_c, 1, 69, 0
1, 15456, Note_on_c, 1, 62, 76
1, 15471, Note_on_c, 0, 78, 0
1, 15472, Note_on_c, 0, 86, 80
1, 15487, Note_on_c, 0, 86, 0
1, 15488, Note_on_c, 0, 81, 80
1, 15503, Note_on_c, 0, 81, 0
1, 15504, Note_on_c, 0, 78, 80
1, 15519, Note_on_c, 0, 78, 0
1, 15520, Note_on_c, 0, 74, 80
1, 15535, Note_on_c, 0, 74, 0
1, 15536, Note_on_c, 0, 78, 80
1, 15545, Note_on_c, 1, 62, 0
1, 15551, Note_on_c, 0, 78, 0
1, 15552, Note_on_c, 0, 78, 80
1, 15552, Note_on_c, 1, 45, 75
1, 15559, Note_on_c, 0, 78, 0
1, 15559, Note_on_c, 0, 76, 80
1, 15566, Note_on_c, 0, 76, 0
1, 15566, Note_on_c, 0, 78, 80
1, 15567, Note_on_c, 1, 45, 0
1, 15568, Note_on_c, 1, 49, 75
1, 15573, Note_on_c, 0, 78, 0
1, 15573, Note_on_c, 0, 76, 80
1, 15580, Note_on_c, 0, 76, 0
1, 15580, Note_on_c, 0, 78, 80
1, 15583, Note_on_c, 1, 49, 0
1, 15584, Note_on_c, 1, 52, 76
1, 15587, Note_on_c, 0, 78, 0
1, 15587, Note_on_c, 0, 76, 80
1, 15594, Note_on_c, 0, 76, 0
1, 15594, Note_on_c, 0, 78, 80
1, 15599, Note_on_c, 1, 52, 0
1, 15600, Note_on_c, 1, 57, 76
1, 15601, Note_on_c, 0, 78, 0
1, 15601, Note_on_c, 0, 76, 80
1, 15608, Note_on_c, 0, 76, 0
1, 15608, Note_on_c, 0, 78, 80
1, 15615, Note_on_c, 0, 78, 0
1, 15615, Note_on_c, 0, 76, 80
1, 15615, Note_on_c, 1, 57, 0
1, 15616, Note_on_c, 1, 61, 77
1, 15622, Note_on_c, 0, 76, 0
1, 15622, Note_on_c, 0, 78, 80
1, 15629, Note_on_c, 0, 78, 0
1, 15629, Note_on_c, 0, 76, 80
1, 15631, Note_on_c, 1, 61, 0
1, 15632, Note_on_c, 1, 64, 78
1, 15636, Note_on_c, 0, 76, 0
1, 15636, Note_on_c, 0, 78, 80
1, 15642, Note_on_c, 0, 78, 0
1, 15642, Note_on_c, 0, 76, 80
1, 15647, Note_on_c, 1, 64, 0
1, 15648, Note_on_c, 1, 57, 80
1, 15663, Note_on_c, 0, 76, 0
1, 15664, Note_on_c, 0, 85, 80
1, 15679, Note_on_c, 0, 85, 0
1, 15680, Note_on_c, 0, 81, 80
1, 15695, Note_on_c, 0, 81, 0
1, 15696, Note_on_c, 0, 76, 80
1, 15711, Note_on_c, 0, 76, 0
1, 15712, Note_on_c, 0, 73, 80
1, 15727, Note_on_c, 0, 73, 0
1, 15728, Note_on_c, 0, 76, 80
1, 15737, Note_on_c, 1, 57, 0
1, 15743, Note_on_c, 0, 76, 0
1, 15744, Note_on_c, 0, 76, 80
1, 15744, Note_on_c, 1, 52, 75
1, 15751, Note_on_c, 0, 76, 0
1, 15751, Note_on_c, 0, 74, 80
1, 15758, Note_on_c, 0, 74, 0
1, 15758, Note_on_c, 0, 76, 80
1, 15759, Note_on_c, 1, 52, 0
1, 15760, Note_on_c, 1, 56, 75
1, 15765, Note_on_c, 0, 76, 0
1, 15765, Note_on_c, 0, 74, 80
1, 15772, Note_on_c, 0, 74, 0
1, 15772, Note_on_c, 0, 76, 80
1, 15775, Note_on_c, 1, 56, 0
1, 15776, Note_on_c, 1, 59, 76
1, 15779, Note_on_c, 0, 76, 0
1, 15779, Note_on_c, 0, 74, 80
1, 15786, Note_on_c, 0, 74, 0
1, 15786, Note_on_c, 0, 76, 80
1, 15791, Note_on_c, 1, 59, 0
1, 15792, Note_on_c, 1, 64, 76
1, 15793, Note_on_c, 0, 76, 0
1, 15793, Note_on_c, 0, 74, 80
1, 15800, Note_on_c, 0, 74, 0
1, 15800, Note_on_c, 0, 76, 80
1, 15807, Note_on_c, 0, 76, 0
1, 15807, Note_on_c, 0, 74, 80
1, 15807, Note_on_c, 1, 64, 0
1, 15808, Note_on_c, 1, 68, 77
1, 15814, Note_on_c, 0, 74, 0
1, 15814, Note_on_c, 0, 76, 80
1, 15821, Note_on_c, 0, 76, 0
1, 15821, Note_on_c, 0, 74, 80
1, 15823, Note_on_c, 1, 68, 0
1, 15824, Note_on_c, 1, 71, 78
1, 15828, Note_on_c, 0, 74, 0
1, 15828, Note_on_c, 0, 76, 80
1, 15834, Note_on_c, 0, 76, 0
1, 15834, Note_on_c, 0, 74, 80
1, 15839, Note_on_c, 1, 71, 0
1, 15840, Note_on_c, 1, 64, 80
1, 15855, Note_on_c, 0, 74, 0
1, 15856, Note_on_c, 0, 83, 73
1, 15871, Note_on_c, 0, 83, 0
1, 15872, Note_on_c, 0, 80, 72
1, 15887, Note_on_c, 0, 80, 0
1, 15888, Note_on_c, 0, 74, 70
1, 15903, Note_on_c, 0, 74, 0
1, 15904, Note_on_c, 0, 71, 69
1, 15919, Note_on_c, 0, 71, 0
1, 15920, Note_on_c, 0, 74, 68
1, 15929, Note_on_c, 1, 64, 0
1, 15935, Note_on_c, 0, 74, 0
1, 15936, Note_on_c, 0, 73, 64
1, 15936, Note_on_c, 1, 45, 64
1, 15951, Note_on_c, 0, 73, 0
1, 15952, Note_on_c, 0, 76, 64
1, 15967, Note_on_c, 0, 76, 0
1, 15968, Note_on_c, 0, 74, 64
1, 15983, Note_on_c, 0, 74, 0
1, 15984, Note_on_c, 0, 73, 64
1, 15991, Note_on_c, 0, 73, 0
1, 16000, Note_on_c, 0, 73, 65
1, 16015, Note_on_c, 0, 73, 0
1, 16016, Note_on_c, 0, 71, 65
1, 16031, Note_on_c, 0, 71, 0
1, 16032, Note_on_c, 0, 69, 65
1, 16039, Note_on_c, 0, 69, 0
1, 16048, Note_on_c, 0, 69, 65
1, 16063, Note_on_c, 0, 69, 0
1, 16064, Note_on_c, 0, 68, 66
1, 16069, Note_on_c, 1, 45, 0
1, 16079, Note_on_c, 0, 68, 0
1, 16080, Note_on_c, 0, 66, 66
1, 16080, Note_on_c, 1, 45, 67
1, 16087, Note_on_c, 0, 66, 0
1, 16096, Note_on_c, 0, 66, 66
1, 16111, Note_on_c, 0, 66, 0
1, 16112, Note_on_c, 0, 64, 66
1, 16125, Note_on_c, 1, 45, 0
1, 16127, Note_on_c, 0, 64, 0
1, 16128, Note_on_c, 0, 62, 67
1, 16128, Note_on_c, 1, 47, 68
1, 16143, Note_on_c, 0, 62, 0
1, 16144, Note_on_c, 0, 78, 67
1, 16159, Note_on_c, 0, 78, 0
1, 16160, Note_on_c, 0, 76, 67
1, 16175, Note_on_c, 0, 76, 0
1, 16176, Note_on_c, 0, 74, 67
1, 16183, Note_on_c, 0, 74, 0
1, 16192, Note_on_c, 0, 74, 68
1, 16207, Note_on_c, 0, 74, 0
1, 16208, Note_on_c, 0, 73, 68
1, 16223, Note_on_c, 0, 73, 0
1, 16224, Note_on_c, 0, 71, 68
1, 16231, Note_on_c, 0, 71, 0
1, 16240, Note_on_c, 0, 71, 68
1, 16255, Note_on_c, 0, 71, 0
1, 16256, Note_on_c, 0, 69, 69
1, 16261, Note_on_c, 1, 47, 0
1, 16271, Note_on_c, 0, 69, 0
1, 16272, Note_on_c, 0, 68, 69
1, 16272, Note_on_c, 1, 47, 71
1, 16279, Note_on_c, 0, 68, 0
1, 16288, Note_on_c, 0, 68, 69
1, 16303, Note_on_c, 0, 68, 0
1, 16304, Note_on_c, 0, 66, 69
1, 16317, Note_on_c, 1, 47, 0
1, 16319, Note_on_c, 0, 66, 0
1, 16320, Note_on_c, 0, 64, 70
1, 16320, Note_on_c, 1, 49, 72
1, 16335, Note_on_c, 0, 64, 0
1, 16336, Note_on_c, 0, 80, 70
1, 16351, Note_on_c, 0, 80, 0
1, 16352, Note_on_c, 0, 78, 70
1, 16367, Note_on_c, 0, 78, 0
1, 16368, Note_on_c, 0, 76, 70
1, 16375, Note_on_c, 0, 76, 0
1, 16384, Note_on_c, 0, 76, 71
1, 16399, Note_on_c, 0, 76, 0
1, 16400, Note_on_c, 0, 74, 71
1, 16415, Note_on_c, 0, 74, 0
1, 16416, Note_on_c, 0, 73, 71
1, 16423, Note_on_c, 0, 73, 0
1, 16432, Note_on_c, 0, 73, 71
1, 16447, Note_on_c, 0, 73, 0
1, 16448, Note_on_c, 0, 71, 72
1, 16453, Note_on_c, 1, 49, 0
1, 16463, Note_on_c, 0, 71, 0
1, 16464, Note_on_c, 0, 69, 72
1, 16464, Note_on_c, 1, 49, 75
1, 16471, Note_on_c, 0, 69, 0
1, 16480, Note_on_c, 0, 69, 72
1, 16495, Note_on_c, 0, 69, 0
1, 16496, Note_on_c, 0, 68, 72
1, 16509, Note_on_c, 1, 49, 0
1, 16511, Note_on_c, 0, 68, 0
1, 16512, Note_on_c, 0, 66, 73
1, 16512, Note_on_c, 1, 50, 76
1, 16527, Note_on_c, 0, 66, 0
1, 16528, Note_on_c, 0, 81, 73
1, 16543, Note_on_c, 0, 81, 0
1, 16544, Note_on_c, 0, 80, 73
1, 16559, Note_on_c, 0, 80, 0
1, 16560, Note_on_c, 0, 78, 73
1, 16567, Note_on_c, 0, 78, 0
1, 16576, Note_on_c, 0, 78, 74
1, 16591, Note_on_c, 0, 78, 0
1, 16592, Note_on_c, 0, 76, 74
1, 16607, Note_on_c, 0, 76, 0
1, 16608, Note_on_c, 0, 74, 74
1, 16615, Note_on_c, 0, 74, 0
1, 16624, Note_on_c, 0, 74, 74
1, 16639, Note_on_c, 0, 74, 0
1, 16640, Note_on_c, 0, 73, 75
1, 16645, Note_on_c, 1, 50, 0
1, 16655, Note_on_c, 0, 73, 0
1, 16656, Note_on_c, 0, 71, 75
1, 16656, Note_on_c, 1, 51, 79
1, 16663, Note_on_c, 0, 71, 0
1, 16672, Note_on_c, 0, 71, 75
1, 16687, Note_on_c, 0, 71, 0
1, 16688, Note_on_c, 0, 69, 75
1, 16701, Note_on_c, 1, 51, 0
1, 16703, Note_on_c, 0, 69, 0
1, 16704, Note_on_c, 0, 68, 80
1, 16704, Note_on_c, 1, 52, 80
1, 16719, Note_on_c, 0, 68, 0
1, 16720, Note_on_c, 0, 83, 80
1, 16735, Note_on_c, 0, 83, 0
1, 16736, Note_on_c, 0, 81, 80
1, 16749, Note_on_c, 1, 52, 0
1, 16751, Note_on_c, 0, 81, 0
1, 16752, Note_on_c, 0, 80, 80
1, 16752, Note_on_c, 1, 56, 80
1, 16759, Note_on_c, 0, 80, 0
1, 16768, Note_on_c, 0, 80, 80
1, 16783, Note_on_c, 0, 80, 0
1, 16784, Note_on_c, 0, 78, 80
1, 16797, Note_on_c, 1, 56, 0
1, 16799, Note_on_c, 0, 78, 0
1, 16800, Note_on_c, 0, 76, 80
1, 16800, Note_on_c, 1, 59, 80
1, 16807, Note_on_c, 0, 76, 0
1, 16816, Note_on_c, 0, 76, 80
1, 16831, Note_on_c, 0, 76, 0
1, 16832, Note_on_c, 0, 74, 80
1, 16845, Note_on_c, 1, 59, 0
1, 16847, Note_on_c, 0, 74, 0
1, 16848, Note_on_c, 0, 73, 80
1, 16848, Note_on_c, 1, 64, 80
1, 16863, Note_on_c, 0, 73, 0
1, 16864, Note_on_c, 0, 74, 80
1, 16879, Note_on_c, 0, 74, 0
1, 16880, Note_on_c, 0, 71, 80
1, 16893, Note_on_c, 1, 64, 0
1, 16895, Note_on_c, 0, 71, 0
1, 16896, Note_on_c, 0, 73, 80
1, 16896, Note_on_c, 1, 57, 80
1, 16911, Note_on_c, 0, 73, 0
1, 16911, Note_on_c, 1, 57, 0
1, 16912, Note_on_c, 0, 71, 80
1, 16912, Note_on_c, 1, 61, 80
1, 16927, Note_on_c, 0, 71, 0
1, 16927, Note_on_c, 1, 61, 0
1, 16928, Note_on_c, 0, 69, 80
1, 16928, Note_on_c, 1, 64, 80
1, 16943, Note_on_c, 0, 69, 0
1, 16943, Note_on_c, 1, 64, 0
1, 16944, Note_on_c, 0, 76, 80
1, 16944, Note_on_c, 1, 57, 80
1, 16959, Note_on_c, 1, 57, 0
1, 16960, Note_on_c, 1, 61, 80
1, 16975, Note_on_c, 1, 61, 0
1, 16976, Note_on_c, 1, 64, 80
1, 16989, Note_on_c, 0, 76, 0
1, 16991, Note_on_c, 1, 64, 0
1, 16992, Note_on_c, 0, 83, 80
1, 16992, Note_on_c, 1, 56, 80
1, 17007, Note_on_c, 0, 83, 0
1, 17007, Note_on_c, 1, 56, 0
1, 17008, Note_on_c, 0, 80, 80
1, 17008, Note_on_c, 1, 59, 80
1, 17023, Note_on_c, 0, 80, 0
1, 17023, Note_on_c, 1, 59, 0
1, 17024, Note_on_c, 0, 76, 80
1, 17024, Note_on_c, 1, 64, 80
1, 17039, Note_on_c, 0, 76, 0
1, 17039, Note_on_c, 1, 64, 0
1, 17040, Note_on_c, 0, 74, 80
1, 17040, Note_on_c, 1, 56, 80
1, 17055, Note_on_c, 1, 56, 0
1, 17056, Note_on_c, 1, 59, 77
1, 17071, Note_on_c, 1, 59, 0
1, 17072, Note_on_c, 1, 64, 75
1, 17085, Note_on_c, 0, 74, 0
1, 17087, Note_on_c, 1, 64, 0
1, 17088, Note_on_c, 0, 73, 70
1, 17088, Note_on_c, 1, 57, 70
1, 17103, Note_on_c, 0, 73, 0
1, 17103, Note_on_c, 1, 57, 0
1, 17104, Note_on_c, 0, 71, 70
1, 17104, Note_on_c, 1, 61, 70
1, 17119, Note_on_c, 0, 71, 0
1, 17119, Note_on_c, 1, 61, 0
1, 17120, Note_on_c, 0, 69, 70
1, 17120, Note_on_c, 1, 64, 70
1, 17135, Note_on_c, 0, 69, 0
1, 17135, Note_on_c, 1, 64, 0
1, 17136, Note_on_c, 0, 76, 71
1, 17136, Note_on_c, 1, 57, 71
1, 17143, Note_on_c, 0, 76, 0
1, 17143, Note_on_c, 0, 78, 71
1, 17150, Note_on_c, 0, 78, 0
1, 17150, Note_on_c, 0, 76, 71
1, 17151, Note_on_c, 1, 57, 0
1, 17152, Note_on_c, 1, 61, 71
1, 17157, Note_on_c, 0, 76, 0
1, 17157, Note_on_c, 0, 78, 71
1, 17164, Note_on_c, 0, 78, 0
1, 17164, Note_on_c, 0, 76, 71
1, 17167, Note_on_c, 1, 61, 0
1, 17168, Note_on_c, 1, 64, 71
1, 17171, Note_on_c, 0, 76, 0
1, 17171, Note_on_c, 0, 78, 71
1, 17178, Note_on_c, 0, 78, 0
1, 17178, Note_on_c, 0, 76, 72
1, 17183, Note_on_c, 1, 64, 0
1, 17184, Note_on_c, 0, 76, 0
1, 17184, Note_on_c, 0, 83, 72
1, 17184, Note_on_c, 1, 56, 72
1, 17199, Note_on_c, 0, 83, 0
1, 17199, Note_on_c, 1, 56, 0
1, 17200, Note_on_c, 0, 80, 72
1, 17200, Note_on_c, 1, 59, 72
1, 17215, Note_on_c, 0, 80, 0
1, 17215, Note_on_c, 1, 59, 0
1, 17216, Note_on_c, 0, 76, 73
1, 17216, Note_on_c, 1, 64, 72
1, 17231, Note_on_c, 0, 76, 0
1, 17231, Note_on_c, 1, 64, 0
1, 17232, Note_on_c, 0, 74, 73
1, 17232, Note_on_c, 1, 56, 73
1, 17239, Note_on_c, 0, 74, 0
1, 17239, Note_on_c, 0, 76, 73
1, 17246, Note_on_c, 0, 76, 0
1, 17246, Note_on_c, 0, 74, 73
1, 17247, Note_on_c, 1, 56, 0
1, 17248, Note_on_c, 1, 59, 73
1, 17253, Note_on_c, 0, 74, 0
1, 17253, Note_on_c, 0, 76, 73
1, 17260, Note_on_c, 0, 76, 0
1, 17260, Note_on_c, 0, 74, 74
1, 17263, Note_on_c, 1, 59, 0
1, 17264, Note_on_c, 1, 64, 73
1, 17267, Note_on_c, 0, 74, 0
1, 17267, Note_on_c, 0, 76, 74
1, 17274, Note_on_c, 0, 76, 0
1, 17274, Note_on_c, 0, 74, 74
1, 17279, Note_on_c, 1, 64, 0
1, 17280, Note_on_c, 0, 74, 0
1, 17280, Note_on_c, 0, 73, 74
1, 17280, Note_on_c, 1, 57, 74
1, 17295, Note_on_c, 0, 73, 0
1, 17296, Note_on_c, 0, 71, 75
1, 17311, Note_on_c, 0, 71, 0
1, 17312, Note_on_c, 0, 69, 74
1, 17325, Note_on_c, 1, 57, 0
1, 17327, Note_on_c, 0, 69, 0
1, 17328, Note_on_c, 0, 81, 74
1, 17328, Note_on_c, 1, 61, 74
1, 17343, Note_on_c, 0, 81, 0
1, 17344, Note_on_c, 0, 76, 74
1, 17359, Note_on_c, 0, 76, 0
1, 17360, Note_on_c, 0, 77, 73
1, 17373, Note_on_c, 1, 61, 0
1, 17375, Note_on_c, 0, 77, 0
1, 17376, Note_on_c, 0, 78, 73
1, 17376, Note_on_c, 1, 62, 73
1, 17391, Note_on_c, 0, 78, 0
1, 17392, Note_on_c, 0, 70, 73
1, 17407, Note_on_c, 0, 70, 0
1, 17408, Note_on_c, 0, 71, 73
1, 17421, Note_on_c, 1, 62, 0
1, 17423, Note_on_c, 0, 71, 0
1, 17424, Note_on_c, 0, 74, 72
1, 17424, Note_on_c, 1, 50, 72
1, 17439, Note_on_c, 0, 74, 0
1, 17440, Note_on_c, 0, 66, 72
1, 17455, Note_on_c, 0, 66, 0
1, 17456, Note_on_c, 0, 71, 72
1, 17469, Note_on_c, 1, 50, 0
1, 17471, Note_on_c, 0, 71, 0
1, 17472, Note_on_c, 0, 69, 70
1, 17472, Note_on_c, 1, 52, 70
1, 17517, Note_on_c, 1, 52, 0
1, 17520, Note_on_c, 0, 69, 0
1, 17520, Note_on_c, 0, 68, 70
1, 17520, Note_on_c, 1, 40, 71
1, 17561, Note_on_c, 0, 68, 0
1, 17565, Note_on_c, 1, 40, 0
1, 17568, Note_on_c, 1, 52, 72
1, 17583, Note_on_c, 1, 52, 0
1, 17584, Note_on_c, 1, 54, 72
1, 17599, Note_on_c, 1, 54, 0
1, 17600, Note_on_c, 1, 52, 73
1, 17615, Note_on_c, 1, 52, 0
1, 17616, Note_on_c, 1, 50, 73
1, 17631, Note_on_c, 1, 50, 0
1, 17632, Note_on_c, 1, 49, 73
1, 17647, Note_on_c, 1, 49, 0
1, 17648, Note_on_c, 1, 47, 74
1, 17663, Note_on_c, 1, 47, 0
1, 17664, Note_on_c, 0, 83, 80
1, 17664, Note_on_c, 1, 45, 91
1, 17670, Note_on_c, 0, 83, 0
1, 17670, Note_on_c, 0, 81, 80
1, 17676, Note_on_c, 0, 81, 0
1, 17676, Note_on_c, 0, 80, 80
1, 17682, Note_on_c, 0, 80, 0
1, 17682, Note_on_c, 0, 81, 80
1, 17712, Note_on_c, 1, 45, 0
1, 17712, Note_on_c, 1, 61, 64
1, 17712, Note_on_c, 1, 57, 64
1, 17759, Note_on_c, 1, 61, 0
1, 17759, Note_on_c, 1, 57, 0
1, 17760, Note_on_c, 1, 61, 64
1, 17760, Note_on_c, 1, 57, 64
1, 17775, Note_on_c, 0, 81, 0
1, 17776, Note_on_c, 0, 80, 80
1, 17791, Note_on_c, 0, 80, 0
1, 17792, Note_on_c, 0, 78, 80
1, 17807, Note_on_c, 0, 78, 0
1, 17807, Note_on_c, 1, 61, 0
1, 17807, Note_on_c, 1, 57, 0
1, 17808, Note_on_c, 0, 76, 80
1, 17808, Note_on_c, 1, 61, 64
1, 17808, Note_on_c, 1, 57, 64
1, 17823, Note_on_c, 0, 76, 0
1, 17824, Note_on_c, 0, 74, 80
1, 17839, Note_on_c, 0, 74, 0
1, 17840, Note_on_c, 0, 73, 80
1, 17855, Note_on_c, 0, 73, 0
1, 17855, Note_on_c, 1, 61, 0
1, 17855, Note_on_c, 1, 57, 0
1, 17856, Note_on_c, 0, 71, 80
1, 17871, Note_on_c, 0, 71, 0
1, 17872, Note_on_c, 0, 76, 80
1, 17887, Note_on_c, 0, 76, 0
1, 17888, Note_on_c, 0, 74, 80
1, 17903, Note_on_c, 0, 74, 0
1, 17904, Note_on_c, 0, 74, 80
1, 17904, Note_on_c, 1, 59, 64
1, 17904, Note_on_c, 1, 57, 64
1, 17949, Note_on_c, 0, 74, 0
1, 17951, Note_on_c, 1, 59, 0
1, 17951, Note_on_c, 1, 57, 0
1, 17952, Note_on_c, 0, 74, 80
1, 17952, Note_on_c, 1, 59, 64
1, 17952, Note_on_c, 1, 57, 64
1, 17958, Note_on_c, 0, 74, 0
1, 17958, Note_on_c, 0, 76, 80
1, 17964, Note_on_c, 0, 76, 0
1, 17964, Note_on_c, 0, 74, 80
1, 17970, Note_on_c, 0, 74, 0
1, 17970, Note_on_c, 0, 73, 80
1, 17985, Note_on_c, 0, 73, 0
1, 17985, Note_on_c, 0, 74, 80
1, 17999, Note_on_c, 1, 59, 0
1, 17999, Note_on_c, 1, 57, 0
1, 18000, Note_on_c, 0, 74, 0
1, 18000, Note_on_c, 0, 74, 80
1, 18000, Note_on_c, 1, 59, 64
1, 18000, Note_on_c, 1, 57, 64
1, 18006, Note_on_c, 0, 74, 0
1, 18006, Note_on_c, 0, 76, 80
1, 18012, Note_on_c, 0, 76, 0
1, 18012, Note_on_c, 0, 74, 80
1, 18018, Note_on_c, 0, 74, 0
1, 18018, Note_on_c, 0, 73, 80
1, 18033, Note_on_c, 0, 73, 0
1, 18033, Note_on_c, 0, 74, 80
1, 18047, Note_on_c, 1, 59, 0
1, 18047, Note_on_c, 1, 57, 0
1, 18048, Note_on_c, 0, 74, 0
1, 18048, Note_on_c, 0, 74, 80
1, 18093, Note_on_c, 0, 74, 0
1, 18096, Note_on_c, 0, 83, 80
1, 18096, Note_on_c, 1, 59, 64
1, 18096, Note_on_c, 1, 56, 64
1, 18141, Note_on_c, 0, 83, 0
1, 18143, Note_on_c, 1, 59, 0
1, 18143, Note_on_c, 1, 56, 0
1, 18144, Note_on_c, 0, 85, 80
1, 18144, Note_on_c, 1, 59, 64
1, 18144, Note_on_c, 1, 56, 64
1, 18150, Note_on_c, 0, 85, 0
1, 18150, Note_on_c, 0, 83, 80
1, 18159, Note_on_c, 0, 83, 0
1, 18160, Note_on_c, 0, 81, 80
1, 18175, Note_on_c, 0, 81, 0
1, 18176, Note_on_c, 0, 80, 80
1, 18191, Note_on_c, 0, 80, 0
1, 18191, Note_on_c, 1, 59, 0
1, 18191, Note_on_c, 1, 56, 0
1, 18192, Note_on_c, 0, 78, 80
1, 18192, Note_on_c, 1, 59, 64
1, 18192, Note_on_c, 1, 56, 64
1, 18207, Note_on_c, 0, 78, 0
1, 18208, Note_on_c, 0, 76, 80
1, 18223, Note_on_c, 0, 76, 0
1, 18224, Note_on_c, 0, 74, 80
1, 18239, Note_on_c, 0, 74, 0
1, 18239, Note_on_c, 1, 59, 0
1, 18239, Note_on_c, 1, 56, 0
1, 18240, Note_on_c, 0, 73, 80
1, 18240, Note_on_c, 1, 57, 64
1, 18255, Note_on_c, 0, 73, 0
1, 18256, Note_on_c, 0, 69, 80
1, 18271, Note_on_c, 0, 69, 0
1, 18272, Note_on_c, 0, 73, 80
1, 18287, Note_on_c, 0, 73, 0
1, 18288, Note_on_c, 0, 76, 80
1, 18303, Note_on_c, 0, 76, 0
1, 18304, Note_on_c, 0, 73, 80
1, 18319, Note_on_c, 0, 73, 0
1, 18320, Note_on_c, 0, 69, 80
1, 18329, Note_on_c, 1, 57, 0
1, 18335, Note_on_c, 0, 69, 0
1, 18336, Note_on_c, 0, 74, 80
1, 18351, Note_on_c, 0, 74, 0
1, 18352, Note_on_c, 0, 71, 80
1, 18367, Note_on_c, 0, 71, 0
1, 18368, Note_on_c, 0, 68, 80
1, 18383, Note_on_c, 0, 68, 0
1, 18384, Note_on_c, 0, 62, 80
1, 18384, Note_on_c, 1, 59, 64
1, 18384, Note_on_c, 1, 52, 64
1, 18399, Note_on_c, 0, 62, 0
1, 18400, Note_on_c, 0, 68, 80
1, 18415, Note_on_c, 0, 68, 0
1, 18416, Note_on_c, 0, 62, 80
1, 18429, Note_on_c, 1, 59, 0
1, 18429, Note_on_c, 1, 52, 0
1, 18431, Note_on_c, 0, 62, 0
1, 18432, Note_on_c, 0, 61, 80
1, 18432, Note_on_c, 1, 57, 64
1, 18432, Note_on_c, 1, 45, 64
1, 18447, Note_on_c, 0, 61, 0
1, 18448, Note_on_c, 0, 64, 80
1, 18463, Note_on_c, 0, 64, 0
1, 18464, Note_on_c, 0, 69, 80
1, 18479, Note_on_c, 0, 69, 0
1, 18480, Note_on_c, 0, 73, 80
1, 18495, Note_on_c, 0, 73, 0
1, 18496, Note_on_c, 0, 76, 80
1, 18511, Note_on_c, 0, 76, 0
1, 18512, Note_on_c, 0, 69, 80
1, 18521, Note_on_c, 1, 57, 0
1, 18521, Note_on_c, 1, 45, 0
1, 18527, Note_on_c, 0, 69, 0
1, 18528, Note_on_c, 0, 74, 80
1, 18543, Note_on_c, 0, 74, 0
1, 18544, Note_on_c, 0, 71, 80
1, 18559, Note_on_c, 0, 71, 0
1, 18560, Note_on_c, 0, 68, 80
1, 18575, Note_on_c, 0, 68, 0
1, 18576, Note_on_c, 0, 62, 80
1, 18576, Note_on_c, 1, 59, 64
1, 18591, Note_on_c, 0, 62, 0
1, 18592, Note_on_c, 0, 68, 80
1, 18607, Note_on_c, 0, 68, 0
1, 18608, Note_on_c, 0, 62, 80
1, 18621, Note_on_c, 1, 59, 0
1, 18623, Note_on_c, 0, 62, 0
1, 18624, Note_on_c, 0, 61, 75
1, 18624, Note_on_c, 1, 57, 64
1, 18624, Note_on_c, 1, 45, 64
1, 18639, Note_on_c, 0, 61, 0
1, 18640, Note_on_c, 0, 64, 75
1, 18655, Note_on_c, 0, 64, 0
1, 18656, Note_on_c, 0, 69, 75
1, 18671, Note_on_c, 0, 69, 0
1, 18672, Note_on_c, 0, 64, 76
1, 18687, Note_on_c, 0, 64, 0
1, 18688, Note_on_c, 0, 69, 76
1, 18703, Note_on_c, 0, 69, 0
1, 18704, Note_on_c, 0, 73, 76
1, 18713, Note_on_c, 1, 57, 0
1, 18713, Note_on_c, 1, 45, 0
1, 18719, Note_on_c, 0, 73, 0
1, 18720, Note_on_c, 0, 69, 77
1, 18735, Note_on_c, 0, 69, 0
1, 18736, Note_on_c, 0, 73, 77
1, 18751, Note_on_c, 0, 73, 0
1, 18752, Note_on_c, 0, 76, 78
1, 18767, Note_on_c, 0, 76, 0
1, 18768, Note_on_c, 0, 73, 78
1, 18768, Note_on_c, 1, 57, 72
1, 18783, Note_on_c, 0, 73, 0
1, 18784, Note_on_c, 0, 76, 80
1, 18799, Note_on_c, 0, 76, 0
1, 18800, Note_on_c, 0, 79, 80
1, 18813, Note_on_c, 1, 57, 0
1, 18815, Note_on_c, 0, 79, 0
1, 18816, Note_on_c, 0, 78, 80
1, 18816, Note_on_c, 1, 62, 75
1, 18831, Note_on_c, 0, 78, 0
1, 18832, Note_on_c, 0, 76, 80
1, 18847, Note_on_c, 0, 76, 0
1, 18848, Note_on_c, 0, 78, 80
1, 18861, Note_on_c, 1, 62, 0
1, 18863, Note_on_c, 0, 78, 0
1, 18864, Note_on_c, 0, 86, 80
1, 18864, Note_on_c, 1, 59, 75
1, 18879, Note_on_c, 0, 86, 0
1, 18880, Note_on_c, 0, 74, 80
1, 18895, Note_on_c, 0, 74, 0
1, 18896, Note_on_c, 0, 78, 80
1, 18909, Note_on_c, 1, 59, 0
1, 18911, Note_on_c, 0, 78, 0
1, 18912, Note_on_c, 0, 76, 80
1, 18912, Note_on_c, 1, 61, 75
1, 18927, Note_on_c, 0, 76, 0
1, 18928, Note_on_c, 0, 81, 80
1, 18943, Note_on_c, 0, 81, 0
1, 18944, Note_on_c, 0, 80, 80
1, 18957, Note_on_c, 1, 61, 0
1, 18959, Note_on_c, 0, 80, 0
1, 18960, Note_on_c, 0, 81, 80
1, 18960, Note_on_c, 1, 57, 75
1, 18975, Note_on_c, 0, 81, 0
1, 18976, Note_on_c, 0, 73, 80
1, 18991, Note_on_c, 0, 73, 0
1, 18992, Note_on_c, 0, 76, 80
1, 19005, Note_on_c, 1, 57, 0
1, 19007, Note_on_c, 0, 76, 0
1, 19008, Note_on_c, 0, 74, 80
1, 19008, Note_on_c, 1, 59, 75
1, 19023, Note_on_c, 0, 74, 0
1, 19024, Note_on_c, 0, 73, 80
1, 19039, Note_on_c, 0, 73, 0
1, 19040, Note_on_c, 0, 74, 80
1, 19053, Note_on_c, 1, 59, 0
1, 19055, Note_on_c, 0, 74, 0
1, 19056, Note_on_c, 0, 78, 80
1, 19056, Note_on_c, 1, 56, 75
1, 19071, Note_on_c, 0, 78, 0
1, 19072, Note_on_c, 0, 76, 80
1, 19087, Note_on_c, 0, 76, 0
1, 19088, Note_on_c, 0, 74, 80
1, 19101, Note_on_c, 1, 56, 0
1, 19103, Note_on_c, 0, 74, 0
1, 19104, Note_on_c, 0, 73, 80
1, 19104, Note_on_c, 1, 57, 75
1, 19119, Note_on_c, 0, 73, 0
1, 19120, Note_on_c, 0, 81, 80
1, 19135, Note_on_c, 0, 81, 0
1, 19136, Note_on_c, 0, 76, 80
1, 19149, Note_on_c, 1, 57, 0
1, 19151, Note_on_c, 0, 76, 0
1, 19152, Note_on_c, 0, 78, 80
1, 19152, Note_on_c, 1, 50, 75
1, 19167, Note_on_c, 0, 78, 0
1, 19168, Note_on_c, 0, 74, 79
1, 19183, Note_on_c, 0, 74, 0
1, 19184, Note_on_c, 0, 71, 79
1, 19197, Note_on_c, 1, 50, 0
1, 19199, Note_on_c, 0, 71, 0
1, 19200, Note_on_c, 0, 69, 78
1, 19200, Note_on_c, 1, 52, 73
1, 19245, Note_on_c, 1, 52, 0
1, 19248, Note_on_c, 0, 69, 0
1, 19248, Note_on_c, 0, 68, 78
1, 19248, Note_on_c, 1, 40, 71
1, 19289, Note_on_c, 0, 68, 0
1, 19293, Note_on_c, 1, 40, 0
1, 19296, Note_on_c, 0, 78, 75
1, 19296, Note_on_c, 1, 52, 70
1, 19303, Note_on_c, 0, 78, 0
1, 19303, Note_on_c, 0, 76, 75
1, 19310, Note_on_c, 0, 76, 0
1, 19310, Note_on_c, 0, 78, 75
1, 19311, Note_on_c, 1, 52, 0
1, 19312, Note_on_c, 1, 56, 70
1, 19317, Note_on_c, 0, 78, 0
1, 19317, Note_on_c, 0, 76, 75
1, 19324, Note_on_c, 0, 76, 0
1, 19324, Note_on_c, 0, 78, 76
1, 19327, Note_on_c, 1, 56, 0
1, 19328, Note_on_c, 1, 59, 70
1, 19331, Note_on_c, 0, 78, 0
1, 19331, Note_on_c, 0, 76, 76
1, 19338, Note_on_c, 0, 76, 0
1, 19338, Note_on_c, 0, 78, 76
1, 19343, Note_on_c, 1, 59, 0
1, 19344, Note_on_c, 1, 56, 70
1, 19345, Note_on_c, 0, 78, 0
1, 19345, Note_on_c, 0, 76, 76
1, 19352, Note_on_c, 0, 76, 0
1, 19352, Note_on_c, 0, 78, 77
1, 19359, Note_on_c, 0, 78, 0
1, 19359, Note_on_c, 0, 76, 77
1, 19359, Note_on_c, 1, 56, 0
1, 19360, Note_on_c, 1, 59, 71
1, 19366, Note_on_c, 0, 76, 0
1, 19366, Note_on_c, 0, 78, 77
1, 19373, Note_on_c, 0, 78, 0
1, 19373, Note_on_c, 0, 76, 78
1, 19375, Note_on_c, 1, 59, 0
1, 19376, Note_on_c, 1, 62, 71
1, 19380, Note_on_c, 0, 76, 0
1, 19380, Note_on_c, 0, 78, 78
1, 19386, Note_on_c, 0, 78, 0
1, 19386, Note_on_c, 0, 76, 78
1, 19391, Note_on_c, 1, 62, 0
1, 19392, Note_on_c, 1, 61, 71
1, 19407, Note_on_c, 0, 76, 0
1, 19408, Note_on_c, 0, 80, 80
1, 19423, Note_on_c, 0, 80, 0
1, 19424, Note_on_c, 0, 81, 80
1, 19439, Note_on_c, 0, 81, 0
1, 19440, Note_on_c, 0, 85, 80
1, 19455, Note_on_c, 0, 85, 0
1, 19456, Note_on_c, 0, 80, 80
1, 19471, Note_on_c, 0, 80, 0
1, 19472, Note_on_c, 0, 81, 80
1, 19481, Note_on_c, 1, 61, 0
1, 19487, Note_on_c, 0, 81, 0
1, 19488, Note_on_c, 0, 78, 70
1, 19488, Note_on_c, 1, 52, 70
1, 19495, Note_on_c, 0, 78, 0
1, 19495, Note_on_c, 0, 76, 70
1, 19502, Note_on_c, 0, 76, 0
1, 19502, Note_on_c, 0, 78, 70
1, 19503, Note_on_c, 1, 52, 0
1, 19504, Note_on_c, 1, 56, 70
1, 19509, Note_on_c, 0, 78, 0
1, 19509, Note_on_c, 0, 76, 70
1, 19516, Note_on_c, 0, 76, 0
1, 19516, Note_on_c, 0, 78, 71
1, 19519, Note_on_c, 1, 56, 0
1, 19520, Note_on_c, 1, 59, 70
1, 19523, Note_on_c, 0, 78, 0
1, 19523, Note_on_c, 0, 76, 71
1, 19530, Note_on_c, 0, 76, 0
1, 19530, Note_on_c, 0, 78, 71
1, 19535, Note_on_c, 1, 59, 0
1, 19536, Note_on_c, 1, 56, 70
1, 19537, Note_on_c, 0, 78, 0
1, 19537, Note_on_c, 0, 76, 71
1, 19544, Note_on_c, 0, 76, 0
1, 19544, Note_on_c, 0, 78, 72
1, 19551, Note_on_c, 0, 78, 0
1, 19551, Note_on_c, 0, 76, 72
1, 19551, Note_on_c, 1, 56, 0
1, 19552, Note_on_c, 1, 59, 71
1, 19558, Note_on_c, 0, 76, 0
1, 19558, Note_on_c, 0, 78, 72
1, 19565, Note_on_c, 0, 78, 0
1, 19565, Note_on_c, 0, 76, 73
1, 19567, Note_on_c, 1, 59, 0
1, 19568, Note_on_c, 1, 62, 71
1, 19572, Note_on_c, 0, 76, 0
1, 19572, Note_on_c, 0, 78, 73
1, 19578, Note_on_c, 0, 78, 0
1, 19578, Note_on_c, 0, 76, 73
1, 19583, Note_on_c, 1, 62, 0
1, 19584, Note_on_c, 1, 61, 71
1, 19599, Note_on_c, 0, 76, 0
1, 19600, Note_on_c, 0, 80, 75
1, 19615, Note_on_c, 0, 80, 0
1, 19616, Note_on_c, 0, 81, 75
1, 19631, Note_on_c, 0, 81, 0
1, 19632, Note_on_c, 0, 85, 75
1, 19647, Note_on_c, 0, 85, 0
1, 19648, Note_on_c, 0, 80, 75
1, 19663, Note_on_c, 0, 80, 0
1, 19664, Note_on_c, 0, 81, 75
1, 19673, Note_on_c, 1, 61, 0
1, 19679, Note_on_c, 0, 81, 0
1, 19680, Note_on_c, 0, 78, 91
1, 19680, Note_on_c, 1, 50, 75
1, 19686, Note_on_c, 0, 78, 0
1, 19686, Note_on_c, 0, 80, 91
1, 19692, Note_on_c, 0, 80, 0
1, 19692, Note_on_c, 0, 78, 91
1, 19695, Note_on_c, 1, 50, 0
1, 19696, Note_on_c, 1, 54, 75
1, 19711, Note_on_c, 1, 54, 0
1, 19712, Note_on_c, 1, 59, 75
1, 19727, Note_on_c, 1, 59, 0
1, 19728, Note_on_c, 0, 78, 0
1, 19728, Note_on_c, 0, 71, 75
1, 19728, Note_on_c, 1, 62, 75
1, 19743, Note_on_c, 0, 71, 0
1, 19743, Note_on_c, 1, 62, 0
1, 19744, Note_on_c, 0, 73, 75
1, 19744, Note_on_c, 1, 61, 75
1, 19759, Note_on_c, 0, 73, 0
1, 19759, Note_on_c, 1, 61, 0
1, 19760, Note_on_c, 0, 74, 75
1, 19760, Note_on_c, 1, 59, 75
1, 19775, Note_on_c, 0, 74, 0
1, 19775, Note_on_c, 1, 59, 0
1, 19776, Note_on_c, 0, 76, 91
1, 19776, Note_on_c, 1, 49, 75
1, 19782, Note_on_c, 0, 76, 0
1, 19782, Note_on_c, 0, 78, 91
1, 19788, Note_on_c, 0, 78, 0
1, 19788, Note_on_c, 0, 76, 91
1, 19791, Note_on_c, 1, 49, 0
1, 19792, Note_on_c, 1, 52, 75
1, 19807, Note_on_c, 1, 52, 0
1, 19808, Note_on_c, 1, 57, 75
1, 19823, Note_on_c, 1, 57, 0
1, 19824, Note_on_c, 0, 76, 0
1, 19824, Note_on_c, 0, 69, 75
1, 19824, Note_on_c, 1, 61, 75
1, 19839, Note_on_c, 0, 69, 0
1, 19839, Note_on_c, 1, 61, 0
1, 19840, Note_on_c, 0, 71, 75
1, 19840, Note_on_c, 1, 59, 75
1, 19855, Note_on_c, 0, 71, 0
1, 19855, Note_on_c, 1, 59, 0
1, 19856, Note_on_c, 0, 73, 75
1, 19856, Note_on_c, 1, 57, 75
1, 19871, Note_on_c, 0, 73, 0
1, 19871, Note_on_c, 1, 57, 0
1, 19872, Note_on_c, 0, 74, 75
1, 19872, Note_on_c, 1, 56, 75
1, 19887, Note_on_c, 0, 74, 0
1, 19888, Note_on_c, 0, 73, 75
1, 19903, Note_on_c, 0, 73, 0
1, 19904, Note_on_c, 0, 71, 75
1, 19917, Note_on_c, 1, 56, 0
1, 19919, Note_on_c, 0, 71, 0
1, 19920, Note_on_c, 0, 73, 75
1, 19920, Note_on_c, 1, 57, 75
1, 19935, Note_on_c, 0, 73, 0
1, 19935, Note_on_c, 1, 57, 0
1, 19936, Note_on_c, 0, 71, 75
1, 19936, Note_on_c, 1, 59, 75
1, 19951, Note_on_c, 0, 71, 0
1, 19951, Note_on_c, 1, 59, 0
1, 19952, Note_on_c, 0, 69, 75
1, 19952, Note_on_c, 1, 61, 75
1, 19967, Note_on_c, 0, 69, 0
1, 19967, Note_on_c, 1, 61, 0
1, 19968, Note_on_c, 0, 68, 75
1, 19968, Note_on_c, 1, 62, 75
1, 19983, Note_on_c, 0, 68, 0
1, 19983, Note_on_c, 1, 62, 0
1, 19984, Note_on_c, 0, 69, 75
1, 19984, Note_on_c, 1, 61, 75
1, 19999, Note_on_c, 0, 69, 0
1, 19999, Note_on_c, 1, 61, 0
1, 20000, Note_on_c, 0, 71, 75
1, 20000, Note_on_c, 1, 59, 75
1, 20015, Note_on_c, 0, 71, 0
1, 20015, Note_on_c, 1, 59, 0
1, 20016, Note_on_c, 0, 69, 75
1, 20016, Note_on_c, 1, 61, 75
1, 20031, Note_on_c, 0, 69, 0
1, 20031, Note_on_c, 1, 61, 0
1, 20032, Note_on_c, 0, 71, 75
1, 20032, Note_on_c, 1, 59, 75
1, 20047, Note_on_c, 0, 71, 0
1, 20047, Note_on_c, 1, 59, 0
1, 20048, Note_on_c, 0, 73, 75
1, 20048, Note_on_c, 1, 57, 75
1, 20063, Note_on_c, 0, 73, 0
1, 20063, Note_on_c, 1, 57, 0
1, 20064, Note_on_c, 0, 74, 75
1, 20064, Note_on_c, 1, 56, 75
1, 20079, Note_on_c, 0, 74, 0
1, 20080, Note_on_c, 0, 73, 75
1, 20095, Note_on_c, 0, 73, 0
1, 20096, Note_on_c, 0, 71, 75
1, 20109, Note_on_c, 1, 56, 0
1, 20111, Note_on_c, 0, 71, 0
1, 20112, Note_on_c, 0, 73, 75
1, 20112, Note_on_c, 1, 57, 75
1, 20127, Note_on_c, 0, 73, 0
1, 20128, Note_on_c, 0, 71, 75
1, 20143, Note_on_c, 0, 71, 0
1, 20144, Note_on_c, 0, 69, 75
1, 20157, Note_on_c, 1, 57, 0
1, 20159, Note_on_c, 0, 69, 0
1, 20160, Note_on_c, 0, 74, 80
1, 20160, Note_on_c, 1, 56, 80
1, 20160, Note_on_c, 1, 44, 80
1, 20175, Note_on_c, 0, 74, 0
1, 20176, Note_on_c, 0, 71, 80
1, 20191, Note_on_c, 0, 71, 0
1, 20192, Note_on_c, 0, 64, 80
1, 20205, Note_on_c, 1, 56, 0
1, 20205, Note_on_c, 1, 44, 0
1, 20207, Note_on_c, 0, 64, 0
1, 20208, Note_on_c, 0, 73, 80
1, 20208, Note_on_c, 1, 57, 80
1, 20208, Note_on_c, 1, 45, 80
1, 20223, Note_on_c, 0, 73, 0
1, 20224, Note_on_c, 0, 69, 80
1, 20239, Note_on_c, 0, 69, 0
1, 20240, Note_on_c, 0, 64, 80
1, 20253, Note_on_c, 1, 57, 0
1, 20253, Note_on_c, 1, 45, 0
1, 20255, Note_on_c, 0, 64, 0
1, 20256, Note_on_c, 0, 71, 75
1, 20256, Note_on_c, 1, 54, 64
1, 20256, Note_on_c, 1, 50, 64
1, 20262, Note_on_c, 0, 71, 0
1, 20262, Note_on_c, 0, 73, 75
1, 20268, Note_on_c, 0, 73, 0
1, 20268, Note_on_c, 0, 71, 75
1, 20274, Note_on_c, 0, 71, 0
1, 20274, Note_on_c, 0, 70, 75
1, 20289, Note_on_c, 0, 70, 0
1, 20289, Note_on_c, 0, 71, 75
1, 20303, Note_on_c, 1, 54, 0
1, 20303, Note_on_c, 1, 50, 0
1, 20304, Note_on_c, 0, 71, 0
1, 20304, Note_on_c, 0, 71, 75
1, 20304, Note_on_c, 1, 54, 64
1, 20304, Note_on_c, 1, 50, 64
1, 20310, Note_on_c, 0, 71, 0
1, 20310, Note_on_c, 0, 73, 75
1, 20316, Note_on_c, 0, 73, 0
1, 20316, Note_on_c, 0, 71, 75
1, 20322, Note_on_c, 0, 71, 0
1, 20322, Note_on_c, 0, 70, 75
1, 20337, Note_on_c, 0, 70, 0
1, 20337, Note_on_c, 0, 71, 75
1, 20351, Note_on_c, 1, 54, 0
1, 20351, Note_on_c, 1, 50, 0
1, 20352, Note_on_c, 0, 71, 0
1, 20352, Note_on_c, 0, 76, 75
1, 20352, Note_on_c, 1, 52, 64
1, 20352, Note_on_c, 1, 49, 75
1, 20367, Note_on_c, 0, 76, 0
1, 20368, Note_on_c, 0, 73, 75
1, 20383, Note_on_c, 0, 73, 0
1, 20384, Note_on_c, 0, 69, 75
1, 20397, Note_on_c, 1, 52, 0
1, 20399, Note_on_c, 0, 69, 0
1, 20400, Note_on_c, 0, 81, 75
1, 20415, Note_on_c, 0, 81, 0
1, 20416, Note_on_c, 0, 78, 75
1, 20419, Note_on_c, 1, 49, 0
1, 20424, Note_on_c, 1, 54, 75
1, 20431, Note_on_c, 0, 78, 0
1, 20432, Note_on_c, 0, 74, 75
1, 20447, Note_on_c, 0, 74, 0
1, 20447, Note_on_c, 1, 54, 0
1, 20448, Note_on_c, 0, 73, 75
1, 20448, Note_on_c, 1, 52, 75
1, 20493, Note_on_c, 0, 73, 0
1, 20493, Note_on_c, 1, 52, 0
1, 20496, Note_on_c, 0, 73, 75
1, 20496, Note_on_c, 1, 40, 75
1, 20503, Note_on_c, 0, 73, 0
1, 20503, Note_on_c, 0, 71, 75
1, 20510, Note_on_c, 0, 71, 0
1, 20510, Note_on_c, 0, 73, 75
1, 20517, Note_on_c, 0, 73, 0
1, 20517, Note_on_c, 0, 71, 75
1, 20524, Note_on_c, 0, 71, 0
1, 20524, Note_on_c, 0, 73, 75
1, 20531, Note_on_c, 0, 73, 0
1, 20531, Note_on_c, 0, 69, 75
1, 20538, Note_on_c, 0, 69, 0
1, 20538, Note_on_c, 0, 71, 75
1, 20541, Note_on_c, 1, 40, 0
1, 20544, Note_on_c, 0, 71, 0
1, 20544, Note_on_c, 0, 69, 75
1, 20544, Note_on_c, 1, 45, 75
1, 20589, Note_on_c, 0, 69, 0
1, 20592, Note_on_c, 0, 69, 70
1, 20592, Note_on_c, 1, 49, 64
1, 20599, Note_on_c, 0, 69, 0
1, 20608, Note_on_c, 0, 69, 70
1, 20623, Note_on_c, 0, 69, 0
1, 20624, Note_on_c, 0, 64, 70
1, 20637, Note_on_c, 1, 49, 0
1, 20639, Note_on_c, 0, 64, 0
1, 20640, Note_on_c, 0, 66, 70
1, 20640, Note_on_c, 1, 50, 64
1, 20647, Note_on_c, 0, 66, 0
1, 20656, Note_on_c, 0, 66, 70
1, 20671, Note_on_c, 0, 66, 0
1, 20672, Note_on_c, 0, 62, 70
1, 20685, Note_on_c, 1, 50, 0
1, 20687, Note_on_c, 0, 62, 0
1, 20688, Note_on_c, 0, 59, 70
1, 20688, Note_on_c, 1, 50, 64
1, 20703, Note_on_c, 0, 59, 0
1, 20704, Note_on_c, 0, 64, 70
1, 20719, Note_on_c, 0, 64, 0
1, 20720, Note_on_c, 0, 56, 70
1, 20733, Note_on_c, 1, 50, 0
1, 20735, Note_on_c, 0, 56, 0
1, 20736, Note_on_c, 0, 57, 70
1, 20736, Note_on_c, 1, 49, 64
1, 20781, Note_on_c, 0, 57, 0
1, 20781, Note_on_c, 1, 49, 0
1, 20784, Note_on_c, 0, 69, 70
1, 20784, Note_on_c, 1, 49, 64
1, 20791, Note_on_c, 0, 69, 0
1, 20800, Note_on_c, 0, 69, 70
1, 20815, Note_on_c, 0, 69, 0
1, 20816, Note_on_c, 0, 64, 70
1, 20829, Note_on_c, 1, 49, 0
1, 20831, Note_on_c, 0, 64, 0
1, 20832, Note_on_c, 0, 66, 70
1, 20832, Note_on_c, 1, 50, 64
1, 20839, Note_on_c, 0, 66, 0
1, 20848, Note_on_c, 0, 66, 70
1, 20863, Note_on_c, 0, 66, 0
1, 20864, Note_on_c, 0, 62, 70
1, 20877, Note_on_c, 1, 50, 0
1, 20879, Note_on_c, 0, 62, 0
1, 20880, Note_on_c, 0, 74, 70
1, 20880, Note_on_c, 1, 47, 64
1, 20887, Note_on_c, 0, 74, 0
1, 20896, Note_on_c, 0, 74, 70
1, 20911, Note_on_c, 0, 74, 0
1, 20912, Note_on_c, 0, 68, 70
1, 20913, Note_on_c, 1, 45, 0
1, 20925, Note_on_c, 1, 47, 0
1, 20927, Note_on_c, 0, 68, 0
1, 20928, Note_on_c, 0, 71, 70
1, 20928, Note_on_c, 1, 49, 64
1, 20928, Note_on_c, 1, 45, 64
1, 20934, Note_on_c, 0, 71, 0
1, 20934, Note_on_c, 0, 69, 70
1, 20940, Note_on_c, 0, 69, 0
1, 20940, Note_on_c, 0, 68, 70
1, 20946, Note_on_c, 0, 68, 0
1, 20946, Note_on_c, 0, 69, 70
1, 20973, Note_on_c, 1, 49, 0
1, 20973, Note_on_c, 1, 45, 0
1, 20976, Note_on_c, 1, 57, 64
1, 21043, Note_on_c, 1, 57, 0
1, 21061, Note_on_c, 0, 69, 0
1, 21120, Note_on_c, 1, 45, 0
1, 21165, Note_on_c, 1, 45, 0
1, 21175, End_track
0, 0, End_of_file