0, 0, Header, 0, 1, 96
1, 0, Start_track
1, 0, Tempo, 100000
1, 168, Note_on_c, 0, 70, 75
1, 191, Note_on_c, 0, 70, 0
1, 192, Note_on_c, 0, 72, 75
1, 207, Note_on_c, 0, 72, 0
1, 208, Note_on_c, 0, 70, 75
1, 223, Note_on_c, 0, 70, 0
1, 224, Note_on_c, 0, 72, 75
1, 239, Note_on_c, 0, 72, 0
1, 240, Note_on_c, 0, 70, 75
1, 255, Note_on_c, 0, 70, 0
1, 256, Note_on_c, 0, 68, 75
1, 271, Note_on_c, 0, 68, 0
1, 272, Note_on_c, 0, 70, 75
1, 287, Note_on_c, 0, 70, 0
1, 288, Note_on_c, 0, 75, 75
1, 377, Note_on_c, 0, 75, 0
1, 384, Note_on_c, 0, 70, 75
1, 456, Note_on_c, 1, 58, 75
1, 473, Note_on_c, 0, 70, 0
1, 479, Note_on_c, 1, 58, 0
1, 480, Note_on_c, 0, 68, 75
1, 480, Note_on_c, 1, 60, 75
1, 495, Note_on_c, 1, 60, 0
1, 496, Note_on_c, 1, 58, 75
1, 511, Note_on_c, 1, 58, 0
1, 512, Note_on_c, 1, 60, 75
1, 527, Note_on_c, 1, 60, 0
1, 528, Note_on_c, 1, 58, 75
1, 543, Note_on_c, 1, 58, 0
1, 544, Note_on_c, 1, 56, 75
1, 559, Note_on_c, 1, 56, 0
1, 560, Note_on_c, 1, 58, 75
1, 569, Note_on_c, 0, 68, 0
1, 575, Note_on_c, 1, 58, 0
1, 576, Note_on_c, 0, 68, 75
1, 576, Note_on_c, 1, 63, 75
1, 665, Note_on_c, 0, 68, 0
1, 665, Note_on_c, 1, 63, 0
1, 672, Note_on_c, 0, 67, 75
1, 672, Note_on_c, 1, 58, 75
1, 761, Note_on_c, 0, 67, 0
1, 761, Note_on_c, 1, 58, 0
1, 768, Note_on_c, 0, 67, 75
1, 768, Note_on_c, 1, 56, 75
1, 783, Note_on_c, 0, 67, 0
1, 784, Note_on_c, 0, 65, 75
1, 799, Note_on_c, 0, 65, 0
1, 800, Note_on_c, 0, 67, 75
1, 815, Note_on_c, 0, 67, 0
1, 816, Note_on_c, 0, 65, 75
1, 831, Note_on_c, 0, 65, 0
1, 832, Note_on_c, 0, 63, 75
1, 847, Note_on_c, 0, 63, 0
1, 848, Note_on_c, 0, 65, 75
1, 857, Note_on_c, 1, 56, 0
1, 863, Note_on_c, 0, 65, 0
1, 864, Note_on_c, 0, 65, 75
1, 864, Note_on_c, 1, 56, 75
1, 953, Note_on_c, 0, 65, 0
1, 953, Note_on_c, 1, 56, 0
1, 960, Note_on_c, 0, 63, 75
1, 960, Note_on_c, 1, 55, 75
1, 1049, Note_on_c, 0, 63, 0
1, 1049, Note_on_c, 1, 55, 0
1, 1056, Note_on_c, 0, 80, 75
1, 1056, Note_on_c, 0, 74, 75
1, 1056, Note_on_c, 1, 55, 75
1, 1071, Note_on_c, 1, 55, 0
1, 1072, Note_on_c, 1, 53, 75
1, 1087, Note_on_c, 1, 53, 0
1, 1088, Note_on_c, 1, 55, 75
1, 1103, Note_on_c, 1, 55, 0
1, 1104, Note_on_c, 1, 53, 75
1, 1119, Note_on_c, 1, 53, 0
1, 1120, Note_on_c, 1, 51, 75
1, 1135, Note_on_c, 1, 51, 0
1, 1136, Note_on_c, 1, 53, 75
1, 1145, Note_on_c, 0, 80, 0
1, 1145, Note_on_c, 0, 74, 0
1, 1151, Note_on_c, 1, 53, 0
1, 1152, Note_on_c, 0, 80, 75
1, 1152, Note_on_c, 0, 74, 75
1, 1152, Note_on_c, 1, 53, 75
1, 1241, Note_on_c, 1, 53, 0
1, 1248, Note_on_c, 0, 80, 0
1, 1248, Note_on_c, 0, 74, 0
1, 1248, Note_on_c, 0, 79, 75
1, 1248, Note_on_c, 0, 75, 75
1, 1248, Note_on_c, 1, 51, 75
1, 1337, Note_on_c, 0, 79, 0
1, 1337, Note_on_c, 0, 75, 0
1, 1337, Note_on_c, 1, 51, 0
1, 1344, Note_on_c, 1, 68, 75
1, 1344, Note_on_c, 1, 62, 75
1, 1433, Note_on_c, 1, 68, 0
1, 1433, Note_on_c, 1, 62, 0
1, 1440, Note_on_c, 1, 68, 75
1, 1440, Note_on_c, 1, 62, 75
1, 1512, Note_on_c, 0, 70, 75
1, 1535, Note_on_c, 0, 70, 0
1, 1536, Note_on_c, 0, 82, 75
1, 1536, Note_on_c, 1, 68, 0
1, 1536, Note_on_c, 1, 62, 0
1, 1536, Note_on_c, 1, 67, 75
1, 1536, Note_on_c, 1, 63, 75
1, 1603, Note_on_c, 0, 82, 0
1, 1608, Note_on_c, 0, 82, 75
1, 1625, Note_on_c, 1, 67, 0
1, 1625, Note_on_c, 1, 63, 0
1, 1631, Note_on_c, 0, 82, 0
1, 1632, Note_on_c, 0, 82, 75
1, 1699, Note_on_c, 0, 82, 0
1, 1704, Note_on_c, 0, 82, 75
1, 1727, Note_on_c, 0, 82, 0
1, 1728, Note_on_c, 0, 82, 91
1, 1800, Note_on_c, 1, 58, 75
1, 1823, Note_on_c, 1, 58, 0
1, 1824, Note_on_c, 1, 70, 75
1, 1891, Note_on_c, 0, 82, 0
1, 1891, Note_on_c, 1, 70, 0
1, 1896, Note_on_c, 0, 80, 75
1, 1896, Note_on_c, 0, 77, 75
1, 1896, Note_on_c, 1, 70, 75
1, 1919, Note_on_c, 0, 80, 0
1, 1919, Note_on_c, 0, 77, 0
1, 1919, Note_on_c, 1, 70, 0
1, 1920, Note_on_c, 0, 79, 75
1, 1920, Note_on_c, 0, 75, 75
1, 1920, Note_on_c, 1, 70, 75
1, 1987, Note_on_c, 0, 79, 0
1, 1987, Note_on_c, 0, 75, 0
1, 1987, Note_on_c, 1, 70, 0
1, 1992, Note_on_c, 0, 77, 75
1, 1992, Note_on_c, 0, 74, 75
1, 1992, Note_on_c, 1, 70, 75
1, 2015, Note_on_c, 0, 77, 0
1, 2015, Note_on_c, 0, 74, 0
1, 2015, Note_on_c, 1, 70, 0
1, 2016, Note_on_c, 0, 77, 75
1, 2016, Note_on_c, 0, 74, 75
1, 2016, Note_on_c, 1, 70, 91
1, 2105, Note_on_c, 0, 77, 0
1, 2105, Note_on_c, 0, 74, 0
1, 2112, Note_on_c, 0, 79, 75
1, 2112, Note_on_c, 0, 75, 75
1, 2179, Note_on_c, 1, 70, 0
1, 2184, Note_on_c, 1, 68, 75
1, 2184, Note_on_c, 1, 65, 75
1, 2201, Note_on_c, 0, 79, 0
1, 2201, Note_on_c, 0, 75, 0
1, 2207, Note_on_c, 1, 68, 0
1, 2207, Note_on_c, 1, 65, 0
1, 2208, Note_on_c, 0, 80, 75
1, 2208, Note_on_c, 0, 77, 75
1, 2208, Note_on_c, 1, 67, 75
1, 2208, Note_on_c, 1, 63, 75
1, 2275, Note_on_c, 1, 67, 0
1, 2275, Note_on_c, 1, 63, 0
1, 2280, Note_on_c, 1, 65, 75
1, 2280, Note_on_c, 1, 62, 75
1, 2297, Note_on_c, 0, 80, 0
1, 2297, Note_on_c, 0, 77, 0
1, 2303, Note_on_c, 1, 65, 0
1, 2303, Note_on_c, 1, 62, 0
1, 2304, Note_on_c, 0, 80, 75
1, 2304, Note_on_c, 0, 77, 75
1, 2304, Note_on_c, 1, 65, 75
1, 2304, Note_on_c, 1, 62, 75
1, 2393, Note_on_c, 0, 80, 0
1, 2393, Note_on_c, 0, 77, 0
1, 2393, Note_on_c, 1, 65, 0
1, 2393, Note_on_c, 1, 62, 0
1, 2400, Note_on_c, 0, 79, 75
1, 2400, Note_on_c, 0, 75, 75
1, 2400, Note_on_c, 1, 67, 75
1, 2400, Note_on_c, 1, 63, 75
1, 2489, Note_on_c, 0, 79, 0
1, 2489, Note_on_c, 0, 75, 0
1, 2489, Note_on_c, 1, 67, 0
1, 2489, Note_on_c, 1, 63, 0
1, 2496, Note_on_c, 1, 68, 75
1, 2496, Note_on_c, 1, 65, 75
1, 2585, Note_on_c, 1, 68, 0
1, 2585, Note_on_c, 1, 65, 0
1, 2592, Note_on_c, 1, 68, 75
1, 2592, Note_on_c, 1, 65, 75
1, 2616, Note_on_c, 0, 70, 75
1, 2639, Note_on_c, 0, 70, 0
1, 2640, Note_on_c, 0, 72, 75
1, 2663, Note_on_c, 0, 72, 0
1, 2664, Note_on_c, 0, 74, 75
1, 2681, Note_on_c, 1, 68, 0
1, 2681, Note_on_c, 1, 65, 0
1, 2687, Note_on_c, 0, 74, 0
1, 2688, Note_on_c, 0, 75, 76
1, 2688, Note_on_c, 1, 67, 75
1, 2688, Note_on_c, 1, 63, 75
1, 2711, Note_on_c, 0, 75, 0
1, 2712, Note_on_c, 0, 77, 76
1, 2735, Note_on_c, 0, 77, 0
1, 2736, Note_on_c, 0, 79, 77
1, 2759, Note_on_c, 0, 79, 0
1, 2760, Note_on_c, 0, 81, 77
1, 2777, Note_on_c, 1, 67, 0
1, 2777, Note_on_c, 1, 63, 0
1, 2783, Note_on_c, 0, 81, 0
1, 2784, Note_on_c, 0, 82, 78
1, 2829, Note_on_c, 0, 82, 0
1, 2832, Note_on_c, 0, 79, 79
1, 2832, Note_on_c, 0, 75, 79
1, 2877, Note_on_c, 0, 79, 0
1, 2877, Note_on_c, 0, 75, 0
1, 2880, Note_on_c, 0, 77, 80
1, 2880, Note_on_c, 0, 74, 80
1, 2904, Note_on_c, 1, 58, 75
1, 2927, Note_on_c, 1, 58, 0
1, 2928, Note_on_c, 1, 60, 75
1, 2951, Note_on_c, 1, 60, 0
1, 2952, Note_on_c, 1, 62, 75
1, 2975, Note_on_c, 1, 62, 0
1, 2976, Note_on_c, 1, 63, 76
1, 2999, Note_on_c, 1, 63, 0
1, 3000, Note_on_c, 1, 65, 76
1, 3013, Note_on_c, 0, 77, 0
1, 3013, Note_on_c, 0, 74, 0
1, 3023, Note_on_c, 1, 65, 0
1, 3024, Note_on_c, 0, 75, 77
1, 3024, Note_on_c, 0, 72, 77
1, 3024, Note_on_c, 1, 67, 77
1, 3047, Note_on_c, 1, 67, 0
1, 3048, Note_on_c, 1, 69, 77
1, 3069, Note_on_c, 0, 75, 0
1, 3069, Note_on_c, 0, 72, 0
1, 3071, Note_on_c, 1, 69, 0
1, 3072, Note_on_c, 0, 74, 76
1, 3072, Note_on_c, 0, 70, 76
1, 3072, Note_on_c, 1, 70, 78
1, 3117, Note_on_c, 0, 74, 0
1, 3117, Note_on_c, 0, 70, 0
1, 3117, Note_on_c, 1, 70, 0
1, 3120, Note_on_c, 1, 67, 79
1, 3120, Note_on_c, 1, 63, 79
1, 3165, Note_on_c, 1, 67, 0
1, 3165, Note_on_c, 1, 63, 0
1, 3168, Note_on_c, 1, 65, 80
1, 3168, Note_on_c, 1, 62, 80
1, 3192, Note_on_c, 0, 70, 75
1, 3215, Note_on_c, 0, 70, 0
1, 3216, Note_on_c, 0, 72, 75
1, 3239, Note_on_c, 0, 72, 0
1, 3240, Note_on_c, 0, 74, 76
1, 3263, Note_on_c, 0, 74, 0
1, 3264, Note_on_c, 0, 75, 77
1, 3287, Note_on_c, 0, 75, 0
1, 3288, Note_on_c, 0, 77, 77
1, 3301, Note_on_c, 1, 65, 0
1, 3301, Note_on_c, 1, 62, 0
1, 3311, Note_on_c, 0, 77, 0
1, 3312, Note_on_c, 0, 79, 78
1, 3312, Note_on_c, 1, 63, 77
1, 3312, Note_on_c, 1, 60, 77
1, 3335, Note_on_c, 0, 79, 0
1, 3336, Note_on_c, 0, 81, 79
1, 3357, Note_on_c, 1, 63, 0
1, 3357, Note_on_c, 1, 60, 0
1, 3359, Note_on_c, 0, 81, 0
1, 3360, Note_on_c, 0, 82, 80
1, 3360, Note_on_c, 1, 62, 76
1, 3360, Note_on_c, 1, 58, 76
1, 3405, Note_on_c, 0, 82, 0
1, 3405, Note_on_c, 1, 62, 0
1, 3405, Note_on_c, 1, 58, 0
1, 3408, Note_on_c, 0, 79, 78
1, 3408, Note_on_c, 0, 75, 78
1, 3453, Note_on_c, 0, 79, 0
1, 3453, Note_on_c, 0, 75, 0
1, 3456, Note_on_c, 0, 77, 76
1, 3456, Note_on_c, 0, 74, 76
1, 3479, Note_on_c, 0, 77, 0
1, 3479, Note_on_c, 0, 74, 0
1, 3480, Note_on_c, 0, 74, 75
1, 3480, Note_on_c, 1, 58, 75
1, 3503, Note_on_c, 0, 74, 0
1, 3503, Note_on_c, 1, 58, 0
1, 3504, Note_on_c, 0, 75, 75
1, 3504, Note_on_c, 1, 60, 75
1, 3527, Note_on_c, 0, 75, 0
1, 3527, Note_on_c, 1, 60, 0
1, 3528, Note_on_c, 0, 77, 76
1, 3528, Note_on_c, 1, 62, 76
1, 3551, Note_on_c, 0, 77, 0
1, 3551, Note_on_c, 1, 62, 0
1, 3552, Note_on_c, 0, 79, 76
1, 3552, Note_on_c, 1, 63, 77
1, 3575, Note_on_c, 0, 79, 0
1, 3575, Note_on_c, 1, 63, 0
1, 3576, Note_on_c, 0, 81, 77
1, 3576, Note_on_c, 1, 65, 77
1, 3599, Note_on_c, 0, 81, 0
1, 3599, Note_on_c, 1, 65, 0
1, 3600, Note_on_c, 0, 82, 78
1, 3600, Note_on_c, 1, 67, 78
1, 3623, Note_on_c, 0, 82, 0
1, 3623, Note_on_c, 1, 67, 0
1, 3624, Note_on_c, 0, 84, 78
1, 3624, Note_on_c, 1, 69, 79
1, 3647, Note_on_c, 0, 84, 0
1, 3647, Note_on_c, 1, 69, 0
1, 3648, Note_on_c, 0, 86, 79
1, 3648, Note_on_c, 1, 70, 80
1, 3671, Note_on_c, 0, 86, 0
1, 3672, Note_on_c, 0, 81, 80
1, 3693, Note_on_c, 1, 70, 0
1, 3695, Note_on_c, 0, 81, 0
1, 3696, Note_on_c, 0, 82, 80
1, 3696, Note_on_c, 1, 62, 78
1, 3719, Note_on_c, 0, 82, 0
1, 3720, Note_on_c, 0, 78, 80
1, 3741, Note_on_c, 1, 62, 0
1, 3743, Note_on_c, 0, 78, 0
1, 3744, Note_on_c, 0, 79, 80
1, 3744, Note_on_c, 1, 63, 76
1, 3767, Note_on_c, 0, 79, 0
1, 3768, Note_on_c, 0, 74, 79
1, 3789, Note_on_c, 1, 63, 0
1, 3791, Note_on_c, 0, 74, 0
1, 3792, Note_on_c, 0, 75, 78
1, 3815, Note_on_c, 0, 75, 0
1, 3816, Note_on_c, 0, 72, 78
1, 3839, Note_on_c, 0, 72, 0
1, 3840, Note_on_c, 0, 70, 77
1, 3840, Note_on_c, 1, 62, 75
1, 3840, Note_on_c, 1, 53, 64
1, 3929, Note_on_c, 0, 70, 0
1, 3929, Note_on_c, 1, 62, 0
1, 3936, Note_on_c, 0, 69, 75
1, 3936, Note_on_c, 1, 60, 75
1, 3949, Note_on_c, 0, 69, 0
1, 3950, Note_on_c, 0, 70, 75
1, 3963, Note_on_c, 0, 70, 0
1, 3964, Note_on_c, 0, 69, 75
1, 3977, Note_on_c, 0, 69, 0
1, 3978, Note_on_c, 0, 70, 75
1, 3991, Note_on_c, 0, 70, 0
1, 3992, Note_on_c, 0, 69, 75
1, 4005, Note_on_c, 0, 69, 0
1, 4006, Note_on_c, 0, 67, 75
1, 4017, Note_on_c, 1, 53, 0
1, 4018, Note_on_c, 0, 67, 0
1, 4019, Note_on_c, 0, 69, 75
1, 4025, Note_on_c, 1, 60, 0
1, 4031, Note_on_c, 0, 69, 0
1, 4032, Note_on_c, 0, 70, 75
1, 4032, Note_on_c, 1, 58, 75
1, 4121, Note_on_c, 0, 70, 0
1, 4121, Note_on_c, 1, 58, 0
1, 4128, Note_on_c, 1, 46, 75
1, 4195, Note_on_c, 1, 46, 0
1, 4200, Note_on_c, 0, 70, 75
1, 4223, Note_on_c, 0, 70, 0
1, 4224, Note_on_c, 0, 72, 75
1, 4239, Note_on_c, 0, 72, 0
1, 4240, Note_on_c, 0, 70, 75
1, 4255, Note_on_c, 0, 70, 0
1, 4256, Note_on_c, 0, 72, 75
1, 4271, Note_on_c, 0, 72, 0
1, 4272, Note_on_c, 0, 70, 75
1, 4287, Note_on_c, 0, 70, 0
1, 4288, Note_on_c, 0, 68, 75
1, 4303, Note_on_c, 0, 68, 0
1, 4304, Note_on_c, 0, 70, 75
1, 4319, Note_on_c, 0, 70, 0
1, 4320, Note_on_c, 0, 75, 75
1, 4409, Note_on_c, 0, 75, 0
1, 4416, Note_on_c, 0, 70, 75
1, 4488, Note_on_c, 1, 58, 75
1, 4505, Note_on_c, 0, 70, 0
1, 4511, Note_on_c, 1, 58, 0
1, 4512, Note_on_c, 0, 68, 75
1, 4512, Note_on_c, 1, 60, 75
1, 4527, Note_on_c, 1, 60, 0
1, 4528, Note_on_c, 1, 58, 75
1, 4543, Note_on_c, 1, 58, 0
1, 4544, Note_on_c, 1, 60, 75
1, 4559, Note_on_c, 1, 60, 0
1, 4560, Note_on_c, 1, 58, 75
1, 4575, Note_on_c, 1, 58, 0
1, 4576, Note_on_c, 1, 56, 75
1, 4591, Note_on_c, 1, 56, 0
1, 4592, Note_on_c, 1, 58, 75
1, 4601, Note_on_c, 0, 68, 0
1, 4607, Note_on_c, 1, 58, 0
1, 4608, Note_on_c, 0, 68, 75
1, 4608, Note_on_c, 1, 63, 75
1, 4697, Note_on_c, 0, 68, 0
1, 4697, Note_on_c, 1, 63, 0
1, 4704, Note_on_c, 0, 67, 75
1, 4704, Note_on_c, 1, 58, 75
1, 4793, Note_on_c, 0, 67, 0
1, 4793, Note_on_c, 1, 58, 0
1, 4800, Note_on_c, 0, 67, 75
1, 4800, Note_on_c, 1, 56, 75
1, 4815, Note_on_c, 0, 67, 0
1, 4816, Note_on_c, 0, 65, 75
1, 4831, Note_on_c, 0, 65, 0
1, 4832, Note_on_c, 0, 67, 75
1, 4847, Note_on_c, 0, 67, 0
1, 4848, Note_on_c, 0, 65, 75
1, 4863, Note_on_c, 0, 65, 0
1, 4864, Note_on_c, 0, 63, 75
1, 4879, Note_on_c, 0, 63, 0
1, 4880, Note_on_c, 0, 65, 75
1, 4889, Note_on_c, 1, 56, 0
1, 4895, Note_on_c, 0, 65, 0
1, 4896, Note_on_c, 0, 65, 75
1, 4896, Note_on_c, 1, 56, 75
1, 4985, Note_on_c, 0, 65, 0
1, 4985, Note_on_c, 1, 56, 0
1, 4992, Note_on_c, 0, 63, 75
1, 4992, Note_on_c, 1, 55, 75
1, 5081, Note_on_c, 0, 63, 0
1, 5081, Note_on_c, 1, 55, 0
1, 5088, Note_on_c, 0, 80, 75
1, 5088, Note_on_c, 0, 74, 75
1, 5088, Note_on_c, 1, 55, 75
1, 5103, Note_on_c, 1, 55, 0
1, 5104, Note_on_c, 1, 53, 75
1, 5119, Note_on_c, 1, 53, 0
1, 5120, Note_on_c, 1, 55, 75
1, 5135, Note_on_c, 1, 55, 0
1, 5136, Note_on_c, 1, 53, 75
1, 5151, Note_on_c, 1, 53, 0
1, 5152, Note_on_c, 1, 51, 75
1, 5167, Note_on_c, 1, 51, 0
1, 5168, Note_on_c, 1, 53, 75
1, 5177, Note_on_c, 0, 80, 0
1, 5177, Note_on_c, 0, 74, 0
1, 5183, Note_on_c, 1, 53, 0
1, 5184, Note_on_c, 0, 80, 75
1, 5184, Note_on_c, 0, 74, 75
1, 5184, Note_on_c, 1, 53, 75
1, 5273, Note_on_c, 1, 53, 0
1, 5280, Note_on_c, 0, 80, 0
1, 5280, Note_on_c, 0, 74, 0
1, 5280, Note_on_c, 0, 79, 75
1, 5280, Note_on_c, 0, 75, 75
1, 5280, Note_on_c, 1, 51, 75
1, 5369, Note_on_c, 0, 79, 0
1, 5369, Note_on_c, 0, 75, 0
1, 5369, Note_on_c, 1, 51, 0
1, 5376, Note_on_c, 1, 68, 75
1, 5376, Note_on_c, 1, 62, 75
1, 5465, Note_on_c, 1, 68, 0
1, 5465, Note_on_c, 1, 62, 0
1, 5472, Note_on_c, 1, 68, 75
1, 5472, Note_on_c, 1, 62, 75
1, 5544, Note_on_c, 0, 70, 75
1, 5567, Note_on_c, 0, 70, 0
1, 5568, Note_on_c, 0, 82, 75
1, 5568, Note_on_c, 1, 68, 0
1, 5568, Note_on_c, 1, 62, 0
1, 5568, Note_on_c, 1, 67, 75
1, 5568, Note_on_c, 1, 63, 75
1, 5635, Note_on_c, 0, 82, 0
1, 5640, Note_on_c, 0, 82, 75
1, 5657, Note_on_c, 1, 67, 0
1, 5657, Note_on_c, 1, 63, 0
1, 5663, Note_on_c, 0, 82, 0
1, 5664, Note_on_c, 0, 82, 75
1, 5731, Note_on_c, 0, 82, 0
1, 5736, Note_on_c, 0, 82, 75
1, 5759, Note_on_c, 0, 82, 0
1, 5760, Note_on_c, 0, 82, 91
1, 5832, Note_on_c, 1, 58, 75
1, 5855, Note_on_c, 1, 58, 0
1, 5856, Note_on_c, 1, 70, 75
1, 5923, Note_on_c, 0, 82, 0
1, 5923, Note_on_c, 1, 70, 0
1, 5928, Note_on_c, 0, 80, 75
1, 5928, Note_on_c, 0, 77, 75
1, 5928, Note_on_c, 1, 70, 75
1, 5951, Note_on_c, 0, 80, 0
1, 5951, Note_on_c, 0, 77, 0
1, 5951, Note_on_c, 1, 70, 0
1, 5952, Note_on_c, 0, 79, 75
1, 5952, Note_on_c, 0, 75, 75
1, 5952, Note_on_c, 1, 70, 75
1, 6019, Note_on_c, 0, 79, 0
1, 6019, Note_on_c, 0, 75, 0
1, 6019, Note_on_c, 1, 70, 0
1, 6024, Note_on_c, 0, 77, 75
1, 6024, Note_on_c, 0, 74, 75
1, 6024, Note_on_c, 1, 70, 75
1, 6047, Note_on_c, 0, 77, 0
1, 6047, Note_on_c, 0, 74, 0
1, 6047, Note_on_c, 1, 70, 0
1, 6048, Note_on_c, 0, 77, 75
1, 6048, Note_on_c, 0, 74, 75
1, 6048, Note_on_c, 1, 70, 91
1, 6137, Note_on_c, 0, 77, 0
1, 6137, Note_on_c, 0, 74, 0
1, 6144, Note_on_c, 0, 79, 75
1, 6144, Note_on_c, 0, 75, 75
1, 6211, Note_on_c, 1, 70, 0
1, 6216, Note_on_c, 1, 68, 75
1, 6216, Note_on_c, 1, 65, 75
1, 6233, Note_on_c, 0, 79, 0
1, 6233, Note_on_c, 0, 75, 0
1, 6239, Note_on_c, 1, 68, 0
1, 6239, Note_on_c, 1, 65, 0
1, 6240, Note_on_c, 0, 80, 75
1, 6240, Note_on_c, 0, 77, 75
1, 6240, Note_on_c, 1, 67, 75
1, 6240, Note_on_c, 1, 63, 75
1, 6307, Note_on_c, 1, 67, 0
1, 6307, Note_on_c, 1, 63, 0
1, 6312, Note_on_c, 1, 65, 75
1, 6312, Note_on_c, 1, 62, 75
1, 6329, Note_on_c, 0, 80, 0
1, 6329, Note_on_c, 0, 77, 0
1, 6335, Note_on_c, 1, 65, 0
1, 6335, Note_on_c, 1, 62, 0
1, 6336, Note_on_c, 0, 80, 75
1, 6336, Note_on_c, 0, 77, 75
1, 6336, Note_on_c, 1, 65, 75
1, 6336, Note_on_c, 1, 62, 75
1, 6425, Note_on_c, 0, 80, 0
1, 6425, Note_on_c, 0, 77, 0
1, 6425, Note_on_c, 1, 65, 0
1, 6425, Note_on_c, 1, 62, 0
1, 6432, Note_on_c, 0, 79, 75
1, 6432, Note_on_c, 0, 75, 75
1, 6432, Note_on_c, 1, 67, 75
1, 6432, Note_on_c, 1, 63, 75
1, 6521, Note_on_c, 0, 79, 0
1, 6521, Note_on_c, 0, 75, 0
1, 6521, Note_on_c, 1, 67, 0
1, 6521, Note_on_c, 1, 63, 0
1, 6528, Note_on_c, 1, 68, 75
1, 6528, Note_on_c, 1, 65, 75
1, 6617, Note_on_c, 1, 68, 0
1, 6617, Note_on_c, 1, 65, 0
1, 6624, Note_on_c, 1, 68, 75
1, 6624, Note_on_c, 1, 65, 75
1, 6648, Note_on_c, 0, 70, 75
1, 6671, Note_on_c, 0, 70, 0
1, 6672, Note_on_c, 0, 72, 75
1, 6695, Note_on_c, 0, 72, 0
1, 6696, Note_on_c, 0, 74, 75
1, 6713, Note_on_c, 1, 68, 0
1, 6713, Note_on_c, 1, 65, 0
1, 6719, Note_on_c, 0, 74, 0
1, 6720, Note_on_c, 0, 75, 76
1, 6720, Note_on_c, 1, 67, 75
1, 6720, Note_on_c, 1, 63, 75
1, 6743, Note_on_c, 0, 75, 0
1, 6744, Note_on_c, 0, 77, 76
1, 6767, Note_on_c, 0, 77, 0
1, 6768, Note_on_c, 0, 79, 77
1, 6791, Note_on_c, 0, 79, 0
1, 6792, Note_on_c, 0, 81, 77
1, 6809, Note_on_c, 1, 67, 0
1, 6809, Note_on_c, 1, 63, 0
1, 6815, Note_on_c, 0, 81, 0
1, 6816, Note_on_c, 0, 82, 78
1, 6861, Note_on_c, 0, 82, 0
1, 6864, Note_on_c, 0, 79, 79
1, 6864, Note_on_c, 0, 75, 79
1, 6909, Note_on_c, 0, 79, 0
1, 6909, Note_on_c, 0, 75, 0
1, 6912, Note_on_c, 0, 77, 80
1, 6912, Note_on_c, 0, 74, 80
1, 6936, Note_on_c, 1, 58, 75
1, 6959, Note_on_c, 1, 58, 0
1, 6960, Note_on_c, 1, 60, 75
1, 6983, Note_on_c, 1, 60, 0
1, 6984, Note_on_c, 1, 62, 75
1, 7007, Note_on_c, 1, 62, 0
1, 7008, Note_on_c, 1, 63, 76
1, 7031, Note_on_c, 1, 63, 0
1, 7032, Note_on_c, 1, 65, 76
1, 7045, Note_on_c, 0, 77, 0
1, 7045, Note_on_c, 0, 74, 0
1, 7055, Note_on_c, 1, 65, 0
1, 7056, Note_on_c, 0, 75, 77
1, 7056, Note_on_c, 0, 72, 77
1, 7056, Note_on_c, 1, 67, 77
1, 7079, Note_on_c, 1, 67, 0
1, 7080, Note_on_c, 1, 69, 77
1, 7101, Note_on_c, 0, 75, 0
1, 7101, Note_on_c, 0, 72, 0
1, 7103, Note_on_c, 1, 69, 0
1, 7104, Note_on_c, 0, 74, 76
1, 7104, Note_on_c, 0, 70, 76
1, 7104, Note_on_c, 1, 70, 78
1, 7149, Note_on_c, 0, 74, 0
1, 7149, Note_on_c, 0, 70, 0
1, 7149, Note_on_c, 1, 70, 0
1, 7152, Note_on_c, 1, 67, 79
1, 7152, Note_on_c, 1, 63, 79
1, 7197, Note_on_c, 1, 67, 0
1, 7197, Note_on_c, 1, 63, 0
1, 7200, Note_on_c, 1, 65, 80
1, 7200, Note_on_c, 1, 62, 80
1, 7224, Note_on_c, 0, 70, 75
1, 7247, Note_on_c, 0, 70, 0
1, 7248, Note_on_c, 0, 72, 75
1, 7271, Note_on_c, 0, 72, 0
1, 7272, Note_on_c, 0, 74, 76
1, 7295, Note_on_c, 0, 74, 0
1, 7296, Note_on_c, 0, 75, 77
1, 7319, Note_on_c, 0, 75, 0
1, 7320, Note_on_c, 0, 77, 77
1, 7333, Note_on_c, 1, 65, 0
1, 7333, Note_on_c, 1, 62, 0
1, 7343, Note_on_c, 0, 77, 0
1, 7344, Note_on_c, 0, 79, 78
1, 7344, Note_on_c, 1, 63, 77
1, 7344, Note_on_c, 1, 60, 77
1, 7367, Note_on_c, 0, 79, 0
1, 7368, Note_on_c, 0, 81, 79
1, 7389, Note_on_c, 1, 63, 0
1, 7389, Note_on_c, 1, 60, 0
1, 7391, Note_on_c, 0, 81, 0
1, 7392, Note_on_c, 0, 82, 80
1, 7392, Note_on_c, 1, 62, 76
1, 7392, Note_on_c, 1, 58, 76
1, 7437, Note_on_c, 0, 82, 0
1, 7437, Note_on_c, 1, 62, 0
1, 7437, Note_on_c, 1, 58, 0
1, 7440, Note_on_c, 0, 79, 78
1, 7440, Note_on_c, 0, 75, 78
1, 7485, Note_on_c, 0, 79, 0
1, 7485, Note_on_c, 0, 75, 0
1, 7488, Note_on_c, 0, 77, 76
1, 7488, Note_on_c, 0, 74, 76
1, 7511, Note_on_c, 0, 77, 0
1, 7511, Note_on_c, 0, 74, 0
1, 7512, Note_on_c, 0, 74, 75
1, 7512, Note_on_c, 1, 58, 75
1, 7535, Note_on_c, 0, 74, 0
1, 7535, Note_on_c, 1, 58, 0
1, 7536, Note_on_c, 0, 75, 75
1, 7536, Note_on_c, 1, 60, 75
1, 7559, Note_on_c, 0, 75, 0
1, 7559, Note_on_c, 1, 60, 0
1, 7560, Note_on_c, 0, 77, 76
1, 7560, Note_on_c, 1, 62, 76
1, 7583, Note_on_c, 0, 77, 0
1, 7583, Note_on_c, 1, 62, 0
1, 7584, Note_on_c, 0, 79, 76
1, 7584, Note_on_c, 1, 63, 77
1, 7607, Note_on_c, 0, 79, 0
1, 7607, Note_on_c, 1, 63, 0
1, 7608, Note_on_c, 0, 81, 77
1, 7608, Note_on_c, 1, 65, 77
1, 7631, Note_on_c, 0, 81, 0
1, 7631, Note_on_c, 1, 65, 0
1, 7632, Note_on_c, 0, 82, 78
1, 7632, Note_on_c, 1, 67, 78
1, 7655, Note_on_c, 0, 82, 0
1, 7655, Note_on_c, 1, 67, 0
1, 7656, Note_on_c, 0, 84, 78
1, 7656, Note_on_c, 1, 69, 79
1, 7679, Note_on_c, 0, 84, 0
1, 7679, Note_on_c, 1, 69, 0
1, 7680, Note_on_c, 0, 86, 79
1, 7680, Note_on_c, 1, 70, 80
1, 7703, Note_on_c, 0, 86, 0
1, 7704, Note_on_c, 0, 81, 80
1, 7725, Note_on_c, 1, 70, 0
1, 7727, Note_on_c, 0, 81, 0
1, 7728, Note_on_c, 0, 82, 80
1, 7728, Note_on_c, 1, 62, 78
1, 7751, Note_on_c, 0, 82, 0
1, 7752, Note_on_c, 0, 78, 80
1, 7773, Note_on_c, 1, 62, 0
1, 7775, Note_on_c, 0, 78, 0
1, 7776, Note_on_c, 0, 79, 80
1, 7776, Note_on_c, 1, 63, 76
1, 7799, Note_on_c, 0, 79, 0
1, 7800, Note_on_c, 0, 74, 79
1, 7821, Note_on_c, 1, 63, 0
1, 7823, Note_on_c, 0, 74, 0
1, 7824, Note_on_c, 0, 75, 78
1, 7847, Note_on_c, 0, 75, 0
1, 7848, Note_on_c, 0, 72, 78
1, 7871, Note_on_c, 0, 72, 0
1, 7872, Note_on_c, 0, 70, 77
1, 7872, Note_on_c, 1, 62, 75
1, 7872, Note_on_c, 1, 53, 64
1, 7961, Note_on_c, 0, 70, 0
1, 7961, Note_on_c, 1, 62, 0
1, 7968, Note_on_c, 0, 69, 75
1, 7968, Note_on_c, 1, 60, 75
1, 7981, Note_on_c, 0, 69, 0
1, 7982, Note_on_c, 0, 70, 75
1, 7995, Note_on_c, 0, 70, 0
1, 7996, Note_on_c, 0, 69, 75
1, 8009, Note_on_c, 0, 69, 0
1, 8010, Note_on_c, 0, 70, 75
1, 8023, Note_on_c, 0, 70, 0
1, 8024, Note_on_c, 0, 69, 75
1, 8037, Note_on_c, 0, 69, 0
1, 8038, Note_on_c, 0, 67, 75
1, 8049, Note_on_c, 1, 53, 0
1, 8050, Note_on_c, 0, 67, 0
1, 8051, Note_on_c, 0, 69, 75
1, 8057, Note_on_c, 1, 60, 0
1, 8063, Note_on_c, 0, 69, 0
1, 8064, Note_on_c, 0, 70, 75
1, 8064, Note_on_c, 1, 58, 75
1, 8153, Note_on_c, 0, 70, 0
1, 8153, Note_on_c, 1, 58, 0
1, 8160, Note_on_c, 1, 46, 75
1, 8227, Note_on_c, 1, 46, 0
1, 8232, Note_on_c, 1, 58, 75
1, 8255, Note_on_c, 1, 58, 0
1, 8256, Note_on_c, 1, 60, 75
1, 8271, Note_on_c, 1, 60, 0
1, 8272, Note_on_c, 1, 58, 75
1, 8287, Note_on_c, 1, 58, 0
1, 8288, Note_on_c, 1, 60, 75
1, 8303, Note_on_c, 1, 60, 0
1, 8304, Note_on_c, 1, 58, 75
1, 8319, Note_on_c, 1, 58, 0
1, 8320, Note_on_c, 1, 57, 75
1, 8335, Note_on_c, 1, 57, 0
1, 8336, Note_on_c, 1, 58, 75
1, 8351, Note_on_c, 1, 58, 0
1, 8352, Note_on_c, 1, 65, 75
1, 8441, Note_on_c, 1, 65, 0
1, 8448, Note_on_c, 1, 62, 75
1, 8520, Note_on_c, 0, 70, 75
1, 8537, Note_on_c, 1, 62, 0
1, 8543, Note_on_c, 0, 70, 0
1, 8544, Note_on_c, 0, 72, 75
1, 8544, Note_on_c, 1, 58, 75
1, 8559, Note_on_c, 0, 72, 0
1, 8560, Note_on_c, 0, 70, 75
1, 8575, Note_on_c, 0, 70, 0
1, 8576, Note_on_c, 0, 72, 75
1, 8591, Note_on_c, 0, 72, 0
1, 8592, Note_on_c, 0, 70, 75
1, 8607, Note_on_c, 0, 70, 0
1, 8608, Note_on_c, 0, 68, 75
1, 8623, Note_on_c, 0, 68, 0
1, 8624, Note_on_c, 0, 70, 75
1, 8633, Note_on_c, 1, 58, 0
1, 8639, Note_on_c, 0, 70, 0
1, 8640, Note_on_c, 0, 77, 75
1, 8640, Note_on_c, 1, 56, 75
1, 8729, Note_on_c, 0, 77, 0
1, 8729, Note_on_c, 1, 56, 0
1, 8736, Note_on_c, 0, 74, 75
1, 8808, Note_on_c, 1, 62, 75
1, 8825, Note_on_c, 0, 74, 0
1, 8831, Note_on_c, 1, 62, 0
1, 8832, Note_on_c, 0, 70, 75
1, 8832, Note_on_c, 1, 63, 75
1, 8847, Note_on_c, 1, 63, 0
1, 8848, Note_on_c, 1, 62, 75
1, 8863, Note_on_c, 1, 62, 0
1, 8864, Note_on_c, 1, 63, 75
1, 8879, Note_on_c, 1, 63, 0
1, 8880, Note_on_c, 1, 62, 75
1, 8895, Note_on_c, 1, 62, 0
1, 8896, Note_on_c, 1, 60, 75
1, 8911, Note_on_c, 1, 60, 0
1, 8912, Note_on_c, 1, 62, 75
1, 8921, Note_on_c, 0, 70, 0
1, 8927, Note_on_c, 1, 62, 0
1, 8928, Note_on_c, 0, 68, 75
1, 8928, Note_on_c, 1, 65, 75
1, 9017, Note_on_c, 0, 68, 0
1, 9017, Note_on_c, 1, 65, 0
1, 9024, Note_on_c, 1, 62, 75
1, 9096, Note_on_c, 0, 74, 75
1, 9113, Note_on_c, 1, 62, 0
1, 9119, Note_on_c, 0, 74, 0
1, 9120, Note_on_c, 0, 75, 75
1, 9120, Note_on_c, 1, 59, 75
1, 9135, Note_on_c, 0, 75, 0
1, 9136, Note_on_c, 0, 74, 75
1, 9151, Note_on_c, 0, 74, 0
1, 9152, Note_on_c, 0, 75, 75
1, 9167, Note_on_c, 0, 75, 0
1, 9168, Note_on_c, 0, 74, 75
1, 9183, Note_on_c, 0, 74, 0
1, 9184, Note_on_c, 0, 72, 75
1, 9199, Note_on_c, 0, 72, 0
1, 9200, Note_on_c, 0, 74, 75
1, 9209, Note_on_c, 1, 59, 0
1, 9215, Note_on_c, 0, 74, 0
1, 9216, Note_on_c, 0, 77, 75
1, 9216, Note_on_c, 1, 55, 75
1, 9305, Note_on_c, 0, 77, 0
1, 9305, Note_on_c, 1, 55, 0
1, 9312, Note_on_c, 0, 74, 75
1, 9384, Note_on_c, 1, 62, 75
1, 9401, Note_on_c, 0, 74, 0
1, 9407, Note_on_c, 1, 62, 0
1, 9408, Note_on_c, 0, 71, 75
1, 9408, Note_on_c, 1, 63, 75
1, 9423, Note_on_c, 1, 63, 0
1, 9424, Note_on_c, 1, 62, 75
1, 9439, Note_on_c, 1, 62, 0
1, 9440, Note_on_c, 1, 63, 75
1, 9455, Note_on_c, 1, 63, 0
1, 9456, Note_on_c, 1, 62, 75
1, 9471, Note_on_c, 1, 62, 0
1, 9472, Note_on_c, 1, 60, 75
1, 9487, Note_on_c, 1, 60, 0
1, 9488, Note_on_c, 1, 62, 75
1, 9497, Note_on_c, 0, 71, 0
1, 9503, Note_on_c, 1, 62, 0
1, 9504, Note_on_c, 0, 67, 75
1, 9504, Note_on_c, 1, 63, 75
1, 9593, Note_on_c, 0, 67, 0
1, 9593, Note_on_c, 1, 63, 0
1, 9600, Note_on_c, 1, 67, 75
1, 9672, Note_on_c, 0, 74, 75
1, 9689, Note_on_c, 1, 67, 0
1, 9695, Note_on_c, 0, 74, 0
1, 9696, Note_on_c, 0, 75, 75
1, 9696, Note_on_c, 1, 59, 75
1, 9711, Note_on_c, 0, 75, 0
1, 9712, Note_on_c, 0, 74, 75
1, 9727, Note_on_c, 0, 74, 0
1, 9728, Note_on_c, 0, 75, 75
1, 9743, Note_on_c, 0, 75, 0
1, 9744, Note_on_c, 0, 74, 75
1, 9759, Note_on_c, 0, 74, 0
1, 9760, Note_on_c, 0, 72, 75
1, 9775, Note_on_c, 0, 72, 0
1, 9776, Note_on_c, 0, 74, 75
1, 9785, Note_on_c, 1, 59, 0
1, 9791, Note_on_c, 0, 74, 0
1, 9792, Note_on_c, 0, 75, 75
1, 9792, Note_on_c, 1, 60, 75
1, 9881, Note_on_c, 0, 75, 0
1, 9881, Note_on_c, 1, 60, 0
1, 9888, Note_on_c, 0, 79, 75
1, 9960, Note_on_c, 1, 67, 75
1, 9977, Note_on_c, 0, 79, 0
1, 9983, Note_on_c, 1, 67, 0
1, 9984, Note_on_c, 0, 71, 75
1, 9984, Note_on_c, 1, 68, 75
1, 9999, Note_on_c, 1, 68, 0
1, 10000, Note_on_c, 1, 67, 75
1, 10015, Note_on_c, 1, 67, 0
1, 10016, Note_on_c, 1, 68, 75
1, 10031, Note_on_c, 1, 68, 0
1, 10032, Note_on_c, 1, 67, 75
1, 10047, Note_on_c, 1, 67, 0
1, 10048, Note_on_c, 1, 65, 75
1, 10063, Note_on_c, 1, 65, 0
1, 10064, Note_on_c, 1, 67, 75
1, 10073, Note_on_c, 0, 71, 0
1, 10079, Note_on_c, 1, 67, 0
1, 10080, Note_on_c, 0, 72, 75
1, 10080, Note_on_c, 1, 68, 75
1, 10169, Note_on_c, 0, 72, 0
1, 10169, Note_on_c, 1, 68, 0
1, 10176, Note_on_c, 1, 72, 75
1, 10248, Note_on_c, 0, 79, 75
1, 10265, Note_on_c, 1, 72, 0
1, 10271, Note_on_c, 0, 79, 0
1, 10272, Note_on_c, 0, 80, 75
1, 10272, Note_on_c, 1, 64, 75
1, 10287, Note_on_c, 0, 80, 0
1, 10288, Note_on_c, 0, 79, 75
1, 10303, Note_on_c, 0, 79, 0
1, 10304, Note_on_c, 0, 80, 75
1, 10319, Note_on_c, 0, 80, 0
1, 10320, Note_on_c, 0, 79, 75
1, 10335, Note_on_c, 0, 79, 0
1, 10336, Note_on_c, 0, 77, 75
1, 10351, Note_on_c, 0, 77, 0
1, 10352, Note_on_c, 0, 79, 75
1, 10361, Note_on_c, 1, 64, 0
1, 10367, Note_on_c, 0, 79, 0
1, 10368, Note_on_c, 0, 80, 75
1, 10368, Note_on_c, 1, 65, 75
1, 10457, Note_on_c, 0, 80, 0
1, 10457, Note_on_c, 1, 65, 0
1, 10464, Note_on_c, 0, 84, 75
1, 10536, Note_on_c, 1, 67, 75
1, 10553, Note_on_c, 0, 84, 0
1, 10559, Note_on_c, 1, 67, 0
1, 10560, Note_on_c, 0, 76, 75
1, 10560, Note_on_c, 1, 68, 75
1, 10575, Note_on_c, 1, 68, 0
1, 10576, Note_on_c, 1, 67, 75
1, 10591, Note_on_c, 1, 67, 0
1, 10592, Note_on_c, 1, 68, 75
1, 10607, Note_on_c, 1, 68, 0
1, 10608, Note_on_c, 1, 67, 75
1, 10623, Note_on_c, 1, 67, 0
1, 10624, Note_on_c, 1, 65, 75
1, 10639, Note_on_c, 1, 65, 0
1, 10640, Note_on_c, 1, 67, 75
1, 10649, Note_on_c, 0, 76, 0
1, 10655, Note_on_c, 1, 67, 0
1, 10656, Note_on_c, 0, 77, 75
1, 10656, Note_on_c, 1, 68, 75
1, 10745, Note_on_c, 0, 77, 0
1, 10745, Note_on_c, 1, 68, 0
1, 10752, Note_on_c, 1, 72, 75
1, 10752, Note_on_c, 1, 68, 75
1, 10819, Note_on_c, 1, 72, 0
1, 10819, Note_on_c, 1, 68, 0
1, 10824, Note_on_c, 0, 79, 75
1, 10824, Note_on_c, 1, 70, 75
1, 10824, Note_on_c, 1, 67, 75
1, 10847, Note_on_c, 0, 79, 0
1, 10847, Note_on_c, 1, 70, 0
1, 10847, Note_on_c, 1, 67, 0
1, 10848, Note_on_c, 0, 80, 76
1, 10848, Note_on_c, 1, 68, 76
1, 10848, Note_on_c, 1, 65, 76
1, 10863, Note_on_c, 0, 80, 0
1, 10864, Note_on_c, 0, 79, 76
1, 10879, Note_on_c, 0, 79, 0
1, 10880, Note_on_c, 0, 80, 76
1, 10895, Note_on_c, 0, 80, 0
1, 10896, Note_on_c, 0, 79, 76
1, 10911, Note_on_c, 0, 79, 0
1, 10912, Note_on_c, 0, 77, 76
1, 10915, Note_on_c, 1, 68, 0
1, 10915, Note_on_c, 1, 65, 0
1, 10920, Note_on_c, 1, 67, 76
1, 10920, Note_on_c, 1, 63, 76
1, 10927, Note_on_c, 0, 77, 0
1, 10928, Note_on_c, 0, 79, 76
1, 10943, Note_on_c, 0, 79, 0
1, 10943, Note_on_c, 1, 67, 0
1, 10943, Note_on_c, 1, 63, 0
1, 10944, Note_on_c, 0, 80, 76
1, 10944, Note_on_c, 1, 65, 76
1, 10944, Note_on_c, 1, 62, 76
1, 10983, Note_on_c, 1, 65, 0
1, 10983, Note_on_c, 1, 62, 0
1, 11033, Note_on_c, 0, 80, 0
1, 11040, Note_on_c, 0, 84, 77
1, 11040, Note_on_c, 0, 80, 77
1, 11040, Note_on_c, 1, 65, 77
1, 11040, Note_on_c, 1, 62, 77
1, 11107, Note_on_c, 0, 84, 0
1, 11107, Note_on_c, 0, 80, 0
1, 11112, Note_on_c, 0, 82, 77
1, 11112, Note_on_c, 0, 79, 77
1, 11129, Note_on_c, 1, 65, 0
1, 11129, Note_on_c, 1, 62, 0
1, 11135, Note_on_c, 0, 82, 0
1, 11135, Note_on_c, 0, 79, 0
1, 11136, Note_on_c, 0, 80, 77
1, 11136, Note_on_c, 0, 77, 77
1, 11136, Note_on_c, 1, 67, 77
1, 11136, Note_on_c, 1, 63, 77
1, 11203, Note_on_c, 0, 80, 0
1, 11203, Note_on_c, 0, 77, 0
1, 11208, Note_on_c, 0, 79, 78
1, 11208, Note_on_c, 0, 75, 78
1, 11225, Note_on_c, 1, 67, 0
1, 11225, Note_on_c, 1, 63, 0
1, 11231, Note_on_c, 0, 79, 0
1, 11231, Note_on_c, 0, 75, 0
1, 11232, Note_on_c, 0, 77, 78
1, 11232, Note_on_c, 0, 74, 78
1, 11232, Note_on_c, 1, 68, 78
1, 11232, Note_on_c, 1, 65, 78
1, 11271, Note_on_c, 0, 77, 0
1, 11271, Note_on_c, 0, 74, 0
1, 11271, Note_on_c, 1, 68, 0
1, 11271, Note_on_c, 1, 65, 0
1, 11328, Note_on_c, 0, 77, 78
1, 11328, Note_on_c, 0, 74, 78
1, 11328, Note_on_c, 1, 68, 78
1, 11328, Note_on_c, 1, 65, 78
1, 11417, Note_on_c, 0, 77, 0
1, 11417, Note_on_c, 0, 74, 0
1, 11417, Note_on_c, 1, 68, 0
1, 11417, Note_on_c, 1, 65, 0
1, 11424, Note_on_c, 0, 79, 79
1, 11424, Note_on_c, 0, 75, 79
1, 11424, Note_on_c, 1, 67, 79
1, 11424, Note_on_c, 1, 63, 79
1, 11513, Note_on_c, 0, 79, 0
1, 11513, Note_on_c, 0, 75, 0
1, 11513, Note_on_c, 1, 67, 0
1, 11513, Note_on_c, 1, 63, 0
1, 11520, Note_on_c, 0, 80, 80
1, 11520, Note_on_c, 0, 77, 80
1, 11520, Note_on_c, 1, 65, 80
1, 11520, Note_on_c, 1, 62, 80
1, 11578, Note_on_c, 0, 80, 0
1, 11578, Note_on_c, 0, 77, 0
1, 11578, Note_on_c, 1, 65, 0
1, 11578, Note_on_c, 1, 62, 0
1, 11688, Note_on_c, 1, 58, 75
1, 11711, Note_on_c, 1, 58, 0
1, 11712, Note_on_c, 1, 60, 75
1, 11727, Note_on_c, 1, 60, 0
1, 11728, Note_on_c, 1, 58, 75
1, 11743, Note_on_c, 1, 58, 0
1, 11744, Note_on_c, 1, 60, 75
1, 11759, Note_on_c, 1, 60, 0
1, 11760, Note_on_c, 1, 58, 75
1, 11775, Note_on_c, 1, 58, 0
1, 11776, Note_on_c, 1, 56, 75
1, 11791, Note_on_c, 1, 56, 0
1, 11792, Note_on_c, 1, 58, 75
1, 11807, Note_on_c, 1, 58, 0
1, 11808, Note_on_c, 1, 63, 75
1, 11897, Note_on_c, 1, 63, 0
1, 11904, Note_on_c, 1, 58, 75
1, 11976, Note_on_c, 0, 70, 75
1, 11993, Note_on_c, 1, 58, 0
1, 11999, Note_on_c, 0, 70, 0
1, 12000, Note_on_c, 0, 72, 75
1, 12000, Note_on_c, 1, 56, 75
1, 12015, Note_on_c, 0, 72, 0
1, 12016, Note_on_c, 0, 70, 75
1, 12031, Note_on_c, 0, 70, 0
1, 12032, Note_on_c, 0, 72, 75
1, 12047, Note_on_c, 0, 72, 0
1, 12048, Note_on_c, 0, 70, 75
1, 12063, Note_on_c, 0, 70, 0
1, 12064, Note_on_c, 0, 68, 75
1, 12079, Note_on_c, 0, 68, 0
1, 12080, Note_on_c, 0, 70, 75
1, 12089, Note_on_c, 1, 56, 0
1, 12095, Note_on_c, 0, 70, 0
1, 12096, Note_on_c, 0, 75, 75
1, 12096, Note_on_c, 1, 56, 75
1, 12185, Note_on_c, 0, 75, 0
1, 12185, Note_on_c, 1, 56, 0
1, 12192, Note_on_c, 0, 70, 75
1, 12192, Note_on_c, 1, 55, 75
1, 12281, Note_on_c, 0, 70, 0
1, 12281, Note_on_c, 1, 55, 0
1, 12288, Note_on_c, 0, 68, 75
1, 12288, Note_on_c, 1, 55, 75
1, 12303, Note_on_c, 1, 55, 0
1, 12304, Note_on_c, 1, 53, 75
1, 12319, Note_on_c, 1, 53, 0
1, 12320, Note_on_c, 1, 55, 75
1, 12335, Note_on_c, 1, 55, 0
1, 12336, Note_on_c, 1, 53, 75
1, 12351, Note_on_c, 1, 53, 0
1, 12352, Note_on_c, 1, 51, 75
1, 12367, Note_on_c, 1, 51, 0
1, 12368, Note_on_c, 1, 53, 75
1, 12377, Note_on_c, 0, 68, 0
1, 12383, Note_on_c, 1, 53, 0
1, 12384, Note_on_c, 0, 68, 75
1, 12384, Note_on_c, 1, 53, 75
1, 12473, Note_on_c, 0, 68, 0
1, 12473, Note_on_c, 1, 53, 0
1, 12480, Note_on_c, 0, 67, 75
1, 12480, Note_on_c, 1, 51, 75
1, 12569, Note_on_c, 0, 67, 0
1, 12569, Note_on_c, 1, 51, 0
1, 12576, Note_on_c, 0, 67, 75
1, 12576, Note_on_c, 1, 68, 75
1, 12576, Note_on_c, 1, 62, 75
1, 12591, Note_on_c, 0, 67, 0
1, 12592, Note_on_c, 0, 65, 75
1, 12607, Note_on_c, 0, 65, 0
1, 12608, Note_on_c, 0, 67, 75
1, 12623, Note_on_c, 0, 67, 0
1, 12624, Note_on_c, 0, 65, 75
1, 12639, Note_on_c, 0, 65, 0
1, 12640, Note_on_c, 0, 63, 75
1, 12655, Note_on_c, 0, 63, 0
1, 12656, Note_on_c, 0, 65, 75
1, 12665, Note_on_c, 1, 68, 0
1, 12665, Note_on_c, 1, 62, 0
1, 12671, Note_on_c, 0, 65, 0
1, 12672, Note_on_c, 0, 65, 75
1, 12672, Note_on_c, 1, 68, 75
1, 12672, Note_on_c, 1, 62, 75
1, 12761, Note_on_c, 0, 65, 0
1, 12768, Note_on_c, 0, 63, 75
1, 12768, Note_on_c, 1, 68, 0
1, 12768, Note_on_c, 1, 62, 0
1, 12768, Note_on_c, 1, 67, 75
1, 12768, Note_on_c, 1, 63, 75
1, 12857, Note_on_c, 0, 63, 0
1, 12857, Note_on_c, 1, 67, 0
1, 12857, Note_on_c, 1, 63, 0
1, 12864, Note_on_c, 0, 80, 75
1, 12864, Note_on_c, 0, 74, 75
1, 12953, Note_on_c, 0, 80, 0
1, 12953, Note_on_c, 0, 74, 0
1, 12960, Note_on_c, 0, 80, 75
1, 12960, Note_on_c, 0, 74, 75
1, 13032, Note_on_c, 1, 51, 75
1, 13055, Note_on_c, 1, 51, 0
1, 13056, Note_on_c, 0, 80, 0
1, 13056, Note_on_c, 0, 74, 0
1, 13056, Note_on_c, 0, 79, 75
1, 13056, Note_on_c, 0, 75, 75
1, 13056, Note_on_c, 1, 63, 75
1, 13123, Note_on_c, 1, 63, 0
1, 13128, Note_on_c, 1, 63, 75
1, 13145, Note_on_c, 0, 79, 0
1, 13145, Note_on_c, 0, 75, 0
1, 13151, Note_on_c, 1, 63, 0
1, 13152, Note_on_c, 1, 63, 75
1, 13219, Note_on_c, 1, 63, 0
1, 13224, Note_on_c, 1, 63, 75
1, 13247, Note_on_c, 1, 63, 0
1, 13248, Note_on_c, 1, 63, 91
1, 13320, Note_on_c, 0, 63, 75
1, 13343, Note_on_c, 0, 63, 0
1, 13344, Note_on_c, 0, 75, 75
1, 13411, Note_on_c, 0, 75, 0
1, 13411, Note_on_c, 1, 63, 0
1, 13416, Note_on_c, 0, 75, 75
1, 13416, Note_on_c, 1, 61, 75
1, 13416, Note_on_c, 1, 58, 75
1, 13439, Note_on_c, 0, 75, 0
1, 13439, Note_on_c, 1, 61, 0
1, 13439, Note_on_c, 1, 58, 0
1, 13440, Note_on_c, 0, 75, 75
1, 13440, Note_on_c, 1, 60, 75
1, 13440, Note_on_c, 1, 56, 75
1, 13507, Note_on_c, 0, 75, 0
1, 13507, Note_on_c, 1, 60, 0
1, 13507, Note_on_c, 1, 56, 0
1, 13512, Note_on_c, 0, 75, 75
1, 13512, Note_on_c, 1, 58, 75
1, 13512, Note_on_c, 1, 55, 75
1, 13535, Note_on_c, 0, 75, 0
1, 13535, Note_on_c, 1, 58, 0
1, 13535, Note_on_c, 1, 55, 0
1, 13536, Note_on_c, 0, 75, 91
1, 13536, Note_on_c, 1, 58, 75
1, 13536, Note_on_c, 1, 55, 75
1, 13632, Note_on_c, 1, 58, 0
1, 13632, Note_on_c, 1, 55, 0
1, 13632, Note_on_c, 1, 60, 75
1, 13632, Note_on_c, 1, 56, 75
1, 13699, Note_on_c, 0, 75, 0
1, 13704, Note_on_c, 0, 73, 75
1, 13704, Note_on_c, 0, 70, 75
1, 13721, Note_on_c, 1, 60, 0
1, 13721, Note_on_c, 1, 56, 0
1, 13727, Note_on_c, 0, 73, 0
1, 13727, Note_on_c, 0, 70, 0
1, 13728, Note_on_c, 0, 72, 75
1, 13728, Note_on_c, 0, 68, 75
1, 13795, Note_on_c, 0, 72, 0
1, 13795, Note_on_c, 0, 68, 0
1, 13800, Note_on_c, 0, 70, 75
1, 13800, Note_on_c, 0, 67, 75
1, 13823, Note_on_c, 0, 70, 0
1, 13823, Note_on_c, 0, 67, 0
1, 13824, Note_on_c, 0, 70, 75
1, 13824, Note_on_c, 0, 67, 75
1, 13896, Note_on_c, 1, 44, 75
1, 13919, Note_on_c, 1, 44, 0
1, 13920, Note_on_c, 0, 70, 0
1, 13920, Note_on_c, 0, 67, 0
1, 13920, Note_on_c, 0, 72, 75
1, 13920, Note_on_c, 0, 68, 75
1, 13920, Note_on_c, 1, 60, 75
1, 13920, Note_on_c, 1, 56, 75
1, 13987, Note_on_c, 1, 60, 0
1, 13987, Note_on_c, 1, 56, 0
1, 13992, Note_on_c, 1, 58, 75
1, 13992, Note_on_c, 1, 55, 75
1, 14009, Note_on_c, 0, 72, 0
1, 14009, Note_on_c, 0, 68, 0
1, 14015, Note_on_c, 1, 58, 0
1, 14015, Note_on_c, 1, 55, 0
1, 14016, Note_on_c, 1, 56, 75
1, 14016, Note_on_c, 1, 53, 75
1, 14083, Note_on_c, 1, 56, 0
1, 14083, Note_on_c, 1, 53, 0
1, 14088, Note_on_c, 1, 55, 75
1, 14088, Note_on_c, 1, 51, 75
1, 14111, Note_on_c, 1, 55, 0
1, 14111, Note_on_c, 1, 51, 0
1, 14112, Note_on_c, 1, 53, 75
1, 14112, Note_on_c, 1, 50, 75
1, 14184, Note_on_c, 0, 68, 75
1, 14201, Note_on_c, 1, 53, 0
1, 14201, Note_on_c, 1, 50, 0
1, 14207, Note_on_c, 0, 68, 0
1, 14208, Note_on_c, 0, 84, 75
1, 14208, Note_on_c, 0, 80, 75
1, 14275, Note_on_c, 0, 84, 0
1, 14275, Note_on_c, 0, 80, 0
1, 14280, Note_on_c, 0, 82, 75
1, 14280, Note_on_c, 0, 79, 75
1, 14303, Note_on_c, 0, 82, 0
1, 14303, Note_on_c, 0, 79, 0
1, 14304, Note_on_c, 0, 80, 75
1, 14304, Note_on_c, 0, 77, 75
1, 14371, Note_on_c, 0, 80, 0
1, 14371, Note_on_c, 0, 77, 0
1, 14376, Note_on_c, 0, 79, 75
1, 14376, Note_on_c, 0, 75, 75
1, 14399, Note_on_c, 0, 79, 0
1, 14399, Note_on_c, 0, 75, 0
1, 14400, Note_on_c, 0, 77, 75
1, 14400, Note_on_c, 0, 74, 75
1, 14424, Note_on_c, 1, 58, 75
1, 14447, Note_on_c, 1, 58, 0
1, 14448, Note_on_c, 1, 60, 75
1, 14471, Note_on_c, 1, 60, 0
1, 14472, Note_on_c, 1, 62, 76
1, 14489, Note_on_c, 0, 77, 0
1, 14489, Note_on_c, 0, 74, 0
1, 14495, Note_on_c, 1, 62, 0
1, 14496, Note_on_c, 1, 63, 77
1, 14519, Note_on_c, 1, 63, 0
1, 14520, Note_on_c, 1, 65, 77
1, 14543, Note_on_c, 1, 65, 0
1, 14544, Note_on_c, 1, 67, 78
1, 14567, Note_on_c, 1, 67, 0
1, 14568, Note_on_c, 1, 68, 79
1, 14591, Note_on_c, 1, 68, 0
1, 14592, Note_on_c, 1, 70, 80
1, 14637, Note_on_c, 1, 70, 0
1, 14640, Note_on_c, 1, 68, 78
1, 14640, Note_on_c, 1, 65, 78
1, 14685, Note_on_c, 1, 68, 0
1, 14685, Note_on_c, 1, 65, 0
1, 14688, Note_on_c, 1, 67, 77
1, 14688, Note_on_c, 1, 63, 77
1, 14712, Note_on_c, 0, 70, 75
1, 14735, Note_on_c, 0, 70, 0
1, 14736, Note_on_c, 0, 72, 75
1, 14759, Note_on_c, 0, 72, 0
1, 14760, Note_on_c, 0, 74, 76
1, 14777, Note_on_c, 1, 67, 0
1, 14777, Note_on_c, 1, 63, 0
1, 14783, Note_on_c, 0, 74, 0
1, 14784, Note_on_c, 0, 75, 77
1, 14807, Note_on_c, 0, 75, 0
1, 14808, Note_on_c, 0, 77, 77
1, 14831, Note_on_c, 0, 77, 0
1, 14832, Note_on_c, 0, 79, 78
1, 14855, Note_on_c, 0, 79, 0
1, 14856, Note_on_c, 0, 80, 79
1, 14879, Note_on_c, 0, 80, 0
1, 14880, Note_on_c, 0, 82, 80
1, 14925, Note_on_c, 0, 82, 0
1, 14928, Note_on_c, 0, 80, 78
1, 14928, Note_on_c, 0, 77, 78
1, 14973, Note_on_c, 0, 80, 0
1, 14973, Note_on_c, 0, 77, 0
1, 14976, Note_on_c, 0, 79, 77
1, 14976, Note_on_c, 0, 75, 77
1, 15000, Note_on_c, 1, 51, 75
1, 15023, Note_on_c, 1, 51, 0
1, 15024, Note_on_c, 1, 53, 74
1, 15047, Note_on_c, 1, 53, 0
1, 15048, Note_on_c, 1, 55, 73
1, 15065, Note_on_c, 0, 79, 0
1, 15065, Note_on_c, 0, 75, 0
1, 15071, Note_on_c, 1, 55, 0
1, 15072, Note_on_c, 1, 56, 72
1, 15095, Note_on_c, 1, 56, 0
1, 15096, Note_on_c, 1, 58, 72
1, 15119, Note_on_c, 1, 58, 0
1, 15120, Note_on_c, 1, 60, 71
1, 15143, Note_on_c, 1, 60, 0
1, 15144, Note_on_c, 1, 62, 70
1, 15167, Note_on_c, 1, 62, 0
1, 15168, Note_on_c, 1, 63, 70
1, 15213, Note_on_c, 1, 63, 0
1, 15216, Note_on_c, 1, 60, 68
1, 15216, Note_on_c, 1, 56, 68
1, 15261, Note_on_c, 1, 60, 0
1, 15261, Note_on_c, 1, 56, 0
1, 15264, Note_on_c, 1, 58, 67
1, 15264, Note_on_c, 1, 55, 67
1, 15288, Note_on_c, 0, 63, 75
1, 15311, Note_on_c, 0, 63, 0
1, 15312, Note_on_c, 0, 65, 75
1, 15335, Note_on_c, 0, 65, 0
1, 15336, Note_on_c, 0, 67, 75
1, 15359, Note_on_c, 0, 67, 0
1, 15360, Note_on_c, 0, 68, 76
1, 15383, Note_on_c, 0, 68, 0
1, 15384, Note_on_c, 0, 70, 77
1, 15397, Note_on_c, 1, 58, 0
1, 15397, Note_on_c, 1, 55, 0
1, 15407, Note_on_c, 0, 70, 0
1, 15408, Note_on_c, 0, 72, 78
1, 15408, Note_on_c, 1, 56, 64
1, 15408, Note_on_c, 1, 53, 64
1, 15431, Note_on_c, 0, 72, 0
1, 15432, Note_on_c, 0, 74, 79
1, 15453, Note_on_c, 1, 56, 0
1, 15453, Note_on_c, 1, 53, 0
1, 15455, Note_on_c, 0, 74, 0
1, 15456, Note_on_c, 0, 75, 80
1, 15456, Note_on_c, 1, 55, 64
1, 15456, Note_on_c, 1, 51, 64
1, 15501, Note_on_c, 0, 75, 0
1, 15501, Note_on_c, 1, 55, 0
1, 15501, Note_on_c, 1, 51, 0
1, 15504, Note_on_c, 0, 72, 79
1, 15504, Note_on_c, 0, 68, 79
1, 15549, Note_on_c, 0, 72, 0
1, 15549, Note_on_c, 0, 68, 0
1, 15552, Note_on_c, 0, 70, 78
1, 15552, Note_on_c, 0, 67, 78
1, 15576, Note_on_c, 1, 51, 64
1, 15599, Note_on_c, 1, 51, 0
1, 15600, Note_on_c, 1, 53, 64
1, 15623, Note_on_c, 1, 53, 0
1, 15624, Note_on_c, 1, 55, 65
1, 15647, Note_on_c, 1, 55, 0
1, 15648, Note_on_c, 1, 56, 66
1, 15671, Note_on_c, 1, 56, 0
1, 15672, Note_on_c, 1, 58, 67
1, 15685, Note_on_c, 0, 70, 0
1, 15685, Note_on_c, 0, 67, 0
1, 15695, Note_on_c, 1, 58, 0
1, 15696, Note_on_c, 0, 68, 75
1, 15696, Note_on_c, 0, 65, 75
1, 15696, Note_on_c, 1, 60, 68
1, 15719, Note_on_c, 1, 60, 0
1, 15720, Note_on_c, 1, 62, 69
1, 15741, Note_on_c, 0, 68, 0
1, 15741, Note_on_c, 0, 65, 0
1, 15743, Note_on_c, 1, 62, 0
1, 15744, Note_on_c, 0, 67, 75
1, 15744, Note_on_c, 0, 63, 75
1, 15744, Note_on_c, 1, 63, 70
1, 15789, Note_on_c, 0, 67, 0
1, 15789, Note_on_c, 0, 63, 0
1, 15789, Note_on_c, 1, 63, 0
1, 15792, Note_on_c, 1, 60, 68
1, 15792, Note_on_c, 1, 56, 68
1, 15837, Note_on_c, 1, 60, 0
1, 15837, Note_on_c, 1, 56, 0
1, 15840, Note_on_c, 1, 58, 67
1, 15840, Note_on_c, 1, 55, 67
1, 15864, Note_on_c, 0, 63, 75
1, 15887, Note_on_c, 0, 63, 0
1, 15888, Note_on_c, 0, 65, 75
1, 15911, Note_on_c, 0, 65, 0
1, 15912, Note_on_c, 0, 67, 76
1, 15935, Note_on_c, 0, 67, 0
1, 15936, Note_on_c, 0, 68, 77
1, 15959, Note_on_c, 0, 68, 0
1, 15960, Note_on_c, 0, 70, 77
1, 15973, Note_on_c, 1, 58, 0
1, 15973, Note_on_c, 1, 55, 0
1, 15983, Note_on_c, 0, 70, 0
1, 15984, Note_on_c, 0, 72, 78
1, 15984, Note_on_c, 1, 56, 64
1, 15984, Note_on_c, 1, 53, 64
1, 16007, Note_on_c, 0, 72, 0
1, 16008, Note_on_c, 0, 74, 79
1, 16029, Note_on_c, 1, 56, 0
1, 16029, Note_on_c, 1, 53, 0
1, 16031, Note_on_c, 0, 74, 0
1, 16032, Note_on_c, 0, 75, 80
1, 16032, Note_on_c, 1, 55, 64
1, 16032, Note_on_c, 1, 51, 64
1, 16077, Note_on_c, 0, 75, 0
1, 16077, Note_on_c, 1, 55, 0
1, 16077, Note_on_c, 1, 51, 0
1, 16080, Note_on_c, 0, 72, 82
1, 16080, Note_on_c, 0, 68, 82
1, 16125, Note_on_c, 0, 72, 0
1, 16125, Note_on_c, 0, 68, 0
1, 16128, Note_on_c, 0, 67, 84
1, 16128, Note_on_c, 0, 63, 84
1, 16151, Note_on_c, 0, 67, 0
1, 16151, Note_on_c, 0, 63, 0
1, 16152, Note_on_c, 0, 67, 86
1, 16152, Note_on_c, 1, 51, 64
1, 16175, Note_on_c, 0, 67, 0
1, 16175, Note_on_c, 1, 51, 0
1, 16176, Note_on_c, 0, 68, 91
1, 16176, Note_on_c, 1, 53, 64
1, 16199, Note_on_c, 0, 68, 0
1, 16199, Note_on_c, 1, 53, 0
1, 16200, Note_on_c, 0, 70, 96
1, 16200, Note_on_c, 1, 55, 65
1, 16223, Note_on_c, 0, 70, 0
1, 16223, Note_on_c, 1, 55, 0
1, 16224, Note_on_c, 0, 72, 101
1, 16224, Note_on_c, 1, 56, 66
1, 16247, Note_on_c, 0, 72, 0
1, 16247, Note_on_c, 1, 56, 0
1, 16248, Note_on_c, 0, 74, 106
1, 16248, Note_on_c, 1, 58, 66
1, 16271, Note_on_c, 0, 74, 0
1, 16271, Note_on_c, 1, 58, 0
1, 16272, Note_on_c, 0, 75, 111
1, 16272, Note_on_c, 1, 60, 67
1, 16295, Note_on_c, 0, 75, 0
1, 16295, Note_on_c, 1, 60, 0
1, 16296, Note_on_c, 0, 77, 116
1, 16296, Note_on_c, 1, 62, 68
1, 16319, Note_on_c, 0, 77, 0
1, 16319, Note_on_c, 1, 62, 0
1, 16320, Note_on_c, 0, 79, 121
1, 16320, Note_on_c, 1, 63, 68
1, 16343, Note_on_c, 0, 79, 0
1, 16344, Note_on_c, 0, 74, 126
1, 16365, Note_on_c, 1, 63, 0
1, 16367, Note_on_c, 0, 74, 0
1, 16368, Note_on_c, 0, 75, 126
1, 16368, Note_on_c, 1, 55, 70
1, 16391, Note_on_c, 0, 75, 0
1, 16392, Note_on_c, 0, 71, 126
1, 16413, Note_on_c, 1, 55, 0
1, 16415, Note_on_c, 0, 71, 0
1, 16416, Note_on_c, 0, 72, 126
1, 16416, Note_on_c, 1, 56, 68
1, 16416, Note_on_c, 1, 56, 64
1, 16439, Note_on_c, 0, 72, 0
1, 16440, Note_on_c, 0, 67, 121
1, 16463, Note_on_c, 0, 67, 0
1, 16464, Note_on_c, 0, 68, 116
1, 16487, Note_on_c, 0, 68, 0
1, 16488, Note_on_c, 0, 65, 111
1, 16505, Note_on_c, 1, 56, 0
1, 16505, Note_on_c, 1, 56, 0
1, 16511, Note_on_c, 0, 65, 0
1, 16512, Note_on_c, 0, 63, 106
1, 16512, Note_on_c, 1, 55, 64
1, 16512, Note_on_c, 1, 46, 64
1, 16601, Note_on_c, 0, 63, 0
1, 16601, Note_on_c, 1, 55, 0
1, 16608, Note_on_c, 0, 62, 86
1, 16608, Note_on_c, 1, 53, 64
1, 16621, Note_on_c, 0, 62, 0
1, 16622, Note_on_c, 0, 63, 86
1, 16635, Note_on_c, 0, 63, 0
1, 16636, Note_on_c, 0, 62, 86
1, 16649, Note_on_c, 0, 62, 0
1, 16650, Note_on_c, 0, 63, 86
1, 16663, Note_on_c, 0, 63, 0
1, 16664, Note_on_c, 0, 62, 86
1, 16677, Note_on_c, 0, 62, 0
1, 16678, Note_on_c, 0, 60, 86
1, 16689, Note_on_c, 1, 46, 0
1, 16690, Note_on_c, 0, 60, 0
1, 16691, Note_on_c, 0, 62, 86
1, 16697, Note_on_c, 1, 53, 0
1, 16703, Note_on_c, 0, 62, 0
1, 16704, Note_on_c, 0, 63, 86
1, 16704, Note_on_c, 1, 51, 64
1, 16793, Note_on_c, 0, 63, 0
1, 16793, Note_on_c, 1, 51, 0
1, 16800, Note_on_c, 1, 39, 64
1, 16867, Note_on_c, 1, 39, 0
1, 16872, Note_on_c, 1, 58, 75
1, 16895, Note_on_c, 1, 58, 0
1, 16896, Note_on_c, 1, 60, 75
1, 16911, Note_on_c, 1, 60, 0
1, 16912, Note_on_c, 1, 58, 75
1, 16927, Note_on_c, 1, 58, 0
1, 16928, Note_on_c, 1, 60, 75
1, 16943, Note_on_c, 1, 60, 0
1, 16944, Note_on_c, 1, 58, 75
1, 16959, Note_on_c, 1, 58, 0
1, 16960, Note_on_c, 1, 57, 75
1, 16975, Note_on_c, 1, 57, 0
1, 16976, Note_on_c, 1, 58, 75
1, 16991, Note_on_c, 1, 58, 0
1, 16992, Note_on_c, 1, 65, 75
1, 17081, Note_on_c, 1, 65, 0
1, 17088, Note_on_c, 1, 62, 75
1, 17160, Note_on_c, 0, 70, 75
1, 17177, Note_on_c, 1, 62, 0
1, 17183, Note_on_c, 0, 70, 0
1, 17184, Note_on_c, 0, 72, 75
1, 17184, Note_on_c, 1, 58, 75
1, 17199, Note_on_c, 0, 72, 0
1, 17200, Note_on_c, 0, 70, 75
1, 17215, Note_on_c, 0, 70, 0
1, 17216, Note_on_c, 0, 72, 75
1, 17231, Note_on_c, 0, 72, 0
1, 17232, Note_on_c, 0, 70, 75
1, 17247, Note_on_c, 0, 70, 0
1, 17248, Note_on_c, 0, 68, 75
1, 17263, Note_on_c, 0, 68, 0
1, 17264, Note_on_c, 0, 70, 75
1, 17273, Note_on_c, 1, 58, 0
1, 17279, Note_on_c, 0, 70, 0
1, 17280, Note_on_c, 0, 77, 75
1, 17280, Note_on_c, 1, 56, 75
1, 17369, Note_on_c, 0, 77, 0
1, 17369, Note_on_c, 1, 56, 0
1, 17376, Note_on_c, 0, 74, 75
1, 17448, Note_on_c, 1, 62, 75
1, 17465, Note_on_c, 0, 74, 0
1, 17471, Note_on_c, 1, 62, 0
1, 17472, Note_on_c, 0, 70, 75
1, 17472, Note_on_c, 1, 63, 75
1, 17487, Note_on_c, 1, 63, 0
1, 17488, Note_on_c, 1, 62, 75
1, 17503, Note_on_c, 1, 62, 0
1, 17504, Note_on_c, 1, 63, 75
1, 17519, Note_on_c, 1, 63, 0
1, 17520, Note_on_c, 1, 62, 75
1, 17535, Note_on_c, 1, 62, 0
1, 17536, Note_on_c, 1, 60, 75
1, 17551, Note_on_c, 1, 60, 0
1, 17552, Note_on_c, 1, 62, 75
1, 17561, Note_on_c, 0, 70, 0
1, 17567, Note_on_c, 1, 62, 0
1, 17568, Note_on_c, 0, 68, 75
1, 17568, Note_on_c, 1, 65, 75
1, 17657, Note_on_c, 0, 68, 0
1, 17657, Note_on_c, 1, 65, 0
1, 17664, Note_on_c, 1, 62, 75
1, 17736, Note_on_c, 0, 74, 75
1, 17753, Note_on_c, 1, 62, 0
1, 17759, Note_on_c, 0, 74, 0
1, 17760, Note_on_c, 0, 75, 75
1, 17760, Note_on_c, 1, 59, 75
1, 17775, Note_on_c, 0, 75, 0
1, 17776, Note_on_c, 0, 74, 75
1, 17791, Note_on_c, 0, 74, 0
1, 17792, Note_on_c, 0, 75, 75
1, 17807, Note_on_c, 0, 75, 0
1, 17808, Note_on_c, 0, 74, 75
1, 17823, Note_on_c, 0, 74, 0
1, 17824, Note_on_c, 0, 72, 75
1, 17839, Note_on_c, 0, 72, 0
1, 17840, Note_on_c, 0, 74, 75
1, 17849, Note_on_c, 1, 59, 0
1, 17855, Note_on_c, 0, 74, 0
1, 17856, Note_on_c, 0, 77, 75
1, 17856, Note_on_c, 1, 55, 75
1, 17945, Note_on_c, 0, 77, 0
1, 17945, Note_on_c, 1, 55, 0
1, 17952, Note_on_c, 0, 74, 75
1, 18024, Note_on_c, 1, 62, 75
1, 18041, Note_on_c, 0, 74, 0
1, 18047, Note_on_c, 1, 62, 0
1, 18048, Note_on_c, 0, 71, 75
1, 18048, Note_on_c, 1, 63, 75
1, 18063, Note_on_c, 1, 63, 0
1, 18064, Note_on_c, 1, 62, 75
1, 18079, Note_on_c, 1, 62, 0
1, 18080, Note_on_c, 1, 63, 75
1, 18095, Note_on_c, 1, 63, 0
1, 18096, Note_on_c, 1, 62, 75
1, 18111, Note_on_c, 1, 62, 0
1, 18112, Note_on_c, 1, 60, 75
1, 18127, Note_on_c, 1, 60, 0
1, 18128, Note_on_c, 1, 62, 75
1, 18137, Note_on_c, 0, 71, 0
1, 18143, Note_on_c, 1, 62, 0
1, 18144, Note_on_c, 0, 67, 75
1, 18144, Note_on_c, 1, 63, 75
1, 18233, Note_on_c, 0, 67, 0
1, 18233, Note_on_c, 1, 63, 0
1, 18240, Note_on_c, 1, 67, 75
1, 18312, Note_on_c, 0, 74, 75
1, 18329, Note_on_c, 1, 67, 0
1, 18335, Note_on_c, 0, 74, 0
1, 18336, Note_on_c, 0, 75, 75
1, 18336, Note_on_c, 1, 59, 75
1, 18351, Note_on_c, 0, 75, 0
1, 18352, Note_on_c, 0, 74, 75
1, 18367, Note_on_c, 0, 74, 0
1, 18368, Note_on_c, 0, 75, 75
1, 18383, Note_on_c, 0, 75, 0
1, 18384, Note_on_c, 0, 74, 75
1, 18399, Note_on_c, 0, 74, 0
1, 18400, Note_on_c, 0, 72, 75
1, 18415, Note_on_c, 0, 72, 0
1, 18416, Note_on_c, 0, 74, 75
1, 18425, Note_on_c, 1, 59, 0
1, 18431, Note_on_c, 0, 74, 0
1, 18432, Note_on_c, 0, 75, 75
1, 18432, Note_on_c, 1, 60, 75
1, 18521, Note_on_c, 0, 75, 0
1, 18521, Note_on_c, 1, 60, 0
1, 18528, Note_on_c, 0, 79, 75
1, 18600, Note_on_c, 1, 67, 75
1, 18617, Note_on_c, 0, 79, 0
1, 18623, Note_on_c, 1, 67, 0
1, 18624, Note_on_c, 0, 71, 75
1, 18624, Note_on_c, 1, 68, 75
1, 18639, Note_on_c, 1, 68, 0
1, 18640, Note_on_c, 1, 67, 75
1, 18655, Note_on_c, 1, 67, 0
1, 18656, Note_on_c, 1, 68, 75
1, 18671, Note_on_c, 1, 68, 0
1, 18672, Note_on_c, 1, 67, 75
1, 18687, Note_on_c, 1, 67, 0
1, 18688, Note_on_c, 1, 65, 75
1, 18703, Note_on_c, 1, 65, 0
1, 18704, Note_on_c, 1, 67, 75
1, 18713, Note_on_c, 0, 71, 0
1, 18719, Note_on_c, 1, 67, 0
1, 18720, Note_on_c, 0, 72, 75
1, 18720, Note_on_c, 1, 68, 75
1, 18809, Note_on_c, 0, 72, 0
1, 18809, Note_on_c, 1, 68, 0
1, 18816, Note_on_c, 1, 72, 75
1, 18888, Note_on_c, 0, 79, 75
1, 18905, Note_on_c, 1, 72, 0
1, 18911, Note_on_c, 0, 79, 0
1, 18912, Note_on_c, 0, 80, 75
1, 18912, Note_on_c, 1, 64, 75
1, 18927, Note_on_c, 0, 80, 0
1, 18928, Note_on_c, 0, 79, 75
1, 18943, Note_on_c, 0, 79, 0
1, 18944, Note_on_c, 0, 80, 75
1, 18959, Note_on_c, 0, 80, 0
1, 18960, Note_on_c, 0, 79, 75
1, 18975, Note_on_c, 0, 79, 0
1, 18976, Note_on_c, 0, 77, 75
1, 18991, Note_on_c, 0, 77, 0
1, 18992, Note_on_c, 0, 79, 75
1, 19001, Note_on_c, 1, 64, 0
1, 19007, Note_on_c, 0, 79, 0
1, 19008, Note_on_c, 0, 80, 75
1, 19008, Note_on_c, 1, 65, 75
1, 19097, Note_on_c, 0, 80, 0
1, 19097, Note_on_c, 1, 65, 0
1, 19104, Note_on_c, 0, 84, 75
1, 19176, Note_on_c, 1, 67, 75
1, 19193, Note_on_c, 0, 84, 0
1, 19199, Note_on_c, 1, 67, 0
1, 19200, Note_on_c, 0, 76, 75
1, 19200, Note_on_c, 1, 68, 75
1, 19215, Note_on_c, 1, 68, 0
1, 19216, Note_on_c, 1, 67, 75
1, 19231, Note_on_c, 1, 67, 0
1, 19232, Note_on_c, 1, 68, 75
1, 19247, Note_on_c, 1, 68, 0
1, 19248, Note_on_c, 1, 67, 75
1, 19263, Note_on_c, 1, 67, 0
1, 19264, Note_on_c, 1, 65, 75
1, 19279, Note_on_c, 1, 65, 0
1, 19280, Note_on_c, 1, 67, 75
1, 19289, Note_on_c, 0, 76, 0
1, 19295, Note_on_c, 1, 67, 0
1, 19296, Note_on_c, 0, 77, 75
1, 19296, Note_on_c, 1, 68, 75
1, 19385, Note_on_c, 0, 77, 0
1, 19385, Note_on_c, 1, 68, 0
1, 19392, Note_on_c, 1, 72, 75
1, 19392, Note_on_c, 1, 68, 75
1, 19459, Note_on_c, 1, 72, 0
1, 19459, Note_on_c, 1, 68, 0
1, 19464, Note_on_c, 0, 79, 75
1, 19464, Note_on_c, 1, 70, 75
1, 19464, Note_on_c, 1, 67, 75
1, 19487, Note_on_c, 0, 79, 0
1, 19487, Note_on_c, 1, 70, 0
1, 19487, Note_on_c, 1, 67, 0
1, 19488, Note_on_c, 0, 80, 76
1, 19488, Note_on_c, 1, 68, 76
1, 19488, Note_on_c, 1, 65, 76
1, 19503, Note_on_c, 0, 80, 0
1, 19504, Note_on_c, 0, 79, 76
1, 19519, Note_on_c, 0, 79, 0
1, 19520, Note_on_c, 0, 80, 76
1, 19535, Note_on_c, 0, 80, 0
1, 19536, Note_on_c, 0, 79, 76
1, 19551, Note_on_c, 0, 79, 0
1, 19552, Note_on_c, 0, 77, 76
1, 19555, Note_on_c, 1, 68, 0
1, 19555, Note_on_c, 1, 65, 0
1, 19560, Note_on_c, 1, 67, 76
1, 19560, Note_on_c, 1, 63, 76
1, 19567, Note_on_c, 0, 77, 0
1, 19568, Note_on_c, 0, 79, 76
1, 19583, Note_on_c, 0, 79, 0
1, 19583, Note_on_c, 1, 67, 0
1, 19583, Note_on_c, 1, 63, 0
1, 19584, Note_on_c, 0, 80, 76
1, 19584, Note_on_c, 1, 65, 76
1, 19584, Note_on_c, 1, 62, 76
1, 19623, Note_on_c, 1, 65, 0
1, 19623, Note_on_c, 1, 62, 0
1, 19673, Note_on_c, 0, 80, 0
1, 19680, Note_on_c, 0, 84, 77
1, 19680, Note_on_c, 0, 80, 77
1, 19680, Note_on_c, 1, 65, 77
1, 19680, Note_on_c, 1, 62, 77
1, 19747, Note_on_c, 0, 84, 0
1, 19747, Note_on_c, 0, 80, 0
1, 19752, Note_on_c, 0, 82, 77
1, 19752, Note_on_c, 0, 79, 77
1, 19769, Note_on_c, 1, 65, 0
1, 19769, Note_on_c, 1, 62, 0
1, 19775, Note_on_c, 0, 82, 0
1, 19775, Note_on_c, 0, 79, 0
1, 19776, Note_on_c, 0, 80, 77
1, 19776, Note_on_c, 0, 77, 77
1, 19776, Note_on_c, 1, 67, 77
1, 19776, Note_on_c, 1, 63, 77
1, 19843, Note_on_c, 0, 80, 0
1, 19843, Note_on_c, 0, 77, 0
1, 19848, Note_on_c, 0, 79, 78
1, 19848, Note_on_c, 0, 75, 78
1, 19865, Note_on_c, 1, 67, 0
1, 19865, Note_on_c, 1, 63, 0
1, 19871, Note_on_c, 0, 79, 0
1, 19871, Note_on_c, 0, 75, 0
1, 19872, Note_on_c, 0, 77, 78
1, 19872, Note_on_c, 0, 74, 78
1, 19872, Note_on_c, 1, 68, 78
1, 19872, Note_on_c, 1, 65, 78
1, 19911, Note_on_c, 0, 77, 0
1, 19911, Note_on_c, 0, 74, 0
1, 19911, Note_on_c, 1, 68, 0
1, 19911, Note_on_c, 1, 65, 0
1, 19968, Note_on_c, 0, 77, 78
1, 19968, Note_on_c, 0, 74, 78
1, 19968, Note_on_c, 1, 68, 78
1, 19968, Note_on_c, 1, 65, 78
1, 20057, Note_on_c, 0, 77, 0
1, 20057, Note_on_c, 0, 74, 0
1, 20057, Note_on_c, 1, 68, 0
1, 20057, Note_on_c, 1, 65, 0
1, 20064, Note_on_c, 0, 79, 79
1, 20064, Note_on_c, 0, 75, 79
1, 20064, Note_on_c, 1, 67, 79
1, 20064, Note_on_c, 1, 63, 79
1, 20153, Note_on_c, 0, 79, 0
1, 20153, Note_on_c, 0, 75, 0
1, 20153, Note_on_c, 1, 67, 0
1, 20153, Note_on_c, 1, 63, 0
1, 20160, Note_on_c, 0, 80, 80
1, 20160, Note_on_c, 0, 77, 80
1, 20160, Note_on_c, 1, 65, 80
1, 20160, Note_on_c, 1, 62, 80
1, 20218, Note_on_c, 0, 80, 0
1, 20218, Note_on_c, 0, 77, 0
1, 20218, Note_on_c, 1, 65, 0
1, 20218, Note_on_c, 1, 62, 0
1, 20328, Note_on_c, 1, 58, 75
1, 20351, Note_on_c, 1, 58, 0
1, 20352, Note_on_c, 1, 60, 75
1, 20367, Note_on_c, 1, 60, 0
1, 20368, Note_on_c, 1, 58, 75
1, 20383, Note_on_c, 1, 58, 0
1, 20384, Note_on_c, 1, 60, 75
1, 20399, Note_on_c, 1, 60, 0
1, 20400, Note_on_c, 1, 58, 75
1, 20415, Note_on_c, 1, 58, 0
1, 20416, Note_on_c, 1, 56, 75
1, 20431, Note_on_c, 1, 56, 0
1, 20432, Note_on_c, 1, 58, 75
1, 20447, Note_on_c, 1, 58, 0
1, 20448, Note_on_c, 1, 63, 75
1, 20537, Note_on_c, 1, 63, 0
1, 20544, Note_on_c, 1, 58, 75
1, 20616, Note_on_c, 0, 70, 75
1, 20633, Note_on_c, 1, 58, 0
1, 20639, Note_on_c, 0, 70, 0
1, 20640, Note_on_c, 0, 72, 75
1, 20640, Note_on_c, 1, 56, 75
1, 20655, Note_on_c, 0, 72, 0
1, 20656, Note_on_c, 0, 70, 75
1, 20671, Note_on_c, 0, 70, 0
1, 20672, Note_on_c, 0, 72, 75
1, 20687, Note_on_c, 0, 72, 0
1, 20688, Note_on_c, 0, 70, 75
1, 20703, Note_on_c, 0, 70, 0
1, 20704, Note_on_c, 0, 68, 75
1, 20719, Note_on_c, 0, 68, 0
1, 20720, Note_on_c, 0, 70, 75
1, 20729, Note_on_c, 1, 56, 0
1, 20735, Note_on_c, 0, 70, 0
1, 20736, Note_on_c, 0, 75, 75
1, 20736, Note_on_c, 1, 56, 75
1, 20825, Note_on_c, 0, 75, 0
1, 20825, Note_on_c, 1, 56, 0
1, 20832, Note_on_c, 0, 70, 75
1, 20832, Note_on_c, 1, 55, 75
1, 20921, Note_on_c, 0, 70, 0
1, 20921, Note_on_c, 1, 55, 0
1, 20928, Note_on_c, 0, 68, 75
1, 20928, Note_on_c, 1, 55, 75
1, 20943, Note_on_c, 1, 55, 0
1, 20944, Note_on_c, 1, 53, 75
1, 20959, Note_on_c, 1, 53, 0
1, 20960, Note_on_c, 1, 55, 75
1, 20975, Note_on_c, 1, 55, 0
1, 20976, Note_on_c, 1, 53, 75
1, 20991, Note_on_c, 1, 53, 0
1, 20992, Note_on_c, 1, 51, 75
1, 21007, Note_on_c, 1, 51, 0
1, 21008, Note_on_c, 1, 53, 75
1, 21017, Note_on_c, 0, 68, 0
1, 21023, Note_on_c, 1, 53, 0
1, 21024, Note_on_c, 0, 68, 75
1, 21024, Note_on_c, 1, 53, 75
1, 21113, Note_on_c, 0, 68, 0
1, 21113, Note_on_c, 1, 53, 0
1, 21120, Note_on_c, 0, 67, 75
1, 21120, Note_on_c, 1, 51, 75
1, 21209, Note_on_c, 0, 67, 0
1, 21209, Note_on_c, 1, 51, 0
1, 21216, Note_on_c, 0, 67, 75
1, 21216, Note_on_c, 1, 68, 75
1, 21216, Note_on_c, 1, 62, 75
1, 21231, Note_on_c, 0, 67, 0
1, 21232, Note_on_c, 0, 65, 75
1, 21247, Note_on_c, 0, 65, 0
1, 21248, Note_on_c, 0, 67, 75
1, 21263, Note_on_c, 0, 67, 0
1, 21264, Note_on_c, 0, 65, 75
1, 21279, Note_on_c, 0, 65, 0
1, 21280, Note_on_c, 0, 63, 75
1, 21295, Note_on_c, 0, 63, 0
1, 21296, Note_on_c, 0, 65, 75
1, 21305, Note_on_c, 1, 68, 0
1, 21305, Note_on_c, 1, 62, 0
1, 21311, Note_on_c, 0, 65, 0
1, 21312, Note_on_c, 0, 65, 75
1, 21312, Note_on_c, 1, 68, 75
1, 21312, Note_on_c, 1, 62, 75
1, 21401, Note_on_c, 0, 65, 0
1, 21408, Note_on_c, 0, 63, 75
1, 21408, Note_on_c, 1, 68, 0
1, 21408, Note_on_c, 1, 62, 0
1, 21408, Note_on_c, 1, 67, 75
1, 21408, Note_on_c, 1, 63, 75
1, 21497, Note_on_c, 0, 63, 0
1, 21497, Note_on_c, 1, 67, 0
1, 21497, Note_on_c, 1, 63, 0
1, 21504, Note_on_c, 0, 80, 75
1, 21504, Note_on_c, 0, 74, 75
1, 21593, Note_on_c, 0, 80, 0
1, 21593, Note_on_c, 0, 74, 0
1, 21600, Note_on_c, 0, 80, 75
1, 21600, Note_on_c, 0, 74, 75
1, 21672, Note_on_c, 1, 51, 75
1, 21695, Note_on_c, 1, 51, 0
1, 21696, Note_on_c, 0, 80, 0
1, 21696, Note_on_c, 0, 74, 0
1, 21696, Note_on_c, 0, 79, 75
1, 21696, Note_on_c, 0, 75, 75
1, 21696, Note_on_c, 1, 63, 75
1, 21763, Note_on_c, 1, 63, 0
1, 21768, Note_on_c, 1, 63, 75
1, 21785, Note_on_c, 0, 79, 0
1, 21785, Note_on_c, 0, 75, 0
1, 21791, Note_on_c, 1, 63, 0
1, 21792, Note_on_c, 1, 63, 75
1, 21859, Note_on_c, 1, 63, 0
1, 21864, Note_on_c, 1, 63, 75
1, 21887, Note_on_c, 1, 63, 0
1, 21888, Note_on_c, 1, 63, 91
1, 21960, Note_on_c, 0, 63, 75
1, 21983, Note_on_c, 0, 63, 0
1, 21984, Note_on_c, 0, 75, 75
1, 22051, Note_on_c, 0, 75, 0
1, 22051, Note_on_c, 1, 63, 0
1, 22056, Note_on_c, 0, 75, 75
1, 22056, Note_on_c, 1, 61, 75
1, 22056, Note_on_c, 1, 58, 75
1, 22079, Note_on_c, 0, 75, 0
1, 22079, Note_on_c, 1, 61, 0
1, 22079, Note_on_c, 1, 58, 0
1, 22080, Note_on_c, 0, 75, 75
1, 22080, Note_on_c, 1, 60, 75
1, 22080, Note_on_c, 1, 56, 75
1, 22147, Note_on_c, 0, 75, 0
1, 22147, Note_on_c, 1, 60, 0
1, 22147, Note_on_c, 1, 56, 0
1, 22152, Note_on_c, 0, 75, 75
1, 22152, Note_on_c, 1, 58, 75
1, 22152, Note_on_c, 1, 55, 75
1, 22175, Note_on_c, 0, 75, 0
1, 22175, Note_on_c, 1, 58, 0
1, 22175, Note_on_c, 1, 55, 0
1, 22176, Note_on_c, 0, 75, 91
1, 22176, Note_on_c, 1, 58, 75
1, 22176, Note_on_c, 1, 55, 75
1, 22272, Note_on_c, 1, 58, 0
1, 22272, Note_on_c, 1, 55, 0
1, 22272, Note_on_c, 1, 60, 75
1, 22272, Note_on_c, 1, 56, 75
1, 22339, Note_on_c, 0, 75, 0
1, 22344, Note_on_c, 0, 73, 75
1, 22344, Note_on_c, 0, 70, 75
1, 22361, Note_on_c, 1, 60, 0
1, 22361, Note_on_c, 1, 56, 0
1, 22367, Note_on_c, 0, 73, 0
1, 22367, Note_on_c, 0, 70, 0
1, 22368, Note_on_c, 0, 72, 75
1, 22368, Note_on_c, 0, 68, 75
1, 22435, Note_on_c, 0, 72, 0
1, 22435, Note_on_c, 0, 68, 0
1, 22440, Note_on_c, 0, 70, 75
1, 22440, Note_on_c, 0, 67, 75
1, 22463, Note_on_c, 0, 70, 0
1, 22463, Note_on_c, 0, 67, 0
1, 22464, Note_on_c, 0, 70, 75
1, 22464, Note_on_c, 0, 67, 75
1, 22536, Note_on_c, 1, 44, 75
1, 22559, Note_on_c, 1, 44, 0
1, 22560, Note_on_c, 0, 70, 0
1, 22560, Note_on_c, 0, 67, 0
1, 22560, Note_on_c, 0, 72, 75
1, 22560, Note_on_c, 0, 68, 75
1, 22560, Note_on_c, 1, 60, 75
1, 22560, Note_on_c, 1, 56, 75
1, 22627, Note_on_c, 1, 60, 0
1, 22627, Note_on_c, 1, 56, 0
1, 22632, Note_on_c, 1, 58, 75
1, 22632, Note_on_c, 1, 55, 75
1, 22649, Note_on_c, 0, 72, 0
1, 22649, Note_on_c, 0, 68, 0
1, 22655, Note_on_c, 1, 58, 0
1, 22655, Note_on_c, 1, 55, 0
1, 22656, Note_on_c, 1, 56, 75
1, 22656, Note_on_c, 1, 53, 75
1, 22723, Note_on_c, 1, 56, 0
1, 22723, Note_on_c, 1, 53, 0
1, 22728, Note_on_c, 1, 55, 75
1, 22728, Note_on_c, 1, 51, 75
1, 22751, Note_on_c, 1, 55, 0
1, 22751, Note_on_c, 1, 51, 0
1, 22752, Note_on_c, 1, 53, 75
1, 22752, Note_on_c, 1, 50, 75
1, 22824, Note_on_c, 0, 68, 75
1, 22841, Note_on_c, 1, 53, 0
1, 22841, Note_on_c, 1, 50, 0
1, 22847, Note_on_c, 0, 68, 0
1, 22848, Note_on_c, 0, 84, 75
1, 22848, Note_on_c, 0, 80, 75
1, 22915, Note_on_c, 0, 84, 0
1, 22915, Note_on_c, 0, 80, 0
1, 22920, Note_on_c, 0, 82, 75
1, 22920, Note_on_c, 0, 79, 75
1, 22943, Note_on_c, 0, 82, 0
1, 22943, Note_on_c, 0, 79, 0
1, 22944, Note_on_c, 0, 80, 75
1, 22944, Note_on_c, 0, 77, 75
1, 23011, Note_on_c, 0, 80, 0
1, 23011, Note_on_c, 0, 77, 0
1, 23016, Note_on_c, 0, 79, 75
1, 23016, Note_on_c, 0, 75, 75
1, 23039, Note_on_c, 0, 79, 0
1, 23039, Note_on_c, 0, 75, 0
1, 23040, Note_on_c, 0, 77, 75
1, 23040, Note_on_c, 0, 74, 75
1, 23064, Note_on_c, 1, 58, 75
1, 23087, Note_on_c, 1, 58, 0
1, 23088, Note_on_c, 1, 60, 75
1, 23111, Note_on_c, 1, 60, 0
1, 23112, Note_on_c, 1, 62, 76
1, 23129, Note_on_c, 0, 77, 0
1, 23129, Note_on_c, 0, 74, 0
1, 23135, Note_on_c, 1, 62, 0
1, 23136, Note_on_c, 1, 63, 77
1, 23159, Note_on_c, 1, 63, 0
1, 23160, Note_on_c, 1, 65, 77
1, 23183, Note_on_c, 1, 65, 0
1, 23184, Note_on_c, 1, 67, 78
1, 23207, Note_on_c, 1, 67, 0
1, 23208, Note_on_c, 1, 68, 79
1, 23231, Note_on_c, 1, 68, 0
1, 23232, Note_on_c, 1, 70, 80
1, 23277, Note_on_c, 1, 70, 0
1, 23280, Note_on_c, 1, 68, 78
1, 23280, Note_on_c, 1, 65, 78
1, 23325, Note_on_c, 1, 68, 0
1, 23325, Note_on_c, 1, 65, 0
1, 23328, Note_on_c, 1, 67, 77
1, 23328, Note_on_c, 1, 63, 77
1, 23352, Note_on_c, 0, 70, 75
1, 23375, Note_on_c, 0, 70, 0
1, 23376, Note_on_c, 0, 72, 75
1, 23399, Note_on_c, 0, 72, 0
1, 23400, Note_on_c, 0, 74, 76
1, 23417, Note_on_c, 1, 67, 0
1, 23417, Note_on_c, 1, 63, 0
1, 23423, Note_on_c, 0, 74, 0
1, 23424, Note_on_c, 0, 75, 77
1, 23447, Note_on_c, 0, 75, 0
1, 23448, Note_on_c, 0, 77, 77
1, 23471, Note_on_c, 0, 77, 0
1, 23472, Note_on_c, 0, 79, 78
1, 23495, Note_on_c, 0, 79, 0
1, 23496, Note_on_c, 0, 80, 79
1, 23519, Note_on_c, 0, 80, 0
1, 23520, Note_on_c, 0, 82, 80
1, 23565, Note_on_c, 0, 82, 0
1, 23568, Note_on_c, 0, 80, 78
1, 23568, Note_on_c, 0, 77, 78
1, 23613, Note_on_c, 0, 80, 0
1, 23613, Note_on_c, 0, 77, 0
1, 23616, Note_on_c, 0, 79, 77
1, 23616, Note_on_c, 0, 75, 77
1, 23640, Note_on_c, 1, 51, 75
1, 23663, Note_on_c, 1, 51, 0
1, 23664, Note_on_c, 1, 53, 74
1, 23687, Note_on_c, 1, 53, 0
1, 23688, Note_on_c, 1, 55, 73
1, 23705, Note_on_c, 0, 79, 0
1, 23705, Note_on_c, 0, 75, 0
1, 23711, Note_on_c, 1, 55, 0
1, 23712, Note_on_c, 1, 56, 72
1, 23735, Note_on_c, 1, 56, 0
1, 23736, Note_on_c, 1, 58, 72
1, 23759, Note_on_c, 1, 58, 0
1, 23760, Note_on_c, 1, 60, 71
1, 23783, Note_on_c, 1, 60, 0
1, 23784, Note_on_c, 1, 62, 70
1, 23807, Note_on_c, 1, 62, 0
1, 23808, Note_on_c, 1, 63, 70
1, 23853, Note_on_c, 1, 63, 0
1, 23856, Note_on_c, 1, 60, 68
1, 23856, Note_on_c, 1, 56, 68
1, 23901, Note_on_c, 1, 60, 0
1, 23901, Note_on_c, 1, 56, 0
1, 23904, Note_on_c, 1, 58, 67
1, 23904, Note_on_c, 1, 55, 67
1, 23928, Note_on_c, 0, 63, 75
1, 23951, Note_on_c, 0, 63, 0
1, 23952, Note_on_c, 0, 65, 75
1, 23975, Note_on_c, 0, 65, 0
1, 23976, Note_on_c, 0, 67, 75
1, 23999, Note_on_c, 0, 67, 0
1, 24000, Note_on_c, 0, 68, 76
1, 24023, Note_on_c, 0, 68, 0
1, 24024, Note_on_c, 0, 70, 77
1, 24037, Note_on_c, 1, 58, 0
1, 24037, Note_on_c, 1, 55, 0
1, 24047, Note_on_c, 0, 70, 0
1, 24048, Note_on_c, 0, 72, 78
1, 24048, Note_on_c, 1, 56, 64
1, 24048, Note_on_c, 1, 53, 64
1, 24071, Note_on_c, 0, 72, 0
1, 24072, Note_on_c, 0, 74, 79
1, 24093, Note_on_c, 1, 56, 0
1, 24093, Note_on_c, 1, 53, 0
1, 24095, Note_on_c, 0, 74, 0
1, 24096, Note_on_c, 0, 75, 80
1, 24096, Note_on_c, 1, 55, 64
1, 24096, Note_on_c, 1, 51, 64
1, 24141, Note_on_c, 0, 75, 0
1, 24141, Note_on_c, 1, 55, 0
1, 24141, Note_on_c, 1, 51, 0
1, 24144, Note_on_c, 0, 72, 79
1, 24144, Note_on_c, 0, 68, 79
1, 24189, Note_on_c, 0, 72, 0
1, 24189, Note_on_c, 0, 68, 0
1, 24192, Note_on_c, 0, 70, 78
1, 24192, Note_on_c, 0, 67, 78
1, 24216, Note_on_c, 1, 51, 64
1, 24239, Note_on_c, 1, 51, 0
1, 24240, Note_on_c, 1, 53, 64
1, 24263, Note_on_c, 1, 53, 0
1, 24264, Note_on_c, 1, 55, 65
1, 24287, Note_on_c, 1, 55, 0
1, 24288, Note_on_c, 1, 56, 66
1, 24311, Note_on_c, 1, 56, 0
1, 24312, Note_on_c, 1, 58, 67
1, 24325, Note_on_c, 0, 70, 0
1, 24325, Note_on_c, 0, 67, 0
1, 24335, Note_on_c, 1, 58, 0
1, 24336, Note_on_c, 0, 68, 75
1, 24336, Note_on_c, 0, 65, 75
1, 24336, Note_on_c, 1, 60, 68
1, 24359, Note_on_c, 1, 60, 0
1, 24360, Note_on_c, 1, 62, 69
1, 24381, Note_on_c, 0, 68, 0
1, 24381, Note_on_c, 0, 65, 0
1, 24383, Note_on_c, 1, 62, 0
1, 24384, Note_on_c, 0, 67, 75
1, 24384, Note_on_c, 0, 63, 75
1, 24384, Note_on_c, 1, 63, 70
1, 24429, Note_on_c, 0, 67, 0
1, 24429, Note_on_c, 0, 63, 0
1, 24429, Note_on_c, 1, 63, 0
1, 24432, Note_on_c, 1, 60, 68
1, 24432, Note_on_c, 1, 56, 68
1, 24477, Note_on_c, 1, 60, 0
1, 24477, Note_on_c, 1, 56, 0
1, 24480, Note_on_c, 1, 58, 67
1, 24480, Note_on_c, 1, 55, 67
1, 24504, Note_on_c, 0, 63, 75
1, 24527, Note_on_c, 0, 63, 0
1, 24528, Note_on_c, 0, 65, 75
1, 24551, Note_on_c, 0, 65, 0
1, 24552, Note_on_c, 0, 67, 76
1, 24575, Note_on_c, 0, 67, 0
1, 24576, Note_on_c, 0, 68, 77
1, 24599, Note_on_c, 0, 68, 0
1, 24600, Note_on_c, 0, 70, 77
1, 24613, Note_on_c, 1, 58, 0
1, 24613, Note_on_c, 1, 55, 0
1, 24623, Note_on_c, 0, 70, 0
1, 24624, Note_on_c, 0, 72, 78
1, 24624, Note_on_c, 1, 56, 64
1, 24624, Note_on_c, 1, 53, 64
1, 24647, Note_on_c, 0, 72, 0
1, 24648, Note_on_c, 0, 74, 79
1, 24669, Note_on_c, 1, 56, 0
1, 24669, Note_on_c, 1, 53, 0
1, 24671, Note_on_c, 0, 74, 0
1, 24672, Note_on_c, 0, 75, 80
1, 24672, Note_on_c, 1, 55, 64
1, 24672, Note_on_c, 1, 51, 64
1, 24717, Note_on_c, 0, 75, 0
1, 24717, Note_on_c, 1, 55, 0
1, 24717, Note_on_c, 1, 51, 0
1, 24720, Note_on_c, 0, 72, 82
1, 24720, Note_on_c, 0, 68, 82
1, 24765, Note_on_c, 0, 72, 0
1, 24765, Note_on_c, 0, 68, 0
1, 24768, Note_on_c, 0, 67, 84
1, 24768, Note_on_c, 0, 63, 84
1, 24791, Note_on_c, 0, 67, 0
1, 24791, Note_on_c, 0, 63, 0
1, 24792, Note_on_c, 0, 67, 86
1, 24792, Note_on_c, 1, 51, 64
1, 24815, Note_on_c, 0, 67, 0
1, 24815, Note_on_c, 1, 51, 0
1, 24816, Note_on_c, 0, 68, 91
1, 24816, Note_on_c, 1, 53, 64
1, 24839, Note_on_c, 0, 68, 0
1, 24839, Note_on_c, 1, 53, 0
1, 24840, Note_on_c, 0, 70, 96
1, 24840, Note_on_c, 1, 55, 65
1, 24863, Note_on_c, 0, 70, 0
1, 24863, Note_on_c, 1, 55, 0
1, 24864, Note_on_c, 0, 72, 101
1, 24864, Note_on_c, 1, 56, 66
1, 24887, Note_on_c, 0, 72, 0
1, 24887, Note_on_c, 1, 56, 0
1, 24888, Note_on_c, 0, 74, 106
1, 24888, Note_on_c, 1, 58, 66
1, 24911, Note_on_c, 0, 74, 0
1, 24911, Note_on_c, 1, 58, 0
1, 24912, Note_on_c, 0, 75, 111
1, 24912, Note_on_c, 1, 60, 67
1, 24935, Note_on_c, 0, 75, 0
1, 24935, Note_on_c, 1, 60, 0
1, 24936, Note_on_c, 0, 77, 116
1, 24936, Note_on_c, 1, 62, 68
1, 24959, Note_on_c, 0, 77, 0
1, 24959, Note_on_c, 1, 62, 0
1, 24960, Note_on_c, 0, 79, 121
1, 24960, Note_on_c, 1, 63, 68
1, 24983, Note_on_c, 0, 79, 0
1, 24984, Note_on_c, 0, 74, 126
1, 25005, Note_on_c, 1, 63, 0
1, 25007, Note_on_c, 0, 74, 0
1, 25008, Note_on_c, 0, 75, 126
1, 25008, Note_on_c, 1, 55, 70
1, 25031, Note_on_c, 0, 75, 0
1, 25032, Note_on_c, 0, 71, 126
1, 25053, Note_on_c, 1, 55, 0
1, 25055, Note_on_c, 0, 71, 0
1, 25056, Note_on_c, 0, 72, 126
1, 25056, Note_on_c, 1, 56, 68
1, 25056, Note_on_c, 1, 56, 64
1, 25079, Note_on_c, 0, 72, 0
1, 25080, Note_on_c, 0, 67, 121
1, 25103, Note_on_c, 0, 67, 0
1, 25104, Note_on_c, 0, 68, 116
1, 25127, Note_on_c, 0, 68, 0
1, 25128, Note_on_c, 0, 65, 111
1, 25145, Note_on_c, 1, 56, 0
1, 25145, Note_on_c, 1, 56, 0
1, 25151, Note_on_c, 0, 65, 0
1, 25152, Note_on_c, 0, 63, 106
1, 25152, Note_on_c, 1, 55, 64
1, 25152, Note_on_c, 1, 46, 64
1, 25241, Note_on_c, 0, 63, 0
1, 25241, Note_on_c, 1, 55, 0
1, 25248, Note_on_c, 0, 62, 86
1, 25248, Note_on_c, 1, 53, 64
1, 25261, Note_on_c, 0, 62, 0
1, 25262, Note_on_c, 0, 63, 86
1, 25275, Note_on_c, 0, 63, 0
1, 25276, Note_on_c, 0, 62, 86
1, 25289, Note_on_c, 0, 62, 0
1, 25290, Note_on_c, 0, 63, 86
1, 25303, Note_on_c, 0, 63, 0
1, 25304, Note_on_c, 0, 62, 86
1, 25317, Note_on_c, 0, 62, 0
1, 25318, Note_on_c, 0, 60, 86
1, 25329, Note_on_c, 1, 46, 0
1, 25330, Note_on_c, 0, 60, 0
1, 25331, Note_on_c, 0, 62, 86
1, 25337, Note_on_c, 1, 53, 0
1, 25343, Note_on_c, 0, 62, 0
1, 25344, Note_on_c, 0, 63, 86
1, 25344, Note_on_c, 1, 51, 64
1, 25433, Note_on_c, 0, 63, 0
1, 25433, Note_on_c, 1, 51, 0
1, 25440, Note_on_c, 1, 39, 64
1, 25507, Note_on_c, 1, 39, 0
1, 25512, Note_on_c, 1, 39, 0
1, 25601, Note_on_c, 1, 39, 0
1, 25611, End_track
0, 0, End_of_file