0, 0, Header, 0, 1, 96
1, 0, Start_track
1, 0, Tempo, 444444
1, 192, Note_on_c, 0, 81, 78
1, 198, Note_on_c, 0, 81, 0
1, 198, Note_on_c, 0, 81, 94
1, 212, Note_on_c, 0, 81, 0
1, 240, Note_on_c, 0, 83, 78
1, 246, Note_on_c, 0, 83, 0
1, 246, Note_on_c, 0, 81, 78
1, 252, Note_on_c, 0, 81, 0
1, 252, Note_on_c, 0, 79, 78
1, 258, Note_on_c, 0, 79, 0
1, 258, Note_on_c, 0, 81, 78
1, 264, Note_on_c, 0, 81, 0
1, 264, Note_on_c, 0, 86, 78
1, 287, Note_on_c, 0, 86, 0
1, 288, Note_on_c, 0, 81, 78
1, 336, Note_on_c, 1, 62, 78
1, 381, Note_on_c, 1, 62, 0
1, 384, Note_on_c, 1, 66, 79
1, 429, Note_on_c, 0, 81, 0
1, 429, Note_on_c, 1, 66, 0
1, 432, Note_on_c, 0, 78, 79
1, 432, Note_on_c, 1, 62, 79
1, 477, Note_on_c, 0, 78, 0
1, 477, Note_on_c, 1, 62, 0
1, 480, Note_on_c, 0, 79, 80
1, 480, Note_on_c, 1, 64, 80
1, 525, Note_on_c, 0, 79, 0
1, 525, Note_on_c, 1, 64, 0
1, 528, Note_on_c, 0, 76, 80
1, 528, Note_on_c, 1, 61, 80
1, 573, Note_on_c, 0, 76, 0
1, 573, Note_on_c, 1, 61, 0
1, 576, Note_on_c, 0, 78, 81
1, 576, Note_on_c, 1, 62, 81
1, 621, Note_on_c, 0, 78, 0
1, 621, Note_on_c, 1, 62, 0
1, 624, Note_on_c, 0, 74, 81
1, 624, Note_on_c, 1, 54, 81
1, 669, Note_on_c, 0, 74, 0
1, 669, Note_on_c, 1, 54, 0
1, 672, Note_on_c, 0, 76, 82
1, 672, Note_on_c, 1, 55, 82
1, 717, Note_on_c, 0, 76, 0
1, 717, Note_on_c, 1, 55, 0
1, 720, Note_on_c, 0, 73, 82
1, 720, Note_on_c, 1, 57, 82
1, 765, Note_on_c, 0, 73, 0
1, 765, Note_on_c, 1, 57, 0
1, 768, Note_on_c, 0, 74, 83
1, 768, Note_on_c, 1, 54, 83
1, 813, Note_on_c, 0, 74, 0
1, 813, Note_on_c, 1, 54, 0
1, 816, Note_on_c, 0, 69, 83
1, 816, Note_on_c, 1, 66, 83
1, 861, Note_on_c, 0, 69, 0
1, 861, Note_on_c, 1, 66, 0
1, 864, Note_on_c, 0, 71, 84
1, 864, Note_on_c, 1, 67, 84
1, 887, Note_on_c, 0, 71, 0
1, 888, Note_on_c, 0, 73, 83
1, 911, Note_on_c, 0, 73, 0
1, 912, Note_on_c, 0, 74, 83
1, 935, Note_on_c, 0, 74, 0
1, 936, Note_on_c, 0, 71, 82
1, 953, Note_on_c, 1, 67, 0
1, 959, Note_on_c, 0, 71, 0
1, 960, Note_on_c, 0, 69, 82
1, 960, Note_on_c, 1, 66, 82
1, 1005, Note_on_c, 1, 66, 0
1, 1008, Note_on_c, 1, 62, 81
1, 1053, Note_on_c, 1, 62, 0
1, 1056, Note_on_c, 1, 64, 81
1, 1101, Note_on_c, 0, 69, 0
1, 1101, Note_on_c, 1, 64, 0
1, 1104, Note_on_c, 0, 67, 80
1, 1104, Note_on_c, 1, 57, 80
1, 1116, Note_on_c, 0, 67, 0
1, 1116, Note_on_c, 0, 69, 80
1, 1128, Note_on_c, 0, 69, 0
1, 1128, Note_on_c, 0, 67, 80
1, 1149, Note_on_c, 0, 67, 0
1, 1149, Note_on_c, 1, 57, 0
1, 1152, Note_on_c, 0, 66, 79
1, 1152, Note_on_c, 1, 62, 79
1, 1241, Note_on_c, 0, 66, 0
1, 1241, Note_on_c, 1, 62, 0
1, 1248, Note_on_c, 1, 50, 78
1, 1337, Note_on_c, 1, 50, 0
1, 1344, Note_on_c, 0, 81, 78
1, 1350, Note_on_c, 0, 81, 0
1, 1350, Note_on_c, 0, 81, 78
1, 1364, Note_on_c, 0, 81, 0
1, 1392, Note_on_c, 0, 83, 78
1, 1398, Note_on_c, 0, 83, 0
1, 1398, Note_on_c, 0, 81, 78
1, 1404, Note_on_c, 0, 81, 0
1, 1404, Note_on_c, 0, 79, 78
1, 1410, Note_on_c, 0, 79, 0
1, 1410, Note_on_c, 0, 81, 78
1, 1416, Note_on_c, 0, 81, 0
1, 1416, Note_on_c, 0, 86, 78
1, 1439, Note_on_c, 0, 86, 0
1, 1440, Note_on_c, 0, 81, 78
1, 1488, Note_on_c, 1, 62, 78
1, 1533, Note_on_c, 1, 62, 0
1, 1536, Note_on_c, 1, 66, 78
1, 1581, Note_on_c, 0, 81, 0
1, 1581, Note_on_c, 1, 66, 0
1, 1584, Note_on_c, 0, 78, 78
1, 1584, Note_on_c, 1, 62, 78
1, 1629, Note_on_c, 0, 78, 0
1, 1629, Note_on_c, 1, 62, 0
1, 1632, Note_on_c, 0, 79, 79
1, 1632, Note_on_c, 1, 64, 79
1, 1677, Note_on_c, 0, 79, 0
1, 1677, Note_on_c, 1, 64, 0
1, 1680, Note_on_c, 0, 76, 79
1, 1680, Note_on_c, 1, 57, 79
1, 1725, Note_on_c, 0, 76, 0
1, 1725, Note_on_c, 1, 57, 0
1, 1728, Note_on_c, 0, 78, 79
1, 1728, Note_on_c, 1, 62, 79
1, 1773, Note_on_c, 0, 78, 0
1, 1773, Note_on_c, 1, 62, 0
1, 1776, Note_on_c, 0, 74, 79
1, 1776, Note_on_c, 1, 66, 79
1, 1821, Note_on_c, 0, 74, 0
1, 1821, Note_on_c, 1, 66, 0
1, 1824, Note_on_c, 0, 76, 80
1, 1824, Note_on_c, 1, 67, 80
1, 1869, Note_on_c, 0, 76, 0
1, 1869, Note_on_c, 1, 67, 0
1, 1872, Note_on_c, 0, 73, 80
1, 1872, Note_on_c, 1, 64, 80
1, 1917, Note_on_c, 0, 73, 0
1, 1917, Note_on_c, 1, 64, 0
1, 1920, Note_on_c, 0, 74, 80
1, 1920, Note_on_c, 1, 66, 80
1, 1965, Note_on_c, 0, 74, 0
1, 1965, Note_on_c, 1, 66, 0
1, 1968, Note_on_c, 0, 78, 81
1, 1968, Note_on_c, 1, 62, 81
1, 2013, Note_on_c, 0, 78, 0
1, 2013, Note_on_c, 1, 62, 0
1, 2016, Note_on_c, 0, 79, 81
1, 2016, Note_on_c, 1, 64, 81
1, 2061, Note_on_c, 0, 79, 0
1, 2061, Note_on_c, 1, 64, 0
1, 2064, Note_on_c, 0, 76, 81
1, 2064, Note_on_c, 1, 61, 81
1, 2109, Note_on_c, 0, 76, 0
1, 2109, Note_on_c, 1, 61, 0
1, 2112, Note_on_c, 0, 81, 81
1, 2112, Note_on_c, 1, 66, 81
1, 2157, Note_on_c, 0, 81, 0
1, 2157, Note_on_c, 1, 66, 0
1, 2160, Note_on_c, 0, 78, 82
1, 2160, Note_on_c, 1, 62, 82
1, 2205, Note_on_c, 0, 78, 0
1, 2205, Note_on_c, 1, 62, 0
1, 2208, Note_on_c, 0, 83, 82
1, 2208, Note_on_c, 1, 67, 82
1, 2231, Note_on_c, 0, 83, 0
1, 2232, Note_on_c, 0, 79, 82
1, 2247, Note_on_c, 1, 67, 0
1, 2255, Note_on_c, 0, 79, 0
1, 2256, Note_on_c, 0, 76, 82
1, 2279, Note_on_c, 0, 76, 0
1, 2280, Note_on_c, 0, 74, 82
1, 2303, Note_on_c, 0, 74, 0
1, 2304, Note_on_c, 1, 67, 82
1, 2319, Note_on_c, 1, 67, 0
1, 2320, Note_on_c, 1, 69, 82
1, 2335, Note_on_c, 1, 69, 0
1, 2336, Note_on_c, 1, 73, 83
1, 2351, Note_on_c, 1, 73, 0
1, 2352, Note_on_c, 0, 76, 83
1, 2367, Note_on_c, 0, 76, 0
1, 2368, Note_on_c, 0, 81, 83
1, 2383, Note_on_c, 0, 81, 0
1, 2384, Note_on_c, 0, 85, 83
1, 2399, Note_on_c, 0, 85, 0
1, 2400, Note_on_c, 0, 86, 83
1, 2400, Note_on_c, 1, 66, 83
1, 2439, Note_on_c, 0, 86, 0
1, 2439, Note_on_c, 1, 66, 0
1, 2592, Note_on_c, 0, 67, 78
1, 2592, Note_on_c, 0, 61, 64
1, 2640, Note_on_c, 1, 45, 78
1, 2685, Note_on_c, 1, 45, 0
1, 2688, Note_on_c, 1, 57, 78
1, 2725, Note_on_c, 0, 67, 0
1, 2725, Note_on_c, 0, 61, 0
1, 2733, Note_on_c, 1, 57, 0
1, 2736, Note_on_c, 0, 64, 78
1, 2736, Note_on_c, 0, 64, 64
1, 2736, Note_on_c, 1, 61, 78
1, 2781, Note_on_c, 0, 64, 0
1, 2781, Note_on_c, 0, 64, 0
1, 2781, Note_on_c, 1, 61, 0
1, 2784, Note_on_c, 0, 66, 78
1, 2784, Note_on_c, 1, 62, 78
1, 2829, Note_on_c, 0, 66, 0
1, 2832, Note_on_c, 0, 74, 78
1, 2873, Note_on_c, 1, 62, 0
1, 2877, Note_on_c, 0, 74, 0
1, 2880, Note_on_c, 0, 73, 78
1, 2880, Note_on_c, 0, 67, 64
1, 2928, Note_on_c, 1, 45, 78
1, 2973, Note_on_c, 1, 45, 0
1, 2976, Note_on_c, 1, 57, 78
1, 3013, Note_on_c, 0, 73, 0
1, 3021, Note_on_c, 1, 57, 0
1, 3024, Note_on_c, 0, 76, 78
1, 3024, Note_on_c, 1, 61, 78
1, 3057, Note_on_c, 0, 67, 0
1, 3069, Note_on_c, 0, 76, 0
1, 3069, Note_on_c, 1, 61, 0
1, 3072, Note_on_c, 0, 74, 78
1, 3072, Note_on_c, 0, 66, 64
1, 3072, Note_on_c, 1, 62, 78
1, 3117, Note_on_c, 0, 74, 0
1, 3120, Note_on_c, 0, 62, 78
1, 3161, Note_on_c, 0, 66, 0
1, 3161, Note_on_c, 1, 62, 0
1, 3165, Note_on_c, 0, 62, 0
1, 3168, Note_on_c, 0, 67, 78
1, 3168, Note_on_c, 0, 61, 64
1, 3216, Note_on_c, 1, 45, 78
1, 3261, Note_on_c, 1, 45, 0
1, 3264, Note_on_c, 1, 57, 79
1, 3301, Note_on_c, 0, 67, 0
1, 3301, Note_on_c, 0, 61, 0
1, 3309, Note_on_c, 1, 57, 0
1, 3312, Note_on_c, 0, 64, 79
1, 3312, Note_on_c, 0, 64, 64
1, 3312, Note_on_c, 1, 61, 79
1, 3357, Note_on_c, 0, 64, 0
1, 3357, Note_on_c, 0, 64, 0
1, 3357, Note_on_c, 1, 61, 0
1, 3360, Note_on_c, 0, 66, 80
1, 3360, Note_on_c, 1, 62, 80
1, 3405, Note_on_c, 0, 66, 0
1, 3408, Note_on_c, 0, 74, 80
1, 3449, Note_on_c, 1, 62, 0
1, 3453, Note_on_c, 0, 74, 0
1, 3456, Note_on_c, 0, 79, 81
1, 3456, Note_on_c, 0, 73, 64
1, 3504, Note_on_c, 1, 45, 81
1, 3549, Note_on_c, 1, 45, 0
1, 3552, Note_on_c, 1, 57, 82
1, 3589, Note_on_c, 0, 79, 0
1, 3589, Note_on_c, 0, 73, 0
1, 3597, Note_on_c, 1, 57, 0
1, 3600, Note_on_c, 0, 76, 82
1, 3600, Note_on_c, 0, 76, 64
1, 3600, Note_on_c, 1, 61, 82
1, 3645, Note_on_c, 0, 76, 0
1, 3645, Note_on_c, 0, 76, 0
1, 3645, Note_on_c, 1, 61, 0
1, 3648, Note_on_c, 0, 78, 83
1, 3648, Note_on_c, 0, 69, 64
1, 3648, Note_on_c, 1, 62, 83
1, 3693, Note_on_c, 0, 78, 0
1, 3693, Note_on_c, 1, 62, 0
1, 3696, Note_on_c, 0, 74, 83
1, 3696, Note_on_c, 1, 66, 83
1, 3737, Note_on_c, 0, 69, 0
1, 3741, Note_on_c, 0, 74, 0
1, 3741, Note_on_c, 1, 66, 0
1, 3744, Note_on_c, 0, 73, 84
1, 3744, Note_on_c, 1, 67, 84
1, 3767, Note_on_c, 0, 73, 0
1, 3768, Note_on_c, 0, 71, 83
1, 3791, Note_on_c, 0, 71, 0
1, 3792, Note_on_c, 0, 83, 83
1, 3815, Note_on_c, 0, 83, 0
1, 3816, Note_on_c, 0, 81, 83
1, 3833, Note_on_c, 1, 67, 0
1, 3839, Note_on_c, 0, 81, 0
1, 3840, Note_on_c, 0, 79, 82
1, 3863, Note_on_c, 0, 79, 0
1, 3864, Note_on_c, 0, 78, 82
1, 3887, Note_on_c, 0, 78, 0
1, 3888, Note_on_c, 0, 76, 82
1, 3911, Note_on_c, 0, 76, 0
1, 3912, Note_on_c, 0, 86, 81
1, 3935, Note_on_c, 0, 86, 0
1, 3936, Note_on_c, 0, 85, 81
1, 3959, Note_on_c, 0, 85, 0
1, 3960, Note_on_c, 0, 83, 81
1, 3983, Note_on_c, 0, 83, 0
1, 3984, Note_on_c, 0, 81, 81
1, 4007, Note_on_c, 0, 81, 0
1, 4008, Note_on_c, 0, 79, 80
1, 4008, Note_on_c, 1, 71, 80
1, 4031, Note_on_c, 0, 79, 0
1, 4031, Note_on_c, 1, 71, 0
1, 4032, Note_on_c, 0, 78, 80
1, 4032, Note_on_c, 1, 74, 80
1, 4032, Note_on_c, 1, 69, 64
1, 4128, Note_on_c, 0, 78, 0
1, 4128, Note_on_c, 0, 76, 79
1, 4128, Note_on_c, 1, 74, 0
1, 4128, Note_on_c, 1, 73, 79
1, 4209, Note_on_c, 1, 69, 0
1, 4217, Note_on_c, 0, 76, 0
1, 4217, Note_on_c, 1, 73, 0
1, 4224, Note_on_c, 0, 76, 78
1, 4244, Note_on_c, 0, 76, 0
1, 4272, Note_on_c, 0, 78, 78
1, 4278, Note_on_c, 0, 78, 0
1, 4278, Note_on_c, 0, 76, 78
1, 4284, Note_on_c, 0, 76, 0
1, 4284, Note_on_c, 0, 74, 78
1, 4290, Note_on_c, 0, 74, 0
1, 4290, Note_on_c, 0, 76, 78
1, 4296, Note_on_c, 0, 76, 0
1, 4296, Note_on_c, 0, 81, 78
1, 4319, Note_on_c, 0, 81, 0
1, 4320, Note_on_c, 0, 76, 78
1, 4368, Note_on_c, 1, 57, 78
1, 4413, Note_on_c, 1, 57, 0
1, 4416, Note_on_c, 1, 61, 78
1, 4461, Note_on_c, 0, 76, 0
1, 4461, Note_on_c, 1, 61, 0
1, 4464, Note_on_c, 0, 73, 78
1, 4464, Note_on_c, 1, 57, 78
1, 4509, Note_on_c, 0, 73, 0
1, 4509, Note_on_c, 1, 57, 0
1, 4512, Note_on_c, 0, 76, 78
1, 4512, Note_on_c, 1, 59, 78
1, 4535, Note_on_c, 0, 76, 0
1, 4536, Note_on_c, 0, 74, 78
1, 4557, Note_on_c, 1, 59, 0
1, 4559, Note_on_c, 0, 74, 0
1, 4560, Note_on_c, 0, 73, 78
1, 4560, Note_on_c, 1, 52, 78
1, 4583, Note_on_c, 0, 73, 0
1, 4584, Note_on_c, 0, 71, 78
1, 4605, Note_on_c, 1, 52, 0
1, 4607, Note_on_c, 0, 71, 0
1, 4608, Note_on_c, 0, 74, 78
1, 4608, Note_on_c, 1, 57, 78
1, 4631, Note_on_c, 0, 74, 0
1, 4632, Note_on_c, 0, 73, 78
1, 4655, Note_on_c, 0, 73, 0
1, 4656, Note_on_c, 0, 71, 78
1, 4679, Note_on_c, 0, 71, 0
1, 4680, Note_on_c, 0, 69, 78
1, 4697, Note_on_c, 1, 57, 0
1, 4703, Note_on_c, 0, 69, 0
1, 4704, Note_on_c, 0, 69, 78
1, 4727, Note_on_c, 0, 69, 0
1, 4728, Note_on_c, 0, 68, 78
1, 4751, Note_on_c, 0, 68, 0
1, 4752, Note_on_c, 0, 66, 78
1, 4775, Note_on_c, 0, 66, 0
1, 4776, Note_on_c, 0, 64, 78
1, 4799, Note_on_c, 0, 64, 0
1, 4800, Note_on_c, 0, 64, 78
1, 4823, Note_on_c, 0, 64, 0
1, 4824, Note_on_c, 0, 62, 78
1, 4847, Note_on_c, 0, 62, 0
1, 4848, Note_on_c, 0, 61, 78
1, 4871, Note_on_c, 0, 61, 0
1, 4872, Note_on_c, 0, 59, 78
1, 4895, Note_on_c, 0, 59, 0
1, 4896, Note_on_c, 0, 57, 78
1, 4944, Note_on_c, 1, 49, 78
1, 4989, Note_on_c, 1, 49, 0
1, 4992, Note_on_c, 1, 52, 78
1, 5037, Note_on_c, 0, 57, 0
1, 5037, Note_on_c, 1, 52, 0
1, 5040, Note_on_c, 0, 59, 78
1, 5040, Note_on_c, 1, 49, 78
1, 5063, Note_on_c, 0, 59, 0
1, 5064, Note_on_c, 0, 57, 78
1, 5085, Note_on_c, 1, 49, 0
1, 5087, Note_on_c, 0, 57, 0
1, 5088, Note_on_c, 0, 57, 78
1, 5088, Note_on_c, 1, 52, 78
1, 5111, Note_on_c, 0, 57, 0
1, 5112, Note_on_c, 0, 55, 79
1, 5133, Note_on_c, 1, 52, 0
1, 5135, Note_on_c, 0, 55, 0
1, 5136, Note_on_c, 0, 54, 79
1, 5136, Note_on_c, 1, 49, 79
1, 5159, Note_on_c, 0, 54, 0
1, 5160, Note_on_c, 0, 55, 79
1, 5181, Note_on_c, 1, 49, 0
1, 5183, Note_on_c, 0, 55, 0
1, 5184, Note_on_c, 0, 55, 79
1, 5232, Note_on_c, 1, 50, 79
1, 5277, Note_on_c, 1, 50, 0
1, 5280, Note_on_c, 0, 55, 0
1, 5280, Note_on_c, 0, 54, 79
1, 5280, Note_on_c, 1, 38, 79
1, 5325, Note_on_c, 1, 38, 0
1, 5328, Note_on_c, 1, 50, 80
1, 5369, Note_on_c, 0, 54, 0
1, 5373, Note_on_c, 1, 50, 0
1, 5376, Note_on_c, 0, 58, 96
1, 5376, Note_on_c, 1, 49, 80
1, 5421, Note_on_c, 1, 49, 0
1, 5424, Note_on_c, 1, 52, 80
1, 5469, Note_on_c, 1, 52, 0
1, 5472, Note_on_c, 0, 58, 0
1, 5472, Note_on_c, 0, 59, 80
1, 5472, Note_on_c, 1, 50, 80
1, 5495, Note_on_c, 0, 59, 0
1, 5496, Note_on_c, 0, 61, 81
1, 5519, Note_on_c, 0, 61, 0
1, 5520, Note_on_c, 0, 62, 81
1, 5543, Note_on_c, 0, 62, 0
1, 5544, Note_on_c, 0, 64, 81
1, 5567, Note_on_c, 0, 64, 0
1, 5568, Note_on_c, 0, 66, 81
1, 5591, Note_on_c, 0, 66, 0
1, 5592, Note_on_c, 0, 64, 81
1, 5615, Note_on_c, 0, 64, 0
1, 5616, Note_on_c, 0, 62, 81
1, 5639, Note_on_c, 0, 62, 0
1, 5640, Note_on_c, 0, 61, 81
1, 5663, Note_on_c, 0, 61, 0
1, 5664, Note_on_c, 0, 59, 81
1, 5664, Note_on_c, 1, 50, 0
1, 5664, Note_on_c, 1, 51, 81
1, 5687, Note_on_c, 0, 59, 0
1, 5688, Note_on_c, 0, 57, 82
1, 5711, Note_on_c, 0, 57, 0
1, 5712, Note_on_c, 0, 56, 82
1, 5735, Note_on_c, 0, 56, 0
1, 5736, Note_on_c, 0, 57, 82
1, 5753, Note_on_c, 1, 51, 0
1, 5759, Note_on_c, 0, 57, 0
1, 5760, Note_on_c, 0, 57, 82
1, 5808, Note_on_c, 1, 52, 82
1, 5853, Note_on_c, 1, 52, 0
1, 5856, Note_on_c, 0, 57, 0
1, 5856, Note_on_c, 0, 56, 82
1, 5856, Note_on_c, 1, 40, 82
1, 5901, Note_on_c, 1, 40, 0
1, 5904, Note_on_c, 1, 44, 82
1, 5945, Note_on_c, 0, 56, 0
1, 5949, Note_on_c, 1, 44, 0
1, 5952, Note_on_c, 1, 47, 83
1, 5997, Note_on_c, 1, 47, 0
1, 6000, Note_on_c, 1, 52, 83
1, 6045, Note_on_c, 1, 52, 0
1, 6048, Note_on_c, 1, 40, 83
1, 6072, Note_on_c, 0, 64, 84
1, 6095, Note_on_c, 0, 64, 0
1, 6096, Note_on_c, 0, 68, 84
1, 6119, Note_on_c, 0, 68, 0
1, 6120, Note_on_c, 0, 64, 84
1, 6137, Note_on_c, 1, 40, 0
1, 6143, Note_on_c, 0, 64, 0
1, 6144, Note_on_c, 1, 64, 84
1, 6168, Note_on_c, 0, 64, 84
1, 6183, Note_on_c, 1, 64, 0
1, 6191, Note_on_c, 0, 64, 0
1, 6192, Note_on_c, 0, 68, 84
1, 6215, Note_on_c, 0, 68, 0
1, 6216, Note_on_c, 0, 64, 84
1, 6239, Note_on_c, 0, 64, 0
1, 6240, Note_on_c, 1, 62, 84
1, 6264, Note_on_c, 0, 64, 84
1, 6279, Note_on_c, 1, 62, 0
1, 6287, Note_on_c, 0, 64, 0
1, 6288, Note_on_c, 0, 68, 84
1, 6311, Note_on_c, 0, 68, 0
1, 6312, Note_on_c, 0, 64, 84
1, 6335, Note_on_c, 0, 64, 0
1, 6336, Note_on_c, 1, 61, 84
1, 6360, Note_on_c, 0, 64, 84
1, 6375, Note_on_c, 1, 61, 0
1, 6383, Note_on_c, 0, 64, 0
1, 6384, Note_on_c, 0, 69, 84
1, 6407, Note_on_c, 0, 69, 0
1, 6408, Note_on_c, 0, 64, 84
1, 6431, Note_on_c, 0, 64, 0
1, 6432, Note_on_c, 1, 61, 84
1, 6456, Note_on_c, 0, 64, 84
1, 6471, Note_on_c, 1, 61, 0
1, 6479, Note_on_c, 0, 64, 0
1, 6480, Note_on_c, 0, 76, 84
1, 6503, Note_on_c, 0, 76, 0
1, 6504, Note_on_c, 0, 64, 84
1, 6527, Note_on_c, 0, 64, 0
1, 6528, Note_on_c, 1, 59, 84
1, 6552, Note_on_c, 0, 64, 84
1, 6567, Note_on_c, 1, 59, 0
1, 6575, Note_on_c, 0, 64, 0
1, 6576, Note_on_c, 0, 74, 84
1, 6599, Note_on_c, 0, 74, 0
1, 6600, Note_on_c, 0, 64, 84
1, 6623, Note_on_c, 0, 64, 0
1, 6624, Note_on_c, 1, 57, 84
1, 6648, Note_on_c, 0, 64, 84
1, 6671, Note_on_c, 0, 64, 0
1, 6672, Note_on_c, 0, 73, 84
1, 6695, Note_on_c, 0, 73, 0
1, 6696, Note_on_c, 0, 64, 84
1, 6713, Note_on_c, 1, 57, 0
1, 6719, Note_on_c, 0, 64, 0
1, 6720, Note_on_c, 1, 64, 84
1, 6744, Note_on_c, 0, 64, 84
1, 6759, Note_on_c, 1, 64, 0
1, 6767, Note_on_c, 0, 64, 0
1, 6768, Note_on_c, 0, 68, 84
1, 6791, Note_on_c, 0, 68, 0
1, 6792, Note_on_c, 0, 64, 84
1, 6815, Note_on_c, 0, 64, 0
1, 6816, Note_on_c, 1, 62, 84
1, 6840, Note_on_c, 0, 64, 84
1, 6855, Note_on_c, 1, 62, 0
1, 6863, Note_on_c, 0, 64, 0
1, 6864, Note_on_c, 0, 68, 84
1, 6887, Note_on_c, 0, 68, 0
1, 6888, Note_on_c, 0, 64, 84
1, 6911, Note_on_c, 0, 64, 0
1, 6912, Note_on_c, 1, 60, 84
1, 6936, Note_on_c, 0, 64, 84
1, 6951, Note_on_c, 1, 60, 0
1, 6959, Note_on_c, 0, 64, 0
1, 6960, Note_on_c, 0, 69, 84
1, 6983, Note_on_c, 0, 69, 0
1, 6984, Note_on_c, 0, 64, 84
1, 7007, Note_on_c, 0, 64, 0
1, 7008, Note_on_c, 1, 60, 84
1, 7032, Note_on_c, 0, 64, 84
1, 7047, Note_on_c, 1, 60, 0
1, 7055, Note_on_c, 0, 64, 0
1, 7056, Note_on_c, 0, 76, 84
1, 7079, Note_on_c, 0, 76, 0
1, 7080, Note_on_c, 0, 64, 84
1, 7103, Note_on_c, 0, 64, 0
1, 7104, Note_on_c, 1, 59, 84
1, 7128, Note_on_c, 0, 64, 84
1, 7143, Note_on_c, 1, 59, 0
1, 7151, Note_on_c, 0, 64, 0
1, 7152, Note_on_c, 0, 74, 84
1, 7175, Note_on_c, 0, 74, 0
1, 7176, Note_on_c, 0, 64, 84
1, 7199, Note_on_c, 0, 64, 0
1, 7200, Note_on_c, 1, 57, 84
1, 7224, Note_on_c, 0, 69, 84
1, 7247, Note_on_c, 0, 69, 0
1, 7248, Note_on_c, 0, 72, 84
1, 7271, Note_on_c, 0, 72, 0
1, 7272, Note_on_c, 0, 69, 84
1, 7289, Note_on_c, 1, 57, 0
1, 7295, Note_on_c, 0, 69, 0
1, 7296, Note_on_c, 1, 69, 84
1, 7320, Note_on_c, 0, 69, 84
1, 7335, Note_on_c, 1, 69, 0
1, 7343, Note_on_c, 0, 69, 0
1, 7344, Note_on_c, 0, 72, 84
1, 7367, Note_on_c, 0, 72, 0
1, 7368, Note_on_c, 0, 69, 84
1, 7391, Note_on_c, 0, 69, 0
1, 7392, Note_on_c, 1, 67, 84
1, 7416, Note_on_c, 0, 69, 84
1, 7431, Note_on_c, 1, 67, 0
1, 7439, Note_on_c, 0, 69, 0
1, 7440, Note_on_c, 0, 73, 84
1, 7463, Note_on_c, 0, 73, 0
1, 7464, Note_on_c, 0, 69, 84
1, 7487, Note_on_c, 0, 69, 0
1, 7488, Note_on_c, 1, 66, 84
1, 7512, Note_on_c, 0, 69, 84
1, 7527, Note_on_c, 1, 66, 0
1, 7535, Note_on_c, 0, 69, 0
1, 7536, Note_on_c, 0, 74, 84
1, 7559, Note_on_c, 0, 74, 0
1, 7560, Note_on_c, 0, 69, 84
1, 7583, Note_on_c, 0, 69, 0
1, 7584, Note_on_c, 1, 65, 84
1, 7608, Note_on_c, 0, 69, 84
1, 7623, Note_on_c, 1, 65, 0
1, 7631, Note_on_c, 0, 69, 0
1, 7632, Note_on_c, 0, 75, 84
1, 7655, Note_on_c, 0, 75, 0
1, 7656, Note_on_c, 0, 69, 84
1, 7679, Note_on_c, 0, 69, 0
1, 7680, Note_on_c, 1, 64, 84
1, 7704, Note_on_c, 0, 69, 84
1, 7719, Note_on_c, 1, 64, 0
1, 7727, Note_on_c, 0, 69, 0
1, 7728, Note_on_c, 0, 76, 84
1, 7751, Note_on_c, 0, 76, 0
1, 7752, Note_on_c, 0, 69, 84
1, 7775, Note_on_c, 0, 69, 0
1, 7776, Note_on_c, 1, 63, 84
1, 7800, Note_on_c, 0, 69, 84
1, 7823, Note_on_c, 0, 69, 0
1, 7824, Note_on_c, 0, 78, 84
1, 7847, Note_on_c, 0, 78, 0
1, 7848, Note_on_c, 0, 69, 84
1, 7865, Note_on_c, 1, 63, 0
1, 7871, Note_on_c, 0, 69, 0
1, 7872, Note_on_c, 1, 72, 84
1, 7896, Note_on_c, 0, 69, 84
1, 7911, Note_on_c, 1, 72, 0
1, 7919, Note_on_c, 0, 69, 0
1, 7920, Note_on_c, 0, 78, 84
1, 7943, Note_on_c, 0, 78, 0
1, 7944, Note_on_c, 0, 69, 84
1, 7967, Note_on_c, 0, 69, 0
1, 7968, Note_on_c, 1, 63, 84
1, 7992, Note_on_c, 0, 69, 84
1, 8015, Note_on_c, 0, 69, 0
1, 8016, Note_on_c, 0, 78, 84
1, 8039, Note_on_c, 0, 78, 0
1, 8040, Note_on_c, 0, 69, 84
1, 8057, Note_on_c, 1, 63, 0
1, 8063, Note_on_c, 0, 69, 0
1, 8064, Note_on_c, 1, 64, 84
1, 8088, Note_on_c, 0, 69, 84
1, 8111, Note_on_c, 0, 69, 0
1, 8112, Note_on_c, 0, 76, 84
1, 8135, Note_on_c, 0, 76, 0
1, 8136, Note_on_c, 0, 69, 84
1, 8153, Note_on_c, 1, 64, 0
1, 8159, Note_on_c, 0, 69, 0
1, 8160, Note_on_c, 1, 72, 84
1, 8184, Note_on_c, 0, 69, 84
1, 8199, Note_on_c, 1, 72, 0
1, 8207, Note_on_c, 0, 69, 0
1, 8208, Note_on_c, 0, 76, 84
1, 8231, Note_on_c, 0, 76, 0
1, 8232, Note_on_c, 0, 69, 84
1, 8255, Note_on_c, 0, 69, 0
1, 8256, Note_on_c, 1, 64, 84
1, 8280, Note_on_c, 0, 69, 84
1, 8303, Note_on_c, 0, 69, 0
1, 8304, Note_on_c, 0, 76, 84
1, 8327, Note_on_c, 0, 76, 0
1, 8328, Note_on_c, 0, 69, 84
1, 8345, Note_on_c, 1, 64, 0
1, 8351, Note_on_c, 0, 69, 0
1, 8352, Note_on_c, 1, 65, 84
1, 8376, Note_on_c, 0, 69, 84
1, 8399, Note_on_c, 0, 69, 0
1, 8400, Note_on_c, 0, 75, 84
1, 8423, Note_on_c, 0, 75, 0
1, 8424, Note_on_c, 0, 69, 84
1, 8441, Note_on_c, 1, 65, 0
1, 8447, Note_on_c, 0, 69, 0
1, 8448, Note_on_c, 1, 72, 84
1, 8472, Note_on_c, 0, 69, 84
1, 8487, Note_on_c, 1, 72, 0
1, 8495, Note_on_c, 0, 69, 0
1, 8496, Note_on_c, 0, 75, 84
1, 8519, Note_on_c, 0, 75, 0
1, 8520, Note_on_c, 0, 69, 84
1, 8543, Note_on_c, 0, 69, 0
1, 8544, Note_on_c, 1, 65, 84
1, 8568, Note_on_c, 0, 69, 84
1, 8591, Note_on_c, 0, 69, 0
1, 8592, Note_on_c, 0, 75, 84
1, 8615, Note_on_c, 0, 75, 0
1, 8616, Note_on_c, 0, 69, 84
1, 8633, Note_on_c, 1, 65, 0
1, 8639, Note_on_c, 0, 69, 0
1, 8640, Note_on_c, 1, 64, 84
1, 8664, Note_on_c, 0, 68, 84
1, 8687, Note_on_c, 0, 68, 0
1, 8688, Note_on_c, 0, 76, 84
1, 8711, Note_on_c, 0, 76, 0
1, 8712, Note_on_c, 0, 68, 84
1, 8729, Note_on_c, 1, 64, 0
1, 8735, Note_on_c, 0, 68, 0
1, 8736, Note_on_c, 1, 62, 84
1, 8736, Note_on_c, 1, 50, 84
1, 8760, Note_on_c, 0, 68, 84
1, 8783, Note_on_c, 0, 68, 0
1, 8784, Note_on_c, 0, 80, 84
1, 8807, Note_on_c, 0, 80, 0
1, 8808, Note_on_c, 0, 68, 84
1, 8825, Note_on_c, 1, 62, 0
1, 8825, Note_on_c, 1, 50, 0
1, 8831, Note_on_c, 0, 68, 0
1, 8832, Note_on_c, 1, 61, 84
1, 8832, Note_on_c, 1, 49, 84
1, 8856, Note_on_c, 0, 69, 84
1, 8879, Note_on_c, 0, 69, 0
1, 8880, Note_on_c, 0, 81, 84
1, 8903, Note_on_c, 0, 81, 0
1, 8904, Note_on_c, 0, 69, 84
1, 8921, Note_on_c, 1, 61, 0
1, 8921, Note_on_c, 1, 49, 0
1, 8927, Note_on_c, 0, 69, 0
1, 8928, Note_on_c, 1, 59, 84
1, 8928, Note_on_c, 1, 47, 84
1, 8952, Note_on_c, 0, 74, 84
1, 8975, Note_on_c, 0, 74, 0
1, 8976, Note_on_c, 0, 86, 84
1, 8999, Note_on_c, 0, 86, 0
1, 9000, Note_on_c, 0, 74, 84
1, 9017, Note_on_c, 1, 59, 0
1, 9017, Note_on_c, 1, 47, 0
1, 9023, Note_on_c, 0, 74, 0
1, 9024, Note_on_c, 1, 56, 84
1, 9024, Note_on_c, 1, 44, 84
1, 9048, Note_on_c, 0, 71, 84
1, 9071, Note_on_c, 0, 71, 0
1, 9072, Note_on_c, 0, 83, 84
1, 9095, Note_on_c, 0, 83, 0
1, 9096, Note_on_c, 0, 71, 84
1, 9113, Note_on_c, 1, 56, 0
1, 9113, Note_on_c, 1, 44, 0
1, 9119, Note_on_c, 0, 71, 0
1, 9120, Note_on_c, 1, 57, 84
1, 9120, Note_on_c, 1, 45, 84
1, 9144, Note_on_c, 0, 73, 84
1, 9167, Note_on_c, 0, 73, 0
1, 9168, Note_on_c, 0, 85, 84
1, 9191, Note_on_c, 0, 85, 0
1, 9192, Note_on_c, 0, 73, 84
1, 9209, Note_on_c, 1, 57, 0
1, 9209, Note_on_c, 1, 45, 0
1, 9215, Note_on_c, 0, 73, 0
1, 9216, Note_on_c, 1, 62, 84
1, 9216, Note_on_c, 1, 50, 84
1, 9240, Note_on_c, 0, 66, 83
1, 9263, Note_on_c, 0, 66, 0
1, 9264, Note_on_c, 0, 65, 83
1, 9287, Note_on_c, 0, 65, 0
1, 9288, Note_on_c, 0, 66, 82
1, 9305, Note_on_c, 1, 62, 0
1, 9305, Note_on_c, 1, 50, 0
1, 9311, Note_on_c, 0, 66, 0
1, 9312, Note_on_c, 0, 71, 82
1, 9335, Note_on_c, 0, 71, 0
1, 9336, Note_on_c, 0, 66, 81
1, 9359, Note_on_c, 0, 66, 0
1, 9360, Note_on_c, 0, 65, 81
1, 9383, Note_on_c, 0, 65, 0
1, 9384, Note_on_c, 0, 66, 80
1, 9407, Note_on_c, 0, 66, 0
1, 9408, Note_on_c, 0, 74, 80
1, 9431, Note_on_c, 0, 74, 0
1, 9432, Note_on_c, 0, 66, 79
1, 9455, Note_on_c, 0, 66, 0
1, 9456, Note_on_c, 0, 65, 79
1, 9479, Note_on_c, 0, 65, 0
1, 9480, Note_on_c, 0, 66, 78
1, 9503, Note_on_c, 0, 66, 0
1, 9504, Note_on_c, 0, 76, 78
1, 9600, Note_on_c, 1, 61, 76
1, 9600, Note_on_c, 1, 52, 76
1, 9637, Note_on_c, 0, 76, 0
1, 9648, Note_on_c, 0, 73, 75
1, 9671, Note_on_c, 0, 73, 0
1, 9672, Note_on_c, 0, 69, 75
1, 9689, Note_on_c, 1, 61, 0
1, 9689, Note_on_c, 1, 52, 0
1, 9695, Note_on_c, 0, 69, 0
1, 9696, Note_on_c, 0, 74, 74
1, 9696, Note_on_c, 1, 59, 74
1, 9696, Note_on_c, 1, 52, 74
1, 9741, Note_on_c, 0, 74, 0
1, 9744, Note_on_c, 0, 71, 73
1, 9767, Note_on_c, 0, 71, 0
1, 9768, Note_on_c, 0, 68, 73
1, 9785, Note_on_c, 1, 59, 0
1, 9785, Note_on_c, 1, 52, 0
1, 9791, Note_on_c, 0, 68, 0
1, 9792, Note_on_c, 0, 69, 72
1, 9792, Note_on_c, 1, 57, 72
1, 9792, Note_on_c, 1, 45, 72
1, 9881, Note_on_c, 0, 69, 0
1, 9881, Note_on_c, 1, 57, 0
1, 9881, Note_on_c, 1, 45, 0
1, 9936, Note_on_c, 0, 66, 64
1, 9936, Note_on_c, 1, 61, 64
1, 9948, Note_on_c, 0, 66, 0
1, 9948, Note_on_c, 0, 64, 64
1, 9960, Note_on_c, 0, 64, 0
1, 9960, Note_on_c, 0, 62, 64
1, 9972, Note_on_c, 0, 62, 0
1, 9972, Note_on_c, 0, 64, 64
1, 9981, Note_on_c, 1, 61, 0
1, 9984, Note_on_c, 0, 64, 0
1, 9984, Note_on_c, 0, 66, 64
1, 9984, Note_on_c, 1, 62, 64
1, 10029, Note_on_c, 0, 66, 0
1, 10029, Note_on_c, 1, 62, 0
1, 10032, Note_on_c, 0, 62, 64
1, 10032, Note_on_c, 1, 59, 64
1, 10077, Note_on_c, 0, 62, 0
1, 10077, Note_on_c, 1, 59, 0
1, 10080, Note_on_c, 0, 64, 64
1, 10080, Note_on_c, 1, 61, 64
1, 10125, Note_on_c, 0, 64, 0
1, 10125, Note_on_c, 1, 61, 0
1, 10128, Note_on_c, 0, 61, 64
1, 10128, Note_on_c, 1, 57, 64
1, 10173, Note_on_c, 0, 61, 0
1, 10173, Note_on_c, 1, 57, 0
1, 10176, Note_on_c, 0, 62, 64
1, 10176, Note_on_c, 1, 59, 64
1, 10221, Note_on_c, 0, 62, 0
1, 10221, Note_on_c, 1, 59, 0
1, 10224, Note_on_c, 0, 59, 64
1, 10224, Note_on_c, 1, 52, 64
1, 10269, Note_on_c, 0, 59, 0
1, 10269, Note_on_c, 1, 52, 0
1, 10272, Note_on_c, 0, 61, 64
1, 10272, Note_on_c, 1, 57, 64
1, 10317, Note_on_c, 0, 61, 0
1, 10317, Note_on_c, 1, 57, 0
1, 10320, Note_on_c, 0, 71, 64
1, 10320, Note_on_c, 1, 61, 64
1, 10332, Note_on_c, 0, 71, 0
1, 10332, Note_on_c, 0, 69, 64
1, 10344, Note_on_c, 0, 69, 0
1, 10344, Note_on_c, 0, 67, 64
1, 10356, Note_on_c, 0, 67, 0
1, 10356, Note_on_c, 0, 69, 64
1, 10365, Note_on_c, 1, 61, 0
1, 10368, Note_on_c, 0, 69, 0
1, 10368, Note_on_c, 0, 71, 64
1, 10368, Note_on_c, 1, 62, 64
1, 10413, Note_on_c, 0, 71, 0
1, 10413, Note_on_c, 1, 62, 0
1, 10416, Note_on_c, 0, 68, 64
1, 10416, Note_on_c, 1, 59, 64
1, 10461, Note_on_c, 0, 68, 0
1, 10461, Note_on_c, 1, 59, 0
1, 10464, Note_on_c, 0, 69, 64
1, 10464, Note_on_c, 1, 61, 64
1, 10509, Note_on_c, 0, 69, 0
1, 10509, Note_on_c, 1, 61, 0
1, 10512, Note_on_c, 0, 74, 64
1, 10512, Note_on_c, 1, 64, 64
1, 10524, Note_on_c, 0, 74, 0
1, 10524, Note_on_c, 0, 73, 64
1, 10536, Note_on_c, 0, 73, 0
1, 10536, Note_on_c, 0, 71, 64
1, 10548, Note_on_c, 0, 71, 0
1, 10548, Note_on_c, 0, 73, 64
1, 10557, Note_on_c, 1, 64, 0
1, 10560, Note_on_c, 0, 73, 0
1, 10560, Note_on_c, 0, 74, 64
1, 10560, Note_on_c, 1, 66, 64
1, 10605, Note_on_c, 0, 74, 0
1, 10605, Note_on_c, 1, 66, 0
1, 10608, Note_on_c, 0, 71, 64
1, 10608, Note_on_c, 1, 62, 64
1, 10653, Note_on_c, 0, 71, 0
1, 10653, Note_on_c, 1, 62, 0
1, 10656, Note_on_c, 0, 73, 64
1, 10656, Note_on_c, 1, 64, 64
1, 10701, Note_on_c, 0, 73, 0
1, 10701, Note_on_c, 1, 64, 0
1, 10704, Note_on_c, 0, 76, 66
1, 10704, Note_on_c, 1, 61, 66
1, 10749, Note_on_c, 0, 76, 0
1, 10749, Note_on_c, 1, 61, 0
1, 10752, Note_on_c, 0, 78, 68
1, 10752, Note_on_c, 1, 62, 68
1, 10797, Note_on_c, 0, 78, 0
1, 10797, Note_on_c, 1, 62, 0
1, 10800, Note_on_c, 0, 86, 71
1, 10800, Note_on_c, 1, 71, 70
1, 10845, Note_on_c, 0, 86, 0
1, 10845, Note_on_c, 1, 71, 0
1, 10848, Note_on_c, 0, 76, 73
1, 10848, Note_on_c, 1, 61, 72
1, 10893, Note_on_c, 0, 76, 0
1, 10893, Note_on_c, 1, 61, 0
1, 10896, Note_on_c, 0, 85, 75
1, 10896, Note_on_c, 1, 69, 74
1, 10941, Note_on_c, 0, 85, 0
1, 10941, Note_on_c, 1, 69, 0
1, 10944, Note_on_c, 0, 74, 78
1, 10944, Note_on_c, 1, 59, 76
1, 10989, Note_on_c, 0, 74, 0
1, 10989, Note_on_c, 1, 59, 0
1, 10992, Note_on_c, 0, 83, 80
1, 10992, Note_on_c, 1, 68, 78
1, 11037, Note_on_c, 0, 83, 0
1, 11037, Note_on_c, 1, 68, 0
1, 11040, Note_on_c, 0, 85, 82
1, 11040, Note_on_c, 1, 57, 80
1, 11063, Note_on_c, 0, 85, 0
1, 11064, Note_on_c, 0, 88, 84
1, 11087, Note_on_c, 0, 88, 0
1, 11088, Note_on_c, 0, 85, 84
1, 11111, Note_on_c, 0, 85, 0
1, 11112, Note_on_c, 0, 81, 84
1, 11129, Note_on_c, 1, 57, 0
1, 11135, Note_on_c, 0, 81, 0
1, 11136, Note_on_c, 0, 81, 84
1, 11159, Note_on_c, 0, 81, 0
1, 11160, Note_on_c, 0, 85, 84
1, 11183, Note_on_c, 0, 85, 0
1, 11184, Note_on_c, 0, 81, 84
1, 11207, Note_on_c, 0, 81, 0
1, 11208, Note_on_c, 0, 76, 84
1, 11231, Note_on_c, 0, 76, 0
1, 11232, Note_on_c, 0, 76, 84
1, 11255, Note_on_c, 0, 76, 0
1, 11256, Note_on_c, 0, 81, 84
1, 11279, Note_on_c, 0, 81, 0
1, 11280, Note_on_c, 0, 76, 84
1, 11303, Note_on_c, 0, 76, 0
1, 11304, Note_on_c, 0, 73, 84
1, 11327, Note_on_c, 0, 73, 0
1, 11328, Note_on_c, 0, 73, 84
1, 11351, Note_on_c, 0, 73, 0
1, 11352, Note_on_c, 0, 76, 84
1, 11375, Note_on_c, 0, 76, 0
1, 11376, Note_on_c, 0, 73, 84
1, 11399, Note_on_c, 0, 73, 0
1, 11400, Note_on_c, 0, 69, 84
1, 11423, Note_on_c, 0, 69, 0
1, 11424, Note_on_c, 0, 69, 84
1, 11447, Note_on_c, 0, 69, 0
1, 11448, Note_on_c, 0, 73, 84
1, 11471, Note_on_c, 0, 73, 0
1, 11472, Note_on_c, 0, 69, 84
1, 11495, Note_on_c, 0, 69, 0
1, 11496, Note_on_c, 0, 64, 84
1, 11519, Note_on_c, 0, 64, 0
1, 11520, Note_on_c, 0, 63, 84
1, 11520, Note_on_c, 1, 51, 100
1, 11520, Note_on_c, 1, 39, 100
1, 11609, Note_on_c, 0, 63, 0
1, 11616, Note_on_c, 1, 51, 0
1, 11616, Note_on_c, 1, 39, 0
1, 11616, Note_on_c, 1, 63, 84
1, 11640, Note_on_c, 0, 69, 84
1, 11655, Note_on_c, 1, 63, 0
1, 11663, Note_on_c, 0, 69, 0
1, 11664, Note_on_c, 0, 72, 84
1, 11687, Note_on_c, 0, 72, 0
1, 11688, Note_on_c, 0, 69, 84
1, 11711, Note_on_c, 0, 69, 0
1, 11712, Note_on_c, 1, 69, 84
1, 11736, Note_on_c, 0, 69, 84
1, 11751, Note_on_c, 1, 69, 0
1, 11759, Note_on_c, 0, 69, 0
1, 11760, Note_on_c, 0, 72, 84
1, 11783, Note_on_c, 0, 72, 0
1, 11784, Note_on_c, 0, 69, 84
1, 11807, Note_on_c, 0, 69, 0
1, 11808, Note_on_c, 1, 52, 100
1, 11808, Note_on_c, 1, 40, 100
1, 11832, Note_on_c, 0, 69, 84
1, 11855, Note_on_c, 0, 69, 0
1, 11856, Note_on_c, 0, 72, 84
1, 11879, Note_on_c, 0, 72, 0
1, 11880, Note_on_c, 0, 69, 84
1, 11903, Note_on_c, 0, 69, 0
1, 11904, Note_on_c, 1, 52, 0
1, 11904, Note_on_c, 1, 40, 0
1, 11904, Note_on_c, 1, 64, 84
1, 11928, Note_on_c, 0, 69, 84
1, 11943, Note_on_c, 1, 64, 0
1, 11951, Note_on_c, 0, 69, 0
1, 11952, Note_on_c, 0, 72, 84
1, 11975, Note_on_c, 0, 72, 0
1, 11976, Note_on_c, 0, 69, 84
1, 11999, Note_on_c, 0, 69, 0
1, 12000, Note_on_c, 1, 69, 84
1, 12024, Note_on_c, 0, 69, 84
1, 12039, Note_on_c, 1, 69, 0
1, 12047, Note_on_c, 0, 69, 0
1, 12048, Note_on_c, 0, 72, 84
1, 12071, Note_on_c, 0, 72, 0
1, 12072, Note_on_c, 0, 69, 84
1, 12095, Note_on_c, 0, 69, 0
1, 12096, Note_on_c, 1, 53, 100
1, 12096, Note_on_c, 1, 41, 100
1, 12120, Note_on_c, 0, 69, 84
1, 12143, Note_on_c, 0, 69, 0
1, 12144, Note_on_c, 0, 72, 84
1, 12167, Note_on_c, 0, 72, 0
1, 12168, Note_on_c, 0, 69, 84
1, 12191, Note_on_c, 0, 69, 0
1, 12192, Note_on_c, 1, 53, 0
1, 12192, Note_on_c, 1, 41, 0
1, 12192, Note_on_c, 1, 65, 84
1, 12216, Note_on_c, 0, 69, 84
1, 12239, Note_on_c, 0, 69, 0
1, 12240, Note_on_c, 0, 81, 84
1, 12263, Note_on_c, 0, 81, 0
1, 12264, Note_on_c, 0, 69, 84
1, 12281, Note_on_c, 1, 65, 0
1, 12287, Note_on_c, 0, 69, 0
1, 12288, Note_on_c, 1, 65, 84
1, 12312, Note_on_c, 0, 69, 84
1, 12335, Note_on_c, 0, 69, 0
1, 12336, Note_on_c, 0, 79, 84
1, 12359, Note_on_c, 0, 79, 0
1, 12360, Note_on_c, 0, 69, 84
1, 12377, Note_on_c, 1, 65, 0
1, 12383, Note_on_c, 0, 69, 0
1, 12384, Note_on_c, 1, 65, 84
1, 12408, Note_on_c, 0, 69, 84
1, 12431, Note_on_c, 0, 69, 0
1, 12432, Note_on_c, 0, 77, 84
1, 12455, Note_on_c, 0, 77, 0
1, 12456, Note_on_c, 0, 69, 84
1, 12473, Note_on_c, 1, 65, 0
1, 12479, Note_on_c, 0, 69, 0
1, 12480, Note_on_c, 1, 65, 84
1, 12504, Note_on_c, 0, 69, 84
1, 12527, Note_on_c, 0, 69, 0
1, 12528, Note_on_c, 0, 76, 84
1, 12551, Note_on_c, 0, 76, 0
1, 12552, Note_on_c, 0, 69, 84
1, 12569, Note_on_c, 1, 65, 0
1, 12575, Note_on_c, 0, 69, 0
1, 12576, Note_on_c, 1, 65, 84
1, 12600, Note_on_c, 0, 69, 84
1, 12623, Note_on_c, 0, 69, 0
1, 12624, Note_on_c, 0, 75, 84
1, 12647, Note_on_c, 0, 75, 0
1, 12648, Note_on_c, 0, 69, 84
1, 12665, Note_on_c, 1, 65, 0
1, 12671, Note_on_c, 0, 69, 0
1, 12672, Note_on_c, 1, 64, 84
1, 12696, Note_on_c, 0, 68, 84
1, 12719, Note_on_c, 0, 68, 0
1, 12720, Note_on_c, 0, 76, 84
1, 12743, Note_on_c, 0, 76, 0
1, 12744, Note_on_c, 0, 68, 84
1, 12761, Note_on_c, 1, 64, 0
1, 12767, Note_on_c, 0, 68, 0
1, 12768, Note_on_c, 1, 68, 84
1, 12792, Note_on_c, 0, 71, 84
1, 12815, Note_on_c, 0, 71, 0
1, 12816, Note_on_c, 0, 74, 84
1, 12839, Note_on_c, 0, 74, 0
1, 12840, Note_on_c, 0, 71, 84
1, 12857, Note_on_c, 1, 68, 0
1, 12863, Note_on_c, 0, 71, 0
1, 12864, Note_on_c, 1, 69, 84
1, 12888, Note_on_c, 0, 69, 84
1, 12911, Note_on_c, 0, 69, 0
1, 12912, Note_on_c, 0, 73, 84
1, 12935, Note_on_c, 0, 73, 0
1, 12936, Note_on_c, 0, 69, 84
1, 12953, Note_on_c, 1, 69, 0
1, 12959, Note_on_c, 0, 69, 0
1, 12960, Note_on_c, 1, 62, 84
1, 12960, Note_on_c, 1, 50, 84
1, 12984, Note_on_c, 0, 71, 83
1, 13007, Note_on_c, 0, 71, 0
1, 13008, Note_on_c, 0, 74, 83
1, 13031, Note_on_c, 0, 74, 0
1, 13032, Note_on_c, 0, 71, 82
1, 13049, Note_on_c, 1, 62, 0
1, 13049, Note_on_c, 1, 50, 0
1, 13055, Note_on_c, 0, 71, 0
1, 13056, Note_on_c, 0, 69, 82
1, 13056, Note_on_c, 1, 61, 82
1, 13056, Note_on_c, 1, 52, 82
1, 13145, Note_on_c, 1, 61, 0
1, 13145, Note_on_c, 1, 52, 0
1, 13152, Note_on_c, 1, 59, 80
1, 13152, Note_on_c, 1, 52, 80
1, 13197, Note_on_c, 0, 69, 0
1, 13200, Note_on_c, 0, 68, 79
1, 13212, Note_on_c, 0, 68, 0
1, 13212, Note_on_c, 0, 69, 79
1, 13224, Note_on_c, 0, 69, 0
1, 13224, Note_on_c, 0, 68, 79
1, 13241, Note_on_c, 1, 59, 0
1, 13241, Note_on_c, 1, 52, 0
1, 13245, Note_on_c, 0, 68, 0
1, 13248, Note_on_c, 0, 69, 78
1, 13248, Note_on_c, 1, 49, 84
1, 13271, Note_on_c, 1, 49, 0
1, 13272, Note_on_c, 1, 57, 84
1, 13295, Note_on_c, 1, 57, 0
1, 13296, Note_on_c, 1, 56, 84
1, 13319, Note_on_c, 1, 56, 0
1, 13320, Note_on_c, 1, 57, 84
1, 13337, Note_on_c, 0, 69, 0
1, 13343, Note_on_c, 1, 57, 0
1, 13344, Note_on_c, 0, 81, 84
1, 13344, Note_on_c, 1, 49, 84
1, 13367, Note_on_c, 1, 49, 0
1, 13368, Note_on_c, 1, 57, 84
1, 13391, Note_on_c, 1, 57, 0
1, 13392, Note_on_c, 1, 56, 84
1, 13415, Note_on_c, 1, 56, 0
1, 13416, Note_on_c, 1, 57, 84
1, 13433, Note_on_c, 0, 81, 0
1, 13439, Note_on_c, 1, 57, 0
1, 13440, Note_on_c, 0, 80, 84
1, 13440, Note_on_c, 1, 49, 84
1, 13463, Note_on_c, 1, 49, 0
1, 13464, Note_on_c, 1, 57, 84
1, 13487, Note_on_c, 1, 57, 0
1, 13488, Note_on_c, 1, 56, 84
1, 13511, Note_on_c, 1, 56, 0
1, 13512, Note_on_c, 1, 57, 84
1, 13529, Note_on_c, 0, 80, 0
1, 13535, Note_on_c, 1, 57, 0
1, 13536, Note_on_c, 0, 80, 84
1, 13536, Note_on_c, 1, 50, 84
1, 13548, Note_on_c, 0, 80, 0
1, 13548, Note_on_c, 0, 78, 84
1, 13559, Note_on_c, 1, 50, 0
1, 13560, Note_on_c, 0, 78, 0
1, 13560, Note_on_c, 0, 77, 84
1, 13560, Note_on_c, 1, 57, 84
1, 13572, Note_on_c, 0, 77, 0
1, 13572, Note_on_c, 0, 78, 84
1, 13583, Note_on_c, 1, 57, 0
1, 13584, Note_on_c, 1, 56, 84
1, 13607, Note_on_c, 1, 56, 0
1, 13608, Note_on_c, 1, 57, 84
1, 13625, Note_on_c, 0, 78, 0
1, 13631, Note_on_c, 1, 57, 0
1, 13632, Note_on_c, 0, 76, 84
1, 13632, Note_on_c, 1, 50, 84
1, 13644, Note_on_c, 0, 76, 0
1, 13644, Note_on_c, 0, 74, 84
1, 13655, Note_on_c, 1, 50, 0
1, 13656, Note_on_c, 0, 74, 0
1, 13656, Note_on_c, 0, 73, 84
1, 13656, Note_on_c, 1, 59, 84
1, 13668, Note_on_c, 0, 73, 0
1, 13668, Note_on_c, 0, 74, 84
1, 13679, Note_on_c, 1, 59, 0
1, 13680, Note_on_c, 1, 58, 84
1, 13703, Note_on_c, 1, 58, 0
1, 13704, Note_on_c, 1, 59, 84
1, 13721, Note_on_c, 0, 74, 0
1, 13727, Note_on_c, 1, 59, 0
1, 13728, Note_on_c, 0, 73, 84
1, 13728, Note_on_c, 1, 50, 84
1, 13740, Note_on_c, 0, 73, 0
1, 13740, Note_on_c, 0, 71, 84
1, 13751, Note_on_c, 1, 50, 0
1, 13752, Note_on_c, 0, 71, 0
1, 13752, Note_on_c, 0, 69, 84
1, 13752, Note_on_c, 1, 59, 84
1, 13764, Note_on_c, 0, 69, 0
1, 13764, Note_on_c, 0, 71, 84
1, 13775, Note_on_c, 1, 59, 0
1, 13776, Note_on_c, 1, 58, 84
1, 13799, Note_on_c, 1, 58, 0
1, 13800, Note_on_c, 1, 59, 84
1, 13817, Note_on_c, 0, 71, 0
1, 13823, Note_on_c, 1, 59, 0
1, 13824, Note_on_c, 0, 64, 84
1, 13824, Note_on_c, 1, 52, 84
1, 13847, Note_on_c, 1, 52, 0
1, 13848, Note_on_c, 1, 61, 84
1, 13871, Note_on_c, 1, 61, 0
1, 13872, Note_on_c, 1, 57, 84
1, 13895, Note_on_c, 1, 57, 0
1, 13896, Note_on_c, 1, 61, 84
1, 13913, Note_on_c, 0, 64, 0
1, 13919, Note_on_c, 1, 61, 0
1, 13920, Note_on_c, 0, 73, 84
1, 13920, Note_on_c, 1, 52, 84
1, 13933, Note_on_c, 0, 73, 0
1, 13934, Note_on_c, 0, 71, 84
1, 13943, Note_on_c, 1, 52, 0
1, 13944, Note_on_c, 1, 62, 84
1, 13947, Note_on_c, 0, 71, 0
1, 13948, Note_on_c, 0, 73, 84
1, 13961, Note_on_c, 0, 73, 0
1, 13962, Note_on_c, 0, 71, 84
1, 13967, Note_on_c, 1, 62, 0
1, 13968, Note_on_c, 1, 59, 84
1, 13975, Note_on_c, 0, 71, 0
1, 13976, Note_on_c, 0, 73, 84
1, 13989, Note_on_c, 0, 73, 0
1, 13990, Note_on_c, 0, 71, 84
1, 13991, Note_on_c, 1, 59, 0
1, 13992, Note_on_c, 1, 62, 84
1, 14003, Note_on_c, 0, 71, 0
1, 14004, Note_on_c, 0, 73, 84
1, 14015, Note_on_c, 1, 62, 0
1, 14016, Note_on_c, 1, 52, 84
1, 14017, Note_on_c, 0, 73, 0
1, 14018, Note_on_c, 0, 71, 84
1, 14031, Note_on_c, 0, 71, 0
1, 14032, Note_on_c, 0, 73, 84
1, 14039, Note_on_c, 1, 52, 0
1, 14040, Note_on_c, 1, 62, 84
1, 14045, Note_on_c, 0, 73, 0
1, 14046, Note_on_c, 0, 71, 84
1, 14059, Note_on_c, 0, 71, 0
1, 14060, Note_on_c, 0, 73, 84
1, 14063, Note_on_c, 1, 62, 0
1, 14064, Note_on_c, 1, 59, 84
1, 14072, Note_on_c, 0, 73, 0
1, 14073, Note_on_c, 0, 71, 84
1, 14085, Note_on_c, 0, 71, 0
1, 14086, Note_on_c, 0, 69, 84
1, 14087, Note_on_c, 1, 59, 0
1, 14088, Note_on_c, 1, 62, 84
1, 14098, Note_on_c, 0, 69, 0
1, 14099, Note_on_c, 0, 71, 84
1, 14111, Note_on_c, 0, 71, 0
1, 14111, Note_on_c, 1, 62, 0
1, 14112, Note_on_c, 0, 69, 84
1, 14112, Note_on_c, 1, 61, 84
1, 14112, Note_on_c, 1, 57, 84
1, 14135, Note_on_c, 0, 69, 0
1, 14136, Note_on_c, 0, 76, 84
1, 14159, Note_on_c, 0, 76, 0
1, 14160, Note_on_c, 0, 73, 84
1, 14183, Note_on_c, 0, 73, 0
1, 14184, Note_on_c, 0, 69, 84
1, 14201, Note_on_c, 1, 61, 0
1, 14201, Note_on_c, 1, 57, 0
1, 14207, Note_on_c, 0, 69, 0
1, 14208, Note_on_c, 0, 64, 84
1, 14253, Note_on_c, 0, 64, 0
1, 14256, Note_on_c, 0, 61, 84
1, 14256, Note_on_c, 1, 57, 84
1, 14276, Note_on_c, 0, 61, 0
1, 14276, Note_on_c, 1, 57, 0
1, 14304, Note_on_c, 0, 59, 84
1, 14304, Note_on_c, 1, 56, 84
1, 14324, Note_on_c, 0, 59, 0
1, 14324, Note_on_c, 1, 56, 0
1, 14352, Note_on_c, 0, 62, 84
1, 14352, Note_on_c, 1, 52, 84
1, 14372, Note_on_c, 0, 62, 0
1, 14372, Note_on_c, 1, 52, 0
1, 14400, Note_on_c, 0, 61, 84
1, 14400, Note_on_c, 1, 57, 84
1, 14423, Note_on_c, 0, 61, 0
1, 14424, Note_on_c, 0, 64, 84
1, 14439, Note_on_c, 1, 57, 0
1, 14447, Note_on_c, 0, 64, 0
1, 14448, Note_on_c, 0, 69, 84
1, 14471, Note_on_c, 0, 69, 0
1, 14472, Note_on_c, 0, 73, 84
1, 14495, Note_on_c, 0, 73, 0
1, 14496, Note_on_c, 0, 76, 84
1, 14541, Note_on_c, 0, 76, 0
1, 14544, Note_on_c, 0, 61, 84
1, 14544, Note_on_c, 1, 57, 84
1, 14564, Note_on_c, 0, 61, 0
1, 14564, Note_on_c, 1, 57, 0
1, 14592, Note_on_c, 0, 62, 84
1, 14592, Note_on_c, 1, 59, 84
1, 14612, Note_on_c, 0, 62, 0
1, 14612, Note_on_c, 1, 59, 0
1, 14640, Note_on_c, 0, 68, 84
1, 14640, Note_on_c, 0, 62, 84
1, 14640, Note_on_c, 1, 59, 84
1, 14640, Note_on_c, 1, 52, 84
1, 14660, Note_on_c, 0, 68, 0
1, 14660, Note_on_c, 0, 62, 0
1, 14660, Note_on_c, 1, 59, 0
1, 14660, Note_on_c, 1, 52, 0
1, 14688, Note_on_c, 0, 69, 84
1, 14688, Note_on_c, 0, 61, 84
1, 14688, Note_on_c, 1, 57, 84
1, 14688, Note_on_c, 1, 45, 84
1, 14777, Note_on_c, 0, 69, 0
1, 14777, Note_on_c, 0, 61, 0
1, 14777, Note_on_c, 1, 57, 0
1, 14777, Note_on_c, 1, 45, 0
1, 14880, Note_on_c, 0, 81, 78
1, 14886, Note_on_c, 0, 81, 0
1, 14886, Note_on_c, 0, 81, 94
1, 14900, Note_on_c, 0, 81, 0
1, 14928, Note_on_c, 0, 83, 78
1, 14934, Note_on_c, 0, 83, 0
1, 14934, Note_on_c, 0, 81, 78
1, 14940, Note_on_c, 0, 81, 0
1, 14940, Note_on_c, 0, 79, 78
1, 14946, Note_on_c, 0, 79, 0
1, 14946, Note_on_c, 0, 81, 78
1, 14952, Note_on_c, 0, 81, 0
1, 14952, Note_on_c, 0, 86, 78
1, 14975, Note_on_c, 0, 86, 0
1, 14976, Note_on_c, 0, 81, 78
1, 15024, Note_on_c, 1, 62, 78
1, 15069, Note_on_c, 1, 62, 0
1, 15072, Note_on_c, 1, 66, 79
1, 15117, Note_on_c, 0, 81, 0
1, 15117, Note_on_c, 1, 66, 0
1, 15120, Note_on_c, 0, 78, 79
1, 15120, Note_on_c, 1, 62, 79
1, 15165, Note_on_c, 0, 78, 0
1, 15165, Note_on_c, 1, 62, 0
1, 15168, Note_on_c, 0, 79, 80
1, 15168, Note_on_c, 1, 64, 80
1, 15213, Note_on_c, 0, 79, 0
1, 15213, Note_on_c, 1, 64, 0
1, 15216, Note_on_c, 0, 76, 80
1, 15216, Note_on_c, 1, 61, 80
1, 15261, Note_on_c, 0, 76, 0
1, 15261, Note_on_c, 1, 61, 0
1, 15264, Note_on_c, 0, 78, 81
1, 15264, Note_on_c, 1, 62, 81
1, 15309, Note_on_c, 0, 78, 0
1, 15309, Note_on_c, 1, 62, 0
1, 15312, Note_on_c, 0, 74, 81
1, 15312, Note_on_c, 1, 54, 81
1, 15357, Note_on_c, 0, 74, 0
1, 15357, Note_on_c, 1, 54, 0
1, 15360, Note_on_c, 0, 76, 82
1, 15360, Note_on_c, 1, 55, 82
1, 15405, Note_on_c, 0, 76, 0
1, 15405, Note_on_c, 1, 55, 0
1, 15408, Note_on_c, 0, 73, 82
1, 15408, Note_on_c, 1, 57, 82
1, 15453, Note_on_c, 0, 73, 0
1, 15453, Note_on_c, 1, 57, 0
1, 15456, Note_on_c, 0, 74, 83
1, 15456, Note_on_c, 1, 54, 83
1, 15501, Note_on_c, 0, 74, 0
1, 15501, Note_on_c, 1, 54, 0
1, 15504, Note_on_c, 0, 69, 83
1, 15504, Note_on_c, 1, 66, 83
1, 15549, Note_on_c, 0, 69, 0
1, 15549, Note_on_c, 1, 66, 0
1, 15552, Note_on_c, 0, 71, 84
1, 15552, Note_on_c, 1, 67, 84
1, 15575, Note_on_c, 0, 71, 0
1, 15576, Note_on_c, 0, 73, 83
1, 15599, Note_on_c, 0, 73, 0
1, 15600, Note_on_c, 0, 74, 83
1, 15623, Note_on_c, 0, 74, 0
1, 15624, Note_on_c, 0, 71, 82
1, 15641, Note_on_c, 1, 67, 0
1, 15647, Note_on_c, 0, 71, 0
1, 15648, Note_on_c, 0, 69, 82
1, 15648, Note_on_c, 1, 66, 82
1, 15693, Note_on_c, 1, 66, 0
1, 15696, Note_on_c, 1, 62, 81
1, 15741, Note_on_c, 1, 62, 0
1, 15744, Note_on_c, 1, 64, 81
1, 15789, Note_on_c, 0, 69, 0
1, 15789, Note_on_c, 1, 64, 0
1, 15792, Note_on_c, 0, 67, 80
1, 15792, Note_on_c, 1, 57, 80
1, 15804, Note_on_c, 0, 67, 0
1, 15804, Note_on_c, 0, 69, 80
1, 15816, Note_on_c, 0, 69, 0
1, 15816, Note_on_c, 0, 67, 80
1, 15837, Note_on_c, 0, 67, 0
1, 15837, Note_on_c, 1, 57, 0
1, 15840, Note_on_c, 0, 66, 79
1, 15840, Note_on_c, 1, 62, 79
1, 15929, Note_on_c, 0, 66, 0
1, 15929, Note_on_c, 1, 62, 0
1, 15936, Note_on_c, 1, 50, 78
1, 16025, Note_on_c, 1, 50, 0
1, 16032, Note_on_c, 0, 81, 78
1, 16038, Note_on_c, 0, 81, 0
1, 16038, Note_on_c, 0, 81, 78
1, 16052, Note_on_c, 0, 81, 0
1, 16080, Note_on_c, 0, 83, 78
1, 16086, Note_on_c, 0, 83, 0
1, 16086, Note_on_c, 0, 81, 78
1, 16092, Note_on_c, 0, 81, 0
1, 16092, Note_on_c, 0, 79, 78
1, 16098, Note_on_c, 0, 79, 0
1, 16098, Note_on_c, 0, 81, 78
1, 16104, Note_on_c, 0, 81, 0
1, 16104, Note_on_c, 0, 86, 78
1, 16127, Note_on_c, 0, 86, 0
1, 16128, Note_on_c, 0, 81, 78
1, 16176, Note_on_c, 1, 62, 78
1, 16221, Note_on_c, 1, 62, 0
1, 16224, Note_on_c, 1, 66, 78
1, 16269, Note_on_c, 0, 81, 0
1, 16269, Note_on_c, 1, 66, 0
1, 16272, Note_on_c, 0, 78, 78
1, 16272, Note_on_c, 1, 62, 78
1, 16317, Note_on_c, 0, 78, 0
1, 16317, Note_on_c, 1, 62, 0
1, 16320, Note_on_c, 0, 79, 79
1, 16320, Note_on_c, 1, 64, 79
1, 16365, Note_on_c, 0, 79, 0
1, 16365, Note_on_c, 1, 64, 0
1, 16368, Note_on_c, 0, 76, 79
1, 16368, Note_on_c, 1, 57, 79
1, 16413, Note_on_c, 0, 76, 0
1, 16413, Note_on_c, 1, 57, 0
1, 16416, Note_on_c, 0, 78, 79
1, 16416, Note_on_c, 1, 62, 79
1, 16461, Note_on_c, 0, 78, 0
1, 16461, Note_on_c, 1, 62, 0
1, 16464, Note_on_c, 0, 74, 79
1, 16464, Note_on_c, 1, 66, 79
1, 16509, Note_on_c, 0, 74, 0
1, 16509, Note_on_c, 1, 66, 0
1, 16512, Note_on_c, 0, 76, 80
1, 16512, Note_on_c, 1, 67, 80
1, 16557, Note_on_c, 0, 76, 0
1, 16557, Note_on_c, 1, 67, 0
1, 16560, Note_on_c, 0, 73, 80
1, 16560, Note_on_c, 1, 64, 80
1, 16605, Note_on_c, 0, 73, 0
1, 16605, Note_on_c, 1, 64, 0
1, 16608, Note_on_c, 0, 74, 80
1, 16608, Note_on_c, 1, 66, 80
1, 16653, Note_on_c, 0, 74, 0
1, 16653, Note_on_c, 1, 66, 0
1, 16656, Note_on_c, 0, 78, 81
1, 16656, Note_on_c, 1, 62, 81
1, 16701, Note_on_c, 0, 78, 0
1, 16701, Note_on_c, 1, 62, 0
1, 16704, Note_on_c, 0, 79, 81
1, 16704, Note_on_c, 1, 64, 81
1, 16749, Note_on_c, 0, 79, 0
1, 16749, Note_on_c, 1, 64, 0
1, 16752, Note_on_c, 0, 76, 81
1, 16752, Note_on_c, 1, 61, 81
1, 16797, Note_on_c, 0, 76, 0
1, 16797, Note_on_c, 1, 61, 0
1, 16800, Note_on_c, 0, 81, 81
1, 16800, Note_on_c, 1, 66, 81
1, 16845, Note_on_c, 0, 81, 0
1, 16845, Note_on_c, 1, 66, 0
1, 16848, Note_on_c, 0, 78, 82
1, 16848, Note_on_c, 1, 62, 82
1, 16893, Note_on_c, 0, 78, 0
1, 16893, Note_on_c, 1, 62, 0
1, 16896, Note_on_c, 0, 83, 82
1, 16896, Note_on_c, 1, 67, 82
1, 16919, Note_on_c, 0, 83, 0
1, 16920, Note_on_c, 0, 79, 82
1, 16935, Note_on_c, 1, 67, 0
1, 16943, Note_on_c, 0, 79, 0
1, 16944, Note_on_c, 0, 76, 82
1, 16967, Note_on_c, 0, 76, 0
1, 16968, Note_on_c, 0, 74, 82
1, 16991, Note_on_c, 0, 74, 0
1, 16992, Note_on_c, 1, 67, 82
1, 17007, Note_on_c, 1, 67, 0
1, 17008, Note_on_c, 1, 69, 82
1, 17023, Note_on_c, 1, 69, 0
1, 17024, Note_on_c, 1, 73, 83
1, 17039, Note_on_c, 1, 73, 0
1, 17040, Note_on_c, 0, 76, 83
1, 17055, Note_on_c, 0, 76, 0
1, 17056, Note_on_c, 0, 81, 83
1, 17071, Note_on_c, 0, 81, 0
1, 17072, Note_on_c, 0, 85, 83
1, 17087, Note_on_c, 0, 85, 0
1, 17088, Note_on_c, 0, 86, 83
1, 17088, Note_on_c, 1, 66, 83
1, 17127, Note_on_c, 0, 86, 0
1, 17127, Note_on_c, 1, 66, 0
1, 17280, Note_on_c, 0, 67, 78
1, 17280, Note_on_c, 0, 61, 64
1, 17328, Note_on_c, 1, 45, 78
1, 17373, Note_on_c, 1, 45, 0
1, 17376, Note_on_c, 1, 57, 78
1, 17413, Note_on_c, 0, 67, 0
1, 17413, Note_on_c, 0, 61, 0
1, 17421, Note_on_c, 1, 57, 0
1, 17424, Note_on_c, 0, 64, 78
1, 17424, Note_on_c, 0, 64, 64
1, 17424, Note_on_c, 1, 61, 78
1, 17469, Note_on_c, 0, 64, 0
1, 17469, Note_on_c, 0, 64, 0
1, 17469, Note_on_c, 1, 61, 0
1, 17472, Note_on_c, 0, 66, 78
1, 17472, Note_on_c, 1, 62, 78
1, 17517, Note_on_c, 0, 66, 0
1, 17520, Note_on_c, 0, 74, 78
1, 17561, Note_on_c, 1, 62, 0
1, 17565, Note_on_c, 0, 74, 0
1, 17568, Note_on_c, 0, 73, 78
1, 17568, Note_on_c, 0, 67, 64
1, 17616, Note_on_c, 1, 45, 78
1, 17661, Note_on_c, 1, 45, 0
1, 17664, Note_on_c, 1, 57, 78
1, 17701, Note_on_c, 0, 73, 0
1, 17709, Note_on_c, 1, 57, 0
1, 17712, Note_on_c, 0, 76, 78
1, 17712, Note_on_c, 1, 61, 78
1, 17745, Note_on_c, 0, 67, 0
1, 17757, Note_on_c, 0, 76, 0
1, 17757, Note_on_c, 1, 61, 0
1, 17760, Note_on_c, 0, 74, 78
1, 17760, Note_on_c, 0, 66, 64
1, 17760, Note_on_c, 1, 62, 78
1, 17805, Note_on_c, 0, 74, 0
1, 17808, Note_on_c, 0, 62, 78
1, 17849, Note_on_c, 0, 66, 0
1, 17849, Note_on_c, 1, 62, 0
1, 17853, Note_on_c, 0, 62, 0
1, 17856, Note_on_c, 0, 67, 78
1, 17856, Note_on_c, 0, 61, 64
1, 17904, Note_on_c, 1, 45, 78
1, 17949, Note_on_c, 1, 45, 0
1, 17952, Note_on_c, 1, 57, 79
1, 17989, Note_on_c, 0, 67, 0
1, 17989, Note_on_c, 0, 61, 0
1, 17997, Note_on_c, 1, 57, 0
1, 18000, Note_on_c, 0, 64, 79
1, 18000, Note_on_c, 0, 64, 64
1, 18000, Note_on_c, 1, 61, 79
1, 18045, Note_on_c, 0, 64, 0
1, 18045, Note_on_c, 0, 64, 0
1, 18045, Note_on_c, 1, 61, 0
1, 18048, Note_on_c, 0, 66, 80
1, 18048, Note_on_c, 1, 62, 80
1, 18093, Note_on_c, 0, 66, 0
1, 18096, Note_on_c, 0, 74, 80
1, 18137, Note_on_c, 1, 62, 0
1, 18141, Note_on_c, 0, 74, 0
1, 18144, Note_on_c, 0, 79, 81
1, 18144, Note_on_c, 0, 73, 64
1, 18192, Note_on_c, 1, 45, 81
1, 18237, Note_on_c, 1, 45, 0
1, 18240, Note_on_c, 1, 57, 82
1, 18277, Note_on_c, 0, 79, 0
1, 18277, Note_on_c, 0, 73, 0
1, 18285, Note_on_c, 1, 57, 0
1, 18288, Note_on_c, 0, 76, 82
1, 18288, Note_on_c, 0, 76, 64
1, 18288, Note_on_c, 1, 61, 82
1, 18333, Note_on_c, 0, 76, 0
1, 18333, Note_on_c, 0, 76, 0
1, 18333, Note_on_c, 1, 61, 0
1, 18336, Note_on_c, 0, 78, 83
1, 18336, Note_on_c, 0, 69, 64
1, 18336, Note_on_c, 1, 62, 83
1, 18381, Note_on_c, 0, 78, 0
1, 18381, Note_on_c, 1, 62, 0
1, 18384, Note_on_c, 0, 74, 83
1, 18384, Note_on_c, 1, 66, 83
1, 18425, Note_on_c, 0, 69, 0
1, 18429, Note_on_c, 0, 74, 0
1, 18429, Note_on_c, 1, 66, 0
1, 18432, Note_on_c, 0, 73, 84
1, 18432, Note_on_c, 1, 67, 84
1, 18455, Note_on_c, 0, 73, 0
1, 18456, Note_on_c, 0, 71, 83
1, 18479, Note_on_c, 0, 71, 0
1, 18480, Note_on_c, 0, 83, 83
1, 18503, Note_on_c, 0, 83, 0
1, 18504, Note_on_c, 0, 81, 83
1, 18521, Note_on_c, 1, 67, 0
1, 18527, Note_on_c, 0, 81, 0
1, 18528, Note_on_c, 0, 79, 82
1, 18551, Note_on_c, 0, 79, 0
1, 18552, Note_on_c, 0, 78, 82
1, 18575, Note_on_c, 0, 78, 0
1, 18576, Note_on_c, 0, 76, 82
1, 18599, Note_on_c, 0, 76, 0
1, 18600, Note_on_c, 0, 86, 81
1, 18623, Note_on_c, 0, 86, 0
1, 18624, Note_on_c, 0, 85, 81
1, 18647, Note_on_c, 0, 85, 0
1, 18648, Note_on_c, 0, 83, 81
1, 18671, Note_on_c, 0, 83, 0
1, 18672, Note_on_c, 0, 81, 81
1, 18695, Note_on_c, 0, 81, 0
1, 18696, Note_on_c, 0, 79, 80
1, 18696, Note_on_c, 1, 71, 80
1, 18719, Note_on_c, 0, 79, 0
1, 18719, Note_on_c, 1, 71, 0
1, 18720, Note_on_c, 0, 78, 80
1, 18720, Note_on_c, 1, 74, 80
1, 18720, Note_on_c, 1, 69, 64
1, 18816, Note_on_c, 0, 78, 0
1, 18816, Note_on_c, 0, 76, 79
1, 18816, Note_on_c, 1, 74, 0
1, 18816, Note_on_c, 1, 73, 79
1, 18897, Note_on_c, 1, 69, 0
1, 18905, Note_on_c, 0, 76, 0
1, 18905, Note_on_c, 1, 73, 0
1, 18912, Note_on_c, 0, 76, 78
1, 18932, Note_on_c, 0, 76, 0
1, 18960, Note_on_c, 0, 78, 78
1, 18966, Note_on_c, 0, 78, 0
1, 18966, Note_on_c, 0, 76, 78
1, 18972, Note_on_c, 0, 76, 0
1, 18972, Note_on_c, 0, 74, 78
1, 18978, Note_on_c, 0, 74, 0
1, 18978, Note_on_c, 0, 76, 78
1, 18984, Note_on_c, 0, 76, 0
1, 18984, Note_on_c, 0, 81, 78
1, 19007, Note_on_c, 0, 81, 0
1, 19008, Note_on_c, 0, 76, 78
1, 19056, Note_on_c, 1, 57, 78
1, 19101, Note_on_c, 1, 57, 0
1, 19104, Note_on_c, 1, 61, 78
1, 19149, Note_on_c, 0, 76, 0
1, 19149, Note_on_c, 1, 61, 0
1, 19152, Note_on_c, 0, 73, 78
1, 19152, Note_on_c, 1, 57, 78
1, 19197, Note_on_c, 0, 73, 0
1, 19197, Note_on_c, 1, 57, 0
1, 19200, Note_on_c, 0, 76, 78
1, 19200, Note_on_c, 1, 59, 78
1, 19223, Note_on_c, 0, 76, 0
1, 19224, Note_on_c, 0, 74, 78
1, 19245, Note_on_c, 1, 59, 0
1, 19247, Note_on_c, 0, 74, 0
1, 19248, Note_on_c, 0, 73, 78
1, 19248, Note_on_c, 1, 52, 78
1, 19271, Note_on_c, 0, 73, 0
1, 19272, Note_on_c, 0, 71, 78
1, 19293, Note_on_c, 1, 52, 0
1, 19295, Note_on_c, 0, 71, 0
1, 19296, Note_on_c, 0, 74, 78
1, 19296, Note_on_c, 1, 57, 78
1, 19319, Note_on_c, 0, 74, 0
1, 19320, Note_on_c, 0, 73, 78
1, 19343, Note_on_c, 0, 73, 0
1, 19344, Note_on_c, 0, 71, 78
1, 19367, Note_on_c, 0, 71, 0
1, 19368, Note_on_c, 0, 69, 78
1, 19385, Note_on_c, 1, 57, 0
1, 19391, Note_on_c, 0, 69, 0
1, 19392, Note_on_c, 0, 69, 78
1, 19415, Note_on_c, 0, 69, 0
1, 19416, Note_on_c, 0, 68, 78
1, 19439, Note_on_c, 0, 68, 0
1, 19440, Note_on_c, 0, 66, 78
1, 19463, Note_on_c, 0, 66, 0
1, 19464, Note_on_c, 0, 64, 78
1, 19487, Note_on_c, 0, 64, 0
1, 19488, Note_on_c, 0, 64, 78
1, 19511, Note_on_c, 0, 64, 0
1, 19512, Note_on_c, 0, 62, 78
1, 19535, Note_on_c, 0, 62, 0
1, 19536, Note_on_c, 0, 61, 78
1, 19559, Note_on_c, 0, 61, 0
1, 19560, Note_on_c, 0, 59, 78
1, 19583, Note_on_c, 0, 59, 0
1, 19584, Note_on_c, 0, 57, 78
1, 19632, Note_on_c, 1, 49, 78
1, 19677, Note_on_c, 1, 49, 0
1, 19680, Note_on_c, 1, 52, 78
1, 19725, Note_on_c, 0, 57, 0
1, 19725, Note_on_c, 1, 52, 0
1, 19728, Note_on_c, 0, 59, 78
1, 19728, Note_on_c, 1, 49, 78
1, 19751, Note_on_c, 0, 59, 0
1, 19752, Note_on_c, 0, 57, 78
1, 19773, Note_on_c, 1, 49, 0
1, 19775, Note_on_c, 0, 57, 0
1, 19776, Note_on_c, 0, 57, 78
1, 19776, Note_on_c, 1, 52, 78
1, 19799, Note_on_c, 0, 57, 0
1, 19800, Note_on_c, 0, 55, 79
1, 19821, Note_on_c, 1, 52, 0
1, 19823, Note_on_c, 0, 55, 0
1, 19824, Note_on_c, 0, 54, 79
1, 19824, Note_on_c, 1, 49, 79
1, 19847, Note_on_c, 0, 54, 0
1, 19848, Note_on_c, 0, 55, 79
1, 19869, Note_on_c, 1, 49, 0
1, 19871, Note_on_c, 0, 55, 0
1, 19872, Note_on_c, 0, 55, 79
1, 19920, Note_on_c, 1, 50, 79
1, 19965, Note_on_c, 1, 50, 0
1, 19968, Note_on_c, 0, 55, 0
1, 19968, Note_on_c, 0, 54, 79
1, 19968, Note_on_c, 1, 38, 79
1, 20013, Note_on_c, 1, 38, 0
1, 20016, Note_on_c, 1, 50, 80
1, 20057, Note_on_c, 0, 54, 0
1, 20061, Note_on_c, 1, 50, 0
1, 20064, Note_on_c, 0, 58, 96
1, 20064, Note_on_c, 1, 49, 80
1, 20109, Note_on_c, 1, 49, 0
1, 20112, Note_on_c, 1, 52, 80
1, 20157, Note_on_c, 1, 52, 0
1, 20160, Note_on_c, 0, 58, 0
1, 20160, Note_on_c, 0, 59, 80
1, 20160, Note_on_c, 1, 50, 80
1, 20183, Note_on_c, 0, 59, 0
1, 20184, Note_on_c, 0, 61, 81
1, 20207, Note_on_c, 0, 61, 0
1, 20208, Note_on_c, 0, 62, 81
1, 20231, Note_on_c, 0, 62, 0
1, 20232, Note_on_c, 0, 64, 81
1, 20255, Note_on_c, 0, 64, 0
1, 20256, Note_on_c, 0, 66, 81
1, 20279, Note_on_c, 0, 66, 0
1, 20280, Note_on_c, 0, 64, 81
1, 20303, Note_on_c, 0, 64, 0
1, 20304, Note_on_c, 0, 62, 81
1, 20327, Note_on_c, 0, 62, 0
1, 20328, Note_on_c, 0, 61, 81
1, 20351, Note_on_c, 0, 61, 0
1, 20352, Note_on_c, 0, 59, 81
1, 20352, Note_on_c, 1, 50, 0
1, 20352, Note_on_c, 1, 51, 81
1, 20375, Note_on_c, 0, 59, 0
1, 20376, Note_on_c, 0, 57, 82
1, 20399, Note_on_c, 0, 57, 0
1, 20400, Note_on_c, 0, 56, 82
1, 20423, Note_on_c, 0, 56, 0
1, 20424, Note_on_c, 0, 57, 82
1, 20441, Note_on_c, 1, 51, 0
1, 20447, Note_on_c, 0, 57, 0
1, 20448, Note_on_c, 0, 57, 82
1, 20496, Note_on_c, 1, 52, 82
1, 20541, Note_on_c, 1, 52, 0
1, 20544, Note_on_c, 0, 57, 0
1, 20544, Note_on_c, 0, 56, 82
1, 20544, Note_on_c, 1, 40, 82
1, 20589, Note_on_c, 1, 40, 0
1, 20592, Note_on_c, 1, 44, 82
1, 20633, Note_on_c, 0, 56, 0
1, 20637, Note_on_c, 1, 44, 0
1, 20640, Note_on_c, 1, 47, 83
1, 20685, Note_on_c, 1, 47, 0
1, 20688, Note_on_c, 1, 52, 83
1, 20733, Note_on_c, 1, 52, 0
1, 20736, Note_on_c, 1, 40, 83
1, 20760, Note_on_c, 0, 64, 84
1, 20783, Note_on_c, 0, 64, 0
1, 20784, Note_on_c, 0, 68, 84
1, 20807, Note_on_c, 0, 68, 0
1, 20808, Note_on_c, 0, 64, 84
1, 20825, Note_on_c, 1, 40, 0
1, 20831, Note_on_c, 0, 64, 0
1, 20832, Note_on_c, 1, 64, 84
1, 20856, Note_on_c, 0, 64, 84
1, 20871, Note_on_c, 1, 64, 0
1, 20879, Note_on_c, 0, 64, 0
1, 20880, Note_on_c, 0, 68, 84
1, 20903, Note_on_c, 0, 68, 0
1, 20904, Note_on_c, 0, 64, 84
1, 20927, Note_on_c, 0, 64, 0
1, 20928, Note_on_c, 1, 62, 84
1, 20952, Note_on_c, 0, 64, 84
1, 20967, Note_on_c, 1, 62, 0
1, 20975, Note_on_c, 0, 64, 0
1, 20976, Note_on_c, 0, 68, 84
1, 20999, Note_on_c, 0, 68, 0
1, 21000, Note_on_c, 0, 64, 84
1, 21023, Note_on_c, 0, 64, 0
1, 21024, Note_on_c, 1, 61, 84
1, 21048, Note_on_c, 0, 64, 84
1, 21063, Note_on_c, 1, 61, 0
1, 21071, Note_on_c, 0, 64, 0
1, 21072, Note_on_c, 0, 69, 84
1, 21095, Note_on_c, 0, 69, 0
1, 21096, Note_on_c, 0, 64, 84
1, 21119, Note_on_c, 0, 64, 0
1, 21120, Note_on_c, 1, 61, 84
1, 21144, Note_on_c, 0, 64, 84
1, 21159, Note_on_c, 1, 61, 0
1, 21167, Note_on_c, 0, 64, 0
1, 21168, Note_on_c, 0, 76, 84
1, 21191, Note_on_c, 0, 76, 0
1, 21192, Note_on_c, 0, 64, 84
1, 21215, Note_on_c, 0, 64, 0
1, 21216, Note_on_c, 1, 59, 84
1, 21240, Note_on_c, 0, 64, 84
1, 21255, Note_on_c, 1, 59, 0
1, 21263, Note_on_c, 0, 64, 0
1, 21264, Note_on_c, 0, 74, 84
1, 21287, Note_on_c, 0, 74, 0
1, 21288, Note_on_c, 0, 64, 84
1, 21311, Note_on_c, 0, 64, 0
1, 21312, Note_on_c, 1, 57, 84
1, 21336, Note_on_c, 0, 64, 84
1, 21359, Note_on_c, 0, 64, 0
1, 21360, Note_on_c, 0, 73, 84
1, 21383, Note_on_c, 0, 73, 0
1, 21384, Note_on_c, 0, 64, 84
1, 21401, Note_on_c, 1, 57, 0
1, 21407, Note_on_c, 0, 64, 0
1, 21408, Note_on_c, 1, 64, 84
1, 21432, Note_on_c, 0, 64, 84
1, 21447, Note_on_c, 1, 64, 0
1, 21455, Note_on_c, 0, 64, 0
1, 21456, Note_on_c, 0, 68, 84
1, 21479, Note_on_c, 0, 68, 0
1, 21480, Note_on_c, 0, 64, 84
1, 21503, Note_on_c, 0, 64, 0
1, 21504, Note_on_c, 1, 62, 84
1, 21528, Note_on_c, 0, 64, 84
1, 21543, Note_on_c, 1, 62, 0
1, 21551, Note_on_c, 0, 64, 0
1, 21552, Note_on_c, 0, 68, 84
1, 21575, Note_on_c, 0, 68, 0
1, 21576, Note_on_c, 0, 64, 84
1, 21599, Note_on_c, 0, 64, 0
1, 21600, Note_on_c, 1, 60, 84
1, 21624, Note_on_c, 0, 64, 84
1, 21639, Note_on_c, 1, 60, 0
1, 21647, Note_on_c, 0, 64, 0
1, 21648, Note_on_c, 0, 69, 84
1, 21671, Note_on_c, 0, 69, 0
1, 21672, Note_on_c, 0, 64, 84
1, 21695, Note_on_c, 0, 64, 0
1, 21696, Note_on_c, 1, 60, 84
1, 21720, Note_on_c, 0, 64, 84
1, 21735, Note_on_c, 1, 60, 0
1, 21743, Note_on_c, 0, 64, 0
1, 21744, Note_on_c, 0, 76, 84
1, 21767, Note_on_c, 0, 76, 0
1, 21768, Note_on_c, 0, 64, 84
1, 21791, Note_on_c, 0, 64, 0
1, 21792, Note_on_c, 1, 59, 84
1, 21816, Note_on_c, 0, 64, 84
1, 21831, Note_on_c, 1, 59, 0
1, 21839, Note_on_c, 0, 64, 0
1, 21840, Note_on_c, 0, 74, 84
1, 21863, Note_on_c, 0, 74, 0
1, 21864, Note_on_c, 0, 64, 84
1, 21887, Note_on_c, 0, 64, 0
1, 21888, Note_on_c, 1, 57, 84
1, 21912, Note_on_c, 0, 69, 84
1, 21935, Note_on_c, 0, 69, 0
1, 21936, Note_on_c, 0, 72, 84
1, 21959, Note_on_c, 0, 72, 0
1, 21960, Note_on_c, 0, 69, 84
1, 21977, Note_on_c, 1, 57, 0
1, 21983, Note_on_c, 0, 69, 0
1, 21984, Note_on_c, 1, 69, 84
1, 22008, Note_on_c, 0, 69, 84
1, 22023, Note_on_c, 1, 69, 0
1, 22031, Note_on_c, 0, 69, 0
1, 22032, Note_on_c, 0, 72, 84
1, 22055, Note_on_c, 0, 72, 0
1, 22056, Note_on_c, 0, 69, 84
1, 22079, Note_on_c, 0, 69, 0
1, 22080, Note_on_c, 1, 67, 84
1, 22104, Note_on_c, 0, 69, 84
1, 22119, Note_on_c, 1, 67, 0
1, 22127, Note_on_c, 0, 69, 0
1, 22128, Note_on_c, 0, 73, 84
1, 22151, Note_on_c, 0, 73, 0
1, 22152, Note_on_c, 0, 69, 84
1, 22175, Note_on_c, 0, 69, 0
1, 22176, Note_on_c, 1, 66, 84
1, 22200, Note_on_c, 0, 69, 84
1, 22215, Note_on_c, 1, 66, 0
1, 22223, Note_on_c, 0, 69, 0
1, 22224, Note_on_c, 0, 74, 84
1, 22247, Note_on_c, 0, 74, 0
1, 22248, Note_on_c, 0, 69, 84
1, 22271, Note_on_c, 0, 69, 0
1, 22272, Note_on_c, 1, 65, 84
1, 22296, Note_on_c, 0, 69, 84
1, 22311, Note_on_c, 1, 65, 0
1, 22319, Note_on_c, 0, 69, 0
1, 22320, Note_on_c, 0, 75, 84
1, 22343, Note_on_c, 0, 75, 0
1, 22344, Note_on_c, 0, 69, 84
1, 22367, Note_on_c, 0, 69, 0
1, 22368, Note_on_c, 1, 64, 84
1, 22392, Note_on_c, 0, 69, 84
1, 22407, Note_on_c, 1, 64, 0
1, 22415, Note_on_c, 0, 69, 0
1, 22416, Note_on_c, 0, 76, 84
1, 22439, Note_on_c, 0, 76, 0
1, 22440, Note_on_c, 0, 69, 84
1, 22463, Note_on_c, 0, 69, 0
1, 22464, Note_on_c, 1, 63, 84
1, 22488, Note_on_c, 0, 69, 84
1, 22511, Note_on_c, 0, 69, 0
1, 22512, Note_on_c, 0, 78, 84
1, 22535, Note_on_c, 0, 78, 0
1, 22536, Note_on_c, 0, 69, 84
1, 22553, Note_on_c, 1, 63, 0
1, 22559, Note_on_c, 0, 69, 0
1, 22560, Note_on_c, 1, 72, 84
1, 22584, Note_on_c, 0, 69, 84
1, 22599, Note_on_c, 1, 72, 0
1, 22607, Note_on_c, 0, 69, 0
1, 22608, Note_on_c, 0, 78, 84
1, 22631, Note_on_c, 0, 78, 0
1, 22632, Note_on_c, 0, 69, 84
1, 22655, Note_on_c, 0, 69, 0
1, 22656, Note_on_c, 1, 63, 84
1, 22680, Note_on_c, 0, 69, 84
1, 22703, Note_on_c, 0, 69, 0
1, 22704, Note_on_c, 0, 78, 84
1, 22727, Note_on_c, 0, 78, 0
1, 22728, Note_on_c, 0, 69, 84
1, 22745, Note_on_c, 1, 63, 0
1, 22751, Note_on_c, 0, 69, 0
1, 22752, Note_on_c, 1, 64, 84
1, 22776, Note_on_c, 0, 69, 84
1, 22799, Note_on_c, 0, 69, 0
1, 22800, Note_on_c, 0, 76, 84
1, 22823, Note_on_c, 0, 76, 0
1, 22824, Note_on_c, 0, 69, 84
1, 22841, Note_on_c, 1, 64, 0
1, 22847, Note_on_c, 0, 69, 0
1, 22848, Note_on_c, 1, 72, 84
1, 22872, Note_on_c, 0, 69, 84
1, 22887, Note_on_c, 1, 72, 0
1, 22895, Note_on_c, 0, 69, 0
1, 22896, Note_on_c, 0, 76, 84
1, 22919, Note_on_c, 0, 76, 0
1, 22920, Note_on_c, 0, 69, 84
1, 22943, Note_on_c, 0, 69, 0
1, 22944, Note_on_c, 1, 64, 84
1, 22968, Note_on_c, 0, 69, 84
1, 22991, Note_on_c, 0, 69, 0
1, 22992, Note_on_c, 0, 76, 84
1, 23015, Note_on_c, 0, 76, 0
1, 23016, Note_on_c, 0, 69, 84
1, 23033, Note_on_c, 1, 64, 0
1, 23039, Note_on_c, 0, 69, 0
1, 23040, Note_on_c, 1, 65, 84
1, 23064, Note_on_c, 0, 69, 84
1, 23087, Note_on_c, 0, 69, 0
1, 23088, Note_on_c, 0, 75, 84
1, 23111, Note_on_c, 0, 75, 0
1, 23112, Note_on_c, 0, 69, 84
1, 23129, Note_on_c, 1, 65, 0
1, 23135, Note_on_c, 0, 69, 0
1, 23136, Note_on_c, 1, 72, 84
1, 23160, Note_on_c, 0, 69, 84
1, 23175, Note_on_c, 1, 72, 0
1, 23183, Note_on_c, 0, 69, 0
1, 23184, Note_on_c, 0, 75, 84
1, 23207, Note_on_c, 0, 75, 0
1, 23208, Note_on_c, 0, 69, 84
1, 23231, Note_on_c, 0, 69, 0
1, 23232, Note_on_c, 1, 65, 84
1, 23256, Note_on_c, 0, 69, 84
1, 23279, Note_on_c, 0, 69, 0
1, 23280, Note_on_c, 0, 75, 84
1, 23303, Note_on_c, 0, 75, 0
1, 23304, Note_on_c, 0, 69, 84
1, 23321, Note_on_c, 1, 65, 0
1, 23327, Note_on_c, 0, 69, 0
1, 23328, Note_on_c, 1, 64, 84
1, 23352, Note_on_c, 0, 68, 84
1, 23375, Note_on_c, 0, 68, 0
1, 23376, Note_on_c, 0, 76, 84
1, 23399, Note_on_c, 0, 76, 0
1, 23400, Note_on_c, 0, 68, 84
1, 23417, Note_on_c, 1, 64, 0
1, 23423, Note_on_c, 0, 68, 0
1, 23424, Note_on_c, 1, 62, 84
1, 23424, Note_on_c, 1, 50, 84
1, 23448, Note_on_c, 0, 68, 84
1, 23471, Note_on_c, 0, 68, 0
1, 23472, Note_on_c, 0, 80, 84
1, 23495, Note_on_c, 0, 80, 0
1, 23496, Note_on_c, 0, 68, 84
1, 23513, Note_on_c, 1, 62, 0
1, 23513, Note_on_c, 1, 50, 0
1, 23519, Note_on_c, 0, 68, 0
1, 23520, Note_on_c, 1, 61, 84
1, 23520, Note_on_c, 1, 49, 84
1, 23544, Note_on_c, 0, 69, 84
1, 23567, Note_on_c, 0, 69, 0
1, 23568, Note_on_c, 0, 81, 84
1, 23591, Note_on_c, 0, 81, 0
1, 23592, Note_on_c, 0, 69, 84
1, 23609, Note_on_c, 1, 61, 0
1, 23609, Note_on_c, 1, 49, 0
1, 23615, Note_on_c, 0, 69, 0
1, 23616, Note_on_c, 1, 59, 84
1, 23616, Note_on_c, 1, 47, 84
1, 23640, Note_on_c, 0, 74, 84
1, 23663, Note_on_c, 0, 74, 0
1, 23664, Note_on_c, 0, 86, 84
1, 23687, Note_on_c, 0, 86, 0
1, 23688, Note_on_c, 0, 74, 84
1, 23705, Note_on_c, 1, 59, 0
1, 23705, Note_on_c, 1, 47, 0
1, 23711, Note_on_c, 0, 74, 0
1, 23712, Note_on_c, 1, 56, 84
1, 23712, Note_on_c, 1, 44, 84
1, 23736, Note_on_c, 0, 71, 84
1, 23759, Note_on_c, 0, 71, 0
1, 23760, Note_on_c, 0, 83, 84
1, 23783, Note_on_c, 0, 83, 0
1, 23784, Note_on_c, 0, 71, 84
1, 23801, Note_on_c, 1, 56, 0
1, 23801, Note_on_c, 1, 44, 0
1, 23807, Note_on_c, 0, 71, 0
1, 23808, Note_on_c, 1, 57, 84
1, 23808, Note_on_c, 1, 45, 84
1, 23832, Note_on_c, 0, 73, 84
1, 23855, Note_on_c, 0, 73, 0
1, 23856, Note_on_c, 0, 85, 84
1, 23879, Note_on_c, 0, 85, 0
1, 23880, Note_on_c, 0, 73, 84
1, 23897, Note_on_c, 1, 57, 0
1, 23897, Note_on_c, 1, 45, 0
1, 23903, Note_on_c, 0, 73, 0
1, 23904, Note_on_c, 1, 62, 84
1, 23904, Note_on_c, 1, 50, 84
1, 23928, Note_on_c, 0, 66, 83
1, 23951, Note_on_c, 0, 66, 0
1, 23952, Note_on_c, 0, 65, 83
1, 23975, Note_on_c, 0, 65, 0
1, 23976, Note_on_c, 0, 66, 82
1, 23993, Note_on_c, 1, 62, 0
1, 23993, Note_on_c, 1, 50, 0
1, 23999, Note_on_c, 0, 66, 0
1, 24000, Note_on_c, 0, 71, 82
1, 24023, Note_on_c, 0, 71, 0
1, 24024, Note_on_c, 0, 66, 81
1, 24047, Note_on_c, 0, 66, 0
1, 24048, Note_on_c, 0, 65, 81
1, 24071, Note_on_c, 0, 65, 0
1, 24072, Note_on_c, 0, 66, 80
1, 24095, Note_on_c, 0, 66, 0
1, 24096, Note_on_c, 0, 74, 80
1, 24119, Note_on_c, 0, 74, 0
1, 24120, Note_on_c, 0, 66, 79
1, 24143, Note_on_c, 0, 66, 0
1, 24144, Note_on_c, 0, 65, 79
1, 24167, Note_on_c, 0, 65, 0
1, 24168, Note_on_c, 0, 66, 78
1, 24191, Note_on_c, 0, 66, 0
1, 24192, Note_on_c, 0, 76, 78
1, 24288, Note_on_c, 1, 61, 76
1, 24288, Note_on_c, 1, 52, 76
1, 24325, Note_on_c, 0, 76, 0
1, 24336, Note_on_c, 0, 73, 75
1, 24359, Note_on_c, 0, 73, 0
1, 24360, Note_on_c, 0, 69, 75
1, 24377, Note_on_c, 1, 61, 0
1, 24377, Note_on_c, 1, 52, 0
1, 24383, Note_on_c, 0, 69, 0
1, 24384, Note_on_c, 0, 74, 74
1, 24384, Note_on_c, 1, 59, 74
1, 24384, Note_on_c, 1, 52, 74
1, 24429, Note_on_c, 0, 74, 0
1, 24432, Note_on_c, 0, 71, 73
1, 24455, Note_on_c, 0, 71, 0
1, 24456, Note_on_c, 0, 68, 73
1, 24473, Note_on_c, 1, 59, 0
1, 24473, Note_on_c, 1, 52, 0
1, 24479, Note_on_c, 0, 68, 0
1, 24480, Note_on_c, 0, 69, 72
1, 24480, Note_on_c, 1, 57, 72
1, 24480, Note_on_c, 1, 45, 72
1, 24569, Note_on_c, 0, 69, 0
1, 24569, Note_on_c, 1, 57, 0
1, 24569, Note_on_c, 1, 45, 0
1, 24624, Note_on_c, 0, 66, 64
1, 24624, Note_on_c, 1, 61, 64
1, 24636, Note_on_c, 0, 66, 0
1, 24636, Note_on_c, 0, 64, 64
1, 24648, Note_on_c, 0, 64, 0
1, 24648, Note_on_c, 0, 62, 64
1, 24660, Note_on_c, 0, 62, 0
1, 24660, Note_on_c, 0, 64, 64
1, 24669, Note_on_c, 1, 61, 0
1, 24672, Note_on_c, 0, 64, 0
1, 24672, Note_on_c, 0, 66, 64
1, 24672, Note_on_c, 1, 62, 64
1, 24717, Note_on_c, 0, 66, 0
1, 24717, Note_on_c, 1, 62, 0
1, 24720, Note_on_c, 0, 62, 64
1, 24720, Note_on_c, 1, 59, 64
1, 24765, Note_on_c, 0, 62, 0
1, 24765, Note_on_c, 1, 59, 0
1, 24768, Note_on_c, 0, 64, 64
1, 24768, Note_on_c, 1, 61, 64
1, 24813, Note_on_c, 0, 64, 0
1, 24813, Note_on_c, 1, 61, 0
1, 24816, Note_on_c, 0, 61, 64
1, 24816, Note_on_c, 1, 57, 64
1, 24861, Note_on_c, 0, 61, 0
1, 24861, Note_on_c, 1, 57, 0
1, 24864, Note_on_c, 0, 62, 64
1, 24864, Note_on_c, 1, 59, 64
1, 24909, Note_on_c, 0, 62, 0
1, 24909, Note_on_c, 1, 59, 0
1, 24912, Note_on_c, 0, 59, 64
1, 24912, Note_on_c, 1, 52, 64
1, 24957, Note_on_c, 0, 59, 0
1, 24957, Note_on_c, 1, 52, 0
1, 24960, Note_on_c, 0, 61, 64
1, 24960, Note_on_c, 1, 57, 64
1, 25005, Note_on_c, 0, 61, 0
1, 25005, Note_on_c, 1, 57, 0
1, 25008, Note_on_c, 0, 71, 64
1, 25008, Note_on_c, 1, 61, 64
1, 25020, Note_on_c, 0, 71, 0
1, 25020, Note_on_c, 0, 69, 64
1, 25032, Note_on_c, 0, 69, 0
1, 25032, Note_on_c, 0, 67, 64
1, 25044, Note_on_c, 0, 67, 0
1, 25044, Note_on_c, 0, 69, 64
1, 25053, Note_on_c, 1, 61, 0
1, 25056, Note_on_c, 0, 69, 0
1, 25056, Note_on_c, 0, 71, 64
1, 25056, Note_on_c, 1, 62, 64
1, 25101, Note_on_c, 0, 71, 0
1, 25101, Note_on_c, 1, 62, 0
1, 25104, Note_on_c, 0, 68, 64
1, 25104, Note_on_c, 1, 59, 64
1, 25149, Note_on_c, 0, 68, 0
1, 25149, Note_on_c, 1, 59, 0
1, 25152, Note_on_c, 0, 69, 64
1, 25152, Note_on_c, 1, 61, 64
1, 25197, Note_on_c, 0, 69, 0
1, 25197, Note_on_c, 1, 61, 0
1, 25200, Note_on_c, 0, 74, 64
1, 25200, Note_on_c, 1, 64, 64
1, 25212, Note_on_c, 0, 74, 0
1, 25212, Note_on_c, 0, 73, 64
1, 25224, Note_on_c, 0, 73, 0
1, 25224, Note_on_c, 0, 71, 64
1, 25236, Note_on_c, 0, 71, 0
1, 25236, Note_on_c, 0, 73, 64
1, 25245, Note_on_c, 1, 64, 0
1, 25248, Note_on_c, 0, 73, 0
1, 25248, Note_on_c, 0, 74, 64
1, 25248, Note_on_c, 1, 66, 64
1, 25293, Note_on_c, 0, 74, 0
1, 25293, Note_on_c, 1, 66, 0
1, 25296, Note_on_c, 0, 71, 64
1, 25296, Note_on_c, 1, 62, 64
1, 25341, Note_on_c, 0, 71, 0
1, 25341, Note_on_c, 1, 62, 0
1, 25344, Note_on_c, 0, 73, 64
1, 25344, Note_on_c, 1, 64, 64
1, 25389, Note_on_c, 0, 73, 0
1, 25389, Note_on_c, 1, 64, 0
1, 25392, Note_on_c, 0, 76, 66
1, 25392, Note_on_c, 1, 61, 66
1, 25437, Note_on_c, 0, 76, 0
1, 25437, Note_on_c, 1, 61, 0
1, 25440, Note_on_c, 0, 78, 68
1, 25440, Note_on_c, 1, 62, 68
1, 25485, Note_on_c, 0, 78, 0
1, 25485, Note_on_c, 1, 62, 0
1, 25488, Note_on_c, 0, 86, 71
1, 25488, Note_on_c, 1, 71, 70
1, 25533, Note_on_c, 0, 86, 0
1, 25533, Note_on_c, 1, 71, 0
1, 25536, Note_on_c, 0, 76, 73
1, 25536, Note_on_c, 1, 61, 72
1, 25581, Note_on_c, 0, 76, 0
1, 25581, Note_on_c, 1, 61, 0
1, 25584, Note_on_c, 0, 85, 75
1, 25584, Note_on_c, 1, 69, 74
1, 25629, Note_on_c, 0, 85, 0
1, 25629, Note_on_c, 1, 69, 0
1, 25632, Note_on_c, 0, 74, 78
1, 25632, Note_on_c, 1, 59, 76
1, 25677, Note_on_c, 0, 74, 0
1, 25677, Note_on_c, 1, 59, 0
1, 25680, Note_on_c, 0, 83, 80
1, 25680, Note_on_c, 1, 68, 78
1, 25725, Note_on_c, 0, 83, 0
1, 25725, Note_on_c, 1, 68, 0
1, 25728, Note_on_c, 0, 85, 82
1, 25728, Note_on_c, 1, 57, 80
1, 25751, Note_on_c, 0, 85, 0
1, 25752, Note_on_c, 0, 88, 84
1, 25775, Note_on_c, 0, 88, 0
1, 25776, Note_on_c, 0, 85, 84
1, 25799, Note_on_c, 0, 85, 0
1, 25800, Note_on_c, 0, 81, 84
1, 25817, Note_on_c, 1, 57, 0
1, 25823, Note_on_c, 0, 81, 0
1, 25824, Note_on_c, 0, 81, 84
1, 25847, Note_on_c, 0, 81, 0
1, 25848, Note_on_c, 0, 85, 84
1, 25871, Note_on_c, 0, 85, 0
1, 25872, Note_on_c, 0, 81, 84
1, 25895, Note_on_c, 0, 81, 0
1, 25896, Note_on_c, 0, 76, 84
1, 25919, Note_on_c, 0, 76, 0
1, 25920, Note_on_c, 0, 76, 84
1, 25943, Note_on_c, 0, 76, 0
1, 25944, Note_on_c, 0, 81, 84
1, 25967, Note_on_c, 0, 81, 0
1, 25968, Note_on_c, 0, 76, 84
1, 25991, Note_on_c, 0, 76, 0
1, 25992, Note_on_c, 0, 73, 84
1, 26015, Note_on_c, 0, 73, 0
1, 26016, Note_on_c, 0, 73, 84
1, 26039, Note_on_c, 0, 73, 0
1, 26040, Note_on_c, 0, 76, 84
1, 26063, Note_on_c, 0, 76, 0
1, 26064, Note_on_c, 0, 73, 84
1, 26087, Note_on_c, 0, 73, 0
1, 26088, Note_on_c, 0, 69, 84
1, 26111, Note_on_c, 0, 69, 0
1, 26112, Note_on_c, 0, 69, 84
1, 26135, Note_on_c, 0, 69, 0
1, 26136, Note_on_c, 0, 73, 84
1, 26159, Note_on_c, 0, 73, 0
1, 26160, Note_on_c, 0, 69, 84
1, 26183, Note_on_c, 0, 69, 0
1, 26184, Note_on_c, 0, 64, 84
1, 26207, Note_on_c, 0, 64, 0
1, 26208, Note_on_c, 0, 63, 84
1, 26208, Note_on_c, 1, 51, 100
1, 26208, Note_on_c, 1, 39, 100
1, 26297, Note_on_c, 0, 63, 0
1, 26304, Note_on_c, 1, 51, 0
1, 26304, Note_on_c, 1, 39, 0
1, 26304, Note_on_c, 1, 63, 84
1, 26328, Note_on_c, 0, 69, 84
1, 26343, Note_on_c, 1, 63, 0
1, 26351, Note_on_c, 0, 69, 0
1, 26352, Note_on_c, 0, 72, 84
1, 26375, Note_on_c, 0, 72, 0
1, 26376, Note_on_c, 0, 69, 84
1, 26399, Note_on_c, 0, 69, 0
1, 26400, Note_on_c, 1, 69, 84
1, 26424, Note_on_c, 0, 69, 84
1, 26439, Note_on_c, 1, 69, 0
1, 26447, Note_on_c, 0, 69, 0
1, 26448, Note_on_c, 0, 72, 84
1, 26471, Note_on_c, 0, 72, 0
1, 26472, Note_on_c, 0, 69, 84
1, 26495, Note_on_c, 0, 69, 0
1, 26496, Note_on_c, 1, 52, 100
1, 26496, Note_on_c, 1, 40, 100
1, 26520, Note_on_c, 0, 69, 84
1, 26543, Note_on_c, 0, 69, 0
1, 26544, Note_on_c, 0, 72, 84
1, 26567, Note_on_c, 0, 72, 0
1, 26568, Note_on_c, 0, 69, 84
1, 26591, Note_on_c, 0, 69, 0
1, 26592, Note_on_c, 1, 52, 0
1, 26592, Note_on_c, 1, 40, 0
1, 26592, Note_on_c, 1, 64, 84
1, 26616, Note_on_c, 0, 69, 84
1, 26631, Note_on_c, 1, 64, 0
1, 26639, Note_on_c, 0, 69, 0
1, 26640, Note_on_c, 0, 72, 84
1, 26663, Note_on_c, 0, 72, 0
1, 26664, Note_on_c, 0, 69, 84
1, 26687, Note_on_c, 0, 69, 0
1, 26688, Note_on_c, 1, 69, 84
1, 26712, Note_on_c, 0, 69, 84
1, 26727, Note_on_c, 1, 69, 0
1, 26735, Note_on_c, 0, 69, 0
1, 26736, Note_on_c, 0, 72, 84
1, 26759, Note_on_c, 0, 72, 0
1, 26760, Note_on_c, 0, 69, 84
1, 26783, Note_on_c, 0, 69, 0
1, 26784, Note_on_c, 1, 53, 100
1, 26784, Note_on_c, 1, 41, 100
1, 26808, Note_on_c, 0, 69, 84
1, 26831, Note_on_c, 0, 69, 0
1, 26832, Note_on_c, 0, 72, 84
1, 26855, Note_on_c, 0, 72, 0
1, 26856, Note_on_c, 0, 69, 84
1, 26879, Note_on_c, 0, 69, 0
1, 26880, Note_on_c, 1, 53, 0
1, 26880, Note_on_c, 1, 41, 0
1, 26880, Note_on_c, 1, 65, 84
1, 26904, Note_on_c, 0, 69, 84
1, 26927, Note_on_c, 0, 69, 0
1, 26928, Note_on_c, 0, 81, 84
1, 26951, Note_on_c, 0, 81, 0
1, 26952, Note_on_c, 0, 69, 84
1, 26969, Note_on_c, 1, 65, 0
1, 26975, Note_on_c, 0, 69, 0
1, 26976, Note_on_c, 1, 65, 84
1, 27000, Note_on_c, 0, 69, 84
1, 27023, Note_on_c, 0, 69, 0
1, 27024, Note_on_c, 0, 79, 84
1, 27047, Note_on_c, 0, 79, 0
1, 27048, Note_on_c, 0, 69, 84
1, 27065, Note_on_c, 1, 65, 0
1, 27071, Note_on_c, 0, 69, 0
1, 27072, Note_on_c, 1, 65, 84
1, 27096, Note_on_c, 0, 69, 84
1, 27119, Note_on_c, 0, 69, 0
1, 27120, Note_on_c, 0, 77, 84
1, 27143, Note_on_c, 0, 77, 0
1, 27144, Note_on_c, 0, 69, 84
1, 27161, Note_on_c, 1, 65, 0
1, 27167, Note_on_c, 0, 69, 0
1, 27168, Note_on_c, 1, 65, 84
1, 27192, Note_on_c, 0, 69, 84
1, 27215, Note_on_c, 0, 69, 0
1, 27216, Note_on_c, 0, 76, 84
1, 27239, Note_on_c, 0, 76, 0
1, 27240, Note_on_c, 0, 69, 84
1, 27257, Note_on_c, 1, 65, 0
1, 27263, Note_on_c, 0, 69, 0
1, 27264, Note_on_c, 1, 65, 84
1, 27288, Note_on_c, 0, 69, 84
1, 27311, Note_on_c, 0, 69, 0
1, 27312, Note_on_c, 0, 75, 84
1, 27335, Note_on_c, 0, 75, 0
1, 27336, Note_on_c, 0, 69, 84
1, 27353, Note_on_c, 1, 65, 0
1, 27359, Note_on_c, 0, 69, 0
1, 27360, Note_on_c, 1, 64, 84
1, 27384, Note_on_c, 0, 68, 84
1, 27407, Note_on_c, 0, 68, 0
1, 27408, Note_on_c, 0, 76, 84
1, 27431, Note_on_c, 0, 76, 0
1, 27432, Note_on_c, 0, 68, 84
1, 27449, Note_on_c, 1, 64, 0
1, 27455, Note_on_c, 0, 68, 0
1, 27456, Note_on_c, 1, 68, 84
1, 27480, Note_on_c, 0, 71, 84
1, 27503, Note_on_c, 0, 71, 0
1, 27504, Note_on_c, 0, 74, 84
1, 27527, Note_on_c, 0, 74, 0
1, 27528, Note_on_c, 0, 71, 84
1, 27545, Note_on_c, 1, 68, 0
1, 27551, Note_on_c, 0, 71, 0
1, 27552, Note_on_c, 1, 69, 84
1, 27576, Note_on_c, 0, 69, 84
1, 27599, Note_on_c, 0, 69, 0
1, 27600, Note_on_c, 0, 73, 84
1, 27623, Note_on_c, 0, 73, 0
1, 27624, Note_on_c, 0, 69, 84
1, 27641, Note_on_c, 1, 69, 0
1, 27647, Note_on_c, 0, 69, 0
1, 27648, Note_on_c, 1, 62, 84
1, 27648, Note_on_c, 1, 50, 84
1, 27672, Note_on_c, 0, 71, 83
1, 27695, Note_on_c, 0, 71, 0
1, 27696, Note_on_c, 0, 74, 83
1, 27719, Note_on_c, 0, 74, 0
1, 27720, Note_on_c, 0, 71, 82
1, 27737, Note_on_c, 1, 62, 0
1, 27737, Note_on_c, 1, 50, 0
1, 27743, Note_on_c, 0, 71, 0
1, 27744, Note_on_c, 0, 69, 82
1, 27744, Note_on_c, 1, 61, 82
1, 27744, Note_on_c, 1, 52, 82
1, 27833, Note_on_c, 1, 61, 0
1, 27833, Note_on_c, 1, 52, 0
1, 27840, Note_on_c, 1, 59, 80
1, 27840, Note_on_c, 1, 52, 80
1, 27885, Note_on_c, 0, 69, 0
1, 27888, Note_on_c, 0, 68, 79
1, 27900, Note_on_c, 0, 68, 0
1, 27900, Note_on_c, 0, 69, 79
1, 27912, Note_on_c, 0, 69, 0
1, 27912, Note_on_c, 0, 68, 79
1, 27929, Note_on_c, 1, 59, 0
1, 27929, Note_on_c, 1, 52, 0
1, 27933, Note_on_c, 0, 68, 0
1, 27936, Note_on_c, 0, 69, 78
1, 27936, Note_on_c, 1, 49, 84
1, 27959, Note_on_c, 1, 49, 0
1, 27960, Note_on_c, 1, 57, 84
1, 27983, Note_on_c, 1, 57, 0
1, 27984, Note_on_c, 1, 56, 84
1, 28007, Note_on_c, 1, 56, 0
1, 28008, Note_on_c, 1, 57, 84
1, 28025, Note_on_c, 0, 69, 0
1, 28031, Note_on_c, 1, 57, 0
1, 28032, Note_on_c, 0, 81, 84
1, 28032, Note_on_c, 1, 49, 84
1, 28055, Note_on_c, 1, 49, 0
1, 28056, Note_on_c, 1, 57, 84
1, 28079, Note_on_c, 1, 57, 0
1, 28080, Note_on_c, 1, 56, 84
1, 28103, Note_on_c, 1, 56, 0
1, 28104, Note_on_c, 1, 57, 84
1, 28121, Note_on_c, 0, 81, 0
1, 28127, Note_on_c, 1, 57, 0
1, 28128, Note_on_c, 0, 80, 84
1, 28128, Note_on_c, 1, 49, 84
1, 28151, Note_on_c, 1, 49, 0
1, 28152, Note_on_c, 1, 57, 84
1, 28175, Note_on_c, 1, 57, 0
1, 28176, Note_on_c, 1, 56, 84
1, 28199, Note_on_c, 1, 56, 0
1, 28200, Note_on_c, 1, 57, 84
1, 28217, Note_on_c, 0, 80, 0
1, 28223, Note_on_c, 1, 57, 0
1, 28224, Note_on_c, 0, 80, 84
1, 28224, Note_on_c, 1, 50, 84
1, 28236, Note_on_c, 0, 80, 0
1, 28236, Note_on_c, 0, 78, 84
1, 28247, Note_on_c, 1, 50, 0
1, 28248, Note_on_c, 0, 78, 0
1, 28248, Note_on_c, 0, 77, 84
1, 28248, Note_on_c, 1, 57, 84
1, 28260, Note_on_c, 0, 77, 0
1, 28260, Note_on_c, 0, 78, 84
1, 28271, Note_on_c, 1, 57, 0
1, 28272, Note_on_c, 1, 56, 84
1, 28295, Note_on_c, 1, 56, 0
1, 28296, Note_on_c, 1, 57, 84
1, 28313, Note_on_c, 0, 78, 0
1, 28319, Note_on_c, 1, 57, 0
1, 28320, Note_on_c, 0, 76, 84
1, 28320, Note_on_c, 1, 50, 84
1, 28332, Note_on_c, 0, 76, 0
1, 28332, Note_on_c, 0, 74, 84
1, 28343, Note_on_c, 1, 50, 0
1, 28344, Note_on_c, 0, 74, 0
1, 28344, Note_on_c, 0, 73, 84
1, 28344, Note_on_c, 1, 59, 84
1, 28356, Note_on_c, 0, 73, 0
1, 28356, Note_on_c, 0, 74, 84
1, 28367, Note_on_c, 1, 59, 0
1, 28368, Note_on_c, 1, 58, 84
1, 28391, Note_on_c, 1, 58, 0
1, 28392, Note_on_c, 1, 59, 84
1, 28409, Note_on_c, 0, 74, 0
1, 28415, Note_on_c, 1, 59, 0
1, 28416, Note_on_c, 0, 73, 84
1, 28416, Note_on_c, 1, 50, 84
1, 28428, Note_on_c, 0, 73, 0
1, 28428, Note_on_c, 0, 71, 84
1, 28439, Note_on_c, 1, 50, 0
1, 28440, Note_on_c, 0, 71, 0
1, 28440, Note_on_c, 0, 69, 84
1, 28440, Note_on_c, 1, 59, 84
1, 28452, Note_on_c, 0, 69, 0
1, 28452, Note_on_c, 0, 71, 84
1, 28463, Note_on_c, 1, 59, 0
1, 28464, Note_on_c, 1, 58, 84
1, 28487, Note_on_c, 1, 58, 0
1, 28488, Note_on_c, 1, 59, 84
1, 28505, Note_on_c, 0, 71, 0
1, 28511, Note_on_c, 1, 59, 0
1, 28512, Note_on_c, 0, 64, 84
1, 28512, Note_on_c, 1, 52, 84
1, 28535, Note_on_c, 1, 52, 0
1, 28536, Note_on_c, 1, 61, 84
1, 28559, Note_on_c, 1, 61, 0
1, 28560, Note_on_c, 1, 57, 84
1, 28583, Note_on_c, 1, 57, 0
1, 28584, Note_on_c, 1, 61, 84
1, 28601, Note_on_c, 0, 64, 0
1, 28607, Note_on_c, 1, 61, 0
1, 28608, Note_on_c, 0, 73, 84
1, 28608, Note_on_c, 1, 52, 84
1, 28621, Note_on_c, 0, 73, 0
1, 28622, Note_on_c, 0, 71, 84
1, 28631, Note_on_c, 1, 52, 0
1, 28632, Note_on_c, 1, 62, 84
1, 28635, Note_on_c, 0, 71, 0
1, 28636, Note_on_c, 0, 73, 84
1, 28649, Note_on_c, 0, 73, 0
1, 28650, Note_on_c, 0, 71, 84
1, 28655, Note_on_c, 1, 62, 0
1, 28656, Note_on_c, 1, 59, 84
1, 28663, Note_on_c, 0, 71, 0
1, 28664, Note_on_c, 0, 73, 84
1, 28677, Note_on_c, 0, 73, 0
1, 28678, Note_on_c, 0, 71, 84
1, 28679, Note_on_c, 1, 59, 0
1, 28680, Note_on_c, 1, 62, 84
1, 28691, Note_on_c, 0, 71, 0
1, 28692, Note_on_c, 0, 73, 84
1, 28703, Note_on_c, 1, 62, 0
1, 28704, Note_on_c, 1, 52, 84
1, 28705, Note_on_c, 0, 73, 0
1, 28706, Note_on_c, 0, 71, 84
1, 28719, Note_on_c, 0, 71, 0
1, 28720, Note_on_c, 0, 73, 84
1, 28727, Note_on_c, 1, 52, 0
1, 28728, Note_on_c, 1, 62, 84
1, 28733, Note_on_c, 0, 73, 0
1, 28734, Note_on_c, 0, 71, 84
1, 28747, Note_on_c, 0, 71, 0
1, 28748, Note_on_c, 0, 73, 84
1, 28751, Note_on_c, 1, 62, 0
1, 28752, Note_on_c, 1, 59, 84
1, 28760, Note_on_c, 0, 73, 0
1, 28761, Note_on_c, 0, 71, 84
1, 28773, Note_on_c, 0, 71, 0
1, 28774, Note_on_c, 0, 69, 84
1, 28775, Note_on_c, 1, 59, 0
1, 28776, Note_on_c, 1, 62, 84
1, 28786, Note_on_c, 0, 69, 0
1, 28787, Note_on_c, 0, 71, 84
1, 28799, Note_on_c, 0, 71, 0
1, 28799, Note_on_c, 1, 62, 0
1, 28800, Note_on_c, 0, 69, 84
1, 28800, Note_on_c, 1, 61, 84
1, 28800, Note_on_c, 1, 57, 84
1, 28823, Note_on_c, 0, 69, 0
1, 28824, Note_on_c, 0, 76, 84
1, 28847, Note_on_c, 0, 76, 0
1, 28848, Note_on_c, 0, 73, 84
1, 28871, Note_on_c, 0, 73, 0
1, 28872, Note_on_c, 0, 69, 84
1, 28889, Note_on_c, 1, 61, 0
1, 28889, Note_on_c, 1, 57, 0
1, 28895, Note_on_c, 0, 69, 0
1, 28896, Note_on_c, 0, 64, 84
1, 28941, Note_on_c, 0, 64, 0
1, 28944, Note_on_c, 0, 61, 84
1, 28944, Note_on_c, 1, 57, 84
1, 28964, Note_on_c, 0, 61, 0
1, 28964, Note_on_c, 1, 57, 0
1, 28992, Note_on_c, 0, 59, 84
1, 28992, Note_on_c, 1, 56, 84
1, 29012, Note_on_c, 0, 59, 0
1, 29012, Note_on_c, 1, 56, 0
1, 29040, Note_on_c, 0, 62, 84
1, 29040, Note_on_c, 1, 52, 84
1, 29060, Note_on_c, 0, 62, 0
1, 29060, Note_on_c, 1, 52, 0
1, 29088, Note_on_c, 0, 61, 84
1, 29088, Note_on_c, 1, 57, 84
1, 29111, Note_on_c, 0, 61, 0
1, 29112, Note_on_c, 0, 64, 84
1, 29127, Note_on_c, 1, 57, 0
1, 29135, Note_on_c, 0, 64, 0
1, 29136, Note_on_c, 0, 69, 84
1, 29159, Note_on_c, 0, 69, 0
1, 29160, Note_on_c, 0, 73, 84
1, 29183, Note_on_c, 0, 73, 0
1, 29184, Note_on_c, 0, 76, 84
1, 29229, Note_on_c, 0, 76, 0
1, 29232, Note_on_c, 0, 61, 84
1, 29232, Note_on_c, 1, 57, 84
1, 29252, Note_on_c, 0, 61, 0
1, 29252, Note_on_c, 1, 57, 0
1, 29280, Note_on_c, 0, 62, 84
1, 29280, Note_on_c, 1, 59, 84
1, 29300, Note_on_c, 0, 62, 0
1, 29300, Note_on_c, 1, 59, 0
1, 29328, Note_on_c, 0, 68, 84
1, 29328, Note_on_c, 0, 62, 84
1, 29328, Note_on_c, 1, 59, 84
1, 29328, Note_on_c, 1, 52, 84
1, 29348, Note_on_c, 0, 68, 0
1, 29348, Note_on_c, 0, 62, 0
1, 29348, Note_on_c, 1, 59, 0
1, 29348, Note_on_c, 1, 52, 0
1, 29376, Note_on_c, 0, 69, 84
1, 29376, Note_on_c, 0, 61, 84
1, 29376, Note_on_c, 1, 57, 84
1, 29376, Note_on_c, 1, 45, 84
1, 29465, Note_on_c, 0, 69, 0
1, 29465, Note_on_c, 0, 61, 0
1, 29465, Note_on_c, 1, 57, 0
1, 29465, Note_on_c, 1, 45, 0
1, 29568, Note_on_c, 0, 76, 78
1, 29574, Note_on_c, 0, 76, 0
1, 29574, Note_on_c, 0, 76, 78
1, 29588, Note_on_c, 0, 76, 0
1, 29616, Note_on_c, 0, 78, 81
1, 29622, Note_on_c, 0, 78, 0
1, 29622, Note_on_c, 0, 76, 81
1, 29628, Note_on_c, 0, 76, 0
1, 29628, Note_on_c, 0, 74, 81
1, 29634, Note_on_c, 0, 74, 0
1, 29634, Note_on_c, 0, 76, 82
1, 29640, Note_on_c, 0, 76, 0
1, 29640, Note_on_c, 0, 81, 82
1, 29663, Note_on_c, 0, 81, 0
1, 29664, Note_on_c, 0, 79, 100
1, 29664, Note_on_c, 1, 57, 78
1, 29712, Note_on_c, 1, 61, 78
1, 29757, Note_on_c, 1, 61, 0
1, 29760, Note_on_c, 1, 64, 79
1, 29805, Note_on_c, 0, 79, 0
1, 29805, Note_on_c, 1, 64, 0
1, 29808, Note_on_c, 0, 76, 81
1, 29808, Note_on_c, 1, 61, 80
1, 29853, Note_on_c, 0, 76, 0
1, 29853, Note_on_c, 1, 61, 0
1, 29856, Note_on_c, 0, 78, 80
1, 29856, Note_on_c, 1, 62, 81
1, 29901, Note_on_c, 0, 78, 0
1, 29901, Note_on_c, 1, 62, 0
1, 29904, Note_on_c, 0, 74, 79
1, 29904, Note_on_c, 1, 66, 82
1, 29949, Note_on_c, 0, 74, 0
1, 29949, Note_on_c, 1, 66, 0
1, 29952, Note_on_c, 0, 73, 78
1, 29952, Note_on_c, 1, 67, 84
1, 29997, Note_on_c, 0, 73, 0
1, 30000, Note_on_c, 0, 69, 78
1, 30045, Note_on_c, 0, 69, 0
1, 30048, Note_on_c, 0, 76, 79
1, 30093, Note_on_c, 0, 76, 0
1, 30093, Note_on_c, 1, 67, 0
1, 30096, Note_on_c, 0, 73, 80
1, 30096, Note_on_c, 1, 64, 81
1, 30141, Note_on_c, 0, 73, 0
1, 30141, Note_on_c, 1, 64, 0
1, 30144, Note_on_c, 0, 74, 81
1, 30144, Note_on_c, 1, 66, 80
1, 30189, Note_on_c, 0, 74, 0
1, 30189, Note_on_c, 1, 66, 0
1, 30192, Note_on_c, 0, 78, 82
1, 30192, Note_on_c, 1, 62, 79
1, 30237, Note_on_c, 0, 78, 0
1, 30237, Note_on_c, 1, 62, 0
1, 30240, Note_on_c, 0, 79, 100
1, 30240, Note_on_c, 1, 61, 78
1, 30285, Note_on_c, 1, 61, 0
1, 30288, Note_on_c, 1, 57, 79
1, 30333, Note_on_c, 1, 57, 0
1, 30336, Note_on_c, 1, 64, 80
1, 30381, Note_on_c, 0, 79, 0
1, 30381, Note_on_c, 1, 64, 0
1, 30384, Note_on_c, 0, 76, 81
1, 30384, Note_on_c, 1, 61, 81
1, 30429, Note_on_c, 0, 76, 0
1, 30429, Note_on_c, 1, 61, 0
1, 30432, Note_on_c, 0, 78, 80
1, 30432, Note_on_c, 1, 62, 82
1, 30477, Note_on_c, 0, 78, 0
1, 30477, Note_on_c, 1, 62, 0
1, 30480, Note_on_c, 0, 74, 79
1, 30480, Note_on_c, 1, 66, 83
1, 30525, Note_on_c, 0, 74, 0
1, 30525, Note_on_c, 1, 66, 0
1, 30528, Note_on_c, 0, 73, 78
1, 30528, Note_on_c, 1, 67, 84
1, 30573, Note_on_c, 0, 73, 0
1, 30576, Note_on_c, 0, 69, 79
1, 30621, Note_on_c, 0, 69, 0
1, 30624, Note_on_c, 0, 76, 80
1, 30669, Note_on_c, 0, 76, 0
1, 30669, Note_on_c, 1, 67, 0
1, 30672, Note_on_c, 0, 73, 81
1, 30672, Note_on_c, 1, 64, 81
1, 30717, Note_on_c, 0, 73, 0
1, 30717, Note_on_c, 1, 64, 0
1, 30720, Note_on_c, 0, 74, 82
1, 30720, Note_on_c, 1, 66, 80
1, 30765, Note_on_c, 0, 74, 0
1, 30768, Note_on_c, 0, 86, 83
1, 30793, Note_on_c, 1, 57, 0
1, 30809, Note_on_c, 1, 66, 0
1, 30813, Note_on_c, 0, 86, 0
1, 30816, Note_on_c, 0, 84, 100
1, 30816, Note_on_c, 1, 62, 78
1, 30864, Note_on_c, 1, 66, 78
1, 30909, Note_on_c, 1, 66, 0
1, 30912, Note_on_c, 1, 69, 79
1, 30957, Note_on_c, 0, 84, 0
1, 30957, Note_on_c, 1, 69, 0
1, 30960, Note_on_c, 0, 81, 81
1, 30960, Note_on_c, 1, 66, 80
1, 31005, Note_on_c, 0, 81, 0
1, 31005, Note_on_c, 1, 66, 0
1, 31008, Note_on_c, 0, 83, 80
1, 31008, Note_on_c, 1, 67, 81
1, 31053, Note_on_c, 0, 83, 0
1, 31053, Note_on_c, 1, 67, 0
1, 31056, Note_on_c, 0, 79, 79
1, 31056, Note_on_c, 1, 71, 82
1, 31101, Note_on_c, 0, 79, 0
1, 31101, Note_on_c, 1, 71, 0
1, 31104, Note_on_c, 0, 78, 78
1, 31104, Note_on_c, 1, 72, 84
1, 31149, Note_on_c, 0, 78, 0
1, 31152, Note_on_c, 0, 74, 79
1, 31197, Note_on_c, 0, 74, 0
1, 31200, Note_on_c, 0, 81, 80
1, 31245, Note_on_c, 0, 81, 0
1, 31245, Note_on_c, 1, 72, 0
1, 31248, Note_on_c, 0, 78, 81
1, 31248, Note_on_c, 1, 69, 81
1, 31293, Note_on_c, 0, 78, 0
1, 31293, Note_on_c, 1, 69, 0
1, 31296, Note_on_c, 0, 79, 82
1, 31296, Note_on_c, 1, 71, 80
1, 31341, Note_on_c, 0, 79, 0
1, 31341, Note_on_c, 1, 71, 0
1, 31344, Note_on_c, 0, 83, 83
1, 31344, Note_on_c, 1, 67, 79
1, 31389, Note_on_c, 0, 83, 0
1, 31389, Note_on_c, 1, 67, 0
1, 31392, Note_on_c, 0, 84, 100
1, 31392, Note_on_c, 1, 66, 78
1, 31437, Note_on_c, 1, 66, 0
1, 31440, Note_on_c, 1, 62, 79
1, 31485, Note_on_c, 1, 62, 0
1, 31488, Note_on_c, 1, 69, 80
1, 31533, Note_on_c, 0, 84, 0
1, 31533, Note_on_c, 1, 69, 0
1, 31536, Note_on_c, 0, 81, 81
1, 31536, Note_on_c, 1, 66, 81
1, 31581, Note_on_c, 0, 81, 0
1, 31581, Note_on_c, 1, 66, 0
1, 31584, Note_on_c, 0, 83, 80
1, 31584, Note_on_c, 1, 67, 82
1, 31629, Note_on_c, 0, 83, 0
1, 31629, Note_on_c, 1, 67, 0
1, 31632, Note_on_c, 0, 79, 79
1, 31632, Note_on_c, 1, 71, 83
1, 31677, Note_on_c, 0, 79, 0
1, 31677, Note_on_c, 1, 71, 0
1, 31680, Note_on_c, 0, 78, 78
1, 31680, Note_on_c, 1, 72, 84
1, 31725, Note_on_c, 0, 78, 0
1, 31728, Note_on_c, 0, 74, 79
1, 31773, Note_on_c, 0, 74, 0
1, 31776, Note_on_c, 0, 81, 80
1, 31821, Note_on_c, 0, 81, 0
1, 31821, Note_on_c, 1, 72, 0
1, 31824, Note_on_c, 0, 78, 81
1, 31824, Note_on_c, 1, 69, 81
1, 31869, Note_on_c, 0, 78, 0
1, 31869, Note_on_c, 1, 69, 0
1, 31872, Note_on_c, 0, 79, 82
1, 31872, Note_on_c, 1, 71, 80
1, 31917, Note_on_c, 0, 79, 0
1, 31917, Note_on_c, 1, 71, 0
1, 31920, Note_on_c, 0, 83, 83
1, 31920, Note_on_c, 1, 67, 79
1, 31965, Note_on_c, 0, 83, 0
1, 31965, Note_on_c, 1, 67, 0
1, 31968, Note_on_c, 0, 72, 84
1, 31968, Note_on_c, 1, 69, 78
1, 32013, Note_on_c, 0, 72, 0
1, 32013, Note_on_c, 1, 69, 0
1, 32016, Note_on_c, 0, 81, 83
1, 32016, Note_on_c, 1, 66, 78
1, 32061, Note_on_c, 0, 81, 0
1, 32061, Note_on_c, 1, 66, 0
1, 32064, Note_on_c, 0, 71, 82
1, 32064, Note_on_c, 1, 67, 78
1, 32109, Note_on_c, 0, 71, 0
1, 32112, Note_on_c, 0, 79, 81
1, 32145, Note_on_c, 1, 62, 0
1, 32153, Note_on_c, 1, 67, 0
1, 32157, Note_on_c, 0, 79, 0
1, 32160, Note_on_c, 0, 69, 80
1, 32160, Note_on_c, 1, 72, 78
1, 32160, Note_on_c, 1, 63, 78
1, 32205, Note_on_c, 0, 69, 0
1, 32208, Note_on_c, 0, 78, 79
1, 32249, Note_on_c, 1, 72, 0
1, 32249, Note_on_c, 1, 63, 0
1, 32253, Note_on_c, 0, 78, 0
1, 32256, Note_on_c, 0, 67, 78
1, 32256, Note_on_c, 1, 71, 78
1, 32256, Note_on_c, 1, 64, 78
1, 32304, Note_on_c, 0, 67, 0
1, 32304, Note_on_c, 0, 79, 78
1, 32304, Note_on_c, 0, 76, 78
1, 32345, Note_on_c, 1, 71, 0
1, 32349, Note_on_c, 0, 79, 0
1, 32349, Note_on_c, 0, 76, 0
1, 32352, Note_on_c, 0, 79, 78
1, 32352, Note_on_c, 0, 76, 78
1, 32397, Note_on_c, 0, 79, 0
1, 32397, Note_on_c, 0, 76, 0
1, 32400, Note_on_c, 0, 78, 78
1, 32400, Note_on_c, 0, 74, 78
1, 32445, Note_on_c, 0, 78, 0
1, 32445, Note_on_c, 0, 74, 0
1, 32448, Note_on_c, 0, 76, 78
1, 32448, Note_on_c, 0, 73, 78
1, 32493, Note_on_c, 0, 76, 0
1, 32493, Note_on_c, 0, 73, 0
1, 32496, Note_on_c, 0, 74, 78
1, 32496, Note_on_c, 0, 71, 78
1, 32541, Note_on_c, 0, 74, 0
1, 32541, Note_on_c, 0, 71, 0
1, 32544, Note_on_c, 0, 73, 78
1, 32544, Note_on_c, 0, 70, 78
1, 32589, Note_on_c, 1, 64, 0
1, 32592, Note_on_c, 1, 67, 78
1, 32633, Note_on_c, 0, 73, 0
1, 32633, Note_on_c, 0, 70, 0
1, 32637, Note_on_c, 1, 67, 0
1, 32640, Note_on_c, 0, 74, 80
1, 32640, Note_on_c, 0, 71, 80
1, 32640, Note_on_c, 1, 62, 78
1, 32685, Note_on_c, 1, 62, 0
1, 32688, Note_on_c, 1, 66, 78
1, 32729, Note_on_c, 0, 74, 0
1, 32729, Note_on_c, 0, 71, 0
1, 32733, Note_on_c, 1, 66, 0
1, 32736, Note_on_c, 0, 76, 82
1, 32736, Note_on_c, 0, 73, 82
1, 32736, Note_on_c, 1, 61, 78
1, 32781, Note_on_c, 1, 61, 0
1, 32784, Note_on_c, 1, 70, 78
1, 32825, Note_on_c, 0, 76, 0
1, 32825, Note_on_c, 0, 73, 0
1, 32829, Note_on_c, 1, 70, 0
1, 32832, Note_on_c, 1, 59, 100
1, 32856, Note_on_c, 0, 71, 84
1, 32871, Note_on_c, 1, 59, 0
1, 32879, Note_on_c, 0, 71, 0
1, 32880, Note_on_c, 0, 74, 84
1, 32903, Note_on_c, 0, 74, 0
1, 32904, Note_on_c, 0, 71, 84
1, 32927, Note_on_c, 0, 71, 0
1, 32928, Note_on_c, 1, 71, 84
1, 32952, Note_on_c, 0, 71, 84
1, 32967, Note_on_c, 1, 71, 0
1, 32975, Note_on_c, 0, 71, 0
1, 32976, Note_on_c, 0, 74, 84
1, 32999, Note_on_c, 0, 74, 0
1, 33000, Note_on_c, 0, 71, 84
1, 33023, Note_on_c, 0, 71, 0
1, 33024, Note_on_c, 1, 69, 84
1, 33048, Note_on_c, 0, 71, 84
1, 33063, Note_on_c, 1, 69, 0
1, 33071, Note_on_c, 0, 71, 0
1, 33072, Note_on_c, 0, 74, 84
1, 33095, Note_on_c, 0, 74, 0
1, 33096, Note_on_c, 0, 71, 84
1, 33119, Note_on_c, 0, 71, 0
1, 33120, Note_on_c, 1, 55, 100
1, 33144, Note_on_c, 0, 71, 84
1, 33167, Note_on_c, 0, 71, 0
1, 33168, Note_on_c, 0, 83, 84
1, 33191, Note_on_c, 0, 83, 0
1, 33192, Note_on_c, 0, 71, 84
1, 33215, Note_on_c, 0, 71, 0
1, 33216, Note_on_c, 1, 55, 0
1, 33216, Note_on_c, 1, 67, 84
1, 33240, Note_on_c, 0, 71, 84
1, 33255, Note_on_c, 1, 67, 0
1, 33263, Note_on_c, 0, 71, 0
1, 33264, Note_on_c, 0, 83, 84
1, 33287, Note_on_c, 0, 83, 0
1, 33288, Note_on_c, 0, 71, 84
1, 33311, Note_on_c, 0, 71, 0
1, 33312, Note_on_c, 1, 66, 84
1, 33336, Note_on_c, 0, 71, 84
1, 33351, Note_on_c, 1, 66, 0
1, 33359, Note_on_c, 0, 71, 0
1, 33360, Note_on_c, 0, 81, 84
1, 33383, Note_on_c, 0, 81, 0
1, 33384, Note_on_c, 0, 71, 84
1, 33407, Note_on_c, 0, 71, 0
1, 33408, Note_on_c, 1, 52, 100
1, 33432, Note_on_c, 0, 71, 84
1, 33455, Note_on_c, 0, 71, 0
1, 33456, Note_on_c, 0, 79, 84
1, 33479, Note_on_c, 0, 79, 0
1, 33480, Note_on_c, 0, 71, 84
1, 33503, Note_on_c, 0, 71, 0
1, 33504, Note_on_c, 1, 52, 0
1, 33504, Note_on_c, 1, 64, 84
1, 33528, Note_on_c, 0, 71, 84
1, 33543, Note_on_c, 1, 64, 0
1, 33551, Note_on_c, 0, 71, 0
1, 33552, Note_on_c, 0, 79, 84
1, 33575, Note_on_c, 0, 79, 0
1, 33576, Note_on_c, 0, 71, 84
1, 33599, Note_on_c, 0, 71, 0
1, 33600, Note_on_c, 1, 62, 84
1, 33624, Note_on_c, 0, 71, 84
1, 33639, Note_on_c, 1, 62, 0
1, 33647, Note_on_c, 0, 71, 0
1, 33648, Note_on_c, 0, 78, 84
1, 33671, Note_on_c, 0, 78, 0
1, 33672, Note_on_c, 0, 71, 84
1, 33695, Note_on_c, 0, 71, 0
1, 33696, Note_on_c, 1, 61, 100
1, 33720, Note_on_c, 0, 71, 84
1, 33743, Note_on_c, 0, 71, 0
1, 33744, Note_on_c, 0, 77, 84
1, 33767, Note_on_c, 0, 77, 0
1, 33768, Note_on_c, 0, 71, 84
1, 33791, Note_on_c, 0, 71, 0
1, 33792, Note_on_c, 1, 61, 0
1, 33792, Note_on_c, 1, 68, 84
1, 33816, Note_on_c, 0, 71, 84
1, 33831, Note_on_c, 1, 68, 0
1, 33839, Note_on_c, 0, 71, 0
1, 33840, Note_on_c, 0, 77, 84
1, 33863, Note_on_c, 0, 77, 0
1, 33864, Note_on_c, 0, 71, 84
1, 33887, Note_on_c, 0, 71, 0
1, 33888, Note_on_c, 1, 71, 84
1, 33912, Note_on_c, 0, 71, 84
1, 33927, Note_on_c, 1, 71, 0
1, 33935, Note_on_c, 0, 71, 0
1, 33936, Note_on_c, 0, 77, 84
1, 33959, Note_on_c, 0, 77, 0
1, 33960, Note_on_c, 0, 71, 84
1, 33983, Note_on_c, 0, 71, 0
1, 33984, Note_on_c, 1, 54, 100
1, 34008, Note_on_c, 0, 70, 84
1, 34031, Note_on_c, 0, 70, 0
1, 34032, Note_on_c, 0, 76, 84
1, 34055, Note_on_c, 0, 76, 0
1, 34056, Note_on_c, 0, 70, 84
1, 34079, Note_on_c, 0, 70, 0
1, 34080, Note_on_c, 1, 54, 0
1, 34080, Note_on_c, 1, 66, 84
1, 34104, Note_on_c, 0, 70, 84
1, 34119, Note_on_c, 1, 66, 0
1, 34127, Note_on_c, 0, 70, 0
1, 34128, Note_on_c, 0, 76, 84
1, 34151, Note_on_c, 0, 76, 0
1, 34152, Note_on_c, 0, 70, 84
1, 34175, Note_on_c, 0, 70, 0
1, 34176, Note_on_c, 1, 70, 84
1, 34200, Note_on_c, 0, 73, 84
1, 34215, Note_on_c, 1, 70, 0
1, 34223, Note_on_c, 0, 73, 0
1, 34224, Note_on_c, 0, 76, 84
1, 34247, Note_on_c, 0, 76, 0
1, 34248, Note_on_c, 0, 73, 84
1, 34271, Note_on_c, 0, 73, 0
1, 34272, Note_on_c, 1, 59, 84
1, 34296, Note_on_c, 0, 71, 84
1, 34311, Note_on_c, 1, 59, 0
1, 34319, Note_on_c, 0, 71, 0
1, 34320, Note_on_c, 0, 74, 84
1, 34343, Note_on_c, 0, 74, 0
1, 34344, Note_on_c, 0, 71, 84
1, 34367, Note_on_c, 0, 71, 0
1, 34368, Note_on_c, 1, 62, 84
1, 34392, Note_on_c, 0, 71, 84
1, 34407, Note_on_c, 1, 62, 0
1, 34415, Note_on_c, 0, 71, 0
1, 34416, Note_on_c, 0, 74, 84
1, 34439, Note_on_c, 0, 74, 0
1, 34440, Note_on_c, 0, 71, 84
1, 34463, Note_on_c, 0, 71, 0
1, 34464, Note_on_c, 1, 66, 84
1, 34488, Note_on_c, 0, 71, 84
1, 34503, Note_on_c, 1, 66, 0
1, 34511, Note_on_c, 0, 71, 0
1, 34512, Note_on_c, 0, 74, 84
1, 34535, Note_on_c, 0, 74, 0
1, 34536, Note_on_c, 0, 71, 84
1, 34559, Note_on_c, 0, 71, 0
1, 34560, Note_on_c, 1, 59, 84
1, 34584, Note_on_c, 0, 67, 84
1, 34599, Note_on_c, 1, 59, 0
1, 34607, Note_on_c, 0, 67, 0
1, 34608, Note_on_c, 0, 74, 84
1, 34631, Note_on_c, 0, 74, 0
1, 34632, Note_on_c, 0, 67, 84
1, 34655, Note_on_c, 0, 67, 0
1, 34656, Note_on_c, 1, 62, 84
1, 34680, Note_on_c, 0, 67, 84
1, 34695, Note_on_c, 1, 62, 0
1, 34703, Note_on_c, 0, 67, 0
1, 34704, Note_on_c, 0, 74, 84
1, 34727, Note_on_c, 0, 74, 0
1, 34728, Note_on_c, 0, 67, 84
1, 34751, Note_on_c, 0, 67, 0
1, 34752, Note_on_c, 1, 71, 84
1, 34776, Note_on_c, 0, 67, 84
1, 34791, Note_on_c, 1, 71, 0
1, 34799, Note_on_c, 0, 67, 0
1, 34800, Note_on_c, 0, 74, 84
1, 34823, Note_on_c, 0, 74, 0
1, 34824, Note_on_c, 0, 67, 84
1, 34847, Note_on_c, 0, 67, 0
1, 34848, Note_on_c, 1, 57, 84
1, 34872, Note_on_c, 0, 67, 84
1, 34887, Note_on_c, 1, 57, 0
1, 34895, Note_on_c, 0, 67, 0
1, 34896, Note_on_c, 0, 72, 84
1, 34919, Note_on_c, 0, 72, 0
1, 34920, Note_on_c, 0, 67, 84
1, 34943, Note_on_c, 0, 67, 0
1, 34944, Note_on_c, 1, 64, 84
1, 34968, Note_on_c, 0, 67, 84
1, 34983, Note_on_c, 1, 64, 0
1, 34991, Note_on_c, 0, 67, 0
1, 34992, Note_on_c, 0, 72, 84
1, 35015, Note_on_c, 0, 72, 0
1, 35016, Note_on_c, 0, 67, 84
1, 35039, Note_on_c, 0, 67, 0
1, 35040, Note_on_c, 1, 69, 84
1, 35064, Note_on_c, 0, 67, 84
1, 35079, Note_on_c, 1, 69, 0
1, 35087, Note_on_c, 0, 67, 0
1, 35088, Note_on_c, 0, 72, 84
1, 35111, Note_on_c, 0, 72, 0
1, 35112, Note_on_c, 0, 67, 84
1, 35135, Note_on_c, 0, 67, 0
1, 35136, Note_on_c, 1, 50, 100
1, 35160, Note_on_c, 0, 66, 84
1, 35183, Note_on_c, 0, 66, 0
1, 35184, Note_on_c, 0, 72, 84
1, 35207, Note_on_c, 0, 72, 0
1, 35208, Note_on_c, 0, 66, 84
1, 35231, Note_on_c, 0, 66, 0
1, 35232, Note_on_c, 1, 50, 0
1, 35232, Note_on_c, 1, 62, 84
1, 35256, Note_on_c, 0, 66, 84
1, 35271, Note_on_c, 1, 62, 0
1, 35279, Note_on_c, 0, 66, 0
1, 35280, Note_on_c, 0, 72, 84
1, 35303, Note_on_c, 0, 72, 0
1, 35304, Note_on_c, 0, 66, 84
1, 35327, Note_on_c, 0, 66, 0
1, 35328, Note_on_c, 1, 66, 84
1, 35352, Note_on_c, 0, 69, 84
1, 35367, Note_on_c, 1, 66, 0
1, 35375, Note_on_c, 0, 69, 0
1, 35376, Note_on_c, 0, 72, 84
1, 35399, Note_on_c, 0, 72, 0
1, 35400, Note_on_c, 0, 69, 84
1, 35423, Note_on_c, 0, 69, 0
1, 35424, Note_on_c, 1, 55, 100
1, 35448, Note_on_c, 0, 67, 84
1, 35471, Note_on_c, 0, 67, 0
1, 35472, Note_on_c, 0, 71, 84
1, 35495, Note_on_c, 0, 71, 0
1, 35496, Note_on_c, 0, 67, 84
1, 35519, Note_on_c, 0, 67, 0
1, 35520, Note_on_c, 1, 55, 0
1, 35520, Note_on_c, 1, 67, 84
1, 35544, Note_on_c, 0, 67, 84
1, 35559, Note_on_c, 1, 67, 0
1, 35567, Note_on_c, 0, 67, 0
1, 35568, Note_on_c, 0, 71, 84
1, 35591, Note_on_c, 0, 71, 0
1, 35592, Note_on_c, 0, 67, 84
1, 35615, Note_on_c, 0, 67, 0
1, 35616, Note_on_c, 1, 66, 84
1, 35640, Note_on_c, 0, 67, 84
1, 35655, Note_on_c, 1, 66, 0
1, 35663, Note_on_c, 0, 67, 0
1, 35664, Note_on_c, 0, 71, 84
1, 35687, Note_on_c, 0, 71, 0
1, 35688, Note_on_c, 0, 67, 84
1, 35711, Note_on_c, 0, 67, 0
1, 35712, Note_on_c, 1, 52, 100
1, 35736, Note_on_c, 0, 67, 84
1, 35759, Note_on_c, 0, 67, 0
1, 35760, Note_on_c, 0, 71, 84
1, 35783, Note_on_c, 0, 71, 0
1, 35784, Note_on_c, 0, 67, 84
1, 35807, Note_on_c, 0, 67, 0
1, 35808, Note_on_c, 1, 52, 0
1, 35808, Note_on_c, 1, 64, 84
1, 35832, Note_on_c, 0, 67, 84
1, 35855, Note_on_c, 0, 67, 0
1, 35856, Note_on_c, 0, 71, 84
1, 35879, Note_on_c, 0, 71, 0
1, 35880, Note_on_c, 0, 67, 84
1, 35902, Note_on_c, 1, 64, 0
1, 35903, Note_on_c, 0, 67, 0
1, 35904, Note_on_c, 1, 62, 84
1, 35928, Note_on_c, 0, 67, 84
1, 35951, Note_on_c, 0, 67, 0
1, 35952, Note_on_c, 0, 71, 84
1, 35975, Note_on_c, 0, 71, 0
1, 35976, Note_on_c, 0, 67, 84
1, 35998, Note_on_c, 1, 62, 0
1, 35999, Note_on_c, 0, 67, 0
1, 36000, Note_on_c, 1, 61, 84
1, 36000, Note_on_c, 1, 49, 84
1, 36024, Note_on_c, 0, 67, 84
1, 36047, Note_on_c, 0, 67, 0
1, 36048, Note_on_c, 0, 70, 84
1, 36071, Note_on_c, 0, 70, 0
1, 36072, Note_on_c, 0, 67, 84
1, 36089, Note_on_c, 1, 61, 0
1, 36089, Note_on_c, 1, 49, 0
1, 36095, Note_on_c, 0, 67, 0
1, 36096, Note_on_c, 1, 62, 84
1, 36096, Note_on_c, 1, 50, 84
1, 36120, Note_on_c, 0, 66, 85
1, 36143, Note_on_c, 0, 66, 0
1, 36144, Note_on_c, 0, 71, 85
1, 36167, Note_on_c, 0, 71, 0
1, 36168, Note_on_c, 0, 66, 85
1, 36185, Note_on_c, 1, 62, 0
1, 36185, Note_on_c, 1, 50, 0
1, 36191, Note_on_c, 0, 66, 0
1, 36192, Note_on_c, 1, 58, 85
1, 36192, Note_on_c, 1, 46, 85
1, 36216, Note_on_c, 0, 64, 86
1, 36239, Note_on_c, 0, 64, 0
1, 36240, Note_on_c, 0, 73, 86
1, 36263, Note_on_c, 0, 73, 0
1, 36264, Note_on_c, 0, 64, 86
1, 36281, Note_on_c, 1, 58, 0
1, 36281, Note_on_c, 1, 46, 0
1, 36287, Note_on_c, 0, 64, 0
1, 36288, Note_on_c, 1, 59, 86
1, 36288, Note_on_c, 1, 47, 86
1, 36312, Note_on_c, 0, 62, 87
1, 36335, Note_on_c, 0, 62, 0
1, 36336, Note_on_c, 0, 74, 87
1, 36359, Note_on_c, 0, 74, 0
1, 36360, Note_on_c, 0, 62, 87
1, 36377, Note_on_c, 1, 59, 0
1, 36377, Note_on_c, 1, 47, 0
1, 36383, Note_on_c, 0, 62, 0
1, 36384, Note_on_c, 1, 55, 87
1, 36384, Note_on_c, 1, 43, 87
1, 36408, Note_on_c, 0, 62, 88
1, 36431, Note_on_c, 0, 62, 0
1, 36432, Note_on_c, 0, 71, 88
1, 36455, Note_on_c, 0, 71, 0
1, 36456, Note_on_c, 0, 62, 88
1, 36473, Note_on_c, 1, 55, 0
1, 36473, Note_on_c, 1, 43, 0
1, 36479, Note_on_c, 0, 62, 0
1, 36480, Note_on_c, 1, 53, 88
1, 36480, Note_on_c, 1, 41, 88
1, 36504, Note_on_c, 0, 62, 89
1, 36527, Note_on_c, 0, 62, 0
1, 36528, Note_on_c, 0, 71, 89
1, 36551, Note_on_c, 0, 71, 0
1, 36552, Note_on_c, 0, 62, 89
1, 36569, Note_on_c, 1, 53, 0
1, 36569, Note_on_c, 1, 41, 0
1, 36575, Note_on_c, 0, 62, 0
1, 36576, Note_on_c, 0, 70, 89
1, 36576, Note_on_c, 1, 54, 89
1, 36576, Note_on_c, 1, 42, 89
1, 36599, Note_on_c, 0, 70, 0
1, 36600, Note_on_c, 0, 73, 89
1, 36623, Note_on_c, 0, 73, 0
1, 36624, Note_on_c, 0, 70, 89
1, 36647, Note_on_c, 0, 70, 0
1, 36648, Note_on_c, 0, 66, 89
1, 36665, Note_on_c, 1, 54, 0
1, 36665, Note_on_c, 1, 42, 0
1, 36671, Note_on_c, 0, 66, 0
1, 36672, Note_on_c, 0, 66, 89
1, 36695, Note_on_c, 0, 66, 0
1, 36696, Note_on_c, 0, 70, 89
1, 36719, Note_on_c, 0, 70, 0
1, 36720, Note_on_c, 0, 66, 89
1, 36743, Note_on_c, 0, 66, 0
1, 36744, Note_on_c, 0, 61, 89
1, 36767, Note_on_c, 0, 61, 0
1, 36768, Note_on_c, 0, 61, 89
1, 36791, Note_on_c, 0, 61, 0
1, 36792, Note_on_c, 0, 66, 89
1, 36815, Note_on_c, 0, 66, 0
1, 36816, Note_on_c, 0, 61, 89
1, 36839, Note_on_c, 0, 61, 0
1, 36840, Note_on_c, 0, 58, 89
1, 36863, Note_on_c, 0, 58, 0
1, 36864, Note_on_c, 1, 42, 89
1, 36953, Note_on_c, 1, 42, 0
1, 37152, Note_on_c, 0, 76, 64
1, 37152, Note_on_c, 0, 70, 64
1, 37200, Note_on_c, 1, 42, 64
1, 37245, Note_on_c, 1, 42, 0
1, 37248, Note_on_c, 1, 54, 64
1, 37285, Note_on_c, 0, 76, 0
1, 37285, Note_on_c, 0, 70, 0
1, 37293, Note_on_c, 1, 54, 0
1, 37296, Note_on_c, 0, 73, 65
1, 37296, Note_on_c, 1, 58, 65
1, 37341, Note_on_c, 0, 73, 0
1, 37341, Note_on_c, 1, 58, 0
1, 37344, Note_on_c, 0, 74, 65
1, 37344, Note_on_c, 1, 59, 65
1, 37389, Note_on_c, 0, 74, 0
1, 37392, Note_on_c, 0, 71, 66
1, 37433, Note_on_c, 1, 59, 0
1, 37437, Note_on_c, 0, 71, 0
1, 37440, Note_on_c, 0, 70, 66
1, 37440, Note_on_c, 0, 64, 66
1, 37488, Note_on_c, 1, 42, 67
1, 37533, Note_on_c, 1, 42, 0
1, 37536, Note_on_c, 1, 54, 67
1, 37573, Note_on_c, 0, 70, 0
1, 37581, Note_on_c, 1, 54, 0
1, 37584, Note_on_c, 0, 73, 67
1, 37584, Note_on_c, 1, 58, 68
1, 37617, Note_on_c, 0, 64, 0
1, 37629, Note_on_c, 0, 73, 0
1, 37629, Note_on_c, 1, 58, 0
1, 37632, Note_on_c, 0, 71, 68
1, 37632, Note_on_c, 0, 62, 68
1, 37632, Note_on_c, 1, 59, 68
1, 37677, Note_on_c, 0, 71, 0
1, 37680, Note_on_c, 0, 66, 68
1, 37721, Note_on_c, 0, 62, 0
1, 37721, Note_on_c, 1, 59, 0
1, 37725, Note_on_c, 0, 66, 0
1, 37728, Note_on_c, 0, 76, 69
1, 37728, Note_on_c, 0, 70, 69
1, 37776, Note_on_c, 1, 42, 69
1, 37821, Note_on_c, 1, 42, 0
1, 37824, Note_on_c, 1, 54, 70
1, 37861, Note_on_c, 0, 76, 0
1, 37861, Note_on_c, 0, 70, 0
1, 37869, Note_on_c, 1, 54, 0
1, 37872, Note_on_c, 0, 73, 70
1, 37872, Note_on_c, 0, 73, 70
1, 37872, Note_on_c, 1, 58, 70
1, 37917, Note_on_c, 0, 73, 0
1, 37917, Note_on_c, 0, 73, 0
1, 37917, Note_on_c, 1, 58, 0
1, 37920, Note_on_c, 0, 74, 70
1, 37920, Note_on_c, 0, 74, 70
1, 37920, Note_on_c, 1, 59, 71
1, 37965, Note_on_c, 0, 74, 0
1, 37965, Note_on_c, 1, 59, 0
1, 37968, Note_on_c, 0, 78, 71
1, 37968, Note_on_c, 1, 62, 71
1, 38013, Note_on_c, 0, 78, 0
1, 38013, Note_on_c, 1, 62, 0
1, 38016, Note_on_c, 0, 79, 71
1, 38064, Note_on_c, 1, 52, 72
1, 38109, Note_on_c, 1, 52, 0
1, 38112, Note_on_c, 1, 64, 72
1, 38149, Note_on_c, 0, 74, 0
1, 38157, Note_on_c, 1, 64, 0
1, 38160, Note_on_c, 0, 71, 73
1, 38160, Note_on_c, 1, 67, 73
1, 38205, Note_on_c, 0, 71, 0
1, 38205, Note_on_c, 1, 67, 0
1, 38208, Note_on_c, 0, 73, 73
1, 38208, Note_on_c, 1, 69, 73
1, 38253, Note_on_c, 0, 79, 0
1, 38256, Note_on_c, 0, 81, 74
1, 38297, Note_on_c, 1, 69, 0
1, 38301, Note_on_c, 0, 81, 0
1, 38304, Note_on_c, 0, 78, 74
1, 38352, Note_on_c, 1, 50, 75
1, 38397, Note_on_c, 1, 50, 0
1, 38400, Note_on_c, 1, 62, 75
1, 38437, Note_on_c, 0, 73, 0
1, 38445, Note_on_c, 1, 62, 0
1, 38448, Note_on_c, 0, 69, 75
1, 38448, Note_on_c, 1, 66, 76
1, 38493, Note_on_c, 0, 69, 0
1, 38493, Note_on_c, 1, 66, 0
1, 38496, Note_on_c, 0, 71, 76
1, 38496, Note_on_c, 1, 67, 76
1, 38541, Note_on_c, 0, 78, 0
1, 38544, Note_on_c, 0, 79, 76
1, 38585, Note_on_c, 1, 67, 0
1, 38589, Note_on_c, 0, 79, 0
1, 38592, Note_on_c, 0, 76, 77
1, 38640, Note_on_c, 1, 49, 77
1, 38685, Note_on_c, 1, 49, 0
1, 38688, Note_on_c, 1, 61, 78
1, 38725, Note_on_c, 0, 71, 0
1, 38733, Note_on_c, 1, 61, 0
1, 38736, Note_on_c, 0, 68, 78
1, 38736, Note_on_c, 1, 64, 78
1, 38781, Note_on_c, 0, 68, 0
1, 38781, Note_on_c, 1, 64, 0
1, 38784, Note_on_c, 0, 70, 78
1, 38784, Note_on_c, 1, 66, 79
1, 38829, Note_on_c, 0, 76, 0
1, 38832, Note_on_c, 0, 78, 79
1, 38873, Note_on_c, 0, 70, 0
1, 38873, Note_on_c, 1, 66, 0
1, 38877, Note_on_c, 0, 78, 0
1, 38880, Note_on_c, 0, 74, 79
1, 38880, Note_on_c, 0, 71, 79
1, 38928, Note_on_c, 1, 59, 80
1, 38969, Note_on_c, 0, 74, 0
1, 38969, Note_on_c, 0, 71, 0
1, 38973, Note_on_c, 1, 59, 0
1, 38976, Note_on_c, 0, 86, 80
1, 38976, Note_on_c, 0, 83, 80
1, 38976, Note_on_c, 1, 47, 80
1, 39021, Note_on_c, 1, 47, 0
1, 39024, Note_on_c, 1, 59, 81
1, 39065, Note_on_c, 0, 86, 0
1, 39065, Note_on_c, 0, 83, 0
1, 39069, Note_on_c, 1, 59, 0
1, 39072, Note_on_c, 1, 45, 81
1, 39117, Note_on_c, 1, 45, 0
1, 39120, Note_on_c, 1, 57, 82
1, 39165, Note_on_c, 1, 57, 0
1, 39168, Note_on_c, 0, 74, 82
1, 39168, Note_on_c, 0, 71, 82
1, 39216, Note_on_c, 1, 55, 83
1, 39257, Note_on_c, 0, 74, 0
1, 39257, Note_on_c, 0, 71, 0
1, 39261, Note_on_c, 1, 55, 0
1, 39264, Note_on_c, 0, 86, 83
1, 39264, Note_on_c, 0, 83, 83
1, 39264, Note_on_c, 1, 43, 83
1, 39309, Note_on_c, 1, 43, 0
1, 39312, Note_on_c, 1, 55, 84
1, 39353, Note_on_c, 0, 86, 0
1, 39353, Note_on_c, 0, 83, 0
1, 39357, Note_on_c, 1, 55, 0
1, 39360, Note_on_c, 1, 42, 84
1, 39405, Note_on_c, 1, 42, 0
1, 39408, Note_on_c, 1, 54, 84
1, 39453, Note_on_c, 1, 54, 0
1, 39456, Note_on_c, 0, 83, 84
1, 39456, Note_on_c, 1, 53, 84
1, 39456, Note_on_c, 1, 41, 84
1, 39479, Note_on_c, 0, 83, 0
1, 39480, Note_on_c, 0, 86, 84
1, 39503, Note_on_c, 0, 86, 0
1, 39504, Note_on_c, 0, 83, 84
1, 39527, Note_on_c, 0, 83, 0
1, 39528, Note_on_c, 0, 80, 84
1, 39545, Note_on_c, 1, 53, 0
1, 39545, Note_on_c, 1, 41, 0
1, 39551, Note_on_c, 0, 80, 0
1, 39552, Note_on_c, 0, 80, 84
1, 39575, Note_on_c, 0, 80, 0
1, 39576, Note_on_c, 0, 83, 84
1, 39599, Note_on_c, 0, 83, 0
1, 39600, Note_on_c, 0, 80, 84
1, 39623, Note_on_c, 0, 80, 0
1, 39624, Note_on_c, 0, 77, 84
1, 39647, Note_on_c, 0, 77, 0
1, 39648, Note_on_c, 0, 77, 84
1, 39671, Note_on_c, 0, 77, 0
1, 39672, Note_on_c, 0, 80, 84
1, 39695, Note_on_c, 0, 80, 0
1, 39696, Note_on_c, 0, 77, 84
1, 39719, Note_on_c, 0, 77, 0
1, 39720, Note_on_c, 0, 74, 84
1, 39743, Note_on_c, 0, 74, 0
1, 39744, Note_on_c, 0, 76, 84
1, 39744, Note_on_c, 1, 54, 84
1, 39744, Note_on_c, 1, 42, 84
1, 39767, Note_on_c, 0, 76, 0
1, 39768, Note_on_c, 0, 79, 84
1, 39791, Note_on_c, 0, 79, 0
1, 39792, Note_on_c, 0, 76, 84
1, 39815, Note_on_c, 0, 76, 0
1, 39816, Note_on_c, 0, 73, 84
1, 39833, Note_on_c, 1, 54, 0
1, 39833, Note_on_c, 1, 42, 0
1, 39839, Note_on_c, 0, 73, 0
1, 39840, Note_on_c, 0, 73, 84
1, 39863, Note_on_c, 0, 73, 0
1, 39864, Note_on_c, 0, 76, 84
1, 39887, Note_on_c, 0, 76, 0
1, 39888, Note_on_c, 0, 73, 84
1, 39911, Note_on_c, 0, 73, 0
1, 39912, Note_on_c, 0, 70, 84
1, 39935, Note_on_c, 0, 70, 0
1, 39936, Note_on_c, 0, 70, 84
1, 39959, Note_on_c, 0, 70, 0
1, 39960, Note_on_c, 0, 73, 84
1, 39983, Note_on_c, 0, 73, 0
1, 39984, Note_on_c, 0, 70, 84
1, 40007, Note_on_c, 0, 70, 0
1, 40008, Note_on_c, 0, 64, 84
1, 40031, Note_on_c, 0, 64, 0
1, 40032, Note_on_c, 0, 66, 84
1, 40032, Note_on_c, 1, 47, 100
1, 40032, Note_on_c, 1, 35, 100
1, 40055, Note_on_c, 0, 66, 0
1, 40056, Note_on_c, 0, 71, 84
1, 40079, Note_on_c, 0, 71, 0
1, 40080, Note_on_c, 0, 66, 84
1, 40103, Note_on_c, 0, 66, 0
1, 40104, Note_on_c, 0, 62, 84
1, 40127, Note_on_c, 0, 62, 0
1, 40128, Note_on_c, 0, 66, 84
1, 40128, Note_on_c, 1, 47, 0
1, 40128, Note_on_c, 1, 35, 0
1, 40128, Note_on_c, 1, 59, 84
1, 40151, Note_on_c, 0, 66, 0
1, 40152, Note_on_c, 0, 71, 85
1, 40175, Note_on_c, 0, 71, 0
1, 40176, Note_on_c, 0, 66, 85
1, 40199, Note_on_c, 0, 66, 0
1, 40200, Note_on_c, 0, 62, 85
1, 40217, Note_on_c, 1, 59, 0
1, 40223, Note_on_c, 0, 62, 0
1, 40224, Note_on_c, 0, 66, 85
1, 40247, Note_on_c, 0, 66, 0
1, 40248, Note_on_c, 0, 71, 85
1, 40271, Note_on_c, 0, 71, 0
1, 40272, Note_on_c, 0, 66, 86
1, 40295, Note_on_c, 0, 66, 0
1, 40296, Note_on_c, 0, 62, 86
1, 40319, Note_on_c, 0, 62, 0
1, 40320, Note_on_c, 0, 67, 86
1, 40320, Note_on_c, 1, 43, 102
1, 40320, Note_on_c, 1, 31, 102
1, 40343, Note_on_c, 0, 67, 0
1, 40344, Note_on_c, 0, 71, 86
1, 40367, Note_on_c, 0, 71, 0
1, 40368, Note_on_c, 0, 67, 86
1, 40391, Note_on_c, 0, 67, 0
1, 40392, Note_on_c, 0, 62, 87
1, 40415, Note_on_c, 0, 62, 0
1, 40416, Note_on_c, 0, 67, 87
1, 40416, Note_on_c, 1, 43, 0
1, 40416, Note_on_c, 1, 31, 0
1, 40416, Note_on_c, 1, 55, 86
1, 40439, Note_on_c, 0, 67, 0
1, 40440, Note_on_c, 0, 71, 87
1, 40463, Note_on_c, 0, 71, 0
1, 40464, Note_on_c, 0, 67, 87
1, 40487, Note_on_c, 0, 67, 0
1, 40488, Note_on_c, 0, 62, 87
1, 40505, Note_on_c, 1, 55, 0
1, 40511, Note_on_c, 0, 62, 0
1, 40512, Note_on_c, 0, 67, 88
1, 40535, Note_on_c, 0, 67, 0
1, 40536, Note_on_c, 0, 71, 88
1, 40559, Note_on_c, 0, 71, 0
1, 40560, Note_on_c, 0, 67, 88
1, 40583, Note_on_c, 0, 67, 0
1, 40584, Note_on_c, 0, 62, 88
1, 40607, Note_on_c, 0, 62, 0
1, 40608, Note_on_c, 0, 68, 88
1, 40608, Note_on_c, 1, 41, 104
1, 40608, Note_on_c, 1, 29, 104
1, 40631, Note_on_c, 0, 68, 0
1, 40632, Note_on_c, 0, 71, 89
1, 40655, Note_on_c, 0, 71, 0
1, 40656, Note_on_c, 0, 68, 89
1, 40679, Note_on_c, 0, 68, 0
1, 40680, Note_on_c, 0, 62, 89
1, 40703, Note_on_c, 0, 62, 0
1, 40704, Note_on_c, 0, 68, 89
1, 40704, Note_on_c, 1, 41, 0
1, 40704, Note_on_c, 1, 29, 0
1, 40704, Note_on_c, 1, 53, 89
1, 40727, Note_on_c, 0, 68, 0
1, 40728, Note_on_c, 0, 71, 89
1, 40751, Note_on_c, 0, 71, 0
1, 40752, Note_on_c, 0, 68, 89
1, 40775, Note_on_c, 0, 68, 0
1, 40776, Note_on_c, 0, 62, 89
1, 40793, Note_on_c, 1, 53, 0
1, 40799, Note_on_c, 0, 62, 0
1, 40800, Note_on_c, 0, 68, 89
1, 40823, Note_on_c, 0, 68, 0
1, 40824, Note_on_c, 0, 71, 89
1, 40847, Note_on_c, 0, 71, 0
1, 40848, Note_on_c, 0, 68, 89
1, 40871, Note_on_c, 0, 68, 0
1, 40872, Note_on_c, 0, 62, 89
1, 40895, Note_on_c, 0, 62, 0
1, 40896, Note_on_c, 1, 42, 89
1, 40896, Note_on_c, 1, 30, 89
1, 40985, Note_on_c, 1, 42, 0
1, 40985, Note_on_c, 1, 30, 0
1, 40992, Note_on_c, 0, 78, 89
1, 40992, Note_on_c, 0, 74, 89
1, 41081, Note_on_c, 0, 78, 0
1, 41081, Note_on_c, 0, 74, 0
1, 41088, Note_on_c, 0, 70, 89
1, 41088, Note_on_c, 0, 64, 89
1, 41177, Note_on_c, 0, 70, 0
1, 41177, Note_on_c, 0, 64, 0
1, 41184, Note_on_c, 1, 47, 89
1, 41184, Note_on_c, 1, 35, 89
1, 41273, Note_on_c, 1, 47, 0
1, 41273, Note_on_c, 1, 35, 0
1, 41280, Note_on_c, 1, 59, 64
1, 41280, Note_on_c, 1, 47, 64
1, 41328, Note_on_c, 0, 78, 64
1, 41328, Note_on_c, 0, 74, 64
1, 41369, Note_on_c, 1, 59, 0
1, 41369, Note_on_c, 1, 47, 0
1, 41373, Note_on_c, 0, 78, 0
1, 41373, Note_on_c, 0, 74, 0
1, 41376, Note_on_c, 0, 79, 64
1, 41376, Note_on_c, 0, 76, 64
1, 41421, Note_on_c, 0, 79, 0
1, 41421, Note_on_c, 0, 76, 0
1, 41424, Note_on_c, 0, 76, 64
1, 41424, Note_on_c, 0, 73, 64
1, 41469, Note_on_c, 0, 76, 0
1, 41469, Note_on_c, 0, 73, 0
1, 41472, Note_on_c, 0, 78, 64
1, 41472, Note_on_c, 0, 74, 64
1, 41511, Note_on_c, 0, 78, 0
1, 41511, Note_on_c, 0, 74, 0
1, 41520, Note_on_c, 1, 62, 64
1, 41520, Note_on_c, 1, 59, 64
1, 41565, Note_on_c, 1, 62, 0
1, 41565, Note_on_c, 1, 59, 0
1, 41568, Note_on_c, 1, 64, 64
1, 41568, Note_on_c, 1, 61, 64
1, 41613, Note_on_c, 1, 64, 0
1, 41613, Note_on_c, 1, 61, 0
1, 41616, Note_on_c, 1, 61, 64
1, 41616, Note_on_c, 1, 58, 64
1, 41661, Note_on_c, 1, 61, 0
1, 41661, Note_on_c, 1, 58, 0
1, 41664, Note_on_c, 1, 62, 64
1, 41664, Note_on_c, 1, 59, 64
1, 41703, Note_on_c, 1, 62, 0
1, 41703, Note_on_c, 1, 59, 0
1, 41712, Note_on_c, 0, 83, 64
1, 41712, Note_on_c, 0, 79, 64
1, 41757, Note_on_c, 0, 83, 0
1, 41757, Note_on_c, 0, 79, 0
1, 41760, Note_on_c, 0, 84, 64
1, 41760, Note_on_c, 0, 81, 64
1, 41805, Note_on_c, 0, 84, 0
1, 41805, Note_on_c, 0, 81, 0
1, 41808, Note_on_c, 0, 81, 64
1, 41808, Note_on_c, 0, 78, 64
1, 41853, Note_on_c, 0, 81, 0
1, 41853, Note_on_c, 0, 78, 0
1, 41856, Note_on_c, 0, 83, 64
1, 41856, Note_on_c, 0, 79, 64
1, 41876, Note_on_c, 0, 83, 0
1, 41876, Note_on_c, 0, 79, 0
1, 41904, Note_on_c, 1, 67, 64
1, 41904, Note_on_c, 1, 64, 64
1, 41949, Note_on_c, 1, 67, 0
1, 41949, Note_on_c, 1, 64, 0
1, 41952, Note_on_c, 1, 69, 64
1, 41952, Note_on_c, 1, 66, 64
1, 41997, Note_on_c, 1, 69, 0
1, 41997, Note_on_c, 1, 66, 0
1, 42000, Note_on_c, 1, 66, 64
1, 42000, Note_on_c, 1, 63, 64
1, 42045, Note_on_c, 1, 66, 0
1, 42045, Note_on_c, 1, 63, 0
1, 42048, Note_on_c, 1, 67, 64
1, 42048, Note_on_c, 1, 64, 64
1, 42087, Note_on_c, 1, 67, 0
1, 42087, Note_on_c, 1, 64, 0
1, 42096, Note_on_c, 0, 79, 64
1, 42096, Note_on_c, 0, 76, 64
1, 42141, Note_on_c, 0, 79, 0
1, 42141, Note_on_c, 0, 76, 0
1, 42144, Note_on_c, 0, 83, 64
1, 42144, Note_on_c, 0, 79, 64
1, 42189, Note_on_c, 0, 83, 0
1, 42189, Note_on_c, 0, 79, 0
1, 42192, Note_on_c, 0, 81, 64
1, 42192, Note_on_c, 0, 78, 64
1, 42237, Note_on_c, 0, 81, 0
1, 42237, Note_on_c, 0, 78, 0
1, 42240, Note_on_c, 0, 79, 64
1, 42240, Note_on_c, 0, 76, 64
1, 42285, Note_on_c, 0, 79, 0
1, 42285, Note_on_c, 0, 76, 0
1, 42288, Note_on_c, 0, 78, 64
1, 42288, Note_on_c, 0, 74, 64
1, 42333, Note_on_c, 0, 78, 0
1, 42333, Note_on_c, 0, 74, 0
1, 42336, Note_on_c, 0, 76, 64
1, 42336, Note_on_c, 0, 73, 64
1, 42375, Note_on_c, 0, 76, 0
1, 42375, Note_on_c, 0, 73, 0
1, 42384, Note_on_c, 1, 64, 64
1, 42384, Note_on_c, 1, 61, 64
1, 42429, Note_on_c, 1, 64, 0
1, 42429, Note_on_c, 1, 61, 0
1, 42432, Note_on_c, 1, 67, 64
1, 42432, Note_on_c, 1, 64, 64
1, 42477, Note_on_c, 1, 67, 0
1, 42477, Note_on_c, 1, 64, 0
1, 42480, Note_on_c, 1, 66, 64
1, 42480, Note_on_c, 1, 62, 64
1, 42525, Note_on_c, 1, 66, 0
1, 42525, Note_on_c, 1, 62, 0
1, 42528, Note_on_c, 1, 64, 64
1, 42528, Note_on_c, 1, 61, 64
1, 42573, Note_on_c, 1, 64, 0
1, 42573, Note_on_c, 1, 61, 0
1, 42576, Note_on_c, 1, 62, 64
1, 42576, Note_on_c, 1, 59, 64
1, 42621, Note_on_c, 1, 62, 0
1, 42621, Note_on_c, 1, 59, 0
1, 42624, Note_on_c, 1, 61, 64
1, 42624, Note_on_c, 1, 57, 64
1, 42672, Note_on_c, 0, 76, 64
1, 42672, Note_on_c, 0, 73, 64
1, 42717, Note_on_c, 0, 76, 0
1, 42717, Note_on_c, 0, 73, 0
1, 42720, Note_on_c, 0, 79, 65
1, 42720, Note_on_c, 0, 76, 65
1, 42765, Note_on_c, 0, 79, 0
1, 42765, Note_on_c, 0, 76, 0
1, 42765, Note_on_c, 1, 61, 0
1, 42765, Note_on_c, 1, 57, 0
1, 42768, Note_on_c, 0, 78, 67
1, 42768, Note_on_c, 0, 74, 67
1, 42768, Note_on_c, 1, 62, 66
1, 42768, Note_on_c, 1, 59, 66
1, 42813, Note_on_c, 0, 78, 0
1, 42813, Note_on_c, 0, 74, 0
1, 42813, Note_on_c, 1, 62, 0
1, 42813, Note_on_c, 1, 59, 0
1, 42816, Note_on_c, 0, 76, 69
1, 42816, Note_on_c, 0, 73, 69
1, 42816, Note_on_c, 1, 64, 68
1, 42816, Note_on_c, 1, 61, 68
1, 42861, Note_on_c, 0, 76, 0
1, 42861, Note_on_c, 0, 73, 0
1, 42861, Note_on_c, 1, 64, 0
1, 42861, Note_on_c, 1, 61, 0
1, 42864, Note_on_c, 0, 74, 71
1, 42864, Note_on_c, 0, 71, 71
1, 42864, Note_on_c, 1, 66, 70
1, 42864, Note_on_c, 1, 62, 70
1, 42909, Note_on_c, 0, 74, 0
1, 42909, Note_on_c, 0, 71, 0
1, 42909, Note_on_c, 1, 66, 0
1, 42909, Note_on_c, 1, 62, 0
1, 42912, Note_on_c, 0, 73, 73
1, 42912, Note_on_c, 0, 69, 73
1, 42912, Note_on_c, 1, 67, 72
1, 42912, Note_on_c, 1, 64, 72
1, 43333, Note_on_c, 0, 73, 0
1, 43333, Note_on_c, 0, 69, 0
1, 43333, Note_on_c, 1, 67, 0
1, 43333, Note_on_c, 1, 64, 0
1, 43392, Note_on_c, 0, 81, 78
1, 43398, Note_on_c, 0, 81, 0
1, 43398, Note_on_c, 0, 81, 78
1, 43412, Note_on_c, 0, 81, 0
1, 43440, Note_on_c, 0, 83, 78
1, 43446, Note_on_c, 0, 83, 0
1, 43446, Note_on_c, 0, 81, 78
1, 43452, Note_on_c, 0, 81, 0
1, 43452, Note_on_c, 0, 79, 78
1, 43458, Note_on_c, 0, 79, 0
1, 43458, Note_on_c, 0, 81, 78
1, 43464, Note_on_c, 0, 81, 0
1, 43464, Note_on_c, 0, 86, 78
1, 43487, Note_on_c, 0, 86, 0
1, 43488, Note_on_c, 0, 81, 78
1, 43536, Note_on_c, 1, 62, 78
1, 43581, Note_on_c, 1, 62, 0
1, 43584, Note_on_c, 1, 66, 78
1, 43629, Note_on_c, 0, 81, 0
1, 43629, Note_on_c, 1, 66, 0
1, 43632, Note_on_c, 0, 78, 78
1, 43632, Note_on_c, 1, 62, 78
1, 43677, Note_on_c, 0, 78, 0
1, 43677, Note_on_c, 1, 62, 0
1, 43680, Note_on_c, 0, 79, 78
1, 43680, Note_on_c, 1, 64, 78
1, 43725, Note_on_c, 0, 79, 0
1, 43725, Note_on_c, 1, 64, 0
1, 43728, Note_on_c, 0, 76, 78
1, 43728, Note_on_c, 1, 61, 78
1, 43773, Note_on_c, 0, 76, 0
1, 43773, Note_on_c, 1, 61, 0
1, 43776, Note_on_c, 0, 78, 78
1, 43776, Note_on_c, 1, 62, 78
1, 43821, Note_on_c, 0, 78, 0
1, 43821, Note_on_c, 1, 62, 0
1, 43824, Note_on_c, 0, 74, 79
1, 43824, Note_on_c, 1, 54, 79
1, 43869, Note_on_c, 0, 74, 0
1, 43869, Note_on_c, 1, 54, 0
1, 43872, Note_on_c, 0, 76, 80
1, 43872, Note_on_c, 1, 55, 80
1, 43917, Note_on_c, 0, 76, 0
1, 43917, Note_on_c, 1, 55, 0
1, 43920, Note_on_c, 0, 73, 81
1, 43920, Note_on_c, 1, 57, 81
1, 43965, Note_on_c, 0, 73, 0
1, 43965, Note_on_c, 1, 57, 0
1, 43968, Note_on_c, 0, 74, 82
1, 43968, Note_on_c, 1, 54, 82
1, 44013, Note_on_c, 0, 74, 0
1, 44013, Note_on_c, 1, 54, 0
1, 44016, Note_on_c, 0, 69, 83
1, 44016, Note_on_c, 1, 66, 83
1, 44061, Note_on_c, 0, 69, 0
1, 44061, Note_on_c, 1, 66, 0
1, 44064, Note_on_c, 0, 71, 84
1, 44064, Note_on_c, 1, 67, 84
1, 44087, Note_on_c, 0, 71, 0
1, 44088, Note_on_c, 0, 73, 83
1, 44111, Note_on_c, 0, 73, 0
1, 44112, Note_on_c, 0, 74, 83
1, 44135, Note_on_c, 0, 74, 0
1, 44136, Note_on_c, 0, 71, 82
1, 44153, Note_on_c, 1, 67, 0
1, 44159, Note_on_c, 0, 71, 0
1, 44160, Note_on_c, 0, 69, 82
1, 44160, Note_on_c, 1, 66, 82
1, 44205, Note_on_c, 1, 66, 0
1, 44208, Note_on_c, 1, 62, 81
1, 44253, Note_on_c, 1, 62, 0
1, 44256, Note_on_c, 1, 64, 80
1, 44301, Note_on_c, 0, 69, 0
1, 44301, Note_on_c, 1, 64, 0
1, 44304, Note_on_c, 0, 67, 79
1, 44304, Note_on_c, 1, 57, 79
1, 44316, Note_on_c, 0, 67, 0
1, 44316, Note_on_c, 0, 69, 79
1, 44328, Note_on_c, 0, 69, 0
1, 44328, Note_on_c, 0, 67, 79
1, 44349, Note_on_c, 0, 67, 0
1, 44349, Note_on_c, 1, 57, 0
1, 44352, Note_on_c, 0, 66, 78
1, 44352, Note_on_c, 1, 62, 78
1, 44441, Note_on_c, 0, 66, 0
1, 44441, Note_on_c, 1, 62, 0
1, 44448, Note_on_c, 1, 50, 78
1, 44537, Note_on_c, 1, 50, 0
1, 44544, Note_on_c, 0, 81, 78
1, 44550, Note_on_c, 0, 81, 0
1, 44550, Note_on_c, 0, 81, 78
1, 44564, Note_on_c, 0, 81, 0
1, 44592, Note_on_c, 0, 83, 78
1, 44598, Note_on_c, 0, 83, 0
1, 44598, Note_on_c, 0, 81, 78
1, 44604, Note_on_c, 0, 81, 0
1, 44604, Note_on_c, 0, 79, 78
1, 44610, Note_on_c, 0, 79, 0
1, 44610, Note_on_c, 0, 81, 78
1, 44616, Note_on_c, 0, 81, 0
1, 44616, Note_on_c, 0, 86, 78
1, 44639, Note_on_c, 0, 86, 0
1, 44640, Note_on_c, 0, 81, 78
1, 44688, Note_on_c, 1, 62, 78
1, 44733, Note_on_c, 1, 62, 0
1, 44736, Note_on_c, 1, 66, 78
1, 44781, Note_on_c, 0, 81, 0
1, 44781, Note_on_c, 1, 66, 0
1, 44784, Note_on_c, 0, 78, 78
1, 44784, Note_on_c, 1, 62, 78
1, 44829, Note_on_c, 0, 78, 0
1, 44829, Note_on_c, 1, 62, 0
1, 44832, Note_on_c, 0, 81, 79
1, 44832, Note_on_c, 1, 64, 79
1, 44855, Note_on_c, 0, 81, 0
1, 44856, Note_on_c, 0, 79, 79
1, 44877, Note_on_c, 1, 64, 0
1, 44879, Note_on_c, 0, 79, 0
1, 44880, Note_on_c, 0, 78, 79
1, 44880, Note_on_c, 1, 57, 79
1, 44903, Note_on_c, 0, 78, 0
1, 44904, Note_on_c, 0, 76, 79
1, 44925, Note_on_c, 1, 57, 0
1, 44927, Note_on_c, 0, 76, 0
1, 44928, Note_on_c, 0, 79, 79
1, 44928, Note_on_c, 1, 62, 79
1, 44951, Note_on_c, 0, 79, 0
1, 44952, Note_on_c, 0, 78, 79
1, 44973, Note_on_c, 1, 62, 0
1, 44975, Note_on_c, 0, 78, 0
1, 44976, Note_on_c, 0, 76, 79
1, 44976, Note_on_c, 1, 66, 79
1, 44999, Note_on_c, 0, 76, 0
1, 45000, Note_on_c, 0, 74, 80
1, 45021, Note_on_c, 1, 66, 0
1, 45023, Note_on_c, 0, 74, 0
1, 45024, Note_on_c, 0, 78, 80
1, 45024, Note_on_c, 1, 67, 80
1, 45047, Note_on_c, 0, 78, 0
1, 45048, Note_on_c, 0, 76, 80
1, 45069, Note_on_c, 1, 67, 0
1, 45071, Note_on_c, 0, 76, 0
1, 45072, Note_on_c, 0, 74, 80
1, 45072, Note_on_c, 1, 64, 80
1, 45095, Note_on_c, 0, 74, 0
1, 45096, Note_on_c, 0, 73, 80
1, 45117, Note_on_c, 1, 64, 0
1, 45119, Note_on_c, 0, 73, 0
1, 45120, Note_on_c, 0, 74, 80
1, 45120, Note_on_c, 1, 66, 80
1, 45165, Note_on_c, 0, 74, 0
1, 45165, Note_on_c, 1, 66, 0
1, 45168, Note_on_c, 0, 78, 81
1, 45168, Note_on_c, 1, 62, 81
1, 45213, Note_on_c, 0, 78, 0
1, 45213, Note_on_c, 1, 62, 0
1, 45216, Note_on_c, 0, 79, 81
1, 45216, Note_on_c, 1, 64, 81
1, 45239, Note_on_c, 0, 79, 0
1, 45240, Note_on_c, 0, 81, 81
1, 45261, Note_on_c, 1, 64, 0
1, 45263, Note_on_c, 0, 81, 0
1, 45264, Note_on_c, 0, 79, 81
1, 45264, Note_on_c, 1, 61, 81
1, 45287, Note_on_c, 0, 79, 0
1, 45288, Note_on_c, 0, 76, 81
1, 45309, Note_on_c, 1, 61, 0
1, 45311, Note_on_c, 0, 76, 0
1, 45312, Note_on_c, 0, 81, 81
1, 45312, Note_on_c, 1, 66, 81
1, 45335, Note_on_c, 0, 81, 0
1, 45336, Note_on_c, 0, 83, 81
1, 45357, Note_on_c, 1, 66, 0
1, 45359, Note_on_c, 0, 83, 0
1, 45360, Note_on_c, 0, 81, 82
1, 45360, Note_on_c, 1, 62, 82
1, 45383, Note_on_c, 0, 81, 0
1, 45384, Note_on_c, 0, 78, 82
1, 45405, Note_on_c, 1, 62, 0
1, 45407, Note_on_c, 0, 78, 0
1, 45408, Note_on_c, 0, 83, 82
1, 45408, Note_on_c, 1, 67, 82
1, 45431, Note_on_c, 0, 83, 0
1, 45432, Note_on_c, 0, 79, 82
1, 45447, Note_on_c, 1, 67, 0
1, 45455, Note_on_c, 0, 79, 0
1, 45456, Note_on_c, 0, 76, 82
1, 45479, Note_on_c, 0, 76, 0
1, 45480, Note_on_c, 0, 74, 82
1, 45503, Note_on_c, 0, 74, 0
1, 45504, Note_on_c, 1, 67, 82
1, 45519, Note_on_c, 1, 67, 0
1, 45520, Note_on_c, 1, 69, 82
1, 45535, Note_on_c, 1, 69, 0
1, 45536, Note_on_c, 1, 73, 83
1, 45551, Note_on_c, 1, 73, 0
1, 45552, Note_on_c, 0, 76, 83
1, 45567, Note_on_c, 0, 76, 0
1, 45568, Note_on_c, 0, 81, 83
1, 45583, Note_on_c, 0, 81, 0
1, 45584, Note_on_c, 0, 85, 83
1, 45599, Note_on_c, 0, 85, 0
1, 45600, Note_on_c, 0, 86, 83
1, 45600, Note_on_c, 1, 66, 83
1, 45639, Note_on_c, 0, 86, 0
1, 45639, Note_on_c, 1, 66, 0
1, 45792, Note_on_c, 0, 67, 78
1, 45792, Note_on_c, 0, 61, 78
1, 45840, Note_on_c, 1, 45, 78
1, 45885, Note_on_c, 1, 45, 0
1, 45888, Note_on_c, 1, 57, 78
1, 45925, Note_on_c, 0, 67, 0
1, 45925, Note_on_c, 0, 61, 0
1, 45933, Note_on_c, 1, 57, 0
1, 45936, Note_on_c, 0, 64, 78
1, 45936, Note_on_c, 0, 64, 78
1, 45936, Note_on_c, 1, 61, 78
1, 45981, Note_on_c, 0, 64, 0
1, 45981, Note_on_c, 0, 64, 0
1, 45981, Note_on_c, 1, 61, 0
1, 45984, Note_on_c, 0, 66, 78
1, 45984, Note_on_c, 1, 62, 78
1, 46029, Note_on_c, 0, 66, 0
1, 46032, Note_on_c, 0, 74, 78
1, 46073, Note_on_c, 1, 62, 0
1, 46077, Note_on_c, 0, 74, 0
1, 46080, Note_on_c, 0, 73, 78
1, 46080, Note_on_c, 0, 67, 78
1, 46128, Note_on_c, 1, 45, 78
1, 46173, Note_on_c, 1, 45, 0
1, 46176, Note_on_c, 1, 57, 78
1, 46213, Note_on_c, 0, 73, 0
1, 46221, Note_on_c, 1, 57, 0
1, 46224, Note_on_c, 0, 76, 78
1, 46224, Note_on_c, 1, 61, 78
1, 46257, Note_on_c, 0, 67, 0
1, 46269, Note_on_c, 0, 76, 0
1, 46269, Note_on_c, 1, 61, 0
1, 46272, Note_on_c, 0, 74, 78
1, 46272, Note_on_c, 0, 66, 78
1, 46272, Note_on_c, 1, 62, 78
1, 46317, Note_on_c, 0, 74, 0
1, 46320, Note_on_c, 0, 62, 78
1, 46361, Note_on_c, 0, 66, 0
1, 46361, Note_on_c, 1, 62, 0
1, 46365, Note_on_c, 0, 62, 0
1, 46368, Note_on_c, 0, 67, 78
1, 46368, Note_on_c, 0, 61, 78
1, 46416, Note_on_c, 1, 45, 78
1, 46461, Note_on_c, 1, 45, 0
1, 46464, Note_on_c, 1, 57, 78
1, 46501, Note_on_c, 0, 67, 0
1, 46501, Note_on_c, 0, 61, 0
1, 46509, Note_on_c, 1, 57, 0
1, 46512, Note_on_c, 0, 64, 78
1, 46512, Note_on_c, 0, 64, 78
1, 46512, Note_on_c, 1, 61, 78
1, 46557, Note_on_c, 0, 64, 0
1, 46557, Note_on_c, 0, 64, 0
1, 46557, Note_on_c, 1, 61, 0
1, 46560, Note_on_c, 0, 66, 78
1, 46560, Note_on_c, 1, 62, 78
1, 46605, Note_on_c, 0, 66, 0
1, 46608, Note_on_c, 0, 74, 78
1, 46649, Note_on_c, 1, 62, 0
1, 46653, Note_on_c, 0, 74, 0
1, 46656, Note_on_c, 0, 79, 78
1, 46656, Note_on_c, 0, 73, 78
1, 46704, Note_on_c, 1, 45, 78
1, 46749, Note_on_c, 1, 45, 0
1, 46752, Note_on_c, 1, 57, 78
1, 46789, Note_on_c, 0, 79, 0
1, 46789, Note_on_c, 0, 73, 0
1, 46797, Note_on_c, 1, 57, 0
1, 46800, Note_on_c, 0, 76, 78
1, 46800, Note_on_c, 0, 76, 78
1, 46800, Note_on_c, 1, 61, 78
1, 46845, Note_on_c, 0, 76, 0
1, 46845, Note_on_c, 0, 76, 0
1, 46845, Note_on_c, 1, 61, 0
1, 46848, Note_on_c, 0, 78, 78
1, 46848, Note_on_c, 0, 69, 78
1, 46848, Note_on_c, 1, 62, 78
1, 46893, Note_on_c, 0, 78, 0
1, 46893, Note_on_c, 1, 62, 0
1, 46896, Note_on_c, 0, 74, 78
1, 46896, Note_on_c, 1, 66, 78
1, 46937, Note_on_c, 0, 69, 0
1, 46941, Note_on_c, 0, 74, 0
1, 46941, Note_on_c, 1, 66, 0
1, 46944, Note_on_c, 0, 73, 78
1, 46944, Note_on_c, 1, 67, 78
1, 46967, Note_on_c, 0, 73, 0
1, 46968, Note_on_c, 0, 71, 78
1, 46991, Note_on_c, 0, 71, 0
1, 46992, Note_on_c, 0, 83, 78
1, 47015, Note_on_c, 0, 83, 0
1, 47016, Note_on_c, 0, 81, 78
1, 47033, Note_on_c, 1, 67, 0
1, 47039, Note_on_c, 0, 81, 0
1, 47040, Note_on_c, 0, 79, 78
1, 47063, Note_on_c, 0, 79, 0
1, 47064, Note_on_c, 0, 78, 78
1, 47087, Note_on_c, 0, 78, 0
1, 47088, Note_on_c, 0, 76, 78
1, 47111, Note_on_c, 0, 76, 0
1, 47112, Note_on_c, 0, 86, 78
1, 47135, Note_on_c, 0, 86, 0
1, 47136, Note_on_c, 0, 85, 78
1, 47159, Note_on_c, 0, 85, 0
1, 47160, Note_on_c, 0, 83, 78
1, 47183, Note_on_c, 0, 83, 0
1, 47184, Note_on_c, 0, 81, 78
1, 47207, Note_on_c, 0, 81, 0
1, 47208, Note_on_c, 0, 79, 78
1, 47231, Note_on_c, 0, 79, 0
1, 47232, Note_on_c, 0, 78, 78
1, 47232, Note_on_c, 1, 71, 78
1, 47232, Note_on_c, 1, 67, 78
1, 47255, Note_on_c, 0, 78, 0
1, 47256, Note_on_c, 0, 76, 78
1, 47279, Note_on_c, 0, 76, 0
1, 47280, Note_on_c, 0, 83, 78
1, 47303, Note_on_c, 0, 83, 0
1, 47304, Note_on_c, 0, 81, 78
1, 47321, Note_on_c, 1, 71, 0
1, 47321, Note_on_c, 1, 67, 0
1, 47327, Note_on_c, 0, 81, 0
1, 47328, Note_on_c, 0, 79, 78
1, 47351, Note_on_c, 0, 79, 0
1, 47352, Note_on_c, 0, 78, 78
1, 47375, Note_on_c, 0, 78, 0
1, 47376, Note_on_c, 0, 76, 78
1, 47399, Note_on_c, 0, 76, 0
1, 47400, Note_on_c, 0, 86, 78
1, 47423, Note_on_c, 0, 86, 0
1, 47424, Note_on_c, 0, 85, 78
1, 47447, Note_on_c, 0, 85, 0
1, 47448, Note_on_c, 0, 83, 78
1, 47471, Note_on_c, 0, 83, 0
1, 47472, Note_on_c, 0, 81, 78
1, 47495, Note_on_c, 0, 81, 0
1, 47496, Note_on_c, 0, 79, 78
1, 47519, Note_on_c, 0, 79, 0
1, 47520, Note_on_c, 0, 78, 78
1, 47520, Note_on_c, 1, 71, 78
1, 47520, Note_on_c, 1, 67, 78
1, 47543, Note_on_c, 0, 78, 0
1, 47544, Note_on_c, 0, 76, 78
1, 47567, Note_on_c, 0, 76, 0
1, 47568, Note_on_c, 0, 83, 79
1, 47591, Note_on_c, 0, 83, 0
1, 47592, Note_on_c, 0, 81, 80
1, 47609, Note_on_c, 1, 71, 0
1, 47609, Note_on_c, 1, 67, 0
1, 47615, Note_on_c, 0, 81, 0
1, 47616, Note_on_c, 0, 79, 80
1, 47639, Note_on_c, 0, 79, 0
1, 47640, Note_on_c, 0, 78, 81
1, 47663, Note_on_c, 0, 78, 0
1, 47664, Note_on_c, 0, 76, 82
1, 47687, Note_on_c, 0, 76, 0
1, 47688, Note_on_c, 0, 78, 82
1, 47711, Note_on_c, 0, 78, 0
1, 47712, Note_on_c, 0, 76, 83
1, 47712, Note_on_c, 1, 59, 82
1, 47712, Note_on_c, 1, 56, 82
1, 47735, Note_on_c, 0, 76, 0
1, 47736, Note_on_c, 0, 74, 84
1, 47759, Note_on_c, 0, 74, 0
1, 47760, Note_on_c, 0, 73, 84
1, 47783, Note_on_c, 0, 73, 0
1, 47784, Note_on_c, 0, 71, 84
1, 47801, Note_on_c, 1, 59, 0
1, 47801, Note_on_c, 1, 56, 0
1, 47807, Note_on_c, 0, 71, 0
1, 47808, Note_on_c, 0, 69, 84
1, 47808, Note_on_c, 1, 57, 84
1, 47831, Note_on_c, 0, 69, 0
1, 47832, Note_on_c, 0, 69, 84
1, 47855, Note_on_c, 0, 69, 0
1, 47856, Note_on_c, 0, 73, 84
1, 47879, Note_on_c, 0, 73, 0
1, 47880, Note_on_c, 0, 69, 84
1, 47897, Note_on_c, 1, 57, 0
1, 47903, Note_on_c, 0, 69, 0
1, 47904, Note_on_c, 1, 69, 84
1, 47928, Note_on_c, 0, 69, 84
1, 47943, Note_on_c, 1, 69, 0
1, 47951, Note_on_c, 0, 69, 0
1, 47952, Note_on_c, 0, 73, 84
1, 47975, Note_on_c, 0, 73, 0
1, 47976, Note_on_c, 0, 69, 84
1, 47999, Note_on_c, 0, 69, 0
1, 48000, Note_on_c, 1, 67, 84
1, 48024, Note_on_c, 0, 69, 84
1, 48039, Note_on_c, 1, 67, 0
1, 48047, Note_on_c, 0, 69, 0
1, 48048, Note_on_c, 0, 73, 84
1, 48071, Note_on_c, 0, 73, 0
1, 48072, Note_on_c, 0, 69, 84
1, 48095, Note_on_c, 0, 69, 0
1, 48096, Note_on_c, 1, 66, 84
1, 48120, Note_on_c, 0, 69, 84
1, 48135, Note_on_c, 1, 66, 0
1, 48143, Note_on_c, 0, 69, 0
1, 48144, Note_on_c, 0, 74, 84
1, 48167, Note_on_c, 0, 74, 0
1, 48168, Note_on_c, 0, 69, 84
1, 48191, Note_on_c, 0, 69, 0
1, 48192, Note_on_c, 1, 66, 84
1, 48216, Note_on_c, 0, 69, 84
1, 48231, Note_on_c, 1, 66, 0
1, 48239, Note_on_c, 0, 69, 0
1, 48240, Note_on_c, 0, 81, 84
1, 48263, Note_on_c, 0, 81, 0
1, 48264, Note_on_c, 0, 69, 84
1, 48287, Note_on_c, 0, 69, 0
1, 48288, Note_on_c, 1, 64, 84
1, 48312, Note_on_c, 0, 69, 84
1, 48327, Note_on_c, 1, 64, 0
1, 48335, Note_on_c, 0, 69, 0
1, 48336, Note_on_c, 0, 79, 84
1, 48359, Note_on_c, 0, 79, 0
1, 48360, Note_on_c, 0, 69, 84
1, 48383, Note_on_c, 0, 69, 0
1, 48384, Note_on_c, 1, 62, 84
1, 48408, Note_on_c, 0, 69, 84
1, 48431, Note_on_c, 0, 69, 0
1, 48432, Note_on_c, 0, 78, 84
1, 48455, Note_on_c, 0, 78, 0
1, 48456, Note_on_c, 0, 69, 84
1, 48473, Note_on_c, 1, 62, 0
1, 48479, Note_on_c, 0, 69, 0
1, 48480, Note_on_c, 1, 69, 84
1, 48504, Note_on_c, 0, 69, 84
1, 48519, Note_on_c, 1, 69, 0
1, 48527, Note_on_c, 0, 69, 0
1, 48528, Note_on_c, 0, 73, 84
1, 48551, Note_on_c, 0, 73, 0
1, 48552, Note_on_c, 0, 69, 84
1, 48575, Note_on_c, 0, 69, 0
1, 48576, Note_on_c, 1, 67, 84
1, 48600, Note_on_c, 0, 69, 84
1, 48615, Note_on_c, 1, 67, 0
1, 48623, Note_on_c, 0, 69, 0
1, 48624, Note_on_c, 0, 73, 84
1, 48647, Note_on_c, 0, 73, 0
1, 48648, Note_on_c, 0, 69, 84
1, 48671, Note_on_c, 0, 69, 0
1, 48672, Note_on_c, 1, 65, 84
1, 48696, Note_on_c, 0, 69, 84
1, 48711, Note_on_c, 1, 65, 0
1, 48719, Note_on_c, 0, 69, 0
1, 48720, Note_on_c, 0, 74, 84
1, 48743, Note_on_c, 0, 74, 0
1, 48744, Note_on_c, 0, 69, 84
1, 48767, Note_on_c, 0, 69, 0
1, 48768, Note_on_c, 1, 65, 84
1, 48792, Note_on_c, 0, 69, 84
1, 48807, Note_on_c, 1, 65, 0
1, 48815, Note_on_c, 0, 69, 0
1, 48816, Note_on_c, 0, 81, 84
1, 48839, Note_on_c, 0, 81, 0
1, 48840, Note_on_c, 0, 69, 84
1, 48863, Note_on_c, 0, 69, 0
1, 48864, Note_on_c, 1, 64, 84
1, 48888, Note_on_c, 0, 69, 84
1, 48903, Note_on_c, 1, 64, 0
1, 48911, Note_on_c, 0, 69, 0
1, 48912, Note_on_c, 0, 79, 84
1, 48935, Note_on_c, 0, 79, 0
1, 48936, Note_on_c, 0, 69, 84
1, 48959, Note_on_c, 0, 69, 0
1, 48960, Note_on_c, 1, 62, 84
1, 48984, Note_on_c, 0, 74, 84
1, 49007, Note_on_c, 0, 74, 0
1, 49008, Note_on_c, 0, 77, 84
1, 49031, Note_on_c, 0, 77, 0
1, 49032, Note_on_c, 0, 74, 84
1, 49049, Note_on_c, 1, 62, 0
1, 49055, Note_on_c, 0, 74, 0
1, 49056, Note_on_c, 1, 74, 84
1, 49080, Note_on_c, 0, 74, 84
1, 49095, Note_on_c, 1, 74, 0
1, 49103, Note_on_c, 0, 74, 0
1, 49104, Note_on_c, 0, 77, 84
1, 49127, Note_on_c, 0, 77, 0
1, 49128, Note_on_c, 0, 74, 84
1, 49151, Note_on_c, 0, 74, 0
1, 49152, Note_on_c, 1, 72, 84
1, 49176, Note_on_c, 0, 74, 84
1, 49199, Note_on_c, 0, 74, 0
1, 49200, Note_on_c, 0, 78, 84
1, 49223, Note_on_c, 0, 78, 0
1, 49224, Note_on_c, 0, 74, 84
1, 49241, Note_on_c, 1, 72, 0
1, 49247, Note_on_c, 0, 74, 0
1, 49248, Note_on_c, 1, 71, 84
1, 49272, Note_on_c, 0, 74, 84
1, 49295, Note_on_c, 0, 74, 0
1, 49296, Note_on_c, 0, 79, 84
1, 49319, Note_on_c, 0, 79, 0
1, 49320, Note_on_c, 0, 74, 84
1, 49337, Note_on_c, 1, 71, 0
1, 49343, Note_on_c, 0, 74, 0
1, 49344, Note_on_c, 1, 70, 84
1, 49368, Note_on_c, 0, 74, 84
1, 49383, Note_on_c, 1, 70, 0
1, 49391, Note_on_c, 0, 74, 0
1, 49392, Note_on_c, 0, 80, 84
1, 49415, Note_on_c, 0, 80, 0
1, 49416, Note_on_c, 0, 74, 84
1, 49439, Note_on_c, 0, 74, 0
1, 49440, Note_on_c, 1, 69, 84
1, 49464, Note_on_c, 0, 74, 84
1, 49487, Note_on_c, 0, 74, 0
1, 49488, Note_on_c, 0, 81, 84
1, 49511, Note_on_c, 0, 81, 0
1, 49512, Note_on_c, 0, 74, 84
1, 49529, Note_on_c, 1, 69, 0
1, 49535, Note_on_c, 0, 74, 0
1, 49536, Note_on_c, 1, 68, 84
1, 49560, Note_on_c, 0, 74, 84
1, 49583, Note_on_c, 0, 74, 0
1, 49584, Note_on_c, 0, 83, 84
1, 49607, Note_on_c, 0, 83, 0
1, 49608, Note_on_c, 0, 74, 84
1, 49625, Note_on_c, 1, 68, 0
1, 49631, Note_on_c, 0, 74, 0
1, 49632, Note_on_c, 1, 77, 84
1, 49656, Note_on_c, 0, 74, 84
1, 49671, Note_on_c, 1, 77, 0
1, 49679, Note_on_c, 0, 74, 0
1, 49680, Note_on_c, 0, 83, 84
1, 49703, Note_on_c, 0, 83, 0
1, 49704, Note_on_c, 0, 74, 84
1, 49727, Note_on_c, 0, 74, 0
1, 49728, Note_on_c, 1, 68, 84
1, 49752, Note_on_c, 0, 74, 84
1, 49775, Note_on_c, 0, 74, 0
1, 49776, Note_on_c, 0, 83, 84
1, 49799, Note_on_c, 0, 83, 0
1, 49800, Note_on_c, 0, 74, 84
1, 49817, Note_on_c, 1, 68, 0
1, 49823, Note_on_c, 0, 74, 0
1, 49824, Note_on_c, 1, 69, 84
1, 49848, Note_on_c, 0, 74, 84
1, 49871, Note_on_c, 0, 74, 0
1, 49872, Note_on_c, 0, 81, 84
1, 49895, Note_on_c, 0, 81, 0
1, 49896, Note_on_c, 0, 74, 84
1, 49913, Note_on_c, 1, 69, 0
1, 49919, Note_on_c, 0, 74, 0
1, 49920, Note_on_c, 1, 77, 84
1, 49944, Note_on_c, 0, 74, 84
1, 49959, Note_on_c, 1, 77, 0
1, 49967, Note_on_c, 0, 74, 0
1, 49968, Note_on_c, 0, 81, 84
1, 49991, Note_on_c, 0, 81, 0
1, 49992, Note_on_c, 0, 74, 84
1, 50015, Note_on_c, 0, 74, 0
1, 50016, Note_on_c, 1, 69, 84
1, 50040, Note_on_c, 0, 74, 84
1, 50063, Note_on_c, 0, 74, 0
1, 50064, Note_on_c, 0, 81, 84
1, 50087, Note_on_c, 0, 81, 0
1, 50088, Note_on_c, 0, 74, 84
1, 50105, Note_on_c, 1, 69, 0
1, 50111, Note_on_c, 0, 74, 0
1, 50112, Note_on_c, 1, 70, 84
1, 50136, Note_on_c, 0, 74, 84
1, 50159, Note_on_c, 0, 74, 0
1, 50160, Note_on_c, 0, 80, 84
1, 50183, Note_on_c, 0, 80, 0
1, 50184, Note_on_c, 0, 74, 84
1, 50201, Note_on_c, 1, 70, 0
1, 50207, Note_on_c, 0, 74, 0
1, 50208, Note_on_c, 1, 77, 84
1, 50232, Note_on_c, 0, 74, 84
1, 50247, Note_on_c, 1, 77, 0
1, 50255, Note_on_c, 0, 74, 0
1, 50256, Note_on_c, 0, 80, 84
1, 50279, Note_on_c, 0, 80, 0
1, 50280, Note_on_c, 0, 74, 84
1, 50303, Note_on_c, 0, 74, 0
1, 50304, Note_on_c, 1, 70, 84
1, 50328, Note_on_c, 0, 74, 84
1, 50351, Note_on_c, 0, 74, 0
1, 50352, Note_on_c, 0, 80, 84
1, 50375, Note_on_c, 0, 80, 0
1, 50376, Note_on_c, 0, 74, 84
1, 50393, Note_on_c, 1, 70, 0
1, 50399, Note_on_c, 0, 74, 0
1, 50400, Note_on_c, 1, 69, 84
1, 50424, Note_on_c, 0, 73, 84
1, 50447, Note_on_c, 0, 73, 0
1, 50448, Note_on_c, 0, 81, 84
1, 50471, Note_on_c, 0, 81, 0
1, 50472, Note_on_c, 0, 73, 84
1, 50489, Note_on_c, 1, 69, 0
1, 50495, Note_on_c, 0, 73, 0
1, 50496, Note_on_c, 1, 67, 84
1, 50496, Note_on_c, 1, 55, 84
1, 50520, Note_on_c, 0, 73, 84
1, 50543, Note_on_c, 0, 73, 0
1, 50544, Note_on_c, 0, 85, 84
1, 50567, Note_on_c, 0, 85, 0
1, 50568, Note_on_c, 0, 73, 84
1, 50585, Note_on_c, 1, 67, 0
1, 50585, Note_on_c, 1, 55, 0
1, 50591, Note_on_c, 0, 73, 0
1, 50592, Note_on_c, 1, 66, 84
1, 50592, Note_on_c, 1, 54, 84
1, 50616, Note_on_c, 0, 74, 84
1, 50639, Note_on_c, 0, 74, 0
1, 50640, Note_on_c, 0, 86, 84
1, 50663, Note_on_c, 0, 86, 0
1, 50664, Note_on_c, 0, 74, 84
1, 50681, Note_on_c, 1, 66, 0
1, 50681, Note_on_c, 1, 54, 0
1, 50687, Note_on_c, 0, 74, 0
1, 50688, Note_on_c, 1, 64, 84
1, 50688, Note_on_c, 1, 52, 84
1, 50712, Note_on_c, 0, 67, 84
1, 50735, Note_on_c, 0, 67, 0
1, 50736, Note_on_c, 0, 79, 84
1, 50759, Note_on_c, 0, 79, 0
1, 50760, Note_on_c, 0, 67, 84
1, 50777, Note_on_c, 1, 64, 0
1, 50777, Note_on_c, 1, 52, 0
1, 50783, Note_on_c, 0, 67, 0
1, 50784, Note_on_c, 1, 61, 84
1, 50784, Note_on_c, 1, 49, 84
1, 50808, Note_on_c, 0, 64, 84
1, 50831, Note_on_c, 0, 64, 0
1, 50832, Note_on_c, 0, 76, 84
1, 50855, Note_on_c, 0, 76, 0
1, 50856, Note_on_c, 0, 64, 84
1, 50873, Note_on_c, 1, 61, 0
1, 50873, Note_on_c, 1, 49, 0
1, 50879, Note_on_c, 0, 64, 0
1, 50880, Note_on_c, 1, 62, 84
1, 50880, Note_on_c, 1, 50, 84
1, 50904, Note_on_c, 0, 66, 84
1, 50927, Note_on_c, 0, 66, 0
1, 50928, Note_on_c, 0, 78, 84
1, 50951, Note_on_c, 0, 78, 0
1, 50952, Note_on_c, 0, 66, 84
1, 50969, Note_on_c, 1, 62, 0
1, 50969, Note_on_c, 1, 50, 0
1, 50975, Note_on_c, 0, 66, 0
1, 50976, Note_on_c, 1, 59, 84
1, 50976, Note_on_c, 1, 55, 84
1, 51000, Note_on_c, 0, 71, 84
1, 51023, Note_on_c, 0, 71, 0
1, 51024, Note_on_c, 0, 70, 84
1, 51047, Note_on_c, 0, 70, 0
1, 51048, Note_on_c, 0, 71, 84
1, 51065, Note_on_c, 1, 59, 0
1, 51065, Note_on_c, 1, 55, 0
1, 51071, Note_on_c, 0, 71, 0
1, 51072, Note_on_c, 0, 76, 84
1, 51095, Note_on_c, 0, 76, 0
1, 51096, Note_on_c, 0, 71, 84
1, 51119, Note_on_c, 0, 71, 0
1, 51120, Note_on_c, 0, 70, 84
1, 51143, Note_on_c, 0, 70, 0
1, 51144, Note_on_c, 0, 71, 84
1, 51167, Note_on_c, 0, 71, 0
1, 51168, Note_on_c, 0, 79, 84
1, 51191, Note_on_c, 0, 79, 0
1, 51192, Note_on_c, 0, 71, 84
1, 51215, Note_on_c, 0, 71, 0
1, 51216, Note_on_c, 0, 70, 84
1, 51239, Note_on_c, 0, 70, 0
1, 51240, Note_on_c, 0, 71, 84
1, 51263, Note_on_c, 0, 71, 0
1, 51264, Note_on_c, 0, 81, 84
1, 51360, Note_on_c, 1, 66, 78
1, 51360, Note_on_c, 1, 57, 78
1, 51397, Note_on_c, 0, 81, 0
1, 51408, Note_on_c, 0, 78, 84
1, 51431, Note_on_c, 0, 78, 0
1, 51432, Note_on_c, 0, 74, 84
1, 51449, Note_on_c, 1, 66, 0
1, 51449, Note_on_c, 1, 57, 0
1, 51455, Note_on_c, 0, 74, 0
1, 51456, Note_on_c, 0, 79, 84
1, 51456, Note_on_c, 1, 64, 78
1, 51456, Note_on_c, 1, 57, 78
1, 51501, Note_on_c, 0, 79, 0
1, 51504, Note_on_c, 0, 76, 84
1, 51527, Note_on_c, 0, 76, 0
1, 51528, Note_on_c, 0, 73, 84
1, 51545, Note_on_c, 1, 64, 0
1, 51545, Note_on_c, 1, 57, 0
1, 51551, Note_on_c, 0, 73, 0
1, 51552, Note_on_c, 0, 74, 84
1, 51552, Note_on_c, 1, 62, 78
1, 51552, Note_on_c, 1, 50, 78
1, 51641, Note_on_c, 0, 74, 0
1, 51641, Note_on_c, 1, 62, 0
1, 51641, Note_on_c, 1, 50, 0
1, 51696, Note_on_c, 0, 71, 64
1, 51696, Note_on_c, 1, 66, 64
1, 51708, Note_on_c, 0, 71, 0
1, 51708, Note_on_c, 0, 69, 64
1, 51720, Note_on_c, 0, 69, 0
1, 51720, Note_on_c, 0, 67, 64
1, 51732, Note_on_c, 0, 67, 0
1, 51732, Note_on_c, 0, 69, 64
1, 51741, Note_on_c, 1, 66, 0
1, 51744, Note_on_c, 0, 69, 0
1, 51744, Note_on_c, 0, 71, 64
1, 51744, Note_on_c, 1, 67, 64
1, 51789, Note_on_c, 0, 71, 0
1, 51789, Note_on_c, 1, 67, 0
1, 51792, Note_on_c, 0, 67, 64
1, 51792, Note_on_c, 1, 64, 64
1, 51837, Note_on_c, 0, 67, 0
1, 51837, Note_on_c, 1, 64, 0
1, 51840, Note_on_c, 0, 69, 64
1, 51840, Note_on_c, 1, 66, 64
1, 51885, Note_on_c, 0, 69, 0
1, 51885, Note_on_c, 1, 66, 0
1, 51888, Note_on_c, 0, 66, 64
1, 51888, Note_on_c, 1, 62, 64
1, 51933, Note_on_c, 0, 66, 0
1, 51933, Note_on_c, 1, 62, 0
1, 51936, Note_on_c, 0, 67, 64
1, 51936, Note_on_c, 1, 64, 64
1, 51981, Note_on_c, 0, 67, 0
1, 51981, Note_on_c, 1, 64, 0
1, 51984, Note_on_c, 0, 64, 64
1, 51984, Note_on_c, 1, 57, 64
1, 52029, Note_on_c, 0, 64, 0
1, 52029, Note_on_c, 1, 57, 0
1, 52032, Note_on_c, 0, 66, 65
1, 52032, Note_on_c, 1, 62, 65
1, 52077, Note_on_c, 0, 66, 0
1, 52077, Note_on_c, 1, 62, 0
1, 52080, Note_on_c, 0, 76, 66
1, 52080, Note_on_c, 1, 66, 66
1, 52092, Note_on_c, 0, 76, 0
1, 52092, Note_on_c, 0, 74, 66
1, 52104, Note_on_c, 0, 74, 0
1, 52104, Note_on_c, 0, 73, 66
1, 52116, Note_on_c, 0, 73, 0
1, 52116, Note_on_c, 0, 74, 66
1, 52125, Note_on_c, 1, 66, 0
1, 52128, Note_on_c, 0, 74, 0
1, 52128, Note_on_c, 0, 76, 67
1, 52128, Note_on_c, 1, 67, 68
1, 52173, Note_on_c, 0, 76, 0
1, 52173, Note_on_c, 1, 67, 0
1, 52176, Note_on_c, 0, 73, 69
1, 52176, Note_on_c, 1, 64, 69
1, 52221, Note_on_c, 0, 73, 0
1, 52221, Note_on_c, 1, 64, 0
1, 52224, Note_on_c, 0, 74, 70
1, 52224, Note_on_c, 1, 66, 70
1, 52269, Note_on_c, 0, 74, 0
1, 52269, Note_on_c, 1, 66, 0
1, 52272, Note_on_c, 0, 79, 71
1, 52272, Note_on_c, 1, 69, 72
1, 52284, Note_on_c, 0, 79, 0
1, 52284, Note_on_c, 0, 78, 71
1, 52296, Note_on_c, 0, 78, 0
1, 52296, Note_on_c, 0, 76, 71
1, 52308, Note_on_c, 0, 76, 0
1, 52308, Note_on_c, 0, 78, 71
1, 52317, Note_on_c, 1, 69, 0
1, 52320, Note_on_c, 0, 78, 0
1, 52320, Note_on_c, 0, 79, 72
1, 52320, Note_on_c, 1, 71, 73
1, 52365, Note_on_c, 0, 79, 0
1, 52365, Note_on_c, 1, 71, 0
1, 52368, Note_on_c, 0, 76, 74
1, 52368, Note_on_c, 1, 67, 74
1, 52413, Note_on_c, 0, 76, 0
1, 52413, Note_on_c, 1, 67, 0
1, 52416, Note_on_c, 0, 78, 75
1, 52416, Note_on_c, 1, 69, 76
1, 52461, Note_on_c, 0, 78, 0
1, 52461, Note_on_c, 1, 69, 0
1, 52464, Note_on_c, 0, 81, 76
1, 52464, Note_on_c, 1, 66, 77
1, 52509, Note_on_c, 0, 81, 0
1, 52509, Note_on_c, 1, 66, 0
1, 52512, Note_on_c, 0, 83, 77
1, 52512, Note_on_c, 1, 67, 78
1, 52557, Note_on_c, 0, 83, 0
1, 52557, Note_on_c, 1, 67, 0
1, 52560, Note_on_c, 0, 79, 79
1, 52560, Note_on_c, 1, 76, 80
1, 52605, Note_on_c, 0, 79, 0
1, 52605, Note_on_c, 1, 76, 0
1, 52608, Note_on_c, 0, 81, 80
1, 52608, Note_on_c, 1, 66, 81
1, 52653, Note_on_c, 0, 81, 0
1, 52653, Note_on_c, 1, 66, 0
1, 52656, Note_on_c, 0, 78, 81
1, 52656, Note_on_c, 1, 74, 82
1, 52701, Note_on_c, 0, 78, 0
1, 52701, Note_on_c, 1, 74, 0
1, 52704, Note_on_c, 0, 79, 82
1, 52704, Note_on_c, 1, 64, 84
1, 52749, Note_on_c, 0, 79, 0
1, 52749, Note_on_c, 1, 64, 0
1, 52752, Note_on_c, 0, 76, 84
1, 52752, Note_on_c, 1, 73, 84
1, 52797, Note_on_c, 0, 76, 0
1, 52797, Note_on_c, 1, 73, 0
1, 52800, Note_on_c, 0, 78, 84
1, 52800, Note_on_c, 1, 62, 84
1, 52823, Note_on_c, 0, 78, 0
1, 52824, Note_on_c, 0, 81, 84
1, 52847, Note_on_c, 0, 81, 0
1, 52848, Note_on_c, 0, 78, 84
1, 52871, Note_on_c, 0, 78, 0
1, 52872, Note_on_c, 0, 74, 84
1, 52889, Note_on_c, 1, 62, 0
1, 52895, Note_on_c, 0, 74, 0
1, 52896, Note_on_c, 0, 74, 84
1, 52919, Note_on_c, 0, 74, 0
1, 52920, Note_on_c, 0, 78, 84
1, 52943, Note_on_c, 0, 78, 0
1, 52944, Note_on_c, 0, 74, 84
1, 52967, Note_on_c, 0, 74, 0
1, 52968, Note_on_c, 0, 69, 84
1, 52991, Note_on_c, 0, 69, 0
1, 52992, Note_on_c, 0, 69, 84
1, 53015, Note_on_c, 0, 69, 0
1, 53016, Note_on_c, 0, 74, 84
1, 53039, Note_on_c, 0, 74, 0
1, 53040, Note_on_c, 0, 69, 84
1, 53063, Note_on_c, 0, 69, 0
1, 53064, Note_on_c, 0, 66, 84
1, 53087, Note_on_c, 0, 66, 0
1, 53088, Note_on_c, 0, 66, 84
1, 53111, Note_on_c, 0, 66, 0
1, 53112, Note_on_c, 0, 69, 84
1, 53135, Note_on_c, 0, 69, 0
1, 53136, Note_on_c, 0, 66, 84
1, 53159, Note_on_c, 0, 66, 0
1, 53160, Note_on_c, 0, 62, 84
1, 53183, Note_on_c, 0, 62, 0
1, 53184, Note_on_c, 0, 62, 84
1, 53207, Note_on_c, 0, 62, 0
1, 53208, Note_on_c, 0, 66, 84
1, 53231, Note_on_c, 0, 66, 0
1, 53232, Note_on_c, 0, 62, 84
1, 53255, Note_on_c, 0, 62, 0
1, 53256, Note_on_c, 0, 57, 84
1, 53279, Note_on_c, 0, 57, 0
1, 53280, Note_on_c, 0, 56, 100
1, 53280, Note_on_c, 1, 44, 100
1, 53280, Note_on_c, 1, 32, 100
1, 53376, Note_on_c, 0, 56, 0
1, 53376, Note_on_c, 1, 44, 0
1, 53376, Note_on_c, 1, 32, 0
1, 53376, Note_on_c, 1, 56, 84
1, 53400, Note_on_c, 0, 62, 78
1, 53415, Note_on_c, 1, 56, 0
1, 53423, Note_on_c, 0, 62, 0
1, 53424, Note_on_c, 0, 65, 78
1, 53447, Note_on_c, 0, 65, 0
1, 53448, Note_on_c, 0, 62, 78
1, 53471, Note_on_c, 0, 62, 0
1, 53472, Note_on_c, 1, 62, 84
1, 53496, Note_on_c, 0, 62, 78
1, 53511, Note_on_c, 1, 62, 0
1, 53519, Note_on_c, 0, 62, 0
1, 53520, Note_on_c, 0, 65, 78
1, 53543, Note_on_c, 0, 65, 0
1, 53544, Note_on_c, 0, 62, 78
1, 53567, Note_on_c, 0, 62, 0
1, 53568, Note_on_c, 1, 45, 100
1, 53568, Note_on_c, 1, 33, 100
1, 53592, Note_on_c, 0, 62, 78
1, 53615, Note_on_c, 0, 62, 0
1, 53616, Note_on_c, 0, 65, 78
1, 53639, Note_on_c, 0, 65, 0
1, 53640, Note_on_c, 0, 62, 78
1, 53663, Note_on_c, 0, 62, 0
1, 53664, Note_on_c, 1, 45, 0
1, 53664, Note_on_c, 1, 33, 0
1, 53664, Note_on_c, 1, 57, 84
1, 53688, Note_on_c, 0, 62, 78
1, 53703, Note_on_c, 1, 57, 0
1, 53711, Note_on_c, 0, 62, 0
1, 53712, Note_on_c, 0, 65, 78
1, 53735, Note_on_c, 0, 65, 0
1, 53736, Note_on_c, 0, 62, 78
1, 53759, Note_on_c, 0, 62, 0
1, 53760, Note_on_c, 1, 62, 84
1, 53784, Note_on_c, 0, 62, 78
1, 53799, Note_on_c, 1, 62, 0
1, 53807, Note_on_c, 0, 62, 0
1, 53808, Note_on_c, 0, 65, 78
1, 53831, Note_on_c, 0, 65, 0
1, 53832, Note_on_c, 0, 62, 78
1, 53855, Note_on_c, 0, 62, 0
1, 53856, Note_on_c, 1, 46, 100
1, 53856, Note_on_c, 1, 34, 100
1, 53880, Note_on_c, 0, 62, 78
1, 53903, Note_on_c, 0, 62, 0
1, 53904, Note_on_c, 0, 65, 78
1, 53927, Note_on_c, 0, 65, 0
1, 53928, Note_on_c, 0, 62, 78
1, 53951, Note_on_c, 0, 62, 0
1, 53952, Note_on_c, 1, 46, 0
1, 53952, Note_on_c, 1, 34, 0
1, 53952, Note_on_c, 1, 58, 84
1, 53976, Note_on_c, 0, 62, 78
1, 53991, Note_on_c, 1, 58, 0
1, 53999, Note_on_c, 0, 62, 0
1, 54000, Note_on_c, 0, 74, 78
1, 54023, Note_on_c, 0, 74, 0
1, 54024, Note_on_c, 0, 62, 78
1, 54047, Note_on_c, 0, 62, 0
1, 54048, Note_on_c, 1, 58, 84
1, 54072, Note_on_c, 0, 62, 78
1, 54087, Note_on_c, 1, 58, 0
1, 54095, Note_on_c, 0, 62, 0
1, 54096, Note_on_c, 0, 72, 78
1, 54119, Note_on_c, 0, 72, 0
1, 54120, Note_on_c, 0, 62, 78
1, 54143, Note_on_c, 0, 62, 0
1, 54144, Note_on_c, 1, 58, 84
1, 54168, Note_on_c, 0, 62, 78
1, 54183, Note_on_c, 1, 58, 0
1, 54191, Note_on_c, 0, 62, 0
1, 54192, Note_on_c, 0, 70, 78
1, 54215, Note_on_c, 0, 70, 0
1, 54216, Note_on_c, 0, 62, 78
1, 54239, Note_on_c, 0, 62, 0
1, 54240, Note_on_c, 1, 58, 84
1, 54264, Note_on_c, 0, 62, 78
1, 54279, Note_on_c, 1, 58, 0
1, 54287, Note_on_c, 0, 62, 0
1, 54288, Note_on_c, 0, 69, 78
1, 54311, Note_on_c, 0, 69, 0
1, 54312, Note_on_c, 0, 62, 78
1, 54335, Note_on_c, 0, 62, 0
1, 54336, Note_on_c, 1, 58, 84
1, 54360, Note_on_c, 0, 62, 78
1, 54375, Note_on_c, 1, 58, 0
1, 54383, Note_on_c, 0, 62, 0
1, 54384, Note_on_c, 0, 68, 78
1, 54407, Note_on_c, 0, 68, 0
1, 54408, Note_on_c, 0, 62, 78
1, 54431, Note_on_c, 0, 62, 0
1, 54432, Note_on_c, 1, 57, 84
1, 54456, Note_on_c, 0, 61, 78
1, 54479, Note_on_c, 0, 61, 0
1, 54480, Note_on_c, 0, 69, 78
1, 54503, Note_on_c, 0, 69, 0
1, 54504, Note_on_c, 0, 61, 78
1, 54521, Note_on_c, 1, 57, 0
1, 54527, Note_on_c, 0, 61, 0
1, 54528, Note_on_c, 1, 61, 84
1, 54552, Note_on_c, 0, 64, 78
1, 54575, Note_on_c, 0, 64, 0
1, 54576, Note_on_c, 0, 67, 78
1, 54599, Note_on_c, 0, 67, 0
1, 54600, Note_on_c, 0, 64, 78
1, 54617, Note_on_c, 1, 61, 0
1, 54623, Note_on_c, 0, 64, 0
1, 54624, Note_on_c, 1, 62, 84
1, 54648, Note_on_c, 0, 62, 78
1, 54671, Note_on_c, 0, 62, 0
1, 54672, Note_on_c, 0, 66, 78
1, 54695, Note_on_c, 0, 66, 0
1, 54696, Note_on_c, 0, 62, 78
1, 54713, Note_on_c, 1, 62, 0
1, 54719, Note_on_c, 0, 62, 0
1, 54720, Note_on_c, 1, 55, 84
1, 54720, Note_on_c, 1, 43, 84
1, 54744, Note_on_c, 0, 64, 78
1, 54767, Note_on_c, 0, 64, 0
1, 54768, Note_on_c, 0, 67, 77
1, 54791, Note_on_c, 0, 67, 0
1, 54792, Note_on_c, 0, 64, 77
1, 54809, Note_on_c, 1, 55, 0
1, 54809, Note_on_c, 1, 43, 0
1, 54815, Note_on_c, 0, 64, 0
1, 54816, Note_on_c, 0, 62, 76
1, 54816, Note_on_c, 1, 54, 84
1, 54816, Note_on_c, 1, 45, 84
1, 54905, Note_on_c, 1, 54, 0
1, 54905, Note_on_c, 1, 45, 0
1, 54912, Note_on_c, 1, 52, 84
1, 54912, Note_on_c, 1, 45, 84
1, 54957, Note_on_c, 0, 62, 0
1, 54960, Note_on_c, 0, 61, 73
1, 54972, Note_on_c, 0, 61, 0
1, 54972, Note_on_c, 0, 62, 73
1, 54984, Note_on_c, 0, 62, 0
1, 54984, Note_on_c, 0, 61, 73
1, 55001, Note_on_c, 1, 52, 0
1, 55001, Note_on_c, 1, 45, 0
1, 55005, Note_on_c, 0, 61, 0
1, 55008, Note_on_c, 0, 62, 72
1, 55008, Note_on_c, 1, 54, 84
1, 55031, Note_on_c, 1, 54, 0
1, 55032, Note_on_c, 1, 62, 84
1, 55055, Note_on_c, 1, 62, 0
1, 55056, Note_on_c, 1, 61, 84
1, 55079, Note_on_c, 1, 61, 0
1, 55080, Note_on_c, 1, 62, 84
1, 55097, Note_on_c, 0, 62, 0
1, 55103, Note_on_c, 1, 62, 0
1, 55104, Note_on_c, 0, 86, 84
1, 55104, Note_on_c, 1, 54, 84
1, 55127, Note_on_c, 1, 54, 0
1, 55128, Note_on_c, 1, 62, 84
1, 55151, Note_on_c, 1, 62, 0
1, 55152, Note_on_c, 1, 61, 84
1, 55175, Note_on_c, 1, 61, 0
1, 55176, Note_on_c, 1, 62, 84
1, 55193, Note_on_c, 0, 86, 0
1, 55199, Note_on_c, 1, 62, 0
1, 55200, Note_on_c, 0, 85, 84
1, 55200, Note_on_c, 1, 54, 84
1, 55223, Note_on_c, 1, 54, 0
1, 55224, Note_on_c, 1, 62, 84
1, 55247, Note_on_c, 1, 62, 0
1, 55248, Note_on_c, 1, 61, 84
1, 55271, Note_on_c, 1, 61, 0
1, 55272, Note_on_c, 1, 62, 84
1, 55289, Note_on_c, 0, 85, 0
1, 55295, Note_on_c, 1, 62, 0
1, 55296, Note_on_c, 0, 85, 84
1, 55296, Note_on_c, 1, 55, 78
1, 55308, Note_on_c, 0, 85, 0
1, 55308, Note_on_c, 0, 83, 84
1, 55319, Note_on_c, 1, 55, 0
1, 55320, Note_on_c, 0, 83, 0
1, 55320, Note_on_c, 0, 82, 84
1, 55320, Note_on_c, 1, 62, 77
1, 55332, Note_on_c, 0, 82, 0
1, 55332, Note_on_c, 0, 83, 84
1, 55343, Note_on_c, 1, 62, 0
1, 55344, Note_on_c, 1, 61, 76
1, 55367, Note_on_c, 1, 61, 0
1, 55368, Note_on_c, 1, 62, 76
1, 55385, Note_on_c, 0, 83, 0
1, 55391, Note_on_c, 1, 62, 0
1, 55392, Note_on_c, 0, 81, 84
1, 55392, Note_on_c, 1, 55, 75
1, 55404, Note_on_c, 0, 81, 0
1, 55404, Note_on_c, 0, 79, 84
1, 55415, Note_on_c, 1, 55, 0
1, 55416, Note_on_c, 0, 79, 0
1, 55416, Note_on_c, 0, 78, 84
1, 55416, Note_on_c, 1, 64, 75
1, 55428, Note_on_c, 0, 78, 0
1, 55428, Note_on_c, 0, 79, 84
1, 55439, Note_on_c, 1, 64, 0
1, 55440, Note_on_c, 1, 63, 74
1, 55463, Note_on_c, 1, 63, 0
1, 55464, Note_on_c, 1, 64, 73
1, 55481, Note_on_c, 0, 79, 0
1, 55487, Note_on_c, 1, 64, 0
1, 55488, Note_on_c, 0, 78, 84
1, 55488, Note_on_c, 1, 55, 73
1, 55494, Note_on_c, 0, 78, 0
1, 55494, Note_on_c, 0, 76, 84
1, 55500, Note_on_c, 0, 76, 0
1, 55500, Note_on_c, 0, 75, 84
1, 55506, Note_on_c, 0, 75, 0
1, 55506, Note_on_c, 0, 76, 84
1, 55511, Note_on_c, 1, 55, 0
1, 55512, Note_on_c, 1, 64, 72
1, 55535, Note_on_c, 1, 64, 0
1, 55536, Note_on_c, 1, 63, 72
1, 55559, Note_on_c, 1, 63, 0
1, 55560, Note_on_c, 1, 64, 71
1, 55577, Note_on_c, 0, 76, 0
1, 55583, Note_on_c, 1, 64, 0
1, 55584, Note_on_c, 0, 69, 78
1, 55584, Note_on_c, 1, 57, 71
1, 55607, Note_on_c, 1, 57, 0
1, 55608, Note_on_c, 1, 66, 70
1, 55631, Note_on_c, 1, 66, 0
1, 55632, Note_on_c, 1, 62, 69
1, 55655, Note_on_c, 1, 62, 0
1, 55656, Note_on_c, 1, 66, 69
1, 55673, Note_on_c, 0, 69, 0
1, 55679, Note_on_c, 1, 66, 0
1, 55680, Note_on_c, 0, 78, 73
1, 55680, Note_on_c, 1, 57, 68
1, 55693, Note_on_c, 0, 78, 0
1, 55694, Note_on_c, 0, 76, 72
1, 55703, Note_on_c, 1, 57, 0
1, 55704, Note_on_c, 1, 67, 68
1, 55707, Note_on_c, 0, 76, 0
1, 55708, Note_on_c, 0, 78, 72
1, 55721, Note_on_c, 0, 78, 0
1, 55722, Note_on_c, 0, 76, 71
1, 55727, Note_on_c, 1, 67, 0
1, 55728, Note_on_c, 1, 64, 67
1, 55735, Note_on_c, 0, 76, 0
1, 55736, Note_on_c, 0, 78, 71
1, 55749, Note_on_c, 0, 78, 0
1, 55750, Note_on_c, 0, 76, 70
1, 55751, Note_on_c, 1, 64, 0
1, 55752, Note_on_c, 1, 67, 66
1, 55763, Note_on_c, 0, 76, 0
1, 55764, Note_on_c, 0, 78, 69
1, 55775, Note_on_c, 1, 67, 0
1, 55776, Note_on_c, 1, 57, 66
1, 55777, Note_on_c, 0, 78, 0
1, 55778, Note_on_c, 0, 76, 69
1, 55791, Note_on_c, 0, 76, 0
1, 55792, Note_on_c, 0, 78, 68
1, 55799, Note_on_c, 1, 57, 0
1, 55800, Note_on_c, 1, 67, 65
1, 55805, Note_on_c, 0, 78, 0
1, 55806, Note_on_c, 0, 76, 68
1, 55819, Note_on_c, 0, 76, 0
1, 55820, Note_on_c, 0, 74, 67
1, 55823, Note_on_c, 1, 67, 0
1, 55824, Note_on_c, 1, 64, 65
1, 55845, Note_on_c, 0, 74, 0
1, 55847, Note_on_c, 0, 76, 66
1, 55847, Note_on_c, 1, 64, 0
1, 55848, Note_on_c, 1, 67, 64
1, 55871, Note_on_c, 1, 67, 0
1, 55872, Note_on_c, 0, 76, 0
1, 55872, Note_on_c, 1, 66, 64
1, 55872, Note_on_c, 1, 59, 64
1, 55874, Note_on_c, 0, 74, 64
1, 56027, Note_on_c, 1, 66, 0
1, 56027, Note_on_c, 1, 59, 0
1, 56029, Note_on_c, 0, 74, 0
1, 56160, Note_on_c, 1, 55, 64
1, 56160, Note_on_c, 1, 49, 64
1, 56210, Note_on_c, 0, 81, 64
1, 56255, Note_on_c, 0, 81, 0
1, 56258, Note_on_c, 0, 69, 65
1, 56293, Note_on_c, 1, 55, 0
1, 56293, Note_on_c, 1, 49, 0
1, 56304, Note_on_c, 1, 52, 66
1, 56304, Note_on_c, 1, 52, 66
1, 56306, Note_on_c, 0, 69, 0
1, 56306, Note_on_c, 0, 73, 66
1, 56349, Note_on_c, 1, 52, 0
1, 56349, Note_on_c, 1, 52, 0
1, 56351, Note_on_c, 0, 73, 0
1, 56352, Note_on_c, 1, 54, 67
1, 56354, Note_on_c, 0, 74, 67
1, 56397, Note_on_c, 1, 54, 0
1, 56399, Note_on_c, 0, 74, 0
1, 56400, Note_on_c, 1, 62, 68
1, 56445, Note_on_c, 1, 62, 0
1, 56448, Note_on_c, 1, 61, 69
1, 56448, Note_on_c, 1, 55, 69
1, 56498, Note_on_c, 0, 81, 69
1, 56543, Note_on_c, 0, 81, 0
1, 56546, Note_on_c, 0, 69, 70
1, 56581, Note_on_c, 1, 61, 0
1, 56592, Note_on_c, 1, 64, 71
1, 56594, Note_on_c, 0, 69, 0
1, 56594, Note_on_c, 0, 73, 71
1, 56625, Note_on_c, 1, 55, 0
1, 56637, Note_on_c, 1, 64, 0
1, 56639, Note_on_c, 0, 73, 0
1, 56640, Note_on_c, 1, 62, 72
1, 56640, Note_on_c, 1, 54, 72
1, 56642, Note_on_c, 0, 74, 72
1, 56685, Note_on_c, 1, 62, 0
1, 56687, Note_on_c, 0, 74, 0
1, 56688, Note_on_c, 1, 66, 73
1, 56729, Note_on_c, 1, 54, 0
1, 56733, Note_on_c, 1, 66, 0
1, 56736, Note_on_c, 1, 67, 74
1, 56736, Note_on_c, 1, 61, 74
1, 56786, Note_on_c, 0, 81, 74
1, 56831, Note_on_c, 0, 81, 0
1, 56834, Note_on_c, 0, 69, 75
1, 56869, Note_on_c, 1, 67, 0
1, 56869, Note_on_c, 1, 61, 0
1, 56880, Note_on_c, 1, 64, 76
1, 56880, Note_on_c, 1, 64, 76
1, 56882, Note_on_c, 0, 69, 0
1, 56882, Note_on_c, 0, 73, 76
1, 56925, Note_on_c, 1, 64, 0
1, 56925, Note_on_c, 1, 64, 0
1, 56927, Note_on_c, 0, 73, 0
1, 56928, Note_on_c, 1, 66, 77
1, 56928, Note_on_c, 1, 66, 77
1, 56930, Note_on_c, 0, 74, 77
1, 56973, Note_on_c, 1, 66, 0
1, 56973, Note_on_c, 1, 66, 0
1, 56975, Note_on_c, 0, 74, 0
1, 56976, Note_on_c, 1, 62, 78
1, 56976, Note_on_c, 1, 54, 78
1, 57021, Note_on_c, 1, 62, 0
1, 57021, Note_on_c, 1, 54, 0
1, 57024, Note_on_c, 1, 61, 79
1, 57024, Note_on_c, 1, 52, 79
1, 57074, Note_on_c, 0, 81, 79
1, 57119, Note_on_c, 0, 81, 0
1, 57122, Note_on_c, 0, 69, 80
1, 57157, Note_on_c, 1, 61, 0
1, 57157, Note_on_c, 1, 52, 0
1, 57168, Note_on_c, 1, 64, 81
1, 57168, Note_on_c, 1, 55, 81
1, 57170, Note_on_c, 0, 69, 0
1, 57170, Note_on_c, 0, 73, 81
1, 57213, Note_on_c, 1, 64, 0
1, 57213, Note_on_c, 1, 55, 0
1, 57215, Note_on_c, 0, 73, 0
1, 57216, Note_on_c, 1, 62, 82
1, 57216, Note_on_c, 1, 54, 82
1, 57218, Note_on_c, 0, 74, 82
1, 57305, Note_on_c, 1, 62, 0
1, 57305, Note_on_c, 1, 54, 0
1, 57307, Note_on_c, 0, 74, 0
1, 57312, Note_on_c, 1, 62, 84
1, 57312, Note_on_c, 1, 59, 84
1, 57312, Note_on_c, 1, 55, 84
1, 57314, Note_on_c, 0, 83, 84
1, 57337, Note_on_c, 0, 83, 0
1, 57338, Note_on_c, 0, 86, 84
1, 57361, Note_on_c, 0, 86, 0
1, 57362, Note_on_c, 0, 83, 84
1, 57385, Note_on_c, 0, 83, 0
1, 57386, Note_on_c, 0, 79, 84
1, 57401, Note_on_c, 1, 62, 0
1, 57401, Note_on_c, 1, 59, 0
1, 57401, Note_on_c, 1, 55, 0
1, 57409, Note_on_c, 0, 79, 0
1, 57410, Note_on_c, 0, 79, 84
1, 57433, Note_on_c, 0, 79, 0
1, 57434, Note_on_c, 0, 83, 84
1, 57457, Note_on_c, 0, 83, 0
1, 57458, Note_on_c, 0, 79, 84
1, 57481, Note_on_c, 0, 79, 0
1, 57482, Note_on_c, 0, 74, 84
1, 57505, Note_on_c, 0, 74, 0
1, 57506, Note_on_c, 0, 74, 84
1, 57529, Note_on_c, 0, 74, 0
1, 57530, Note_on_c, 0, 79, 84
1, 57553, Note_on_c, 0, 79, 0
1, 57554, Note_on_c, 0, 74, 84
1, 57577, Note_on_c, 0, 74, 0
1, 57578, Note_on_c, 0, 71, 84
1, 57600, Note_on_c, 1, 65, 84
1, 57600, Note_on_c, 1, 62, 84
1, 57600, Note_on_c, 1, 59, 84
1, 57600, Note_on_c, 1, 56, 84
1, 57601, Note_on_c, 0, 71, 0
1, 57602, Note_on_c, 0, 83, 84
1, 57625, Note_on_c, 0, 83, 0
1, 57626, Note_on_c, 0, 86, 84
1, 57649, Note_on_c, 0, 86, 0
1, 57650, Note_on_c, 0, 83, 84
1, 57673, Note_on_c, 0, 83, 0
1, 57674, Note_on_c, 0, 80, 84
1, 57689, Note_on_c, 1, 65, 0
1, 57689, Note_on_c, 1, 62, 0
1, 57689, Note_on_c, 1, 59, 0
1, 57689, Note_on_c, 1, 56, 0
1, 57697, Note_on_c, 0, 80, 0
1, 57698, Note_on_c, 0, 80, 84
1, 57721, Note_on_c, 0, 80, 0
1, 57722, Note_on_c, 0, 83, 84
1, 57745, Note_on_c, 0, 83, 0
1, 57746, Note_on_c, 0, 80, 84
1, 57769, Note_on_c, 0, 80, 0
1, 57770, Note_on_c, 0, 77, 84
1, 57793, Note_on_c, 0, 77, 0
1, 57794, Note_on_c, 0, 77, 84
1, 57817, Note_on_c, 0, 77, 0
1, 57818, Note_on_c, 0, 80, 84
1, 57841, Note_on_c, 0, 80, 0
1, 57842, Note_on_c, 0, 77, 84
1, 57865, Note_on_c, 0, 77, 0
1, 57866, Note_on_c, 0, 74, 84
1, 57888, Note_on_c, 1, 57, 84
1, 57889, Note_on_c, 0, 74, 0
1, 57890, Note_on_c, 0, 69, 84
1, 57911, Note_on_c, 1, 57, 0
1, 57912, Note_on_c, 1, 66, 84
1, 57935, Note_on_c, 1, 66, 0
1, 57936, Note_on_c, 1, 62, 84
1, 57959, Note_on_c, 1, 62, 0
1, 57960, Note_on_c, 1, 66, 84
1, 57979, Note_on_c, 0, 69, 0
1, 57983, Note_on_c, 1, 66, 0
1, 57984, Note_on_c, 1, 57, 84
1, 57986, Note_on_c, 0, 78, 84
1, 57999, Note_on_c, 0, 78, 0
1, 58000, Note_on_c, 0, 76, 84
1, 58007, Note_on_c, 1, 57, 0
1, 58008, Note_on_c, 1, 67, 84
1, 58013, Note_on_c, 0, 76, 0
1, 58014, Note_on_c, 0, 78, 84
1, 58027, Note_on_c, 0, 78, 0
1, 58028, Note_on_c, 0, 76, 84
1, 58031, Note_on_c, 1, 67, 0
1, 58032, Note_on_c, 1, 64, 84
1, 58041, Note_on_c, 0, 76, 0
1, 58042, Note_on_c, 0, 78, 84
1, 58055, Note_on_c, 0, 78, 0
1, 58055, Note_on_c, 1, 64, 0
1, 58056, Note_on_c, 0, 76, 84
1, 58056, Note_on_c, 1, 67, 84
1, 58069, Note_on_c, 0, 76, 0
1, 58070, Note_on_c, 0, 78, 84
1, 58079, Note_on_c, 1, 67, 0
1, 58080, Note_on_c, 1, 57, 84
1, 58083, Note_on_c, 0, 78, 0
1, 58084, Note_on_c, 0, 76, 84
1, 58097, Note_on_c, 0, 76, 0
1, 58098, Note_on_c, 0, 78, 84
1, 58103, Note_on_c, 1, 57, 0
1, 58104, Note_on_c, 1, 67, 82
1, 58111, Note_on_c, 0, 78, 0
1, 58112, Note_on_c, 0, 76, 84
1, 58125, Note_on_c, 0, 76, 0
1, 58126, Note_on_c, 0, 78, 84
1, 58127, Note_on_c, 1, 67, 0
1, 58128, Note_on_c, 1, 64, 81
1, 58138, Note_on_c, 0, 78, 0
1, 58139, Note_on_c, 0, 76, 84
1, 58151, Note_on_c, 0, 76, 0
1, 58151, Note_on_c, 1, 64, 0
1, 58152, Note_on_c, 0, 74, 84
1, 58152, Note_on_c, 1, 67, 79
1, 58164, Note_on_c, 0, 74, 0
1, 58165, Note_on_c, 0, 76, 84
1, 58175, Note_on_c, 1, 67, 0
1, 58176, Note_on_c, 1, 54, 78
1, 58177, Note_on_c, 0, 76, 0
1, 58178, Note_on_c, 0, 74, 84
1, 58199, Note_on_c, 1, 54, 0
1, 58200, Note_on_c, 1, 62, 78
1, 58223, Note_on_c, 1, 62, 0
1, 58224, Note_on_c, 1, 61, 78
1, 58247, Note_on_c, 1, 61, 0
1, 58248, Note_on_c, 1, 62, 78
1, 58267, Note_on_c, 0, 74, 0
1, 58271, Note_on_c, 1, 62, 0
1, 58272, Note_on_c, 1, 54, 78
1, 58274, Note_on_c, 0, 86, 84
1, 58295, Note_on_c, 1, 54, 0
1, 58296, Note_on_c, 1, 62, 78
1, 58297, Note_on_c, 0, 86, 0
1, 58298, Note_on_c, 0, 85, 84
1, 58319, Note_on_c, 1, 62, 0
1, 58320, Note_on_c, 1, 61, 78
1, 58321, Note_on_c, 0, 85, 0
1, 58322, Note_on_c, 0, 83, 84
1, 58343, Note_on_c, 1, 61, 0
1, 58344, Note_on_c, 1, 62, 78
1, 58345, Note_on_c, 0, 83, 0
1, 58346, Note_on_c, 0, 81, 84
1, 58367, Note_on_c, 1, 62, 0
1, 58368, Note_on_c, 1, 54, 78
1, 58369, Note_on_c, 0, 81, 0
1, 58370, Note_on_c, 0, 79, 84
1, 58391, Note_on_c, 1, 54, 0
1, 58392, Note_on_c, 1, 62, 78
1, 58393, Note_on_c, 0, 79, 0
1, 58394, Note_on_c, 0, 78, 84
1, 58415, Note_on_c, 1, 62, 0
1, 58416, Note_on_c, 1, 61, 78
1, 58417, Note_on_c, 0, 78, 0
1, 58418, Note_on_c, 0, 76, 84
1, 58439, Note_on_c, 1, 61, 0
1, 58440, Note_on_c, 1, 62, 78
1, 58441, Note_on_c, 0, 76, 0
1, 58442, Note_on_c, 0, 74, 84
1, 58463, Note_on_c, 1, 62, 0
1, 58464, Note_on_c, 1, 55, 78
1, 58465, Note_on_c, 0, 74, 0
1, 58466, Note_on_c, 0, 83, 84
1, 58487, Note_on_c, 1, 55, 0
1, 58488, Note_on_c, 1, 62, 78
1, 58511, Note_on_c, 1, 62, 0
1, 58512, Note_on_c, 1, 61, 78
1, 58535, Note_on_c, 1, 61, 0
1, 58536, Note_on_c, 1, 62, 78
1, 58555, Note_on_c, 0, 83, 0
1, 58559, Note_on_c, 1, 62, 0
1, 58560, Note_on_c, 1, 55, 78
1, 58562, Note_on_c, 0, 81, 84
1, 58580, Note_on_c, 0, 81, 0
1, 58580, Note_on_c, 0, 79, 84
1, 58583, Note_on_c, 1, 55, 0
1, 58584, Note_on_c, 1, 64, 78
1, 58607, Note_on_c, 1, 64, 0
1, 58608, Note_on_c, 1, 63, 78
1, 58631, Note_on_c, 1, 63, 0
1, 58632, Note_on_c, 1, 64, 78
1, 58651, Note_on_c, 0, 79, 0
1, 58655, Note_on_c, 1, 64, 0
1, 58656, Note_on_c, 1, 55, 78
1, 58658, Note_on_c, 0, 78, 84
1, 58676, Note_on_c, 0, 78, 0
1, 58676, Note_on_c, 0, 76, 84
1, 58679, Note_on_c, 1, 55, 0
1, 58680, Note_on_c, 1, 64, 78
1, 58703, Note_on_c, 1, 64, 0
1, 58704, Note_on_c, 1, 63, 78
1, 58727, Note_on_c, 1, 63, 0
1, 58728, Note_on_c, 1, 64, 78
1, 58747, Note_on_c, 0, 76, 0
1, 58751, Note_on_c, 1, 64, 0
1, 58752, Note_on_c, 1, 57, 78
1, 58754, Note_on_c, 0, 69, 84
1, 58775, Note_on_c, 1, 57, 0
1, 58776, Note_on_c, 1, 66, 78
1, 58799, Note_on_c, 1, 66, 0
1, 58800, Note_on_c, 1, 62, 78
1, 58823, Note_on_c, 1, 62, 0
1, 58824, Note_on_c, 1, 66, 78
1, 58843, Note_on_c, 0, 69, 0
1, 58847, Note_on_c, 1, 66, 0
1, 58848, Note_on_c, 1, 57, 78
1, 58850, Note_on_c, 0, 78, 84
1, 58863, Note_on_c, 0, 78, 0
1, 58864, Note_on_c, 0, 76, 84
1, 58871, Note_on_c, 1, 57, 0
1, 58872, Note_on_c, 1, 67, 78
1, 58877, Note_on_c, 0, 76, 0
1, 58878, Note_on_c, 0, 78, 84
1, 58891, Note_on_c, 0, 78, 0
1, 58892, Note_on_c, 0, 76, 84
1, 58895, Note_on_c, 1, 67, 0
1, 58896, Note_on_c, 1, 64, 78
1, 58905, Note_on_c, 0, 76, 0
1, 58906, Note_on_c, 0, 78, 84
1, 58919, Note_on_c, 0, 78, 0
1, 58919, Note_on_c, 1, 64, 0
1, 58920, Note_on_c, 0, 76, 84
1, 58920, Note_on_c, 1, 67, 78
1, 58933, Note_on_c, 0, 76, 0
1, 58934, Note_on_c, 0, 78, 84
1, 58943, Note_on_c, 1, 67, 0
1, 58944, Note_on_c, 1, 57, 78
1, 58947, Note_on_c, 0, 78, 0
1, 58948, Note_on_c, 0, 76, 84
1, 58961, Note_on_c, 0, 76, 0
1, 58962, Note_on_c, 0, 78, 84
1, 58967, Note_on_c, 1, 57, 0
1, 58968, Note_on_c, 1, 67, 78
1, 58975, Note_on_c, 0, 78, 0
1, 58976, Note_on_c, 0, 76, 84
1, 58989, Note_on_c, 0, 76, 0
1, 58990, Note_on_c, 0, 78, 84
1, 58991, Note_on_c, 1, 67, 0
1, 58992, Note_on_c, 1, 64, 78
1, 59002, Note_on_c, 0, 78, 0
1, 59003, Note_on_c, 0, 76, 84
1, 59015, Note_on_c, 0, 76, 0
1, 59015, Note_on_c, 1, 64, 0
1, 59016, Note_on_c, 0, 74, 84
1, 59016, Note_on_c, 1, 67, 78
1, 59028, Note_on_c, 0, 74, 0
1, 59029, Note_on_c, 0, 76, 84
1, 59039, Note_on_c, 1, 67, 0
1, 59040, Note_on_c, 1, 66, 78
1, 59040, Note_on_c, 1, 62, 78
1, 59041, Note_on_c, 0, 76, 0
1, 59042, Note_on_c, 0, 74, 84
1, 59065, Note_on_c, 0, 74, 0
1, 59066, Note_on_c, 0, 81, 84
1, 59089, Note_on_c, 0, 81, 0
1, 59090, Note_on_c, 0, 78, 84
1, 59113, Note_on_c, 0, 78, 0
1, 59114, Note_on_c, 0, 74, 84
1, 59129, Note_on_c, 1, 66, 0
1, 59129, Note_on_c, 1, 62, 0
1, 59137, Note_on_c, 0, 74, 0
1, 59138, Note_on_c, 0, 69, 84
1, 59183, Note_on_c, 0, 69, 0
1, 59184, Note_on_c, 1, 62, 78
1, 59186, Note_on_c, 0, 66, 84
1, 59204, Note_on_c, 1, 62, 0
1, 59206, Note_on_c, 0, 66, 0
1, 59232, Note_on_c, 1, 61, 78
1, 59234, Note_on_c, 0, 64, 84
1, 59252, Note_on_c, 1, 61, 0
1, 59254, Note_on_c, 0, 64, 0
1, 59280, Note_on_c, 1, 57, 78
1, 59282, Note_on_c, 0, 67, 84
1, 59300, Note_on_c, 1, 57, 0
1, 59302, Note_on_c, 0, 67, 0
1, 59328, Note_on_c, 1, 62, 78
1, 59330, Note_on_c, 0, 66, 84
1, 59353, Note_on_c, 0, 66, 0
1, 59354, Note_on_c, 0, 69, 84
1, 59367, Note_on_c, 1, 62, 0
1, 59377, Note_on_c, 0, 69, 0
1, 59378, Note_on_c, 0, 74, 84
1, 59401, Note_on_c, 0, 74, 0
1, 59402, Note_on_c, 0, 78, 84
1, 59425, Note_on_c, 0, 78, 0
1, 59426, Note_on_c, 0, 81, 84
1, 59471, Note_on_c, 0, 81, 0
1, 59472, Note_on_c, 1, 62, 78
1, 59474, Note_on_c, 0, 66, 84
1, 59492, Note_on_c, 1, 62, 0
1, 59494, Note_on_c, 0, 66, 0
1, 59520, Note_on_c, 1, 64, 78
1, 59522, Note_on_c, 0, 67, 84
1, 59540, Note_on_c, 1, 64, 0
1, 59542, Note_on_c, 0, 67, 0
1, 59568, Note_on_c, 1, 64, 78
1, 59568, Note_on_c, 1, 57, 78
1, 59570, Note_on_c, 0, 73, 84
1, 59570, Note_on_c, 0, 67, 84
1, 59588, Note_on_c, 1, 64, 0
1, 59588, Note_on_c, 1, 57, 0
1, 59590, Note_on_c, 0, 73, 0
1, 59590, Note_on_c, 0, 67, 0
1, 59616, Note_on_c, 1, 62, 78
1, 59618, Note_on_c, 0, 74, 84
1, 59618, Note_on_c, 0, 66, 84
1, 59705, Note_on_c, 1, 62, 0
1, 59707, Note_on_c, 0, 74, 0
1, 59707, Note_on_c, 0, 66, 0
1, 59810, Note_on_c, 0, 76, 78
1, 59816, Note_on_c, 0, 76, 0
1, 59816, Note_on_c, 0, 76, 78
1, 59830, Note_on_c, 0, 76, 0
1, 59858, Note_on_c, 0, 78, 81
1, 59864, Note_on_c, 0, 78, 0
1, 59864, Note_on_c, 0, 76, 81
1, 59870, Note_on_c, 0, 76, 0
1, 59870, Note_on_c, 0, 74, 81
1, 59876, Note_on_c, 0, 74, 0
1, 59876, Note_on_c, 0, 76, 82
1, 59882, Note_on_c, 0, 76, 0
1, 59882, Note_on_c, 0, 81, 82
1, 59904, Note_on_c, 1, 57, 78
1, 59905, Note_on_c, 0, 81, 0
1, 59906, Note_on_c, 0, 79, 100
1, 59952, Note_on_c, 1, 61, 78
1, 59997, Note_on_c, 1, 61, 0
1, 60000, Note_on_c, 1, 64, 79
1, 60045, Note_on_c, 1, 64, 0
1, 60047, Note_on_c, 0, 79, 0
1, 60048, Note_on_c, 1, 61, 80
1, 60050, Note_on_c, 0, 76, 81
1, 60093, Note_on_c, 1, 61, 0
1, 60095, Note_on_c, 0, 76, 0
1, 60096, Note_on_c, 1, 62, 81
1, 60098, Note_on_c, 0, 78, 80
1, 60141, Note_on_c, 1, 62, 0
1, 60143, Note_on_c, 0, 78, 0
1, 60144, Note_on_c, 1, 66, 82
1, 60146, Note_on_c, 0, 74, 79
1, 60189, Note_on_c, 1, 66, 0
1, 60191, Note_on_c, 0, 74, 0
1, 60192, Note_on_c, 1, 67, 84
1, 60194, Note_on_c, 0, 73, 78
1, 60239, Note_on_c, 0, 73, 0
1, 60242, Note_on_c, 0, 69, 78
1, 60287, Note_on_c, 0, 69, 0
1, 60290, Note_on_c, 0, 76, 79
1, 60333, Note_on_c, 1, 67, 0
1, 60335, Note_on_c, 0, 76, 0
1, 60336, Note_on_c, 1, 64, 81
1, 60338, Note_on_c, 0, 73, 80
1, 60381, Note_on_c, 1, 64, 0
1, 60383, Note_on_c, 0, 73, 0
1, 60384, Note_on_c, 1, 66, 80
1, 60386, Note_on_c, 0, 74, 81
1, 60429, Note_on_c, 1, 66, 0
1, 60431, Note_on_c, 0, 74, 0
1, 60432, Note_on_c, 1, 62, 79
1, 60434, Note_on_c, 0, 78, 82
1, 60477, Note_on_c, 1, 62, 0
1, 60479, Note_on_c, 0, 78, 0
1, 60480, Note_on_c, 1, 61, 78
1, 60482, Note_on_c, 0, 79, 100
1, 60525, Note_on_c, 1, 61, 0
1, 60528, Note_on_c, 1, 57, 79
1, 60573, Note_on_c, 1, 57, 0
1, 60576, Note_on_c, 1, 64, 80
1, 60621, Note_on_c, 1, 64, 0
1, 60623, Note_on_c, 0, 79, 0
1, 60624, Note_on_c, 1, 61, 81
1, 60626, Note_on_c, 0, 76, 81
1, 60669, Note_on_c, 1, 61, 0
1, 60671, Note_on_c, 0, 76, 0
1, 60672, Note_on_c, 1, 62, 82
1, 60674, Note_on_c, 0, 78, 80
1, 60717, Note_on_c, 1, 62, 0
1, 60719, Note_on_c, 0, 78, 0
1, 60720, Note_on_c, 1, 66, 83
1, 60722, Note_on_c, 0, 74, 79
1, 60765, Note_on_c, 1, 66, 0
1, 60767, Note_on_c, 0, 74, 0
1, 60768, Note_on_c, 1, 67, 84
1, 60770, Note_on_c, 0, 73, 78
1, 60815, Note_on_c, 0, 73, 0
1, 60818, Note_on_c, 0, 69, 79
1, 60863, Note_on_c, 0, 69, 0
1, 60866, Note_on_c, 0, 76, 80
1, 60909, Note_on_c, 1, 67, 0
1, 60911, Note_on_c, 0, 76, 0
1, 60912, Note_on_c, 1, 64, 81
1, 60914, Note_on_c, 0, 73, 81
1, 60957, Note_on_c, 1, 64, 0
1, 60959, Note_on_c, 0, 73, 0
1, 60960, Note_on_c, 1, 66, 80
1, 60962, Note_on_c, 0, 74, 82
1, 61007, Note_on_c, 0, 74, 0
1, 61010, Note_on_c, 0, 86, 83
1, 61033, Note_on_c, 1, 57, 0
1, 61049, Note_on_c, 1, 66, 0
1, 61055, Note_on_c, 0, 86, 0
1, 61056, Note_on_c, 1, 62, 78
1, 61058, Note_on_c, 0, 84, 100
1, 61104, Note_on_c, 1, 66, 78
1, 61149, Note_on_c, 1, 66, 0
1, 61152, Note_on_c, 1, 69, 79
1, 61197, Note_on_c, 1, 69, 0
1, 61199, Note_on_c, 0, 84, 0
1, 61200, Note_on_c, 1, 66, 80
1, 61202, Note_on_c, 0, 81, 81
1, 61245, Note_on_c, 1, 66, 0
1, 61247, Note_on_c, 0, 81, 0
1, 61248, Note_on_c, 1, 67, 81
1, 61250, Note_on_c, 0, 83, 80
1, 61293, Note_on_c, 1, 67, 0
1, 61295, Note_on_c, 0, 83, 0
1, 61296, Note_on_c, 1, 71, 82
1, 61298, Note_on_c, 0, 79, 79
1, 61341, Note_on_c, 1, 71, 0
1, 61343, Note_on_c, 0, 79, 0
1, 61344, Note_on_c, 1, 72, 84
1, 61346, Note_on_c, 0, 78, 78
1, 61391, Note_on_c, 0, 78, 0
1, 61394, Note_on_c, 0, 74, 79
1, 61439, Note_on_c, 0, 74, 0
1, 61442, Note_on_c, 0, 81, 80
1, 61485, Note_on_c, 1, 72, 0
1, 61487, Note_on_c, 0, 81, 0
1, 61488, Note_on_c, 1, 69, 81
1, 61490, Note_on_c, 0, 78, 81
1, 61533, Note_on_c, 1, 69, 0
1, 61535, Note_on_c, 0, 78, 0
1, 61536, Note_on_c, 1, 71, 80
1, 61538, Note_on_c, 0, 79, 82
1, 61581, Note_on_c, 1, 71, 0
1, 61583, Note_on_c, 0, 79, 0
1, 61584, Note_on_c, 1, 67, 79
1, 61586, Note_on_c, 0, 83, 83
1, 61629, Note_on_c, 1, 67, 0
1, 61631, Note_on_c, 0, 83, 0
1, 61632, Note_on_c, 1, 66, 78
1, 61634, Note_on_c, 0, 84, 100
1, 61677, Note_on_c, 1, 66, 0
1, 61680, Note_on_c, 1, 62, 79
1, 61725, Note_on_c, 1, 62, 0
1, 61728, Note_on_c, 1, 69, 80
1, 61773, Note_on_c, 1, 69, 0
1, 61775, Note_on_c, 0, 84, 0
1, 61776, Note_on_c, 1, 66, 81
1, 61778, Note_on_c, 0, 81, 81
1, 61821, Note_on_c, 1, 66, 0
1, 61823, Note_on_c, 0, 81, 0
1, 61824, Note_on_c, 1, 67, 82
1, 61826, Note_on_c, 0, 83, 80
1, 61869, Note_on_c, 1, 67, 0
1, 61871, Note_on_c, 0, 83, 0
1, 61872, Note_on_c, 1, 71, 83
1, 61874, Note_on_c, 0, 79, 79
1, 61917, Note_on_c, 1, 71, 0
1, 61919, Note_on_c, 0, 79, 0
1, 61920, Note_on_c, 1, 72, 84
1, 61922, Note_on_c, 0, 78, 78
1, 61967, Note_on_c, 0, 78, 0
1, 61970, Note_on_c, 0, 74, 79
1, 62015, Note_on_c, 0, 74, 0
1, 62018, Note_on_c, 0, 81, 80
1, 62061, Note_on_c, 1, 72, 0
1, 62063, Note_on_c, 0, 81, 0
1, 62064, Note_on_c, 1, 69, 81
1, 62066, Note_on_c, 0, 78, 81
1, 62109, Note_on_c, 1, 69, 0
1, 62111, Note_on_c, 0, 78, 0
1, 62112, Note_on_c, 1, 71, 80
1, 62114, Note_on_c, 0, 79, 82
1, 62157, Note_on_c, 1, 71, 0
1, 62159, Note_on_c, 0, 79, 0
1, 62160, Note_on_c, 1, 67, 79
1, 62162, Note_on_c, 0, 83, 83
1, 62205, Note_on_c, 1, 67, 0
1, 62207, Note_on_c, 0, 83, 0
1, 62208, Note_on_c, 1, 69, 78
1, 62210, Note_on_c, 0, 72, 84
1, 62253, Note_on_c, 1, 69, 0
1, 62255, Note_on_c, 0, 72, 0
1, 62256, Note_on_c, 1, 66, 78
1, 62258, Note_on_c, 0, 81, 83
1, 62301, Note_on_c, 1, 66, 0
1, 62303, Note_on_c, 0, 81, 0
1, 62304, Note_on_c, 1, 67, 78
1, 62306, Note_on_c, 0, 71, 82
1, 62351, Note_on_c, 0, 71, 0
1, 62354, Note_on_c, 0, 79, 81
1, 62385, Note_on_c, 1, 62, 0
1, 62393, Note_on_c, 1, 67, 0
1, 62399, Note_on_c, 0, 79, 0
1, 62400, Note_on_c, 1, 72, 78
1, 62400, Note_on_c, 1, 63, 78
1, 62402, Note_on_c, 0, 69, 80
1, 62447, Note_on_c, 0, 69, 0
1, 62450, Note_on_c, 0, 78, 79
1, 62489, Note_on_c, 1, 72, 0
1, 62489, Note_on_c, 1, 63, 0
1, 62495, Note_on_c, 0, 78, 0
1, 62496, Note_on_c, 1, 71, 78
1, 62496, Note_on_c, 1, 64, 78
1, 62498, Note_on_c, 0, 67, 78
1, 62546, Note_on_c, 0, 67, 0
1, 62546, Note_on_c, 0, 79, 78
1, 62546, Note_on_c, 0, 76, 78
1, 62585, Note_on_c, 1, 71, 0
1, 62591, Note_on_c, 0, 79, 0
1, 62591, Note_on_c, 0, 76, 0
1, 62594, Note_on_c, 0, 79, 78
1, 62594, Note_on_c, 0, 76, 78
1, 62639, Note_on_c, 0, 79, 0
1, 62639, Note_on_c, 0, 76, 0
1, 62642, Note_on_c, 0, 78, 78
1, 62642, Note_on_c, 0, 74, 78
1, 62687, Note_on_c, 0, 78, 0
1, 62687, Note_on_c, 0, 74, 0
1, 62690, Note_on_c, 0, 76, 78
1, 62690, Note_on_c, 0, 73, 78
1, 62735, Note_on_c, 0, 76, 0
1, 62735, Note_on_c, 0, 73, 0
1, 62738, Note_on_c, 0, 74, 78
1, 62738, Note_on_c, 0, 71, 78
1, 62783, Note_on_c, 0, 74, 0
1, 62783, Note_on_c, 0, 71, 0
1, 62786, Note_on_c, 0, 73, 78
1, 62786, Note_on_c, 0, 70, 78
1, 62829, Note_on_c, 1, 64, 0
1, 62832, Note_on_c, 1, 67, 78
1, 62875, Note_on_c, 0, 73, 0
1, 62875, Note_on_c, 0, 70, 0
1, 62877, Note_on_c, 1, 67, 0
1, 62880, Note_on_c, 1, 62, 78
1, 62882, Note_on_c, 0, 74, 80
1, 62882, Note_on_c, 0, 71, 80
1, 62925, Note_on_c, 1, 62, 0
1, 62928, Note_on_c, 1, 66, 78
1, 62971, Note_on_c, 0, 74, 0
1, 62971, Note_on_c, 0, 71, 0
1, 62973, Note_on_c, 1, 66, 0
1, 62976, Note_on_c, 1, 61, 78
1, 62978, Note_on_c, 0, 76, 82
1, 62978, Note_on_c, 0, 73, 82
1, 63021, Note_on_c, 1, 61, 0
1, 63024, Note_on_c, 1, 70, 78
1, 63067, Note_on_c, 0, 76, 0
1, 63067, Note_on_c, 0, 73, 0
1, 63069, Note_on_c, 1, 70, 0
1, 63072, Note_on_c, 1, 59, 100
1, 63098, Note_on_c, 0, 71, 84
1, 63111, Note_on_c, 1, 59, 0
1, 63121, Note_on_c, 0, 71, 0
1, 63122, Note_on_c, 0, 74, 84
1, 63145, Note_on_c, 0, 74, 0
1, 63146, Note_on_c, 0, 71, 84
1, 63168, Note_on_c, 1, 71, 84
1, 63169, Note_on_c, 0, 71, 0
1, 63194, Note_on_c, 0, 71, 84
1, 63207, Note_on_c, 1, 71, 0
1, 63217, Note_on_c, 0, 71, 0
1, 63218, Note_on_c, 0, 74, 84
1, 63241, Note_on_c, 0, 74, 0
1, 63242, Note_on_c, 0, 71, 84
1, 63264, Note_on_c, 1, 69, 84
1, 63265, Note_on_c, 0, 71, 0
1, 63290, Note_on_c, 0, 71, 84
1, 63303, Note_on_c, 1, 69, 0
1, 63313, Note_on_c, 0, 71, 0
1, 63314, Note_on_c, 0, 74, 84
1, 63337, Note_on_c, 0, 74, 0
1, 63338, Note_on_c, 0, 71, 84
1, 63360, Note_on_c, 1, 55, 100
1, 63361, Note_on_c, 0, 71, 0
1, 63386, Note_on_c, 0, 71, 84
1, 63409, Note_on_c, 0, 71, 0
1, 63410, Note_on_c, 0, 83, 84
1, 63433, Note_on_c, 0, 83, 0
1, 63434, Note_on_c, 0, 71, 84
1, 63456, Note_on_c, 1, 55, 0
1, 63456, Note_on_c, 1, 67, 84
1, 63457, Note_on_c, 0, 71, 0
1, 63482, Note_on_c, 0, 71, 84
1, 63495, Note_on_c, 1, 67, 0
1, 63505, Note_on_c, 0, 71, 0
1, 63506, Note_on_c, 0, 83, 84
1, 63529, Note_on_c, 0, 83, 0
1, 63530, Note_on_c, 0, 71, 84
1, 63552, Note_on_c, 1, 66, 84
1, 63553, Note_on_c, 0, 71, 0
1, 63578, Note_on_c, 0, 71, 84
1, 63591, Note_on_c, 1, 66, 0
1, 63601, Note_on_c, 0, 71, 0
1, 63602, Note_on_c, 0, 81, 84
1, 63625, Note_on_c, 0, 81, 0
1, 63626, Note_on_c, 0, 71, 84
1, 63648, Note_on_c, 1, 52, 100
1, 63649, Note_on_c, 0, 71, 0
1, 63674, Note_on_c, 0, 71, 84
1, 63697, Note_on_c, 0, 71, 0
1, 63698, Note_on_c, 0, 79, 84
1, 63721, Note_on_c, 0, 79, 0
1, 63722, Note_on_c, 0, 71, 84
1, 63744, Note_on_c, 1, 52, 0
1, 63744, Note_on_c, 1, 64, 84
1, 63745, Note_on_c, 0, 71, 0
1, 63770, Note_on_c, 0, 71, 84
1, 63783, Note_on_c, 1, 64, 0
1, 63793, Note_on_c, 0, 71, 0
1, 63794, Note_on_c, 0, 79, 84
1, 63817, Note_on_c, 0, 79, 0
1, 63818, Note_on_c, 0, 71, 84
1, 63840, Note_on_c, 1, 62, 84
1, 63841, Note_on_c, 0, 71, 0
1, 63866, Note_on_c, 0, 71, 84
1, 63879, Note_on_c, 1, 62, 0
1, 63889, Note_on_c, 0, 71, 0
1, 63890, Note_on_c, 0, 78, 84
1, 63913, Note_on_c, 0, 78, 0
1, 63914, Note_on_c, 0, 71, 84
1, 63936, Note_on_c, 1, 61, 100
1, 63937, Note_on_c, 0, 71, 0
1, 63962, Note_on_c, 0, 71, 84
1, 63985, Note_on_c, 0, 71, 0
1, 63986, Note_on_c, 0, 77, 84
1, 64009, Note_on_c, 0, 77, 0
1, 64010, Note_on_c, 0, 71, 84
1, 64032, Note_on_c, 1, 61, 0
1, 64032, Note_on_c, 1, 68, 84
1, 64033, Note_on_c, 0, 71, 0
1, 64058, Note_on_c, 0, 71, 84
1, 64071, Note_on_c, 1, 68, 0
1, 64081, Note_on_c, 0, 71, 0
1, 64082, Note_on_c, 0, 77, 84
1, 64105, Note_on_c, 0, 77, 0
1, 64106, Note_on_c, 0, 71, 84
1, 64128, Note_on_c, 1, 71, 84
1, 64129, Note_on_c, 0, 71, 0
1, 64154, Note_on_c, 0, 71, 84
1, 64167, Note_on_c, 1, 71, 0
1, 64177, Note_on_c, 0, 71, 0
1, 64178, Note_on_c, 0, 77, 84
1, 64201, Note_on_c, 0, 77, 0
1, 64202, Note_on_c, 0, 71, 84
1, 64224, Note_on_c, 1, 54, 100
1, 64225, Note_on_c, 0, 71, 0
1, 64250, Note_on_c, 0, 70, 84
1, 64273, Note_on_c, 0, 70, 0
1, 64274, Note_on_c, 0, 76, 84
1, 64297, Note_on_c, 0, 76, 0
1, 64298, Note_on_c, 0, 70, 84
1, 64320, Note_on_c, 1, 54, 0
1, 64320, Note_on_c, 1, 66, 84
1, 64321, Note_on_c, 0, 70, 0
1, 64346, Note_on_c, 0, 70, 84
1, 64359, Note_on_c, 1, 66, 0
1, 64369, Note_on_c, 0, 70, 0
1, 64370, Note_on_c, 0, 76, 84
1, 64393, Note_on_c, 0, 76, 0
1, 64394, Note_on_c, 0, 70, 84
1, 64416, Note_on_c, 1, 70, 84
1, 64417, Note_on_c, 0, 70, 0
1, 64442, Note_on_c, 0, 73, 84
1, 64455, Note_on_c, 1, 70, 0
1, 64465, Note_on_c, 0, 73, 0
1, 64466, Note_on_c, 0, 76, 84
1, 64489, Note_on_c, 0, 76, 0
1, 64490, Note_on_c, 0, 73, 84
1, 64512, Note_on_c, 1, 59, 84
1, 64513, Note_on_c, 0, 73, 0
1, 64538, Note_on_c, 0, 71, 84
1, 64551, Note_on_c, 1, 59, 0
1, 64561, Note_on_c, 0, 71, 0
1, 64562, Note_on_c, 0, 74, 84
1, 64585, Note_on_c, 0, 74, 0
1, 64586, Note_on_c, 0, 71, 84
1, 64608, Note_on_c, 1, 62, 84
1, 64609, Note_on_c, 0, 71, 0
1, 64634, Note_on_c, 0, 71, 84
1, 64647, Note_on_c, 1, 62, 0
1, 64657, Note_on_c, 0, 71, 0
1, 64658, Note_on_c, 0, 74, 84
1, 64681, Note_on_c, 0, 74, 0
1, 64682, Note_on_c, 0, 71, 84
1, 64704, Note_on_c, 1, 66, 84
1, 64705, Note_on_c, 0, 71, 0
1, 64730, Note_on_c, 0, 71, 84
1, 64743, Note_on_c, 1, 66, 0
1, 64753, Note_on_c, 0, 71, 0
1, 64754, Note_on_c, 0, 74, 84
1, 64777, Note_on_c, 0, 74, 0
1, 64778, Note_on_c, 0, 71, 84
1, 64800, Note_on_c, 1, 59, 84
1, 64801, Note_on_c, 0, 71, 0
1, 64826, Note_on_c, 0, 67, 84
1, 64839, Note_on_c, 1, 59, 0
1, 64849, Note_on_c, 0, 67, 0
1, 64850, Note_on_c, 0, 74, 84
1, 64873, Note_on_c, 0, 74, 0
1, 64874, Note_on_c, 0, 67, 84
1, 64896, Note_on_c, 1, 62, 84
1, 64897, Note_on_c, 0, 67, 0
1, 64922, Note_on_c, 0, 67, 84
1, 64935, Note_on_c, 1, 62, 0
1, 64945, Note_on_c, 0, 67, 0
1, 64946, Note_on_c, 0, 74, 84
1, 64969, Note_on_c, 0, 74, 0
1, 64970, Note_on_c, 0, 67, 84
1, 64992, Note_on_c, 1, 71, 84
1, 64993, Note_on_c, 0, 67, 0
1, 65018, Note_on_c, 0, 67, 84
1, 65031, Note_on_c, 1, 71, 0
1, 65041, Note_on_c, 0, 67, 0
1, 65042, Note_on_c, 0, 74, 84
1, 65065, Note_on_c, 0, 74, 0
1, 65066, Note_on_c, 0, 67, 84
1, 65088, Note_on_c, 1, 57, 84
1, 65089, Note_on_c, 0, 67, 0
1, 65114, Note_on_c, 0, 67, 84
1, 65127, Note_on_c, 1, 57, 0
1, 65137, Note_on_c, 0, 67, 0
1, 65138, Note_on_c, 0, 72, 84
1, 65161, Note_on_c, 0, 72, 0
1, 65162, Note_on_c, 0, 67, 84
1, 65184, Note_on_c, 1, 64, 84
1, 65185, Note_on_c, 0, 67, 0
1, 65210, Note_on_c, 0, 67, 84
1, 65223, Note_on_c, 1, 64, 0
1, 65233, Note_on_c, 0, 67, 0
1, 65234, Note_on_c, 0, 72, 84
1, 65257, Note_on_c, 0, 72, 0
1, 65258, Note_on_c, 0, 67, 84
1, 65280, Note_on_c, 1, 69, 84
1, 65281, Note_on_c, 0, 67, 0
1, 65306, Note_on_c, 0, 67, 84
1, 65319, Note_on_c, 1, 69, 0
1, 65329, Note_on_c, 0, 67, 0
1, 65330, Note_on_c, 0, 72, 84
1, 65353, Note_on_c, 0, 72, 0
1, 65354, Note_on_c, 0, 67, 84
1, 65376, Note_on_c, 1, 50, 100
1, 65377, Note_on_c, 0, 67, 0
1, 65402, Note_on_c, 0, 66, 84
1, 65425, Note_on_c, 0, 66, 0
1, 65426, Note_on_c, 0, 72, 84
1, 65449, Note_on_c, 0, 72, 0
1, 65450, Note_on_c, 0, 66, 84
1, 65472, Note_on_c, 1, 50, 0
1, 65472, Note_on_c, 1, 62, 84
1, 65473, Note_on_c, 0, 66, 0
1, 65498, Note_on_c, 0, 66, 84
1, 65511, Note_on_c, 1, 62, 0
1, 65521, Note_on_c, 0, 66, 0
1, 65522, Note_on_c, 0, 72, 84
1, 65545, Note_on_c, 0, 72, 0
1, 65546, Note_on_c, 0, 66, 84
1, 65568, Note_on_c, 1, 66, 84
1, 65569, Note_on_c, 0, 66, 0
1, 65594, Note_on_c, 0, 69, 84
1, 65607, Note_on_c, 1, 66, 0
1, 65617, Note_on_c, 0, 69, 0
1, 65618, Note_on_c, 0, 72, 84
1, 65641, Note_on_c, 0, 72, 0
1, 65642, Note_on_c, 0, 69, 84
1, 65664, Note_on_c, 1, 55, 100
1, 65665, Note_on_c, 0, 69, 0
1, 65690, Note_on_c, 0, 67, 84
1, 65713, Note_on_c, 0, 67, 0
1, 65714, Note_on_c, 0, 71, 84
1, 65737, Note_on_c, 0, 71, 0
1, 65738, Note_on_c, 0, 67, 84
1, 65760, Note_on_c, 1, 55, 0
1, 65760, Note_on_c, 1, 67, 84
1, 65761, Note_on_c, 0, 67, 0
1, 65786, Note_on_c, 0, 67, 84
1, 65799, Note_on_c, 1, 67, 0
1, 65809, Note_on_c, 0, 67, 0
1, 65810, Note_on_c, 0, 71, 84
1, 65833, Note_on_c, 0, 71, 0
1, 65834, Note_on_c, 0, 67, 84
1, 65856, Note_on_c, 1, 66, 84
1, 65857, Note_on_c, 0, 67, 0
1, 65882, Note_on_c, 0, 67, 84
1, 65895, Note_on_c, 1, 66, 0
1, 65905, Note_on_c, 0, 67, 0
1, 65906, Note_on_c, 0, 71, 84
1, 65929, Note_on_c, 0, 71, 0
1, 65930, Note_on_c, 0, 67, 84
1, 65952, Note_on_c, 1, 52, 100
1, 65953, Note_on_c, 0, 67, 0
1, 65978, Note_on_c, 0, 67, 84
1, 66001, Note_on_c, 0, 67, 0
1, 66002, Note_on_c, 0, 71, 84
1, 66025, Note_on_c, 0, 71, 0
1, 66026, Note_on_c, 0, 67, 84
1, 66048, Note_on_c, 1, 52, 0
1, 66048, Note_on_c, 1, 64, 84
1, 66049, Note_on_c, 0, 67, 0
1, 66074, Note_on_c, 0, 67, 84
1, 66097, Note_on_c, 0, 67, 0
1, 66098, Note_on_c, 0, 71, 84
1, 66121, Note_on_c, 0, 71, 0
1, 66122, Note_on_c, 0, 67, 84
1, 66142, Note_on_c, 1, 64, 0
1, 66144, Note_on_c, 1, 62, 84
1, 66145, Note_on_c, 0, 67, 0
1, 66170, Note_on_c, 0, 67, 84
1, 66193, Note_on_c, 0, 67, 0
1, 66194, Note_on_c, 0, 71, 84
1, 66217, Note_on_c, 0, 71, 0
1, 66218, Note_on_c, 0, 67, 84
1, 66238, Note_on_c, 1, 62, 0
1, 66240, Note_on_c, 1, 61, 84
1, 66240, Note_on_c, 1, 49, 84
1, 66241, Note_on_c, 0, 67, 0
1, 66266, Note_on_c, 0, 67, 84
1, 66289, Note_on_c, 0, 67, 0
1, 66290, Note_on_c, 0, 70, 84
1, 66313, Note_on_c, 0, 70, 0
1, 66314, Note_on_c, 0, 67, 84
1, 66329, Note_on_c, 1, 61, 0
1, 66329, Note_on_c, 1, 49, 0
1, 66336, Note_on_c, 1, 62, 84
1, 66336, Note_on_c, 1, 50, 84
1, 66337, Note_on_c, 0, 67, 0
1, 66362, Note_on_c, 0, 66, 85
1, 66385, Note_on_c, 0, 66, 0
1, 66386, Note_on_c, 0, 71, 85
1, 66409, Note_on_c, 0, 71, 0
1, 66410, Note_on_c, 0, 66, 85
1, 66425, Note_on_c, 1, 62, 0
1, 66425, Note_on_c, 1, 50, 0
1, 66432, Note_on_c, 1, 58, 85
1, 66432, Note_on_c, 1, 46, 85
1, 66433, Note_on_c, 0, 66, 0
1, 66458, Note_on_c, 0, 64, 86
1, 66481, Note_on_c, 0, 64, 0
1, 66482, Note_on_c, 0, 73, 86
1, 66505, Note_on_c, 0, 73, 0
1, 66506, Note_on_c, 0, 64, 86
1, 66521, Note_on_c, 1, 58, 0
1, 66521, Note_on_c, 1, 46, 0
1, 66528, Note_on_c, 1, 59, 86
1, 66528, Note_on_c, 1, 47, 86
1, 66529, Note_on_c, 0, 64, 0
1, 66554, Note_on_c, 0, 62, 87
1, 66577, Note_on_c, 0, 62, 0
1, 66578, Note_on_c, 0, 74, 87
1, 66601, Note_on_c, 0, 74, 0
1, 66602, Note_on_c, 0, 62, 87
1, 66617, Note_on_c, 1, 59, 0
1, 66617, Note_on_c, 1, 47, 0
1, 66624, Note_on_c, 1, 55, 87
1, 66624, Note_on_c, 1, 43, 87
1, 66625, Note_on_c, 0, 62, 0
1, 66650, Note_on_c, 0, 62, 88
1, 66673, Note_on_c, 0, 62, 0
1, 66674, Note_on_c, 0, 71, 88
1, 66697, Note_on_c, 0, 71, 0
1, 66698, Note_on_c, 0, 62, 88
1, 66713, Note_on_c, 1, 55, 0
1, 66713, Note_on_c, 1, 43, 0
1, 66720, Note_on_c, 1, 53, 88
1, 66720, Note_on_c, 1, 41, 88
1, 66721, Note_on_c, 0, 62, 0
1, 66746, Note_on_c, 0, 62, 89
1, 66769, Note_on_c, 0, 62, 0
1, 66770, Note_on_c, 0, 71, 89
1, 66793, Note_on_c, 0, 71, 0
1, 66794, Note_on_c, 0, 62, 89
1, 66809, Note_on_c, 1, 53, 0
1, 66809, Note_on_c, 1, 41, 0
1, 66816, Note_on_c, 1, 54, 89
1, 66816, Note_on_c, 1, 42, 89
1, 66817, Note_on_c, 0, 62, 0
1, 66818, Note_on_c, 0, 70, 89
1, 66841, Note_on_c, 0, 70, 0
1, 66842, Note_on_c, 0, 73, 89
1, 66865, Note_on_c, 0, 73, 0
1, 66866, Note_on_c, 0, 70, 89
1, 66889, Note_on_c, 0, 70, 0
1, 66890, Note_on_c, 0, 66, 89
1, 66905, Note_on_c, 1, 54, 0
1, 66905, Note_on_c, 1, 42, 0
1, 66913, Note_on_c, 0, 66, 0
1, 66914, Note_on_c, 0, 66, 89
1, 66937, Note_on_c, 0, 66, 0
1, 66938, Note_on_c, 0, 70, 89
1, 66961, Note_on_c, 0, 70, 0
1, 66962, Note_on_c, 0, 66, 89
1, 66985, Note_on_c, 0, 66, 0
1, 66986, Note_on_c, 0, 61, 89
1, 67009, Note_on_c, 0, 61, 0
1, 67010, Note_on_c, 0, 61, 89
1, 67033, Note_on_c, 0, 61, 0
1, 67034, Note_on_c, 0, 66, 89
1, 67057, Note_on_c, 0, 66, 0
1, 67058, Note_on_c, 0, 61, 89
1, 67081, Note_on_c, 0, 61, 0
1, 67082, Note_on_c, 0, 58, 89
1, 67104, Note_on_c, 1, 42, 89
1, 67105, Note_on_c, 0, 58, 0
1, 67193, Note_on_c, 1, 42, 0
1, 67392, Note_on_c, 0, 70, 64
1, 67394, Note_on_c, 0, 76, 64
1, 67440, Note_on_c, 1, 42, 64
1, 67485, Note_on_c, 1, 42, 0
1, 67488, Note_on_c, 1, 54, 64
1, 67525, Note_on_c, 0, 70, 0
1, 67527, Note_on_c, 0, 76, 0
1, 67533, Note_on_c, 1, 54, 0
1, 67536, Note_on_c, 1, 58, 65
1, 67538, Note_on_c, 0, 73, 65
1, 67581, Note_on_c, 1, 58, 0
1, 67583, Note_on_c, 0, 73, 0
1, 67584, Note_on_c, 1, 59, 65
1, 67586, Note_on_c, 0, 74, 65
1, 67631, Note_on_c, 0, 74, 0
1, 67634, Note_on_c, 0, 71, 66
1, 67673, Note_on_c, 1, 59, 0
1, 67679, Note_on_c, 0, 71, 0
1, 67680, Note_on_c, 0, 64, 66
1, 67682, Note_on_c, 0, 70, 66
1, 67728, Note_on_c, 1, 42, 67
1, 67773, Note_on_c, 1, 42, 0
1, 67776, Note_on_c, 1, 54, 67
1, 67815, Note_on_c, 0, 70, 0
1, 67821, Note_on_c, 1, 54, 0
1, 67824, Note_on_c, 1, 58, 68
1, 67826, Note_on_c, 0, 73, 67
1, 67857, Note_on_c, 0, 64, 0
1, 67869, Note_on_c, 1, 58, 0
1, 67871, Note_on_c, 0, 73, 0
1, 67872, Note_on_c, 0, 62, 68
1, 67872, Note_on_c, 1, 59, 68
1, 67874, Note_on_c, 0, 71, 68
1, 67919, Note_on_c, 0, 71, 0
1, 67922, Note_on_c, 0, 66, 68
1, 67961, Note_on_c, 0, 62, 0
1, 67961, Note_on_c, 1, 59, 0
1, 67967, Note_on_c, 0, 66, 0
1, 67968, Note_on_c, 0, 70, 69
1, 67970, Note_on_c, 0, 76, 69
1, 68016, Note_on_c, 1, 42, 69
1, 68061, Note_on_c, 1, 42, 0
1, 68064, Note_on_c, 1, 54, 70
1, 68101, Note_on_c, 0, 70, 0
1, 68103, Note_on_c, 0, 76, 0
1, 68109, Note_on_c, 1, 54, 0
1, 68112, Note_on_c, 0, 73, 70
1, 68112, Note_on_c, 1, 58, 70
1, 68114, Note_on_c, 0, 73, 70
1, 68157, Note_on_c, 0, 73, 0
1, 68157, Note_on_c, 1, 58, 0
1, 68159, Note_on_c, 0, 73, 0
1, 68160, Note_on_c, 0, 74, 70
1, 68160, Note_on_c, 1, 59, 71
1, 68162, Note_on_c, 0, 74, 70
1, 68205, Note_on_c, 1, 59, 0
1, 68207, Note_on_c, 0, 74, 0
1, 68208, Note_on_c, 1, 62, 71
1, 68210, Note_on_c, 0, 78, 71
1, 68253, Note_on_c, 1, 62, 0
1, 68255, Note_on_c, 0, 78, 0
1, 68258, Note_on_c, 0, 79, 71
1, 68304, Note_on_c, 1, 52, 72
1, 68349, Note_on_c, 1, 52, 0
1, 68352, Note_on_c, 1, 64, 72
1, 68389, Note_on_c, 0, 74, 0
1, 68397, Note_on_c, 1, 64, 0
1, 68400, Note_on_c, 0, 71, 73
1, 68400, Note_on_c, 1, 67, 73
1, 68445, Note_on_c, 0, 71, 0
1, 68445, Note_on_c, 1, 67, 0
1, 68448, Note_on_c, 0, 73, 73
1, 68448, Note_on_c, 1, 69, 73
1, 68495, Note_on_c, 0, 79, 0
1, 68498, Note_on_c, 0, 81, 74
1, 68537, Note_on_c, 1, 69, 0
1, 68543, Note_on_c, 0, 81, 0
1, 68546, Note_on_c, 0, 78, 74
1, 68592, Note_on_c, 1, 50, 75
1, 68637, Note_on_c, 1, 50, 0
1, 68640, Note_on_c, 1, 62, 75
1, 68677, Note_on_c, 0, 73, 0
1, 68685, Note_on_c, 1, 62, 0
1, 68688, Note_on_c, 0, 69, 75
1, 68688, Note_on_c, 1, 66, 76
1, 68733, Note_on_c, 0, 69, 0
1, 68733, Note_on_c, 1, 66, 0
1, 68736, Note_on_c, 0, 71, 76
1, 68736, Note_on_c, 1, 67, 76
1, 68783, Note_on_c, 0, 78, 0
1, 68786, Note_on_c, 0, 79, 76
1, 68825, Note_on_c, 1, 67, 0
1, 68831, Note_on_c, 0, 79, 0
1, 68834, Note_on_c, 0, 76, 77
1, 68880, Note_on_c, 1, 49, 77
1, 68925, Note_on_c, 1, 49, 0
1, 68928, Note_on_c, 1, 61, 78
1, 68965, Note_on_c, 0, 71, 0
1, 68973, Note_on_c, 1, 61, 0
1, 68976, Note_on_c, 0, 68, 78
1, 68976, Note_on_c, 1, 64, 78
1, 69021, Note_on_c, 0, 68, 0
1, 69021, Note_on_c, 1, 64, 0
1, 69024, Note_on_c, 0, 70, 78
1, 69024, Note_on_c, 1, 66, 79
1, 69071, Note_on_c, 0, 76, 0
1, 69074, Note_on_c, 0, 78, 79
1, 69113, Note_on_c, 0, 70, 0
1, 69113, Note_on_c, 1, 66, 0
1, 69119, Note_on_c, 0, 78, 0
1, 69122, Note_on_c, 0, 74, 79
1, 69122, Note_on_c, 0, 71, 79
1, 69168, Note_on_c, 1, 59, 80
1, 69211, Note_on_c, 0, 74, 0
1, 69211, Note_on_c, 0, 71, 0
1, 69213, Note_on_c, 1, 59, 0
1, 69216, Note_on_c, 1, 47, 80
1, 69218, Note_on_c, 0, 86, 80
1, 69218, Note_on_c, 0, 83, 80
1, 69261, Note_on_c, 1, 47, 0
1, 69264, Note_on_c, 1, 59, 81
1, 69307, Note_on_c, 0, 86, 0
1, 69307, Note_on_c, 0, 83, 0
1, 69309, Note_on_c, 1, 59, 0
1, 69312, Note_on_c, 1, 45, 81
1, 69357, Note_on_c, 1, 45, 0
1, 69360, Note_on_c, 1, 57, 82
1, 69405, Note_on_c, 1, 57, 0
1, 69410, Note_on_c, 0, 74, 82
1, 69410, Note_on_c, 0, 71, 82
1, 69456, Note_on_c, 1, 55, 83
1, 69499, Note_on_c, 0, 74, 0
1, 69499, Note_on_c, 0, 71, 0
1, 69501, Note_on_c, 1, 55, 0
1, 69504, Note_on_c, 1, 43, 83
1, 69506, Note_on_c, 0, 86, 83
1, 69506, Note_on_c, 0, 83, 83
1, 69549, Note_on_c, 1, 43, 0
1, 69552, Note_on_c, 1, 55, 84
1, 69595, Note_on_c, 0, 86, 0
1, 69595, Note_on_c, 0, 83, 0
1, 69597, Note_on_c, 1, 55, 0
1, 69600, Note_on_c, 1, 42, 84
1, 69645, Note_on_c, 1, 42, 0
1, 69648, Note_on_c, 1, 54, 84
1, 69693, Note_on_c, 1, 54, 0
1, 69696, Note_on_c, 1, 53, 84
1, 69696, Note_on_c, 1, 41, 84
1, 69698, Note_on_c, 0, 83, 84
1, 69721, Note_on_c, 0, 83, 0
1, 69722, Note_on_c, 0, 86, 84
1, 69745, Note_on_c, 0, 86, 0
1, 69746, Note_on_c, 0, 83, 84
1, 69769, Note_on_c, 0, 83, 0
1, 69770, Note_on_c, 0, 80, 84
1, 69785, Note_on_c, 1, 53, 0
1, 69785, Note_on_c, 1, 41, 0
1, 69793, Note_on_c, 0, 80, 0
1, 69794, Note_on_c, 0, 80, 84
1, 69817, Note_on_c, 0, 80, 0
1, 69818, Note_on_c, 0, 83, 84
1, 69841, Note_on_c, 0, 83, 0
1, 69842, Note_on_c, 0, 80, 84
1, 69865, Note_on_c, 0, 80, 0
1, 69866, Note_on_c, 0, 77, 84
1, 69889, Note_on_c, 0, 77, 0
1, 69890, Note_on_c, 0, 77, 84
1, 69913, Note_on_c, 0, 77, 0
1, 69914, Note_on_c, 0, 80, 84
1, 69937, Note_on_c, 0, 80, 0
1, 69938, Note_on_c, 0, 77, 84
1, 69961, Note_on_c, 0, 77, 0
1, 69962, Note_on_c, 0, 74, 84
1, 69984, Note_on_c, 1, 54, 84
1, 69984, Note_on_c, 1, 42, 84
1, 69985, Note_on_c, 0, 74, 0
1, 69986, Note_on_c, 0, 76, 84
1, 70009, Note_on_c, 0, 76, 0
1, 70010, Note_on_c, 0, 79, 84
1, 70033, Note_on_c, 0, 79, 0
1, 70034, Note_on_c, 0, 76, 84
1, 70057, Note_on_c, 0, 76, 0
1, 70058, Note_on_c, 0, 73, 84
1, 70073, Note_on_c, 1, 54, 0
1, 70073, Note_on_c, 1, 42, 0
1, 70081, Note_on_c, 0, 73, 0
1, 70082, Note_on_c, 0, 73, 84
1, 70105, Note_on_c, 0, 73, 0
1, 70106, Note_on_c, 0, 76, 84
1, 70129, Note_on_c, 0, 76, 0
1, 70130, Note_on_c, 0, 73, 84
1, 70153, Note_on_c, 0, 73, 0
1, 70154, Note_on_c, 0, 70, 84
1, 70177, Note_on_c, 0, 70, 0
1, 70178, Note_on_c, 0, 70, 84
1, 70201, Note_on_c, 0, 70, 0
1, 70202, Note_on_c, 0, 73, 84
1, 70225, Note_on_c, 0, 73, 0
1, 70226, Note_on_c, 0, 70, 84
1, 70249, Note_on_c, 0, 70, 0
1, 70250, Note_on_c, 0, 64, 84
1, 70272, Note_on_c, 1, 47, 100
1, 70272, Note_on_c, 1, 35, 100
1, 70273, Note_on_c, 0, 64, 0
1, 70274, Note_on_c, 0, 66, 84
1, 70297, Note_on_c, 0, 66, 0
1, 70298, Note_on_c, 0, 71, 84
1, 70321, Note_on_c, 0, 71, 0
1, 70322, Note_on_c, 0, 66, 84
1, 70345, Note_on_c, 0, 66, 0
1, 70346, Note_on_c, 0, 62, 84
1, 70368, Note_on_c, 1, 47, 0
1, 70368, Note_on_c, 1, 35, 0
1, 70368, Note_on_c, 1, 59, 84
1, 70369, Note_on_c, 0, 62, 0
1, 70370, Note_on_c, 0, 66, 84
1, 70393, Note_on_c, 0, 66, 0
1, 70394, Note_on_c, 0, 71, 85
1, 70417, Note_on_c, 0, 71, 0
1, 70418, Note_on_c, 0, 66, 85
1, 70441, Note_on_c, 0, 66, 0
1, 70442, Note_on_c, 0, 62, 85
1, 70457, Note_on_c, 1, 59, 0
1, 70465, Note_on_c, 0, 62, 0
1, 70466, Note_on_c, 0, 66, 85
1, 70489, Note_on_c, 0, 66, 0
1, 70490, Note_on_c, 0, 71, 85
1, 70513, Note_on_c, 0, 71, 0
1, 70514, Note_on_c, 0, 66, 86
1, 70537, Note_on_c, 0, 66, 0
1, 70538, Note_on_c, 0, 62, 86
1, 70560, Note_on_c, 1, 43, 102
1, 70560, Note_on_c, 1, 31, 102
1, 70561, Note_on_c, 0, 62, 0
1, 70562, Note_on_c, 0, 67, 86
1, 70585, Note_on_c, 0, 67, 0
1, 70586, Note_on_c, 0, 71, 86
1, 70609, Note_on_c, 0, 71, 0
1, 70610, Note_on_c, 0, 67, 86
1, 70633, Note_on_c, 0, 67, 0
1, 70634, Note_on_c, 0, 62, 87
1, 70656, Note_on_c, 1, 43, 0
1, 70656, Note_on_c, 1, 31, 0
1, 70656, Note_on_c, 1, 55, 86
1, 70657, Note_on_c, 0, 62, 0
1, 70658, Note_on_c, 0, 67, 87
1, 70681, Note_on_c, 0, 67, 0
1, 70682, Note_on_c, 0, 71, 87
1, 70705, Note_on_c, 0, 71, 0
1, 70706, Note_on_c, 0, 67, 87
1, 70729, Note_on_c, 0, 67, 0
1, 70730, Note_on_c, 0, 62, 87
1, 70745, Note_on_c, 1, 55, 0
1, 70753, Note_on_c, 0, 62, 0
1, 70754, Note_on_c, 0, 67, 88
1, 70777, Note_on_c, 0, 67, 0
1, 70778, Note_on_c, 0, 71, 88
1, 70801, Note_on_c, 0, 71, 0
1, 70802, Note_on_c, 0, 67, 88
1, 70825, Note_on_c, 0, 67, 0
1, 70826, Note_on_c, 0, 62, 88
1, 70848, Note_on_c, 1, 41, 104
1, 70848, Note_on_c, 1, 29, 104
1, 70849, Note_on_c, 0, 62, 0
1, 70850, Note_on_c, 0, 68, 88
1, 70873, Note_on_c, 0, 68, 0
1, 70874, Note_on_c, 0, 71, 89
1, 70897, Note_on_c, 0, 71, 0
1, 70898, Note_on_c, 0, 68, 89
1, 70921, Note_on_c, 0, 68, 0
1, 70922, Note_on_c, 0, 62, 89
1, 70944, Note_on_c, 1, 41, 0
1, 70944, Note_on_c, 1, 29, 0
1, 70944, Note_on_c, 1, 53, 89
1, 70945, Note_on_c, 0, 62, 0
1, 70946, Note_on_c, 0, 68, 89
1, 70969, Note_on_c, 0, 68, 0
1, 70970, Note_on_c, 0, 71, 89
1, 70993, Note_on_c, 0, 71, 0
1, 70994, Note_on_c, 0, 68, 89
1, 71017, Note_on_c, 0, 68, 0
1, 71018, Note_on_c, 0, 62, 89
1, 71033, Note_on_c, 1, 53, 0
1, 71041, Note_on_c, 0, 62, 0
1, 71042, Note_on_c, 0, 68, 89
1, 71065, Note_on_c, 0, 68, 0
1, 71066, Note_on_c, 0, 71, 89
1, 71089, Note_on_c, 0, 71, 0
1, 71090, Note_on_c, 0, 68, 89
1, 71113, Note_on_c, 0, 68, 0
1, 71114, Note_on_c, 0, 62, 89
1, 71136, Note_on_c, 1, 42, 89
1, 71136, Note_on_c, 1, 30, 89
1, 71137, Note_on_c, 0, 62, 0
1, 71225, Note_on_c, 1, 42, 0
1, 71225, Note_on_c, 1, 30, 0
1, 71234, Note_on_c, 0, 78, 89
1, 71234, Note_on_c, 0, 74, 89
1, 71323, Note_on_c, 0, 78, 0
1, 71323, Note_on_c, 0, 74, 0
1, 71330, Note_on_c, 0, 70, 89
1, 71330, Note_on_c, 0, 64, 89
1, 71419, Note_on_c, 0, 70, 0
1, 71419, Note_on_c, 0, 64, 0
1, 71424, Note_on_c, 1, 47, 89
1, 71424, Note_on_c, 1, 35, 89
1, 71513, Note_on_c, 1, 47, 0
1, 71513, Note_on_c, 1, 35, 0
1, 71520, Note_on_c, 1, 59, 64
1, 71520, Note_on_c, 1, 47, 64
1, 71570, Note_on_c, 0, 78, 64
1, 71570, Note_on_c, 0, 74, 64
1, 71609, Note_on_c, 1, 59, 0
1, 71609, Note_on_c, 1, 47, 0
1, 71615, Note_on_c, 0, 78, 0
1, 71615, Note_on_c, 0, 74, 0
1, 71618, Note_on_c, 0, 79, 64
1, 71618, Note_on_c, 0, 76, 64
1, 71663, Note_on_c, 0, 79, 0
1, 71663, Note_on_c, 0, 76, 0
1, 71666, Note_on_c, 0, 76, 64
1, 71666, Note_on_c, 0, 73, 64
1, 71711, Note_on_c, 0, 76, 0
1, 71711, Note_on_c, 0, 73, 0
1, 71714, Note_on_c, 0, 78, 64
1, 71714, Note_on_c, 0, 74, 64
1, 71753, Note_on_c, 0, 78, 0
1, 71753, Note_on_c, 0, 74, 0
1, 71760, Note_on_c, 1, 62, 64
1, 71760, Note_on_c, 1, 59, 64
1, 71805, Note_on_c, 1, 62, 0
1, 71805, Note_on_c, 1, 59, 0
1, 71808, Note_on_c, 1, 64, 64
1, 71808, Note_on_c, 1, 61, 64
1, 71853, Note_on_c, 1, 64, 0
1, 71853, Note_on_c, 1, 61, 0
1, 71856, Note_on_c, 1, 61, 64
1, 71856, Note_on_c, 1, 58, 64
1, 71901, Note_on_c, 1, 61, 0
1, 71901, Note_on_c, 1, 58, 0
1, 71904, Note_on_c, 1, 62, 64
1, 71904, Note_on_c, 1, 59, 64
1, 71943, Note_on_c, 1, 62, 0
1, 71943, Note_on_c, 1, 59, 0
1, 71954, Note_on_c, 0, 83, 64
1, 71954, Note_on_c, 0, 79, 64
1, 71999, Note_on_c, 0, 83, 0
1, 71999, Note_on_c, 0, 79, 0
1, 72002, Note_on_c, 0, 84, 64
1, 72002, Note_on_c, 0, 81, 64
1, 72047, Note_on_c, 0, 84, 0
1, 72047, Note_on_c, 0, 81, 0
1, 72050, Note_on_c, 0, 81, 64
1, 72050, Note_on_c, 0, 78, 64
1, 72095, Note_on_c, 0, 81, 0
1, 72095, Note_on_c, 0, 78, 0
1, 72098, Note_on_c, 0, 83, 64
1, 72098, Note_on_c, 0, 79, 64
1, 72118, Note_on_c, 0, 83, 0
1, 72118, Note_on_c, 0, 79, 0
1, 72144, Note_on_c, 1, 67, 64
1, 72144, Note_on_c, 1, 64, 64
1, 72189, Note_on_c, 1, 67, 0
1, 72189, Note_on_c, 1, 64, 0
1, 72192, Note_on_c, 1, 69, 64
1, 72192, Note_on_c, 1, 66, 64
1, 72237, Note_on_c, 1, 69, 0
1, 72237, Note_on_c, 1, 66, 0
1, 72240, Note_on_c, 1, 66, 64
1, 72240, Note_on_c, 1, 63, 64
1, 72285, Note_on_c, 1, 66, 0
1, 72285, Note_on_c, 1, 63, 0
1, 72288, Note_on_c, 1, 67, 64
1, 72288, Note_on_c, 1, 64, 64
1, 72327, Note_on_c, 1, 67, 0
1, 72327, Note_on_c, 1, 64, 0
1, 72338, Note_on_c, 0, 79, 64
1, 72338, Note_on_c, 0, 76, 64
1, 72383, Note_on_c, 0, 79, 0
1, 72383, Note_on_c, 0, 76, 0
1, 72386, Note_on_c, 0, 83, 64
1, 72386, Note_on_c, 0, 79, 64
1, 72431, Note_on_c, 0, 83, 0
1, 72431, Note_on_c, 0, 79, 0
1, 72434, Note_on_c, 0, 81, 64
1, 72434, Note_on_c, 0, 78, 64
1, 72479, Note_on_c, 0, 81, 0
1, 72479, Note_on_c, 0, 78, 0
1, 72482, Note_on_c, 0, 79, 64
1, 72482, Note_on_c, 0, 76, 64
1, 72527, Note_on_c, 0, 79, 0
1, 72527, Note_on_c, 0, 76, 0
1, 72530, Note_on_c, 0, 78, 64
1, 72530, Note_on_c, 0, 74, 64
1, 72575, Note_on_c, 0, 78, 0
1, 72575, Note_on_c, 0, 74, 0
1, 72578, Note_on_c, 0, 76, 64
1, 72578, Note_on_c, 0, 73, 64
1, 72617, Note_on_c, 0, 76, 0
1, 72617, Note_on_c, 0, 73, 0
1, 72624, Note_on_c, 1, 64, 64
1, 72624, Note_on_c, 1, 61, 64
1, 72669, Note_on_c, 1, 64, 0
1, 72669, Note_on_c, 1, 61, 0
1, 72672, Note_on_c, 1, 67, 64
1, 72672, Note_on_c, 1, 64, 64
1, 72717, Note_on_c, 1, 67, 0
1, 72717, Note_on_c, 1, 64, 0
1, 72720, Note_on_c, 1, 66, 64
1, 72720, Note_on_c, 1, 62, 64
1, 72765, Note_on_c, 1, 66, 0
1, 72765, Note_on_c, 1, 62, 0
1, 72768, Note_on_c, 1, 64, 64
1, 72768, Note_on_c, 1, 61, 64
1, 72813, Note_on_c, 1, 64, 0
1, 72813, Note_on_c, 1, 61, 0
1, 72816, Note_on_c, 1, 62, 64
1, 72816, Note_on_c, 1, 59, 64
1, 72861, Note_on_c, 1, 62, 0
1, 72861, Note_on_c, 1, 59, 0
1, 72864, Note_on_c, 1, 61, 64
1, 72864, Note_on_c, 1, 57, 64
1, 72914, Note_on_c, 0, 76, 64
1, 72914, Note_on_c, 0, 73, 64
1, 72959, Note_on_c, 0, 76, 0
1, 72959, Note_on_c, 0, 73, 0
1, 72962, Note_on_c, 0, 79, 65
1, 72962, Note_on_c, 0, 76, 65
1, 73005, Note_on_c, 1, 61, 0
1, 73005, Note_on_c, 1, 57, 0
1, 73007, Note_on_c, 0, 79, 0
1, 73007, Note_on_c, 0, 76, 0
1, 73008, Note_on_c, 1, 62, 66
1, 73008, Note_on_c, 1, 59, 66
1, 73010, Note_on_c, 0, 78, 67
1, 73010, Note_on_c, 0, 74, 67
1, 73053, Note_on_c, 1, 62, 0
1, 73053, Note_on_c, 1, 59, 0
1, 73055, Note_on_c, 0, 78, 0
1, 73055, Note_on_c, 0, 74, 0
1, 73056, Note_on_c, 1, 64, 68
1, 73056, Note_on_c, 1, 61, 68
1, 73058, Note_on_c, 0, 76, 69
1, 73058, Note_on_c, 0, 73, 69
1, 73101, Note_on_c, 1, 64, 0
1, 73101, Note_on_c, 1, 61, 0
1, 73103, Note_on_c, 0, 76, 0
1, 73103, Note_on_c, 0, 73, 0
1, 73104, Note_on_c, 1, 66, 70
1, 73104, Note_on_c, 1, 62, 70
1, 73106, Note_on_c, 0, 74, 71
1, 73106, Note_on_c, 0, 71, 71
1, 73149, Note_on_c, 1, 66, 0
1, 73149, Note_on_c, 1, 62, 0
1, 73151, Note_on_c, 0, 74, 0
1, 73151, Note_on_c, 0, 71, 0
1, 73152, Note_on_c, 1, 67, 72
1, 73152, Note_on_c, 1, 64, 72
1, 73154, Note_on_c, 0, 73, 73
1, 73154, Note_on_c, 0, 69, 73
1, 73573, Note_on_c, 1, 67, 0
1, 73573, Note_on_c, 1, 64, 0
1, 73575, Note_on_c, 0, 73, 0
1, 73575, Note_on_c, 0, 69, 0
1, 73634, Note_on_c, 0, 81, 78
1, 73640, Note_on_c, 0, 81, 0
1, 73640, Note_on_c, 0, 81, 78
1, 73654, Note_on_c, 0, 81, 0
1, 73682, Note_on_c, 0, 83, 78
1, 73688, Note_on_c, 0, 83, 0
1, 73688, Note_on_c, 0, 81, 78
1, 73694, Note_on_c, 0, 81, 0
1, 73694, Note_on_c, 0, 79, 78
1, 73700, Note_on_c, 0, 79, 0
1, 73700, Note_on_c, 0, 81, 78
1, 73706, Note_on_c, 0, 81, 0
1, 73706, Note_on_c, 0, 86, 78
1, 73729, Note_on_c, 0, 86, 0
1, 73730, Note_on_c, 0, 81, 78
1, 73776, Note_on_c, 1, 62, 78
1, 73821, Note_on_c, 1, 62, 0
1, 73824, Note_on_c, 1, 66, 78
1, 73869, Note_on_c, 1, 66, 0
1, 73871, Note_on_c, 0, 81, 0
1, 73872, Note_on_c, 1, 62, 78
1, 73874, Note_on_c, 0, 78, 78
1, 73917, Note_on_c, 1, 62, 0
1, 73919, Note_on_c, 0, 78, 0
1, 73920, Note_on_c, 1, 64, 78
1, 73922, Note_on_c, 0, 79, 78
1, 73965, Note_on_c, 1, 64, 0
1, 73967, Note_on_c, 0, 79, 0
1, 73968, Note_on_c, 1, 61, 78
1, 73970, Note_on_c, 0, 76, 78
1, 74013, Note_on_c, 1, 61, 0
1, 74015, Note_on_c, 0, 76, 0
1, 74016, Note_on_c, 1, 62, 78
1, 74018, Note_on_c, 0, 78, 78
1, 74061, Note_on_c, 1, 62, 0
1, 74063, Note_on_c, 0, 78, 0
1, 74064, Note_on_c, 1, 54, 79
1, 74066, Note_on_c, 0, 74, 79
1, 74109, Note_on_c, 1, 54, 0
1, 74111, Note_on_c, 0, 74, 0
1, 74112, Note_on_c, 1, 55, 80
1, 74114, Note_on_c, 0, 76, 80
1, 74157, Note_on_c, 1, 55, 0
1, 74159, Note_on_c, 0, 76, 0
1, 74160, Note_on_c, 1, 57, 81
1, 74162, Note_on_c, 0, 73, 81
1, 74205, Note_on_c, 1, 57, 0
1, 74207, Note_on_c, 0, 73, 0
1, 74208, Note_on_c, 1, 54, 82
1, 74210, Note_on_c, 0, 74, 82
1, 74253, Note_on_c, 1, 54, 0
1, 74255, Note_on_c, 0, 74, 0
1, 74256, Note_on_c, 1, 66, 83
1, 74258, Note_on_c, 0, 69, 83
1, 74301, Note_on_c, 1, 66, 0
1, 74303, Note_on_c, 0, 69, 0
1, 74304, Note_on_c, 1, 67, 84
1, 74306, Note_on_c, 0, 71, 84
1, 74329, Note_on_c, 0, 71, 0
1, 74330, Note_on_c, 0, 73, 83
1, 74353, Note_on_c, 0, 73, 0
1, 74354, Note_on_c, 0, 74, 83
1, 74377, Note_on_c, 0, 74, 0
1, 74378, Note_on_c, 0, 71, 82
1, 74393, Note_on_c, 1, 67, 0
1, 74400, Note_on_c, 1, 66, 82
1, 74401, Note_on_c, 0, 71, 0
1, 74402, Note_on_c, 0, 69, 82
1, 74445, Note_on_c, 1, 66, 0
1, 74448, Note_on_c, 1, 62, 81
1, 74493, Note_on_c, 1, 62, 0
1, 74496, Note_on_c, 1, 64, 80
1, 74541, Note_on_c, 1, 64, 0
1, 74543, Note_on_c, 0, 69, 0
1, 74544, Note_on_c, 1, 57, 79
1, 74546, Note_on_c, 0, 67, 79
1, 74558, Note_on_c, 0, 67, 0
1, 74558, Note_on_c, 0, 69, 79
1, 74570, Note_on_c, 0, 69, 0
1, 74570, Note_on_c, 0, 67, 79
1, 74589, Note_on_c, 1, 57, 0
1, 74591, Note_on_c, 0, 67, 0
1, 74592, Note_on_c, 1, 62, 78
1, 74594, Note_on_c, 0, 66, 78
1, 74681, Note_on_c, 1, 62, 0
1, 74683, Note_on_c, 0, 66, 0
1, 74688, Note_on_c, 1, 50, 78
1, 74777, Note_on_c, 1, 50, 0
1, 74786, Note_on_c, 0, 81, 78
1, 74792, Note_on_c, 0, 81, 0
1, 74792, Note_on_c, 0, 81, 78
1, 74806, Note_on_c, 0, 81, 0
1, 74834, Note_on_c, 0, 83, 78
1, 74840, Note_on_c, 0, 83, 0
1, 74840, Note_on_c, 0, 81, 78
1, 74846, Note_on_c, 0, 81, 0
1, 74846, Note_on_c, 0, 79, 78
1, 74852, Note_on_c, 0, 79, 0
1, 74852, Note_on_c, 0, 81, 78
1, 74858, Note_on_c, 0, 81, 0
1, 74858, Note_on_c, 0, 86, 78
1, 74881, Note_on_c, 0, 86, 0
1, 74882, Note_on_c, 0, 81, 78
1, 74928, Note_on_c, 1, 62, 78
1, 74973, Note_on_c, 1, 62, 0
1, 74976, Note_on_c, 1, 66, 78
1, 75021, Note_on_c, 1, 66, 0
1, 75023, Note_on_c, 0, 81, 0
1, 75024, Note_on_c, 1, 62, 78
1, 75026, Note_on_c, 0, 78, 78
1, 75069, Note_on_c, 1, 62, 0
1, 75071, Note_on_c, 0, 78, 0
1, 75072, Note_on_c, 1, 64, 79
1, 75074, Note_on_c, 0, 81, 79
1, 75097, Note_on_c, 0, 81, 0
1, 75098, Note_on_c, 0, 79, 79
1, 75117, Note_on_c, 1, 64, 0
1, 75120, Note_on_c, 1, 57, 79
1, 75121, Note_on_c, 0, 79, 0
1, 75122, Note_on_c, 0, 78, 79
1, 75145, Note_on_c, 0, 78, 0
1, 75146, Note_on_c, 0, 76, 79
1, 75165, Note_on_c, 1, 57, 0
1, 75168, Note_on_c, 1, 62, 79
1, 75169, Note_on_c, 0, 76, 0
1, 75170, Note_on_c, 0, 79, 79
1, 75193, Note_on_c, 0, 79, 0
1, 75194, Note_on_c, 0, 78, 79
1, 75213, Note_on_c, 1, 62, 0
1, 75216, Note_on_c, 1, 66, 79
1, 75217, Note_on_c, 0, 78, 0
1, 75218, Note_on_c, 0, 76, 79
1, 75241, Note_on_c, 0, 76, 0
1, 75242, Note_on_c, 0, 74, 80
1, 75261, Note_on_c, 1, 66, 0
1, 75264, Note_on_c, 1, 67, 80
1, 75265, Note_on_c, 0, 74, 0
1, 75266, Note_on_c, 0, 78, 80
1, 75289, Note_on_c, 0, 78, 0
1, 75290, Note_on_c, 0, 76, 80
1, 75309, Note_on_c, 1, 67, 0
1, 75312, Note_on_c, 1, 64, 80
1, 75313, Note_on_c, 0, 76, 0
1, 75314, Note_on_c, 0, 74, 80
1, 75337, Note_on_c, 0, 74, 0
1, 75338, Note_on_c, 0, 73, 80
1, 75357, Note_on_c, 1, 64, 0
1, 75360, Note_on_c, 1, 66, 80
1, 75361, Note_on_c, 0, 73, 0
1, 75362, Note_on_c, 0, 74, 80
1, 75405, Note_on_c, 1, 66, 0
1, 75407, Note_on_c, 0, 74, 0
1, 75408, Note_on_c, 1, 62, 81
1, 75410, Note_on_c, 0, 78, 81
1, 75453, Note_on_c, 1, 62, 0
1, 75455, Note_on_c, 0, 78, 0
1, 75456, Note_on_c, 1, 64, 81
1, 75458, Note_on_c, 0, 79, 81
1, 75481, Note_on_c, 0, 79, 0
1, 75482, Note_on_c, 0, 81, 81
1, 75501, Note_on_c, 1, 64, 0
1, 75504, Note_on_c, 1, 61, 81
1, 75505, Note_on_c, 0, 81, 0
1, 75506, Note_on_c, 0, 79, 81
1, 75529, Note_on_c, 0, 79, 0
1, 75530, Note_on_c, 0, 76, 81
1, 75549, Note_on_c, 1, 61, 0
1, 75552, Note_on_c, 1, 66, 81
1, 75553, Note_on_c, 0, 76, 0
1, 75554, Note_on_c, 0, 81, 81
1, 75577, Note_on_c, 0, 81, 0
1, 75578, Note_on_c, 0, 83, 81
1, 75597, Note_on_c, 1, 66, 0
1, 75600, Note_on_c, 1, 62, 82
1, 75601, Note_on_c, 0, 83, 0
1, 75602, Note_on_c, 0, 81, 82
1, 75625, Note_on_c, 0, 81, 0
1, 75626, Note_on_c, 0, 78, 82
1, 75645, Note_on_c, 1, 62, 0
1, 75648, Note_on_c, 1, 67, 82
1, 75649, Note_on_c, 0, 78, 0
1, 75650, Note_on_c, 0, 83, 82
1, 75673, Note_on_c, 0, 83, 0
1, 75674, Note_on_c, 0, 79, 82
1, 75687, Note_on_c, 1, 67, 0
1, 75697, Note_on_c, 0, 79, 0
1, 75698, Note_on_c, 0, 76, 82
1, 75721, Note_on_c, 0, 76, 0
1, 75722, Note_on_c, 0, 74, 82
1, 75744, Note_on_c, 1, 67, 82
1, 75745, Note_on_c, 0, 74, 0
1, 75759, Note_on_c, 1, 67, 0
1, 75760, Note_on_c, 1, 69, 82
1, 75775, Note_on_c, 1, 69, 0
1, 75776, Note_on_c, 1, 73, 83
1, 75791, Note_on_c, 1, 73, 0
1, 75794, Note_on_c, 0, 76, 83
1, 75809, Note_on_c, 0, 76, 0
1, 75810, Note_on_c, 0, 81, 83
1, 75825, Note_on_c, 0, 81, 0
1, 75826, Note_on_c, 0, 85, 83
1, 75840, Note_on_c, 1, 66, 83
1, 75841, Note_on_c, 0, 85, 0
1, 75842, Note_on_c, 0, 86, 83
1, 75879, Note_on_c, 1, 66, 0
1, 75881, Note_on_c, 0, 86, 0
1, 76032, Note_on_c, 0, 61, 78
1, 76034, Note_on_c, 0, 67, 78
1, 76080, Note_on_c, 1, 45, 78
1, 76125, Note_on_c, 1, 45, 0
1, 76128, Note_on_c, 1, 57, 78
1, 76165, Note_on_c, 0, 61, 0
1, 76167, Note_on_c, 0, 67, 0
1, 76173, Note_on_c, 1, 57, 0
1, 76176, Note_on_c, 0, 64, 78
1, 76176, Note_on_c, 1, 61, 78
1, 76178, Note_on_c, 0, 64, 78
1, 76221, Note_on_c, 0, 64, 0
1, 76221, Note_on_c, 1, 61, 0
1, 76223, Note_on_c, 0, 64, 0
1, 76224, Note_on_c, 1, 62, 78
1, 76226, Note_on_c, 0, 66, 78
1, 76271, Note_on_c, 0, 66, 0
1, 76274, Note_on_c, 0, 74, 78
1, 76313, Note_on_c, 1, 62, 0
1, 76319, Note_on_c, 0, 74, 0
1, 76320, Note_on_c, 0, 67, 78
1, 76322, Note_on_c, 0, 73, 78
1, 76368, Note_on_c, 1, 45, 78
1, 76413, Note_on_c, 1, 45, 0
1, 76416, Note_on_c, 1, 57, 78
1, 76455, Note_on_c, 0, 73, 0
1, 76461, Note_on_c, 1, 57, 0
1, 76464, Note_on_c, 1, 61, 78
1, 76466, Note_on_c, 0, 76, 78
1, 76497, Note_on_c, 0, 67, 0
1, 76509, Note_on_c, 1, 61, 0
1, 76511, Note_on_c, 0, 76, 0
1, 76512, Note_on_c, 0, 66, 78
1, 76512, Note_on_c, 1, 62, 78
1, 76514, Note_on_c, 0, 74, 78
1, 76559, Note_on_c, 0, 74, 0
1, 76562, Note_on_c, 0, 62, 78
1, 76601, Note_on_c, 0, 66, 0
1, 76601, Note_on_c, 1, 62, 0
1, 76607, Note_on_c, 0, 62, 0
1, 76608, Note_on_c, 0, 61, 78
1, 76610, Note_on_c, 0, 67, 78
1, 76656, Note_on_c, 1, 45, 78
1, 76701, Note_on_c, 1, 45, 0
1, 76704, Note_on_c, 1, 57, 78
1, 76741, Note_on_c, 0, 61, 0
1, 76743, Note_on_c, 0, 67, 0
1, 76749, Note_on_c, 1, 57, 0
1, 76752, Note_on_c, 0, 64, 78
1, 76752, Note_on_c, 1, 61, 78
1, 76754, Note_on_c, 0, 64, 78
1, 76797, Note_on_c, 0, 64, 0
1, 76797, Note_on_c, 1, 61, 0
1, 76799, Note_on_c, 0, 64, 0
1, 76800, Note_on_c, 1, 62, 78
1, 76802, Note_on_c, 0, 66, 78
1, 76847, Note_on_c, 0, 66, 0
1, 76850, Note_on_c, 0, 74, 78
1, 76889, Note_on_c, 1, 62, 0
1, 76895, Note_on_c, 0, 74, 0
1, 76896, Note_on_c, 0, 73, 78
1, 76898, Note_on_c, 0, 79, 78
1, 76944, Note_on_c, 1, 45, 78
1, 76989, Note_on_c, 1, 45, 0
1, 76992, Note_on_c, 1, 57, 78
1, 77029, Note_on_c, 0, 73, 0
1, 77031, Note_on_c, 0, 79, 0
1, 77037, Note_on_c, 1, 57, 0
1, 77040, Note_on_c, 0, 76, 78
1, 77040, Note_on_c, 1, 61, 78
1, 77042, Note_on_c, 0, 76, 78
1, 77085, Note_on_c, 0, 76, 0
1, 77085, Note_on_c, 1, 61, 0
1, 77087, Note_on_c, 0, 76, 0
1, 77088, Note_on_c, 0, 69, 78
1, 77088, Note_on_c, 1, 62, 78
1, 77090, Note_on_c, 0, 78, 78
1, 77133, Note_on_c, 1, 62, 0
1, 77135, Note_on_c, 0, 78, 0
1, 77136, Note_on_c, 1, 66, 78
1, 77138, Note_on_c, 0, 74, 78
1, 77177, Note_on_c, 0, 69, 0
1, 77181, Note_on_c, 1, 66, 0
1, 77183, Note_on_c, 0, 74, 0
1, 77184, Note_on_c, 1, 67, 78
1, 77186, Note_on_c, 0, 73, 78
1, 77209, Note_on_c, 0, 73, 0
1, 77210, Note_on_c, 0, 71, 78
1, 77233, Note_on_c, 0, 71, 0
1, 77234, Note_on_c, 0, 83, 78
1, 77257, Note_on_c, 0, 83, 0
1, 77258, Note_on_c, 0, 81, 78
1, 77273, Note_on_c, 1, 67, 0
1, 77281, Note_on_c, 0, 81, 0
1, 77282, Note_on_c, 0, 79, 78
1, 77305, Note_on_c, 0, 79, 0
1, 77306, Note_on_c, 0, 78, 78
1, 77329, Note_on_c, 0, 78, 0
1, 77330, Note_on_c, 0, 76, 78
1, 77353, Note_on_c, 0, 76, 0
1, 77354, Note_on_c, 0, 86, 78
1, 77377, Note_on_c, 0, 86, 0
1, 77378, Note_on_c, 0, 85, 78
1, 77401, Note_on_c, 0, 85, 0
1, 77402, Note_on_c, 0, 83, 78
1, 77425, Note_on_c, 0, 83, 0
1, 77426, Note_on_c, 0, 81, 78
1, 77449, Note_on_c, 0, 81, 0
1, 77450, Note_on_c, 0, 79, 78
1, 77472, Note_on_c, 1, 71, 78
1, 77472, Note_on_c, 1, 67, 78
1, 77473, Note_on_c, 0, 79, 0
1, 77474, Note_on_c, 0, 78, 78
1, 77497, Note_on_c, 0, 78, 0
1, 77498, Note_on_c, 0, 76, 78
1, 77521, Note_on_c, 0, 76, 0
1, 77522, Note_on_c, 0, 83, 78
1, 77545, Note_on_c, 0, 83, 0
1, 77546, Note_on_c, 0, 81, 78
1, 77561, Note_on_c, 1, 71, 0
1, 77561, Note_on_c, 1, 67, 0
1, 77569, Note_on_c, 0, 81, 0
1, 77570, Note_on_c, 0, 79, 78
1, 77593, Note_on_c, 0, 79, 0
1, 77594, Note_on_c, 0, 78, 78
1, 77617, Note_on_c, 0, 78, 0
1, 77618, Note_on_c, 0, 76, 78
1, 77641, Note_on_c, 0, 76, 0
1, 77642, Note_on_c, 0, 86, 78
1, 77665, Note_on_c, 0, 86, 0
1, 77666, Note_on_c, 0, 85, 78
1, 77689, Note_on_c, 0, 85, 0
1, 77690, Note_on_c, 0, 83, 78
1, 77713, Note_on_c, 0, 83, 0
1, 77714, Note_on_c, 0, 81, 78
1, 77737, Note_on_c, 0, 81, 0
1, 77738, Note_on_c, 0, 79, 78
1, 77760, Note_on_c, 1, 71, 78
1, 77760, Note_on_c, 1, 67, 78
1, 77761, Note_on_c, 0, 79, 0
1, 77762, Note_on_c, 0, 78, 78
1, 77785, Note_on_c, 0, 78, 0
1, 77786, Note_on_c, 0, 76, 78
1, 77809, Note_on_c, 0, 76, 0
1, 77810, Note_on_c, 0, 83, 79
1, 77833, Note_on_c, 0, 83, 0
1, 77834, Note_on_c, 0, 81, 80
1, 77849, Note_on_c, 1, 71, 0
1, 77849, Note_on_c, 1, 67, 0
1, 77857, Note_on_c, 0, 81, 0
1, 77858, Note_on_c, 0, 79, 80
1, 77881, Note_on_c, 0, 79, 0
1, 77882, Note_on_c, 0, 78, 81
1, 77905, Note_on_c, 0, 78, 0
1, 77906, Note_on_c, 0, 76, 82
1, 77929, Note_on_c, 0, 76, 0
1, 77930, Note_on_c, 0, 78, 82
1, 77952, Note_on_c, 1, 59, 82
1, 77952, Note_on_c, 1, 56, 82
1, 77953, Note_on_c, 0, 78, 0
1, 77954, Note_on_c, 0, 76, 83
1, 77977, Note_on_c, 0, 76, 0
1, 77978, Note_on_c, 0, 74, 84
1, 78001, Note_on_c, 0, 74, 0
1, 78002, Note_on_c, 0, 73, 84
1, 78025, Note_on_c, 0, 73, 0
1, 78026, Note_on_c, 0, 71, 84
1, 78041, Note_on_c, 1, 59, 0
1, 78041, Note_on_c, 1, 56, 0
1, 78048, Note_on_c, 1, 57, 84
1, 78049, Note_on_c, 0, 71, 0
1, 78050, Note_on_c, 0, 69, 84
1, 78073, Note_on_c, 0, 69, 0
1, 78074, Note_on_c, 0, 69, 84
1, 78097, Note_on_c, 0, 69, 0
1, 78098, Note_on_c, 0, 73, 84
1, 78121, Note_on_c, 0, 73, 0
1, 78122, Note_on_c, 0, 69, 84
1, 78137, Note_on_c, 1, 57, 0
1, 78144, Note_on_c, 1, 69, 84
1, 78145, Note_on_c, 0, 69, 0
1, 78170, Note_on_c, 0, 69, 84
1, 78183, Note_on_c, 1, 69, 0
1, 78193, Note_on_c, 0, 69, 0
1, 78194, Note_on_c, 0, 73, 84
1, 78217, Note_on_c, 0, 73, 0
1, 78218, Note_on_c, 0, 69, 84
1, 78240, Note_on_c, 1, 67, 84
1, 78241, Note_on_c, 0, 69, 0
1, 78266, Note_on_c, 0, 69, 84
1, 78279, Note_on_c, 1, 67, 0
1, 78289, Note_on_c, 0, 69, 0
1, 78290, Note_on_c, 0, 73, 84
1, 78313, Note_on_c, 0, 73, 0
1, 78314, Note_on_c, 0, 69, 84
1, 78336, Note_on_c, 1, 66, 84
1, 78337, Note_on_c, 0, 69, 0
1, 78362, Note_on_c, 0, 69, 84
1, 78375, Note_on_c, 1, 66, 0
1, 78385, Note_on_c, 0, 69, 0
1, 78386, Note_on_c, 0, 74, 84
1, 78409, Note_on_c, 0, 74, 0
1, 78410, Note_on_c, 0, 69, 84
1, 78432, Note_on_c, 1, 66, 84
1, 78433, Note_on_c, 0, 69, 0
1, 78458, Note_on_c, 0, 69, 84
1, 78471, Note_on_c, 1, 66, 0
1, 78481, Note_on_c, 0, 69, 0
1, 78482, Note_on_c, 0, 81, 84
1, 78505, Note_on_c, 0, 81, 0
1, 78506, Note_on_c, 0, 69, 84
1, 78528, Note_on_c, 1, 64, 84
1, 78529, Note_on_c, 0, 69, 0
1, 78554, Note_on_c, 0, 69, 84
1, 78567, Note_on_c, 1, 64, 0
1, 78577, Note_on_c, 0, 69, 0
1, 78578, Note_on_c, 0, 79, 84
1, 78601, Note_on_c, 0, 79, 0
1, 78602, Note_on_c, 0, 69, 84
1, 78624, Note_on_c, 1, 62, 84
1, 78625, Note_on_c, 0, 69, 0
1, 78650, Note_on_c, 0, 69, 84
1, 78673, Note_on_c, 0, 69, 0
1, 78674, Note_on_c, 0, 78, 84
1, 78697, Note_on_c, 0, 78, 0
1, 78698, Note_on_c, 0, 69, 84
1, 78713, Note_on_c, 1, 62, 0
1, 78720, Note_on_c, 1, 69, 84
1, 78721, Note_on_c, 0, 69, 0
1, 78746, Note_on_c, 0, 69, 84
1, 78759, Note_on_c, 1, 69, 0
1, 78769, Note_on_c, 0, 69, 0
1, 78770, Note_on_c, 0, 73, 84
1, 78793, Note_on_c, 0, 73, 0
1, 78794, Note_on_c, 0, 69, 84
1, 78816, Note_on_c, 1, 67, 84
1, 78817, Note_on_c, 0, 69, 0
1, 78842, Note_on_c, 0, 69, 84
1, 78855, Note_on_c, 1, 67, 0
1, 78865, Note_on_c, 0, 69, 0
1, 78866, Note_on_c, 0, 73, 84
1, 78889, Note_on_c, 0, 73, 0
1, 78890, Note_on_c, 0, 69, 84
1, 78912, Note_on_c, 1, 65, 84
1, 78913, Note_on_c, 0, 69, 0
1, 78938, Note_on_c, 0, 69, 84
1, 78951, Note_on_c, 1, 65, 0
1, 78961, Note_on_c, 0, 69, 0
1, 78962, Note_on_c, 0, 74, 84
1, 78985, Note_on_c, 0, 74, 0
1, 78986, Note_on_c, 0, 69, 84
1, 79008, Note_on_c, 1, 65, 84
1, 79009, Note_on_c, 0, 69, 0
1, 79034, Note_on_c, 0, 69, 84
1, 79047, Note_on_c, 1, 65, 0
1, 79057, Note_on_c, 0, 69, 0
1, 79058, Note_on_c, 0, 81, 84
1, 79081, Note_on_c, 0, 81, 0
1, 79082, Note_on_c, 0, 69, 84
1, 79104, Note_on_c, 1, 64, 84
1, 79105, Note_on_c, 0, 69, 0
1, 79130, Note_on_c, 0, 69, 84
1, 79143, Note_on_c, 1, 64, 0
1, 79153, Note_on_c, 0, 69, 0
1, 79154, Note_on_c, 0, 79, 84
1, 79177, Note_on_c, 0, 79, 0
1, 79178, Note_on_c, 0, 69, 84
1, 79200, Note_on_c, 1, 62, 84
1, 79201, Note_on_c, 0, 69, 0
1, 79226, Note_on_c, 0, 74, 84
1, 79249, Note_on_c, 0, 74, 0
1, 79250, Note_on_c, 0, 77, 84
1, 79273, Note_on_c, 0, 77, 0
1, 79274, Note_on_c, 0, 74, 84
1, 79289, Note_on_c, 1, 62, 0
1, 79296, Note_on_c, 1, 74, 84
1, 79297, Note_on_c, 0, 74, 0
1, 79322, Note_on_c, 0, 74, 84
1, 79335, Note_on_c, 1, 74, 0
1, 79345, Note_on_c, 0, 74, 0
1, 79346, Note_on_c, 0, 77, 84
1, 79369, Note_on_c, 0, 77, 0
1, 79370, Note_on_c, 0, 74, 84
1, 79392, Note_on_c, 1, 72, 84
1, 79393, Note_on_c, 0, 74, 0
1, 79418, Note_on_c, 0, 74, 84
1, 79441, Note_on_c, 0, 74, 0
1, 79442, Note_on_c, 0, 78, 84
1, 79465, Note_on_c, 0, 78, 0
1, 79466, Note_on_c, 0, 74, 84
1, 79481, Note_on_c, 1, 72, 0
1, 79488, Note_on_c, 1, 71, 84
1, 79489, Note_on_c, 0, 74, 0
1, 79514, Note_on_c, 0, 74, 84
1, 79537, Note_on_c, 0, 74, 0
1, 79538, Note_on_c, 0, 79, 84
1, 79561, Note_on_c, 0, 79, 0
1, 79562, Note_on_c, 0, 74, 84
1, 79577, Note_on_c, 1, 71, 0
1, 79584, Note_on_c, 1, 70, 84
1, 79585, Note_on_c, 0, 74, 0
1, 79610, Note_on_c, 0, 74, 84
1, 79623, Note_on_c, 1, 70, 0
1, 79633, Note_on_c, 0, 74, 0
1, 79634, Note_on_c, 0, 80, 84
1, 79657, Note_on_c, 0, 80, 0
1, 79658, Note_on_c, 0, 74, 84
1, 79680, Note_on_c, 1, 69, 84
1, 79681, Note_on_c, 0, 74, 0
1, 79706, Note_on_c, 0, 74, 84
1, 79729, Note_on_c, 0, 74, 0
1, 79730, Note_on_c, 0, 81, 84
1, 79753, Note_on_c, 0, 81, 0
1, 79754, Note_on_c, 0, 74, 84
1, 79769, Note_on_c, 1, 69, 0
1, 79776, Note_on_c, 1, 68, 84
1, 79777, Note_on_c, 0, 74, 0
1, 79802, Note_on_c, 0, 74, 84
1, 79825, Note_on_c, 0, 74, 0
1, 79826, Note_on_c, 0, 83, 84
1, 79849, Note_on_c, 0, 83, 0
1, 79850, Note_on_c, 0, 74, 84
1, 79865, Note_on_c, 1, 68, 0
1, 79872, Note_on_c, 1, 77, 84
1, 79873, Note_on_c, 0, 74, 0
1, 79898, Note_on_c, 0, 74, 84
1, 79911, Note_on_c, 1, 77, 0
1, 79921, Note_on_c, 0, 74, 0
1, 79922, Note_on_c, 0, 83, 84
1, 79945, Note_on_c, 0, 83, 0
1, 79946, Note_on_c, 0, 74, 84
1, 79968, Note_on_c, 1, 68, 84
1, 79969, Note_on_c, 0, 74, 0
1, 79994, Note_on_c, 0, 74, 84
1, 80017, Note_on_c, 0, 74, 0
1, 80018, Note_on_c, 0, 83, 84
1, 80041, Note_on_c, 0, 83, 0
1, 80042, Note_on_c, 0, 74, 84
1, 80057, Note_on_c, 1, 68, 0
1, 80064, Note_on_c, 1, 69, 84
1, 80065, Note_on_c, 0, 74, 0
1, 80090, Note_on_c, 0, 74, 84
1, 80113, Note_on_c, 0, 74, 0
1, 80114, Note_on_c, 0, 81, 84
1, 80137, Note_on_c, 0, 81, 0
1, 80138, Note_on_c, 0, 74, 84
1, 80153, Note_on_c, 1, 69, 0
1, 80160, Note_on_c, 1, 77, 84
1, 80161, Note_on_c, 0, 74, 0
1, 80186, Note_on_c, 0, 74, 84
1, 80199, Note_on_c, 1, 77, 0
1, 80209, Note_on_c, 0, 74, 0
1, 80210, Note_on_c, 0, 81, 84
1, 80233, Note_on_c, 0, 81, 0
1, 80234, Note_on_c, 0, 74, 84
1, 80256, Note_on_c, 1, 69, 84
1, 80257, Note_on_c, 0, 74, 0
1, 80282, Note_on_c, 0, 74, 84
1, 80305, Note_on_c, 0, 74, 0
1, 80306, Note_on_c, 0, 81, 84
1, 80329, Note_on_c, 0, 81, 0
1, 80330, Note_on_c, 0, 74, 84
1, 80345, Note_on_c, 1, 69, 0
1, 80352, Note_on_c, 1, 70, 84
1, 80353, Note_on_c, 0, 74, 0
1, 80378, Note_on_c, 0, 74, 84
1, 80401, Note_on_c, 0, 74, 0
1, 80402, Note_on_c, 0, 80, 84
1, 80425, Note_on_c, 0, 80, 0
1, 80426, Note_on_c, 0, 74, 84
1, 80441, Note_on_c, 1, 70, 0
1, 80448, Note_on_c, 1, 77, 84
1, 80449, Note_on_c, 0, 74, 0
1, 80474, Note_on_c, 0, 74, 84
1, 80487, Note_on_c, 1, 77, 0
1, 80497, Note_on_c, 0, 74, 0
1, 80498, Note_on_c, 0, 80, 84
1, 80521, Note_on_c, 0, 80, 0
1, 80522, Note_on_c, 0, 74, 84
1, 80544, Note_on_c, 1, 70, 84
1, 80545, Note_on_c, 0, 74, 0
1, 80570, Note_on_c, 0, 74, 84
1, 80593, Note_on_c, 0, 74, 0
1, 80594, Note_on_c, 0, 80, 84
1, 80617, Note_on_c, 0, 80, 0
1, 80618, Note_on_c, 0, 74, 84
1, 80633, Note_on_c, 1, 70, 0
1, 80640, Note_on_c, 1, 69, 84
1, 80641, Note_on_c, 0, 74, 0
1, 80666, Note_on_c, 0, 73, 84
1, 80689, Note_on_c, 0, 73, 0
1, 80690, Note_on_c, 0, 81, 84
1, 80713, Note_on_c, 0, 81, 0
1, 80714, Note_on_c, 0, 73, 84
1, 80729, Note_on_c, 1, 69, 0
1, 80736, Note_on_c, 1, 67, 84
1, 80736, Note_on_c, 1, 55, 84
1, 80737, Note_on_c, 0, 73, 0
1, 80762, Note_on_c, 0, 73, 84
1, 80785, Note_on_c, 0, 73, 0
1, 80786, Note_on_c, 0, 85, 84
1, 80809, Note_on_c, 0, 85, 0
1, 80810, Note_on_c, 0, 73, 84
1, 80825, Note_on_c, 1, 67, 0
1, 80825, Note_on_c, 1, 55, 0
1, 80832, Note_on_c, 1, 66, 84
1, 80832, Note_on_c, 1, 54, 84
1, 80833, Note_on_c, 0, 73, 0
1, 80858, Note_on_c, 0, 74, 84
1, 80881, Note_on_c, 0, 74, 0
1, 80882, Note_on_c, 0, 86, 84
1, 80905, Note_on_c, 0, 86, 0
1, 80906, Note_on_c, 0, 74, 84
1, 80921, Note_on_c, 1, 66, 0
1, 80921, Note_on_c, 1, 54, 0
1, 80928, Note_on_c, 1, 64, 84
1, 80928, Note_on_c, 1, 52, 84
1, 80929, Note_on_c, 0, 74, 0
1, 80954, Note_on_c, 0, 67, 84
1, 80977, Note_on_c, 0, 67, 0
1, 80978, Note_on_c, 0, 79, 84
1, 81001, Note_on_c, 0, 79, 0
1, 81002, Note_on_c, 0, 67, 84
1, 81017, Note_on_c, 1, 64, 0
1, 81017, Note_on_c, 1, 52, 0
1, 81024, Note_on_c, 1, 61, 84
1, 81024, Note_on_c, 1, 49, 84
1, 81025, Note_on_c, 0, 67, 0
1, 81050, Note_on_c, 0, 64, 84
1, 81073, Note_on_c, 0, 64, 0
1, 81074, Note_on_c, 0, 76, 84
1, 81097, Note_on_c, 0, 76, 0
1, 81098, Note_on_c, 0, 64, 84
1, 81113, Note_on_c, 1, 61, 0
1, 81113, Note_on_c, 1, 49, 0
1, 81120, Note_on_c, 1, 62, 84
1, 81120, Note_on_c, 1, 50, 84
1, 81121, Note_on_c, 0, 64, 0
1, 81146, Note_on_c, 0, 66, 84
1, 81169, Note_on_c, 0, 66, 0
1, 81170, Note_on_c, 0, 78, 84
1, 81193, Note_on_c, 0, 78, 0
1, 81194, Note_on_c, 0, 66, 84
1, 81209, Note_on_c, 1, 62, 0
1, 81209, Note_on_c, 1, 50, 0
1, 81216, Note_on_c, 1, 59, 84
1, 81216, Note_on_c, 1, 55, 84
1, 81217, Note_on_c, 0, 66, 0
1, 81242, Note_on_c, 0, 71, 84
1, 81265, Note_on_c, 0, 71, 0
1, 81266, Note_on_c, 0, 70, 84
1, 81289, Note_on_c, 0, 70, 0
1, 81290, Note_on_c, 0, 71, 84
1, 81305, Note_on_c, 1, 59, 0
1, 81305, Note_on_c, 1, 55, 0
1, 81313, Note_on_c, 0, 71, 0
1, 81314, Note_on_c, 0, 76, 84
1, 81337, Note_on_c, 0, 76, 0
1, 81338, Note_on_c, 0, 71, 84
1, 81361, Note_on_c, 0, 71, 0
1, 81362, Note_on_c, 0, 70, 84
1, 81385, Note_on_c, 0, 70, 0
1, 81386, Note_on_c, 0, 71, 84
1, 81409, Note_on_c, 0, 71, 0
1, 81410, Note_on_c, 0, 79, 84
1, 81433, Note_on_c, 0, 79, 0
1, 81434, Note_on_c, 0, 71, 84
1, 81457, Note_on_c, 0, 71, 0
1, 81458, Note_on_c, 0, 70, 84
1, 81481, Note_on_c, 0, 70, 0
1, 81482, Note_on_c, 0, 71, 84
1, 81505, Note_on_c, 0, 71, 0
1, 81506, Note_on_c, 0, 81, 84
1, 81600, Note_on_c, 1, 66, 78
1, 81600, Note_on_c, 1, 57, 78
1, 81639, Note_on_c, 0, 81, 0
1, 81650, Note_on_c, 0, 78, 84
1, 81673, Note_on_c, 0, 78, 0
1, 81674, Note_on_c, 0, 74, 84
1, 81689, Note_on_c, 1, 66, 0
1, 81689, Note_on_c, 1, 57, 0
1, 81696, Note_on_c, 1, 64, 78
1, 81696, Note_on_c, 1, 57, 78
1, 81697, Note_on_c, 0, 74, 0
1, 81698, Note_on_c, 0, 79, 84
1, 81743, Note_on_c, 0, 79, 0
1, 81746, Note_on_c, 0, 76, 84
1, 81769, Note_on_c, 0, 76, 0
1, 81770, Note_on_c, 0, 73, 84
1, 81785, Note_on_c, 1, 64, 0
1, 81785, Note_on_c, 1, 57, 0
1, 81792, Note_on_c, 1, 62, 78
1, 81792, Note_on_c, 1, 50, 78
1, 81793, Note_on_c, 0, 73, 0
1, 81794, Note_on_c, 0, 74, 84
1, 81881, Note_on_c, 1, 62, 0
1, 81881, Note_on_c, 1, 50, 0
1, 81883, Note_on_c, 0, 74, 0
1, 81936, Note_on_c, 1, 66, 64
1, 81938, Note_on_c, 0, 71, 64
1, 81950, Note_on_c, 0, 71, 0
1, 81950, Note_on_c, 0, 69, 64
1, 81962, Note_on_c, 0, 69, 0
1, 81962, Note_on_c, 0, 67, 64
1, 81974, Note_on_c, 0, 67, 0
1, 81974, Note_on_c, 0, 69, 64
1, 81981, Note_on_c, 1, 66, 0
1, 81984, Note_on_c, 1, 67, 64
1, 81986, Note_on_c, 0, 69, 0
1, 81986, Note_on_c, 0, 71, 64
1, 82029, Note_on_c, 1, 67, 0
1, 82031, Note_on_c, 0, 71, 0
1, 82032, Note_on_c, 1, 64, 64
1, 82034, Note_on_c, 0, 67, 64
1, 82077, Note_on_c, 1, 64, 0
1, 82079, Note_on_c, 0, 67, 0
1, 82080, Note_on_c, 1, 66, 64
1, 82082, Note_on_c, 0, 69, 64
1, 82125, Note_on_c, 1, 66, 0
1, 82127, Note_on_c, 0, 69, 0
1, 82128, Note_on_c, 1, 62, 64
1, 82130, Note_on_c, 0, 66, 64
1, 82173, Note_on_c, 1, 62, 0
1, 82175, Note_on_c, 0, 66, 0
1, 82176, Note_on_c, 1, 64, 64
1, 82178, Note_on_c, 0, 67, 64
1, 82221, Note_on_c, 1, 64, 0
1, 82223, Note_on_c, 0, 67, 0
1, 82224, Note_on_c, 1, 57, 64
1, 82226, Note_on_c, 0, 64, 64
1, 82269, Note_on_c, 1, 57, 0
1, 82271, Note_on_c, 0, 64, 0
1, 82272, Note_on_c, 1, 62, 65
1, 82274, Note_on_c, 0, 66, 65
1, 82317, Note_on_c, 1, 62, 0
1, 82319, Note_on_c, 0, 66, 0
1, 82320, Note_on_c, 1, 66, 66
1, 82322, Note_on_c, 0, 76, 66
1, 82334, Note_on_c, 0, 76, 0
1, 82334, Note_on_c, 0, 74, 66
1, 82346, Note_on_c, 0, 74, 0
1, 82346, Note_on_c, 0, 73, 66
1, 82358, Note_on_c, 0, 73, 0
1, 82358, Note_on_c, 0, 74, 66
1, 82365, Note_on_c, 1, 66, 0
1, 82368, Note_on_c, 1, 67, 68
1, 82370, Note_on_c, 0, 74, 0
1, 82370, Note_on_c, 0, 76, 67
1, 82413, Note_on_c, 1, 67, 0
1, 82415, Note_on_c, 0, 76, 0
1, 82416, Note_on_c, 1, 64, 69
1, 82418, Note_on_c, 0, 73, 69
1, 82461, Note_on_c, 1, 64, 0
1, 82463, Note_on_c, 0, 73, 0
1, 82464, Note_on_c, 1, 66, 70
1, 82466, Note_on_c, 0, 74, 70
1, 82509, Note_on_c, 1, 66, 0
1, 82511, Note_on_c, 0, 74, 0
1, 82512, Note_on_c, 1, 69, 72
1, 82514, Note_on_c, 0, 79, 71
1, 82526, Note_on_c, 0, 79, 0
1, 82526, Note_on_c, 0, 78, 71
1, 82538, Note_on_c, 0, 78, 0
1, 82538, Note_on_c, 0, 76, 71
1, 82550, Note_on_c, 0, 76, 0
1, 82550, Note_on_c, 0, 78, 71
1, 82557, Note_on_c, 1, 69, 0
1, 82560, Note_on_c, 1, 71, 73
1, 82562, Note_on_c, 0, 78, 0
1, 82562, Note_on_c, 0, 79, 72
1, 82605, Note_on_c, 1, 71, 0
1, 82607, Note_on_c, 0, 79, 0
1, 82608, Note_on_c, 1, 67, 74
1, 82610, Note_on_c, 0, 76, 74
1, 82653, Note_on_c, 1, 67, 0
1, 82655, Note_on_c, 0, 76, 0
1, 82656, Note_on_c, 1, 69, 76
1, 82658, Note_on_c, 0, 78, 75
1, 82701, Note_on_c, 1, 69, 0
1, 82703, Note_on_c, 0, 78, 0
1, 82704, Note_on_c, 1, 66, 77
1, 82706, Note_on_c, 0, 81, 76
1, 82749, Note_on_c, 1, 66, 0
1, 82751, Note_on_c, 0, 81, 0
1, 82752, Note_on_c, 1, 67, 78
1, 82754, Note_on_c, 0, 83, 77
1, 82797, Note_on_c, 1, 67, 0
1, 82799, Note_on_c, 0, 83, 0
1, 82800, Note_on_c, 1, 76, 80
1, 82802, Note_on_c, 0, 79, 79
1, 82845, Note_on_c, 1, 76, 0
1, 82847, Note_on_c, 0, 79, 0
1, 82848, Note_on_c, 1, 66, 81
1, 82850, Note_on_c, 0, 81, 80
1, 82893, Note_on_c, 1, 66, 0
1, 82895, Note_on_c, 0, 81, 0
1, 82896, Note_on_c, 1, 74, 82
1, 82898, Note_on_c, 0, 78, 81
1, 82941, Note_on_c, 1, 74, 0
1, 82943, Note_on_c, 0, 78, 0
1, 82944, Note_on_c, 1, 64, 84
1, 82946, Note_on_c, 0, 79, 82
1, 82989, Note_on_c, 1, 64, 0
1, 82991, Note_on_c, 0, 79, 0
1, 82992, Note_on_c, 1, 73, 84
1, 82994, Note_on_c, 0, 76, 84
1, 83037, Note_on_c, 1, 73, 0
1, 83039, Note_on_c, 0, 76, 0
1, 83040, Note_on_c, 1, 62, 84
1, 83042, Note_on_c, 0, 78, 84
1, 83065, Note_on_c, 0, 78, 0
1, 83066, Note_on_c, 0, 81, 84
1, 83089, Note_on_c, 0, 81, 0
1, 83090, Note_on_c, 0, 78, 84
1, 83113, Note_on_c, 0, 78, 0
1, 83114, Note_on_c, 0, 74, 84
1, 83129, Note_on_c, 1, 62, 0
1, 83137, Note_on_c, 0, 74, 0
1, 83138, Note_on_c, 0, 74, 84
1, 83161, Note_on_c, 0, 74, 0
1, 83162, Note_on_c, 0, 78, 84
1, 83185, Note_on_c, 0, 78, 0
1, 83186, Note_on_c, 0, 74, 84
1, 83209, Note_on_c, 0, 74, 0
1, 83210, Note_on_c, 0, 69, 84
1, 83233, Note_on_c, 0, 69, 0
1, 83234, Note_on_c, 0, 69, 84
1, 83257, Note_on_c, 0, 69, 0
1, 83258, Note_on_c, 0, 74, 84
1, 83281, Note_on_c, 0, 74, 0
1, 83282, Note_on_c, 0, 69, 84
1, 83305, Note_on_c, 0, 69, 0
1, 83306, Note_on_c, 0, 66, 84
1, 83329, Note_on_c, 0, 66, 0
1, 83330, Note_on_c, 0, 66, 84
1, 83353, Note_on_c, 0, 66, 0
1, 83354, Note_on_c, 0, 69, 84
1, 83377, Note_on_c, 0, 69, 0
1, 83378, Note_on_c, 0, 66, 84
1, 83401, Note_on_c, 0, 66, 0
1, 83402, Note_on_c, 0, 62, 84
1, 83425, Note_on_c, 0, 62, 0
1, 83426, Note_on_c, 0, 62, 84
1, 83449, Note_on_c, 0, 62, 0
1, 83450, Note_on_c, 0, 66, 84
1, 83473, Note_on_c, 0, 66, 0
1, 83474, Note_on_c, 0, 62, 84
1, 83497, Note_on_c, 0, 62, 0
1, 83498, Note_on_c, 0, 57, 84
1, 83520, Note_on_c, 1, 44, 100
1, 83520, Note_on_c, 1, 32, 100
1, 83521, Note_on_c, 0, 57, 0
1, 83522, Note_on_c, 0, 56, 100
1, 83616, Note_on_c, 1, 44, 0
1, 83616, Note_on_c, 1, 32, 0
1, 83616, Note_on_c, 1, 56, 84
1, 83618, Note_on_c, 0, 56, 0
1, 83642, Note_on_c, 0, 62, 78
1, 83655, Note_on_c, 1, 56, 0
1, 83665, Note_on_c, 0, 62, 0
1, 83666, Note_on_c, 0, 65, 78
1, 83689, Note_on_c, 0, 65, 0
1, 83690, Note_on_c, 0, 62, 78
1, 83712, Note_on_c, 1, 62, 84
1, 83713, Note_on_c, 0, 62, 0
1, 83738, Note_on_c, 0, 62, 78
1, 83751, Note_on_c, 1, 62, 0
1, 83761, Note_on_c, 0, 62, 0
1, 83762, Note_on_c, 0, 65, 78
1, 83785, Note_on_c, 0, 65, 0
1, 83786, Note_on_c, 0, 62, 78
1, 83808, Note_on_c, 1, 45, 100
1, 83808, Note_on_c, 1, 33, 100
1, 83809, Note_on_c, 0, 62, 0
1, 83834, Note_on_c, 0, 62, 78
1, 83857, Note_on_c, 0, 62, 0
1, 83858, Note_on_c, 0, 65, 78
1, 83881, Note_on_c, 0, 65, 0
1, 83882, Note_on_c, 0, 62, 78
1, 83904, Note_on_c, 1, 45, 0
1, 83904, Note_on_c, 1, 33, 0
1, 83904, Note_on_c, 1, 57, 84
1, 83905, Note_on_c, 0, 62, 0
1, 83930, Note_on_c, 0, 62, 78
1, 83943, Note_on_c, 1, 57, 0
1, 83953, Note_on_c, 0, 62, 0
1, 83954, Note_on_c, 0, 65, 78
1, 83977, Note_on_c, 0, 65, 0
1, 83978, Note_on_c, 0, 62, 78
1, 84000, Note_on_c, 1, 62, 84
1, 84001, Note_on_c, 0, 62, 0
1, 84026, Note_on_c, 0, 62, 78
1, 84039, Note_on_c, 1, 62, 0
1, 84049, Note_on_c, 0, 62, 0
1, 84050, Note_on_c, 0, 65, 78
1, 84073, Note_on_c, 0, 65, 0
1, 84074, Note_on_c, 0, 62, 78
1, 84096, Note_on_c, 1, 46, 100
1, 84096, Note_on_c, 1, 34, 100
1, 84097, Note_on_c, 0, 62, 0
1, 84122, Note_on_c, 0, 62, 78
1, 84145, Note_on_c, 0, 62, 0
1, 84146, Note_on_c, 0, 65, 78
1, 84169, Note_on_c, 0, 65, 0
1, 84170, Note_on_c, 0, 62, 78
1, 84192, Note_on_c, 1, 46, 0
1, 84192, Note_on_c, 1, 34, 0
1, 84192, Note_on_c, 1, 58, 84
1, 84193, Note_on_c, 0, 62, 0
1, 84218, Note_on_c, 0, 62, 78
1, 84231, Note_on_c, 1, 58, 0
1, 84241, Note_on_c, 0, 62, 0
1, 84242, Note_on_c, 0, 74, 78
1, 84265, Note_on_c, 0, 74, 0
1, 84266, Note_on_c, 0, 62, 78
1, 84288, Note_on_c, 1, 58, 84
1, 84289, Note_on_c, 0, 62, 0
1, 84314, Note_on_c, 0, 62, 78
1, 84327, Note_on_c, 1, 58, 0
1, 84337, Note_on_c, 0, 62, 0
1, 84338, Note_on_c, 0, 72, 78
1, 84361, Note_on_c, 0, 72, 0
1, 84362, Note_on_c, 0, 62, 78
1, 84384, Note_on_c, 1, 58, 84
1, 84385, Note_on_c, 0, 62, 0
1, 84410, Note_on_c, 0, 62, 78
1, 84423, Note_on_c, 1, 58, 0
1, 84433, Note_on_c, 0, 62, 0
1, 84434, Note_on_c, 0, 70, 78
1, 84457, Note_on_c, 0, 70, 0
1, 84458, Note_on_c, 0, 62, 78
1, 84480, Note_on_c, 1, 58, 84
1, 84481, Note_on_c, 0, 62, 0
1, 84506, Note_on_c, 0, 62, 78
1, 84519, Note_on_c, 1, 58, 0
1, 84529, Note_on_c, 0, 62, 0
1, 84530, Note_on_c, 0, 69, 78
1, 84553, Note_on_c, 0, 69, 0
1, 84554, Note_on_c, 0, 62, 78
1, 84576, Note_on_c, 1, 58, 84
1, 84577, Note_on_c, 0, 62, 0
1, 84602, Note_on_c, 0, 62, 78
1, 84615, Note_on_c, 1, 58, 0
1, 84625, Note_on_c, 0, 62, 0
1, 84626, Note_on_c, 0, 68, 78
1, 84649, Note_on_c, 0, 68, 0
1, 84650, Note_on_c, 0, 62, 78
1, 84672, Note_on_c, 1, 57, 84
1, 84673, Note_on_c, 0, 62, 0
1, 84698, Note_on_c, 0, 61, 78
1, 84721, Note_on_c, 0, 61, 0
1, 84722, Note_on_c, 0, 69, 78
1, 84745, Note_on_c, 0, 69, 0
1, 84746, Note_on_c, 0, 61, 78
1, 84761, Note_on_c, 1, 57, 0
1, 84768, Note_on_c, 1, 61, 84
1, 84769, Note_on_c, 0, 61, 0
1, 84794, Note_on_c, 0, 64, 78
1, 84817, Note_on_c, 0, 64, 0
1, 84818, Note_on_c, 0, 67, 78
1, 84841, Note_on_c, 0, 67, 0
1, 84842, Note_on_c, 0, 64, 78
1, 84857, Note_on_c, 1, 61, 0
1, 84864, Note_on_c, 1, 62, 84
1, 84865, Note_on_c, 0, 64, 0
1, 84890, Note_on_c, 0, 62, 78
1, 84913, Note_on_c, 0, 62, 0
1, 84914, Note_on_c, 0, 66, 78
1, 84937, Note_on_c, 0, 66, 0
1, 84938, Note_on_c, 0, 62, 78
1, 84953, Note_on_c, 1, 62, 0
1, 84960, Note_on_c, 1, 55, 84
1, 84960, Note_on_c, 1, 43, 84
1, 84961, Note_on_c, 0, 62, 0
1, 84986, Note_on_c, 0, 64, 78
1, 85009, Note_on_c, 0, 64, 0
1, 85010, Note_on_c, 0, 67, 77
1, 85033, Note_on_c, 0, 67, 0
1, 85034, Note_on_c, 0, 64, 77
1, 85049, Note_on_c, 1, 55, 0
1, 85049, Note_on_c, 1, 43, 0
1, 85056, Note_on_c, 1, 54, 84
1, 85056, Note_on_c, 1, 45, 84
1, 85057, Note_on_c, 0, 64, 0
1, 85058, Note_on_c, 0, 62, 76
1, 85145, Note_on_c, 1, 54, 0
1, 85145, Note_on_c, 1, 45, 0
1, 85152, Note_on_c, 1, 52, 84
1, 85152, Note_on_c, 1, 45, 84
1, 85199, Note_on_c, 0, 62, 0
1, 85202, Note_on_c, 0, 61, 73
1, 85214, Note_on_c, 0, 61, 0
1, 85214, Note_on_c, 0, 62, 73
1, 85226, Note_on_c, 0, 62, 0
1, 85226, Note_on_c, 0, 61, 73
1, 85241, Note_on_c, 1, 52, 0
1, 85241, Note_on_c, 1, 45, 0
1, 85247, Note_on_c, 0, 61, 0
1, 85248, Note_on_c, 1, 54, 84
1, 85250, Note_on_c, 0, 62, 72
1, 85271, Note_on_c, 1, 54, 0
1, 85272, Note_on_c, 1, 62, 84
1, 85295, Note_on_c, 1, 62, 0
1, 85296, Note_on_c, 1, 61, 84
1, 85319, Note_on_c, 1, 61, 0
1, 85320, Note_on_c, 1, 62, 84
1, 85339, Note_on_c, 0, 62, 0
1, 85343, Note_on_c, 1, 62, 0
1, 85344, Note_on_c, 1, 54, 84
1, 85346, Note_on_c, 0, 86, 84
1, 85367, Note_on_c, 1, 54, 0
1, 85368, Note_on_c, 1, 62, 84
1, 85391, Note_on_c, 1, 62, 0
1, 85392, Note_on_c, 1, 61, 84
1, 85415, Note_on_c, 1, 61, 0
1, 85416, Note_on_c, 1, 62, 84
1, 85435, Note_on_c, 0, 86, 0
1, 85439, Note_on_c, 1, 62, 0
1, 85440, Note_on_c, 1, 54, 84
1, 85442, Note_on_c, 0, 85, 84
1, 85463, Note_on_c, 1, 54, 0
1, 85464, Note_on_c, 1, 62, 84
1, 85487, Note_on_c, 1, 62, 0
1, 85488, Note_on_c, 1, 61, 84
1, 85511, Note_on_c, 1, 61, 0
1, 85512, Note_on_c, 1, 62, 84
1, 85531, Note_on_c, 0, 85, 0
1, 85535, Note_on_c, 1, 62, 0
1, 85536, Note_on_c, 1, 55, 78
1, 85538, Note_on_c, 0, 85, 84
1, 85550, Note_on_c, 0, 85, 0
1, 85550, Note_on_c, 0, 83, 84
1, 85559, Note_on_c, 1, 55, 0
1, 85560, Note_on_c, 1, 62, 77
1, 85562, Note_on_c, 0, 83, 0
1, 85562, Note_on_c, 0, 82, 84
1, 85574, Note_on_c, 0, 82, 0
1, 85574, Note_on_c, 0, 83, 84
1, 85583, Note_on_c, 1, 62, 0
1, 85584, Note_on_c, 1, 61, 76
1, 85607, Note_on_c, 1, 61, 0
1, 85608, Note_on_c, 1, 62, 76
1, 85627, Note_on_c, 0, 83, 0
1, 85631, Note_on_c, 1, 62, 0
1, 85632, Note_on_c, 1, 55, 75
1, 85634, Note_on_c, 0, 81, 84
1, 85646, Note_on_c, 0, 81, 0
1, 85646, Note_on_c, 0, 79, 84
1, 85655, Note_on_c, 1, 55, 0
1, 85656, Note_on_c, 1, 64, 75
1, 85658, Note_on_c, 0, 79, 0
1, 85658, Note_on_c, 0, 78, 84
1, 85670, Note_on_c, 0, 78, 0
1, 85670, Note_on_c, 0, 79, 84
1, 85679, Note_on_c, 1, 64, 0
1, 85680, Note_on_c, 1, 63, 74
1, 85703, Note_on_c, 1, 63, 0
1, 85704, Note_on_c, 1, 64, 73
1, 85723, Note_on_c, 0, 79, 0
1, 85727, Note_on_c, 1, 64, 0
1, 85728, Note_on_c, 1, 55, 73
1, 85730, Note_on_c, 0, 78, 84
1, 85736, Note_on_c, 0, 78, 0
1, 85736, Note_on_c, 0, 76, 84
1, 85742, Note_on_c, 0, 76, 0
1, 85742, Note_on_c, 0, 75, 84
1, 85748, Note_on_c, 0, 75, 0
1, 85748, Note_on_c, 0, 76, 84
1, 85751, Note_on_c, 1, 55, 0
1, 85752, Note_on_c, 1, 64, 72
1, 85775, Note_on_c, 1, 64, 0
1, 85776, Note_on_c, 1, 63, 72
1, 85799, Note_on_c, 1, 63, 0
1, 85800, Note_on_c, 1, 64, 71
1, 85819, Note_on_c, 0, 76, 0
1, 85823, Note_on_c, 1, 64, 0
1, 85824, Note_on_c, 1, 57, 71
1, 85826, Note_on_c, 0, 69, 78
1, 85847, Note_on_c, 1, 57, 0
1, 85848, Note_on_c, 1, 66, 70
1, 85871, Note_on_c, 1, 66, 0
1, 85872, Note_on_c, 1, 62, 69
1, 85895, Note_on_c, 1, 62, 0
1, 85896, Note_on_c, 1, 66, 69
1, 85915, Note_on_c, 0, 69, 0
1, 85919, Note_on_c, 1, 66, 0
1, 85920, Note_on_c, 1, 57, 68
1, 85922, Note_on_c, 0, 78, 73
1, 85935, Note_on_c, 0, 78, 0
1, 85936, Note_on_c, 0, 76, 72
1, 85943, Note_on_c, 1, 57, 0
1, 85944, Note_on_c, 1, 67, 68
1, 85949, Note_on_c, 0, 76, 0
1, 85950, Note_on_c, 0, 78, 72
1, 85963, Note_on_c, 0, 78, 0
1, 85964, Note_on_c, 0, 76, 71
1, 85967, Note_on_c, 1, 67, 0
1, 85968, Note_on_c, 1, 64, 67
1, 85977, Note_on_c, 0, 76, 0
1, 85978, Note_on_c, 0, 78, 71
1, 85991, Note_on_c, 0, 78, 0
1, 85991, Note_on_c, 1, 64, 0
1, 85992, Note_on_c, 0, 76, 70
1, 85992, Note_on_c, 1, 67, 66
1, 86005, Note_on_c, 0, 76, 0
1, 86006, Note_on_c, 0, 78, 69
1, 86015, Note_on_c, 1, 67, 0
1, 86016, Note_on_c, 1, 57, 66
1, 86019, Note_on_c, 0, 78, 0
1, 86020, Note_on_c, 0, 76, 69
1, 86033, Note_on_c, 0, 76, 0
1, 86034, Note_on_c, 0, 78, 68
1, 86039, Note_on_c, 1, 57, 0
1, 86040, Note_on_c, 1, 67, 65
1, 86047, Note_on_c, 0, 78, 0
1, 86048, Note_on_c, 0, 76, 68
1, 86061, Note_on_c, 0, 76, 0
1, 86062, Note_on_c, 0, 74, 67
1, 86063, Note_on_c, 1, 67, 0
1, 86064, Note_on_c, 1, 64, 65
1, 86087, Note_on_c, 0, 74, 0
1, 86087, Note_on_c, 1, 64, 0
1, 86088, Note_on_c, 1, 67, 64
1, 86089, Note_on_c, 0, 76, 66
1, 86111, Note_on_c, 1, 67, 0
1, 86112, Note_on_c, 1, 66, 64
1, 86112, Note_on_c, 1, 59, 64
1, 86114, Note_on_c, 0, 76, 0
1, 86116, Note_on_c, 0, 74, 64
1, 86267, Note_on_c, 1, 66, 0
1, 86267, Note_on_c, 1, 59, 0
1, 86271, Note_on_c, 0, 74, 0
1, 86400, Note_on_c, 1, 55, 64
1, 86400, Note_on_c, 1, 49, 64
1, 86452, Note_on_c, 0, 81, 64
1, 86497, Note_on_c, 0, 81, 0
1, 86500, Note_on_c, 0, 69, 65
1, 86533, Note_on_c, 1, 55, 0
1, 86533, Note_on_c, 1, 49, 0
1, 86544, Note_on_c, 1, 52, 66
1, 86544, Note_on_c, 1, 52, 66
1, 86548, Note_on_c, 0, 69, 0
1, 86548, Note_on_c, 0, 73, 66
1, 86589, Note_on_c, 1, 52, 0
1, 86589, Note_on_c, 1, 52, 0
1, 86592, Note_on_c, 1, 54, 67
1, 86593, Note_on_c, 0, 73, 0
1, 86596, Note_on_c, 0, 74, 67
1, 86637, Note_on_c, 1, 54, 0
1, 86640, Note_on_c, 1, 62, 68
1, 86641, Note_on_c, 0, 74, 0
1, 86685, Note_on_c, 1, 62, 0
1, 86688, Note_on_c, 1, 61, 69
1, 86688, Note_on_c, 1, 55, 69
1, 86740, Note_on_c, 0, 81, 69
1, 86785, Note_on_c, 0, 81, 0
1, 86788, Note_on_c, 0, 69, 70
1, 86821, Note_on_c, 1, 61, 0
1, 86832, Note_on_c, 1, 64, 71
1, 86836, Note_on_c, 0, 69, 0
1, 86836, Note_on_c, 0, 73, 71
1, 86865, Note_on_c, 1, 55, 0
1, 86877, Note_on_c, 1, 64, 0
1, 86880, Note_on_c, 1, 62, 72
1, 86880, Note_on_c, 1, 54, 72
1, 86881, Note_on_c, 0, 73, 0
1, 86884, Note_on_c, 0, 74, 72
1, 86925, Note_on_c, 1, 62, 0
1, 86928, Note_on_c, 1, 66, 73
1, 86929, Note_on_c, 0, 74, 0
1, 86969, Note_on_c, 1, 54, 0
1, 86973, Note_on_c, 1, 66, 0
1, 86976, Note_on_c, 1, 67, 74
1, 86976, Note_on_c, 1, 61, 74
1, 87028, Note_on_c, 0, 81, 74
1, 87073, Note_on_c, 0, 81, 0
1, 87076, Note_on_c, 0, 69, 75
1, 87109, Note_on_c, 1, 67, 0
1, 87109, Note_on_c, 1, 61, 0
1, 87120, Note_on_c, 1, 64, 76
1, 87120, Note_on_c, 1, 64, 76
1, 87124, Note_on_c, 0, 69, 0
1, 87124, Note_on_c, 0, 73, 76
1, 87165, Note_on_c, 1, 64, 0
1, 87165, Note_on_c, 1, 64, 0
1, 87168, Note_on_c, 1, 66, 77
1, 87168, Note_on_c, 1, 66, 77
1, 87169, Note_on_c, 0, 73, 0
1, 87172, Note_on_c, 0, 74, 77
1, 87213, Note_on_c, 1, 66, 0
1, 87213, Note_on_c, 1, 66, 0
1, 87216, Note_on_c, 1, 62, 78
1, 87216, Note_on_c, 1, 54, 78
1, 87217, Note_on_c, 0, 74, 0
1, 87261, Note_on_c, 1, 62, 0
1, 87261, Note_on_c, 1, 54, 0
1, 87264, Note_on_c, 1, 61, 79
1, 87264, Note_on_c, 1, 52, 79
1, 87316, Note_on_c, 0, 81, 79
1, 87361, Note_on_c, 0, 81, 0
1, 87364, Note_on_c, 0, 69, 80
1, 87397, Note_on_c, 1, 61, 0
1, 87397, Note_on_c, 1, 52, 0
1, 87408, Note_on_c, 1, 64, 81
1, 87408, Note_on_c, 1, 55, 81
1, 87412, Note_on_c, 0, 69, 0
1, 87412, Note_on_c, 0, 73, 81
1, 87453, Note_on_c, 1, 64, 0
1, 87453, Note_on_c, 1, 55, 0
1, 87456, Note_on_c, 1, 62, 82
1, 87456, Note_on_c, 1, 54, 82
1, 87457, Note_on_c, 0, 73, 0
1, 87460, Note_on_c, 0, 74, 82
1, 87545, Note_on_c, 1, 62, 0
1, 87545, Note_on_c, 1, 54, 0
1, 87549, Note_on_c, 0, 74, 0
1, 87552, Note_on_c, 1, 62, 84
1, 87552, Note_on_c, 1, 59, 84
1, 87552, Note_on_c, 1, 55, 84
1, 87556, Note_on_c, 0, 83, 84
1, 87579, Note_on_c, 0, 83, 0
1, 87580, Note_on_c, 0, 86, 84
1, 87603, Note_on_c, 0, 86, 0
1, 87604, Note_on_c, 0, 83, 84
1, 87627, Note_on_c, 0, 83, 0
1, 87628, Note_on_c, 0, 79, 84
1, 87641, Note_on_c, 1, 62, 0
1, 87641, Note_on_c, 1, 59, 0
1, 87641, Note_on_c, 1, 55, 0
1, 87651, Note_on_c, 0, 79, 0
1, 87652, Note_on_c, 0, 79, 84
1, 87675, Note_on_c, 0, 79, 0
1, 87676, Note_on_c, 0, 83, 84
1, 87699, Note_on_c, 0, 83, 0
1, 87700, Note_on_c, 0, 79, 84
1, 87723, Note_on_c, 0, 79, 0
1, 87724, Note_on_c, 0, 74, 84
1, 87747, Note_on_c, 0, 74, 0
1, 87748, Note_on_c, 0, 74, 84
1, 87771, Note_on_c, 0, 74, 0
1, 87772, Note_on_c, 0, 79, 84
1, 87795, Note_on_c, 0, 79, 0
1, 87796, Note_on_c, 0, 74, 84
1, 87819, Note_on_c, 0, 74, 0
1, 87820, Note_on_c, 0, 71, 84
1, 87840, Note_on_c, 1, 65, 84
1, 87840, Note_on_c, 1, 62, 84
1, 87840, Note_on_c, 1, 59, 84
1, 87840, Note_on_c, 1, 56, 84
1, 87843, Note_on_c, 0, 71, 0
1, 87844, Note_on_c, 0, 83, 84
1, 87867, Note_on_c, 0, 83, 0
1, 87868, Note_on_c, 0, 86, 84
1, 87891, Note_on_c, 0, 86, 0
1, 87892, Note_on_c, 0, 83, 84
1, 87915, Note_on_c, 0, 83, 0
1, 87916, Note_on_c, 0, 80, 84
1, 87929, Note_on_c, 1, 65, 0
1, 87929, Note_on_c, 1, 62, 0
1, 87929, Note_on_c, 1, 59, 0
1, 87929, Note_on_c, 1, 56, 0
1, 87939, Note_on_c, 0, 80, 0
1, 87940, Note_on_c, 0, 80, 84
1, 87963, Note_on_c, 0, 80, 0
1, 87964, Note_on_c, 0, 83, 84
1, 87987, Note_on_c, 0, 83, 0
1, 87988, Note_on_c, 0, 80, 84
1, 88011, Note_on_c, 0, 80, 0
1, 88012, Note_on_c, 0, 77, 84
1, 88035, Note_on_c, 0, 77, 0
1, 88036, Note_on_c, 0, 77, 84
1, 88059, Note_on_c, 0, 77, 0
1, 88060, Note_on_c, 0, 80, 84
1, 88083, Note_on_c, 0, 80, 0
1, 88084, Note_on_c, 0, 77, 84
1, 88107, Note_on_c, 0, 77, 0
1, 88108, Note_on_c, 0, 74, 84
1, 88128, Note_on_c, 1, 57, 84
1, 88131, Note_on_c, 0, 74, 0
1, 88132, Note_on_c, 0, 69, 84
1, 88151, Note_on_c, 1, 57, 0
1, 88152, Note_on_c, 1, 66, 84
1, 88175, Note_on_c, 1, 66, 0
1, 88176, Note_on_c, 1, 62, 84
1, 88199, Note_on_c, 1, 62, 0
1, 88200, Note_on_c, 1, 66, 84
1, 88221, Note_on_c, 0, 69, 0
1, 88223, Note_on_c, 1, 66, 0
1, 88224, Note_on_c, 1, 57, 84
1, 88228, Note_on_c, 0, 78, 84
1, 88241, Note_on_c, 0, 78, 0
1, 88242, Note_on_c, 0, 76, 84
1, 88247, Note_on_c, 1, 57, 0
1, 88248, Note_on_c, 1, 67, 84
1, 88255, Note_on_c, 0, 76, 0
1, 88256, Note_on_c, 0, 78, 84
1, 88269, Note_on_c, 0, 78, 0
1, 88270, Note_on_c, 0, 76, 84
1, 88271, Note_on_c, 1, 67, 0
1, 88272, Note_on_c, 1, 64, 84
1, 88283, Note_on_c, 0, 76, 0
1, 88284, Note_on_c, 0, 78, 84
1, 88295, Note_on_c, 1, 64, 0
1, 88296, Note_on_c, 1, 67, 84
1, 88297, Note_on_c, 0, 78, 0
1, 88298, Note_on_c, 0, 76, 84
1, 88311, Note_on_c, 0, 76, 0
1, 88312, Note_on_c, 0, 78, 84
1, 88319, Note_on_c, 1, 67, 0
1, 88320, Note_on_c, 1, 57, 84
1, 88325, Note_on_c, 0, 78, 0
1, 88326, Note_on_c, 0, 76, 84
1, 88339, Note_on_c, 0, 76, 0
1, 88340, Note_on_c, 0, 78, 84
1, 88343, Note_on_c, 1, 57, 0
1, 88344, Note_on_c, 1, 67, 82
1, 88353, Note_on_c, 0, 78, 0
1, 88354, Note_on_c, 0, 76, 84
1, 88367, Note_on_c, 0, 76, 0
1, 88367, Note_on_c, 1, 67, 0
1, 88368, Note_on_c, 0, 78, 84
1, 88368, Note_on_c, 1, 64, 81
1, 88380, Note_on_c, 0, 78, 0
1, 88381, Note_on_c, 0, 76, 84
1, 88391, Note_on_c, 1, 64, 0
1, 88392, Note_on_c, 1, 67, 79
1, 88393, Note_on_c, 0, 76, 0
1, 88394, Note_on_c, 0, 74, 84
1, 88406, Note_on_c, 0, 74, 0
1, 88407, Note_on_c, 0, 76, 84
1, 88415, Note_on_c, 1, 67, 0
1, 88416, Note_on_c, 1, 54, 78
1, 88419, Note_on_c, 0, 76, 0
1, 88420, Note_on_c, 0, 74, 84
1, 88439, Note_on_c, 1, 54, 0
1, 88440, Note_on_c, 1, 62, 78
1, 88463, Note_on_c, 1, 62, 0
1, 88464, Note_on_c, 1, 61, 78
1, 88487, Note_on_c, 1, 61, 0
1, 88488, Note_on_c, 1, 62, 78
1, 88509, Note_on_c, 0, 74, 0
1, 88511, Note_on_c, 1, 62, 0
1, 88512, Note_on_c, 1, 54, 78
1, 88516, Note_on_c, 0, 86, 84
1, 88535, Note_on_c, 1, 54, 0
1, 88536, Note_on_c, 1, 62, 78
1, 88539, Note_on_c, 0, 86, 0
1, 88540, Note_on_c, 0, 85, 84
1, 88559, Note_on_c, 1, 62, 0
1, 88560, Note_on_c, 1, 61, 78
1, 88563, Note_on_c, 0, 85, 0
1, 88564, Note_on_c, 0, 83, 84
1, 88583, Note_on_c, 1, 61, 0
1, 88584, Note_on_c, 1, 62, 78
1, 88587, Note_on_c, 0, 83, 0
1, 88588, Note_on_c, 0, 81, 84
1, 88607, Note_on_c, 1, 62, 0
1, 88608, Note_on_c, 1, 54, 78
1, 88611, Note_on_c, 0, 81, 0
1, 88612, Note_on_c, 0, 79, 84
1, 88631, Note_on_c, 1, 54, 0
1, 88632, Note_on_c, 1, 62, 78
1, 88635, Note_on_c, 0, 79, 0
1, 88636, Note_on_c, 0, 78, 84
1, 88655, Note_on_c, 1, 62, 0
1, 88656, Note_on_c, 1, 61, 78
1, 88659, Note_on_c, 0, 78, 0
1, 88660, Note_on_c, 0, 76, 84
1, 88679, Note_on_c, 1, 61, 0
1, 88680, Note_on_c, 1, 62, 78
1, 88683, Note_on_c, 0, 76, 0
1, 88684, Note_on_c, 0, 74, 84
1, 88703, Note_on_c, 1, 62, 0
1, 88704, Note_on_c, 1, 55, 78
1, 88707, Note_on_c, 0, 74, 0
1, 88708, Note_on_c, 0, 83, 84
1, 88727, Note_on_c, 1, 55, 0
1, 88728, Note_on_c, 1, 62, 78
1, 88751, Note_on_c, 1, 62, 0
1, 88752, Note_on_c, 1, 61, 78
1, 88775, Note_on_c, 1, 61, 0
1, 88776, Note_on_c, 1, 62, 78
1, 88797, Note_on_c, 0, 83, 0
1, 88799, Note_on_c, 1, 62, 0
1, 88800, Note_on_c, 1, 55, 78
1, 88804, Note_on_c, 0, 81, 84
1, 88822, Note_on_c, 0, 81, 0
1, 88822, Note_on_c, 0, 79, 84
1, 88823, Note_on_c, 1, 55, 0
1, 88824, Note_on_c, 1, 64, 78
1, 88847, Note_on_c, 1, 64, 0
1, 88848, Note_on_c, 1, 63, 78
1, 88871, Note_on_c, 1, 63, 0
1, 88872, Note_on_c, 1, 64, 78
1, 88893, Note_on_c, 0, 79, 0
1, 88895, Note_on_c, 1, 64, 0
1, 88896, Note_on_c, 1, 55, 78
1, 88900, Note_on_c, 0, 78, 84
1, 88918, Note_on_c, 0, 78, 0
1, 88918, Note_on_c, 0, 76, 84
1, 88919, Note_on_c, 1, 55, 0
1, 88920, Note_on_c, 1, 64, 78
1, 88943, Note_on_c, 1, 64, 0
1, 88944, Note_on_c, 1, 63, 78
1, 88967, Note_on_c, 1, 63, 0
1, 88968, Note_on_c, 1, 64, 78
1, 88989, Note_on_c, 0, 76, 0
1, 88991, Note_on_c, 1, 64, 0
1, 88992, Note_on_c, 1, 57, 78
1, 88996, Note_on_c, 0, 69, 84
1, 89015, Note_on_c, 1, 57, 0
1, 89016, Note_on_c, 1, 66, 78
1, 89039, Note_on_c, 1, 66, 0
1, 89040, Note_on_c, 1, 62, 78
1, 89063, Note_on_c, 1, 62, 0
1, 89064, Note_on_c, 1, 66, 78
1, 89085, Note_on_c, 0, 69, 0
1, 89087, Note_on_c, 1, 66, 0
1, 89088, Note_on_c, 1, 57, 78
1, 89092, Note_on_c, 0, 78, 84
1, 89105, Note_on_c, 0, 78, 0
1, 89106, Note_on_c, 0, 76, 84
1, 89111, Note_on_c, 1, 57, 0
1, 89112, Note_on_c, 1, 67, 78
1, 89119, Note_on_c, 0, 76, 0
1, 89120, Note_on_c, 0, 78, 84
1, 89133, Note_on_c, 0, 78, 0
1, 89134, Note_on_c, 0, 76, 84
1, 89135, Note_on_c, 1, 67, 0
1, 89136, Note_on_c, 1, 64, 78
1, 89147, Note_on_c, 0, 76, 0
1, 89148, Note_on_c, 0, 78, 84
1, 89159, Note_on_c, 1, 64, 0
1, 89160, Note_on_c, 1, 67, 78
1, 89161, Note_on_c, 0, 78, 0
1, 89162, Note_on_c, 0, 76, 84
1, 89175, Note_on_c, 0, 76, 0
1, 89176, Note_on_c, 0, 78, 84
1, 89183, Note_on_c, 1, 67, 0
1, 89184, Note_on_c, 1, 57, 78
1, 89189, Note_on_c, 0, 78, 0
1, 89190, Note_on_c, 0, 76, 84
1, 89203, Note_on_c, 0, 76, 0
1, 89204, Note_on_c, 0, 78, 84
1, 89207, Note_on_c, 1, 57, 0
1, 89208, Note_on_c, 1, 67, 78
1, 89217, Note_on_c, 0, 78, 0
1, 89218, Note_on_c, 0, 76, 84
1, 89231, Note_on_c, 0, 76, 0
1, 89231, Note_on_c, 1, 67, 0
1, 89232, Note_on_c, 0, 78, 84
1, 89232, Note_on_c, 1, 64, 78
1, 89244, Note_on_c, 0, 78, 0
1, 89245, Note_on_c, 0, 76, 84
1, 89255, Note_on_c, 1, 64, 0
1, 89256, Note_on_c, 1, 67, 78
1, 89257, Note_on_c, 0, 76, 0
1, 89258, Note_on_c, 0, 74, 84
1, 89270, Note_on_c, 0, 74, 0
1, 89271, Note_on_c, 0, 76, 84
1, 89279, Note_on_c, 1, 67, 0
1, 89280, Note_on_c, 1, 66, 78
1, 89280, Note_on_c, 1, 62, 78
1, 89283, Note_on_c, 0, 76, 0
1, 89284, Note_on_c, 0, 74, 84
1, 89307, Note_on_c, 0, 74, 0
1, 89308, Note_on_c, 0, 81, 84
1, 89331, Note_on_c, 0, 81, 0
1, 89332, Note_on_c, 0, 78, 84
1, 89355, Note_on_c, 0, 78, 0
1, 89356, Note_on_c, 0, 74, 84
1, 89369, Note_on_c, 1, 66, 0
1, 89369, Note_on_c, 1, 62, 0
1, 89379, Note_on_c, 0, 74, 0
1, 89380, Note_on_c, 0, 69, 84
1, 89424, Note_on_c, 1, 62, 78
1, 89425, Note_on_c, 0, 69, 0
1, 89428, Note_on_c, 0, 66, 84
1, 89444, Note_on_c, 1, 62, 0
1, 89448, Note_on_c, 0, 66, 0
1, 89472, Note_on_c, 1, 61, 78
1, 89476, Note_on_c, 0, 64, 84
1, 89492, Note_on_c, 1, 61, 0
1, 89496, Note_on_c, 0, 64, 0
1, 89520, Note_on_c, 1, 57, 78
1, 89524, Note_on_c, 0, 67, 84
1, 89540, Note_on_c, 1, 57, 0
1, 89544, Note_on_c, 0, 67, 0
1, 89568, Note_on_c, 1, 62, 78
1, 89572, Note_on_c, 0, 66, 84
1, 89595, Note_on_c, 0, 66, 0
1, 89596, Note_on_c, 0, 69, 84
1, 89607, Note_on_c, 1, 62, 0
1, 89619, Note_on_c, 0, 69, 0
1, 89620, Note_on_c, 0, 74, 84
1, 89643, Note_on_c, 0, 74, 0
1, 89644, Note_on_c, 0, 78, 84
1, 89667, Note_on_c, 0, 78, 0
1, 89668, Note_on_c, 0, 81, 84
1, 89712, Note_on_c, 1, 62, 78
1, 89713, Note_on_c, 0, 81, 0
1, 89716, Note_on_c, 0, 66, 84
1, 89732, Note_on_c, 1, 62, 0
1, 89736, Note_on_c, 0, 66, 0
1, 89760, Note_on_c, 1, 64, 78
1, 89764, Note_on_c, 0, 67, 84
1, 89780, Note_on_c, 1, 64, 0
1, 89784, Note_on_c, 0, 67, 0
1, 89808, Note_on_c, 1, 64, 78
1, 89808, Note_on_c, 1, 57, 78
1, 89812, Note_on_c, 0, 73, 84
1, 89812, Note_on_c, 0, 67, 84
1, 89828, Note_on_c, 1, 64, 0
1, 89828, Note_on_c, 1, 57, 0
1, 89832, Note_on_c, 0, 73, 0
1, 89832, Note_on_c, 0, 67, 0
1, 89856, Note_on_c, 1, 62, 78
1, 89860, Note_on_c, 0, 74, 84
1, 89860, Note_on_c, 0, 66, 84
1, 89945, Note_on_c, 1, 62, 0
1, 89949, Note_on_c, 0, 74, 0
1, 89949, Note_on_c, 0, 66, 0
1, 90048, Note_on_c, 1, 62, 0
1, 90137, Note_on_c, 1, 62, 0
1, 90147, End_track
0, 0, End_of_file