0, 0, Header, 0, 1, 96
1, 0, Start_track
1, 0, Tempo, 1428571
1, 0, Note_on_c, 0, 64, 64
1, 0, Note_on_c, 1, 56, 64
1, 0, Note_on_c, 1, 52, 64
1, 78, Note_on_c, 0, 64, 0
1, 78, Note_on_c, 1, 56, 0
1, 84, Note_on_c, 0, 63, 64
1, 84, Note_on_c, 1, 54, 64
1, 96, Note_on_c, 0, 63, 0
1, 96, Note_on_c, 0, 66, 64
1, 96, Note_on_c, 1, 54, 0
1, 96, Note_on_c, 1, 57, 64
1, 185, Note_on_c, 0, 66, 0
1, 192, Note_on_c, 0, 59, 64
1, 265, Note_on_c, 1, 52, 0
1, 270, Note_on_c, 0, 59, 0
1, 273, Note_on_c, 1, 57, 0
1, 276, Note_on_c, 0, 59, 64
1, 288, Note_on_c, 0, 59, 0
1, 288, Note_on_c, 0, 71, 64
1, 288, Note_on_c, 1, 56, 64
1, 288, Note_on_c, 1, 52, 64
1, 366, Note_on_c, 1, 56, 0
1, 372, Note_on_c, 0, 71, 0
1, 372, Note_on_c, 0, 69, 64
1, 372, Note_on_c, 1, 54, 64
1, 384, Note_on_c, 0, 69, 0
1, 384, Note_on_c, 0, 73, 64
1, 384, Note_on_c, 1, 54, 0
1, 384, Note_on_c, 1, 57, 64
1, 473, Note_on_c, 0, 73, 0
1, 480, Note_on_c, 0, 66, 69
1, 480, Note_on_c, 0, 63, 69
1, 553, Note_on_c, 1, 52, 0
1, 561, Note_on_c, 1, 57, 0
1, 569, Note_on_c, 0, 66, 0
1, 569, Note_on_c, 0, 63, 0
1, 576, Note_on_c, 0, 64, 74
1, 576, Note_on_c, 1, 52, 74
1, 579, Note_on_c, 0, 68, 74
1, 580, Note_on_c, 1, 56, 74
1, 582, Note_on_c, 0, 71, 74
1, 584, Note_on_c, 1, 59, 74
1, 585, Note_on_c, 0, 76, 74
1, 623, Note_on_c, 1, 59, 0
1, 623, Note_on_c, 1, 56, 0
1, 623, Note_on_c, 1, 52, 0
1, 660, Note_on_c, 0, 76, 0
1, 660, Note_on_c, 0, 71, 0
1, 660, Note_on_c, 0, 68, 0
1, 660, Note_on_c, 0, 64, 0
1, 660, Note_on_c, 0, 75, 78
1, 660, Note_on_c, 1, 57, 78
1, 660, Note_on_c, 1, 54, 78
1, 672, Note_on_c, 0, 75, 0
1, 672, Note_on_c, 0, 71, 78
1, 672, Note_on_c, 1, 57, 0
1, 672, Note_on_c, 1, 54, 0
1, 672, Note_on_c, 1, 51, 78
1, 675, Note_on_c, 0, 75, 78
1, 676, Note_on_c, 1, 54, 78
1, 678, Note_on_c, 0, 78, 78
1, 680, Note_on_c, 1, 59, 78
1, 681, Note_on_c, 0, 81, 78
1, 719, Note_on_c, 1, 59, 0
1, 719, Note_on_c, 1, 54, 0
1, 719, Note_on_c, 1, 51, 0
1, 720, Note_on_c, 0, 78, 0
1, 720, Note_on_c, 0, 75, 0
1, 720, Note_on_c, 0, 71, 0
1, 754, Note_on_c, 0, 81, 0
1, 756, Note_on_c, 0, 80, 80
1, 756, Note_on_c, 0, 76, 80
1, 756, Note_on_c, 1, 59, 80
1, 756, Note_on_c, 1, 52, 80
1, 768, Note_on_c, 0, 80, 0
1, 768, Note_on_c, 0, 76, 0
1, 768, Note_on_c, 0, 73, 80
1, 768, Note_on_c, 1, 59, 0
1, 768, Note_on_c, 1, 52, 0
1, 768, Note_on_c, 1, 57, 80
1, 768, Note_on_c, 1, 52, 80
1, 768, Note_on_c, 1, 49, 80
1, 768, Note_on_c, 1, 45, 80
1, 774, Note_on_c, 0, 73, 0
1, 774, Note_on_c, 0, 85, 80
1, 774, Note_on_c, 0, 81, 80
1, 791, Note_on_c, 0, 85, 0
1, 791, Note_on_c, 0, 81, 0
1, 804, Note_on_c, 0, 83, 80
1, 804, Note_on_c, 0, 80, 80
1, 813, Note_on_c, 1, 57, 0
1, 813, Note_on_c, 1, 52, 0
1, 813, Note_on_c, 1, 49, 0
1, 813, Note_on_c, 1, 45, 0
1, 816, Note_on_c, 0, 83, 0
1, 816, Note_on_c, 0, 80, 0
1, 816, Note_on_c, 0, 83, 80
1, 816, Note_on_c, 0, 80, 64
1, 822, Note_on_c, 0, 83, 0
1, 822, Note_on_c, 0, 81, 80
1, 822, Note_on_c, 0, 78, 80
1, 822, Note_on_c, 0, 80, 0
1, 822, Note_on_c, 0, 78, 64
1, 855, Note_on_c, 0, 81, 0
1, 855, Note_on_c, 0, 78, 0
1, 855, Note_on_c, 0, 78, 0
1, 858, Note_on_c, 0, 80, 78
1, 858, Note_on_c, 0, 76, 78
1, 864, Note_on_c, 0, 80, 0
1, 864, Note_on_c, 0, 76, 0
1, 864, Note_on_c, 0, 80, 78
1, 864, Note_on_c, 0, 76, 64
1, 864, Note_on_c, 1, 47, 79
1, 948, Note_on_c, 0, 80, 0
1, 948, Note_on_c, 0, 81, 76
1, 953, Note_on_c, 0, 76, 0
1, 953, Note_on_c, 1, 47, 0
1, 960, Note_on_c, 0, 81, 0
1, 960, Note_on_c, 0, 78, 76
1, 960, Note_on_c, 0, 75, 64
1, 960, Note_on_c, 1, 59, 77
1, 1005, Note_on_c, 0, 78, 0
1, 1005, Note_on_c, 0, 75, 0
1, 1032, Note_on_c, 0, 76, 91
1, 1032, Note_on_c, 0, 73, 91
1, 1049, Note_on_c, 1, 59, 0
1, 1056, Note_on_c, 0, 76, 0
1, 1056, Note_on_c, 0, 73, 0
1, 1056, Note_on_c, 0, 75, 75
1, 1056, Note_on_c, 0, 71, 75
1, 1063, Note_on_c, 0, 75, 0
1, 1063, Note_on_c, 0, 71, 0
1, 1072, Note_on_c, 0, 73, 73
1, 1072, Note_on_c, 0, 69, 73
1, 1079, Note_on_c, 0, 73, 0
1, 1079, Note_on_c, 0, 69, 0
1, 1088, Note_on_c, 0, 71, 72
1, 1088, Note_on_c, 0, 68, 72
1, 1095, Note_on_c, 0, 71, 0
1, 1095, Note_on_c, 0, 68, 0
1, 1104, Note_on_c, 0, 69, 70
1, 1104, Note_on_c, 0, 66, 70
1, 1111, Note_on_c, 0, 69, 0
1, 1111, Note_on_c, 0, 66, 0
1, 1120, Note_on_c, 0, 68, 69
1, 1120, Note_on_c, 0, 64, 69
1, 1127, Note_on_c, 0, 68, 0
1, 1127, Note_on_c, 0, 64, 0
1, 1136, Note_on_c, 0, 66, 68
1, 1136, Note_on_c, 0, 59, 68
1, 1143, Note_on_c, 0, 66, 0
1, 1143, Note_on_c, 0, 59, 0
1, 1152, Note_on_c, 0, 64, 64
1, 1152, Note_on_c, 1, 56, 64
1, 1152, Note_on_c, 1, 52, 64
1, 1230, Note_on_c, 0, 64, 0
1, 1236, Note_on_c, 0, 63, 64
1, 1236, Note_on_c, 1, 56, 0
1, 1236, Note_on_c, 1, 54, 64
1, 1248, Note_on_c, 0, 63, 0
1, 1248, Note_on_c, 0, 66, 64
1, 1248, Note_on_c, 1, 54, 0
1, 1248, Note_on_c, 1, 57, 64
1, 1337, Note_on_c, 0, 66, 0
1, 1344, Note_on_c, 0, 59, 64
1, 1417, Note_on_c, 1, 52, 0
1, 1422, Note_on_c, 0, 59, 0
1, 1425, Note_on_c, 1, 57, 0
1, 1428, Note_on_c, 0, 59, 64
1, 1440, Note_on_c, 0, 59, 0
1, 1440, Note_on_c, 0, 71, 64
1, 1440, Note_on_c, 1, 56, 64
1, 1518, Note_on_c, 0, 71, 0
1, 1518, Note_on_c, 1, 56, 0
1, 1524, Note_on_c, 0, 69, 67
1, 1524, Note_on_c, 1, 54, 68
1, 1536, Note_on_c, 0, 69, 0
1, 1536, Note_on_c, 0, 72, 67
1, 1536, Note_on_c, 1, 54, 0
1, 1536, Note_on_c, 1, 57, 69
1, 1536, Note_on_c, 1, 51, 69
1, 1614, Note_on_c, 0, 72, 0
1, 1620, Note_on_c, 0, 66, 71
1, 1625, Note_on_c, 1, 57, 0
1, 1625, Note_on_c, 1, 51, 0
1, 1632, Note_on_c, 0, 66, 0
1, 1632, Note_on_c, 0, 73, 71
1, 1632, Note_on_c, 0, 69, 71
1, 1632, Note_on_c, 0, 66, 71
1, 1632, Note_on_c, 0, 61, 71
1, 1632, Note_on_c, 1, 57, 74
1, 1632, Note_on_c, 1, 54, 74
1, 1632, Note_on_c, 1, 49, 74
1, 1710, Note_on_c, 0, 73, 0
1, 1710, Note_on_c, 0, 69, 0
1, 1710, Note_on_c, 0, 66, 0
1, 1710, Note_on_c, 0, 61, 0
1, 1716, Note_on_c, 0, 66, 75
1, 1721, Note_on_c, 1, 57, 0
1, 1721, Note_on_c, 1, 54, 0
1, 1721, Note_on_c, 1, 49, 0
1, 1728, Note_on_c, 0, 66, 0
1, 1728, Note_on_c, 0, 75, 80
1, 1728, Note_on_c, 0, 68, 64
1, 1728, Note_on_c, 0, 66, 64
1, 1728, Note_on_c, 1, 60, 80
1, 1728, Note_on_c, 1, 56, 80
1, 1728, Note_on_c, 1, 51, 80
1, 1728, Note_on_c, 1, 48, 80
1, 1806, Note_on_c, 0, 75, 0
1, 1812, Note_on_c, 0, 68, 80
1, 1817, Note_on_c, 0, 68, 0
1, 1817, Note_on_c, 0, 66, 0
1, 1817, Note_on_c, 1, 60, 0
1, 1817, Note_on_c, 1, 56, 0
1, 1817, Note_on_c, 1, 51, 0
1, 1817, Note_on_c, 1, 48, 0
1, 1824, Note_on_c, 0, 68, 0
1, 1824, Note_on_c, 0, 64, 80
1, 1824, Note_on_c, 1, 61, 80
1, 1824, Note_on_c, 1, 56, 80
1, 1824, Note_on_c, 1, 52, 80
1, 1824, Note_on_c, 1, 49, 80
1, 1828, Note_on_c, 0, 64, 0
1, 1828, Note_on_c, 0, 68, 80
1, 1832, Note_on_c, 0, 68, 0
1, 1832, Note_on_c, 0, 73, 80
1, 1836, Note_on_c, 0, 73, 0
1, 1836, Note_on_c, 0, 76, 80
1, 1842, Note_on_c, 0, 76, 0
1, 1842, Note_on_c, 0, 78, 80
1, 1848, Note_on_c, 0, 78, 0
1, 1848, Note_on_c, 0, 76, 80
1, 1854, Note_on_c, 0, 76, 0
1, 1854, Note_on_c, 0, 75, 79
1, 1860, Note_on_c, 0, 75, 0
1, 1860, Note_on_c, 0, 76, 79
1, 1866, Note_on_c, 0, 76, 0
1, 1866, Note_on_c, 0, 78, 78
1, 1869, Note_on_c, 0, 78, 0
1, 1869, Note_on_c, 1, 61, 0
1, 1869, Note_on_c, 1, 56, 0
1, 1869, Note_on_c, 1, 52, 0
1, 1869, Note_on_c, 1, 49, 0
1, 1872, Note_on_c, 0, 80, 78
1, 1887, Note_on_c, 0, 80, 0
1, 1888, Note_on_c, 0, 76, 77
1, 1903, Note_on_c, 0, 76, 0
1, 1904, Note_on_c, 0, 73, 76
1, 1919, Note_on_c, 0, 73, 0
1, 1920, Note_on_c, 0, 71, 64
1, 1920, Note_on_c, 1, 63, 64
1, 1920, Note_on_c, 1, 54, 64
1, 1930, Note_on_c, 0, 71, 0
1, 1943, Note_on_c, 1, 63, 0
1, 1943, Note_on_c, 1, 54, 0
1, 1968, Note_on_c, 0, 70, 64
1, 1968, Note_on_c, 0, 64, 64
1, 1968, Note_on_c, 1, 61, 64
1, 1968, Note_on_c, 1, 54, 64
1, 1991, Note_on_c, 0, 70, 0
1, 1991, Note_on_c, 0, 64, 0
1, 1991, Note_on_c, 1, 61, 0
1, 1991, Note_on_c, 1, 54, 0
1, 2016, Note_on_c, 0, 73, 64
1, 2016, Note_on_c, 0, 70, 64
1, 2016, Note_on_c, 0, 64, 64
1, 2016, Note_on_c, 1, 47, 64
1, 2094, Note_on_c, 0, 64, 0
1, 2100, Note_on_c, 0, 66, 64
1, 2112, Note_on_c, 0, 73, 0
1, 2112, Note_on_c, 0, 70, 0
1, 2112, Note_on_c, 0, 71, 64
1, 2112, Note_on_c, 0, 66, 0
1, 2112, Note_on_c, 0, 63, 64
1, 2127, Note_on_c, 1, 47, 0
1, 2128, Note_on_c, 1, 35, 66
1, 2143, Note_on_c, 1, 35, 0
1, 2144, Note_on_c, 1, 39, 68
1, 2157, Note_on_c, 0, 71, 0
1, 2157, Note_on_c, 0, 63, 0
1, 2159, Note_on_c, 1, 39, 0
1, 2160, Note_on_c, 1, 42, 71
1, 2175, Note_on_c, 1, 42, 0
1, 2176, Note_on_c, 1, 47, 73
1, 2191, Note_on_c, 1, 47, 0
1, 2192, Note_on_c, 1, 51, 76
1, 2207, Note_on_c, 1, 51, 0
1, 2208, Note_on_c, 1, 54, 78
1, 2223, Note_on_c, 1, 54, 0
1, 2224, Note_on_c, 1, 57, 79
1, 2239, Note_on_c, 1, 57, 0
1, 2240, Note_on_c, 1, 56, 77
1, 2255, Note_on_c, 1, 56, 0
1, 2256, Note_on_c, 1, 59, 75
1, 2271, Note_on_c, 1, 59, 0
1, 2272, Note_on_c, 1, 57, 74
1, 2287, Note_on_c, 1, 57, 0
1, 2288, Note_on_c, 1, 54, 72
1, 2303, Note_on_c, 1, 54, 0
1, 2304, Note_on_c, 0, 64, 64
1, 2304, Note_on_c, 1, 56, 64
1, 2304, Note_on_c, 1, 52, 64
1, 2382, Note_on_c, 0, 64, 0
1, 2382, Note_on_c, 1, 56, 0
1, 2388, Note_on_c, 0, 63, 64
1, 2388, Note_on_c, 1, 54, 64
1, 2400, Note_on_c, 0, 63, 0
1, 2400, Note_on_c, 0, 66, 64
1, 2400, Note_on_c, 1, 54, 0
1, 2400, Note_on_c, 1, 57, 64
1, 2489, Note_on_c, 0, 66, 0
1, 2496, Note_on_c, 0, 59, 64
1, 2569, Note_on_c, 1, 52, 0
1, 2574, Note_on_c, 0, 59, 0
1, 2577, Note_on_c, 1, 57, 0
1, 2580, Note_on_c, 0, 59, 64
1, 2592, Note_on_c, 0, 59, 0
1, 2592, Note_on_c, 0, 71, 64
1, 2592, Note_on_c, 1, 56, 64
1, 2592, Note_on_c, 1, 52, 64
1, 2670, Note_on_c, 1, 56, 0
1, 2676, Note_on_c, 0, 71, 0
1, 2676, Note_on_c, 0, 69, 64
1, 2676, Note_on_c, 1, 54, 64
1, 2688, Note_on_c, 0, 69, 0
1, 2688, Note_on_c, 0, 73, 64
1, 2688, Note_on_c, 1, 54, 0
1, 2688, Note_on_c, 1, 57, 64
1, 2777, Note_on_c, 0, 73, 0
1, 2784, Note_on_c, 0, 66, 69
1, 2784, Note_on_c, 0, 63, 69
1, 2857, Note_on_c, 1, 52, 0
1, 2865, Note_on_c, 1, 57, 0
1, 2873, Note_on_c, 0, 66, 0
1, 2873, Note_on_c, 0, 63, 0
1, 2880, Note_on_c, 0, 64, 74
1, 2880, Note_on_c, 1, 52, 74
1, 2883, Note_on_c, 0, 68, 74
1, 2884, Note_on_c, 1, 56, 74
1, 2886, Note_on_c, 0, 71, 74
1, 2888, Note_on_c, 1, 59, 74
1, 2889, Note_on_c, 0, 76, 74
1, 2927, Note_on_c, 1, 59, 0
1, 2927, Note_on_c, 1, 56, 0
1, 2927, Note_on_c, 1, 52, 0
1, 2964, Note_on_c, 0, 76, 0
1, 2964, Note_on_c, 0, 71, 0
1, 2964, Note_on_c, 0, 68, 0
1, 2964, Note_on_c, 0, 64, 0
1, 2964, Note_on_c, 0, 75, 78
1, 2964, Note_on_c, 1, 57, 78
1, 2964, Note_on_c, 1, 54, 78
1, 2976, Note_on_c, 0, 75, 0
1, 2976, Note_on_c, 0, 71, 78
1, 2976, Note_on_c, 1, 57, 0
1, 2976, Note_on_c, 1, 54, 0
1, 2976, Note_on_c, 1, 51, 78
1, 2979, Note_on_c, 0, 75, 78
1, 2980, Note_on_c, 1, 54, 78
1, 2982, Note_on_c, 0, 78, 78
1, 2984, Note_on_c, 1, 59, 78
1, 2985, Note_on_c, 0, 81, 78
1, 3023, Note_on_c, 1, 59, 0
1, 3023, Note_on_c, 1, 54, 0
1, 3023, Note_on_c, 1, 51, 0
1, 3024, Note_on_c, 0, 78, 0
1, 3024, Note_on_c, 0, 75, 0
1, 3024, Note_on_c, 0, 71, 0
1, 3058, Note_on_c, 0, 81, 0
1, 3060, Note_on_c, 0, 80, 80
1, 3060, Note_on_c, 0, 76, 80
1, 3060, Note_on_c, 1, 59, 80
1, 3060, Note_on_c, 1, 52, 80
1, 3072, Note_on_c, 0, 80, 0
1, 3072, Note_on_c, 0, 76, 0
1, 3072, Note_on_c, 0, 73, 80
1, 3072, Note_on_c, 1, 59, 0
1, 3072, Note_on_c, 1, 52, 0
1, 3072, Note_on_c, 1, 57, 80
1, 3072, Note_on_c, 1, 52, 80
1, 3072, Note_on_c, 1, 49, 80
1, 3072, Note_on_c, 1, 45, 80
1, 3078, Note_on_c, 0, 73, 0
1, 3078, Note_on_c, 0, 85, 80
1, 3078, Note_on_c, 0, 81, 80
1, 3095, Note_on_c, 0, 85, 0
1, 3095, Note_on_c, 0, 81, 0
1, 3108, Note_on_c, 0, 83, 80
1, 3108, Note_on_c, 0, 80, 80
1, 3117, Note_on_c, 1, 57, 0
1, 3117, Note_on_c, 1, 52, 0
1, 3117, Note_on_c, 1, 49, 0
1, 3117, Note_on_c, 1, 45, 0
1, 3120, Note_on_c, 0, 83, 0
1, 3120, Note_on_c, 0, 80, 0
1, 3120, Note_on_c, 0, 83, 80
1, 3120, Note_on_c, 0, 80, 64
1, 3126, Note_on_c, 0, 83, 0
1, 3126, Note_on_c, 0, 81, 80
1, 3126, Note_on_c, 0, 78, 80
1, 3126, Note_on_c, 0, 80, 0
1, 3126, Note_on_c, 0, 78, 64
1, 3159, Note_on_c, 0, 81, 0
1, 3159, Note_on_c, 0, 78, 0
1, 3159, Note_on_c, 0, 78, 0
1, 3162, Note_on_c, 0, 80, 78
1, 3162, Note_on_c, 0, 76, 78
1, 3168, Note_on_c, 0, 80, 0
1, 3168, Note_on_c, 0, 76, 0
1, 3168, Note_on_c, 0, 80, 78
1, 3168, Note_on_c, 0, 76, 64
1, 3168, Note_on_c, 1, 47, 79
1, 3252, Note_on_c, 0, 80, 0
1, 3252, Note_on_c, 0, 81, 76
1, 3257, Note_on_c, 0, 76, 0
1, 3257, Note_on_c, 1, 47, 0
1, 3264, Note_on_c, 0, 81, 0
1, 3264, Note_on_c, 0, 78, 76
1, 3264, Note_on_c, 0, 75, 64
1, 3264, Note_on_c, 1, 59, 77
1, 3309, Note_on_c, 0, 78, 0
1, 3309, Note_on_c, 0, 75, 0
1, 3336, Note_on_c, 0, 76, 91
1, 3336, Note_on_c, 0, 73, 91
1, 3353, Note_on_c, 1, 59, 0
1, 3360, Note_on_c, 0, 76, 0
1, 3360, Note_on_c, 0, 73, 0
1, 3360, Note_on_c, 0, 75, 75
1, 3360, Note_on_c, 0, 71, 75
1, 3367, Note_on_c, 0, 75, 0
1, 3367, Note_on_c, 0, 71, 0
1, 3376, Note_on_c, 0, 73, 73
1, 3376, Note_on_c, 0, 69, 73
1, 3383, Note_on_c, 0, 73, 0
1, 3383, Note_on_c, 0, 69, 0
1, 3392, Note_on_c, 0, 71, 72
1, 3392, Note_on_c, 0, 68, 72
1, 3399, Note_on_c, 0, 71, 0
1, 3399, Note_on_c, 0, 68, 0
1, 3408, Note_on_c, 0, 69, 70
1, 3408, Note_on_c, 0, 66, 70
1, 3415, Note_on_c, 0, 69, 0
1, 3415, Note_on_c, 0, 66, 0
1, 3424, Note_on_c, 0, 68, 69
1, 3424, Note_on_c, 0, 64, 69
1, 3431, Note_on_c, 0, 68, 0
1, 3431, Note_on_c, 0, 64, 0
1, 3440, Note_on_c, 0, 66, 68
1, 3440, Note_on_c, 0, 59, 68
1, 3447, Note_on_c, 0, 66, 0
1, 3447, Note_on_c, 0, 59, 0
1, 3456, Note_on_c, 0, 64, 64
1, 3456, Note_on_c, 1, 56, 64
1, 3456, Note_on_c, 1, 52, 64
1, 3534, Note_on_c, 0, 64, 0
1, 3540, Note_on_c, 0, 63, 64
1, 3540, Note_on_c, 1, 56, 0
1, 3540, Note_on_c, 1, 54, 64
1, 3552, Note_on_c, 0, 63, 0
1, 3552, Note_on_c, 0, 66, 64
1, 3552, Note_on_c, 1, 54, 0
1, 3552, Note_on_c, 1, 57, 64
1, 3641, Note_on_c, 0, 66, 0
1, 3648, Note_on_c, 0, 59, 64
1, 3721, Note_on_c, 1, 52, 0
1, 3726, Note_on_c, 0, 59, 0
1, 3729, Note_on_c, 1, 57, 0
1, 3732, Note_on_c, 0, 59, 64
1, 3744, Note_on_c, 0, 59, 0
1, 3744, Note_on_c, 0, 71, 64
1, 3744, Note_on_c, 1, 56, 64
1, 3822, Note_on_c, 0, 71, 0
1, 3822, Note_on_c, 1, 56, 0
1, 3828, Note_on_c, 0, 69, 67
1, 3828, Note_on_c, 1, 54, 68
1, 3840, Note_on_c, 0, 69, 0
1, 3840, Note_on_c, 0, 72, 67
1, 3840, Note_on_c, 1, 54, 0
1, 3840, Note_on_c, 1, 57, 69
1, 3840, Note_on_c, 1, 51, 69
1, 3918, Note_on_c, 0, 72, 0
1, 3924, Note_on_c, 0, 66, 71
1, 3929, Note_on_c, 1, 57, 0
1, 3929, Note_on_c, 1, 51, 0
1, 3936, Note_on_c, 0, 66, 0
1, 3936, Note_on_c, 0, 73, 71
1, 3936, Note_on_c, 0, 69, 71
1, 3936, Note_on_c, 0, 66, 71
1, 3936, Note_on_c, 0, 61, 71
1, 3936, Note_on_c, 1, 57, 74
1, 3936, Note_on_c, 1, 54, 74
1, 3936, Note_on_c, 1, 49, 74
1, 4014, Note_on_c, 0, 73, 0
1, 4014, Note_on_c, 0, 69, 0
1, 4014, Note_on_c, 0, 66, 0
1, 4014, Note_on_c, 0, 61, 0
1, 4020, Note_on_c, 0, 66, 75
1, 4025, Note_on_c, 1, 57, 0
1, 4025, Note_on_c, 1, 54, 0
1, 4025, Note_on_c, 1, 49, 0
1, 4032, Note_on_c, 0, 66, 0
1, 4032, Note_on_c, 0, 75, 80
1, 4032, Note_on_c, 0, 68, 64
1, 4032, Note_on_c, 0, 66, 64
1, 4032, Note_on_c, 1, 60, 80
1, 4032, Note_on_c, 1, 56, 80
1, 4032, Note_on_c, 1, 51, 80
1, 4032, Note_on_c, 1, 48, 80
1, 4110, Note_on_c, 0, 75, 0
1, 4116, Note_on_c, 0, 68, 80
1, 4121, Note_on_c, 0, 68, 0
1, 4121, Note_on_c, 0, 66, 0
1, 4121, Note_on_c, 1, 60, 0
1, 4121, Note_on_c, 1, 56, 0
1, 4121, Note_on_c, 1, 51, 0
1, 4121, Note_on_c, 1, 48, 0
1, 4128, Note_on_c, 0, 68, 0
1, 4128, Note_on_c, 0, 64, 80
1, 4128, Note_on_c, 1, 61, 80
1, 4128, Note_on_c, 1, 56, 80
1, 4128, Note_on_c, 1, 52, 80
1, 4128, Note_on_c, 1, 49, 80
1, 4132, Note_on_c, 0, 64, 0
1, 4132, Note_on_c, 0, 68, 80
1, 4136, Note_on_c, 0, 68, 0
1, 4136, Note_on_c, 0, 73, 80
1, 4140, Note_on_c, 0, 73, 0
1, 4140, Note_on_c, 0, 76, 80
1, 4146, Note_on_c, 0, 76, 0
1, 4146, Note_on_c, 0, 78, 80
1, 4152, Note_on_c, 0, 78, 0
1, 4152, Note_on_c, 0, 76, 80
1, 4158, Note_on_c, 0, 76, 0
1, 4158, Note_on_c, 0, 75, 79
1, 4164, Note_on_c, 0, 75, 0
1, 4164, Note_on_c, 0, 76, 79
1, 4170, Note_on_c, 0, 76, 0
1, 4170, Note_on_c, 0, 78, 78
1, 4173, Note_on_c, 0, 78, 0
1, 4173, Note_on_c, 1, 61, 0
1, 4173, Note_on_c, 1, 56, 0
1, 4173, Note_on_c, 1, 52, 0
1, 4173, Note_on_c, 1, 49, 0
1, 4176, Note_on_c, 0, 80, 78
1, 4191, Note_on_c, 0, 80, 0
1, 4192, Note_on_c, 0, 76, 77
1, 4207, Note_on_c, 0, 76, 0
1, 4208, Note_on_c, 0, 73, 76
1, 4223, Note_on_c, 0, 73, 0
1, 4224, Note_on_c, 0, 71, 64
1, 4224, Note_on_c, 1, 63, 64
1, 4224, Note_on_c, 1, 54, 64
1, 4234, Note_on_c, 0, 71, 0
1, 4247, Note_on_c, 1, 63, 0
1, 4247, Note_on_c, 1, 54, 0
1, 4272, Note_on_c, 0, 70, 64
1, 4272, Note_on_c, 0, 64, 64
1, 4272, Note_on_c, 1, 61, 64
1, 4272, Note_on_c, 1, 54, 64
1, 4295, Note_on_c, 0, 70, 0
1, 4295, Note_on_c, 0, 64, 0
1, 4295, Note_on_c, 1, 61, 0
1, 4295, Note_on_c, 1, 54, 0
1, 4320, Note_on_c, 0, 73, 64
1, 4320, Note_on_c, 0, 70, 64
1, 4320, Note_on_c, 0, 64, 64
1, 4320, Note_on_c, 1, 47, 64
1, 4398, Note_on_c, 0, 64, 0
1, 4404, Note_on_c, 0, 66, 64
1, 4416, Note_on_c, 0, 73, 0
1, 4416, Note_on_c, 0, 70, 0
1, 4416, Note_on_c, 0, 71, 64
1, 4416, Note_on_c, 0, 66, 0
1, 4416, Note_on_c, 0, 63, 64
1, 4431, Note_on_c, 1, 47, 0
1, 4432, Note_on_c, 1, 35, 66
1, 4447, Note_on_c, 1, 35, 0
1, 4448, Note_on_c, 1, 39, 68
1, 4461, Note_on_c, 0, 71, 0
1, 4461, Note_on_c, 0, 63, 0
1, 4463, Note_on_c, 1, 39, 0
1, 4464, Note_on_c, 1, 42, 70
1, 4479, Note_on_c, 1, 42, 0
1, 4480, Note_on_c, 1, 47, 72
1, 4495, Note_on_c, 1, 47, 0
1, 4496, Note_on_c, 1, 51, 74
1, 4511, Note_on_c, 1, 51, 0
1, 4512, Note_on_c, 1, 54, 76
1, 4527, Note_on_c, 1, 54, 0
1, 4528, Note_on_c, 1, 57, 78
1, 4543, Note_on_c, 1, 57, 0
1, 4544, Note_on_c, 1, 59, 80
1, 4559, Note_on_c, 1, 59, 0
1, 4560, Note_on_c, 1, 63, 78
1, 4575, Note_on_c, 1, 63, 0
1, 4576, Note_on_c, 1, 66, 76
1, 4591, Note_on_c, 1, 66, 0
1, 4592, Note_on_c, 1, 69, 74
1, 4607, Note_on_c, 1, 69, 0
1, 4608, Note_on_c, 0, 72, 64
1, 4608, Note_on_c, 1, 66, 64
1, 4608, Note_on_c, 1, 63, 64
1, 4608, Note_on_c, 1, 57, 64
1, 4692, Note_on_c, 0, 72, 0
1, 4692, Note_on_c, 0, 71, 70
1, 4704, Note_on_c, 0, 71, 0
1, 4704, Note_on_c, 0, 78, 71
1, 4785, Note_on_c, 1, 66, 0
1, 4785, Note_on_c, 1, 63, 0
1, 4785, Note_on_c, 1, 57, 0
1, 4788, Note_on_c, 0, 78, 0
1, 4788, Note_on_c, 0, 71, 77
1, 4800, Note_on_c, 0, 71, 0
1, 4800, Note_on_c, 0, 71, 78
1, 4800, Note_on_c, 1, 64, 78
1, 4800, Note_on_c, 1, 59, 78
1, 4800, Note_on_c, 1, 55, 78
1, 4806, Note_on_c, 0, 71, 0
1, 4806, Note_on_c, 0, 79, 78
1, 4884, Note_on_c, 0, 79, 0
1, 4884, Note_on_c, 0, 71, 85
1, 4889, Note_on_c, 1, 64, 0
1, 4889, Note_on_c, 1, 59, 0
1, 4889, Note_on_c, 1, 55, 0
1, 4896, Note_on_c, 0, 71, 0
1, 4896, Note_on_c, 0, 81, 86
1, 4896, Note_on_c, 0, 77, 86
1, 4896, Note_on_c, 0, 74, 86
1, 4896, Note_on_c, 0, 71, 86
1, 4896, Note_on_c, 1, 65, 86
1, 4896, Note_on_c, 1, 62, 86
1, 4896, Note_on_c, 1, 59, 86
1, 4896, Note_on_c, 1, 55, 86
1, 4978, Note_on_c, 1, 65, 0
1, 4978, Note_on_c, 1, 62, 0
1, 4978, Note_on_c, 1, 59, 0
1, 4978, Note_on_c, 1, 55, 0
1, 4980, Note_on_c, 1, 59, 86
1, 4980, Note_on_c, 1, 55, 86
1, 4990, Note_on_c, 0, 81, 0
1, 4990, Note_on_c, 0, 77, 0
1, 4990, Note_on_c, 0, 74, 0
1, 4990, Note_on_c, 0, 71, 0
1, 4992, Note_on_c, 0, 77, 86
1, 4992, Note_on_c, 0, 74, 86
1, 4992, Note_on_c, 0, 71, 86
1, 4992, Note_on_c, 0, 67, 86
1, 4992, Note_on_c, 1, 59, 0
1, 4992, Note_on_c, 1, 55, 0
1, 4992, Note_on_c, 1, 62, 86
1, 4992, Note_on_c, 1, 59, 86
1, 5070, Note_on_c, 1, 62, 0
1, 5070, Note_on_c, 1, 59, 0
1, 5076, Note_on_c, 1, 59, 86
1, 5076, Note_on_c, 1, 55, 86
1, 5081, Note_on_c, 0, 77, 0
1, 5081, Note_on_c, 0, 74, 0
1, 5081, Note_on_c, 0, 71, 0
1, 5081, Note_on_c, 0, 67, 0
1, 5088, Note_on_c, 0, 76, 86
1, 5088, Note_on_c, 0, 72, 86
1, 5088, Note_on_c, 0, 67, 64
1, 5088, Note_on_c, 1, 59, 0
1, 5088, Note_on_c, 1, 55, 0
1, 5088, Note_on_c, 1, 64, 86
1, 5088, Note_on_c, 1, 60, 86
1, 5166, Note_on_c, 1, 64, 0
1, 5166, Note_on_c, 1, 60, 0
1, 5172, Note_on_c, 0, 76, 0
1, 5172, Note_on_c, 0, 72, 0
1, 5172, Note_on_c, 0, 74, 86
1, 5172, Note_on_c, 1, 65, 86
1, 5172, Note_on_c, 1, 62, 86
1, 5177, Note_on_c, 0, 67, 0
1, 5184, Note_on_c, 0, 74, 0
1, 5184, Note_on_c, 0, 74, 86
1, 5184, Note_on_c, 1, 65, 0
1, 5184, Note_on_c, 1, 62, 0
1, 5184, Note_on_c, 1, 67, 86
1, 5184, Note_on_c, 1, 64, 86
1, 5268, Note_on_c, 0, 74, 0
1, 5268, Note_on_c, 0, 72, 86
1, 5273, Note_on_c, 1, 67, 0
1, 5273, Note_on_c, 1, 64, 0
1, 5280, Note_on_c, 0, 72, 0
1, 5280, Note_on_c, 0, 72, 86
1, 5280, Note_on_c, 1, 65, 86
1, 5280, Note_on_c, 1, 62, 86
1, 5364, Note_on_c, 0, 72, 0
1, 5364, Note_on_c, 0, 71, 81
1, 5369, Note_on_c, 1, 65, 0
1, 5369, Note_on_c, 1, 62, 0
1, 5376, Note_on_c, 0, 71, 0
1, 5376, Note_on_c, 0, 71, 80
1, 5376, Note_on_c, 1, 64, 81
1, 5376, Note_on_c, 1, 60, 81
1, 5460, Note_on_c, 0, 71, 0
1, 5460, Note_on_c, 0, 70, 75
1, 5465, Note_on_c, 1, 64, 0
1, 5465, Note_on_c, 1, 60, 0
1, 5472, Note_on_c, 0, 70, 0
1, 5472, Note_on_c, 0, 70, 75
1, 5472, Note_on_c, 1, 64, 77
1, 5472, Note_on_c, 1, 59, 64
1, 5568, Note_on_c, 1, 64, 0
1, 5568, Note_on_c, 1, 63, 72
1, 5605, Note_on_c, 0, 70, 0
1, 5616, Note_on_c, 0, 71, 66
1, 5661, Note_on_c, 0, 71, 0
1, 5664, Note_on_c, 0, 69, 64
1, 5709, Note_on_c, 0, 69, 0
1, 5712, Note_on_c, 0, 66, 64
1, 5737, Note_on_c, 1, 59, 0
1, 5745, Note_on_c, 1, 63, 0
1, 5757, Note_on_c, 0, 66, 0
1, 5760, Note_on_c, 0, 64, 64
1, 5760, Note_on_c, 1, 56, 64
1, 5760, Note_on_c, 1, 52, 64
1, 5838, Note_on_c, 0, 64, 0
1, 5838, Note_on_c, 1, 56, 0
1, 5844, Note_on_c, 0, 63, 64
1, 5844, Note_on_c, 1, 54, 64
1, 5856, Note_on_c, 0, 63, 0
1, 5856, Note_on_c, 0, 66, 64
1, 5856, Note_on_c, 1, 54, 0
1, 5856, Note_on_c, 1, 57, 64
1, 5945, Note_on_c, 0, 66, 0
1, 5952, Note_on_c, 0, 59, 64
1, 5957, Note_on_c, 0, 59, 0
1, 5964, Note_on_c, 0, 61, 64
1, 5969, Note_on_c, 0, 61, 0
1, 5976, Note_on_c, 0, 63, 64
1, 5981, Note_on_c, 0, 63, 0
1, 5988, Note_on_c, 0, 64, 64
1, 5993, Note_on_c, 0, 64, 0
1, 6000, Note_on_c, 0, 66, 64
1, 6005, Note_on_c, 0, 66, 0
1, 6012, Note_on_c, 0, 68, 64
1, 6017, Note_on_c, 0, 68, 0
1, 6024, Note_on_c, 0, 69, 64
1, 6025, Note_on_c, 1, 52, 0
1, 6029, Note_on_c, 0, 69, 0
1, 6033, Note_on_c, 1, 57, 0
1, 6036, Note_on_c, 0, 70, 64
1, 6041, Note_on_c, 0, 70, 0
1, 6048, Note_on_c, 0, 71, 64
1, 6048, Note_on_c, 1, 64, 64
1, 6048, Note_on_c, 1, 56, 64
1, 6058, Note_on_c, 0, 71, 0
1, 6072, Note_on_c, 0, 71, 66
1, 6082, Note_on_c, 0, 71, 0
1, 6096, Note_on_c, 0, 71, 68
1, 6106, Note_on_c, 0, 71, 0
1, 6120, Note_on_c, 0, 71, 71
1, 6126, Note_on_c, 1, 64, 0
1, 6126, Note_on_c, 1, 56, 0
1, 6130, Note_on_c, 0, 71, 0
1, 6132, Note_on_c, 1, 63, 71
1, 6132, Note_on_c, 1, 54, 71
1, 6144, Note_on_c, 0, 71, 73
1, 6144, Note_on_c, 1, 63, 0
1, 6144, Note_on_c, 1, 54, 0
1, 6144, Note_on_c, 1, 66, 72
1, 6144, Note_on_c, 1, 57, 72
1, 6151, Note_on_c, 0, 71, 0
1, 6160, Note_on_c, 0, 71, 75
1, 6167, Note_on_c, 0, 71, 0
1, 6176, Note_on_c, 0, 71, 76
1, 6183, Note_on_c, 0, 71, 0
1, 6192, Note_on_c, 0, 71, 77
1, 6197, Note_on_c, 0, 71, 0
1, 6204, Note_on_c, 0, 71, 80
1, 6209, Note_on_c, 0, 71, 0
1, 6216, Note_on_c, 0, 71, 80
1, 6221, Note_on_c, 0, 71, 0
1, 6228, Note_on_c, 0, 71, 80
1, 6233, Note_on_c, 0, 71, 0
1, 6233, Note_on_c, 1, 66, 0
1, 6233, Note_on_c, 1, 57, 0
1, 6240, Note_on_c, 0, 71, 80
1, 6240, Note_on_c, 1, 66, 80
1, 6240, Note_on_c, 1, 63, 80
1, 6240, Note_on_c, 1, 59, 80
1, 6240, Note_on_c, 1, 57, 80
1, 6251, Note_on_c, 0, 71, 0
1, 6258, Note_on_c, 0, 73, 80
1, 6264, Note_on_c, 0, 73, 0
1, 6264, Note_on_c, 0, 71, 80
1, 6270, Note_on_c, 0, 71, 0
1, 6270, Note_on_c, 0, 70, 80
1, 6276, Note_on_c, 0, 70, 0
1, 6276, Note_on_c, 0, 71, 80
1, 6282, Note_on_c, 0, 71, 0
1, 6282, Note_on_c, 0, 73, 80
1, 6288, Note_on_c, 0, 73, 0
1, 6288, Note_on_c, 0, 75, 80
1, 6294, Note_on_c, 0, 75, 0
1, 6294, Note_on_c, 0, 76, 80
1, 6300, Note_on_c, 0, 76, 0
1, 6300, Note_on_c, 0, 78, 80
1, 6306, Note_on_c, 0, 78, 0
1, 6306, Note_on_c, 0, 80, 80
1, 6312, Note_on_c, 0, 80, 0
1, 6312, Note_on_c, 0, 81, 80
1, 6318, Note_on_c, 0, 81, 0
1, 6318, Note_on_c, 0, 83, 80
1, 6324, Note_on_c, 0, 83, 0
1, 6324, Note_on_c, 0, 85, 80
1, 6329, Note_on_c, 1, 66, 0
1, 6329, Note_on_c, 1, 63, 0
1, 6329, Note_on_c, 1, 59, 0
1, 6329, Note_on_c, 1, 57, 0
1, 6330, Note_on_c, 0, 85, 0
1, 6330, Note_on_c, 0, 87, 80
1, 6336, Note_on_c, 0, 87, 0
1, 6336, Note_on_c, 0, 88, 99
1, 6336, Note_on_c, 1, 64, 83
1, 6336, Note_on_c, 1, 59, 83
1, 6336, Note_on_c, 1, 56, 83
1, 6420, Note_on_c, 0, 88, 0
1, 6420, Note_on_c, 0, 87, 86
1, 6425, Note_on_c, 1, 64, 0
1, 6425, Note_on_c, 1, 59, 0
1, 6425, Note_on_c, 1, 56, 0
1, 6432, Note_on_c, 0, 87, 0
1, 6432, Note_on_c, 0, 86, 86
1, 6432, Note_on_c, 1, 65, 86
1, 6432, Note_on_c, 1, 59, 86
1, 6432, Note_on_c, 1, 56, 86
1, 6521, Note_on_c, 0, 86, 0
1, 6521, Note_on_c, 1, 65, 0
1, 6521, Note_on_c, 1, 59, 0
1, 6521, Note_on_c, 1, 56, 0
1, 6528, Note_on_c, 0, 85, 86
1, 6528, Note_on_c, 1, 66, 86
1, 6528, Note_on_c, 1, 61, 86
1, 6528, Note_on_c, 1, 57, 86
1, 6617, Note_on_c, 0, 85, 0
1, 6617, Note_on_c, 1, 66, 0
1, 6617, Note_on_c, 1, 61, 0
1, 6617, Note_on_c, 1, 57, 0
1, 6624, Note_on_c, 0, 71, 86
1, 6624, Note_on_c, 1, 68, 86
1, 6624, Note_on_c, 1, 64, 86
1, 6624, Note_on_c, 1, 59, 86
1, 6630, Note_on_c, 0, 71, 0
1, 6630, Note_on_c, 0, 76, 86
1, 6636, Note_on_c, 0, 76, 0
1, 6636, Note_on_c, 0, 80, 86
1, 6642, Note_on_c, 0, 80, 0
1, 6642, Note_on_c, 0, 83, 102
1, 6708, Note_on_c, 0, 83, 0
1, 6708, Note_on_c, 0, 82, 86
1, 6713, Note_on_c, 1, 68, 0
1, 6713, Note_on_c, 1, 64, 0
1, 6713, Note_on_c, 1, 59, 0
1, 6720, Note_on_c, 0, 82, 0
1, 6720, Note_on_c, 0, 88, 102
1, 6720, Note_on_c, 1, 67, 86
1, 6720, Note_on_c, 1, 64, 86
1, 6720, Note_on_c, 1, 61, 86
1, 6897, Note_on_c, 1, 67, 0
1, 6897, Note_on_c, 1, 64, 0
1, 6897, Note_on_c, 1, 61, 0
1, 6912, Note_on_c, 0, 88, 0
1, 6912, Note_on_c, 0, 81, 64
1, 6912, Note_on_c, 0, 78, 64
1, 6912, Note_on_c, 1, 71, 64
1, 6912, Note_on_c, 1, 63, 64
1, 6990, Note_on_c, 1, 63, 0
1, 6996, Note_on_c, 0, 81, 0
1, 6996, Note_on_c, 0, 78, 0
1, 6996, Note_on_c, 0, 80, 64
1, 6996, Note_on_c, 0, 76, 64
1, 6996, Note_on_c, 1, 64, 64
1, 7001, Note_on_c, 1, 71, 0
1, 7008, Note_on_c, 0, 80, 0
1, 7008, Note_on_c, 0, 76, 0
1, 7008, Note_on_c, 0, 85, 64
1, 7008, Note_on_c, 0, 76, 64
1, 7008, Note_on_c, 1, 69, 64
1, 7008, Note_on_c, 1, 57, 64
1, 7008, Note_on_c, 1, 64, 0
1, 7028, Note_on_c, 0, 85, 0
1, 7028, Note_on_c, 0, 76, 0
1, 7053, Note_on_c, 1, 69, 0
1, 7053, Note_on_c, 1, 57, 0
1, 7104, Note_on_c, 0, 75, 64
1, 7104, Note_on_c, 0, 69, 64
1, 7104, Note_on_c, 1, 66, 64
1, 7104, Note_on_c, 1, 59, 64
1, 7149, Note_on_c, 0, 75, 0
1, 7149, Note_on_c, 0, 69, 0
1, 7149, Note_on_c, 1, 66, 0
1, 7149, Note_on_c, 1, 59, 0
1, 7200, Note_on_c, 0, 75, 64
1, 7200, Note_on_c, 0, 66, 64
1, 7200, Note_on_c, 0, 69, 64
1, 7200, Note_on_c, 1, 64, 64
1, 7278, Note_on_c, 0, 69, 0
1, 7284, Note_on_c, 0, 71, 64
1, 7289, Note_on_c, 1, 64, 0
1, 7296, Note_on_c, 0, 75, 0
1, 7296, Note_on_c, 0, 66, 0
1, 7296, Note_on_c, 0, 76, 64
1, 7296, Note_on_c, 0, 68, 64
1, 7296, Note_on_c, 0, 64, 64
1, 7296, Note_on_c, 0, 71, 0
1, 7296, Note_on_c, 1, 52, 64
1, 7473, Note_on_c, 0, 76, 0
1, 7473, Note_on_c, 0, 68, 0
1, 7473, Note_on_c, 0, 64, 0
1, 7473, Note_on_c, 1, 52, 0
1, 7488, Note_on_c, 0, 72, 64
1, 7488, Note_on_c, 1, 66, 64
1, 7488, Note_on_c, 1, 63, 64
1, 7488, Note_on_c, 1, 57, 64
1, 7572, Note_on_c, 0, 72, 0
1, 7572, Note_on_c, 0, 71, 70
1, 7584, Note_on_c, 0, 71, 0
1, 7584, Note_on_c, 0, 78, 71
1, 7665, Note_on_c, 1, 66, 0
1, 7665, Note_on_c, 1, 63, 0
1, 7665, Note_on_c, 1, 57, 0
1, 7668, Note_on_c, 0, 78, 0
1, 7668, Note_on_c, 0, 71, 77
1, 7680, Note_on_c, 0, 71, 0
1, 7680, Note_on_c, 0, 71, 78
1, 7680, Note_on_c, 1, 64, 78
1, 7680, Note_on_c, 1, 59, 78
1, 7680, Note_on_c, 1, 55, 78
1, 7686, Note_on_c, 0, 71, 0
1, 7686, Note_on_c, 0, 79, 78
1, 7764, Note_on_c, 0, 79, 0
1, 7764, Note_on_c, 0, 71, 85
1, 7769, Note_on_c, 1, 64, 0
1, 7769, Note_on_c, 1, 59, 0
1, 7769, Note_on_c, 1, 55, 0
1, 7776, Note_on_c, 0, 71, 0
1, 7776, Note_on_c, 0, 81, 86
1, 7776, Note_on_c, 0, 77, 86
1, 7776, Note_on_c, 0, 74, 86
1, 7776, Note_on_c, 0, 71, 86
1, 7776, Note_on_c, 1, 65, 86
1, 7776, Note_on_c, 1, 62, 86
1, 7776, Note_on_c, 1, 59, 86
1, 7776, Note_on_c, 1, 55, 86
1, 7858, Note_on_c, 1, 65, 0
1, 7858, Note_on_c, 1, 62, 0
1, 7858, Note_on_c, 1, 59, 0
1, 7858, Note_on_c, 1, 55, 0
1, 7860, Note_on_c, 1, 59, 86
1, 7860, Note_on_c, 1, 55, 86
1, 7870, Note_on_c, 0, 81, 0
1, 7870, Note_on_c, 0, 77, 0
1, 7870, Note_on_c, 0, 74, 0
1, 7870, Note_on_c, 0, 71, 0
1, 7872, Note_on_c, 0, 77, 86
1, 7872, Note_on_c, 0, 74, 86
1, 7872, Note_on_c, 0, 71, 86
1, 7872, Note_on_c, 0, 67, 86
1, 7872, Note_on_c, 1, 59, 0
1, 7872, Note_on_c, 1, 55, 0
1, 7872, Note_on_c, 1, 62, 86
1, 7872, Note_on_c, 1, 59, 86
1, 7950, Note_on_c, 1, 62, 0
1, 7950, Note_on_c, 1, 59, 0
1, 7956, Note_on_c, 1, 59, 86
1, 7956, Note_on_c, 1, 55, 86
1, 7961, Note_on_c, 0, 77, 0
1, 7961, Note_on_c, 0, 74, 0
1, 7961, Note_on_c, 0, 71, 0
1, 7961, Note_on_c, 0, 67, 0
1, 7968, Note_on_c, 0, 76, 86
1, 7968, Note_on_c, 0, 72, 86
1, 7968, Note_on_c, 0, 67, 64
1, 7968, Note_on_c, 1, 59, 0
1, 7968, Note_on_c, 1, 55, 0
1, 7968, Note_on_c, 1, 64, 86
1, 7968, Note_on_c, 1, 60, 86
1, 8046, Note_on_c, 1, 64, 0
1, 8046, Note_on_c, 1, 60, 0
1, 8052, Note_on_c, 0, 76, 0
1, 8052, Note_on_c, 0, 72, 0
1, 8052, Note_on_c, 0, 74, 86
1, 8052, Note_on_c, 1, 65, 86
1, 8052, Note_on_c, 1, 62, 86
1, 8057, Note_on_c, 0, 67, 0
1, 8064, Note_on_c, 0, 74, 0
1, 8064, Note_on_c, 0, 74, 86
1, 8064, Note_on_c, 1, 65, 0
1, 8064, Note_on_c, 1, 62, 0
1, 8064, Note_on_c, 1, 67, 86
1, 8064, Note_on_c, 1, 64, 86
1, 8148, Note_on_c, 0, 74, 0
1, 8148, Note_on_c, 0, 72, 86
1, 8153, Note_on_c, 1, 67, 0
1, 8153, Note_on_c, 1, 64, 0
1, 8160, Note_on_c, 0, 72, 0
1, 8160, Note_on_c, 0, 72, 86
1, 8160, Note_on_c, 1, 65, 86
1, 8160, Note_on_c, 1, 62, 86
1, 8244, Note_on_c, 0, 72, 0
1, 8244, Note_on_c, 0, 71, 81
1, 8249, Note_on_c, 1, 65, 0
1, 8249, Note_on_c, 1, 62, 0
1, 8256, Note_on_c, 0, 71, 0
1, 8256, Note_on_c, 0, 71, 80
1, 8256, Note_on_c, 1, 64, 81
1, 8256, Note_on_c, 1, 60, 81
1, 8340, Note_on_c, 0, 71, 0
1, 8340, Note_on_c, 0, 70, 75
1, 8345, Note_on_c, 1, 64, 0
1, 8345, Note_on_c, 1, 60, 0
1, 8352, Note_on_c, 0, 70, 0
1, 8352, Note_on_c, 0, 70, 75
1, 8352, Note_on_c, 1, 64, 77
1, 8352, Note_on_c, 1, 59, 64
1, 8448, Note_on_c, 1, 64, 0
1, 8448, Note_on_c, 1, 63, 72
1, 8485, Note_on_c, 0, 70, 0
1, 8496, Note_on_c, 0, 71, 66
1, 8541, Note_on_c, 0, 71, 0
1, 8544, Note_on_c, 0, 69, 64
1, 8589, Note_on_c, 0, 69, 0
1, 8592, Note_on_c, 0, 66, 64
1, 8617, Note_on_c, 1, 59, 0
1, 8625, Note_on_c, 1, 63, 0
1, 8637, Note_on_c, 0, 66, 0
1, 8640, Note_on_c, 0, 64, 64
1, 8640, Note_on_c, 1, 56, 64
1, 8640, Note_on_c, 1, 52, 64
1, 8718, Note_on_c, 0, 64, 0
1, 8718, Note_on_c, 1, 56, 0
1, 8724, Note_on_c, 0, 63, 64
1, 8724, Note_on_c, 1, 54, 64
1, 8736, Note_on_c, 0, 63, 0
1, 8736, Note_on_c, 0, 66, 64
1, 8736, Note_on_c, 1, 54, 0
1, 8736, Note_on_c, 1, 57, 64
1, 8825, Note_on_c, 0, 66, 0
1, 8832, Note_on_c, 0, 59, 64
1, 8837, Note_on_c, 0, 59, 0
1, 8844, Note_on_c, 0, 61, 64
1, 8849, Note_on_c, 0, 61, 0
1, 8856, Note_on_c, 0, 63, 64
1, 8861, Note_on_c, 0, 63, 0
1, 8868, Note_on_c, 0, 64, 64
1, 8873, Note_on_c, 0, 64, 0
1, 8880, Note_on_c, 0, 66, 64
1, 8885, Note_on_c, 0, 66, 0
1, 8892, Note_on_c, 0, 68, 64
1, 8897, Note_on_c, 0, 68, 0
1, 8904, Note_on_c, 0, 69, 64
1, 8905, Note_on_c, 1, 52, 0
1, 8909, Note_on_c, 0, 69, 0
1, 8913, Note_on_c, 1, 57, 0
1, 8916, Note_on_c, 0, 70, 64
1, 8921, Note_on_c, 0, 70, 0
1, 8928, Note_on_c, 0, 71, 64
1, 8928, Note_on_c, 1, 64, 64
1, 8928, Note_on_c, 1, 56, 64
1, 8938, Note_on_c, 0, 71, 0
1, 8952, Note_on_c, 0, 71, 66
1, 8962, Note_on_c, 0, 71, 0
1, 8976, Note_on_c, 0, 71, 68
1, 8986, Note_on_c, 0, 71, 0
1, 9000, Note_on_c, 0, 71, 71
1, 9006, Note_on_c, 1, 64, 0
1, 9006, Note_on_c, 1, 56, 0
1, 9010, Note_on_c, 0, 71, 0
1, 9012, Note_on_c, 1, 63, 71
1, 9012, Note_on_c, 1, 54, 71
1, 9024, Note_on_c, 0, 71, 73
1, 9024, Note_on_c, 1, 63, 0
1, 9024, Note_on_c, 1, 54, 0
1, 9024, Note_on_c, 1, 66, 72
1, 9024, Note_on_c, 1, 57, 72
1, 9031, Note_on_c, 0, 71, 0
1, 9040, Note_on_c, 0, 71, 75
1, 9047, Note_on_c, 0, 71, 0
1, 9056, Note_on_c, 0, 71, 76
1, 9063, Note_on_c, 0, 71, 0
1, 9072, Note_on_c, 0, 71, 77
1, 9077, Note_on_c, 0, 71, 0
1, 9084, Note_on_c, 0, 71, 80
1, 9089, Note_on_c, 0, 71, 0
1, 9096, Note_on_c, 0, 71, 80
1, 9101, Note_on_c, 0, 71, 0
1, 9108, Note_on_c, 0, 71, 80
1, 9113, Note_on_c, 0, 71, 0
1, 9113, Note_on_c, 1, 66, 0
1, 9113, Note_on_c, 1, 57, 0
1, 9120, Note_on_c, 0, 71, 80
1, 9120, Note_on_c, 1, 66, 80
1, 9120, Note_on_c, 1, 63, 80
1, 9120, Note_on_c, 1, 59, 80
1, 9120, Note_on_c, 1, 57, 80
1, 9131, Note_on_c, 0, 71, 0
1, 9138, Note_on_c, 0, 73, 80
1, 9144, Note_on_c, 0, 73, 0
1, 9144, Note_on_c, 0, 71, 80
1, 9150, Note_on_c, 0, 71, 0
1, 9150, Note_on_c, 0, 70, 80
1, 9156, Note_on_c, 0, 70, 0
1, 9156, Note_on_c, 0, 71, 80
1, 9162, Note_on_c, 0, 71, 0
1, 9162, Note_on_c, 0, 73, 80
1, 9168, Note_on_c, 0, 73, 0
1, 9168, Note_on_c, 0, 75, 80
1, 9174, Note_on_c, 0, 75, 0
1, 9174, Note_on_c, 0, 76, 80
1, 9180, Note_on_c, 0, 76, 0
1, 9180, Note_on_c, 0, 78, 80
1, 9186, Note_on_c, 0, 78, 0
1, 9186, Note_on_c, 0, 80, 80
1, 9192, Note_on_c, 0, 80, 0
1, 9192, Note_on_c, 0, 81, 80
1, 9198, Note_on_c, 0, 81, 0
1, 9198, Note_on_c, 0, 83, 80
1, 9204, Note_on_c, 0, 83, 0
1, 9204, Note_on_c, 0, 85, 80
1, 9209, Note_on_c, 1, 66, 0
1, 9209, Note_on_c, 1, 63, 0
1, 9209, Note_on_c, 1, 59, 0
1, 9209, Note_on_c, 1, 57, 0
1, 9210, Note_on_c, 0, 85, 0
1, 9210, Note_on_c, 0, 87, 80
1, 9216, Note_on_c, 0, 87, 0
1, 9216, Note_on_c, 0, 88, 99
1, 9216, Note_on_c, 1, 64, 83
1, 9216, Note_on_c, 1, 59, 83
1, 9216, Note_on_c, 1, 56, 83
1, 9300, Note_on_c, 0, 88, 0
1, 9300, Note_on_c, 0, 87, 86
1, 9305, Note_on_c, 1, 64, 0
1, 9305, Note_on_c, 1, 59, 0
1, 9305, Note_on_c, 1, 56, 0
1, 9312, Note_on_c, 0, 87, 0
1, 9312, Note_on_c, 0, 86, 86
1, 9312, Note_on_c, 1, 65, 86
1, 9312, Note_on_c, 1, 59, 86
1, 9312, Note_on_c, 1, 56, 86
1, 9401, Note_on_c, 0, 86, 0
1, 9401, Note_on_c, 1, 65, 0
1, 9401, Note_on_c, 1, 59, 0
1, 9401, Note_on_c, 1, 56, 0
1, 9408, Note_on_c, 0, 85, 86
1, 9408, Note_on_c, 1, 66, 86
1, 9408, Note_on_c, 1, 61, 86
1, 9408, Note_on_c, 1, 57, 86
1, 9497, Note_on_c, 0, 85, 0
1, 9497, Note_on_c, 1, 66, 0
1, 9497, Note_on_c, 1, 61, 0
1, 9497, Note_on_c, 1, 57, 0
1, 9504, Note_on_c, 0, 71, 86
1, 9504, Note_on_c, 1, 68, 86
1, 9504, Note_on_c, 1, 64, 86
1, 9504, Note_on_c, 1, 59, 86
1, 9510, Note_on_c, 0, 71, 0
1, 9510, Note_on_c, 0, 76, 86
1, 9516, Note_on_c, 0, 76, 0
1, 9516, Note_on_c, 0, 80, 86
1, 9522, Note_on_c, 0, 80, 0
1, 9522, Note_on_c, 0, 83, 102
1, 9588, Note_on_c, 0, 83, 0
1, 9588, Note_on_c, 0, 82, 86
1, 9593, Note_on_c, 1, 68, 0
1, 9593, Note_on_c, 1, 64, 0
1, 9593, Note_on_c, 1, 59, 0
1, 9600, Note_on_c, 0, 82, 0
1, 9600, Note_on_c, 0, 88, 102
1, 9600, Note_on_c, 1, 67, 86
1, 9600, Note_on_c, 1, 64, 86
1, 9600, Note_on_c, 1, 61, 86
1, 9777, Note_on_c, 1, 67, 0
1, 9777, Note_on_c, 1, 64, 0
1, 9777, Note_on_c, 1, 61, 0
1, 9792, Note_on_c, 0, 88, 0
1, 9792, Note_on_c, 0, 81, 64
1, 9792, Note_on_c, 0, 78, 64
1, 9792, Note_on_c, 1, 71, 64
1, 9792, Note_on_c, 1, 63, 64
1, 9870, Note_on_c, 1, 63, 0
1, 9876, Note_on_c, 0, 81, 0
1, 9876, Note_on_c, 0, 78, 0
1, 9876, Note_on_c, 0, 80, 64
1, 9876, Note_on_c, 0, 76, 64
1, 9876, Note_on_c, 1, 64, 64
1, 9881, Note_on_c, 1, 71, 0
1, 9888, Note_on_c, 0, 80, 0
1, 9888, Note_on_c, 0, 76, 0
1, 9888, Note_on_c, 0, 85, 64
1, 9888, Note_on_c, 0, 76, 64
1, 9888, Note_on_c, 1, 69, 64
1, 9888, Note_on_c, 1, 57, 64
1, 9888, Note_on_c, 1, 64, 0
1, 9908, Note_on_c, 0, 85, 0
1, 9908, Note_on_c, 0, 76, 0
1, 9933, Note_on_c, 1, 69, 0
1, 9933, Note_on_c, 1, 57, 0
1, 9984, Note_on_c, 0, 75, 64
1, 9984, Note_on_c, 0, 69, 64
1, 9984, Note_on_c, 1, 66, 64
1, 9984, Note_on_c, 1, 59, 64
1, 10029, Note_on_c, 0, 75, 0
1, 10029, Note_on_c, 0, 69, 0
1, 10029, Note_on_c, 1, 66, 0
1, 10029, Note_on_c, 1, 59, 0
1, 10080, Note_on_c, 0, 75, 64
1, 10080, Note_on_c, 0, 66, 64
1, 10080, Note_on_c, 0, 69, 64
1, 10080, Note_on_c, 1, 64, 64
1, 10158, Note_on_c, 0, 69, 0
1, 10164, Note_on_c, 0, 71, 64
1, 10169, Note_on_c, 1, 64, 0
1, 10176, Note_on_c, 0, 75, 0
1, 10176, Note_on_c, 0, 66, 0
1, 10176, Note_on_c, 0, 76, 64
1, 10176, Note_on_c, 0, 68, 64
1, 10176, Note_on_c, 0, 64, 64
1, 10176, Note_on_c, 0, 71, 0
1, 10176, Note_on_c, 1, 52, 64
1, 10353, Note_on_c, 0, 76, 0
1, 10353, Note_on_c, 0, 68, 0
1, 10353, Note_on_c, 0, 64, 0
1, 10353, Note_on_c, 1, 52, 0
1, 10368, Note_on_c, 0, 52, 80
1, 10368, Note_on_c, 1, 40, 80
1, 10452, Note_on_c, 0, 52, 0
1, 10452, Note_on_c, 0, 51, 80
1, 10452, Note_on_c, 1, 40, 0
1, 10452, Note_on_c, 1, 39, 80
1, 10464, Note_on_c, 0, 51, 0
1, 10464, Note_on_c, 0, 54, 80
1, 10464, Note_on_c, 1, 39, 0
1, 10464, Note_on_c, 1, 42, 80
1, 10498, Note_on_c, 0, 54, 0
1, 10498, Note_on_c, 1, 42, 0
1, 10500, Note_on_c, 0, 52, 80
1, 10500, Note_on_c, 1, 40, 80
1, 10512, Note_on_c, 0, 52, 0
1, 10512, Note_on_c, 0, 55, 80
1, 10512, Note_on_c, 1, 40, 0
1, 10512, Note_on_c, 1, 43, 80
1, 10546, Note_on_c, 0, 55, 0
1, 10546, Note_on_c, 1, 43, 0
1, 10548, Note_on_c, 0, 54, 80
1, 10548, Note_on_c, 1, 42, 80
1, 10560, Note_on_c, 0, 54, 0
1, 10560, Note_on_c, 0, 57, 80
1, 10560, Note_on_c, 1, 42, 0
1, 10560, Note_on_c, 1, 45, 80
1, 10594, Note_on_c, 0, 57, 0
1, 10594, Note_on_c, 1, 45, 0
1, 10596, Note_on_c, 0, 55, 80
1, 10596, Note_on_c, 1, 43, 80
1, 10608, Note_on_c, 0, 55, 0
1, 10608, Note_on_c, 0, 59, 80
1, 10608, Note_on_c, 1, 43, 0
1, 10608, Note_on_c, 1, 47, 80
1, 10642, Note_on_c, 0, 59, 0
1, 10642, Note_on_c, 1, 47, 0
1, 10644, Note_on_c, 0, 57, 80
1, 10644, Note_on_c, 1, 45, 80
1, 10656, Note_on_c, 0, 57, 0
1, 10656, Note_on_c, 0, 60, 80
1, 10656, Note_on_c, 1, 45, 0
1, 10656, Note_on_c, 1, 48, 80
1, 10745, Note_on_c, 0, 60, 0
1, 10745, Note_on_c, 1, 48, 0
1, 10752, Note_on_c, 0, 50, 80
1, 10752, Note_on_c, 1, 48, 98
1, 10752, Note_on_c, 1, 45, 98
1, 10752, Note_on_c, 1, 42, 98
1, 10768, Note_on_c, 0, 50, 0
1, 10768, Note_on_c, 0, 52, 80
1, 10772, Note_on_c, 0, 52, 0
1, 10772, Note_on_c, 0, 54, 80
1, 10776, Note_on_c, 0, 54, 0
1, 10776, Note_on_c, 0, 55, 80
1, 10780, Note_on_c, 0, 55, 0
1, 10780, Note_on_c, 0, 57, 80
1, 10784, Note_on_c, 0, 57, 0
1, 10784, Note_on_c, 0, 59, 80
1, 10788, Note_on_c, 0, 59, 0
1, 10788, Note_on_c, 0, 60, 80
1, 10792, Note_on_c, 0, 60, 0
1, 10792, Note_on_c, 0, 62, 80
1, 10796, Note_on_c, 0, 62, 0
1, 10796, Note_on_c, 0, 64, 80
1, 10800, Note_on_c, 0, 64, 0
1, 10800, Note_on_c, 0, 66, 80
1, 10804, Note_on_c, 0, 66, 0
1, 10804, Note_on_c, 0, 67, 80
1, 10808, Note_on_c, 0, 67, 0
1, 10808, Note_on_c, 0, 69, 80
1, 10812, Note_on_c, 0, 69, 0
1, 10812, Note_on_c, 0, 71, 80
1, 10816, Note_on_c, 0, 71, 0
1, 10816, Note_on_c, 0, 72, 80
1, 10820, Note_on_c, 0, 72, 0
1, 10820, Note_on_c, 0, 74, 80
1, 10824, Note_on_c, 0, 74, 0
1, 10824, Note_on_c, 0, 76, 80
1, 10828, Note_on_c, 0, 76, 0
1, 10828, Note_on_c, 0, 78, 80
1, 10832, Note_on_c, 0, 78, 0
1, 10832, Note_on_c, 0, 79, 80
1, 10836, Note_on_c, 0, 79, 0
1, 10836, Note_on_c, 0, 81, 80
1, 10839, Note_on_c, 0, 81, 0
1, 10839, Note_on_c, 0, 83, 80
1, 10842, Note_on_c, 0, 83, 0
1, 10842, Note_on_c, 0, 84, 80
1, 10845, Note_on_c, 0, 84, 0
1, 10845, Note_on_c, 0, 86, 80
1, 10848, Note_on_c, 0, 86, 0
1, 10848, Note_on_c, 0, 88, 80
1, 10868, Note_on_c, 0, 88, 0
1, 10893, Note_on_c, 1, 48, 0
1, 10893, Note_on_c, 1, 45, 0
1, 10893, Note_on_c, 1, 42, 0
1, 10932, Note_on_c, 0, 88, 64
1, 10932, Note_on_c, 0, 84, 64
1, 10932, Note_on_c, 1, 66, 64
1, 10944, Note_on_c, 0, 88, 0
1, 10944, Note_on_c, 0, 84, 0
1, 10944, Note_on_c, 0, 86, 64
1, 10944, Note_on_c, 0, 83, 64
1, 10944, Note_on_c, 1, 66, 0
1, 10944, Note_on_c, 1, 67, 64
1, 10989, Note_on_c, 0, 86, 0
1, 10989, Note_on_c, 0, 83, 0
1, 10989, Note_on_c, 1, 67, 0
1, 11016, Note_on_c, 0, 81, 64
1, 11016, Note_on_c, 1, 66, 64
1, 11024, Note_on_c, 0, 81, 0
1, 11024, Note_on_c, 0, 84, 64
1, 11032, Note_on_c, 0, 84, 0
1, 11032, Note_on_c, 0, 88, 64
1, 11039, Note_on_c, 1, 66, 0
1, 11040, Note_on_c, 0, 88, 0
1, 11040, Note_on_c, 0, 86, 64
1, 11040, Note_on_c, 0, 83, 64
1, 11040, Note_on_c, 1, 67, 64
1, 11085, Note_on_c, 0, 86, 0
1, 11085, Note_on_c, 0, 83, 0
1, 11085, Note_on_c, 1, 67, 0
1, 11112, Note_on_c, 0, 86, 64
1, 11112, Note_on_c, 1, 74, 64
1, 11112, Note_on_c, 1, 71, 64
1, 11120, Note_on_c, 0, 86, 0
1, 11120, Note_on_c, 0, 83, 64
1, 11122, Note_on_c, 1, 74, 0
1, 11122, Note_on_c, 1, 71, 0
1, 11128, Note_on_c, 0, 83, 0
1, 11128, Note_on_c, 0, 79, 64
1, 11136, Note_on_c, 0, 79, 0
1, 11136, Note_on_c, 0, 78, 64
1, 11136, Note_on_c, 1, 72, 64
1, 11136, Note_on_c, 1, 69, 64
1, 11146, Note_on_c, 0, 78, 0
1, 11146, Note_on_c, 1, 72, 0
1, 11146, Note_on_c, 1, 69, 0
1, 11160, Note_on_c, 0, 83, 64
1, 11160, Note_on_c, 1, 71, 64
1, 11160, Note_on_c, 1, 67, 64
1, 11168, Note_on_c, 0, 83, 0
1, 11168, Note_on_c, 0, 79, 64
1, 11170, Note_on_c, 1, 71, 0
1, 11170, Note_on_c, 1, 67, 0
1, 11176, Note_on_c, 0, 79, 0
1, 11176, Note_on_c, 0, 76, 64
1, 11184, Note_on_c, 0, 76, 0
1, 11184, Note_on_c, 0, 74, 64
1, 11184, Note_on_c, 1, 69, 64
1, 11184, Note_on_c, 1, 66, 64
1, 11194, Note_on_c, 0, 74, 0
1, 11194, Note_on_c, 1, 69, 0
1, 11194, Note_on_c, 1, 66, 0
1, 11208, Note_on_c, 0, 79, 64
1, 11208, Note_on_c, 1, 67, 64
1, 11208, Note_on_c, 1, 64, 64
1, 11216, Note_on_c, 0, 79, 0
1, 11216, Note_on_c, 0, 76, 64
1, 11218, Note_on_c, 1, 67, 0
1, 11218, Note_on_c, 1, 64, 0
1, 11224, Note_on_c, 0, 76, 0
1, 11224, Note_on_c, 0, 72, 64
1, 11232, Note_on_c, 0, 72, 0
1, 11232, Note_on_c, 0, 71, 64
1, 11232, Note_on_c, 1, 66, 64
1, 11232, Note_on_c, 1, 62, 64
1, 11252, Note_on_c, 0, 71, 0
1, 11252, Note_on_c, 1, 66, 0
1, 11252, Note_on_c, 1, 62, 0
1, 11304, Note_on_c, 0, 76, 64
1, 11304, Note_on_c, 1, 64, 64
1, 11304, Note_on_c, 1, 60, 64
1, 11312, Note_on_c, 0, 76, 0
1, 11312, Note_on_c, 0, 72, 64
1, 11314, Note_on_c, 1, 64, 0
1, 11314, Note_on_c, 1, 60, 0
1, 11320, Note_on_c, 0, 72, 0
1, 11320, Note_on_c, 0, 69, 64
1, 11328, Note_on_c, 0, 69, 0
1, 11328, Note_on_c, 0, 67, 64
1, 11328, Note_on_c, 1, 62, 64
1, 11328, Note_on_c, 1, 59, 64
1, 11348, Note_on_c, 0, 67, 0
1, 11348, Note_on_c, 1, 62, 0
1, 11348, Note_on_c, 1, 59, 0
1, 11400, Note_on_c, 0, 74, 64
1, 11400, Note_on_c, 1, 62, 64
1, 11400, Note_on_c, 1, 59, 64
1, 11408, Note_on_c, 0, 74, 0
1, 11408, Note_on_c, 0, 71, 64
1, 11410, Note_on_c, 1, 62, 0
1, 11410, Note_on_c, 1, 59, 0
1, 11416, Note_on_c, 0, 71, 0
1, 11416, Note_on_c, 0, 68, 64
1, 11424, Note_on_c, 0, 68, 0
1, 11424, Note_on_c, 0, 69, 64
1, 11424, Note_on_c, 1, 64, 64
1, 11424, Note_on_c, 1, 60, 64
1, 11458, Note_on_c, 0, 69, 0
1, 11458, Note_on_c, 1, 64, 0
1, 11458, Note_on_c, 1, 60, 0
1, 11460, Note_on_c, 0, 71, 66
1, 11460, Note_on_c, 1, 66, 66
1, 11460, Note_on_c, 1, 62, 66
1, 11472, Note_on_c, 0, 71, 0
1, 11472, Note_on_c, 0, 72, 67
1, 11472, Note_on_c, 1, 66, 0
1, 11472, Note_on_c, 1, 62, 0
1, 11472, Note_on_c, 1, 67, 67
1, 11472, Note_on_c, 1, 64, 67
1, 11506, Note_on_c, 0, 72, 0
1, 11506, Note_on_c, 1, 67, 0
1, 11506, Note_on_c, 1, 64, 0
1, 11508, Note_on_c, 0, 73, 69
1, 11508, Note_on_c, 1, 70, 69
1, 11508, Note_on_c, 1, 67, 69
1, 11508, Note_on_c, 1, 64, 69
1, 11520, Note_on_c, 0, 73, 0
1, 11520, Note_on_c, 0, 74, 70
1, 11520, Note_on_c, 1, 70, 0
1, 11520, Note_on_c, 1, 67, 0
1, 11520, Note_on_c, 1, 64, 0
1, 11520, Note_on_c, 1, 71, 70
1, 11520, Note_on_c, 1, 67, 70
1, 11520, Note_on_c, 1, 62, 70
1, 11543, Note_on_c, 0, 74, 0
1, 11550, Note_on_c, 0, 75, 70
1, 11556, Note_on_c, 0, 75, 0
1, 11556, Note_on_c, 0, 76, 70
1, 11562, Note_on_c, 0, 76, 0
1, 11562, Note_on_c, 0, 77, 70
1, 11568, Note_on_c, 0, 77, 0
1, 11568, Note_on_c, 0, 78, 70
1, 11574, Note_on_c, 0, 78, 0
1, 11574, Note_on_c, 0, 79, 70
1, 11580, Note_on_c, 0, 79, 0
1, 11580, Note_on_c, 0, 80, 70
1, 11586, Note_on_c, 0, 80, 0
1, 11586, Note_on_c, 0, 81, 70
1, 11592, Note_on_c, 0, 81, 0
1, 11592, Note_on_c, 0, 82, 70
1, 11598, Note_on_c, 0, 82, 0
1, 11598, Note_on_c, 0, 83, 70
1, 11604, Note_on_c, 0, 83, 0
1, 11604, Note_on_c, 0, 84, 70
1, 11610, Note_on_c, 0, 84, 0
1, 11610, Note_on_c, 0, 85, 70
1, 11616, Note_on_c, 0, 85, 0
1, 11616, Note_on_c, 0, 86, 76
1, 11653, Note_on_c, 1, 71, 0
1, 11653, Note_on_c, 1, 67, 0
1, 11653, Note_on_c, 1, 62, 0
1, 11661, Note_on_c, 0, 86, 0
1, 11664, Note_on_c, 0, 62, 80
1, 11664, Note_on_c, 1, 50, 80
1, 11669, Note_on_c, 0, 62, 0
1, 11669, Note_on_c, 0, 63, 80
1, 11669, Note_on_c, 1, 50, 0
1, 11669, Note_on_c, 1, 51, 80
1, 11674, Note_on_c, 0, 63, 0
1, 11674, Note_on_c, 0, 64, 80
1, 11674, Note_on_c, 1, 51, 0
1, 11674, Note_on_c, 1, 52, 80
1, 11679, Note_on_c, 0, 64, 0
1, 11679, Note_on_c, 0, 65, 80
1, 11679, Note_on_c, 1, 52, 0
1, 11679, Note_on_c, 1, 53, 80
1, 11684, Note_on_c, 0, 65, 0
1, 11684, Note_on_c, 0, 66, 80
1, 11684, Note_on_c, 1, 53, 0
1, 11684, Note_on_c, 1, 54, 80
1, 11689, Note_on_c, 0, 66, 0
1, 11689, Note_on_c, 0, 67, 80
1, 11689, Note_on_c, 1, 54, 0
1, 11689, Note_on_c, 1, 55, 80
1, 11694, Note_on_c, 0, 67, 0
1, 11694, Note_on_c, 0, 68, 80
1, 11694, Note_on_c, 1, 55, 0
1, 11694, Note_on_c, 1, 56, 80
1, 11699, Note_on_c, 0, 68, 0
1, 11699, Note_on_c, 0, 69, 80
1, 11699, Note_on_c, 1, 56, 0
1, 11699, Note_on_c, 1, 57, 80
1, 11704, Note_on_c, 0, 69, 0
1, 11704, Note_on_c, 0, 70, 80
1, 11704, Note_on_c, 1, 57, 0
1, 11704, Note_on_c, 1, 58, 80
1, 11708, Note_on_c, 0, 70, 0
1, 11708, Note_on_c, 0, 71, 80
1, 11708, Note_on_c, 1, 58, 0
1, 11708, Note_on_c, 1, 59, 80
1, 11712, Note_on_c, 0, 71, 0
1, 11712, Note_on_c, 0, 72, 80
1, 11712, Note_on_c, 1, 59, 0
1, 11712, Note_on_c, 1, 60, 80
1, 11735, Note_on_c, 0, 72, 0
1, 11735, Note_on_c, 1, 60, 0
1, 11760, Note_on_c, 0, 66, 72
1, 11760, Note_on_c, 0, 60, 72
1, 11760, Note_on_c, 1, 50, 72
1, 11783, Note_on_c, 0, 66, 0
1, 11783, Note_on_c, 0, 60, 0
1, 11783, Note_on_c, 1, 50, 0
1, 11808, Note_on_c, 0, 69, 64
1, 11808, Note_on_c, 0, 60, 64
1, 11808, Note_on_c, 1, 31, 64
1, 11853, Note_on_c, 1, 31, 0
1, 11904, Note_on_c, 1, 43, 64
1, 11920, Note_on_c, 1, 43, 0
1, 11920, Note_on_c, 1, 45, 64
1, 11928, Note_on_c, 1, 45, 0
1, 11928, Note_on_c, 1, 47, 64
1, 11936, Note_on_c, 1, 47, 0
1, 11936, Note_on_c, 1, 48, 64
1, 11944, Note_on_c, 1, 48, 0
1, 11944, Note_on_c, 1, 49, 64
1, 11951, Note_on_c, 1, 49, 0
1, 11951, Note_on_c, 1, 50, 64
1, 11958, Note_on_c, 1, 50, 0
1, 11958, Note_on_c, 1, 51, 64
1, 11965, Note_on_c, 1, 51, 0
1, 11965, Note_on_c, 1, 52, 64
1, 11972, Note_on_c, 1, 52, 0
1, 11972, Note_on_c, 1, 53, 64
1, 11979, Note_on_c, 1, 53, 0
1, 11979, Note_on_c, 1, 54, 64
1, 11986, Note_on_c, 1, 54, 0
1, 11986, Note_on_c, 1, 55, 64
1, 12000, Note_on_c, 0, 69, 0
1, 12000, Note_on_c, 0, 60, 0
1, 12000, Note_on_c, 0, 67, 64
1, 12000, Note_on_c, 0, 59, 64
1, 12000, Note_on_c, 1, 55, 0
1, 12000, Note_on_c, 1, 43, 64
1, 12045, Note_on_c, 0, 67, 0
1, 12045, Note_on_c, 0, 59, 0
1, 12045, Note_on_c, 1, 43, 0
1, 12096, Note_on_c, 0, 74, 64
1, 12096, Note_on_c, 1, 71, 64
1, 12096, Note_on_c, 1, 67, 64
1, 12106, Note_on_c, 0, 74, 0
1, 12120, Note_on_c, 0, 74, 65
1, 12130, Note_on_c, 0, 74, 0
1, 12144, Note_on_c, 0, 74, 66
1, 12154, Note_on_c, 0, 74, 0
1, 12168, Note_on_c, 0, 74, 68
1, 12174, Note_on_c, 1, 71, 0
1, 12174, Note_on_c, 1, 67, 0
1, 12178, Note_on_c, 0, 74, 0
1, 12180, Note_on_c, 1, 69, 68
1, 12180, Note_on_c, 1, 66, 68
1, 12192, Note_on_c, 0, 74, 69
1, 12192, Note_on_c, 1, 69, 0
1, 12192, Note_on_c, 1, 66, 0
1, 12192, Note_on_c, 1, 72, 69
1, 12192, Note_on_c, 1, 69, 69
1, 12202, Note_on_c, 0, 74, 0
1, 12216, Note_on_c, 0, 74, 70
1, 12226, Note_on_c, 0, 74, 0
1, 12240, Note_on_c, 0, 74, 72
1, 12250, Note_on_c, 0, 74, 0
1, 12264, Note_on_c, 0, 74, 73
1, 12274, Note_on_c, 0, 74, 0
1, 12281, Note_on_c, 1, 72, 0
1, 12281, Note_on_c, 1, 69, 0
1, 12288, Note_on_c, 0, 74, 74
1, 12288, Note_on_c, 1, 69, 74
1, 12288, Note_on_c, 1, 62, 74
1, 12298, Note_on_c, 0, 74, 0
1, 12312, Note_on_c, 0, 74, 76
1, 12322, Note_on_c, 0, 74, 0
1, 12336, Note_on_c, 0, 74, 77
1, 12346, Note_on_c, 0, 74, 0
1, 12360, Note_on_c, 0, 74, 78
1, 12370, Note_on_c, 0, 74, 0
1, 12377, Note_on_c, 1, 69, 0
1, 12377, Note_on_c, 1, 62, 0
1, 12384, Note_on_c, 0, 75, 98
1, 12384, Note_on_c, 1, 71, 64
1, 12384, Note_on_c, 1, 69, 64
1, 12384, Note_on_c, 1, 66, 64
1, 12394, Note_on_c, 1, 71, 0
1, 12394, Note_on_c, 1, 69, 0
1, 12394, Note_on_c, 1, 66, 0
1, 12408, Note_on_c, 1, 71, 64
1, 12408, Note_on_c, 1, 69, 64
1, 12408, Note_on_c, 1, 66, 64
1, 12418, Note_on_c, 1, 71, 0
1, 12418, Note_on_c, 1, 69, 0
1, 12418, Note_on_c, 1, 66, 0
1, 12432, Note_on_c, 1, 71, 64
1, 12432, Note_on_c, 1, 69, 64
1, 12432, Note_on_c, 1, 66, 64
1, 12442, Note_on_c, 1, 71, 0
1, 12442, Note_on_c, 1, 69, 0
1, 12442, Note_on_c, 1, 66, 0
1, 12456, Note_on_c, 1, 71, 64
1, 12456, Note_on_c, 1, 69, 64
1, 12456, Note_on_c, 1, 66, 64
1, 12462, Note_on_c, 0, 75, 0
1, 12466, Note_on_c, 1, 71, 0
1, 12466, Note_on_c, 1, 69, 0
1, 12466, Note_on_c, 1, 66, 0
1, 12468, Note_on_c, 0, 83, 80
1, 12474, Note_on_c, 0, 83, 0
1, 12474, Note_on_c, 0, 75, 80
1, 12480, Note_on_c, 0, 75, 0
1, 12480, Note_on_c, 0, 76, 80
1, 12480, Note_on_c, 1, 71, 70
1, 12480, Note_on_c, 1, 67, 70
1, 12490, Note_on_c, 1, 71, 0
1, 12490, Note_on_c, 1, 67, 0
1, 12504, Note_on_c, 1, 71, 70
1, 12504, Note_on_c, 1, 67, 70
1, 12514, Note_on_c, 0, 76, 0
1, 12514, Note_on_c, 1, 71, 0
1, 12514, Note_on_c, 1, 67, 0
1, 12516, Note_on_c, 0, 83, 80
1, 12522, Note_on_c, 0, 83, 0
1, 12522, Note_on_c, 0, 76, 80
1, 12528, Note_on_c, 0, 76, 0
1, 12528, Note_on_c, 0, 78, 80
1, 12528, Note_on_c, 1, 71, 70
1, 12528, Note_on_c, 1, 63, 70
1, 12538, Note_on_c, 1, 71, 0
1, 12538, Note_on_c, 1, 63, 0
1, 12552, Note_on_c, 1, 71, 70
1, 12552, Note_on_c, 1, 63, 70
1, 12562, Note_on_c, 0, 78, 0
1, 12562, Note_on_c, 1, 71, 0
1, 12562, Note_on_c, 1, 63, 0
1, 12564, Note_on_c, 0, 83, 80
1, 12570, Note_on_c, 0, 83, 0
1, 12570, Note_on_c, 0, 78, 80
1, 12576, Note_on_c, 0, 78, 0
1, 12576, Note_on_c, 0, 79, 80
1, 12576, Note_on_c, 1, 71, 70
1, 12576, Note_on_c, 1, 64, 70
1, 12586, Note_on_c, 1, 71, 0
1, 12586, Note_on_c, 1, 64, 0
1, 12600, Note_on_c, 1, 71, 70
1, 12600, Note_on_c, 1, 64, 70
1, 12610, Note_on_c, 0, 79, 0
1, 12610, Note_on_c, 1, 71, 0
1, 12610, Note_on_c, 1, 64, 0
1, 12612, Note_on_c, 0, 83, 80
1, 12618, Note_on_c, 0, 83, 0
1, 12618, Note_on_c, 0, 79, 80
1, 12624, Note_on_c, 0, 79, 0
1, 12624, Note_on_c, 0, 78, 80
1, 12624, Note_on_c, 1, 71, 70
1, 12624, Note_on_c, 1, 63, 70
1, 12634, Note_on_c, 1, 71, 0
1, 12634, Note_on_c, 1, 63, 0
1, 12648, Note_on_c, 1, 71, 70
1, 12648, Note_on_c, 1, 63, 70
1, 12658, Note_on_c, 0, 78, 0
1, 12658, Note_on_c, 1, 71, 0
1, 12658, Note_on_c, 1, 63, 0
1, 12660, Note_on_c, 0, 83, 80
1, 12666, Note_on_c, 0, 83, 0
1, 12666, Note_on_c, 0, 78, 80
1, 12672, Note_on_c, 0, 78, 0
1, 12672, Note_on_c, 0, 78, 80
1, 12672, Note_on_c, 1, 67, 70
1, 12672, Note_on_c, 1, 60, 70
1, 12678, Note_on_c, 0, 78, 0
1, 12678, Note_on_c, 0, 76, 80
1, 12682, Note_on_c, 1, 67, 0
1, 12682, Note_on_c, 1, 60, 0
1, 12696, Note_on_c, 1, 67, 70
1, 12696, Note_on_c, 1, 60, 70
1, 12706, Note_on_c, 0, 76, 0
1, 12706, Note_on_c, 1, 67, 0
1, 12706, Note_on_c, 1, 60, 0
1, 12708, Note_on_c, 0, 88, 80
1, 12720, Note_on_c, 0, 88, 0
1, 12720, Note_on_c, 0, 88, 80
1, 12720, Note_on_c, 1, 68, 70
1, 12720, Note_on_c, 1, 60, 70
1, 12726, Note_on_c, 0, 88, 0
1, 12726, Note_on_c, 0, 76, 80
1, 12730, Note_on_c, 1, 68, 0
1, 12730, Note_on_c, 1, 60, 0
1, 12744, Note_on_c, 1, 68, 70
1, 12744, Note_on_c, 1, 60, 70
1, 12754, Note_on_c, 0, 76, 0
1, 12754, Note_on_c, 1, 68, 0
1, 12754, Note_on_c, 1, 60, 0
1, 12756, Note_on_c, 0, 86, 80
1, 12768, Note_on_c, 0, 86, 0
1, 12768, Note_on_c, 0, 86, 80
1, 12768, Note_on_c, 1, 69, 70
1, 12768, Note_on_c, 1, 60, 70
1, 12774, Note_on_c, 0, 86, 0
1, 12774, Note_on_c, 0, 76, 80
1, 12778, Note_on_c, 1, 69, 0
1, 12778, Note_on_c, 1, 60, 0
1, 12792, Note_on_c, 1, 69, 70
1, 12792, Note_on_c, 1, 60, 70
1, 12802, Note_on_c, 0, 76, 0
1, 12802, Note_on_c, 1, 69, 0
1, 12802, Note_on_c, 1, 60, 0
1, 12804, Note_on_c, 0, 84, 80
1, 12816, Note_on_c, 0, 84, 0
1, 12816, Note_on_c, 0, 84, 80
1, 12816, Note_on_c, 1, 71, 70
1, 12816, Note_on_c, 1, 60, 70
1, 12822, Note_on_c, 0, 84, 0
1, 12822, Note_on_c, 0, 76, 80
1, 12826, Note_on_c, 1, 71, 0
1, 12826, Note_on_c, 1, 60, 0
1, 12840, Note_on_c, 1, 71, 70
1, 12840, Note_on_c, 1, 60, 70
1, 12850, Note_on_c, 0, 76, 0
1, 12850, Note_on_c, 1, 71, 0
1, 12850, Note_on_c, 1, 60, 0
1, 12852, Note_on_c, 0, 83, 80
1, 12864, Note_on_c, 0, 83, 0
1, 12864, Note_on_c, 0, 83, 80
1, 12864, Note_on_c, 0, 76, 80
1, 12864, Note_on_c, 1, 72, 70
1, 12864, Note_on_c, 1, 60, 70
1, 12870, Note_on_c, 0, 83, 0
1, 12870, Note_on_c, 0, 82, 80
1, 12874, Note_on_c, 1, 72, 0
1, 12874, Note_on_c, 1, 60, 0
1, 12888, Note_on_c, 1, 72, 70
1, 12888, Note_on_c, 1, 60, 70
1, 12898, Note_on_c, 0, 82, 0
1, 12898, Note_on_c, 0, 76, 0
1, 12898, Note_on_c, 1, 72, 0
1, 12898, Note_on_c, 1, 60, 0
1, 12900, Note_on_c, 0, 82, 80
1, 12900, Note_on_c, 0, 79, 80
1, 12912, Note_on_c, 0, 82, 0
1, 12912, Note_on_c, 0, 82, 80
1, 12912, Note_on_c, 0, 79, 0
1, 12912, Note_on_c, 0, 78, 80
1, 12912, Note_on_c, 1, 72, 70
1, 12912, Note_on_c, 1, 60, 70
1, 12922, Note_on_c, 1, 72, 0
1, 12922, Note_on_c, 1, 60, 0
1, 12936, Note_on_c, 1, 72, 70
1, 12936, Note_on_c, 1, 60, 70
1, 12946, Note_on_c, 0, 78, 0
1, 12946, Note_on_c, 1, 72, 0
1, 12946, Note_on_c, 1, 60, 0
1, 12948, Note_on_c, 0, 76, 80
1, 12957, Note_on_c, 0, 82, 0
1, 12960, Note_on_c, 0, 83, 80
1, 12960, Note_on_c, 0, 76, 0
1, 12960, Note_on_c, 0, 76, 80
1, 12960, Note_on_c, 1, 59, 70
1, 12994, Note_on_c, 0, 76, 0
1, 12996, Note_on_c, 0, 75, 80
1, 13008, Note_on_c, 0, 75, 0
1, 13008, Note_on_c, 0, 78, 80
1, 13042, Note_on_c, 0, 78, 0
1, 13044, Note_on_c, 0, 75, 80
1, 13056, Note_on_c, 0, 75, 0
1, 13056, Note_on_c, 0, 71, 80
1, 13101, Note_on_c, 0, 83, 0
1, 13101, Note_on_c, 0, 71, 0
1, 13101, Note_on_c, 1, 59, 0
1, 13140, Note_on_c, 0, 60, 64
1, 13140, Note_on_c, 1, 48, 64
1, 13152, Note_on_c, 0, 60, 0
1, 13152, Note_on_c, 0, 60, 64
1, 13152, Note_on_c, 1, 48, 0
1, 13152, Note_on_c, 1, 48, 64
1, 13158, Note_on_c, 0, 60, 0
1, 13158, Note_on_c, 0, 59, 64
1, 13158, Note_on_c, 1, 48, 0
1, 13158, Note_on_c, 1, 47, 64
1, 13186, Note_on_c, 0, 59, 0
1, 13186, Note_on_c, 1, 47, 0
1, 13188, Note_on_c, 0, 57, 64
1, 13188, Note_on_c, 1, 45, 64
1, 13200, Note_on_c, 0, 57, 0
1, 13200, Note_on_c, 0, 57, 64
1, 13200, Note_on_c, 1, 45, 0
1, 13200, Note_on_c, 1, 45, 64
1, 13206, Note_on_c, 0, 57, 0
1, 13206, Note_on_c, 0, 55, 64
1, 13206, Note_on_c, 1, 45, 0
1, 13206, Note_on_c, 1, 43, 64
1, 13234, Note_on_c, 0, 55, 0
1, 13234, Note_on_c, 1, 43, 0
1, 13236, Note_on_c, 0, 54, 64
1, 13236, Note_on_c, 1, 42, 64
1, 13248, Note_on_c, 0, 54, 0
1, 13248, Note_on_c, 0, 52, 80
1, 13248, Note_on_c, 1, 42, 0
1, 13248, Note_on_c, 1, 40, 80
1, 13326, Note_on_c, 0, 52, 0
1, 13326, Note_on_c, 1, 40, 0
1, 13332, Note_on_c, 0, 51, 80
1, 13332, Note_on_c, 1, 39, 80
1, 13344, Note_on_c, 0, 51, 0
1, 13344, Note_on_c, 0, 54, 80
1, 13344, Note_on_c, 1, 39, 0
1, 13344, Note_on_c, 1, 42, 80
1, 13378, Note_on_c, 0, 54, 0
1, 13378, Note_on_c, 1, 42, 0
1, 13380, Note_on_c, 0, 52, 80
1, 13380, Note_on_c, 1, 40, 80
1, 13392, Note_on_c, 0, 52, 0
1, 13392, Note_on_c, 0, 55, 80
1, 13392, Note_on_c, 1, 40, 0
1, 13392, Note_on_c, 1, 43, 80
1, 13426, Note_on_c, 0, 55, 0
1, 13426, Note_on_c, 1, 43, 0
1, 13428, Note_on_c, 0, 54, 80
1, 13428, Note_on_c, 1, 42, 80
1, 13440, Note_on_c, 0, 54, 0
1, 13440, Note_on_c, 0, 57, 80
1, 13440, Note_on_c, 1, 42, 0
1, 13440, Note_on_c, 1, 45, 80
1, 13474, Note_on_c, 0, 57, 0
1, 13474, Note_on_c, 1, 45, 0
1, 13476, Note_on_c, 0, 55, 80
1, 13476, Note_on_c, 1, 43, 80
1, 13488, Note_on_c, 0, 55, 0
1, 13488, Note_on_c, 0, 59, 80
1, 13488, Note_on_c, 1, 43, 0
1, 13488, Note_on_c, 1, 47, 80
1, 13522, Note_on_c, 0, 59, 0
1, 13522, Note_on_c, 1, 47, 0
1, 13524, Note_on_c, 0, 57, 80
1, 13524, Note_on_c, 1, 45, 80
1, 13536, Note_on_c, 0, 57, 0
1, 13536, Note_on_c, 0, 60, 80
1, 13536, Note_on_c, 1, 45, 0
1, 13536, Note_on_c, 1, 48, 80
1, 13625, Note_on_c, 0, 60, 0
1, 13625, Note_on_c, 1, 48, 0
1, 13632, Note_on_c, 0, 51, 80
1, 13632, Note_on_c, 1, 39, 80
1, 13721, Note_on_c, 0, 51, 0
1, 13721, Note_on_c, 1, 39, 0
1, 13728, Note_on_c, 0, 59, 80
1, 13728, Note_on_c, 1, 47, 80
1, 13762, Note_on_c, 0, 59, 0
1, 13762, Note_on_c, 1, 47, 0
1, 13764, Note_on_c, 0, 50, 80
1, 13764, Note_on_c, 1, 38, 80
1, 13776, Note_on_c, 0, 50, 0
1, 13776, Note_on_c, 0, 58, 80
1, 13776, Note_on_c, 1, 38, 0
1, 13776, Note_on_c, 1, 46, 80
1, 13810, Note_on_c, 0, 58, 0
1, 13810, Note_on_c, 1, 46, 0
1, 13812, Note_on_c, 0, 49, 80
1, 13812, Note_on_c, 1, 37, 80
1, 13824, Note_on_c, 0, 49, 0
1, 13824, Note_on_c, 0, 57, 80
1, 13824, Note_on_c, 1, 37, 0
1, 13824, Note_on_c, 1, 45, 80
1, 13913, Note_on_c, 0, 57, 0
1, 13913, Note_on_c, 1, 45, 0
1, 13920, Note_on_c, 0, 48, 80
1, 13920, Note_on_c, 1, 36, 80
1, 14009, Note_on_c, 0, 48, 0
1, 14009, Note_on_c, 1, 36, 0
1, 14016, Note_on_c, 0, 57, 80
1, 14016, Note_on_c, 1, 45, 80
1, 14050, Note_on_c, 0, 57, 0
1, 14050, Note_on_c, 1, 45, 0
1, 14052, Note_on_c, 0, 47, 80
1, 14052, Note_on_c, 1, 35, 80
1, 14064, Note_on_c, 0, 47, 0
1, 14064, Note_on_c, 0, 57, 80
1, 14064, Note_on_c, 1, 35, 0
1, 14064, Note_on_c, 1, 45, 80
1, 14098, Note_on_c, 0, 57, 0
1, 14098, Note_on_c, 1, 45, 0
1, 14100, Note_on_c, 0, 47, 80
1, 14100, Note_on_c, 1, 35, 80
1, 14112, Note_on_c, 0, 47, 0
1, 14112, Note_on_c, 0, 57, 80
1, 14112, Note_on_c, 1, 35, 0
1, 14112, Note_on_c, 1, 45, 80
1, 14124, Note_on_c, 0, 57, 0
1, 14124, Note_on_c, 0, 47, 80
1, 14124, Note_on_c, 1, 45, 0
1, 14124, Note_on_c, 1, 35, 80
1, 14136, Note_on_c, 0, 47, 0
1, 14136, Note_on_c, 0, 51, 80
1, 14136, Note_on_c, 1, 35, 0
1, 14136, Note_on_c, 1, 39, 80
1, 14148, Note_on_c, 0, 51, 0
1, 14148, Note_on_c, 0, 54, 80
1, 14148, Note_on_c, 1, 39, 0
1, 14148, Note_on_c, 1, 42, 80
1, 14160, Note_on_c, 0, 54, 0
1, 14160, Note_on_c, 0, 57, 80
1, 14160, Note_on_c, 1, 42, 0
1, 14160, Note_on_c, 1, 45, 80
1, 14172, Note_on_c, 0, 57, 0
1, 14172, Note_on_c, 0, 60, 80
1, 14172, Note_on_c, 1, 45, 0
1, 14172, Note_on_c, 1, 48, 80
1, 14184, Note_on_c, 0, 60, 0
1, 14184, Note_on_c, 0, 63, 80
1, 14184, Note_on_c, 1, 48, 0
1, 14184, Note_on_c, 1, 51, 80
1, 14196, Note_on_c, 0, 63, 0
1, 14196, Note_on_c, 0, 66, 80
1, 14196, Note_on_c, 1, 51, 0
1, 14196, Note_on_c, 1, 54, 80
1, 14208, Note_on_c, 0, 66, 0
1, 14208, Note_on_c, 0, 69, 80
1, 14208, Note_on_c, 1, 54, 0
1, 14208, Note_on_c, 1, 57, 80
1, 14220, Note_on_c, 0, 69, 0
1, 14220, Note_on_c, 0, 72, 80
1, 14220, Note_on_c, 1, 57, 0
1, 14220, Note_on_c, 1, 60, 80
1, 14232, Note_on_c, 0, 72, 0
1, 14232, Note_on_c, 0, 75, 80
1, 14232, Note_on_c, 1, 60, 0
1, 14232, Note_on_c, 1, 63, 80
1, 14244, Note_on_c, 0, 75, 0
1, 14244, Note_on_c, 0, 78, 80
1, 14244, Note_on_c, 1, 63, 0
1, 14244, Note_on_c, 1, 66, 80
1, 14256, Note_on_c, 0, 78, 0
1, 14256, Note_on_c, 0, 81, 80
1, 14256, Note_on_c, 1, 66, 0
1, 14256, Note_on_c, 1, 69, 80
1, 14266, Note_on_c, 0, 81, 0
1, 14266, Note_on_c, 1, 69, 0
1, 14280, Note_on_c, 0, 84, 80
1, 14280, Note_on_c, 1, 72, 80
1, 14290, Note_on_c, 0, 84, 0
1, 14290, Note_on_c, 1, 72, 0
1, 14304, Note_on_c, 0, 87, 80
1, 14304, Note_on_c, 1, 75, 80
1, 14314, Note_on_c, 0, 87, 0
1, 14314, Note_on_c, 1, 75, 0
1, 14400, Note_on_c, 0, 64, 64
1, 14400, Note_on_c, 1, 56, 64
1, 14400, Note_on_c, 1, 52, 64
1, 14478, Note_on_c, 0, 64, 0
1, 14478, Note_on_c, 1, 56, 0
1, 14484, Note_on_c, 0, 63, 64
1, 14484, Note_on_c, 1, 54, 64
1, 14496, Note_on_c, 0, 63, 0
1, 14496, Note_on_c, 0, 66, 64
1, 14496, Note_on_c, 1, 54, 0
1, 14496, Note_on_c, 1, 57, 64
1, 14585, Note_on_c, 0, 66, 0
1, 14592, Note_on_c, 0, 59, 64
1, 14665, Note_on_c, 1, 52, 0
1, 14670, Note_on_c, 0, 59, 0
1, 14673, Note_on_c, 1, 57, 0
1, 14676, Note_on_c, 0, 59, 64
1, 14688, Note_on_c, 0, 59, 0
1, 14688, Note_on_c, 0, 52, 64
1, 14688, Note_on_c, 1, 56, 64
1, 14688, Note_on_c, 1, 52, 64
1, 14694, Note_on_c, 0, 52, 0
1, 14694, Note_on_c, 0, 56, 64
1, 14700, Note_on_c, 0, 56, 0
1, 14700, Note_on_c, 0, 59, 64
1, 14706, Note_on_c, 0, 59, 0
1, 14706, Note_on_c, 0, 64, 64
1, 14712, Note_on_c, 0, 64, 0
1, 14712, Note_on_c, 0, 68, 64
1, 14718, Note_on_c, 0, 68, 0
1, 14718, Note_on_c, 0, 71, 64
1, 14766, Note_on_c, 0, 71, 0
1, 14766, Note_on_c, 1, 56, 0
1, 14772, Note_on_c, 0, 69, 64
1, 14772, Note_on_c, 1, 54, 64
1, 14784, Note_on_c, 0, 69, 0
1, 14784, Note_on_c, 0, 73, 64
1, 14784, Note_on_c, 1, 54, 0
1, 14784, Note_on_c, 1, 57, 64
1, 14873, Note_on_c, 0, 73, 0
1, 14880, Note_on_c, 0, 66, 69
1, 14880, Note_on_c, 0, 63, 69
1, 14953, Note_on_c, 1, 52, 0
1, 14961, Note_on_c, 1, 57, 0
1, 14969, Note_on_c, 0, 66, 0
1, 14969, Note_on_c, 0, 63, 0
1, 14976, Note_on_c, 0, 64, 74
1, 14976, Note_on_c, 1, 52, 74
1, 14979, Note_on_c, 0, 68, 74
1, 14980, Note_on_c, 1, 56, 74
1, 14982, Note_on_c, 0, 71, 74
1, 14984, Note_on_c, 1, 59, 74
1, 14985, Note_on_c, 0, 76, 74
1, 15023, Note_on_c, 1, 59, 0
1, 15023, Note_on_c, 1, 56, 0
1, 15023, Note_on_c, 1, 52, 0
1, 15060, Note_on_c, 0, 76, 0
1, 15060, Note_on_c, 0, 71, 0
1, 15060, Note_on_c, 0, 68, 0
1, 15060, Note_on_c, 0, 64, 0
1, 15060, Note_on_c, 0, 75, 78
1, 15060, Note_on_c, 1, 57, 78
1, 15060, Note_on_c, 1, 54, 78
1, 15072, Note_on_c, 0, 75, 0
1, 15072, Note_on_c, 0, 71, 78
1, 15072, Note_on_c, 1, 57, 0
1, 15072, Note_on_c, 1, 54, 0
1, 15072, Note_on_c, 1, 51, 78
1, 15075, Note_on_c, 0, 75, 78
1, 15076, Note_on_c, 1, 54, 78
1, 15078, Note_on_c, 0, 78, 78
1, 15080, Note_on_c, 1, 59, 78
1, 15081, Note_on_c, 0, 81, 78
1, 15119, Note_on_c, 1, 59, 0
1, 15119, Note_on_c, 1, 54, 0
1, 15119, Note_on_c, 1, 51, 0
1, 15120, Note_on_c, 0, 78, 0
1, 15120, Note_on_c, 0, 75, 0
1, 15120, Note_on_c, 0, 71, 0
1, 15154, Note_on_c, 0, 81, 0
1, 15156, Note_on_c, 0, 80, 80
1, 15156, Note_on_c, 0, 76, 80
1, 15156, Note_on_c, 1, 59, 80
1, 15156, Note_on_c, 1, 52, 80
1, 15162, Note_on_c, 0, 73, 80
1, 15168, Note_on_c, 0, 80, 0
1, 15168, Note_on_c, 0, 76, 0
1, 15168, Note_on_c, 0, 85, 80
1, 15168, Note_on_c, 0, 81, 80
1, 15168, Note_on_c, 0, 73, 0
1, 15168, Note_on_c, 1, 59, 0
1, 15168, Note_on_c, 1, 52, 0
1, 15168, Note_on_c, 1, 57, 80
1, 15168, Note_on_c, 1, 52, 80
1, 15168, Note_on_c, 1, 49, 80
1, 15168, Note_on_c, 1, 45, 80
1, 15178, Note_on_c, 0, 85, 0
1, 15178, Note_on_c, 0, 81, 0
1, 15204, Note_on_c, 0, 83, 80
1, 15204, Note_on_c, 0, 80, 80
1, 15210, Note_on_c, 0, 83, 80
1, 15210, Note_on_c, 0, 80, 80
1, 15213, Note_on_c, 1, 57, 0
1, 15213, Note_on_c, 1, 52, 0
1, 15213, Note_on_c, 1, 49, 0
1, 15213, Note_on_c, 1, 45, 0
1, 15216, Note_on_c, 0, 83, 0
1, 15216, Note_on_c, 0, 80, 0
1, 15216, Note_on_c, 0, 81, 80
1, 15216, Note_on_c, 0, 78, 80
1, 15216, Note_on_c, 0, 83, 0
1, 15216, Note_on_c, 0, 80, 0
1, 15255, Note_on_c, 0, 81, 0
1, 15255, Note_on_c, 0, 78, 0
1, 15258, Note_on_c, 0, 80, 80
1, 15258, Note_on_c, 0, 76, 80
1, 15264, Note_on_c, 0, 80, 0
1, 15264, Note_on_c, 0, 76, 0
1, 15264, Note_on_c, 0, 81, 80
1, 15264, Note_on_c, 0, 76, 80
1, 15264, Note_on_c, 1, 47, 80
1, 15270, Note_on_c, 0, 81, 0
1, 15270, Note_on_c, 0, 80, 80
1, 15276, Note_on_c, 0, 80, 0
1, 15276, Note_on_c, 0, 78, 80
1, 15282, Note_on_c, 0, 78, 0
1, 15282, Note_on_c, 0, 80, 80
1, 15298, Note_on_c, 0, 80, 0
1, 15300, Note_on_c, 0, 81, 80
1, 15312, Note_on_c, 0, 81, 0
1, 15312, Note_on_c, 0, 82, 80
1, 15346, Note_on_c, 0, 82, 0
1, 15348, Note_on_c, 0, 83, 80
1, 15353, Note_on_c, 0, 76, 0
1, 15353, Note_on_c, 1, 47, 0
1, 15360, Note_on_c, 0, 83, 0
1, 15360, Note_on_c, 0, 78, 80
1, 15360, Note_on_c, 0, 75, 80
1, 15360, Note_on_c, 1, 59, 80
1, 15405, Note_on_c, 0, 78, 0
1, 15405, Note_on_c, 0, 75, 0
1, 15432, Note_on_c, 0, 76, 96
1, 15432, Note_on_c, 0, 73, 96
1, 15449, Note_on_c, 1, 59, 0
1, 15450, Note_on_c, 0, 76, 80
1, 15450, Note_on_c, 0, 73, 80
1, 15453, Note_on_c, 0, 76, 0
1, 15453, Note_on_c, 0, 73, 0
1, 15456, Note_on_c, 0, 76, 0
1, 15456, Note_on_c, 0, 73, 0
1, 15456, Note_on_c, 0, 75, 75
1, 15456, Note_on_c, 0, 71, 75
1, 15463, Note_on_c, 0, 75, 0
1, 15463, Note_on_c, 0, 71, 0
1, 15472, Note_on_c, 0, 73, 73
1, 15472, Note_on_c, 0, 69, 73
1, 15479, Note_on_c, 0, 73, 0
1, 15479, Note_on_c, 0, 69, 0
1, 15488, Note_on_c, 0, 71, 72
1, 15488, Note_on_c, 0, 68, 72
1, 15495, Note_on_c, 0, 71, 0
1, 15495, Note_on_c, 0, 68, 0
1, 15498, Note_on_c, 0, 71, 80
1, 15498, Note_on_c, 0, 68, 80
1, 15501, Note_on_c, 0, 71, 0
1, 15501, Note_on_c, 0, 68, 0
1, 15504, Note_on_c, 0, 69, 70
1, 15504, Note_on_c, 0, 66, 70
1, 15511, Note_on_c, 0, 69, 0
1, 15511, Note_on_c, 0, 66, 0
1, 15520, Note_on_c, 0, 68, 69
1, 15520, Note_on_c, 0, 64, 69
1, 15527, Note_on_c, 0, 68, 0
1, 15527, Note_on_c, 0, 64, 0
1, 15536, Note_on_c, 0, 66, 68
1, 15536, Note_on_c, 0, 63, 68
1, 15543, Note_on_c, 0, 66, 0
1, 15543, Note_on_c, 0, 63, 0
1, 15552, Note_on_c, 0, 64, 64
1, 15552, Note_on_c, 1, 56, 64
1, 15552, Note_on_c, 1, 52, 64
1, 15597, Note_on_c, 0, 64, 0
1, 15597, Note_on_c, 1, 56, 0
1, 15600, Note_on_c, 0, 63, 64
1, 15600, Note_on_c, 1, 54, 64
1, 15615, Note_on_c, 0, 63, 0
1, 15615, Note_on_c, 1, 54, 0
1, 15616, Note_on_c, 0, 64, 64
1, 15616, Note_on_c, 1, 55, 64
1, 15631, Note_on_c, 0, 64, 0
1, 15631, Note_on_c, 1, 55, 0
1, 15632, Note_on_c, 0, 65, 64
1, 15632, Note_on_c, 1, 56, 64
1, 15641, Note_on_c, 1, 52, 0
1, 15647, Note_on_c, 0, 65, 0
1, 15647, Note_on_c, 1, 56, 0
1, 15648, Note_on_c, 0, 66, 64
1, 15648, Note_on_c, 1, 57, 64
1, 15648, Note_on_c, 1, 52, 64
1, 15737, Note_on_c, 0, 66, 0
1, 15744, Note_on_c, 0, 59, 64
1, 15759, Note_on_c, 0, 59, 0
1, 15760, Note_on_c, 0, 63, 64
1, 15775, Note_on_c, 0, 63, 0
1, 15776, Note_on_c, 0, 66, 64
1, 15791, Note_on_c, 0, 66, 0
1, 15792, Note_on_c, 0, 68, 64
1, 15807, Note_on_c, 0, 68, 0
1, 15808, Note_on_c, 0, 69, 64
1, 15823, Note_on_c, 0, 69, 0
1, 15824, Note_on_c, 0, 63, 64
1, 15825, Note_on_c, 1, 57, 0
1, 15825, Note_on_c, 1, 52, 0
1, 15839, Note_on_c, 0, 63, 0
1, 15840, Note_on_c, 0, 71, 64
1, 15840, Note_on_c, 1, 56, 64
1, 15840, Note_on_c, 1, 52, 64
1, 15885, Note_on_c, 0, 71, 0
1, 15885, Note_on_c, 1, 56, 0
1, 15888, Note_on_c, 0, 69, 65
1, 15888, Note_on_c, 1, 54, 66
1, 15903, Note_on_c, 0, 69, 0
1, 15903, Note_on_c, 1, 54, 0
1, 15904, Note_on_c, 0, 70, 66
1, 15904, Note_on_c, 1, 55, 67
1, 15919, Note_on_c, 0, 70, 0
1, 15919, Note_on_c, 1, 55, 0
1, 15920, Note_on_c, 0, 71, 66
1, 15920, Note_on_c, 1, 56, 68
1, 15929, Note_on_c, 1, 52, 0
1, 15935, Note_on_c, 0, 71, 0
1, 15935, Note_on_c, 1, 56, 0
1, 15936, Note_on_c, 0, 72, 67
1, 15936, Note_on_c, 1, 57, 68
1, 15936, Note_on_c, 1, 51, 68
1, 16020, Note_on_c, 0, 72, 0
1, 16020, Note_on_c, 0, 66, 70
1, 16025, Note_on_c, 1, 57, 0
1, 16025, Note_on_c, 1, 51, 0
1, 16032, Note_on_c, 0, 66, 0
1, 16032, Note_on_c, 0, 66, 71
1, 16032, Note_on_c, 1, 57, 74
1, 16032, Note_on_c, 1, 54, 74
1, 16032, Note_on_c, 1, 49, 74
1, 16044, Note_on_c, 0, 66, 0
1, 16044, Note_on_c, 0, 73, 71
1, 16116, Note_on_c, 0, 73, 0
1, 16116, Note_on_c, 0, 66, 75
1, 16121, Note_on_c, 1, 57, 0
1, 16121, Note_on_c, 1, 54, 0
1, 16121, Note_on_c, 1, 49, 0
1, 16128, Note_on_c, 0, 66, 0
1, 16128, Note_on_c, 0, 75, 80
1, 16128, Note_on_c, 0, 68, 80
1, 16128, Note_on_c, 0, 66, 80
1, 16128, Note_on_c, 1, 60, 80
1, 16128, Note_on_c, 1, 56, 80
1, 16128, Note_on_c, 1, 51, 80
1, 16128, Note_on_c, 1, 48, 80
1, 16206, Note_on_c, 0, 75, 0
1, 16212, Note_on_c, 0, 68, 80
1, 16217, Note_on_c, 0, 68, 0
1, 16217, Note_on_c, 0, 66, 0
1, 16217, Note_on_c, 1, 60, 0
1, 16217, Note_on_c, 1, 56, 0
1, 16217, Note_on_c, 1, 51, 0
1, 16217, Note_on_c, 1, 48, 0
1, 16224, Note_on_c, 0, 68, 0
1, 16224, Note_on_c, 0, 49, 80
1, 16231, Note_on_c, 0, 49, 0
1, 16231, Note_on_c, 0, 52, 79
1, 16238, Note_on_c, 0, 52, 0
1, 16238, Note_on_c, 0, 56, 79
1, 16245, Note_on_c, 0, 56, 0
1, 16245, Note_on_c, 0, 61, 78
1, 16252, Note_on_c, 0, 61, 0
1, 16252, Note_on_c, 0, 64, 78
1, 16259, Note_on_c, 0, 64, 0
1, 16259, Note_on_c, 0, 68, 77
1, 16266, Note_on_c, 0, 68, 0
1, 16266, Note_on_c, 0, 73, 77
1, 16272, Note_on_c, 0, 73, 0
1, 16272, Note_on_c, 0, 76, 76
1, 16278, Note_on_c, 0, 76, 0
1, 16278, Note_on_c, 0, 80, 76
1, 16284, Note_on_c, 0, 80, 0
1, 16284, Note_on_c, 0, 85, 75
1, 16290, Note_on_c, 0, 85, 0
1, 16290, Note_on_c, 0, 88, 75
1, 16296, Note_on_c, 0, 88, 0
1, 16296, Note_on_c, 0, 85, 74
1, 16302, Note_on_c, 0, 85, 0
1, 16302, Note_on_c, 0, 80, 74
1, 16308, Note_on_c, 0, 80, 0
1, 16308, Note_on_c, 0, 76, 73
1, 16314, Note_on_c, 0, 76, 0
1, 16314, Note_on_c, 0, 73, 73
1, 16320, Note_on_c, 0, 71, 67
1, 16320, Note_on_c, 0, 73, 0
1, 16320, Note_on_c, 1, 63, 67
1, 16320, Note_on_c, 1, 54, 67
1, 16330, Note_on_c, 0, 71, 0
1, 16343, Note_on_c, 1, 63, 0
1, 16343, Note_on_c, 1, 54, 0
1, 16368, Note_on_c, 0, 70, 64
1, 16368, Note_on_c, 0, 64, 64
1, 16368, Note_on_c, 1, 61, 64
1, 16368, Note_on_c, 1, 54, 64
1, 16391, Note_on_c, 0, 70, 0
1, 16391, Note_on_c, 0, 64, 0
1, 16391, Note_on_c, 1, 61, 0
1, 16391, Note_on_c, 1, 54, 0
1, 16416, Note_on_c, 0, 73, 64
1, 16416, Note_on_c, 0, 70, 64
1, 16416, Note_on_c, 0, 64, 64
1, 16416, Note_on_c, 1, 47, 64
1, 16494, Note_on_c, 0, 64, 0
1, 16500, Note_on_c, 0, 66, 64
1, 16512, Note_on_c, 0, 73, 0
1, 16512, Note_on_c, 0, 70, 0
1, 16512, Note_on_c, 0, 71, 64
1, 16512, Note_on_c, 0, 66, 0
1, 16512, Note_on_c, 0, 63, 64
1, 16557, Note_on_c, 1, 47, 0
1, 16560, Note_on_c, 1, 51, 64
1, 16566, Note_on_c, 1, 51, 0
1, 16566, Note_on_c, 1, 54, 68
1, 16572, Note_on_c, 1, 54, 0
1, 16572, Note_on_c, 1, 59, 72
1, 16578, Note_on_c, 1, 59, 0
1, 16578, Note_on_c, 1, 54, 76
1, 16584, Note_on_c, 1, 54, 0
1, 16584, Note_on_c, 1, 51, 80
1, 16590, Note_on_c, 0, 71, 0
1, 16590, Note_on_c, 0, 63, 0
1, 16590, Note_on_c, 1, 51, 0
1, 16590, Note_on_c, 1, 47, 78
1, 16596, Note_on_c, 1, 47, 0
1, 16596, Note_on_c, 1, 42, 77
1, 16602, Note_on_c, 1, 42, 0
1, 16602, Note_on_c, 1, 39, 76
1, 16608, Note_on_c, 1, 39, 0
1, 16608, Note_on_c, 1, 35, 74
1, 16653, Note_on_c, 1, 35, 0
1, 16704, Note_on_c, 0, 72, 64
1, 16704, Note_on_c, 1, 66, 64
1, 16704, Note_on_c, 1, 63, 64
1, 16704, Note_on_c, 1, 57, 64
1, 16788, Note_on_c, 0, 72, 0
1, 16788, Note_on_c, 0, 71, 64
1, 16800, Note_on_c, 0, 71, 0
1, 16800, Note_on_c, 0, 71, 64
1, 16806, Note_on_c, 0, 71, 0
1, 16806, Note_on_c, 0, 78, 64
1, 16881, Note_on_c, 1, 66, 0
1, 16881, Note_on_c, 1, 63, 0
1, 16881, Note_on_c, 1, 57, 0
1, 16884, Note_on_c, 0, 78, 0
1, 16884, Note_on_c, 0, 71, 64
1, 16896, Note_on_c, 0, 71, 0
1, 16896, Note_on_c, 0, 71, 64
1, 16896, Note_on_c, 1, 64, 64
1, 16896, Note_on_c, 1, 59, 64
1, 16896, Note_on_c, 1, 55, 64
1, 16902, Note_on_c, 0, 71, 0
1, 16902, Note_on_c, 0, 79, 64
1, 16980, Note_on_c, 0, 79, 0
1, 16980, Note_on_c, 0, 71, 83
1, 16985, Note_on_c, 1, 64, 0
1, 16985, Note_on_c, 1, 59, 0
1, 16985, Note_on_c, 1, 55, 0
1, 16992, Note_on_c, 0, 71, 0
1, 16992, Note_on_c, 0, 71, 86
1, 16992, Note_on_c, 1, 65, 86
1, 16992, Note_on_c, 1, 62, 86
1, 16992, Note_on_c, 1, 59, 86
1, 16992, Note_on_c, 1, 55, 86
1, 16998, Note_on_c, 0, 71, 0
1, 16998, Note_on_c, 0, 81, 86
1, 16998, Note_on_c, 0, 77, 86
1, 16998, Note_on_c, 0, 74, 86
1, 16998, Note_on_c, 0, 71, 86
1, 17070, Note_on_c, 1, 65, 0
1, 17070, Note_on_c, 1, 62, 0
1, 17070, Note_on_c, 1, 59, 0
1, 17070, Note_on_c, 1, 55, 0
1, 17076, Note_on_c, 1, 59, 86
1, 17076, Note_on_c, 1, 55, 86
1, 17081, Note_on_c, 0, 81, 0
1, 17081, Note_on_c, 0, 77, 0
1, 17081, Note_on_c, 0, 74, 0
1, 17081, Note_on_c, 0, 71, 0
1, 17088, Note_on_c, 0, 77, 86
1, 17088, Note_on_c, 0, 74, 86
1, 17088, Note_on_c, 0, 71, 86
1, 17088, Note_on_c, 0, 67, 86
1, 17088, Note_on_c, 1, 59, 0
1, 17088, Note_on_c, 1, 55, 0
1, 17088, Note_on_c, 1, 62, 86
1, 17088, Note_on_c, 1, 59, 86
1, 17166, Note_on_c, 1, 62, 0
1, 17166, Note_on_c, 1, 59, 0
1, 17172, Note_on_c, 1, 59, 86
1, 17172, Note_on_c, 1, 55, 86
1, 17177, Note_on_c, 0, 77, 0
1, 17177, Note_on_c, 0, 74, 0
1, 17177, Note_on_c, 0, 71, 0
1, 17177, Note_on_c, 0, 67, 0
1, 17184, Note_on_c, 0, 76, 86
1, 17184, Note_on_c, 0, 72, 86
1, 17184, Note_on_c, 0, 67, 64
1, 17184, Note_on_c, 1, 59, 0
1, 17184, Note_on_c, 1, 55, 0
1, 17184, Note_on_c, 1, 64, 86
1, 17184, Note_on_c, 1, 60, 86
1, 17262, Note_on_c, 0, 76, 0
1, 17262, Note_on_c, 0, 72, 0
1, 17262, Note_on_c, 1, 64, 0
1, 17262, Note_on_c, 1, 60, 0
1, 17268, Note_on_c, 0, 74, 86
1, 17268, Note_on_c, 1, 65, 86
1, 17268, Note_on_c, 1, 62, 86
1, 17273, Note_on_c, 0, 67, 0
1, 17280, Note_on_c, 0, 74, 0
1, 17280, Note_on_c, 0, 74, 86
1, 17280, Note_on_c, 1, 65, 0
1, 17280, Note_on_c, 1, 62, 0
1, 17280, Note_on_c, 1, 67, 86
1, 17280, Note_on_c, 1, 64, 86
1, 17358, Note_on_c, 0, 74, 0
1, 17364, Note_on_c, 0, 72, 86
1, 17369, Note_on_c, 1, 67, 0
1, 17369, Note_on_c, 1, 64, 0
1, 17370, Note_on_c, 0, 72, 0
1, 17370, Note_on_c, 0, 84, 86
1, 17376, Note_on_c, 0, 84, 0
1, 17376, Note_on_c, 0, 72, 86
1, 17376, Note_on_c, 1, 65, 86
1, 17376, Note_on_c, 1, 62, 86
1, 17454, Note_on_c, 0, 72, 0
1, 17460, Note_on_c, 0, 71, 81
1, 17465, Note_on_c, 1, 65, 0
1, 17465, Note_on_c, 1, 62, 0
1, 17466, Note_on_c, 0, 71, 0
1, 17466, Note_on_c, 0, 83, 80
1, 17472, Note_on_c, 0, 83, 0
1, 17472, Note_on_c, 0, 71, 80
1, 17472, Note_on_c, 1, 64, 81
1, 17472, Note_on_c, 1, 60, 81
1, 17550, Note_on_c, 0, 71, 0
1, 17556, Note_on_c, 0, 70, 75
1, 17561, Note_on_c, 1, 64, 0
1, 17561, Note_on_c, 1, 60, 0
1, 17562, Note_on_c, 0, 70, 0
1, 17562, Note_on_c, 0, 82, 75
1, 17568, Note_on_c, 0, 82, 0
1, 17568, Note_on_c, 0, 70, 75
1, 17568, Note_on_c, 1, 64, 77
1, 17568, Note_on_c, 1, 59, 64
1, 17664, Note_on_c, 1, 64, 0
1, 17664, Note_on_c, 1, 63, 72
1, 17701, Note_on_c, 0, 70, 0
1, 17712, Note_on_c, 0, 71, 66
1, 17757, Note_on_c, 0, 71, 0
1, 17760, Note_on_c, 0, 69, 64
1, 17805, Note_on_c, 0, 69, 0
1, 17808, Note_on_c, 0, 66, 64
1, 17833, Note_on_c, 1, 59, 0
1, 17841, Note_on_c, 1, 63, 0
1, 17853, Note_on_c, 0, 66, 0
1, 17856, Note_on_c, 0, 64, 64
1, 17856, Note_on_c, 1, 56, 64
1, 17856, Note_on_c, 1, 52, 64
1, 17934, Note_on_c, 0, 64, 0
1, 17934, Note_on_c, 1, 56, 0
1, 17940, Note_on_c, 0, 63, 64
1, 17940, Note_on_c, 1, 54, 64
1, 17952, Note_on_c, 0, 63, 0
1, 17952, Note_on_c, 0, 66, 64
1, 17952, Note_on_c, 1, 54, 0
1, 17952, Note_on_c, 1, 57, 64
1, 18041, Note_on_c, 0, 66, 0
1, 18048, Note_on_c, 0, 59, 64
1, 18053, Note_on_c, 0, 59, 0
1, 18060, Note_on_c, 0, 61, 64
1, 18065, Note_on_c, 0, 61, 0
1, 18072, Note_on_c, 0, 63, 64
1, 18077, Note_on_c, 0, 63, 0
1, 18084, Note_on_c, 0, 64, 64
1, 18089, Note_on_c, 0, 64, 0
1, 18096, Note_on_c, 0, 66, 64
1, 18101, Note_on_c, 0, 66, 0
1, 18108, Note_on_c, 0, 68, 64
1, 18113, Note_on_c, 0, 68, 0
1, 18120, Note_on_c, 0, 69, 64
1, 18121, Note_on_c, 1, 52, 0
1, 18125, Note_on_c, 0, 69, 0
1, 18129, Note_on_c, 1, 57, 0
1, 18132, Note_on_c, 0, 70, 64
1, 18137, Note_on_c, 0, 70, 0
1, 18144, Note_on_c, 0, 71, 64
1, 18144, Note_on_c, 1, 64, 64
1, 18144, Note_on_c, 1, 56, 64
1, 18154, Note_on_c, 0, 71, 0
1, 18168, Note_on_c, 0, 71, 66
1, 18178, Note_on_c, 0, 71, 0
1, 18192, Note_on_c, 0, 71, 68
1, 18202, Note_on_c, 0, 71, 0
1, 18216, Note_on_c, 0, 71, 71
1, 18222, Note_on_c, 1, 64, 0
1, 18222, Note_on_c, 1, 56, 0
1, 18226, Note_on_c, 0, 71, 0
1, 18228, Note_on_c, 1, 63, 71
1, 18228, Note_on_c, 1, 54, 71
1, 18240, Note_on_c, 0, 71, 73
1, 18240, Note_on_c, 1, 63, 0
1, 18240, Note_on_c, 1, 54, 0
1, 18240, Note_on_c, 1, 66, 72
1, 18240, Note_on_c, 1, 57, 72
1, 18247, Note_on_c, 0, 71, 0
1, 18256, Note_on_c, 0, 71, 75
1, 18263, Note_on_c, 0, 71, 0
1, 18272, Note_on_c, 0, 71, 76
1, 18279, Note_on_c, 0, 71, 0
1, 18288, Note_on_c, 0, 71, 77
1, 18293, Note_on_c, 0, 71, 0
1, 18300, Note_on_c, 0, 71, 80
1, 18305, Note_on_c, 0, 71, 0
1, 18312, Note_on_c, 0, 71, 80
1, 18317, Note_on_c, 0, 71, 0
1, 18324, Note_on_c, 0, 71, 80
1, 18329, Note_on_c, 0, 71, 0
1, 18329, Note_on_c, 1, 66, 0
1, 18329, Note_on_c, 1, 57, 0
1, 18336, Note_on_c, 0, 71, 80
1, 18336, Note_on_c, 1, 66, 80
1, 18336, Note_on_c, 1, 63, 80
1, 18336, Note_on_c, 1, 59, 80
1, 18336, Note_on_c, 1, 57, 80
1, 18347, Note_on_c, 0, 71, 0
1, 18354, Note_on_c, 0, 73, 80
1, 18360, Note_on_c, 0, 73, 0
1, 18360, Note_on_c, 0, 71, 80
1, 18366, Note_on_c, 0, 71, 0
1, 18366, Note_on_c, 0, 70, 80
1, 18372, Note_on_c, 0, 70, 0
1, 18372, Note_on_c, 0, 71, 80
1, 18378, Note_on_c, 0, 71, 0
1, 18378, Note_on_c, 0, 73, 80
1, 18384, Note_on_c, 0, 73, 0
1, 18384, Note_on_c, 0, 75, 80
1, 18390, Note_on_c, 0, 75, 0
1, 18390, Note_on_c, 0, 76, 80
1, 18396, Note_on_c, 0, 76, 0
1, 18396, Note_on_c, 0, 78, 80
1, 18402, Note_on_c, 0, 78, 0
1, 18402, Note_on_c, 0, 80, 80
1, 18408, Note_on_c, 0, 80, 0
1, 18408, Note_on_c, 0, 81, 80
1, 18414, Note_on_c, 0, 81, 0
1, 18414, Note_on_c, 0, 83, 80
1, 18420, Note_on_c, 0, 83, 0
1, 18420, Note_on_c, 0, 85, 80
1, 18425, Note_on_c, 1, 66, 0
1, 18425, Note_on_c, 1, 63, 0
1, 18425, Note_on_c, 1, 59, 0
1, 18425, Note_on_c, 1, 57, 0
1, 18426, Note_on_c, 0, 85, 0
1, 18426, Note_on_c, 0, 87, 80
1, 18432, Note_on_c, 0, 87, 0
1, 18432, Note_on_c, 0, 88, 83
1, 18432, Note_on_c, 1, 64, 83
1, 18432, Note_on_c, 1, 59, 83
1, 18432, Note_on_c, 1, 56, 83
1, 18516, Note_on_c, 0, 88, 0
1, 18516, Note_on_c, 0, 87, 86
1, 18521, Note_on_c, 1, 64, 0
1, 18521, Note_on_c, 1, 59, 0
1, 18521, Note_on_c, 1, 56, 0
1, 18528, Note_on_c, 0, 87, 0
1, 18528, Note_on_c, 0, 86, 86
1, 18528, Note_on_c, 1, 65, 86
1, 18528, Note_on_c, 1, 59, 86
1, 18528, Note_on_c, 1, 56, 86
1, 18617, Note_on_c, 0, 86, 0
1, 18617, Note_on_c, 1, 65, 0
1, 18617, Note_on_c, 1, 59, 0
1, 18617, Note_on_c, 1, 56, 0
1, 18624, Note_on_c, 0, 85, 86
1, 18624, Note_on_c, 1, 66, 86
1, 18624, Note_on_c, 1, 61, 86
1, 18624, Note_on_c, 1, 57, 86
1, 18713, Note_on_c, 0, 85, 0
1, 18713, Note_on_c, 1, 66, 0
1, 18713, Note_on_c, 1, 61, 0
1, 18713, Note_on_c, 1, 57, 0
1, 18720, Note_on_c, 0, 59, 86
1, 18726, Note_on_c, 0, 59, 0
1, 18726, Note_on_c, 0, 64, 86
1, 18732, Note_on_c, 0, 64, 0
1, 18732, Note_on_c, 0, 68, 86
1, 18738, Note_on_c, 0, 68, 0
1, 18738, Note_on_c, 0, 71, 86
1, 18744, Note_on_c, 0, 71, 0
1, 18744, Note_on_c, 0, 76, 86
1, 18750, Note_on_c, 0, 76, 0
1, 18750, Note_on_c, 0, 80, 86
1, 18756, Note_on_c, 0, 80, 0
1, 18756, Note_on_c, 0, 83, 86
1, 18804, Note_on_c, 0, 83, 0
1, 18804, Note_on_c, 0, 82, 86
1, 18816, Note_on_c, 0, 82, 0
1, 18816, Note_on_c, 0, 88, 102
1, 18816, Note_on_c, 0, 79, 102
1, 18852, Note_on_c, 0, 88, 0
1, 18852, Note_on_c, 0, 79, 0
1, 18852, Note_on_c, 0, 85, 86
1, 18859, Note_on_c, 0, 85, 0
1, 18859, Note_on_c, 0, 82, 84
1, 18866, Note_on_c, 0, 82, 0
1, 18866, Note_on_c, 0, 79, 83
1, 18873, Note_on_c, 0, 79, 0
1, 18873, Note_on_c, 0, 76, 81
1, 18880, Note_on_c, 0, 76, 0
1, 18880, Note_on_c, 0, 73, 80
1, 18887, Note_on_c, 0, 73, 0
1, 18887, Note_on_c, 0, 70, 79
1, 18894, Note_on_c, 0, 70, 0
1, 18894, Note_on_c, 0, 67, 77
1, 18901, Note_on_c, 0, 67, 0
1, 18901, Note_on_c, 0, 64, 76
1, 18908, Note_on_c, 0, 64, 0
1, 18908, Note_on_c, 0, 61, 75
1, 18915, Note_on_c, 0, 61, 0
1, 18915, Note_on_c, 0, 58, 73
1, 18922, Note_on_c, 0, 58, 0
1, 18922, Note_on_c, 0, 55, 72
1, 18929, Note_on_c, 0, 55, 0
1, 18929, Note_on_c, 0, 52, 70
1, 18936, Note_on_c, 0, 52, 0
1, 18936, Note_on_c, 0, 49, 69
1, 18942, Note_on_c, 0, 49, 0
1, 18942, Note_on_c, 0, 46, 68
1, 18971, Note_on_c, 0, 46, 0
1, 19008, Note_on_c, 0, 81, 64
1, 19008, Note_on_c, 0, 78, 64
1, 19008, Note_on_c, 1, 71, 64
1, 19008, Note_on_c, 1, 63, 64
1, 19086, Note_on_c, 1, 63, 0
1, 19092, Note_on_c, 0, 81, 0
1, 19092, Note_on_c, 0, 78, 0
1, 19092, Note_on_c, 0, 80, 64
1, 19092, Note_on_c, 0, 76, 64
1, 19092, Note_on_c, 1, 64, 64
1, 19097, Note_on_c, 1, 71, 0
1, 19104, Note_on_c, 0, 80, 0
1, 19104, Note_on_c, 0, 76, 0
1, 19104, Note_on_c, 0, 85, 64
1, 19104, Note_on_c, 0, 76, 64
1, 19104, Note_on_c, 1, 69, 64
1, 19104, Note_on_c, 1, 57, 64
1, 19104, Note_on_c, 1, 64, 0
1, 19124, Note_on_c, 0, 85, 0
1, 19124, Note_on_c, 0, 76, 0
1, 19149, Note_on_c, 1, 69, 0
1, 19149, Note_on_c, 1, 57, 0
1, 19200, Note_on_c, 0, 75, 64
1, 19200, Note_on_c, 0, 69, 64
1, 19200, Note_on_c, 1, 66, 64
1, 19200, Note_on_c, 1, 59, 64
1, 19245, Note_on_c, 0, 75, 0
1, 19245, Note_on_c, 0, 69, 0
1, 19245, Note_on_c, 1, 66, 0
1, 19245, Note_on_c, 1, 59, 0
1, 19296, Note_on_c, 0, 75, 64
1, 19296, Note_on_c, 0, 66, 64
1, 19296, Note_on_c, 0, 69, 64
1, 19296, Note_on_c, 1, 64, 64
1, 19296, Note_on_c, 1, 52, 64
1, 19374, Note_on_c, 0, 69, 0
1, 19380, Note_on_c, 0, 71, 64
1, 19392, Note_on_c, 0, 75, 0
1, 19392, Note_on_c, 0, 66, 0
1, 19392, Note_on_c, 0, 76, 64
1, 19392, Note_on_c, 0, 68, 64
1, 19392, Note_on_c, 0, 71, 0
1, 19437, Note_on_c, 0, 76, 0
1, 19437, Note_on_c, 0, 68, 0
1, 19440, Note_on_c, 0, 40, 64
1, 19460, Note_on_c, 0, 40, 0
1, 19488, Note_on_c, 0, 40, 64
1, 19508, Note_on_c, 0, 40, 0
1, 19536, Note_on_c, 0, 40, 64
1, 19556, Note_on_c, 0, 40, 0
1, 19576, Note_on_c, 1, 64, 0
1, 19576, Note_on_c, 1, 52, 0
1, 19584, Note_on_c, 0, 40, 64
1, 19584, Note_on_c, 1, 62, 82
1, 19584, Note_on_c, 1, 59, 82
1, 19584, Note_on_c, 1, 56, 82
1, 19604, Note_on_c, 0, 40, 0
1, 19632, Note_on_c, 0, 40, 64
1, 19652, Note_on_c, 0, 40, 0
1, 19662, Note_on_c, 1, 62, 0
1, 19668, Note_on_c, 1, 64, 64
1, 19673, Note_on_c, 1, 59, 0
1, 19673, Note_on_c, 1, 56, 0
1, 19680, Note_on_c, 0, 40, 64
1, 19680, Note_on_c, 1, 61, 64
1, 19680, Note_on_c, 1, 57, 64
1, 19691, Note_on_c, 1, 64, 0
1, 19700, Note_on_c, 0, 40, 0
1, 19728, Note_on_c, 0, 40, 64
1, 19748, Note_on_c, 0, 40, 0
1, 19776, Note_on_c, 0, 40, 64
1, 19796, Note_on_c, 0, 40, 0
1, 19824, Note_on_c, 0, 40, 64
1, 19844, Note_on_c, 0, 40, 0
1, 19857, Note_on_c, 1, 61, 0
1, 19857, Note_on_c, 1, 57, 0
1, 19872, Note_on_c, 0, 40, 64
1, 19872, Note_on_c, 1, 63, 82
1, 19872, Note_on_c, 1, 59, 82
1, 19872, Note_on_c, 1, 57, 82
1, 19872, Note_on_c, 1, 54, 82
1, 20049, Note_on_c, 0, 40, 0
1, 20064, Note_on_c, 0, 81, 70
1, 20091, Note_on_c, 0, 81, 0
1, 20094, Note_on_c, 0, 83, 70
1, 20100, Note_on_c, 0, 83, 0
1, 20100, Note_on_c, 0, 81, 70
1, 20106, Note_on_c, 0, 81, 0
1, 20106, Note_on_c, 0, 80, 70
1, 20112, Note_on_c, 0, 80, 0
1, 20112, Note_on_c, 0, 81, 70
1, 20127, Note_on_c, 0, 81, 0
1, 20128, Note_on_c, 0, 85, 69
1, 20137, Note_on_c, 1, 63, 0
1, 20137, Note_on_c, 1, 59, 0
1, 20137, Note_on_c, 1, 57, 0
1, 20137, Note_on_c, 1, 54, 0
1, 20143, Note_on_c, 0, 85, 0
1, 20144, Note_on_c, 0, 83, 69
1, 20159, Note_on_c, 0, 83, 0
1, 20160, Note_on_c, 0, 81, 69
1, 20160, Note_on_c, 1, 64, 64
1, 20160, Note_on_c, 1, 59, 64
1, 20160, Note_on_c, 1, 52, 64
1, 20256, Note_on_c, 0, 81, 0
1, 20256, Note_on_c, 0, 80, 66
1, 20337, Note_on_c, 1, 64, 0
1, 20337, Note_on_c, 1, 59, 0
1, 20337, Note_on_c, 1, 52, 0
1, 20345, Note_on_c, 0, 80, 0
1, 20352, Note_on_c, 0, 40, 58
1, 20352, Note_on_c, 1, 64, 58
1, 20352, Note_on_c, 1, 59, 58
1, 20352, Note_on_c, 1, 56, 58
1, 20352, Note_on_c, 1, 52, 58
1, 20419, Note_on_c, 0, 40, 0
1, 20419, Note_on_c, 1, 64, 0
1, 20419, Note_on_c, 1, 59, 0
1, 20419, Note_on_c, 1, 56, 0
1, 20419, Note_on_c, 1, 52, 0
1, 20424, Note_on_c, 0, 40, 58
1, 20424, Note_on_c, 1, 64, 58
1, 20424, Note_on_c, 1, 59, 58
1, 20424, Note_on_c, 1, 56, 58
1, 20424, Note_on_c, 1, 52, 58
1, 20447, Note_on_c, 0, 40, 0
1, 20447, Note_on_c, 1, 64, 0
1, 20447, Note_on_c, 1, 59, 0
1, 20447, Note_on_c, 1, 56, 0
1, 20447, Note_on_c, 1, 52, 0
1, 20448, Note_on_c, 0, 40, 58
1, 20448, Note_on_c, 1, 64, 58
1, 20448, Note_on_c, 1, 59, 58
1, 20448, Note_on_c, 1, 56, 58
1, 20448, Note_on_c, 1, 52, 58
1, 20713, Note_on_c, 0, 40, 0
1, 20713, Note_on_c, 1, 64, 0
1, 20713, Note_on_c, 1, 59, 0
1, 20713, Note_on_c, 1, 56, 0
1, 20713, Note_on_c, 1, 52, 0
1, 20736, Note_on_c, 1, 40, 4
1, 20781, Note_on_c, 1, 40, 0
1, 20791, End_track
0, 0, End_of_file