0, 0, Header, 0, 1, 96
1, 0, Start_track
1, 0, Tempo, 1034482
1, 0, Note_on_c, 0, 55, 80
1, 0, Note_on_c, 1, 52, 80
1, 0, Note_on_c, 1, 48, 80
1, 49, Note_on_c, 0, 55, 0
1, 54, Note_on_c, 0, 57, 80
1, 60, Note_on_c, 0, 57, 0
1, 60, Note_on_c, 0, 55, 80
1, 66, Note_on_c, 0, 55, 0
1, 66, Note_on_c, 0, 54, 80
1, 72, Note_on_c, 0, 54, 0
1, 72, Note_on_c, 0, 55, 80
1, 95, Note_on_c, 0, 55, 0
1, 96, Note_on_c, 0, 64, 81
1, 192, Note_on_c, 0, 64, 0
1, 192, Note_on_c, 0, 60, 85
1, 265, Note_on_c, 1, 52, 0
1, 265, Note_on_c, 1, 48, 0
1, 281, Note_on_c, 0, 60, 0
1, 288, Note_on_c, 0, 59, 80
1, 288, Note_on_c, 1, 55, 80
1, 288, Note_on_c, 1, 53, 80
1, 288, Note_on_c, 1, 50, 80
1, 384, Note_on_c, 0, 59, 0
1, 384, Note_on_c, 0, 67, 86
1, 431, Note_on_c, 0, 67, 0
1, 465, Note_on_c, 1, 55, 0
1, 465, Note_on_c, 1, 53, 0
1, 465, Note_on_c, 1, 50, 0
1, 576, Note_on_c, 0, 67, 70
1, 576, Note_on_c, 1, 64, 80
1, 576, Note_on_c, 1, 60, 80
1, 643, Note_on_c, 0, 67, 0
1, 648, Note_on_c, 0, 69, 70
1, 656, Note_on_c, 0, 69, 0
1, 656, Note_on_c, 0, 67, 70
1, 664, Note_on_c, 0, 67, 0
1, 664, Note_on_c, 0, 66, 70
1, 672, Note_on_c, 0, 66, 0
1, 672, Note_on_c, 0, 67, 70
1, 683, Note_on_c, 0, 67, 0
1, 683, Note_on_c, 0, 69, 70
1, 694, Note_on_c, 0, 69, 0
1, 694, Note_on_c, 0, 71, 70
1, 705, Note_on_c, 0, 71, 0
1, 705, Note_on_c, 0, 72, 70
1, 716, Note_on_c, 0, 72, 0
1, 716, Note_on_c, 0, 71, 70
1, 727, Note_on_c, 0, 71, 0
1, 727, Note_on_c, 0, 74, 71
1, 738, Note_on_c, 0, 74, 0
1, 738, Note_on_c, 0, 72, 71
1, 748, Note_on_c, 0, 72, 0
1, 748, Note_on_c, 0, 76, 71
1, 758, Note_on_c, 0, 76, 0
1, 758, Note_on_c, 0, 74, 71
1, 768, Note_on_c, 0, 74, 0
1, 768, Note_on_c, 0, 77, 72
1, 792, Note_on_c, 0, 77, 0
1, 792, Note_on_c, 0, 76, 72
1, 813, Note_on_c, 0, 76, 0
1, 816, Note_on_c, 0, 74, 73
1, 839, Note_on_c, 0, 74, 0
1, 840, Note_on_c, 0, 72, 74
1, 841, Note_on_c, 1, 64, 0
1, 841, Note_on_c, 1, 60, 0
1, 863, Note_on_c, 0, 72, 0
1, 864, Note_on_c, 0, 71, 75
1, 864, Note_on_c, 1, 67, 80
1, 864, Note_on_c, 1, 65, 80
1, 864, Note_on_c, 1, 62, 80
1, 931, Note_on_c, 0, 71, 0
1, 936, Note_on_c, 0, 74, 80
1, 946, Note_on_c, 0, 74, 0
1, 960, Note_on_c, 0, 79, 80
1, 980, Note_on_c, 0, 79, 0
1, 1129, Note_on_c, 1, 67, 0
1, 1129, Note_on_c, 1, 65, 0
1, 1129, Note_on_c, 1, 62, 0
1, 1152, Note_on_c, 0, 72, 64
1, 1152, Note_on_c, 1, 67, 64
1, 1152, Note_on_c, 1, 64, 64
1, 1179, Note_on_c, 0, 72, 0
1, 1182, Note_on_c, 0, 74, 64
1, 1188, Note_on_c, 0, 74, 0
1, 1188, Note_on_c, 0, 72, 64
1, 1194, Note_on_c, 0, 72, 0
1, 1194, Note_on_c, 0, 71, 64
1, 1200, Note_on_c, 0, 71, 0
1, 1200, Note_on_c, 0, 72, 64
1, 1215, Note_on_c, 0, 72, 0
1, 1236, Note_on_c, 0, 76, 64
1, 1241, Note_on_c, 0, 76, 0
1, 1248, Note_on_c, 0, 79, 64
1, 1268, Note_on_c, 0, 79, 0
1, 1329, Note_on_c, 1, 67, 0
1, 1329, Note_on_c, 1, 64, 0
1, 1440, Note_on_c, 0, 74, 70
1, 1440, Note_on_c, 1, 67, 70
1, 1440, Note_on_c, 1, 62, 70
1, 1440, Note_on_c, 1, 59, 70
1, 1507, Note_on_c, 0, 74, 0
1, 1512, Note_on_c, 0, 76, 70
1, 1520, Note_on_c, 0, 76, 0
1, 1520, Note_on_c, 0, 74, 70
1, 1528, Note_on_c, 0, 74, 0
1, 1528, Note_on_c, 0, 73, 70
1, 1536, Note_on_c, 0, 73, 0
1, 1536, Note_on_c, 0, 74, 64
1, 1547, Note_on_c, 0, 74, 0
1, 1547, Note_on_c, 0, 75, 64
1, 1558, Note_on_c, 0, 75, 0
1, 1558, Note_on_c, 0, 76, 64
1, 1569, Note_on_c, 0, 76, 0
1, 1569, Note_on_c, 0, 77, 64
1, 1580, Note_on_c, 0, 77, 0
1, 1580, Note_on_c, 0, 78, 65
1, 1591, Note_on_c, 0, 78, 0
1, 1591, Note_on_c, 0, 79, 65
1, 1602, Note_on_c, 0, 79, 0
1, 1602, Note_on_c, 0, 80, 65
1, 1612, Note_on_c, 0, 80, 0
1, 1612, Note_on_c, 0, 81, 65
1, 1622, Note_on_c, 0, 81, 0
1, 1622, Note_on_c, 0, 83, 66
1, 1632, Note_on_c, 0, 83, 0
1, 1632, Note_on_c, 0, 81, 66
1, 1677, Note_on_c, 0, 81, 0
1, 1680, Note_on_c, 0, 79, 68
1, 1703, Note_on_c, 0, 79, 0
1, 1704, Note_on_c, 0, 77, 69
1, 1705, Note_on_c, 1, 67, 0
1, 1705, Note_on_c, 1, 62, 0
1, 1705, Note_on_c, 1, 59, 0
1, 1727, Note_on_c, 0, 77, 0
1, 1728, Note_on_c, 0, 76, 70
1, 1728, Note_on_c, 1, 67, 64
1, 1728, Note_on_c, 1, 64, 64
1, 1728, Note_on_c, 1, 60, 64
1, 1777, Note_on_c, 0, 76, 0
1, 1782, Note_on_c, 0, 77, 70
1, 1788, Note_on_c, 0, 77, 0
1, 1788, Note_on_c, 0, 76, 70
1, 1794, Note_on_c, 0, 76, 0
1, 1794, Note_on_c, 0, 75, 70
1, 1800, Note_on_c, 0, 75, 0
1, 1800, Note_on_c, 0, 76, 73
1, 1817, Note_on_c, 1, 67, 0
1, 1817, Note_on_c, 1, 64, 0
1, 1817, Note_on_c, 1, 60, 0
1, 1823, Note_on_c, 0, 76, 0
1, 1824, Note_on_c, 0, 84, 90
1, 1824, Note_on_c, 1, 66, 69
1, 1824, Note_on_c, 1, 60, 69
1, 1824, Note_on_c, 1, 57, 69
1, 1935, Note_on_c, 0, 84, 0
1, 1936, Note_on_c, 0, 83, 80
1, 1943, Note_on_c, 0, 83, 0
1, 1952, Note_on_c, 0, 81, 80
1, 1959, Note_on_c, 0, 81, 0
1, 1968, Note_on_c, 0, 79, 80
1, 1975, Note_on_c, 0, 79, 0
1, 1984, Note_on_c, 0, 78, 80
1, 1991, Note_on_c, 0, 78, 0
1, 2000, Note_on_c, 0, 76, 80
1, 2001, Note_on_c, 1, 66, 0
1, 2001, Note_on_c, 1, 60, 0
1, 2001, Note_on_c, 1, 57, 0
1, 2007, Note_on_c, 0, 76, 0
1, 2016, Note_on_c, 0, 75, 80
1, 2016, Note_on_c, 1, 69, 80
1, 2016, Note_on_c, 1, 59, 80
1, 2083, Note_on_c, 0, 75, 0
1, 2088, Note_on_c, 0, 76, 75
1, 2100, Note_on_c, 0, 76, 0
1, 2100, Note_on_c, 0, 78, 74
1, 2112, Note_on_c, 0, 78, 0
1, 2112, Note_on_c, 0, 76, 73
1, 2112, Note_on_c, 1, 69, 0
1, 2112, Note_on_c, 1, 59, 0
1, 2112, Note_on_c, 1, 67, 69
1, 2112, Note_on_c, 1, 60, 69
1, 2157, Note_on_c, 0, 76, 0
1, 2157, Note_on_c, 1, 67, 0
1, 2157, Note_on_c, 1, 60, 0
1, 2304, Note_on_c, 0, 81, 64
1, 2304, Note_on_c, 0, 76, 64
1, 2304, Note_on_c, 0, 72, 64
1, 2304, Note_on_c, 1, 60, 64
1, 2304, Note_on_c, 1, 48, 64
1, 2349, Note_on_c, 0, 81, 0
1, 2349, Note_on_c, 0, 76, 0
1, 2349, Note_on_c, 0, 72, 0
1, 2349, Note_on_c, 1, 60, 0
1, 2349, Note_on_c, 1, 48, 0
1, 2400, Note_on_c, 0, 79, 64
1, 2400, Note_on_c, 0, 74, 64
1, 2400, Note_on_c, 0, 71, 64
1, 2400, Note_on_c, 1, 62, 64
1, 2400, Note_on_c, 1, 50, 64
1, 2445, Note_on_c, 0, 79, 0
1, 2445, Note_on_c, 0, 74, 0
1, 2445, Note_on_c, 0, 71, 0
1, 2445, Note_on_c, 1, 62, 0
1, 2445, Note_on_c, 1, 50, 0
1, 2496, Note_on_c, 0, 78, 61
1, 2496, Note_on_c, 0, 72, 61
1, 2496, Note_on_c, 0, 69, 61
1, 2496, Note_on_c, 1, 62, 61
1, 2496, Note_on_c, 1, 50, 61
1, 2541, Note_on_c, 0, 78, 0
1, 2541, Note_on_c, 0, 72, 0
1, 2541, Note_on_c, 0, 69, 0
1, 2541, Note_on_c, 1, 62, 0
1, 2541, Note_on_c, 1, 50, 0
1, 2592, Note_on_c, 0, 67, 58
1, 2592, Note_on_c, 1, 43, 58
1, 2601, Note_on_c, 0, 71, 58
1, 2601, Note_on_c, 1, 47, 58
1, 2610, Note_on_c, 0, 74, 58
1, 2610, Note_on_c, 1, 50, 58
1, 2619, Note_on_c, 0, 79, 58
1, 2619, Note_on_c, 1, 55, 58
1, 2659, Note_on_c, 1, 55, 0
1, 2659, Note_on_c, 1, 50, 0
1, 2659, Note_on_c, 1, 47, 0
1, 2659, Note_on_c, 1, 43, 0
1, 2687, Note_on_c, 0, 79, 0
1, 2687, Note_on_c, 0, 74, 0
1, 2687, Note_on_c, 0, 71, 0
1, 2687, Note_on_c, 0, 67, 0
1, 2880, Note_on_c, 0, 55, 80
1, 2880, Note_on_c, 1, 52, 80
1, 2880, Note_on_c, 1, 48, 80
1, 2929, Note_on_c, 0, 55, 0
1, 2934, Note_on_c, 0, 57, 80
1, 2940, Note_on_c, 0, 57, 0
1, 2940, Note_on_c, 0, 55, 80
1, 2946, Note_on_c, 0, 55, 0
1, 2946, Note_on_c, 0, 54, 80
1, 2952, Note_on_c, 0, 54, 0
1, 2952, Note_on_c, 0, 55, 80
1, 2975, Note_on_c, 0, 55, 0
1, 2976, Note_on_c, 0, 64, 81
1, 3072, Note_on_c, 0, 64, 0
1, 3072, Note_on_c, 0, 60, 85
1, 3145, Note_on_c, 1, 52, 0
1, 3145, Note_on_c, 1, 48, 0
1, 3161, Note_on_c, 0, 60, 0
1, 3168, Note_on_c, 0, 59, 80
1, 3168, Note_on_c, 1, 55, 80
1, 3168, Note_on_c, 1, 53, 80
1, 3168, Note_on_c, 1, 50, 80
1, 3264, Note_on_c, 0, 59, 0
1, 3264, Note_on_c, 0, 67, 86
1, 3311, Note_on_c, 0, 67, 0
1, 3345, Note_on_c, 1, 55, 0
1, 3345, Note_on_c, 1, 53, 0
1, 3345, Note_on_c, 1, 50, 0
1, 3456, Note_on_c, 0, 67, 70
1, 3456, Note_on_c, 1, 64, 80
1, 3456, Note_on_c, 1, 60, 80
1, 3523, Note_on_c, 0, 67, 0
1, 3528, Note_on_c, 0, 69, 70
1, 3536, Note_on_c, 0, 69, 0
1, 3536, Note_on_c, 0, 67, 70
1, 3544, Note_on_c, 0, 67, 0
1, 3544, Note_on_c, 0, 66, 70
1, 3552, Note_on_c, 0, 66, 0
1, 3552, Note_on_c, 0, 67, 70
1, 3563, Note_on_c, 0, 67, 0
1, 3563, Note_on_c, 0, 69, 70
1, 3574, Note_on_c, 0, 69, 0
1, 3574, Note_on_c, 0, 71, 70
1, 3585, Note_on_c, 0, 71, 0
1, 3585, Note_on_c, 0, 72, 70
1, 3596, Note_on_c, 0, 72, 0
1, 3596, Note_on_c, 0, 71, 70
1, 3607, Note_on_c, 0, 71, 0
1, 3607, Note_on_c, 0, 74, 71
1, 3618, Note_on_c, 0, 74, 0
1, 3618, Note_on_c, 0, 72, 71
1, 3628, Note_on_c, 0, 72, 0
1, 3628, Note_on_c, 0, 76, 71
1, 3638, Note_on_c, 0, 76, 0
1, 3638, Note_on_c, 0, 74, 71
1, 3648, Note_on_c, 0, 74, 0
1, 3648, Note_on_c, 0, 77, 72
1, 3672, Note_on_c, 0, 77, 0
1, 3672, Note_on_c, 0, 76, 72
1, 3693, Note_on_c, 0, 76, 0
1, 3696, Note_on_c, 0, 74, 73
1, 3719, Note_on_c, 0, 74, 0
1, 3720, Note_on_c, 0, 72, 74
1, 3721, Note_on_c, 1, 64, 0
1, 3721, Note_on_c, 1, 60, 0
1, 3743, Note_on_c, 0, 72, 0
1, 3744, Note_on_c, 0, 71, 75
1, 3744, Note_on_c, 1, 67, 80
1, 3744, Note_on_c, 1, 65, 80
1, 3744, Note_on_c, 1, 62, 80
1, 3811, Note_on_c, 0, 71, 0
1, 3816, Note_on_c, 0, 74, 80
1, 3826, Note_on_c, 0, 74, 0
1, 3840, Note_on_c, 0, 79, 80
1, 3860, Note_on_c, 0, 79, 0
1, 4009, Note_on_c, 1, 67, 0
1, 4009, Note_on_c, 1, 65, 0
1, 4009, Note_on_c, 1, 62, 0
1, 4032, Note_on_c, 0, 72, 64
1, 4032, Note_on_c, 1, 67, 64
1, 4032, Note_on_c, 1, 64, 64
1, 4059, Note_on_c, 0, 72, 0
1, 4062, Note_on_c, 0, 74, 64
1, 4068, Note_on_c, 0, 74, 0
1, 4068, Note_on_c, 0, 72, 64
1, 4074, Note_on_c, 0, 72, 0
1, 4074, Note_on_c, 0, 71, 64
1, 4080, Note_on_c, 0, 71, 0
1, 4080, Note_on_c, 0, 72, 64
1, 4095, Note_on_c, 0, 72, 0
1, 4116, Note_on_c, 0, 76, 64
1, 4121, Note_on_c, 0, 76, 0
1, 4128, Note_on_c, 0, 79, 64
1, 4148, Note_on_c, 0, 79, 0
1, 4209, Note_on_c, 1, 67, 0
1, 4209, Note_on_c, 1, 64, 0
1, 4320, Note_on_c, 0, 74, 70
1, 4320, Note_on_c, 1, 67, 70
1, 4320, Note_on_c, 1, 62, 70
1, 4320, Note_on_c, 1, 59, 70
1, 4387, Note_on_c, 0, 74, 0
1, 4392, Note_on_c, 0, 76, 70
1, 4400, Note_on_c, 0, 76, 0
1, 4400, Note_on_c, 0, 74, 70
1, 4408, Note_on_c, 0, 74, 0
1, 4408, Note_on_c, 0, 73, 70
1, 4416, Note_on_c, 0, 73, 0
1, 4416, Note_on_c, 0, 74, 64
1, 4427, Note_on_c, 0, 74, 0
1, 4427, Note_on_c, 0, 75, 64
1, 4438, Note_on_c, 0, 75, 0
1, 4438, Note_on_c, 0, 76, 64
1, 4449, Note_on_c, 0, 76, 0
1, 4449, Note_on_c, 0, 77, 64
1, 4460, Note_on_c, 0, 77, 0
1, 4460, Note_on_c, 0, 78, 65
1, 4471, Note_on_c, 0, 78, 0
1, 4471, Note_on_c, 0, 79, 65
1, 4482, Note_on_c, 0, 79, 0
1, 4482, Note_on_c, 0, 80, 65
1, 4492, Note_on_c, 0, 80, 0
1, 4492, Note_on_c, 0, 81, 65
1, 4502, Note_on_c, 0, 81, 0
1, 4502, Note_on_c, 0, 83, 66
1, 4512, Note_on_c, 0, 83, 0
1, 4512, Note_on_c, 0, 81, 66
1, 4557, Note_on_c, 0, 81, 0
1, 4560, Note_on_c, 0, 79, 68
1, 4583, Note_on_c, 0, 79, 0
1, 4584, Note_on_c, 0, 77, 69
1, 4585, Note_on_c, 1, 67, 0
1, 4585, Note_on_c, 1, 62, 0
1, 4585, Note_on_c, 1, 59, 0
1, 4607, Note_on_c, 0, 77, 0
1, 4608, Note_on_c, 0, 76, 70
1, 4608, Note_on_c, 1, 67, 64
1, 4608, Note_on_c, 1, 64, 64
1, 4608, Note_on_c, 1, 60, 64
1, 4657, Note_on_c, 0, 76, 0
1, 4662, Note_on_c, 0, 77, 70
1, 4668, Note_on_c, 0, 77, 0
1, 4668, Note_on_c, 0, 76, 70
1, 4674, Note_on_c, 0, 76, 0
1, 4674, Note_on_c, 0, 75, 70
1, 4680, Note_on_c, 0, 75, 0
1, 4680, Note_on_c, 0, 76, 73
1, 4697, Note_on_c, 1, 67, 0
1, 4697, Note_on_c, 1, 64, 0
1, 4697, Note_on_c, 1, 60, 0
1, 4703, Note_on_c, 0, 76, 0
1, 4704, Note_on_c, 0, 84, 90
1, 4704, Note_on_c, 1, 66, 69
1, 4704, Note_on_c, 1, 60, 69
1, 4704, Note_on_c, 1, 57, 69
1, 4815, Note_on_c, 0, 84, 0
1, 4816, Note_on_c, 0, 83, 80
1, 4823, Note_on_c, 0, 83, 0
1, 4832, Note_on_c, 0, 81, 80
1, 4839, Note_on_c, 0, 81, 0
1, 4848, Note_on_c, 0, 79, 80
1, 4855, Note_on_c, 0, 79, 0
1, 4864, Note_on_c, 0, 78, 80
1, 4871, Note_on_c, 0, 78, 0
1, 4880, Note_on_c, 0, 76, 80
1, 4881, Note_on_c, 1, 66, 0
1, 4881, Note_on_c, 1, 60, 0
1, 4881, Note_on_c, 1, 57, 0
1, 4887, Note_on_c, 0, 76, 0
1, 4896, Note_on_c, 0, 75, 80
1, 4896, Note_on_c, 1, 69, 80
1, 4896, Note_on_c, 1, 59, 80
1, 4963, Note_on_c, 0, 75, 0
1, 4968, Note_on_c, 0, 76, 75
1, 4980, Note_on_c, 0, 76, 0
1, 4980, Note_on_c, 0, 78, 74
1, 4992, Note_on_c, 0, 78, 0
1, 4992, Note_on_c, 0, 76, 73
1, 4992, Note_on_c, 1, 69, 0
1, 4992, Note_on_c, 1, 59, 0
1, 4992, Note_on_c, 1, 67, 69
1, 4992, Note_on_c, 1, 60, 69
1, 5037, Note_on_c, 0, 76, 0
1, 5037, Note_on_c, 1, 67, 0
1, 5037, Note_on_c, 1, 60, 0
1, 5184, Note_on_c, 0, 81, 64
1, 5184, Note_on_c, 0, 76, 64
1, 5184, Note_on_c, 0, 72, 64
1, 5184, Note_on_c, 1, 60, 64
1, 5184, Note_on_c, 1, 48, 64
1, 5229, Note_on_c, 0, 81, 0
1, 5229, Note_on_c, 0, 76, 0
1, 5229, Note_on_c, 0, 72, 0
1, 5229, Note_on_c, 1, 60, 0
1, 5229, Note_on_c, 1, 48, 0
1, 5280, Note_on_c, 0, 79, 64
1, 5280, Note_on_c, 0, 74, 64
1, 5280, Note_on_c, 0, 71, 64
1, 5280, Note_on_c, 1, 62, 64
1, 5280, Note_on_c, 1, 50, 64
1, 5325, Note_on_c, 0, 79, 0
1, 5325, Note_on_c, 0, 74, 0
1, 5325, Note_on_c, 0, 71, 0
1, 5325, Note_on_c, 1, 62, 0
1, 5325, Note_on_c, 1, 50, 0
1, 5376, Note_on_c, 0, 78, 61
1, 5376, Note_on_c, 0, 72, 61
1, 5376, Note_on_c, 0, 69, 61
1, 5376, Note_on_c, 1, 62, 61
1, 5376, Note_on_c, 1, 50, 61
1, 5421, Note_on_c, 0, 78, 0
1, 5421, Note_on_c, 0, 72, 0
1, 5421, Note_on_c, 0, 69, 0
1, 5421, Note_on_c, 1, 62, 0
1, 5421, Note_on_c, 1, 50, 0
1, 5472, Note_on_c, 0, 67, 58
1, 5472, Note_on_c, 1, 43, 58
1, 5481, Note_on_c, 0, 71, 58
1, 5481, Note_on_c, 1, 47, 58
1, 5490, Note_on_c, 0, 74, 58
1, 5490, Note_on_c, 1, 50, 58
1, 5499, Note_on_c, 0, 79, 58
1, 5499, Note_on_c, 1, 55, 58
1, 5539, Note_on_c, 1, 55, 0
1, 5539, Note_on_c, 1, 50, 0
1, 5539, Note_on_c, 1, 47, 0
1, 5539, Note_on_c, 1, 43, 0
1, 5567, Note_on_c, 0, 79, 0
1, 5567, Note_on_c, 0, 74, 0
1, 5567, Note_on_c, 0, 71, 0
1, 5567, Note_on_c, 0, 67, 0
1, 5760, Note_on_c, 0, 79, 80
1, 5760, Note_on_c, 1, 67, 80
1, 5760, Note_on_c, 1, 63, 80
1, 5809, Note_on_c, 0, 79, 0
1, 5814, Note_on_c, 0, 80, 80
1, 5820, Note_on_c, 0, 80, 0
1, 5820, Note_on_c, 0, 79, 80
1, 5826, Note_on_c, 0, 79, 0
1, 5826, Note_on_c, 0, 78, 80
1, 5832, Note_on_c, 0, 78, 0
1, 5832, Note_on_c, 0, 79, 77
1, 5855, Note_on_c, 0, 79, 0
1, 5856, Note_on_c, 0, 84, 76
1, 5937, Note_on_c, 1, 67, 0
1, 5937, Note_on_c, 1, 63, 0
1, 5952, Note_on_c, 0, 84, 0
1, 5952, Note_on_c, 0, 83, 72
1, 5952, Note_on_c, 1, 65, 72
1, 5952, Note_on_c, 1, 62, 72
1, 6041, Note_on_c, 0, 83, 0
1, 6041, Note_on_c, 1, 65, 0
1, 6041, Note_on_c, 1, 62, 0
1, 6048, Note_on_c, 0, 80, 68
1, 6048, Note_on_c, 1, 63, 68
1, 6048, Note_on_c, 1, 60, 68
1, 6137, Note_on_c, 1, 63, 0
1, 6137, Note_on_c, 1, 60, 0
1, 6144, Note_on_c, 0, 80, 0
1, 6144, Note_on_c, 0, 79, 64
1, 6144, Note_on_c, 1, 62, 64
1, 6144, Note_on_c, 1, 59, 64
1, 6233, Note_on_c, 0, 79, 0
1, 6233, Note_on_c, 1, 62, 0
1, 6233, Note_on_c, 1, 59, 0
1, 6336, Note_on_c, 0, 77, 64
1, 6336, Note_on_c, 1, 72, 64
1, 6336, Note_on_c, 1, 68, 64
1, 6381, Note_on_c, 0, 77, 0
1, 6384, Note_on_c, 0, 79, 64
1, 6390, Note_on_c, 0, 79, 0
1, 6390, Note_on_c, 0, 77, 64
1, 6396, Note_on_c, 0, 77, 0
1, 6396, Note_on_c, 0, 76, 64
1, 6402, Note_on_c, 0, 76, 0
1, 6402, Note_on_c, 0, 77, 64
1, 6418, Note_on_c, 0, 77, 0
1, 6420, Note_on_c, 0, 79, 64
1, 6425, Note_on_c, 1, 72, 0
1, 6425, Note_on_c, 1, 68, 0
1, 6432, Note_on_c, 0, 79, 0
1, 6432, Note_on_c, 0, 75, 64
1, 6432, Note_on_c, 1, 70, 64
1, 6432, Note_on_c, 1, 67, 64
1, 6471, Note_on_c, 0, 75, 0
1, 6471, Note_on_c, 1, 70, 0
1, 6471, Note_on_c, 1, 67, 0
1, 6624, Note_on_c, 0, 74, 80
1, 6624, Note_on_c, 0, 72, 80
1, 6624, Note_on_c, 1, 54, 80
1, 6673, Note_on_c, 1, 54, 0
1, 6678, Note_on_c, 1, 55, 80
1, 6684, Note_on_c, 1, 55, 0
1, 6684, Note_on_c, 1, 54, 80
1, 6690, Note_on_c, 1, 54, 0
1, 6690, Note_on_c, 1, 52, 80
1, 6696, Note_on_c, 1, 52, 0
1, 6696, Note_on_c, 1, 54, 80
1, 6719, Note_on_c, 1, 54, 0
1, 6720, Note_on_c, 1, 69, 80
1, 6816, Note_on_c, 1, 69, 0
1, 6816, Note_on_c, 1, 66, 77
1, 6905, Note_on_c, 1, 66, 0
1, 6912, Note_on_c, 1, 67, 75
1, 7001, Note_on_c, 0, 72, 0
1, 7008, Note_on_c, 0, 71, 70
1, 7089, Note_on_c, 0, 74, 0
1, 7089, Note_on_c, 1, 67, 0
1, 7097, Note_on_c, 0, 71, 0
1, 7104, Note_on_c, 0, 75, 64
1, 7104, Note_on_c, 0, 72, 64
1, 7104, Note_on_c, 1, 65, 70
1, 7127, Note_on_c, 1, 65, 0
1, 7128, Note_on_c, 1, 63, 70
1, 7151, Note_on_c, 1, 63, 0
1, 7152, Note_on_c, 1, 62, 70
1, 7175, Note_on_c, 1, 62, 0
1, 7176, Note_on_c, 1, 60, 70
1, 7199, Note_on_c, 1, 60, 0
1, 7200, Note_on_c, 0, 75, 0
1, 7200, Note_on_c, 0, 72, 0
1, 7200, Note_on_c, 0, 74, 64
1, 7200, Note_on_c, 0, 71, 64
1, 7200, Note_on_c, 1, 67, 70
1, 7239, Note_on_c, 1, 67, 0
1, 7289, Note_on_c, 0, 74, 0
1, 7289, Note_on_c, 0, 71, 0
1, 7392, Note_on_c, 0, 84, 58
1, 7392, Note_on_c, 0, 75, 58
1, 7392, Note_on_c, 1, 65, 58
1, 7415, Note_on_c, 1, 65, 0
1, 7416, Note_on_c, 1, 63, 58
1, 7439, Note_on_c, 1, 63, 0
1, 7440, Note_on_c, 1, 62, 58
1, 7463, Note_on_c, 1, 62, 0
1, 7464, Note_on_c, 1, 60, 58
1, 7487, Note_on_c, 1, 60, 0
1, 7488, Note_on_c, 0, 84, 0
1, 7488, Note_on_c, 0, 75, 0
1, 7488, Note_on_c, 0, 83, 58
1, 7488, Note_on_c, 0, 74, 58
1, 7488, Note_on_c, 1, 67, 58
1, 7527, Note_on_c, 1, 67, 0
1, 7577, Note_on_c, 0, 83, 0
1, 7577, Note_on_c, 0, 74, 0
1, 7776, Note_on_c, 0, 55, 80
1, 7776, Note_on_c, 1, 52, 80
1, 7776, Note_on_c, 1, 48, 80
1, 7825, Note_on_c, 0, 55, 0
1, 7830, Note_on_c, 0, 57, 80
1, 7836, Note_on_c, 0, 57, 0
1, 7836, Note_on_c, 0, 55, 80
1, 7842, Note_on_c, 0, 55, 0
1, 7842, Note_on_c, 0, 54, 80
1, 7848, Note_on_c, 0, 54, 0
1, 7848, Note_on_c, 0, 55, 80
1, 7871, Note_on_c, 0, 55, 0
1, 7872, Note_on_c, 0, 64, 80
1, 7968, Note_on_c, 0, 64, 0
1, 7968, Note_on_c, 0, 60, 80
1, 8041, Note_on_c, 1, 52, 0
1, 8041, Note_on_c, 1, 48, 0
1, 8057, Note_on_c, 0, 60, 0
1, 8064, Note_on_c, 0, 59, 80
1, 8064, Note_on_c, 1, 55, 80
1, 8064, Note_on_c, 1, 53, 80
1, 8064, Note_on_c, 1, 50, 80
1, 8160, Note_on_c, 0, 59, 0
1, 8160, Note_on_c, 0, 67, 70
1, 8180, Note_on_c, 0, 67, 0
1, 8241, Note_on_c, 1, 55, 0
1, 8241, Note_on_c, 1, 53, 0
1, 8241, Note_on_c, 1, 50, 0
1, 8352, Note_on_c, 0, 60, 70
1, 8400, Note_on_c, 0, 60, 0
1, 8400, Note_on_c, 0, 62, 70
1, 8412, Note_on_c, 0, 62, 0
1, 8412, Note_on_c, 0, 64, 70
1, 8423, Note_on_c, 0, 64, 0
1, 8423, Note_on_c, 0, 65, 70
1, 8434, Note_on_c, 0, 65, 0
1, 8434, Note_on_c, 0, 67, 71
1, 8445, Note_on_c, 0, 67, 0
1, 8445, Note_on_c, 0, 69, 71
1, 8456, Note_on_c, 0, 69, 0
1, 8456, Note_on_c, 0, 71, 71
1, 8467, Note_on_c, 0, 71, 0
1, 8467, Note_on_c, 0, 72, 71
1, 8478, Note_on_c, 0, 72, 0
1, 8478, Note_on_c, 0, 74, 71
1, 8489, Note_on_c, 0, 74, 0
1, 8489, Note_on_c, 0, 76, 71
1, 8500, Note_on_c, 0, 76, 0
1, 8500, Note_on_c, 0, 77, 72
1, 8511, Note_on_c, 0, 77, 0
1, 8511, Note_on_c, 0, 79, 72
1, 8522, Note_on_c, 0, 79, 0
1, 8522, Note_on_c, 0, 81, 72
1, 8533, Note_on_c, 0, 81, 0
1, 8533, Note_on_c, 0, 83, 72
1, 8544, Note_on_c, 0, 83, 0
1, 8544, Note_on_c, 0, 84, 75
1, 8554, Note_on_c, 0, 84, 0
1, 8568, Note_on_c, 0, 79, 74
1, 8578, Note_on_c, 0, 79, 0
1, 8592, Note_on_c, 0, 76, 73
1, 8602, Note_on_c, 0, 76, 0
1, 8616, Note_on_c, 0, 72, 73
1, 8626, Note_on_c, 0, 72, 0
1, 8640, Note_on_c, 0, 71, 72
1, 8640, Note_on_c, 1, 67, 80
1, 8640, Note_on_c, 1, 65, 80
1, 8640, Note_on_c, 1, 62, 80
1, 8734, Note_on_c, 0, 71, 0
1, 8736, Note_on_c, 0, 79, 70
1, 8775, Note_on_c, 0, 79, 0
1, 8817, Note_on_c, 1, 67, 0
1, 8817, Note_on_c, 1, 65, 0
1, 8817, Note_on_c, 1, 62, 0
1, 8928, Note_on_c, 0, 73, 58
1, 8928, Note_on_c, 1, 70, 58
1, 8928, Note_on_c, 1, 67, 58
1, 8928, Note_on_c, 1, 64, 58
1, 9024, Note_on_c, 0, 73, 0
1, 9024, Note_on_c, 0, 82, 58
1, 9193, Note_on_c, 1, 70, 0
1, 9193, Note_on_c, 1, 67, 0
1, 9193, Note_on_c, 1, 64, 0
1, 9201, Note_on_c, 0, 82, 0
1, 9216, Note_on_c, 0, 74, 80
1, 9216, Note_on_c, 1, 69, 80
1, 9216, Note_on_c, 1, 65, 80
1, 9265, Note_on_c, 0, 74, 0
1, 9270, Note_on_c, 0, 76, 80
1, 9276, Note_on_c, 0, 76, 0
1, 9276, Note_on_c, 0, 74, 80
1, 9282, Note_on_c, 0, 74, 0
1, 9282, Note_on_c, 0, 73, 80
1, 9288, Note_on_c, 0, 73, 0
1, 9288, Note_on_c, 0, 74, 80
1, 9305, Note_on_c, 1, 69, 0
1, 9305, Note_on_c, 1, 65, 0
1, 9311, Note_on_c, 0, 74, 0
1, 9312, Note_on_c, 0, 76, 80
1, 9312, Note_on_c, 1, 69, 80
1, 9312, Note_on_c, 1, 61, 80
1, 9361, Note_on_c, 0, 76, 0
1, 9366, Note_on_c, 0, 77, 80
1, 9372, Note_on_c, 0, 77, 0
1, 9372, Note_on_c, 0, 76, 80
1, 9378, Note_on_c, 0, 76, 0
1, 9378, Note_on_c, 0, 74, 80
1, 9384, Note_on_c, 0, 74, 0
1, 9384, Note_on_c, 0, 76, 80
1, 9401, Note_on_c, 1, 69, 0
1, 9401, Note_on_c, 1, 61, 0
1, 9407, Note_on_c, 0, 76, 0
1, 9408, Note_on_c, 0, 77, 80
1, 9408, Note_on_c, 1, 69, 80
1, 9408, Note_on_c, 1, 62, 80
1, 9457, Note_on_c, 0, 77, 0
1, 9462, Note_on_c, 0, 79, 80
1, 9468, Note_on_c, 0, 79, 0
1, 9468, Note_on_c, 0, 77, 80
1, 9474, Note_on_c, 0, 77, 0
1, 9474, Note_on_c, 0, 76, 80
1, 9480, Note_on_c, 0, 76, 0
1, 9480, Note_on_c, 0, 77, 80
1, 9497, Note_on_c, 1, 69, 0
1, 9497, Note_on_c, 1, 62, 0
1, 9503, Note_on_c, 0, 77, 0
1, 9504, Note_on_c, 0, 81, 80
1, 9504, Note_on_c, 0, 77, 80
1, 9504, Note_on_c, 1, 62, 80
1, 9504, Note_on_c, 1, 59, 80
1, 9667, Note_on_c, 0, 81, 0
1, 9667, Note_on_c, 0, 77, 0
1, 9672, Note_on_c, 0, 79, 80
1, 9672, Note_on_c, 0, 76, 80
1, 9681, Note_on_c, 1, 62, 0
1, 9681, Note_on_c, 1, 59, 0
1, 9695, Note_on_c, 0, 79, 0
1, 9695, Note_on_c, 0, 76, 0
1, 9696, Note_on_c, 0, 77, 80
1, 9696, Note_on_c, 0, 74, 80
1, 9696, Note_on_c, 1, 60, 80
1, 9741, Note_on_c, 1, 60, 0
1, 9743, Note_on_c, 0, 77, 0
1, 9743, Note_on_c, 0, 74, 0
1, 9768, Note_on_c, 0, 76, 77
1, 9768, Note_on_c, 0, 72, 77
1, 9791, Note_on_c, 0, 76, 0
1, 9791, Note_on_c, 0, 72, 0
1, 9792, Note_on_c, 0, 76, 76
1, 9792, Note_on_c, 0, 69, 70
1, 9792, Note_on_c, 1, 65, 76
1, 9792, Note_on_c, 1, 53, 76
1, 9859, Note_on_c, 0, 76, 0
1, 9864, Note_on_c, 0, 74, 73
1, 9881, Note_on_c, 0, 69, 0
1, 9881, Note_on_c, 1, 65, 0
1, 9881, Note_on_c, 1, 53, 0
1, 9887, Note_on_c, 0, 74, 0
1, 9888, Note_on_c, 0, 72, 72
1, 9888, Note_on_c, 0, 67, 70
1, 9888, Note_on_c, 1, 64, 72
1, 9888, Note_on_c, 1, 55, 72
1, 9908, Note_on_c, 0, 72, 0
1, 9908, Note_on_c, 0, 67, 0
1, 9908, Note_on_c, 1, 64, 0
1, 9908, Note_on_c, 1, 55, 0
1, 9984, Note_on_c, 0, 72, 64
1, 9984, Note_on_c, 0, 65, 70
1, 9984, Note_on_c, 1, 62, 64
1, 9984, Note_on_c, 1, 55, 64
1, 9990, Note_on_c, 0, 72, 0
1, 9990, Note_on_c, 0, 71, 64
1, 9996, Note_on_c, 0, 71, 0
1, 9996, Note_on_c, 0, 69, 64
1, 10002, Note_on_c, 0, 69, 0
1, 10002, Note_on_c, 0, 71, 64
1, 10029, Note_on_c, 0, 71, 0
1, 10029, Note_on_c, 0, 65, 0
1, 10029, Note_on_c, 1, 62, 0
1, 10029, Note_on_c, 1, 55, 0
1, 10080, Note_on_c, 0, 72, 64
1, 10080, Note_on_c, 0, 64, 64
1, 10080, Note_on_c, 1, 60, 64
1, 10080, Note_on_c, 1, 48, 64
1, 10169, Note_on_c, 0, 72, 0
1, 10169, Note_on_c, 0, 64, 0
1, 10169, Note_on_c, 1, 60, 0
1, 10169, Note_on_c, 1, 48, 0
1, 10368, Note_on_c, 0, 79, 80
1, 10368, Note_on_c, 1, 67, 80
1, 10368, Note_on_c, 1, 63, 80
1, 10417, Note_on_c, 0, 79, 0
1, 10422, Note_on_c, 0, 80, 80
1, 10428, Note_on_c, 0, 80, 0
1, 10428, Note_on_c, 0, 79, 80
1, 10434, Note_on_c, 0, 79, 0
1, 10434, Note_on_c, 0, 78, 80
1, 10440, Note_on_c, 0, 78, 0
1, 10440, Note_on_c, 0, 79, 77
1, 10463, Note_on_c, 0, 79, 0
1, 10464, Note_on_c, 0, 84, 76
1, 10545, Note_on_c, 1, 67, 0
1, 10545, Note_on_c, 1, 63, 0
1, 10560, Note_on_c, 0, 84, 0
1, 10560, Note_on_c, 0, 83, 72
1, 10560, Note_on_c, 1, 65, 72
1, 10560, Note_on_c, 1, 62, 72
1, 10649, Note_on_c, 0, 83, 0
1, 10649, Note_on_c, 1, 65, 0
1, 10649, Note_on_c, 1, 62, 0
1, 10656, Note_on_c, 0, 80, 68
1, 10656, Note_on_c, 1, 63, 68
1, 10656, Note_on_c, 1, 60, 68
1, 10745, Note_on_c, 1, 63, 0
1, 10745, Note_on_c, 1, 60, 0
1, 10752, Note_on_c, 0, 80, 0
1, 10752, Note_on_c, 0, 79, 64
1, 10752, Note_on_c, 1, 62, 64
1, 10752, Note_on_c, 1, 59, 64
1, 10841, Note_on_c, 0, 79, 0
1, 10841, Note_on_c, 1, 62, 0
1, 10841, Note_on_c, 1, 59, 0
1, 10944, Note_on_c, 0, 77, 64
1, 10944, Note_on_c, 1, 72, 64
1, 10944, Note_on_c, 1, 68, 64
1, 10989, Note_on_c, 0, 77, 0
1, 10992, Note_on_c, 0, 79, 64
1, 10998, Note_on_c, 0, 79, 0
1, 10998, Note_on_c, 0, 77, 64
1, 11004, Note_on_c, 0, 77, 0
1, 11004, Note_on_c, 0, 76, 64
1, 11010, Note_on_c, 0, 76, 0
1, 11010, Note_on_c, 0, 77, 64
1, 11026, Note_on_c, 0, 77, 0
1, 11028, Note_on_c, 0, 79, 64
1, 11033, Note_on_c, 1, 72, 0
1, 11033, Note_on_c, 1, 68, 0
1, 11040, Note_on_c, 0, 79, 0
1, 11040, Note_on_c, 0, 75, 64
1, 11040, Note_on_c, 1, 70, 64
1, 11040, Note_on_c, 1, 67, 64
1, 11079, Note_on_c, 0, 75, 0
1, 11079, Note_on_c, 1, 70, 0
1, 11079, Note_on_c, 1, 67, 0
1, 11232, Note_on_c, 0, 74, 80
1, 11232, Note_on_c, 0, 72, 80
1, 11232, Note_on_c, 1, 54, 80
1, 11281, Note_on_c, 1, 54, 0
1, 11286, Note_on_c, 1, 55, 80
1, 11292, Note_on_c, 1, 55, 0
1, 11292, Note_on_c, 1, 54, 80
1, 11298, Note_on_c, 1, 54, 0
1, 11298, Note_on_c, 1, 52, 80
1, 11304, Note_on_c, 1, 52, 0
1, 11304, Note_on_c, 1, 54, 80
1, 11327, Note_on_c, 1, 54, 0
1, 11328, Note_on_c, 1, 69, 80
1, 11424, Note_on_c, 1, 69, 0
1, 11424, Note_on_c, 1, 66, 77
1, 11513, Note_on_c, 1, 66, 0
1, 11520, Note_on_c, 1, 67, 75
1, 11609, Note_on_c, 0, 72, 0
1, 11616, Note_on_c, 0, 71, 70
1, 11697, Note_on_c, 0, 74, 0
1, 11697, Note_on_c, 1, 67, 0
1, 11705, Note_on_c, 0, 71, 0
1, 11712, Note_on_c, 0, 75, 64
1, 11712, Note_on_c, 0, 72, 64
1, 11712, Note_on_c, 1, 65, 70
1, 11735, Note_on_c, 1, 65, 0
1, 11736, Note_on_c, 1, 63, 70
1, 11759, Note_on_c, 1, 63, 0
1, 11760, Note_on_c, 1, 62, 70
1, 11783, Note_on_c, 1, 62, 0
1, 11784, Note_on_c, 1, 60, 70
1, 11807, Note_on_c, 1, 60, 0
1, 11808, Note_on_c, 0, 75, 0
1, 11808, Note_on_c, 0, 72, 0
1, 11808, Note_on_c, 0, 74, 64
1, 11808, Note_on_c, 0, 71, 64
1, 11808, Note_on_c, 1, 67, 70
1, 11847, Note_on_c, 1, 67, 0
1, 11897, Note_on_c, 0, 74, 0
1, 11897, Note_on_c, 0, 71, 0
1, 12000, Note_on_c, 0, 84, 58
1, 12000, Note_on_c, 0, 75, 58
1, 12000, Note_on_c, 1, 65, 58
1, 12023, Note_on_c, 1, 65, 0
1, 12024, Note_on_c, 1, 63, 58
1, 12047, Note_on_c, 1, 63, 0
1, 12048, Note_on_c, 1, 62, 58
1, 12071, Note_on_c, 1, 62, 0
1, 12072, Note_on_c, 1, 60, 58
1, 12095, Note_on_c, 1, 60, 0
1, 12096, Note_on_c, 0, 84, 0
1, 12096, Note_on_c, 0, 75, 0
1, 12096, Note_on_c, 0, 83, 58
1, 12096, Note_on_c, 0, 74, 58
1, 12096, Note_on_c, 1, 67, 58
1, 12135, Note_on_c, 1, 67, 0
1, 12185, Note_on_c, 0, 83, 0
1, 12185, Note_on_c, 0, 74, 0
1, 12384, Note_on_c, 0, 55, 80
1, 12384, Note_on_c, 1, 52, 80
1, 12384, Note_on_c, 1, 48, 80
1, 12433, Note_on_c, 0, 55, 0
1, 12438, Note_on_c, 0, 57, 80
1, 12444, Note_on_c, 0, 57, 0
1, 12444, Note_on_c, 0, 55, 80
1, 12450, Note_on_c, 0, 55, 0
1, 12450, Note_on_c, 0, 54, 80
1, 12456, Note_on_c, 0, 54, 0
1, 12456, Note_on_c, 0, 55, 80
1, 12479, Note_on_c, 0, 55, 0
1, 12480, Note_on_c, 0, 64, 80
1, 12576, Note_on_c, 0, 64, 0
1, 12576, Note_on_c, 0, 60, 80
1, 12649, Note_on_c, 1, 52, 0
1, 12649, Note_on_c, 1, 48, 0
1, 12665, Note_on_c, 0, 60, 0
1, 12672, Note_on_c, 0, 59, 80
1, 12672, Note_on_c, 1, 55, 80
1, 12672, Note_on_c, 1, 53, 80
1, 12672, Note_on_c, 1, 50, 80
1, 12768, Note_on_c, 0, 59, 0
1, 12768, Note_on_c, 0, 67, 70
1, 12788, Note_on_c, 0, 67, 0
1, 12849, Note_on_c, 1, 55, 0
1, 12849, Note_on_c, 1, 53, 0
1, 12849, Note_on_c, 1, 50, 0
1, 12960, Note_on_c, 0, 60, 70
1, 13008, Note_on_c, 0, 60, 0
1, 13008, Note_on_c, 0, 62, 70
1, 13020, Note_on_c, 0, 62, 0
1, 13020, Note_on_c, 0, 64, 70
1, 13031, Note_on_c, 0, 64, 0
1, 13031, Note_on_c, 0, 65, 70
1, 13042, Note_on_c, 0, 65, 0
1, 13042, Note_on_c, 0, 67, 71
1, 13053, Note_on_c, 0, 67, 0
1, 13053, Note_on_c, 0, 69, 71
1, 13064, Note_on_c, 0, 69, 0
1, 13064, Note_on_c, 0, 71, 71
1, 13075, Note_on_c, 0, 71, 0
1, 13075, Note_on_c, 0, 72, 71
1, 13086, Note_on_c, 0, 72, 0
1, 13086, Note_on_c, 0, 74, 71
1, 13097, Note_on_c, 0, 74, 0
1, 13097, Note_on_c, 0, 76, 71
1, 13108, Note_on_c, 0, 76, 0
1, 13108, Note_on_c, 0, 77, 72
1, 13119, Note_on_c, 0, 77, 0
1, 13119, Note_on_c, 0, 79, 72
1, 13130, Note_on_c, 0, 79, 0
1, 13130, Note_on_c, 0, 81, 72
1, 13141, Note_on_c, 0, 81, 0
1, 13141, Note_on_c, 0, 83, 72
1, 13152, Note_on_c, 0, 83, 0
1, 13152, Note_on_c, 0, 84, 75
1, 13162, Note_on_c, 0, 84, 0
1, 13176, Note_on_c, 0, 79, 74
1, 13186, Note_on_c, 0, 79, 0
1, 13200, Note_on_c, 0, 76, 73
1, 13210, Note_on_c, 0, 76, 0
1, 13224, Note_on_c, 0, 72, 73
1, 13234, Note_on_c, 0, 72, 0
1, 13248, Note_on_c, 0, 71, 72
1, 13248, Note_on_c, 1, 67, 80
1, 13248, Note_on_c, 1, 65, 80
1, 13248, Note_on_c, 1, 62, 80
1, 13342, Note_on_c, 0, 71, 0
1, 13344, Note_on_c, 0, 79, 70
1, 13383, Note_on_c, 0, 79, 0
1, 13425, Note_on_c, 1, 67, 0
1, 13425, Note_on_c, 1, 65, 0
1, 13425, Note_on_c, 1, 62, 0
1, 13536, Note_on_c, 0, 73, 58
1, 13536, Note_on_c, 1, 70, 58
1, 13536, Note_on_c, 1, 67, 58
1, 13536, Note_on_c, 1, 64, 58
1, 13632, Note_on_c, 0, 73, 0
1, 13632, Note_on_c, 0, 82, 58
1, 13801, Note_on_c, 1, 70, 0
1, 13801, Note_on_c, 1, 67, 0
1, 13801, Note_on_c, 1, 64, 0
1, 13809, Note_on_c, 0, 82, 0
1, 13824, Note_on_c, 0, 74, 80
1, 13824, Note_on_c, 1, 69, 80
1, 13824, Note_on_c, 1, 65, 80
1, 13873, Note_on_c, 0, 74, 0
1, 13878, Note_on_c, 0, 76, 80
1, 13884, Note_on_c, 0, 76, 0
1, 13884, Note_on_c, 0, 74, 80
1, 13890, Note_on_c, 0, 74, 0
1, 13890, Note_on_c, 0, 73, 80
1, 13896, Note_on_c, 0, 73, 0
1, 13896, Note_on_c, 0, 74, 80
1, 13913, Note_on_c, 1, 69, 0
1, 13913, Note_on_c, 1, 65, 0
1, 13919, Note_on_c, 0, 74, 0
1, 13920, Note_on_c, 0, 76, 80
1, 13920, Note_on_c, 1, 69, 80
1, 13920, Note_on_c, 1, 61, 80
1, 13969, Note_on_c, 0, 76, 0
1, 13974, Note_on_c, 0, 77, 80
1, 13980, Note_on_c, 0, 77, 0
1, 13980, Note_on_c, 0, 76, 80
1, 13986, Note_on_c, 0, 76, 0
1, 13986, Note_on_c, 0, 74, 80
1, 13992, Note_on_c, 0, 74, 0
1, 13992, Note_on_c, 0, 76, 80
1, 14009, Note_on_c, 1, 69, 0
1, 14009, Note_on_c, 1, 61, 0
1, 14015, Note_on_c, 0, 76, 0
1, 14016, Note_on_c, 0, 77, 80
1, 14016, Note_on_c, 1, 69, 80
1, 14016, Note_on_c, 1, 62, 80
1, 14065, Note_on_c, 0, 77, 0
1, 14070, Note_on_c, 0, 79, 80
1, 14076, Note_on_c, 0, 79, 0
1, 14076, Note_on_c, 0, 77, 80
1, 14082, Note_on_c, 0, 77, 0
1, 14082, Note_on_c, 0, 76, 80
1, 14088, Note_on_c, 0, 76, 0
1, 14088, Note_on_c, 0, 77, 80
1, 14105, Note_on_c, 1, 69, 0
1, 14105, Note_on_c, 1, 62, 0
1, 14111, Note_on_c, 0, 77, 0
1, 14112, Note_on_c, 0, 81, 80
1, 14112, Note_on_c, 0, 77, 80
1, 14112, Note_on_c, 1, 62, 80
1, 14112, Note_on_c, 1, 59, 80
1, 14275, Note_on_c, 0, 81, 0
1, 14275, Note_on_c, 0, 77, 0
1, 14280, Note_on_c, 0, 79, 80
1, 14280, Note_on_c, 0, 76, 80
1, 14289, Note_on_c, 1, 62, 0
1, 14289, Note_on_c, 1, 59, 0
1, 14303, Note_on_c, 0, 79, 0
1, 14303, Note_on_c, 0, 76, 0
1, 14304, Note_on_c, 0, 77, 80
1, 14304, Note_on_c, 0, 74, 80
1, 14304, Note_on_c, 1, 60, 80
1, 14349, Note_on_c, 1, 60, 0
1, 14351, Note_on_c, 0, 77, 0
1, 14351, Note_on_c, 0, 74, 0
1, 14376, Note_on_c, 0, 76, 77
1, 14376, Note_on_c, 0, 72, 77
1, 14399, Note_on_c, 0, 76, 0
1, 14399, Note_on_c, 0, 72, 0
1, 14400, Note_on_c, 0, 76, 76
1, 14400, Note_on_c, 0, 69, 70
1, 14400, Note_on_c, 1, 65, 76
1, 14400, Note_on_c, 1, 53, 76
1, 14467, Note_on_c, 0, 76, 0
1, 14472, Note_on_c, 0, 74, 73
1, 14489, Note_on_c, 0, 69, 0
1, 14489, Note_on_c, 1, 65, 0
1, 14489, Note_on_c, 1, 53, 0
1, 14495, Note_on_c, 0, 74, 0
1, 14496, Note_on_c, 0, 72, 72
1, 14496, Note_on_c, 0, 67, 70
1, 14496, Note_on_c, 1, 64, 72
1, 14496, Note_on_c, 1, 55, 72
1, 14516, Note_on_c, 0, 72, 0
1, 14516, Note_on_c, 0, 67, 0
1, 14516, Note_on_c, 1, 64, 0
1, 14516, Note_on_c, 1, 55, 0
1, 14592, Note_on_c, 0, 72, 64
1, 14592, Note_on_c, 0, 65, 70
1, 14592, Note_on_c, 1, 62, 64
1, 14592, Note_on_c, 1, 55, 64
1, 14598, Note_on_c, 0, 72, 0
1, 14598, Note_on_c, 0, 71, 64
1, 14604, Note_on_c, 0, 71, 0
1, 14604, Note_on_c, 0, 69, 64
1, 14610, Note_on_c, 0, 69, 0
1, 14610, Note_on_c, 0, 71, 64
1, 14637, Note_on_c, 0, 71, 0
1, 14637, Note_on_c, 0, 65, 0
1, 14637, Note_on_c, 1, 62, 0
1, 14637, Note_on_c, 1, 55, 0
1, 14688, Note_on_c, 0, 72, 64
1, 14688, Note_on_c, 0, 64, 64
1, 14688, Note_on_c, 1, 60, 64
1, 14688, Note_on_c, 1, 48, 64
1, 14777, Note_on_c, 0, 72, 0
1, 14777, Note_on_c, 0, 64, 0
1, 14777, Note_on_c, 1, 60, 0
1, 14777, Note_on_c, 1, 48, 0
1, 14976, Note_on_c, 0, 67, 80
1, 14976, Note_on_c, 1, 63, 80
1, 14976, Note_on_c, 1, 60, 80
1, 15025, Note_on_c, 0, 67, 0
1, 15030, Note_on_c, 0, 68, 80
1, 15036, Note_on_c, 0, 68, 0
1, 15036, Note_on_c, 0, 67, 80
1, 15042, Note_on_c, 0, 67, 0
1, 15042, Note_on_c, 0, 66, 80
1, 15048, Note_on_c, 0, 66, 0
1, 15048, Note_on_c, 0, 67, 80
1, 15071, Note_on_c, 0, 67, 0
1, 15072, Note_on_c, 0, 75, 80
1, 15168, Note_on_c, 0, 75, 0
1, 15168, Note_on_c, 0, 72, 80
1, 15241, Note_on_c, 1, 63, 0
1, 15241, Note_on_c, 1, 60, 0
1, 15257, Note_on_c, 0, 72, 0
1, 15264, Note_on_c, 0, 71, 80
1, 15264, Note_on_c, 1, 62, 80
1, 15313, Note_on_c, 1, 62, 0
1, 15318, Note_on_c, 1, 63, 80
1, 15324, Note_on_c, 1, 63, 0
1, 15324, Note_on_c, 1, 62, 80
1, 15330, Note_on_c, 1, 62, 0
1, 15330, Note_on_c, 1, 61, 80
1, 15336, Note_on_c, 1, 61, 0
1, 15336, Note_on_c, 1, 62, 80
1, 15359, Note_on_c, 1, 62, 0
1, 15360, Note_on_c, 1, 68, 80
1, 15456, Note_on_c, 1, 68, 0
1, 15456, Note_on_c, 1, 65, 80
1, 15529, Note_on_c, 0, 71, 0
1, 15545, Note_on_c, 1, 65, 0
1, 15552, Note_on_c, 0, 72, 80
1, 15552, Note_on_c, 1, 67, 80
1, 15552, Note_on_c, 1, 63, 80
1, 15601, Note_on_c, 0, 72, 0
1, 15606, Note_on_c, 0, 74, 80
1, 15612, Note_on_c, 0, 74, 0
1, 15612, Note_on_c, 0, 72, 80
1, 15618, Note_on_c, 0, 72, 0
1, 15618, Note_on_c, 0, 71, 80
1, 15624, Note_on_c, 0, 71, 0
1, 15624, Note_on_c, 0, 72, 80
1, 15647, Note_on_c, 0, 72, 0
1, 15648, Note_on_c, 0, 79, 80
1, 15744, Note_on_c, 0, 79, 0
1, 15744, Note_on_c, 0, 75, 80
1, 15817, Note_on_c, 1, 67, 0
1, 15817, Note_on_c, 1, 63, 0
1, 15833, Note_on_c, 0, 75, 0
1, 15840, Note_on_c, 0, 74, 80
1, 15840, Note_on_c, 1, 68, 80
1, 15840, Note_on_c, 1, 65, 80
1, 15863, Note_on_c, 0, 74, 0
1, 15864, Note_on_c, 0, 75, 80
1, 15887, Note_on_c, 0, 75, 0
1, 15888, Note_on_c, 0, 77, 81
1, 15911, Note_on_c, 0, 77, 0
1, 15912, Note_on_c, 0, 75, 81
1, 15935, Note_on_c, 0, 75, 0
1, 15936, Note_on_c, 0, 79, 82
1, 15981, Note_on_c, 0, 79, 0
1, 15984, Note_on_c, 0, 77, 83
1, 16017, Note_on_c, 1, 68, 0
1, 16017, Note_on_c, 1, 65, 0
1, 16029, Note_on_c, 0, 77, 0
1, 16032, Note_on_c, 0, 75, 84
1, 16032, Note_on_c, 1, 69, 86
1, 16032, Note_on_c, 1, 66, 86
1, 16077, Note_on_c, 0, 75, 0
1, 16080, Note_on_c, 0, 74, 86
1, 16121, Note_on_c, 1, 69, 0
1, 16121, Note_on_c, 1, 66, 0
1, 16125, Note_on_c, 0, 74, 0
1, 16128, Note_on_c, 0, 72, 86
1, 16128, Note_on_c, 1, 67, 86
1, 16176, Note_on_c, 0, 72, 0
1, 16176, Note_on_c, 0, 71, 83
1, 16217, Note_on_c, 1, 67, 0
1, 16221, Note_on_c, 0, 71, 0
1, 16224, Note_on_c, 1, 55, 80
1, 16313, Note_on_c, 1, 55, 0
1, 16416, Note_on_c, 0, 74, 80
1, 16416, Note_on_c, 1, 55, 80
1, 16416, Note_on_c, 1, 50, 80
1, 16416, Note_on_c, 1, 46, 80
1, 16416, Note_on_c, 1, 43, 80
1, 16465, Note_on_c, 0, 74, 0
1, 16470, Note_on_c, 0, 75, 80
1, 16476, Note_on_c, 0, 75, 0
1, 16476, Note_on_c, 0, 74, 80
1, 16482, Note_on_c, 0, 74, 0
1, 16482, Note_on_c, 0, 73, 80
1, 16488, Note_on_c, 0, 73, 0
1, 16488, Note_on_c, 0, 74, 80
1, 16511, Note_on_c, 0, 74, 0
1, 16512, Note_on_c, 0, 82, 80
1, 16608, Note_on_c, 0, 82, 0
1, 16608, Note_on_c, 0, 79, 80
1, 16681, Note_on_c, 1, 55, 0
1, 16681, Note_on_c, 1, 50, 0
1, 16681, Note_on_c, 1, 46, 0
1, 16681, Note_on_c, 1, 43, 0
1, 16697, Note_on_c, 0, 79, 0
1, 16704, Note_on_c, 0, 78, 80
1, 16704, Note_on_c, 1, 51, 80
1, 16704, Note_on_c, 1, 48, 80
1, 16704, Note_on_c, 1, 45, 80
1, 16727, Note_on_c, 0, 78, 0
1, 16728, Note_on_c, 0, 75, 80
1, 16751, Note_on_c, 0, 75, 0
1, 16752, Note_on_c, 0, 74, 80
1, 16775, Note_on_c, 0, 74, 0
1, 16776, Note_on_c, 0, 72, 80
1, 16799, Note_on_c, 0, 72, 0
1, 16800, Note_on_c, 0, 70, 80
1, 16823, Note_on_c, 0, 70, 0
1, 16824, Note_on_c, 0, 69, 80
1, 16847, Note_on_c, 0, 69, 0
1, 16848, Note_on_c, 0, 67, 80
1, 16871, Note_on_c, 0, 67, 0
1, 16872, Note_on_c, 0, 66, 80
1, 16895, Note_on_c, 0, 66, 0
1, 16896, Note_on_c, 0, 63, 80
1, 16919, Note_on_c, 0, 63, 0
1, 16920, Note_on_c, 0, 62, 80
1, 16943, Note_on_c, 0, 62, 0
1, 16944, Note_on_c, 0, 60, 80
1, 16967, Note_on_c, 0, 60, 0
1, 16968, Note_on_c, 0, 58, 80
1, 16969, Note_on_c, 1, 51, 0
1, 16969, Note_on_c, 1, 48, 0
1, 16969, Note_on_c, 1, 45, 0
1, 16991, Note_on_c, 0, 58, 0
1, 16992, Note_on_c, 1, 57, 80
1, 16992, Note_on_c, 0, 50, 64
1, 16992, Note_on_c, 0, 46, 64
1, 17015, Note_on_c, 1, 57, 0
1, 17016, Note_on_c, 1, 55, 80
1, 17039, Note_on_c, 1, 55, 0
1, 17040, Note_on_c, 1, 53, 80
1, 17063, Note_on_c, 1, 53, 0
1, 17064, Note_on_c, 1, 51, 80
1, 17081, Note_on_c, 0, 50, 0
1, 17081, Note_on_c, 0, 46, 0
1, 17087, Note_on_c, 1, 51, 0
1, 17088, Note_on_c, 1, 50, 80
1, 17111, Note_on_c, 1, 50, 0
1, 17112, Note_on_c, 1, 48, 78
1, 17135, Note_on_c, 1, 48, 0
1, 17136, Note_on_c, 1, 46, 77
1, 17159, Note_on_c, 1, 46, 0
1, 17160, Note_on_c, 1, 45, 76
1, 17183, Note_on_c, 1, 45, 0
1, 17184, Note_on_c, 1, 43, 74
1, 17207, Note_on_c, 1, 43, 0
1, 17208, Note_on_c, 1, 41, 73
1, 17231, Note_on_c, 1, 41, 0
1, 17232, Note_on_c, 1, 39, 72
1, 17255, Note_on_c, 1, 39, 0
1, 17256, Note_on_c, 1, 38, 70
1, 17279, Note_on_c, 1, 38, 0
1, 17280, Note_on_c, 1, 36, 69
1, 17376, Note_on_c, 1, 36, 0
1, 17376, Note_on_c, 1, 33, 64
1, 17465, Note_on_c, 1, 33, 0
1, 17472, Note_on_c, 1, 38, 64
1, 17561, Note_on_c, 1, 38, 0
1, 17568, Note_on_c, 1, 31, 64
1, 17745, Note_on_c, 1, 31, 0
1, 17856, Note_on_c, 1, 63, 75
1, 17856, Note_on_c, 1, 60, 75
1, 17880, Note_on_c, 0, 67, 75
1, 17903, Note_on_c, 0, 67, 0
1, 17904, Note_on_c, 0, 68, 75
1, 17927, Note_on_c, 0, 68, 0
1, 17928, Note_on_c, 0, 69, 75
1, 17945, Note_on_c, 1, 63, 0
1, 17945, Note_on_c, 1, 60, 0
1, 17951, Note_on_c, 0, 69, 0
1, 17952, Note_on_c, 0, 70, 75
1, 17975, Note_on_c, 0, 70, 0
1, 17976, Note_on_c, 0, 71, 75
1, 17999, Note_on_c, 0, 71, 0
1, 18000, Note_on_c, 0, 72, 75
1, 18023, Note_on_c, 0, 72, 0
1, 18024, Note_on_c, 0, 74, 75
1, 18047, Note_on_c, 0, 74, 0
1, 18048, Note_on_c, 0, 77, 75
1, 18071, Note_on_c, 0, 77, 0
1, 18072, Note_on_c, 0, 75, 75
1, 18095, Note_on_c, 0, 75, 0
1, 18096, Note_on_c, 0, 74, 75
1, 18119, Note_on_c, 0, 74, 0
1, 18120, Note_on_c, 0, 72, 75
1, 18143, Note_on_c, 0, 72, 0
1, 18144, Note_on_c, 0, 72, 75
1, 18168, Note_on_c, 1, 55, 75
1, 18191, Note_on_c, 1, 55, 0
1, 18192, Note_on_c, 1, 62, 75
1, 18215, Note_on_c, 1, 62, 0
1, 18216, Note_on_c, 1, 63, 75
1, 18239, Note_on_c, 1, 63, 0
1, 18240, Note_on_c, 1, 64, 75
1, 18263, Note_on_c, 1, 64, 0
1, 18264, Note_on_c, 1, 65, 75
1, 18287, Note_on_c, 1, 65, 0
1, 18288, Note_on_c, 1, 66, 75
1, 18311, Note_on_c, 1, 66, 0
1, 18312, Note_on_c, 1, 67, 75
1, 18335, Note_on_c, 1, 67, 0
1, 18336, Note_on_c, 0, 72, 0
1, 18336, Note_on_c, 0, 71, 75
1, 18336, Note_on_c, 1, 68, 75
1, 18359, Note_on_c, 1, 68, 0
1, 18360, Note_on_c, 1, 67, 75
1, 18383, Note_on_c, 1, 67, 0
1, 18384, Note_on_c, 1, 68, 75
1, 18407, Note_on_c, 1, 68, 0
1, 18408, Note_on_c, 1, 65, 75
1, 18425, Note_on_c, 0, 71, 0
1, 18431, Note_on_c, 1, 65, 0
1, 18432, Note_on_c, 1, 67, 75
1, 18432, Note_on_c, 1, 63, 75
1, 18456, Note_on_c, 0, 72, 75
1, 18479, Note_on_c, 0, 72, 0
1, 18480, Note_on_c, 0, 75, 75
1, 18503, Note_on_c, 0, 75, 0
1, 18504, Note_on_c, 0, 74, 75
1, 18527, Note_on_c, 0, 74, 0
1, 18528, Note_on_c, 0, 77, 75
1, 18551, Note_on_c, 0, 77, 0
1, 18552, Note_on_c, 0, 75, 75
1, 18575, Note_on_c, 0, 75, 0
1, 18576, Note_on_c, 0, 79, 75
1, 18599, Note_on_c, 0, 79, 0
1, 18600, Note_on_c, 0, 77, 75
1, 18623, Note_on_c, 0, 77, 0
1, 18624, Note_on_c, 0, 80, 75
1, 18647, Note_on_c, 0, 80, 0
1, 18648, Note_on_c, 0, 79, 75
1, 18671, Note_on_c, 0, 79, 0
1, 18672, Note_on_c, 0, 77, 75
1, 18695, Note_on_c, 0, 77, 0
1, 18696, Note_on_c, 0, 75, 75
1, 18697, Note_on_c, 1, 67, 0
1, 18697, Note_on_c, 1, 63, 0
1, 18719, Note_on_c, 0, 75, 0
1, 18720, Note_on_c, 0, 74, 75
1, 18720, Note_on_c, 1, 68, 75
1, 18720, Note_on_c, 1, 65, 75
1, 18743, Note_on_c, 0, 74, 0
1, 18744, Note_on_c, 0, 75, 75
1, 18767, Note_on_c, 0, 75, 0
1, 18768, Note_on_c, 0, 77, 75
1, 18791, Note_on_c, 0, 77, 0
1, 18792, Note_on_c, 0, 79, 75
1, 18815, Note_on_c, 0, 79, 0
1, 18816, Note_on_c, 0, 82, 75
1, 18839, Note_on_c, 0, 82, 0
1, 18840, Note_on_c, 0, 80, 75
1, 18863, Note_on_c, 0, 80, 0
1, 18864, Note_on_c, 0, 79, 75
1, 18887, Note_on_c, 0, 79, 0
1, 18888, Note_on_c, 0, 77, 75
1, 18897, Note_on_c, 1, 68, 0
1, 18897, Note_on_c, 1, 65, 0
1, 18911, Note_on_c, 0, 77, 0
1, 18912, Note_on_c, 0, 77, 75
1, 18912, Note_on_c, 1, 69, 75
1, 18912, Note_on_c, 1, 66, 75
1, 18935, Note_on_c, 0, 77, 0
1, 18936, Note_on_c, 0, 75, 75
1, 18959, Note_on_c, 0, 75, 0
1, 18960, Note_on_c, 0, 74, 75
1, 18983, Note_on_c, 0, 74, 0
1, 18984, Note_on_c, 0, 72, 75
1, 19001, Note_on_c, 1, 69, 0
1, 19001, Note_on_c, 1, 66, 0
1, 19007, Note_on_c, 0, 72, 0
1, 19008, Note_on_c, 0, 74, 75
1, 19008, Note_on_c, 1, 67, 75
1, 19053, Note_on_c, 0, 74, 0
1, 19056, Note_on_c, 0, 72, 75
1, 19062, Note_on_c, 0, 72, 0
1, 19062, Note_on_c, 0, 74, 75
1, 19068, Note_on_c, 0, 74, 0
1, 19068, Note_on_c, 0, 72, 75
1, 19097, Note_on_c, 1, 67, 0
1, 19101, Note_on_c, 0, 72, 0
1, 19104, Note_on_c, 0, 71, 75
1, 19104, Note_on_c, 1, 55, 75
1, 19149, Note_on_c, 0, 71, 0
1, 19193, Note_on_c, 1, 55, 0
1, 19296, Note_on_c, 1, 55, 80
1, 19296, Note_on_c, 1, 50, 80
1, 19296, Note_on_c, 1, 46, 80
1, 19296, Note_on_c, 1, 43, 80
1, 19320, Note_on_c, 0, 62, 80
1, 19343, Note_on_c, 0, 62, 0
1, 19344, Note_on_c, 0, 67, 80
1, 19367, Note_on_c, 0, 67, 0
1, 19368, Note_on_c, 0, 70, 80
1, 19391, Note_on_c, 0, 70, 0
1, 19392, Note_on_c, 0, 74, 80
1, 19415, Note_on_c, 0, 74, 0
1, 19416, Note_on_c, 0, 79, 80
1, 19439, Note_on_c, 0, 79, 0
1, 19440, Note_on_c, 0, 82, 80
1, 19463, Note_on_c, 0, 82, 0
1, 19464, Note_on_c, 0, 86, 80
1, 19487, Note_on_c, 0, 86, 0
1, 19488, Note_on_c, 0, 84, 80
1, 19511, Note_on_c, 0, 84, 0
1, 19512, Note_on_c, 0, 82, 80
1, 19535, Note_on_c, 0, 82, 0
1, 19536, Note_on_c, 0, 81, 80
1, 19559, Note_on_c, 0, 81, 0
1, 19560, Note_on_c, 0, 79, 80
1, 19561, Note_on_c, 1, 55, 0
1, 19561, Note_on_c, 1, 50, 0
1, 19561, Note_on_c, 1, 46, 0
1, 19561, Note_on_c, 1, 43, 0
1, 19583, Note_on_c, 0, 79, 0
1, 19584, Note_on_c, 0, 78, 80
1, 19584, Note_on_c, 1, 51, 80
1, 19584, Note_on_c, 1, 48, 80
1, 19584, Note_on_c, 1, 45, 80
1, 19607, Note_on_c, 0, 78, 0
1, 19608, Note_on_c, 0, 75, 80
1, 19631, Note_on_c, 0, 75, 0
1, 19632, Note_on_c, 0, 74, 80
1, 19655, Note_on_c, 0, 74, 0
1, 19656, Note_on_c, 0, 72, 80
1, 19679, Note_on_c, 0, 72, 0
1, 19680, Note_on_c, 0, 70, 80
1, 19703, Note_on_c, 0, 70, 0
1, 19704, Note_on_c, 0, 69, 80
1, 19727, Note_on_c, 0, 69, 0
1, 19728, Note_on_c, 0, 67, 80
1, 19751, Note_on_c, 0, 67, 0
1, 19752, Note_on_c, 0, 66, 80
1, 19775, Note_on_c, 0, 66, 0
1, 19776, Note_on_c, 0, 63, 80
1, 19799, Note_on_c, 0, 63, 0
1, 19800, Note_on_c, 0, 62, 80
1, 19823, Note_on_c, 0, 62, 0
1, 19824, Note_on_c, 0, 60, 80
1, 19847, Note_on_c, 0, 60, 0
1, 19848, Note_on_c, 0, 58, 80
1, 19849, Note_on_c, 1, 51, 0
1, 19849, Note_on_c, 1, 48, 0
1, 19849, Note_on_c, 1, 45, 0
1, 19871, Note_on_c, 0, 58, 0
1, 19872, Note_on_c, 1, 57, 80
1, 19872, Note_on_c, 0, 50, 64
1, 19872, Note_on_c, 0, 46, 64
1, 19895, Note_on_c, 1, 57, 0
1, 19896, Note_on_c, 1, 55, 80
1, 19919, Note_on_c, 1, 55, 0
1, 19920, Note_on_c, 1, 53, 80
1, 19943, Note_on_c, 1, 53, 0
1, 19944, Note_on_c, 1, 51, 80
1, 19961, Note_on_c, 0, 50, 0
1, 19961, Note_on_c, 0, 46, 0
1, 19967, Note_on_c, 1, 51, 0
1, 19968, Note_on_c, 1, 50, 80
1, 19991, Note_on_c, 1, 50, 0
1, 19992, Note_on_c, 1, 48, 80
1, 20015, Note_on_c, 1, 48, 0
1, 20016, Note_on_c, 1, 46, 78
1, 20039, Note_on_c, 1, 46, 0
1, 20040, Note_on_c, 1, 45, 77
1, 20063, Note_on_c, 1, 45, 0
1, 20064, Note_on_c, 1, 43, 75
1, 20087, Note_on_c, 1, 43, 0
1, 20088, Note_on_c, 1, 41, 74
1, 20111, Note_on_c, 1, 41, 0
1, 20112, Note_on_c, 1, 39, 72
1, 20135, Note_on_c, 1, 39, 0
1, 20136, Note_on_c, 1, 38, 71
1, 20159, Note_on_c, 1, 38, 0
1, 20160, Note_on_c, 1, 36, 69
1, 20208, Note_on_c, 0, 48, 64
1, 20253, Note_on_c, 0, 48, 0
1, 20256, Note_on_c, 1, 36, 0
1, 20256, Note_on_c, 1, 33, 64
1, 20304, Note_on_c, 0, 45, 64
1, 20345, Note_on_c, 1, 33, 0
1, 20349, Note_on_c, 0, 45, 0
1, 20352, Note_on_c, 1, 38, 64
1, 20400, Note_on_c, 0, 50, 64
1, 20441, Note_on_c, 1, 38, 0
1, 20445, Note_on_c, 0, 50, 0
1, 20448, Note_on_c, 0, 43, 64
1, 20448, Note_on_c, 1, 31, 64
1, 20625, Note_on_c, 0, 43, 0
1, 20625, Note_on_c, 1, 31, 0
1, 20736, Note_on_c, 0, 67, 75
1, 20736, Note_on_c, 0, 63, 75
1, 20736, Note_on_c, 1, 43, 64
1, 20759, Note_on_c, 1, 43, 0
1, 20760, Note_on_c, 1, 45, 64
1, 20783, Note_on_c, 1, 45, 0
1, 20784, Note_on_c, 1, 47, 65
1, 20807, Note_on_c, 1, 47, 0
1, 20808, Note_on_c, 1, 48, 66
1, 20831, Note_on_c, 1, 48, 0
1, 20832, Note_on_c, 1, 50, 67
1, 20855, Note_on_c, 1, 50, 0
1, 20856, Note_on_c, 1, 51, 67
1, 20879, Note_on_c, 1, 51, 0
1, 20880, Note_on_c, 1, 53, 68
1, 20903, Note_on_c, 1, 53, 0
1, 20904, Note_on_c, 1, 55, 69
1, 20913, Note_on_c, 0, 67, 0
1, 20913, Note_on_c, 0, 63, 0
1, 20927, Note_on_c, 1, 55, 0
1, 20928, Note_on_c, 0, 65, 75
1, 20928, Note_on_c, 0, 62, 75
1, 20928, Note_on_c, 1, 56, 102
1, 21017, Note_on_c, 0, 65, 0
1, 21017, Note_on_c, 0, 62, 0
1, 21017, Note_on_c, 1, 56, 0
1, 21024, Note_on_c, 0, 67, 64
1, 21024, Note_on_c, 1, 63, 75
1, 21024, Note_on_c, 1, 60, 75
1, 21024, Note_on_c, 1, 55, 75
1, 21047, Note_on_c, 0, 67, 0
1, 21048, Note_on_c, 0, 69, 66
1, 21071, Note_on_c, 0, 69, 0
1, 21072, Note_on_c, 0, 71, 68
1, 21095, Note_on_c, 0, 71, 0
1, 21096, Note_on_c, 0, 72, 70
1, 21119, Note_on_c, 0, 72, 0
1, 21120, Note_on_c, 0, 74, 72
1, 21143, Note_on_c, 0, 74, 0
1, 21144, Note_on_c, 0, 75, 74
1, 21167, Note_on_c, 0, 75, 0
1, 21168, Note_on_c, 0, 77, 76
1, 21191, Note_on_c, 0, 77, 0
1, 21192, Note_on_c, 0, 79, 78
1, 21201, Note_on_c, 1, 63, 0
1, 21201, Note_on_c, 1, 60, 0
1, 21201, Note_on_c, 1, 55, 0
1, 21215, Note_on_c, 0, 79, 0
1, 21216, Note_on_c, 0, 80, 112
1, 21216, Note_on_c, 1, 62, 75
1, 21216, Note_on_c, 1, 59, 75
1, 21216, Note_on_c, 1, 53, 75
1, 21305, Note_on_c, 0, 80, 0
1, 21305, Note_on_c, 1, 62, 0
1, 21305, Note_on_c, 1, 59, 0
1, 21305, Note_on_c, 1, 53, 0
1, 21312, Note_on_c, 0, 79, 80
1, 21312, Note_on_c, 1, 61, 80
1, 21312, Note_on_c, 1, 58, 80
1, 21312, Note_on_c, 1, 55, 80
1, 21312, Note_on_c, 1, 52, 80
1, 21335, Note_on_c, 0, 79, 0
1, 21336, Note_on_c, 0, 80, 80
1, 21359, Note_on_c, 0, 80, 0
1, 21360, Note_on_c, 0, 82, 80
1, 21383, Note_on_c, 0, 82, 0
1, 21384, Note_on_c, 0, 84, 80
1, 21407, Note_on_c, 0, 84, 0
1, 21408, Note_on_c, 0, 85, 80
1, 21431, Note_on_c, 0, 85, 0
1, 21432, Note_on_c, 0, 84, 80
1, 21455, Note_on_c, 0, 84, 0
1, 21456, Note_on_c, 0, 82, 80
1, 21479, Note_on_c, 0, 82, 0
1, 21480, Note_on_c, 0, 80, 80
1, 21503, Note_on_c, 0, 80, 0
1, 21504, Note_on_c, 0, 79, 80
1, 21527, Note_on_c, 0, 79, 0
1, 21528, Note_on_c, 0, 82, 80
1, 21551, Note_on_c, 0, 82, 0
1, 21552, Note_on_c, 0, 80, 80
1, 21575, Note_on_c, 0, 80, 0
1, 21576, Note_on_c, 0, 79, 80
1, 21577, Note_on_c, 1, 61, 0
1, 21577, Note_on_c, 1, 58, 0
1, 21577, Note_on_c, 1, 55, 0
1, 21577, Note_on_c, 1, 52, 0
1, 21599, Note_on_c, 0, 79, 0
1, 21600, Note_on_c, 0, 80, 80
1, 21600, Note_on_c, 1, 60, 80
1, 21600, Note_on_c, 1, 56, 80
1, 21600, Note_on_c, 1, 53, 80
1, 21623, Note_on_c, 0, 80, 0
1, 21624, Note_on_c, 0, 82, 80
1, 21647, Note_on_c, 0, 82, 0
1, 21648, Note_on_c, 0, 84, 80
1, 21671, Note_on_c, 0, 84, 0
1, 21672, Note_on_c, 0, 82, 80
1, 21695, Note_on_c, 0, 82, 0
1, 21696, Note_on_c, 0, 80, 80
1, 21719, Note_on_c, 0, 80, 0
1, 21720, Note_on_c, 0, 79, 80
1, 21743, Note_on_c, 0, 79, 0
1, 21744, Note_on_c, 0, 77, 80
1, 21767, Note_on_c, 0, 77, 0
1, 21768, Note_on_c, 0, 76, 80
1, 21791, Note_on_c, 0, 76, 0
1, 21792, Note_on_c, 0, 79, 80
1, 21815, Note_on_c, 0, 79, 0
1, 21816, Note_on_c, 0, 77, 80
1, 21839, Note_on_c, 0, 77, 0
1, 21840, Note_on_c, 0, 80, 80
1, 21863, Note_on_c, 0, 80, 0
1, 21864, Note_on_c, 0, 79, 80
1, 21887, Note_on_c, 0, 79, 0
1, 21888, Note_on_c, 0, 82, 80
1, 21911, Note_on_c, 0, 82, 0
1, 21912, Note_on_c, 0, 80, 80
1, 21935, Note_on_c, 0, 80, 0
1, 21936, Note_on_c, 0, 79, 80
1, 21959, Note_on_c, 0, 79, 0
1, 21960, Note_on_c, 0, 77, 80
1, 21983, Note_on_c, 0, 77, 0
1, 21984, Note_on_c, 0, 75, 80
1, 22007, Note_on_c, 0, 75, 0
1, 22008, Note_on_c, 0, 74, 80
1, 22031, Note_on_c, 0, 74, 0
1, 22032, Note_on_c, 0, 77, 80
1, 22055, Note_on_c, 0, 77, 0
1, 22056, Note_on_c, 0, 75, 80
1, 22079, Note_on_c, 0, 75, 0
1, 22080, Note_on_c, 0, 79, 80
1, 22103, Note_on_c, 0, 79, 0
1, 22104, Note_on_c, 0, 77, 80
1, 22127, Note_on_c, 0, 77, 0
1, 22128, Note_on_c, 0, 75, 80
1, 22151, Note_on_c, 0, 75, 0
1, 22152, Note_on_c, 0, 74, 80
1, 22153, Note_on_c, 1, 60, 0
1, 22153, Note_on_c, 1, 56, 0
1, 22153, Note_on_c, 1, 53, 0
1, 22175, Note_on_c, 0, 74, 0
1, 22176, Note_on_c, 0, 72, 80
1, 22176, Note_on_c, 1, 63, 80
1, 22176, Note_on_c, 1, 60, 80
1, 22176, Note_on_c, 1, 57, 80
1, 22176, Note_on_c, 1, 54, 80
1, 22199, Note_on_c, 0, 72, 0
1, 22200, Note_on_c, 0, 71, 80
1, 22223, Note_on_c, 0, 71, 0
1, 22224, Note_on_c, 0, 74, 80
1, 22247, Note_on_c, 0, 74, 0
1, 22248, Note_on_c, 0, 72, 80
1, 22271, Note_on_c, 0, 72, 0
1, 22272, Note_on_c, 0, 75, 80
1, 22295, Note_on_c, 0, 75, 0
1, 22296, Note_on_c, 0, 74, 80
1, 22319, Note_on_c, 0, 74, 0
1, 22320, Note_on_c, 0, 77, 80
1, 22343, Note_on_c, 0, 77, 0
1, 22344, Note_on_c, 0, 75, 80
1, 22367, Note_on_c, 0, 75, 0
1, 22368, Note_on_c, 0, 77, 80
1, 22391, Note_on_c, 0, 77, 0
1, 22392, Note_on_c, 0, 75, 80
1, 22415, Note_on_c, 0, 75, 0
1, 22416, Note_on_c, 0, 74, 80
1, 22439, Note_on_c, 0, 74, 0
1, 22440, Note_on_c, 0, 72, 80
1, 22441, Note_on_c, 1, 63, 0
1, 22441, Note_on_c, 1, 60, 0
1, 22441, Note_on_c, 1, 57, 0
1, 22441, Note_on_c, 1, 54, 0
1, 22463, Note_on_c, 0, 72, 0
1, 22464, Note_on_c, 0, 71, 80
1, 22464, Note_on_c, 1, 62, 80
1, 22464, Note_on_c, 1, 55, 80
1, 22487, Note_on_c, 0, 71, 0
1, 22488, Note_on_c, 0, 74, 80
1, 22511, Note_on_c, 0, 74, 0
1, 22512, Note_on_c, 0, 72, 80
1, 22535, Note_on_c, 0, 72, 0
1, 22536, Note_on_c, 0, 69, 80
1, 22553, Note_on_c, 1, 62, 0
1, 22553, Note_on_c, 1, 55, 0
1, 22559, Note_on_c, 0, 69, 0
1, 22560, Note_on_c, 0, 67, 80
1, 22583, Note_on_c, 0, 67, 0
1, 22584, Note_on_c, 0, 71, 78
1, 22607, Note_on_c, 0, 71, 0
1, 22608, Note_on_c, 0, 69, 76
1, 22631, Note_on_c, 0, 69, 0
1, 22632, Note_on_c, 0, 66, 74
1, 22655, Note_on_c, 0, 66, 0
1, 22656, Note_on_c, 0, 67, 72
1, 22679, Note_on_c, 0, 67, 0
1, 22680, Note_on_c, 0, 62, 70
1, 22703, Note_on_c, 0, 62, 0
1, 22704, Note_on_c, 0, 63, 68
1, 22727, Note_on_c, 0, 63, 0
1, 22728, Note_on_c, 0, 60, 66
1, 22751, Note_on_c, 0, 60, 0
1, 22752, Note_on_c, 0, 62, 58
1, 22775, Note_on_c, 0, 62, 0
1, 22776, Note_on_c, 0, 59, 58
1, 22799, Note_on_c, 0, 59, 0
1, 22800, Note_on_c, 0, 60, 58
1, 22823, Note_on_c, 0, 60, 0
1, 22824, Note_on_c, 0, 57, 58
1, 22847, Note_on_c, 0, 57, 0
1, 22848, Note_on_c, 0, 59, 58
1, 22871, Note_on_c, 0, 59, 0
1, 22872, Note_on_c, 0, 55, 58
1, 22895, Note_on_c, 0, 55, 0
1, 22896, Note_on_c, 0, 57, 58
1, 22919, Note_on_c, 0, 57, 0
1, 22920, Note_on_c, 0, 54, 58
1, 22943, Note_on_c, 0, 54, 0
1, 22944, Note_on_c, 0, 55, 58
1, 22967, Note_on_c, 0, 55, 0
1, 22968, Note_on_c, 0, 59, 58
1, 22991, Note_on_c, 0, 59, 0
1, 22992, Note_on_c, 0, 50, 58
1, 23015, Note_on_c, 0, 50, 0
1, 23016, Note_on_c, 0, 55, 58
1, 23039, Note_on_c, 0, 55, 0
1, 23040, Note_on_c, 1, 31, 58
1, 23087, Note_on_c, 1, 31, 0
1, 23160, Note_on_c, 0, 43, 58
1, 23183, Note_on_c, 0, 43, 0
1, 23184, Note_on_c, 0, 45, 61
1, 23207, Note_on_c, 0, 45, 0
1, 23208, Note_on_c, 0, 47, 64
1, 23231, Note_on_c, 0, 47, 0
1, 23232, Note_on_c, 0, 48, 67
1, 23255, Note_on_c, 0, 48, 0
1, 23256, Note_on_c, 0, 50, 70
1, 23279, Note_on_c, 0, 50, 0
1, 23280, Note_on_c, 0, 52, 73
1, 23303, Note_on_c, 0, 52, 0
1, 23304, Note_on_c, 0, 53, 76
1, 23327, Note_on_c, 0, 53, 0
1, 23328, Note_on_c, 0, 55, 80
1, 23328, Note_on_c, 1, 52, 80
1, 23328, Note_on_c, 1, 48, 80
1, 23377, Note_on_c, 0, 55, 0
1, 23382, Note_on_c, 0, 57, 80
1, 23388, Note_on_c, 0, 57, 0
1, 23388, Note_on_c, 0, 55, 80
1, 23394, Note_on_c, 0, 55, 0
1, 23394, Note_on_c, 0, 54, 80
1, 23400, Note_on_c, 0, 54, 0
1, 23400, Note_on_c, 0, 55, 80
1, 23423, Note_on_c, 0, 55, 0
1, 23424, Note_on_c, 0, 64, 80
1, 23520, Note_on_c, 0, 64, 0
1, 23520, Note_on_c, 0, 60, 80
1, 23593, Note_on_c, 1, 52, 0
1, 23593, Note_on_c, 1, 48, 0
1, 23609, Note_on_c, 0, 60, 0
1, 23616, Note_on_c, 0, 59, 80
1, 23616, Note_on_c, 1, 55, 80
1, 23616, Note_on_c, 1, 53, 80
1, 23616, Note_on_c, 1, 50, 80
1, 23712, Note_on_c, 0, 59, 0
1, 23712, Note_on_c, 0, 67, 70
1, 23732, Note_on_c, 0, 67, 0
1, 23793, Note_on_c, 1, 55, 0
1, 23793, Note_on_c, 1, 53, 0
1, 23793, Note_on_c, 1, 50, 0
1, 23904, Note_on_c, 0, 67, 70
1, 23904, Note_on_c, 1, 64, 70
1, 23904, Note_on_c, 1, 60, 70
1, 23934, Note_on_c, 0, 67, 0
1, 23936, Note_on_c, 0, 79, 73
1, 23966, Note_on_c, 0, 79, 0
1, 23968, Note_on_c, 0, 78, 76
1, 23998, Note_on_c, 0, 78, 0
1, 24000, Note_on_c, 0, 81, 80
1, 24030, Note_on_c, 0, 81, 0
1, 24032, Note_on_c, 0, 79, 78
1, 24062, Note_on_c, 0, 79, 0
1, 24064, Note_on_c, 0, 77, 76
1, 24094, Note_on_c, 0, 77, 0
1, 24096, Note_on_c, 0, 76, 75
1, 24126, Note_on_c, 0, 76, 0
1, 24128, Note_on_c, 0, 74, 73
1, 24158, Note_on_c, 0, 74, 0
1, 24160, Note_on_c, 0, 72, 72
1, 24169, Note_on_c, 1, 64, 0
1, 24169, Note_on_c, 1, 60, 0
1, 24190, Note_on_c, 0, 72, 0
1, 24192, Note_on_c, 0, 71, 70
1, 24192, Note_on_c, 1, 67, 70
1, 24192, Note_on_c, 1, 65, 70
1, 24192, Note_on_c, 1, 62, 70
1, 24222, Note_on_c, 0, 71, 0
1, 24224, Note_on_c, 0, 81, 70
1, 24254, Note_on_c, 0, 81, 0
1, 24256, Note_on_c, 0, 79, 70
1, 24286, Note_on_c, 0, 79, 0
1, 24288, Note_on_c, 0, 79, 86
1, 24384, Note_on_c, 0, 79, 0
1, 24457, Note_on_c, 1, 67, 0
1, 24457, Note_on_c, 1, 65, 0
1, 24457, Note_on_c, 1, 62, 0
1, 24480, Note_on_c, 0, 72, 64
1, 24480, Note_on_c, 1, 67, 64
1, 24480, Note_on_c, 1, 64, 64
1, 24510, Note_on_c, 0, 72, 0
1, 24512, Note_on_c, 0, 76, 64
1, 24542, Note_on_c, 0, 76, 0
1, 24544, Note_on_c, 0, 77, 64
1, 24574, Note_on_c, 0, 77, 0
1, 24576, Note_on_c, 0, 78, 64
1, 24606, Note_on_c, 0, 78, 0
1, 24608, Note_on_c, 0, 81, 64
1, 24638, Note_on_c, 0, 81, 0
1, 24640, Note_on_c, 0, 79, 64
1, 24657, Note_on_c, 1, 67, 0
1, 24657, Note_on_c, 1, 64, 0
1, 24670, Note_on_c, 0, 79, 0
1, 24672, Note_on_c, 0, 79, 80
1, 24720, Note_on_c, 0, 79, 0
1, 24768, Note_on_c, 0, 74, 70
1, 24768, Note_on_c, 1, 67, 70
1, 24768, Note_on_c, 1, 62, 70
1, 24768, Note_on_c, 1, 59, 70
1, 24780, Note_on_c, 0, 74, 0
1, 24780, Note_on_c, 0, 73, 70
1, 24792, Note_on_c, 0, 73, 0
1, 24792, Note_on_c, 0, 76, 70
1, 24804, Note_on_c, 0, 76, 0
1, 24804, Note_on_c, 0, 74, 70
1, 24816, Note_on_c, 0, 74, 0
1, 24816, Note_on_c, 0, 77, 70
1, 24828, Note_on_c, 0, 77, 0
1, 24828, Note_on_c, 0, 76, 71
1, 24840, Note_on_c, 0, 76, 0
1, 24840, Note_on_c, 0, 79, 71
1, 24852, Note_on_c, 0, 79, 0
1, 24852, Note_on_c, 0, 77, 72
1, 24864, Note_on_c, 0, 77, 0
1, 24864, Note_on_c, 0, 81, 72
1, 24931, Note_on_c, 0, 81, 0
1, 24936, Note_on_c, 0, 80, 75
1, 24959, Note_on_c, 0, 80, 0
1, 24960, Note_on_c, 0, 79, 76
1, 24984, Note_on_c, 0, 79, 0
1, 24984, Note_on_c, 0, 78, 77
1, 24994, Note_on_c, 0, 78, 0
1, 25008, Note_on_c, 0, 77, 78
1, 25033, Note_on_c, 1, 67, 0
1, 25033, Note_on_c, 1, 62, 0
1, 25033, Note_on_c, 1, 59, 0
1, 25053, Note_on_c, 0, 77, 0
1, 25056, Note_on_c, 0, 76, 80
1, 25056, Note_on_c, 1, 67, 80
1, 25056, Note_on_c, 1, 64, 80
1, 25056, Note_on_c, 1, 60, 80
1, 25101, Note_on_c, 0, 76, 0
1, 25104, Note_on_c, 0, 78, 80
1, 25116, Note_on_c, 0, 78, 0
1, 25116, Note_on_c, 0, 79, 80
1, 25128, Note_on_c, 0, 79, 0
1, 25128, Note_on_c, 0, 81, 80
1, 25140, Note_on_c, 0, 81, 0
1, 25140, Note_on_c, 0, 83, 80
1, 25145, Note_on_c, 1, 67, 0
1, 25145, Note_on_c, 1, 64, 0
1, 25145, Note_on_c, 1, 60, 0
1, 25152, Note_on_c, 0, 83, 0
1, 25152, Note_on_c, 0, 84, 80
1, 25152, Note_on_c, 1, 66, 112
1, 25152, Note_on_c, 1, 60, 112
1, 25152, Note_on_c, 1, 57, 112
1, 25164, Note_on_c, 0, 84, 0
1, 25164, Note_on_c, 0, 83, 80
1, 25176, Note_on_c, 0, 83, 0
1, 25176, Note_on_c, 0, 84, 80
1, 25188, Note_on_c, 0, 84, 0
1, 25188, Note_on_c, 0, 86, 80
1, 25200, Note_on_c, 0, 86, 0
1, 25200, Note_on_c, 0, 84, 80
1, 25212, Note_on_c, 0, 84, 0
1, 25212, Note_on_c, 0, 83, 80
1, 25224, Note_on_c, 0, 83, 0
1, 25224, Note_on_c, 0, 81, 80
1, 25236, Note_on_c, 0, 81, 0
1, 25236, Note_on_c, 0, 79, 80
1, 25248, Note_on_c, 0, 79, 0
1, 25248, Note_on_c, 0, 78, 80
1, 25260, Note_on_c, 0, 78, 0
1, 25260, Note_on_c, 0, 81, 80
1, 25272, Note_on_c, 0, 81, 0
1, 25272, Note_on_c, 0, 79, 80
1, 25284, Note_on_c, 0, 79, 0
1, 25284, Note_on_c, 0, 83, 80
1, 25296, Note_on_c, 0, 83, 0
1, 25296, Note_on_c, 0, 81, 80
1, 25308, Note_on_c, 0, 81, 0
1, 25308, Note_on_c, 0, 79, 80
1, 25320, Note_on_c, 0, 79, 0
1, 25320, Note_on_c, 0, 78, 80
1, 25329, Note_on_c, 1, 66, 0
1, 25329, Note_on_c, 1, 60, 0
1, 25329, Note_on_c, 1, 57, 0
1, 25332, Note_on_c, 0, 78, 0
1, 25332, Note_on_c, 0, 76, 80
1, 25344, Note_on_c, 0, 76, 0
1, 25344, Note_on_c, 0, 75, 80
1, 25344, Note_on_c, 1, 69, 80
1, 25344, Note_on_c, 1, 59, 80
1, 25393, Note_on_c, 0, 75, 0
1, 25398, Note_on_c, 0, 76, 80
1, 25404, Note_on_c, 0, 76, 0
1, 25404, Note_on_c, 0, 75, 80
1, 25410, Note_on_c, 0, 75, 0
1, 25410, Note_on_c, 0, 73, 80
1, 25416, Note_on_c, 0, 73, 0
1, 25416, Note_on_c, 0, 75, 72
1, 25439, Note_on_c, 0, 75, 0
1, 25440, Note_on_c, 0, 76, 70
1, 25440, Note_on_c, 1, 69, 0
1, 25440, Note_on_c, 1, 59, 0
1, 25440, Note_on_c, 1, 67, 70
1, 25440, Note_on_c, 1, 60, 70
1, 25487, Note_on_c, 0, 76, 0
1, 25487, Note_on_c, 1, 67, 0
1, 25487, Note_on_c, 1, 60, 0
1, 25632, Note_on_c, 1, 60, 64
1, 25644, Note_on_c, 1, 60, 0
1, 25644, Note_on_c, 1, 64, 64
1, 25656, Note_on_c, 1, 64, 0
1, 25656, Note_on_c, 1, 68, 64
1, 25668, Note_on_c, 1, 68, 0
1, 25668, Note_on_c, 1, 69, 64
1, 25680, Note_on_c, 0, 72, 64
1, 25680, Note_on_c, 1, 69, 0
1, 25692, Note_on_c, 0, 72, 0
1, 25692, Note_on_c, 0, 76, 64
1, 25704, Note_on_c, 0, 76, 0
1, 25704, Note_on_c, 0, 80, 64
1, 25716, Note_on_c, 0, 80, 0
1, 25716, Note_on_c, 0, 81, 64
1, 25728, Note_on_c, 0, 81, 0
1, 25728, Note_on_c, 0, 79, 64
1, 25728, Note_on_c, 1, 71, 64
1, 25728, Note_on_c, 1, 62, 64
1, 25748, Note_on_c, 0, 79, 0
1, 25748, Note_on_c, 1, 71, 0
1, 25748, Note_on_c, 1, 62, 0
1, 25824, Note_on_c, 1, 50, 64
1, 25832, Note_on_c, 1, 50, 0
1, 25832, Note_on_c, 1, 54, 64
1, 25840, Note_on_c, 1, 54, 0
1, 25840, Note_on_c, 1, 57, 64
1, 25848, Note_on_c, 0, 60, 64
1, 25848, Note_on_c, 1, 57, 0
1, 25856, Note_on_c, 0, 60, 0
1, 25856, Note_on_c, 0, 62, 64
1, 25864, Note_on_c, 0, 62, 0
1, 25864, Note_on_c, 0, 66, 64
1, 25872, Note_on_c, 0, 66, 0
1, 25920, Note_on_c, 1, 43, 58
1, 25976, Note_on_c, 1, 43, 0
1, 25976, Note_on_c, 1, 47, 58
1, 25984, Note_on_c, 1, 47, 0
1, 25984, Note_on_c, 1, 50, 58
1, 25992, Note_on_c, 0, 59, 58
1, 25992, Note_on_c, 1, 50, 0
1, 26000, Note_on_c, 0, 59, 0
1, 26000, Note_on_c, 0, 62, 58
1, 26008, Note_on_c, 0, 62, 0
1, 26008, Note_on_c, 0, 66, 58
1, 26016, Note_on_c, 0, 66, 0
1, 26016, Note_on_c, 0, 67, 58
1, 26061, Note_on_c, 0, 67, 0
1, 26208, Note_on_c, 0, 79, 80
1, 26208, Note_on_c, 1, 67, 80
1, 26208, Note_on_c, 1, 63, 80
1, 26257, Note_on_c, 0, 79, 0
1, 26262, Note_on_c, 0, 80, 80
1, 26268, Note_on_c, 0, 80, 0
1, 26268, Note_on_c, 0, 79, 80
1, 26274, Note_on_c, 0, 79, 0
1, 26274, Note_on_c, 0, 78, 80
1, 26280, Note_on_c, 0, 78, 0
1, 26280, Note_on_c, 0, 79, 77
1, 26303, Note_on_c, 0, 79, 0
1, 26304, Note_on_c, 0, 84, 76
1, 26385, Note_on_c, 1, 67, 0
1, 26385, Note_on_c, 1, 63, 0
1, 26400, Note_on_c, 0, 84, 0
1, 26400, Note_on_c, 0, 83, 72
1, 26400, Note_on_c, 1, 65, 72
1, 26400, Note_on_c, 1, 62, 72
1, 26489, Note_on_c, 0, 83, 0
1, 26489, Note_on_c, 1, 65, 0
1, 26489, Note_on_c, 1, 62, 0
1, 26496, Note_on_c, 0, 82, 68
1, 26496, Note_on_c, 1, 63, 68
1, 26496, Note_on_c, 1, 60, 68
1, 26526, Note_on_c, 0, 82, 0
1, 26528, Note_on_c, 0, 81, 66
1, 26558, Note_on_c, 0, 81, 0
1, 26560, Note_on_c, 0, 80, 65
1, 26585, Note_on_c, 1, 63, 0
1, 26585, Note_on_c, 1, 60, 0
1, 26590, Note_on_c, 0, 80, 0
1, 26592, Note_on_c, 0, 79, 64
1, 26592, Note_on_c, 1, 62, 64
1, 26592, Note_on_c, 1, 59, 64
1, 26681, Note_on_c, 0, 79, 0
1, 26681, Note_on_c, 1, 62, 0
1, 26681, Note_on_c, 1, 59, 0
1, 26784, Note_on_c, 0, 77, 64
1, 26784, Note_on_c, 1, 72, 64
1, 26784, Note_on_c, 1, 68, 64
1, 26829, Note_on_c, 0, 77, 0
1, 26832, Note_on_c, 0, 79, 64
1, 26838, Note_on_c, 0, 79, 0
1, 26838, Note_on_c, 0, 77, 64
1, 26844, Note_on_c, 0, 77, 0
1, 26844, Note_on_c, 0, 76, 64
1, 26850, Note_on_c, 0, 76, 0
1, 26850, Note_on_c, 0, 77, 64
1, 26866, Note_on_c, 0, 77, 0
1, 26868, Note_on_c, 0, 79, 64
1, 26873, Note_on_c, 1, 72, 0
1, 26873, Note_on_c, 1, 68, 0
1, 26880, Note_on_c, 0, 79, 0
1, 26880, Note_on_c, 0, 75, 64
1, 26880, Note_on_c, 1, 70, 64
1, 26880, Note_on_c, 1, 67, 64
1, 26919, Note_on_c, 0, 75, 0
1, 26919, Note_on_c, 1, 70, 0
1, 26919, Note_on_c, 1, 67, 0
1, 27072, Note_on_c, 0, 74, 80
1, 27072, Note_on_c, 0, 72, 80
1, 27072, Note_on_c, 1, 54, 80
1, 27121, Note_on_c, 1, 54, 0
1, 27126, Note_on_c, 1, 55, 80
1, 27132, Note_on_c, 1, 55, 0
1, 27132, Note_on_c, 1, 54, 80
1, 27138, Note_on_c, 1, 54, 0
1, 27138, Note_on_c, 1, 52, 80
1, 27144, Note_on_c, 1, 52, 0
1, 27144, Note_on_c, 1, 54, 80
1, 27167, Note_on_c, 1, 54, 0
1, 27168, Note_on_c, 1, 69, 80
1, 27257, Note_on_c, 1, 69, 0
1, 27264, Note_on_c, 1, 66, 76
1, 27353, Note_on_c, 1, 66, 0
1, 27360, Note_on_c, 1, 67, 72
1, 27449, Note_on_c, 0, 72, 0
1, 27456, Note_on_c, 0, 71, 64
1, 27537, Note_on_c, 0, 74, 0
1, 27537, Note_on_c, 1, 67, 0
1, 27545, Note_on_c, 0, 71, 0
1, 27552, Note_on_c, 0, 75, 64
1, 27552, Note_on_c, 0, 72, 64
1, 27552, Note_on_c, 1, 65, 64
1, 27575, Note_on_c, 1, 65, 0
1, 27576, Note_on_c, 1, 63, 64
1, 27599, Note_on_c, 1, 63, 0
1, 27600, Note_on_c, 1, 62, 64
1, 27623, Note_on_c, 1, 62, 0
1, 27624, Note_on_c, 1, 60, 64
1, 27647, Note_on_c, 1, 60, 0
1, 27648, Note_on_c, 0, 75, 0
1, 27648, Note_on_c, 0, 72, 0
1, 27648, Note_on_c, 0, 74, 64
1, 27648, Note_on_c, 0, 71, 64
1, 27648, Note_on_c, 1, 67, 64
1, 27737, Note_on_c, 0, 74, 0
1, 27737, Note_on_c, 0, 71, 0
1, 27742, Note_on_c, 1, 67, 0
1, 27792, Note_on_c, 1, 66, 58
1, 27816, Note_on_c, 1, 66, 0
1, 27816, Note_on_c, 1, 67, 58
1, 27839, Note_on_c, 1, 67, 0
1, 27840, Note_on_c, 0, 84, 58
1, 27840, Note_on_c, 0, 75, 58
1, 27840, Note_on_c, 1, 65, 58
1, 27863, Note_on_c, 1, 65, 0
1, 27864, Note_on_c, 1, 63, 58
1, 27887, Note_on_c, 1, 63, 0
1, 27888, Note_on_c, 1, 62, 58
1, 27911, Note_on_c, 1, 62, 0
1, 27912, Note_on_c, 1, 60, 58
1, 27929, Note_on_c, 0, 84, 0
1, 27929, Note_on_c, 0, 75, 0
1, 27935, Note_on_c, 1, 60, 0
1, 27936, Note_on_c, 0, 83, 58
1, 27936, Note_on_c, 0, 74, 58
1, 27936, Note_on_c, 1, 67, 58
1, 27975, Note_on_c, 1, 67, 0
1, 28025, Note_on_c, 0, 83, 0
1, 28025, Note_on_c, 0, 74, 0
1, 28224, Note_on_c, 0, 55, 64
1, 28248, Note_on_c, 1, 36, 64
1, 28271, Note_on_c, 1, 36, 0
1, 28272, Note_on_c, 1, 40, 64
1, 28295, Note_on_c, 1, 40, 0
1, 28296, Note_on_c, 1, 43, 64
1, 28313, Note_on_c, 0, 55, 0
1, 28319, Note_on_c, 1, 43, 0
1, 28320, Note_on_c, 0, 64, 64
1, 28320, Note_on_c, 1, 48, 64
1, 28343, Note_on_c, 1, 48, 0
1, 28344, Note_on_c, 1, 40, 64
1, 28367, Note_on_c, 1, 40, 0
1, 28368, Note_on_c, 1, 43, 64
1, 28391, Note_on_c, 1, 43, 0
1, 28392, Note_on_c, 1, 48, 64
1, 28409, Note_on_c, 0, 64, 0
1, 28415, Note_on_c, 1, 48, 0
1, 28416, Note_on_c, 0, 60, 64
1, 28416, Note_on_c, 1, 52, 64
1, 28439, Note_on_c, 1, 52, 0
1, 28440, Note_on_c, 1, 43, 64
1, 28463, Note_on_c, 1, 43, 0
1, 28464, Note_on_c, 1, 48, 64
1, 28487, Note_on_c, 1, 48, 0
1, 28488, Note_on_c, 1, 52, 64
1, 28505, Note_on_c, 0, 60, 0
1, 28511, Note_on_c, 1, 52, 0
1, 28512, Note_on_c, 0, 59, 64
1, 28512, Note_on_c, 1, 53, 64
1, 28535, Note_on_c, 1, 53, 0
1, 28536, Note_on_c, 1, 43, 65
1, 28559, Note_on_c, 1, 43, 0
1, 28560, Note_on_c, 1, 53, 67
1, 28583, Note_on_c, 1, 53, 0
1, 28584, Note_on_c, 1, 43, 69
1, 28607, Note_on_c, 1, 43, 0
1, 28608, Note_on_c, 0, 59, 0
1, 28608, Note_on_c, 0, 67, 64
1, 28608, Note_on_c, 1, 53, 71
1, 28631, Note_on_c, 1, 53, 0
1, 28632, Note_on_c, 1, 43, 72
1, 28655, Note_on_c, 1, 43, 0
1, 28656, Note_on_c, 1, 53, 74
1, 28679, Note_on_c, 1, 53, 0
1, 28680, Note_on_c, 1, 43, 76
1, 28697, Note_on_c, 0, 67, 0
1, 28703, Note_on_c, 1, 43, 0
1, 28704, Note_on_c, 1, 53, 78
1, 28727, Note_on_c, 1, 53, 0
1, 28728, Note_on_c, 1, 43, 80
1, 28751, Note_on_c, 1, 43, 0
1, 28752, Note_on_c, 1, 53, 80
1, 28775, Note_on_c, 1, 53, 0
1, 28776, Note_on_c, 1, 43, 80
1, 28799, Note_on_c, 1, 43, 0
1, 28800, Note_on_c, 0, 67, 80
1, 28824, Note_on_c, 1, 48, 80
1, 28847, Note_on_c, 1, 48, 0
1, 28848, Note_on_c, 1, 52, 80
1, 28871, Note_on_c, 1, 52, 0
1, 28872, Note_on_c, 1, 55, 80
1, 28889, Note_on_c, 0, 67, 0
1, 28895, Note_on_c, 1, 55, 0
1, 28896, Note_on_c, 0, 76, 80
1, 28896, Note_on_c, 1, 60, 80
1, 28919, Note_on_c, 1, 60, 0
1, 28920, Note_on_c, 1, 52, 80
1, 28943, Note_on_c, 1, 52, 0
1, 28944, Note_on_c, 1, 55, 80
1, 28967, Note_on_c, 1, 55, 0
1, 28968, Note_on_c, 1, 60, 80
1, 28985, Note_on_c, 0, 76, 0
1, 28991, Note_on_c, 1, 60, 0
1, 28992, Note_on_c, 0, 72, 80
1, 28992, Note_on_c, 1, 64, 80
1, 29015, Note_on_c, 1, 64, 0
1, 29016, Note_on_c, 1, 55, 80
1, 29039, Note_on_c, 1, 55, 0
1, 29040, Note_on_c, 1, 60, 80
1, 29063, Note_on_c, 1, 60, 0
1, 29064, Note_on_c, 1, 64, 80
1, 29081, Note_on_c, 0, 72, 0
1, 29087, Note_on_c, 1, 64, 0
1, 29088, Note_on_c, 0, 71, 80
1, 29088, Note_on_c, 1, 65, 80
1, 29111, Note_on_c, 1, 65, 0
1, 29112, Note_on_c, 1, 55, 80
1, 29135, Note_on_c, 1, 55, 0
1, 29136, Note_on_c, 1, 65, 80
1, 29159, Note_on_c, 1, 65, 0
1, 29160, Note_on_c, 1, 55, 80
1, 29183, Note_on_c, 1, 55, 0
1, 29184, Note_on_c, 0, 71, 0
1, 29184, Note_on_c, 0, 79, 80
1, 29184, Note_on_c, 1, 65, 80
1, 29207, Note_on_c, 1, 65, 0
1, 29208, Note_on_c, 1, 55, 78
1, 29231, Note_on_c, 1, 55, 0
1, 29232, Note_on_c, 1, 65, 76
1, 29255, Note_on_c, 1, 65, 0
1, 29256, Note_on_c, 1, 55, 74
1, 29273, Note_on_c, 0, 79, 0
1, 29279, Note_on_c, 1, 55, 0
1, 29280, Note_on_c, 1, 65, 72
1, 29303, Note_on_c, 1, 65, 0
1, 29304, Note_on_c, 1, 55, 70
1, 29327, Note_on_c, 1, 55, 0
1, 29328, Note_on_c, 1, 65, 68
1, 29351, Note_on_c, 1, 65, 0
1, 29352, Note_on_c, 1, 55, 66
1, 29375, Note_on_c, 1, 55, 0
1, 29376, Note_on_c, 0, 73, 64
1, 29400, Note_on_c, 1, 55, 64
1, 29423, Note_on_c, 1, 55, 0
1, 29424, Note_on_c, 1, 64, 64
1, 29447, Note_on_c, 1, 64, 0
1, 29448, Note_on_c, 1, 55, 64
1, 29471, Note_on_c, 1, 55, 0
1, 29472, Note_on_c, 0, 73, 0
1, 29472, Note_on_c, 0, 82, 64
1, 29472, Note_on_c, 1, 64, 64
1, 29495, Note_on_c, 1, 64, 0
1, 29496, Note_on_c, 1, 55, 64
1, 29519, Note_on_c, 1, 55, 0
1, 29520, Note_on_c, 1, 64, 64
1, 29543, Note_on_c, 1, 64, 0
1, 29544, Note_on_c, 1, 55, 64
1, 29561, Note_on_c, 0, 82, 0
1, 29567, Note_on_c, 1, 55, 0
1, 29568, Note_on_c, 1, 64, 64
1, 29591, Note_on_c, 1, 64, 0
1, 29592, Note_on_c, 1, 55, 64
1, 29615, Note_on_c, 1, 55, 0
1, 29616, Note_on_c, 1, 64, 64
1, 29639, Note_on_c, 1, 64, 0
1, 29640, Note_on_c, 1, 55, 64
1, 29663, Note_on_c, 1, 55, 0
1, 29664, Note_on_c, 1, 53, 64
1, 29688, Note_on_c, 0, 69, 64
1, 29711, Note_on_c, 0, 69, 0
1, 29712, Note_on_c, 0, 70, 65
1, 29735, Note_on_c, 0, 70, 0
1, 29736, Note_on_c, 0, 69, 66
1, 29759, Note_on_c, 0, 69, 0
1, 29760, Note_on_c, 0, 74, 68
1, 29783, Note_on_c, 0, 74, 0
1, 29784, Note_on_c, 0, 73, 69
1, 29807, Note_on_c, 0, 73, 0
1, 29808, Note_on_c, 0, 76, 71
1, 29831, Note_on_c, 0, 76, 0
1, 29832, Note_on_c, 0, 74, 72
1, 29841, Note_on_c, 1, 53, 0
1, 29855, Note_on_c, 0, 74, 0
1, 29856, Note_on_c, 0, 77, 74
1, 29879, Note_on_c, 0, 77, 0
1, 29880, Note_on_c, 0, 76, 75
1, 29903, Note_on_c, 0, 76, 0
1, 29904, Note_on_c, 0, 79, 77
1, 29927, Note_on_c, 0, 79, 0
1, 29928, Note_on_c, 0, 77, 78
1, 29951, Note_on_c, 0, 77, 0
1, 29952, Note_on_c, 0, 81, 112
1, 29952, Note_on_c, 0, 77, 112
1, 29976, Note_on_c, 1, 55, 70
1, 29999, Note_on_c, 1, 55, 0
1, 30000, Note_on_c, 1, 59, 70
1, 30023, Note_on_c, 1, 59, 0
1, 30024, Note_on_c, 1, 57, 71
1, 30047, Note_on_c, 1, 57, 0
1, 30048, Note_on_c, 1, 60, 72
1, 30071, Note_on_c, 1, 60, 0
1, 30072, Note_on_c, 1, 59, 72
1, 30085, Note_on_c, 0, 81, 0
1, 30085, Note_on_c, 0, 77, 0
1, 30095, Note_on_c, 1, 59, 0
1, 30096, Note_on_c, 0, 79, 80
1, 30096, Note_on_c, 0, 76, 80
1, 30096, Note_on_c, 1, 62, 73
1, 30119, Note_on_c, 1, 62, 0
1, 30120, Note_on_c, 1, 60, 74
1, 30141, Note_on_c, 0, 79, 0
1, 30141, Note_on_c, 0, 76, 0
1, 30143, Note_on_c, 1, 60, 0
1, 30144, Note_on_c, 0, 77, 80
1, 30144, Note_on_c, 0, 74, 80
1, 30144, Note_on_c, 1, 64, 74
1, 30167, Note_on_c, 1, 64, 0
1, 30168, Note_on_c, 1, 62, 75
1, 30189, Note_on_c, 0, 77, 0
1, 30189, Note_on_c, 0, 74, 0
1, 30191, Note_on_c, 1, 62, 0
1, 30192, Note_on_c, 0, 76, 80
1, 30192, Note_on_c, 0, 72, 80
1, 30192, Note_on_c, 1, 65, 76
1, 30215, Note_on_c, 1, 65, 0
1, 30216, Note_on_c, 1, 64, 76
1, 30237, Note_on_c, 0, 76, 0
1, 30237, Note_on_c, 0, 72, 0
1, 30239, Note_on_c, 1, 64, 0
1, 30240, Note_on_c, 0, 76, 80
1, 30240, Note_on_c, 0, 69, 64
1, 30240, Note_on_c, 1, 65, 77
1, 30240, Note_on_c, 1, 53, 77
1, 30307, Note_on_c, 0, 76, 0
1, 30312, Note_on_c, 0, 74, 80
1, 30329, Note_on_c, 0, 69, 0
1, 30329, Note_on_c, 1, 65, 0
1, 30329, Note_on_c, 1, 53, 0
1, 30335, Note_on_c, 0, 74, 0
1, 30336, Note_on_c, 0, 72, 80
1, 30336, Note_on_c, 0, 67, 80
1, 30336, Note_on_c, 1, 64, 80
1, 30336, Note_on_c, 1, 55, 80
1, 30381, Note_on_c, 0, 72, 0
1, 30381, Note_on_c, 0, 67, 0
1, 30381, Note_on_c, 1, 64, 0
1, 30381, Note_on_c, 1, 55, 0
1, 30432, Note_on_c, 0, 72, 64
1, 30432, Note_on_c, 1, 62, 64
1, 30432, Note_on_c, 1, 55, 64
1, 30438, Note_on_c, 0, 72, 0
1, 30438, Note_on_c, 0, 71, 64
1, 30444, Note_on_c, 0, 71, 0
1, 30444, Note_on_c, 0, 69, 64
1, 30450, Note_on_c, 0, 69, 0
1, 30450, Note_on_c, 0, 71, 64
1, 30450, Note_on_c, 0, 65, 64
1, 30477, Note_on_c, 0, 71, 0
1, 30477, Note_on_c, 0, 65, 0
1, 30477, Note_on_c, 1, 62, 0
1, 30477, Note_on_c, 1, 55, 0
1, 30528, Note_on_c, 0, 72, 64
1, 30528, Note_on_c, 0, 64, 64
1, 30528, Note_on_c, 1, 60, 64
1, 30528, Note_on_c, 1, 48, 64
1, 30617, Note_on_c, 0, 72, 0
1, 30617, Note_on_c, 0, 64, 0
1, 30617, Note_on_c, 1, 60, 0
1, 30617, Note_on_c, 1, 48, 0
1, 30816, Note_on_c, 0, 79, 80
1, 30816, Note_on_c, 1, 55, 64
1, 30831, Note_on_c, 1, 55, 0
1, 30832, Note_on_c, 1, 63, 64
1, 30847, Note_on_c, 1, 63, 0
1, 30848, Note_on_c, 1, 67, 64
1, 30863, Note_on_c, 1, 67, 0
1, 30864, Note_on_c, 1, 55, 64
1, 30865, Note_on_c, 0, 79, 0
1, 30870, Note_on_c, 0, 80, 80
1, 30876, Note_on_c, 0, 80, 0
1, 30876, Note_on_c, 0, 79, 80
1, 30879, Note_on_c, 1, 55, 0
1, 30880, Note_on_c, 1, 63, 64
1, 30882, Note_on_c, 0, 79, 0
1, 30882, Note_on_c, 0, 78, 80
1, 30888, Note_on_c, 0, 78, 0
1, 30888, Note_on_c, 0, 79, 80
1, 30895, Note_on_c, 1, 63, 0
1, 30896, Note_on_c, 1, 67, 64
1, 30911, Note_on_c, 0, 79, 0
1, 30911, Note_on_c, 1, 67, 0
1, 30912, Note_on_c, 0, 84, 80
1, 30912, Note_on_c, 1, 55, 64
1, 30927, Note_on_c, 1, 55, 0
1, 30928, Note_on_c, 1, 63, 64
1, 30943, Note_on_c, 1, 63, 0
1, 30944, Note_on_c, 1, 67, 64
1, 30959, Note_on_c, 1, 67, 0
1, 30960, Note_on_c, 1, 55, 64
1, 30975, Note_on_c, 1, 55, 0
1, 30976, Note_on_c, 1, 63, 64
1, 30991, Note_on_c, 1, 63, 0
1, 30992, Note_on_c, 1, 67, 64
1, 31007, Note_on_c, 1, 67, 0
1, 31008, Note_on_c, 0, 84, 0
1, 31008, Note_on_c, 0, 83, 80
1, 31008, Note_on_c, 1, 55, 64
1, 31023, Note_on_c, 1, 55, 0
1, 31024, Note_on_c, 1, 62, 64
1, 31039, Note_on_c, 1, 62, 0
1, 31040, Note_on_c, 1, 65, 64
1, 31055, Note_on_c, 1, 65, 0
1, 31056, Note_on_c, 1, 55, 64
1, 31071, Note_on_c, 1, 55, 0
1, 31072, Note_on_c, 1, 62, 64
1, 31087, Note_on_c, 1, 62, 0
1, 31088, Note_on_c, 1, 65, 64
1, 31097, Note_on_c, 0, 83, 0
1, 31103, Note_on_c, 1, 65, 0
1, 31104, Note_on_c, 0, 80, 80
1, 31104, Note_on_c, 1, 55, 64
1, 31119, Note_on_c, 1, 55, 0
1, 31120, Note_on_c, 1, 60, 64
1, 31127, Note_on_c, 0, 80, 0
1, 31128, Note_on_c, 0, 82, 80
1, 31135, Note_on_c, 1, 60, 0
1, 31136, Note_on_c, 0, 82, 0
1, 31136, Note_on_c, 0, 80, 80
1, 31136, Note_on_c, 1, 63, 64
1, 31144, Note_on_c, 0, 80, 0
1, 31144, Note_on_c, 0, 79, 80
1, 31151, Note_on_c, 1, 63, 0
1, 31152, Note_on_c, 0, 79, 0
1, 31152, Note_on_c, 0, 80, 80
1, 31152, Note_on_c, 1, 55, 64
1, 31167, Note_on_c, 1, 55, 0
1, 31168, Note_on_c, 1, 60, 64
1, 31175, Note_on_c, 0, 80, 0
1, 31176, Note_on_c, 0, 82, 80
1, 31183, Note_on_c, 1, 60, 0
1, 31184, Note_on_c, 1, 63, 64
1, 31186, Note_on_c, 0, 82, 0
1, 31199, Note_on_c, 1, 63, 0
1, 31200, Note_on_c, 0, 79, 80
1, 31200, Note_on_c, 1, 55, 64
1, 31215, Note_on_c, 1, 55, 0
1, 31216, Note_on_c, 1, 59, 64
1, 31231, Note_on_c, 1, 59, 0
1, 31232, Note_on_c, 1, 62, 64
1, 31247, Note_on_c, 0, 79, 0
1, 31247, Note_on_c, 1, 62, 0
1, 31248, Note_on_c, 1, 55, 64
1, 31263, Note_on_c, 1, 55, 0
1, 31264, Note_on_c, 1, 59, 64
1, 31279, Note_on_c, 1, 59, 0
1, 31280, Note_on_c, 1, 62, 64
1, 31295, Note_on_c, 1, 62, 0
1, 31296, Note_on_c, 1, 55, 64
1, 31341, Note_on_c, 1, 55, 0
1, 31392, Note_on_c, 0, 77, 80
1, 31392, Note_on_c, 1, 72, 75
1, 31392, Note_on_c, 1, 68, 75
1, 31404, Note_on_c, 0, 77, 0
1, 31404, Note_on_c, 0, 79, 80
1, 31416, Note_on_c, 0, 79, 0
1, 31416, Note_on_c, 0, 80, 80
1, 31428, Note_on_c, 0, 80, 0
1, 31428, Note_on_c, 0, 79, 80
1, 31440, Note_on_c, 0, 79, 0
1, 31440, Note_on_c, 0, 82, 80
1, 31452, Note_on_c, 0, 82, 0
1, 31452, Note_on_c, 0, 80, 80
1, 31464, Note_on_c, 0, 80, 0
1, 31464, Note_on_c, 0, 79, 80
1, 31476, Note_on_c, 0, 79, 0
1, 31476, Note_on_c, 0, 77, 80
1, 31488, Note_on_c, 0, 77, 0
1, 31488, Note_on_c, 0, 75, 80
1, 31488, Note_on_c, 1, 72, 0
1, 31488, Note_on_c, 1, 68, 0
1, 31488, Note_on_c, 1, 70, 64
1, 31488, Note_on_c, 1, 67, 64
1, 31508, Note_on_c, 0, 75, 0
1, 31508, Note_on_c, 1, 70, 0
1, 31508, Note_on_c, 1, 67, 0
1, 31680, Note_on_c, 0, 74, 80
1, 31680, Note_on_c, 0, 72, 80
1, 31680, Note_on_c, 1, 54, 80
1, 31725, Note_on_c, 1, 54, 0
1, 31728, Note_on_c, 1, 57, 80
1, 31740, Note_on_c, 1, 57, 0
1, 31740, Note_on_c, 1, 61, 80
1, 31752, Note_on_c, 1, 61, 0
1, 31752, Note_on_c, 1, 62, 80
1, 31764, Note_on_c, 1, 62, 0
1, 31764, Note_on_c, 1, 66, 80
1, 31776, Note_on_c, 1, 66, 0
1, 31776, Note_on_c, 1, 69, 80
1, 31872, Note_on_c, 1, 69, 0
1, 31872, Note_on_c, 1, 66, 80
1, 31961, Note_on_c, 1, 66, 0
1, 31968, Note_on_c, 1, 67, 80
1, 32057, Note_on_c, 0, 72, 0
1, 32064, Note_on_c, 0, 71, 64
1, 32145, Note_on_c, 0, 74, 0
1, 32145, Note_on_c, 1, 67, 0
1, 32153, Note_on_c, 0, 71, 0
1, 32160, Note_on_c, 0, 75, 64
1, 32160, Note_on_c, 0, 72, 64
1, 32160, Note_on_c, 1, 65, 80
1, 32183, Note_on_c, 1, 65, 0
1, 32184, Note_on_c, 1, 63, 80
1, 32207, Note_on_c, 1, 63, 0
1, 32208, Note_on_c, 1, 62, 80
1, 32231, Note_on_c, 1, 62, 0
1, 32232, Note_on_c, 1, 60, 80
1, 32255, Note_on_c, 1, 60, 0
1, 32256, Note_on_c, 0, 75, 0
1, 32256, Note_on_c, 0, 72, 0
1, 32256, Note_on_c, 0, 74, 64
1, 32256, Note_on_c, 0, 71, 64
1, 32256, Note_on_c, 1, 67, 80
1, 32301, Note_on_c, 1, 67, 0
1, 32345, Note_on_c, 0, 74, 0
1, 32345, Note_on_c, 0, 71, 0
1, 32352, Note_on_c, 1, 68, 58
1, 32375, Note_on_c, 1, 68, 0
1, 32376, Note_on_c, 1, 67, 58
1, 32399, Note_on_c, 1, 67, 0
1, 32400, Note_on_c, 1, 68, 58
1, 32423, Note_on_c, 1, 68, 0
1, 32424, Note_on_c, 1, 67, 58
1, 32447, Note_on_c, 1, 67, 0
1, 32448, Note_on_c, 0, 84, 58
1, 32448, Note_on_c, 0, 75, 58
1, 32448, Note_on_c, 1, 65, 58
1, 32471, Note_on_c, 1, 65, 0
1, 32472, Note_on_c, 1, 63, 58
1, 32493, Note_on_c, 0, 84, 0
1, 32493, Note_on_c, 0, 75, 0
1, 32495, Note_on_c, 1, 63, 0
1, 32496, Note_on_c, 0, 84, 58
1, 32496, Note_on_c, 0, 75, 58
1, 32496, Note_on_c, 1, 62, 58
1, 32519, Note_on_c, 1, 62, 0
1, 32520, Note_on_c, 1, 60, 58
1, 32541, Note_on_c, 0, 84, 0
1, 32541, Note_on_c, 0, 75, 0
1, 32543, Note_on_c, 1, 60, 0
1, 32544, Note_on_c, 0, 83, 58
1, 32544, Note_on_c, 0, 74, 58
1, 32544, Note_on_c, 1, 67, 58
1, 32583, Note_on_c, 1, 67, 0
1, 32633, Note_on_c, 0, 83, 0
1, 32633, Note_on_c, 0, 74, 0
1, 32832, Note_on_c, 0, 55, 80
1, 32832, Note_on_c, 0, 52, 80
1, 32832, Note_on_c, 1, 48, 80
1, 32832, Note_on_c, 1, 43, 80
1, 32832, Note_on_c, 1, 40, 80
1, 32832, Note_on_c, 1, 36, 80
1, 32877, Note_on_c, 0, 55, 0
1, 32877, Note_on_c, 0, 52, 0
1, 32880, Note_on_c, 0, 57, 80
1, 32880, Note_on_c, 0, 53, 80
1, 32890, Note_on_c, 0, 57, 0
1, 32890, Note_on_c, 0, 53, 0
1, 32904, Note_on_c, 0, 59, 80
1, 32904, Note_on_c, 0, 55, 80
1, 32914, Note_on_c, 0, 59, 0
1, 32914, Note_on_c, 0, 55, 0
1, 32928, Note_on_c, 0, 60, 80
1, 32928, Note_on_c, 0, 57, 80
1, 32938, Note_on_c, 0, 60, 0
1, 32938, Note_on_c, 0, 57, 0
1, 32952, Note_on_c, 0, 62, 80
1, 32952, Note_on_c, 0, 59, 80
1, 32962, Note_on_c, 0, 62, 0
1, 32962, Note_on_c, 0, 59, 0
1, 32976, Note_on_c, 0, 64, 80
1, 32976, Note_on_c, 0, 60, 80
1, 32986, Note_on_c, 0, 64, 0
1, 32986, Note_on_c, 0, 60, 0
1, 33000, Note_on_c, 0, 65, 80
1, 33000, Note_on_c, 0, 62, 80
1, 33010, Note_on_c, 0, 65, 0
1, 33010, Note_on_c, 0, 62, 0
1, 33024, Note_on_c, 0, 67, 80
1, 33024, Note_on_c, 0, 64, 80
1, 33034, Note_on_c, 0, 67, 0
1, 33034, Note_on_c, 0, 64, 0
1, 33048, Note_on_c, 0, 69, 80
1, 33048, Note_on_c, 0, 65, 80
1, 33058, Note_on_c, 0, 69, 0
1, 33058, Note_on_c, 0, 65, 0
1, 33072, Note_on_c, 0, 71, 80
1, 33072, Note_on_c, 0, 67, 80
1, 33082, Note_on_c, 0, 71, 0
1, 33082, Note_on_c, 0, 67, 0
1, 33096, Note_on_c, 0, 72, 80
1, 33096, Note_on_c, 0, 69, 80
1, 33097, Note_on_c, 1, 48, 0
1, 33097, Note_on_c, 1, 43, 0
1, 33097, Note_on_c, 1, 40, 0
1, 33097, Note_on_c, 1, 36, 0
1, 33106, Note_on_c, 0, 72, 0
1, 33106, Note_on_c, 0, 69, 0
1, 33120, Note_on_c, 0, 59, 80
1, 33120, Note_on_c, 1, 53, 80
1, 33120, Note_on_c, 1, 50, 80
1, 33120, Note_on_c, 1, 43, 80
1, 33169, Note_on_c, 0, 59, 0
1, 33174, Note_on_c, 0, 60, 80
1, 33180, Note_on_c, 0, 60, 0
1, 33180, Note_on_c, 0, 59, 80
1, 33186, Note_on_c, 0, 59, 0
1, 33186, Note_on_c, 0, 57, 80
1, 33192, Note_on_c, 0, 57, 0
1, 33192, Note_on_c, 0, 59, 80
1, 33215, Note_on_c, 0, 59, 0
1, 33216, Note_on_c, 0, 67, 80
1, 33261, Note_on_c, 0, 67, 0
1, 33261, Note_on_c, 1, 53, 0
1, 33261, Note_on_c, 1, 50, 0
1, 33261, Note_on_c, 1, 43, 0
1, 33408, Note_on_c, 0, 67, 64
1, 33408, Note_on_c, 1, 64, 64
1, 33408, Note_on_c, 1, 60, 64
1, 33431, Note_on_c, 0, 67, 0
1, 33432, Note_on_c, 0, 79, 64
1, 33455, Note_on_c, 0, 79, 0
1, 33456, Note_on_c, 0, 71, 65
1, 33479, Note_on_c, 0, 71, 0
1, 33480, Note_on_c, 0, 79, 67
1, 33503, Note_on_c, 0, 79, 0
1, 33504, Note_on_c, 0, 72, 68
1, 33527, Note_on_c, 0, 72, 0
1, 33528, Note_on_c, 0, 79, 70
1, 33551, Note_on_c, 0, 79, 0
1, 33552, Note_on_c, 0, 76, 71
1, 33575, Note_on_c, 0, 76, 0
1, 33576, Note_on_c, 0, 79, 73
1, 33599, Note_on_c, 0, 79, 0
1, 33600, Note_on_c, 0, 77, 75
1, 33623, Note_on_c, 0, 77, 0
1, 33624, Note_on_c, 0, 76, 73
1, 33647, Note_on_c, 0, 76, 0
1, 33648, Note_on_c, 0, 74, 72
1, 33671, Note_on_c, 0, 74, 0
1, 33672, Note_on_c, 0, 72, 70
1, 33673, Note_on_c, 1, 64, 0
1, 33673, Note_on_c, 1, 60, 0
1, 33695, Note_on_c, 0, 72, 0
1, 33696, Note_on_c, 0, 72, 69
1, 33696, Note_on_c, 1, 67, 64
1, 33696, Note_on_c, 1, 65, 64
1, 33696, Note_on_c, 1, 62, 64
1, 33720, Note_on_c, 0, 72, 0
1, 33720, Note_on_c, 0, 71, 68
1, 33743, Note_on_c, 0, 71, 0
1, 33744, Note_on_c, 0, 81, 66
1, 33768, Note_on_c, 0, 81, 0
1, 33768, Note_on_c, 0, 79, 65
1, 33791, Note_on_c, 0, 79, 0
1, 33792, Note_on_c, 0, 79, 80
1, 33837, Note_on_c, 1, 67, 0
1, 33837, Note_on_c, 1, 65, 0
1, 33837, Note_on_c, 1, 62, 0
1, 33840, Note_on_c, 0, 79, 0
1, 33984, Note_on_c, 0, 64, 70
1, 33991, Note_on_c, 0, 64, 0
1, 33991, Note_on_c, 0, 67, 70
1, 33998, Note_on_c, 0, 67, 0
1, 33998, Note_on_c, 0, 70, 70
1, 34005, Note_on_c, 0, 70, 0
1, 34005, Note_on_c, 0, 73, 71
1, 34012, Note_on_c, 0, 73, 0
1, 34012, Note_on_c, 0, 76, 72
1, 34019, Note_on_c, 0, 76, 0
1, 34019, Note_on_c, 0, 79, 72
1, 34026, Note_on_c, 0, 79, 0
1, 34026, Note_on_c, 0, 82, 73
1, 34033, Note_on_c, 0, 82, 0
1, 34033, Note_on_c, 0, 85, 74
1, 34040, Note_on_c, 0, 85, 0
1, 34040, Note_on_c, 0, 82, 75
1, 34047, Note_on_c, 0, 82, 0
1, 34047, Note_on_c, 0, 79, 74
1, 34054, Note_on_c, 0, 79, 0
1, 34054, Note_on_c, 0, 76, 73
1, 34061, Note_on_c, 0, 76, 0
1, 34061, Note_on_c, 0, 73, 73
1, 34068, Note_on_c, 0, 73, 0
1, 34068, Note_on_c, 0, 70, 72
1, 34074, Note_on_c, 0, 70, 0
1, 34074, Note_on_c, 0, 67, 71
1, 34080, Note_on_c, 0, 67, 0
1, 34080, Note_on_c, 0, 64, 70
1, 34125, Note_on_c, 0, 64, 0
1, 34272, Note_on_c, 1, 41, 64
1, 34284, Note_on_c, 1, 41, 0
1, 34284, Note_on_c, 1, 45, 64
1, 34296, Note_on_c, 1, 45, 0
1, 34296, Note_on_c, 1, 50, 64
1, 34308, Note_on_c, 1, 50, 0
1, 34308, Note_on_c, 1, 53, 64
1, 34320, Note_on_c, 0, 57, 70
1, 34320, Note_on_c, 1, 53, 0
1, 34332, Note_on_c, 0, 57, 0
1, 34332, Note_on_c, 0, 62, 70
1, 34344, Note_on_c, 0, 62, 0
1, 34344, Note_on_c, 0, 61, 71
1, 34356, Note_on_c, 0, 61, 0
1, 34356, Note_on_c, 0, 64, 71
1, 34368, Note_on_c, 0, 64, 0
1, 34368, Note_on_c, 0, 62, 72
1, 34380, Note_on_c, 0, 62, 0
1, 34380, Note_on_c, 0, 65, 72
1, 34392, Note_on_c, 0, 65, 0
1, 34392, Note_on_c, 0, 64, 73
1, 34404, Note_on_c, 0, 64, 0
1, 34404, Note_on_c, 0, 67, 73
1, 34416, Note_on_c, 0, 67, 0
1, 34416, Note_on_c, 0, 65, 74
1, 34428, Note_on_c, 0, 65, 0
1, 34428, Note_on_c, 0, 69, 74
1, 34440, Note_on_c, 0, 69, 0
1, 34440, Note_on_c, 0, 67, 75
1, 34452, Note_on_c, 0, 67, 0
1, 34452, Note_on_c, 0, 70, 75
1, 34464, Note_on_c, 0, 70, 0
1, 34464, Note_on_c, 0, 69, 76
1, 34476, Note_on_c, 0, 69, 0
1, 34476, Note_on_c, 0, 74, 76
1, 34488, Note_on_c, 0, 74, 0
1, 34488, Note_on_c, 0, 73, 77
1, 34500, Note_on_c, 0, 73, 0
1, 34500, Note_on_c, 0, 76, 77
1, 34512, Note_on_c, 0, 76, 0
1, 34512, Note_on_c, 0, 74, 78
1, 34524, Note_on_c, 0, 74, 0
1, 34524, Note_on_c, 0, 77, 78
1, 34536, Note_on_c, 0, 77, 0
1, 34536, Note_on_c, 0, 76, 79
1, 34548, Note_on_c, 0, 76, 0
1, 34548, Note_on_c, 0, 79, 79
1, 34560, Note_on_c, 0, 79, 0
1, 34560, Note_on_c, 0, 81, 112
1, 34560, Note_on_c, 0, 77, 112
1, 34560, Note_on_c, 1, 62, 80
1, 34560, Note_on_c, 1, 59, 80
1, 34723, Note_on_c, 0, 81, 0
1, 34723, Note_on_c, 0, 77, 0
1, 34728, Note_on_c, 0, 79, 80
1, 34728, Note_on_c, 0, 76, 80
1, 34737, Note_on_c, 1, 62, 0
1, 34737, Note_on_c, 1, 59, 0
1, 34751, Note_on_c, 0, 79, 0
1, 34751, Note_on_c, 0, 76, 0
1, 34752, Note_on_c, 0, 77, 80
1, 34752, Note_on_c, 0, 74, 80
1, 34752, Note_on_c, 1, 60, 80
1, 34797, Note_on_c, 1, 60, 0
1, 34799, Note_on_c, 0, 77, 0
1, 34799, Note_on_c, 0, 74, 0
1, 34824, Note_on_c, 0, 76, 77
1, 34824, Note_on_c, 0, 72, 77
1, 34847, Note_on_c, 0, 76, 0
1, 34847, Note_on_c, 0, 72, 0
1, 34848, Note_on_c, 0, 76, 76
1, 34848, Note_on_c, 0, 69, 64
1, 34848, Note_on_c, 1, 65, 76
1, 34848, Note_on_c, 1, 53, 76
1, 34915, Note_on_c, 0, 76, 0
1, 34920, Note_on_c, 0, 74, 73
1, 34937, Note_on_c, 0, 69, 0
1, 34937, Note_on_c, 1, 65, 0
1, 34937, Note_on_c, 1, 53, 0
1, 34943, Note_on_c, 0, 74, 0
1, 34944, Note_on_c, 0, 72, 72
1, 34944, Note_on_c, 0, 67, 64
1, 34944, Note_on_c, 1, 64, 72
1, 34944, Note_on_c, 1, 55, 72
1, 34964, Note_on_c, 0, 72, 0
1, 34964, Note_on_c, 0, 67, 0
1, 34964, Note_on_c, 1, 64, 0
1, 34964, Note_on_c, 1, 55, 0
1, 35040, Note_on_c, 0, 72, 64
1, 35040, Note_on_c, 0, 65, 64
1, 35040, Note_on_c, 1, 62, 64
1, 35040, Note_on_c, 1, 55, 64
1, 35046, Note_on_c, 0, 72, 0
1, 35046, Note_on_c, 0, 71, 64
1, 35052, Note_on_c, 0, 71, 0
1, 35052, Note_on_c, 0, 69, 64
1, 35058, Note_on_c, 0, 69, 0
1, 35058, Note_on_c, 0, 71, 64
1, 35085, Note_on_c, 0, 71, 0
1, 35085, Note_on_c, 0, 65, 0
1, 35085, Note_on_c, 1, 62, 0
1, 35085, Note_on_c, 1, 55, 0
1, 35136, Note_on_c, 0, 72, 64
1, 35136, Note_on_c, 0, 64, 64
1, 35136, Note_on_c, 1, 60, 64
1, 35136, Note_on_c, 1, 48, 64
1, 35225, Note_on_c, 0, 72, 0
1, 35225, Note_on_c, 0, 64, 0
1, 35225, Note_on_c, 1, 60, 0
1, 35225, Note_on_c, 1, 48, 0
1, 35424, Note_on_c, 0, 55, 64
1, 35448, Note_on_c, 1, 36, 64
1, 35471, Note_on_c, 1, 36, 0
1, 35472, Note_on_c, 1, 39, 64
1, 35495, Note_on_c, 1, 39, 0
1, 35496, Note_on_c, 1, 43, 64
1, 35513, Note_on_c, 0, 55, 0
1, 35519, Note_on_c, 1, 43, 0
1, 35520, Note_on_c, 0, 63, 64
1, 35520, Note_on_c, 1, 48, 64
1, 35543, Note_on_c, 1, 48, 0
1, 35544, Note_on_c, 1, 39, 64
1, 35567, Note_on_c, 1, 39, 0
1, 35568, Note_on_c, 1, 43, 64
1, 35591, Note_on_c, 1, 43, 0
1, 35592, Note_on_c, 1, 48, 64
1, 35609, Note_on_c, 0, 63, 0
1, 35615, Note_on_c, 1, 48, 0
1, 35616, Note_on_c, 0, 60, 64
1, 35616, Note_on_c, 1, 51, 64
1, 35639, Note_on_c, 1, 51, 0
1, 35640, Note_on_c, 1, 43, 64
1, 35663, Note_on_c, 1, 43, 0
1, 35664, Note_on_c, 1, 48, 64
1, 35687, Note_on_c, 1, 48, 0
1, 35688, Note_on_c, 1, 51, 64
1, 35705, Note_on_c, 0, 60, 0
1, 35711, Note_on_c, 1, 51, 0
1, 35712, Note_on_c, 0, 59, 64
1, 35712, Note_on_c, 1, 53, 64
1, 35735, Note_on_c, 1, 53, 0
1, 35736, Note_on_c, 1, 43, 65
1, 35759, Note_on_c, 1, 43, 0
1, 35760, Note_on_c, 1, 53, 67
1, 35783, Note_on_c, 1, 53, 0
1, 35784, Note_on_c, 1, 43, 69
1, 35807, Note_on_c, 1, 43, 0
1, 35808, Note_on_c, 0, 59, 0
1, 35808, Note_on_c, 0, 67, 64
1, 35808, Note_on_c, 1, 53, 71
1, 35831, Note_on_c, 1, 53, 0
1, 35832, Note_on_c, 1, 43, 72
1, 35855, Note_on_c, 1, 43, 0
1, 35856, Note_on_c, 1, 53, 74
1, 35879, Note_on_c, 1, 53, 0
1, 35880, Note_on_c, 1, 43, 76
1, 35897, Note_on_c, 0, 67, 0
1, 35903, Note_on_c, 1, 43, 0
1, 35904, Note_on_c, 1, 53, 78
1, 35927, Note_on_c, 1, 53, 0
1, 35928, Note_on_c, 1, 43, 80
1, 35951, Note_on_c, 1, 43, 0
1, 35952, Note_on_c, 1, 53, 80
1, 35975, Note_on_c, 1, 53, 0
1, 35976, Note_on_c, 1, 43, 80
1, 35999, Note_on_c, 1, 43, 0
1, 36000, Note_on_c, 1, 55, 80
1, 36000, Note_on_c, 1, 51, 80
1, 36024, Note_on_c, 0, 67, 80
1, 36047, Note_on_c, 0, 67, 0
1, 36048, Note_on_c, 0, 72, 80
1, 36071, Note_on_c, 0, 72, 0
1, 36072, Note_on_c, 0, 75, 80
1, 36089, Note_on_c, 1, 55, 0
1, 36089, Note_on_c, 1, 51, 0
1, 36095, Note_on_c, 0, 75, 0
1, 36096, Note_on_c, 0, 79, 80
1, 36096, Note_on_c, 1, 63, 80
1, 36119, Note_on_c, 0, 79, 0
1, 36120, Note_on_c, 0, 72, 80
1, 36143, Note_on_c, 0, 72, 0
1, 36144, Note_on_c, 0, 75, 80
1, 36167, Note_on_c, 0, 75, 0
1, 36168, Note_on_c, 0, 79, 80
1, 36191, Note_on_c, 0, 79, 0
1, 36192, Note_on_c, 0, 84, 80
1, 36192, Note_on_c, 1, 63, 0
1, 36192, Note_on_c, 1, 60, 80
1, 36215, Note_on_c, 0, 84, 0
1, 36216, Note_on_c, 0, 79, 80
1, 36239, Note_on_c, 0, 79, 0
1, 36240, Note_on_c, 0, 84, 80
1, 36263, Note_on_c, 0, 84, 0
1, 36264, Note_on_c, 0, 87, 80
1, 36281, Note_on_c, 1, 60, 0
1, 36287, Note_on_c, 0, 87, 0
1, 36288, Note_on_c, 0, 86, 80
1, 36288, Note_on_c, 1, 59, 80
1, 36311, Note_on_c, 0, 86, 0
1, 36312, Note_on_c, 0, 77, 80
1, 36335, Note_on_c, 0, 77, 0
1, 36336, Note_on_c, 0, 86, 80
1, 36359, Note_on_c, 0, 86, 0
1, 36360, Note_on_c, 0, 77, 80
1, 36383, Note_on_c, 0, 77, 0
1, 36384, Note_on_c, 0, 86, 80
1, 36384, Note_on_c, 1, 59, 0
1, 36384, Note_on_c, 1, 67, 80
1, 36407, Note_on_c, 0, 86, 0
1, 36408, Note_on_c, 0, 77, 78
1, 36431, Note_on_c, 0, 77, 0
1, 36432, Note_on_c, 0, 86, 76
1, 36455, Note_on_c, 0, 86, 0
1, 36456, Note_on_c, 0, 77, 74
1, 36473, Note_on_c, 1, 67, 0
1, 36479, Note_on_c, 0, 77, 0
1, 36480, Note_on_c, 0, 86, 72
1, 36503, Note_on_c, 0, 86, 0
1, 36504, Note_on_c, 0, 77, 70
1, 36527, Note_on_c, 0, 77, 0
1, 36528, Note_on_c, 0, 86, 68
1, 36551, Note_on_c, 0, 86, 0
1, 36552, Note_on_c, 0, 77, 66
1, 36575, Note_on_c, 0, 77, 0
1, 36576, Note_on_c, 0, 85, 64
1, 36576, Note_on_c, 1, 58, 64
1, 36599, Note_on_c, 0, 85, 0
1, 36600, Note_on_c, 0, 76, 64
1, 36623, Note_on_c, 0, 76, 0
1, 36624, Note_on_c, 0, 85, 64
1, 36647, Note_on_c, 0, 85, 0
1, 36648, Note_on_c, 0, 76, 64
1, 36671, Note_on_c, 0, 76, 0
1, 36672, Note_on_c, 0, 85, 64
1, 36672, Note_on_c, 1, 58, 0
1, 36672, Note_on_c, 1, 67, 64
1, 36695, Note_on_c, 0, 85, 0
1, 36696, Note_on_c, 0, 76, 64
1, 36719, Note_on_c, 0, 76, 0
1, 36720, Note_on_c, 0, 85, 64
1, 36743, Note_on_c, 0, 85, 0
1, 36744, Note_on_c, 0, 76, 64
1, 36761, Note_on_c, 1, 67, 0
1, 36767, Note_on_c, 0, 76, 0
1, 36768, Note_on_c, 0, 85, 64
1, 36791, Note_on_c, 0, 85, 0
1, 36792, Note_on_c, 0, 76, 64
1, 36815, Note_on_c, 0, 76, 0
1, 36816, Note_on_c, 0, 85, 64
1, 36839, Note_on_c, 0, 85, 0
1, 36840, Note_on_c, 0, 76, 64
1, 36863, Note_on_c, 0, 76, 0
1, 36864, Note_on_c, 0, 84, 96
1, 36864, Note_on_c, 1, 65, 80
1, 36864, Note_on_c, 1, 60, 80
1, 36864, Note_on_c, 1, 56, 80
1, 36880, Note_on_c, 0, 84, 0
1, 36880, Note_on_c, 0, 80, 80
1, 36895, Note_on_c, 0, 80, 0
1, 36896, Note_on_c, 0, 77, 78
1, 36911, Note_on_c, 0, 77, 0
1, 36912, Note_on_c, 0, 72, 76
1, 36927, Note_on_c, 0, 72, 0
1, 36928, Note_on_c, 0, 77, 74
1, 36943, Note_on_c, 0, 77, 0
1, 36944, Note_on_c, 0, 80, 72
1, 36953, Note_on_c, 1, 65, 0
1, 36953, Note_on_c, 1, 60, 0
1, 36953, Note_on_c, 1, 56, 0
1, 36959, Note_on_c, 0, 80, 0
1, 36960, Note_on_c, 0, 84, 70
1, 36960, Note_on_c, 1, 68, 64
1, 36960, Note_on_c, 1, 65, 64
1, 36975, Note_on_c, 0, 84, 0
1, 36976, Note_on_c, 0, 80, 64
1, 36991, Note_on_c, 0, 80, 0
1, 36992, Note_on_c, 0, 77, 64
1, 36999, Note_on_c, 1, 68, 0
1, 36999, Note_on_c, 1, 65, 0
1, 37007, Note_on_c, 0, 77, 0
1, 37008, Note_on_c, 0, 72, 64
1, 37023, Note_on_c, 0, 72, 0
1, 37024, Note_on_c, 0, 77, 64
1, 37039, Note_on_c, 0, 77, 0
1, 37040, Note_on_c, 0, 80, 64
1, 37055, Note_on_c, 0, 80, 0
1, 37056, Note_on_c, 0, 84, 64
1, 37071, Note_on_c, 0, 84, 0
1, 37072, Note_on_c, 0, 80, 66
1, 37087, Note_on_c, 0, 80, 0
1, 37088, Note_on_c, 0, 77, 68
1, 37103, Note_on_c, 0, 77, 0
1, 37104, Note_on_c, 0, 84, 71
1, 37119, Note_on_c, 0, 84, 0
1, 37120, Note_on_c, 0, 80, 73
1, 37135, Note_on_c, 0, 80, 0
1, 37136, Note_on_c, 0, 77, 80
1, 37151, Note_on_c, 0, 77, 0
1, 37152, Note_on_c, 0, 84, 96
1, 37152, Note_on_c, 1, 60, 80
1, 37152, Note_on_c, 1, 55, 80
1, 37152, Note_on_c, 1, 52, 80
1, 37168, Note_on_c, 0, 84, 0
1, 37168, Note_on_c, 0, 82, 80
1, 37183, Note_on_c, 0, 82, 0
1, 37184, Note_on_c, 0, 79, 78
1, 37199, Note_on_c, 0, 79, 0
1, 37200, Note_on_c, 0, 76, 76
1, 37215, Note_on_c, 0, 76, 0
1, 37216, Note_on_c, 0, 79, 74
1, 37231, Note_on_c, 0, 79, 0
1, 37232, Note_on_c, 0, 82, 72
1, 37241, Note_on_c, 1, 60, 0
1, 37241, Note_on_c, 1, 55, 0
1, 37241, Note_on_c, 1, 52, 0
1, 37247, Note_on_c, 0, 82, 0
1, 37248, Note_on_c, 0, 84, 70
1, 37248, Note_on_c, 1, 67, 64
1, 37248, Note_on_c, 1, 64, 64
1, 37263, Note_on_c, 0, 84, 0
1, 37264, Note_on_c, 0, 82, 64
1, 37279, Note_on_c, 0, 82, 0
1, 37280, Note_on_c, 0, 79, 64
1, 37287, Note_on_c, 1, 67, 0
1, 37287, Note_on_c, 1, 64, 0
1, 37295, Note_on_c, 0, 79, 0
1, 37296, Note_on_c, 0, 76, 64
1, 37311, Note_on_c, 0, 76, 0
1, 37312, Note_on_c, 0, 79, 64
1, 37327, Note_on_c, 0, 79, 0
1, 37328, Note_on_c, 0, 82, 64
1, 37343, Note_on_c, 0, 82, 0
1, 37344, Note_on_c, 0, 84, 64
1, 37359, Note_on_c, 0, 84, 0
1, 37360, Note_on_c, 0, 82, 66
1, 37375, Note_on_c, 0, 82, 0
1, 37376, Note_on_c, 0, 79, 68
1, 37391, Note_on_c, 0, 79, 0
1, 37392, Note_on_c, 0, 84, 70
1, 37407, Note_on_c, 0, 84, 0
1, 37408, Note_on_c, 0, 82, 72
1, 37423, Note_on_c, 0, 82, 0
1, 37424, Note_on_c, 0, 79, 74
1, 37439, Note_on_c, 0, 79, 0
1, 37440, Note_on_c, 0, 84, 96
1, 37440, Note_on_c, 1, 65, 80
1, 37440, Note_on_c, 1, 60, 80
1, 37440, Note_on_c, 1, 56, 80
1, 37456, Note_on_c, 0, 84, 0
1, 37456, Note_on_c, 0, 80, 80
1, 37471, Note_on_c, 0, 80, 0
1, 37472, Note_on_c, 0, 77, 78
1, 37487, Note_on_c, 0, 77, 0
1, 37488, Note_on_c, 0, 72, 76
1, 37503, Note_on_c, 0, 72, 0
1, 37504, Note_on_c, 0, 77, 74
1, 37519, Note_on_c, 0, 77, 0
1, 37520, Note_on_c, 0, 80, 72
1, 37529, Note_on_c, 1, 65, 0
1, 37529, Note_on_c, 1, 60, 0
1, 37529, Note_on_c, 1, 56, 0
1, 37535, Note_on_c, 0, 80, 0
1, 37536, Note_on_c, 0, 84, 70
1, 37536, Note_on_c, 1, 68, 64
1, 37536, Note_on_c, 1, 65, 64
1, 37551, Note_on_c, 0, 84, 0
1, 37552, Note_on_c, 0, 80, 64
1, 37567, Note_on_c, 0, 80, 0
1, 37568, Note_on_c, 0, 77, 64
1, 37575, Note_on_c, 1, 68, 0
1, 37575, Note_on_c, 1, 65, 0
1, 37583, Note_on_c, 0, 77, 0
1, 37584, Note_on_c, 0, 72, 64
1, 37599, Note_on_c, 0, 72, 0
1, 37600, Note_on_c, 0, 77, 64
1, 37615, Note_on_c, 0, 77, 0
1, 37616, Note_on_c, 0, 80, 64
1, 37631, Note_on_c, 0, 80, 0
1, 37632, Note_on_c, 0, 84, 64
1, 37647, Note_on_c, 0, 84, 0
1, 37648, Note_on_c, 0, 80, 67
1, 37663, Note_on_c, 0, 80, 0
1, 37664, Note_on_c, 0, 77, 70
1, 37679, Note_on_c, 0, 77, 0
1, 37680, Note_on_c, 0, 84, 74
1, 37695, Note_on_c, 0, 84, 0
1, 37696, Note_on_c, 0, 80, 77
1, 37711, Note_on_c, 0, 80, 0
1, 37712, Note_on_c, 0, 77, 86
1, 37727, Note_on_c, 0, 77, 0
1, 37728, Note_on_c, 0, 84, 102
1, 37728, Note_on_c, 1, 61, 86
1, 37728, Note_on_c, 1, 53, 86
1, 37728, Note_on_c, 1, 49, 86
1, 37744, Note_on_c, 0, 84, 0
1, 37744, Note_on_c, 0, 80, 86
1, 37759, Note_on_c, 0, 80, 0
1, 37760, Note_on_c, 0, 77, 86
1, 37775, Note_on_c, 0, 77, 0
1, 37776, Note_on_c, 0, 84, 86
1, 37791, Note_on_c, 0, 84, 0
1, 37792, Note_on_c, 0, 80, 86
1, 37807, Note_on_c, 0, 80, 0
1, 37808, Note_on_c, 0, 77, 86
1, 37823, Note_on_c, 0, 77, 0
1, 37824, Note_on_c, 0, 82, 102
1, 37840, Note_on_c, 0, 82, 0
1, 37840, Note_on_c, 0, 80, 86
1, 37855, Note_on_c, 0, 80, 0
1, 37856, Note_on_c, 0, 77, 86
1, 37871, Note_on_c, 0, 77, 0
1, 37872, Note_on_c, 0, 82, 86
1, 37887, Note_on_c, 0, 82, 0
1, 37888, Note_on_c, 0, 80, 86
1, 37903, Note_on_c, 0, 80, 0
1, 37904, Note_on_c, 0, 77, 86
1, 37905, Note_on_c, 1, 61, 0
1, 37905, Note_on_c, 1, 53, 0
1, 37905, Note_on_c, 1, 49, 0
1, 37919, Note_on_c, 0, 77, 0
1, 37920, Note_on_c, 0, 82, 102
1, 37920, Note_on_c, 1, 62, 86
1, 37920, Note_on_c, 1, 50, 86
1, 37936, Note_on_c, 0, 82, 0
1, 37936, Note_on_c, 0, 80, 86
1, 37951, Note_on_c, 0, 80, 0
1, 37952, Note_on_c, 0, 77, 86
1, 37967, Note_on_c, 0, 77, 0
1, 37968, Note_on_c, 0, 82, 86
1, 37983, Note_on_c, 0, 82, 0
1, 37984, Note_on_c, 0, 80, 86
1, 37999, Note_on_c, 0, 80, 0
1, 38000, Note_on_c, 0, 77, 86
1, 38009, Note_on_c, 1, 62, 0
1, 38009, Note_on_c, 1, 50, 0
1, 38015, Note_on_c, 0, 77, 0
1, 38016, Note_on_c, 0, 79, 86
1, 38016, Note_on_c, 1, 63, 86
1, 38016, Note_on_c, 1, 51, 86
1, 38031, Note_on_c, 0, 79, 0
1, 38032, Note_on_c, 0, 82, 86
1, 38047, Note_on_c, 0, 82, 0
1, 38048, Note_on_c, 0, 80, 86
1, 38063, Note_on_c, 0, 80, 0
1, 38064, Note_on_c, 0, 79, 86
1, 38079, Note_on_c, 0, 79, 0
1, 38080, Note_on_c, 0, 77, 86
1, 38095, Note_on_c, 0, 77, 0
1, 38096, Note_on_c, 0, 75, 86
1, 38105, Note_on_c, 1, 63, 0
1, 38105, Note_on_c, 1, 51, 0
1, 38111, Note_on_c, 0, 75, 0
1, 38112, Note_on_c, 0, 74, 86
1, 38127, Note_on_c, 0, 74, 0
1, 38128, Note_on_c, 0, 72, 84
1, 38143, Note_on_c, 0, 72, 0
1, 38144, Note_on_c, 0, 70, 83
1, 38159, Note_on_c, 0, 70, 0
1, 38160, Note_on_c, 0, 68, 81
1, 38175, Note_on_c, 0, 68, 0
1, 38176, Note_on_c, 0, 67, 80
1, 38191, Note_on_c, 0, 67, 0
1, 38192, Note_on_c, 0, 65, 79
1, 38207, Note_on_c, 0, 65, 0
1, 38208, Note_on_c, 0, 63, 77
1, 38221, Note_on_c, 0, 63, 0
1, 38222, Note_on_c, 0, 62, 76
1, 38235, Note_on_c, 0, 62, 0
1, 38236, Note_on_c, 0, 60, 75
1, 38249, Note_on_c, 0, 60, 0
1, 38250, Note_on_c, 0, 58, 73
1, 38263, Note_on_c, 0, 58, 0
1, 38264, Note_on_c, 0, 56, 72
1, 38277, Note_on_c, 0, 56, 0
1, 38278, Note_on_c, 0, 55, 70
1, 38290, Note_on_c, 0, 55, 0
1, 38291, Note_on_c, 0, 53, 69
1, 38303, Note_on_c, 0, 53, 0
1, 38304, Note_on_c, 0, 51, 64
1, 38400, Note_on_c, 1, 48, 64
1, 38445, Note_on_c, 1, 48, 0
1, 38448, Note_on_c, 1, 49, 64
1, 38493, Note_on_c, 1, 49, 0
1, 38496, Note_on_c, 1, 48, 64
1, 38541, Note_on_c, 1, 48, 0
1, 38544, Note_on_c, 1, 46, 64
1, 38589, Note_on_c, 1, 46, 0
1, 38592, Note_on_c, 1, 48, 64
1, 38592, Note_on_c, 1, 44, 64
1, 38641, Note_on_c, 0, 51, 0
1, 38646, Note_on_c, 0, 53, 64
1, 38652, Note_on_c, 0, 53, 0
1, 38652, Note_on_c, 0, 51, 64
1, 38658, Note_on_c, 0, 51, 0
1, 38658, Note_on_c, 0, 50, 64
1, 38664, Note_on_c, 0, 50, 0
1, 38664, Note_on_c, 0, 51, 68
1, 38687, Note_on_c, 0, 51, 0
1, 38688, Note_on_c, 0, 60, 69
1, 38784, Note_on_c, 0, 60, 0
1, 38784, Note_on_c, 0, 56, 75
1, 38857, Note_on_c, 1, 48, 0
1, 38857, Note_on_c, 1, 44, 0
1, 38873, Note_on_c, 0, 56, 0
1, 38880, Note_on_c, 0, 55, 70
1, 38880, Note_on_c, 1, 51, 64
1, 38880, Note_on_c, 1, 49, 64
1, 38880, Note_on_c, 1, 46, 64
1, 38947, Note_on_c, 0, 55, 0
1, 38952, Note_on_c, 0, 65, 67
1, 38975, Note_on_c, 0, 65, 0
1, 38976, Note_on_c, 0, 63, 66
1, 39021, Note_on_c, 0, 63, 0
1, 39021, Note_on_c, 1, 51, 0
1, 39021, Note_on_c, 1, 49, 0
1, 39021, Note_on_c, 1, 46, 0
1, 39168, Note_on_c, 0, 63, 70
1, 39168, Note_on_c, 1, 60, 70
1, 39168, Note_on_c, 1, 56, 70
1, 39213, Note_on_c, 0, 63, 0
1, 39216, Note_on_c, 0, 65, 70
1, 39226, Note_on_c, 0, 65, 0
1, 39240, Note_on_c, 0, 67, 70
1, 39250, Note_on_c, 0, 67, 0
1, 39264, Note_on_c, 0, 68, 71
1, 39274, Note_on_c, 0, 68, 0
1, 39288, Note_on_c, 0, 70, 71
1, 39298, Note_on_c, 0, 70, 0
1, 39312, Note_on_c, 0, 72, 72
1, 39322, Note_on_c, 0, 72, 0
1, 39336, Note_on_c, 0, 73, 72
1, 39346, Note_on_c, 0, 73, 0
1, 39360, Note_on_c, 0, 75, 73
1, 39370, Note_on_c, 0, 75, 0
1, 39384, Note_on_c, 0, 77, 73
1, 39394, Note_on_c, 0, 77, 0
1, 39408, Note_on_c, 0, 79, 74
1, 39418, Note_on_c, 0, 79, 0
1, 39432, Note_on_c, 0, 80, 74
1, 39433, Note_on_c, 1, 60, 0
1, 39433, Note_on_c, 1, 56, 0
1, 39442, Note_on_c, 0, 80, 0
1, 39456, Note_on_c, 0, 79, 75
1, 39456, Note_on_c, 1, 63, 70
1, 39456, Note_on_c, 1, 61, 70
1, 39456, Note_on_c, 1, 58, 70
1, 39479, Note_on_c, 0, 79, 0
1, 39480, Note_on_c, 0, 75, 74
1, 39503, Note_on_c, 0, 75, 0
1, 39504, Note_on_c, 0, 73, 73
1, 39527, Note_on_c, 0, 73, 0
1, 39528, Note_on_c, 0, 70, 72
1, 39551, Note_on_c, 0, 70, 0
1, 39552, Note_on_c, 0, 67, 71
1, 39589, Note_on_c, 1, 63, 0
1, 39589, Note_on_c, 1, 61, 0
1, 39589, Note_on_c, 1, 58, 0
1, 39597, Note_on_c, 0, 67, 0
1, 39744, Note_on_c, 0, 68, 70
1, 39744, Note_on_c, 1, 63, 70
1, 39744, Note_on_c, 1, 60, 70
1, 39771, Note_on_c, 0, 68, 0
1, 39774, Note_on_c, 0, 70, 70
1, 39780, Note_on_c, 0, 70, 0
1, 39780, Note_on_c, 0, 68, 70
1, 39786, Note_on_c, 0, 68, 0
1, 39786, Note_on_c, 0, 67, 70
1, 39792, Note_on_c, 0, 67, 0
1, 39792, Note_on_c, 0, 68, 70
1, 39826, Note_on_c, 0, 68, 0
1, 39828, Note_on_c, 0, 72, 70
1, 39840, Note_on_c, 0, 72, 0
1, 39840, Note_on_c, 0, 75, 70
1, 39885, Note_on_c, 0, 75, 0
1, 39885, Note_on_c, 1, 63, 0
1, 39885, Note_on_c, 1, 60, 0
1, 40032, Note_on_c, 0, 69, 80
1, 40032, Note_on_c, 1, 66, 80
1, 40032, Note_on_c, 1, 63, 80
1, 40032, Note_on_c, 1, 60, 80
1, 40099, Note_on_c, 0, 69, 0
1, 40104, Note_on_c, 0, 69, 80
1, 40110, Note_on_c, 0, 69, 0
1, 40110, Note_on_c, 0, 70, 80
1, 40116, Note_on_c, 0, 70, 0
1, 40116, Note_on_c, 0, 72, 80
1, 40121, Note_on_c, 1, 66, 0
1, 40121, Note_on_c, 1, 63, 0
1, 40121, Note_on_c, 1, 60, 0
1, 40122, Note_on_c, 0, 72, 0
1, 40122, Note_on_c, 0, 73, 80
1, 40128, Note_on_c, 0, 73, 0
1, 40128, Note_on_c, 0, 75, 80
1, 40128, Note_on_c, 1, 60, 80
1, 40128, Note_on_c, 1, 57, 80
1, 40162, Note_on_c, 0, 75, 0
1, 40164, Note_on_c, 0, 72, 80
1, 40176, Note_on_c, 0, 72, 0
1, 40176, Note_on_c, 0, 78, 96
1, 40236, Note_on_c, 0, 65, 75
1, 40272, Note_on_c, 0, 78, 0
1, 40272, Note_on_c, 0, 77, 80
1, 40284, Note_on_c, 0, 77, 0
1, 40284, Note_on_c, 0, 75, 80
1, 40296, Note_on_c, 0, 75, 0
1, 40296, Note_on_c, 0, 73, 80
1, 40308, Note_on_c, 0, 73, 0
1, 40308, Note_on_c, 0, 72, 80
1, 40318, Note_on_c, 1, 60, 0
1, 40318, Note_on_c, 1, 57, 0
1, 40320, Note_on_c, 0, 72, 0
1, 40320, Note_on_c, 0, 70, 80
1, 40320, Note_on_c, 1, 65, 80
1, 40320, Note_on_c, 1, 61, 80
1, 40320, Note_on_c, 1, 58, 80
1, 40330, Note_on_c, 0, 65, 0
1, 40387, Note_on_c, 0, 70, 0
1, 40392, Note_on_c, 0, 72, 80
1, 40400, Note_on_c, 0, 72, 0
1, 40400, Note_on_c, 0, 73, 80
1, 40408, Note_on_c, 0, 73, 0
1, 40408, Note_on_c, 0, 75, 80
1, 40409, Note_on_c, 1, 65, 0
1, 40409, Note_on_c, 1, 61, 0
1, 40409, Note_on_c, 1, 58, 0
1, 40416, Note_on_c, 0, 75, 0
1, 40416, Note_on_c, 0, 77, 80
1, 40416, Note_on_c, 1, 65, 80
1, 40416, Note_on_c, 1, 62, 80
1, 40416, Note_on_c, 1, 59, 80
1, 40439, Note_on_c, 0, 77, 0
1, 40440, Note_on_c, 0, 76, 80
1, 40448, Note_on_c, 0, 76, 0
1, 40448, Note_on_c, 0, 77, 80
1, 40456, Note_on_c, 0, 77, 0
1, 40456, Note_on_c, 0, 79, 80
1, 40464, Note_on_c, 0, 79, 0
1, 40464, Note_on_c, 0, 80, 96
1, 40512, Note_on_c, 1, 65, 0
1, 40524, Note_on_c, 0, 67, 75
1, 40560, Note_on_c, 0, 80, 0
1, 40560, Note_on_c, 0, 79, 80
1, 40572, Note_on_c, 0, 79, 0
1, 40572, Note_on_c, 0, 77, 80
1, 40584, Note_on_c, 0, 77, 0
1, 40584, Note_on_c, 0, 75, 80
1, 40596, Note_on_c, 0, 75, 0
1, 40596, Note_on_c, 0, 74, 80
1, 40606, Note_on_c, 1, 62, 0
1, 40606, Note_on_c, 1, 59, 0
1, 40608, Note_on_c, 0, 74, 0
1, 40608, Note_on_c, 0, 72, 80
1, 40608, Note_on_c, 1, 67, 80
1, 40608, Note_on_c, 1, 63, 80
1, 40608, Note_on_c, 1, 60, 80
1, 40618, Note_on_c, 0, 67, 0
1, 40631, Note_on_c, 0, 72, 0
1, 40632, Note_on_c, 0, 74, 80
1, 40644, Note_on_c, 0, 74, 0
1, 40644, Note_on_c, 0, 75, 80
1, 40656, Note_on_c, 0, 75, 0
1, 40656, Note_on_c, 0, 77, 80
1, 40668, Note_on_c, 0, 77, 0
1, 40668, Note_on_c, 0, 79, 80
1, 40680, Note_on_c, 0, 79, 0
1, 40680, Note_on_c, 0, 81, 80
1, 40692, Note_on_c, 0, 81, 0
1, 40692, Note_on_c, 0, 83, 80
1, 40697, Note_on_c, 1, 67, 0
1, 40697, Note_on_c, 1, 63, 0
1, 40697, Note_on_c, 1, 60, 0
1, 40704, Note_on_c, 0, 83, 0
1, 40704, Note_on_c, 0, 84, 80
1, 40704, Note_on_c, 1, 66, 80
1, 40704, Note_on_c, 1, 60, 80
1, 40704, Note_on_c, 1, 56, 80
1, 40727, Note_on_c, 0, 84, 0
1, 40728, Note_on_c, 0, 83, 80
1, 40751, Note_on_c, 0, 83, 0
1, 40752, Note_on_c, 0, 86, 80
1, 40775, Note_on_c, 0, 86, 0
1, 40776, Note_on_c, 0, 84, 80
1, 40799, Note_on_c, 0, 84, 0
1, 40800, Note_on_c, 0, 87, 80
1, 40823, Note_on_c, 0, 87, 0
1, 40824, Note_on_c, 0, 86, 80
1, 40847, Note_on_c, 0, 86, 0
1, 40848, Note_on_c, 0, 89, 80
1, 40871, Note_on_c, 0, 89, 0
1, 40872, Note_on_c, 0, 87, 80
1, 40895, Note_on_c, 0, 87, 0
1, 40896, Note_on_c, 0, 86, 80
1, 40896, Note_on_c, 1, 66, 0
1, 40919, Note_on_c, 0, 86, 0
1, 40920, Note_on_c, 0, 84, 80
1, 40943, Note_on_c, 0, 84, 0
1, 40944, Note_on_c, 0, 87, 112
1, 40967, Note_on_c, 0, 87, 0
1, 40968, Note_on_c, 0, 86, 80
1, 40991, Note_on_c, 0, 86, 0
1, 40992, Note_on_c, 0, 84, 80
1, 41015, Note_on_c, 0, 84, 0
1, 41016, Note_on_c, 0, 83, 80
1, 41039, Note_on_c, 0, 83, 0
1, 41040, Note_on_c, 0, 86, 112
1, 41063, Note_on_c, 0, 86, 0
1, 41064, Note_on_c, 0, 84, 80
1, 41087, Note_on_c, 0, 84, 0
1, 41088, Note_on_c, 0, 82, 80
1, 41111, Note_on_c, 0, 82, 0
1, 41112, Note_on_c, 0, 80, 80
1, 41135, Note_on_c, 0, 80, 0
1, 41136, Note_on_c, 0, 79, 80
1, 41159, Note_on_c, 0, 79, 0
1, 41160, Note_on_c, 0, 78, 80
1, 41161, Note_on_c, 1, 60, 0
1, 41161, Note_on_c, 1, 56, 0
1, 41183, Note_on_c, 0, 78, 0
1, 41184, Note_on_c, 0, 79, 80
1, 41184, Note_on_c, 1, 59, 80
1, 41184, Note_on_c, 1, 55, 80
1, 41207, Note_on_c, 0, 79, 0
1, 41208, Note_on_c, 0, 74, 80
1, 41231, Note_on_c, 0, 74, 0
1, 41232, Note_on_c, 0, 75, 80
1, 41255, Note_on_c, 0, 75, 0
1, 41256, Note_on_c, 0, 72, 80
1, 41273, Note_on_c, 1, 59, 0
1, 41273, Note_on_c, 1, 55, 0
1, 41279, Note_on_c, 0, 72, 0
1, 41280, Note_on_c, 0, 74, 80
1, 41303, Note_on_c, 0, 74, 0
1, 41304, Note_on_c, 0, 71, 78
1, 41327, Note_on_c, 0, 71, 0
1, 41328, Note_on_c, 0, 72, 76
1, 41351, Note_on_c, 0, 72, 0
1, 41352, Note_on_c, 0, 69, 74
1, 41375, Note_on_c, 0, 69, 0
1, 41376, Note_on_c, 0, 71, 72
1, 41399, Note_on_c, 0, 71, 0
1, 41400, Note_on_c, 0, 67, 70
1, 41423, Note_on_c, 0, 67, 0
1, 41424, Note_on_c, 0, 69, 68
1, 41447, Note_on_c, 0, 69, 0
1, 41448, Note_on_c, 0, 66, 66
1, 41471, Note_on_c, 0, 66, 0
1, 41472, Note_on_c, 0, 67, 64
1, 41495, Note_on_c, 0, 67, 0
1, 41496, Note_on_c, 0, 62, 64
1, 41519, Note_on_c, 0, 62, 0
1, 41520, Note_on_c, 0, 63, 64
1, 41543, Note_on_c, 0, 63, 0
1, 41544, Note_on_c, 0, 60, 64
1, 41567, Note_on_c, 0, 60, 0
1, 41568, Note_on_c, 0, 59, 64
1, 41591, Note_on_c, 0, 59, 0
1, 41592, Note_on_c, 0, 62, 64
1, 41615, Note_on_c, 0, 62, 0
1, 41616, Note_on_c, 0, 60, 64
1, 41639, Note_on_c, 0, 60, 0
1, 41640, Note_on_c, 0, 57, 64
1, 41663, Note_on_c, 0, 57, 0
1, 41664, Note_on_c, 0, 55, 64
1, 41687, Note_on_c, 0, 55, 0
1, 41688, Note_on_c, 0, 59, 64
1, 41711, Note_on_c, 0, 59, 0
1, 41712, Note_on_c, 0, 57, 64
1, 41735, Note_on_c, 0, 57, 0
1, 41736, Note_on_c, 0, 54, 64
1, 41759, Note_on_c, 0, 54, 0
1, 41760, Note_on_c, 0, 55, 64
1, 41760, Note_on_c, 1, 43, 64
1, 41760, Note_on_c, 1, 31, 64
1, 41772, Note_on_c, 0, 55, 0
1, 41772, Note_on_c, 0, 59, 64
1, 41784, Note_on_c, 0, 59, 0
1, 41784, Note_on_c, 0, 57, 64
1, 41796, Note_on_c, 0, 57, 0
1, 41796, Note_on_c, 0, 60, 64
1, 41808, Note_on_c, 0, 60, 0
1, 41808, Note_on_c, 0, 59, 64
1, 41820, Note_on_c, 0, 59, 0
1, 41820, Note_on_c, 0, 62, 64
1, 41832, Note_on_c, 0, 62, 0
1, 41832, Note_on_c, 0, 60, 64
1, 41844, Note_on_c, 0, 60, 0
1, 41844, Note_on_c, 0, 64, 64
1, 41849, Note_on_c, 1, 43, 0
1, 41849, Note_on_c, 1, 31, 0
1, 41856, Note_on_c, 0, 64, 0
1, 41856, Note_on_c, 0, 62, 64
1, 41868, Note_on_c, 0, 62, 0
1, 41868, Note_on_c, 0, 65, 64
1, 41880, Note_on_c, 0, 65, 0
1, 41880, Note_on_c, 0, 64, 64
1, 41892, Note_on_c, 0, 64, 0
1, 41892, Note_on_c, 0, 67, 64
1, 41904, Note_on_c, 0, 67, 0
1, 41904, Note_on_c, 0, 65, 64
1, 41916, Note_on_c, 0, 65, 0
1, 41916, Note_on_c, 0, 69, 64
1, 41928, Note_on_c, 0, 69, 0
1, 41928, Note_on_c, 0, 67, 64
1, 41940, Note_on_c, 0, 67, 0
1, 41940, Note_on_c, 0, 71, 64
1, 41952, Note_on_c, 0, 71, 0
1, 41952, Note_on_c, 0, 69, 64
1, 41964, Note_on_c, 0, 69, 0
1, 41964, Note_on_c, 0, 72, 64
1, 41976, Note_on_c, 0, 72, 0
1, 41976, Note_on_c, 0, 71, 64
1, 41988, Note_on_c, 0, 71, 0
1, 41988, Note_on_c, 0, 74, 64
1, 42000, Note_on_c, 0, 74, 0
1, 42000, Note_on_c, 0, 72, 64
1, 42012, Note_on_c, 0, 72, 0
1, 42012, Note_on_c, 0, 76, 64
1, 42024, Note_on_c, 0, 76, 0
1, 42024, Note_on_c, 0, 74, 64
1, 42036, Note_on_c, 0, 74, 0
1, 42036, Note_on_c, 0, 77, 64
1, 42048, Note_on_c, 0, 77, 0
1, 42048, Note_on_c, 0, 76, 80
1, 42048, Note_on_c, 1, 60, 64
1, 42054, Note_on_c, 0, 76, 0
1, 42054, Note_on_c, 0, 79, 80
1, 42063, Note_on_c, 1, 60, 0
1, 42064, Note_on_c, 1, 64, 64
1, 42079, Note_on_c, 1, 64, 0
1, 42080, Note_on_c, 1, 67, 64
1, 42095, Note_on_c, 1, 67, 0
1, 42096, Note_on_c, 1, 60, 64
1, 42111, Note_on_c, 1, 60, 0
1, 42112, Note_on_c, 1, 64, 64
1, 42127, Note_on_c, 1, 64, 0
1, 42128, Note_on_c, 1, 67, 64
1, 42137, Note_on_c, 0, 79, 0
1, 42143, Note_on_c, 1, 67, 0
1, 42144, Note_on_c, 0, 88, 80
1, 42144, Note_on_c, 1, 60, 64
1, 42159, Note_on_c, 1, 60, 0
1, 42160, Note_on_c, 1, 64, 64
1, 42175, Note_on_c, 1, 64, 0
1, 42176, Note_on_c, 1, 67, 64
1, 42191, Note_on_c, 1, 67, 0
1, 42192, Note_on_c, 1, 60, 64
1, 42207, Note_on_c, 1, 60, 0
1, 42208, Note_on_c, 1, 64, 64
1, 42223, Note_on_c, 1, 64, 0
1, 42224, Note_on_c, 1, 67, 64
1, 42233, Note_on_c, 0, 88, 0
1, 42239, Note_on_c, 1, 67, 0
1, 42240, Note_on_c, 0, 84, 80
1, 42240, Note_on_c, 1, 60, 64
1, 42255, Note_on_c, 1, 60, 0
1, 42256, Note_on_c, 1, 64, 64
1, 42271, Note_on_c, 1, 64, 0
1, 42272, Note_on_c, 1, 67, 64
1, 42287, Note_on_c, 1, 67, 0
1, 42288, Note_on_c, 1, 60, 64
1, 42303, Note_on_c, 1, 60, 0
1, 42304, Note_on_c, 1, 64, 64
1, 42319, Note_on_c, 1, 64, 0
1, 42320, Note_on_c, 1, 67, 64
1, 42329, Note_on_c, 0, 84, 0
1, 42335, Note_on_c, 1, 67, 0
1, 42336, Note_on_c, 0, 83, 80
1, 42336, Note_on_c, 1, 62, 64
1, 42351, Note_on_c, 0, 83, 0
1, 42351, Note_on_c, 1, 62, 0
1, 42352, Note_on_c, 0, 84, 80
1, 42352, Note_on_c, 1, 65, 64
1, 42367, Note_on_c, 0, 84, 0
1, 42367, Note_on_c, 1, 65, 0
1, 42368, Note_on_c, 0, 85, 80
1, 42368, Note_on_c, 1, 67, 64
1, 42383, Note_on_c, 0, 85, 0
1, 42383, Note_on_c, 1, 67, 0
1, 42384, Note_on_c, 0, 86, 81
1, 42384, Note_on_c, 1, 62, 64
1, 42399, Note_on_c, 0, 86, 0
1, 42399, Note_on_c, 1, 62, 0
1, 42400, Note_on_c, 0, 87, 81
1, 42400, Note_on_c, 1, 65, 64
1, 42415, Note_on_c, 0, 87, 0
1, 42415, Note_on_c, 1, 65, 0
1, 42416, Note_on_c, 0, 88, 81
1, 42416, Note_on_c, 1, 67, 64
1, 42431, Note_on_c, 0, 88, 0
1, 42431, Note_on_c, 1, 67, 0
1, 42432, Note_on_c, 0, 89, 98
1, 42432, Note_on_c, 1, 62, 64
1, 42447, Note_on_c, 1, 62, 0
1, 42448, Note_on_c, 1, 65, 64
1, 42463, Note_on_c, 1, 65, 0
1, 42464, Note_on_c, 1, 67, 64
1, 42479, Note_on_c, 1, 67, 0
1, 42480, Note_on_c, 1, 62, 64
1, 42495, Note_on_c, 1, 62, 0
1, 42496, Note_on_c, 1, 65, 64
1, 42511, Note_on_c, 1, 65, 0
1, 42512, Note_on_c, 1, 67, 64
1, 42527, Note_on_c, 1, 67, 0
1, 42528, Note_on_c, 0, 89, 0
1, 42528, Note_on_c, 1, 62, 64
1, 42543, Note_on_c, 1, 62, 0
1, 42544, Note_on_c, 1, 65, 64
1, 42559, Note_on_c, 1, 65, 0
1, 42560, Note_on_c, 1, 67, 64
1, 42575, Note_on_c, 1, 67, 0
1, 42576, Note_on_c, 1, 62, 64
1, 42591, Note_on_c, 1, 62, 0
1, 42592, Note_on_c, 1, 65, 64
1, 42607, Note_on_c, 1, 65, 0
1, 42608, Note_on_c, 1, 67, 64
1, 42623, Note_on_c, 1, 67, 0
1, 42624, Note_on_c, 0, 72, 80
1, 42624, Note_on_c, 1, 60, 64
1, 42639, Note_on_c, 0, 72, 0
1, 42639, Note_on_c, 1, 60, 0
1, 42640, Note_on_c, 0, 76, 80
1, 42640, Note_on_c, 1, 64, 64
1, 42655, Note_on_c, 0, 76, 0
1, 42655, Note_on_c, 1, 64, 0
1, 42656, Note_on_c, 0, 74, 81
1, 42656, Note_on_c, 1, 67, 64
1, 42671, Note_on_c, 0, 74, 0
1, 42671, Note_on_c, 1, 67, 0
1, 42672, Note_on_c, 0, 72, 81
1, 42672, Note_on_c, 1, 60, 64
1, 42687, Note_on_c, 0, 72, 0
1, 42687, Note_on_c, 1, 60, 0
1, 42688, Note_on_c, 0, 79, 82
1, 42688, Note_on_c, 1, 64, 64
1, 42703, Note_on_c, 0, 79, 0
1, 42703, Note_on_c, 1, 64, 0
1, 42704, Note_on_c, 0, 77, 82
1, 42704, Note_on_c, 1, 67, 64
1, 42719, Note_on_c, 0, 77, 0
1, 42719, Note_on_c, 1, 67, 0
1, 42720, Note_on_c, 0, 76, 83
1, 42720, Note_on_c, 1, 60, 64
1, 42735, Note_on_c, 0, 76, 0
1, 42735, Note_on_c, 1, 60, 0
1, 42736, Note_on_c, 0, 89, 84
1, 42736, Note_on_c, 1, 64, 64
1, 42751, Note_on_c, 0, 89, 0
1, 42751, Note_on_c, 1, 64, 0
1, 42752, Note_on_c, 0, 88, 86
1, 42752, Note_on_c, 1, 67, 64
1, 42767, Note_on_c, 0, 88, 0
1, 42767, Note_on_c, 1, 67, 0
1, 42768, Note_on_c, 0, 86, 85
1, 42768, Note_on_c, 1, 60, 64
1, 42783, Note_on_c, 0, 86, 0
1, 42783, Note_on_c, 1, 60, 0
1, 42784, Note_on_c, 0, 84, 85
1, 42784, Note_on_c, 1, 64, 64
1, 42799, Note_on_c, 0, 84, 0
1, 42799, Note_on_c, 1, 64, 0
1, 42800, Note_on_c, 0, 83, 84
1, 42800, Note_on_c, 1, 67, 64
1, 42815, Note_on_c, 0, 83, 0
1, 42815, Note_on_c, 1, 67, 0
1, 42816, Note_on_c, 0, 81, 84
1, 42816, Note_on_c, 1, 60, 64
1, 42831, Note_on_c, 0, 81, 0
1, 42831, Note_on_c, 1, 60, 0
1, 42832, Note_on_c, 0, 79, 83
1, 42832, Note_on_c, 1, 64, 64
1, 42847, Note_on_c, 0, 79, 0
1, 42847, Note_on_c, 1, 64, 0
1, 42848, Note_on_c, 0, 77, 83
1, 42848, Note_on_c, 1, 67, 64
1, 42863, Note_on_c, 0, 77, 0
1, 42863, Note_on_c, 1, 67, 0
1, 42864, Note_on_c, 0, 76, 82
1, 42864, Note_on_c, 1, 60, 64
1, 42879, Note_on_c, 0, 76, 0
1, 42879, Note_on_c, 1, 60, 0
1, 42880, Note_on_c, 0, 74, 82
1, 42880, Note_on_c, 1, 64, 64
1, 42895, Note_on_c, 0, 74, 0
1, 42895, Note_on_c, 1, 64, 0
1, 42896, Note_on_c, 0, 72, 82
1, 42896, Note_on_c, 1, 67, 64
1, 42911, Note_on_c, 0, 72, 0
1, 42911, Note_on_c, 1, 67, 0
1, 42912, Note_on_c, 0, 71, 80
1, 42912, Note_on_c, 1, 62, 64
1, 42927, Note_on_c, 1, 62, 0
1, 42928, Note_on_c, 1, 65, 64
1, 42943, Note_on_c, 1, 65, 0
1, 42944, Note_on_c, 1, 67, 64
1, 42959, Note_on_c, 1, 67, 0
1, 42960, Note_on_c, 1, 62, 64
1, 42975, Note_on_c, 1, 62, 0
1, 42976, Note_on_c, 1, 65, 64
1, 42991, Note_on_c, 1, 65, 0
1, 42992, Note_on_c, 1, 67, 64
1, 43007, Note_on_c, 1, 67, 0
1, 43008, Note_on_c, 0, 71, 0
1, 43008, Note_on_c, 0, 79, 86
1, 43008, Note_on_c, 1, 62, 64
1, 43023, Note_on_c, 1, 62, 0
1, 43024, Note_on_c, 1, 65, 64
1, 43039, Note_on_c, 1, 65, 0
1, 43040, Note_on_c, 1, 67, 64
1, 43055, Note_on_c, 1, 67, 0
1, 43056, Note_on_c, 1, 62, 64
1, 43071, Note_on_c, 1, 62, 0
1, 43072, Note_on_c, 1, 65, 64
1, 43087, Note_on_c, 1, 65, 0
1, 43088, Note_on_c, 1, 67, 64
1, 43097, Note_on_c, 0, 79, 0
1, 43103, Note_on_c, 1, 67, 0
1, 43104, Note_on_c, 1, 62, 75
1, 43119, Note_on_c, 1, 62, 0
1, 43120, Note_on_c, 1, 65, 72
1, 43135, Note_on_c, 1, 65, 0
1, 43136, Note_on_c, 1, 67, 70
1, 43151, Note_on_c, 1, 67, 0
1, 43152, Note_on_c, 1, 62, 68
1, 43167, Note_on_c, 1, 62, 0
1, 43168, Note_on_c, 1, 65, 66
1, 43183, Note_on_c, 1, 65, 0
1, 43184, Note_on_c, 1, 67, 64
1, 43199, Note_on_c, 1, 67, 0
1, 43200, Note_on_c, 0, 73, 64
1, 43200, Note_on_c, 1, 64, 64
1, 43215, Note_on_c, 1, 64, 0
1, 43216, Note_on_c, 1, 67, 64
1, 43231, Note_on_c, 1, 67, 0
1, 43232, Note_on_c, 1, 70, 64
1, 43247, Note_on_c, 1, 70, 0
1, 43248, Note_on_c, 1, 64, 64
1, 43263, Note_on_c, 1, 64, 0
1, 43264, Note_on_c, 1, 67, 64
1, 43279, Note_on_c, 1, 67, 0
1, 43280, Note_on_c, 1, 70, 64
1, 43295, Note_on_c, 1, 70, 0
1, 43296, Note_on_c, 0, 73, 0
1, 43296, Note_on_c, 0, 82, 67
1, 43296, Note_on_c, 1, 64, 64
1, 43311, Note_on_c, 1, 64, 0
1, 43312, Note_on_c, 1, 67, 64
1, 43327, Note_on_c, 1, 67, 0
1, 43328, Note_on_c, 1, 70, 64
1, 43343, Note_on_c, 1, 70, 0
1, 43344, Note_on_c, 1, 64, 64
1, 43359, Note_on_c, 1, 64, 0
1, 43360, Note_on_c, 1, 67, 65
1, 43375, Note_on_c, 1, 67, 0
1, 43376, Note_on_c, 1, 70, 66
1, 43385, Note_on_c, 0, 82, 0
1, 43391, Note_on_c, 1, 70, 0
1, 43392, Note_on_c, 1, 64, 68
1, 43407, Note_on_c, 1, 64, 0
1, 43408, Note_on_c, 1, 67, 69
1, 43423, Note_on_c, 1, 67, 0
1, 43424, Note_on_c, 1, 70, 70
1, 43439, Note_on_c, 1, 70, 0
1, 43440, Note_on_c, 1, 64, 72
1, 43455, Note_on_c, 1, 64, 0
1, 43456, Note_on_c, 1, 67, 73
1, 43471, Note_on_c, 1, 67, 0
1, 43472, Note_on_c, 1, 70, 74
1, 43487, Note_on_c, 1, 70, 0
1, 43488, Note_on_c, 1, 69, 80
1, 43488, Note_on_c, 1, 65, 80
1, 43504, Note_on_c, 0, 73, 80
1, 43519, Note_on_c, 0, 73, 0
1, 43520, Note_on_c, 0, 74, 80
1, 43535, Note_on_c, 0, 74, 0
1, 43536, Note_on_c, 0, 77, 80
1, 43543, Note_on_c, 0, 77, 0
1, 43552, Note_on_c, 0, 76, 80
1, 43567, Note_on_c, 0, 76, 0
1, 43568, Note_on_c, 0, 77, 80
1, 43577, Note_on_c, 1, 69, 0
1, 43577, Note_on_c, 1, 65, 0
1, 43583, Note_on_c, 0, 77, 0
1, 43584, Note_on_c, 0, 81, 80
1, 43591, Note_on_c, 0, 81, 0
1, 43600, Note_on_c, 0, 80, 80
1, 43615, Note_on_c, 0, 80, 0
1, 43616, Note_on_c, 0, 81, 80
1, 43631, Note_on_c, 0, 81, 0
1, 43632, Note_on_c, 0, 86, 80
1, 43639, Note_on_c, 0, 86, 0
1, 43648, Note_on_c, 0, 76, 80
1, 43663, Note_on_c, 0, 76, 0
1, 43664, Note_on_c, 0, 77, 80
1, 43679, Note_on_c, 0, 77, 0
1, 43680, Note_on_c, 0, 81, 80
1, 43687, Note_on_c, 0, 81, 0
1, 43696, Note_on_c, 0, 73, 80
1, 43711, Note_on_c, 0, 73, 0
1, 43712, Note_on_c, 0, 74, 80
1, 43727, Note_on_c, 0, 74, 0
1, 43728, Note_on_c, 0, 77, 80
1, 43735, Note_on_c, 0, 77, 0
1, 43744, Note_on_c, 0, 76, 80
1, 43759, Note_on_c, 0, 76, 0
1, 43760, Note_on_c, 0, 77, 80
1, 43775, Note_on_c, 0, 77, 0
1, 43776, Note_on_c, 0, 81, 80
1, 43776, Note_on_c, 0, 77, 80
1, 43792, Note_on_c, 1, 54, 80
1, 43807, Note_on_c, 1, 54, 0
1, 43808, Note_on_c, 1, 55, 80
1, 43823, Note_on_c, 1, 55, 0
1, 43824, Note_on_c, 1, 59, 80
1, 43839, Note_on_c, 1, 59, 0
1, 43840, Note_on_c, 1, 54, 80
1, 43855, Note_on_c, 1, 54, 0
1, 43856, Note_on_c, 1, 55, 80
1, 43871, Note_on_c, 1, 55, 0
1, 43872, Note_on_c, 1, 59, 80
1, 43887, Note_on_c, 0, 81, 0
1, 43887, Note_on_c, 0, 77, 0
1, 43888, Note_on_c, 0, 77, 80
1, 43888, Note_on_c, 0, 74, 80
1, 43892, Note_on_c, 1, 59, 0
1, 43903, Note_on_c, 0, 77, 0
1, 43903, Note_on_c, 0, 74, 0
1, 43904, Note_on_c, 0, 79, 80
1, 43904, Note_on_c, 0, 76, 80
1, 43919, Note_on_c, 0, 79, 0
1, 43919, Note_on_c, 0, 76, 0
1, 43920, Note_on_c, 0, 81, 80
1, 43920, Note_on_c, 0, 77, 80
1, 43935, Note_on_c, 0, 81, 0
1, 43935, Note_on_c, 0, 77, 0
1, 43936, Note_on_c, 0, 79, 80
1, 43936, Note_on_c, 0, 76, 80
1, 43951, Note_on_c, 0, 79, 0
1, 43951, Note_on_c, 0, 76, 0
1, 43952, Note_on_c, 0, 77, 80
1, 43952, Note_on_c, 0, 74, 80
1, 43967, Note_on_c, 0, 77, 0
1, 43967, Note_on_c, 0, 74, 0
1, 43968, Note_on_c, 1, 60, 80
1, 43984, Note_on_c, 0, 76, 80
1, 43984, Note_on_c, 0, 72, 80
1, 43988, Note_on_c, 1, 60, 0
1, 43999, Note_on_c, 0, 76, 0
1, 43999, Note_on_c, 0, 72, 0
1, 44000, Note_on_c, 0, 77, 80
1, 44000, Note_on_c, 0, 74, 80
1, 44015, Note_on_c, 0, 77, 0
1, 44015, Note_on_c, 0, 74, 0
1, 44016, Note_on_c, 0, 79, 80
1, 44016, Note_on_c, 0, 76, 80
1, 44031, Note_on_c, 0, 79, 0
1, 44031, Note_on_c, 0, 76, 0
1, 44032, Note_on_c, 0, 77, 80
1, 44032, Note_on_c, 0, 74, 80
1, 44047, Note_on_c, 0, 77, 0
1, 44047, Note_on_c, 0, 74, 0
1, 44048, Note_on_c, 0, 76, 80
1, 44048, Note_on_c, 0, 72, 80
1, 44063, Note_on_c, 0, 76, 0
1, 44063, Note_on_c, 0, 72, 0
1, 44064, Note_on_c, 1, 53, 80
1, 44076, Note_on_c, 1, 53, 0
1, 44076, Note_on_c, 1, 57, 80
1, 44088, Note_on_c, 1, 57, 0
1, 44088, Note_on_c, 1, 62, 80
1, 44100, Note_on_c, 1, 62, 0
1, 44100, Note_on_c, 1, 65, 80
1, 44112, Note_on_c, 0, 69, 80
1, 44112, Note_on_c, 1, 65, 0
1, 44124, Note_on_c, 0, 69, 0
1, 44124, Note_on_c, 0, 74, 80
1, 44136, Note_on_c, 0, 74, 0
1, 44136, Note_on_c, 0, 77, 80
1, 44148, Note_on_c, 0, 77, 0
1, 44148, Note_on_c, 0, 81, 80
1, 44160, Note_on_c, 0, 81, 0
1, 44160, Note_on_c, 0, 72, 80
1, 44160, Note_on_c, 1, 64, 80
1, 44160, Note_on_c, 1, 55, 80
1, 44209, Note_on_c, 0, 72, 0
1, 44214, Note_on_c, 0, 74, 80
1, 44220, Note_on_c, 0, 74, 0
1, 44220, Note_on_c, 0, 72, 80
1, 44226, Note_on_c, 0, 72, 0
1, 44226, Note_on_c, 0, 71, 80
1, 44232, Note_on_c, 0, 71, 0
1, 44232, Note_on_c, 0, 72, 80
1, 44255, Note_on_c, 0, 72, 0
1, 44256, Tempo, 1200000
1, 44256, Note_on_c, 0, 76, 80
1, 44256, Note_on_c, 0, 71, 64
1, 44256, Note_on_c, 1, 64, 0
1, 44256, Note_on_c, 1, 65, 80
1, 44323, Note_on_c, 0, 76, 0
1, 44328, Note_on_c, 0, 74, 76
1, 44345, Note_on_c, 0, 71, 0
1, 44352, Tempo, 1200000
1, 44352, Note_on_c, 0, 74, 0
1, 44352, Note_on_c, 0, 72, 75
1, 44352, Note_on_c, 0, 66, 75
1, 44352, Note_on_c, 1, 65, 0
1, 44352, Note_on_c, 1, 55, 0
1, 44352, Note_on_c, 1, 63, 75
1, 44352, Note_on_c, 1, 56, 75
1, 44632, Note_on_c, 0, 72, 0
1, 44632, Note_on_c, 0, 66, 0
1, 44632, Note_on_c, 1, 63, 0
1, 44632, Note_on_c, 1, 56, 0
1, 44640, Tempo, 1034482
1, 44640, Note_on_c, 0, 65, 64
1, 44664, Note_on_c, 1, 55, 64
1, 44687, Note_on_c, 1, 55, 0
1, 44688, Note_on_c, 1, 47, 64
1, 44711, Note_on_c, 1, 47, 0
1, 44712, Note_on_c, 1, 55, 64
1, 44735, Note_on_c, 1, 55, 0
1, 44736, Note_on_c, 0, 65, 0
1, 44736, Note_on_c, 0, 74, 64
1, 44736, Note_on_c, 1, 47, 64
1, 44759, Note_on_c, 1, 47, 0
1, 44760, Note_on_c, 1, 55, 64
1, 44783, Note_on_c, 1, 55, 0
1, 44784, Note_on_c, 1, 47, 64
1, 44807, Note_on_c, 1, 47, 0
1, 44808, Note_on_c, 1, 55, 64
1, 44825, Note_on_c, 0, 74, 0
1, 44831, Note_on_c, 1, 55, 0
1, 44832, Note_on_c, 1, 47, 64
1, 44855, Note_on_c, 1, 47, 0
1, 44856, Note_on_c, 1, 55, 64
1, 44879, Note_on_c, 1, 55, 0
1, 44880, Note_on_c, 1, 47, 64
1, 44903, Note_on_c, 1, 47, 0
1, 44904, Note_on_c, 1, 55, 64
1, 44927, Note_on_c, 1, 55, 0
1, 44928, Note_on_c, 0, 64, 70
1, 44952, Note_on_c, 1, 55, 70
1, 44975, Note_on_c, 1, 55, 0
1, 44976, Note_on_c, 1, 48, 70
1, 44999, Note_on_c, 1, 48, 0
1, 45000, Note_on_c, 1, 55, 70
1, 45023, Note_on_c, 1, 55, 0
1, 45024, Note_on_c, 0, 64, 0
1, 45024, Note_on_c, 0, 72, 70
1, 45024, Note_on_c, 1, 48, 70
1, 45047, Note_on_c, 1, 48, 0
1, 45048, Note_on_c, 1, 55, 70
1, 45071, Note_on_c, 1, 55, 0
1, 45072, Note_on_c, 1, 48, 70
1, 45095, Note_on_c, 1, 48, 0
1, 45096, Note_on_c, 1, 55, 70
1, 45113, Note_on_c, 0, 72, 0
1, 45119, Note_on_c, 1, 55, 0
1, 45120, Note_on_c, 1, 48, 70
1, 45143, Note_on_c, 1, 48, 0
1, 45144, Note_on_c, 1, 55, 70
1, 45167, Note_on_c, 1, 55, 0
1, 45168, Note_on_c, 1, 48, 70
1, 45191, Note_on_c, 1, 48, 0
1, 45192, Note_on_c, 1, 55, 70
1, 45215, Note_on_c, 1, 55, 0
1, 45216, Note_on_c, 1, 53, 80
1, 45240, Note_on_c, 0, 68, 80
1, 45263, Note_on_c, 0, 68, 0
1, 45264, Note_on_c, 0, 56, 80
1, 45287, Note_on_c, 0, 56, 0
1, 45288, Note_on_c, 0, 68, 80
1, 45311, Note_on_c, 0, 68, 0
1, 45312, Note_on_c, 0, 56, 80
1, 45312, Note_on_c, 1, 50, 75
1, 45335, Note_on_c, 0, 56, 0
1, 45336, Note_on_c, 0, 68, 80
1, 45359, Note_on_c, 0, 68, 0
1, 45360, Note_on_c, 0, 56, 80
1, 45383, Note_on_c, 0, 56, 0
1, 45384, Note_on_c, 0, 68, 80
1, 45407, Note_on_c, 0, 68, 0
1, 45408, Note_on_c, 0, 57, 80
1, 45408, Note_on_c, 1, 41, 70
1, 45431, Note_on_c, 0, 57, 0
1, 45432, Note_on_c, 0, 69, 80
1, 45455, Note_on_c, 0, 69, 0
1, 45456, Note_on_c, 0, 57, 80
1, 45479, Note_on_c, 0, 57, 0
1, 45480, Note_on_c, 0, 69, 80
1, 45503, Note_on_c, 0, 69, 0
1, 45504, Note_on_c, 0, 55, 80
1, 45504, Note_on_c, 1, 53, 0
1, 45504, Note_on_c, 1, 50, 0
1, 45504, Note_on_c, 1, 41, 0
1, 45504, Note_on_c, 1, 52, 70
1, 45504, Note_on_c, 1, 43, 70
1, 45527, Note_on_c, 0, 55, 0
1, 45528, Note_on_c, 0, 67, 78
1, 45551, Note_on_c, 0, 67, 0
1, 45552, Note_on_c, 0, 64, 76
1, 45575, Note_on_c, 0, 64, 0
1, 45576, Note_on_c, 0, 60, 74
1, 45599, Note_on_c, 0, 60, 0
1, 45600, Note_on_c, 0, 55, 72
1, 45623, Note_on_c, 0, 55, 0
1, 45624, Note_on_c, 0, 64, 70
1, 45647, Note_on_c, 0, 64, 0
1, 45648, Note_on_c, 0, 60, 69
1, 45671, Note_on_c, 0, 60, 0
1, 45672, Note_on_c, 0, 55, 67
1, 45695, Note_on_c, 0, 55, 0
1, 45696, Note_on_c, 0, 53, 65
1, 45696, Note_on_c, 1, 52, 0
1, 45696, Note_on_c, 1, 50, 64
1, 45741, Note_on_c, 0, 53, 0
1, 45744, Note_on_c, 0, 59, 61
1, 45789, Note_on_c, 0, 59, 0
1, 45792, Note_on_c, 1, 43, 0
1, 45792, Note_on_c, 1, 59, 58
1, 45792, Note_on_c, 1, 53, 58
1, 45792, Note_on_c, 1, 36, 58
1, 46057, Note_on_c, 1, 59, 0
1, 46057, Note_on_c, 1, 53, 0
1, 46057, Note_on_c, 1, 50, 0
1, 46057, Note_on_c, 1, 36, 0
1, 46080, Note_on_c, 1, 36, 58
1, 46086, Note_on_c, 1, 40, 58
1, 46092, Note_on_c, 1, 43, 58
1, 46098, Note_on_c, 1, 48, 58
1, 46104, Note_on_c, 1, 52, 58
1, 46110, Note_on_c, 1, 55, 58
1, 46116, Note_on_c, 1, 59, 58
1, 46122, Note_on_c, 1, 60, 58
1, 46176, Note_on_c, 1, 59, 0
1, 46353, Note_on_c, 1, 60, 0
1, 46353, Note_on_c, 1, 55, 0
1, 46353, Note_on_c, 1, 52, 0
1, 46353, Note_on_c, 1, 48, 0
1, 46353, Note_on_c, 1, 43, 0
1, 46353, Note_on_c, 1, 40, 0
1, 46353, Note_on_c, 1, 36, 0
1, 46368, Note_on_c, 1, 36, 0
1, 46545, Note_on_c, 1, 36, 0
1, 46555, End_track
0, 0, End_of_file