0, 0, Header, 0, 1, 96
1, 0, Start_track
1, 0, Tempo, 444444
1, 192, Note_on_c, 0, 55, 75
1, 216, Note_on_c, 0, 55, 0
1, 216, Note_on_c, 0, 58, 75
1, 239, Note_on_c, 0, 58, 0
1, 240, Note_on_c, 0, 56, 75
1, 264, Note_on_c, 0, 56, 0
1, 264, Note_on_c, 0, 60, 75
1, 287, Note_on_c, 0, 60, 0
1, 288, Note_on_c, 0, 58, 75
1, 288, Note_on_c, 1, 43, 75
1, 288, Note_on_c, 1, 39, 75
1, 308, Note_on_c, 0, 58, 0
1, 333, Note_on_c, 1, 43, 0
1, 333, Note_on_c, 1, 39, 0
1, 384, Note_on_c, 1, 55, 75
1, 384, Note_on_c, 1, 51, 75
1, 404, Note_on_c, 1, 55, 0
1, 404, Note_on_c, 1, 51, 0
1, 480, Note_on_c, 0, 67, 75
1, 504, Note_on_c, 0, 67, 0
1, 504, Note_on_c, 0, 63, 75
1, 527, Note_on_c, 0, 63, 0
1, 528, Note_on_c, 0, 62, 75
1, 552, Note_on_c, 0, 62, 0
1, 552, Note_on_c, 0, 65, 75
1, 575, Note_on_c, 0, 65, 0
1, 576, Note_on_c, 0, 63, 75
1, 576, Note_on_c, 1, 43, 75
1, 576, Note_on_c, 1, 39, 75
1, 596, Note_on_c, 0, 63, 0
1, 621, Note_on_c, 1, 43, 0
1, 621, Note_on_c, 1, 39, 0
1, 672, Note_on_c, 1, 55, 75
1, 672, Note_on_c, 1, 51, 75
1, 692, Note_on_c, 1, 55, 0
1, 692, Note_on_c, 1, 51, 0
1, 720, Note_on_c, 0, 63, 75
1, 740, Note_on_c, 0, 63, 0
1, 768, Note_on_c, 0, 67, 75
1, 788, Note_on_c, 0, 67, 0
1, 816, Note_on_c, 0, 70, 75
1, 836, Note_on_c, 0, 70, 0
1, 864, Note_on_c, 0, 70, 87
1, 864, Note_on_c, 1, 63, 87
1, 864, Note_on_c, 1, 60, 87
1, 960, Note_on_c, 0, 70, 0
1, 960, Note_on_c, 0, 68, 75
1, 997, Note_on_c, 1, 63, 0
1, 997, Note_on_c, 1, 60, 0
1, 1005, Note_on_c, 0, 68, 0
1, 1008, Note_on_c, 0, 67, 75
1, 1008, Note_on_c, 1, 62, 75
1, 1008, Note_on_c, 1, 58, 75
1, 1053, Note_on_c, 0, 67, 0
1, 1053, Note_on_c, 1, 62, 0
1, 1053, Note_on_c, 1, 58, 0
1, 1056, Note_on_c, 0, 65, 75
1, 1056, Note_on_c, 1, 60, 75
1, 1056, Note_on_c, 1, 56, 75
1, 1101, Note_on_c, 0, 65, 0
1, 1101, Note_on_c, 1, 60, 0
1, 1101, Note_on_c, 1, 56, 0
1, 1104, Note_on_c, 0, 63, 75
1, 1104, Note_on_c, 1, 58, 75
1, 1104, Note_on_c, 1, 55, 75
1, 1149, Note_on_c, 0, 63, 0
1, 1149, Note_on_c, 1, 58, 0
1, 1149, Note_on_c, 1, 55, 0
1, 1152, Note_on_c, 0, 62, 75
1, 1152, Note_on_c, 1, 56, 75
1, 1152, Note_on_c, 1, 53, 75
1, 1224, Note_on_c, 0, 62, 0
1, 1224, Note_on_c, 0, 65, 75
1, 1241, Note_on_c, 1, 56, 0
1, 1241, Note_on_c, 1, 53, 0
1, 1247, Note_on_c, 0, 65, 0
1, 1248, Note_on_c, 0, 68, 75
1, 1268, Note_on_c, 0, 68, 0
1, 1344, Note_on_c, 0, 58, 75
1, 1368, Note_on_c, 0, 58, 0
1, 1368, Note_on_c, 0, 62, 75
1, 1391, Note_on_c, 0, 62, 0
1, 1392, Note_on_c, 0, 60, 75
1, 1416, Note_on_c, 0, 60, 0
1, 1416, Note_on_c, 0, 63, 75
1, 1439, Note_on_c, 0, 63, 0
1, 1440, Note_on_c, 0, 62, 75
1, 1440, Note_on_c, 1, 38, 75
1, 1440, Note_on_c, 1, 34, 75
1, 1460, Note_on_c, 0, 62, 0
1, 1485, Note_on_c, 1, 38, 0
1, 1485, Note_on_c, 1, 34, 0
1, 1536, Note_on_c, 1, 50, 75
1, 1536, Note_on_c, 1, 46, 75
1, 1556, Note_on_c, 1, 50, 0
1, 1556, Note_on_c, 1, 46, 0
1, 1632, Note_on_c, 0, 62, 75
1, 1656, Note_on_c, 0, 62, 0
1, 1656, Note_on_c, 0, 65, 75
1, 1679, Note_on_c, 0, 65, 0
1, 1680, Note_on_c, 0, 63, 75
1, 1704, Note_on_c, 0, 63, 0
1, 1704, Note_on_c, 0, 67, 75
1, 1727, Note_on_c, 0, 67, 0
1, 1728, Note_on_c, 0, 65, 75
1, 1728, Note_on_c, 1, 38, 75
1, 1728, Note_on_c, 1, 34, 75
1, 1748, Note_on_c, 0, 65, 0
1, 1773, Note_on_c, 1, 38, 0
1, 1773, Note_on_c, 1, 34, 0
1, 1824, Note_on_c, 1, 50, 75
1, 1824, Note_on_c, 1, 46, 75
1, 1844, Note_on_c, 1, 50, 0
1, 1844, Note_on_c, 1, 46, 0
1, 1872, Note_on_c, 0, 65, 75
1, 1892, Note_on_c, 0, 65, 0
1, 1920, Note_on_c, 0, 68, 75
1, 1940, Note_on_c, 0, 68, 0
1, 1968, Note_on_c, 0, 72, 75
1, 1988, Note_on_c, 0, 72, 0
1, 2016, Note_on_c, 0, 72, 87
1, 2016, Note_on_c, 1, 65, 87
1, 2016, Note_on_c, 1, 62, 87
1, 2112, Note_on_c, 0, 72, 0
1, 2112, Note_on_c, 0, 70, 75
1, 2149, Note_on_c, 1, 65, 0
1, 2149, Note_on_c, 1, 62, 0
1, 2157, Note_on_c, 0, 70, 0
1, 2160, Note_on_c, 0, 68, 75
1, 2160, Note_on_c, 1, 63, 75
1, 2160, Note_on_c, 1, 60, 75
1, 2205, Note_on_c, 0, 68, 0
1, 2205, Note_on_c, 1, 63, 0
1, 2205, Note_on_c, 1, 60, 0
1, 2208, Note_on_c, 0, 67, 75
1, 2208, Note_on_c, 1, 62, 75
1, 2208, Note_on_c, 1, 58, 75
1, 2253, Note_on_c, 0, 67, 0
1, 2253, Note_on_c, 1, 62, 0
1, 2253, Note_on_c, 1, 58, 0
1, 2256, Note_on_c, 0, 65, 75
1, 2256, Note_on_c, 1, 60, 75
1, 2256, Note_on_c, 1, 56, 75
1, 2301, Note_on_c, 0, 65, 0
1, 2301, Note_on_c, 1, 60, 0
1, 2301, Note_on_c, 1, 56, 0
1, 2304, Note_on_c, 0, 63, 75
1, 2304, Note_on_c, 1, 58, 75
1, 2304, Note_on_c, 1, 55, 75
1, 2316, Note_on_c, 0, 63, 0
1, 2316, Note_on_c, 0, 65, 75
1, 2328, Note_on_c, 0, 65, 0
1, 2328, Note_on_c, 0, 63, 75
1, 2340, Note_on_c, 0, 63, 0
1, 2340, Note_on_c, 0, 62, 75
1, 2352, Note_on_c, 0, 62, 0
1, 2352, Note_on_c, 0, 63, 75
1, 2376, Note_on_c, 0, 63, 0
1, 2376, Note_on_c, 0, 67, 75
1, 2393, Note_on_c, 1, 58, 0
1, 2393, Note_on_c, 1, 55, 0
1, 2399, Note_on_c, 0, 67, 0
1, 2400, Note_on_c, 0, 70, 75
1, 2420, Note_on_c, 0, 70, 0
1, 2496, Note_on_c, 0, 75, 75
1, 2520, Note_on_c, 0, 75, 0
1, 2520, Note_on_c, 0, 74, 75
1, 2543, Note_on_c, 0, 74, 0
1, 2544, Note_on_c, 0, 77, 75
1, 2568, Note_on_c, 0, 77, 0
1, 2568, Note_on_c, 0, 75, 75
1, 2591, Note_on_c, 0, 75, 0
1, 2592, Note_on_c, 0, 79, 75
1, 2592, Note_on_c, 1, 51, 75
1, 2592, Note_on_c, 1, 46, 75
1, 2592, Note_on_c, 1, 43, 75
1, 2615, Note_on_c, 0, 79, 0
1, 2616, Note_on_c, 0, 77, 75
1, 2639, Note_on_c, 0, 77, 0
1, 2640, Note_on_c, 0, 80, 76
1, 2663, Note_on_c, 0, 80, 0
1, 2664, Note_on_c, 0, 79, 77
1, 2687, Note_on_c, 0, 79, 0
1, 2688, Note_on_c, 0, 82, 78
1, 2711, Note_on_c, 0, 82, 0
1, 2712, Note_on_c, 0, 80, 79
1, 2735, Note_on_c, 0, 80, 0
1, 2736, Note_on_c, 0, 79, 80
1, 2759, Note_on_c, 0, 79, 0
1, 2760, Note_on_c, 0, 77, 79
1, 2783, Note_on_c, 0, 77, 0
1, 2784, Note_on_c, 0, 75, 78
1, 2807, Note_on_c, 0, 75, 0
1, 2808, Note_on_c, 0, 74, 77
1, 2831, Note_on_c, 0, 74, 0
1, 2832, Note_on_c, 0, 72, 76
1, 2855, Note_on_c, 0, 72, 0
1, 2856, Note_on_c, 0, 71, 75
1, 2857, Note_on_c, 1, 51, 0
1, 2857, Note_on_c, 1, 46, 0
1, 2857, Note_on_c, 1, 43, 0
1, 2879, Note_on_c, 0, 71, 0
1, 2880, Note_on_c, 0, 71, 75
1, 2880, Note_on_c, 1, 51, 75
1, 2880, Note_on_c, 1, 44, 75
1, 2976, Note_on_c, 0, 71, 0
1, 2976, Note_on_c, 0, 72, 77
1, 2996, Note_on_c, 0, 72, 0
1, 3013, Note_on_c, 1, 51, 0
1, 3013, Note_on_c, 1, 44, 0
1, 3024, Note_on_c, 0, 74, 78
1, 3030, Note_on_c, 0, 74, 0
1, 3030, Note_on_c, 0, 72, 78
1, 3036, Note_on_c, 0, 72, 0
1, 3036, Note_on_c, 0, 71, 78
1, 3042, Note_on_c, 0, 71, 0
1, 3042, Note_on_c, 0, 72, 78
1, 3069, Note_on_c, 0, 72, 0
1, 3072, Note_on_c, 0, 74, 79
1, 3117, Note_on_c, 0, 74, 0
1, 3120, Note_on_c, 0, 75, 80
1, 3165, Note_on_c, 0, 75, 0
1, 3168, Note_on_c, 0, 75, 80
1, 3216, Note_on_c, 0, 75, 0
1, 3216, Note_on_c, 0, 65, 79
1, 3261, Note_on_c, 0, 65, 0
1, 3264, Note_on_c, 0, 72, 78
1, 3312, Note_on_c, 0, 72, 0
1, 3312, Note_on_c, 0, 60, 77
1, 3357, Note_on_c, 0, 60, 0
1, 3360, Note_on_c, 0, 68, 77
1, 3360, Note_on_c, 1, 53, 75
1, 3360, Note_on_c, 1, 46, 75
1, 3408, Note_on_c, 0, 68, 0
1, 3408, Note_on_c, 0, 62, 76
1, 3449, Note_on_c, 1, 53, 0
1, 3449, Note_on_c, 1, 46, 0
1, 3453, Note_on_c, 0, 62, 0
1, 3456, Note_on_c, 0, 63, 75
1, 3476, Note_on_c, 0, 63, 0
1, 3504, Note_on_c, 1, 51, 75
1, 3549, Note_on_c, 1, 51, 0
1, 3552, Note_on_c, 1, 46, 75
1, 3597, Note_on_c, 1, 46, 0
1, 3600, Note_on_c, 1, 43, 75
1, 3645, Note_on_c, 1, 43, 0
1, 3648, Note_on_c, 1, 39, 75
1, 3668, Note_on_c, 1, 39, 0
1, 3696, Note_on_c, 0, 58, 75
1, 3716, Note_on_c, 0, 58, 0
1, 3744, Note_on_c, 0, 63, 75
1, 3792, Note_on_c, 1, 51, 70
1, 3837, Note_on_c, 1, 51, 0
1, 3840, Note_on_c, 1, 55, 70
1, 3885, Note_on_c, 1, 55, 0
1, 3888, Note_on_c, 1, 51, 70
1, 3933, Note_on_c, 1, 51, 0
1, 3936, Note_on_c, 1, 56, 70
1, 3981, Note_on_c, 0, 63, 0
1, 3981, Note_on_c, 1, 56, 0
1, 3984, Note_on_c, 0, 62, 75
1, 3984, Note_on_c, 1, 46, 70
1, 4004, Note_on_c, 0, 62, 0
1, 4029, Note_on_c, 1, 46, 0
1, 4032, Note_on_c, 0, 68, 75
1, 4080, Note_on_c, 1, 46, 70
1, 4125, Note_on_c, 1, 46, 0
1, 4128, Note_on_c, 1, 50, 70
1, 4173, Note_on_c, 1, 50, 0
1, 4176, Note_on_c, 1, 46, 70
1, 4221, Note_on_c, 1, 46, 0
1, 4224, Note_on_c, 1, 51, 70
1, 4269, Note_on_c, 0, 68, 0
1, 4269, Note_on_c, 1, 51, 0
1, 4272, Note_on_c, 0, 67, 75
1, 4272, Note_on_c, 1, 39, 70
1, 4292, Note_on_c, 0, 67, 0
1, 4317, Note_on_c, 1, 39, 0
1, 4320, Note_on_c, 0, 75, 75
1, 4320, Note_on_c, 0, 67, 64
1, 4368, Note_on_c, 1, 51, 70
1, 4413, Note_on_c, 1, 51, 0
1, 4416, Note_on_c, 1, 55, 70
1, 4461, Note_on_c, 1, 55, 0
1, 4464, Note_on_c, 1, 51, 70
1, 4497, Note_on_c, 0, 67, 0
1, 4509, Note_on_c, 1, 51, 0
1, 4512, Note_on_c, 0, 65, 64
1, 4512, Note_on_c, 1, 56, 70
1, 4557, Note_on_c, 0, 75, 0
1, 4557, Note_on_c, 1, 56, 0
1, 4560, Note_on_c, 0, 74, 75
1, 4560, Note_on_c, 1, 46, 70
1, 4580, Note_on_c, 0, 74, 0
1, 4605, Note_on_c, 1, 46, 0
1, 4606, Note_on_c, 0, 65, 0
1, 4608, Note_on_c, 0, 80, 75
1, 4608, Note_on_c, 0, 77, 64
1, 4656, Note_on_c, 1, 58, 70
1, 4701, Note_on_c, 1, 58, 0
1, 4704, Note_on_c, 1, 62, 70
1, 4749, Note_on_c, 1, 62, 0
1, 4752, Note_on_c, 1, 58, 70
1, 4797, Note_on_c, 1, 58, 0
1, 4800, Note_on_c, 1, 63, 70
1, 4845, Note_on_c, 0, 80, 0
1, 4845, Note_on_c, 0, 77, 0
1, 4845, Note_on_c, 1, 63, 0
1, 4848, Note_on_c, 0, 79, 75
1, 4848, Note_on_c, 0, 79, 64
1, 4848, Note_on_c, 1, 51, 70
1, 4868, Note_on_c, 0, 79, 0
1, 4893, Note_on_c, 0, 79, 0
1, 4893, Note_on_c, 1, 51, 0
1, 4896, Note_on_c, 0, 84, 75
1, 4944, Note_on_c, 1, 63, 70
1, 4989, Note_on_c, 1, 63, 0
1, 4992, Note_on_c, 1, 67, 70
1, 5037, Note_on_c, 1, 67, 0
1, 5040, Note_on_c, 1, 63, 70
1, 5085, Note_on_c, 1, 63, 0
1, 5088, Note_on_c, 1, 62, 70
1, 5133, Note_on_c, 0, 84, 0
1, 5133, Note_on_c, 1, 62, 0
1, 5136, Note_on_c, 0, 83, 75
1, 5136, Note_on_c, 1, 65, 70
1, 5156, Note_on_c, 0, 83, 0
1, 5181, Note_on_c, 1, 65, 0
1, 5184, Note_on_c, 0, 86, 75
1, 5184, Note_on_c, 0, 77, 75
1, 5232, Note_on_c, 1, 55, 70
1, 5277, Note_on_c, 1, 55, 0
1, 5280, Note_on_c, 1, 59, 70
1, 5325, Note_on_c, 1, 59, 0
1, 5328, Note_on_c, 1, 55, 70
1, 5373, Note_on_c, 1, 55, 0
1, 5376, Note_on_c, 1, 60, 70
1, 5421, Note_on_c, 0, 86, 0
1, 5421, Note_on_c, 0, 77, 0
1, 5421, Note_on_c, 1, 60, 0
1, 5424, Note_on_c, 0, 84, 75
1, 5424, Note_on_c, 0, 75, 75
1, 5424, Note_on_c, 1, 48, 70
1, 5444, Note_on_c, 0, 84, 0
1, 5444, Note_on_c, 0, 75, 0
1, 5469, Note_on_c, 1, 48, 0
1, 5472, Note_on_c, 0, 87, 75
1, 5472, Note_on_c, 0, 79, 75
1, 5520, Note_on_c, 1, 59, 71
1, 5520, Note_on_c, 1, 47, 71
1, 5565, Note_on_c, 1, 59, 0
1, 5565, Note_on_c, 1, 47, 0
1, 5568, Note_on_c, 1, 60, 72
1, 5568, Note_on_c, 1, 48, 72
1, 5605, Note_on_c, 0, 87, 0
1, 5605, Note_on_c, 0, 79, 0
1, 5613, Note_on_c, 1, 60, 0
1, 5613, Note_on_c, 1, 48, 0
1, 5616, Note_on_c, 0, 86, 76
1, 5616, Note_on_c, 0, 77, 76
1, 5616, Note_on_c, 1, 62, 73
1, 5616, Note_on_c, 1, 50, 73
1, 5661, Note_on_c, 0, 86, 0
1, 5661, Note_on_c, 0, 77, 0
1, 5661, Note_on_c, 1, 62, 0
1, 5661, Note_on_c, 1, 50, 0
1, 5664, Note_on_c, 0, 84, 77
1, 5664, Note_on_c, 0, 75, 77
1, 5664, Note_on_c, 1, 63, 74
1, 5664, Note_on_c, 1, 51, 74
1, 5709, Note_on_c, 0, 84, 0
1, 5709, Note_on_c, 0, 75, 0
1, 5709, Note_on_c, 1, 63, 0
1, 5709, Note_on_c, 1, 51, 0
1, 5712, Note_on_c, 0, 82, 78
1, 5712, Note_on_c, 0, 74, 78
1, 5712, Note_on_c, 1, 64, 75
1, 5712, Note_on_c, 1, 52, 75
1, 5757, Note_on_c, 0, 82, 0
1, 5757, Note_on_c, 0, 74, 0
1, 5757, Note_on_c, 1, 64, 0
1, 5757, Note_on_c, 1, 52, 0
1, 5760, Note_on_c, 0, 82, 78
1, 5760, Note_on_c, 0, 74, 78
1, 5760, Note_on_c, 1, 65, 76
1, 5760, Note_on_c, 1, 53, 76
1, 5856, Note_on_c, 0, 82, 0
1, 5856, Note_on_c, 0, 74, 0
1, 5856, Note_on_c, 0, 81, 80
1, 5856, Note_on_c, 0, 72, 80
1, 5876, Note_on_c, 0, 81, 0
1, 5876, Note_on_c, 0, 72, 0
1, 5893, Note_on_c, 1, 65, 0
1, 5893, Note_on_c, 1, 53, 0
1, 5904, Note_on_c, 0, 79, 92
1, 5904, Note_on_c, 0, 72, 76
1, 5904, Note_on_c, 1, 70, 92
1, 5949, Note_on_c, 0, 79, 0
1, 5949, Note_on_c, 1, 70, 0
1, 5952, Note_on_c, 0, 77, 80
1, 5952, Note_on_c, 1, 69, 80
1, 5997, Note_on_c, 0, 77, 0
1, 5997, Note_on_c, 1, 69, 0
1, 6000, Note_on_c, 0, 76, 72
1, 6000, Note_on_c, 1, 67, 72
1, 6045, Note_on_c, 0, 76, 0
1, 6045, Note_on_c, 1, 67, 0
1, 6048, Note_on_c, 0, 76, 64
1, 6048, Note_on_c, 1, 67, 64
1, 6144, Note_on_c, 0, 76, 0
1, 6144, Note_on_c, 0, 77, 64
1, 6144, Note_on_c, 1, 67, 0
1, 6144, Note_on_c, 1, 69, 64
1, 6164, Note_on_c, 0, 77, 0
1, 6164, Note_on_c, 1, 69, 0
1, 6181, Note_on_c, 0, 72, 0
1, 6192, Note_on_c, 0, 79, 76
1, 6192, Note_on_c, 0, 72, 76
1, 6192, Note_on_c, 1, 70, 76
1, 6237, Note_on_c, 0, 79, 0
1, 6237, Note_on_c, 1, 70, 0
1, 6240, Note_on_c, 0, 77, 64
1, 6240, Note_on_c, 1, 69, 64
1, 6285, Note_on_c, 0, 77, 0
1, 6285, Note_on_c, 1, 69, 0
1, 6288, Note_on_c, 0, 76, 64
1, 6288, Note_on_c, 1, 67, 64
1, 6333, Note_on_c, 0, 76, 0
1, 6333, Note_on_c, 1, 67, 0
1, 6336, Note_on_c, 0, 76, 64
1, 6336, Note_on_c, 1, 67, 64
1, 6432, Note_on_c, 0, 76, 0
1, 6432, Note_on_c, 0, 77, 64
1, 6432, Note_on_c, 1, 67, 0
1, 6432, Note_on_c, 1, 69, 64
1, 6452, Note_on_c, 0, 77, 0
1, 6452, Note_on_c, 1, 69, 0
1, 6469, Note_on_c, 0, 72, 0
1, 6480, Note_on_c, 0, 79, 76
1, 6480, Note_on_c, 0, 73, 76
1, 6480, Note_on_c, 1, 70, 76
1, 6525, Note_on_c, 0, 79, 0
1, 6525, Note_on_c, 0, 73, 0
1, 6525, Note_on_c, 1, 70, 0
1, 6528, Note_on_c, 0, 77, 64
1, 6528, Note_on_c, 0, 72, 64
1, 6528, Note_on_c, 1, 69, 64
1, 6573, Note_on_c, 0, 77, 0
1, 6573, Note_on_c, 0, 72, 0
1, 6573, Note_on_c, 1, 69, 0
1, 6576, Note_on_c, 0, 76, 64
1, 6576, Note_on_c, 0, 70, 64
1, 6576, Note_on_c, 1, 67, 64
1, 6621, Note_on_c, 0, 76, 0
1, 6621, Note_on_c, 0, 70, 0
1, 6621, Note_on_c, 1, 67, 0
1, 6624, Note_on_c, 0, 76, 64
1, 6624, Note_on_c, 0, 70, 64
1, 6624, Note_on_c, 1, 67, 64
1, 6816, Note_on_c, 1, 67, 0
1, 6816, Note_on_c, 1, 66, 64
1, 6889, Note_on_c, 0, 76, 0
1, 6889, Note_on_c, 0, 70, 0
1, 6905, Note_on_c, 1, 66, 0
1, 6912, Tempo, 1000000
1, 6912, Note_on_c, 0, 75, 64
1, 6912, Note_on_c, 0, 69, 64
1, 6912, Note_on_c, 1, 65, 64
1, 7089, Note_on_c, 0, 75, 0
1, 7089, Note_on_c, 0, 69, 0
1, 7089, Note_on_c, 1, 65, 0
1, 7104, Tempo, 444444
1, 7104, Note_on_c, 0, 62, 75
1, 7128, Note_on_c, 0, 62, 0
1, 7128, Note_on_c, 0, 65, 75
1, 7151, Note_on_c, 0, 65, 0
1, 7152, Note_on_c, 0, 63, 75
1, 7176, Note_on_c, 0, 63, 0
1, 7176, Note_on_c, 0, 67, 75
1, 7199, Note_on_c, 0, 67, 0
1, 7200, Note_on_c, 0, 65, 75
1, 7200, Note_on_c, 1, 50, 75
1, 7200, Note_on_c, 1, 46, 75
1, 7220, Note_on_c, 0, 65, 0
1, 7245, Note_on_c, 1, 50, 0
1, 7245, Note_on_c, 1, 46, 0
1, 7296, Note_on_c, 1, 62, 75
1, 7296, Note_on_c, 1, 58, 75
1, 7316, Note_on_c, 1, 62, 0
1, 7316, Note_on_c, 1, 58, 0
1, 7344, Note_on_c, 0, 79, 75
1, 7367, Note_on_c, 0, 79, 0
1, 7368, Note_on_c, 0, 77, 75
1, 7391, Note_on_c, 0, 77, 0
1, 7392, Note_on_c, 0, 75, 75
1, 7415, Note_on_c, 0, 75, 0
1, 7416, Note_on_c, 0, 74, 75
1, 7439, Note_on_c, 0, 74, 0
1, 7440, Note_on_c, 0, 72, 75
1, 7463, Note_on_c, 0, 72, 0
1, 7464, Note_on_c, 0, 70, 75
1, 7487, Note_on_c, 0, 70, 0
1, 7488, Note_on_c, 0, 69, 75
1, 7488, Note_on_c, 1, 45, 75
1, 7488, Note_on_c, 1, 41, 75
1, 7508, Note_on_c, 0, 69, 0
1, 7533, Note_on_c, 1, 45, 0
1, 7533, Note_on_c, 1, 41, 0
1, 7584, Note_on_c, 1, 57, 75
1, 7584, Note_on_c, 1, 53, 75
1, 7604, Note_on_c, 1, 57, 0
1, 7604, Note_on_c, 1, 53, 0
1, 7680, Note_on_c, 0, 72, 75
1, 7704, Note_on_c, 0, 72, 0
1, 7704, Note_on_c, 0, 75, 75
1, 7727, Note_on_c, 0, 75, 0
1, 7728, Note_on_c, 0, 74, 75
1, 7752, Note_on_c, 0, 74, 0
1, 7752, Note_on_c, 0, 77, 75
1, 7775, Note_on_c, 0, 77, 0
1, 7776, Note_on_c, 0, 75, 75
1, 7776, Note_on_c, 1, 45, 75
1, 7776, Note_on_c, 1, 41, 75
1, 7796, Note_on_c, 0, 75, 0
1, 7821, Note_on_c, 1, 45, 0
1, 7821, Note_on_c, 1, 41, 0
1, 7872, Note_on_c, 1, 57, 75
1, 7872, Note_on_c, 1, 53, 75
1, 7892, Note_on_c, 1, 57, 0
1, 7892, Note_on_c, 1, 53, 0
1, 7920, Note_on_c, 0, 84, 75
1, 7943, Note_on_c, 0, 84, 0
1, 7944, Note_on_c, 0, 82, 75
1, 7967, Note_on_c, 0, 82, 0
1, 7968, Note_on_c, 0, 81, 75
1, 7991, Note_on_c, 0, 81, 0
1, 7992, Note_on_c, 0, 79, 75
1, 8015, Note_on_c, 0, 79, 0
1, 8016, Note_on_c, 0, 77, 75
1, 8039, Note_on_c, 0, 77, 0
1, 8040, Note_on_c, 0, 75, 75
1, 8063, Note_on_c, 0, 75, 0
1, 8064, Note_on_c, 0, 74, 75
1, 8064, Note_on_c, 1, 58, 64
1, 8084, Note_on_c, 0, 74, 0
1, 8087, Note_on_c, 1, 58, 0
1, 8088, Note_on_c, 1, 65, 64
1, 8111, Note_on_c, 1, 65, 0
1, 8112, Note_on_c, 1, 62, 64
1, 8135, Note_on_c, 1, 62, 0
1, 8136, Note_on_c, 1, 65, 64
1, 8159, Note_on_c, 1, 65, 0
1, 8160, Note_on_c, 0, 70, 80
1, 8160, Note_on_c, 1, 58, 64
1, 8183, Note_on_c, 0, 70, 0
1, 8183, Note_on_c, 1, 58, 0
1, 8184, Note_on_c, 0, 72, 80
1, 8184, Note_on_c, 1, 65, 64
1, 8207, Note_on_c, 0, 72, 0
1, 8207, Note_on_c, 1, 65, 0
1, 8208, Note_on_c, 0, 74, 81
1, 8208, Note_on_c, 1, 62, 64
1, 8231, Note_on_c, 0, 74, 0
1, 8231, Note_on_c, 1, 62, 0
1, 8232, Note_on_c, 0, 75, 82
1, 8232, Note_on_c, 1, 65, 64
1, 8255, Note_on_c, 0, 75, 0
1, 8255, Note_on_c, 1, 65, 0
1, 8256, Note_on_c, 0, 77, 83
1, 8256, Note_on_c, 1, 58, 64
1, 8279, Note_on_c, 0, 77, 0
1, 8279, Note_on_c, 1, 58, 0
1, 8280, Note_on_c, 0, 79, 83
1, 8280, Note_on_c, 1, 65, 64
1, 8303, Note_on_c, 0, 79, 0
1, 8303, Note_on_c, 1, 65, 0
1, 8304, Note_on_c, 0, 81, 84
1, 8304, Note_on_c, 1, 62, 64
1, 8327, Note_on_c, 0, 81, 0
1, 8327, Note_on_c, 1, 62, 0
1, 8328, Note_on_c, 0, 82, 85
1, 8328, Note_on_c, 1, 65, 64
1, 8351, Note_on_c, 0, 82, 0
1, 8351, Note_on_c, 1, 65, 0
1, 8352, Note_on_c, 0, 82, 102
1, 8352, Note_on_c, 1, 60, 64
1, 8375, Note_on_c, 1, 60, 0
1, 8376, Note_on_c, 1, 65, 64
1, 8399, Note_on_c, 1, 65, 0
1, 8400, Note_on_c, 1, 63, 64
1, 8423, Note_on_c, 1, 63, 0
1, 8424, Note_on_c, 1, 65, 64
1, 8447, Note_on_c, 1, 65, 0
1, 8448, Note_on_c, 0, 82, 0
1, 8448, Note_on_c, 0, 81, 83
1, 8448, Note_on_c, 1, 60, 64
1, 8471, Note_on_c, 1, 60, 0
1, 8472, Note_on_c, 1, 65, 64
1, 8493, Note_on_c, 0, 81, 0
1, 8495, Note_on_c, 1, 65, 0
1, 8496, Note_on_c, 0, 79, 82
1, 8496, Note_on_c, 1, 58, 64
1, 8519, Note_on_c, 1, 58, 0
1, 8520, Note_on_c, 1, 65, 64
1, 8541, Note_on_c, 0, 79, 0
1, 8543, Note_on_c, 1, 65, 0
1, 8544, Note_on_c, 0, 77, 81
1, 8544, Note_on_c, 1, 57, 64
1, 8567, Note_on_c, 1, 57, 0
1, 8568, Note_on_c, 1, 65, 64
1, 8589, Note_on_c, 0, 77, 0
1, 8591, Note_on_c, 1, 65, 0
1, 8592, Note_on_c, 0, 75, 80
1, 8592, Note_on_c, 1, 60, 64
1, 8615, Note_on_c, 1, 60, 0
1, 8616, Note_on_c, 1, 65, 64
1, 8637, Note_on_c, 0, 75, 0
1, 8639, Note_on_c, 1, 65, 0
1, 8640, Note_on_c, 0, 73, 80
1, 8640, Note_on_c, 1, 58, 64
1, 8663, Note_on_c, 1, 58, 0
1, 8664, Note_on_c, 1, 65, 64
1, 8687, Note_on_c, 1, 65, 0
1, 8688, Note_on_c, 0, 73, 0
1, 8688, Note_on_c, 0, 74, 80
1, 8688, Note_on_c, 1, 62, 64
1, 8711, Note_on_c, 1, 62, 0
1, 8712, Note_on_c, 1, 65, 64
1, 8733, Note_on_c, 0, 74, 0
1, 8735, Note_on_c, 1, 65, 0
1, 8736, Note_on_c, 0, 70, 80
1, 8736, Note_on_c, 1, 58, 64
1, 8759, Note_on_c, 0, 70, 0
1, 8759, Note_on_c, 1, 58, 0
1, 8760, Note_on_c, 0, 72, 80
1, 8760, Note_on_c, 1, 65, 64
1, 8783, Note_on_c, 0, 72, 0
1, 8783, Note_on_c, 1, 65, 0
1, 8784, Note_on_c, 0, 74, 81
1, 8784, Note_on_c, 1, 62, 64
1, 8807, Note_on_c, 0, 74, 0
1, 8807, Note_on_c, 1, 62, 0
1, 8808, Note_on_c, 0, 75, 82
1, 8808, Note_on_c, 1, 65, 64
1, 8831, Note_on_c, 0, 75, 0
1, 8831, Note_on_c, 1, 65, 0
1, 8832, Note_on_c, 0, 77, 83
1, 8832, Note_on_c, 1, 58, 64
1, 8855, Note_on_c, 0, 77, 0
1, 8855, Note_on_c, 1, 58, 0
1, 8856, Note_on_c, 0, 79, 83
1, 8856, Note_on_c, 1, 65, 64
1, 8879, Note_on_c, 0, 79, 0
1, 8879, Note_on_c, 1, 65, 0
1, 8880, Note_on_c, 0, 81, 84
1, 8880, Note_on_c, 1, 62, 64
1, 8903, Note_on_c, 0, 81, 0
1, 8903, Note_on_c, 1, 62, 0
1, 8904, Note_on_c, 0, 82, 85
1, 8904, Note_on_c, 1, 65, 64
1, 8914, Note_on_c, 0, 82, 0
1, 8927, Note_on_c, 1, 65, 0
1, 8928, Note_on_c, 0, 82, 102
1, 8928, Note_on_c, 1, 60, 64
1, 8951, Note_on_c, 1, 60, 0
1, 8952, Note_on_c, 1, 65, 64
1, 8975, Note_on_c, 1, 65, 0
1, 8976, Note_on_c, 1, 63, 64
1, 8999, Note_on_c, 1, 63, 0
1, 9000, Note_on_c, 1, 65, 64
1, 9023, Note_on_c, 1, 65, 0
1, 9024, Note_on_c, 0, 82, 0
1, 9024, Note_on_c, 0, 81, 84
1, 9024, Note_on_c, 1, 60, 64
1, 9047, Note_on_c, 1, 60, 0
1, 9048, Note_on_c, 1, 65, 64
1, 9069, Note_on_c, 0, 81, 0
1, 9071, Note_on_c, 1, 65, 0
1, 9072, Note_on_c, 0, 79, 83
1, 9072, Note_on_c, 1, 58, 64
1, 9095, Note_on_c, 1, 58, 0
1, 9096, Note_on_c, 1, 65, 64
1, 9117, Note_on_c, 0, 79, 0
1, 9119, Note_on_c, 1, 65, 0
1, 9120, Note_on_c, 0, 77, 82
1, 9120, Note_on_c, 1, 57, 64
1, 9143, Note_on_c, 1, 57, 0
1, 9144, Note_on_c, 1, 65, 64
1, 9165, Note_on_c, 0, 77, 0
1, 9167, Note_on_c, 1, 65, 0
1, 9168, Note_on_c, 0, 75, 81
1, 9168, Note_on_c, 1, 60, 64
1, 9191, Note_on_c, 1, 60, 0
1, 9192, Note_on_c, 1, 65, 64
1, 9213, Note_on_c, 0, 75, 0
1, 9215, Note_on_c, 1, 65, 0
1, 9216, Note_on_c, 0, 73, 80
1, 9216, Note_on_c, 1, 58, 64
1, 9239, Note_on_c, 1, 58, 0
1, 9240, Note_on_c, 1, 65, 64
1, 9263, Note_on_c, 1, 65, 0
1, 9264, Note_on_c, 0, 73, 0
1, 9264, Note_on_c, 0, 74, 80
1, 9264, Note_on_c, 1, 62, 64
1, 9287, Note_on_c, 1, 62, 0
1, 9288, Note_on_c, 1, 65, 64
1, 9309, Note_on_c, 0, 74, 0
1, 9311, Note_on_c, 1, 65, 0
1, 9312, Note_on_c, 0, 70, 80
1, 9312, Note_on_c, 1, 58, 64
1, 9335, Note_on_c, 0, 70, 0
1, 9335, Note_on_c, 1, 58, 0
1, 9336, Note_on_c, 0, 72, 80
1, 9336, Note_on_c, 1, 65, 64
1, 9359, Note_on_c, 0, 72, 0
1, 9359, Note_on_c, 1, 65, 0
1, 9360, Note_on_c, 0, 74, 81
1, 9360, Note_on_c, 1, 62, 64
1, 9383, Note_on_c, 0, 74, 0
1, 9383, Note_on_c, 1, 62, 0
1, 9384, Note_on_c, 0, 75, 82
1, 9384, Note_on_c, 1, 65, 64
1, 9407, Note_on_c, 0, 75, 0
1, 9407, Note_on_c, 1, 65, 0
1, 9408, Note_on_c, 0, 77, 83
1, 9408, Note_on_c, 1, 58, 64
1, 9431, Note_on_c, 0, 77, 0
1, 9431, Note_on_c, 1, 58, 0
1, 9432, Note_on_c, 0, 79, 83
1, 9432, Note_on_c, 1, 65, 64
1, 9455, Note_on_c, 0, 79, 0
1, 9455, Note_on_c, 1, 65, 0
1, 9456, Note_on_c, 0, 80, 84
1, 9456, Note_on_c, 1, 62, 64
1, 9479, Note_on_c, 0, 80, 0
1, 9479, Note_on_c, 1, 62, 0
1, 9480, Note_on_c, 0, 82, 85
1, 9480, Note_on_c, 1, 65, 64
1, 9490, Note_on_c, 0, 82, 0
1, 9503, Note_on_c, 1, 65, 0
1, 9504, Note_on_c, 0, 84, 102
1, 9504, Note_on_c, 1, 56, 64
1, 9527, Note_on_c, 1, 56, 0
1, 9528, Note_on_c, 1, 65, 64
1, 9551, Note_on_c, 1, 65, 0
1, 9552, Note_on_c, 1, 62, 64
1, 9575, Note_on_c, 1, 62, 0
1, 9576, Note_on_c, 1, 65, 64
1, 9599, Note_on_c, 1, 65, 0
1, 9600, Note_on_c, 1, 56, 64
1, 9623, Note_on_c, 1, 56, 0
1, 9624, Note_on_c, 1, 65, 64
1, 9647, Note_on_c, 1, 65, 0
1, 9648, Note_on_c, 0, 84, 0
1, 9648, Note_on_c, 0, 86, 86
1, 9648, Note_on_c, 1, 62, 64
1, 9660, Note_on_c, 0, 86, 0
1, 9660, Note_on_c, 0, 84, 86
1, 9671, Note_on_c, 1, 62, 0
1, 9672, Note_on_c, 0, 84, 0
1, 9672, Note_on_c, 0, 83, 86
1, 9672, Note_on_c, 1, 65, 64
1, 9684, Note_on_c, 0, 83, 0
1, 9684, Note_on_c, 0, 84, 86
1, 9695, Note_on_c, 1, 65, 0
1, 9696, Note_on_c, 0, 84, 0
1, 9696, Note_on_c, 0, 89, 86
1, 9696, Note_on_c, 1, 56, 64
1, 9719, Note_on_c, 1, 56, 0
1, 9720, Note_on_c, 1, 65, 64
1, 9743, Note_on_c, 1, 65, 0
1, 9744, Note_on_c, 1, 62, 64
1, 9763, Note_on_c, 0, 89, 0
1, 9767, Note_on_c, 1, 62, 0
1, 9768, Note_on_c, 0, 86, 86
1, 9768, Note_on_c, 1, 65, 64
1, 9791, Note_on_c, 0, 86, 0
1, 9791, Note_on_c, 1, 65, 0
1, 9792, Note_on_c, 0, 84, 86
1, 9792, Note_on_c, 1, 55, 64
1, 9815, Note_on_c, 1, 55, 0
1, 9816, Note_on_c, 1, 65, 64
1, 9839, Note_on_c, 1, 65, 0
1, 9840, Note_on_c, 1, 62, 64
1, 9863, Note_on_c, 1, 62, 0
1, 9864, Note_on_c, 1, 65, 64
1, 9881, Note_on_c, 0, 84, 0
1, 9887, Note_on_c, 1, 65, 0
1, 9888, Note_on_c, 0, 83, 86
1, 9888, Note_on_c, 1, 55, 64
1, 9902, Note_on_c, 0, 83, 0
1, 9903, Note_on_c, 0, 84, 86
1, 9911, Note_on_c, 1, 55, 0
1, 9912, Note_on_c, 1, 65, 64
1, 9917, Note_on_c, 0, 84, 0
1, 9918, Note_on_c, 0, 83, 86
1, 9932, Note_on_c, 0, 83, 0
1, 9933, Note_on_c, 0, 84, 86
1, 9935, Note_on_c, 1, 65, 0
1, 9936, Note_on_c, 1, 62, 64
1, 9947, Note_on_c, 0, 84, 0
1, 9948, Note_on_c, 0, 83, 86
1, 9959, Note_on_c, 1, 62, 0
1, 9960, Note_on_c, 1, 65, 64
1, 9962, Note_on_c, 0, 83, 0
1, 9963, Note_on_c, 0, 84, 86
1, 9977, Note_on_c, 0, 84, 0
1, 9978, Note_on_c, 0, 83, 86
1, 9983, Note_on_c, 1, 65, 0
1, 9984, Note_on_c, 1, 55, 64
1, 9992, Note_on_c, 0, 83, 0
1, 9993, Note_on_c, 0, 84, 86
1, 10007, Note_on_c, 0, 84, 0
1, 10007, Note_on_c, 1, 55, 0
1, 10008, Note_on_c, 0, 83, 86
1, 10008, Note_on_c, 1, 65, 64
1, 10022, Note_on_c, 0, 83, 0
1, 10023, Note_on_c, 0, 84, 86
1, 10031, Note_on_c, 1, 65, 0
1, 10032, Note_on_c, 1, 62, 64
1, 10037, Note_on_c, 0, 84, 0
1, 10038, Note_on_c, 0, 83, 86
1, 10051, Note_on_c, 0, 83, 0
1, 10052, Note_on_c, 0, 81, 86
1, 10055, Note_on_c, 1, 62, 0
1, 10056, Note_on_c, 1, 65, 64
1, 10065, Note_on_c, 0, 81, 0
1, 10066, Note_on_c, 0, 83, 86
1, 10079, Note_on_c, 0, 83, 0
1, 10079, Note_on_c, 1, 65, 0
1, 10080, Note_on_c, 0, 84, 86
1, 10080, Note_on_c, 1, 55, 64
1, 10099, Note_on_c, 0, 84, 0
1, 10103, Note_on_c, 1, 55, 0
1, 10104, Note_on_c, 0, 86, 86
1, 10104, Note_on_c, 1, 63, 64
1, 10116, Note_on_c, 0, 86, 0
1, 10116, Note_on_c, 0, 84, 86
1, 10127, Note_on_c, 1, 63, 0
1, 10128, Note_on_c, 0, 84, 0
1, 10128, Note_on_c, 0, 83, 86
1, 10128, Note_on_c, 1, 60, 64
1, 10140, Note_on_c, 0, 83, 0
1, 10140, Note_on_c, 0, 84, 86
1, 10151, Note_on_c, 1, 60, 0
1, 10152, Note_on_c, 0, 84, 0
1, 10152, Note_on_c, 0, 86, 86
1, 10152, Note_on_c, 1, 63, 64
1, 10175, Note_on_c, 0, 86, 0
1, 10175, Note_on_c, 1, 63, 0
1, 10176, Note_on_c, 0, 87, 86
1, 10176, Note_on_c, 1, 55, 64
1, 10199, Note_on_c, 1, 55, 0
1, 10200, Note_on_c, 1, 63, 64
1, 10221, Note_on_c, 0, 87, 0
1, 10223, Note_on_c, 1, 63, 0
1, 10224, Note_on_c, 1, 60, 64
1, 10247, Note_on_c, 1, 60, 0
1, 10248, Note_on_c, 0, 86, 86
1, 10248, Note_on_c, 1, 63, 64
1, 10271, Note_on_c, 0, 86, 0
1, 10271, Note_on_c, 1, 63, 0
1, 10272, Note_on_c, 0, 84, 86
1, 10272, Note_on_c, 1, 54, 64
1, 10295, Note_on_c, 1, 54, 0
1, 10296, Note_on_c, 1, 63, 64
1, 10317, Note_on_c, 0, 84, 0
1, 10319, Note_on_c, 1, 63, 0
1, 10320, Note_on_c, 1, 60, 64
1, 10343, Note_on_c, 1, 60, 0
1, 10344, Note_on_c, 0, 82, 86
1, 10344, Note_on_c, 1, 63, 64
1, 10367, Note_on_c, 0, 82, 0
1, 10367, Note_on_c, 1, 63, 0
1, 10368, Note_on_c, 0, 82, 86
1, 10368, Note_on_c, 1, 53, 64
1, 10391, Note_on_c, 1, 53, 0
1, 10392, Note_on_c, 1, 63, 64
1, 10415, Note_on_c, 1, 63, 0
1, 10416, Note_on_c, 1, 60, 64
1, 10439, Note_on_c, 1, 60, 0
1, 10440, Note_on_c, 1, 63, 64
1, 10457, Note_on_c, 0, 82, 0
1, 10463, Note_on_c, 1, 63, 0
1, 10464, Note_on_c, 0, 81, 83
1, 10464, Note_on_c, 1, 53, 64
1, 10477, Note_on_c, 0, 81, 0
1, 10478, Note_on_c, 0, 82, 82
1, 10487, Note_on_c, 1, 53, 0
1, 10488, Note_on_c, 1, 63, 64
1, 10491, Note_on_c, 0, 82, 0
1, 10492, Note_on_c, 0, 81, 82
1, 10505, Note_on_c, 0, 81, 0
1, 10506, Note_on_c, 0, 82, 81
1, 10511, Note_on_c, 1, 63, 0
1, 10512, Note_on_c, 1, 60, 64
1, 10519, Note_on_c, 0, 82, 0
1, 10520, Note_on_c, 0, 81, 81
1, 10533, Note_on_c, 0, 81, 0
1, 10534, Note_on_c, 0, 79, 81
1, 10535, Note_on_c, 1, 60, 0
1, 10536, Note_on_c, 1, 63, 64
1, 10546, Note_on_c, 0, 79, 0
1, 10547, Note_on_c, 0, 81, 80
1, 10559, Note_on_c, 0, 81, 0
1, 10559, Note_on_c, 1, 63, 0
1, 10560, Note_on_c, 0, 82, 80
1, 10560, Note_on_c, 1, 55, 64
1, 10583, Note_on_c, 1, 55, 0
1, 10584, Note_on_c, 1, 62, 64
1, 10607, Note_on_c, 1, 62, 0
1, 10608, Note_on_c, 1, 58, 64
1, 10631, Note_on_c, 1, 58, 0
1, 10632, Note_on_c, 1, 62, 64
1, 10649, Note_on_c, 0, 82, 0
1, 10655, Note_on_c, 1, 62, 0
1, 10656, Note_on_c, 0, 81, 75
1, 10656, Note_on_c, 1, 51, 64
1, 10679, Note_on_c, 0, 81, 0
1, 10680, Note_on_c, 0, 79, 75
1, 10703, Note_on_c, 0, 79, 0
1, 10704, Note_on_c, 0, 78, 75
1, 10727, Note_on_c, 0, 78, 0
1, 10728, Note_on_c, 0, 79, 75
1, 10745, Note_on_c, 1, 51, 0
1, 10751, Note_on_c, 0, 79, 0
1, 10752, Note_on_c, 0, 78, 75
1, 10775, Note_on_c, 0, 78, 0
1, 10776, Note_on_c, 0, 79, 75
1, 10799, Note_on_c, 0, 79, 0
1, 10800, Note_on_c, 0, 78, 75
1, 10823, Note_on_c, 0, 78, 0
1, 10824, Note_on_c, 0, 79, 75
1, 10847, Note_on_c, 0, 79, 0
1, 10848, Note_on_c, 0, 82, 75
1, 10893, Note_on_c, 0, 82, 0
1, 10896, Note_on_c, 0, 79, 75
1, 10941, Note_on_c, 0, 79, 0
1, 10944, Note_on_c, 0, 77, 75
1, 10944, Note_on_c, 1, 67, 64
1, 10944, Note_on_c, 1, 63, 64
1, 10967, Note_on_c, 0, 77, 0
1, 10968, Note_on_c, 0, 75, 75
1, 10991, Note_on_c, 0, 75, 0
1, 10992, Note_on_c, 0, 74, 75
1, 11015, Note_on_c, 0, 74, 0
1, 11016, Note_on_c, 0, 75, 75
1, 11033, Note_on_c, 1, 67, 0
1, 11033, Note_on_c, 1, 63, 0
1, 11039, Note_on_c, 0, 75, 0
1, 11040, Note_on_c, 0, 74, 75
1, 11063, Note_on_c, 0, 74, 0
1, 11064, Note_on_c, 0, 75, 75
1, 11087, Note_on_c, 0, 75, 0
1, 11088, Note_on_c, 0, 74, 75
1, 11111, Note_on_c, 0, 74, 0
1, 11112, Note_on_c, 0, 75, 75
1, 11135, Note_on_c, 0, 75, 0
1, 11136, Note_on_c, 0, 79, 75
1, 11181, Note_on_c, 0, 79, 0
1, 11184, Note_on_c, 0, 75, 75
1, 11229, Note_on_c, 0, 75, 0
1, 11232, Note_on_c, 0, 74, 75
1, 11255, Note_on_c, 0, 74, 0
1, 11256, Note_on_c, 0, 72, 75
1, 11279, Note_on_c, 0, 72, 0
1, 11280, Note_on_c, 0, 71, 75
1, 11303, Note_on_c, 0, 71, 0
1, 11304, Note_on_c, 0, 72, 75
1, 11327, Note_on_c, 0, 72, 0
1, 11328, Note_on_c, 0, 74, 75
1, 11351, Note_on_c, 0, 74, 0
1, 11352, Note_on_c, 0, 72, 75
1, 11375, Note_on_c, 0, 72, 0
1, 11376, Note_on_c, 0, 71, 75
1, 11399, Note_on_c, 0, 71, 0
1, 11400, Note_on_c, 0, 72, 75
1, 11423, Note_on_c, 0, 72, 0
1, 11424, Note_on_c, 0, 74, 75
1, 11447, Note_on_c, 0, 74, 0
1, 11448, Note_on_c, 0, 72, 75
1, 11471, Note_on_c, 0, 72, 0
1, 11472, Note_on_c, 0, 71, 75
1, 11495, Note_on_c, 0, 71, 0
1, 11496, Note_on_c, 0, 72, 75
1, 11519, Note_on_c, 0, 72, 0
1, 11520, Tempo, 500000
1, 11520, Note_on_c, 0, 78, 75
1, 11573, Note_on_c, 0, 78, 0
1, 11580, Note_on_c, 0, 79, 75
1, 11592, Note_on_c, 0, 79, 0
1, 11592, Note_on_c, 0, 78, 75
1, 11604, Note_on_c, 0, 78, 0
1, 11604, Note_on_c, 0, 76, 75
1, 11616, Note_on_c, 0, 76, 0
1, 11616, Note_on_c, 0, 78, 75
1, 11683, Note_on_c, 0, 78, 0
1, 11688, Note_on_c, 0, 81, 75
1, 11711, Note_on_c, 0, 81, 0
1, 11712, Note_on_c, 0, 79, 75
1, 11742, Note_on_c, 0, 79, 0
1, 11744, Note_on_c, 0, 75, 75
1, 11774, Note_on_c, 0, 75, 0
1, 11776, Note_on_c, 0, 72, 75
1, 11806, Note_on_c, 0, 72, 0
1, 11808, Note_on_c, 0, 70, 75
1, 11808, Note_on_c, 1, 62, 75
1, 11808, Note_on_c, 1, 53, 75
1, 11941, Note_on_c, 0, 70, 0
1, 11952, Note_on_c, 0, 72, 75
1, 11964, Note_on_c, 0, 72, 0
1, 11964, Note_on_c, 0, 70, 75
1, 11976, Note_on_c, 0, 70, 0
1, 11976, Note_on_c, 0, 69, 75
1, 11988, Note_on_c, 0, 69, 0
1, 11988, Note_on_c, 0, 70, 75
1, 11997, Note_on_c, 1, 62, 0
1, 11997, Note_on_c, 1, 53, 0
1, 12000, Tempo, 705882
1, 12000, Note_on_c, 0, 70, 0
1, 12000, Note_on_c, 0, 74, 75
1, 12000, Note_on_c, 0, 69, 64
1, 12000, Note_on_c, 1, 63, 75
1, 12000, Note_on_c, 1, 53, 75
1, 12067, Note_on_c, 0, 74, 0
1, 12072, Note_on_c, 0, 72, 75
1, 12089, Note_on_c, 0, 69, 0
1, 12089, Note_on_c, 1, 63, 0
1, 12089, Note_on_c, 1, 53, 0
1, 12095, Note_on_c, 0, 72, 0
1, 12096, Tempo, 444444
1, 12096, Note_on_c, 0, 70, 75
1, 12096, Note_on_c, 1, 58, 70
1, 12119, Note_on_c, 1, 58, 0
1, 12120, Note_on_c, 1, 65, 70
1, 12143, Note_on_c, 1, 65, 0
1, 12144, Note_on_c, 1, 62, 70
1, 12167, Note_on_c, 1, 62, 0
1, 12168, Note_on_c, 1, 65, 70
1, 12185, Note_on_c, 0, 70, 0
1, 12191, Note_on_c, 1, 65, 0
1, 12192, Note_on_c, 1, 58, 70
1, 12215, Note_on_c, 1, 58, 0
1, 12216, Note_on_c, 1, 65, 70
1, 12239, Note_on_c, 1, 65, 0
1, 12240, Note_on_c, 0, 41, 80
1, 12240, Note_on_c, 1, 62, 70
1, 12263, Note_on_c, 1, 62, 0
1, 12264, Note_on_c, 1, 65, 70
1, 12285, Note_on_c, 0, 41, 0
1, 12287, Note_on_c, 1, 65, 0
1, 12288, Note_on_c, 0, 46, 80
1, 12288, Note_on_c, 1, 58, 70
1, 12311, Note_on_c, 1, 58, 0
1, 12312, Note_on_c, 1, 65, 70
1, 12333, Note_on_c, 0, 46, 0
1, 12335, Note_on_c, 1, 65, 0
1, 12336, Note_on_c, 0, 50, 80
1, 12336, Note_on_c, 1, 62, 70
1, 12359, Note_on_c, 1, 62, 0
1, 12360, Note_on_c, 1, 65, 70
1, 12381, Note_on_c, 0, 50, 0
1, 12383, Note_on_c, 1, 65, 0
1, 12384, Note_on_c, 0, 51, 96
1, 12384, Note_on_c, 1, 57, 70
1, 12407, Note_on_c, 1, 57, 0
1, 12408, Note_on_c, 1, 65, 70
1, 12431, Note_on_c, 1, 65, 0
1, 12432, Note_on_c, 1, 60, 70
1, 12455, Note_on_c, 1, 60, 0
1, 12456, Note_on_c, 1, 65, 70
1, 12479, Note_on_c, 1, 65, 0
1, 12480, Note_on_c, 1, 57, 70
1, 12503, Note_on_c, 1, 57, 0
1, 12504, Note_on_c, 1, 65, 70
1, 12527, Note_on_c, 1, 65, 0
1, 12528, Note_on_c, 0, 51, 0
1, 12528, Note_on_c, 0, 48, 80
1, 12528, Note_on_c, 1, 60, 70
1, 12551, Note_on_c, 0, 48, 0
1, 12551, Note_on_c, 1, 60, 0
1, 12552, Note_on_c, 0, 45, 80
1, 12552, Note_on_c, 1, 65, 70
1, 12575, Note_on_c, 0, 45, 0
1, 12575, Note_on_c, 1, 65, 0
1, 12576, Note_on_c, 0, 41, 80
1, 12576, Note_on_c, 1, 57, 70
1, 12599, Note_on_c, 1, 57, 0
1, 12600, Note_on_c, 1, 65, 70
1, 12621, Note_on_c, 0, 41, 0
1, 12623, Note_on_c, 1, 65, 0
1, 12624, Note_on_c, 0, 39, 80
1, 12624, Note_on_c, 1, 60, 70
1, 12647, Note_on_c, 1, 60, 0
1, 12648, Note_on_c, 1, 65, 70
1, 12669, Note_on_c, 0, 39, 0
1, 12671, Note_on_c, 1, 65, 0
1, 12672, Note_on_c, 0, 38, 80
1, 12672, Note_on_c, 1, 58, 70
1, 12695, Note_on_c, 1, 58, 0
1, 12696, Note_on_c, 1, 65, 70
1, 12717, Note_on_c, 0, 38, 0
1, 12719, Note_on_c, 1, 65, 0
1, 12720, Note_on_c, 1, 62, 70
1, 12743, Note_on_c, 1, 62, 0
1, 12744, Note_on_c, 1, 65, 70
1, 12767, Note_on_c, 1, 65, 0
1, 12768, Note_on_c, 1, 58, 70
1, 12791, Note_on_c, 1, 58, 0
1, 12792, Note_on_c, 1, 65, 70
1, 12815, Note_on_c, 1, 65, 0
1, 12816, Note_on_c, 0, 77, 80
1, 12816, Note_on_c, 1, 62, 70
1, 12839, Note_on_c, 1, 62, 0
1, 12840, Note_on_c, 1, 65, 70
1, 12861, Note_on_c, 0, 77, 0
1, 12863, Note_on_c, 1, 65, 0
1, 12864, Note_on_c, 0, 82, 80
1, 12864, Note_on_c, 1, 58, 70
1, 12887, Note_on_c, 1, 58, 0
1, 12888, Note_on_c, 1, 65, 70
1, 12909, Note_on_c, 0, 82, 0
1, 12911, Note_on_c, 1, 65, 0
1, 12912, Note_on_c, 0, 86, 80
1, 12912, Note_on_c, 1, 62, 70
1, 12935, Note_on_c, 1, 62, 0
1, 12936, Note_on_c, 1, 65, 70
1, 12957, Note_on_c, 0, 86, 0
1, 12959, Note_on_c, 1, 65, 0
1, 12960, Note_on_c, 0, 77, 80
1, 12960, Note_on_c, 1, 57, 70
1, 12972, Note_on_c, 0, 77, 0
1, 12972, Note_on_c, 0, 81, 80
1, 12983, Note_on_c, 1, 57, 0
1, 12984, Note_on_c, 0, 81, 0
1, 12984, Note_on_c, 0, 84, 80
1, 12984, Note_on_c, 1, 65, 70
1, 12996, Note_on_c, 0, 84, 0
1, 12996, Note_on_c, 0, 87, 96
1, 13007, Note_on_c, 1, 65, 0
1, 13008, Note_on_c, 1, 60, 70
1, 13031, Note_on_c, 1, 60, 0
1, 13032, Note_on_c, 1, 65, 70
1, 13055, Note_on_c, 1, 65, 0
1, 13056, Note_on_c, 1, 57, 70
1, 13079, Note_on_c, 1, 57, 0
1, 13080, Note_on_c, 1, 65, 70
1, 13103, Note_on_c, 1, 65, 0
1, 13104, Note_on_c, 0, 87, 0
1, 13104, Note_on_c, 0, 84, 80
1, 13104, Note_on_c, 1, 60, 70
1, 13127, Note_on_c, 0, 84, 0
1, 13127, Note_on_c, 1, 60, 0
1, 13128, Note_on_c, 0, 81, 80
1, 13128, Note_on_c, 1, 65, 70
1, 13151, Note_on_c, 0, 81, 0
1, 13151, Note_on_c, 1, 65, 0
1, 13152, Note_on_c, 0, 77, 80
1, 13152, Note_on_c, 1, 57, 70
1, 13175, Note_on_c, 1, 57, 0
1, 13176, Note_on_c, 1, 65, 70
1, 13197, Note_on_c, 0, 77, 0
1, 13199, Note_on_c, 1, 65, 0
1, 13200, Note_on_c, 0, 75, 80
1, 13200, Note_on_c, 1, 60, 70
1, 13223, Note_on_c, 1, 60, 0
1, 13224, Note_on_c, 1, 65, 70
1, 13245, Note_on_c, 0, 75, 0
1, 13247, Note_on_c, 1, 65, 0
1, 13248, Note_on_c, 0, 74, 80
1, 13248, Note_on_c, 1, 58, 70
1, 13271, Note_on_c, 1, 58, 0
1, 13272, Note_on_c, 1, 65, 70
1, 13293, Note_on_c, 0, 74, 0
1, 13295, Note_on_c, 1, 65, 0
1, 13296, Note_on_c, 1, 62, 70
1, 13319, Note_on_c, 1, 62, 0
1, 13320, Note_on_c, 1, 65, 70
1, 13343, Note_on_c, 1, 65, 0
1, 13344, Note_on_c, 1, 58, 70
1, 13367, Note_on_c, 1, 58, 0
1, 13368, Note_on_c, 1, 65, 70
1, 13391, Note_on_c, 1, 65, 0
1, 13392, Note_on_c, 0, 41, 80
1, 13392, Note_on_c, 1, 62, 70
1, 13415, Note_on_c, 1, 62, 0
1, 13416, Note_on_c, 1, 65, 70
1, 13437, Note_on_c, 0, 41, 0
1, 13439, Note_on_c, 1, 65, 0
1, 13440, Note_on_c, 0, 46, 80
1, 13440, Note_on_c, 1, 58, 70
1, 13463, Note_on_c, 1, 58, 0
1, 13464, Note_on_c, 1, 65, 70
1, 13485, Note_on_c, 0, 46, 0
1, 13487, Note_on_c, 1, 65, 0
1, 13488, Note_on_c, 0, 50, 80
1, 13488, Note_on_c, 1, 62, 70
1, 13511, Note_on_c, 1, 62, 0
1, 13512, Note_on_c, 1, 65, 70
1, 13533, Note_on_c, 0, 50, 0
1, 13535, Note_on_c, 1, 65, 0
1, 13536, Note_on_c, 0, 51, 96
1, 13536, Note_on_c, 1, 57, 70
1, 13559, Note_on_c, 1, 57, 0
1, 13560, Note_on_c, 1, 65, 70
1, 13583, Note_on_c, 1, 65, 0
1, 13584, Note_on_c, 0, 51, 0
1, 13584, Note_on_c, 1, 60, 70
1, 13607, Note_on_c, 1, 60, 0
1, 13608, Note_on_c, 0, 51, 80
1, 13608, Note_on_c, 1, 65, 70
1, 13620, Note_on_c, 0, 51, 0
1, 13620, Note_on_c, 0, 48, 80
1, 13631, Note_on_c, 1, 65, 0
1, 13632, Note_on_c, 0, 48, 0
1, 13632, Note_on_c, 0, 45, 96
1, 13632, Note_on_c, 1, 57, 70
1, 13655, Note_on_c, 1, 57, 0
1, 13656, Note_on_c, 1, 65, 70
1, 13679, Note_on_c, 1, 65, 0
1, 13680, Note_on_c, 0, 45, 0
1, 13680, Note_on_c, 1, 60, 70
1, 13703, Note_on_c, 1, 60, 0
1, 13704, Note_on_c, 0, 48, 80
1, 13704, Note_on_c, 1, 65, 70
1, 13716, Note_on_c, 0, 48, 0
1, 13716, Note_on_c, 0, 45, 80
1, 13727, Note_on_c, 1, 65, 0
1, 13728, Note_on_c, 0, 45, 0
1, 13728, Note_on_c, 0, 41, 80
1, 13728, Note_on_c, 1, 57, 70
1, 13751, Note_on_c, 1, 57, 0
1, 13752, Note_on_c, 1, 65, 70
1, 13773, Note_on_c, 0, 41, 0
1, 13775, Note_on_c, 1, 65, 0
1, 13776, Note_on_c, 0, 39, 80
1, 13776, Note_on_c, 1, 60, 70
1, 13799, Note_on_c, 1, 60, 0
1, 13800, Note_on_c, 1, 65, 70
1, 13821, Note_on_c, 0, 39, 0
1, 13823, Note_on_c, 1, 65, 0
1, 13824, Note_on_c, 0, 38, 80
1, 13824, Note_on_c, 1, 58, 70
1, 13847, Note_on_c, 1, 58, 0
1, 13848, Note_on_c, 1, 65, 70
1, 13869, Note_on_c, 0, 38, 0
1, 13871, Note_on_c, 1, 65, 0
1, 13872, Note_on_c, 1, 62, 70
1, 13895, Note_on_c, 1, 62, 0
1, 13896, Note_on_c, 1, 65, 70
1, 13919, Note_on_c, 1, 65, 0
1, 13920, Note_on_c, 1, 58, 70
1, 13943, Note_on_c, 1, 58, 0
1, 13944, Note_on_c, 0, 77, 80
1, 13944, Note_on_c, 1, 65, 70
1, 13967, Note_on_c, 0, 77, 0
1, 13967, Note_on_c, 1, 65, 0
1, 13968, Note_on_c, 0, 82, 80
1, 13968, Note_on_c, 1, 62, 70
1, 13991, Note_on_c, 0, 82, 0
1, 13991, Note_on_c, 1, 62, 0
1, 13992, Note_on_c, 0, 86, 80
1, 13992, Note_on_c, 1, 65, 70
1, 14015, Note_on_c, 0, 86, 0
1, 14015, Note_on_c, 1, 65, 0
1, 14016, Note_on_c, 0, 89, 80
1, 14016, Note_on_c, 1, 58, 70
1, 14039, Note_on_c, 1, 58, 0
1, 14040, Note_on_c, 1, 65, 70
1, 14061, Note_on_c, 0, 89, 0
1, 14063, Note_on_c, 1, 65, 0
1, 14064, Note_on_c, 0, 89, 80
1, 14064, Note_on_c, 1, 62, 70
1, 14087, Note_on_c, 1, 62, 0
1, 14088, Note_on_c, 1, 65, 70
1, 14109, Note_on_c, 0, 89, 0
1, 14111, Note_on_c, 1, 65, 0
1, 14112, Note_on_c, 0, 87, 80
1, 14112, Note_on_c, 1, 57, 70
1, 14135, Note_on_c, 0, 87, 0
1, 14136, Note_on_c, 0, 89, 80
1, 14159, Note_on_c, 0, 89, 0
1, 14160, Note_on_c, 0, 87, 80
1, 14183, Note_on_c, 0, 87, 0
1, 14184, Note_on_c, 0, 86, 80
1, 14201, Note_on_c, 1, 57, 0
1, 14207, Note_on_c, 0, 86, 0
1, 14208, Note_on_c, 0, 84, 80
1, 14231, Note_on_c, 0, 84, 0
1, 14232, Note_on_c, 0, 82, 80
1, 14255, Note_on_c, 0, 82, 0
1, 14256, Note_on_c, 0, 81, 79
1, 14279, Note_on_c, 0, 81, 0
1, 14280, Note_on_c, 0, 79, 78
1, 14303, Note_on_c, 0, 79, 0
1, 14304, Note_on_c, 0, 77, 77
1, 14327, Note_on_c, 0, 77, 0
1, 14328, Note_on_c, 0, 75, 77
1, 14351, Note_on_c, 0, 75, 0
1, 14352, Note_on_c, 0, 74, 76
1, 14375, Note_on_c, 0, 74, 0
1, 14376, Note_on_c, 0, 72, 75
1, 14399, Note_on_c, 0, 72, 0
1, 14400, Note_on_c, 0, 70, 75
1, 14400, Note_on_c, 1, 58, 75
1, 14445, Note_on_c, 0, 70, 0
1, 14445, Note_on_c, 1, 58, 0
1, 14448, Note_on_c, 0, 86, 75
1, 14448, Note_on_c, 0, 82, 75
1, 14493, Note_on_c, 0, 86, 0
1, 14493, Note_on_c, 0, 82, 0
1, 14496, Note_on_c, 1, 65, 75
1, 14541, Note_on_c, 1, 65, 0
1, 14544, Note_on_c, 0, 84, 75
1, 14544, Note_on_c, 0, 81, 75
1, 14589, Note_on_c, 0, 84, 0
1, 14589, Note_on_c, 0, 81, 0
1, 14592, Note_on_c, 1, 67, 70
1, 14637, Note_on_c, 1, 67, 0
1, 14640, Note_on_c, 0, 82, 70
1, 14640, Note_on_c, 0, 79, 70
1, 14685, Note_on_c, 0, 82, 0
1, 14685, Note_on_c, 0, 79, 0
1, 14688, Note_on_c, 1, 62, 66
1, 14733, Note_on_c, 1, 62, 0
1, 14736, Note_on_c, 0, 80, 66
1, 14736, Note_on_c, 0, 77, 66
1, 14781, Note_on_c, 0, 80, 0
1, 14781, Note_on_c, 0, 77, 0
1, 14784, Note_on_c, 1, 63, 64
1, 14829, Note_on_c, 1, 63, 0
1, 14832, Note_on_c, 0, 79, 64
1, 14832, Note_on_c, 0, 75, 64
1, 14877, Note_on_c, 0, 79, 0
1, 14877, Note_on_c, 0, 75, 0
1, 14880, Note_on_c, 1, 71, 64
1, 14880, Note_on_c, 1, 67, 64
1, 14925, Note_on_c, 1, 71, 0
1, 14925, Note_on_c, 1, 67, 0
1, 14928, Note_on_c, 0, 77, 64
1, 14928, Note_on_c, 0, 74, 64
1, 14973, Note_on_c, 0, 77, 0
1, 14973, Note_on_c, 0, 74, 0
1, 14976, Note_on_c, 1, 68, 64
1, 15021, Note_on_c, 1, 68, 0
1, 15024, Note_on_c, 0, 75, 64
1, 15024, Note_on_c, 0, 72, 64
1, 15069, Note_on_c, 0, 75, 0
1, 15069, Note_on_c, 0, 72, 0
1, 15408, Note_on_c, 0, 75, 64
1, 15408, Note_on_c, 0, 72, 64
1, 15428, Note_on_c, 0, 75, 0
1, 15428, Note_on_c, 0, 72, 0
1, 15456, Note_on_c, 0, 75, 64
1, 15456, Note_on_c, 0, 72, 64
1, 15476, Note_on_c, 0, 75, 0
1, 15476, Note_on_c, 0, 72, 0
1, 15504, Note_on_c, 0, 75, 64
1, 15504, Note_on_c, 0, 72, 64
1, 15524, Note_on_c, 0, 75, 0
1, 15524, Note_on_c, 0, 72, 0
1, 15552, Note_on_c, 0, 75, 64
1, 15552, Note_on_c, 0, 72, 64
1, 15696, Note_on_c, 1, 68, 64
1, 15716, Note_on_c, 1, 68, 0
1, 15744, Note_on_c, 1, 68, 64
1, 15764, Note_on_c, 1, 68, 0
1, 15792, Note_on_c, 1, 68, 64
1, 15812, Note_on_c, 1, 68, 0
1, 15840, Note_on_c, 1, 68, 64
1, 15973, Note_on_c, 0, 75, 0
1, 15973, Note_on_c, 0, 72, 0
1, 15984, Note_on_c, 0, 75, 64
1, 15984, Note_on_c, 0, 72, 64
1, 16004, Note_on_c, 0, 75, 0
1, 16004, Note_on_c, 0, 72, 0
1, 16032, Note_on_c, 0, 75, 64
1, 16032, Note_on_c, 0, 72, 64
1, 16052, Note_on_c, 0, 75, 0
1, 16052, Note_on_c, 0, 72, 0
1, 16080, Note_on_c, 0, 75, 64
1, 16080, Note_on_c, 0, 72, 64
1, 16100, Note_on_c, 0, 75, 0
1, 16100, Note_on_c, 0, 72, 0
1, 16105, Note_on_c, 1, 68, 0
1, 16128, Note_on_c, 0, 75, 64
1, 16128, Note_on_c, 0, 72, 64
1, 16272, Note_on_c, 1, 56, 64
1, 16292, Note_on_c, 1, 56, 0
1, 16320, Note_on_c, 1, 56, 65
1, 16340, Note_on_c, 1, 56, 0
1, 16368, Note_on_c, 1, 56, 66
1, 16388, Note_on_c, 1, 56, 0
1, 16416, Note_on_c, 1, 56, 67
1, 16505, Note_on_c, 1, 56, 0
1, 16512, Note_on_c, 1, 55, 69
1, 16593, Note_on_c, 0, 75, 0
1, 16593, Note_on_c, 0, 72, 0
1, 16601, Note_on_c, 1, 55, 0
1, 16608, Note_on_c, 0, 76, 75
1, 16608, Note_on_c, 0, 73, 75
1, 16608, Note_on_c, 0, 70, 75
1, 16608, Note_on_c, 1, 54, 71
1, 16697, Note_on_c, 0, 76, 0
1, 16697, Note_on_c, 0, 73, 0
1, 16697, Note_on_c, 0, 70, 0
1, 16697, Note_on_c, 1, 54, 0
1, 16704, Note_on_c, 0, 65, 77
1, 16704, Note_on_c, 1, 62, 73
1, 16704, Note_on_c, 1, 58, 73
1, 16704, Note_on_c, 1, 53, 73
1, 16716, Note_on_c, 0, 70, 77
1, 16728, Note_on_c, 0, 74, 77
1, 16740, Note_on_c, 0, 77, 77
1, 16845, Note_on_c, 0, 77, 0
1, 16845, Note_on_c, 0, 74, 0
1, 16845, Note_on_c, 0, 70, 0
1, 16845, Note_on_c, 0, 65, 0
1, 16848, Note_on_c, 0, 79, 80
1, 16871, Note_on_c, 0, 79, 0
1, 16872, Note_on_c, 0, 77, 80
1, 16895, Note_on_c, 0, 77, 0
1, 16896, Note_on_c, 0, 75, 80
1, 16919, Note_on_c, 0, 75, 0
1, 16920, Note_on_c, 0, 74, 80
1, 16943, Note_on_c, 0, 74, 0
1, 16944, Note_on_c, 0, 72, 80
1, 16967, Note_on_c, 0, 72, 0
1, 16968, Note_on_c, 0, 70, 80
1, 16969, Note_on_c, 1, 62, 0
1, 16969, Note_on_c, 1, 58, 0
1, 16969, Note_on_c, 1, 53, 0
1, 16991, Note_on_c, 0, 70, 0
1, 16992, Tempo, 500000
1, 16992, Note_on_c, 0, 69, 80
1, 16992, Note_on_c, 1, 63, 80
1, 16992, Note_on_c, 1, 60, 80
1, 16992, Note_on_c, 1, 53, 80
1, 17089, Note_on_c, 0, 69, 0
1, 17100, Note_on_c, 0, 74, 80
1, 17112, Note_on_c, 0, 74, 0
1, 17112, Note_on_c, 0, 72, 80
1, 17124, Note_on_c, 0, 72, 0
1, 17124, Note_on_c, 0, 71, 80
1, 17136, Note_on_c, 0, 71, 0
1, 17136, Note_on_c, 0, 72, 80
1, 17181, Note_on_c, 0, 72, 0
1, 17184, Note_on_c, 0, 75, 76
1, 17229, Note_on_c, 0, 75, 0
1, 17232, Note_on_c, 0, 69, 73
1, 17257, Note_on_c, 1, 63, 0
1, 17257, Note_on_c, 1, 60, 0
1, 17257, Note_on_c, 1, 53, 0
1, 17277, Note_on_c, 0, 69, 0
1, 17280, Tempo, 444444
1, 17280, Note_on_c, 0, 70, 70
1, 17280, Note_on_c, 1, 58, 64
1, 17325, Note_on_c, 0, 70, 0
1, 17328, Note_on_c, 0, 65, 67
1, 17328, Note_on_c, 1, 62, 64
1, 17373, Note_on_c, 0, 65, 0
1, 17373, Note_on_c, 1, 62, 0
1, 17376, Note_on_c, 0, 66, 64
1, 17376, Note_on_c, 1, 63, 64
1, 17421, Note_on_c, 0, 66, 0
1, 17421, Note_on_c, 1, 63, 0
1, 17424, Note_on_c, 0, 67, 64
1, 17424, Note_on_c, 1, 64, 64
1, 17469, Note_on_c, 0, 67, 0
1, 17469, Note_on_c, 1, 64, 0
1, 17472, Note_on_c, 0, 68, 64
1, 17472, Note_on_c, 1, 65, 64
1, 17517, Note_on_c, 0, 68, 0
1, 17517, Note_on_c, 1, 65, 0
1, 17520, Note_on_c, 0, 69, 64
1, 17520, Note_on_c, 1, 66, 64
1, 17565, Note_on_c, 0, 69, 0
1, 17565, Note_on_c, 1, 66, 0
1, 17568, Note_on_c, 0, 70, 64
1, 17568, Note_on_c, 1, 67, 64
1, 17613, Note_on_c, 0, 70, 0
1, 17613, Note_on_c, 1, 67, 0
1, 17616, Note_on_c, 0, 71, 64
1, 17616, Note_on_c, 1, 65, 64
1, 17661, Note_on_c, 0, 71, 0
1, 17661, Note_on_c, 1, 65, 0
1, 17664, Note_on_c, 0, 72, 64
1, 17664, Note_on_c, 1, 63, 64
1, 17709, Note_on_c, 0, 72, 0
1, 17709, Note_on_c, 1, 63, 0
1, 17712, Note_on_c, 0, 74, 64
1, 17712, Note_on_c, 1, 62, 64
1, 17757, Note_on_c, 0, 74, 0
1, 17757, Note_on_c, 1, 62, 0
1, 17760, Note_on_c, 0, 75, 64
1, 17760, Note_on_c, 1, 60, 64
1, 17805, Note_on_c, 0, 75, 0
1, 17805, Note_on_c, 1, 60, 0
1, 17808, Note_on_c, 0, 69, 64
1, 17808, Note_on_c, 1, 63, 64
1, 17833, Note_on_c, 1, 58, 0
1, 17853, Note_on_c, 0, 69, 0
1, 17853, Note_on_c, 1, 63, 0
1, 17856, Note_on_c, 0, 70, 64
1, 17856, Note_on_c, 1, 62, 64
1, 17856, Note_on_c, 1, 58, 64
1, 17876, Note_on_c, 0, 70, 0
1, 17901, Note_on_c, 1, 62, 0
1, 17901, Note_on_c, 1, 58, 0
1, 17904, Note_on_c, 0, 77, 80
1, 17904, Note_on_c, 0, 74, 80
1, 17949, Note_on_c, 0, 77, 0
1, 17949, Note_on_c, 0, 74, 0
1, 17952, Note_on_c, 0, 79, 80
1, 17952, Note_on_c, 0, 75, 80
1, 17997, Note_on_c, 0, 79, 0
1, 17997, Note_on_c, 0, 75, 0
1, 18000, Note_on_c, 0, 77, 80
1, 18000, Note_on_c, 0, 74, 80
1, 18045, Note_on_c, 0, 77, 0
1, 18045, Note_on_c, 0, 74, 0
1, 18048, Note_on_c, 0, 75, 80
1, 18048, Note_on_c, 0, 72, 80
1, 18093, Note_on_c, 0, 75, 0
1, 18093, Note_on_c, 0, 72, 0
1, 18096, Note_on_c, 0, 74, 80
1, 18096, Note_on_c, 0, 70, 80
1, 18141, Note_on_c, 0, 74, 0
1, 18141, Note_on_c, 0, 70, 0
1, 18144, Note_on_c, 0, 72, 80
1, 18144, Note_on_c, 0, 69, 80
1, 18144, Note_on_c, 1, 53, 80
1, 18144, Note_on_c, 1, 41, 80
1, 18164, Note_on_c, 1, 53, 0
1, 18164, Note_on_c, 1, 41, 0
1, 18192, Note_on_c, 1, 52, 80
1, 18192, Note_on_c, 1, 40, 80
1, 18212, Note_on_c, 1, 52, 0
1, 18212, Note_on_c, 1, 40, 0
1, 18233, Note_on_c, 0, 72, 0
1, 18233, Note_on_c, 0, 69, 0
1, 18240, Note_on_c, 1, 51, 80
1, 18240, Note_on_c, 1, 39, 80
1, 18260, Note_on_c, 1, 51, 0
1, 18260, Note_on_c, 1, 39, 0
1, 18288, Note_on_c, 1, 50, 80
1, 18288, Note_on_c, 1, 38, 80
1, 18308, Note_on_c, 1, 50, 0
1, 18308, Note_on_c, 1, 38, 0
1, 18336, Note_on_c, 0, 81, 80
1, 18336, Note_on_c, 0, 75, 80
1, 18336, Note_on_c, 0, 72, 80
1, 18336, Note_on_c, 1, 48, 80
1, 18336, Note_on_c, 1, 36, 80
1, 18356, Note_on_c, 1, 48, 0
1, 18356, Note_on_c, 1, 36, 0
1, 18375, Note_on_c, 0, 81, 0
1, 18375, Note_on_c, 0, 75, 0
1, 18375, Note_on_c, 0, 72, 0
1, 18384, Note_on_c, 1, 53, 80
1, 18384, Note_on_c, 1, 41, 80
1, 18404, Note_on_c, 1, 53, 0
1, 18404, Note_on_c, 1, 41, 0
1, 18432, Note_on_c, 0, 82, 80
1, 18432, Note_on_c, 0, 77, 80
1, 18432, Note_on_c, 0, 74, 80
1, 18432, Note_on_c, 1, 46, 80
1, 18432, Note_on_c, 1, 34, 80
1, 18521, Note_on_c, 0, 82, 0
1, 18521, Note_on_c, 0, 77, 0
1, 18521, Note_on_c, 0, 74, 0
1, 18521, Note_on_c, 1, 46, 0
1, 18521, Note_on_c, 1, 34, 0
1, 18624, Note_on_c, 0, 55, 75
1, 18648, Note_on_c, 0, 55, 0
1, 18648, Note_on_c, 0, 58, 75
1, 18671, Note_on_c, 0, 58, 0
1, 18672, Note_on_c, 0, 56, 75
1, 18696, Note_on_c, 0, 56, 0
1, 18696, Note_on_c, 0, 60, 75
1, 18719, Note_on_c, 0, 60, 0
1, 18720, Note_on_c, 0, 58, 75
1, 18720, Note_on_c, 1, 43, 75
1, 18720, Note_on_c, 1, 39, 75
1, 18740, Note_on_c, 0, 58, 0
1, 18765, Note_on_c, 1, 43, 0
1, 18765, Note_on_c, 1, 39, 0
1, 18816, Note_on_c, 1, 55, 75
1, 18816, Note_on_c, 1, 51, 75
1, 18836, Note_on_c, 1, 55, 0
1, 18836, Note_on_c, 1, 51, 0
1, 18912, Note_on_c, 0, 67, 75
1, 18936, Note_on_c, 0, 67, 0
1, 18936, Note_on_c, 0, 63, 75
1, 18959, Note_on_c, 0, 63, 0
1, 18960, Note_on_c, 0, 62, 75
1, 18984, Note_on_c, 0, 62, 0
1, 18984, Note_on_c, 0, 65, 75
1, 19007, Note_on_c, 0, 65, 0
1, 19008, Note_on_c, 0, 63, 75
1, 19008, Note_on_c, 1, 43, 75
1, 19008, Note_on_c, 1, 39, 75
1, 19028, Note_on_c, 0, 63, 0
1, 19053, Note_on_c, 1, 43, 0
1, 19053, Note_on_c, 1, 39, 0
1, 19104, Note_on_c, 1, 55, 75
1, 19104, Note_on_c, 1, 51, 75
1, 19124, Note_on_c, 1, 55, 0
1, 19124, Note_on_c, 1, 51, 0
1, 19152, Note_on_c, 0, 63, 75
1, 19172, Note_on_c, 0, 63, 0
1, 19200, Note_on_c, 0, 67, 75
1, 19220, Note_on_c, 0, 67, 0
1, 19248, Note_on_c, 0, 70, 75
1, 19268, Note_on_c, 0, 70, 0
1, 19296, Note_on_c, 0, 70, 87
1, 19296, Note_on_c, 1, 63, 87
1, 19296, Note_on_c, 1, 60, 87
1, 19392, Note_on_c, 0, 70, 0
1, 19392, Note_on_c, 0, 68, 75
1, 19429, Note_on_c, 1, 63, 0
1, 19429, Note_on_c, 1, 60, 0
1, 19437, Note_on_c, 0, 68, 0
1, 19440, Note_on_c, 0, 67, 75
1, 19440, Note_on_c, 1, 62, 75
1, 19440, Note_on_c, 1, 58, 75
1, 19485, Note_on_c, 0, 67, 0
1, 19485, Note_on_c, 1, 62, 0
1, 19485, Note_on_c, 1, 58, 0
1, 19488, Note_on_c, 0, 65, 75
1, 19488, Note_on_c, 1, 60, 75
1, 19488, Note_on_c, 1, 56, 75
1, 19533, Note_on_c, 0, 65, 0
1, 19533, Note_on_c, 1, 60, 0
1, 19533, Note_on_c, 1, 56, 0
1, 19536, Note_on_c, 0, 63, 75
1, 19536, Note_on_c, 1, 58, 75
1, 19536, Note_on_c, 1, 55, 75
1, 19581, Note_on_c, 0, 63, 0
1, 19581, Note_on_c, 1, 58, 0
1, 19581, Note_on_c, 1, 55, 0
1, 19584, Note_on_c, 0, 62, 75
1, 19584, Note_on_c, 1, 56, 75
1, 19584, Note_on_c, 1, 53, 75
1, 19656, Note_on_c, 0, 62, 0
1, 19656, Note_on_c, 0, 65, 75
1, 19673, Note_on_c, 1, 56, 0
1, 19673, Note_on_c, 1, 53, 0
1, 19679, Note_on_c, 0, 65, 0
1, 19680, Note_on_c, 0, 68, 75
1, 19700, Note_on_c, 0, 68, 0
1, 19776, Note_on_c, 0, 58, 75
1, 19800, Note_on_c, 0, 58, 0
1, 19800, Note_on_c, 0, 62, 75
1, 19823, Note_on_c, 0, 62, 0
1, 19824, Note_on_c, 0, 60, 75
1, 19848, Note_on_c, 0, 60, 0
1, 19848, Note_on_c, 0, 63, 75
1, 19871, Note_on_c, 0, 63, 0
1, 19872, Note_on_c, 0, 62, 75
1, 19872, Note_on_c, 1, 38, 75
1, 19872, Note_on_c, 1, 34, 75
1, 19892, Note_on_c, 0, 62, 0
1, 19917, Note_on_c, 1, 38, 0
1, 19917, Note_on_c, 1, 34, 0
1, 19968, Note_on_c, 1, 50, 75
1, 19968, Note_on_c, 1, 46, 75
1, 19988, Note_on_c, 1, 50, 0
1, 19988, Note_on_c, 1, 46, 0
1, 20064, Note_on_c, 0, 62, 75
1, 20088, Note_on_c, 0, 62, 0
1, 20088, Note_on_c, 0, 65, 75
1, 20111, Note_on_c, 0, 65, 0
1, 20112, Note_on_c, 0, 63, 75
1, 20136, Note_on_c, 0, 63, 0
1, 20136, Note_on_c, 0, 67, 75
1, 20159, Note_on_c, 0, 67, 0
1, 20160, Note_on_c, 0, 65, 75
1, 20160, Note_on_c, 1, 38, 75
1, 20160, Note_on_c, 1, 34, 75
1, 20180, Note_on_c, 0, 65, 0
1, 20205, Note_on_c, 1, 38, 0
1, 20205, Note_on_c, 1, 34, 0
1, 20256, Note_on_c, 1, 50, 75
1, 20256, Note_on_c, 1, 46, 75
1, 20276, Note_on_c, 1, 50, 0
1, 20276, Note_on_c, 1, 46, 0
1, 20304, Note_on_c, 0, 65, 75
1, 20324, Note_on_c, 0, 65, 0
1, 20352, Note_on_c, 0, 68, 75
1, 20372, Note_on_c, 0, 68, 0
1, 20400, Note_on_c, 0, 72, 75
1, 20420, Note_on_c, 0, 72, 0
1, 20448, Note_on_c, 0, 72, 87
1, 20448, Note_on_c, 1, 65, 87
1, 20448, Note_on_c, 1, 62, 87
1, 20544, Note_on_c, 0, 72, 0
1, 20544, Note_on_c, 0, 70, 75
1, 20581, Note_on_c, 1, 65, 0
1, 20581, Note_on_c, 1, 62, 0
1, 20589, Note_on_c, 0, 70, 0
1, 20592, Note_on_c, 0, 68, 75
1, 20592, Note_on_c, 1, 63, 75
1, 20592, Note_on_c, 1, 60, 75
1, 20637, Note_on_c, 0, 68, 0
1, 20637, Note_on_c, 1, 63, 0
1, 20637, Note_on_c, 1, 60, 0
1, 20640, Note_on_c, 0, 67, 75
1, 20640, Note_on_c, 1, 62, 75
1, 20640, Note_on_c, 1, 58, 75
1, 20685, Note_on_c, 0, 67, 0
1, 20685, Note_on_c, 1, 62, 0
1, 20685, Note_on_c, 1, 58, 0
1, 20688, Note_on_c, 0, 65, 75
1, 20688, Note_on_c, 1, 60, 75
1, 20688, Note_on_c, 1, 56, 75
1, 20733, Note_on_c, 0, 65, 0
1, 20733, Note_on_c, 1, 60, 0
1, 20733, Note_on_c, 1, 56, 0
1, 20736, Note_on_c, 0, 63, 75
1, 20736, Note_on_c, 1, 58, 75
1, 20736, Note_on_c, 1, 55, 75
1, 20748, Note_on_c, 0, 63, 0
1, 20748, Note_on_c, 0, 65, 75
1, 20760, Note_on_c, 0, 65, 0
1, 20760, Note_on_c, 0, 63, 75
1, 20772, Note_on_c, 0, 63, 0
1, 20772, Note_on_c, 0, 62, 75
1, 20784, Note_on_c, 0, 62, 0
1, 20784, Note_on_c, 0, 63, 75
1, 20808, Note_on_c, 0, 63, 0
1, 20808, Note_on_c, 0, 67, 75
1, 20825, Note_on_c, 1, 58, 0
1, 20825, Note_on_c, 1, 55, 0
1, 20831, Note_on_c, 0, 67, 0
1, 20832, Note_on_c, 0, 70, 75
1, 20852, Note_on_c, 0, 70, 0
1, 20928, Note_on_c, 0, 75, 75
1, 20952, Note_on_c, 0, 75, 0
1, 20952, Note_on_c, 0, 74, 75
1, 20975, Note_on_c, 0, 74, 0
1, 20976, Note_on_c, 0, 77, 75
1, 21000, Note_on_c, 0, 77, 0
1, 21000, Note_on_c, 0, 75, 75
1, 21023, Note_on_c, 0, 75, 0
1, 21024, Note_on_c, 0, 79, 75
1, 21024, Note_on_c, 1, 51, 75
1, 21024, Note_on_c, 1, 46, 75
1, 21024, Note_on_c, 1, 43, 75
1, 21047, Note_on_c, 0, 79, 0
1, 21048, Note_on_c, 0, 77, 75
1, 21071, Note_on_c, 0, 77, 0
1, 21072, Note_on_c, 0, 80, 76
1, 21095, Note_on_c, 0, 80, 0
1, 21096, Note_on_c, 0, 79, 77
1, 21119, Note_on_c, 0, 79, 0
1, 21120, Note_on_c, 0, 82, 78
1, 21143, Note_on_c, 0, 82, 0
1, 21144, Note_on_c, 0, 80, 79
1, 21167, Note_on_c, 0, 80, 0
1, 21168, Note_on_c, 0, 79, 80
1, 21191, Note_on_c, 0, 79, 0
1, 21192, Note_on_c, 0, 77, 79
1, 21215, Note_on_c, 0, 77, 0
1, 21216, Note_on_c, 0, 75, 78
1, 21239, Note_on_c, 0, 75, 0
1, 21240, Note_on_c, 0, 74, 77
1, 21263, Note_on_c, 0, 74, 0
1, 21264, Note_on_c, 0, 72, 76
1, 21287, Note_on_c, 0, 72, 0
1, 21288, Note_on_c, 0, 71, 75
1, 21289, Note_on_c, 1, 51, 0
1, 21289, Note_on_c, 1, 46, 0
1, 21289, Note_on_c, 1, 43, 0
1, 21311, Note_on_c, 0, 71, 0
1, 21312, Note_on_c, 0, 71, 75
1, 21312, Note_on_c, 1, 51, 75
1, 21312, Note_on_c, 1, 44, 75
1, 21408, Note_on_c, 0, 71, 0
1, 21408, Note_on_c, 0, 72, 77
1, 21428, Note_on_c, 0, 72, 0
1, 21445, Note_on_c, 1, 51, 0
1, 21445, Note_on_c, 1, 44, 0
1, 21456, Note_on_c, 0, 74, 78
1, 21462, Note_on_c, 0, 74, 0
1, 21462, Note_on_c, 0, 72, 78
1, 21468, Note_on_c, 0, 72, 0
1, 21468, Note_on_c, 0, 71, 78
1, 21474, Note_on_c, 0, 71, 0
1, 21474, Note_on_c, 0, 72, 78
1, 21501, Note_on_c, 0, 72, 0
1, 21504, Note_on_c, 0, 74, 79
1, 21549, Note_on_c, 0, 74, 0
1, 21552, Note_on_c, 0, 75, 80
1, 21597, Note_on_c, 0, 75, 0
1, 21600, Note_on_c, 0, 75, 80
1, 21648, Note_on_c, 0, 75, 0
1, 21648, Note_on_c, 0, 65, 79
1, 21693, Note_on_c, 0, 65, 0
1, 21696, Note_on_c, 0, 72, 78
1, 21744, Note_on_c, 0, 72, 0
1, 21744, Note_on_c, 0, 60, 77
1, 21789, Note_on_c, 0, 60, 0
1, 21792, Note_on_c, 0, 68, 77
1, 21792, Note_on_c, 1, 53, 75
1, 21792, Note_on_c, 1, 46, 75
1, 21840, Note_on_c, 0, 68, 0
1, 21840, Note_on_c, 0, 62, 76
1, 21881, Note_on_c, 1, 53, 0
1, 21881, Note_on_c, 1, 46, 0
1, 21885, Note_on_c, 0, 62, 0
1, 21888, Note_on_c, 0, 63, 75
1, 21908, Note_on_c, 0, 63, 0
1, 21936, Note_on_c, 1, 51, 75
1, 21981, Note_on_c, 1, 51, 0
1, 21984, Note_on_c, 1, 46, 75
1, 22029, Note_on_c, 1, 46, 0
1, 22032, Note_on_c, 1, 43, 75
1, 22077, Note_on_c, 1, 43, 0
1, 22080, Note_on_c, 1, 39, 75
1, 22100, Note_on_c, 1, 39, 0
1, 22128, Note_on_c, 0, 58, 75
1, 22148, Note_on_c, 0, 58, 0
1, 22176, Note_on_c, 0, 63, 75
1, 22224, Note_on_c, 1, 51, 70
1, 22269, Note_on_c, 1, 51, 0
1, 22272, Note_on_c, 1, 55, 70
1, 22317, Note_on_c, 1, 55, 0
1, 22320, Note_on_c, 1, 51, 70
1, 22365, Note_on_c, 1, 51, 0
1, 22368, Note_on_c, 1, 56, 70
1, 22413, Note_on_c, 0, 63, 0
1, 22413, Note_on_c, 1, 56, 0
1, 22416, Note_on_c, 0, 62, 75
1, 22416, Note_on_c, 1, 46, 70
1, 22436, Note_on_c, 0, 62, 0
1, 22461, Note_on_c, 1, 46, 0
1, 22464, Note_on_c, 0, 68, 75
1, 22512, Note_on_c, 1, 46, 70
1, 22557, Note_on_c, 1, 46, 0
1, 22560, Note_on_c, 1, 50, 70
1, 22605, Note_on_c, 1, 50, 0
1, 22608, Note_on_c, 1, 46, 70
1, 22653, Note_on_c, 1, 46, 0
1, 22656, Note_on_c, 1, 51, 70
1, 22701, Note_on_c, 0, 68, 0
1, 22701, Note_on_c, 1, 51, 0
1, 22704, Note_on_c, 0, 67, 75
1, 22704, Note_on_c, 1, 39, 70
1, 22724, Note_on_c, 0, 67, 0
1, 22749, Note_on_c, 1, 39, 0
1, 22752, Note_on_c, 0, 75, 75
1, 22752, Note_on_c, 0, 67, 64
1, 22800, Note_on_c, 1, 51, 70
1, 22845, Note_on_c, 1, 51, 0
1, 22848, Note_on_c, 1, 55, 70
1, 22893, Note_on_c, 1, 55, 0
1, 22896, Note_on_c, 1, 51, 70
1, 22929, Note_on_c, 0, 67, 0
1, 22941, Note_on_c, 1, 51, 0
1, 22944, Note_on_c, 0, 65, 64
1, 22944, Note_on_c, 1, 56, 70
1, 22989, Note_on_c, 0, 75, 0
1, 22989, Note_on_c, 1, 56, 0
1, 22992, Note_on_c, 0, 74, 75
1, 22992, Note_on_c, 1, 46, 70
1, 23012, Note_on_c, 0, 74, 0
1, 23037, Note_on_c, 1, 46, 0
1, 23038, Note_on_c, 0, 65, 0
1, 23040, Note_on_c, 0, 80, 75
1, 23040, Note_on_c, 0, 77, 64
1, 23088, Note_on_c, 1, 58, 70
1, 23133, Note_on_c, 1, 58, 0
1, 23136, Note_on_c, 1, 62, 70
1, 23181, Note_on_c, 1, 62, 0
1, 23184, Note_on_c, 1, 58, 70
1, 23229, Note_on_c, 1, 58, 0
1, 23232, Note_on_c, 1, 63, 70
1, 23277, Note_on_c, 0, 80, 0
1, 23277, Note_on_c, 0, 77, 0
1, 23277, Note_on_c, 1, 63, 0
1, 23280, Note_on_c, 0, 79, 75
1, 23280, Note_on_c, 0, 79, 64
1, 23280, Note_on_c, 1, 51, 70
1, 23300, Note_on_c, 0, 79, 0
1, 23325, Note_on_c, 0, 79, 0
1, 23325, Note_on_c, 1, 51, 0
1, 23328, Note_on_c, 0, 84, 75
1, 23376, Note_on_c, 1, 63, 70
1, 23421, Note_on_c, 1, 63, 0
1, 23424, Note_on_c, 1, 67, 70
1, 23469, Note_on_c, 1, 67, 0
1, 23472, Note_on_c, 1, 63, 70
1, 23517, Note_on_c, 1, 63, 0
1, 23520, Note_on_c, 1, 62, 70
1, 23565, Note_on_c, 0, 84, 0
1, 23565, Note_on_c, 1, 62, 0
1, 23568, Note_on_c, 0, 83, 75
1, 23568, Note_on_c, 1, 65, 70
1, 23588, Note_on_c, 0, 83, 0
1, 23613, Note_on_c, 1, 65, 0
1, 23616, Note_on_c, 0, 86, 75
1, 23616, Note_on_c, 0, 77, 75
1, 23664, Note_on_c, 1, 55, 70
1, 23709, Note_on_c, 1, 55, 0
1, 23712, Note_on_c, 1, 59, 70
1, 23757, Note_on_c, 1, 59, 0
1, 23760, Note_on_c, 1, 55, 70
1, 23805, Note_on_c, 1, 55, 0
1, 23808, Note_on_c, 1, 60, 70
1, 23853, Note_on_c, 0, 86, 0
1, 23853, Note_on_c, 0, 77, 0
1, 23853, Note_on_c, 1, 60, 0
1, 23856, Note_on_c, 0, 84, 75
1, 23856, Note_on_c, 0, 75, 75
1, 23856, Note_on_c, 1, 48, 70
1, 23876, Note_on_c, 0, 84, 0
1, 23876, Note_on_c, 0, 75, 0
1, 23901, Note_on_c, 1, 48, 0
1, 23904, Note_on_c, 0, 87, 75
1, 23904, Note_on_c, 0, 79, 75
1, 23952, Note_on_c, 1, 59, 71
1, 23952, Note_on_c, 1, 47, 71
1, 23997, Note_on_c, 1, 59, 0
1, 23997, Note_on_c, 1, 47, 0
1, 24000, Note_on_c, 1, 60, 72
1, 24000, Note_on_c, 1, 48, 72
1, 24037, Note_on_c, 0, 87, 0
1, 24037, Note_on_c, 0, 79, 0
1, 24045, Note_on_c, 1, 60, 0
1, 24045, Note_on_c, 1, 48, 0
1, 24048, Note_on_c, 0, 86, 76
1, 24048, Note_on_c, 0, 77, 76
1, 24048, Note_on_c, 1, 62, 73
1, 24048, Note_on_c, 1, 50, 73
1, 24093, Note_on_c, 0, 86, 0
1, 24093, Note_on_c, 0, 77, 0
1, 24093, Note_on_c, 1, 62, 0
1, 24093, Note_on_c, 1, 50, 0
1, 24096, Note_on_c, 0, 84, 77
1, 24096, Note_on_c, 0, 75, 77
1, 24096, Note_on_c, 1, 63, 74
1, 24096, Note_on_c, 1, 51, 74
1, 24141, Note_on_c, 0, 84, 0
1, 24141, Note_on_c, 0, 75, 0
1, 24141, Note_on_c, 1, 63, 0
1, 24141, Note_on_c, 1, 51, 0
1, 24144, Note_on_c, 0, 82, 78
1, 24144, Note_on_c, 0, 74, 78
1, 24144, Note_on_c, 1, 64, 75
1, 24144, Note_on_c, 1, 52, 75
1, 24189, Note_on_c, 0, 82, 0
1, 24189, Note_on_c, 0, 74, 0
1, 24189, Note_on_c, 1, 64, 0
1, 24189, Note_on_c, 1, 52, 0
1, 24192, Note_on_c, 0, 82, 78
1, 24192, Note_on_c, 0, 74, 78
1, 24192, Note_on_c, 1, 65, 76
1, 24192, Note_on_c, 1, 53, 76
1, 24288, Note_on_c, 0, 82, 0
1, 24288, Note_on_c, 0, 74, 0
1, 24288, Note_on_c, 0, 81, 80
1, 24288, Note_on_c, 0, 72, 80
1, 24308, Note_on_c, 0, 81, 0
1, 24308, Note_on_c, 0, 72, 0
1, 24325, Note_on_c, 1, 65, 0
1, 24325, Note_on_c, 1, 53, 0
1, 24336, Note_on_c, 0, 79, 92
1, 24336, Note_on_c, 0, 72, 76
1, 24336, Note_on_c, 1, 70, 92
1, 24381, Note_on_c, 0, 79, 0
1, 24381, Note_on_c, 1, 70, 0
1, 24384, Note_on_c, 0, 77, 80
1, 24384, Note_on_c, 1, 69, 80
1, 24429, Note_on_c, 0, 77, 0
1, 24429, Note_on_c, 1, 69, 0
1, 24432, Note_on_c, 0, 76, 72
1, 24432, Note_on_c, 1, 67, 72
1, 24477, Note_on_c, 0, 76, 0
1, 24477, Note_on_c, 1, 67, 0
1, 24480, Note_on_c, 0, 76, 64
1, 24480, Note_on_c, 1, 67, 64
1, 24576, Note_on_c, 0, 76, 0
1, 24576, Note_on_c, 0, 77, 64
1, 24576, Note_on_c, 1, 67, 0
1, 24576, Note_on_c, 1, 69, 64
1, 24596, Note_on_c, 0, 77, 0
1, 24596, Note_on_c, 1, 69, 0
1, 24613, Note_on_c, 0, 72, 0
1, 24624, Note_on_c, 0, 79, 76
1, 24624, Note_on_c, 0, 72, 76
1, 24624, Note_on_c, 1, 70, 76
1, 24669, Note_on_c, 0, 79, 0
1, 24669, Note_on_c, 1, 70, 0
1, 24672, Note_on_c, 0, 77, 64
1, 24672, Note_on_c, 1, 69, 64
1, 24717, Note_on_c, 0, 77, 0
1, 24717, Note_on_c, 1, 69, 0
1, 24720, Note_on_c, 0, 76, 64
1, 24720, Note_on_c, 1, 67, 64
1, 24765, Note_on_c, 0, 76, 0
1, 24765, Note_on_c, 1, 67, 0
1, 24768, Note_on_c, 0, 76, 64
1, 24768, Note_on_c, 1, 67, 64
1, 24864, Note_on_c, 0, 76, 0
1, 24864, Note_on_c, 0, 77, 64
1, 24864, Note_on_c, 1, 67, 0
1, 24864, Note_on_c, 1, 69, 64
1, 24884, Note_on_c, 0, 77, 0
1, 24884, Note_on_c, 1, 69, 0
1, 24901, Note_on_c, 0, 72, 0
1, 24912, Note_on_c, 0, 79, 76
1, 24912, Note_on_c, 0, 73, 76
1, 24912, Note_on_c, 1, 70, 76
1, 24957, Note_on_c, 0, 79, 0
1, 24957, Note_on_c, 0, 73, 0
1, 24957, Note_on_c, 1, 70, 0
1, 24960, Note_on_c, 0, 77, 64
1, 24960, Note_on_c, 0, 72, 64
1, 24960, Note_on_c, 1, 69, 64
1, 25005, Note_on_c, 0, 77, 0
1, 25005, Note_on_c, 0, 72, 0
1, 25005, Note_on_c, 1, 69, 0
1, 25008, Note_on_c, 0, 76, 64
1, 25008, Note_on_c, 0, 70, 64
1, 25008, Note_on_c, 1, 67, 64
1, 25053, Note_on_c, 0, 76, 0
1, 25053, Note_on_c, 0, 70, 0
1, 25053, Note_on_c, 1, 67, 0
1, 25056, Note_on_c, 0, 76, 64
1, 25056, Note_on_c, 0, 70, 64
1, 25056, Note_on_c, 1, 67, 64
1, 25248, Note_on_c, 1, 67, 0
1, 25248, Note_on_c, 1, 66, 64
1, 25321, Note_on_c, 0, 76, 0
1, 25321, Note_on_c, 0, 70, 0
1, 25337, Note_on_c, 1, 66, 0
1, 25344, Tempo, 1000000
1, 25344, Note_on_c, 0, 75, 64
1, 25344, Note_on_c, 0, 69, 64
1, 25344, Note_on_c, 1, 65, 64
1, 25521, Note_on_c, 0, 75, 0
1, 25521, Note_on_c, 0, 69, 0
1, 25521, Note_on_c, 1, 65, 0
1, 25536, Tempo, 444444
1, 25536, Note_on_c, 0, 62, 75
1, 25560, Note_on_c, 0, 62, 0
1, 25560, Note_on_c, 0, 65, 75
1, 25583, Note_on_c, 0, 65, 0
1, 25584, Note_on_c, 0, 63, 75
1, 25608, Note_on_c, 0, 63, 0
1, 25608, Note_on_c, 0, 67, 75
1, 25631, Note_on_c, 0, 67, 0
1, 25632, Note_on_c, 0, 65, 75
1, 25632, Note_on_c, 1, 50, 75
1, 25632, Note_on_c, 1, 46, 75
1, 25652, Note_on_c, 0, 65, 0
1, 25677, Note_on_c, 1, 50, 0
1, 25677, Note_on_c, 1, 46, 0
1, 25728, Note_on_c, 1, 62, 75
1, 25728, Note_on_c, 1, 58, 75
1, 25748, Note_on_c, 1, 62, 0
1, 25748, Note_on_c, 1, 58, 0
1, 25776, Note_on_c, 0, 79, 75
1, 25799, Note_on_c, 0, 79, 0
1, 25800, Note_on_c, 0, 77, 75
1, 25823, Note_on_c, 0, 77, 0
1, 25824, Note_on_c, 0, 75, 75
1, 25847, Note_on_c, 0, 75, 0
1, 25848, Note_on_c, 0, 74, 75
1, 25871, Note_on_c, 0, 74, 0
1, 25872, Note_on_c, 0, 72, 75
1, 25895, Note_on_c, 0, 72, 0
1, 25896, Note_on_c, 0, 70, 75
1, 25919, Note_on_c, 0, 70, 0
1, 25920, Note_on_c, 0, 69, 75
1, 25920, Note_on_c, 1, 45, 75
1, 25920, Note_on_c, 1, 41, 75
1, 25940, Note_on_c, 0, 69, 0
1, 25965, Note_on_c, 1, 45, 0
1, 25965, Note_on_c, 1, 41, 0
1, 26016, Note_on_c, 1, 57, 75
1, 26016, Note_on_c, 1, 53, 75
1, 26036, Note_on_c, 1, 57, 0
1, 26036, Note_on_c, 1, 53, 0
1, 26112, Note_on_c, 0, 72, 75
1, 26136, Note_on_c, 0, 72, 0
1, 26136, Note_on_c, 0, 75, 75
1, 26159, Note_on_c, 0, 75, 0
1, 26160, Note_on_c, 0, 74, 75
1, 26184, Note_on_c, 0, 74, 0
1, 26184, Note_on_c, 0, 77, 75
1, 26207, Note_on_c, 0, 77, 0
1, 26208, Note_on_c, 0, 75, 75
1, 26208, Note_on_c, 1, 45, 75
1, 26208, Note_on_c, 1, 41, 75
1, 26228, Note_on_c, 0, 75, 0
1, 26253, Note_on_c, 1, 45, 0
1, 26253, Note_on_c, 1, 41, 0
1, 26304, Note_on_c, 1, 57, 75
1, 26304, Note_on_c, 1, 53, 75
1, 26324, Note_on_c, 1, 57, 0
1, 26324, Note_on_c, 1, 53, 0
1, 26352, Note_on_c, 0, 84, 75
1, 26375, Note_on_c, 0, 84, 0
1, 26376, Note_on_c, 0, 82, 75
1, 26399, Note_on_c, 0, 82, 0
1, 26400, Note_on_c, 0, 81, 75
1, 26423, Note_on_c, 0, 81, 0
1, 26424, Note_on_c, 0, 79, 75
1, 26447, Note_on_c, 0, 79, 0
1, 26448, Note_on_c, 0, 77, 75
1, 26471, Note_on_c, 0, 77, 0
1, 26472, Note_on_c, 0, 75, 75
1, 26495, Note_on_c, 0, 75, 0
1, 26496, Note_on_c, 0, 74, 75
1, 26496, Note_on_c, 1, 58, 64
1, 26516, Note_on_c, 0, 74, 0
1, 26519, Note_on_c, 1, 58, 0
1, 26520, Note_on_c, 1, 65, 64
1, 26543, Note_on_c, 1, 65, 0
1, 26544, Note_on_c, 1, 62, 64
1, 26567, Note_on_c, 1, 62, 0
1, 26568, Note_on_c, 1, 65, 64
1, 26591, Note_on_c, 1, 65, 0
1, 26592, Note_on_c, 0, 70, 80
1, 26592, Note_on_c, 1, 58, 64
1, 26615, Note_on_c, 0, 70, 0
1, 26615, Note_on_c, 1, 58, 0
1, 26616, Note_on_c, 0, 72, 80
1, 26616, Note_on_c, 1, 65, 64
1, 26639, Note_on_c, 0, 72, 0
1, 26639, Note_on_c, 1, 65, 0
1, 26640, Note_on_c, 0, 74, 81
1, 26640, Note_on_c, 1, 62, 64
1, 26663, Note_on_c, 0, 74, 0
1, 26663, Note_on_c, 1, 62, 0
1, 26664, Note_on_c, 0, 75, 82
1, 26664, Note_on_c, 1, 65, 64
1, 26687, Note_on_c, 0, 75, 0
1, 26687, Note_on_c, 1, 65, 0
1, 26688, Note_on_c, 0, 77, 83
1, 26688, Note_on_c, 1, 58, 64
1, 26711, Note_on_c, 0, 77, 0
1, 26711, Note_on_c, 1, 58, 0
1, 26712, Note_on_c, 0, 79, 83
1, 26712, Note_on_c, 1, 65, 64
1, 26735, Note_on_c, 0, 79, 0
1, 26735, Note_on_c, 1, 65, 0
1, 26736, Note_on_c, 0, 81, 84
1, 26736, Note_on_c, 1, 62, 64
1, 26759, Note_on_c, 0, 81, 0
1, 26759, Note_on_c, 1, 62, 0
1, 26760, Note_on_c, 0, 82, 85
1, 26760, Note_on_c, 1, 65, 64
1, 26783, Note_on_c, 0, 82, 0
1, 26783, Note_on_c, 1, 65, 0
1, 26784, Note_on_c, 0, 82, 102
1, 26784, Note_on_c, 1, 60, 64
1, 26807, Note_on_c, 1, 60, 0
1, 26808, Note_on_c, 1, 65, 64
1, 26831, Note_on_c, 1, 65, 0
1, 26832, Note_on_c, 1, 63, 64
1, 26855, Note_on_c, 1, 63, 0
1, 26856, Note_on_c, 1, 65, 64
1, 26879, Note_on_c, 1, 65, 0
1, 26880, Note_on_c, 0, 82, 0
1, 26880, Note_on_c, 0, 81, 83
1, 26880, Note_on_c, 1, 60, 64
1, 26903, Note_on_c, 1, 60, 0
1, 26904, Note_on_c, 1, 65, 64
1, 26925, Note_on_c, 0, 81, 0
1, 26927, Note_on_c, 1, 65, 0
1, 26928, Note_on_c, 0, 79, 82
1, 26928, Note_on_c, 1, 58, 64
1, 26951, Note_on_c, 1, 58, 0
1, 26952, Note_on_c, 1, 65, 64
1, 26973, Note_on_c, 0, 79, 0
1, 26975, Note_on_c, 1, 65, 0
1, 26976, Note_on_c, 0, 77, 81
1, 26976, Note_on_c, 1, 57, 64
1, 26999, Note_on_c, 1, 57, 0
1, 27000, Note_on_c, 1, 65, 64
1, 27021, Note_on_c, 0, 77, 0
1, 27023, Note_on_c, 1, 65, 0
1, 27024, Note_on_c, 0, 75, 80
1, 27024, Note_on_c, 1, 60, 64
1, 27047, Note_on_c, 1, 60, 0
1, 27048, Note_on_c, 1, 65, 64
1, 27069, Note_on_c, 0, 75, 0
1, 27071, Note_on_c, 1, 65, 0
1, 27072, Note_on_c, 0, 73, 80
1, 27072, Note_on_c, 1, 58, 64
1, 27095, Note_on_c, 1, 58, 0
1, 27096, Note_on_c, 1, 65, 64
1, 27119, Note_on_c, 1, 65, 0
1, 27120, Note_on_c, 0, 73, 0
1, 27120, Note_on_c, 0, 74, 80
1, 27120, Note_on_c, 1, 62, 64
1, 27143, Note_on_c, 1, 62, 0
1, 27144, Note_on_c, 1, 65, 64
1, 27165, Note_on_c, 0, 74, 0
1, 27167, Note_on_c, 1, 65, 0
1, 27168, Note_on_c, 0, 70, 80
1, 27168, Note_on_c, 1, 58, 64
1, 27191, Note_on_c, 0, 70, 0
1, 27191, Note_on_c, 1, 58, 0
1, 27192, Note_on_c, 0, 72, 80
1, 27192, Note_on_c, 1, 65, 64
1, 27215, Note_on_c, 0, 72, 0
1, 27215, Note_on_c, 1, 65, 0
1, 27216, Note_on_c, 0, 74, 81
1, 27216, Note_on_c, 1, 62, 64
1, 27239, Note_on_c, 0, 74, 0
1, 27239, Note_on_c, 1, 62, 0
1, 27240, Note_on_c, 0, 75, 82
1, 27240, Note_on_c, 1, 65, 64
1, 27263, Note_on_c, 0, 75, 0
1, 27263, Note_on_c, 1, 65, 0
1, 27264, Note_on_c, 0, 77, 83
1, 27264, Note_on_c, 1, 58, 64
1, 27287, Note_on_c, 0, 77, 0
1, 27287, Note_on_c, 1, 58, 0
1, 27288, Note_on_c, 0, 79, 83
1, 27288, Note_on_c, 1, 65, 64
1, 27311, Note_on_c, 0, 79, 0
1, 27311, Note_on_c, 1, 65, 0
1, 27312, Note_on_c, 0, 81, 84
1, 27312, Note_on_c, 1, 62, 64
1, 27335, Note_on_c, 0, 81, 0
1, 27335, Note_on_c, 1, 62, 0
1, 27336, Note_on_c, 0, 82, 85
1, 27336, Note_on_c, 1, 65, 64
1, 27346, Note_on_c, 0, 82, 0
1, 27359, Note_on_c, 1, 65, 0
1, 27360, Note_on_c, 0, 82, 102
1, 27360, Note_on_c, 1, 60, 64
1, 27383, Note_on_c, 1, 60, 0
1, 27384, Note_on_c, 1, 65, 64
1, 27407, Note_on_c, 1, 65, 0
1, 27408, Note_on_c, 1, 63, 64
1, 27431, Note_on_c, 1, 63, 0
1, 27432, Note_on_c, 1, 65, 64
1, 27455, Note_on_c, 1, 65, 0
1, 27456, Note_on_c, 0, 82, 0
1, 27456, Note_on_c, 0, 81, 84
1, 27456, Note_on_c, 1, 60, 64
1, 27479, Note_on_c, 1, 60, 0
1, 27480, Note_on_c, 1, 65, 64
1, 27501, Note_on_c, 0, 81, 0
1, 27503, Note_on_c, 1, 65, 0
1, 27504, Note_on_c, 0, 79, 83
1, 27504, Note_on_c, 1, 58, 64
1, 27527, Note_on_c, 1, 58, 0
1, 27528, Note_on_c, 1, 65, 64
1, 27549, Note_on_c, 0, 79, 0
1, 27551, Note_on_c, 1, 65, 0
1, 27552, Note_on_c, 0, 77, 82
1, 27552, Note_on_c, 1, 57, 64
1, 27575, Note_on_c, 1, 57, 0
1, 27576, Note_on_c, 1, 65, 64
1, 27597, Note_on_c, 0, 77, 0
1, 27599, Note_on_c, 1, 65, 0
1, 27600, Note_on_c, 0, 75, 81
1, 27600, Note_on_c, 1, 60, 64
1, 27623, Note_on_c, 1, 60, 0
1, 27624, Note_on_c, 1, 65, 64
1, 27645, Note_on_c, 0, 75, 0
1, 27647, Note_on_c, 1, 65, 0
1, 27648, Note_on_c, 0, 73, 80
1, 27648, Note_on_c, 1, 58, 64
1, 27671, Note_on_c, 1, 58, 0
1, 27672, Note_on_c, 1, 65, 64
1, 27695, Note_on_c, 1, 65, 0
1, 27696, Note_on_c, 0, 73, 0
1, 27696, Note_on_c, 0, 74, 80
1, 27696, Note_on_c, 1, 62, 64
1, 27719, Note_on_c, 1, 62, 0
1, 27720, Note_on_c, 1, 65, 64
1, 27741, Note_on_c, 0, 74, 0
1, 27743, Note_on_c, 1, 65, 0
1, 27744, Note_on_c, 0, 70, 80
1, 27744, Note_on_c, 1, 58, 64
1, 27767, Note_on_c, 0, 70, 0
1, 27767, Note_on_c, 1, 58, 0
1, 27768, Note_on_c, 0, 72, 80
1, 27768, Note_on_c, 1, 65, 64
1, 27791, Note_on_c, 0, 72, 0
1, 27791, Note_on_c, 1, 65, 0
1, 27792, Note_on_c, 0, 74, 81
1, 27792, Note_on_c, 1, 62, 64
1, 27815, Note_on_c, 0, 74, 0
1, 27815, Note_on_c, 1, 62, 0
1, 27816, Note_on_c, 0, 75, 82
1, 27816, Note_on_c, 1, 65, 64
1, 27839, Note_on_c, 0, 75, 0
1, 27839, Note_on_c, 1, 65, 0
1, 27840, Note_on_c, 0, 77, 83
1, 27840, Note_on_c, 1, 58, 64
1, 27863, Note_on_c, 0, 77, 0
1, 27863, Note_on_c, 1, 58, 0
1, 27864, Note_on_c, 0, 79, 83
1, 27864, Note_on_c, 1, 65, 64
1, 27887, Note_on_c, 0, 79, 0
1, 27887, Note_on_c, 1, 65, 0
1, 27888, Note_on_c, 0, 80, 84
1, 27888, Note_on_c, 1, 62, 64
1, 27911, Note_on_c, 0, 80, 0
1, 27911, Note_on_c, 1, 62, 0
1, 27912, Note_on_c, 0, 82, 85
1, 27912, Note_on_c, 1, 65, 64
1, 27922, Note_on_c, 0, 82, 0
1, 27935, Note_on_c, 1, 65, 0
1, 27936, Note_on_c, 0, 84, 102
1, 27936, Note_on_c, 1, 56, 64
1, 27959, Note_on_c, 1, 56, 0
1, 27960, Note_on_c, 1, 65, 64
1, 27983, Note_on_c, 1, 65, 0
1, 27984, Note_on_c, 1, 62, 64
1, 28007, Note_on_c, 1, 62, 0
1, 28008, Note_on_c, 1, 65, 64
1, 28031, Note_on_c, 1, 65, 0
1, 28032, Note_on_c, 1, 56, 64
1, 28055, Note_on_c, 1, 56, 0
1, 28056, Note_on_c, 1, 65, 64
1, 28079, Note_on_c, 1, 65, 0
1, 28080, Note_on_c, 0, 84, 0
1, 28080, Note_on_c, 0, 86, 86
1, 28080, Note_on_c, 1, 62, 64
1, 28092, Note_on_c, 0, 86, 0
1, 28092, Note_on_c, 0, 84, 86
1, 28103, Note_on_c, 1, 62, 0
1, 28104, Note_on_c, 0, 84, 0
1, 28104, Note_on_c, 0, 83, 86
1, 28104, Note_on_c, 1, 65, 64
1, 28116, Note_on_c, 0, 83, 0
1, 28116, Note_on_c, 0, 84, 86
1, 28127, Note_on_c, 1, 65, 0
1, 28128, Note_on_c, 0, 84, 0
1, 28128, Note_on_c, 0, 89, 86
1, 28128, Note_on_c, 1, 56, 64
1, 28151, Note_on_c, 1, 56, 0
1, 28152, Note_on_c, 1, 65, 64
1, 28175, Note_on_c, 1, 65, 0
1, 28176, Note_on_c, 1, 62, 64
1, 28195, Note_on_c, 0, 89, 0
1, 28199, Note_on_c, 1, 62, 0
1, 28200, Note_on_c, 0, 86, 86
1, 28200, Note_on_c, 1, 65, 64
1, 28223, Note_on_c, 0, 86, 0
1, 28223, Note_on_c, 1, 65, 0
1, 28224, Note_on_c, 0, 84, 86
1, 28224, Note_on_c, 1, 55, 64
1, 28247, Note_on_c, 1, 55, 0
1, 28248, Note_on_c, 1, 65, 64
1, 28271, Note_on_c, 1, 65, 0
1, 28272, Note_on_c, 1, 62, 64
1, 28295, Note_on_c, 1, 62, 0
1, 28296, Note_on_c, 1, 65, 64
1, 28313, Note_on_c, 0, 84, 0
1, 28319, Note_on_c, 1, 65, 0
1, 28320, Note_on_c, 0, 83, 86
1, 28320, Note_on_c, 1, 55, 64
1, 28334, Note_on_c, 0, 83, 0
1, 28335, Note_on_c, 0, 84, 86
1, 28343, Note_on_c, 1, 55, 0
1, 28344, Note_on_c, 1, 65, 64
1, 28349, Note_on_c, 0, 84, 0
1, 28350, Note_on_c, 0, 83, 86
1, 28364, Note_on_c, 0, 83, 0
1, 28365, Note_on_c, 0, 84, 86
1, 28367, Note_on_c, 1, 65, 0
1, 28368, Note_on_c, 1, 62, 64
1, 28379, Note_on_c, 0, 84, 0
1, 28380, Note_on_c, 0, 83, 86
1, 28391, Note_on_c, 1, 62, 0
1, 28392, Note_on_c, 1, 65, 64
1, 28394, Note_on_c, 0, 83, 0
1, 28395, Note_on_c, 0, 84, 86
1, 28409, Note_on_c, 0, 84, 0
1, 28410, Note_on_c, 0, 83, 86
1, 28415, Note_on_c, 1, 65, 0
1, 28416, Note_on_c, 1, 55, 64
1, 28424, Note_on_c, 0, 83, 0
1, 28425, Note_on_c, 0, 84, 86
1, 28439, Note_on_c, 0, 84, 0
1, 28439, Note_on_c, 1, 55, 0
1, 28440, Note_on_c, 0, 83, 86
1, 28440, Note_on_c, 1, 65, 64
1, 28454, Note_on_c, 0, 83, 0
1, 28455, Note_on_c, 0, 84, 86
1, 28463, Note_on_c, 1, 65, 0
1, 28464, Note_on_c, 1, 62, 64
1, 28469, Note_on_c, 0, 84, 0
1, 28470, Note_on_c, 0, 83, 86
1, 28483, Note_on_c, 0, 83, 0
1, 28484, Note_on_c, 0, 81, 86
1, 28487, Note_on_c, 1, 62, 0
1, 28488, Note_on_c, 1, 65, 64
1, 28497, Note_on_c, 0, 81, 0
1, 28498, Note_on_c, 0, 83, 86
1, 28511, Note_on_c, 0, 83, 0
1, 28511, Note_on_c, 1, 65, 0
1, 28512, Note_on_c, 0, 84, 86
1, 28512, Note_on_c, 1, 55, 64
1, 28531, Note_on_c, 0, 84, 0
1, 28535, Note_on_c, 1, 55, 0
1, 28536, Note_on_c, 0, 86, 86
1, 28536, Note_on_c, 1, 63, 64
1, 28548, Note_on_c, 0, 86, 0
1, 28548, Note_on_c, 0, 84, 86
1, 28559, Note_on_c, 1, 63, 0
1, 28560, Note_on_c, 0, 84, 0
1, 28560, Note_on_c, 0, 83, 86
1, 28560, Note_on_c, 1, 60, 64
1, 28572, Note_on_c, 0, 83, 0
1, 28572, Note_on_c, 0, 84, 86
1, 28583, Note_on_c, 1, 60, 0
1, 28584, Note_on_c, 0, 84, 0
1, 28584, Note_on_c, 0, 86, 86
1, 28584, Note_on_c, 1, 63, 64
1, 28607, Note_on_c, 0, 86, 0
1, 28607, Note_on_c, 1, 63, 0
1, 28608, Note_on_c, 0, 87, 86
1, 28608, Note_on_c, 1, 55, 64
1, 28631, Note_on_c, 1, 55, 0
1, 28632, Note_on_c, 1, 63, 64
1, 28653, Note_on_c, 0, 87, 0
1, 28655, Note_on_c, 1, 63, 0
1, 28656, Note_on_c, 1, 60, 64
1, 28679, Note_on_c, 1, 60, 0
1, 28680, Note_on_c, 0, 86, 86
1, 28680, Note_on_c, 1, 63, 64
1, 28703, Note_on_c, 0, 86, 0
1, 28703, Note_on_c, 1, 63, 0
1, 28704, Note_on_c, 0, 84, 86
1, 28704, Note_on_c, 1, 54, 64
1, 28727, Note_on_c, 1, 54, 0
1, 28728, Note_on_c, 1, 63, 64
1, 28749, Note_on_c, 0, 84, 0
1, 28751, Note_on_c, 1, 63, 0
1, 28752, Note_on_c, 1, 60, 64
1, 28775, Note_on_c, 1, 60, 0
1, 28776, Note_on_c, 0, 82, 86
1, 28776, Note_on_c, 1, 63, 64
1, 28799, Note_on_c, 0, 82, 0
1, 28799, Note_on_c, 1, 63, 0
1, 28800, Note_on_c, 0, 82, 86
1, 28800, Note_on_c, 1, 53, 64
1, 28823, Note_on_c, 1, 53, 0
1, 28824, Note_on_c, 1, 63, 64
1, 28847, Note_on_c, 1, 63, 0
1, 28848, Note_on_c, 1, 60, 64
1, 28871, Note_on_c, 1, 60, 0
1, 28872, Note_on_c, 1, 63, 64
1, 28889, Note_on_c, 0, 82, 0
1, 28895, Note_on_c, 1, 63, 0
1, 28896, Note_on_c, 0, 81, 83
1, 28896, Note_on_c, 1, 53, 64
1, 28909, Note_on_c, 0, 81, 0
1, 28910, Note_on_c, 0, 82, 82
1, 28919, Note_on_c, 1, 53, 0
1, 28920, Note_on_c, 1, 63, 64
1, 28923, Note_on_c, 0, 82, 0
1, 28924, Note_on_c, 0, 81, 82
1, 28937, Note_on_c, 0, 81, 0
1, 28938, Note_on_c, 0, 82, 81
1, 28943, Note_on_c, 1, 63, 0
1, 28944, Note_on_c, 1, 60, 64
1, 28951, Note_on_c, 0, 82, 0
1, 28952, Note_on_c, 0, 81, 81
1, 28965, Note_on_c, 0, 81, 0
1, 28966, Note_on_c, 0, 79, 81
1, 28967, Note_on_c, 1, 60, 0
1, 28968, Note_on_c, 1, 63, 64
1, 28978, Note_on_c, 0, 79, 0
1, 28979, Note_on_c, 0, 81, 80
1, 28991, Note_on_c, 0, 81, 0
1, 28991, Note_on_c, 1, 63, 0
1, 28992, Note_on_c, 0, 82, 80
1, 28992, Note_on_c, 1, 55, 64
1, 29015, Note_on_c, 1, 55, 0
1, 29016, Note_on_c, 1, 62, 64
1, 29039, Note_on_c, 1, 62, 0
1, 29040, Note_on_c, 1, 58, 64
1, 29063, Note_on_c, 1, 58, 0
1, 29064, Note_on_c, 1, 62, 64
1, 29081, Note_on_c, 0, 82, 0
1, 29087, Note_on_c, 1, 62, 0
1, 29088, Note_on_c, 0, 81, 75
1, 29088, Note_on_c, 1, 51, 64
1, 29111, Note_on_c, 0, 81, 0
1, 29112, Note_on_c, 0, 79, 75
1, 29135, Note_on_c, 0, 79, 0
1, 29136, Note_on_c, 0, 78, 75
1, 29159, Note_on_c, 0, 78, 0
1, 29160, Note_on_c, 0, 79, 75
1, 29177, Note_on_c, 1, 51, 0
1, 29183, Note_on_c, 0, 79, 0
1, 29184, Note_on_c, 0, 78, 75
1, 29207, Note_on_c, 0, 78, 0
1, 29208, Note_on_c, 0, 79, 75
1, 29231, Note_on_c, 0, 79, 0
1, 29232, Note_on_c, 0, 78, 75
1, 29255, Note_on_c, 0, 78, 0
1, 29256, Note_on_c, 0, 79, 75
1, 29279, Note_on_c, 0, 79, 0
1, 29280, Note_on_c, 0, 82, 75
1, 29325, Note_on_c, 0, 82, 0
1, 29328, Note_on_c, 0, 79, 75
1, 29373, Note_on_c, 0, 79, 0
1, 29376, Note_on_c, 0, 77, 75
1, 29376, Note_on_c, 1, 67, 64
1, 29376, Note_on_c, 1, 63, 64
1, 29399, Note_on_c, 0, 77, 0
1, 29400, Note_on_c, 0, 75, 75
1, 29423, Note_on_c, 0, 75, 0
1, 29424, Note_on_c, 0, 74, 75
1, 29447, Note_on_c, 0, 74, 0
1, 29448, Note_on_c, 0, 75, 75
1, 29465, Note_on_c, 1, 67, 0
1, 29465, Note_on_c, 1, 63, 0
1, 29471, Note_on_c, 0, 75, 0
1, 29472, Note_on_c, 0, 74, 75
1, 29495, Note_on_c, 0, 74, 0
1, 29496, Note_on_c, 0, 75, 75
1, 29519, Note_on_c, 0, 75, 0
1, 29520, Note_on_c, 0, 74, 75
1, 29543, Note_on_c, 0, 74, 0
1, 29544, Note_on_c, 0, 75, 75
1, 29567, Note_on_c, 0, 75, 0
1, 29568, Note_on_c, 0, 79, 75
1, 29613, Note_on_c, 0, 79, 0
1, 29616, Note_on_c, 0, 75, 75
1, 29661, Note_on_c, 0, 75, 0
1, 29664, Note_on_c, 0, 74, 75
1, 29687, Note_on_c, 0, 74, 0
1, 29688, Note_on_c, 0, 72, 75
1, 29711, Note_on_c, 0, 72, 0
1, 29712, Note_on_c, 0, 71, 75
1, 29735, Note_on_c, 0, 71, 0
1, 29736, Note_on_c, 0, 72, 75
1, 29759, Note_on_c, 0, 72, 0
1, 29760, Note_on_c, 0, 74, 75
1, 29783, Note_on_c, 0, 74, 0
1, 29784, Note_on_c, 0, 72, 75
1, 29807, Note_on_c, 0, 72, 0
1, 29808, Note_on_c, 0, 71, 75
1, 29831, Note_on_c, 0, 71, 0
1, 29832, Note_on_c, 0, 72, 75
1, 29855, Note_on_c, 0, 72, 0
1, 29856, Note_on_c, 0, 74, 75
1, 29879, Note_on_c, 0, 74, 0
1, 29880, Note_on_c, 0, 72, 75
1, 29903, Note_on_c, 0, 72, 0
1, 29904, Note_on_c, 0, 71, 75
1, 29927, Note_on_c, 0, 71, 0
1, 29928, Note_on_c, 0, 72, 75
1, 29951, Note_on_c, 0, 72, 0
1, 29952, Tempo, 500000
1, 29952, Note_on_c, 0, 78, 75
1, 30005, Note_on_c, 0, 78, 0
1, 30012, Note_on_c, 0, 79, 75
1, 30024, Note_on_c, 0, 79, 0
1, 30024, Note_on_c, 0, 78, 75
1, 30036, Note_on_c, 0, 78, 0
1, 30036, Note_on_c, 0, 76, 75
1, 30048, Note_on_c, 0, 76, 0
1, 30048, Note_on_c, 0, 78, 75
1, 30115, Note_on_c, 0, 78, 0
1, 30120, Note_on_c, 0, 81, 75
1, 30143, Note_on_c, 0, 81, 0
1, 30144, Note_on_c, 0, 79, 75
1, 30174, Note_on_c, 0, 79, 0
1, 30176, Note_on_c, 0, 75, 75
1, 30206, Note_on_c, 0, 75, 0
1, 30208, Note_on_c, 0, 72, 75
1, 30238, Note_on_c, 0, 72, 0
1, 30240, Note_on_c, 0, 70, 75
1, 30240, Note_on_c, 1, 62, 75
1, 30240, Note_on_c, 1, 53, 75
1, 30373, Note_on_c, 0, 70, 0
1, 30384, Note_on_c, 0, 72, 75
1, 30396, Note_on_c, 0, 72, 0
1, 30396, Note_on_c, 0, 70, 75
1, 30408, Note_on_c, 0, 70, 0
1, 30408, Note_on_c, 0, 69, 75
1, 30420, Note_on_c, 0, 69, 0
1, 30420, Note_on_c, 0, 70, 75
1, 30429, Note_on_c, 1, 62, 0
1, 30429, Note_on_c, 1, 53, 0
1, 30432, Tempo, 705882
1, 30432, Note_on_c, 0, 70, 0
1, 30432, Note_on_c, 0, 74, 75
1, 30432, Note_on_c, 0, 69, 64
1, 30432, Note_on_c, 1, 63, 75
1, 30432, Note_on_c, 1, 53, 75
1, 30499, Note_on_c, 0, 74, 0
1, 30504, Note_on_c, 0, 72, 75
1, 30521, Note_on_c, 0, 69, 0
1, 30521, Note_on_c, 1, 63, 0
1, 30521, Note_on_c, 1, 53, 0
1, 30527, Note_on_c, 0, 72, 0
1, 30528, Tempo, 444444
1, 30528, Note_on_c, 0, 70, 75
1, 30528, Note_on_c, 1, 58, 70
1, 30551, Note_on_c, 1, 58, 0
1, 30552, Note_on_c, 1, 65, 70
1, 30575, Note_on_c, 1, 65, 0
1, 30576, Note_on_c, 1, 62, 70
1, 30599, Note_on_c, 1, 62, 0
1, 30600, Note_on_c, 1, 65, 70
1, 30617, Note_on_c, 0, 70, 0
1, 30623, Note_on_c, 1, 65, 0
1, 30624, Note_on_c, 1, 58, 70
1, 30647, Note_on_c, 1, 58, 0
1, 30648, Note_on_c, 1, 65, 70
1, 30671, Note_on_c, 1, 65, 0
1, 30672, Note_on_c, 0, 41, 80
1, 30672, Note_on_c, 1, 62, 70
1, 30695, Note_on_c, 1, 62, 0
1, 30696, Note_on_c, 1, 65, 70
1, 30717, Note_on_c, 0, 41, 0
1, 30719, Note_on_c, 1, 65, 0
1, 30720, Note_on_c, 0, 46, 80
1, 30720, Note_on_c, 1, 58, 70
1, 30743, Note_on_c, 1, 58, 0
1, 30744, Note_on_c, 1, 65, 70
1, 30765, Note_on_c, 0, 46, 0
1, 30767, Note_on_c, 1, 65, 0
1, 30768, Note_on_c, 0, 50, 80
1, 30768, Note_on_c, 1, 62, 70
1, 30791, Note_on_c, 1, 62, 0
1, 30792, Note_on_c, 1, 65, 70
1, 30813, Note_on_c, 0, 50, 0
1, 30815, Note_on_c, 1, 65, 0
1, 30816, Note_on_c, 0, 51, 96
1, 30816, Note_on_c, 1, 57, 70
1, 30839, Note_on_c, 1, 57, 0
1, 30840, Note_on_c, 1, 65, 70
1, 30863, Note_on_c, 1, 65, 0
1, 30864, Note_on_c, 1, 60, 70
1, 30887, Note_on_c, 1, 60, 0
1, 30888, Note_on_c, 1, 65, 70
1, 30911, Note_on_c, 1, 65, 0
1, 30912, Note_on_c, 1, 57, 70
1, 30935, Note_on_c, 1, 57, 0
1, 30936, Note_on_c, 1, 65, 70
1, 30959, Note_on_c, 1, 65, 0
1, 30960, Note_on_c, 0, 51, 0
1, 30960, Note_on_c, 0, 48, 80
1, 30960, Note_on_c, 1, 60, 70
1, 30983, Note_on_c, 0, 48, 0
1, 30983, Note_on_c, 1, 60, 0
1, 30984, Note_on_c, 0, 45, 80
1, 30984, Note_on_c, 1, 65, 70
1, 31007, Note_on_c, 0, 45, 0
1, 31007, Note_on_c, 1, 65, 0
1, 31008, Note_on_c, 0, 41, 80
1, 31008, Note_on_c, 1, 57, 70
1, 31031, Note_on_c, 1, 57, 0
1, 31032, Note_on_c, 1, 65, 70
1, 31053, Note_on_c, 0, 41, 0
1, 31055, Note_on_c, 1, 65, 0
1, 31056, Note_on_c, 0, 39, 80
1, 31056, Note_on_c, 1, 60, 70
1, 31079, Note_on_c, 1, 60, 0
1, 31080, Note_on_c, 1, 65, 70
1, 31101, Note_on_c, 0, 39, 0
1, 31103, Note_on_c, 1, 65, 0
1, 31104, Note_on_c, 0, 38, 80
1, 31104, Note_on_c, 1, 58, 70
1, 31127, Note_on_c, 1, 58, 0
1, 31128, Note_on_c, 1, 65, 70
1, 31149, Note_on_c, 0, 38, 0
1, 31151, Note_on_c, 1, 65, 0
1, 31152, Note_on_c, 1, 62, 70
1, 31175, Note_on_c, 1, 62, 0
1, 31176, Note_on_c, 1, 65, 70
1, 31199, Note_on_c, 1, 65, 0
1, 31200, Note_on_c, 1, 58, 70
1, 31223, Note_on_c, 1, 58, 0
1, 31224, Note_on_c, 1, 65, 70
1, 31247, Note_on_c, 1, 65, 0
1, 31248, Note_on_c, 0, 77, 80
1, 31248, Note_on_c, 1, 62, 70
1, 31271, Note_on_c, 1, 62, 0
1, 31272, Note_on_c, 1, 65, 70
1, 31293, Note_on_c, 0, 77, 0
1, 31295, Note_on_c, 1, 65, 0
1, 31296, Note_on_c, 0, 82, 80
1, 31296, Note_on_c, 1, 58, 70
1, 31319, Note_on_c, 1, 58, 0
1, 31320, Note_on_c, 1, 65, 70
1, 31341, Note_on_c, 0, 82, 0
1, 31343, Note_on_c, 1, 65, 0
1, 31344, Note_on_c, 0, 86, 80
1, 31344, Note_on_c, 1, 62, 70
1, 31367, Note_on_c, 1, 62, 0
1, 31368, Note_on_c, 1, 65, 70
1, 31389, Note_on_c, 0, 86, 0
1, 31391, Note_on_c, 1, 65, 0
1, 31392, Note_on_c, 0, 77, 80
1, 31392, Note_on_c, 1, 57, 70
1, 31404, Note_on_c, 0, 77, 0
1, 31404, Note_on_c, 0, 81, 80
1, 31415, Note_on_c, 1, 57, 0
1, 31416, Note_on_c, 0, 81, 0
1, 31416, Note_on_c, 0, 84, 80
1, 31416, Note_on_c, 1, 65, 70
1, 31428, Note_on_c, 0, 84, 0
1, 31428, Note_on_c, 0, 87, 96
1, 31439, Note_on_c, 1, 65, 0
1, 31440, Note_on_c, 1, 60, 70
1, 31463, Note_on_c, 1, 60, 0
1, 31464, Note_on_c, 1, 65, 70
1, 31487, Note_on_c, 1, 65, 0
1, 31488, Note_on_c, 1, 57, 70
1, 31511, Note_on_c, 1, 57, 0
1, 31512, Note_on_c, 1, 65, 70
1, 31535, Note_on_c, 1, 65, 0
1, 31536, Note_on_c, 0, 87, 0
1, 31536, Note_on_c, 0, 84, 80
1, 31536, Note_on_c, 1, 60, 70
1, 31559, Note_on_c, 0, 84, 0
1, 31559, Note_on_c, 1, 60, 0
1, 31560, Note_on_c, 0, 81, 80
1, 31560, Note_on_c, 1, 65, 70
1, 31583, Note_on_c, 0, 81, 0
1, 31583, Note_on_c, 1, 65, 0
1, 31584, Note_on_c, 0, 77, 80
1, 31584, Note_on_c, 1, 57, 70
1, 31607, Note_on_c, 1, 57, 0
1, 31608, Note_on_c, 1, 65, 70
1, 31629, Note_on_c, 0, 77, 0
1, 31631, Note_on_c, 1, 65, 0
1, 31632, Note_on_c, 0, 75, 80
1, 31632, Note_on_c, 1, 60, 70
1, 31655, Note_on_c, 1, 60, 0
1, 31656, Note_on_c, 1, 65, 70
1, 31677, Note_on_c, 0, 75, 0
1, 31679, Note_on_c, 1, 65, 0
1, 31680, Note_on_c, 0, 74, 80
1, 31680, Note_on_c, 1, 58, 70
1, 31703, Note_on_c, 1, 58, 0
1, 31704, Note_on_c, 1, 65, 70
1, 31725, Note_on_c, 0, 74, 0
1, 31727, Note_on_c, 1, 65, 0
1, 31728, Note_on_c, 1, 62, 70
1, 31751, Note_on_c, 1, 62, 0
1, 31752, Note_on_c, 1, 65, 70
1, 31775, Note_on_c, 1, 65, 0
1, 31776, Note_on_c, 1, 58, 70
1, 31799, Note_on_c, 1, 58, 0
1, 31800, Note_on_c, 1, 65, 70
1, 31823, Note_on_c, 1, 65, 0
1, 31824, Note_on_c, 0, 41, 80
1, 31824, Note_on_c, 1, 62, 70
1, 31847, Note_on_c, 1, 62, 0
1, 31848, Note_on_c, 1, 65, 70
1, 31869, Note_on_c, 0, 41, 0
1, 31871, Note_on_c, 1, 65, 0
1, 31872, Note_on_c, 0, 46, 80
1, 31872, Note_on_c, 1, 58, 70
1, 31895, Note_on_c, 1, 58, 0
1, 31896, Note_on_c, 1, 65, 70
1, 31917, Note_on_c, 0, 46, 0
1, 31919, Note_on_c, 1, 65, 0
1, 31920, Note_on_c, 0, 50, 80
1, 31920, Note_on_c, 1, 62, 70
1, 31943, Note_on_c, 1, 62, 0
1, 31944, Note_on_c, 1, 65, 70
1, 31965, Note_on_c, 0, 50, 0
1, 31967, Note_on_c, 1, 65, 0
1, 31968, Note_on_c, 0, 51, 96
1, 31968, Note_on_c, 1, 57, 70
1, 31991, Note_on_c, 1, 57, 0
1, 31992, Note_on_c, 1, 65, 70
1, 32015, Note_on_c, 1, 65, 0
1, 32016, Note_on_c, 0, 51, 0
1, 32016, Note_on_c, 1, 60, 70
1, 32039, Note_on_c, 1, 60, 0
1, 32040, Note_on_c, 0, 51, 80
1, 32040, Note_on_c, 1, 65, 70
1, 32052, Note_on_c, 0, 51, 0
1, 32052, Note_on_c, 0, 48, 80
1, 32063, Note_on_c, 1, 65, 0
1, 32064, Note_on_c, 0, 48, 0
1, 32064, Note_on_c, 0, 45, 96
1, 32064, Note_on_c, 1, 57, 70
1, 32087, Note_on_c, 1, 57, 0
1, 32088, Note_on_c, 1, 65, 70
1, 32111, Note_on_c, 1, 65, 0
1, 32112, Note_on_c, 0, 45, 0
1, 32112, Note_on_c, 1, 60, 70
1, 32135, Note_on_c, 1, 60, 0
1, 32136, Note_on_c, 0, 48, 80
1, 32136, Note_on_c, 1, 65, 70
1, 32148, Note_on_c, 0, 48, 0
1, 32148, Note_on_c, 0, 45, 80
1, 32159, Note_on_c, 1, 65, 0
1, 32160, Note_on_c, 0, 45, 0
1, 32160, Note_on_c, 0, 41, 80
1, 32160, Note_on_c, 1, 57, 70
1, 32183, Note_on_c, 1, 57, 0
1, 32184, Note_on_c, 1, 65, 70
1, 32205, Note_on_c, 0, 41, 0
1, 32207, Note_on_c, 1, 65, 0
1, 32208, Note_on_c, 0, 39, 80
1, 32208, Note_on_c, 1, 60, 70
1, 32231, Note_on_c, 1, 60, 0
1, 32232, Note_on_c, 1, 65, 70
1, 32253, Note_on_c, 0, 39, 0
1, 32255, Note_on_c, 1, 65, 0
1, 32256, Note_on_c, 0, 38, 80
1, 32256, Note_on_c, 1, 58, 70
1, 32279, Note_on_c, 1, 58, 0
1, 32280, Note_on_c, 1, 65, 70
1, 32301, Note_on_c, 0, 38, 0
1, 32303, Note_on_c, 1, 65, 0
1, 32304, Note_on_c, 1, 62, 70
1, 32327, Note_on_c, 1, 62, 0
1, 32328, Note_on_c, 1, 65, 70
1, 32351, Note_on_c, 1, 65, 0
1, 32352, Note_on_c, 1, 58, 70
1, 32375, Note_on_c, 1, 58, 0
1, 32376, Note_on_c, 0, 77, 80
1, 32376, Note_on_c, 1, 65, 70
1, 32399, Note_on_c, 0, 77, 0
1, 32399, Note_on_c, 1, 65, 0
1, 32400, Note_on_c, 0, 82, 80
1, 32400, Note_on_c, 1, 62, 70
1, 32423, Note_on_c, 0, 82, 0
1, 32423, Note_on_c, 1, 62, 0
1, 32424, Note_on_c, 0, 86, 80
1, 32424, Note_on_c, 1, 65, 70
1, 32447, Note_on_c, 0, 86, 0
1, 32447, Note_on_c, 1, 65, 0
1, 32448, Note_on_c, 0, 89, 80
1, 32448, Note_on_c, 1, 58, 70
1, 32471, Note_on_c, 1, 58, 0
1, 32472, Note_on_c, 1, 65, 70
1, 32493, Note_on_c, 0, 89, 0
1, 32495, Note_on_c, 1, 65, 0
1, 32496, Note_on_c, 0, 89, 80
1, 32496, Note_on_c, 1, 62, 70
1, 32519, Note_on_c, 1, 62, 0
1, 32520, Note_on_c, 1, 65, 70
1, 32541, Note_on_c, 0, 89, 0
1, 32543, Note_on_c, 1, 65, 0
1, 32544, Note_on_c, 0, 87, 80
1, 32544, Note_on_c, 1, 57, 70
1, 32567, Note_on_c, 0, 87, 0
1, 32568, Note_on_c, 0, 89, 80
1, 32591, Note_on_c, 0, 89, 0
1, 32592, Note_on_c, 0, 87, 80
1, 32615, Note_on_c, 0, 87, 0
1, 32616, Note_on_c, 0, 86, 80
1, 32633, Note_on_c, 1, 57, 0
1, 32639, Note_on_c, 0, 86, 0
1, 32640, Note_on_c, 0, 84, 80
1, 32663, Note_on_c, 0, 84, 0
1, 32664, Note_on_c, 0, 82, 80
1, 32687, Note_on_c, 0, 82, 0
1, 32688, Note_on_c, 0, 81, 79
1, 32711, Note_on_c, 0, 81, 0
1, 32712, Note_on_c, 0, 79, 78
1, 32735, Note_on_c, 0, 79, 0
1, 32736, Note_on_c, 0, 77, 77
1, 32759, Note_on_c, 0, 77, 0
1, 32760, Note_on_c, 0, 75, 77
1, 32783, Note_on_c, 0, 75, 0
1, 32784, Note_on_c, 0, 74, 76
1, 32807, Note_on_c, 0, 74, 0
1, 32808, Note_on_c, 0, 72, 75
1, 32831, Note_on_c, 0, 72, 0
1, 32832, Note_on_c, 0, 70, 75
1, 32832, Note_on_c, 1, 58, 75
1, 32877, Note_on_c, 0, 70, 0
1, 32877, Note_on_c, 1, 58, 0
1, 32880, Note_on_c, 0, 86, 75
1, 32880, Note_on_c, 0, 82, 75
1, 32925, Note_on_c, 0, 86, 0
1, 32925, Note_on_c, 0, 82, 0
1, 32928, Note_on_c, 1, 65, 75
1, 32973, Note_on_c, 1, 65, 0
1, 32976, Note_on_c, 0, 84, 75
1, 32976, Note_on_c, 0, 81, 75
1, 33021, Note_on_c, 0, 84, 0
1, 33021, Note_on_c, 0, 81, 0
1, 33024, Note_on_c, 1, 67, 70
1, 33069, Note_on_c, 1, 67, 0
1, 33072, Note_on_c, 0, 82, 70
1, 33072, Note_on_c, 0, 79, 70
1, 33117, Note_on_c, 0, 82, 0
1, 33117, Note_on_c, 0, 79, 0
1, 33120, Note_on_c, 1, 62, 66
1, 33165, Note_on_c, 1, 62, 0
1, 33168, Note_on_c, 0, 80, 66
1, 33168, Note_on_c, 0, 77, 66
1, 33213, Note_on_c, 0, 80, 0
1, 33213, Note_on_c, 0, 77, 0
1, 33216, Note_on_c, 1, 63, 64
1, 33261, Note_on_c, 1, 63, 0
1, 33264, Note_on_c, 0, 79, 64
1, 33264, Note_on_c, 0, 75, 64
1, 33309, Note_on_c, 0, 79, 0
1, 33309, Note_on_c, 0, 75, 0
1, 33312, Note_on_c, 1, 71, 64
1, 33312, Note_on_c, 1, 67, 64
1, 33357, Note_on_c, 1, 71, 0
1, 33357, Note_on_c, 1, 67, 0
1, 33360, Note_on_c, 0, 77, 64
1, 33360, Note_on_c, 0, 74, 64
1, 33405, Note_on_c, 0, 77, 0
1, 33405, Note_on_c, 0, 74, 0
1, 33408, Note_on_c, 1, 68, 64
1, 33453, Note_on_c, 1, 68, 0
1, 33456, Note_on_c, 0, 75, 64
1, 33456, Note_on_c, 0, 72, 64
1, 33501, Note_on_c, 0, 75, 0
1, 33501, Note_on_c, 0, 72, 0
1, 33840, Note_on_c, 0, 75, 64
1, 33840, Note_on_c, 0, 72, 64
1, 33860, Note_on_c, 0, 75, 0
1, 33860, Note_on_c, 0, 72, 0
1, 33888, Note_on_c, 0, 75, 64
1, 33888, Note_on_c, 0, 72, 64
1, 33908, Note_on_c, 0, 75, 0
1, 33908, Note_on_c, 0, 72, 0
1, 33936, Note_on_c, 0, 75, 64
1, 33936, Note_on_c, 0, 72, 64
1, 33956, Note_on_c, 0, 75, 0
1, 33956, Note_on_c, 0, 72, 0
1, 33984, Note_on_c, 0, 75, 64
1, 33984, Note_on_c, 0, 72, 64
1, 34128, Note_on_c, 1, 68, 64
1, 34148, Note_on_c, 1, 68, 0
1, 34176, Note_on_c, 1, 68, 64
1, 34196, Note_on_c, 1, 68, 0
1, 34224, Note_on_c, 1, 68, 64
1, 34244, Note_on_c, 1, 68, 0
1, 34272, Note_on_c, 1, 68, 64
1, 34405, Note_on_c, 0, 75, 0
1, 34405, Note_on_c, 0, 72, 0
1, 34416, Note_on_c, 0, 75, 64
1, 34416, Note_on_c, 0, 72, 64
1, 34436, Note_on_c, 0, 75, 0
1, 34436, Note_on_c, 0, 72, 0
1, 34464, Note_on_c, 0, 75, 64
1, 34464, Note_on_c, 0, 72, 64
1, 34484, Note_on_c, 0, 75, 0
1, 34484, Note_on_c, 0, 72, 0
1, 34512, Note_on_c, 0, 75, 64
1, 34512, Note_on_c, 0, 72, 64
1, 34532, Note_on_c, 0, 75, 0
1, 34532, Note_on_c, 0, 72, 0
1, 34537, Note_on_c, 1, 68, 0
1, 34560, Note_on_c, 0, 75, 64
1, 34560, Note_on_c, 0, 72, 64
1, 34704, Note_on_c, 1, 56, 64
1, 34724, Note_on_c, 1, 56, 0
1, 34752, Note_on_c, 1, 56, 65
1, 34772, Note_on_c, 1, 56, 0
1, 34800, Note_on_c, 1, 56, 66
1, 34820, Note_on_c, 1, 56, 0
1, 34848, Note_on_c, 1, 56, 67
1, 34937, Note_on_c, 1, 56, 0
1, 34944, Note_on_c, 1, 55, 69
1, 35025, Note_on_c, 0, 75, 0
1, 35025, Note_on_c, 0, 72, 0
1, 35033, Note_on_c, 1, 55, 0
1, 35040, Note_on_c, 0, 76, 75
1, 35040, Note_on_c, 0, 73, 75
1, 35040, Note_on_c, 0, 70, 75
1, 35040, Note_on_c, 1, 54, 71
1, 35129, Note_on_c, 0, 76, 0
1, 35129, Note_on_c, 0, 73, 0
1, 35129, Note_on_c, 0, 70, 0
1, 35129, Note_on_c, 1, 54, 0
1, 35136, Note_on_c, 0, 65, 77
1, 35136, Note_on_c, 1, 62, 73
1, 35136, Note_on_c, 1, 58, 73
1, 35136, Note_on_c, 1, 53, 73
1, 35148, Note_on_c, 0, 70, 77
1, 35160, Note_on_c, 0, 74, 77
1, 35172, Note_on_c, 0, 77, 77
1, 35277, Note_on_c, 0, 77, 0
1, 35277, Note_on_c, 0, 74, 0
1, 35277, Note_on_c, 0, 70, 0
1, 35277, Note_on_c, 0, 65, 0
1, 35280, Note_on_c, 0, 79, 80
1, 35303, Note_on_c, 0, 79, 0
1, 35304, Note_on_c, 0, 77, 80
1, 35327, Note_on_c, 0, 77, 0
1, 35328, Note_on_c, 0, 75, 80
1, 35351, Note_on_c, 0, 75, 0
1, 35352, Note_on_c, 0, 74, 80
1, 35375, Note_on_c, 0, 74, 0
1, 35376, Note_on_c, 0, 72, 80
1, 35399, Note_on_c, 0, 72, 0
1, 35400, Note_on_c, 0, 70, 80
1, 35401, Note_on_c, 1, 62, 0
1, 35401, Note_on_c, 1, 58, 0
1, 35401, Note_on_c, 1, 53, 0
1, 35423, Note_on_c, 0, 70, 0
1, 35424, Tempo, 500000
1, 35424, Note_on_c, 0, 69, 80
1, 35424, Note_on_c, 1, 63, 80
1, 35424, Note_on_c, 1, 60, 80
1, 35424, Note_on_c, 1, 53, 80
1, 35521, Note_on_c, 0, 69, 0
1, 35532, Note_on_c, 0, 74, 80
1, 35544, Note_on_c, 0, 74, 0
1, 35544, Note_on_c, 0, 72, 80
1, 35556, Note_on_c, 0, 72, 0
1, 35556, Note_on_c, 0, 71, 80
1, 35568, Note_on_c, 0, 71, 0
1, 35568, Note_on_c, 0, 72, 80
1, 35613, Note_on_c, 0, 72, 0
1, 35616, Note_on_c, 0, 75, 76
1, 35661, Note_on_c, 0, 75, 0
1, 35664, Note_on_c, 0, 69, 73
1, 35689, Note_on_c, 1, 63, 0
1, 35689, Note_on_c, 1, 60, 0
1, 35689, Note_on_c, 1, 53, 0
1, 35709, Note_on_c, 0, 69, 0
1, 35712, Tempo, 444444
1, 35712, Note_on_c, 0, 70, 70
1, 35712, Note_on_c, 1, 58, 64
1, 35757, Note_on_c, 0, 70, 0
1, 35760, Note_on_c, 0, 65, 67
1, 35760, Note_on_c, 1, 62, 64
1, 35805, Note_on_c, 0, 65, 0
1, 35805, Note_on_c, 1, 62, 0
1, 35808, Note_on_c, 0, 66, 64
1, 35808, Note_on_c, 1, 63, 64
1, 35853, Note_on_c, 0, 66, 0
1, 35853, Note_on_c, 1, 63, 0
1, 35856, Note_on_c, 0, 67, 64
1, 35856, Note_on_c, 1, 64, 64
1, 35901, Note_on_c, 0, 67, 0
1, 35901, Note_on_c, 1, 64, 0
1, 35904, Note_on_c, 0, 68, 64
1, 35904, Note_on_c, 1, 65, 64
1, 35949, Note_on_c, 0, 68, 0
1, 35949, Note_on_c, 1, 65, 0
1, 35952, Note_on_c, 0, 69, 64
1, 35952, Note_on_c, 1, 66, 64
1, 35997, Note_on_c, 0, 69, 0
1, 35997, Note_on_c, 1, 66, 0
1, 36000, Note_on_c, 0, 70, 64
1, 36000, Note_on_c, 1, 67, 64
1, 36045, Note_on_c, 0, 70, 0
1, 36045, Note_on_c, 1, 67, 0
1, 36048, Note_on_c, 0, 71, 64
1, 36048, Note_on_c, 1, 65, 64
1, 36093, Note_on_c, 0, 71, 0
1, 36093, Note_on_c, 1, 65, 0
1, 36096, Note_on_c, 0, 72, 64
1, 36096, Note_on_c, 1, 63, 64
1, 36141, Note_on_c, 0, 72, 0
1, 36141, Note_on_c, 1, 63, 0
1, 36144, Note_on_c, 0, 74, 64
1, 36144, Note_on_c, 1, 62, 64
1, 36189, Note_on_c, 0, 74, 0
1, 36189, Note_on_c, 1, 62, 0
1, 36192, Note_on_c, 0, 75, 64
1, 36192, Note_on_c, 1, 60, 64
1, 36237, Note_on_c, 0, 75, 0
1, 36237, Note_on_c, 1, 60, 0
1, 36240, Note_on_c, 0, 69, 64
1, 36240, Note_on_c, 1, 63, 64
1, 36265, Note_on_c, 1, 58, 0
1, 36285, Note_on_c, 0, 69, 0
1, 36285, Note_on_c, 1, 63, 0
1, 36288, Note_on_c, 0, 70, 64
1, 36288, Note_on_c, 1, 62, 64
1, 36288, Note_on_c, 1, 58, 64
1, 36308, Note_on_c, 0, 70, 0
1, 36333, Note_on_c, 1, 62, 0
1, 36333, Note_on_c, 1, 58, 0
1, 36336, Note_on_c, 0, 77, 80
1, 36336, Note_on_c, 0, 74, 80
1, 36381, Note_on_c, 0, 77, 0
1, 36381, Note_on_c, 0, 74, 0
1, 36384, Note_on_c, 0, 79, 80
1, 36384, Note_on_c, 0, 75, 80
1, 36429, Note_on_c, 0, 79, 0
1, 36429, Note_on_c, 0, 75, 0
1, 36432, Note_on_c, 0, 77, 80
1, 36432, Note_on_c, 0, 74, 80
1, 36477, Note_on_c, 0, 77, 0
1, 36477, Note_on_c, 0, 74, 0
1, 36480, Note_on_c, 0, 75, 80
1, 36480, Note_on_c, 0, 72, 80
1, 36525, Note_on_c, 0, 75, 0
1, 36525, Note_on_c, 0, 72, 0
1, 36528, Note_on_c, 0, 74, 80
1, 36528, Note_on_c, 0, 70, 80
1, 36573, Note_on_c, 0, 74, 0
1, 36573, Note_on_c, 0, 70, 0
1, 36576, Note_on_c, 0, 72, 80
1, 36576, Note_on_c, 0, 69, 80
1, 36576, Note_on_c, 1, 53, 80
1, 36576, Note_on_c, 1, 41, 80
1, 36596, Note_on_c, 1, 53, 0
1, 36596, Note_on_c, 1, 41, 0
1, 36624, Note_on_c, 1, 52, 80
1, 36624, Note_on_c, 1, 40, 80
1, 36644, Note_on_c, 1, 52, 0
1, 36644, Note_on_c, 1, 40, 0
1, 36665, Note_on_c, 0, 72, 0
1, 36665, Note_on_c, 0, 69, 0
1, 36672, Note_on_c, 1, 51, 80
1, 36672, Note_on_c, 1, 39, 80
1, 36692, Note_on_c, 1, 51, 0
1, 36692, Note_on_c, 1, 39, 0
1, 36720, Note_on_c, 1, 50, 80
1, 36720, Note_on_c, 1, 38, 80
1, 36740, Note_on_c, 1, 50, 0
1, 36740, Note_on_c, 1, 38, 0
1, 36768, Note_on_c, 0, 81, 80
1, 36768, Note_on_c, 0, 75, 80
1, 36768, Note_on_c, 0, 72, 80
1, 36768, Note_on_c, 1, 48, 80
1, 36768, Note_on_c, 1, 36, 80
1, 36788, Note_on_c, 1, 48, 0
1, 36788, Note_on_c, 1, 36, 0
1, 36807, Note_on_c, 0, 81, 0
1, 36807, Note_on_c, 0, 75, 0
1, 36807, Note_on_c, 0, 72, 0
1, 36816, Note_on_c, 1, 53, 80
1, 36816, Note_on_c, 1, 41, 80
1, 36836, Note_on_c, 1, 53, 0
1, 36836, Note_on_c, 1, 41, 0
1, 36864, Note_on_c, 0, 82, 80
1, 36864, Note_on_c, 0, 77, 80
1, 36864, Note_on_c, 0, 74, 80
1, 36864, Note_on_c, 1, 46, 80
1, 36864, Note_on_c, 1, 34, 80
1, 36953, Note_on_c, 0, 82, 0
1, 36953, Note_on_c, 0, 77, 0
1, 36953, Note_on_c, 0, 74, 0
1, 36953, Note_on_c, 1, 46, 0
1, 36953, Note_on_c, 1, 34, 0
1, 37104, Note_on_c, 0, 65, 70
1, 37104, Note_on_c, 0, 62, 70
1, 37149, Note_on_c, 0, 65, 0
1, 37149, Note_on_c, 0, 62, 0
1, 37152, Note_on_c, 0, 67, 70
1, 37152, Note_on_c, 0, 63, 70
1, 37197, Note_on_c, 0, 67, 0
1, 37197, Note_on_c, 0, 63, 0
1, 37200, Note_on_c, 0, 65, 70
1, 37200, Note_on_c, 0, 62, 70
1, 37245, Note_on_c, 0, 65, 0
1, 37245, Note_on_c, 0, 62, 0
1, 37248, Note_on_c, 0, 63, 70
1, 37248, Note_on_c, 0, 60, 70
1, 37293, Note_on_c, 0, 63, 0
1, 37293, Note_on_c, 0, 60, 0
1, 37296, Note_on_c, 0, 62, 70
1, 37296, Note_on_c, 0, 58, 70
1, 37341, Note_on_c, 0, 62, 0
1, 37341, Note_on_c, 0, 58, 0
1, 37344, Note_on_c, 0, 60, 70
1, 37344, Note_on_c, 0, 57, 70
1, 37389, Note_on_c, 0, 60, 0
1, 37389, Note_on_c, 0, 57, 0
1, 37392, Note_on_c, 0, 63, 70
1, 37392, Note_on_c, 0, 60, 70
1, 37392, Note_on_c, 1, 53, 70
1, 37437, Note_on_c, 0, 63, 0
1, 37437, Note_on_c, 0, 60, 0
1, 37437, Note_on_c, 1, 53, 0
1, 37440, Note_on_c, 0, 62, 70
1, 37440, Note_on_c, 0, 58, 70
1, 37440, Note_on_c, 1, 55, 70
1, 37485, Note_on_c, 1, 55, 0
1, 37488, Note_on_c, 1, 53, 70
1, 37529, Note_on_c, 0, 62, 0
1, 37529, Note_on_c, 0, 58, 0
1, 37533, Note_on_c, 1, 53, 0
1, 37536, Note_on_c, 0, 70, 70
1, 37536, Note_on_c, 0, 62, 70
1, 37536, Note_on_c, 1, 51, 70
1, 37581, Note_on_c, 1, 51, 0
1, 37584, Note_on_c, 1, 50, 70
1, 37625, Note_on_c, 0, 62, 0
1, 37629, Note_on_c, 1, 50, 0
1, 37632, Note_on_c, 0, 63, 70
1, 37632, Note_on_c, 1, 48, 70
1, 37669, Note_on_c, 0, 70, 0
1, 37677, Note_on_c, 1, 48, 0
1, 37680, Note_on_c, 0, 69, 70
1, 37680, Note_on_c, 1, 53, 70
1, 37721, Note_on_c, 0, 63, 0
1, 37725, Note_on_c, 0, 69, 0
1, 37725, Note_on_c, 1, 53, 0
1, 37728, Note_on_c, 0, 68, 70
1, 37728, Note_on_c, 0, 62, 70
1, 37728, Note_on_c, 1, 46, 70
1, 37773, Note_on_c, 1, 46, 0
1, 37776, Note_on_c, 1, 58, 70
1, 37817, Note_on_c, 0, 68, 0
1, 37817, Note_on_c, 0, 62, 0
1, 37821, Note_on_c, 1, 58, 0
1, 37824, Note_on_c, 0, 67, 70
1, 37824, Note_on_c, 0, 63, 70
1, 37824, Note_on_c, 1, 60, 70
1, 37869, Note_on_c, 1, 60, 0
1, 37872, Note_on_c, 1, 58, 70
1, 37913, Note_on_c, 0, 67, 0
1, 37913, Note_on_c, 0, 63, 0
1, 37917, Note_on_c, 1, 58, 0
1, 37920, Note_on_c, 0, 75, 70
1, 37920, Note_on_c, 0, 67, 70
1, 37920, Note_on_c, 1, 56, 70
1, 37965, Note_on_c, 1, 56, 0
1, 37968, Note_on_c, 1, 55, 70
1, 38009, Note_on_c, 0, 67, 0
1, 38013, Note_on_c, 1, 55, 0
1, 38016, Note_on_c, 0, 68, 70
1, 38016, Note_on_c, 1, 53, 70
1, 38061, Note_on_c, 1, 53, 0
1, 38064, Note_on_c, 1, 60, 70
1, 38105, Note_on_c, 0, 75, 0
1, 38109, Note_on_c, 1, 60, 0
1, 38112, Note_on_c, 0, 74, 70
1, 38112, Note_on_c, 1, 58, 70
1, 38149, Note_on_c, 0, 68, 0
1, 38157, Note_on_c, 1, 58, 0
1, 38160, Note_on_c, 0, 72, 70
1, 38160, Note_on_c, 1, 56, 70
1, 38205, Note_on_c, 0, 72, 0
1, 38205, Note_on_c, 1, 56, 0
1, 38208, Note_on_c, 0, 70, 70
1, 38208, Note_on_c, 1, 55, 70
1, 38253, Note_on_c, 0, 70, 0
1, 38253, Note_on_c, 1, 55, 0
1, 38256, Note_on_c, 0, 68, 70
1, 38256, Note_on_c, 1, 53, 70
1, 38301, Note_on_c, 0, 68, 0
1, 38301, Note_on_c, 1, 53, 0
1, 38304, Note_on_c, 0, 67, 70
1, 38304, Note_on_c, 1, 51, 70
1, 38349, Note_on_c, 1, 51, 0
1, 38352, Note_on_c, 1, 58, 70
1, 38393, Note_on_c, 0, 74, 0
1, 38397, Note_on_c, 1, 58, 0
1, 38400, Note_on_c, 0, 72, 70
1, 38400, Note_on_c, 1, 56, 70
1, 38437, Note_on_c, 0, 67, 0
1, 38445, Note_on_c, 1, 56, 0
1, 38448, Note_on_c, 0, 70, 70
1, 38448, Note_on_c, 1, 55, 70
1, 38493, Note_on_c, 0, 70, 0
1, 38493, Note_on_c, 1, 55, 0
1, 38496, Note_on_c, 0, 68, 70
1, 38496, Note_on_c, 1, 53, 70
1, 38541, Note_on_c, 0, 68, 0
1, 38541, Note_on_c, 1, 53, 0
1, 38544, Note_on_c, 0, 67, 70
1, 38544, Note_on_c, 1, 51, 70
1, 38589, Note_on_c, 0, 67, 0
1, 38589, Note_on_c, 1, 51, 0
1, 38592, Note_on_c, 0, 65, 70
1, 38592, Note_on_c, 1, 50, 70
1, 38637, Note_on_c, 1, 50, 0
1, 38640, Note_on_c, 1, 56, 70
1, 38681, Note_on_c, 0, 72, 0
1, 38685, Note_on_c, 1, 56, 0
1, 38688, Note_on_c, 0, 71, 70
1, 38688, Note_on_c, 1, 55, 70
1, 38725, Note_on_c, 0, 65, 0
1, 38733, Note_on_c, 1, 55, 0
1, 38736, Note_on_c, 0, 68, 70
1, 38736, Note_on_c, 1, 53, 70
1, 38781, Note_on_c, 0, 68, 0
1, 38781, Note_on_c, 1, 53, 0
1, 38784, Note_on_c, 0, 67, 70
1, 38784, Note_on_c, 1, 51, 70
1, 38829, Note_on_c, 0, 67, 0
1, 38829, Note_on_c, 1, 51, 0
1, 38832, Note_on_c, 0, 65, 70
1, 38832, Note_on_c, 1, 50, 70
1, 38877, Note_on_c, 0, 65, 0
1, 38877, Note_on_c, 1, 50, 0
1, 38880, Note_on_c, 0, 64, 70
1, 38880, Note_on_c, 1, 48, 70
1, 38925, Note_on_c, 1, 48, 0
1, 38928, Note_on_c, 1, 60, 70
1, 38969, Note_on_c, 0, 71, 0
1, 38969, Note_on_c, 0, 64, 0
1, 38973, Note_on_c, 1, 60, 0
1, 38976, Note_on_c, 0, 68, 70
1, 38976, Note_on_c, 0, 65, 70
1, 38976, Note_on_c, 1, 61, 70
1, 39021, Note_on_c, 1, 61, 0
1, 39024, Note_on_c, 1, 60, 70
1, 39065, Note_on_c, 0, 68, 0
1, 39065, Note_on_c, 0, 65, 0
1, 39069, Note_on_c, 1, 60, 0
1, 39072, Note_on_c, 0, 77, 70
1, 39072, Note_on_c, 0, 68, 70
1, 39072, Note_on_c, 1, 58, 70
1, 39117, Note_on_c, 1, 58, 0
1, 39120, Note_on_c, 1, 56, 70
1, 39161, Note_on_c, 0, 68, 0
1, 39165, Note_on_c, 1, 56, 0
1, 39168, Note_on_c, 0, 70, 70
1, 39168, Note_on_c, 1, 55, 70
1, 39213, Note_on_c, 1, 55, 0
1, 39216, Note_on_c, 1, 61, 70
1, 39257, Note_on_c, 0, 77, 0
1, 39261, Note_on_c, 1, 61, 0
1, 39264, Note_on_c, 0, 76, 70
1, 39264, Note_on_c, 1, 60, 70
1, 39309, Note_on_c, 1, 60, 0
1, 39312, Note_on_c, 1, 58, 70
1, 39353, Note_on_c, 0, 76, 0
1, 39357, Note_on_c, 1, 58, 0
1, 39360, Note_on_c, 0, 79, 70
1, 39360, Note_on_c, 1, 56, 70
1, 39405, Note_on_c, 1, 56, 0
1, 39408, Note_on_c, 1, 55, 70
1, 39433, Note_on_c, 0, 70, 0
1, 39453, Note_on_c, 1, 55, 0
1, 39456, Note_on_c, 0, 72, 70
1, 39456, Note_on_c, 1, 56, 70
1, 39501, Note_on_c, 0, 79, 0
1, 39501, Note_on_c, 1, 56, 0
1, 39504, Note_on_c, 0, 76, 70
1, 39504, Note_on_c, 1, 58, 70
1, 39549, Note_on_c, 0, 76, 0
1, 39549, Note_on_c, 1, 58, 0
1, 39552, Note_on_c, 0, 77, 70
1, 39552, Note_on_c, 1, 56, 70
1, 39597, Note_on_c, 0, 77, 0
1, 39597, Note_on_c, 1, 56, 0
1, 39600, Note_on_c, 0, 79, 70
1, 39600, Note_on_c, 1, 55, 70
1, 39645, Note_on_c, 0, 79, 0
1, 39645, Note_on_c, 1, 55, 0
1, 39648, Note_on_c, 0, 80, 70
1, 39648, Note_on_c, 1, 53, 70
1, 39693, Note_on_c, 1, 53, 0
1, 39696, Note_on_c, 1, 51, 70
1, 39721, Note_on_c, 0, 72, 0
1, 39741, Note_on_c, 1, 51, 0
1, 39744, Note_on_c, 0, 71, 70
1, 39744, Note_on_c, 1, 50, 70
1, 39789, Note_on_c, 0, 71, 0
1, 39789, Note_on_c, 1, 50, 0
1, 39792, Note_on_c, 0, 72, 70
1, 39792, Note_on_c, 1, 48, 70
1, 39833, Note_on_c, 0, 80, 0
1, 39837, Note_on_c, 0, 72, 0
1, 39837, Note_on_c, 1, 48, 0
1, 39840, Note_on_c, 0, 79, 70
1, 39840, Note_on_c, 0, 74, 70
1, 39840, Note_on_c, 1, 47, 70
1, 39885, Note_on_c, 1, 47, 0
1, 39888, Note_on_c, 1, 43, 70
1, 39929, Note_on_c, 0, 79, 0
1, 39933, Note_on_c, 1, 43, 0
1, 39936, Note_on_c, 0, 77, 70
1, 39936, Note_on_c, 1, 45, 70
1, 39981, Note_on_c, 1, 45, 0
1, 39984, Note_on_c, 1, 47, 70
1, 40025, Note_on_c, 0, 77, 0
1, 40029, Note_on_c, 1, 47, 0
1, 40032, Note_on_c, 0, 75, 70
1, 40032, Note_on_c, 1, 48, 70
1, 40077, Note_on_c, 1, 48, 0
1, 40080, Note_on_c, 1, 50, 70
1, 40121, Note_on_c, 0, 74, 0
1, 40125, Note_on_c, 1, 50, 0
1, 40128, Note_on_c, 0, 72, 70
1, 40128, Note_on_c, 1, 51, 70
1, 40173, Note_on_c, 1, 51, 0
1, 40176, Note_on_c, 1, 52, 70
1, 40221, Note_on_c, 1, 52, 0
1, 40224, Note_on_c, 1, 53, 70
1, 40269, Note_on_c, 1, 53, 0
1, 40272, Note_on_c, 1, 54, 70
1, 40297, Note_on_c, 0, 75, 0
1, 40305, Note_on_c, 0, 72, 0
1, 40317, Note_on_c, 1, 54, 0
1, 40320, Note_on_c, 0, 74, 70
1, 40320, Note_on_c, 0, 72, 70
1, 40320, Note_on_c, 1, 55, 64
1, 40365, Note_on_c, 0, 72, 0
1, 40368, Note_on_c, 0, 69, 70
1, 40413, Note_on_c, 0, 69, 0
1, 40416, Note_on_c, 0, 71, 70
1, 40461, Note_on_c, 0, 71, 0
1, 40464, Note_on_c, 0, 68, 70
1, 40464, Note_on_c, 1, 59, 70
1, 40509, Note_on_c, 0, 68, 0
1, 40509, Note_on_c, 1, 59, 0
1, 40512, Note_on_c, 0, 67, 70
1, 40512, Note_on_c, 1, 60, 70
1, 40557, Note_on_c, 0, 67, 0
1, 40557, Note_on_c, 1, 60, 0
1, 40560, Note_on_c, 0, 65, 70
1, 40560, Note_on_c, 1, 62, 70
1, 40585, Note_on_c, 1, 55, 0
1, 40605, Note_on_c, 0, 65, 0
1, 40605, Note_on_c, 1, 62, 0
1, 40608, Note_on_c, 0, 67, 70
1, 40608, Note_on_c, 1, 63, 70
1, 40608, Note_on_c, 1, 55, 64
1, 40653, Note_on_c, 0, 74, 0
1, 40656, Note_on_c, 0, 71, 70
1, 40697, Note_on_c, 0, 67, 0
1, 40701, Note_on_c, 0, 71, 0
1, 40704, Note_on_c, 0, 72, 70
1, 40749, Note_on_c, 0, 72, 0
1, 40752, Note_on_c, 0, 74, 70
1, 40785, Note_on_c, 1, 63, 0
1, 40797, Note_on_c, 0, 74, 0
1, 40800, Note_on_c, 0, 75, 70
1, 40800, Note_on_c, 1, 60, 70
1, 40845, Note_on_c, 0, 75, 0
1, 40848, Note_on_c, 0, 66, 70
1, 40873, Note_on_c, 1, 55, 0
1, 40889, Note_on_c, 1, 60, 0
1, 40893, Note_on_c, 0, 66, 0
1, 40896, Note_on_c, 0, 67, 70
1, 40896, Note_on_c, 1, 59, 70
1, 40896, Note_on_c, 1, 55, 64
1, 40941, Note_on_c, 0, 67, 0
1, 40944, Note_on_c, 0, 78, 70
1, 40992, Note_on_c, 0, 78, 0
1, 40992, Note_on_c, 0, 79, 70
1, 41029, Note_on_c, 1, 59, 0
1, 41037, Note_on_c, 0, 79, 0
1, 41040, Note_on_c, 0, 77, 70
1, 41040, Note_on_c, 1, 59, 70
1, 41085, Note_on_c, 0, 77, 0
1, 41085, Note_on_c, 1, 59, 0
1, 41088, Note_on_c, 0, 75, 70
1, 41088, Note_on_c, 1, 60, 70
1, 41133, Note_on_c, 0, 75, 0
1, 41133, Note_on_c, 1, 60, 0
1, 41136, Note_on_c, 0, 74, 70
1, 41136, Note_on_c, 1, 62, 70
1, 41161, Note_on_c, 1, 55, 0
1, 41181, Note_on_c, 0, 74, 0
1, 41181, Note_on_c, 1, 62, 0
1, 41184, Note_on_c, 0, 72, 70
1, 41184, Note_on_c, 1, 63, 70
1, 41184, Note_on_c, 1, 55, 64
1, 41229, Note_on_c, 0, 72, 0
1, 41232, Note_on_c, 0, 71, 70
1, 41277, Note_on_c, 0, 71, 0
1, 41280, Note_on_c, 0, 72, 70
1, 41325, Note_on_c, 0, 72, 0
1, 41328, Note_on_c, 0, 68, 70
1, 41361, Note_on_c, 1, 63, 0
1, 41373, Note_on_c, 0, 68, 0
1, 41376, Note_on_c, 0, 67, 70
1, 41376, Note_on_c, 1, 60, 70
1, 41421, Note_on_c, 0, 67, 0
1, 41424, Note_on_c, 0, 66, 70
1, 41449, Note_on_c, 1, 55, 0
1, 41465, Note_on_c, 1, 60, 0
1, 41469, Note_on_c, 0, 66, 0
1, 41472, Note_on_c, 0, 67, 70
1, 41472, Note_on_c, 1, 59, 70
1, 41472, Note_on_c, 1, 55, 64
1, 41511, Note_on_c, 0, 67, 0
1, 41511, Note_on_c, 1, 55, 0
1, 41566, Note_on_c, 1, 59, 0
1, 41664, Note_on_c, 0, 72, 75
1, 41688, Note_on_c, 0, 72, 0
1, 41688, Note_on_c, 0, 75, 75
1, 41711, Note_on_c, 0, 75, 0
1, 41712, Note_on_c, 0, 74, 75
1, 41736, Note_on_c, 0, 74, 0
1, 41736, Note_on_c, 0, 77, 75
1, 41759, Note_on_c, 0, 77, 0
1, 41760, Note_on_c, 0, 75, 75
1, 41760, Note_on_c, 1, 51, 75
1, 41760, Note_on_c, 1, 48, 75
1, 41780, Note_on_c, 0, 75, 0
1, 41805, Note_on_c, 1, 51, 0
1, 41805, Note_on_c, 1, 48, 0
1, 41856, Note_on_c, 1, 63, 75
1, 41856, Note_on_c, 1, 60, 75
1, 41876, Note_on_c, 1, 63, 0
1, 41876, Note_on_c, 1, 60, 0
1, 41904, Note_on_c, 0, 80, 75
1, 41927, Note_on_c, 0, 80, 0
1, 41928, Note_on_c, 0, 79, 75
1, 41951, Note_on_c, 0, 79, 0
1, 41952, Note_on_c, 0, 77, 75
1, 41975, Note_on_c, 0, 77, 0
1, 41976, Note_on_c, 0, 75, 75
1, 41999, Note_on_c, 0, 75, 0
1, 42000, Note_on_c, 0, 74, 75
1, 42023, Note_on_c, 0, 74, 0
1, 42024, Note_on_c, 0, 72, 75
1, 42047, Note_on_c, 0, 72, 0
1, 42048, Note_on_c, 0, 71, 75
1, 42048, Note_on_c, 1, 47, 75
1, 42048, Note_on_c, 1, 43, 75
1, 42068, Note_on_c, 0, 71, 0
1, 42093, Note_on_c, 1, 47, 0
1, 42093, Note_on_c, 1, 43, 0
1, 42144, Note_on_c, 1, 59, 75
1, 42144, Note_on_c, 1, 55, 75
1, 42164, Note_on_c, 1, 59, 0
1, 42164, Note_on_c, 1, 55, 0
1, 42240, Note_on_c, 0, 74, 75
1, 42264, Note_on_c, 0, 74, 0
1, 42264, Note_on_c, 0, 77, 75
1, 42287, Note_on_c, 0, 77, 0
1, 42288, Note_on_c, 0, 75, 75
1, 42312, Note_on_c, 0, 75, 0
1, 42312, Note_on_c, 0, 79, 75
1, 42335, Note_on_c, 0, 79, 0
1, 42336, Note_on_c, 0, 77, 75
1, 42336, Note_on_c, 1, 47, 75
1, 42336, Note_on_c, 1, 43, 75
1, 42356, Note_on_c, 0, 77, 0
1, 42381, Note_on_c, 1, 47, 0
1, 42381, Note_on_c, 1, 43, 0
1, 42432, Note_on_c, 1, 59, 75
1, 42432, Note_on_c, 1, 55, 75
1, 42452, Note_on_c, 1, 59, 0
1, 42452, Note_on_c, 1, 55, 0
1, 42480, Note_on_c, 0, 86, 75
1, 42503, Note_on_c, 0, 86, 0
1, 42504, Note_on_c, 0, 84, 75
1, 42527, Note_on_c, 0, 84, 0
1, 42528, Note_on_c, 0, 83, 75
1, 42551, Note_on_c, 0, 83, 0
1, 42552, Note_on_c, 0, 80, 75
1, 42575, Note_on_c, 0, 80, 0
1, 42576, Note_on_c, 0, 79, 75
1, 42599, Note_on_c, 0, 79, 0
1, 42600, Note_on_c, 0, 77, 75
1, 42623, Note_on_c, 0, 77, 0
1, 42624, Note_on_c, 0, 75, 75
1, 42624, Note_on_c, 1, 60, 70
1, 42644, Note_on_c, 0, 75, 0
1, 42647, Note_on_c, 1, 60, 0
1, 42648, Note_on_c, 1, 67, 70
1, 42671, Note_on_c, 1, 67, 0
1, 42672, Note_on_c, 1, 63, 70
1, 42695, Note_on_c, 1, 63, 0
1, 42696, Note_on_c, 1, 67, 70
1, 42719, Note_on_c, 1, 67, 0
1, 42720, Note_on_c, 0, 72, 80
1, 42720, Note_on_c, 1, 60, 70
1, 42743, Note_on_c, 0, 72, 0
1, 42743, Note_on_c, 1, 60, 0
1, 42744, Note_on_c, 0, 74, 80
1, 42744, Note_on_c, 1, 67, 70
1, 42767, Note_on_c, 0, 74, 0
1, 42767, Note_on_c, 1, 67, 0
1, 42768, Note_on_c, 0, 75, 80
1, 42768, Note_on_c, 1, 63, 70
1, 42791, Note_on_c, 0, 75, 0
1, 42791, Note_on_c, 1, 63, 0
1, 42792, Note_on_c, 0, 77, 80
1, 42792, Note_on_c, 1, 67, 70
1, 42815, Note_on_c, 0, 77, 0
1, 42815, Note_on_c, 1, 67, 0
1, 42816, Note_on_c, 0, 79, 80
1, 42816, Note_on_c, 1, 60, 70
1, 42839, Note_on_c, 0, 79, 0
1, 42839, Note_on_c, 1, 60, 0
1, 42840, Note_on_c, 0, 81, 80
1, 42840, Note_on_c, 1, 67, 70
1, 42863, Note_on_c, 0, 81, 0
1, 42863, Note_on_c, 1, 67, 0
1, 42864, Note_on_c, 0, 83, 80
1, 42864, Note_on_c, 1, 63, 70
1, 42887, Note_on_c, 0, 83, 0
1, 42887, Note_on_c, 1, 63, 0
1, 42888, Note_on_c, 0, 84, 80
1, 42888, Note_on_c, 1, 67, 70
1, 42898, Note_on_c, 0, 84, 0
1, 42911, Note_on_c, 1, 67, 0
1, 42912, Note_on_c, 0, 84, 96
1, 42912, Note_on_c, 1, 62, 70
1, 42935, Note_on_c, 1, 62, 0
1, 42936, Note_on_c, 1, 67, 70
1, 42959, Note_on_c, 1, 67, 0
1, 42960, Note_on_c, 1, 65, 70
1, 42983, Note_on_c, 1, 65, 0
1, 42984, Note_on_c, 1, 67, 70
1, 43007, Note_on_c, 1, 67, 0
1, 43008, Note_on_c, 0, 84, 0
1, 43008, Note_on_c, 0, 83, 80
1, 43008, Note_on_c, 1, 62, 70
1, 43031, Note_on_c, 1, 62, 0
1, 43032, Note_on_c, 1, 67, 70
1, 43053, Note_on_c, 0, 83, 0
1, 43055, Note_on_c, 1, 67, 0
1, 43056, Note_on_c, 0, 80, 80
1, 43056, Note_on_c, 1, 60, 70
1, 43079, Note_on_c, 1, 60, 0
1, 43080, Note_on_c, 1, 67, 70
1, 43101, Note_on_c, 0, 80, 0
1, 43103, Note_on_c, 1, 67, 0
1, 43104, Note_on_c, 0, 79, 80
1, 43104, Note_on_c, 1, 59, 70
1, 43127, Note_on_c, 1, 59, 0
1, 43128, Note_on_c, 1, 67, 70
1, 43149, Note_on_c, 0, 79, 0
1, 43151, Note_on_c, 1, 67, 0
1, 43152, Note_on_c, 0, 77, 80
1, 43152, Note_on_c, 1, 62, 70
1, 43175, Note_on_c, 1, 62, 0
1, 43176, Note_on_c, 1, 67, 70
1, 43197, Note_on_c, 0, 77, 0
1, 43199, Note_on_c, 1, 67, 0
1, 43200, Note_on_c, 0, 75, 80
1, 43200, Note_on_c, 1, 60, 70
1, 43223, Note_on_c, 1, 60, 0
1, 43224, Note_on_c, 1, 67, 70
1, 43245, Note_on_c, 0, 75, 0
1, 43247, Note_on_c, 1, 67, 0
1, 43248, Note_on_c, 1, 63, 70
1, 43271, Note_on_c, 1, 63, 0
1, 43272, Note_on_c, 1, 67, 70
1, 43295, Note_on_c, 1, 67, 0
1, 43296, Note_on_c, 0, 72, 80
1, 43296, Note_on_c, 1, 60, 70
1, 43319, Note_on_c, 0, 72, 0
1, 43319, Note_on_c, 1, 60, 0
1, 43320, Note_on_c, 0, 74, 80
1, 43320, Note_on_c, 1, 67, 70
1, 43343, Note_on_c, 0, 74, 0
1, 43343, Note_on_c, 1, 67, 0
1, 43344, Note_on_c, 0, 75, 80
1, 43344, Note_on_c, 1, 63, 70
1, 43367, Note_on_c, 0, 75, 0
1, 43367, Note_on_c, 1, 63, 0
1, 43368, Note_on_c, 0, 77, 80
1, 43368, Note_on_c, 1, 67, 70
1, 43391, Note_on_c, 0, 77, 0
1, 43391, Note_on_c, 1, 67, 0
1, 43392, Note_on_c, 0, 79, 80
1, 43392, Note_on_c, 1, 60, 70
1, 43415, Note_on_c, 0, 79, 0
1, 43415, Note_on_c, 1, 60, 0
1, 43416, Note_on_c, 0, 81, 80
1, 43416, Note_on_c, 1, 67, 70
1, 43439, Note_on_c, 0, 81, 0
1, 43439, Note_on_c, 1, 67, 0
1, 43440, Note_on_c, 0, 83, 80
1, 43440, Note_on_c, 1, 63, 70
1, 43463, Note_on_c, 0, 83, 0
1, 43463, Note_on_c, 1, 63, 0
1, 43464, Note_on_c, 0, 84, 80
1, 43464, Note_on_c, 1, 67, 70
1, 43487, Note_on_c, 0, 84, 0
1, 43487, Note_on_c, 1, 67, 0
1, 43488, Note_on_c, 0, 85, 96
1, 43488, Note_on_c, 1, 58, 70
1, 43511, Note_on_c, 1, 58, 0
1, 43512, Note_on_c, 1, 67, 70
1, 43535, Note_on_c, 1, 67, 0
1, 43536, Note_on_c, 1, 63, 70
1, 43559, Note_on_c, 1, 63, 0
1, 43560, Note_on_c, 1, 67, 70
1, 43583, Note_on_c, 1, 67, 0
1, 43584, Note_on_c, 1, 58, 70
1, 43607, Note_on_c, 1, 58, 0
1, 43608, Note_on_c, 1, 67, 70
1, 43631, Note_on_c, 1, 67, 0
1, 43632, Note_on_c, 0, 85, 0
1, 43632, Note_on_c, 0, 82, 80
1, 43632, Note_on_c, 1, 63, 70
1, 43655, Note_on_c, 0, 82, 0
1, 43655, Note_on_c, 1, 63, 0
1, 43656, Note_on_c, 0, 79, 80
1, 43656, Note_on_c, 1, 67, 70
1, 43679, Note_on_c, 0, 79, 0
1, 43679, Note_on_c, 1, 67, 0
1, 43680, Note_on_c, 0, 75, 80
1, 43680, Note_on_c, 1, 58, 70
1, 43703, Note_on_c, 1, 58, 0
1, 43704, Note_on_c, 1, 67, 70
1, 43725, Note_on_c, 0, 75, 0
1, 43727, Note_on_c, 1, 67, 0
1, 43728, Note_on_c, 0, 73, 80
1, 43728, Note_on_c, 1, 63, 70
1, 43751, Note_on_c, 1, 63, 0
1, 43752, Note_on_c, 1, 67, 70
1, 43773, Note_on_c, 0, 73, 0
1, 43775, Note_on_c, 1, 67, 0
1, 43776, Note_on_c, 0, 72, 80
1, 43776, Note_on_c, 1, 56, 70
1, 43799, Note_on_c, 1, 56, 0
1, 43800, Note_on_c, 1, 63, 70
1, 43821, Note_on_c, 0, 72, 0
1, 43823, Note_on_c, 1, 63, 0
1, 43824, Note_on_c, 1, 60, 70
1, 43847, Note_on_c, 1, 60, 0
1, 43848, Note_on_c, 1, 63, 70
1, 43871, Note_on_c, 1, 63, 0
1, 43872, Note_on_c, 0, 68, 80
1, 43872, Note_on_c, 1, 56, 70
1, 43895, Note_on_c, 0, 68, 0
1, 43895, Note_on_c, 1, 56, 0
1, 43896, Note_on_c, 0, 70, 80
1, 43896, Note_on_c, 1, 63, 70
1, 43919, Note_on_c, 0, 70, 0
1, 43919, Note_on_c, 1, 63, 0
1, 43920, Note_on_c, 0, 72, 80
1, 43920, Note_on_c, 1, 60, 70
1, 43943, Note_on_c, 0, 72, 0
1, 43943, Note_on_c, 1, 60, 0
1, 43944, Note_on_c, 0, 73, 80
1, 43944, Note_on_c, 1, 63, 70
1, 43967, Note_on_c, 0, 73, 0
1, 43967, Note_on_c, 1, 63, 0
1, 43968, Note_on_c, 0, 75, 80
1, 43968, Note_on_c, 1, 56, 70
1, 43991, Note_on_c, 0, 75, 0
1, 43991, Note_on_c, 1, 56, 0
1, 43992, Note_on_c, 0, 77, 80
1, 43992, Note_on_c, 1, 63, 70
1, 44015, Note_on_c, 0, 77, 0
1, 44015, Note_on_c, 1, 63, 0
1, 44016, Note_on_c, 0, 79, 80
1, 44016, Note_on_c, 1, 60, 70
1, 44039, Note_on_c, 0, 79, 0
1, 44039, Note_on_c, 1, 60, 0
1, 44040, Note_on_c, 0, 80, 80
1, 44040, Note_on_c, 1, 63, 70
1, 44050, Note_on_c, 0, 80, 0
1, 44063, Note_on_c, 1, 63, 0
1, 44064, Note_on_c, 0, 80, 96
1, 44064, Note_on_c, 1, 58, 70
1, 44087, Note_on_c, 1, 58, 0
1, 44088, Note_on_c, 1, 63, 70
1, 44111, Note_on_c, 1, 63, 0
1, 44112, Note_on_c, 1, 61, 70
1, 44135, Note_on_c, 1, 61, 0
1, 44136, Note_on_c, 1, 63, 70
1, 44159, Note_on_c, 1, 63, 0
1, 44160, Note_on_c, 0, 80, 0
1, 44160, Note_on_c, 0, 79, 80
1, 44160, Note_on_c, 1, 58, 70
1, 44183, Note_on_c, 1, 58, 0
1, 44184, Note_on_c, 1, 63, 70
1, 44205, Note_on_c, 0, 79, 0
1, 44207, Note_on_c, 1, 63, 0
1, 44208, Note_on_c, 0, 77, 80
1, 44208, Note_on_c, 1, 56, 70
1, 44231, Note_on_c, 1, 56, 0
1, 44232, Note_on_c, 1, 63, 70
1, 44253, Note_on_c, 0, 77, 0
1, 44255, Note_on_c, 1, 63, 0
1, 44256, Note_on_c, 0, 75, 80
1, 44256, Note_on_c, 1, 55, 70
1, 44279, Note_on_c, 1, 55, 0
1, 44280, Note_on_c, 1, 63, 70
1, 44301, Note_on_c, 0, 75, 0
1, 44303, Note_on_c, 1, 63, 0
1, 44304, Note_on_c, 0, 73, 80
1, 44304, Note_on_c, 1, 58, 70
1, 44327, Note_on_c, 1, 58, 0
1, 44328, Note_on_c, 1, 63, 70
1, 44349, Note_on_c, 0, 73, 0
1, 44351, Note_on_c, 1, 63, 0
1, 44352, Note_on_c, 0, 72, 80
1, 44352, Note_on_c, 1, 56, 70
1, 44375, Note_on_c, 1, 56, 0
1, 44376, Note_on_c, 1, 63, 70
1, 44397, Note_on_c, 0, 72, 0
1, 44399, Note_on_c, 1, 63, 0
1, 44400, Note_on_c, 1, 60, 70
1, 44423, Note_on_c, 1, 60, 0
1, 44424, Note_on_c, 1, 63, 70
1, 44447, Note_on_c, 1, 63, 0
1, 44448, Note_on_c, 0, 72, 80
1, 44448, Note_on_c, 1, 56, 70
1, 44471, Note_on_c, 0, 72, 0
1, 44471, Note_on_c, 1, 56, 0
1, 44472, Note_on_c, 0, 73, 80
1, 44472, Note_on_c, 1, 63, 70
1, 44495, Note_on_c, 0, 73, 0
1, 44495, Note_on_c, 1, 63, 0
1, 44496, Note_on_c, 0, 75, 80
1, 44496, Note_on_c, 1, 60, 70
1, 44519, Note_on_c, 0, 75, 0
1, 44519, Note_on_c, 1, 60, 0
1, 44520, Note_on_c, 0, 77, 80
1, 44520, Note_on_c, 1, 63, 70
1, 44543, Note_on_c, 0, 77, 0
1, 44543, Note_on_c, 1, 63, 0
1, 44544, Note_on_c, 0, 79, 80
1, 44544, Note_on_c, 1, 56, 70
1, 44567, Note_on_c, 0, 79, 0
1, 44567, Note_on_c, 1, 56, 0
1, 44568, Note_on_c, 0, 80, 80
1, 44568, Note_on_c, 1, 63, 70
1, 44591, Note_on_c, 0, 80, 0
1, 44591, Note_on_c, 1, 63, 0
1, 44592, Note_on_c, 0, 82, 80
1, 44592, Note_on_c, 1, 60, 70
1, 44615, Note_on_c, 0, 82, 0
1, 44615, Note_on_c, 1, 60, 0
1, 44616, Note_on_c, 0, 84, 80
1, 44616, Note_on_c, 1, 63, 70
1, 44639, Note_on_c, 0, 84, 0
1, 44639, Note_on_c, 1, 63, 0
1, 44640, Note_on_c, 0, 82, 96
1, 44640, Note_on_c, 1, 55, 70
1, 44663, Note_on_c, 1, 55, 0
1, 44664, Note_on_c, 1, 64, 70
1, 44687, Note_on_c, 1, 64, 0
1, 44688, Note_on_c, 1, 58, 70
1, 44711, Note_on_c, 1, 58, 0
1, 44712, Note_on_c, 1, 64, 70
1, 44735, Note_on_c, 1, 64, 0
1, 44736, Note_on_c, 1, 55, 70
1, 44759, Note_on_c, 1, 55, 0
1, 44760, Note_on_c, 1, 64, 70
1, 44783, Note_on_c, 1, 64, 0
1, 44784, Note_on_c, 0, 82, 0
1, 44784, Note_on_c, 0, 79, 80
1, 44784, Note_on_c, 1, 58, 70
1, 44807, Note_on_c, 0, 79, 0
1, 44807, Note_on_c, 1, 58, 0
1, 44808, Note_on_c, 0, 76, 80
1, 44808, Note_on_c, 1, 64, 70
1, 44831, Note_on_c, 0, 76, 0
1, 44831, Note_on_c, 1, 64, 0
1, 44832, Note_on_c, 0, 72, 80
1, 44832, Note_on_c, 1, 55, 70
1, 44855, Note_on_c, 1, 55, 0
1, 44856, Note_on_c, 1, 64, 70
1, 44877, Note_on_c, 0, 72, 0
1, 44879, Note_on_c, 1, 64, 0
1, 44880, Note_on_c, 0, 70, 80
1, 44880, Note_on_c, 1, 58, 70
1, 44903, Note_on_c, 1, 58, 0
1, 44904, Note_on_c, 1, 64, 70
1, 44925, Note_on_c, 0, 70, 0
1, 44927, Note_on_c, 1, 64, 0
1, 44928, Note_on_c, 0, 68, 80
1, 44928, Note_on_c, 1, 53, 70
1, 44951, Note_on_c, 1, 53, 0
1, 44952, Note_on_c, 1, 60, 70
1, 44973, Note_on_c, 0, 68, 0
1, 44975, Note_on_c, 1, 60, 0
1, 44976, Note_on_c, 1, 56, 70
1, 44999, Note_on_c, 1, 56, 0
1, 45000, Note_on_c, 1, 60, 70
1, 45023, Note_on_c, 1, 60, 0
1, 45024, Note_on_c, 0, 65, 80
1, 45024, Note_on_c, 1, 53, 70
1, 45047, Note_on_c, 0, 65, 0
1, 45047, Note_on_c, 1, 53, 0
1, 45048, Note_on_c, 0, 67, 80
1, 45048, Note_on_c, 1, 60, 70
1, 45071, Note_on_c, 0, 67, 0
1, 45071, Note_on_c, 1, 60, 0
1, 45072, Note_on_c, 0, 68, 80
1, 45072, Note_on_c, 1, 56, 70
1, 45095, Note_on_c, 0, 68, 0
1, 45095, Note_on_c, 1, 56, 0
1, 45096, Note_on_c, 0, 70, 80
1, 45096, Note_on_c, 1, 60, 70
1, 45119, Note_on_c, 0, 70, 0
1, 45119, Note_on_c, 1, 60, 0
1, 45120, Note_on_c, 0, 72, 80
1, 45120, Note_on_c, 1, 53, 70
1, 45143, Note_on_c, 0, 72, 0
1, 45143, Note_on_c, 1, 53, 0
1, 45144, Note_on_c, 0, 74, 80
1, 45144, Note_on_c, 1, 60, 70
1, 45167, Note_on_c, 0, 74, 0
1, 45167, Note_on_c, 1, 60, 0
1, 45168, Note_on_c, 0, 76, 80
1, 45168, Note_on_c, 1, 56, 70
1, 45191, Note_on_c, 0, 76, 0
1, 45191, Note_on_c, 1, 56, 0
1, 45192, Note_on_c, 0, 77, 80
1, 45192, Note_on_c, 1, 60, 70
1, 45202, Note_on_c, 0, 77, 0
1, 45215, Note_on_c, 1, 60, 0
1, 45216, Note_on_c, 0, 77, 96
1, 45216, Note_on_c, 1, 55, 70
1, 45239, Note_on_c, 1, 55, 0
1, 45240, Note_on_c, 1, 60, 70
1, 45263, Note_on_c, 1, 60, 0
1, 45264, Note_on_c, 1, 58, 70
1, 45287, Note_on_c, 1, 58, 0
1, 45288, Note_on_c, 1, 60, 70
1, 45311, Note_on_c, 1, 60, 0
1, 45312, Note_on_c, 0, 77, 0
1, 45312, Note_on_c, 0, 76, 80
1, 45312, Note_on_c, 1, 55, 70
1, 45335, Note_on_c, 1, 55, 0
1, 45336, Note_on_c, 1, 60, 70
1, 45357, Note_on_c, 0, 76, 0
1, 45359, Note_on_c, 1, 60, 0
1, 45360, Note_on_c, 0, 73, 80
1, 45360, Note_on_c, 1, 53, 70
1, 45383, Note_on_c, 1, 53, 0
1, 45384, Note_on_c, 1, 60, 70
1, 45405, Note_on_c, 0, 73, 0
1, 45407, Note_on_c, 1, 60, 0
1, 45408, Note_on_c, 0, 72, 80
1, 45408, Note_on_c, 1, 52, 70
1, 45431, Note_on_c, 1, 52, 0
1, 45432, Note_on_c, 1, 60, 70
1, 45453, Note_on_c, 0, 72, 0
1, 45455, Note_on_c, 1, 60, 0
1, 45456, Note_on_c, 0, 70, 80
1, 45456, Note_on_c, 1, 55, 70
1, 45479, Note_on_c, 1, 55, 0
1, 45480, Note_on_c, 1, 60, 70
1, 45501, Note_on_c, 0, 70, 0
1, 45503, Note_on_c, 1, 60, 0
1, 45504, Note_on_c, 0, 68, 80
1, 45504, Note_on_c, 1, 53, 70
1, 45527, Note_on_c, 1, 53, 0
1, 45528, Note_on_c, 1, 60, 70
1, 45549, Note_on_c, 0, 68, 0
1, 45551, Note_on_c, 1, 60, 0
1, 45552, Note_on_c, 1, 56, 70
1, 45575, Note_on_c, 1, 56, 0
1, 45576, Note_on_c, 1, 60, 70
1, 45599, Note_on_c, 1, 60, 0
1, 45600, Note_on_c, 0, 65, 80
1, 45600, Note_on_c, 1, 53, 70
1, 45623, Note_on_c, 0, 65, 0
1, 45623, Note_on_c, 1, 53, 0
1, 45624, Note_on_c, 0, 67, 80
1, 45624, Note_on_c, 1, 60, 70
1, 45647, Note_on_c, 0, 67, 0
1, 45647, Note_on_c, 1, 60, 0
1, 45648, Note_on_c, 0, 68, 80
1, 45648, Note_on_c, 1, 56, 70
1, 45671, Note_on_c, 0, 68, 0
1, 45671, Note_on_c, 1, 56, 0
1, 45672, Note_on_c, 0, 70, 80
1, 45672, Note_on_c, 1, 60, 70
1, 45695, Note_on_c, 0, 70, 0
1, 45695, Note_on_c, 1, 60, 0
1, 45696, Note_on_c, 0, 72, 80
1, 45696, Note_on_c, 1, 53, 70
1, 45719, Note_on_c, 0, 72, 0
1, 45719, Note_on_c, 1, 53, 0
1, 45720, Note_on_c, 0, 74, 80
1, 45720, Note_on_c, 1, 60, 70
1, 45743, Note_on_c, 0, 74, 0
1, 45743, Note_on_c, 1, 60, 0
1, 45744, Note_on_c, 0, 76, 80
1, 45744, Note_on_c, 1, 56, 70
1, 45767, Note_on_c, 0, 76, 0
1, 45767, Note_on_c, 1, 56, 0
1, 45768, Note_on_c, 0, 77, 80
1, 45768, Note_on_c, 1, 60, 70
1, 45791, Note_on_c, 0, 77, 0
1, 45791, Note_on_c, 1, 60, 0
1, 45792, Note_on_c, 0, 78, 96
1, 45792, Note_on_c, 1, 51, 70
1, 45815, Note_on_c, 1, 51, 0
1, 45816, Note_on_c, 1, 60, 70
1, 45839, Note_on_c, 1, 60, 0
1, 45840, Note_on_c, 1, 56, 70
1, 45863, Note_on_c, 1, 56, 0
1, 45864, Note_on_c, 1, 60, 70
1, 45887, Note_on_c, 1, 60, 0
1, 45888, Note_on_c, 1, 51, 70
1, 45911, Note_on_c, 1, 51, 0
1, 45912, Note_on_c, 1, 60, 70
1, 45935, Note_on_c, 1, 60, 0
1, 45936, Note_on_c, 0, 78, 0
1, 45936, Note_on_c, 0, 75, 80
1, 45936, Note_on_c, 1, 56, 70
1, 45959, Note_on_c, 0, 75, 0
1, 45959, Note_on_c, 1, 56, 0
1, 45960, Note_on_c, 0, 72, 80
1, 45960, Note_on_c, 1, 60, 70
1, 45983, Note_on_c, 0, 72, 0
1, 45983, Note_on_c, 1, 60, 0
1, 45984, Note_on_c, 0, 68, 80
1, 45984, Note_on_c, 1, 51, 70
1, 46007, Note_on_c, 1, 51, 0
1, 46008, Note_on_c, 1, 60, 70
1, 46029, Note_on_c, 0, 68, 0
1, 46031, Note_on_c, 1, 60, 0
1, 46032, Note_on_c, 0, 66, 80
1, 46032, Note_on_c, 1, 56, 70
1, 46055, Note_on_c, 1, 56, 0
1, 46056, Note_on_c, 1, 60, 70
1, 46077, Note_on_c, 0, 66, 0
1, 46079, Note_on_c, 1, 60, 0
1, 46080, Note_on_c, 0, 65, 80
1, 46080, Note_on_c, 1, 49, 70
1, 46103, Note_on_c, 1, 49, 0
1, 46104, Note_on_c, 1, 56, 70
1, 46127, Note_on_c, 1, 56, 0
1, 46128, Note_on_c, 1, 53, 70
1, 46151, Note_on_c, 1, 53, 0
1, 46152, Note_on_c, 1, 56, 70
1, 46169, Note_on_c, 0, 65, 0
1, 46175, Note_on_c, 1, 56, 0
1, 46176, Note_on_c, 1, 49, 70
1, 46199, Note_on_c, 1, 49, 0
1, 46200, Note_on_c, 1, 56, 70
1, 46223, Note_on_c, 1, 56, 0
1, 46224, Note_on_c, 0, 77, 80
1, 46224, Note_on_c, 1, 53, 70
1, 46247, Note_on_c, 1, 53, 0
1, 46248, Note_on_c, 1, 56, 70
1, 46269, Note_on_c, 0, 77, 0
1, 46271, Note_on_c, 1, 56, 0
1, 46272, Note_on_c, 0, 77, 80
1, 46272, Note_on_c, 1, 49, 70
1, 46295, Note_on_c, 1, 49, 0
1, 46296, Note_on_c, 1, 56, 70
1, 46317, Note_on_c, 0, 77, 0
1, 46319, Note_on_c, 1, 56, 0
1, 46320, Note_on_c, 0, 77, 80
1, 46320, Note_on_c, 1, 53, 70
1, 46343, Note_on_c, 1, 53, 0
1, 46344, Note_on_c, 1, 56, 70
1, 46365, Note_on_c, 0, 77, 0
1, 46367, Note_on_c, 1, 56, 0
1, 46368, Note_on_c, 0, 75, 80
1, 46368, Note_on_c, 1, 48, 70
1, 46380, Note_on_c, 0, 75, 0
1, 46380, Note_on_c, 0, 77, 80
1, 46391, Note_on_c, 1, 48, 0
1, 46392, Note_on_c, 0, 77, 0
1, 46392, Note_on_c, 0, 78, 96
1, 46392, Note_on_c, 1, 56, 70
1, 46415, Note_on_c, 1, 56, 0
1, 46416, Note_on_c, 1, 51, 70
1, 46439, Note_on_c, 1, 51, 0
1, 46440, Note_on_c, 1, 56, 70
1, 46463, Note_on_c, 1, 56, 0
1, 46464, Note_on_c, 1, 48, 70
1, 46487, Note_on_c, 1, 48, 0
1, 46488, Note_on_c, 1, 56, 70
1, 46511, Note_on_c, 1, 56, 0
1, 46512, Note_on_c, 0, 78, 0
1, 46512, Note_on_c, 0, 75, 80
1, 46512, Note_on_c, 1, 51, 70
1, 46535, Note_on_c, 0, 75, 0
1, 46535, Note_on_c, 1, 51, 0
1, 46536, Note_on_c, 0, 72, 80
1, 46536, Note_on_c, 1, 56, 70
1, 46559, Note_on_c, 0, 72, 0
1, 46559, Note_on_c, 1, 56, 0
1, 46560, Note_on_c, 0, 68, 80
1, 46560, Note_on_c, 1, 48, 70
1, 46583, Note_on_c, 1, 48, 0
1, 46584, Note_on_c, 1, 56, 70
1, 46605, Note_on_c, 0, 68, 0
1, 46607, Note_on_c, 1, 56, 0
1, 46608, Note_on_c, 0, 66, 80
1, 46608, Note_on_c, 1, 51, 70
1, 46631, Note_on_c, 1, 51, 0
1, 46632, Note_on_c, 1, 56, 70
1, 46653, Note_on_c, 0, 66, 0
1, 46655, Note_on_c, 1, 56, 0
1, 46656, Note_on_c, 0, 65, 80
1, 46656, Note_on_c, 1, 49, 70
1, 46679, Note_on_c, 1, 49, 0
1, 46680, Note_on_c, 1, 56, 70
1, 46703, Note_on_c, 1, 56, 0
1, 46704, Note_on_c, 1, 53, 70
1, 46727, Note_on_c, 1, 53, 0
1, 46728, Note_on_c, 1, 56, 70
1, 46745, Note_on_c, 0, 65, 0
1, 46751, Note_on_c, 1, 56, 0
1, 46752, Note_on_c, 1, 49, 70
1, 46775, Note_on_c, 1, 49, 0
1, 46776, Note_on_c, 1, 56, 70
1, 46799, Note_on_c, 1, 56, 0
1, 46800, Note_on_c, 0, 73, 80
1, 46800, Note_on_c, 1, 53, 70
1, 46823, Note_on_c, 0, 73, 0
1, 46823, Note_on_c, 1, 53, 0
1, 46824, Note_on_c, 0, 77, 80
1, 46824, Note_on_c, 1, 56, 70
1, 46847, Note_on_c, 0, 77, 0
1, 46847, Note_on_c, 1, 56, 0
1, 46848, Note_on_c, 0, 80, 80
1, 46848, Note_on_c, 1, 49, 70
1, 46871, Note_on_c, 1, 49, 0
1, 46872, Note_on_c, 1, 56, 70
1, 46893, Note_on_c, 0, 80, 0
1, 46895, Note_on_c, 1, 56, 0
1, 46896, Note_on_c, 0, 80, 80
1, 46896, Note_on_c, 1, 53, 70
1, 46919, Note_on_c, 1, 53, 0
1, 46920, Note_on_c, 1, 56, 70
1, 46941, Note_on_c, 0, 80, 0
1, 46943, Note_on_c, 1, 56, 0
1, 46944, Note_on_c, 0, 78, 80
1, 46944, Note_on_c, 1, 48, 70
1, 46967, Note_on_c, 0, 78, 0
1, 46967, Note_on_c, 1, 48, 0
1, 46968, Note_on_c, 0, 80, 80
1, 46968, Note_on_c, 1, 56, 70
1, 46991, Note_on_c, 0, 80, 0
1, 46991, Note_on_c, 1, 56, 0
1, 46992, Note_on_c, 0, 78, 80
1, 46992, Note_on_c, 1, 51, 70
1, 47015, Note_on_c, 0, 78, 0
1, 47015, Note_on_c, 1, 51, 0
1, 47016, Note_on_c, 0, 77, 80
1, 47016, Note_on_c, 1, 56, 70
1, 47039, Note_on_c, 0, 77, 0
1, 47039, Note_on_c, 1, 56, 0
1, 47040, Note_on_c, 0, 75, 80
1, 47040, Note_on_c, 1, 48, 70
1, 47063, Note_on_c, 0, 75, 0
1, 47063, Note_on_c, 1, 48, 0
1, 47064, Note_on_c, 0, 77, 80
1, 47064, Note_on_c, 1, 56, 70
1, 47087, Note_on_c, 0, 77, 0
1, 47087, Note_on_c, 1, 56, 0
1, 47088, Note_on_c, 0, 75, 80
1, 47088, Note_on_c, 1, 51, 70
1, 47111, Note_on_c, 0, 75, 0
1, 47111, Note_on_c, 1, 51, 0
1, 47112, Note_on_c, 0, 73, 80
1, 47112, Note_on_c, 1, 56, 70
1, 47135, Note_on_c, 0, 73, 0
1, 47135, Note_on_c, 1, 56, 0
1, 47136, Note_on_c, 0, 72, 80
1, 47136, Note_on_c, 1, 48, 70
1, 47159, Note_on_c, 0, 72, 0
1, 47159, Note_on_c, 1, 48, 0
1, 47160, Note_on_c, 0, 70, 80
1, 47160, Note_on_c, 1, 56, 70
1, 47183, Note_on_c, 0, 70, 0
1, 47183, Note_on_c, 1, 56, 0
1, 47184, Note_on_c, 0, 68, 80
1, 47184, Note_on_c, 1, 51, 70
1, 47207, Note_on_c, 0, 68, 0
1, 47207, Note_on_c, 1, 51, 0
1, 47208, Note_on_c, 0, 66, 80
1, 47208, Note_on_c, 1, 56, 70
1, 47231, Note_on_c, 0, 66, 0
1, 47231, Note_on_c, 1, 56, 0
1, 47232, Note_on_c, 0, 65, 80
1, 47232, Note_on_c, 1, 49, 70
1, 47255, Note_on_c, 1, 49, 0
1, 47256, Note_on_c, 1, 56, 70
1, 47279, Note_on_c, 1, 56, 0
1, 47280, Note_on_c, 1, 53, 70
1, 47303, Note_on_c, 1, 53, 0
1, 47304, Note_on_c, 1, 56, 70
1, 47321, Note_on_c, 0, 65, 0
1, 47327, Note_on_c, 1, 56, 0
1, 47328, Note_on_c, 1, 49, 70
1, 47351, Note_on_c, 1, 49, 0
1, 47352, Note_on_c, 1, 56, 70
1, 47375, Note_on_c, 1, 56, 0
1, 47376, Note_on_c, 0, 77, 80
1, 47376, Note_on_c, 1, 53, 70
1, 47399, Note_on_c, 1, 53, 0
1, 47400, Note_on_c, 1, 56, 70
1, 47421, Note_on_c, 0, 77, 0
1, 47423, Note_on_c, 1, 56, 0
1, 47424, Note_on_c, 0, 77, 80
1, 47424, Note_on_c, 1, 49, 70
1, 47447, Note_on_c, 1, 49, 0
1, 47448, Note_on_c, 1, 56, 70
1, 47469, Note_on_c, 0, 77, 0
1, 47471, Note_on_c, 1, 56, 0
1, 47472, Note_on_c, 0, 77, 80
1, 47472, Note_on_c, 1, 53, 70
1, 47495, Note_on_c, 1, 53, 0
1, 47496, Note_on_c, 1, 56, 70
1, 47517, Note_on_c, 0, 77, 0
1, 47519, Note_on_c, 1, 56, 0
1, 47520, Note_on_c, 0, 77, 80
1, 47520, Note_on_c, 1, 48, 70
1, 47532, Note_on_c, 0, 77, 0
1, 47532, Note_on_c, 0, 79, 80
1, 47543, Note_on_c, 1, 48, 0
1, 47544, Note_on_c, 0, 79, 0
1, 47544, Note_on_c, 0, 80, 96
1, 47544, Note_on_c, 1, 56, 70
1, 47567, Note_on_c, 1, 56, 0
1, 47568, Note_on_c, 1, 53, 70
1, 47591, Note_on_c, 1, 53, 0
1, 47592, Note_on_c, 1, 56, 70
1, 47615, Note_on_c, 1, 56, 0
1, 47616, Note_on_c, 0, 80, 0
1, 47616, Note_on_c, 1, 48, 70
1, 47639, Note_on_c, 1, 48, 0
1, 47640, Note_on_c, 1, 56, 70
1, 47663, Note_on_c, 1, 56, 0
1, 47664, Note_on_c, 0, 77, 75
1, 47664, Note_on_c, 1, 53, 70
1, 47687, Note_on_c, 1, 53, 0
1, 47688, Note_on_c, 1, 56, 70
1, 47709, Note_on_c, 0, 77, 0
1, 47711, Note_on_c, 1, 56, 0
1, 47712, Note_on_c, 0, 77, 75
1, 47712, Note_on_c, 1, 48, 70
1, 47735, Note_on_c, 1, 48, 0
1, 47736, Note_on_c, 1, 56, 70
1, 47757, Note_on_c, 0, 77, 0
1, 47759, Note_on_c, 1, 56, 0
1, 47760, Note_on_c, 0, 77, 75
1, 47760, Note_on_c, 1, 53, 70
1, 47783, Note_on_c, 1, 53, 0
1, 47784, Note_on_c, 1, 56, 70
1, 47805, Note_on_c, 0, 77, 0
1, 47807, Note_on_c, 1, 56, 0
1, 47808, Note_on_c, 0, 77, 75
1, 47808, Note_on_c, 1, 47, 70
1, 47820, Note_on_c, 0, 77, 0
1, 47820, Note_on_c, 0, 79, 75
1, 47831, Note_on_c, 1, 47, 0
1, 47832, Note_on_c, 0, 79, 0
1, 47832, Note_on_c, 0, 80, 91
1, 47832, Note_on_c, 1, 56, 70
1, 47855, Note_on_c, 1, 56, 0
1, 47856, Note_on_c, 1, 53, 70
1, 47879, Note_on_c, 1, 53, 0
1, 47880, Note_on_c, 1, 56, 70
1, 47903, Note_on_c, 1, 56, 0
1, 47904, Note_on_c, 0, 80, 0
1, 47904, Note_on_c, 1, 47, 70
1, 47927, Note_on_c, 1, 47, 0
1, 47928, Note_on_c, 1, 56, 70
1, 47951, Note_on_c, 1, 56, 0
1, 47952, Note_on_c, 0, 77, 75
1, 47952, Note_on_c, 1, 53, 71
1, 47975, Note_on_c, 1, 53, 0
1, 47976, Note_on_c, 1, 56, 72
1, 47997, Note_on_c, 0, 77, 0
1, 47999, Note_on_c, 1, 56, 0
1, 48000, Note_on_c, 0, 77, 76
1, 48000, Note_on_c, 1, 47, 73
1, 48023, Note_on_c, 1, 47, 0
1, 48024, Note_on_c, 1, 56, 74
1, 48045, Note_on_c, 0, 77, 0
1, 48047, Note_on_c, 1, 56, 0
1, 48048, Note_on_c, 0, 77, 77
1, 48048, Note_on_c, 1, 53, 75
1, 48071, Note_on_c, 1, 53, 0
1, 48072, Note_on_c, 1, 56, 75
1, 48093, Note_on_c, 0, 77, 0
1, 48095, Note_on_c, 1, 56, 0
1, 48096, Note_on_c, 0, 76, 79
1, 48096, Note_on_c, 1, 48, 76
1, 48119, Note_on_c, 0, 76, 0
1, 48120, Note_on_c, 0, 72, 80
1, 48143, Note_on_c, 0, 72, 0
1, 48144, Note_on_c, 0, 76, 80
1, 48167, Note_on_c, 0, 76, 0
1, 48168, Note_on_c, 0, 79, 80
1, 48185, Note_on_c, 1, 48, 0
1, 48191, Note_on_c, 0, 79, 0
1, 48192, Note_on_c, 0, 84, 80
1, 48215, Note_on_c, 0, 84, 0
1, 48216, Note_on_c, 0, 72, 80
1, 48239, Note_on_c, 0, 72, 0
1, 48240, Note_on_c, 0, 76, 80
1, 48263, Note_on_c, 0, 76, 0
1, 48264, Note_on_c, 0, 79, 80
1, 48287, Note_on_c, 0, 79, 0
1, 48288, Note_on_c, 0, 84, 80
1, 48288, Note_on_c, 1, 64, 80
1, 48288, Note_on_c, 1, 60, 80
1, 48311, Note_on_c, 0, 84, 0
1, 48312, Note_on_c, 0, 82, 80
1, 48335, Note_on_c, 0, 82, 0
1, 48336, Note_on_c, 0, 80, 80
1, 48359, Note_on_c, 0, 80, 0
1, 48360, Note_on_c, 0, 79, 80
1, 48377, Note_on_c, 1, 64, 0
1, 48377, Note_on_c, 1, 60, 0
1, 48383, Note_on_c, 0, 79, 0
1, 48384, Note_on_c, 0, 80, 80
1, 48384, Note_on_c, 1, 65, 80
1, 48384, Note_on_c, 1, 60, 80
1, 48407, Note_on_c, 0, 80, 0
1, 48408, Note_on_c, 0, 72, 80
1, 48431, Note_on_c, 0, 72, 0
1, 48432, Note_on_c, 0, 77, 80
1, 48455, Note_on_c, 0, 77, 0
1, 48456, Note_on_c, 0, 80, 80
1, 48473, Note_on_c, 1, 65, 0
1, 48473, Note_on_c, 1, 60, 0
1, 48479, Note_on_c, 0, 80, 0
1, 48480, Note_on_c, 0, 84, 80
1, 48503, Note_on_c, 0, 84, 0
1, 48504, Note_on_c, 0, 72, 80
1, 48527, Note_on_c, 0, 72, 0
1, 48528, Note_on_c, 0, 77, 80
1, 48551, Note_on_c, 0, 77, 0
1, 48552, Note_on_c, 0, 80, 80
1, 48575, Note_on_c, 0, 80, 0
1, 48576, Note_on_c, 0, 84, 80
1, 48576, Note_on_c, 1, 68, 80
1, 48576, Note_on_c, 1, 60, 80
1, 48599, Note_on_c, 0, 84, 0
1, 48600, Note_on_c, 0, 80, 80
1, 48623, Note_on_c, 0, 80, 0
1, 48624, Note_on_c, 0, 79, 80
1, 48647, Note_on_c, 0, 79, 0
1, 48648, Note_on_c, 0, 77, 80
1, 48665, Note_on_c, 1, 68, 0
1, 48665, Note_on_c, 1, 60, 0
1, 48671, Note_on_c, 0, 77, 0
1, 48672, Note_on_c, 0, 76, 80
1, 48672, Note_on_c, 1, 67, 80
1, 48672, Note_on_c, 1, 60, 80
1, 48695, Note_on_c, 0, 76, 0
1, 48696, Note_on_c, 0, 72, 80
1, 48719, Note_on_c, 0, 72, 0
1, 48720, Note_on_c, 0, 76, 80
1, 48743, Note_on_c, 0, 76, 0
1, 48744, Note_on_c, 0, 79, 80
1, 48761, Note_on_c, 1, 67, 0
1, 48761, Note_on_c, 1, 60, 0
1, 48767, Note_on_c, 0, 79, 0
1, 48768, Note_on_c, 0, 84, 80
1, 48791, Note_on_c, 0, 84, 0
1, 48792, Note_on_c, 0, 72, 80
1, 48815, Note_on_c, 0, 72, 0
1, 48816, Note_on_c, 0, 76, 80
1, 48816, Note_on_c, 1, 64, 80
1, 48816, Note_on_c, 1, 60, 80
1, 48836, Note_on_c, 1, 64, 0
1, 48836, Note_on_c, 1, 60, 0
1, 48839, Note_on_c, 0, 76, 0
1, 48840, Note_on_c, 0, 79, 80
1, 48863, Note_on_c, 0, 79, 0
1, 48864, Note_on_c, 0, 84, 80
1, 48864, Note_on_c, 1, 64, 80
1, 48864, Note_on_c, 1, 60, 80
1, 48884, Note_on_c, 1, 64, 0
1, 48884, Note_on_c, 1, 60, 0
1, 48887, Note_on_c, 0, 84, 0
1, 48888, Note_on_c, 0, 82, 80
1, 48911, Note_on_c, 0, 82, 0
1, 48912, Note_on_c, 0, 80, 80
1, 48912, Note_on_c, 1, 64, 80
1, 48912, Note_on_c, 1, 60, 80
1, 48932, Note_on_c, 1, 64, 0
1, 48932, Note_on_c, 1, 60, 0
1, 48935, Note_on_c, 0, 80, 0
1, 48936, Note_on_c, 0, 79, 80
1, 48959, Note_on_c, 0, 79, 0
1, 48960, Note_on_c, 0, 80, 80
1, 48960, Note_on_c, 1, 65, 80
1, 48960, Note_on_c, 1, 60, 80
1, 48983, Note_on_c, 0, 80, 0
1, 48984, Note_on_c, 0, 72, 80
1, 49007, Note_on_c, 0, 72, 0
1, 49008, Note_on_c, 0, 77, 80
1, 49031, Note_on_c, 0, 77, 0
1, 49032, Note_on_c, 0, 80, 80
1, 49049, Note_on_c, 1, 65, 0
1, 49049, Note_on_c, 1, 60, 0
1, 49055, Note_on_c, 0, 80, 0
1, 49056, Note_on_c, 0, 84, 80
1, 49079, Note_on_c, 0, 84, 0
1, 49080, Note_on_c, 0, 72, 80
1, 49103, Note_on_c, 0, 72, 0
1, 49104, Note_on_c, 0, 77, 80
1, 49104, Note_on_c, 1, 68, 80
1, 49104, Note_on_c, 1, 60, 80
1, 49124, Note_on_c, 1, 68, 0
1, 49124, Note_on_c, 1, 60, 0
1, 49127, Note_on_c, 0, 77, 0
1, 49128, Note_on_c, 0, 80, 80
1, 49151, Note_on_c, 0, 80, 0
1, 49152, Note_on_c, 0, 84, 80
1, 49152, Note_on_c, 1, 68, 80
1, 49152, Note_on_c, 1, 60, 80
1, 49172, Note_on_c, 1, 68, 0
1, 49172, Note_on_c, 1, 60, 0
1, 49175, Note_on_c, 0, 84, 0
1, 49176, Note_on_c, 0, 80, 80
1, 49199, Note_on_c, 0, 80, 0
1, 49200, Note_on_c, 0, 79, 80
1, 49200, Note_on_c, 1, 68, 80
1, 49200, Note_on_c, 1, 60, 80
1, 49220, Note_on_c, 1, 68, 0
1, 49220, Note_on_c, 1, 60, 0
1, 49223, Note_on_c, 0, 79, 0
1, 49224, Note_on_c, 0, 77, 80
1, 49247, Note_on_c, 0, 77, 0
1, 49248, Note_on_c, 0, 76, 80
1, 49248, Note_on_c, 1, 67, 80
1, 49248, Note_on_c, 1, 60, 80
1, 49260, Note_on_c, 0, 76, 0
1, 49260, Note_on_c, 0, 79, 80
1, 49272, Note_on_c, 0, 79, 0
1, 49272, Note_on_c, 0, 84, 96
1, 49381, Note_on_c, 1, 67, 0
1, 49381, Note_on_c, 1, 60, 0
1, 49392, Note_on_c, 0, 84, 0
1, 49680, Note_on_c, 0, 73, 64
1, 49680, Note_on_c, 0, 70, 64
1, 49700, Note_on_c, 0, 73, 0
1, 49700, Note_on_c, 0, 70, 0
1, 49728, Note_on_c, 0, 73, 64
1, 49728, Note_on_c, 0, 70, 64
1, 49748, Note_on_c, 0, 73, 0
1, 49748, Note_on_c, 0, 70, 0
1, 49776, Note_on_c, 0, 73, 64
1, 49776, Note_on_c, 0, 70, 64
1, 49796, Note_on_c, 0, 73, 0
1, 49796, Note_on_c, 0, 70, 0
1, 49824, Note_on_c, 0, 73, 64
1, 49824, Note_on_c, 0, 70, 64
1, 49863, Note_on_c, 0, 73, 0
1, 49863, Note_on_c, 0, 70, 0
1, 49968, Note_on_c, 1, 40, 75
1, 49988, Note_on_c, 1, 40, 0
1, 50016, Note_on_c, 1, 40, 75
1, 50036, Note_on_c, 1, 40, 0
1, 50064, Note_on_c, 1, 40, 75
1, 50084, Note_on_c, 1, 40, 0
1, 50112, Note_on_c, 1, 40, 75
1, 50151, Note_on_c, 1, 40, 0
1, 50256, Note_on_c, 0, 72, 64
1, 50256, Note_on_c, 0, 70, 64
1, 50256, Note_on_c, 1, 67, 64
1, 50256, Note_on_c, 1, 64, 64
1, 50276, Note_on_c, 0, 72, 0
1, 50276, Note_on_c, 0, 70, 0
1, 50276, Note_on_c, 1, 67, 0
1, 50276, Note_on_c, 1, 64, 0
1, 50304, Note_on_c, 0, 72, 64
1, 50304, Note_on_c, 0, 70, 64
1, 50304, Note_on_c, 1, 67, 64
1, 50304, Note_on_c, 1, 64, 64
1, 50324, Note_on_c, 0, 72, 0
1, 50324, Note_on_c, 0, 70, 0
1, 50324, Note_on_c, 1, 67, 0
1, 50324, Note_on_c, 1, 64, 0
1, 50352, Note_on_c, 0, 72, 64
1, 50352, Note_on_c, 0, 70, 64
1, 50352, Note_on_c, 1, 67, 64
1, 50352, Note_on_c, 1, 64, 64
1, 50372, Note_on_c, 0, 72, 0
1, 50372, Note_on_c, 0, 70, 0
1, 50372, Note_on_c, 1, 67, 0
1, 50372, Note_on_c, 1, 64, 0
1, 50400, Note_on_c, 0, 72, 64
1, 50400, Note_on_c, 0, 70, 64
1, 50400, Note_on_c, 1, 67, 64
1, 50400, Note_on_c, 1, 64, 64
1, 50439, Note_on_c, 0, 72, 0
1, 50439, Note_on_c, 0, 70, 0
1, 50439, Note_on_c, 1, 67, 0
1, 50439, Note_on_c, 1, 64, 0
1, 50544, Note_on_c, 1, 41, 75
1, 50564, Note_on_c, 1, 41, 0
1, 50592, Note_on_c, 1, 41, 75
1, 50612, Note_on_c, 1, 41, 0
1, 50640, Note_on_c, 1, 41, 75
1, 50660, Note_on_c, 1, 41, 0
1, 50688, Note_on_c, 1, 41, 75
1, 50727, Note_on_c, 1, 41, 0
1, 50832, Note_on_c, 0, 78, 64
1, 50832, Note_on_c, 0, 69, 64
1, 50832, Note_on_c, 1, 63, 64
1, 50852, Note_on_c, 0, 78, 0
1, 50852, Note_on_c, 0, 69, 0
1, 50852, Note_on_c, 1, 63, 0
1, 50880, Note_on_c, 0, 78, 64
1, 50880, Note_on_c, 0, 69, 64
1, 50880, Note_on_c, 1, 63, 64
1, 50900, Note_on_c, 0, 78, 0
1, 50900, Note_on_c, 0, 69, 0
1, 50900, Note_on_c, 1, 63, 0
1, 50928, Note_on_c, 0, 78, 64
1, 50928, Note_on_c, 0, 69, 64
1, 50928, Note_on_c, 1, 63, 64
1, 50948, Note_on_c, 0, 78, 0
1, 50948, Note_on_c, 0, 69, 0
1, 50948, Note_on_c, 1, 63, 0
1, 50976, Note_on_c, 0, 78, 64
1, 50976, Note_on_c, 0, 69, 64
1, 50976, Note_on_c, 1, 63, 64
1, 51015, Note_on_c, 0, 78, 0
1, 51015, Note_on_c, 0, 69, 0
1, 51015, Note_on_c, 1, 63, 0
1, 51120, Note_on_c, 1, 36, 75
1, 51140, Note_on_c, 1, 36, 0
1, 51168, Note_on_c, 1, 36, 75
1, 51188, Note_on_c, 1, 36, 0
1, 51216, Note_on_c, 1, 36, 75
1, 51236, Note_on_c, 1, 36, 0
1, 51264, Note_on_c, 1, 36, 75
1, 51303, Note_on_c, 1, 36, 0
1, 51408, Note_on_c, 0, 77, 64
1, 51408, Note_on_c, 0, 70, 64
1, 51408, Note_on_c, 1, 61, 64
1, 51428, Note_on_c, 0, 77, 0
1, 51428, Note_on_c, 0, 70, 0
1, 51428, Note_on_c, 1, 61, 0
1, 51456, Note_on_c, 0, 77, 64
1, 51456, Note_on_c, 0, 70, 64
1, 51456, Note_on_c, 1, 61, 64
1, 51476, Note_on_c, 0, 77, 0
1, 51476, Note_on_c, 0, 70, 0
1, 51476, Note_on_c, 1, 61, 0
1, 51504, Note_on_c, 0, 77, 64
1, 51504, Note_on_c, 0, 70, 64
1, 51504, Note_on_c, 1, 61, 64
1, 51524, Note_on_c, 0, 77, 0
1, 51524, Note_on_c, 0, 70, 0
1, 51524, Note_on_c, 1, 61, 0
1, 51552, Note_on_c, 0, 77, 64
1, 51552, Note_on_c, 0, 70, 64
1, 51552, Note_on_c, 1, 61, 64
1, 51591, Note_on_c, 0, 77, 0
1, 51591, Note_on_c, 0, 70, 0
1, 51591, Note_on_c, 1, 61, 0
1, 51696, Note_on_c, 1, 34, 75
1, 51716, Note_on_c, 1, 34, 0
1, 51744, Note_on_c, 1, 34, 75
1, 51764, Note_on_c, 1, 34, 0
1, 51792, Note_on_c, 1, 34, 75
1, 51812, Note_on_c, 1, 34, 0
1, 51840, Note_on_c, 1, 34, 75
1, 51879, Note_on_c, 1, 34, 0
1, 51984, Note_on_c, 0, 73, 64
1, 51984, Note_on_c, 0, 70, 64
1, 51984, Note_on_c, 1, 66, 64
1, 52004, Note_on_c, 0, 73, 0
1, 52004, Note_on_c, 0, 70, 0
1, 52004, Note_on_c, 1, 66, 0
1, 52032, Note_on_c, 0, 73, 64
1, 52032, Note_on_c, 0, 70, 64
1, 52032, Note_on_c, 1, 66, 64
1, 52052, Note_on_c, 0, 73, 0
1, 52052, Note_on_c, 0, 70, 0
1, 52052, Note_on_c, 1, 66, 0
1, 52080, Note_on_c, 0, 73, 64
1, 52080, Note_on_c, 0, 70, 64
1, 52080, Note_on_c, 1, 66, 64
1, 52100, Note_on_c, 0, 73, 0
1, 52100, Note_on_c, 0, 70, 0
1, 52100, Note_on_c, 1, 66, 0
1, 52128, Note_on_c, 0, 73, 64
1, 52128, Note_on_c, 0, 70, 64
1, 52128, Note_on_c, 1, 66, 64
1, 52217, Note_on_c, 1, 66, 0
1, 52224, Note_on_c, 1, 65, 64
1, 52305, Note_on_c, 0, 73, 0
1, 52305, Note_on_c, 0, 70, 0
1, 52313, Note_on_c, 1, 65, 0
1, 52320, Note_on_c, 0, 74, 76
1, 52320, Note_on_c, 0, 71, 82
1, 52320, Note_on_c, 0, 68, 82
1, 52320, Note_on_c, 1, 64, 76
1, 52409, Note_on_c, 0, 74, 0
1, 52409, Note_on_c, 1, 64, 0
1, 52416, Note_on_c, 0, 75, 64
1, 52416, Note_on_c, 1, 63, 64
1, 52505, Note_on_c, 0, 71, 0
1, 52505, Note_on_c, 0, 68, 0
1, 52512, Note_on_c, 0, 70, 70
1, 52512, Note_on_c, 0, 67, 70
1, 52593, Note_on_c, 0, 75, 0
1, 52593, Note_on_c, 1, 63, 0
1, 52601, Note_on_c, 0, 70, 0
1, 52601, Note_on_c, 0, 67, 0
1, 52608, Note_on_c, 0, 75, 76
1, 52608, Note_on_c, 0, 69, 82
1, 52608, Note_on_c, 1, 65, 76
1, 52608, Note_on_c, 1, 60, 64
1, 52697, Note_on_c, 0, 69, 0
1, 52697, Note_on_c, 1, 65, 0
1, 52697, Note_on_c, 1, 60, 0
1, 52704, Note_on_c, 0, 70, 70
1, 52704, Note_on_c, 1, 66, 64
1, 52704, Note_on_c, 1, 58, 64
1, 52793, Note_on_c, 0, 75, 0
1, 52793, Note_on_c, 1, 66, 0
1, 52800, Note_on_c, 0, 73, 64
1, 52800, Note_on_c, 1, 65, 64
1, 52881, Note_on_c, 0, 70, 0
1, 52881, Note_on_c, 1, 58, 0
1, 52889, Note_on_c, 0, 73, 0
1, 52889, Note_on_c, 1, 65, 0
1, 52896, Note_on_c, 0, 76, 76
1, 52896, Note_on_c, 0, 73, 82
1, 52896, Note_on_c, 0, 70, 82
1, 52896, Note_on_c, 1, 67, 76
1, 52985, Note_on_c, 0, 76, 0
1, 52985, Note_on_c, 1, 67, 0
1, 52992, Note_on_c, 0, 77, 64
1, 52992, Note_on_c, 1, 65, 64
1, 53081, Note_on_c, 0, 73, 0
1, 53081, Note_on_c, 0, 70, 0
1, 53088, Note_on_c, 0, 72, 70
1, 53088, Note_on_c, 0, 68, 70
1, 53169, Note_on_c, 0, 77, 0
1, 53169, Note_on_c, 1, 65, 0
1, 53177, Note_on_c, 0, 72, 0
1, 53177, Note_on_c, 0, 68, 0
1, 53184, Note_on_c, 0, 77, 76
1, 53184, Note_on_c, 0, 71, 70
1, 53184, Note_on_c, 1, 67, 76
1, 53184, Note_on_c, 1, 62, 76
1, 53273, Note_on_c, 0, 71, 0
1, 53273, Note_on_c, 1, 67, 0
1, 53273, Note_on_c, 1, 62, 0
1, 53280, Note_on_c, 0, 72, 70
1, 53280, Note_on_c, 1, 68, 64
1, 53280, Note_on_c, 1, 60, 64
1, 53369, Note_on_c, 0, 77, 0
1, 53369, Note_on_c, 1, 68, 0
1, 53376, Note_on_c, 0, 75, 64
1, 53376, Note_on_c, 1, 67, 64
1, 53457, Note_on_c, 0, 72, 0
1, 53457, Note_on_c, 1, 60, 0
1, 53465, Note_on_c, 0, 75, 0
1, 53465, Note_on_c, 1, 67, 0
1, 53472, Note_on_c, 0, 78, 64
1, 53472, Note_on_c, 0, 75, 82
1, 53472, Note_on_c, 0, 72, 82
1, 53472, Note_on_c, 1, 68, 76
1, 53561, Note_on_c, 1, 68, 0
1, 53568, Note_on_c, 0, 78, 0
1, 53568, Note_on_c, 0, 79, 64
1, 53568, Note_on_c, 1, 67, 64
1, 53657, Note_on_c, 0, 75, 0
1, 53657, Note_on_c, 0, 72, 0
1, 53664, Note_on_c, 0, 74, 70
1, 53664, Note_on_c, 0, 71, 70
1, 53701, Note_on_c, 0, 79, 0
1, 53701, Note_on_c, 1, 67, 0
1, 53709, Note_on_c, 0, 74, 0
1, 53709, Note_on_c, 0, 71, 0
1, 53712, Note_on_c, 0, 80, 80
1, 53712, Note_on_c, 0, 74, 80
1, 53712, Note_on_c, 0, 71, 80
1, 53712, Note_on_c, 1, 65, 80
1, 53732, Note_on_c, 0, 80, 0
1, 53732, Note_on_c, 0, 74, 0
1, 53732, Note_on_c, 0, 71, 0
1, 53732, Note_on_c, 1, 65, 0
1, 53760, Note_on_c, 0, 80, 80
1, 53760, Note_on_c, 0, 74, 80
1, 53760, Note_on_c, 0, 71, 80
1, 53760, Note_on_c, 1, 65, 80
1, 53780, Note_on_c, 0, 80, 0
1, 53780, Note_on_c, 0, 74, 0
1, 53780, Note_on_c, 0, 71, 0
1, 53780, Note_on_c, 1, 65, 0
1, 53808, Note_on_c, 0, 80, 80
1, 53808, Note_on_c, 0, 74, 80
1, 53808, Note_on_c, 0, 71, 80
1, 53808, Note_on_c, 1, 65, 80
1, 53828, Note_on_c, 0, 80, 0
1, 53828, Note_on_c, 0, 74, 0
1, 53828, Note_on_c, 0, 71, 0
1, 53828, Note_on_c, 1, 65, 0
1, 53856, Note_on_c, 0, 80, 80
1, 53856, Note_on_c, 0, 74, 80
1, 53856, Note_on_c, 0, 71, 80
1, 53856, Note_on_c, 1, 65, 80
1, 53945, Note_on_c, 0, 80, 0
1, 53945, Note_on_c, 0, 74, 0
1, 53945, Note_on_c, 0, 71, 0
1, 53945, Note_on_c, 1, 65, 0
1, 54000, Note_on_c, 1, 35, 80
1, 54020, Note_on_c, 1, 35, 0
1, 54048, Note_on_c, 1, 35, 80
1, 54068, Note_on_c, 1, 35, 0
1, 54096, Note_on_c, 1, 35, 80
1, 54116, Note_on_c, 1, 35, 0
1, 54144, Note_on_c, 1, 35, 80
1, 54233, Note_on_c, 1, 35, 0
1, 54288, Note_on_c, 0, 80, 64
1, 54288, Note_on_c, 0, 77, 64
1, 54308, Note_on_c, 0, 80, 0
1, 54308, Note_on_c, 0, 77, 0
1, 54336, Note_on_c, 0, 80, 64
1, 54336, Note_on_c, 0, 77, 64
1, 54356, Note_on_c, 0, 80, 0
1, 54356, Note_on_c, 0, 77, 0
1, 54384, Note_on_c, 0, 80, 64
1, 54384, Note_on_c, 0, 77, 64
1, 54404, Note_on_c, 0, 80, 0
1, 54404, Note_on_c, 0, 77, 0
1, 54432, Note_on_c, 0, 80, 64
1, 54432, Note_on_c, 0, 77, 64
1, 54521, Note_on_c, 0, 80, 0
1, 54521, Note_on_c, 0, 77, 0
1, 54576, Note_on_c, 1, 34, 80
1, 54596, Note_on_c, 1, 34, 0
1, 54624, Note_on_c, 1, 34, 80
1, 54644, Note_on_c, 1, 34, 0
1, 54672, Note_on_c, 1, 34, 80
1, 54692, Note_on_c, 1, 34, 0
1, 54720, Note_on_c, 0, 50, 64
1, 54720, Note_on_c, 1, 34, 80
1, 54744, Note_on_c, 0, 50, 0
1, 54744, Note_on_c, 0, 53, 64
1, 54767, Note_on_c, 0, 53, 0
1, 54768, Note_on_c, 0, 51, 64
1, 54792, Note_on_c, 0, 51, 0
1, 54792, Note_on_c, 0, 55, 65
1, 54809, Note_on_c, 1, 34, 0
1, 54815, Note_on_c, 0, 55, 0
1, 54816, Note_on_c, 0, 53, 65
1, 54861, Note_on_c, 0, 53, 0
1, 54864, Note_on_c, 1, 58, 64
1, 54864, Note_on_c, 1, 56, 64
1, 54884, Note_on_c, 1, 58, 0
1, 54884, Note_on_c, 1, 56, 0
1, 54912, Note_on_c, 1, 58, 64
1, 54912, Note_on_c, 1, 56, 64
1, 54932, Note_on_c, 1, 58, 0
1, 54932, Note_on_c, 1, 56, 0
1, 54960, Note_on_c, 1, 58, 65
1, 54960, Note_on_c, 1, 56, 65
1, 54980, Note_on_c, 1, 58, 0
1, 54980, Note_on_c, 1, 56, 0
1, 55008, Note_on_c, 0, 62, 68
1, 55008, Note_on_c, 1, 58, 66
1, 55008, Note_on_c, 1, 56, 66
1, 55032, Note_on_c, 0, 62, 0
1, 55032, Note_on_c, 0, 65, 68
1, 55055, Note_on_c, 0, 65, 0
1, 55056, Note_on_c, 0, 63, 69
1, 55080, Note_on_c, 0, 63, 0
1, 55080, Note_on_c, 0, 67, 69
1, 55097, Note_on_c, 1, 58, 0
1, 55097, Note_on_c, 1, 56, 0
1, 55103, Note_on_c, 0, 67, 0
1, 55104, Note_on_c, 0, 65, 69
1, 55149, Note_on_c, 0, 65, 0
1, 55152, Note_on_c, 1, 70, 68
1, 55152, Note_on_c, 1, 68, 68
1, 55172, Note_on_c, 1, 70, 0
1, 55172, Note_on_c, 1, 68, 0
1, 55200, Note_on_c, 1, 70, 69
1, 55200, Note_on_c, 1, 68, 69
1, 55220, Note_on_c, 1, 70, 0
1, 55220, Note_on_c, 1, 68, 0
1, 55248, Note_on_c, 1, 70, 70
1, 55248, Note_on_c, 1, 68, 70
1, 55268, Note_on_c, 1, 70, 0
1, 55268, Note_on_c, 1, 68, 0
1, 55296, Note_on_c, 0, 74, 72
1, 55296, Note_on_c, 1, 70, 71
1, 55296, Note_on_c, 1, 68, 71
1, 55320, Note_on_c, 0, 74, 0
1, 55320, Note_on_c, 0, 77, 73
1, 55341, Note_on_c, 1, 70, 0
1, 55341, Note_on_c, 1, 68, 0
1, 55343, Note_on_c, 0, 77, 0
1, 55344, Note_on_c, 0, 75, 73
1, 55368, Note_on_c, 0, 75, 0
1, 55368, Note_on_c, 0, 79, 73
1, 55391, Note_on_c, 0, 79, 0
1, 55392, Note_on_c, 0, 77, 74
1, 55437, Note_on_c, 0, 77, 0
1, 55488, Note_on_c, 0, 74, 75
1, 55488, Note_on_c, 1, 70, 74
1, 55488, Note_on_c, 1, 68, 74
1, 55508, Note_on_c, 1, 70, 0
1, 55508, Note_on_c, 1, 68, 0
1, 55512, Note_on_c, 0, 74, 0
1, 55512, Note_on_c, 0, 77, 76
1, 55535, Note_on_c, 0, 77, 0
1, 55536, Note_on_c, 0, 75, 76
1, 55536, Note_on_c, 1, 70, 75
1, 55536, Note_on_c, 1, 68, 75
1, 55556, Note_on_c, 1, 70, 0
1, 55556, Note_on_c, 1, 68, 0
1, 55560, Note_on_c, 0, 75, 0
1, 55560, Note_on_c, 0, 79, 76
1, 55583, Note_on_c, 0, 79, 0
1, 55584, Note_on_c, 0, 77, 77
1, 55584, Note_on_c, 1, 70, 76
1, 55584, Note_on_c, 1, 68, 76
1, 55629, Note_on_c, 0, 77, 0
1, 55629, Note_on_c, 1, 70, 0
1, 55629, Note_on_c, 1, 68, 0
1, 55680, Note_on_c, 0, 74, 78
1, 55680, Note_on_c, 1, 70, 77
1, 55680, Note_on_c, 1, 68, 77
1, 55700, Note_on_c, 1, 70, 0
1, 55700, Note_on_c, 1, 68, 0
1, 55704, Note_on_c, 0, 74, 0
1, 55704, Note_on_c, 0, 77, 79
1, 55727, Note_on_c, 0, 77, 0
1, 55728, Note_on_c, 0, 75, 79
1, 55728, Note_on_c, 1, 70, 78
1, 55728, Note_on_c, 1, 68, 78
1, 55748, Note_on_c, 1, 70, 0
1, 55748, Note_on_c, 1, 68, 0
1, 55751, Note_on_c, 0, 75, 0
1, 55752, Note_on_c, 0, 79, 79
1, 55775, Note_on_c, 0, 79, 0
1, 55776, Note_on_c, 0, 77, 80
1, 55776, Note_on_c, 1, 70, 79
1, 55776, Note_on_c, 1, 68, 79
1, 55821, Note_on_c, 0, 77, 0
1, 55821, Note_on_c, 1, 70, 0
1, 55821, Note_on_c, 1, 68, 0
1, 55872, Note_on_c, 1, 68, 81
1, 55895, Note_on_c, 1, 68, 0
1, 55896, Note_on_c, 1, 70, 81
1, 55919, Note_on_c, 1, 70, 0
1, 55920, Note_on_c, 0, 72, 82
1, 55943, Note_on_c, 0, 72, 0
1, 55944, Note_on_c, 0, 74, 82
1, 55967, Note_on_c, 0, 74, 0
1, 55968, Note_on_c, 0, 75, 83
1, 55991, Note_on_c, 0, 75, 0
1, 55992, Note_on_c, 0, 77, 83
1, 56015, Note_on_c, 0, 77, 0
1, 56016, Note_on_c, 0, 79, 83
1, 56039, Note_on_c, 0, 79, 0
1, 56040, Note_on_c, 0, 80, 84
1, 56063, Note_on_c, 0, 80, 0
1, 56064, Note_on_c, 0, 82, 84
1, 56087, Note_on_c, 0, 82, 0
1, 56088, Note_on_c, 0, 84, 84
1, 56111, Note_on_c, 0, 84, 0
1, 56112, Note_on_c, 0, 86, 85
1, 56135, Note_on_c, 0, 86, 0
1, 56136, Note_on_c, 0, 87, 85
1, 56159, Note_on_c, 0, 87, 0
1, 56160, Note_on_c, 0, 89, 86
1, 56160, Note_on_c, 1, 65, 86
1, 56160, Note_on_c, 1, 62, 86
1, 56160, Note_on_c, 1, 58, 86
1, 56160, Note_on_c, 1, 56, 86
1, 56471, Note_on_c, 0, 89, 0
1, 56472, Note_on_c, 0, 87, 75
1, 56495, Note_on_c, 0, 87, 0
1, 56496, Note_on_c, 0, 86, 75
1, 56519, Note_on_c, 0, 86, 0
1, 56520, Note_on_c, 0, 84, 75
1, 56543, Note_on_c, 0, 84, 0
1, 56544, Note_on_c, 0, 82, 75
1, 56567, Note_on_c, 0, 82, 0
1, 56568, Note_on_c, 0, 80, 75
1, 56591, Note_on_c, 0, 80, 0
1, 56592, Note_on_c, 0, 79, 75
1, 56615, Note_on_c, 0, 79, 0
1, 56616, Note_on_c, 0, 77, 75
1, 56625, Note_on_c, 1, 65, 0
1, 56625, Note_on_c, 1, 62, 0
1, 56625, Note_on_c, 1, 58, 0
1, 56625, Note_on_c, 1, 56, 0
1, 56639, Note_on_c, 0, 77, 0
1, 56640, Note_on_c, 0, 80, 75
1, 56663, Note_on_c, 0, 80, 0
1, 56664, Note_on_c, 0, 79, 75
1, 56687, Note_on_c, 0, 79, 0
1, 56688, Note_on_c, 0, 82, 75
1, 56711, Note_on_c, 0, 82, 0
1, 56712, Note_on_c, 0, 80, 75
1, 56735, Note_on_c, 0, 80, 0
1, 56736, Note_on_c, 0, 84, 75
1, 56759, Note_on_c, 0, 84, 0
1, 56760, Note_on_c, 0, 82, 75
1, 56783, Note_on_c, 0, 82, 0
1, 56784, Note_on_c, 0, 80, 75
1, 56807, Note_on_c, 0, 80, 0
1, 56808, Note_on_c, 0, 79, 75
1, 56831, Note_on_c, 0, 79, 0
1, 56832, Note_on_c, 0, 77, 75
1, 56855, Note_on_c, 0, 77, 0
1, 56856, Note_on_c, 0, 76, 75
1, 56879, Note_on_c, 0, 76, 0
1, 56880, Note_on_c, 0, 79, 75
1, 56903, Note_on_c, 0, 79, 0
1, 56904, Note_on_c, 0, 77, 75
1, 56927, Note_on_c, 0, 77, 0
1, 56928, Note_on_c, 0, 80, 75
1, 56951, Note_on_c, 0, 80, 0
1, 56952, Note_on_c, 0, 79, 75
1, 56975, Note_on_c, 0, 79, 0
1, 56976, Note_on_c, 0, 82, 75
1, 56999, Note_on_c, 0, 82, 0
1, 57000, Note_on_c, 0, 80, 75
1, 57023, Note_on_c, 0, 80, 0
1, 57024, Note_on_c, 0, 79, 75
1, 57047, Note_on_c, 0, 79, 0
1, 57048, Note_on_c, 0, 77, 75
1, 57071, Note_on_c, 0, 77, 0
1, 57072, Note_on_c, 0, 75, 75
1, 57095, Note_on_c, 0, 75, 0
1, 57096, Note_on_c, 0, 74, 75
1, 57119, Note_on_c, 0, 74, 0
1, 57120, Note_on_c, 0, 77, 75
1, 57143, Note_on_c, 0, 77, 0
1, 57144, Note_on_c, 0, 75, 75
1, 57167, Note_on_c, 0, 75, 0
1, 57168, Note_on_c, 0, 79, 75
1, 57191, Note_on_c, 0, 79, 0
1, 57192, Note_on_c, 0, 77, 75
1, 57215, Note_on_c, 0, 77, 0
1, 57216, Note_on_c, 0, 75, 75
1, 57239, Note_on_c, 0, 75, 0
1, 57240, Note_on_c, 0, 74, 75
1, 57263, Note_on_c, 0, 74, 0
1, 57264, Note_on_c, 0, 72, 75
1, 57287, Note_on_c, 0, 72, 0
1, 57288, Note_on_c, 0, 71, 75
1, 57311, Note_on_c, 0, 71, 0
1, 57312, Note_on_c, 0, 70, 75
1, 57335, Note_on_c, 0, 70, 0
1, 57336, Note_on_c, 0, 69, 75
1, 57359, Note_on_c, 0, 69, 0
1, 57360, Note_on_c, 0, 68, 75
1, 57383, Note_on_c, 0, 68, 0
1, 57384, Note_on_c, 0, 67, 75
1, 57407, Note_on_c, 0, 67, 0
1, 57408, Tempo, 461538
1, 57408, Note_on_c, 0, 66, 75
1, 57431, Note_on_c, 0, 66, 0
1, 57432, Note_on_c, 0, 65, 75
1, 57455, Note_on_c, 0, 65, 0
1, 57456, Note_on_c, 0, 64, 75
1, 57479, Note_on_c, 0, 64, 0
1, 57480, Note_on_c, 0, 63, 75
1, 57503, Note_on_c, 0, 63, 0
1, 57504, Note_on_c, 0, 62, 75
1, 57527, Note_on_c, 0, 62, 0
1, 57528, Note_on_c, 0, 61, 75
1, 57551, Note_on_c, 0, 61, 0
1, 57552, Note_on_c, 0, 60, 75
1, 57575, Note_on_c, 0, 60, 0
1, 57576, Note_on_c, 0, 59, 75
1, 57599, Note_on_c, 0, 59, 0
1, 57600, Tempo, 600000
1, 57600, Note_on_c, 0, 58, 75
1, 57645, Note_on_c, 0, 58, 0
1, 57648, Note_on_c, 0, 57, 75
1, 57693, Note_on_c, 0, 57, 0
1, 57696, Tempo, 1000000
1, 57696, Note_on_c, 0, 56, 75
1, 57792, Tempo, 444444
1, 57792, Note_on_c, 0, 56, 0
1, 57792, Note_on_c, 0, 55, 75
1, 57815, Note_on_c, 0, 55, 0
1, 57816, Note_on_c, 0, 58, 75
1, 57839, Note_on_c, 0, 58, 0
1, 57840, Note_on_c, 0, 56, 75
1, 57864, Note_on_c, 0, 56, 0
1, 57864, Note_on_c, 0, 60, 75
1, 57887, Note_on_c, 0, 60, 0
1, 57888, Note_on_c, 0, 58, 75
1, 57888, Note_on_c, 1, 43, 75
1, 57888, Note_on_c, 1, 39, 75
1, 57908, Note_on_c, 0, 58, 0
1, 57933, Note_on_c, 1, 43, 0
1, 57933, Note_on_c, 1, 39, 0
1, 57984, Note_on_c, 1, 55, 75
1, 57984, Note_on_c, 1, 51, 75
1, 58004, Note_on_c, 1, 55, 0
1, 58004, Note_on_c, 1, 51, 0
1, 58080, Note_on_c, 0, 67, 75
1, 58104, Note_on_c, 0, 67, 0
1, 58104, Note_on_c, 0, 63, 75
1, 58127, Note_on_c, 0, 63, 0
1, 58128, Note_on_c, 0, 62, 75
1, 58152, Note_on_c, 0, 62, 0
1, 58152, Note_on_c, 0, 65, 75
1, 58175, Note_on_c, 0, 65, 0
1, 58176, Note_on_c, 0, 63, 75
1, 58176, Note_on_c, 1, 43, 75
1, 58176, Note_on_c, 1, 39, 75
1, 58196, Note_on_c, 0, 63, 0
1, 58221, Note_on_c, 1, 43, 0
1, 58221, Note_on_c, 1, 39, 0
1, 58272, Note_on_c, 1, 55, 75
1, 58272, Note_on_c, 1, 51, 75
1, 58292, Note_on_c, 1, 55, 0
1, 58292, Note_on_c, 1, 51, 0
1, 58320, Note_on_c, 0, 63, 75
1, 58365, Note_on_c, 0, 63, 0
1, 58368, Note_on_c, 0, 67, 75
1, 58413, Note_on_c, 0, 67, 0
1, 58416, Note_on_c, 0, 70, 75
1, 58461, Note_on_c, 0, 70, 0
1, 58464, Note_on_c, 0, 70, 87
1, 58464, Note_on_c, 1, 63, 87
1, 58464, Note_on_c, 1, 60, 87
1, 58560, Note_on_c, 0, 70, 0
1, 58560, Note_on_c, 0, 68, 75
1, 58597, Note_on_c, 1, 63, 0
1, 58597, Note_on_c, 1, 60, 0
1, 58605, Note_on_c, 0, 68, 0
1, 58608, Note_on_c, 0, 67, 75
1, 58608, Note_on_c, 1, 62, 75
1, 58608, Note_on_c, 1, 58, 75
1, 58653, Note_on_c, 0, 67, 0
1, 58653, Note_on_c, 1, 62, 0
1, 58653, Note_on_c, 1, 58, 0
1, 58656, Note_on_c, 0, 65, 75
1, 58656, Note_on_c, 1, 60, 75
1, 58656, Note_on_c, 1, 56, 75
1, 58701, Note_on_c, 0, 65, 0
1, 58701, Note_on_c, 1, 60, 0
1, 58701, Note_on_c, 1, 56, 0
1, 58704, Note_on_c, 0, 63, 75
1, 58704, Note_on_c, 1, 58, 75
1, 58704, Note_on_c, 1, 55, 75
1, 58749, Note_on_c, 0, 63, 0
1, 58749, Note_on_c, 1, 58, 0
1, 58749, Note_on_c, 1, 55, 0
1, 58752, Note_on_c, 0, 62, 75
1, 58752, Note_on_c, 1, 56, 75
1, 58752, Note_on_c, 1, 53, 75
1, 58824, Note_on_c, 0, 62, 0
1, 58824, Note_on_c, 0, 65, 75
1, 58841, Note_on_c, 1, 56, 0
1, 58841, Note_on_c, 1, 53, 0
1, 58847, Note_on_c, 0, 65, 0
1, 58848, Note_on_c, 0, 68, 75
1, 58868, Note_on_c, 0, 68, 0
1, 58944, Note_on_c, 0, 58, 75
1, 58968, Note_on_c, 0, 58, 0
1, 58968, Note_on_c, 0, 62, 75
1, 58991, Note_on_c, 0, 62, 0
1, 58992, Note_on_c, 0, 60, 75
1, 59016, Note_on_c, 0, 60, 0
1, 59016, Note_on_c, 0, 63, 75
1, 59039, Note_on_c, 0, 63, 0
1, 59040, Note_on_c, 0, 62, 75
1, 59040, Note_on_c, 1, 38, 75
1, 59040, Note_on_c, 1, 34, 75
1, 59060, Note_on_c, 0, 62, 0
1, 59085, Note_on_c, 1, 38, 0
1, 59085, Note_on_c, 1, 34, 0
1, 59136, Note_on_c, 1, 50, 75
1, 59136, Note_on_c, 1, 46, 75
1, 59156, Note_on_c, 1, 50, 0
1, 59156, Note_on_c, 1, 46, 0
1, 59232, Note_on_c, 0, 62, 75
1, 59256, Note_on_c, 0, 62, 0
1, 59256, Note_on_c, 0, 65, 75
1, 59279, Note_on_c, 0, 65, 0
1, 59280, Note_on_c, 0, 63, 75
1, 59304, Note_on_c, 0, 63, 0
1, 59304, Note_on_c, 0, 67, 75
1, 59327, Note_on_c, 0, 67, 0
1, 59328, Note_on_c, 0, 65, 75
1, 59328, Note_on_c, 1, 38, 75
1, 59328, Note_on_c, 1, 34, 75
1, 59348, Note_on_c, 0, 65, 0
1, 59373, Note_on_c, 1, 38, 0
1, 59373, Note_on_c, 1, 34, 0
1, 59424, Note_on_c, 1, 50, 75
1, 59424, Note_on_c, 1, 46, 75
1, 59444, Note_on_c, 1, 50, 0
1, 59444, Note_on_c, 1, 46, 0
1, 59472, Note_on_c, 0, 65, 75
1, 59517, Note_on_c, 0, 65, 0
1, 59520, Note_on_c, 0, 68, 75
1, 59565, Note_on_c, 0, 68, 0
1, 59568, Note_on_c, 0, 72, 75
1, 59613, Note_on_c, 0, 72, 0
1, 59616, Note_on_c, 0, 72, 87
1, 59616, Note_on_c, 1, 65, 87
1, 59616, Note_on_c, 1, 62, 87
1, 59712, Note_on_c, 0, 72, 0
1, 59712, Note_on_c, 0, 70, 75
1, 59749, Note_on_c, 1, 65, 0
1, 59749, Note_on_c, 1, 62, 0
1, 59757, Note_on_c, 0, 70, 0
1, 59760, Note_on_c, 0, 68, 75
1, 59760, Note_on_c, 1, 63, 75
1, 59760, Note_on_c, 1, 60, 75
1, 59805, Note_on_c, 0, 68, 0
1, 59805, Note_on_c, 1, 63, 0
1, 59805, Note_on_c, 1, 60, 0
1, 59808, Note_on_c, 0, 67, 75
1, 59808, Note_on_c, 1, 62, 75
1, 59808, Note_on_c, 1, 58, 75
1, 59853, Note_on_c, 0, 67, 0
1, 59853, Note_on_c, 1, 62, 0
1, 59853, Note_on_c, 1, 58, 0
1, 59856, Note_on_c, 0, 65, 75
1, 59856, Note_on_c, 1, 60, 75
1, 59856, Note_on_c, 1, 56, 75
1, 59901, Note_on_c, 0, 65, 0
1, 59901, Note_on_c, 1, 60, 0
1, 59901, Note_on_c, 1, 56, 0
1, 59904, Note_on_c, 0, 63, 75
1, 59904, Note_on_c, 1, 58, 75
1, 59904, Note_on_c, 1, 55, 75
1, 59916, Note_on_c, 0, 63, 0
1, 59916, Note_on_c, 0, 65, 75
1, 59928, Note_on_c, 0, 65, 0
1, 59928, Note_on_c, 0, 63, 75
1, 59940, Note_on_c, 0, 63, 0
1, 59940, Note_on_c, 0, 62, 75
1, 59952, Note_on_c, 0, 62, 0
1, 59952, Note_on_c, 0, 63, 75
1, 59976, Note_on_c, 0, 63, 0
1, 59976, Note_on_c, 0, 67, 75
1, 59993, Note_on_c, 1, 58, 0
1, 59993, Note_on_c, 1, 55, 0
1, 59999, Note_on_c, 0, 67, 0
1, 60000, Note_on_c, 0, 70, 75
1, 60020, Note_on_c, 0, 70, 0
1, 60096, Note_on_c, 0, 75, 75
1, 60120, Note_on_c, 0, 75, 0
1, 60120, Note_on_c, 0, 74, 75
1, 60143, Note_on_c, 0, 74, 0
1, 60144, Note_on_c, 0, 77, 75
1, 60168, Note_on_c, 0, 77, 0
1, 60168, Note_on_c, 0, 75, 75
1, 60191, Note_on_c, 0, 75, 0
1, 60192, Note_on_c, 0, 79, 75
1, 60192, Note_on_c, 1, 51, 75
1, 60192, Note_on_c, 1, 46, 75
1, 60192, Note_on_c, 1, 43, 75
1, 60215, Note_on_c, 0, 79, 0
1, 60216, Note_on_c, 0, 77, 75
1, 60239, Note_on_c, 0, 77, 0
1, 60240, Note_on_c, 0, 80, 75
1, 60263, Note_on_c, 0, 80, 0
1, 60264, Note_on_c, 0, 79, 75
1, 60287, Note_on_c, 0, 79, 0
1, 60288, Note_on_c, 0, 82, 75
1, 60311, Note_on_c, 0, 82, 0
1, 60312, Note_on_c, 0, 80, 75
1, 60335, Note_on_c, 0, 80, 0
1, 60336, Note_on_c, 0, 79, 75
1, 60359, Note_on_c, 0, 79, 0
1, 60360, Note_on_c, 0, 77, 75
1, 60383, Note_on_c, 0, 77, 0
1, 60384, Note_on_c, 0, 75, 75
1, 60407, Note_on_c, 0, 75, 0
1, 60408, Note_on_c, 0, 74, 75
1, 60431, Note_on_c, 0, 74, 0
1, 60432, Note_on_c, 0, 72, 75
1, 60455, Note_on_c, 0, 72, 0
1, 60456, Note_on_c, 0, 71, 75
1, 60457, Note_on_c, 1, 51, 0
1, 60457, Note_on_c, 1, 46, 0
1, 60457, Note_on_c, 1, 43, 0
1, 60479, Note_on_c, 0, 71, 0
1, 60480, Note_on_c, 0, 71, 75
1, 60480, Note_on_c, 1, 51, 75
1, 60480, Note_on_c, 1, 44, 75
1, 60576, Note_on_c, 0, 71, 0
1, 60576, Note_on_c, 0, 72, 75
1, 60596, Note_on_c, 0, 72, 0
1, 60613, Note_on_c, 1, 51, 0
1, 60613, Note_on_c, 1, 44, 0
1, 60624, Note_on_c, 0, 74, 75
1, 60630, Note_on_c, 0, 74, 0
1, 60630, Note_on_c, 0, 72, 75
1, 60636, Note_on_c, 0, 72, 0
1, 60636, Note_on_c, 0, 71, 75
1, 60642, Note_on_c, 0, 71, 0
1, 60642, Note_on_c, 0, 72, 75
1, 60669, Note_on_c, 0, 72, 0
1, 60672, Note_on_c, 0, 74, 75
1, 60717, Note_on_c, 0, 74, 0
1, 60720, Note_on_c, 0, 75, 75
1, 60765, Note_on_c, 0, 75, 0
1, 60768, Note_on_c, 0, 75, 75
1, 60816, Note_on_c, 0, 75, 0
1, 60816, Note_on_c, 0, 65, 75
1, 60861, Note_on_c, 0, 65, 0
1, 60864, Note_on_c, 0, 72, 75
1, 60912, Note_on_c, 0, 72, 0
1, 60912, Note_on_c, 0, 60, 75
1, 60957, Note_on_c, 0, 60, 0
1, 60960, Note_on_c, 0, 68, 75
1, 60960, Note_on_c, 1, 53, 75
1, 60960, Note_on_c, 1, 46, 75
1, 61008, Note_on_c, 0, 68, 0
1, 61008, Note_on_c, 0, 62, 75
1, 61049, Note_on_c, 1, 53, 0
1, 61049, Note_on_c, 1, 46, 0
1, 61053, Note_on_c, 0, 62, 0
1, 61056, Note_on_c, 0, 63, 75
1, 61076, Note_on_c, 0, 63, 0
1, 61104, Note_on_c, 1, 51, 75
1, 61149, Note_on_c, 1, 51, 0
1, 61152, Note_on_c, 1, 46, 75
1, 61197, Note_on_c, 1, 46, 0
1, 61200, Note_on_c, 1, 43, 75
1, 61245, Note_on_c, 1, 43, 0
1, 61248, Note_on_c, 1, 39, 75
1, 61268, Note_on_c, 1, 39, 0
1, 61296, Note_on_c, 0, 58, 75
1, 61316, Note_on_c, 0, 58, 0
1, 61344, Note_on_c, 0, 63, 75
1, 61392, Note_on_c, 1, 51, 70
1, 61437, Note_on_c, 1, 51, 0
1, 61440, Note_on_c, 1, 55, 70
1, 61485, Note_on_c, 1, 55, 0
1, 61488, Note_on_c, 1, 51, 70
1, 61533, Note_on_c, 1, 51, 0
1, 61536, Note_on_c, 1, 56, 70
1, 61581, Note_on_c, 0, 63, 0
1, 61581, Note_on_c, 1, 56, 0
1, 61584, Note_on_c, 0, 62, 75
1, 61584, Note_on_c, 1, 46, 70
1, 61604, Note_on_c, 0, 62, 0
1, 61629, Note_on_c, 1, 46, 0
1, 61632, Note_on_c, 0, 68, 75
1, 61680, Note_on_c, 1, 46, 70
1, 61725, Note_on_c, 1, 46, 0
1, 61728, Note_on_c, 1, 50, 70
1, 61773, Note_on_c, 1, 50, 0
1, 61776, Note_on_c, 1, 46, 70
1, 61821, Note_on_c, 1, 46, 0
1, 61824, Note_on_c, 1, 51, 70
1, 61869, Note_on_c, 0, 68, 0
1, 61869, Note_on_c, 1, 51, 0
1, 61872, Note_on_c, 0, 67, 75
1, 61872, Note_on_c, 1, 39, 70
1, 61892, Note_on_c, 0, 67, 0
1, 61917, Note_on_c, 1, 39, 0
1, 61920, Note_on_c, 0, 75, 75
1, 61920, Note_on_c, 0, 67, 80
1, 61968, Note_on_c, 1, 51, 70
1, 62013, Note_on_c, 1, 51, 0
1, 62016, Note_on_c, 1, 55, 70
1, 62061, Note_on_c, 1, 55, 0
1, 62064, Note_on_c, 1, 51, 70
1, 62097, Note_on_c, 0, 67, 0
1, 62109, Note_on_c, 1, 51, 0
1, 62112, Note_on_c, 0, 65, 80
1, 62112, Note_on_c, 1, 56, 70
1, 62157, Note_on_c, 0, 75, 0
1, 62157, Note_on_c, 1, 56, 0
1, 62160, Note_on_c, 0, 74, 75
1, 62160, Note_on_c, 1, 46, 70
1, 62180, Note_on_c, 0, 74, 0
1, 62205, Note_on_c, 1, 46, 0
1, 62206, Note_on_c, 0, 65, 0
1, 62208, Note_on_c, 0, 80, 75
1, 62208, Note_on_c, 0, 77, 80
1, 62256, Note_on_c, 1, 58, 70
1, 62301, Note_on_c, 1, 58, 0
1, 62304, Note_on_c, 1, 62, 70
1, 62349, Note_on_c, 1, 62, 0
1, 62352, Note_on_c, 1, 58, 70
1, 62397, Note_on_c, 1, 58, 0
1, 62400, Note_on_c, 1, 63, 70
1, 62445, Note_on_c, 0, 80, 0
1, 62445, Note_on_c, 0, 77, 0
1, 62445, Note_on_c, 1, 63, 0
1, 62448, Note_on_c, 0, 79, 75
1, 62448, Note_on_c, 0, 79, 80
1, 62448, Note_on_c, 1, 51, 70
1, 62468, Note_on_c, 0, 79, 0
1, 62493, Note_on_c, 0, 79, 0
1, 62493, Note_on_c, 1, 51, 0
1, 62496, Note_on_c, 0, 84, 75
1, 62544, Note_on_c, 1, 63, 70
1, 62589, Note_on_c, 1, 63, 0
1, 62592, Note_on_c, 1, 67, 70
1, 62637, Note_on_c, 1, 67, 0
1, 62640, Note_on_c, 1, 63, 70
1, 62685, Note_on_c, 1, 63, 0
1, 62688, Note_on_c, 1, 62, 70
1, 62733, Note_on_c, 0, 84, 0
1, 62733, Note_on_c, 1, 62, 0
1, 62736, Note_on_c, 0, 83, 75
1, 62736, Note_on_c, 1, 65, 70
1, 62756, Note_on_c, 0, 83, 0
1, 62781, Note_on_c, 1, 65, 0
1, 62784, Note_on_c, 0, 86, 75
1, 62784, Note_on_c, 0, 77, 75
1, 62832, Note_on_c, 1, 55, 70
1, 62877, Note_on_c, 1, 55, 0
1, 62880, Note_on_c, 1, 59, 70
1, 62925, Note_on_c, 1, 59, 0
1, 62928, Note_on_c, 1, 55, 70
1, 62973, Note_on_c, 1, 55, 0
1, 62976, Note_on_c, 1, 60, 70
1, 63021, Note_on_c, 0, 86, 0
1, 63021, Note_on_c, 0, 77, 0
1, 63021, Note_on_c, 1, 60, 0
1, 63024, Note_on_c, 0, 84, 75
1, 63024, Note_on_c, 0, 75, 75
1, 63024, Note_on_c, 1, 48, 70
1, 63044, Note_on_c, 0, 84, 0
1, 63044, Note_on_c, 0, 75, 0
1, 63069, Note_on_c, 1, 48, 0
1, 63072, Note_on_c, 0, 82, 75
1, 63072, Note_on_c, 0, 73, 75
1, 63120, Note_on_c, 1, 63, 70
1, 63165, Note_on_c, 1, 63, 0
1, 63168, Note_on_c, 1, 67, 70
1, 63213, Note_on_c, 1, 67, 0
1, 63216, Note_on_c, 1, 63, 70
1, 63261, Note_on_c, 1, 63, 0
1, 63264, Note_on_c, 1, 68, 70
1, 63309, Note_on_c, 0, 82, 0
1, 63309, Note_on_c, 0, 73, 0
1, 63309, Note_on_c, 1, 68, 0
1, 63312, Note_on_c, 0, 80, 75
1, 63312, Note_on_c, 0, 72, 75
1, 63312, Note_on_c, 1, 56, 70
1, 63332, Note_on_c, 0, 80, 0
1, 63332, Note_on_c, 0, 72, 0
1, 63357, Note_on_c, 1, 56, 0
1, 63360, Note_on_c, 0, 79, 75
1, 63360, Note_on_c, 0, 70, 75
1, 63408, Note_on_c, 1, 48, 70
1, 63453, Note_on_c, 1, 48, 0
1, 63456, Note_on_c, 1, 52, 70
1, 63501, Note_on_c, 1, 52, 0
1, 63504, Note_on_c, 1, 48, 70
1, 63549, Note_on_c, 1, 48, 0
1, 63552, Note_on_c, 1, 53, 70
1, 63597, Note_on_c, 0, 79, 0
1, 63597, Note_on_c, 0, 70, 0
1, 63597, Note_on_c, 1, 53, 0
1, 63600, Note_on_c, 0, 77, 75
1, 63600, Note_on_c, 0, 68, 75
1, 63600, Note_on_c, 1, 41, 70
1, 63620, Note_on_c, 0, 77, 0
1, 63620, Note_on_c, 0, 68, 0
1, 63645, Note_on_c, 1, 41, 0
1, 63648, Note_on_c, 0, 80, 75
1, 63648, Note_on_c, 0, 71, 75
1, 63696, Note_on_c, 1, 62, 70
1, 63741, Note_on_c, 1, 62, 0
1, 63744, Note_on_c, 1, 65, 70
1, 63789, Note_on_c, 1, 65, 0
1, 63792, Note_on_c, 1, 62, 70
1, 63837, Note_on_c, 1, 62, 0
1, 63840, Note_on_c, 1, 63, 70
1, 63885, Note_on_c, 0, 80, 0
1, 63885, Note_on_c, 0, 71, 0
1, 63885, Note_on_c, 1, 63, 0
1, 63888, Note_on_c, 0, 79, 75
1, 63888, Note_on_c, 0, 70, 75
1, 63888, Note_on_c, 1, 67, 70
1, 63908, Note_on_c, 0, 79, 0
1, 63908, Note_on_c, 0, 70, 0
1, 63933, Note_on_c, 1, 67, 0
1, 63936, Note_on_c, 0, 77, 75
1, 63936, Note_on_c, 0, 68, 75
1, 63984, Note_on_c, 1, 59, 70
1, 64029, Note_on_c, 1, 59, 0
1, 64032, Note_on_c, 1, 62, 70
1, 64077, Note_on_c, 1, 62, 0
1, 64080, Note_on_c, 1, 59, 70
1, 64125, Note_on_c, 1, 59, 0
1, 64128, Note_on_c, 1, 58, 70
1, 64173, Note_on_c, 0, 77, 0
1, 64173, Note_on_c, 0, 68, 0
1, 64173, Note_on_c, 1, 58, 0
1, 64176, Note_on_c, 0, 75, 75
1, 64176, Note_on_c, 0, 67, 75
1, 64176, Note_on_c, 1, 63, 70
1, 64196, Note_on_c, 0, 75, 0
1, 64196, Note_on_c, 0, 67, 0
1, 64221, Note_on_c, 1, 63, 0
1, 64224, Note_on_c, 1, 65, 75
1, 64224, Note_on_c, 1, 60, 75
1, 64224, Note_on_c, 1, 56, 75
1, 64272, Note_on_c, 0, 72, 75
1, 64320, Note_on_c, 0, 72, 0
1, 64320, Note_on_c, 0, 79, 75
1, 64365, Note_on_c, 0, 79, 0
1, 64368, Note_on_c, 0, 76, 75
1, 64416, Note_on_c, 0, 76, 0
1, 64416, Note_on_c, 0, 80, 75
1, 64461, Note_on_c, 0, 80, 0
1, 64464, Note_on_c, 0, 77, 75
1, 64512, Note_on_c, 0, 77, 0
1, 64512, Note_on_c, 0, 83, 75
1, 64560, Note_on_c, 0, 83, 0
1, 64560, Note_on_c, 0, 86, 75
1, 64605, Note_on_c, 0, 86, 0
1, 64608, Note_on_c, 0, 84, 75
1, 64656, Note_on_c, 0, 84, 0
1, 64656, Note_on_c, 0, 79, 75
1, 64701, Note_on_c, 0, 79, 0
1, 64704, Note_on_c, 0, 80, 75
1, 64749, Note_on_c, 0, 80, 0
1, 64752, Note_on_c, 0, 77, 75
1, 64777, Note_on_c, 1, 65, 0
1, 64777, Note_on_c, 1, 60, 0
1, 64777, Note_on_c, 1, 56, 0
1, 64797, Note_on_c, 0, 77, 0
1, 64800, Note_on_c, 0, 75, 75
1, 64800, Note_on_c, 1, 68, 75
1, 64800, Note_on_c, 1, 65, 75
1, 64800, Note_on_c, 1, 58, 75
1, 64845, Note_on_c, 0, 75, 0
1, 64848, Note_on_c, 0, 74, 75
1, 64893, Note_on_c, 0, 74, 0
1, 64896, Note_on_c, 0, 80, 75
1, 64941, Note_on_c, 0, 80, 0
1, 64944, Note_on_c, 0, 77, 75
1, 64989, Note_on_c, 0, 77, 0
1, 64992, Note_on_c, 0, 74, 75
1, 65037, Note_on_c, 0, 74, 0
1, 65040, Note_on_c, 0, 71, 75
1, 65065, Note_on_c, 1, 68, 0
1, 65065, Note_on_c, 1, 65, 0
1, 65065, Note_on_c, 1, 58, 0
1, 65085, Note_on_c, 0, 71, 0
1, 65088, Note_on_c, 0, 70, 75
1, 65133, Note_on_c, 0, 70, 0
1, 65136, Note_on_c, 0, 69, 75
1, 65181, Note_on_c, 0, 69, 0
1, 65184, Note_on_c, 0, 77, 75
1, 65232, Note_on_c, 0, 77, 0
1, 65232, Note_on_c, 0, 69, 75
1, 65277, Note_on_c, 0, 69, 0
1, 65280, Note_on_c, 0, 77, 75
1, 65328, Note_on_c, 0, 77, 0
1, 65328, Note_on_c, 0, 68, 75
1, 65373, Note_on_c, 0, 68, 0
1, 65376, Note_on_c, 0, 67, 75
1, 65376, Note_on_c, 1, 51, 70
1, 65399, Note_on_c, 1, 51, 0
1, 65400, Note_on_c, 1, 58, 70
1, 65421, Note_on_c, 0, 67, 0
1, 65423, Note_on_c, 1, 58, 0
1, 65424, Note_on_c, 1, 55, 70
1, 65447, Note_on_c, 1, 55, 0
1, 65448, Note_on_c, 1, 58, 70
1, 65471, Note_on_c, 1, 58, 0
1, 65472, Note_on_c, 0, 63, 80
1, 65472, Note_on_c, 1, 51, 70
1, 65495, Note_on_c, 0, 63, 0
1, 65495, Note_on_c, 1, 51, 0
1, 65496, Note_on_c, 0, 65, 80
1, 65496, Note_on_c, 1, 58, 70
1, 65519, Note_on_c, 0, 65, 0
1, 65519, Note_on_c, 1, 58, 0
1, 65520, Note_on_c, 0, 67, 80
1, 65520, Note_on_c, 1, 55, 70
1, 65543, Note_on_c, 0, 67, 0
1, 65543, Note_on_c, 1, 55, 0
1, 65544, Note_on_c, 0, 68, 80
1, 65544, Note_on_c, 1, 58, 70
1, 65567, Note_on_c, 0, 68, 0
1, 65567, Note_on_c, 1, 58, 0
1, 65568, Note_on_c, 0, 70, 80
1, 65568, Note_on_c, 1, 51, 70
1, 65591, Note_on_c, 0, 70, 0
1, 65591, Note_on_c, 1, 51, 0
1, 65592, Note_on_c, 0, 72, 80
1, 65592, Note_on_c, 1, 58, 70
1, 65615, Note_on_c, 0, 72, 0
1, 65615, Note_on_c, 1, 58, 0
1, 65616, Note_on_c, 0, 74, 80
1, 65616, Note_on_c, 1, 55, 70
1, 65639, Note_on_c, 0, 74, 0
1, 65639, Note_on_c, 1, 55, 0
1, 65640, Note_on_c, 0, 75, 80
1, 65640, Note_on_c, 1, 58, 70
1, 65650, Note_on_c, 0, 75, 0
1, 65663, Note_on_c, 1, 58, 0
1, 65664, Note_on_c, 0, 75, 96
1, 65664, Note_on_c, 1, 53, 70
1, 65687, Note_on_c, 1, 53, 0
1, 65688, Note_on_c, 1, 58, 70
1, 65711, Note_on_c, 1, 58, 0
1, 65712, Note_on_c, 1, 56, 70
1, 65735, Note_on_c, 1, 56, 0
1, 65736, Note_on_c, 1, 58, 70
1, 65759, Note_on_c, 1, 58, 0
1, 65760, Note_on_c, 0, 75, 0
1, 65760, Note_on_c, 0, 74, 80
1, 65760, Note_on_c, 1, 53, 70
1, 65783, Note_on_c, 1, 53, 0
1, 65784, Note_on_c, 1, 58, 70
1, 65805, Note_on_c, 0, 74, 0
1, 65807, Note_on_c, 1, 58, 0
1, 65808, Note_on_c, 0, 72, 80
1, 65808, Note_on_c, 1, 51, 70
1, 65828, Note_on_c, 0, 72, 0
1, 65831, Note_on_c, 1, 51, 0
1, 65832, Note_on_c, 1, 58, 70
1, 65855, Note_on_c, 1, 58, 0
1, 65856, Note_on_c, 0, 70, 80
1, 65856, Note_on_c, 1, 50, 70
1, 65876, Note_on_c, 0, 70, 0
1, 65879, Note_on_c, 1, 50, 0
1, 65880, Note_on_c, 1, 58, 70
1, 65903, Note_on_c, 1, 58, 0
1, 65904, Note_on_c, 0, 68, 80
1, 65904, Note_on_c, 1, 53, 70
1, 65924, Note_on_c, 0, 68, 0
1, 65927, Note_on_c, 1, 53, 0
1, 65928, Note_on_c, 1, 58, 70
1, 65951, Note_on_c, 1, 58, 0
1, 65952, Note_on_c, 0, 66, 80
1, 65952, Note_on_c, 1, 51, 70
1, 65975, Note_on_c, 1, 51, 0
1, 65976, Note_on_c, 1, 58, 70
1, 65999, Note_on_c, 1, 58, 0
1, 66000, Note_on_c, 0, 66, 0
1, 66000, Note_on_c, 0, 67, 80
1, 66000, Note_on_c, 1, 55, 70
1, 66023, Note_on_c, 1, 55, 0
1, 66024, Note_on_c, 1, 58, 70
1, 66045, Note_on_c, 0, 67, 0
1, 66047, Note_on_c, 1, 58, 0
1, 66048, Note_on_c, 0, 63, 80
1, 66048, Note_on_c, 1, 51, 70
1, 66071, Note_on_c, 0, 63, 0
1, 66071, Note_on_c, 1, 51, 0
1, 66072, Note_on_c, 0, 65, 80
1, 66072, Note_on_c, 1, 58, 70
1, 66095, Note_on_c, 0, 65, 0
1, 66095, Note_on_c, 1, 58, 0
1, 66096, Note_on_c, 0, 67, 80
1, 66096, Note_on_c, 1, 55, 70
1, 66119, Note_on_c, 0, 67, 0
1, 66119, Note_on_c, 1, 55, 0
1, 66120, Note_on_c, 0, 68, 80
1, 66120, Note_on_c, 1, 58, 70
1, 66143, Note_on_c, 0, 68, 0
1, 66143, Note_on_c, 1, 58, 0
1, 66144, Note_on_c, 0, 70, 80
1, 66144, Note_on_c, 1, 51, 70
1, 66167, Note_on_c, 0, 70, 0
1, 66167, Note_on_c, 1, 51, 0
1, 66168, Note_on_c, 0, 72, 80
1, 66168, Note_on_c, 1, 58, 70
1, 66191, Note_on_c, 0, 72, 0
1, 66191, Note_on_c, 1, 58, 0
1, 66192, Note_on_c, 0, 74, 80
1, 66192, Note_on_c, 1, 55, 70
1, 66215, Note_on_c, 0, 74, 0
1, 66215, Note_on_c, 1, 55, 0
1, 66216, Note_on_c, 0, 75, 80
1, 66216, Note_on_c, 1, 58, 70
1, 66226, Note_on_c, 0, 75, 0
1, 66239, Note_on_c, 1, 58, 0
1, 66240, Note_on_c, 0, 75, 96
1, 66240, Note_on_c, 1, 53, 70
1, 66263, Note_on_c, 1, 53, 0
1, 66264, Note_on_c, 1, 58, 70
1, 66287, Note_on_c, 1, 58, 0
1, 66288, Note_on_c, 1, 56, 70
1, 66311, Note_on_c, 1, 56, 0
1, 66312, Note_on_c, 1, 58, 70
1, 66335, Note_on_c, 1, 58, 0
1, 66336, Note_on_c, 0, 75, 0
1, 66336, Note_on_c, 0, 74, 80
1, 66336, Note_on_c, 1, 53, 70
1, 66359, Note_on_c, 1, 53, 0
1, 66360, Note_on_c, 1, 58, 70
1, 66381, Note_on_c, 0, 74, 0
1, 66383, Note_on_c, 1, 58, 0
1, 66384, Note_on_c, 0, 72, 80
1, 66384, Note_on_c, 1, 51, 70
1, 66404, Note_on_c, 0, 72, 0
1, 66407, Note_on_c, 1, 51, 0
1, 66408, Note_on_c, 1, 58, 70
1, 66431, Note_on_c, 1, 58, 0
1, 66432, Note_on_c, 0, 70, 80
1, 66432, Note_on_c, 1, 50, 70
1, 66452, Note_on_c, 0, 70, 0
1, 66455, Note_on_c, 1, 50, 0
1, 66456, Note_on_c, 1, 58, 70
1, 66479, Note_on_c, 1, 58, 0
1, 66480, Note_on_c, 0, 68, 80
1, 66480, Note_on_c, 1, 53, 70
1, 66500, Note_on_c, 0, 68, 0
1, 66503, Note_on_c, 1, 53, 0
1, 66504, Note_on_c, 1, 58, 70
1, 66527, Note_on_c, 1, 58, 0
1, 66528, Note_on_c, 0, 66, 80
1, 66528, Note_on_c, 1, 51, 70
1, 66551, Note_on_c, 1, 51, 0
1, 66552, Note_on_c, 1, 58, 70
1, 66575, Note_on_c, 1, 58, 0
1, 66576, Note_on_c, 0, 66, 0
1, 66576, Note_on_c, 0, 67, 80
1, 66576, Note_on_c, 1, 55, 70
1, 66599, Note_on_c, 1, 55, 0
1, 66600, Note_on_c, 1, 58, 70
1, 66621, Note_on_c, 0, 67, 0
1, 66623, Note_on_c, 1, 58, 0
1, 66624, Note_on_c, 0, 63, 80
1, 66624, Note_on_c, 1, 51, 70
1, 66647, Note_on_c, 0, 63, 0
1, 66647, Note_on_c, 1, 51, 0
1, 66648, Note_on_c, 0, 65, 80
1, 66648, Note_on_c, 1, 58, 70
1, 66671, Note_on_c, 0, 65, 0
1, 66671, Note_on_c, 1, 58, 0
1, 66672, Note_on_c, 0, 67, 80
1, 66672, Note_on_c, 1, 55, 70
1, 66695, Note_on_c, 0, 67, 0
1, 66695, Note_on_c, 1, 55, 0
1, 66696, Note_on_c, 0, 68, 80
1, 66696, Note_on_c, 1, 58, 70
1, 66719, Note_on_c, 0, 68, 0
1, 66719, Note_on_c, 1, 58, 0
1, 66720, Note_on_c, 0, 70, 80
1, 66720, Note_on_c, 1, 51, 70
1, 66743, Note_on_c, 0, 70, 0
1, 66743, Note_on_c, 1, 51, 0
1, 66744, Note_on_c, 0, 72, 80
1, 66744, Note_on_c, 1, 58, 70
1, 66767, Note_on_c, 0, 72, 0
1, 66767, Note_on_c, 1, 58, 0
1, 66768, Note_on_c, 0, 73, 80
1, 66768, Note_on_c, 1, 55, 70
1, 66791, Note_on_c, 0, 73, 0
1, 66791, Note_on_c, 1, 55, 0
1, 66792, Note_on_c, 0, 75, 80
1, 66792, Note_on_c, 1, 58, 70
1, 66815, Note_on_c, 0, 75, 0
1, 66815, Note_on_c, 1, 58, 0
1, 66816, Note_on_c, 0, 77, 96
1, 66816, Note_on_c, 1, 49, 70
1, 66839, Note_on_c, 1, 49, 0
1, 66840, Note_on_c, 1, 58, 70
1, 66863, Note_on_c, 1, 58, 0
1, 66864, Note_on_c, 1, 55, 70
1, 66887, Note_on_c, 1, 55, 0
1, 66888, Note_on_c, 1, 58, 70
1, 66911, Note_on_c, 1, 58, 0
1, 66912, Note_on_c, 1, 49, 70
1, 66935, Note_on_c, 1, 49, 0
1, 66936, Note_on_c, 1, 58, 70
1, 66959, Note_on_c, 1, 58, 0
1, 66960, Note_on_c, 0, 77, 0
1, 66960, Note_on_c, 0, 79, 80
1, 66960, Note_on_c, 1, 55, 70
1, 66972, Note_on_c, 0, 79, 0
1, 66972, Note_on_c, 0, 77, 80
1, 66983, Note_on_c, 1, 55, 0
1, 66984, Note_on_c, 0, 77, 0
1, 66984, Note_on_c, 0, 76, 80
1, 66984, Note_on_c, 1, 58, 70
1, 66996, Note_on_c, 0, 76, 0
1, 66996, Note_on_c, 0, 77, 80
1, 67007, Note_on_c, 1, 58, 0
1, 67008, Note_on_c, 0, 77, 0
1, 67008, Note_on_c, 0, 82, 80
1, 67008, Note_on_c, 1, 49, 70
1, 67031, Note_on_c, 1, 49, 0
1, 67032, Note_on_c, 1, 58, 70
1, 67055, Note_on_c, 1, 58, 0
1, 67056, Note_on_c, 1, 55, 70
1, 67075, Note_on_c, 0, 82, 0
1, 67079, Note_on_c, 1, 55, 0
1, 67080, Note_on_c, 0, 79, 80
1, 67080, Note_on_c, 1, 58, 70
1, 67103, Note_on_c, 0, 79, 0
1, 67103, Note_on_c, 1, 58, 0
1, 67104, Note_on_c, 0, 77, 80
1, 67104, Note_on_c, 1, 48, 70
1, 67127, Note_on_c, 1, 48, 0
1, 67128, Note_on_c, 1, 58, 70
1, 67151, Note_on_c, 1, 58, 0
1, 67152, Note_on_c, 1, 55, 70
1, 67175, Note_on_c, 1, 55, 0
1, 67176, Note_on_c, 1, 58, 70
1, 67193, Note_on_c, 0, 77, 0
1, 67199, Note_on_c, 1, 58, 0
1, 67200, Note_on_c, 0, 76, 80
1, 67200, Note_on_c, 1, 48, 70
1, 67214, Note_on_c, 0, 76, 0
1, 67215, Note_on_c, 0, 77, 80
1, 67223, Note_on_c, 1, 48, 0
1, 67224, Note_on_c, 1, 58, 70
1, 67229, Note_on_c, 0, 77, 0
1, 67230, Note_on_c, 0, 76, 80
1, 67244, Note_on_c, 0, 76, 0
1, 67245, Note_on_c, 0, 77, 80
1, 67247, Note_on_c, 1, 58, 0
1, 67248, Note_on_c, 1, 55, 70
1, 67259, Note_on_c, 0, 77, 0
1, 67260, Note_on_c, 0, 76, 80
1, 67271, Note_on_c, 1, 55, 0
1, 67272, Note_on_c, 1, 58, 70
1, 67274, Note_on_c, 0, 76, 0
1, 67275, Note_on_c, 0, 77, 80
1, 67289, Note_on_c, 0, 77, 0
1, 67290, Note_on_c, 0, 76, 80
1, 67295, Note_on_c, 1, 58, 0
1, 67296, Note_on_c, 1, 48, 70
1, 67304, Note_on_c, 0, 76, 0
1, 67305, Note_on_c, 0, 77, 80
1, 67319, Note_on_c, 0, 77, 0
1, 67319, Note_on_c, 1, 48, 0
1, 67320, Note_on_c, 0, 76, 80
1, 67320, Note_on_c, 1, 58, 70
1, 67334, Note_on_c, 0, 76, 0
1, 67335, Note_on_c, 0, 77, 80
1, 67343, Note_on_c, 1, 58, 0
1, 67344, Note_on_c, 1, 55, 70
1, 67349, Note_on_c, 0, 77, 0
1, 67350, Note_on_c, 0, 74, 80
1, 67363, Note_on_c, 0, 74, 0
1, 67364, Note_on_c, 0, 76, 80
1, 67367, Note_on_c, 1, 55, 0
1, 67368, Note_on_c, 1, 58, 70
1, 67377, Note_on_c, 0, 76, 0
1, 67378, Note_on_c, 0, 76, 80
1, 67391, Note_on_c, 0, 76, 0
1, 67391, Note_on_c, 1, 58, 0
1, 67392, Note_on_c, 0, 77, 80
1, 67392, Note_on_c, 1, 48, 70
1, 67411, Note_on_c, 0, 77, 0
1, 67415, Note_on_c, 1, 48, 0
1, 67416, Note_on_c, 0, 79, 80
1, 67416, Note_on_c, 1, 56, 70
1, 67428, Note_on_c, 0, 79, 0
1, 67428, Note_on_c, 0, 77, 80
1, 67439, Note_on_c, 1, 56, 0
1, 67440, Note_on_c, 0, 77, 0
1, 67440, Note_on_c, 0, 75, 80
1, 67440, Note_on_c, 1, 53, 70
1, 67452, Note_on_c, 0, 75, 0
1, 67452, Note_on_c, 0, 77, 80
1, 67463, Note_on_c, 1, 53, 0
1, 67464, Note_on_c, 0, 77, 0
1, 67464, Note_on_c, 0, 79, 80
1, 67464, Note_on_c, 1, 56, 70
1, 67487, Note_on_c, 0, 79, 0
1, 67487, Note_on_c, 1, 56, 0
1, 67488, Note_on_c, 0, 80, 80
1, 67488, Note_on_c, 1, 48, 70
1, 67511, Note_on_c, 1, 48, 0
1, 67512, Note_on_c, 1, 56, 70
1, 67533, Note_on_c, 0, 80, 0
1, 67535, Note_on_c, 1, 56, 0
1, 67536, Note_on_c, 1, 53, 70
1, 67559, Note_on_c, 1, 53, 0
1, 67560, Note_on_c, 0, 79, 80
1, 67560, Note_on_c, 1, 56, 70
1, 67583, Note_on_c, 0, 79, 0
1, 67583, Note_on_c, 1, 56, 0
1, 67584, Note_on_c, 0, 77, 80
1, 67584, Note_on_c, 1, 47, 70
1, 67608, Note_on_c, 1, 47, 0
1, 67608, Note_on_c, 1, 56, 70
1, 67629, Note_on_c, 0, 77, 0
1, 67631, Note_on_c, 1, 56, 0
1, 67632, Note_on_c, 1, 53, 70
1, 67655, Note_on_c, 1, 53, 0
1, 67656, Note_on_c, 0, 75, 80
1, 67656, Note_on_c, 1, 56, 70
1, 67679, Note_on_c, 0, 75, 0
1, 67679, Note_on_c, 1, 56, 0
1, 67680, Note_on_c, 0, 75, 80
1, 67680, Note_on_c, 1, 46, 70
1, 67703, Note_on_c, 1, 46, 0
1, 67704, Note_on_c, 1, 56, 70
1, 67727, Note_on_c, 1, 56, 0
1, 67728, Note_on_c, 1, 53, 70
1, 67751, Note_on_c, 1, 53, 0
1, 67752, Note_on_c, 1, 56, 70
1, 67769, Note_on_c, 0, 75, 0
1, 67775, Note_on_c, 1, 56, 0
1, 67776, Note_on_c, 0, 74, 80
1, 67776, Note_on_c, 1, 46, 70
1, 67789, Note_on_c, 0, 74, 0
1, 67790, Note_on_c, 0, 75, 80
1, 67799, Note_on_c, 1, 46, 0
1, 67800, Note_on_c, 1, 56, 70
1, 67803, Note_on_c, 0, 75, 0
1, 67804, Note_on_c, 0, 74, 80
1, 67817, Note_on_c, 0, 74, 0
1, 67818, Note_on_c, 0, 75, 80
1, 67823, Note_on_c, 1, 56, 0
1, 67824, Note_on_c, 1, 53, 70
1, 67831, Note_on_c, 0, 75, 0
1, 67832, Note_on_c, 0, 74, 80
1, 67845, Note_on_c, 0, 74, 0
1, 67846, Note_on_c, 0, 72, 80
1, 67847, Note_on_c, 1, 53, 0
1, 67848, Note_on_c, 1, 56, 70
1, 67858, Note_on_c, 0, 72, 0
1, 67859, Note_on_c, 0, 74, 80
1, 67871, Note_on_c, 0, 74, 0
1, 67871, Note_on_c, 1, 56, 0
1, 67872, Note_on_c, 0, 75, 80
1, 67872, Note_on_c, 1, 48, 70
1, 67895, Note_on_c, 1, 48, 0
1, 67896, Note_on_c, 1, 55, 70
1, 67919, Note_on_c, 1, 55, 0
1, 67920, Note_on_c, 1, 51, 70
1, 67943, Note_on_c, 1, 51, 0
1, 67944, Note_on_c, 1, 55, 70
1, 67961, Note_on_c, 0, 75, 0
1, 67967, Note_on_c, 1, 55, 0
1, 67968, Note_on_c, 0, 74, 75
1, 67968, Note_on_c, 1, 44, 70
1, 67991, Note_on_c, 0, 74, 0
1, 67992, Note_on_c, 0, 72, 75
1, 68015, Note_on_c, 0, 72, 0
1, 68016, Note_on_c, 0, 71, 75
1, 68039, Note_on_c, 0, 71, 0
1, 68040, Note_on_c, 0, 72, 75
1, 68057, Note_on_c, 1, 44, 0
1, 68063, Note_on_c, 0, 72, 0
1, 68064, Note_on_c, 0, 71, 75
1, 68087, Note_on_c, 0, 71, 0
1, 68088, Note_on_c, 0, 72, 75
1, 68111, Note_on_c, 0, 72, 0
1, 68112, Note_on_c, 0, 71, 75
1, 68135, Note_on_c, 0, 71, 0
1, 68136, Note_on_c, 0, 72, 75
1, 68159, Note_on_c, 0, 72, 0
1, 68160, Note_on_c, 0, 75, 75
1, 68205, Note_on_c, 0, 75, 0
1, 68208, Note_on_c, 0, 72, 75
1, 68253, Note_on_c, 0, 72, 0
1, 68256, Note_on_c, 0, 70, 75
1, 68256, Note_on_c, 1, 60, 75
1, 68256, Note_on_c, 1, 56, 75
1, 68279, Note_on_c, 0, 70, 0
1, 68280, Note_on_c, 0, 68, 75
1, 68303, Note_on_c, 0, 68, 0
1, 68304, Note_on_c, 0, 67, 75
1, 68327, Note_on_c, 0, 67, 0
1, 68328, Note_on_c, 0, 68, 75
1, 68345, Note_on_c, 1, 60, 0
1, 68345, Note_on_c, 1, 56, 0
1, 68351, Note_on_c, 0, 68, 0
1, 68352, Note_on_c, 0, 67, 75
1, 68375, Note_on_c, 0, 67, 0
1, 68376, Note_on_c, 0, 68, 75
1, 68399, Note_on_c, 0, 68, 0
1, 68400, Note_on_c, 0, 67, 75
1, 68423, Note_on_c, 0, 67, 0
1, 68424, Note_on_c, 0, 68, 75
1, 68447, Note_on_c, 0, 68, 0
1, 68448, Note_on_c, 0, 72, 75
1, 68493, Note_on_c, 0, 72, 0
1, 68496, Note_on_c, 0, 68, 75
1, 68541, Note_on_c, 0, 68, 0
1, 68544, Note_on_c, 0, 67, 75
1, 68567, Note_on_c, 0, 67, 0
1, 68568, Note_on_c, 0, 65, 75
1, 68591, Note_on_c, 0, 65, 0
1, 68592, Note_on_c, 0, 64, 75
1, 68615, Note_on_c, 0, 64, 0
1, 68616, Note_on_c, 0, 65, 75
1, 68639, Note_on_c, 0, 65, 0
1, 68640, Note_on_c, 0, 73, 75
1, 68663, Note_on_c, 0, 73, 0
1, 68664, Note_on_c, 0, 72, 75
1, 68687, Note_on_c, 0, 72, 0
1, 68688, Note_on_c, 0, 71, 75
1, 68711, Note_on_c, 0, 71, 0
1, 68712, Note_on_c, 0, 72, 75
1, 68735, Note_on_c, 0, 72, 0
1, 68736, Note_on_c, 0, 79, 75
1, 68759, Note_on_c, 0, 79, 0
1, 68760, Note_on_c, 0, 77, 75
1, 68783, Note_on_c, 0, 77, 0
1, 68784, Note_on_c, 0, 76, 75
1, 68807, Note_on_c, 0, 76, 0
1, 68808, Note_on_c, 0, 77, 75
1, 68831, Note_on_c, 0, 77, 0
1, 68832, Tempo, 500000
1, 68832, Note_on_c, 0, 83, 75
1, 68885, Note_on_c, 0, 83, 0
1, 68892, Note_on_c, 0, 84, 75
1, 68904, Note_on_c, 0, 84, 0
1, 68904, Note_on_c, 0, 83, 75
1, 68916, Note_on_c, 0, 83, 0
1, 68916, Note_on_c, 0, 81, 75
1, 68928, Note_on_c, 0, 81, 0
1, 68928, Note_on_c, 0, 83, 75
1, 68995, Note_on_c, 0, 83, 0
1, 69000, Note_on_c, 0, 86, 75
1, 69023, Note_on_c, 0, 86, 0
1, 69024, Note_on_c, 0, 84, 75
1, 69054, Note_on_c, 0, 84, 0
1, 69056, Note_on_c, 0, 80, 75
1, 69086, Note_on_c, 0, 80, 0
1, 69088, Note_on_c, 0, 77, 75
1, 69118, Note_on_c, 0, 77, 0
1, 69120, Note_on_c, 0, 75, 75
1, 69120, Note_on_c, 1, 67, 75
1, 69120, Note_on_c, 1, 58, 64
1, 69253, Note_on_c, 0, 75, 0
1, 69264, Note_on_c, 0, 77, 75
1, 69276, Note_on_c, 0, 77, 0
1, 69276, Note_on_c, 0, 75, 75
1, 69288, Note_on_c, 0, 75, 0
1, 69288, Note_on_c, 0, 74, 75
1, 69297, Note_on_c, 1, 67, 0
1, 69300, Note_on_c, 0, 74, 0
1, 69300, Note_on_c, 0, 75, 75
1, 69312, Tempo, 705882
1, 69312, Note_on_c, 0, 75, 0
1, 69312, Note_on_c, 0, 79, 75
1, 69312, Note_on_c, 0, 74, 80
1, 69312, Note_on_c, 1, 68, 75
1, 69379, Note_on_c, 0, 79, 0
1, 69384, Note_on_c, 0, 77, 75
1, 69401, Note_on_c, 0, 74, 0
1, 69401, Note_on_c, 1, 68, 0
1, 69401, Note_on_c, 1, 58, 0
1, 69407, Note_on_c, 0, 77, 0
1, 69408, Tempo, 444444
1, 69408, Note_on_c, 0, 75, 80
1, 69408, Note_on_c, 1, 51, 70
1, 69431, Note_on_c, 1, 51, 0
1, 69432, Note_on_c, 1, 58, 70
1, 69455, Note_on_c, 1, 58, 0
1, 69456, Note_on_c, 1, 55, 70
1, 69479, Note_on_c, 1, 55, 0
1, 69480, Note_on_c, 1, 58, 70
1, 69497, Note_on_c, 0, 75, 0
1, 69503, Note_on_c, 1, 58, 0
1, 69504, Note_on_c, 1, 51, 70
1, 69527, Note_on_c, 1, 51, 0
1, 69528, Note_on_c, 1, 58, 70
1, 69551, Note_on_c, 1, 58, 0
1, 69552, Note_on_c, 0, 70, 80
1, 69552, Note_on_c, 1, 55, 70
1, 69575, Note_on_c, 1, 55, 0
1, 69576, Note_on_c, 1, 58, 70
1, 69597, Note_on_c, 0, 70, 0
1, 69599, Note_on_c, 1, 58, 0
1, 69600, Note_on_c, 0, 75, 80
1, 69600, Note_on_c, 1, 51, 70
1, 69623, Note_on_c, 1, 51, 0
1, 69624, Note_on_c, 1, 58, 70
1, 69645, Note_on_c, 0, 75, 0
1, 69647, Note_on_c, 1, 58, 0
1, 69648, Note_on_c, 0, 79, 80
1, 69648, Note_on_c, 1, 55, 70
1, 69671, Note_on_c, 1, 55, 0
1, 69672, Note_on_c, 1, 58, 70
1, 69693, Note_on_c, 0, 79, 0
1, 69695, Note_on_c, 1, 58, 0
1, 69696, Note_on_c, 0, 74, 80
1, 69696, Note_on_c, 1, 50, 70
1, 69708, Note_on_c, 0, 74, 0
1, 69708, Note_on_c, 0, 77, 80
1, 69719, Note_on_c, 1, 50, 0
1, 69720, Note_on_c, 0, 77, 0
1, 69720, Note_on_c, 0, 80, 96
1, 69720, Note_on_c, 1, 58, 70
1, 69743, Note_on_c, 1, 58, 0
1, 69744, Note_on_c, 1, 53, 70
1, 69767, Note_on_c, 1, 53, 0
1, 69768, Note_on_c, 1, 58, 70
1, 69791, Note_on_c, 1, 58, 0
1, 69792, Note_on_c, 1, 50, 70
1, 69815, Note_on_c, 1, 50, 0
1, 69816, Note_on_c, 1, 58, 70
1, 69839, Note_on_c, 1, 58, 0
1, 69840, Note_on_c, 0, 80, 0
1, 69840, Note_on_c, 0, 77, 80
1, 69840, Note_on_c, 1, 53, 70
1, 69863, Note_on_c, 0, 77, 0
1, 69863, Note_on_c, 1, 53, 0
1, 69864, Note_on_c, 0, 74, 80
1, 69864, Note_on_c, 1, 58, 70
1, 69887, Note_on_c, 0, 74, 0
1, 69887, Note_on_c, 1, 58, 0
1, 69888, Note_on_c, 0, 70, 80
1, 69888, Note_on_c, 1, 50, 70
1, 69911, Note_on_c, 1, 50, 0
1, 69912, Note_on_c, 1, 58, 70
1, 69933, Note_on_c, 0, 70, 0
1, 69935, Note_on_c, 1, 58, 0
1, 69936, Note_on_c, 0, 68, 80
1, 69936, Note_on_c, 1, 53, 70
1, 69959, Note_on_c, 1, 53, 0
1, 69960, Note_on_c, 1, 58, 70
1, 69981, Note_on_c, 0, 68, 0
1, 69983, Note_on_c, 1, 58, 0
1, 69984, Note_on_c, 0, 67, 80
1, 69984, Note_on_c, 1, 51, 70
1, 70007, Note_on_c, 1, 51, 0
1, 70008, Note_on_c, 1, 58, 70
1, 70031, Note_on_c, 1, 58, 0
1, 70032, Note_on_c, 1, 55, 70
1, 70055, Note_on_c, 1, 55, 0
1, 70056, Note_on_c, 1, 58, 70
1, 70073, Note_on_c, 0, 67, 0
1, 70079, Note_on_c, 1, 58, 0
1, 70080, Note_on_c, 1, 51, 70
1, 70103, Note_on_c, 1, 51, 0
1, 70104, Note_on_c, 0, 70, 80
1, 70104, Note_on_c, 1, 58, 70
1, 70127, Note_on_c, 0, 70, 0
1, 70127, Note_on_c, 1, 58, 0
1, 70128, Note_on_c, 0, 75, 80
1, 70128, Note_on_c, 1, 55, 70
1, 70151, Note_on_c, 0, 75, 0
1, 70151, Note_on_c, 1, 55, 0
1, 70152, Note_on_c, 0, 79, 80
1, 70152, Note_on_c, 1, 58, 70
1, 70175, Note_on_c, 0, 79, 0
1, 70175, Note_on_c, 1, 58, 0
1, 70176, Note_on_c, 0, 82, 80
1, 70176, Note_on_c, 1, 51, 70
1, 70199, Note_on_c, 1, 51, 0
1, 70200, Note_on_c, 1, 58, 70
1, 70221, Note_on_c, 0, 82, 0
1, 70223, Note_on_c, 1, 58, 0
1, 70224, Note_on_c, 0, 82, 80
1, 70224, Note_on_c, 1, 55, 70
1, 70247, Note_on_c, 1, 55, 0
1, 70248, Note_on_c, 1, 58, 70
1, 70269, Note_on_c, 0, 82, 0
1, 70271, Note_on_c, 1, 58, 0
1, 70272, Note_on_c, 0, 80, 75
1, 70272, Note_on_c, 1, 50, 70
1, 70295, Note_on_c, 0, 80, 0
1, 70296, Note_on_c, 0, 82, 75
1, 70319, Note_on_c, 0, 82, 0
1, 70320, Note_on_c, 0, 80, 75
1, 70343, Note_on_c, 0, 80, 0
1, 70344, Note_on_c, 0, 79, 75
1, 70361, Note_on_c, 1, 50, 0
1, 70367, Note_on_c, 0, 79, 0
1, 70368, Note_on_c, 0, 77, 75
1, 70391, Note_on_c, 0, 77, 0
1, 70392, Note_on_c, 0, 75, 75
1, 70415, Note_on_c, 0, 75, 0
1, 70416, Note_on_c, 0, 74, 75
1, 70439, Note_on_c, 0, 74, 0
1, 70440, Note_on_c, 0, 72, 75
1, 70463, Note_on_c, 0, 72, 0
1, 70464, Note_on_c, 0, 70, 75
1, 70487, Note_on_c, 0, 70, 0
1, 70488, Note_on_c, 0, 68, 75
1, 70511, Note_on_c, 0, 68, 0
1, 70512, Note_on_c, 0, 67, 75
1, 70535, Note_on_c, 0, 67, 0
1, 70536, Note_on_c, 0, 65, 75
1, 70559, Note_on_c, 0, 65, 0
1, 70560, Note_on_c, 0, 63, 75
1, 70560, Note_on_c, 1, 51, 75
1, 70605, Note_on_c, 0, 63, 0
1, 70605, Note_on_c, 1, 51, 0
1, 70608, Note_on_c, 0, 79, 74
1, 70608, Note_on_c, 0, 75, 74
1, 70653, Note_on_c, 0, 79, 0
1, 70653, Note_on_c, 0, 75, 0
1, 70656, Note_on_c, 1, 58, 75
1, 70701, Note_on_c, 1, 58, 0
1, 70704, Note_on_c, 0, 77, 72
1, 70704, Note_on_c, 0, 74, 72
1, 70749, Note_on_c, 0, 77, 0
1, 70749, Note_on_c, 0, 74, 0
1, 70752, Note_on_c, 1, 60, 73
1, 70797, Note_on_c, 1, 60, 0
1, 70800, Note_on_c, 0, 75, 71
1, 70800, Note_on_c, 0, 72, 71
1, 70845, Note_on_c, 0, 75, 0
1, 70845, Note_on_c, 0, 72, 0
1, 70848, Note_on_c, 1, 55, 71
1, 70893, Note_on_c, 1, 55, 0
1, 70896, Note_on_c, 0, 73, 69
1, 70896, Note_on_c, 0, 70, 69
1, 70941, Note_on_c, 0, 73, 0
1, 70941, Note_on_c, 0, 70, 0
1, 70944, Note_on_c, 1, 56, 69
1, 70989, Note_on_c, 1, 56, 0
1, 70992, Note_on_c, 0, 72, 67
1, 70992, Note_on_c, 0, 68, 67
1, 71037, Note_on_c, 0, 72, 0
1, 71037, Note_on_c, 0, 68, 0
1, 71040, Note_on_c, 1, 64, 67
1, 71040, Note_on_c, 1, 60, 67
1, 71085, Note_on_c, 1, 64, 0
1, 71085, Note_on_c, 1, 60, 0
1, 71088, Note_on_c, 0, 70, 66
1, 71088, Note_on_c, 0, 67, 66
1, 71133, Note_on_c, 0, 70, 0
1, 71133, Note_on_c, 0, 67, 0
1, 71136, Note_on_c, 1, 61, 65
1, 71181, Note_on_c, 1, 61, 0
1, 71184, Note_on_c, 0, 68, 64
1, 71184, Note_on_c, 0, 65, 64
1, 71229, Note_on_c, 0, 68, 0
1, 71229, Note_on_c, 0, 65, 0
1, 71568, Note_on_c, 0, 68, 64
1, 71568, Note_on_c, 0, 65, 64
1, 71588, Note_on_c, 0, 68, 0
1, 71588, Note_on_c, 0, 65, 0
1, 71616, Note_on_c, 0, 68, 64
1, 71616, Note_on_c, 0, 65, 64
1, 71636, Note_on_c, 0, 68, 0
1, 71636, Note_on_c, 0, 65, 0
1, 71664, Note_on_c, 0, 68, 64
1, 71664, Note_on_c, 0, 65, 64
1, 71684, Note_on_c, 0, 68, 0
1, 71684, Note_on_c, 0, 65, 0
1, 71712, Note_on_c, 0, 68, 64
1, 71712, Note_on_c, 0, 65, 64
1, 71856, Note_on_c, 1, 61, 64
1, 71876, Note_on_c, 1, 61, 0
1, 71904, Note_on_c, 1, 61, 64
1, 71924, Note_on_c, 1, 61, 0
1, 71952, Note_on_c, 1, 61, 64
1, 71972, Note_on_c, 1, 61, 0
1, 71977, Note_on_c, 0, 68, 0
1, 71977, Note_on_c, 0, 65, 0
1, 72000, Note_on_c, 1, 61, 64
1, 72144, Note_on_c, 0, 67, 64
1, 72150, Note_on_c, 0, 67, 0
1, 72150, Note_on_c, 0, 68, 64
1, 72150, Note_on_c, 0, 65, 64
1, 72164, Note_on_c, 0, 68, 0
1, 72164, Note_on_c, 0, 65, 0
1, 72177, Note_on_c, 1, 61, 0
1, 72192, Note_on_c, 0, 67, 64
1, 72198, Note_on_c, 0, 67, 0
1, 72198, Note_on_c, 0, 68, 64
1, 72198, Note_on_c, 0, 65, 64
1, 72212, Note_on_c, 0, 68, 0
1, 72212, Note_on_c, 0, 65, 0
1, 72240, Note_on_c, 0, 67, 64
1, 72246, Note_on_c, 0, 67, 0
1, 72246, Note_on_c, 0, 68, 64
1, 72246, Note_on_c, 0, 65, 64
1, 72260, Note_on_c, 0, 68, 0
1, 72260, Note_on_c, 0, 65, 0
1, 72288, Note_on_c, 0, 67, 64
1, 72294, Note_on_c, 0, 67, 0
1, 72294, Note_on_c, 0, 68, 64
1, 72294, Note_on_c, 0, 65, 64
1, 72432, Note_on_c, 1, 48, 80
1, 72438, Note_on_c, 1, 48, 0
1, 72438, Note_on_c, 1, 49, 80
1, 72452, Note_on_c, 1, 49, 0
1, 72480, Note_on_c, 1, 48, 80
1, 72486, Note_on_c, 1, 48, 0
1, 72486, Note_on_c, 1, 49, 80
1, 72500, Note_on_c, 1, 49, 0
1, 72528, Note_on_c, 1, 48, 80
1, 72534, Note_on_c, 1, 48, 0
1, 72534, Note_on_c, 1, 49, 80
1, 72548, Note_on_c, 1, 49, 0
1, 72576, Note_on_c, 1, 48, 80
1, 72582, Note_on_c, 1, 48, 0
1, 72582, Note_on_c, 1, 49, 80
1, 72665, Note_on_c, 1, 49, 0
1, 72672, Note_on_c, 1, 48, 80
1, 72753, Note_on_c, 0, 68, 0
1, 72753, Note_on_c, 0, 65, 0
1, 72761, Note_on_c, 1, 48, 0
1, 72768, Note_on_c, 0, 69, 71
1, 72768, Note_on_c, 0, 66, 71
1, 72768, Note_on_c, 0, 63, 71
1, 72768, Note_on_c, 1, 47, 80
1, 72857, Note_on_c, 0, 69, 0
1, 72857, Note_on_c, 0, 66, 0
1, 72857, Note_on_c, 0, 63, 0
1, 72857, Note_on_c, 1, 47, 0
1, 72864, Note_on_c, 0, 70, 74
1, 72864, Note_on_c, 0, 67, 74
1, 72864, Note_on_c, 0, 63, 74
1, 72864, Note_on_c, 1, 55, 80
1, 72864, Note_on_c, 1, 51, 80
1, 72864, Note_on_c, 1, 46, 80
1, 72997, Note_on_c, 0, 70, 0
1, 72997, Note_on_c, 0, 67, 0
1, 72997, Note_on_c, 0, 63, 0
1, 73008, Note_on_c, 0, 72, 80
1, 73031, Note_on_c, 0, 72, 0
1, 73032, Note_on_c, 0, 70, 80
1, 73055, Note_on_c, 0, 70, 0
1, 73056, Note_on_c, 0, 68, 80
1, 73079, Note_on_c, 0, 68, 0
1, 73080, Note_on_c, 0, 67, 80
1, 73103, Note_on_c, 0, 67, 0
1, 73104, Note_on_c, 0, 65, 80
1, 73127, Note_on_c, 0, 65, 0
1, 73128, Note_on_c, 0, 63, 80
1, 73129, Note_on_c, 1, 55, 0
1, 73129, Note_on_c, 1, 51, 0
1, 73129, Note_on_c, 1, 46, 0
1, 73151, Note_on_c, 0, 63, 0
1, 73152, Tempo, 500000
1, 73152, Note_on_c, 0, 62, 80
1, 73152, Note_on_c, 1, 56, 80
1, 73152, Note_on_c, 1, 53, 80
1, 73152, Note_on_c, 1, 46, 80
1, 73249, Note_on_c, 0, 62, 0
1, 73260, Note_on_c, 0, 67, 80
1, 73272, Note_on_c, 0, 67, 0
1, 73272, Note_on_c, 0, 65, 80
1, 73284, Note_on_c, 0, 65, 0
1, 73284, Note_on_c, 0, 63, 80
1, 73296, Note_on_c, 0, 63, 0
1, 73296, Note_on_c, 0, 65, 80
1, 73341, Note_on_c, 0, 65, 0
1, 73344, Note_on_c, 0, 68, 80
1, 73389, Note_on_c, 0, 68, 0
1, 73392, Note_on_c, 0, 62, 80
1, 73417, Note_on_c, 1, 56, 0
1, 73417, Note_on_c, 1, 53, 0
1, 73417, Note_on_c, 1, 46, 0
1, 73437, Note_on_c, 0, 62, 0
1, 73440, Tempo, 444444
1, 73440, Note_on_c, 0, 63, 80
1, 73440, Note_on_c, 1, 51, 64
1, 73485, Note_on_c, 0, 63, 0
1, 73488, Note_on_c, 0, 58, 64
1, 73488, Note_on_c, 1, 55, 64
1, 73533, Note_on_c, 0, 58, 0
1, 73533, Note_on_c, 1, 55, 0
1, 73536, Note_on_c, 0, 59, 64
1, 73536, Note_on_c, 1, 56, 64
1, 73581, Note_on_c, 0, 59, 0
1, 73581, Note_on_c, 1, 56, 0
1, 73584, Note_on_c, 0, 60, 64
1, 73584, Note_on_c, 1, 57, 64
1, 73629, Note_on_c, 0, 60, 0
1, 73629, Note_on_c, 1, 57, 0
1, 73632, Note_on_c, 0, 61, 64
1, 73632, Note_on_c, 1, 58, 64
1, 73677, Note_on_c, 0, 61, 0
1, 73677, Note_on_c, 1, 58, 0
1, 73680, Note_on_c, 0, 62, 64
1, 73680, Note_on_c, 1, 59, 64
1, 73725, Note_on_c, 0, 62, 0
1, 73725, Note_on_c, 1, 59, 0
1, 73728, Note_on_c, 0, 63, 64
1, 73728, Note_on_c, 1, 60, 64
1, 73773, Note_on_c, 0, 63, 0
1, 73773, Note_on_c, 1, 60, 0
1, 73776, Note_on_c, 0, 64, 64
1, 73776, Note_on_c, 1, 58, 64
1, 73821, Note_on_c, 0, 64, 0
1, 73821, Note_on_c, 1, 58, 0
1, 73824, Note_on_c, 0, 65, 64
1, 73824, Note_on_c, 1, 56, 64
1, 73869, Note_on_c, 0, 65, 0
1, 73869, Note_on_c, 1, 56, 0
1, 73872, Note_on_c, 0, 67, 64
1, 73872, Note_on_c, 1, 55, 64
1, 73917, Note_on_c, 0, 67, 0
1, 73917, Note_on_c, 1, 55, 0
1, 73920, Note_on_c, 0, 68, 64
1, 73920, Note_on_c, 1, 53, 64
1, 73965, Note_on_c, 0, 68, 0
1, 73965, Note_on_c, 1, 53, 0
1, 73968, Note_on_c, 0, 62, 64
1, 73968, Note_on_c, 1, 56, 64
1, 73993, Note_on_c, 1, 51, 0
1, 74013, Note_on_c, 0, 62, 0
1, 74013, Note_on_c, 1, 56, 0
1, 74016, Note_on_c, 0, 63, 64
1, 74016, Note_on_c, 1, 55, 64
1, 74016, Note_on_c, 1, 51, 64
1, 74036, Note_on_c, 0, 63, 0
1, 74061, Note_on_c, 1, 55, 0
1, 74061, Note_on_c, 1, 51, 0
1, 74064, Note_on_c, 0, 70, 80
1, 74064, Note_on_c, 0, 67, 80
1, 74109, Note_on_c, 0, 70, 0
1, 74109, Note_on_c, 0, 67, 0
1, 74112, Note_on_c, 0, 72, 80
1, 74112, Note_on_c, 0, 68, 80
1, 74157, Note_on_c, 0, 72, 0
1, 74157, Note_on_c, 0, 68, 0
1, 74160, Note_on_c, 0, 70, 80
1, 74160, Note_on_c, 0, 67, 80
1, 74205, Note_on_c, 0, 70, 0
1, 74205, Note_on_c, 0, 67, 0
1, 74208, Note_on_c, 0, 68, 80
1, 74208, Note_on_c, 0, 65, 80
1, 74253, Note_on_c, 0, 68, 0
1, 74253, Note_on_c, 0, 65, 0
1, 74256, Note_on_c, 0, 67, 80
1, 74256, Note_on_c, 0, 63, 80
1, 74301, Note_on_c, 0, 67, 0
1, 74301, Note_on_c, 0, 63, 0
1, 74304, Note_on_c, 0, 65, 80
1, 74304, Note_on_c, 0, 62, 80
1, 74304, Note_on_c, 1, 58, 80
1, 74304, Note_on_c, 1, 46, 80
1, 74324, Note_on_c, 1, 58, 0
1, 74324, Note_on_c, 1, 46, 0
1, 74352, Note_on_c, 1, 57, 80
1, 74352, Note_on_c, 1, 45, 80
1, 74372, Note_on_c, 1, 57, 0
1, 74372, Note_on_c, 1, 45, 0
1, 74393, Note_on_c, 0, 65, 0
1, 74393, Note_on_c, 0, 62, 0
1, 74400, Note_on_c, 1, 56, 80
1, 74400, Note_on_c, 1, 44, 80
1, 74420, Note_on_c, 1, 56, 0
1, 74420, Note_on_c, 1, 44, 0
1, 74448, Note_on_c, 1, 55, 80
1, 74448, Note_on_c, 1, 43, 80
1, 74468, Note_on_c, 1, 55, 0
1, 74468, Note_on_c, 1, 43, 0
1, 74496, Note_on_c, 0, 74, 80
1, 74496, Note_on_c, 0, 68, 80
1, 74496, Note_on_c, 0, 65, 80
1, 74496, Note_on_c, 1, 53, 80
1, 74496, Note_on_c, 1, 41, 80
1, 74516, Note_on_c, 1, 53, 0
1, 74516, Note_on_c, 1, 41, 0
1, 74544, Note_on_c, 1, 58, 80
1, 74544, Note_on_c, 1, 46, 80
1, 74564, Note_on_c, 1, 58, 0
1, 74564, Note_on_c, 1, 46, 0
1, 74585, Note_on_c, 0, 74, 0
1, 74585, Note_on_c, 0, 68, 0
1, 74585, Note_on_c, 0, 65, 0
1, 74592, Note_on_c, 0, 75, 80
1, 74592, Note_on_c, 0, 70, 80
1, 74592, Note_on_c, 0, 67, 80
1, 74592, Note_on_c, 1, 51, 80
1, 74592, Note_on_c, 1, 39, 80
1, 74612, Note_on_c, 0, 75, 0
1, 74612, Note_on_c, 0, 70, 0
1, 74612, Note_on_c, 0, 67, 0
1, 74640, Note_on_c, 0, 82, 64
1, 74640, Note_on_c, 0, 79, 64
1, 74681, Note_on_c, 1, 51, 0
1, 74681, Note_on_c, 1, 39, 0
1, 74685, Note_on_c, 0, 82, 0
1, 74685, Note_on_c, 0, 79, 0
1, 74688, Note_on_c, 0, 84, 64
1, 74688, Note_on_c, 0, 80, 64
1, 74733, Note_on_c, 0, 84, 0
1, 74733, Note_on_c, 0, 80, 0
1, 74736, Note_on_c, 0, 82, 64
1, 74736, Note_on_c, 0, 79, 64
1, 74781, Note_on_c, 0, 82, 0
1, 74781, Note_on_c, 0, 79, 0
1, 74784, Note_on_c, 0, 80, 64
1, 74784, Note_on_c, 0, 77, 64
1, 74829, Note_on_c, 0, 80, 0
1, 74829, Note_on_c, 0, 77, 0
1, 74832, Note_on_c, 0, 79, 64
1, 74832, Note_on_c, 0, 75, 64
1, 74877, Note_on_c, 0, 79, 0
1, 74877, Note_on_c, 0, 75, 0
1, 74880, Note_on_c, 0, 77, 64
1, 74880, Note_on_c, 0, 74, 64
1, 74928, Note_on_c, 1, 70, 64
1, 74973, Note_on_c, 1, 70, 0
1, 74976, Note_on_c, 1, 72, 64
1, 75021, Note_on_c, 1, 72, 0
1, 75024, Note_on_c, 1, 70, 64
1, 75069, Note_on_c, 1, 70, 0
1, 75072, Note_on_c, 0, 77, 0
1, 75072, Note_on_c, 0, 74, 0
1, 75072, Note_on_c, 0, 79, 64
1, 75072, Note_on_c, 0, 75, 64
1, 75072, Note_on_c, 1, 68, 64
1, 75117, Note_on_c, 1, 68, 0
1, 75120, Note_on_c, 1, 67, 64
1, 75161, Note_on_c, 0, 79, 0
1, 75161, Note_on_c, 0, 75, 0
1, 75165, Note_on_c, 1, 67, 0
1, 75168, Note_on_c, 0, 80, 64
1, 75168, Note_on_c, 0, 77, 64
1, 75168, Note_on_c, 1, 65, 64
1, 75213, Note_on_c, 1, 65, 0
1, 75216, Note_on_c, 1, 68, 64
1, 75257, Note_on_c, 0, 80, 0
1, 75257, Note_on_c, 0, 77, 0
1, 75261, Note_on_c, 1, 68, 0
1, 75264, Note_on_c, 0, 75, 64
1, 75264, Note_on_c, 0, 72, 64
1, 75264, Note_on_c, 1, 70, 64
1, 75309, Note_on_c, 1, 70, 0
1, 75312, Note_on_c, 1, 68, 64
1, 75353, Note_on_c, 0, 75, 0
1, 75353, Note_on_c, 0, 72, 0
1, 75357, Note_on_c, 1, 68, 0
1, 75360, Note_on_c, 0, 77, 64
1, 75360, Note_on_c, 0, 74, 64
1, 75360, Note_on_c, 1, 67, 64
1, 75405, Note_on_c, 1, 67, 0
1, 75408, Note_on_c, 1, 65, 64
1, 75449, Note_on_c, 0, 77, 0
1, 75449, Note_on_c, 0, 74, 0
1, 75453, Note_on_c, 1, 65, 0
1, 75456, Note_on_c, 0, 79, 64
1, 75456, Note_on_c, 0, 75, 64
1, 75456, Note_on_c, 1, 63, 64
1, 75504, Note_on_c, 0, 79, 0
1, 75504, Note_on_c, 0, 75, 0
1, 75504, Note_on_c, 0, 77, 64
1, 75504, Note_on_c, 0, 74, 64
1, 75504, Note_on_c, 1, 63, 0
1, 75504, Note_on_c, 1, 70, 64
1, 75549, Note_on_c, 0, 77, 0
1, 75549, Note_on_c, 0, 74, 0
1, 75549, Note_on_c, 1, 70, 0
1, 75552, Note_on_c, 0, 80, 64
1, 75552, Note_on_c, 0, 75, 64
1, 75552, Note_on_c, 1, 72, 64
1, 75597, Note_on_c, 0, 80, 0
1, 75597, Note_on_c, 0, 75, 0
1, 75597, Note_on_c, 1, 72, 0
1, 75600, Note_on_c, 0, 79, 64
1, 75600, Note_on_c, 0, 74, 64
1, 75600, Note_on_c, 1, 70, 64
1, 75645, Note_on_c, 0, 79, 0
1, 75645, Note_on_c, 0, 74, 0
1, 75645, Note_on_c, 1, 70, 0
1, 75648, Note_on_c, 0, 77, 64
1, 75648, Note_on_c, 0, 72, 64
1, 75648, Note_on_c, 1, 68, 64
1, 75693, Note_on_c, 0, 77, 0
1, 75693, Note_on_c, 0, 72, 0
1, 75693, Note_on_c, 1, 68, 0
1, 75696, Note_on_c, 0, 75, 64
1, 75696, Note_on_c, 0, 70, 64
1, 75696, Note_on_c, 1, 67, 64
1, 75741, Note_on_c, 0, 75, 0
1, 75741, Note_on_c, 0, 70, 0
1, 75741, Note_on_c, 1, 67, 0
1, 75744, Note_on_c, 0, 74, 64
1, 75744, Note_on_c, 0, 68, 64
1, 75744, Note_on_c, 1, 65, 64
1, 75789, Note_on_c, 0, 74, 0
1, 75789, Note_on_c, 0, 68, 0
1, 75789, Note_on_c, 1, 65, 0
1, 75792, Note_on_c, 0, 72, 64
1, 75792, Note_on_c, 0, 67, 64
1, 75792, Note_on_c, 1, 63, 64
1, 75837, Note_on_c, 0, 72, 0
1, 75837, Note_on_c, 0, 67, 0
1, 75837, Note_on_c, 1, 63, 0
1, 75840, Tempo, 500000
1, 75840, Note_on_c, 0, 70, 64
1, 75840, Note_on_c, 0, 65, 64
1, 75840, Note_on_c, 1, 62, 64
1, 75888, Note_on_c, 1, 62, 0
1, 75888, Note_on_c, 1, 61, 64
1, 75929, Note_on_c, 0, 70, 0
1, 75929, Note_on_c, 0, 65, 0
1, 75933, Note_on_c, 1, 61, 0
1, 75936, Note_on_c, 0, 69, 64
1, 75936, Note_on_c, 0, 63, 64
1, 75936, Note_on_c, 1, 60, 64
1, 75984, Note_on_c, 1, 60, 0
1, 75984, Note_on_c, 1, 59, 64
1, 76025, Note_on_c, 0, 69, 0
1, 76025, Note_on_c, 0, 63, 0
1, 76029, Note_on_c, 1, 59, 0
1, 76032, Tempo, 1000000
1, 76032, Note_on_c, 0, 68, 64
1, 76032, Note_on_c, 0, 62, 64
1, 76032, Note_on_c, 1, 58, 64
1, 76209, Note_on_c, 0, 68, 0
1, 76209, Note_on_c, 0, 62, 0
1, 76209, Note_on_c, 1, 58, 0
1, 76272, Tempo, 444444
1, 76272, Note_on_c, 1, 46, 75
1, 76292, Note_on_c, 1, 46, 0
1, 76320, Note_on_c, 1, 51, 75
1, 76368, Note_on_c, 0, 63, 64
1, 76413, Note_on_c, 0, 63, 0
1, 76416, Note_on_c, 0, 67, 64
1, 76461, Note_on_c, 0, 67, 0
1, 76464, Note_on_c, 0, 63, 64
1, 76509, Note_on_c, 0, 63, 0
1, 76512, Note_on_c, 0, 68, 64
1, 76557, Note_on_c, 0, 68, 0
1, 76557, Note_on_c, 1, 51, 0
1, 76560, Note_on_c, 0, 58, 64
1, 76560, Note_on_c, 1, 50, 75
1, 76580, Note_on_c, 1, 50, 0
1, 76605, Note_on_c, 0, 58, 0
1, 76608, Note_on_c, 1, 56, 75
1, 76656, Note_on_c, 0, 70, 64
1, 76701, Note_on_c, 0, 70, 0
1, 76704, Note_on_c, 0, 74, 64
1, 76749, Note_on_c, 0, 74, 0
1, 76752, Note_on_c, 0, 70, 64
1, 76797, Note_on_c, 0, 70, 0
1, 76800, Note_on_c, 0, 75, 64
1, 76845, Note_on_c, 0, 75, 0
1, 76845, Note_on_c, 1, 56, 0
1, 76848, Note_on_c, 0, 63, 64
1, 76848, Note_on_c, 1, 55, 75
1, 76868, Note_on_c, 1, 55, 0
1, 76893, Note_on_c, 0, 63, 0
1, 76896, Note_on_c, 1, 61, 75
1, 76944, Note_on_c, 0, 75, 64
1, 76989, Note_on_c, 0, 75, 0
1, 76992, Note_on_c, 0, 79, 64
1, 77037, Note_on_c, 0, 79, 0
1, 77040, Note_on_c, 0, 75, 64
1, 77085, Note_on_c, 0, 75, 0
1, 77088, Note_on_c, 0, 80, 64
1, 77133, Note_on_c, 0, 80, 0
1, 77133, Note_on_c, 1, 61, 0
1, 77136, Note_on_c, 0, 68, 64
1, 77136, Note_on_c, 1, 60, 75
1, 77156, Note_on_c, 1, 60, 0
1, 77181, Note_on_c, 0, 68, 0
1, 77184, Note_on_c, 0, 81, 64
1, 77229, Note_on_c, 0, 81, 0
1, 77232, Note_on_c, 0, 69, 66
1, 77232, Note_on_c, 1, 65, 66
1, 77232, Note_on_c, 1, 63, 66
1, 77277, Note_on_c, 0, 69, 0
1, 77277, Note_on_c, 1, 65, 0
1, 77277, Note_on_c, 1, 63, 0
1, 77280, Note_on_c, 0, 82, 68
1, 77325, Note_on_c, 0, 82, 0
1, 77328, Note_on_c, 0, 70, 70
1, 77328, Note_on_c, 1, 65, 70
1, 77328, Note_on_c, 1, 62, 70
1, 77373, Note_on_c, 0, 70, 0
1, 77373, Note_on_c, 1, 65, 0
1, 77373, Note_on_c, 1, 62, 0
1, 77376, Note_on_c, 0, 83, 73
1, 77421, Note_on_c, 0, 83, 0
1, 77424, Note_on_c, 0, 71, 75
1, 77424, Note_on_c, 1, 67, 75
1, 77424, Note_on_c, 1, 65, 75
1, 77469, Note_on_c, 0, 71, 0
1, 77469, Note_on_c, 1, 67, 0
1, 77469, Note_on_c, 1, 65, 0
1, 77472, Note_on_c, 0, 84, 77
1, 77517, Note_on_c, 0, 84, 0
1, 77520, Note_on_c, 0, 72, 80
1, 77520, Note_on_c, 1, 67, 80
1, 77520, Note_on_c, 1, 63, 80
1, 77565, Note_on_c, 0, 72, 0
1, 77565, Note_on_c, 1, 67, 0
1, 77565, Note_on_c, 1, 63, 0
1, 77568, Note_on_c, 0, 86, 80
1, 77613, Note_on_c, 0, 86, 0
1, 77616, Note_on_c, 0, 74, 80
1, 77616, Note_on_c, 1, 70, 80
1, 77616, Note_on_c, 1, 68, 80
1, 77661, Note_on_c, 0, 74, 0
1, 77661, Note_on_c, 1, 70, 0
1, 77661, Note_on_c, 1, 68, 0
1, 77664, Note_on_c, 0, 87, 80
1, 77709, Note_on_c, 0, 87, 0
1, 77712, Note_on_c, 0, 75, 80
1, 77712, Note_on_c, 1, 70, 80
1, 77712, Note_on_c, 1, 67, 80
1, 77757, Note_on_c, 0, 75, 0
1, 77757, Note_on_c, 1, 70, 0
1, 77757, Note_on_c, 1, 67, 0
1, 78000, Note_on_c, 0, 60, 64
1, 78020, Note_on_c, 0, 60, 0
1, 78048, Note_on_c, 0, 72, 64
1, 78096, Note_on_c, 1, 44, 64
1, 78141, Note_on_c, 1, 44, 0
1, 78144, Note_on_c, 1, 56, 64
1, 78189, Note_on_c, 1, 56, 0
1, 78192, Note_on_c, 1, 53, 64
1, 78237, Note_on_c, 1, 53, 0
1, 78240, Note_on_c, 1, 58, 64
1, 78285, Note_on_c, 0, 72, 0
1, 78285, Note_on_c, 1, 58, 0
1, 78288, Note_on_c, 0, 62, 64
1, 78288, Note_on_c, 1, 46, 64
1, 78308, Note_on_c, 0, 62, 0
1, 78333, Note_on_c, 1, 46, 0
1, 78336, Note_on_c, 0, 63, 64
1, 78336, Note_on_c, 1, 51, 64
1, 78381, Note_on_c, 0, 63, 0
1, 78384, Note_on_c, 0, 70, 64
1, 78384, Note_on_c, 0, 67, 64
1, 78425, Note_on_c, 1, 51, 0
1, 78429, Note_on_c, 0, 70, 0
1, 78429, Note_on_c, 0, 67, 0
1, 78432, Note_on_c, 0, 72, 64
1, 78432, Note_on_c, 0, 68, 64
1, 78477, Note_on_c, 0, 72, 0
1, 78477, Note_on_c, 0, 68, 0
1, 78480, Note_on_c, 0, 70, 64
1, 78480, Note_on_c, 0, 67, 64
1, 78525, Note_on_c, 0, 70, 0
1, 78525, Note_on_c, 0, 67, 0
1, 78528, Note_on_c, 0, 68, 64
1, 78528, Note_on_c, 0, 65, 64
1, 78573, Note_on_c, 0, 68, 0
1, 78573, Note_on_c, 0, 65, 0
1, 78576, Note_on_c, 0, 67, 64
1, 78576, Note_on_c, 0, 63, 64
1, 78621, Note_on_c, 0, 67, 0
1, 78621, Note_on_c, 0, 63, 0
1, 78624, Note_on_c, 0, 65, 64
1, 78624, Note_on_c, 0, 62, 64
1, 78672, Note_on_c, 1, 58, 64
1, 78713, Note_on_c, 0, 65, 0
1, 78713, Note_on_c, 0, 62, 0
1, 78717, Note_on_c, 1, 58, 0
1, 78720, Note_on_c, 1, 57, 64
1, 78765, Note_on_c, 1, 57, 0
1, 78768, Note_on_c, 1, 58, 64
1, 78813, Note_on_c, 1, 58, 0
1, 78816, Note_on_c, 1, 56, 64
1, 78861, Note_on_c, 1, 56, 0
1, 78864, Note_on_c, 1, 53, 64
1, 78909, Note_on_c, 1, 53, 0
1, 78912, Note_on_c, 1, 51, 64
1, 78960, Note_on_c, 0, 58, 64
1, 78960, Note_on_c, 0, 55, 64
1, 79001, Note_on_c, 1, 51, 0
1, 79005, Note_on_c, 0, 58, 0
1, 79005, Note_on_c, 0, 55, 0
1, 79008, Note_on_c, 0, 60, 64
1, 79008, Note_on_c, 0, 56, 64
1, 79053, Note_on_c, 0, 60, 0
1, 79053, Note_on_c, 0, 56, 0
1, 79056, Note_on_c, 0, 58, 64
1, 79056, Note_on_c, 0, 55, 64
1, 79101, Note_on_c, 0, 58, 0
1, 79101, Note_on_c, 0, 55, 0
1, 79104, Note_on_c, 0, 56, 64
1, 79104, Note_on_c, 0, 53, 64
1, 79149, Note_on_c, 0, 56, 0
1, 79149, Note_on_c, 0, 53, 0
1, 79152, Note_on_c, 0, 55, 64
1, 79152, Note_on_c, 0, 51, 64
1, 79197, Note_on_c, 0, 55, 0
1, 79197, Note_on_c, 0, 51, 0
1, 79200, Note_on_c, 0, 53, 64
1, 79200, Note_on_c, 0, 50, 64
1, 79248, Note_on_c, 1, 34, 64
1, 79289, Note_on_c, 0, 53, 0
1, 79289, Note_on_c, 0, 50, 0
1, 79293, Note_on_c, 1, 34, 0
1, 79296, Note_on_c, 1, 35, 64
1, 79341, Note_on_c, 1, 35, 0
1, 79344, Note_on_c, 1, 36, 64
1, 79389, Note_on_c, 1, 36, 0
1, 79392, Note_on_c, 1, 37, 64
1, 79437, Note_on_c, 1, 37, 0
1, 79440, Note_on_c, 1, 38, 64
1, 79485, Note_on_c, 1, 38, 0
1, 79488, Note_on_c, 1, 39, 64
1, 79536, Note_on_c, 0, 51, 64
1, 79577, Note_on_c, 1, 39, 0
1, 79581, Note_on_c, 0, 51, 0
1, 79584, Note_on_c, 0, 52, 64
1, 79629, Note_on_c, 0, 52, 0
1, 79632, Note_on_c, 0, 53, 64
1, 79677, Note_on_c, 0, 53, 0
1, 79680, Note_on_c, 0, 54, 64
1, 79725, Note_on_c, 0, 54, 0
1, 79728, Note_on_c, 0, 55, 64
1, 79773, Note_on_c, 0, 55, 0
1, 79776, Note_on_c, 0, 56, 64
1, 79824, Note_on_c, 1, 48, 64
1, 79869, Note_on_c, 1, 48, 0
1, 79872, Note_on_c, 1, 51, 64
1, 79917, Note_on_c, 1, 51, 0
1, 79920, Note_on_c, 1, 48, 64
1, 79965, Note_on_c, 1, 48, 0
1, 79968, Note_on_c, 1, 46, 64
1, 80013, Note_on_c, 0, 56, 0
1, 80013, Note_on_c, 1, 46, 0
1, 80016, Note_on_c, 0, 55, 64
1, 80016, Note_on_c, 1, 51, 64
1, 80036, Note_on_c, 0, 55, 0
1, 80061, Note_on_c, 1, 51, 0
1, 80064, Note_on_c, 0, 60, 64
1, 80112, Note_on_c, 1, 44, 64
1, 80157, Note_on_c, 1, 44, 0
1, 80160, Note_on_c, 1, 51, 64
1, 80205, Note_on_c, 1, 51, 0
1, 80208, Note_on_c, 1, 44, 64
1, 80253, Note_on_c, 1, 44, 0
1, 80256, Note_on_c, 1, 43, 64
1, 80301, Note_on_c, 0, 60, 0
1, 80301, Note_on_c, 1, 43, 0
1, 80304, Note_on_c, 0, 58, 64
1, 80304, Note_on_c, 1, 51, 64
1, 80324, Note_on_c, 0, 58, 0
1, 80349, Note_on_c, 1, 51, 0
1, 80352, Note_on_c, 0, 68, 80
1, 80352, Note_on_c, 0, 65, 80
1, 80352, Note_on_c, 0, 58, 80
1, 80400, Note_on_c, 1, 38, 80
1, 80445, Note_on_c, 1, 38, 0
1, 80448, Note_on_c, 1, 50, 80
1, 80493, Note_on_c, 1, 50, 0
1, 80496, Note_on_c, 1, 38, 80
1, 80541, Note_on_c, 1, 38, 0
1, 80544, Note_on_c, 0, 58, 0
1, 80544, Note_on_c, 1, 39, 80
1, 80589, Note_on_c, 0, 68, 0
1, 80589, Note_on_c, 0, 65, 0
1, 80589, Note_on_c, 1, 39, 0
1, 80592, Note_on_c, 0, 67, 64
1, 80592, Note_on_c, 0, 63, 64
1, 80592, Note_on_c, 1, 51, 80
1, 80637, Note_on_c, 0, 67, 0
1, 80637, Note_on_c, 0, 63, 0
1, 80637, Note_on_c, 1, 51, 0
1, 80640, Note_on_c, 1, 56, 64
1, 80640, Note_on_c, 1, 44, 64
1, 80685, Note_on_c, 1, 56, 0
1, 80685, Note_on_c, 1, 44, 0
1, 80688, Note_on_c, 0, 65, 64
1, 80688, Note_on_c, 0, 60, 64
1, 80733, Note_on_c, 0, 65, 0
1, 80733, Note_on_c, 0, 60, 0
1, 80736, Note_on_c, 1, 55, 64
1, 80736, Note_on_c, 1, 46, 64
1, 80781, Note_on_c, 1, 55, 0
1, 80781, Note_on_c, 1, 46, 0
1, 80784, Note_on_c, 0, 63, 64
1, 80784, Note_on_c, 0, 58, 64
1, 80829, Note_on_c, 0, 63, 0
1, 80829, Note_on_c, 0, 58, 0
1, 80832, Note_on_c, 1, 53, 64
1, 80832, Note_on_c, 1, 46, 64
1, 80877, Note_on_c, 1, 53, 0
1, 80877, Note_on_c, 1, 46, 0
1, 80880, Note_on_c, 0, 62, 64
1, 80880, Note_on_c, 0, 56, 64
1, 80925, Note_on_c, 0, 62, 0
1, 80925, Note_on_c, 0, 56, 0
1, 80928, Note_on_c, 0, 68, 80
1, 80928, Note_on_c, 0, 65, 80
1, 80928, Note_on_c, 0, 58, 80
1, 80976, Note_on_c, 1, 38, 80
1, 81021, Note_on_c, 1, 38, 0
1, 81024, Note_on_c, 1, 50, 80
1, 81069, Note_on_c, 1, 50, 0
1, 81072, Note_on_c, 1, 38, 80
1, 81117, Note_on_c, 1, 38, 0
1, 81120, Note_on_c, 0, 58, 0
1, 81120, Note_on_c, 1, 39, 80
1, 81165, Note_on_c, 0, 68, 0
1, 81165, Note_on_c, 0, 65, 0
1, 81165, Note_on_c, 1, 39, 0
1, 81168, Note_on_c, 0, 67, 64
1, 81168, Note_on_c, 0, 63, 64
1, 81168, Note_on_c, 1, 51, 80
1, 81213, Note_on_c, 0, 67, 0
1, 81213, Note_on_c, 0, 63, 0
1, 81213, Note_on_c, 1, 51, 0
1, 81216, Note_on_c, 1, 56, 64
1, 81216, Note_on_c, 1, 44, 64
1, 81261, Note_on_c, 1, 56, 0
1, 81261, Note_on_c, 1, 44, 0
1, 81264, Note_on_c, 0, 65, 64
1, 81264, Note_on_c, 0, 60, 64
1, 81309, Note_on_c, 0, 65, 0
1, 81309, Note_on_c, 0, 60, 0
1, 81312, Note_on_c, 1, 55, 64
1, 81312, Note_on_c, 1, 46, 64
1, 81357, Note_on_c, 1, 55, 0
1, 81357, Note_on_c, 1, 46, 0
1, 81360, Note_on_c, 0, 63, 64
1, 81360, Note_on_c, 0, 58, 64
1, 81405, Note_on_c, 0, 63, 0
1, 81405, Note_on_c, 0, 58, 0
1, 81408, Note_on_c, 1, 53, 64
1, 81408, Note_on_c, 1, 46, 64
1, 81453, Note_on_c, 1, 53, 0
1, 81453, Note_on_c, 1, 46, 0
1, 81456, Note_on_c, 0, 62, 64
1, 81456, Note_on_c, 0, 56, 64
1, 81501, Note_on_c, 0, 62, 0
1, 81501, Note_on_c, 0, 56, 0
1, 81504, Note_on_c, 1, 55, 64
1, 81504, Note_on_c, 1, 51, 64
1, 81552, Note_on_c, 0, 70, 64
1, 81552, Note_on_c, 0, 67, 64
1, 81593, Note_on_c, 1, 55, 0
1, 81593, Note_on_c, 1, 51, 0
1, 81597, Note_on_c, 0, 70, 0
1, 81597, Note_on_c, 0, 67, 0
1, 81600, Note_on_c, 0, 72, 64
1, 81600, Note_on_c, 0, 68, 64
1, 81645, Note_on_c, 0, 72, 0
1, 81645, Note_on_c, 0, 68, 0
1, 81648, Note_on_c, 0, 70, 64
1, 81648, Note_on_c, 0, 67, 64
1, 81693, Note_on_c, 0, 70, 0
1, 81693, Note_on_c, 0, 67, 0
1, 81696, Note_on_c, 0, 68, 64
1, 81696, Note_on_c, 0, 65, 64
1, 81741, Note_on_c, 0, 68, 0
1, 81741, Note_on_c, 0, 65, 0
1, 81744, Note_on_c, 0, 67, 64
1, 81744, Note_on_c, 0, 63, 64
1, 81789, Note_on_c, 0, 67, 0
1, 81789, Note_on_c, 0, 63, 0
1, 81792, Note_on_c, 1, 65, 64
1, 81792, Note_on_c, 1, 62, 64
1, 81792, Note_on_c, 1, 58, 64
1, 81792, Note_on_c, 1, 56, 64
1, 81840, Note_on_c, 0, 82, 64
1, 81885, Note_on_c, 0, 82, 0
1, 81888, Note_on_c, 0, 83, 64
1, 81933, Note_on_c, 0, 83, 0
1, 81936, Note_on_c, 0, 84, 64
1, 81981, Note_on_c, 0, 84, 0
1, 81984, Note_on_c, 0, 85, 64
1, 82029, Note_on_c, 0, 85, 0
1, 82032, Note_on_c, 0, 86, 64
1, 82057, Note_on_c, 1, 65, 0
1, 82057, Note_on_c, 1, 62, 0
1, 82057, Note_on_c, 1, 58, 0
1, 82057, Note_on_c, 1, 56, 0
1, 82077, Note_on_c, 0, 86, 0
1, 82080, Note_on_c, 0, 87, 64
1, 82080, Note_on_c, 1, 63, 64
1, 82080, Note_on_c, 1, 58, 64
1, 82080, Note_on_c, 1, 55, 64
1, 82125, Note_on_c, 0, 87, 0
1, 82128, Note_on_c, 0, 70, 64
1, 82128, Note_on_c, 0, 67, 64
1, 82169, Note_on_c, 1, 63, 0
1, 82169, Note_on_c, 1, 58, 0
1, 82169, Note_on_c, 1, 55, 0
1, 82173, Note_on_c, 0, 70, 0
1, 82173, Note_on_c, 0, 67, 0
1, 82176, Note_on_c, 0, 72, 64
1, 82176, Note_on_c, 0, 68, 64
1, 82221, Note_on_c, 0, 72, 0
1, 82221, Note_on_c, 0, 68, 0
1, 82224, Note_on_c, 0, 70, 64
1, 82224, Note_on_c, 0, 67, 64
1, 82269, Note_on_c, 0, 70, 0
1, 82269, Note_on_c, 0, 67, 0
1, 82272, Note_on_c, 0, 68, 64
1, 82272, Note_on_c, 0, 65, 64
1, 82317, Note_on_c, 0, 68, 0
1, 82317, Note_on_c, 0, 65, 0
1, 82320, Note_on_c, 0, 67, 64
1, 82320, Note_on_c, 0, 63, 64
1, 82365, Note_on_c, 0, 67, 0
1, 82365, Note_on_c, 0, 63, 0
1, 82368, Note_on_c, 0, 58, 80
1, 82368, Note_on_c, 1, 56, 80
1, 82368, Note_on_c, 1, 53, 80
1, 82368, Note_on_c, 1, 50, 80
1, 82368, Note_on_c, 1, 46, 80
1, 82487, Note_on_c, 0, 58, 0
1, 82488, Note_on_c, 0, 60, 80
1, 82511, Note_on_c, 0, 60, 0
1, 82512, Note_on_c, 0, 62, 80
1, 82535, Note_on_c, 0, 62, 0
1, 82536, Note_on_c, 0, 63, 80
1, 82559, Note_on_c, 0, 63, 0
1, 82560, Note_on_c, 0, 65, 80
1, 82572, Note_on_c, 0, 65, 0
1, 82572, Note_on_c, 0, 67, 80
1, 82584, Note_on_c, 0, 67, 0
1, 82584, Note_on_c, 0, 68, 80
1, 82596, Note_on_c, 0, 68, 0
1, 82596, Note_on_c, 0, 70, 80
1, 82608, Note_on_c, 0, 70, 0
1, 82608, Note_on_c, 0, 72, 80
1, 82620, Note_on_c, 0, 72, 0
1, 82620, Note_on_c, 0, 74, 80
1, 82632, Note_on_c, 0, 74, 0
1, 82632, Note_on_c, 0, 75, 80
1, 82633, Note_on_c, 1, 56, 0
1, 82633, Note_on_c, 1, 53, 0
1, 82633, Note_on_c, 1, 50, 0
1, 82633, Note_on_c, 1, 46, 0
1, 82644, Note_on_c, 0, 75, 0
1, 82644, Note_on_c, 0, 77, 80
1, 82656, Note_on_c, 0, 77, 0
1, 82656, Note_on_c, 0, 79, 80
1, 82656, Note_on_c, 1, 51, 80
1, 82656, Note_on_c, 1, 46, 80
1, 82656, Note_on_c, 1, 43, 80
1, 82656, Note_on_c, 1, 39, 80
1, 82745, Note_on_c, 0, 79, 0
1, 82745, Note_on_c, 1, 51, 0
1, 82745, Note_on_c, 1, 46, 0
1, 82745, Note_on_c, 1, 43, 0
1, 82745, Note_on_c, 1, 39, 0
1, 82896, Note_on_c, 0, 65, 70
1, 82896, Note_on_c, 0, 62, 70
1, 82941, Note_on_c, 0, 65, 0
1, 82941, Note_on_c, 0, 62, 0
1, 82944, Note_on_c, 0, 67, 70
1, 82944, Note_on_c, 0, 63, 70
1, 82989, Note_on_c, 0, 67, 0
1, 82989, Note_on_c, 0, 63, 0
1, 82992, Note_on_c, 0, 65, 70
1, 82992, Note_on_c, 0, 62, 70
1, 83037, Note_on_c, 0, 65, 0
1, 83037, Note_on_c, 0, 62, 0
1, 83040, Note_on_c, 0, 63, 70
1, 83040, Note_on_c, 0, 60, 70
1, 83085, Note_on_c, 0, 63, 0
1, 83085, Note_on_c, 0, 60, 0
1, 83088, Note_on_c, 0, 62, 70
1, 83088, Note_on_c, 0, 58, 70
1, 83133, Note_on_c, 0, 62, 0
1, 83133, Note_on_c, 0, 58, 0
1, 83136, Note_on_c, 0, 60, 70
1, 83136, Note_on_c, 0, 57, 70
1, 83181, Note_on_c, 0, 60, 0
1, 83181, Note_on_c, 0, 57, 0
1, 83184, Note_on_c, 0, 63, 70
1, 83184, Note_on_c, 0, 60, 70
1, 83184, Note_on_c, 1, 53, 70
1, 83229, Note_on_c, 0, 63, 0
1, 83229, Note_on_c, 0, 60, 0
1, 83229, Note_on_c, 1, 53, 0
1, 83232, Note_on_c, 0, 62, 70
1, 83232, Note_on_c, 0, 58, 70
1, 83232, Note_on_c, 1, 55, 70
1, 83277, Note_on_c, 1, 55, 0
1, 83280, Note_on_c, 1, 53, 70
1, 83321, Note_on_c, 0, 62, 0
1, 83321, Note_on_c, 0, 58, 0
1, 83325, Note_on_c, 1, 53, 0
1, 83328, Note_on_c, 0, 70, 70
1, 83328, Note_on_c, 0, 62, 70
1, 83328, Note_on_c, 1, 51, 70
1, 83373, Note_on_c, 1, 51, 0
1, 83376, Note_on_c, 1, 50, 70
1, 83417, Note_on_c, 0, 62, 0
1, 83421, Note_on_c, 1, 50, 0
1, 83424, Note_on_c, 0, 63, 70
1, 83424, Note_on_c, 1, 48, 70
1, 83461, Note_on_c, 0, 70, 0
1, 83469, Note_on_c, 1, 48, 0
1, 83472, Note_on_c, 0, 69, 70
1, 83472, Note_on_c, 1, 53, 70
1, 83513, Note_on_c, 0, 63, 0
1, 83517, Note_on_c, 0, 69, 0
1, 83517, Note_on_c, 1, 53, 0
1, 83520, Note_on_c, 0, 68, 70
1, 83520, Note_on_c, 0, 62, 70
1, 83520, Note_on_c, 1, 46, 70
1, 83565, Note_on_c, 1, 46, 0
1, 83568, Note_on_c, 1, 58, 70
1, 83609, Note_on_c, 0, 68, 0
1, 83609, Note_on_c, 0, 62, 0
1, 83613, Note_on_c, 1, 58, 0
1, 83616, Note_on_c, 0, 67, 70
1, 83616, Note_on_c, 0, 63, 70
1, 83616, Note_on_c, 1, 60, 70
1, 83661, Note_on_c, 1, 60, 0
1, 83664, Note_on_c, 1, 58, 70
1, 83705, Note_on_c, 0, 67, 0
1, 83705, Note_on_c, 0, 63, 0
1, 83709, Note_on_c, 1, 58, 0
1, 83712, Note_on_c, 0, 75, 70
1, 83712, Note_on_c, 0, 67, 70
1, 83712, Note_on_c, 1, 56, 70
1, 83757, Note_on_c, 1, 56, 0
1, 83760, Note_on_c, 1, 55, 70
1, 83801, Note_on_c, 0, 67, 0
1, 83805, Note_on_c, 1, 55, 0
1, 83808, Note_on_c, 0, 68, 70
1, 83808, Note_on_c, 1, 53, 70
1, 83853, Note_on_c, 1, 53, 0
1, 83856, Note_on_c, 1, 60, 70
1, 83897, Note_on_c, 0, 75, 0
1, 83901, Note_on_c, 1, 60, 0
1, 83904, Note_on_c, 0, 74, 70
1, 83904, Note_on_c, 1, 58, 70
1, 83941, Note_on_c, 0, 68, 0
1, 83949, Note_on_c, 1, 58, 0
1, 83952, Note_on_c, 0, 72, 70
1, 83952, Note_on_c, 1, 56, 70
1, 83997, Note_on_c, 0, 72, 0
1, 83997, Note_on_c, 1, 56, 0
1, 84000, Note_on_c, 0, 70, 70
1, 84000, Note_on_c, 1, 55, 70
1, 84045, Note_on_c, 0, 70, 0
1, 84045, Note_on_c, 1, 55, 0
1, 84048, Note_on_c, 0, 68, 70
1, 84048, Note_on_c, 1, 53, 70
1, 84093, Note_on_c, 0, 68, 0
1, 84093, Note_on_c, 1, 53, 0
1, 84096, Note_on_c, 0, 67, 70
1, 84096, Note_on_c, 1, 51, 70
1, 84141, Note_on_c, 1, 51, 0
1, 84144, Note_on_c, 1, 58, 70
1, 84185, Note_on_c, 0, 74, 0
1, 84189, Note_on_c, 1, 58, 0
1, 84192, Note_on_c, 0, 72, 70
1, 84192, Note_on_c, 1, 56, 70
1, 84229, Note_on_c, 0, 67, 0
1, 84237, Note_on_c, 1, 56, 0
1, 84240, Note_on_c, 0, 70, 70
1, 84240, Note_on_c, 1, 55, 70
1, 84285, Note_on_c, 0, 70, 0
1, 84285, Note_on_c, 1, 55, 0
1, 84288, Note_on_c, 0, 68, 70
1, 84288, Note_on_c, 1, 53, 70
1, 84333, Note_on_c, 0, 68, 0
1, 84333, Note_on_c, 1, 53, 0
1, 84336, Note_on_c, 0, 67, 70
1, 84336, Note_on_c, 1, 51, 70
1, 84381, Note_on_c, 0, 67, 0
1, 84381, Note_on_c, 1, 51, 0
1, 84384, Note_on_c, 0, 65, 70
1, 84384, Note_on_c, 1, 50, 70
1, 84429, Note_on_c, 1, 50, 0
1, 84432, Note_on_c, 1, 56, 70
1, 84473, Note_on_c, 0, 72, 0
1, 84477, Note_on_c, 1, 56, 0
1, 84480, Note_on_c, 0, 71, 70
1, 84480, Note_on_c, 1, 55, 70
1, 84517, Note_on_c, 0, 65, 0
1, 84525, Note_on_c, 1, 55, 0
1, 84528, Note_on_c, 0, 68, 70
1, 84528, Note_on_c, 1, 53, 70
1, 84573, Note_on_c, 0, 68, 0
1, 84573, Note_on_c, 1, 53, 0
1, 84576, Note_on_c, 0, 67, 70
1, 84576, Note_on_c, 1, 51, 70
1, 84621, Note_on_c, 0, 67, 0
1, 84621, Note_on_c, 1, 51, 0
1, 84624, Note_on_c, 0, 65, 70
1, 84624, Note_on_c, 1, 50, 70
1, 84669, Note_on_c, 0, 65, 0
1, 84669, Note_on_c, 1, 50, 0
1, 84672, Note_on_c, 0, 64, 70
1, 84672, Note_on_c, 1, 48, 70
1, 84717, Note_on_c, 1, 48, 0
1, 84720, Note_on_c, 1, 60, 70
1, 84761, Note_on_c, 0, 71, 0
1, 84761, Note_on_c, 0, 64, 0
1, 84765, Note_on_c, 1, 60, 0
1, 84768, Note_on_c, 0, 68, 70
1, 84768, Note_on_c, 0, 65, 70
1, 84768, Note_on_c, 1, 61, 70
1, 84813, Note_on_c, 1, 61, 0
1, 84816, Note_on_c, 1, 60, 70
1, 84857, Note_on_c, 0, 68, 0
1, 84857, Note_on_c, 0, 65, 0
1, 84861, Note_on_c, 1, 60, 0
1, 84864, Note_on_c, 0, 77, 70
1, 84864, Note_on_c, 0, 68, 70
1, 84864, Note_on_c, 1, 58, 70
1, 84909, Note_on_c, 1, 58, 0
1, 84912, Note_on_c, 1, 56, 70
1, 84953, Note_on_c, 0, 68, 0
1, 84957, Note_on_c, 1, 56, 0
1, 84960, Note_on_c, 0, 70, 70
1, 84960, Note_on_c, 1, 55, 70
1, 85005, Note_on_c, 1, 55, 0
1, 85008, Note_on_c, 1, 61, 70
1, 85049, Note_on_c, 0, 77, 0
1, 85053, Note_on_c, 1, 61, 0
1, 85056, Note_on_c, 0, 76, 70
1, 85056, Note_on_c, 1, 60, 70
1, 85101, Note_on_c, 1, 60, 0
1, 85104, Note_on_c, 1, 58, 70
1, 85145, Note_on_c, 0, 76, 0
1, 85149, Note_on_c, 1, 58, 0
1, 85152, Note_on_c, 0, 79, 70
1, 85152, Note_on_c, 1, 56, 70
1, 85197, Note_on_c, 1, 56, 0
1, 85200, Note_on_c, 1, 55, 70
1, 85225, Note_on_c, 0, 70, 0
1, 85245, Note_on_c, 1, 55, 0
1, 85248, Note_on_c, 0, 72, 70
1, 85248, Note_on_c, 1, 56, 70
1, 85293, Note_on_c, 0, 79, 0
1, 85293, Note_on_c, 1, 56, 0
1, 85296, Note_on_c, 0, 76, 70
1, 85296, Note_on_c, 1, 58, 70
1, 85341, Note_on_c, 0, 76, 0
1, 85341, Note_on_c, 1, 58, 0
1, 85344, Note_on_c, 0, 77, 70
1, 85344, Note_on_c, 1, 56, 70
1, 85389, Note_on_c, 0, 77, 0
1, 85389, Note_on_c, 1, 56, 0
1, 85392, Note_on_c, 0, 79, 70
1, 85392, Note_on_c, 1, 55, 70
1, 85437, Note_on_c, 0, 79, 0
1, 85437, Note_on_c, 1, 55, 0
1, 85440, Note_on_c, 0, 80, 70
1, 85440, Note_on_c, 1, 53, 70
1, 85485, Note_on_c, 1, 53, 0
1, 85488, Note_on_c, 1, 51, 70
1, 85513, Note_on_c, 0, 72, 0
1, 85533, Note_on_c, 1, 51, 0
1, 85536, Note_on_c, 0, 71, 70
1, 85536, Note_on_c, 1, 50, 70
1, 85581, Note_on_c, 0, 71, 0
1, 85581, Note_on_c, 1, 50, 0
1, 85584, Note_on_c, 0, 72, 70
1, 85584, Note_on_c, 1, 48, 70
1, 85625, Note_on_c, 0, 80, 0
1, 85629, Note_on_c, 0, 72, 0
1, 85629, Note_on_c, 1, 48, 0
1, 85632, Note_on_c, 0, 79, 70
1, 85632, Note_on_c, 0, 74, 70
1, 85632, Note_on_c, 1, 47, 70
1, 85677, Note_on_c, 1, 47, 0
1, 85680, Note_on_c, 1, 43, 70
1, 85721, Note_on_c, 0, 79, 0
1, 85725, Note_on_c, 1, 43, 0
1, 85728, Note_on_c, 0, 77, 70
1, 85728, Note_on_c, 1, 45, 70
1, 85773, Note_on_c, 1, 45, 0
1, 85776, Note_on_c, 1, 47, 70
1, 85817, Note_on_c, 0, 77, 0
1, 85821, Note_on_c, 1, 47, 0
1, 85824, Note_on_c, 0, 75, 70
1, 85824, Note_on_c, 1, 48, 70
1, 85869, Note_on_c, 1, 48, 0
1, 85872, Note_on_c, 1, 50, 70
1, 85913, Note_on_c, 0, 74, 0
1, 85917, Note_on_c, 1, 50, 0
1, 85920, Note_on_c, 0, 72, 70
1, 85920, Note_on_c, 1, 51, 70
1, 85965, Note_on_c, 1, 51, 0
1, 85968, Note_on_c, 1, 52, 70
1, 86013, Note_on_c, 1, 52, 0
1, 86016, Note_on_c, 1, 53, 70
1, 86061, Note_on_c, 1, 53, 0
1, 86064, Note_on_c, 1, 54, 70
1, 86089, Note_on_c, 0, 75, 0
1, 86097, Note_on_c, 0, 72, 0
1, 86109, Note_on_c, 1, 54, 0
1, 86112, Note_on_c, 0, 74, 70
1, 86112, Note_on_c, 0, 72, 70
1, 86112, Note_on_c, 1, 55, 64
1, 86157, Note_on_c, 0, 72, 0
1, 86160, Note_on_c, 0, 69, 70
1, 86205, Note_on_c, 0, 69, 0
1, 86208, Note_on_c, 0, 71, 70
1, 86253, Note_on_c, 0, 71, 0
1, 86256, Note_on_c, 0, 68, 70
1, 86256, Note_on_c, 1, 59, 70
1, 86301, Note_on_c, 0, 68, 0
1, 86301, Note_on_c, 1, 59, 0
1, 86304, Note_on_c, 0, 67, 70
1, 86304, Note_on_c, 1, 60, 70
1, 86349, Note_on_c, 0, 67, 0
1, 86349, Note_on_c, 1, 60, 0
1, 86352, Note_on_c, 0, 65, 70
1, 86352, Note_on_c, 1, 62, 70
1, 86377, Note_on_c, 1, 55, 0
1, 86397, Note_on_c, 0, 65, 0
1, 86397, Note_on_c, 1, 62, 0
1, 86400, Note_on_c, 0, 67, 70
1, 86400, Note_on_c, 1, 63, 70
1, 86400, Note_on_c, 1, 55, 64
1, 86445, Note_on_c, 0, 74, 0
1, 86448, Note_on_c, 0, 71, 70
1, 86489, Note_on_c, 0, 67, 0
1, 86493, Note_on_c, 0, 71, 0
1, 86496, Note_on_c, 0, 72, 70
1, 86541, Note_on_c, 0, 72, 0
1, 86544, Note_on_c, 0, 74, 70
1, 86577, Note_on_c, 1, 63, 0
1, 86589, Note_on_c, 0, 74, 0
1, 86592, Note_on_c, 0, 75, 70
1, 86592, Note_on_c, 1, 60, 70
1, 86637, Note_on_c, 0, 75, 0
1, 86640, Note_on_c, 0, 66, 70
1, 86665, Note_on_c, 1, 55, 0
1, 86681, Note_on_c, 1, 60, 0
1, 86685, Note_on_c, 0, 66, 0
1, 86688, Note_on_c, 0, 67, 70
1, 86688, Note_on_c, 1, 59, 70
1, 86688, Note_on_c, 1, 55, 64
1, 86733, Note_on_c, 0, 67, 0
1, 86736, Note_on_c, 0, 78, 70
1, 86784, Note_on_c, 0, 78, 0
1, 86784, Note_on_c, 0, 79, 70
1, 86821, Note_on_c, 1, 59, 0
1, 86829, Note_on_c, 0, 79, 0
1, 86832, Note_on_c, 0, 77, 70
1, 86832, Note_on_c, 1, 59, 70
1, 86877, Note_on_c, 0, 77, 0
1, 86877, Note_on_c, 1, 59, 0
1, 86880, Note_on_c, 0, 75, 70
1, 86880, Note_on_c, 1, 60, 70
1, 86925, Note_on_c, 0, 75, 0
1, 86925, Note_on_c, 1, 60, 0
1, 86928, Note_on_c, 0, 74, 70
1, 86928, Note_on_c, 1, 62, 70
1, 86953, Note_on_c, 1, 55, 0
1, 86973, Note_on_c, 0, 74, 0
1, 86973, Note_on_c, 1, 62, 0
1, 86976, Note_on_c, 0, 72, 70
1, 86976, Note_on_c, 1, 63, 70
1, 86976, Note_on_c, 1, 55, 64
1, 87021, Note_on_c, 0, 72, 0
1, 87024, Note_on_c, 0, 71, 70
1, 87069, Note_on_c, 0, 71, 0
1, 87072, Note_on_c, 0, 72, 70
1, 87117, Note_on_c, 0, 72, 0
1, 87120, Note_on_c, 0, 68, 70
1, 87153, Note_on_c, 1, 63, 0
1, 87165, Note_on_c, 0, 68, 0
1, 87168, Note_on_c, 0, 67, 70
1, 87168, Note_on_c, 1, 60, 70
1, 87213, Note_on_c, 0, 67, 0
1, 87216, Note_on_c, 0, 66, 70
1, 87241, Note_on_c, 1, 55, 0
1, 87257, Note_on_c, 1, 60, 0
1, 87261, Note_on_c, 0, 66, 0
1, 87264, Note_on_c, 0, 67, 70
1, 87264, Note_on_c, 1, 59, 70
1, 87264, Note_on_c, 1, 55, 64
1, 87303, Note_on_c, 0, 67, 0
1, 87303, Note_on_c, 1, 55, 0
1, 87358, Note_on_c, 1, 59, 0
1, 87456, Note_on_c, 0, 72, 75
1, 87480, Note_on_c, 0, 72, 0
1, 87480, Note_on_c, 0, 75, 75
1, 87503, Note_on_c, 0, 75, 0
1, 87504, Note_on_c, 0, 74, 75
1, 87528, Note_on_c, 0, 74, 0
1, 87528, Note_on_c, 0, 77, 75
1, 87551, Note_on_c, 0, 77, 0
1, 87552, Note_on_c, 0, 75, 75
1, 87552, Note_on_c, 1, 51, 75
1, 87552, Note_on_c, 1, 48, 75
1, 87572, Note_on_c, 0, 75, 0
1, 87597, Note_on_c, 1, 51, 0
1, 87597, Note_on_c, 1, 48, 0
1, 87648, Note_on_c, 1, 63, 75
1, 87648, Note_on_c, 1, 60, 75
1, 87668, Note_on_c, 1, 63, 0
1, 87668, Note_on_c, 1, 60, 0
1, 87696, Note_on_c, 0, 80, 75
1, 87719, Note_on_c, 0, 80, 0
1, 87720, Note_on_c, 0, 79, 75
1, 87743, Note_on_c, 0, 79, 0
1, 87744, Note_on_c, 0, 77, 75
1, 87767, Note_on_c, 0, 77, 0
1, 87768, Note_on_c, 0, 75, 75
1, 87791, Note_on_c, 0, 75, 0
1, 87792, Note_on_c, 0, 74, 75
1, 87815, Note_on_c, 0, 74, 0
1, 87816, Note_on_c, 0, 72, 75
1, 87839, Note_on_c, 0, 72, 0
1, 87840, Note_on_c, 0, 71, 75
1, 87840, Note_on_c, 1, 47, 75
1, 87840, Note_on_c, 1, 43, 75
1, 87860, Note_on_c, 0, 71, 0
1, 87885, Note_on_c, 1, 47, 0
1, 87885, Note_on_c, 1, 43, 0
1, 87936, Note_on_c, 1, 59, 75
1, 87936, Note_on_c, 1, 55, 75
1, 87956, Note_on_c, 1, 59, 0
1, 87956, Note_on_c, 1, 55, 0
1, 88032, Note_on_c, 0, 74, 75
1, 88056, Note_on_c, 0, 74, 0
1, 88056, Note_on_c, 0, 77, 75
1, 88079, Note_on_c, 0, 77, 0
1, 88080, Note_on_c, 0, 75, 75
1, 88104, Note_on_c, 0, 75, 0
1, 88104, Note_on_c, 0, 79, 75
1, 88127, Note_on_c, 0, 79, 0
1, 88128, Note_on_c, 0, 77, 75
1, 88128, Note_on_c, 1, 47, 75
1, 88128, Note_on_c, 1, 43, 75
1, 88148, Note_on_c, 0, 77, 0
1, 88173, Note_on_c, 1, 47, 0
1, 88173, Note_on_c, 1, 43, 0
1, 88224, Note_on_c, 1, 59, 75
1, 88224, Note_on_c, 1, 55, 75
1, 88244, Note_on_c, 1, 59, 0
1, 88244, Note_on_c, 1, 55, 0
1, 88272, Note_on_c, 0, 86, 75
1, 88295, Note_on_c, 0, 86, 0
1, 88296, Note_on_c, 0, 84, 75
1, 88319, Note_on_c, 0, 84, 0
1, 88320, Note_on_c, 0, 83, 75
1, 88343, Note_on_c, 0, 83, 0
1, 88344, Note_on_c, 0, 80, 75
1, 88367, Note_on_c, 0, 80, 0
1, 88368, Note_on_c, 0, 79, 75
1, 88391, Note_on_c, 0, 79, 0
1, 88392, Note_on_c, 0, 77, 75
1, 88415, Note_on_c, 0, 77, 0
1, 88416, Note_on_c, 0, 75, 75
1, 88416, Note_on_c, 1, 60, 70
1, 88436, Note_on_c, 0, 75, 0
1, 88439, Note_on_c, 1, 60, 0
1, 88440, Note_on_c, 1, 67, 70
1, 88463, Note_on_c, 1, 67, 0
1, 88464, Note_on_c, 1, 63, 70
1, 88487, Note_on_c, 1, 63, 0
1, 88488, Note_on_c, 1, 67, 70
1, 88511, Note_on_c, 1, 67, 0
1, 88512, Note_on_c, 0, 72, 80
1, 88512, Note_on_c, 1, 60, 70
1, 88535, Note_on_c, 0, 72, 0
1, 88535, Note_on_c, 1, 60, 0
1, 88536, Note_on_c, 0, 74, 80
1, 88536, Note_on_c, 1, 67, 70
1, 88559, Note_on_c, 0, 74, 0
1, 88559, Note_on_c, 1, 67, 0
1, 88560, Note_on_c, 0, 75, 80
1, 88560, Note_on_c, 1, 63, 70
1, 88583, Note_on_c, 0, 75, 0
1, 88583, Note_on_c, 1, 63, 0
1, 88584, Note_on_c, 0, 77, 80
1, 88584, Note_on_c, 1, 67, 70
1, 88607, Note_on_c, 0, 77, 0
1, 88607, Note_on_c, 1, 67, 0
1, 88608, Note_on_c, 0, 79, 80
1, 88608, Note_on_c, 1, 60, 70
1, 88631, Note_on_c, 0, 79, 0
1, 88631, Note_on_c, 1, 60, 0
1, 88632, Note_on_c, 0, 81, 80
1, 88632, Note_on_c, 1, 67, 70
1, 88655, Note_on_c, 0, 81, 0
1, 88655, Note_on_c, 1, 67, 0
1, 88656, Note_on_c, 0, 83, 80
1, 88656, Note_on_c, 1, 63, 70
1, 88679, Note_on_c, 0, 83, 0
1, 88679, Note_on_c, 1, 63, 0
1, 88680, Note_on_c, 0, 84, 80
1, 88680, Note_on_c, 1, 67, 70
1, 88690, Note_on_c, 0, 84, 0
1, 88703, Note_on_c, 1, 67, 0
1, 88704, Note_on_c, 0, 84, 96
1, 88704, Note_on_c, 1, 62, 70
1, 88727, Note_on_c, 1, 62, 0
1, 88728, Note_on_c, 1, 67, 70
1, 88751, Note_on_c, 1, 67, 0
1, 88752, Note_on_c, 1, 65, 70
1, 88775, Note_on_c, 1, 65, 0
1, 88776, Note_on_c, 1, 67, 70
1, 88799, Note_on_c, 1, 67, 0
1, 88800, Note_on_c, 0, 84, 0
1, 88800, Note_on_c, 0, 83, 80
1, 88800, Note_on_c, 1, 62, 70
1, 88823, Note_on_c, 1, 62, 0
1, 88824, Note_on_c, 1, 67, 70
1, 88845, Note_on_c, 0, 83, 0
1, 88847, Note_on_c, 1, 67, 0
1, 88848, Note_on_c, 0, 80, 80
1, 88848, Note_on_c, 1, 60, 70
1, 88871, Note_on_c, 1, 60, 0
1, 88872, Note_on_c, 1, 67, 70
1, 88893, Note_on_c, 0, 80, 0
1, 88895, Note_on_c, 1, 67, 0
1, 88896, Note_on_c, 0, 79, 80
1, 88896, Note_on_c, 1, 59, 70
1, 88919, Note_on_c, 1, 59, 0
1, 88920, Note_on_c, 1, 67, 70
1, 88941, Note_on_c, 0, 79, 0
1, 88943, Note_on_c, 1, 67, 0
1, 88944, Note_on_c, 0, 77, 80
1, 88944, Note_on_c, 1, 62, 70
1, 88967, Note_on_c, 1, 62, 0
1, 88968, Note_on_c, 1, 67, 70
1, 88989, Note_on_c, 0, 77, 0
1, 88991, Note_on_c, 1, 67, 0
1, 88992, Note_on_c, 0, 75, 80
1, 88992, Note_on_c, 1, 60, 70
1, 89015, Note_on_c, 1, 60, 0
1, 89016, Note_on_c, 1, 67, 70
1, 89037, Note_on_c, 0, 75, 0
1, 89039, Note_on_c, 1, 67, 0
1, 89040, Note_on_c, 1, 63, 70
1, 89063, Note_on_c, 1, 63, 0
1, 89064, Note_on_c, 1, 67, 70
1, 89087, Note_on_c, 1, 67, 0
1, 89088, Note_on_c, 0, 72, 80
1, 89088, Note_on_c, 1, 60, 70
1, 89111, Note_on_c, 0, 72, 0
1, 89111, Note_on_c, 1, 60, 0
1, 89112, Note_on_c, 0, 74, 80
1, 89112, Note_on_c, 1, 67, 70
1, 89135, Note_on_c, 0, 74, 0
1, 89135, Note_on_c, 1, 67, 0
1, 89136, Note_on_c, 0, 75, 80
1, 89136, Note_on_c, 1, 63, 70
1, 89159, Note_on_c, 0, 75, 0
1, 89159, Note_on_c, 1, 63, 0
1, 89160, Note_on_c, 0, 77, 80
1, 89160, Note_on_c, 1, 67, 70
1, 89183, Note_on_c, 0, 77, 0
1, 89183, Note_on_c, 1, 67, 0
1, 89184, Note_on_c, 0, 79, 80
1, 89184, Note_on_c, 1, 60, 70
1, 89207, Note_on_c, 0, 79, 0
1, 89207, Note_on_c, 1, 60, 0
1, 89208, Note_on_c, 0, 81, 80
1, 89208, Note_on_c, 1, 67, 70
1, 89231, Note_on_c, 0, 81, 0
1, 89231, Note_on_c, 1, 67, 0
1, 89232, Note_on_c, 0, 83, 80
1, 89232, Note_on_c, 1, 63, 70
1, 89255, Note_on_c, 0, 83, 0
1, 89255, Note_on_c, 1, 63, 0
1, 89256, Note_on_c, 0, 84, 80
1, 89256, Note_on_c, 1, 67, 70
1, 89279, Note_on_c, 0, 84, 0
1, 89279, Note_on_c, 1, 67, 0
1, 89280, Note_on_c, 0, 85, 96
1, 89280, Note_on_c, 1, 58, 70
1, 89303, Note_on_c, 1, 58, 0
1, 89304, Note_on_c, 1, 67, 70
1, 89327, Note_on_c, 1, 67, 0
1, 89328, Note_on_c, 1, 63, 70
1, 89351, Note_on_c, 1, 63, 0
1, 89352, Note_on_c, 1, 67, 70
1, 89375, Note_on_c, 1, 67, 0
1, 89376, Note_on_c, 1, 58, 70
1, 89399, Note_on_c, 1, 58, 0
1, 89400, Note_on_c, 1, 67, 70
1, 89423, Note_on_c, 1, 67, 0
1, 89424, Note_on_c, 0, 85, 0
1, 89424, Note_on_c, 0, 82, 80
1, 89424, Note_on_c, 1, 63, 70
1, 89447, Note_on_c, 0, 82, 0
1, 89447, Note_on_c, 1, 63, 0
1, 89448, Note_on_c, 0, 79, 80
1, 89448, Note_on_c, 1, 67, 70
1, 89471, Note_on_c, 0, 79, 0
1, 89471, Note_on_c, 1, 67, 0
1, 89472, Note_on_c, 0, 75, 80
1, 89472, Note_on_c, 1, 58, 70
1, 89495, Note_on_c, 1, 58, 0
1, 89496, Note_on_c, 1, 67, 70
1, 89517, Note_on_c, 0, 75, 0
1, 89519, Note_on_c, 1, 67, 0
1, 89520, Note_on_c, 0, 73, 80
1, 89520, Note_on_c, 1, 63, 70
1, 89543, Note_on_c, 1, 63, 0
1, 89544, Note_on_c, 1, 67, 70
1, 89565, Note_on_c, 0, 73, 0
1, 89567, Note_on_c, 1, 67, 0
1, 89568, Note_on_c, 0, 72, 80
1, 89568, Note_on_c, 1, 56, 70
1, 89591, Note_on_c, 1, 56, 0
1, 89592, Note_on_c, 1, 63, 70
1, 89613, Note_on_c, 0, 72, 0
1, 89615, Note_on_c, 1, 63, 0
1, 89616, Note_on_c, 1, 60, 70
1, 89639, Note_on_c, 1, 60, 0
1, 89640, Note_on_c, 1, 63, 70
1, 89663, Note_on_c, 1, 63, 0
1, 89664, Note_on_c, 0, 68, 80
1, 89664, Note_on_c, 1, 56, 70
1, 89687, Note_on_c, 0, 68, 0
1, 89687, Note_on_c, 1, 56, 0
1, 89688, Note_on_c, 0, 70, 80
1, 89688, Note_on_c, 1, 63, 70
1, 89711, Note_on_c, 0, 70, 0
1, 89711, Note_on_c, 1, 63, 0
1, 89712, Note_on_c, 0, 72, 80
1, 89712, Note_on_c, 1, 60, 70
1, 89735, Note_on_c, 0, 72, 0
1, 89735, Note_on_c, 1, 60, 0
1, 89736, Note_on_c, 0, 73, 80
1, 89736, Note_on_c, 1, 63, 70
1, 89759, Note_on_c, 0, 73, 0
1, 89759, Note_on_c, 1, 63, 0
1, 89760, Note_on_c, 0, 75, 80
1, 89760, Note_on_c, 1, 56, 70
1, 89783, Note_on_c, 0, 75, 0
1, 89783, Note_on_c, 1, 56, 0
1, 89784, Note_on_c, 0, 77, 80
1, 89784, Note_on_c, 1, 63, 70
1, 89807, Note_on_c, 0, 77, 0
1, 89807, Note_on_c, 1, 63, 0
1, 89808, Note_on_c, 0, 79, 80
1, 89808, Note_on_c, 1, 60, 70
1, 89831, Note_on_c, 0, 79, 0
1, 89831, Note_on_c, 1, 60, 0
1, 89832, Note_on_c, 0, 80, 80
1, 89832, Note_on_c, 1, 63, 70
1, 89842, Note_on_c, 0, 80, 0
1, 89855, Note_on_c, 1, 63, 0
1, 89856, Note_on_c, 0, 80, 96
1, 89856, Note_on_c, 1, 58, 70
1, 89879, Note_on_c, 1, 58, 0
1, 89880, Note_on_c, 1, 63, 70
1, 89903, Note_on_c, 1, 63, 0
1, 89904, Note_on_c, 1, 61, 70
1, 89927, Note_on_c, 1, 61, 0
1, 89928, Note_on_c, 1, 63, 70
1, 89951, Note_on_c, 1, 63, 0
1, 89952, Note_on_c, 0, 80, 0
1, 89952, Note_on_c, 0, 79, 80
1, 89952, Note_on_c, 1, 58, 70
1, 89975, Note_on_c, 1, 58, 0
1, 89976, Note_on_c, 1, 63, 70
1, 89997, Note_on_c, 0, 79, 0
1, 89999, Note_on_c, 1, 63, 0
1, 90000, Note_on_c, 0, 77, 80
1, 90000, Note_on_c, 1, 56, 70
1, 90023, Note_on_c, 1, 56, 0
1, 90024, Note_on_c, 1, 63, 70
1, 90045, Note_on_c, 0, 77, 0
1, 90047, Note_on_c, 1, 63, 0
1, 90048, Note_on_c, 0, 75, 80
1, 90048, Note_on_c, 1, 55, 70
1, 90071, Note_on_c, 1, 55, 0
1, 90072, Note_on_c, 1, 63, 70
1, 90093, Note_on_c, 0, 75, 0
1, 90095, Note_on_c, 1, 63, 0
1, 90096, Note_on_c, 0, 73, 80
1, 90096, Note_on_c, 1, 58, 70
1, 90119, Note_on_c, 1, 58, 0
1, 90120, Note_on_c, 1, 63, 70
1, 90141, Note_on_c, 0, 73, 0
1, 90143, Note_on_c, 1, 63, 0
1, 90144, Note_on_c, 0, 72, 80
1, 90144, Note_on_c, 1, 56, 70
1, 90167, Note_on_c, 1, 56, 0
1, 90168, Note_on_c, 1, 63, 70
1, 90189, Note_on_c, 0, 72, 0
1, 90191, Note_on_c, 1, 63, 0
1, 90192, Note_on_c, 1, 60, 70
1, 90215, Note_on_c, 1, 60, 0
1, 90216, Note_on_c, 1, 63, 70
1, 90239, Note_on_c, 1, 63, 0
1, 90240, Note_on_c, 0, 72, 80
1, 90240, Note_on_c, 1, 56, 70
1, 90263, Note_on_c, 0, 72, 0
1, 90263, Note_on_c, 1, 56, 0
1, 90264, Note_on_c, 0, 73, 80
1, 90264, Note_on_c, 1, 63, 70
1, 90287, Note_on_c, 0, 73, 0
1, 90287, Note_on_c, 1, 63, 0
1, 90288, Note_on_c, 0, 75, 80
1, 90288, Note_on_c, 1, 60, 70
1, 90311, Note_on_c, 0, 75, 0
1, 90311, Note_on_c, 1, 60, 0
1, 90312, Note_on_c, 0, 77, 80
1, 90312, Note_on_c, 1, 63, 70
1, 90335, Note_on_c, 0, 77, 0
1, 90335, Note_on_c, 1, 63, 0
1, 90336, Note_on_c, 0, 79, 80
1, 90336, Note_on_c, 1, 56, 70
1, 90359, Note_on_c, 0, 79, 0
1, 90359, Note_on_c, 1, 56, 0
1, 90360, Note_on_c, 0, 80, 80
1, 90360, Note_on_c, 1, 63, 70
1, 90383, Note_on_c, 0, 80, 0
1, 90383, Note_on_c, 1, 63, 0
1, 90384, Note_on_c, 0, 82, 80
1, 90384, Note_on_c, 1, 60, 70
1, 90407, Note_on_c, 0, 82, 0
1, 90407, Note_on_c, 1, 60, 0
1, 90408, Note_on_c, 0, 84, 80
1, 90408, Note_on_c, 1, 63, 70
1, 90431, Note_on_c, 0, 84, 0
1, 90431, Note_on_c, 1, 63, 0
1, 90432, Note_on_c, 0, 82, 96
1, 90432, Note_on_c, 1, 55, 70
1, 90455, Note_on_c, 1, 55, 0
1, 90456, Note_on_c, 1, 64, 70
1, 90479, Note_on_c, 1, 64, 0
1, 90480, Note_on_c, 1, 58, 70
1, 90503, Note_on_c, 1, 58, 0
1, 90504, Note_on_c, 1, 64, 70
1, 90527, Note_on_c, 1, 64, 0
1, 90528, Note_on_c, 1, 55, 70
1, 90551, Note_on_c, 1, 55, 0
1, 90552, Note_on_c, 1, 64, 70
1, 90575, Note_on_c, 1, 64, 0
1, 90576, Note_on_c, 0, 82, 0
1, 90576, Note_on_c, 0, 79, 80
1, 90576, Note_on_c, 1, 58, 70
1, 90599, Note_on_c, 0, 79, 0
1, 90599, Note_on_c, 1, 58, 0
1, 90600, Note_on_c, 0, 76, 80
1, 90600, Note_on_c, 1, 64, 70
1, 90623, Note_on_c, 0, 76, 0
1, 90623, Note_on_c, 1, 64, 0
1, 90624, Note_on_c, 0, 72, 80
1, 90624, Note_on_c, 1, 55, 70
1, 90647, Note_on_c, 1, 55, 0
1, 90648, Note_on_c, 1, 64, 70
1, 90669, Note_on_c, 0, 72, 0
1, 90671, Note_on_c, 1, 64, 0
1, 90672, Note_on_c, 0, 70, 80
1, 90672, Note_on_c, 1, 58, 70
1, 90695, Note_on_c, 1, 58, 0
1, 90696, Note_on_c, 1, 64, 70
1, 90717, Note_on_c, 0, 70, 0
1, 90719, Note_on_c, 1, 64, 0
1, 90720, Note_on_c, 0, 68, 80
1, 90720, Note_on_c, 1, 53, 70
1, 90743, Note_on_c, 1, 53, 0
1, 90744, Note_on_c, 1, 60, 70
1, 90765, Note_on_c, 0, 68, 0
1, 90767, Note_on_c, 1, 60, 0
1, 90768, Note_on_c, 1, 56, 70
1, 90791, Note_on_c, 1, 56, 0
1, 90792, Note_on_c, 1, 60, 70
1, 90815, Note_on_c, 1, 60, 0
1, 90816, Note_on_c, 0, 65, 80
1, 90816, Note_on_c, 1, 53, 70
1, 90839, Note_on_c, 0, 65, 0
1, 90839, Note_on_c, 1, 53, 0
1, 90840, Note_on_c, 0, 67, 80
1, 90840, Note_on_c, 1, 60, 70
1, 90863, Note_on_c, 0, 67, 0
1, 90863, Note_on_c, 1, 60, 0
1, 90864, Note_on_c, 0, 68, 80
1, 90864, Note_on_c, 1, 56, 70
1, 90887, Note_on_c, 0, 68, 0
1, 90887, Note_on_c, 1, 56, 0
1, 90888, Note_on_c, 0, 70, 80
1, 90888, Note_on_c, 1, 60, 70
1, 90911, Note_on_c, 0, 70, 0
1, 90911, Note_on_c, 1, 60, 0
1, 90912, Note_on_c, 0, 72, 80
1, 90912, Note_on_c, 1, 53, 70
1, 90935, Note_on_c, 0, 72, 0
1, 90935, Note_on_c, 1, 53, 0
1, 90936, Note_on_c, 0, 74, 80
1, 90936, Note_on_c, 1, 60, 70
1, 90959, Note_on_c, 0, 74, 0
1, 90959, Note_on_c, 1, 60, 0
1, 90960, Note_on_c, 0, 76, 80
1, 90960, Note_on_c, 1, 56, 70
1, 90983, Note_on_c, 0, 76, 0
1, 90983, Note_on_c, 1, 56, 0
1, 90984, Note_on_c, 0, 77, 80
1, 90984, Note_on_c, 1, 60, 70
1, 90994, Note_on_c, 0, 77, 0
1, 91007, Note_on_c, 1, 60, 0
1, 91008, Note_on_c, 0, 77, 96
1, 91008, Note_on_c, 1, 55, 70
1, 91031, Note_on_c, 1, 55, 0
1, 91032, Note_on_c, 1, 60, 70
1, 91055, Note_on_c, 1, 60, 0
1, 91056, Note_on_c, 1, 58, 70
1, 91079, Note_on_c, 1, 58, 0
1, 91080, Note_on_c, 1, 60, 70
1, 91103, Note_on_c, 1, 60, 0
1, 91104, Note_on_c, 0, 77, 0
1, 91104, Note_on_c, 0, 76, 80
1, 91104, Note_on_c, 1, 55, 70
1, 91127, Note_on_c, 1, 55, 0
1, 91128, Note_on_c, 1, 60, 70
1, 91149, Note_on_c, 0, 76, 0
1, 91151, Note_on_c, 1, 60, 0
1, 91152, Note_on_c, 0, 73, 80
1, 91152, Note_on_c, 1, 53, 70
1, 91175, Note_on_c, 1, 53, 0
1, 91176, Note_on_c, 1, 60, 70
1, 91197, Note_on_c, 0, 73, 0
1, 91199, Note_on_c, 1, 60, 0
1, 91200, Note_on_c, 0, 72, 80
1, 91200, Note_on_c, 1, 52, 70
1, 91223, Note_on_c, 1, 52, 0
1, 91224, Note_on_c, 1, 60, 70
1, 91245, Note_on_c, 0, 72, 0
1, 91247, Note_on_c, 1, 60, 0
1, 91248, Note_on_c, 0, 70, 80
1, 91248, Note_on_c, 1, 55, 70
1, 91271, Note_on_c, 1, 55, 0
1, 91272, Note_on_c, 1, 60, 70
1, 91293, Note_on_c, 0, 70, 0
1, 91295, Note_on_c, 1, 60, 0
1, 91296, Note_on_c, 0, 68, 80
1, 91296, Note_on_c, 1, 53, 70
1, 91319, Note_on_c, 1, 53, 0
1, 91320, Note_on_c, 1, 60, 70
1, 91341, Note_on_c, 0, 68, 0
1, 91343, Note_on_c, 1, 60, 0
1, 91344, Note_on_c, 1, 56, 70
1, 91367, Note_on_c, 1, 56, 0
1, 91368, Note_on_c, 1, 60, 70
1, 91391, Note_on_c, 1, 60, 0
1, 91392, Note_on_c, 0, 65, 80
1, 91392, Note_on_c, 1, 53, 70
1, 91415, Note_on_c, 0, 65, 0
1, 91415, Note_on_c, 1, 53, 0
1, 91416, Note_on_c, 0, 67, 80
1, 91416, Note_on_c, 1, 60, 70
1, 91439, Note_on_c, 0, 67, 0
1, 91439, Note_on_c, 1, 60, 0
1, 91440, Note_on_c, 0, 68, 80
1, 91440, Note_on_c, 1, 56, 70
1, 91463, Note_on_c, 0, 68, 0
1, 91463, Note_on_c, 1, 56, 0
1, 91464, Note_on_c, 0, 70, 80
1, 91464, Note_on_c, 1, 60, 70
1, 91487, Note_on_c, 0, 70, 0
1, 91487, Note_on_c, 1, 60, 0
1, 91488, Note_on_c, 0, 72, 80
1, 91488, Note_on_c, 1, 53, 70
1, 91511, Note_on_c, 0, 72, 0
1, 91511, Note_on_c, 1, 53, 0
1, 91512, Note_on_c, 0, 74, 80
1, 91512, Note_on_c, 1, 60, 70
1, 91535, Note_on_c, 0, 74, 0
1, 91535, Note_on_c, 1, 60, 0
1, 91536, Note_on_c, 0, 76, 80
1, 91536, Note_on_c, 1, 56, 70
1, 91559, Note_on_c, 0, 76, 0
1, 91559, Note_on_c, 1, 56, 0
1, 91560, Note_on_c, 0, 77, 80
1, 91560, Note_on_c, 1, 60, 70
1, 91583, Note_on_c, 0, 77, 0
1, 91583, Note_on_c, 1, 60, 0
1, 91584, Note_on_c, 0, 78, 96
1, 91584, Note_on_c, 1, 51, 70
1, 91607, Note_on_c, 1, 51, 0
1, 91608, Note_on_c, 1, 60, 70
1, 91631, Note_on_c, 1, 60, 0
1, 91632, Note_on_c, 1, 56, 70
1, 91655, Note_on_c, 1, 56, 0
1, 91656, Note_on_c, 1, 60, 70
1, 91679, Note_on_c, 1, 60, 0
1, 91680, Note_on_c, 1, 51, 70
1, 91703, Note_on_c, 1, 51, 0
1, 91704, Note_on_c, 1, 60, 70
1, 91727, Note_on_c, 1, 60, 0
1, 91728, Note_on_c, 0, 78, 0
1, 91728, Note_on_c, 0, 75, 80
1, 91728, Note_on_c, 1, 56, 70
1, 91751, Note_on_c, 0, 75, 0
1, 91751, Note_on_c, 1, 56, 0
1, 91752, Note_on_c, 0, 72, 80
1, 91752, Note_on_c, 1, 60, 70
1, 91775, Note_on_c, 0, 72, 0
1, 91775, Note_on_c, 1, 60, 0
1, 91776, Note_on_c, 0, 68, 80
1, 91776, Note_on_c, 1, 51, 70
1, 91799, Note_on_c, 1, 51, 0
1, 91800, Note_on_c, 1, 60, 70
1, 91821, Note_on_c, 0, 68, 0
1, 91823, Note_on_c, 1, 60, 0
1, 91824, Note_on_c, 0, 66, 80
1, 91824, Note_on_c, 1, 56, 70
1, 91847, Note_on_c, 1, 56, 0
1, 91848, Note_on_c, 1, 60, 70
1, 91869, Note_on_c, 0, 66, 0
1, 91871, Note_on_c, 1, 60, 0
1, 91872, Note_on_c, 0, 65, 80
1, 91872, Note_on_c, 1, 49, 70
1, 91895, Note_on_c, 1, 49, 0
1, 91896, Note_on_c, 1, 56, 70
1, 91919, Note_on_c, 1, 56, 0
1, 91920, Note_on_c, 1, 53, 70
1, 91943, Note_on_c, 1, 53, 0
1, 91944, Note_on_c, 1, 56, 70
1, 91961, Note_on_c, 0, 65, 0
1, 91967, Note_on_c, 1, 56, 0
1, 91968, Note_on_c, 1, 49, 70
1, 91991, Note_on_c, 1, 49, 0
1, 91992, Note_on_c, 1, 56, 70
1, 92015, Note_on_c, 1, 56, 0
1, 92016, Note_on_c, 0, 77, 80
1, 92016, Note_on_c, 1, 53, 70
1, 92039, Note_on_c, 1, 53, 0
1, 92040, Note_on_c, 1, 56, 70
1, 92061, Note_on_c, 0, 77, 0
1, 92063, Note_on_c, 1, 56, 0
1, 92064, Note_on_c, 0, 77, 80
1, 92064, Note_on_c, 1, 49, 70
1, 92087, Note_on_c, 1, 49, 0
1, 92088, Note_on_c, 1, 56, 70
1, 92109, Note_on_c, 0, 77, 0
1, 92111, Note_on_c, 1, 56, 0
1, 92112, Note_on_c, 0, 77, 80
1, 92112, Note_on_c, 1, 53, 70
1, 92135, Note_on_c, 1, 53, 0
1, 92136, Note_on_c, 1, 56, 70
1, 92157, Note_on_c, 0, 77, 0
1, 92159, Note_on_c, 1, 56, 0
1, 92160, Note_on_c, 0, 75, 80
1, 92160, Note_on_c, 1, 48, 70
1, 92172, Note_on_c, 0, 75, 0
1, 92172, Note_on_c, 0, 77, 80
1, 92183, Note_on_c, 1, 48, 0
1, 92184, Note_on_c, 0, 77, 0
1, 92184, Note_on_c, 0, 78, 96
1, 92184, Note_on_c, 1, 56, 70
1, 92207, Note_on_c, 1, 56, 0
1, 92208, Note_on_c, 1, 51, 70
1, 92231, Note_on_c, 1, 51, 0
1, 92232, Note_on_c, 1, 56, 70
1, 92255, Note_on_c, 1, 56, 0
1, 92256, Note_on_c, 1, 48, 70
1, 92279, Note_on_c, 1, 48, 0
1, 92280, Note_on_c, 1, 56, 70
1, 92303, Note_on_c, 1, 56, 0
1, 92304, Note_on_c, 0, 78, 0
1, 92304, Note_on_c, 0, 75, 80
1, 92304, Note_on_c, 1, 51, 70
1, 92327, Note_on_c, 0, 75, 0
1, 92327, Note_on_c, 1, 51, 0
1, 92328, Note_on_c, 0, 72, 80
1, 92328, Note_on_c, 1, 56, 70
1, 92351, Note_on_c, 0, 72, 0
1, 92351, Note_on_c, 1, 56, 0
1, 92352, Note_on_c, 0, 68, 80
1, 92352, Note_on_c, 1, 48, 70
1, 92375, Note_on_c, 1, 48, 0
1, 92376, Note_on_c, 1, 56, 70
1, 92397, Note_on_c, 0, 68, 0
1, 92399, Note_on_c, 1, 56, 0
1, 92400, Note_on_c, 0, 66, 80
1, 92400, Note_on_c, 1, 51, 70
1, 92423, Note_on_c, 1, 51, 0
1, 92424, Note_on_c, 1, 56, 70
1, 92445, Note_on_c, 0, 66, 0
1, 92447, Note_on_c, 1, 56, 0
1, 92448, Note_on_c, 0, 65, 80
1, 92448, Note_on_c, 1, 49, 70
1, 92471, Note_on_c, 1, 49, 0
1, 92472, Note_on_c, 1, 56, 70
1, 92495, Note_on_c, 1, 56, 0
1, 92496, Note_on_c, 1, 53, 70
1, 92519, Note_on_c, 1, 53, 0
1, 92520, Note_on_c, 1, 56, 70
1, 92537, Note_on_c, 0, 65, 0
1, 92543, Note_on_c, 1, 56, 0
1, 92544, Note_on_c, 1, 49, 70
1, 92567, Note_on_c, 1, 49, 0
1, 92568, Note_on_c, 1, 56, 70
1, 92591, Note_on_c, 1, 56, 0
1, 92592, Note_on_c, 0, 73, 80
1, 92592, Note_on_c, 1, 53, 70
1, 92615, Note_on_c, 0, 73, 0
1, 92615, Note_on_c, 1, 53, 0
1, 92616, Note_on_c, 0, 77, 80
1, 92616, Note_on_c, 1, 56, 70
1, 92639, Note_on_c, 0, 77, 0
1, 92639, Note_on_c, 1, 56, 0
1, 92640, Note_on_c, 0, 80, 80
1, 92640, Note_on_c, 1, 49, 70
1, 92663, Note_on_c, 1, 49, 0
1, 92664, Note_on_c, 1, 56, 70
1, 92685, Note_on_c, 0, 80, 0
1, 92687, Note_on_c, 1, 56, 0
1, 92688, Note_on_c, 0, 80, 80
1, 92688, Note_on_c, 1, 53, 70
1, 92711, Note_on_c, 1, 53, 0
1, 92712, Note_on_c, 1, 56, 70
1, 92733, Note_on_c, 0, 80, 0
1, 92735, Note_on_c, 1, 56, 0
1, 92736, Note_on_c, 0, 78, 80
1, 92736, Note_on_c, 1, 48, 70
1, 92759, Note_on_c, 0, 78, 0
1, 92759, Note_on_c, 1, 48, 0
1, 92760, Note_on_c, 0, 80, 80
1, 92760, Note_on_c, 1, 56, 70
1, 92783, Note_on_c, 0, 80, 0
1, 92783, Note_on_c, 1, 56, 0
1, 92784, Note_on_c, 0, 78, 80
1, 92784, Note_on_c, 1, 51, 70
1, 92807, Note_on_c, 0, 78, 0
1, 92807, Note_on_c, 1, 51, 0
1, 92808, Note_on_c, 0, 77, 80
1, 92808, Note_on_c, 1, 56, 70
1, 92831, Note_on_c, 0, 77, 0
1, 92831, Note_on_c, 1, 56, 0
1, 92832, Note_on_c, 0, 75, 80
1, 92832, Note_on_c, 1, 48, 70
1, 92855, Note_on_c, 0, 75, 0
1, 92855, Note_on_c, 1, 48, 0
1, 92856, Note_on_c, 0, 77, 80
1, 92856, Note_on_c, 1, 56, 70
1, 92879, Note_on_c, 0, 77, 0
1, 92879, Note_on_c, 1, 56, 0
1, 92880, Note_on_c, 0, 75, 80
1, 92880, Note_on_c, 1, 51, 70
1, 92903, Note_on_c, 0, 75, 0
1, 92903, Note_on_c, 1, 51, 0
1, 92904, Note_on_c, 0, 73, 80
1, 92904, Note_on_c, 1, 56, 70
1, 92927, Note_on_c, 0, 73, 0
1, 92927, Note_on_c, 1, 56, 0
1, 92928, Note_on_c, 0, 72, 80
1, 92928, Note_on_c, 1, 48, 70
1, 92951, Note_on_c, 0, 72, 0
1, 92951, Note_on_c, 1, 48, 0
1, 92952, Note_on_c, 0, 70, 80
1, 92952, Note_on_c, 1, 56, 70
1, 92975, Note_on_c, 0, 70, 0
1, 92975, Note_on_c, 1, 56, 0
1, 92976, Note_on_c, 0, 68, 80
1, 92976, Note_on_c, 1, 51, 70
1, 92999, Note_on_c, 0, 68, 0
1, 92999, Note_on_c, 1, 51, 0
1, 93000, Note_on_c, 0, 66, 80
1, 93000, Note_on_c, 1, 56, 70
1, 93023, Note_on_c, 0, 66, 0
1, 93023, Note_on_c, 1, 56, 0
1, 93024, Note_on_c, 0, 65, 80
1, 93024, Note_on_c, 1, 49, 70
1, 93047, Note_on_c, 1, 49, 0
1, 93048, Note_on_c, 1, 56, 70
1, 93071, Note_on_c, 1, 56, 0
1, 93072, Note_on_c, 1, 53, 70
1, 93095, Note_on_c, 1, 53, 0
1, 93096, Note_on_c, 1, 56, 70
1, 93113, Note_on_c, 0, 65, 0
1, 93119, Note_on_c, 1, 56, 0
1, 93120, Note_on_c, 1, 49, 70
1, 93143, Note_on_c, 1, 49, 0
1, 93144, Note_on_c, 1, 56, 70
1, 93167, Note_on_c, 1, 56, 0
1, 93168, Note_on_c, 0, 77, 80
1, 93168, Note_on_c, 1, 53, 70
1, 93191, Note_on_c, 1, 53, 0
1, 93192, Note_on_c, 1, 56, 70
1, 93213, Note_on_c, 0, 77, 0
1, 93215, Note_on_c, 1, 56, 0
1, 93216, Note_on_c, 0, 77, 80
1, 93216, Note_on_c, 1, 49, 70
1, 93239, Note_on_c, 1, 49, 0
1, 93240, Note_on_c, 1, 56, 70
1, 93261, Note_on_c, 0, 77, 0
1, 93263, Note_on_c, 1, 56, 0
1, 93264, Note_on_c, 0, 77, 80
1, 93264, Note_on_c, 1, 53, 70
1, 93287, Note_on_c, 1, 53, 0
1, 93288, Note_on_c, 1, 56, 70
1, 93309, Note_on_c, 0, 77, 0
1, 93311, Note_on_c, 1, 56, 0
1, 93312, Note_on_c, 0, 77, 80
1, 93312, Note_on_c, 1, 48, 70
1, 93324, Note_on_c, 0, 77, 0
1, 93324, Note_on_c, 0, 79, 80
1, 93335, Note_on_c, 1, 48, 0
1, 93336, Note_on_c, 0, 79, 0
1, 93336, Note_on_c, 0, 80, 96
1, 93336, Note_on_c, 1, 56, 70
1, 93359, Note_on_c, 1, 56, 0
1, 93360, Note_on_c, 1, 53, 70
1, 93383, Note_on_c, 1, 53, 0
1, 93384, Note_on_c, 1, 56, 70
1, 93407, Note_on_c, 1, 56, 0
1, 93408, Note_on_c, 0, 80, 0
1, 93408, Note_on_c, 1, 48, 70
1, 93431, Note_on_c, 1, 48, 0
1, 93432, Note_on_c, 1, 56, 70
1, 93455, Note_on_c, 1, 56, 0
1, 93456, Note_on_c, 0, 77, 75
1, 93456, Note_on_c, 1, 53, 70
1, 93479, Note_on_c, 1, 53, 0
1, 93480, Note_on_c, 1, 56, 70
1, 93501, Note_on_c, 0, 77, 0
1, 93503, Note_on_c, 1, 56, 0
1, 93504, Note_on_c, 0, 77, 75
1, 93504, Note_on_c, 1, 48, 70
1, 93527, Note_on_c, 1, 48, 0
1, 93528, Note_on_c, 1, 56, 70
1, 93549, Note_on_c, 0, 77, 0
1, 93551, Note_on_c, 1, 56, 0
1, 93552, Note_on_c, 0, 77, 75
1, 93552, Note_on_c, 1, 53, 70
1, 93575, Note_on_c, 1, 53, 0
1, 93576, Note_on_c, 1, 56, 70
1, 93597, Note_on_c, 0, 77, 0
1, 93599, Note_on_c, 1, 56, 0
1, 93600, Note_on_c, 0, 77, 75
1, 93600, Note_on_c, 1, 47, 70
1, 93612, Note_on_c, 0, 77, 0
1, 93612, Note_on_c, 0, 79, 75
1, 93623, Note_on_c, 1, 47, 0
1, 93624, Note_on_c, 0, 79, 0
1, 93624, Note_on_c, 0, 80, 91
1, 93624, Note_on_c, 1, 56, 70
1, 93647, Note_on_c, 1, 56, 0
1, 93648, Note_on_c, 1, 53, 70
1, 93671, Note_on_c, 1, 53, 0
1, 93672, Note_on_c, 1, 56, 70
1, 93695, Note_on_c, 1, 56, 0
1, 93696, Note_on_c, 0, 80, 0
1, 93696, Note_on_c, 1, 47, 70
1, 93719, Note_on_c, 1, 47, 0
1, 93720, Note_on_c, 1, 56, 70
1, 93743, Note_on_c, 1, 56, 0
1, 93744, Note_on_c, 0, 77, 75
1, 93744, Note_on_c, 1, 53, 71
1, 93767, Note_on_c, 1, 53, 0
1, 93768, Note_on_c, 1, 56, 72
1, 93789, Note_on_c, 0, 77, 0
1, 93791, Note_on_c, 1, 56, 0
1, 93792, Note_on_c, 0, 77, 76
1, 93792, Note_on_c, 1, 47, 73
1, 93815, Note_on_c, 1, 47, 0
1, 93816, Note_on_c, 1, 56, 74
1, 93837, Note_on_c, 0, 77, 0
1, 93839, Note_on_c, 1, 56, 0
1, 93840, Note_on_c, 0, 77, 77
1, 93840, Note_on_c, 1, 53, 75
1, 93863, Note_on_c, 1, 53, 0
1, 93864, Note_on_c, 1, 56, 75
1, 93885, Note_on_c, 0, 77, 0
1, 93887, Note_on_c, 1, 56, 0
1, 93888, Note_on_c, 0, 76, 79
1, 93888, Note_on_c, 1, 48, 76
1, 93911, Note_on_c, 0, 76, 0
1, 93912, Note_on_c, 0, 72, 80
1, 93935, Note_on_c, 0, 72, 0
1, 93936, Note_on_c, 0, 76, 80
1, 93959, Note_on_c, 0, 76, 0
1, 93960, Note_on_c, 0, 79, 80
1, 93977, Note_on_c, 1, 48, 0
1, 93983, Note_on_c, 0, 79, 0
1, 93984, Note_on_c, 0, 84, 80
1, 94007, Note_on_c, 0, 84, 0
1, 94008, Note_on_c, 0, 72, 80
1, 94031, Note_on_c, 0, 72, 0
1, 94032, Note_on_c, 0, 76, 80
1, 94055, Note_on_c, 0, 76, 0
1, 94056, Note_on_c, 0, 79, 80
1, 94079, Note_on_c, 0, 79, 0
1, 94080, Note_on_c, 0, 84, 80
1, 94080, Note_on_c, 1, 64, 80
1, 94080, Note_on_c, 1, 60, 80
1, 94103, Note_on_c, 0, 84, 0
1, 94104, Note_on_c, 0, 82, 80
1, 94127, Note_on_c, 0, 82, 0
1, 94128, Note_on_c, 0, 80, 80
1, 94151, Note_on_c, 0, 80, 0
1, 94152, Note_on_c, 0, 79, 80
1, 94169, Note_on_c, 1, 64, 0
1, 94169, Note_on_c, 1, 60, 0
1, 94175, Note_on_c, 0, 79, 0
1, 94176, Note_on_c, 0, 80, 80
1, 94176, Note_on_c, 1, 65, 80
1, 94176, Note_on_c, 1, 60, 80
1, 94199, Note_on_c, 0, 80, 0
1, 94200, Note_on_c, 0, 72, 80
1, 94223, Note_on_c, 0, 72, 0
1, 94224, Note_on_c, 0, 77, 80
1, 94247, Note_on_c, 0, 77, 0
1, 94248, Note_on_c, 0, 80, 80
1, 94265, Note_on_c, 1, 65, 0
1, 94265, Note_on_c, 1, 60, 0
1, 94271, Note_on_c, 0, 80, 0
1, 94272, Note_on_c, 0, 84, 80
1, 94295, Note_on_c, 0, 84, 0
1, 94296, Note_on_c, 0, 72, 80
1, 94319, Note_on_c, 0, 72, 0
1, 94320, Note_on_c, 0, 77, 80
1, 94343, Note_on_c, 0, 77, 0
1, 94344, Note_on_c, 0, 80, 80
1, 94367, Note_on_c, 0, 80, 0
1, 94368, Note_on_c, 0, 84, 80
1, 94368, Note_on_c, 1, 68, 80
1, 94368, Note_on_c, 1, 60, 80
1, 94391, Note_on_c, 0, 84, 0
1, 94392, Note_on_c, 0, 80, 80
1, 94415, Note_on_c, 0, 80, 0
1, 94416, Note_on_c, 0, 79, 80
1, 94439, Note_on_c, 0, 79, 0
1, 94440, Note_on_c, 0, 77, 80
1, 94457, Note_on_c, 1, 68, 0
1, 94457, Note_on_c, 1, 60, 0
1, 94463, Note_on_c, 0, 77, 0
1, 94464, Note_on_c, 0, 76, 80
1, 94464, Note_on_c, 1, 67, 80
1, 94464, Note_on_c, 1, 60, 80
1, 94487, Note_on_c, 0, 76, 0
1, 94488, Note_on_c, 0, 72, 80
1, 94511, Note_on_c, 0, 72, 0
1, 94512, Note_on_c, 0, 76, 80
1, 94535, Note_on_c, 0, 76, 0
1, 94536, Note_on_c, 0, 79, 80
1, 94553, Note_on_c, 1, 67, 0
1, 94553, Note_on_c, 1, 60, 0
1, 94559, Note_on_c, 0, 79, 0
1, 94560, Note_on_c, 0, 84, 80
1, 94583, Note_on_c, 0, 84, 0
1, 94584, Note_on_c, 0, 72, 80
1, 94607, Note_on_c, 0, 72, 0
1, 94608, Note_on_c, 0, 76, 80
1, 94608, Note_on_c, 1, 64, 80
1, 94608, Note_on_c, 1, 60, 80
1, 94628, Note_on_c, 1, 64, 0
1, 94628, Note_on_c, 1, 60, 0
1, 94631, Note_on_c, 0, 76, 0
1, 94632, Note_on_c, 0, 79, 80
1, 94655, Note_on_c, 0, 79, 0
1, 94656, Note_on_c, 0, 84, 80
1, 94656, Note_on_c, 1, 64, 80
1, 94656, Note_on_c, 1, 60, 80
1, 94676, Note_on_c, 1, 64, 0
1, 94676, Note_on_c, 1, 60, 0
1, 94679, Note_on_c, 0, 84, 0
1, 94680, Note_on_c, 0, 82, 80
1, 94703, Note_on_c, 0, 82, 0
1, 94704, Note_on_c, 0, 80, 80
1, 94704, Note_on_c, 1, 64, 80
1, 94704, Note_on_c, 1, 60, 80
1, 94724, Note_on_c, 1, 64, 0
1, 94724, Note_on_c, 1, 60, 0
1, 94727, Note_on_c, 0, 80, 0
1, 94728, Note_on_c, 0, 79, 80
1, 94751, Note_on_c, 0, 79, 0
1, 94752, Note_on_c, 0, 80, 80
1, 94752, Note_on_c, 1, 65, 80
1, 94752, Note_on_c, 1, 60, 80
1, 94775, Note_on_c, 0, 80, 0
1, 94776, Note_on_c, 0, 72, 80
1, 94799, Note_on_c, 0, 72, 0
1, 94800, Note_on_c, 0, 77, 80
1, 94823, Note_on_c, 0, 77, 0
1, 94824, Note_on_c, 0, 80, 80
1, 94841, Note_on_c, 1, 65, 0
1, 94841, Note_on_c, 1, 60, 0
1, 94847, Note_on_c, 0, 80, 0
1, 94848, Note_on_c, 0, 84, 80
1, 94871, Note_on_c, 0, 84, 0
1, 94872, Note_on_c, 0, 72, 80
1, 94895, Note_on_c, 0, 72, 0
1, 94896, Note_on_c, 0, 77, 80
1, 94896, Note_on_c, 1, 68, 80
1, 94896, Note_on_c, 1, 60, 80
1, 94916, Note_on_c, 1, 68, 0
1, 94916, Note_on_c, 1, 60, 0
1, 94919, Note_on_c, 0, 77, 0
1, 94920, Note_on_c, 0, 80, 80
1, 94943, Note_on_c, 0, 80, 0
1, 94944, Note_on_c, 0, 84, 80
1, 94944, Note_on_c, 1, 68, 80
1, 94944, Note_on_c, 1, 60, 80
1, 94964, Note_on_c, 1, 68, 0
1, 94964, Note_on_c, 1, 60, 0
1, 94967, Note_on_c, 0, 84, 0
1, 94968, Note_on_c, 0, 80, 80
1, 94991, Note_on_c, 0, 80, 0
1, 94992, Note_on_c, 0, 79, 80
1, 94992, Note_on_c, 1, 68, 80
1, 94992, Note_on_c, 1, 60, 80
1, 95012, Note_on_c, 1, 68, 0
1, 95012, Note_on_c, 1, 60, 0
1, 95015, Note_on_c, 0, 79, 0
1, 95016, Note_on_c, 0, 77, 80
1, 95039, Note_on_c, 0, 77, 0
1, 95040, Note_on_c, 0, 76, 80
1, 95040, Note_on_c, 1, 67, 80
1, 95040, Note_on_c, 1, 60, 80
1, 95052, Note_on_c, 0, 76, 0
1, 95052, Note_on_c, 0, 79, 80
1, 95064, Note_on_c, 0, 79, 0
1, 95064, Note_on_c, 0, 84, 96
1, 95173, Note_on_c, 1, 67, 0
1, 95173, Note_on_c, 1, 60, 0
1, 95184, Note_on_c, 0, 84, 0
1, 95472, Note_on_c, 0, 73, 64
1, 95472, Note_on_c, 0, 70, 64
1, 95492, Note_on_c, 0, 73, 0
1, 95492, Note_on_c, 0, 70, 0
1, 95520, Note_on_c, 0, 73, 64
1, 95520, Note_on_c, 0, 70, 64
1, 95540, Note_on_c, 0, 73, 0
1, 95540, Note_on_c, 0, 70, 0
1, 95568, Note_on_c, 0, 73, 64
1, 95568, Note_on_c, 0, 70, 64
1, 95588, Note_on_c, 0, 73, 0
1, 95588, Note_on_c, 0, 70, 0
1, 95616, Note_on_c, 0, 73, 64
1, 95616, Note_on_c, 0, 70, 64
1, 95655, Note_on_c, 0, 73, 0
1, 95655, Note_on_c, 0, 70, 0
1, 95760, Note_on_c, 1, 40, 75
1, 95780, Note_on_c, 1, 40, 0
1, 95808, Note_on_c, 1, 40, 75
1, 95828, Note_on_c, 1, 40, 0
1, 95856, Note_on_c, 1, 40, 75
1, 95876, Note_on_c, 1, 40, 0
1, 95904, Note_on_c, 1, 40, 75
1, 95943, Note_on_c, 1, 40, 0
1, 96048, Note_on_c, 0, 72, 64
1, 96048, Note_on_c, 0, 70, 64
1, 96048, Note_on_c, 1, 67, 64
1, 96048, Note_on_c, 1, 64, 64
1, 96068, Note_on_c, 0, 72, 0
1, 96068, Note_on_c, 0, 70, 0
1, 96068, Note_on_c, 1, 67, 0
1, 96068, Note_on_c, 1, 64, 0
1, 96096, Note_on_c, 0, 72, 64
1, 96096, Note_on_c, 0, 70, 64
1, 96096, Note_on_c, 1, 67, 64
1, 96096, Note_on_c, 1, 64, 64
1, 96116, Note_on_c, 0, 72, 0
1, 96116, Note_on_c, 0, 70, 0
1, 96116, Note_on_c, 1, 67, 0
1, 96116, Note_on_c, 1, 64, 0
1, 96144, Note_on_c, 0, 72, 64
1, 96144, Note_on_c, 0, 70, 64
1, 96144, Note_on_c, 1, 67, 64
1, 96144, Note_on_c, 1, 64, 64
1, 96164, Note_on_c, 0, 72, 0
1, 96164, Note_on_c, 0, 70, 0
1, 96164, Note_on_c, 1, 67, 0
1, 96164, Note_on_c, 1, 64, 0
1, 96192, Note_on_c, 0, 72, 64
1, 96192, Note_on_c, 0, 70, 64
1, 96192, Note_on_c, 1, 67, 64
1, 96192, Note_on_c, 1, 64, 64
1, 96231, Note_on_c, 0, 72, 0
1, 96231, Note_on_c, 0, 70, 0
1, 96231, Note_on_c, 1, 67, 0
1, 96231, Note_on_c, 1, 64, 0
1, 96336, Note_on_c, 1, 41, 75
1, 96356, Note_on_c, 1, 41, 0
1, 96384, Note_on_c, 1, 41, 75
1, 96404, Note_on_c, 1, 41, 0
1, 96432, Note_on_c, 1, 41, 75
1, 96452, Note_on_c, 1, 41, 0
1, 96480, Note_on_c, 1, 41, 75
1, 96519, Note_on_c, 1, 41, 0
1, 96624, Note_on_c, 0, 78, 64
1, 96624, Note_on_c, 0, 69, 64
1, 96624, Note_on_c, 1, 63, 64
1, 96644, Note_on_c, 0, 78, 0
1, 96644, Note_on_c, 0, 69, 0
1, 96644, Note_on_c, 1, 63, 0
1, 96672, Note_on_c, 0, 78, 64
1, 96672, Note_on_c, 0, 69, 64
1, 96672, Note_on_c, 1, 63, 64
1, 96692, Note_on_c, 0, 78, 0
1, 96692, Note_on_c, 0, 69, 0
1, 96692, Note_on_c, 1, 63, 0
1, 96720, Note_on_c, 0, 78, 64
1, 96720, Note_on_c, 0, 69, 64
1, 96720, Note_on_c, 1, 63, 64
1, 96740, Note_on_c, 0, 78, 0
1, 96740, Note_on_c, 0, 69, 0
1, 96740, Note_on_c, 1, 63, 0
1, 96768, Note_on_c, 0, 78, 64
1, 96768, Note_on_c, 0, 69, 64
1, 96768, Note_on_c, 1, 63, 64
1, 96807, Note_on_c, 0, 78, 0
1, 96807, Note_on_c, 0, 69, 0
1, 96807, Note_on_c, 1, 63, 0
1, 96912, Note_on_c, 1, 36, 75
1, 96932, Note_on_c, 1, 36, 0
1, 96960, Note_on_c, 1, 36, 75
1, 96980, Note_on_c, 1, 36, 0
1, 97008, Note_on_c, 1, 36, 75
1, 97028, Note_on_c, 1, 36, 0
1, 97056, Note_on_c, 1, 36, 75
1, 97095, Note_on_c, 1, 36, 0
1, 97200, Note_on_c, 0, 77, 64
1, 97200, Note_on_c, 0, 70, 64
1, 97200, Note_on_c, 1, 61, 64
1, 97220, Note_on_c, 0, 77, 0
1, 97220, Note_on_c, 0, 70, 0
1, 97220, Note_on_c, 1, 61, 0
1, 97248, Note_on_c, 0, 77, 64
1, 97248, Note_on_c, 0, 70, 64
1, 97248, Note_on_c, 1, 61, 64
1, 97268, Note_on_c, 0, 77, 0
1, 97268, Note_on_c, 0, 70, 0
1, 97268, Note_on_c, 1, 61, 0
1, 97296, Note_on_c, 0, 77, 64
1, 97296, Note_on_c, 0, 70, 64
1, 97296, Note_on_c, 1, 61, 64
1, 97316, Note_on_c, 0, 77, 0
1, 97316, Note_on_c, 0, 70, 0
1, 97316, Note_on_c, 1, 61, 0
1, 97344, Note_on_c, 0, 77, 64
1, 97344, Note_on_c, 0, 70, 64
1, 97344, Note_on_c, 1, 61, 64
1, 97383, Note_on_c, 0, 77, 0
1, 97383, Note_on_c, 0, 70, 0
1, 97383, Note_on_c, 1, 61, 0
1, 97488, Note_on_c, 1, 34, 75
1, 97508, Note_on_c, 1, 34, 0
1, 97536, Note_on_c, 1, 34, 75
1, 97556, Note_on_c, 1, 34, 0
1, 97584, Note_on_c, 1, 34, 75
1, 97604, Note_on_c, 1, 34, 0
1, 97632, Note_on_c, 1, 34, 75
1, 97671, Note_on_c, 1, 34, 0
1, 97776, Note_on_c, 0, 73, 64
1, 97776, Note_on_c, 0, 70, 64
1, 97776, Note_on_c, 1, 66, 64
1, 97796, Note_on_c, 0, 73, 0
1, 97796, Note_on_c, 0, 70, 0
1, 97796, Note_on_c, 1, 66, 0
1, 97824, Note_on_c, 0, 73, 64
1, 97824, Note_on_c, 0, 70, 64
1, 97824, Note_on_c, 1, 66, 64
1, 97844, Note_on_c, 0, 73, 0
1, 97844, Note_on_c, 0, 70, 0
1, 97844, Note_on_c, 1, 66, 0
1, 97872, Note_on_c, 0, 73, 64
1, 97872, Note_on_c, 0, 70, 64
1, 97872, Note_on_c, 1, 66, 64
1, 97892, Note_on_c, 0, 73, 0
1, 97892, Note_on_c, 0, 70, 0
1, 97892, Note_on_c, 1, 66, 0
1, 97920, Note_on_c, 0, 73, 64
1, 97920, Note_on_c, 0, 70, 64
1, 97920, Note_on_c, 1, 66, 64
1, 98009, Note_on_c, 1, 66, 0
1, 98016, Note_on_c, 1, 65, 64
1, 98097, Note_on_c, 0, 73, 0
1, 98097, Note_on_c, 0, 70, 0
1, 98105, Note_on_c, 1, 65, 0
1, 98112, Note_on_c, 0, 74, 76
1, 98112, Note_on_c, 0, 71, 82
1, 98112, Note_on_c, 0, 68, 82
1, 98112, Note_on_c, 1, 64, 76
1, 98201, Note_on_c, 0, 74, 0
1, 98201, Note_on_c, 1, 64, 0
1, 98208, Note_on_c, 0, 75, 64
1, 98208, Note_on_c, 1, 63, 64
1, 98297, Note_on_c, 0, 71, 0
1, 98297, Note_on_c, 0, 68, 0
1, 98304, Note_on_c, 0, 70, 70
1, 98304, Note_on_c, 0, 67, 70
1, 98385, Note_on_c, 0, 75, 0
1, 98385, Note_on_c, 1, 63, 0
1, 98393, Note_on_c, 0, 70, 0
1, 98393, Note_on_c, 0, 67, 0
1, 98400, Note_on_c, 0, 75, 76
1, 98400, Note_on_c, 0, 69, 82
1, 98400, Note_on_c, 1, 65, 76
1, 98400, Note_on_c, 1, 60, 64
1, 98489, Note_on_c, 0, 69, 0
1, 98489, Note_on_c, 1, 65, 0
1, 98489, Note_on_c, 1, 60, 0
1, 98496, Note_on_c, 0, 70, 70
1, 98496, Note_on_c, 1, 66, 64
1, 98496, Note_on_c, 1, 58, 64
1, 98585, Note_on_c, 0, 75, 0
1, 98585, Note_on_c, 1, 66, 0
1, 98592, Note_on_c, 0, 73, 64
1, 98592, Note_on_c, 1, 65, 64
1, 98673, Note_on_c, 0, 70, 0
1, 98673, Note_on_c, 1, 58, 0
1, 98681, Note_on_c, 0, 73, 0
1, 98681, Note_on_c, 1, 65, 0
1, 98688, Note_on_c, 0, 76, 76
1, 98688, Note_on_c, 0, 73, 82
1, 98688, Note_on_c, 0, 70, 82
1, 98688, Note_on_c, 1, 67, 76
1, 98777, Note_on_c, 0, 76, 0
1, 98777, Note_on_c, 1, 67, 0
1, 98784, Note_on_c, 0, 77, 64
1, 98784, Note_on_c, 1, 65, 64
1, 98873, Note_on_c, 0, 73, 0
1, 98873, Note_on_c, 0, 70, 0
1, 98880, Note_on_c, 0, 72, 70
1, 98880, Note_on_c, 0, 68, 70
1, 98961, Note_on_c, 0, 77, 0
1, 98961, Note_on_c, 1, 65, 0
1, 98969, Note_on_c, 0, 72, 0
1, 98969, Note_on_c, 0, 68, 0
1, 98976, Note_on_c, 0, 77, 76
1, 98976, Note_on_c, 0, 71, 70
1, 98976, Note_on_c, 1, 67, 76
1, 98976, Note_on_c, 1, 62, 76
1, 99065, Note_on_c, 0, 71, 0
1, 99065, Note_on_c, 1, 67, 0
1, 99065, Note_on_c, 1, 62, 0
1, 99072, Note_on_c, 0, 72, 70
1, 99072, Note_on_c, 1, 68, 64
1, 99072, Note_on_c, 1, 60, 64
1, 99161, Note_on_c, 0, 77, 0
1, 99161, Note_on_c, 1, 68, 0
1, 99168, Note_on_c, 0, 75, 64
1, 99168, Note_on_c, 1, 67, 64
1, 99249, Note_on_c, 0, 72, 0
1, 99249, Note_on_c, 1, 60, 0
1, 99257, Note_on_c, 0, 75, 0
1, 99257, Note_on_c, 1, 67, 0
1, 99264, Note_on_c, 0, 78, 64
1, 99264, Note_on_c, 0, 75, 82
1, 99264, Note_on_c, 0, 72, 82
1, 99264, Note_on_c, 1, 68, 76
1, 99353, Note_on_c, 1, 68, 0
1, 99360, Note_on_c, 0, 78, 0
1, 99360, Note_on_c, 0, 79, 64
1, 99360, Note_on_c, 1, 67, 64
1, 99449, Note_on_c, 0, 75, 0
1, 99449, Note_on_c, 0, 72, 0
1, 99456, Note_on_c, 0, 74, 70
1, 99456, Note_on_c, 0, 71, 70
1, 99493, Note_on_c, 0, 79, 0
1, 99493, Note_on_c, 1, 67, 0
1, 99501, Note_on_c, 0, 74, 0
1, 99501, Note_on_c, 0, 71, 0
1, 99504, Note_on_c, 0, 80, 80
1, 99504, Note_on_c, 0, 74, 80
1, 99504, Note_on_c, 0, 71, 80
1, 99504, Note_on_c, 1, 65, 80
1, 99524, Note_on_c, 0, 80, 0
1, 99524, Note_on_c, 0, 74, 0
1, 99524, Note_on_c, 0, 71, 0
1, 99524, Note_on_c, 1, 65, 0
1, 99552, Note_on_c, 0, 80, 80
1, 99552, Note_on_c, 0, 74, 80
1, 99552, Note_on_c, 0, 71, 80
1, 99552, Note_on_c, 1, 65, 80
1, 99572, Note_on_c, 0, 80, 0
1, 99572, Note_on_c, 0, 74, 0
1, 99572, Note_on_c, 0, 71, 0
1, 99572, Note_on_c, 1, 65, 0
1, 99600, Note_on_c, 0, 80, 80
1, 99600, Note_on_c, 0, 74, 80
1, 99600, Note_on_c, 0, 71, 80
1, 99600, Note_on_c, 1, 65, 80
1, 99620, Note_on_c, 0, 80, 0
1, 99620, Note_on_c, 0, 74, 0
1, 99620, Note_on_c, 0, 71, 0
1, 99620, Note_on_c, 1, 65, 0
1, 99648, Note_on_c, 0, 80, 80
1, 99648, Note_on_c, 0, 74, 80
1, 99648, Note_on_c, 0, 71, 80
1, 99648, Note_on_c, 1, 65, 80
1, 99737, Note_on_c, 0, 80, 0
1, 99737, Note_on_c, 0, 74, 0
1, 99737, Note_on_c, 0, 71, 0
1, 99737, Note_on_c, 1, 65, 0
1, 99792, Note_on_c, 1, 35, 80
1, 99812, Note_on_c, 1, 35, 0
1, 99840, Note_on_c, 1, 35, 80
1, 99860, Note_on_c, 1, 35, 0
1, 99888, Note_on_c, 1, 35, 80
1, 99908, Note_on_c, 1, 35, 0
1, 99936, Note_on_c, 1, 35, 80
1, 100025, Note_on_c, 1, 35, 0
1, 100080, Note_on_c, 0, 80, 64
1, 100080, Note_on_c, 0, 77, 64
1, 100100, Note_on_c, 0, 80, 0
1, 100100, Note_on_c, 0, 77, 0
1, 100128, Note_on_c, 0, 80, 64
1, 100128, Note_on_c, 0, 77, 64
1, 100148, Note_on_c, 0, 80, 0
1, 100148, Note_on_c, 0, 77, 0
1, 100176, Note_on_c, 0, 80, 64
1, 100176, Note_on_c, 0, 77, 64
1, 100196, Note_on_c, 0, 80, 0
1, 100196, Note_on_c, 0, 77, 0
1, 100224, Note_on_c, 0, 80, 64
1, 100224, Note_on_c, 0, 77, 64
1, 100313, Note_on_c, 0, 80, 0
1, 100313, Note_on_c, 0, 77, 0
1, 100368, Note_on_c, 1, 34, 80
1, 100388, Note_on_c, 1, 34, 0
1, 100416, Note_on_c, 1, 34, 80
1, 100436, Note_on_c, 1, 34, 0
1, 100464, Note_on_c, 1, 34, 80
1, 100484, Note_on_c, 1, 34, 0
1, 100512, Note_on_c, 0, 50, 64
1, 100512, Note_on_c, 1, 34, 80
1, 100536, Note_on_c, 0, 50, 0
1, 100536, Note_on_c, 0, 53, 64
1, 100559, Note_on_c, 0, 53, 0
1, 100560, Note_on_c, 0, 51, 64
1, 100584, Note_on_c, 0, 51, 0
1, 100584, Note_on_c, 0, 55, 65
1, 100601, Note_on_c, 1, 34, 0
1, 100607, Note_on_c, 0, 55, 0
1, 100608, Note_on_c, 0, 53, 65
1, 100653, Note_on_c, 0, 53, 0
1, 100656, Note_on_c, 1, 58, 64
1, 100656, Note_on_c, 1, 56, 64
1, 100676, Note_on_c, 1, 58, 0
1, 100676, Note_on_c, 1, 56, 0
1, 100704, Note_on_c, 1, 58, 64
1, 100704, Note_on_c, 1, 56, 64
1, 100724, Note_on_c, 1, 58, 0
1, 100724, Note_on_c, 1, 56, 0
1, 100752, Note_on_c, 1, 58, 65
1, 100752, Note_on_c, 1, 56, 65
1, 100772, Note_on_c, 1, 58, 0
1, 100772, Note_on_c, 1, 56, 0
1, 100800, Note_on_c, 0, 62, 68
1, 100800, Note_on_c, 1, 58, 66
1, 100800, Note_on_c, 1, 56, 66
1, 100824, Note_on_c, 0, 62, 0
1, 100824, Note_on_c, 0, 65, 68
1, 100847, Note_on_c, 0, 65, 0
1, 100848, Note_on_c, 0, 63, 69
1, 100872, Note_on_c, 0, 63, 0
1, 100872, Note_on_c, 0, 67, 69
1, 100889, Note_on_c, 1, 58, 0
1, 100889, Note_on_c, 1, 56, 0
1, 100895, Note_on_c, 0, 67, 0
1, 100896, Note_on_c, 0, 65, 69
1, 100941, Note_on_c, 0, 65, 0
1, 100944, Note_on_c, 1, 70, 68
1, 100944, Note_on_c, 1, 68, 68
1, 100964, Note_on_c, 1, 70, 0
1, 100964, Note_on_c, 1, 68, 0
1, 100992, Note_on_c, 1, 70, 69
1, 100992, Note_on_c, 1, 68, 69
1, 101012, Note_on_c, 1, 70, 0
1, 101012, Note_on_c, 1, 68, 0
1, 101040, Note_on_c, 1, 70, 70
1, 101040, Note_on_c, 1, 68, 70
1, 101060, Note_on_c, 1, 70, 0
1, 101060, Note_on_c, 1, 68, 0
1, 101088, Note_on_c, 0, 74, 72
1, 101088, Note_on_c, 1, 70, 71
1, 101088, Note_on_c, 1, 68, 71
1, 101112, Note_on_c, 0, 74, 0
1, 101112, Note_on_c, 0, 77, 73
1, 101133, Note_on_c, 1, 70, 0
1, 101133, Note_on_c, 1, 68, 0
1, 101135, Note_on_c, 0, 77, 0
1, 101136, Note_on_c, 0, 75, 73
1, 101160, Note_on_c, 0, 75, 0
1, 101160, Note_on_c, 0, 79, 73
1, 101183, Note_on_c, 0, 79, 0
1, 101184, Note_on_c, 0, 77, 74
1, 101229, Note_on_c, 0, 77, 0
1, 101280, Note_on_c, 0, 74, 75
1, 101280, Note_on_c, 1, 70, 74
1, 101280, Note_on_c, 1, 68, 74
1, 101300, Note_on_c, 1, 70, 0
1, 101300, Note_on_c, 1, 68, 0
1, 101304, Note_on_c, 0, 74, 0
1, 101304, Note_on_c, 0, 77, 76
1, 101327, Note_on_c, 0, 77, 0
1, 101328, Note_on_c, 0, 75, 76
1, 101328, Note_on_c, 1, 70, 75
1, 101328, Note_on_c, 1, 68, 75
1, 101348, Note_on_c, 1, 70, 0
1, 101348, Note_on_c, 1, 68, 0
1, 101352, Note_on_c, 0, 75, 0
1, 101352, Note_on_c, 0, 79, 76
1, 101375, Note_on_c, 0, 79, 0
1, 101376, Note_on_c, 0, 77, 77
1, 101376, Note_on_c, 1, 70, 76
1, 101376, Note_on_c, 1, 68, 76
1, 101421, Note_on_c, 0, 77, 0
1, 101421, Note_on_c, 1, 70, 0
1, 101421, Note_on_c, 1, 68, 0
1, 101472, Note_on_c, 0, 74, 78
1, 101472, Note_on_c, 1, 70, 77
1, 101472, Note_on_c, 1, 68, 77
1, 101492, Note_on_c, 1, 70, 0
1, 101492, Note_on_c, 1, 68, 0
1, 101496, Note_on_c, 0, 74, 0
1, 101496, Note_on_c, 0, 77, 79
1, 101519, Note_on_c, 0, 77, 0
1, 101520, Note_on_c, 0, 75, 79
1, 101520, Note_on_c, 1, 70, 78
1, 101520, Note_on_c, 1, 68, 78
1, 101540, Note_on_c, 1, 70, 0
1, 101540, Note_on_c, 1, 68, 0
1, 101543, Note_on_c, 0, 75, 0
1, 101544, Note_on_c, 0, 79, 79
1, 101567, Note_on_c, 0, 79, 0
1, 101568, Note_on_c, 0, 77, 80
1, 101568, Note_on_c, 1, 70, 79
1, 101568, Note_on_c, 1, 68, 79
1, 101613, Note_on_c, 0, 77, 0
1, 101613, Note_on_c, 1, 70, 0
1, 101613, Note_on_c, 1, 68, 0
1, 101664, Note_on_c, 1, 68, 81
1, 101687, Note_on_c, 1, 68, 0
1, 101688, Note_on_c, 1, 70, 81
1, 101711, Note_on_c, 1, 70, 0
1, 101712, Note_on_c, 0, 72, 82
1, 101735, Note_on_c, 0, 72, 0
1, 101736, Note_on_c, 0, 74, 82
1, 101759, Note_on_c, 0, 74, 0
1, 101760, Note_on_c, 0, 75, 83
1, 101783, Note_on_c, 0, 75, 0
1, 101784, Note_on_c, 0, 77, 83
1, 101807, Note_on_c, 0, 77, 0
1, 101808, Note_on_c, 0, 79, 83
1, 101831, Note_on_c, 0, 79, 0
1, 101832, Note_on_c, 0, 80, 84
1, 101855, Note_on_c, 0, 80, 0
1, 101856, Note_on_c, 0, 82, 84
1, 101879, Note_on_c, 0, 82, 0
1, 101880, Note_on_c, 0, 84, 84
1, 101903, Note_on_c, 0, 84, 0
1, 101904, Note_on_c, 0, 86, 85
1, 101927, Note_on_c, 0, 86, 0
1, 101928, Note_on_c, 0, 87, 85
1, 101951, Note_on_c, 0, 87, 0
1, 101952, Note_on_c, 0, 89, 86
1, 101952, Note_on_c, 1, 65, 86
1, 101952, Note_on_c, 1, 62, 86
1, 101952, Note_on_c, 1, 58, 86
1, 101952, Note_on_c, 1, 56, 86
1, 102263, Note_on_c, 0, 89, 0
1, 102264, Note_on_c, 0, 87, 75
1, 102287, Note_on_c, 0, 87, 0
1, 102288, Note_on_c, 0, 86, 75
1, 102311, Note_on_c, 0, 86, 0
1, 102312, Note_on_c, 0, 84, 75
1, 102335, Note_on_c, 0, 84, 0
1, 102336, Note_on_c, 0, 82, 75
1, 102359, Note_on_c, 0, 82, 0
1, 102360, Note_on_c, 0, 80, 75
1, 102383, Note_on_c, 0, 80, 0
1, 102384, Note_on_c, 0, 79, 75
1, 102407, Note_on_c, 0, 79, 0
1, 102408, Note_on_c, 0, 77, 75
1, 102417, Note_on_c, 1, 65, 0
1, 102417, Note_on_c, 1, 62, 0
1, 102417, Note_on_c, 1, 58, 0
1, 102417, Note_on_c, 1, 56, 0
1, 102431, Note_on_c, 0, 77, 0
1, 102432, Note_on_c, 0, 80, 75
1, 102455, Note_on_c, 0, 80, 0
1, 102456, Note_on_c, 0, 79, 75
1, 102479, Note_on_c, 0, 79, 0
1, 102480, Note_on_c, 0, 82, 75
1, 102503, Note_on_c, 0, 82, 0
1, 102504, Note_on_c, 0, 80, 75
1, 102527, Note_on_c, 0, 80, 0
1, 102528, Note_on_c, 0, 84, 75
1, 102551, Note_on_c, 0, 84, 0
1, 102552, Note_on_c, 0, 82, 75
1, 102575, Note_on_c, 0, 82, 0
1, 102576, Note_on_c, 0, 80, 75
1, 102599, Note_on_c, 0, 80, 0
1, 102600, Note_on_c, 0, 79, 75
1, 102623, Note_on_c, 0, 79, 0
1, 102624, Note_on_c, 0, 77, 75
1, 102647, Note_on_c, 0, 77, 0
1, 102648, Note_on_c, 0, 76, 75
1, 102671, Note_on_c, 0, 76, 0
1, 102672, Note_on_c, 0, 79, 75
1, 102695, Note_on_c, 0, 79, 0
1, 102696, Note_on_c, 0, 77, 75
1, 102719, Note_on_c, 0, 77, 0
1, 102720, Note_on_c, 0, 80, 75
1, 102743, Note_on_c, 0, 80, 0
1, 102744, Note_on_c, 0, 79, 75
1, 102767, Note_on_c, 0, 79, 0
1, 102768, Note_on_c, 0, 82, 75
1, 102791, Note_on_c, 0, 82, 0
1, 102792, Note_on_c, 0, 80, 75
1, 102815, Note_on_c, 0, 80, 0
1, 102816, Note_on_c, 0, 79, 75
1, 102839, Note_on_c, 0, 79, 0
1, 102840, Note_on_c, 0, 77, 75
1, 102863, Note_on_c, 0, 77, 0
1, 102864, Note_on_c, 0, 75, 75
1, 102887, Note_on_c, 0, 75, 0
1, 102888, Note_on_c, 0, 74, 75
1, 102911, Note_on_c, 0, 74, 0
1, 102912, Note_on_c, 0, 77, 75
1, 102935, Note_on_c, 0, 77, 0
1, 102936, Note_on_c, 0, 75, 75
1, 102959, Note_on_c, 0, 75, 0
1, 102960, Note_on_c, 0, 79, 75
1, 102983, Note_on_c, 0, 79, 0
1, 102984, Note_on_c, 0, 77, 75
1, 103007, Note_on_c, 0, 77, 0
1, 103008, Note_on_c, 0, 75, 75
1, 103031, Note_on_c, 0, 75, 0
1, 103032, Note_on_c, 0, 74, 75
1, 103055, Note_on_c, 0, 74, 0
1, 103056, Note_on_c, 0, 72, 75
1, 103079, Note_on_c, 0, 72, 0
1, 103080, Note_on_c, 0, 71, 75
1, 103103, Note_on_c, 0, 71, 0
1, 103104, Note_on_c, 0, 70, 75
1, 103127, Note_on_c, 0, 70, 0
1, 103128, Note_on_c, 0, 69, 75
1, 103151, Note_on_c, 0, 69, 0
1, 103152, Note_on_c, 0, 68, 75
1, 103175, Note_on_c, 0, 68, 0
1, 103176, Note_on_c, 0, 67, 75
1, 103199, Note_on_c, 0, 67, 0
1, 103200, Tempo, 461538
1, 103200, Note_on_c, 0, 66, 75
1, 103223, Note_on_c, 0, 66, 0
1, 103224, Note_on_c, 0, 65, 75
1, 103247, Note_on_c, 0, 65, 0
1, 103248, Note_on_c, 0, 64, 75
1, 103271, Note_on_c, 0, 64, 0
1, 103272, Note_on_c, 0, 63, 75
1, 103295, Note_on_c, 0, 63, 0
1, 103296, Note_on_c, 0, 62, 75
1, 103319, Note_on_c, 0, 62, 0
1, 103320, Note_on_c, 0, 61, 75
1, 103343, Note_on_c, 0, 61, 0
1, 103344, Note_on_c, 0, 60, 75
1, 103367, Note_on_c, 0, 60, 0
1, 103368, Note_on_c, 0, 59, 75
1, 103391, Note_on_c, 0, 59, 0
1, 103392, Tempo, 600000
1, 103392, Note_on_c, 0, 58, 75
1, 103437, Note_on_c, 0, 58, 0
1, 103440, Note_on_c, 0, 57, 75
1, 103485, Note_on_c, 0, 57, 0
1, 103488, Tempo, 1000000
1, 103488, Note_on_c, 0, 56, 75
1, 103584, Tempo, 444444
1, 103584, Note_on_c, 0, 56, 0
1, 103584, Note_on_c, 0, 55, 75
1, 103607, Note_on_c, 0, 55, 0
1, 103608, Note_on_c, 0, 58, 75
1, 103631, Note_on_c, 0, 58, 0
1, 103632, Note_on_c, 0, 56, 75
1, 103656, Note_on_c, 0, 56, 0
1, 103656, Note_on_c, 0, 60, 75
1, 103679, Note_on_c, 0, 60, 0
1, 103680, Note_on_c, 0, 58, 75
1, 103680, Note_on_c, 1, 43, 75
1, 103680, Note_on_c, 1, 39, 75
1, 103700, Note_on_c, 0, 58, 0
1, 103725, Note_on_c, 1, 43, 0
1, 103725, Note_on_c, 1, 39, 0
1, 103776, Note_on_c, 1, 55, 75
1, 103776, Note_on_c, 1, 51, 75
1, 103796, Note_on_c, 1, 55, 0
1, 103796, Note_on_c, 1, 51, 0
1, 103872, Note_on_c, 0, 67, 75
1, 103896, Note_on_c, 0, 67, 0
1, 103896, Note_on_c, 0, 63, 75
1, 103919, Note_on_c, 0, 63, 0
1, 103920, Note_on_c, 0, 62, 75
1, 103944, Note_on_c, 0, 62, 0
1, 103944, Note_on_c, 0, 65, 75
1, 103967, Note_on_c, 0, 65, 0
1, 103968, Note_on_c, 0, 63, 75
1, 103968, Note_on_c, 1, 43, 75
1, 103968, Note_on_c, 1, 39, 75
1, 103988, Note_on_c, 0, 63, 0
1, 104013, Note_on_c, 1, 43, 0
1, 104013, Note_on_c, 1, 39, 0
1, 104064, Note_on_c, 1, 55, 75
1, 104064, Note_on_c, 1, 51, 75
1, 104084, Note_on_c, 1, 55, 0
1, 104084, Note_on_c, 1, 51, 0
1, 104112, Note_on_c, 0, 63, 75
1, 104157, Note_on_c, 0, 63, 0
1, 104160, Note_on_c, 0, 67, 75
1, 104205, Note_on_c, 0, 67, 0
1, 104208, Note_on_c, 0, 70, 75
1, 104253, Note_on_c, 0, 70, 0
1, 104256, Note_on_c, 0, 70, 87
1, 104256, Note_on_c, 1, 63, 87
1, 104256, Note_on_c, 1, 60, 87
1, 104352, Note_on_c, 0, 70, 0
1, 104352, Note_on_c, 0, 68, 75
1, 104389, Note_on_c, 1, 63, 0
1, 104389, Note_on_c, 1, 60, 0
1, 104397, Note_on_c, 0, 68, 0
1, 104400, Note_on_c, 0, 67, 75
1, 104400, Note_on_c, 1, 62, 75
1, 104400, Note_on_c, 1, 58, 75
1, 104445, Note_on_c, 0, 67, 0
1, 104445, Note_on_c, 1, 62, 0
1, 104445, Note_on_c, 1, 58, 0
1, 104448, Note_on_c, 0, 65, 75
1, 104448, Note_on_c, 1, 60, 75
1, 104448, Note_on_c, 1, 56, 75
1, 104493, Note_on_c, 0, 65, 0
1, 104493, Note_on_c, 1, 60, 0
1, 104493, Note_on_c, 1, 56, 0
1, 104496, Note_on_c, 0, 63, 75
1, 104496, Note_on_c, 1, 58, 75
1, 104496, Note_on_c, 1, 55, 75
1, 104541, Note_on_c, 0, 63, 0
1, 104541, Note_on_c, 1, 58, 0
1, 104541, Note_on_c, 1, 55, 0
1, 104544, Note_on_c, 0, 62, 75
1, 104544, Note_on_c, 1, 56, 75
1, 104544, Note_on_c, 1, 53, 75
1, 104616, Note_on_c, 0, 62, 0
1, 104616, Note_on_c, 0, 65, 75
1, 104633, Note_on_c, 1, 56, 0
1, 104633, Note_on_c, 1, 53, 0
1, 104639, Note_on_c, 0, 65, 0
1, 104640, Note_on_c, 0, 68, 75
1, 104660, Note_on_c, 0, 68, 0
1, 104736, Note_on_c, 0, 58, 75
1, 104760, Note_on_c, 0, 58, 0
1, 104760, Note_on_c, 0, 62, 75
1, 104783, Note_on_c, 0, 62, 0
1, 104784, Note_on_c, 0, 60, 75
1, 104808, Note_on_c, 0, 60, 0
1, 104808, Note_on_c, 0, 63, 75
1, 104831, Note_on_c, 0, 63, 0
1, 104832, Note_on_c, 0, 62, 75
1, 104832, Note_on_c, 1, 38, 75
1, 104832, Note_on_c, 1, 34, 75
1, 104852, Note_on_c, 0, 62, 0
1, 104877, Note_on_c, 1, 38, 0
1, 104877, Note_on_c, 1, 34, 0
1, 104928, Note_on_c, 1, 50, 75
1, 104928, Note_on_c, 1, 46, 75
1, 104948, Note_on_c, 1, 50, 0
1, 104948, Note_on_c, 1, 46, 0
1, 105024, Note_on_c, 0, 62, 75
1, 105048, Note_on_c, 0, 62, 0
1, 105048, Note_on_c, 0, 65, 75
1, 105071, Note_on_c, 0, 65, 0
1, 105072, Note_on_c, 0, 63, 75
1, 105096, Note_on_c, 0, 63, 0
1, 105096, Note_on_c, 0, 67, 75
1, 105119, Note_on_c, 0, 67, 0
1, 105120, Note_on_c, 0, 65, 75
1, 105120, Note_on_c, 1, 38, 75
1, 105120, Note_on_c, 1, 34, 75
1, 105140, Note_on_c, 0, 65, 0
1, 105165, Note_on_c, 1, 38, 0
1, 105165, Note_on_c, 1, 34, 0
1, 105216, Note_on_c, 1, 50, 75
1, 105216, Note_on_c, 1, 46, 75
1, 105236, Note_on_c, 1, 50, 0
1, 105236, Note_on_c, 1, 46, 0
1, 105264, Note_on_c, 0, 65, 75
1, 105309, Note_on_c, 0, 65, 0
1, 105312, Note_on_c, 0, 68, 75
1, 105357, Note_on_c, 0, 68, 0
1, 105360, Note_on_c, 0, 72, 75
1, 105405, Note_on_c, 0, 72, 0
1, 105408, Note_on_c, 0, 72, 87
1, 105408, Note_on_c, 1, 65, 87
1, 105408, Note_on_c, 1, 62, 87
1, 105504, Note_on_c, 0, 72, 0
1, 105504, Note_on_c, 0, 70, 75
1, 105541, Note_on_c, 1, 65, 0
1, 105541, Note_on_c, 1, 62, 0
1, 105549, Note_on_c, 0, 70, 0
1, 105552, Note_on_c, 0, 68, 75
1, 105552, Note_on_c, 1, 63, 75
1, 105552, Note_on_c, 1, 60, 75
1, 105597, Note_on_c, 0, 68, 0
1, 105597, Note_on_c, 1, 63, 0
1, 105597, Note_on_c, 1, 60, 0
1, 105600, Note_on_c, 0, 67, 75
1, 105600, Note_on_c, 1, 62, 75
1, 105600, Note_on_c, 1, 58, 75
1, 105645, Note_on_c, 0, 67, 0
1, 105645, Note_on_c, 1, 62, 0
1, 105645, Note_on_c, 1, 58, 0
1, 105648, Note_on_c, 0, 65, 75
1, 105648, Note_on_c, 1, 60, 75
1, 105648, Note_on_c, 1, 56, 75
1, 105693, Note_on_c, 0, 65, 0
1, 105693, Note_on_c, 1, 60, 0
1, 105693, Note_on_c, 1, 56, 0
1, 105696, Note_on_c, 0, 63, 75
1, 105696, Note_on_c, 1, 58, 75
1, 105696, Note_on_c, 1, 55, 75
1, 105708, Note_on_c, 0, 63, 0
1, 105708, Note_on_c, 0, 65, 75
1, 105720, Note_on_c, 0, 65, 0
1, 105720, Note_on_c, 0, 63, 75
1, 105732, Note_on_c, 0, 63, 0
1, 105732, Note_on_c, 0, 62, 75
1, 105744, Note_on_c, 0, 62, 0
1, 105744, Note_on_c, 0, 63, 75
1, 105768, Note_on_c, 0, 63, 0
1, 105768, Note_on_c, 0, 67, 75
1, 105785, Note_on_c, 1, 58, 0
1, 105785, Note_on_c, 1, 55, 0
1, 105791, Note_on_c, 0, 67, 0
1, 105792, Note_on_c, 0, 70, 75
1, 105812, Note_on_c, 0, 70, 0
1, 105888, Note_on_c, 0, 75, 75
1, 105912, Note_on_c, 0, 75, 0
1, 105912, Note_on_c, 0, 74, 75
1, 105935, Note_on_c, 0, 74, 0
1, 105936, Note_on_c, 0, 77, 75
1, 105960, Note_on_c, 0, 77, 0
1, 105960, Note_on_c, 0, 75, 75
1, 105983, Note_on_c, 0, 75, 0
1, 105984, Note_on_c, 0, 79, 75
1, 105984, Note_on_c, 1, 51, 75
1, 105984, Note_on_c, 1, 46, 75
1, 105984, Note_on_c, 1, 43, 75
1, 106007, Note_on_c, 0, 79, 0
1, 106008, Note_on_c, 0, 77, 75
1, 106031, Note_on_c, 0, 77, 0
1, 106032, Note_on_c, 0, 80, 75
1, 106055, Note_on_c, 0, 80, 0
1, 106056, Note_on_c, 0, 79, 75
1, 106079, Note_on_c, 0, 79, 0
1, 106080, Note_on_c, 0, 82, 75
1, 106103, Note_on_c, 0, 82, 0
1, 106104, Note_on_c, 0, 80, 75
1, 106127, Note_on_c, 0, 80, 0
1, 106128, Note_on_c, 0, 79, 75
1, 106151, Note_on_c, 0, 79, 0
1, 106152, Note_on_c, 0, 77, 75
1, 106175, Note_on_c, 0, 77, 0
1, 106176, Note_on_c, 0, 75, 75
1, 106199, Note_on_c, 0, 75, 0
1, 106200, Note_on_c, 0, 74, 75
1, 106223, Note_on_c, 0, 74, 0
1, 106224, Note_on_c, 0, 72, 75
1, 106247, Note_on_c, 0, 72, 0
1, 106248, Note_on_c, 0, 71, 75
1, 106249, Note_on_c, 1, 51, 0
1, 106249, Note_on_c, 1, 46, 0
1, 106249, Note_on_c, 1, 43, 0
1, 106271, Note_on_c, 0, 71, 0
1, 106272, Note_on_c, 0, 71, 75
1, 106272, Note_on_c, 1, 51, 75
1, 106272, Note_on_c, 1, 44, 75
1, 106368, Note_on_c, 0, 71, 0
1, 106368, Note_on_c, 0, 72, 75
1, 106388, Note_on_c, 0, 72, 0
1, 106405, Note_on_c, 1, 51, 0
1, 106405, Note_on_c, 1, 44, 0
1, 106416, Note_on_c, 0, 74, 75
1, 106422, Note_on_c, 0, 74, 0
1, 106422, Note_on_c, 0, 72, 75
1, 106428, Note_on_c, 0, 72, 0
1, 106428, Note_on_c, 0, 71, 75
1, 106434, Note_on_c, 0, 71, 0
1, 106434, Note_on_c, 0, 72, 75
1, 106461, Note_on_c, 0, 72, 0
1, 106464, Note_on_c, 0, 74, 75
1, 106509, Note_on_c, 0, 74, 0
1, 106512, Note_on_c, 0, 75, 75
1, 106557, Note_on_c, 0, 75, 0
1, 106560, Note_on_c, 0, 75, 75
1, 106608, Note_on_c, 0, 75, 0
1, 106608, Note_on_c, 0, 65, 75
1, 106653, Note_on_c, 0, 65, 0
1, 106656, Note_on_c, 0, 72, 75
1, 106704, Note_on_c, 0, 72, 0
1, 106704, Note_on_c, 0, 60, 75
1, 106749, Note_on_c, 0, 60, 0
1, 106752, Note_on_c, 0, 68, 75
1, 106752, Note_on_c, 1, 53, 75
1, 106752, Note_on_c, 1, 46, 75
1, 106800, Note_on_c, 0, 68, 0
1, 106800, Note_on_c, 0, 62, 75
1, 106841, Note_on_c, 1, 53, 0
1, 106841, Note_on_c, 1, 46, 0
1, 106845, Note_on_c, 0, 62, 0
1, 106848, Note_on_c, 0, 63, 75
1, 106868, Note_on_c, 0, 63, 0
1, 106896, Note_on_c, 1, 51, 75
1, 106941, Note_on_c, 1, 51, 0
1, 106944, Note_on_c, 1, 46, 75
1, 106989, Note_on_c, 1, 46, 0
1, 106992, Note_on_c, 1, 43, 75
1, 107037, Note_on_c, 1, 43, 0
1, 107040, Note_on_c, 1, 39, 75
1, 107060, Note_on_c, 1, 39, 0
1, 107088, Note_on_c, 0, 58, 75
1, 107108, Note_on_c, 0, 58, 0
1, 107136, Note_on_c, 0, 63, 75
1, 107184, Note_on_c, 1, 51, 70
1, 107229, Note_on_c, 1, 51, 0
1, 107232, Note_on_c, 1, 55, 70
1, 107277, Note_on_c, 1, 55, 0
1, 107280, Note_on_c, 1, 51, 70
1, 107325, Note_on_c, 1, 51, 0
1, 107328, Note_on_c, 1, 56, 70
1, 107373, Note_on_c, 0, 63, 0
1, 107373, Note_on_c, 1, 56, 0
1, 107376, Note_on_c, 0, 62, 75
1, 107376, Note_on_c, 1, 46, 70
1, 107396, Note_on_c, 0, 62, 0
1, 107421, Note_on_c, 1, 46, 0
1, 107424, Note_on_c, 0, 68, 75
1, 107472, Note_on_c, 1, 46, 70
1, 107517, Note_on_c, 1, 46, 0
1, 107520, Note_on_c, 1, 50, 70
1, 107565, Note_on_c, 1, 50, 0
1, 107568, Note_on_c, 1, 46, 70
1, 107613, Note_on_c, 1, 46, 0
1, 107616, Note_on_c, 1, 51, 70
1, 107661, Note_on_c, 0, 68, 0
1, 107661, Note_on_c, 1, 51, 0
1, 107664, Note_on_c, 0, 67, 75
1, 107664, Note_on_c, 1, 39, 70
1, 107684, Note_on_c, 0, 67, 0
1, 107709, Note_on_c, 1, 39, 0
1, 107712, Note_on_c, 0, 75, 75
1, 107712, Note_on_c, 0, 67, 80
1, 107760, Note_on_c, 1, 51, 70
1, 107805, Note_on_c, 1, 51, 0
1, 107808, Note_on_c, 1, 55, 70
1, 107853, Note_on_c, 1, 55, 0
1, 107856, Note_on_c, 1, 51, 70
1, 107889, Note_on_c, 0, 67, 0
1, 107901, Note_on_c, 1, 51, 0
1, 107904, Note_on_c, 0, 65, 80
1, 107904, Note_on_c, 1, 56, 70
1, 107949, Note_on_c, 0, 75, 0
1, 107949, Note_on_c, 1, 56, 0
1, 107952, Note_on_c, 0, 74, 75
1, 107952, Note_on_c, 1, 46, 70
1, 107972, Note_on_c, 0, 74, 0
1, 107997, Note_on_c, 1, 46, 0
1, 107998, Note_on_c, 0, 65, 0
1, 108000, Note_on_c, 0, 80, 75
1, 108000, Note_on_c, 0, 77, 80
1, 108048, Note_on_c, 1, 58, 70
1, 108093, Note_on_c, 1, 58, 0
1, 108096, Note_on_c, 1, 62, 70
1, 108141, Note_on_c, 1, 62, 0
1, 108144, Note_on_c, 1, 58, 70
1, 108189, Note_on_c, 1, 58, 0
1, 108192, Note_on_c, 1, 63, 70
1, 108237, Note_on_c, 0, 80, 0
1, 108237, Note_on_c, 0, 77, 0
1, 108237, Note_on_c, 1, 63, 0
1, 108240, Note_on_c, 0, 79, 75
1, 108240, Note_on_c, 0, 79, 80
1, 108240, Note_on_c, 1, 51, 70
1, 108260, Note_on_c, 0, 79, 0
1, 108285, Note_on_c, 0, 79, 0
1, 108285, Note_on_c, 1, 51, 0
1, 108288, Note_on_c, 0, 84, 75
1, 108336, Note_on_c, 1, 63, 70
1, 108381, Note_on_c, 1, 63, 0
1, 108384, Note_on_c, 1, 67, 70
1, 108429, Note_on_c, 1, 67, 0
1, 108432, Note_on_c, 1, 63, 70
1, 108477, Note_on_c, 1, 63, 0
1, 108480, Note_on_c, 1, 62, 70
1, 108525, Note_on_c, 0, 84, 0
1, 108525, Note_on_c, 1, 62, 0
1, 108528, Note_on_c, 0, 83, 75
1, 108528, Note_on_c, 1, 65, 70
1, 108548, Note_on_c, 0, 83, 0
1, 108573, Note_on_c, 1, 65, 0
1, 108576, Note_on_c, 0, 86, 75
1, 108576, Note_on_c, 0, 77, 75
1, 108624, Note_on_c, 1, 55, 70
1, 108669, Note_on_c, 1, 55, 0
1, 108672, Note_on_c, 1, 59, 70
1, 108717, Note_on_c, 1, 59, 0
1, 108720, Note_on_c, 1, 55, 70
1, 108765, Note_on_c, 1, 55, 0
1, 108768, Note_on_c, 1, 60, 70
1, 108813, Note_on_c, 0, 86, 0
1, 108813, Note_on_c, 0, 77, 0
1, 108813, Note_on_c, 1, 60, 0
1, 108816, Note_on_c, 0, 84, 75
1, 108816, Note_on_c, 0, 75, 75
1, 108816, Note_on_c, 1, 48, 70
1, 108836, Note_on_c, 0, 84, 0
1, 108836, Note_on_c, 0, 75, 0
1, 108861, Note_on_c, 1, 48, 0
1, 108864, Note_on_c, 0, 82, 75
1, 108864, Note_on_c, 0, 73, 75
1, 108912, Note_on_c, 1, 63, 70
1, 108957, Note_on_c, 1, 63, 0
1, 108960, Note_on_c, 1, 67, 70
1, 109005, Note_on_c, 1, 67, 0
1, 109008, Note_on_c, 1, 63, 70
1, 109053, Note_on_c, 1, 63, 0
1, 109056, Note_on_c, 1, 68, 70
1, 109101, Note_on_c, 0, 82, 0
1, 109101, Note_on_c, 0, 73, 0
1, 109101, Note_on_c, 1, 68, 0
1, 109104, Note_on_c, 0, 80, 75
1, 109104, Note_on_c, 0, 72, 75
1, 109104, Note_on_c, 1, 56, 70
1, 109124, Note_on_c, 0, 80, 0
1, 109124, Note_on_c, 0, 72, 0
1, 109149, Note_on_c, 1, 56, 0
1, 109152, Note_on_c, 0, 79, 75
1, 109152, Note_on_c, 0, 70, 75
1, 109200, Note_on_c, 1, 48, 70
1, 109245, Note_on_c, 1, 48, 0
1, 109248, Note_on_c, 1, 52, 70
1, 109293, Note_on_c, 1, 52, 0
1, 109296, Note_on_c, 1, 48, 70
1, 109341, Note_on_c, 1, 48, 0
1, 109344, Note_on_c, 1, 53, 70
1, 109389, Note_on_c, 0, 79, 0
1, 109389, Note_on_c, 0, 70, 0
1, 109389, Note_on_c, 1, 53, 0
1, 109392, Note_on_c, 0, 77, 75
1, 109392, Note_on_c, 0, 68, 75
1, 109392, Note_on_c, 1, 41, 70
1, 109412, Note_on_c, 0, 77, 0
1, 109412, Note_on_c, 0, 68, 0
1, 109437, Note_on_c, 1, 41, 0
1, 109440, Note_on_c, 0, 80, 75
1, 109440, Note_on_c, 0, 71, 75
1, 109488, Note_on_c, 1, 62, 70
1, 109533, Note_on_c, 1, 62, 0
1, 109536, Note_on_c, 1, 65, 70
1, 109581, Note_on_c, 1, 65, 0
1, 109584, Note_on_c, 1, 62, 70
1, 109629, Note_on_c, 1, 62, 0
1, 109632, Note_on_c, 1, 63, 70
1, 109677, Note_on_c, 0, 80, 0
1, 109677, Note_on_c, 0, 71, 0
1, 109677, Note_on_c, 1, 63, 0
1, 109680, Note_on_c, 0, 79, 75
1, 109680, Note_on_c, 0, 70, 75
1, 109680, Note_on_c, 1, 67, 70
1, 109700, Note_on_c, 0, 79, 0
1, 109700, Note_on_c, 0, 70, 0
1, 109725, Note_on_c, 1, 67, 0
1, 109728, Note_on_c, 0, 77, 75
1, 109728, Note_on_c, 0, 68, 75
1, 109776, Note_on_c, 1, 59, 70
1, 109821, Note_on_c, 1, 59, 0
1, 109824, Note_on_c, 1, 62, 70
1, 109869, Note_on_c, 1, 62, 0
1, 109872, Note_on_c, 1, 59, 70
1, 109917, Note_on_c, 1, 59, 0
1, 109920, Note_on_c, 1, 58, 70
1, 109965, Note_on_c, 0, 77, 0
1, 109965, Note_on_c, 0, 68, 0
1, 109965, Note_on_c, 1, 58, 0
1, 109968, Note_on_c, 0, 75, 75
1, 109968, Note_on_c, 0, 67, 75
1, 109968, Note_on_c, 1, 63, 70
1, 109988, Note_on_c, 0, 75, 0
1, 109988, Note_on_c, 0, 67, 0
1, 110013, Note_on_c, 1, 63, 0
1, 110016, Note_on_c, 1, 65, 75
1, 110016, Note_on_c, 1, 60, 75
1, 110016, Note_on_c, 1, 56, 75
1, 110064, Note_on_c, 0, 72, 75
1, 110112, Note_on_c, 0, 72, 0
1, 110112, Note_on_c, 0, 79, 75
1, 110157, Note_on_c, 0, 79, 0
1, 110160, Note_on_c, 0, 76, 75
1, 110208, Note_on_c, 0, 76, 0
1, 110208, Note_on_c, 0, 80, 75
1, 110253, Note_on_c, 0, 80, 0
1, 110256, Note_on_c, 0, 77, 75
1, 110304, Note_on_c, 0, 77, 0
1, 110304, Note_on_c, 0, 83, 75
1, 110352, Note_on_c, 0, 83, 0
1, 110352, Note_on_c, 0, 86, 75
1, 110397, Note_on_c, 0, 86, 0
1, 110400, Note_on_c, 0, 84, 75
1, 110448, Note_on_c, 0, 84, 0
1, 110448, Note_on_c, 0, 79, 75
1, 110493, Note_on_c, 0, 79, 0
1, 110496, Note_on_c, 0, 80, 75
1, 110541, Note_on_c, 0, 80, 0
1, 110544, Note_on_c, 0, 77, 75
1, 110569, Note_on_c, 1, 65, 0
1, 110569, Note_on_c, 1, 60, 0
1, 110569, Note_on_c, 1, 56, 0
1, 110589, Note_on_c, 0, 77, 0
1, 110592, Note_on_c, 0, 75, 75
1, 110592, Note_on_c, 1, 68, 75
1, 110592, Note_on_c, 1, 65, 75
1, 110592, Note_on_c, 1, 58, 75
1, 110637, Note_on_c, 0, 75, 0
1, 110640, Note_on_c, 0, 74, 75
1, 110685, Note_on_c, 0, 74, 0
1, 110688, Note_on_c, 0, 80, 75
1, 110733, Note_on_c, 0, 80, 0
1, 110736, Note_on_c, 0, 77, 75
1, 110781, Note_on_c, 0, 77, 0
1, 110784, Note_on_c, 0, 74, 75
1, 110829, Note_on_c, 0, 74, 0
1, 110832, Note_on_c, 0, 71, 75
1, 110857, Note_on_c, 1, 68, 0
1, 110857, Note_on_c, 1, 65, 0
1, 110857, Note_on_c, 1, 58, 0
1, 110877, Note_on_c, 0, 71, 0
1, 110880, Note_on_c, 0, 70, 75
1, 110925, Note_on_c, 0, 70, 0
1, 110928, Note_on_c, 0, 69, 75
1, 110973, Note_on_c, 0, 69, 0
1, 110976, Note_on_c, 0, 77, 75
1, 111024, Note_on_c, 0, 77, 0
1, 111024, Note_on_c, 0, 69, 75
1, 111069, Note_on_c, 0, 69, 0
1, 111072, Note_on_c, 0, 77, 75
1, 111120, Note_on_c, 0, 77, 0
1, 111120, Note_on_c, 0, 68, 75
1, 111165, Note_on_c, 0, 68, 0
1, 111168, Note_on_c, 0, 67, 75
1, 111168, Note_on_c, 1, 51, 70
1, 111191, Note_on_c, 1, 51, 0
1, 111192, Note_on_c, 1, 58, 70
1, 111213, Note_on_c, 0, 67, 0
1, 111215, Note_on_c, 1, 58, 0
1, 111216, Note_on_c, 1, 55, 70
1, 111239, Note_on_c, 1, 55, 0
1, 111240, Note_on_c, 1, 58, 70
1, 111263, Note_on_c, 1, 58, 0
1, 111264, Note_on_c, 0, 63, 80
1, 111264, Note_on_c, 1, 51, 70
1, 111287, Note_on_c, 0, 63, 0
1, 111287, Note_on_c, 1, 51, 0
1, 111288, Note_on_c, 0, 65, 80
1, 111288, Note_on_c, 1, 58, 70
1, 111311, Note_on_c, 0, 65, 0
1, 111311, Note_on_c, 1, 58, 0
1, 111312, Note_on_c, 0, 67, 80
1, 111312, Note_on_c, 1, 55, 70
1, 111335, Note_on_c, 0, 67, 0
1, 111335, Note_on_c, 1, 55, 0
1, 111336, Note_on_c, 0, 68, 80
1, 111336, Note_on_c, 1, 58, 70
1, 111359, Note_on_c, 0, 68, 0
1, 111359, Note_on_c, 1, 58, 0
1, 111360, Note_on_c, 0, 70, 80
1, 111360, Note_on_c, 1, 51, 70
1, 111383, Note_on_c, 0, 70, 0
1, 111383, Note_on_c, 1, 51, 0
1, 111384, Note_on_c, 0, 72, 80
1, 111384, Note_on_c, 1, 58, 70
1, 111407, Note_on_c, 0, 72, 0
1, 111407, Note_on_c, 1, 58, 0
1, 111408, Note_on_c, 0, 74, 80
1, 111408, Note_on_c, 1, 55, 70
1, 111431, Note_on_c, 0, 74, 0
1, 111431, Note_on_c, 1, 55, 0
1, 111432, Note_on_c, 0, 75, 80
1, 111432, Note_on_c, 1, 58, 70
1, 111442, Note_on_c, 0, 75, 0
1, 111455, Note_on_c, 1, 58, 0
1, 111456, Note_on_c, 0, 75, 96
1, 111456, Note_on_c, 1, 53, 70
1, 111479, Note_on_c, 1, 53, 0
1, 111480, Note_on_c, 1, 58, 70
1, 111503, Note_on_c, 1, 58, 0
1, 111504, Note_on_c, 1, 56, 70
1, 111527, Note_on_c, 1, 56, 0
1, 111528, Note_on_c, 1, 58, 70
1, 111551, Note_on_c, 1, 58, 0
1, 111552, Note_on_c, 0, 75, 0
1, 111552, Note_on_c, 0, 74, 80
1, 111552, Note_on_c, 1, 53, 70
1, 111575, Note_on_c, 1, 53, 0
1, 111576, Note_on_c, 1, 58, 70
1, 111597, Note_on_c, 0, 74, 0
1, 111599, Note_on_c, 1, 58, 0
1, 111600, Note_on_c, 0, 72, 80
1, 111600, Note_on_c, 1, 51, 70
1, 111620, Note_on_c, 0, 72, 0
1, 111623, Note_on_c, 1, 51, 0
1, 111624, Note_on_c, 1, 58, 70
1, 111647, Note_on_c, 1, 58, 0
1, 111648, Note_on_c, 0, 70, 80
1, 111648, Note_on_c, 1, 50, 70
1, 111668, Note_on_c, 0, 70, 0
1, 111671, Note_on_c, 1, 50, 0
1, 111672, Note_on_c, 1, 58, 70
1, 111695, Note_on_c, 1, 58, 0
1, 111696, Note_on_c, 0, 68, 80
1, 111696, Note_on_c, 1, 53, 70
1, 111716, Note_on_c, 0, 68, 0
1, 111719, Note_on_c, 1, 53, 0
1, 111720, Note_on_c, 1, 58, 70
1, 111743, Note_on_c, 1, 58, 0
1, 111744, Note_on_c, 0, 66, 80
1, 111744, Note_on_c, 1, 51, 70
1, 111767, Note_on_c, 1, 51, 0
1, 111768, Note_on_c, 1, 58, 70
1, 111791, Note_on_c, 1, 58, 0
1, 111792, Note_on_c, 0, 66, 0
1, 111792, Note_on_c, 0, 67, 80
1, 111792, Note_on_c, 1, 55, 70
1, 111815, Note_on_c, 1, 55, 0
1, 111816, Note_on_c, 1, 58, 70
1, 111837, Note_on_c, 0, 67, 0
1, 111839, Note_on_c, 1, 58, 0
1, 111840, Note_on_c, 0, 63, 80
1, 111840, Note_on_c, 1, 51, 70
1, 111863, Note_on_c, 0, 63, 0
1, 111863, Note_on_c, 1, 51, 0
1, 111864, Note_on_c, 0, 65, 80
1, 111864, Note_on_c, 1, 58, 70
1, 111887, Note_on_c, 0, 65, 0
1, 111887, Note_on_c, 1, 58, 0
1, 111888, Note_on_c, 0, 67, 80
1, 111888, Note_on_c, 1, 55, 70
1, 111911, Note_on_c, 0, 67, 0
1, 111911, Note_on_c, 1, 55, 0
1, 111912, Note_on_c, 0, 68, 80
1, 111912, Note_on_c, 1, 58, 70
1, 111935, Note_on_c, 0, 68, 0
1, 111935, Note_on_c, 1, 58, 0
1, 111936, Note_on_c, 0, 70, 80
1, 111936, Note_on_c, 1, 51, 70
1, 111959, Note_on_c, 0, 70, 0
1, 111959, Note_on_c, 1, 51, 0
1, 111960, Note_on_c, 0, 72, 80
1, 111960, Note_on_c, 1, 58, 70
1, 111983, Note_on_c, 0, 72, 0
1, 111983, Note_on_c, 1, 58, 0
1, 111984, Note_on_c, 0, 74, 80
1, 111984, Note_on_c, 1, 55, 70
1, 112007, Note_on_c, 0, 74, 0
1, 112007, Note_on_c, 1, 55, 0
1, 112008, Note_on_c, 0, 75, 80
1, 112008, Note_on_c, 1, 58, 70
1, 112018, Note_on_c, 0, 75, 0
1, 112031, Note_on_c, 1, 58, 0
1, 112032, Note_on_c, 0, 75, 96
1, 112032, Note_on_c, 1, 53, 70
1, 112055, Note_on_c, 1, 53, 0
1, 112056, Note_on_c, 1, 58, 70
1, 112079, Note_on_c, 1, 58, 0
1, 112080, Note_on_c, 1, 56, 70
1, 112103, Note_on_c, 1, 56, 0
1, 112104, Note_on_c, 1, 58, 70
1, 112127, Note_on_c, 1, 58, 0
1, 112128, Note_on_c, 0, 75, 0
1, 112128, Note_on_c, 0, 74, 80
1, 112128, Note_on_c, 1, 53, 70
1, 112151, Note_on_c, 1, 53, 0
1, 112152, Note_on_c, 1, 58, 70
1, 112173, Note_on_c, 0, 74, 0
1, 112175, Note_on_c, 1, 58, 0
1, 112176, Note_on_c, 0, 72, 80
1, 112176, Note_on_c, 1, 51, 70
1, 112196, Note_on_c, 0, 72, 0
1, 112199, Note_on_c, 1, 51, 0
1, 112200, Note_on_c, 1, 58, 70
1, 112223, Note_on_c, 1, 58, 0
1, 112224, Note_on_c, 0, 70, 80
1, 112224, Note_on_c, 1, 50, 70
1, 112244, Note_on_c, 0, 70, 0
1, 112247, Note_on_c, 1, 50, 0
1, 112248, Note_on_c, 1, 58, 70
1, 112271, Note_on_c, 1, 58, 0
1, 112272, Note_on_c, 0, 68, 80
1, 112272, Note_on_c, 1, 53, 70
1, 112292, Note_on_c, 0, 68, 0
1, 112295, Note_on_c, 1, 53, 0
1, 112296, Note_on_c, 1, 58, 70
1, 112319, Note_on_c, 1, 58, 0
1, 112320, Note_on_c, 0, 66, 80
1, 112320, Note_on_c, 1, 51, 70
1, 112343, Note_on_c, 1, 51, 0
1, 112344, Note_on_c, 1, 58, 70
1, 112367, Note_on_c, 1, 58, 0
1, 112368, Note_on_c, 0, 66, 0
1, 112368, Note_on_c, 0, 67, 80
1, 112368, Note_on_c, 1, 55, 70
1, 112391, Note_on_c, 1, 55, 0
1, 112392, Note_on_c, 1, 58, 70
1, 112413, Note_on_c, 0, 67, 0
1, 112415, Note_on_c, 1, 58, 0
1, 112416, Note_on_c, 0, 63, 80
1, 112416, Note_on_c, 1, 51, 70
1, 112439, Note_on_c, 0, 63, 0
1, 112439, Note_on_c, 1, 51, 0
1, 112440, Note_on_c, 0, 65, 80
1, 112440, Note_on_c, 1, 58, 70
1, 112463, Note_on_c, 0, 65, 0
1, 112463, Note_on_c, 1, 58, 0
1, 112464, Note_on_c, 0, 67, 80
1, 112464, Note_on_c, 1, 55, 70
1, 112487, Note_on_c, 0, 67, 0
1, 112487, Note_on_c, 1, 55, 0
1, 112488, Note_on_c, 0, 68, 80
1, 112488, Note_on_c, 1, 58, 70
1, 112511, Note_on_c, 0, 68, 0
1, 112511, Note_on_c, 1, 58, 0
1, 112512, Note_on_c, 0, 70, 80
1, 112512, Note_on_c, 1, 51, 70
1, 112535, Note_on_c, 0, 70, 0
1, 112535, Note_on_c, 1, 51, 0
1, 112536, Note_on_c, 0, 72, 80
1, 112536, Note_on_c, 1, 58, 70
1, 112559, Note_on_c, 0, 72, 0
1, 112559, Note_on_c, 1, 58, 0
1, 112560, Note_on_c, 0, 73, 80
1, 112560, Note_on_c, 1, 55, 70
1, 112583, Note_on_c, 0, 73, 0
1, 112583, Note_on_c, 1, 55, 0
1, 112584, Note_on_c, 0, 75, 80
1, 112584, Note_on_c, 1, 58, 70
1, 112607, Note_on_c, 0, 75, 0
1, 112607, Note_on_c, 1, 58, 0
1, 112608, Note_on_c, 0, 77, 96
1, 112608, Note_on_c, 1, 49, 70
1, 112631, Note_on_c, 1, 49, 0
1, 112632, Note_on_c, 1, 58, 70
1, 112655, Note_on_c, 1, 58, 0
1, 112656, Note_on_c, 1, 55, 70
1, 112679, Note_on_c, 1, 55, 0
1, 112680, Note_on_c, 1, 58, 70
1, 112703, Note_on_c, 1, 58, 0
1, 112704, Note_on_c, 1, 49, 70
1, 112727, Note_on_c, 1, 49, 0
1, 112728, Note_on_c, 1, 58, 70
1, 112751, Note_on_c, 1, 58, 0
1, 112752, Note_on_c, 0, 77, 0
1, 112752, Note_on_c, 0, 79, 80
1, 112752, Note_on_c, 1, 55, 70
1, 112764, Note_on_c, 0, 79, 0
1, 112764, Note_on_c, 0, 77, 80
1, 112775, Note_on_c, 1, 55, 0
1, 112776, Note_on_c, 0, 77, 0
1, 112776, Note_on_c, 0, 76, 80
1, 112776, Note_on_c, 1, 58, 70
1, 112788, Note_on_c, 0, 76, 0
1, 112788, Note_on_c, 0, 77, 80
1, 112799, Note_on_c, 1, 58, 0
1, 112800, Note_on_c, 0, 77, 0
1, 112800, Note_on_c, 0, 82, 80
1, 112800, Note_on_c, 1, 49, 70
1, 112823, Note_on_c, 1, 49, 0
1, 112824, Note_on_c, 1, 58, 70
1, 112847, Note_on_c, 1, 58, 0
1, 112848, Note_on_c, 1, 55, 70
1, 112867, Note_on_c, 0, 82, 0
1, 112871, Note_on_c, 1, 55, 0
1, 112872, Note_on_c, 0, 79, 80
1, 112872, Note_on_c, 1, 58, 70
1, 112895, Note_on_c, 0, 79, 0
1, 112895, Note_on_c, 1, 58, 0
1, 112896, Note_on_c, 0, 77, 80
1, 112896, Note_on_c, 1, 48, 70
1, 112919, Note_on_c, 1, 48, 0
1, 112920, Note_on_c, 1, 58, 70
1, 112943, Note_on_c, 1, 58, 0
1, 112944, Note_on_c, 1, 55, 70
1, 112967, Note_on_c, 1, 55, 0
1, 112968, Note_on_c, 1, 58, 70
1, 112985, Note_on_c, 0, 77, 0
1, 112991, Note_on_c, 1, 58, 0
1, 112992, Note_on_c, 0, 76, 80
1, 112992, Note_on_c, 1, 48, 70
1, 113006, Note_on_c, 0, 76, 0
1, 113007, Note_on_c, 0, 77, 80
1, 113015, Note_on_c, 1, 48, 0
1, 113016, Note_on_c, 1, 58, 70
1, 113021, Note_on_c, 0, 77, 0
1, 113022, Note_on_c, 0, 76, 80
1, 113036, Note_on_c, 0, 76, 0
1, 113037, Note_on_c, 0, 77, 80
1, 113039, Note_on_c, 1, 58, 0
1, 113040, Note_on_c, 1, 55, 70
1, 113051, Note_on_c, 0, 77, 0
1, 113052, Note_on_c, 0, 76, 80
1, 113063, Note_on_c, 1, 55, 0
1, 113064, Note_on_c, 1, 58, 70
1, 113066, Note_on_c, 0, 76, 0
1, 113067, Note_on_c, 0, 77, 80
1, 113081, Note_on_c, 0, 77, 0
1, 113082, Note_on_c, 0, 76, 80
1, 113087, Note_on_c, 1, 58, 0
1, 113088, Note_on_c, 1, 48, 70
1, 113096, Note_on_c, 0, 76, 0
1, 113097, Note_on_c, 0, 77, 80
1, 113111, Note_on_c, 0, 77, 0
1, 113111, Note_on_c, 1, 48, 0
1, 113112, Note_on_c, 0, 76, 80
1, 113112, Note_on_c, 1, 58, 70
1, 113126, Note_on_c, 0, 76, 0
1, 113127, Note_on_c, 0, 77, 80
1, 113135, Note_on_c, 1, 58, 0
1, 113136, Note_on_c, 1, 55, 70
1, 113141, Note_on_c, 0, 77, 0
1, 113142, Note_on_c, 0, 74, 80
1, 113155, Note_on_c, 0, 74, 0
1, 113156, Note_on_c, 0, 76, 80
1, 113159, Note_on_c, 1, 55, 0
1, 113160, Note_on_c, 1, 58, 70
1, 113169, Note_on_c, 0, 76, 0
1, 113170, Note_on_c, 0, 76, 80
1, 113183, Note_on_c, 0, 76, 0
1, 113183, Note_on_c, 1, 58, 0
1, 113184, Note_on_c, 0, 77, 80
1, 113184, Note_on_c, 1, 48, 70
1, 113203, Note_on_c, 0, 77, 0
1, 113207, Note_on_c, 1, 48, 0
1, 113208, Note_on_c, 0, 79, 80
1, 113208, Note_on_c, 1, 56, 70
1, 113220, Note_on_c, 0, 79, 0
1, 113220, Note_on_c, 0, 77, 80
1, 113231, Note_on_c, 1, 56, 0
1, 113232, Note_on_c, 0, 77, 0
1, 113232, Note_on_c, 0, 75, 80
1, 113232, Note_on_c, 1, 53, 70
1, 113244, Note_on_c, 0, 75, 0
1, 113244, Note_on_c, 0, 77, 80
1, 113255, Note_on_c, 1, 53, 0
1, 113256, Note_on_c, 0, 77, 0
1, 113256, Note_on_c, 0, 79, 80
1, 113256, Note_on_c, 1, 56, 70
1, 113279, Note_on_c, 0, 79, 0
1, 113279, Note_on_c, 1, 56, 0
1, 113280, Note_on_c, 0, 80, 80
1, 113280, Note_on_c, 1, 48, 70
1, 113303, Note_on_c, 1, 48, 0
1, 113304, Note_on_c, 1, 56, 70
1, 113325, Note_on_c, 0, 80, 0
1, 113327, Note_on_c, 1, 56, 0
1, 113328, Note_on_c, 1, 53, 70
1, 113351, Note_on_c, 1, 53, 0
1, 113352, Note_on_c, 0, 79, 80
1, 113352, Note_on_c, 1, 56, 70
1, 113375, Note_on_c, 0, 79, 0
1, 113375, Note_on_c, 1, 56, 0
1, 113376, Note_on_c, 0, 77, 80
1, 113376, Note_on_c, 1, 47, 70
1, 113400, Note_on_c, 1, 47, 0
1, 113400, Note_on_c, 1, 56, 70
1, 113421, Note_on_c, 0, 77, 0
1, 113423, Note_on_c, 1, 56, 0
1, 113424, Note_on_c, 1, 53, 70
1, 113447, Note_on_c, 1, 53, 0
1, 113448, Note_on_c, 0, 75, 80
1, 113448, Note_on_c, 1, 56, 70
1, 113471, Note_on_c, 0, 75, 0
1, 113471, Note_on_c, 1, 56, 0
1, 113472, Note_on_c, 0, 75, 80
1, 113472, Note_on_c, 1, 46, 70
1, 113495, Note_on_c, 1, 46, 0
1, 113496, Note_on_c, 1, 56, 70
1, 113519, Note_on_c, 1, 56, 0
1, 113520, Note_on_c, 1, 53, 70
1, 113543, Note_on_c, 1, 53, 0
1, 113544, Note_on_c, 1, 56, 70
1, 113561, Note_on_c, 0, 75, 0
1, 113567, Note_on_c, 1, 56, 0
1, 113568, Note_on_c, 0, 74, 80
1, 113568, Note_on_c, 1, 46, 70
1, 113581, Note_on_c, 0, 74, 0
1, 113582, Note_on_c, 0, 75, 80
1, 113591, Note_on_c, 1, 46, 0
1, 113592, Note_on_c, 1, 56, 70
1, 113595, Note_on_c, 0, 75, 0
1, 113596, Note_on_c, 0, 74, 80
1, 113609, Note_on_c, 0, 74, 0
1, 113610, Note_on_c, 0, 75, 80
1, 113615, Note_on_c, 1, 56, 0
1, 113616, Note_on_c, 1, 53, 70
1, 113623, Note_on_c, 0, 75, 0
1, 113624, Note_on_c, 0, 74, 80
1, 113637, Note_on_c, 0, 74, 0
1, 113638, Note_on_c, 0, 72, 80
1, 113639, Note_on_c, 1, 53, 0
1, 113640, Note_on_c, 1, 56, 70
1, 113650, Note_on_c, 0, 72, 0
1, 113651, Note_on_c, 0, 74, 80
1, 113663, Note_on_c, 0, 74, 0
1, 113663, Note_on_c, 1, 56, 0
1, 113664, Note_on_c, 0, 75, 80
1, 113664, Note_on_c, 1, 48, 70
1, 113687, Note_on_c, 1, 48, 0
1, 113688, Note_on_c, 1, 55, 70
1, 113711, Note_on_c, 1, 55, 0
1, 113712, Note_on_c, 1, 51, 70
1, 113735, Note_on_c, 1, 51, 0
1, 113736, Note_on_c, 1, 55, 70
1, 113753, Note_on_c, 0, 75, 0
1, 113759, Note_on_c, 1, 55, 0
1, 113760, Note_on_c, 0, 74, 75
1, 113760, Note_on_c, 1, 44, 70
1, 113783, Note_on_c, 0, 74, 0
1, 113784, Note_on_c, 0, 72, 75
1, 113807, Note_on_c, 0, 72, 0
1, 113808, Note_on_c, 0, 71, 75
1, 113831, Note_on_c, 0, 71, 0
1, 113832, Note_on_c, 0, 72, 75
1, 113849, Note_on_c, 1, 44, 0
1, 113855, Note_on_c, 0, 72, 0
1, 113856, Note_on_c, 0, 71, 75
1, 113879, Note_on_c, 0, 71, 0
1, 113880, Note_on_c, 0, 72, 75
1, 113903, Note_on_c, 0, 72, 0
1, 113904, Note_on_c, 0, 71, 75
1, 113927, Note_on_c, 0, 71, 0
1, 113928, Note_on_c, 0, 72, 75
1, 113951, Note_on_c, 0, 72, 0
1, 113952, Note_on_c, 0, 75, 75
1, 113997, Note_on_c, 0, 75, 0
1, 114000, Note_on_c, 0, 72, 75
1, 114045, Note_on_c, 0, 72, 0
1, 114048, Note_on_c, 0, 70, 75
1, 114048, Note_on_c, 1, 60, 75
1, 114048, Note_on_c, 1, 56, 75
1, 114071, Note_on_c, 0, 70, 0
1, 114072, Note_on_c, 0, 68, 75
1, 114095, Note_on_c, 0, 68, 0
1, 114096, Note_on_c, 0, 67, 75
1, 114119, Note_on_c, 0, 67, 0
1, 114120, Note_on_c, 0, 68, 75
1, 114137, Note_on_c, 1, 60, 0
1, 114137, Note_on_c, 1, 56, 0
1, 114143, Note_on_c, 0, 68, 0
1, 114144, Note_on_c, 0, 67, 75
1, 114167, Note_on_c, 0, 67, 0
1, 114168, Note_on_c, 0, 68, 75
1, 114191, Note_on_c, 0, 68, 0
1, 114192, Note_on_c, 0, 67, 75
1, 114215, Note_on_c, 0, 67, 0
1, 114216, Note_on_c, 0, 68, 75
1, 114239, Note_on_c, 0, 68, 0
1, 114240, Note_on_c, 0, 72, 75
1, 114285, Note_on_c, 0, 72, 0
1, 114288, Note_on_c, 0, 68, 75
1, 114333, Note_on_c, 0, 68, 0
1, 114336, Note_on_c, 0, 67, 75
1, 114359, Note_on_c, 0, 67, 0
1, 114360, Note_on_c, 0, 65, 75
1, 114383, Note_on_c, 0, 65, 0
1, 114384, Note_on_c, 0, 64, 75
1, 114407, Note_on_c, 0, 64, 0
1, 114408, Note_on_c, 0, 65, 75
1, 114431, Note_on_c, 0, 65, 0
1, 114432, Note_on_c, 0, 73, 75
1, 114455, Note_on_c, 0, 73, 0
1, 114456, Note_on_c, 0, 72, 75
1, 114479, Note_on_c, 0, 72, 0
1, 114480, Note_on_c, 0, 71, 75
1, 114503, Note_on_c, 0, 71, 0
1, 114504, Note_on_c, 0, 72, 75
1, 114527, Note_on_c, 0, 72, 0
1, 114528, Note_on_c, 0, 79, 75
1, 114551, Note_on_c, 0, 79, 0
1, 114552, Note_on_c, 0, 77, 75
1, 114575, Note_on_c, 0, 77, 0
1, 114576, Note_on_c, 0, 76, 75
1, 114599, Note_on_c, 0, 76, 0
1, 114600, Note_on_c, 0, 77, 75
1, 114623, Note_on_c, 0, 77, 0
1, 114624, Tempo, 500000
1, 114624, Note_on_c, 0, 83, 75
1, 114677, Note_on_c, 0, 83, 0
1, 114684, Note_on_c, 0, 84, 75
1, 114696, Note_on_c, 0, 84, 0
1, 114696, Note_on_c, 0, 83, 75
1, 114708, Note_on_c, 0, 83, 0
1, 114708, Note_on_c, 0, 81, 75
1, 114720, Note_on_c, 0, 81, 0
1, 114720, Note_on_c, 0, 83, 75
1, 114787, Note_on_c, 0, 83, 0
1, 114792, Note_on_c, 0, 86, 75
1, 114815, Note_on_c, 0, 86, 0
1, 114816, Note_on_c, 0, 84, 75
1, 114846, Note_on_c, 0, 84, 0
1, 114848, Note_on_c, 0, 80, 75
1, 114878, Note_on_c, 0, 80, 0
1, 114880, Note_on_c, 0, 77, 75
1, 114910, Note_on_c, 0, 77, 0
1, 114912, Note_on_c, 0, 75, 75
1, 114912, Note_on_c, 1, 67, 75
1, 114912, Note_on_c, 1, 58, 64
1, 115045, Note_on_c, 0, 75, 0
1, 115056, Note_on_c, 0, 77, 75
1, 115068, Note_on_c, 0, 77, 0
1, 115068, Note_on_c, 0, 75, 75
1, 115080, Note_on_c, 0, 75, 0
1, 115080, Note_on_c, 0, 74, 75
1, 115089, Note_on_c, 1, 67, 0
1, 115092, Note_on_c, 0, 74, 0
1, 115092, Note_on_c, 0, 75, 75
1, 115104, Tempo, 705882
1, 115104, Note_on_c, 0, 75, 0
1, 115104, Note_on_c, 0, 79, 75
1, 115104, Note_on_c, 0, 74, 80
1, 115104, Note_on_c, 1, 68, 75
1, 115171, Note_on_c, 0, 79, 0
1, 115176, Note_on_c, 0, 77, 75
1, 115193, Note_on_c, 0, 74, 0
1, 115193, Note_on_c, 1, 68, 0
1, 115193, Note_on_c, 1, 58, 0
1, 115199, Note_on_c, 0, 77, 0
1, 115200, Tempo, 444444
1, 115200, Note_on_c, 0, 75, 80
1, 115200, Note_on_c, 1, 51, 70
1, 115223, Note_on_c, 1, 51, 0
1, 115224, Note_on_c, 1, 58, 70
1, 115247, Note_on_c, 1, 58, 0
1, 115248, Note_on_c, 1, 55, 70
1, 115271, Note_on_c, 1, 55, 0
1, 115272, Note_on_c, 1, 58, 70
1, 115289, Note_on_c, 0, 75, 0
1, 115295, Note_on_c, 1, 58, 0
1, 115296, Note_on_c, 1, 51, 70
1, 115319, Note_on_c, 1, 51, 0
1, 115320, Note_on_c, 1, 58, 70
1, 115343, Note_on_c, 1, 58, 0
1, 115344, Note_on_c, 0, 70, 80
1, 115344, Note_on_c, 1, 55, 70
1, 115367, Note_on_c, 1, 55, 0
1, 115368, Note_on_c, 1, 58, 70
1, 115389, Note_on_c, 0, 70, 0
1, 115391, Note_on_c, 1, 58, 0
1, 115392, Note_on_c, 0, 75, 80
1, 115392, Note_on_c, 1, 51, 70
1, 115415, Note_on_c, 1, 51, 0
1, 115416, Note_on_c, 1, 58, 70
1, 115437, Note_on_c, 0, 75, 0
1, 115439, Note_on_c, 1, 58, 0
1, 115440, Note_on_c, 0, 79, 80
1, 115440, Note_on_c, 1, 55, 70
1, 115463, Note_on_c, 1, 55, 0
1, 115464, Note_on_c, 1, 58, 70
1, 115485, Note_on_c, 0, 79, 0
1, 115487, Note_on_c, 1, 58, 0
1, 115488, Note_on_c, 0, 74, 80
1, 115488, Note_on_c, 1, 50, 70
1, 115500, Note_on_c, 0, 74, 0
1, 115500, Note_on_c, 0, 77, 80
1, 115511, Note_on_c, 1, 50, 0
1, 115512, Note_on_c, 0, 77, 0
1, 115512, Note_on_c, 0, 80, 96
1, 115512, Note_on_c, 1, 58, 70
1, 115535, Note_on_c, 1, 58, 0
1, 115536, Note_on_c, 1, 53, 70
1, 115559, Note_on_c, 1, 53, 0
1, 115560, Note_on_c, 1, 58, 70
1, 115583, Note_on_c, 1, 58, 0
1, 115584, Note_on_c, 1, 50, 70
1, 115607, Note_on_c, 1, 50, 0
1, 115608, Note_on_c, 1, 58, 70
1, 115631, Note_on_c, 1, 58, 0
1, 115632, Note_on_c, 0, 80, 0
1, 115632, Note_on_c, 0, 77, 80
1, 115632, Note_on_c, 1, 53, 70
1, 115655, Note_on_c, 0, 77, 0
1, 115655, Note_on_c, 1, 53, 0
1, 115656, Note_on_c, 0, 74, 80
1, 115656, Note_on_c, 1, 58, 70
1, 115679, Note_on_c, 0, 74, 0
1, 115679, Note_on_c, 1, 58, 0
1, 115680, Note_on_c, 0, 70, 80
1, 115680, Note_on_c, 1, 50, 70
1, 115703, Note_on_c, 1, 50, 0
1, 115704, Note_on_c, 1, 58, 70
1, 115725, Note_on_c, 0, 70, 0
1, 115727, Note_on_c, 1, 58, 0
1, 115728, Note_on_c, 0, 68, 80
1, 115728, Note_on_c, 1, 53, 70
1, 115751, Note_on_c, 1, 53, 0
1, 115752, Note_on_c, 1, 58, 70
1, 115773, Note_on_c, 0, 68, 0
1, 115775, Note_on_c, 1, 58, 0
1, 115776, Note_on_c, 0, 67, 80
1, 115776, Note_on_c, 1, 51, 70
1, 115799, Note_on_c, 1, 51, 0
1, 115800, Note_on_c, 1, 58, 70
1, 115823, Note_on_c, 1, 58, 0
1, 115824, Note_on_c, 1, 55, 70
1, 115847, Note_on_c, 1, 55, 0
1, 115848, Note_on_c, 1, 58, 70
1, 115865, Note_on_c, 0, 67, 0
1, 115871, Note_on_c, 1, 58, 0
1, 115872, Note_on_c, 1, 51, 70
1, 115895, Note_on_c, 1, 51, 0
1, 115896, Note_on_c, 0, 70, 80
1, 115896, Note_on_c, 1, 58, 70
1, 115919, Note_on_c, 0, 70, 0
1, 115919, Note_on_c, 1, 58, 0
1, 115920, Note_on_c, 0, 75, 80
1, 115920, Note_on_c, 1, 55, 70
1, 115943, Note_on_c, 0, 75, 0
1, 115943, Note_on_c, 1, 55, 0
1, 115944, Note_on_c, 0, 79, 80
1, 115944, Note_on_c, 1, 58, 70
1, 115967, Note_on_c, 0, 79, 0
1, 115967, Note_on_c, 1, 58, 0
1, 115968, Note_on_c, 0, 82, 80
1, 115968, Note_on_c, 1, 51, 70
1, 115991, Note_on_c, 1, 51, 0
1, 115992, Note_on_c, 1, 58, 70
1, 116013, Note_on_c, 0, 82, 0
1, 116015, Note_on_c, 1, 58, 0
1, 116016, Note_on_c, 0, 82, 80
1, 116016, Note_on_c, 1, 55, 70
1, 116039, Note_on_c, 1, 55, 0
1, 116040, Note_on_c, 1, 58, 70
1, 116061, Note_on_c, 0, 82, 0
1, 116063, Note_on_c, 1, 58, 0
1, 116064, Note_on_c, 0, 80, 75
1, 116064, Note_on_c, 1, 50, 70
1, 116087, Note_on_c, 0, 80, 0
1, 116088, Note_on_c, 0, 82, 75
1, 116111, Note_on_c, 0, 82, 0
1, 116112, Note_on_c, 0, 80, 75
1, 116135, Note_on_c, 0, 80, 0
1, 116136, Note_on_c, 0, 79, 75
1, 116153, Note_on_c, 1, 50, 0
1, 116159, Note_on_c, 0, 79, 0
1, 116160, Note_on_c, 0, 77, 75
1, 116183, Note_on_c, 0, 77, 0
1, 116184, Note_on_c, 0, 75, 75
1, 116207, Note_on_c, 0, 75, 0
1, 116208, Note_on_c, 0, 74, 75
1, 116231, Note_on_c, 0, 74, 0
1, 116232, Note_on_c, 0, 72, 75
1, 116255, Note_on_c, 0, 72, 0
1, 116256, Note_on_c, 0, 70, 75
1, 116279, Note_on_c, 0, 70, 0
1, 116280, Note_on_c, 0, 68, 75
1, 116303, Note_on_c, 0, 68, 0
1, 116304, Note_on_c, 0, 67, 75
1, 116327, Note_on_c, 0, 67, 0
1, 116328, Note_on_c, 0, 65, 75
1, 116351, Note_on_c, 0, 65, 0
1, 116352, Note_on_c, 0, 63, 75
1, 116352, Note_on_c, 1, 51, 75
1, 116397, Note_on_c, 0, 63, 0
1, 116397, Note_on_c, 1, 51, 0
1, 116400, Note_on_c, 0, 79, 74
1, 116400, Note_on_c, 0, 75, 74
1, 116445, Note_on_c, 0, 79, 0
1, 116445, Note_on_c, 0, 75, 0
1, 116448, Note_on_c, 1, 58, 75
1, 116493, Note_on_c, 1, 58, 0
1, 116496, Note_on_c, 0, 77, 72
1, 116496, Note_on_c, 0, 74, 72
1, 116541, Note_on_c, 0, 77, 0
1, 116541, Note_on_c, 0, 74, 0
1, 116544, Note_on_c, 1, 60, 73
1, 116589, Note_on_c, 1, 60, 0
1, 116592, Note_on_c, 0, 75, 71
1, 116592, Note_on_c, 0, 72, 71
1, 116637, Note_on_c, 0, 75, 0
1, 116637, Note_on_c, 0, 72, 0
1, 116640, Note_on_c, 1, 55, 71
1, 116685, Note_on_c, 1, 55, 0
1, 116688, Note_on_c, 0, 73, 69
1, 116688, Note_on_c, 0, 70, 69
1, 116733, Note_on_c, 0, 73, 0
1, 116733, Note_on_c, 0, 70, 0
1, 116736, Note_on_c, 1, 56, 69
1, 116781, Note_on_c, 1, 56, 0
1, 116784, Note_on_c, 0, 72, 67
1, 116784, Note_on_c, 0, 68, 67
1, 116829, Note_on_c, 0, 72, 0
1, 116829, Note_on_c, 0, 68, 0
1, 116832, Note_on_c, 1, 64, 67
1, 116832, Note_on_c, 1, 60, 67
1, 116877, Note_on_c, 1, 64, 0
1, 116877, Note_on_c, 1, 60, 0
1, 116880, Note_on_c, 0, 70, 66
1, 116880, Note_on_c, 0, 67, 66
1, 116925, Note_on_c, 0, 70, 0
1, 116925, Note_on_c, 0, 67, 0
1, 116928, Note_on_c, 1, 61, 65
1, 116973, Note_on_c, 1, 61, 0
1, 116976, Note_on_c, 0, 68, 64
1, 116976, Note_on_c, 0, 65, 64
1, 117021, Note_on_c, 0, 68, 0
1, 117021, Note_on_c, 0, 65, 0
1, 117360, Note_on_c, 0, 68, 64
1, 117360, Note_on_c, 0, 65, 64
1, 117380, Note_on_c, 0, 68, 0
1, 117380, Note_on_c, 0, 65, 0
1, 117408, Note_on_c, 0, 68, 64
1, 117408, Note_on_c, 0, 65, 64
1, 117428, Note_on_c, 0, 68, 0
1, 117428, Note_on_c, 0, 65, 0
1, 117456, Note_on_c, 0, 68, 64
1, 117456, Note_on_c, 0, 65, 64
1, 117476, Note_on_c, 0, 68, 0
1, 117476, Note_on_c, 0, 65, 0
1, 117504, Note_on_c, 0, 68, 64
1, 117504, Note_on_c, 0, 65, 64
1, 117648, Note_on_c, 1, 61, 64
1, 117668, Note_on_c, 1, 61, 0
1, 117696, Note_on_c, 1, 61, 64
1, 117716, Note_on_c, 1, 61, 0
1, 117744, Note_on_c, 1, 61, 64
1, 117764, Note_on_c, 1, 61, 0
1, 117769, Note_on_c, 0, 68, 0
1, 117769, Note_on_c, 0, 65, 0
1, 117792, Note_on_c, 1, 61, 64
1, 117936, Note_on_c, 0, 67, 64
1, 117942, Note_on_c, 0, 67, 0
1, 117942, Note_on_c, 0, 68, 64
1, 117942, Note_on_c, 0, 65, 64
1, 117956, Note_on_c, 0, 68, 0
1, 117956, Note_on_c, 0, 65, 0
1, 117969, Note_on_c, 1, 61, 0
1, 117984, Note_on_c, 0, 67, 64
1, 117990, Note_on_c, 0, 67, 0
1, 117990, Note_on_c, 0, 68, 64
1, 117990, Note_on_c, 0, 65, 64
1, 118004, Note_on_c, 0, 68, 0
1, 118004, Note_on_c, 0, 65, 0
1, 118032, Note_on_c, 0, 67, 64
1, 118038, Note_on_c, 0, 67, 0
1, 118038, Note_on_c, 0, 68, 64
1, 118038, Note_on_c, 0, 65, 64
1, 118052, Note_on_c, 0, 68, 0
1, 118052, Note_on_c, 0, 65, 0
1, 118080, Note_on_c, 0, 67, 64
1, 118086, Note_on_c, 0, 67, 0
1, 118086, Note_on_c, 0, 68, 64
1, 118086, Note_on_c, 0, 65, 64
1, 118224, Note_on_c, 1, 48, 80
1, 118230, Note_on_c, 1, 48, 0
1, 118230, Note_on_c, 1, 49, 80
1, 118244, Note_on_c, 1, 49, 0
1, 118272, Note_on_c, 1, 48, 80
1, 118278, Note_on_c, 1, 48, 0
1, 118278, Note_on_c, 1, 49, 80
1, 118292, Note_on_c, 1, 49, 0
1, 118320, Note_on_c, 1, 48, 80
1, 118326, Note_on_c, 1, 48, 0
1, 118326, Note_on_c, 1, 49, 80
1, 118340, Note_on_c, 1, 49, 0
1, 118368, Note_on_c, 1, 48, 80
1, 118374, Note_on_c, 1, 48, 0
1, 118374, Note_on_c, 1, 49, 80
1, 118457, Note_on_c, 1, 49, 0
1, 118464, Note_on_c, 1, 48, 80
1, 118545, Note_on_c, 0, 68, 0
1, 118545, Note_on_c, 0, 65, 0
1, 118553, Note_on_c, 1, 48, 0
1, 118560, Note_on_c, 0, 69, 71
1, 118560, Note_on_c, 0, 66, 71
1, 118560, Note_on_c, 0, 63, 71
1, 118560, Note_on_c, 1, 47, 80
1, 118649, Note_on_c, 0, 69, 0
1, 118649, Note_on_c, 0, 66, 0
1, 118649, Note_on_c, 0, 63, 0
1, 118649, Note_on_c, 1, 47, 0
1, 118656, Note_on_c, 0, 70, 74
1, 118656, Note_on_c, 0, 67, 74
1, 118656, Note_on_c, 0, 63, 74
1, 118656, Note_on_c, 1, 55, 80
1, 118656, Note_on_c, 1, 51, 80
1, 118656, Note_on_c, 1, 46, 80
1, 118789, Note_on_c, 0, 70, 0
1, 118789, Note_on_c, 0, 67, 0
1, 118789, Note_on_c, 0, 63, 0
1, 118800, Note_on_c, 0, 72, 80
1, 118823, Note_on_c, 0, 72, 0
1, 118824, Note_on_c, 0, 70, 80
1, 118847, Note_on_c, 0, 70, 0
1, 118848, Note_on_c, 0, 68, 80
1, 118871, Note_on_c, 0, 68, 0
1, 118872, Note_on_c, 0, 67, 80
1, 118895, Note_on_c, 0, 67, 0
1, 118896, Note_on_c, 0, 65, 80
1, 118919, Note_on_c, 0, 65, 0
1, 118920, Note_on_c, 0, 63, 80
1, 118921, Note_on_c, 1, 55, 0
1, 118921, Note_on_c, 1, 51, 0
1, 118921, Note_on_c, 1, 46, 0
1, 118943, Note_on_c, 0, 63, 0
1, 118944, Tempo, 500000
1, 118944, Note_on_c, 0, 62, 80
1, 118944, Note_on_c, 1, 56, 80
1, 118944, Note_on_c, 1, 53, 80
1, 118944, Note_on_c, 1, 46, 80
1, 119041, Note_on_c, 0, 62, 0
1, 119052, Note_on_c, 0, 67, 80
1, 119064, Note_on_c, 0, 67, 0
1, 119064, Note_on_c, 0, 65, 80
1, 119076, Note_on_c, 0, 65, 0
1, 119076, Note_on_c, 0, 63, 80
1, 119088, Note_on_c, 0, 63, 0
1, 119088, Note_on_c, 0, 65, 80
1, 119133, Note_on_c, 0, 65, 0
1, 119136, Note_on_c, 0, 68, 80
1, 119181, Note_on_c, 0, 68, 0
1, 119184, Note_on_c, 0, 62, 80
1, 119209, Note_on_c, 1, 56, 0
1, 119209, Note_on_c, 1, 53, 0
1, 119209, Note_on_c, 1, 46, 0
1, 119229, Note_on_c, 0, 62, 0
1, 119232, Tempo, 444444
1, 119232, Note_on_c, 0, 63, 80
1, 119232, Note_on_c, 1, 51, 64
1, 119277, Note_on_c, 0, 63, 0
1, 119280, Note_on_c, 0, 58, 64
1, 119280, Note_on_c, 1, 55, 64
1, 119325, Note_on_c, 0, 58, 0
1, 119325, Note_on_c, 1, 55, 0
1, 119328, Note_on_c, 0, 59, 64
1, 119328, Note_on_c, 1, 56, 64
1, 119373, Note_on_c, 0, 59, 0
1, 119373, Note_on_c, 1, 56, 0
1, 119376, Note_on_c, 0, 60, 64
1, 119376, Note_on_c, 1, 57, 64
1, 119421, Note_on_c, 0, 60, 0
1, 119421, Note_on_c, 1, 57, 0
1, 119424, Note_on_c, 0, 61, 64
1, 119424, Note_on_c, 1, 58, 64
1, 119469, Note_on_c, 0, 61, 0
1, 119469, Note_on_c, 1, 58, 0
1, 119472, Note_on_c, 0, 62, 64
1, 119472, Note_on_c, 1, 59, 64
1, 119517, Note_on_c, 0, 62, 0
1, 119517, Note_on_c, 1, 59, 0
1, 119520, Note_on_c, 0, 63, 64
1, 119520, Note_on_c, 1, 60, 64
1, 119565, Note_on_c, 0, 63, 0
1, 119565, Note_on_c, 1, 60, 0
1, 119568, Note_on_c, 0, 64, 64
1, 119568, Note_on_c, 1, 58, 64
1, 119613, Note_on_c, 0, 64, 0
1, 119613, Note_on_c, 1, 58, 0
1, 119616, Note_on_c, 0, 65, 64
1, 119616, Note_on_c, 1, 56, 64
1, 119661, Note_on_c, 0, 65, 0
1, 119661, Note_on_c, 1, 56, 0
1, 119664, Note_on_c, 0, 67, 64
1, 119664, Note_on_c, 1, 55, 64
1, 119709, Note_on_c, 0, 67, 0
1, 119709, Note_on_c, 1, 55, 0
1, 119712, Note_on_c, 0, 68, 64
1, 119712, Note_on_c, 1, 53, 64
1, 119757, Note_on_c, 0, 68, 0
1, 119757, Note_on_c, 1, 53, 0
1, 119760, Note_on_c, 0, 62, 64
1, 119760, Note_on_c, 1, 56, 64
1, 119785, Note_on_c, 1, 51, 0
1, 119805, Note_on_c, 0, 62, 0
1, 119805, Note_on_c, 1, 56, 0
1, 119808, Note_on_c, 0, 63, 64
1, 119808, Note_on_c, 1, 55, 64
1, 119808, Note_on_c, 1, 51, 64
1, 119828, Note_on_c, 0, 63, 0
1, 119853, Note_on_c, 1, 55, 0
1, 119853, Note_on_c, 1, 51, 0
1, 119856, Note_on_c, 0, 70, 80
1, 119856, Note_on_c, 0, 67, 80
1, 119901, Note_on_c, 0, 70, 0
1, 119901, Note_on_c, 0, 67, 0
1, 119904, Note_on_c, 0, 72, 80
1, 119904, Note_on_c, 0, 68, 80
1, 119949, Note_on_c, 0, 72, 0
1, 119949, Note_on_c, 0, 68, 0
1, 119952, Note_on_c, 0, 70, 80
1, 119952, Note_on_c, 0, 67, 80
1, 119997, Note_on_c, 0, 70, 0
1, 119997, Note_on_c, 0, 67, 0
1, 120000, Note_on_c, 0, 68, 80
1, 120000, Note_on_c, 0, 65, 80
1, 120045, Note_on_c, 0, 68, 0
1, 120045, Note_on_c, 0, 65, 0
1, 120048, Note_on_c, 0, 67, 80
1, 120048, Note_on_c, 0, 63, 80
1, 120093, Note_on_c, 0, 67, 0
1, 120093, Note_on_c, 0, 63, 0
1, 120096, Note_on_c, 0, 65, 80
1, 120096, Note_on_c, 0, 62, 80
1, 120096, Note_on_c, 1, 58, 80
1, 120096, Note_on_c, 1, 46, 80
1, 120116, Note_on_c, 1, 58, 0
1, 120116, Note_on_c, 1, 46, 0
1, 120144, Note_on_c, 1, 57, 80
1, 120144, Note_on_c, 1, 45, 80
1, 120164, Note_on_c, 1, 57, 0
1, 120164, Note_on_c, 1, 45, 0
1, 120185, Note_on_c, 0, 65, 0
1, 120185, Note_on_c, 0, 62, 0
1, 120192, Note_on_c, 1, 56, 80
1, 120192, Note_on_c, 1, 44, 80
1, 120212, Note_on_c, 1, 56, 0
1, 120212, Note_on_c, 1, 44, 0
1, 120240, Note_on_c, 1, 55, 80
1, 120240, Note_on_c, 1, 43, 80
1, 120260, Note_on_c, 1, 55, 0
1, 120260, Note_on_c, 1, 43, 0
1, 120288, Note_on_c, 0, 74, 80
1, 120288, Note_on_c, 0, 68, 80
1, 120288, Note_on_c, 0, 65, 80
1, 120288, Note_on_c, 1, 53, 80
1, 120288, Note_on_c, 1, 41, 80
1, 120308, Note_on_c, 1, 53, 0
1, 120308, Note_on_c, 1, 41, 0
1, 120336, Note_on_c, 1, 58, 80
1, 120336, Note_on_c, 1, 46, 80
1, 120356, Note_on_c, 1, 58, 0
1, 120356, Note_on_c, 1, 46, 0
1, 120377, Note_on_c, 0, 74, 0
1, 120377, Note_on_c, 0, 68, 0
1, 120377, Note_on_c, 0, 65, 0
1, 120384, Note_on_c, 0, 75, 80
1, 120384, Note_on_c, 0, 70, 80
1, 120384, Note_on_c, 0, 67, 80
1, 120384, Note_on_c, 1, 51, 80
1, 120384, Note_on_c, 1, 39, 80
1, 120404, Note_on_c, 0, 75, 0
1, 120404, Note_on_c, 0, 70, 0
1, 120404, Note_on_c, 0, 67, 0
1, 120432, Note_on_c, 0, 82, 64
1, 120432, Note_on_c, 0, 79, 64
1, 120473, Note_on_c, 1, 51, 0
1, 120473, Note_on_c, 1, 39, 0
1, 120477, Note_on_c, 0, 82, 0
1, 120477, Note_on_c, 0, 79, 0
1, 120480, Note_on_c, 0, 84, 64
1, 120480, Note_on_c, 0, 80, 64
1, 120525, Note_on_c, 0, 84, 0
1, 120525, Note_on_c, 0, 80, 0
1, 120528, Note_on_c, 0, 82, 64
1, 120528, Note_on_c, 0, 79, 64
1, 120573, Note_on_c, 0, 82, 0
1, 120573, Note_on_c, 0, 79, 0
1, 120576, Note_on_c, 0, 80, 64
1, 120576, Note_on_c, 0, 77, 64
1, 120621, Note_on_c, 0, 80, 0
1, 120621, Note_on_c, 0, 77, 0
1, 120624, Note_on_c, 0, 79, 64
1, 120624, Note_on_c, 0, 75, 64
1, 120669, Note_on_c, 0, 79, 0
1, 120669, Note_on_c, 0, 75, 0
1, 120672, Note_on_c, 0, 77, 64
1, 120672, Note_on_c, 0, 74, 64
1, 120720, Note_on_c, 1, 70, 64
1, 120765, Note_on_c, 1, 70, 0
1, 120768, Note_on_c, 1, 72, 64
1, 120813, Note_on_c, 1, 72, 0
1, 120816, Note_on_c, 1, 70, 64
1, 120861, Note_on_c, 1, 70, 0
1, 120864, Note_on_c, 0, 77, 0
1, 120864, Note_on_c, 0, 74, 0
1, 120864, Note_on_c, 0, 79, 64
1, 120864, Note_on_c, 0, 75, 64
1, 120864, Note_on_c, 1, 68, 64
1, 120909, Note_on_c, 1, 68, 0
1, 120912, Note_on_c, 1, 67, 64
1, 120953, Note_on_c, 0, 79, 0
1, 120953, Note_on_c, 0, 75, 0
1, 120957, Note_on_c, 1, 67, 0
1, 120960, Note_on_c, 0, 80, 64
1, 120960, Note_on_c, 0, 77, 64
1, 120960, Note_on_c, 1, 65, 64
1, 121005, Note_on_c, 1, 65, 0
1, 121008, Note_on_c, 1, 68, 64
1, 121049, Note_on_c, 0, 80, 0
1, 121049, Note_on_c, 0, 77, 0
1, 121053, Note_on_c, 1, 68, 0
1, 121056, Note_on_c, 0, 75, 64
1, 121056, Note_on_c, 0, 72, 64
1, 121056, Note_on_c, 1, 70, 64
1, 121101, Note_on_c, 1, 70, 0
1, 121104, Note_on_c, 1, 68, 64
1, 121145, Note_on_c, 0, 75, 0
1, 121145, Note_on_c, 0, 72, 0
1, 121149, Note_on_c, 1, 68, 0
1, 121152, Note_on_c, 0, 77, 64
1, 121152, Note_on_c, 0, 74, 64
1, 121152, Note_on_c, 1, 67, 64
1, 121197, Note_on_c, 1, 67, 0
1, 121200, Note_on_c, 1, 65, 64
1, 121241, Note_on_c, 0, 77, 0
1, 121241, Note_on_c, 0, 74, 0
1, 121245, Note_on_c, 1, 65, 0
1, 121248, Note_on_c, 0, 79, 64
1, 121248, Note_on_c, 0, 75, 64
1, 121248, Note_on_c, 1, 63, 64
1, 121296, Note_on_c, 0, 79, 0
1, 121296, Note_on_c, 0, 75, 0
1, 121296, Note_on_c, 0, 77, 64
1, 121296, Note_on_c, 0, 74, 64
1, 121296, Note_on_c, 1, 63, 0
1, 121296, Note_on_c, 1, 70, 64
1, 121341, Note_on_c, 0, 77, 0
1, 121341, Note_on_c, 0, 74, 0
1, 121341, Note_on_c, 1, 70, 0
1, 121344, Note_on_c, 0, 80, 64
1, 121344, Note_on_c, 0, 75, 64
1, 121344, Note_on_c, 1, 72, 64
1, 121389, Note_on_c, 0, 80, 0
1, 121389, Note_on_c, 0, 75, 0
1, 121389, Note_on_c, 1, 72, 0
1, 121392, Note_on_c, 0, 79, 64
1, 121392, Note_on_c, 0, 74, 64
1, 121392, Note_on_c, 1, 70, 64
1, 121437, Note_on_c, 0, 79, 0
1, 121437, Note_on_c, 0, 74, 0
1, 121437, Note_on_c, 1, 70, 0
1, 121440, Note_on_c, 0, 77, 64
1, 121440, Note_on_c, 0, 72, 64
1, 121440, Note_on_c, 1, 68, 64
1, 121485, Note_on_c, 0, 77, 0
1, 121485, Note_on_c, 0, 72, 0
1, 121485, Note_on_c, 1, 68, 0
1, 121488, Note_on_c, 0, 75, 64
1, 121488, Note_on_c, 0, 70, 64
1, 121488, Note_on_c, 1, 67, 64
1, 121533, Note_on_c, 0, 75, 0
1, 121533, Note_on_c, 0, 70, 0
1, 121533, Note_on_c, 1, 67, 0
1, 121536, Note_on_c, 0, 74, 64
1, 121536, Note_on_c, 0, 68, 64
1, 121536, Note_on_c, 1, 65, 64
1, 121581, Note_on_c, 0, 74, 0
1, 121581, Note_on_c, 0, 68, 0
1, 121581, Note_on_c, 1, 65, 0
1, 121584, Note_on_c, 0, 72, 64
1, 121584, Note_on_c, 0, 67, 64
1, 121584, Note_on_c, 1, 63, 64
1, 121629, Note_on_c, 0, 72, 0
1, 121629, Note_on_c, 0, 67, 0
1, 121629, Note_on_c, 1, 63, 0
1, 121632, Tempo, 500000
1, 121632, Note_on_c, 0, 70, 64
1, 121632, Note_on_c, 0, 65, 64
1, 121632, Note_on_c, 1, 62, 64
1, 121680, Note_on_c, 1, 62, 0
1, 121680, Note_on_c, 1, 61, 64
1, 121721, Note_on_c, 0, 70, 0
1, 121721, Note_on_c, 0, 65, 0
1, 121725, Note_on_c, 1, 61, 0
1, 121728, Note_on_c, 0, 69, 64
1, 121728, Note_on_c, 0, 63, 64
1, 121728, Note_on_c, 1, 60, 64
1, 121776, Note_on_c, 1, 60, 0
1, 121776, Note_on_c, 1, 59, 64
1, 121817, Note_on_c, 0, 69, 0
1, 121817, Note_on_c, 0, 63, 0
1, 121821, Note_on_c, 1, 59, 0
1, 121824, Tempo, 1000000
1, 121824, Note_on_c, 0, 68, 64
1, 121824, Note_on_c, 0, 62, 64
1, 121824, Note_on_c, 1, 58, 64
1, 122001, Note_on_c, 0, 68, 0
1, 122001, Note_on_c, 0, 62, 0
1, 122001, Note_on_c, 1, 58, 0
1, 122064, Tempo, 444444
1, 122064, Note_on_c, 1, 46, 75
1, 122084, Note_on_c, 1, 46, 0
1, 122112, Note_on_c, 1, 51, 75
1, 122160, Note_on_c, 0, 63, 64
1, 122205, Note_on_c, 0, 63, 0
1, 122208, Note_on_c, 0, 67, 64
1, 122253, Note_on_c, 0, 67, 0
1, 122256, Note_on_c, 0, 63, 64
1, 122301, Note_on_c, 0, 63, 0
1, 122304, Note_on_c, 0, 68, 64
1, 122349, Note_on_c, 0, 68, 0
1, 122349, Note_on_c, 1, 51, 0
1, 122352, Note_on_c, 0, 58, 64
1, 122352, Note_on_c, 1, 50, 75
1, 122372, Note_on_c, 1, 50, 0
1, 122397, Note_on_c, 0, 58, 0
1, 122400, Note_on_c, 1, 56, 75
1, 122448, Note_on_c, 0, 70, 64
1, 122493, Note_on_c, 0, 70, 0
1, 122496, Note_on_c, 0, 74, 64
1, 122541, Note_on_c, 0, 74, 0
1, 122544, Note_on_c, 0, 70, 64
1, 122589, Note_on_c, 0, 70, 0
1, 122592, Note_on_c, 0, 75, 64
1, 122637, Note_on_c, 0, 75, 0
1, 122637, Note_on_c, 1, 56, 0
1, 122640, Note_on_c, 0, 63, 64
1, 122640, Note_on_c, 1, 55, 75
1, 122660, Note_on_c, 1, 55, 0
1, 122685, Note_on_c, 0, 63, 0
1, 122688, Note_on_c, 1, 61, 75
1, 122736, Note_on_c, 0, 75, 64
1, 122781, Note_on_c, 0, 75, 0
1, 122784, Note_on_c, 0, 79, 64
1, 122829, Note_on_c, 0, 79, 0
1, 122832, Note_on_c, 0, 75, 64
1, 122877, Note_on_c, 0, 75, 0
1, 122880, Note_on_c, 0, 80, 64
1, 122925, Note_on_c, 0, 80, 0
1, 122925, Note_on_c, 1, 61, 0
1, 122928, Note_on_c, 0, 68, 64
1, 122928, Note_on_c, 1, 60, 75
1, 122948, Note_on_c, 1, 60, 0
1, 122973, Note_on_c, 0, 68, 0
1, 122976, Note_on_c, 0, 81, 64
1, 123021, Note_on_c, 0, 81, 0
1, 123024, Note_on_c, 0, 69, 66
1, 123024, Note_on_c, 1, 65, 66
1, 123024, Note_on_c, 1, 63, 66
1, 123069, Note_on_c, 0, 69, 0
1, 123069, Note_on_c, 1, 65, 0
1, 123069, Note_on_c, 1, 63, 0
1, 123072, Note_on_c, 0, 82, 68
1, 123117, Note_on_c, 0, 82, 0
1, 123120, Note_on_c, 0, 70, 70
1, 123120, Note_on_c, 1, 65, 70
1, 123120, Note_on_c, 1, 62, 70
1, 123165, Note_on_c, 0, 70, 0
1, 123165, Note_on_c, 1, 65, 0
1, 123165, Note_on_c, 1, 62, 0
1, 123168, Note_on_c, 0, 83, 73
1, 123213, Note_on_c, 0, 83, 0
1, 123216, Note_on_c, 0, 71, 75
1, 123216, Note_on_c, 1, 67, 75
1, 123216, Note_on_c, 1, 65, 75
1, 123261, Note_on_c, 0, 71, 0
1, 123261, Note_on_c, 1, 67, 0
1, 123261, Note_on_c, 1, 65, 0
1, 123264, Note_on_c, 0, 84, 77
1, 123309, Note_on_c, 0, 84, 0
1, 123312, Note_on_c, 0, 72, 80
1, 123312, Note_on_c, 1, 67, 80
1, 123312, Note_on_c, 1, 63, 80
1, 123357, Note_on_c, 0, 72, 0
1, 123357, Note_on_c, 1, 67, 0
1, 123357, Note_on_c, 1, 63, 0
1, 123360, Note_on_c, 0, 86, 80
1, 123405, Note_on_c, 0, 86, 0
1, 123408, Note_on_c, 0, 74, 80
1, 123408, Note_on_c, 1, 70, 80
1, 123408, Note_on_c, 1, 68, 80
1, 123453, Note_on_c, 0, 74, 0
1, 123453, Note_on_c, 1, 70, 0
1, 123453, Note_on_c, 1, 68, 0
1, 123456, Note_on_c, 0, 87, 80
1, 123501, Note_on_c, 0, 87, 0
1, 123504, Note_on_c, 0, 75, 80
1, 123504, Note_on_c, 1, 70, 80
1, 123504, Note_on_c, 1, 67, 80
1, 123549, Note_on_c, 0, 75, 0
1, 123549, Note_on_c, 1, 70, 0
1, 123549, Note_on_c, 1, 67, 0
1, 123792, Note_on_c, 0, 60, 64
1, 123812, Note_on_c, 0, 60, 0
1, 123840, Note_on_c, 0, 72, 64
1, 123888, Note_on_c, 1, 44, 64
1, 123933, Note_on_c, 1, 44, 0
1, 123936, Note_on_c, 1, 56, 64
1, 123981, Note_on_c, 1, 56, 0
1, 123984, Note_on_c, 1, 53, 64
1, 124029, Note_on_c, 1, 53, 0
1, 124032, Note_on_c, 1, 58, 64
1, 124077, Note_on_c, 0, 72, 0
1, 124077, Note_on_c, 1, 58, 0
1, 124080, Note_on_c, 0, 62, 64
1, 124080, Note_on_c, 1, 46, 64
1, 124100, Note_on_c, 0, 62, 0
1, 124125, Note_on_c, 1, 46, 0
1, 124128, Note_on_c, 0, 63, 64
1, 124128, Note_on_c, 1, 51, 64
1, 124173, Note_on_c, 0, 63, 0
1, 124176, Note_on_c, 0, 70, 64
1, 124176, Note_on_c, 0, 67, 64
1, 124217, Note_on_c, 1, 51, 0
1, 124221, Note_on_c, 0, 70, 0
1, 124221, Note_on_c, 0, 67, 0
1, 124224, Note_on_c, 0, 72, 64
1, 124224, Note_on_c, 0, 68, 64
1, 124269, Note_on_c, 0, 72, 0
1, 124269, Note_on_c, 0, 68, 0
1, 124272, Note_on_c, 0, 70, 64
1, 124272, Note_on_c, 0, 67, 64
1, 124317, Note_on_c, 0, 70, 0
1, 124317, Note_on_c, 0, 67, 0
1, 124320, Note_on_c, 0, 68, 64
1, 124320, Note_on_c, 0, 65, 64
1, 124365, Note_on_c, 0, 68, 0
1, 124365, Note_on_c, 0, 65, 0
1, 124368, Note_on_c, 0, 67, 64
1, 124368, Note_on_c, 0, 63, 64
1, 124413, Note_on_c, 0, 67, 0
1, 124413, Note_on_c, 0, 63, 0
1, 124416, Note_on_c, 0, 65, 64
1, 124416, Note_on_c, 0, 62, 64
1, 124464, Note_on_c, 1, 58, 64
1, 124505, Note_on_c, 0, 65, 0
1, 124505, Note_on_c, 0, 62, 0
1, 124509, Note_on_c, 1, 58, 0
1, 124512, Note_on_c, 1, 57, 64
1, 124557, Note_on_c, 1, 57, 0
1, 124560, Note_on_c, 1, 58, 64
1, 124605, Note_on_c, 1, 58, 0
1, 124608, Note_on_c, 1, 56, 64
1, 124653, Note_on_c, 1, 56, 0
1, 124656, Note_on_c, 1, 53, 64
1, 124701, Note_on_c, 1, 53, 0
1, 124704, Note_on_c, 1, 51, 64
1, 124752, Note_on_c, 0, 58, 64
1, 124752, Note_on_c, 0, 55, 64
1, 124793, Note_on_c, 1, 51, 0
1, 124797, Note_on_c, 0, 58, 0
1, 124797, Note_on_c, 0, 55, 0
1, 124800, Note_on_c, 0, 60, 64
1, 124800, Note_on_c, 0, 56, 64
1, 124845, Note_on_c, 0, 60, 0
1, 124845, Note_on_c, 0, 56, 0
1, 124848, Note_on_c, 0, 58, 64
1, 124848, Note_on_c, 0, 55, 64
1, 124893, Note_on_c, 0, 58, 0
1, 124893, Note_on_c, 0, 55, 0
1, 124896, Note_on_c, 0, 56, 64
1, 124896, Note_on_c, 0, 53, 64
1, 124941, Note_on_c, 0, 56, 0
1, 124941, Note_on_c, 0, 53, 0
1, 124944, Note_on_c, 0, 55, 64
1, 124944, Note_on_c, 0, 51, 64
1, 124989, Note_on_c, 0, 55, 0
1, 124989, Note_on_c, 0, 51, 0
1, 124992, Note_on_c, 0, 53, 64
1, 124992, Note_on_c, 0, 50, 64
1, 125040, Note_on_c, 1, 34, 64
1, 125081, Note_on_c, 0, 53, 0
1, 125081, Note_on_c, 0, 50, 0
1, 125085, Note_on_c, 1, 34, 0
1, 125088, Note_on_c, 1, 35, 64
1, 125133, Note_on_c, 1, 35, 0
1, 125136, Note_on_c, 1, 36, 64
1, 125181, Note_on_c, 1, 36, 0
1, 125184, Note_on_c, 1, 37, 64
1, 125229, Note_on_c, 1, 37, 0
1, 125232, Note_on_c, 1, 38, 64
1, 125277, Note_on_c, 1, 38, 0
1, 125280, Note_on_c, 1, 39, 64
1, 125328, Note_on_c, 0, 51, 64
1, 125369, Note_on_c, 1, 39, 0
1, 125373, Note_on_c, 0, 51, 0
1, 125376, Note_on_c, 0, 52, 64
1, 125421, Note_on_c, 0, 52, 0
1, 125424, Note_on_c, 0, 53, 64
1, 125469, Note_on_c, 0, 53, 0
1, 125472, Note_on_c, 0, 54, 64
1, 125517, Note_on_c, 0, 54, 0
1, 125520, Note_on_c, 0, 55, 64
1, 125565, Note_on_c, 0, 55, 0
1, 125568, Note_on_c, 0, 56, 64
1, 125616, Note_on_c, 1, 48, 64
1, 125661, Note_on_c, 1, 48, 0
1, 125664, Note_on_c, 1, 51, 64
1, 125709, Note_on_c, 1, 51, 0
1, 125712, Note_on_c, 1, 48, 64
1, 125757, Note_on_c, 1, 48, 0
1, 125760, Note_on_c, 1, 46, 64
1, 125805, Note_on_c, 0, 56, 0
1, 125805, Note_on_c, 1, 46, 0
1, 125808, Note_on_c, 0, 55, 64
1, 125808, Note_on_c, 1, 51, 64
1, 125828, Note_on_c, 0, 55, 0
1, 125853, Note_on_c, 1, 51, 0
1, 125856, Note_on_c, 0, 60, 64
1, 125904, Note_on_c, 1, 44, 64
1, 125949, Note_on_c, 1, 44, 0
1, 125952, Note_on_c, 1, 51, 64
1, 125997, Note_on_c, 1, 51, 0
1, 126000, Note_on_c, 1, 44, 64
1, 126045, Note_on_c, 1, 44, 0
1, 126048, Note_on_c, 1, 43, 64
1, 126093, Note_on_c, 0, 60, 0
1, 126093, Note_on_c, 1, 43, 0
1, 126096, Note_on_c, 0, 58, 64
1, 126096, Note_on_c, 1, 51, 64
1, 126116, Note_on_c, 0, 58, 0
1, 126141, Note_on_c, 1, 51, 0
1, 126144, Note_on_c, 0, 68, 80
1, 126144, Note_on_c, 0, 65, 80
1, 126144, Note_on_c, 0, 58, 80
1, 126192, Note_on_c, 1, 38, 80
1, 126237, Note_on_c, 1, 38, 0
1, 126240, Note_on_c, 1, 50, 80
1, 126285, Note_on_c, 1, 50, 0
1, 126288, Note_on_c, 1, 38, 80
1, 126333, Note_on_c, 1, 38, 0
1, 126336, Note_on_c, 0, 58, 0
1, 126336, Note_on_c, 1, 39, 80
1, 126381, Note_on_c, 0, 68, 0
1, 126381, Note_on_c, 0, 65, 0
1, 126381, Note_on_c, 1, 39, 0
1, 126384, Note_on_c, 0, 67, 64
1, 126384, Note_on_c, 0, 63, 64
1, 126384, Note_on_c, 1, 51, 80
1, 126429, Note_on_c, 0, 67, 0
1, 126429, Note_on_c, 0, 63, 0
1, 126429, Note_on_c, 1, 51, 0
1, 126432, Note_on_c, 1, 56, 64
1, 126432, Note_on_c, 1, 44, 64
1, 126477, Note_on_c, 1, 56, 0
1, 126477, Note_on_c, 1, 44, 0
1, 126480, Note_on_c, 0, 65, 64
1, 126480, Note_on_c, 0, 60, 64
1, 126525, Note_on_c, 0, 65, 0
1, 126525, Note_on_c, 0, 60, 0
1, 126528, Note_on_c, 1, 55, 64
1, 126528, Note_on_c, 1, 46, 64
1, 126573, Note_on_c, 1, 55, 0
1, 126573, Note_on_c, 1, 46, 0
1, 126576, Note_on_c, 0, 63, 64
1, 126576, Note_on_c, 0, 58, 64
1, 126621, Note_on_c, 0, 63, 0
1, 126621, Note_on_c, 0, 58, 0
1, 126624, Note_on_c, 1, 53, 64
1, 126624, Note_on_c, 1, 46, 64
1, 126669, Note_on_c, 1, 53, 0
1, 126669, Note_on_c, 1, 46, 0
1, 126672, Note_on_c, 0, 62, 64
1, 126672, Note_on_c, 0, 56, 64
1, 126717, Note_on_c, 0, 62, 0
1, 126717, Note_on_c, 0, 56, 0
1, 126720, Note_on_c, 0, 68, 80
1, 126720, Note_on_c, 0, 65, 80
1, 126720, Note_on_c, 0, 58, 80
1, 126768, Note_on_c, 1, 38, 80
1, 126813, Note_on_c, 1, 38, 0
1, 126816, Note_on_c, 1, 50, 80
1, 126861, Note_on_c, 1, 50, 0
1, 126864, Note_on_c, 1, 38, 80
1, 126909, Note_on_c, 1, 38, 0
1, 126912, Note_on_c, 0, 58, 0
1, 126912, Note_on_c, 1, 39, 80
1, 126957, Note_on_c, 0, 68, 0
1, 126957, Note_on_c, 0, 65, 0
1, 126957, Note_on_c, 1, 39, 0
1, 126960, Note_on_c, 0, 67, 64
1, 126960, Note_on_c, 0, 63, 64
1, 126960, Note_on_c, 1, 51, 80
1, 127005, Note_on_c, 0, 67, 0
1, 127005, Note_on_c, 0, 63, 0
1, 127005, Note_on_c, 1, 51, 0
1, 127008, Note_on_c, 1, 56, 64
1, 127008, Note_on_c, 1, 44, 64
1, 127053, Note_on_c, 1, 56, 0
1, 127053, Note_on_c, 1, 44, 0
1, 127056, Note_on_c, 0, 65, 64
1, 127056, Note_on_c, 0, 60, 64
1, 127101, Note_on_c, 0, 65, 0
1, 127101, Note_on_c, 0, 60, 0
1, 127104, Note_on_c, 1, 55, 64
1, 127104, Note_on_c, 1, 46, 64
1, 127149, Note_on_c, 1, 55, 0
1, 127149, Note_on_c, 1, 46, 0
1, 127152, Note_on_c, 0, 63, 64
1, 127152, Note_on_c, 0, 58, 64
1, 127197, Note_on_c, 0, 63, 0
1, 127197, Note_on_c, 0, 58, 0
1, 127200, Note_on_c, 1, 53, 64
1, 127200, Note_on_c, 1, 46, 64
1, 127245, Note_on_c, 1, 53, 0
1, 127245, Note_on_c, 1, 46, 0
1, 127248, Note_on_c, 0, 62, 64
1, 127248, Note_on_c, 0, 56, 64
1, 127293, Note_on_c, 0, 62, 0
1, 127293, Note_on_c, 0, 56, 0
1, 127296, Note_on_c, 1, 55, 64
1, 127296, Note_on_c, 1, 51, 64
1, 127344, Note_on_c, 0, 70, 64
1, 127344, Note_on_c, 0, 67, 64
1, 127385, Note_on_c, 1, 55, 0
1, 127385, Note_on_c, 1, 51, 0
1, 127389, Note_on_c, 0, 70, 0
1, 127389, Note_on_c, 0, 67, 0
1, 127392, Note_on_c, 0, 72, 64
1, 127392, Note_on_c, 0, 68, 64
1, 127437, Note_on_c, 0, 72, 0
1, 127437, Note_on_c, 0, 68, 0
1, 127440, Note_on_c, 0, 70, 64
1, 127440, Note_on_c, 0, 67, 64
1, 127485, Note_on_c, 0, 70, 0
1, 127485, Note_on_c, 0, 67, 0
1, 127488, Note_on_c, 0, 68, 64
1, 127488, Note_on_c, 0, 65, 64
1, 127533, Note_on_c, 0, 68, 0
1, 127533, Note_on_c, 0, 65, 0
1, 127536, Note_on_c, 0, 67, 64
1, 127536, Note_on_c, 0, 63, 64
1, 127581, Note_on_c, 0, 67, 0
1, 127581, Note_on_c, 0, 63, 0
1, 127584, Note_on_c, 1, 65, 64
1, 127584, Note_on_c, 1, 62, 64
1, 127584, Note_on_c, 1, 58, 64
1, 127584, Note_on_c, 1, 56, 64
1, 127632, Note_on_c, 0, 82, 64
1, 127677, Note_on_c, 0, 82, 0
1, 127680, Note_on_c, 0, 83, 64
1, 127725, Note_on_c, 0, 83, 0
1, 127728, Note_on_c, 0, 84, 64
1, 127773, Note_on_c, 0, 84, 0
1, 127776, Note_on_c, 0, 85, 64
1, 127821, Note_on_c, 0, 85, 0
1, 127824, Note_on_c, 0, 86, 64
1, 127849, Note_on_c, 1, 65, 0
1, 127849, Note_on_c, 1, 62, 0
1, 127849, Note_on_c, 1, 58, 0
1, 127849, Note_on_c, 1, 56, 0
1, 127869, Note_on_c, 0, 86, 0
1, 127872, Note_on_c, 0, 87, 64
1, 127872, Note_on_c, 1, 63, 64
1, 127872, Note_on_c, 1, 58, 64
1, 127872, Note_on_c, 1, 55, 64
1, 127917, Note_on_c, 0, 87, 0
1, 127920, Note_on_c, 0, 70, 64
1, 127920, Note_on_c, 0, 67, 64
1, 127961, Note_on_c, 1, 63, 0
1, 127961, Note_on_c, 1, 58, 0
1, 127961, Note_on_c, 1, 55, 0
1, 127965, Note_on_c, 0, 70, 0
1, 127965, Note_on_c, 0, 67, 0
1, 127968, Note_on_c, 0, 72, 64
1, 127968, Note_on_c, 0, 68, 64
1, 128013, Note_on_c, 0, 72, 0
1, 128013, Note_on_c, 0, 68, 0
1, 128016, Note_on_c, 0, 70, 64
1, 128016, Note_on_c, 0, 67, 64
1, 128061, Note_on_c, 0, 70, 0
1, 128061, Note_on_c, 0, 67, 0
1, 128064, Note_on_c, 0, 68, 64
1, 128064, Note_on_c, 0, 65, 64
1, 128109, Note_on_c, 0, 68, 0
1, 128109, Note_on_c, 0, 65, 0
1, 128112, Note_on_c, 0, 67, 64
1, 128112, Note_on_c, 0, 63, 64
1, 128157, Note_on_c, 0, 67, 0
1, 128157, Note_on_c, 0, 63, 0
1, 128160, Note_on_c, 0, 58, 80
1, 128160, Note_on_c, 1, 56, 80
1, 128160, Note_on_c, 1, 53, 80
1, 128160, Note_on_c, 1, 50, 80
1, 128160, Note_on_c, 1, 46, 80
1, 128279, Note_on_c, 0, 58, 0
1, 128280, Note_on_c, 0, 60, 80
1, 128303, Note_on_c, 0, 60, 0
1, 128304, Note_on_c, 0, 62, 80
1, 128327, Note_on_c, 0, 62, 0
1, 128328, Note_on_c, 0, 63, 80
1, 128351, Note_on_c, 0, 63, 0
1, 128352, Note_on_c, 0, 65, 80
1, 128364, Note_on_c, 0, 65, 0
1, 128364, Note_on_c, 0, 67, 80
1, 128376, Note_on_c, 0, 67, 0
1, 128376, Note_on_c, 0, 68, 80
1, 128388, Note_on_c, 0, 68, 0
1, 128388, Note_on_c, 0, 70, 80
1, 128400, Note_on_c, 0, 70, 0
1, 128400, Note_on_c, 0, 72, 80
1, 128412, Note_on_c, 0, 72, 0
1, 128412, Note_on_c, 0, 74, 80
1, 128424, Note_on_c, 0, 74, 0
1, 128424, Note_on_c, 0, 75, 80
1, 128425, Note_on_c, 1, 56, 0
1, 128425, Note_on_c, 1, 53, 0
1, 128425, Note_on_c, 1, 50, 0
1, 128425, Note_on_c, 1, 46, 0
1, 128436, Note_on_c, 0, 75, 0
1, 128436, Note_on_c, 0, 77, 80
1, 128448, Note_on_c, 0, 77, 0
1, 128448, Note_on_c, 0, 79, 80
1, 128448, Note_on_c, 1, 51, 80
1, 128448, Note_on_c, 1, 46, 80
1, 128448, Note_on_c, 1, 43, 80
1, 128448, Note_on_c, 1, 39, 80
1, 128537, Note_on_c, 0, 79, 0
1, 128537, Note_on_c, 1, 51, 0
1, 128537, Note_on_c, 1, 46, 0
1, 128537, Note_on_c, 1, 43, 0
1, 128537, Note_on_c, 1, 39, 0
1, 128640, Note_on_c, 1, 39, 0
1, 128729, Note_on_c, 1, 39, 0
1, 128739, End_track
0, 0, End_of_file