0, 0, Header, 0, 1, 96
1, 0, Start_track
1, 0, Tempo, 1333333
1, 0, Note_on_c, 0, 66, 70
1, 0, Note_on_c, 0, 62, 70
1, 0, Note_on_c, 1, 47, 58
1, 20, Note_on_c, 1, 47, 0
1, 48, Note_on_c, 1, 50, 58
1, 68, Note_on_c, 1, 50, 0
1, 89, Note_on_c, 0, 66, 0
1, 89, Note_on_c, 0, 62, 0
1, 96, Note_on_c, 0, 66, 70
1, 96, Note_on_c, 0, 62, 70
1, 96, Note_on_c, 1, 54, 58
1, 116, Note_on_c, 1, 54, 0
1, 144, Note_on_c, 1, 59, 58
1, 164, Note_on_c, 1, 59, 0
1, 192, Note_on_c, 1, 54, 58
1, 212, Note_on_c, 1, 54, 0
1, 240, Note_on_c, 1, 50, 58
1, 251, Note_on_c, 0, 66, 0
1, 251, Note_on_c, 0, 62, 0
1, 260, Note_on_c, 1, 50, 0
1, 264, Note_on_c, 0, 71, 75
1, 287, Note_on_c, 0, 71, 0
1, 288, Note_on_c, 0, 69, 74
1, 288, Note_on_c, 0, 66, 74
1, 288, Note_on_c, 1, 47, 58
1, 308, Note_on_c, 1, 47, 0
1, 336, Note_on_c, 0, 69, 0
1, 336, Note_on_c, 0, 66, 0
1, 336, Note_on_c, 0, 67, 73
1, 336, Note_on_c, 0, 64, 73
1, 336, Note_on_c, 1, 52, 58
1, 356, Note_on_c, 1, 52, 0
1, 381, Note_on_c, 0, 67, 0
1, 381, Note_on_c, 0, 64, 0
1, 384, Note_on_c, 0, 67, 72
1, 384, Note_on_c, 0, 64, 72
1, 384, Note_on_c, 1, 55, 58
1, 404, Note_on_c, 1, 55, 0
1, 432, Note_on_c, 1, 59, 58
1, 452, Note_on_c, 1, 59, 0
1, 480, Note_on_c, 1, 55, 58
1, 500, Note_on_c, 1, 55, 0
1, 517, Note_on_c, 0, 67, 0
1, 517, Note_on_c, 0, 64, 0
1, 528, Note_on_c, 1, 52, 58
1, 548, Note_on_c, 1, 52, 0
1, 576, Note_on_c, 0, 64, 70
1, 576, Note_on_c, 0, 61, 70
1, 576, Note_on_c, 1, 46, 58
1, 596, Note_on_c, 1, 46, 0
1, 624, Note_on_c, 1, 49, 58
1, 644, Note_on_c, 1, 49, 0
1, 665, Note_on_c, 0, 64, 0
1, 665, Note_on_c, 0, 61, 0
1, 672, Note_on_c, 0, 73, 71
1, 672, Note_on_c, 0, 70, 71
1, 672, Note_on_c, 1, 52, 58
1, 692, Note_on_c, 1, 52, 0
1, 720, Note_on_c, 1, 55, 58
1, 740, Note_on_c, 1, 55, 0
1, 768, Note_on_c, 1, 52, 58
1, 788, Note_on_c, 1, 52, 0
1, 816, Note_on_c, 1, 49, 58
1, 827, Note_on_c, 0, 73, 0
1, 827, Note_on_c, 0, 70, 0
1, 836, Note_on_c, 1, 49, 0
1, 840, Note_on_c, 0, 64, 75
1, 840, Note_on_c, 0, 61, 75
1, 863, Note_on_c, 0, 64, 0
1, 863, Note_on_c, 0, 61, 0
1, 864, Note_on_c, 0, 64, 90
1, 864, Note_on_c, 0, 61, 90
1, 864, Note_on_c, 1, 47, 58
1, 884, Note_on_c, 1, 47, 0
1, 912, Note_on_c, 0, 64, 0
1, 912, Note_on_c, 0, 61, 0
1, 912, Note_on_c, 0, 62, 72
1, 912, Note_on_c, 0, 59, 72
1, 912, Note_on_c, 1, 50, 58
1, 932, Note_on_c, 1, 50, 0
1, 946, Note_on_c, 0, 62, 0
1, 946, Note_on_c, 0, 59, 0
1, 948, Note_on_c, 0, 61, 70
1, 948, Note_on_c, 0, 58, 70
1, 960, Note_on_c, 0, 61, 0
1, 960, Note_on_c, 0, 58, 0
1, 960, Note_on_c, 0, 62, 70
1, 960, Note_on_c, 0, 59, 70
1, 960, Note_on_c, 1, 54, 58
1, 980, Note_on_c, 1, 54, 0
1, 1008, Note_on_c, 1, 59, 58
1, 1028, Note_on_c, 1, 59, 0
1, 1056, Note_on_c, 1, 54, 58
1, 1076, Note_on_c, 1, 54, 0
1, 1093, Note_on_c, 0, 62, 0
1, 1093, Note_on_c, 0, 59, 0
1, 1104, Note_on_c, 1, 50, 58
1, 1124, Note_on_c, 1, 50, 0
1, 1152, Note_on_c, 1, 72, 80
1, 1152, Note_on_c, 1, 67, 80
1, 1152, Note_on_c, 1, 64, 80
1, 1152, Note_on_c, 1, 60, 80
1, 1152, Note_on_c, 1, 48, 80
1, 1200, Note_on_c, 0, 79, 70
1, 1245, Note_on_c, 0, 79, 0
1, 1248, Note_on_c, 0, 76, 70
1, 1248, Note_on_c, 1, 72, 0
1, 1248, Note_on_c, 1, 67, 0
1, 1248, Note_on_c, 1, 64, 0
1, 1248, Note_on_c, 1, 60, 0
1, 1248, Note_on_c, 1, 48, 0
1, 1293, Note_on_c, 0, 76, 0
1, 1296, Note_on_c, 0, 70, 70
1, 1296, Note_on_c, 0, 66, 70
1, 1296, Note_on_c, 0, 61, 70
1, 1296, Note_on_c, 1, 52, 64
1, 1296, Note_on_c, 1, 40, 64
1, 1344, Note_on_c, 0, 70, 0
1, 1344, Note_on_c, 0, 61, 0
1, 1344, Note_on_c, 0, 71, 70
1, 1344, Note_on_c, 0, 62, 70
1, 1344, Note_on_c, 1, 52, 0
1, 1344, Note_on_c, 1, 40, 0
1, 1344, Note_on_c, 1, 50, 64
1, 1344, Note_on_c, 1, 38, 64
1, 1389, Note_on_c, 0, 71, 0
1, 1389, Note_on_c, 0, 66, 0
1, 1389, Note_on_c, 0, 62, 0
1, 1392, Note_on_c, 0, 78, 70
1, 1433, Note_on_c, 1, 50, 0
1, 1433, Note_on_c, 1, 38, 0
1, 1437, Note_on_c, 0, 78, 0
1, 1440, Note_on_c, 1, 65, 64
1, 1440, Note_on_c, 1, 62, 64
1, 1440, Note_on_c, 1, 58, 64
1, 1488, Note_on_c, 0, 77, 70
1, 1529, Note_on_c, 1, 65, 0
1, 1529, Note_on_c, 1, 62, 0
1, 1529, Note_on_c, 1, 58, 0
1, 1533, Note_on_c, 0, 77, 0
1, 1536, Note_on_c, 0, 74, 70
1, 1581, Note_on_c, 0, 74, 0
1, 1584, Note_on_c, 0, 68, 70
1, 1584, Note_on_c, 1, 64, 64
1, 1584, Note_on_c, 1, 62, 64
1, 1632, Note_on_c, 0, 68, 0
1, 1632, Note_on_c, 0, 69, 70
1, 1632, Note_on_c, 1, 62, 0
1, 1632, Note_on_c, 1, 60, 64
1, 1677, Note_on_c, 0, 69, 0
1, 1680, Note_on_c, 0, 76, 70
1, 1721, Note_on_c, 1, 64, 0
1, 1721, Note_on_c, 1, 60, 0
1, 1725, Note_on_c, 0, 76, 0
1, 1728, Note_on_c, 0, 72, 70
1, 1728, Note_on_c, 0, 69, 70
1, 1728, Note_on_c, 1, 51, 64
1, 1773, Note_on_c, 1, 51, 0
1, 1776, Note_on_c, 1, 63, 64
1, 1795, Note_on_c, 0, 72, 0
1, 1795, Note_on_c, 0, 69, 0
1, 1800, Note_on_c, 0, 72, 70
1, 1800, Note_on_c, 0, 69, 70
1, 1821, Note_on_c, 1, 63, 0
1, 1823, Note_on_c, 0, 72, 0
1, 1823, Note_on_c, 0, 69, 0
1, 1824, Note_on_c, 0, 71, 70
1, 1824, Note_on_c, 0, 68, 70
1, 1869, Note_on_c, 0, 71, 0
1, 1869, Note_on_c, 0, 68, 0
1, 1872, Note_on_c, 1, 64, 64
1, 1896, Note_on_c, 0, 71, 70
1, 1896, Note_on_c, 0, 68, 70
1, 1917, Note_on_c, 1, 64, 0
1, 1919, Note_on_c, 0, 71, 0
1, 1919, Note_on_c, 0, 68, 0
1, 1920, Note_on_c, 0, 74, 71
1, 1920, Note_on_c, 0, 71, 71
1, 1968, Note_on_c, 1, 65, 64
1, 1987, Note_on_c, 0, 74, 0
1, 1987, Note_on_c, 0, 71, 0
1, 1992, Note_on_c, 0, 74, 74
1, 1992, Note_on_c, 0, 71, 74
1, 2013, Note_on_c, 1, 65, 0
1, 2015, Note_on_c, 0, 74, 0
1, 2015, Note_on_c, 0, 71, 0
1, 2016, Note_on_c, 0, 76, 75
1, 2016, Note_on_c, 0, 73, 75
1, 2064, Note_on_c, 0, 76, 0
1, 2064, Note_on_c, 0, 73, 0
1, 2064, Note_on_c, 0, 74, 73
1, 2064, Note_on_c, 0, 71, 73
1, 2064, Note_on_c, 1, 66, 64
1, 2109, Note_on_c, 0, 74, 0
1, 2109, Note_on_c, 0, 71, 0
1, 2109, Note_on_c, 1, 66, 0
1, 2112, Note_on_c, 0, 73, 71
1, 2112, Note_on_c, 0, 70, 71
1, 2112, Note_on_c, 1, 54, 62
1, 2157, Note_on_c, 0, 73, 0
1, 2157, Note_on_c, 0, 70, 0
1, 2157, Note_on_c, 1, 54, 0
1, 2160, Note_on_c, 1, 55, 61
1, 2160, Note_on_c, 1, 52, 61
1, 2205, Note_on_c, 1, 55, 0
1, 2205, Note_on_c, 1, 52, 0
1, 2208, Note_on_c, 1, 54, 60
1, 2208, Note_on_c, 1, 50, 60
1, 2253, Note_on_c, 1, 54, 0
1, 2253, Note_on_c, 1, 50, 0
1, 2256, Note_on_c, 1, 52, 59
1, 2256, Note_on_c, 1, 49, 59
1, 2301, Note_on_c, 1, 52, 0
1, 2301, Note_on_c, 1, 49, 0
1, 2304, Note_on_c, 0, 62, 70
1, 2304, Note_on_c, 1, 50, 58
1, 2304, Note_on_c, 1, 47, 58
1, 2349, Note_on_c, 0, 62, 0
1, 2352, Note_on_c, 0, 66, 70
1, 2393, Note_on_c, 1, 50, 0
1, 2393, Note_on_c, 1, 47, 0
1, 2397, Note_on_c, 0, 66, 0
1, 2400, Note_on_c, 0, 71, 71
1, 2400, Note_on_c, 1, 50, 58
1, 2400, Note_on_c, 1, 47, 58
1, 2445, Note_on_c, 0, 71, 0
1, 2448, Note_on_c, 0, 74, 72
1, 2489, Note_on_c, 1, 50, 0
1, 2489, Note_on_c, 1, 47, 0
1, 2493, Note_on_c, 0, 74, 0
1, 2496, Note_on_c, 0, 71, 73
1, 2496, Note_on_c, 1, 50, 58
1, 2496, Note_on_c, 1, 44, 58
1, 2544, Note_on_c, 0, 71, 0
1, 2544, Note_on_c, 0, 72, 74
1, 2544, Note_on_c, 1, 50, 0
1, 2544, Note_on_c, 1, 44, 0
1, 2544, Note_on_c, 1, 48, 58
1, 2544, Note_on_c, 1, 45, 58
1, 2589, Note_on_c, 0, 72, 0
1, 2589, Note_on_c, 1, 48, 0
1, 2589, Note_on_c, 1, 45, 0
1, 2592, Note_on_c, 0, 62, 70
1, 2592, Note_on_c, 1, 45, 58
1, 2592, Note_on_c, 1, 42, 58
1, 2637, Note_on_c, 0, 62, 0
1, 2640, Note_on_c, 0, 66, 70
1, 2681, Note_on_c, 1, 45, 0
1, 2681, Note_on_c, 1, 42, 0
1, 2685, Note_on_c, 0, 66, 0
1, 2688, Note_on_c, 0, 69, 71
1, 2688, Note_on_c, 1, 45, 58
1, 2688, Note_on_c, 1, 42, 58
1, 2733, Note_on_c, 0, 69, 0
1, 2736, Note_on_c, 0, 72, 72
1, 2777, Note_on_c, 1, 45, 0
1, 2777, Note_on_c, 1, 42, 0
1, 2781, Note_on_c, 0, 72, 0
1, 2784, Note_on_c, 0, 70, 73
1, 2784, Note_on_c, 1, 43, 58
1, 2832, Note_on_c, 0, 70, 0
1, 2832, Note_on_c, 0, 71, 74
1, 2873, Note_on_c, 1, 43, 0
1, 2877, Note_on_c, 0, 71, 0
1, 2880, Note_on_c, 0, 64, 70
1, 2880, Note_on_c, 1, 59, 58
1, 2880, Note_on_c, 1, 55, 58
1, 2880, Note_on_c, 1, 43, 58
1, 2903, Note_on_c, 0, 64, 0
1, 2904, Note_on_c, 0, 66, 70
1, 2927, Note_on_c, 0, 66, 0
1, 2928, Note_on_c, 0, 67, 71
1, 2969, Note_on_c, 1, 59, 0
1, 2969, Note_on_c, 1, 55, 0
1, 2969, Note_on_c, 1, 43, 0
1, 2976, Note_on_c, 1, 44, 74
1, 2995, Note_on_c, 0, 67, 0
1, 3000, Note_on_c, 0, 66, 74
1, 3000, Note_on_c, 0, 57, 74
1, 3023, Note_on_c, 0, 66, 0
1, 3023, Note_on_c, 0, 57, 0
1, 3024, Note_on_c, 0, 64, 75
1, 3024, Note_on_c, 0, 55, 75
1, 3047, Note_on_c, 0, 64, 0
1, 3047, Note_on_c, 0, 55, 0
1, 3048, Note_on_c, 0, 62, 74
1, 3048, Note_on_c, 0, 54, 74
1, 3071, Note_on_c, 0, 62, 0
1, 3071, Note_on_c, 0, 54, 0
1, 3072, Note_on_c, 1, 44, 0
1, 3072, Note_on_c, 1, 52, 58
1, 3072, Note_on_c, 1, 45, 58
1, 3117, Note_on_c, 1, 52, 0
1, 3117, Note_on_c, 1, 45, 0
1, 3120, Note_on_c, 1, 33, 58
1, 3144, Note_on_c, 0, 61, 72
1, 3144, Note_on_c, 0, 55, 72
1, 3165, Note_on_c, 1, 33, 0
1, 3168, Note_on_c, 0, 61, 0
1, 3168, Note_on_c, 0, 55, 0
1, 3168, Note_on_c, 0, 62, 72
1, 3168, Note_on_c, 0, 54, 72
1, 3216, Note_on_c, 1, 49, 58
1, 3257, Note_on_c, 0, 62, 0
1, 3257, Note_on_c, 0, 54, 0
1, 3264, Note_on_c, 1, 49, 0
1, 3264, Note_on_c, 1, 50, 58
1, 3309, Note_on_c, 1, 50, 0
1, 3312, Note_on_c, 1, 45, 58
1, 3357, Note_on_c, 1, 45, 0
1, 3360, Note_on_c, 1, 38, 58
1, 3427, Note_on_c, 1, 38, 0
1, 3456, Note_on_c, 0, 66, 70
1, 3456, Note_on_c, 0, 62, 70
1, 3456, Note_on_c, 1, 47, 58
1, 3476, Note_on_c, 1, 47, 0
1, 3504, Note_on_c, 1, 50, 58
1, 3524, Note_on_c, 1, 50, 0
1, 3545, Note_on_c, 0, 66, 0
1, 3545, Note_on_c, 0, 62, 0
1, 3552, Note_on_c, 0, 66, 70
1, 3552, Note_on_c, 0, 62, 70
1, 3552, Note_on_c, 1, 54, 58
1, 3572, Note_on_c, 1, 54, 0
1, 3600, Note_on_c, 1, 59, 58
1, 3620, Note_on_c, 1, 59, 0
1, 3648, Note_on_c, 1, 54, 58
1, 3668, Note_on_c, 1, 54, 0
1, 3696, Note_on_c, 1, 50, 58
1, 3707, Note_on_c, 0, 66, 0
1, 3707, Note_on_c, 0, 62, 0
1, 3716, Note_on_c, 1, 50, 0
1, 3720, Note_on_c, 0, 71, 75
1, 3743, Note_on_c, 0, 71, 0
1, 3744, Note_on_c, 0, 69, 74
1, 3744, Note_on_c, 0, 66, 74
1, 3744, Note_on_c, 1, 47, 58
1, 3764, Note_on_c, 1, 47, 0
1, 3792, Note_on_c, 0, 69, 0
1, 3792, Note_on_c, 0, 66, 0
1, 3792, Note_on_c, 0, 67, 73
1, 3792, Note_on_c, 0, 64, 73
1, 3792, Note_on_c, 1, 52, 58
1, 3812, Note_on_c, 1, 52, 0
1, 3837, Note_on_c, 0, 67, 0
1, 3837, Note_on_c, 0, 64, 0
1, 3840, Note_on_c, 0, 67, 72
1, 3840, Note_on_c, 0, 64, 72
1, 3840, Note_on_c, 1, 55, 58
1, 3860, Note_on_c, 1, 55, 0
1, 3888, Note_on_c, 1, 59, 58
1, 3908, Note_on_c, 1, 59, 0
1, 3936, Note_on_c, 1, 55, 58
1, 3956, Note_on_c, 1, 55, 0
1, 3973, Note_on_c, 0, 67, 0
1, 3973, Note_on_c, 0, 64, 0
1, 3984, Note_on_c, 1, 52, 58
1, 4004, Note_on_c, 1, 52, 0
1, 4032, Note_on_c, 0, 64, 70
1, 4032, Note_on_c, 0, 61, 70
1, 4032, Note_on_c, 1, 46, 58
1, 4052, Note_on_c, 1, 46, 0
1, 4080, Note_on_c, 1, 49, 58
1, 4100, Note_on_c, 1, 49, 0
1, 4121, Note_on_c, 0, 64, 0
1, 4121, Note_on_c, 0, 61, 0
1, 4128, Note_on_c, 0, 73, 71
1, 4128, Note_on_c, 0, 70, 71
1, 4128, Note_on_c, 1, 52, 58
1, 4148, Note_on_c, 1, 52, 0
1, 4176, Note_on_c, 1, 55, 58
1, 4196, Note_on_c, 1, 55, 0
1, 4224, Note_on_c, 1, 52, 58
1, 4244, Note_on_c, 1, 52, 0
1, 4272, Note_on_c, 1, 49, 58
1, 4283, Note_on_c, 0, 73, 0
1, 4283, Note_on_c, 0, 70, 0
1, 4292, Note_on_c, 1, 49, 0
1, 4296, Note_on_c, 0, 64, 75
1, 4296, Note_on_c, 0, 61, 75
1, 4319, Note_on_c, 0, 64, 0
1, 4319, Note_on_c, 0, 61, 0
1, 4320, Note_on_c, 0, 64, 90
1, 4320, Note_on_c, 0, 61, 90
1, 4320, Note_on_c, 1, 47, 58
1, 4340, Note_on_c, 1, 47, 0
1, 4368, Note_on_c, 0, 64, 0
1, 4368, Note_on_c, 0, 61, 0
1, 4368, Note_on_c, 0, 62, 72
1, 4368, Note_on_c, 0, 59, 72
1, 4368, Note_on_c, 1, 50, 58
1, 4388, Note_on_c, 1, 50, 0
1, 4402, Note_on_c, 0, 62, 0
1, 4402, Note_on_c, 0, 59, 0
1, 4404, Note_on_c, 0, 61, 70
1, 4404, Note_on_c, 0, 58, 70
1, 4416, Note_on_c, 0, 61, 0
1, 4416, Note_on_c, 0, 58, 0
1, 4416, Note_on_c, 0, 62, 70
1, 4416, Note_on_c, 0, 59, 70
1, 4416, Note_on_c, 1, 54, 58
1, 4436, Note_on_c, 1, 54, 0
1, 4464, Note_on_c, 1, 59, 58
1, 4484, Note_on_c, 1, 59, 0
1, 4512, Note_on_c, 1, 54, 58
1, 4532, Note_on_c, 1, 54, 0
1, 4549, Note_on_c, 0, 62, 0
1, 4549, Note_on_c, 0, 59, 0
1, 4560, Note_on_c, 1, 50, 58
1, 4580, Note_on_c, 1, 50, 0
1, 4608, Note_on_c, 1, 72, 80
1, 4608, Note_on_c, 1, 67, 80
1, 4608, Note_on_c, 1, 64, 80
1, 4608, Note_on_c, 1, 60, 80
1, 4608, Note_on_c, 1, 48, 80
1, 4656, Note_on_c, 0, 79, 70
1, 4701, Note_on_c, 0, 79, 0
1, 4704, Note_on_c, 0, 76, 70
1, 4704, Note_on_c, 1, 72, 0
1, 4704, Note_on_c, 1, 67, 0
1, 4704, Note_on_c, 1, 64, 0
1, 4704, Note_on_c, 1, 60, 0
1, 4704, Note_on_c, 1, 48, 0
1, 4749, Note_on_c, 0, 76, 0
1, 4752, Note_on_c, 0, 70, 70
1, 4752, Note_on_c, 0, 66, 70
1, 4752, Note_on_c, 0, 61, 70
1, 4752, Note_on_c, 1, 52, 64
1, 4752, Note_on_c, 1, 40, 64
1, 4800, Note_on_c, 0, 70, 0
1, 4800, Note_on_c, 0, 61, 0
1, 4800, Note_on_c, 0, 71, 70
1, 4800, Note_on_c, 0, 62, 70
1, 4800, Note_on_c, 1, 52, 0
1, 4800, Note_on_c, 1, 40, 0
1, 4800, Note_on_c, 1, 50, 64
1, 4800, Note_on_c, 1, 38, 64
1, 4845, Note_on_c, 0, 71, 0
1, 4845, Note_on_c, 0, 66, 0
1, 4845, Note_on_c, 0, 62, 0
1, 4848, Note_on_c, 0, 78, 70
1, 4889, Note_on_c, 1, 50, 0
1, 4889, Note_on_c, 1, 38, 0
1, 4893, Note_on_c, 0, 78, 0
1, 4896, Note_on_c, 1, 65, 64
1, 4896, Note_on_c, 1, 62, 64
1, 4896, Note_on_c, 1, 58, 64
1, 4944, Note_on_c, 0, 77, 70
1, 4985, Note_on_c, 1, 65, 0
1, 4985, Note_on_c, 1, 62, 0
1, 4985, Note_on_c, 1, 58, 0
1, 4989, Note_on_c, 0, 77, 0
1, 4992, Note_on_c, 0, 74, 70
1, 5037, Note_on_c, 0, 74, 0
1, 5040, Note_on_c, 0, 68, 70
1, 5040, Note_on_c, 1, 64, 64
1, 5040, Note_on_c, 1, 62, 64
1, 5088, Note_on_c, 0, 68, 0
1, 5088, Note_on_c, 0, 69, 70
1, 5088, Note_on_c, 1, 62, 0
1, 5088, Note_on_c, 1, 60, 64
1, 5133, Note_on_c, 0, 69, 0
1, 5136, Note_on_c, 0, 76, 70
1, 5177, Note_on_c, 1, 64, 0
1, 5177, Note_on_c, 1, 60, 0
1, 5181, Note_on_c, 0, 76, 0
1, 5184, Note_on_c, 0, 72, 70
1, 5184, Note_on_c, 0, 69, 70
1, 5184, Note_on_c, 1, 51, 64
1, 5229, Note_on_c, 1, 51, 0
1, 5232, Note_on_c, 1, 63, 64
1, 5251, Note_on_c, 0, 72, 0
1, 5251, Note_on_c, 0, 69, 0
1, 5256, Note_on_c, 0, 72, 70
1, 5256, Note_on_c, 0, 69, 70
1, 5277, Note_on_c, 1, 63, 0
1, 5279, Note_on_c, 0, 72, 0
1, 5279, Note_on_c, 0, 69, 0
1, 5280, Note_on_c, 0, 71, 70
1, 5280, Note_on_c, 0, 68, 70
1, 5325, Note_on_c, 0, 71, 0
1, 5325, Note_on_c, 0, 68, 0
1, 5328, Note_on_c, 1, 64, 64
1, 5352, Note_on_c, 0, 71, 70
1, 5352, Note_on_c, 0, 68, 70
1, 5373, Note_on_c, 1, 64, 0
1, 5375, Note_on_c, 0, 71, 0
1, 5375, Note_on_c, 0, 68, 0
1, 5376, Note_on_c, 0, 74, 71
1, 5376, Note_on_c, 0, 71, 71
1, 5424, Note_on_c, 1, 65, 64
1, 5443, Note_on_c, 0, 74, 0
1, 5443, Note_on_c, 0, 71, 0
1, 5448, Note_on_c, 0, 74, 74
1, 5448, Note_on_c, 0, 71, 74
1, 5469, Note_on_c, 1, 65, 0
1, 5471, Note_on_c, 0, 74, 0
1, 5471, Note_on_c, 0, 71, 0
1, 5472, Note_on_c, 0, 76, 75
1, 5472, Note_on_c, 0, 73, 75
1, 5520, Note_on_c, 0, 76, 0
1, 5520, Note_on_c, 0, 73, 0
1, 5520, Note_on_c, 0, 74, 73
1, 5520, Note_on_c, 0, 71, 73
1, 5520, Note_on_c, 1, 66, 64
1, 5565, Note_on_c, 0, 74, 0
1, 5565, Note_on_c, 0, 71, 0
1, 5565, Note_on_c, 1, 66, 0
1, 5568, Note_on_c, 0, 73, 71
1, 5568, Note_on_c, 0, 70, 71
1, 5568, Note_on_c, 1, 54, 62
1, 5613, Note_on_c, 0, 73, 0
1, 5613, Note_on_c, 0, 70, 0
1, 5613, Note_on_c, 1, 54, 0
1, 5616, Note_on_c, 1, 55, 61
1, 5616, Note_on_c, 1, 52, 61
1, 5661, Note_on_c, 1, 55, 0
1, 5661, Note_on_c, 1, 52, 0
1, 5664, Note_on_c, 1, 54, 60
1, 5664, Note_on_c, 1, 50, 60
1, 5709, Note_on_c, 1, 54, 0
1, 5709, Note_on_c, 1, 50, 0
1, 5712, Note_on_c, 1, 52, 59
1, 5712, Note_on_c, 1, 49, 59
1, 5757, Note_on_c, 1, 52, 0
1, 5757, Note_on_c, 1, 49, 0
1, 5760, Note_on_c, 0, 62, 70
1, 5760, Note_on_c, 1, 50, 58
1, 5760, Note_on_c, 1, 47, 58
1, 5805, Note_on_c, 0, 62, 0
1, 5808, Note_on_c, 0, 66, 70
1, 5849, Note_on_c, 1, 50, 0
1, 5849, Note_on_c, 1, 47, 0
1, 5853, Note_on_c, 0, 66, 0
1, 5856, Note_on_c, 0, 71, 71
1, 5856, Note_on_c, 1, 50, 58
1, 5856, Note_on_c, 1, 47, 58
1, 5901, Note_on_c, 0, 71, 0
1, 5904, Note_on_c, 0, 74, 72
1, 5945, Note_on_c, 1, 50, 0
1, 5945, Note_on_c, 1, 47, 0
1, 5949, Note_on_c, 0, 74, 0
1, 5952, Note_on_c, 0, 71, 73
1, 5952, Note_on_c, 1, 50, 58
1, 5952, Note_on_c, 1, 44, 58
1, 6000, Note_on_c, 0, 71, 0
1, 6000, Note_on_c, 0, 72, 74
1, 6000, Note_on_c, 1, 50, 0
1, 6000, Note_on_c, 1, 44, 0
1, 6000, Note_on_c, 1, 48, 58
1, 6000, Note_on_c, 1, 45, 58
1, 6045, Note_on_c, 0, 72, 0
1, 6045, Note_on_c, 1, 48, 0
1, 6045, Note_on_c, 1, 45, 0
1, 6048, Note_on_c, 0, 62, 70
1, 6048, Note_on_c, 1, 45, 58
1, 6048, Note_on_c, 1, 42, 58
1, 6093, Note_on_c, 0, 62, 0
1, 6096, Note_on_c, 0, 66, 70
1, 6137, Note_on_c, 1, 45, 0
1, 6137, Note_on_c, 1, 42, 0
1, 6141, Note_on_c, 0, 66, 0
1, 6144, Note_on_c, 0, 69, 71
1, 6144, Note_on_c, 1, 45, 58
1, 6144, Note_on_c, 1, 42, 58
1, 6189, Note_on_c, 0, 69, 0
1, 6192, Note_on_c, 0, 72, 72
1, 6233, Note_on_c, 1, 45, 0
1, 6233, Note_on_c, 1, 42, 0
1, 6237, Note_on_c, 0, 72, 0
1, 6240, Note_on_c, 0, 70, 73
1, 6240, Note_on_c, 1, 43, 58
1, 6288, Note_on_c, 0, 70, 0
1, 6288, Note_on_c, 0, 71, 74
1, 6329, Note_on_c, 1, 43, 0
1, 6333, Note_on_c, 0, 71, 0
1, 6336, Note_on_c, 0, 64, 70
1, 6336, Note_on_c, 1, 59, 58
1, 6336, Note_on_c, 1, 55, 58
1, 6336, Note_on_c, 1, 43, 58
1, 6359, Note_on_c, 0, 64, 0
1, 6360, Note_on_c, 0, 66, 70
1, 6383, Note_on_c, 0, 66, 0
1, 6384, Note_on_c, 0, 67, 71
1, 6425, Note_on_c, 1, 59, 0
1, 6425, Note_on_c, 1, 55, 0
1, 6425, Note_on_c, 1, 43, 0
1, 6432, Note_on_c, 1, 44, 74
1, 6451, Note_on_c, 0, 67, 0
1, 6456, Note_on_c, 0, 66, 74
1, 6456, Note_on_c, 0, 57, 74
1, 6479, Note_on_c, 0, 66, 0
1, 6479, Note_on_c, 0, 57, 0
1, 6480, Note_on_c, 0, 64, 75
1, 6480, Note_on_c, 0, 55, 75
1, 6503, Note_on_c, 0, 64, 0
1, 6503, Note_on_c, 0, 55, 0
1, 6504, Note_on_c, 0, 62, 74
1, 6504, Note_on_c, 0, 54, 74
1, 6527, Note_on_c, 0, 62, 0
1, 6527, Note_on_c, 0, 54, 0
1, 6528, Note_on_c, 1, 44, 0
1, 6528, Note_on_c, 1, 52, 58
1, 6528, Note_on_c, 1, 45, 58
1, 6573, Note_on_c, 1, 52, 0
1, 6573, Note_on_c, 1, 45, 0
1, 6576, Note_on_c, 1, 33, 58
1, 6600, Note_on_c, 0, 61, 72
1, 6600, Note_on_c, 0, 55, 72
1, 6621, Note_on_c, 1, 33, 0
1, 6624, Note_on_c, 0, 61, 0
1, 6624, Note_on_c, 0, 55, 0
1, 6624, Note_on_c, 0, 62, 72
1, 6624, Note_on_c, 0, 54, 72
1, 6672, Note_on_c, 1, 49, 58
1, 6713, Note_on_c, 0, 62, 0
1, 6713, Note_on_c, 0, 54, 0
1, 6720, Note_on_c, 1, 49, 0
1, 6720, Note_on_c, 1, 50, 58
1, 6765, Note_on_c, 1, 50, 0
1, 6768, Note_on_c, 1, 45, 58
1, 6813, Note_on_c, 1, 45, 0
1, 6816, Note_on_c, 1, 38, 58
1, 6883, Note_on_c, 1, 38, 0
1, 6912, Note_on_c, 0, 81, 75
1, 6912, Note_on_c, 0, 78, 75
1, 6912, Note_on_c, 1, 62, 64
1, 6932, Note_on_c, 1, 62, 0
1, 6960, Note_on_c, 1, 66, 64
1, 6980, Note_on_c, 1, 66, 0
1, 7008, Note_on_c, 0, 78, 0
1, 7008, Note_on_c, 1, 69, 64
1, 7028, Note_on_c, 1, 69, 0
1, 7031, Note_on_c, 0, 81, 0
1, 7032, Note_on_c, 0, 74, 75
1, 7055, Note_on_c, 0, 74, 0
1, 7056, Note_on_c, 0, 76, 75
1, 7056, Note_on_c, 1, 74, 64
1, 7076, Note_on_c, 1, 74, 0
1, 7079, Note_on_c, 0, 76, 0
1, 7080, Note_on_c, 0, 78, 75
1, 7103, Note_on_c, 0, 78, 0
1, 7104, Note_on_c, 0, 79, 75
1, 7104, Note_on_c, 1, 69, 64
1, 7124, Note_on_c, 1, 69, 0
1, 7127, Note_on_c, 0, 79, 0
1, 7128, Note_on_c, 0, 78, 75
1, 7151, Note_on_c, 0, 78, 0
1, 7152, Note_on_c, 0, 76, 75
1, 7152, Note_on_c, 1, 66, 64
1, 7172, Note_on_c, 1, 66, 0
1, 7175, Note_on_c, 0, 76, 0
1, 7176, Note_on_c, 0, 74, 75
1, 7199, Note_on_c, 0, 74, 0
1, 7200, Note_on_c, 0, 79, 75
1, 7200, Note_on_c, 0, 76, 75
1, 7200, Note_on_c, 1, 61, 64
1, 7267, Note_on_c, 0, 79, 0
1, 7267, Note_on_c, 0, 76, 0
1, 7272, Note_on_c, 0, 76, 75
1, 7295, Note_on_c, 0, 76, 0
1, 7296, Note_on_c, 0, 73, 75
1, 7333, Note_on_c, 1, 61, 0
1, 7344, Note_on_c, 1, 71, 64
1, 7344, Note_on_c, 1, 67, 64
1, 7385, Note_on_c, 0, 73, 0
1, 7389, Note_on_c, 1, 71, 0
1, 7389, Note_on_c, 1, 67, 0
1, 7392, Note_on_c, 1, 69, 64
1, 7392, Note_on_c, 1, 66, 64
1, 7437, Note_on_c, 1, 69, 0
1, 7437, Note_on_c, 1, 66, 0
1, 7440, Note_on_c, 1, 67, 64
1, 7440, Note_on_c, 1, 64, 64
1, 7485, Note_on_c, 1, 67, 0
1, 7485, Note_on_c, 1, 64, 0
1, 7488, Note_on_c, 0, 86, 91
1, 7488, Note_on_c, 1, 66, 64
1, 7508, Note_on_c, 1, 66, 0
1, 7512, Note_on_c, 0, 86, 0
1, 7512, Note_on_c, 0, 74, 75
1, 7535, Note_on_c, 0, 74, 0
1, 7536, Note_on_c, 0, 81, 76
1, 7560, Note_on_c, 0, 81, 0
1, 7560, Note_on_c, 0, 84, 77
1, 7584, Note_on_c, 1, 67, 64
1, 7604, Note_on_c, 1, 67, 0
1, 7607, Note_on_c, 0, 84, 0
1, 7608, Note_on_c, 0, 82, 79
1, 7632, Note_on_c, 0, 82, 0
1, 7632, Note_on_c, 0, 83, 80
1, 7655, Note_on_c, 0, 83, 0
1, 7656, Note_on_c, 0, 75, 80
1, 7680, Note_on_c, 1, 55, 64
1, 7700, Note_on_c, 1, 55, 0
1, 7704, Note_on_c, 0, 75, 0
1, 7704, Note_on_c, 0, 76, 80
1, 7727, Note_on_c, 0, 76, 0
1, 7728, Note_on_c, 0, 81, 80
1, 7740, Note_on_c, 0, 81, 0
1, 7740, Note_on_c, 0, 79, 79
1, 7752, Note_on_c, 0, 79, 0
1, 7752, Note_on_c, 0, 78, 79
1, 7764, Note_on_c, 0, 78, 0
1, 7764, Note_on_c, 0, 76, 78
1, 7776, Note_on_c, 0, 76, 0
1, 7776, Note_on_c, 0, 74, 78
1, 7776, Note_on_c, 0, 66, 78
1, 7776, Note_on_c, 1, 57, 64
1, 7872, Note_on_c, 0, 74, 0
1, 7872, Note_on_c, 0, 66, 0
1, 7872, Note_on_c, 0, 73, 75
1, 7872, Note_on_c, 0, 64, 75
1, 7896, Note_on_c, 0, 73, 0
1, 7896, Note_on_c, 0, 64, 0
1, 7896, Note_on_c, 0, 81, 75
1, 7917, Note_on_c, 1, 57, 0
1, 7920, Note_on_c, 0, 81, 0
1, 7920, Note_on_c, 0, 80, 75
1, 7943, Note_on_c, 0, 80, 0
1, 7944, Note_on_c, 0, 86, 75
1, 7968, Note_on_c, 0, 86, 0
1, 7968, Note_on_c, 0, 85, 75
1, 7991, Note_on_c, 0, 85, 0
1, 7992, Note_on_c, 0, 89, 75
1, 8016, Note_on_c, 0, 89, 0
1, 8016, Note_on_c, 0, 88, 75
1, 8039, Note_on_c, 0, 88, 0
1, 8040, Note_on_c, 0, 86, 75
1, 8063, Note_on_c, 0, 86, 0
1, 8064, Note_on_c, 1, 79, 64
1, 8064, Note_on_c, 1, 76, 64
1, 8088, Note_on_c, 0, 84, 75
1, 8109, Note_on_c, 1, 79, 0
1, 8109, Note_on_c, 1, 76, 0
1, 8111, Note_on_c, 0, 84, 0
1, 8112, Note_on_c, 1, 77, 64
1, 8112, Note_on_c, 1, 74, 64
1, 8136, Note_on_c, 0, 82, 75
1, 8157, Note_on_c, 1, 77, 0
1, 8157, Note_on_c, 1, 74, 0
1, 8159, Note_on_c, 0, 82, 0
1, 8160, Note_on_c, 1, 76, 64
1, 8160, Note_on_c, 1, 73, 64
1, 8184, Note_on_c, 0, 81, 75
1, 8205, Note_on_c, 1, 76, 0
1, 8205, Note_on_c, 1, 73, 0
1, 8207, Note_on_c, 0, 81, 0
1, 8208, Note_on_c, 1, 74, 64
1, 8208, Note_on_c, 1, 71, 64
1, 8232, Note_on_c, 0, 80, 75
1, 8253, Note_on_c, 1, 74, 0
1, 8253, Note_on_c, 1, 71, 0
1, 8256, Note_on_c, 1, 76, 64
1, 8256, Note_on_c, 1, 73, 64
1, 8268, Note_on_c, 0, 80, 0
1, 8268, Note_on_c, 0, 81, 75
1, 8280, Note_on_c, 0, 81, 0
1, 8280, Note_on_c, 0, 83, 75
1, 8292, Note_on_c, 0, 83, 0
1, 8292, Note_on_c, 0, 81, 75
1, 8301, Note_on_c, 1, 76, 0
1, 8301, Note_on_c, 1, 73, 0
1, 8304, Note_on_c, 0, 81, 0
1, 8304, Note_on_c, 0, 79, 75
1, 8316, Note_on_c, 0, 79, 0
1, 8316, Note_on_c, 0, 78, 75
1, 8328, Note_on_c, 0, 78, 0
1, 8328, Note_on_c, 0, 76, 75
1, 8340, Note_on_c, 0, 76, 0
1, 8340, Note_on_c, 0, 74, 75
1, 8352, Note_on_c, 0, 74, 0
1, 8352, Note_on_c, 0, 73, 75
1, 8352, Note_on_c, 1, 67, 64
1, 8352, Note_on_c, 1, 64, 64
1, 8375, Note_on_c, 0, 73, 0
1, 8376, Note_on_c, 0, 83, 75
1, 8388, Note_on_c, 0, 83, 0
1, 8388, Note_on_c, 0, 81, 75
1, 8400, Note_on_c, 0, 81, 0
1, 8400, Note_on_c, 0, 81, 75
1, 8400, Note_on_c, 1, 67, 0
1, 8400, Note_on_c, 1, 64, 0
1, 8400, Note_on_c, 1, 66, 64
1, 8447, Note_on_c, 0, 81, 0
1, 8447, Note_on_c, 1, 66, 0
1, 8520, Note_on_c, 0, 76, 75
1, 8543, Note_on_c, 0, 76, 0
1, 8544, Note_on_c, 0, 77, 76
1, 8567, Note_on_c, 0, 77, 0
1, 8568, Note_on_c, 0, 78, 77
1, 8591, Note_on_c, 0, 78, 0
1, 8592, Note_on_c, 0, 79, 78
1, 8615, Note_on_c, 0, 79, 0
1, 8616, Note_on_c, 0, 80, 79
1, 8616, Note_on_c, 1, 53, 64
1, 8639, Note_on_c, 0, 80, 0
1, 8640, Note_on_c, 0, 81, 80
1, 8640, Note_on_c, 1, 53, 0
1, 8640, Note_on_c, 1, 54, 64
1, 8652, Note_on_c, 0, 81, 0
1, 8652, Note_on_c, 0, 86, 80
1, 8663, Note_on_c, 1, 54, 0
1, 8664, Note_on_c, 0, 86, 0
1, 8664, Note_on_c, 0, 85, 80
1, 8664, Note_on_c, 1, 54, 75
1, 8664, Note_on_c, 1, 42, 75
1, 8676, Note_on_c, 0, 85, 0
1, 8676, Note_on_c, 0, 83, 80
1, 8687, Note_on_c, 1, 54, 0
1, 8687, Note_on_c, 1, 42, 0
1, 8688, Note_on_c, 0, 83, 0
1, 8688, Note_on_c, 0, 81, 80
1, 8688, Note_on_c, 1, 55, 75
1, 8688, Note_on_c, 1, 43, 75
1, 8700, Note_on_c, 0, 81, 0
1, 8700, Note_on_c, 0, 79, 80
1, 8711, Note_on_c, 1, 55, 0
1, 8711, Note_on_c, 1, 43, 0
1, 8712, Note_on_c, 0, 79, 0
1, 8712, Note_on_c, 0, 78, 80
1, 8712, Note_on_c, 1, 56, 75
1, 8712, Note_on_c, 1, 44, 75
1, 8724, Note_on_c, 0, 78, 0
1, 8724, Note_on_c, 0, 76, 80
1, 8735, Note_on_c, 1, 56, 0
1, 8735, Note_on_c, 1, 44, 0
1, 8736, Note_on_c, 0, 76, 0
1, 8736, Note_on_c, 0, 74, 80
1, 8736, Note_on_c, 1, 57, 75
1, 8736, Note_on_c, 1, 45, 75
1, 8748, Note_on_c, 0, 74, 0
1, 8748, Note_on_c, 0, 73, 80
1, 8760, Note_on_c, 0, 73, 0
1, 8760, Note_on_c, 0, 71, 80
1, 8772, Note_on_c, 0, 71, 0
1, 8772, Note_on_c, 0, 69, 80
1, 8784, Note_on_c, 0, 69, 0
1, 8784, Note_on_c, 0, 67, 80
1, 8796, Note_on_c, 0, 67, 0
1, 8796, Note_on_c, 0, 66, 80
1, 8808, Note_on_c, 0, 66, 0
1, 8808, Note_on_c, 0, 64, 80
1, 8820, Note_on_c, 0, 64, 0
1, 8820, Note_on_c, 0, 62, 80
1, 8825, Note_on_c, 1, 57, 0
1, 8825, Note_on_c, 1, 45, 0
1, 8832, Note_on_c, 0, 62, 0
1, 8832, Note_on_c, 0, 61, 80
1, 8855, Note_on_c, 0, 61, 0
1, 8856, Note_on_c, 0, 71, 78
1, 8879, Note_on_c, 0, 71, 0
1, 8880, Note_on_c, 0, 69, 77
1, 8914, Note_on_c, 0, 69, 0
1, 8916, Note_on_c, 0, 61, 75
1, 8928, Note_on_c, 0, 61, 0
1, 8928, Note_on_c, 0, 64, 75
1, 8928, Note_on_c, 0, 55, 75
1, 8952, Note_on_c, 1, 45, 62
1, 8975, Note_on_c, 1, 45, 0
1, 8976, Note_on_c, 1, 47, 61
1, 8999, Note_on_c, 1, 47, 0
1, 9000, Note_on_c, 1, 49, 59
1, 9023, Note_on_c, 1, 49, 0
1, 9024, Note_on_c, 0, 64, 0
1, 9024, Note_on_c, 0, 55, 0
1, 9024, Note_on_c, 0, 62, 70
1, 9024, Note_on_c, 0, 54, 70
1, 9024, Note_on_c, 1, 50, 58
1, 9157, Note_on_c, 0, 62, 0
1, 9157, Note_on_c, 0, 54, 0
1, 9157, Note_on_c, 1, 50, 0
1, 9216, Note_on_c, 0, 81, 75
1, 9216, Note_on_c, 0, 78, 75
1, 9216, Note_on_c, 1, 62, 64
1, 9236, Note_on_c, 1, 62, 0
1, 9264, Note_on_c, 1, 66, 64
1, 9284, Note_on_c, 1, 66, 0
1, 9312, Note_on_c, 0, 78, 0
1, 9312, Note_on_c, 1, 69, 64
1, 9332, Note_on_c, 1, 69, 0
1, 9335, Note_on_c, 0, 81, 0
1, 9336, Note_on_c, 0, 74, 75
1, 9359, Note_on_c, 0, 74, 0
1, 9360, Note_on_c, 0, 76, 75
1, 9360, Note_on_c, 1, 74, 64
1, 9380, Note_on_c, 1, 74, 0
1, 9383, Note_on_c, 0, 76, 0
1, 9384, Note_on_c, 0, 78, 75
1, 9407, Note_on_c, 0, 78, 0
1, 9408, Note_on_c, 0, 79, 75
1, 9408, Note_on_c, 1, 69, 64
1, 9428, Note_on_c, 1, 69, 0
1, 9431, Note_on_c, 0, 79, 0
1, 9432, Note_on_c, 0, 78, 75
1, 9455, Note_on_c, 0, 78, 0
1, 9456, Note_on_c, 0, 76, 75
1, 9456, Note_on_c, 1, 66, 64
1, 9476, Note_on_c, 1, 66, 0
1, 9479, Note_on_c, 0, 76, 0
1, 9480, Note_on_c, 0, 74, 75
1, 9503, Note_on_c, 0, 74, 0
1, 9504, Note_on_c, 0, 79, 75
1, 9504, Note_on_c, 0, 76, 75
1, 9504, Note_on_c, 1, 61, 64
1, 9571, Note_on_c, 0, 79, 0
1, 9571, Note_on_c, 0, 76, 0
1, 9576, Note_on_c, 0, 76, 75
1, 9599, Note_on_c, 0, 76, 0
1, 9600, Note_on_c, 0, 73, 75
1, 9637, Note_on_c, 1, 61, 0
1, 9648, Note_on_c, 1, 71, 64
1, 9648, Note_on_c, 1, 67, 64
1, 9689, Note_on_c, 0, 73, 0
1, 9693, Note_on_c, 1, 71, 0
1, 9693, Note_on_c, 1, 67, 0
1, 9696, Note_on_c, 1, 69, 64
1, 9696, Note_on_c, 1, 66, 64
1, 9741, Note_on_c, 1, 69, 0
1, 9741, Note_on_c, 1, 66, 0
1, 9744, Note_on_c, 1, 67, 64
1, 9744, Note_on_c, 1, 64, 64
1, 9789, Note_on_c, 1, 67, 0
1, 9789, Note_on_c, 1, 64, 0
1, 9792, Note_on_c, 0, 86, 91
1, 9792, Note_on_c, 1, 66, 64
1, 9812, Note_on_c, 1, 66, 0
1, 9816, Note_on_c, 0, 86, 0
1, 9816, Note_on_c, 0, 74, 75
1, 9839, Note_on_c, 0, 74, 0
1, 9840, Note_on_c, 0, 81, 76
1, 9864, Note_on_c, 0, 81, 0
1, 9864, Note_on_c, 0, 84, 77
1, 9888, Note_on_c, 1, 67, 64
1, 9908, Note_on_c, 1, 67, 0
1, 9911, Note_on_c, 0, 84, 0
1, 9912, Note_on_c, 0, 82, 79
1, 9936, Note_on_c, 0, 82, 0
1, 9936, Note_on_c, 0, 83, 80
1, 9959, Note_on_c, 0, 83, 0
1, 9960, Note_on_c, 0, 75, 80
1, 9984, Note_on_c, 1, 55, 64
1, 10004, Note_on_c, 1, 55, 0
1, 10008, Note_on_c, 0, 75, 0
1, 10008, Note_on_c, 0, 76, 80
1, 10031, Note_on_c, 0, 76, 0
1, 10032, Note_on_c, 0, 81, 80
1, 10044, Note_on_c, 0, 81, 0
1, 10044, Note_on_c, 0, 79, 79
1, 10056, Note_on_c, 0, 79, 0
1, 10056, Note_on_c, 0, 78, 79
1, 10068, Note_on_c, 0, 78, 0
1, 10068, Note_on_c, 0, 76, 78
1, 10080, Note_on_c, 0, 76, 0
1, 10080, Note_on_c, 0, 74, 78
1, 10080, Note_on_c, 0, 66, 78
1, 10080, Note_on_c, 1, 57, 64
1, 10176, Note_on_c, 0, 74, 0
1, 10176, Note_on_c, 0, 66, 0
1, 10176, Note_on_c, 0, 73, 75
1, 10176, Note_on_c, 0, 64, 75
1, 10200, Note_on_c, 0, 73, 0
1, 10200, Note_on_c, 0, 64, 0
1, 10200, Note_on_c, 0, 81, 75
1, 10221, Note_on_c, 1, 57, 0
1, 10224, Note_on_c, 0, 81, 0
1, 10224, Note_on_c, 0, 80, 75
1, 10247, Note_on_c, 0, 80, 0
1, 10248, Note_on_c, 0, 86, 75
1, 10272, Note_on_c, 0, 86, 0
1, 10272, Note_on_c, 0, 85, 75
1, 10295, Note_on_c, 0, 85, 0
1, 10296, Note_on_c, 0, 89, 75
1, 10320, Note_on_c, 0, 89, 0
1, 10320, Note_on_c, 0, 88, 75
1, 10343, Note_on_c, 0, 88, 0
1, 10344, Note_on_c, 0, 86, 75
1, 10367, Note_on_c, 0, 86, 0
1, 10368, Note_on_c, 1, 79, 64
1, 10368, Note_on_c, 1, 76, 64
1, 10392, Note_on_c, 0, 84, 75
1, 10413, Note_on_c, 1, 79, 0
1, 10413, Note_on_c, 1, 76, 0
1, 10415, Note_on_c, 0, 84, 0
1, 10416, Note_on_c, 1, 77, 64
1, 10416, Note_on_c, 1, 74, 64
1, 10440, Note_on_c, 0, 82, 75
1, 10461, Note_on_c, 1, 77, 0
1, 10461, Note_on_c, 1, 74, 0
1, 10463, Note_on_c, 0, 82, 0
1, 10464, Note_on_c, 1, 76, 64
1, 10464, Note_on_c, 1, 73, 64
1, 10488, Note_on_c, 0, 81, 75
1, 10509, Note_on_c, 1, 76, 0
1, 10509, Note_on_c, 1, 73, 0
1, 10511, Note_on_c, 0, 81, 0
1, 10512, Note_on_c, 1, 74, 64
1, 10512, Note_on_c, 1, 71, 64
1, 10536, Note_on_c, 0, 80, 75
1, 10557, Note_on_c, 1, 74, 0
1, 10557, Note_on_c, 1, 71, 0
1, 10560, Note_on_c, 1, 76, 64
1, 10560, Note_on_c, 1, 73, 64
1, 10572, Note_on_c, 0, 80, 0
1, 10572, Note_on_c, 0, 81, 75
1, 10584, Note_on_c, 0, 81, 0
1, 10584, Note_on_c, 0, 83, 75
1, 10596, Note_on_c, 0, 83, 0
1, 10596, Note_on_c, 0, 81, 75
1, 10605, Note_on_c, 1, 76, 0
1, 10605, Note_on_c, 1, 73, 0
1, 10608, Note_on_c, 0, 81, 0
1, 10608, Note_on_c, 0, 79, 75
1, 10620, Note_on_c, 0, 79, 0
1, 10620, Note_on_c, 0, 78, 75
1, 10632, Note_on_c, 0, 78, 0
1, 10632, Note_on_c, 0, 76, 75
1, 10644, Note_on_c, 0, 76, 0
1, 10644, Note_on_c, 0, 74, 75
1, 10656, Note_on_c, 0, 74, 0
1, 10656, Note_on_c, 0, 73, 75
1, 10656, Note_on_c, 1, 67, 64
1, 10656, Note_on_c, 1, 64, 64
1, 10679, Note_on_c, 0, 73, 0
1, 10680, Note_on_c, 0, 83, 75
1, 10692, Note_on_c, 0, 83, 0
1, 10692, Note_on_c, 0, 81, 75
1, 10704, Note_on_c, 0, 81, 0
1, 10704, Note_on_c, 0, 81, 75
1, 10704, Note_on_c, 1, 67, 0
1, 10704, Note_on_c, 1, 64, 0
1, 10704, Note_on_c, 1, 66, 64
1, 10751, Note_on_c, 0, 81, 0
1, 10751, Note_on_c, 1, 66, 0
1, 10824, Note_on_c, 0, 76, 75
1, 10847, Note_on_c, 0, 76, 0
1, 10848, Note_on_c, 0, 77, 76
1, 10871, Note_on_c, 0, 77, 0
1, 10872, Note_on_c, 0, 78, 77
1, 10895, Note_on_c, 0, 78, 0
1, 10896, Note_on_c, 0, 79, 78
1, 10919, Note_on_c, 0, 79, 0
1, 10920, Note_on_c, 0, 80, 79
1, 10920, Note_on_c, 1, 53, 64
1, 10943, Note_on_c, 0, 80, 0
1, 10944, Note_on_c, 0, 81, 80
1, 10944, Note_on_c, 1, 53, 0
1, 10944, Note_on_c, 1, 54, 64
1, 10956, Note_on_c, 0, 81, 0
1, 10956, Note_on_c, 0, 86, 80
1, 10967, Note_on_c, 1, 54, 0
1, 10968, Note_on_c, 0, 86, 0
1, 10968, Note_on_c, 0, 85, 80
1, 10968, Note_on_c, 1, 54, 75
1, 10968, Note_on_c, 1, 42, 75
1, 10980, Note_on_c, 0, 85, 0
1, 10980, Note_on_c, 0, 83, 80
1, 10991, Note_on_c, 1, 54, 0
1, 10991, Note_on_c, 1, 42, 0
1, 10992, Note_on_c, 0, 83, 0
1, 10992, Note_on_c, 0, 81, 80
1, 10992, Note_on_c, 1, 55, 75
1, 10992, Note_on_c, 1, 43, 75
1, 11004, Note_on_c, 0, 81, 0
1, 11004, Note_on_c, 0, 79, 80
1, 11015, Note_on_c, 1, 55, 0
1, 11015, Note_on_c, 1, 43, 0
1, 11016, Note_on_c, 0, 79, 0
1, 11016, Note_on_c, 0, 78, 80
1, 11016, Note_on_c, 1, 56, 75
1, 11016, Note_on_c, 1, 44, 75
1, 11028, Note_on_c, 0, 78, 0
1, 11028, Note_on_c, 0, 76, 80
1, 11039, Note_on_c, 1, 56, 0
1, 11039, Note_on_c, 1, 44, 0
1, 11040, Note_on_c, 0, 76, 0
1, 11040, Note_on_c, 0, 74, 80
1, 11040, Note_on_c, 1, 57, 75
1, 11040, Note_on_c, 1, 45, 75
1, 11052, Note_on_c, 0, 74, 0
1, 11052, Note_on_c, 0, 73, 80
1, 11064, Note_on_c, 0, 73, 0
1, 11064, Note_on_c, 0, 71, 80
1, 11076, Note_on_c, 0, 71, 0
1, 11076, Note_on_c, 0, 69, 80
1, 11088, Note_on_c, 0, 69, 0
1, 11088, Note_on_c, 0, 67, 80
1, 11100, Note_on_c, 0, 67, 0
1, 11100, Note_on_c, 0, 66, 80
1, 11112, Note_on_c, 0, 66, 0
1, 11112, Note_on_c, 0, 64, 80
1, 11124, Note_on_c, 0, 64, 0
1, 11124, Note_on_c, 0, 62, 80
1, 11129, Note_on_c, 1, 57, 0
1, 11129, Note_on_c, 1, 45, 0
1, 11136, Note_on_c, 0, 62, 0
1, 11136, Note_on_c, 0, 61, 80
1, 11159, Note_on_c, 0, 61, 0
1, 11160, Note_on_c, 0, 71, 78
1, 11183, Note_on_c, 0, 71, 0
1, 11184, Note_on_c, 0, 69, 77
1, 11218, Note_on_c, 0, 69, 0
1, 11220, Note_on_c, 0, 61, 75
1, 11232, Note_on_c, 0, 61, 0
1, 11232, Note_on_c, 0, 64, 75
1, 11232, Note_on_c, 0, 55, 75
1, 11256, Note_on_c, 1, 45, 62
1, 11279, Note_on_c, 1, 45, 0
1, 11280, Note_on_c, 1, 47, 61
1, 11303, Note_on_c, 1, 47, 0
1, 11304, Note_on_c, 1, 49, 59
1, 11327, Note_on_c, 1, 49, 0
1, 11328, Note_on_c, 0, 64, 0
1, 11328, Note_on_c, 0, 55, 0
1, 11328, Note_on_c, 0, 62, 70
1, 11328, Note_on_c, 0, 54, 70
1, 11328, Note_on_c, 1, 50, 58
1, 11461, Note_on_c, 0, 62, 0
1, 11461, Note_on_c, 0, 54, 0
1, 11461, Note_on_c, 1, 50, 0
1, 11544, Note_on_c, 1, 51, 64
1, 11568, Note_on_c, 1, 51, 0
1, 11568, Note_on_c, 1, 52, 64
1, 11591, Note_on_c, 1, 52, 0
1, 11592, Note_on_c, 0, 75, 64
1, 11592, Note_on_c, 0, 69, 64
1, 11616, Note_on_c, 0, 75, 0
1, 11616, Note_on_c, 0, 69, 0
1, 11616, Note_on_c, 0, 76, 64
1, 11616, Note_on_c, 0, 67, 64
1, 11650, Note_on_c, 0, 76, 0
1, 11650, Note_on_c, 0, 67, 0
1, 11832, Note_on_c, 1, 53, 70
1, 11856, Note_on_c, 1, 53, 0
1, 11856, Note_on_c, 1, 54, 70
1, 11879, Note_on_c, 1, 54, 0
1, 11880, Note_on_c, 0, 77, 70
1, 11880, Note_on_c, 0, 71, 70
1, 11904, Note_on_c, 0, 77, 0
1, 11904, Note_on_c, 0, 71, 0
1, 11904, Note_on_c, 0, 78, 70
1, 11904, Note_on_c, 0, 70, 70
1, 11938, Note_on_c, 0, 78, 0
1, 11938, Note_on_c, 0, 70, 0
1, 12120, Note_on_c, 1, 58, 75
1, 12144, Note_on_c, 1, 58, 0
1, 12144, Note_on_c, 1, 59, 75
1, 12167, Note_on_c, 1, 59, 0
1, 12168, Note_on_c, 0, 82, 75
1, 12168, Note_on_c, 0, 76, 75
1, 12192, Note_on_c, 0, 82, 0
1, 12192, Note_on_c, 0, 76, 0
1, 12192, Note_on_c, 0, 83, 75
1, 12192, Note_on_c, 0, 75, 75
1, 12215, Note_on_c, 0, 83, 0
1, 12215, Note_on_c, 0, 75, 0
1, 12216, Note_on_c, 0, 71, 75
1, 12239, Note_on_c, 0, 71, 0
1, 12240, Note_on_c, 0, 71, 75
1, 12263, Note_on_c, 0, 71, 0
1, 12264, Note_on_c, 0, 71, 76
1, 12287, Note_on_c, 0, 71, 0
1, 12288, Note_on_c, 0, 71, 77
1, 12311, Note_on_c, 0, 71, 0
1, 12312, Note_on_c, 0, 71, 77
1, 12335, Note_on_c, 0, 71, 0
1, 12336, Note_on_c, 0, 71, 78
1, 12359, Note_on_c, 0, 71, 0
1, 12360, Note_on_c, 0, 71, 79
1, 12383, Note_on_c, 0, 71, 0
1, 12384, Note_on_c, 0, 84, 80
1, 12384, Note_on_c, 0, 76, 80
1, 12384, Note_on_c, 0, 72, 80
1, 12384, Note_on_c, 1, 48, 80
1, 12408, Note_on_c, 0, 84, 0
1, 12408, Note_on_c, 0, 76, 0
1, 12408, Note_on_c, 0, 72, 0
1, 12408, Note_on_c, 0, 60, 80
1, 12431, Note_on_c, 0, 60, 0
1, 12432, Note_on_c, 0, 60, 80
1, 12455, Note_on_c, 1, 48, 0
1, 12456, Note_on_c, 0, 60, 0
1, 12456, Note_on_c, 0, 64, 80
1, 12456, Note_on_c, 1, 52, 80
1, 12456, Note_on_c, 1, 40, 80
1, 12479, Note_on_c, 0, 64, 0
1, 12479, Note_on_c, 1, 52, 0
1, 12479, Note_on_c, 1, 40, 0
1, 12480, Note_on_c, 0, 64, 80
1, 12480, Note_on_c, 1, 52, 80
1, 12480, Note_on_c, 1, 40, 80
1, 12504, Note_on_c, 0, 64, 0
1, 12504, Note_on_c, 0, 67, 80
1, 12504, Note_on_c, 1, 52, 0
1, 12504, Note_on_c, 1, 40, 0
1, 12504, Note_on_c, 1, 55, 80
1, 12504, Note_on_c, 1, 43, 80
1, 12527, Note_on_c, 0, 67, 0
1, 12527, Note_on_c, 1, 55, 0
1, 12527, Note_on_c, 1, 43, 0
1, 12528, Note_on_c, 0, 67, 80
1, 12528, Note_on_c, 1, 55, 80
1, 12528, Note_on_c, 1, 43, 80
1, 12552, Note_on_c, 0, 67, 0
1, 12552, Note_on_c, 0, 72, 80
1, 12552, Note_on_c, 1, 55, 0
1, 12552, Note_on_c, 1, 43, 0
1, 12552, Note_on_c, 1, 60, 80
1, 12552, Note_on_c, 1, 48, 80
1, 12575, Note_on_c, 0, 72, 0
1, 12575, Note_on_c, 1, 60, 0
1, 12575, Note_on_c, 1, 48, 0
1, 12576, Note_on_c, 0, 72, 80
1, 12576, Note_on_c, 1, 60, 80
1, 12576, Note_on_c, 1, 48, 80
1, 12600, Note_on_c, 0, 72, 0
1, 12600, Note_on_c, 0, 67, 80
1, 12600, Note_on_c, 1, 60, 0
1, 12600, Note_on_c, 1, 48, 0
1, 12600, Note_on_c, 1, 55, 80
1, 12600, Note_on_c, 1, 43, 80
1, 12623, Note_on_c, 0, 67, 0
1, 12623, Note_on_c, 1, 55, 0
1, 12623, Note_on_c, 1, 43, 0
1, 12624, Note_on_c, 0, 72, 80
1, 12624, Note_on_c, 1, 60, 80
1, 12624, Note_on_c, 1, 48, 80
1, 12648, Note_on_c, 0, 72, 0
1, 12648, Note_on_c, 0, 76, 80
1, 12648, Note_on_c, 1, 60, 0
1, 12648, Note_on_c, 1, 48, 0
1, 12648, Note_on_c, 1, 64, 80
1, 12648, Note_on_c, 1, 52, 80
1, 12671, Note_on_c, 0, 76, 0
1, 12671, Note_on_c, 1, 64, 0
1, 12671, Note_on_c, 1, 52, 0
1, 12672, Note_on_c, 0, 77, 96
1, 12672, Note_on_c, 1, 65, 80
1, 12672, Note_on_c, 1, 62, 80
1, 12672, Note_on_c, 1, 59, 80
1, 12672, Note_on_c, 1, 55, 80
1, 12672, Note_on_c, 1, 50, 80
1, 12750, Note_on_c, 0, 77, 0
1, 12750, Note_on_c, 0, 76, 80
1, 12756, Note_on_c, 0, 76, 0
1, 12756, Note_on_c, 0, 74, 80
1, 12762, Note_on_c, 0, 74, 0
1, 12762, Note_on_c, 0, 72, 80
1, 12768, Note_on_c, 0, 72, 0
1, 12768, Note_on_c, 0, 71, 80
1, 12901, Note_on_c, 0, 71, 0
1, 12901, Note_on_c, 1, 65, 0
1, 12901, Note_on_c, 1, 62, 0
1, 12901, Note_on_c, 1, 59, 0
1, 12901, Note_on_c, 1, 55, 0
1, 12901, Note_on_c, 1, 50, 0
1, 12960, Note_on_c, 0, 80, 70
1, 12960, Note_on_c, 0, 77, 70
1, 12960, Note_on_c, 0, 74, 70
1, 12960, Note_on_c, 1, 65, 86
1, 13027, Note_on_c, 0, 80, 0
1, 13027, Note_on_c, 0, 77, 0
1, 13027, Note_on_c, 0, 74, 0
1, 13032, Note_on_c, 0, 81, 70
1, 13032, Note_on_c, 0, 76, 70
1, 13038, Note_on_c, 1, 65, 0
1, 13038, Note_on_c, 1, 64, 70
1, 13044, Note_on_c, 1, 64, 0
1, 13044, Note_on_c, 1, 62, 70
1, 13050, Note_on_c, 1, 62, 0
1, 13050, Note_on_c, 1, 60, 70
1, 13055, Note_on_c, 0, 81, 0
1, 13055, Note_on_c, 0, 76, 0
1, 13056, Note_on_c, 0, 83, 70
1, 13056, Note_on_c, 0, 74, 70
1, 13056, Note_on_c, 1, 60, 0
1, 13056, Note_on_c, 1, 59, 70
1, 13189, Note_on_c, 0, 83, 0
1, 13189, Note_on_c, 0, 74, 0
1, 13189, Note_on_c, 1, 59, 0
1, 13248, Note_on_c, 0, 81, 86
1, 13248, Note_on_c, 1, 66, 70
1, 13248, Note_on_c, 1, 63, 70
1, 13326, Note_on_c, 0, 81, 0
1, 13326, Note_on_c, 0, 79, 70
1, 13332, Note_on_c, 0, 79, 0
1, 13332, Note_on_c, 0, 78, 70
1, 13338, Note_on_c, 0, 78, 0
1, 13338, Note_on_c, 0, 76, 70
1, 13344, Note_on_c, 0, 76, 0
1, 13344, Note_on_c, 0, 75, 70
1, 13425, Note_on_c, 1, 66, 0
1, 13425, Note_on_c, 1, 63, 0
1, 13477, Note_on_c, 0, 75, 0
1, 13512, Note_on_c, 0, 84, 70
1, 13535, Note_on_c, 0, 84, 0
1, 13536, Note_on_c, 0, 84, 69
1, 13536, Note_on_c, 1, 75, 70
1, 13584, Note_on_c, 0, 84, 0
1, 13584, Note_on_c, 0, 83, 68
1, 13584, Note_on_c, 1, 75, 0
1, 13584, Note_on_c, 1, 76, 68
1, 13618, Note_on_c, 0, 83, 0
1, 13620, Note_on_c, 0, 86, 67
1, 13632, Note_on_c, 0, 86, 0
1, 13632, Note_on_c, 0, 86, 67
1, 13632, Note_on_c, 1, 76, 0
1, 13632, Note_on_c, 1, 77, 67
1, 13680, Note_on_c, 0, 86, 0
1, 13680, Note_on_c, 0, 85, 66
1, 13680, Note_on_c, 1, 77, 0
1, 13680, Note_on_c, 1, 78, 66
1, 13774, Note_on_c, 0, 85, 0
1, 13774, Note_on_c, 1, 78, 0
1, 13824, Note_on_c, 0, 78, 70
1, 13824, Note_on_c, 0, 74, 70
1, 13824, Note_on_c, 1, 59, 58
1, 13844, Note_on_c, 1, 59, 0
1, 13872, Note_on_c, 1, 62, 58
1, 13892, Note_on_c, 1, 62, 0
1, 13913, Note_on_c, 0, 78, 0
1, 13913, Note_on_c, 0, 74, 0
1, 13920, Note_on_c, 0, 78, 70
1, 13920, Note_on_c, 0, 74, 70
1, 13920, Note_on_c, 1, 66, 58
1, 13940, Note_on_c, 1, 66, 0
1, 13968, Note_on_c, 1, 71, 58
1, 13988, Note_on_c, 1, 71, 0
1, 14016, Note_on_c, 1, 66, 58
1, 14036, Note_on_c, 1, 66, 0
1, 14064, Note_on_c, 1, 62, 58
1, 14075, Note_on_c, 0, 78, 0
1, 14075, Note_on_c, 0, 74, 0
1, 14084, Note_on_c, 1, 62, 0
1, 14088, Note_on_c, 0, 83, 75
1, 14111, Note_on_c, 0, 83, 0
1, 14112, Note_on_c, 0, 81, 74
1, 14112, Note_on_c, 0, 78, 74
1, 14112, Note_on_c, 1, 59, 58
1, 14132, Note_on_c, 1, 59, 0
1, 14136, Note_on_c, 0, 81, 0
1, 14136, Note_on_c, 0, 78, 0
1, 14136, Note_on_c, 0, 79, 74
1, 14136, Note_on_c, 0, 76, 74
1, 14160, Note_on_c, 1, 64, 58
1, 14180, Note_on_c, 1, 64, 0
1, 14203, Note_on_c, 0, 79, 0
1, 14203, Note_on_c, 0, 76, 0
1, 14208, Note_on_c, 0, 79, 72
1, 14208, Note_on_c, 0, 76, 72
1, 14208, Note_on_c, 1, 67, 58
1, 14228, Note_on_c, 1, 67, 0
1, 14256, Note_on_c, 1, 71, 58
1, 14276, Note_on_c, 1, 71, 0
1, 14304, Note_on_c, 1, 67, 58
1, 14324, Note_on_c, 1, 67, 0
1, 14341, Note_on_c, 0, 79, 0
1, 14341, Note_on_c, 0, 76, 0
1, 14352, Note_on_c, 1, 64, 58
1, 14372, Note_on_c, 1, 64, 0
1, 14400, Note_on_c, 0, 78, 70
1, 14400, Note_on_c, 0, 76, 70
1, 14400, Note_on_c, 1, 58, 58
1, 14445, Note_on_c, 0, 78, 0
1, 14445, Note_on_c, 0, 76, 0
1, 14448, Note_on_c, 0, 85, 86
1, 14489, Note_on_c, 1, 58, 0
1, 14519, Note_on_c, 0, 85, 0
1, 14520, Note_on_c, 0, 83, 70
1, 14543, Note_on_c, 0, 83, 0
1, 14544, Note_on_c, 0, 82, 70
1, 14567, Note_on_c, 0, 82, 0
1, 14568, Note_on_c, 0, 79, 70
1, 14591, Note_on_c, 0, 79, 0
1, 14592, Note_on_c, 0, 78, 70
1, 14615, Note_on_c, 0, 78, 0
1, 14616, Note_on_c, 0, 76, 70
1, 14639, Note_on_c, 0, 76, 0
1, 14640, Note_on_c, 0, 74, 70
1, 14663, Note_on_c, 0, 74, 0
1, 14664, Note_on_c, 0, 73, 70
1, 14687, Note_on_c, 0, 73, 0
1, 14688, Note_on_c, 0, 76, 70
1, 14688, Note_on_c, 1, 47, 58
1, 14694, Note_on_c, 0, 76, 0
1, 14694, Note_on_c, 0, 74, 70
1, 14708, Note_on_c, 1, 47, 0
1, 14711, Note_on_c, 0, 74, 0
1, 14712, Note_on_c, 0, 73, 70
1, 14735, Note_on_c, 0, 73, 0
1, 14736, Note_on_c, 0, 71, 70
1, 14736, Note_on_c, 1, 50, 58
1, 14756, Note_on_c, 1, 50, 0
1, 14784, Note_on_c, 1, 54, 58
1, 14804, Note_on_c, 1, 54, 0
1, 14825, Note_on_c, 0, 71, 0
1, 14832, Note_on_c, 1, 59, 58
1, 14852, Note_on_c, 1, 59, 0
1, 14880, Note_on_c, 1, 54, 58
1, 14900, Note_on_c, 1, 54, 0
1, 14928, Note_on_c, 1, 50, 58
1, 14948, Note_on_c, 1, 50, 0
1, 14976, Note_on_c, 0, 74, 70
1, 14982, Note_on_c, 0, 74, 0
1, 14982, Note_on_c, 0, 72, 70
1, 14999, Note_on_c, 0, 72, 0
1, 15000, Note_on_c, 0, 71, 70
1, 15023, Note_on_c, 0, 71, 0
1, 15024, Note_on_c, 0, 72, 70
1, 15024, Note_on_c, 1, 52, 58
1, 15069, Note_on_c, 1, 52, 0
1, 15072, Note_on_c, 1, 40, 58
1, 15095, Note_on_c, 0, 72, 0
1, 15096, Note_on_c, 0, 79, 70
1, 15119, Note_on_c, 0, 79, 0
1, 15120, Note_on_c, 0, 76, 70
1, 15143, Note_on_c, 0, 76, 0
1, 15144, Note_on_c, 0, 72, 70
1, 15161, Note_on_c, 1, 40, 0
1, 15167, Note_on_c, 0, 72, 0
1, 15168, Note_on_c, 0, 70, 86
1, 15216, Note_on_c, 0, 70, 0
1, 15216, Note_on_c, 0, 71, 70
1, 15261, Note_on_c, 0, 71, 0
1, 15264, Note_on_c, 0, 72, 70
1, 15264, Note_on_c, 1, 53, 58
1, 15264, Note_on_c, 1, 50, 58
1, 15270, Note_on_c, 0, 72, 0
1, 15270, Note_on_c, 0, 70, 70
1, 15284, Note_on_c, 1, 53, 0
1, 15284, Note_on_c, 1, 50, 0
1, 15287, Note_on_c, 0, 70, 0
1, 15288, Note_on_c, 0, 69, 70
1, 15300, Note_on_c, 0, 69, 0
1, 15300, Note_on_c, 0, 70, 70
1, 15312, Note_on_c, 0, 70, 0
1, 15312, Note_on_c, 0, 70, 70
1, 15312, Note_on_c, 1, 53, 58
1, 15312, Note_on_c, 1, 50, 58
1, 15332, Note_on_c, 1, 53, 0
1, 15332, Note_on_c, 1, 50, 0
1, 15360, Note_on_c, 1, 53, 58
1, 15360, Note_on_c, 1, 50, 58
1, 15380, Note_on_c, 1, 53, 0
1, 15380, Note_on_c, 1, 50, 0
1, 15383, Note_on_c, 0, 70, 0
1, 15384, Note_on_c, 0, 77, 70
1, 15407, Note_on_c, 0, 77, 0
1, 15408, Note_on_c, 0, 74, 70
1, 15408, Note_on_c, 1, 53, 58
1, 15408, Note_on_c, 1, 50, 58
1, 15428, Note_on_c, 1, 53, 0
1, 15428, Note_on_c, 1, 50, 0
1, 15431, Note_on_c, 0, 74, 0
1, 15432, Note_on_c, 0, 70, 70
1, 15455, Note_on_c, 0, 70, 0
1, 15456, Note_on_c, 0, 68, 86
1, 15456, Note_on_c, 1, 52, 58
1, 15456, Note_on_c, 1, 50, 58
1, 15501, Note_on_c, 1, 52, 0
1, 15501, Note_on_c, 1, 50, 0
1, 15504, Note_on_c, 0, 68, 0
1, 15504, Note_on_c, 0, 69, 70
1, 15504, Note_on_c, 1, 52, 58
1, 15504, Note_on_c, 1, 48, 58
1, 15549, Note_on_c, 0, 69, 0
1, 15549, Note_on_c, 1, 52, 0
1, 15549, Note_on_c, 1, 48, 0
1, 15552, Note_on_c, 0, 60, 70
1, 15552, Note_on_c, 0, 57, 70
1, 15552, Note_on_c, 1, 39, 70
1, 15597, Note_on_c, 1, 39, 0
1, 15600, Note_on_c, 1, 51, 70
1, 15619, Note_on_c, 0, 60, 0
1, 15619, Note_on_c, 0, 57, 0
1, 15624, Note_on_c, 0, 60, 70
1, 15624, Note_on_c, 0, 57, 70
1, 15645, Note_on_c, 1, 51, 0
1, 15647, Note_on_c, 0, 60, 0
1, 15647, Note_on_c, 0, 57, 0
1, 15648, Note_on_c, 0, 59, 70
1, 15648, Note_on_c, 0, 56, 70
1, 15693, Note_on_c, 0, 59, 0
1, 15693, Note_on_c, 0, 56, 0
1, 15696, Note_on_c, 1, 52, 70
1, 15720, Note_on_c, 0, 59, 70
1, 15720, Note_on_c, 0, 56, 70
1, 15741, Note_on_c, 1, 52, 0
1, 15743, Note_on_c, 0, 59, 0
1, 15743, Note_on_c, 0, 56, 0
1, 15744, Note_on_c, 0, 62, 71
1, 15744, Note_on_c, 0, 59, 71
1, 15792, Note_on_c, 1, 53, 70
1, 15811, Note_on_c, 0, 62, 0
1, 15811, Note_on_c, 0, 59, 0
1, 15816, Note_on_c, 0, 62, 74
1, 15816, Note_on_c, 0, 59, 74
1, 15837, Note_on_c, 1, 53, 0
1, 15839, Note_on_c, 0, 62, 0
1, 15839, Note_on_c, 0, 59, 0
1, 15840, Note_on_c, 0, 64, 75
1, 15840, Note_on_c, 0, 61, 75
1, 15840, Note_on_c, 1, 54, 70
1, 15888, Note_on_c, 0, 64, 0
1, 15888, Note_on_c, 0, 61, 0
1, 15888, Note_on_c, 0, 62, 74
1, 15888, Note_on_c, 0, 59, 74
1, 15929, Note_on_c, 1, 54, 0
1, 15933, Note_on_c, 0, 62, 0
1, 15933, Note_on_c, 0, 59, 0
1, 15936, Note_on_c, 0, 61, 73
1, 15936, Note_on_c, 0, 58, 73
1, 15936, Note_on_c, 1, 42, 70
1, 16069, Note_on_c, 0, 61, 0
1, 16069, Note_on_c, 0, 58, 0
1, 16069, Note_on_c, 1, 42, 0
1, 16128, Note_on_c, 0, 54, 70
1, 16128, Note_on_c, 0, 50, 70
1, 16128, Note_on_c, 1, 35, 58
1, 16148, Note_on_c, 1, 35, 0
1, 16176, Note_on_c, 1, 38, 58
1, 16196, Note_on_c, 1, 38, 0
1, 16217, Note_on_c, 0, 54, 0
1, 16217, Note_on_c, 0, 50, 0
1, 16224, Note_on_c, 0, 54, 70
1, 16224, Note_on_c, 0, 50, 70
1, 16224, Note_on_c, 1, 42, 58
1, 16244, Note_on_c, 1, 42, 0
1, 16272, Note_on_c, 1, 47, 58
1, 16292, Note_on_c, 1, 47, 0
1, 16320, Note_on_c, 1, 42, 58
1, 16340, Note_on_c, 1, 42, 0
1, 16368, Note_on_c, 1, 38, 58
1, 16379, Note_on_c, 0, 54, 0
1, 16379, Note_on_c, 0, 50, 0
1, 16388, Note_on_c, 1, 38, 0
1, 16392, Note_on_c, 0, 59, 75
1, 16415, Note_on_c, 0, 59, 0
1, 16416, Note_on_c, 0, 57, 74
1, 16416, Note_on_c, 0, 54, 74
1, 16416, Note_on_c, 1, 35, 58
1, 16436, Note_on_c, 1, 35, 0
1, 16464, Note_on_c, 0, 57, 0
1, 16464, Note_on_c, 0, 54, 0
1, 16464, Note_on_c, 0, 55, 73
1, 16464, Note_on_c, 0, 52, 73
1, 16464, Note_on_c, 1, 40, 58
1, 16484, Note_on_c, 1, 40, 0
1, 16509, Note_on_c, 0, 55, 0
1, 16509, Note_on_c, 0, 52, 0
1, 16512, Note_on_c, 0, 55, 72
1, 16512, Note_on_c, 0, 52, 72
1, 16512, Note_on_c, 1, 43, 58
1, 16532, Note_on_c, 1, 43, 0
1, 16560, Note_on_c, 1, 47, 58
1, 16580, Note_on_c, 1, 47, 0
1, 16608, Note_on_c, 1, 43, 58
1, 16628, Note_on_c, 1, 43, 0
1, 16645, Note_on_c, 0, 55, 0
1, 16645, Note_on_c, 0, 52, 0
1, 16656, Note_on_c, 0, 61, 70
1, 16656, Note_on_c, 1, 40, 58
1, 16676, Note_on_c, 1, 40, 0
1, 16704, Note_on_c, 1, 52, 58
1, 16724, Note_on_c, 1, 52, 0
1, 16752, Note_on_c, 1, 52, 58
1, 16771, Note_on_c, 0, 61, 0
1, 16772, Note_on_c, 1, 52, 0
1, 16776, Note_on_c, 0, 63, 72
1, 16799, Note_on_c, 0, 63, 0
1, 16800, Note_on_c, 0, 64, 72
1, 16800, Note_on_c, 1, 40, 58
1, 16820, Note_on_c, 1, 40, 0
1, 16848, Note_on_c, 1, 40, 58
1, 16867, Note_on_c, 0, 64, 0
1, 16868, Note_on_c, 1, 40, 0
1, 16872, Note_on_c, 0, 63, 75
1, 16872, Note_on_c, 0, 59, 75
1, 16895, Note_on_c, 0, 63, 0
1, 16895, Note_on_c, 0, 59, 0
1, 16896, Note_on_c, 0, 61, 74
1, 16896, Note_on_c, 0, 58, 74
1, 16896, Note_on_c, 1, 42, 58
1, 16916, Note_on_c, 1, 42, 0
1, 16919, Note_on_c, 0, 61, 0
1, 16919, Note_on_c, 0, 58, 0
1, 16920, Note_on_c, 0, 59, 73
1, 16944, Note_on_c, 1, 42, 58
1, 16964, Note_on_c, 1, 42, 0
1, 16965, Note_on_c, 0, 59, 0
1, 16968, Note_on_c, 0, 58, 71
1, 16991, Note_on_c, 0, 58, 0
1, 16992, Note_on_c, 0, 59, 70
1, 16992, Note_on_c, 0, 51, 70
1, 16992, Note_on_c, 1, 47, 58
1, 17037, Note_on_c, 1, 47, 0
1, 17040, Note_on_c, 1, 47, 58
1, 17081, Note_on_c, 0, 59, 0
1, 17081, Note_on_c, 0, 51, 0
1, 17085, Note_on_c, 1, 47, 0
1, 17088, Note_on_c, 1, 47, 58
1, 17133, Note_on_c, 1, 47, 0
1, 17136, Note_on_c, 1, 47, 58
1, 17181, Note_on_c, 1, 47, 0
1, 17184, Note_on_c, 0, 64, 64
1, 17184, Note_on_c, 0, 61, 64
1, 17184, Note_on_c, 1, 47, 58
1, 17229, Note_on_c, 1, 47, 0
1, 17232, Note_on_c, 1, 47, 58
1, 17256, Note_on_c, 0, 64, 0
1, 17256, Note_on_c, 0, 61, 0
1, 17256, Note_on_c, 0, 63, 64
1, 17256, Note_on_c, 0, 59, 64
1, 17277, Note_on_c, 1, 47, 0
1, 17279, Note_on_c, 0, 63, 0
1, 17279, Note_on_c, 0, 59, 0
1, 17280, Note_on_c, 0, 63, 64
1, 17280, Note_on_c, 0, 59, 64
1, 17280, Note_on_c, 1, 47, 58
1, 17325, Note_on_c, 1, 47, 0
1, 17328, Note_on_c, 1, 47, 58
1, 17369, Note_on_c, 0, 63, 0
1, 17369, Note_on_c, 0, 59, 0
1, 17373, Note_on_c, 1, 47, 0
1, 17376, Note_on_c, 1, 47, 58
1, 17421, Note_on_c, 1, 47, 0
1, 17424, Note_on_c, 1, 47, 58
1, 17469, Note_on_c, 1, 47, 0
1, 17472, Note_on_c, 0, 70, 64
1, 17472, Note_on_c, 0, 64, 64
1, 17472, Note_on_c, 1, 47, 58
1, 17517, Note_on_c, 1, 47, 0
1, 17520, Note_on_c, 1, 47, 58
1, 17544, Note_on_c, 0, 70, 0
1, 17544, Note_on_c, 0, 64, 0
1, 17544, Note_on_c, 0, 71, 64
1, 17544, Note_on_c, 0, 63, 64
1, 17565, Note_on_c, 1, 47, 0
1, 17567, Note_on_c, 0, 71, 0
1, 17567, Note_on_c, 0, 63, 0
1, 17568, Note_on_c, 0, 71, 64
1, 17568, Note_on_c, 0, 63, 64
1, 17568, Note_on_c, 1, 35, 58
1, 17613, Note_on_c, 0, 71, 0
1, 17613, Note_on_c, 0, 63, 0
1, 17613, Note_on_c, 1, 35, 0
1, 17616, Note_on_c, 0, 67, 63
1, 17616, Note_on_c, 1, 35, 58
1, 17661, Note_on_c, 1, 35, 0
1, 17664, Note_on_c, 0, 67, 0
1, 17664, Note_on_c, 0, 66, 63
1, 17664, Note_on_c, 1, 35, 58
1, 17709, Note_on_c, 0, 66, 0
1, 17709, Note_on_c, 1, 35, 0
1, 17712, Note_on_c, 0, 55, 62
1, 17712, Note_on_c, 1, 35, 58
1, 17757, Note_on_c, 1, 35, 0
1, 17760, Note_on_c, 0, 55, 0
1, 17760, Note_on_c, 0, 54, 62
1, 17760, Note_on_c, 1, 35, 58
1, 17805, Note_on_c, 0, 54, 0
1, 17805, Note_on_c, 1, 35, 0
1, 17808, Note_on_c, 0, 58, 61
1, 17808, Note_on_c, 0, 52, 61
1, 17808, Note_on_c, 1, 35, 58
1, 17853, Note_on_c, 0, 58, 0
1, 17853, Note_on_c, 0, 52, 0
1, 17853, Note_on_c, 1, 35, 0
1, 17856, Note_on_c, 0, 61, 61
1, 17856, Note_on_c, 0, 58, 61
1, 17856, Note_on_c, 0, 52, 61
1, 17856, Note_on_c, 1, 35, 58
1, 18000, Note_on_c, 0, 61, 0
1, 18000, Note_on_c, 0, 58, 0
1, 18000, Note_on_c, 0, 52, 0
1, 18000, Note_on_c, 0, 59, 59
1, 18000, Note_on_c, 0, 54, 59
1, 18000, Note_on_c, 0, 51, 59
1, 18133, Note_on_c, 0, 59, 0
1, 18133, Note_on_c, 0, 54, 0
1, 18133, Note_on_c, 0, 51, 0
1, 18133, Note_on_c, 1, 35, 0
1, 18144, Note_on_c, 1, 35, 0
1, 18189, Note_on_c, 1, 35, 0
1, 18199, End_track
0, 0, End_of_file