0, 0, Header, 0, 1, 96
1, 0, Start_track
1, 0, Tempo, 387096
1, 0, Note_on_c, 0, 67, 80
1, 0, Note_on_c, 1, 55, 80
1, 0, Note_on_c, 1, 43, 80
1, 89, Note_on_c, 0, 67, 0
1, 89, Note_on_c, 1, 55, 0
1, 89, Note_on_c, 1, 43, 0
1, 96, Note_on_c, 0, 67, 80
1, 96, Note_on_c, 1, 55, 80
1, 141, Note_on_c, 0, 67, 0
1, 141, Note_on_c, 1, 55, 0
1, 144, Note_on_c, 0, 66, 80
1, 144, Note_on_c, 1, 54, 80
1, 189, Note_on_c, 0, 66, 0
1, 189, Note_on_c, 1, 54, 0
1, 192, Note_on_c, 0, 67, 80
1, 192, Note_on_c, 1, 55, 80
1, 237, Note_on_c, 0, 67, 0
1, 237, Note_on_c, 1, 55, 0
1, 240, Note_on_c, 0, 69, 80
1, 240, Note_on_c, 1, 57, 80
1, 285, Note_on_c, 0, 69, 0
1, 285, Note_on_c, 1, 57, 0
1, 288, Note_on_c, 0, 71, 80
1, 288, Note_on_c, 1, 59, 80
1, 327, Note_on_c, 0, 71, 0
1, 327, Note_on_c, 1, 59, 0
1, 384, Note_on_c, 0, 67, 80
1, 384, Note_on_c, 1, 55, 80
1, 423, Note_on_c, 0, 67, 0
1, 423, Note_on_c, 1, 55, 0
1, 480, Note_on_c, 0, 74, 80
1, 480, Note_on_c, 1, 62, 80
1, 525, Note_on_c, 0, 74, 0
1, 525, Note_on_c, 1, 62, 0
1, 528, Note_on_c, 0, 71, 80
1, 528, Note_on_c, 1, 59, 80
1, 573, Note_on_c, 0, 71, 0
1, 573, Note_on_c, 1, 59, 0
1, 576, Note_on_c, 0, 67, 80
1, 576, Note_on_c, 1, 55, 80
1, 615, Note_on_c, 0, 67, 0
1, 615, Note_on_c, 1, 55, 0
1, 672, Note_on_c, 0, 62, 80
1, 672, Note_on_c, 1, 50, 80
1, 711, Note_on_c, 0, 62, 0
1, 711, Note_on_c, 1, 50, 0
1, 768, Note_on_c, 0, 71, 80
1, 768, Note_on_c, 1, 59, 80
1, 807, Note_on_c, 0, 71, 0
1, 807, Note_on_c, 1, 59, 0
1, 864, Note_on_c, 0, 67, 80
1, 864, Note_on_c, 1, 55, 80
1, 881, Note_on_c, 0, 67, 0
1, 882, Note_on_c, 0, 69, 80
1, 899, Note_on_c, 0, 69, 0
1, 900, Note_on_c, 0, 67, 80
1, 917, Note_on_c, 0, 67, 0
1, 918, Note_on_c, 0, 69, 80
1, 935, Note_on_c, 0, 69, 0
1, 936, Note_on_c, 0, 67, 80
1, 953, Note_on_c, 0, 67, 0
1, 954, Note_on_c, 0, 69, 80
1, 970, Note_on_c, 0, 69, 0
1, 971, Note_on_c, 0, 67, 80
1, 987, Note_on_c, 0, 67, 0
1, 988, Note_on_c, 0, 69, 80
1, 1004, Note_on_c, 0, 69, 0
1, 1005, Note_on_c, 0, 67, 80
1, 1021, Note_on_c, 0, 67, 0
1, 1022, Note_on_c, 0, 66, 80
1, 1038, Note_on_c, 0, 66, 0
1, 1039, Note_on_c, 0, 67, 80
1, 1041, Note_on_c, 1, 55, 0
1, 1055, Note_on_c, 0, 67, 0
1, 1056, Note_on_c, 0, 83, 75
1, 1056, Note_on_c, 1, 62, 75
1, 1056, Note_on_c, 1, 55, 75
1, 1101, Note_on_c, 0, 83, 0
1, 1104, Note_on_c, 0, 74, 75
1, 1145, Note_on_c, 1, 62, 0
1, 1145, Note_on_c, 1, 55, 0
1, 1149, Note_on_c, 0, 74, 0
1, 1152, Note_on_c, 0, 84, 91
1, 1152, Note_on_c, 1, 62, 75
1, 1152, Note_on_c, 1, 54, 75
1, 1200, Note_on_c, 0, 84, 0
1, 1200, Note_on_c, 0, 81, 75
1, 1245, Note_on_c, 0, 81, 0
1, 1248, Note_on_c, 0, 78, 75
1, 1293, Note_on_c, 0, 78, 0
1, 1296, Note_on_c, 0, 74, 75
1, 1329, Note_on_c, 1, 62, 0
1, 1329, Note_on_c, 1, 54, 0
1, 1341, Note_on_c, 0, 74, 0
1, 1344, Note_on_c, 0, 83, 91
1, 1344, Note_on_c, 1, 62, 75
1, 1344, Note_on_c, 1, 55, 75
1, 1392, Note_on_c, 0, 83, 0
1, 1392, Note_on_c, 0, 79, 75
1, 1433, Note_on_c, 1, 62, 0
1, 1433, Note_on_c, 1, 55, 0
1, 1437, Note_on_c, 0, 79, 0
1, 1440, Note_on_c, 0, 84, 91
1, 1440, Note_on_c, 1, 62, 75
1, 1440, Note_on_c, 1, 54, 75
1, 1488, Note_on_c, 0, 84, 0
1, 1488, Note_on_c, 0, 81, 75
1, 1533, Note_on_c, 0, 81, 0
1, 1536, Note_on_c, 0, 78, 75
1, 1581, Note_on_c, 0, 78, 0
1, 1584, Note_on_c, 0, 74, 75
1, 1617, Note_on_c, 1, 62, 0
1, 1617, Note_on_c, 1, 54, 0
1, 1629, Note_on_c, 0, 74, 0
1, 1632, Note_on_c, 0, 83, 91
1, 1632, Note_on_c, 1, 62, 75
1, 1632, Note_on_c, 1, 55, 75
1, 1680, Note_on_c, 0, 83, 0
1, 1680, Note_on_c, 0, 79, 75
1, 1721, Note_on_c, 1, 62, 0
1, 1721, Note_on_c, 1, 55, 0
1, 1725, Note_on_c, 0, 79, 0
1, 1728, Note_on_c, 0, 74, 75
1, 1728, Note_on_c, 0, 71, 75
1, 1728, Note_on_c, 1, 59, 75
1, 1817, Note_on_c, 0, 74, 0
1, 1817, Note_on_c, 0, 71, 0
1, 1817, Note_on_c, 1, 59, 0
1, 1824, Note_on_c, 0, 72, 75
1, 1824, Note_on_c, 0, 69, 75
1, 1824, Note_on_c, 1, 60, 75
1, 1913, Note_on_c, 0, 72, 0
1, 1913, Note_on_c, 0, 69, 0
1, 1913, Note_on_c, 1, 60, 0
1, 1920, Note_on_c, 0, 71, 75
1, 1920, Note_on_c, 0, 67, 75
1, 1920, Note_on_c, 1, 61, 75
1, 2009, Note_on_c, 0, 71, 0
1, 2009, Note_on_c, 0, 67, 0
1, 2009, Note_on_c, 1, 61, 0
1, 2016, Note_on_c, 0, 69, 75
1, 2016, Note_on_c, 0, 66, 75
1, 2016, Note_on_c, 1, 62, 75
1, 2105, Note_on_c, 0, 69, 0
1, 2105, Note_on_c, 0, 66, 0
1, 2105, Note_on_c, 1, 62, 0
1, 2112, Note_on_c, 1, 50, 75
1, 2201, Note_on_c, 1, 50, 0
1, 2304, Note_on_c, 0, 67, 80
1, 2304, Note_on_c, 1, 55, 80
1, 2304, Note_on_c, 1, 43, 80
1, 2393, Note_on_c, 0, 67, 0
1, 2393, Note_on_c, 1, 55, 0
1, 2393, Note_on_c, 1, 43, 0
1, 2400, Note_on_c, 0, 67, 80
1, 2400, Note_on_c, 1, 55, 80
1, 2445, Note_on_c, 0, 67, 0
1, 2445, Note_on_c, 1, 55, 0
1, 2448, Note_on_c, 0, 66, 80
1, 2448, Note_on_c, 1, 54, 80
1, 2493, Note_on_c, 0, 66, 0
1, 2493, Note_on_c, 1, 54, 0
1, 2496, Note_on_c, 0, 67, 80
1, 2496, Note_on_c, 1, 55, 80
1, 2541, Note_on_c, 0, 67, 0
1, 2541, Note_on_c, 1, 55, 0
1, 2544, Note_on_c, 0, 69, 80
1, 2544, Note_on_c, 1, 57, 80
1, 2589, Note_on_c, 0, 69, 0
1, 2589, Note_on_c, 1, 57, 0
1, 2592, Note_on_c, 0, 71, 80
1, 2592, Note_on_c, 1, 59, 80
1, 2631, Note_on_c, 0, 71, 0
1, 2631, Note_on_c, 1, 59, 0
1, 2688, Note_on_c, 0, 67, 80
1, 2688, Note_on_c, 1, 55, 80
1, 2727, Note_on_c, 0, 67, 0
1, 2727, Note_on_c, 1, 55, 0
1, 2784, Note_on_c, 0, 74, 80
1, 2784, Note_on_c, 1, 62, 80
1, 2829, Note_on_c, 0, 74, 0
1, 2829, Note_on_c, 1, 62, 0
1, 2832, Note_on_c, 0, 71, 80
1, 2832, Note_on_c, 1, 59, 80
1, 2877, Note_on_c, 0, 71, 0
1, 2877, Note_on_c, 1, 59, 0
1, 2880, Note_on_c, 0, 67, 80
1, 2880, Note_on_c, 1, 55, 80
1, 2919, Note_on_c, 0, 67, 0
1, 2919, Note_on_c, 1, 55, 0
1, 2976, Note_on_c, 0, 62, 80
1, 2976, Note_on_c, 1, 50, 80
1, 3015, Note_on_c, 0, 62, 0
1, 3015, Note_on_c, 1, 50, 0
1, 3072, Note_on_c, 0, 71, 80
1, 3072, Note_on_c, 1, 59, 80
1, 3111, Note_on_c, 0, 71, 0
1, 3111, Note_on_c, 1, 59, 0
1, 3168, Note_on_c, 0, 67, 80
1, 3168, Note_on_c, 1, 55, 80
1, 3185, Note_on_c, 0, 67, 0
1, 3186, Note_on_c, 0, 69, 80
1, 3203, Note_on_c, 0, 69, 0
1, 3204, Note_on_c, 0, 67, 80
1, 3221, Note_on_c, 0, 67, 0
1, 3222, Note_on_c, 0, 69, 80
1, 3239, Note_on_c, 0, 69, 0
1, 3240, Note_on_c, 0, 67, 80
1, 3257, Note_on_c, 0, 67, 0
1, 3258, Note_on_c, 0, 69, 80
1, 3274, Note_on_c, 0, 69, 0
1, 3275, Note_on_c, 0, 67, 80
1, 3291, Note_on_c, 0, 67, 0
1, 3292, Note_on_c, 0, 69, 80
1, 3308, Note_on_c, 0, 69, 0
1, 3309, Note_on_c, 0, 67, 80
1, 3325, Note_on_c, 0, 67, 0
1, 3326, Note_on_c, 0, 66, 80
1, 3342, Note_on_c, 0, 66, 0
1, 3343, Note_on_c, 0, 67, 80
1, 3345, Note_on_c, 1, 55, 0
1, 3359, Note_on_c, 0, 67, 0
1, 3360, Note_on_c, 0, 83, 75
1, 3360, Note_on_c, 1, 62, 75
1, 3360, Note_on_c, 1, 55, 75
1, 3405, Note_on_c, 0, 83, 0
1, 3408, Note_on_c, 0, 74, 75
1, 3449, Note_on_c, 1, 62, 0
1, 3449, Note_on_c, 1, 55, 0
1, 3453, Note_on_c, 0, 74, 0
1, 3456, Note_on_c, 0, 84, 91
1, 3456, Note_on_c, 1, 62, 75
1, 3456, Note_on_c, 1, 54, 75
1, 3504, Note_on_c, 0, 84, 0
1, 3504, Note_on_c, 0, 81, 75
1, 3549, Note_on_c, 0, 81, 0
1, 3552, Note_on_c, 0, 78, 75
1, 3597, Note_on_c, 0, 78, 0
1, 3600, Note_on_c, 0, 74, 75
1, 3633, Note_on_c, 1, 62, 0
1, 3633, Note_on_c, 1, 54, 0
1, 3645, Note_on_c, 0, 74, 0
1, 3648, Note_on_c, 0, 83, 91
1, 3648, Note_on_c, 1, 62, 75
1, 3648, Note_on_c, 1, 55, 75
1, 3696, Note_on_c, 0, 83, 0
1, 3696, Note_on_c, 0, 79, 75
1, 3737, Note_on_c, 1, 62, 0
1, 3737, Note_on_c, 1, 55, 0
1, 3741, Note_on_c, 0, 79, 0
1, 3744, Note_on_c, 0, 84, 91
1, 3744, Note_on_c, 1, 62, 75
1, 3744, Note_on_c, 1, 54, 75
1, 3792, Note_on_c, 0, 84, 0
1, 3792, Note_on_c, 0, 81, 75
1, 3837, Note_on_c, 0, 81, 0
1, 3840, Note_on_c, 0, 78, 75
1, 3885, Note_on_c, 0, 78, 0
1, 3888, Note_on_c, 0, 74, 75
1, 3921, Note_on_c, 1, 62, 0
1, 3921, Note_on_c, 1, 54, 0
1, 3933, Note_on_c, 0, 74, 0
1, 3936, Note_on_c, 0, 83, 91
1, 3936, Note_on_c, 1, 62, 75
1, 3936, Note_on_c, 1, 55, 75
1, 3984, Note_on_c, 0, 83, 0
1, 3984, Note_on_c, 0, 79, 75
1, 4025, Note_on_c, 1, 62, 0
1, 4025, Note_on_c, 1, 55, 0
1, 4029, Note_on_c, 0, 79, 0
1, 4032, Note_on_c, 0, 74, 75
1, 4032, Note_on_c, 0, 71, 75
1, 4032, Note_on_c, 1, 59, 75
1, 4121, Note_on_c, 0, 74, 0
1, 4121, Note_on_c, 0, 71, 0
1, 4121, Note_on_c, 1, 59, 0
1, 4128, Note_on_c, 0, 72, 75
1, 4128, Note_on_c, 0, 69, 75
1, 4128, Note_on_c, 1, 60, 75
1, 4217, Note_on_c, 0, 72, 0
1, 4217, Note_on_c, 0, 69, 0
1, 4217, Note_on_c, 1, 60, 0
1, 4224, Note_on_c, 0, 71, 75
1, 4224, Note_on_c, 0, 67, 75
1, 4224, Note_on_c, 1, 61, 75
1, 4313, Note_on_c, 0, 71, 0
1, 4313, Note_on_c, 0, 67, 0
1, 4313, Note_on_c, 1, 61, 0
1, 4320, Note_on_c, 0, 69, 75
1, 4320, Note_on_c, 0, 66, 75
1, 4320, Note_on_c, 1, 62, 75
1, 4409, Note_on_c, 0, 69, 0
1, 4409, Note_on_c, 0, 66, 0
1, 4409, Note_on_c, 1, 62, 0
1, 4416, Note_on_c, 1, 50, 75
1, 4505, Note_on_c, 1, 50, 0
1, 4608, Note_on_c, 0, 74, 75
1, 4608, Note_on_c, 1, 62, 75
1, 4608, Note_on_c, 1, 50, 75
1, 4697, Note_on_c, 0, 74, 0
1, 4697, Note_on_c, 1, 62, 0
1, 4697, Note_on_c, 1, 50, 0
1, 4704, Note_on_c, 0, 78, 75
1, 4749, Note_on_c, 0, 78, 0
1, 4752, Note_on_c, 0, 76, 75
1, 4797, Note_on_c, 0, 76, 0
1, 4800, Note_on_c, 0, 78, 75
1, 4845, Note_on_c, 0, 78, 0
1, 4848, Note_on_c, 0, 79, 75
1, 4893, Note_on_c, 0, 79, 0
1, 4896, Note_on_c, 0, 81, 75
1, 4896, Note_on_c, 1, 54, 75
1, 4941, Note_on_c, 1, 54, 0
1, 4944, Note_on_c, 1, 62, 75
1, 4989, Note_on_c, 1, 62, 0
1, 4992, Note_on_c, 1, 57, 75
1, 5037, Note_on_c, 1, 57, 0
1, 5040, Note_on_c, 1, 62, 75
1, 5073, Note_on_c, 0, 81, 0
1, 5085, Note_on_c, 1, 62, 0
1, 5088, Note_on_c, 0, 84, 75
1, 5088, Note_on_c, 1, 54, 75
1, 5133, Note_on_c, 0, 84, 0
1, 5133, Note_on_c, 1, 54, 0
1, 5136, Note_on_c, 0, 81, 75
1, 5136, Note_on_c, 1, 62, 75
1, 5181, Note_on_c, 0, 81, 0
1, 5181, Note_on_c, 1, 62, 0
1, 5184, Note_on_c, 0, 83, 75
1, 5184, Note_on_c, 1, 55, 75
1, 5229, Note_on_c, 1, 55, 0
1, 5232, Note_on_c, 1, 62, 75
1, 5273, Note_on_c, 0, 83, 0
1, 5277, Note_on_c, 1, 62, 0
1, 5280, Note_on_c, 0, 79, 75
1, 5280, Note_on_c, 1, 59, 75
1, 5325, Note_on_c, 1, 59, 0
1, 5328, Note_on_c, 1, 62, 75
1, 5369, Note_on_c, 0, 79, 0
1, 5373, Note_on_c, 1, 62, 0
1, 5376, Note_on_c, 0, 86, 75
1, 5376, Note_on_c, 1, 55, 75
1, 5421, Note_on_c, 1, 55, 0
1, 5424, Note_on_c, 1, 62, 75
1, 5465, Note_on_c, 0, 86, 0
1, 5469, Note_on_c, 1, 62, 0
1, 5472, Note_on_c, 0, 79, 75
1, 5472, Note_on_c, 1, 57, 75
1, 5484, Note_on_c, 0, 79, 0
1, 5484, Note_on_c, 0, 78, 75
1, 5496, Note_on_c, 0, 78, 0
1, 5496, Note_on_c, 0, 76, 75
1, 5508, Note_on_c, 0, 76, 0
1, 5508, Note_on_c, 0, 78, 75
1, 5517, Note_on_c, 1, 57, 0
1, 5520, Note_on_c, 1, 62, 75
1, 5565, Note_on_c, 1, 62, 0
1, 5568, Note_on_c, 1, 60, 75
1, 5613, Note_on_c, 1, 60, 0
1, 5616, Note_on_c, 1, 62, 75
1, 5649, Note_on_c, 0, 78, 0
1, 5661, Note_on_c, 1, 62, 0
1, 5664, Note_on_c, 0, 81, 75
1, 5664, Note_on_c, 1, 57, 75
1, 5709, Note_on_c, 0, 81, 0
1, 5709, Note_on_c, 1, 57, 0
1, 5712, Note_on_c, 0, 78, 75
1, 5712, Note_on_c, 1, 62, 75
1, 5757, Note_on_c, 0, 78, 0
1, 5757, Note_on_c, 1, 62, 0
1, 5760, Note_on_c, 0, 79, 75
1, 5760, Note_on_c, 1, 59, 75
1, 5805, Note_on_c, 0, 79, 0
1, 5808, Note_on_c, 0, 74, 75
1, 5849, Note_on_c, 1, 59, 0
1, 5853, Note_on_c, 0, 74, 0
1, 5856, Note_on_c, 0, 83, 75
1, 5901, Note_on_c, 0, 83, 0
1, 5904, Note_on_c, 0, 79, 75
1, 5949, Note_on_c, 0, 79, 0
1, 5952, Note_on_c, 0, 86, 75
1, 5997, Note_on_c, 0, 86, 0
1, 6000, Note_on_c, 0, 83, 75
1, 6045, Note_on_c, 0, 83, 0
1, 6048, Note_on_c, 0, 81, 75
1, 6048, Note_on_c, 1, 54, 75
1, 6093, Note_on_c, 1, 54, 0
1, 6096, Note_on_c, 1, 62, 75
1, 6137, Note_on_c, 0, 81, 0
1, 6141, Note_on_c, 1, 62, 0
1, 6144, Note_on_c, 0, 84, 75
1, 6144, Note_on_c, 1, 57, 75
1, 6189, Note_on_c, 1, 57, 0
1, 6192, Note_on_c, 1, 62, 75
1, 6233, Note_on_c, 0, 84, 0
1, 6237, Note_on_c, 1, 62, 0
1, 6240, Note_on_c, 0, 83, 75
1, 6240, Note_on_c, 1, 55, 75
1, 6285, Note_on_c, 0, 83, 0
1, 6285, Note_on_c, 1, 55, 0
1, 6288, Note_on_c, 0, 79, 75
1, 6288, Note_on_c, 1, 62, 75
1, 6333, Note_on_c, 0, 79, 0
1, 6333, Note_on_c, 1, 62, 0
1, 6336, Note_on_c, 0, 74, 75
1, 6336, Note_on_c, 1, 54, 75
1, 6381, Note_on_c, 1, 54, 0
1, 6384, Note_on_c, 1, 62, 75
1, 6425, Note_on_c, 0, 74, 0
1, 6429, Note_on_c, 1, 62, 0
1, 6432, Note_on_c, 0, 84, 75
1, 6432, Note_on_c, 1, 57, 75
1, 6477, Note_on_c, 1, 57, 0
1, 6480, Note_on_c, 1, 62, 75
1, 6521, Note_on_c, 0, 84, 0
1, 6525, Note_on_c, 1, 62, 0
1, 6528, Note_on_c, 0, 83, 75
1, 6528, Note_on_c, 1, 55, 75
1, 6573, Note_on_c, 0, 83, 0
1, 6573, Note_on_c, 1, 55, 0
1, 6576, Note_on_c, 0, 79, 75
1, 6576, Note_on_c, 1, 62, 75
1, 6621, Note_on_c, 0, 79, 0
1, 6621, Note_on_c, 1, 62, 0
1, 6624, Note_on_c, 0, 74, 75
1, 6624, Note_on_c, 1, 50, 75
1, 6713, Note_on_c, 0, 74, 0
1, 6713, Note_on_c, 1, 50, 0
1, 6912, Note_on_c, 0, 67, 80
1, 6912, Note_on_c, 1, 55, 80
1, 6912, Note_on_c, 1, 43, 80
1, 7001, Note_on_c, 0, 67, 0
1, 7001, Note_on_c, 1, 55, 0
1, 7001, Note_on_c, 1, 43, 0
1, 7008, Note_on_c, 0, 67, 80
1, 7008, Note_on_c, 1, 55, 80
1, 7053, Note_on_c, 0, 67, 0
1, 7053, Note_on_c, 1, 55, 0
1, 7056, Note_on_c, 0, 66, 80
1, 7056, Note_on_c, 1, 54, 80
1, 7101, Note_on_c, 0, 66, 0
1, 7101, Note_on_c, 1, 54, 0
1, 7104, Note_on_c, 0, 67, 80
1, 7104, Note_on_c, 1, 55, 80
1, 7149, Note_on_c, 0, 67, 0
1, 7149, Note_on_c, 1, 55, 0
1, 7152, Note_on_c, 0, 69, 80
1, 7152, Note_on_c, 1, 57, 80
1, 7197, Note_on_c, 0, 69, 0
1, 7197, Note_on_c, 1, 57, 0
1, 7200, Note_on_c, 0, 71, 80
1, 7200, Note_on_c, 1, 59, 80
1, 7239, Note_on_c, 0, 71, 0
1, 7239, Note_on_c, 1, 59, 0
1, 7296, Note_on_c, 0, 67, 80
1, 7296, Note_on_c, 1, 55, 80
1, 7335, Note_on_c, 0, 67, 0
1, 7335, Note_on_c, 1, 55, 0
1, 7392, Note_on_c, 0, 74, 80
1, 7392, Note_on_c, 1, 62, 80
1, 7437, Note_on_c, 0, 74, 0
1, 7437, Note_on_c, 1, 62, 0
1, 7440, Note_on_c, 0, 71, 80
1, 7440, Note_on_c, 1, 59, 80
1, 7485, Note_on_c, 0, 71, 0
1, 7485, Note_on_c, 1, 59, 0
1, 7488, Note_on_c, 0, 67, 80
1, 7488, Note_on_c, 1, 55, 80
1, 7527, Note_on_c, 0, 67, 0
1, 7527, Note_on_c, 1, 55, 0
1, 7584, Note_on_c, 0, 62, 80
1, 7584, Note_on_c, 1, 50, 80
1, 7623, Note_on_c, 0, 62, 0
1, 7623, Note_on_c, 1, 50, 0
1, 7680, Note_on_c, 0, 71, 80
1, 7680, Note_on_c, 1, 59, 80
1, 7719, Note_on_c, 0, 71, 0
1, 7719, Note_on_c, 1, 59, 0
1, 7776, Note_on_c, 0, 67, 80
1, 7776, Note_on_c, 1, 55, 80
1, 7793, Note_on_c, 0, 67, 0
1, 7794, Note_on_c, 0, 69, 80
1, 7811, Note_on_c, 0, 69, 0
1, 7812, Note_on_c, 0, 67, 80
1, 7829, Note_on_c, 0, 67, 0
1, 7830, Note_on_c, 0, 69, 80
1, 7847, Note_on_c, 0, 69, 0
1, 7848, Note_on_c, 0, 67, 80
1, 7865, Note_on_c, 0, 67, 0
1, 7866, Note_on_c, 0, 69, 80
1, 7882, Note_on_c, 0, 69, 0
1, 7883, Note_on_c, 0, 67, 80
1, 7899, Note_on_c, 0, 67, 0
1, 7900, Note_on_c, 0, 69, 80
1, 7916, Note_on_c, 0, 69, 0
1, 7917, Note_on_c, 0, 67, 80
1, 7933, Note_on_c, 0, 67, 0
1, 7934, Note_on_c, 0, 66, 80
1, 7950, Note_on_c, 0, 66, 0
1, 7951, Note_on_c, 0, 67, 80
1, 7953, Note_on_c, 1, 55, 0
1, 7967, Note_on_c, 0, 67, 0
1, 7968, Note_on_c, 0, 83, 75
1, 7968, Note_on_c, 1, 62, 75
1, 7968, Note_on_c, 1, 55, 75
1, 8013, Note_on_c, 0, 83, 0
1, 8016, Note_on_c, 0, 74, 75
1, 8057, Note_on_c, 1, 62, 0
1, 8057, Note_on_c, 1, 55, 0
1, 8061, Note_on_c, 0, 74, 0
1, 8064, Note_on_c, 0, 84, 91
1, 8064, Note_on_c, 1, 62, 75
1, 8064, Note_on_c, 1, 54, 75
1, 8112, Note_on_c, 0, 84, 0
1, 8112, Note_on_c, 0, 81, 75
1, 8157, Note_on_c, 0, 81, 0
1, 8160, Note_on_c, 0, 78, 75
1, 8205, Note_on_c, 0, 78, 0
1, 8208, Note_on_c, 0, 74, 75
1, 8241, Note_on_c, 1, 62, 0
1, 8241, Note_on_c, 1, 54, 0
1, 8253, Note_on_c, 0, 74, 0
1, 8256, Note_on_c, 0, 83, 91
1, 8256, Note_on_c, 1, 62, 75
1, 8256, Note_on_c, 1, 55, 75
1, 8304, Note_on_c, 0, 83, 0
1, 8304, Note_on_c, 0, 79, 75
1, 8345, Note_on_c, 1, 62, 0
1, 8345, Note_on_c, 1, 55, 0
1, 8349, Note_on_c, 0, 79, 0
1, 8352, Note_on_c, 0, 84, 91
1, 8352, Note_on_c, 1, 62, 75
1, 8352, Note_on_c, 1, 54, 75
1, 8400, Note_on_c, 0, 84, 0
1, 8400, Note_on_c, 0, 81, 75
1, 8445, Note_on_c, 0, 81, 0
1, 8448, Note_on_c, 0, 78, 75
1, 8493, Note_on_c, 0, 78, 0
1, 8496, Note_on_c, 0, 74, 75
1, 8529, Note_on_c, 1, 62, 0
1, 8529, Note_on_c, 1, 54, 0
1, 8541, Note_on_c, 0, 74, 0
1, 8544, Note_on_c, 0, 83, 91
1, 8544, Note_on_c, 1, 62, 75
1, 8544, Note_on_c, 1, 55, 75
1, 8592, Note_on_c, 0, 83, 0
1, 8592, Note_on_c, 0, 79, 75
1, 8633, Note_on_c, 1, 62, 0
1, 8633, Note_on_c, 1, 55, 0
1, 8637, Note_on_c, 0, 79, 0
1, 8640, Note_on_c, 0, 81, 75
1, 8640, Note_on_c, 0, 72, 75
1, 8640, Note_on_c, 1, 60, 75
1, 8729, Note_on_c, 0, 81, 0
1, 8729, Note_on_c, 0, 72, 0
1, 8729, Note_on_c, 1, 60, 0
1, 8736, Note_on_c, 0, 79, 75
1, 8736, Note_on_c, 0, 71, 75
1, 8736, Note_on_c, 1, 62, 75
1, 8825, Note_on_c, 0, 79, 0
1, 8825, Note_on_c, 0, 71, 0
1, 8825, Note_on_c, 1, 62, 0
1, 8832, Note_on_c, 0, 78, 75
1, 8832, Note_on_c, 0, 69, 75
1, 8832, Note_on_c, 1, 50, 75
1, 8921, Note_on_c, 0, 78, 0
1, 8921, Note_on_c, 0, 69, 0
1, 8921, Note_on_c, 1, 50, 0
1, 8928, Note_on_c, 0, 79, 75
1, 8928, Note_on_c, 0, 67, 75
1, 8928, Note_on_c, 1, 55, 75
1, 9017, Note_on_c, 0, 79, 0
1, 9017, Note_on_c, 0, 67, 0
1, 9017, Note_on_c, 1, 55, 0
1, 9024, Note_on_c, 1, 50, 75
1, 9113, Note_on_c, 1, 50, 0
1, 9120, Note_on_c, 1, 43, 75
1, 9209, Note_on_c, 1, 43, 0
1, 9216, Note_on_c, 0, 74, 75
1, 9216, Note_on_c, 1, 62, 75
1, 9216, Note_on_c, 1, 50, 75
1, 9305, Note_on_c, 0, 74, 0
1, 9305, Note_on_c, 1, 62, 0
1, 9305, Note_on_c, 1, 50, 0
1, 9312, Note_on_c, 0, 78, 75
1, 9357, Note_on_c, 0, 78, 0
1, 9360, Note_on_c, 0, 76, 75
1, 9405, Note_on_c, 0, 76, 0
1, 9408, Note_on_c, 0, 78, 75
1, 9453, Note_on_c, 0, 78, 0
1, 9456, Note_on_c, 0, 79, 75
1, 9501, Note_on_c, 0, 79, 0
1, 9504, Note_on_c, 0, 81, 75
1, 9504, Note_on_c, 1, 54, 75
1, 9549, Note_on_c, 1, 54, 0
1, 9552, Note_on_c, 1, 62, 75
1, 9597, Note_on_c, 1, 62, 0
1, 9600, Note_on_c, 1, 57, 75
1, 9645, Note_on_c, 1, 57, 0
1, 9648, Note_on_c, 1, 62, 75
1, 9681, Note_on_c, 0, 81, 0
1, 9693, Note_on_c, 1, 62, 0
1, 9696, Note_on_c, 0, 84, 75
1, 9696, Note_on_c, 1, 54, 75
1, 9741, Note_on_c, 0, 84, 0
1, 9741, Note_on_c, 1, 54, 0
1, 9744, Note_on_c, 0, 81, 75
1, 9744, Note_on_c, 1, 62, 75
1, 9789, Note_on_c, 0, 81, 0
1, 9789, Note_on_c, 1, 62, 0
1, 9792, Note_on_c, 0, 83, 75
1, 9792, Note_on_c, 1, 55, 75
1, 9837, Note_on_c, 1, 55, 0
1, 9840, Note_on_c, 1, 62, 75
1, 9881, Note_on_c, 0, 83, 0
1, 9885, Note_on_c, 1, 62, 0
1, 9888, Note_on_c, 0, 79, 75
1, 9888, Note_on_c, 1, 59, 75
1, 9933, Note_on_c, 1, 59, 0
1, 9936, Note_on_c, 1, 62, 75
1, 9977, Note_on_c, 0, 79, 0
1, 9981, Note_on_c, 1, 62, 0
1, 9984, Note_on_c, 0, 86, 75
1, 9984, Note_on_c, 1, 55, 75
1, 10029, Note_on_c, 1, 55, 0
1, 10032, Note_on_c, 1, 62, 75
1, 10073, Note_on_c, 0, 86, 0
1, 10077, Note_on_c, 1, 62, 0
1, 10080, Note_on_c, 0, 79, 75
1, 10080, Note_on_c, 1, 57, 75
1, 10092, Note_on_c, 0, 79, 0
1, 10092, Note_on_c, 0, 78, 75
1, 10104, Note_on_c, 0, 78, 0
1, 10104, Note_on_c, 0, 76, 75
1, 10116, Note_on_c, 0, 76, 0
1, 10116, Note_on_c, 0, 78, 75
1, 10125, Note_on_c, 1, 57, 0
1, 10128, Note_on_c, 1, 62, 75
1, 10173, Note_on_c, 1, 62, 0
1, 10176, Note_on_c, 1, 60, 75
1, 10221, Note_on_c, 1, 60, 0
1, 10224, Note_on_c, 1, 62, 75
1, 10257, Note_on_c, 0, 78, 0
1, 10269, Note_on_c, 1, 62, 0
1, 10272, Note_on_c, 0, 81, 75
1, 10272, Note_on_c, 1, 57, 75
1, 10317, Note_on_c, 0, 81, 0
1, 10317, Note_on_c, 1, 57, 0
1, 10320, Note_on_c, 0, 78, 75
1, 10320, Note_on_c, 1, 62, 75
1, 10365, Note_on_c, 0, 78, 0
1, 10365, Note_on_c, 1, 62, 0
1, 10368, Note_on_c, 0, 79, 75
1, 10368, Note_on_c, 1, 59, 75
1, 10413, Note_on_c, 0, 79, 0
1, 10416, Note_on_c, 0, 74, 75
1, 10457, Note_on_c, 1, 59, 0
1, 10461, Note_on_c, 0, 74, 0
1, 10464, Note_on_c, 0, 83, 75
1, 10509, Note_on_c, 0, 83, 0
1, 10512, Note_on_c, 0, 79, 75
1, 10557, Note_on_c, 0, 79, 0
1, 10560, Note_on_c, 0, 86, 75
1, 10605, Note_on_c, 0, 86, 0
1, 10608, Note_on_c, 0, 83, 75
1, 10653, Note_on_c, 0, 83, 0
1, 10656, Note_on_c, 0, 81, 75
1, 10656, Note_on_c, 1, 54, 75
1, 10701, Note_on_c, 1, 54, 0
1, 10704, Note_on_c, 1, 62, 75
1, 10745, Note_on_c, 0, 81, 0
1, 10749, Note_on_c, 1, 62, 0
1, 10752, Note_on_c, 0, 84, 75
1, 10752, Note_on_c, 1, 57, 75
1, 10797, Note_on_c, 1, 57, 0
1, 10800, Note_on_c, 1, 62, 75
1, 10841, Note_on_c, 0, 84, 0
1, 10845, Note_on_c, 1, 62, 0
1, 10848, Note_on_c, 0, 83, 75
1, 10848, Note_on_c, 1, 55, 75
1, 10893, Note_on_c, 0, 83, 0
1, 10893, Note_on_c, 1, 55, 0
1, 10896, Note_on_c, 0, 79, 75
1, 10896, Note_on_c, 1, 62, 75
1, 10941, Note_on_c, 0, 79, 0
1, 10941, Note_on_c, 1, 62, 0
1, 10944, Note_on_c, 0, 74, 75
1, 10944, Note_on_c, 1, 54, 75
1, 10989, Note_on_c, 1, 54, 0
1, 10992, Note_on_c, 1, 62, 75
1, 11033, Note_on_c, 0, 74, 0
1, 11037, Note_on_c, 1, 62, 0
1, 11040, Note_on_c, 0, 84, 75
1, 11040, Note_on_c, 1, 57, 75
1, 11085, Note_on_c, 1, 57, 0
1, 11088, Note_on_c, 1, 62, 75
1, 11129, Note_on_c, 0, 84, 0
1, 11133, Note_on_c, 1, 62, 0
1, 11136, Note_on_c, 0, 83, 75
1, 11136, Note_on_c, 1, 55, 75
1, 11181, Note_on_c, 0, 83, 0
1, 11181, Note_on_c, 1, 55, 0
1, 11184, Note_on_c, 0, 79, 75
1, 11184, Note_on_c, 1, 62, 75
1, 11229, Note_on_c, 0, 79, 0
1, 11229, Note_on_c, 1, 62, 0
1, 11232, Note_on_c, 0, 74, 75
1, 11232, Note_on_c, 1, 50, 75
1, 11321, Note_on_c, 0, 74, 0
1, 11321, Note_on_c, 1, 50, 0
1, 11520, Note_on_c, 0, 67, 80
1, 11520, Note_on_c, 1, 55, 80
1, 11520, Note_on_c, 1, 43, 80
1, 11609, Note_on_c, 0, 67, 0
1, 11609, Note_on_c, 1, 55, 0
1, 11609, Note_on_c, 1, 43, 0
1, 11616, Note_on_c, 0, 67, 80
1, 11616, Note_on_c, 1, 55, 80
1, 11661, Note_on_c, 0, 67, 0
1, 11661, Note_on_c, 1, 55, 0
1, 11664, Note_on_c, 0, 66, 80
1, 11664, Note_on_c, 1, 54, 80
1, 11709, Note_on_c, 0, 66, 0
1, 11709, Note_on_c, 1, 54, 0
1, 11712, Note_on_c, 0, 67, 80
1, 11712, Note_on_c, 1, 55, 80
1, 11757, Note_on_c, 0, 67, 0
1, 11757, Note_on_c, 1, 55, 0
1, 11760, Note_on_c, 0, 69, 80
1, 11760, Note_on_c, 1, 57, 80
1, 11805, Note_on_c, 0, 69, 0
1, 11805, Note_on_c, 1, 57, 0
1, 11808, Note_on_c, 0, 71, 80
1, 11808, Note_on_c, 1, 59, 80
1, 11847, Note_on_c, 0, 71, 0
1, 11847, Note_on_c, 1, 59, 0
1, 11904, Note_on_c, 0, 67, 80
1, 11904, Note_on_c, 1, 55, 80
1, 11943, Note_on_c, 0, 67, 0
1, 11943, Note_on_c, 1, 55, 0
1, 12000, Note_on_c, 0, 74, 80
1, 12000, Note_on_c, 1, 62, 80
1, 12045, Note_on_c, 0, 74, 0
1, 12045, Note_on_c, 1, 62, 0
1, 12048, Note_on_c, 0, 71, 80
1, 12048, Note_on_c, 1, 59, 80
1, 12093, Note_on_c, 0, 71, 0
1, 12093, Note_on_c, 1, 59, 0
1, 12096, Note_on_c, 0, 67, 80
1, 12096, Note_on_c, 1, 55, 80
1, 12135, Note_on_c, 0, 67, 0
1, 12135, Note_on_c, 1, 55, 0
1, 12192, Note_on_c, 0, 62, 80
1, 12192, Note_on_c, 1, 50, 80
1, 12231, Note_on_c, 0, 62, 0
1, 12231, Note_on_c, 1, 50, 0
1, 12288, Note_on_c, 0, 71, 80
1, 12288, Note_on_c, 1, 59, 80
1, 12327, Note_on_c, 0, 71, 0
1, 12327, Note_on_c, 1, 59, 0
1, 12384, Note_on_c, 0, 67, 80
1, 12384, Note_on_c, 1, 55, 80
1, 12401, Note_on_c, 0, 67, 0
1, 12402, Note_on_c, 0, 69, 80
1, 12419, Note_on_c, 0, 69, 0
1, 12420, Note_on_c, 0, 67, 80
1, 12437, Note_on_c, 0, 67, 0
1, 12438, Note_on_c, 0, 69, 80
1, 12455, Note_on_c, 0, 69, 0
1, 12456, Note_on_c, 0, 67, 80
1, 12473, Note_on_c, 0, 67, 0
1, 12474, Note_on_c, 0, 69, 80
1, 12490, Note_on_c, 0, 69, 0
1, 12491, Note_on_c, 0, 67, 80
1, 12507, Note_on_c, 0, 67, 0
1, 12508, Note_on_c, 0, 69, 80
1, 12524, Note_on_c, 0, 69, 0
1, 12525, Note_on_c, 0, 67, 80
1, 12541, Note_on_c, 0, 67, 0
1, 12542, Note_on_c, 0, 66, 80
1, 12558, Note_on_c, 0, 66, 0
1, 12559, Note_on_c, 0, 67, 80
1, 12561, Note_on_c, 1, 55, 0
1, 12575, Note_on_c, 0, 67, 0
1, 12576, Note_on_c, 0, 83, 75
1, 12576, Note_on_c, 1, 62, 75
1, 12576, Note_on_c, 1, 55, 75
1, 12621, Note_on_c, 0, 83, 0
1, 12624, Note_on_c, 0, 74, 75
1, 12665, Note_on_c, 1, 62, 0
1, 12665, Note_on_c, 1, 55, 0
1, 12669, Note_on_c, 0, 74, 0
1, 12672, Note_on_c, 0, 84, 91
1, 12672, Note_on_c, 1, 62, 75
1, 12672, Note_on_c, 1, 54, 75
1, 12720, Note_on_c, 0, 84, 0
1, 12720, Note_on_c, 0, 81, 75
1, 12765, Note_on_c, 0, 81, 0
1, 12768, Note_on_c, 0, 78, 75
1, 12813, Note_on_c, 0, 78, 0
1, 12816, Note_on_c, 0, 74, 75
1, 12849, Note_on_c, 1, 62, 0
1, 12849, Note_on_c, 1, 54, 0
1, 12861, Note_on_c, 0, 74, 0
1, 12864, Note_on_c, 0, 83, 91
1, 12864, Note_on_c, 1, 62, 75
1, 12864, Note_on_c, 1, 55, 75
1, 12912, Note_on_c, 0, 83, 0
1, 12912, Note_on_c, 0, 79, 75
1, 12953, Note_on_c, 1, 62, 0
1, 12953, Note_on_c, 1, 55, 0
1, 12957, Note_on_c, 0, 79, 0
1, 12960, Note_on_c, 0, 84, 91
1, 12960, Note_on_c, 1, 62, 75
1, 12960, Note_on_c, 1, 54, 75
1, 13008, Note_on_c, 0, 84, 0
1, 13008, Note_on_c, 0, 81, 75
1, 13053, Note_on_c, 0, 81, 0
1, 13056, Note_on_c, 0, 78, 75
1, 13101, Note_on_c, 0, 78, 0
1, 13104, Note_on_c, 0, 74, 75
1, 13137, Note_on_c, 1, 62, 0
1, 13137, Note_on_c, 1, 54, 0
1, 13149, Note_on_c, 0, 74, 0
1, 13152, Note_on_c, 0, 83, 91
1, 13152, Note_on_c, 1, 62, 75
1, 13152, Note_on_c, 1, 55, 75
1, 13200, Note_on_c, 0, 83, 0
1, 13200, Note_on_c, 0, 79, 75
1, 13241, Note_on_c, 1, 62, 0
1, 13241, Note_on_c, 1, 55, 0
1, 13245, Note_on_c, 0, 79, 0
1, 13248, Note_on_c, 0, 81, 75
1, 13248, Note_on_c, 0, 72, 75
1, 13248, Note_on_c, 1, 60, 75
1, 13337, Note_on_c, 0, 81, 0
1, 13337, Note_on_c, 0, 72, 0
1, 13337, Note_on_c, 1, 60, 0
1, 13344, Note_on_c, 0, 79, 75
1, 13344, Note_on_c, 0, 71, 75
1, 13344, Note_on_c, 1, 62, 75
1, 13433, Note_on_c, 0, 79, 0
1, 13433, Note_on_c, 0, 71, 0
1, 13433, Note_on_c, 1, 62, 0
1, 13440, Note_on_c, 0, 78, 75
1, 13440, Note_on_c, 0, 69, 75
1, 13440, Note_on_c, 1, 50, 75
1, 13529, Note_on_c, 0, 78, 0
1, 13529, Note_on_c, 0, 69, 0
1, 13529, Note_on_c, 1, 50, 0
1, 13536, Note_on_c, 0, 79, 75
1, 13536, Note_on_c, 0, 67, 75
1, 13536, Note_on_c, 1, 55, 75
1, 13625, Note_on_c, 0, 79, 0
1, 13625, Note_on_c, 0, 67, 0
1, 13625, Note_on_c, 1, 55, 0
1, 13632, Note_on_c, 1, 50, 75
1, 13721, Note_on_c, 1, 50, 0
1, 13728, Note_on_c, 1, 43, 75
1, 13817, Note_on_c, 1, 43, 0
1, 13824, Note_on_c, 1, 52, 70
1, 13824, Note_on_c, 1, 40, 70
1, 13913, Note_on_c, 1, 52, 0
1, 13913, Note_on_c, 1, 40, 0
1, 13920, Note_on_c, 0, 64, 70
1, 14009, Note_on_c, 0, 64, 0
1, 14016, Note_on_c, 0, 67, 70
1, 14046, Note_on_c, 0, 67, 0
1, 14048, Note_on_c, 0, 66, 70
1, 14078, Note_on_c, 0, 66, 0
1, 14080, Note_on_c, 0, 64, 70
1, 14110, Note_on_c, 0, 64, 0
1, 14112, Note_on_c, 0, 71, 70
1, 14201, Note_on_c, 0, 71, 0
1, 14208, Note_on_c, 1, 55, 70
1, 14208, Note_on_c, 1, 52, 70
1, 14297, Note_on_c, 1, 55, 0
1, 14297, Note_on_c, 1, 52, 0
1, 14304, Note_on_c, 1, 57, 70
1, 14304, Note_on_c, 1, 54, 70
1, 14393, Note_on_c, 1, 57, 0
1, 14393, Note_on_c, 1, 54, 0
1, 14400, Note_on_c, 1, 59, 70
1, 14400, Note_on_c, 1, 55, 70
1, 14489, Note_on_c, 1, 59, 0
1, 14489, Note_on_c, 1, 55, 0
1, 14496, Note_on_c, 0, 64, 70
1, 14585, Note_on_c, 0, 64, 0
1, 14592, Note_on_c, 0, 67, 70
1, 14622, Note_on_c, 0, 67, 0
1, 14624, Note_on_c, 0, 66, 70
1, 14654, Note_on_c, 0, 66, 0
1, 14656, Note_on_c, 0, 64, 70
1, 14686, Note_on_c, 0, 64, 0
1, 14688, Note_on_c, 0, 71, 70
1, 14777, Note_on_c, 0, 71, 0
1, 14784, Note_on_c, 1, 51, 70
1, 14784, Note_on_c, 1, 47, 70
1, 14873, Note_on_c, 1, 51, 0
1, 14873, Note_on_c, 1, 47, 0
1, 14880, Note_on_c, 1, 52, 70
1, 14880, Note_on_c, 1, 49, 70
1, 14969, Note_on_c, 1, 52, 0
1, 14969, Note_on_c, 1, 49, 0
1, 14976, Note_on_c, 1, 54, 70
1, 14976, Note_on_c, 1, 51, 70
1, 15065, Note_on_c, 1, 54, 0
1, 15065, Note_on_c, 1, 51, 0
1, 15072, Note_on_c, 0, 59, 70
1, 15161, Note_on_c, 0, 59, 0
1, 15168, Note_on_c, 0, 63, 70
1, 15198, Note_on_c, 0, 63, 0
1, 15200, Note_on_c, 0, 61, 70
1, 15230, Note_on_c, 0, 61, 0
1, 15232, Note_on_c, 0, 59, 70
1, 15262, Note_on_c, 0, 59, 0
1, 15264, Note_on_c, 0, 69, 70
1, 15353, Note_on_c, 0, 69, 0
1, 15360, Note_on_c, 1, 51, 70
1, 15360, Note_on_c, 1, 47, 70
1, 15449, Note_on_c, 1, 51, 0
1, 15449, Note_on_c, 1, 47, 0
1, 15456, Note_on_c, 1, 52, 70
1, 15456, Note_on_c, 1, 48, 70
1, 15545, Note_on_c, 1, 52, 0
1, 15545, Note_on_c, 1, 48, 0
1, 15552, Note_on_c, 1, 51, 70
1, 15552, Note_on_c, 1, 47, 70
1, 15641, Note_on_c, 1, 51, 0
1, 15641, Note_on_c, 1, 47, 0
1, 15648, Note_on_c, 0, 59, 70
1, 15737, Note_on_c, 0, 59, 0
1, 15744, Note_on_c, 0, 63, 70
1, 15774, Note_on_c, 0, 63, 0
1, 15776, Note_on_c, 0, 61, 70
1, 15806, Note_on_c, 0, 61, 0
1, 15808, Note_on_c, 0, 59, 70
1, 15838, Note_on_c, 0, 59, 0
1, 15840, Note_on_c, 0, 69, 70
1, 15929, Note_on_c, 0, 69, 0
1, 15936, Note_on_c, 0, 72, 70
1, 15936, Note_on_c, 0, 69, 70
1, 15936, Note_on_c, 1, 51, 70
1, 16025, Note_on_c, 0, 72, 0
1, 16025, Note_on_c, 0, 69, 0
1, 16025, Note_on_c, 1, 51, 0
1, 16032, Note_on_c, 0, 71, 70
1, 16032, Note_on_c, 0, 67, 70
1, 16032, Note_on_c, 1, 52, 70
1, 16121, Note_on_c, 0, 71, 0
1, 16121, Note_on_c, 0, 67, 0
1, 16121, Note_on_c, 1, 52, 0
1, 16128, Note_on_c, 0, 69, 70
1, 16128, Note_on_c, 0, 66, 70
1, 16128, Note_on_c, 1, 57, 70
1, 16217, Note_on_c, 0, 69, 0
1, 16217, Note_on_c, 0, 66, 0
1, 16217, Note_on_c, 1, 57, 0
1, 16224, Note_on_c, 0, 67, 70
1, 16224, Note_on_c, 0, 64, 70
1, 16224, Note_on_c, 1, 59, 70
1, 16313, Note_on_c, 0, 67, 0
1, 16313, Note_on_c, 0, 64, 0
1, 16313, Note_on_c, 1, 59, 0
1, 16320, Note_on_c, 0, 66, 70
1, 16320, Note_on_c, 0, 63, 70
1, 16320, Note_on_c, 1, 47, 70
1, 16409, Note_on_c, 0, 66, 0
1, 16409, Note_on_c, 0, 63, 0
1, 16409, Note_on_c, 1, 47, 0
1, 16416, Note_on_c, 0, 66, 70
1, 16416, Note_on_c, 1, 52, 70
1, 16428, Note_on_c, 0, 66, 0
1, 16428, Note_on_c, 0, 64, 70
1, 16440, Note_on_c, 0, 64, 0
1, 16440, Note_on_c, 0, 63, 70
1, 16452, Note_on_c, 0, 63, 0
1, 16452, Note_on_c, 0, 64, 70
1, 16505, Note_on_c, 1, 52, 0
1, 16512, Note_on_c, 1, 47, 70
1, 16593, Note_on_c, 0, 64, 0
1, 16601, Note_on_c, 1, 47, 0
1, 16608, Note_on_c, 1, 40, 70
1, 16697, Note_on_c, 1, 40, 0
1, 16704, Note_on_c, 1, 52, 70
1, 16704, Note_on_c, 1, 40, 70
1, 16793, Note_on_c, 1, 52, 0
1, 16793, Note_on_c, 1, 40, 0
1, 16800, Note_on_c, 0, 64, 70
1, 16889, Note_on_c, 0, 64, 0
1, 16896, Note_on_c, 0, 67, 70
1, 16926, Note_on_c, 0, 67, 0
1, 16928, Note_on_c, 0, 66, 70
1, 16958, Note_on_c, 0, 66, 0
1, 16960, Note_on_c, 0, 64, 70
1, 16990, Note_on_c, 0, 64, 0
1, 16992, Note_on_c, 0, 71, 70
1, 17081, Note_on_c, 0, 71, 0
1, 17088, Note_on_c, 1, 55, 70
1, 17088, Note_on_c, 1, 52, 70
1, 17177, Note_on_c, 1, 55, 0
1, 17177, Note_on_c, 1, 52, 0
1, 17184, Note_on_c, 1, 57, 70
1, 17184, Note_on_c, 1, 54, 70
1, 17273, Note_on_c, 1, 57, 0
1, 17273, Note_on_c, 1, 54, 0
1, 17280, Note_on_c, 1, 59, 70
1, 17280, Note_on_c, 1, 55, 70
1, 17369, Note_on_c, 1, 59, 0
1, 17369, Note_on_c, 1, 55, 0
1, 17376, Note_on_c, 0, 64, 70
1, 17465, Note_on_c, 0, 64, 0
1, 17472, Note_on_c, 0, 67, 70
1, 17502, Note_on_c, 0, 67, 0
1, 17504, Note_on_c, 0, 66, 70
1, 17534, Note_on_c, 0, 66, 0
1, 17536, Note_on_c, 0, 64, 70
1, 17566, Note_on_c, 0, 64, 0
1, 17568, Note_on_c, 0, 71, 70
1, 17657, Note_on_c, 0, 71, 0
1, 17664, Note_on_c, 1, 51, 70
1, 17664, Note_on_c, 1, 47, 70
1, 17753, Note_on_c, 1, 51, 0
1, 17753, Note_on_c, 1, 47, 0
1, 17760, Note_on_c, 1, 52, 70
1, 17760, Note_on_c, 1, 49, 70
1, 17849, Note_on_c, 1, 52, 0
1, 17849, Note_on_c, 1, 49, 0
1, 17856, Note_on_c, 1, 54, 70
1, 17856, Note_on_c, 1, 51, 70
1, 17945, Note_on_c, 1, 54, 0
1, 17945, Note_on_c, 1, 51, 0
1, 17952, Note_on_c, 0, 59, 70
1, 18041, Note_on_c, 0, 59, 0
1, 18048, Note_on_c, 0, 63, 70
1, 18078, Note_on_c, 0, 63, 0
1, 18080, Note_on_c, 0, 61, 70
1, 18110, Note_on_c, 0, 61, 0
1, 18112, Note_on_c, 0, 59, 70
1, 18142, Note_on_c, 0, 59, 0
1, 18144, Note_on_c, 0, 69, 70
1, 18233, Note_on_c, 0, 69, 0
1, 18240, Note_on_c, 1, 51, 70
1, 18240, Note_on_c, 1, 47, 70
1, 18329, Note_on_c, 1, 51, 0
1, 18329, Note_on_c, 1, 47, 0
1, 18336, Note_on_c, 1, 52, 70
1, 18336, Note_on_c, 1, 48, 70
1, 18425, Note_on_c, 1, 52, 0
1, 18425, Note_on_c, 1, 48, 0
1, 18432, Note_on_c, 1, 51, 70
1, 18432, Note_on_c, 1, 47, 70
1, 18521, Note_on_c, 1, 51, 0
1, 18521, Note_on_c, 1, 47, 0
1, 18528, Note_on_c, 0, 59, 70
1, 18617, Note_on_c, 0, 59, 0
1, 18624, Note_on_c, 0, 63, 70
1, 18654, Note_on_c, 0, 63, 0
1, 18656, Note_on_c, 0, 61, 70
1, 18686, Note_on_c, 0, 61, 0
1, 18688, Note_on_c, 0, 59, 70
1, 18718, Note_on_c, 0, 59, 0
1, 18720, Note_on_c, 0, 69, 70
1, 18809, Note_on_c, 0, 69, 0
1, 18816, Note_on_c, 0, 72, 70
1, 18816, Note_on_c, 0, 69, 70
1, 18816, Note_on_c, 1, 51, 70
1, 18905, Note_on_c, 0, 72, 0
1, 18905, Note_on_c, 0, 69, 0
1, 18905, Note_on_c, 1, 51, 0
1, 18912, Note_on_c, 0, 71, 70
1, 18912, Note_on_c, 0, 67, 70
1, 18912, Note_on_c, 1, 52, 70
1, 19001, Note_on_c, 0, 71, 0
1, 19001, Note_on_c, 0, 67, 0
1, 19001, Note_on_c, 1, 52, 0
1, 19008, Note_on_c, 0, 69, 70
1, 19008, Note_on_c, 0, 66, 70
1, 19008, Note_on_c, 1, 57, 70
1, 19097, Note_on_c, 0, 69, 0
1, 19097, Note_on_c, 0, 66, 0
1, 19097, Note_on_c, 1, 57, 0
1, 19104, Note_on_c, 0, 67, 70
1, 19104, Note_on_c, 0, 64, 70
1, 19104, Note_on_c, 1, 59, 70
1, 19193, Note_on_c, 0, 67, 0
1, 19193, Note_on_c, 0, 64, 0
1, 19193, Note_on_c, 1, 59, 0
1, 19200, Note_on_c, 0, 66, 70
1, 19200, Note_on_c, 0, 63, 70
1, 19200, Note_on_c, 1, 47, 70
1, 19289, Note_on_c, 0, 66, 0
1, 19289, Note_on_c, 0, 63, 0
1, 19289, Note_on_c, 1, 47, 0
1, 19296, Note_on_c, 0, 66, 70
1, 19296, Note_on_c, 1, 52, 70
1, 19308, Note_on_c, 0, 66, 0
1, 19308, Note_on_c, 0, 64, 70
1, 19320, Note_on_c, 0, 64, 0
1, 19320, Note_on_c, 0, 63, 70
1, 19332, Note_on_c, 0, 63, 0
1, 19332, Note_on_c, 0, 64, 70
1, 19385, Note_on_c, 1, 52, 0
1, 19392, Note_on_c, 1, 47, 70
1, 19473, Note_on_c, 0, 64, 0
1, 19481, Note_on_c, 1, 47, 0
1, 19488, Note_on_c, 1, 40, 70
1, 19577, Note_on_c, 1, 40, 0
1, 19584, Note_on_c, 1, 55, 75
1, 19584, Note_on_c, 1, 43, 75
1, 19673, Note_on_c, 1, 55, 0
1, 19673, Note_on_c, 1, 43, 0
1, 19680, Note_on_c, 0, 67, 75
1, 19769, Note_on_c, 0, 67, 0
1, 19776, Note_on_c, 0, 71, 75
1, 19806, Note_on_c, 0, 71, 0
1, 19808, Note_on_c, 0, 69, 75
1, 19838, Note_on_c, 0, 69, 0
1, 19840, Note_on_c, 0, 67, 75
1, 19870, Note_on_c, 0, 67, 0
1, 19872, Note_on_c, 0, 62, 75
1, 19961, Note_on_c, 0, 62, 0
1, 19968, Note_on_c, 1, 62, 75
1, 19968, Note_on_c, 1, 59, 75
1, 20057, Note_on_c, 1, 62, 0
1, 20057, Note_on_c, 1, 59, 0
1, 20064, Note_on_c, 1, 60, 75
1, 20064, Note_on_c, 1, 57, 75
1, 20153, Note_on_c, 1, 60, 0
1, 20153, Note_on_c, 1, 57, 0
1, 20160, Note_on_c, 1, 59, 75
1, 20160, Note_on_c, 1, 55, 75
1, 20249, Note_on_c, 1, 59, 0
1, 20249, Note_on_c, 1, 55, 0
1, 20256, Note_on_c, 0, 67, 75
1, 20345, Note_on_c, 0, 67, 0
1, 20352, Note_on_c, 0, 71, 75
1, 20382, Note_on_c, 0, 71, 0
1, 20384, Note_on_c, 0, 69, 75
1, 20414, Note_on_c, 0, 69, 0
1, 20416, Note_on_c, 0, 67, 75
1, 20446, Note_on_c, 0, 67, 0
1, 20448, Note_on_c, 0, 62, 75
1, 20537, Note_on_c, 0, 62, 0
1, 20544, Note_on_c, 1, 60, 75
1, 20544, Note_on_c, 1, 57, 75
1, 20633, Note_on_c, 1, 60, 0
1, 20633, Note_on_c, 1, 57, 0
1, 20640, Note_on_c, 1, 59, 75
1, 20640, Note_on_c, 1, 55, 75
1, 20729, Note_on_c, 1, 59, 0
1, 20729, Note_on_c, 1, 55, 0
1, 20736, Note_on_c, 1, 57, 75
1, 20736, Note_on_c, 1, 54, 75
1, 20825, Note_on_c, 1, 57, 0
1, 20825, Note_on_c, 1, 54, 0
1, 20832, Note_on_c, 0, 69, 75
1, 20921, Note_on_c, 0, 69, 0
1, 20928, Note_on_c, 0, 72, 75
1, 20958, Note_on_c, 0, 72, 0
1, 20960, Note_on_c, 0, 71, 75
1, 20990, Note_on_c, 0, 71, 0
1, 20992, Note_on_c, 0, 69, 75
1, 21022, Note_on_c, 0, 69, 0
1, 21024, Note_on_c, 0, 62, 75
1, 21024, Note_on_c, 1, 59, 75
1, 21024, Note_on_c, 1, 55, 75
1, 21113, Note_on_c, 0, 62, 0
1, 21120, Note_on_c, 0, 71, 75
1, 21201, Note_on_c, 1, 59, 0
1, 21201, Note_on_c, 1, 55, 0
1, 21209, Note_on_c, 0, 71, 0
1, 21216, Note_on_c, 0, 74, 75
1, 21246, Note_on_c, 0, 74, 0
1, 21248, Note_on_c, 0, 72, 75
1, 21278, Note_on_c, 0, 72, 0
1, 21280, Note_on_c, 0, 71, 75
1, 21310, Note_on_c, 0, 71, 0
1, 21312, Note_on_c, 0, 62, 75
1, 21312, Note_on_c, 1, 57, 75
1, 21312, Note_on_c, 1, 54, 75
1, 21401, Note_on_c, 0, 62, 0
1, 21408, Note_on_c, 0, 69, 75
1, 21489, Note_on_c, 1, 57, 0
1, 21489, Note_on_c, 1, 54, 0
1, 21497, Note_on_c, 0, 69, 0
1, 21504, Note_on_c, 0, 72, 75
1, 21534, Note_on_c, 0, 72, 0
1, 21536, Note_on_c, 0, 71, 75
1, 21566, Note_on_c, 0, 71, 0
1, 21568, Note_on_c, 0, 69, 75
1, 21598, Note_on_c, 0, 69, 0
1, 21600, Note_on_c, 0, 69, 75
1, 21600, Note_on_c, 1, 43, 75
1, 21648, Note_on_c, 0, 69, 0
1, 21648, Note_on_c, 0, 71, 75
1, 21689, Note_on_c, 0, 71, 0
1, 21689, Note_on_c, 1, 43, 0
1, 21696, Note_on_c, 0, 67, 75
1, 21696, Note_on_c, 1, 47, 75
1, 21785, Note_on_c, 0, 67, 0
1, 21785, Note_on_c, 1, 47, 0
1, 21792, Note_on_c, 0, 67, 75
1, 21792, Note_on_c, 1, 50, 75
1, 21807, Note_on_c, 0, 67, 0
1, 21808, Note_on_c, 0, 66, 75
1, 21823, Note_on_c, 0, 66, 0
1, 21824, Note_on_c, 0, 67, 75
1, 21839, Note_on_c, 0, 67, 0
1, 21840, Note_on_c, 0, 66, 75
1, 21855, Note_on_c, 0, 66, 0
1, 21856, Note_on_c, 0, 64, 75
1, 21871, Note_on_c, 0, 64, 0
1, 21872, Note_on_c, 0, 66, 75
1, 21881, Note_on_c, 1, 50, 0
1, 21887, Note_on_c, 0, 66, 0
1, 21888, Note_on_c, 0, 67, 75
1, 21888, Note_on_c, 1, 43, 75
1, 21977, Note_on_c, 1, 43, 0
1, 21984, Note_on_c, 1, 55, 75
1, 21984, Note_on_c, 1, 43, 75
1, 22065, Note_on_c, 0, 67, 0
1, 22073, Note_on_c, 1, 55, 0
1, 22073, Note_on_c, 1, 43, 0
1, 22080, Note_on_c, 1, 54, 75
1, 22080, Note_on_c, 1, 42, 75
1, 22169, Note_on_c, 1, 54, 0
1, 22169, Note_on_c, 1, 42, 0
1, 22176, Note_on_c, 1, 52, 75
1, 22176, Note_on_c, 1, 40, 75
1, 22265, Note_on_c, 1, 52, 0
1, 22265, Note_on_c, 1, 40, 0
1, 22272, Note_on_c, 0, 64, 70
1, 22361, Note_on_c, 0, 64, 0
1, 22368, Note_on_c, 0, 67, 70
1, 22398, Note_on_c, 0, 67, 0
1, 22400, Note_on_c, 0, 66, 70
1, 22430, Note_on_c, 0, 66, 0
1, 22432, Note_on_c, 0, 64, 70
1, 22462, Note_on_c, 0, 64, 0
1, 22464, Note_on_c, 0, 71, 70
1, 22553, Note_on_c, 0, 71, 0
1, 22560, Note_on_c, 1, 55, 70
1, 22560, Note_on_c, 1, 52, 70
1, 22649, Note_on_c, 1, 55, 0
1, 22649, Note_on_c, 1, 52, 0
1, 22656, Note_on_c, 1, 57, 70
1, 22656, Note_on_c, 1, 54, 70
1, 22745, Note_on_c, 1, 57, 0
1, 22745, Note_on_c, 1, 54, 0
1, 22752, Note_on_c, 1, 59, 70
1, 22752, Note_on_c, 1, 55, 70
1, 22841, Note_on_c, 1, 59, 0
1, 22841, Note_on_c, 1, 55, 0
1, 22848, Note_on_c, 0, 64, 70
1, 22937, Note_on_c, 0, 64, 0
1, 22944, Note_on_c, 0, 67, 70
1, 22974, Note_on_c, 0, 67, 0
1, 22976, Note_on_c, 0, 66, 70
1, 23006, Note_on_c, 0, 66, 0
1, 23008, Note_on_c, 0, 64, 70
1, 23038, Note_on_c, 0, 64, 0
1, 23040, Note_on_c, 0, 71, 70
1, 23129, Note_on_c, 0, 71, 0
1, 23136, Note_on_c, 1, 51, 70
1, 23136, Note_on_c, 1, 47, 70
1, 23225, Note_on_c, 1, 51, 0
1, 23225, Note_on_c, 1, 47, 0
1, 23232, Note_on_c, 1, 52, 70
1, 23232, Note_on_c, 1, 49, 70
1, 23321, Note_on_c, 1, 52, 0
1, 23321, Note_on_c, 1, 49, 0
1, 23328, Note_on_c, 1, 54, 70
1, 23328, Note_on_c, 1, 51, 70
1, 23417, Note_on_c, 1, 54, 0
1, 23417, Note_on_c, 1, 51, 0
1, 23424, Note_on_c, 0, 66, 70
1, 23513, Note_on_c, 0, 66, 0
1, 23520, Note_on_c, 0, 69, 70
1, 23550, Note_on_c, 0, 69, 0
1, 23552, Note_on_c, 0, 67, 70
1, 23582, Note_on_c, 0, 67, 0
1, 23584, Note_on_c, 0, 66, 70
1, 23614, Note_on_c, 0, 66, 0
1, 23616, Note_on_c, 0, 63, 70
1, 23705, Note_on_c, 0, 63, 0
1, 23712, Note_on_c, 1, 60, 70
1, 23712, Note_on_c, 1, 57, 70
1, 23801, Note_on_c, 1, 60, 0
1, 23801, Note_on_c, 1, 57, 0
1, 23808, Note_on_c, 1, 59, 70
1, 23808, Note_on_c, 1, 55, 70
1, 23897, Note_on_c, 1, 59, 0
1, 23897, Note_on_c, 1, 55, 0
1, 23904, Note_on_c, 1, 57, 70
1, 23904, Note_on_c, 1, 54, 70
1, 23993, Note_on_c, 1, 57, 0
1, 23993, Note_on_c, 1, 54, 0
1, 24000, Note_on_c, 0, 66, 70
1, 24089, Note_on_c, 0, 66, 0
1, 24096, Note_on_c, 0, 69, 70
1, 24126, Note_on_c, 0, 69, 0
1, 24128, Note_on_c, 0, 67, 70
1, 24158, Note_on_c, 0, 67, 0
1, 24160, Note_on_c, 0, 66, 70
1, 24190, Note_on_c, 0, 66, 0
1, 24192, Note_on_c, 0, 63, 70
1, 24281, Note_on_c, 0, 63, 0
1, 24288, Note_on_c, 1, 60, 70
1, 24288, Note_on_c, 1, 57, 70
1, 24377, Note_on_c, 1, 60, 0
1, 24377, Note_on_c, 1, 57, 0
1, 24384, Note_on_c, 1, 59, 70
1, 24384, Note_on_c, 1, 55, 70
1, 24473, Note_on_c, 1, 59, 0
1, 24473, Note_on_c, 1, 55, 0
1, 24480, Note_on_c, 1, 57, 70
1, 24480, Note_on_c, 1, 54, 70
1, 24569, Note_on_c, 1, 57, 0
1, 24569, Note_on_c, 1, 54, 0
1, 24576, Note_on_c, 0, 69, 70
1, 24665, Note_on_c, 0, 69, 0
1, 24672, Note_on_c, 0, 72, 70
1, 24672, Note_on_c, 1, 63, 70
1, 24672, Note_on_c, 1, 51, 70
1, 24702, Note_on_c, 0, 72, 0
1, 24704, Note_on_c, 0, 71, 70
1, 24734, Note_on_c, 0, 71, 0
1, 24736, Note_on_c, 0, 69, 70
1, 24766, Note_on_c, 0, 69, 0
1, 24768, Note_on_c, 0, 67, 70
1, 24768, Note_on_c, 1, 63, 0
1, 24768, Note_on_c, 1, 51, 0
1, 24768, Note_on_c, 1, 64, 70
1, 24768, Note_on_c, 1, 52, 70
1, 24857, Note_on_c, 0, 67, 0
1, 24857, Note_on_c, 1, 64, 0
1, 24857, Note_on_c, 1, 52, 0
1, 24864, Note_on_c, 0, 71, 70
1, 24953, Note_on_c, 0, 71, 0
1, 24960, Note_on_c, 0, 64, 70
1, 24960, Note_on_c, 1, 55, 70
1, 24960, Note_on_c, 1, 43, 70
1, 24990, Note_on_c, 0, 64, 0
1, 24992, Note_on_c, 0, 66, 70
1, 25022, Note_on_c, 0, 66, 0
1, 25024, Note_on_c, 0, 67, 70
1, 25049, Note_on_c, 1, 55, 0
1, 25049, Note_on_c, 1, 43, 0
1, 25054, Note_on_c, 0, 67, 0
1, 25056, Note_on_c, 0, 66, 70
1, 25056, Note_on_c, 1, 57, 70
1, 25056, Note_on_c, 1, 45, 70
1, 25145, Note_on_c, 0, 66, 0
1, 25145, Note_on_c, 1, 57, 0
1, 25145, Note_on_c, 1, 45, 0
1, 25152, Note_on_c, 0, 64, 70
1, 25152, Note_on_c, 1, 55, 70
1, 25152, Note_on_c, 1, 47, 70
1, 25241, Note_on_c, 0, 64, 0
1, 25241, Note_on_c, 1, 55, 0
1, 25241, Note_on_c, 1, 47, 0
1, 25248, Note_on_c, 0, 64, 70
1, 25248, Note_on_c, 1, 54, 70
1, 25248, Note_on_c, 1, 47, 70
1, 25263, Note_on_c, 0, 64, 0
1, 25264, Note_on_c, 0, 63, 70
1, 25279, Note_on_c, 0, 63, 0
1, 25280, Note_on_c, 0, 64, 70
1, 25295, Note_on_c, 0, 64, 0
1, 25296, Note_on_c, 0, 63, 70
1, 25311, Note_on_c, 0, 63, 0
1, 25312, Note_on_c, 0, 61, 70
1, 25327, Note_on_c, 0, 61, 0
1, 25328, Note_on_c, 0, 63, 70
1, 25337, Note_on_c, 1, 54, 0
1, 25337, Note_on_c, 1, 47, 0
1, 25343, Note_on_c, 0, 63, 0
1, 25344, Note_on_c, 0, 64, 70
1, 25344, Note_on_c, 1, 52, 70
1, 25433, Note_on_c, 1, 52, 0
1, 25440, Note_on_c, 1, 40, 70
1, 25521, Note_on_c, 0, 64, 0
1, 25529, Note_on_c, 1, 40, 0
1, 25632, Note_on_c, 1, 55, 75
1, 25632, Note_on_c, 1, 43, 75
1, 25721, Note_on_c, 1, 55, 0
1, 25721, Note_on_c, 1, 43, 0
1, 25728, Note_on_c, 0, 67, 75
1, 25817, Note_on_c, 0, 67, 0
1, 25824, Note_on_c, 0, 71, 75
1, 25854, Note_on_c, 0, 71, 0
1, 25856, Note_on_c, 0, 69, 75
1, 25886, Note_on_c, 0, 69, 0
1, 25888, Note_on_c, 0, 67, 75
1, 25918, Note_on_c, 0, 67, 0
1, 25920, Note_on_c, 0, 62, 75
1, 26009, Note_on_c, 0, 62, 0
1, 26016, Note_on_c, 1, 62, 75
1, 26016, Note_on_c, 1, 59, 75
1, 26105, Note_on_c, 1, 62, 0
1, 26105, Note_on_c, 1, 59, 0
1, 26112, Note_on_c, 1, 60, 75
1, 26112, Note_on_c, 1, 57, 75
1, 26201, Note_on_c, 1, 60, 0
1, 26201, Note_on_c, 1, 57, 0
1, 26208, Note_on_c, 1, 59, 75
1, 26208, Note_on_c, 1, 55, 75
1, 26297, Note_on_c, 1, 59, 0
1, 26297, Note_on_c, 1, 55, 0
1, 26304, Note_on_c, 0, 67, 75
1, 26393, Note_on_c, 0, 67, 0
1, 26400, Note_on_c, 0, 71, 75
1, 26430, Note_on_c, 0, 71, 0
1, 26432, Note_on_c, 0, 69, 75
1, 26462, Note_on_c, 0, 69, 0
1, 26464, Note_on_c, 0, 67, 75
1, 26494, Note_on_c, 0, 67, 0
1, 26496, Note_on_c, 0, 62, 75
1, 26585, Note_on_c, 0, 62, 0
1, 26592, Note_on_c, 1, 60, 75
1, 26592, Note_on_c, 1, 57, 75
1, 26681, Note_on_c, 1, 60, 0
1, 26681, Note_on_c, 1, 57, 0
1, 26688, Note_on_c, 1, 59, 75
1, 26688, Note_on_c, 1, 55, 75
1, 26777, Note_on_c, 1, 59, 0
1, 26777, Note_on_c, 1, 55, 0
1, 26784, Note_on_c, 1, 57, 75
1, 26784, Note_on_c, 1, 54, 75
1, 26873, Note_on_c, 1, 57, 0
1, 26873, Note_on_c, 1, 54, 0
1, 26880, Note_on_c, 0, 69, 75
1, 26969, Note_on_c, 0, 69, 0
1, 26976, Note_on_c, 0, 72, 75
1, 27006, Note_on_c, 0, 72, 0
1, 27008, Note_on_c, 0, 71, 75
1, 27038, Note_on_c, 0, 71, 0
1, 27040, Note_on_c, 0, 69, 75
1, 27070, Note_on_c, 0, 69, 0
1, 27072, Note_on_c, 0, 62, 75
1, 27072, Note_on_c, 1, 59, 75
1, 27072, Note_on_c, 1, 55, 75
1, 27161, Note_on_c, 0, 62, 0
1, 27168, Note_on_c, 0, 71, 75
1, 27249, Note_on_c, 1, 59, 0
1, 27249, Note_on_c, 1, 55, 0
1, 27257, Note_on_c, 0, 71, 0
1, 27264, Note_on_c, 0, 74, 75
1, 27294, Note_on_c, 0, 74, 0
1, 27296, Note_on_c, 0, 72, 75
1, 27326, Note_on_c, 0, 72, 0
1, 27328, Note_on_c, 0, 71, 75
1, 27358, Note_on_c, 0, 71, 0
1, 27360, Note_on_c, 0, 62, 75
1, 27360, Note_on_c, 1, 57, 75
1, 27360, Note_on_c, 1, 54, 75
1, 27449, Note_on_c, 0, 62, 0
1, 27456, Note_on_c, 0, 69, 75
1, 27537, Note_on_c, 1, 57, 0
1, 27537, Note_on_c, 1, 54, 0
1, 27545, Note_on_c, 0, 69, 0
1, 27552, Note_on_c, 0, 72, 75
1, 27582, Note_on_c, 0, 72, 0
1, 27584, Note_on_c, 0, 71, 75
1, 27614, Note_on_c, 0, 71, 0
1, 27616, Note_on_c, 0, 69, 75
1, 27646, Note_on_c, 0, 69, 0
1, 27648, Note_on_c, 0, 69, 75
1, 27648, Note_on_c, 1, 43, 75
1, 27696, Note_on_c, 0, 69, 0
1, 27696, Note_on_c, 0, 71, 75
1, 27737, Note_on_c, 0, 71, 0
1, 27737, Note_on_c, 1, 43, 0
1, 27744, Note_on_c, 0, 67, 75
1, 27744, Note_on_c, 1, 47, 75
1, 27833, Note_on_c, 0, 67, 0
1, 27833, Note_on_c, 1, 47, 0
1, 27840, Note_on_c, 0, 67, 75
1, 27840, Note_on_c, 1, 50, 75
1, 27855, Note_on_c, 0, 67, 0
1, 27856, Note_on_c, 0, 66, 75
1, 27871, Note_on_c, 0, 66, 0
1, 27872, Note_on_c, 0, 67, 75
1, 27887, Note_on_c, 0, 67, 0
1, 27888, Note_on_c, 0, 66, 75
1, 27903, Note_on_c, 0, 66, 0
1, 27904, Note_on_c, 0, 64, 75
1, 27919, Note_on_c, 0, 64, 0
1, 27920, Note_on_c, 0, 66, 75
1, 27929, Note_on_c, 1, 50, 0
1, 27935, Note_on_c, 0, 66, 0
1, 27936, Note_on_c, 0, 67, 75
1, 27936, Note_on_c, 1, 43, 75
1, 28025, Note_on_c, 1, 43, 0
1, 28032, Note_on_c, 1, 55, 75
1, 28032, Note_on_c, 1, 43, 75
1, 28113, Note_on_c, 0, 67, 0
1, 28121, Note_on_c, 1, 55, 0
1, 28121, Note_on_c, 1, 43, 0
1, 28128, Note_on_c, 1, 54, 75
1, 28128, Note_on_c, 1, 42, 75
1, 28217, Note_on_c, 1, 54, 0
1, 28217, Note_on_c, 1, 42, 0
1, 28224, Note_on_c, 1, 52, 75
1, 28224, Note_on_c, 1, 40, 75
1, 28313, Note_on_c, 1, 52, 0
1, 28313, Note_on_c, 1, 40, 0
1, 28320, Note_on_c, 0, 64, 70
1, 28409, Note_on_c, 0, 64, 0
1, 28416, Note_on_c, 0, 67, 70
1, 28446, Note_on_c, 0, 67, 0
1, 28448, Note_on_c, 0, 66, 70
1, 28478, Note_on_c, 0, 66, 0
1, 28480, Note_on_c, 0, 64, 70
1, 28510, Note_on_c, 0, 64, 0
1, 28512, Note_on_c, 0, 71, 70
1, 28601, Note_on_c, 0, 71, 0
1, 28608, Note_on_c, 1, 55, 70
1, 28608, Note_on_c, 1, 52, 70
1, 28697, Note_on_c, 1, 55, 0
1, 28697, Note_on_c, 1, 52, 0
1, 28704, Note_on_c, 1, 57, 70
1, 28704, Note_on_c, 1, 54, 70
1, 28793, Note_on_c, 1, 57, 0
1, 28793, Note_on_c, 1, 54, 0
1, 28800, Note_on_c, 1, 59, 70
1, 28800, Note_on_c, 1, 55, 70
1, 28889, Note_on_c, 1, 59, 0
1, 28889, Note_on_c, 1, 55, 0
1, 28896, Note_on_c, 0, 64, 70
1, 28985, Note_on_c, 0, 64, 0
1, 28992, Note_on_c, 0, 67, 70
1, 29022, Note_on_c, 0, 67, 0
1, 29024, Note_on_c, 0, 66, 70
1, 29054, Note_on_c, 0, 66, 0
1, 29056, Note_on_c, 0, 64, 70
1, 29086, Note_on_c, 0, 64, 0
1, 29088, Note_on_c, 0, 71, 70
1, 29177, Note_on_c, 0, 71, 0
1, 29184, Note_on_c, 1, 51, 70
1, 29184, Note_on_c, 1, 47, 70
1, 29273, Note_on_c, 1, 51, 0
1, 29273, Note_on_c, 1, 47, 0
1, 29280, Note_on_c, 1, 52, 70
1, 29280, Note_on_c, 1, 49, 70
1, 29369, Note_on_c, 1, 52, 0
1, 29369, Note_on_c, 1, 49, 0
1, 29376, Note_on_c, 1, 54, 70
1, 29376, Note_on_c, 1, 51, 70
1, 29465, Note_on_c, 1, 54, 0
1, 29465, Note_on_c, 1, 51, 0
1, 29472, Note_on_c, 0, 66, 70
1, 29561, Note_on_c, 0, 66, 0
1, 29568, Note_on_c, 0, 69, 70
1, 29598, Note_on_c, 0, 69, 0
1, 29600, Note_on_c, 0, 67, 70
1, 29630, Note_on_c, 0, 67, 0
1, 29632, Note_on_c, 0, 66, 70
1, 29662, Note_on_c, 0, 66, 0
1, 29664, Note_on_c, 0, 63, 70
1, 29753, Note_on_c, 0, 63, 0
1, 29760, Note_on_c, 1, 60, 70
1, 29760, Note_on_c, 1, 57, 70
1, 29849, Note_on_c, 1, 60, 0
1, 29849, Note_on_c, 1, 57, 0
1, 29856, Note_on_c, 1, 59, 70
1, 29856, Note_on_c, 1, 55, 70
1, 29945, Note_on_c, 1, 59, 0
1, 29945, Note_on_c, 1, 55, 0
1, 29952, Note_on_c, 1, 57, 70
1, 29952, Note_on_c, 1, 54, 70
1, 30041, Note_on_c, 1, 57, 0
1, 30041, Note_on_c, 1, 54, 0
1, 30048, Note_on_c, 0, 66, 70
1, 30137, Note_on_c, 0, 66, 0
1, 30144, Note_on_c, 0, 69, 70
1, 30174, Note_on_c, 0, 69, 0
1, 30176, Note_on_c, 0, 67, 70
1, 30206, Note_on_c, 0, 67, 0
1, 30208, Note_on_c, 0, 66, 70
1, 30238, Note_on_c, 0, 66, 0
1, 30240, Note_on_c, 0, 63, 70
1, 30329, Note_on_c, 0, 63, 0
1, 30336, Note_on_c, 1, 60, 70
1, 30336, Note_on_c, 1, 57, 70
1, 30425, Note_on_c, 1, 60, 0
1, 30425, Note_on_c, 1, 57, 0
1, 30432, Note_on_c, 1, 59, 70
1, 30432, Note_on_c, 1, 55, 70
1, 30521, Note_on_c, 1, 59, 0
1, 30521, Note_on_c, 1, 55, 0
1, 30528, Note_on_c, 1, 57, 70
1, 30528, Note_on_c, 1, 54, 70
1, 30617, Note_on_c, 1, 57, 0
1, 30617, Note_on_c, 1, 54, 0
1, 30624, Note_on_c, 0, 69, 70
1, 30713, Note_on_c, 0, 69, 0
1, 30720, Note_on_c, 0, 72, 70
1, 30720, Note_on_c, 1, 63, 70
1, 30720, Note_on_c, 1, 51, 70
1, 30750, Note_on_c, 0, 72, 0
1, 30752, Note_on_c, 0, 71, 70
1, 30782, Note_on_c, 0, 71, 0
1, 30784, Note_on_c, 0, 69, 70
1, 30814, Note_on_c, 0, 69, 0
1, 30816, Note_on_c, 0, 67, 70
1, 30816, Note_on_c, 1, 63, 0
1, 30816, Note_on_c, 1, 51, 0
1, 30816, Note_on_c, 1, 64, 70
1, 30816, Note_on_c, 1, 52, 70
1, 30905, Note_on_c, 0, 67, 0
1, 30905, Note_on_c, 1, 64, 0
1, 30905, Note_on_c, 1, 52, 0
1, 30912, Note_on_c, 0, 71, 70
1, 31001, Note_on_c, 0, 71, 0
1, 31008, Note_on_c, 0, 64, 70
1, 31008, Note_on_c, 1, 55, 70
1, 31008, Note_on_c, 1, 43, 70
1, 31038, Note_on_c, 0, 64, 0
1, 31040, Note_on_c, 0, 66, 70
1, 31070, Note_on_c, 0, 66, 0
1, 31072, Note_on_c, 0, 67, 70
1, 31097, Note_on_c, 1, 55, 0
1, 31097, Note_on_c, 1, 43, 0
1, 31102, Note_on_c, 0, 67, 0
1, 31104, Note_on_c, 0, 66, 70
1, 31104, Note_on_c, 1, 57, 70
1, 31104, Note_on_c, 1, 45, 70
1, 31193, Note_on_c, 0, 66, 0
1, 31193, Note_on_c, 1, 57, 0
1, 31193, Note_on_c, 1, 45, 0
1, 31200, Note_on_c, 0, 64, 70
1, 31200, Note_on_c, 1, 55, 70
1, 31200, Note_on_c, 1, 47, 70
1, 31289, Note_on_c, 0, 64, 0
1, 31289, Note_on_c, 1, 55, 0
1, 31289, Note_on_c, 1, 47, 0
1, 31296, Note_on_c, 0, 64, 70
1, 31296, Note_on_c, 1, 54, 70
1, 31296, Note_on_c, 1, 47, 70
1, 31311, Note_on_c, 0, 64, 0
1, 31312, Note_on_c, 0, 63, 70
1, 31327, Note_on_c, 0, 63, 0
1, 31328, Note_on_c, 0, 64, 70
1, 31343, Note_on_c, 0, 64, 0
1, 31344, Note_on_c, 0, 63, 70
1, 31359, Note_on_c, 0, 63, 0
1, 31360, Note_on_c, 0, 61, 70
1, 31375, Note_on_c, 0, 61, 0
1, 31376, Note_on_c, 0, 63, 70
1, 31385, Note_on_c, 1, 54, 0
1, 31385, Note_on_c, 1, 47, 0
1, 31391, Note_on_c, 0, 63, 0
1, 31392, Note_on_c, 0, 64, 70
1, 31392, Note_on_c, 1, 52, 70
1, 31481, Note_on_c, 1, 52, 0
1, 31488, Note_on_c, 1, 40, 70
1, 31569, Note_on_c, 0, 64, 0
1, 31577, Note_on_c, 1, 40, 0
1, 31680, Note_on_c, 0, 67, 80
1, 31680, Note_on_c, 1, 55, 80
1, 31680, Note_on_c, 1, 43, 80
1, 31769, Note_on_c, 0, 67, 0
1, 31769, Note_on_c, 1, 55, 0
1, 31769, Note_on_c, 1, 43, 0
1, 31776, Note_on_c, 0, 67, 80
1, 31776, Note_on_c, 1, 55, 80
1, 31821, Note_on_c, 0, 67, 0
1, 31821, Note_on_c, 1, 55, 0
1, 31824, Note_on_c, 0, 66, 80
1, 31824, Note_on_c, 1, 54, 80
1, 31869, Note_on_c, 0, 66, 0
1, 31869, Note_on_c, 1, 54, 0
1, 31872, Note_on_c, 0, 67, 80
1, 31872, Note_on_c, 1, 55, 80
1, 31917, Note_on_c, 0, 67, 0
1, 31917, Note_on_c, 1, 55, 0
1, 31920, Note_on_c, 0, 69, 80
1, 31920, Note_on_c, 1, 57, 80
1, 31965, Note_on_c, 0, 69, 0
1, 31965, Note_on_c, 1, 57, 0
1, 31968, Note_on_c, 0, 71, 80
1, 31968, Note_on_c, 1, 59, 80
1, 32007, Note_on_c, 0, 71, 0
1, 32007, Note_on_c, 1, 59, 0
1, 32064, Note_on_c, 0, 67, 80
1, 32064, Note_on_c, 1, 55, 80
1, 32103, Note_on_c, 0, 67, 0
1, 32103, Note_on_c, 1, 55, 0
1, 32160, Note_on_c, 0, 74, 80
1, 32160, Note_on_c, 1, 62, 80
1, 32205, Note_on_c, 0, 74, 0
1, 32205, Note_on_c, 1, 62, 0
1, 32208, Note_on_c, 0, 71, 80
1, 32208, Note_on_c, 1, 59, 80
1, 32253, Note_on_c, 0, 71, 0
1, 32253, Note_on_c, 1, 59, 0
1, 32256, Note_on_c, 0, 67, 80
1, 32256, Note_on_c, 1, 55, 80
1, 32295, Note_on_c, 0, 67, 0
1, 32295, Note_on_c, 1, 55, 0
1, 32352, Note_on_c, 0, 62, 80
1, 32352, Note_on_c, 1, 50, 80
1, 32391, Note_on_c, 0, 62, 0
1, 32391, Note_on_c, 1, 50, 0
1, 32448, Note_on_c, 0, 71, 80
1, 32448, Note_on_c, 1, 59, 80
1, 32487, Note_on_c, 0, 71, 0
1, 32487, Note_on_c, 1, 59, 0
1, 32544, Note_on_c, 0, 67, 80
1, 32544, Note_on_c, 1, 55, 80
1, 32561, Note_on_c, 0, 67, 0
1, 32562, Note_on_c, 0, 69, 80
1, 32579, Note_on_c, 0, 69, 0
1, 32580, Note_on_c, 0, 67, 80
1, 32597, Note_on_c, 0, 67, 0
1, 32598, Note_on_c, 0, 69, 80
1, 32615, Note_on_c, 0, 69, 0
1, 32616, Note_on_c, 0, 67, 80
1, 32633, Note_on_c, 0, 67, 0
1, 32634, Note_on_c, 0, 69, 80
1, 32650, Note_on_c, 0, 69, 0
1, 32651, Note_on_c, 0, 67, 80
1, 32667, Note_on_c, 0, 67, 0
1, 32668, Note_on_c, 0, 69, 80
1, 32684, Note_on_c, 0, 69, 0
1, 32685, Note_on_c, 0, 67, 80
1, 32701, Note_on_c, 0, 67, 0
1, 32702, Note_on_c, 0, 66, 80
1, 32718, Note_on_c, 0, 66, 0
1, 32719, Note_on_c, 0, 67, 80
1, 32721, Note_on_c, 1, 55, 0
1, 32735, Note_on_c, 0, 67, 0
1, 32736, Note_on_c, 0, 83, 75
1, 32736, Note_on_c, 1, 62, 75
1, 32736, Note_on_c, 1, 55, 75
1, 32781, Note_on_c, 0, 83, 0
1, 32784, Note_on_c, 0, 74, 75
1, 32825, Note_on_c, 1, 62, 0
1, 32825, Note_on_c, 1, 55, 0
1, 32829, Note_on_c, 0, 74, 0
1, 32832, Note_on_c, 0, 84, 91
1, 32832, Note_on_c, 1, 62, 75
1, 32832, Note_on_c, 1, 54, 75
1, 32880, Note_on_c, 0, 84, 0
1, 32880, Note_on_c, 0, 81, 75
1, 32925, Note_on_c, 0, 81, 0
1, 32928, Note_on_c, 0, 78, 75
1, 32973, Note_on_c, 0, 78, 0
1, 32976, Note_on_c, 0, 74, 75
1, 33009, Note_on_c, 1, 62, 0
1, 33009, Note_on_c, 1, 54, 0
1, 33021, Note_on_c, 0, 74, 0
1, 33024, Note_on_c, 0, 83, 91
1, 33024, Note_on_c, 1, 62, 75
1, 33024, Note_on_c, 1, 55, 75
1, 33072, Note_on_c, 0, 83, 0
1, 33072, Note_on_c, 0, 79, 75
1, 33113, Note_on_c, 1, 62, 0
1, 33113, Note_on_c, 1, 55, 0
1, 33117, Note_on_c, 0, 79, 0
1, 33120, Note_on_c, 0, 84, 91
1, 33120, Note_on_c, 1, 62, 75
1, 33120, Note_on_c, 1, 54, 75
1, 33168, Note_on_c, 0, 84, 0
1, 33168, Note_on_c, 0, 81, 75
1, 33213, Note_on_c, 0, 81, 0
1, 33216, Note_on_c, 0, 78, 75
1, 33261, Note_on_c, 0, 78, 0
1, 33264, Note_on_c, 0, 74, 75
1, 33297, Note_on_c, 1, 62, 0
1, 33297, Note_on_c, 1, 54, 0
1, 33309, Note_on_c, 0, 74, 0
1, 33312, Note_on_c, 0, 83, 91
1, 33312, Note_on_c, 1, 62, 75
1, 33312, Note_on_c, 1, 55, 75
1, 33360, Note_on_c, 0, 83, 0
1, 33360, Note_on_c, 0, 79, 75
1, 33401, Note_on_c, 1, 62, 0
1, 33401, Note_on_c, 1, 55, 0
1, 33405, Note_on_c, 0, 79, 0
1, 33408, Note_on_c, 0, 74, 75
1, 33408, Note_on_c, 0, 71, 75
1, 33408, Note_on_c, 1, 59, 75
1, 33497, Note_on_c, 0, 74, 0
1, 33497, Note_on_c, 0, 71, 0
1, 33497, Note_on_c, 1, 59, 0
1, 33504, Note_on_c, 0, 72, 75
1, 33504, Note_on_c, 0, 69, 75
1, 33504, Note_on_c, 1, 60, 75
1, 33593, Note_on_c, 0, 72, 0
1, 33593, Note_on_c, 0, 69, 0
1, 33593, Note_on_c, 1, 60, 0
1, 33600, Note_on_c, 0, 71, 75
1, 33600, Note_on_c, 0, 67, 75
1, 33600, Note_on_c, 1, 61, 75
1, 33689, Note_on_c, 0, 71, 0
1, 33689, Note_on_c, 0, 67, 0
1, 33689, Note_on_c, 1, 61, 0
1, 33696, Note_on_c, 0, 69, 75
1, 33696, Note_on_c, 0, 66, 75
1, 33696, Note_on_c, 1, 62, 75
1, 33785, Note_on_c, 0, 69, 0
1, 33785, Note_on_c, 0, 66, 0
1, 33785, Note_on_c, 1, 62, 0
1, 33792, Note_on_c, 1, 50, 75
1, 33881, Note_on_c, 1, 50, 0
1, 33984, Note_on_c, 0, 67, 80
1, 33984, Note_on_c, 1, 55, 80
1, 33984, Note_on_c, 1, 43, 80
1, 34073, Note_on_c, 0, 67, 0
1, 34073, Note_on_c, 1, 55, 0
1, 34073, Note_on_c, 1, 43, 0
1, 34080, Note_on_c, 0, 67, 80
1, 34080, Note_on_c, 1, 55, 80
1, 34125, Note_on_c, 0, 67, 0
1, 34125, Note_on_c, 1, 55, 0
1, 34128, Note_on_c, 0, 66, 80
1, 34128, Note_on_c, 1, 54, 80
1, 34173, Note_on_c, 0, 66, 0
1, 34173, Note_on_c, 1, 54, 0
1, 34176, Note_on_c, 0, 67, 80
1, 34176, Note_on_c, 1, 55, 80
1, 34221, Note_on_c, 0, 67, 0
1, 34221, Note_on_c, 1, 55, 0
1, 34224, Note_on_c, 0, 69, 80
1, 34224, Note_on_c, 1, 57, 80
1, 34269, Note_on_c, 0, 69, 0
1, 34269, Note_on_c, 1, 57, 0
1, 34272, Note_on_c, 0, 71, 80
1, 34272, Note_on_c, 1, 59, 80
1, 34311, Note_on_c, 0, 71, 0
1, 34311, Note_on_c, 1, 59, 0
1, 34368, Note_on_c, 0, 67, 80
1, 34368, Note_on_c, 1, 55, 80
1, 34407, Note_on_c, 0, 67, 0
1, 34407, Note_on_c, 1, 55, 0
1, 34464, Note_on_c, 0, 74, 80
1, 34464, Note_on_c, 1, 62, 80
1, 34509, Note_on_c, 0, 74, 0
1, 34509, Note_on_c, 1, 62, 0
1, 34512, Note_on_c, 0, 71, 80
1, 34512, Note_on_c, 1, 59, 80
1, 34557, Note_on_c, 0, 71, 0
1, 34557, Note_on_c, 1, 59, 0
1, 34560, Note_on_c, 0, 67, 80
1, 34560, Note_on_c, 1, 55, 80
1, 34599, Note_on_c, 0, 67, 0
1, 34599, Note_on_c, 1, 55, 0
1, 34656, Note_on_c, 0, 62, 80
1, 34656, Note_on_c, 1, 50, 80
1, 34695, Note_on_c, 0, 62, 0
1, 34695, Note_on_c, 1, 50, 0
1, 34752, Note_on_c, 0, 71, 80
1, 34752, Note_on_c, 1, 59, 80
1, 34791, Note_on_c, 0, 71, 0
1, 34791, Note_on_c, 1, 59, 0
1, 34848, Note_on_c, 0, 67, 80
1, 34848, Note_on_c, 1, 55, 80
1, 34865, Note_on_c, 0, 67, 0
1, 34866, Note_on_c, 0, 69, 80
1, 34883, Note_on_c, 0, 69, 0
1, 34884, Note_on_c, 0, 67, 80
1, 34901, Note_on_c, 0, 67, 0
1, 34902, Note_on_c, 0, 69, 80
1, 34919, Note_on_c, 0, 69, 0
1, 34920, Note_on_c, 0, 67, 80
1, 34937, Note_on_c, 0, 67, 0
1, 34938, Note_on_c, 0, 69, 80
1, 34954, Note_on_c, 0, 69, 0
1, 34955, Note_on_c, 0, 67, 80
1, 34971, Note_on_c, 0, 67, 0
1, 34972, Note_on_c, 0, 69, 80
1, 34988, Note_on_c, 0, 69, 0
1, 34989, Note_on_c, 0, 67, 80
1, 35005, Note_on_c, 0, 67, 0
1, 35006, Note_on_c, 0, 66, 80
1, 35022, Note_on_c, 0, 66, 0
1, 35023, Note_on_c, 0, 67, 80
1, 35025, Note_on_c, 1, 55, 0
1, 35039, Note_on_c, 0, 67, 0
1, 35040, Note_on_c, 0, 83, 75
1, 35040, Note_on_c, 1, 62, 75
1, 35040, Note_on_c, 1, 55, 75
1, 35085, Note_on_c, 0, 83, 0
1, 35088, Note_on_c, 0, 74, 75
1, 35129, Note_on_c, 1, 62, 0
1, 35129, Note_on_c, 1, 55, 0
1, 35133, Note_on_c, 0, 74, 0
1, 35136, Note_on_c, 0, 84, 91
1, 35136, Note_on_c, 1, 62, 75
1, 35136, Note_on_c, 1, 54, 75
1, 35184, Note_on_c, 0, 84, 0
1, 35184, Note_on_c, 0, 81, 75
1, 35229, Note_on_c, 0, 81, 0
1, 35232, Note_on_c, 0, 78, 75
1, 35277, Note_on_c, 0, 78, 0
1, 35280, Note_on_c, 0, 74, 75
1, 35313, Note_on_c, 1, 62, 0
1, 35313, Note_on_c, 1, 54, 0
1, 35325, Note_on_c, 0, 74, 0
1, 35328, Note_on_c, 0, 83, 91
1, 35328, Note_on_c, 1, 62, 75
1, 35328, Note_on_c, 1, 55, 75
1, 35376, Note_on_c, 0, 83, 0
1, 35376, Note_on_c, 0, 79, 75
1, 35417, Note_on_c, 1, 62, 0
1, 35417, Note_on_c, 1, 55, 0
1, 35421, Note_on_c, 0, 79, 0
1, 35424, Note_on_c, 0, 84, 91
1, 35424, Note_on_c, 1, 62, 75
1, 35424, Note_on_c, 1, 54, 75
1, 35472, Note_on_c, 0, 84, 0
1, 35472, Note_on_c, 0, 81, 75
1, 35517, Note_on_c, 0, 81, 0
1, 35520, Note_on_c, 0, 78, 75
1, 35565, Note_on_c, 0, 78, 0
1, 35568, Note_on_c, 0, 74, 75
1, 35601, Note_on_c, 1, 62, 0
1, 35601, Note_on_c, 1, 54, 0
1, 35613, Note_on_c, 0, 74, 0
1, 35616, Note_on_c, 0, 83, 91
1, 35616, Note_on_c, 1, 62, 75
1, 35616, Note_on_c, 1, 55, 75
1, 35664, Note_on_c, 0, 83, 0
1, 35664, Note_on_c, 0, 79, 75
1, 35705, Note_on_c, 1, 62, 0
1, 35705, Note_on_c, 1, 55, 0
1, 35709, Note_on_c, 0, 79, 0
1, 35712, Note_on_c, 0, 74, 75
1, 35712, Note_on_c, 0, 71, 75
1, 35712, Note_on_c, 1, 59, 75
1, 35801, Note_on_c, 0, 74, 0
1, 35801, Note_on_c, 0, 71, 0
1, 35801, Note_on_c, 1, 59, 0
1, 35808, Note_on_c, 0, 72, 75
1, 35808, Note_on_c, 0, 69, 75
1, 35808, Note_on_c, 1, 60, 75
1, 35897, Note_on_c, 0, 72, 0
1, 35897, Note_on_c, 0, 69, 0
1, 35897, Note_on_c, 1, 60, 0
1, 35904, Note_on_c, 0, 71, 75
1, 35904, Note_on_c, 0, 67, 75
1, 35904, Note_on_c, 1, 61, 75
1, 35993, Note_on_c, 0, 71, 0
1, 35993, Note_on_c, 0, 67, 0
1, 35993, Note_on_c, 1, 61, 0
1, 36000, Note_on_c, 0, 69, 75
1, 36000, Note_on_c, 0, 66, 75
1, 36000, Note_on_c, 1, 62, 75
1, 36089, Note_on_c, 0, 69, 0
1, 36089, Note_on_c, 0, 66, 0
1, 36089, Note_on_c, 1, 62, 0
1, 36096, Note_on_c, 1, 50, 75
1, 36185, Note_on_c, 1, 50, 0
1, 36288, Note_on_c, 0, 74, 75
1, 36288, Note_on_c, 1, 62, 75
1, 36288, Note_on_c, 1, 50, 75
1, 36377, Note_on_c, 0, 74, 0
1, 36377, Note_on_c, 1, 62, 0
1, 36377, Note_on_c, 1, 50, 0
1, 36384, Note_on_c, 0, 78, 75
1, 36429, Note_on_c, 0, 78, 0
1, 36432, Note_on_c, 0, 76, 75
1, 36477, Note_on_c, 0, 76, 0
1, 36480, Note_on_c, 0, 78, 75
1, 36525, Note_on_c, 0, 78, 0
1, 36528, Note_on_c, 0, 79, 75
1, 36573, Note_on_c, 0, 79, 0
1, 36576, Note_on_c, 0, 81, 75
1, 36576, Note_on_c, 1, 54, 75
1, 36621, Note_on_c, 1, 54, 0
1, 36624, Note_on_c, 1, 62, 75
1, 36669, Note_on_c, 1, 62, 0
1, 36672, Note_on_c, 1, 57, 75
1, 36717, Note_on_c, 1, 57, 0
1, 36720, Note_on_c, 1, 62, 75
1, 36753, Note_on_c, 0, 81, 0
1, 36765, Note_on_c, 1, 62, 0
1, 36768, Note_on_c, 0, 84, 75
1, 36768, Note_on_c, 1, 54, 75
1, 36813, Note_on_c, 0, 84, 0
1, 36813, Note_on_c, 1, 54, 0
1, 36816, Note_on_c, 0, 81, 75
1, 36816, Note_on_c, 1, 62, 75
1, 36861, Note_on_c, 0, 81, 0
1, 36861, Note_on_c, 1, 62, 0
1, 36864, Note_on_c, 0, 83, 75
1, 36864, Note_on_c, 1, 55, 75
1, 36909, Note_on_c, 1, 55, 0
1, 36912, Note_on_c, 1, 62, 75
1, 36953, Note_on_c, 0, 83, 0
1, 36957, Note_on_c, 1, 62, 0
1, 36960, Note_on_c, 0, 79, 75
1, 36960, Note_on_c, 1, 59, 75
1, 37005, Note_on_c, 1, 59, 0
1, 37008, Note_on_c, 1, 62, 75
1, 37049, Note_on_c, 0, 79, 0
1, 37053, Note_on_c, 1, 62, 0
1, 37056, Note_on_c, 0, 86, 75
1, 37056, Note_on_c, 1, 55, 75
1, 37101, Note_on_c, 1, 55, 0
1, 37104, Note_on_c, 1, 62, 75
1, 37145, Note_on_c, 0, 86, 0
1, 37149, Note_on_c, 1, 62, 0
1, 37152, Note_on_c, 0, 79, 75
1, 37152, Note_on_c, 1, 57, 75
1, 37169, Note_on_c, 0, 79, 0
1, 37170, Note_on_c, 0, 78, 75
1, 37187, Note_on_c, 0, 78, 0
1, 37188, Note_on_c, 0, 79, 75
1, 37197, Note_on_c, 1, 57, 0
1, 37200, Note_on_c, 1, 62, 75
1, 37205, Note_on_c, 0, 79, 0
1, 37206, Note_on_c, 0, 78, 75
1, 37223, Note_on_c, 0, 78, 0
1, 37224, Note_on_c, 0, 79, 75
1, 37241, Note_on_c, 0, 79, 0
1, 37242, Note_on_c, 0, 78, 75
1, 37245, Note_on_c, 1, 62, 0
1, 37248, Note_on_c, 1, 60, 75
1, 37258, Note_on_c, 0, 78, 0
1, 37259, Note_on_c, 0, 79, 75
1, 37275, Note_on_c, 0, 79, 0
1, 37276, Note_on_c, 0, 78, 75
1, 37292, Note_on_c, 0, 78, 0
1, 37293, Note_on_c, 0, 79, 75
1, 37293, Note_on_c, 1, 60, 0
1, 37296, Note_on_c, 1, 62, 75
1, 37309, Note_on_c, 0, 79, 0
1, 37310, Note_on_c, 0, 78, 75
1, 37326, Note_on_c, 0, 78, 0
1, 37327, Note_on_c, 0, 79, 75
1, 37341, Note_on_c, 1, 62, 0
1, 37343, Note_on_c, 0, 79, 0
1, 37344, Note_on_c, 0, 81, 75
1, 37344, Note_on_c, 1, 57, 75
1, 37389, Note_on_c, 0, 81, 0
1, 37389, Note_on_c, 1, 57, 0
1, 37392, Note_on_c, 0, 78, 75
1, 37392, Note_on_c, 1, 62, 75
1, 37437, Note_on_c, 0, 78, 0
1, 37437, Note_on_c, 1, 62, 0
1, 37440, Note_on_c, 0, 79, 75
1, 37440, Note_on_c, 1, 59, 75
1, 37485, Note_on_c, 0, 79, 0
1, 37488, Note_on_c, 0, 74, 75
1, 37529, Note_on_c, 1, 59, 0
1, 37533, Note_on_c, 0, 74, 0
1, 37536, Note_on_c, 0, 83, 75
1, 37581, Note_on_c, 0, 83, 0
1, 37584, Note_on_c, 0, 79, 75
1, 37629, Note_on_c, 0, 79, 0
1, 37632, Note_on_c, 0, 86, 75
1, 37677, Note_on_c, 0, 86, 0
1, 37680, Note_on_c, 0, 83, 75
1, 37725, Note_on_c, 0, 83, 0
1, 37728, Note_on_c, 0, 81, 75
1, 37728, Note_on_c, 1, 54, 75
1, 37773, Note_on_c, 1, 54, 0
1, 37776, Note_on_c, 1, 62, 75
1, 37817, Note_on_c, 0, 81, 0
1, 37821, Note_on_c, 1, 62, 0
1, 37824, Note_on_c, 0, 84, 75
1, 37824, Note_on_c, 1, 57, 75
1, 37869, Note_on_c, 1, 57, 0
1, 37872, Note_on_c, 1, 62, 75
1, 37913, Note_on_c, 0, 84, 0
1, 37917, Note_on_c, 1, 62, 0
1, 37920, Note_on_c, 0, 83, 75
1, 37920, Note_on_c, 1, 55, 75
1, 37965, Note_on_c, 0, 83, 0
1, 37965, Note_on_c, 1, 55, 0
1, 37968, Note_on_c, 0, 79, 75
1, 37968, Note_on_c, 1, 62, 75
1, 38013, Note_on_c, 0, 79, 0
1, 38013, Note_on_c, 1, 62, 0
1, 38016, Note_on_c, 0, 74, 75
1, 38016, Note_on_c, 1, 54, 75
1, 38061, Note_on_c, 1, 54, 0
1, 38064, Note_on_c, 1, 62, 75
1, 38105, Note_on_c, 0, 74, 0
1, 38109, Note_on_c, 1, 62, 0
1, 38112, Note_on_c, 0, 84, 75
1, 38112, Note_on_c, 1, 57, 75
1, 38157, Note_on_c, 1, 57, 0
1, 38160, Note_on_c, 1, 62, 75
1, 38201, Note_on_c, 0, 84, 0
1, 38205, Note_on_c, 1, 62, 0
1, 38208, Note_on_c, 0, 83, 75
1, 38208, Note_on_c, 1, 55, 75
1, 38253, Note_on_c, 0, 83, 0
1, 38253, Note_on_c, 1, 55, 0
1, 38256, Note_on_c, 0, 79, 75
1, 38256, Note_on_c, 1, 62, 75
1, 38301, Note_on_c, 0, 79, 0
1, 38301, Note_on_c, 1, 62, 0
1, 38304, Note_on_c, 0, 74, 75
1, 38304, Note_on_c, 1, 50, 75
1, 38393, Note_on_c, 0, 74, 0
1, 38393, Note_on_c, 1, 50, 0
1, 38592, Note_on_c, 0, 67, 80
1, 38592, Note_on_c, 1, 55, 80
1, 38592, Note_on_c, 1, 43, 80
1, 38681, Note_on_c, 0, 67, 0
1, 38681, Note_on_c, 1, 55, 0
1, 38681, Note_on_c, 1, 43, 0
1, 38688, Note_on_c, 0, 67, 80
1, 38688, Note_on_c, 1, 55, 80
1, 38733, Note_on_c, 0, 67, 0
1, 38733, Note_on_c, 1, 55, 0
1, 38736, Note_on_c, 0, 66, 80
1, 38736, Note_on_c, 1, 54, 80
1, 38781, Note_on_c, 0, 66, 0
1, 38781, Note_on_c, 1, 54, 0
1, 38784, Note_on_c, 0, 67, 80
1, 38784, Note_on_c, 1, 55, 80
1, 38829, Note_on_c, 0, 67, 0
1, 38829, Note_on_c, 1, 55, 0
1, 38832, Note_on_c, 0, 69, 80
1, 38832, Note_on_c, 1, 57, 80
1, 38877, Note_on_c, 0, 69, 0
1, 38877, Note_on_c, 1, 57, 0
1, 38880, Note_on_c, 0, 71, 80
1, 38880, Note_on_c, 1, 59, 80
1, 38919, Note_on_c, 0, 71, 0
1, 38919, Note_on_c, 1, 59, 0
1, 38976, Note_on_c, 0, 67, 80
1, 38976, Note_on_c, 1, 55, 80
1, 39015, Note_on_c, 0, 67, 0
1, 39015, Note_on_c, 1, 55, 0
1, 39072, Note_on_c, 0, 74, 80
1, 39072, Note_on_c, 1, 62, 80
1, 39117, Note_on_c, 0, 74, 0
1, 39117, Note_on_c, 1, 62, 0
1, 39120, Note_on_c, 0, 71, 80
1, 39120, Note_on_c, 1, 59, 80
1, 39165, Note_on_c, 0, 71, 0
1, 39165, Note_on_c, 1, 59, 0
1, 39168, Note_on_c, 0, 67, 80
1, 39168, Note_on_c, 1, 55, 80
1, 39207, Note_on_c, 0, 67, 0
1, 39207, Note_on_c, 1, 55, 0
1, 39264, Note_on_c, 0, 62, 80
1, 39264, Note_on_c, 1, 50, 80
1, 39303, Note_on_c, 0, 62, 0
1, 39303, Note_on_c, 1, 50, 0
1, 39360, Note_on_c, 0, 71, 80
1, 39360, Note_on_c, 1, 59, 80
1, 39399, Note_on_c, 0, 71, 0
1, 39399, Note_on_c, 1, 59, 0
1, 39456, Note_on_c, 0, 67, 80
1, 39456, Note_on_c, 1, 55, 80
1, 39473, Note_on_c, 0, 67, 0
1, 39474, Note_on_c, 0, 69, 80
1, 39491, Note_on_c, 0, 69, 0
1, 39492, Note_on_c, 0, 67, 80
1, 39509, Note_on_c, 0, 67, 0
1, 39510, Note_on_c, 0, 69, 80
1, 39527, Note_on_c, 0, 69, 0
1, 39528, Note_on_c, 0, 67, 80
1, 39545, Note_on_c, 0, 67, 0
1, 39546, Note_on_c, 0, 69, 80
1, 39562, Note_on_c, 0, 69, 0
1, 39563, Note_on_c, 0, 67, 80
1, 39579, Note_on_c, 0, 67, 0
1, 39580, Note_on_c, 0, 69, 80
1, 39596, Note_on_c, 0, 69, 0
1, 39597, Note_on_c, 0, 67, 80
1, 39613, Note_on_c, 0, 67, 0
1, 39614, Note_on_c, 0, 66, 80
1, 39630, Note_on_c, 0, 66, 0
1, 39631, Note_on_c, 0, 67, 80
1, 39633, Note_on_c, 1, 55, 0
1, 39647, Note_on_c, 0, 67, 0
1, 39648, Note_on_c, 0, 83, 75
1, 39648, Note_on_c, 1, 62, 75
1, 39648, Note_on_c, 1, 55, 75
1, 39693, Note_on_c, 0, 83, 0
1, 39696, Note_on_c, 0, 74, 75
1, 39737, Note_on_c, 1, 62, 0
1, 39737, Note_on_c, 1, 55, 0
1, 39741, Note_on_c, 0, 74, 0
1, 39744, Note_on_c, 0, 84, 91
1, 39744, Note_on_c, 1, 62, 75
1, 39744, Note_on_c, 1, 54, 75
1, 39792, Note_on_c, 0, 84, 0
1, 39792, Note_on_c, 0, 81, 75
1, 39837, Note_on_c, 0, 81, 0
1, 39840, Note_on_c, 0, 78, 75
1, 39885, Note_on_c, 0, 78, 0
1, 39888, Note_on_c, 0, 74, 75
1, 39921, Note_on_c, 1, 62, 0
1, 39921, Note_on_c, 1, 54, 0
1, 39933, Note_on_c, 0, 74, 0
1, 39936, Note_on_c, 0, 83, 91
1, 39936, Note_on_c, 1, 62, 75
1, 39936, Note_on_c, 1, 55, 75
1, 39984, Note_on_c, 0, 83, 0
1, 39984, Note_on_c, 0, 79, 75
1, 40025, Note_on_c, 1, 62, 0
1, 40025, Note_on_c, 1, 55, 0
1, 40029, Note_on_c, 0, 79, 0
1, 40032, Note_on_c, 0, 84, 91
1, 40032, Note_on_c, 1, 62, 75
1, 40032, Note_on_c, 1, 54, 75
1, 40080, Note_on_c, 0, 84, 0
1, 40080, Note_on_c, 0, 81, 75
1, 40125, Note_on_c, 0, 81, 0
1, 40128, Note_on_c, 0, 78, 75
1, 40173, Note_on_c, 0, 78, 0
1, 40176, Note_on_c, 0, 74, 75
1, 40209, Note_on_c, 1, 62, 0
1, 40209, Note_on_c, 1, 54, 0
1, 40221, Note_on_c, 0, 74, 0
1, 40224, Note_on_c, 0, 83, 91
1, 40224, Note_on_c, 1, 62, 75
1, 40224, Note_on_c, 1, 55, 75
1, 40272, Note_on_c, 0, 83, 0
1, 40272, Note_on_c, 0, 79, 75
1, 40313, Note_on_c, 1, 62, 0
1, 40313, Note_on_c, 1, 55, 0
1, 40317, Note_on_c, 0, 79, 0
1, 40320, Note_on_c, 0, 81, 75
1, 40320, Note_on_c, 0, 72, 75
1, 40320, Note_on_c, 1, 60, 75
1, 40409, Note_on_c, 0, 81, 0
1, 40409, Note_on_c, 0, 72, 0
1, 40409, Note_on_c, 1, 60, 0
1, 40416, Note_on_c, 0, 79, 75
1, 40416, Note_on_c, 0, 71, 75
1, 40416, Note_on_c, 1, 62, 75
1, 40505, Note_on_c, 0, 79, 0
1, 40505, Note_on_c, 0, 71, 0
1, 40505, Note_on_c, 1, 62, 0
1, 40512, Note_on_c, 0, 78, 75
1, 40512, Note_on_c, 0, 69, 75
1, 40512, Note_on_c, 1, 50, 75
1, 40601, Note_on_c, 0, 78, 0
1, 40601, Note_on_c, 0, 69, 0
1, 40601, Note_on_c, 1, 50, 0
1, 40608, Note_on_c, 0, 79, 75
1, 40608, Note_on_c, 0, 67, 75
1, 40608, Note_on_c, 1, 55, 75
1, 40697, Note_on_c, 0, 79, 0
1, 40697, Note_on_c, 0, 67, 0
1, 40697, Note_on_c, 1, 55, 0
1, 40704, Note_on_c, 1, 50, 75
1, 40793, Note_on_c, 1, 50, 0
1, 40800, Note_on_c, 1, 43, 75
1, 40889, Note_on_c, 1, 43, 0
1, 40896, Note_on_c, 0, 74, 75
1, 40896, Note_on_c, 1, 62, 75
1, 40896, Note_on_c, 1, 50, 75
1, 40985, Note_on_c, 0, 74, 0
1, 40985, Note_on_c, 1, 62, 0
1, 40985, Note_on_c, 1, 50, 0
1, 40992, Note_on_c, 0, 78, 75
1, 41037, Note_on_c, 0, 78, 0
1, 41040, Note_on_c, 0, 76, 75
1, 41085, Note_on_c, 0, 76, 0
1, 41088, Note_on_c, 0, 78, 75
1, 41133, Note_on_c, 0, 78, 0
1, 41136, Note_on_c, 0, 79, 75
1, 41181, Note_on_c, 0, 79, 0
1, 41184, Note_on_c, 0, 81, 75
1, 41184, Note_on_c, 1, 54, 75
1, 41229, Note_on_c, 1, 54, 0
1, 41232, Note_on_c, 1, 62, 75
1, 41277, Note_on_c, 1, 62, 0
1, 41280, Note_on_c, 1, 57, 75
1, 41325, Note_on_c, 1, 57, 0
1, 41328, Note_on_c, 1, 62, 75
1, 41361, Note_on_c, 0, 81, 0
1, 41373, Note_on_c, 1, 62, 0
1, 41376, Note_on_c, 0, 84, 75
1, 41376, Note_on_c, 1, 54, 75
1, 41421, Note_on_c, 0, 84, 0
1, 41421, Note_on_c, 1, 54, 0
1, 41424, Note_on_c, 0, 81, 75
1, 41424, Note_on_c, 1, 62, 75
1, 41469, Note_on_c, 0, 81, 0
1, 41469, Note_on_c, 1, 62, 0
1, 41472, Note_on_c, 0, 83, 75
1, 41472, Note_on_c, 1, 55, 75
1, 41517, Note_on_c, 1, 55, 0
1, 41520, Note_on_c, 1, 62, 75
1, 41561, Note_on_c, 0, 83, 0
1, 41565, Note_on_c, 1, 62, 0
1, 41568, Note_on_c, 0, 79, 75
1, 41568, Note_on_c, 1, 59, 75
1, 41613, Note_on_c, 1, 59, 0
1, 41616, Note_on_c, 1, 62, 75
1, 41657, Note_on_c, 0, 79, 0
1, 41661, Note_on_c, 1, 62, 0
1, 41664, Note_on_c, 0, 86, 75
1, 41664, Note_on_c, 1, 55, 75
1, 41709, Note_on_c, 1, 55, 0
1, 41712, Note_on_c, 1, 62, 75
1, 41753, Note_on_c, 0, 86, 0
1, 41757, Note_on_c, 1, 62, 0
1, 41760, Note_on_c, 0, 79, 75
1, 41760, Note_on_c, 1, 57, 75
1, 41777, Note_on_c, 0, 79, 0
1, 41778, Note_on_c, 0, 78, 75
1, 41795, Note_on_c, 0, 78, 0
1, 41796, Note_on_c, 0, 79, 75
1, 41805, Note_on_c, 1, 57, 0
1, 41808, Note_on_c, 1, 62, 75
1, 41813, Note_on_c, 0, 79, 0
1, 41814, Note_on_c, 0, 78, 75
1, 41831, Note_on_c, 0, 78, 0
1, 41832, Note_on_c, 0, 79, 75
1, 41849, Note_on_c, 0, 79, 0
1, 41850, Note_on_c, 0, 78, 75
1, 41853, Note_on_c, 1, 62, 0
1, 41856, Note_on_c, 1, 60, 75
1, 41866, Note_on_c, 0, 78, 0
1, 41867, Note_on_c, 0, 79, 75
1, 41883, Note_on_c, 0, 79, 0
1, 41884, Note_on_c, 0, 78, 75
1, 41900, Note_on_c, 0, 78, 0
1, 41901, Note_on_c, 0, 79, 75
1, 41901, Note_on_c, 1, 60, 0
1, 41904, Note_on_c, 1, 62, 75
1, 41917, Note_on_c, 0, 79, 0
1, 41918, Note_on_c, 0, 78, 75
1, 41934, Note_on_c, 0, 78, 0
1, 41935, Note_on_c, 0, 79, 75
1, 41949, Note_on_c, 1, 62, 0
1, 41951, Note_on_c, 0, 79, 0
1, 41952, Note_on_c, 0, 81, 75
1, 41952, Note_on_c, 1, 57, 75
1, 41997, Note_on_c, 0, 81, 0
1, 41997, Note_on_c, 1, 57, 0
1, 42000, Note_on_c, 0, 78, 75
1, 42000, Note_on_c, 1, 62, 75
1, 42045, Note_on_c, 0, 78, 0
1, 42045, Note_on_c, 1, 62, 0
1, 42048, Note_on_c, 0, 79, 75
1, 42048, Note_on_c, 1, 59, 75
1, 42093, Note_on_c, 0, 79, 0
1, 42096, Note_on_c, 0, 74, 75
1, 42137, Note_on_c, 1, 59, 0
1, 42141, Note_on_c, 0, 74, 0
1, 42144, Note_on_c, 0, 83, 75
1, 42189, Note_on_c, 0, 83, 0
1, 42192, Note_on_c, 0, 79, 75
1, 42237, Note_on_c, 0, 79, 0
1, 42240, Note_on_c, 0, 86, 75
1, 42285, Note_on_c, 0, 86, 0
1, 42288, Note_on_c, 0, 83, 75
1, 42333, Note_on_c, 0, 83, 0
1, 42336, Note_on_c, 0, 81, 75
1, 42336, Note_on_c, 1, 54, 75
1, 42381, Note_on_c, 1, 54, 0
1, 42384, Note_on_c, 1, 62, 75
1, 42425, Note_on_c, 0, 81, 0
1, 42429, Note_on_c, 1, 62, 0
1, 42432, Note_on_c, 0, 84, 75
1, 42432, Note_on_c, 1, 57, 75
1, 42477, Note_on_c, 1, 57, 0
1, 42480, Note_on_c, 1, 62, 75
1, 42521, Note_on_c, 0, 84, 0
1, 42525, Note_on_c, 1, 62, 0
1, 42528, Note_on_c, 0, 83, 75
1, 42528, Note_on_c, 1, 55, 75
1, 42573, Note_on_c, 0, 83, 0
1, 42573, Note_on_c, 1, 55, 0
1, 42576, Note_on_c, 0, 79, 75
1, 42576, Note_on_c, 1, 62, 75
1, 42621, Note_on_c, 0, 79, 0
1, 42621, Note_on_c, 1, 62, 0
1, 42624, Note_on_c, 0, 74, 75
1, 42624, Note_on_c, 1, 54, 75
1, 42669, Note_on_c, 1, 54, 0
1, 42672, Note_on_c, 1, 62, 75
1, 42713, Note_on_c, 0, 74, 0
1, 42717, Note_on_c, 1, 62, 0
1, 42720, Note_on_c, 0, 84, 75
1, 42720, Note_on_c, 1, 57, 75
1, 42765, Note_on_c, 1, 57, 0
1, 42768, Note_on_c, 1, 62, 75
1, 42809, Note_on_c, 0, 84, 0
1, 42813, Note_on_c, 1, 62, 0
1, 42816, Note_on_c, 0, 83, 75
1, 42816, Note_on_c, 1, 55, 75
1, 42861, Note_on_c, 0, 83, 0
1, 42861, Note_on_c, 1, 55, 0
1, 42864, Note_on_c, 0, 79, 75
1, 42864, Note_on_c, 1, 62, 75
1, 42909, Note_on_c, 0, 79, 0
1, 42909, Note_on_c, 1, 62, 0
1, 42912, Note_on_c, 0, 74, 75
1, 42912, Note_on_c, 1, 50, 75
1, 43001, Note_on_c, 0, 74, 0
1, 43001, Note_on_c, 1, 50, 0
1, 43200, Note_on_c, 0, 67, 80
1, 43200, Note_on_c, 1, 55, 80
1, 43200, Note_on_c, 1, 43, 80
1, 43289, Note_on_c, 0, 67, 0
1, 43289, Note_on_c, 1, 55, 0
1, 43289, Note_on_c, 1, 43, 0
1, 43296, Note_on_c, 0, 67, 80
1, 43296, Note_on_c, 1, 55, 80
1, 43341, Note_on_c, 0, 67, 0
1, 43341, Note_on_c, 1, 55, 0
1, 43344, Note_on_c, 0, 66, 80
1, 43344, Note_on_c, 1, 54, 80
1, 43389, Note_on_c, 0, 66, 0
1, 43389, Note_on_c, 1, 54, 0
1, 43392, Note_on_c, 0, 67, 80
1, 43392, Note_on_c, 1, 55, 80
1, 43437, Note_on_c, 0, 67, 0
1, 43437, Note_on_c, 1, 55, 0
1, 43440, Note_on_c, 0, 69, 80
1, 43440, Note_on_c, 1, 57, 80
1, 43485, Note_on_c, 0, 69, 0
1, 43485, Note_on_c, 1, 57, 0
1, 43488, Note_on_c, 0, 71, 80
1, 43488, Note_on_c, 1, 59, 80
1, 43527, Note_on_c, 0, 71, 0
1, 43527, Note_on_c, 1, 59, 0
1, 43584, Note_on_c, 0, 67, 80
1, 43584, Note_on_c, 1, 55, 80
1, 43623, Note_on_c, 0, 67, 0
1, 43623, Note_on_c, 1, 55, 0
1, 43680, Note_on_c, 0, 74, 80
1, 43680, Note_on_c, 1, 62, 80
1, 43725, Note_on_c, 0, 74, 0
1, 43725, Note_on_c, 1, 62, 0
1, 43728, Note_on_c, 0, 71, 80
1, 43728, Note_on_c, 1, 59, 80
1, 43773, Note_on_c, 0, 71, 0
1, 43773, Note_on_c, 1, 59, 0
1, 43776, Note_on_c, 0, 67, 80
1, 43776, Note_on_c, 1, 55, 80
1, 43815, Note_on_c, 0, 67, 0
1, 43815, Note_on_c, 1, 55, 0
1, 43872, Note_on_c, 0, 62, 80
1, 43872, Note_on_c, 1, 50, 80
1, 43911, Note_on_c, 0, 62, 0
1, 43911, Note_on_c, 1, 50, 0
1, 43968, Note_on_c, 0, 71, 80
1, 43968, Note_on_c, 1, 59, 80
1, 44007, Note_on_c, 0, 71, 0
1, 44007, Note_on_c, 1, 59, 0
1, 44064, Note_on_c, 0, 67, 80
1, 44064, Note_on_c, 1, 55, 80
1, 44081, Note_on_c, 0, 67, 0
1, 44082, Note_on_c, 0, 69, 80
1, 44099, Note_on_c, 0, 69, 0
1, 44100, Note_on_c, 0, 67, 80
1, 44117, Note_on_c, 0, 67, 0
1, 44118, Note_on_c, 0, 69, 80
1, 44135, Note_on_c, 0, 69, 0
1, 44136, Note_on_c, 0, 67, 80
1, 44153, Note_on_c, 0, 67, 0
1, 44154, Note_on_c, 0, 69, 80
1, 44170, Note_on_c, 0, 69, 0
1, 44171, Note_on_c, 0, 67, 80
1, 44187, Note_on_c, 0, 67, 0
1, 44188, Note_on_c, 0, 69, 80
1, 44204, Note_on_c, 0, 69, 0
1, 44205, Note_on_c, 0, 67, 80
1, 44221, Note_on_c, 0, 67, 0
1, 44222, Note_on_c, 0, 66, 80
1, 44238, Note_on_c, 0, 66, 0
1, 44239, Note_on_c, 0, 67, 80
1, 44241, Note_on_c, 1, 55, 0
1, 44255, Note_on_c, 0, 67, 0
1, 44256, Note_on_c, 0, 83, 75
1, 44256, Note_on_c, 1, 62, 75
1, 44256, Note_on_c, 1, 55, 75
1, 44301, Note_on_c, 0, 83, 0
1, 44304, Note_on_c, 0, 74, 75
1, 44345, Note_on_c, 1, 62, 0
1, 44345, Note_on_c, 1, 55, 0
1, 44349, Note_on_c, 0, 74, 0
1, 44352, Note_on_c, 0, 84, 91
1, 44352, Note_on_c, 1, 62, 75
1, 44352, Note_on_c, 1, 54, 75
1, 44400, Note_on_c, 0, 84, 0
1, 44400, Note_on_c, 0, 81, 75
1, 44445, Note_on_c, 0, 81, 0
1, 44448, Note_on_c, 0, 78, 75
1, 44493, Note_on_c, 0, 78, 0
1, 44496, Note_on_c, 0, 74, 75
1, 44529, Note_on_c, 1, 62, 0
1, 44529, Note_on_c, 1, 54, 0
1, 44541, Note_on_c, 0, 74, 0
1, 44544, Note_on_c, 0, 83, 91
1, 44544, Note_on_c, 1, 62, 75
1, 44544, Note_on_c, 1, 55, 75
1, 44592, Note_on_c, 0, 83, 0
1, 44592, Note_on_c, 0, 79, 75
1, 44633, Note_on_c, 1, 62, 0
1, 44633, Note_on_c, 1, 55, 0
1, 44637, Note_on_c, 0, 79, 0
1, 44640, Note_on_c, 0, 84, 91
1, 44640, Note_on_c, 1, 62, 75
1, 44640, Note_on_c, 1, 54, 75
1, 44688, Note_on_c, 0, 84, 0
1, 44688, Note_on_c, 0, 81, 75
1, 44733, Note_on_c, 0, 81, 0
1, 44736, Note_on_c, 0, 78, 75
1, 44781, Note_on_c, 0, 78, 0
1, 44784, Note_on_c, 0, 74, 75
1, 44817, Note_on_c, 1, 62, 0
1, 44817, Note_on_c, 1, 54, 0
1, 44829, Note_on_c, 0, 74, 0
1, 44832, Note_on_c, 0, 83, 91
1, 44832, Note_on_c, 1, 62, 75
1, 44832, Note_on_c, 1, 55, 75
1, 44880, Note_on_c, 0, 83, 0
1, 44880, Note_on_c, 0, 79, 75
1, 44921, Note_on_c, 1, 62, 0
1, 44921, Note_on_c, 1, 55, 0
1, 44925, Note_on_c, 0, 79, 0
1, 44928, Note_on_c, 0, 81, 75
1, 44928, Note_on_c, 0, 72, 75
1, 44928, Note_on_c, 1, 60, 75
1, 45017, Note_on_c, 0, 81, 0
1, 45017, Note_on_c, 0, 72, 0
1, 45017, Note_on_c, 1, 60, 0
1, 45024, Note_on_c, 0, 79, 75
1, 45024, Note_on_c, 0, 71, 75
1, 45024, Note_on_c, 1, 62, 75
1, 45113, Note_on_c, 0, 79, 0
1, 45113, Note_on_c, 0, 71, 0
1, 45113, Note_on_c, 1, 62, 0
1, 45120, Note_on_c, 0, 78, 75
1, 45120, Note_on_c, 0, 69, 75
1, 45120, Note_on_c, 1, 50, 75
1, 45209, Note_on_c, 0, 78, 0
1, 45209, Note_on_c, 0, 69, 0
1, 45209, Note_on_c, 1, 50, 0
1, 45216, Note_on_c, 0, 79, 75
1, 45216, Note_on_c, 0, 67, 75
1, 45216, Note_on_c, 1, 55, 75
1, 45305, Note_on_c, 0, 79, 0
1, 45305, Note_on_c, 0, 67, 0
1, 45305, Note_on_c, 1, 55, 0
1, 45312, Note_on_c, 1, 50, 75
1, 45401, Note_on_c, 1, 50, 0
1, 45408, Note_on_c, 1, 43, 75
1, 45497, Note_on_c, 1, 43, 0
1, 45504, Note_on_c, 1, 43, 0
1, 45593, Note_on_c, 1, 43, 0
1, 45603, End_track
0, 0, End_of_file