0, 0, Header, 0, 1, 96
1, 0, Start_track
1, 0, Tempo, 375000
1, 144, Note_on_c, 0, 59, 64
1, 164, Note_on_c, 0, 59, 0
1, 192, Note_on_c, 0, 59, 64
1, 212, Note_on_c, 0, 59, 0
1, 240, Note_on_c, 0, 59, 64
1, 260, Note_on_c, 0, 59, 0
1, 288, Note_on_c, 0, 59, 64
1, 308, Note_on_c, 0, 59, 0
1, 336, Note_on_c, 0, 59, 64
1, 356, Note_on_c, 0, 59, 0
1, 384, Note_on_c, 0, 62, 64
1, 429, Note_on_c, 0, 62, 0
1, 432, Note_on_c, 0, 61, 64
1, 477, Note_on_c, 0, 61, 0
1, 480, Note_on_c, 0, 59, 64
1, 525, Note_on_c, 0, 59, 0
1, 528, Note_on_c, 0, 67, 64
1, 528, Note_on_c, 1, 59, 64
1, 548, Note_on_c, 0, 67, 0
1, 576, Note_on_c, 0, 66, 64
1, 576, Note_on_c, 1, 59, 0
1, 576, Note_on_c, 1, 58, 64
1, 621, Note_on_c, 0, 66, 0
1, 624, Note_on_c, 0, 65, 64
1, 665, Note_on_c, 1, 58, 0
1, 669, Note_on_c, 0, 65, 0
1, 672, Note_on_c, 0, 66, 64
1, 717, Note_on_c, 0, 66, 0
1, 720, Note_on_c, 0, 64, 64
1, 720, Note_on_c, 1, 55, 64
1, 740, Note_on_c, 0, 64, 0
1, 768, Note_on_c, 0, 62, 64
1, 768, Note_on_c, 1, 55, 0
1, 768, Note_on_c, 1, 54, 64
1, 813, Note_on_c, 0, 62, 0
1, 816, Note_on_c, 0, 61, 64
1, 857, Note_on_c, 1, 54, 0
1, 861, Note_on_c, 0, 61, 0
1, 864, Note_on_c, 0, 62, 64
1, 909, Note_on_c, 0, 62, 0
1, 912, Note_on_c, 0, 61, 64
1, 912, Note_on_c, 1, 52, 64
1, 932, Note_on_c, 0, 61, 0
1, 960, Note_on_c, 0, 59, 64
1, 960, Note_on_c, 1, 52, 0
1, 960, Note_on_c, 1, 50, 64
1, 1005, Note_on_c, 0, 59, 0
1, 1008, Note_on_c, 0, 58, 64
1, 1049, Note_on_c, 1, 50, 0
1, 1053, Note_on_c, 0, 58, 0
1, 1056, Note_on_c, 0, 59, 64
1, 1101, Note_on_c, 0, 59, 0
1, 1104, Note_on_c, 0, 59, 64
1, 1104, Note_on_c, 1, 55, 64
1, 1124, Note_on_c, 0, 59, 0
1, 1124, Note_on_c, 1, 55, 0
1, 1152, Note_on_c, 0, 59, 64
1, 1152, Note_on_c, 1, 54, 64
1, 1172, Note_on_c, 0, 59, 0
1, 1197, Note_on_c, 1, 54, 0
1, 1200, Note_on_c, 0, 59, 64
1, 1200, Note_on_c, 1, 52, 64
1, 1220, Note_on_c, 0, 59, 0
1, 1245, Note_on_c, 1, 52, 0
1, 1248, Note_on_c, 0, 59, 64
1, 1248, Note_on_c, 1, 50, 64
1, 1268, Note_on_c, 0, 59, 0
1, 1293, Note_on_c, 1, 50, 0
1, 1296, Note_on_c, 0, 64, 64
1, 1296, Note_on_c, 1, 49, 64
1, 1316, Note_on_c, 0, 64, 0
1, 1316, Note_on_c, 1, 49, 0
1, 1344, Note_on_c, 0, 62, 64
1, 1344, Note_on_c, 1, 47, 64
1, 1389, Note_on_c, 0, 62, 0
1, 1392, Note_on_c, 0, 61, 64
1, 1433, Note_on_c, 1, 47, 0
1, 1437, Note_on_c, 0, 61, 0
1, 1440, Note_on_c, 0, 59, 64
1, 1485, Note_on_c, 0, 59, 0
1, 1488, Note_on_c, 0, 67, 64
1, 1488, Note_on_c, 1, 47, 64
1, 1508, Note_on_c, 0, 67, 0
1, 1533, Note_on_c, 1, 47, 0
1, 1536, Note_on_c, 0, 66, 64
1, 1536, Note_on_c, 1, 47, 64
1, 1556, Note_on_c, 1, 47, 0
1, 1581, Note_on_c, 0, 66, 0
1, 1584, Note_on_c, 0, 64, 64
1, 1584, Note_on_c, 1, 47, 64
1, 1604, Note_on_c, 1, 47, 0
1, 1629, Note_on_c, 0, 64, 0
1, 1632, Note_on_c, 0, 62, 64
1, 1632, Note_on_c, 1, 47, 64
1, 1652, Note_on_c, 1, 47, 0
1, 1677, Note_on_c, 0, 62, 0
1, 1680, Note_on_c, 0, 61, 64
1, 1680, Note_on_c, 1, 52, 64
1, 1700, Note_on_c, 0, 61, 0
1, 1725, Note_on_c, 1, 52, 0
1, 1728, Note_on_c, 0, 59, 64
1, 1728, Note_on_c, 1, 50, 64
1, 1773, Note_on_c, 1, 50, 0
1, 1776, Note_on_c, 1, 49, 64
1, 1817, Note_on_c, 0, 59, 0
1, 1821, Note_on_c, 1, 49, 0
1, 1824, Note_on_c, 1, 47, 64
1, 1869, Note_on_c, 1, 47, 0
1, 1872, Note_on_c, 0, 59, 64
1, 1872, Note_on_c, 1, 55, 64
1, 1892, Note_on_c, 0, 59, 0
1, 1892, Note_on_c, 1, 55, 0
1, 1920, Note_on_c, 0, 59, 64
1, 1920, Note_on_c, 1, 54, 64
1, 1940, Note_on_c, 0, 59, 0
1, 1965, Note_on_c, 1, 54, 0
1, 1968, Note_on_c, 0, 59, 64
1, 1968, Note_on_c, 1, 52, 64
1, 1988, Note_on_c, 0, 59, 0
1, 2013, Note_on_c, 1, 52, 0
1, 2016, Note_on_c, 0, 59, 64
1, 2016, Note_on_c, 1, 50, 64
1, 2036, Note_on_c, 0, 59, 0
1, 2061, Note_on_c, 1, 50, 0
1, 2064, Note_on_c, 0, 64, 64
1, 2064, Note_on_c, 1, 49, 64
1, 2084, Note_on_c, 0, 64, 0
1, 2084, Note_on_c, 1, 49, 0
1, 2112, Note_on_c, 0, 62, 64
1, 2112, Note_on_c, 1, 47, 64
1, 2157, Note_on_c, 0, 62, 0
1, 2160, Note_on_c, 0, 61, 64
1, 2201, Note_on_c, 1, 47, 0
1, 2205, Note_on_c, 0, 61, 0
1, 2208, Note_on_c, 0, 59, 64
1, 2253, Note_on_c, 0, 59, 0
1, 2256, Note_on_c, 0, 71, 64
1, 2301, Note_on_c, 0, 71, 0
1, 2304, Note_on_c, 0, 69, 64
1, 2304, Note_on_c, 1, 59, 64
1, 2304, Note_on_c, 1, 55, 64
1, 2349, Note_on_c, 0, 69, 0
1, 2352, Note_on_c, 0, 67, 64
1, 2397, Note_on_c, 0, 67, 0
1, 2400, Note_on_c, 0, 66, 64
1, 2445, Note_on_c, 0, 66, 0
1, 2448, Note_on_c, 0, 65, 64
1, 2468, Note_on_c, 0, 65, 0
1, 2481, Note_on_c, 1, 59, 0
1, 2481, Note_on_c, 1, 55, 0
1, 2496, Note_on_c, 0, 66, 64
1, 2496, Note_on_c, 1, 58, 64
1, 2496, Note_on_c, 1, 54, 64
1, 2585, Note_on_c, 0, 66, 0
1, 2585, Note_on_c, 1, 58, 0
1, 2585, Note_on_c, 1, 54, 0
1, 2640, Note_on_c, 0, 71, 64
1, 2660, Note_on_c, 0, 71, 0
1, 2688, Note_on_c, 0, 71, 64
1, 2708, Note_on_c, 0, 71, 0
1, 2736, Note_on_c, 0, 71, 64
1, 2756, Note_on_c, 0, 71, 0
1, 2784, Note_on_c, 0, 71, 64
1, 2804, Note_on_c, 0, 71, 0
1, 2832, Note_on_c, 0, 71, 64
1, 2852, Note_on_c, 0, 71, 0
1, 2880, Note_on_c, 0, 74, 64
1, 2925, Note_on_c, 0, 74, 0
1, 2928, Note_on_c, 0, 73, 64
1, 2973, Note_on_c, 0, 73, 0
1, 2976, Note_on_c, 0, 71, 64
1, 3021, Note_on_c, 0, 71, 0
1, 3024, Note_on_c, 0, 79, 64
1, 3024, Note_on_c, 1, 74, 64
1, 3024, Note_on_c, 1, 71, 64
1, 3044, Note_on_c, 0, 79, 0
1, 3044, Note_on_c, 1, 74, 0
1, 3044, Note_on_c, 1, 71, 0
1, 3072, Note_on_c, 0, 78, 64
1, 3072, Note_on_c, 1, 73, 64
1, 3072, Note_on_c, 1, 70, 64
1, 3117, Note_on_c, 0, 78, 0
1, 3120, Note_on_c, 0, 77, 64
1, 3165, Note_on_c, 0, 77, 0
1, 3168, Note_on_c, 0, 78, 64
1, 3205, Note_on_c, 1, 73, 0
1, 3205, Note_on_c, 1, 70, 0
1, 3213, Note_on_c, 0, 78, 0
1, 3216, Note_on_c, 0, 79, 64
1, 3216, Note_on_c, 1, 74, 64
1, 3216, Note_on_c, 1, 71, 64
1, 3236, Note_on_c, 0, 79, 0
1, 3236, Note_on_c, 1, 74, 0
1, 3236, Note_on_c, 1, 71, 0
1, 3264, Note_on_c, 0, 78, 64
1, 3264, Note_on_c, 1, 73, 64
1, 3264, Note_on_c, 1, 70, 64
1, 3309, Note_on_c, 0, 78, 0
1, 3312, Note_on_c, 0, 77, 64
1, 3357, Note_on_c, 0, 77, 0
1, 3360, Note_on_c, 0, 78, 64
1, 3397, Note_on_c, 1, 73, 0
1, 3397, Note_on_c, 1, 70, 0
1, 3405, Note_on_c, 0, 78, 0
1, 3408, Note_on_c, 0, 79, 64
1, 3408, Note_on_c, 1, 74, 64
1, 3408, Note_on_c, 1, 71, 64
1, 3428, Note_on_c, 0, 79, 0
1, 3428, Note_on_c, 1, 74, 0
1, 3428, Note_on_c, 1, 71, 0
1, 3456, Note_on_c, 0, 78, 64
1, 3456, Note_on_c, 1, 73, 64
1, 3456, Note_on_c, 1, 70, 64
1, 3501, Note_on_c, 0, 78, 0
1, 3504, Note_on_c, 0, 77, 64
1, 3545, Note_on_c, 1, 73, 0
1, 3545, Note_on_c, 1, 70, 0
1, 3549, Note_on_c, 0, 77, 0
1, 3552, Note_on_c, 0, 78, 64
1, 3597, Note_on_c, 0, 78, 0
1, 3984, Note_on_c, 0, 79, 64
1, 3984, Note_on_c, 1, 74, 64
1, 3984, Note_on_c, 1, 71, 64
1, 4004, Note_on_c, 0, 79, 0
1, 4029, Note_on_c, 1, 74, 0
1, 4029, Note_on_c, 1, 71, 0
1, 4032, Note_on_c, 0, 78, 64
1, 4032, Note_on_c, 1, 73, 64
1, 4032, Note_on_c, 1, 69, 64
1, 4077, Note_on_c, 0, 78, 0
1, 4080, Note_on_c, 0, 77, 64
1, 4125, Note_on_c, 0, 77, 0
1, 4128, Note_on_c, 0, 78, 64
1, 4165, Note_on_c, 1, 73, 0
1, 4165, Note_on_c, 1, 69, 0
1, 4173, Note_on_c, 0, 78, 0
1, 4176, Note_on_c, 0, 76, 64
1, 4176, Note_on_c, 1, 71, 64
1, 4176, Note_on_c, 1, 67, 64
1, 4196, Note_on_c, 0, 76, 0
1, 4196, Note_on_c, 1, 71, 0
1, 4196, Note_on_c, 1, 67, 0
1, 4224, Note_on_c, 0, 74, 64
1, 4224, Note_on_c, 1, 69, 64
1, 4224, Note_on_c, 1, 66, 64
1, 4269, Note_on_c, 0, 74, 0
1, 4272, Note_on_c, 0, 73, 64
1, 4313, Note_on_c, 1, 69, 0
1, 4313, Note_on_c, 1, 66, 0
1, 4317, Note_on_c, 0, 73, 0
1, 4320, Note_on_c, 0, 74, 64
1, 4365, Note_on_c, 0, 74, 0
1, 4368, Note_on_c, 0, 86, 64
1, 4368, Note_on_c, 0, 74, 64
1, 4388, Note_on_c, 0, 86, 0
1, 4388, Note_on_c, 0, 74, 0
1, 4416, Note_on_c, 0, 85, 64
1, 4416, Note_on_c, 0, 73, 64
1, 4461, Note_on_c, 0, 85, 0
1, 4461, Note_on_c, 0, 73, 0
1, 4464, Note_on_c, 0, 84, 64
1, 4464, Note_on_c, 0, 72, 64
1, 4509, Note_on_c, 0, 84, 0
1, 4509, Note_on_c, 0, 72, 0
1, 4512, Note_on_c, 0, 83, 64
1, 4512, Note_on_c, 0, 71, 64
1, 4557, Note_on_c, 0, 83, 0
1, 4557, Note_on_c, 0, 71, 0
1, 4560, Note_on_c, 0, 82, 64
1, 4560, Note_on_c, 0, 70, 64
1, 4580, Note_on_c, 0, 82, 0
1, 4580, Note_on_c, 0, 70, 0
1, 4608, Note_on_c, 0, 83, 64
1, 4608, Note_on_c, 0, 71, 64
1, 4656, Note_on_c, 1, 54, 64
1, 4656, Note_on_c, 1, 42, 64
1, 4676, Note_on_c, 1, 54, 0
1, 4676, Note_on_c, 1, 42, 0
1, 4697, Note_on_c, 0, 83, 0
1, 4697, Note_on_c, 0, 71, 0
1, 4704, Note_on_c, 1, 55, 64
1, 4704, Note_on_c, 1, 43, 64
1, 4752, Note_on_c, 0, 83, 64
1, 4752, Note_on_c, 0, 79, 64
1, 4793, Note_on_c, 1, 55, 0
1, 4793, Note_on_c, 1, 43, 0
1, 4800, Note_on_c, 0, 83, 0
1, 4800, Note_on_c, 0, 79, 0
1, 4800, Note_on_c, 0, 81, 64
1, 4800, Note_on_c, 0, 78, 64
1, 4848, Note_on_c, 1, 69, 64
1, 4868, Note_on_c, 1, 69, 0
1, 4889, Note_on_c, 0, 81, 0
1, 4889, Note_on_c, 0, 78, 0
1, 4896, Note_on_c, 1, 69, 64
1, 4941, Note_on_c, 1, 69, 0
1, 4944, Note_on_c, 0, 79, 64
1, 4944, Note_on_c, 0, 73, 64
1, 4992, Note_on_c, 0, 79, 0
1, 4992, Note_on_c, 0, 73, 0
1, 4992, Note_on_c, 0, 78, 64
1, 4992, Note_on_c, 0, 74, 64
1, 5040, Note_on_c, 1, 74, 64
1, 5060, Note_on_c, 1, 74, 0
1, 5081, Note_on_c, 0, 78, 0
1, 5081, Note_on_c, 0, 74, 0
1, 5088, Note_on_c, 1, 74, 64
1, 5133, Note_on_c, 1, 74, 0
1, 5136, Note_on_c, 0, 74, 64
1, 5136, Note_on_c, 0, 62, 64
1, 5156, Note_on_c, 0, 74, 0
1, 5156, Note_on_c, 0, 62, 0
1, 5184, Note_on_c, 0, 73, 64
1, 5184, Note_on_c, 0, 61, 64
1, 5229, Note_on_c, 0, 73, 0
1, 5229, Note_on_c, 0, 61, 0
1, 5232, Note_on_c, 0, 72, 64
1, 5232, Note_on_c, 0, 60, 64
1, 5277, Note_on_c, 0, 72, 0
1, 5277, Note_on_c, 0, 60, 0
1, 5280, Note_on_c, 0, 71, 64
1, 5280, Note_on_c, 0, 59, 64
1, 5325, Note_on_c, 0, 71, 0
1, 5325, Note_on_c, 0, 59, 0
1, 5328, Note_on_c, 0, 70, 64
1, 5328, Note_on_c, 0, 58, 64
1, 5348, Note_on_c, 0, 70, 0
1, 5348, Note_on_c, 0, 58, 0
1, 5376, Note_on_c, 0, 71, 64
1, 5376, Note_on_c, 0, 59, 64
1, 5424, Note_on_c, 1, 42, 64
1, 5424, Note_on_c, 1, 30, 64
1, 5444, Note_on_c, 1, 42, 0
1, 5444, Note_on_c, 1, 30, 0
1, 5472, Note_on_c, 1, 43, 64
1, 5472, Note_on_c, 1, 31, 64
1, 5509, Note_on_c, 0, 71, 0
1, 5509, Note_on_c, 0, 59, 0
1, 5517, Note_on_c, 1, 43, 0
1, 5517, Note_on_c, 1, 31, 0
1, 5520, Note_on_c, 0, 75, 64
1, 5520, Note_on_c, 0, 63, 64
1, 5540, Note_on_c, 0, 75, 0
1, 5540, Note_on_c, 0, 63, 0
1, 5568, Note_on_c, 0, 76, 64
1, 5568, Note_on_c, 0, 64, 64
1, 5616, Note_on_c, 1, 54, 64
1, 5616, Note_on_c, 1, 42, 64
1, 5636, Note_on_c, 1, 54, 0
1, 5636, Note_on_c, 1, 42, 0
1, 5664, Note_on_c, 1, 55, 64
1, 5664, Note_on_c, 1, 43, 64
1, 5701, Note_on_c, 0, 76, 0
1, 5701, Note_on_c, 0, 64, 0
1, 5712, Note_on_c, 0, 78, 64
1, 5712, Note_on_c, 0, 66, 64
1, 5732, Note_on_c, 0, 78, 0
1, 5732, Note_on_c, 0, 66, 0
1, 5760, Note_on_c, 0, 79, 64
1, 5760, Note_on_c, 0, 67, 64
1, 5805, Note_on_c, 1, 55, 0
1, 5805, Note_on_c, 1, 43, 0
1, 5808, Note_on_c, 1, 63, 64
1, 5808, Note_on_c, 1, 51, 64
1, 5828, Note_on_c, 1, 63, 0
1, 5828, Note_on_c, 1, 51, 0
1, 5856, Note_on_c, 1, 64, 64
1, 5856, Note_on_c, 1, 52, 64
1, 5893, Note_on_c, 0, 79, 0
1, 5893, Note_on_c, 0, 67, 0
1, 5904, Note_on_c, 0, 82, 64
1, 5904, Note_on_c, 0, 70, 64
1, 5924, Note_on_c, 0, 82, 0
1, 5924, Note_on_c, 0, 70, 0
1, 5952, Note_on_c, 0, 83, 64
1, 5952, Note_on_c, 0, 71, 64
1, 5997, Note_on_c, 1, 64, 0
1, 5997, Note_on_c, 1, 52, 0
1, 6000, Note_on_c, 1, 66, 64
1, 6000, Note_on_c, 1, 54, 64
1, 6020, Note_on_c, 1, 66, 0
1, 6020, Note_on_c, 1, 54, 0
1, 6048, Note_on_c, 1, 67, 64
1, 6048, Note_on_c, 1, 55, 64
1, 6085, Note_on_c, 0, 83, 0
1, 6085, Note_on_c, 0, 71, 0
1, 6096, Note_on_c, 0, 85, 64
1, 6096, Note_on_c, 0, 73, 64
1, 6116, Note_on_c, 0, 85, 0
1, 6116, Note_on_c, 0, 73, 0
1, 6144, Note_on_c, 0, 86, 64
1, 6144, Note_on_c, 0, 74, 64
1, 6189, Note_on_c, 1, 67, 0
1, 6189, Note_on_c, 1, 55, 0
1, 6192, Note_on_c, 1, 68, 64
1, 6212, Note_on_c, 1, 68, 0
1, 6240, Note_on_c, 1, 77, 64
1, 6277, Note_on_c, 0, 86, 0
1, 6277, Note_on_c, 0, 74, 0
1, 6288, Note_on_c, 0, 76, 64
1, 6308, Note_on_c, 0, 76, 0
1, 6329, Note_on_c, 1, 77, 0
1, 6336, Note_on_c, 0, 85, 64
1, 6384, Note_on_c, 1, 57, 64
1, 6404, Note_on_c, 1, 57, 0
1, 6432, Note_on_c, 1, 69, 64
1, 6469, Note_on_c, 0, 85, 0
1, 6480, Note_on_c, 0, 74, 64
1, 6500, Note_on_c, 0, 74, 0
1, 6521, Note_on_c, 1, 69, 0
1, 6528, Note_on_c, 0, 86, 64
1, 6576, Note_on_c, 1, 68, 64
1, 6596, Note_on_c, 1, 68, 0
1, 6624, Note_on_c, 1, 77, 64
1, 6661, Note_on_c, 0, 86, 0
1, 6672, Note_on_c, 0, 76, 64
1, 6692, Note_on_c, 0, 76, 0
1, 6713, Note_on_c, 1, 77, 0
1, 6720, Note_on_c, 0, 85, 64
1, 6768, Note_on_c, 1, 57, 64
1, 6788, Note_on_c, 1, 57, 0
1, 6816, Note_on_c, 1, 69, 64
1, 6853, Note_on_c, 0, 85, 0
1, 6864, Note_on_c, 0, 74, 64
1, 6884, Note_on_c, 0, 74, 0
1, 6905, Note_on_c, 1, 69, 0
1, 6912, Note_on_c, 0, 86, 64
1, 6960, Note_on_c, 1, 68, 64
1, 6980, Note_on_c, 1, 68, 0
1, 7008, Note_on_c, 1, 77, 64
1, 7045, Note_on_c, 0, 86, 0
1, 7056, Note_on_c, 0, 76, 64
1, 7097, Note_on_c, 1, 77, 0
1, 7104, Note_on_c, 0, 85, 64
1, 7152, Note_on_c, 1, 57, 64
1, 7200, Note_on_c, 1, 69, 64
1, 7429, Note_on_c, 0, 85, 0
1, 7429, Note_on_c, 0, 76, 0
1, 7429, Note_on_c, 1, 69, 0
1, 7429, Note_on_c, 1, 57, 0
1, 7440, Note_on_c, 0, 74, 64
1, 7460, Note_on_c, 0, 74, 0
1, 7488, Note_on_c, 0, 74, 64
1, 7508, Note_on_c, 0, 74, 0
1, 7536, Note_on_c, 0, 74, 64
1, 7556, Note_on_c, 0, 74, 0
1, 7584, Note_on_c, 0, 74, 64
1, 7604, Note_on_c, 0, 74, 0
1, 7632, Note_on_c, 0, 74, 64
1, 7652, Note_on_c, 0, 74, 0
1, 7680, Note_on_c, 0, 74, 64
1, 7703, Note_on_c, 0, 74, 0
1, 7704, Note_on_c, 0, 76, 64
1, 7727, Note_on_c, 0, 76, 0
1, 7728, Note_on_c, 0, 78, 64
1, 7751, Note_on_c, 0, 78, 0
1, 7752, Note_on_c, 0, 76, 64
1, 7775, Note_on_c, 0, 76, 0
1, 7776, Note_on_c, 0, 74, 64
1, 7799, Note_on_c, 0, 74, 0
1, 7800, Note_on_c, 0, 76, 64
1, 7823, Note_on_c, 0, 76, 0
1, 7824, Note_on_c, 0, 78, 64
1, 7824, Note_on_c, 1, 54, 64
1, 7824, Note_on_c, 1, 42, 64
1, 7844, Note_on_c, 1, 54, 0
1, 7844, Note_on_c, 1, 42, 0
1, 7847, Note_on_c, 0, 78, 0
1, 7848, Note_on_c, 0, 76, 64
1, 7871, Note_on_c, 0, 76, 0
1, 7872, Note_on_c, 0, 74, 64
1, 7872, Note_on_c, 1, 55, 64
1, 7872, Note_on_c, 1, 43, 64
1, 7892, Note_on_c, 1, 55, 0
1, 7892, Note_on_c, 1, 43, 0
1, 7895, Note_on_c, 0, 74, 0
1, 7896, Note_on_c, 0, 76, 64
1, 7919, Note_on_c, 0, 76, 0
1, 7920, Note_on_c, 0, 78, 64
1, 7920, Note_on_c, 1, 57, 64
1, 7920, Note_on_c, 1, 45, 64
1, 7940, Note_on_c, 1, 57, 0
1, 7940, Note_on_c, 1, 45, 0
1, 7943, Note_on_c, 0, 78, 0
1, 7944, Note_on_c, 0, 76, 64
1, 7967, Note_on_c, 0, 76, 0
1, 7968, Note_on_c, 0, 74, 64
1, 7968, Note_on_c, 1, 59, 64
1, 7968, Note_on_c, 1, 47, 64
1, 7988, Note_on_c, 1, 59, 0
1, 7988, Note_on_c, 1, 47, 0
1, 7991, Note_on_c, 0, 74, 0
1, 7992, Note_on_c, 0, 76, 64
1, 8015, Note_on_c, 0, 76, 0
1, 8016, Note_on_c, 0, 78, 64
1, 8016, Note_on_c, 1, 61, 64
1, 8016, Note_on_c, 1, 49, 64
1, 8036, Note_on_c, 1, 61, 0
1, 8036, Note_on_c, 1, 49, 0
1, 8039, Note_on_c, 0, 78, 0
1, 8040, Note_on_c, 0, 76, 64
1, 8063, Note_on_c, 0, 76, 0
1, 8064, Note_on_c, 0, 74, 64
1, 8064, Note_on_c, 1, 62, 64
1, 8064, Note_on_c, 1, 50, 64
1, 8087, Note_on_c, 0, 74, 0
1, 8088, Note_on_c, 0, 76, 64
1, 8111, Note_on_c, 0, 76, 0
1, 8112, Note_on_c, 0, 78, 64
1, 8135, Note_on_c, 0, 78, 0
1, 8136, Note_on_c, 0, 76, 64
1, 8153, Note_on_c, 1, 62, 0
1, 8153, Note_on_c, 1, 50, 0
1, 8159, Note_on_c, 0, 76, 0
1, 8160, Note_on_c, 0, 74, 64
1, 8183, Note_on_c, 0, 74, 0
1, 8184, Note_on_c, 0, 76, 64
1, 8207, Note_on_c, 0, 76, 0
1, 8208, Note_on_c, 0, 78, 64
1, 8208, Note_on_c, 1, 54, 64
1, 8208, Note_on_c, 1, 42, 64
1, 8228, Note_on_c, 1, 54, 0
1, 8228, Note_on_c, 1, 42, 0
1, 8231, Note_on_c, 0, 78, 0
1, 8232, Note_on_c, 0, 76, 64
1, 8255, Note_on_c, 0, 76, 0
1, 8256, Note_on_c, 0, 74, 64
1, 8256, Note_on_c, 1, 55, 64
1, 8256, Note_on_c, 1, 43, 64
1, 8276, Note_on_c, 1, 55, 0
1, 8276, Note_on_c, 1, 43, 0
1, 8279, Note_on_c, 0, 74, 0
1, 8280, Note_on_c, 0, 76, 64
1, 8303, Note_on_c, 0, 76, 0
1, 8304, Note_on_c, 0, 78, 64
1, 8304, Note_on_c, 1, 57, 64
1, 8304, Note_on_c, 1, 45, 64
1, 8324, Note_on_c, 1, 57, 0
1, 8324, Note_on_c, 1, 45, 0
1, 8327, Note_on_c, 0, 78, 0
1, 8328, Note_on_c, 0, 76, 64
1, 8351, Note_on_c, 0, 76, 0
1, 8352, Note_on_c, 0, 74, 64
1, 8352, Note_on_c, 1, 59, 64
1, 8352, Note_on_c, 1, 47, 64
1, 8372, Note_on_c, 1, 59, 0
1, 8372, Note_on_c, 1, 47, 0
1, 8375, Note_on_c, 0, 74, 0
1, 8376, Note_on_c, 0, 76, 64
1, 8399, Note_on_c, 0, 76, 0
1, 8400, Note_on_c, 0, 78, 64
1, 8400, Note_on_c, 1, 61, 64
1, 8400, Note_on_c, 1, 49, 64
1, 8420, Note_on_c, 1, 61, 0
1, 8420, Note_on_c, 1, 49, 0
1, 8423, Note_on_c, 0, 78, 0
1, 8424, Note_on_c, 0, 76, 64
1, 8447, Note_on_c, 0, 76, 0
1, 8448, Note_on_c, 0, 74, 64
1, 8448, Note_on_c, 1, 62, 64
1, 8448, Note_on_c, 1, 50, 64
1, 8471, Note_on_c, 0, 74, 0
1, 8472, Note_on_c, 0, 76, 64
1, 8495, Note_on_c, 0, 76, 0
1, 8496, Note_on_c, 0, 78, 64
1, 8519, Note_on_c, 0, 78, 0
1, 8520, Note_on_c, 0, 76, 64
1, 8537, Note_on_c, 1, 62, 0
1, 8537, Note_on_c, 1, 50, 0
1, 8543, Note_on_c, 0, 76, 0
1, 8544, Note_on_c, 0, 74, 64
1, 8567, Note_on_c, 0, 74, 0
1, 8568, Note_on_c, 0, 76, 64
1, 8591, Note_on_c, 0, 76, 0
1, 8592, Note_on_c, 0, 78, 64
1, 8592, Note_on_c, 1, 54, 64
1, 8592, Note_on_c, 1, 42, 64
1, 8612, Note_on_c, 1, 54, 0
1, 8612, Note_on_c, 1, 42, 0
1, 8615, Note_on_c, 0, 78, 0
1, 8616, Note_on_c, 0, 76, 64
1, 8639, Note_on_c, 0, 76, 0
1, 8640, Note_on_c, 0, 74, 64
1, 8640, Note_on_c, 1, 55, 64
1, 8640, Note_on_c, 1, 43, 64
1, 8660, Note_on_c, 1, 55, 0
1, 8660, Note_on_c, 1, 43, 0
1, 8663, Note_on_c, 0, 74, 0
1, 8664, Note_on_c, 0, 76, 64
1, 8687, Note_on_c, 0, 76, 0
1, 8688, Note_on_c, 0, 78, 64
1, 8688, Note_on_c, 1, 57, 64
1, 8688, Note_on_c, 1, 45, 64
1, 8708, Note_on_c, 1, 57, 0
1, 8708, Note_on_c, 1, 45, 0
1, 8711, Note_on_c, 0, 78, 0
1, 8712, Note_on_c, 0, 76, 64
1, 8735, Note_on_c, 0, 76, 0
1, 8736, Note_on_c, 0, 74, 64
1, 8736, Note_on_c, 1, 59, 64
1, 8736, Note_on_c, 1, 47, 64
1, 8756, Note_on_c, 1, 59, 0
1, 8756, Note_on_c, 1, 47, 0
1, 8759, Note_on_c, 0, 74, 0
1, 8760, Note_on_c, 0, 76, 64
1, 8783, Note_on_c, 0, 76, 0
1, 8784, Note_on_c, 0, 78, 64
1, 8784, Note_on_c, 1, 61, 64
1, 8784, Note_on_c, 1, 49, 64
1, 8804, Note_on_c, 1, 61, 0
1, 8804, Note_on_c, 1, 49, 0
1, 8807, Note_on_c, 0, 78, 0
1, 8808, Note_on_c, 0, 76, 64
1, 8831, Note_on_c, 0, 76, 0
1, 8832, Note_on_c, 0, 74, 64
1, 8832, Note_on_c, 1, 62, 64
1, 8832, Note_on_c, 1, 50, 64
1, 8855, Note_on_c, 0, 74, 0
1, 8856, Note_on_c, 0, 76, 64
1, 8879, Note_on_c, 0, 76, 0
1, 8880, Note_on_c, 0, 78, 64
1, 8903, Note_on_c, 0, 78, 0
1, 8904, Note_on_c, 0, 76, 64
1, 8921, Note_on_c, 1, 62, 0
1, 8921, Note_on_c, 1, 50, 0
1, 8927, Note_on_c, 0, 76, 0
1, 8928, Note_on_c, 0, 74, 64
1, 8951, Note_on_c, 0, 74, 0
1, 8952, Note_on_c, 0, 76, 64
1, 8975, Note_on_c, 0, 76, 0
1, 8976, Note_on_c, 0, 78, 64
1, 8999, Note_on_c, 0, 78, 0
1, 9000, Note_on_c, 0, 76, 64
1, 9023, Note_on_c, 0, 76, 0
1, 9024, Note_on_c, 0, 74, 64
1, 9024, Note_on_c, 1, 62, 64
1, 9024, Note_on_c, 1, 57, 64
1, 9024, Note_on_c, 1, 54, 64
1, 9047, Note_on_c, 0, 74, 0
1, 9048, Note_on_c, 0, 76, 64
1, 9071, Note_on_c, 0, 76, 0
1, 9072, Note_on_c, 0, 78, 64
1, 9095, Note_on_c, 0, 78, 0
1, 9096, Note_on_c, 0, 79, 64
1, 9113, Note_on_c, 1, 62, 0
1, 9113, Note_on_c, 1, 57, 0
1, 9113, Note_on_c, 1, 54, 0
1, 9119, Note_on_c, 0, 79, 0
1, 9120, Note_on_c, 0, 81, 64
1, 9143, Note_on_c, 0, 81, 0
1, 9144, Note_on_c, 0, 83, 64
1, 9167, Note_on_c, 0, 83, 0
1, 9168, Note_on_c, 0, 85, 64
1, 9191, Note_on_c, 0, 85, 0
1, 9192, Note_on_c, 0, 86, 64
1, 9215, Note_on_c, 0, 86, 0
1, 9216, Note_on_c, 0, 85, 64
1, 9216, Note_on_c, 1, 62, 64
1, 9216, Note_on_c, 1, 55, 64
1, 9239, Note_on_c, 0, 85, 0
1, 9240, Note_on_c, 0, 83, 64
1, 9263, Note_on_c, 0, 83, 0
1, 9264, Note_on_c, 0, 82, 64
1, 9287, Note_on_c, 0, 82, 0
1, 9288, Note_on_c, 0, 83, 64
1, 9305, Note_on_c, 1, 62, 0
1, 9305, Note_on_c, 1, 55, 0
1, 9311, Note_on_c, 0, 83, 0
1, 9312, Note_on_c, 0, 82, 64
1, 9335, Note_on_c, 0, 82, 0
1, 9336, Note_on_c, 0, 83, 64
1, 9359, Note_on_c, 0, 83, 0
1, 9360, Note_on_c, 0, 82, 64
1, 9383, Note_on_c, 0, 82, 0
1, 9384, Note_on_c, 0, 83, 64
1, 9407, Note_on_c, 0, 83, 0
1, 9408, Note_on_c, 0, 86, 64
1, 9431, Note_on_c, 0, 86, 0
1, 9432, Note_on_c, 0, 83, 64
1, 9455, Note_on_c, 0, 83, 0
1, 9456, Note_on_c, 0, 81, 64
1, 9479, Note_on_c, 0, 81, 0
1, 9480, Note_on_c, 0, 79, 64
1, 9503, Note_on_c, 0, 79, 0
1, 9504, Note_on_c, 0, 83, 64
1, 9527, Note_on_c, 0, 83, 0
1, 9528, Note_on_c, 0, 79, 64
1, 9551, Note_on_c, 0, 79, 0
1, 9552, Note_on_c, 0, 78, 64
1, 9575, Note_on_c, 0, 78, 0
1, 9576, Note_on_c, 0, 76, 64
1, 9599, Note_on_c, 0, 76, 0
1, 9600, Note_on_c, 0, 81, 64
1, 9600, Note_on_c, 1, 66, 64
1, 9600, Note_on_c, 1, 62, 64
1, 9600, Note_on_c, 1, 57, 64
1, 9620, Note_on_c, 1, 66, 0
1, 9620, Note_on_c, 1, 62, 0
1, 9620, Note_on_c, 1, 57, 0
1, 9623, Note_on_c, 0, 81, 0
1, 9624, Note_on_c, 0, 80, 64
1, 9647, Note_on_c, 0, 80, 0
1, 9648, Note_on_c, 0, 81, 64
1, 9648, Note_on_c, 1, 66, 64
1, 9648, Note_on_c, 1, 62, 64
1, 9648, Note_on_c, 1, 57, 64
1, 9668, Note_on_c, 1, 66, 0
1, 9668, Note_on_c, 1, 62, 0
1, 9668, Note_on_c, 1, 57, 0
1, 9671, Note_on_c, 0, 81, 0
1, 9672, Note_on_c, 0, 80, 64
1, 9695, Note_on_c, 0, 80, 0
1, 9696, Note_on_c, 0, 81, 64
1, 9696, Note_on_c, 1, 66, 64
1, 9696, Note_on_c, 1, 62, 64
1, 9696, Note_on_c, 1, 57, 64
1, 9716, Note_on_c, 1, 66, 0
1, 9716, Note_on_c, 1, 62, 0
1, 9716, Note_on_c, 1, 57, 0
1, 9719, Note_on_c, 0, 81, 0
1, 9720, Note_on_c, 0, 78, 64
1, 9743, Note_on_c, 0, 78, 0
1, 9744, Note_on_c, 0, 76, 64
1, 9744, Note_on_c, 1, 66, 64
1, 9744, Note_on_c, 1, 62, 64
1, 9744, Note_on_c, 1, 57, 64
1, 9764, Note_on_c, 1, 66, 0
1, 9764, Note_on_c, 1, 62, 0
1, 9764, Note_on_c, 1, 57, 0
1, 9767, Note_on_c, 0, 76, 0
1, 9768, Note_on_c, 0, 74, 64
1, 9791, Note_on_c, 0, 74, 0
1, 9792, Note_on_c, 0, 78, 64
1, 9792, Note_on_c, 1, 67, 64
1, 9792, Note_on_c, 1, 61, 64
1, 9792, Note_on_c, 1, 57, 64
1, 9811, Note_on_c, 0, 78, 0
1, 9812, Note_on_c, 0, 76, 64
1, 9812, Note_on_c, 1, 67, 0
1, 9812, Note_on_c, 1, 61, 0
1, 9812, Note_on_c, 1, 57, 0
1, 9831, Note_on_c, 0, 76, 0
1, 9832, Note_on_c, 0, 78, 64
1, 9840, Note_on_c, 1, 67, 64
1, 9840, Note_on_c, 1, 61, 64
1, 9840, Note_on_c, 1, 57, 64
1, 9850, Note_on_c, 0, 78, 0
1, 9851, Note_on_c, 0, 76, 64
1, 9860, Note_on_c, 1, 67, 0
1, 9860, Note_on_c, 1, 61, 0
1, 9860, Note_on_c, 1, 57, 0
1, 9869, Note_on_c, 0, 76, 0
1, 9870, Note_on_c, 0, 78, 64
1, 9888, Note_on_c, 0, 78, 0
1, 9888, Note_on_c, 1, 67, 64
1, 9888, Note_on_c, 1, 61, 64
1, 9888, Note_on_c, 1, 57, 64
1, 9889, Note_on_c, 0, 76, 64
1, 9907, Note_on_c, 0, 76, 0
1, 9908, Note_on_c, 0, 78, 64
1, 9908, Note_on_c, 1, 67, 0
1, 9908, Note_on_c, 1, 61, 0
1, 9908, Note_on_c, 1, 57, 0
1, 9926, Note_on_c, 0, 78, 0
1, 9927, Note_on_c, 0, 76, 64
1, 9936, Note_on_c, 1, 67, 64
1, 9936, Note_on_c, 1, 61, 64
1, 9936, Note_on_c, 1, 57, 64
1, 9945, Note_on_c, 0, 76, 0
1, 9946, Note_on_c, 0, 74, 64
1, 9956, Note_on_c, 1, 67, 0
1, 9956, Note_on_c, 1, 61, 0
1, 9956, Note_on_c, 1, 57, 0
1, 9964, Note_on_c, 0, 74, 0
1, 9965, Note_on_c, 0, 76, 64
1, 9983, Note_on_c, 0, 76, 0
1, 9984, Note_on_c, 0, 74, 64
1, 9984, Note_on_c, 1, 66, 64
1, 9984, Note_on_c, 1, 62, 64
1, 10007, Note_on_c, 0, 74, 0
1, 10008, Note_on_c, 0, 76, 64
1, 10031, Note_on_c, 0, 76, 0
1, 10032, Note_on_c, 0, 78, 64
1, 10055, Note_on_c, 0, 78, 0
1, 10056, Note_on_c, 0, 76, 64
1, 10073, Note_on_c, 1, 66, 0
1, 10073, Note_on_c, 1, 62, 0
1, 10079, Note_on_c, 0, 76, 0
1, 10080, Note_on_c, 0, 74, 64
1, 10103, Note_on_c, 0, 74, 0
1, 10104, Note_on_c, 0, 76, 64
1, 10127, Note_on_c, 0, 76, 0
1, 10128, Note_on_c, 0, 78, 64
1, 10128, Note_on_c, 1, 54, 64
1, 10128, Note_on_c, 1, 42, 64
1, 10148, Note_on_c, 1, 54, 0
1, 10148, Note_on_c, 1, 42, 0
1, 10151, Note_on_c, 0, 78, 0
1, 10152, Note_on_c, 0, 76, 64
1, 10175, Note_on_c, 0, 76, 0
1, 10176, Note_on_c, 0, 74, 64
1, 10176, Note_on_c, 1, 55, 64
1, 10176, Note_on_c, 1, 43, 64
1, 10196, Note_on_c, 1, 55, 0
1, 10196, Note_on_c, 1, 43, 0
1, 10199, Note_on_c, 0, 74, 0
1, 10200, Note_on_c, 0, 76, 64
1, 10223, Note_on_c, 0, 76, 0
1, 10224, Note_on_c, 0, 78, 64
1, 10224, Note_on_c, 1, 57, 64
1, 10224, Note_on_c, 1, 45, 64
1, 10244, Note_on_c, 1, 57, 0
1, 10244, Note_on_c, 1, 45, 0
1, 10247, Note_on_c, 0, 78, 0
1, 10248, Note_on_c, 0, 76, 64
1, 10271, Note_on_c, 0, 76, 0
1, 10272, Note_on_c, 0, 74, 64
1, 10272, Note_on_c, 1, 59, 64
1, 10272, Note_on_c, 1, 47, 64
1, 10292, Note_on_c, 1, 59, 0
1, 10292, Note_on_c, 1, 47, 0
1, 10295, Note_on_c, 0, 74, 0
1, 10296, Note_on_c, 0, 76, 64
1, 10319, Note_on_c, 0, 76, 0
1, 10320, Note_on_c, 0, 78, 64
1, 10320, Note_on_c, 1, 61, 64
1, 10320, Note_on_c, 1, 49, 64
1, 10340, Note_on_c, 1, 61, 0
1, 10340, Note_on_c, 1, 49, 0
1, 10343, Note_on_c, 0, 78, 0
1, 10344, Note_on_c, 0, 76, 64
1, 10367, Note_on_c, 0, 76, 0
1, 10368, Note_on_c, 0, 74, 64
1, 10368, Note_on_c, 1, 62, 64
1, 10368, Note_on_c, 1, 50, 64
1, 10391, Note_on_c, 0, 74, 0
1, 10392, Note_on_c, 0, 76, 64
1, 10415, Note_on_c, 0, 76, 0
1, 10416, Note_on_c, 0, 78, 64
1, 10439, Note_on_c, 0, 78, 0
1, 10440, Note_on_c, 0, 76, 64
1, 10457, Note_on_c, 1, 62, 0
1, 10457, Note_on_c, 1, 50, 0
1, 10463, Note_on_c, 0, 76, 0
1, 10464, Note_on_c, 0, 74, 64
1, 10487, Note_on_c, 0, 74, 0
1, 10488, Note_on_c, 0, 76, 64
1, 10511, Note_on_c, 0, 76, 0
1, 10512, Note_on_c, 0, 78, 64
1, 10512, Note_on_c, 1, 42, 64
1, 10512, Note_on_c, 1, 30, 64
1, 10532, Note_on_c, 1, 42, 0
1, 10532, Note_on_c, 1, 30, 0
1, 10535, Note_on_c, 0, 78, 0
1, 10536, Note_on_c, 0, 76, 64
1, 10559, Note_on_c, 0, 76, 0
1, 10560, Note_on_c, 0, 74, 64
1, 10560, Note_on_c, 1, 43, 64
1, 10560, Note_on_c, 1, 31, 64
1, 10580, Note_on_c, 1, 43, 0
1, 10580, Note_on_c, 1, 31, 0
1, 10583, Note_on_c, 0, 74, 0
1, 10584, Note_on_c, 0, 76, 64
1, 10607, Note_on_c, 0, 76, 0
1, 10608, Note_on_c, 0, 78, 64
1, 10608, Note_on_c, 1, 45, 64
1, 10608, Note_on_c, 1, 33, 64
1, 10628, Note_on_c, 1, 45, 0
1, 10628, Note_on_c, 1, 33, 0
1, 10631, Note_on_c, 0, 78, 0
1, 10632, Note_on_c, 0, 76, 64
1, 10655, Note_on_c, 0, 76, 0
1, 10656, Note_on_c, 0, 74, 64
1, 10656, Note_on_c, 1, 47, 64
1, 10656, Note_on_c, 1, 35, 64
1, 10676, Note_on_c, 1, 47, 0
1, 10676, Note_on_c, 1, 35, 0
1, 10679, Note_on_c, 0, 74, 0
1, 10680, Note_on_c, 0, 76, 64
1, 10703, Note_on_c, 0, 76, 0
1, 10704, Note_on_c, 0, 78, 64
1, 10704, Note_on_c, 1, 49, 64
1, 10704, Note_on_c, 1, 37, 64
1, 10724, Note_on_c, 1, 49, 0
1, 10724, Note_on_c, 1, 37, 0
1, 10727, Note_on_c, 0, 78, 0
1, 10728, Note_on_c, 0, 76, 64
1, 10751, Note_on_c, 0, 76, 0
1, 10752, Note_on_c, 0, 74, 64
1, 10752, Note_on_c, 1, 50, 64
1, 10752, Note_on_c, 1, 38, 64
1, 10775, Note_on_c, 0, 74, 0
1, 10776, Note_on_c, 0, 76, 64
1, 10799, Note_on_c, 0, 76, 0
1, 10800, Note_on_c, 0, 78, 64
1, 10823, Note_on_c, 0, 78, 0
1, 10824, Note_on_c, 0, 76, 64
1, 10841, Note_on_c, 1, 50, 0
1, 10841, Note_on_c, 1, 38, 0
1, 10847, Note_on_c, 0, 76, 0
1, 10848, Note_on_c, 0, 74, 64
1, 10871, Note_on_c, 0, 74, 0
1, 10872, Note_on_c, 0, 76, 64
1, 10895, Note_on_c, 0, 76, 0
1, 10896, Note_on_c, 0, 78, 64
1, 10896, Note_on_c, 1, 54, 64
1, 10896, Note_on_c, 1, 42, 64
1, 10916, Note_on_c, 1, 54, 0
1, 10916, Note_on_c, 1, 42, 0
1, 10919, Note_on_c, 0, 78, 0
1, 10920, Note_on_c, 0, 76, 64
1, 10943, Note_on_c, 0, 76, 0
1, 10944, Note_on_c, 0, 74, 64
1, 10944, Note_on_c, 1, 55, 64
1, 10944, Note_on_c, 1, 43, 64
1, 10964, Note_on_c, 1, 55, 0
1, 10964, Note_on_c, 1, 43, 0
1, 10967, Note_on_c, 0, 74, 0
1, 10968, Note_on_c, 0, 76, 64
1, 10991, Note_on_c, 0, 76, 0
1, 10992, Note_on_c, 0, 78, 64
1, 10992, Note_on_c, 1, 57, 64
1, 10992, Note_on_c, 1, 45, 64
1, 11012, Note_on_c, 1, 57, 0
1, 11012, Note_on_c, 1, 45, 0
1, 11015, Note_on_c, 0, 78, 0
1, 11016, Note_on_c, 0, 76, 64
1, 11039, Note_on_c, 0, 76, 0
1, 11040, Note_on_c, 0, 74, 64
1, 11040, Note_on_c, 1, 59, 64
1, 11040, Note_on_c, 1, 47, 64
1, 11060, Note_on_c, 1, 59, 0
1, 11060, Note_on_c, 1, 47, 0
1, 11063, Note_on_c, 0, 74, 0
1, 11064, Note_on_c, 0, 76, 64
1, 11087, Note_on_c, 0, 76, 0
1, 11088, Note_on_c, 0, 78, 64
1, 11088, Note_on_c, 1, 61, 64
1, 11088, Note_on_c, 1, 49, 64
1, 11108, Note_on_c, 1, 61, 0
1, 11108, Note_on_c, 1, 49, 0
1, 11111, Note_on_c, 0, 78, 0
1, 11112, Note_on_c, 0, 76, 64
1, 11135, Note_on_c, 0, 76, 0
1, 11136, Note_on_c, 0, 74, 64
1, 11136, Note_on_c, 1, 62, 64
1, 11136, Note_on_c, 1, 50, 64
1, 11159, Note_on_c, 0, 74, 0
1, 11160, Note_on_c, 0, 76, 64
1, 11183, Note_on_c, 0, 76, 0
1, 11184, Note_on_c, 0, 78, 64
1, 11207, Note_on_c, 0, 78, 0
1, 11208, Note_on_c, 0, 76, 64
1, 11225, Note_on_c, 1, 62, 0
1, 11225, Note_on_c, 1, 50, 0
1, 11231, Note_on_c, 0, 76, 0
1, 11232, Note_on_c, 0, 74, 64
1, 11255, Note_on_c, 0, 74, 0
1, 11256, Note_on_c, 0, 76, 64
1, 11279, Note_on_c, 0, 76, 0
1, 11280, Note_on_c, 0, 78, 64
1, 11303, Note_on_c, 0, 78, 0
1, 11304, Note_on_c, 0, 76, 64
1, 11327, Note_on_c, 0, 76, 0
1, 11328, Note_on_c, 0, 74, 64
1, 11328, Note_on_c, 1, 62, 64
1, 11328, Note_on_c, 1, 57, 64
1, 11328, Note_on_c, 1, 54, 64
1, 11351, Note_on_c, 0, 74, 0
1, 11352, Note_on_c, 0, 76, 64
1, 11375, Note_on_c, 0, 76, 0
1, 11376, Note_on_c, 0, 78, 64
1, 11399, Note_on_c, 0, 78, 0
1, 11400, Note_on_c, 0, 79, 64
1, 11417, Note_on_c, 1, 62, 0
1, 11417, Note_on_c, 1, 57, 0
1, 11417, Note_on_c, 1, 54, 0
1, 11423, Note_on_c, 0, 79, 0
1, 11424, Note_on_c, 0, 81, 64
1, 11447, Note_on_c, 0, 81, 0
1, 11448, Note_on_c, 0, 83, 64
1, 11471, Note_on_c, 0, 83, 0
1, 11472, Note_on_c, 0, 85, 64
1, 11495, Note_on_c, 0, 85, 0
1, 11496, Note_on_c, 0, 86, 64
1, 11519, Note_on_c, 0, 86, 0
1, 11520, Note_on_c, 0, 85, 64
1, 11520, Note_on_c, 1, 62, 64
1, 11520, Note_on_c, 1, 55, 64
1, 11543, Note_on_c, 0, 85, 0
1, 11544, Note_on_c, 0, 83, 64
1, 11567, Note_on_c, 0, 83, 0
1, 11568, Note_on_c, 0, 82, 64
1, 11591, Note_on_c, 0, 82, 0
1, 11592, Note_on_c, 0, 83, 64
1, 11609, Note_on_c, 1, 62, 0
1, 11609, Note_on_c, 1, 55, 0
1, 11615, Note_on_c, 0, 83, 0
1, 11616, Note_on_c, 0, 82, 64
1, 11639, Note_on_c, 0, 82, 0
1, 11640, Note_on_c, 0, 83, 64
1, 11663, Note_on_c, 0, 83, 0
1, 11664, Note_on_c, 0, 82, 64
1, 11687, Note_on_c, 0, 82, 0
1, 11688, Note_on_c, 0, 83, 64
1, 11711, Note_on_c, 0, 83, 0
1, 11712, Note_on_c, 0, 86, 64
1, 11735, Note_on_c, 0, 86, 0
1, 11736, Note_on_c, 0, 83, 64
1, 11759, Note_on_c, 0, 83, 0
1, 11760, Note_on_c, 0, 81, 64
1, 11783, Note_on_c, 0, 81, 0
1, 11784, Note_on_c, 0, 79, 64
1, 11807, Note_on_c, 0, 79, 0
1, 11808, Note_on_c, 0, 83, 64
1, 11831, Note_on_c, 0, 83, 0
1, 11832, Note_on_c, 0, 79, 64
1, 11855, Note_on_c, 0, 79, 0
1, 11856, Note_on_c, 0, 78, 64
1, 11879, Note_on_c, 0, 78, 0
1, 11880, Note_on_c, 0, 76, 64
1, 11903, Note_on_c, 0, 76, 0
1, 11904, Note_on_c, 0, 81, 64
1, 11904, Note_on_c, 1, 66, 64
1, 11904, Note_on_c, 1, 62, 64
1, 11904, Note_on_c, 1, 57, 64
1, 11924, Note_on_c, 1, 66, 0
1, 11924, Note_on_c, 1, 62, 0
1, 11924, Note_on_c, 1, 57, 0
1, 11927, Note_on_c, 0, 81, 0
1, 11928, Note_on_c, 0, 80, 64
1, 11951, Note_on_c, 0, 80, 0
1, 11952, Note_on_c, 0, 81, 64
1, 11952, Note_on_c, 1, 66, 64
1, 11952, Note_on_c, 1, 62, 64
1, 11952, Note_on_c, 1, 57, 64
1, 11972, Note_on_c, 1, 66, 0
1, 11972, Note_on_c, 1, 62, 0
1, 11972, Note_on_c, 1, 57, 0
1, 11975, Note_on_c, 0, 81, 0
1, 11976, Note_on_c, 0, 80, 64
1, 11999, Note_on_c, 0, 80, 0
1, 12000, Note_on_c, 0, 81, 64
1, 12000, Note_on_c, 1, 66, 64
1, 12000, Note_on_c, 1, 62, 64
1, 12000, Note_on_c, 1, 57, 64
1, 12020, Note_on_c, 1, 66, 0
1, 12020, Note_on_c, 1, 62, 0
1, 12020, Note_on_c, 1, 57, 0
1, 12023, Note_on_c, 0, 81, 0
1, 12024, Note_on_c, 0, 78, 64
1, 12047, Note_on_c, 0, 78, 0
1, 12048, Note_on_c, 0, 76, 64
1, 12048, Note_on_c, 1, 66, 64
1, 12048, Note_on_c, 1, 62, 64
1, 12048, Note_on_c, 1, 57, 64
1, 12068, Note_on_c, 1, 66, 0
1, 12068, Note_on_c, 1, 62, 0
1, 12068, Note_on_c, 1, 57, 0
1, 12071, Note_on_c, 0, 76, 0
1, 12072, Note_on_c, 0, 74, 64
1, 12095, Note_on_c, 0, 74, 0
1, 12096, Note_on_c, 0, 78, 64
1, 12096, Note_on_c, 1, 67, 64
1, 12096, Note_on_c, 1, 61, 64
1, 12096, Note_on_c, 1, 57, 64
1, 12115, Note_on_c, 0, 78, 0
1, 12116, Note_on_c, 0, 76, 64
1, 12116, Note_on_c, 1, 67, 0
1, 12116, Note_on_c, 1, 61, 0
1, 12116, Note_on_c, 1, 57, 0
1, 12135, Note_on_c, 0, 76, 0
1, 12136, Note_on_c, 0, 78, 64
1, 12144, Note_on_c, 1, 67, 64
1, 12144, Note_on_c, 1, 61, 64
1, 12144, Note_on_c, 1, 57, 64
1, 12154, Note_on_c, 0, 78, 0
1, 12155, Note_on_c, 0, 76, 64
1, 12164, Note_on_c, 1, 67, 0
1, 12164, Note_on_c, 1, 61, 0
1, 12164, Note_on_c, 1, 57, 0
1, 12173, Note_on_c, 0, 76, 0
1, 12174, Note_on_c, 0, 78, 64
1, 12192, Note_on_c, 0, 78, 0
1, 12192, Note_on_c, 1, 67, 64
1, 12192, Note_on_c, 1, 61, 64
1, 12192, Note_on_c, 1, 57, 64
1, 12193, Note_on_c, 0, 76, 64
1, 12211, Note_on_c, 0, 76, 0
1, 12212, Note_on_c, 0, 78, 64
1, 12212, Note_on_c, 1, 67, 0
1, 12212, Note_on_c, 1, 61, 0
1, 12212, Note_on_c, 1, 57, 0
1, 12230, Note_on_c, 0, 78, 0
1, 12231, Note_on_c, 0, 76, 64
1, 12240, Note_on_c, 1, 67, 64
1, 12240, Note_on_c, 1, 61, 64
1, 12240, Note_on_c, 1, 57, 64
1, 12249, Note_on_c, 0, 76, 0
1, 12250, Note_on_c, 0, 74, 64
1, 12260, Note_on_c, 1, 67, 0
1, 12260, Note_on_c, 1, 61, 0
1, 12260, Note_on_c, 1, 57, 0
1, 12268, Note_on_c, 0, 74, 0
1, 12269, Note_on_c, 0, 76, 64
1, 12287, Note_on_c, 0, 76, 0
1, 12288, Note_on_c, 0, 74, 64
1, 12288, Note_on_c, 1, 66, 64
1, 12288, Note_on_c, 1, 62, 64
1, 12311, Note_on_c, 0, 74, 0
1, 12312, Note_on_c, 0, 81, 64
1, 12327, Note_on_c, 1, 66, 0
1, 12327, Note_on_c, 1, 62, 0
1, 12335, Note_on_c, 0, 81, 0
1, 12336, Note_on_c, 0, 78, 64
1, 12359, Note_on_c, 0, 78, 0
1, 12360, Note_on_c, 0, 74, 64
1, 12383, Note_on_c, 0, 74, 0
1, 12384, Note_on_c, 0, 69, 64
1, 12384, Note_on_c, 1, 67, 64
1, 12384, Note_on_c, 1, 57, 64
1, 12407, Note_on_c, 0, 69, 0
1, 12408, Note_on_c, 0, 79, 64
1, 12431, Note_on_c, 0, 79, 0
1, 12432, Note_on_c, 0, 76, 64
1, 12455, Note_on_c, 0, 76, 0
1, 12456, Note_on_c, 0, 73, 64
1, 12473, Note_on_c, 1, 67, 0
1, 12473, Note_on_c, 1, 57, 0
1, 12479, Note_on_c, 0, 73, 0
1, 12480, Note_on_c, 0, 69, 64
1, 12480, Note_on_c, 1, 66, 64
1, 12480, Note_on_c, 1, 62, 64
1, 12503, Note_on_c, 0, 69, 0
1, 12504, Note_on_c, 0, 81, 64
1, 12519, Note_on_c, 1, 66, 0
1, 12519, Note_on_c, 1, 62, 0
1, 12527, Note_on_c, 0, 81, 0
1, 12528, Note_on_c, 0, 78, 64
1, 12551, Note_on_c, 0, 78, 0
1, 12552, Note_on_c, 0, 74, 64
1, 12575, Note_on_c, 0, 74, 0
1, 12576, Note_on_c, 0, 69, 64
1, 12576, Note_on_c, 1, 67, 64
1, 12576, Note_on_c, 1, 57, 64
1, 12599, Note_on_c, 0, 69, 0
1, 12600, Note_on_c, 0, 79, 64
1, 12623, Note_on_c, 0, 79, 0
1, 12624, Note_on_c, 0, 76, 64
1, 12647, Note_on_c, 0, 76, 0
1, 12648, Note_on_c, 0, 73, 64
1, 12665, Note_on_c, 1, 67, 0
1, 12665, Note_on_c, 1, 57, 0
1, 12671, Note_on_c, 0, 73, 0
1, 12672, Note_on_c, 0, 69, 64
1, 12672, Note_on_c, 1, 66, 64
1, 12672, Note_on_c, 1, 62, 64
1, 12695, Note_on_c, 0, 69, 0
1, 12696, Note_on_c, 0, 81, 64
1, 12711, Note_on_c, 1, 66, 0
1, 12711, Note_on_c, 1, 62, 0
1, 12719, Note_on_c, 0, 81, 0
1, 12720, Note_on_c, 0, 78, 64
1, 12743, Note_on_c, 0, 78, 0
1, 12744, Note_on_c, 0, 74, 64
1, 12767, Note_on_c, 0, 74, 0
1, 12768, Note_on_c, 0, 69, 64
1, 12768, Note_on_c, 1, 67, 64
1, 12768, Note_on_c, 1, 57, 64
1, 12791, Note_on_c, 0, 69, 0
1, 12792, Note_on_c, 0, 79, 64
1, 12815, Note_on_c, 0, 79, 0
1, 12816, Note_on_c, 0, 76, 64
1, 12839, Note_on_c, 0, 76, 0
1, 12840, Note_on_c, 0, 73, 64
1, 12857, Note_on_c, 1, 67, 0
1, 12857, Note_on_c, 1, 57, 0
1, 12863, Note_on_c, 0, 73, 0
1, 12864, Note_on_c, 0, 69, 64
1, 12864, Note_on_c, 1, 66, 64
1, 12864, Note_on_c, 1, 62, 64
1, 12887, Note_on_c, 0, 69, 0
1, 12888, Note_on_c, 0, 81, 64
1, 12903, Note_on_c, 1, 66, 0
1, 12903, Note_on_c, 1, 62, 0
1, 12911, Note_on_c, 0, 81, 0
1, 12912, Note_on_c, 0, 78, 64
1, 12935, Note_on_c, 0, 78, 0
1, 12936, Note_on_c, 0, 74, 64
1, 12959, Note_on_c, 0, 74, 0
1, 12960, Note_on_c, 0, 69, 64
1, 12960, Note_on_c, 1, 67, 64
1, 12960, Note_on_c, 1, 57, 64
1, 12983, Note_on_c, 0, 69, 0
1, 12984, Note_on_c, 0, 79, 64
1, 13007, Note_on_c, 0, 79, 0
1, 13008, Note_on_c, 0, 76, 64
1, 13031, Note_on_c, 0, 76, 0
1, 13032, Note_on_c, 0, 73, 64
1, 13049, Note_on_c, 1, 67, 0
1, 13049, Note_on_c, 1, 57, 0
1, 13055, Note_on_c, 0, 73, 0
1, 13056, Note_on_c, 0, 69, 64
1, 13056, Note_on_c, 1, 66, 64
1, 13056, Note_on_c, 1, 62, 64
1, 13095, Note_on_c, 1, 66, 0
1, 13095, Note_on_c, 1, 62, 0
1, 13104, Note_on_c, 0, 69, 0
1, 13104, Note_on_c, 0, 78, 64
1, 13104, Note_on_c, 0, 74, 64
1, 13149, Note_on_c, 0, 78, 0
1, 13149, Note_on_c, 0, 74, 0
1, 13152, Note_on_c, 0, 78, 64
1, 13152, Note_on_c, 0, 74, 64
1, 13172, Note_on_c, 0, 78, 0
1, 13172, Note_on_c, 0, 74, 0
1, 13200, Note_on_c, 0, 78, 64
1, 13200, Note_on_c, 0, 74, 64
1, 13220, Note_on_c, 0, 78, 0
1, 13220, Note_on_c, 0, 74, 0
1, 13248, Note_on_c, 0, 81, 64
1, 13248, Note_on_c, 0, 78, 64
1, 13296, Note_on_c, 0, 81, 0
1, 13296, Note_on_c, 0, 74, 64
1, 13341, Note_on_c, 0, 78, 0
1, 13341, Note_on_c, 0, 74, 0
1, 13344, Note_on_c, 0, 78, 64
1, 13344, Note_on_c, 0, 74, 64
1, 13364, Note_on_c, 0, 78, 0
1, 13364, Note_on_c, 0, 74, 0
1, 13392, Note_on_c, 0, 78, 64
1, 13392, Note_on_c, 0, 74, 64
1, 13412, Note_on_c, 0, 78, 0
1, 13412, Note_on_c, 0, 74, 0
1, 13440, Note_on_c, 0, 81, 64
1, 13440, Note_on_c, 0, 78, 64
1, 13529, Note_on_c, 0, 81, 0
1, 13529, Note_on_c, 0, 78, 0
1, 13776, Note_on_c, 0, 59, 64
1, 13796, Note_on_c, 0, 59, 0
1, 13824, Note_on_c, 0, 59, 64
1, 13844, Note_on_c, 0, 59, 0
1, 13872, Note_on_c, 0, 59, 64
1, 13892, Note_on_c, 0, 59, 0
1, 13920, Note_on_c, 0, 59, 64
1, 13940, Note_on_c, 0, 59, 0
1, 13968, Note_on_c, 0, 59, 64
1, 13988, Note_on_c, 0, 59, 0
1, 14016, Note_on_c, 0, 62, 64
1, 14061, Note_on_c, 0, 62, 0
1, 14064, Note_on_c, 0, 61, 64
1, 14109, Note_on_c, 0, 61, 0
1, 14112, Note_on_c, 0, 59, 64
1, 14157, Note_on_c, 0, 59, 0
1, 14160, Note_on_c, 0, 67, 64
1, 14160, Note_on_c, 1, 59, 64
1, 14180, Note_on_c, 0, 67, 0
1, 14208, Note_on_c, 0, 66, 64
1, 14208, Note_on_c, 1, 59, 0
1, 14208, Note_on_c, 1, 58, 64
1, 14253, Note_on_c, 0, 66, 0
1, 14256, Note_on_c, 0, 65, 64
1, 14297, Note_on_c, 1, 58, 0
1, 14301, Note_on_c, 0, 65, 0
1, 14304, Note_on_c, 0, 66, 64
1, 14349, Note_on_c, 0, 66, 0
1, 14352, Note_on_c, 0, 64, 64
1, 14352, Note_on_c, 1, 55, 64
1, 14372, Note_on_c, 0, 64, 0
1, 14400, Note_on_c, 0, 62, 64
1, 14400, Note_on_c, 1, 55, 0
1, 14400, Note_on_c, 1, 54, 64
1, 14445, Note_on_c, 0, 62, 0
1, 14448, Note_on_c, 0, 61, 64
1, 14489, Note_on_c, 1, 54, 0
1, 14493, Note_on_c, 0, 61, 0
1, 14496, Note_on_c, 0, 62, 64
1, 14541, Note_on_c, 0, 62, 0
1, 14544, Note_on_c, 0, 61, 64
1, 14544, Note_on_c, 1, 52, 64
1, 14564, Note_on_c, 0, 61, 0
1, 14592, Note_on_c, 0, 59, 64
1, 14592, Note_on_c, 1, 52, 0
1, 14592, Note_on_c, 1, 50, 64
1, 14637, Note_on_c, 0, 59, 0
1, 14640, Note_on_c, 0, 58, 64
1, 14681, Note_on_c, 1, 50, 0
1, 14685, Note_on_c, 0, 58, 0
1, 14688, Note_on_c, 0, 59, 64
1, 14733, Note_on_c, 0, 59, 0
1, 14736, Note_on_c, 0, 59, 64
1, 14736, Note_on_c, 1, 55, 64
1, 14756, Note_on_c, 0, 59, 0
1, 14756, Note_on_c, 1, 55, 0
1, 14784, Note_on_c, 0, 59, 64
1, 14784, Note_on_c, 1, 54, 64
1, 14804, Note_on_c, 0, 59, 0
1, 14829, Note_on_c, 1, 54, 0
1, 14832, Note_on_c, 0, 59, 64
1, 14832, Note_on_c, 1, 52, 64
1, 14852, Note_on_c, 0, 59, 0
1, 14877, Note_on_c, 1, 52, 0
1, 14880, Note_on_c, 0, 59, 64
1, 14880, Note_on_c, 1, 50, 64
1, 14900, Note_on_c, 0, 59, 0
1, 14925, Note_on_c, 1, 50, 0
1, 14928, Note_on_c, 0, 64, 64
1, 14928, Note_on_c, 1, 49, 64
1, 14948, Note_on_c, 0, 64, 0
1, 14948, Note_on_c, 1, 49, 0
1, 14976, Note_on_c, 0, 62, 64
1, 14976, Note_on_c, 1, 47, 64
1, 15021, Note_on_c, 0, 62, 0
1, 15024, Note_on_c, 0, 61, 64
1, 15065, Note_on_c, 1, 47, 0
1, 15069, Note_on_c, 0, 61, 0
1, 15072, Note_on_c, 0, 59, 64
1, 15117, Note_on_c, 0, 59, 0
1, 15120, Note_on_c, 0, 67, 64
1, 15120, Note_on_c, 1, 47, 64
1, 15140, Note_on_c, 0, 67, 0
1, 15165, Note_on_c, 1, 47, 0
1, 15168, Note_on_c, 0, 66, 64
1, 15168, Note_on_c, 1, 47, 64
1, 15188, Note_on_c, 1, 47, 0
1, 15213, Note_on_c, 0, 66, 0
1, 15216, Note_on_c, 0, 64, 64
1, 15216, Note_on_c, 1, 47, 64
1, 15236, Note_on_c, 1, 47, 0
1, 15261, Note_on_c, 0, 64, 0
1, 15264, Note_on_c, 0, 62, 64
1, 15264, Note_on_c, 1, 47, 64
1, 15284, Note_on_c, 1, 47, 0
1, 15309, Note_on_c, 0, 62, 0
1, 15312, Note_on_c, 0, 61, 64
1, 15312, Note_on_c, 1, 52, 64
1, 15332, Note_on_c, 0, 61, 0
1, 15357, Note_on_c, 1, 52, 0
1, 15360, Note_on_c, 0, 59, 64
1, 15360, Note_on_c, 1, 50, 64
1, 15405, Note_on_c, 1, 50, 0
1, 15408, Note_on_c, 1, 49, 64
1, 15449, Note_on_c, 0, 59, 0
1, 15453, Note_on_c, 1, 49, 0
1, 15456, Note_on_c, 1, 47, 64
1, 15501, Note_on_c, 1, 47, 0
1, 15504, Note_on_c, 0, 59, 64
1, 15504, Note_on_c, 1, 55, 64
1, 15524, Note_on_c, 0, 59, 0
1, 15524, Note_on_c, 1, 55, 0
1, 15552, Note_on_c, 0, 59, 64
1, 15552, Note_on_c, 1, 54, 64
1, 15572, Note_on_c, 0, 59, 0
1, 15597, Note_on_c, 1, 54, 0
1, 15600, Note_on_c, 0, 59, 64
1, 15600, Note_on_c, 1, 52, 64
1, 15620, Note_on_c, 0, 59, 0
1, 15645, Note_on_c, 1, 52, 0
1, 15648, Note_on_c, 0, 59, 64
1, 15648, Note_on_c, 1, 50, 64
1, 15668, Note_on_c, 0, 59, 0
1, 15693, Note_on_c, 1, 50, 0
1, 15696, Note_on_c, 0, 64, 64
1, 15696, Note_on_c, 1, 49, 64
1, 15716, Note_on_c, 0, 64, 0
1, 15716, Note_on_c, 1, 49, 0
1, 15744, Note_on_c, 0, 62, 64
1, 15744, Note_on_c, 1, 47, 64
1, 15789, Note_on_c, 0, 62, 0
1, 15792, Note_on_c, 0, 61, 64
1, 15833, Note_on_c, 1, 47, 0
1, 15837, Note_on_c, 0, 61, 0
1, 15840, Note_on_c, 0, 59, 64
1, 15885, Note_on_c, 0, 59, 0
1, 15888, Note_on_c, 0, 71, 64
1, 15933, Note_on_c, 0, 71, 0
1, 15936, Note_on_c, 0, 69, 64
1, 15936, Note_on_c, 1, 59, 64
1, 15936, Note_on_c, 1, 55, 64
1, 15981, Note_on_c, 0, 69, 0
1, 15984, Note_on_c, 0, 67, 64
1, 16029, Note_on_c, 0, 67, 0
1, 16032, Note_on_c, 0, 66, 64
1, 16077, Note_on_c, 0, 66, 0
1, 16080, Note_on_c, 0, 65, 64
1, 16100, Note_on_c, 0, 65, 0
1, 16113, Note_on_c, 1, 59, 0
1, 16113, Note_on_c, 1, 55, 0
1, 16128, Note_on_c, 0, 66, 64
1, 16128, Note_on_c, 1, 58, 64
1, 16128, Note_on_c, 1, 54, 64
1, 16217, Note_on_c, 0, 66, 0
1, 16217, Note_on_c, 1, 58, 0
1, 16217, Note_on_c, 1, 54, 0
1, 16272, Note_on_c, 0, 71, 64
1, 16292, Note_on_c, 0, 71, 0
1, 16320, Note_on_c, 0, 71, 64
1, 16340, Note_on_c, 0, 71, 0
1, 16368, Note_on_c, 0, 71, 64
1, 16388, Note_on_c, 0, 71, 0
1, 16416, Note_on_c, 0, 71, 64
1, 16436, Note_on_c, 0, 71, 0
1, 16464, Note_on_c, 0, 71, 64
1, 16484, Note_on_c, 0, 71, 0
1, 16512, Note_on_c, 0, 74, 64
1, 16557, Note_on_c, 0, 74, 0
1, 16560, Note_on_c, 0, 73, 64
1, 16605, Note_on_c, 0, 73, 0
1, 16608, Note_on_c, 0, 71, 64
1, 16653, Note_on_c, 0, 71, 0
1, 16656, Note_on_c, 0, 79, 64
1, 16656, Note_on_c, 1, 74, 64
1, 16656, Note_on_c, 1, 71, 64
1, 16676, Note_on_c, 0, 79, 0
1, 16676, Note_on_c, 1, 74, 0
1, 16676, Note_on_c, 1, 71, 0
1, 16704, Note_on_c, 0, 78, 64
1, 16704, Note_on_c, 1, 73, 64
1, 16704, Note_on_c, 1, 70, 64
1, 16749, Note_on_c, 0, 78, 0
1, 16752, Note_on_c, 0, 77, 64
1, 16797, Note_on_c, 0, 77, 0
1, 16800, Note_on_c, 0, 78, 64
1, 16837, Note_on_c, 1, 73, 0
1, 16837, Note_on_c, 1, 70, 0
1, 16845, Note_on_c, 0, 78, 0
1, 16848, Note_on_c, 0, 79, 64
1, 16848, Note_on_c, 1, 74, 64
1, 16848, Note_on_c, 1, 71, 64
1, 16868, Note_on_c, 0, 79, 0
1, 16868, Note_on_c, 1, 74, 0
1, 16868, Note_on_c, 1, 71, 0
1, 16896, Note_on_c, 0, 78, 64
1, 16896, Note_on_c, 1, 73, 64
1, 16896, Note_on_c, 1, 70, 64
1, 16941, Note_on_c, 0, 78, 0
1, 16944, Note_on_c, 0, 77, 64
1, 16989, Note_on_c, 0, 77, 0
1, 16992, Note_on_c, 0, 78, 64
1, 17029, Note_on_c, 1, 73, 0
1, 17029, Note_on_c, 1, 70, 0
1, 17037, Note_on_c, 0, 78, 0
1, 17040, Note_on_c, 0, 79, 64
1, 17040, Note_on_c, 1, 74, 64
1, 17040, Note_on_c, 1, 71, 64
1, 17060, Note_on_c, 0, 79, 0
1, 17060, Note_on_c, 1, 74, 0
1, 17060, Note_on_c, 1, 71, 0
1, 17088, Note_on_c, 0, 78, 64
1, 17088, Note_on_c, 1, 73, 64
1, 17088, Note_on_c, 1, 70, 64
1, 17133, Note_on_c, 0, 78, 0
1, 17136, Note_on_c, 0, 77, 64
1, 17177, Note_on_c, 1, 73, 0
1, 17177, Note_on_c, 1, 70, 0
1, 17181, Note_on_c, 0, 77, 0
1, 17184, Note_on_c, 0, 78, 64
1, 17229, Note_on_c, 0, 78, 0
1, 17616, Note_on_c, 0, 79, 64
1, 17616, Note_on_c, 1, 74, 64
1, 17616, Note_on_c, 1, 71, 64
1, 17636, Note_on_c, 0, 79, 0
1, 17661, Note_on_c, 1, 74, 0
1, 17661, Note_on_c, 1, 71, 0
1, 17664, Note_on_c, 0, 78, 64
1, 17664, Note_on_c, 1, 73, 64
1, 17664, Note_on_c, 1, 69, 64
1, 17709, Note_on_c, 0, 78, 0
1, 17712, Note_on_c, 0, 77, 64
1, 17757, Note_on_c, 0, 77, 0
1, 17760, Note_on_c, 0, 78, 64
1, 17797, Note_on_c, 1, 73, 0
1, 17797, Note_on_c, 1, 69, 0
1, 17805, Note_on_c, 0, 78, 0
1, 17808, Note_on_c, 0, 76, 64
1, 17808, Note_on_c, 1, 71, 64
1, 17808, Note_on_c, 1, 67, 64
1, 17828, Note_on_c, 0, 76, 0
1, 17828, Note_on_c, 1, 71, 0
1, 17828, Note_on_c, 1, 67, 0
1, 17856, Note_on_c, 0, 74, 64
1, 17856, Note_on_c, 1, 69, 64
1, 17856, Note_on_c, 1, 66, 64
1, 17901, Note_on_c, 0, 74, 0
1, 17904, Note_on_c, 0, 73, 64
1, 17945, Note_on_c, 1, 69, 0
1, 17945, Note_on_c, 1, 66, 0
1, 17949, Note_on_c, 0, 73, 0
1, 17952, Note_on_c, 0, 74, 64
1, 17997, Note_on_c, 0, 74, 0
1, 18000, Note_on_c, 0, 86, 64
1, 18000, Note_on_c, 0, 74, 64
1, 18020, Note_on_c, 0, 86, 0
1, 18020, Note_on_c, 0, 74, 0
1, 18048, Note_on_c, 0, 85, 64
1, 18048, Note_on_c, 0, 73, 64
1, 18093, Note_on_c, 0, 85, 0
1, 18093, Note_on_c, 0, 73, 0
1, 18096, Note_on_c, 0, 84, 64
1, 18096, Note_on_c, 0, 72, 64
1, 18141, Note_on_c, 0, 84, 0
1, 18141, Note_on_c, 0, 72, 0
1, 18144, Note_on_c, 0, 83, 64
1, 18144, Note_on_c, 0, 71, 64
1, 18189, Note_on_c, 0, 83, 0
1, 18189, Note_on_c, 0, 71, 0
1, 18192, Note_on_c, 0, 82, 64
1, 18192, Note_on_c, 0, 70, 64
1, 18212, Note_on_c, 0, 82, 0
1, 18212, Note_on_c, 0, 70, 0
1, 18240, Note_on_c, 0, 83, 64
1, 18240, Note_on_c, 0, 71, 64
1, 18288, Note_on_c, 1, 54, 64
1, 18288, Note_on_c, 1, 42, 64
1, 18308, Note_on_c, 1, 54, 0
1, 18308, Note_on_c, 1, 42, 0
1, 18329, Note_on_c, 0, 83, 0
1, 18329, Note_on_c, 0, 71, 0
1, 18336, Note_on_c, 1, 55, 64
1, 18336, Note_on_c, 1, 43, 64
1, 18384, Note_on_c, 0, 83, 64
1, 18384, Note_on_c, 0, 79, 64
1, 18425, Note_on_c, 1, 55, 0
1, 18425, Note_on_c, 1, 43, 0
1, 18432, Note_on_c, 0, 83, 0
1, 18432, Note_on_c, 0, 79, 0
1, 18432, Note_on_c, 0, 81, 64
1, 18432, Note_on_c, 0, 78, 64
1, 18480, Note_on_c, 1, 69, 64
1, 18500, Note_on_c, 1, 69, 0
1, 18521, Note_on_c, 0, 81, 0
1, 18521, Note_on_c, 0, 78, 0
1, 18528, Note_on_c, 1, 69, 64
1, 18573, Note_on_c, 1, 69, 0
1, 18576, Note_on_c, 0, 79, 64
1, 18576, Note_on_c, 0, 73, 64
1, 18624, Note_on_c, 0, 79, 0
1, 18624, Note_on_c, 0, 73, 0
1, 18624, Note_on_c, 0, 78, 64
1, 18624, Note_on_c, 0, 74, 64
1, 18672, Note_on_c, 1, 74, 64
1, 18692, Note_on_c, 1, 74, 0
1, 18713, Note_on_c, 0, 78, 0
1, 18713, Note_on_c, 0, 74, 0
1, 18720, Note_on_c, 1, 74, 64
1, 18765, Note_on_c, 1, 74, 0
1, 18768, Note_on_c, 0, 74, 64
1, 18768, Note_on_c, 0, 62, 64
1, 18788, Note_on_c, 0, 74, 0
1, 18788, Note_on_c, 0, 62, 0
1, 18816, Note_on_c, 0, 73, 64
1, 18816, Note_on_c, 0, 61, 64
1, 18861, Note_on_c, 0, 73, 0
1, 18861, Note_on_c, 0, 61, 0
1, 18864, Note_on_c, 0, 72, 64
1, 18864, Note_on_c, 0, 60, 64
1, 18909, Note_on_c, 0, 72, 0
1, 18909, Note_on_c, 0, 60, 0
1, 18912, Note_on_c, 0, 71, 64
1, 18912, Note_on_c, 0, 59, 64
1, 18957, Note_on_c, 0, 71, 0
1, 18957, Note_on_c, 0, 59, 0
1, 18960, Note_on_c, 0, 70, 64
1, 18960, Note_on_c, 0, 58, 64
1, 18980, Note_on_c, 0, 70, 0
1, 18980, Note_on_c, 0, 58, 0
1, 19008, Note_on_c, 0, 71, 64
1, 19008, Note_on_c, 0, 59, 64
1, 19056, Note_on_c, 1, 42, 64
1, 19056, Note_on_c, 1, 30, 64
1, 19076, Note_on_c, 1, 42, 0
1, 19076, Note_on_c, 1, 30, 0
1, 19104, Note_on_c, 1, 43, 64
1, 19104, Note_on_c, 1, 31, 64
1, 19141, Note_on_c, 0, 71, 0
1, 19141, Note_on_c, 0, 59, 0
1, 19149, Note_on_c, 1, 43, 0
1, 19149, Note_on_c, 1, 31, 0
1, 19152, Note_on_c, 0, 75, 64
1, 19152, Note_on_c, 0, 63, 64
1, 19172, Note_on_c, 0, 75, 0
1, 19172, Note_on_c, 0, 63, 0
1, 19200, Note_on_c, 0, 76, 64
1, 19200, Note_on_c, 0, 64, 64
1, 19248, Note_on_c, 1, 54, 64
1, 19248, Note_on_c, 1, 42, 64
1, 19268, Note_on_c, 1, 54, 0
1, 19268, Note_on_c, 1, 42, 0
1, 19296, Note_on_c, 1, 55, 64
1, 19296, Note_on_c, 1, 43, 64
1, 19333, Note_on_c, 0, 76, 0
1, 19333, Note_on_c, 0, 64, 0
1, 19344, Note_on_c, 0, 78, 64
1, 19344, Note_on_c, 0, 66, 64
1, 19364, Note_on_c, 0, 78, 0
1, 19364, Note_on_c, 0, 66, 0
1, 19392, Note_on_c, 0, 79, 64
1, 19392, Note_on_c, 0, 67, 64
1, 19437, Note_on_c, 1, 55, 0
1, 19437, Note_on_c, 1, 43, 0
1, 19440, Note_on_c, 1, 63, 64
1, 19440, Note_on_c, 1, 51, 64
1, 19460, Note_on_c, 1, 63, 0
1, 19460, Note_on_c, 1, 51, 0
1, 19488, Note_on_c, 1, 64, 64
1, 19488, Note_on_c, 1, 52, 64
1, 19525, Note_on_c, 0, 79, 0
1, 19525, Note_on_c, 0, 67, 0
1, 19536, Note_on_c, 0, 82, 64
1, 19536, Note_on_c, 0, 70, 64
1, 19556, Note_on_c, 0, 82, 0
1, 19556, Note_on_c, 0, 70, 0
1, 19584, Note_on_c, 0, 83, 64
1, 19584, Note_on_c, 0, 71, 64
1, 19629, Note_on_c, 1, 64, 0
1, 19629, Note_on_c, 1, 52, 0
1, 19632, Note_on_c, 1, 66, 64
1, 19632, Note_on_c, 1, 54, 64
1, 19652, Note_on_c, 1, 66, 0
1, 19652, Note_on_c, 1, 54, 0
1, 19680, Note_on_c, 1, 67, 64
1, 19680, Note_on_c, 1, 55, 64
1, 19717, Note_on_c, 0, 83, 0
1, 19717, Note_on_c, 0, 71, 0
1, 19728, Note_on_c, 0, 85, 64
1, 19728, Note_on_c, 0, 73, 64
1, 19748, Note_on_c, 0, 85, 0
1, 19748, Note_on_c, 0, 73, 0
1, 19776, Note_on_c, 0, 86, 64
1, 19776, Note_on_c, 0, 74, 64
1, 19821, Note_on_c, 1, 67, 0
1, 19821, Note_on_c, 1, 55, 0
1, 19824, Note_on_c, 1, 68, 64
1, 19844, Note_on_c, 1, 68, 0
1, 19872, Note_on_c, 1, 77, 64
1, 19909, Note_on_c, 0, 86, 0
1, 19909, Note_on_c, 0, 74, 0
1, 19920, Note_on_c, 0, 76, 64
1, 19940, Note_on_c, 0, 76, 0
1, 19961, Note_on_c, 1, 77, 0
1, 19968, Note_on_c, 0, 85, 64
1, 20016, Note_on_c, 1, 57, 64
1, 20036, Note_on_c, 1, 57, 0
1, 20064, Note_on_c, 1, 69, 64
1, 20101, Note_on_c, 0, 85, 0
1, 20112, Note_on_c, 0, 74, 64
1, 20132, Note_on_c, 0, 74, 0
1, 20153, Note_on_c, 1, 69, 0
1, 20160, Note_on_c, 0, 86, 64
1, 20208, Note_on_c, 1, 68, 64
1, 20228, Note_on_c, 1, 68, 0
1, 20256, Note_on_c, 1, 77, 64
1, 20293, Note_on_c, 0, 86, 0
1, 20304, Note_on_c, 0, 76, 64
1, 20324, Note_on_c, 0, 76, 0
1, 20345, Note_on_c, 1, 77, 0
1, 20352, Note_on_c, 0, 85, 64
1, 20400, Note_on_c, 1, 57, 64
1, 20420, Note_on_c, 1, 57, 0
1, 20448, Note_on_c, 1, 69, 64
1, 20485, Note_on_c, 0, 85, 0
1, 20496, Note_on_c, 0, 74, 64
1, 20516, Note_on_c, 0, 74, 0
1, 20537, Note_on_c, 1, 69, 0
1, 20544, Note_on_c, 0, 86, 64
1, 20592, Note_on_c, 1, 68, 64
1, 20612, Note_on_c, 1, 68, 0
1, 20640, Note_on_c, 1, 77, 64
1, 20677, Note_on_c, 0, 86, 0
1, 20688, Note_on_c, 0, 76, 64
1, 20729, Note_on_c, 1, 77, 0
1, 20736, Note_on_c, 0, 85, 64
1, 20784, Note_on_c, 1, 57, 64
1, 20832, Note_on_c, 1, 69, 64
1, 21061, Note_on_c, 0, 85, 0
1, 21061, Note_on_c, 0, 76, 0
1, 21061, Note_on_c, 1, 69, 0
1, 21061, Note_on_c, 1, 57, 0
1, 21072, Note_on_c, 0, 74, 64
1, 21092, Note_on_c, 0, 74, 0
1, 21120, Note_on_c, 0, 74, 64
1, 21140, Note_on_c, 0, 74, 0
1, 21168, Note_on_c, 0, 74, 64
1, 21188, Note_on_c, 0, 74, 0
1, 21216, Note_on_c, 0, 74, 64
1, 21236, Note_on_c, 0, 74, 0
1, 21264, Note_on_c, 0, 74, 64
1, 21284, Note_on_c, 0, 74, 0
1, 21312, Note_on_c, 0, 74, 64
1, 21335, Note_on_c, 0, 74, 0
1, 21336, Note_on_c, 0, 76, 64
1, 21359, Note_on_c, 0, 76, 0
1, 21360, Note_on_c, 0, 78, 64
1, 21383, Note_on_c, 0, 78, 0
1, 21384, Note_on_c, 0, 76, 64
1, 21407, Note_on_c, 0, 76, 0
1, 21408, Note_on_c, 0, 74, 64
1, 21431, Note_on_c, 0, 74, 0
1, 21432, Note_on_c, 0, 76, 64
1, 21455, Note_on_c, 0, 76, 0
1, 21456, Note_on_c, 0, 78, 64
1, 21456, Note_on_c, 1, 54, 64
1, 21456, Note_on_c, 1, 42, 64
1, 21476, Note_on_c, 1, 54, 0
1, 21476, Note_on_c, 1, 42, 0
1, 21479, Note_on_c, 0, 78, 0
1, 21480, Note_on_c, 0, 76, 64
1, 21503, Note_on_c, 0, 76, 0
1, 21504, Note_on_c, 0, 74, 64
1, 21504, Note_on_c, 1, 55, 64
1, 21504, Note_on_c, 1, 43, 64
1, 21524, Note_on_c, 1, 55, 0
1, 21524, Note_on_c, 1, 43, 0
1, 21527, Note_on_c, 0, 74, 0
1, 21528, Note_on_c, 0, 76, 64
1, 21551, Note_on_c, 0, 76, 0
1, 21552, Note_on_c, 0, 78, 64
1, 21552, Note_on_c, 1, 57, 64
1, 21552, Note_on_c, 1, 45, 64
1, 21572, Note_on_c, 1, 57, 0
1, 21572, Note_on_c, 1, 45, 0
1, 21575, Note_on_c, 0, 78, 0
1, 21576, Note_on_c, 0, 76, 64
1, 21599, Note_on_c, 0, 76, 0
1, 21600, Note_on_c, 0, 74, 64
1, 21600, Note_on_c, 1, 59, 64
1, 21600, Note_on_c, 1, 47, 64
1, 21620, Note_on_c, 1, 59, 0
1, 21620, Note_on_c, 1, 47, 0
1, 21623, Note_on_c, 0, 74, 0
1, 21624, Note_on_c, 0, 76, 64
1, 21647, Note_on_c, 0, 76, 0
1, 21648, Note_on_c, 0, 78, 64
1, 21648, Note_on_c, 1, 61, 64
1, 21648, Note_on_c, 1, 49, 64
1, 21668, Note_on_c, 1, 61, 0
1, 21668, Note_on_c, 1, 49, 0
1, 21671, Note_on_c, 0, 78, 0
1, 21672, Note_on_c, 0, 76, 64
1, 21695, Note_on_c, 0, 76, 0
1, 21696, Note_on_c, 0, 74, 64
1, 21696, Note_on_c, 1, 62, 64
1, 21696, Note_on_c, 1, 50, 64
1, 21719, Note_on_c, 0, 74, 0
1, 21720, Note_on_c, 0, 76, 64
1, 21743, Note_on_c, 0, 76, 0
1, 21744, Note_on_c, 0, 78, 64
1, 21767, Note_on_c, 0, 78, 0
1, 21768, Note_on_c, 0, 76, 64
1, 21785, Note_on_c, 1, 62, 0
1, 21785, Note_on_c, 1, 50, 0
1, 21791, Note_on_c, 0, 76, 0
1, 21792, Note_on_c, 0, 74, 64
1, 21815, Note_on_c, 0, 74, 0
1, 21816, Note_on_c, 0, 76, 64
1, 21839, Note_on_c, 0, 76, 0
1, 21840, Note_on_c, 0, 78, 64
1, 21840, Note_on_c, 1, 54, 64
1, 21840, Note_on_c, 1, 42, 64
1, 21860, Note_on_c, 1, 54, 0
1, 21860, Note_on_c, 1, 42, 0
1, 21863, Note_on_c, 0, 78, 0
1, 21864, Note_on_c, 0, 76, 64
1, 21887, Note_on_c, 0, 76, 0
1, 21888, Note_on_c, 0, 74, 64
1, 21888, Note_on_c, 1, 55, 64
1, 21888, Note_on_c, 1, 43, 64
1, 21908, Note_on_c, 1, 55, 0
1, 21908, Note_on_c, 1, 43, 0
1, 21911, Note_on_c, 0, 74, 0
1, 21912, Note_on_c, 0, 76, 64
1, 21935, Note_on_c, 0, 76, 0
1, 21936, Note_on_c, 0, 78, 64
1, 21936, Note_on_c, 1, 57, 64
1, 21936, Note_on_c, 1, 45, 64
1, 21956, Note_on_c, 1, 57, 0
1, 21956, Note_on_c, 1, 45, 0
1, 21959, Note_on_c, 0, 78, 0
1, 21960, Note_on_c, 0, 76, 64
1, 21983, Note_on_c, 0, 76, 0
1, 21984, Note_on_c, 0, 74, 64
1, 21984, Note_on_c, 1, 59, 64
1, 21984, Note_on_c, 1, 47, 64
1, 22004, Note_on_c, 1, 59, 0
1, 22004, Note_on_c, 1, 47, 0
1, 22007, Note_on_c, 0, 74, 0
1, 22008, Note_on_c, 0, 76, 64
1, 22031, Note_on_c, 0, 76, 0
1, 22032, Note_on_c, 0, 78, 64
1, 22032, Note_on_c, 1, 61, 64
1, 22032, Note_on_c, 1, 49, 64
1, 22052, Note_on_c, 1, 61, 0
1, 22052, Note_on_c, 1, 49, 0
1, 22055, Note_on_c, 0, 78, 0
1, 22056, Note_on_c, 0, 76, 64
1, 22079, Note_on_c, 0, 76, 0
1, 22080, Note_on_c, 0, 74, 64
1, 22080, Note_on_c, 1, 62, 64
1, 22080, Note_on_c, 1, 50, 64
1, 22103, Note_on_c, 0, 74, 0
1, 22104, Note_on_c, 0, 76, 64
1, 22127, Note_on_c, 0, 76, 0
1, 22128, Note_on_c, 0, 78, 64
1, 22151, Note_on_c, 0, 78, 0
1, 22152, Note_on_c, 0, 76, 64
1, 22169, Note_on_c, 1, 62, 0
1, 22169, Note_on_c, 1, 50, 0
1, 22175, Note_on_c, 0, 76, 0
1, 22176, Note_on_c, 0, 74, 64
1, 22199, Note_on_c, 0, 74, 0
1, 22200, Note_on_c, 0, 76, 64
1, 22223, Note_on_c, 0, 76, 0
1, 22224, Note_on_c, 0, 78, 64
1, 22224, Note_on_c, 1, 54, 64
1, 22224, Note_on_c, 1, 42, 64
1, 22244, Note_on_c, 1, 54, 0
1, 22244, Note_on_c, 1, 42, 0
1, 22247, Note_on_c, 0, 78, 0
1, 22248, Note_on_c, 0, 76, 64
1, 22271, Note_on_c, 0, 76, 0
1, 22272, Note_on_c, 0, 74, 64
1, 22272, Note_on_c, 1, 55, 64
1, 22272, Note_on_c, 1, 43, 64
1, 22292, Note_on_c, 1, 55, 0
1, 22292, Note_on_c, 1, 43, 0
1, 22295, Note_on_c, 0, 74, 0
1, 22296, Note_on_c, 0, 76, 64
1, 22319, Note_on_c, 0, 76, 0
1, 22320, Note_on_c, 0, 78, 64
1, 22320, Note_on_c, 1, 57, 64
1, 22320, Note_on_c, 1, 45, 64
1, 22340, Note_on_c, 1, 57, 0
1, 22340, Note_on_c, 1, 45, 0
1, 22343, Note_on_c, 0, 78, 0
1, 22344, Note_on_c, 0, 76, 64
1, 22367, Note_on_c, 0, 76, 0
1, 22368, Note_on_c, 0, 74, 64
1, 22368, Note_on_c, 1, 59, 64
1, 22368, Note_on_c, 1, 47, 64
1, 22388, Note_on_c, 1, 59, 0
1, 22388, Note_on_c, 1, 47, 0
1, 22391, Note_on_c, 0, 74, 0
1, 22392, Note_on_c, 0, 76, 64
1, 22415, Note_on_c, 0, 76, 0
1, 22416, Note_on_c, 0, 78, 64
1, 22416, Note_on_c, 1, 61, 64
1, 22416, Note_on_c, 1, 49, 64
1, 22436, Note_on_c, 1, 61, 0
1, 22436, Note_on_c, 1, 49, 0
1, 22439, Note_on_c, 0, 78, 0
1, 22440, Note_on_c, 0, 76, 64
1, 22463, Note_on_c, 0, 76, 0
1, 22464, Note_on_c, 0, 74, 64
1, 22464, Note_on_c, 1, 62, 64
1, 22464, Note_on_c, 1, 50, 64
1, 22487, Note_on_c, 0, 74, 0
1, 22488, Note_on_c, 0, 76, 64
1, 22511, Note_on_c, 0, 76, 0
1, 22512, Note_on_c, 0, 78, 64
1, 22535, Note_on_c, 0, 78, 0
1, 22536, Note_on_c, 0, 76, 64
1, 22553, Note_on_c, 1, 62, 0
1, 22553, Note_on_c, 1, 50, 0
1, 22559, Note_on_c, 0, 76, 0
1, 22560, Note_on_c, 0, 74, 64
1, 22583, Note_on_c, 0, 74, 0
1, 22584, Note_on_c, 0, 76, 64
1, 22607, Note_on_c, 0, 76, 0
1, 22608, Note_on_c, 0, 78, 64
1, 22631, Note_on_c, 0, 78, 0
1, 22632, Note_on_c, 0, 76, 64
1, 22655, Note_on_c, 0, 76, 0
1, 22656, Note_on_c, 0, 74, 64
1, 22656, Note_on_c, 1, 62, 64
1, 22656, Note_on_c, 1, 57, 64
1, 22656, Note_on_c, 1, 54, 64
1, 22679, Note_on_c, 0, 74, 0
1, 22680, Note_on_c, 0, 76, 64
1, 22703, Note_on_c, 0, 76, 0
1, 22704, Note_on_c, 0, 78, 64
1, 22727, Note_on_c, 0, 78, 0
1, 22728, Note_on_c, 0, 79, 64
1, 22745, Note_on_c, 1, 62, 0
1, 22745, Note_on_c, 1, 57, 0
1, 22745, Note_on_c, 1, 54, 0
1, 22751, Note_on_c, 0, 79, 0
1, 22752, Note_on_c, 0, 81, 64
1, 22775, Note_on_c, 0, 81, 0
1, 22776, Note_on_c, 0, 83, 64
1, 22799, Note_on_c, 0, 83, 0
1, 22800, Note_on_c, 0, 85, 64
1, 22823, Note_on_c, 0, 85, 0
1, 22824, Note_on_c, 0, 86, 64
1, 22847, Note_on_c, 0, 86, 0
1, 22848, Note_on_c, 0, 85, 64
1, 22848, Note_on_c, 1, 62, 64
1, 22848, Note_on_c, 1, 55, 64
1, 22871, Note_on_c, 0, 85, 0
1, 22872, Note_on_c, 0, 83, 64
1, 22895, Note_on_c, 0, 83, 0
1, 22896, Note_on_c, 0, 82, 64
1, 22919, Note_on_c, 0, 82, 0
1, 22920, Note_on_c, 0, 83, 64
1, 22937, Note_on_c, 1, 62, 0
1, 22937, Note_on_c, 1, 55, 0
1, 22943, Note_on_c, 0, 83, 0
1, 22944, Note_on_c, 0, 82, 64
1, 22967, Note_on_c, 0, 82, 0
1, 22968, Note_on_c, 0, 83, 64
1, 22991, Note_on_c, 0, 83, 0
1, 22992, Note_on_c, 0, 82, 64
1, 23015, Note_on_c, 0, 82, 0
1, 23016, Note_on_c, 0, 83, 64
1, 23039, Note_on_c, 0, 83, 0
1, 23040, Note_on_c, 0, 86, 64
1, 23063, Note_on_c, 0, 86, 0
1, 23064, Note_on_c, 0, 83, 64
1, 23087, Note_on_c, 0, 83, 0
1, 23088, Note_on_c, 0, 81, 64
1, 23111, Note_on_c, 0, 81, 0
1, 23112, Note_on_c, 0, 79, 64
1, 23135, Note_on_c, 0, 79, 0
1, 23136, Note_on_c, 0, 83, 64
1, 23159, Note_on_c, 0, 83, 0
1, 23160, Note_on_c, 0, 79, 64
1, 23183, Note_on_c, 0, 79, 0
1, 23184, Note_on_c, 0, 78, 64
1, 23207, Note_on_c, 0, 78, 0
1, 23208, Note_on_c, 0, 76, 64
1, 23231, Note_on_c, 0, 76, 0
1, 23232, Note_on_c, 0, 81, 64
1, 23232, Note_on_c, 1, 66, 64
1, 23232, Note_on_c, 1, 62, 64
1, 23232, Note_on_c, 1, 57, 64
1, 23252, Note_on_c, 1, 66, 0
1, 23252, Note_on_c, 1, 62, 0
1, 23252, Note_on_c, 1, 57, 0
1, 23255, Note_on_c, 0, 81, 0
1, 23256, Note_on_c, 0, 80, 64
1, 23279, Note_on_c, 0, 80, 0
1, 23280, Note_on_c, 0, 81, 64
1, 23280, Note_on_c, 1, 66, 64
1, 23280, Note_on_c, 1, 62, 64
1, 23280, Note_on_c, 1, 57, 64
1, 23300, Note_on_c, 1, 66, 0
1, 23300, Note_on_c, 1, 62, 0
1, 23300, Note_on_c, 1, 57, 0
1, 23303, Note_on_c, 0, 81, 0
1, 23304, Note_on_c, 0, 80, 64
1, 23327, Note_on_c, 0, 80, 0
1, 23328, Note_on_c, 0, 81, 64
1, 23328, Note_on_c, 1, 66, 64
1, 23328, Note_on_c, 1, 62, 64
1, 23328, Note_on_c, 1, 57, 64
1, 23348, Note_on_c, 1, 66, 0
1, 23348, Note_on_c, 1, 62, 0
1, 23348, Note_on_c, 1, 57, 0
1, 23351, Note_on_c, 0, 81, 0
1, 23352, Note_on_c, 0, 78, 64
1, 23375, Note_on_c, 0, 78, 0
1, 23376, Note_on_c, 0, 76, 64
1, 23376, Note_on_c, 1, 66, 64
1, 23376, Note_on_c, 1, 62, 64
1, 23376, Note_on_c, 1, 57, 64
1, 23396, Note_on_c, 1, 66, 0
1, 23396, Note_on_c, 1, 62, 0
1, 23396, Note_on_c, 1, 57, 0
1, 23399, Note_on_c, 0, 76, 0
1, 23400, Note_on_c, 0, 74, 64
1, 23423, Note_on_c, 0, 74, 0
1, 23424, Note_on_c, 0, 78, 64
1, 23424, Note_on_c, 1, 67, 64
1, 23424, Note_on_c, 1, 61, 64
1, 23424, Note_on_c, 1, 57, 64
1, 23443, Note_on_c, 0, 78, 0
1, 23444, Note_on_c, 0, 76, 64
1, 23444, Note_on_c, 1, 67, 0
1, 23444, Note_on_c, 1, 61, 0
1, 23444, Note_on_c, 1, 57, 0
1, 23463, Note_on_c, 0, 76, 0
1, 23464, Note_on_c, 0, 78, 64
1, 23472, Note_on_c, 1, 67, 64
1, 23472, Note_on_c, 1, 61, 64
1, 23472, Note_on_c, 1, 57, 64
1, 23482, Note_on_c, 0, 78, 0
1, 23483, Note_on_c, 0, 76, 64
1, 23492, Note_on_c, 1, 67, 0
1, 23492, Note_on_c, 1, 61, 0
1, 23492, Note_on_c, 1, 57, 0
1, 23501, Note_on_c, 0, 76, 0
1, 23502, Note_on_c, 0, 78, 64
1, 23520, Note_on_c, 0, 78, 0
1, 23520, Note_on_c, 1, 67, 64
1, 23520, Note_on_c, 1, 61, 64
1, 23520, Note_on_c, 1, 57, 64
1, 23521, Note_on_c, 0, 76, 64
1, 23539, Note_on_c, 0, 76, 0
1, 23540, Note_on_c, 0, 78, 64
1, 23540, Note_on_c, 1, 67, 0
1, 23540, Note_on_c, 1, 61, 0
1, 23540, Note_on_c, 1, 57, 0
1, 23558, Note_on_c, 0, 78, 0
1, 23559, Note_on_c, 0, 76, 64
1, 23568, Note_on_c, 1, 67, 64
1, 23568, Note_on_c, 1, 61, 64
1, 23568, Note_on_c, 1, 57, 64
1, 23577, Note_on_c, 0, 76, 0
1, 23578, Note_on_c, 0, 74, 64
1, 23588, Note_on_c, 1, 67, 0
1, 23588, Note_on_c, 1, 61, 0
1, 23588, Note_on_c, 1, 57, 0
1, 23596, Note_on_c, 0, 74, 0
1, 23597, Note_on_c, 0, 76, 64
1, 23615, Note_on_c, 0, 76, 0
1, 23616, Note_on_c, 0, 74, 64
1, 23616, Note_on_c, 1, 66, 64
1, 23616, Note_on_c, 1, 62, 64
1, 23639, Note_on_c, 0, 74, 0
1, 23640, Note_on_c, 0, 76, 64
1, 23663, Note_on_c, 0, 76, 0
1, 23664, Note_on_c, 0, 78, 64
1, 23687, Note_on_c, 0, 78, 0
1, 23688, Note_on_c, 0, 76, 64
1, 23705, Note_on_c, 1, 66, 0
1, 23705, Note_on_c, 1, 62, 0
1, 23711, Note_on_c, 0, 76, 0
1, 23712, Note_on_c, 0, 74, 64
1, 23735, Note_on_c, 0, 74, 0
1, 23736, Note_on_c, 0, 76, 64
1, 23759, Note_on_c, 0, 76, 0
1, 23760, Note_on_c, 0, 78, 64
1, 23760, Note_on_c, 1, 54, 64
1, 23760, Note_on_c, 1, 42, 64
1, 23780, Note_on_c, 1, 54, 0
1, 23780, Note_on_c, 1, 42, 0
1, 23783, Note_on_c, 0, 78, 0
1, 23784, Note_on_c, 0, 76, 64
1, 23807, Note_on_c, 0, 76, 0
1, 23808, Note_on_c, 0, 74, 64
1, 23808, Note_on_c, 1, 55, 64
1, 23808, Note_on_c, 1, 43, 64
1, 23828, Note_on_c, 1, 55, 0
1, 23828, Note_on_c, 1, 43, 0
1, 23831, Note_on_c, 0, 74, 0
1, 23832, Note_on_c, 0, 76, 64
1, 23855, Note_on_c, 0, 76, 0
1, 23856, Note_on_c, 0, 78, 64
1, 23856, Note_on_c, 1, 57, 64
1, 23856, Note_on_c, 1, 45, 64
1, 23876, Note_on_c, 1, 57, 0
1, 23876, Note_on_c, 1, 45, 0
1, 23879, Note_on_c, 0, 78, 0
1, 23880, Note_on_c, 0, 76, 64
1, 23903, Note_on_c, 0, 76, 0
1, 23904, Note_on_c, 0, 74, 64
1, 23904, Note_on_c, 1, 59, 64
1, 23904, Note_on_c, 1, 47, 64
1, 23924, Note_on_c, 1, 59, 0
1, 23924, Note_on_c, 1, 47, 0
1, 23927, Note_on_c, 0, 74, 0
1, 23928, Note_on_c, 0, 76, 64
1, 23951, Note_on_c, 0, 76, 0
1, 23952, Note_on_c, 0, 78, 64
1, 23952, Note_on_c, 1, 61, 64
1, 23952, Note_on_c, 1, 49, 64
1, 23972, Note_on_c, 1, 61, 0
1, 23972, Note_on_c, 1, 49, 0
1, 23975, Note_on_c, 0, 78, 0
1, 23976, Note_on_c, 0, 76, 64
1, 23999, Note_on_c, 0, 76, 0
1, 24000, Note_on_c, 0, 74, 64
1, 24000, Note_on_c, 1, 62, 64
1, 24000, Note_on_c, 1, 50, 64
1, 24023, Note_on_c, 0, 74, 0
1, 24024, Note_on_c, 0, 76, 64
1, 24047, Note_on_c, 0, 76, 0
1, 24048, Note_on_c, 0, 78, 64
1, 24071, Note_on_c, 0, 78, 0
1, 24072, Note_on_c, 0, 76, 64
1, 24089, Note_on_c, 1, 62, 0
1, 24089, Note_on_c, 1, 50, 0
1, 24095, Note_on_c, 0, 76, 0
1, 24096, Note_on_c, 0, 74, 64
1, 24119, Note_on_c, 0, 74, 0
1, 24120, Note_on_c, 0, 76, 64
1, 24143, Note_on_c, 0, 76, 0
1, 24144, Note_on_c, 0, 78, 64
1, 24144, Note_on_c, 1, 42, 64
1, 24144, Note_on_c, 1, 30, 64
1, 24164, Note_on_c, 1, 42, 0
1, 24164, Note_on_c, 1, 30, 0
1, 24167, Note_on_c, 0, 78, 0
1, 24168, Note_on_c, 0, 76, 64
1, 24191, Note_on_c, 0, 76, 0
1, 24192, Note_on_c, 0, 74, 64
1, 24192, Note_on_c, 1, 43, 64
1, 24192, Note_on_c, 1, 31, 64
1, 24212, Note_on_c, 1, 43, 0
1, 24212, Note_on_c, 1, 31, 0
1, 24215, Note_on_c, 0, 74, 0
1, 24216, Note_on_c, 0, 76, 64
1, 24239, Note_on_c, 0, 76, 0
1, 24240, Note_on_c, 0, 78, 64
1, 24240, Note_on_c, 1, 45, 64
1, 24240, Note_on_c, 1, 33, 64
1, 24260, Note_on_c, 1, 45, 0
1, 24260, Note_on_c, 1, 33, 0
1, 24263, Note_on_c, 0, 78, 0
1, 24264, Note_on_c, 0, 76, 64
1, 24287, Note_on_c, 0, 76, 0
1, 24288, Note_on_c, 0, 74, 64
1, 24288, Note_on_c, 1, 47, 64
1, 24288, Note_on_c, 1, 35, 64
1, 24308, Note_on_c, 1, 47, 0
1, 24308, Note_on_c, 1, 35, 0
1, 24311, Note_on_c, 0, 74, 0
1, 24312, Note_on_c, 0, 76, 64
1, 24335, Note_on_c, 0, 76, 0
1, 24336, Note_on_c, 0, 78, 64
1, 24336, Note_on_c, 1, 49, 64
1, 24336, Note_on_c, 1, 37, 64
1, 24356, Note_on_c, 1, 49, 0
1, 24356, Note_on_c, 1, 37, 0
1, 24359, Note_on_c, 0, 78, 0
1, 24360, Note_on_c, 0, 76, 64
1, 24383, Note_on_c, 0, 76, 0
1, 24384, Note_on_c, 0, 74, 64
1, 24384, Note_on_c, 1, 50, 64
1, 24384, Note_on_c, 1, 38, 64
1, 24407, Note_on_c, 0, 74, 0
1, 24408, Note_on_c, 0, 76, 64
1, 24431, Note_on_c, 0, 76, 0
1, 24432, Note_on_c, 0, 78, 64
1, 24455, Note_on_c, 0, 78, 0
1, 24456, Note_on_c, 0, 76, 64
1, 24473, Note_on_c, 1, 50, 0
1, 24473, Note_on_c, 1, 38, 0
1, 24479, Note_on_c, 0, 76, 0
1, 24480, Note_on_c, 0, 74, 64
1, 24503, Note_on_c, 0, 74, 0
1, 24504, Note_on_c, 0, 76, 64
1, 24527, Note_on_c, 0, 76, 0
1, 24528, Note_on_c, 0, 78, 64
1, 24528, Note_on_c, 1, 54, 64
1, 24528, Note_on_c, 1, 42, 64
1, 24548, Note_on_c, 1, 54, 0
1, 24548, Note_on_c, 1, 42, 0
1, 24551, Note_on_c, 0, 78, 0
1, 24552, Note_on_c, 0, 76, 64
1, 24575, Note_on_c, 0, 76, 0
1, 24576, Note_on_c, 0, 74, 64
1, 24576, Note_on_c, 1, 55, 64
1, 24576, Note_on_c, 1, 43, 64
1, 24596, Note_on_c, 1, 55, 0
1, 24596, Note_on_c, 1, 43, 0
1, 24599, Note_on_c, 0, 74, 0
1, 24600, Note_on_c, 0, 76, 64
1, 24623, Note_on_c, 0, 76, 0
1, 24624, Note_on_c, 0, 78, 64
1, 24624, Note_on_c, 1, 57, 64
1, 24624, Note_on_c, 1, 45, 64
1, 24644, Note_on_c, 1, 57, 0
1, 24644, Note_on_c, 1, 45, 0
1, 24647, Note_on_c, 0, 78, 0
1, 24648, Note_on_c, 0, 76, 64
1, 24671, Note_on_c, 0, 76, 0
1, 24672, Note_on_c, 0, 74, 64
1, 24672, Note_on_c, 1, 59, 64
1, 24672, Note_on_c, 1, 47, 64
1, 24692, Note_on_c, 1, 59, 0
1, 24692, Note_on_c, 1, 47, 0
1, 24695, Note_on_c, 0, 74, 0
1, 24696, Note_on_c, 0, 76, 64
1, 24719, Note_on_c, 0, 76, 0
1, 24720, Note_on_c, 0, 78, 64
1, 24720, Note_on_c, 1, 61, 64
1, 24720, Note_on_c, 1, 49, 64
1, 24740, Note_on_c, 1, 61, 0
1, 24740, Note_on_c, 1, 49, 0
1, 24743, Note_on_c, 0, 78, 0
1, 24744, Note_on_c, 0, 76, 64
1, 24767, Note_on_c, 0, 76, 0
1, 24768, Note_on_c, 0, 74, 64
1, 24768, Note_on_c, 1, 62, 64
1, 24768, Note_on_c, 1, 50, 64
1, 24791, Note_on_c, 0, 74, 0
1, 24792, Note_on_c, 0, 76, 64
1, 24815, Note_on_c, 0, 76, 0
1, 24816, Note_on_c, 0, 78, 64
1, 24839, Note_on_c, 0, 78, 0
1, 24840, Note_on_c, 0, 76, 64
1, 24857, Note_on_c, 1, 62, 0
1, 24857, Note_on_c, 1, 50, 0
1, 24863, Note_on_c, 0, 76, 0
1, 24864, Note_on_c, 0, 74, 64
1, 24887, Note_on_c, 0, 74, 0
1, 24888, Note_on_c, 0, 76, 64
1, 24911, Note_on_c, 0, 76, 0
1, 24912, Note_on_c, 0, 78, 64
1, 24935, Note_on_c, 0, 78, 0
1, 24936, Note_on_c, 0, 76, 64
1, 24959, Note_on_c, 0, 76, 0
1, 24960, Note_on_c, 0, 74, 64
1, 24960, Note_on_c, 1, 62, 64
1, 24960, Note_on_c, 1, 57, 64
1, 24960, Note_on_c, 1, 54, 64
1, 24983, Note_on_c, 0, 74, 0
1, 24984, Note_on_c, 0, 76, 64
1, 25007, Note_on_c, 0, 76, 0
1, 25008, Note_on_c, 0, 78, 64
1, 25031, Note_on_c, 0, 78, 0
1, 25032, Note_on_c, 0, 79, 64
1, 25049, Note_on_c, 1, 62, 0
1, 25049, Note_on_c, 1, 57, 0
1, 25049, Note_on_c, 1, 54, 0
1, 25055, Note_on_c, 0, 79, 0
1, 25056, Note_on_c, 0, 81, 64
1, 25079, Note_on_c, 0, 81, 0
1, 25080, Note_on_c, 0, 83, 64
1, 25103, Note_on_c, 0, 83, 0
1, 25104, Note_on_c, 0, 85, 64
1, 25127, Note_on_c, 0, 85, 0
1, 25128, Note_on_c, 0, 86, 64
1, 25151, Note_on_c, 0, 86, 0
1, 25152, Note_on_c, 0, 85, 64
1, 25152, Note_on_c, 1, 62, 64
1, 25152, Note_on_c, 1, 55, 64
1, 25175, Note_on_c, 0, 85, 0
1, 25176, Note_on_c, 0, 83, 64
1, 25199, Note_on_c, 0, 83, 0
1, 25200, Note_on_c, 0, 82, 64
1, 25223, Note_on_c, 0, 82, 0
1, 25224, Note_on_c, 0, 83, 64
1, 25241, Note_on_c, 1, 62, 0
1, 25241, Note_on_c, 1, 55, 0
1, 25247, Note_on_c, 0, 83, 0
1, 25248, Note_on_c, 0, 82, 64
1, 25271, Note_on_c, 0, 82, 0
1, 25272, Note_on_c, 0, 83, 64
1, 25295, Note_on_c, 0, 83, 0
1, 25296, Note_on_c, 0, 82, 64
1, 25319, Note_on_c, 0, 82, 0
1, 25320, Note_on_c, 0, 83, 64
1, 25343, Note_on_c, 0, 83, 0
1, 25344, Note_on_c, 0, 86, 64
1, 25367, Note_on_c, 0, 86, 0
1, 25368, Note_on_c, 0, 83, 64
1, 25391, Note_on_c, 0, 83, 0
1, 25392, Note_on_c, 0, 81, 64
1, 25415, Note_on_c, 0, 81, 0
1, 25416, Note_on_c, 0, 79, 64
1, 25439, Note_on_c, 0, 79, 0
1, 25440, Note_on_c, 0, 83, 64
1, 25463, Note_on_c, 0, 83, 0
1, 25464, Note_on_c, 0, 79, 64
1, 25487, Note_on_c, 0, 79, 0
1, 25488, Note_on_c, 0, 78, 64
1, 25511, Note_on_c, 0, 78, 0
1, 25512, Note_on_c, 0, 76, 64
1, 25535, Note_on_c, 0, 76, 0
1, 25536, Note_on_c, 0, 81, 64
1, 25536, Note_on_c, 1, 66, 64
1, 25536, Note_on_c, 1, 62, 64
1, 25536, Note_on_c, 1, 57, 64
1, 25556, Note_on_c, 1, 66, 0
1, 25556, Note_on_c, 1, 62, 0
1, 25556, Note_on_c, 1, 57, 0
1, 25559, Note_on_c, 0, 81, 0
1, 25560, Note_on_c, 0, 80, 64
1, 25583, Note_on_c, 0, 80, 0
1, 25584, Note_on_c, 0, 81, 64
1, 25584, Note_on_c, 1, 66, 64
1, 25584, Note_on_c, 1, 62, 64
1, 25584, Note_on_c, 1, 57, 64
1, 25604, Note_on_c, 1, 66, 0
1, 25604, Note_on_c, 1, 62, 0
1, 25604, Note_on_c, 1, 57, 0
1, 25607, Note_on_c, 0, 81, 0
1, 25608, Note_on_c, 0, 80, 64
1, 25631, Note_on_c, 0, 80, 0
1, 25632, Note_on_c, 0, 81, 64
1, 25632, Note_on_c, 1, 66, 64
1, 25632, Note_on_c, 1, 62, 64
1, 25632, Note_on_c, 1, 57, 64
1, 25652, Note_on_c, 1, 66, 0
1, 25652, Note_on_c, 1, 62, 0
1, 25652, Note_on_c, 1, 57, 0
1, 25655, Note_on_c, 0, 81, 0
1, 25656, Note_on_c, 0, 78, 64
1, 25679, Note_on_c, 0, 78, 0
1, 25680, Note_on_c, 0, 76, 64
1, 25680, Note_on_c, 1, 66, 64
1, 25680, Note_on_c, 1, 62, 64
1, 25680, Note_on_c, 1, 57, 64
1, 25700, Note_on_c, 1, 66, 0
1, 25700, Note_on_c, 1, 62, 0
1, 25700, Note_on_c, 1, 57, 0
1, 25703, Note_on_c, 0, 76, 0
1, 25704, Note_on_c, 0, 74, 64
1, 25727, Note_on_c, 0, 74, 0
1, 25728, Note_on_c, 0, 78, 64
1, 25728, Note_on_c, 1, 67, 64
1, 25728, Note_on_c, 1, 61, 64
1, 25728, Note_on_c, 1, 57, 64
1, 25747, Note_on_c, 0, 78, 0
1, 25748, Note_on_c, 0, 76, 64
1, 25748, Note_on_c, 1, 67, 0
1, 25748, Note_on_c, 1, 61, 0
1, 25748, Note_on_c, 1, 57, 0
1, 25767, Note_on_c, 0, 76, 0
1, 25768, Note_on_c, 0, 78, 64
1, 25776, Note_on_c, 1, 67, 64
1, 25776, Note_on_c, 1, 61, 64
1, 25776, Note_on_c, 1, 57, 64
1, 25786, Note_on_c, 0, 78, 0
1, 25787, Note_on_c, 0, 76, 64
1, 25796, Note_on_c, 1, 67, 0
1, 25796, Note_on_c, 1, 61, 0
1, 25796, Note_on_c, 1, 57, 0
1, 25805, Note_on_c, 0, 76, 0
1, 25806, Note_on_c, 0, 78, 64
1, 25824, Note_on_c, 0, 78, 0
1, 25824, Note_on_c, 1, 67, 64
1, 25824, Note_on_c, 1, 61, 64
1, 25824, Note_on_c, 1, 57, 64
1, 25825, Note_on_c, 0, 76, 64
1, 25843, Note_on_c, 0, 76, 0
1, 25844, Note_on_c, 0, 78, 64
1, 25844, Note_on_c, 1, 67, 0
1, 25844, Note_on_c, 1, 61, 0
1, 25844, Note_on_c, 1, 57, 0
1, 25862, Note_on_c, 0, 78, 0
1, 25863, Note_on_c, 0, 76, 64
1, 25872, Note_on_c, 1, 67, 64
1, 25872, Note_on_c, 1, 61, 64
1, 25872, Note_on_c, 1, 57, 64
1, 25881, Note_on_c, 0, 76, 0
1, 25882, Note_on_c, 0, 74, 64
1, 25892, Note_on_c, 1, 67, 0
1, 25892, Note_on_c, 1, 61, 0
1, 25892, Note_on_c, 1, 57, 0
1, 25900, Note_on_c, 0, 74, 0
1, 25901, Note_on_c, 0, 76, 64
1, 25919, Note_on_c, 0, 76, 0
1, 25920, Note_on_c, 0, 74, 64
1, 25920, Note_on_c, 1, 66, 64
1, 25920, Note_on_c, 1, 62, 64
1, 25943, Note_on_c, 0, 74, 0
1, 25944, Note_on_c, 0, 81, 64
1, 25959, Note_on_c, 1, 66, 0
1, 25959, Note_on_c, 1, 62, 0
1, 25967, Note_on_c, 0, 81, 0
1, 25968, Note_on_c, 0, 78, 64
1, 25991, Note_on_c, 0, 78, 0
1, 25992, Note_on_c, 0, 74, 64
1, 26015, Note_on_c, 0, 74, 0
1, 26016, Note_on_c, 0, 69, 64
1, 26016, Note_on_c, 1, 67, 64
1, 26016, Note_on_c, 1, 57, 64
1, 26039, Note_on_c, 0, 69, 0
1, 26040, Note_on_c, 0, 79, 64
1, 26063, Note_on_c, 0, 79, 0
1, 26064, Note_on_c, 0, 76, 64
1, 26087, Note_on_c, 0, 76, 0
1, 26088, Note_on_c, 0, 73, 64
1, 26105, Note_on_c, 1, 67, 0
1, 26105, Note_on_c, 1, 57, 0
1, 26111, Note_on_c, 0, 73, 0
1, 26112, Note_on_c, 0, 69, 64
1, 26112, Note_on_c, 1, 66, 64
1, 26112, Note_on_c, 1, 62, 64
1, 26135, Note_on_c, 0, 69, 0
1, 26136, Note_on_c, 0, 81, 64
1, 26151, Note_on_c, 1, 66, 0
1, 26151, Note_on_c, 1, 62, 0
1, 26159, Note_on_c, 0, 81, 0
1, 26160, Note_on_c, 0, 78, 64
1, 26183, Note_on_c, 0, 78, 0
1, 26184, Note_on_c, 0, 74, 64
1, 26207, Note_on_c, 0, 74, 0
1, 26208, Note_on_c, 0, 69, 64
1, 26208, Note_on_c, 1, 67, 64
1, 26208, Note_on_c, 1, 57, 64
1, 26231, Note_on_c, 0, 69, 0
1, 26232, Note_on_c, 0, 79, 64
1, 26255, Note_on_c, 0, 79, 0
1, 26256, Note_on_c, 0, 76, 64
1, 26279, Note_on_c, 0, 76, 0
1, 26280, Note_on_c, 0, 73, 64
1, 26297, Note_on_c, 1, 67, 0
1, 26297, Note_on_c, 1, 57, 0
1, 26303, Note_on_c, 0, 73, 0
1, 26304, Note_on_c, 0, 69, 64
1, 26304, Note_on_c, 1, 66, 64
1, 26304, Note_on_c, 1, 62, 64
1, 26327, Note_on_c, 0, 69, 0
1, 26328, Note_on_c, 0, 81, 64
1, 26343, Note_on_c, 1, 66, 0
1, 26343, Note_on_c, 1, 62, 0
1, 26351, Note_on_c, 0, 81, 0
1, 26352, Note_on_c, 0, 78, 64
1, 26375, Note_on_c, 0, 78, 0
1, 26376, Note_on_c, 0, 74, 64
1, 26399, Note_on_c, 0, 74, 0
1, 26400, Note_on_c, 0, 69, 64
1, 26400, Note_on_c, 1, 67, 64
1, 26400, Note_on_c, 1, 57, 64
1, 26423, Note_on_c, 0, 69, 0
1, 26424, Note_on_c, 0, 79, 64
1, 26447, Note_on_c, 0, 79, 0
1, 26448, Note_on_c, 0, 76, 64
1, 26471, Note_on_c, 0, 76, 0
1, 26472, Note_on_c, 0, 73, 64
1, 26489, Note_on_c, 1, 67, 0
1, 26489, Note_on_c, 1, 57, 0
1, 26495, Note_on_c, 0, 73, 0
1, 26496, Note_on_c, 0, 69, 64
1, 26496, Note_on_c, 1, 66, 64
1, 26496, Note_on_c, 1, 62, 64
1, 26519, Note_on_c, 0, 69, 0
1, 26520, Note_on_c, 0, 81, 64
1, 26535, Note_on_c, 1, 66, 0
1, 26535, Note_on_c, 1, 62, 0
1, 26543, Note_on_c, 0, 81, 0
1, 26544, Note_on_c, 0, 78, 64
1, 26567, Note_on_c, 0, 78, 0
1, 26568, Note_on_c, 0, 74, 64
1, 26591, Note_on_c, 0, 74, 0
1, 26592, Note_on_c, 0, 69, 64
1, 26592, Note_on_c, 1, 67, 64
1, 26592, Note_on_c, 1, 57, 64
1, 26615, Note_on_c, 0, 69, 0
1, 26616, Note_on_c, 0, 79, 64
1, 26639, Note_on_c, 0, 79, 0
1, 26640, Note_on_c, 0, 76, 64
1, 26663, Note_on_c, 0, 76, 0
1, 26664, Note_on_c, 0, 73, 64
1, 26681, Note_on_c, 1, 67, 0
1, 26681, Note_on_c, 1, 57, 0
1, 26687, Note_on_c, 0, 73, 0
1, 26688, Note_on_c, 0, 69, 64
1, 26688, Note_on_c, 1, 66, 64
1, 26688, Note_on_c, 1, 62, 64
1, 26727, Note_on_c, 1, 66, 0
1, 26727, Note_on_c, 1, 62, 0
1, 26736, Note_on_c, 0, 69, 0
1, 26736, Note_on_c, 0, 78, 64
1, 26736, Note_on_c, 0, 74, 64
1, 26781, Note_on_c, 0, 78, 0
1, 26781, Note_on_c, 0, 74, 0
1, 26784, Note_on_c, 0, 78, 64
1, 26784, Note_on_c, 0, 74, 64
1, 26804, Note_on_c, 0, 78, 0
1, 26804, Note_on_c, 0, 74, 0
1, 26832, Note_on_c, 0, 78, 64
1, 26832, Note_on_c, 0, 74, 64
1, 26852, Note_on_c, 0, 78, 0
1, 26852, Note_on_c, 0, 74, 0
1, 26880, Note_on_c, 0, 81, 64
1, 26880, Note_on_c, 0, 78, 64
1, 26928, Note_on_c, 0, 81, 0
1, 26928, Note_on_c, 0, 74, 64
1, 26973, Note_on_c, 0, 78, 0
1, 26973, Note_on_c, 0, 74, 0
1, 26976, Note_on_c, 0, 78, 64
1, 26976, Note_on_c, 0, 74, 64
1, 26996, Note_on_c, 0, 78, 0
1, 26996, Note_on_c, 0, 74, 0
1, 27024, Note_on_c, 0, 78, 64
1, 27024, Note_on_c, 0, 74, 64
1, 27044, Note_on_c, 0, 78, 0
1, 27044, Note_on_c, 0, 74, 0
1, 27072, Note_on_c, 0, 81, 64
1, 27072, Note_on_c, 0, 78, 64
1, 27161, Note_on_c, 0, 81, 0
1, 27161, Note_on_c, 0, 78, 0
1, 27408, Note_on_c, 0, 57, 64
1, 27428, Note_on_c, 0, 57, 0
1, 27456, Note_on_c, 0, 57, 64
1, 27476, Note_on_c, 0, 57, 0
1, 27504, Note_on_c, 0, 57, 64
1, 27524, Note_on_c, 0, 57, 0
1, 27552, Note_on_c, 0, 57, 64
1, 27572, Note_on_c, 0, 57, 0
1, 27600, Note_on_c, 0, 57, 64
1, 27620, Note_on_c, 0, 57, 0
1, 27648, Note_on_c, 0, 66, 64
1, 27693, Note_on_c, 0, 66, 0
1, 27696, Note_on_c, 0, 64, 64
1, 27741, Note_on_c, 0, 64, 0
1, 27744, Note_on_c, 0, 63, 64
1, 27789, Note_on_c, 0, 63, 0
1, 27792, Note_on_c, 0, 72, 64
1, 27792, Note_on_c, 1, 47, 64
1, 27812, Note_on_c, 0, 72, 0
1, 27812, Note_on_c, 1, 47, 0
1, 27840, Note_on_c, 0, 71, 64
1, 27840, Note_on_c, 1, 47, 64
1, 27860, Note_on_c, 1, 47, 0
1, 27885, Note_on_c, 0, 71, 0
1, 27888, Note_on_c, 0, 69, 64
1, 27888, Note_on_c, 1, 47, 64
1, 27908, Note_on_c, 1, 47, 0
1, 27933, Note_on_c, 0, 69, 0
1, 27936, Note_on_c, 0, 67, 64
1, 27936, Note_on_c, 1, 47, 64
1, 27956, Note_on_c, 1, 47, 0
1, 27981, Note_on_c, 0, 67, 0
1, 27984, Note_on_c, 0, 66, 64
1, 27984, Note_on_c, 1, 47, 64
1, 28004, Note_on_c, 0, 66, 0
1, 28004, Note_on_c, 1, 47, 0
1, 28032, Note_on_c, 0, 64, 64
1, 28032, Note_on_c, 1, 55, 64
1, 28077, Note_on_c, 1, 55, 0
1, 28080, Note_on_c, 1, 54, 64
1, 28121, Note_on_c, 0, 64, 0
1, 28125, Note_on_c, 1, 54, 0
1, 28128, Note_on_c, 1, 52, 64
1, 28173, Note_on_c, 1, 52, 0
1, 28176, Note_on_c, 0, 76, 64
1, 28176, Note_on_c, 1, 60, 64
1, 28196, Note_on_c, 0, 76, 0
1, 28196, Note_on_c, 1, 60, 0
1, 28224, Note_on_c, 0, 76, 64
1, 28224, Note_on_c, 1, 59, 64
1, 28244, Note_on_c, 0, 76, 0
1, 28269, Note_on_c, 1, 59, 0
1, 28272, Note_on_c, 0, 76, 64
1, 28272, Note_on_c, 1, 57, 64
1, 28292, Note_on_c, 0, 76, 0
1, 28317, Note_on_c, 1, 57, 0
1, 28320, Note_on_c, 0, 76, 64
1, 28320, Note_on_c, 1, 55, 64
1, 28340, Note_on_c, 0, 76, 0
1, 28365, Note_on_c, 1, 55, 0
1, 28368, Note_on_c, 0, 76, 64
1, 28368, Note_on_c, 1, 54, 64
1, 28388, Note_on_c, 0, 76, 0
1, 28388, Note_on_c, 1, 54, 0
1, 28416, Note_on_c, 0, 79, 64
1, 28416, Note_on_c, 1, 52, 64
1, 28461, Note_on_c, 0, 79, 0
1, 28464, Note_on_c, 0, 78, 64
1, 28505, Note_on_c, 1, 52, 0
1, 28509, Note_on_c, 0, 78, 0
1, 28512, Note_on_c, 0, 76, 64
1, 28557, Note_on_c, 0, 76, 0
1, 28560, Note_on_c, 0, 84, 64
1, 28560, Note_on_c, 1, 64, 64
1, 28580, Note_on_c, 0, 84, 0
1, 28580, Note_on_c, 1, 64, 0
1, 28608, Note_on_c, 0, 83, 64
1, 28608, Note_on_c, 1, 64, 64
1, 28628, Note_on_c, 1, 64, 0
1, 28653, Note_on_c, 0, 83, 0
1, 28656, Note_on_c, 0, 81, 64
1, 28656, Note_on_c, 1, 64, 64
1, 28676, Note_on_c, 1, 64, 0
1, 28701, Note_on_c, 0, 81, 0
1, 28704, Note_on_c, 0, 79, 64
1, 28704, Note_on_c, 1, 64, 64
1, 28724, Note_on_c, 1, 64, 0
1, 28749, Note_on_c, 0, 79, 0
1, 28752, Note_on_c, 0, 78, 64
1, 28752, Note_on_c, 1, 64, 64
1, 28772, Note_on_c, 0, 78, 0
1, 28772, Note_on_c, 1, 64, 0
1, 28800, Note_on_c, 0, 76, 64
1, 28800, Note_on_c, 1, 67, 64
1, 28845, Note_on_c, 1, 67, 0
1, 28848, Note_on_c, 1, 66, 64
1, 28889, Note_on_c, 0, 76, 0
1, 28893, Note_on_c, 1, 66, 0
1, 28896, Note_on_c, 1, 64, 64
1, 28941, Note_on_c, 1, 64, 0
1, 28944, Note_on_c, 0, 88, 64
1, 28944, Note_on_c, 1, 72, 64
1, 28964, Note_on_c, 0, 88, 0
1, 28989, Note_on_c, 1, 72, 0
1, 28992, Note_on_c, 0, 86, 64
1, 28992, Note_on_c, 1, 71, 64
1, 29037, Note_on_c, 0, 86, 0
1, 29037, Note_on_c, 1, 71, 0
1, 29040, Note_on_c, 0, 84, 64
1, 29040, Note_on_c, 1, 69, 64
1, 29085, Note_on_c, 0, 84, 0
1, 29085, Note_on_c, 1, 69, 0
1, 29088, Note_on_c, 0, 83, 64
1, 29088, Note_on_c, 1, 67, 64
1, 29133, Note_on_c, 0, 83, 0
1, 29133, Note_on_c, 1, 67, 0
1, 29136, Note_on_c, 0, 81, 64
1, 29136, Note_on_c, 1, 66, 64
1, 29156, Note_on_c, 0, 81, 0
1, 29156, Note_on_c, 1, 66, 0
1, 29184, Note_on_c, 0, 79, 64
1, 29184, Note_on_c, 1, 64, 64
1, 29232, Note_on_c, 1, 71, 64
1, 29252, Note_on_c, 1, 71, 0
1, 29273, Note_on_c, 0, 79, 0
1, 29280, Note_on_c, 1, 71, 64
1, 29300, Note_on_c, 1, 71, 0
1, 29328, Note_on_c, 1, 71, 64
1, 29348, Note_on_c, 1, 71, 0
1, 29361, Note_on_c, 1, 64, 0
1, 29376, Note_on_c, 1, 64, 64
1, 29376, Note_on_c, 1, 70, 64
1, 29424, Note_on_c, 0, 85, 64
1, 29444, Note_on_c, 0, 85, 0
1, 29472, Note_on_c, 0, 85, 64
1, 29492, Note_on_c, 0, 85, 0
1, 29520, Note_on_c, 0, 85, 64
1, 29540, Note_on_c, 0, 85, 0
1, 29553, Note_on_c, 1, 64, 0
1, 29553, Note_on_c, 1, 70, 0
1, 29568, Note_on_c, 0, 78, 64
1, 29568, Note_on_c, 1, 63, 64
1, 29616, Note_on_c, 1, 69, 64
1, 29636, Note_on_c, 1, 69, 0
1, 29664, Note_on_c, 1, 69, 64
1, 29684, Note_on_c, 1, 69, 0
1, 29712, Note_on_c, 1, 69, 64
1, 29732, Note_on_c, 1, 69, 0
1, 29745, Note_on_c, 0, 78, 0
1, 29745, Note_on_c, 1, 63, 0
1, 29760, Note_on_c, 1, 62, 64
1, 29760, Note_on_c, 1, 68, 64
1, 29808, Note_on_c, 0, 83, 64
1, 29828, Note_on_c, 0, 83, 0
1, 29856, Note_on_c, 0, 83, 64
1, 29876, Note_on_c, 0, 83, 0
1, 29904, Note_on_c, 0, 83, 64
1, 29924, Note_on_c, 0, 83, 0
1, 29937, Note_on_c, 1, 62, 0
1, 29937, Note_on_c, 1, 68, 0
1, 29952, Note_on_c, 0, 76, 64
1, 29952, Note_on_c, 1, 61, 64
1, 30000, Note_on_c, 1, 67, 64
1, 30020, Note_on_c, 1, 67, 0
1, 30048, Note_on_c, 1, 67, 64
1, 30068, Note_on_c, 1, 67, 0
1, 30096, Note_on_c, 1, 67, 64
1, 30116, Note_on_c, 1, 67, 0
1, 30129, Note_on_c, 0, 76, 0
1, 30129, Note_on_c, 1, 61, 0
1, 30144, Note_on_c, 1, 60, 64
1, 30144, Note_on_c, 1, 66, 64
1, 30192, Note_on_c, 0, 81, 64
1, 30212, Note_on_c, 0, 81, 0
1, 30240, Note_on_c, 0, 81, 64
1, 30260, Note_on_c, 0, 81, 0
1, 30288, Note_on_c, 0, 81, 64
1, 30308, Note_on_c, 0, 81, 0
1, 30321, Note_on_c, 1, 60, 0
1, 30321, Note_on_c, 1, 66, 0
1, 30336, Note_on_c, 0, 74, 64
1, 30336, Note_on_c, 1, 67, 64
1, 30336, Note_on_c, 1, 59, 64
1, 30384, Note_on_c, 0, 74, 0
1, 30384, Note_on_c, 0, 86, 64
1, 30404, Note_on_c, 0, 86, 0
1, 30432, Note_on_c, 0, 86, 64
1, 30452, Note_on_c, 0, 86, 0
1, 30480, Note_on_c, 0, 86, 64
1, 30500, Note_on_c, 0, 86, 0
1, 30513, Note_on_c, 1, 67, 0
1, 30513, Note_on_c, 1, 59, 0
1, 30528, Note_on_c, 0, 72, 64
1, 30528, Note_on_c, 1, 69, 64
1, 30528, Note_on_c, 1, 57, 64
1, 30576, Note_on_c, 0, 72, 0
1, 30576, Note_on_c, 0, 84, 64
1, 30576, Note_on_c, 0, 78, 64
1, 30596, Note_on_c, 0, 84, 0
1, 30596, Note_on_c, 0, 78, 0
1, 30624, Note_on_c, 0, 84, 64
1, 30624, Note_on_c, 0, 78, 64
1, 30644, Note_on_c, 0, 84, 0
1, 30644, Note_on_c, 0, 78, 0
1, 30672, Note_on_c, 0, 84, 64
1, 30672, Note_on_c, 0, 78, 64
1, 30692, Note_on_c, 0, 84, 0
1, 30692, Note_on_c, 0, 78, 0
1, 30705, Note_on_c, 1, 69, 0
1, 30705, Note_on_c, 1, 57, 0
1, 30720, Note_on_c, 0, 83, 64
1, 30720, Note_on_c, 0, 79, 64
1, 30720, Note_on_c, 1, 67, 64
1, 30720, Note_on_c, 1, 55, 64
1, 30809, Note_on_c, 0, 83, 0
1, 30809, Note_on_c, 0, 79, 0
1, 30809, Note_on_c, 1, 67, 0
1, 30809, Note_on_c, 1, 55, 0
1, 30864, Note_on_c, 0, 67, 64
1, 30884, Note_on_c, 0, 67, 0
1, 30912, Note_on_c, 0, 67, 64
1, 30932, Note_on_c, 0, 67, 0
1, 30960, Note_on_c, 0, 67, 64
1, 30980, Note_on_c, 0, 67, 0
1, 31008, Note_on_c, 0, 67, 64
1, 31028, Note_on_c, 0, 67, 0
1, 31056, Note_on_c, 0, 67, 64
1, 31076, Note_on_c, 0, 67, 0
1, 31104, Note_on_c, 0, 71, 64
1, 31149, Note_on_c, 0, 71, 0
1, 31152, Note_on_c, 0, 69, 64
1, 31197, Note_on_c, 0, 69, 0
1, 31200, Note_on_c, 0, 67, 64
1, 31245, Note_on_c, 0, 67, 0
1, 31248, Note_on_c, 0, 76, 64
1, 31248, Note_on_c, 1, 71, 64
1, 31248, Note_on_c, 1, 67, 64
1, 31268, Note_on_c, 0, 76, 0
1, 31268, Note_on_c, 1, 71, 0
1, 31268, Note_on_c, 1, 67, 0
1, 31296, Note_on_c, 0, 74, 64
1, 31296, Note_on_c, 1, 69, 64
1, 31296, Note_on_c, 1, 66, 64
1, 31341, Note_on_c, 0, 74, 0
1, 31344, Note_on_c, 0, 73, 64
1, 31389, Note_on_c, 0, 73, 0
1, 31392, Note_on_c, 0, 74, 64
1, 31429, Note_on_c, 1, 69, 0
1, 31429, Note_on_c, 1, 66, 0
1, 31437, Note_on_c, 0, 74, 0
1, 31440, Note_on_c, 0, 76, 64
1, 31440, Note_on_c, 1, 71, 64
1, 31440, Note_on_c, 1, 67, 64
1, 31460, Note_on_c, 0, 76, 0
1, 31460, Note_on_c, 1, 71, 0
1, 31460, Note_on_c, 1, 67, 0
1, 31488, Note_on_c, 0, 74, 64
1, 31488, Note_on_c, 1, 69, 64
1, 31488, Note_on_c, 1, 66, 64
1, 31533, Note_on_c, 0, 74, 0
1, 31536, Note_on_c, 0, 73, 64
1, 31581, Note_on_c, 0, 73, 0
1, 31584, Note_on_c, 0, 74, 64
1, 31621, Note_on_c, 1, 69, 0
1, 31621, Note_on_c, 1, 66, 0
1, 31629, Note_on_c, 0, 74, 0
1, 31632, Note_on_c, 0, 76, 64
1, 31632, Note_on_c, 1, 71, 64
1, 31632, Note_on_c, 1, 67, 64
1, 31652, Note_on_c, 0, 76, 0
1, 31652, Note_on_c, 1, 71, 0
1, 31652, Note_on_c, 1, 67, 0
1, 31680, Note_on_c, 0, 74, 64
1, 31680, Note_on_c, 1, 69, 64
1, 31680, Note_on_c, 1, 66, 64
1, 31725, Note_on_c, 0, 74, 0
1, 31728, Note_on_c, 0, 73, 64
1, 31769, Note_on_c, 1, 69, 0
1, 31769, Note_on_c, 1, 66, 0
1, 31773, Note_on_c, 0, 73, 0
1, 31776, Note_on_c, 0, 74, 64
1, 31821, Note_on_c, 0, 74, 0
1, 32208, Note_on_c, 1, 54, 64
1, 32228, Note_on_c, 1, 54, 0
1, 32256, Note_on_c, 1, 54, 64
1, 32276, Note_on_c, 1, 54, 0
1, 32304, Note_on_c, 1, 54, 64
1, 32324, Note_on_c, 1, 54, 0
1, 32352, Note_on_c, 1, 54, 64
1, 32372, Note_on_c, 1, 54, 0
1, 32400, Note_on_c, 1, 54, 64
1, 32420, Note_on_c, 1, 54, 0
1, 32448, Note_on_c, 1, 57, 64
1, 32493, Note_on_c, 1, 57, 0
1, 32496, Note_on_c, 1, 56, 64
1, 32541, Note_on_c, 1, 56, 0
1, 32544, Note_on_c, 1, 54, 64
1, 32589, Note_on_c, 1, 54, 0
1, 32592, Note_on_c, 0, 68, 64
1, 32592, Note_on_c, 1, 62, 64
1, 32612, Note_on_c, 0, 68, 0
1, 32612, Note_on_c, 1, 62, 0
1, 32640, Note_on_c, 0, 68, 64
1, 32640, Note_on_c, 1, 61, 64
1, 32660, Note_on_c, 0, 68, 0
1, 32685, Note_on_c, 1, 61, 0
1, 32688, Note_on_c, 0, 68, 64
1, 32688, Note_on_c, 1, 59, 64
1, 32708, Note_on_c, 0, 68, 0
1, 32733, Note_on_c, 1, 59, 0
1, 32736, Note_on_c, 0, 68, 64
1, 32736, Note_on_c, 1, 57, 64
1, 32756, Note_on_c, 0, 68, 0
1, 32781, Note_on_c, 1, 57, 0
1, 32784, Note_on_c, 0, 68, 64
1, 32784, Note_on_c, 1, 56, 64
1, 32804, Note_on_c, 0, 68, 0
1, 32804, Note_on_c, 1, 56, 0
1, 32832, Note_on_c, 0, 71, 64
1, 32832, Note_on_c, 1, 54, 64
1, 32877, Note_on_c, 0, 71, 0
1, 32880, Note_on_c, 0, 69, 64
1, 32925, Note_on_c, 0, 69, 0
1, 32928, Note_on_c, 0, 68, 64
1, 32973, Note_on_c, 0, 68, 0
1, 32976, Note_on_c, 0, 74, 64
1, 32976, Note_on_c, 1, 61, 64
1, 32996, Note_on_c, 0, 74, 0
1, 32996, Note_on_c, 1, 61, 0
1, 33009, Note_on_c, 1, 54, 0
1, 33024, Note_on_c, 0, 73, 64
1, 33024, Note_on_c, 1, 53, 64
1, 33024, Note_on_c, 1, 61, 64
1, 33044, Note_on_c, 1, 61, 0
1, 33069, Note_on_c, 0, 73, 0
1, 33072, Note_on_c, 0, 71, 64
1, 33072, Note_on_c, 1, 61, 64
1, 33092, Note_on_c, 1, 61, 0
1, 33117, Note_on_c, 0, 71, 0
1, 33120, Note_on_c, 0, 69, 64
1, 33120, Note_on_c, 1, 61, 64
1, 33140, Note_on_c, 1, 61, 0
1, 33165, Note_on_c, 0, 69, 0
1, 33168, Note_on_c, 0, 68, 64
1, 33168, Note_on_c, 1, 61, 64
1, 33188, Note_on_c, 0, 68, 0
1, 33188, Note_on_c, 1, 61, 0
1, 33201, Note_on_c, 1, 53, 0
1, 33216, Note_on_c, 0, 69, 64
1, 33216, Note_on_c, 0, 69, 64
1, 33216, Note_on_c, 1, 54, 64
1, 33261, Note_on_c, 0, 69, 0
1, 33264, Note_on_c, 0, 68, 64
1, 33305, Note_on_c, 0, 69, 0
1, 33305, Note_on_c, 1, 54, 0
1, 33309, Note_on_c, 0, 68, 0
1, 33312, Note_on_c, 0, 66, 64
1, 33357, Note_on_c, 0, 66, 0
1, 33360, Note_on_c, 0, 74, 64
1, 33380, Note_on_c, 0, 74, 0
1, 33408, Note_on_c, 0, 78, 64
1, 33408, Note_on_c, 0, 73, 64
1, 33428, Note_on_c, 0, 78, 0
1, 33453, Note_on_c, 0, 73, 0
1, 33456, Note_on_c, 0, 78, 64
1, 33456, Note_on_c, 0, 71, 64
1, 33476, Note_on_c, 0, 78, 0
1, 33501, Note_on_c, 0, 71, 0
1, 33504, Note_on_c, 0, 78, 64
1, 33504, Note_on_c, 0, 69, 64
1, 33524, Note_on_c, 0, 78, 0
1, 33549, Note_on_c, 0, 69, 0
1, 33552, Note_on_c, 0, 78, 64
1, 33552, Note_on_c, 0, 68, 64
1, 33572, Note_on_c, 0, 78, 0
1, 33572, Note_on_c, 0, 68, 0
1, 33600, Note_on_c, 0, 81, 64
1, 33600, Note_on_c, 0, 66, 64
1, 33645, Note_on_c, 0, 81, 0
1, 33648, Note_on_c, 0, 80, 64
1, 33693, Note_on_c, 0, 80, 0
1, 33696, Note_on_c, 0, 78, 64
1, 33741, Note_on_c, 0, 78, 0
1, 33744, Note_on_c, 0, 86, 64
1, 33744, Note_on_c, 0, 73, 64
1, 33764, Note_on_c, 0, 86, 0
1, 33764, Note_on_c, 0, 73, 0
1, 33777, Note_on_c, 0, 66, 0
1, 33792, Note_on_c, 0, 85, 64
1, 33792, Note_on_c, 0, 73, 64
1, 33792, Note_on_c, 0, 65, 64
1, 33812, Note_on_c, 0, 73, 0
1, 33837, Note_on_c, 0, 85, 0
1, 33840, Note_on_c, 0, 83, 64
1, 33840, Note_on_c, 0, 73, 64
1, 33860, Note_on_c, 0, 73, 0
1, 33885, Note_on_c, 0, 83, 0
1, 33888, Note_on_c, 0, 81, 64
1, 33888, Note_on_c, 0, 73, 64
1, 33908, Note_on_c, 0, 73, 0
1, 33933, Note_on_c, 0, 81, 0
1, 33936, Note_on_c, 0, 80, 64
1, 33936, Note_on_c, 0, 73, 64
1, 33956, Note_on_c, 0, 80, 0
1, 33956, Note_on_c, 0, 73, 0
1, 33969, Note_on_c, 0, 65, 0
1, 33984, Note_on_c, 0, 78, 64
1, 33984, Note_on_c, 0, 73, 64
1, 33984, Note_on_c, 0, 66, 64
1, 34007, Note_on_c, 0, 78, 0
1, 34008, Note_on_c, 0, 80, 64
1, 34031, Note_on_c, 0, 80, 0
1, 34032, Note_on_c, 0, 81, 64
1, 34055, Note_on_c, 0, 81, 0
1, 34056, Note_on_c, 0, 80, 64
1, 34073, Note_on_c, 0, 73, 0
1, 34073, Note_on_c, 0, 66, 0
1, 34079, Note_on_c, 0, 80, 0
1, 34080, Note_on_c, 0, 78, 64
1, 34103, Note_on_c, 0, 78, 0
1, 34104, Note_on_c, 0, 80, 64
1, 34127, Note_on_c, 0, 80, 0
1, 34128, Note_on_c, 0, 81, 64
1, 34128, Note_on_c, 1, 66, 64
1, 34128, Note_on_c, 1, 54, 64
1, 34148, Note_on_c, 1, 66, 0
1, 34148, Note_on_c, 1, 54, 0
1, 34151, Note_on_c, 0, 81, 0
1, 34152, Note_on_c, 0, 80, 64
1, 34175, Note_on_c, 0, 80, 0
1, 34176, Note_on_c, 0, 78, 64
1, 34176, Note_on_c, 1, 64, 64
1, 34176, Note_on_c, 1, 52, 64
1, 34196, Note_on_c, 1, 64, 0
1, 34196, Note_on_c, 1, 52, 0
1, 34199, Note_on_c, 0, 78, 0
1, 34200, Note_on_c, 0, 80, 64
1, 34223, Note_on_c, 0, 80, 0
1, 34224, Note_on_c, 0, 81, 64
1, 34224, Note_on_c, 1, 62, 64
1, 34224, Note_on_c, 1, 50, 64
1, 34244, Note_on_c, 1, 62, 0
1, 34244, Note_on_c, 1, 50, 0
1, 34247, Note_on_c, 0, 81, 0
1, 34248, Note_on_c, 0, 80, 64
1, 34271, Note_on_c, 0, 80, 0
1, 34272, Note_on_c, 0, 78, 64
1, 34272, Note_on_c, 1, 61, 64
1, 34272, Note_on_c, 1, 49, 64
1, 34292, Note_on_c, 1, 61, 0
1, 34292, Note_on_c, 1, 49, 0
1, 34295, Note_on_c, 0, 78, 0
1, 34296, Note_on_c, 0, 80, 64
1, 34319, Note_on_c, 0, 80, 0
1, 34320, Note_on_c, 0, 81, 64
1, 34320, Note_on_c, 1, 59, 64
1, 34320, Note_on_c, 1, 47, 64
1, 34340, Note_on_c, 1, 59, 0
1, 34340, Note_on_c, 1, 47, 0
1, 34343, Note_on_c, 0, 81, 0
1, 34344, Note_on_c, 0, 80, 64
1, 34367, Note_on_c, 0, 80, 0
1, 34368, Note_on_c, 0, 78, 64
1, 34368, Note_on_c, 1, 57, 64
1, 34368, Note_on_c, 1, 45, 64
1, 34391, Note_on_c, 0, 78, 0
1, 34392, Note_on_c, 0, 80, 64
1, 34415, Note_on_c, 0, 80, 0
1, 34416, Note_on_c, 0, 81, 64
1, 34439, Note_on_c, 0, 81, 0
1, 34440, Note_on_c, 0, 80, 64
1, 34457, Note_on_c, 1, 57, 0
1, 34457, Note_on_c, 1, 45, 0
1, 34463, Note_on_c, 0, 80, 0
1, 34464, Note_on_c, 0, 78, 64
1, 34487, Note_on_c, 0, 78, 0
1, 34488, Note_on_c, 0, 80, 64
1, 34511, Note_on_c, 0, 80, 0
1, 34512, Note_on_c, 0, 81, 64
1, 34512, Note_on_c, 1, 62, 64
1, 34512, Note_on_c, 1, 50, 64
1, 34532, Note_on_c, 1, 62, 0
1, 34532, Note_on_c, 1, 50, 0
1, 34535, Note_on_c, 0, 81, 0
1, 34536, Note_on_c, 0, 80, 64
1, 34559, Note_on_c, 0, 80, 0
1, 34560, Note_on_c, 0, 78, 64
1, 34560, Note_on_c, 1, 61, 64
1, 34560, Note_on_c, 1, 49, 64
1, 34580, Note_on_c, 1, 61, 0
1, 34580, Note_on_c, 1, 49, 0
1, 34583, Note_on_c, 0, 78, 0
1, 34584, Note_on_c, 0, 80, 64
1, 34607, Note_on_c, 0, 80, 0
1, 34608, Note_on_c, 0, 81, 64
1, 34608, Note_on_c, 1, 59, 64
1, 34608, Note_on_c, 1, 47, 64
1, 34628, Note_on_c, 1, 59, 0
1, 34628, Note_on_c, 1, 47, 0
1, 34631, Note_on_c, 0, 81, 0
1, 34632, Note_on_c, 0, 80, 64
1, 34655, Note_on_c, 0, 80, 0
1, 34656, Note_on_c, 0, 78, 64
1, 34656, Note_on_c, 1, 57, 64
1, 34656, Note_on_c, 1, 45, 64
1, 34676, Note_on_c, 1, 57, 0
1, 34676, Note_on_c, 1, 45, 0
1, 34679, Note_on_c, 0, 78, 0
1, 34680, Note_on_c, 0, 80, 64
1, 34703, Note_on_c, 0, 80, 0
1, 34704, Note_on_c, 0, 81, 64
1, 34704, Note_on_c, 1, 56, 64
1, 34704, Note_on_c, 1, 44, 64
1, 34724, Note_on_c, 1, 56, 0
1, 34724, Note_on_c, 1, 44, 0
1, 34727, Note_on_c, 0, 81, 0
1, 34728, Note_on_c, 0, 80, 64
1, 34751, Note_on_c, 0, 80, 0
1, 34752, Note_on_c, 0, 78, 64
1, 34752, Note_on_c, 1, 54, 64
1, 34752, Note_on_c, 1, 42, 64
1, 34775, Note_on_c, 0, 78, 0
1, 34776, Note_on_c, 0, 80, 64
1, 34799, Note_on_c, 0, 80, 0
1, 34800, Note_on_c, 0, 81, 64
1, 34823, Note_on_c, 0, 81, 0
1, 34824, Note_on_c, 0, 80, 64
1, 34841, Note_on_c, 1, 54, 0
1, 34841, Note_on_c, 1, 42, 0
1, 34847, Note_on_c, 0, 80, 0
1, 34848, Note_on_c, 0, 78, 64
1, 34871, Note_on_c, 0, 78, 0
1, 34872, Note_on_c, 0, 80, 64
1, 34895, Note_on_c, 0, 80, 0
1, 34896, Note_on_c, 0, 81, 64
1, 34919, Note_on_c, 0, 81, 0
1, 34920, Note_on_c, 0, 80, 64
1, 34943, Note_on_c, 0, 80, 0
1, 34944, Note_on_c, 0, 78, 64
1, 34967, Note_on_c, 0, 78, 0
1, 34968, Note_on_c, 0, 80, 64
1, 34991, Note_on_c, 0, 80, 0
1, 34992, Note_on_c, 0, 81, 64
1, 35015, Note_on_c, 0, 81, 0
1, 35016, Note_on_c, 0, 80, 64
1, 35039, Note_on_c, 0, 80, 0
1, 35040, Note_on_c, 0, 78, 64
1, 35063, Note_on_c, 0, 78, 0
1, 35064, Note_on_c, 0, 76, 64
1, 35087, Note_on_c, 0, 76, 0
1, 35088, Note_on_c, 0, 75, 64
1, 35111, Note_on_c, 0, 75, 0
1, 35112, Note_on_c, 0, 73, 64
1, 35135, Note_on_c, 0, 73, 0
1, 35136, Note_on_c, 0, 72, 64
1, 35136, Note_on_c, 1, 68, 64
1, 35136, Note_on_c, 1, 66, 64
1, 35156, Note_on_c, 1, 68, 0
1, 35156, Note_on_c, 1, 66, 0
1, 35159, Note_on_c, 0, 72, 0
1, 35160, Note_on_c, 0, 73, 64
1, 35183, Note_on_c, 0, 73, 0
1, 35184, Note_on_c, 0, 75, 64
1, 35184, Note_on_c, 1, 68, 64
1, 35184, Note_on_c, 1, 66, 64
1, 35204, Note_on_c, 1, 68, 0
1, 35204, Note_on_c, 1, 66, 0
1, 35207, Note_on_c, 0, 75, 0
1, 35208, Note_on_c, 0, 73, 64
1, 35231, Note_on_c, 0, 73, 0
1, 35232, Note_on_c, 0, 72, 64
1, 35232, Note_on_c, 1, 68, 64
1, 35232, Note_on_c, 1, 66, 64
1, 35252, Note_on_c, 1, 68, 0
1, 35252, Note_on_c, 1, 66, 0
1, 35255, Note_on_c, 0, 72, 0
1, 35256, Note_on_c, 0, 73, 64
1, 35279, Note_on_c, 0, 73, 0
1, 35280, Note_on_c, 0, 75, 64
1, 35280, Note_on_c, 1, 68, 64
1, 35280, Note_on_c, 1, 66, 64
1, 35300, Note_on_c, 1, 68, 0
1, 35300, Note_on_c, 1, 66, 0
1, 35303, Note_on_c, 0, 75, 0
1, 35304, Note_on_c, 0, 73, 64
1, 35327, Note_on_c, 0, 73, 0
1, 35328, Note_on_c, 0, 72, 64
1, 35328, Note_on_c, 1, 68, 64
1, 35328, Note_on_c, 1, 66, 64
1, 35351, Note_on_c, 0, 72, 0
1, 35352, Note_on_c, 0, 81, 64
1, 35375, Note_on_c, 0, 81, 0
1, 35376, Note_on_c, 0, 80, 64
1, 35399, Note_on_c, 0, 80, 0
1, 35400, Note_on_c, 0, 78, 64
1, 35417, Note_on_c, 1, 68, 0
1, 35417, Note_on_c, 1, 66, 0
1, 35423, Note_on_c, 0, 78, 0
1, 35424, Note_on_c, 0, 76, 64
1, 35447, Note_on_c, 0, 76, 0
1, 35448, Note_on_c, 0, 75, 64
1, 35471, Note_on_c, 0, 75, 0
1, 35472, Note_on_c, 0, 73, 64
1, 35495, Note_on_c, 0, 73, 0
1, 35496, Note_on_c, 0, 72, 64
1, 35519, Note_on_c, 0, 72, 0
1, 35520, Note_on_c, 0, 73, 64
1, 35520, Note_on_c, 1, 68, 64
1, 35520, Note_on_c, 1, 64, 64
1, 35540, Note_on_c, 1, 68, 0
1, 35540, Note_on_c, 1, 64, 0
1, 35543, Note_on_c, 0, 73, 0
1, 35544, Note_on_c, 0, 75, 64
1, 35567, Note_on_c, 0, 75, 0
1, 35568, Note_on_c, 0, 76, 64
1, 35568, Note_on_c, 1, 68, 64
1, 35568, Note_on_c, 1, 64, 64
1, 35588, Note_on_c, 1, 68, 0
1, 35588, Note_on_c, 1, 64, 0
1, 35591, Note_on_c, 0, 76, 0
1, 35592, Note_on_c, 0, 75, 64
1, 35615, Note_on_c, 0, 75, 0
1, 35616, Note_on_c, 0, 73, 64
1, 35616, Note_on_c, 1, 68, 64
1, 35616, Note_on_c, 1, 64, 64
1, 35636, Note_on_c, 1, 68, 0
1, 35636, Note_on_c, 1, 64, 0
1, 35639, Note_on_c, 0, 73, 0
1, 35640, Note_on_c, 0, 75, 64
1, 35663, Note_on_c, 0, 75, 0
1, 35664, Note_on_c, 0, 76, 64
1, 35664, Note_on_c, 1, 68, 64
1, 35664, Note_on_c, 1, 64, 64
1, 35684, Note_on_c, 1, 68, 0
1, 35684, Note_on_c, 1, 64, 0
1, 35687, Note_on_c, 0, 76, 0
1, 35688, Note_on_c, 0, 75, 64
1, 35711, Note_on_c, 0, 75, 0
1, 35712, Note_on_c, 0, 73, 64
1, 35712, Note_on_c, 1, 68, 64
1, 35712, Note_on_c, 1, 64, 64
1, 35757, Note_on_c, 0, 73, 0
1, 35760, Note_on_c, 0, 80, 64
1, 35783, Note_on_c, 0, 80, 0
1, 35784, Note_on_c, 0, 78, 64
1, 35801, Note_on_c, 1, 68, 0
1, 35801, Note_on_c, 1, 64, 0
1, 35807, Note_on_c, 0, 78, 0
1, 35808, Note_on_c, 0, 76, 64
1, 35831, Note_on_c, 0, 76, 0
1, 35832, Note_on_c, 0, 75, 64
1, 35855, Note_on_c, 0, 75, 0
1, 35856, Note_on_c, 0, 73, 64
1, 35879, Note_on_c, 0, 73, 0
1, 35880, Note_on_c, 0, 71, 64
1, 35903, Note_on_c, 0, 71, 0
1, 35904, Note_on_c, 0, 70, 64
1, 35904, Note_on_c, 1, 66, 64
1, 35904, Note_on_c, 1, 64, 64
1, 35924, Note_on_c, 1, 66, 0
1, 35924, Note_on_c, 1, 64, 0
1, 35927, Note_on_c, 0, 70, 0
1, 35928, Note_on_c, 0, 71, 64
1, 35951, Note_on_c, 0, 71, 0
1, 35952, Note_on_c, 0, 73, 64
1, 35952, Note_on_c, 1, 66, 64
1, 35952, Note_on_c, 1, 64, 64
1, 35972, Note_on_c, 1, 66, 0
1, 35972, Note_on_c, 1, 64, 0
1, 35975, Note_on_c, 0, 73, 0
1, 35976, Note_on_c, 0, 71, 64
1, 35999, Note_on_c, 0, 71, 0
1, 36000, Note_on_c, 0, 70, 64
1, 36000, Note_on_c, 1, 66, 64
1, 36000, Note_on_c, 1, 64, 64
1, 36020, Note_on_c, 1, 66, 0
1, 36020, Note_on_c, 1, 64, 0
1, 36023, Note_on_c, 0, 70, 0
1, 36024, Note_on_c, 0, 71, 64
1, 36047, Note_on_c, 0, 71, 0
1, 36048, Note_on_c, 0, 73, 64
1, 36048, Note_on_c, 1, 66, 64
1, 36048, Note_on_c, 1, 64, 64
1, 36068, Note_on_c, 1, 66, 0
1, 36068, Note_on_c, 1, 64, 0
1, 36071, Note_on_c, 0, 73, 0
1, 36072, Note_on_c, 0, 71, 64
1, 36095, Note_on_c, 0, 71, 0
1, 36096, Note_on_c, 0, 70, 64
1, 36096, Note_on_c, 1, 66, 64
1, 36096, Note_on_c, 1, 64, 64
1, 36119, Note_on_c, 0, 70, 0
1, 36120, Note_on_c, 0, 79, 64
1, 36143, Note_on_c, 0, 79, 0
1, 36144, Note_on_c, 0, 78, 64
1, 36167, Note_on_c, 0, 78, 0
1, 36168, Note_on_c, 0, 76, 64
1, 36185, Note_on_c, 1, 66, 0
1, 36185, Note_on_c, 1, 64, 0
1, 36191, Note_on_c, 0, 76, 0
1, 36192, Note_on_c, 0, 74, 64
1, 36215, Note_on_c, 0, 74, 0
1, 36216, Note_on_c, 0, 73, 64
1, 36239, Note_on_c, 0, 73, 0
1, 36240, Note_on_c, 0, 71, 64
1, 36263, Note_on_c, 0, 71, 0
1, 36264, Note_on_c, 0, 70, 64
1, 36287, Note_on_c, 0, 70, 0
1, 36288, Note_on_c, 0, 71, 64
1, 36288, Note_on_c, 1, 66, 64
1, 36288, Note_on_c, 1, 62, 64
1, 36308, Note_on_c, 1, 66, 0
1, 36308, Note_on_c, 1, 62, 0
1, 36311, Note_on_c, 0, 71, 0
1, 36312, Note_on_c, 0, 73, 64
1, 36335, Note_on_c, 0, 73, 0
1, 36336, Note_on_c, 0, 74, 64
1, 36336, Note_on_c, 1, 66, 64
1, 36336, Note_on_c, 1, 62, 64
1, 36356, Note_on_c, 1, 66, 0
1, 36356, Note_on_c, 1, 62, 0
1, 36359, Note_on_c, 0, 74, 0
1, 36360, Note_on_c, 0, 73, 64
1, 36383, Note_on_c, 0, 73, 0
1, 36384, Note_on_c, 0, 71, 64
1, 36384, Note_on_c, 1, 66, 64
1, 36384, Note_on_c, 1, 62, 64
1, 36404, Note_on_c, 1, 66, 0
1, 36404, Note_on_c, 1, 62, 0
1, 36407, Note_on_c, 0, 71, 0
1, 36408, Note_on_c, 0, 73, 64
1, 36431, Note_on_c, 0, 73, 0
1, 36432, Note_on_c, 0, 74, 64
1, 36432, Note_on_c, 1, 66, 64
1, 36432, Note_on_c, 1, 62, 64
1, 36452, Note_on_c, 1, 66, 0
1, 36452, Note_on_c, 1, 62, 0
1, 36455, Note_on_c, 0, 74, 0
1, 36456, Note_on_c, 0, 73, 64
1, 36479, Note_on_c, 0, 73, 0
1, 36480, Note_on_c, 0, 71, 64
1, 36480, Note_on_c, 1, 66, 64
1, 36480, Note_on_c, 1, 62, 64
1, 36525, Note_on_c, 0, 71, 0
1, 36528, Note_on_c, 0, 79, 64
1, 36551, Note_on_c, 0, 79, 0
1, 36552, Note_on_c, 0, 78, 64
1, 36569, Note_on_c, 1, 66, 0
1, 36569, Note_on_c, 1, 62, 0
1, 36575, Note_on_c, 0, 78, 0
1, 36576, Note_on_c, 0, 76, 64
1, 36599, Note_on_c, 0, 76, 0
1, 36600, Note_on_c, 0, 74, 64
1, 36623, Note_on_c, 0, 74, 0
1, 36624, Note_on_c, 0, 73, 64
1, 36647, Note_on_c, 0, 73, 0
1, 36648, Note_on_c, 0, 71, 64
1, 36671, Note_on_c, 0, 71, 0
1, 36672, Note_on_c, 0, 73, 64
1, 36672, Note_on_c, 1, 66, 64
1, 36672, Note_on_c, 1, 58, 64
1, 36692, Note_on_c, 1, 66, 0
1, 36692, Note_on_c, 1, 58, 0
1, 36695, Note_on_c, 0, 73, 0
1, 36696, Note_on_c, 0, 74, 64
1, 36719, Note_on_c, 0, 74, 0
1, 36720, Note_on_c, 0, 76, 64
1, 36720, Note_on_c, 1, 66, 64
1, 36720, Note_on_c, 1, 58, 64
1, 36740, Note_on_c, 1, 66, 0
1, 36740, Note_on_c, 1, 58, 0
1, 36743, Note_on_c, 0, 76, 0
1, 36744, Note_on_c, 0, 74, 64
1, 36767, Note_on_c, 0, 74, 0
1, 36768, Note_on_c, 0, 73, 64
1, 36768, Note_on_c, 1, 66, 64
1, 36768, Note_on_c, 1, 58, 64
1, 36788, Note_on_c, 1, 66, 0
1, 36788, Note_on_c, 1, 58, 0
1, 36791, Note_on_c, 0, 73, 0
1, 36792, Note_on_c, 0, 74, 64
1, 36815, Note_on_c, 0, 74, 0
1, 36816, Note_on_c, 0, 76, 64
1, 36816, Note_on_c, 1, 66, 64
1, 36816, Note_on_c, 1, 58, 64
1, 36836, Note_on_c, 1, 66, 0
1, 36836, Note_on_c, 1, 58, 0
1, 36839, Note_on_c, 0, 76, 0
1, 36840, Note_on_c, 0, 74, 64
1, 36863, Note_on_c, 0, 74, 0
1, 36864, Note_on_c, 0, 73, 64
1, 36864, Note_on_c, 1, 66, 64
1, 36864, Note_on_c, 1, 58, 64
1, 36909, Note_on_c, 0, 73, 0
1, 36912, Note_on_c, 0, 76, 64
1, 36935, Note_on_c, 0, 76, 0
1, 36936, Note_on_c, 0, 79, 64
1, 36953, Note_on_c, 1, 66, 0
1, 36953, Note_on_c, 1, 58, 0
1, 36959, Note_on_c, 0, 79, 0
1, 36960, Note_on_c, 0, 78, 64
1, 36983, Note_on_c, 0, 78, 0
1, 36984, Note_on_c, 0, 76, 64
1, 37007, Note_on_c, 0, 76, 0
1, 37008, Note_on_c, 0, 74, 64
1, 37031, Note_on_c, 0, 74, 0
1, 37032, Note_on_c, 0, 73, 64
1, 37055, Note_on_c, 0, 73, 0
1, 37056, Note_on_c, 0, 71, 64
1, 37056, Note_on_c, 1, 66, 64
1, 37056, Note_on_c, 1, 59, 64
1, 37079, Note_on_c, 0, 71, 0
1, 37080, Note_on_c, 0, 73, 64
1, 37103, Note_on_c, 0, 73, 0
1, 37104, Note_on_c, 0, 74, 64
1, 37127, Note_on_c, 0, 74, 0
1, 37128, Note_on_c, 0, 73, 64
1, 37145, Note_on_c, 1, 66, 0
1, 37145, Note_on_c, 1, 59, 0
1, 37151, Note_on_c, 0, 73, 0
1, 37152, Note_on_c, 0, 71, 64
1, 37175, Note_on_c, 0, 71, 0
1, 37176, Note_on_c, 0, 73, 64
1, 37199, Note_on_c, 0, 73, 0
1, 37200, Note_on_c, 0, 74, 64
1, 37223, Note_on_c, 0, 74, 0
1, 37224, Note_on_c, 0, 73, 64
1, 37247, Note_on_c, 0, 73, 0
1, 37248, Note_on_c, 0, 71, 64
1, 37248, Note_on_c, 1, 65, 64
1, 37248, Note_on_c, 1, 55, 64
1, 37271, Note_on_c, 0, 71, 0
1, 37272, Note_on_c, 0, 73, 64
1, 37295, Note_on_c, 0, 73, 0
1, 37296, Note_on_c, 0, 74, 64
1, 37319, Note_on_c, 0, 74, 0
1, 37320, Note_on_c, 0, 73, 64
1, 37337, Note_on_c, 1, 65, 0
1, 37337, Note_on_c, 1, 55, 0
1, 37343, Note_on_c, 0, 73, 0
1, 37344, Note_on_c, 0, 71, 64
1, 37367, Note_on_c, 0, 71, 0
1, 37368, Note_on_c, 0, 74, 64
1, 37391, Note_on_c, 0, 74, 0
1, 37392, Note_on_c, 0, 73, 64
1, 37415, Note_on_c, 0, 73, 0
1, 37416, Note_on_c, 0, 71, 64
1, 37439, Note_on_c, 0, 71, 0
1, 37440, Note_on_c, 0, 78, 64
1, 37440, Note_on_c, 0, 70, 64
1, 37440, Note_on_c, 1, 66, 64
1, 37440, Note_on_c, 1, 54, 64
1, 37529, Note_on_c, 0, 78, 0
1, 37529, Note_on_c, 0, 70, 0
1, 37529, Note_on_c, 1, 66, 0
1, 37529, Note_on_c, 1, 54, 0
1, 37776, Note_on_c, 0, 59, 64
1, 37796, Note_on_c, 0, 59, 0
1, 37824, Note_on_c, 0, 59, 64
1, 37844, Note_on_c, 0, 59, 0
1, 37872, Note_on_c, 0, 59, 64
1, 37892, Note_on_c, 0, 59, 0
1, 37920, Note_on_c, 0, 59, 64
1, 37940, Note_on_c, 0, 59, 0
1, 37968, Note_on_c, 0, 59, 64
1, 37988, Note_on_c, 0, 59, 0
1, 38016, Note_on_c, 0, 62, 64
1, 38061, Note_on_c, 0, 62, 0
1, 38064, Note_on_c, 0, 61, 64
1, 38109, Note_on_c, 0, 61, 0
1, 38112, Note_on_c, 0, 59, 64
1, 38157, Note_on_c, 0, 59, 0
1, 38160, Note_on_c, 0, 67, 64
1, 38160, Note_on_c, 1, 59, 64
1, 38180, Note_on_c, 0, 67, 0
1, 38208, Note_on_c, 0, 66, 64
1, 38208, Note_on_c, 1, 59, 0
1, 38208, Note_on_c, 1, 58, 64
1, 38253, Note_on_c, 0, 66, 0
1, 38256, Note_on_c, 0, 65, 64
1, 38297, Note_on_c, 1, 58, 0
1, 38301, Note_on_c, 0, 65, 0
1, 38304, Note_on_c, 0, 66, 64
1, 38349, Note_on_c, 0, 66, 0
1, 38352, Note_on_c, 0, 64, 64
1, 38352, Note_on_c, 1, 55, 64
1, 38372, Note_on_c, 0, 64, 0
1, 38400, Note_on_c, 0, 62, 64
1, 38400, Note_on_c, 1, 55, 0
1, 38400, Note_on_c, 1, 54, 64
1, 38445, Note_on_c, 0, 62, 0
1, 38448, Note_on_c, 0, 61, 64
1, 38489, Note_on_c, 1, 54, 0
1, 38493, Note_on_c, 0, 61, 0
1, 38496, Note_on_c, 0, 62, 64
1, 38541, Note_on_c, 0, 62, 0
1, 38544, Note_on_c, 0, 61, 64
1, 38544, Note_on_c, 1, 52, 64
1, 38564, Note_on_c, 0, 61, 0
1, 38592, Note_on_c, 0, 59, 64
1, 38592, Note_on_c, 1, 52, 0
1, 38592, Note_on_c, 1, 50, 64
1, 38637, Note_on_c, 0, 59, 0
1, 38640, Note_on_c, 0, 58, 64
1, 38681, Note_on_c, 1, 50, 0
1, 38685, Note_on_c, 0, 58, 0
1, 38688, Note_on_c, 0, 59, 64
1, 38733, Note_on_c, 0, 59, 0
1, 38736, Note_on_c, 0, 59, 64
1, 38736, Note_on_c, 1, 55, 64
1, 38756, Note_on_c, 0, 59, 0
1, 38756, Note_on_c, 1, 55, 0
1, 38784, Note_on_c, 0, 59, 64
1, 38784, Note_on_c, 1, 54, 64
1, 38804, Note_on_c, 0, 59, 0
1, 38829, Note_on_c, 1, 54, 0
1, 38832, Note_on_c, 0, 59, 64
1, 38832, Note_on_c, 1, 52, 64
1, 38852, Note_on_c, 0, 59, 0
1, 38877, Note_on_c, 1, 52, 0
1, 38880, Note_on_c, 0, 59, 64
1, 38880, Note_on_c, 1, 50, 64
1, 38900, Note_on_c, 0, 59, 0
1, 38925, Note_on_c, 1, 50, 0
1, 38928, Note_on_c, 0, 64, 64
1, 38928, Note_on_c, 1, 49, 64
1, 38948, Note_on_c, 0, 64, 0
1, 38948, Note_on_c, 1, 49, 0
1, 38976, Note_on_c, 0, 62, 64
1, 38976, Note_on_c, 1, 47, 64
1, 39021, Note_on_c, 0, 62, 0
1, 39024, Note_on_c, 0, 61, 64
1, 39065, Note_on_c, 1, 47, 0
1, 39069, Note_on_c, 0, 61, 0
1, 39072, Note_on_c, 0, 59, 64
1, 39117, Note_on_c, 0, 59, 0
1, 39120, Note_on_c, 0, 67, 64
1, 39120, Note_on_c, 1, 47, 64
1, 39140, Note_on_c, 0, 67, 0
1, 39140, Note_on_c, 1, 47, 0
1, 39168, Note_on_c, 0, 66, 64
1, 39168, Note_on_c, 1, 47, 64
1, 39188, Note_on_c, 1, 47, 0
1, 39213, Note_on_c, 0, 66, 0
1, 39216, Note_on_c, 0, 64, 64
1, 39216, Note_on_c, 1, 47, 64
1, 39236, Note_on_c, 1, 47, 0
1, 39261, Note_on_c, 0, 64, 0
1, 39264, Note_on_c, 0, 62, 64
1, 39264, Note_on_c, 1, 47, 64
1, 39284, Note_on_c, 1, 47, 0
1, 39309, Note_on_c, 0, 62, 0
1, 39312, Note_on_c, 0, 61, 64
1, 39312, Note_on_c, 1, 52, 64
1, 39332, Note_on_c, 0, 61, 0
1, 39332, Note_on_c, 1, 52, 0
1, 39360, Note_on_c, 0, 59, 64
1, 39360, Note_on_c, 1, 50, 64
1, 39405, Note_on_c, 1, 50, 0
1, 39408, Note_on_c, 1, 49, 64
1, 39449, Note_on_c, 0, 59, 0
1, 39453, Note_on_c, 1, 49, 0
1, 39456, Note_on_c, 1, 47, 64
1, 39501, Note_on_c, 1, 47, 0
1, 39504, Note_on_c, 0, 59, 64
1, 39504, Note_on_c, 1, 55, 64
1, 39524, Note_on_c, 0, 59, 0
1, 39524, Note_on_c, 1, 55, 0
1, 39552, Note_on_c, 0, 59, 64
1, 39552, Note_on_c, 1, 54, 64
1, 39572, Note_on_c, 0, 59, 0
1, 39597, Note_on_c, 1, 54, 0
1, 39600, Note_on_c, 0, 59, 64
1, 39600, Note_on_c, 1, 52, 64
1, 39620, Note_on_c, 0, 59, 0
1, 39645, Note_on_c, 1, 52, 0
1, 39648, Note_on_c, 0, 59, 64
1, 39648, Note_on_c, 1, 50, 64
1, 39668, Note_on_c, 0, 59, 0
1, 39693, Note_on_c, 1, 50, 0
1, 39696, Note_on_c, 0, 64, 64
1, 39696, Note_on_c, 1, 49, 64
1, 39716, Note_on_c, 0, 64, 0
1, 39716, Note_on_c, 1, 49, 0
1, 39744, Note_on_c, 0, 62, 64
1, 39744, Note_on_c, 1, 47, 64
1, 39789, Note_on_c, 0, 62, 0
1, 39792, Note_on_c, 0, 61, 64
1, 39833, Note_on_c, 1, 47, 0
1, 39837, Note_on_c, 0, 61, 0
1, 39840, Note_on_c, 0, 59, 64
1, 39885, Note_on_c, 0, 59, 0
1, 39888, Note_on_c, 0, 71, 64
1, 39908, Note_on_c, 0, 71, 0
1, 39936, Note_on_c, 0, 69, 64
1, 39936, Note_on_c, 1, 59, 64
1, 39936, Note_on_c, 1, 55, 64
1, 39981, Note_on_c, 0, 69, 0
1, 39984, Note_on_c, 0, 67, 64
1, 40029, Note_on_c, 0, 67, 0
1, 40032, Note_on_c, 0, 66, 64
1, 40077, Note_on_c, 0, 66, 0
1, 40080, Note_on_c, 0, 65, 64
1, 40100, Note_on_c, 0, 65, 0
1, 40113, Note_on_c, 1, 59, 0
1, 40113, Note_on_c, 1, 55, 0
1, 40128, Note_on_c, 0, 66, 64
1, 40128, Note_on_c, 1, 58, 64
1, 40128, Note_on_c, 1, 54, 64
1, 40217, Note_on_c, 0, 66, 0
1, 40217, Note_on_c, 1, 58, 0
1, 40217, Note_on_c, 1, 54, 0
1, 40272, Note_on_c, 0, 64, 64
1, 40272, Note_on_c, 1, 61, 64
1, 40292, Note_on_c, 0, 64, 0
1, 40292, Note_on_c, 1, 61, 0
1, 40320, Note_on_c, 0, 64, 64
1, 40320, Note_on_c, 1, 61, 64
1, 40340, Note_on_c, 0, 64, 0
1, 40340, Note_on_c, 1, 61, 0
1, 40368, Note_on_c, 0, 64, 64
1, 40368, Note_on_c, 1, 61, 64
1, 40388, Note_on_c, 0, 64, 0
1, 40388, Note_on_c, 1, 61, 0
1, 40416, Note_on_c, 0, 64, 64
1, 40416, Note_on_c, 1, 61, 64
1, 40436, Note_on_c, 0, 64, 0
1, 40436, Note_on_c, 1, 61, 0
1, 40464, Note_on_c, 0, 64, 64
1, 40464, Note_on_c, 1, 61, 64
1, 40484, Note_on_c, 0, 64, 0
1, 40484, Note_on_c, 1, 61, 0
1, 40512, Note_on_c, 0, 67, 64
1, 40512, Note_on_c, 1, 64, 64
1, 40512, Note_on_c, 1, 54, 64
1, 40557, Note_on_c, 0, 67, 0
1, 40557, Note_on_c, 1, 64, 0
1, 40560, Note_on_c, 0, 66, 64
1, 40560, Note_on_c, 1, 62, 64
1, 40601, Note_on_c, 1, 54, 0
1, 40605, Note_on_c, 0, 66, 0
1, 40605, Note_on_c, 1, 62, 0
1, 40608, Note_on_c, 0, 64, 64
1, 40608, Note_on_c, 1, 61, 64
1, 40653, Note_on_c, 0, 64, 0
1, 40653, Note_on_c, 1, 61, 0
1, 40656, Note_on_c, 0, 64, 64
1, 40656, Note_on_c, 1, 61, 64
1, 40676, Note_on_c, 0, 64, 0
1, 40676, Note_on_c, 1, 61, 0
1, 40704, Note_on_c, 0, 64, 64
1, 40704, Note_on_c, 1, 61, 64
1, 40724, Note_on_c, 0, 64, 0
1, 40724, Note_on_c, 1, 61, 0
1, 40752, Note_on_c, 0, 64, 64
1, 40752, Note_on_c, 1, 61, 64
1, 40772, Note_on_c, 0, 64, 0
1, 40772, Note_on_c, 1, 61, 0
1, 40800, Note_on_c, 0, 64, 64
1, 40800, Note_on_c, 1, 61, 64
1, 40820, Note_on_c, 0, 64, 0
1, 40820, Note_on_c, 1, 61, 0
1, 40848, Note_on_c, 0, 64, 64
1, 40848, Note_on_c, 1, 61, 64
1, 40868, Note_on_c, 0, 64, 0
1, 40868, Note_on_c, 1, 61, 0
1, 40896, Note_on_c, 0, 67, 64
1, 40896, Note_on_c, 1, 64, 64
1, 40896, Note_on_c, 1, 54, 64
1, 40941, Note_on_c, 0, 67, 0
1, 40941, Note_on_c, 1, 64, 0
1, 40944, Note_on_c, 0, 66, 64
1, 40944, Note_on_c, 1, 62, 64
1, 40985, Note_on_c, 1, 54, 0
1, 40989, Note_on_c, 0, 66, 0
1, 40989, Note_on_c, 1, 62, 0
1, 40992, Note_on_c, 0, 64, 64
1, 40992, Note_on_c, 1, 61, 64
1, 41037, Note_on_c, 0, 64, 0
1, 41037, Note_on_c, 1, 61, 0
1, 41040, Note_on_c, 0, 75, 64
1, 41040, Note_on_c, 0, 63, 64
1, 41060, Note_on_c, 0, 75, 0
1, 41060, Note_on_c, 0, 63, 0
1, 41088, Note_on_c, 0, 76, 64
1, 41088, Note_on_c, 0, 64, 64
1, 41133, Note_on_c, 0, 76, 0
1, 41133, Note_on_c, 0, 64, 0
1, 41136, Note_on_c, 0, 75, 64
1, 41136, Note_on_c, 0, 63, 64
1, 41181, Note_on_c, 0, 75, 0
1, 41181, Note_on_c, 0, 63, 0
1, 41184, Note_on_c, 0, 76, 64
1, 41184, Note_on_c, 0, 64, 64
1, 41229, Note_on_c, 0, 76, 0
1, 41229, Note_on_c, 0, 64, 0
1, 41232, Note_on_c, 0, 78, 64
1, 41232, Note_on_c, 0, 66, 64
1, 41252, Note_on_c, 0, 78, 0
1, 41252, Note_on_c, 0, 66, 0
1, 41280, Note_on_c, 0, 79, 64
1, 41280, Note_on_c, 0, 67, 64
1, 41328, Note_on_c, 1, 63, 64
1, 41328, Note_on_c, 1, 51, 64
1, 41348, Note_on_c, 1, 63, 0
1, 41348, Note_on_c, 1, 51, 0
1, 41369, Note_on_c, 0, 79, 0
1, 41369, Note_on_c, 0, 67, 0
1, 41376, Note_on_c, 1, 64, 64
1, 41376, Note_on_c, 1, 52, 64
1, 41424, Note_on_c, 0, 79, 64
1, 41424, Note_on_c, 0, 76, 64
1, 41465, Note_on_c, 1, 64, 0
1, 41465, Note_on_c, 1, 52, 0
1, 41472, Note_on_c, 0, 79, 0
1, 41472, Note_on_c, 0, 76, 0
1, 41472, Note_on_c, 0, 78, 64
1, 41472, Note_on_c, 0, 74, 64
1, 41520, Note_on_c, 1, 66, 64
1, 41540, Note_on_c, 1, 66, 0
1, 41561, Note_on_c, 0, 78, 0
1, 41561, Note_on_c, 0, 74, 0
1, 41568, Note_on_c, 1, 66, 64
1, 41613, Note_on_c, 1, 66, 0
1, 41616, Note_on_c, 0, 76, 64
1, 41616, Note_on_c, 0, 73, 64
1, 41664, Note_on_c, 0, 76, 0
1, 41664, Note_on_c, 0, 73, 0
1, 41664, Note_on_c, 0, 74, 64
1, 41664, Note_on_c, 0, 71, 64
1, 41712, Note_on_c, 1, 67, 64
1, 41732, Note_on_c, 1, 67, 0
1, 41753, Note_on_c, 0, 74, 0
1, 41753, Note_on_c, 0, 71, 0
1, 41760, Note_on_c, 1, 67, 64
1, 41805, Note_on_c, 1, 67, 0
1, 41808, Note_on_c, 0, 75, 64
1, 41808, Note_on_c, 0, 63, 64
1, 41828, Note_on_c, 0, 75, 0
1, 41828, Note_on_c, 0, 63, 0
1, 41856, Note_on_c, 0, 76, 64
1, 41856, Note_on_c, 0, 64, 64
1, 41901, Note_on_c, 0, 76, 0
1, 41901, Note_on_c, 0, 64, 0
1, 41904, Note_on_c, 0, 75, 64
1, 41904, Note_on_c, 0, 63, 64
1, 41949, Note_on_c, 0, 75, 0
1, 41949, Note_on_c, 0, 63, 0
1, 41952, Note_on_c, 0, 76, 64
1, 41952, Note_on_c, 0, 64, 64
1, 41997, Note_on_c, 0, 76, 0
1, 41997, Note_on_c, 0, 64, 0
1, 42000, Note_on_c, 0, 78, 64
1, 42000, Note_on_c, 0, 66, 64
1, 42045, Note_on_c, 0, 78, 0
1, 42045, Note_on_c, 0, 66, 0
1, 42048, Note_on_c, 0, 79, 64
1, 42048, Note_on_c, 0, 67, 64
1, 42096, Note_on_c, 1, 51, 64
1, 42096, Note_on_c, 1, 39, 64
1, 42116, Note_on_c, 1, 51, 0
1, 42116, Note_on_c, 1, 39, 0
1, 42144, Note_on_c, 1, 52, 64
1, 42144, Note_on_c, 1, 40, 64
1, 42181, Note_on_c, 0, 79, 0
1, 42181, Note_on_c, 0, 67, 0
1, 42192, Note_on_c, 0, 76, 64
1, 42192, Note_on_c, 0, 64, 64
1, 42212, Note_on_c, 0, 76, 0
1, 42212, Note_on_c, 0, 64, 0
1, 42240, Note_on_c, 0, 82, 64
1, 42240, Note_on_c, 0, 70, 64
1, 42285, Note_on_c, 1, 52, 0
1, 42285, Note_on_c, 1, 40, 0
1, 42288, Note_on_c, 1, 50, 64
1, 42288, Note_on_c, 1, 38, 64
1, 42308, Note_on_c, 1, 50, 0
1, 42308, Note_on_c, 1, 38, 0
1, 42336, Note_on_c, 1, 49, 64
1, 42336, Note_on_c, 1, 37, 64
1, 42373, Note_on_c, 0, 82, 0
1, 42373, Note_on_c, 0, 70, 0
1, 42384, Note_on_c, 0, 83, 64
1, 42384, Note_on_c, 0, 71, 64
1, 42404, Note_on_c, 0, 83, 0
1, 42404, Note_on_c, 0, 71, 0
1, 42432, Note_on_c, 0, 85, 64
1, 42432, Note_on_c, 0, 73, 64
1, 42477, Note_on_c, 1, 49, 0
1, 42477, Note_on_c, 1, 37, 0
1, 42480, Note_on_c, 1, 47, 64
1, 42480, Note_on_c, 1, 35, 64
1, 42500, Note_on_c, 1, 47, 0
1, 42500, Note_on_c, 1, 35, 0
1, 42528, Note_on_c, 1, 46, 64
1, 42528, Note_on_c, 1, 34, 64
1, 42565, Note_on_c, 0, 85, 0
1, 42565, Note_on_c, 0, 73, 0
1, 42576, Note_on_c, 0, 86, 64
1, 42576, Note_on_c, 0, 74, 64
1, 42596, Note_on_c, 0, 86, 0
1, 42596, Note_on_c, 0, 74, 0
1, 42624, Note_on_c, 0, 88, 64
1, 42624, Note_on_c, 0, 76, 64
1, 42669, Note_on_c, 1, 46, 0
1, 42669, Note_on_c, 1, 34, 0
1, 42672, Note_on_c, 1, 44, 64
1, 42672, Note_on_c, 1, 32, 64
1, 42692, Note_on_c, 1, 44, 0
1, 42692, Note_on_c, 1, 32, 0
1, 42720, Note_on_c, 1, 42, 64
1, 42720, Note_on_c, 1, 30, 64
1, 42993, Note_on_c, 0, 88, 0
1, 42993, Note_on_c, 0, 76, 0
1, 42993, Note_on_c, 1, 42, 0
1, 42993, Note_on_c, 1, 30, 0
1, 43152, Note_on_c, 0, 71, 64
1, 43172, Note_on_c, 0, 71, 0
1, 43200, Note_on_c, 0, 71, 64
1, 43220, Note_on_c, 0, 71, 0
1, 43248, Note_on_c, 0, 71, 64
1, 43268, Note_on_c, 0, 71, 0
1, 43296, Note_on_c, 0, 71, 64
1, 43316, Note_on_c, 0, 71, 0
1, 43344, Note_on_c, 0, 71, 64
1, 43364, Note_on_c, 0, 71, 0
1, 43392, Note_on_c, 0, 71, 64
1, 43415, Note_on_c, 0, 71, 0
1, 43416, Note_on_c, 0, 73, 64
1, 43439, Note_on_c, 0, 73, 0
1, 43440, Note_on_c, 0, 74, 64
1, 43463, Note_on_c, 0, 74, 0
1, 43464, Note_on_c, 0, 73, 64
1, 43487, Note_on_c, 0, 73, 0
1, 43488, Note_on_c, 0, 71, 64
1, 43511, Note_on_c, 0, 71, 0
1, 43512, Note_on_c, 0, 73, 64
1, 43535, Note_on_c, 0, 73, 0
1, 43536, Note_on_c, 0, 74, 64
1, 43536, Note_on_c, 1, 59, 64
1, 43556, Note_on_c, 1, 59, 0
1, 43559, Note_on_c, 0, 74, 0
1, 43560, Note_on_c, 0, 73, 64
1, 43583, Note_on_c, 0, 73, 0
1, 43584, Note_on_c, 0, 71, 64
1, 43584, Note_on_c, 1, 57, 64
1, 43604, Note_on_c, 1, 57, 0
1, 43607, Note_on_c, 0, 71, 0
1, 43608, Note_on_c, 0, 73, 64
1, 43631, Note_on_c, 0, 73, 0
1, 43632, Note_on_c, 0, 74, 64
1, 43632, Note_on_c, 1, 55, 64
1, 43652, Note_on_c, 1, 55, 0
1, 43655, Note_on_c, 0, 74, 0
1, 43656, Note_on_c, 0, 73, 64
1, 43679, Note_on_c, 0, 73, 0
1, 43680, Note_on_c, 0, 71, 64
1, 43680, Note_on_c, 1, 54, 64
1, 43700, Note_on_c, 1, 54, 0
1, 43703, Note_on_c, 0, 71, 0
1, 43704, Note_on_c, 0, 73, 64
1, 43727, Note_on_c, 0, 73, 0
1, 43728, Note_on_c, 0, 74, 64
1, 43728, Note_on_c, 1, 52, 64
1, 43748, Note_on_c, 1, 52, 0
1, 43751, Note_on_c, 0, 74, 0
1, 43752, Note_on_c, 0, 73, 64
1, 43775, Note_on_c, 0, 73, 0
1, 43776, Note_on_c, 0, 71, 64
1, 43776, Note_on_c, 1, 50, 64
1, 43799, Note_on_c, 0, 71, 0
1, 43800, Note_on_c, 0, 73, 64
1, 43823, Note_on_c, 0, 73, 0
1, 43824, Note_on_c, 0, 74, 64
1, 43847, Note_on_c, 0, 74, 0
1, 43848, Note_on_c, 0, 73, 64
1, 43865, Note_on_c, 1, 50, 0
1, 43871, Note_on_c, 0, 73, 0
1, 43872, Note_on_c, 0, 71, 64
1, 43895, Note_on_c, 0, 71, 0
1, 43896, Note_on_c, 0, 73, 64
1, 43919, Note_on_c, 0, 73, 0
1, 43920, Note_on_c, 0, 74, 64
1, 43920, Note_on_c, 1, 55, 64
1, 43940, Note_on_c, 1, 55, 0
1, 43943, Note_on_c, 0, 74, 0
1, 43944, Note_on_c, 0, 73, 64
1, 43967, Note_on_c, 0, 73, 0
1, 43968, Note_on_c, 0, 71, 64
1, 43968, Note_on_c, 1, 54, 64
1, 43988, Note_on_c, 1, 54, 0
1, 43991, Note_on_c, 0, 71, 0
1, 43992, Note_on_c, 0, 73, 64
1, 44015, Note_on_c, 0, 73, 0
1, 44016, Note_on_c, 0, 74, 64
1, 44016, Note_on_c, 1, 52, 64
1, 44036, Note_on_c, 1, 52, 0
1, 44039, Note_on_c, 0, 74, 0
1, 44040, Note_on_c, 0, 73, 64
1, 44063, Note_on_c, 0, 73, 0
1, 44064, Note_on_c, 0, 71, 64
1, 44064, Note_on_c, 1, 50, 64
1, 44084, Note_on_c, 1, 50, 0
1, 44087, Note_on_c, 0, 71, 0
1, 44088, Note_on_c, 0, 73, 64
1, 44111, Note_on_c, 0, 73, 0
1, 44112, Note_on_c, 0, 74, 64
1, 44112, Note_on_c, 1, 49, 64
1, 44132, Note_on_c, 1, 49, 0
1, 44135, Note_on_c, 0, 74, 0
1, 44136, Note_on_c, 0, 73, 64
1, 44159, Note_on_c, 0, 73, 0
1, 44160, Note_on_c, 0, 71, 64
1, 44160, Note_on_c, 1, 47, 64
1, 44183, Note_on_c, 0, 71, 0
1, 44184, Note_on_c, 0, 73, 64
1, 44207, Note_on_c, 0, 73, 0
1, 44208, Note_on_c, 0, 74, 64
1, 44231, Note_on_c, 0, 74, 0
1, 44232, Note_on_c, 0, 73, 64
1, 44249, Note_on_c, 1, 47, 0
1, 44255, Note_on_c, 0, 73, 0
1, 44256, Note_on_c, 0, 71, 64
1, 44279, Note_on_c, 0, 71, 0
1, 44280, Note_on_c, 0, 73, 64
1, 44303, Note_on_c, 0, 73, 0
1, 44304, Note_on_c, 0, 74, 64
1, 44304, Note_on_c, 1, 52, 64
1, 44324, Note_on_c, 1, 52, 0
1, 44327, Note_on_c, 0, 74, 0
1, 44328, Note_on_c, 0, 73, 64
1, 44351, Note_on_c, 0, 73, 0
1, 44352, Note_on_c, 0, 71, 64
1, 44352, Note_on_c, 1, 50, 64
1, 44372, Note_on_c, 1, 50, 0
1, 44375, Note_on_c, 0, 71, 0
1, 44376, Note_on_c, 0, 73, 64
1, 44399, Note_on_c, 0, 73, 0
1, 44400, Note_on_c, 0, 74, 64
1, 44400, Note_on_c, 1, 49, 64
1, 44420, Note_on_c, 1, 49, 0
1, 44423, Note_on_c, 0, 74, 0
1, 44424, Note_on_c, 0, 73, 64
1, 44447, Note_on_c, 0, 73, 0
1, 44448, Note_on_c, 0, 71, 64
1, 44448, Note_on_c, 1, 47, 64
1, 44468, Note_on_c, 1, 47, 0
1, 44471, Note_on_c, 0, 71, 0
1, 44472, Note_on_c, 0, 73, 64
1, 44495, Note_on_c, 0, 73, 0
1, 44496, Note_on_c, 0, 74, 64
1, 44496, Note_on_c, 1, 45, 64
1, 44516, Note_on_c, 1, 45, 0
1, 44519, Note_on_c, 0, 74, 0
1, 44520, Note_on_c, 0, 73, 64
1, 44543, Note_on_c, 0, 73, 0
1, 44544, Note_on_c, 0, 71, 64
1, 44544, Note_on_c, 1, 43, 64
1, 44567, Note_on_c, 0, 71, 0
1, 44568, Note_on_c, 0, 73, 64
1, 44591, Note_on_c, 0, 73, 0
1, 44592, Note_on_c, 0, 74, 64
1, 44615, Note_on_c, 0, 74, 0
1, 44616, Note_on_c, 0, 73, 64
1, 44633, Note_on_c, 1, 43, 0
1, 44639, Note_on_c, 0, 73, 0
1, 44640, Note_on_c, 0, 71, 64
1, 44663, Note_on_c, 0, 71, 0
1, 44664, Note_on_c, 0, 73, 64
1, 44687, Note_on_c, 0, 73, 0
1, 44688, Note_on_c, 0, 74, 64
1, 44711, Note_on_c, 0, 74, 0
1, 44712, Note_on_c, 0, 73, 64
1, 44735, Note_on_c, 0, 73, 0
1, 44736, Note_on_c, 0, 71, 64
1, 44736, Note_on_c, 1, 65, 64
1, 44736, Note_on_c, 1, 55, 64
1, 44759, Note_on_c, 0, 71, 0
1, 44760, Note_on_c, 0, 73, 64
1, 44783, Note_on_c, 0, 73, 0
1, 44784, Note_on_c, 0, 74, 64
1, 44807, Note_on_c, 0, 74, 0
1, 44808, Note_on_c, 0, 76, 64
1, 44831, Note_on_c, 0, 76, 0
1, 44832, Note_on_c, 0, 78, 64
1, 44855, Note_on_c, 0, 78, 0
1, 44856, Note_on_c, 0, 80, 64
1, 44879, Note_on_c, 0, 80, 0
1, 44880, Note_on_c, 0, 82, 64
1, 44903, Note_on_c, 0, 82, 0
1, 44904, Note_on_c, 0, 83, 64
1, 44913, Note_on_c, 1, 65, 0
1, 44913, Note_on_c, 1, 55, 0
1, 44927, Note_on_c, 0, 83, 0
1, 44928, Note_on_c, 0, 82, 64
1, 44928, Note_on_c, 1, 66, 64
1, 44928, Note_on_c, 1, 54, 64
1, 44951, Note_on_c, 0, 82, 0
1, 44952, Note_on_c, 0, 78, 64
1, 44975, Note_on_c, 0, 78, 0
1, 44976, Note_on_c, 0, 77, 64
1, 44999, Note_on_c, 0, 77, 0
1, 45000, Note_on_c, 0, 78, 64
1, 45017, Note_on_c, 1, 66, 0
1, 45017, Note_on_c, 1, 54, 0
1, 45023, Note_on_c, 0, 78, 0
1, 45024, Note_on_c, 0, 76, 64
1, 45024, Note_on_c, 1, 70, 64
1, 45047, Note_on_c, 0, 76, 0
1, 45048, Note_on_c, 0, 79, 64
1, 45063, Note_on_c, 1, 70, 0
1, 45071, Note_on_c, 0, 79, 0
1, 45072, Note_on_c, 0, 78, 64
1, 45095, Note_on_c, 0, 78, 0
1, 45096, Note_on_c, 0, 76, 64
1, 45119, Note_on_c, 0, 76, 0
1, 45120, Note_on_c, 0, 74, 64
1, 45120, Note_on_c, 1, 71, 64
1, 45143, Note_on_c, 0, 74, 0
1, 45144, Note_on_c, 0, 78, 64
1, 45159, Note_on_c, 1, 71, 0
1, 45167, Note_on_c, 0, 78, 0
1, 45168, Note_on_c, 0, 76, 64
1, 45191, Note_on_c, 0, 76, 0
1, 45192, Note_on_c, 0, 74, 64
1, 45215, Note_on_c, 0, 74, 0
1, 45216, Note_on_c, 0, 73, 64
1, 45216, Note_on_c, 1, 64, 64
1, 45239, Note_on_c, 0, 73, 0
1, 45240, Note_on_c, 0, 76, 64
1, 45255, Note_on_c, 1, 64, 0
1, 45263, Note_on_c, 0, 76, 0
1, 45264, Note_on_c, 0, 74, 64
1, 45287, Note_on_c, 0, 74, 0
1, 45288, Note_on_c, 0, 73, 64
1, 45311, Note_on_c, 0, 73, 0
1, 45312, Note_on_c, 0, 78, 64
1, 45312, Note_on_c, 1, 62, 64
1, 45335, Note_on_c, 0, 78, 0
1, 45336, Note_on_c, 0, 74, 64
1, 45351, Note_on_c, 1, 62, 0
1, 45359, Note_on_c, 0, 74, 0
1, 45360, Note_on_c, 0, 73, 64
1, 45383, Note_on_c, 0, 73, 0
1, 45384, Note_on_c, 0, 71, 64
1, 45407, Note_on_c, 0, 71, 0
1, 45408, Note_on_c, 0, 79, 64
1, 45408, Note_on_c, 1, 64, 64
1, 45431, Note_on_c, 0, 79, 0
1, 45432, Note_on_c, 0, 76, 64
1, 45447, Note_on_c, 1, 64, 0
1, 45455, Note_on_c, 0, 76, 0
1, 45456, Note_on_c, 0, 74, 64
1, 45479, Note_on_c, 0, 74, 0
1, 45480, Note_on_c, 0, 73, 64
1, 45503, Note_on_c, 0, 73, 0
1, 45504, Note_on_c, 0, 74, 64
1, 45504, Note_on_c, 1, 66, 64
1, 45523, Note_on_c, 0, 74, 0
1, 45524, Note_on_c, 0, 73, 64
1, 45543, Note_on_c, 0, 73, 0
1, 45543, Note_on_c, 1, 66, 0
1, 45544, Note_on_c, 0, 74, 64
1, 45562, Note_on_c, 0, 74, 0
1, 45563, Note_on_c, 0, 73, 64
1, 45581, Note_on_c, 0, 73, 0
1, 45582, Note_on_c, 0, 74, 64
1, 45600, Note_on_c, 0, 74, 0
1, 45600, Note_on_c, 1, 54, 64
1, 45601, Note_on_c, 0, 73, 64
1, 45619, Note_on_c, 0, 73, 0
1, 45620, Note_on_c, 0, 74, 64
1, 45638, Note_on_c, 0, 74, 0
1, 45639, Note_on_c, 0, 73, 64
1, 45657, Note_on_c, 0, 73, 0
1, 45658, Note_on_c, 0, 71, 64
1, 45676, Note_on_c, 0, 71, 0
1, 45677, Note_on_c, 0, 73, 64
1, 45689, Note_on_c, 1, 54, 0
1, 45695, Note_on_c, 0, 73, 0
1, 45696, Note_on_c, 0, 71, 64
1, 45696, Note_on_c, 1, 59, 64
1, 45719, Note_on_c, 0, 71, 0
1, 45720, Note_on_c, 0, 73, 64
1, 45743, Note_on_c, 0, 73, 0
1, 45744, Note_on_c, 0, 74, 64
1, 45767, Note_on_c, 0, 74, 0
1, 45768, Note_on_c, 0, 73, 64
1, 45785, Note_on_c, 1, 59, 0
1, 45791, Note_on_c, 0, 73, 0
1, 45792, Note_on_c, 0, 71, 64
1, 45815, Note_on_c, 0, 71, 0
1, 45816, Note_on_c, 0, 73, 64
1, 45839, Note_on_c, 0, 73, 0
1, 45840, Note_on_c, 0, 74, 64
1, 45840, Note_on_c, 1, 59, 64
1, 45840, Note_on_c, 1, 47, 64
1, 45860, Note_on_c, 1, 59, 0
1, 45860, Note_on_c, 1, 47, 0
1, 45863, Note_on_c, 0, 74, 0
1, 45864, Note_on_c, 0, 73, 64
1, 45887, Note_on_c, 0, 73, 0
1, 45888, Note_on_c, 0, 71, 64
1, 45888, Note_on_c, 1, 57, 64
1, 45888, Note_on_c, 1, 45, 64
1, 45908, Note_on_c, 1, 57, 0
1, 45908, Note_on_c, 1, 45, 0
1, 45911, Note_on_c, 0, 71, 0
1, 45912, Note_on_c, 0, 73, 64
1, 45935, Note_on_c, 0, 73, 0
1, 45936, Note_on_c, 0, 74, 64
1, 45936, Note_on_c, 1, 55, 64
1, 45936, Note_on_c, 1, 43, 64
1, 45956, Note_on_c, 1, 55, 0
1, 45956, Note_on_c, 1, 43, 0
1, 45959, Note_on_c, 0, 74, 0
1, 45960, Note_on_c, 0, 73, 64
1, 45983, Note_on_c, 0, 73, 0
1, 45984, Note_on_c, 0, 71, 64
1, 45984, Note_on_c, 1, 54, 64
1, 45984, Note_on_c, 1, 42, 64
1, 46004, Note_on_c, 1, 54, 0
1, 46004, Note_on_c, 1, 42, 0
1, 46007, Note_on_c, 0, 71, 0
1, 46008, Note_on_c, 0, 73, 64
1, 46031, Note_on_c, 0, 73, 0
1, 46032, Note_on_c, 0, 74, 64
1, 46032, Note_on_c, 1, 52, 64
1, 46032, Note_on_c, 1, 40, 64
1, 46052, Note_on_c, 1, 52, 0
1, 46052, Note_on_c, 1, 40, 0
1, 46055, Note_on_c, 0, 74, 0
1, 46056, Note_on_c, 0, 73, 64
1, 46079, Note_on_c, 0, 73, 0
1, 46080, Note_on_c, 0, 71, 64
1, 46080, Note_on_c, 1, 50, 64
1, 46080, Note_on_c, 1, 38, 64
1, 46103, Note_on_c, 0, 71, 0
1, 46104, Note_on_c, 0, 73, 64
1, 46127, Note_on_c, 0, 73, 0
1, 46128, Note_on_c, 0, 74, 64
1, 46151, Note_on_c, 0, 74, 0
1, 46152, Note_on_c, 0, 73, 64
1, 46169, Note_on_c, 1, 50, 0
1, 46169, Note_on_c, 1, 38, 0
1, 46175, Note_on_c, 0, 73, 0
1, 46176, Note_on_c, 0, 71, 64
1, 46199, Note_on_c, 0, 71, 0
1, 46200, Note_on_c, 0, 73, 64
1, 46223, Note_on_c, 0, 73, 0
1, 46224, Note_on_c, 0, 74, 64
1, 46224, Note_on_c, 1, 55, 64
1, 46224, Note_on_c, 1, 43, 64
1, 46244, Note_on_c, 1, 55, 0
1, 46244, Note_on_c, 1, 43, 0
1, 46247, Note_on_c, 0, 74, 0
1, 46248, Note_on_c, 0, 73, 64
1, 46271, Note_on_c, 0, 73, 0
1, 46272, Note_on_c, 0, 71, 64
1, 46272, Note_on_c, 1, 54, 64
1, 46272, Note_on_c, 1, 42, 64
1, 46292, Note_on_c, 1, 54, 0
1, 46292, Note_on_c, 1, 42, 0
1, 46295, Note_on_c, 0, 71, 0
1, 46296, Note_on_c, 0, 73, 64
1, 46319, Note_on_c, 0, 73, 0
1, 46320, Note_on_c, 0, 74, 64
1, 46320, Note_on_c, 1, 52, 64
1, 46320, Note_on_c, 1, 40, 64
1, 46340, Note_on_c, 1, 52, 0
1, 46340, Note_on_c, 1, 40, 0
1, 46343, Note_on_c, 0, 74, 0
1, 46344, Note_on_c, 0, 73, 64
1, 46367, Note_on_c, 0, 73, 0
1, 46368, Note_on_c, 0, 71, 64
1, 46368, Note_on_c, 1, 50, 64
1, 46368, Note_on_c, 1, 38, 64
1, 46388, Note_on_c, 1, 50, 0
1, 46388, Note_on_c, 1, 38, 0
1, 46391, Note_on_c, 0, 71, 0
1, 46392, Note_on_c, 0, 73, 64
1, 46415, Note_on_c, 0, 73, 0
1, 46416, Note_on_c, 0, 74, 64
1, 46416, Note_on_c, 1, 49, 64
1, 46416, Note_on_c, 1, 37, 64
1, 46436, Note_on_c, 1, 49, 0
1, 46436, Note_on_c, 1, 37, 0
1, 46439, Note_on_c, 0, 74, 0
1, 46440, Note_on_c, 0, 73, 64
1, 46463, Note_on_c, 0, 73, 0
1, 46464, Note_on_c, 0, 71, 64
1, 46464, Note_on_c, 1, 47, 64
1, 46464, Note_on_c, 1, 35, 64
1, 46487, Note_on_c, 0, 71, 0
1, 46488, Note_on_c, 0, 73, 64
1, 46511, Note_on_c, 0, 73, 0
1, 46512, Note_on_c, 0, 74, 64
1, 46535, Note_on_c, 0, 74, 0
1, 46536, Note_on_c, 0, 73, 64
1, 46553, Note_on_c, 1, 47, 0
1, 46553, Note_on_c, 1, 35, 0
1, 46559, Note_on_c, 0, 73, 0
1, 46560, Note_on_c, 0, 71, 64
1, 46583, Note_on_c, 0, 71, 0
1, 46584, Note_on_c, 0, 73, 64
1, 46607, Note_on_c, 0, 73, 0
1, 46608, Note_on_c, 0, 74, 64
1, 46608, Note_on_c, 1, 52, 64
1, 46608, Note_on_c, 1, 40, 64
1, 46628, Note_on_c, 1, 52, 0
1, 46628, Note_on_c, 1, 40, 0
1, 46631, Note_on_c, 0, 74, 0
1, 46632, Note_on_c, 0, 73, 64
1, 46655, Note_on_c, 0, 73, 0
1, 46656, Note_on_c, 0, 71, 64
1, 46656, Note_on_c, 1, 50, 64
1, 46656, Note_on_c, 1, 38, 64
1, 46676, Note_on_c, 1, 50, 0
1, 46676, Note_on_c, 1, 38, 0
1, 46679, Note_on_c, 0, 71, 0
1, 46680, Note_on_c, 0, 73, 64
1, 46703, Note_on_c, 0, 73, 0
1, 46704, Note_on_c, 0, 74, 64
1, 46704, Note_on_c, 1, 49, 64
1, 46704, Note_on_c, 1, 37, 64
1, 46724, Note_on_c, 1, 49, 0
1, 46724, Note_on_c, 1, 37, 0
1, 46727, Note_on_c, 0, 74, 0
1, 46728, Note_on_c, 0, 73, 64
1, 46751, Note_on_c, 0, 73, 0
1, 46752, Note_on_c, 0, 71, 64
1, 46752, Note_on_c, 1, 47, 64
1, 46752, Note_on_c, 1, 35, 64
1, 46772, Note_on_c, 1, 47, 0
1, 46772, Note_on_c, 1, 35, 0
1, 46775, Note_on_c, 0, 71, 0
1, 46776, Note_on_c, 0, 73, 64
1, 46799, Note_on_c, 0, 73, 0
1, 46800, Note_on_c, 0, 74, 64
1, 46800, Note_on_c, 1, 45, 64
1, 46800, Note_on_c, 1, 33, 64
1, 46820, Note_on_c, 1, 45, 0
1, 46820, Note_on_c, 1, 33, 0
1, 46823, Note_on_c, 0, 74, 0
1, 46824, Note_on_c, 0, 73, 64
1, 46847, Note_on_c, 0, 73, 0
1, 46848, Note_on_c, 0, 71, 64
1, 46848, Note_on_c, 1, 43, 64
1, 46848, Note_on_c, 1, 31, 64
1, 46871, Note_on_c, 0, 71, 0
1, 46872, Note_on_c, 0, 73, 64
1, 46895, Note_on_c, 0, 73, 0
1, 46896, Note_on_c, 0, 74, 64
1, 46919, Note_on_c, 0, 74, 0
1, 46920, Note_on_c, 0, 73, 64
1, 46937, Note_on_c, 1, 43, 0
1, 46937, Note_on_c, 1, 31, 0
1, 46943, Note_on_c, 0, 73, 0
1, 46944, Note_on_c, 0, 71, 64
1, 46967, Note_on_c, 0, 71, 0
1, 46968, Note_on_c, 0, 73, 64
1, 46991, Note_on_c, 0, 73, 0
1, 46992, Note_on_c, 0, 74, 64
1, 47015, Note_on_c, 0, 74, 0
1, 47016, Note_on_c, 0, 73, 64
1, 47039, Note_on_c, 0, 73, 0
1, 47040, Note_on_c, 0, 71, 64
1, 47040, Note_on_c, 1, 65, 64
1, 47040, Note_on_c, 1, 55, 64
1, 47063, Note_on_c, 0, 71, 0
1, 47064, Note_on_c, 0, 73, 64
1, 47087, Note_on_c, 0, 73, 0
1, 47088, Note_on_c, 0, 74, 64
1, 47111, Note_on_c, 0, 74, 0
1, 47112, Note_on_c, 0, 76, 64
1, 47135, Note_on_c, 0, 76, 0
1, 47136, Note_on_c, 0, 78, 64
1, 47159, Note_on_c, 0, 78, 0
1, 47160, Note_on_c, 0, 80, 64
1, 47183, Note_on_c, 0, 80, 0
1, 47184, Note_on_c, 0, 82, 64
1, 47207, Note_on_c, 0, 82, 0
1, 47208, Note_on_c, 0, 83, 64
1, 47217, Note_on_c, 1, 65, 0
1, 47217, Note_on_c, 1, 55, 0
1, 47231, Note_on_c, 0, 83, 0
1, 47232, Note_on_c, 0, 82, 64
1, 47232, Note_on_c, 1, 54, 64
1, 47255, Note_on_c, 0, 82, 0
1, 47256, Note_on_c, 0, 78, 64
1, 47279, Note_on_c, 0, 78, 0
1, 47280, Note_on_c, 0, 77, 64
1, 47303, Note_on_c, 0, 77, 0
1, 47304, Note_on_c, 0, 78, 64
1, 47321, Note_on_c, 1, 54, 0
1, 47327, Note_on_c, 0, 78, 0
1, 47328, Note_on_c, 0, 76, 64
1, 47328, Note_on_c, 1, 70, 64
1, 47351, Note_on_c, 0, 76, 0
1, 47352, Note_on_c, 0, 79, 64
1, 47367, Note_on_c, 1, 70, 0
1, 47375, Note_on_c, 0, 79, 0
1, 47376, Note_on_c, 0, 78, 64
1, 47399, Note_on_c, 0, 78, 0
1, 47400, Note_on_c, 0, 76, 64
1, 47423, Note_on_c, 0, 76, 0
1, 47424, Note_on_c, 0, 74, 64
1, 47424, Note_on_c, 1, 71, 64
1, 47447, Note_on_c, 0, 74, 0
1, 47448, Note_on_c, 0, 78, 64
1, 47463, Note_on_c, 1, 71, 0
1, 47471, Note_on_c, 0, 78, 0
1, 47472, Note_on_c, 0, 76, 64
1, 47495, Note_on_c, 0, 76, 0
1, 47496, Note_on_c, 0, 74, 64
1, 47519, Note_on_c, 0, 74, 0
1, 47520, Note_on_c, 0, 73, 64
1, 47520, Note_on_c, 1, 64, 64
1, 47543, Note_on_c, 0, 73, 0
1, 47544, Note_on_c, 0, 76, 64
1, 47559, Note_on_c, 1, 64, 0
1, 47567, Note_on_c, 0, 76, 0
1, 47568, Note_on_c, 0, 74, 64
1, 47591, Note_on_c, 0, 74, 0
1, 47592, Note_on_c, 0, 73, 64
1, 47615, Note_on_c, 0, 73, 0
1, 47616, Note_on_c, 0, 78, 64
1, 47616, Note_on_c, 1, 62, 64
1, 47639, Note_on_c, 0, 78, 0
1, 47640, Note_on_c, 0, 74, 64
1, 47655, Note_on_c, 1, 62, 0
1, 47663, Note_on_c, 0, 74, 0
1, 47664, Note_on_c, 0, 73, 64
1, 47687, Note_on_c, 0, 73, 0
1, 47688, Note_on_c, 0, 71, 64
1, 47711, Note_on_c, 0, 71, 0
1, 47712, Note_on_c, 0, 79, 64
1, 47712, Note_on_c, 1, 64, 64
1, 47735, Note_on_c, 0, 79, 0
1, 47736, Note_on_c, 0, 76, 64
1, 47751, Note_on_c, 1, 64, 0
1, 47759, Note_on_c, 0, 76, 0
1, 47760, Note_on_c, 0, 74, 64
1, 47783, Note_on_c, 0, 74, 0
1, 47784, Note_on_c, 0, 73, 64
1, 47807, Note_on_c, 0, 73, 0
1, 47808, Note_on_c, 0, 74, 64
1, 47808, Note_on_c, 1, 66, 64
1, 47827, Note_on_c, 0, 74, 0
1, 47828, Note_on_c, 0, 73, 64
1, 47847, Note_on_c, 0, 73, 0
1, 47848, Note_on_c, 0, 74, 64
1, 47866, Note_on_c, 0, 74, 0
1, 47867, Note_on_c, 0, 73, 64
1, 47885, Note_on_c, 0, 73, 0
1, 47886, Note_on_c, 0, 74, 64
1, 47897, Note_on_c, 1, 66, 0
1, 47904, Note_on_c, 0, 74, 0
1, 47904, Note_on_c, 1, 54, 64
1, 47905, Note_on_c, 0, 73, 64
1, 47923, Note_on_c, 0, 73, 0
1, 47924, Note_on_c, 0, 74, 64
1, 47942, Note_on_c, 0, 74, 0
1, 47943, Note_on_c, 0, 73, 64
1, 47961, Note_on_c, 0, 73, 0
1, 47962, Note_on_c, 0, 71, 64
1, 47980, Note_on_c, 0, 71, 0
1, 47981, Note_on_c, 0, 73, 64
1, 47993, Note_on_c, 1, 54, 0
1, 47999, Note_on_c, 0, 73, 0
1, 48000, Note_on_c, 0, 71, 64
1, 48000, Note_on_c, 1, 62, 64
1, 48000, Note_on_c, 1, 59, 64
1, 48023, Note_on_c, 0, 71, 0
1, 48024, Note_on_c, 0, 78, 64
1, 48039, Note_on_c, 1, 62, 0
1, 48039, Note_on_c, 1, 59, 0
1, 48047, Note_on_c, 0, 78, 0
1, 48048, Note_on_c, 0, 74, 64
1, 48071, Note_on_c, 0, 74, 0
1, 48072, Note_on_c, 0, 71, 64
1, 48095, Note_on_c, 0, 71, 0
1, 48096, Note_on_c, 0, 70, 64
1, 48096, Note_on_c, 1, 64, 64
1, 48096, Note_on_c, 1, 54, 64
1, 48119, Note_on_c, 0, 70, 0
1, 48120, Note_on_c, 0, 76, 64
1, 48143, Note_on_c, 0, 76, 0
1, 48144, Note_on_c, 0, 73, 64
1, 48167, Note_on_c, 0, 73, 0
1, 48168, Note_on_c, 0, 70, 64
1, 48185, Note_on_c, 1, 64, 0
1, 48185, Note_on_c, 1, 54, 0
1, 48191, Note_on_c, 0, 70, 0
1, 48192, Note_on_c, 0, 71, 64
1, 48192, Note_on_c, 1, 62, 64
1, 48192, Note_on_c, 1, 59, 64
1, 48215, Note_on_c, 0, 71, 0
1, 48216, Note_on_c, 0, 78, 64
1, 48231, Note_on_c, 1, 62, 0
1, 48231, Note_on_c, 1, 59, 0
1, 48239, Note_on_c, 0, 78, 0
1, 48240, Note_on_c, 0, 74, 64
1, 48263, Note_on_c, 0, 74, 0
1, 48264, Note_on_c, 0, 71, 64
1, 48287, Note_on_c, 0, 71, 0
1, 48288, Note_on_c, 0, 70, 64
1, 48288, Note_on_c, 1, 64, 64
1, 48288, Note_on_c, 1, 54, 64
1, 48311, Note_on_c, 0, 70, 0
1, 48312, Note_on_c, 0, 76, 64
1, 48335, Note_on_c, 0, 76, 0
1, 48336, Note_on_c, 0, 73, 64
1, 48359, Note_on_c, 0, 73, 0
1, 48360, Note_on_c, 0, 70, 64
1, 48377, Note_on_c, 1, 64, 0
1, 48377, Note_on_c, 1, 54, 0
1, 48383, Note_on_c, 0, 70, 0
1, 48384, Note_on_c, 0, 71, 64
1, 48384, Note_on_c, 1, 62, 64
1, 48384, Note_on_c, 1, 59, 64
1, 48407, Note_on_c, 0, 71, 0
1, 48408, Note_on_c, 0, 78, 64
1, 48423, Note_on_c, 1, 62, 0
1, 48423, Note_on_c, 1, 59, 0
1, 48431, Note_on_c, 0, 78, 0
1, 48432, Note_on_c, 0, 74, 64
1, 48455, Note_on_c, 0, 74, 0
1, 48456, Note_on_c, 0, 71, 64
1, 48479, Note_on_c, 0, 71, 0
1, 48480, Note_on_c, 0, 70, 64
1, 48480, Note_on_c, 1, 64, 64
1, 48480, Note_on_c, 1, 54, 64
1, 48503, Note_on_c, 0, 70, 0
1, 48504, Note_on_c, 0, 76, 64
1, 48527, Note_on_c, 0, 76, 0
1, 48528, Note_on_c, 0, 73, 64
1, 48551, Note_on_c, 0, 73, 0
1, 48552, Note_on_c, 0, 70, 64
1, 48569, Note_on_c, 1, 64, 0
1, 48569, Note_on_c, 1, 54, 0
1, 48575, Note_on_c, 0, 70, 0
1, 48576, Note_on_c, 0, 71, 64
1, 48576, Note_on_c, 1, 62, 64
1, 48576, Note_on_c, 1, 59, 64
1, 48599, Note_on_c, 0, 71, 0
1, 48600, Note_on_c, 0, 78, 64
1, 48615, Note_on_c, 1, 62, 0
1, 48615, Note_on_c, 1, 59, 0
1, 48623, Note_on_c, 0, 78, 0
1, 48624, Note_on_c, 0, 74, 64
1, 48647, Note_on_c, 0, 74, 0
1, 48648, Note_on_c, 0, 71, 64
1, 48671, Note_on_c, 0, 71, 0
1, 48672, Note_on_c, 0, 70, 64
1, 48672, Note_on_c, 1, 64, 64
1, 48672, Note_on_c, 1, 54, 64
1, 48695, Note_on_c, 0, 70, 0
1, 48696, Note_on_c, 0, 76, 64
1, 48719, Note_on_c, 0, 76, 0
1, 48720, Note_on_c, 0, 73, 64
1, 48743, Note_on_c, 0, 73, 0
1, 48744, Note_on_c, 0, 70, 64
1, 48761, Note_on_c, 1, 64, 0
1, 48761, Note_on_c, 1, 54, 0
1, 48767, Note_on_c, 0, 70, 0
1, 48768, Note_on_c, 0, 71, 64
1, 48768, Note_on_c, 1, 62, 64
1, 48768, Note_on_c, 1, 59, 64
1, 48807, Note_on_c, 1, 62, 0
1, 48807, Note_on_c, 1, 59, 0
1, 48816, Note_on_c, 0, 74, 64
1, 48861, Note_on_c, 0, 74, 0
1, 48861, Note_on_c, 0, 71, 0
1, 48864, Note_on_c, 0, 74, 64
1, 48864, Note_on_c, 0, 71, 64
1, 48884, Note_on_c, 0, 74, 0
1, 48884, Note_on_c, 0, 71, 0
1, 48912, Note_on_c, 0, 74, 64
1, 48912, Note_on_c, 0, 71, 64
1, 48932, Note_on_c, 0, 74, 0
1, 48932, Note_on_c, 0, 71, 0
1, 48960, Note_on_c, 0, 78, 64
1, 48960, Note_on_c, 0, 74, 64
1, 49008, Note_on_c, 0, 78, 0
1, 49008, Note_on_c, 0, 71, 64
1, 49053, Note_on_c, 0, 74, 0
1, 49053, Note_on_c, 0, 71, 0
1, 49056, Note_on_c, 0, 74, 64
1, 49056, Note_on_c, 0, 71, 64
1, 49076, Note_on_c, 0, 74, 0
1, 49076, Note_on_c, 0, 71, 0
1, 49104, Note_on_c, 0, 74, 64
1, 49104, Note_on_c, 0, 71, 64
1, 49124, Note_on_c, 0, 74, 0
1, 49124, Note_on_c, 0, 71, 0
1, 49152, Note_on_c, 0, 86, 64
1, 49152, Note_on_c, 0, 83, 64
1, 49241, Note_on_c, 0, 86, 0
1, 49241, Note_on_c, 0, 83, 0
1, 49488, Note_on_c, 0, 71, 64
1, 49488, Note_on_c, 0, 59, 64
1, 49488, Note_on_c, 1, 47, 64
1, 49488, Note_on_c, 1, 35, 64
1, 49508, Note_on_c, 0, 71, 0
1, 49508, Note_on_c, 0, 59, 0
1, 49508, Note_on_c, 1, 47, 0
1, 49508, Note_on_c, 1, 35, 0
1, 49536, Note_on_c, 0, 71, 64
1, 49536, Note_on_c, 0, 59, 64
1, 49536, Note_on_c, 1, 47, 64
1, 49536, Note_on_c, 1, 35, 64
1, 49556, Note_on_c, 0, 71, 0
1, 49556, Note_on_c, 0, 59, 0
1, 49556, Note_on_c, 1, 47, 0
1, 49556, Note_on_c, 1, 35, 0
1, 49584, Note_on_c, 0, 71, 64
1, 49584, Note_on_c, 0, 59, 64
1, 49584, Note_on_c, 1, 47, 64
1, 49584, Note_on_c, 1, 35, 64
1, 49604, Note_on_c, 0, 71, 0
1, 49604, Note_on_c, 0, 59, 0
1, 49604, Note_on_c, 1, 47, 0
1, 49604, Note_on_c, 1, 35, 0
1, 49632, Note_on_c, 0, 71, 64
1, 49632, Note_on_c, 0, 59, 64
1, 49632, Note_on_c, 1, 47, 64
1, 49632, Note_on_c, 1, 35, 64
1, 49652, Note_on_c, 0, 71, 0
1, 49652, Note_on_c, 0, 59, 0
1, 49652, Note_on_c, 1, 47, 0
1, 49652, Note_on_c, 1, 35, 0
1, 49680, Note_on_c, 0, 71, 64
1, 49680, Note_on_c, 0, 59, 64
1, 49680, Note_on_c, 1, 47, 64
1, 49680, Note_on_c, 1, 35, 64
1, 49700, Note_on_c, 0, 71, 0
1, 49700, Note_on_c, 0, 59, 0
1, 49700, Note_on_c, 1, 47, 0
1, 49700, Note_on_c, 1, 35, 0
1, 49728, Note_on_c, 0, 74, 64
1, 49728, Note_on_c, 0, 62, 64
1, 49728, Note_on_c, 1, 50, 64
1, 49728, Note_on_c, 1, 38, 64
1, 49773, Note_on_c, 0, 74, 0
1, 49773, Note_on_c, 0, 62, 0
1, 49773, Note_on_c, 1, 50, 0
1, 49773, Note_on_c, 1, 38, 0
1, 49776, Note_on_c, 0, 73, 64
1, 49776, Note_on_c, 0, 61, 64
1, 49776, Note_on_c, 1, 49, 64
1, 49776, Note_on_c, 1, 37, 64
1, 49821, Note_on_c, 0, 73, 0
1, 49821, Note_on_c, 0, 61, 0
1, 49821, Note_on_c, 1, 49, 0
1, 49821, Note_on_c, 1, 37, 0
1, 49824, Note_on_c, 0, 71, 64
1, 49824, Note_on_c, 0, 59, 64
1, 49824, Note_on_c, 1, 47, 64
1, 49824, Note_on_c, 1, 35, 64
1, 49869, Note_on_c, 0, 71, 0
1, 49869, Note_on_c, 0, 59, 0
1, 49869, Note_on_c, 1, 47, 0
1, 49869, Note_on_c, 1, 35, 0
1, 49872, Note_on_c, 0, 79, 64
1, 49872, Note_on_c, 0, 67, 64
1, 49872, Note_on_c, 1, 55, 64
1, 49872, Note_on_c, 1, 43, 64
1, 49892, Note_on_c, 0, 79, 0
1, 49892, Note_on_c, 0, 67, 0
1, 49892, Note_on_c, 1, 55, 0
1, 49892, Note_on_c, 1, 43, 0
1, 49920, Note_on_c, 0, 78, 64
1, 49920, Note_on_c, 0, 66, 64
1, 49920, Note_on_c, 1, 54, 64
1, 49920, Note_on_c, 1, 42, 64
1, 49965, Note_on_c, 0, 78, 0
1, 49965, Note_on_c, 0, 66, 0
1, 49965, Note_on_c, 1, 54, 0
1, 49965, Note_on_c, 1, 42, 0
1, 49968, Note_on_c, 0, 77, 64
1, 49968, Note_on_c, 0, 65, 64
1, 49968, Note_on_c, 1, 53, 64
1, 49968, Note_on_c, 1, 41, 64
1, 50013, Note_on_c, 0, 77, 0
1, 50013, Note_on_c, 0, 65, 0
1, 50013, Note_on_c, 1, 53, 0
1, 50013, Note_on_c, 1, 41, 0
1, 50016, Note_on_c, 0, 78, 64
1, 50016, Note_on_c, 0, 66, 64
1, 50016, Note_on_c, 1, 54, 64
1, 50016, Note_on_c, 1, 42, 64
1, 50061, Note_on_c, 0, 78, 0
1, 50061, Note_on_c, 0, 66, 0
1, 50061, Note_on_c, 1, 54, 0
1, 50061, Note_on_c, 1, 42, 0
1, 50064, Note_on_c, 0, 76, 64
1, 50064, Note_on_c, 0, 64, 64
1, 50064, Note_on_c, 1, 52, 64
1, 50064, Note_on_c, 1, 40, 64
1, 50084, Note_on_c, 0, 76, 0
1, 50084, Note_on_c, 0, 64, 0
1, 50084, Note_on_c, 1, 52, 0
1, 50084, Note_on_c, 1, 40, 0
1, 50112, Note_on_c, 0, 74, 64
1, 50112, Note_on_c, 0, 62, 64
1, 50112, Note_on_c, 1, 50, 64
1, 50112, Note_on_c, 1, 38, 64
1, 50157, Note_on_c, 0, 74, 0
1, 50157, Note_on_c, 0, 62, 0
1, 50157, Note_on_c, 1, 50, 0
1, 50157, Note_on_c, 1, 38, 0
1, 50160, Note_on_c, 0, 73, 64
1, 50160, Note_on_c, 0, 61, 64
1, 50160, Note_on_c, 1, 49, 64
1, 50160, Note_on_c, 1, 37, 64
1, 50205, Note_on_c, 0, 73, 0
1, 50205, Note_on_c, 0, 61, 0
1, 50205, Note_on_c, 1, 49, 0
1, 50205, Note_on_c, 1, 37, 0
1, 50208, Note_on_c, 0, 74, 64
1, 50208, Note_on_c, 0, 62, 64
1, 50208, Note_on_c, 1, 50, 64
1, 50208, Note_on_c, 1, 38, 64
1, 50253, Note_on_c, 0, 74, 0
1, 50253, Note_on_c, 0, 62, 0
1, 50253, Note_on_c, 1, 50, 0
1, 50253, Note_on_c, 1, 38, 0
1, 50256, Note_on_c, 0, 73, 64
1, 50256, Note_on_c, 0, 61, 64
1, 50256, Note_on_c, 1, 49, 64
1, 50256, Note_on_c, 1, 37, 64
1, 50276, Note_on_c, 0, 73, 0
1, 50276, Note_on_c, 0, 61, 0
1, 50276, Note_on_c, 1, 49, 0
1, 50276, Note_on_c, 1, 37, 0
1, 50304, Note_on_c, 0, 71, 64
1, 50304, Note_on_c, 0, 59, 64
1, 50304, Note_on_c, 1, 47, 64
1, 50304, Note_on_c, 1, 35, 64
1, 50349, Note_on_c, 0, 71, 0
1, 50349, Note_on_c, 0, 59, 0
1, 50349, Note_on_c, 1, 47, 0
1, 50349, Note_on_c, 1, 35, 0
1, 50352, Note_on_c, 0, 70, 64
1, 50352, Note_on_c, 0, 58, 64
1, 50352, Note_on_c, 1, 46, 64
1, 50352, Note_on_c, 1, 34, 64
1, 50397, Note_on_c, 0, 70, 0
1, 50397, Note_on_c, 0, 58, 0
1, 50397, Note_on_c, 1, 46, 0
1, 50397, Note_on_c, 1, 34, 0
1, 50400, Note_on_c, 0, 71, 64
1, 50400, Note_on_c, 0, 59, 64
1, 50400, Note_on_c, 1, 47, 64
1, 50400, Note_on_c, 1, 35, 64
1, 50445, Note_on_c, 0, 71, 0
1, 50445, Note_on_c, 0, 59, 0
1, 50445, Note_on_c, 1, 47, 0
1, 50445, Note_on_c, 1, 35, 0
1, 50448, Note_on_c, 0, 69, 64
1, 50448, Note_on_c, 0, 57, 64
1, 50448, Note_on_c, 1, 45, 64
1, 50448, Note_on_c, 1, 33, 64
1, 50468, Note_on_c, 0, 69, 0
1, 50468, Note_on_c, 0, 57, 0
1, 50468, Note_on_c, 1, 45, 0
1, 50468, Note_on_c, 1, 33, 0
1, 50496, Note_on_c, 0, 67, 64
1, 50496, Note_on_c, 0, 55, 64
1, 50496, Note_on_c, 1, 43, 64
1, 50496, Note_on_c, 1, 31, 64
1, 50585, Note_on_c, 0, 67, 0
1, 50585, Note_on_c, 0, 55, 0
1, 50585, Note_on_c, 1, 43, 0
1, 50585, Note_on_c, 1, 31, 0
1, 50688, Note_on_c, 1, 58, 64
1, 50688, Note_on_c, 1, 52, 64
1, 50688, Note_on_c, 1, 49, 64
1, 50688, Note_on_c, 1, 42, 64
1, 50777, Note_on_c, 1, 58, 0
1, 50777, Note_on_c, 1, 52, 0
1, 50777, Note_on_c, 1, 49, 0
1, 50777, Note_on_c, 1, 42, 0
1, 50880, Note_on_c, 1, 59, 64
1, 50880, Note_on_c, 1, 54, 64
1, 50880, Note_on_c, 1, 50, 64
1, 50880, Note_on_c, 1, 47, 64
1, 50880, Note_on_c, 1, 35, 64
1, 50969, Note_on_c, 1, 59, 0
1, 50969, Note_on_c, 1, 54, 0
1, 50969, Note_on_c, 1, 50, 0
1, 50969, Note_on_c, 1, 47, 0
1, 50969, Note_on_c, 1, 35, 0
1, 51216, Note_on_c, 0, 57, 64
1, 51261, Note_on_c, 0, 57, 0
1, 51264, Note_on_c, 0, 57, 64
1, 51284, Note_on_c, 0, 57, 0
1, 51312, Note_on_c, 0, 57, 64
1, 51332, Note_on_c, 0, 57, 0
1, 51360, Note_on_c, 0, 57, 64
1, 51380, Note_on_c, 0, 57, 0
1, 51408, Note_on_c, 0, 57, 64
1, 51428, Note_on_c, 0, 57, 0
1, 51456, Note_on_c, 0, 66, 64
1, 51501, Note_on_c, 0, 66, 0
1, 51504, Note_on_c, 0, 64, 64
1, 51549, Note_on_c, 0, 64, 0
1, 51552, Note_on_c, 0, 63, 64
1, 51597, Note_on_c, 0, 63, 0
1, 51600, Note_on_c, 0, 72, 64
1, 51600, Note_on_c, 1, 47, 64
1, 51620, Note_on_c, 0, 72, 0
1, 51620, Note_on_c, 1, 47, 0
1, 51648, Note_on_c, 0, 71, 64
1, 51648, Note_on_c, 1, 47, 64
1, 51668, Note_on_c, 1, 47, 0
1, 51693, Note_on_c, 0, 71, 0
1, 51696, Note_on_c, 0, 69, 64
1, 51696, Note_on_c, 1, 47, 64
1, 51716, Note_on_c, 1, 47, 0
1, 51741, Note_on_c, 0, 69, 0
1, 51744, Note_on_c, 0, 67, 64
1, 51744, Note_on_c, 1, 47, 64
1, 51764, Note_on_c, 1, 47, 0
1, 51789, Note_on_c, 0, 67, 0
1, 51792, Note_on_c, 0, 66, 64
1, 51792, Note_on_c, 1, 47, 64
1, 51812, Note_on_c, 0, 66, 0
1, 51812, Note_on_c, 1, 47, 0
1, 51840, Note_on_c, 0, 64, 64
1, 51840, Note_on_c, 1, 55, 64
1, 51885, Note_on_c, 1, 55, 0
1, 51888, Note_on_c, 1, 54, 64
1, 51929, Note_on_c, 0, 64, 0
1, 51933, Note_on_c, 1, 54, 0
1, 51936, Note_on_c, 1, 52, 64
1, 51981, Note_on_c, 1, 52, 0
1, 51984, Note_on_c, 0, 76, 64
1, 51984, Note_on_c, 1, 60, 64
1, 52004, Note_on_c, 0, 76, 0
1, 52004, Note_on_c, 1, 60, 0
1, 52032, Note_on_c, 0, 76, 64
1, 52032, Note_on_c, 1, 59, 64
1, 52052, Note_on_c, 0, 76, 0
1, 52077, Note_on_c, 1, 59, 0
1, 52080, Note_on_c, 0, 76, 64
1, 52080, Note_on_c, 1, 57, 64
1, 52100, Note_on_c, 0, 76, 0
1, 52125, Note_on_c, 1, 57, 0
1, 52128, Note_on_c, 0, 76, 64
1, 52128, Note_on_c, 1, 55, 64
1, 52148, Note_on_c, 0, 76, 0
1, 52173, Note_on_c, 1, 55, 0
1, 52176, Note_on_c, 0, 76, 64
1, 52176, Note_on_c, 1, 54, 64
1, 52196, Note_on_c, 0, 76, 0
1, 52196, Note_on_c, 1, 54, 0
1, 52224, Note_on_c, 0, 79, 64
1, 52224, Note_on_c, 1, 52, 64
1, 52269, Note_on_c, 0, 79, 0
1, 52272, Note_on_c, 0, 78, 64
1, 52313, Note_on_c, 1, 52, 0
1, 52317, Note_on_c, 0, 78, 0
1, 52320, Note_on_c, 0, 76, 64
1, 52365, Note_on_c, 0, 76, 0
1, 52368, Note_on_c, 0, 84, 64
1, 52368, Note_on_c, 1, 64, 64
1, 52388, Note_on_c, 0, 84, 0
1, 52388, Note_on_c, 1, 64, 0
1, 52416, Note_on_c, 0, 83, 64
1, 52416, Note_on_c, 1, 64, 64
1, 52436, Note_on_c, 1, 64, 0
1, 52461, Note_on_c, 0, 83, 0
1, 52464, Note_on_c, 0, 81, 64
1, 52464, Note_on_c, 1, 64, 64
1, 52484, Note_on_c, 1, 64, 0
1, 52509, Note_on_c, 0, 81, 0
1, 52512, Note_on_c, 0, 79, 64
1, 52512, Note_on_c, 1, 64, 64
1, 52532, Note_on_c, 1, 64, 0
1, 52557, Note_on_c, 0, 79, 0
1, 52560, Note_on_c, 0, 78, 64
1, 52560, Note_on_c, 1, 64, 64
1, 52580, Note_on_c, 0, 78, 0
1, 52580, Note_on_c, 1, 64, 0
1, 52608, Note_on_c, 0, 76, 64
1, 52608, Note_on_c, 1, 67, 64
1, 52653, Note_on_c, 1, 67, 0
1, 52656, Note_on_c, 1, 66, 64
1, 52697, Note_on_c, 0, 76, 0
1, 52701, Note_on_c, 1, 66, 0
1, 52704, Note_on_c, 1, 64, 64
1, 52749, Note_on_c, 1, 64, 0
1, 52752, Note_on_c, 0, 88, 64
1, 52752, Note_on_c, 1, 72, 64
1, 52772, Note_on_c, 0, 88, 0
1, 52797, Note_on_c, 1, 72, 0
1, 52800, Note_on_c, 0, 86, 64
1, 52800, Note_on_c, 1, 71, 64
1, 52845, Note_on_c, 0, 86, 0
1, 52845, Note_on_c, 1, 71, 0
1, 52848, Note_on_c, 0, 84, 64
1, 52848, Note_on_c, 1, 69, 64
1, 52893, Note_on_c, 0, 84, 0
1, 52893, Note_on_c, 1, 69, 0
1, 52896, Note_on_c, 0, 83, 64
1, 52896, Note_on_c, 1, 67, 64
1, 52941, Note_on_c, 0, 83, 0
1, 52941, Note_on_c, 1, 67, 0
1, 52944, Note_on_c, 0, 81, 64
1, 52944, Note_on_c, 1, 66, 64
1, 52964, Note_on_c, 0, 81, 0
1, 52964, Note_on_c, 1, 66, 0
1, 52992, Note_on_c, 0, 79, 64
1, 52992, Note_on_c, 1, 64, 64
1, 53040, Note_on_c, 1, 71, 64
1, 53060, Note_on_c, 1, 71, 0
1, 53081, Note_on_c, 0, 79, 0
1, 53088, Note_on_c, 1, 71, 64
1, 53108, Note_on_c, 1, 71, 0
1, 53136, Note_on_c, 1, 71, 64
1, 53156, Note_on_c, 1, 71, 0
1, 53169, Note_on_c, 1, 64, 0
1, 53184, Note_on_c, 1, 64, 64
1, 53184, Note_on_c, 1, 70, 64
1, 53232, Note_on_c, 0, 85, 64
1, 53252, Note_on_c, 0, 85, 0
1, 53280, Note_on_c, 0, 85, 64
1, 53300, Note_on_c, 0, 85, 0
1, 53328, Note_on_c, 0, 85, 64
1, 53348, Note_on_c, 0, 85, 0
1, 53361, Note_on_c, 1, 64, 0
1, 53361, Note_on_c, 1, 70, 0
1, 53376, Note_on_c, 0, 78, 64
1, 53376, Note_on_c, 1, 63, 64
1, 53424, Note_on_c, 1, 69, 64
1, 53444, Note_on_c, 1, 69, 0
1, 53472, Note_on_c, 1, 69, 64
1, 53492, Note_on_c, 1, 69, 0
1, 53520, Note_on_c, 1, 69, 64
1, 53540, Note_on_c, 1, 69, 0
1, 53553, Note_on_c, 0, 78, 0
1, 53553, Note_on_c, 1, 63, 0
1, 53568, Note_on_c, 1, 62, 64
1, 53568, Note_on_c, 1, 68, 64
1, 53616, Note_on_c, 0, 83, 64
1, 53636, Note_on_c, 0, 83, 0
1, 53664, Note_on_c, 0, 83, 64
1, 53684, Note_on_c, 0, 83, 0
1, 53712, Note_on_c, 0, 83, 64
1, 53732, Note_on_c, 0, 83, 0
1, 53745, Note_on_c, 1, 62, 0
1, 53745, Note_on_c, 1, 68, 0
1, 53760, Note_on_c, 0, 76, 64
1, 53760, Note_on_c, 1, 61, 64
1, 53808, Note_on_c, 1, 67, 64
1, 53828, Note_on_c, 1, 67, 0
1, 53856, Note_on_c, 1, 67, 64
1, 53876, Note_on_c, 1, 67, 0
1, 53904, Note_on_c, 1, 67, 64
1, 53924, Note_on_c, 1, 67, 0
1, 53937, Note_on_c, 0, 76, 0
1, 53937, Note_on_c, 1, 61, 0
1, 53952, Note_on_c, 1, 60, 64
1, 53952, Note_on_c, 1, 66, 64
1, 54000, Note_on_c, 0, 81, 64
1, 54020, Note_on_c, 0, 81, 0
1, 54048, Note_on_c, 0, 81, 64
1, 54068, Note_on_c, 0, 81, 0
1, 54096, Note_on_c, 0, 81, 64
1, 54116, Note_on_c, 0, 81, 0
1, 54129, Note_on_c, 1, 60, 0
1, 54129, Note_on_c, 1, 66, 0
1, 54144, Note_on_c, 0, 74, 64
1, 54144, Note_on_c, 1, 67, 64
1, 54144, Note_on_c, 1, 59, 64
1, 54192, Note_on_c, 0, 74, 0
1, 54192, Note_on_c, 0, 86, 64
1, 54212, Note_on_c, 0, 86, 0
1, 54240, Note_on_c, 0, 86, 64
1, 54260, Note_on_c, 0, 86, 0
1, 54288, Note_on_c, 0, 86, 64
1, 54308, Note_on_c, 0, 86, 0
1, 54321, Note_on_c, 1, 67, 0
1, 54321, Note_on_c, 1, 59, 0
1, 54336, Note_on_c, 0, 72, 64
1, 54336, Note_on_c, 1, 69, 64
1, 54336, Note_on_c, 1, 57, 64
1, 54384, Note_on_c, 0, 72, 0
1, 54384, Note_on_c, 0, 84, 64
1, 54384, Note_on_c, 0, 78, 64
1, 54404, Note_on_c, 0, 84, 0
1, 54404, Note_on_c, 0, 78, 0
1, 54432, Note_on_c, 0, 84, 64
1, 54432, Note_on_c, 0, 78, 64
1, 54452, Note_on_c, 0, 84, 0
1, 54452, Note_on_c, 0, 78, 0
1, 54480, Note_on_c, 0, 84, 64
1, 54480, Note_on_c, 0, 78, 64
1, 54500, Note_on_c, 0, 84, 0
1, 54500, Note_on_c, 0, 78, 0
1, 54513, Note_on_c, 1, 69, 0
1, 54513, Note_on_c, 1, 57, 0
1, 54528, Note_on_c, 0, 83, 64
1, 54528, Note_on_c, 0, 79, 64
1, 54528, Note_on_c, 1, 67, 64
1, 54528, Note_on_c, 1, 55, 64
1, 54617, Note_on_c, 0, 83, 0
1, 54617, Note_on_c, 0, 79, 0
1, 54617, Note_on_c, 1, 67, 0
1, 54617, Note_on_c, 1, 55, 0
1, 54672, Note_on_c, 0, 67, 64
1, 54692, Note_on_c, 0, 67, 0
1, 54720, Note_on_c, 0, 67, 64
1, 54740, Note_on_c, 0, 67, 0
1, 54768, Note_on_c, 0, 67, 64
1, 54788, Note_on_c, 0, 67, 0
1, 54816, Note_on_c, 0, 67, 64
1, 54836, Note_on_c, 0, 67, 0
1, 54864, Note_on_c, 0, 67, 64
1, 54884, Note_on_c, 0, 67, 0
1, 54912, Note_on_c, 0, 71, 64
1, 54957, Note_on_c, 0, 71, 0
1, 54960, Note_on_c, 0, 69, 64
1, 55005, Note_on_c, 0, 69, 0
1, 55008, Note_on_c, 0, 67, 64
1, 55053, Note_on_c, 0, 67, 0
1, 55056, Note_on_c, 0, 76, 64
1, 55056, Note_on_c, 1, 71, 64
1, 55056, Note_on_c, 1, 67, 64
1, 55076, Note_on_c, 0, 76, 0
1, 55076, Note_on_c, 1, 71, 0
1, 55076, Note_on_c, 1, 67, 0
1, 55104, Note_on_c, 0, 74, 64
1, 55104, Note_on_c, 1, 69, 64
1, 55104, Note_on_c, 1, 66, 64
1, 55149, Note_on_c, 0, 74, 0
1, 55152, Note_on_c, 0, 73, 64
1, 55197, Note_on_c, 0, 73, 0
1, 55200, Note_on_c, 0, 74, 64
1, 55237, Note_on_c, 1, 69, 0
1, 55237, Note_on_c, 1, 66, 0
1, 55245, Note_on_c, 0, 74, 0
1, 55248, Note_on_c, 0, 76, 64
1, 55248, Note_on_c, 1, 71, 64
1, 55248, Note_on_c, 1, 67, 64
1, 55268, Note_on_c, 0, 76, 0
1, 55268, Note_on_c, 1, 71, 0
1, 55268, Note_on_c, 1, 67, 0
1, 55296, Note_on_c, 0, 74, 64
1, 55296, Note_on_c, 1, 69, 64
1, 55296, Note_on_c, 1, 66, 64
1, 55341, Note_on_c, 0, 74, 0
1, 55344, Note_on_c, 0, 73, 64
1, 55389, Note_on_c, 0, 73, 0
1, 55392, Note_on_c, 0, 74, 64
1, 55429, Note_on_c, 1, 69, 0
1, 55429, Note_on_c, 1, 66, 0
1, 55437, Note_on_c, 0, 74, 0
1, 55440, Note_on_c, 0, 76, 64
1, 55440, Note_on_c, 1, 71, 64
1, 55440, Note_on_c, 1, 67, 64
1, 55460, Note_on_c, 0, 76, 0
1, 55460, Note_on_c, 1, 71, 0
1, 55460, Note_on_c, 1, 67, 0
1, 55488, Note_on_c, 0, 74, 64
1, 55488, Note_on_c, 1, 69, 64
1, 55488, Note_on_c, 1, 66, 64
1, 55533, Note_on_c, 0, 74, 0
1, 55536, Note_on_c, 0, 73, 64
1, 55577, Note_on_c, 1, 69, 0
1, 55577, Note_on_c, 1, 66, 0
1, 55581, Note_on_c, 0, 73, 0
1, 55584, Note_on_c, 0, 74, 64
1, 55629, Note_on_c, 0, 74, 0
1, 56016, Note_on_c, 1, 54, 64
1, 56036, Note_on_c, 1, 54, 0
1, 56064, Note_on_c, 1, 54, 64
1, 56084, Note_on_c, 1, 54, 0
1, 56112, Note_on_c, 1, 54, 64
1, 56132, Note_on_c, 1, 54, 0
1, 56160, Note_on_c, 1, 54, 64
1, 56180, Note_on_c, 1, 54, 0
1, 56208, Note_on_c, 1, 54, 64
1, 56228, Note_on_c, 1, 54, 0
1, 56256, Note_on_c, 1, 57, 64
1, 56301, Note_on_c, 1, 57, 0
1, 56304, Note_on_c, 1, 56, 64
1, 56349, Note_on_c, 1, 56, 0
1, 56352, Note_on_c, 1, 54, 64
1, 56397, Note_on_c, 1, 54, 0
1, 56400, Note_on_c, 0, 68, 64
1, 56400, Note_on_c, 1, 62, 64
1, 56420, Note_on_c, 0, 68, 0
1, 56420, Note_on_c, 1, 62, 0
1, 56448, Note_on_c, 0, 68, 64
1, 56448, Note_on_c, 1, 61, 64
1, 56468, Note_on_c, 0, 68, 0
1, 56493, Note_on_c, 1, 61, 0
1, 56496, Note_on_c, 0, 68, 64
1, 56496, Note_on_c, 1, 59, 64
1, 56516, Note_on_c, 0, 68, 0
1, 56541, Note_on_c, 1, 59, 0
1, 56544, Note_on_c, 0, 68, 64
1, 56544, Note_on_c, 1, 57, 64
1, 56564, Note_on_c, 0, 68, 0
1, 56589, Note_on_c, 1, 57, 0
1, 56592, Note_on_c, 0, 68, 64
1, 56592, Note_on_c, 1, 56, 64
1, 56612, Note_on_c, 0, 68, 0
1, 56612, Note_on_c, 1, 56, 0
1, 56640, Note_on_c, 0, 71, 64
1, 56640, Note_on_c, 1, 54, 64
1, 56685, Note_on_c, 0, 71, 0
1, 56688, Note_on_c, 0, 69, 64
1, 56733, Note_on_c, 0, 69, 0
1, 56736, Note_on_c, 0, 68, 64
1, 56781, Note_on_c, 0, 68, 0
1, 56784, Note_on_c, 0, 74, 64
1, 56784, Note_on_c, 1, 61, 64
1, 56804, Note_on_c, 0, 74, 0
1, 56804, Note_on_c, 1, 61, 0
1, 56817, Note_on_c, 1, 54, 0
1, 56832, Note_on_c, 0, 73, 64
1, 56832, Note_on_c, 1, 53, 64
1, 56832, Note_on_c, 1, 61, 64
1, 56852, Note_on_c, 1, 61, 0
1, 56877, Note_on_c, 0, 73, 0
1, 56880, Note_on_c, 0, 71, 64
1, 56880, Note_on_c, 1, 61, 64
1, 56900, Note_on_c, 1, 61, 0
1, 56925, Note_on_c, 0, 71, 0
1, 56928, Note_on_c, 0, 69, 64
1, 56928, Note_on_c, 1, 61, 64
1, 56948, Note_on_c, 1, 61, 0
1, 56973, Note_on_c, 0, 69, 0
1, 56976, Note_on_c, 0, 68, 64
1, 56976, Note_on_c, 1, 61, 64
1, 56996, Note_on_c, 0, 68, 0
1, 56996, Note_on_c, 1, 61, 0
1, 57009, Note_on_c, 1, 53, 0
1, 57024, Note_on_c, 0, 69, 64
1, 57024, Note_on_c, 0, 69, 64
1, 57024, Note_on_c, 1, 54, 64
1, 57069, Note_on_c, 0, 69, 0
1, 57072, Note_on_c, 0, 68, 64
1, 57113, Note_on_c, 0, 69, 0
1, 57113, Note_on_c, 1, 54, 0
1, 57117, Note_on_c, 0, 68, 0
1, 57120, Note_on_c, 0, 66, 64
1, 57165, Note_on_c, 0, 66, 0
1, 57168, Note_on_c, 0, 74, 64
1, 57188, Note_on_c, 0, 74, 0
1, 57216, Note_on_c, 0, 78, 64
1, 57216, Note_on_c, 0, 73, 64
1, 57236, Note_on_c, 0, 78, 0
1, 57261, Note_on_c, 0, 73, 0
1, 57264, Note_on_c, 0, 78, 64
1, 57264, Note_on_c, 0, 71, 64
1, 57284, Note_on_c, 0, 78, 0
1, 57309, Note_on_c, 0, 71, 0
1, 57312, Note_on_c, 0, 78, 64
1, 57312, Note_on_c, 0, 69, 64
1, 57332, Note_on_c, 0, 78, 0
1, 57357, Note_on_c, 0, 69, 0
1, 57360, Note_on_c, 0, 78, 64
1, 57360, Note_on_c, 0, 68, 64
1, 57380, Note_on_c, 0, 78, 0
1, 57380, Note_on_c, 0, 68, 0
1, 57408, Note_on_c, 0, 81, 64
1, 57408, Note_on_c, 0, 66, 64
1, 57453, Note_on_c, 0, 81, 0
1, 57456, Note_on_c, 0, 80, 64
1, 57501, Note_on_c, 0, 80, 0
1, 57504, Note_on_c, 0, 78, 64
1, 57549, Note_on_c, 0, 78, 0
1, 57552, Note_on_c, 0, 86, 64
1, 57552, Note_on_c, 0, 73, 64
1, 57572, Note_on_c, 0, 86, 0
1, 57572, Note_on_c, 0, 73, 0
1, 57585, Note_on_c, 0, 66, 0
1, 57600, Note_on_c, 0, 85, 64
1, 57600, Note_on_c, 0, 73, 64
1, 57600, Note_on_c, 0, 65, 64
1, 57620, Note_on_c, 0, 73, 0
1, 57645, Note_on_c, 0, 85, 0
1, 57648, Note_on_c, 0, 83, 64
1, 57648, Note_on_c, 0, 73, 64
1, 57668, Note_on_c, 0, 73, 0
1, 57693, Note_on_c, 0, 83, 0
1, 57696, Note_on_c, 0, 81, 64
1, 57696, Note_on_c, 0, 73, 64
1, 57716, Note_on_c, 0, 73, 0
1, 57741, Note_on_c, 0, 81, 0
1, 57744, Note_on_c, 0, 80, 64
1, 57744, Note_on_c, 0, 73, 64
1, 57764, Note_on_c, 0, 80, 0
1, 57764, Note_on_c, 0, 73, 0
1, 57777, Note_on_c, 0, 65, 0
1, 57792, Note_on_c, 0, 78, 64
1, 57792, Note_on_c, 0, 73, 64
1, 57792, Note_on_c, 0, 66, 64
1, 57815, Note_on_c, 0, 78, 0
1, 57816, Note_on_c, 0, 80, 64
1, 57839, Note_on_c, 0, 80, 0
1, 57840, Note_on_c, 0, 81, 64
1, 57863, Note_on_c, 0, 81, 0
1, 57864, Note_on_c, 0, 80, 64
1, 57881, Note_on_c, 0, 73, 0
1, 57881, Note_on_c, 0, 66, 0
1, 57887, Note_on_c, 0, 80, 0
1, 57888, Note_on_c, 0, 78, 64
1, 57911, Note_on_c, 0, 78, 0
1, 57912, Note_on_c, 0, 80, 64
1, 57935, Note_on_c, 0, 80, 0
1, 57936, Note_on_c, 0, 81, 64
1, 57936, Note_on_c, 1, 66, 64
1, 57936, Note_on_c, 1, 54, 64
1, 57956, Note_on_c, 1, 66, 0
1, 57956, Note_on_c, 1, 54, 0
1, 57959, Note_on_c, 0, 81, 0
1, 57960, Note_on_c, 0, 80, 64
1, 57983, Note_on_c, 0, 80, 0
1, 57984, Note_on_c, 0, 78, 64
1, 57984, Note_on_c, 1, 64, 64
1, 57984, Note_on_c, 1, 52, 64
1, 58004, Note_on_c, 1, 64, 0
1, 58004, Note_on_c, 1, 52, 0
1, 58007, Note_on_c, 0, 78, 0
1, 58008, Note_on_c, 0, 80, 64
1, 58031, Note_on_c, 0, 80, 0
1, 58032, Note_on_c, 0, 81, 64
1, 58032, Note_on_c, 1, 62, 64
1, 58032, Note_on_c, 1, 50, 64
1, 58052, Note_on_c, 1, 62, 0
1, 58052, Note_on_c, 1, 50, 0
1, 58055, Note_on_c, 0, 81, 0
1, 58056, Note_on_c, 0, 80, 64
1, 58079, Note_on_c, 0, 80, 0
1, 58080, Note_on_c, 0, 78, 64
1, 58080, Note_on_c, 1, 61, 64
1, 58080, Note_on_c, 1, 49, 64
1, 58100, Note_on_c, 1, 61, 0
1, 58100, Note_on_c, 1, 49, 0
1, 58103, Note_on_c, 0, 78, 0
1, 58104, Note_on_c, 0, 80, 64
1, 58127, Note_on_c, 0, 80, 0
1, 58128, Note_on_c, 0, 81, 64
1, 58128, Note_on_c, 1, 59, 64
1, 58128, Note_on_c, 1, 47, 64
1, 58148, Note_on_c, 1, 59, 0
1, 58148, Note_on_c, 1, 47, 0
1, 58151, Note_on_c, 0, 81, 0
1, 58152, Note_on_c, 0, 80, 64
1, 58175, Note_on_c, 0, 80, 0
1, 58176, Note_on_c, 0, 78, 64
1, 58176, Note_on_c, 1, 57, 64
1, 58176, Note_on_c, 1, 45, 64
1, 58199, Note_on_c, 0, 78, 0
1, 58200, Note_on_c, 0, 80, 64
1, 58223, Note_on_c, 0, 80, 0
1, 58224, Note_on_c, 0, 81, 64
1, 58247, Note_on_c, 0, 81, 0
1, 58248, Note_on_c, 0, 80, 64
1, 58265, Note_on_c, 1, 57, 0
1, 58265, Note_on_c, 1, 45, 0
1, 58271, Note_on_c, 0, 80, 0
1, 58272, Note_on_c, 0, 78, 64
1, 58295, Note_on_c, 0, 78, 0
1, 58296, Note_on_c, 0, 80, 64
1, 58319, Note_on_c, 0, 80, 0
1, 58320, Note_on_c, 0, 81, 64
1, 58320, Note_on_c, 1, 62, 64
1, 58320, Note_on_c, 1, 50, 64
1, 58340, Note_on_c, 1, 62, 0
1, 58340, Note_on_c, 1, 50, 0
1, 58343, Note_on_c, 0, 81, 0
1, 58344, Note_on_c, 0, 80, 64
1, 58367, Note_on_c, 0, 80, 0
1, 58368, Note_on_c, 0, 78, 64
1, 58368, Note_on_c, 1, 61, 64
1, 58368, Note_on_c, 1, 49, 64
1, 58388, Note_on_c, 1, 61, 0
1, 58388, Note_on_c, 1, 49, 0
1, 58391, Note_on_c, 0, 78, 0
1, 58392, Note_on_c, 0, 80, 64
1, 58415, Note_on_c, 0, 80, 0
1, 58416, Note_on_c, 0, 81, 64
1, 58416, Note_on_c, 1, 59, 64
1, 58416, Note_on_c, 1, 47, 64
1, 58436, Note_on_c, 1, 59, 0
1, 58436, Note_on_c, 1, 47, 0
1, 58439, Note_on_c, 0, 81, 0
1, 58440, Note_on_c, 0, 80, 64
1, 58463, Note_on_c, 0, 80, 0
1, 58464, Note_on_c, 0, 78, 64
1, 58464, Note_on_c, 1, 57, 64
1, 58464, Note_on_c, 1, 45, 64
1, 58484, Note_on_c, 1, 57, 0
1, 58484, Note_on_c, 1, 45, 0
1, 58487, Note_on_c, 0, 78, 0
1, 58488, Note_on_c, 0, 80, 64
1, 58511, Note_on_c, 0, 80, 0
1, 58512, Note_on_c, 0, 81, 64
1, 58512, Note_on_c, 1, 56, 64
1, 58512, Note_on_c, 1, 44, 64
1, 58532, Note_on_c, 1, 56, 0
1, 58532, Note_on_c, 1, 44, 0
1, 58535, Note_on_c, 0, 81, 0
1, 58536, Note_on_c, 0, 80, 64
1, 58559, Note_on_c, 0, 80, 0
1, 58560, Note_on_c, 0, 78, 64
1, 58560, Note_on_c, 1, 54, 64
1, 58560, Note_on_c, 1, 42, 64
1, 58583, Note_on_c, 0, 78, 0
1, 58584, Note_on_c, 0, 80, 64
1, 58607, Note_on_c, 0, 80, 0
1, 58608, Note_on_c, 0, 81, 64
1, 58631, Note_on_c, 0, 81, 0
1, 58632, Note_on_c, 0, 80, 64
1, 58649, Note_on_c, 1, 54, 0
1, 58649, Note_on_c, 1, 42, 0
1, 58655, Note_on_c, 0, 80, 0
1, 58656, Note_on_c, 0, 78, 64
1, 58679, Note_on_c, 0, 78, 0
1, 58680, Note_on_c, 0, 80, 64
1, 58703, Note_on_c, 0, 80, 0
1, 58704, Note_on_c, 0, 81, 64
1, 58727, Note_on_c, 0, 81, 0
1, 58728, Note_on_c, 0, 80, 64
1, 58751, Note_on_c, 0, 80, 0
1, 58752, Note_on_c, 0, 78, 64
1, 58775, Note_on_c, 0, 78, 0
1, 58776, Note_on_c, 0, 80, 64
1, 58799, Note_on_c, 0, 80, 0
1, 58800, Note_on_c, 0, 81, 64
1, 58823, Note_on_c, 0, 81, 0
1, 58824, Note_on_c, 0, 80, 64
1, 58847, Note_on_c, 0, 80, 0
1, 58848, Note_on_c, 0, 78, 64
1, 58871, Note_on_c, 0, 78, 0
1, 58872, Note_on_c, 0, 76, 64
1, 58895, Note_on_c, 0, 76, 0
1, 58896, Note_on_c, 0, 75, 64
1, 58919, Note_on_c, 0, 75, 0
1, 58920, Note_on_c, 0, 73, 64
1, 58943, Note_on_c, 0, 73, 0
1, 58944, Note_on_c, 0, 72, 64
1, 58944, Note_on_c, 1, 68, 64
1, 58944, Note_on_c, 1, 66, 64
1, 58964, Note_on_c, 1, 68, 0
1, 58964, Note_on_c, 1, 66, 0
1, 58967, Note_on_c, 0, 72, 0
1, 58968, Note_on_c, 0, 73, 64
1, 58991, Note_on_c, 0, 73, 0
1, 58992, Note_on_c, 0, 75, 64
1, 58992, Note_on_c, 1, 68, 64
1, 58992, Note_on_c, 1, 66, 64
1, 59012, Note_on_c, 1, 68, 0
1, 59012, Note_on_c, 1, 66, 0
1, 59015, Note_on_c, 0, 75, 0
1, 59016, Note_on_c, 0, 73, 64
1, 59039, Note_on_c, 0, 73, 0
1, 59040, Note_on_c, 0, 72, 64
1, 59040, Note_on_c, 1, 68, 64
1, 59040, Note_on_c, 1, 66, 64
1, 59060, Note_on_c, 1, 68, 0
1, 59060, Note_on_c, 1, 66, 0
1, 59063, Note_on_c, 0, 72, 0
1, 59064, Note_on_c, 0, 73, 64
1, 59087, Note_on_c, 0, 73, 0
1, 59088, Note_on_c, 0, 75, 64
1, 59088, Note_on_c, 1, 68, 64
1, 59088, Note_on_c, 1, 66, 64
1, 59108, Note_on_c, 1, 68, 0
1, 59108, Note_on_c, 1, 66, 0
1, 59111, Note_on_c, 0, 75, 0
1, 59112, Note_on_c, 0, 73, 64
1, 59135, Note_on_c, 0, 73, 0
1, 59136, Note_on_c, 0, 72, 64
1, 59136, Note_on_c, 1, 68, 64
1, 59136, Note_on_c, 1, 66, 64
1, 59159, Note_on_c, 0, 72, 0
1, 59160, Note_on_c, 0, 81, 64
1, 59183, Note_on_c, 0, 81, 0
1, 59184, Note_on_c, 0, 80, 64
1, 59207, Note_on_c, 0, 80, 0
1, 59208, Note_on_c, 0, 78, 64
1, 59225, Note_on_c, 1, 68, 0
1, 59225, Note_on_c, 1, 66, 0
1, 59231, Note_on_c, 0, 78, 0
1, 59232, Note_on_c, 0, 76, 64
1, 59255, Note_on_c, 0, 76, 0
1, 59256, Note_on_c, 0, 75, 64
1, 59279, Note_on_c, 0, 75, 0
1, 59280, Note_on_c, 0, 73, 64
1, 59303, Note_on_c, 0, 73, 0
1, 59304, Note_on_c, 0, 72, 64
1, 59327, Note_on_c, 0, 72, 0
1, 59328, Note_on_c, 0, 73, 64
1, 59328, Note_on_c, 1, 68, 64
1, 59328, Note_on_c, 1, 64, 64
1, 59348, Note_on_c, 1, 68, 0
1, 59348, Note_on_c, 1, 64, 0
1, 59351, Note_on_c, 0, 73, 0
1, 59352, Note_on_c, 0, 75, 64
1, 59375, Note_on_c, 0, 75, 0
1, 59376, Note_on_c, 0, 76, 64
1, 59376, Note_on_c, 1, 68, 64
1, 59376, Note_on_c, 1, 64, 64
1, 59396, Note_on_c, 1, 68, 0
1, 59396, Note_on_c, 1, 64, 0
1, 59399, Note_on_c, 0, 76, 0
1, 59400, Note_on_c, 0, 75, 64
1, 59423, Note_on_c, 0, 75, 0
1, 59424, Note_on_c, 0, 73, 64
1, 59424, Note_on_c, 1, 68, 64
1, 59424, Note_on_c, 1, 64, 64
1, 59444, Note_on_c, 1, 68, 0
1, 59444, Note_on_c, 1, 64, 0
1, 59447, Note_on_c, 0, 73, 0
1, 59448, Note_on_c, 0, 75, 64
1, 59471, Note_on_c, 0, 75, 0
1, 59472, Note_on_c, 0, 76, 64
1, 59472, Note_on_c, 1, 68, 64
1, 59472, Note_on_c, 1, 64, 64
1, 59492, Note_on_c, 1, 68, 0
1, 59492, Note_on_c, 1, 64, 0
1, 59495, Note_on_c, 0, 76, 0
1, 59496, Note_on_c, 0, 75, 64
1, 59519, Note_on_c, 0, 75, 0
1, 59520, Note_on_c, 0, 73, 64
1, 59520, Note_on_c, 1, 68, 64
1, 59520, Note_on_c, 1, 64, 64
1, 59565, Note_on_c, 0, 73, 0
1, 59568, Note_on_c, 0, 80, 64
1, 59591, Note_on_c, 0, 80, 0
1, 59592, Note_on_c, 0, 78, 64
1, 59609, Note_on_c, 1, 68, 0
1, 59609, Note_on_c, 1, 64, 0
1, 59615, Note_on_c, 0, 78, 0
1, 59616, Note_on_c, 0, 76, 64
1, 59639, Note_on_c, 0, 76, 0
1, 59640, Note_on_c, 0, 75, 64
1, 59663, Note_on_c, 0, 75, 0
1, 59664, Note_on_c, 0, 73, 64
1, 59687, Note_on_c, 0, 73, 0
1, 59688, Note_on_c, 0, 71, 64
1, 59711, Note_on_c, 0, 71, 0
1, 59712, Note_on_c, 0, 70, 64
1, 59712, Note_on_c, 1, 66, 64
1, 59712, Note_on_c, 1, 64, 64
1, 59732, Note_on_c, 1, 66, 0
1, 59732, Note_on_c, 1, 64, 0
1, 59735, Note_on_c, 0, 70, 0
1, 59736, Note_on_c, 0, 71, 64
1, 59759, Note_on_c, 0, 71, 0
1, 59760, Note_on_c, 0, 73, 64
1, 59760, Note_on_c, 1, 66, 64
1, 59760, Note_on_c, 1, 64, 64
1, 59780, Note_on_c, 1, 66, 0
1, 59780, Note_on_c, 1, 64, 0
1, 59783, Note_on_c, 0, 73, 0
1, 59784, Note_on_c, 0, 71, 64
1, 59807, Note_on_c, 0, 71, 0
1, 59808, Note_on_c, 0, 70, 64
1, 59808, Note_on_c, 1, 66, 64
1, 59808, Note_on_c, 1, 64, 64
1, 59828, Note_on_c, 1, 66, 0
1, 59828, Note_on_c, 1, 64, 0
1, 59831, Note_on_c, 0, 70, 0
1, 59832, Note_on_c, 0, 71, 64
1, 59855, Note_on_c, 0, 71, 0
1, 59856, Note_on_c, 0, 73, 64
1, 59856, Note_on_c, 1, 66, 64
1, 59856, Note_on_c, 1, 64, 64
1, 59876, Note_on_c, 1, 66, 0
1, 59876, Note_on_c, 1, 64, 0
1, 59879, Note_on_c, 0, 73, 0
1, 59880, Note_on_c, 0, 71, 64
1, 59903, Note_on_c, 0, 71, 0
1, 59904, Note_on_c, 0, 70, 64
1, 59904, Note_on_c, 1, 66, 64
1, 59904, Note_on_c, 1, 64, 64
1, 59927, Note_on_c, 0, 70, 0
1, 59928, Note_on_c, 0, 79, 64
1, 59951, Note_on_c, 0, 79, 0
1, 59952, Note_on_c, 0, 78, 64
1, 59975, Note_on_c, 0, 78, 0
1, 59976, Note_on_c, 0, 76, 64
1, 59993, Note_on_c, 1, 66, 0
1, 59993, Note_on_c, 1, 64, 0
1, 59999, Note_on_c, 0, 76, 0
1, 60000, Note_on_c, 0, 74, 64
1, 60023, Note_on_c, 0, 74, 0
1, 60024, Note_on_c, 0, 73, 64
1, 60047, Note_on_c, 0, 73, 0
1, 60048, Note_on_c, 0, 71, 64
1, 60071, Note_on_c, 0, 71, 0
1, 60072, Note_on_c, 0, 70, 64
1, 60095, Note_on_c, 0, 70, 0
1, 60096, Note_on_c, 0, 71, 64
1, 60096, Note_on_c, 1, 66, 64
1, 60096, Note_on_c, 1, 62, 64
1, 60116, Note_on_c, 1, 66, 0
1, 60116, Note_on_c, 1, 62, 0
1, 60119, Note_on_c, 0, 71, 0
1, 60120, Note_on_c, 0, 73, 64
1, 60143, Note_on_c, 0, 73, 0
1, 60144, Note_on_c, 0, 74, 64
1, 60144, Note_on_c, 1, 66, 64
1, 60144, Note_on_c, 1, 62, 64
1, 60164, Note_on_c, 1, 66, 0
1, 60164, Note_on_c, 1, 62, 0
1, 60167, Note_on_c, 0, 74, 0
1, 60168, Note_on_c, 0, 73, 64
1, 60191, Note_on_c, 0, 73, 0
1, 60192, Note_on_c, 0, 71, 64
1, 60192, Note_on_c, 1, 66, 64
1, 60192, Note_on_c, 1, 62, 64
1, 60212, Note_on_c, 1, 66, 0
1, 60212, Note_on_c, 1, 62, 0
1, 60215, Note_on_c, 0, 71, 0
1, 60216, Note_on_c, 0, 73, 64
1, 60239, Note_on_c, 0, 73, 0
1, 60240, Note_on_c, 0, 74, 64
1, 60240, Note_on_c, 1, 66, 64
1, 60240, Note_on_c, 1, 62, 64
1, 60260, Note_on_c, 1, 66, 0
1, 60260, Note_on_c, 1, 62, 0
1, 60263, Note_on_c, 0, 74, 0
1, 60264, Note_on_c, 0, 73, 64
1, 60287, Note_on_c, 0, 73, 0
1, 60288, Note_on_c, 0, 71, 64
1, 60288, Note_on_c, 1, 66, 64
1, 60288, Note_on_c, 1, 62, 64
1, 60333, Note_on_c, 0, 71, 0
1, 60336, Note_on_c, 0, 79, 64
1, 60359, Note_on_c, 0, 79, 0
1, 60360, Note_on_c, 0, 78, 64
1, 60377, Note_on_c, 1, 66, 0
1, 60377, Note_on_c, 1, 62, 0
1, 60383, Note_on_c, 0, 78, 0
1, 60384, Note_on_c, 0, 76, 64
1, 60407, Note_on_c, 0, 76, 0
1, 60408, Note_on_c, 0, 74, 64
1, 60431, Note_on_c, 0, 74, 0
1, 60432, Note_on_c, 0, 73, 64
1, 60455, Note_on_c, 0, 73, 0
1, 60456, Note_on_c, 0, 71, 64
1, 60479, Note_on_c, 0, 71, 0
1, 60480, Note_on_c, 0, 73, 64
1, 60480, Note_on_c, 1, 66, 64
1, 60480, Note_on_c, 1, 58, 64
1, 60500, Note_on_c, 1, 66, 0
1, 60500, Note_on_c, 1, 58, 0
1, 60503, Note_on_c, 0, 73, 0
1, 60504, Note_on_c, 0, 74, 64
1, 60527, Note_on_c, 0, 74, 0
1, 60528, Note_on_c, 0, 76, 64
1, 60528, Note_on_c, 1, 66, 64
1, 60528, Note_on_c, 1, 58, 64
1, 60548, Note_on_c, 1, 66, 0
1, 60548, Note_on_c, 1, 58, 0
1, 60551, Note_on_c, 0, 76, 0
1, 60552, Note_on_c, 0, 74, 64
1, 60575, Note_on_c, 0, 74, 0
1, 60576, Note_on_c, 0, 73, 64
1, 60576, Note_on_c, 1, 66, 64
1, 60576, Note_on_c, 1, 58, 64
1, 60596, Note_on_c, 1, 66, 0
1, 60596, Note_on_c, 1, 58, 0
1, 60599, Note_on_c, 0, 73, 0
1, 60600, Note_on_c, 0, 74, 64
1, 60623, Note_on_c, 0, 74, 0
1, 60624, Note_on_c, 0, 76, 64
1, 60624, Note_on_c, 1, 66, 64
1, 60624, Note_on_c, 1, 58, 64
1, 60644, Note_on_c, 1, 66, 0
1, 60644, Note_on_c, 1, 58, 0
1, 60647, Note_on_c, 0, 76, 0
1, 60648, Note_on_c, 0, 74, 64
1, 60671, Note_on_c, 0, 74, 0
1, 60672, Note_on_c, 0, 73, 64
1, 60672, Note_on_c, 1, 66, 64
1, 60672, Note_on_c, 1, 58, 64
1, 60717, Note_on_c, 0, 73, 0
1, 60720, Note_on_c, 0, 76, 64
1, 60743, Note_on_c, 0, 76, 0
1, 60744, Note_on_c, 0, 79, 64
1, 60761, Note_on_c, 1, 66, 0
1, 60761, Note_on_c, 1, 58, 0
1, 60767, Note_on_c, 0, 79, 0
1, 60768, Note_on_c, 0, 78, 64
1, 60791, Note_on_c, 0, 78, 0
1, 60792, Note_on_c, 0, 76, 64
1, 60815, Note_on_c, 0, 76, 0
1, 60816, Note_on_c, 0, 74, 64
1, 60839, Note_on_c, 0, 74, 0
1, 60840, Note_on_c, 0, 73, 64
1, 60863, Note_on_c, 0, 73, 0
1, 60864, Note_on_c, 0, 71, 64
1, 60864, Note_on_c, 1, 66, 64
1, 60864, Note_on_c, 1, 59, 64
1, 60887, Note_on_c, 0, 71, 0
1, 60888, Note_on_c, 0, 73, 64
1, 60911, Note_on_c, 0, 73, 0
1, 60912, Note_on_c, 0, 74, 64
1, 60935, Note_on_c, 0, 74, 0
1, 60936, Note_on_c, 0, 73, 64
1, 60953, Note_on_c, 1, 66, 0
1, 60953, Note_on_c, 1, 59, 0
1, 60959, Note_on_c, 0, 73, 0
1, 60960, Note_on_c, 0, 71, 64
1, 60983, Note_on_c, 0, 71, 0
1, 60984, Note_on_c, 0, 73, 64
1, 61007, Note_on_c, 0, 73, 0
1, 61008, Note_on_c, 0, 74, 64
1, 61031, Note_on_c, 0, 74, 0
1, 61032, Note_on_c, 0, 73, 64
1, 61055, Note_on_c, 0, 73, 0
1, 61056, Note_on_c, 0, 71, 64
1, 61056, Note_on_c, 1, 65, 64
1, 61056, Note_on_c, 1, 55, 64
1, 61079, Note_on_c, 0, 71, 0
1, 61080, Note_on_c, 0, 73, 64
1, 61103, Note_on_c, 0, 73, 0
1, 61104, Note_on_c, 0, 74, 64
1, 61127, Note_on_c, 0, 74, 0
1, 61128, Note_on_c, 0, 73, 64
1, 61145, Note_on_c, 1, 65, 0
1, 61145, Note_on_c, 1, 55, 0
1, 61151, Note_on_c, 0, 73, 0
1, 61152, Note_on_c, 0, 71, 64
1, 61175, Note_on_c, 0, 71, 0
1, 61176, Note_on_c, 0, 74, 64
1, 61199, Note_on_c, 0, 74, 0
1, 61200, Note_on_c, 0, 73, 64
1, 61223, Note_on_c, 0, 73, 0
1, 61224, Note_on_c, 0, 71, 64
1, 61247, Note_on_c, 0, 71, 0
1, 61248, Note_on_c, 0, 78, 64
1, 61248, Note_on_c, 0, 70, 64
1, 61248, Note_on_c, 1, 66, 64
1, 61248, Note_on_c, 1, 54, 64
1, 61337, Note_on_c, 0, 78, 0
1, 61337, Note_on_c, 0, 70, 0
1, 61337, Note_on_c, 1, 66, 0
1, 61337, Note_on_c, 1, 54, 0
1, 61584, Note_on_c, 0, 59, 64
1, 61604, Note_on_c, 0, 59, 0
1, 61632, Note_on_c, 0, 59, 64
1, 61652, Note_on_c, 0, 59, 0
1, 61680, Note_on_c, 0, 59, 64
1, 61700, Note_on_c, 0, 59, 0
1, 61728, Note_on_c, 0, 59, 64
1, 61748, Note_on_c, 0, 59, 0
1, 61776, Note_on_c, 0, 59, 64
1, 61796, Note_on_c, 0, 59, 0
1, 61824, Note_on_c, 0, 62, 64
1, 61869, Note_on_c, 0, 62, 0
1, 61872, Note_on_c, 0, 61, 64
1, 61917, Note_on_c, 0, 61, 0
1, 61920, Note_on_c, 0, 59, 64
1, 61965, Note_on_c, 0, 59, 0
1, 61968, Note_on_c, 0, 67, 64
1, 61968, Note_on_c, 1, 59, 64
1, 61988, Note_on_c, 0, 67, 0
1, 62016, Note_on_c, 0, 66, 64
1, 62016, Note_on_c, 1, 59, 0
1, 62016, Note_on_c, 1, 58, 64
1, 62061, Note_on_c, 0, 66, 0
1, 62064, Note_on_c, 0, 65, 64
1, 62105, Note_on_c, 1, 58, 0
1, 62109, Note_on_c, 0, 65, 0
1, 62112, Note_on_c, 0, 66, 64
1, 62157, Note_on_c, 0, 66, 0
1, 62160, Note_on_c, 0, 64, 64
1, 62160, Note_on_c, 1, 55, 64
1, 62180, Note_on_c, 0, 64, 0
1, 62208, Note_on_c, 0, 62, 64
1, 62208, Note_on_c, 1, 55, 0
1, 62208, Note_on_c, 1, 54, 64
1, 62253, Note_on_c, 0, 62, 0
1, 62256, Note_on_c, 0, 61, 64
1, 62297, Note_on_c, 1, 54, 0
1, 62301, Note_on_c, 0, 61, 0
1, 62304, Note_on_c, 0, 62, 64
1, 62349, Note_on_c, 0, 62, 0
1, 62352, Note_on_c, 0, 61, 64
1, 62352, Note_on_c, 1, 52, 64
1, 62372, Note_on_c, 0, 61, 0
1, 62400, Note_on_c, 0, 59, 64
1, 62400, Note_on_c, 1, 52, 0
1, 62400, Note_on_c, 1, 50, 64
1, 62445, Note_on_c, 0, 59, 0
1, 62448, Note_on_c, 0, 58, 64
1, 62489, Note_on_c, 1, 50, 0
1, 62493, Note_on_c, 0, 58, 0
1, 62496, Note_on_c, 0, 59, 64
1, 62541, Note_on_c, 0, 59, 0
1, 62544, Note_on_c, 0, 59, 64
1, 62544, Note_on_c, 1, 55, 64
1, 62564, Note_on_c, 0, 59, 0
1, 62564, Note_on_c, 1, 55, 0
1, 62592, Note_on_c, 0, 59, 64
1, 62592, Note_on_c, 1, 54, 64
1, 62612, Note_on_c, 0, 59, 0
1, 62637, Note_on_c, 1, 54, 0
1, 62640, Note_on_c, 0, 59, 64
1, 62640, Note_on_c, 1, 52, 64
1, 62660, Note_on_c, 0, 59, 0
1, 62685, Note_on_c, 1, 52, 0
1, 62688, Note_on_c, 0, 59, 64
1, 62688, Note_on_c, 1, 50, 64
1, 62708, Note_on_c, 0, 59, 0
1, 62733, Note_on_c, 1, 50, 0
1, 62736, Note_on_c, 0, 64, 64
1, 62736, Note_on_c, 1, 49, 64
1, 62756, Note_on_c, 0, 64, 0
1, 62756, Note_on_c, 1, 49, 0
1, 62784, Note_on_c, 0, 62, 64
1, 62784, Note_on_c, 1, 47, 64
1, 62829, Note_on_c, 0, 62, 0
1, 62832, Note_on_c, 0, 61, 64
1, 62873, Note_on_c, 1, 47, 0
1, 62877, Note_on_c, 0, 61, 0
1, 62880, Note_on_c, 0, 59, 64
1, 62925, Note_on_c, 0, 59, 0
1, 62928, Note_on_c, 0, 67, 64
1, 62928, Note_on_c, 1, 47, 64
1, 62948, Note_on_c, 0, 67, 0
1, 62948, Note_on_c, 1, 47, 0
1, 62976, Note_on_c, 0, 66, 64
1, 62976, Note_on_c, 1, 47, 64
1, 62996, Note_on_c, 1, 47, 0
1, 63021, Note_on_c, 0, 66, 0
1, 63024, Note_on_c, 0, 64, 64
1, 63024, Note_on_c, 1, 47, 64
1, 63044, Note_on_c, 1, 47, 0
1, 63069, Note_on_c, 0, 64, 0
1, 63072, Note_on_c, 0, 62, 64
1, 63072, Note_on_c, 1, 47, 64
1, 63092, Note_on_c, 1, 47, 0
1, 63117, Note_on_c, 0, 62, 0
1, 63120, Note_on_c, 0, 61, 64
1, 63120, Note_on_c, 1, 52, 64
1, 63140, Note_on_c, 0, 61, 0
1, 63140, Note_on_c, 1, 52, 0
1, 63168, Note_on_c, 0, 59, 64
1, 63168, Note_on_c, 1, 50, 64
1, 63213, Note_on_c, 1, 50, 0
1, 63216, Note_on_c, 1, 49, 64
1, 63257, Note_on_c, 0, 59, 0
1, 63261, Note_on_c, 1, 49, 0
1, 63264, Note_on_c, 1, 47, 64
1, 63309, Note_on_c, 1, 47, 0
1, 63312, Note_on_c, 0, 59, 64
1, 63312, Note_on_c, 1, 55, 64
1, 63332, Note_on_c, 0, 59, 0
1, 63332, Note_on_c, 1, 55, 0
1, 63360, Note_on_c, 0, 59, 64
1, 63360, Note_on_c, 1, 54, 64
1, 63380, Note_on_c, 0, 59, 0
1, 63405, Note_on_c, 1, 54, 0
1, 63408, Note_on_c, 0, 59, 64
1, 63408, Note_on_c, 1, 52, 64
1, 63428, Note_on_c, 0, 59, 0
1, 63453, Note_on_c, 1, 52, 0
1, 63456, Note_on_c, 0, 59, 64
1, 63456, Note_on_c, 1, 50, 64
1, 63476, Note_on_c, 0, 59, 0
1, 63501, Note_on_c, 1, 50, 0
1, 63504, Note_on_c, 0, 64, 64
1, 63504, Note_on_c, 1, 49, 64
1, 63524, Note_on_c, 0, 64, 0
1, 63524, Note_on_c, 1, 49, 0
1, 63552, Note_on_c, 0, 62, 64
1, 63552, Note_on_c, 1, 47, 64
1, 63597, Note_on_c, 0, 62, 0
1, 63600, Note_on_c, 0, 61, 64
1, 63641, Note_on_c, 1, 47, 0
1, 63645, Note_on_c, 0, 61, 0
1, 63648, Note_on_c, 0, 59, 64
1, 63693, Note_on_c, 0, 59, 0
1, 63696, Note_on_c, 0, 71, 64
1, 63716, Note_on_c, 0, 71, 0
1, 63744, Note_on_c, 0, 69, 64
1, 63744, Note_on_c, 1, 59, 64
1, 63744, Note_on_c, 1, 55, 64
1, 63789, Note_on_c, 0, 69, 0
1, 63792, Note_on_c, 0, 67, 64
1, 63837, Note_on_c, 0, 67, 0
1, 63840, Note_on_c, 0, 66, 64
1, 63885, Note_on_c, 0, 66, 0
1, 63888, Note_on_c, 0, 65, 64
1, 63908, Note_on_c, 0, 65, 0
1, 63921, Note_on_c, 1, 59, 0
1, 63921, Note_on_c, 1, 55, 0
1, 63936, Note_on_c, 0, 66, 64
1, 63936, Note_on_c, 1, 58, 64
1, 63936, Note_on_c, 1, 54, 64
1, 64025, Note_on_c, 0, 66, 0
1, 64025, Note_on_c, 1, 58, 0
1, 64025, Note_on_c, 1, 54, 0
1, 64080, Note_on_c, 0, 64, 64
1, 64080, Note_on_c, 1, 61, 64
1, 64100, Note_on_c, 0, 64, 0
1, 64100, Note_on_c, 1, 61, 0
1, 64128, Note_on_c, 0, 64, 64
1, 64128, Note_on_c, 1, 61, 64
1, 64148, Note_on_c, 0, 64, 0
1, 64148, Note_on_c, 1, 61, 0
1, 64176, Note_on_c, 0, 64, 64
1, 64176, Note_on_c, 1, 61, 64
1, 64196, Note_on_c, 0, 64, 0
1, 64196, Note_on_c, 1, 61, 0
1, 64224, Note_on_c, 0, 64, 64
1, 64224, Note_on_c, 1, 61, 64
1, 64244, Note_on_c, 0, 64, 0
1, 64244, Note_on_c, 1, 61, 0
1, 64272, Note_on_c, 0, 64, 64
1, 64272, Note_on_c, 1, 61, 64
1, 64292, Note_on_c, 0, 64, 0
1, 64292, Note_on_c, 1, 61, 0
1, 64320, Note_on_c, 0, 67, 64
1, 64320, Note_on_c, 1, 64, 64
1, 64320, Note_on_c, 1, 54, 64
1, 64365, Note_on_c, 0, 67, 0
1, 64365, Note_on_c, 1, 64, 0
1, 64368, Note_on_c, 0, 66, 64
1, 64368, Note_on_c, 1, 62, 64
1, 64409, Note_on_c, 1, 54, 0
1, 64413, Note_on_c, 0, 66, 0
1, 64413, Note_on_c, 1, 62, 0
1, 64416, Note_on_c, 0, 64, 64
1, 64416, Note_on_c, 1, 61, 64
1, 64461, Note_on_c, 0, 64, 0
1, 64461, Note_on_c, 1, 61, 0
1, 64464, Note_on_c, 0, 64, 64
1, 64464, Note_on_c, 1, 61, 64
1, 64484, Note_on_c, 0, 64, 0
1, 64484, Note_on_c, 1, 61, 0
1, 64512, Note_on_c, 0, 64, 64
1, 64512, Note_on_c, 1, 61, 64
1, 64532, Note_on_c, 0, 64, 0
1, 64532, Note_on_c, 1, 61, 0
1, 64560, Note_on_c, 0, 64, 64
1, 64560, Note_on_c, 1, 61, 64
1, 64580, Note_on_c, 0, 64, 0
1, 64580, Note_on_c, 1, 61, 0
1, 64608, Note_on_c, 0, 64, 64
1, 64608, Note_on_c, 1, 61, 64
1, 64628, Note_on_c, 0, 64, 0
1, 64628, Note_on_c, 1, 61, 0
1, 64656, Note_on_c, 0, 64, 64
1, 64656, Note_on_c, 1, 61, 64
1, 64676, Note_on_c, 0, 64, 0
1, 64676, Note_on_c, 1, 61, 0
1, 64704, Note_on_c, 0, 67, 64
1, 64704, Note_on_c, 1, 64, 64
1, 64704, Note_on_c, 1, 54, 64
1, 64749, Note_on_c, 0, 67, 0
1, 64749, Note_on_c, 1, 64, 0
1, 64752, Note_on_c, 0, 66, 64
1, 64752, Note_on_c, 1, 62, 64
1, 64793, Note_on_c, 1, 54, 0
1, 64797, Note_on_c, 0, 66, 0
1, 64797, Note_on_c, 1, 62, 0
1, 64800, Note_on_c, 0, 64, 64
1, 64800, Note_on_c, 1, 61, 64
1, 64845, Note_on_c, 0, 64, 0
1, 64845, Note_on_c, 1, 61, 0
1, 64848, Note_on_c, 0, 75, 64
1, 64848, Note_on_c, 0, 63, 64
1, 64868, Note_on_c, 0, 75, 0
1, 64868, Note_on_c, 0, 63, 0
1, 64896, Note_on_c, 0, 76, 64
1, 64896, Note_on_c, 0, 64, 64
1, 64941, Note_on_c, 0, 76, 0
1, 64941, Note_on_c, 0, 64, 0
1, 64944, Note_on_c, 0, 75, 64
1, 64944, Note_on_c, 0, 63, 64
1, 64989, Note_on_c, 0, 75, 0
1, 64989, Note_on_c, 0, 63, 0
1, 64992, Note_on_c, 0, 76, 64
1, 64992, Note_on_c, 0, 64, 64
1, 65037, Note_on_c, 0, 76, 0
1, 65037, Note_on_c, 0, 64, 0
1, 65040, Note_on_c, 0, 78, 64
1, 65040, Note_on_c, 0, 66, 64
1, 65060, Note_on_c, 0, 78, 0
1, 65060, Note_on_c, 0, 66, 0
1, 65088, Note_on_c, 0, 79, 64
1, 65088, Note_on_c, 0, 67, 64
1, 65136, Note_on_c, 1, 63, 64
1, 65136, Note_on_c, 1, 51, 64
1, 65156, Note_on_c, 1, 63, 0
1, 65156, Note_on_c, 1, 51, 0
1, 65177, Note_on_c, 0, 79, 0
1, 65177, Note_on_c, 0, 67, 0
1, 65184, Note_on_c, 1, 64, 64
1, 65184, Note_on_c, 1, 52, 64
1, 65232, Note_on_c, 0, 79, 64
1, 65232, Note_on_c, 0, 76, 64
1, 65273, Note_on_c, 1, 64, 0
1, 65273, Note_on_c, 1, 52, 0
1, 65280, Note_on_c, 0, 79, 0
1, 65280, Note_on_c, 0, 76, 0
1, 65280, Note_on_c, 0, 78, 64
1, 65280, Note_on_c, 0, 74, 64
1, 65328, Note_on_c, 1, 66, 64
1, 65348, Note_on_c, 1, 66, 0
1, 65369, Note_on_c, 0, 78, 0
1, 65369, Note_on_c, 0, 74, 0
1, 65376, Note_on_c, 1, 66, 64
1, 65421, Note_on_c, 1, 66, 0
1, 65424, Note_on_c, 0, 76, 64
1, 65424, Note_on_c, 0, 73, 64
1, 65472, Note_on_c, 0, 76, 0
1, 65472, Note_on_c, 0, 73, 0
1, 65472, Note_on_c, 0, 74, 64
1, 65472, Note_on_c, 0, 71, 64
1, 65520, Note_on_c, 1, 67, 64
1, 65540, Note_on_c, 1, 67, 0
1, 65561, Note_on_c, 0, 74, 0
1, 65561, Note_on_c, 0, 71, 0
1, 65568, Note_on_c, 1, 67, 64
1, 65613, Note_on_c, 1, 67, 0
1, 65616, Note_on_c, 0, 75, 64
1, 65616, Note_on_c, 0, 63, 64
1, 65636, Note_on_c, 0, 75, 0
1, 65636, Note_on_c, 0, 63, 0
1, 65664, Note_on_c, 0, 76, 64
1, 65664, Note_on_c, 0, 64, 64
1, 65709, Note_on_c, 0, 76, 0
1, 65709, Note_on_c, 0, 64, 0
1, 65712, Note_on_c, 0, 75, 64
1, 65712, Note_on_c, 0, 63, 64
1, 65757, Note_on_c, 0, 75, 0
1, 65757, Note_on_c, 0, 63, 0
1, 65760, Note_on_c, 0, 76, 64
1, 65760, Note_on_c, 0, 64, 64
1, 65805, Note_on_c, 0, 76, 0
1, 65805, Note_on_c, 0, 64, 0
1, 65808, Note_on_c, 0, 78, 64
1, 65808, Note_on_c, 0, 66, 64
1, 65853, Note_on_c, 0, 78, 0
1, 65853, Note_on_c, 0, 66, 0
1, 65856, Note_on_c, 0, 79, 64
1, 65856, Note_on_c, 0, 67, 64
1, 65904, Note_on_c, 1, 51, 64
1, 65904, Note_on_c, 1, 39, 64
1, 65924, Note_on_c, 1, 51, 0
1, 65924, Note_on_c, 1, 39, 0
1, 65952, Note_on_c, 1, 52, 64
1, 65952, Note_on_c, 1, 40, 64
1, 65989, Note_on_c, 0, 79, 0
1, 65989, Note_on_c, 0, 67, 0
1, 66000, Note_on_c, 0, 76, 64
1, 66000, Note_on_c, 0, 64, 64
1, 66020, Note_on_c, 0, 76, 0
1, 66020, Note_on_c, 0, 64, 0
1, 66048, Note_on_c, 0, 82, 64
1, 66048, Note_on_c, 0, 70, 64
1, 66093, Note_on_c, 1, 52, 0
1, 66093, Note_on_c, 1, 40, 0
1, 66096, Note_on_c, 1, 50, 64
1, 66096, Note_on_c, 1, 38, 64
1, 66116, Note_on_c, 1, 50, 0
1, 66116, Note_on_c, 1, 38, 0
1, 66144, Note_on_c, 1, 49, 64
1, 66144, Note_on_c, 1, 37, 64
1, 66181, Note_on_c, 0, 82, 0
1, 66181, Note_on_c, 0, 70, 0
1, 66192, Note_on_c, 0, 83, 64
1, 66192, Note_on_c, 0, 71, 64
1, 66212, Note_on_c, 0, 83, 0
1, 66212, Note_on_c, 0, 71, 0
1, 66240, Note_on_c, 0, 85, 64
1, 66240, Note_on_c, 0, 73, 64
1, 66285, Note_on_c, 1, 49, 0
1, 66285, Note_on_c, 1, 37, 0
1, 66288, Note_on_c, 1, 47, 64
1, 66288, Note_on_c, 1, 35, 64
1, 66308, Note_on_c, 1, 47, 0
1, 66308, Note_on_c, 1, 35, 0
1, 66336, Note_on_c, 1, 46, 64
1, 66336, Note_on_c, 1, 34, 64
1, 66373, Note_on_c, 0, 85, 0
1, 66373, Note_on_c, 0, 73, 0
1, 66384, Note_on_c, 0, 86, 64
1, 66384, Note_on_c, 0, 74, 64
1, 66404, Note_on_c, 0, 86, 0
1, 66404, Note_on_c, 0, 74, 0
1, 66432, Note_on_c, 0, 88, 64
1, 66432, Note_on_c, 0, 76, 64
1, 66477, Note_on_c, 1, 46, 0
1, 66477, Note_on_c, 1, 34, 0
1, 66480, Note_on_c, 1, 44, 64
1, 66480, Note_on_c, 1, 32, 64
1, 66500, Note_on_c, 1, 44, 0
1, 66500, Note_on_c, 1, 32, 0
1, 66528, Note_on_c, 1, 42, 64
1, 66528, Note_on_c, 1, 30, 64
1, 66801, Note_on_c, 0, 88, 0
1, 66801, Note_on_c, 0, 76, 0
1, 66801, Note_on_c, 1, 42, 0
1, 66801, Note_on_c, 1, 30, 0
1, 66960, Note_on_c, 0, 71, 64
1, 66980, Note_on_c, 0, 71, 0
1, 67008, Note_on_c, 0, 71, 64
1, 67028, Note_on_c, 0, 71, 0
1, 67056, Note_on_c, 0, 71, 64
1, 67076, Note_on_c, 0, 71, 0
1, 67104, Note_on_c, 0, 71, 64
1, 67124, Note_on_c, 0, 71, 0
1, 67152, Note_on_c, 0, 71, 64
1, 67172, Note_on_c, 0, 71, 0
1, 67200, Note_on_c, 0, 71, 64
1, 67223, Note_on_c, 0, 71, 0
1, 67224, Note_on_c, 0, 73, 64
1, 67247, Note_on_c, 0, 73, 0
1, 67248, Note_on_c, 0, 74, 64
1, 67271, Note_on_c, 0, 74, 0
1, 67272, Note_on_c, 0, 73, 64
1, 67295, Note_on_c, 0, 73, 0
1, 67296, Note_on_c, 0, 71, 64
1, 67319, Note_on_c, 0, 71, 0
1, 67320, Note_on_c, 0, 73, 64
1, 67343, Note_on_c, 0, 73, 0
1, 67344, Note_on_c, 0, 74, 64
1, 67344, Note_on_c, 1, 59, 64
1, 67364, Note_on_c, 1, 59, 0
1, 67367, Note_on_c, 0, 74, 0
1, 67368, Note_on_c, 0, 73, 64
1, 67391, Note_on_c, 0, 73, 0
1, 67392, Note_on_c, 0, 71, 64
1, 67392, Note_on_c, 1, 57, 64
1, 67412, Note_on_c, 1, 57, 0
1, 67415, Note_on_c, 0, 71, 0
1, 67416, Note_on_c, 0, 73, 64
1, 67439, Note_on_c, 0, 73, 0
1, 67440, Note_on_c, 0, 74, 64
1, 67440, Note_on_c, 1, 55, 64
1, 67460, Note_on_c, 1, 55, 0
1, 67463, Note_on_c, 0, 74, 0
1, 67464, Note_on_c, 0, 73, 64
1, 67487, Note_on_c, 0, 73, 0
1, 67488, Note_on_c, 0, 71, 64
1, 67488, Note_on_c, 1, 54, 64
1, 67508, Note_on_c, 1, 54, 0
1, 67511, Note_on_c, 0, 71, 0
1, 67512, Note_on_c, 0, 73, 64
1, 67535, Note_on_c, 0, 73, 0
1, 67536, Note_on_c, 0, 74, 64
1, 67536, Note_on_c, 1, 52, 64
1, 67556, Note_on_c, 1, 52, 0
1, 67559, Note_on_c, 0, 74, 0
1, 67560, Note_on_c, 0, 73, 64
1, 67583, Note_on_c, 0, 73, 0
1, 67584, Note_on_c, 0, 71, 64
1, 67584, Note_on_c, 1, 50, 64
1, 67607, Note_on_c, 0, 71, 0
1, 67608, Note_on_c, 0, 73, 64
1, 67631, Note_on_c, 0, 73, 0
1, 67632, Note_on_c, 0, 74, 64
1, 67655, Note_on_c, 0, 74, 0
1, 67656, Note_on_c, 0, 73, 64
1, 67673, Note_on_c, 1, 50, 0
1, 67679, Note_on_c, 0, 73, 0
1, 67680, Note_on_c, 0, 71, 64
1, 67703, Note_on_c, 0, 71, 0
1, 67704, Note_on_c, 0, 73, 64
1, 67727, Note_on_c, 0, 73, 0
1, 67728, Note_on_c, 0, 74, 64
1, 67728, Note_on_c, 1, 55, 64
1, 67748, Note_on_c, 1, 55, 0
1, 67751, Note_on_c, 0, 74, 0
1, 67752, Note_on_c, 0, 73, 64
1, 67775, Note_on_c, 0, 73, 0
1, 67776, Note_on_c, 0, 71, 64
1, 67776, Note_on_c, 1, 54, 64
1, 67796, Note_on_c, 1, 54, 0
1, 67799, Note_on_c, 0, 71, 0
1, 67800, Note_on_c, 0, 73, 64
1, 67823, Note_on_c, 0, 73, 0
1, 67824, Note_on_c, 0, 74, 64
1, 67824, Note_on_c, 1, 52, 64
1, 67844, Note_on_c, 1, 52, 0
1, 67847, Note_on_c, 0, 74, 0
1, 67848, Note_on_c, 0, 73, 64
1, 67871, Note_on_c, 0, 73, 0
1, 67872, Note_on_c, 0, 71, 64
1, 67872, Note_on_c, 1, 50, 64
1, 67892, Note_on_c, 1, 50, 0
1, 67895, Note_on_c, 0, 71, 0
1, 67896, Note_on_c, 0, 73, 64
1, 67919, Note_on_c, 0, 73, 0
1, 67920, Note_on_c, 0, 74, 64
1, 67920, Note_on_c, 1, 49, 64
1, 67940, Note_on_c, 1, 49, 0
1, 67943, Note_on_c, 0, 74, 0
1, 67944, Note_on_c, 0, 73, 64
1, 67967, Note_on_c, 0, 73, 0
1, 67968, Note_on_c, 0, 71, 64
1, 67968, Note_on_c, 1, 47, 64
1, 67991, Note_on_c, 0, 71, 0
1, 67992, Note_on_c, 0, 73, 64
1, 68015, Note_on_c, 0, 73, 0
1, 68016, Note_on_c, 0, 74, 64
1, 68039, Note_on_c, 0, 74, 0
1, 68040, Note_on_c, 0, 73, 64
1, 68057, Note_on_c, 1, 47, 0
1, 68063, Note_on_c, 0, 73, 0
1, 68064, Note_on_c, 0, 71, 64
1, 68087, Note_on_c, 0, 71, 0
1, 68088, Note_on_c, 0, 73, 64
1, 68111, Note_on_c, 0, 73, 0
1, 68112, Note_on_c, 0, 74, 64
1, 68112, Note_on_c, 1, 52, 64
1, 68132, Note_on_c, 1, 52, 0
1, 68135, Note_on_c, 0, 74, 0
1, 68136, Note_on_c, 0, 73, 64
1, 68159, Note_on_c, 0, 73, 0
1, 68160, Note_on_c, 0, 71, 64
1, 68160, Note_on_c, 1, 50, 64
1, 68180, Note_on_c, 1, 50, 0
1, 68183, Note_on_c, 0, 71, 0
1, 68184, Note_on_c, 0, 73, 64
1, 68207, Note_on_c, 0, 73, 0
1, 68208, Note_on_c, 0, 74, 64
1, 68208, Note_on_c, 1, 49, 64
1, 68228, Note_on_c, 1, 49, 0
1, 68231, Note_on_c, 0, 74, 0
1, 68232, Note_on_c, 0, 73, 64
1, 68255, Note_on_c, 0, 73, 0
1, 68256, Note_on_c, 0, 71, 64
1, 68256, Note_on_c, 1, 47, 64
1, 68276, Note_on_c, 1, 47, 0
1, 68279, Note_on_c, 0, 71, 0
1, 68280, Note_on_c, 0, 73, 64
1, 68303, Note_on_c, 0, 73, 0
1, 68304, Note_on_c, 0, 74, 64
1, 68304, Note_on_c, 1, 45, 64
1, 68324, Note_on_c, 1, 45, 0
1, 68327, Note_on_c, 0, 74, 0
1, 68328, Note_on_c, 0, 73, 64
1, 68351, Note_on_c, 0, 73, 0
1, 68352, Note_on_c, 0, 71, 64
1, 68352, Note_on_c, 1, 43, 64
1, 68375, Note_on_c, 0, 71, 0
1, 68376, Note_on_c, 0, 73, 64
1, 68399, Note_on_c, 0, 73, 0
1, 68400, Note_on_c, 0, 74, 64
1, 68423, Note_on_c, 0, 74, 0
1, 68424, Note_on_c, 0, 73, 64
1, 68441, Note_on_c, 1, 43, 0
1, 68447, Note_on_c, 0, 73, 0
1, 68448, Note_on_c, 0, 71, 64
1, 68471, Note_on_c, 0, 71, 0
1, 68472, Note_on_c, 0, 73, 64
1, 68495, Note_on_c, 0, 73, 0
1, 68496, Note_on_c, 0, 74, 64
1, 68519, Note_on_c, 0, 74, 0
1, 68520, Note_on_c, 0, 73, 64
1, 68543, Note_on_c, 0, 73, 0
1, 68544, Note_on_c, 0, 71, 64
1, 68544, Note_on_c, 1, 65, 64
1, 68544, Note_on_c, 1, 55, 64
1, 68567, Note_on_c, 0, 71, 0
1, 68568, Note_on_c, 0, 73, 64
1, 68591, Note_on_c, 0, 73, 0
1, 68592, Note_on_c, 0, 74, 64
1, 68615, Note_on_c, 0, 74, 0
1, 68616, Note_on_c, 0, 76, 64
1, 68639, Note_on_c, 0, 76, 0
1, 68640, Note_on_c, 0, 78, 64
1, 68663, Note_on_c, 0, 78, 0
1, 68664, Note_on_c, 0, 80, 64
1, 68687, Note_on_c, 0, 80, 0
1, 68688, Note_on_c, 0, 82, 64
1, 68711, Note_on_c, 0, 82, 0
1, 68712, Note_on_c, 0, 83, 64
1, 68721, Note_on_c, 1, 65, 0
1, 68721, Note_on_c, 1, 55, 0
1, 68735, Note_on_c, 0, 83, 0
1, 68736, Note_on_c, 0, 82, 64
1, 68736, Note_on_c, 1, 66, 64
1, 68736, Note_on_c, 1, 54, 64
1, 68759, Note_on_c, 0, 82, 0
1, 68760, Note_on_c, 0, 78, 64
1, 68783, Note_on_c, 0, 78, 0
1, 68784, Note_on_c, 0, 77, 64
1, 68807, Note_on_c, 0, 77, 0
1, 68808, Note_on_c, 0, 78, 64
1, 68825, Note_on_c, 1, 66, 0
1, 68825, Note_on_c, 1, 54, 0
1, 68831, Note_on_c, 0, 78, 0
1, 68832, Note_on_c, 0, 76, 64
1, 68832, Note_on_c, 1, 70, 64
1, 68855, Note_on_c, 0, 76, 0
1, 68856, Note_on_c, 0, 79, 64
1, 68871, Note_on_c, 1, 70, 0
1, 68879, Note_on_c, 0, 79, 0
1, 68880, Note_on_c, 0, 78, 64
1, 68903, Note_on_c, 0, 78, 0
1, 68904, Note_on_c, 0, 76, 64
1, 68927, Note_on_c, 0, 76, 0
1, 68928, Note_on_c, 0, 74, 64
1, 68928, Note_on_c, 1, 71, 64
1, 68951, Note_on_c, 0, 74, 0
1, 68952, Note_on_c, 0, 78, 64
1, 68967, Note_on_c, 1, 71, 0
1, 68975, Note_on_c, 0, 78, 0
1, 68976, Note_on_c, 0, 76, 64
1, 68999, Note_on_c, 0, 76, 0
1, 69000, Note_on_c, 0, 74, 64
1, 69023, Note_on_c, 0, 74, 0
1, 69024, Note_on_c, 0, 73, 64
1, 69024, Note_on_c, 1, 64, 64
1, 69047, Note_on_c, 0, 73, 0
1, 69048, Note_on_c, 0, 76, 64
1, 69063, Note_on_c, 1, 64, 0
1, 69071, Note_on_c, 0, 76, 0
1, 69072, Note_on_c, 0, 74, 64
1, 69095, Note_on_c, 0, 74, 0
1, 69096, Note_on_c, 0, 73, 64
1, 69119, Note_on_c, 0, 73, 0
1, 69120, Note_on_c, 0, 78, 64
1, 69120, Note_on_c, 1, 62, 64
1, 69143, Note_on_c, 0, 78, 0
1, 69144, Note_on_c, 0, 74, 64
1, 69159, Note_on_c, 1, 62, 0
1, 69167, Note_on_c, 0, 74, 0
1, 69168, Note_on_c, 0, 73, 64
1, 69191, Note_on_c, 0, 73, 0
1, 69192, Note_on_c, 0, 71, 64
1, 69215, Note_on_c, 0, 71, 0
1, 69216, Note_on_c, 0, 79, 64
1, 69216, Note_on_c, 1, 64, 64
1, 69239, Note_on_c, 0, 79, 0
1, 69240, Note_on_c, 0, 76, 64
1, 69255, Note_on_c, 1, 64, 0
1, 69263, Note_on_c, 0, 76, 0
1, 69264, Note_on_c, 0, 74, 64
1, 69287, Note_on_c, 0, 74, 0
1, 69288, Note_on_c, 0, 73, 64
1, 69311, Note_on_c, 0, 73, 0
1, 69312, Note_on_c, 0, 74, 64
1, 69312, Note_on_c, 1, 66, 64
1, 69331, Note_on_c, 0, 74, 0
1, 69332, Note_on_c, 0, 73, 64
1, 69351, Note_on_c, 0, 73, 0
1, 69351, Note_on_c, 1, 66, 0
1, 69352, Note_on_c, 0, 74, 64
1, 69370, Note_on_c, 0, 74, 0
1, 69371, Note_on_c, 0, 73, 64
1, 69389, Note_on_c, 0, 73, 0
1, 69390, Note_on_c, 0, 74, 64
1, 69408, Note_on_c, 0, 74, 0
1, 69408, Note_on_c, 1, 54, 64
1, 69409, Note_on_c, 0, 73, 64
1, 69427, Note_on_c, 0, 73, 0
1, 69428, Note_on_c, 0, 74, 64
1, 69446, Note_on_c, 0, 74, 0
1, 69447, Note_on_c, 0, 73, 64
1, 69465, Note_on_c, 0, 73, 0
1, 69466, Note_on_c, 0, 71, 64
1, 69484, Note_on_c, 0, 71, 0
1, 69485, Note_on_c, 0, 73, 64
1, 69497, Note_on_c, 1, 54, 0
1, 69503, Note_on_c, 0, 73, 0
1, 69504, Note_on_c, 0, 71, 64
1, 69504, Note_on_c, 1, 59, 64
1, 69527, Note_on_c, 0, 71, 0
1, 69528, Note_on_c, 0, 73, 64
1, 69551, Note_on_c, 0, 73, 0
1, 69552, Note_on_c, 0, 74, 64
1, 69575, Note_on_c, 0, 74, 0
1, 69576, Note_on_c, 0, 73, 64
1, 69593, Note_on_c, 1, 59, 0
1, 69599, Note_on_c, 0, 73, 0
1, 69600, Note_on_c, 0, 71, 64
1, 69623, Note_on_c, 0, 71, 0
1, 69624, Note_on_c, 0, 73, 64
1, 69647, Note_on_c, 0, 73, 0
1, 69648, Note_on_c, 0, 74, 64
1, 69648, Note_on_c, 1, 59, 64
1, 69648, Note_on_c, 1, 47, 64
1, 69668, Note_on_c, 1, 59, 0
1, 69668, Note_on_c, 1, 47, 0
1, 69671, Note_on_c, 0, 74, 0
1, 69672, Note_on_c, 0, 73, 64
1, 69695, Note_on_c, 0, 73, 0
1, 69696, Note_on_c, 0, 71, 64
1, 69696, Note_on_c, 1, 57, 64
1, 69696, Note_on_c, 1, 45, 64
1, 69716, Note_on_c, 1, 57, 0
1, 69716, Note_on_c, 1, 45, 0
1, 69719, Note_on_c, 0, 71, 0
1, 69720, Note_on_c, 0, 73, 64
1, 69743, Note_on_c, 0, 73, 0
1, 69744, Note_on_c, 0, 74, 64
1, 69744, Note_on_c, 1, 55, 64
1, 69744, Note_on_c, 1, 43, 64
1, 69764, Note_on_c, 1, 55, 0
1, 69764, Note_on_c, 1, 43, 0
1, 69767, Note_on_c, 0, 74, 0
1, 69768, Note_on_c, 0, 73, 64
1, 69791, Note_on_c, 0, 73, 0
1, 69792, Note_on_c, 0, 71, 64
1, 69792, Note_on_c, 1, 54, 64
1, 69792, Note_on_c, 1, 42, 64
1, 69812, Note_on_c, 1, 54, 0
1, 69812, Note_on_c, 1, 42, 0
1, 69815, Note_on_c, 0, 71, 0
1, 69816, Note_on_c, 0, 73, 64
1, 69839, Note_on_c, 0, 73, 0
1, 69840, Note_on_c, 0, 74, 64
1, 69840, Note_on_c, 1, 52, 64
1, 69840, Note_on_c, 1, 40, 64
1, 69860, Note_on_c, 1, 52, 0
1, 69860, Note_on_c, 1, 40, 0
1, 69863, Note_on_c, 0, 74, 0
1, 69864, Note_on_c, 0, 73, 64
1, 69887, Note_on_c, 0, 73, 0
1, 69888, Note_on_c, 0, 71, 64
1, 69888, Note_on_c, 1, 50, 64
1, 69888, Note_on_c, 1, 38, 64
1, 69911, Note_on_c, 0, 71, 0
1, 69912, Note_on_c, 0, 73, 64
1, 69935, Note_on_c, 0, 73, 0
1, 69936, Note_on_c, 0, 74, 64
1, 69959, Note_on_c, 0, 74, 0
1, 69960, Note_on_c, 0, 73, 64
1, 69977, Note_on_c, 1, 50, 0
1, 69977, Note_on_c, 1, 38, 0
1, 69983, Note_on_c, 0, 73, 0
1, 69984, Note_on_c, 0, 71, 64
1, 70007, Note_on_c, 0, 71, 0
1, 70008, Note_on_c, 0, 73, 64
1, 70031, Note_on_c, 0, 73, 0
1, 70032, Note_on_c, 0, 74, 64
1, 70032, Note_on_c, 1, 55, 64
1, 70032, Note_on_c, 1, 43, 64
1, 70052, Note_on_c, 1, 55, 0
1, 70052, Note_on_c, 1, 43, 0
1, 70055, Note_on_c, 0, 74, 0
1, 70056, Note_on_c, 0, 73, 64
1, 70079, Note_on_c, 0, 73, 0
1, 70080, Note_on_c, 0, 71, 64
1, 70080, Note_on_c, 1, 54, 64
1, 70080, Note_on_c, 1, 42, 64
1, 70100, Note_on_c, 1, 54, 0
1, 70100, Note_on_c, 1, 42, 0
1, 70103, Note_on_c, 0, 71, 0
1, 70104, Note_on_c, 0, 73, 64
1, 70127, Note_on_c, 0, 73, 0
1, 70128, Note_on_c, 0, 74, 64
1, 70128, Note_on_c, 1, 52, 64
1, 70128, Note_on_c, 1, 40, 64
1, 70148, Note_on_c, 1, 52, 0
1, 70148, Note_on_c, 1, 40, 0
1, 70151, Note_on_c, 0, 74, 0
1, 70152, Note_on_c, 0, 73, 64
1, 70175, Note_on_c, 0, 73, 0
1, 70176, Note_on_c, 0, 71, 64
1, 70176, Note_on_c, 1, 50, 64
1, 70176, Note_on_c, 1, 38, 64
1, 70196, Note_on_c, 1, 50, 0
1, 70196, Note_on_c, 1, 38, 0
1, 70199, Note_on_c, 0, 71, 0
1, 70200, Note_on_c, 0, 73, 64
1, 70223, Note_on_c, 0, 73, 0
1, 70224, Note_on_c, 0, 74, 64
1, 70224, Note_on_c, 1, 49, 64
1, 70224, Note_on_c, 1, 37, 64
1, 70244, Note_on_c, 1, 49, 0
1, 70244, Note_on_c, 1, 37, 0
1, 70247, Note_on_c, 0, 74, 0
1, 70248, Note_on_c, 0, 73, 64
1, 70271, Note_on_c, 0, 73, 0
1, 70272, Note_on_c, 0, 71, 64
1, 70272, Note_on_c, 1, 47, 64
1, 70272, Note_on_c, 1, 35, 64
1, 70295, Note_on_c, 0, 71, 0
1, 70296, Note_on_c, 0, 73, 64
1, 70319, Note_on_c, 0, 73, 0
1, 70320, Note_on_c, 0, 74, 64
1, 70343, Note_on_c, 0, 74, 0
1, 70344, Note_on_c, 0, 73, 64
1, 70361, Note_on_c, 1, 47, 0
1, 70361, Note_on_c, 1, 35, 0
1, 70367, Note_on_c, 0, 73, 0
1, 70368, Note_on_c, 0, 71, 64
1, 70391, Note_on_c, 0, 71, 0
1, 70392, Note_on_c, 0, 73, 64
1, 70415, Note_on_c, 0, 73, 0
1, 70416, Note_on_c, 0, 74, 64
1, 70416, Note_on_c, 1, 52, 64
1, 70416, Note_on_c, 1, 40, 64
1, 70436, Note_on_c, 1, 52, 0
1, 70436, Note_on_c, 1, 40, 0
1, 70439, Note_on_c, 0, 74, 0
1, 70440, Note_on_c, 0, 73, 64
1, 70463, Note_on_c, 0, 73, 0
1, 70464, Note_on_c, 0, 71, 64
1, 70464, Note_on_c, 1, 50, 64
1, 70464, Note_on_c, 1, 38, 64
1, 70484, Note_on_c, 1, 50, 0
1, 70484, Note_on_c, 1, 38, 0
1, 70487, Note_on_c, 0, 71, 0
1, 70488, Note_on_c, 0, 73, 64
1, 70511, Note_on_c, 0, 73, 0
1, 70512, Note_on_c, 0, 74, 64
1, 70512, Note_on_c, 1, 49, 64
1, 70512, Note_on_c, 1, 37, 64
1, 70532, Note_on_c, 1, 49, 0
1, 70532, Note_on_c, 1, 37, 0
1, 70535, Note_on_c, 0, 74, 0
1, 70536, Note_on_c, 0, 73, 64
1, 70559, Note_on_c, 0, 73, 0
1, 70560, Note_on_c, 0, 71, 64
1, 70560, Note_on_c, 1, 47, 64
1, 70560, Note_on_c, 1, 35, 64
1, 70580, Note_on_c, 1, 47, 0
1, 70580, Note_on_c, 1, 35, 0
1, 70583, Note_on_c, 0, 71, 0
1, 70584, Note_on_c, 0, 73, 64
1, 70607, Note_on_c, 0, 73, 0
1, 70608, Note_on_c, 0, 74, 64
1, 70608, Note_on_c, 1, 45, 64
1, 70608, Note_on_c, 1, 33, 64
1, 70628, Note_on_c, 1, 45, 0
1, 70628, Note_on_c, 1, 33, 0
1, 70631, Note_on_c, 0, 74, 0
1, 70632, Note_on_c, 0, 73, 64
1, 70655, Note_on_c, 0, 73, 0
1, 70656, Note_on_c, 0, 71, 64
1, 70656, Note_on_c, 1, 43, 64
1, 70656, Note_on_c, 1, 31, 64
1, 70679, Note_on_c, 0, 71, 0
1, 70680, Note_on_c, 0, 73, 64
1, 70703, Note_on_c, 0, 73, 0
1, 70704, Note_on_c, 0, 74, 64
1, 70727, Note_on_c, 0, 74, 0
1, 70728, Note_on_c, 0, 73, 64
1, 70745, Note_on_c, 1, 43, 0
1, 70745, Note_on_c, 1, 31, 0
1, 70751, Note_on_c, 0, 73, 0
1, 70752, Note_on_c, 0, 71, 64
1, 70775, Note_on_c, 0, 71, 0
1, 70776, Note_on_c, 0, 73, 64
1, 70799, Note_on_c, 0, 73, 0
1, 70800, Note_on_c, 0, 74, 64
1, 70823, Note_on_c, 0, 74, 0
1, 70824, Note_on_c, 0, 73, 64
1, 70847, Note_on_c, 0, 73, 0
1, 70848, Note_on_c, 0, 71, 64
1, 70848, Note_on_c, 1, 65, 64
1, 70848, Note_on_c, 1, 55, 64
1, 70871, Note_on_c, 0, 71, 0
1, 70872, Note_on_c, 0, 73, 64
1, 70895, Note_on_c, 0, 73, 0
1, 70896, Note_on_c, 0, 74, 64
1, 70919, Note_on_c, 0, 74, 0
1, 70920, Note_on_c, 0, 76, 64
1, 70943, Note_on_c, 0, 76, 0
1, 70944, Note_on_c, 0, 78, 64
1, 70967, Note_on_c, 0, 78, 0
1, 70968, Note_on_c, 0, 80, 64
1, 70991, Note_on_c, 0, 80, 0
1, 70992, Note_on_c, 0, 82, 64
1, 71015, Note_on_c, 0, 82, 0
1, 71016, Note_on_c, 0, 83, 64
1, 71025, Note_on_c, 1, 65, 0
1, 71025, Note_on_c, 1, 55, 0
1, 71039, Note_on_c, 0, 83, 0
1, 71040, Note_on_c, 0, 82, 64
1, 71040, Note_on_c, 1, 54, 64
1, 71063, Note_on_c, 0, 82, 0
1, 71064, Note_on_c, 0, 78, 64
1, 71087, Note_on_c, 0, 78, 0
1, 71088, Note_on_c, 0, 77, 64
1, 71111, Note_on_c, 0, 77, 0
1, 71112, Note_on_c, 0, 78, 64
1, 71129, Note_on_c, 1, 54, 0
1, 71135, Note_on_c, 0, 78, 0
1, 71136, Note_on_c, 0, 76, 64
1, 71136, Note_on_c, 1, 70, 64
1, 71159, Note_on_c, 0, 76, 0
1, 71160, Note_on_c, 0, 79, 64
1, 71175, Note_on_c, 1, 70, 0
1, 71183, Note_on_c, 0, 79, 0
1, 71184, Note_on_c, 0, 78, 64
1, 71207, Note_on_c, 0, 78, 0
1, 71208, Note_on_c, 0, 76, 64
1, 71231, Note_on_c, 0, 76, 0
1, 71232, Note_on_c, 0, 74, 64
1, 71232, Note_on_c, 1, 71, 64
1, 71255, Note_on_c, 0, 74, 0
1, 71256, Note_on_c, 0, 78, 64
1, 71271, Note_on_c, 1, 71, 0
1, 71279, Note_on_c, 0, 78, 0
1, 71280, Note_on_c, 0, 76, 64
1, 71303, Note_on_c, 0, 76, 0
1, 71304, Note_on_c, 0, 74, 64
1, 71327, Note_on_c, 0, 74, 0
1, 71328, Note_on_c, 0, 73, 64
1, 71328, Note_on_c, 1, 64, 64
1, 71351, Note_on_c, 0, 73, 0
1, 71352, Note_on_c, 0, 76, 64
1, 71367, Note_on_c, 1, 64, 0
1, 71375, Note_on_c, 0, 76, 0
1, 71376, Note_on_c, 0, 74, 64
1, 71399, Note_on_c, 0, 74, 0
1, 71400, Note_on_c, 0, 73, 64
1, 71423, Note_on_c, 0, 73, 0
1, 71424, Note_on_c, 0, 78, 64
1, 71424, Note_on_c, 1, 62, 64
1, 71447, Note_on_c, 0, 78, 0
1, 71448, Note_on_c, 0, 74, 64
1, 71463, Note_on_c, 1, 62, 0
1, 71471, Note_on_c, 0, 74, 0
1, 71472, Note_on_c, 0, 73, 64
1, 71495, Note_on_c, 0, 73, 0
1, 71496, Note_on_c, 0, 71, 64
1, 71519, Note_on_c, 0, 71, 0
1, 71520, Note_on_c, 0, 79, 64
1, 71520, Note_on_c, 1, 64, 64
1, 71543, Note_on_c, 0, 79, 0
1, 71544, Note_on_c, 0, 76, 64
1, 71559, Note_on_c, 1, 64, 0
1, 71567, Note_on_c, 0, 76, 0
1, 71568, Note_on_c, 0, 74, 64
1, 71591, Note_on_c, 0, 74, 0
1, 71592, Note_on_c, 0, 73, 64
1, 71615, Note_on_c, 0, 73, 0
1, 71616, Note_on_c, 0, 74, 64
1, 71616, Note_on_c, 1, 66, 64
1, 71635, Note_on_c, 0, 74, 0
1, 71636, Note_on_c, 0, 73, 64
1, 71655, Note_on_c, 0, 73, 0
1, 71656, Note_on_c, 0, 74, 64
1, 71674, Note_on_c, 0, 74, 0
1, 71675, Note_on_c, 0, 73, 64
1, 71693, Note_on_c, 0, 73, 0
1, 71694, Note_on_c, 0, 74, 64
1, 71705, Note_on_c, 1, 66, 0
1, 71712, Note_on_c, 0, 74, 0
1, 71712, Note_on_c, 1, 54, 64
1, 71713, Note_on_c, 0, 73, 64
1, 71731, Note_on_c, 0, 73, 0
1, 71732, Note_on_c, 0, 74, 64
1, 71750, Note_on_c, 0, 74, 0
1, 71751, Note_on_c, 0, 73, 64
1, 71769, Note_on_c, 0, 73, 0
1, 71770, Note_on_c, 0, 71, 64
1, 71788, Note_on_c, 0, 71, 0
1, 71789, Note_on_c, 0, 73, 64
1, 71801, Note_on_c, 1, 54, 0
1, 71807, Note_on_c, 0, 73, 0
1, 71808, Note_on_c, 0, 71, 64
1, 71808, Note_on_c, 1, 62, 64
1, 71808, Note_on_c, 1, 59, 64
1, 71831, Note_on_c, 0, 71, 0
1, 71832, Note_on_c, 0, 78, 64
1, 71847, Note_on_c, 1, 62, 0
1, 71847, Note_on_c, 1, 59, 0
1, 71855, Note_on_c, 0, 78, 0
1, 71856, Note_on_c, 0, 74, 64
1, 71879, Note_on_c, 0, 74, 0
1, 71880, Note_on_c, 0, 71, 64
1, 71903, Note_on_c, 0, 71, 0
1, 71904, Note_on_c, 0, 70, 64
1, 71904, Note_on_c, 1, 64, 64
1, 71904, Note_on_c, 1, 54, 64
1, 71927, Note_on_c, 0, 70, 0
1, 71928, Note_on_c, 0, 76, 64
1, 71951, Note_on_c, 0, 76, 0
1, 71952, Note_on_c, 0, 73, 64
1, 71975, Note_on_c, 0, 73, 0
1, 71976, Note_on_c, 0, 70, 64
1, 71993, Note_on_c, 1, 64, 0
1, 71993, Note_on_c, 1, 54, 0
1, 71999, Note_on_c, 0, 70, 0
1, 72000, Note_on_c, 0, 71, 64
1, 72000, Note_on_c, 1, 62, 64
1, 72000, Note_on_c, 1, 59, 64
1, 72023, Note_on_c, 0, 71, 0
1, 72024, Note_on_c, 0, 78, 64
1, 72039, Note_on_c, 1, 62, 0
1, 72039, Note_on_c, 1, 59, 0
1, 72047, Note_on_c, 0, 78, 0
1, 72048, Note_on_c, 0, 74, 64
1, 72071, Note_on_c, 0, 74, 0
1, 72072, Note_on_c, 0, 71, 64
1, 72095, Note_on_c, 0, 71, 0
1, 72096, Note_on_c, 0, 70, 64
1, 72096, Note_on_c, 1, 64, 64
1, 72096, Note_on_c, 1, 54, 64
1, 72119, Note_on_c, 0, 70, 0
1, 72120, Note_on_c, 0, 76, 64
1, 72143, Note_on_c, 0, 76, 0
1, 72144, Note_on_c, 0, 73, 64
1, 72167, Note_on_c, 0, 73, 0
1, 72168, Note_on_c, 0, 70, 64
1, 72185, Note_on_c, 1, 64, 0
1, 72185, Note_on_c, 1, 54, 0
1, 72191, Note_on_c, 0, 70, 0
1, 72192, Note_on_c, 0, 71, 64
1, 72192, Note_on_c, 1, 62, 64
1, 72192, Note_on_c, 1, 59, 64
1, 72215, Note_on_c, 0, 71, 0
1, 72216, Note_on_c, 0, 78, 64
1, 72231, Note_on_c, 1, 62, 0
1, 72231, Note_on_c, 1, 59, 0
1, 72239, Note_on_c, 0, 78, 0
1, 72240, Note_on_c, 0, 74, 64
1, 72263, Note_on_c, 0, 74, 0
1, 72264, Note_on_c, 0, 71, 64
1, 72287, Note_on_c, 0, 71, 0
1, 72288, Note_on_c, 0, 70, 64
1, 72288, Note_on_c, 1, 64, 64
1, 72288, Note_on_c, 1, 54, 64
1, 72311, Note_on_c, 0, 70, 0
1, 72312, Note_on_c, 0, 76, 64
1, 72335, Note_on_c, 0, 76, 0
1, 72336, Note_on_c, 0, 73, 64
1, 72359, Note_on_c, 0, 73, 0
1, 72360, Note_on_c, 0, 70, 64
1, 72377, Note_on_c, 1, 64, 0
1, 72377, Note_on_c, 1, 54, 0
1, 72383, Note_on_c, 0, 70, 0
1, 72384, Note_on_c, 0, 71, 64
1, 72384, Note_on_c, 1, 62, 64
1, 72384, Note_on_c, 1, 59, 64
1, 72407, Note_on_c, 0, 71, 0
1, 72408, Note_on_c, 0, 78, 64
1, 72423, Note_on_c, 1, 62, 0
1, 72423, Note_on_c, 1, 59, 0
1, 72431, Note_on_c, 0, 78, 0
1, 72432, Note_on_c, 0, 74, 64
1, 72455, Note_on_c, 0, 74, 0
1, 72456, Note_on_c, 0, 71, 64
1, 72479, Note_on_c, 0, 71, 0
1, 72480, Note_on_c, 0, 70, 64
1, 72480, Note_on_c, 1, 64, 64
1, 72480, Note_on_c, 1, 54, 64
1, 72503, Note_on_c, 0, 70, 0
1, 72504, Note_on_c, 0, 76, 64
1, 72527, Note_on_c, 0, 76, 0
1, 72528, Note_on_c, 0, 73, 64
1, 72551, Note_on_c, 0, 73, 0
1, 72552, Note_on_c, 0, 70, 64
1, 72569, Note_on_c, 1, 64, 0
1, 72569, Note_on_c, 1, 54, 0
1, 72575, Note_on_c, 0, 70, 0
1, 72576, Note_on_c, 0, 71, 64
1, 72576, Note_on_c, 1, 62, 64
1, 72576, Note_on_c, 1, 59, 64
1, 72615, Note_on_c, 1, 62, 0
1, 72615, Note_on_c, 1, 59, 0
1, 72624, Note_on_c, 0, 74, 64
1, 72669, Note_on_c, 0, 74, 0
1, 72669, Note_on_c, 0, 71, 0
1, 72672, Note_on_c, 0, 74, 64
1, 72672, Note_on_c, 0, 71, 64
1, 72692, Note_on_c, 0, 74, 0
1, 72692, Note_on_c, 0, 71, 0
1, 72720, Note_on_c, 0, 74, 64
1, 72720, Note_on_c, 0, 71, 64
1, 72740, Note_on_c, 0, 74, 0
1, 72740, Note_on_c, 0, 71, 0
1, 72768, Note_on_c, 0, 78, 64
1, 72768, Note_on_c, 0, 74, 64
1, 72816, Note_on_c, 0, 78, 0
1, 72816, Note_on_c, 0, 71, 64
1, 72861, Note_on_c, 0, 74, 0
1, 72861, Note_on_c, 0, 71, 0
1, 72864, Note_on_c, 0, 74, 64
1, 72864, Note_on_c, 0, 71, 64
1, 72884, Note_on_c, 0, 74, 0
1, 72884, Note_on_c, 0, 71, 0
1, 72912, Note_on_c, 0, 74, 64
1, 72912, Note_on_c, 0, 71, 64
1, 72932, Note_on_c, 0, 74, 0
1, 72932, Note_on_c, 0, 71, 0
1, 72960, Note_on_c, 0, 86, 64
1, 72960, Note_on_c, 0, 83, 64
1, 73049, Note_on_c, 0, 86, 0
1, 73049, Note_on_c, 0, 83, 0
1, 73296, Note_on_c, 0, 71, 64
1, 73296, Note_on_c, 0, 59, 64
1, 73296, Note_on_c, 1, 47, 64
1, 73296, Note_on_c, 1, 35, 64
1, 73316, Note_on_c, 0, 71, 0
1, 73316, Note_on_c, 0, 59, 0
1, 73316, Note_on_c, 1, 47, 0
1, 73316, Note_on_c, 1, 35, 0
1, 73344, Note_on_c, 0, 71, 64
1, 73344, Note_on_c, 0, 59, 64
1, 73344, Note_on_c, 1, 47, 64
1, 73344, Note_on_c, 1, 35, 64
1, 73364, Note_on_c, 0, 71, 0
1, 73364, Note_on_c, 0, 59, 0
1, 73364, Note_on_c, 1, 47, 0
1, 73364, Note_on_c, 1, 35, 0
1, 73392, Note_on_c, 0, 71, 64
1, 73392, Note_on_c, 0, 59, 64
1, 73392, Note_on_c, 1, 47, 64
1, 73392, Note_on_c, 1, 35, 64
1, 73412, Note_on_c, 0, 71, 0
1, 73412, Note_on_c, 0, 59, 0
1, 73412, Note_on_c, 1, 47, 0
1, 73412, Note_on_c, 1, 35, 0
1, 73440, Note_on_c, 0, 71, 64
1, 73440, Note_on_c, 0, 59, 64
1, 73440, Note_on_c, 1, 47, 64
1, 73440, Note_on_c, 1, 35, 64
1, 73460, Note_on_c, 0, 71, 0
1, 73460, Note_on_c, 0, 59, 0
1, 73460, Note_on_c, 1, 47, 0
1, 73460, Note_on_c, 1, 35, 0
1, 73488, Note_on_c, 0, 71, 64
1, 73488, Note_on_c, 0, 59, 64
1, 73488, Note_on_c, 1, 47, 64
1, 73488, Note_on_c, 1, 35, 64
1, 73508, Note_on_c, 0, 71, 0
1, 73508, Note_on_c, 0, 59, 0
1, 73508, Note_on_c, 1, 47, 0
1, 73508, Note_on_c, 1, 35, 0
1, 73536, Note_on_c, 0, 74, 64
1, 73536, Note_on_c, 0, 62, 64
1, 73536, Note_on_c, 1, 50, 64
1, 73536, Note_on_c, 1, 38, 64
1, 73581, Note_on_c, 0, 74, 0
1, 73581, Note_on_c, 0, 62, 0
1, 73581, Note_on_c, 1, 50, 0
1, 73581, Note_on_c, 1, 38, 0
1, 73584, Note_on_c, 0, 73, 64
1, 73584, Note_on_c, 0, 61, 64
1, 73584, Note_on_c, 1, 49, 64
1, 73584, Note_on_c, 1, 37, 64
1, 73629, Note_on_c, 0, 73, 0
1, 73629, Note_on_c, 0, 61, 0
1, 73629, Note_on_c, 1, 49, 0
1, 73629, Note_on_c, 1, 37, 0
1, 73632, Note_on_c, 0, 71, 64
1, 73632, Note_on_c, 0, 59, 64
1, 73632, Note_on_c, 1, 47, 64
1, 73632, Note_on_c, 1, 35, 64
1, 73677, Note_on_c, 0, 71, 0
1, 73677, Note_on_c, 0, 59, 0
1, 73677, Note_on_c, 1, 47, 0
1, 73677, Note_on_c, 1, 35, 0
1, 73680, Note_on_c, 0, 79, 64
1, 73680, Note_on_c, 0, 67, 64
1, 73680, Note_on_c, 1, 55, 64
1, 73680, Note_on_c, 1, 43, 64
1, 73700, Note_on_c, 0, 79, 0
1, 73700, Note_on_c, 0, 67, 0
1, 73700, Note_on_c, 1, 55, 0
1, 73700, Note_on_c, 1, 43, 0
1, 73728, Note_on_c, 0, 78, 64
1, 73728, Note_on_c, 0, 66, 64
1, 73728, Note_on_c, 1, 54, 64
1, 73728, Note_on_c, 1, 42, 64
1, 73773, Note_on_c, 0, 78, 0
1, 73773, Note_on_c, 0, 66, 0
1, 73773, Note_on_c, 1, 54, 0
1, 73773, Note_on_c, 1, 42, 0
1, 73776, Note_on_c, 0, 77, 64
1, 73776, Note_on_c, 0, 65, 64
1, 73776, Note_on_c, 1, 53, 64
1, 73776, Note_on_c, 1, 41, 64
1, 73821, Note_on_c, 0, 77, 0
1, 73821, Note_on_c, 0, 65, 0
1, 73821, Note_on_c, 1, 53, 0
1, 73821, Note_on_c, 1, 41, 0
1, 73824, Note_on_c, 0, 78, 64
1, 73824, Note_on_c, 0, 66, 64
1, 73824, Note_on_c, 1, 54, 64
1, 73824, Note_on_c, 1, 42, 64
1, 73869, Note_on_c, 0, 78, 0
1, 73869, Note_on_c, 0, 66, 0
1, 73869, Note_on_c, 1, 54, 0
1, 73869, Note_on_c, 1, 42, 0
1, 73872, Note_on_c, 0, 76, 64
1, 73872, Note_on_c, 0, 64, 64
1, 73872, Note_on_c, 1, 52, 64
1, 73872, Note_on_c, 1, 40, 64
1, 73892, Note_on_c, 0, 76, 0
1, 73892, Note_on_c, 0, 64, 0
1, 73892, Note_on_c, 1, 52, 0
1, 73892, Note_on_c, 1, 40, 0
1, 73920, Note_on_c, 0, 74, 64
1, 73920, Note_on_c, 0, 62, 64
1, 73920, Note_on_c, 1, 50, 64
1, 73920, Note_on_c, 1, 38, 64
1, 73965, Note_on_c, 0, 74, 0
1, 73965, Note_on_c, 0, 62, 0
1, 73965, Note_on_c, 1, 50, 0
1, 73965, Note_on_c, 1, 38, 0
1, 73968, Note_on_c, 0, 73, 64
1, 73968, Note_on_c, 0, 61, 64
1, 73968, Note_on_c, 1, 49, 64
1, 73968, Note_on_c, 1, 37, 64
1, 74013, Note_on_c, 0, 73, 0
1, 74013, Note_on_c, 0, 61, 0
1, 74013, Note_on_c, 1, 49, 0
1, 74013, Note_on_c, 1, 37, 0
1, 74016, Note_on_c, 0, 74, 64
1, 74016, Note_on_c, 0, 62, 64
1, 74016, Note_on_c, 1, 50, 64
1, 74016, Note_on_c, 1, 38, 64
1, 74061, Note_on_c, 0, 74, 0
1, 74061, Note_on_c, 0, 62, 0
1, 74061, Note_on_c, 1, 50, 0
1, 74061, Note_on_c, 1, 38, 0
1, 74064, Note_on_c, 0, 73, 64
1, 74064, Note_on_c, 0, 61, 64
1, 74064, Note_on_c, 1, 49, 64
1, 74064, Note_on_c, 1, 37, 64
1, 74084, Note_on_c, 0, 73, 0
1, 74084, Note_on_c, 0, 61, 0
1, 74084, Note_on_c, 1, 49, 0
1, 74084, Note_on_c, 1, 37, 0
1, 74112, Note_on_c, 0, 71, 64
1, 74112, Note_on_c, 0, 59, 64
1, 74112, Note_on_c, 1, 47, 64
1, 74112, Note_on_c, 1, 35, 64
1, 74157, Note_on_c, 0, 71, 0
1, 74157, Note_on_c, 0, 59, 0
1, 74157, Note_on_c, 1, 47, 0
1, 74157, Note_on_c, 1, 35, 0
1, 74160, Note_on_c, 0, 70, 64
1, 74160, Note_on_c, 0, 58, 64
1, 74160, Note_on_c, 1, 46, 64
1, 74160, Note_on_c, 1, 34, 64
1, 74205, Note_on_c, 0, 70, 0
1, 74205, Note_on_c, 0, 58, 0
1, 74205, Note_on_c, 1, 46, 0
1, 74205, Note_on_c, 1, 34, 0
1, 74208, Note_on_c, 0, 71, 64
1, 74208, Note_on_c, 0, 59, 64
1, 74208, Note_on_c, 1, 47, 64
1, 74208, Note_on_c, 1, 35, 64
1, 74253, Note_on_c, 0, 71, 0
1, 74253, Note_on_c, 0, 59, 0
1, 74253, Note_on_c, 1, 47, 0
1, 74253, Note_on_c, 1, 35, 0
1, 74256, Note_on_c, 0, 69, 64
1, 74256, Note_on_c, 0, 57, 64
1, 74256, Note_on_c, 1, 45, 64
1, 74256, Note_on_c, 1, 33, 64
1, 74276, Note_on_c, 0, 69, 0
1, 74276, Note_on_c, 0, 57, 0
1, 74276, Note_on_c, 1, 45, 0
1, 74276, Note_on_c, 1, 33, 0
1, 74304, Note_on_c, 0, 67, 64
1, 74304, Note_on_c, 0, 55, 64
1, 74304, Note_on_c, 1, 43, 64
1, 74304, Note_on_c, 1, 31, 64
1, 74393, Note_on_c, 0, 67, 0
1, 74393, Note_on_c, 0, 55, 0
1, 74393, Note_on_c, 1, 43, 0
1, 74393, Note_on_c, 1, 31, 0
1, 74496, Note_on_c, 1, 58, 64
1, 74496, Note_on_c, 1, 52, 64
1, 74496, Note_on_c, 1, 49, 64
1, 74496, Note_on_c, 1, 42, 64
1, 74585, Note_on_c, 1, 58, 0
1, 74585, Note_on_c, 1, 52, 0
1, 74585, Note_on_c, 1, 49, 0
1, 74585, Note_on_c, 1, 42, 0
1, 74688, Note_on_c, 1, 59, 64
1, 74688, Note_on_c, 1, 54, 64
1, 74688, Note_on_c, 1, 50, 64
1, 74688, Note_on_c, 1, 47, 64
1, 74688, Note_on_c, 1, 35, 64
1, 74777, Note_on_c, 1, 59, 0
1, 74777, Note_on_c, 1, 54, 0
1, 74777, Note_on_c, 1, 50, 0
1, 74777, Note_on_c, 1, 47, 0
1, 74777, Note_on_c, 1, 35, 0
1, 74787, End_track
0, 0, End_of_file