0, 0, Header, 0, 1, 96
1, 0, Start_track
1, 0, Tempo, 400000
1, 96, Note_on_c, 0, 79, 64
1, 116, Note_on_c, 0, 79, 0
1, 144, Note_on_c, 0, 79, 64
1, 164, Note_on_c, 0, 79, 0
1, 192, Note_on_c, 0, 81, 64
1, 192, Note_on_c, 1, 64, 64
1, 192, Note_on_c, 1, 60, 64
1, 215, Note_on_c, 0, 81, 0
1, 216, Note_on_c, 0, 79, 64
1, 239, Note_on_c, 0, 79, 0
1, 240, Note_on_c, 0, 77, 64
1, 263, Note_on_c, 0, 77, 0
1, 264, Note_on_c, 0, 76, 64
1, 281, Note_on_c, 1, 64, 0
1, 281, Note_on_c, 1, 60, 0
1, 287, Note_on_c, 0, 76, 0
1, 288, Note_on_c, 0, 76, 64
1, 288, Note_on_c, 1, 65, 64
1, 288, Note_on_c, 1, 60, 64
1, 311, Note_on_c, 0, 76, 0
1, 312, Note_on_c, 0, 74, 64
1, 335, Note_on_c, 0, 74, 0
1, 336, Note_on_c, 0, 72, 64
1, 359, Note_on_c, 0, 72, 0
1, 360, Note_on_c, 0, 71, 64
1, 377, Note_on_c, 1, 65, 0
1, 377, Note_on_c, 1, 60, 0
1, 383, Note_on_c, 0, 71, 0
1, 384, Note_on_c, 0, 72, 64
1, 384, Note_on_c, 1, 64, 64
1, 384, Note_on_c, 1, 60, 64
1, 432, Note_on_c, 0, 72, 0
1, 432, Note_on_c, 0, 67, 64
1, 473, Note_on_c, 1, 64, 0
1, 473, Note_on_c, 1, 60, 0
1, 477, Note_on_c, 0, 67, 0
1, 480, Note_on_c, 0, 72, 64
1, 528, Note_on_c, 0, 72, 0
1, 528, Note_on_c, 0, 73, 64
1, 548, Note_on_c, 0, 73, 0
1, 576, Note_on_c, 0, 74, 64
1, 576, Note_on_c, 1, 59, 64
1, 624, Note_on_c, 0, 74, 0
1, 624, Note_on_c, 0, 67, 64
1, 665, Note_on_c, 1, 59, 0
1, 669, Note_on_c, 0, 67, 0
1, 672, Note_on_c, 0, 74, 64
1, 720, Note_on_c, 0, 74, 0
1, 720, Note_on_c, 0, 75, 64
1, 740, Note_on_c, 0, 75, 0
1, 768, Note_on_c, 0, 76, 64
1, 768, Note_on_c, 1, 60, 64
1, 816, Note_on_c, 0, 76, 0
1, 816, Note_on_c, 0, 72, 64
1, 857, Note_on_c, 1, 60, 0
1, 861, Note_on_c, 0, 72, 0
1, 864, Note_on_c, 0, 76, 75
1, 864, Note_on_c, 1, 72, 64
1, 884, Note_on_c, 0, 76, 0
1, 909, Note_on_c, 1, 72, 0
1, 912, Note_on_c, 0, 77, 76
1, 912, Note_on_c, 1, 74, 64
1, 932, Note_on_c, 0, 77, 0
1, 957, Note_on_c, 1, 74, 0
1, 960, Note_on_c, 0, 78, 77
1, 960, Note_on_c, 1, 76, 64
1, 983, Note_on_c, 0, 78, 0
1, 984, Note_on_c, 0, 79, 78
1, 1007, Note_on_c, 0, 79, 0
1, 1008, Note_on_c, 0, 81, 78
1, 1031, Note_on_c, 0, 81, 0
1, 1032, Note_on_c, 0, 79, 79
1, 1049, Note_on_c, 1, 76, 0
1, 1055, Note_on_c, 0, 79, 0
1, 1056, Note_on_c, 0, 77, 80
1, 1056, Note_on_c, 1, 74, 64
1, 1076, Note_on_c, 0, 77, 0
1, 1101, Note_on_c, 1, 74, 0
1, 1104, Note_on_c, 0, 76, 78
1, 1104, Note_on_c, 1, 72, 64
1, 1124, Note_on_c, 0, 76, 0
1, 1149, Note_on_c, 1, 72, 0
1, 1152, Note_on_c, 0, 74, 76
1, 1152, Note_on_c, 1, 71, 64
1, 1152, Note_on_c, 1, 67, 64
1, 1197, Note_on_c, 0, 74, 0
1, 1241, Note_on_c, 1, 71, 0
1, 1241, Note_on_c, 1, 67, 0
1, 1248, Note_on_c, 0, 79, 75
1, 1268, Note_on_c, 0, 79, 0
1, 1296, Note_on_c, 0, 79, 75
1, 1316, Note_on_c, 0, 79, 0
1, 1344, Note_on_c, 0, 81, 75
1, 1344, Note_on_c, 1, 64, 64
1, 1344, Note_on_c, 1, 60, 64
1, 1367, Note_on_c, 0, 81, 0
1, 1368, Note_on_c, 0, 79, 75
1, 1391, Note_on_c, 0, 79, 0
1, 1392, Note_on_c, 0, 77, 75
1, 1415, Note_on_c, 0, 77, 0
1, 1416, Note_on_c, 0, 76, 75
1, 1433, Note_on_c, 1, 64, 0
1, 1433, Note_on_c, 1, 60, 0
1, 1439, Note_on_c, 0, 76, 0
1, 1440, Note_on_c, 0, 76, 75
1, 1440, Note_on_c, 1, 65, 64
1, 1440, Note_on_c, 1, 60, 64
1, 1463, Note_on_c, 0, 76, 0
1, 1464, Note_on_c, 0, 74, 75
1, 1487, Note_on_c, 0, 74, 0
1, 1488, Note_on_c, 0, 72, 75
1, 1511, Note_on_c, 0, 72, 0
1, 1512, Note_on_c, 0, 71, 75
1, 1529, Note_on_c, 1, 65, 0
1, 1529, Note_on_c, 1, 60, 0
1, 1535, Note_on_c, 0, 71, 0
1, 1536, Note_on_c, 0, 72, 75
1, 1536, Note_on_c, 1, 64, 64
1, 1536, Note_on_c, 1, 60, 64
1, 1584, Note_on_c, 0, 72, 0
1, 1584, Note_on_c, 0, 67, 75
1, 1625, Note_on_c, 1, 64, 0
1, 1625, Note_on_c, 1, 60, 0
1, 1629, Note_on_c, 0, 67, 0
1, 1632, Note_on_c, 0, 79, 75
1, 1680, Note_on_c, 0, 79, 0
1, 1680, Note_on_c, 0, 73, 76
1, 1700, Note_on_c, 0, 73, 0
1, 1728, Note_on_c, 0, 74, 76
1, 1728, Note_on_c, 1, 67, 64
1, 1728, Note_on_c, 1, 59, 64
1, 1776, Note_on_c, 0, 74, 0
1, 1776, Note_on_c, 0, 67, 77
1, 1817, Note_on_c, 1, 67, 0
1, 1817, Note_on_c, 1, 59, 0
1, 1821, Note_on_c, 0, 67, 0
1, 1824, Note_on_c, 0, 79, 77
1, 1872, Note_on_c, 0, 79, 0
1, 1872, Note_on_c, 0, 75, 78
1, 1892, Note_on_c, 0, 75, 0
1, 1920, Note_on_c, 0, 76, 78
1, 1920, Note_on_c, 1, 67, 64
1, 1920, Note_on_c, 1, 60, 64
1, 1968, Note_on_c, 0, 76, 0
1, 1968, Note_on_c, 0, 72, 79
1, 2009, Note_on_c, 1, 67, 0
1, 2009, Note_on_c, 1, 60, 0
1, 2013, Note_on_c, 0, 72, 0
1, 2016, Note_on_c, 0, 84, 80
1, 2016, Note_on_c, 0, 76, 80
1, 2036, Note_on_c, 0, 84, 0
1, 2036, Note_on_c, 0, 76, 0
1, 2064, Note_on_c, 0, 83, 80
1, 2064, Note_on_c, 0, 74, 80
1, 2084, Note_on_c, 0, 83, 0
1, 2084, Note_on_c, 0, 74, 0
1, 2112, Note_on_c, 0, 82, 80
1, 2112, Note_on_c, 0, 73, 80
1, 2132, Note_on_c, 0, 82, 0
1, 2132, Note_on_c, 0, 73, 0
1, 2160, Note_on_c, 0, 81, 80
1, 2160, Note_on_c, 0, 72, 80
1, 2160, Note_on_c, 1, 63, 64
1, 2180, Note_on_c, 0, 81, 0
1, 2180, Note_on_c, 0, 72, 0
1, 2205, Note_on_c, 1, 63, 0
1, 2208, Note_on_c, 0, 79, 80
1, 2208, Note_on_c, 0, 71, 80
1, 2208, Note_on_c, 1, 62, 64
1, 2228, Note_on_c, 0, 79, 0
1, 2228, Note_on_c, 0, 71, 0
1, 2253, Note_on_c, 1, 62, 0
1, 2256, Note_on_c, 0, 78, 80
1, 2256, Note_on_c, 0, 69, 80
1, 2256, Note_on_c, 1, 50, 64
1, 2276, Note_on_c, 0, 78, 0
1, 2276, Note_on_c, 0, 69, 0
1, 2301, Note_on_c, 1, 50, 0
1, 2304, Note_on_c, 0, 79, 80
1, 2304, Note_on_c, 0, 67, 80
1, 2304, Note_on_c, 1, 55, 64
1, 2349, Note_on_c, 1, 55, 0
1, 2352, Note_on_c, 1, 43, 64
1, 2393, Note_on_c, 0, 79, 0
1, 2393, Note_on_c, 0, 67, 0
1, 2397, Note_on_c, 1, 43, 0
1, 2400, Note_on_c, 0, 79, 64
1, 2420, Note_on_c, 0, 79, 0
1, 2448, Note_on_c, 0, 79, 64
1, 2468, Note_on_c, 0, 79, 0
1, 2496, Note_on_c, 0, 81, 64
1, 2496, Note_on_c, 1, 64, 64
1, 2496, Note_on_c, 1, 60, 64
1, 2519, Note_on_c, 0, 81, 0
1, 2520, Note_on_c, 0, 79, 64
1, 2543, Note_on_c, 0, 79, 0
1, 2544, Note_on_c, 0, 77, 64
1, 2567, Note_on_c, 0, 77, 0
1, 2568, Note_on_c, 0, 76, 64
1, 2585, Note_on_c, 1, 64, 0
1, 2585, Note_on_c, 1, 60, 0
1, 2591, Note_on_c, 0, 76, 0
1, 2592, Note_on_c, 0, 76, 64
1, 2592, Note_on_c, 1, 65, 64
1, 2592, Note_on_c, 1, 60, 64
1, 2615, Note_on_c, 0, 76, 0
1, 2616, Note_on_c, 0, 74, 64
1, 2639, Note_on_c, 0, 74, 0
1, 2640, Note_on_c, 0, 72, 64
1, 2663, Note_on_c, 0, 72, 0
1, 2664, Note_on_c, 0, 71, 64
1, 2681, Note_on_c, 1, 65, 0
1, 2681, Note_on_c, 1, 60, 0
1, 2687, Note_on_c, 0, 71, 0
1, 2688, Note_on_c, 0, 72, 64
1, 2688, Note_on_c, 1, 64, 64
1, 2688, Note_on_c, 1, 60, 64
1, 2736, Note_on_c, 0, 72, 0
1, 2736, Note_on_c, 0, 67, 64
1, 2777, Note_on_c, 1, 64, 0
1, 2777, Note_on_c, 1, 60, 0
1, 2781, Note_on_c, 0, 67, 0
1, 2784, Note_on_c, 0, 72, 64
1, 2832, Note_on_c, 0, 72, 0
1, 2832, Note_on_c, 0, 73, 64
1, 2852, Note_on_c, 0, 73, 0
1, 2880, Note_on_c, 0, 74, 64
1, 2880, Note_on_c, 1, 59, 64
1, 2928, Note_on_c, 0, 74, 0
1, 2928, Note_on_c, 0, 67, 64
1, 2969, Note_on_c, 1, 59, 0
1, 2973, Note_on_c, 0, 67, 0
1, 2976, Note_on_c, 0, 74, 64
1, 3024, Note_on_c, 0, 74, 0
1, 3024, Note_on_c, 0, 75, 64
1, 3044, Note_on_c, 0, 75, 0
1, 3072, Note_on_c, 0, 76, 64
1, 3072, Note_on_c, 1, 60, 64
1, 3120, Note_on_c, 0, 76, 0
1, 3120, Note_on_c, 0, 72, 64
1, 3161, Note_on_c, 1, 60, 0
1, 3165, Note_on_c, 0, 72, 0
1, 3168, Note_on_c, 0, 76, 75
1, 3168, Note_on_c, 1, 72, 64
1, 3188, Note_on_c, 0, 76, 0
1, 3213, Note_on_c, 1, 72, 0
1, 3216, Note_on_c, 0, 77, 76
1, 3216, Note_on_c, 1, 74, 64
1, 3236, Note_on_c, 0, 77, 0
1, 3261, Note_on_c, 1, 74, 0
1, 3264, Note_on_c, 0, 78, 77
1, 3264, Note_on_c, 1, 76, 64
1, 3287, Note_on_c, 0, 78, 0
1, 3288, Note_on_c, 0, 79, 78
1, 3311, Note_on_c, 0, 79, 0
1, 3312, Note_on_c, 0, 81, 78
1, 3335, Note_on_c, 0, 81, 0
1, 3336, Note_on_c, 0, 79, 79
1, 3353, Note_on_c, 1, 76, 0
1, 3359, Note_on_c, 0, 79, 0
1, 3360, Note_on_c, 0, 77, 80
1, 3360, Note_on_c, 1, 74, 64
1, 3380, Note_on_c, 0, 77, 0
1, 3405, Note_on_c, 1, 74, 0
1, 3408, Note_on_c, 0, 76, 78
1, 3408, Note_on_c, 1, 72, 64
1, 3428, Note_on_c, 0, 76, 0
1, 3453, Note_on_c, 1, 72, 0
1, 3456, Note_on_c, 0, 74, 76
1, 3456, Note_on_c, 1, 71, 64
1, 3456, Note_on_c, 1, 67, 64
1, 3501, Note_on_c, 0, 74, 0
1, 3545, Note_on_c, 1, 71, 0
1, 3545, Note_on_c, 1, 67, 0
1, 3552, Note_on_c, 0, 79, 75
1, 3572, Note_on_c, 0, 79, 0
1, 3600, Note_on_c, 0, 79, 75
1, 3620, Note_on_c, 0, 79, 0
1, 3648, Note_on_c, 0, 81, 75
1, 3648, Note_on_c, 1, 64, 64
1, 3648, Note_on_c, 1, 60, 64
1, 3671, Note_on_c, 0, 81, 0
1, 3672, Note_on_c, 0, 79, 75
1, 3695, Note_on_c, 0, 79, 0
1, 3696, Note_on_c, 0, 77, 75
1, 3719, Note_on_c, 0, 77, 0
1, 3720, Note_on_c, 0, 76, 75
1, 3737, Note_on_c, 1, 64, 0
1, 3737, Note_on_c, 1, 60, 0
1, 3743, Note_on_c, 0, 76, 0
1, 3744, Note_on_c, 0, 76, 75
1, 3744, Note_on_c, 1, 65, 64
1, 3744, Note_on_c, 1, 60, 64
1, 3767, Note_on_c, 0, 76, 0
1, 3768, Note_on_c, 0, 74, 75
1, 3791, Note_on_c, 0, 74, 0
1, 3792, Note_on_c, 0, 72, 75
1, 3815, Note_on_c, 0, 72, 0
1, 3816, Note_on_c, 0, 71, 75
1, 3833, Note_on_c, 1, 65, 0
1, 3833, Note_on_c, 1, 60, 0
1, 3839, Note_on_c, 0, 71, 0
1, 3840, Note_on_c, 0, 72, 75
1, 3840, Note_on_c, 1, 64, 64
1, 3840, Note_on_c, 1, 60, 64
1, 3888, Note_on_c, 0, 72, 0
1, 3888, Note_on_c, 0, 67, 75
1, 3929, Note_on_c, 1, 64, 0
1, 3929, Note_on_c, 1, 60, 0
1, 3933, Note_on_c, 0, 67, 0
1, 3936, Note_on_c, 0, 79, 75
1, 3984, Note_on_c, 0, 79, 0
1, 3984, Note_on_c, 0, 73, 76
1, 4004, Note_on_c, 0, 73, 0
1, 4032, Note_on_c, 0, 74, 76
1, 4032, Note_on_c, 1, 67, 64
1, 4032, Note_on_c, 1, 59, 64
1, 4080, Note_on_c, 0, 74, 0
1, 4080, Note_on_c, 0, 67, 77
1, 4121, Note_on_c, 1, 67, 0
1, 4121, Note_on_c, 1, 59, 0
1, 4125, Note_on_c, 0, 67, 0
1, 4128, Note_on_c, 0, 79, 77
1, 4176, Note_on_c, 0, 79, 0
1, 4176, Note_on_c, 0, 75, 78
1, 4196, Note_on_c, 0, 75, 0
1, 4224, Note_on_c, 0, 76, 78
1, 4224, Note_on_c, 1, 67, 64
1, 4224, Note_on_c, 1, 60, 64
1, 4272, Note_on_c, 0, 76, 0
1, 4272, Note_on_c, 0, 72, 79
1, 4313, Note_on_c, 1, 67, 0
1, 4313, Note_on_c, 1, 60, 0
1, 4317, Note_on_c, 0, 72, 0
1, 4320, Note_on_c, 0, 84, 80
1, 4320, Note_on_c, 0, 76, 80
1, 4340, Note_on_c, 0, 84, 0
1, 4340, Note_on_c, 0, 76, 0
1, 4368, Note_on_c, 0, 83, 80
1, 4368, Note_on_c, 0, 74, 80
1, 4388, Note_on_c, 0, 83, 0
1, 4388, Note_on_c, 0, 74, 0
1, 4416, Note_on_c, 0, 82, 80
1, 4416, Note_on_c, 0, 73, 80
1, 4436, Note_on_c, 0, 82, 0
1, 4436, Note_on_c, 0, 73, 0
1, 4464, Note_on_c, 0, 81, 80
1, 4464, Note_on_c, 0, 72, 80
1, 4464, Note_on_c, 1, 63, 64
1, 4484, Note_on_c, 0, 81, 0
1, 4484, Note_on_c, 0, 72, 0
1, 4509, Note_on_c, 1, 63, 0
1, 4512, Note_on_c, 0, 79, 80
1, 4512, Note_on_c, 0, 71, 80
1, 4512, Note_on_c, 1, 62, 64
1, 4532, Note_on_c, 0, 79, 0
1, 4532, Note_on_c, 0, 71, 0
1, 4557, Note_on_c, 1, 62, 0
1, 4560, Note_on_c, 0, 78, 80
1, 4560, Note_on_c, 0, 69, 80
1, 4560, Note_on_c, 1, 50, 64
1, 4580, Note_on_c, 0, 78, 0
1, 4580, Note_on_c, 0, 69, 0
1, 4605, Note_on_c, 1, 50, 0
1, 4608, Note_on_c, 0, 79, 80
1, 4608, Note_on_c, 0, 67, 80
1, 4608, Note_on_c, 1, 55, 64
1, 4653, Note_on_c, 1, 55, 0
1, 4656, Note_on_c, 1, 43, 64
1, 4697, Note_on_c, 0, 79, 0
1, 4697, Note_on_c, 0, 67, 0
1, 4701, Note_on_c, 1, 43, 0
1, 4704, Note_on_c, 1, 59, 64
1, 4704, Note_on_c, 1, 55, 64
1, 4724, Note_on_c, 1, 59, 0
1, 4724, Note_on_c, 1, 55, 0
1, 4752, Note_on_c, 1, 60, 64
1, 4752, Note_on_c, 1, 57, 64
1, 4772, Note_on_c, 1, 60, 0
1, 4772, Note_on_c, 1, 57, 0
1, 4800, Note_on_c, 1, 61, 64
1, 4800, Note_on_c, 1, 58, 64
1, 4848, Note_on_c, 1, 61, 0
1, 4848, Note_on_c, 1, 58, 0
1, 4848, Note_on_c, 1, 62, 64
1, 4848, Note_on_c, 1, 59, 64
1, 4893, Note_on_c, 1, 62, 0
1, 4893, Note_on_c, 1, 59, 0
1, 4896, Note_on_c, 0, 77, 75
1, 4896, Note_on_c, 0, 74, 75
1, 4916, Note_on_c, 0, 77, 0
1, 4916, Note_on_c, 0, 74, 0
1, 4944, Note_on_c, 0, 76, 75
1, 4944, Note_on_c, 0, 72, 75
1, 4964, Note_on_c, 0, 76, 0
1, 4964, Note_on_c, 0, 72, 0
1, 4992, Note_on_c, 0, 73, 75
1, 4992, Note_on_c, 0, 70, 75
1, 5040, Note_on_c, 0, 73, 0
1, 5040, Note_on_c, 0, 70, 0
1, 5040, Note_on_c, 0, 74, 75
1, 5040, Note_on_c, 0, 71, 75
1, 5085, Note_on_c, 0, 74, 0
1, 5085, Note_on_c, 0, 71, 0
1, 5088, Note_on_c, 1, 64, 64
1, 5088, Note_on_c, 1, 60, 64
1, 5108, Note_on_c, 1, 64, 0
1, 5108, Note_on_c, 1, 60, 0
1, 5136, Note_on_c, 1, 65, 64
1, 5136, Note_on_c, 1, 62, 64
1, 5156, Note_on_c, 1, 65, 0
1, 5156, Note_on_c, 1, 62, 0
1, 5184, Note_on_c, 1, 66, 64
1, 5184, Note_on_c, 1, 63, 64
1, 5232, Note_on_c, 1, 66, 0
1, 5232, Note_on_c, 1, 63, 0
1, 5232, Note_on_c, 1, 67, 64
1, 5232, Note_on_c, 1, 64, 64
1, 5277, Note_on_c, 1, 67, 0
1, 5277, Note_on_c, 1, 64, 0
1, 5280, Note_on_c, 0, 79, 75
1, 5280, Note_on_c, 0, 76, 75
1, 5300, Note_on_c, 0, 79, 0
1, 5300, Note_on_c, 0, 76, 0
1, 5328, Note_on_c, 0, 77, 75
1, 5328, Note_on_c, 0, 74, 75
1, 5348, Note_on_c, 0, 77, 0
1, 5348, Note_on_c, 0, 74, 0
1, 5376, Note_on_c, 0, 75, 75
1, 5376, Note_on_c, 0, 71, 75
1, 5424, Note_on_c, 0, 75, 0
1, 5424, Note_on_c, 0, 71, 0
1, 5424, Note_on_c, 0, 76, 75
1, 5424, Note_on_c, 0, 72, 75
1, 5469, Note_on_c, 0, 76, 0
1, 5469, Note_on_c, 0, 72, 0
1, 5472, Note_on_c, 0, 82, 75
1, 5472, Note_on_c, 1, 52, 64
1, 5492, Note_on_c, 0, 82, 0
1, 5517, Note_on_c, 1, 52, 0
1, 5520, Note_on_c, 0, 82, 75
1, 5520, Note_on_c, 1, 60, 64
1, 5540, Note_on_c, 0, 82, 0
1, 5565, Note_on_c, 1, 60, 0
1, 5568, Note_on_c, 0, 82, 75
1, 5568, Note_on_c, 1, 53, 64
1, 5591, Note_on_c, 0, 82, 0
1, 5592, Note_on_c, 0, 81, 75
1, 5613, Note_on_c, 1, 53, 0
1, 5615, Note_on_c, 0, 81, 0
1, 5616, Note_on_c, 0, 79, 75
1, 5616, Note_on_c, 1, 60, 64
1, 5639, Note_on_c, 0, 79, 0
1, 5640, Note_on_c, 0, 77, 75
1, 5661, Note_on_c, 1, 60, 0
1, 5663, Note_on_c, 0, 77, 0
1, 5664, Note_on_c, 0, 77, 75
1, 5664, Note_on_c, 1, 55, 64
1, 5687, Note_on_c, 0, 77, 0
1, 5688, Note_on_c, 0, 76, 75
1, 5709, Note_on_c, 1, 55, 0
1, 5711, Note_on_c, 0, 76, 0
1, 5712, Note_on_c, 0, 74, 75
1, 5712, Note_on_c, 1, 60, 64
1, 5735, Note_on_c, 0, 74, 0
1, 5736, Note_on_c, 0, 72, 75
1, 5757, Note_on_c, 1, 60, 0
1, 5759, Note_on_c, 0, 72, 0
1, 5760, Note_on_c, 0, 77, 75
1, 5760, Note_on_c, 1, 57, 64
1, 5780, Note_on_c, 0, 77, 0
1, 5805, Note_on_c, 1, 57, 0
1, 5808, Note_on_c, 0, 77, 75
1, 5808, Note_on_c, 1, 60, 64
1, 5828, Note_on_c, 0, 77, 0
1, 5853, Note_on_c, 1, 60, 0
1, 5856, Note_on_c, 0, 81, 76
1, 5856, Note_on_c, 1, 53, 64
1, 5876, Note_on_c, 0, 81, 0
1, 5901, Note_on_c, 1, 53, 0
1, 5904, Note_on_c, 0, 81, 77
1, 5904, Note_on_c, 1, 60, 64
1, 5924, Note_on_c, 0, 81, 0
1, 5949, Note_on_c, 1, 60, 0
1, 5952, Note_on_c, 0, 81, 77
1, 5952, Note_on_c, 1, 52, 64
1, 5975, Note_on_c, 0, 81, 0
1, 5976, Note_on_c, 0, 79, 78
1, 5997, Note_on_c, 1, 52, 0
1, 5999, Note_on_c, 0, 79, 0
1, 6000, Note_on_c, 0, 77, 78
1, 6000, Note_on_c, 1, 60, 64
1, 6023, Note_on_c, 0, 77, 0
1, 6024, Note_on_c, 0, 76, 78
1, 6045, Note_on_c, 1, 60, 0
1, 6047, Note_on_c, 0, 76, 0
1, 6048, Note_on_c, 0, 74, 79
1, 6048, Note_on_c, 1, 53, 64
1, 6060, Note_on_c, 0, 74, 0
1, 6060, Note_on_c, 0, 76, 79
1, 6072, Note_on_c, 0, 76, 0
1, 6072, Note_on_c, 0, 74, 79
1, 6093, Note_on_c, 0, 74, 0
1, 6093, Note_on_c, 1, 53, 0
1, 6096, Note_on_c, 0, 76, 80
1, 6096, Note_on_c, 1, 54, 64
1, 6119, Note_on_c, 0, 76, 0
1, 6120, Note_on_c, 0, 72, 79
1, 6141, Note_on_c, 1, 54, 0
1, 6143, Note_on_c, 0, 72, 0
1, 6144, Note_on_c, 0, 72, 78
1, 6144, Note_on_c, 1, 55, 64
1, 6167, Note_on_c, 0, 72, 0
1, 6168, Note_on_c, 0, 71, 77
1, 6189, Note_on_c, 1, 55, 0
1, 6191, Note_on_c, 0, 71, 0
1, 6192, Note_on_c, 0, 69, 76
1, 6215, Note_on_c, 0, 69, 0
1, 6216, Note_on_c, 0, 67, 75
1, 6239, Note_on_c, 0, 67, 0
1, 6240, Note_on_c, 0, 79, 75
1, 6260, Note_on_c, 0, 79, 0
1, 6288, Note_on_c, 0, 79, 75
1, 6308, Note_on_c, 0, 79, 0
1, 6336, Note_on_c, 0, 81, 75
1, 6336, Note_on_c, 1, 64, 64
1, 6336, Note_on_c, 1, 60, 64
1, 6359, Note_on_c, 0, 81, 0
1, 6360, Note_on_c, 0, 79, 75
1, 6383, Note_on_c, 0, 79, 0
1, 6384, Note_on_c, 0, 77, 75
1, 6407, Note_on_c, 0, 77, 0
1, 6408, Note_on_c, 0, 76, 75
1, 6425, Note_on_c, 1, 64, 0
1, 6425, Note_on_c, 1, 60, 0
1, 6431, Note_on_c, 0, 76, 0
1, 6432, Note_on_c, 0, 76, 75
1, 6432, Note_on_c, 1, 65, 64
1, 6432, Note_on_c, 1, 60, 64
1, 6455, Note_on_c, 0, 76, 0
1, 6456, Note_on_c, 0, 74, 75
1, 6479, Note_on_c, 0, 74, 0
1, 6480, Note_on_c, 0, 72, 75
1, 6503, Note_on_c, 0, 72, 0
1, 6504, Note_on_c, 0, 71, 75
1, 6521, Note_on_c, 1, 65, 0
1, 6521, Note_on_c, 1, 60, 0
1, 6527, Note_on_c, 0, 71, 0
1, 6528, Note_on_c, 0, 72, 75
1, 6528, Note_on_c, 1, 64, 64
1, 6528, Note_on_c, 1, 60, 64
1, 6576, Note_on_c, 0, 72, 0
1, 6576, Note_on_c, 0, 67, 75
1, 6617, Note_on_c, 1, 64, 0
1, 6617, Note_on_c, 1, 60, 0
1, 6621, Note_on_c, 0, 67, 0
1, 6624, Note_on_c, 0, 72, 75
1, 6672, Note_on_c, 0, 72, 0
1, 6672, Note_on_c, 0, 73, 75
1, 6692, Note_on_c, 0, 73, 0
1, 6720, Note_on_c, 0, 74, 75
1, 6720, Note_on_c, 1, 59, 75
1, 6768, Note_on_c, 0, 74, 0
1, 6768, Note_on_c, 0, 67, 76
1, 6809, Note_on_c, 1, 59, 0
1, 6813, Note_on_c, 0, 67, 0
1, 6816, Note_on_c, 0, 74, 76
1, 6864, Note_on_c, 0, 74, 0
1, 6864, Note_on_c, 0, 75, 76
1, 6884, Note_on_c, 0, 75, 0
1, 6912, Note_on_c, 0, 76, 77
1, 6912, Note_on_c, 1, 60, 76
1, 6960, Note_on_c, 0, 76, 0
1, 6960, Note_on_c, 0, 72, 77
1, 7001, Note_on_c, 1, 60, 0
1, 7005, Note_on_c, 0, 72, 0
1, 7008, Note_on_c, 0, 76, 77
1, 7008, Note_on_c, 1, 60, 77
1, 7028, Note_on_c, 0, 76, 0
1, 7056, Note_on_c, 0, 76, 77
1, 7056, Note_on_c, 1, 60, 0
1, 7056, Note_on_c, 1, 59, 77
1, 7076, Note_on_c, 0, 76, 0
1, 7101, Note_on_c, 1, 59, 0
1, 7104, Note_on_c, 0, 79, 78
1, 7104, Note_on_c, 1, 58, 77
1, 7152, Note_on_c, 0, 79, 0
1, 7152, Note_on_c, 0, 77, 78
1, 7152, Note_on_c, 1, 58, 0
1, 7152, Note_on_c, 1, 57, 78
1, 7197, Note_on_c, 0, 77, 0
1, 7197, Note_on_c, 1, 57, 0
1, 7200, Note_on_c, 0, 78, 78
1, 7200, Note_on_c, 1, 62, 78
1, 7220, Note_on_c, 0, 78, 0
1, 7248, Note_on_c, 0, 78, 79
1, 7248, Note_on_c, 1, 62, 0
1, 7248, Note_on_c, 1, 61, 78
1, 7268, Note_on_c, 0, 78, 0
1, 7293, Note_on_c, 1, 61, 0
1, 7296, Note_on_c, 0, 81, 79
1, 7296, Note_on_c, 1, 60, 79
1, 7344, Note_on_c, 0, 81, 0
1, 7344, Note_on_c, 0, 79, 79
1, 7344, Note_on_c, 1, 60, 0
1, 7344, Note_on_c, 1, 59, 79
1, 7389, Note_on_c, 0, 79, 0
1, 7389, Note_on_c, 1, 59, 0
1, 7392, Note_on_c, 0, 89, 80
1, 7392, Note_on_c, 0, 77, 80
1, 7392, Note_on_c, 1, 60, 79
1, 7392, Note_on_c, 1, 57, 79
1, 7412, Note_on_c, 0, 89, 0
1, 7412, Note_on_c, 0, 77, 0
1, 7437, Note_on_c, 1, 60, 0
1, 7437, Note_on_c, 1, 57, 0
1, 7440, Note_on_c, 0, 88, 80
1, 7440, Note_on_c, 0, 76, 80
1, 7440, Note_on_c, 1, 59, 80
1, 7440, Note_on_c, 1, 55, 80
1, 7460, Note_on_c, 0, 88, 0
1, 7460, Note_on_c, 0, 76, 0
1, 7485, Note_on_c, 1, 59, 0
1, 7485, Note_on_c, 1, 55, 0
1, 7488, Note_on_c, 0, 86, 80
1, 7488, Note_on_c, 0, 74, 80
1, 7488, Note_on_c, 1, 57, 80
1, 7488, Note_on_c, 1, 53, 80
1, 7508, Note_on_c, 0, 86, 0
1, 7508, Note_on_c, 0, 74, 0
1, 7533, Note_on_c, 1, 57, 0
1, 7533, Note_on_c, 1, 53, 0
1, 7536, Note_on_c, 0, 84, 80
1, 7536, Note_on_c, 0, 72, 80
1, 7536, Note_on_c, 1, 55, 80
1, 7536, Note_on_c, 1, 52, 80
1, 7556, Note_on_c, 0, 84, 0
1, 7556, Note_on_c, 0, 72, 0
1, 7581, Note_on_c, 1, 55, 0
1, 7581, Note_on_c, 1, 52, 0
1, 7584, Note_on_c, 0, 83, 80
1, 7584, Note_on_c, 0, 71, 80
1, 7584, Note_on_c, 1, 53, 80
1, 7584, Note_on_c, 1, 50, 80
1, 7604, Note_on_c, 0, 83, 0
1, 7604, Note_on_c, 0, 71, 0
1, 7629, Note_on_c, 1, 53, 0
1, 7629, Note_on_c, 1, 50, 0
1, 7632, Note_on_c, 0, 84, 80
1, 7632, Note_on_c, 0, 72, 80
1, 7632, Note_on_c, 1, 55, 80
1, 7632, Note_on_c, 1, 52, 80
1, 7652, Note_on_c, 0, 84, 0
1, 7652, Note_on_c, 0, 72, 0
1, 7677, Note_on_c, 1, 55, 0
1, 7677, Note_on_c, 1, 52, 0
1, 7680, Note_on_c, 0, 86, 80
1, 7680, Note_on_c, 0, 74, 80
1, 7680, Note_on_c, 1, 57, 80
1, 7680, Note_on_c, 1, 53, 80
1, 7725, Note_on_c, 1, 57, 0
1, 7725, Note_on_c, 1, 53, 0
1, 7728, Note_on_c, 0, 86, 0
1, 7728, Note_on_c, 0, 74, 0
1, 7728, Note_on_c, 0, 84, 80
1, 7728, Note_on_c, 0, 72, 80
1, 7728, Note_on_c, 1, 55, 80
1, 7728, Note_on_c, 1, 52, 80
1, 7773, Note_on_c, 0, 84, 0
1, 7773, Note_on_c, 0, 72, 0
1, 7773, Note_on_c, 1, 55, 0
1, 7773, Note_on_c, 1, 52, 0
1, 7776, Note_on_c, 0, 81, 75
1, 7776, Note_on_c, 1, 53, 75
1, 7796, Note_on_c, 0, 81, 0
1, 7824, Note_on_c, 0, 81, 75
1, 7844, Note_on_c, 0, 81, 0
1, 7865, Note_on_c, 1, 53, 0
1, 7872, Note_on_c, 0, 81, 75
1, 7872, Note_on_c, 1, 55, 75
1, 7895, Note_on_c, 0, 81, 0
1, 7896, Note_on_c, 0, 79, 75
1, 7919, Note_on_c, 0, 79, 0
1, 7920, Note_on_c, 0, 77, 75
1, 7943, Note_on_c, 0, 77, 0
1, 7944, Note_on_c, 0, 76, 75
1, 7961, Note_on_c, 1, 55, 0
1, 7967, Note_on_c, 0, 76, 0
1, 7968, Note_on_c, 0, 76, 75
1, 7968, Note_on_c, 1, 43, 75
1, 7991, Note_on_c, 0, 76, 0
1, 7992, Note_on_c, 0, 74, 75
1, 8015, Note_on_c, 0, 74, 0
1, 8016, Note_on_c, 0, 72, 75
1, 8039, Note_on_c, 0, 72, 0
1, 8040, Note_on_c, 0, 71, 75
1, 8057, Note_on_c, 1, 43, 0
1, 8063, Note_on_c, 0, 71, 0
1, 8064, Note_on_c, 0, 72, 75
1, 8064, Note_on_c, 1, 48, 75
1, 8153, Note_on_c, 0, 72, 0
1, 8153, Note_on_c, 1, 48, 0
1, 8160, Note_on_c, 1, 59, 64
1, 8160, Note_on_c, 1, 55, 64
1, 8180, Note_on_c, 1, 59, 0
1, 8180, Note_on_c, 1, 55, 0
1, 8208, Note_on_c, 1, 60, 64
1, 8208, Note_on_c, 1, 57, 64
1, 8228, Note_on_c, 1, 60, 0
1, 8228, Note_on_c, 1, 57, 0
1, 8256, Note_on_c, 1, 61, 64
1, 8256, Note_on_c, 1, 58, 64
1, 8304, Note_on_c, 1, 61, 0
1, 8304, Note_on_c, 1, 58, 0
1, 8304, Note_on_c, 1, 62, 64
1, 8304, Note_on_c, 1, 59, 64
1, 8349, Note_on_c, 1, 62, 0
1, 8349, Note_on_c, 1, 59, 0
1, 8352, Note_on_c, 0, 77, 75
1, 8352, Note_on_c, 0, 74, 75
1, 8372, Note_on_c, 0, 77, 0
1, 8372, Note_on_c, 0, 74, 0
1, 8400, Note_on_c, 0, 76, 75
1, 8400, Note_on_c, 0, 72, 75
1, 8420, Note_on_c, 0, 76, 0
1, 8420, Note_on_c, 0, 72, 0
1, 8448, Note_on_c, 0, 73, 75
1, 8448, Note_on_c, 0, 70, 75
1, 8496, Note_on_c, 0, 73, 0
1, 8496, Note_on_c, 0, 70, 0
1, 8496, Note_on_c, 0, 74, 75
1, 8496, Note_on_c, 0, 71, 75
1, 8541, Note_on_c, 0, 74, 0
1, 8541, Note_on_c, 0, 71, 0
1, 8544, Note_on_c, 1, 64, 64
1, 8544, Note_on_c, 1, 60, 64
1, 8564, Note_on_c, 1, 64, 0
1, 8564, Note_on_c, 1, 60, 0
1, 8592, Note_on_c, 1, 65, 64
1, 8592, Note_on_c, 1, 62, 64
1, 8612, Note_on_c, 1, 65, 0
1, 8612, Note_on_c, 1, 62, 0
1, 8640, Note_on_c, 1, 66, 64
1, 8640, Note_on_c, 1, 63, 64
1, 8688, Note_on_c, 1, 66, 0
1, 8688, Note_on_c, 1, 63, 0
1, 8688, Note_on_c, 1, 67, 64
1, 8688, Note_on_c, 1, 64, 64
1, 8733, Note_on_c, 1, 67, 0
1, 8733, Note_on_c, 1, 64, 0
1, 8736, Note_on_c, 0, 79, 75
1, 8736, Note_on_c, 0, 76, 75
1, 8756, Note_on_c, 0, 79, 0
1, 8756, Note_on_c, 0, 76, 0
1, 8784, Note_on_c, 0, 77, 75
1, 8784, Note_on_c, 0, 74, 75
1, 8804, Note_on_c, 0, 77, 0
1, 8804, Note_on_c, 0, 74, 0
1, 8832, Note_on_c, 0, 75, 75
1, 8832, Note_on_c, 0, 71, 75
1, 8880, Note_on_c, 0, 75, 0
1, 8880, Note_on_c, 0, 71, 0
1, 8880, Note_on_c, 0, 76, 75
1, 8880, Note_on_c, 0, 72, 75
1, 8925, Note_on_c, 0, 76, 0
1, 8925, Note_on_c, 0, 72, 0
1, 8928, Note_on_c, 0, 82, 75
1, 8928, Note_on_c, 1, 52, 64
1, 8948, Note_on_c, 0, 82, 0
1, 8973, Note_on_c, 1, 52, 0
1, 8976, Note_on_c, 0, 82, 75
1, 8976, Note_on_c, 1, 60, 64
1, 8996, Note_on_c, 0, 82, 0
1, 9021, Note_on_c, 1, 60, 0
1, 9024, Note_on_c, 0, 82, 75
1, 9024, Note_on_c, 1, 53, 64
1, 9047, Note_on_c, 0, 82, 0
1, 9048, Note_on_c, 0, 81, 75
1, 9069, Note_on_c, 1, 53, 0
1, 9071, Note_on_c, 0, 81, 0
1, 9072, Note_on_c, 0, 79, 75
1, 9072, Note_on_c, 1, 60, 64
1, 9095, Note_on_c, 0, 79, 0
1, 9096, Note_on_c, 0, 77, 75
1, 9117, Note_on_c, 1, 60, 0
1, 9119, Note_on_c, 0, 77, 0
1, 9120, Note_on_c, 0, 77, 75
1, 9120, Note_on_c, 1, 55, 64
1, 9143, Note_on_c, 0, 77, 0
1, 9144, Note_on_c, 0, 76, 75
1, 9165, Note_on_c, 1, 55, 0
1, 9167, Note_on_c, 0, 76, 0
1, 9168, Note_on_c, 0, 74, 75
1, 9168, Note_on_c, 1, 60, 64
1, 9191, Note_on_c, 0, 74, 0
1, 9192, Note_on_c, 0, 72, 75
1, 9213, Note_on_c, 1, 60, 0
1, 9215, Note_on_c, 0, 72, 0
1, 9216, Note_on_c, 0, 77, 75
1, 9216, Note_on_c, 1, 57, 64
1, 9236, Note_on_c, 0, 77, 0
1, 9261, Note_on_c, 1, 57, 0
1, 9264, Note_on_c, 0, 77, 75
1, 9264, Note_on_c, 1, 60, 64
1, 9284, Note_on_c, 0, 77, 0
1, 9309, Note_on_c, 1, 60, 0
1, 9312, Note_on_c, 0, 81, 76
1, 9312, Note_on_c, 1, 53, 64
1, 9332, Note_on_c, 0, 81, 0
1, 9357, Note_on_c, 1, 53, 0
1, 9360, Note_on_c, 0, 81, 77
1, 9360, Note_on_c, 1, 60, 64
1, 9380, Note_on_c, 0, 81, 0
1, 9405, Note_on_c, 1, 60, 0
1, 9408, Note_on_c, 0, 81, 77
1, 9408, Note_on_c, 1, 52, 64
1, 9431, Note_on_c, 0, 81, 0
1, 9432, Note_on_c, 0, 79, 78
1, 9453, Note_on_c, 1, 52, 0
1, 9455, Note_on_c, 0, 79, 0
1, 9456, Note_on_c, 0, 77, 78
1, 9456, Note_on_c, 1, 60, 64
1, 9479, Note_on_c, 0, 77, 0
1, 9480, Note_on_c, 0, 76, 78
1, 9501, Note_on_c, 1, 60, 0
1, 9503, Note_on_c, 0, 76, 0
1, 9504, Note_on_c, 0, 74, 79
1, 9504, Note_on_c, 1, 53, 64
1, 9516, Note_on_c, 0, 74, 0
1, 9516, Note_on_c, 0, 76, 79
1, 9528, Note_on_c, 0, 76, 0
1, 9528, Note_on_c, 0, 74, 79
1, 9549, Note_on_c, 0, 74, 0
1, 9549, Note_on_c, 1, 53, 0
1, 9552, Note_on_c, 0, 76, 80
1, 9552, Note_on_c, 1, 54, 64
1, 9575, Note_on_c, 0, 76, 0
1, 9576, Note_on_c, 0, 72, 79
1, 9597, Note_on_c, 1, 54, 0
1, 9599, Note_on_c, 0, 72, 0
1, 9600, Note_on_c, 0, 72, 78
1, 9600, Note_on_c, 1, 55, 64
1, 9623, Note_on_c, 0, 72, 0
1, 9624, Note_on_c, 0, 71, 77
1, 9645, Note_on_c, 1, 55, 0
1, 9647, Note_on_c, 0, 71, 0
1, 9648, Note_on_c, 0, 69, 76
1, 9671, Note_on_c, 0, 69, 0
1, 9672, Note_on_c, 0, 67, 75
1, 9695, Note_on_c, 0, 67, 0
1, 9696, Note_on_c, 0, 79, 75
1, 9716, Note_on_c, 0, 79, 0
1, 9744, Note_on_c, 0, 79, 75
1, 9764, Note_on_c, 0, 79, 0
1, 9792, Note_on_c, 0, 81, 75
1, 9792, Note_on_c, 1, 64, 64
1, 9792, Note_on_c, 1, 60, 64
1, 9815, Note_on_c, 0, 81, 0
1, 9816, Note_on_c, 0, 79, 75
1, 9839, Note_on_c, 0, 79, 0
1, 9840, Note_on_c, 0, 77, 75
1, 9863, Note_on_c, 0, 77, 0
1, 9864, Note_on_c, 0, 76, 75
1, 9881, Note_on_c, 1, 64, 0
1, 9881, Note_on_c, 1, 60, 0
1, 9887, Note_on_c, 0, 76, 0
1, 9888, Note_on_c, 0, 76, 75
1, 9888, Note_on_c, 1, 65, 64
1, 9888, Note_on_c, 1, 60, 64
1, 9911, Note_on_c, 0, 76, 0
1, 9912, Note_on_c, 0, 74, 75
1, 9935, Note_on_c, 0, 74, 0
1, 9936, Note_on_c, 0, 72, 75
1, 9959, Note_on_c, 0, 72, 0
1, 9960, Note_on_c, 0, 71, 75
1, 9977, Note_on_c, 1, 65, 0
1, 9977, Note_on_c, 1, 60, 0
1, 9983, Note_on_c, 0, 71, 0
1, 9984, Note_on_c, 0, 72, 75
1, 9984, Note_on_c, 1, 64, 64
1, 9984, Note_on_c, 1, 60, 64
1, 10032, Note_on_c, 0, 72, 0
1, 10032, Note_on_c, 0, 67, 75
1, 10073, Note_on_c, 1, 64, 0
1, 10073, Note_on_c, 1, 60, 0
1, 10077, Note_on_c, 0, 67, 0
1, 10080, Note_on_c, 0, 72, 75
1, 10128, Note_on_c, 0, 72, 0
1, 10128, Note_on_c, 0, 73, 75
1, 10148, Note_on_c, 0, 73, 0
1, 10176, Note_on_c, 0, 74, 75
1, 10176, Note_on_c, 1, 59, 75
1, 10224, Note_on_c, 0, 74, 0
1, 10224, Note_on_c, 0, 67, 76
1, 10265, Note_on_c, 1, 59, 0
1, 10269, Note_on_c, 0, 67, 0
1, 10272, Note_on_c, 0, 74, 76
1, 10320, Note_on_c, 0, 74, 0
1, 10320, Note_on_c, 0, 75, 76
1, 10340, Note_on_c, 0, 75, 0
1, 10368, Note_on_c, 0, 76, 77
1, 10368, Note_on_c, 1, 60, 76
1, 10416, Note_on_c, 0, 76, 0
1, 10416, Note_on_c, 0, 72, 77
1, 10457, Note_on_c, 1, 60, 0
1, 10461, Note_on_c, 0, 72, 0
1, 10464, Note_on_c, 0, 76, 77
1, 10464, Note_on_c, 1, 60, 77
1, 10484, Note_on_c, 0, 76, 0
1, 10512, Note_on_c, 0, 76, 77
1, 10512, Note_on_c, 1, 60, 0
1, 10512, Note_on_c, 1, 59, 77
1, 10532, Note_on_c, 0, 76, 0
1, 10557, Note_on_c, 1, 59, 0
1, 10560, Note_on_c, 0, 79, 78
1, 10560, Note_on_c, 1, 58, 77
1, 10608, Note_on_c, 0, 79, 0
1, 10608, Note_on_c, 0, 77, 78
1, 10608, Note_on_c, 1, 58, 0
1, 10608, Note_on_c, 1, 57, 78
1, 10653, Note_on_c, 0, 77, 0
1, 10653, Note_on_c, 1, 57, 0
1, 10656, Note_on_c, 0, 78, 78
1, 10656, Note_on_c, 1, 62, 78
1, 10676, Note_on_c, 0, 78, 0
1, 10704, Note_on_c, 0, 78, 79
1, 10704, Note_on_c, 1, 62, 0
1, 10704, Note_on_c, 1, 61, 78
1, 10724, Note_on_c, 0, 78, 0
1, 10749, Note_on_c, 1, 61, 0
1, 10752, Note_on_c, 0, 81, 79
1, 10752, Note_on_c, 1, 60, 79
1, 10800, Note_on_c, 0, 81, 0
1, 10800, Note_on_c, 0, 79, 79
1, 10800, Note_on_c, 1, 60, 0
1, 10800, Note_on_c, 1, 59, 79
1, 10845, Note_on_c, 0, 79, 0
1, 10845, Note_on_c, 1, 59, 0
1, 10848, Note_on_c, 0, 89, 80
1, 10848, Note_on_c, 0, 77, 80
1, 10848, Note_on_c, 1, 60, 79
1, 10848, Note_on_c, 1, 57, 79
1, 10868, Note_on_c, 0, 89, 0
1, 10868, Note_on_c, 0, 77, 0
1, 10893, Note_on_c, 1, 60, 0
1, 10893, Note_on_c, 1, 57, 0
1, 10896, Note_on_c, 0, 88, 80
1, 10896, Note_on_c, 0, 76, 80
1, 10896, Note_on_c, 1, 59, 80
1, 10896, Note_on_c, 1, 55, 80
1, 10916, Note_on_c, 0, 88, 0
1, 10916, Note_on_c, 0, 76, 0
1, 10941, Note_on_c, 1, 59, 0
1, 10941, Note_on_c, 1, 55, 0
1, 10944, Note_on_c, 0, 86, 80
1, 10944, Note_on_c, 0, 74, 80
1, 10944, Note_on_c, 1, 57, 80
1, 10944, Note_on_c, 1, 53, 80
1, 10964, Note_on_c, 0, 86, 0
1, 10964, Note_on_c, 0, 74, 0
1, 10989, Note_on_c, 1, 57, 0
1, 10989, Note_on_c, 1, 53, 0
1, 10992, Note_on_c, 0, 84, 80
1, 10992, Note_on_c, 0, 72, 80
1, 10992, Note_on_c, 1, 55, 80
1, 10992, Note_on_c, 1, 52, 80
1, 11012, Note_on_c, 0, 84, 0
1, 11012, Note_on_c, 0, 72, 0
1, 11037, Note_on_c, 1, 55, 0
1, 11037, Note_on_c, 1, 52, 0
1, 11040, Note_on_c, 0, 83, 80
1, 11040, Note_on_c, 0, 71, 80
1, 11040, Note_on_c, 1, 53, 80
1, 11040, Note_on_c, 1, 50, 80
1, 11060, Note_on_c, 0, 83, 0
1, 11060, Note_on_c, 0, 71, 0
1, 11085, Note_on_c, 1, 53, 0
1, 11085, Note_on_c, 1, 50, 0
1, 11088, Note_on_c, 0, 84, 80
1, 11088, Note_on_c, 0, 72, 80
1, 11088, Note_on_c, 1, 55, 80
1, 11088, Note_on_c, 1, 52, 80
1, 11108, Note_on_c, 0, 84, 0
1, 11108, Note_on_c, 0, 72, 0
1, 11133, Note_on_c, 1, 55, 0
1, 11133, Note_on_c, 1, 52, 0
1, 11136, Note_on_c, 0, 86, 80
1, 11136, Note_on_c, 0, 74, 80
1, 11136, Note_on_c, 1, 57, 80
1, 11136, Note_on_c, 1, 53, 80
1, 11181, Note_on_c, 1, 57, 0
1, 11181, Note_on_c, 1, 53, 0
1, 11184, Note_on_c, 0, 86, 0
1, 11184, Note_on_c, 0, 74, 0
1, 11184, Note_on_c, 0, 84, 80
1, 11184, Note_on_c, 0, 72, 80
1, 11184, Note_on_c, 1, 55, 80
1, 11184, Note_on_c, 1, 52, 80
1, 11229, Note_on_c, 0, 84, 0
1, 11229, Note_on_c, 0, 72, 0
1, 11229, Note_on_c, 1, 55, 0
1, 11229, Note_on_c, 1, 52, 0
1, 11232, Note_on_c, 0, 81, 75
1, 11232, Note_on_c, 1, 53, 75
1, 11252, Note_on_c, 0, 81, 0
1, 11280, Note_on_c, 0, 81, 75
1, 11300, Note_on_c, 0, 81, 0
1, 11321, Note_on_c, 1, 53, 0
1, 11328, Note_on_c, 0, 81, 75
1, 11328, Note_on_c, 1, 55, 75
1, 11351, Note_on_c, 0, 81, 0
1, 11352, Note_on_c, 0, 79, 75
1, 11375, Note_on_c, 0, 79, 0
1, 11376, Note_on_c, 0, 77, 75
1, 11399, Note_on_c, 0, 77, 0
1, 11400, Note_on_c, 0, 76, 75
1, 11417, Note_on_c, 1, 55, 0
1, 11423, Note_on_c, 0, 76, 0
1, 11424, Note_on_c, 0, 76, 75
1, 11424, Note_on_c, 1, 43, 75
1, 11447, Note_on_c, 0, 76, 0
1, 11448, Note_on_c, 0, 74, 75
1, 11471, Note_on_c, 0, 74, 0
1, 11472, Note_on_c, 0, 72, 75
1, 11495, Note_on_c, 0, 72, 0
1, 11496, Note_on_c, 0, 71, 75
1, 11513, Note_on_c, 1, 43, 0
1, 11519, Note_on_c, 0, 71, 0
1, 11520, Note_on_c, 0, 72, 75
1, 11520, Note_on_c, 1, 48, 75
1, 11609, Note_on_c, 0, 72, 0
1, 11609, Note_on_c, 1, 48, 0
1, 11616, Note_on_c, 0, 67, 80
1, 11636, Note_on_c, 0, 67, 0
1, 11664, Note_on_c, 0, 67, 80
1, 11684, Note_on_c, 0, 67, 0
1, 11712, Note_on_c, 0, 69, 80
1, 11712, Note_on_c, 1, 48, 80
1, 11712, Note_on_c, 1, 40, 80
1, 11712, Note_on_c, 1, 36, 80
1, 11735, Note_on_c, 0, 69, 0
1, 11736, Note_on_c, 0, 67, 80
1, 11759, Note_on_c, 0, 67, 0
1, 11760, Note_on_c, 0, 65, 80
1, 11783, Note_on_c, 0, 65, 0
1, 11784, Note_on_c, 0, 64, 80
1, 11801, Note_on_c, 1, 48, 0
1, 11801, Note_on_c, 1, 40, 0
1, 11801, Note_on_c, 1, 36, 0
1, 11807, Note_on_c, 0, 64, 0
1, 11808, Note_on_c, 0, 64, 80
1, 11808, Note_on_c, 1, 50, 80
1, 11808, Note_on_c, 1, 41, 80
1, 11808, Note_on_c, 1, 38, 80
1, 11831, Note_on_c, 0, 64, 0
1, 11832, Note_on_c, 0, 62, 80
1, 11855, Note_on_c, 0, 62, 0
1, 11856, Note_on_c, 0, 60, 80
1, 11879, Note_on_c, 0, 60, 0
1, 11880, Note_on_c, 0, 59, 80
1, 11897, Note_on_c, 1, 50, 0
1, 11897, Note_on_c, 1, 41, 0
1, 11897, Note_on_c, 1, 38, 0
1, 11903, Note_on_c, 0, 59, 0
1, 11904, Note_on_c, 0, 60, 80
1, 11904, Note_on_c, 1, 52, 80
1, 11904, Note_on_c, 1, 43, 80
1, 11904, Note_on_c, 1, 40, 80
1, 11952, Note_on_c, 0, 60, 0
1, 11952, Note_on_c, 0, 55, 80
1, 11993, Note_on_c, 1, 52, 0
1, 11993, Note_on_c, 1, 43, 0
1, 11993, Note_on_c, 1, 40, 0
1, 11997, Note_on_c, 0, 55, 0
1, 12000, Note_on_c, 0, 72, 80
1, 12000, Note_on_c, 1, 52, 80
1, 12000, Note_on_c, 1, 43, 80
1, 12000, Note_on_c, 1, 40, 80
1, 12020, Note_on_c, 0, 72, 0
1, 12045, Note_on_c, 1, 52, 0
1, 12045, Note_on_c, 1, 43, 0
1, 12045, Note_on_c, 1, 40, 0
1, 12048, Note_on_c, 0, 72, 80
1, 12048, Note_on_c, 1, 53, 80
1, 12048, Note_on_c, 1, 45, 80
1, 12048, Note_on_c, 1, 41, 80
1, 12068, Note_on_c, 0, 72, 0
1, 12093, Note_on_c, 1, 53, 0
1, 12093, Note_on_c, 1, 45, 0
1, 12093, Note_on_c, 1, 41, 0
1, 12096, Note_on_c, 0, 72, 80
1, 12096, Note_on_c, 1, 55, 80
1, 12096, Note_on_c, 1, 47, 80
1, 12096, Note_on_c, 1, 43, 80
1, 12119, Note_on_c, 0, 72, 0
1, 12120, Note_on_c, 0, 71, 80
1, 12143, Note_on_c, 0, 71, 0
1, 12144, Note_on_c, 0, 69, 80
1, 12167, Note_on_c, 0, 69, 0
1, 12168, Note_on_c, 0, 67, 80
1, 12185, Note_on_c, 1, 55, 0
1, 12185, Note_on_c, 1, 47, 0
1, 12185, Note_on_c, 1, 43, 0
1, 12191, Note_on_c, 0, 67, 0
1, 12192, Note_on_c, 0, 77, 80
1, 12192, Note_on_c, 1, 57, 80
1, 12192, Note_on_c, 1, 48, 80
1, 12192, Note_on_c, 1, 45, 80
1, 12212, Note_on_c, 0, 77, 0
1, 12237, Note_on_c, 1, 57, 0
1, 12237, Note_on_c, 1, 48, 0
1, 12237, Note_on_c, 1, 45, 0
1, 12240, Note_on_c, 0, 77, 80
1, 12240, Note_on_c, 1, 59, 80
1, 12240, Note_on_c, 1, 50, 80
1, 12240, Note_on_c, 1, 47, 80
1, 12260, Note_on_c, 0, 77, 0
1, 12285, Note_on_c, 1, 59, 0
1, 12285, Note_on_c, 1, 50, 0
1, 12285, Note_on_c, 1, 47, 0
1, 12288, Note_on_c, 0, 77, 80
1, 12288, Note_on_c, 1, 60, 80
1, 12288, Note_on_c, 1, 52, 80
1, 12288, Note_on_c, 1, 48, 80
1, 12311, Note_on_c, 0, 77, 0
1, 12312, Note_on_c, 0, 76, 80
1, 12335, Note_on_c, 0, 76, 0
1, 12336, Note_on_c, 0, 74, 80
1, 12359, Note_on_c, 0, 74, 0
1, 12360, Note_on_c, 0, 72, 80
1, 12377, Note_on_c, 1, 60, 0
1, 12377, Note_on_c, 1, 52, 0
1, 12377, Note_on_c, 1, 48, 0
1, 12383, Note_on_c, 0, 72, 0
1, 12384, Note_on_c, 0, 76, 75
1, 12384, Note_on_c, 1, 72, 75
1, 12404, Note_on_c, 0, 76, 0
1, 12429, Note_on_c, 1, 72, 0
1, 12432, Note_on_c, 0, 78, 75
1, 12432, Note_on_c, 1, 72, 75
1, 12452, Note_on_c, 0, 78, 0
1, 12477, Note_on_c, 1, 72, 0
1, 12480, Note_on_c, 0, 81, 75
1, 12480, Note_on_c, 1, 71, 75
1, 12503, Note_on_c, 0, 81, 0
1, 12504, Note_on_c, 0, 79, 75
1, 12527, Note_on_c, 0, 79, 0
1, 12528, Note_on_c, 0, 78, 75
1, 12551, Note_on_c, 0, 78, 0
1, 12552, Note_on_c, 0, 79, 75
1, 12569, Note_on_c, 1, 71, 0
1, 12575, Note_on_c, 0, 79, 0
1, 12576, Note_on_c, 0, 83, 75
1, 12576, Note_on_c, 1, 66, 75
1, 12599, Note_on_c, 0, 83, 0
1, 12600, Note_on_c, 0, 81, 75
1, 12623, Note_on_c, 0, 81, 0
1, 12624, Note_on_c, 0, 79, 75
1, 12647, Note_on_c, 0, 79, 0
1, 12648, Note_on_c, 0, 81, 75
1, 12665, Note_on_c, 1, 66, 0
1, 12671, Note_on_c, 0, 81, 0
1, 12672, Note_on_c, 0, 84, 75
1, 12672, Note_on_c, 1, 67, 75
1, 12695, Note_on_c, 0, 84, 0
1, 12696, Note_on_c, 0, 83, 75
1, 12719, Note_on_c, 0, 83, 0
1, 12720, Note_on_c, 0, 81, 75
1, 12743, Note_on_c, 0, 81, 0
1, 12744, Note_on_c, 0, 83, 75
1, 12761, Note_on_c, 1, 67, 0
1, 12767, Note_on_c, 0, 83, 0
1, 12768, Note_on_c, 0, 86, 75
1, 12768, Note_on_c, 1, 59, 75
1, 12791, Note_on_c, 0, 86, 0
1, 12792, Note_on_c, 0, 83, 75
1, 12813, Note_on_c, 1, 59, 0
1, 12815, Note_on_c, 0, 83, 0
1, 12816, Note_on_c, 0, 81, 75
1, 12816, Note_on_c, 1, 62, 75
1, 12839, Note_on_c, 0, 81, 0
1, 12840, Note_on_c, 0, 79, 75
1, 12861, Note_on_c, 1, 62, 0
1, 12863, Note_on_c, 0, 79, 0
1, 12864, Note_on_c, 0, 79, 75
1, 12864, Note_on_c, 1, 60, 75
1, 12887, Note_on_c, 0, 79, 0
1, 12888, Note_on_c, 0, 78, 75
1, 12909, Note_on_c, 1, 60, 0
1, 12911, Note_on_c, 0, 78, 0
1, 12912, Note_on_c, 0, 76, 75
1, 12912, Note_on_c, 1, 62, 75
1, 12935, Note_on_c, 0, 76, 0
1, 12936, Note_on_c, 0, 74, 75
1, 12957, Note_on_c, 1, 62, 0
1, 12959, Note_on_c, 0, 74, 0
1, 12960, Note_on_c, 0, 86, 75
1, 12960, Note_on_c, 1, 59, 75
1, 12983, Note_on_c, 0, 86, 0
1, 12984, Note_on_c, 0, 83, 75
1, 13005, Note_on_c, 1, 59, 0
1, 13007, Note_on_c, 0, 83, 0
1, 13008, Note_on_c, 0, 81, 75
1, 13008, Note_on_c, 1, 62, 75
1, 13031, Note_on_c, 0, 81, 0
1, 13032, Note_on_c, 0, 79, 75
1, 13053, Note_on_c, 1, 62, 0
1, 13055, Note_on_c, 0, 79, 0
1, 13056, Note_on_c, 0, 79, 75
1, 13056, Note_on_c, 1, 60, 75
1, 13079, Note_on_c, 0, 79, 0
1, 13080, Note_on_c, 0, 78, 73
1, 13101, Note_on_c, 1, 60, 0
1, 13103, Note_on_c, 0, 78, 0
1, 13104, Note_on_c, 0, 76, 72
1, 13104, Note_on_c, 1, 62, 72
1, 13127, Note_on_c, 0, 76, 0
1, 13128, Note_on_c, 0, 74, 71
1, 13149, Note_on_c, 1, 62, 0
1, 13151, Note_on_c, 0, 74, 0
1, 13152, Note_on_c, 0, 86, 64
1, 13152, Note_on_c, 1, 59, 64
1, 13175, Note_on_c, 0, 86, 0
1, 13176, Note_on_c, 0, 83, 64
1, 13197, Note_on_c, 1, 59, 0
1, 13199, Note_on_c, 0, 83, 0
1, 13200, Note_on_c, 0, 81, 64
1, 13200, Note_on_c, 1, 62, 64
1, 13223, Note_on_c, 0, 81, 0
1, 13224, Note_on_c, 0, 79, 64
1, 13245, Note_on_c, 1, 62, 0
1, 13247, Note_on_c, 0, 79, 0
1, 13248, Note_on_c, 0, 79, 64
1, 13248, Note_on_c, 1, 60, 64
1, 13271, Note_on_c, 0, 79, 0
1, 13272, Note_on_c, 0, 78, 64
1, 13293, Note_on_c, 1, 60, 0
1, 13295, Note_on_c, 0, 78, 0
1, 13296, Note_on_c, 0, 76, 64
1, 13296, Note_on_c, 1, 62, 64
1, 13319, Note_on_c, 0, 76, 0
1, 13320, Note_on_c, 0, 74, 64
1, 13341, Note_on_c, 1, 62, 0
1, 13343, Note_on_c, 0, 74, 0
1, 13344, Note_on_c, 0, 86, 64
1, 13344, Note_on_c, 1, 59, 64
1, 13367, Note_on_c, 0, 86, 0
1, 13368, Note_on_c, 0, 83, 64
1, 13389, Note_on_c, 1, 59, 0
1, 13391, Note_on_c, 0, 83, 0
1, 13392, Note_on_c, 0, 81, 64
1, 13392, Note_on_c, 1, 62, 64
1, 13415, Note_on_c, 0, 81, 0
1, 13416, Note_on_c, 0, 79, 64
1, 13437, Note_on_c, 1, 62, 0
1, 13439, Note_on_c, 0, 79, 0
1, 13440, Note_on_c, 0, 79, 64
1, 13440, Note_on_c, 1, 60, 64
1, 13463, Note_on_c, 0, 79, 0
1, 13464, Note_on_c, 0, 78, 67
1, 13485, Note_on_c, 1, 60, 0
1, 13487, Note_on_c, 0, 78, 0
1, 13488, Note_on_c, 0, 76, 70
1, 13488, Note_on_c, 1, 62, 67
1, 13511, Note_on_c, 0, 76, 0
1, 13512, Note_on_c, 0, 74, 73
1, 13533, Note_on_c, 1, 62, 0
1, 13535, Note_on_c, 0, 74, 0
1, 13536, Note_on_c, 0, 86, 76
1, 13536, Note_on_c, 1, 59, 71
1, 13559, Note_on_c, 0, 86, 0
1, 13560, Note_on_c, 0, 83, 80
1, 13581, Note_on_c, 1, 59, 0
1, 13583, Note_on_c, 0, 83, 0
1, 13584, Note_on_c, 0, 81, 80
1, 13584, Note_on_c, 1, 67, 75
1, 13607, Note_on_c, 0, 81, 0
1, 13608, Note_on_c, 0, 79, 80
1, 13629, Note_on_c, 1, 67, 0
1, 13631, Note_on_c, 0, 79, 0
1, 13632, Note_on_c, 0, 78, 80
1, 13632, Note_on_c, 1, 60, 75
1, 13655, Note_on_c, 0, 78, 0
1, 13656, Note_on_c, 0, 76, 80
1, 13677, Note_on_c, 1, 60, 0
1, 13679, Note_on_c, 0, 76, 0
1, 13680, Note_on_c, 0, 75, 80
1, 13680, Note_on_c, 1, 67, 75
1, 13703, Note_on_c, 0, 75, 0
1, 13704, Note_on_c, 0, 76, 80
1, 13725, Note_on_c, 1, 67, 0
1, 13727, Note_on_c, 0, 76, 0
1, 13728, Note_on_c, 0, 84, 80
1, 13728, Note_on_c, 1, 57, 75
1, 13751, Note_on_c, 0, 84, 0
1, 13752, Note_on_c, 0, 81, 80
1, 13773, Note_on_c, 1, 57, 0
1, 13775, Note_on_c, 0, 81, 0
1, 13776, Note_on_c, 0, 79, 80
1, 13776, Note_on_c, 1, 66, 75
1, 13799, Note_on_c, 0, 79, 0
1, 13800, Note_on_c, 0, 78, 80
1, 13821, Note_on_c, 1, 66, 0
1, 13823, Note_on_c, 0, 78, 0
1, 13824, Note_on_c, 0, 76, 80
1, 13824, Note_on_c, 1, 59, 75
1, 13847, Note_on_c, 0, 76, 0
1, 13848, Note_on_c, 0, 74, 80
1, 13869, Note_on_c, 1, 59, 0
1, 13871, Note_on_c, 0, 74, 0
1, 13872, Note_on_c, 0, 73, 80
1, 13872, Note_on_c, 1, 66, 75
1, 13895, Note_on_c, 0, 73, 0
1, 13896, Note_on_c, 0, 74, 80
1, 13917, Note_on_c, 1, 66, 0
1, 13919, Note_on_c, 0, 74, 0
1, 13920, Note_on_c, 0, 83, 80
1, 13920, Note_on_c, 1, 55, 75
1, 13943, Note_on_c, 0, 83, 0
1, 13944, Note_on_c, 0, 79, 80
1, 13965, Note_on_c, 1, 55, 0
1, 13967, Note_on_c, 0, 79, 0
1, 13968, Note_on_c, 0, 78, 80
1, 13968, Note_on_c, 1, 64, 75
1, 13991, Note_on_c, 0, 78, 0
1, 13992, Note_on_c, 0, 76, 80
1, 14013, Note_on_c, 1, 64, 0
1, 14015, Note_on_c, 0, 76, 0
1, 14016, Note_on_c, 0, 74, 80
1, 14016, Note_on_c, 1, 57, 75
1, 14039, Note_on_c, 0, 74, 0
1, 14040, Note_on_c, 0, 72, 80
1, 14061, Note_on_c, 1, 57, 0
1, 14063, Note_on_c, 0, 72, 0
1, 14064, Note_on_c, 0, 71, 80
1, 14064, Note_on_c, 1, 64, 75
1, 14087, Note_on_c, 0, 71, 0
1, 14088, Note_on_c, 0, 72, 80
1, 14109, Note_on_c, 1, 64, 0
1, 14111, Note_on_c, 0, 72, 0
1, 14112, Note_on_c, 0, 81, 80
1, 14112, Note_on_c, 1, 54, 75
1, 14135, Note_on_c, 0, 81, 0
1, 14136, Note_on_c, 0, 72, 80
1, 14157, Note_on_c, 1, 54, 0
1, 14159, Note_on_c, 0, 72, 0
1, 14160, Note_on_c, 0, 81, 80
1, 14160, Note_on_c, 1, 62, 75
1, 14183, Note_on_c, 0, 81, 0
1, 14184, Note_on_c, 0, 72, 80
1, 14205, Note_on_c, 1, 62, 0
1, 14207, Note_on_c, 0, 72, 0
1, 14208, Note_on_c, 0, 71, 80
1, 14208, Note_on_c, 1, 55, 75
1, 14228, Note_on_c, 0, 71, 0
1, 14253, Note_on_c, 1, 55, 0
1, 14256, Note_on_c, 0, 71, 80
1, 14256, Note_on_c, 1, 62, 75
1, 14276, Note_on_c, 0, 71, 0
1, 14301, Note_on_c, 1, 62, 0
1, 14304, Note_on_c, 0, 74, 80
1, 14304, Note_on_c, 1, 52, 75
1, 14327, Note_on_c, 0, 74, 0
1, 14328, Note_on_c, 0, 73, 80
1, 14349, Note_on_c, 1, 52, 0
1, 14351, Note_on_c, 0, 73, 0
1, 14352, Note_on_c, 0, 71, 80
1, 14352, Note_on_c, 1, 55, 75
1, 14375, Note_on_c, 0, 71, 0
1, 14376, Note_on_c, 0, 73, 80
1, 14397, Note_on_c, 1, 55, 0
1, 14399, Note_on_c, 0, 73, 0
1, 14400, Note_on_c, 0, 74, 75
1, 14400, Note_on_c, 1, 50, 75
1, 14420, Note_on_c, 0, 74, 0
1, 14448, Note_on_c, 0, 74, 75
1, 14448, Note_on_c, 1, 54, 75
1, 14493, Note_on_c, 1, 54, 0
1, 14496, Note_on_c, 0, 74, 0
1, 14496, Note_on_c, 0, 75, 75
1, 14496, Note_on_c, 1, 59, 75
1, 14516, Note_on_c, 0, 75, 0
1, 14541, Note_on_c, 1, 59, 0
1, 14544, Note_on_c, 0, 75, 75
1, 14544, Note_on_c, 1, 59, 75
1, 14589, Note_on_c, 1, 59, 0
1, 14592, Note_on_c, 0, 75, 0
1, 14592, Note_on_c, 0, 76, 75
1, 14592, Note_on_c, 1, 60, 75
1, 14612, Note_on_c, 0, 76, 0
1, 14637, Note_on_c, 1, 60, 0
1, 14640, Note_on_c, 0, 76, 75
1, 14640, Note_on_c, 1, 60, 75
1, 14660, Note_on_c, 0, 76, 0
1, 14685, Note_on_c, 1, 60, 0
1, 14688, Note_on_c, 0, 74, 75
1, 14688, Note_on_c, 1, 57, 75
1, 14711, Note_on_c, 0, 74, 0
1, 14712, Note_on_c, 0, 72, 75
1, 14733, Note_on_c, 1, 57, 0
1, 14735, Note_on_c, 0, 72, 0
1, 14736, Note_on_c, 0, 71, 75
1, 14736, Note_on_c, 1, 57, 75
1, 14759, Note_on_c, 0, 71, 0
1, 14760, Note_on_c, 0, 72, 75
1, 14769, Note_on_c, 1, 50, 0
1, 14781, Note_on_c, 1, 57, 0
1, 14783, Note_on_c, 0, 72, 0
1, 14784, Note_on_c, 0, 69, 75
1, 14784, Note_on_c, 1, 54, 75
1, 14784, Note_on_c, 1, 50, 75
1, 14804, Note_on_c, 0, 69, 0
1, 14829, Note_on_c, 1, 54, 0
1, 14832, Note_on_c, 0, 69, 75
1, 14832, Note_on_c, 1, 54, 75
1, 14877, Note_on_c, 1, 54, 0
1, 14880, Note_on_c, 0, 69, 0
1, 14880, Note_on_c, 0, 75, 75
1, 14880, Note_on_c, 1, 59, 75
1, 14900, Note_on_c, 0, 75, 0
1, 14925, Note_on_c, 1, 59, 0
1, 14928, Note_on_c, 0, 75, 75
1, 14928, Note_on_c, 1, 59, 75
1, 14973, Note_on_c, 1, 59, 0
1, 14976, Note_on_c, 0, 75, 0
1, 14976, Note_on_c, 0, 78, 75
1, 14976, Note_on_c, 1, 60, 75
1, 14999, Note_on_c, 0, 78, 0
1, 15000, Note_on_c, 0, 76, 75
1, 15021, Note_on_c, 1, 60, 0
1, 15023, Note_on_c, 0, 76, 0
1, 15024, Note_on_c, 0, 75, 75
1, 15024, Note_on_c, 1, 60, 75
1, 15047, Note_on_c, 0, 75, 0
1, 15048, Note_on_c, 0, 76, 75
1, 15069, Note_on_c, 1, 60, 0
1, 15071, Note_on_c, 0, 76, 0
1, 15072, Note_on_c, 0, 72, 75
1, 15072, Note_on_c, 1, 57, 75
1, 15092, Note_on_c, 0, 72, 0
1, 15117, Note_on_c, 1, 57, 0
1, 15120, Note_on_c, 0, 72, 75
1, 15120, Note_on_c, 1, 57, 75
1, 15153, Note_on_c, 1, 50, 0
1, 15165, Note_on_c, 1, 57, 0
1, 15168, Note_on_c, 0, 72, 0
1, 15168, Note_on_c, 0, 69, 75
1, 15168, Note_on_c, 1, 54, 75
1, 15168, Note_on_c, 1, 50, 75
1, 15188, Note_on_c, 0, 69, 0
1, 15213, Note_on_c, 1, 54, 0
1, 15216, Note_on_c, 0, 69, 75
1, 15216, Note_on_c, 1, 54, 75
1, 15261, Note_on_c, 1, 54, 0
1, 15264, Note_on_c, 0, 69, 0
1, 15264, Note_on_c, 0, 75, 75
1, 15264, Note_on_c, 1, 59, 75
1, 15284, Note_on_c, 0, 75, 0
1, 15309, Note_on_c, 1, 59, 0
1, 15312, Note_on_c, 0, 75, 73
1, 15312, Note_on_c, 1, 59, 73
1, 15360, Note_on_c, 0, 75, 0
1, 15360, Note_on_c, 0, 76, 71
1, 15360, Note_on_c, 1, 59, 0
1, 15360, Note_on_c, 1, 60, 71
1, 15380, Note_on_c, 0, 76, 0
1, 15380, Note_on_c, 1, 60, 0
1, 15408, Note_on_c, 0, 76, 70
1, 15408, Note_on_c, 1, 60, 70
1, 15456, Note_on_c, 0, 76, 0
1, 15456, Note_on_c, 0, 80, 68
1, 15456, Note_on_c, 1, 60, 0
1, 15456, Note_on_c, 1, 59, 68
1, 15476, Note_on_c, 0, 80, 0
1, 15476, Note_on_c, 1, 59, 0
1, 15504, Note_on_c, 0, 80, 67
1, 15504, Note_on_c, 1, 59, 67
1, 15552, Note_on_c, 0, 80, 0
1, 15552, Note_on_c, 0, 81, 65
1, 15552, Note_on_c, 1, 59, 0
1, 15552, Note_on_c, 1, 60, 65
1, 15572, Note_on_c, 0, 81, 0
1, 15572, Note_on_c, 1, 60, 0
1, 15600, Note_on_c, 0, 81, 64
1, 15600, Note_on_c, 1, 60, 64
1, 15648, Note_on_c, 0, 81, 0
1, 15648, Note_on_c, 0, 80, 62
1, 15648, Note_on_c, 1, 60, 0
1, 15648, Note_on_c, 1, 59, 62
1, 15668, Note_on_c, 0, 80, 0
1, 15668, Note_on_c, 1, 59, 0
1, 15696, Note_on_c, 0, 80, 61
1, 15696, Note_on_c, 1, 59, 61
1, 15744, Note_on_c, 0, 80, 0
1, 15744, Note_on_c, 0, 81, 59
1, 15744, Note_on_c, 1, 59, 0
1, 15744, Note_on_c, 1, 60, 59
1, 15764, Note_on_c, 0, 81, 0
1, 15764, Note_on_c, 1, 60, 0
1, 15792, Note_on_c, 0, 81, 58
1, 15792, Note_on_c, 1, 60, 58
1, 15812, Note_on_c, 0, 81, 0
1, 15833, Note_on_c, 1, 50, 0
1, 15837, Note_on_c, 1, 60, 0
1, 16032, Note_on_c, 0, 74, 75
1, 16052, Note_on_c, 0, 74, 0
1, 16080, Note_on_c, 0, 74, 75
1, 16100, Note_on_c, 0, 74, 0
1, 16128, Note_on_c, 0, 76, 75
1, 16128, Note_on_c, 1, 59, 75
1, 16128, Note_on_c, 1, 55, 75
1, 16151, Note_on_c, 0, 76, 0
1, 16152, Note_on_c, 0, 74, 75
1, 16175, Note_on_c, 0, 74, 0
1, 16176, Note_on_c, 0, 72, 75
1, 16199, Note_on_c, 0, 72, 0
1, 16200, Note_on_c, 0, 71, 75
1, 16217, Note_on_c, 1, 59, 0
1, 16217, Note_on_c, 1, 55, 0
1, 16223, Note_on_c, 0, 71, 0
1, 16224, Note_on_c, 0, 71, 75
1, 16224, Note_on_c, 1, 60, 75
1, 16224, Note_on_c, 1, 55, 75
1, 16247, Note_on_c, 0, 71, 0
1, 16248, Note_on_c, 0, 69, 75
1, 16271, Note_on_c, 0, 69, 0
1, 16272, Note_on_c, 0, 67, 75
1, 16295, Note_on_c, 0, 67, 0
1, 16296, Note_on_c, 0, 66, 75
1, 16313, Note_on_c, 1, 60, 0
1, 16313, Note_on_c, 1, 55, 0
1, 16319, Note_on_c, 0, 66, 0
1, 16320, Note_on_c, 0, 67, 75
1, 16320, Note_on_c, 1, 59, 75
1, 16320, Note_on_c, 1, 55, 75
1, 16368, Note_on_c, 0, 67, 0
1, 16368, Note_on_c, 0, 62, 75
1, 16409, Note_on_c, 1, 59, 0
1, 16409, Note_on_c, 1, 55, 0
1, 16413, Note_on_c, 0, 62, 0
1, 16416, Note_on_c, 0, 67, 75
1, 16464, Note_on_c, 0, 67, 0
1, 16464, Note_on_c, 0, 68, 75
1, 16484, Note_on_c, 0, 68, 0
1, 16512, Note_on_c, 0, 69, 75
1, 16512, Note_on_c, 1, 54, 75
1, 16560, Note_on_c, 0, 69, 0
1, 16560, Note_on_c, 0, 62, 75
1, 16601, Note_on_c, 1, 54, 0
1, 16605, Note_on_c, 0, 62, 0
1, 16608, Note_on_c, 0, 69, 75
1, 16656, Note_on_c, 0, 69, 0
1, 16656, Note_on_c, 0, 70, 75
1, 16676, Note_on_c, 0, 70, 0
1, 16704, Note_on_c, 0, 71, 75
1, 16704, Note_on_c, 1, 55, 75
1, 16752, Note_on_c, 0, 71, 0
1, 16752, Note_on_c, 0, 67, 75
1, 16793, Note_on_c, 1, 55, 0
1, 16797, Note_on_c, 0, 67, 0
1, 16800, Note_on_c, 0, 71, 75
1, 16800, Note_on_c, 1, 67, 75
1, 16820, Note_on_c, 0, 71, 0
1, 16845, Note_on_c, 1, 67, 0
1, 16848, Note_on_c, 0, 71, 75
1, 16848, Note_on_c, 1, 66, 75
1, 16868, Note_on_c, 0, 71, 0
1, 16893, Note_on_c, 1, 66, 0
1, 16896, Note_on_c, 0, 74, 75
1, 16896, Note_on_c, 1, 65, 75
1, 16941, Note_on_c, 1, 65, 0
1, 16944, Note_on_c, 0, 74, 0
1, 16944, Note_on_c, 0, 72, 75
1, 16944, Note_on_c, 1, 64, 75
1, 16989, Note_on_c, 0, 72, 0
1, 16989, Note_on_c, 1, 64, 0
1, 16992, Note_on_c, 0, 73, 75
1, 16992, Note_on_c, 1, 69, 75
1, 17012, Note_on_c, 0, 73, 0
1, 17037, Note_on_c, 1, 69, 0
1, 17040, Note_on_c, 0, 73, 76
1, 17040, Note_on_c, 1, 68, 76
1, 17060, Note_on_c, 0, 73, 0
1, 17085, Note_on_c, 1, 68, 0
1, 17088, Note_on_c, 0, 76, 76
1, 17088, Note_on_c, 1, 67, 76
1, 17133, Note_on_c, 1, 67, 0
1, 17136, Note_on_c, 0, 76, 0
1, 17136, Note_on_c, 0, 74, 76
1, 17136, Note_on_c, 1, 66, 76
1, 17181, Note_on_c, 0, 74, 0
1, 17181, Note_on_c, 1, 66, 0
1, 17184, Note_on_c, 0, 76, 77
1, 17184, Note_on_c, 1, 72, 77
1, 17204, Note_on_c, 0, 76, 0
1, 17229, Note_on_c, 1, 72, 0
1, 17232, Note_on_c, 0, 77, 77
1, 17232, Note_on_c, 1, 72, 77
1, 17252, Note_on_c, 0, 77, 0
1, 17277, Note_on_c, 1, 72, 0
1, 17280, Note_on_c, 0, 78, 77
1, 17280, Note_on_c, 1, 71, 77
1, 17328, Note_on_c, 0, 78, 0
1, 17328, Note_on_c, 0, 79, 78
1, 17369, Note_on_c, 1, 71, 0
1, 17373, Note_on_c, 0, 79, 0
1, 17376, Note_on_c, 0, 80, 78
1, 17376, Note_on_c, 1, 66, 78
1, 17396, Note_on_c, 0, 80, 0
1, 17421, Note_on_c, 1, 66, 0
1, 17424, Note_on_c, 0, 81, 78
1, 17424, Note_on_c, 1, 66, 78
1, 17444, Note_on_c, 0, 81, 0
1, 17469, Note_on_c, 1, 66, 0
1, 17472, Note_on_c, 0, 82, 79
1, 17472, Note_on_c, 1, 67, 79
1, 17520, Note_on_c, 0, 82, 0
1, 17520, Note_on_c, 0, 83, 79
1, 17561, Note_on_c, 1, 67, 0
1, 17565, Note_on_c, 0, 83, 0
1, 17568, Note_on_c, 0, 84, 80
1, 17568, Note_on_c, 0, 81, 64
1, 17568, Note_on_c, 1, 57, 80
1, 17568, Note_on_c, 1, 52, 80
1, 17568, Note_on_c, 1, 48, 80
1, 17591, Note_on_c, 0, 81, 0
1, 17592, Note_on_c, 0, 76, 64
1, 17613, Note_on_c, 0, 84, 0
1, 17615, Note_on_c, 0, 76, 0
1, 17616, Note_on_c, 0, 84, 80
1, 17616, Note_on_c, 0, 81, 64
1, 17639, Note_on_c, 0, 81, 0
1, 17640, Note_on_c, 0, 76, 64
1, 17657, Note_on_c, 1, 57, 0
1, 17657, Note_on_c, 1, 52, 0
1, 17657, Note_on_c, 1, 48, 0
1, 17661, Note_on_c, 0, 84, 0
1, 17663, Note_on_c, 0, 76, 0
1, 17664, Note_on_c, 0, 83, 80
1, 17664, Note_on_c, 0, 79, 64
1, 17664, Note_on_c, 1, 59, 80
1, 17664, Note_on_c, 1, 55, 80
1, 17664, Note_on_c, 1, 50, 80
1, 17687, Note_on_c, 0, 79, 0
1, 17688, Note_on_c, 0, 74, 64
1, 17709, Note_on_c, 0, 83, 0
1, 17711, Note_on_c, 0, 74, 0
1, 17712, Note_on_c, 0, 83, 80
1, 17712, Note_on_c, 0, 79, 64
1, 17735, Note_on_c, 0, 79, 0
1, 17736, Note_on_c, 0, 74, 64
1, 17753, Note_on_c, 1, 59, 0
1, 17753, Note_on_c, 1, 55, 0
1, 17753, Note_on_c, 1, 50, 0
1, 17757, Note_on_c, 0, 83, 0
1, 17759, Note_on_c, 0, 74, 0
1, 17760, Note_on_c, 0, 81, 80
1, 17760, Note_on_c, 0, 78, 64
1, 17760, Note_on_c, 1, 60, 80
1, 17760, Note_on_c, 1, 57, 80
1, 17760, Note_on_c, 1, 50, 80
1, 17783, Note_on_c, 0, 78, 0
1, 17784, Note_on_c, 0, 72, 64
1, 17805, Note_on_c, 0, 81, 0
1, 17807, Note_on_c, 0, 72, 0
1, 17808, Note_on_c, 0, 81, 80
1, 17808, Note_on_c, 0, 78, 64
1, 17831, Note_on_c, 0, 78, 0
1, 17832, Note_on_c, 0, 72, 64
1, 17849, Note_on_c, 1, 60, 0
1, 17849, Note_on_c, 1, 57, 0
1, 17849, Note_on_c, 1, 50, 0
1, 17853, Note_on_c, 0, 81, 0
1, 17855, Note_on_c, 0, 72, 0
1, 17856, Note_on_c, 0, 79, 80
1, 17856, Note_on_c, 0, 74, 80
1, 17856, Note_on_c, 0, 71, 80
1, 17856, Note_on_c, 1, 59, 80
1, 17856, Note_on_c, 1, 55, 80
1, 17945, Note_on_c, 0, 79, 0
1, 17945, Note_on_c, 0, 74, 0
1, 17945, Note_on_c, 0, 71, 0
1, 17945, Note_on_c, 1, 59, 0
1, 17945, Note_on_c, 1, 55, 0
1, 17952, Note_on_c, 0, 62, 80
1, 17952, Note_on_c, 1, 50, 80
1, 17975, Note_on_c, 0, 62, 0
1, 17975, Note_on_c, 1, 50, 0
1, 17976, Note_on_c, 0, 60, 80
1, 17976, Note_on_c, 1, 48, 80
1, 17999, Note_on_c, 0, 60, 0
1, 17999, Note_on_c, 1, 48, 0
1, 18000, Note_on_c, 0, 59, 80
1, 18000, Note_on_c, 1, 47, 80
1, 18023, Note_on_c, 0, 59, 0
1, 18023, Note_on_c, 1, 47, 0
1, 18024, Note_on_c, 0, 57, 80
1, 18024, Note_on_c, 1, 45, 80
1, 18047, Note_on_c, 0, 57, 0
1, 18047, Note_on_c, 1, 45, 0
1, 18048, Note_on_c, 0, 55, 80
1, 18048, Note_on_c, 1, 43, 80
1, 18071, Note_on_c, 0, 55, 0
1, 18071, Note_on_c, 1, 43, 0
1, 18072, Note_on_c, 0, 59, 80
1, 18072, Note_on_c, 1, 47, 80
1, 18095, Note_on_c, 0, 59, 0
1, 18095, Note_on_c, 1, 47, 0
1, 18096, Note_on_c, 0, 62, 80
1, 18096, Note_on_c, 1, 50, 80
1, 18119, Note_on_c, 0, 62, 0
1, 18119, Note_on_c, 1, 50, 0
1, 18120, Note_on_c, 0, 67, 80
1, 18120, Note_on_c, 1, 55, 80
1, 18143, Note_on_c, 0, 67, 0
1, 18143, Note_on_c, 1, 55, 0
1, 18144, Note_on_c, 0, 66, 80
1, 18144, Note_on_c, 1, 54, 80
1, 18167, Note_on_c, 0, 66, 0
1, 18167, Note_on_c, 1, 54, 0
1, 18168, Note_on_c, 0, 69, 80
1, 18168, Note_on_c, 1, 57, 80
1, 18191, Note_on_c, 0, 69, 0
1, 18191, Note_on_c, 1, 57, 0
1, 18192, Note_on_c, 0, 66, 80
1, 18192, Note_on_c, 1, 54, 80
1, 18215, Note_on_c, 0, 66, 0
1, 18215, Note_on_c, 1, 54, 0
1, 18216, Note_on_c, 0, 62, 80
1, 18216, Note_on_c, 1, 50, 80
1, 18239, Note_on_c, 0, 62, 0
1, 18239, Note_on_c, 1, 50, 0
1, 18240, Note_on_c, 0, 67, 80
1, 18240, Note_on_c, 1, 55, 80
1, 18260, Note_on_c, 0, 67, 0
1, 18285, Note_on_c, 1, 55, 0
1, 18288, Note_on_c, 0, 67, 80
1, 18288, Note_on_c, 1, 55, 80
1, 18308, Note_on_c, 0, 67, 0
1, 18333, Note_on_c, 1, 55, 0
1, 18336, Note_on_c, 0, 62, 80
1, 18336, Note_on_c, 1, 50, 80
1, 18359, Note_on_c, 0, 62, 0
1, 18359, Note_on_c, 1, 50, 0
1, 18360, Note_on_c, 0, 60, 80
1, 18360, Note_on_c, 1, 48, 80
1, 18383, Note_on_c, 0, 60, 0
1, 18383, Note_on_c, 1, 48, 0
1, 18384, Note_on_c, 0, 59, 80
1, 18384, Note_on_c, 1, 47, 80
1, 18407, Note_on_c, 0, 59, 0
1, 18407, Note_on_c, 1, 47, 0
1, 18408, Note_on_c, 0, 57, 80
1, 18408, Note_on_c, 1, 45, 80
1, 18431, Note_on_c, 0, 57, 0
1, 18431, Note_on_c, 1, 45, 0
1, 18432, Note_on_c, 0, 55, 80
1, 18432, Note_on_c, 1, 43, 80
1, 18455, Note_on_c, 0, 55, 0
1, 18455, Note_on_c, 1, 43, 0
1, 18456, Note_on_c, 0, 59, 80
1, 18456, Note_on_c, 1, 47, 80
1, 18479, Note_on_c, 0, 59, 0
1, 18479, Note_on_c, 1, 47, 0
1, 18480, Note_on_c, 0, 62, 80
1, 18480, Note_on_c, 1, 50, 80
1, 18503, Note_on_c, 0, 62, 0
1, 18503, Note_on_c, 1, 50, 0
1, 18504, Note_on_c, 0, 67, 80
1, 18504, Note_on_c, 1, 55, 80
1, 18527, Note_on_c, 0, 67, 0
1, 18527, Note_on_c, 1, 55, 0
1, 18528, Note_on_c, 0, 66, 80
1, 18528, Note_on_c, 1, 54, 80
1, 18551, Note_on_c, 0, 66, 0
1, 18551, Note_on_c, 1, 54, 0
1, 18552, Note_on_c, 0, 69, 80
1, 18552, Note_on_c, 1, 57, 80
1, 18575, Note_on_c, 0, 69, 0
1, 18575, Note_on_c, 1, 57, 0
1, 18576, Note_on_c, 0, 66, 80
1, 18576, Note_on_c, 1, 54, 80
1, 18599, Note_on_c, 0, 66, 0
1, 18599, Note_on_c, 1, 54, 0
1, 18600, Note_on_c, 0, 62, 80
1, 18600, Note_on_c, 1, 50, 80
1, 18623, Note_on_c, 0, 62, 0
1, 18623, Note_on_c, 1, 50, 0
1, 18624, Note_on_c, 0, 71, 80
1, 18624, Note_on_c, 1, 59, 80
1, 18644, Note_on_c, 0, 71, 0
1, 18669, Note_on_c, 1, 59, 0
1, 18672, Note_on_c, 0, 71, 80
1, 18672, Note_on_c, 1, 59, 80
1, 18692, Note_on_c, 0, 71, 0
1, 18717, Note_on_c, 1, 59, 0
1, 18720, Note_on_c, 0, 69, 80
1, 18720, Note_on_c, 1, 57, 80
1, 18743, Note_on_c, 0, 69, 0
1, 18743, Note_on_c, 1, 57, 0
1, 18744, Note_on_c, 0, 72, 80
1, 18744, Note_on_c, 1, 60, 80
1, 18767, Note_on_c, 0, 72, 0
1, 18767, Note_on_c, 1, 60, 0
1, 18768, Note_on_c, 0, 69, 80
1, 18768, Note_on_c, 1, 57, 80
1, 18791, Note_on_c, 0, 69, 0
1, 18791, Note_on_c, 1, 57, 0
1, 18792, Note_on_c, 0, 66, 80
1, 18792, Note_on_c, 1, 54, 80
1, 18815, Note_on_c, 0, 66, 0
1, 18815, Note_on_c, 1, 54, 0
1, 18816, Note_on_c, 0, 74, 80
1, 18816, Note_on_c, 1, 62, 80
1, 18836, Note_on_c, 0, 74, 0
1, 18861, Note_on_c, 1, 62, 0
1, 18864, Note_on_c, 0, 74, 80
1, 18864, Note_on_c, 1, 62, 80
1, 18912, Note_on_c, 0, 74, 0
1, 18912, Note_on_c, 0, 75, 80
1, 18912, Note_on_c, 1, 62, 0
1, 18912, Note_on_c, 1, 63, 80
1, 18932, Note_on_c, 0, 75, 0
1, 18932, Note_on_c, 1, 63, 0
1, 18960, Note_on_c, 0, 75, 80
1, 18960, Note_on_c, 1, 63, 80
1, 19008, Note_on_c, 0, 75, 0
1, 19008, Note_on_c, 0, 76, 80
1, 19008, Note_on_c, 1, 63, 0
1, 19008, Note_on_c, 1, 64, 80
1, 19028, Note_on_c, 0, 76, 0
1, 19028, Note_on_c, 1, 64, 0
1, 19056, Note_on_c, 0, 76, 80
1, 19056, Note_on_c, 1, 64, 80
1, 19101, Note_on_c, 1, 64, 0
1, 19104, Note_on_c, 0, 76, 0
1, 19104, Note_on_c, 0, 87, 75
1, 19104, Note_on_c, 0, 75, 75
1, 19124, Note_on_c, 0, 87, 0
1, 19124, Note_on_c, 0, 75, 0
1, 19152, Note_on_c, 0, 87, 75
1, 19152, Note_on_c, 0, 75, 75
1, 19200, Note_on_c, 0, 87, 0
1, 19200, Note_on_c, 0, 75, 0
1, 19200, Note_on_c, 0, 88, 75
1, 19200, Note_on_c, 0, 76, 75
1, 19220, Note_on_c, 0, 88, 0
1, 19220, Note_on_c, 0, 76, 0
1, 19248, Note_on_c, 0, 88, 75
1, 19248, Note_on_c, 0, 76, 75
1, 19293, Note_on_c, 0, 88, 0
1, 19293, Note_on_c, 0, 76, 0
1, 19296, Note_on_c, 1, 47, 75
1, 19296, Note_on_c, 1, 35, 75
1, 19316, Note_on_c, 1, 47, 0
1, 19316, Note_on_c, 1, 35, 0
1, 19344, Note_on_c, 1, 47, 75
1, 19344, Note_on_c, 1, 35, 75
1, 19392, Note_on_c, 0, 63, 75
1, 19392, Note_on_c, 0, 51, 75
1, 19392, Note_on_c, 1, 47, 0
1, 19392, Note_on_c, 1, 35, 0
1, 19392, Note_on_c, 1, 48, 75
1, 19392, Note_on_c, 1, 36, 75
1, 19412, Note_on_c, 0, 63, 0
1, 19412, Note_on_c, 0, 51, 0
1, 19440, Note_on_c, 0, 63, 75
1, 19440, Note_on_c, 0, 51, 75
1, 19481, Note_on_c, 1, 48, 0
1, 19481, Note_on_c, 1, 36, 0
1, 19488, Note_on_c, 0, 63, 0
1, 19488, Note_on_c, 0, 51, 0
1, 19488, Note_on_c, 0, 64, 75
1, 19488, Note_on_c, 0, 52, 75
1, 19488, Note_on_c, 1, 49, 76
1, 19488, Note_on_c, 1, 37, 76
1, 19508, Note_on_c, 1, 49, 0
1, 19508, Note_on_c, 1, 37, 0
1, 19536, Note_on_c, 1, 49, 76
1, 19536, Note_on_c, 1, 37, 76
1, 19577, Note_on_c, 0, 64, 0
1, 19577, Note_on_c, 0, 52, 0
1, 19584, Note_on_c, 0, 65, 77
1, 19584, Note_on_c, 0, 53, 77
1, 19584, Note_on_c, 1, 49, 0
1, 19584, Note_on_c, 1, 37, 0
1, 19584, Note_on_c, 1, 50, 77
1, 19584, Note_on_c, 1, 38, 77
1, 19604, Note_on_c, 0, 65, 0
1, 19604, Note_on_c, 0, 53, 0
1, 19632, Note_on_c, 0, 65, 77
1, 19632, Note_on_c, 0, 53, 77
1, 19673, Note_on_c, 1, 50, 0
1, 19673, Note_on_c, 1, 38, 0
1, 19680, Note_on_c, 0, 65, 0
1, 19680, Note_on_c, 0, 53, 0
1, 19680, Note_on_c, 0, 66, 78
1, 19680, Note_on_c, 0, 54, 78
1, 19680, Note_on_c, 1, 51, 78
1, 19680, Note_on_c, 1, 39, 78
1, 19700, Note_on_c, 1, 51, 0
1, 19700, Note_on_c, 1, 39, 0
1, 19728, Note_on_c, 1, 51, 79
1, 19728, Note_on_c, 1, 39, 79
1, 19769, Note_on_c, 0, 66, 0
1, 19769, Note_on_c, 0, 54, 0
1, 19776, Note_on_c, 0, 67, 80
1, 19776, Note_on_c, 1, 51, 0
1, 19776, Note_on_c, 1, 39, 0
1, 19776, Note_on_c, 1, 52, 80
1, 19776, Note_on_c, 1, 40, 80
1, 19799, Note_on_c, 0, 67, 0
1, 19800, Note_on_c, 0, 64, 80
1, 19823, Note_on_c, 0, 64, 0
1, 19824, Note_on_c, 0, 60, 80
1, 19847, Note_on_c, 0, 60, 0
1, 19848, Note_on_c, 0, 55, 80
1, 19865, Note_on_c, 1, 52, 0
1, 19865, Note_on_c, 1, 40, 0
1, 19871, Note_on_c, 0, 55, 0
1, 19872, Note_on_c, 0, 69, 80
1, 19872, Note_on_c, 1, 54, 80
1, 19872, Note_on_c, 1, 42, 80
1, 19895, Note_on_c, 0, 69, 0
1, 19896, Note_on_c, 0, 66, 80
1, 19919, Note_on_c, 0, 66, 0
1, 19920, Note_on_c, 0, 62, 80
1, 19943, Note_on_c, 0, 62, 0
1, 19944, Note_on_c, 0, 57, 80
1, 19961, Note_on_c, 1, 54, 0
1, 19961, Note_on_c, 1, 42, 0
1, 19967, Note_on_c, 0, 57, 0
1, 19968, Note_on_c, 0, 71, 80
1, 19968, Note_on_c, 1, 55, 80
1, 19968, Note_on_c, 1, 43, 80
1, 19991, Note_on_c, 0, 71, 0
1, 19992, Note_on_c, 0, 67, 80
1, 20015, Note_on_c, 0, 67, 0
1, 20016, Note_on_c, 0, 62, 80
1, 20039, Note_on_c, 0, 62, 0
1, 20040, Note_on_c, 0, 59, 80
1, 20057, Note_on_c, 1, 55, 0
1, 20057, Note_on_c, 1, 43, 0
1, 20063, Note_on_c, 0, 59, 0
1, 20064, Note_on_c, 0, 72, 80
1, 20064, Note_on_c, 1, 57, 80
1, 20064, Note_on_c, 1, 45, 80
1, 20087, Note_on_c, 0, 72, 0
1, 20088, Note_on_c, 0, 69, 80
1, 20111, Note_on_c, 0, 69, 0
1, 20112, Note_on_c, 0, 66, 80
1, 20135, Note_on_c, 0, 66, 0
1, 20136, Note_on_c, 0, 60, 80
1, 20153, Note_on_c, 1, 57, 0
1, 20153, Note_on_c, 1, 45, 0
1, 20159, Note_on_c, 0, 60, 0
1, 20160, Note_on_c, 0, 74, 80
1, 20160, Note_on_c, 1, 59, 80
1, 20160, Note_on_c, 1, 47, 80
1, 20183, Note_on_c, 0, 74, 0
1, 20184, Note_on_c, 0, 71, 80
1, 20207, Note_on_c, 0, 71, 0
1, 20208, Note_on_c, 0, 67, 80
1, 20231, Note_on_c, 0, 67, 0
1, 20232, Note_on_c, 0, 62, 80
1, 20249, Note_on_c, 1, 59, 0
1, 20249, Note_on_c, 1, 47, 0
1, 20255, Note_on_c, 0, 62, 0
1, 20256, Note_on_c, 0, 74, 80
1, 20256, Note_on_c, 1, 57, 80
1, 20256, Note_on_c, 1, 54, 80
1, 20276, Note_on_c, 1, 57, 0
1, 20276, Note_on_c, 1, 54, 0
1, 20279, Note_on_c, 0, 74, 0
1, 20280, Note_on_c, 0, 72, 80
1, 20303, Note_on_c, 0, 72, 0
1, 20304, Note_on_c, 0, 69, 80
1, 20304, Note_on_c, 1, 57, 80
1, 20304, Note_on_c, 1, 54, 80
1, 20324, Note_on_c, 1, 57, 0
1, 20324, Note_on_c, 1, 54, 0
1, 20327, Note_on_c, 0, 69, 0
1, 20328, Note_on_c, 0, 62, 80
1, 20351, Note_on_c, 0, 62, 0
1, 20352, Note_on_c, 0, 74, 80
1, 20352, Note_on_c, 1, 59, 80
1, 20352, Note_on_c, 1, 55, 80
1, 20375, Note_on_c, 0, 74, 0
1, 20376, Note_on_c, 0, 71, 80
1, 20399, Note_on_c, 0, 71, 0
1, 20400, Note_on_c, 0, 67, 80
1, 20423, Note_on_c, 0, 67, 0
1, 20424, Note_on_c, 0, 62, 80
1, 20441, Note_on_c, 1, 59, 0
1, 20441, Note_on_c, 1, 55, 0
1, 20447, Note_on_c, 0, 62, 0
1, 20448, Note_on_c, 0, 74, 80
1, 20448, Note_on_c, 1, 60, 80
1, 20448, Note_on_c, 1, 57, 80
1, 20468, Note_on_c, 1, 60, 0
1, 20468, Note_on_c, 1, 57, 0
1, 20471, Note_on_c, 0, 74, 0
1, 20472, Note_on_c, 0, 69, 80
1, 20495, Note_on_c, 0, 69, 0
1, 20496, Note_on_c, 0, 66, 80
1, 20496, Note_on_c, 1, 60, 80
1, 20496, Note_on_c, 1, 57, 80
1, 20516, Note_on_c, 1, 60, 0
1, 20516, Note_on_c, 1, 57, 0
1, 20519, Note_on_c, 0, 66, 0
1, 20520, Note_on_c, 0, 62, 80
1, 20543, Note_on_c, 0, 62, 0
1, 20544, Note_on_c, 0, 74, 80
1, 20544, Note_on_c, 1, 59, 80
1, 20544, Note_on_c, 1, 55, 80
1, 20567, Note_on_c, 0, 74, 0
1, 20568, Note_on_c, 0, 71, 80
1, 20591, Note_on_c, 0, 71, 0
1, 20592, Note_on_c, 0, 67, 80
1, 20615, Note_on_c, 0, 67, 0
1, 20616, Note_on_c, 0, 62, 80
1, 20633, Note_on_c, 1, 59, 0
1, 20633, Note_on_c, 1, 55, 0
1, 20639, Note_on_c, 0, 62, 0
1, 20640, Note_on_c, 0, 74, 80
1, 20640, Note_on_c, 1, 57, 80
1, 20640, Note_on_c, 1, 54, 80
1, 20660, Note_on_c, 1, 57, 0
1, 20660, Note_on_c, 1, 54, 0
1, 20663, Note_on_c, 0, 74, 0
1, 20664, Note_on_c, 0, 72, 80
1, 20687, Note_on_c, 0, 72, 0
1, 20688, Note_on_c, 0, 69, 80
1, 20688, Note_on_c, 1, 57, 80
1, 20688, Note_on_c, 1, 54, 80
1, 20708, Note_on_c, 1, 57, 0
1, 20708, Note_on_c, 1, 54, 0
1, 20711, Note_on_c, 0, 69, 0
1, 20712, Note_on_c, 0, 66, 80
1, 20735, Note_on_c, 0, 66, 0
1, 20736, Note_on_c, 0, 74, 80
1, 20736, Note_on_c, 1, 59, 80
1, 20736, Note_on_c, 1, 55, 80
1, 20759, Note_on_c, 0, 74, 0
1, 20760, Note_on_c, 0, 71, 80
1, 20783, Note_on_c, 0, 71, 0
1, 20784, Note_on_c, 0, 67, 80
1, 20807, Note_on_c, 0, 67, 0
1, 20808, Note_on_c, 0, 62, 80
1, 20825, Note_on_c, 1, 59, 0
1, 20825, Note_on_c, 1, 55, 0
1, 20831, Note_on_c, 0, 62, 0
1, 20832, Note_on_c, 0, 74, 80
1, 20832, Note_on_c, 1, 60, 80
1, 20832, Note_on_c, 1, 57, 80
1, 20852, Note_on_c, 1, 60, 0
1, 20852, Note_on_c, 1, 57, 0
1, 20855, Note_on_c, 0, 74, 0
1, 20856, Note_on_c, 0, 69, 80
1, 20879, Note_on_c, 0, 69, 0
1, 20880, Note_on_c, 0, 66, 80
1, 20880, Note_on_c, 1, 60, 80
1, 20880, Note_on_c, 1, 57, 80
1, 20900, Note_on_c, 1, 60, 0
1, 20900, Note_on_c, 1, 57, 0
1, 20903, Note_on_c, 0, 66, 0
1, 20904, Note_on_c, 0, 62, 80
1, 20927, Note_on_c, 0, 62, 0
1, 20928, Note_on_c, 0, 74, 80
1, 20928, Note_on_c, 1, 59, 80
1, 20928, Note_on_c, 1, 55, 80
1, 20951, Note_on_c, 0, 74, 0
1, 20952, Note_on_c, 0, 71, 80
1, 20975, Note_on_c, 0, 71, 0
1, 20976, Note_on_c, 0, 67, 80
1, 20999, Note_on_c, 0, 67, 0
1, 21000, Note_on_c, 0, 62, 80
1, 21017, Note_on_c, 1, 59, 0
1, 21017, Note_on_c, 1, 55, 0
1, 21023, Note_on_c, 0, 62, 0
1, 21024, Note_on_c, 0, 79, 75
1, 21044, Note_on_c, 0, 79, 0
1, 21072, Note_on_c, 0, 79, 75
1, 21092, Note_on_c, 0, 79, 0
1, 21120, Note_on_c, 0, 75, 75
1, 21120, Note_on_c, 1, 60, 75
1, 21168, Note_on_c, 0, 75, 0
1, 21168, Note_on_c, 0, 76, 75
1, 21209, Note_on_c, 1, 60, 0
1, 21213, Note_on_c, 0, 76, 0
1, 21216, Note_on_c, 0, 76, 75
1, 21216, Note_on_c, 0, 72, 75
1, 21236, Note_on_c, 0, 76, 0
1, 21236, Note_on_c, 0, 72, 0
1, 21264, Note_on_c, 0, 76, 75
1, 21264, Note_on_c, 0, 72, 75
1, 21284, Note_on_c, 0, 76, 0
1, 21284, Note_on_c, 0, 72, 0
1, 21312, Note_on_c, 0, 71, 75
1, 21312, Note_on_c, 0, 68, 75
1, 21360, Note_on_c, 0, 71, 0
1, 21360, Note_on_c, 0, 68, 0
1, 21360, Note_on_c, 0, 72, 75
1, 21360, Note_on_c, 0, 69, 75
1, 21405, Note_on_c, 0, 72, 0
1, 21405, Note_on_c, 0, 69, 0
1, 21408, Note_on_c, 0, 72, 75
1, 21408, Note_on_c, 0, 63, 75
1, 21408, Note_on_c, 1, 54, 75
1, 21428, Note_on_c, 0, 72, 0
1, 21428, Note_on_c, 0, 63, 0
1, 21453, Note_on_c, 1, 54, 0
1, 21456, Note_on_c, 0, 72, 75
1, 21456, Note_on_c, 0, 63, 75
1, 21456, Note_on_c, 1, 54, 75
1, 21476, Note_on_c, 0, 72, 0
1, 21476, Note_on_c, 0, 63, 0
1, 21501, Note_on_c, 1, 54, 0
1, 21504, Note_on_c, 0, 71, 75
1, 21504, Note_on_c, 0, 62, 75
1, 21504, Note_on_c, 1, 55, 75
1, 21549, Note_on_c, 1, 55, 0
1, 21552, Note_on_c, 0, 71, 0
1, 21552, Note_on_c, 0, 62, 0
1, 21552, Note_on_c, 0, 69, 75
1, 21552, Note_on_c, 0, 60, 75
1, 21552, Note_on_c, 1, 48, 75
1, 21572, Note_on_c, 0, 69, 0
1, 21572, Note_on_c, 0, 60, 0
1, 21597, Note_on_c, 1, 48, 0
1, 21600, Note_on_c, 0, 67, 75
1, 21600, Note_on_c, 0, 59, 75
1, 21600, Note_on_c, 1, 50, 75
1, 21620, Note_on_c, 0, 67, 0
1, 21620, Note_on_c, 0, 59, 0
1, 21645, Note_on_c, 1, 50, 0
1, 21648, Note_on_c, 0, 66, 75
1, 21648, Note_on_c, 0, 57, 75
1, 21648, Note_on_c, 1, 50, 75
1, 21668, Note_on_c, 0, 66, 0
1, 21668, Note_on_c, 0, 57, 0
1, 21693, Note_on_c, 1, 50, 0
1, 21696, Note_on_c, 0, 67, 75
1, 21696, Note_on_c, 0, 55, 75
1, 21696, Note_on_c, 1, 31, 80
1, 21719, Note_on_c, 1, 31, 0
1, 21720, Note_on_c, 1, 43, 80
1, 21743, Note_on_c, 1, 43, 0
1, 21744, Note_on_c, 1, 31, 80
1, 21767, Note_on_c, 1, 31, 0
1, 21768, Note_on_c, 1, 43, 80
1, 21785, Note_on_c, 0, 67, 0
1, 21785, Note_on_c, 0, 55, 0
1, 21791, Note_on_c, 1, 43, 0
1, 21792, Note_on_c, 0, 83, 80
1, 21792, Note_on_c, 1, 31, 80
1, 21815, Note_on_c, 0, 83, 0
1, 21815, Note_on_c, 1, 31, 0
1, 21816, Note_on_c, 0, 86, 80
1, 21816, Note_on_c, 1, 43, 80
1, 21839, Note_on_c, 0, 86, 0
1, 21839, Note_on_c, 1, 43, 0
1, 21840, Note_on_c, 0, 83, 80
1, 21840, Note_on_c, 1, 31, 80
1, 21863, Note_on_c, 0, 83, 0
1, 21863, Note_on_c, 1, 31, 0
1, 21864, Note_on_c, 0, 79, 80
1, 21864, Note_on_c, 1, 43, 80
1, 21887, Note_on_c, 0, 79, 0
1, 21887, Note_on_c, 1, 43, 0
1, 21888, Note_on_c, 0, 78, 80
1, 21888, Note_on_c, 1, 31, 80
1, 21911, Note_on_c, 0, 78, 0
1, 21911, Note_on_c, 1, 31, 0
1, 21912, Note_on_c, 0, 81, 80
1, 21912, Note_on_c, 1, 43, 80
1, 21935, Note_on_c, 0, 81, 0
1, 21935, Note_on_c, 1, 43, 0
1, 21936, Note_on_c, 0, 78, 80
1, 21936, Note_on_c, 1, 31, 80
1, 21959, Note_on_c, 0, 78, 0
1, 21959, Note_on_c, 1, 31, 0
1, 21960, Note_on_c, 0, 74, 80
1, 21960, Note_on_c, 1, 43, 80
1, 21983, Note_on_c, 0, 74, 0
1, 21983, Note_on_c, 1, 43, 0
1, 21984, Note_on_c, 0, 72, 80
1, 21984, Note_on_c, 1, 31, 80
1, 22007, Note_on_c, 0, 72, 0
1, 22007, Note_on_c, 1, 31, 0
1, 22008, Note_on_c, 0, 76, 80
1, 22008, Note_on_c, 1, 43, 80
1, 22031, Note_on_c, 0, 76, 0
1, 22031, Note_on_c, 1, 43, 0
1, 22032, Note_on_c, 0, 72, 80
1, 22032, Note_on_c, 1, 31, 80
1, 22055, Note_on_c, 0, 72, 0
1, 22055, Note_on_c, 1, 31, 0
1, 22056, Note_on_c, 0, 69, 80
1, 22056, Note_on_c, 1, 43, 80
1, 22079, Note_on_c, 0, 69, 0
1, 22079, Note_on_c, 1, 43, 0
1, 22080, Note_on_c, 0, 67, 80
1, 22080, Note_on_c, 1, 31, 80
1, 22103, Note_on_c, 1, 31, 0
1, 22104, Note_on_c, 1, 43, 80
1, 22125, Note_on_c, 0, 67, 0
1, 22127, Note_on_c, 1, 43, 0
1, 22128, Note_on_c, 1, 31, 80
1, 22151, Note_on_c, 1, 31, 0
1, 22152, Note_on_c, 1, 43, 80
1, 22175, Note_on_c, 1, 43, 0
1, 22176, Note_on_c, 0, 71, 80
1, 22176, Note_on_c, 1, 31, 80
1, 22199, Note_on_c, 0, 71, 0
1, 22199, Note_on_c, 1, 31, 0
1, 22200, Note_on_c, 0, 74, 80
1, 22200, Note_on_c, 1, 43, 80
1, 22223, Note_on_c, 0, 74, 0
1, 22223, Note_on_c, 1, 43, 0
1, 22224, Note_on_c, 0, 71, 80
1, 22224, Note_on_c, 1, 31, 80
1, 22247, Note_on_c, 0, 71, 0
1, 22247, Note_on_c, 1, 31, 0
1, 22248, Note_on_c, 0, 67, 80
1, 22248, Note_on_c, 1, 43, 80
1, 22271, Note_on_c, 0, 67, 0
1, 22271, Note_on_c, 1, 43, 0
1, 22272, Note_on_c, 0, 66, 80
1, 22272, Note_on_c, 1, 31, 80
1, 22295, Note_on_c, 0, 66, 0
1, 22295, Note_on_c, 1, 31, 0
1, 22296, Note_on_c, 0, 69, 80
1, 22296, Note_on_c, 1, 43, 80
1, 22319, Note_on_c, 0, 69, 0
1, 22319, Note_on_c, 1, 43, 0
1, 22320, Note_on_c, 0, 66, 80
1, 22320, Note_on_c, 1, 31, 80
1, 22343, Note_on_c, 0, 66, 0
1, 22343, Note_on_c, 1, 31, 0
1, 22344, Note_on_c, 0, 62, 80
1, 22344, Note_on_c, 1, 43, 80
1, 22367, Note_on_c, 0, 62, 0
1, 22367, Note_on_c, 1, 43, 0
1, 22368, Note_on_c, 0, 60, 80
1, 22368, Note_on_c, 1, 31, 80
1, 22391, Note_on_c, 0, 60, 0
1, 22391, Note_on_c, 1, 31, 0
1, 22392, Note_on_c, 0, 64, 80
1, 22392, Note_on_c, 1, 43, 80
1, 22415, Note_on_c, 0, 64, 0
1, 22415, Note_on_c, 1, 43, 0
1, 22416, Note_on_c, 0, 60, 80
1, 22416, Note_on_c, 1, 31, 80
1, 22439, Note_on_c, 0, 60, 0
1, 22439, Note_on_c, 1, 31, 0
1, 22440, Note_on_c, 0, 57, 80
1, 22440, Note_on_c, 1, 43, 80
1, 22463, Note_on_c, 0, 57, 0
1, 22463, Note_on_c, 1, 43, 0
1, 22464, Note_on_c, 0, 55, 80
1, 22464, Note_on_c, 1, 43, 80
1, 22464, Note_on_c, 1, 31, 80
1, 22509, Note_on_c, 0, 55, 0
1, 22509, Note_on_c, 1, 43, 0
1, 22509, Note_on_c, 1, 31, 0
1, 22560, Note_on_c, 0, 71, 75
1, 22560, Note_on_c, 0, 67, 75
1, 22580, Note_on_c, 0, 71, 0
1, 22580, Note_on_c, 0, 67, 0
1, 22608, Note_on_c, 0, 71, 75
1, 22608, Note_on_c, 0, 67, 75
1, 22628, Note_on_c, 0, 71, 0
1, 22628, Note_on_c, 0, 67, 0
1, 22656, Note_on_c, 0, 72, 75
1, 22656, Note_on_c, 1, 43, 75
1, 22656, Note_on_c, 1, 31, 75
1, 22679, Note_on_c, 0, 72, 0
1, 22680, Note_on_c, 0, 71, 75
1, 22703, Note_on_c, 0, 71, 0
1, 22704, Note_on_c, 0, 69, 75
1, 22727, Note_on_c, 0, 69, 0
1, 22728, Note_on_c, 0, 67, 75
1, 22745, Note_on_c, 1, 43, 0
1, 22745, Note_on_c, 1, 31, 0
1, 22751, Note_on_c, 0, 67, 0
1, 22752, Note_on_c, 0, 74, 75
1, 22752, Note_on_c, 0, 71, 75
1, 22772, Note_on_c, 0, 74, 0
1, 22772, Note_on_c, 0, 71, 0
1, 22800, Note_on_c, 0, 74, 75
1, 22800, Note_on_c, 0, 71, 75
1, 22820, Note_on_c, 0, 74, 0
1, 22820, Note_on_c, 0, 71, 0
1, 22848, Note_on_c, 0, 76, 75
1, 22848, Note_on_c, 1, 43, 70
1, 22848, Note_on_c, 1, 31, 70
1, 22871, Note_on_c, 0, 76, 0
1, 22872, Note_on_c, 0, 74, 75
1, 22895, Note_on_c, 0, 74, 0
1, 22896, Note_on_c, 0, 72, 75
1, 22919, Note_on_c, 0, 72, 0
1, 22920, Note_on_c, 0, 71, 75
1, 22937, Note_on_c, 1, 43, 0
1, 22937, Note_on_c, 1, 31, 0
1, 22943, Note_on_c, 0, 71, 0
1, 22944, Note_on_c, 0, 77, 75
1, 22944, Note_on_c, 0, 74, 75
1, 22964, Note_on_c, 0, 77, 0
1, 22964, Note_on_c, 0, 74, 0
1, 22992, Note_on_c, 0, 77, 75
1, 22992, Note_on_c, 0, 74, 75
1, 23012, Note_on_c, 0, 77, 0
1, 23012, Note_on_c, 0, 74, 0
1, 23040, Note_on_c, 0, 79, 75
1, 23040, Note_on_c, 1, 43, 64
1, 23040, Note_on_c, 1, 31, 64
1, 23063, Note_on_c, 0, 79, 0
1, 23064, Note_on_c, 0, 77, 75
1, 23087, Note_on_c, 0, 77, 0
1, 23088, Note_on_c, 0, 76, 75
1, 23111, Note_on_c, 0, 76, 0
1, 23112, Note_on_c, 0, 74, 75
1, 23129, Note_on_c, 1, 43, 0
1, 23129, Note_on_c, 1, 31, 0
1, 23135, Note_on_c, 0, 74, 0
1, 23136, Note_on_c, 0, 81, 64
1, 23136, Note_on_c, 0, 77, 64
1, 23156, Note_on_c, 0, 81, 0
1, 23156, Note_on_c, 0, 77, 0
1, 23184, Note_on_c, 0, 81, 64
1, 23184, Note_on_c, 0, 77, 64
1, 23204, Note_on_c, 0, 81, 0
1, 23204, Note_on_c, 0, 77, 0
1, 23232, Note_on_c, 0, 81, 64
1, 23232, Note_on_c, 0, 77, 64
1, 23277, Note_on_c, 0, 81, 0
1, 23277, Note_on_c, 0, 77, 0
1, 23328, Note_on_c, 0, 77, 58
1, 23328, Note_on_c, 0, 71, 58
1, 23348, Note_on_c, 0, 77, 0
1, 23348, Note_on_c, 0, 71, 0
1, 23376, Note_on_c, 0, 77, 58
1, 23376, Note_on_c, 0, 71, 58
1, 23396, Note_on_c, 0, 77, 0
1, 23396, Note_on_c, 0, 71, 0
1, 23424, Note_on_c, 0, 77, 58
1, 23424, Note_on_c, 0, 71, 58
1, 23469, Note_on_c, 0, 77, 0
1, 23469, Note_on_c, 0, 71, 0
1, 23472, Tempo, 2000000
1, 23520, Tempo, 400000
1, 23520, Note_on_c, 0, 79, 75
1, 23540, Note_on_c, 0, 79, 0
1, 23568, Note_on_c, 0, 79, 75
1, 23588, Note_on_c, 0, 79, 0
1, 23616, Note_on_c, 0, 81, 75
1, 23616, Note_on_c, 1, 64, 75
1, 23616, Note_on_c, 1, 60, 75
1, 23639, Note_on_c, 0, 81, 0
1, 23640, Note_on_c, 0, 79, 75
1, 23663, Note_on_c, 0, 79, 0
1, 23664, Note_on_c, 0, 77, 75
1, 23687, Note_on_c, 0, 77, 0
1, 23688, Note_on_c, 0, 76, 75
1, 23705, Note_on_c, 1, 64, 0
1, 23705, Note_on_c, 1, 60, 0
1, 23711, Note_on_c, 0, 76, 0
1, 23712, Note_on_c, 0, 76, 75
1, 23712, Note_on_c, 1, 65, 75
1, 23712, Note_on_c, 1, 60, 75
1, 23735, Note_on_c, 0, 76, 0
1, 23736, Note_on_c, 0, 74, 75
1, 23759, Note_on_c, 0, 74, 0
1, 23760, Note_on_c, 0, 72, 75
1, 23783, Note_on_c, 0, 72, 0
1, 23784, Note_on_c, 0, 71, 75
1, 23801, Note_on_c, 1, 65, 0
1, 23801, Note_on_c, 1, 60, 0
1, 23807, Note_on_c, 0, 71, 0
1, 23808, Note_on_c, 0, 72, 75
1, 23808, Note_on_c, 1, 64, 75
1, 23808, Note_on_c, 1, 60, 75
1, 23856, Note_on_c, 0, 72, 0
1, 23856, Note_on_c, 0, 67, 75
1, 23897, Note_on_c, 1, 64, 0
1, 23897, Note_on_c, 1, 60, 0
1, 23901, Note_on_c, 0, 67, 0
1, 23904, Note_on_c, 0, 72, 75
1, 23952, Note_on_c, 0, 72, 0
1, 23952, Note_on_c, 0, 73, 75
1, 23972, Note_on_c, 0, 73, 0
1, 24000, Note_on_c, 0, 74, 75
1, 24000, Note_on_c, 1, 59, 75
1, 24048, Note_on_c, 0, 74, 0
1, 24048, Note_on_c, 0, 67, 75
1, 24089, Note_on_c, 1, 59, 0
1, 24093, Note_on_c, 0, 67, 0
1, 24096, Note_on_c, 0, 74, 75
1, 24144, Note_on_c, 0, 74, 0
1, 24144, Note_on_c, 0, 75, 75
1, 24164, Note_on_c, 0, 75, 0
1, 24192, Note_on_c, 0, 76, 75
1, 24192, Note_on_c, 1, 60, 75
1, 24240, Note_on_c, 0, 76, 0
1, 24240, Note_on_c, 0, 72, 75
1, 24281, Note_on_c, 1, 60, 0
1, 24285, Note_on_c, 0, 72, 0
1, 24288, Note_on_c, 0, 76, 75
1, 24288, Note_on_c, 1, 72, 75
1, 24308, Note_on_c, 0, 76, 0
1, 24333, Note_on_c, 1, 72, 0
1, 24336, Note_on_c, 0, 77, 76
1, 24336, Note_on_c, 1, 74, 75
1, 24356, Note_on_c, 0, 77, 0
1, 24381, Note_on_c, 1, 74, 0
1, 24384, Note_on_c, 0, 78, 77
1, 24384, Note_on_c, 1, 76, 75
1, 24407, Note_on_c, 0, 78, 0
1, 24408, Note_on_c, 0, 79, 78
1, 24431, Note_on_c, 0, 79, 0
1, 24432, Note_on_c, 0, 81, 78
1, 24455, Note_on_c, 0, 81, 0
1, 24456, Note_on_c, 0, 79, 79
1, 24473, Note_on_c, 1, 76, 0
1, 24479, Note_on_c, 0, 79, 0
1, 24480, Note_on_c, 0, 77, 80
1, 24480, Note_on_c, 1, 74, 75
1, 24500, Note_on_c, 0, 77, 0
1, 24525, Note_on_c, 1, 74, 0
1, 24528, Note_on_c, 0, 76, 78
1, 24528, Note_on_c, 1, 72, 75
1, 24548, Note_on_c, 0, 76, 0
1, 24573, Note_on_c, 1, 72, 0
1, 24576, Note_on_c, 0, 74, 76
1, 24576, Note_on_c, 1, 71, 75
1, 24576, Note_on_c, 1, 67, 75
1, 24621, Note_on_c, 0, 74, 0
1, 24665, Note_on_c, 1, 71, 0
1, 24665, Note_on_c, 1, 67, 0
1, 24672, Note_on_c, 0, 79, 75
1, 24692, Note_on_c, 0, 79, 0
1, 24720, Note_on_c, 0, 79, 75
1, 24740, Note_on_c, 0, 79, 0
1, 24768, Note_on_c, 0, 81, 75
1, 24768, Note_on_c, 1, 64, 75
1, 24768, Note_on_c, 1, 60, 75
1, 24791, Note_on_c, 0, 81, 0
1, 24792, Note_on_c, 0, 79, 75
1, 24815, Note_on_c, 0, 79, 0
1, 24816, Note_on_c, 0, 77, 75
1, 24839, Note_on_c, 0, 77, 0
1, 24840, Note_on_c, 0, 76, 75
1, 24857, Note_on_c, 1, 64, 0
1, 24857, Note_on_c, 1, 60, 0
1, 24863, Note_on_c, 0, 76, 0
1, 24864, Note_on_c, 0, 76, 75
1, 24864, Note_on_c, 1, 65, 75
1, 24864, Note_on_c, 1, 60, 75
1, 24887, Note_on_c, 0, 76, 0
1, 24888, Note_on_c, 0, 74, 75
1, 24911, Note_on_c, 0, 74, 0
1, 24912, Note_on_c, 0, 72, 75
1, 24935, Note_on_c, 0, 72, 0
1, 24936, Note_on_c, 0, 71, 75
1, 24953, Note_on_c, 1, 65, 0
1, 24953, Note_on_c, 1, 60, 0
1, 24959, Note_on_c, 0, 71, 0
1, 24960, Note_on_c, 0, 72, 75
1, 24960, Note_on_c, 1, 64, 75
1, 24960, Note_on_c, 1, 60, 75
1, 25008, Note_on_c, 0, 72, 0
1, 25008, Note_on_c, 0, 67, 75
1, 25049, Note_on_c, 1, 64, 0
1, 25049, Note_on_c, 1, 60, 0
1, 25053, Note_on_c, 0, 67, 0
1, 25056, Note_on_c, 0, 79, 75
1, 25104, Note_on_c, 0, 79, 0
1, 25104, Note_on_c, 0, 73, 75
1, 25124, Note_on_c, 0, 73, 0
1, 25152, Note_on_c, 0, 74, 76
1, 25152, Note_on_c, 1, 67, 75
1, 25152, Note_on_c, 1, 59, 75
1, 25200, Note_on_c, 0, 74, 0
1, 25200, Note_on_c, 0, 67, 76
1, 25241, Note_on_c, 1, 67, 0
1, 25241, Note_on_c, 1, 59, 0
1, 25245, Note_on_c, 0, 67, 0
1, 25248, Note_on_c, 0, 79, 77
1, 25296, Note_on_c, 0, 79, 0
1, 25296, Note_on_c, 0, 75, 78
1, 25316, Note_on_c, 0, 75, 0
1, 25344, Note_on_c, 0, 76, 78
1, 25344, Note_on_c, 1, 67, 75
1, 25344, Note_on_c, 1, 60, 75
1, 25392, Note_on_c, 0, 76, 0
1, 25392, Note_on_c, 0, 72, 79
1, 25433, Note_on_c, 1, 67, 0
1, 25433, Note_on_c, 1, 60, 0
1, 25437, Note_on_c, 0, 72, 0
1, 25440, Note_on_c, 0, 84, 80
1, 25440, Note_on_c, 0, 76, 80
1, 25460, Note_on_c, 0, 84, 0
1, 25460, Note_on_c, 0, 76, 0
1, 25488, Note_on_c, 0, 83, 80
1, 25488, Note_on_c, 0, 74, 80
1, 25508, Note_on_c, 0, 83, 0
1, 25508, Note_on_c, 0, 74, 0
1, 25536, Note_on_c, 0, 82, 80
1, 25536, Note_on_c, 0, 73, 80
1, 25556, Note_on_c, 0, 82, 0
1, 25556, Note_on_c, 0, 73, 0
1, 25584, Note_on_c, 0, 81, 80
1, 25584, Note_on_c, 0, 72, 80
1, 25584, Note_on_c, 1, 63, 75
1, 25604, Note_on_c, 0, 81, 0
1, 25604, Note_on_c, 0, 72, 0
1, 25629, Note_on_c, 1, 63, 0
1, 25632, Note_on_c, 0, 79, 80
1, 25632, Note_on_c, 0, 71, 80
1, 25632, Note_on_c, 1, 62, 75
1, 25652, Note_on_c, 0, 79, 0
1, 25652, Note_on_c, 0, 71, 0
1, 25677, Note_on_c, 1, 62, 0
1, 25680, Note_on_c, 0, 78, 80
1, 25680, Note_on_c, 0, 69, 80
1, 25680, Note_on_c, 1, 50, 75
1, 25700, Note_on_c, 0, 78, 0
1, 25700, Note_on_c, 0, 69, 0
1, 25725, Note_on_c, 1, 50, 0
1, 25728, Note_on_c, 0, 79, 80
1, 25728, Note_on_c, 0, 67, 80
1, 25728, Note_on_c, 1, 55, 75
1, 25817, Note_on_c, 0, 79, 0
1, 25817, Note_on_c, 0, 67, 0
1, 25817, Note_on_c, 1, 55, 0
1, 25824, Note_on_c, 1, 59, 75
1, 25824, Note_on_c, 1, 55, 75
1, 25844, Note_on_c, 1, 59, 0
1, 25844, Note_on_c, 1, 55, 0
1, 25872, Note_on_c, 1, 60, 75
1, 25872, Note_on_c, 1, 57, 75
1, 25892, Note_on_c, 1, 60, 0
1, 25892, Note_on_c, 1, 57, 0
1, 25920, Note_on_c, 1, 61, 75
1, 25920, Note_on_c, 1, 58, 75
1, 25968, Note_on_c, 1, 61, 0
1, 25968, Note_on_c, 1, 58, 0
1, 25968, Note_on_c, 1, 62, 75
1, 25968, Note_on_c, 1, 59, 75
1, 26013, Note_on_c, 1, 62, 0
1, 26013, Note_on_c, 1, 59, 0
1, 26016, Note_on_c, 0, 77, 75
1, 26016, Note_on_c, 0, 74, 75
1, 26036, Note_on_c, 0, 77, 0
1, 26036, Note_on_c, 0, 74, 0
1, 26064, Note_on_c, 0, 76, 75
1, 26064, Note_on_c, 0, 72, 75
1, 26084, Note_on_c, 0, 76, 0
1, 26084, Note_on_c, 0, 72, 0
1, 26112, Note_on_c, 0, 73, 75
1, 26112, Note_on_c, 0, 70, 75
1, 26160, Note_on_c, 0, 73, 0
1, 26160, Note_on_c, 0, 70, 0
1, 26160, Note_on_c, 0, 74, 75
1, 26160, Note_on_c, 0, 71, 75
1, 26205, Note_on_c, 0, 74, 0
1, 26205, Note_on_c, 0, 71, 0
1, 26208, Note_on_c, 1, 64, 75
1, 26208, Note_on_c, 1, 60, 75
1, 26228, Note_on_c, 1, 64, 0
1, 26228, Note_on_c, 1, 60, 0
1, 26256, Note_on_c, 1, 65, 75
1, 26256, Note_on_c, 1, 62, 75
1, 26276, Note_on_c, 1, 65, 0
1, 26276, Note_on_c, 1, 62, 0
1, 26304, Note_on_c, 1, 66, 75
1, 26304, Note_on_c, 1, 63, 75
1, 26352, Note_on_c, 1, 66, 0
1, 26352, Note_on_c, 1, 63, 0
1, 26352, Note_on_c, 1, 67, 75
1, 26352, Note_on_c, 1, 64, 75
1, 26397, Note_on_c, 1, 67, 0
1, 26397, Note_on_c, 1, 64, 0
1, 26400, Note_on_c, 0, 79, 75
1, 26400, Note_on_c, 0, 76, 75
1, 26420, Note_on_c, 0, 79, 0
1, 26420, Note_on_c, 0, 76, 0
1, 26448, Note_on_c, 0, 77, 75
1, 26448, Note_on_c, 0, 74, 75
1, 26468, Note_on_c, 0, 77, 0
1, 26468, Note_on_c, 0, 74, 0
1, 26496, Note_on_c, 0, 75, 75
1, 26496, Note_on_c, 0, 71, 75
1, 26544, Note_on_c, 0, 75, 0
1, 26544, Note_on_c, 0, 71, 0
1, 26544, Note_on_c, 0, 76, 75
1, 26544, Note_on_c, 0, 72, 75
1, 26589, Note_on_c, 0, 76, 0
1, 26589, Note_on_c, 0, 72, 0
1, 26592, Note_on_c, 0, 82, 75
1, 26592, Note_on_c, 1, 52, 75
1, 26612, Note_on_c, 0, 82, 0
1, 26637, Note_on_c, 1, 52, 0
1, 26640, Note_on_c, 0, 82, 75
1, 26640, Note_on_c, 1, 60, 75
1, 26660, Note_on_c, 0, 82, 0
1, 26685, Note_on_c, 1, 60, 0
1, 26688, Note_on_c, 0, 82, 75
1, 26688, Note_on_c, 1, 53, 75
1, 26711, Note_on_c, 0, 82, 0
1, 26712, Note_on_c, 0, 81, 75
1, 26733, Note_on_c, 1, 53, 0
1, 26735, Note_on_c, 0, 81, 0
1, 26736, Note_on_c, 0, 79, 75
1, 26736, Note_on_c, 1, 60, 75
1, 26759, Note_on_c, 0, 79, 0
1, 26760, Note_on_c, 0, 77, 75
1, 26781, Note_on_c, 1, 60, 0
1, 26783, Note_on_c, 0, 77, 0
1, 26784, Note_on_c, 0, 77, 75
1, 26784, Note_on_c, 1, 55, 75
1, 26807, Note_on_c, 0, 77, 0
1, 26808, Note_on_c, 0, 76, 75
1, 26829, Note_on_c, 1, 55, 0
1, 26831, Note_on_c, 0, 76, 0
1, 26832, Note_on_c, 0, 74, 75
1, 26832, Note_on_c, 1, 60, 75
1, 26855, Note_on_c, 0, 74, 0
1, 26856, Note_on_c, 0, 72, 75
1, 26877, Note_on_c, 1, 60, 0
1, 26879, Note_on_c, 0, 72, 0
1, 26880, Note_on_c, 0, 77, 80
1, 26880, Note_on_c, 1, 57, 75
1, 26900, Note_on_c, 0, 77, 0
1, 26925, Note_on_c, 1, 57, 0
1, 26928, Note_on_c, 0, 77, 80
1, 26928, Note_on_c, 1, 60, 75
1, 26948, Note_on_c, 0, 77, 0
1, 26973, Note_on_c, 1, 60, 0
1, 26976, Note_on_c, 0, 81, 81
1, 26976, Note_on_c, 1, 53, 76
1, 26996, Note_on_c, 0, 81, 0
1, 27021, Note_on_c, 1, 53, 0
1, 27024, Note_on_c, 0, 81, 82
1, 27024, Note_on_c, 1, 60, 76
1, 27044, Note_on_c, 0, 81, 0
1, 27069, Note_on_c, 1, 60, 0
1, 27072, Note_on_c, 0, 81, 83
1, 27072, Note_on_c, 1, 52, 77
1, 27095, Note_on_c, 0, 81, 0
1, 27096, Note_on_c, 0, 79, 83
1, 27117, Note_on_c, 1, 52, 0
1, 27119, Note_on_c, 0, 79, 0
1, 27120, Note_on_c, 0, 77, 84
1, 27120, Note_on_c, 1, 60, 78
1, 27143, Note_on_c, 0, 77, 0
1, 27144, Note_on_c, 0, 76, 84
1, 27165, Note_on_c, 1, 60, 0
1, 27167, Note_on_c, 0, 76, 0
1, 27168, Note_on_c, 0, 74, 85
1, 27168, Note_on_c, 1, 53, 78
1, 27180, Note_on_c, 0, 74, 0
1, 27180, Note_on_c, 0, 76, 85
1, 27192, Note_on_c, 0, 76, 0
1, 27192, Note_on_c, 0, 74, 85
1, 27213, Note_on_c, 0, 74, 0
1, 27213, Note_on_c, 1, 53, 0
1, 27216, Note_on_c, 0, 76, 86
1, 27216, Note_on_c, 1, 54, 79
1, 27239, Note_on_c, 0, 76, 0
1, 27240, Note_on_c, 0, 72, 86
1, 27261, Note_on_c, 1, 54, 0
1, 27263, Note_on_c, 0, 72, 0
1, 27264, Note_on_c, 0, 72, 86
1, 27264, Note_on_c, 1, 55, 80
1, 27287, Note_on_c, 0, 72, 0
1, 27288, Note_on_c, 0, 71, 86
1, 27309, Note_on_c, 1, 55, 0
1, 27311, Note_on_c, 0, 71, 0
1, 27312, Note_on_c, 0, 69, 86
1, 27335, Note_on_c, 0, 69, 0
1, 27336, Note_on_c, 0, 67, 86
1, 27359, Note_on_c, 0, 67, 0
1, 27360, Note_on_c, 0, 79, 75
1, 27380, Note_on_c, 0, 79, 0
1, 27408, Note_on_c, 0, 79, 75
1, 27428, Note_on_c, 0, 79, 0
1, 27456, Note_on_c, 0, 81, 75
1, 27456, Note_on_c, 1, 64, 75
1, 27456, Note_on_c, 1, 60, 75
1, 27479, Note_on_c, 0, 81, 0
1, 27480, Note_on_c, 0, 79, 75
1, 27503, Note_on_c, 0, 79, 0
1, 27504, Note_on_c, 0, 77, 75
1, 27527, Note_on_c, 0, 77, 0
1, 27528, Note_on_c, 0, 76, 75
1, 27545, Note_on_c, 1, 64, 0
1, 27545, Note_on_c, 1, 60, 0
1, 27551, Note_on_c, 0, 76, 0
1, 27552, Note_on_c, 0, 76, 75
1, 27552, Note_on_c, 1, 65, 75
1, 27552, Note_on_c, 1, 60, 75
1, 27575, Note_on_c, 0, 76, 0
1, 27576, Note_on_c, 0, 74, 75
1, 27599, Note_on_c, 0, 74, 0
1, 27600, Note_on_c, 0, 72, 75
1, 27623, Note_on_c, 0, 72, 0
1, 27624, Note_on_c, 0, 71, 75
1, 27641, Note_on_c, 1, 65, 0
1, 27641, Note_on_c, 1, 60, 0
1, 27647, Note_on_c, 0, 71, 0
1, 27648, Note_on_c, 0, 72, 75
1, 27648, Note_on_c, 1, 64, 75
1, 27648, Note_on_c, 1, 60, 75
1, 27696, Note_on_c, 0, 72, 0
1, 27696, Note_on_c, 0, 67, 75
1, 27737, Note_on_c, 1, 64, 0
1, 27737, Note_on_c, 1, 60, 0
1, 27741, Note_on_c, 0, 67, 0
1, 27744, Note_on_c, 0, 72, 75
1, 27792, Note_on_c, 0, 72, 0
1, 27792, Note_on_c, 0, 73, 75
1, 27812, Note_on_c, 0, 73, 0
1, 27840, Note_on_c, 0, 74, 75
1, 27840, Note_on_c, 1, 59, 75
1, 27888, Note_on_c, 0, 74, 0
1, 27888, Note_on_c, 0, 67, 75
1, 27929, Note_on_c, 1, 59, 0
1, 27933, Note_on_c, 0, 67, 0
1, 27936, Note_on_c, 0, 74, 75
1, 27984, Note_on_c, 0, 74, 0
1, 27984, Note_on_c, 0, 75, 75
1, 28004, Note_on_c, 0, 75, 0
1, 28032, Note_on_c, 0, 76, 75
1, 28032, Note_on_c, 1, 60, 75
1, 28080, Note_on_c, 0, 76, 0
1, 28080, Note_on_c, 0, 72, 75
1, 28121, Note_on_c, 1, 60, 0
1, 28125, Note_on_c, 0, 72, 0
1, 28128, Note_on_c, 0, 76, 75
1, 28128, Note_on_c, 1, 60, 75
1, 28148, Note_on_c, 0, 76, 0
1, 28176, Note_on_c, 0, 76, 75
1, 28176, Note_on_c, 1, 60, 0
1, 28176, Note_on_c, 1, 59, 75
1, 28196, Note_on_c, 0, 76, 0
1, 28221, Note_on_c, 1, 59, 0
1, 28224, Note_on_c, 0, 79, 76
1, 28224, Note_on_c, 1, 58, 76
1, 28272, Note_on_c, 0, 79, 0
1, 28272, Note_on_c, 0, 77, 76
1, 28272, Note_on_c, 1, 58, 0
1, 28272, Note_on_c, 1, 57, 76
1, 28317, Note_on_c, 0, 77, 0
1, 28317, Note_on_c, 1, 57, 0
1, 28320, Note_on_c, 0, 78, 77
1, 28320, Note_on_c, 1, 62, 77
1, 28340, Note_on_c, 0, 78, 0
1, 28368, Note_on_c, 0, 78, 78
1, 28368, Note_on_c, 1, 62, 0
1, 28368, Note_on_c, 1, 61, 78
1, 28388, Note_on_c, 0, 78, 0
1, 28413, Note_on_c, 1, 61, 0
1, 28416, Note_on_c, 0, 81, 78
1, 28416, Note_on_c, 1, 60, 78
1, 28464, Note_on_c, 0, 81, 0
1, 28464, Note_on_c, 0, 79, 79
1, 28464, Note_on_c, 1, 60, 0
1, 28464, Note_on_c, 1, 59, 79
1, 28509, Note_on_c, 0, 79, 0
1, 28509, Note_on_c, 1, 59, 0
1, 28512, Note_on_c, 0, 89, 80
1, 28512, Note_on_c, 0, 77, 80
1, 28512, Note_on_c, 1, 60, 80
1, 28512, Note_on_c, 1, 57, 80
1, 28532, Note_on_c, 0, 89, 0
1, 28532, Note_on_c, 0, 77, 0
1, 28557, Note_on_c, 1, 60, 0
1, 28557, Note_on_c, 1, 57, 0
1, 28560, Note_on_c, 0, 88, 80
1, 28560, Note_on_c, 0, 76, 80
1, 28560, Note_on_c, 1, 59, 80
1, 28560, Note_on_c, 1, 55, 80
1, 28580, Note_on_c, 0, 88, 0
1, 28580, Note_on_c, 0, 76, 0
1, 28605, Note_on_c, 1, 59, 0
1, 28605, Note_on_c, 1, 55, 0
1, 28608, Note_on_c, 0, 86, 80
1, 28608, Note_on_c, 0, 74, 80
1, 28608, Note_on_c, 1, 57, 80
1, 28608, Note_on_c, 1, 53, 80
1, 28628, Note_on_c, 0, 86, 0
1, 28628, Note_on_c, 0, 74, 0
1, 28653, Note_on_c, 1, 57, 0
1, 28653, Note_on_c, 1, 53, 0
1, 28656, Note_on_c, 0, 84, 80
1, 28656, Note_on_c, 0, 72, 80
1, 28656, Note_on_c, 1, 55, 80
1, 28656, Note_on_c, 1, 52, 80
1, 28676, Note_on_c, 0, 84, 0
1, 28676, Note_on_c, 0, 72, 0
1, 28701, Note_on_c, 1, 55, 0
1, 28701, Note_on_c, 1, 52, 0
1, 28704, Note_on_c, 0, 83, 80
1, 28704, Note_on_c, 0, 71, 80
1, 28704, Note_on_c, 1, 53, 80
1, 28704, Note_on_c, 1, 50, 80
1, 28724, Note_on_c, 0, 83, 0
1, 28724, Note_on_c, 0, 71, 0
1, 28749, Note_on_c, 1, 53, 0
1, 28749, Note_on_c, 1, 50, 0
1, 28752, Note_on_c, 0, 84, 80
1, 28752, Note_on_c, 0, 72, 80
1, 28752, Note_on_c, 1, 55, 80
1, 28752, Note_on_c, 1, 52, 80
1, 28772, Note_on_c, 0, 84, 0
1, 28772, Note_on_c, 0, 72, 0
1, 28797, Note_on_c, 1, 55, 0
1, 28797, Note_on_c, 1, 52, 0
1, 28800, Note_on_c, 0, 86, 80
1, 28800, Note_on_c, 0, 74, 80
1, 28800, Note_on_c, 1, 57, 80
1, 28800, Note_on_c, 1, 53, 80
1, 28845, Note_on_c, 1, 57, 0
1, 28845, Note_on_c, 1, 53, 0
1, 28848, Note_on_c, 0, 86, 0
1, 28848, Note_on_c, 0, 74, 0
1, 28848, Note_on_c, 0, 84, 80
1, 28848, Note_on_c, 0, 72, 80
1, 28848, Note_on_c, 1, 55, 80
1, 28848, Note_on_c, 1, 52, 80
1, 28893, Note_on_c, 0, 84, 0
1, 28893, Note_on_c, 0, 72, 0
1, 28893, Note_on_c, 1, 55, 0
1, 28893, Note_on_c, 1, 52, 0
1, 28896, Note_on_c, 0, 81, 75
1, 28896, Note_on_c, 1, 53, 75
1, 28916, Note_on_c, 0, 81, 0
1, 28944, Note_on_c, 0, 81, 75
1, 28964, Note_on_c, 0, 81, 0
1, 28985, Note_on_c, 1, 53, 0
1, 28992, Note_on_c, 0, 81, 75
1, 28992, Note_on_c, 1, 55, 75
1, 29015, Note_on_c, 0, 81, 0
1, 29016, Note_on_c, 0, 79, 75
1, 29039, Note_on_c, 0, 79, 0
1, 29040, Note_on_c, 0, 77, 75
1, 29063, Note_on_c, 0, 77, 0
1, 29064, Note_on_c, 0, 76, 75
1, 29081, Note_on_c, 1, 55, 0
1, 29087, Note_on_c, 0, 76, 0
1, 29088, Note_on_c, 0, 76, 75
1, 29088, Note_on_c, 1, 43, 75
1, 29111, Note_on_c, 0, 76, 0
1, 29112, Note_on_c, 0, 74, 75
1, 29135, Note_on_c, 0, 74, 0
1, 29136, Note_on_c, 0, 72, 75
1, 29159, Note_on_c, 0, 72, 0
1, 29160, Note_on_c, 0, 71, 75
1, 29177, Note_on_c, 1, 43, 0
1, 29183, Note_on_c, 0, 71, 0
1, 29184, Note_on_c, 0, 72, 75
1, 29184, Note_on_c, 1, 36, 75
1, 29229, Note_on_c, 1, 36, 0
1, 29232, Note_on_c, 1, 48, 71
1, 29273, Note_on_c, 0, 72, 0
1, 29277, Note_on_c, 1, 48, 0
1, 29280, Note_on_c, 0, 55, 64
1, 29280, Note_on_c, 1, 39, 67
1, 29300, Note_on_c, 0, 55, 0
1, 29325, Note_on_c, 1, 39, 0
1, 29328, Note_on_c, 0, 55, 64
1, 29328, Note_on_c, 1, 48, 64
1, 29348, Note_on_c, 0, 55, 0
1, 29373, Note_on_c, 1, 48, 0
1, 29376, Note_on_c, 0, 56, 64
1, 29376, Note_on_c, 1, 41, 64
1, 29421, Note_on_c, 1, 41, 0
1, 29424, Note_on_c, 1, 48, 64
1, 29465, Note_on_c, 0, 56, 0
1, 29469, Note_on_c, 1, 48, 0
1, 29472, Note_on_c, 0, 59, 64
1, 29472, Note_on_c, 1, 43, 64
1, 29492, Note_on_c, 0, 59, 0
1, 29517, Note_on_c, 1, 43, 0
1, 29520, Note_on_c, 0, 59, 64
1, 29520, Note_on_c, 1, 48, 64
1, 29540, Note_on_c, 0, 59, 0
1, 29565, Note_on_c, 1, 48, 0
1, 29568, Note_on_c, 0, 60, 64
1, 29568, Note_on_c, 1, 44, 64
1, 29613, Note_on_c, 1, 44, 0
1, 29616, Note_on_c, 1, 48, 64
1, 29657, Note_on_c, 0, 60, 0
1, 29661, Note_on_c, 1, 48, 0
1, 29664, Note_on_c, 0, 55, 64
1, 29664, Note_on_c, 1, 39, 64
1, 29684, Note_on_c, 0, 55, 0
1, 29709, Note_on_c, 1, 39, 0
1, 29712, Note_on_c, 0, 55, 64
1, 29712, Note_on_c, 1, 48, 64
1, 29732, Note_on_c, 0, 55, 0
1, 29757, Note_on_c, 1, 48, 0
1, 29760, Note_on_c, 0, 58, 64
1, 29760, Note_on_c, 1, 41, 64
1, 29783, Note_on_c, 0, 58, 0
1, 29784, Note_on_c, 0, 56, 64
1, 29805, Note_on_c, 1, 41, 0
1, 29807, Note_on_c, 0, 56, 0
1, 29808, Note_on_c, 0, 55, 64
1, 29808, Note_on_c, 1, 48, 64
1, 29831, Note_on_c, 0, 55, 0
1, 29832, Note_on_c, 0, 56, 64
1, 29853, Note_on_c, 1, 48, 0
1, 29855, Note_on_c, 0, 56, 0
1, 29856, Note_on_c, 0, 59, 64
1, 29856, Note_on_c, 1, 43, 64
1, 29876, Note_on_c, 0, 59, 0
1, 29901, Note_on_c, 1, 43, 0
1, 29904, Note_on_c, 0, 59, 64
1, 29904, Note_on_c, 1, 48, 64
1, 29924, Note_on_c, 0, 59, 0
1, 29949, Note_on_c, 1, 48, 0
1, 29952, Note_on_c, 0, 62, 64
1, 29952, Note_on_c, 1, 44, 64
1, 29975, Note_on_c, 0, 62, 0
1, 29976, Note_on_c, 0, 60, 64
1, 29997, Note_on_c, 1, 44, 0
1, 29999, Note_on_c, 0, 60, 0
1, 30000, Note_on_c, 0, 59, 65
1, 30000, Note_on_c, 1, 48, 64
1, 30023, Note_on_c, 0, 59, 0
1, 30024, Note_on_c, 0, 60, 66
1, 30045, Note_on_c, 1, 48, 0
1, 30047, Note_on_c, 0, 60, 0
1, 30048, Note_on_c, 0, 62, 67
1, 30048, Note_on_c, 1, 39, 64
1, 30071, Note_on_c, 0, 62, 0
1, 30072, Note_on_c, 0, 63, 67
1, 30093, Note_on_c, 1, 39, 0
1, 30095, Note_on_c, 0, 63, 0
1, 30096, Note_on_c, 0, 65, 68
1, 30096, Note_on_c, 1, 48, 64
1, 30119, Note_on_c, 0, 65, 0
1, 30120, Note_on_c, 0, 63, 69
1, 30141, Note_on_c, 1, 48, 0
1, 30143, Note_on_c, 0, 63, 0
1, 30144, Note_on_c, 0, 61, 70
1, 30144, Note_on_c, 1, 41, 64
1, 30167, Note_on_c, 0, 61, 0
1, 30168, Note_on_c, 0, 62, 69
1, 30189, Note_on_c, 1, 41, 0
1, 30191, Note_on_c, 0, 62, 0
1, 30192, Note_on_c, 0, 63, 68
1, 30192, Note_on_c, 1, 50, 64
1, 30215, Note_on_c, 0, 63, 0
1, 30216, Note_on_c, 0, 62, 67
1, 30237, Note_on_c, 1, 50, 0
1, 30239, Note_on_c, 0, 62, 0
1, 30240, Note_on_c, 0, 59, 67
1, 30240, Note_on_c, 1, 42, 64
1, 30263, Note_on_c, 0, 59, 0
1, 30264, Note_on_c, 0, 60, 66
1, 30285, Note_on_c, 1, 42, 0
1, 30287, Note_on_c, 0, 60, 0
1, 30288, Note_on_c, 0, 62, 65
1, 30288, Note_on_c, 1, 51, 64
1, 30311, Note_on_c, 0, 62, 0
1, 30312, Note_on_c, 0, 60, 64
1, 30333, Note_on_c, 1, 51, 0
1, 30335, Note_on_c, 0, 60, 0
1, 30336, Note_on_c, 0, 60, 64
1, 30336, Note_on_c, 1, 43, 64
1, 30359, Note_on_c, 0, 60, 0
1, 30360, Note_on_c, 0, 59, 64
1, 30381, Note_on_c, 1, 43, 0
1, 30383, Note_on_c, 0, 59, 0
1, 30384, Note_on_c, 0, 57, 64
1, 30384, Note_on_c, 1, 50, 64
1, 30407, Note_on_c, 0, 57, 0
1, 30408, Note_on_c, 0, 55, 65
1, 30429, Note_on_c, 1, 50, 0
1, 30431, Note_on_c, 0, 55, 0
1, 30432, Note_on_c, 0, 55, 65
1, 30432, Note_on_c, 1, 39, 65
1, 30452, Note_on_c, 0, 55, 0
1, 30477, Note_on_c, 1, 39, 0
1, 30480, Note_on_c, 0, 55, 66
1, 30480, Note_on_c, 1, 48, 66
1, 30500, Note_on_c, 0, 55, 0
1, 30525, Note_on_c, 1, 48, 0
1, 30528, Note_on_c, 0, 56, 67
1, 30528, Note_on_c, 1, 41, 67
1, 30573, Note_on_c, 0, 56, 0
1, 30573, Note_on_c, 1, 41, 0
1, 30576, Note_on_c, 1, 48, 68
1, 30621, Note_on_c, 1, 48, 0
1, 30624, Note_on_c, 0, 59, 69
1, 30624, Note_on_c, 1, 43, 69
1, 30644, Note_on_c, 0, 59, 0
1, 30669, Note_on_c, 1, 43, 0
1, 30672, Note_on_c, 0, 59, 69
1, 30672, Note_on_c, 1, 48, 69
1, 30692, Note_on_c, 0, 59, 0
1, 30717, Note_on_c, 1, 48, 0
1, 30720, Note_on_c, 0, 60, 70
1, 30720, Note_on_c, 1, 44, 70
1, 30765, Note_on_c, 0, 60, 0
1, 30765, Note_on_c, 1, 44, 0
1, 30768, Note_on_c, 1, 48, 71
1, 30813, Note_on_c, 1, 48, 0
1, 30816, Note_on_c, 0, 67, 72
1, 30816, Note_on_c, 1, 39, 72
1, 30861, Note_on_c, 1, 39, 0
1, 30864, Note_on_c, 0, 67, 0
1, 30864, Note_on_c, 0, 55, 73
1, 30864, Note_on_c, 1, 48, 73
1, 30909, Note_on_c, 0, 55, 0
1, 30909, Note_on_c, 1, 48, 0
1, 30912, Note_on_c, 0, 58, 74
1, 30912, Note_on_c, 1, 41, 74
1, 30957, Note_on_c, 1, 41, 0
1, 30960, Note_on_c, 0, 58, 0
1, 30960, Note_on_c, 0, 56, 75
1, 30960, Note_on_c, 1, 48, 75
1, 31005, Note_on_c, 0, 56, 0
1, 31005, Note_on_c, 1, 48, 0
1, 31008, Note_on_c, 0, 68, 75
1, 31008, Note_on_c, 1, 43, 75
1, 31053, Note_on_c, 1, 43, 0
1, 31056, Note_on_c, 0, 68, 0
1, 31056, Note_on_c, 0, 59, 75
1, 31056, Note_on_c, 1, 53, 75
1, 31101, Note_on_c, 0, 59, 0
1, 31101, Note_on_c, 1, 53, 0
1, 31104, Note_on_c, 0, 62, 75
1, 31104, Note_on_c, 1, 44, 75
1, 31149, Note_on_c, 1, 44, 0
1, 31152, Note_on_c, 0, 62, 0
1, 31152, Note_on_c, 0, 60, 75
1, 31152, Note_on_c, 1, 51, 75
1, 31197, Note_on_c, 0, 60, 0
1, 31197, Note_on_c, 1, 51, 0
1, 31200, Note_on_c, 0, 63, 75
1, 31200, Note_on_c, 1, 44, 75
1, 31220, Note_on_c, 0, 63, 0
1, 31245, Note_on_c, 1, 44, 0
1, 31248, Note_on_c, 0, 63, 75
1, 31248, Note_on_c, 1, 48, 75
1, 31268, Note_on_c, 0, 63, 0
1, 31293, Note_on_c, 1, 48, 0
1, 31296, Note_on_c, 0, 62, 75
1, 31296, Note_on_c, 1, 43, 75
1, 31319, Note_on_c, 0, 62, 0
1, 31320, Note_on_c, 0, 63, 75
1, 31341, Note_on_c, 1, 43, 0
1, 31343, Note_on_c, 0, 63, 0
1, 31344, Note_on_c, 0, 65, 75
1, 31344, Note_on_c, 1, 51, 75
1, 31367, Note_on_c, 0, 65, 0
1, 31368, Note_on_c, 0, 63, 75
1, 31389, Note_on_c, 1, 51, 0
1, 31391, Note_on_c, 0, 63, 0
1, 31392, Note_on_c, 0, 70, 75
1, 31392, Note_on_c, 1, 43, 75
1, 31412, Note_on_c, 0, 70, 0
1, 31437, Note_on_c, 1, 43, 0
1, 31440, Note_on_c, 0, 61, 75
1, 31440, Note_on_c, 1, 51, 75
1, 31460, Note_on_c, 0, 61, 0
1, 31485, Note_on_c, 1, 51, 0
1, 31488, Note_on_c, 0, 59, 75
1, 31488, Note_on_c, 1, 44, 75
1, 31533, Note_on_c, 1, 44, 0
1, 31536, Note_on_c, 0, 59, 0
1, 31536, Note_on_c, 0, 60, 75
1, 31536, Note_on_c, 1, 51, 75
1, 31581, Note_on_c, 0, 60, 0
1, 31581, Note_on_c, 1, 51, 0
1, 31584, Note_on_c, 0, 63, 64
1, 31584, Note_on_c, 1, 44, 64
1, 31604, Note_on_c, 0, 63, 0
1, 31629, Note_on_c, 1, 44, 0
1, 31632, Note_on_c, 0, 63, 64
1, 31632, Note_on_c, 1, 48, 64
1, 31652, Note_on_c, 0, 63, 0
1, 31677, Note_on_c, 1, 48, 0
1, 31680, Note_on_c, 0, 62, 64
1, 31680, Note_on_c, 1, 43, 64
1, 31703, Note_on_c, 0, 62, 0
1, 31704, Note_on_c, 0, 63, 64
1, 31725, Note_on_c, 1, 43, 0
1, 31727, Note_on_c, 0, 63, 0
1, 31728, Note_on_c, 0, 65, 64
1, 31728, Note_on_c, 1, 51, 64
1, 31751, Note_on_c, 0, 65, 0
1, 31752, Note_on_c, 0, 63, 64
1, 31773, Note_on_c, 1, 51, 0
1, 31775, Note_on_c, 0, 63, 0
1, 31776, Note_on_c, 0, 70, 64
1, 31776, Note_on_c, 1, 43, 64
1, 31796, Note_on_c, 0, 70, 0
1, 31821, Note_on_c, 1, 43, 0
1, 31824, Note_on_c, 0, 61, 64
1, 31824, Note_on_c, 1, 51, 64
1, 31844, Note_on_c, 0, 61, 0
1, 31869, Note_on_c, 1, 51, 0
1, 31872, Note_on_c, 0, 59, 64
1, 31872, Note_on_c, 1, 44, 64
1, 31917, Note_on_c, 1, 44, 0
1, 31920, Note_on_c, 0, 59, 0
1, 31920, Note_on_c, 0, 60, 64
1, 31920, Note_on_c, 1, 51, 64
1, 31965, Note_on_c, 0, 60, 0
1, 31965, Note_on_c, 1, 51, 0
1, 31968, Note_on_c, 0, 63, 75
1, 31968, Note_on_c, 1, 44, 75
1, 31988, Note_on_c, 0, 63, 0
1, 32013, Note_on_c, 1, 44, 0
1, 32016, Note_on_c, 0, 63, 75
1, 32016, Note_on_c, 1, 48, 75
1, 32036, Note_on_c, 0, 63, 0
1, 32061, Note_on_c, 1, 48, 0
1, 32064, Note_on_c, 0, 62, 75
1, 32064, Note_on_c, 1, 43, 75
1, 32087, Note_on_c, 0, 62, 0
1, 32088, Note_on_c, 0, 63, 75
1, 32109, Note_on_c, 1, 43, 0
1, 32111, Note_on_c, 0, 63, 0
1, 32112, Note_on_c, 0, 65, 76
1, 32112, Note_on_c, 1, 51, 76
1, 32135, Note_on_c, 0, 65, 0
1, 32136, Note_on_c, 0, 63, 76
1, 32157, Note_on_c, 1, 51, 0
1, 32159, Note_on_c, 0, 63, 0
1, 32160, Note_on_c, 0, 60, 77
1, 32160, Note_on_c, 1, 43, 77
1, 32183, Note_on_c, 0, 60, 0
1, 32184, Note_on_c, 0, 61, 77
1, 32205, Note_on_c, 1, 43, 0
1, 32207, Note_on_c, 0, 61, 0
1, 32208, Note_on_c, 0, 63, 78
1, 32208, Note_on_c, 1, 51, 78
1, 32231, Note_on_c, 0, 63, 0
1, 32232, Note_on_c, 0, 61, 78
1, 32253, Note_on_c, 1, 51, 0
1, 32255, Note_on_c, 0, 61, 0
1, 32256, Note_on_c, 0, 59, 79
1, 32256, Note_on_c, 1, 44, 79
1, 32279, Note_on_c, 0, 59, 0
1, 32280, Note_on_c, 0, 60, 80
1, 32301, Note_on_c, 1, 44, 0
1, 32303, Note_on_c, 0, 60, 0
1, 32304, Note_on_c, 0, 61, 80
1, 32304, Note_on_c, 1, 51, 80
1, 32327, Note_on_c, 0, 61, 0
1, 32328, Note_on_c, 0, 60, 80
1, 32349, Note_on_c, 1, 51, 0
1, 32351, Note_on_c, 0, 60, 0
1, 32352, Note_on_c, 0, 57, 80
1, 32352, Note_on_c, 1, 43, 80
1, 32375, Note_on_c, 0, 57, 0
1, 32376, Note_on_c, 0, 58, 80
1, 32397, Note_on_c, 1, 43, 0
1, 32399, Note_on_c, 0, 58, 0
1, 32400, Note_on_c, 0, 60, 80
1, 32400, Note_on_c, 1, 52, 80
1, 32423, Note_on_c, 0, 60, 0
1, 32424, Note_on_c, 0, 58, 80
1, 32445, Note_on_c, 1, 52, 0
1, 32447, Note_on_c, 0, 58, 0
1, 32448, Note_on_c, 0, 55, 80
1, 32448, Note_on_c, 1, 41, 80
1, 32471, Note_on_c, 0, 55, 0
1, 32472, Note_on_c, 0, 56, 80
1, 32493, Note_on_c, 1, 41, 0
1, 32495, Note_on_c, 0, 56, 0
1, 32496, Note_on_c, 0, 58, 80
1, 32496, Note_on_c, 1, 53, 80
1, 32519, Note_on_c, 0, 58, 0
1, 32520, Note_on_c, 0, 56, 80
1, 32541, Note_on_c, 1, 53, 0
1, 32543, Note_on_c, 0, 56, 0
1, 32544, Note_on_c, 0, 65, 80
1, 32544, Note_on_c, 1, 38, 80
1, 32589, Note_on_c, 1, 38, 0
1, 32592, Note_on_c, 0, 65, 0
1, 32592, Note_on_c, 0, 56, 80
1, 32592, Note_on_c, 1, 50, 80
1, 32637, Note_on_c, 0, 56, 0
1, 32637, Note_on_c, 1, 50, 0
1, 32640, Note_on_c, 0, 55, 80
1, 32640, Note_on_c, 1, 39, 80
1, 32660, Note_on_c, 0, 55, 0
1, 32685, Note_on_c, 1, 39, 0
1, 32688, Note_on_c, 0, 55, 80
1, 32688, Note_on_c, 1, 51, 80
1, 32708, Note_on_c, 0, 55, 0
1, 32733, Note_on_c, 1, 51, 0
1, 32736, Note_on_c, 0, 58, 80
1, 32736, Note_on_c, 1, 38, 80
1, 32756, Note_on_c, 0, 58, 0
1, 32781, Note_on_c, 1, 38, 0
1, 32784, Note_on_c, 0, 58, 80
1, 32784, Note_on_c, 1, 50, 80
1, 32804, Note_on_c, 0, 58, 0
1, 32829, Note_on_c, 1, 50, 0
1, 32832, Note_on_c, 0, 65, 80
1, 32832, Note_on_c, 1, 36, 80
1, 32855, Note_on_c, 0, 65, 0
1, 32856, Note_on_c, 0, 63, 80
1, 32877, Note_on_c, 1, 36, 0
1, 32879, Note_on_c, 0, 63, 0
1, 32880, Note_on_c, 0, 62, 80
1, 32880, Note_on_c, 1, 48, 80
1, 32903, Note_on_c, 0, 62, 0
1, 32904, Note_on_c, 0, 60, 80
1, 32925, Note_on_c, 1, 48, 0
1, 32927, Note_on_c, 0, 60, 0
1, 32928, Note_on_c, 0, 62, 80
1, 32928, Note_on_c, 1, 41, 80
1, 32951, Note_on_c, 0, 62, 0
1, 32952, Note_on_c, 0, 60, 80
1, 32973, Note_on_c, 1, 41, 0
1, 32975, Note_on_c, 0, 60, 0
1, 32976, Note_on_c, 0, 58, 80
1, 32976, Note_on_c, 1, 48, 80
1, 32999, Note_on_c, 0, 58, 0
1, 33000, Note_on_c, 0, 57, 80
1, 33021, Note_on_c, 1, 48, 0
1, 33023, Note_on_c, 0, 57, 0
1, 33024, Note_on_c, 0, 60, 80
1, 33024, Note_on_c, 1, 46, 80
1, 33072, Note_on_c, 0, 60, 0
1, 33072, Note_on_c, 0, 58, 80
1, 33113, Note_on_c, 1, 46, 0
1, 33117, Note_on_c, 0, 58, 0
1, 33120, Note_on_c, 0, 62, 75
1, 33120, Note_on_c, 0, 58, 75
1, 33140, Note_on_c, 0, 62, 0
1, 33140, Note_on_c, 0, 58, 0
1, 33168, Note_on_c, 0, 63, 75
1, 33168, Note_on_c, 0, 60, 75
1, 33188, Note_on_c, 0, 63, 0
1, 33188, Note_on_c, 0, 60, 0
1, 33216, Note_on_c, 0, 64, 75
1, 33216, Note_on_c, 0, 61, 75
1, 33216, Note_on_c, 1, 46, 75
1, 33216, Note_on_c, 1, 34, 75
1, 33264, Note_on_c, 0, 64, 0
1, 33264, Note_on_c, 0, 61, 0
1, 33264, Note_on_c, 0, 65, 75
1, 33264, Note_on_c, 0, 62, 75
1, 33305, Note_on_c, 1, 46, 0
1, 33305, Note_on_c, 1, 34, 0
1, 33309, Note_on_c, 0, 65, 0
1, 33309, Note_on_c, 0, 62, 0
1, 33312, Note_on_c, 0, 65, 75
1, 33312, Note_on_c, 0, 62, 75
1, 33332, Note_on_c, 0, 65, 0
1, 33332, Note_on_c, 0, 62, 0
1, 33360, Note_on_c, 0, 66, 75
1, 33360, Note_on_c, 0, 63, 75
1, 33380, Note_on_c, 0, 66, 0
1, 33380, Note_on_c, 0, 63, 0
1, 33408, Note_on_c, 0, 67, 75
1, 33408, Note_on_c, 0, 64, 75
1, 33408, Note_on_c, 1, 46, 75
1, 33408, Note_on_c, 1, 34, 75
1, 33456, Note_on_c, 0, 67, 0
1, 33456, Note_on_c, 0, 64, 0
1, 33456, Note_on_c, 0, 68, 75
1, 33456, Note_on_c, 0, 65, 75
1, 33497, Note_on_c, 1, 46, 0
1, 33497, Note_on_c, 1, 34, 0
1, 33501, Note_on_c, 0, 68, 0
1, 33501, Note_on_c, 0, 65, 0
1, 33504, Note_on_c, 0, 68, 75
1, 33504, Note_on_c, 0, 65, 75
1, 33524, Note_on_c, 0, 68, 0
1, 33524, Note_on_c, 0, 65, 0
1, 33552, Note_on_c, 0, 70, 76
1, 33552, Note_on_c, 0, 67, 76
1, 33572, Note_on_c, 0, 70, 0
1, 33572, Note_on_c, 0, 67, 0
1, 33600, Note_on_c, 0, 71, 77
1, 33600, Note_on_c, 0, 67, 77
1, 33645, Note_on_c, 0, 71, 0
1, 33645, Note_on_c, 0, 67, 0
1, 33648, Note_on_c, 0, 72, 93
1, 33648, Note_on_c, 0, 68, 93
1, 33696, Note_on_c, 1, 46, 80
1, 33741, Note_on_c, 1, 46, 0
1, 33744, Note_on_c, 1, 47, 80
1, 33789, Note_on_c, 1, 47, 0
1, 33792, Note_on_c, 1, 48, 80
1, 33837, Note_on_c, 0, 72, 0
1, 33837, Note_on_c, 0, 68, 0
1, 33837, Note_on_c, 1, 48, 0
1, 33840, Note_on_c, 0, 70, 80
1, 33840, Note_on_c, 0, 67, 80
1, 33840, Note_on_c, 1, 49, 80
1, 33860, Note_on_c, 0, 70, 0
1, 33860, Note_on_c, 0, 67, 0
1, 33885, Note_on_c, 1, 49, 0
1, 33888, Note_on_c, 0, 68, 78
1, 33888, Note_on_c, 0, 65, 78
1, 33888, Note_on_c, 1, 50, 78
1, 33908, Note_on_c, 0, 68, 0
1, 33908, Note_on_c, 0, 65, 0
1, 33933, Note_on_c, 1, 50, 0
1, 33936, Note_on_c, 0, 67, 77
1, 33936, Note_on_c, 0, 63, 77
1, 33936, Note_on_c, 1, 51, 77
1, 33956, Note_on_c, 0, 67, 0
1, 33956, Note_on_c, 0, 63, 0
1, 33981, Note_on_c, 1, 51, 0
1, 33984, Note_on_c, 0, 67, 76
1, 33984, Note_on_c, 0, 60, 76
1, 33984, Note_on_c, 1, 44, 76
1, 34032, Note_on_c, 0, 67, 0
1, 34032, Note_on_c, 0, 60, 0
1, 34032, Note_on_c, 0, 65, 75
1, 34032, Note_on_c, 0, 56, 75
1, 34073, Note_on_c, 1, 44, 0
1, 34077, Note_on_c, 0, 65, 0
1, 34077, Note_on_c, 0, 56, 0
1, 34080, Note_on_c, 0, 63, 74
1, 34080, Note_on_c, 0, 55, 74
1, 34080, Note_on_c, 1, 46, 74
1, 34100, Note_on_c, 0, 63, 0
1, 34100, Note_on_c, 0, 55, 0
1, 34128, Note_on_c, 0, 62, 73
1, 34128, Note_on_c, 0, 53, 73
1, 34148, Note_on_c, 0, 62, 0
1, 34148, Note_on_c, 0, 53, 0
1, 34169, Note_on_c, 1, 46, 0
1, 34176, Note_on_c, 0, 65, 72
1, 34176, Note_on_c, 1, 51, 72
1, 34224, Note_on_c, 0, 65, 0
1, 34224, Note_on_c, 0, 63, 71
1, 34265, Note_on_c, 1, 51, 0
1, 34269, Note_on_c, 0, 63, 0
1, 34272, Note_on_c, 0, 62, 75
1, 34272, Note_on_c, 0, 58, 75
1, 34292, Note_on_c, 0, 62, 0
1, 34292, Note_on_c, 0, 58, 0
1, 34320, Note_on_c, 0, 63, 75
1, 34320, Note_on_c, 0, 60, 75
1, 34340, Note_on_c, 0, 63, 0
1, 34340, Note_on_c, 0, 60, 0
1, 34368, Note_on_c, 0, 64, 75
1, 34368, Note_on_c, 0, 61, 75
1, 34368, Note_on_c, 1, 46, 75
1, 34368, Note_on_c, 1, 34, 75
1, 34416, Note_on_c, 0, 64, 0
1, 34416, Note_on_c, 0, 61, 0
1, 34416, Note_on_c, 0, 65, 75
1, 34416, Note_on_c, 0, 62, 75
1, 34457, Note_on_c, 1, 46, 0
1, 34457, Note_on_c, 1, 34, 0
1, 34461, Note_on_c, 0, 65, 0
1, 34461, Note_on_c, 0, 62, 0
1, 34464, Note_on_c, 0, 65, 75
1, 34464, Note_on_c, 0, 62, 75
1, 34484, Note_on_c, 0, 65, 0
1, 34484, Note_on_c, 0, 62, 0
1, 34512, Note_on_c, 0, 66, 75
1, 34512, Note_on_c, 0, 63, 75
1, 34532, Note_on_c, 0, 66, 0
1, 34532, Note_on_c, 0, 63, 0
1, 34560, Note_on_c, 0, 67, 75
1, 34560, Note_on_c, 0, 64, 75
1, 34560, Note_on_c, 1, 46, 75
1, 34560, Note_on_c, 1, 34, 75
1, 34608, Note_on_c, 0, 67, 0
1, 34608, Note_on_c, 0, 64, 0
1, 34608, Note_on_c, 0, 68, 75
1, 34608, Note_on_c, 0, 65, 75
1, 34649, Note_on_c, 1, 46, 0
1, 34649, Note_on_c, 1, 34, 0
1, 34653, Note_on_c, 0, 68, 0
1, 34653, Note_on_c, 0, 65, 0
1, 34656, Note_on_c, 0, 68, 75
1, 34656, Note_on_c, 0, 65, 75
1, 34676, Note_on_c, 0, 68, 0
1, 34676, Note_on_c, 0, 65, 0
1, 34704, Note_on_c, 0, 70, 76
1, 34704, Note_on_c, 0, 67, 76
1, 34724, Note_on_c, 0, 70, 0
1, 34724, Note_on_c, 0, 67, 0
1, 34752, Note_on_c, 0, 71, 77
1, 34752, Note_on_c, 0, 67, 77
1, 34797, Note_on_c, 0, 71, 0
1, 34797, Note_on_c, 0, 67, 0
1, 34800, Note_on_c, 0, 72, 93
1, 34800, Note_on_c, 0, 68, 93
1, 34848, Note_on_c, 1, 46, 80
1, 34893, Note_on_c, 1, 46, 0
1, 34896, Note_on_c, 1, 47, 80
1, 34941, Note_on_c, 1, 47, 0
1, 34944, Note_on_c, 1, 48, 80
1, 34989, Note_on_c, 0, 72, 0
1, 34989, Note_on_c, 0, 68, 0
1, 34989, Note_on_c, 1, 48, 0
1, 34992, Note_on_c, 0, 70, 80
1, 34992, Note_on_c, 0, 67, 80
1, 34992, Note_on_c, 1, 49, 80
1, 35012, Note_on_c, 0, 70, 0
1, 35012, Note_on_c, 0, 67, 0
1, 35037, Note_on_c, 1, 49, 0
1, 35040, Note_on_c, 0, 68, 78
1, 35040, Note_on_c, 0, 65, 78
1, 35040, Note_on_c, 1, 50, 78
1, 35060, Note_on_c, 0, 68, 0
1, 35060, Note_on_c, 0, 65, 0
1, 35085, Note_on_c, 1, 50, 0
1, 35088, Note_on_c, 0, 67, 77
1, 35088, Note_on_c, 0, 63, 77
1, 35088, Note_on_c, 1, 51, 77
1, 35108, Note_on_c, 0, 67, 0
1, 35108, Note_on_c, 0, 63, 0
1, 35133, Note_on_c, 1, 51, 0
1, 35136, Note_on_c, 0, 67, 76
1, 35136, Note_on_c, 0, 60, 76
1, 35136, Note_on_c, 1, 44, 76
1, 35184, Note_on_c, 0, 67, 0
1, 35184, Note_on_c, 0, 60, 0
1, 35184, Note_on_c, 0, 65, 75
1, 35184, Note_on_c, 0, 56, 75
1, 35225, Note_on_c, 1, 44, 0
1, 35229, Note_on_c, 0, 65, 0
1, 35229, Note_on_c, 0, 56, 0
1, 35232, Note_on_c, 0, 63, 74
1, 35232, Note_on_c, 0, 55, 74
1, 35232, Note_on_c, 1, 46, 74
1, 35252, Note_on_c, 0, 63, 0
1, 35252, Note_on_c, 0, 55, 0
1, 35280, Note_on_c, 0, 62, 73
1, 35280, Note_on_c, 0, 53, 73
1, 35300, Note_on_c, 0, 62, 0
1, 35300, Note_on_c, 0, 53, 0
1, 35321, Note_on_c, 1, 46, 0
1, 35328, Note_on_c, 0, 63, 72
1, 35328, Note_on_c, 1, 51, 72
1, 35373, Note_on_c, 0, 63, 0
1, 35373, Note_on_c, 1, 51, 0
1, 35376, Note_on_c, 1, 55, 71
1, 35421, Note_on_c, 1, 55, 0
1, 35424, Note_on_c, 0, 70, 75
1, 35424, Note_on_c, 1, 50, 75
1, 35444, Note_on_c, 0, 70, 0
1, 35469, Note_on_c, 1, 50, 0
1, 35472, Note_on_c, 0, 70, 75
1, 35472, Note_on_c, 1, 50, 75
1, 35492, Note_on_c, 0, 70, 0
1, 35517, Note_on_c, 1, 50, 0
1, 35520, Note_on_c, 0, 68, 75
1, 35520, Note_on_c, 1, 51, 75
1, 35543, Note_on_c, 0, 68, 0
1, 35544, Note_on_c, 0, 67, 75
1, 35567, Note_on_c, 0, 67, 0
1, 35568, Note_on_c, 0, 65, 75
1, 35591, Note_on_c, 0, 65, 0
1, 35592, Note_on_c, 0, 63, 75
1, 35609, Note_on_c, 1, 51, 0
1, 35615, Note_on_c, 0, 63, 0
1, 35616, Note_on_c, 0, 62, 75
1, 35616, Note_on_c, 1, 58, 75
1, 35636, Note_on_c, 0, 62, 0
1, 35661, Note_on_c, 1, 58, 0
1, 35664, Note_on_c, 0, 62, 75
1, 35664, Note_on_c, 1, 58, 75
1, 35684, Note_on_c, 0, 62, 0
1, 35709, Note_on_c, 1, 58, 0
1, 35712, Note_on_c, 0, 63, 75
1, 35712, Note_on_c, 1, 56, 75
1, 35735, Note_on_c, 1, 56, 0
1, 35736, Note_on_c, 1, 55, 75
1, 35757, Note_on_c, 0, 63, 0
1, 35759, Note_on_c, 1, 55, 0
1, 35760, Note_on_c, 1, 53, 75
1, 35783, Note_on_c, 1, 53, 0
1, 35784, Note_on_c, 1, 51, 75
1, 35807, Note_on_c, 1, 51, 0
1, 35808, Note_on_c, 0, 82, 75
1, 35808, Note_on_c, 1, 50, 75
1, 35828, Note_on_c, 0, 82, 0
1, 35853, Note_on_c, 1, 50, 0
1, 35856, Note_on_c, 0, 82, 75
1, 35856, Note_on_c, 1, 50, 75
1, 35876, Note_on_c, 0, 82, 0
1, 35901, Note_on_c, 1, 50, 0
1, 35904, Note_on_c, 0, 80, 75
1, 35904, Note_on_c, 1, 51, 75
1, 35927, Note_on_c, 0, 80, 0
1, 35928, Note_on_c, 0, 79, 75
1, 35951, Note_on_c, 0, 79, 0
1, 35952, Note_on_c, 0, 77, 75
1, 35975, Note_on_c, 0, 77, 0
1, 35976, Note_on_c, 0, 75, 75
1, 35993, Note_on_c, 1, 51, 0
1, 35999, Note_on_c, 0, 75, 0
1, 36000, Note_on_c, 0, 77, 75
1, 36000, Note_on_c, 0, 74, 75
1, 36000, Note_on_c, 1, 70, 75
1, 36020, Note_on_c, 0, 77, 0
1, 36020, Note_on_c, 0, 74, 0
1, 36045, Note_on_c, 1, 70, 0
1, 36048, Note_on_c, 0, 77, 75
1, 36048, Note_on_c, 0, 74, 75
1, 36048, Note_on_c, 1, 70, 75
1, 36068, Note_on_c, 0, 77, 0
1, 36068, Note_on_c, 0, 74, 0
1, 36093, Note_on_c, 1, 70, 0
1, 36096, Note_on_c, 0, 79, 75
1, 36096, Note_on_c, 0, 75, 75
1, 36096, Note_on_c, 1, 68, 75
1, 36119, Note_on_c, 1, 68, 0
1, 36120, Note_on_c, 1, 67, 75
1, 36141, Note_on_c, 0, 79, 0
1, 36141, Note_on_c, 0, 75, 0
1, 36143, Note_on_c, 1, 67, 0
1, 36144, Note_on_c, 1, 65, 75
1, 36167, Note_on_c, 1, 65, 0
1, 36168, Note_on_c, 1, 63, 75
1, 36191, Note_on_c, 1, 63, 0
1, 36192, Note_on_c, 0, 74, 75
1, 36192, Note_on_c, 0, 71, 75
1, 36192, Note_on_c, 1, 67, 75
1, 36212, Note_on_c, 0, 74, 0
1, 36212, Note_on_c, 0, 71, 0
1, 36237, Note_on_c, 1, 67, 0
1, 36240, Note_on_c, 0, 74, 75
1, 36240, Note_on_c, 0, 71, 75
1, 36240, Note_on_c, 1, 67, 75
1, 36260, Note_on_c, 0, 74, 0
1, 36260, Note_on_c, 0, 71, 0
1, 36285, Note_on_c, 1, 67, 0
1, 36288, Note_on_c, 0, 75, 75
1, 36288, Note_on_c, 0, 72, 75
1, 36288, Note_on_c, 1, 65, 75
1, 36311, Note_on_c, 1, 65, 0
1, 36312, Note_on_c, 1, 63, 75
1, 36333, Note_on_c, 0, 75, 0
1, 36333, Note_on_c, 0, 72, 0
1, 36335, Note_on_c, 1, 63, 0
1, 36336, Note_on_c, 1, 62, 75
1, 36359, Note_on_c, 1, 62, 0
1, 36360, Note_on_c, 1, 60, 75
1, 36383, Note_on_c, 1, 60, 0
1, 36384, Note_on_c, 0, 70, 75
1, 36384, Note_on_c, 0, 67, 75
1, 36384, Note_on_c, 1, 63, 75
1, 36404, Note_on_c, 0, 70, 0
1, 36404, Note_on_c, 0, 67, 0
1, 36429, Note_on_c, 1, 63, 0
1, 36432, Note_on_c, 0, 70, 75
1, 36432, Note_on_c, 0, 67, 75
1, 36432, Note_on_c, 1, 63, 75
1, 36452, Note_on_c, 0, 70, 0
1, 36452, Note_on_c, 0, 67, 0
1, 36477, Note_on_c, 1, 63, 0
1, 36480, Note_on_c, 0, 72, 75
1, 36480, Note_on_c, 0, 68, 75
1, 36480, Note_on_c, 1, 61, 75
1, 36503, Note_on_c, 1, 61, 0
1, 36504, Note_on_c, 1, 60, 75
1, 36525, Note_on_c, 0, 72, 0
1, 36525, Note_on_c, 0, 68, 0
1, 36527, Note_on_c, 1, 60, 0
1, 36528, Note_on_c, 1, 58, 75
1, 36551, Note_on_c, 1, 58, 0
1, 36552, Note_on_c, 1, 56, 75
1, 36575, Note_on_c, 1, 56, 0
1, 36576, Note_on_c, 0, 67, 75
1, 36576, Note_on_c, 0, 64, 75
1, 36576, Note_on_c, 1, 60, 75
1, 36596, Note_on_c, 0, 67, 0
1, 36596, Note_on_c, 0, 64, 0
1, 36621, Note_on_c, 1, 60, 0
1, 36624, Note_on_c, 0, 67, 75
1, 36624, Note_on_c, 0, 64, 75
1, 36624, Note_on_c, 1, 60, 75
1, 36644, Note_on_c, 0, 67, 0
1, 36644, Note_on_c, 0, 64, 0
1, 36669, Note_on_c, 1, 60, 0
1, 36672, Note_on_c, 0, 68, 75
1, 36672, Note_on_c, 0, 65, 75
1, 36672, Note_on_c, 1, 58, 75
1, 36695, Note_on_c, 1, 58, 0
1, 36696, Note_on_c, 1, 56, 75
1, 36717, Note_on_c, 0, 68, 0
1, 36717, Note_on_c, 0, 65, 0
1, 36719, Note_on_c, 1, 56, 0
1, 36720, Note_on_c, 1, 55, 75
1, 36743, Note_on_c, 1, 55, 0
1, 36744, Note_on_c, 1, 53, 75
1, 36767, Note_on_c, 1, 53, 0
1, 36768, Note_on_c, 0, 84, 75
1, 36768, Note_on_c, 0, 72, 75
1, 36768, Note_on_c, 1, 60, 75
1, 36768, Note_on_c, 1, 55, 75
1, 36768, Note_on_c, 1, 52, 75
1, 36788, Note_on_c, 0, 84, 0
1, 36788, Note_on_c, 0, 72, 0
1, 36813, Note_on_c, 1, 60, 0
1, 36813, Note_on_c, 1, 55, 0
1, 36813, Note_on_c, 1, 52, 0
1, 36816, Note_on_c, 0, 84, 75
1, 36816, Note_on_c, 0, 72, 75
1, 36816, Note_on_c, 1, 60, 75
1, 36816, Note_on_c, 1, 55, 75
1, 36816, Note_on_c, 1, 52, 75
1, 36836, Note_on_c, 0, 84, 0
1, 36836, Note_on_c, 0, 72, 0
1, 36861, Note_on_c, 1, 60, 0
1, 36861, Note_on_c, 1, 55, 0
1, 36861, Note_on_c, 1, 52, 0
1, 36864, Note_on_c, 0, 82, 75
1, 36864, Note_on_c, 1, 60, 75
1, 36864, Note_on_c, 1, 56, 75
1, 36864, Note_on_c, 1, 53, 75
1, 36887, Note_on_c, 0, 82, 0
1, 36888, Note_on_c, 0, 80, 75
1, 36911, Note_on_c, 0, 80, 0
1, 36912, Note_on_c, 0, 79, 75
1, 36935, Note_on_c, 0, 79, 0
1, 36936, Note_on_c, 0, 77, 75
1, 36953, Note_on_c, 1, 60, 0
1, 36953, Note_on_c, 1, 56, 0
1, 36953, Note_on_c, 1, 53, 0
1, 36959, Note_on_c, 0, 77, 0
1, 36960, Note_on_c, 0, 83, 75
1, 36960, Note_on_c, 1, 60, 75
1, 36960, Note_on_c, 1, 55, 75
1, 36960, Note_on_c, 1, 52, 75
1, 36972, Note_on_c, 0, 83, 0
1, 36972, Note_on_c, 0, 84, 75
1, 37005, Note_on_c, 0, 84, 0
1, 37005, Note_on_c, 1, 60, 0
1, 37005, Note_on_c, 1, 55, 0
1, 37005, Note_on_c, 1, 52, 0
1, 37008, Note_on_c, 0, 83, 75
1, 37008, Note_on_c, 1, 60, 75
1, 37008, Note_on_c, 1, 55, 75
1, 37008, Note_on_c, 1, 52, 75
1, 37020, Note_on_c, 0, 83, 0
1, 37020, Note_on_c, 0, 84, 75
1, 37053, Note_on_c, 0, 84, 0
1, 37053, Note_on_c, 1, 60, 0
1, 37053, Note_on_c, 1, 55, 0
1, 37053, Note_on_c, 1, 52, 0
1, 37056, Note_on_c, 0, 82, 75
1, 37056, Note_on_c, 1, 60, 75
1, 37056, Note_on_c, 1, 56, 75
1, 37056, Note_on_c, 1, 53, 75
1, 37079, Note_on_c, 0, 82, 0
1, 37080, Note_on_c, 0, 80, 75
1, 37103, Note_on_c, 0, 80, 0
1, 37104, Note_on_c, 0, 79, 75
1, 37127, Note_on_c, 0, 79, 0
1, 37128, Note_on_c, 0, 77, 75
1, 37145, Note_on_c, 1, 60, 0
1, 37145, Note_on_c, 1, 56, 0
1, 37145, Note_on_c, 1, 53, 0
1, 37151, Note_on_c, 0, 77, 0
1, 37152, Note_on_c, 0, 83, 75
1, 37152, Note_on_c, 1, 60, 75
1, 37152, Note_on_c, 1, 55, 75
1, 37152, Note_on_c, 1, 52, 75
1, 37176, Note_on_c, 0, 83, 0
1, 37176, Note_on_c, 0, 84, 75
1, 37197, Note_on_c, 1, 60, 0
1, 37197, Note_on_c, 1, 55, 0
1, 37197, Note_on_c, 1, 52, 0
1, 37199, Note_on_c, 0, 84, 0
1, 37200, Note_on_c, 0, 83, 75
1, 37200, Note_on_c, 1, 60, 75
1, 37200, Note_on_c, 1, 55, 75
1, 37200, Note_on_c, 1, 52, 75
1, 37224, Note_on_c, 0, 83, 0
1, 37224, Note_on_c, 0, 84, 75
1, 37245, Note_on_c, 1, 60, 0
1, 37245, Note_on_c, 1, 55, 0
1, 37245, Note_on_c, 1, 52, 0
1, 37247, Note_on_c, 0, 84, 0
1, 37248, Note_on_c, 0, 82, 75
1, 37248, Note_on_c, 1, 60, 75
1, 37248, Note_on_c, 1, 56, 75
1, 37248, Note_on_c, 1, 53, 75
1, 37271, Note_on_c, 0, 82, 0
1, 37272, Note_on_c, 0, 80, 75
1, 37295, Note_on_c, 0, 80, 0
1, 37296, Note_on_c, 0, 79, 75
1, 37319, Note_on_c, 0, 79, 0
1, 37320, Note_on_c, 0, 77, 75
1, 37337, Note_on_c, 1, 60, 0
1, 37337, Note_on_c, 1, 56, 0
1, 37337, Note_on_c, 1, 53, 0
1, 37343, Note_on_c, 0, 77, 0
1, 37344, Note_on_c, 0, 77, 75
1, 37344, Note_on_c, 1, 63, 75
1, 37344, Note_on_c, 1, 57, 75
1, 37344, Note_on_c, 1, 54, 75
1, 37367, Note_on_c, 0, 77, 0
1, 37368, Note_on_c, 0, 75, 75
1, 37391, Note_on_c, 0, 75, 0
1, 37392, Note_on_c, 0, 74, 75
1, 37415, Note_on_c, 0, 74, 0
1, 37416, Note_on_c, 0, 72, 75
1, 37433, Note_on_c, 1, 63, 0
1, 37433, Note_on_c, 1, 57, 0
1, 37433, Note_on_c, 1, 54, 0
1, 37439, Note_on_c, 0, 72, 0
1, 37440, Note_on_c, 0, 72, 75
1, 37440, Note_on_c, 1, 62, 75
1, 37440, Note_on_c, 1, 59, 75
1, 37440, Note_on_c, 1, 55, 75
1, 37463, Note_on_c, 0, 72, 0
1, 37464, Note_on_c, 0, 71, 75
1, 37487, Note_on_c, 0, 71, 0
1, 37488, Note_on_c, 0, 69, 75
1, 37511, Note_on_c, 0, 69, 0
1, 37512, Note_on_c, 0, 67, 75
1, 37529, Note_on_c, 1, 62, 0
1, 37529, Note_on_c, 1, 59, 0
1, 37529, Note_on_c, 1, 55, 0
1, 37535, Note_on_c, 0, 67, 0
1, 37536, Note_on_c, 0, 67, 75
1, 37536, Note_on_c, 1, 62, 75
1, 37536, Note_on_c, 1, 59, 75
1, 37536, Note_on_c, 1, 55, 75
1, 37581, Note_on_c, 0, 67, 0
1, 37581, Note_on_c, 1, 62, 0
1, 37581, Note_on_c, 1, 59, 0
1, 37581, Note_on_c, 1, 55, 0
1, 37584, Note_on_c, 0, 67, 75
1, 37584, Note_on_c, 1, 62, 75
1, 37584, Note_on_c, 1, 59, 75
1, 37584, Note_on_c, 1, 55, 75
1, 37629, Note_on_c, 0, 67, 0
1, 37629, Note_on_c, 1, 62, 0
1, 37629, Note_on_c, 1, 59, 0
1, 37629, Note_on_c, 1, 55, 0
1, 37632, Note_on_c, 0, 71, 75
1, 37632, Note_on_c, 1, 63, 75
1, 37632, Note_on_c, 1, 60, 75
1, 37632, Note_on_c, 1, 55, 75
1, 37655, Note_on_c, 0, 71, 0
1, 37656, Note_on_c, 0, 69, 75
1, 37679, Note_on_c, 0, 69, 0
1, 37680, Note_on_c, 0, 67, 75
1, 37703, Note_on_c, 0, 67, 0
1, 37704, Note_on_c, 0, 69, 75
1, 37721, Note_on_c, 1, 63, 0
1, 37721, Note_on_c, 1, 60, 0
1, 37727, Note_on_c, 0, 69, 0
1, 37728, Note_on_c, 0, 72, 75
1, 37728, Note_on_c, 1, 65, 75
1, 37728, Note_on_c, 1, 62, 75
1, 37751, Note_on_c, 0, 72, 0
1, 37752, Note_on_c, 0, 71, 75
1, 37775, Note_on_c, 0, 71, 0
1, 37776, Note_on_c, 0, 69, 75
1, 37799, Note_on_c, 0, 69, 0
1, 37800, Note_on_c, 0, 71, 75
1, 37817, Note_on_c, 1, 65, 0
1, 37817, Note_on_c, 1, 62, 0
1, 37823, Note_on_c, 0, 71, 0
1, 37824, Note_on_c, 0, 74, 75
1, 37824, Note_on_c, 1, 67, 75
1, 37824, Note_on_c, 1, 63, 75
1, 37847, Note_on_c, 0, 74, 0
1, 37848, Note_on_c, 0, 72, 75
1, 37871, Note_on_c, 0, 72, 0
1, 37872, Note_on_c, 0, 71, 75
1, 37895, Note_on_c, 0, 71, 0
1, 37896, Note_on_c, 0, 72, 75
1, 37913, Note_on_c, 1, 67, 0
1, 37913, Note_on_c, 1, 63, 0
1, 37919, Note_on_c, 0, 72, 0
1, 37920, Note_on_c, 0, 74, 75
1, 37920, Note_on_c, 1, 59, 75
1, 37965, Note_on_c, 0, 74, 0
1, 37965, Note_on_c, 1, 59, 0
1, 37968, Note_on_c, 0, 74, 75
1, 37968, Note_on_c, 1, 59, 75
1, 38013, Note_on_c, 0, 74, 0
1, 38013, Note_on_c, 1, 59, 0
1, 38016, Note_on_c, 0, 77, 75
1, 38016, Note_on_c, 1, 60, 75
1, 38039, Note_on_c, 0, 77, 0
1, 38040, Note_on_c, 0, 75, 75
1, 38063, Note_on_c, 0, 75, 0
1, 38064, Note_on_c, 0, 74, 75
1, 38087, Note_on_c, 0, 74, 0
1, 38088, Note_on_c, 0, 75, 75
1, 38105, Note_on_c, 1, 60, 0
1, 38111, Note_on_c, 0, 75, 0
1, 38112, Note_on_c, 0, 79, 75
1, 38112, Note_on_c, 1, 57, 75
1, 38135, Note_on_c, 0, 79, 0
1, 38136, Note_on_c, 0, 78, 75
1, 38159, Note_on_c, 0, 78, 0
1, 38160, Note_on_c, 0, 76, 75
1, 38183, Note_on_c, 0, 76, 0
1, 38184, Note_on_c, 0, 78, 75
1, 38201, Note_on_c, 1, 57, 0
1, 38207, Note_on_c, 0, 78, 0
1, 38208, Note_on_c, 0, 79, 75
1, 38208, Note_on_c, 1, 59, 75
1, 38253, Note_on_c, 0, 79, 0
1, 38297, Note_on_c, 1, 59, 0
1, 38297, Note_on_c, 1, 55, 0
1, 38304, Note_on_c, 0, 80, 64
1, 38304, Note_on_c, 0, 77, 64
1, 38324, Note_on_c, 0, 80, 0
1, 38324, Note_on_c, 0, 77, 0
1, 38352, Note_on_c, 0, 80, 64
1, 38352, Note_on_c, 0, 77, 64
1, 38372, Note_on_c, 0, 80, 0
1, 38372, Note_on_c, 0, 77, 0
1, 38400, Note_on_c, 0, 80, 64
1, 38400, Note_on_c, 0, 77, 64
1, 38445, Note_on_c, 0, 80, 0
1, 38445, Note_on_c, 0, 77, 0
1, 38496, Note_on_c, 1, 74, 75
1, 38496, Note_on_c, 1, 71, 75
1, 38516, Note_on_c, 1, 74, 0
1, 38516, Note_on_c, 1, 71, 0
1, 38544, Note_on_c, 1, 74, 75
1, 38544, Note_on_c, 1, 71, 75
1, 38564, Note_on_c, 1, 74, 0
1, 38564, Note_on_c, 1, 71, 0
1, 38592, Note_on_c, 1, 74, 75
1, 38592, Note_on_c, 1, 71, 75
1, 38637, Note_on_c, 1, 74, 0
1, 38637, Note_on_c, 1, 71, 0
1, 38688, Note_on_c, 0, 79, 58
1, 38688, Note_on_c, 0, 77, 58
1, 38708, Note_on_c, 0, 79, 0
1, 38708, Note_on_c, 0, 77, 0
1, 38736, Note_on_c, 0, 79, 58
1, 38736, Note_on_c, 0, 77, 58
1, 38756, Note_on_c, 0, 79, 0
1, 38756, Note_on_c, 0, 77, 0
1, 38784, Note_on_c, 0, 79, 58
1, 38784, Note_on_c, 0, 77, 58
1, 38829, Note_on_c, 0, 79, 0
1, 38829, Note_on_c, 0, 77, 0
1, 38880, Note_on_c, 1, 77, 58
1, 38880, Note_on_c, 1, 71, 58
1, 38900, Note_on_c, 1, 77, 0
1, 38900, Note_on_c, 1, 71, 0
1, 38928, Note_on_c, 1, 77, 58
1, 38928, Note_on_c, 1, 71, 58
1, 38948, Note_on_c, 1, 77, 0
1, 38948, Note_on_c, 1, 71, 0
1, 38976, Note_on_c, 1, 77, 58
1, 38976, Note_on_c, 1, 71, 58
1, 39021, Note_on_c, 1, 77, 0
1, 39021, Note_on_c, 1, 71, 0
1, 39024, Tempo, 2000000
1, 39072, Tempo, 400000
1, 39072, Note_on_c, 0, 79, 75
1, 39092, Note_on_c, 0, 79, 0
1, 39120, Note_on_c, 0, 79, 75
1, 39140, Note_on_c, 0, 79, 0
1, 39168, Note_on_c, 0, 81, 75
1, 39168, Note_on_c, 1, 64, 75
1, 39168, Note_on_c, 1, 60, 75
1, 39191, Note_on_c, 0, 81, 0
1, 39192, Note_on_c, 0, 79, 75
1, 39215, Note_on_c, 0, 79, 0
1, 39216, Note_on_c, 0, 77, 75
1, 39239, Note_on_c, 0, 77, 0
1, 39240, Note_on_c, 0, 76, 75
1, 39257, Note_on_c, 1, 64, 0
1, 39257, Note_on_c, 1, 60, 0
1, 39263, Note_on_c, 0, 76, 0
1, 39264, Note_on_c, 0, 76, 75
1, 39264, Note_on_c, 1, 65, 75
1, 39264, Note_on_c, 1, 60, 75
1, 39287, Note_on_c, 0, 76, 0
1, 39288, Note_on_c, 0, 74, 75
1, 39311, Note_on_c, 0, 74, 0
1, 39312, Note_on_c, 0, 72, 75
1, 39335, Note_on_c, 0, 72, 0
1, 39336, Note_on_c, 0, 71, 75
1, 39353, Note_on_c, 1, 65, 0
1, 39353, Note_on_c, 1, 60, 0
1, 39359, Note_on_c, 0, 71, 0
1, 39360, Note_on_c, 0, 72, 75
1, 39360, Note_on_c, 1, 64, 75
1, 39360, Note_on_c, 1, 60, 75
1, 39408, Note_on_c, 0, 72, 0
1, 39408, Note_on_c, 0, 67, 75
1, 39449, Note_on_c, 1, 64, 0
1, 39449, Note_on_c, 1, 60, 0
1, 39453, Note_on_c, 0, 67, 0
1, 39456, Note_on_c, 0, 72, 75
1, 39504, Note_on_c, 0, 72, 0
1, 39504, Note_on_c, 0, 73, 75
1, 39524, Note_on_c, 0, 73, 0
1, 39552, Note_on_c, 0, 74, 75
1, 39552, Note_on_c, 1, 59, 75
1, 39600, Note_on_c, 0, 74, 0
1, 39600, Note_on_c, 0, 67, 75
1, 39641, Note_on_c, 1, 59, 0
1, 39645, Note_on_c, 0, 67, 0
1, 39648, Note_on_c, 0, 74, 75
1, 39696, Note_on_c, 0, 74, 0
1, 39696, Note_on_c, 0, 75, 75
1, 39716, Note_on_c, 0, 75, 0
1, 39744, Note_on_c, 0, 76, 75
1, 39744, Note_on_c, 1, 60, 75
1, 39789, Note_on_c, 0, 76, 0
1, 39792, Note_on_c, 0, 72, 75
1, 39833, Note_on_c, 1, 60, 0
1, 39837, Note_on_c, 0, 72, 0
1, 39840, Note_on_c, 0, 76, 75
1, 39840, Note_on_c, 1, 72, 75
1, 39860, Note_on_c, 0, 76, 0
1, 39887, Note_on_c, 1, 72, 0
1, 39888, Note_on_c, 0, 77, 76
1, 39888, Note_on_c, 1, 74, 75
1, 39908, Note_on_c, 0, 77, 0
1, 39935, Note_on_c, 1, 74, 0
1, 39936, Note_on_c, 0, 78, 77
1, 39936, Note_on_c, 1, 76, 75
1, 39959, Note_on_c, 0, 78, 0
1, 39960, Note_on_c, 0, 79, 78
1, 39983, Note_on_c, 0, 79, 0
1, 39984, Note_on_c, 0, 81, 78
1, 40007, Note_on_c, 0, 81, 0
1, 40008, Note_on_c, 0, 79, 79
1, 40025, Note_on_c, 1, 76, 0
1, 40031, Note_on_c, 0, 79, 0
1, 40032, Note_on_c, 0, 77, 80
1, 40032, Note_on_c, 1, 74, 75
1, 40052, Note_on_c, 0, 77, 0
1, 40077, Note_on_c, 1, 74, 0
1, 40080, Note_on_c, 0, 76, 78
1, 40080, Note_on_c, 1, 72, 75
1, 40100, Note_on_c, 0, 76, 0
1, 40125, Note_on_c, 1, 72, 0
1, 40128, Note_on_c, 0, 74, 76
1, 40128, Note_on_c, 1, 71, 75
1, 40128, Note_on_c, 1, 67, 75
1, 40173, Note_on_c, 0, 74, 0
1, 40217, Note_on_c, 1, 71, 0
1, 40217, Note_on_c, 1, 67, 0
1, 40224, Note_on_c, 0, 79, 75
1, 40244, Note_on_c, 0, 79, 0
1, 40272, Note_on_c, 0, 79, 75
1, 40292, Note_on_c, 0, 79, 0
1, 40320, Note_on_c, 0, 81, 75
1, 40320, Note_on_c, 1, 64, 75
1, 40320, Note_on_c, 1, 60, 75
1, 40343, Note_on_c, 0, 81, 0
1, 40344, Note_on_c, 0, 79, 75
1, 40367, Note_on_c, 0, 79, 0
1, 40368, Note_on_c, 0, 77, 75
1, 40391, Note_on_c, 0, 77, 0
1, 40392, Note_on_c, 0, 76, 75
1, 40409, Note_on_c, 1, 64, 0
1, 40409, Note_on_c, 1, 60, 0
1, 40415, Note_on_c, 0, 76, 0
1, 40416, Note_on_c, 0, 76, 75
1, 40416, Note_on_c, 1, 65, 75
1, 40416, Note_on_c, 1, 60, 75
1, 40439, Note_on_c, 0, 76, 0
1, 40440, Note_on_c, 0, 74, 75
1, 40463, Note_on_c, 0, 74, 0
1, 40464, Note_on_c, 0, 72, 75
1, 40487, Note_on_c, 0, 72, 0
1, 40488, Note_on_c, 0, 71, 75
1, 40505, Note_on_c, 1, 65, 0
1, 40505, Note_on_c, 1, 60, 0
1, 40511, Note_on_c, 0, 71, 0
1, 40512, Note_on_c, 0, 72, 75
1, 40512, Note_on_c, 1, 64, 75
1, 40512, Note_on_c, 1, 60, 75
1, 40560, Note_on_c, 0, 72, 0
1, 40560, Note_on_c, 0, 67, 75
1, 40601, Note_on_c, 1, 64, 0
1, 40601, Note_on_c, 1, 60, 0
1, 40605, Note_on_c, 0, 67, 0
1, 40608, Note_on_c, 0, 79, 75
1, 40632, Note_on_c, 0, 79, 0
1, 40632, Note_on_c, 0, 73, 75
1, 40655, Note_on_c, 0, 73, 0
1, 40656, Note_on_c, 0, 79, 75
1, 40680, Note_on_c, 0, 79, 0
1, 40680, Note_on_c, 0, 73, 75
1, 40703, Note_on_c, 0, 73, 0
1, 40704, Note_on_c, 0, 74, 75
1, 40704, Note_on_c, 1, 67, 75
1, 40704, Note_on_c, 1, 59, 75
1, 40752, Note_on_c, 0, 74, 0
1, 40752, Note_on_c, 0, 67, 75
1, 40793, Note_on_c, 1, 67, 0
1, 40793, Note_on_c, 1, 59, 0
1, 40797, Note_on_c, 0, 67, 0
1, 40800, Note_on_c, 0, 79, 75
1, 40824, Note_on_c, 0, 79, 0
1, 40824, Note_on_c, 0, 75, 75
1, 40847, Note_on_c, 0, 75, 0
1, 40848, Note_on_c, 0, 79, 75
1, 40872, Note_on_c, 0, 79, 0
1, 40872, Note_on_c, 0, 75, 75
1, 40895, Note_on_c, 0, 75, 0
1, 40896, Note_on_c, 0, 76, 75
1, 40896, Note_on_c, 1, 67, 75
1, 40896, Note_on_c, 1, 60, 75
1, 40941, Note_on_c, 0, 76, 0
1, 40944, Note_on_c, 0, 72, 75
1, 40985, Note_on_c, 1, 67, 0
1, 40985, Note_on_c, 1, 60, 0
1, 40989, Note_on_c, 0, 72, 0
1, 40992, Note_on_c, 0, 84, 75
1, 40992, Note_on_c, 0, 76, 75
1, 41012, Note_on_c, 0, 84, 0
1, 41012, Note_on_c, 0, 76, 0
1, 41040, Note_on_c, 0, 83, 75
1, 41040, Note_on_c, 0, 74, 75
1, 41060, Note_on_c, 0, 83, 0
1, 41060, Note_on_c, 0, 74, 0
1, 41088, Note_on_c, 0, 82, 75
1, 41088, Note_on_c, 0, 73, 75
1, 41136, Note_on_c, 0, 82, 0
1, 41136, Note_on_c, 0, 73, 0
1, 41136, Note_on_c, 0, 81, 75
1, 41136, Note_on_c, 0, 72, 75
1, 41136, Note_on_c, 1, 63, 75
1, 41156, Note_on_c, 0, 81, 0
1, 41156, Note_on_c, 0, 72, 0
1, 41181, Note_on_c, 1, 63, 0
1, 41184, Note_on_c, 0, 79, 75
1, 41184, Note_on_c, 0, 71, 75
1, 41184, Note_on_c, 1, 62, 75
1, 41204, Note_on_c, 0, 79, 0
1, 41204, Note_on_c, 0, 71, 0
1, 41229, Note_on_c, 1, 62, 0
1, 41232, Note_on_c, 0, 78, 75
1, 41232, Note_on_c, 0, 69, 75
1, 41232, Note_on_c, 1, 50, 75
1, 41252, Note_on_c, 0, 78, 0
1, 41252, Note_on_c, 0, 69, 0
1, 41277, Note_on_c, 1, 50, 0
1, 41280, Note_on_c, 0, 79, 75
1, 41280, Note_on_c, 0, 67, 75
1, 41280, Note_on_c, 1, 55, 75
1, 41325, Note_on_c, 1, 55, 0
1, 41328, Note_on_c, 1, 43, 75
1, 41369, Note_on_c, 0, 79, 0
1, 41369, Note_on_c, 0, 67, 0
1, 41373, Note_on_c, 1, 43, 0
1, 41376, Note_on_c, 1, 59, 75
1, 41376, Note_on_c, 1, 55, 75
1, 41396, Note_on_c, 1, 59, 0
1, 41396, Note_on_c, 1, 55, 0
1, 41424, Note_on_c, 1, 60, 75
1, 41424, Note_on_c, 1, 57, 75
1, 41444, Note_on_c, 1, 60, 0
1, 41444, Note_on_c, 1, 57, 0
1, 41472, Note_on_c, 1, 61, 75
1, 41472, Note_on_c, 1, 58, 75
1, 41520, Note_on_c, 1, 61, 0
1, 41520, Note_on_c, 1, 58, 0
1, 41520, Note_on_c, 1, 62, 75
1, 41520, Note_on_c, 1, 59, 75
1, 41565, Note_on_c, 1, 62, 0
1, 41565, Note_on_c, 1, 59, 0
1, 41568, Note_on_c, 0, 77, 75
1, 41568, Note_on_c, 0, 74, 75
1, 41588, Note_on_c, 0, 77, 0
1, 41588, Note_on_c, 0, 74, 0
1, 41616, Note_on_c, 0, 76, 75
1, 41616, Note_on_c, 0, 72, 75
1, 41636, Note_on_c, 0, 76, 0
1, 41636, Note_on_c, 0, 72, 0
1, 41664, Note_on_c, 0, 73, 75
1, 41664, Note_on_c, 0, 70, 75
1, 41712, Note_on_c, 0, 73, 0
1, 41712, Note_on_c, 0, 70, 0
1, 41712, Note_on_c, 0, 74, 75
1, 41712, Note_on_c, 0, 71, 75
1, 41757, Note_on_c, 0, 74, 0
1, 41757, Note_on_c, 0, 71, 0
1, 41760, Note_on_c, 1, 64, 75
1, 41760, Note_on_c, 1, 60, 75
1, 41780, Note_on_c, 1, 64, 0
1, 41780, Note_on_c, 1, 60, 0
1, 41808, Note_on_c, 1, 65, 75
1, 41808, Note_on_c, 1, 62, 75
1, 41828, Note_on_c, 1, 65, 0
1, 41828, Note_on_c, 1, 62, 0
1, 41856, Note_on_c, 1, 66, 75
1, 41856, Note_on_c, 1, 63, 75
1, 41904, Note_on_c, 1, 66, 0
1, 41904, Note_on_c, 1, 63, 0
1, 41904, Note_on_c, 1, 67, 75
1, 41904, Note_on_c, 1, 64, 75
1, 41949, Note_on_c, 1, 67, 0
1, 41949, Note_on_c, 1, 64, 0
1, 41952, Note_on_c, 0, 79, 75
1, 41952, Note_on_c, 0, 76, 75
1, 41972, Note_on_c, 0, 79, 0
1, 41972, Note_on_c, 0, 76, 0
1, 42000, Note_on_c, 0, 77, 75
1, 42000, Note_on_c, 0, 74, 75
1, 42020, Note_on_c, 0, 77, 0
1, 42020, Note_on_c, 0, 74, 0
1, 42048, Note_on_c, 0, 75, 75
1, 42048, Note_on_c, 0, 71, 75
1, 42096, Note_on_c, 0, 75, 0
1, 42096, Note_on_c, 0, 71, 0
1, 42096, Note_on_c, 0, 76, 75
1, 42096, Note_on_c, 0, 72, 75
1, 42141, Note_on_c, 0, 76, 0
1, 42141, Note_on_c, 0, 72, 0
1, 42144, Note_on_c, 0, 82, 75
1, 42144, Note_on_c, 1, 52, 75
1, 42164, Note_on_c, 0, 82, 0
1, 42189, Note_on_c, 1, 52, 0
1, 42192, Note_on_c, 0, 82, 75
1, 42192, Note_on_c, 1, 60, 75
1, 42212, Note_on_c, 0, 82, 0
1, 42237, Note_on_c, 1, 60, 0
1, 42240, Note_on_c, 0, 82, 75
1, 42240, Note_on_c, 1, 53, 75
1, 42263, Note_on_c, 0, 82, 0
1, 42264, Note_on_c, 0, 81, 75
1, 42285, Note_on_c, 1, 53, 0
1, 42287, Note_on_c, 0, 81, 0
1, 42288, Note_on_c, 0, 79, 76
1, 42288, Note_on_c, 1, 60, 76
1, 42311, Note_on_c, 0, 79, 0
1, 42312, Note_on_c, 0, 77, 76
1, 42333, Note_on_c, 1, 60, 0
1, 42335, Note_on_c, 0, 77, 0
1, 42336, Note_on_c, 0, 77, 76
1, 42336, Note_on_c, 1, 55, 76
1, 42359, Note_on_c, 0, 77, 0
1, 42360, Note_on_c, 0, 76, 76
1, 42381, Note_on_c, 1, 55, 0
1, 42383, Note_on_c, 0, 76, 0
1, 42384, Note_on_c, 0, 74, 76
1, 42384, Note_on_c, 1, 60, 76
1, 42407, Note_on_c, 0, 74, 0
1, 42408, Note_on_c, 0, 72, 76
1, 42429, Note_on_c, 1, 60, 0
1, 42431, Note_on_c, 0, 72, 0
1, 42432, Note_on_c, 0, 77, 77
1, 42432, Note_on_c, 1, 57, 77
1, 42452, Note_on_c, 0, 77, 0
1, 42477, Note_on_c, 1, 57, 0
1, 42480, Note_on_c, 0, 77, 77
1, 42480, Note_on_c, 1, 60, 77
1, 42500, Note_on_c, 0, 77, 0
1, 42525, Note_on_c, 1, 60, 0
1, 42528, Note_on_c, 0, 81, 77
1, 42528, Note_on_c, 1, 53, 77
1, 42548, Note_on_c, 0, 81, 0
1, 42573, Note_on_c, 1, 53, 0
1, 42576, Note_on_c, 0, 81, 78
1, 42576, Note_on_c, 1, 59, 78
1, 42596, Note_on_c, 0, 81, 0
1, 42621, Note_on_c, 1, 59, 0
1, 42624, Note_on_c, 0, 81, 78
1, 42624, Note_on_c, 1, 52, 78
1, 42647, Note_on_c, 0, 81, 0
1, 42648, Note_on_c, 0, 79, 78
1, 42669, Note_on_c, 1, 52, 0
1, 42671, Note_on_c, 0, 79, 0
1, 42672, Note_on_c, 0, 77, 78
1, 42672, Note_on_c, 1, 60, 78
1, 42695, Note_on_c, 0, 77, 0
1, 42696, Note_on_c, 0, 76, 79
1, 42717, Note_on_c, 1, 60, 0
1, 42719, Note_on_c, 0, 76, 0
1, 42720, Note_on_c, 0, 74, 79
1, 42720, Note_on_c, 1, 53, 79
1, 42732, Note_on_c, 0, 74, 0
1, 42732, Note_on_c, 0, 76, 79
1, 42744, Note_on_c, 0, 76, 0
1, 42744, Note_on_c, 0, 74, 79
1, 42765, Note_on_c, 0, 74, 0
1, 42765, Note_on_c, 1, 53, 0
1, 42768, Note_on_c, 0, 76, 79
1, 42768, Note_on_c, 1, 54, 79
1, 42791, Note_on_c, 0, 76, 0
1, 42792, Note_on_c, 0, 72, 79
1, 42813, Note_on_c, 1, 54, 0
1, 42815, Note_on_c, 0, 72, 0
1, 42816, Note_on_c, 0, 72, 80
1, 42816, Note_on_c, 1, 55, 80
1, 42839, Note_on_c, 0, 72, 0
1, 42840, Note_on_c, 0, 71, 80
1, 42861, Note_on_c, 1, 55, 0
1, 42863, Note_on_c, 0, 71, 0
1, 42864, Note_on_c, 0, 69, 80
1, 42887, Note_on_c, 0, 69, 0
1, 42888, Note_on_c, 0, 67, 80
1, 42911, Note_on_c, 0, 67, 0
1, 42912, Note_on_c, 0, 79, 86
1, 42932, Note_on_c, 0, 79, 0
1, 42960, Note_on_c, 0, 79, 86
1, 42980, Note_on_c, 0, 79, 0
1, 43008, Note_on_c, 0, 81, 86
1, 43008, Note_on_c, 1, 48, 86
1, 43008, Note_on_c, 1, 40, 86
1, 43008, Note_on_c, 1, 36, 86
1, 43031, Note_on_c, 0, 81, 0
1, 43032, Note_on_c, 0, 79, 86
1, 43055, Note_on_c, 0, 79, 0
1, 43056, Note_on_c, 0, 77, 86
1, 43079, Note_on_c, 0, 77, 0
1, 43080, Note_on_c, 0, 76, 86
1, 43097, Note_on_c, 1, 48, 0
1, 43097, Note_on_c, 1, 40, 0
1, 43097, Note_on_c, 1, 36, 0
1, 43103, Note_on_c, 0, 76, 0
1, 43104, Note_on_c, 0, 76, 86
1, 43104, Note_on_c, 1, 50, 86
1, 43104, Note_on_c, 1, 41, 86
1, 43104, Note_on_c, 1, 38, 86
1, 43127, Note_on_c, 0, 76, 0
1, 43128, Note_on_c, 0, 74, 86
1, 43151, Note_on_c, 0, 74, 0
1, 43152, Note_on_c, 0, 72, 86
1, 43175, Note_on_c, 0, 72, 0
1, 43176, Note_on_c, 0, 71, 86
1, 43193, Note_on_c, 1, 50, 0
1, 43193, Note_on_c, 1, 41, 0
1, 43193, Note_on_c, 1, 38, 0
1, 43199, Note_on_c, 0, 71, 0
1, 43200, Note_on_c, 0, 72, 86
1, 43200, Note_on_c, 1, 52, 86
1, 43200, Note_on_c, 1, 43, 86
1, 43200, Note_on_c, 1, 40, 86
1, 43248, Note_on_c, 0, 72, 0
1, 43248, Note_on_c, 0, 67, 86
1, 43289, Note_on_c, 1, 52, 0
1, 43289, Note_on_c, 1, 43, 0
1, 43289, Note_on_c, 1, 40, 0
1, 43293, Note_on_c, 0, 67, 0
1, 43296, Note_on_c, 0, 84, 86
1, 43296, Note_on_c, 1, 52, 86
1, 43296, Note_on_c, 1, 43, 86
1, 43296, Note_on_c, 1, 40, 86
1, 43316, Note_on_c, 0, 84, 0
1, 43341, Note_on_c, 1, 52, 0
1, 43341, Note_on_c, 1, 43, 0
1, 43341, Note_on_c, 1, 40, 0
1, 43344, Note_on_c, 0, 84, 86
1, 43344, Note_on_c, 1, 53, 86
1, 43344, Note_on_c, 1, 45, 86
1, 43344, Note_on_c, 1, 41, 86
1, 43364, Note_on_c, 0, 84, 0
1, 43389, Note_on_c, 1, 53, 0
1, 43389, Note_on_c, 1, 45, 0
1, 43389, Note_on_c, 1, 41, 0
1, 43392, Note_on_c, 0, 84, 86
1, 43392, Note_on_c, 1, 55, 86
1, 43392, Note_on_c, 1, 47, 86
1, 43392, Note_on_c, 1, 43, 86
1, 43415, Note_on_c, 0, 84, 0
1, 43416, Note_on_c, 0, 83, 86
1, 43439, Note_on_c, 0, 83, 0
1, 43440, Note_on_c, 0, 81, 86
1, 43463, Note_on_c, 0, 81, 0
1, 43464, Note_on_c, 0, 79, 86
1, 43481, Note_on_c, 1, 55, 0
1, 43481, Note_on_c, 1, 47, 0
1, 43481, Note_on_c, 1, 43, 0
1, 43487, Note_on_c, 0, 79, 0
1, 43488, Note_on_c, 0, 89, 86
1, 43488, Note_on_c, 1, 57, 86
1, 43488, Note_on_c, 1, 48, 86
1, 43488, Note_on_c, 1, 45, 86
1, 43508, Note_on_c, 0, 89, 0
1, 43533, Note_on_c, 1, 57, 0
1, 43533, Note_on_c, 1, 48, 0
1, 43533, Note_on_c, 1, 45, 0
1, 43536, Note_on_c, 0, 89, 86
1, 43536, Note_on_c, 1, 59, 86
1, 43536, Note_on_c, 1, 50, 86
1, 43536, Note_on_c, 1, 47, 86
1, 43556, Note_on_c, 0, 89, 0
1, 43581, Note_on_c, 1, 59, 0
1, 43581, Note_on_c, 1, 50, 0
1, 43581, Note_on_c, 1, 47, 0
1, 43584, Note_on_c, 0, 89, 86
1, 43584, Note_on_c, 1, 60, 86
1, 43584, Note_on_c, 1, 52, 86
1, 43584, Note_on_c, 1, 48, 86
1, 43607, Note_on_c, 0, 89, 0
1, 43608, Note_on_c, 0, 88, 86
1, 43631, Note_on_c, 0, 88, 0
1, 43632, Note_on_c, 0, 86, 86
1, 43655, Note_on_c, 0, 86, 0
1, 43656, Note_on_c, 0, 84, 86
1, 43673, Note_on_c, 1, 60, 0
1, 43673, Note_on_c, 1, 52, 0
1, 43673, Note_on_c, 1, 48, 0
1, 43679, Note_on_c, 0, 84, 0
1, 43680, Note_on_c, 0, 88, 75
1, 43680, Note_on_c, 1, 72, 75
1, 43703, Note_on_c, 0, 88, 0
1, 43704, Note_on_c, 0, 84, 75
1, 43725, Note_on_c, 1, 72, 0
1, 43727, Note_on_c, 0, 84, 0
1, 43728, Note_on_c, 0, 83, 75
1, 43728, Note_on_c, 1, 76, 75
1, 43751, Note_on_c, 0, 83, 0
1, 43752, Note_on_c, 0, 81, 75
1, 43773, Note_on_c, 1, 76, 0
1, 43775, Note_on_c, 0, 81, 0
1, 43776, Note_on_c, 0, 81, 75
1, 43776, Note_on_c, 1, 71, 75
1, 43799, Note_on_c, 0, 81, 0
1, 43800, Note_on_c, 0, 79, 75
1, 43821, Note_on_c, 1, 71, 0
1, 43823, Note_on_c, 0, 79, 0
1, 43824, Note_on_c, 0, 78, 75
1, 43824, Note_on_c, 1, 74, 75
1, 43847, Note_on_c, 0, 78, 0
1, 43848, Note_on_c, 0, 79, 75
1, 43869, Note_on_c, 1, 74, 0
1, 43871, Note_on_c, 0, 79, 0
1, 43872, Note_on_c, 0, 84, 75
1, 43872, Note_on_c, 1, 69, 75
1, 43895, Note_on_c, 0, 84, 0
1, 43896, Note_on_c, 0, 81, 75
1, 43917, Note_on_c, 1, 69, 0
1, 43919, Note_on_c, 0, 81, 0
1, 43920, Note_on_c, 0, 79, 75
1, 43920, Note_on_c, 1, 72, 75
1, 43943, Note_on_c, 0, 79, 0
1, 43944, Note_on_c, 0, 77, 75
1, 43965, Note_on_c, 1, 72, 0
1, 43967, Note_on_c, 0, 77, 0
1, 43968, Note_on_c, 0, 77, 75
1, 43968, Note_on_c, 1, 67, 75
1, 43991, Note_on_c, 0, 77, 0
1, 43992, Note_on_c, 0, 76, 75
1, 44013, Note_on_c, 1, 67, 0
1, 44015, Note_on_c, 0, 76, 0
1, 44016, Note_on_c, 0, 75, 75
1, 44016, Note_on_c, 1, 71, 75
1, 44039, Note_on_c, 0, 75, 0
1, 44040, Note_on_c, 0, 76, 75
1, 44061, Note_on_c, 1, 71, 0
1, 44063, Note_on_c, 0, 76, 0
1, 44064, Note_on_c, 0, 81, 75
1, 44064, Note_on_c, 1, 65, 75
1, 44087, Note_on_c, 0, 81, 0
1, 44088, Note_on_c, 0, 77, 75
1, 44109, Note_on_c, 1, 65, 0
1, 44111, Note_on_c, 0, 77, 0
1, 44112, Note_on_c, 0, 76, 75
1, 44112, Note_on_c, 1, 69, 75
1, 44135, Note_on_c, 0, 76, 0
1, 44136, Note_on_c, 0, 74, 75
1, 44157, Note_on_c, 1, 69, 0
1, 44159, Note_on_c, 0, 74, 0
1, 44160, Note_on_c, 0, 74, 75
1, 44160, Note_on_c, 1, 64, 75
1, 44183, Note_on_c, 0, 74, 0
1, 44184, Note_on_c, 0, 72, 75
1, 44205, Note_on_c, 1, 64, 0
1, 44207, Note_on_c, 0, 72, 0
1, 44208, Note_on_c, 0, 71, 75
1, 44208, Note_on_c, 1, 67, 75
1, 44231, Note_on_c, 0, 71, 0
1, 44232, Note_on_c, 0, 72, 75
1, 44253, Note_on_c, 1, 67, 0
1, 44255, Note_on_c, 0, 72, 0
1, 44256, Note_on_c, 0, 79, 75
1, 44256, Note_on_c, 1, 52, 75
1, 44279, Note_on_c, 0, 79, 0
1, 44280, Note_on_c, 0, 76, 75
1, 44301, Note_on_c, 1, 52, 0
1, 44303, Note_on_c, 0, 76, 0
1, 44304, Note_on_c, 0, 74, 75
1, 44304, Note_on_c, 1, 55, 75
1, 44327, Note_on_c, 0, 74, 0
1, 44328, Note_on_c, 0, 72, 75
1, 44349, Note_on_c, 1, 55, 0
1, 44351, Note_on_c, 0, 72, 0
1, 44352, Note_on_c, 0, 72, 75
1, 44352, Note_on_c, 1, 53, 75
1, 44375, Note_on_c, 0, 72, 0
1, 44376, Note_on_c, 0, 71, 75
1, 44397, Note_on_c, 1, 53, 0
1, 44399, Note_on_c, 0, 71, 0
1, 44400, Note_on_c, 0, 69, 75
1, 44400, Note_on_c, 1, 55, 75
1, 44423, Note_on_c, 0, 69, 0
1, 44424, Note_on_c, 0, 67, 75
1, 44445, Note_on_c, 1, 55, 0
1, 44447, Note_on_c, 0, 67, 0
1, 44448, Note_on_c, 0, 79, 75
1, 44448, Note_on_c, 1, 52, 75
1, 44471, Note_on_c, 0, 79, 0
1, 44472, Note_on_c, 0, 76, 75
1, 44493, Note_on_c, 1, 52, 0
1, 44495, Note_on_c, 0, 76, 0
1, 44496, Note_on_c, 0, 74, 75
1, 44496, Note_on_c, 1, 55, 75
1, 44519, Note_on_c, 0, 74, 0
1, 44520, Note_on_c, 0, 72, 75
1, 44541, Note_on_c, 1, 55, 0
1, 44543, Note_on_c, 0, 72, 0
1, 44544, Note_on_c, 0, 72, 75
1, 44544, Note_on_c, 1, 53, 75
1, 44567, Note_on_c, 0, 72, 0
1, 44568, Note_on_c, 0, 71, 72
1, 44589, Note_on_c, 1, 53, 0
1, 44591, Note_on_c, 0, 71, 0
1, 44592, Note_on_c, 0, 69, 70
1, 44592, Note_on_c, 1, 55, 71
1, 44615, Note_on_c, 0, 69, 0
1, 44616, Note_on_c, 0, 67, 68
1, 44637, Note_on_c, 1, 55, 0
1, 44639, Note_on_c, 0, 67, 0
1, 44640, Note_on_c, 0, 79, 66
1, 44640, Note_on_c, 1, 52, 67
1, 44663, Note_on_c, 0, 79, 0
1, 44664, Note_on_c, 0, 76, 64
1, 44685, Note_on_c, 1, 52, 0
1, 44687, Note_on_c, 0, 76, 0
1, 44688, Note_on_c, 0, 74, 64
1, 44688, Note_on_c, 1, 55, 64
1, 44711, Note_on_c, 0, 74, 0
1, 44712, Note_on_c, 0, 72, 64
1, 44733, Note_on_c, 1, 55, 0
1, 44735, Note_on_c, 0, 72, 0
1, 44736, Note_on_c, 0, 72, 64
1, 44736, Note_on_c, 1, 53, 64
1, 44759, Note_on_c, 0, 72, 0
1, 44760, Note_on_c, 0, 71, 64
1, 44781, Note_on_c, 1, 53, 0
1, 44783, Note_on_c, 0, 71, 0
1, 44784, Note_on_c, 0, 69, 64
1, 44784, Note_on_c, 1, 55, 64
1, 44807, Note_on_c, 0, 69, 0
1, 44808, Note_on_c, 0, 67, 64
1, 44829, Note_on_c, 1, 55, 0
1, 44831, Note_on_c, 0, 67, 0
1, 44832, Note_on_c, 0, 79, 64
1, 44832, Note_on_c, 1, 52, 64
1, 44855, Note_on_c, 0, 79, 0
1, 44856, Note_on_c, 0, 76, 64
1, 44877, Note_on_c, 1, 52, 0
1, 44879, Note_on_c, 0, 76, 0
1, 44880, Note_on_c, 0, 74, 64
1, 44880, Note_on_c, 1, 55, 64
1, 44903, Note_on_c, 0, 74, 0
1, 44904, Note_on_c, 0, 72, 64
1, 44925, Note_on_c, 1, 55, 0
1, 44927, Note_on_c, 0, 72, 0
1, 44928, Note_on_c, 0, 72, 64
1, 44928, Note_on_c, 1, 53, 64
1, 44951, Note_on_c, 0, 72, 0
1, 44952, Note_on_c, 0, 71, 67
1, 44973, Note_on_c, 1, 53, 0
1, 44975, Note_on_c, 0, 71, 0
1, 44976, Note_on_c, 0, 69, 70
1, 44976, Note_on_c, 1, 55, 69
1, 44999, Note_on_c, 0, 69, 0
1, 45000, Note_on_c, 0, 67, 73
1, 45021, Note_on_c, 1, 55, 0
1, 45023, Note_on_c, 0, 67, 0
1, 45024, Note_on_c, 0, 79, 76
1, 45024, Note_on_c, 1, 52, 74
1, 45047, Note_on_c, 0, 79, 0
1, 45048, Note_on_c, 0, 76, 80
1, 45069, Note_on_c, 1, 52, 0
1, 45071, Note_on_c, 0, 76, 0
1, 45072, Note_on_c, 0, 74, 80
1, 45072, Note_on_c, 1, 60, 80
1, 45095, Note_on_c, 0, 74, 0
1, 45096, Note_on_c, 0, 72, 80
1, 45117, Note_on_c, 1, 60, 0
1, 45119, Note_on_c, 0, 72, 0
1, 45120, Note_on_c, 0, 71, 80
1, 45120, Note_on_c, 1, 53, 80
1, 45143, Note_on_c, 0, 71, 0
1, 45144, Note_on_c, 0, 69, 80
1, 45165, Note_on_c, 1, 53, 0
1, 45167, Note_on_c, 0, 69, 0
1, 45168, Note_on_c, 0, 68, 80
1, 45168, Note_on_c, 1, 60, 80
1, 45191, Note_on_c, 0, 68, 0
1, 45192, Note_on_c, 0, 69, 80
1, 45213, Note_on_c, 1, 60, 0
1, 45215, Note_on_c, 0, 69, 0
1, 45216, Note_on_c, 0, 77, 80
1, 45216, Note_on_c, 1, 50, 80
1, 45239, Note_on_c, 0, 77, 0
1, 45240, Note_on_c, 0, 74, 80
1, 45261, Note_on_c, 1, 50, 0
1, 45263, Note_on_c, 0, 74, 0
1, 45264, Note_on_c, 0, 72, 80
1, 45264, Note_on_c, 1, 59, 80
1, 45287, Note_on_c, 0, 72, 0
1, 45288, Note_on_c, 0, 71, 80
1, 45309, Note_on_c, 1, 59, 0
1, 45311, Note_on_c, 0, 71, 0
1, 45312, Note_on_c, 0, 69, 80
1, 45312, Note_on_c, 1, 52, 80
1, 45335, Note_on_c, 0, 69, 0
1, 45336, Note_on_c, 0, 67, 80
1, 45357, Note_on_c, 1, 52, 0
1, 45359, Note_on_c, 0, 67, 0
1, 45360, Note_on_c, 0, 66, 80
1, 45360, Note_on_c, 1, 59, 80
1, 45383, Note_on_c, 0, 66, 0
1, 45384, Note_on_c, 0, 67, 80
1, 45405, Note_on_c, 1, 59, 0
1, 45407, Note_on_c, 0, 67, 0
1, 45408, Note_on_c, 0, 76, 80
1, 45408, Note_on_c, 1, 48, 80
1, 45431, Note_on_c, 0, 76, 0
1, 45432, Note_on_c, 0, 72, 80
1, 45453, Note_on_c, 1, 48, 0
1, 45455, Note_on_c, 0, 72, 0
1, 45456, Note_on_c, 0, 71, 80
1, 45456, Note_on_c, 1, 57, 80
1, 45479, Note_on_c, 0, 71, 0
1, 45480, Note_on_c, 0, 69, 80
1, 45501, Note_on_c, 1, 57, 0
1, 45503, Note_on_c, 0, 69, 0
1, 45504, Note_on_c, 0, 67, 80
1, 45504, Note_on_c, 1, 50, 80
1, 45527, Note_on_c, 0, 67, 0
1, 45528, Note_on_c, 0, 65, 80
1, 45549, Note_on_c, 1, 50, 0
1, 45551, Note_on_c, 0, 65, 0
1, 45552, Note_on_c, 0, 64, 80
1, 45552, Note_on_c, 1, 57, 80
1, 45575, Note_on_c, 0, 64, 0
1, 45576, Note_on_c, 0, 65, 80
1, 45597, Note_on_c, 1, 57, 0
1, 45599, Note_on_c, 0, 65, 0
1, 45600, Note_on_c, 0, 74, 80
1, 45600, Note_on_c, 1, 47, 80
1, 45623, Note_on_c, 0, 74, 0
1, 45624, Note_on_c, 0, 65, 80
1, 45645, Note_on_c, 1, 47, 0
1, 45647, Note_on_c, 0, 65, 0
1, 45648, Note_on_c, 0, 74, 80
1, 45648, Note_on_c, 1, 55, 80
1, 45671, Note_on_c, 0, 74, 0
1, 45672, Note_on_c, 0, 65, 80
1, 45693, Note_on_c, 1, 55, 0
1, 45695, Note_on_c, 0, 65, 0
1, 45696, Note_on_c, 0, 64, 80
1, 45696, Note_on_c, 1, 48, 80
1, 45716, Note_on_c, 0, 64, 0
1, 45741, Note_on_c, 1, 48, 0
1, 45744, Note_on_c, 0, 64, 80
1, 45744, Note_on_c, 1, 55, 80
1, 45764, Note_on_c, 0, 64, 0
1, 45789, Note_on_c, 1, 55, 0
1, 45792, Note_on_c, 0, 67, 80
1, 45792, Note_on_c, 1, 45, 80
1, 45815, Note_on_c, 0, 67, 0
1, 45816, Note_on_c, 0, 66, 80
1, 45837, Note_on_c, 1, 45, 0
1, 45839, Note_on_c, 0, 66, 0
1, 45840, Note_on_c, 0, 64, 80
1, 45840, Note_on_c, 1, 48, 80
1, 45863, Note_on_c, 0, 64, 0
1, 45864, Note_on_c, 0, 66, 80
1, 45885, Note_on_c, 1, 48, 0
1, 45887, Note_on_c, 0, 66, 0
1, 45888, Note_on_c, 0, 67, 80
1, 45888, Note_on_c, 1, 43, 75
1, 45908, Note_on_c, 0, 67, 0
1, 45936, Note_on_c, 0, 67, 75
1, 45936, Note_on_c, 1, 47, 75
1, 45984, Note_on_c, 0, 67, 0
1, 45984, Note_on_c, 0, 68, 75
1, 45984, Note_on_c, 1, 47, 0
1, 45984, Note_on_c, 1, 52, 75
1, 46004, Note_on_c, 0, 68, 0
1, 46004, Note_on_c, 1, 52, 0
1, 46032, Note_on_c, 0, 68, 75
1, 46032, Note_on_c, 1, 52, 75
1, 46080, Note_on_c, 0, 68, 0
1, 46080, Note_on_c, 0, 69, 75
1, 46080, Note_on_c, 1, 52, 0
1, 46080, Note_on_c, 1, 53, 75
1, 46100, Note_on_c, 0, 69, 0
1, 46100, Note_on_c, 1, 53, 0
1, 46128, Note_on_c, 0, 69, 75
1, 46128, Note_on_c, 1, 53, 75
1, 46148, Note_on_c, 0, 69, 0
1, 46176, Note_on_c, 0, 67, 75
1, 46176, Note_on_c, 1, 53, 0
1, 46176, Note_on_c, 1, 50, 75
1, 46196, Note_on_c, 1, 50, 0
1, 46199, Note_on_c, 0, 67, 0
1, 46200, Note_on_c, 0, 65, 75
1, 46223, Note_on_c, 0, 65, 0
1, 46224, Note_on_c, 0, 64, 75
1, 46224, Note_on_c, 1, 50, 75
1, 46247, Note_on_c, 0, 64, 0
1, 46248, Note_on_c, 0, 65, 75
1, 46257, Note_on_c, 1, 43, 0
1, 46269, Note_on_c, 1, 50, 0
1, 46271, Note_on_c, 0, 65, 0
1, 46272, Note_on_c, 0, 62, 75
1, 46272, Note_on_c, 1, 47, 75
1, 46272, Note_on_c, 1, 43, 75
1, 46292, Note_on_c, 0, 62, 0
1, 46317, Note_on_c, 1, 47, 0
1, 46320, Note_on_c, 0, 62, 75
1, 46320, Note_on_c, 1, 47, 75
1, 46368, Note_on_c, 0, 62, 0
1, 46368, Note_on_c, 0, 68, 75
1, 46368, Note_on_c, 1, 47, 0
1, 46368, Note_on_c, 1, 52, 75
1, 46388, Note_on_c, 0, 68, 0
1, 46413, Note_on_c, 1, 52, 0
1, 46416, Note_on_c, 0, 68, 75
1, 46416, Note_on_c, 1, 52, 75
1, 46464, Note_on_c, 0, 68, 0
1, 46464, Note_on_c, 0, 71, 75
1, 46464, Note_on_c, 1, 52, 0
1, 46464, Note_on_c, 1, 53, 75
1, 46487, Note_on_c, 0, 71, 0
1, 46488, Note_on_c, 0, 69, 75
1, 46509, Note_on_c, 1, 53, 0
1, 46511, Note_on_c, 0, 69, 0
1, 46512, Note_on_c, 0, 68, 75
1, 46512, Note_on_c, 1, 53, 75
1, 46535, Note_on_c, 0, 68, 0
1, 46536, Note_on_c, 0, 69, 75
1, 46559, Note_on_c, 0, 69, 0
1, 46560, Note_on_c, 0, 65, 75
1, 46560, Note_on_c, 1, 53, 0
1, 46560, Note_on_c, 1, 50, 75
1, 46580, Note_on_c, 0, 65, 0
1, 46605, Note_on_c, 1, 50, 0
1, 46608, Note_on_c, 0, 65, 75
1, 46608, Note_on_c, 1, 50, 75
1, 46628, Note_on_c, 0, 65, 0
1, 46641, Note_on_c, 1, 43, 0
1, 46653, Note_on_c, 1, 50, 0
1, 46656, Note_on_c, 0, 62, 75
1, 46656, Note_on_c, 1, 47, 75
1, 46656, Note_on_c, 1, 43, 75
1, 46676, Note_on_c, 0, 62, 0
1, 46701, Note_on_c, 1, 47, 0
1, 46704, Note_on_c, 0, 62, 75
1, 46704, Note_on_c, 1, 47, 75
1, 46752, Note_on_c, 0, 62, 0
1, 46752, Note_on_c, 0, 68, 75
1, 46752, Note_on_c, 1, 47, 0
1, 46752, Note_on_c, 1, 52, 75
1, 46772, Note_on_c, 0, 68, 0
1, 46772, Note_on_c, 1, 52, 0
1, 46800, Note_on_c, 0, 68, 75
1, 46800, Note_on_c, 1, 52, 75
1, 46848, Note_on_c, 0, 68, 0
1, 46848, Note_on_c, 0, 69, 75
1, 46848, Note_on_c, 1, 52, 0
1, 46848, Note_on_c, 1, 53, 75
1, 46868, Note_on_c, 0, 69, 0
1, 46868, Note_on_c, 1, 53, 0
1, 46896, Note_on_c, 0, 69, 75
1, 46896, Note_on_c, 1, 53, 75
1, 46944, Note_on_c, 0, 69, 0
1, 46944, Note_on_c, 0, 73, 75
1, 46944, Note_on_c, 1, 53, 0
1, 46944, Note_on_c, 1, 52, 75
1, 46964, Note_on_c, 0, 73, 0
1, 46964, Note_on_c, 1, 52, 0
1, 46992, Note_on_c, 0, 73, 75
1, 46992, Note_on_c, 1, 52, 75
1, 47040, Note_on_c, 0, 73, 0
1, 47040, Note_on_c, 0, 74, 75
1, 47040, Note_on_c, 1, 52, 0
1, 47040, Note_on_c, 1, 53, 75
1, 47060, Note_on_c, 0, 74, 0
1, 47060, Note_on_c, 1, 53, 0
1, 47088, Note_on_c, 0, 74, 75
1, 47088, Note_on_c, 1, 53, 75
1, 47136, Note_on_c, 0, 74, 0
1, 47136, Note_on_c, 0, 73, 75
1, 47136, Note_on_c, 1, 53, 0
1, 47136, Note_on_c, 1, 52, 75
1, 47156, Note_on_c, 0, 73, 0
1, 47156, Note_on_c, 1, 52, 0
1, 47184, Note_on_c, 0, 73, 75
1, 47184, Note_on_c, 1, 52, 75
1, 47232, Note_on_c, 0, 73, 0
1, 47232, Note_on_c, 0, 74, 75
1, 47232, Note_on_c, 1, 52, 0
1, 47232, Note_on_c, 1, 53, 75
1, 47252, Note_on_c, 0, 74, 0
1, 47252, Note_on_c, 1, 53, 0
1, 47280, Note_on_c, 0, 74, 75
1, 47280, Note_on_c, 1, 53, 75
1, 47321, Note_on_c, 1, 43, 0
1, 47325, Note_on_c, 0, 74, 0
1, 47325, Note_on_c, 1, 53, 0
1, 47520, Note_on_c, 0, 76, 64
1, 47520, Note_on_c, 0, 73, 64
1, 47540, Note_on_c, 0, 76, 0
1, 47540, Note_on_c, 0, 73, 0
1, 47568, Note_on_c, 0, 76, 64
1, 47568, Note_on_c, 0, 73, 64
1, 47616, Note_on_c, 0, 76, 0
1, 47616, Note_on_c, 0, 73, 0
1, 47616, Note_on_c, 0, 77, 64
1, 47616, Note_on_c, 0, 74, 64
1, 47636, Note_on_c, 0, 77, 0
1, 47636, Note_on_c, 0, 74, 0
1, 47664, Note_on_c, 0, 77, 64
1, 47664, Note_on_c, 0, 74, 64
1, 47684, Note_on_c, 0, 77, 0
1, 47684, Note_on_c, 0, 74, 0
1, 47904, Note_on_c, 0, 77, 58
1, 47904, Note_on_c, 0, 74, 58
1, 47924, Note_on_c, 0, 77, 0
1, 47924, Note_on_c, 0, 74, 0
1, 47952, Note_on_c, 0, 77, 58
1, 47952, Note_on_c, 0, 74, 58
1, 48000, Note_on_c, 0, 77, 0
1, 48000, Note_on_c, 0, 74, 0
1, 48000, Note_on_c, 0, 78, 58
1, 48000, Note_on_c, 0, 75, 58
1, 48020, Note_on_c, 0, 78, 0
1, 48020, Note_on_c, 0, 75, 0
1, 48048, Note_on_c, 0, 78, 58
1, 48048, Note_on_c, 0, 75, 58
1, 48068, Note_on_c, 0, 78, 0
1, 48068, Note_on_c, 0, 75, 0
1, 48288, Note_on_c, 0, 79, 80
1, 48288, Note_on_c, 0, 76, 80
1, 48288, Note_on_c, 1, 60, 80
1, 48288, Note_on_c, 1, 55, 80
1, 48288, Note_on_c, 1, 52, 80
1, 48288, Note_on_c, 1, 48, 80
1, 48308, Note_on_c, 0, 79, 0
1, 48308, Note_on_c, 0, 76, 0
1, 48333, Note_on_c, 1, 60, 0
1, 48333, Note_on_c, 1, 55, 0
1, 48333, Note_on_c, 1, 52, 0
1, 48333, Note_on_c, 1, 48, 0
1, 48336, Note_on_c, 0, 79, 80
1, 48336, Note_on_c, 0, 76, 80
1, 48336, Note_on_c, 1, 60, 80
1, 48336, Note_on_c, 1, 55, 80
1, 48336, Note_on_c, 1, 52, 80
1, 48336, Note_on_c, 1, 48, 80
1, 48356, Note_on_c, 0, 79, 0
1, 48356, Note_on_c, 0, 76, 0
1, 48381, Note_on_c, 1, 60, 0
1, 48381, Note_on_c, 1, 55, 0
1, 48381, Note_on_c, 1, 52, 0
1, 48381, Note_on_c, 1, 48, 0
1, 48384, Note_on_c, 0, 81, 80
1, 48384, Note_on_c, 1, 60, 80
1, 48384, Note_on_c, 1, 55, 80
1, 48384, Note_on_c, 1, 52, 80
1, 48384, Note_on_c, 1, 48, 80
1, 48407, Note_on_c, 0, 81, 0
1, 48408, Note_on_c, 0, 79, 80
1, 48431, Note_on_c, 0, 79, 0
1, 48432, Note_on_c, 0, 77, 80
1, 48455, Note_on_c, 0, 77, 0
1, 48456, Note_on_c, 0, 76, 80
1, 48473, Note_on_c, 1, 60, 0
1, 48473, Note_on_c, 1, 55, 0
1, 48473, Note_on_c, 1, 52, 0
1, 48473, Note_on_c, 1, 48, 0
1, 48479, Note_on_c, 0, 76, 0
1, 48480, Note_on_c, 0, 76, 80
1, 48480, Note_on_c, 1, 65, 80
1, 48480, Note_on_c, 1, 55, 80
1, 48503, Note_on_c, 0, 76, 0
1, 48504, Note_on_c, 0, 74, 80
1, 48527, Note_on_c, 0, 74, 0
1, 48528, Note_on_c, 0, 72, 80
1, 48551, Note_on_c, 0, 72, 0
1, 48552, Note_on_c, 0, 71, 80
1, 48569, Note_on_c, 1, 65, 0
1, 48569, Note_on_c, 1, 55, 0
1, 48575, Note_on_c, 0, 71, 0
1, 48576, Note_on_c, 0, 72, 80
1, 48576, Note_on_c, 1, 64, 80
1, 48576, Note_on_c, 1, 60, 80
1, 48624, Note_on_c, 0, 72, 0
1, 48624, Note_on_c, 0, 67, 80
1, 48665, Note_on_c, 1, 64, 0
1, 48665, Note_on_c, 1, 60, 0
1, 48669, Note_on_c, 0, 67, 0
1, 48672, Note_on_c, 0, 72, 75
1, 48692, Note_on_c, 0, 72, 0
1, 48720, Note_on_c, 0, 73, 75
1, 48740, Note_on_c, 0, 73, 0
1, 48768, Note_on_c, 0, 74, 75
1, 48768, Note_on_c, 1, 59, 75
1, 48816, Note_on_c, 0, 74, 0
1, 48816, Note_on_c, 0, 67, 75
1, 48857, Note_on_c, 1, 59, 0
1, 48861, Note_on_c, 0, 67, 0
1, 48864, Note_on_c, 0, 74, 75
1, 48884, Note_on_c, 0, 74, 0
1, 48912, Note_on_c, 0, 75, 75
1, 48932, Note_on_c, 0, 75, 0
1, 48960, Note_on_c, 0, 76, 75
1, 48960, Note_on_c, 1, 60, 75
1, 49008, Note_on_c, 0, 76, 0
1, 49008, Note_on_c, 0, 72, 75
1, 49049, Note_on_c, 1, 60, 0
1, 49053, Note_on_c, 0, 72, 0
1, 49056, Note_on_c, 0, 76, 75
1, 49056, Note_on_c, 1, 60, 75
1, 49076, Note_on_c, 0, 76, 0
1, 49104, Note_on_c, 0, 76, 75
1, 49104, Note_on_c, 1, 60, 0
1, 49104, Note_on_c, 1, 59, 75
1, 49124, Note_on_c, 0, 76, 0
1, 49149, Note_on_c, 1, 59, 0
1, 49152, Note_on_c, 0, 79, 75
1, 49152, Note_on_c, 1, 58, 75
1, 49200, Note_on_c, 0, 79, 0
1, 49200, Note_on_c, 0, 77, 75
1, 49200, Note_on_c, 1, 58, 0
1, 49200, Note_on_c, 1, 57, 75
1, 49245, Note_on_c, 0, 77, 0
1, 49245, Note_on_c, 1, 57, 0
1, 49248, Note_on_c, 0, 78, 76
1, 49248, Note_on_c, 1, 62, 76
1, 49268, Note_on_c, 0, 78, 0
1, 49296, Note_on_c, 0, 78, 77
1, 49296, Note_on_c, 1, 62, 0
1, 49296, Note_on_c, 1, 61, 77
1, 49316, Note_on_c, 0, 78, 0
1, 49341, Note_on_c, 1, 61, 0
1, 49344, Note_on_c, 0, 81, 78
1, 49344, Note_on_c, 1, 60, 78
1, 49392, Note_on_c, 0, 81, 0
1, 49392, Note_on_c, 0, 79, 79
1, 49392, Note_on_c, 1, 60, 0
1, 49392, Note_on_c, 1, 59, 79
1, 49437, Note_on_c, 0, 79, 0
1, 49437, Note_on_c, 1, 59, 0
1, 49440, Note_on_c, 0, 89, 80
1, 49440, Note_on_c, 0, 77, 80
1, 49440, Note_on_c, 1, 60, 80
1, 49440, Note_on_c, 1, 57, 80
1, 49460, Note_on_c, 0, 89, 0
1, 49460, Note_on_c, 0, 77, 0
1, 49485, Note_on_c, 1, 60, 0
1, 49485, Note_on_c, 1, 57, 0
1, 49488, Note_on_c, 0, 88, 80
1, 49488, Note_on_c, 0, 76, 80
1, 49488, Note_on_c, 1, 59, 80
1, 49488, Note_on_c, 1, 55, 80
1, 49508, Note_on_c, 0, 88, 0
1, 49508, Note_on_c, 0, 76, 0
1, 49533, Note_on_c, 1, 59, 0
1, 49533, Note_on_c, 1, 55, 0
1, 49536, Note_on_c, 0, 86, 80
1, 49536, Note_on_c, 0, 74, 80
1, 49536, Note_on_c, 1, 57, 80
1, 49536, Note_on_c, 1, 53, 80
1, 49556, Note_on_c, 0, 86, 0
1, 49556, Note_on_c, 0, 74, 0
1, 49581, Note_on_c, 1, 57, 0
1, 49581, Note_on_c, 1, 53, 0
1, 49584, Note_on_c, 0, 84, 80
1, 49584, Note_on_c, 0, 72, 80
1, 49584, Note_on_c, 1, 55, 80
1, 49584, Note_on_c, 1, 52, 80
1, 49604, Note_on_c, 0, 84, 0
1, 49604, Note_on_c, 0, 72, 0
1, 49629, Note_on_c, 1, 55, 0
1, 49629, Note_on_c, 1, 52, 0
1, 49632, Note_on_c, 0, 83, 80
1, 49632, Note_on_c, 0, 71, 80
1, 49632, Note_on_c, 1, 53, 80
1, 49632, Note_on_c, 1, 50, 80
1, 49652, Note_on_c, 0, 83, 0
1, 49652, Note_on_c, 0, 71, 0
1, 49677, Note_on_c, 1, 53, 0
1, 49677, Note_on_c, 1, 50, 0
1, 49680, Note_on_c, 0, 84, 80
1, 49680, Note_on_c, 0, 72, 80
1, 49680, Note_on_c, 1, 55, 80
1, 49680, Note_on_c, 1, 52, 80
1, 49700, Note_on_c, 0, 84, 0
1, 49700, Note_on_c, 0, 72, 0
1, 49725, Note_on_c, 1, 55, 0
1, 49725, Note_on_c, 1, 52, 0
1, 49728, Note_on_c, 0, 86, 80
1, 49728, Note_on_c, 0, 74, 80
1, 49728, Note_on_c, 1, 57, 80
1, 49728, Note_on_c, 1, 53, 80
1, 49773, Note_on_c, 1, 57, 0
1, 49773, Note_on_c, 1, 53, 0
1, 49776, Note_on_c, 0, 86, 0
1, 49776, Note_on_c, 0, 74, 0
1, 49776, Note_on_c, 0, 84, 80
1, 49776, Note_on_c, 0, 72, 80
1, 49776, Note_on_c, 1, 55, 80
1, 49776, Note_on_c, 1, 52, 80
1, 49821, Note_on_c, 0, 84, 0
1, 49821, Note_on_c, 0, 72, 0
1, 49821, Note_on_c, 1, 55, 0
1, 49821, Note_on_c, 1, 52, 0
1, 49824, Note_on_c, 0, 81, 75
1, 49824, Note_on_c, 0, 77, 75
1, 49824, Note_on_c, 1, 53, 75
1, 49844, Note_on_c, 0, 81, 0
1, 49844, Note_on_c, 0, 77, 0
1, 49872, Note_on_c, 0, 81, 75
1, 49872, Note_on_c, 0, 77, 75
1, 49892, Note_on_c, 0, 81, 0
1, 49892, Note_on_c, 0, 77, 0
1, 49913, Note_on_c, 1, 53, 0
1, 49920, Note_on_c, 0, 81, 75
1, 49920, Note_on_c, 1, 55, 75
1, 49943, Note_on_c, 0, 81, 0
1, 49944, Note_on_c, 0, 79, 75
1, 49967, Note_on_c, 0, 79, 0
1, 49968, Note_on_c, 0, 77, 75
1, 49991, Note_on_c, 0, 77, 0
1, 49992, Note_on_c, 0, 76, 75
1, 50009, Note_on_c, 1, 55, 0
1, 50015, Note_on_c, 0, 76, 0
1, 50016, Note_on_c, 0, 76, 75
1, 50016, Note_on_c, 1, 43, 75
1, 50039, Note_on_c, 0, 76, 0
1, 50040, Note_on_c, 0, 74, 75
1, 50063, Note_on_c, 0, 74, 0
1, 50064, Note_on_c, 0, 72, 75
1, 50087, Note_on_c, 0, 72, 0
1, 50088, Note_on_c, 0, 71, 75
1, 50105, Note_on_c, 1, 43, 0
1, 50111, Note_on_c, 0, 71, 0
1, 50112, Note_on_c, 0, 72, 75
1, 50112, Note_on_c, 1, 48, 75
1, 50201, Note_on_c, 0, 72, 0
1, 50201, Note_on_c, 1, 48, 0
1, 50208, Note_on_c, 0, 67, 80
1, 50208, Note_on_c, 1, 55, 80
1, 50231, Note_on_c, 0, 67, 0
1, 50231, Note_on_c, 1, 55, 0
1, 50232, Note_on_c, 0, 65, 80
1, 50232, Note_on_c, 1, 53, 80
1, 50255, Note_on_c, 0, 65, 0
1, 50255, Note_on_c, 1, 53, 0
1, 50256, Note_on_c, 0, 64, 80
1, 50256, Note_on_c, 1, 52, 80
1, 50279, Note_on_c, 0, 64, 0
1, 50279, Note_on_c, 1, 52, 0
1, 50280, Note_on_c, 0, 62, 80
1, 50280, Note_on_c, 1, 50, 80
1, 50303, Note_on_c, 0, 62, 0
1, 50303, Note_on_c, 1, 50, 0
1, 50304, Note_on_c, 0, 60, 80
1, 50304, Note_on_c, 1, 48, 80
1, 50327, Note_on_c, 0, 60, 0
1, 50327, Note_on_c, 1, 48, 0
1, 50328, Note_on_c, 0, 64, 80
1, 50328, Note_on_c, 1, 52, 80
1, 50351, Note_on_c, 0, 64, 0
1, 50351, Note_on_c, 1, 52, 0
1, 50352, Note_on_c, 0, 67, 80
1, 50352, Note_on_c, 1, 55, 80
1, 50375, Note_on_c, 0, 67, 0
1, 50375, Note_on_c, 1, 55, 0
1, 50376, Note_on_c, 0, 72, 80
1, 50376, Note_on_c, 1, 60, 80
1, 50399, Note_on_c, 0, 72, 0
1, 50399, Note_on_c, 1, 60, 0
1, 50400, Note_on_c, 0, 71, 80
1, 50400, Note_on_c, 1, 59, 80
1, 50423, Note_on_c, 0, 71, 0
1, 50423, Note_on_c, 1, 59, 0
1, 50424, Note_on_c, 0, 74, 80
1, 50424, Note_on_c, 1, 62, 80
1, 50447, Note_on_c, 0, 74, 0
1, 50447, Note_on_c, 1, 62, 0
1, 50448, Note_on_c, 0, 71, 80
1, 50448, Note_on_c, 1, 59, 80
1, 50471, Note_on_c, 0, 71, 0
1, 50471, Note_on_c, 1, 59, 0
1, 50472, Note_on_c, 0, 67, 80
1, 50472, Note_on_c, 1, 55, 80
1, 50495, Note_on_c, 0, 67, 0
1, 50495, Note_on_c, 1, 55, 0
1, 50496, Note_on_c, 0, 72, 80
1, 50496, Note_on_c, 1, 60, 80
1, 50516, Note_on_c, 0, 72, 0
1, 50541, Note_on_c, 1, 60, 0
1, 50544, Note_on_c, 0, 72, 80
1, 50544, Note_on_c, 1, 60, 80
1, 50564, Note_on_c, 0, 72, 0
1, 50589, Note_on_c, 1, 60, 0
1, 50592, Note_on_c, 0, 67, 80
1, 50592, Note_on_c, 1, 55, 80
1, 50615, Note_on_c, 0, 67, 0
1, 50615, Note_on_c, 1, 55, 0
1, 50616, Note_on_c, 0, 65, 80
1, 50616, Note_on_c, 1, 53, 80
1, 50639, Note_on_c, 0, 65, 0
1, 50639, Note_on_c, 1, 53, 0
1, 50640, Note_on_c, 0, 64, 80
1, 50640, Note_on_c, 1, 52, 80
1, 50663, Note_on_c, 0, 64, 0
1, 50663, Note_on_c, 1, 52, 0
1, 50664, Note_on_c, 0, 62, 80
1, 50664, Note_on_c, 1, 50, 80
1, 50687, Note_on_c, 0, 62, 0
1, 50687, Note_on_c, 1, 50, 0
1, 50688, Note_on_c, 0, 60, 80
1, 50688, Note_on_c, 1, 48, 80
1, 50711, Note_on_c, 0, 60, 0
1, 50711, Note_on_c, 1, 48, 0
1, 50712, Note_on_c, 0, 64, 80
1, 50712, Note_on_c, 1, 52, 80
1, 50735, Note_on_c, 0, 64, 0
1, 50735, Note_on_c, 1, 52, 0
1, 50736, Note_on_c, 0, 67, 80
1, 50736, Note_on_c, 1, 55, 80
1, 50759, Note_on_c, 0, 67, 0
1, 50759, Note_on_c, 1, 55, 0
1, 50760, Note_on_c, 0, 72, 80
1, 50760, Note_on_c, 1, 60, 80
1, 50783, Note_on_c, 0, 72, 0
1, 50783, Note_on_c, 1, 60, 0
1, 50784, Note_on_c, 0, 71, 80
1, 50784, Note_on_c, 1, 59, 80
1, 50807, Note_on_c, 0, 71, 0
1, 50807, Note_on_c, 1, 59, 0
1, 50808, Note_on_c, 0, 74, 80
1, 50808, Note_on_c, 1, 62, 80
1, 50831, Note_on_c, 0, 74, 0
1, 50831, Note_on_c, 1, 62, 0
1, 50832, Note_on_c, 0, 71, 80
1, 50832, Note_on_c, 1, 59, 80
1, 50855, Note_on_c, 0, 71, 0
1, 50855, Note_on_c, 1, 59, 0
1, 50856, Note_on_c, 0, 67, 80
1, 50856, Note_on_c, 1, 55, 80
1, 50879, Note_on_c, 0, 67, 0
1, 50879, Note_on_c, 1, 55, 0
1, 50880, Note_on_c, 0, 76, 80
1, 50880, Note_on_c, 1, 64, 80
1, 50900, Note_on_c, 0, 76, 0
1, 50925, Note_on_c, 1, 64, 0
1, 50928, Note_on_c, 0, 76, 80
1, 50928, Note_on_c, 1, 64, 80
1, 50948, Note_on_c, 0, 76, 0
1, 50973, Note_on_c, 1, 64, 0
1, 50976, Note_on_c, 0, 74, 80
1, 50976, Note_on_c, 1, 62, 80
1, 50999, Note_on_c, 0, 74, 0
1, 50999, Note_on_c, 1, 62, 0
1, 51000, Note_on_c, 0, 77, 80
1, 51000, Note_on_c, 1, 65, 80
1, 51023, Note_on_c, 0, 77, 0
1, 51023, Note_on_c, 1, 65, 0
1, 51024, Note_on_c, 0, 74, 80
1, 51024, Note_on_c, 1, 62, 80
1, 51047, Note_on_c, 0, 74, 0
1, 51047, Note_on_c, 1, 62, 0
1, 51048, Note_on_c, 0, 71, 80
1, 51048, Note_on_c, 1, 59, 80
1, 51071, Note_on_c, 0, 71, 0
1, 51071, Note_on_c, 1, 59, 0
1, 51072, Note_on_c, 0, 79, 75
1, 51072, Note_on_c, 1, 67, 75
1, 51117, Note_on_c, 0, 79, 0
1, 51117, Note_on_c, 1, 67, 0
1, 51120, Note_on_c, 0, 79, 75
1, 51120, Note_on_c, 1, 67, 75
1, 51168, Note_on_c, 0, 79, 0
1, 51168, Note_on_c, 0, 80, 75
1, 51168, Note_on_c, 1, 67, 0
1, 51168, Note_on_c, 1, 68, 75
1, 51188, Note_on_c, 0, 80, 0
1, 51188, Note_on_c, 1, 68, 0
1, 51216, Note_on_c, 0, 80, 75
1, 51216, Note_on_c, 1, 68, 75
1, 51264, Note_on_c, 0, 80, 0
1, 51264, Note_on_c, 0, 81, 75
1, 51264, Note_on_c, 1, 68, 0
1, 51264, Note_on_c, 1, 69, 75
1, 51284, Note_on_c, 0, 81, 0
1, 51284, Note_on_c, 1, 69, 0
1, 51312, Note_on_c, 0, 81, 75
1, 51312, Note_on_c, 1, 69, 75
1, 51357, Note_on_c, 1, 69, 0
1, 51360, Note_on_c, 0, 81, 0
1, 51360, Note_on_c, 0, 85, 75
1, 51360, Note_on_c, 0, 73, 75
1, 51380, Note_on_c, 0, 85, 0
1, 51380, Note_on_c, 0, 73, 0
1, 51408, Note_on_c, 0, 85, 75
1, 51408, Note_on_c, 0, 73, 75
1, 51456, Note_on_c, 0, 85, 0
1, 51456, Note_on_c, 0, 73, 0
1, 51456, Note_on_c, 0, 86, 75
1, 51456, Note_on_c, 0, 74, 75
1, 51476, Note_on_c, 0, 86, 0
1, 51476, Note_on_c, 0, 74, 0
1, 51504, Note_on_c, 0, 86, 75
1, 51504, Note_on_c, 0, 74, 75
1, 51549, Note_on_c, 0, 86, 0
1, 51549, Note_on_c, 0, 74, 0
1, 51552, Note_on_c, 1, 52, 80
1, 51552, Note_on_c, 1, 40, 80
1, 51572, Note_on_c, 1, 52, 0
1, 51572, Note_on_c, 1, 40, 0
1, 51600, Note_on_c, 1, 52, 80
1, 51600, Note_on_c, 1, 40, 80
1, 51648, Note_on_c, 0, 68, 80
1, 51648, Note_on_c, 0, 56, 80
1, 51648, Note_on_c, 1, 52, 0
1, 51648, Note_on_c, 1, 40, 0
1, 51648, Note_on_c, 1, 53, 80
1, 51648, Note_on_c, 1, 41, 80
1, 51668, Note_on_c, 0, 68, 0
1, 51668, Note_on_c, 0, 56, 0
1, 51696, Note_on_c, 0, 68, 80
1, 51696, Note_on_c, 0, 56, 80
1, 51737, Note_on_c, 1, 53, 0
1, 51737, Note_on_c, 1, 41, 0
1, 51744, Note_on_c, 0, 68, 0
1, 51744, Note_on_c, 0, 56, 0
1, 51744, Note_on_c, 0, 69, 80
1, 51744, Note_on_c, 0, 57, 80
1, 51744, Note_on_c, 1, 54, 80
1, 51744, Note_on_c, 1, 42, 80
1, 51764, Note_on_c, 1, 54, 0
1, 51764, Note_on_c, 1, 42, 0
1, 51792, Note_on_c, 1, 54, 80
1, 51792, Note_on_c, 1, 42, 80
1, 51833, Note_on_c, 0, 69, 0
1, 51833, Note_on_c, 0, 57, 0
1, 51840, Note_on_c, 0, 70, 80
1, 51840, Note_on_c, 0, 58, 80
1, 51840, Note_on_c, 1, 54, 0
1, 51840, Note_on_c, 1, 42, 0
1, 51840, Note_on_c, 1, 55, 80
1, 51840, Note_on_c, 1, 43, 80
1, 51860, Note_on_c, 0, 70, 0
1, 51860, Note_on_c, 0, 58, 0
1, 51888, Note_on_c, 0, 70, 80
1, 51888, Note_on_c, 0, 58, 80
1, 51929, Note_on_c, 1, 55, 0
1, 51929, Note_on_c, 1, 43, 0
1, 51936, Note_on_c, 0, 70, 0
1, 51936, Note_on_c, 0, 58, 0
1, 51936, Note_on_c, 0, 71, 80
1, 51936, Note_on_c, 0, 59, 80
1, 51936, Note_on_c, 1, 56, 80
1, 51936, Note_on_c, 1, 44, 80
1, 51956, Note_on_c, 1, 56, 0
1, 51956, Note_on_c, 1, 44, 0
1, 51984, Note_on_c, 1, 56, 80
1, 51984, Note_on_c, 1, 44, 80
1, 52025, Note_on_c, 0, 71, 0
1, 52025, Note_on_c, 0, 59, 0
1, 52032, Note_on_c, 0, 72, 80
1, 52032, Note_on_c, 1, 56, 0
1, 52032, Note_on_c, 1, 44, 0
1, 52032, Note_on_c, 1, 57, 80
1, 52032, Note_on_c, 1, 45, 80
1, 52055, Note_on_c, 0, 72, 0
1, 52056, Note_on_c, 0, 69, 80
1, 52079, Note_on_c, 0, 69, 0
1, 52080, Note_on_c, 0, 65, 80
1, 52103, Note_on_c, 0, 65, 0
1, 52104, Note_on_c, 0, 60, 80
1, 52121, Note_on_c, 1, 57, 0
1, 52121, Note_on_c, 1, 45, 0
1, 52127, Note_on_c, 0, 60, 0
1, 52128, Note_on_c, 0, 74, 80
1, 52128, Note_on_c, 1, 59, 80
1, 52128, Note_on_c, 1, 47, 80
1, 52151, Note_on_c, 0, 74, 0
1, 52152, Note_on_c, 0, 71, 80
1, 52175, Note_on_c, 0, 71, 0
1, 52176, Note_on_c, 0, 67, 80
1, 52199, Note_on_c, 0, 67, 0
1, 52200, Note_on_c, 0, 62, 80
1, 52217, Note_on_c, 1, 59, 0
1, 52217, Note_on_c, 1, 47, 0
1, 52223, Note_on_c, 0, 62, 0
1, 52224, Note_on_c, 0, 76, 80
1, 52224, Note_on_c, 1, 60, 80
1, 52224, Note_on_c, 1, 48, 80
1, 52247, Note_on_c, 0, 76, 0
1, 52248, Note_on_c, 0, 72, 80
1, 52271, Note_on_c, 0, 72, 0
1, 52272, Note_on_c, 0, 67, 80
1, 52295, Note_on_c, 0, 67, 0
1, 52296, Note_on_c, 0, 64, 80
1, 52313, Note_on_c, 1, 60, 0
1, 52313, Note_on_c, 1, 48, 0
1, 52319, Note_on_c, 0, 64, 0
1, 52320, Note_on_c, 0, 77, 80
1, 52320, Note_on_c, 1, 62, 80
1, 52320, Note_on_c, 1, 50, 80
1, 52343, Note_on_c, 0, 77, 0
1, 52344, Note_on_c, 0, 74, 80
1, 52367, Note_on_c, 0, 74, 0
1, 52368, Note_on_c, 0, 71, 80
1, 52391, Note_on_c, 0, 71, 0
1, 52392, Note_on_c, 0, 65, 80
1, 52409, Note_on_c, 1, 62, 0
1, 52409, Note_on_c, 1, 50, 0
1, 52415, Note_on_c, 0, 65, 0
1, 52416, Note_on_c, 0, 79, 80
1, 52416, Note_on_c, 1, 64, 80
1, 52416, Note_on_c, 1, 60, 80
1, 52439, Note_on_c, 0, 79, 0
1, 52440, Note_on_c, 0, 76, 80
1, 52463, Note_on_c, 0, 76, 0
1, 52464, Note_on_c, 0, 72, 80
1, 52487, Note_on_c, 0, 72, 0
1, 52488, Note_on_c, 0, 67, 80
1, 52505, Note_on_c, 1, 64, 0
1, 52505, Note_on_c, 1, 60, 0
1, 52511, Note_on_c, 0, 67, 0
1, 52512, Note_on_c, 0, 79, 80
1, 52512, Note_on_c, 1, 62, 80
1, 52512, Note_on_c, 1, 59, 80
1, 52532, Note_on_c, 1, 62, 0
1, 52532, Note_on_c, 1, 59, 0
1, 52535, Note_on_c, 0, 79, 0
1, 52536, Note_on_c, 0, 77, 80
1, 52559, Note_on_c, 0, 77, 0
1, 52560, Note_on_c, 0, 74, 80
1, 52560, Note_on_c, 1, 62, 80
1, 52560, Note_on_c, 1, 59, 80
1, 52580, Note_on_c, 1, 62, 0
1, 52580, Note_on_c, 1, 59, 0
1, 52583, Note_on_c, 0, 74, 0
1, 52584, Note_on_c, 0, 67, 80
1, 52607, Note_on_c, 0, 67, 0
1, 52608, Note_on_c, 0, 79, 80
1, 52608, Note_on_c, 1, 64, 80
1, 52608, Note_on_c, 1, 60, 80
1, 52631, Note_on_c, 0, 79, 0
1, 52632, Note_on_c, 0, 76, 80
1, 52655, Note_on_c, 0, 76, 0
1, 52656, Note_on_c, 0, 72, 80
1, 52679, Note_on_c, 0, 72, 0
1, 52680, Note_on_c, 0, 67, 80
1, 52697, Note_on_c, 1, 64, 0
1, 52697, Note_on_c, 1, 60, 0
1, 52703, Note_on_c, 0, 67, 0
1, 52704, Note_on_c, 0, 79, 80
1, 52704, Note_on_c, 1, 65, 80
1, 52704, Note_on_c, 1, 62, 80
1, 52724, Note_on_c, 1, 65, 0
1, 52724, Note_on_c, 1, 62, 0
1, 52727, Note_on_c, 0, 79, 0
1, 52728, Note_on_c, 0, 74, 80
1, 52751, Note_on_c, 0, 74, 0
1, 52752, Note_on_c, 0, 71, 80
1, 52752, Note_on_c, 1, 65, 80
1, 52752, Note_on_c, 1, 62, 80
1, 52772, Note_on_c, 1, 65, 0
1, 52772, Note_on_c, 1, 62, 0
1, 52775, Note_on_c, 0, 71, 0
1, 52776, Note_on_c, 0, 67, 80
1, 52799, Note_on_c, 0, 67, 0
1, 52800, Note_on_c, 0, 79, 80
1, 52800, Note_on_c, 1, 64, 80
1, 52800, Note_on_c, 1, 60, 80
1, 52823, Note_on_c, 0, 79, 0
1, 52824, Note_on_c, 0, 76, 80
1, 52847, Note_on_c, 0, 76, 0
1, 52848, Note_on_c, 0, 72, 80
1, 52871, Note_on_c, 0, 72, 0
1, 52872, Note_on_c, 0, 67, 80
1, 52889, Note_on_c, 1, 64, 0
1, 52889, Note_on_c, 1, 60, 0
1, 52895, Note_on_c, 0, 67, 0
1, 52896, Note_on_c, 0, 79, 80
1, 52896, Note_on_c, 1, 62, 80
1, 52896, Note_on_c, 1, 59, 80
1, 52916, Note_on_c, 1, 62, 0
1, 52916, Note_on_c, 1, 59, 0
1, 52919, Note_on_c, 0, 79, 0
1, 52920, Note_on_c, 0, 77, 80
1, 52943, Note_on_c, 0, 77, 0
1, 52944, Note_on_c, 0, 74, 80
1, 52944, Note_on_c, 1, 62, 80
1, 52944, Note_on_c, 1, 59, 80
1, 52964, Note_on_c, 1, 62, 0
1, 52964, Note_on_c, 1, 59, 0
1, 52967, Note_on_c, 0, 74, 0
1, 52968, Note_on_c, 0, 67, 80
1, 52991, Note_on_c, 0, 67, 0
1, 52992, Note_on_c, 0, 79, 80
1, 52992, Note_on_c, 1, 64, 80
1, 52992, Note_on_c, 1, 60, 80
1, 53015, Note_on_c, 0, 79, 0
1, 53016, Note_on_c, 0, 76, 80
1, 53039, Note_on_c, 0, 76, 0
1, 53040, Note_on_c, 0, 72, 80
1, 53063, Note_on_c, 0, 72, 0
1, 53064, Note_on_c, 0, 67, 80
1, 53081, Note_on_c, 1, 64, 0
1, 53081, Note_on_c, 1, 60, 0
1, 53087, Note_on_c, 0, 67, 0
1, 53088, Note_on_c, 0, 79, 80
1, 53088, Note_on_c, 1, 65, 80
1, 53088, Note_on_c, 1, 62, 80
1, 53108, Note_on_c, 1, 65, 0
1, 53108, Note_on_c, 1, 62, 0
1, 53111, Note_on_c, 0, 79, 0
1, 53112, Note_on_c, 0, 74, 80
1, 53135, Note_on_c, 0, 74, 0
1, 53136, Note_on_c, 0, 71, 80
1, 53136, Note_on_c, 1, 65, 80
1, 53136, Note_on_c, 1, 62, 80
1, 53156, Note_on_c, 1, 65, 0
1, 53156, Note_on_c, 1, 62, 0
1, 53159, Note_on_c, 0, 71, 0
1, 53160, Note_on_c, 0, 67, 80
1, 53183, Note_on_c, 0, 67, 0
1, 53184, Note_on_c, 0, 79, 80
1, 53184, Note_on_c, 1, 64, 80
1, 53184, Note_on_c, 1, 60, 80
1, 53207, Note_on_c, 0, 79, 0
1, 53208, Note_on_c, 0, 76, 80
1, 53231, Note_on_c, 0, 76, 0
1, 53232, Note_on_c, 0, 72, 80
1, 53255, Note_on_c, 0, 72, 0
1, 53256, Note_on_c, 0, 67, 80
1, 53273, Note_on_c, 1, 64, 0
1, 53273, Note_on_c, 1, 60, 0
1, 53279, Note_on_c, 0, 67, 0
1, 53280, Note_on_c, 0, 84, 75
1, 53300, Note_on_c, 0, 84, 0
1, 53328, Note_on_c, 0, 84, 75
1, 53348, Note_on_c, 0, 84, 0
1, 53376, Note_on_c, 0, 80, 75
1, 53376, Note_on_c, 1, 65, 75
1, 53424, Note_on_c, 0, 80, 0
1, 53424, Note_on_c, 0, 81, 75
1, 53465, Note_on_c, 1, 65, 0
1, 53469, Note_on_c, 0, 81, 0
1, 53472, Note_on_c, 0, 81, 75
1, 53472, Note_on_c, 0, 77, 75
1, 53492, Note_on_c, 0, 81, 0
1, 53492, Note_on_c, 0, 77, 0
1, 53520, Note_on_c, 0, 81, 75
1, 53520, Note_on_c, 0, 77, 75
1, 53540, Note_on_c, 0, 81, 0
1, 53540, Note_on_c, 0, 77, 0
1, 53568, Note_on_c, 0, 76, 75
1, 53568, Note_on_c, 0, 73, 75
1, 53616, Note_on_c, 0, 76, 0
1, 53616, Note_on_c, 0, 73, 0
1, 53616, Note_on_c, 0, 77, 75
1, 53616, Note_on_c, 0, 74, 75
1, 53661, Note_on_c, 0, 77, 0
1, 53661, Note_on_c, 0, 74, 0
1, 53664, Note_on_c, 0, 77, 75
1, 53664, Note_on_c, 0, 68, 75
1, 53664, Note_on_c, 1, 59, 75
1, 53684, Note_on_c, 0, 77, 0
1, 53684, Note_on_c, 0, 68, 0
1, 53709, Note_on_c, 1, 59, 0
1, 53712, Note_on_c, 0, 77, 75
1, 53712, Note_on_c, 0, 68, 75
1, 53712, Note_on_c, 1, 59, 75
1, 53732, Note_on_c, 0, 77, 0
1, 53732, Note_on_c, 0, 68, 0
1, 53757, Note_on_c, 1, 59, 0
1, 53760, Note_on_c, 0, 76, 75
1, 53760, Note_on_c, 0, 67, 75
1, 53760, Note_on_c, 1, 60, 75
1, 53780, Note_on_c, 0, 76, 0
1, 53780, Note_on_c, 0, 67, 0
1, 53805, Note_on_c, 1, 60, 0
1, 53808, Note_on_c, 0, 74, 75
1, 53808, Note_on_c, 0, 65, 75
1, 53808, Note_on_c, 1, 53, 75
1, 53828, Note_on_c, 0, 74, 0
1, 53828, Note_on_c, 0, 65, 0
1, 53853, Note_on_c, 1, 53, 0
1, 53856, Note_on_c, 0, 72, 75
1, 53856, Note_on_c, 0, 64, 75
1, 53856, Note_on_c, 1, 55, 75
1, 53876, Note_on_c, 0, 72, 0
1, 53876, Note_on_c, 0, 64, 0
1, 53901, Note_on_c, 1, 55, 0
1, 53904, Note_on_c, 0, 71, 75
1, 53904, Note_on_c, 0, 62, 75
1, 53904, Note_on_c, 1, 43, 75
1, 53924, Note_on_c, 0, 71, 0
1, 53924, Note_on_c, 0, 62, 0
1, 53949, Note_on_c, 1, 43, 0
1, 53952, Note_on_c, 0, 72, 80
1, 53952, Note_on_c, 0, 60, 80
1, 53952, Note_on_c, 1, 36, 80
1, 53975, Note_on_c, 1, 36, 0
1, 53976, Note_on_c, 1, 48, 80
1, 53999, Note_on_c, 1, 48, 0
1, 54000, Note_on_c, 1, 36, 80
1, 54023, Note_on_c, 1, 36, 0
1, 54024, Note_on_c, 1, 48, 80
1, 54041, Note_on_c, 0, 72, 0
1, 54041, Note_on_c, 0, 60, 0
1, 54047, Note_on_c, 1, 48, 0
1, 54048, Note_on_c, 0, 76, 80
1, 54048, Note_on_c, 1, 36, 80
1, 54071, Note_on_c, 0, 76, 0
1, 54071, Note_on_c, 1, 36, 0
1, 54072, Note_on_c, 0, 79, 80
1, 54072, Note_on_c, 1, 48, 80
1, 54095, Note_on_c, 0, 79, 0
1, 54095, Note_on_c, 1, 48, 0
1, 54096, Note_on_c, 0, 76, 80
1, 54096, Note_on_c, 1, 36, 80
1, 54119, Note_on_c, 0, 76, 0
1, 54119, Note_on_c, 1, 36, 0
1, 54120, Note_on_c, 0, 72, 80
1, 54120, Note_on_c, 1, 48, 80
1, 54143, Note_on_c, 0, 72, 0
1, 54143, Note_on_c, 1, 48, 0
1, 54144, Note_on_c, 0, 71, 80
1, 54144, Note_on_c, 1, 36, 80
1, 54167, Note_on_c, 0, 71, 0
1, 54167, Note_on_c, 1, 36, 0
1, 54168, Note_on_c, 0, 74, 80
1, 54168, Note_on_c, 1, 48, 80
1, 54191, Note_on_c, 0, 74, 0
1, 54191, Note_on_c, 1, 48, 0
1, 54192, Note_on_c, 0, 71, 80
1, 54192, Note_on_c, 1, 36, 80
1, 54215, Note_on_c, 0, 71, 0
1, 54215, Note_on_c, 1, 36, 0
1, 54216, Note_on_c, 0, 67, 80
1, 54216, Note_on_c, 1, 48, 80
1, 54239, Note_on_c, 0, 67, 0
1, 54239, Note_on_c, 1, 48, 0
1, 54240, Note_on_c, 0, 65, 80
1, 54240, Note_on_c, 1, 36, 80
1, 54263, Note_on_c, 0, 65, 0
1, 54263, Note_on_c, 1, 36, 0
1, 54264, Note_on_c, 0, 69, 80
1, 54264, Note_on_c, 1, 48, 80
1, 54287, Note_on_c, 0, 69, 0
1, 54287, Note_on_c, 1, 48, 0
1, 54288, Note_on_c, 0, 65, 80
1, 54288, Note_on_c, 1, 36, 80
1, 54311, Note_on_c, 0, 65, 0
1, 54311, Note_on_c, 1, 36, 0
1, 54312, Note_on_c, 0, 62, 80
1, 54312, Note_on_c, 1, 48, 80
1, 54335, Note_on_c, 0, 62, 0
1, 54335, Note_on_c, 1, 48, 0
1, 54336, Note_on_c, 0, 60, 80
1, 54336, Note_on_c, 1, 36, 80
1, 54359, Note_on_c, 1, 36, 0
1, 54360, Note_on_c, 1, 48, 80
1, 54381, Note_on_c, 0, 60, 0
1, 54383, Note_on_c, 1, 48, 0
1, 54384, Note_on_c, 1, 36, 80
1, 54407, Note_on_c, 1, 36, 0
1, 54408, Note_on_c, 1, 48, 80
1, 54431, Note_on_c, 1, 48, 0
1, 54432, Note_on_c, 0, 84, 80
1, 54432, Note_on_c, 1, 36, 80
1, 54455, Note_on_c, 0, 84, 0
1, 54455, Note_on_c, 1, 36, 0
1, 54456, Note_on_c, 0, 88, 80
1, 54456, Note_on_c, 1, 48, 80
1, 54479, Note_on_c, 0, 88, 0
1, 54479, Note_on_c, 1, 48, 0
1, 54480, Note_on_c, 0, 84, 80
1, 54480, Note_on_c, 1, 36, 80
1, 54503, Note_on_c, 0, 84, 0
1, 54503, Note_on_c, 1, 36, 0
1, 54504, Note_on_c, 0, 79, 80
1, 54504, Note_on_c, 1, 48, 80
1, 54527, Note_on_c, 0, 79, 0
1, 54527, Note_on_c, 1, 48, 0
1, 54528, Note_on_c, 0, 77, 80
1, 54528, Note_on_c, 1, 36, 80
1, 54551, Note_on_c, 0, 77, 0
1, 54551, Note_on_c, 1, 36, 0
1, 54552, Note_on_c, 0, 81, 80
1, 54552, Note_on_c, 1, 48, 80
1, 54575, Note_on_c, 0, 81, 0
1, 54575, Note_on_c, 1, 48, 0
1, 54576, Note_on_c, 0, 77, 80
1, 54576, Note_on_c, 1, 36, 80
1, 54599, Note_on_c, 0, 77, 0
1, 54599, Note_on_c, 1, 36, 0
1, 54600, Note_on_c, 0, 74, 80
1, 54600, Note_on_c, 1, 48, 80
1, 54623, Note_on_c, 0, 74, 0
1, 54623, Note_on_c, 1, 48, 0
1, 54624, Note_on_c, 0, 71, 80
1, 54624, Note_on_c, 1, 36, 80
1, 54647, Note_on_c, 0, 71, 0
1, 54647, Note_on_c, 1, 36, 0
1, 54648, Note_on_c, 0, 74, 80
1, 54648, Note_on_c, 1, 48, 80
1, 54671, Note_on_c, 0, 74, 0
1, 54671, Note_on_c, 1, 48, 0
1, 54672, Note_on_c, 0, 71, 80
1, 54672, Note_on_c, 1, 36, 80
1, 54695, Note_on_c, 0, 71, 0
1, 54695, Note_on_c, 1, 36, 0
1, 54696, Note_on_c, 0, 67, 80
1, 54696, Note_on_c, 1, 48, 80
1, 54719, Note_on_c, 0, 67, 0
1, 54719, Note_on_c, 1, 48, 0
1, 54720, Note_on_c, 0, 72, 80
1, 54720, Note_on_c, 1, 36, 80
1, 54765, Note_on_c, 0, 72, 0
1, 54765, Note_on_c, 1, 36, 0
1, 54816, Note_on_c, 0, 76, 64
1, 54816, Note_on_c, 0, 72, 64
1, 54836, Note_on_c, 0, 76, 0
1, 54836, Note_on_c, 0, 72, 0
1, 54864, Note_on_c, 0, 76, 64
1, 54864, Note_on_c, 0, 72, 64
1, 54884, Note_on_c, 0, 76, 0
1, 54884, Note_on_c, 0, 72, 0
1, 54912, Note_on_c, 0, 76, 64
1, 54912, Note_on_c, 0, 72, 64
1, 54957, Note_on_c, 0, 76, 0
1, 54957, Note_on_c, 0, 72, 0
1, 55008, Note_on_c, 0, 79, 64
1, 55008, Note_on_c, 0, 76, 64
1, 55028, Note_on_c, 0, 79, 0
1, 55028, Note_on_c, 0, 76, 0
1, 55056, Note_on_c, 0, 79, 64
1, 55056, Note_on_c, 0, 76, 64
1, 55076, Note_on_c, 0, 79, 0
1, 55076, Note_on_c, 0, 76, 0
1, 55104, Note_on_c, 0, 79, 64
1, 55104, Note_on_c, 0, 76, 64
1, 55149, Note_on_c, 0, 79, 0
1, 55149, Note_on_c, 0, 76, 0
1, 55200, Note_on_c, 1, 67, 64
1, 55220, Note_on_c, 1, 67, 0
1, 55248, Note_on_c, 1, 67, 64
1, 55268, Note_on_c, 1, 67, 0
1, 55296, Note_on_c, 0, 74, 64
1, 55296, Note_on_c, 0, 71, 64
1, 55296, Note_on_c, 1, 69, 64
1, 55319, Note_on_c, 1, 69, 0
1, 55320, Note_on_c, 1, 67, 64
1, 55343, Note_on_c, 1, 67, 0
1, 55344, Note_on_c, 1, 65, 64
1, 55367, Note_on_c, 1, 65, 0
1, 55368, Note_on_c, 1, 64, 64
1, 55391, Note_on_c, 1, 64, 0
1, 55392, Note_on_c, 1, 67, 64
1, 55415, Note_on_c, 1, 67, 0
1, 55416, Note_on_c, 1, 65, 64
1, 55439, Note_on_c, 1, 65, 0
1, 55440, Note_on_c, 1, 64, 64
1, 55463, Note_on_c, 1, 64, 0
1, 55464, Note_on_c, 1, 62, 64
1, 55473, Note_on_c, 0, 74, 0
1, 55473, Note_on_c, 0, 71, 0
1, 55487, Note_on_c, 1, 62, 0
1, 55488, Note_on_c, 0, 76, 64
1, 55488, Note_on_c, 0, 72, 64
1, 55488, Note_on_c, 1, 60, 64
1, 55533, Note_on_c, 0, 76, 0
1, 55533, Note_on_c, 0, 72, 0
1, 55577, Note_on_c, 1, 60, 0
1, 55584, Note_on_c, 0, 79, 64
1, 55604, Note_on_c, 0, 79, 0
1, 55632, Note_on_c, 0, 79, 64
1, 55652, Note_on_c, 0, 79, 0
1, 55680, Note_on_c, 0, 81, 64
1, 55680, Note_on_c, 1, 65, 64
1, 55680, Note_on_c, 1, 59, 64
1, 55680, Note_on_c, 1, 55, 64
1, 55703, Note_on_c, 0, 81, 0
1, 55704, Note_on_c, 0, 79, 64
1, 55727, Note_on_c, 0, 79, 0
1, 55728, Note_on_c, 0, 77, 64
1, 55751, Note_on_c, 0, 77, 0
1, 55752, Note_on_c, 0, 76, 64
1, 55775, Note_on_c, 0, 76, 0
1, 55776, Note_on_c, 0, 79, 64
1, 55799, Note_on_c, 0, 79, 0
1, 55800, Note_on_c, 0, 77, 64
1, 55823, Note_on_c, 0, 77, 0
1, 55824, Note_on_c, 0, 76, 64
1, 55847, Note_on_c, 0, 76, 0
1, 55848, Note_on_c, 0, 74, 64
1, 55857, Note_on_c, 1, 65, 0
1, 55857, Note_on_c, 1, 59, 0
1, 55857, Note_on_c, 1, 55, 0
1, 55871, Note_on_c, 0, 74, 0
1, 55872, Note_on_c, 0, 72, 64
1, 55872, Note_on_c, 1, 64, 64
1, 55872, Note_on_c, 1, 60, 64
1, 55917, Note_on_c, 0, 72, 0
1, 55917, Note_on_c, 1, 64, 0
1, 55917, Note_on_c, 1, 60, 0
1, 55968, Note_on_c, 1, 55, 86
1, 55988, Note_on_c, 1, 55, 0
1, 56016, Note_on_c, 1, 55, 86
1, 56036, Note_on_c, 1, 55, 0
1, 56064, Note_on_c, 0, 83, 86
1, 56064, Note_on_c, 0, 79, 86
1, 56064, Note_on_c, 0, 77, 86
1, 56064, Note_on_c, 0, 74, 86
1, 56064, Note_on_c, 1, 57, 86
1, 56087, Note_on_c, 1, 57, 0
1, 56088, Note_on_c, 1, 55, 86
1, 56111, Note_on_c, 1, 55, 0
1, 56112, Note_on_c, 1, 53, 86
1, 56135, Note_on_c, 1, 53, 0
1, 56136, Note_on_c, 1, 52, 86
1, 56159, Note_on_c, 1, 52, 0
1, 56160, Note_on_c, 1, 55, 86
1, 56183, Note_on_c, 1, 55, 0
1, 56184, Note_on_c, 1, 53, 86
1, 56207, Note_on_c, 1, 53, 0
1, 56208, Note_on_c, 1, 52, 86
1, 56231, Note_on_c, 1, 52, 0
1, 56232, Note_on_c, 1, 50, 86
1, 56241, Note_on_c, 0, 83, 0
1, 56241, Note_on_c, 0, 79, 0
1, 56241, Note_on_c, 0, 77, 0
1, 56241, Note_on_c, 0, 74, 0
1, 56255, Note_on_c, 1, 50, 0
1, 56256, Note_on_c, 0, 84, 86
1, 56256, Note_on_c, 0, 79, 86
1, 56256, Note_on_c, 0, 76, 86
1, 56256, Note_on_c, 1, 48, 86
1, 56345, Note_on_c, 0, 84, 0
1, 56345, Note_on_c, 0, 79, 0
1, 56345, Note_on_c, 0, 76, 0
1, 56345, Note_on_c, 1, 48, 0
1, 56448, Note_on_c, 1, 48, 0
1, 56625, Note_on_c, 1, 48, 0
1, 56635, End_track
0, 0, End_of_file