0, 0, Header, 0, 1, 96
1, 0, Start_track
1, 0, Tempo, 227272
1, 192, Note_on_c, 0, 67, 70
1, 281, Note_on_c, 0, 67, 0
1, 288, Note_on_c, 0, 72, 86
1, 288, Note_on_c, 1, 64, 70
1, 288, Note_on_c, 1, 60, 70
1, 377, Note_on_c, 1, 64, 0
1, 377, Note_on_c, 1, 60, 0
1, 384, Note_on_c, 0, 72, 0
1, 384, Note_on_c, 0, 72, 70
1, 384, Note_on_c, 1, 65, 70
1, 384, Note_on_c, 1, 62, 70
1, 473, Note_on_c, 0, 72, 0
1, 473, Note_on_c, 1, 65, 0
1, 473, Note_on_c, 1, 62, 0
1, 480, Note_on_c, 0, 72, 70
1, 480, Note_on_c, 1, 67, 70
1, 480, Note_on_c, 1, 64, 70
1, 569, Note_on_c, 0, 72, 0
1, 569, Note_on_c, 1, 67, 0
1, 569, Note_on_c, 1, 64, 0
1, 576, Note_on_c, 0, 76, 86
1, 576, Note_on_c, 1, 69, 70
1, 576, Note_on_c, 1, 65, 70
1, 624, Note_on_c, 0, 76, 0
1, 624, Note_on_c, 0, 74, 70
1, 669, Note_on_c, 0, 74, 0
1, 672, Note_on_c, 0, 74, 70
1, 720, Note_on_c, 0, 74, 0
1, 720, Note_on_c, 0, 72, 70
1, 765, Note_on_c, 0, 72, 0
1, 768, Note_on_c, 0, 74, 70
1, 841, Note_on_c, 1, 69, 0
1, 841, Note_on_c, 1, 65, 0
1, 857, Note_on_c, 0, 74, 0
1, 864, Note_on_c, 0, 72, 86
1, 864, Note_on_c, 1, 65, 70
1, 864, Note_on_c, 1, 62, 70
1, 864, Note_on_c, 1, 55, 70
1, 912, Note_on_c, 0, 72, 0
1, 912, Note_on_c, 0, 71, 70
1, 957, Note_on_c, 0, 71, 0
1, 960, Note_on_c, 0, 71, 70
1, 1008, Note_on_c, 0, 71, 0
1, 1008, Note_on_c, 0, 69, 70
1, 1053, Note_on_c, 0, 69, 0
1, 1056, Note_on_c, 0, 71, 70
1, 1129, Note_on_c, 1, 65, 0
1, 1129, Note_on_c, 1, 62, 0
1, 1129, Note_on_c, 1, 55, 0
1, 1145, Note_on_c, 0, 71, 0
1, 1152, Note_on_c, 0, 72, 70
1, 1152, Note_on_c, 1, 67, 70
1, 1152, Note_on_c, 1, 64, 70
1, 1191, Note_on_c, 0, 72, 0
1, 1191, Note_on_c, 1, 67, 0
1, 1191, Note_on_c, 1, 64, 0
1, 1248, Note_on_c, 0, 74, 73
1, 1248, Note_on_c, 0, 71, 73
1, 1248, Note_on_c, 1, 67, 73
1, 1248, Note_on_c, 1, 62, 73
1, 1287, Note_on_c, 0, 74, 0
1, 1287, Note_on_c, 0, 71, 0
1, 1287, Note_on_c, 1, 67, 0
1, 1287, Note_on_c, 1, 62, 0
1, 1344, Note_on_c, 0, 76, 76
1, 1344, Note_on_c, 0, 72, 76
1, 1344, Note_on_c, 1, 67, 76
1, 1344, Note_on_c, 1, 60, 76
1, 1383, Note_on_c, 0, 76, 0
1, 1383, Note_on_c, 0, 72, 0
1, 1383, Note_on_c, 1, 67, 0
1, 1383, Note_on_c, 1, 60, 0
1, 1440, Note_on_c, 0, 77, 95
1, 1440, Note_on_c, 0, 74, 95
1, 1440, Note_on_c, 1, 67, 95
1, 1440, Note_on_c, 1, 59, 95
1, 1479, Note_on_c, 0, 77, 0
1, 1479, Note_on_c, 0, 74, 0
1, 1479, Note_on_c, 1, 67, 0
1, 1479, Note_on_c, 1, 59, 0
1, 1728, Note_on_c, 0, 74, 70
1, 1728, Note_on_c, 0, 71, 70
1, 1728, Note_on_c, 1, 67, 70
1, 1728, Note_on_c, 1, 65, 70
1, 1767, Note_on_c, 0, 74, 0
1, 1767, Note_on_c, 0, 71, 0
1, 1767, Note_on_c, 1, 67, 0
1, 1767, Note_on_c, 1, 65, 0
1, 1824, Note_on_c, 0, 76, 73
1, 1824, Note_on_c, 0, 72, 73
1, 1824, Note_on_c, 1, 67, 73
1, 1824, Note_on_c, 1, 64, 73
1, 1863, Note_on_c, 0, 76, 0
1, 1863, Note_on_c, 0, 72, 0
1, 1863, Note_on_c, 1, 67, 0
1, 1863, Note_on_c, 1, 64, 0
1, 1920, Note_on_c, 0, 77, 76
1, 1920, Note_on_c, 0, 74, 76
1, 1920, Note_on_c, 1, 67, 76
1, 1920, Note_on_c, 1, 62, 76
1, 1959, Note_on_c, 0, 77, 0
1, 1959, Note_on_c, 0, 74, 0
1, 1959, Note_on_c, 1, 67, 0
1, 1959, Note_on_c, 1, 62, 0
1, 2016, Note_on_c, 0, 79, 95
1, 2016, Note_on_c, 0, 76, 95
1, 2016, Note_on_c, 1, 67, 95
1, 2016, Note_on_c, 1, 60, 95
1, 2055, Note_on_c, 0, 79, 0
1, 2055, Note_on_c, 0, 76, 0
1, 2055, Note_on_c, 1, 67, 0
1, 2055, Note_on_c, 1, 60, 0
1, 2208, Note_on_c, 0, 79, 70
1, 2297, Note_on_c, 0, 79, 0
1, 2304, Note_on_c, 0, 84, 86
1, 2304, Note_on_c, 1, 76, 70
1, 2304, Note_on_c, 1, 72, 70
1, 2393, Note_on_c, 1, 76, 0
1, 2393, Note_on_c, 1, 72, 0
1, 2400, Note_on_c, 0, 84, 0
1, 2400, Note_on_c, 0, 84, 70
1, 2400, Note_on_c, 1, 77, 70
1, 2400, Note_on_c, 1, 74, 70
1, 2489, Note_on_c, 0, 84, 0
1, 2489, Note_on_c, 1, 77, 0
1, 2489, Note_on_c, 1, 74, 0
1, 2496, Note_on_c, 0, 84, 70
1, 2496, Note_on_c, 1, 79, 70
1, 2496, Note_on_c, 1, 76, 70
1, 2585, Note_on_c, 0, 84, 0
1, 2585, Note_on_c, 1, 79, 0
1, 2585, Note_on_c, 1, 76, 0
1, 2592, Note_on_c, 0, 88, 86
1, 2592, Note_on_c, 1, 81, 70
1, 2592, Note_on_c, 1, 77, 70
1, 2640, Note_on_c, 0, 88, 0
1, 2640, Note_on_c, 0, 86, 71
1, 2685, Note_on_c, 0, 86, 0
1, 2688, Note_on_c, 0, 86, 73
1, 2736, Note_on_c, 0, 86, 0
1, 2736, Note_on_c, 0, 85, 75
1, 2781, Note_on_c, 0, 85, 0
1, 2784, Note_on_c, 0, 86, 76
1, 2857, Note_on_c, 1, 81, 0
1, 2857, Note_on_c, 1, 77, 0
1, 2873, Note_on_c, 0, 86, 0
1, 2880, Note_on_c, 0, 84, 96
1, 2880, Note_on_c, 1, 78, 76
1, 2880, Note_on_c, 1, 75, 76
1, 2928, Note_on_c, 0, 84, 0
1, 2928, Note_on_c, 0, 83, 82
1, 2973, Note_on_c, 0, 83, 0
1, 2976, Note_on_c, 0, 83, 82
1, 3024, Note_on_c, 0, 83, 0
1, 3024, Note_on_c, 0, 82, 82
1, 3069, Note_on_c, 0, 82, 0
1, 3072, Note_on_c, 0, 83, 82
1, 3145, Note_on_c, 1, 78, 0
1, 3145, Note_on_c, 1, 75, 0
1, 3257, Note_on_c, 0, 83, 0
1, 3360, Note_on_c, 0, 79, 70
1, 3449, Note_on_c, 0, 79, 0
1, 3456, Note_on_c, 0, 84, 86
1, 3456, Note_on_c, 1, 64, 70
1, 3456, Note_on_c, 1, 60, 70
1, 3545, Note_on_c, 1, 64, 0
1, 3545, Note_on_c, 1, 60, 0
1, 3552, Note_on_c, 0, 84, 0
1, 3552, Note_on_c, 0, 84, 70
1, 3552, Note_on_c, 1, 65, 70
1, 3552, Note_on_c, 1, 62, 70
1, 3641, Note_on_c, 0, 84, 0
1, 3641, Note_on_c, 1, 65, 0
1, 3641, Note_on_c, 1, 62, 0
1, 3648, Note_on_c, 0, 84, 70
1, 3648, Note_on_c, 1, 67, 70
1, 3648, Note_on_c, 1, 64, 70
1, 3737, Note_on_c, 0, 84, 0
1, 3737, Note_on_c, 1, 67, 0
1, 3737, Note_on_c, 1, 64, 0
1, 3744, Note_on_c, 0, 88, 86
1, 3744, Note_on_c, 1, 69, 70
1, 3744, Note_on_c, 1, 65, 70
1, 3792, Note_on_c, 0, 88, 0
1, 3792, Note_on_c, 0, 86, 70
1, 3837, Note_on_c, 0, 86, 0
1, 3840, Note_on_c, 0, 86, 70
1, 3888, Note_on_c, 0, 86, 0
1, 3888, Note_on_c, 0, 84, 70
1, 3933, Note_on_c, 0, 84, 0
1, 3936, Note_on_c, 0, 86, 70
1, 4009, Note_on_c, 1, 69, 0
1, 4009, Note_on_c, 1, 65, 0
1, 4025, Note_on_c, 0, 86, 0
1, 4032, Note_on_c, 0, 84, 86
1, 4032, Note_on_c, 1, 65, 70
1, 4032, Note_on_c, 1, 62, 70
1, 4032, Note_on_c, 1, 56, 70
1, 4080, Note_on_c, 0, 84, 0
1, 4080, Note_on_c, 0, 83, 70
1, 4121, Note_on_c, 1, 65, 0
1, 4121, Note_on_c, 1, 62, 0
1, 4121, Note_on_c, 1, 56, 0
1, 4125, Note_on_c, 0, 83, 0
1, 4128, Note_on_c, 0, 83, 71
1, 4128, Note_on_c, 1, 65, 71
1, 4128, Note_on_c, 1, 62, 71
1, 4128, Note_on_c, 1, 56, 71
1, 4176, Note_on_c, 0, 83, 0
1, 4176, Note_on_c, 0, 81, 72
1, 4217, Note_on_c, 1, 65, 0
1, 4217, Note_on_c, 1, 62, 0
1, 4217, Note_on_c, 1, 56, 0
1, 4221, Note_on_c, 0, 81, 0
1, 4224, Note_on_c, 0, 83, 73
1, 4224, Note_on_c, 1, 65, 73
1, 4224, Note_on_c, 1, 62, 73
1, 4224, Note_on_c, 1, 56, 73
1, 4313, Note_on_c, 0, 83, 0
1, 4313, Note_on_c, 1, 65, 0
1, 4313, Note_on_c, 1, 62, 0
1, 4313, Note_on_c, 1, 56, 0
1, 4320, Note_on_c, 0, 86, 91
1, 4320, Note_on_c, 1, 64, 75
1, 4320, Note_on_c, 1, 60, 75
1, 4320, Note_on_c, 1, 57, 75
1, 4368, Note_on_c, 0, 86, 0
1, 4368, Note_on_c, 0, 84, 76
1, 4409, Note_on_c, 1, 64, 0
1, 4409, Note_on_c, 1, 60, 0
1, 4409, Note_on_c, 1, 57, 0
1, 4413, Note_on_c, 0, 84, 0
1, 4416, Note_on_c, 0, 84, 77
1, 4416, Note_on_c, 1, 64, 76
1, 4416, Note_on_c, 1, 60, 76
1, 4416, Note_on_c, 1, 57, 76
1, 4464, Note_on_c, 0, 84, 0
1, 4464, Note_on_c, 0, 83, 78
1, 4505, Note_on_c, 1, 64, 0
1, 4505, Note_on_c, 1, 60, 0
1, 4505, Note_on_c, 1, 57, 0
1, 4509, Note_on_c, 0, 83, 0
1, 4512, Note_on_c, 0, 84, 79
1, 4512, Note_on_c, 1, 64, 78
1, 4512, Note_on_c, 1, 60, 78
1, 4512, Note_on_c, 1, 57, 78
1, 4601, Note_on_c, 0, 84, 0
1, 4601, Note_on_c, 1, 64, 0
1, 4601, Note_on_c, 1, 60, 0
1, 4601, Note_on_c, 1, 57, 0
1, 4608, Note_on_c, 0, 79, 97
1, 4608, Note_on_c, 1, 60, 80
1, 4608, Note_on_c, 1, 50, 80
1, 4656, Note_on_c, 0, 79, 0
1, 4656, Note_on_c, 0, 78, 82
1, 4697, Note_on_c, 1, 60, 0
1, 4697, Note_on_c, 1, 50, 0
1, 4701, Note_on_c, 0, 78, 0
1, 4704, Note_on_c, 0, 78, 82
1, 4704, Note_on_c, 1, 60, 82
1, 4704, Note_on_c, 1, 50, 82
1, 4752, Note_on_c, 0, 78, 0
1, 4752, Note_on_c, 0, 76, 82
1, 4793, Note_on_c, 1, 60, 0
1, 4793, Note_on_c, 1, 50, 0
1, 4797, Note_on_c, 0, 76, 0
1, 4800, Note_on_c, 0, 78, 82
1, 4800, Note_on_c, 1, 60, 82
1, 4800, Note_on_c, 1, 50, 82
1, 4889, Note_on_c, 0, 78, 0
1, 4896, Note_on_c, 0, 79, 98
1, 4896, Note_on_c, 0, 71, 98
1, 4896, Note_on_c, 1, 60, 0
1, 4896, Note_on_c, 1, 50, 0
1, 4896, Note_on_c, 1, 59, 82
1, 4896, Note_on_c, 1, 55, 82
1, 4935, Note_on_c, 1, 59, 0
1, 4935, Note_on_c, 1, 55, 0
1, 4944, Note_on_c, 0, 79, 0
1, 4944, Note_on_c, 0, 71, 0
1, 4944, Note_on_c, 0, 78, 82
1, 4989, Note_on_c, 0, 78, 0
1, 4992, Note_on_c, 0, 79, 82
1, 5037, Note_on_c, 0, 79, 0
1, 5040, Note_on_c, 0, 74, 82
1, 5085, Note_on_c, 0, 74, 0
1, 5088, Note_on_c, 0, 84, 82
1, 5088, Note_on_c, 1, 57, 82
1, 5088, Note_on_c, 1, 50, 82
1, 5133, Note_on_c, 0, 84, 0
1, 5136, Note_on_c, 0, 78, 82
1, 5181, Note_on_c, 0, 78, 0
1, 5184, Note_on_c, 0, 79, 98
1, 5184, Note_on_c, 1, 57, 0
1, 5184, Note_on_c, 1, 50, 0
1, 5184, Note_on_c, 1, 59, 82
1, 5184, Note_on_c, 1, 55, 82
1, 5223, Note_on_c, 1, 59, 0
1, 5223, Note_on_c, 1, 55, 0
1, 5232, Note_on_c, 0, 79, 0
1, 5232, Note_on_c, 0, 78, 82
1, 5277, Note_on_c, 0, 78, 0
1, 5280, Note_on_c, 0, 79, 82
1, 5325, Note_on_c, 0, 79, 0
1, 5328, Note_on_c, 0, 74, 82
1, 5373, Note_on_c, 0, 74, 0
1, 5376, Note_on_c, 0, 84, 82
1, 5376, Note_on_c, 1, 57, 82
1, 5376, Note_on_c, 1, 50, 82
1, 5421, Note_on_c, 0, 84, 0
1, 5424, Note_on_c, 0, 78, 82
1, 5469, Note_on_c, 0, 78, 0
1, 5472, Note_on_c, 0, 79, 98
1, 5472, Note_on_c, 1, 57, 0
1, 5472, Note_on_c, 1, 50, 0
1, 5472, Note_on_c, 1, 59, 82
1, 5472, Note_on_c, 1, 55, 82
1, 5511, Note_on_c, 1, 59, 0
1, 5511, Note_on_c, 1, 55, 0
1, 5520, Note_on_c, 0, 79, 0
1, 5520, Note_on_c, 0, 78, 82
1, 5565, Note_on_c, 0, 78, 0
1, 5568, Note_on_c, 0, 79, 82
1, 5613, Note_on_c, 0, 79, 0
1, 5616, Note_on_c, 0, 74, 82
1, 5661, Note_on_c, 0, 74, 0
1, 5664, Note_on_c, 0, 84, 82
1, 5664, Note_on_c, 1, 57, 82
1, 5664, Note_on_c, 1, 50, 82
1, 5709, Note_on_c, 0, 84, 0
1, 5712, Note_on_c, 0, 78, 82
1, 5757, Note_on_c, 0, 78, 0
1, 5760, Note_on_c, 0, 79, 98
1, 5760, Note_on_c, 1, 57, 0
1, 5760, Note_on_c, 1, 50, 0
1, 5760, Note_on_c, 1, 59, 82
1, 5760, Note_on_c, 1, 55, 82
1, 5799, Note_on_c, 1, 59, 0
1, 5799, Note_on_c, 1, 55, 0
1, 5808, Note_on_c, 0, 79, 0
1, 5808, Note_on_c, 0, 78, 70
1, 5853, Note_on_c, 0, 78, 0
1, 5856, Note_on_c, 0, 79, 70
1, 5856, Note_on_c, 1, 74, 70
1, 5856, Note_on_c, 1, 71, 70
1, 5901, Note_on_c, 0, 79, 0
1, 5904, Note_on_c, 0, 78, 71
1, 5945, Note_on_c, 1, 74, 0
1, 5945, Note_on_c, 1, 71, 0
1, 5949, Note_on_c, 0, 78, 0
1, 5952, Note_on_c, 0, 79, 72
1, 5952, Note_on_c, 1, 72, 71
1, 5952, Note_on_c, 1, 69, 71
1, 5997, Note_on_c, 0, 79, 0
1, 6000, Note_on_c, 0, 78, 72
1, 6041, Note_on_c, 1, 72, 0
1, 6041, Note_on_c, 1, 69, 0
1, 6045, Note_on_c, 0, 78, 0
1, 6048, Note_on_c, 0, 79, 89
1, 6048, Note_on_c, 1, 71, 72
1, 6048, Note_on_c, 1, 67, 72
1, 6087, Note_on_c, 1, 71, 0
1, 6087, Note_on_c, 1, 67, 0
1, 6096, Note_on_c, 0, 79, 0
1, 6096, Note_on_c, 0, 78, 74
1, 6141, Note_on_c, 0, 78, 0
1, 6144, Note_on_c, 0, 79, 74
1, 6144, Note_on_c, 1, 62, 74
1, 6144, Note_on_c, 1, 59, 74
1, 6189, Note_on_c, 0, 79, 0
1, 6192, Note_on_c, 0, 78, 75
1, 6233, Note_on_c, 1, 62, 0
1, 6233, Note_on_c, 1, 59, 0
1, 6237, Note_on_c, 0, 78, 0
1, 6240, Note_on_c, 0, 79, 76
1, 6240, Note_on_c, 1, 60, 75
1, 6240, Note_on_c, 1, 57, 75
1, 6285, Note_on_c, 0, 79, 0
1, 6288, Note_on_c, 0, 78, 76
1, 6329, Note_on_c, 1, 60, 0
1, 6329, Note_on_c, 1, 57, 0
1, 6333, Note_on_c, 0, 78, 0
1, 6336, Note_on_c, 0, 79, 93
1, 6336, Note_on_c, 1, 59, 76
1, 6336, Note_on_c, 1, 55, 76
1, 6375, Note_on_c, 1, 59, 0
1, 6375, Note_on_c, 1, 55, 0
1, 6384, Note_on_c, 0, 79, 0
1, 6384, Note_on_c, 0, 78, 78
1, 6429, Note_on_c, 0, 78, 0
1, 6432, Note_on_c, 0, 79, 78
1, 6432, Note_on_c, 1, 50, 78
1, 6432, Note_on_c, 1, 47, 78
1, 6477, Note_on_c, 0, 79, 0
1, 6480, Note_on_c, 0, 78, 79
1, 6521, Note_on_c, 1, 50, 0
1, 6521, Note_on_c, 1, 47, 0
1, 6525, Note_on_c, 0, 78, 0
1, 6528, Note_on_c, 0, 79, 80
1, 6528, Note_on_c, 1, 48, 79
1, 6528, Note_on_c, 1, 45, 79
1, 6573, Note_on_c, 0, 79, 0
1, 6576, Note_on_c, 0, 78, 80
1, 6617, Note_on_c, 1, 48, 0
1, 6617, Note_on_c, 1, 45, 0
1, 6621, Note_on_c, 0, 78, 0
1, 6624, Note_on_c, 0, 79, 97
1, 6624, Note_on_c, 1, 47, 80
1, 6624, Note_on_c, 1, 43, 80
1, 6663, Note_on_c, 1, 47, 0
1, 6663, Note_on_c, 1, 43, 0
1, 6672, Note_on_c, 0, 79, 0
1, 6672, Note_on_c, 0, 83, 82
1, 6717, Note_on_c, 0, 83, 0
1, 6720, Note_on_c, 0, 74, 82
1, 6765, Note_on_c, 0, 74, 0
1, 6768, Note_on_c, 0, 79, 82
1, 6813, Note_on_c, 0, 79, 0
1, 6816, Note_on_c, 0, 71, 82
1, 6861, Note_on_c, 0, 71, 0
1, 6864, Note_on_c, 0, 74, 82
1, 6909, Note_on_c, 0, 74, 0
1, 6912, Note_on_c, 0, 67, 98
1, 7008, Note_on_c, 0, 67, 0
1, 7104, Note_on_c, 0, 67, 70
1, 7193, Note_on_c, 0, 67, 0
1, 7200, Note_on_c, 0, 72, 86
1, 7200, Note_on_c, 1, 64, 70
1, 7200, Note_on_c, 1, 60, 70
1, 7289, Note_on_c, 1, 64, 0
1, 7289, Note_on_c, 1, 60, 0
1, 7296, Note_on_c, 0, 72, 0
1, 7296, Note_on_c, 0, 72, 70
1, 7296, Note_on_c, 1, 65, 70
1, 7296, Note_on_c, 1, 62, 70
1, 7385, Note_on_c, 0, 72, 0
1, 7385, Note_on_c, 1, 65, 0
1, 7385, Note_on_c, 1, 62, 0
1, 7392, Note_on_c, 0, 72, 70
1, 7392, Note_on_c, 1, 67, 70
1, 7392, Note_on_c, 1, 64, 70
1, 7481, Note_on_c, 0, 72, 0
1, 7481, Note_on_c, 1, 67, 0
1, 7481, Note_on_c, 1, 64, 0
1, 7488, Note_on_c, 0, 76, 86
1, 7488, Note_on_c, 1, 69, 70
1, 7488, Note_on_c, 1, 65, 70
1, 7536, Note_on_c, 0, 76, 0
1, 7536, Note_on_c, 0, 74, 70
1, 7581, Note_on_c, 0, 74, 0
1, 7584, Note_on_c, 0, 74, 70
1, 7632, Note_on_c, 0, 74, 0
1, 7632, Note_on_c, 0, 72, 70
1, 7677, Note_on_c, 0, 72, 0
1, 7680, Note_on_c, 0, 74, 70
1, 7753, Note_on_c, 1, 69, 0
1, 7753, Note_on_c, 1, 65, 0
1, 7769, Note_on_c, 0, 74, 0
1, 7776, Note_on_c, 0, 72, 86
1, 7776, Note_on_c, 1, 65, 70
1, 7776, Note_on_c, 1, 62, 70
1, 7776, Note_on_c, 1, 55, 70
1, 7824, Note_on_c, 0, 72, 0
1, 7824, Note_on_c, 0, 71, 70
1, 7869, Note_on_c, 0, 71, 0
1, 7872, Note_on_c, 0, 71, 70
1, 7920, Note_on_c, 0, 71, 0
1, 7920, Note_on_c, 0, 69, 70
1, 7965, Note_on_c, 0, 69, 0
1, 7968, Note_on_c, 0, 71, 70
1, 8041, Note_on_c, 1, 65, 0
1, 8041, Note_on_c, 1, 62, 0
1, 8041, Note_on_c, 1, 55, 0
1, 8057, Note_on_c, 0, 71, 0
1, 8064, Note_on_c, 0, 72, 70
1, 8064, Note_on_c, 1, 67, 70
1, 8064, Note_on_c, 1, 64, 70
1, 8103, Note_on_c, 0, 72, 0
1, 8103, Note_on_c, 1, 67, 0
1, 8103, Note_on_c, 1, 64, 0
1, 8160, Note_on_c, 0, 74, 73
1, 8160, Note_on_c, 0, 71, 73
1, 8160, Note_on_c, 1, 67, 73
1, 8160, Note_on_c, 1, 62, 73
1, 8199, Note_on_c, 0, 74, 0
1, 8199, Note_on_c, 0, 71, 0
1, 8199, Note_on_c, 1, 67, 0
1, 8199, Note_on_c, 1, 62, 0
1, 8256, Note_on_c, 0, 76, 76
1, 8256, Note_on_c, 0, 72, 76
1, 8256, Note_on_c, 1, 67, 76
1, 8256, Note_on_c, 1, 60, 76
1, 8295, Note_on_c, 0, 76, 0
1, 8295, Note_on_c, 0, 72, 0
1, 8295, Note_on_c, 1, 67, 0
1, 8295, Note_on_c, 1, 60, 0
1, 8352, Note_on_c, 0, 77, 95
1, 8352, Note_on_c, 0, 74, 95
1, 8352, Note_on_c, 1, 67, 95
1, 8352, Note_on_c, 1, 59, 95
1, 8391, Note_on_c, 0, 77, 0
1, 8391, Note_on_c, 0, 74, 0
1, 8391, Note_on_c, 1, 67, 0
1, 8391, Note_on_c, 1, 59, 0
1, 8640, Note_on_c, 0, 74, 70
1, 8640, Note_on_c, 0, 71, 70
1, 8640, Note_on_c, 1, 67, 70
1, 8640, Note_on_c, 1, 65, 70
1, 8679, Note_on_c, 0, 74, 0
1, 8679, Note_on_c, 0, 71, 0
1, 8679, Note_on_c, 1, 67, 0
1, 8679, Note_on_c, 1, 65, 0
1, 8736, Note_on_c, 0, 76, 73
1, 8736, Note_on_c, 0, 72, 73
1, 8736, Note_on_c, 1, 67, 73
1, 8736, Note_on_c, 1, 64, 73
1, 8775, Note_on_c, 0, 76, 0
1, 8775, Note_on_c, 0, 72, 0
1, 8775, Note_on_c, 1, 67, 0
1, 8775, Note_on_c, 1, 64, 0
1, 8832, Note_on_c, 0, 77, 76
1, 8832, Note_on_c, 0, 74, 76
1, 8832, Note_on_c, 1, 67, 76
1, 8832, Note_on_c, 1, 62, 76
1, 8871, Note_on_c, 0, 77, 0
1, 8871, Note_on_c, 0, 74, 0
1, 8871, Note_on_c, 1, 67, 0
1, 8871, Note_on_c, 1, 62, 0
1, 8928, Note_on_c, 0, 79, 95
1, 8928, Note_on_c, 0, 76, 95
1, 8928, Note_on_c, 1, 67, 95
1, 8928, Note_on_c, 1, 60, 95
1, 8967, Note_on_c, 0, 79, 0
1, 8967, Note_on_c, 0, 76, 0
1, 8967, Note_on_c, 1, 67, 0
1, 8967, Note_on_c, 1, 60, 0
1, 9120, Note_on_c, 0, 79, 70
1, 9209, Note_on_c, 0, 79, 0
1, 9216, Note_on_c, 0, 84, 86
1, 9216, Note_on_c, 1, 76, 70
1, 9216, Note_on_c, 1, 72, 70
1, 9305, Note_on_c, 1, 76, 0
1, 9305, Note_on_c, 1, 72, 0
1, 9312, Note_on_c, 0, 84, 0
1, 9312, Note_on_c, 0, 84, 70
1, 9312, Note_on_c, 1, 77, 70
1, 9312, Note_on_c, 1, 74, 70
1, 9401, Note_on_c, 0, 84, 0
1, 9401, Note_on_c, 1, 77, 0
1, 9401, Note_on_c, 1, 74, 0
1, 9408, Note_on_c, 0, 84, 70
1, 9408, Note_on_c, 1, 79, 70
1, 9408, Note_on_c, 1, 76, 70
1, 9497, Note_on_c, 0, 84, 0
1, 9497, Note_on_c, 1, 79, 0
1, 9497, Note_on_c, 1, 76, 0
1, 9504, Note_on_c, 0, 88, 86
1, 9504, Note_on_c, 1, 81, 70
1, 9504, Note_on_c, 1, 77, 70
1, 9552, Note_on_c, 0, 88, 0
1, 9552, Note_on_c, 0, 86, 71
1, 9597, Note_on_c, 0, 86, 0
1, 9600, Note_on_c, 0, 86, 73
1, 9648, Note_on_c, 0, 86, 0
1, 9648, Note_on_c, 0, 85, 75
1, 9693, Note_on_c, 0, 85, 0
1, 9696, Note_on_c, 0, 86, 76
1, 9769, Note_on_c, 1, 81, 0
1, 9769, Note_on_c, 1, 77, 0
1, 9785, Note_on_c, 0, 86, 0
1, 9792, Note_on_c, 0, 84, 96
1, 9792, Note_on_c, 1, 78, 76
1, 9792, Note_on_c, 1, 75, 76
1, 9840, Note_on_c, 0, 84, 0
1, 9840, Note_on_c, 0, 83, 82
1, 9885, Note_on_c, 0, 83, 0
1, 9888, Note_on_c, 0, 83, 82
1, 9936, Note_on_c, 0, 83, 0
1, 9936, Note_on_c, 0, 82, 82
1, 9981, Note_on_c, 0, 82, 0
1, 9984, Note_on_c, 0, 83, 82
1, 10057, Note_on_c, 1, 78, 0
1, 10057, Note_on_c, 1, 75, 0
1, 10169, Note_on_c, 0, 83, 0
1, 10272, Note_on_c, 0, 79, 70
1, 10361, Note_on_c, 0, 79, 0
1, 10368, Note_on_c, 0, 84, 86
1, 10368, Note_on_c, 1, 64, 70
1, 10368, Note_on_c, 1, 60, 70
1, 10457, Note_on_c, 1, 64, 0
1, 10457, Note_on_c, 1, 60, 0
1, 10464, Note_on_c, 0, 84, 0
1, 10464, Note_on_c, 0, 84, 70
1, 10464, Note_on_c, 1, 65, 70
1, 10464, Note_on_c, 1, 62, 70
1, 10553, Note_on_c, 0, 84, 0
1, 10553, Note_on_c, 1, 65, 0
1, 10553, Note_on_c, 1, 62, 0
1, 10560, Note_on_c, 0, 84, 70
1, 10560, Note_on_c, 1, 67, 70
1, 10560, Note_on_c, 1, 64, 70
1, 10649, Note_on_c, 0, 84, 0
1, 10649, Note_on_c, 1, 67, 0
1, 10649, Note_on_c, 1, 64, 0
1, 10656, Note_on_c, 0, 88, 86
1, 10656, Note_on_c, 1, 69, 70
1, 10656, Note_on_c, 1, 65, 70
1, 10704, Note_on_c, 0, 88, 0
1, 10704, Note_on_c, 0, 86, 70
1, 10749, Note_on_c, 0, 86, 0
1, 10752, Note_on_c, 0, 86, 70
1, 10800, Note_on_c, 0, 86, 0
1, 10800, Note_on_c, 0, 84, 70
1, 10845, Note_on_c, 0, 84, 0
1, 10848, Note_on_c, 0, 86, 70
1, 10921, Note_on_c, 1, 69, 0
1, 10921, Note_on_c, 1, 65, 0
1, 10937, Note_on_c, 0, 86, 0
1, 10944, Note_on_c, 0, 84, 86
1, 10944, Note_on_c, 1, 65, 70
1, 10944, Note_on_c, 1, 62, 70
1, 10944, Note_on_c, 1, 56, 70
1, 10992, Note_on_c, 0, 84, 0
1, 10992, Note_on_c, 0, 83, 70
1, 11033, Note_on_c, 1, 65, 0
1, 11033, Note_on_c, 1, 62, 0
1, 11033, Note_on_c, 1, 56, 0
1, 11037, Note_on_c, 0, 83, 0
1, 11040, Note_on_c, 0, 83, 71
1, 11040, Note_on_c, 1, 65, 71
1, 11040, Note_on_c, 1, 62, 71
1, 11040, Note_on_c, 1, 56, 71
1, 11088, Note_on_c, 0, 83, 0
1, 11088, Note_on_c, 0, 81, 72
1, 11129, Note_on_c, 1, 65, 0
1, 11129, Note_on_c, 1, 62, 0
1, 11129, Note_on_c, 1, 56, 0
1, 11133, Note_on_c, 0, 81, 0
1, 11136, Note_on_c, 0, 83, 73
1, 11136, Note_on_c, 1, 65, 73
1, 11136, Note_on_c, 1, 62, 73
1, 11136, Note_on_c, 1, 56, 73
1, 11225, Note_on_c, 0, 83, 0
1, 11225, Note_on_c, 1, 65, 0
1, 11225, Note_on_c, 1, 62, 0
1, 11225, Note_on_c, 1, 56, 0
1, 11232, Note_on_c, 0, 86, 91
1, 11232, Note_on_c, 1, 64, 75
1, 11232, Note_on_c, 1, 60, 75
1, 11232, Note_on_c, 1, 57, 75
1, 11280, Note_on_c, 0, 86, 0
1, 11280, Note_on_c, 0, 84, 76
1, 11321, Note_on_c, 1, 64, 0
1, 11321, Note_on_c, 1, 60, 0
1, 11321, Note_on_c, 1, 57, 0
1, 11325, Note_on_c, 0, 84, 0
1, 11328, Note_on_c, 0, 84, 77
1, 11328, Note_on_c, 1, 64, 76
1, 11328, Note_on_c, 1, 60, 76
1, 11328, Note_on_c, 1, 57, 76
1, 11376, Note_on_c, 0, 84, 0
1, 11376, Note_on_c, 0, 83, 78
1, 11417, Note_on_c, 1, 64, 0
1, 11417, Note_on_c, 1, 60, 0
1, 11417, Note_on_c, 1, 57, 0
1, 11421, Note_on_c, 0, 83, 0
1, 11424, Note_on_c, 0, 84, 79
1, 11424, Note_on_c, 1, 64, 78
1, 11424, Note_on_c, 1, 60, 78
1, 11424, Note_on_c, 1, 57, 78
1, 11513, Note_on_c, 0, 84, 0
1, 11513, Note_on_c, 1, 64, 0
1, 11513, Note_on_c, 1, 60, 0
1, 11513, Note_on_c, 1, 57, 0
1, 11520, Note_on_c, 0, 79, 97
1, 11520, Note_on_c, 1, 60, 80
1, 11520, Note_on_c, 1, 50, 80
1, 11568, Note_on_c, 0, 79, 0
1, 11568, Note_on_c, 0, 78, 82
1, 11609, Note_on_c, 1, 60, 0
1, 11609, Note_on_c, 1, 50, 0
1, 11613, Note_on_c, 0, 78, 0
1, 11616, Note_on_c, 0, 78, 82
1, 11616, Note_on_c, 1, 60, 82
1, 11616, Note_on_c, 1, 50, 82
1, 11664, Note_on_c, 0, 78, 0
1, 11664, Note_on_c, 0, 76, 82
1, 11705, Note_on_c, 1, 60, 0
1, 11705, Note_on_c, 1, 50, 0
1, 11709, Note_on_c, 0, 76, 0
1, 11712, Note_on_c, 0, 78, 82
1, 11712, Note_on_c, 1, 60, 82
1, 11712, Note_on_c, 1, 50, 82
1, 11801, Note_on_c, 0, 78, 0
1, 11808, Note_on_c, 0, 79, 98
1, 11808, Note_on_c, 0, 71, 98
1, 11808, Note_on_c, 1, 60, 0
1, 11808, Note_on_c, 1, 50, 0
1, 11808, Note_on_c, 1, 59, 82
1, 11808, Note_on_c, 1, 55, 82
1, 11847, Note_on_c, 1, 59, 0
1, 11847, Note_on_c, 1, 55, 0
1, 11856, Note_on_c, 0, 79, 0
1, 11856, Note_on_c, 0, 71, 0
1, 11856, Note_on_c, 0, 78, 82
1, 11901, Note_on_c, 0, 78, 0
1, 11904, Note_on_c, 0, 79, 82
1, 11949, Note_on_c, 0, 79, 0
1, 11952, Note_on_c, 0, 74, 82
1, 11997, Note_on_c, 0, 74, 0
1, 12000, Note_on_c, 0, 84, 82
1, 12000, Note_on_c, 1, 57, 82
1, 12000, Note_on_c, 1, 50, 82
1, 12045, Note_on_c, 0, 84, 0
1, 12048, Note_on_c, 0, 78, 82
1, 12093, Note_on_c, 0, 78, 0
1, 12096, Note_on_c, 0, 79, 98
1, 12096, Note_on_c, 1, 57, 0
1, 12096, Note_on_c, 1, 50, 0
1, 12096, Note_on_c, 1, 59, 82
1, 12096, Note_on_c, 1, 55, 82
1, 12135, Note_on_c, 1, 59, 0
1, 12135, Note_on_c, 1, 55, 0
1, 12144, Note_on_c, 0, 79, 0
1, 12144, Note_on_c, 0, 78, 82
1, 12189, Note_on_c, 0, 78, 0
1, 12192, Note_on_c, 0, 79, 82
1, 12237, Note_on_c, 0, 79, 0
1, 12240, Note_on_c, 0, 74, 82
1, 12285, Note_on_c, 0, 74, 0
1, 12288, Note_on_c, 0, 84, 82
1, 12288, Note_on_c, 1, 57, 82
1, 12288, Note_on_c, 1, 50, 82
1, 12333, Note_on_c, 0, 84, 0
1, 12336, Note_on_c, 0, 78, 82
1, 12381, Note_on_c, 0, 78, 0
1, 12384, Note_on_c, 0, 79, 98
1, 12384, Note_on_c, 1, 57, 0
1, 12384, Note_on_c, 1, 50, 0
1, 12384, Note_on_c, 1, 59, 82
1, 12384, Note_on_c, 1, 55, 82
1, 12423, Note_on_c, 1, 59, 0
1, 12423, Note_on_c, 1, 55, 0
1, 12432, Note_on_c, 0, 79, 0
1, 12432, Note_on_c, 0, 78, 82
1, 12477, Note_on_c, 0, 78, 0
1, 12480, Note_on_c, 0, 79, 82
1, 12525, Note_on_c, 0, 79, 0
1, 12528, Note_on_c, 0, 74, 82
1, 12573, Note_on_c, 0, 74, 0
1, 12576, Note_on_c, 0, 84, 82
1, 12576, Note_on_c, 1, 57, 82
1, 12576, Note_on_c, 1, 50, 82
1, 12621, Note_on_c, 0, 84, 0
1, 12624, Note_on_c, 0, 78, 82
1, 12669, Note_on_c, 0, 78, 0
1, 12672, Note_on_c, 0, 79, 98
1, 12672, Note_on_c, 1, 57, 0
1, 12672, Note_on_c, 1, 50, 0
1, 12672, Note_on_c, 1, 59, 82
1, 12672, Note_on_c, 1, 55, 82
1, 12711, Note_on_c, 1, 59, 0
1, 12711, Note_on_c, 1, 55, 0
1, 12720, Note_on_c, 0, 79, 0
1, 12720, Note_on_c, 0, 78, 70
1, 12765, Note_on_c, 0, 78, 0
1, 12768, Note_on_c, 0, 79, 70
1, 12768, Note_on_c, 1, 74, 70
1, 12768, Note_on_c, 1, 71, 70
1, 12813, Note_on_c, 0, 79, 0
1, 12816, Note_on_c, 0, 78, 71
1, 12857, Note_on_c, 1, 74, 0
1, 12857, Note_on_c, 1, 71, 0
1, 12861, Note_on_c, 0, 78, 0
1, 12864, Note_on_c, 0, 79, 72
1, 12864, Note_on_c, 1, 72, 71
1, 12864, Note_on_c, 1, 69, 71
1, 12909, Note_on_c, 0, 79, 0
1, 12912, Note_on_c, 0, 78, 72
1, 12953, Note_on_c, 1, 72, 0
1, 12953, Note_on_c, 1, 69, 0
1, 12957, Note_on_c, 0, 78, 0
1, 12960, Note_on_c, 0, 79, 89
1, 12960, Note_on_c, 1, 71, 72
1, 12960, Note_on_c, 1, 67, 72
1, 12999, Note_on_c, 1, 71, 0
1, 12999, Note_on_c, 1, 67, 0
1, 13008, Note_on_c, 0, 79, 0
1, 13008, Note_on_c, 0, 78, 74
1, 13053, Note_on_c, 0, 78, 0
1, 13056, Note_on_c, 0, 79, 74
1, 13056, Note_on_c, 1, 62, 74
1, 13056, Note_on_c, 1, 59, 74
1, 13101, Note_on_c, 0, 79, 0
1, 13104, Note_on_c, 0, 78, 75
1, 13145, Note_on_c, 1, 62, 0
1, 13145, Note_on_c, 1, 59, 0
1, 13149, Note_on_c, 0, 78, 0
1, 13152, Note_on_c, 0, 79, 76
1, 13152, Note_on_c, 1, 60, 75
1, 13152, Note_on_c, 1, 57, 75
1, 13197, Note_on_c, 0, 79, 0
1, 13200, Note_on_c, 0, 78, 76
1, 13241, Note_on_c, 1, 60, 0
1, 13241, Note_on_c, 1, 57, 0
1, 13245, Note_on_c, 0, 78, 0
1, 13248, Note_on_c, 0, 79, 93
1, 13248, Note_on_c, 1, 59, 76
1, 13248, Note_on_c, 1, 55, 76
1, 13287, Note_on_c, 1, 59, 0
1, 13287, Note_on_c, 1, 55, 0
1, 13296, Note_on_c, 0, 79, 0
1, 13296, Note_on_c, 0, 78, 78
1, 13341, Note_on_c, 0, 78, 0
1, 13344, Note_on_c, 0, 79, 78
1, 13344, Note_on_c, 1, 50, 78
1, 13344, Note_on_c, 1, 47, 78
1, 13389, Note_on_c, 0, 79, 0
1, 13392, Note_on_c, 0, 78, 79
1, 13433, Note_on_c, 1, 50, 0
1, 13433, Note_on_c, 1, 47, 0
1, 13437, Note_on_c, 0, 78, 0
1, 13440, Note_on_c, 0, 79, 80
1, 13440, Note_on_c, 1, 48, 79
1, 13440, Note_on_c, 1, 45, 79
1, 13485, Note_on_c, 0, 79, 0
1, 13488, Note_on_c, 0, 78, 80
1, 13529, Note_on_c, 1, 48, 0
1, 13529, Note_on_c, 1, 45, 0
1, 13533, Note_on_c, 0, 78, 0
1, 13536, Note_on_c, 0, 79, 97
1, 13536, Note_on_c, 1, 47, 80
1, 13536, Note_on_c, 1, 43, 80
1, 13575, Note_on_c, 1, 47, 0
1, 13575, Note_on_c, 1, 43, 0
1, 13584, Note_on_c, 0, 79, 0
1, 13584, Note_on_c, 0, 83, 82
1, 13629, Note_on_c, 0, 83, 0
1, 13632, Note_on_c, 0, 74, 82
1, 13677, Note_on_c, 0, 74, 0
1, 13680, Note_on_c, 0, 79, 82
1, 13725, Note_on_c, 0, 79, 0
1, 13728, Note_on_c, 0, 71, 82
1, 13773, Note_on_c, 0, 71, 0
1, 13776, Note_on_c, 0, 74, 82
1, 13821, Note_on_c, 0, 74, 0
1, 13824, Note_on_c, 0, 67, 98
1, 13920, Note_on_c, 0, 67, 0
1, 14016, Note_on_c, 0, 79, 70
1, 14016, Note_on_c, 0, 67, 70
1, 14016, Note_on_c, 1, 55, 70
1, 14105, Note_on_c, 0, 79, 0
1, 14105, Note_on_c, 0, 67, 0
1, 14105, Note_on_c, 1, 55, 0
1, 14112, Note_on_c, 0, 78, 86
1, 14112, Note_on_c, 0, 67, 86
1, 14112, Note_on_c, 1, 57, 70
1, 14201, Note_on_c, 1, 57, 0
1, 14208, Note_on_c, 0, 78, 0
1, 14208, Note_on_c, 0, 67, 0
1, 14208, Note_on_c, 0, 77, 70
1, 14208, Note_on_c, 0, 67, 70
1, 14208, Note_on_c, 1, 59, 70
1, 14297, Note_on_c, 0, 77, 0
1, 14297, Note_on_c, 0, 67, 0
1, 14297, Note_on_c, 1, 59, 0
1, 14304, Note_on_c, 0, 76, 70
1, 14304, Note_on_c, 0, 67, 70
1, 14304, Note_on_c, 1, 61, 70
1, 14393, Note_on_c, 0, 76, 0
1, 14393, Note_on_c, 0, 67, 0
1, 14393, Note_on_c, 1, 61, 0
1, 14400, Note_on_c, 0, 77, 86
1, 14400, Note_on_c, 0, 67, 70
1, 14400, Note_on_c, 1, 62, 70
1, 14439, Note_on_c, 0, 77, 0
1, 14439, Note_on_c, 1, 62, 0
1, 14494, Note_on_c, 0, 67, 0
1, 14496, Note_on_c, 0, 77, 70
1, 14496, Note_on_c, 0, 67, 70
1, 14496, Note_on_c, 1, 62, 70
1, 14544, Note_on_c, 0, 77, 0
1, 14544, Note_on_c, 0, 76, 70
1, 14544, Note_on_c, 1, 62, 0
1, 14544, Note_on_c, 1, 61, 70
1, 14589, Note_on_c, 0, 76, 0
1, 14589, Note_on_c, 1, 61, 0
1, 14592, Note_on_c, 0, 77, 70
1, 14592, Note_on_c, 1, 62, 70
1, 14673, Note_on_c, 0, 67, 0
1, 14681, Note_on_c, 0, 77, 0
1, 14681, Note_on_c, 1, 62, 0
1, 14688, Note_on_c, 0, 74, 70
1, 14688, Note_on_c, 1, 59, 70
1, 14777, Note_on_c, 0, 74, 0
1, 14777, Note_on_c, 1, 59, 0
1, 14880, Note_on_c, 0, 91, 66
1, 14880, Note_on_c, 1, 67, 66
1, 14969, Note_on_c, 0, 91, 0
1, 14969, Note_on_c, 1, 67, 0
1, 14976, Note_on_c, 0, 90, 82
1, 14976, Note_on_c, 1, 69, 66
1, 15065, Note_on_c, 1, 69, 0
1, 15072, Note_on_c, 0, 90, 0
1, 15072, Note_on_c, 0, 89, 66
1, 15072, Note_on_c, 1, 71, 66
1, 15161, Note_on_c, 0, 89, 0
1, 15161, Note_on_c, 1, 71, 0
1, 15168, Note_on_c, 0, 88, 66
1, 15168, Note_on_c, 1, 73, 66
1, 15257, Note_on_c, 0, 88, 0
1, 15257, Note_on_c, 1, 73, 0
1, 15264, Note_on_c, 0, 89, 82
1, 15264, Note_on_c, 0, 79, 66
1, 15264, Note_on_c, 1, 74, 66
1, 15303, Note_on_c, 0, 89, 0
1, 15303, Note_on_c, 0, 79, 0
1, 15303, Note_on_c, 1, 74, 0
1, 15360, Note_on_c, 0, 89, 67
1, 15360, Note_on_c, 0, 79, 67
1, 15360, Note_on_c, 1, 74, 67
1, 15408, Note_on_c, 0, 89, 0
1, 15408, Note_on_c, 0, 88, 67
1, 15408, Note_on_c, 1, 74, 0
1, 15408, Note_on_c, 1, 73, 67
1, 15453, Note_on_c, 0, 88, 0
1, 15453, Note_on_c, 1, 73, 0
1, 15456, Note_on_c, 0, 89, 68
1, 15456, Note_on_c, 1, 74, 68
1, 15537, Note_on_c, 0, 79, 0
1, 15545, Note_on_c, 0, 89, 0
1, 15545, Note_on_c, 1, 74, 0
1, 15552, Note_on_c, 0, 89, 85
1, 15552, Note_on_c, 0, 79, 69
1, 15552, Note_on_c, 1, 74, 69
1, 15591, Note_on_c, 0, 89, 0
1, 15591, Note_on_c, 0, 79, 0
1, 15591, Note_on_c, 1, 74, 0
1, 15648, Note_on_c, 0, 89, 70
1, 15648, Note_on_c, 0, 79, 70
1, 15648, Note_on_c, 1, 74, 70
1, 15696, Note_on_c, 0, 89, 0
1, 15696, Note_on_c, 0, 88, 71
1, 15696, Note_on_c, 1, 74, 0
1, 15696, Note_on_c, 1, 73, 71
1, 15741, Note_on_c, 0, 88, 0
1, 15741, Note_on_c, 1, 73, 0
1, 15744, Note_on_c, 0, 89, 72
1, 15744, Note_on_c, 1, 74, 72
1, 15825, Note_on_c, 0, 79, 0
1, 15833, Note_on_c, 0, 89, 0
1, 15833, Note_on_c, 1, 74, 0
1, 15840, Note_on_c, 0, 89, 89
1, 15840, Note_on_c, 0, 80, 72
1, 15840, Note_on_c, 1, 74, 73
1, 15879, Note_on_c, 0, 89, 0
1, 15879, Note_on_c, 0, 80, 0
1, 15879, Note_on_c, 1, 74, 0
1, 15936, Note_on_c, 0, 89, 74
1, 15936, Note_on_c, 0, 80, 74
1, 15936, Note_on_c, 1, 74, 74
1, 15984, Note_on_c, 0, 89, 0
1, 15984, Note_on_c, 0, 88, 75
1, 15984, Note_on_c, 1, 74, 0
1, 15984, Note_on_c, 1, 73, 75
1, 16029, Note_on_c, 0, 88, 0
1, 16029, Note_on_c, 1, 73, 0
1, 16032, Note_on_c, 0, 89, 75
1, 16032, Note_on_c, 1, 74, 75
1, 16113, Note_on_c, 0, 80, 0
1, 16121, Note_on_c, 0, 89, 0
1, 16121, Note_on_c, 1, 74, 0
1, 16128, Note_on_c, 0, 89, 93
1, 16128, Note_on_c, 0, 80, 76
1, 16128, Note_on_c, 1, 74, 77
1, 16167, Note_on_c, 0, 80, 0
1, 16167, Note_on_c, 1, 74, 0
1, 16222, Note_on_c, 0, 89, 0
1, 16224, Note_on_c, 0, 89, 78
1, 16224, Note_on_c, 0, 80, 77
1, 16224, Note_on_c, 1, 74, 78
1, 16272, Note_on_c, 0, 89, 0
1, 16272, Note_on_c, 0, 88, 78
1, 16272, Note_on_c, 1, 74, 0
1, 16272, Note_on_c, 1, 73, 78
1, 16317, Note_on_c, 0, 88, 0
1, 16317, Note_on_c, 1, 73, 0
1, 16320, Note_on_c, 0, 89, 79
1, 16320, Note_on_c, 1, 74, 79
1, 16401, Note_on_c, 0, 80, 0
1, 16409, Note_on_c, 0, 89, 0
1, 16409, Note_on_c, 1, 74, 0
1, 16416, Note_on_c, 0, 88, 80
1, 16416, Note_on_c, 0, 81, 80
1, 16416, Note_on_c, 1, 73, 80
1, 16455, Note_on_c, 0, 88, 0
1, 16455, Note_on_c, 0, 81, 0
1, 16455, Note_on_c, 1, 73, 0
1, 16512, Note_on_c, 0, 81, 82
1, 16512, Note_on_c, 1, 76, 82
1, 16512, Note_on_c, 1, 73, 82
1, 16557, Note_on_c, 0, 81, 0
1, 16560, Note_on_c, 0, 80, 82
1, 16601, Note_on_c, 1, 76, 0
1, 16601, Note_on_c, 1, 73, 0
1, 16605, Note_on_c, 0, 80, 0
1, 16608, Note_on_c, 0, 81, 82
1, 16608, Note_on_c, 1, 74, 82
1, 16608, Note_on_c, 1, 71, 82
1, 16653, Note_on_c, 0, 81, 0
1, 16656, Note_on_c, 0, 80, 82
1, 16697, Note_on_c, 1, 74, 0
1, 16697, Note_on_c, 1, 71, 0
1, 16701, Note_on_c, 0, 80, 0
1, 16704, Note_on_c, 0, 81, 98
1, 16704, Note_on_c, 1, 73, 82
1, 16704, Note_on_c, 1, 69, 82
1, 16743, Note_on_c, 1, 73, 0
1, 16743, Note_on_c, 1, 69, 0
1, 16752, Note_on_c, 0, 81, 0
1, 16752, Note_on_c, 0, 80, 81
1, 16797, Note_on_c, 0, 80, 0
1, 16800, Note_on_c, 0, 81, 81
1, 16800, Note_on_c, 1, 64, 82
1, 16800, Note_on_c, 1, 61, 82
1, 16845, Note_on_c, 0, 81, 0
1, 16848, Note_on_c, 0, 80, 80
1, 16889, Note_on_c, 1, 64, 0
1, 16889, Note_on_c, 1, 61, 0
1, 16893, Note_on_c, 0, 80, 0
1, 16896, Note_on_c, 0, 81, 80
1, 16896, Note_on_c, 1, 62, 80
1, 16896, Note_on_c, 1, 59, 80
1, 16941, Note_on_c, 0, 81, 0
1, 16944, Note_on_c, 0, 80, 79
1, 16985, Note_on_c, 1, 62, 0
1, 16985, Note_on_c, 1, 59, 0
1, 16989, Note_on_c, 0, 80, 0
1, 16992, Note_on_c, 0, 81, 95
1, 16992, Note_on_c, 1, 61, 79
1, 16992, Note_on_c, 1, 57, 79
1, 17031, Note_on_c, 1, 61, 0
1, 17031, Note_on_c, 1, 57, 0
1, 17040, Note_on_c, 0, 81, 0
1, 17040, Note_on_c, 0, 80, 78
1, 17085, Note_on_c, 0, 80, 0
1, 17088, Note_on_c, 0, 81, 78
1, 17088, Note_on_c, 1, 52, 78
1, 17088, Note_on_c, 1, 49, 78
1, 17133, Note_on_c, 0, 81, 0
1, 17136, Note_on_c, 0, 80, 78
1, 17177, Note_on_c, 1, 52, 0
1, 17177, Note_on_c, 1, 49, 0
1, 17181, Note_on_c, 0, 80, 0
1, 17184, Note_on_c, 0, 81, 77
1, 17184, Note_on_c, 1, 50, 76
1, 17184, Note_on_c, 1, 47, 76
1, 17229, Note_on_c, 0, 81, 0
1, 17232, Note_on_c, 0, 80, 77
1, 17273, Note_on_c, 1, 50, 0
1, 17273, Note_on_c, 1, 47, 0
1, 17277, Note_on_c, 0, 80, 0
1, 17280, Note_on_c, 0, 81, 92
1, 17280, Note_on_c, 1, 49, 75
1, 17280, Note_on_c, 1, 45, 75
1, 17319, Note_on_c, 1, 49, 0
1, 17319, Note_on_c, 1, 45, 0
1, 17328, Note_on_c, 0, 81, 0
1, 17328, Note_on_c, 0, 79, 76
1, 17373, Note_on_c, 0, 79, 0
1, 17376, Note_on_c, 0, 82, 75
1, 17421, Note_on_c, 0, 82, 0
1, 17424, Note_on_c, 0, 81, 75
1, 17469, Note_on_c, 0, 81, 0
1, 17472, Note_on_c, 0, 79, 74
1, 17517, Note_on_c, 0, 79, 0
1, 17520, Note_on_c, 0, 77, 74
1, 17565, Note_on_c, 0, 77, 0
1, 17568, Note_on_c, 0, 76, 90
1, 17616, Note_on_c, 0, 76, 0
1, 17616, Note_on_c, 0, 74, 75
1, 17661, Note_on_c, 0, 74, 0
1, 17664, Note_on_c, 0, 73, 76
1, 17709, Note_on_c, 0, 73, 0
1, 17712, Note_on_c, 0, 70, 78
1, 17757, Note_on_c, 0, 70, 0
1, 17760, Note_on_c, 0, 69, 79
1, 17805, Note_on_c, 0, 69, 0
1, 17808, Note_on_c, 0, 67, 80
1, 17853, Note_on_c, 0, 67, 0
1, 17856, Note_on_c, 0, 65, 98
1, 17856, Note_on_c, 1, 38, 82
1, 17868, Note_on_c, 1, 41, 82
1, 17880, Note_on_c, 1, 45, 82
1, 17892, Note_on_c, 1, 50, 82
1, 17904, Note_on_c, 0, 65, 0
1, 17904, Note_on_c, 0, 64, 82
1, 17945, Note_on_c, 1, 50, 0
1, 17945, Note_on_c, 1, 45, 0
1, 17945, Note_on_c, 1, 41, 0
1, 17945, Note_on_c, 1, 38, 0
1, 17949, Note_on_c, 0, 64, 0
1, 17952, Note_on_c, 0, 62, 82
1, 17952, Note_on_c, 1, 57, 82
1, 17952, Note_on_c, 1, 53, 82
1, 17997, Note_on_c, 0, 62, 0
1, 18000, Note_on_c, 0, 61, 82
1, 18041, Note_on_c, 1, 57, 0
1, 18041, Note_on_c, 1, 53, 0
1, 18045, Note_on_c, 0, 61, 0
1, 18048, Note_on_c, 0, 62, 82
1, 18048, Note_on_c, 1, 55, 82
1, 18048, Note_on_c, 1, 52, 82
1, 18093, Note_on_c, 0, 62, 0
1, 18096, Note_on_c, 0, 61, 82
1, 18137, Note_on_c, 1, 55, 0
1, 18137, Note_on_c, 1, 52, 0
1, 18141, Note_on_c, 0, 61, 0
1, 18144, Note_on_c, 0, 62, 98
1, 18144, Note_on_c, 1, 53, 82
1, 18144, Note_on_c, 1, 50, 82
1, 18183, Note_on_c, 1, 53, 0
1, 18183, Note_on_c, 1, 50, 0
1, 18192, Note_on_c, 0, 62, 0
1, 18192, Note_on_c, 0, 61, 82
1, 18237, Note_on_c, 0, 61, 0
1, 18240, Note_on_c, 0, 62, 82
1, 18240, Note_on_c, 1, 57, 82
1, 18240, Note_on_c, 1, 53, 82
1, 18285, Note_on_c, 0, 62, 0
1, 18288, Note_on_c, 0, 61, 82
1, 18329, Note_on_c, 1, 57, 0
1, 18329, Note_on_c, 1, 53, 0
1, 18333, Note_on_c, 0, 61, 0
1, 18336, Note_on_c, 0, 62, 82
1, 18336, Note_on_c, 1, 55, 82
1, 18336, Note_on_c, 1, 52, 82
1, 18381, Note_on_c, 0, 62, 0
1, 18384, Note_on_c, 0, 61, 82
1, 18425, Note_on_c, 1, 55, 0
1, 18425, Note_on_c, 1, 52, 0
1, 18429, Note_on_c, 0, 61, 0
1, 18432, Note_on_c, 0, 62, 98
1, 18432, Note_on_c, 1, 53, 82
1, 18432, Note_on_c, 1, 50, 82
1, 18471, Note_on_c, 1, 53, 0
1, 18471, Note_on_c, 1, 50, 0
1, 18480, Note_on_c, 0, 62, 0
1, 18480, Note_on_c, 0, 63, 82
1, 18525, Note_on_c, 0, 63, 0
1, 18528, Note_on_c, 0, 62, 82
1, 18528, Note_on_c, 1, 57, 82
1, 18528, Note_on_c, 1, 54, 82
1, 18573, Note_on_c, 0, 62, 0
1, 18576, Note_on_c, 0, 63, 82
1, 18617, Note_on_c, 1, 57, 0
1, 18617, Note_on_c, 1, 54, 0
1, 18621, Note_on_c, 0, 63, 0
1, 18624, Note_on_c, 0, 62, 82
1, 18624, Note_on_c, 1, 58, 82
1, 18624, Note_on_c, 1, 55, 82
1, 18669, Note_on_c, 0, 62, 0
1, 18672, Note_on_c, 0, 63, 81
1, 18713, Note_on_c, 1, 58, 0
1, 18713, Note_on_c, 1, 55, 0
1, 18717, Note_on_c, 0, 63, 0
1, 18720, Note_on_c, 0, 62, 97
1, 18720, Note_on_c, 1, 60, 81
1, 18720, Note_on_c, 1, 57, 81
1, 18759, Note_on_c, 1, 60, 0
1, 18759, Note_on_c, 1, 57, 0
1, 18768, Note_on_c, 0, 62, 0
1, 18768, Note_on_c, 0, 63, 80
1, 18813, Note_on_c, 0, 63, 0
1, 18816, Note_on_c, 0, 62, 80
1, 18816, Note_on_c, 1, 57, 80
1, 18816, Note_on_c, 1, 54, 80
1, 18861, Note_on_c, 0, 62, 0
1, 18864, Note_on_c, 0, 63, 79
1, 18905, Note_on_c, 1, 57, 0
1, 18905, Note_on_c, 1, 54, 0
1, 18909, Note_on_c, 0, 63, 0
1, 18912, Note_on_c, 0, 62, 79
1, 18912, Note_on_c, 1, 58, 79
1, 18912, Note_on_c, 1, 55, 79
1, 18957, Note_on_c, 0, 62, 0
1, 18960, Note_on_c, 0, 63, 78
1, 19001, Note_on_c, 1, 58, 0
1, 19001, Note_on_c, 1, 55, 0
1, 19005, Note_on_c, 0, 63, 0
1, 19008, Note_on_c, 0, 62, 94
1, 19008, Note_on_c, 1, 60, 78
1, 19008, Note_on_c, 1, 57, 78
1, 19056, Note_on_c, 0, 62, 0
1, 19056, Note_on_c, 0, 63, 77
1, 19101, Note_on_c, 0, 63, 0
1, 19104, Note_on_c, 0, 62, 77
1, 19149, Note_on_c, 0, 62, 0
1, 19152, Note_on_c, 0, 63, 76
1, 19197, Note_on_c, 0, 63, 0
1, 19200, Note_on_c, 0, 62, 76
1, 19245, Note_on_c, 0, 62, 0
1, 19248, Note_on_c, 0, 63, 75
1, 19293, Note_on_c, 0, 63, 0
1, 19296, Note_on_c, 0, 62, 91
1, 19344, Note_on_c, 0, 62, 0
1, 19344, Note_on_c, 0, 63, 74
1, 19389, Note_on_c, 0, 63, 0
1, 19392, Note_on_c, 0, 62, 74
1, 19437, Note_on_c, 0, 62, 0
1, 19440, Note_on_c, 0, 63, 73
1, 19485, Note_on_c, 0, 63, 0
1, 19488, Note_on_c, 0, 62, 73
1, 19533, Note_on_c, 0, 62, 0
1, 19536, Note_on_c, 0, 63, 72
1, 19581, Note_on_c, 0, 63, 0
1, 19584, Note_on_c, 0, 62, 88
1, 19776, Note_on_c, 0, 62, 0
1, 19776, Note_on_c, 0, 62, 70
1, 19865, Note_on_c, 0, 62, 0
1, 19865, Note_on_c, 1, 60, 0
1, 19865, Note_on_c, 1, 57, 0
1, 19872, Note_on_c, 0, 67, 86
1, 19872, Note_on_c, 1, 58, 70
1, 19872, Note_on_c, 1, 55, 70
1, 19911, Note_on_c, 0, 67, 0
1, 19911, Note_on_c, 1, 58, 0
1, 19911, Note_on_c, 1, 55, 0
1, 19968, Note_on_c, 0, 67, 70
1, 19968, Note_on_c, 1, 60, 70
1, 19968, Note_on_c, 1, 57, 70
1, 20007, Note_on_c, 0, 67, 0
1, 20007, Note_on_c, 1, 60, 0
1, 20007, Note_on_c, 1, 57, 0
1, 20064, Note_on_c, 0, 67, 70
1, 20064, Note_on_c, 1, 62, 70
1, 20064, Note_on_c, 1, 58, 70
1, 20103, Note_on_c, 0, 67, 0
1, 20103, Note_on_c, 1, 62, 0
1, 20103, Note_on_c, 1, 58, 0
1, 20160, Note_on_c, 0, 70, 86
1, 20160, Note_on_c, 1, 63, 70
1, 20160, Note_on_c, 1, 60, 70
1, 20208, Note_on_c, 0, 70, 0
1, 20208, Note_on_c, 0, 69, 70
1, 20253, Note_on_c, 0, 69, 0
1, 20256, Note_on_c, 0, 69, 70
1, 20304, Note_on_c, 0, 69, 0
1, 20304, Note_on_c, 0, 67, 70
1, 20349, Note_on_c, 0, 67, 0
1, 20352, Note_on_c, 0, 69, 70
1, 20425, Note_on_c, 1, 63, 0
1, 20425, Note_on_c, 1, 60, 0
1, 20441, Note_on_c, 0, 69, 0
1, 20448, Note_on_c, 0, 71, 70
1, 20448, Note_on_c, 1, 65, 70
1, 20448, Note_on_c, 1, 62, 70
1, 20537, Note_on_c, 1, 65, 0
1, 20537, Note_on_c, 1, 62, 0
1, 20589, Note_on_c, 0, 71, 0
1, 20640, Note_on_c, 0, 67, 70
1, 20729, Note_on_c, 0, 67, 0
1, 20736, Note_on_c, 0, 72, 86
1, 20736, Note_on_c, 1, 52, 70
1, 20736, Note_on_c, 1, 48, 70
1, 20775, Note_on_c, 0, 72, 0
1, 20775, Note_on_c, 1, 52, 0
1, 20775, Note_on_c, 1, 48, 0
1, 20832, Note_on_c, 0, 72, 70
1, 20832, Note_on_c, 1, 53, 70
1, 20832, Note_on_c, 1, 50, 70
1, 20871, Note_on_c, 0, 72, 0
1, 20871, Note_on_c, 1, 53, 0
1, 20871, Note_on_c, 1, 50, 0
1, 20928, Note_on_c, 0, 72, 70
1, 20928, Note_on_c, 1, 55, 71
1, 20928, Note_on_c, 1, 52, 71
1, 20967, Note_on_c, 0, 72, 0
1, 20967, Note_on_c, 1, 55, 0
1, 20967, Note_on_c, 1, 52, 0
1, 21024, Note_on_c, 0, 76, 86
1, 21024, Note_on_c, 1, 57, 72
1, 21024, Note_on_c, 1, 53, 72
1, 21072, Note_on_c, 0, 76, 0
1, 21072, Note_on_c, 0, 74, 70
1, 21113, Note_on_c, 1, 57, 0
1, 21113, Note_on_c, 1, 53, 0
1, 21117, Note_on_c, 0, 74, 0
1, 21120, Note_on_c, 0, 74, 70
1, 21168, Note_on_c, 0, 74, 0
1, 21168, Note_on_c, 0, 72, 70
1, 21213, Note_on_c, 0, 72, 0
1, 21216, Note_on_c, 0, 74, 70
1, 21255, Note_on_c, 0, 74, 0
1, 21312, Note_on_c, 0, 72, 86
1, 21312, Note_on_c, 1, 65, 75
1, 21312, Note_on_c, 1, 62, 75
1, 21312, Note_on_c, 1, 55, 75
1, 21360, Note_on_c, 0, 72, 0
1, 21360, Note_on_c, 0, 71, 70
1, 21401, Note_on_c, 1, 65, 0
1, 21401, Note_on_c, 1, 62, 0
1, 21401, Note_on_c, 1, 55, 0
1, 21405, Note_on_c, 0, 71, 0
1, 21408, Note_on_c, 0, 71, 70
1, 21456, Note_on_c, 0, 71, 0
1, 21456, Note_on_c, 0, 69, 70
1, 21501, Note_on_c, 0, 69, 0
1, 21504, Note_on_c, 0, 71, 70
1, 21543, Note_on_c, 0, 71, 0
1, 21600, Note_on_c, 0, 67, 86
1, 21600, Note_on_c, 1, 55, 77
1, 21600, Note_on_c, 1, 52, 77
1, 21618, Note_on_c, 0, 72, 86
1, 21636, Note_on_c, 0, 76, 86
1, 21645, Note_on_c, 1, 55, 0
1, 21645, Note_on_c, 1, 52, 0
1, 21648, Note_on_c, 1, 60, 78
1, 21654, Note_on_c, 0, 79, 86
1, 21693, Note_on_c, 1, 60, 0
1, 21696, Note_on_c, 1, 55, 78
1, 21696, Note_on_c, 1, 52, 78
1, 21741, Note_on_c, 1, 55, 0
1, 21741, Note_on_c, 1, 52, 0
1, 21744, Note_on_c, 1, 60, 78
1, 21789, Note_on_c, 0, 79, 0
1, 21789, Note_on_c, 0, 76, 0
1, 21789, Note_on_c, 0, 72, 0
1, 21789, Note_on_c, 0, 67, 0
1, 21789, Note_on_c, 1, 60, 0
1, 21792, Note_on_c, 0, 76, 70
1, 21792, Note_on_c, 1, 55, 78
1, 21792, Note_on_c, 1, 52, 78
1, 21837, Note_on_c, 1, 55, 0
1, 21837, Note_on_c, 1, 52, 0
1, 21840, Note_on_c, 0, 76, 0
1, 21840, Note_on_c, 0, 72, 70
1, 21840, Note_on_c, 1, 60, 78
1, 21885, Note_on_c, 0, 72, 0
1, 21885, Note_on_c, 1, 60, 0
1, 21888, Note_on_c, 0, 72, 86
1, 21888, Note_on_c, 1, 59, 78
1, 21888, Note_on_c, 1, 55, 78
1, 21888, Note_on_c, 1, 53, 78
1, 21933, Note_on_c, 1, 59, 0
1, 21933, Note_on_c, 1, 55, 0
1, 21933, Note_on_c, 1, 53, 0
1, 21936, Note_on_c, 0, 72, 0
1, 21936, Note_on_c, 0, 71, 70
1, 21936, Note_on_c, 1, 62, 78
1, 21981, Note_on_c, 0, 71, 0
1, 21981, Note_on_c, 1, 62, 0
1, 21984, Note_on_c, 0, 71, 70
1, 21984, Note_on_c, 1, 59, 78
1, 21984, Note_on_c, 1, 55, 78
1, 21984, Note_on_c, 1, 53, 78
1, 22029, Note_on_c, 1, 59, 0
1, 22029, Note_on_c, 1, 55, 0
1, 22029, Note_on_c, 1, 53, 0
1, 22032, Note_on_c, 0, 71, 0
1, 22032, Note_on_c, 0, 69, 70
1, 22032, Note_on_c, 1, 62, 78
1, 22077, Note_on_c, 0, 69, 0
1, 22077, Note_on_c, 1, 62, 0
1, 22080, Note_on_c, 0, 71, 70
1, 22080, Note_on_c, 1, 59, 78
1, 22080, Note_on_c, 1, 55, 78
1, 22080, Note_on_c, 1, 53, 78
1, 22119, Note_on_c, 0, 71, 0
1, 22125, Note_on_c, 1, 59, 0
1, 22125, Note_on_c, 1, 55, 0
1, 22125, Note_on_c, 1, 53, 0
1, 22128, Note_on_c, 1, 62, 78
1, 22173, Note_on_c, 1, 62, 0
1, 22176, Note_on_c, 0, 67, 86
1, 22176, Note_on_c, 1, 55, 78
1, 22176, Note_on_c, 1, 52, 78
1, 22194, Note_on_c, 0, 72, 86
1, 22212, Note_on_c, 0, 76, 86
1, 22221, Note_on_c, 1, 55, 0
1, 22221, Note_on_c, 1, 52, 0
1, 22224, Note_on_c, 1, 60, 78
1, 22230, Note_on_c, 0, 79, 86
1, 22269, Note_on_c, 1, 60, 0
1, 22272, Note_on_c, 1, 55, 78
1, 22272, Note_on_c, 1, 52, 78
1, 22317, Note_on_c, 1, 55, 0
1, 22317, Note_on_c, 1, 52, 0
1, 22320, Note_on_c, 1, 60, 78
1, 22365, Note_on_c, 0, 79, 0
1, 22365, Note_on_c, 0, 76, 0
1, 22365, Note_on_c, 0, 72, 0
1, 22365, Note_on_c, 0, 67, 0
1, 22365, Note_on_c, 1, 60, 0
1, 22368, Note_on_c, 0, 76, 70
1, 22368, Note_on_c, 1, 55, 78
1, 22368, Note_on_c, 1, 52, 78
1, 22413, Note_on_c, 1, 55, 0
1, 22413, Note_on_c, 1, 52, 0
1, 22416, Note_on_c, 0, 76, 0
1, 22416, Note_on_c, 0, 72, 70
1, 22416, Note_on_c, 1, 60, 78
1, 22461, Note_on_c, 0, 72, 0
1, 22461, Note_on_c, 1, 60, 0
1, 22464, Note_on_c, 0, 72, 86
1, 22464, Note_on_c, 1, 59, 78
1, 22464, Note_on_c, 1, 55, 78
1, 22464, Note_on_c, 1, 53, 78
1, 22509, Note_on_c, 1, 59, 0
1, 22509, Note_on_c, 1, 55, 0
1, 22509, Note_on_c, 1, 53, 0
1, 22512, Note_on_c, 0, 72, 0
1, 22512, Note_on_c, 0, 71, 70
1, 22512, Note_on_c, 1, 62, 78
1, 22557, Note_on_c, 0, 71, 0
1, 22557, Note_on_c, 1, 62, 0
1, 22560, Note_on_c, 0, 71, 70
1, 22560, Note_on_c, 1, 59, 78
1, 22560, Note_on_c, 1, 55, 78
1, 22560, Note_on_c, 1, 53, 78
1, 22605, Note_on_c, 1, 59, 0
1, 22605, Note_on_c, 1, 55, 0
1, 22605, Note_on_c, 1, 53, 0
1, 22608, Note_on_c, 0, 71, 0
1, 22608, Note_on_c, 0, 69, 70
1, 22608, Note_on_c, 1, 62, 78
1, 22653, Note_on_c, 0, 69, 0
1, 22653, Note_on_c, 1, 62, 0
1, 22656, Note_on_c, 0, 71, 70
1, 22656, Note_on_c, 1, 59, 78
1, 22656, Note_on_c, 1, 55, 78
1, 22656, Note_on_c, 1, 53, 78
1, 22695, Note_on_c, 0, 71, 0
1, 22701, Note_on_c, 1, 59, 0
1, 22701, Note_on_c, 1, 55, 0
1, 22701, Note_on_c, 1, 53, 0
1, 22704, Note_on_c, 1, 62, 78
1, 22749, Note_on_c, 1, 62, 0
1, 22752, Note_on_c, 0, 67, 86
1, 22752, Note_on_c, 1, 55, 78
1, 22752, Note_on_c, 1, 52, 78
1, 22770, Note_on_c, 0, 72, 86
1, 22788, Note_on_c, 0, 76, 86
1, 22797, Note_on_c, 1, 55, 0
1, 22797, Note_on_c, 1, 52, 0
1, 22800, Note_on_c, 1, 60, 78
1, 22806, Note_on_c, 0, 79, 86
1, 22845, Note_on_c, 1, 60, 0
1, 22848, Note_on_c, 1, 55, 78
1, 22848, Note_on_c, 1, 52, 78
1, 22893, Note_on_c, 1, 55, 0
1, 22893, Note_on_c, 1, 52, 0
1, 22896, Note_on_c, 1, 60, 78
1, 22941, Note_on_c, 0, 79, 0
1, 22941, Note_on_c, 0, 76, 0
1, 22941, Note_on_c, 0, 72, 0
1, 22941, Note_on_c, 0, 67, 0
1, 22941, Note_on_c, 1, 60, 0
1, 22944, Note_on_c, 0, 76, 70
1, 22944, Note_on_c, 1, 55, 78
1, 22944, Note_on_c, 1, 52, 78
1, 22989, Note_on_c, 1, 55, 0
1, 22989, Note_on_c, 1, 52, 0
1, 22992, Note_on_c, 0, 76, 0
1, 22992, Note_on_c, 0, 72, 70
1, 22992, Note_on_c, 1, 60, 78
1, 23037, Note_on_c, 0, 72, 0
1, 23037, Note_on_c, 1, 60, 0
1, 23040, Note_on_c, 0, 69, 86
1, 23040, Note_on_c, 1, 57, 78
1, 23040, Note_on_c, 1, 53, 78
1, 23058, Note_on_c, 0, 74, 86
1, 23076, Note_on_c, 0, 77, 86
1, 23085, Note_on_c, 1, 57, 0
1, 23085, Note_on_c, 1, 53, 0
1, 23088, Note_on_c, 1, 62, 78
1, 23094, Note_on_c, 0, 81, 86
1, 23133, Note_on_c, 1, 62, 0
1, 23136, Note_on_c, 1, 57, 78
1, 23136, Note_on_c, 1, 53, 78
1, 23181, Note_on_c, 1, 57, 0
1, 23181, Note_on_c, 1, 53, 0
1, 23184, Note_on_c, 1, 62, 78
1, 23229, Note_on_c, 0, 81, 0
1, 23229, Note_on_c, 0, 77, 0
1, 23229, Note_on_c, 0, 74, 0
1, 23229, Note_on_c, 0, 69, 0
1, 23229, Note_on_c, 1, 62, 0
1, 23232, Note_on_c, 0, 77, 70
1, 23232, Note_on_c, 1, 57, 78
1, 23232, Note_on_c, 1, 53, 78
1, 23277, Note_on_c, 1, 57, 0
1, 23277, Note_on_c, 1, 53, 0
1, 23280, Note_on_c, 0, 77, 0
1, 23280, Note_on_c, 0, 74, 70
1, 23280, Note_on_c, 1, 62, 78
1, 23325, Note_on_c, 0, 74, 0
1, 23325, Note_on_c, 1, 62, 0
1, 23328, Note_on_c, 0, 72, 70
1, 23328, Note_on_c, 0, 67, 70
1, 23328, Note_on_c, 1, 64, 78
1, 23328, Note_on_c, 1, 55, 64
1, 23505, Note_on_c, 0, 72, 0
1, 23505, Note_on_c, 0, 67, 0
1, 23505, Note_on_c, 1, 64, 0
1, 23520, Note_on_c, 0, 76, 70
1, 23520, Note_on_c, 0, 71, 70
1, 23520, Note_on_c, 1, 65, 78
1, 23544, Note_on_c, 0, 76, 0
1, 23544, Note_on_c, 0, 74, 70
1, 23609, Note_on_c, 1, 65, 0
1, 23611, Note_on_c, 0, 74, 0
1, 23611, Note_on_c, 0, 71, 0
1, 23616, Note_on_c, 0, 72, 70
1, 23616, Note_on_c, 1, 64, 78
1, 23705, Note_on_c, 0, 72, 0
1, 23705, Note_on_c, 1, 64, 0
1, 23705, Note_on_c, 1, 55, 0
1, 23712, Note_on_c, 0, 72, 70
1, 23736, Note_on_c, 0, 72, 0
1, 23736, Note_on_c, 0, 84, 70
1, 23803, Note_on_c, 0, 84, 0
1, 23808, Note_on_c, 0, 71, 70
1, 23832, Note_on_c, 0, 71, 0
1, 23832, Note_on_c, 0, 83, 70
1, 23899, Note_on_c, 0, 83, 0
1, 23904, Note_on_c, 0, 70, 70
1, 23928, Note_on_c, 0, 70, 0
1, 23928, Note_on_c, 0, 82, 70
1, 23995, Note_on_c, 0, 82, 0
1, 24000, Note_on_c, 0, 69, 70
1, 24024, Note_on_c, 0, 69, 0
1, 24024, Note_on_c, 0, 81, 70
1, 24091, Note_on_c, 0, 81, 0
1, 24096, Note_on_c, 0, 67, 70
1, 24120, Note_on_c, 0, 67, 0
1, 24120, Note_on_c, 0, 79, 70
1, 24187, Note_on_c, 0, 79, 0
1, 24192, Note_on_c, 0, 78, 70
1, 24192, Note_on_c, 0, 66, 70
1, 24192, Note_on_c, 1, 63, 78
1, 24192, Note_on_c, 1, 60, 78
1, 24231, Note_on_c, 1, 63, 0
1, 24231, Note_on_c, 1, 60, 0
1, 24288, Note_on_c, 1, 63, 78
1, 24288, Note_on_c, 1, 60, 78
1, 24336, Note_on_c, 1, 63, 0
1, 24336, Note_on_c, 1, 62, 78
1, 24381, Note_on_c, 1, 62, 0
1, 24381, Note_on_c, 1, 60, 0
1, 24384, Note_on_c, 1, 63, 78
1, 24384, Note_on_c, 1, 60, 78
1, 24473, Note_on_c, 1, 63, 0
1, 24473, Note_on_c, 1, 60, 0
1, 24480, Note_on_c, 0, 78, 0
1, 24480, Note_on_c, 0, 66, 0
1, 24480, Note_on_c, 0, 79, 72
1, 24480, Note_on_c, 0, 67, 72
1, 24480, Note_on_c, 1, 62, 78
1, 24480, Note_on_c, 1, 59, 78
1, 24519, Note_on_c, 1, 62, 0
1, 24519, Note_on_c, 1, 59, 0
1, 24576, Note_on_c, 1, 62, 78
1, 24576, Note_on_c, 1, 59, 78
1, 24624, Note_on_c, 1, 62, 0
1, 24624, Note_on_c, 1, 59, 0
1, 24624, Note_on_c, 1, 61, 78
1, 24624, Note_on_c, 1, 57, 78
1, 24669, Note_on_c, 1, 61, 0
1, 24669, Note_on_c, 1, 57, 0
1, 24672, Note_on_c, 1, 62, 78
1, 24672, Note_on_c, 1, 59, 78
1, 24745, Note_on_c, 0, 79, 0
1, 24745, Note_on_c, 0, 67, 0
1, 24761, Note_on_c, 1, 62, 0
1, 24761, Note_on_c, 1, 59, 0
1, 24768, Note_on_c, 0, 74, 74
1, 24768, Note_on_c, 0, 66, 82
1, 24768, Note_on_c, 1, 62, 78
1, 24768, Note_on_c, 1, 57, 78
1, 24816, Note_on_c, 0, 74, 0
1, 24816, Note_on_c, 0, 72, 73
1, 24857, Note_on_c, 1, 62, 0
1, 24857, Note_on_c, 1, 57, 0
1, 24861, Note_on_c, 0, 72, 0
1, 24864, Note_on_c, 0, 72, 72
1, 24864, Note_on_c, 1, 62, 78
1, 24864, Note_on_c, 1, 57, 78
1, 24912, Note_on_c, 0, 72, 0
1, 24912, Note_on_c, 0, 71, 71
1, 24953, Note_on_c, 1, 62, 0
1, 24953, Note_on_c, 1, 57, 0
1, 24957, Note_on_c, 0, 71, 0
1, 24960, Note_on_c, 0, 72, 70
1, 24960, Note_on_c, 1, 62, 78
1, 24960, Note_on_c, 1, 57, 78
1, 25033, Note_on_c, 0, 66, 0
1, 25049, Note_on_c, 0, 72, 0
1, 25049, Note_on_c, 1, 62, 0
1, 25049, Note_on_c, 1, 57, 0
1, 25056, Note_on_c, 0, 71, 70
1, 25056, Note_on_c, 0, 67, 70
1, 25056, Note_on_c, 1, 62, 78
1, 25056, Note_on_c, 1, 55, 78
1, 25145, Note_on_c, 0, 71, 0
1, 25145, Note_on_c, 0, 67, 0
1, 25145, Note_on_c, 1, 62, 0
1, 25145, Note_on_c, 1, 55, 0
1, 25248, Note_on_c, 0, 67, 70
1, 25337, Note_on_c, 0, 67, 0
1, 25344, Note_on_c, 0, 72, 86
1, 25344, Note_on_c, 1, 63, 70
1, 25344, Note_on_c, 1, 60, 70
1, 25383, Note_on_c, 0, 72, 0
1, 25383, Note_on_c, 1, 63, 0
1, 25383, Note_on_c, 1, 60, 0
1, 25440, Note_on_c, 0, 72, 70
1, 25440, Note_on_c, 1, 65, 70
1, 25440, Note_on_c, 1, 62, 70
1, 25479, Note_on_c, 0, 72, 0
1, 25479, Note_on_c, 1, 65, 0
1, 25479, Note_on_c, 1, 62, 0
1, 25536, Note_on_c, 0, 72, 70
1, 25536, Note_on_c, 1, 67, 70
1, 25536, Note_on_c, 1, 63, 70
1, 25575, Note_on_c, 0, 72, 0
1, 25575, Note_on_c, 1, 67, 0
1, 25575, Note_on_c, 1, 63, 0
1, 25632, Note_on_c, 0, 75, 86
1, 25632, Note_on_c, 1, 68, 70
1, 25632, Note_on_c, 1, 65, 70
1, 25680, Note_on_c, 0, 75, 0
1, 25680, Note_on_c, 0, 73, 70
1, 25725, Note_on_c, 0, 73, 0
1, 25728, Note_on_c, 0, 73, 70
1, 25776, Note_on_c, 0, 73, 0
1, 25776, Note_on_c, 0, 72, 70
1, 25821, Note_on_c, 0, 72, 0
1, 25824, Note_on_c, 0, 73, 70
1, 25897, Note_on_c, 1, 68, 0
1, 25897, Note_on_c, 1, 65, 0
1, 25965, Note_on_c, 0, 73, 0
1, 26112, Note_on_c, 0, 67, 82
1, 26201, Note_on_c, 0, 67, 0
1, 26208, Note_on_c, 0, 72, 98
1, 26208, Note_on_c, 1, 64, 82
1, 26208, Note_on_c, 1, 60, 82
1, 26247, Note_on_c, 0, 72, 0
1, 26247, Note_on_c, 1, 64, 0
1, 26247, Note_on_c, 1, 60, 0
1, 26304, Note_on_c, 0, 72, 82
1, 26304, Note_on_c, 1, 65, 82
1, 26304, Note_on_c, 1, 62, 82
1, 26343, Note_on_c, 0, 72, 0
1, 26343, Note_on_c, 1, 65, 0
1, 26343, Note_on_c, 1, 62, 0
1, 26400, Note_on_c, 0, 72, 82
1, 26400, Note_on_c, 1, 67, 82
1, 26400, Note_on_c, 1, 64, 82
1, 26439, Note_on_c, 0, 72, 0
1, 26439, Note_on_c, 1, 67, 0
1, 26439, Note_on_c, 1, 64, 0
1, 26496, Note_on_c, 0, 76, 98
1, 26496, Note_on_c, 1, 69, 82
1, 26496, Note_on_c, 1, 65, 82
1, 26544, Note_on_c, 0, 76, 0
1, 26544, Note_on_c, 0, 74, 82
1, 26589, Note_on_c, 0, 74, 0
1, 26592, Note_on_c, 0, 74, 82
1, 26640, Note_on_c, 0, 74, 0
1, 26640, Note_on_c, 0, 73, 82
1, 26685, Note_on_c, 0, 73, 0
1, 26688, Note_on_c, 0, 74, 82
1, 26761, Note_on_c, 1, 69, 0
1, 26761, Note_on_c, 1, 65, 0
1, 26777, Note_on_c, 0, 74, 0
1, 26784, Note_on_c, 0, 72, 98
1, 26784, Note_on_c, 1, 66, 82
1, 26784, Note_on_c, 1, 63, 82
1, 26832, Note_on_c, 0, 72, 0
1, 26832, Note_on_c, 0, 71, 82
1, 26877, Note_on_c, 0, 71, 0
1, 26880, Note_on_c, 0, 71, 82
1, 26928, Note_on_c, 0, 71, 0
1, 26928, Note_on_c, 0, 70, 82
1, 26973, Note_on_c, 0, 70, 0
1, 26976, Note_on_c, 0, 71, 82
1, 27049, Note_on_c, 1, 66, 0
1, 27049, Note_on_c, 1, 63, 0
1, 27117, Note_on_c, 0, 71, 0
1, 27264, Note_on_c, 0, 79, 82
1, 27353, Note_on_c, 0, 79, 0
1, 27360, Note_on_c, 0, 84, 98
1, 27360, Note_on_c, 0, 76, 98
1, 27360, Note_on_c, 1, 60, 82
1, 27360, Note_on_c, 1, 52, 82
1, 27360, Note_on_c, 1, 48, 82
1, 27399, Note_on_c, 0, 84, 0
1, 27399, Note_on_c, 0, 76, 0
1, 27399, Note_on_c, 1, 60, 0
1, 27399, Note_on_c, 1, 52, 0
1, 27399, Note_on_c, 1, 48, 0
1, 27456, Note_on_c, 0, 84, 82
1, 27456, Note_on_c, 0, 77, 82
1, 27456, Note_on_c, 1, 62, 82
1, 27456, Note_on_c, 1, 53, 82
1, 27456, Note_on_c, 1, 50, 82
1, 27495, Note_on_c, 0, 84, 0
1, 27495, Note_on_c, 0, 77, 0
1, 27495, Note_on_c, 1, 62, 0
1, 27495, Note_on_c, 1, 53, 0
1, 27495, Note_on_c, 1, 50, 0
1, 27552, Note_on_c, 0, 84, 82
1, 27552, Note_on_c, 0, 79, 82
1, 27552, Note_on_c, 1, 64, 82
1, 27552, Note_on_c, 1, 55, 82
1, 27552, Note_on_c, 1, 52, 82
1, 27591, Note_on_c, 0, 84, 0
1, 27591, Note_on_c, 0, 79, 0
1, 27591, Note_on_c, 1, 64, 0
1, 27591, Note_on_c, 1, 55, 0
1, 27591, Note_on_c, 1, 52, 0
1, 27648, Note_on_c, 0, 86, 82
1, 27648, Note_on_c, 0, 81, 82
1, 27648, Note_on_c, 0, 74, 82
1, 27648, Note_on_c, 1, 65, 82
1, 27648, Note_on_c, 1, 57, 82
1, 27648, Note_on_c, 1, 53, 82
1, 27687, Note_on_c, 0, 86, 0
1, 27687, Note_on_c, 0, 81, 0
1, 27687, Note_on_c, 0, 74, 0
1, 27742, Note_on_c, 1, 65, 0
1, 27742, Note_on_c, 1, 57, 0
1, 27742, Note_on_c, 1, 53, 0
1, 27744, Note_on_c, 0, 86, 82
1, 27744, Note_on_c, 1, 65, 82
1, 27792, Note_on_c, 0, 86, 0
1, 27792, Note_on_c, 0, 85, 82
1, 27792, Note_on_c, 1, 65, 0
1, 27792, Note_on_c, 1, 64, 82
1, 27837, Note_on_c, 0, 85, 0
1, 27837, Note_on_c, 1, 64, 0
1, 27840, Note_on_c, 0, 86, 82
1, 27840, Note_on_c, 1, 65, 82
1, 27929, Note_on_c, 0, 86, 0
1, 27929, Note_on_c, 1, 65, 0
1, 27936, Note_on_c, 0, 83, 82
1, 27936, Note_on_c, 0, 77, 82
1, 27936, Note_on_c, 1, 74, 82
1, 27936, Note_on_c, 1, 67, 82
1, 27975, Note_on_c, 0, 83, 0
1, 27975, Note_on_c, 0, 77, 0
1, 27975, Note_on_c, 1, 74, 0
1, 27975, Note_on_c, 1, 67, 0
1, 28032, Note_on_c, 0, 83, 82
1, 28032, Note_on_c, 0, 77, 82
1, 28032, Note_on_c, 1, 74, 82
1, 28032, Note_on_c, 1, 67, 82
1, 28080, Note_on_c, 0, 77, 0
1, 28080, Note_on_c, 0, 76, 82
1, 28080, Note_on_c, 1, 74, 0
1, 28080, Note_on_c, 1, 73, 82
1, 28125, Note_on_c, 0, 76, 0
1, 28125, Note_on_c, 1, 73, 0
1, 28128, Note_on_c, 0, 77, 82
1, 28128, Note_on_c, 1, 74, 82
1, 28209, Note_on_c, 0, 83, 0
1, 28209, Note_on_c, 1, 67, 0
1, 28217, Note_on_c, 0, 77, 0
1, 28217, Note_on_c, 1, 74, 0
1, 28224, Note_on_c, 0, 79, 98
1, 28224, Note_on_c, 1, 67, 82
1, 28224, Note_on_c, 1, 64, 82
1, 28242, Note_on_c, 0, 84, 98
1, 28260, Note_on_c, 0, 88, 98
1, 28269, Note_on_c, 1, 67, 0
1, 28272, Note_on_c, 1, 72, 82
1, 28278, Note_on_c, 0, 91, 98
1, 28313, Note_on_c, 1, 64, 0
1, 28317, Note_on_c, 1, 72, 0
1, 28320, Note_on_c, 1, 67, 82
1, 28320, Note_on_c, 1, 64, 82
1, 28365, Note_on_c, 1, 67, 0
1, 28368, Note_on_c, 1, 72, 82
1, 28409, Note_on_c, 1, 64, 0
1, 28413, Note_on_c, 0, 91, 0
1, 28413, Note_on_c, 0, 88, 0
1, 28413, Note_on_c, 0, 84, 0
1, 28413, Note_on_c, 0, 79, 0
1, 28413, Note_on_c, 1, 72, 0
1, 28416, Note_on_c, 0, 88, 82
1, 28416, Note_on_c, 1, 67, 82
1, 28416, Note_on_c, 1, 64, 82
1, 28461, Note_on_c, 1, 67, 0
1, 28464, Note_on_c, 0, 88, 0
1, 28464, Note_on_c, 0, 84, 82
1, 28464, Note_on_c, 1, 72, 82
1, 28505, Note_on_c, 1, 64, 0
1, 28509, Note_on_c, 0, 84, 0
1, 28509, Note_on_c, 1, 72, 0
1, 28512, Note_on_c, 0, 84, 98
1, 28512, Note_on_c, 1, 71, 82
1, 28512, Note_on_c, 1, 67, 82
1, 28512, Note_on_c, 1, 65, 82
1, 28557, Note_on_c, 1, 71, 0
1, 28560, Note_on_c, 0, 84, 0
1, 28560, Note_on_c, 0, 83, 82
1, 28560, Note_on_c, 1, 74, 82
1, 28601, Note_on_c, 1, 67, 0
1, 28601, Note_on_c, 1, 65, 0
1, 28605, Note_on_c, 0, 83, 0
1, 28605, Note_on_c, 1, 74, 0
1, 28608, Note_on_c, 0, 83, 82
1, 28608, Note_on_c, 1, 71, 82
1, 28608, Note_on_c, 1, 67, 82
1, 28608, Note_on_c, 1, 65, 82
1, 28653, Note_on_c, 1, 71, 0
1, 28656, Note_on_c, 0, 83, 0
1, 28656, Note_on_c, 0, 81, 82
1, 28656, Note_on_c, 1, 74, 82
1, 28697, Note_on_c, 1, 67, 0
1, 28697, Note_on_c, 1, 65, 0
1, 28701, Note_on_c, 0, 81, 0
1, 28701, Note_on_c, 1, 74, 0
1, 28704, Note_on_c, 0, 83, 82
1, 28704, Note_on_c, 1, 71, 82
1, 28704, Note_on_c, 1, 67, 82
1, 28704, Note_on_c, 1, 65, 82
1, 28743, Note_on_c, 0, 83, 0
1, 28749, Note_on_c, 1, 71, 0
1, 28752, Note_on_c, 1, 74, 82
1, 28793, Note_on_c, 1, 67, 0
1, 28793, Note_on_c, 1, 65, 0
1, 28797, Note_on_c, 1, 74, 0
1, 28800, Note_on_c, 0, 79, 98
1, 28800, Note_on_c, 1, 67, 82
1, 28800, Note_on_c, 1, 64, 82
1, 28818, Note_on_c, 0, 84, 98
1, 28836, Note_on_c, 0, 88, 98
1, 28845, Note_on_c, 1, 67, 0
1, 28848, Note_on_c, 1, 72, 82
1, 28854, Note_on_c, 0, 91, 98
1, 28889, Note_on_c, 1, 64, 0
1, 28893, Note_on_c, 1, 72, 0
1, 28896, Note_on_c, 1, 67, 82
1, 28896, Note_on_c, 1, 64, 82
1, 28941, Note_on_c, 1, 67, 0
1, 28944, Note_on_c, 1, 72, 82
1, 28985, Note_on_c, 1, 64, 0
1, 28989, Note_on_c, 0, 91, 0
1, 28989, Note_on_c, 0, 88, 0
1, 28989, Note_on_c, 0, 84, 0
1, 28989, Note_on_c, 0, 79, 0
1, 28989, Note_on_c, 1, 72, 0
1, 28992, Note_on_c, 0, 88, 82
1, 28992, Note_on_c, 1, 67, 82
1, 28992, Note_on_c, 1, 64, 82
1, 29037, Note_on_c, 1, 67, 0
1, 29040, Note_on_c, 0, 88, 0
1, 29040, Note_on_c, 0, 84, 82
1, 29040, Note_on_c, 1, 72, 82
1, 29081, Note_on_c, 1, 64, 0
1, 29085, Note_on_c, 0, 84, 0
1, 29085, Note_on_c, 1, 72, 0
1, 29088, Note_on_c, 0, 84, 98
1, 29088, Note_on_c, 1, 71, 82
1, 29088, Note_on_c, 1, 67, 82
1, 29088, Note_on_c, 1, 65, 82
1, 29133, Note_on_c, 1, 71, 0
1, 29136, Note_on_c, 0, 84, 0
1, 29136, Note_on_c, 0, 83, 82
1, 29136, Note_on_c, 1, 74, 82
1, 29177, Note_on_c, 1, 67, 0
1, 29177, Note_on_c, 1, 65, 0
1, 29181, Note_on_c, 0, 83, 0
1, 29181, Note_on_c, 1, 74, 0
1, 29184, Note_on_c, 0, 83, 82
1, 29184, Note_on_c, 1, 71, 82
1, 29184, Note_on_c, 1, 67, 82
1, 29184, Note_on_c, 1, 65, 82
1, 29229, Note_on_c, 1, 71, 0
1, 29232, Note_on_c, 0, 83, 0
1, 29232, Note_on_c, 0, 81, 82
1, 29232, Note_on_c, 1, 74, 82
1, 29273, Note_on_c, 1, 67, 0
1, 29273, Note_on_c, 1, 65, 0
1, 29277, Note_on_c, 0, 81, 0
1, 29277, Note_on_c, 1, 74, 0
1, 29280, Note_on_c, 0, 83, 82
1, 29280, Note_on_c, 1, 71, 82
1, 29280, Note_on_c, 1, 67, 82
1, 29280, Note_on_c, 1, 65, 82
1, 29319, Note_on_c, 0, 83, 0
1, 29325, Note_on_c, 1, 71, 0
1, 29328, Note_on_c, 1, 74, 82
1, 29369, Note_on_c, 1, 67, 0
1, 29369, Note_on_c, 1, 65, 0
1, 29373, Note_on_c, 1, 74, 0
1, 29376, Note_on_c, 0, 79, 98
1, 29376, Note_on_c, 1, 67, 82
1, 29376, Note_on_c, 1, 64, 82
1, 29394, Note_on_c, 0, 84, 98
1, 29412, Note_on_c, 0, 88, 98
1, 29421, Note_on_c, 1, 67, 0
1, 29424, Note_on_c, 1, 72, 82
1, 29430, Note_on_c, 0, 91, 98
1, 29465, Note_on_c, 1, 64, 0
1, 29469, Note_on_c, 1, 72, 0
1, 29472, Note_on_c, 1, 67, 82
1, 29472, Note_on_c, 1, 64, 82
1, 29517, Note_on_c, 1, 67, 0
1, 29520, Note_on_c, 1, 72, 82
1, 29561, Note_on_c, 1, 64, 0
1, 29565, Note_on_c, 0, 91, 0
1, 29565, Note_on_c, 0, 88, 0
1, 29565, Note_on_c, 0, 84, 0
1, 29565, Note_on_c, 0, 79, 0
1, 29565, Note_on_c, 1, 72, 0
1, 29568, Note_on_c, 0, 88, 82
1, 29568, Note_on_c, 1, 67, 82
1, 29568, Note_on_c, 1, 64, 82
1, 29613, Note_on_c, 1, 67, 0
1, 29616, Note_on_c, 0, 88, 0
1, 29616, Note_on_c, 0, 84, 82
1, 29616, Note_on_c, 1, 72, 82
1, 29657, Note_on_c, 1, 64, 0
1, 29661, Note_on_c, 0, 84, 0
1, 29661, Note_on_c, 1, 72, 0
1, 29664, Note_on_c, 0, 81, 98
1, 29664, Note_on_c, 1, 69, 82
1, 29664, Note_on_c, 1, 65, 82
1, 29682, Note_on_c, 0, 86, 98
1, 29700, Note_on_c, 0, 89, 98
1, 29709, Note_on_c, 1, 69, 0
1, 29712, Note_on_c, 1, 74, 82
1, 29718, Note_on_c, 0, 93, 98
1, 29753, Note_on_c, 1, 65, 0
1, 29757, Note_on_c, 1, 74, 0
1, 29760, Note_on_c, 1, 69, 82
1, 29760, Note_on_c, 1, 65, 82
1, 29805, Note_on_c, 1, 69, 0
1, 29808, Note_on_c, 1, 74, 82
1, 29849, Note_on_c, 1, 65, 0
1, 29853, Note_on_c, 0, 93, 0
1, 29853, Note_on_c, 0, 89, 0
1, 29853, Note_on_c, 0, 86, 0
1, 29853, Note_on_c, 0, 81, 0
1, 29853, Note_on_c, 1, 74, 0
1, 29856, Note_on_c, 0, 89, 82
1, 29856, Note_on_c, 1, 69, 82
1, 29856, Note_on_c, 1, 65, 82
1, 29901, Note_on_c, 1, 69, 0
1, 29904, Note_on_c, 0, 89, 0
1, 29904, Note_on_c, 0, 86, 82
1, 29904, Note_on_c, 1, 74, 82
1, 29945, Note_on_c, 1, 65, 0
1, 29949, Note_on_c, 0, 86, 0
1, 29949, Note_on_c, 1, 74, 0
1, 29952, Note_on_c, 0, 84, 82
1, 29952, Note_on_c, 0, 79, 82
1, 29952, Note_on_c, 1, 76, 82
1, 29952, Note_on_c, 1, 67, 82
1, 30129, Note_on_c, 0, 84, 0
1, 30129, Note_on_c, 0, 79, 0
1, 30129, Note_on_c, 1, 76, 0
1, 30144, Note_on_c, 0, 88, 82
1, 30144, Note_on_c, 0, 83, 82
1, 30144, Note_on_c, 1, 77, 82
1, 30168, Note_on_c, 0, 88, 0
1, 30168, Note_on_c, 0, 86, 82
1, 30217, Note_on_c, 1, 67, 0
1, 30233, Note_on_c, 1, 77, 0
1, 30235, Note_on_c, 0, 86, 0
1, 30235, Note_on_c, 0, 83, 0
1, 30240, Note_on_c, 0, 67, 98
1, 30240, Note_on_c, 1, 52, 82
1, 30240, Note_on_c, 1, 48, 82
1, 30258, Note_on_c, 0, 72, 98
1, 30276, Note_on_c, 0, 76, 98
1, 30285, Note_on_c, 1, 52, 0
1, 30288, Note_on_c, 1, 55, 82
1, 30294, Note_on_c, 0, 79, 98
1, 30329, Note_on_c, 1, 48, 0
1, 30333, Note_on_c, 1, 55, 0
1, 30336, Note_on_c, 1, 52, 82
1, 30336, Note_on_c, 1, 48, 82
1, 30381, Note_on_c, 1, 52, 0
1, 30384, Note_on_c, 1, 55, 82
1, 30425, Note_on_c, 1, 48, 0
1, 30429, Note_on_c, 0, 79, 0
1, 30429, Note_on_c, 0, 76, 0
1, 30429, Note_on_c, 0, 72, 0
1, 30429, Note_on_c, 0, 67, 0
1, 30429, Note_on_c, 1, 55, 0
1, 30432, Note_on_c, 0, 76, 82
1, 30432, Note_on_c, 1, 52, 82
1, 30432, Note_on_c, 1, 48, 82
1, 30477, Note_on_c, 1, 52, 0
1, 30480, Note_on_c, 0, 76, 0
1, 30480, Note_on_c, 0, 72, 82
1, 30480, Note_on_c, 1, 55, 82
1, 30521, Note_on_c, 1, 48, 0
1, 30525, Note_on_c, 0, 72, 0
1, 30525, Note_on_c, 1, 55, 0
1, 30528, Note_on_c, 0, 72, 98
1, 30528, Note_on_c, 1, 53, 82
1, 30528, Note_on_c, 1, 50, 82
1, 30573, Note_on_c, 1, 53, 0
1, 30576, Note_on_c, 0, 72, 0
1, 30576, Note_on_c, 0, 71, 82
1, 30576, Note_on_c, 1, 55, 82
1, 30617, Note_on_c, 1, 50, 0
1, 30621, Note_on_c, 0, 71, 0
1, 30621, Note_on_c, 1, 55, 0
1, 30624, Note_on_c, 0, 71, 82
1, 30624, Note_on_c, 1, 53, 82
1, 30624, Note_on_c, 1, 50, 82
1, 30669, Note_on_c, 1, 53, 0
1, 30672, Note_on_c, 0, 71, 0
1, 30672, Note_on_c, 0, 69, 82
1, 30672, Note_on_c, 1, 55, 82
1, 30713, Note_on_c, 1, 50, 0
1, 30717, Note_on_c, 0, 69, 0
1, 30717, Note_on_c, 1, 55, 0
1, 30720, Note_on_c, 0, 71, 82
1, 30720, Note_on_c, 1, 53, 82
1, 30720, Note_on_c, 1, 50, 82
1, 30759, Note_on_c, 0, 71, 0
1, 30765, Note_on_c, 1, 53, 0
1, 30768, Note_on_c, 1, 55, 82
1, 30809, Note_on_c, 1, 50, 0
1, 30813, Note_on_c, 1, 55, 0
1, 30816, Note_on_c, 0, 67, 98
1, 30816, Note_on_c, 1, 52, 82
1, 30816, Note_on_c, 1, 48, 82
1, 30834, Note_on_c, 0, 72, 98
1, 30852, Note_on_c, 0, 76, 98
1, 30861, Note_on_c, 1, 52, 0
1, 30864, Note_on_c, 1, 55, 82
1, 30870, Note_on_c, 0, 79, 98
1, 30905, Note_on_c, 1, 48, 0
1, 30909, Note_on_c, 1, 55, 0
1, 30912, Note_on_c, 1, 52, 82
1, 30912, Note_on_c, 1, 48, 82
1, 30957, Note_on_c, 1, 52, 0
1, 30960, Note_on_c, 1, 55, 82
1, 31001, Note_on_c, 1, 48, 0
1, 31005, Note_on_c, 0, 79, 0
1, 31005, Note_on_c, 0, 76, 0
1, 31005, Note_on_c, 0, 72, 0
1, 31005, Note_on_c, 0, 67, 0
1, 31005, Note_on_c, 1, 55, 0
1, 31008, Note_on_c, 0, 76, 82
1, 31008, Note_on_c, 1, 52, 82
1, 31008, Note_on_c, 1, 48, 82
1, 31053, Note_on_c, 1, 52, 0
1, 31056, Note_on_c, 0, 76, 0
1, 31056, Note_on_c, 0, 72, 82
1, 31056, Note_on_c, 1, 55, 82
1, 31097, Note_on_c, 1, 48, 0
1, 31101, Note_on_c, 0, 72, 0
1, 31101, Note_on_c, 1, 55, 0
1, 31104, Note_on_c, 0, 72, 98
1, 31104, Note_on_c, 1, 53, 82
1, 31104, Note_on_c, 1, 50, 82
1, 31149, Note_on_c, 1, 53, 0
1, 31152, Note_on_c, 0, 72, 0
1, 31152, Note_on_c, 0, 71, 82
1, 31152, Note_on_c, 1, 55, 82
1, 31193, Note_on_c, 1, 50, 0
1, 31197, Note_on_c, 0, 71, 0
1, 31197, Note_on_c, 1, 55, 0
1, 31200, Note_on_c, 0, 71, 82
1, 31200, Note_on_c, 1, 53, 82
1, 31200, Note_on_c, 1, 50, 82
1, 31245, Note_on_c, 1, 53, 0
1, 31248, Note_on_c, 0, 71, 0
1, 31248, Note_on_c, 0, 69, 82
1, 31248, Note_on_c, 1, 55, 82
1, 31289, Note_on_c, 1, 50, 0
1, 31293, Note_on_c, 0, 69, 0
1, 31293, Note_on_c, 1, 55, 0
1, 31296, Note_on_c, 0, 71, 82
1, 31296, Note_on_c, 1, 53, 82
1, 31296, Note_on_c, 1, 50, 82
1, 31335, Note_on_c, 0, 71, 0
1, 31341, Note_on_c, 1, 53, 0
1, 31344, Note_on_c, 1, 55, 82
1, 31385, Note_on_c, 1, 50, 0
1, 31389, Note_on_c, 1, 55, 0
1, 31392, Note_on_c, 0, 67, 98
1, 31392, Note_on_c, 1, 52, 82
1, 31392, Note_on_c, 1, 48, 82
1, 31410, Note_on_c, 0, 72, 98
1, 31428, Note_on_c, 0, 76, 98
1, 31437, Note_on_c, 1, 52, 0
1, 31440, Note_on_c, 1, 55, 82
1, 31446, Note_on_c, 0, 79, 98
1, 31481, Note_on_c, 1, 48, 0
1, 31485, Note_on_c, 1, 55, 0
1, 31488, Note_on_c, 1, 52, 82
1, 31488, Note_on_c, 1, 48, 82
1, 31533, Note_on_c, 1, 52, 0
1, 31536, Note_on_c, 1, 55, 82
1, 31577, Note_on_c, 1, 48, 0
1, 31581, Note_on_c, 0, 79, 0
1, 31581, Note_on_c, 0, 76, 0
1, 31581, Note_on_c, 0, 72, 0
1, 31581, Note_on_c, 0, 67, 0
1, 31581, Note_on_c, 1, 55, 0
1, 31584, Note_on_c, 0, 76, 82
1, 31584, Note_on_c, 1, 52, 82
1, 31584, Note_on_c, 1, 48, 82
1, 31629, Note_on_c, 1, 52, 0
1, 31632, Note_on_c, 0, 76, 0
1, 31632, Note_on_c, 0, 72, 82
1, 31632, Note_on_c, 1, 55, 82
1, 31673, Note_on_c, 1, 48, 0
1, 31677, Note_on_c, 0, 72, 0
1, 31677, Note_on_c, 1, 55, 0
1, 31680, Note_on_c, 0, 69, 98
1, 31680, Note_on_c, 1, 57, 82
1, 31680, Note_on_c, 1, 53, 82
1, 31698, Note_on_c, 0, 74, 98
1, 31716, Note_on_c, 0, 77, 98
1, 31725, Note_on_c, 1, 57, 0
1, 31728, Note_on_c, 1, 62, 82
1, 31734, Note_on_c, 0, 81, 98
1, 31769, Note_on_c, 1, 53, 0
1, 31773, Note_on_c, 1, 62, 0
1, 31776, Note_on_c, 1, 57, 82
1, 31776, Note_on_c, 1, 53, 82
1, 31821, Note_on_c, 1, 57, 0
1, 31824, Note_on_c, 1, 62, 82
1, 31865, Note_on_c, 1, 53, 0
1, 31869, Note_on_c, 0, 81, 0
1, 31869, Note_on_c, 0, 77, 0
1, 31869, Note_on_c, 0, 74, 0
1, 31869, Note_on_c, 0, 69, 0
1, 31869, Note_on_c, 1, 62, 0
1, 31872, Note_on_c, 0, 77, 82
1, 31872, Note_on_c, 1, 57, 82
1, 31872, Note_on_c, 1, 53, 82
1, 31917, Note_on_c, 1, 57, 0
1, 31920, Note_on_c, 0, 77, 0
1, 31920, Note_on_c, 0, 74, 82
1, 31920, Note_on_c, 1, 62, 82
1, 31961, Note_on_c, 1, 53, 0
1, 31965, Note_on_c, 0, 74, 0
1, 31965, Note_on_c, 1, 62, 0
1, 31968, Note_on_c, 0, 72, 82
1, 31968, Note_on_c, 0, 67, 82
1, 31968, Note_on_c, 1, 64, 82
1, 31968, Note_on_c, 1, 55, 82
1, 32145, Note_on_c, 0, 72, 0
1, 32145, Note_on_c, 0, 67, 0
1, 32160, Note_on_c, 0, 76, 82
1, 32160, Note_on_c, 0, 71, 82
1, 32160, Note_on_c, 1, 64, 0
1, 32160, Note_on_c, 1, 65, 82
1, 32184, Note_on_c, 0, 76, 0
1, 32184, Note_on_c, 0, 74, 82
1, 32233, Note_on_c, 1, 55, 0
1, 32249, Note_on_c, 1, 65, 0
1, 32251, Note_on_c, 0, 74, 0
1, 32251, Note_on_c, 0, 71, 0
1, 32256, Note_on_c, 0, 72, 82
1, 32256, Note_on_c, 1, 64, 82
1, 32256, Note_on_c, 1, 60, 82
1, 32345, Note_on_c, 0, 72, 0
1, 32345, Note_on_c, 1, 64, 0
1, 32345, Note_on_c, 1, 60, 0
1, 32352, Note_on_c, 0, 84, 86
1, 32352, Note_on_c, 1, 67, 70
1, 32352, Note_on_c, 1, 64, 70
1, 32400, Note_on_c, 0, 84, 0
1, 32400, Note_on_c, 0, 83, 70
1, 32441, Note_on_c, 1, 67, 0
1, 32441, Note_on_c, 1, 64, 0
1, 32445, Note_on_c, 0, 83, 0
1, 32448, Note_on_c, 0, 84, 70
1, 32448, Note_on_c, 1, 65, 70
1, 32448, Note_on_c, 1, 62, 70
1, 32493, Note_on_c, 0, 84, 0
1, 32496, Note_on_c, 0, 83, 70
1, 32537, Note_on_c, 1, 65, 0
1, 32537, Note_on_c, 1, 62, 0
1, 32541, Note_on_c, 0, 83, 0
1, 32544, Note_on_c, 0, 84, 86
1, 32544, Note_on_c, 1, 64, 70
1, 32544, Note_on_c, 1, 60, 70
1, 32583, Note_on_c, 1, 64, 0
1, 32583, Note_on_c, 1, 60, 0
1, 32592, Note_on_c, 0, 84, 0
1, 32592, Note_on_c, 0, 83, 71
1, 32637, Note_on_c, 0, 83, 0
1, 32640, Note_on_c, 0, 84, 72
1, 32640, Note_on_c, 1, 55, 72
1, 32640, Note_on_c, 1, 52, 72
1, 32685, Note_on_c, 0, 84, 0
1, 32688, Note_on_c, 0, 83, 73
1, 32729, Note_on_c, 1, 55, 0
1, 32729, Note_on_c, 1, 52, 0
1, 32733, Note_on_c, 0, 83, 0
1, 32736, Note_on_c, 0, 84, 74
1, 32736, Note_on_c, 1, 53, 74
1, 32736, Note_on_c, 1, 50, 74
1, 32781, Note_on_c, 0, 84, 0
1, 32784, Note_on_c, 0, 83, 75
1, 32825, Note_on_c, 1, 53, 0
1, 32825, Note_on_c, 1, 50, 0
1, 32829, Note_on_c, 0, 83, 0
1, 32832, Note_on_c, 0, 84, 92
1, 32832, Note_on_c, 1, 52, 76
1, 32832, Note_on_c, 1, 48, 76
1, 32871, Note_on_c, 1, 52, 0
1, 32871, Note_on_c, 1, 48, 0
1, 32880, Note_on_c, 0, 84, 0
1, 32880, Note_on_c, 0, 83, 77
1, 32925, Note_on_c, 0, 83, 0
1, 32928, Note_on_c, 0, 84, 78
1, 32928, Note_on_c, 1, 43, 78
1, 32928, Note_on_c, 1, 40, 78
1, 32973, Note_on_c, 0, 84, 0
1, 32976, Note_on_c, 0, 83, 79
1, 33017, Note_on_c, 1, 43, 0
1, 33017, Note_on_c, 1, 40, 0
1, 33021, Note_on_c, 0, 83, 0
1, 33024, Note_on_c, 0, 84, 80
1, 33024, Note_on_c, 1, 41, 80
1, 33024, Note_on_c, 1, 38, 80
1, 33069, Note_on_c, 0, 84, 0
1, 33072, Note_on_c, 0, 83, 81
1, 33113, Note_on_c, 1, 41, 0
1, 33113, Note_on_c, 1, 38, 0
1, 33117, Note_on_c, 0, 83, 0
1, 33120, Note_on_c, 0, 84, 102
1, 33120, Note_on_c, 1, 40, 86
1, 33120, Note_on_c, 1, 36, 86
1, 33159, Note_on_c, 1, 40, 0
1, 33159, Note_on_c, 1, 36, 0
1, 33216, Note_on_c, 0, 84, 0
1, 33216, Note_on_c, 0, 84, 86
1, 33216, Note_on_c, 0, 79, 86
1, 33216, Note_on_c, 0, 76, 86
1, 33216, Note_on_c, 1, 36, 86
1, 33305, Note_on_c, 0, 84, 0
1, 33305, Note_on_c, 0, 79, 0
1, 33305, Note_on_c, 0, 76, 0
1, 33305, Note_on_c, 1, 36, 0
1, 33312, Note_on_c, 0, 84, 86
1, 33312, Note_on_c, 0, 79, 86
1, 33312, Note_on_c, 0, 76, 86
1, 33312, Note_on_c, 1, 36, 86
1, 33401, Note_on_c, 0, 84, 0
1, 33401, Note_on_c, 0, 79, 0
1, 33401, Note_on_c, 0, 76, 0
1, 33401, Note_on_c, 1, 36, 0
1, 33408, Note_on_c, 0, 84, 102
1, 33408, Note_on_c, 0, 79, 102
1, 33408, Note_on_c, 0, 76, 102
1, 33408, Note_on_c, 1, 36, 86
1, 33497, Note_on_c, 1, 36, 0
1, 33504, Note_on_c, 0, 84, 0
1, 33504, Note_on_c, 0, 79, 0
1, 33504, Note_on_c, 0, 76, 0
1, 33600, Note_on_c, 0, 79, 70
1, 33600, Note_on_c, 1, 55, 70
1, 33689, Note_on_c, 0, 79, 0
1, 33689, Note_on_c, 1, 55, 0
1, 33696, Note_on_c, 0, 78, 86
1, 33696, Note_on_c, 0, 67, 86
1, 33696, Note_on_c, 1, 57, 70
1, 33785, Note_on_c, 1, 57, 0
1, 33792, Note_on_c, 0, 78, 0
1, 33792, Note_on_c, 0, 67, 0
1, 33792, Note_on_c, 0, 77, 70
1, 33792, Note_on_c, 0, 67, 70
1, 33792, Note_on_c, 1, 59, 70
1, 33881, Note_on_c, 0, 77, 0
1, 33881, Note_on_c, 0, 67, 0
1, 33881, Note_on_c, 1, 59, 0
1, 33888, Note_on_c, 0, 76, 70
1, 33888, Note_on_c, 0, 67, 70
1, 33888, Note_on_c, 1, 61, 70
1, 33977, Note_on_c, 0, 76, 0
1, 33977, Note_on_c, 0, 67, 0
1, 33977, Note_on_c, 1, 61, 0
1, 33984, Note_on_c, 0, 77, 86
1, 33984, Note_on_c, 0, 67, 70
1, 33984, Note_on_c, 1, 62, 70
1, 34023, Note_on_c, 0, 77, 0
1, 34023, Note_on_c, 1, 62, 0
1, 34078, Note_on_c, 0, 67, 0
1, 34080, Note_on_c, 0, 77, 70
1, 34080, Note_on_c, 0, 67, 70
1, 34080, Note_on_c, 1, 62, 70
1, 34128, Note_on_c, 0, 77, 0
1, 34128, Note_on_c, 0, 76, 70
1, 34128, Note_on_c, 1, 62, 0
1, 34128, Note_on_c, 1, 61, 70
1, 34173, Note_on_c, 0, 76, 0
1, 34173, Note_on_c, 1, 61, 0
1, 34176, Note_on_c, 0, 77, 70
1, 34176, Note_on_c, 1, 62, 70
1, 34257, Note_on_c, 0, 67, 0
1, 34265, Note_on_c, 0, 77, 0
1, 34265, Note_on_c, 1, 62, 0
1, 34272, Note_on_c, 0, 74, 70
1, 34272, Note_on_c, 1, 59, 70
1, 34361, Note_on_c, 0, 74, 0
1, 34361, Note_on_c, 1, 59, 0
1, 34464, Note_on_c, 0, 91, 66
1, 34464, Note_on_c, 1, 67, 66
1, 34553, Note_on_c, 0, 91, 0
1, 34553, Note_on_c, 1, 67, 0
1, 34560, Note_on_c, 0, 90, 82
1, 34560, Note_on_c, 1, 69, 66
1, 34649, Note_on_c, 1, 69, 0
1, 34656, Note_on_c, 0, 90, 0
1, 34656, Note_on_c, 0, 89, 66
1, 34656, Note_on_c, 1, 71, 66
1, 34745, Note_on_c, 0, 89, 0
1, 34745, Note_on_c, 1, 71, 0
1, 34752, Note_on_c, 0, 88, 66
1, 34752, Note_on_c, 1, 73, 66
1, 34841, Note_on_c, 0, 88, 0
1, 34841, Note_on_c, 1, 73, 0
1, 34848, Note_on_c, 0, 89, 82
1, 34848, Note_on_c, 0, 79, 66
1, 34848, Note_on_c, 1, 74, 66
1, 34887, Note_on_c, 0, 89, 0
1, 34887, Note_on_c, 0, 79, 0
1, 34887, Note_on_c, 1, 74, 0
1, 34944, Note_on_c, 0, 89, 67
1, 34944, Note_on_c, 0, 79, 67
1, 34944, Note_on_c, 1, 74, 67
1, 34992, Note_on_c, 0, 89, 0
1, 34992, Note_on_c, 0, 88, 67
1, 34992, Note_on_c, 1, 74, 0
1, 34992, Note_on_c, 1, 73, 67
1, 35037, Note_on_c, 0, 88, 0
1, 35037, Note_on_c, 1, 73, 0
1, 35040, Note_on_c, 0, 89, 68
1, 35040, Note_on_c, 1, 74, 68
1, 35121, Note_on_c, 0, 79, 0
1, 35129, Note_on_c, 0, 89, 0
1, 35129, Note_on_c, 1, 74, 0
1, 35136, Note_on_c, 0, 89, 85
1, 35136, Note_on_c, 0, 79, 69
1, 35136, Note_on_c, 1, 74, 69
1, 35175, Note_on_c, 0, 89, 0
1, 35175, Note_on_c, 0, 79, 0
1, 35175, Note_on_c, 1, 74, 0
1, 35232, Note_on_c, 0, 89, 70
1, 35232, Note_on_c, 0, 79, 70
1, 35232, Note_on_c, 1, 74, 70
1, 35280, Note_on_c, 0, 89, 0
1, 35280, Note_on_c, 0, 88, 71
1, 35280, Note_on_c, 1, 74, 0
1, 35280, Note_on_c, 1, 73, 71
1, 35325, Note_on_c, 0, 88, 0
1, 35325, Note_on_c, 1, 73, 0
1, 35328, Note_on_c, 0, 89, 72
1, 35328, Note_on_c, 1, 74, 72
1, 35409, Note_on_c, 0, 79, 0
1, 35417, Note_on_c, 0, 89, 0
1, 35417, Note_on_c, 1, 74, 0
1, 35424, Note_on_c, 0, 89, 89
1, 35424, Note_on_c, 0, 80, 72
1, 35424, Note_on_c, 1, 74, 73
1, 35463, Note_on_c, 0, 89, 0
1, 35463, Note_on_c, 0, 80, 0
1, 35463, Note_on_c, 1, 74, 0
1, 35520, Note_on_c, 0, 89, 74
1, 35520, Note_on_c, 0, 80, 74
1, 35520, Note_on_c, 1, 74, 74
1, 35568, Note_on_c, 0, 89, 0
1, 35568, Note_on_c, 0, 88, 75
1, 35568, Note_on_c, 1, 74, 0
1, 35568, Note_on_c, 1, 73, 75
1, 35613, Note_on_c, 0, 88, 0
1, 35613, Note_on_c, 1, 73, 0
1, 35616, Note_on_c, 0, 89, 75
1, 35616, Note_on_c, 1, 74, 75
1, 35697, Note_on_c, 0, 80, 0
1, 35705, Note_on_c, 0, 89, 0
1, 35705, Note_on_c, 1, 74, 0
1, 35712, Note_on_c, 0, 89, 93
1, 35712, Note_on_c, 0, 80, 76
1, 35712, Note_on_c, 1, 74, 77
1, 35751, Note_on_c, 0, 80, 0
1, 35751, Note_on_c, 1, 74, 0
1, 35806, Note_on_c, 0, 89, 0
1, 35808, Note_on_c, 0, 89, 78
1, 35808, Note_on_c, 0, 80, 77
1, 35808, Note_on_c, 1, 74, 78
1, 35856, Note_on_c, 0, 89, 0
1, 35856, Note_on_c, 0, 88, 78
1, 35856, Note_on_c, 1, 74, 0
1, 35856, Note_on_c, 1, 73, 78
1, 35901, Note_on_c, 0, 88, 0
1, 35901, Note_on_c, 1, 73, 0
1, 35904, Note_on_c, 0, 89, 79
1, 35904, Note_on_c, 1, 74, 79
1, 35985, Note_on_c, 0, 80, 0
1, 35993, Note_on_c, 0, 89, 0
1, 35993, Note_on_c, 1, 74, 0
1, 36000, Note_on_c, 0, 88, 80
1, 36000, Note_on_c, 0, 81, 80
1, 36000, Note_on_c, 1, 73, 80
1, 36039, Note_on_c, 0, 88, 0
1, 36039, Note_on_c, 0, 81, 0
1, 36039, Note_on_c, 1, 73, 0
1, 36096, Note_on_c, 0, 81, 82
1, 36096, Note_on_c, 1, 76, 82
1, 36096, Note_on_c, 1, 73, 82
1, 36141, Note_on_c, 0, 81, 0
1, 36144, Note_on_c, 0, 80, 82
1, 36185, Note_on_c, 1, 76, 0
1, 36185, Note_on_c, 1, 73, 0
1, 36189, Note_on_c, 0, 80, 0
1, 36192, Note_on_c, 0, 81, 82
1, 36192, Note_on_c, 1, 74, 82
1, 36192, Note_on_c, 1, 71, 82
1, 36237, Note_on_c, 0, 81, 0
1, 36240, Note_on_c, 0, 80, 82
1, 36281, Note_on_c, 1, 74, 0
1, 36281, Note_on_c, 1, 71, 0
1, 36285, Note_on_c, 0, 80, 0
1, 36288, Note_on_c, 0, 81, 98
1, 36288, Note_on_c, 1, 73, 82
1, 36288, Note_on_c, 1, 69, 82
1, 36327, Note_on_c, 1, 73, 0
1, 36327, Note_on_c, 1, 69, 0
1, 36336, Note_on_c, 0, 81, 0
1, 36336, Note_on_c, 0, 80, 81
1, 36381, Note_on_c, 0, 80, 0
1, 36384, Note_on_c, 0, 81, 81
1, 36384, Note_on_c, 1, 64, 82
1, 36384, Note_on_c, 1, 61, 82
1, 36429, Note_on_c, 0, 81, 0
1, 36432, Note_on_c, 0, 80, 80
1, 36473, Note_on_c, 1, 64, 0
1, 36473, Note_on_c, 1, 61, 0
1, 36477, Note_on_c, 0, 80, 0
1, 36480, Note_on_c, 0, 81, 80
1, 36480, Note_on_c, 1, 62, 80
1, 36480, Note_on_c, 1, 59, 80
1, 36525, Note_on_c, 0, 81, 0
1, 36528, Note_on_c, 0, 80, 79
1, 36569, Note_on_c, 1, 62, 0
1, 36569, Note_on_c, 1, 59, 0
1, 36573, Note_on_c, 0, 80, 0
1, 36576, Note_on_c, 0, 81, 95
1, 36576, Note_on_c, 1, 61, 79
1, 36576, Note_on_c, 1, 57, 79
1, 36615, Note_on_c, 1, 61, 0
1, 36615, Note_on_c, 1, 57, 0
1, 36624, Note_on_c, 0, 81, 0
1, 36624, Note_on_c, 0, 80, 78
1, 36669, Note_on_c, 0, 80, 0
1, 36672, Note_on_c, 0, 81, 78
1, 36672, Note_on_c, 1, 52, 78
1, 36672, Note_on_c, 1, 49, 78
1, 36717, Note_on_c, 0, 81, 0
1, 36720, Note_on_c, 0, 80, 78
1, 36761, Note_on_c, 1, 52, 0
1, 36761, Note_on_c, 1, 49, 0
1, 36765, Note_on_c, 0, 80, 0
1, 36768, Note_on_c, 0, 81, 77
1, 36768, Note_on_c, 1, 50, 76
1, 36768, Note_on_c, 1, 47, 76
1, 36813, Note_on_c, 0, 81, 0
1, 36816, Note_on_c, 0, 80, 77
1, 36857, Note_on_c, 1, 50, 0
1, 36857, Note_on_c, 1, 47, 0
1, 36861, Note_on_c, 0, 80, 0
1, 36864, Note_on_c, 0, 81, 92
1, 36864, Note_on_c, 1, 49, 75
1, 36864, Note_on_c, 1, 45, 75
1, 36903, Note_on_c, 1, 49, 0
1, 36903, Note_on_c, 1, 45, 0
1, 36912, Note_on_c, 0, 81, 0
1, 36912, Note_on_c, 0, 79, 76
1, 36957, Note_on_c, 0, 79, 0
1, 36960, Note_on_c, 0, 82, 75
1, 37005, Note_on_c, 0, 82, 0
1, 37008, Note_on_c, 0, 81, 75
1, 37053, Note_on_c, 0, 81, 0
1, 37056, Note_on_c, 0, 79, 74
1, 37101, Note_on_c, 0, 79, 0
1, 37104, Note_on_c, 0, 77, 74
1, 37149, Note_on_c, 0, 77, 0
1, 37152, Note_on_c, 0, 76, 90
1, 37200, Note_on_c, 0, 76, 0
1, 37200, Note_on_c, 0, 74, 75
1, 37245, Note_on_c, 0, 74, 0
1, 37248, Note_on_c, 0, 73, 76
1, 37293, Note_on_c, 0, 73, 0
1, 37296, Note_on_c, 0, 70, 78
1, 37341, Note_on_c, 0, 70, 0
1, 37344, Note_on_c, 0, 69, 79
1, 37389, Note_on_c, 0, 69, 0
1, 37392, Note_on_c, 0, 67, 80
1, 37437, Note_on_c, 0, 67, 0
1, 37440, Note_on_c, 0, 65, 98
1, 37440, Note_on_c, 1, 38, 82
1, 37452, Note_on_c, 1, 41, 82
1, 37464, Note_on_c, 1, 45, 82
1, 37476, Note_on_c, 1, 50, 82
1, 37488, Note_on_c, 0, 65, 0
1, 37488, Note_on_c, 0, 64, 82
1, 37529, Note_on_c, 1, 50, 0
1, 37529, Note_on_c, 1, 45, 0
1, 37529, Note_on_c, 1, 41, 0
1, 37529, Note_on_c, 1, 38, 0
1, 37533, Note_on_c, 0, 64, 0
1, 37536, Note_on_c, 0, 62, 82
1, 37536, Note_on_c, 1, 57, 82
1, 37536, Note_on_c, 1, 53, 82
1, 37581, Note_on_c, 0, 62, 0
1, 37584, Note_on_c, 0, 61, 82
1, 37625, Note_on_c, 1, 57, 0
1, 37625, Note_on_c, 1, 53, 0
1, 37629, Note_on_c, 0, 61, 0
1, 37632, Note_on_c, 0, 62, 82
1, 37632, Note_on_c, 1, 55, 82
1, 37632, Note_on_c, 1, 52, 82
1, 37677, Note_on_c, 0, 62, 0
1, 37680, Note_on_c, 0, 61, 82
1, 37721, Note_on_c, 1, 55, 0
1, 37721, Note_on_c, 1, 52, 0
1, 37725, Note_on_c, 0, 61, 0
1, 37728, Note_on_c, 0, 62, 98
1, 37728, Note_on_c, 1, 53, 82
1, 37728, Note_on_c, 1, 50, 82
1, 37767, Note_on_c, 1, 53, 0
1, 37767, Note_on_c, 1, 50, 0
1, 37776, Note_on_c, 0, 62, 0
1, 37776, Note_on_c, 0, 61, 82
1, 37821, Note_on_c, 0, 61, 0
1, 37824, Note_on_c, 0, 62, 82
1, 37824, Note_on_c, 1, 57, 82
1, 37824, Note_on_c, 1, 53, 82
1, 37869, Note_on_c, 0, 62, 0
1, 37872, Note_on_c, 0, 61, 82
1, 37913, Note_on_c, 1, 57, 0
1, 37913, Note_on_c, 1, 53, 0
1, 37917, Note_on_c, 0, 61, 0
1, 37920, Note_on_c, 0, 62, 82
1, 37920, Note_on_c, 1, 55, 82
1, 37920, Note_on_c, 1, 52, 82
1, 37965, Note_on_c, 0, 62, 0
1, 37968, Note_on_c, 0, 61, 82
1, 38009, Note_on_c, 1, 55, 0
1, 38009, Note_on_c, 1, 52, 0
1, 38013, Note_on_c, 0, 61, 0
1, 38016, Note_on_c, 0, 62, 98
1, 38016, Note_on_c, 1, 53, 82
1, 38016, Note_on_c, 1, 50, 82
1, 38055, Note_on_c, 1, 53, 0
1, 38055, Note_on_c, 1, 50, 0
1, 38064, Note_on_c, 0, 62, 0
1, 38064, Note_on_c, 0, 63, 82
1, 38109, Note_on_c, 0, 63, 0
1, 38112, Note_on_c, 0, 62, 82
1, 38112, Note_on_c, 1, 57, 82
1, 38112, Note_on_c, 1, 54, 82
1, 38157, Note_on_c, 0, 62, 0
1, 38160, Note_on_c, 0, 63, 82
1, 38201, Note_on_c, 1, 57, 0
1, 38201, Note_on_c, 1, 54, 0
1, 38205, Note_on_c, 0, 63, 0
1, 38208, Note_on_c, 0, 62, 82
1, 38208, Note_on_c, 1, 58, 82
1, 38208, Note_on_c, 1, 55, 82
1, 38253, Note_on_c, 0, 62, 0
1, 38256, Note_on_c, 0, 63, 81
1, 38297, Note_on_c, 1, 58, 0
1, 38297, Note_on_c, 1, 55, 0
1, 38301, Note_on_c, 0, 63, 0
1, 38304, Note_on_c, 0, 62, 97
1, 38304, Note_on_c, 1, 60, 81
1, 38304, Note_on_c, 1, 57, 81
1, 38343, Note_on_c, 1, 60, 0
1, 38343, Note_on_c, 1, 57, 0
1, 38352, Note_on_c, 0, 62, 0
1, 38352, Note_on_c, 0, 63, 80
1, 38397, Note_on_c, 0, 63, 0
1, 38400, Note_on_c, 0, 62, 80
1, 38400, Note_on_c, 1, 57, 80
1, 38400, Note_on_c, 1, 54, 80
1, 38445, Note_on_c, 0, 62, 0
1, 38448, Note_on_c, 0, 63, 79
1, 38489, Note_on_c, 1, 57, 0
1, 38489, Note_on_c, 1, 54, 0
1, 38493, Note_on_c, 0, 63, 0
1, 38496, Note_on_c, 0, 62, 79
1, 38496, Note_on_c, 1, 58, 79
1, 38496, Note_on_c, 1, 55, 79
1, 38541, Note_on_c, 0, 62, 0
1, 38544, Note_on_c, 0, 63, 78
1, 38585, Note_on_c, 1, 58, 0
1, 38585, Note_on_c, 1, 55, 0
1, 38589, Note_on_c, 0, 63, 0
1, 38592, Note_on_c, 0, 62, 94
1, 38592, Note_on_c, 1, 60, 78
1, 38592, Note_on_c, 1, 57, 78
1, 38640, Note_on_c, 0, 62, 0
1, 38640, Note_on_c, 0, 63, 77
1, 38685, Note_on_c, 0, 63, 0
1, 38688, Note_on_c, 0, 62, 77
1, 38733, Note_on_c, 0, 62, 0
1, 38736, Note_on_c, 0, 63, 76
1, 38781, Note_on_c, 0, 63, 0
1, 38784, Note_on_c, 0, 62, 76
1, 38829, Note_on_c, 0, 62, 0
1, 38832, Note_on_c, 0, 63, 75
1, 38877, Note_on_c, 0, 63, 0
1, 38880, Note_on_c, 0, 62, 91
1, 38928, Note_on_c, 0, 62, 0
1, 38928, Note_on_c, 0, 63, 74
1, 38973, Note_on_c, 0, 63, 0
1, 38976, Note_on_c, 0, 62, 74
1, 39021, Note_on_c, 0, 62, 0
1, 39024, Note_on_c, 0, 63, 73
1, 39069, Note_on_c, 0, 63, 0
1, 39072, Note_on_c, 0, 62, 73
1, 39117, Note_on_c, 0, 62, 0
1, 39120, Note_on_c, 0, 63, 72
1, 39165, Note_on_c, 0, 63, 0
1, 39168, Note_on_c, 0, 62, 88
1, 39360, Note_on_c, 0, 62, 0
1, 39360, Note_on_c, 0, 62, 70
1, 39449, Note_on_c, 0, 62, 0
1, 39449, Note_on_c, 1, 60, 0
1, 39449, Note_on_c, 1, 57, 0
1, 39456, Note_on_c, 0, 67, 86
1, 39456, Note_on_c, 1, 58, 70
1, 39456, Note_on_c, 1, 55, 70
1, 39495, Note_on_c, 0, 67, 0
1, 39495, Note_on_c, 1, 58, 0
1, 39495, Note_on_c, 1, 55, 0
1, 39552, Note_on_c, 0, 67, 70
1, 39552, Note_on_c, 1, 60, 70
1, 39552, Note_on_c, 1, 57, 70
1, 39591, Note_on_c, 0, 67, 0
1, 39591, Note_on_c, 1, 60, 0
1, 39591, Note_on_c, 1, 57, 0
1, 39648, Note_on_c, 0, 67, 70
1, 39648, Note_on_c, 1, 62, 70
1, 39648, Note_on_c, 1, 58, 70
1, 39687, Note_on_c, 0, 67, 0
1, 39687, Note_on_c, 1, 62, 0
1, 39687, Note_on_c, 1, 58, 0
1, 39744, Note_on_c, 0, 70, 86
1, 39744, Note_on_c, 1, 63, 70
1, 39744, Note_on_c, 1, 60, 70
1, 39792, Note_on_c, 0, 70, 0
1, 39792, Note_on_c, 0, 69, 70
1, 39837, Note_on_c, 0, 69, 0
1, 39840, Note_on_c, 0, 69, 70
1, 39888, Note_on_c, 0, 69, 0
1, 39888, Note_on_c, 0, 67, 70
1, 39933, Note_on_c, 0, 67, 0
1, 39936, Note_on_c, 0, 69, 70
1, 40009, Note_on_c, 1, 63, 0
1, 40009, Note_on_c, 1, 60, 0
1, 40025, Note_on_c, 0, 69, 0
1, 40032, Note_on_c, 0, 71, 70
1, 40032, Note_on_c, 1, 65, 70
1, 40032, Note_on_c, 1, 62, 70
1, 40121, Note_on_c, 1, 65, 0
1, 40121, Note_on_c, 1, 62, 0
1, 40173, Note_on_c, 0, 71, 0
1, 40224, Note_on_c, 0, 67, 70
1, 40313, Note_on_c, 0, 67, 0
1, 40320, Note_on_c, 0, 72, 86
1, 40320, Note_on_c, 1, 52, 70
1, 40320, Note_on_c, 1, 48, 70
1, 40359, Note_on_c, 0, 72, 0
1, 40359, Note_on_c, 1, 52, 0
1, 40359, Note_on_c, 1, 48, 0
1, 40416, Note_on_c, 0, 72, 70
1, 40416, Note_on_c, 1, 53, 70
1, 40416, Note_on_c, 1, 50, 70
1, 40455, Note_on_c, 0, 72, 0
1, 40455, Note_on_c, 1, 53, 0
1, 40455, Note_on_c, 1, 50, 0
1, 40512, Note_on_c, 0, 72, 70
1, 40512, Note_on_c, 1, 55, 71
1, 40512, Note_on_c, 1, 52, 71
1, 40551, Note_on_c, 0, 72, 0
1, 40551, Note_on_c, 1, 55, 0
1, 40551, Note_on_c, 1, 52, 0
1, 40608, Note_on_c, 0, 76, 86
1, 40608, Note_on_c, 1, 57, 72
1, 40608, Note_on_c, 1, 53, 72
1, 40656, Note_on_c, 0, 76, 0
1, 40656, Note_on_c, 0, 74, 70
1, 40697, Note_on_c, 1, 57, 0
1, 40697, Note_on_c, 1, 53, 0
1, 40701, Note_on_c, 0, 74, 0
1, 40704, Note_on_c, 0, 74, 70
1, 40752, Note_on_c, 0, 74, 0
1, 40752, Note_on_c, 0, 72, 70
1, 40797, Note_on_c, 0, 72, 0
1, 40800, Note_on_c, 0, 74, 70
1, 40839, Note_on_c, 0, 74, 0
1, 40896, Note_on_c, 0, 72, 86
1, 40896, Note_on_c, 1, 65, 75
1, 40896, Note_on_c, 1, 62, 75
1, 40896, Note_on_c, 1, 55, 75
1, 40944, Note_on_c, 0, 72, 0
1, 40944, Note_on_c, 0, 71, 70
1, 40985, Note_on_c, 1, 65, 0
1, 40985, Note_on_c, 1, 62, 0
1, 40985, Note_on_c, 1, 55, 0
1, 40989, Note_on_c, 0, 71, 0
1, 40992, Note_on_c, 0, 71, 70
1, 41040, Note_on_c, 0, 71, 0
1, 41040, Note_on_c, 0, 69, 70
1, 41085, Note_on_c, 0, 69, 0
1, 41088, Note_on_c, 0, 71, 70
1, 41127, Note_on_c, 0, 71, 0
1, 41184, Note_on_c, 0, 67, 86
1, 41184, Note_on_c, 1, 55, 77
1, 41184, Note_on_c, 1, 52, 77
1, 41202, Note_on_c, 0, 72, 86
1, 41220, Note_on_c, 0, 76, 86
1, 41229, Note_on_c, 1, 55, 0
1, 41229, Note_on_c, 1, 52, 0
1, 41232, Note_on_c, 1, 60, 78
1, 41238, Note_on_c, 0, 79, 86
1, 41277, Note_on_c, 1, 60, 0
1, 41280, Note_on_c, 1, 55, 78
1, 41280, Note_on_c, 1, 52, 78
1, 41325, Note_on_c, 1, 55, 0
1, 41325, Note_on_c, 1, 52, 0
1, 41328, Note_on_c, 1, 60, 78
1, 41373, Note_on_c, 0, 79, 0
1, 41373, Note_on_c, 0, 76, 0
1, 41373, Note_on_c, 0, 72, 0
1, 41373, Note_on_c, 0, 67, 0
1, 41373, Note_on_c, 1, 60, 0
1, 41376, Note_on_c, 0, 76, 70
1, 41376, Note_on_c, 1, 55, 78
1, 41376, Note_on_c, 1, 52, 78
1, 41421, Note_on_c, 1, 55, 0
1, 41421, Note_on_c, 1, 52, 0
1, 41424, Note_on_c, 0, 76, 0
1, 41424, Note_on_c, 0, 72, 70
1, 41424, Note_on_c, 1, 60, 78
1, 41469, Note_on_c, 0, 72, 0
1, 41469, Note_on_c, 1, 60, 0
1, 41472, Note_on_c, 0, 72, 86
1, 41472, Note_on_c, 1, 59, 78
1, 41472, Note_on_c, 1, 55, 78
1, 41472, Note_on_c, 1, 53, 78
1, 41517, Note_on_c, 1, 59, 0
1, 41517, Note_on_c, 1, 55, 0
1, 41517, Note_on_c, 1, 53, 0
1, 41520, Note_on_c, 0, 72, 0
1, 41520, Note_on_c, 0, 71, 70
1, 41520, Note_on_c, 1, 62, 78
1, 41565, Note_on_c, 0, 71, 0
1, 41565, Note_on_c, 1, 62, 0
1, 41568, Note_on_c, 0, 71, 70
1, 41568, Note_on_c, 1, 59, 78
1, 41568, Note_on_c, 1, 55, 78
1, 41568, Note_on_c, 1, 53, 78
1, 41613, Note_on_c, 1, 59, 0
1, 41613, Note_on_c, 1, 55, 0
1, 41613, Note_on_c, 1, 53, 0
1, 41616, Note_on_c, 0, 71, 0
1, 41616, Note_on_c, 0, 69, 70
1, 41616, Note_on_c, 1, 62, 78
1, 41661, Note_on_c, 0, 69, 0
1, 41661, Note_on_c, 1, 62, 0
1, 41664, Note_on_c, 0, 71, 70
1, 41664, Note_on_c, 1, 59, 78
1, 41664, Note_on_c, 1, 55, 78
1, 41664, Note_on_c, 1, 53, 78
1, 41703, Note_on_c, 0, 71, 0
1, 41709, Note_on_c, 1, 59, 0
1, 41709, Note_on_c, 1, 55, 0
1, 41709, Note_on_c, 1, 53, 0
1, 41712, Note_on_c, 1, 62, 78
1, 41757, Note_on_c, 1, 62, 0
1, 41760, Note_on_c, 0, 67, 86
1, 41760, Note_on_c, 1, 55, 78
1, 41760, Note_on_c, 1, 52, 78
1, 41778, Note_on_c, 0, 72, 86
1, 41796, Note_on_c, 0, 76, 86
1, 41805, Note_on_c, 1, 55, 0
1, 41805, Note_on_c, 1, 52, 0
1, 41808, Note_on_c, 1, 60, 78
1, 41814, Note_on_c, 0, 79, 86
1, 41853, Note_on_c, 1, 60, 0
1, 41856, Note_on_c, 1, 55, 78
1, 41856, Note_on_c, 1, 52, 78
1, 41901, Note_on_c, 1, 55, 0
1, 41901, Note_on_c, 1, 52, 0
1, 41904, Note_on_c, 1, 60, 78
1, 41949, Note_on_c, 0, 79, 0
1, 41949, Note_on_c, 0, 76, 0
1, 41949, Note_on_c, 0, 72, 0
1, 41949, Note_on_c, 0, 67, 0
1, 41949, Note_on_c, 1, 60, 0
1, 41952, Note_on_c, 0, 76, 70
1, 41952, Note_on_c, 1, 55, 78
1, 41952, Note_on_c, 1, 52, 78
1, 41997, Note_on_c, 1, 55, 0
1, 41997, Note_on_c, 1, 52, 0
1, 42000, Note_on_c, 0, 76, 0
1, 42000, Note_on_c, 0, 72, 70
1, 42000, Note_on_c, 1, 60, 78
1, 42045, Note_on_c, 0, 72, 0
1, 42045, Note_on_c, 1, 60, 0
1, 42048, Note_on_c, 0, 72, 86
1, 42048, Note_on_c, 1, 59, 78
1, 42048, Note_on_c, 1, 55, 78
1, 42048, Note_on_c, 1, 53, 78
1, 42093, Note_on_c, 1, 59, 0
1, 42093, Note_on_c, 1, 55, 0
1, 42093, Note_on_c, 1, 53, 0
1, 42096, Note_on_c, 0, 72, 0
1, 42096, Note_on_c, 0, 71, 70
1, 42096, Note_on_c, 1, 62, 78
1, 42141, Note_on_c, 0, 71, 0
1, 42141, Note_on_c, 1, 62, 0
1, 42144, Note_on_c, 0, 71, 70
1, 42144, Note_on_c, 1, 59, 78
1, 42144, Note_on_c, 1, 55, 78
1, 42144, Note_on_c, 1, 53, 78
1, 42189, Note_on_c, 1, 59, 0
1, 42189, Note_on_c, 1, 55, 0
1, 42189, Note_on_c, 1, 53, 0
1, 42192, Note_on_c, 0, 71, 0
1, 42192, Note_on_c, 0, 69, 70
1, 42192, Note_on_c, 1, 62, 78
1, 42237, Note_on_c, 0, 69, 0
1, 42237, Note_on_c, 1, 62, 0
1, 42240, Note_on_c, 0, 71, 70
1, 42240, Note_on_c, 1, 59, 78
1, 42240, Note_on_c, 1, 55, 78
1, 42240, Note_on_c, 1, 53, 78
1, 42279, Note_on_c, 0, 71, 0
1, 42285, Note_on_c, 1, 59, 0
1, 42285, Note_on_c, 1, 55, 0
1, 42285, Note_on_c, 1, 53, 0
1, 42288, Note_on_c, 1, 62, 78
1, 42333, Note_on_c, 1, 62, 0
1, 42336, Note_on_c, 0, 67, 86
1, 42336, Note_on_c, 1, 55, 78
1, 42336, Note_on_c, 1, 52, 78
1, 42354, Note_on_c, 0, 72, 86
1, 42372, Note_on_c, 0, 76, 86
1, 42381, Note_on_c, 1, 55, 0
1, 42381, Note_on_c, 1, 52, 0
1, 42384, Note_on_c, 1, 60, 78
1, 42390, Note_on_c, 0, 79, 86
1, 42429, Note_on_c, 1, 60, 0
1, 42432, Note_on_c, 1, 55, 78
1, 42432, Note_on_c, 1, 52, 78
1, 42477, Note_on_c, 1, 55, 0
1, 42477, Note_on_c, 1, 52, 0
1, 42480, Note_on_c, 1, 60, 78
1, 42525, Note_on_c, 0, 79, 0
1, 42525, Note_on_c, 0, 76, 0
1, 42525, Note_on_c, 0, 72, 0
1, 42525, Note_on_c, 0, 67, 0
1, 42525, Note_on_c, 1, 60, 0
1, 42528, Note_on_c, 0, 76, 70
1, 42528, Note_on_c, 1, 55, 78
1, 42528, Note_on_c, 1, 52, 78
1, 42573, Note_on_c, 1, 55, 0
1, 42573, Note_on_c, 1, 52, 0
1, 42576, Note_on_c, 0, 76, 0
1, 42576, Note_on_c, 0, 72, 70
1, 42576, Note_on_c, 1, 60, 78
1, 42621, Note_on_c, 0, 72, 0
1, 42621, Note_on_c, 1, 60, 0
1, 42624, Note_on_c, 0, 69, 86
1, 42624, Note_on_c, 1, 57, 78
1, 42624, Note_on_c, 1, 53, 78
1, 42642, Note_on_c, 0, 74, 86
1, 42660, Note_on_c, 0, 77, 86
1, 42669, Note_on_c, 1, 57, 0
1, 42669, Note_on_c, 1, 53, 0
1, 42672, Note_on_c, 1, 62, 78
1, 42678, Note_on_c, 0, 81, 86
1, 42717, Note_on_c, 1, 62, 0
1, 42720, Note_on_c, 1, 57, 78
1, 42720, Note_on_c, 1, 53, 78
1, 42765, Note_on_c, 1, 57, 0
1, 42765, Note_on_c, 1, 53, 0
1, 42768, Note_on_c, 1, 62, 78
1, 42813, Note_on_c, 0, 81, 0
1, 42813, Note_on_c, 0, 77, 0
1, 42813, Note_on_c, 0, 74, 0
1, 42813, Note_on_c, 0, 69, 0
1, 42813, Note_on_c, 1, 62, 0
1, 42816, Note_on_c, 0, 77, 70
1, 42816, Note_on_c, 1, 57, 78
1, 42816, Note_on_c, 1, 53, 78
1, 42861, Note_on_c, 1, 57, 0
1, 42861, Note_on_c, 1, 53, 0
1, 42864, Note_on_c, 0, 77, 0
1, 42864, Note_on_c, 0, 74, 70
1, 42864, Note_on_c, 1, 62, 78
1, 42909, Note_on_c, 0, 74, 0
1, 42909, Note_on_c, 1, 62, 0
1, 42912, Note_on_c, 0, 72, 70
1, 42912, Note_on_c, 0, 67, 70
1, 42912, Note_on_c, 1, 64, 78
1, 42912, Note_on_c, 1, 55, 64
1, 43089, Note_on_c, 0, 72, 0
1, 43089, Note_on_c, 0, 67, 0
1, 43089, Note_on_c, 1, 64, 0
1, 43104, Note_on_c, 0, 76, 70
1, 43104, Note_on_c, 0, 71, 70
1, 43104, Note_on_c, 1, 65, 78
1, 43128, Note_on_c, 0, 76, 0
1, 43128, Note_on_c, 0, 74, 70
1, 43193, Note_on_c, 1, 65, 0
1, 43195, Note_on_c, 0, 74, 0
1, 43195, Note_on_c, 0, 71, 0
1, 43200, Note_on_c, 0, 72, 70
1, 43200, Note_on_c, 1, 64, 78
1, 43289, Note_on_c, 0, 72, 0
1, 43289, Note_on_c, 1, 64, 0
1, 43289, Note_on_c, 1, 55, 0
1, 43296, Note_on_c, 0, 72, 70
1, 43320, Note_on_c, 0, 72, 0
1, 43320, Note_on_c, 0, 84, 70
1, 43387, Note_on_c, 0, 84, 0
1, 43392, Note_on_c, 0, 71, 70
1, 43416, Note_on_c, 0, 71, 0
1, 43416, Note_on_c, 0, 83, 70
1, 43483, Note_on_c, 0, 83, 0
1, 43488, Note_on_c, 0, 70, 70
1, 43512, Note_on_c, 0, 70, 0
1, 43512, Note_on_c, 0, 82, 70
1, 43579, Note_on_c, 0, 82, 0
1, 43584, Note_on_c, 0, 69, 70
1, 43608, Note_on_c, 0, 69, 0
1, 43608, Note_on_c, 0, 81, 70
1, 43675, Note_on_c, 0, 81, 0
1, 43680, Note_on_c, 0, 67, 70
1, 43704, Note_on_c, 0, 67, 0
1, 43704, Note_on_c, 0, 79, 70
1, 43771, Note_on_c, 0, 79, 0
1, 43776, Note_on_c, 0, 78, 70
1, 43776, Note_on_c, 0, 66, 70
1, 43776, Note_on_c, 1, 63, 78
1, 43776, Note_on_c, 1, 60, 78
1, 43815, Note_on_c, 1, 63, 0
1, 43815, Note_on_c, 1, 60, 0
1, 43872, Note_on_c, 1, 63, 78
1, 43872, Note_on_c, 1, 60, 78
1, 43920, Note_on_c, 1, 63, 0
1, 43920, Note_on_c, 1, 62, 78
1, 43965, Note_on_c, 1, 62, 0
1, 43965, Note_on_c, 1, 60, 0
1, 43968, Note_on_c, 1, 63, 78
1, 43968, Note_on_c, 1, 60, 78
1, 44057, Note_on_c, 1, 63, 0
1, 44057, Note_on_c, 1, 60, 0
1, 44064, Note_on_c, 0, 78, 0
1, 44064, Note_on_c, 0, 66, 0
1, 44064, Note_on_c, 0, 79, 72
1, 44064, Note_on_c, 0, 67, 72
1, 44064, Note_on_c, 1, 62, 78
1, 44064, Note_on_c, 1, 59, 78
1, 44103, Note_on_c, 1, 62, 0
1, 44103, Note_on_c, 1, 59, 0
1, 44160, Note_on_c, 1, 62, 78
1, 44160, Note_on_c, 1, 59, 78
1, 44208, Note_on_c, 1, 62, 0
1, 44208, Note_on_c, 1, 59, 0
1, 44208, Note_on_c, 1, 61, 78
1, 44208, Note_on_c, 1, 57, 78
1, 44253, Note_on_c, 1, 61, 0
1, 44253, Note_on_c, 1, 57, 0
1, 44256, Note_on_c, 1, 62, 78
1, 44256, Note_on_c, 1, 59, 78
1, 44329, Note_on_c, 0, 79, 0
1, 44329, Note_on_c, 0, 67, 0
1, 44345, Note_on_c, 1, 62, 0
1, 44345, Note_on_c, 1, 59, 0
1, 44352, Note_on_c, 0, 74, 74
1, 44352, Note_on_c, 0, 66, 82
1, 44352, Note_on_c, 1, 62, 78
1, 44352, Note_on_c, 1, 57, 78
1, 44400, Note_on_c, 0, 74, 0
1, 44400, Note_on_c, 0, 72, 73
1, 44441, Note_on_c, 1, 62, 0
1, 44441, Note_on_c, 1, 57, 0
1, 44445, Note_on_c, 0, 72, 0
1, 44448, Note_on_c, 0, 72, 72
1, 44448, Note_on_c, 1, 62, 78
1, 44448, Note_on_c, 1, 57, 78
1, 44496, Note_on_c, 0, 72, 0
1, 44496, Note_on_c, 0, 71, 71
1, 44537, Note_on_c, 1, 62, 0
1, 44537, Note_on_c, 1, 57, 0
1, 44541, Note_on_c, 0, 71, 0
1, 44544, Note_on_c, 0, 72, 70
1, 44544, Note_on_c, 1, 62, 78
1, 44544, Note_on_c, 1, 57, 78
1, 44617, Note_on_c, 0, 66, 0
1, 44633, Note_on_c, 0, 72, 0
1, 44633, Note_on_c, 1, 62, 0
1, 44633, Note_on_c, 1, 57, 0
1, 44640, Note_on_c, 0, 71, 70
1, 44640, Note_on_c, 0, 67, 70
1, 44640, Note_on_c, 1, 62, 78
1, 44640, Note_on_c, 1, 55, 78
1, 44729, Note_on_c, 0, 71, 0
1, 44729, Note_on_c, 0, 67, 0
1, 44729, Note_on_c, 1, 62, 0
1, 44729, Note_on_c, 1, 55, 0
1, 44832, Note_on_c, 0, 67, 70
1, 44921, Note_on_c, 0, 67, 0
1, 44928, Note_on_c, 0, 72, 86
1, 44928, Note_on_c, 1, 63, 70
1, 44928, Note_on_c, 1, 60, 70
1, 44967, Note_on_c, 0, 72, 0
1, 44967, Note_on_c, 1, 63, 0
1, 44967, Note_on_c, 1, 60, 0
1, 45024, Note_on_c, 0, 72, 70
1, 45024, Note_on_c, 1, 65, 70
1, 45024, Note_on_c, 1, 62, 70
1, 45063, Note_on_c, 0, 72, 0
1, 45063, Note_on_c, 1, 65, 0
1, 45063, Note_on_c, 1, 62, 0
1, 45120, Note_on_c, 0, 72, 70
1, 45120, Note_on_c, 1, 67, 70
1, 45120, Note_on_c, 1, 63, 70
1, 45159, Note_on_c, 0, 72, 0
1, 45159, Note_on_c, 1, 67, 0
1, 45159, Note_on_c, 1, 63, 0
1, 45216, Note_on_c, 0, 75, 86
1, 45216, Note_on_c, 1, 68, 70
1, 45216, Note_on_c, 1, 65, 70
1, 45264, Note_on_c, 0, 75, 0
1, 45264, Note_on_c, 0, 73, 70
1, 45309, Note_on_c, 0, 73, 0
1, 45312, Note_on_c, 0, 73, 70
1, 45360, Note_on_c, 0, 73, 0
1, 45360, Note_on_c, 0, 72, 70
1, 45405, Note_on_c, 0, 72, 0
1, 45408, Note_on_c, 0, 73, 70
1, 45481, Note_on_c, 1, 68, 0
1, 45481, Note_on_c, 1, 65, 0
1, 45549, Note_on_c, 0, 73, 0
1, 45696, Note_on_c, 0, 67, 82
1, 45785, Note_on_c, 0, 67, 0
1, 45792, Note_on_c, 0, 72, 98
1, 45792, Note_on_c, 1, 64, 82
1, 45792, Note_on_c, 1, 60, 82
1, 45831, Note_on_c, 0, 72, 0
1, 45831, Note_on_c, 1, 64, 0
1, 45831, Note_on_c, 1, 60, 0
1, 45888, Note_on_c, 0, 72, 82
1, 45888, Note_on_c, 1, 65, 82
1, 45888, Note_on_c, 1, 62, 82
1, 45927, Note_on_c, 0, 72, 0
1, 45927, Note_on_c, 1, 65, 0
1, 45927, Note_on_c, 1, 62, 0
1, 45984, Note_on_c, 0, 72, 82
1, 45984, Note_on_c, 1, 67, 82
1, 45984, Note_on_c, 1, 64, 82
1, 46023, Note_on_c, 0, 72, 0
1, 46023, Note_on_c, 1, 67, 0
1, 46023, Note_on_c, 1, 64, 0
1, 46080, Note_on_c, 0, 76, 98
1, 46080, Note_on_c, 1, 69, 82
1, 46080, Note_on_c, 1, 65, 82
1, 46128, Note_on_c, 0, 76, 0
1, 46128, Note_on_c, 0, 74, 82
1, 46173, Note_on_c, 0, 74, 0
1, 46176, Note_on_c, 0, 74, 82
1, 46224, Note_on_c, 0, 74, 0
1, 46224, Note_on_c, 0, 73, 82
1, 46269, Note_on_c, 0, 73, 0
1, 46272, Note_on_c, 0, 74, 82
1, 46345, Note_on_c, 1, 69, 0
1, 46345, Note_on_c, 1, 65, 0
1, 46361, Note_on_c, 0, 74, 0
1, 46368, Note_on_c, 0, 72, 98
1, 46368, Note_on_c, 1, 66, 82
1, 46368, Note_on_c, 1, 63, 82
1, 46416, Note_on_c, 0, 72, 0
1, 46416, Note_on_c, 0, 71, 82
1, 46461, Note_on_c, 0, 71, 0
1, 46464, Note_on_c, 0, 71, 82
1, 46512, Note_on_c, 0, 71, 0
1, 46512, Note_on_c, 0, 70, 82
1, 46557, Note_on_c, 0, 70, 0
1, 46560, Note_on_c, 0, 71, 82
1, 46633, Note_on_c, 1, 66, 0
1, 46633, Note_on_c, 1, 63, 0
1, 46701, Note_on_c, 0, 71, 0
1, 46848, Note_on_c, 0, 79, 82
1, 46937, Note_on_c, 0, 79, 0
1, 46944, Note_on_c, 0, 84, 98
1, 46944, Note_on_c, 0, 76, 98
1, 46944, Note_on_c, 1, 60, 82
1, 46944, Note_on_c, 1, 52, 82
1, 46944, Note_on_c, 1, 48, 82
1, 46983, Note_on_c, 0, 84, 0
1, 46983, Note_on_c, 0, 76, 0
1, 46983, Note_on_c, 1, 60, 0
1, 46983, Note_on_c, 1, 52, 0
1, 46983, Note_on_c, 1, 48, 0
1, 47040, Note_on_c, 0, 84, 82
1, 47040, Note_on_c, 0, 77, 82
1, 47040, Note_on_c, 1, 62, 82
1, 47040, Note_on_c, 1, 53, 82
1, 47040, Note_on_c, 1, 50, 82
1, 47079, Note_on_c, 0, 84, 0
1, 47079, Note_on_c, 0, 77, 0
1, 47079, Note_on_c, 1, 62, 0
1, 47079, Note_on_c, 1, 53, 0
1, 47079, Note_on_c, 1, 50, 0
1, 47136, Note_on_c, 0, 84, 82
1, 47136, Note_on_c, 0, 79, 82
1, 47136, Note_on_c, 1, 64, 82
1, 47136, Note_on_c, 1, 55, 82
1, 47136, Note_on_c, 1, 52, 82
1, 47175, Note_on_c, 0, 84, 0
1, 47175, Note_on_c, 0, 79, 0
1, 47175, Note_on_c, 1, 64, 0
1, 47175, Note_on_c, 1, 55, 0
1, 47175, Note_on_c, 1, 52, 0
1, 47232, Note_on_c, 0, 86, 82
1, 47232, Note_on_c, 0, 81, 82
1, 47232, Note_on_c, 0, 74, 82
1, 47232, Note_on_c, 1, 65, 82
1, 47232, Note_on_c, 1, 57, 82
1, 47232, Note_on_c, 1, 53, 82
1, 47271, Note_on_c, 0, 86, 0
1, 47271, Note_on_c, 0, 81, 0
1, 47271, Note_on_c, 0, 74, 0
1, 47326, Note_on_c, 1, 65, 0
1, 47326, Note_on_c, 1, 57, 0
1, 47326, Note_on_c, 1, 53, 0
1, 47328, Note_on_c, 0, 86, 82
1, 47328, Note_on_c, 1, 65, 82
1, 47376, Note_on_c, 0, 86, 0
1, 47376, Note_on_c, 0, 85, 82
1, 47376, Note_on_c, 1, 65, 0
1, 47376, Note_on_c, 1, 64, 82
1, 47421, Note_on_c, 0, 85, 0
1, 47421, Note_on_c, 1, 64, 0
1, 47424, Note_on_c, 0, 86, 82
1, 47424, Note_on_c, 1, 65, 82
1, 47513, Note_on_c, 0, 86, 0
1, 47513, Note_on_c, 1, 65, 0
1, 47520, Note_on_c, 0, 83, 82
1, 47520, Note_on_c, 0, 77, 82
1, 47520, Note_on_c, 1, 74, 82
1, 47520, Note_on_c, 1, 67, 82
1, 47559, Note_on_c, 0, 83, 0
1, 47559, Note_on_c, 0, 77, 0
1, 47559, Note_on_c, 1, 74, 0
1, 47559, Note_on_c, 1, 67, 0
1, 47616, Note_on_c, 0, 83, 82
1, 47616, Note_on_c, 0, 77, 82
1, 47616, Note_on_c, 1, 74, 82
1, 47616, Note_on_c, 1, 67, 82
1, 47664, Note_on_c, 0, 77, 0
1, 47664, Note_on_c, 0, 76, 82
1, 47664, Note_on_c, 1, 74, 0
1, 47664, Note_on_c, 1, 73, 82
1, 47709, Note_on_c, 0, 76, 0
1, 47709, Note_on_c, 1, 73, 0
1, 47712, Note_on_c, 0, 77, 82
1, 47712, Note_on_c, 1, 74, 82
1, 47793, Note_on_c, 0, 83, 0
1, 47793, Note_on_c, 1, 67, 0
1, 47801, Note_on_c, 0, 77, 0
1, 47801, Note_on_c, 1, 74, 0
1, 47808, Note_on_c, 0, 79, 98
1, 47808, Note_on_c, 1, 67, 82
1, 47808, Note_on_c, 1, 64, 82
1, 47826, Note_on_c, 0, 84, 98
1, 47844, Note_on_c, 0, 88, 98
1, 47853, Note_on_c, 1, 67, 0
1, 47856, Note_on_c, 1, 72, 82
1, 47862, Note_on_c, 0, 91, 98
1, 47897, Note_on_c, 1, 64, 0
1, 47901, Note_on_c, 1, 72, 0
1, 47904, Note_on_c, 1, 67, 82
1, 47904, Note_on_c, 1, 64, 82
1, 47949, Note_on_c, 1, 67, 0
1, 47952, Note_on_c, 1, 72, 82
1, 47993, Note_on_c, 1, 64, 0
1, 47997, Note_on_c, 0, 91, 0
1, 47997, Note_on_c, 0, 88, 0
1, 47997, Note_on_c, 0, 84, 0
1, 47997, Note_on_c, 0, 79, 0
1, 47997, Note_on_c, 1, 72, 0
1, 48000, Note_on_c, 0, 88, 82
1, 48000, Note_on_c, 1, 67, 82
1, 48000, Note_on_c, 1, 64, 82
1, 48045, Note_on_c, 1, 67, 0
1, 48048, Note_on_c, 0, 88, 0
1, 48048, Note_on_c, 0, 84, 82
1, 48048, Note_on_c, 1, 72, 82
1, 48089, Note_on_c, 1, 64, 0
1, 48093, Note_on_c, 0, 84, 0
1, 48093, Note_on_c, 1, 72, 0
1, 48096, Note_on_c, 0, 84, 98
1, 48096, Note_on_c, 1, 71, 82
1, 48096, Note_on_c, 1, 67, 82
1, 48096, Note_on_c, 1, 65, 82
1, 48141, Note_on_c, 1, 71, 0
1, 48144, Note_on_c, 0, 84, 0
1, 48144, Note_on_c, 0, 83, 82
1, 48144, Note_on_c, 1, 74, 82
1, 48185, Note_on_c, 1, 67, 0
1, 48185, Note_on_c, 1, 65, 0
1, 48189, Note_on_c, 0, 83, 0
1, 48189, Note_on_c, 1, 74, 0
1, 48192, Note_on_c, 0, 83, 82
1, 48192, Note_on_c, 1, 71, 82
1, 48192, Note_on_c, 1, 67, 82
1, 48192, Note_on_c, 1, 65, 82
1, 48237, Note_on_c, 1, 71, 0
1, 48240, Note_on_c, 0, 83, 0
1, 48240, Note_on_c, 0, 81, 82
1, 48240, Note_on_c, 1, 74, 82
1, 48281, Note_on_c, 1, 67, 0
1, 48281, Note_on_c, 1, 65, 0
1, 48285, Note_on_c, 0, 81, 0
1, 48285, Note_on_c, 1, 74, 0
1, 48288, Note_on_c, 0, 83, 82
1, 48288, Note_on_c, 1, 71, 82
1, 48288, Note_on_c, 1, 67, 82
1, 48288, Note_on_c, 1, 65, 82
1, 48327, Note_on_c, 0, 83, 0
1, 48333, Note_on_c, 1, 71, 0
1, 48336, Note_on_c, 1, 74, 82
1, 48377, Note_on_c, 1, 67, 0
1, 48377, Note_on_c, 1, 65, 0
1, 48381, Note_on_c, 1, 74, 0
1, 48384, Note_on_c, 0, 79, 98
1, 48384, Note_on_c, 1, 67, 82
1, 48384, Note_on_c, 1, 64, 82
1, 48402, Note_on_c, 0, 84, 98
1, 48420, Note_on_c, 0, 88, 98
1, 48429, Note_on_c, 1, 67, 0
1, 48432, Note_on_c, 1, 72, 82
1, 48438, Note_on_c, 0, 91, 98
1, 48473, Note_on_c, 1, 64, 0
1, 48477, Note_on_c, 1, 72, 0
1, 48480, Note_on_c, 1, 67, 82
1, 48480, Note_on_c, 1, 64, 82
1, 48525, Note_on_c, 1, 67, 0
1, 48528, Note_on_c, 1, 72, 82
1, 48569, Note_on_c, 1, 64, 0
1, 48573, Note_on_c, 0, 91, 0
1, 48573, Note_on_c, 0, 88, 0
1, 48573, Note_on_c, 0, 84, 0
1, 48573, Note_on_c, 0, 79, 0
1, 48573, Note_on_c, 1, 72, 0
1, 48576, Note_on_c, 0, 88, 82
1, 48576, Note_on_c, 1, 67, 82
1, 48576, Note_on_c, 1, 64, 82
1, 48621, Note_on_c, 1, 67, 0
1, 48624, Note_on_c, 0, 88, 0
1, 48624, Note_on_c, 0, 84, 82
1, 48624, Note_on_c, 1, 72, 82
1, 48665, Note_on_c, 1, 64, 0
1, 48669, Note_on_c, 0, 84, 0
1, 48669, Note_on_c, 1, 72, 0
1, 48672, Note_on_c, 0, 84, 98
1, 48672, Note_on_c, 1, 71, 82
1, 48672, Note_on_c, 1, 67, 82
1, 48672, Note_on_c, 1, 65, 82
1, 48717, Note_on_c, 1, 71, 0
1, 48720, Note_on_c, 0, 84, 0
1, 48720, Note_on_c, 0, 83, 82
1, 48720, Note_on_c, 1, 74, 82
1, 48761, Note_on_c, 1, 67, 0
1, 48761, Note_on_c, 1, 65, 0
1, 48765, Note_on_c, 0, 83, 0
1, 48765, Note_on_c, 1, 74, 0
1, 48768, Note_on_c, 0, 83, 82
1, 48768, Note_on_c, 1, 71, 82
1, 48768, Note_on_c, 1, 67, 82
1, 48768, Note_on_c, 1, 65, 82
1, 48813, Note_on_c, 1, 71, 0
1, 48816, Note_on_c, 0, 83, 0
1, 48816, Note_on_c, 0, 81, 82
1, 48816, Note_on_c, 1, 74, 82
1, 48857, Note_on_c, 1, 67, 0
1, 48857, Note_on_c, 1, 65, 0
1, 48861, Note_on_c, 0, 81, 0
1, 48861, Note_on_c, 1, 74, 0
1, 48864, Note_on_c, 0, 83, 82
1, 48864, Note_on_c, 1, 71, 82
1, 48864, Note_on_c, 1, 67, 82
1, 48864, Note_on_c, 1, 65, 82
1, 48903, Note_on_c, 0, 83, 0
1, 48909, Note_on_c, 1, 71, 0
1, 48912, Note_on_c, 1, 74, 82
1, 48953, Note_on_c, 1, 67, 0
1, 48953, Note_on_c, 1, 65, 0
1, 48957, Note_on_c, 1, 74, 0
1, 48960, Note_on_c, 0, 79, 98
1, 48960, Note_on_c, 1, 67, 82
1, 48960, Note_on_c, 1, 64, 82
1, 48978, Note_on_c, 0, 84, 98
1, 48996, Note_on_c, 0, 88, 98
1, 49005, Note_on_c, 1, 67, 0
1, 49008, Note_on_c, 1, 72, 82
1, 49014, Note_on_c, 0, 91, 98
1, 49049, Note_on_c, 1, 64, 0
1, 49053, Note_on_c, 1, 72, 0
1, 49056, Note_on_c, 1, 67, 82
1, 49056, Note_on_c, 1, 64, 82
1, 49101, Note_on_c, 1, 67, 0
1, 49104, Note_on_c, 1, 72, 82
1, 49145, Note_on_c, 1, 64, 0
1, 49149, Note_on_c, 0, 91, 0
1, 49149, Note_on_c, 0, 88, 0
1, 49149, Note_on_c, 0, 84, 0
1, 49149, Note_on_c, 0, 79, 0
1, 49149, Note_on_c, 1, 72, 0
1, 49152, Note_on_c, 0, 88, 82
1, 49152, Note_on_c, 1, 67, 82
1, 49152, Note_on_c, 1, 64, 82
1, 49197, Note_on_c, 1, 67, 0
1, 49200, Note_on_c, 0, 88, 0
1, 49200, Note_on_c, 0, 84, 82
1, 49200, Note_on_c, 1, 72, 82
1, 49241, Note_on_c, 1, 64, 0
1, 49245, Note_on_c, 0, 84, 0
1, 49245, Note_on_c, 1, 72, 0
1, 49248, Note_on_c, 0, 81, 98
1, 49248, Note_on_c, 1, 69, 82
1, 49248, Note_on_c, 1, 65, 82
1, 49266, Note_on_c, 0, 86, 98
1, 49284, Note_on_c, 0, 89, 98
1, 49293, Note_on_c, 1, 69, 0
1, 49296, Note_on_c, 1, 74, 82
1, 49302, Note_on_c, 0, 93, 98
1, 49337, Note_on_c, 1, 65, 0
1, 49341, Note_on_c, 1, 74, 0
1, 49344, Note_on_c, 1, 69, 82
1, 49344, Note_on_c, 1, 65, 82
1, 49389, Note_on_c, 1, 69, 0
1, 49392, Note_on_c, 1, 74, 82
1, 49433, Note_on_c, 1, 65, 0
1, 49437, Note_on_c, 0, 93, 0
1, 49437, Note_on_c, 0, 89, 0
1, 49437, Note_on_c, 0, 86, 0
1, 49437, Note_on_c, 0, 81, 0
1, 49437, Note_on_c, 1, 74, 0
1, 49440, Note_on_c, 0, 89, 82
1, 49440, Note_on_c, 1, 69, 82
1, 49440, Note_on_c, 1, 65, 82
1, 49485, Note_on_c, 1, 69, 0
1, 49488, Note_on_c, 0, 89, 0
1, 49488, Note_on_c, 0, 86, 82
1, 49488, Note_on_c, 1, 74, 82
1, 49529, Note_on_c, 1, 65, 0
1, 49533, Note_on_c, 0, 86, 0
1, 49533, Note_on_c, 1, 74, 0
1, 49536, Note_on_c, 0, 84, 82
1, 49536, Note_on_c, 0, 79, 82
1, 49536, Note_on_c, 1, 76, 82
1, 49536, Note_on_c, 1, 67, 82
1, 49713, Note_on_c, 0, 84, 0
1, 49713, Note_on_c, 0, 79, 0
1, 49713, Note_on_c, 1, 76, 0
1, 49728, Note_on_c, 0, 88, 82
1, 49728, Note_on_c, 0, 83, 82
1, 49728, Note_on_c, 1, 77, 82
1, 49752, Note_on_c, 0, 88, 0
1, 49752, Note_on_c, 0, 86, 82
1, 49801, Note_on_c, 1, 67, 0
1, 49817, Note_on_c, 1, 77, 0
1, 49819, Note_on_c, 0, 86, 0
1, 49819, Note_on_c, 0, 83, 0
1, 49824, Note_on_c, 0, 67, 98
1, 49824, Note_on_c, 1, 52, 82
1, 49824, Note_on_c, 1, 48, 82
1, 49842, Note_on_c, 0, 72, 98
1, 49860, Note_on_c, 0, 76, 98
1, 49869, Note_on_c, 1, 52, 0
1, 49872, Note_on_c, 1, 55, 82
1, 49878, Note_on_c, 0, 79, 98
1, 49913, Note_on_c, 1, 48, 0
1, 49917, Note_on_c, 1, 55, 0
1, 49920, Note_on_c, 1, 52, 82
1, 49920, Note_on_c, 1, 48, 82
1, 49965, Note_on_c, 1, 52, 0
1, 49968, Note_on_c, 1, 55, 82
1, 50009, Note_on_c, 1, 48, 0
1, 50013, Note_on_c, 0, 79, 0
1, 50013, Note_on_c, 0, 76, 0
1, 50013, Note_on_c, 0, 72, 0
1, 50013, Note_on_c, 0, 67, 0
1, 50013, Note_on_c, 1, 55, 0
1, 50016, Note_on_c, 0, 76, 82
1, 50016, Note_on_c, 1, 52, 82
1, 50016, Note_on_c, 1, 48, 82
1, 50061, Note_on_c, 1, 52, 0
1, 50064, Note_on_c, 0, 76, 0
1, 50064, Note_on_c, 0, 72, 82
1, 50064, Note_on_c, 1, 55, 82
1, 50105, Note_on_c, 1, 48, 0
1, 50109, Note_on_c, 0, 72, 0
1, 50109, Note_on_c, 1, 55, 0
1, 50112, Note_on_c, 0, 72, 98
1, 50112, Note_on_c, 1, 53, 82
1, 50112, Note_on_c, 1, 50, 82
1, 50157, Note_on_c, 1, 53, 0
1, 50160, Note_on_c, 0, 72, 0
1, 50160, Note_on_c, 0, 71, 82
1, 50160, Note_on_c, 1, 55, 82
1, 50201, Note_on_c, 1, 50, 0
1, 50205, Note_on_c, 0, 71, 0
1, 50205, Note_on_c, 1, 55, 0
1, 50208, Note_on_c, 0, 71, 82
1, 50208, Note_on_c, 1, 53, 82
1, 50208, Note_on_c, 1, 50, 82
1, 50253, Note_on_c, 1, 53, 0
1, 50256, Note_on_c, 0, 71, 0
1, 50256, Note_on_c, 0, 69, 82
1, 50256, Note_on_c, 1, 55, 82
1, 50297, Note_on_c, 1, 50, 0
1, 50301, Note_on_c, 0, 69, 0
1, 50301, Note_on_c, 1, 55, 0
1, 50304, Note_on_c, 0, 71, 82
1, 50304, Note_on_c, 1, 53, 82
1, 50304, Note_on_c, 1, 50, 82
1, 50343, Note_on_c, 0, 71, 0
1, 50349, Note_on_c, 1, 53, 0
1, 50352, Note_on_c, 1, 55, 82
1, 50393, Note_on_c, 1, 50, 0
1, 50397, Note_on_c, 1, 55, 0
1, 50400, Note_on_c, 0, 67, 98
1, 50400, Note_on_c, 1, 52, 82
1, 50400, Note_on_c, 1, 48, 82
1, 50418, Note_on_c, 0, 72, 98
1, 50436, Note_on_c, 0, 76, 98
1, 50445, Note_on_c, 1, 52, 0
1, 50448, Note_on_c, 1, 55, 82
1, 50454, Note_on_c, 0, 79, 98
1, 50489, Note_on_c, 1, 48, 0
1, 50493, Note_on_c, 1, 55, 0
1, 50496, Note_on_c, 1, 52, 82
1, 50496, Note_on_c, 1, 48, 82
1, 50541, Note_on_c, 1, 52, 0
1, 50544, Note_on_c, 1, 55, 82
1, 50585, Note_on_c, 1, 48, 0
1, 50589, Note_on_c, 0, 79, 0
1, 50589, Note_on_c, 0, 76, 0
1, 50589, Note_on_c, 0, 72, 0
1, 50589, Note_on_c, 0, 67, 0
1, 50589, Note_on_c, 1, 55, 0
1, 50592, Note_on_c, 0, 76, 82
1, 50592, Note_on_c, 1, 52, 82
1, 50592, Note_on_c, 1, 48, 82
1, 50637, Note_on_c, 1, 52, 0
1, 50640, Note_on_c, 0, 76, 0
1, 50640, Note_on_c, 0, 72, 82
1, 50640, Note_on_c, 1, 55, 82
1, 50681, Note_on_c, 1, 48, 0
1, 50685, Note_on_c, 0, 72, 0
1, 50685, Note_on_c, 1, 55, 0
1, 50688, Note_on_c, 0, 72, 98
1, 50688, Note_on_c, 1, 53, 82
1, 50688, Note_on_c, 1, 50, 82
1, 50733, Note_on_c, 1, 53, 0
1, 50736, Note_on_c, 0, 72, 0
1, 50736, Note_on_c, 0, 71, 82
1, 50736, Note_on_c, 1, 55, 82
1, 50777, Note_on_c, 1, 50, 0
1, 50781, Note_on_c, 0, 71, 0
1, 50781, Note_on_c, 1, 55, 0
1, 50784, Note_on_c, 0, 71, 82
1, 50784, Note_on_c, 1, 53, 82
1, 50784, Note_on_c, 1, 50, 82
1, 50829, Note_on_c, 1, 53, 0
1, 50832, Note_on_c, 0, 71, 0
1, 50832, Note_on_c, 0, 69, 82
1, 50832, Note_on_c, 1, 55, 82
1, 50873, Note_on_c, 1, 50, 0
1, 50877, Note_on_c, 0, 69, 0
1, 50877, Note_on_c, 1, 55, 0
1, 50880, Note_on_c, 0, 71, 82
1, 50880, Note_on_c, 1, 53, 82
1, 50880, Note_on_c, 1, 50, 82
1, 50919, Note_on_c, 0, 71, 0
1, 50925, Note_on_c, 1, 53, 0
1, 50928, Note_on_c, 1, 55, 82
1, 50969, Note_on_c, 1, 50, 0
1, 50973, Note_on_c, 1, 55, 0
1, 50976, Note_on_c, 0, 67, 98
1, 50976, Note_on_c, 1, 52, 82
1, 50976, Note_on_c, 1, 48, 82
1, 50994, Note_on_c, 0, 72, 98
1, 51012, Note_on_c, 0, 76, 98
1, 51021, Note_on_c, 1, 52, 0
1, 51024, Note_on_c, 1, 55, 82
1, 51030, Note_on_c, 0, 79, 98
1, 51065, Note_on_c, 1, 48, 0
1, 51069, Note_on_c, 1, 55, 0
1, 51072, Note_on_c, 1, 52, 82
1, 51072, Note_on_c, 1, 48, 82
1, 51117, Note_on_c, 1, 52, 0
1, 51120, Note_on_c, 1, 55, 82
1, 51161, Note_on_c, 1, 48, 0
1, 51165, Note_on_c, 0, 79, 0
1, 51165, Note_on_c, 0, 76, 0
1, 51165, Note_on_c, 0, 72, 0
1, 51165, Note_on_c, 0, 67, 0
1, 51165, Note_on_c, 1, 55, 0
1, 51168, Note_on_c, 0, 76, 82
1, 51168, Note_on_c, 1, 52, 82
1, 51168, Note_on_c, 1, 48, 82
1, 51213, Note_on_c, 1, 52, 0
1, 51216, Note_on_c, 0, 76, 0
1, 51216, Note_on_c, 0, 72, 82
1, 51216, Note_on_c, 1, 55, 82
1, 51257, Note_on_c, 1, 48, 0
1, 51261, Note_on_c, 0, 72, 0
1, 51261, Note_on_c, 1, 55, 0
1, 51264, Note_on_c, 0, 69, 98
1, 51264, Note_on_c, 1, 57, 82
1, 51264, Note_on_c, 1, 53, 82
1, 51282, Note_on_c, 0, 74, 98
1, 51300, Note_on_c, 0, 77, 98
1, 51309, Note_on_c, 1, 57, 0
1, 51312, Note_on_c, 1, 62, 82
1, 51318, Note_on_c, 0, 81, 98
1, 51353, Note_on_c, 1, 53, 0
1, 51357, Note_on_c, 1, 62, 0
1, 51360, Note_on_c, 1, 57, 82
1, 51360, Note_on_c, 1, 53, 82
1, 51405, Note_on_c, 1, 57, 0
1, 51408, Note_on_c, 1, 62, 82
1, 51449, Note_on_c, 1, 53, 0
1, 51453, Note_on_c, 0, 81, 0
1, 51453, Note_on_c, 0, 77, 0
1, 51453, Note_on_c, 0, 74, 0
1, 51453, Note_on_c, 0, 69, 0
1, 51453, Note_on_c, 1, 62, 0
1, 51456, Note_on_c, 0, 77, 82
1, 51456, Note_on_c, 1, 57, 82
1, 51456, Note_on_c, 1, 53, 82
1, 51501, Note_on_c, 1, 57, 0
1, 51504, Note_on_c, 0, 77, 0
1, 51504, Note_on_c, 0, 74, 82
1, 51504, Note_on_c, 1, 62, 82
1, 51545, Note_on_c, 1, 53, 0
1, 51549, Note_on_c, 0, 74, 0
1, 51549, Note_on_c, 1, 62, 0
1, 51552, Note_on_c, 0, 72, 82
1, 51552, Note_on_c, 0, 67, 82
1, 51552, Note_on_c, 1, 64, 82
1, 51552, Note_on_c, 1, 55, 82
1, 51729, Note_on_c, 0, 72, 0
1, 51729, Note_on_c, 0, 67, 0
1, 51744, Note_on_c, 0, 76, 82
1, 51744, Note_on_c, 0, 71, 82
1, 51744, Note_on_c, 1, 64, 0
1, 51744, Note_on_c, 1, 65, 82
1, 51768, Note_on_c, 0, 76, 0
1, 51768, Note_on_c, 0, 74, 82
1, 51817, Note_on_c, 1, 55, 0
1, 51833, Note_on_c, 1, 65, 0
1, 51835, Note_on_c, 0, 74, 0
1, 51835, Note_on_c, 0, 71, 0
1, 51840, Note_on_c, 0, 72, 82
1, 51840, Note_on_c, 1, 64, 82
1, 51840, Note_on_c, 1, 60, 82
1, 51929, Note_on_c, 0, 72, 0
1, 51929, Note_on_c, 1, 64, 0
1, 51929, Note_on_c, 1, 60, 0
1, 51936, Note_on_c, 0, 84, 86
1, 51936, Note_on_c, 1, 67, 70
1, 51936, Note_on_c, 1, 64, 70
1, 51984, Note_on_c, 0, 84, 0
1, 51984, Note_on_c, 0, 83, 70
1, 52025, Note_on_c, 1, 67, 0
1, 52025, Note_on_c, 1, 64, 0
1, 52029, Note_on_c, 0, 83, 0
1, 52032, Note_on_c, 0, 84, 70
1, 52032, Note_on_c, 1, 65, 70
1, 52032, Note_on_c, 1, 62, 70
1, 52077, Note_on_c, 0, 84, 0
1, 52080, Note_on_c, 0, 83, 70
1, 52121, Note_on_c, 1, 65, 0
1, 52121, Note_on_c, 1, 62, 0
1, 52125, Note_on_c, 0, 83, 0
1, 52128, Note_on_c, 0, 84, 86
1, 52128, Note_on_c, 1, 64, 70
1, 52128, Note_on_c, 1, 60, 70
1, 52167, Note_on_c, 1, 64, 0
1, 52167, Note_on_c, 1, 60, 0
1, 52176, Note_on_c, 0, 84, 0
1, 52176, Note_on_c, 0, 83, 71
1, 52221, Note_on_c, 0, 83, 0
1, 52224, Note_on_c, 0, 84, 72
1, 52224, Note_on_c, 1, 55, 72
1, 52224, Note_on_c, 1, 52, 72
1, 52269, Note_on_c, 0, 84, 0
1, 52272, Note_on_c, 0, 83, 73
1, 52313, Note_on_c, 1, 55, 0
1, 52313, Note_on_c, 1, 52, 0
1, 52317, Note_on_c, 0, 83, 0
1, 52320, Note_on_c, 0, 84, 74
1, 52320, Note_on_c, 1, 53, 74
1, 52320, Note_on_c, 1, 50, 74
1, 52365, Note_on_c, 0, 84, 0
1, 52368, Note_on_c, 0, 83, 75
1, 52409, Note_on_c, 1, 53, 0
1, 52409, Note_on_c, 1, 50, 0
1, 52413, Note_on_c, 0, 83, 0
1, 52416, Note_on_c, 0, 84, 92
1, 52416, Note_on_c, 1, 52, 76
1, 52416, Note_on_c, 1, 48, 76
1, 52455, Note_on_c, 1, 52, 0
1, 52455, Note_on_c, 1, 48, 0
1, 52464, Note_on_c, 0, 84, 0
1, 52464, Note_on_c, 0, 83, 77
1, 52509, Note_on_c, 0, 83, 0
1, 52512, Note_on_c, 0, 84, 78
1, 52512, Note_on_c, 1, 43, 78
1, 52512, Note_on_c, 1, 40, 78
1, 52557, Note_on_c, 0, 84, 0
1, 52560, Note_on_c, 0, 83, 79
1, 52601, Note_on_c, 1, 43, 0
1, 52601, Note_on_c, 1, 40, 0
1, 52605, Note_on_c, 0, 83, 0
1, 52608, Note_on_c, 0, 84, 80
1, 52608, Note_on_c, 1, 41, 80
1, 52608, Note_on_c, 1, 38, 80
1, 52653, Note_on_c, 0, 84, 0
1, 52656, Note_on_c, 0, 83, 81
1, 52697, Note_on_c, 1, 41, 0
1, 52697, Note_on_c, 1, 38, 0
1, 52701, Note_on_c, 0, 83, 0
1, 52704, Note_on_c, 0, 84, 102
1, 52704, Note_on_c, 1, 40, 86
1, 52704, Note_on_c, 1, 36, 86
1, 52743, Note_on_c, 1, 40, 0
1, 52743, Note_on_c, 1, 36, 0
1, 52800, Note_on_c, 0, 84, 0
1, 52800, Note_on_c, 0, 84, 86
1, 52800, Note_on_c, 0, 79, 86
1, 52800, Note_on_c, 0, 76, 86
1, 52800, Note_on_c, 1, 36, 86
1, 52889, Note_on_c, 0, 84, 0
1, 52889, Note_on_c, 0, 79, 0
1, 52889, Note_on_c, 0, 76, 0
1, 52889, Note_on_c, 1, 36, 0
1, 52896, Note_on_c, 0, 84, 86
1, 52896, Note_on_c, 0, 79, 86
1, 52896, Note_on_c, 0, 76, 86
1, 52896, Note_on_c, 1, 36, 86
1, 52985, Note_on_c, 0, 84, 0
1, 52985, Note_on_c, 0, 79, 0
1, 52985, Note_on_c, 0, 76, 0
1, 52985, Note_on_c, 1, 36, 0
1, 52992, Note_on_c, 0, 84, 86
1, 52992, Note_on_c, 0, 79, 86
1, 52992, Note_on_c, 0, 76, 86
1, 52992, Note_on_c, 1, 48, 86
1, 52992, Note_on_c, 1, 36, 86
1, 53169, Note_on_c, 0, 84, 0
1, 53169, Note_on_c, 0, 79, 0
1, 53169, Note_on_c, 0, 76, 0
1, 53169, Note_on_c, 1, 48, 0
1, 53169, Note_on_c, 1, 36, 0
1, 53280, Note_on_c, 1, 36, 0
1, 53369, Note_on_c, 1, 36, 0
1, 53379, End_track
0, 0, End_of_file