0, 0, Header, 0, 1, 96
1, 0, Start_track
1, 0, Tempo, 612244
1, 0, Note_on_c, 0, 83, 78
1, 12, Note_on_c, 0, 83, 0
1, 12, Note_on_c, 0, 81, 78
1, 24, Note_on_c, 0, 81, 0
1, 24, Note_on_c, 0, 80, 78
1, 36, Note_on_c, 0, 80, 0
1, 36, Note_on_c, 0, 81, 78
1, 48, Note_on_c, 1, 66, 63
1, 48, Note_on_c, 1, 62, 63
1, 68, Note_on_c, 1, 66, 0
1, 68, Note_on_c, 1, 62, 0
1, 96, Note_on_c, 1, 66, 63
1, 96, Note_on_c, 1, 62, 63
1, 133, Note_on_c, 0, 81, 0
1, 143, Note_on_c, 1, 66, 0
1, 143, Note_on_c, 1, 62, 0
1, 144, Note_on_c, 0, 86, 78
1, 167, Note_on_c, 0, 86, 0
1, 168, Note_on_c, 0, 81, 78
1, 191, Note_on_c, 0, 81, 0
1, 192, Note_on_c, 0, 78, 78
1, 240, Note_on_c, 1, 69, 63
1, 240, Note_on_c, 1, 62, 63
1, 260, Note_on_c, 1, 69, 0
1, 260, Note_on_c, 1, 62, 0
1, 288, Note_on_c, 1, 69, 63
1, 288, Note_on_c, 1, 62, 63
1, 325, Note_on_c, 0, 78, 0
1, 335, Note_on_c, 1, 69, 0
1, 335, Note_on_c, 1, 62, 0
1, 336, Note_on_c, 0, 81, 78
1, 359, Note_on_c, 0, 81, 0
1, 360, Note_on_c, 0, 78, 78
1, 383, Note_on_c, 0, 78, 0
1, 384, Note_on_c, 0, 83, 78
1, 432, Note_on_c, 1, 67, 63
1, 432, Note_on_c, 1, 62, 63
1, 452, Note_on_c, 1, 67, 0
1, 452, Note_on_c, 1, 62, 0
1, 480, Note_on_c, 1, 67, 63
1, 480, Note_on_c, 1, 62, 63
1, 517, Note_on_c, 0, 83, 0
1, 527, Note_on_c, 1, 67, 0
1, 527, Note_on_c, 1, 62, 0
1, 528, Note_on_c, 0, 79, 78
1, 551, Note_on_c, 0, 79, 0
1, 552, Note_on_c, 0, 76, 78
1, 575, Note_on_c, 0, 76, 0
1, 576, Note_on_c, 0, 74, 78
1, 624, Note_on_c, 0, 74, 0
1, 624, Note_on_c, 1, 67, 63
1, 624, Note_on_c, 1, 64, 63
1, 624, Note_on_c, 1, 62, 63
1, 628, Note_on_c, 0, 73, 78
1, 640, Note_on_c, 0, 73, 0
1, 641, Note_on_c, 0, 74, 78
1, 653, Note_on_c, 0, 74, 0
1, 654, Note_on_c, 0, 73, 78
1, 666, Note_on_c, 0, 73, 0
1, 667, Note_on_c, 0, 74, 78
1, 671, Note_on_c, 1, 67, 0
1, 671, Note_on_c, 1, 64, 0
1, 671, Note_on_c, 1, 62, 0
1, 672, Note_on_c, 1, 67, 68
1, 672, Note_on_c, 1, 64, 68
1, 672, Note_on_c, 1, 62, 68
1, 679, Note_on_c, 0, 74, 0
1, 680, Note_on_c, 0, 73, 78
1, 692, Note_on_c, 0, 73, 0
1, 693, Note_on_c, 0, 74, 78
1, 705, Note_on_c, 0, 74, 0
1, 706, Note_on_c, 0, 73, 78
1, 718, Note_on_c, 0, 73, 0
1, 719, Note_on_c, 0, 74, 78
1, 719, Note_on_c, 1, 67, 0
1, 719, Note_on_c, 1, 64, 0
1, 719, Note_on_c, 1, 62, 0
1, 720, Note_on_c, 1, 67, 73
1, 720, Note_on_c, 1, 64, 73
1, 720, Note_on_c, 1, 62, 73
1, 731, Note_on_c, 0, 74, 0
1, 732, Note_on_c, 0, 73, 78
1, 744, Note_on_c, 0, 73, 0
1, 745, Note_on_c, 0, 71, 78
1, 757, Note_on_c, 0, 71, 0
1, 758, Note_on_c, 0, 73, 78
1, 767, Note_on_c, 1, 67, 0
1, 767, Note_on_c, 1, 64, 0
1, 767, Note_on_c, 1, 62, 0
1, 768, Note_on_c, 1, 66, 78
1, 768, Note_on_c, 1, 62, 78
1, 770, Note_on_c, 0, 73, 0
1, 771, Note_on_c, 0, 74, 78
1, 816, Note_on_c, 0, 74, 0
1, 819, Note_on_c, 0, 69, 78
1, 842, Note_on_c, 0, 69, 0
1, 843, Note_on_c, 0, 78, 78
1, 857, Note_on_c, 1, 66, 0
1, 857, Note_on_c, 1, 62, 0
1, 866, Note_on_c, 0, 78, 0
1, 867, Note_on_c, 0, 76, 78
1, 890, Note_on_c, 0, 76, 0
1, 891, Note_on_c, 0, 74, 78
1, 914, Note_on_c, 0, 74, 0
1, 915, Note_on_c, 0, 73, 78
1, 938, Note_on_c, 0, 73, 0
1, 939, Note_on_c, 0, 71, 78
1, 960, Note_on_c, 1, 64, 78
1, 960, Note_on_c, 1, 61, 78
1, 962, Note_on_c, 0, 71, 0
1, 963, Note_on_c, 0, 69, 78
1, 1008, Note_on_c, 0, 69, 0
1, 1011, Note_on_c, 0, 79, 76
1, 1034, Note_on_c, 0, 79, 0
1, 1035, Note_on_c, 0, 83, 75
1, 1049, Note_on_c, 1, 64, 0
1, 1049, Note_on_c, 1, 61, 0
1, 1058, Note_on_c, 0, 83, 0
1, 1059, Note_on_c, 0, 81, 74
1, 1082, Note_on_c, 0, 81, 0
1, 1083, Note_on_c, 0, 79, 73
1, 1106, Note_on_c, 0, 79, 0
1, 1107, Note_on_c, 0, 78, 72
1, 1130, Note_on_c, 0, 78, 0
1, 1131, Note_on_c, 0, 76, 71
1, 1152, Note_on_c, 1, 66, 70
1, 1152, Note_on_c, 1, 62, 70
1, 1154, Note_on_c, 0, 76, 0
1, 1155, Note_on_c, 0, 78, 70
1, 1200, Note_on_c, 0, 78, 0
1, 1203, Note_on_c, 0, 69, 70
1, 1226, Note_on_c, 0, 69, 0
1, 1227, Note_on_c, 0, 78, 70
1, 1241, Note_on_c, 1, 66, 0
1, 1241, Note_on_c, 1, 62, 0
1, 1250, Note_on_c, 0, 78, 0
1, 1251, Note_on_c, 0, 76, 70
1, 1274, Note_on_c, 0, 76, 0
1, 1275, Note_on_c, 0, 74, 70
1, 1298, Note_on_c, 0, 74, 0
1, 1299, Note_on_c, 0, 73, 70
1, 1322, Note_on_c, 0, 73, 0
1, 1323, Note_on_c, 0, 71, 70
1, 1344, Note_on_c, 1, 64, 70
1, 1344, Note_on_c, 1, 61, 70
1, 1346, Note_on_c, 0, 71, 0
1, 1347, Note_on_c, 0, 69, 70
1, 1392, Note_on_c, 0, 69, 0
1, 1395, Note_on_c, 0, 79, 70
1, 1418, Note_on_c, 0, 79, 0
1, 1419, Note_on_c, 0, 83, 71
1, 1433, Note_on_c, 1, 64, 0
1, 1433, Note_on_c, 1, 61, 0
1, 1442, Note_on_c, 0, 83, 0
1, 1443, Note_on_c, 0, 81, 72
1, 1466, Note_on_c, 0, 81, 0
1, 1467, Note_on_c, 0, 79, 74
1, 1490, Note_on_c, 0, 79, 0
1, 1491, Note_on_c, 0, 78, 75
1, 1514, Note_on_c, 0, 78, 0
1, 1515, Note_on_c, 0, 76, 76
1, 1536, Note_on_c, 1, 62, 78
1, 1538, Note_on_c, 0, 76, 0
1, 1539, Note_on_c, 0, 78, 78
1, 1581, Note_on_c, 1, 62, 0
1, 1584, Note_on_c, 0, 78, 0
1, 1584, Note_on_c, 1, 57, 78
1, 1629, Note_on_c, 1, 57, 0
1, 1632, Note_on_c, 1, 64, 78
1, 1635, Note_on_c, 0, 81, 78
1, 1647, Note_on_c, 0, 81, 0
1, 1647, Note_on_c, 0, 79, 78
1, 1659, Note_on_c, 0, 79, 0
1, 1659, Note_on_c, 0, 78, 78
1, 1671, Note_on_c, 0, 78, 0
1, 1671, Note_on_c, 0, 79, 78
1, 1677, Note_on_c, 1, 64, 0
1, 1680, Note_on_c, 1, 57, 78
1, 1683, Note_on_c, 0, 79, 0
1, 1725, Note_on_c, 1, 57, 0
1, 1728, Note_on_c, 1, 66, 78
1, 1731, Note_on_c, 0, 83, 78
1, 1743, Note_on_c, 0, 83, 0
1, 1743, Note_on_c, 0, 81, 78
1, 1755, Note_on_c, 0, 81, 0
1, 1755, Note_on_c, 0, 79, 78
1, 1767, Note_on_c, 0, 79, 0
1, 1767, Note_on_c, 0, 81, 78
1, 1773, Note_on_c, 1, 66, 0
1, 1776, Note_on_c, 1, 57, 78
1, 1779, Note_on_c, 0, 81, 0
1, 1821, Note_on_c, 1, 57, 0
1, 1824, Note_on_c, 1, 64, 78
1, 1827, Note_on_c, 0, 81, 78
1, 1850, Note_on_c, 0, 81, 0
1, 1851, Note_on_c, 0, 79, 78
1, 1869, Note_on_c, 1, 64, 0
1, 1872, Note_on_c, 1, 57, 78
1, 1874, Note_on_c, 0, 79, 0
1, 1875, Note_on_c, 0, 78, 78
1, 1898, Note_on_c, 0, 78, 0
1, 1899, Note_on_c, 0, 76, 78
1, 1917, Note_on_c, 1, 57, 0
1, 1920, Note_on_c, 1, 62, 78
1, 1922, Note_on_c, 0, 76, 0
1, 1923, Note_on_c, 0, 78, 78
1, 1965, Note_on_c, 1, 62, 0
1, 1968, Note_on_c, 1, 57, 78
1, 2012, Note_on_c, 0, 78, 0
1, 2013, Note_on_c, 1, 57, 0
1, 2016, Note_on_c, 1, 64, 78
1, 2019, Note_on_c, 0, 79, 78
1, 2031, Note_on_c, 0, 79, 0
1, 2031, Note_on_c, 0, 81, 78
1, 2043, Note_on_c, 0, 81, 0
1, 2043, Note_on_c, 0, 79, 78
1, 2055, Note_on_c, 0, 79, 0
1, 2055, Note_on_c, 0, 81, 78
1, 2061, Note_on_c, 1, 64, 0
1, 2064, Note_on_c, 1, 57, 78
1, 2067, Note_on_c, 0, 81, 0
1, 2067, Note_on_c, 0, 79, 78
1, 2079, Note_on_c, 0, 79, 0
1, 2079, Note_on_c, 0, 81, 78
1, 2086, Note_on_c, 0, 81, 0
1, 2091, Note_on_c, 0, 78, 78
1, 2103, Note_on_c, 0, 78, 0
1, 2103, Note_on_c, 0, 79, 78
1, 2109, Note_on_c, 1, 57, 0
1, 2112, Note_on_c, 1, 66, 78
1, 2115, Note_on_c, 0, 79, 0
1, 2115, Note_on_c, 0, 81, 78
1, 2157, Note_on_c, 1, 66, 0
1, 2160, Note_on_c, 1, 57, 78
1, 2204, Note_on_c, 0, 81, 0
1, 2205, Note_on_c, 1, 57, 0
1, 2208, Note_on_c, 1, 64, 78
1, 2211, Note_on_c, 0, 81, 78
1, 2234, Note_on_c, 0, 81, 0
1, 2235, Note_on_c, 0, 79, 78
1, 2253, Note_on_c, 1, 64, 0
1, 2256, Note_on_c, 1, 57, 78
1, 2258, Note_on_c, 0, 79, 0
1, 2259, Note_on_c, 0, 78, 78
1, 2282, Note_on_c, 0, 78, 0
1, 2283, Note_on_c, 0, 76, 78
1, 2301, Note_on_c, 1, 57, 0
1, 2304, Note_on_c, 1, 62, 78
1, 2306, Note_on_c, 0, 76, 0
1, 2307, Note_on_c, 0, 78, 78
1, 2330, Note_on_c, 0, 78, 0
1, 2331, Note_on_c, 0, 74, 78
1, 2349, Note_on_c, 1, 62, 0
1, 2352, Note_on_c, 1, 64, 78
1, 2354, Note_on_c, 0, 74, 0
1, 2355, Note_on_c, 0, 79, 78
1, 2378, Note_on_c, 0, 79, 0
1, 2379, Note_on_c, 0, 74, 78
1, 2397, Note_on_c, 1, 64, 0
1, 2400, Note_on_c, 1, 66, 78
1, 2402, Note_on_c, 0, 74, 0
1, 2403, Note_on_c, 0, 81, 78
1, 2426, Note_on_c, 0, 81, 0
1, 2427, Note_on_c, 0, 74, 78
1, 2445, Note_on_c, 1, 66, 0
1, 2448, Note_on_c, 1, 67, 78
1, 2450, Note_on_c, 0, 74, 0
1, 2451, Note_on_c, 0, 83, 78
1, 2474, Note_on_c, 0, 83, 0
1, 2475, Note_on_c, 0, 74, 78
1, 2493, Note_on_c, 1, 67, 0
1, 2496, Note_on_c, 1, 69, 78
1, 2498, Note_on_c, 0, 74, 0
1, 2499, Note_on_c, 0, 73, 78
1, 2509, Note_on_c, 0, 73, 0
1, 2509, Note_on_c, 0, 74, 78
1, 2519, Note_on_c, 0, 74, 0
1, 2519, Note_on_c, 0, 73, 78
1, 2529, Note_on_c, 0, 73, 0
1, 2529, Note_on_c, 0, 71, 78
1, 2538, Note_on_c, 0, 71, 0
1, 2538, Note_on_c, 0, 73, 78
1, 2541, Note_on_c, 1, 69, 0
1, 2544, Note_on_c, 1, 62, 78
1, 2547, Note_on_c, 0, 73, 0
1, 2547, Note_on_c, 0, 74, 78
1, 2589, Note_on_c, 1, 62, 0
1, 2592, Note_on_c, 0, 74, 0
1, 2688, Note_on_c, 1, 50, 85
1, 2711, Note_on_c, 1, 50, 0
1, 2712, Note_on_c, 1, 54, 85
1, 2735, Note_on_c, 1, 54, 0
1, 2739, Note_on_c, 0, 57, 85
1, 2762, Note_on_c, 0, 57, 0
1, 2763, Note_on_c, 0, 62, 85
1, 2786, Note_on_c, 0, 62, 0
1, 2787, Note_on_c, 0, 66, 85
1, 2810, Note_on_c, 0, 66, 0
1, 2811, Note_on_c, 0, 62, 85
1, 2834, Note_on_c, 0, 62, 0
1, 2835, Note_on_c, 0, 57, 85
1, 2858, Note_on_c, 0, 57, 0
1, 2859, Note_on_c, 0, 62, 85
1, 2880, Note_on_c, 1, 50, 85
1, 2880, Note_on_c, 1, 38, 85
1, 2882, Note_on_c, 0, 62, 0
1, 2925, Note_on_c, 1, 50, 0
1, 2925, Note_on_c, 1, 38, 0
1, 2931, Note_on_c, 0, 66, 85
1, 2954, Note_on_c, 0, 66, 0
1, 2955, Note_on_c, 0, 69, 85
1, 2978, Note_on_c, 0, 69, 0
1, 2979, Note_on_c, 0, 67, 85
1, 3002, Note_on_c, 0, 67, 0
1, 3003, Note_on_c, 0, 66, 85
1, 3026, Note_on_c, 0, 66, 0
1, 3027, Note_on_c, 0, 64, 85
1, 3050, Note_on_c, 0, 64, 0
1, 3051, Note_on_c, 0, 62, 85
1, 3072, Note_on_c, 1, 61, 85
1, 3074, Note_on_c, 0, 62, 0
1, 3095, Note_on_c, 1, 61, 0
1, 3096, Note_on_c, 1, 64, 85
1, 3119, Note_on_c, 1, 64, 0
1, 3123, Note_on_c, 0, 69, 85
1, 3146, Note_on_c, 0, 69, 0
1, 3147, Note_on_c, 0, 73, 85
1, 3170, Note_on_c, 0, 73, 0
1, 3171, Note_on_c, 0, 76, 85
1, 3194, Note_on_c, 0, 76, 0
1, 3195, Note_on_c, 0, 73, 85
1, 3218, Note_on_c, 0, 73, 0
1, 3219, Note_on_c, 0, 69, 85
1, 3242, Note_on_c, 0, 69, 0
1, 3243, Note_on_c, 0, 73, 85
1, 3264, Note_on_c, 1, 45, 85
1, 3264, Note_on_c, 1, 33, 85
1, 3266, Note_on_c, 0, 73, 0
1, 3309, Note_on_c, 1, 45, 0
1, 3309, Note_on_c, 1, 33, 0
1, 3315, Note_on_c, 0, 73, 85
1, 3338, Note_on_c, 0, 73, 0
1, 3339, Note_on_c, 0, 76, 85
1, 3362, Note_on_c, 0, 76, 0
1, 3363, Note_on_c, 0, 74, 85
1, 3386, Note_on_c, 0, 74, 0
1, 3387, Note_on_c, 0, 73, 85
1, 3410, Note_on_c, 0, 73, 0
1, 3411, Note_on_c, 0, 71, 85
1, 3434, Note_on_c, 0, 71, 0
1, 3435, Note_on_c, 0, 69, 85
1, 3458, Note_on_c, 0, 69, 0
1, 3459, Note_on_c, 0, 68, 85
1, 3482, Note_on_c, 0, 68, 0
1, 3483, Note_on_c, 0, 71, 85
1, 3506, Note_on_c, 0, 71, 0
1, 3507, Note_on_c, 0, 74, 85
1, 3530, Note_on_c, 0, 74, 0
1, 3531, Note_on_c, 0, 80, 85
1, 3554, Note_on_c, 0, 80, 0
1, 3555, Note_on_c, 0, 83, 85
1, 3578, Note_on_c, 0, 83, 0
1, 3579, Note_on_c, 0, 80, 85
1, 3602, Note_on_c, 0, 80, 0
1, 3603, Note_on_c, 0, 74, 85
1, 3626, Note_on_c, 0, 74, 0
1, 3627, Note_on_c, 0, 80, 85
1, 3648, Note_on_c, 1, 52, 85
1, 3648, Note_on_c, 1, 40, 85
1, 3650, Note_on_c, 0, 80, 0
1, 3693, Note_on_c, 1, 52, 0
1, 3693, Note_on_c, 1, 40, 0
1, 3699, Note_on_c, 0, 83, 85
1, 3722, Note_on_c, 0, 83, 0
1, 3723, Note_on_c, 0, 81, 85
1, 3746, Note_on_c, 0, 81, 0
1, 3747, Note_on_c, 0, 80, 85
1, 3770, Note_on_c, 0, 80, 0
1, 3771, Note_on_c, 0, 78, 85
1, 3794, Note_on_c, 0, 78, 0
1, 3795, Note_on_c, 0, 76, 85
1, 3818, Note_on_c, 0, 76, 0
1, 3819, Note_on_c, 0, 74, 85
1, 3840, Note_on_c, 1, 57, 85
1, 3842, Note_on_c, 0, 74, 0
1, 3843, Note_on_c, 0, 73, 85
1, 3866, Note_on_c, 0, 73, 0
1, 3867, Note_on_c, 0, 69, 85
1, 3885, Note_on_c, 1, 57, 0
1, 3888, Note_on_c, 1, 59, 85
1, 3890, Note_on_c, 0, 69, 0
1, 3891, Note_on_c, 0, 74, 85
1, 3914, Note_on_c, 0, 74, 0
1, 3915, Note_on_c, 0, 69, 85
1, 3933, Note_on_c, 1, 59, 0
1, 3936, Note_on_c, 1, 61, 85
1, 3938, Note_on_c, 0, 69, 0
1, 3939, Note_on_c, 0, 76, 85
1, 3962, Note_on_c, 0, 76, 0
1, 3963, Note_on_c, 0, 69, 85
1, 3981, Note_on_c, 1, 61, 0
1, 3984, Note_on_c, 1, 62, 85
1, 3986, Note_on_c, 0, 69, 0
1, 3987, Note_on_c, 0, 78, 85
1, 4010, Note_on_c, 0, 78, 0
1, 4011, Note_on_c, 0, 69, 85
1, 4029, Note_on_c, 1, 62, 0
1, 4032, Note_on_c, 1, 61, 85
1, 4034, Note_on_c, 0, 69, 0
1, 4035, Note_on_c, 0, 76, 85
1, 4058, Note_on_c, 0, 76, 0
1, 4059, Note_on_c, 0, 69, 85
1, 4077, Note_on_c, 1, 61, 0
1, 4080, Note_on_c, 1, 62, 85
1, 4082, Note_on_c, 0, 69, 0
1, 4083, Note_on_c, 0, 78, 85
1, 4106, Note_on_c, 0, 78, 0
1, 4107, Note_on_c, 0, 69, 85
1, 4125, Note_on_c, 1, 62, 0
1, 4128, Note_on_c, 1, 61, 85
1, 4130, Note_on_c, 0, 69, 0
1, 4131, Note_on_c, 0, 76, 85
1, 4154, Note_on_c, 0, 76, 0
1, 4155, Note_on_c, 0, 69, 83
1, 4173, Note_on_c, 1, 61, 0
1, 4176, Note_on_c, 1, 59, 82
1, 4178, Note_on_c, 0, 69, 0
1, 4179, Note_on_c, 0, 74, 82
1, 4202, Note_on_c, 0, 74, 0
1, 4203, Note_on_c, 0, 69, 80
1, 4221, Note_on_c, 1, 59, 0
1, 4224, Note_on_c, 1, 57, 80
1, 4226, Note_on_c, 0, 69, 0
1, 4227, Note_on_c, 0, 73, 79
1, 4250, Note_on_c, 0, 73, 0
1, 4251, Note_on_c, 0, 69, 78
1, 4269, Note_on_c, 1, 57, 0
1, 4272, Note_on_c, 1, 59, 78
1, 4274, Note_on_c, 0, 69, 0
1, 4275, Note_on_c, 0, 74, 78
1, 4298, Note_on_c, 0, 74, 0
1, 4299, Note_on_c, 0, 69, 78
1, 4317, Note_on_c, 1, 59, 0
1, 4320, Note_on_c, 1, 61, 78
1, 4322, Note_on_c, 0, 69, 0
1, 4323, Note_on_c, 0, 76, 78
1, 4346, Note_on_c, 0, 76, 0
1, 4347, Note_on_c, 0, 69, 78
1, 4365, Note_on_c, 1, 61, 0
1, 4368, Note_on_c, 1, 62, 78
1, 4370, Note_on_c, 0, 69, 0
1, 4371, Note_on_c, 0, 78, 78
1, 4394, Note_on_c, 0, 78, 0
1, 4395, Note_on_c, 0, 69, 78
1, 4413, Note_on_c, 1, 62, 0
1, 4416, Note_on_c, 1, 61, 78
1, 4418, Note_on_c, 0, 69, 0
1, 4419, Note_on_c, 0, 76, 78
1, 4442, Note_on_c, 0, 76, 0
1, 4443, Note_on_c, 0, 69, 78
1, 4461, Note_on_c, 1, 61, 0
1, 4464, Note_on_c, 1, 62, 78
1, 4466, Note_on_c, 0, 69, 0
1, 4467, Note_on_c, 0, 78, 78
1, 4490, Note_on_c, 0, 78, 0
1, 4491, Note_on_c, 0, 69, 78
1, 4509, Note_on_c, 1, 62, 0
1, 4512, Note_on_c, 1, 61, 78
1, 4514, Note_on_c, 0, 69, 0
1, 4515, Note_on_c, 0, 76, 78
1, 4557, Note_on_c, 1, 61, 0
1, 4560, Note_on_c, 0, 76, 0
1, 4563, Note_on_c, 0, 81, 94
1, 4583, Note_on_c, 0, 81, 0
1, 4611, Note_on_c, 0, 71, 78
1, 4656, Note_on_c, 1, 66, 78
1, 4656, Note_on_c, 1, 62, 78
1, 4676, Note_on_c, 1, 66, 0
1, 4676, Note_on_c, 1, 62, 0
1, 4704, Note_on_c, 1, 66, 78
1, 4704, Note_on_c, 1, 62, 78
1, 4744, Note_on_c, 0, 71, 0
1, 4751, Note_on_c, 1, 66, 0
1, 4751, Note_on_c, 1, 62, 0
1, 4755, Note_on_c, 0, 74, 78
1, 4767, Note_on_c, 0, 74, 0
1, 4767, Note_on_c, 0, 76, 78
1, 4779, Note_on_c, 0, 76, 0
1, 4779, Note_on_c, 0, 78, 78
1, 4802, Note_on_c, 0, 78, 0
1, 4803, Note_on_c, 0, 69, 78
1, 4848, Note_on_c, 1, 61, 78
1, 4892, Note_on_c, 0, 69, 0
1, 4893, Note_on_c, 1, 61, 0
1, 4896, Note_on_c, 1, 62, 78
1, 4899, Note_on_c, 0, 73, 78
1, 4922, Note_on_c, 0, 73, 0
1, 4923, Note_on_c, 0, 71, 78
1, 4941, Note_on_c, 1, 62, 0
1, 4944, Note_on_c, 1, 64, 78
1, 4946, Note_on_c, 0, 71, 0
1, 4947, Note_on_c, 0, 69, 78
1, 4970, Note_on_c, 0, 69, 0
1, 4971, Note_on_c, 0, 68, 78
1, 4989, Note_on_c, 1, 64, 0
1, 4992, Note_on_c, 1, 57, 78
1, 4994, Note_on_c, 0, 68, 0
1, 4995, Note_on_c, 0, 69, 78
1, 5040, Note_on_c, 0, 69, 0
1, 5043, Note_on_c, 0, 81, 78
1, 5058, Note_on_c, 0, 81, 0
1, 5059, Note_on_c, 0, 80, 78
1, 5074, Note_on_c, 0, 80, 0
1, 5075, Note_on_c, 0, 78, 78
1, 5081, Note_on_c, 1, 57, 0
1, 5090, Note_on_c, 0, 78, 0
1, 5091, Note_on_c, 0, 76, 78
1, 5136, Note_on_c, 0, 76, 0
1, 5136, Note_on_c, 1, 74, 78
1, 5136, Note_on_c, 1, 68, 78
1, 5139, Note_on_c, 0, 76, 78
1, 5181, Note_on_c, 1, 74, 0
1, 5181, Note_on_c, 1, 68, 0
1, 5184, Note_on_c, 0, 76, 0
1, 5184, Note_on_c, 1, 73, 78
1, 5184, Note_on_c, 1, 69, 78
1, 5187, Note_on_c, 0, 76, 78
1, 5202, Note_on_c, 0, 76, 0
1, 5203, Note_on_c, 0, 78, 78
1, 5218, Note_on_c, 0, 78, 0
1, 5219, Note_on_c, 0, 80, 78
1, 5234, Note_on_c, 0, 80, 0
1, 5235, Note_on_c, 0, 81, 78
1, 5250, Note_on_c, 0, 81, 0
1, 5251, Note_on_c, 0, 80, 78
1, 5266, Note_on_c, 0, 80, 0
1, 5267, Note_on_c, 0, 78, 78
1, 5273, Note_on_c, 1, 73, 0
1, 5273, Note_on_c, 1, 69, 0
1, 5282, Note_on_c, 0, 78, 0
1, 5283, Note_on_c, 0, 76, 78
1, 5328, Note_on_c, 0, 76, 0
1, 5328, Note_on_c, 1, 74, 78
1, 5328, Note_on_c, 1, 68, 78
1, 5331, Note_on_c, 0, 76, 78
1, 5373, Note_on_c, 1, 74, 0
1, 5373, Note_on_c, 1, 68, 0
1, 5376, Note_on_c, 0, 76, 0
1, 5376, Note_on_c, 1, 73, 78
1, 5376, Note_on_c, 1, 69, 78
1, 5379, Note_on_c, 0, 76, 78
1, 5394, Note_on_c, 0, 76, 0
1, 5395, Note_on_c, 0, 78, 78
1, 5410, Note_on_c, 0, 78, 0
1, 5411, Note_on_c, 0, 80, 78
1, 5426, Note_on_c, 0, 80, 0
1, 5427, Note_on_c, 0, 81, 78
1, 5442, Note_on_c, 0, 81, 0
1, 5443, Note_on_c, 0, 80, 78
1, 5458, Note_on_c, 0, 80, 0
1, 5459, Note_on_c, 0, 78, 78
1, 5465, Note_on_c, 1, 73, 0
1, 5465, Note_on_c, 1, 69, 0
1, 5474, Note_on_c, 0, 78, 0
1, 5475, Note_on_c, 0, 76, 78
1, 5520, Note_on_c, 0, 76, 0
1, 5520, Note_on_c, 1, 61, 78
1, 5523, Note_on_c, 0, 77, 78
1, 5565, Note_on_c, 1, 61, 0
1, 5568, Note_on_c, 0, 77, 0
1, 5568, Note_on_c, 1, 62, 78
1, 5571, Note_on_c, 0, 78, 78
1, 5616, Note_on_c, 0, 78, 0
1, 5619, Note_on_c, 0, 70, 78
1, 5642, Note_on_c, 0, 70, 0
1, 5643, Note_on_c, 0, 71, 78
1, 5657, Note_on_c, 1, 62, 0
1, 5666, Note_on_c, 0, 71, 0
1, 5667, Note_on_c, 0, 73, 78
1, 5690, Note_on_c, 0, 73, 0
1, 5691, Note_on_c, 0, 74, 78
1, 5714, Note_on_c, 0, 74, 0
1, 5715, Note_on_c, 0, 76, 78
1, 5738, Note_on_c, 0, 76, 0
1, 5739, Note_on_c, 0, 78, 78
1, 5762, Note_on_c, 0, 78, 0
1, 5763, Note_on_c, 0, 76, 94
1, 5808, Note_on_c, 1, 61, 78
1, 5811, Note_on_c, 0, 76, 0
1, 5811, Note_on_c, 0, 74, 78
1, 5823, Note_on_c, 0, 74, 0
1, 5823, Note_on_c, 0, 73, 78
1, 5835, Note_on_c, 0, 73, 0
1, 5835, Note_on_c, 0, 71, 78
1, 5847, Note_on_c, 0, 71, 0
1, 5847, Note_on_c, 0, 69, 78
1, 5853, Note_on_c, 1, 61, 0
1, 5856, Note_on_c, 1, 62, 78
1, 5859, Note_on_c, 0, 69, 0
1, 5859, Note_on_c, 0, 71, 78
1, 5872, Note_on_c, 0, 71, 0
1, 5873, Note_on_c, 0, 73, 78
1, 5886, Note_on_c, 0, 73, 0
1, 5887, Note_on_c, 0, 71, 78
1, 5900, Note_on_c, 0, 71, 0
1, 5901, Note_on_c, 0, 73, 78
1, 5901, Note_on_c, 1, 62, 0
1, 5904, Note_on_c, 1, 64, 78
1, 5914, Note_on_c, 0, 73, 0
1, 5915, Note_on_c, 0, 71, 78
1, 5928, Note_on_c, 0, 71, 0
1, 5929, Note_on_c, 0, 69, 78
1, 5941, Note_on_c, 0, 69, 0
1, 5942, Note_on_c, 0, 71, 78
1, 5949, Note_on_c, 1, 64, 0
1, 5952, Note_on_c, 1, 57, 78
1, 5954, Note_on_c, 0, 71, 0
1, 5955, Note_on_c, 0, 69, 78
1, 6000, Note_on_c, 0, 69, 0
1, 6003, Note_on_c, 0, 81, 78
1, 6018, Note_on_c, 0, 81, 0
1, 6019, Note_on_c, 0, 80, 78
1, 6034, Note_on_c, 0, 80, 0
1, 6035, Note_on_c, 0, 78, 78
1, 6041, Note_on_c, 1, 57, 0
1, 6050, Note_on_c, 0, 78, 0
1, 6051, Note_on_c, 0, 76, 78
1, 6096, Note_on_c, 0, 76, 0
1, 6096, Note_on_c, 1, 74, 78
1, 6096, Note_on_c, 1, 68, 78
1, 6099, Note_on_c, 0, 76, 78
1, 6141, Note_on_c, 1, 74, 0
1, 6141, Note_on_c, 1, 68, 0
1, 6144, Note_on_c, 0, 76, 0
1, 6144, Note_on_c, 1, 73, 78
1, 6144, Note_on_c, 1, 69, 78
1, 6147, Note_on_c, 0, 76, 78
1, 6162, Note_on_c, 0, 76, 0
1, 6163, Note_on_c, 0, 78, 78
1, 6178, Note_on_c, 0, 78, 0
1, 6179, Note_on_c, 0, 80, 78
1, 6194, Note_on_c, 0, 80, 0
1, 6195, Note_on_c, 0, 81, 78
1, 6210, Note_on_c, 0, 81, 0
1, 6211, Note_on_c, 0, 80, 78
1, 6226, Note_on_c, 0, 80, 0
1, 6227, Note_on_c, 0, 78, 78
1, 6233, Note_on_c, 1, 73, 0
1, 6233, Note_on_c, 1, 69, 0
1, 6242, Note_on_c, 0, 78, 0
1, 6243, Note_on_c, 0, 76, 78
1, 6288, Note_on_c, 0, 76, 0
1, 6288, Note_on_c, 1, 74, 78
1, 6288, Note_on_c, 1, 68, 78
1, 6291, Note_on_c, 0, 76, 78
1, 6333, Note_on_c, 1, 74, 0
1, 6333, Note_on_c, 1, 68, 0
1, 6336, Note_on_c, 0, 76, 0
1, 6336, Note_on_c, 1, 73, 78
1, 6336, Note_on_c, 1, 69, 78
1, 6339, Note_on_c, 0, 76, 78
1, 6354, Note_on_c, 0, 76, 0
1, 6355, Note_on_c, 0, 78, 78
1, 6370, Note_on_c, 0, 78, 0
1, 6371, Note_on_c, 0, 80, 78
1, 6386, Note_on_c, 0, 80, 0
1, 6387, Note_on_c, 0, 81, 78
1, 6402, Note_on_c, 0, 81, 0
1, 6403, Note_on_c, 0, 80, 78
1, 6418, Note_on_c, 0, 80, 0
1, 6419, Note_on_c, 0, 78, 78
1, 6425, Note_on_c, 1, 73, 0
1, 6425, Note_on_c, 1, 69, 0
1, 6434, Note_on_c, 0, 78, 0
1, 6435, Note_on_c, 0, 76, 78
1, 6480, Note_on_c, 0, 76, 0
1, 6480, Note_on_c, 1, 61, 78
1, 6483, Note_on_c, 0, 77, 78
1, 6525, Note_on_c, 1, 61, 0
1, 6528, Note_on_c, 0, 77, 0
1, 6528, Note_on_c, 1, 62, 78
1, 6531, Note_on_c, 0, 78, 78
1, 6576, Note_on_c, 0, 78, 0
1, 6579, Note_on_c, 0, 70, 78
1, 6602, Note_on_c, 0, 70, 0
1, 6603, Note_on_c, 0, 71, 78
1, 6617, Note_on_c, 1, 62, 0
1, 6626, Note_on_c, 0, 71, 0
1, 6627, Note_on_c, 0, 73, 78
1, 6650, Note_on_c, 0, 73, 0
1, 6651, Note_on_c, 0, 74, 78
1, 6674, Note_on_c, 0, 74, 0
1, 6675, Note_on_c, 0, 76, 78
1, 6698, Note_on_c, 0, 76, 0
1, 6699, Note_on_c, 0, 78, 78
1, 6722, Note_on_c, 0, 78, 0
1, 6723, Note_on_c, 0, 76, 94
1, 6768, Note_on_c, 1, 61, 78
1, 6771, Note_on_c, 0, 76, 0
1, 6771, Note_on_c, 0, 74, 78
1, 6783, Note_on_c, 0, 74, 0
1, 6783, Note_on_c, 0, 73, 78
1, 6795, Note_on_c, 0, 73, 0
1, 6795, Note_on_c, 0, 71, 78
1, 6807, Note_on_c, 0, 71, 0
1, 6807, Note_on_c, 0, 69, 78
1, 6813, Note_on_c, 1, 61, 0
1, 6816, Note_on_c, 1, 62, 78
1, 6819, Note_on_c, 0, 69, 0
1, 6819, Note_on_c, 0, 71, 78
1, 6832, Note_on_c, 0, 71, 0
1, 6833, Note_on_c, 0, 73, 78
1, 6846, Note_on_c, 0, 73, 0
1, 6847, Note_on_c, 0, 71, 78
1, 6860, Note_on_c, 0, 71, 0
1, 6861, Note_on_c, 0, 73, 78
1, 6861, Note_on_c, 1, 62, 0
1, 6864, Note_on_c, 1, 64, 78
1, 6874, Note_on_c, 0, 73, 0
1, 6875, Note_on_c, 0, 71, 78
1, 6888, Note_on_c, 0, 71, 0
1, 6889, Note_on_c, 0, 69, 78
1, 6901, Note_on_c, 0, 69, 0
1, 6902, Note_on_c, 0, 71, 78
1, 6909, Note_on_c, 1, 64, 0
1, 6912, Note_on_c, 1, 57, 78
1, 6914, Note_on_c, 0, 71, 0
1, 6915, Note_on_c, 0, 69, 78
1, 6960, Note_on_c, 0, 69, 0
1, 6963, Note_on_c, 0, 64, 78
1, 6986, Note_on_c, 0, 64, 0
1, 6987, Note_on_c, 0, 69, 78
1, 7001, Note_on_c, 1, 57, 0
1, 7010, Note_on_c, 0, 69, 0
1, 7011, Note_on_c, 0, 61, 78
1, 7034, Note_on_c, 0, 61, 0
1, 7035, Note_on_c, 0, 64, 78
1, 7058, Note_on_c, 0, 64, 0
1, 7059, Note_on_c, 0, 57, 78
1, 7082, Note_on_c, 0, 57, 0
1, 7083, Note_on_c, 0, 61, 78
1, 7104, Note_on_c, 1, 45, 85
1, 7104, Note_on_c, 1, 33, 85
1, 7106, Note_on_c, 0, 61, 0
1, 7193, Note_on_c, 1, 45, 0
1, 7193, Note_on_c, 1, 33, 0
1, 7299, Note_on_c, 0, 83, 78
1, 7311, Note_on_c, 0, 83, 0
1, 7311, Note_on_c, 0, 81, 78
1, 7323, Note_on_c, 0, 81, 0
1, 7323, Note_on_c, 0, 80, 78
1, 7335, Note_on_c, 0, 80, 0
1, 7335, Note_on_c, 0, 81, 78
1, 7344, Note_on_c, 1, 66, 63
1, 7344, Note_on_c, 1, 62, 63
1, 7364, Note_on_c, 1, 66, 0
1, 7364, Note_on_c, 1, 62, 0
1, 7392, Note_on_c, 1, 66, 63
1, 7392, Note_on_c, 1, 62, 63
1, 7432, Note_on_c, 0, 81, 0
1, 7439, Note_on_c, 1, 66, 0
1, 7439, Note_on_c, 1, 62, 0
1, 7443, Note_on_c, 0, 86, 78
1, 7466, Note_on_c, 0, 86, 0
1, 7467, Note_on_c, 0, 81, 78
1, 7490, Note_on_c, 0, 81, 0
1, 7491, Note_on_c, 0, 78, 78
1, 7536, Note_on_c, 1, 69, 63
1, 7536, Note_on_c, 1, 62, 63
1, 7556, Note_on_c, 1, 69, 0
1, 7556, Note_on_c, 1, 62, 0
1, 7584, Note_on_c, 1, 69, 63
1, 7584, Note_on_c, 1, 62, 63
1, 7624, Note_on_c, 0, 78, 0
1, 7631, Note_on_c, 1, 69, 0
1, 7631, Note_on_c, 1, 62, 0
1, 7635, Note_on_c, 0, 81, 78
1, 7658, Note_on_c, 0, 81, 0
1, 7659, Note_on_c, 0, 78, 78
1, 7682, Note_on_c, 0, 78, 0
1, 7683, Note_on_c, 0, 83, 78
1, 7728, Note_on_c, 1, 67, 63
1, 7728, Note_on_c, 1, 62, 63
1, 7748, Note_on_c, 1, 67, 0
1, 7748, Note_on_c, 1, 62, 0
1, 7776, Note_on_c, 1, 67, 63
1, 7776, Note_on_c, 1, 62, 63
1, 7816, Note_on_c, 0, 83, 0
1, 7823, Note_on_c, 1, 67, 0
1, 7823, Note_on_c, 1, 62, 0
1, 7827, Note_on_c, 0, 79, 78
1, 7850, Note_on_c, 0, 79, 0
1, 7851, Note_on_c, 0, 76, 78
1, 7874, Note_on_c, 0, 76, 0
1, 7875, Note_on_c, 0, 74, 78
1, 7920, Note_on_c, 1, 67, 63
1, 7920, Note_on_c, 1, 64, 63
1, 7920, Note_on_c, 1, 62, 63
1, 7923, Note_on_c, 0, 74, 0
1, 7927, Note_on_c, 0, 73, 78
1, 7939, Note_on_c, 0, 73, 0
1, 7940, Note_on_c, 0, 74, 78
1, 7952, Note_on_c, 0, 74, 0
1, 7953, Note_on_c, 0, 73, 78
1, 7965, Note_on_c, 0, 73, 0
1, 7966, Note_on_c, 0, 74, 78
1, 7967, Note_on_c, 1, 67, 0
1, 7967, Note_on_c, 1, 64, 0
1, 7967, Note_on_c, 1, 62, 0
1, 7968, Note_on_c, 1, 67, 68
1, 7968, Note_on_c, 1, 64, 68
1, 7968, Note_on_c, 1, 62, 68
1, 7978, Note_on_c, 0, 74, 0
1, 7979, Note_on_c, 0, 73, 78
1, 7991, Note_on_c, 0, 73, 0
1, 7992, Note_on_c, 0, 74, 78
1, 8004, Note_on_c, 0, 74, 0
1, 8005, Note_on_c, 0, 73, 78
1, 8015, Note_on_c, 1, 67, 0
1, 8015, Note_on_c, 1, 64, 0
1, 8015, Note_on_c, 1, 62, 0
1, 8016, Note_on_c, 1, 67, 73
1, 8016, Note_on_c, 1, 64, 73
1, 8016, Note_on_c, 1, 62, 73
1, 8017, Note_on_c, 0, 73, 0
1, 8018, Note_on_c, 0, 74, 78
1, 8030, Note_on_c, 0, 74, 0
1, 8031, Note_on_c, 0, 73, 78
1, 8043, Note_on_c, 0, 73, 0
1, 8044, Note_on_c, 0, 71, 78
1, 8056, Note_on_c, 0, 71, 0
1, 8057, Note_on_c, 0, 73, 78
1, 8063, Note_on_c, 1, 67, 0
1, 8063, Note_on_c, 1, 64, 0
1, 8063, Note_on_c, 1, 62, 0
1, 8064, Note_on_c, 1, 66, 78
1, 8064, Note_on_c, 1, 62, 78
1, 8069, Note_on_c, 0, 73, 0
1, 8070, Note_on_c, 0, 74, 78
1, 8115, Note_on_c, 0, 74, 0
1, 8118, Note_on_c, 0, 69, 78
1, 8141, Note_on_c, 0, 69, 0
1, 8142, Note_on_c, 0, 78, 78
1, 8153, Note_on_c, 1, 66, 0
1, 8153, Note_on_c, 1, 62, 0
1, 8165, Note_on_c, 0, 78, 0
1, 8166, Note_on_c, 0, 76, 78
1, 8189, Note_on_c, 0, 76, 0
1, 8190, Note_on_c, 0, 74, 78
1, 8213, Note_on_c, 0, 74, 0
1, 8214, Note_on_c, 0, 73, 78
1, 8237, Note_on_c, 0, 73, 0
1, 8238, Note_on_c, 0, 71, 78
1, 8256, Note_on_c, 1, 64, 78
1, 8256, Note_on_c, 1, 61, 78
1, 8261, Note_on_c, 0, 71, 0
1, 8262, Note_on_c, 0, 69, 78
1, 8307, Note_on_c, 0, 69, 0
1, 8310, Note_on_c, 0, 79, 76
1, 8333, Note_on_c, 0, 79, 0
1, 8334, Note_on_c, 0, 83, 75
1, 8345, Note_on_c, 1, 64, 0
1, 8345, Note_on_c, 1, 61, 0
1, 8357, Note_on_c, 0, 83, 0
1, 8358, Note_on_c, 0, 81, 74
1, 8381, Note_on_c, 0, 81, 0
1, 8382, Note_on_c, 0, 79, 73
1, 8405, Note_on_c, 0, 79, 0
1, 8406, Note_on_c, 0, 78, 72
1, 8429, Note_on_c, 0, 78, 0
1, 8430, Note_on_c, 0, 76, 71
1, 8448, Note_on_c, 1, 66, 70
1, 8448, Note_on_c, 1, 62, 70
1, 8453, Note_on_c, 0, 76, 0
1, 8454, Note_on_c, 0, 78, 70
1, 8499, Note_on_c, 0, 78, 0
1, 8502, Note_on_c, 0, 69, 70
1, 8525, Note_on_c, 0, 69, 0
1, 8526, Note_on_c, 0, 78, 70
1, 8537, Note_on_c, 1, 66, 0
1, 8537, Note_on_c, 1, 62, 0
1, 8549, Note_on_c, 0, 78, 0
1, 8550, Note_on_c, 0, 76, 70
1, 8573, Note_on_c, 0, 76, 0
1, 8574, Note_on_c, 0, 74, 70
1, 8597, Note_on_c, 0, 74, 0
1, 8598, Note_on_c, 0, 73, 70
1, 8621, Note_on_c, 0, 73, 0
1, 8622, Note_on_c, 0, 71, 70
1, 8640, Note_on_c, 1, 64, 70
1, 8640, Note_on_c, 1, 61, 70
1, 8645, Note_on_c, 0, 71, 0
1, 8646, Note_on_c, 0, 69, 70
1, 8691, Note_on_c, 0, 69, 0
1, 8694, Note_on_c, 0, 79, 70
1, 8717, Note_on_c, 0, 79, 0
1, 8718, Note_on_c, 0, 83, 71
1, 8729, Note_on_c, 1, 64, 0
1, 8729, Note_on_c, 1, 61, 0
1, 8741, Note_on_c, 0, 83, 0
1, 8742, Note_on_c, 0, 81, 72
1, 8765, Note_on_c, 0, 81, 0
1, 8766, Note_on_c, 0, 79, 74
1, 8789, Note_on_c, 0, 79, 0
1, 8790, Note_on_c, 0, 78, 75
1, 8813, Note_on_c, 0, 78, 0
1, 8814, Note_on_c, 0, 76, 76
1, 8832, Note_on_c, 1, 62, 78
1, 8837, Note_on_c, 0, 76, 0
1, 8838, Note_on_c, 0, 78, 78
1, 8877, Note_on_c, 1, 62, 0
1, 8880, Note_on_c, 1, 57, 78
1, 8883, Note_on_c, 0, 78, 0
1, 8925, Note_on_c, 1, 57, 0
1, 8928, Note_on_c, 1, 64, 78
1, 8934, Note_on_c, 0, 81, 78
1, 8946, Note_on_c, 0, 81, 0
1, 8946, Note_on_c, 0, 79, 78
1, 8958, Note_on_c, 0, 79, 0
1, 8958, Note_on_c, 0, 78, 78
1, 8970, Note_on_c, 0, 78, 0
1, 8970, Note_on_c, 0, 79, 78
1, 8973, Note_on_c, 1, 64, 0
1, 8976, Note_on_c, 1, 57, 78
1, 8982, Note_on_c, 0, 79, 0
1, 9021, Note_on_c, 1, 57, 0
1, 9024, Note_on_c, 1, 66, 78
1, 9030, Note_on_c, 0, 83, 78
1, 9042, Note_on_c, 0, 83, 0
1, 9042, Note_on_c, 0, 81, 78
1, 9054, Note_on_c, 0, 81, 0
1, 9054, Note_on_c, 0, 79, 78
1, 9066, Note_on_c, 0, 79, 0
1, 9066, Note_on_c, 0, 81, 78
1, 9069, Note_on_c, 1, 66, 0
1, 9072, Note_on_c, 1, 57, 78
1, 9078, Note_on_c, 0, 81, 0
1, 9117, Note_on_c, 1, 57, 0
1, 9120, Note_on_c, 1, 64, 78
1, 9126, Note_on_c, 0, 81, 78
1, 9149, Note_on_c, 0, 81, 0
1, 9150, Note_on_c, 0, 79, 78
1, 9165, Note_on_c, 1, 64, 0
1, 9168, Note_on_c, 1, 57, 78
1, 9173, Note_on_c, 0, 79, 0
1, 9174, Note_on_c, 0, 78, 78
1, 9197, Note_on_c, 0, 78, 0
1, 9198, Note_on_c, 0, 76, 78
1, 9213, Note_on_c, 1, 57, 0
1, 9216, Note_on_c, 1, 62, 78
1, 9221, Note_on_c, 0, 76, 0
1, 9222, Note_on_c, 0, 78, 78
1, 9261, Note_on_c, 1, 62, 0
1, 9264, Note_on_c, 1, 57, 78
1, 9309, Note_on_c, 1, 57, 0
1, 9311, Note_on_c, 0, 78, 0
1, 9312, Note_on_c, 1, 64, 78
1, 9318, Note_on_c, 0, 79, 78
1, 9330, Note_on_c, 0, 79, 0
1, 9330, Note_on_c, 0, 81, 78
1, 9342, Note_on_c, 0, 81, 0
1, 9342, Note_on_c, 0, 79, 78
1, 9354, Note_on_c, 0, 79, 0
1, 9354, Note_on_c, 0, 81, 78
1, 9357, Note_on_c, 1, 64, 0
1, 9360, Note_on_c, 1, 57, 78
1, 9366, Note_on_c, 0, 81, 0
1, 9366, Note_on_c, 0, 79, 78
1, 9378, Note_on_c, 0, 79, 0
1, 9378, Note_on_c, 0, 81, 78
1, 9385, Note_on_c, 0, 81, 0
1, 9390, Note_on_c, 0, 78, 78
1, 9402, Note_on_c, 0, 78, 0
1, 9402, Note_on_c, 0, 79, 78
1, 9405, Note_on_c, 1, 57, 0
1, 9408, Note_on_c, 1, 66, 78
1, 9414, Note_on_c, 0, 79, 0
1, 9414, Note_on_c, 0, 81, 78
1, 9453, Note_on_c, 1, 66, 0
1, 9456, Note_on_c, 1, 57, 78
1, 9501, Note_on_c, 1, 57, 0
1, 9503, Note_on_c, 0, 81, 0
1, 9504, Note_on_c, 1, 64, 78
1, 9510, Note_on_c, 0, 81, 78
1, 9533, Note_on_c, 0, 81, 0
1, 9534, Note_on_c, 0, 79, 78
1, 9549, Note_on_c, 1, 64, 0
1, 9552, Note_on_c, 1, 57, 78
1, 9557, Note_on_c, 0, 79, 0
1, 9558, Note_on_c, 0, 78, 78
1, 9581, Note_on_c, 0, 78, 0
1, 9582, Note_on_c, 0, 76, 78
1, 9597, Note_on_c, 1, 57, 0
1, 9600, Note_on_c, 1, 62, 78
1, 9605, Note_on_c, 0, 76, 0
1, 9606, Note_on_c, 0, 78, 78
1, 9629, Note_on_c, 0, 78, 0
1, 9630, Note_on_c, 0, 74, 78
1, 9645, Note_on_c, 1, 62, 0
1, 9648, Note_on_c, 1, 64, 78
1, 9653, Note_on_c, 0, 74, 0
1, 9654, Note_on_c, 0, 79, 78
1, 9677, Note_on_c, 0, 79, 0
1, 9678, Note_on_c, 0, 74, 78
1, 9693, Note_on_c, 1, 64, 0
1, 9696, Note_on_c, 1, 66, 78
1, 9701, Note_on_c, 0, 74, 0
1, 9702, Note_on_c, 0, 81, 78
1, 9725, Note_on_c, 0, 81, 0
1, 9726, Note_on_c, 0, 74, 78
1, 9741, Note_on_c, 1, 66, 0
1, 9744, Note_on_c, 1, 67, 78
1, 9749, Note_on_c, 0, 74, 0
1, 9750, Note_on_c, 0, 83, 78
1, 9773, Note_on_c, 0, 83, 0
1, 9774, Note_on_c, 0, 74, 78
1, 9789, Note_on_c, 1, 67, 0
1, 9792, Note_on_c, 1, 69, 78
1, 9797, Note_on_c, 0, 74, 0
1, 9798, Note_on_c, 0, 73, 78
1, 9808, Note_on_c, 0, 73, 0
1, 9808, Note_on_c, 0, 74, 78
1, 9818, Note_on_c, 0, 74, 0
1, 9818, Note_on_c, 0, 73, 78
1, 9828, Note_on_c, 0, 73, 0
1, 9828, Note_on_c, 0, 71, 78
1, 9837, Note_on_c, 0, 71, 0
1, 9837, Note_on_c, 0, 73, 78
1, 9837, Note_on_c, 1, 69, 0
1, 9840, Note_on_c, 1, 62, 78
1, 9846, Note_on_c, 0, 73, 0
1, 9846, Note_on_c, 0, 74, 78
1, 9885, Note_on_c, 1, 62, 0
1, 9891, Note_on_c, 0, 74, 0
1, 9984, Note_on_c, 1, 50, 85
1, 10007, Note_on_c, 1, 50, 0
1, 10008, Note_on_c, 1, 54, 85
1, 10031, Note_on_c, 1, 54, 0
1, 10038, Note_on_c, 0, 57, 85
1, 10061, Note_on_c, 0, 57, 0
1, 10062, Note_on_c, 0, 62, 85
1, 10085, Note_on_c, 0, 62, 0
1, 10086, Note_on_c, 0, 66, 85
1, 10109, Note_on_c, 0, 66, 0
1, 10110, Note_on_c, 0, 62, 85
1, 10133, Note_on_c, 0, 62, 0
1, 10134, Note_on_c, 0, 57, 85
1, 10157, Note_on_c, 0, 57, 0
1, 10158, Note_on_c, 0, 62, 85
1, 10176, Note_on_c, 1, 50, 85
1, 10176, Note_on_c, 1, 38, 85
1, 10181, Note_on_c, 0, 62, 0
1, 10221, Note_on_c, 1, 50, 0
1, 10221, Note_on_c, 1, 38, 0
1, 10230, Note_on_c, 0, 66, 85
1, 10253, Note_on_c, 0, 66, 0
1, 10254, Note_on_c, 0, 69, 85
1, 10277, Note_on_c, 0, 69, 0
1, 10278, Note_on_c, 0, 67, 85
1, 10301, Note_on_c, 0, 67, 0
1, 10302, Note_on_c, 0, 66, 85
1, 10325, Note_on_c, 0, 66, 0
1, 10326, Note_on_c, 0, 64, 85
1, 10349, Note_on_c, 0, 64, 0
1, 10350, Note_on_c, 0, 62, 85
1, 10368, Note_on_c, 1, 61, 85
1, 10373, Note_on_c, 0, 62, 0
1, 10391, Note_on_c, 1, 61, 0
1, 10392, Note_on_c, 1, 64, 85
1, 10415, Note_on_c, 1, 64, 0
1, 10422, Note_on_c, 0, 69, 85
1, 10445, Note_on_c, 0, 69, 0
1, 10446, Note_on_c, 0, 73, 85
1, 10469, Note_on_c, 0, 73, 0
1, 10470, Note_on_c, 0, 76, 85
1, 10493, Note_on_c, 0, 76, 0
1, 10494, Note_on_c, 0, 73, 85
1, 10517, Note_on_c, 0, 73, 0
1, 10518, Note_on_c, 0, 69, 85
1, 10541, Note_on_c, 0, 69, 0
1, 10542, Note_on_c, 0, 73, 85
1, 10560, Note_on_c, 1, 45, 85
1, 10560, Note_on_c, 1, 33, 85
1, 10565, Note_on_c, 0, 73, 0
1, 10605, Note_on_c, 1, 45, 0
1, 10605, Note_on_c, 1, 33, 0
1, 10614, Note_on_c, 0, 73, 85
1, 10637, Note_on_c, 0, 73, 0
1, 10638, Note_on_c, 0, 76, 85
1, 10661, Note_on_c, 0, 76, 0
1, 10662, Note_on_c, 0, 74, 85
1, 10685, Note_on_c, 0, 74, 0
1, 10686, Note_on_c, 0, 73, 85
1, 10709, Note_on_c, 0, 73, 0
1, 10710, Note_on_c, 0, 71, 85
1, 10733, Note_on_c, 0, 71, 0
1, 10734, Note_on_c, 0, 69, 85
1, 10757, Note_on_c, 0, 69, 0
1, 10758, Note_on_c, 0, 68, 85
1, 10781, Note_on_c, 0, 68, 0
1, 10782, Note_on_c, 0, 71, 85
1, 10805, Note_on_c, 0, 71, 0
1, 10806, Note_on_c, 0, 74, 85
1, 10829, Note_on_c, 0, 74, 0
1, 10830, Note_on_c, 0, 80, 85
1, 10853, Note_on_c, 0, 80, 0
1, 10854, Note_on_c, 0, 83, 85
1, 10877, Note_on_c, 0, 83, 0
1, 10878, Note_on_c, 0, 80, 85
1, 10901, Note_on_c, 0, 80, 0
1, 10902, Note_on_c, 0, 74, 85
1, 10925, Note_on_c, 0, 74, 0
1, 10926, Note_on_c, 0, 80, 85
1, 10944, Note_on_c, 1, 52, 85
1, 10944, Note_on_c, 1, 40, 85
1, 10949, Note_on_c, 0, 80, 0
1, 10989, Note_on_c, 1, 52, 0
1, 10989, Note_on_c, 1, 40, 0
1, 10998, Note_on_c, 0, 83, 85
1, 11021, Note_on_c, 0, 83, 0
1, 11022, Note_on_c, 0, 81, 85
1, 11045, Note_on_c, 0, 81, 0
1, 11046, Note_on_c, 0, 80, 85
1, 11069, Note_on_c, 0, 80, 0
1, 11070, Note_on_c, 0, 78, 85
1, 11093, Note_on_c, 0, 78, 0
1, 11094, Note_on_c, 0, 76, 85
1, 11117, Note_on_c, 0, 76, 0
1, 11118, Note_on_c, 0, 74, 85
1, 11136, Note_on_c, 1, 57, 85
1, 11141, Note_on_c, 0, 74, 0
1, 11142, Note_on_c, 0, 73, 85
1, 11165, Note_on_c, 0, 73, 0
1, 11166, Note_on_c, 0, 69, 85
1, 11181, Note_on_c, 1, 57, 0
1, 11184, Note_on_c, 1, 59, 85
1, 11189, Note_on_c, 0, 69, 0
1, 11190, Note_on_c, 0, 74, 85
1, 11213, Note_on_c, 0, 74, 0
1, 11214, Note_on_c, 0, 69, 85
1, 11229, Note_on_c, 1, 59, 0
1, 11232, Note_on_c, 1, 61, 85
1, 11237, Note_on_c, 0, 69, 0
1, 11238, Note_on_c, 0, 76, 85
1, 11261, Note_on_c, 0, 76, 0
1, 11262, Note_on_c, 0, 69, 85
1, 11277, Note_on_c, 1, 61, 0
1, 11280, Note_on_c, 1, 62, 85
1, 11285, Note_on_c, 0, 69, 0
1, 11286, Note_on_c, 0, 78, 85
1, 11309, Note_on_c, 0, 78, 0
1, 11310, Note_on_c, 0, 69, 85
1, 11325, Note_on_c, 1, 62, 0
1, 11328, Note_on_c, 1, 61, 85
1, 11333, Note_on_c, 0, 69, 0
1, 11334, Note_on_c, 0, 76, 85
1, 11357, Note_on_c, 0, 76, 0
1, 11358, Note_on_c, 0, 69, 85
1, 11373, Note_on_c, 1, 61, 0
1, 11376, Note_on_c, 1, 62, 85
1, 11381, Note_on_c, 0, 69, 0
1, 11382, Note_on_c, 0, 78, 85
1, 11405, Note_on_c, 0, 78, 0
1, 11406, Note_on_c, 0, 69, 85
1, 11421, Note_on_c, 1, 62, 0
1, 11424, Note_on_c, 1, 61, 85
1, 11429, Note_on_c, 0, 69, 0
1, 11430, Note_on_c, 0, 76, 85
1, 11453, Note_on_c, 0, 76, 0
1, 11454, Note_on_c, 0, 69, 83
1, 11469, Note_on_c, 1, 61, 0
1, 11472, Note_on_c, 1, 59, 82
1, 11477, Note_on_c, 0, 69, 0
1, 11478, Note_on_c, 0, 74, 82
1, 11501, Note_on_c, 0, 74, 0
1, 11502, Note_on_c, 0, 69, 80
1, 11517, Note_on_c, 1, 59, 0
1, 11520, Note_on_c, 1, 57, 80
1, 11525, Note_on_c, 0, 69, 0
1, 11526, Note_on_c, 0, 73, 79
1, 11549, Note_on_c, 0, 73, 0
1, 11550, Note_on_c, 0, 69, 78
1, 11565, Note_on_c, 1, 57, 0
1, 11568, Note_on_c, 1, 59, 78
1, 11573, Note_on_c, 0, 69, 0
1, 11574, Note_on_c, 0, 74, 78
1, 11597, Note_on_c, 0, 74, 0
1, 11598, Note_on_c, 0, 69, 78
1, 11613, Note_on_c, 1, 59, 0
1, 11616, Note_on_c, 1, 61, 78
1, 11621, Note_on_c, 0, 69, 0
1, 11622, Note_on_c, 0, 76, 78
1, 11645, Note_on_c, 0, 76, 0
1, 11646, Note_on_c, 0, 69, 78
1, 11661, Note_on_c, 1, 61, 0
1, 11664, Note_on_c, 1, 62, 78
1, 11669, Note_on_c, 0, 69, 0
1, 11670, Note_on_c, 0, 78, 78
1, 11693, Note_on_c, 0, 78, 0
1, 11694, Note_on_c, 0, 69, 78
1, 11709, Note_on_c, 1, 62, 0
1, 11712, Note_on_c, 1, 61, 78
1, 11717, Note_on_c, 0, 69, 0
1, 11718, Note_on_c, 0, 76, 78
1, 11741, Note_on_c, 0, 76, 0
1, 11742, Note_on_c, 0, 69, 78
1, 11757, Note_on_c, 1, 61, 0
1, 11760, Note_on_c, 1, 62, 78
1, 11765, Note_on_c, 0, 69, 0
1, 11766, Note_on_c, 0, 78, 78
1, 11789, Note_on_c, 0, 78, 0
1, 11790, Note_on_c, 0, 69, 78
1, 11805, Note_on_c, 1, 62, 0
1, 11808, Note_on_c, 1, 61, 78
1, 11813, Note_on_c, 0, 69, 0
1, 11814, Note_on_c, 0, 76, 78
1, 11853, Note_on_c, 1, 61, 0
1, 11859, Note_on_c, 0, 76, 0
1, 11862, Note_on_c, 0, 81, 94
1, 11882, Note_on_c, 0, 81, 0
1, 11910, Note_on_c, 0, 71, 78
1, 11952, Note_on_c, 1, 66, 78
1, 11952, Note_on_c, 1, 62, 78
1, 11972, Note_on_c, 1, 66, 0
1, 11972, Note_on_c, 1, 62, 0
1, 12000, Note_on_c, 1, 66, 78
1, 12000, Note_on_c, 1, 62, 78
1, 12043, Note_on_c, 0, 71, 0
1, 12047, Note_on_c, 1, 66, 0
1, 12047, Note_on_c, 1, 62, 0
1, 12054, Note_on_c, 0, 74, 78
1, 12066, Note_on_c, 0, 74, 0
1, 12066, Note_on_c, 0, 76, 78
1, 12078, Note_on_c, 0, 76, 0
1, 12078, Note_on_c, 0, 78, 78
1, 12101, Note_on_c, 0, 78, 0
1, 12102, Note_on_c, 0, 69, 78
1, 12144, Note_on_c, 1, 61, 78
1, 12189, Note_on_c, 1, 61, 0
1, 12191, Note_on_c, 0, 69, 0
1, 12192, Note_on_c, 1, 62, 78
1, 12198, Note_on_c, 0, 73, 78
1, 12221, Note_on_c, 0, 73, 0
1, 12222, Note_on_c, 0, 71, 78
1, 12237, Note_on_c, 1, 62, 0
1, 12240, Note_on_c, 1, 64, 78
1, 12245, Note_on_c, 0, 71, 0
1, 12246, Note_on_c, 0, 69, 78
1, 12269, Note_on_c, 0, 69, 0
1, 12270, Note_on_c, 0, 68, 78
1, 12285, Note_on_c, 1, 64, 0
1, 12288, Note_on_c, 1, 57, 78
1, 12293, Note_on_c, 0, 68, 0
1, 12294, Note_on_c, 0, 69, 78
1, 12339, Note_on_c, 0, 69, 0
1, 12342, Note_on_c, 0, 81, 78
1, 12357, Note_on_c, 0, 81, 0
1, 12358, Note_on_c, 0, 80, 78
1, 12373, Note_on_c, 0, 80, 0
1, 12374, Note_on_c, 0, 78, 78
1, 12377, Note_on_c, 1, 57, 0
1, 12389, Note_on_c, 0, 78, 0
1, 12390, Note_on_c, 0, 76, 78
1, 12432, Note_on_c, 1, 74, 78
1, 12432, Note_on_c, 1, 68, 78
1, 12435, Note_on_c, 0, 76, 0
1, 12438, Note_on_c, 0, 76, 78
1, 12477, Note_on_c, 1, 74, 0
1, 12477, Note_on_c, 1, 68, 0
1, 12480, Note_on_c, 1, 73, 78
1, 12480, Note_on_c, 1, 69, 78
1, 12483, Note_on_c, 0, 76, 0
1, 12486, Note_on_c, 0, 76, 78
1, 12501, Note_on_c, 0, 76, 0
1, 12502, Note_on_c, 0, 78, 78
1, 12517, Note_on_c, 0, 78, 0
1, 12518, Note_on_c, 0, 80, 78
1, 12533, Note_on_c, 0, 80, 0
1, 12534, Note_on_c, 0, 81, 78
1, 12549, Note_on_c, 0, 81, 0
1, 12550, Note_on_c, 0, 80, 78
1, 12565, Note_on_c, 0, 80, 0
1, 12566, Note_on_c, 0, 78, 78
1, 12569, Note_on_c, 1, 73, 0
1, 12569, Note_on_c, 1, 69, 0
1, 12581, Note_on_c, 0, 78, 0
1, 12582, Note_on_c, 0, 76, 78
1, 12624, Note_on_c, 1, 74, 78
1, 12624, Note_on_c, 1, 68, 78
1, 12627, Note_on_c, 0, 76, 0
1, 12630, Note_on_c, 0, 76, 78
1, 12669, Note_on_c, 1, 74, 0
1, 12669, Note_on_c, 1, 68, 0
1, 12672, Note_on_c, 1, 73, 78
1, 12672, Note_on_c, 1, 69, 78
1, 12675, Note_on_c, 0, 76, 0
1, 12678, Note_on_c, 0, 76, 78
1, 12693, Note_on_c, 0, 76, 0
1, 12694, Note_on_c, 0, 78, 78
1, 12709, Note_on_c, 0, 78, 0
1, 12710, Note_on_c, 0, 80, 78
1, 12725, Note_on_c, 0, 80, 0
1, 12726, Note_on_c, 0, 81, 78
1, 12741, Note_on_c, 0, 81, 0
1, 12742, Note_on_c, 0, 80, 78
1, 12757, Note_on_c, 0, 80, 0
1, 12758, Note_on_c, 0, 78, 78
1, 12761, Note_on_c, 1, 73, 0
1, 12761, Note_on_c, 1, 69, 0
1, 12773, Note_on_c, 0, 78, 0
1, 12774, Note_on_c, 0, 76, 78
1, 12816, Note_on_c, 1, 61, 78
1, 12819, Note_on_c, 0, 76, 0
1, 12822, Note_on_c, 0, 77, 78
1, 12861, Note_on_c, 1, 61, 0
1, 12864, Note_on_c, 1, 62, 78
1, 12867, Note_on_c, 0, 77, 0
1, 12870, Note_on_c, 0, 78, 78
1, 12915, Note_on_c, 0, 78, 0
1, 12918, Note_on_c, 0, 70, 78
1, 12941, Note_on_c, 0, 70, 0
1, 12942, Note_on_c, 0, 71, 78
1, 12953, Note_on_c, 1, 62, 0
1, 12965, Note_on_c, 0, 71, 0
1, 12966, Note_on_c, 0, 73, 78
1, 12989, Note_on_c, 0, 73, 0
1, 12990, Note_on_c, 0, 74, 78
1, 13013, Note_on_c, 0, 74, 0
1, 13014, Note_on_c, 0, 76, 78
1, 13037, Note_on_c, 0, 76, 0
1, 13038, Note_on_c, 0, 78, 78
1, 13061, Note_on_c, 0, 78, 0
1, 13062, Note_on_c, 0, 76, 94
1, 13104, Note_on_c, 1, 61, 78
1, 13110, Note_on_c, 0, 76, 0
1, 13110, Note_on_c, 0, 74, 78
1, 13122, Note_on_c, 0, 74, 0
1, 13122, Note_on_c, 0, 73, 78
1, 13134, Note_on_c, 0, 73, 0
1, 13134, Note_on_c, 0, 71, 78
1, 13146, Note_on_c, 0, 71, 0
1, 13146, Note_on_c, 0, 69, 78
1, 13149, Note_on_c, 1, 61, 0
1, 13152, Note_on_c, 1, 62, 78
1, 13158, Note_on_c, 0, 69, 0
1, 13158, Note_on_c, 0, 71, 78
1, 13171, Note_on_c, 0, 71, 0
1, 13172, Note_on_c, 0, 73, 78
1, 13185, Note_on_c, 0, 73, 0
1, 13186, Note_on_c, 0, 71, 78
1, 13197, Note_on_c, 1, 62, 0
1, 13199, Note_on_c, 0, 71, 0
1, 13200, Note_on_c, 0, 73, 78
1, 13200, Note_on_c, 1, 64, 78
1, 13213, Note_on_c, 0, 73, 0
1, 13214, Note_on_c, 0, 71, 78
1, 13227, Note_on_c, 0, 71, 0
1, 13228, Note_on_c, 0, 69, 78
1, 13240, Note_on_c, 0, 69, 0
1, 13241, Note_on_c, 0, 71, 78
1, 13245, Note_on_c, 1, 64, 0
1, 13248, Note_on_c, 1, 57, 78
1, 13253, Note_on_c, 0, 71, 0
1, 13254, Note_on_c, 0, 69, 78
1, 13299, Note_on_c, 0, 69, 0
1, 13302, Note_on_c, 0, 81, 78
1, 13317, Note_on_c, 0, 81, 0
1, 13318, Note_on_c, 0, 80, 78
1, 13333, Note_on_c, 0, 80, 0
1, 13334, Note_on_c, 0, 78, 78
1, 13337, Note_on_c, 1, 57, 0
1, 13349, Note_on_c, 0, 78, 0
1, 13350, Note_on_c, 0, 76, 78
1, 13392, Note_on_c, 1, 74, 78
1, 13392, Note_on_c, 1, 68, 78
1, 13395, Note_on_c, 0, 76, 0
1, 13398, Note_on_c, 0, 76, 78
1, 13437, Note_on_c, 1, 74, 0
1, 13437, Note_on_c, 1, 68, 0
1, 13440, Note_on_c, 1, 73, 78
1, 13440, Note_on_c, 1, 69, 78
1, 13443, Note_on_c, 0, 76, 0
1, 13446, Note_on_c, 0, 76, 78
1, 13461, Note_on_c, 0, 76, 0
1, 13462, Note_on_c, 0, 78, 78
1, 13477, Note_on_c, 0, 78, 0
1, 13478, Note_on_c, 0, 80, 78
1, 13493, Note_on_c, 0, 80, 0
1, 13494, Note_on_c, 0, 81, 78
1, 13509, Note_on_c, 0, 81, 0
1, 13510, Note_on_c, 0, 80, 78
1, 13525, Note_on_c, 0, 80, 0
1, 13526, Note_on_c, 0, 78, 78
1, 13529, Note_on_c, 1, 73, 0
1, 13529, Note_on_c, 1, 69, 0
1, 13541, Note_on_c, 0, 78, 0
1, 13542, Note_on_c, 0, 76, 78
1, 13584, Note_on_c, 1, 74, 78
1, 13584, Note_on_c, 1, 68, 78
1, 13587, Note_on_c, 0, 76, 0
1, 13590, Note_on_c, 0, 76, 78
1, 13629, Note_on_c, 1, 74, 0
1, 13629, Note_on_c, 1, 68, 0
1, 13632, Note_on_c, 1, 73, 78
1, 13632, Note_on_c, 1, 69, 78
1, 13635, Note_on_c, 0, 76, 0
1, 13638, Note_on_c, 0, 76, 78
1, 13653, Note_on_c, 0, 76, 0
1, 13654, Note_on_c, 0, 78, 78
1, 13669, Note_on_c, 0, 78, 0
1, 13670, Note_on_c, 0, 80, 78
1, 13685, Note_on_c, 0, 80, 0
1, 13686, Note_on_c, 0, 81, 78
1, 13701, Note_on_c, 0, 81, 0
1, 13702, Note_on_c, 0, 80, 78
1, 13717, Note_on_c, 0, 80, 0
1, 13718, Note_on_c, 0, 78, 78
1, 13721, Note_on_c, 1, 73, 0
1, 13721, Note_on_c, 1, 69, 0
1, 13733, Note_on_c, 0, 78, 0
1, 13734, Note_on_c, 0, 76, 78
1, 13776, Note_on_c, 1, 61, 78
1, 13779, Note_on_c, 0, 76, 0
1, 13782, Note_on_c, 0, 77, 78
1, 13821, Note_on_c, 1, 61, 0
1, 13824, Note_on_c, 1, 62, 78
1, 13827, Note_on_c, 0, 77, 0
1, 13830, Note_on_c, 0, 78, 78
1, 13875, Note_on_c, 0, 78, 0
1, 13878, Note_on_c, 0, 70, 78
1, 13901, Note_on_c, 0, 70, 0
1, 13902, Note_on_c, 0, 71, 78
1, 13913, Note_on_c, 1, 62, 0
1, 13925, Note_on_c, 0, 71, 0
1, 13926, Note_on_c, 0, 73, 78
1, 13949, Note_on_c, 0, 73, 0
1, 13950, Note_on_c, 0, 74, 78
1, 13973, Note_on_c, 0, 74, 0
1, 13974, Note_on_c, 0, 76, 78
1, 13997, Note_on_c, 0, 76, 0
1, 13998, Note_on_c, 0, 78, 78
1, 14021, Note_on_c, 0, 78, 0
1, 14022, Note_on_c, 0, 76, 94
1, 14064, Note_on_c, 1, 61, 78
1, 14070, Note_on_c, 0, 76, 0
1, 14070, Note_on_c, 0, 74, 78
1, 14082, Note_on_c, 0, 74, 0
1, 14082, Note_on_c, 0, 73, 78
1, 14094, Note_on_c, 0, 73, 0
1, 14094, Note_on_c, 0, 71, 78
1, 14106, Note_on_c, 0, 71, 0
1, 14106, Note_on_c, 0, 69, 78
1, 14109, Note_on_c, 1, 61, 0
1, 14112, Note_on_c, 1, 62, 78
1, 14118, Note_on_c, 0, 69, 0
1, 14118, Note_on_c, 0, 71, 78
1, 14131, Note_on_c, 0, 71, 0
1, 14132, Note_on_c, 0, 73, 78
1, 14145, Note_on_c, 0, 73, 0
1, 14146, Note_on_c, 0, 71, 78
1, 14157, Note_on_c, 1, 62, 0
1, 14159, Note_on_c, 0, 71, 0
1, 14160, Note_on_c, 0, 73, 78
1, 14160, Note_on_c, 1, 64, 78
1, 14173, Note_on_c, 0, 73, 0
1, 14174, Note_on_c, 0, 71, 78
1, 14187, Note_on_c, 0, 71, 0
1, 14188, Note_on_c, 0, 69, 78
1, 14200, Note_on_c, 0, 69, 0
1, 14201, Note_on_c, 0, 71, 78
1, 14205, Note_on_c, 1, 64, 0
1, 14208, Note_on_c, 1, 57, 78
1, 14213, Note_on_c, 0, 71, 0
1, 14214, Note_on_c, 0, 69, 78
1, 14259, Note_on_c, 0, 69, 0
1, 14262, Note_on_c, 0, 64, 78
1, 14285, Note_on_c, 0, 64, 0
1, 14286, Note_on_c, 0, 69, 78
1, 14297, Note_on_c, 1, 57, 0
1, 14309, Note_on_c, 0, 69, 0
1, 14310, Note_on_c, 0, 61, 78
1, 14333, Note_on_c, 0, 61, 0
1, 14334, Note_on_c, 0, 64, 78
1, 14357, Note_on_c, 0, 64, 0
1, 14358, Note_on_c, 0, 57, 78
1, 14381, Note_on_c, 0, 57, 0
1, 14382, Note_on_c, 0, 61, 78
1, 14400, Note_on_c, 1, 45, 85
1, 14400, Note_on_c, 1, 33, 85
1, 14405, Note_on_c, 0, 61, 0
1, 14489, Note_on_c, 1, 45, 0
1, 14489, Note_on_c, 1, 33, 0
1, 14598, Note_on_c, 0, 78, 78
1, 14610, Note_on_c, 0, 78, 0
1, 14610, Note_on_c, 0, 76, 78
1, 14622, Note_on_c, 0, 76, 0
1, 14622, Note_on_c, 0, 75, 78
1, 14634, Note_on_c, 0, 75, 0
1, 14634, Note_on_c, 0, 76, 78
1, 14640, Note_on_c, 1, 61, 63
1, 14640, Note_on_c, 1, 57, 63
1, 14660, Note_on_c, 1, 61, 0
1, 14660, Note_on_c, 1, 57, 0
1, 14688, Note_on_c, 1, 61, 63
1, 14688, Note_on_c, 1, 57, 63
1, 14731, Note_on_c, 0, 76, 0
1, 14735, Note_on_c, 1, 61, 0
1, 14735, Note_on_c, 1, 57, 0
1, 14742, Note_on_c, 0, 81, 78
1, 14765, Note_on_c, 0, 81, 0
1, 14766, Note_on_c, 0, 76, 78
1, 14789, Note_on_c, 0, 76, 0
1, 14790, Note_on_c, 0, 73, 78
1, 14832, Note_on_c, 1, 64, 63
1, 14832, Note_on_c, 1, 57, 63
1, 14852, Note_on_c, 1, 64, 0
1, 14852, Note_on_c, 1, 57, 0
1, 14880, Note_on_c, 1, 64, 63
1, 14880, Note_on_c, 1, 57, 63
1, 14923, Note_on_c, 0, 73, 0
1, 14927, Note_on_c, 1, 64, 0
1, 14927, Note_on_c, 1, 57, 0
1, 14934, Note_on_c, 0, 76, 78
1, 14957, Note_on_c, 0, 76, 0
1, 14958, Note_on_c, 0, 73, 78
1, 14981, Note_on_c, 0, 73, 0
1, 14982, Note_on_c, 0, 78, 78
1, 15024, Note_on_c, 1, 62, 63
1, 15024, Note_on_c, 1, 57, 63
1, 15044, Note_on_c, 1, 62, 0
1, 15044, Note_on_c, 1, 57, 0
1, 15072, Note_on_c, 1, 62, 63
1, 15072, Note_on_c, 1, 57, 63
1, 15115, Note_on_c, 0, 78, 0
1, 15119, Note_on_c, 1, 62, 0
1, 15119, Note_on_c, 1, 57, 0
1, 15126, Note_on_c, 0, 74, 78
1, 15149, Note_on_c, 0, 74, 0
1, 15150, Note_on_c, 0, 71, 78
1, 15173, Note_on_c, 0, 71, 0
1, 15174, Note_on_c, 0, 69, 63
1, 15216, Note_on_c, 1, 62, 63
1, 15216, Note_on_c, 1, 59, 63
1, 15216, Note_on_c, 1, 57, 63
1, 15217, Note_on_c, 0, 69, 0
1, 15220, Note_on_c, 0, 68, 67
1, 15232, Note_on_c, 0, 68, 0
1, 15232, Note_on_c, 0, 69, 68
1, 15244, Note_on_c, 0, 69, 0
1, 15244, Note_on_c, 0, 68, 69
1, 15256, Note_on_c, 0, 68, 0
1, 15256, Note_on_c, 0, 69, 69
1, 15263, Note_on_c, 1, 62, 0
1, 15263, Note_on_c, 1, 59, 0
1, 15263, Note_on_c, 1, 57, 0
1, 15264, Note_on_c, 1, 62, 68
1, 15264, Note_on_c, 1, 59, 68
1, 15264, Note_on_c, 1, 57, 68
1, 15268, Note_on_c, 0, 69, 0
1, 15268, Note_on_c, 0, 68, 70
1, 15279, Note_on_c, 0, 68, 0
1, 15279, Note_on_c, 0, 69, 71
1, 15290, Note_on_c, 0, 69, 0
1, 15290, Note_on_c, 0, 68, 71
1, 15301, Note_on_c, 0, 68, 0
1, 15301, Note_on_c, 0, 69, 72
1, 15311, Note_on_c, 1, 62, 0
1, 15311, Note_on_c, 1, 59, 0
1, 15311, Note_on_c, 1, 57, 0
1, 15312, Note_on_c, 0, 69, 0
1, 15312, Note_on_c, 0, 68, 73
1, 15312, Note_on_c, 1, 62, 73
1, 15312, Note_on_c, 1, 59, 73
1, 15312, Note_on_c, 1, 57, 73
1, 15323, Note_on_c, 0, 68, 0
1, 15323, Note_on_c, 0, 69, 74
1, 15334, Note_on_c, 0, 69, 0
1, 15334, Note_on_c, 0, 68, 74
1, 15345, Note_on_c, 0, 68, 0
1, 15345, Note_on_c, 0, 66, 75
1, 15356, Note_on_c, 0, 66, 0
1, 15356, Note_on_c, 0, 68, 76
1, 15359, Note_on_c, 1, 62, 0
1, 15359, Note_on_c, 1, 59, 0
1, 15359, Note_on_c, 1, 57, 0
1, 15360, Note_on_c, 1, 61, 78
1, 15360, Note_on_c, 1, 57, 78
1, 15367, Note_on_c, 0, 68, 0
1, 15367, Note_on_c, 0, 69, 78
1, 15412, Note_on_c, 0, 69, 0
1, 15415, Note_on_c, 0, 69, 79
1, 15438, Note_on_c, 0, 69, 0
1, 15439, Note_on_c, 0, 71, 80
1, 15449, Note_on_c, 1, 61, 0
1, 15449, Note_on_c, 1, 57, 0
1, 15462, Note_on_c, 0, 71, 0
1, 15463, Note_on_c, 0, 73, 81
1, 15486, Note_on_c, 0, 73, 0
1, 15487, Note_on_c, 0, 74, 82
1, 15510, Note_on_c, 0, 74, 0
1, 15511, Note_on_c, 0, 76, 83
1, 15534, Note_on_c, 0, 76, 0
1, 15535, Note_on_c, 0, 78, 84
1, 15558, Note_on_c, 0, 78, 0
1, 15559, Note_on_c, 0, 79, 85
1, 15582, Note_on_c, 0, 79, 0
1, 15583, Note_on_c, 0, 78, 84
1, 15606, Note_on_c, 0, 78, 0
1, 15607, Note_on_c, 0, 76, 83
1, 15630, Note_on_c, 0, 76, 0
1, 15631, Note_on_c, 0, 74, 82
1, 15654, Note_on_c, 0, 74, 0
1, 15655, Note_on_c, 0, 73, 81
1, 15678, Note_on_c, 0, 73, 0
1, 15679, Note_on_c, 0, 71, 80
1, 15702, Note_on_c, 0, 71, 0
1, 15703, Note_on_c, 0, 69, 79
1, 15726, Note_on_c, 0, 69, 0
1, 15727, Note_on_c, 0, 67, 78
1, 15750, Note_on_c, 0, 67, 0
1, 15751, Note_on_c, 0, 66, 78
1, 15774, Note_on_c, 0, 66, 0
1, 15775, Note_on_c, 0, 69, 78
1, 15798, Note_on_c, 0, 69, 0
1, 15799, Note_on_c, 0, 74, 78
1, 15822, Note_on_c, 0, 74, 0
1, 15823, Note_on_c, 0, 78, 78
1, 15846, Note_on_c, 0, 78, 0
1, 15847, Note_on_c, 0, 81, 78
1, 15870, Note_on_c, 0, 81, 0
1, 15871, Note_on_c, 0, 78, 78
1, 15894, Note_on_c, 0, 78, 0
1, 15895, Note_on_c, 0, 74, 78
1, 15918, Note_on_c, 0, 74, 0
1, 15919, Note_on_c, 0, 78, 79
1, 15942, Note_on_c, 0, 78, 0
1, 15943, Note_on_c, 0, 66, 79
1, 15966, Note_on_c, 0, 66, 0
1, 15967, Note_on_c, 0, 69, 79
1, 15990, Note_on_c, 0, 69, 0
1, 15991, Note_on_c, 0, 74, 79
1, 16014, Note_on_c, 0, 74, 0
1, 16015, Note_on_c, 0, 78, 79
1, 16038, Note_on_c, 0, 78, 0
1, 16039, Note_on_c, 0, 81, 79
1, 16062, Note_on_c, 0, 81, 0
1, 16063, Note_on_c, 0, 78, 79
1, 16086, Note_on_c, 0, 78, 0
1, 16087, Note_on_c, 0, 74, 80
1, 16110, Note_on_c, 0, 74, 0
1, 16111, Note_on_c, 0, 78, 80
1, 16134, Note_on_c, 0, 78, 0
1, 16135, Note_on_c, 0, 65, 80
1, 16158, Note_on_c, 0, 65, 0
1, 16159, Note_on_c, 0, 69, 80
1, 16182, Note_on_c, 0, 69, 0
1, 16183, Note_on_c, 0, 74, 80
1, 16206, Note_on_c, 0, 74, 0
1, 16207, Note_on_c, 0, 77, 80
1, 16230, Note_on_c, 0, 77, 0
1, 16231, Note_on_c, 0, 81, 80
1, 16254, Note_on_c, 0, 81, 0
1, 16255, Note_on_c, 0, 77, 81
1, 16278, Note_on_c, 0, 77, 0
1, 16279, Note_on_c, 0, 74, 81
1, 16302, Note_on_c, 0, 74, 0
1, 16303, Note_on_c, 0, 77, 81
1, 16326, Note_on_c, 0, 77, 0
1, 16327, Note_on_c, 0, 65, 81
1, 16350, Note_on_c, 0, 65, 0
1, 16351, Note_on_c, 0, 69, 81
1, 16374, Note_on_c, 0, 69, 0
1, 16375, Note_on_c, 0, 74, 81
1, 16398, Note_on_c, 0, 74, 0
1, 16399, Note_on_c, 0, 77, 81
1, 16422, Note_on_c, 0, 77, 0
1, 16423, Note_on_c, 0, 81, 82
1, 16446, Note_on_c, 0, 81, 0
1, 16447, Note_on_c, 0, 77, 82
1, 16470, Note_on_c, 0, 77, 0
1, 16471, Note_on_c, 0, 74, 82
1, 16494, Note_on_c, 0, 74, 0
1, 16495, Note_on_c, 0, 77, 82
1, 16518, Note_on_c, 0, 77, 0
1, 16519, Note_on_c, 0, 64, 82
1, 16542, Note_on_c, 0, 64, 0
1, 16543, Note_on_c, 0, 71, 82
1, 16566, Note_on_c, 0, 71, 0
1, 16567, Note_on_c, 0, 74, 83
1, 16590, Note_on_c, 0, 74, 0
1, 16591, Note_on_c, 0, 76, 83
1, 16614, Note_on_c, 0, 76, 0
1, 16615, Note_on_c, 0, 80, 83
1, 16638, Note_on_c, 0, 80, 0
1, 16639, Note_on_c, 0, 76, 83
1, 16662, Note_on_c, 0, 76, 0
1, 16663, Note_on_c, 0, 74, 83
1, 16686, Note_on_c, 0, 74, 0
1, 16687, Note_on_c, 0, 76, 83
1, 16710, Note_on_c, 0, 76, 0
1, 16711, Note_on_c, 0, 64, 83
1, 16734, Note_on_c, 0, 64, 0
1, 16735, Note_on_c, 0, 71, 84
1, 16758, Note_on_c, 0, 71, 0
1, 16759, Note_on_c, 0, 74, 84
1, 16782, Note_on_c, 0, 74, 0
1, 16783, Note_on_c, 0, 80, 84
1, 16806, Note_on_c, 0, 80, 0
1, 16807, Note_on_c, 0, 83, 84
1, 16830, Note_on_c, 0, 83, 0
1, 16831, Note_on_c, 0, 80, 84
1, 16854, Note_on_c, 0, 80, 0
1, 16855, Note_on_c, 0, 74, 84
1, 16878, Note_on_c, 0, 74, 0
1, 16879, Note_on_c, 0, 80, 84
1, 16902, Note_on_c, 0, 80, 0
1, 16903, Note_on_c, 0, 65, 85
1, 16926, Note_on_c, 0, 65, 0
1, 16927, Note_on_c, 0, 71, 85
1, 16950, Note_on_c, 0, 71, 0
1, 16951, Note_on_c, 0, 74, 85
1, 16974, Note_on_c, 0, 74, 0
1, 16975, Note_on_c, 0, 80, 85
1, 16998, Note_on_c, 0, 80, 0
1, 16999, Note_on_c, 0, 83, 85
1, 17022, Note_on_c, 0, 83, 0
1, 17023, Note_on_c, 0, 80, 85
1, 17046, Note_on_c, 0, 80, 0
1, 17047, Note_on_c, 0, 74, 85
1, 17070, Note_on_c, 0, 74, 0
1, 17071, Note_on_c, 0, 80, 86
1, 17094, Note_on_c, 0, 80, 0
1, 17095, Note_on_c, 0, 65, 86
1, 17118, Note_on_c, 0, 65, 0
1, 17119, Note_on_c, 0, 71, 86
1, 17142, Note_on_c, 0, 71, 0
1, 17143, Note_on_c, 0, 74, 86
1, 17166, Note_on_c, 0, 74, 0
1, 17167, Note_on_c, 0, 80, 86
1, 17190, Note_on_c, 0, 80, 0
1, 17191, Note_on_c, 0, 83, 86
1, 17214, Note_on_c, 0, 83, 0
1, 17215, Note_on_c, 0, 80, 87
1, 17238, Note_on_c, 0, 80, 0
1, 17239, Note_on_c, 0, 74, 87
1, 17262, Note_on_c, 0, 74, 0
1, 17263, Note_on_c, 0, 80, 87
1, 17286, Note_on_c, 0, 80, 0
1, 17287, Note_on_c, 0, 66, 87
1, 17310, Note_on_c, 0, 66, 0
1, 17311, Note_on_c, 0, 71, 87
1, 17334, Note_on_c, 0, 71, 0
1, 17335, Note_on_c, 0, 74, 87
1, 17358, Note_on_c, 0, 74, 0
1, 17359, Note_on_c, 0, 78, 87
1, 17382, Note_on_c, 0, 78, 0
1, 17383, Note_on_c, 0, 83, 88
1, 17406, Note_on_c, 0, 83, 0
1, 17407, Note_on_c, 0, 78, 88
1, 17430, Note_on_c, 0, 78, 0
1, 17431, Note_on_c, 0, 74, 88
1, 17454, Note_on_c, 0, 74, 0
1, 17455, Note_on_c, 0, 78, 88
1, 17478, Note_on_c, 0, 78, 0
1, 17479, Note_on_c, 0, 66, 88
1, 17502, Note_on_c, 0, 66, 0
1, 17503, Note_on_c, 0, 71, 88
1, 17526, Note_on_c, 0, 71, 0
1, 17527, Note_on_c, 0, 74, 88
1, 17550, Note_on_c, 0, 74, 0
1, 17551, Note_on_c, 0, 78, 89
1, 17574, Note_on_c, 0, 78, 0
1, 17575, Note_on_c, 0, 83, 89
1, 17598, Note_on_c, 0, 83, 0
1, 17599, Note_on_c, 0, 78, 89
1, 17622, Note_on_c, 0, 78, 0
1, 17623, Note_on_c, 0, 74, 89
1, 17646, Note_on_c, 0, 74, 0
1, 17647, Note_on_c, 0, 78, 89
1, 17670, Note_on_c, 0, 78, 0
1, 17671, Note_on_c, 0, 66, 89
1, 17694, Note_on_c, 0, 66, 0
1, 17695, Note_on_c, 0, 70, 89
1, 17718, Note_on_c, 0, 70, 0
1, 17719, Note_on_c, 0, 73, 90
1, 17742, Note_on_c, 0, 73, 0
1, 17743, Note_on_c, 0, 78, 90
1, 17766, Note_on_c, 0, 78, 0
1, 17767, Note_on_c, 0, 82, 90
1, 17790, Note_on_c, 0, 82, 0
1, 17791, Note_on_c, 0, 78, 90
1, 17814, Note_on_c, 0, 78, 0
1, 17815, Note_on_c, 0, 73, 90
1, 17838, Note_on_c, 0, 73, 0
1, 17839, Note_on_c, 0, 78, 90
1, 17856, Note_on_c, 1, 54, 85
1, 17856, Note_on_c, 1, 42, 85
1, 17862, Note_on_c, 0, 78, 0
1, 17945, Note_on_c, 1, 54, 0
1, 17945, Note_on_c, 1, 42, 0
1, 18055, Note_on_c, 0, 67, 63
1, 18067, Note_on_c, 0, 67, 0
1, 18067, Note_on_c, 0, 66, 63
1, 18079, Note_on_c, 0, 66, 0
1, 18079, Note_on_c, 0, 64, 63
1, 18091, Note_on_c, 0, 64, 0
1, 18091, Note_on_c, 0, 66, 63
1, 18096, Note_on_c, 1, 62, 54
1, 18096, Note_on_c, 1, 59, 54
1, 18116, Note_on_c, 1, 62, 0
1, 18116, Note_on_c, 1, 59, 0
1, 18144, Note_on_c, 1, 62, 54
1, 18144, Note_on_c, 1, 59, 54
1, 18188, Note_on_c, 0, 66, 0
1, 18191, Note_on_c, 1, 62, 0
1, 18191, Note_on_c, 1, 59, 0
1, 18199, Note_on_c, 0, 74, 63
1, 18222, Note_on_c, 0, 74, 0
1, 18223, Note_on_c, 0, 71, 63
1, 18246, Note_on_c, 0, 71, 0
1, 18247, Note_on_c, 0, 66, 63
1, 18288, Note_on_c, 1, 62, 54
1, 18288, Note_on_c, 1, 59, 54
1, 18308, Note_on_c, 1, 62, 0
1, 18308, Note_on_c, 1, 59, 0
1, 18336, Note_on_c, 1, 62, 54
1, 18336, Note_on_c, 1, 59, 54
1, 18380, Note_on_c, 0, 66, 0
1, 18383, Note_on_c, 1, 62, 0
1, 18383, Note_on_c, 1, 59, 0
1, 18391, Note_on_c, 0, 71, 63
1, 18414, Note_on_c, 0, 71, 0
1, 18415, Note_on_c, 0, 66, 63
1, 18438, Note_on_c, 0, 66, 0
1, 18439, Note_on_c, 0, 69, 63
1, 18462, Note_on_c, 0, 69, 0
1, 18463, Note_on_c, 0, 67, 63
1, 18475, Note_on_c, 0, 67, 0
1, 18475, Note_on_c, 0, 69, 63
1, 18480, Note_on_c, 1, 64, 55
1, 18480, Note_on_c, 1, 59, 55
1, 18487, Note_on_c, 0, 69, 0
1, 18487, Note_on_c, 0, 67, 63
1, 18499, Note_on_c, 0, 67, 0
1, 18499, Note_on_c, 0, 69, 64
1, 18500, Note_on_c, 1, 64, 0
1, 18500, Note_on_c, 1, 59, 0
1, 18511, Note_on_c, 0, 69, 0
1, 18511, Note_on_c, 0, 67, 64
1, 18523, Note_on_c, 0, 67, 0
1, 18523, Note_on_c, 0, 69, 64
1, 18528, Note_on_c, 1, 64, 56
1, 18528, Note_on_c, 1, 59, 56
1, 18535, Note_on_c, 0, 69, 0
1, 18535, Note_on_c, 0, 67, 64
1, 18547, Note_on_c, 0, 67, 0
1, 18547, Note_on_c, 0, 69, 65
1, 18559, Note_on_c, 0, 69, 0
1, 18559, Note_on_c, 0, 67, 65
1, 18571, Note_on_c, 0, 67, 0
1, 18571, Note_on_c, 0, 69, 65
1, 18575, Note_on_c, 1, 64, 0
1, 18575, Note_on_c, 1, 59, 0
1, 18583, Note_on_c, 0, 69, 0
1, 18583, Note_on_c, 0, 76, 65
1, 18606, Note_on_c, 0, 76, 0
1, 18607, Note_on_c, 0, 73, 66
1, 18630, Note_on_c, 0, 73, 0
1, 18631, Note_on_c, 0, 70, 66
1, 18672, Note_on_c, 1, 64, 60
1, 18672, Note_on_c, 1, 61, 60
1, 18672, Note_on_c, 1, 59, 60
1, 18692, Note_on_c, 1, 64, 0
1, 18692, Note_on_c, 1, 61, 0
1, 18692, Note_on_c, 1, 59, 0
1, 18720, Note_on_c, 1, 64, 61
1, 18720, Note_on_c, 1, 61, 61
1, 18720, Note_on_c, 1, 59, 61
1, 18764, Note_on_c, 0, 70, 0
1, 18767, Note_on_c, 1, 64, 0
1, 18767, Note_on_c, 1, 61, 0
1, 18767, Note_on_c, 1, 59, 0
1, 18775, Note_on_c, 0, 73, 69
1, 18798, Note_on_c, 0, 73, 0
1, 18799, Note_on_c, 0, 70, 69
1, 18822, Note_on_c, 0, 70, 0
1, 18823, Note_on_c, 0, 73, 70
1, 18835, Note_on_c, 0, 73, 0
1, 18835, Note_on_c, 0, 71, 70
1, 18847, Note_on_c, 0, 71, 0
1, 18847, Note_on_c, 0, 70, 70
1, 18859, Note_on_c, 0, 70, 0
1, 18859, Note_on_c, 0, 71, 70
1, 18864, Note_on_c, 1, 66, 65
1, 18864, Note_on_c, 1, 63, 65
1, 18864, Note_on_c, 1, 57, 65
1, 18884, Note_on_c, 1, 66, 0
1, 18884, Note_on_c, 1, 63, 0
1, 18884, Note_on_c, 1, 57, 0
1, 18912, Note_on_c, 1, 66, 66
1, 18912, Note_on_c, 1, 63, 66
1, 18912, Note_on_c, 1, 57, 66
1, 18956, Note_on_c, 0, 71, 0
1, 18959, Note_on_c, 1, 66, 0
1, 18959, Note_on_c, 1, 63, 0
1, 18959, Note_on_c, 1, 57, 0
1, 18967, Note_on_c, 0, 83, 72
1, 18990, Note_on_c, 0, 83, 0
1, 18991, Note_on_c, 0, 78, 73
1, 19014, Note_on_c, 0, 78, 0
1, 19015, Note_on_c, 0, 75, 73
1, 19056, Note_on_c, 1, 59, 70
1, 19056, Note_on_c, 1, 57, 70
1, 19076, Note_on_c, 1, 59, 0
1, 19076, Note_on_c, 1, 57, 0
1, 19104, Note_on_c, 1, 59, 71
1, 19104, Note_on_c, 1, 57, 71
1, 19148, Note_on_c, 0, 75, 0
1, 19151, Note_on_c, 1, 59, 0
1, 19151, Note_on_c, 1, 57, 0
1, 19159, Note_on_c, 0, 78, 76
1, 19182, Note_on_c, 0, 78, 0
1, 19183, Note_on_c, 0, 75, 76
1, 19206, Note_on_c, 0, 75, 0
1, 19207, Note_on_c, 0, 78, 77
1, 19219, Note_on_c, 0, 78, 0
1, 19219, Note_on_c, 0, 76, 77
1, 19231, Note_on_c, 0, 76, 0
1, 19231, Note_on_c, 0, 75, 77
1, 19243, Note_on_c, 0, 75, 0
1, 19243, Note_on_c, 0, 76, 77
1, 19248, Note_on_c, 1, 59, 75
1, 19248, Note_on_c, 1, 55, 75
1, 19268, Note_on_c, 1, 59, 0
1, 19268, Note_on_c, 1, 55, 0
1, 19296, Note_on_c, 1, 59, 76
1, 19296, Note_on_c, 1, 55, 76
1, 19340, Note_on_c, 0, 76, 0
1, 19343, Note_on_c, 1, 59, 0
1, 19343, Note_on_c, 1, 55, 0
1, 19351, Note_on_c, 0, 83, 80
1, 19374, Note_on_c, 0, 83, 0
1, 19375, Note_on_c, 0, 74, 80
1, 19398, Note_on_c, 0, 74, 0
1, 19399, Note_on_c, 0, 73, 80
1, 19440, Note_on_c, 1, 57, 80
1, 19440, Note_on_c, 1, 55, 80
1, 19460, Note_on_c, 1, 57, 0
1, 19460, Note_on_c, 1, 55, 0
1, 19488, Note_on_c, 1, 57, 81
1, 19488, Note_on_c, 1, 55, 81
1, 19532, Note_on_c, 0, 73, 0
1, 19535, Note_on_c, 1, 57, 0
1, 19535, Note_on_c, 1, 55, 0
1, 19543, Note_on_c, 0, 76, 83
1, 19566, Note_on_c, 0, 76, 0
1, 19567, Note_on_c, 0, 73, 84
1, 19584, Note_on_c, 1, 54, 83
1, 19590, Note_on_c, 0, 73, 0
1, 19591, Note_on_c, 0, 74, 84
1, 19614, Note_on_c, 0, 74, 0
1, 19615, Note_on_c, 0, 69, 85
1, 19629, Note_on_c, 1, 54, 0
1, 19632, Note_on_c, 1, 66, 85
1, 19638, Note_on_c, 0, 69, 0
1, 19639, Note_on_c, 0, 81, 85
1, 19662, Note_on_c, 0, 81, 0
1, 19663, Note_on_c, 0, 69, 85
1, 19677, Note_on_c, 1, 66, 0
1, 19680, Note_on_c, 1, 64, 85
1, 19686, Note_on_c, 0, 69, 0
1, 19687, Note_on_c, 0, 79, 85
1, 19710, Note_on_c, 0, 79, 0
1, 19711, Note_on_c, 0, 69, 85
1, 19725, Note_on_c, 1, 64, 0
1, 19728, Note_on_c, 1, 62, 85
1, 19734, Note_on_c, 0, 69, 0
1, 19735, Note_on_c, 0, 78, 85
1, 19758, Note_on_c, 0, 78, 0
1, 19759, Note_on_c, 0, 69, 85
1, 19773, Note_on_c, 1, 62, 0
1, 19776, Note_on_c, 1, 61, 85
1, 19782, Note_on_c, 0, 69, 0
1, 19783, Note_on_c, 0, 76, 85
1, 19806, Note_on_c, 0, 76, 0
1, 19807, Note_on_c, 0, 69, 85
1, 19821, Note_on_c, 1, 61, 0
1, 19824, Note_on_c, 1, 62, 85
1, 19830, Note_on_c, 0, 69, 0
1, 19831, Note_on_c, 0, 78, 85
1, 19854, Note_on_c, 0, 78, 0
1, 19855, Note_on_c, 0, 69, 85
1, 19869, Note_on_c, 1, 62, 0
1, 19872, Note_on_c, 1, 61, 85
1, 19878, Note_on_c, 0, 69, 0
1, 19879, Note_on_c, 0, 76, 85
1, 19902, Note_on_c, 0, 76, 0
1, 19903, Note_on_c, 0, 69, 85
1, 19917, Note_on_c, 1, 61, 0
1, 19920, Note_on_c, 1, 59, 85
1, 19926, Note_on_c, 0, 69, 0
1, 19927, Note_on_c, 0, 74, 85
1, 19950, Note_on_c, 0, 74, 0
1, 19951, Note_on_c, 0, 69, 85
1, 19965, Note_on_c, 1, 59, 0
1, 19968, Note_on_c, 1, 57, 85
1, 19974, Note_on_c, 0, 69, 0
1, 19975, Note_on_c, 0, 73, 85
1, 19998, Note_on_c, 0, 73, 0
1, 19999, Note_on_c, 0, 69, 85
1, 20013, Note_on_c, 1, 57, 0
1, 20016, Note_on_c, 1, 62, 85
1, 20022, Note_on_c, 0, 69, 0
1, 20023, Note_on_c, 0, 78, 85
1, 20046, Note_on_c, 0, 78, 0
1, 20047, Note_on_c, 0, 69, 84
1, 20061, Note_on_c, 1, 62, 0
1, 20064, Note_on_c, 1, 61, 83
1, 20070, Note_on_c, 0, 69, 0
1, 20071, Note_on_c, 0, 76, 83
1, 20094, Note_on_c, 0, 76, 0
1, 20095, Note_on_c, 0, 69, 82
1, 20109, Note_on_c, 1, 61, 0
1, 20112, Note_on_c, 1, 59, 81
1, 20118, Note_on_c, 0, 69, 0
1, 20119, Note_on_c, 0, 74, 81
1, 20142, Note_on_c, 0, 74, 0
1, 20143, Note_on_c, 0, 69, 80
1, 20157, Note_on_c, 1, 59, 0
1, 20160, Note_on_c, 1, 57, 79
1, 20166, Note_on_c, 0, 69, 0
1, 20167, Note_on_c, 0, 73, 79
1, 20190, Note_on_c, 0, 73, 0
1, 20191, Note_on_c, 0, 69, 79
1, 20205, Note_on_c, 1, 57, 0
1, 20208, Note_on_c, 1, 62, 78
1, 20214, Note_on_c, 0, 69, 0
1, 20215, Note_on_c, 0, 78, 78
1, 20238, Note_on_c, 0, 78, 0
1, 20239, Note_on_c, 0, 69, 77
1, 20253, Note_on_c, 1, 62, 0
1, 20256, Note_on_c, 1, 61, 76
1, 20262, Note_on_c, 0, 69, 0
1, 20263, Note_on_c, 0, 76, 76
1, 20286, Note_on_c, 0, 76, 0
1, 20287, Note_on_c, 0, 69, 75
1, 20301, Note_on_c, 1, 61, 0
1, 20304, Note_on_c, 1, 59, 74
1, 20310, Note_on_c, 0, 69, 0
1, 20311, Note_on_c, 0, 74, 74
1, 20334, Note_on_c, 0, 74, 0
1, 20335, Note_on_c, 0, 69, 74
1, 20349, Note_on_c, 1, 59, 0
1, 20352, Note_on_c, 1, 57, 73
1, 20358, Note_on_c, 0, 69, 0
1, 20359, Note_on_c, 0, 73, 73
1, 20382, Note_on_c, 0, 73, 0
1, 20383, Note_on_c, 0, 69, 72
1, 20397, Note_on_c, 1, 57, 0
1, 20400, Note_on_c, 1, 62, 71
1, 20406, Note_on_c, 0, 69, 0
1, 20407, Note_on_c, 0, 78, 71
1, 20430, Note_on_c, 0, 78, 0
1, 20431, Note_on_c, 0, 69, 70
1, 20445, Note_on_c, 1, 62, 0
1, 20448, Note_on_c, 1, 61, 69
1, 20454, Note_on_c, 0, 69, 0
1, 20455, Note_on_c, 0, 76, 69
1, 20478, Note_on_c, 0, 76, 0
1, 20479, Note_on_c, 0, 69, 68
1, 20493, Note_on_c, 1, 61, 0
1, 20496, Note_on_c, 1, 59, 68
1, 20502, Note_on_c, 0, 69, 0
1, 20503, Note_on_c, 0, 80, 68
1, 20526, Note_on_c, 0, 80, 0
1, 20527, Note_on_c, 0, 69, 67
1, 20541, Note_on_c, 1, 59, 0
1, 20544, Note_on_c, 1, 57, 66
1, 20550, Note_on_c, 0, 69, 0
1, 20551, Note_on_c, 0, 81, 66
1, 20638, Note_on_c, 1, 57, 0
1, 20645, Note_on_c, 0, 81, 0
1, 20743, Note_on_c, 0, 83, 78
1, 20755, Note_on_c, 0, 83, 0
1, 20755, Note_on_c, 0, 81, 78
1, 20767, Note_on_c, 0, 81, 0
1, 20767, Note_on_c, 0, 80, 78
1, 20779, Note_on_c, 0, 80, 0
1, 20779, Note_on_c, 0, 81, 78
1, 20784, Note_on_c, 1, 66, 63
1, 20784, Note_on_c, 1, 62, 63
1, 20804, Note_on_c, 1, 66, 0
1, 20804, Note_on_c, 1, 62, 0
1, 20832, Note_on_c, 1, 66, 63
1, 20832, Note_on_c, 1, 62, 63
1, 20876, Note_on_c, 0, 81, 0
1, 20879, Note_on_c, 1, 66, 0
1, 20879, Note_on_c, 1, 62, 0
1, 20887, Note_on_c, 0, 86, 78
1, 20910, Note_on_c, 0, 86, 0
1, 20911, Note_on_c, 0, 81, 78
1, 20934, Note_on_c, 0, 81, 0
1, 20935, Note_on_c, 0, 78, 78
1, 20976, Note_on_c, 1, 69, 63
1, 20976, Note_on_c, 1, 62, 63
1, 20996, Note_on_c, 1, 69, 0
1, 20996, Note_on_c, 1, 62, 0
1, 21024, Note_on_c, 1, 69, 63
1, 21024, Note_on_c, 1, 62, 63
1, 21068, Note_on_c, 0, 78, 0
1, 21071, Note_on_c, 1, 69, 0
1, 21071, Note_on_c, 1, 62, 0
1, 21079, Note_on_c, 0, 81, 78
1, 21102, Note_on_c, 0, 81, 0
1, 21103, Note_on_c, 0, 78, 78
1, 21126, Note_on_c, 0, 78, 0
1, 21127, Note_on_c, 0, 83, 78
1, 21168, Note_on_c, 1, 67, 63
1, 21168, Note_on_c, 1, 62, 63
1, 21188, Note_on_c, 1, 67, 0
1, 21188, Note_on_c, 1, 62, 0
1, 21216, Note_on_c, 1, 67, 63
1, 21216, Note_on_c, 1, 62, 63
1, 21260, Note_on_c, 0, 83, 0
1, 21263, Note_on_c, 1, 67, 0
1, 21263, Note_on_c, 1, 62, 0
1, 21271, Note_on_c, 0, 79, 78
1, 21294, Note_on_c, 0, 79, 0
1, 21295, Note_on_c, 0, 76, 78
1, 21318, Note_on_c, 0, 76, 0
1, 21319, Note_on_c, 0, 74, 63
1, 21360, Note_on_c, 1, 67, 63
1, 21360, Note_on_c, 1, 64, 63
1, 21360, Note_on_c, 1, 62, 63
1, 21362, Note_on_c, 0, 74, 0
1, 21365, Note_on_c, 0, 73, 67
1, 21377, Note_on_c, 0, 73, 0
1, 21377, Note_on_c, 0, 74, 68
1, 21389, Note_on_c, 0, 74, 0
1, 21389, Note_on_c, 0, 73, 69
1, 21401, Note_on_c, 0, 73, 0
1, 21401, Note_on_c, 0, 74, 69
1, 21407, Note_on_c, 1, 67, 0
1, 21407, Note_on_c, 1, 64, 0
1, 21407, Note_on_c, 1, 62, 0
1, 21408, Note_on_c, 1, 67, 68
1, 21408, Note_on_c, 1, 64, 68
1, 21408, Note_on_c, 1, 62, 68
1, 21413, Note_on_c, 0, 74, 0
1, 21413, Note_on_c, 0, 73, 70
1, 21424, Note_on_c, 0, 73, 0
1, 21424, Note_on_c, 0, 74, 71
1, 21435, Note_on_c, 0, 74, 0
1, 21435, Note_on_c, 0, 73, 71
1, 21446, Note_on_c, 0, 73, 0
1, 21446, Note_on_c, 0, 74, 72
1, 21455, Note_on_c, 1, 67, 0
1, 21455, Note_on_c, 1, 64, 0
1, 21455, Note_on_c, 1, 62, 0
1, 21456, Note_on_c, 1, 67, 73
1, 21456, Note_on_c, 1, 64, 73
1, 21456, Note_on_c, 1, 62, 73
1, 21457, Note_on_c, 0, 74, 0
1, 21457, Note_on_c, 0, 73, 73
1, 21468, Note_on_c, 0, 73, 0
1, 21468, Note_on_c, 0, 74, 74
1, 21479, Note_on_c, 0, 74, 0
1, 21479, Note_on_c, 0, 73, 74
1, 21490, Note_on_c, 0, 73, 0
1, 21490, Note_on_c, 0, 71, 75
1, 21501, Note_on_c, 0, 71, 0
1, 21501, Note_on_c, 0, 73, 76
1, 21503, Note_on_c, 1, 67, 0
1, 21503, Note_on_c, 1, 64, 0
1, 21503, Note_on_c, 1, 62, 0
1, 21504, Note_on_c, 1, 66, 78
1, 21504, Note_on_c, 1, 62, 78
1, 21512, Note_on_c, 0, 73, 0
1, 21512, Note_on_c, 0, 74, 85
1, 21557, Note_on_c, 0, 74, 0
1, 21560, Note_on_c, 0, 69, 85
1, 21583, Note_on_c, 0, 69, 0
1, 21584, Note_on_c, 0, 78, 85
1, 21593, Note_on_c, 1, 66, 0
1, 21593, Note_on_c, 1, 62, 0
1, 21607, Note_on_c, 0, 78, 0
1, 21608, Note_on_c, 0, 76, 85
1, 21631, Note_on_c, 0, 76, 0
1, 21632, Note_on_c, 0, 74, 85
1, 21655, Note_on_c, 0, 74, 0
1, 21656, Note_on_c, 0, 73, 85
1, 21679, Note_on_c, 0, 73, 0
1, 21680, Note_on_c, 0, 71, 85
1, 21696, Note_on_c, 1, 64, 78
1, 21696, Note_on_c, 1, 61, 78
1, 21703, Note_on_c, 0, 71, 0
1, 21704, Note_on_c, 0, 69, 85
1, 21749, Note_on_c, 0, 69, 0
1, 21752, Note_on_c, 0, 79, 85
1, 21775, Note_on_c, 0, 79, 0
1, 21776, Note_on_c, 0, 83, 85
1, 21785, Note_on_c, 1, 64, 0
1, 21785, Note_on_c, 1, 61, 0
1, 21799, Note_on_c, 0, 83, 0
1, 21800, Note_on_c, 0, 81, 85
1, 21823, Note_on_c, 0, 81, 0
1, 21824, Note_on_c, 0, 79, 85
1, 21847, Note_on_c, 0, 79, 0
1, 21848, Note_on_c, 0, 78, 85
1, 21871, Note_on_c, 0, 78, 0
1, 21872, Note_on_c, 0, 76, 85
1, 21888, Note_on_c, 1, 66, 70
1, 21888, Note_on_c, 1, 62, 70
1, 21895, Note_on_c, 0, 76, 0
1, 21896, Note_on_c, 0, 78, 85
1, 21941, Note_on_c, 0, 78, 0
1, 21944, Note_on_c, 0, 69, 85
1, 21967, Note_on_c, 0, 69, 0
1, 21968, Note_on_c, 0, 78, 85
1, 21977, Note_on_c, 1, 66, 0
1, 21977, Note_on_c, 1, 62, 0
1, 21991, Note_on_c, 0, 78, 0
1, 21992, Note_on_c, 0, 76, 85
1, 22015, Note_on_c, 0, 76, 0
1, 22016, Note_on_c, 0, 74, 85
1, 22039, Note_on_c, 0, 74, 0
1, 22040, Note_on_c, 0, 73, 85
1, 22063, Note_on_c, 0, 73, 0
1, 22064, Note_on_c, 0, 71, 85
1, 22080, Note_on_c, 1, 64, 70
1, 22080, Note_on_c, 1, 61, 70
1, 22087, Note_on_c, 0, 71, 0
1, 22088, Note_on_c, 0, 69, 85
1, 22133, Note_on_c, 0, 69, 0
1, 22136, Note_on_c, 0, 79, 85
1, 22159, Note_on_c, 0, 79, 0
1, 22160, Note_on_c, 0, 83, 85
1, 22169, Note_on_c, 1, 64, 0
1, 22169, Note_on_c, 1, 61, 0
1, 22183, Note_on_c, 0, 83, 0
1, 22184, Note_on_c, 0, 81, 70
1, 22207, Note_on_c, 0, 81, 0
1, 22208, Note_on_c, 0, 79, 71
1, 22231, Note_on_c, 0, 79, 0
1, 22232, Note_on_c, 0, 78, 72
1, 22255, Note_on_c, 0, 78, 0
1, 22256, Note_on_c, 0, 76, 74
1, 22272, Note_on_c, 1, 62, 78
1, 22279, Note_on_c, 0, 76, 0
1, 22280, Note_on_c, 0, 78, 75
1, 22317, Note_on_c, 1, 62, 0
1, 22320, Note_on_c, 1, 57, 78
1, 22325, Note_on_c, 0, 78, 0
1, 22365, Note_on_c, 1, 57, 0
1, 22368, Note_on_c, 1, 64, 78
1, 22376, Note_on_c, 0, 81, 78
1, 22388, Note_on_c, 0, 81, 0
1, 22388, Note_on_c, 0, 79, 78
1, 22400, Note_on_c, 0, 79, 0
1, 22400, Note_on_c, 0, 78, 78
1, 22412, Note_on_c, 0, 78, 0
1, 22412, Note_on_c, 0, 79, 78
1, 22413, Note_on_c, 1, 64, 0
1, 22416, Note_on_c, 1, 57, 78
1, 22424, Note_on_c, 0, 79, 0
1, 22461, Note_on_c, 1, 57, 0
1, 22464, Note_on_c, 1, 66, 78
1, 22472, Note_on_c, 0, 83, 78
1, 22484, Note_on_c, 0, 83, 0
1, 22484, Note_on_c, 0, 81, 78
1, 22496, Note_on_c, 0, 81, 0
1, 22496, Note_on_c, 0, 79, 78
1, 22508, Note_on_c, 0, 79, 0
1, 22508, Note_on_c, 0, 81, 78
1, 22509, Note_on_c, 1, 66, 0
1, 22512, Note_on_c, 1, 57, 78
1, 22520, Note_on_c, 0, 81, 0
1, 22557, Note_on_c, 1, 57, 0
1, 22560, Note_on_c, 1, 64, 78
1, 22568, Note_on_c, 0, 81, 78
1, 22591, Note_on_c, 0, 81, 0
1, 22592, Note_on_c, 0, 79, 78
1, 22605, Note_on_c, 1, 64, 0
1, 22608, Note_on_c, 1, 57, 78
1, 22615, Note_on_c, 0, 79, 0
1, 22616, Note_on_c, 0, 78, 78
1, 22639, Note_on_c, 0, 78, 0
1, 22640, Note_on_c, 0, 76, 78
1, 22653, Note_on_c, 1, 57, 0
1, 22656, Note_on_c, 1, 62, 78
1, 22663, Note_on_c, 0, 76, 0
1, 22664, Note_on_c, 0, 78, 78
1, 22701, Note_on_c, 1, 62, 0
1, 22704, Note_on_c, 1, 57, 78
1, 22749, Note_on_c, 1, 57, 0
1, 22752, Note_on_c, 1, 64, 78
1, 22753, Note_on_c, 0, 78, 0
1, 22760, Note_on_c, 0, 79, 78
1, 22772, Note_on_c, 0, 79, 0
1, 22772, Note_on_c, 0, 81, 78
1, 22784, Note_on_c, 0, 81, 0
1, 22784, Note_on_c, 0, 79, 78
1, 22796, Note_on_c, 0, 79, 0
1, 22796, Note_on_c, 0, 81, 78
1, 22797, Note_on_c, 1, 64, 0
1, 22800, Note_on_c, 1, 57, 78
1, 22808, Note_on_c, 0, 81, 0
1, 22808, Note_on_c, 0, 79, 78
1, 22820, Note_on_c, 0, 79, 0
1, 22820, Note_on_c, 0, 81, 78
1, 22827, Note_on_c, 0, 81, 0
1, 22832, Note_on_c, 0, 78, 78
1, 22844, Note_on_c, 0, 78, 0
1, 22844, Note_on_c, 0, 79, 78
1, 22845, Note_on_c, 1, 57, 0
1, 22848, Note_on_c, 1, 66, 78
1, 22856, Note_on_c, 0, 79, 0
1, 22856, Note_on_c, 0, 81, 78
1, 22893, Note_on_c, 1, 66, 0
1, 22896, Note_on_c, 1, 57, 78
1, 22941, Note_on_c, 1, 57, 0
1, 22944, Note_on_c, 1, 64, 78
1, 22945, Note_on_c, 0, 81, 0
1, 22952, Note_on_c, 0, 81, 78
1, 22975, Note_on_c, 0, 81, 0
1, 22976, Note_on_c, 0, 79, 78
1, 22989, Note_on_c, 1, 64, 0
1, 22992, Note_on_c, 1, 57, 78
1, 22999, Note_on_c, 0, 79, 0
1, 23000, Note_on_c, 0, 78, 78
1, 23023, Note_on_c, 0, 78, 0
1, 23024, Note_on_c, 0, 76, 78
1, 23037, Note_on_c, 1, 57, 0
1, 23040, Note_on_c, 1, 62, 78
1, 23047, Note_on_c, 0, 76, 0
1, 23048, Note_on_c, 0, 78, 78
1, 23071, Note_on_c, 0, 78, 0
1, 23072, Note_on_c, 0, 74, 78
1, 23085, Note_on_c, 1, 62, 0
1, 23088, Note_on_c, 1, 64, 78
1, 23095, Note_on_c, 0, 74, 0
1, 23096, Note_on_c, 0, 79, 78
1, 23119, Note_on_c, 0, 79, 0
1, 23120, Note_on_c, 0, 74, 79
1, 23133, Note_on_c, 1, 64, 0
1, 23136, Note_on_c, 1, 66, 79
1, 23143, Note_on_c, 0, 74, 0
1, 23144, Note_on_c, 0, 81, 79
1, 23167, Note_on_c, 0, 81, 0
1, 23168, Note_on_c, 0, 74, 80
1, 23181, Note_on_c, 1, 66, 0
1, 23184, Note_on_c, 1, 67, 80
1, 23191, Note_on_c, 0, 74, 0
1, 23192, Note_on_c, 0, 83, 81
1, 23215, Note_on_c, 0, 83, 0
1, 23216, Note_on_c, 0, 74, 81
1, 23229, Note_on_c, 1, 67, 0
1, 23232, Note_on_c, 1, 69, 82
1, 23239, Note_on_c, 0, 74, 0
1, 23240, Note_on_c, 0, 73, 82
1, 23250, Note_on_c, 0, 73, 0
1, 23250, Note_on_c, 0, 74, 82
1, 23260, Note_on_c, 0, 74, 0
1, 23260, Note_on_c, 0, 73, 82
1, 23270, Note_on_c, 0, 73, 0
1, 23270, Note_on_c, 0, 71, 82
1, 23277, Note_on_c, 1, 69, 0
1, 23279, Note_on_c, 0, 71, 0
1, 23279, Note_on_c, 0, 73, 83
1, 23280, Note_on_c, 1, 62, 83
1, 23288, Note_on_c, 0, 73, 0
1, 23288, Note_on_c, 0, 74, 83
1, 23325, Note_on_c, 1, 62, 0
1, 23333, Note_on_c, 0, 74, 0
1, 23424, Note_on_c, 1, 50, 85
1, 23447, Note_on_c, 1, 50, 0
1, 23448, Note_on_c, 1, 54, 85
1, 23471, Note_on_c, 1, 54, 0
1, 23480, Note_on_c, 0, 57, 85
1, 23503, Note_on_c, 0, 57, 0
1, 23504, Note_on_c, 0, 62, 85
1, 23527, Note_on_c, 0, 62, 0
1, 23528, Note_on_c, 0, 66, 85
1, 23551, Note_on_c, 0, 66, 0
1, 23552, Note_on_c, 0, 62, 85
1, 23575, Note_on_c, 0, 62, 0
1, 23576, Note_on_c, 0, 57, 85
1, 23599, Note_on_c, 0, 57, 0
1, 23600, Note_on_c, 0, 62, 85
1, 23616, Note_on_c, 1, 50, 85
1, 23616, Note_on_c, 1, 38, 85
1, 23623, Note_on_c, 0, 62, 0
1, 23661, Note_on_c, 1, 50, 0
1, 23661, Note_on_c, 1, 38, 0
1, 23672, Note_on_c, 0, 66, 85
1, 23695, Note_on_c, 0, 66, 0
1, 23696, Note_on_c, 0, 69, 85
1, 23719, Note_on_c, 0, 69, 0
1, 23720, Note_on_c, 0, 67, 85
1, 23743, Note_on_c, 0, 67, 0
1, 23744, Note_on_c, 0, 66, 85
1, 23767, Note_on_c, 0, 66, 0
1, 23768, Note_on_c, 0, 64, 85
1, 23791, Note_on_c, 0, 64, 0
1, 23792, Note_on_c, 0, 62, 85
1, 23808, Note_on_c, 1, 61, 85
1, 23815, Note_on_c, 0, 62, 0
1, 23831, Note_on_c, 1, 61, 0
1, 23832, Note_on_c, 1, 64, 85
1, 23855, Note_on_c, 1, 64, 0
1, 23864, Note_on_c, 0, 69, 85
1, 23887, Note_on_c, 0, 69, 0
1, 23888, Note_on_c, 0, 73, 85
1, 23911, Note_on_c, 0, 73, 0
1, 23912, Note_on_c, 0, 76, 85
1, 23935, Note_on_c, 0, 76, 0
1, 23936, Note_on_c, 0, 73, 85
1, 23959, Note_on_c, 0, 73, 0
1, 23960, Note_on_c, 0, 69, 85
1, 23983, Note_on_c, 0, 69, 0
1, 23984, Note_on_c, 0, 73, 85
1, 24000, Note_on_c, 1, 45, 85
1, 24000, Note_on_c, 1, 33, 85
1, 24007, Note_on_c, 0, 73, 0
1, 24045, Note_on_c, 1, 45, 0
1, 24045, Note_on_c, 1, 33, 0
1, 24056, Note_on_c, 0, 67, 85
1, 24079, Note_on_c, 0, 67, 0
1, 24080, Note_on_c, 0, 71, 85
1, 24103, Note_on_c, 0, 71, 0
1, 24104, Note_on_c, 0, 69, 85
1, 24127, Note_on_c, 0, 69, 0
1, 24128, Note_on_c, 0, 67, 85
1, 24151, Note_on_c, 0, 67, 0
1, 24152, Note_on_c, 0, 66, 85
1, 24175, Note_on_c, 0, 66, 0
1, 24176, Note_on_c, 0, 64, 85
1, 24199, Note_on_c, 0, 64, 0
1, 24200, Note_on_c, 0, 62, 85
1, 24223, Note_on_c, 0, 62, 0
1, 24224, Note_on_c, 0, 66, 85
1, 24247, Note_on_c, 0, 66, 0
1, 24248, Note_on_c, 0, 69, 85
1, 24271, Note_on_c, 0, 69, 0
1, 24272, Note_on_c, 0, 74, 85
1, 24295, Note_on_c, 0, 74, 0
1, 24296, Note_on_c, 0, 78, 85
1, 24319, Note_on_c, 0, 78, 0
1, 24320, Note_on_c, 0, 74, 85
1, 24343, Note_on_c, 0, 74, 0
1, 24344, Note_on_c, 0, 69, 85
1, 24367, Note_on_c, 0, 69, 0
1, 24368, Note_on_c, 0, 74, 85
1, 24391, Note_on_c, 0, 74, 0
1, 24392, Note_on_c, 0, 64, 86
1, 24415, Note_on_c, 0, 64, 0
1, 24416, Note_on_c, 0, 67, 86
1, 24439, Note_on_c, 0, 67, 0
1, 24440, Note_on_c, 0, 73, 86
1, 24463, Note_on_c, 0, 73, 0
1, 24464, Note_on_c, 0, 76, 86
1, 24487, Note_on_c, 0, 76, 0
1, 24488, Note_on_c, 0, 79, 86
1, 24511, Note_on_c, 0, 79, 0
1, 24512, Note_on_c, 0, 76, 86
1, 24535, Note_on_c, 0, 76, 0
1, 24536, Note_on_c, 0, 73, 86
1, 24559, Note_on_c, 0, 73, 0
1, 24560, Note_on_c, 0, 76, 86
1, 24583, Note_on_c, 0, 76, 0
1, 24584, Note_on_c, 0, 66, 87
1, 24607, Note_on_c, 0, 66, 0
1, 24608, Note_on_c, 0, 69, 87
1, 24631, Note_on_c, 0, 69, 0
1, 24632, Note_on_c, 0, 74, 87
1, 24655, Note_on_c, 0, 74, 0
1, 24656, Note_on_c, 0, 78, 87
1, 24679, Note_on_c, 0, 78, 0
1, 24680, Note_on_c, 0, 81, 87
1, 24703, Note_on_c, 0, 81, 0
1, 24704, Note_on_c, 0, 78, 87
1, 24727, Note_on_c, 0, 78, 0
1, 24728, Note_on_c, 0, 74, 87
1, 24751, Note_on_c, 0, 74, 0
1, 24752, Note_on_c, 0, 78, 87
1, 24775, Note_on_c, 0, 78, 0
1, 24776, Note_on_c, 0, 67, 88
1, 24799, Note_on_c, 0, 67, 0
1, 24800, Note_on_c, 0, 71, 88
1, 24823, Note_on_c, 0, 71, 0
1, 24824, Note_on_c, 0, 74, 88
1, 24847, Note_on_c, 0, 74, 0
1, 24848, Note_on_c, 0, 79, 88
1, 24871, Note_on_c, 0, 79, 0
1, 24872, Note_on_c, 0, 83, 88
1, 24895, Note_on_c, 0, 83, 0
1, 24896, Note_on_c, 0, 79, 88
1, 24919, Note_on_c, 0, 79, 0
1, 24920, Note_on_c, 0, 74, 88
1, 24943, Note_on_c, 0, 74, 0
1, 24944, Note_on_c, 0, 79, 88
1, 24967, Note_on_c, 0, 79, 0
1, 24968, Note_on_c, 0, 68, 89
1, 24991, Note_on_c, 0, 68, 0
1, 24992, Note_on_c, 0, 71, 89
1, 25015, Note_on_c, 0, 71, 0
1, 25016, Note_on_c, 0, 74, 89
1, 25039, Note_on_c, 0, 74, 0
1, 25040, Note_on_c, 0, 77, 89
1, 25063, Note_on_c, 0, 77, 0
1, 25064, Note_on_c, 0, 83, 89
1, 25087, Note_on_c, 0, 83, 0
1, 25088, Note_on_c, 0, 77, 89
1, 25111, Note_on_c, 0, 77, 0
1, 25112, Note_on_c, 0, 74, 89
1, 25135, Note_on_c, 0, 74, 0
1, 25136, Note_on_c, 0, 77, 89
1, 25159, Note_on_c, 0, 77, 0
1, 25160, Note_on_c, 0, 68, 90
1, 25183, Note_on_c, 0, 68, 0
1, 25184, Note_on_c, 0, 71, 90
1, 25207, Note_on_c, 0, 71, 0
1, 25208, Note_on_c, 0, 74, 90
1, 25231, Note_on_c, 0, 74, 0
1, 25232, Note_on_c, 0, 77, 90
1, 25255, Note_on_c, 0, 77, 0
1, 25256, Note_on_c, 0, 83, 90
1, 25279, Note_on_c, 0, 83, 0
1, 25280, Note_on_c, 0, 77, 90
1, 25303, Note_on_c, 0, 77, 0
1, 25304, Note_on_c, 0, 76, 90
1, 25327, Note_on_c, 0, 76, 0
1, 25328, Note_on_c, 0, 74, 90
1, 25344, Note_on_c, 1, 57, 85
1, 25351, Note_on_c, 0, 74, 0
1, 25352, Note_on_c, 0, 73, 91
1, 25375, Note_on_c, 0, 73, 0
1, 25376, Note_on_c, 0, 69, 91
1, 25389, Note_on_c, 1, 57, 0
1, 25392, Note_on_c, 1, 59, 85
1, 25399, Note_on_c, 0, 69, 0
1, 25400, Note_on_c, 0, 74, 91
1, 25423, Note_on_c, 0, 74, 0
1, 25424, Note_on_c, 0, 69, 91
1, 25437, Note_on_c, 1, 59, 0
1, 25440, Note_on_c, 1, 61, 85
1, 25447, Note_on_c, 0, 69, 0
1, 25448, Note_on_c, 0, 76, 91
1, 25471, Note_on_c, 0, 76, 0
1, 25472, Note_on_c, 0, 69, 91
1, 25485, Note_on_c, 1, 61, 0
1, 25488, Note_on_c, 1, 62, 85
1, 25495, Note_on_c, 0, 69, 0
1, 25496, Note_on_c, 0, 78, 91
1, 25519, Note_on_c, 0, 78, 0
1, 25520, Note_on_c, 0, 69, 91
1, 25533, Note_on_c, 1, 62, 0
1, 25536, Note_on_c, 1, 64, 85
1, 25543, Note_on_c, 0, 69, 0
1, 25544, Note_on_c, 0, 79, 91
1, 25567, Note_on_c, 0, 79, 0
1, 25568, Note_on_c, 0, 78, 91
1, 25591, Note_on_c, 0, 78, 0
1, 25592, Note_on_c, 0, 76, 91
1, 25615, Note_on_c, 0, 76, 0
1, 25616, Note_on_c, 0, 74, 91
1, 25625, Note_on_c, 1, 64, 0
1, 25639, Note_on_c, 0, 74, 0
1, 25640, Note_on_c, 0, 73, 91
1, 25663, Note_on_c, 0, 73, 0
1, 25664, Note_on_c, 0, 71, 91
1, 25687, Note_on_c, 0, 71, 0
1, 25688, Note_on_c, 0, 69, 91
1, 25711, Note_on_c, 0, 69, 0
1, 25712, Note_on_c, 0, 67, 91
1, 25728, Note_on_c, 1, 50, 85
1, 25735, Note_on_c, 0, 67, 0
1, 25736, Note_on_c, 0, 66, 91
1, 25759, Note_on_c, 0, 66, 0
1, 25760, Note_on_c, 0, 62, 91
1, 25773, Note_on_c, 1, 50, 0
1, 25776, Note_on_c, 1, 52, 85
1, 25783, Note_on_c, 0, 62, 0
1, 25784, Note_on_c, 0, 67, 91
1, 25807, Note_on_c, 0, 67, 0
1, 25808, Note_on_c, 0, 62, 91
1, 25821, Note_on_c, 1, 52, 0
1, 25824, Note_on_c, 1, 54, 85
1, 25831, Note_on_c, 0, 62, 0
1, 25832, Note_on_c, 0, 69, 91
1, 25855, Note_on_c, 0, 69, 0
1, 25856, Note_on_c, 0, 62, 91
1, 25869, Note_on_c, 1, 54, 0
1, 25872, Note_on_c, 1, 55, 85
1, 25879, Note_on_c, 0, 62, 0
1, 25880, Note_on_c, 0, 71, 91
1, 25903, Note_on_c, 0, 71, 0
1, 25904, Note_on_c, 0, 62, 91
1, 25917, Note_on_c, 1, 55, 0
1, 25920, Note_on_c, 1, 54, 85
1, 25927, Note_on_c, 0, 62, 0
1, 25928, Note_on_c, 0, 69, 91
1, 25951, Note_on_c, 0, 69, 0
1, 25952, Note_on_c, 0, 62, 90
1, 25965, Note_on_c, 1, 54, 0
1, 25968, Note_on_c, 1, 55, 83
1, 25975, Note_on_c, 0, 62, 0
1, 25976, Note_on_c, 0, 71, 89
1, 25999, Note_on_c, 0, 71, 0
1, 26000, Note_on_c, 0, 62, 88
1, 26013, Note_on_c, 1, 55, 0
1, 26016, Note_on_c, 1, 54, 81
1, 26023, Note_on_c, 0, 62, 0
1, 26024, Note_on_c, 0, 69, 88
1, 26047, Note_on_c, 0, 69, 0
1, 26048, Note_on_c, 0, 62, 87
1, 26061, Note_on_c, 1, 54, 0
1, 26064, Note_on_c, 1, 52, 79
1, 26071, Note_on_c, 0, 62, 0
1, 26072, Note_on_c, 0, 67, 86
1, 26095, Note_on_c, 0, 67, 0
1, 26096, Note_on_c, 0, 62, 85
1, 26109, Note_on_c, 1, 52, 0
1, 26112, Note_on_c, 1, 50, 78
1, 26119, Note_on_c, 0, 62, 0
1, 26120, Note_on_c, 0, 66, 85
1, 26143, Note_on_c, 0, 66, 0
1, 26144, Note_on_c, 0, 62, 85
1, 26157, Note_on_c, 1, 50, 0
1, 26160, Note_on_c, 1, 52, 78
1, 26167, Note_on_c, 0, 62, 0
1, 26168, Note_on_c, 0, 67, 85
1, 26191, Note_on_c, 0, 67, 0
1, 26192, Note_on_c, 0, 62, 85
1, 26205, Note_on_c, 1, 52, 0
1, 26208, Note_on_c, 1, 54, 78
1, 26215, Note_on_c, 0, 62, 0
1, 26216, Note_on_c, 0, 69, 85
1, 26239, Note_on_c, 0, 69, 0
1, 26240, Note_on_c, 0, 62, 85
1, 26253, Note_on_c, 1, 54, 0
1, 26256, Note_on_c, 1, 55, 78
1, 26263, Note_on_c, 0, 62, 0
1, 26264, Note_on_c, 0, 71, 85
1, 26287, Note_on_c, 0, 71, 0
1, 26288, Note_on_c, 0, 62, 85
1, 26301, Note_on_c, 1, 55, 0
1, 26304, Note_on_c, 1, 54, 78
1, 26311, Note_on_c, 0, 62, 0
1, 26312, Note_on_c, 0, 69, 85
1, 26335, Note_on_c, 0, 69, 0
1, 26336, Note_on_c, 0, 62, 85
1, 26349, Note_on_c, 1, 54, 0
1, 26352, Note_on_c, 1, 55, 78
1, 26359, Note_on_c, 0, 62, 0
1, 26360, Note_on_c, 0, 71, 85
1, 26383, Note_on_c, 0, 71, 0
1, 26384, Note_on_c, 0, 62, 85
1, 26397, Note_on_c, 1, 55, 0
1, 26400, Note_on_c, 1, 54, 78
1, 26407, Note_on_c, 0, 62, 0
1, 26408, Note_on_c, 0, 69, 85
1, 26445, Note_on_c, 1, 54, 0
1, 26453, Note_on_c, 0, 69, 0
1, 26456, Note_on_c, 0, 74, 101
1, 26476, Note_on_c, 0, 74, 0
1, 26504, Note_on_c, 0, 64, 78
1, 26544, Note_on_c, 1, 59, 70
1, 26544, Note_on_c, 1, 55, 70
1, 26564, Note_on_c, 1, 59, 0
1, 26564, Note_on_c, 1, 55, 0
1, 26592, Note_on_c, 1, 59, 70
1, 26592, Note_on_c, 1, 55, 70
1, 26637, Note_on_c, 0, 64, 0
1, 26639, Note_on_c, 1, 59, 0
1, 26639, Note_on_c, 1, 55, 0
1, 26648, Note_on_c, 0, 67, 78
1, 26660, Note_on_c, 0, 67, 0
1, 26660, Note_on_c, 0, 69, 78
1, 26672, Note_on_c, 0, 69, 0
1, 26672, Note_on_c, 0, 71, 78
1, 26695, Note_on_c, 0, 71, 0
1, 26696, Note_on_c, 0, 62, 78
1, 26736, Note_on_c, 1, 54, 78
1, 26781, Note_on_c, 1, 54, 0
1, 26784, Note_on_c, 1, 55, 78
1, 26829, Note_on_c, 0, 62, 0
1, 26829, Note_on_c, 1, 55, 0
1, 26832, Note_on_c, 1, 57, 78
1, 26840, Note_on_c, 0, 66, 78
1, 26852, Note_on_c, 0, 66, 0
1, 26852, Note_on_c, 0, 64, 78
1, 26864, Note_on_c, 0, 64, 0
1, 26864, Note_on_c, 0, 62, 78
1, 26876, Note_on_c, 0, 62, 0
1, 26876, Note_on_c, 0, 61, 78
1, 26877, Note_on_c, 1, 57, 0
1, 26880, Note_on_c, 1, 50, 78
1, 26888, Note_on_c, 0, 61, 0
1, 26888, Note_on_c, 0, 62, 78
1, 26933, Note_on_c, 0, 62, 0
1, 26936, Note_on_c, 0, 74, 78
1, 26951, Note_on_c, 0, 74, 0
1, 26952, Note_on_c, 0, 73, 78
1, 26967, Note_on_c, 0, 73, 0
1, 26968, Note_on_c, 0, 71, 78
1, 26969, Note_on_c, 1, 50, 0
1, 26983, Note_on_c, 0, 71, 0
1, 26984, Note_on_c, 0, 69, 78
1, 27024, Note_on_c, 1, 67, 78
1, 27024, Note_on_c, 1, 61, 78
1, 27029, Note_on_c, 0, 69, 0
1, 27032, Note_on_c, 0, 69, 78
1, 27069, Note_on_c, 1, 67, 0
1, 27069, Note_on_c, 1, 61, 0
1, 27072, Note_on_c, 1, 66, 78
1, 27072, Note_on_c, 1, 62, 78
1, 27077, Note_on_c, 0, 69, 0
1, 27080, Note_on_c, 0, 69, 78
1, 27095, Note_on_c, 0, 69, 0
1, 27096, Note_on_c, 0, 71, 78
1, 27111, Note_on_c, 0, 71, 0
1, 27112, Note_on_c, 0, 73, 78
1, 27127, Note_on_c, 0, 73, 0
1, 27128, Note_on_c, 0, 74, 78
1, 27143, Note_on_c, 0, 74, 0
1, 27144, Note_on_c, 0, 73, 78
1, 27159, Note_on_c, 0, 73, 0
1, 27160, Note_on_c, 0, 71, 78
1, 27161, Note_on_c, 1, 66, 0
1, 27161, Note_on_c, 1, 62, 0
1, 27175, Note_on_c, 0, 71, 0
1, 27176, Note_on_c, 0, 69, 78
1, 27216, Note_on_c, 1, 67, 78
1, 27216, Note_on_c, 1, 61, 78
1, 27221, Note_on_c, 0, 69, 0
1, 27224, Note_on_c, 0, 69, 78
1, 27261, Note_on_c, 1, 67, 0
1, 27261, Note_on_c, 1, 61, 0
1, 27264, Note_on_c, 1, 66, 78
1, 27264, Note_on_c, 1, 62, 78
1, 27269, Note_on_c, 0, 69, 0
1, 27272, Note_on_c, 0, 69, 78
1, 27287, Note_on_c, 0, 69, 0
1, 27288, Note_on_c, 0, 71, 78
1, 27303, Note_on_c, 0, 71, 0
1, 27304, Note_on_c, 0, 73, 78
1, 27319, Note_on_c, 0, 73, 0
1, 27320, Note_on_c, 0, 74, 78
1, 27335, Note_on_c, 0, 74, 0
1, 27336, Note_on_c, 0, 73, 78
1, 27351, Note_on_c, 0, 73, 0
1, 27352, Note_on_c, 0, 71, 78
1, 27353, Note_on_c, 1, 66, 0
1, 27353, Note_on_c, 1, 62, 0
1, 27367, Note_on_c, 0, 71, 0
1, 27368, Note_on_c, 0, 69, 78
1, 27408, Note_on_c, 1, 54, 78
1, 27413, Note_on_c, 0, 69, 0
1, 27416, Note_on_c, 0, 70, 78
1, 27453, Note_on_c, 1, 54, 0
1, 27456, Note_on_c, 1, 55, 78
1, 27461, Note_on_c, 0, 70, 0
1, 27464, Note_on_c, 0, 71, 78
1, 27509, Note_on_c, 0, 71, 0
1, 27512, Note_on_c, 0, 63, 78
1, 27535, Note_on_c, 0, 63, 0
1, 27536, Note_on_c, 0, 64, 78
1, 27545, Note_on_c, 1, 55, 0
1, 27559, Note_on_c, 0, 64, 0
1, 27560, Note_on_c, 0, 66, 78
1, 27583, Note_on_c, 0, 66, 0
1, 27584, Note_on_c, 0, 67, 78
1, 27607, Note_on_c, 0, 67, 0
1, 27608, Note_on_c, 0, 69, 78
1, 27631, Note_on_c, 0, 69, 0
1, 27632, Note_on_c, 0, 71, 78
1, 27655, Note_on_c, 0, 71, 0
1, 27656, Note_on_c, 0, 69, 94
1, 27696, Note_on_c, 1, 54, 78
1, 27704, Note_on_c, 0, 69, 0
1, 27704, Note_on_c, 0, 67, 78
1, 27716, Note_on_c, 0, 67, 0
1, 27716, Note_on_c, 0, 66, 78
1, 27728, Note_on_c, 0, 66, 0
1, 27728, Note_on_c, 0, 64, 78
1, 27740, Note_on_c, 0, 64, 0
1, 27740, Note_on_c, 0, 62, 78
1, 27741, Note_on_c, 1, 54, 0
1, 27744, Note_on_c, 1, 55, 78
1, 27752, Note_on_c, 0, 62, 0
1, 27752, Note_on_c, 0, 64, 78
1, 27763, Note_on_c, 0, 64, 0
1, 27763, Note_on_c, 0, 66, 78
1, 27774, Note_on_c, 0, 66, 0
1, 27774, Note_on_c, 0, 64, 78
1, 27785, Note_on_c, 0, 64, 0
1, 27785, Note_on_c, 0, 66, 78
1, 27789, Note_on_c, 1, 55, 0
1, 27792, Note_on_c, 1, 57, 78
1, 27796, Note_on_c, 0, 66, 0
1, 27796, Note_on_c, 0, 64, 78
1, 27807, Note_on_c, 0, 64, 0
1, 27807, Note_on_c, 0, 66, 78
1, 27818, Note_on_c, 0, 66, 0
1, 27818, Note_on_c, 0, 64, 78
1, 27828, Note_on_c, 0, 64, 0
1, 27828, Note_on_c, 0, 62, 78
1, 27837, Note_on_c, 1, 57, 0
1, 27838, Note_on_c, 0, 62, 0
1, 27838, Note_on_c, 0, 64, 78
1, 27840, Note_on_c, 1, 50, 78
1, 27848, Note_on_c, 0, 64, 0
1, 27848, Note_on_c, 0, 62, 78
1, 27893, Note_on_c, 0, 62, 0
1, 27896, Note_on_c, 0, 86, 78
1, 27911, Note_on_c, 0, 86, 0
1, 27912, Note_on_c, 0, 85, 78
1, 27927, Note_on_c, 0, 85, 0
1, 27928, Note_on_c, 0, 83, 78
1, 27929, Note_on_c, 1, 50, 0
1, 27943, Note_on_c, 0, 83, 0
1, 27944, Note_on_c, 0, 81, 78
1, 27984, Note_on_c, 1, 67, 78
1, 27984, Note_on_c, 1, 61, 78
1, 27989, Note_on_c, 0, 81, 0
1, 27992, Note_on_c, 0, 81, 78
1, 28029, Note_on_c, 1, 67, 0
1, 28029, Note_on_c, 1, 61, 0
1, 28032, Note_on_c, 1, 66, 78
1, 28032, Note_on_c, 1, 62, 78
1, 28037, Note_on_c, 0, 81, 0
1, 28040, Note_on_c, 0, 81, 78
1, 28055, Note_on_c, 0, 81, 0
1, 28056, Note_on_c, 0, 83, 78
1, 28071, Note_on_c, 0, 83, 0
1, 28072, Note_on_c, 0, 85, 78
1, 28087, Note_on_c, 0, 85, 0
1, 28088, Note_on_c, 0, 86, 78
1, 28103, Note_on_c, 0, 86, 0
1, 28104, Note_on_c, 0, 85, 78
1, 28119, Note_on_c, 0, 85, 0
1, 28120, Note_on_c, 0, 83, 78
1, 28121, Note_on_c, 1, 66, 0
1, 28121, Note_on_c, 1, 62, 0
1, 28135, Note_on_c, 0, 83, 0
1, 28136, Note_on_c, 0, 81, 78
1, 28176, Note_on_c, 1, 67, 78
1, 28176, Note_on_c, 1, 61, 78
1, 28181, Note_on_c, 0, 81, 0
1, 28184, Note_on_c, 0, 81, 78
1, 28221, Note_on_c, 1, 67, 0
1, 28221, Note_on_c, 1, 61, 0
1, 28224, Note_on_c, 1, 66, 78
1, 28224, Note_on_c, 1, 62, 78
1, 28229, Note_on_c, 0, 81, 0
1, 28232, Note_on_c, 0, 81, 78
1, 28247, Note_on_c, 0, 81, 0
1, 28248, Note_on_c, 0, 83, 78
1, 28263, Note_on_c, 0, 83, 0
1, 28264, Note_on_c, 0, 85, 78
1, 28279, Note_on_c, 0, 85, 0
1, 28280, Note_on_c, 0, 86, 78
1, 28295, Note_on_c, 0, 86, 0
1, 28296, Note_on_c, 0, 85, 78
1, 28311, Note_on_c, 0, 85, 0
1, 28312, Note_on_c, 0, 83, 78
1, 28313, Note_on_c, 1, 66, 0
1, 28313, Note_on_c, 1, 62, 0
1, 28327, Note_on_c, 0, 83, 0
1, 28328, Note_on_c, 0, 81, 78
1, 28368, Note_on_c, 1, 66, 78
1, 28373, Note_on_c, 0, 81, 0
1, 28376, Note_on_c, 0, 82, 78
1, 28413, Note_on_c, 1, 66, 0
1, 28416, Note_on_c, 1, 67, 78
1, 28421, Note_on_c, 0, 82, 0
1, 28424, Note_on_c, 0, 83, 78
1, 28469, Note_on_c, 0, 83, 0
1, 28472, Note_on_c, 0, 75, 78
1, 28495, Note_on_c, 0, 75, 0
1, 28496, Note_on_c, 0, 76, 78
1, 28505, Note_on_c, 1, 67, 0
1, 28519, Note_on_c, 0, 76, 0
1, 28520, Note_on_c, 0, 78, 78
1, 28543, Note_on_c, 0, 78, 0
1, 28544, Note_on_c, 0, 79, 78
1, 28567, Note_on_c, 0, 79, 0
1, 28568, Note_on_c, 0, 81, 78
1, 28591, Note_on_c, 0, 81, 0
1, 28592, Note_on_c, 0, 83, 78
1, 28615, Note_on_c, 0, 83, 0
1, 28616, Note_on_c, 0, 81, 94
1, 28656, Note_on_c, 1, 66, 78
1, 28664, Note_on_c, 0, 81, 0
1, 28664, Note_on_c, 0, 79, 78
1, 28676, Note_on_c, 0, 79, 0
1, 28676, Note_on_c, 0, 78, 78
1, 28688, Note_on_c, 0, 78, 0
1, 28688, Note_on_c, 0, 76, 78
1, 28700, Note_on_c, 0, 76, 0
1, 28700, Note_on_c, 0, 74, 78
1, 28701, Note_on_c, 1, 66, 0
1, 28704, Note_on_c, 1, 67, 78
1, 28712, Note_on_c, 0, 74, 0
1, 28712, Note_on_c, 0, 76, 78
1, 28723, Note_on_c, 0, 76, 0
1, 28723, Note_on_c, 0, 78, 78
1, 28734, Note_on_c, 0, 78, 0
1, 28734, Note_on_c, 0, 76, 78
1, 28745, Note_on_c, 0, 76, 0
1, 28745, Note_on_c, 0, 78, 78
1, 28749, Note_on_c, 1, 67, 0
1, 28752, Note_on_c, 1, 69, 78
1, 28756, Note_on_c, 0, 78, 0
1, 28756, Note_on_c, 0, 76, 78
1, 28767, Note_on_c, 0, 76, 0
1, 28767, Note_on_c, 0, 78, 78
1, 28778, Note_on_c, 0, 78, 0
1, 28778, Note_on_c, 0, 76, 78
1, 28788, Note_on_c, 0, 76, 0
1, 28788, Note_on_c, 0, 74, 78
1, 28797, Note_on_c, 1, 69, 0
1, 28798, Note_on_c, 0, 74, 0
1, 28798, Note_on_c, 0, 76, 78
1, 28800, Note_on_c, 1, 62, 78
1, 28808, Note_on_c, 0, 76, 0
1, 28808, Note_on_c, 0, 74, 78
1, 28853, Note_on_c, 0, 74, 0
1, 28856, Note_on_c, 0, 69, 78
1, 28879, Note_on_c, 0, 69, 0
1, 28880, Note_on_c, 0, 74, 78
1, 28889, Note_on_c, 1, 62, 0
1, 28903, Note_on_c, 0, 74, 0
1, 28904, Note_on_c, 0, 66, 78
1, 28927, Note_on_c, 0, 66, 0
1, 28928, Note_on_c, 0, 69, 78
1, 28951, Note_on_c, 0, 69, 0
1, 28952, Note_on_c, 0, 62, 78
1, 28975, Note_on_c, 0, 62, 0
1, 28976, Note_on_c, 0, 66, 78
1, 28992, Note_on_c, 1, 50, 85
1, 28992, Note_on_c, 1, 38, 85
1, 28999, Note_on_c, 0, 66, 0
1, 29081, Note_on_c, 1, 50, 0
1, 29081, Note_on_c, 1, 38, 0
1, 29192, Note_on_c, 0, 78, 78
1, 29204, Note_on_c, 0, 78, 0
1, 29204, Note_on_c, 0, 76, 78
1, 29216, Note_on_c, 0, 76, 0
1, 29216, Note_on_c, 0, 75, 78
1, 29228, Note_on_c, 0, 75, 0
1, 29228, Note_on_c, 0, 76, 78
1, 29232, Note_on_c, 1, 61, 63
1, 29232, Note_on_c, 1, 57, 63
1, 29252, Note_on_c, 1, 61, 0
1, 29252, Note_on_c, 1, 57, 0
1, 29280, Note_on_c, 1, 61, 63
1, 29280, Note_on_c, 1, 57, 63
1, 29325, Note_on_c, 0, 76, 0
1, 29327, Note_on_c, 1, 61, 0
1, 29327, Note_on_c, 1, 57, 0
1, 29336, Note_on_c, 0, 81, 78
1, 29359, Note_on_c, 0, 81, 0
1, 29360, Note_on_c, 0, 76, 78
1, 29383, Note_on_c, 0, 76, 0
1, 29384, Note_on_c, 0, 73, 78
1, 29424, Note_on_c, 1, 64, 63
1, 29424, Note_on_c, 1, 57, 63
1, 29444, Note_on_c, 1, 64, 0
1, 29444, Note_on_c, 1, 57, 0
1, 29472, Note_on_c, 1, 64, 63
1, 29472, Note_on_c, 1, 57, 63
1, 29517, Note_on_c, 0, 73, 0
1, 29519, Note_on_c, 1, 64, 0
1, 29519, Note_on_c, 1, 57, 0
1, 29528, Note_on_c, 0, 76, 78
1, 29551, Note_on_c, 0, 76, 0
1, 29552, Note_on_c, 0, 73, 78
1, 29575, Note_on_c, 0, 73, 0
1, 29576, Note_on_c, 0, 78, 78
1, 29616, Note_on_c, 1, 62, 63
1, 29616, Note_on_c, 1, 57, 63
1, 29636, Note_on_c, 1, 62, 0
1, 29636, Note_on_c, 1, 57, 0
1, 29664, Note_on_c, 1, 62, 63
1, 29664, Note_on_c, 1, 57, 63
1, 29709, Note_on_c, 0, 78, 0
1, 29711, Note_on_c, 1, 62, 0
1, 29711, Note_on_c, 1, 57, 0
1, 29720, Note_on_c, 0, 74, 78
1, 29743, Note_on_c, 0, 74, 0
1, 29744, Note_on_c, 0, 71, 78
1, 29767, Note_on_c, 0, 71, 0
1, 29768, Note_on_c, 0, 69, 63
1, 29808, Note_on_c, 1, 62, 63
1, 29808, Note_on_c, 1, 59, 63
1, 29808, Note_on_c, 1, 57, 63
1, 29811, Note_on_c, 0, 69, 0
1, 29814, Note_on_c, 0, 68, 67
1, 29826, Note_on_c, 0, 68, 0
1, 29826, Note_on_c, 0, 69, 68
1, 29838, Note_on_c, 0, 69, 0
1, 29838, Note_on_c, 0, 68, 69
1, 29850, Note_on_c, 0, 68, 0
1, 29850, Note_on_c, 0, 69, 69
1, 29855, Note_on_c, 1, 62, 0
1, 29855, Note_on_c, 1, 59, 0
1, 29855, Note_on_c, 1, 57, 0
1, 29856, Note_on_c, 1, 62, 68
1, 29856, Note_on_c, 1, 59, 68
1, 29856, Note_on_c, 1, 57, 68
1, 29862, Note_on_c, 0, 69, 0
1, 29862, Note_on_c, 0, 68, 70
1, 29873, Note_on_c, 0, 68, 0
1, 29873, Note_on_c, 0, 69, 71
1, 29884, Note_on_c, 0, 69, 0
1, 29884, Note_on_c, 0, 68, 71
1, 29895, Note_on_c, 0, 68, 0
1, 29895, Note_on_c, 0, 69, 72
1, 29903, Note_on_c, 1, 62, 0
1, 29903, Note_on_c, 1, 59, 0
1, 29903, Note_on_c, 1, 57, 0
1, 29904, Note_on_c, 1, 62, 73
1, 29904, Note_on_c, 1, 59, 73
1, 29904, Note_on_c, 1, 57, 73
1, 29906, Note_on_c, 0, 69, 0
1, 29906, Note_on_c, 0, 68, 73
1, 29917, Note_on_c, 0, 68, 0
1, 29917, Note_on_c, 0, 69, 74
1, 29928, Note_on_c, 0, 69, 0
1, 29928, Note_on_c, 0, 68, 74
1, 29939, Note_on_c, 0, 68, 0
1, 29939, Note_on_c, 0, 66, 75
1, 29950, Note_on_c, 0, 66, 0
1, 29950, Note_on_c, 0, 68, 76
1, 29951, Note_on_c, 1, 62, 0
1, 29951, Note_on_c, 1, 59, 0
1, 29951, Note_on_c, 1, 57, 0
1, 29952, Note_on_c, 1, 61, 78
1, 29952, Note_on_c, 1, 57, 78
1, 29961, Note_on_c, 0, 68, 0
1, 29961, Note_on_c, 0, 69, 78
1, 30006, Note_on_c, 0, 69, 0
1, 30009, Note_on_c, 0, 69, 79
1, 30032, Note_on_c, 0, 69, 0
1, 30033, Note_on_c, 0, 71, 80
1, 30041, Note_on_c, 1, 61, 0
1, 30041, Note_on_c, 1, 57, 0
1, 30056, Note_on_c, 0, 71, 0
1, 30057, Note_on_c, 0, 73, 81
1, 30080, Note_on_c, 0, 73, 0
1, 30081, Note_on_c, 0, 74, 82
1, 30104, Note_on_c, 0, 74, 0
1, 30105, Note_on_c, 0, 76, 83
1, 30128, Note_on_c, 0, 76, 0
1, 30129, Note_on_c, 0, 78, 84
1, 30152, Note_on_c, 0, 78, 0
1, 30153, Note_on_c, 0, 79, 85
1, 30176, Note_on_c, 0, 79, 0
1, 30177, Note_on_c, 0, 78, 84
1, 30200, Note_on_c, 0, 78, 0
1, 30201, Note_on_c, 0, 76, 83
1, 30224, Note_on_c, 0, 76, 0
1, 30225, Note_on_c, 0, 74, 82
1, 30248, Note_on_c, 0, 74, 0
1, 30249, Note_on_c, 0, 73, 81
1, 30272, Note_on_c, 0, 73, 0
1, 30273, Note_on_c, 0, 71, 80
1, 30296, Note_on_c, 0, 71, 0
1, 30297, Note_on_c, 0, 69, 79
1, 30320, Note_on_c, 0, 69, 0
1, 30321, Note_on_c, 0, 67, 78
1, 30344, Note_on_c, 0, 67, 0
1, 30345, Note_on_c, 0, 66, 78
1, 30368, Note_on_c, 0, 66, 0
1, 30369, Note_on_c, 0, 69, 78
1, 30392, Note_on_c, 0, 69, 0
1, 30393, Note_on_c, 0, 74, 78
1, 30416, Note_on_c, 0, 74, 0
1, 30417, Note_on_c, 0, 78, 78
1, 30440, Note_on_c, 0, 78, 0
1, 30441, Note_on_c, 0, 81, 78
1, 30464, Note_on_c, 0, 81, 0
1, 30465, Note_on_c, 0, 78, 78
1, 30488, Note_on_c, 0, 78, 0
1, 30489, Note_on_c, 0, 74, 78
1, 30512, Note_on_c, 0, 74, 0
1, 30513, Note_on_c, 0, 78, 79
1, 30536, Note_on_c, 0, 78, 0
1, 30537, Note_on_c, 0, 66, 79
1, 30560, Note_on_c, 0, 66, 0
1, 30561, Note_on_c, 0, 69, 79
1, 30584, Note_on_c, 0, 69, 0
1, 30585, Note_on_c, 0, 74, 79
1, 30608, Note_on_c, 0, 74, 0
1, 30609, Note_on_c, 0, 78, 79
1, 30632, Note_on_c, 0, 78, 0
1, 30633, Note_on_c, 0, 81, 79
1, 30656, Note_on_c, 0, 81, 0
1, 30657, Note_on_c, 0, 78, 79
1, 30680, Note_on_c, 0, 78, 0
1, 30681, Note_on_c, 0, 74, 80
1, 30704, Note_on_c, 0, 74, 0
1, 30705, Note_on_c, 0, 78, 80
1, 30728, Note_on_c, 0, 78, 0
1, 30729, Note_on_c, 0, 65, 80
1, 30752, Note_on_c, 0, 65, 0
1, 30753, Note_on_c, 0, 69, 80
1, 30776, Note_on_c, 0, 69, 0
1, 30777, Note_on_c, 0, 74, 80
1, 30800, Note_on_c, 0, 74, 0
1, 30801, Note_on_c, 0, 77, 80
1, 30824, Note_on_c, 0, 77, 0
1, 30825, Note_on_c, 0, 81, 80
1, 30848, Note_on_c, 0, 81, 0
1, 30849, Note_on_c, 0, 77, 81
1, 30872, Note_on_c, 0, 77, 0
1, 30873, Note_on_c, 0, 74, 81
1, 30896, Note_on_c, 0, 74, 0
1, 30897, Note_on_c, 0, 77, 81
1, 30920, Note_on_c, 0, 77, 0
1, 30921, Note_on_c, 0, 65, 81
1, 30944, Note_on_c, 0, 65, 0
1, 30945, Note_on_c, 0, 69, 81
1, 30968, Note_on_c, 0, 69, 0
1, 30969, Note_on_c, 0, 74, 81
1, 30992, Note_on_c, 0, 74, 0
1, 30993, Note_on_c, 0, 77, 81
1, 31016, Note_on_c, 0, 77, 0
1, 31017, Note_on_c, 0, 81, 82
1, 31040, Note_on_c, 0, 81, 0
1, 31041, Note_on_c, 0, 77, 82
1, 31064, Note_on_c, 0, 77, 0
1, 31065, Note_on_c, 0, 74, 82
1, 31088, Note_on_c, 0, 74, 0
1, 31089, Note_on_c, 0, 77, 82
1, 31112, Note_on_c, 0, 77, 0
1, 31113, Note_on_c, 0, 64, 82
1, 31136, Note_on_c, 0, 64, 0
1, 31137, Note_on_c, 0, 71, 82
1, 31160, Note_on_c, 0, 71, 0
1, 31161, Note_on_c, 0, 74, 83
1, 31184, Note_on_c, 0, 74, 0
1, 31185, Note_on_c, 0, 76, 83
1, 31208, Note_on_c, 0, 76, 0
1, 31209, Note_on_c, 0, 80, 83
1, 31232, Note_on_c, 0, 80, 0
1, 31233, Note_on_c, 0, 76, 83
1, 31256, Note_on_c, 0, 76, 0
1, 31257, Note_on_c, 0, 74, 83
1, 31280, Note_on_c, 0, 74, 0
1, 31281, Note_on_c, 0, 76, 83
1, 31304, Note_on_c, 0, 76, 0
1, 31305, Note_on_c, 0, 64, 83
1, 31328, Note_on_c, 0, 64, 0
1, 31329, Note_on_c, 0, 71, 84
1, 31352, Note_on_c, 0, 71, 0
1, 31353, Note_on_c, 0, 74, 84
1, 31376, Note_on_c, 0, 74, 0
1, 31377, Note_on_c, 0, 80, 84
1, 31400, Note_on_c, 0, 80, 0
1, 31401, Note_on_c, 0, 83, 84
1, 31424, Note_on_c, 0, 83, 0
1, 31425, Note_on_c, 0, 80, 84
1, 31448, Note_on_c, 0, 80, 0
1, 31449, Note_on_c, 0, 74, 84
1, 31472, Note_on_c, 0, 74, 0
1, 31473, Note_on_c, 0, 80, 84
1, 31496, Note_on_c, 0, 80, 0
1, 31497, Note_on_c, 0, 65, 85
1, 31520, Note_on_c, 0, 65, 0
1, 31521, Note_on_c, 0, 71, 85
1, 31544, Note_on_c, 0, 71, 0
1, 31545, Note_on_c, 0, 74, 85
1, 31568, Note_on_c, 0, 74, 0
1, 31569, Note_on_c, 0, 80, 85
1, 31592, Note_on_c, 0, 80, 0
1, 31593, Note_on_c, 0, 83, 85
1, 31616, Note_on_c, 0, 83, 0
1, 31617, Note_on_c, 0, 80, 85
1, 31640, Note_on_c, 0, 80, 0
1, 31641, Note_on_c, 0, 74, 85
1, 31664, Note_on_c, 0, 74, 0
1, 31665, Note_on_c, 0, 80, 86
1, 31688, Note_on_c, 0, 80, 0
1, 31689, Note_on_c, 0, 65, 86
1, 31712, Note_on_c, 0, 65, 0
1, 31713, Note_on_c, 0, 71, 86
1, 31736, Note_on_c, 0, 71, 0
1, 31737, Note_on_c, 0, 74, 86
1, 31760, Note_on_c, 0, 74, 0
1, 31761, Note_on_c, 0, 80, 86
1, 31784, Note_on_c, 0, 80, 0
1, 31785, Note_on_c, 0, 83, 86
1, 31808, Note_on_c, 0, 83, 0
1, 31809, Note_on_c, 0, 80, 87
1, 31832, Note_on_c, 0, 80, 0
1, 31833, Note_on_c, 0, 74, 87
1, 31856, Note_on_c, 0, 74, 0
1, 31857, Note_on_c, 0, 80, 87
1, 31880, Note_on_c, 0, 80, 0
1, 31881, Note_on_c, 0, 66, 87
1, 31904, Note_on_c, 0, 66, 0
1, 31905, Note_on_c, 0, 71, 87
1, 31928, Note_on_c, 0, 71, 0
1, 31929, Note_on_c, 0, 74, 87
1, 31952, Note_on_c, 0, 74, 0
1, 31953, Note_on_c, 0, 78, 87
1, 31976, Note_on_c, 0, 78, 0
1, 31977, Note_on_c, 0, 83, 88
1, 32000, Note_on_c, 0, 83, 0
1, 32001, Note_on_c, 0, 78, 88
1, 32024, Note_on_c, 0, 78, 0
1, 32025, Note_on_c, 0, 74, 88
1, 32048, Note_on_c, 0, 74, 0
1, 32049, Note_on_c, 0, 78, 88
1, 32072, Note_on_c, 0, 78, 0
1, 32073, Note_on_c, 0, 66, 88
1, 32096, Note_on_c, 0, 66, 0
1, 32097, Note_on_c, 0, 71, 88
1, 32120, Note_on_c, 0, 71, 0
1, 32121, Note_on_c, 0, 74, 88
1, 32144, Note_on_c, 0, 74, 0
1, 32145, Note_on_c, 0, 78, 89
1, 32168, Note_on_c, 0, 78, 0
1, 32169, Note_on_c, 0, 83, 89
1, 32192, Note_on_c, 0, 83, 0
1, 32193, Note_on_c, 0, 78, 89
1, 32216, Note_on_c, 0, 78, 0
1, 32217, Note_on_c, 0, 74, 89
1, 32240, Note_on_c, 0, 74, 0
1, 32241, Note_on_c, 0, 78, 89
1, 32264, Note_on_c, 0, 78, 0
1, 32265, Note_on_c, 0, 66, 89
1, 32288, Note_on_c, 0, 66, 0
1, 32289, Note_on_c, 0, 70, 89
1, 32312, Note_on_c, 0, 70, 0
1, 32313, Note_on_c, 0, 73, 90
1, 32336, Note_on_c, 0, 73, 0
1, 32337, Note_on_c, 0, 78, 90
1, 32360, Note_on_c, 0, 78, 0
1, 32361, Note_on_c, 0, 82, 90
1, 32384, Note_on_c, 0, 82, 0
1, 32385, Note_on_c, 0, 78, 90
1, 32408, Note_on_c, 0, 78, 0
1, 32409, Note_on_c, 0, 73, 90
1, 32432, Note_on_c, 0, 73, 0
1, 32433, Note_on_c, 0, 78, 90
1, 32448, Note_on_c, 1, 54, 85
1, 32448, Note_on_c, 1, 42, 85
1, 32456, Note_on_c, 0, 78, 0
1, 32537, Note_on_c, 1, 54, 0
1, 32537, Note_on_c, 1, 42, 0
1, 32649, Note_on_c, 0, 67, 63
1, 32661, Note_on_c, 0, 67, 0
1, 32661, Note_on_c, 0, 66, 63
1, 32673, Note_on_c, 0, 66, 0
1, 32673, Note_on_c, 0, 64, 63
1, 32685, Note_on_c, 0, 64, 0
1, 32685, Note_on_c, 0, 66, 63
1, 32688, Note_on_c, 1, 62, 54
1, 32688, Note_on_c, 1, 59, 54
1, 32708, Note_on_c, 1, 62, 0
1, 32708, Note_on_c, 1, 59, 0
1, 32736, Note_on_c, 1, 62, 54
1, 32736, Note_on_c, 1, 59, 54
1, 32782, Note_on_c, 0, 66, 0
1, 32783, Note_on_c, 1, 62, 0
1, 32783, Note_on_c, 1, 59, 0
1, 32793, Note_on_c, 0, 74, 63
1, 32816, Note_on_c, 0, 74, 0
1, 32817, Note_on_c, 0, 71, 63
1, 32840, Note_on_c, 0, 71, 0
1, 32841, Note_on_c, 0, 66, 63
1, 32880, Note_on_c, 1, 62, 54
1, 32880, Note_on_c, 1, 59, 54
1, 32900, Note_on_c, 1, 62, 0
1, 32900, Note_on_c, 1, 59, 0
1, 32928, Note_on_c, 1, 62, 54
1, 32928, Note_on_c, 1, 59, 54
1, 32974, Note_on_c, 0, 66, 0
1, 32975, Note_on_c, 1, 62, 0
1, 32975, Note_on_c, 1, 59, 0
1, 32985, Note_on_c, 0, 71, 63
1, 33008, Note_on_c, 0, 71, 0
1, 33009, Note_on_c, 0, 66, 63
1, 33032, Note_on_c, 0, 66, 0
1, 33033, Note_on_c, 0, 69, 63
1, 33056, Note_on_c, 0, 69, 0
1, 33057, Note_on_c, 0, 67, 63
1, 33069, Note_on_c, 0, 67, 0
1, 33069, Note_on_c, 0, 69, 63
1, 33072, Note_on_c, 1, 64, 55
1, 33072, Note_on_c, 1, 59, 55
1, 33081, Note_on_c, 0, 69, 0
1, 33081, Note_on_c, 0, 67, 63
1, 33092, Note_on_c, 1, 64, 0
1, 33092, Note_on_c, 1, 59, 0
1, 33093, Note_on_c, 0, 67, 0
1, 33093, Note_on_c, 0, 69, 64
1, 33105, Note_on_c, 0, 69, 0
1, 33105, Note_on_c, 0, 67, 64
1, 33117, Note_on_c, 0, 67, 0
1, 33117, Note_on_c, 0, 69, 64
1, 33120, Note_on_c, 1, 64, 56
1, 33120, Note_on_c, 1, 59, 56
1, 33129, Note_on_c, 0, 69, 0
1, 33129, Note_on_c, 0, 67, 64
1, 33141, Note_on_c, 0, 67, 0
1, 33141, Note_on_c, 0, 69, 65
1, 33153, Note_on_c, 0, 69, 0
1, 33153, Note_on_c, 0, 67, 65
1, 33165, Note_on_c, 0, 67, 0
1, 33165, Note_on_c, 0, 69, 65
1, 33167, Note_on_c, 1, 64, 0
1, 33167, Note_on_c, 1, 59, 0
1, 33177, Note_on_c, 0, 69, 0
1, 33177, Note_on_c, 0, 76, 65
1, 33200, Note_on_c, 0, 76, 0
1, 33201, Note_on_c, 0, 73, 66
1, 33224, Note_on_c, 0, 73, 0
1, 33225, Note_on_c, 0, 70, 66
1, 33264, Note_on_c, 1, 64, 60
1, 33264, Note_on_c, 1, 61, 60
1, 33264, Note_on_c, 1, 59, 60
1, 33284, Note_on_c, 1, 64, 0
1, 33284, Note_on_c, 1, 61, 0
1, 33284, Note_on_c, 1, 59, 0
1, 33312, Note_on_c, 1, 64, 61
1, 33312, Note_on_c, 1, 61, 61
1, 33312, Note_on_c, 1, 59, 61
1, 33358, Note_on_c, 0, 70, 0
1, 33359, Note_on_c, 1, 64, 0
1, 33359, Note_on_c, 1, 61, 0
1, 33359, Note_on_c, 1, 59, 0
1, 33369, Note_on_c, 0, 73, 69
1, 33392, Note_on_c, 0, 73, 0
1, 33393, Note_on_c, 0, 70, 69
1, 33416, Note_on_c, 0, 70, 0
1, 33417, Note_on_c, 0, 73, 70
1, 33429, Note_on_c, 0, 73, 0
1, 33429, Note_on_c, 0, 71, 70
1, 33441, Note_on_c, 0, 71, 0
1, 33441, Note_on_c, 0, 70, 70
1, 33453, Note_on_c, 0, 70, 0
1, 33453, Note_on_c, 0, 71, 70
1, 33456, Note_on_c, 1, 66, 65
1, 33456, Note_on_c, 1, 63, 65
1, 33456, Note_on_c, 1, 57, 65
1, 33476, Note_on_c, 1, 66, 0
1, 33476, Note_on_c, 1, 63, 0
1, 33476, Note_on_c, 1, 57, 0
1, 33504, Note_on_c, 1, 66, 66
1, 33504, Note_on_c, 1, 63, 66
1, 33504, Note_on_c, 1, 57, 66
1, 33550, Note_on_c, 0, 71, 0
1, 33551, Note_on_c, 1, 66, 0
1, 33551, Note_on_c, 1, 63, 0
1, 33551, Note_on_c, 1, 57, 0
1, 33561, Note_on_c, 0, 83, 72
1, 33584, Note_on_c, 0, 83, 0
1, 33585, Note_on_c, 0, 78, 73
1, 33608, Note_on_c, 0, 78, 0
1, 33609, Note_on_c, 0, 75, 73
1, 33648, Note_on_c, 1, 59, 70
1, 33648, Note_on_c, 1, 57, 70
1, 33668, Note_on_c, 1, 59, 0
1, 33668, Note_on_c, 1, 57, 0
1, 33696, Note_on_c, 1, 59, 71
1, 33696, Note_on_c, 1, 57, 71
1, 33742, Note_on_c, 0, 75, 0
1, 33743, Note_on_c, 1, 59, 0
1, 33743, Note_on_c, 1, 57, 0
1, 33753, Note_on_c, 0, 78, 76
1, 33776, Note_on_c, 0, 78, 0
1, 33777, Note_on_c, 0, 75, 76
1, 33800, Note_on_c, 0, 75, 0
1, 33801, Note_on_c, 0, 78, 77
1, 33813, Note_on_c, 0, 78, 0
1, 33813, Note_on_c, 0, 76, 77
1, 33825, Note_on_c, 0, 76, 0
1, 33825, Note_on_c, 0, 75, 77
1, 33837, Note_on_c, 0, 75, 0
1, 33837, Note_on_c, 0, 76, 77
1, 33840, Note_on_c, 1, 59, 75
1, 33840, Note_on_c, 1, 55, 75
1, 33860, Note_on_c, 1, 59, 0
1, 33860, Note_on_c, 1, 55, 0
1, 33888, Note_on_c, 1, 59, 76
1, 33888, Note_on_c, 1, 55, 76
1, 33934, Note_on_c, 0, 76, 0
1, 33935, Note_on_c, 1, 59, 0
1, 33935, Note_on_c, 1, 55, 0
1, 33945, Note_on_c, 0, 83, 80
1, 33968, Note_on_c, 0, 83, 0
1, 33969, Note_on_c, 0, 74, 80
1, 33992, Note_on_c, 0, 74, 0
1, 33993, Note_on_c, 0, 73, 80
1, 34032, Note_on_c, 1, 57, 80
1, 34032, Note_on_c, 1, 55, 80
1, 34052, Note_on_c, 1, 57, 0
1, 34052, Note_on_c, 1, 55, 0
1, 34080, Note_on_c, 1, 57, 81
1, 34080, Note_on_c, 1, 55, 81
1, 34126, Note_on_c, 0, 73, 0
1, 34127, Note_on_c, 1, 57, 0
1, 34127, Note_on_c, 1, 55, 0
1, 34137, Note_on_c, 0, 76, 83
1, 34160, Note_on_c, 0, 76, 0
1, 34161, Note_on_c, 0, 73, 84
1, 34176, Note_on_c, 1, 54, 83
1, 34184, Note_on_c, 0, 73, 0
1, 34185, Note_on_c, 0, 74, 84
1, 34208, Note_on_c, 0, 74, 0
1, 34209, Note_on_c, 0, 69, 85
1, 34221, Note_on_c, 1, 54, 0
1, 34224, Note_on_c, 1, 66, 85
1, 34232, Note_on_c, 0, 69, 0
1, 34233, Note_on_c, 0, 81, 85
1, 34256, Note_on_c, 0, 81, 0
1, 34257, Note_on_c, 0, 69, 85
1, 34269, Note_on_c, 1, 66, 0
1, 34272, Note_on_c, 1, 64, 85
1, 34280, Note_on_c, 0, 69, 0
1, 34281, Note_on_c, 0, 79, 85
1, 34304, Note_on_c, 0, 79, 0
1, 34305, Note_on_c, 0, 69, 85
1, 34317, Note_on_c, 1, 64, 0
1, 34320, Note_on_c, 1, 62, 85
1, 34328, Note_on_c, 0, 69, 0
1, 34329, Note_on_c, 0, 78, 85
1, 34352, Note_on_c, 0, 78, 0
1, 34353, Note_on_c, 0, 69, 85
1, 34365, Note_on_c, 1, 62, 0
1, 34368, Note_on_c, 1, 61, 85
1, 34376, Note_on_c, 0, 69, 0
1, 34377, Note_on_c, 0, 76, 85
1, 34400, Note_on_c, 0, 76, 0
1, 34401, Note_on_c, 0, 69, 85
1, 34413, Note_on_c, 1, 61, 0
1, 34416, Note_on_c, 1, 62, 85
1, 34424, Note_on_c, 0, 69, 0
1, 34425, Note_on_c, 0, 78, 85
1, 34448, Note_on_c, 0, 78, 0
1, 34449, Note_on_c, 0, 69, 85
1, 34461, Note_on_c, 1, 62, 0
1, 34464, Note_on_c, 1, 61, 85
1, 34472, Note_on_c, 0, 69, 0
1, 34473, Note_on_c, 0, 76, 85
1, 34496, Note_on_c, 0, 76, 0
1, 34497, Note_on_c, 0, 69, 85
1, 34509, Note_on_c, 1, 61, 0
1, 34512, Note_on_c, 1, 59, 85
1, 34520, Note_on_c, 0, 69, 0
1, 34521, Note_on_c, 0, 74, 85
1, 34544, Note_on_c, 0, 74, 0
1, 34545, Note_on_c, 0, 69, 85
1, 34557, Note_on_c, 1, 59, 0
1, 34560, Note_on_c, 1, 57, 85
1, 34568, Note_on_c, 0, 69, 0
1, 34569, Note_on_c, 0, 73, 85
1, 34592, Note_on_c, 0, 73, 0
1, 34593, Note_on_c, 0, 69, 85
1, 34605, Note_on_c, 1, 57, 0
1, 34608, Note_on_c, 1, 62, 85
1, 34616, Note_on_c, 0, 69, 0
1, 34617, Note_on_c, 0, 78, 85
1, 34640, Note_on_c, 0, 78, 0
1, 34641, Note_on_c, 0, 69, 84
1, 34653, Note_on_c, 1, 62, 0
1, 34656, Note_on_c, 1, 61, 83
1, 34664, Note_on_c, 0, 69, 0
1, 34665, Note_on_c, 0, 76, 83
1, 34688, Note_on_c, 0, 76, 0
1, 34689, Note_on_c, 0, 69, 82
1, 34701, Note_on_c, 1, 61, 0
1, 34704, Note_on_c, 1, 59, 81
1, 34712, Note_on_c, 0, 69, 0
1, 34713, Note_on_c, 0, 74, 81
1, 34736, Note_on_c, 0, 74, 0
1, 34737, Note_on_c, 0, 69, 80
1, 34749, Note_on_c, 1, 59, 0
1, 34752, Note_on_c, 1, 57, 79
1, 34760, Note_on_c, 0, 69, 0
1, 34761, Note_on_c, 0, 73, 79
1, 34784, Note_on_c, 0, 73, 0
1, 34785, Note_on_c, 0, 69, 79
1, 34797, Note_on_c, 1, 57, 0
1, 34800, Note_on_c, 1, 62, 78
1, 34808, Note_on_c, 0, 69, 0
1, 34809, Note_on_c, 0, 78, 78
1, 34832, Note_on_c, 0, 78, 0
1, 34833, Note_on_c, 0, 69, 77
1, 34845, Note_on_c, 1, 62, 0
1, 34848, Note_on_c, 1, 61, 76
1, 34856, Note_on_c, 0, 69, 0
1, 34857, Note_on_c, 0, 76, 76
1, 34880, Note_on_c, 0, 76, 0
1, 34881, Note_on_c, 0, 69, 75
1, 34893, Note_on_c, 1, 61, 0
1, 34896, Note_on_c, 1, 59, 74
1, 34904, Note_on_c, 0, 69, 0
1, 34905, Note_on_c, 0, 74, 74
1, 34928, Note_on_c, 0, 74, 0
1, 34929, Note_on_c, 0, 69, 74
1, 34941, Note_on_c, 1, 59, 0
1, 34944, Note_on_c, 1, 57, 73
1, 34952, Note_on_c, 0, 69, 0
1, 34953, Note_on_c, 0, 73, 73
1, 34976, Note_on_c, 0, 73, 0
1, 34977, Note_on_c, 0, 69, 72
1, 34989, Note_on_c, 1, 57, 0
1, 34992, Note_on_c, 1, 62, 71
1, 35000, Note_on_c, 0, 69, 0
1, 35001, Note_on_c, 0, 78, 71
1, 35024, Note_on_c, 0, 78, 0
1, 35025, Note_on_c, 0, 69, 70
1, 35037, Note_on_c, 1, 62, 0
1, 35040, Note_on_c, 1, 61, 69
1, 35048, Note_on_c, 0, 69, 0
1, 35049, Note_on_c, 0, 76, 69
1, 35072, Note_on_c, 0, 76, 0
1, 35073, Note_on_c, 0, 69, 68
1, 35085, Note_on_c, 1, 61, 0
1, 35088, Note_on_c, 1, 59, 68
1, 35096, Note_on_c, 0, 69, 0
1, 35097, Note_on_c, 0, 80, 68
1, 35120, Note_on_c, 0, 80, 0
1, 35121, Note_on_c, 0, 69, 67
1, 35133, Note_on_c, 1, 59, 0
1, 35136, Note_on_c, 1, 57, 66
1, 35144, Note_on_c, 0, 69, 0
1, 35145, Note_on_c, 0, 81, 66
1, 35230, Note_on_c, 1, 57, 0
1, 35239, Note_on_c, 0, 81, 0
1, 35337, Note_on_c, 0, 83, 78
1, 35349, Note_on_c, 0, 83, 0
1, 35349, Note_on_c, 0, 81, 78
1, 35361, Note_on_c, 0, 81, 0
1, 35361, Note_on_c, 0, 80, 78
1, 35373, Note_on_c, 0, 80, 0
1, 35373, Note_on_c, 0, 81, 78
1, 35376, Note_on_c, 1, 66, 63
1, 35376, Note_on_c, 1, 62, 63
1, 35396, Note_on_c, 1, 66, 0
1, 35396, Note_on_c, 1, 62, 0
1, 35424, Note_on_c, 1, 66, 63
1, 35424, Note_on_c, 1, 62, 63
1, 35470, Note_on_c, 0, 81, 0
1, 35471, Note_on_c, 1, 66, 0
1, 35471, Note_on_c, 1, 62, 0
1, 35481, Note_on_c, 0, 86, 78
1, 35504, Note_on_c, 0, 86, 0
1, 35505, Note_on_c, 0, 81, 78
1, 35528, Note_on_c, 0, 81, 0
1, 35529, Note_on_c, 0, 78, 78
1, 35568, Note_on_c, 1, 69, 63
1, 35568, Note_on_c, 1, 62, 63
1, 35588, Note_on_c, 1, 69, 0
1, 35588, Note_on_c, 1, 62, 0
1, 35616, Note_on_c, 1, 69, 63
1, 35616, Note_on_c, 1, 62, 63
1, 35662, Note_on_c, 0, 78, 0
1, 35663, Note_on_c, 1, 69, 0
1, 35663, Note_on_c, 1, 62, 0
1, 35673, Note_on_c, 0, 81, 78
1, 35696, Note_on_c, 0, 81, 0
1, 35697, Note_on_c, 0, 78, 78
1, 35720, Note_on_c, 0, 78, 0
1, 35721, Note_on_c, 0, 83, 78
1, 35760, Note_on_c, 1, 67, 63
1, 35760, Note_on_c, 1, 62, 63
1, 35780, Note_on_c, 1, 67, 0
1, 35780, Note_on_c, 1, 62, 0
1, 35808, Note_on_c, 1, 67, 63
1, 35808, Note_on_c, 1, 62, 63
1, 35854, Note_on_c, 0, 83, 0
1, 35855, Note_on_c, 1, 67, 0
1, 35855, Note_on_c, 1, 62, 0
1, 35865, Note_on_c, 0, 79, 78
1, 35888, Note_on_c, 0, 79, 0
1, 35889, Note_on_c, 0, 76, 78
1, 35912, Note_on_c, 0, 76, 0
1, 35913, Note_on_c, 0, 74, 63
1, 35952, Note_on_c, 1, 67, 63
1, 35952, Note_on_c, 1, 64, 63
1, 35952, Note_on_c, 1, 62, 63
1, 35956, Note_on_c, 0, 74, 0
1, 35959, Note_on_c, 0, 73, 67
1, 35971, Note_on_c, 0, 73, 0
1, 35971, Note_on_c, 0, 74, 68
1, 35983, Note_on_c, 0, 74, 0
1, 35983, Note_on_c, 0, 73, 69
1, 35995, Note_on_c, 0, 73, 0
1, 35995, Note_on_c, 0, 74, 69
1, 35999, Note_on_c, 1, 67, 0
1, 35999, Note_on_c, 1, 64, 0
1, 35999, Note_on_c, 1, 62, 0
1, 36000, Note_on_c, 1, 67, 68
1, 36000, Note_on_c, 1, 64, 68
1, 36000, Note_on_c, 1, 62, 68
1, 36007, Note_on_c, 0, 74, 0
1, 36007, Note_on_c, 0, 73, 70
1, 36018, Note_on_c, 0, 73, 0
1, 36018, Note_on_c, 0, 74, 71
1, 36029, Note_on_c, 0, 74, 0
1, 36029, Note_on_c, 0, 73, 71
1, 36040, Note_on_c, 0, 73, 0
1, 36040, Note_on_c, 0, 74, 72
1, 36047, Note_on_c, 1, 67, 0
1, 36047, Note_on_c, 1, 64, 0
1, 36047, Note_on_c, 1, 62, 0
1, 36048, Note_on_c, 1, 67, 73
1, 36048, Note_on_c, 1, 64, 73
1, 36048, Note_on_c, 1, 62, 73
1, 36051, Note_on_c, 0, 74, 0
1, 36051, Note_on_c, 0, 73, 73
1, 36062, Note_on_c, 0, 73, 0
1, 36062, Note_on_c, 0, 74, 74
1, 36073, Note_on_c, 0, 74, 0
1, 36073, Note_on_c, 0, 73, 74
1, 36084, Note_on_c, 0, 73, 0
1, 36084, Note_on_c, 0, 71, 75
1, 36095, Note_on_c, 0, 71, 0
1, 36095, Note_on_c, 0, 73, 76
1, 36095, Note_on_c, 1, 67, 0
1, 36095, Note_on_c, 1, 64, 0
1, 36095, Note_on_c, 1, 62, 0
1, 36096, Note_on_c, 1, 66, 78
1, 36096, Note_on_c, 1, 62, 78
1, 36106, Note_on_c, 0, 73, 0
1, 36106, Note_on_c, 0, 74, 85
1, 36151, Note_on_c, 0, 74, 0
1, 36154, Note_on_c, 0, 69, 85
1, 36177, Note_on_c, 0, 69, 0
1, 36178, Note_on_c, 0, 78, 85
1, 36185, Note_on_c, 1, 66, 0
1, 36185, Note_on_c, 1, 62, 0
1, 36201, Note_on_c, 0, 78, 0
1, 36202, Note_on_c, 0, 76, 85
1, 36225, Note_on_c, 0, 76, 0
1, 36226, Note_on_c, 0, 74, 85
1, 36249, Note_on_c, 0, 74, 0
1, 36250, Note_on_c, 0, 73, 85
1, 36273, Note_on_c, 0, 73, 0
1, 36274, Note_on_c, 0, 71, 85
1, 36288, Note_on_c, 1, 64, 78
1, 36288, Note_on_c, 1, 61, 78
1, 36297, Note_on_c, 0, 71, 0
1, 36298, Note_on_c, 0, 69, 85
1, 36343, Note_on_c, 0, 69, 0
1, 36346, Note_on_c, 0, 79, 85
1, 36369, Note_on_c, 0, 79, 0
1, 36370, Note_on_c, 0, 83, 85
1, 36377, Note_on_c, 1, 64, 0
1, 36377, Note_on_c, 1, 61, 0
1, 36393, Note_on_c, 0, 83, 0
1, 36394, Note_on_c, 0, 81, 85
1, 36417, Note_on_c, 0, 81, 0
1, 36418, Note_on_c, 0, 79, 85
1, 36441, Note_on_c, 0, 79, 0
1, 36442, Note_on_c, 0, 78, 85
1, 36465, Note_on_c, 0, 78, 0
1, 36466, Note_on_c, 0, 76, 85
1, 36480, Note_on_c, 1, 66, 70
1, 36480, Note_on_c, 1, 62, 70
1, 36489, Note_on_c, 0, 76, 0
1, 36490, Note_on_c, 0, 78, 85
1, 36535, Note_on_c, 0, 78, 0
1, 36538, Note_on_c, 0, 69, 85
1, 36561, Note_on_c, 0, 69, 0
1, 36562, Note_on_c, 0, 78, 85
1, 36569, Note_on_c, 1, 66, 0
1, 36569, Note_on_c, 1, 62, 0
1, 36585, Note_on_c, 0, 78, 0
1, 36586, Note_on_c, 0, 76, 85
1, 36609, Note_on_c, 0, 76, 0
1, 36610, Note_on_c, 0, 74, 85
1, 36633, Note_on_c, 0, 74, 0
1, 36634, Note_on_c, 0, 73, 85
1, 36657, Note_on_c, 0, 73, 0
1, 36658, Note_on_c, 0, 71, 85
1, 36672, Note_on_c, 1, 64, 70
1, 36672, Note_on_c, 1, 61, 70
1, 36681, Note_on_c, 0, 71, 0
1, 36682, Note_on_c, 0, 69, 85
1, 36727, Note_on_c, 0, 69, 0
1, 36730, Note_on_c, 0, 79, 85
1, 36753, Note_on_c, 0, 79, 0
1, 36754, Note_on_c, 0, 83, 85
1, 36761, Note_on_c, 1, 64, 0
1, 36761, Note_on_c, 1, 61, 0
1, 36777, Note_on_c, 0, 83, 0
1, 36778, Note_on_c, 0, 81, 70
1, 36801, Note_on_c, 0, 81, 0
1, 36802, Note_on_c, 0, 79, 71
1, 36825, Note_on_c, 0, 79, 0
1, 36826, Note_on_c, 0, 78, 72
1, 36849, Note_on_c, 0, 78, 0
1, 36850, Note_on_c, 0, 76, 74
1, 36864, Note_on_c, 1, 62, 78
1, 36873, Note_on_c, 0, 76, 0
1, 36874, Note_on_c, 0, 78, 75
1, 36909, Note_on_c, 1, 62, 0
1, 36912, Note_on_c, 1, 57, 78
1, 36919, Note_on_c, 0, 78, 0
1, 36957, Note_on_c, 1, 57, 0
1, 36960, Note_on_c, 1, 64, 78
1, 36970, Note_on_c, 0, 81, 78
1, 36982, Note_on_c, 0, 81, 0
1, 36982, Note_on_c, 0, 79, 78
1, 36994, Note_on_c, 0, 79, 0
1, 36994, Note_on_c, 0, 78, 78
1, 37005, Note_on_c, 1, 64, 0
1, 37006, Note_on_c, 0, 78, 0
1, 37006, Note_on_c, 0, 79, 78
1, 37008, Note_on_c, 1, 57, 78
1, 37018, Note_on_c, 0, 79, 0
1, 37053, Note_on_c, 1, 57, 0
1, 37056, Note_on_c, 1, 66, 78
1, 37066, Note_on_c, 0, 83, 78
1, 37078, Note_on_c, 0, 83, 0
1, 37078, Note_on_c, 0, 81, 78
1, 37090, Note_on_c, 0, 81, 0
1, 37090, Note_on_c, 0, 79, 78
1, 37101, Note_on_c, 1, 66, 0
1, 37102, Note_on_c, 0, 79, 0
1, 37102, Note_on_c, 0, 81, 78
1, 37104, Note_on_c, 1, 57, 78
1, 37114, Note_on_c, 0, 81, 0
1, 37149, Note_on_c, 1, 57, 0
1, 37152, Note_on_c, 1, 64, 78
1, 37162, Note_on_c, 0, 81, 78
1, 37185, Note_on_c, 0, 81, 0
1, 37186, Note_on_c, 0, 79, 78
1, 37197, Note_on_c, 1, 64, 0
1, 37200, Note_on_c, 1, 57, 78
1, 37209, Note_on_c, 0, 79, 0
1, 37210, Note_on_c, 0, 78, 78
1, 37233, Note_on_c, 0, 78, 0
1, 37234, Note_on_c, 0, 76, 78
1, 37245, Note_on_c, 1, 57, 0
1, 37248, Note_on_c, 1, 62, 78
1, 37257, Note_on_c, 0, 76, 0
1, 37258, Note_on_c, 0, 78, 78
1, 37293, Note_on_c, 1, 62, 0
1, 37296, Note_on_c, 1, 57, 78
1, 37341, Note_on_c, 1, 57, 0
1, 37344, Note_on_c, 1, 64, 78
1, 37347, Note_on_c, 0, 78, 0
1, 37354, Note_on_c, 0, 79, 78
1, 37366, Note_on_c, 0, 79, 0
1, 37366, Note_on_c, 0, 81, 78
1, 37378, Note_on_c, 0, 81, 0
1, 37378, Note_on_c, 0, 79, 78
1, 37389, Note_on_c, 1, 64, 0
1, 37390, Note_on_c, 0, 79, 0
1, 37390, Note_on_c, 0, 81, 78
1, 37392, Note_on_c, 1, 57, 78
1, 37402, Note_on_c, 0, 81, 0
1, 37402, Note_on_c, 0, 79, 78
1, 37414, Note_on_c, 0, 79, 0
1, 37414, Note_on_c, 0, 81, 78
1, 37421, Note_on_c, 0, 81, 0
1, 37426, Note_on_c, 0, 78, 78
1, 37437, Note_on_c, 1, 57, 0
1, 37438, Note_on_c, 0, 78, 0
1, 37438, Note_on_c, 0, 79, 78
1, 37440, Note_on_c, 1, 66, 78
1, 37450, Note_on_c, 0, 79, 0
1, 37450, Note_on_c, 0, 81, 78
1, 37485, Note_on_c, 1, 66, 0
1, 37488, Note_on_c, 1, 57, 78
1, 37533, Note_on_c, 1, 57, 0
1, 37536, Note_on_c, 1, 64, 78
1, 37539, Note_on_c, 0, 81, 0
1, 37546, Note_on_c, 0, 81, 78
1, 37569, Note_on_c, 0, 81, 0
1, 37570, Note_on_c, 0, 79, 78
1, 37581, Note_on_c, 1, 64, 0
1, 37584, Note_on_c, 1, 57, 78
1, 37593, Note_on_c, 0, 79, 0
1, 37594, Note_on_c, 0, 78, 78
1, 37617, Note_on_c, 0, 78, 0
1, 37618, Note_on_c, 0, 76, 78
1, 37629, Note_on_c, 1, 57, 0
1, 37632, Note_on_c, 1, 62, 78
1, 37641, Note_on_c, 0, 76, 0
1, 37642, Note_on_c, 0, 78, 78
1, 37665, Note_on_c, 0, 78, 0
1, 37666, Note_on_c, 0, 74, 78
1, 37677, Note_on_c, 1, 62, 0
1, 37680, Note_on_c, 1, 64, 78
1, 37689, Note_on_c, 0, 74, 0
1, 37690, Note_on_c, 0, 79, 78
1, 37713, Note_on_c, 0, 79, 0
1, 37714, Note_on_c, 0, 74, 79
1, 37725, Note_on_c, 1, 64, 0
1, 37728, Note_on_c, 1, 66, 79
1, 37737, Note_on_c, 0, 74, 0
1, 37738, Note_on_c, 0, 81, 79
1, 37761, Note_on_c, 0, 81, 0
1, 37762, Note_on_c, 0, 74, 80
1, 37773, Note_on_c, 1, 66, 0
1, 37776, Note_on_c, 1, 67, 80
1, 37785, Note_on_c, 0, 74, 0
1, 37786, Note_on_c, 0, 83, 81
1, 37809, Note_on_c, 0, 83, 0
1, 37810, Note_on_c, 0, 74, 81
1, 37821, Note_on_c, 1, 67, 0
1, 37824, Note_on_c, 1, 69, 82
1, 37833, Note_on_c, 0, 74, 0
1, 37834, Note_on_c, 0, 73, 82
1, 37844, Note_on_c, 0, 73, 0
1, 37844, Note_on_c, 0, 74, 82
1, 37854, Note_on_c, 0, 74, 0
1, 37854, Note_on_c, 0, 73, 82
1, 37864, Note_on_c, 0, 73, 0
1, 37864, Note_on_c, 0, 71, 82
1, 37869, Note_on_c, 1, 69, 0
1, 37872, Note_on_c, 1, 62, 83
1, 37873, Note_on_c, 0, 71, 0
1, 37873, Note_on_c, 0, 73, 83
1, 37882, Note_on_c, 0, 73, 0
1, 37882, Note_on_c, 0, 74, 83
1, 37917, Note_on_c, 1, 62, 0
1, 37927, Note_on_c, 0, 74, 0
1, 38016, Note_on_c, 1, 50, 85
1, 38039, Note_on_c, 1, 50, 0
1, 38040, Note_on_c, 1, 54, 85
1, 38063, Note_on_c, 1, 54, 0
1, 38074, Note_on_c, 0, 57, 85
1, 38097, Note_on_c, 0, 57, 0
1, 38098, Note_on_c, 0, 62, 85
1, 38121, Note_on_c, 0, 62, 0
1, 38122, Note_on_c, 0, 66, 85
1, 38145, Note_on_c, 0, 66, 0
1, 38146, Note_on_c, 0, 62, 85
1, 38169, Note_on_c, 0, 62, 0
1, 38170, Note_on_c, 0, 57, 85
1, 38193, Note_on_c, 0, 57, 0
1, 38194, Note_on_c, 0, 62, 85
1, 38208, Note_on_c, 1, 50, 85
1, 38208, Note_on_c, 1, 38, 85
1, 38217, Note_on_c, 0, 62, 0
1, 38253, Note_on_c, 1, 50, 0
1, 38253, Note_on_c, 1, 38, 0
1, 38266, Note_on_c, 0, 66, 85
1, 38289, Note_on_c, 0, 66, 0
1, 38290, Note_on_c, 0, 69, 85
1, 38313, Note_on_c, 0, 69, 0
1, 38314, Note_on_c, 0, 67, 85
1, 38337, Note_on_c, 0, 67, 0
1, 38338, Note_on_c, 0, 66, 85
1, 38361, Note_on_c, 0, 66, 0
1, 38362, Note_on_c, 0, 64, 85
1, 38385, Note_on_c, 0, 64, 0
1, 38386, Note_on_c, 0, 62, 85
1, 38400, Note_on_c, 1, 61, 85
1, 38409, Note_on_c, 0, 62, 0
1, 38423, Note_on_c, 1, 61, 0
1, 38424, Note_on_c, 1, 64, 85
1, 38447, Note_on_c, 1, 64, 0
1, 38458, Note_on_c, 0, 69, 85
1, 38481, Note_on_c, 0, 69, 0
1, 38482, Note_on_c, 0, 73, 85
1, 38505, Note_on_c, 0, 73, 0
1, 38506, Note_on_c, 0, 76, 85
1, 38529, Note_on_c, 0, 76, 0
1, 38530, Note_on_c, 0, 73, 85
1, 38553, Note_on_c, 0, 73, 0
1, 38554, Note_on_c, 0, 69, 85
1, 38577, Note_on_c, 0, 69, 0
1, 38578, Note_on_c, 0, 73, 85
1, 38592, Note_on_c, 1, 45, 85
1, 38592, Note_on_c, 1, 33, 85
1, 38601, Note_on_c, 0, 73, 0
1, 38637, Note_on_c, 1, 45, 0
1, 38637, Note_on_c, 1, 33, 0
1, 38650, Note_on_c, 0, 67, 85
1, 38673, Note_on_c, 0, 67, 0
1, 38674, Note_on_c, 0, 71, 85
1, 38697, Note_on_c, 0, 71, 0
1, 38698, Note_on_c, 0, 69, 85
1, 38721, Note_on_c, 0, 69, 0
1, 38722, Note_on_c, 0, 67, 85
1, 38745, Note_on_c, 0, 67, 0
1, 38746, Note_on_c, 0, 66, 85
1, 38769, Note_on_c, 0, 66, 0
1, 38770, Note_on_c, 0, 64, 85
1, 38793, Note_on_c, 0, 64, 0
1, 38794, Note_on_c, 0, 62, 85
1, 38817, Note_on_c, 0, 62, 0
1, 38818, Note_on_c, 0, 66, 85
1, 38841, Note_on_c, 0, 66, 0
1, 38842, Note_on_c, 0, 69, 85
1, 38865, Note_on_c, 0, 69, 0
1, 38866, Note_on_c, 0, 74, 85
1, 38889, Note_on_c, 0, 74, 0
1, 38890, Note_on_c, 0, 78, 85
1, 38913, Note_on_c, 0, 78, 0
1, 38914, Note_on_c, 0, 74, 85
1, 38937, Note_on_c, 0, 74, 0
1, 38938, Note_on_c, 0, 69, 85
1, 38961, Note_on_c, 0, 69, 0
1, 38962, Note_on_c, 0, 74, 85
1, 38985, Note_on_c, 0, 74, 0
1, 38986, Note_on_c, 0, 64, 86
1, 39009, Note_on_c, 0, 64, 0
1, 39010, Note_on_c, 0, 67, 86
1, 39033, Note_on_c, 0, 67, 0
1, 39034, Note_on_c, 0, 73, 86
1, 39057, Note_on_c, 0, 73, 0
1, 39058, Note_on_c, 0, 76, 86
1, 39081, Note_on_c, 0, 76, 0
1, 39082, Note_on_c, 0, 79, 86
1, 39105, Note_on_c, 0, 79, 0
1, 39106, Note_on_c, 0, 76, 86
1, 39129, Note_on_c, 0, 76, 0
1, 39130, Note_on_c, 0, 73, 86
1, 39153, Note_on_c, 0, 73, 0
1, 39154, Note_on_c, 0, 76, 86
1, 39177, Note_on_c, 0, 76, 0
1, 39178, Note_on_c, 0, 66, 87
1, 39201, Note_on_c, 0, 66, 0
1, 39202, Note_on_c, 0, 69, 87
1, 39225, Note_on_c, 0, 69, 0
1, 39226, Note_on_c, 0, 74, 87
1, 39249, Note_on_c, 0, 74, 0
1, 39250, Note_on_c, 0, 78, 87
1, 39273, Note_on_c, 0, 78, 0
1, 39274, Note_on_c, 0, 81, 87
1, 39297, Note_on_c, 0, 81, 0
1, 39298, Note_on_c, 0, 78, 87
1, 39321, Note_on_c, 0, 78, 0
1, 39322, Note_on_c, 0, 74, 87
1, 39345, Note_on_c, 0, 74, 0
1, 39346, Note_on_c, 0, 78, 87
1, 39369, Note_on_c, 0, 78, 0
1, 39370, Note_on_c, 0, 67, 88
1, 39393, Note_on_c, 0, 67, 0
1, 39394, Note_on_c, 0, 71, 88
1, 39417, Note_on_c, 0, 71, 0
1, 39418, Note_on_c, 0, 74, 88
1, 39441, Note_on_c, 0, 74, 0
1, 39442, Note_on_c, 0, 79, 88
1, 39465, Note_on_c, 0, 79, 0
1, 39466, Note_on_c, 0, 83, 88
1, 39489, Note_on_c, 0, 83, 0
1, 39490, Note_on_c, 0, 79, 88
1, 39513, Note_on_c, 0, 79, 0
1, 39514, Note_on_c, 0, 74, 88
1, 39537, Note_on_c, 0, 74, 0
1, 39538, Note_on_c, 0, 79, 88
1, 39561, Note_on_c, 0, 79, 0
1, 39562, Note_on_c, 0, 68, 89
1, 39585, Note_on_c, 0, 68, 0
1, 39586, Note_on_c, 0, 71, 89
1, 39609, Note_on_c, 0, 71, 0
1, 39610, Note_on_c, 0, 74, 89
1, 39633, Note_on_c, 0, 74, 0
1, 39634, Note_on_c, 0, 77, 89
1, 39657, Note_on_c, 0, 77, 0
1, 39658, Note_on_c, 0, 83, 89
1, 39681, Note_on_c, 0, 83, 0
1, 39682, Note_on_c, 0, 77, 89
1, 39705, Note_on_c, 0, 77, 0
1, 39706, Note_on_c, 0, 74, 89
1, 39729, Note_on_c, 0, 74, 0
1, 39730, Note_on_c, 0, 77, 89
1, 39753, Note_on_c, 0, 77, 0
1, 39754, Note_on_c, 0, 68, 90
1, 39777, Note_on_c, 0, 68, 0
1, 39778, Note_on_c, 0, 71, 90
1, 39801, Note_on_c, 0, 71, 0
1, 39802, Note_on_c, 0, 74, 90
1, 39825, Note_on_c, 0, 74, 0
1, 39826, Note_on_c, 0, 77, 90
1, 39849, Note_on_c, 0, 77, 0
1, 39850, Note_on_c, 0, 83, 90
1, 39873, Note_on_c, 0, 83, 0
1, 39874, Note_on_c, 0, 77, 90
1, 39897, Note_on_c, 0, 77, 0
1, 39898, Note_on_c, 0, 76, 90
1, 39921, Note_on_c, 0, 76, 0
1, 39922, Note_on_c, 0, 74, 90
1, 39936, Note_on_c, 1, 57, 85
1, 39945, Note_on_c, 0, 74, 0
1, 39946, Note_on_c, 0, 73, 91
1, 39969, Note_on_c, 0, 73, 0
1, 39970, Note_on_c, 0, 69, 91
1, 39981, Note_on_c, 1, 57, 0
1, 39984, Note_on_c, 1, 59, 85
1, 39993, Note_on_c, 0, 69, 0
1, 39994, Note_on_c, 0, 74, 91
1, 40017, Note_on_c, 0, 74, 0
1, 40018, Note_on_c, 0, 69, 91
1, 40029, Note_on_c, 1, 59, 0
1, 40032, Note_on_c, 1, 61, 85
1, 40041, Note_on_c, 0, 69, 0
1, 40042, Note_on_c, 0, 76, 91
1, 40065, Note_on_c, 0, 76, 0
1, 40066, Note_on_c, 0, 69, 91
1, 40077, Note_on_c, 1, 61, 0
1, 40080, Note_on_c, 1, 62, 85
1, 40089, Note_on_c, 0, 69, 0
1, 40090, Note_on_c, 0, 78, 91
1, 40113, Note_on_c, 0, 78, 0
1, 40114, Note_on_c, 0, 69, 91
1, 40125, Note_on_c, 1, 62, 0
1, 40128, Note_on_c, 1, 64, 85
1, 40137, Note_on_c, 0, 69, 0
1, 40138, Note_on_c, 0, 79, 91
1, 40161, Note_on_c, 0, 79, 0
1, 40162, Note_on_c, 0, 78, 91
1, 40185, Note_on_c, 0, 78, 0
1, 40186, Note_on_c, 0, 76, 91
1, 40209, Note_on_c, 0, 76, 0
1, 40210, Note_on_c, 0, 74, 91
1, 40217, Note_on_c, 1, 64, 0
1, 40233, Note_on_c, 0, 74, 0
1, 40234, Note_on_c, 0, 73, 91
1, 40257, Note_on_c, 0, 73, 0
1, 40258, Note_on_c, 0, 71, 91
1, 40281, Note_on_c, 0, 71, 0
1, 40282, Note_on_c, 0, 69, 91
1, 40305, Note_on_c, 0, 69, 0
1, 40306, Note_on_c, 0, 67, 91
1, 40320, Note_on_c, 1, 50, 85
1, 40329, Note_on_c, 0, 67, 0
1, 40330, Note_on_c, 0, 66, 91
1, 40353, Note_on_c, 0, 66, 0
1, 40354, Note_on_c, 0, 62, 91
1, 40365, Note_on_c, 1, 50, 0
1, 40368, Note_on_c, 1, 52, 85
1, 40377, Note_on_c, 0, 62, 0
1, 40378, Note_on_c, 0, 67, 91
1, 40401, Note_on_c, 0, 67, 0
1, 40402, Note_on_c, 0, 62, 91
1, 40413, Note_on_c, 1, 52, 0
1, 40416, Note_on_c, 1, 54, 85
1, 40425, Note_on_c, 0, 62, 0
1, 40426, Note_on_c, 0, 69, 91
1, 40449, Note_on_c, 0, 69, 0
1, 40450, Note_on_c, 0, 62, 91
1, 40461, Note_on_c, 1, 54, 0
1, 40464, Note_on_c, 1, 55, 85
1, 40473, Note_on_c, 0, 62, 0
1, 40474, Note_on_c, 0, 71, 91
1, 40497, Note_on_c, 0, 71, 0
1, 40498, Note_on_c, 0, 62, 91
1, 40509, Note_on_c, 1, 55, 0
1, 40512, Note_on_c, 1, 54, 85
1, 40521, Note_on_c, 0, 62, 0
1, 40522, Note_on_c, 0, 69, 91
1, 40545, Note_on_c, 0, 69, 0
1, 40546, Note_on_c, 0, 62, 90
1, 40557, Note_on_c, 1, 54, 0
1, 40560, Note_on_c, 1, 55, 83
1, 40569, Note_on_c, 0, 62, 0
1, 40570, Note_on_c, 0, 71, 89
1, 40593, Note_on_c, 0, 71, 0
1, 40594, Note_on_c, 0, 62, 88
1, 40605, Note_on_c, 1, 55, 0
1, 40608, Note_on_c, 1, 54, 81
1, 40617, Note_on_c, 0, 62, 0
1, 40618, Note_on_c, 0, 69, 88
1, 40641, Note_on_c, 0, 69, 0
1, 40642, Note_on_c, 0, 62, 87
1, 40653, Note_on_c, 1, 54, 0
1, 40656, Note_on_c, 1, 52, 79
1, 40665, Note_on_c, 0, 62, 0
1, 40666, Note_on_c, 0, 67, 86
1, 40689, Note_on_c, 0, 67, 0
1, 40690, Note_on_c, 0, 62, 85
1, 40701, Note_on_c, 1, 52, 0
1, 40704, Note_on_c, 1, 50, 78
1, 40713, Note_on_c, 0, 62, 0
1, 40714, Note_on_c, 0, 66, 85
1, 40737, Note_on_c, 0, 66, 0
1, 40738, Note_on_c, 0, 62, 85
1, 40749, Note_on_c, 1, 50, 0
1, 40752, Note_on_c, 1, 52, 78
1, 40761, Note_on_c, 0, 62, 0
1, 40762, Note_on_c, 0, 67, 85
1, 40785, Note_on_c, 0, 67, 0
1, 40786, Note_on_c, 0, 62, 85
1, 40797, Note_on_c, 1, 52, 0
1, 40800, Note_on_c, 1, 54, 78
1, 40809, Note_on_c, 0, 62, 0
1, 40810, Note_on_c, 0, 69, 85
1, 40833, Note_on_c, 0, 69, 0
1, 40834, Note_on_c, 0, 62, 85
1, 40845, Note_on_c, 1, 54, 0
1, 40848, Note_on_c, 1, 55, 78
1, 40857, Note_on_c, 0, 62, 0
1, 40858, Note_on_c, 0, 71, 85
1, 40881, Note_on_c, 0, 71, 0
1, 40882, Note_on_c, 0, 62, 85
1, 40893, Note_on_c, 1, 55, 0
1, 40896, Note_on_c, 1, 54, 78
1, 40905, Note_on_c, 0, 62, 0
1, 40906, Note_on_c, 0, 69, 85
1, 40929, Note_on_c, 0, 69, 0
1, 40930, Note_on_c, 0, 62, 85
1, 40941, Note_on_c, 1, 54, 0
1, 40944, Note_on_c, 1, 55, 78
1, 40953, Note_on_c, 0, 62, 0
1, 40954, Note_on_c, 0, 71, 85
1, 40977, Note_on_c, 0, 71, 0
1, 40978, Note_on_c, 0, 62, 85
1, 40989, Note_on_c, 1, 55, 0
1, 40992, Note_on_c, 1, 54, 78
1, 41001, Note_on_c, 0, 62, 0
1, 41002, Note_on_c, 0, 69, 85
1, 41037, Note_on_c, 1, 54, 0
1, 41047, Note_on_c, 0, 69, 0
1, 41050, Note_on_c, 0, 74, 101
1, 41070, Note_on_c, 0, 74, 0
1, 41098, Note_on_c, 0, 64, 78
1, 41136, Note_on_c, 1, 59, 70
1, 41136, Note_on_c, 1, 55, 70
1, 41156, Note_on_c, 1, 59, 0
1, 41156, Note_on_c, 1, 55, 0
1, 41184, Note_on_c, 1, 59, 70
1, 41184, Note_on_c, 1, 55, 70
1, 41231, Note_on_c, 0, 64, 0
1, 41231, Note_on_c, 1, 59, 0
1, 41231, Note_on_c, 1, 55, 0
1, 41242, Note_on_c, 0, 67, 78
1, 41254, Note_on_c, 0, 67, 0
1, 41254, Note_on_c, 0, 69, 78
1, 41266, Note_on_c, 0, 69, 0
1, 41266, Note_on_c, 0, 71, 78
1, 41289, Note_on_c, 0, 71, 0
1, 41290, Note_on_c, 0, 62, 78
1, 41328, Note_on_c, 1, 54, 78
1, 41373, Note_on_c, 1, 54, 0
1, 41376, Note_on_c, 1, 55, 78
1, 41421, Note_on_c, 1, 55, 0
1, 41423, Note_on_c, 0, 62, 0
1, 41424, Note_on_c, 1, 57, 78
1, 41434, Note_on_c, 0, 66, 78
1, 41446, Note_on_c, 0, 66, 0
1, 41446, Note_on_c, 0, 64, 78
1, 41458, Note_on_c, 0, 64, 0
1, 41458, Note_on_c, 0, 62, 78
1, 41469, Note_on_c, 1, 57, 0
1, 41470, Note_on_c, 0, 62, 0
1, 41470, Note_on_c, 0, 61, 78
1, 41472, Note_on_c, 1, 50, 78
1, 41482, Note_on_c, 0, 61, 0
1, 41482, Note_on_c, 0, 62, 78
1, 41527, Note_on_c, 0, 62, 0
1, 41530, Note_on_c, 0, 74, 78
1, 41545, Note_on_c, 0, 74, 0
1, 41546, Note_on_c, 0, 73, 78
1, 41561, Note_on_c, 0, 73, 0
1, 41561, Note_on_c, 1, 50, 0
1, 41562, Note_on_c, 0, 71, 78
1, 41577, Note_on_c, 0, 71, 0
1, 41578, Note_on_c, 0, 69, 78
1, 41616, Note_on_c, 1, 67, 78
1, 41616, Note_on_c, 1, 61, 78
1, 41623, Note_on_c, 0, 69, 0
1, 41626, Note_on_c, 0, 69, 78
1, 41661, Note_on_c, 1, 67, 0
1, 41661, Note_on_c, 1, 61, 0
1, 41664, Note_on_c, 1, 66, 78
1, 41664, Note_on_c, 1, 62, 78
1, 41671, Note_on_c, 0, 69, 0
1, 41674, Note_on_c, 0, 69, 78
1, 41689, Note_on_c, 0, 69, 0
1, 41690, Note_on_c, 0, 71, 78
1, 41705, Note_on_c, 0, 71, 0
1, 41706, Note_on_c, 0, 73, 78
1, 41721, Note_on_c, 0, 73, 0
1, 41722, Note_on_c, 0, 74, 78
1, 41737, Note_on_c, 0, 74, 0
1, 41738, Note_on_c, 0, 73, 78
1, 41753, Note_on_c, 0, 73, 0
1, 41753, Note_on_c, 1, 66, 0
1, 41753, Note_on_c, 1, 62, 0
1, 41754, Note_on_c, 0, 71, 78
1, 41769, Note_on_c, 0, 71, 0
1, 41770, Note_on_c, 0, 69, 78
1, 41808, Note_on_c, 1, 67, 78
1, 41808, Note_on_c, 1, 61, 78
1, 41815, Note_on_c, 0, 69, 0
1, 41818, Note_on_c, 0, 69, 78
1, 41853, Note_on_c, 1, 67, 0
1, 41853, Note_on_c, 1, 61, 0
1, 41856, Note_on_c, 1, 66, 78
1, 41856, Note_on_c, 1, 62, 78
1, 41863, Note_on_c, 0, 69, 0
1, 41866, Note_on_c, 0, 69, 78
1, 41881, Note_on_c, 0, 69, 0
1, 41882, Note_on_c, 0, 71, 78
1, 41897, Note_on_c, 0, 71, 0
1, 41898, Note_on_c, 0, 73, 78
1, 41913, Note_on_c, 0, 73, 0
1, 41914, Note_on_c, 0, 74, 78
1, 41929, Note_on_c, 0, 74, 0
1, 41930, Note_on_c, 0, 73, 78
1, 41945, Note_on_c, 0, 73, 0
1, 41945, Note_on_c, 1, 66, 0
1, 41945, Note_on_c, 1, 62, 0
1, 41946, Note_on_c, 0, 71, 78
1, 41961, Note_on_c, 0, 71, 0
1, 41962, Note_on_c, 0, 69, 78
1, 42000, Note_on_c, 1, 54, 78
1, 42007, Note_on_c, 0, 69, 0
1, 42010, Note_on_c, 0, 70, 78
1, 42045, Note_on_c, 1, 54, 0
1, 42048, Note_on_c, 1, 55, 78
1, 42055, Note_on_c, 0, 70, 0
1, 42058, Note_on_c, 0, 71, 78
1, 42103, Note_on_c, 0, 71, 0
1, 42106, Note_on_c, 0, 63, 78
1, 42129, Note_on_c, 0, 63, 0
1, 42130, Note_on_c, 0, 64, 78
1, 42137, Note_on_c, 1, 55, 0
1, 42153, Note_on_c, 0, 64, 0
1, 42154, Note_on_c, 0, 66, 78
1, 42177, Note_on_c, 0, 66, 0
1, 42178, Note_on_c, 0, 67, 78
1, 42201, Note_on_c, 0, 67, 0
1, 42202, Note_on_c, 0, 69, 78
1, 42225, Note_on_c, 0, 69, 0
1, 42226, Note_on_c, 0, 71, 78
1, 42249, Note_on_c, 0, 71, 0
1, 42250, Note_on_c, 0, 69, 94
1, 42288, Note_on_c, 1, 54, 78
1, 42298, Note_on_c, 0, 69, 0
1, 42298, Note_on_c, 0, 67, 78
1, 42310, Note_on_c, 0, 67, 0
1, 42310, Note_on_c, 0, 66, 78
1, 42322, Note_on_c, 0, 66, 0
1, 42322, Note_on_c, 0, 64, 78
1, 42333, Note_on_c, 1, 54, 0
1, 42334, Note_on_c, 0, 64, 0
1, 42334, Note_on_c, 0, 62, 78
1, 42336, Note_on_c, 1, 55, 78
1, 42346, Note_on_c, 0, 62, 0
1, 42346, Note_on_c, 0, 64, 78
1, 42357, Note_on_c, 0, 64, 0
1, 42357, Note_on_c, 0, 66, 78
1, 42368, Note_on_c, 0, 66, 0
1, 42368, Note_on_c, 0, 64, 78
1, 42379, Note_on_c, 0, 64, 0
1, 42379, Note_on_c, 0, 66, 78
1, 42381, Note_on_c, 1, 55, 0
1, 42384, Note_on_c, 1, 57, 78
1, 42390, Note_on_c, 0, 66, 0
1, 42390, Note_on_c, 0, 64, 78
1, 42401, Note_on_c, 0, 64, 0
1, 42401, Note_on_c, 0, 66, 78
1, 42412, Note_on_c, 0, 66, 0
1, 42412, Note_on_c, 0, 64, 78
1, 42422, Note_on_c, 0, 64, 0
1, 42422, Note_on_c, 0, 62, 78
1, 42429, Note_on_c, 1, 57, 0
1, 42432, Note_on_c, 0, 62, 0
1, 42432, Note_on_c, 0, 64, 78
1, 42432, Note_on_c, 1, 50, 78
1, 42442, Note_on_c, 0, 64, 0
1, 42442, Note_on_c, 0, 62, 78
1, 42487, Note_on_c, 0, 62, 0
1, 42490, Note_on_c, 0, 86, 78
1, 42505, Note_on_c, 0, 86, 0
1, 42506, Note_on_c, 0, 85, 78
1, 42521, Note_on_c, 0, 85, 0
1, 42521, Note_on_c, 1, 50, 0
1, 42522, Note_on_c, 0, 83, 78
1, 42537, Note_on_c, 0, 83, 0
1, 42538, Note_on_c, 0, 81, 78
1, 42576, Note_on_c, 1, 67, 78
1, 42576, Note_on_c, 1, 61, 78
1, 42583, Note_on_c, 0, 81, 0
1, 42586, Note_on_c, 0, 81, 78
1, 42621, Note_on_c, 1, 67, 0
1, 42621, Note_on_c, 1, 61, 0
1, 42624, Note_on_c, 1, 66, 78
1, 42624, Note_on_c, 1, 62, 78
1, 42631, Note_on_c, 0, 81, 0
1, 42634, Note_on_c, 0, 81, 78
1, 42649, Note_on_c, 0, 81, 0
1, 42650, Note_on_c, 0, 83, 78
1, 42665, Note_on_c, 0, 83, 0
1, 42666, Note_on_c, 0, 85, 78
1, 42681, Note_on_c, 0, 85, 0
1, 42682, Note_on_c, 0, 86, 78
1, 42697, Note_on_c, 0, 86, 0
1, 42698, Note_on_c, 0, 85, 78
1, 42713, Note_on_c, 0, 85, 0
1, 42713, Note_on_c, 1, 66, 0
1, 42713, Note_on_c, 1, 62, 0
1, 42714, Note_on_c, 0, 83, 78
1, 42729, Note_on_c, 0, 83, 0
1, 42730, Note_on_c, 0, 81, 78
1, 42768, Note_on_c, 1, 67, 78
1, 42768, Note_on_c, 1, 61, 78
1, 42775, Note_on_c, 0, 81, 0
1, 42778, Note_on_c, 0, 81, 78
1, 42813, Note_on_c, 1, 67, 0
1, 42813, Note_on_c, 1, 61, 0
1, 42816, Note_on_c, 1, 66, 78
1, 42816, Note_on_c, 1, 62, 78
1, 42823, Note_on_c, 0, 81, 0
1, 42826, Note_on_c, 0, 81, 78
1, 42841, Note_on_c, 0, 81, 0
1, 42842, Note_on_c, 0, 83, 78
1, 42857, Note_on_c, 0, 83, 0
1, 42858, Note_on_c, 0, 85, 78
1, 42873, Note_on_c, 0, 85, 0
1, 42874, Note_on_c, 0, 86, 78
1, 42889, Note_on_c, 0, 86, 0
1, 42890, Note_on_c, 0, 85, 78
1, 42905, Note_on_c, 0, 85, 0
1, 42905, Note_on_c, 1, 66, 0
1, 42905, Note_on_c, 1, 62, 0
1, 42906, Note_on_c, 0, 83, 78
1, 42921, Note_on_c, 0, 83, 0
1, 42922, Note_on_c, 0, 81, 78
1, 42960, Note_on_c, 1, 66, 78
1, 42967, Note_on_c, 0, 81, 0
1, 42970, Note_on_c, 0, 82, 78
1, 43005, Note_on_c, 1, 66, 0
1, 43008, Note_on_c, 1, 67, 78
1, 43015, Note_on_c, 0, 82, 0
1, 43018, Note_on_c, 0, 83, 78
1, 43063, Note_on_c, 0, 83, 0
1, 43066, Note_on_c, 0, 75, 78
1, 43089, Note_on_c, 0, 75, 0
1, 43090, Note_on_c, 0, 76, 78
1, 43097, Note_on_c, 1, 67, 0
1, 43113, Note_on_c, 0, 76, 0
1, 43114, Note_on_c, 0, 78, 78
1, 43137, Note_on_c, 0, 78, 0
1, 43138, Note_on_c, 0, 79, 78
1, 43161, Note_on_c, 0, 79, 0
1, 43162, Note_on_c, 0, 81, 78
1, 43185, Note_on_c, 0, 81, 0
1, 43186, Note_on_c, 0, 83, 78
1, 43209, Note_on_c, 0, 83, 0
1, 43210, Note_on_c, 0, 81, 94
1, 43248, Note_on_c, 1, 66, 78
1, 43258, Note_on_c, 0, 81, 0
1, 43258, Note_on_c, 0, 79, 78
1, 43270, Note_on_c, 0, 79, 0
1, 43270, Note_on_c, 0, 78, 78
1, 43282, Note_on_c, 0, 78, 0
1, 43282, Note_on_c, 0, 76, 78
1, 43293, Note_on_c, 1, 66, 0
1, 43294, Note_on_c, 0, 76, 0
1, 43294, Note_on_c, 0, 74, 78
1, 43296, Note_on_c, 1, 67, 78
1, 43306, Note_on_c, 0, 74, 0
1, 43306, Note_on_c, 0, 76, 78
1, 43317, Note_on_c, 0, 76, 0
1, 43317, Note_on_c, 0, 78, 78
1, 43328, Note_on_c, 0, 78, 0
1, 43328, Note_on_c, 0, 76, 78
1, 43339, Note_on_c, 0, 76, 0
1, 43339, Note_on_c, 0, 78, 78
1, 43341, Note_on_c, 1, 67, 0
1, 43344, Note_on_c, 1, 69, 78
1, 43350, Note_on_c, 0, 78, 0
1, 43350, Note_on_c, 0, 76, 78
1, 43361, Note_on_c, 0, 76, 0
1, 43361, Note_on_c, 0, 78, 78
1, 43372, Note_on_c, 0, 78, 0
1, 43372, Note_on_c, 0, 76, 78
1, 43382, Note_on_c, 0, 76, 0
1, 43382, Note_on_c, 0, 74, 78
1, 43389, Note_on_c, 1, 69, 0
1, 43392, Note_on_c, 0, 74, 0
1, 43392, Note_on_c, 0, 76, 78
1, 43392, Note_on_c, 1, 62, 78
1, 43402, Note_on_c, 0, 76, 0
1, 43402, Note_on_c, 0, 74, 78
1, 43447, Note_on_c, 0, 74, 0
1, 43450, Note_on_c, 0, 69, 78
1, 43473, Note_on_c, 0, 69, 0
1, 43474, Note_on_c, 0, 74, 78
1, 43481, Note_on_c, 1, 62, 0
1, 43497, Note_on_c, 0, 74, 0
1, 43498, Note_on_c, 0, 66, 78
1, 43521, Note_on_c, 0, 66, 0
1, 43522, Note_on_c, 0, 69, 78
1, 43545, Note_on_c, 0, 69, 0
1, 43546, Note_on_c, 0, 62, 78
1, 43569, Note_on_c, 0, 62, 0
1, 43570, Note_on_c, 0, 66, 78
1, 43584, Note_on_c, 1, 50, 85
1, 43584, Note_on_c, 1, 38, 85
1, 43593, Note_on_c, 0, 66, 0
1, 43673, Note_on_c, 1, 50, 0
1, 43673, Note_on_c, 1, 38, 0
1, 43776, Note_on_c, 1, 38, 0
1, 44130, Note_on_c, 1, 38, 0
1, 44140, End_track
0, 0, End_of_file