0, 0, Header, 0, 1, 96
1, 0, Start_track
1, 0, Tempo, 375000
1, 96, Note_on_c, 0, 79, 75
1, 144, Note_on_c, 0, 79, 0
1, 144, Note_on_c, 0, 76, 75
1, 164, Note_on_c, 0, 76, 0
1, 192, Note_on_c, 1, 64, 75
1, 192, Note_on_c, 1, 60, 75
1, 237, Note_on_c, 1, 64, 0
1, 237, Note_on_c, 1, 60, 0
1, 240, Note_on_c, 0, 72, 75
1, 288, Note_on_c, 0, 72, 0
1, 288, Note_on_c, 0, 71, 75
1, 308, Note_on_c, 0, 71, 0
1, 336, Note_on_c, 1, 65, 75
1, 336, Note_on_c, 1, 62, 75
1, 381, Note_on_c, 1, 65, 0
1, 381, Note_on_c, 1, 62, 0
1, 384, Note_on_c, 0, 67, 75
1, 429, Note_on_c, 0, 67, 0
1, 432, Note_on_c, 0, 72, 75
1, 455, Note_on_c, 0, 72, 0
1, 456, Note_on_c, 0, 76, 75
1, 479, Note_on_c, 0, 76, 0
1, 480, Note_on_c, 0, 79, 75
1, 480, Note_on_c, 1, 64, 75
1, 503, Note_on_c, 0, 79, 0
1, 504, Note_on_c, 0, 84, 75
1, 525, Note_on_c, 1, 64, 0
1, 527, Note_on_c, 0, 84, 0
1, 528, Note_on_c, 0, 79, 75
1, 528, Note_on_c, 1, 60, 75
1, 551, Note_on_c, 0, 79, 0
1, 552, Note_on_c, 0, 76, 75
1, 573, Note_on_c, 1, 60, 0
1, 575, Note_on_c, 0, 76, 0
1, 576, Note_on_c, 0, 77, 75
1, 576, Note_on_c, 1, 62, 75
1, 576, Note_on_c, 1, 55, 75
1, 588, Note_on_c, 0, 77, 0
1, 588, Note_on_c, 0, 79, 75
1, 600, Note_on_c, 0, 79, 0
1, 600, Note_on_c, 0, 77, 75
1, 621, Note_on_c, 0, 77, 0
1, 621, Note_on_c, 1, 62, 0
1, 621, Note_on_c, 1, 55, 0
1, 624, Note_on_c, 0, 76, 75
1, 624, Note_on_c, 1, 60, 75
1, 669, Note_on_c, 0, 76, 0
1, 669, Note_on_c, 1, 60, 0
1, 672, Note_on_c, 0, 79, 75
1, 720, Note_on_c, 0, 79, 0
1, 720, Note_on_c, 0, 76, 75
1, 740, Note_on_c, 0, 76, 0
1, 768, Note_on_c, 1, 64, 75
1, 768, Note_on_c, 1, 60, 75
1, 813, Note_on_c, 1, 64, 0
1, 813, Note_on_c, 1, 60, 0
1, 816, Note_on_c, 0, 72, 75
1, 864, Note_on_c, 0, 72, 0
1, 864, Note_on_c, 0, 71, 75
1, 884, Note_on_c, 0, 71, 0
1, 912, Note_on_c, 1, 65, 75
1, 912, Note_on_c, 1, 62, 75
1, 957, Note_on_c, 1, 65, 0
1, 957, Note_on_c, 1, 62, 0
1, 960, Note_on_c, 0, 67, 75
1, 1005, Note_on_c, 0, 67, 0
1, 1008, Note_on_c, 0, 71, 75
1, 1031, Note_on_c, 0, 71, 0
1, 1032, Note_on_c, 0, 72, 75
1, 1055, Note_on_c, 0, 72, 0
1, 1056, Note_on_c, 0, 76, 75
1, 1056, Note_on_c, 1, 64, 75
1, 1079, Note_on_c, 0, 76, 0
1, 1080, Note_on_c, 0, 72, 75
1, 1101, Note_on_c, 1, 64, 0
1, 1103, Note_on_c, 0, 72, 0
1, 1104, Note_on_c, 0, 67, 75
1, 1104, Note_on_c, 1, 60, 75
1, 1127, Note_on_c, 0, 67, 0
1, 1128, Note_on_c, 0, 64, 75
1, 1149, Note_on_c, 1, 60, 0
1, 1151, Note_on_c, 0, 64, 0
1, 1152, Note_on_c, 0, 65, 75
1, 1152, Note_on_c, 1, 62, 75
1, 1152, Note_on_c, 1, 55, 75
1, 1164, Note_on_c, 0, 65, 0
1, 1164, Note_on_c, 0, 67, 75
1, 1176, Note_on_c, 0, 67, 0
1, 1176, Note_on_c, 0, 65, 75
1, 1197, Note_on_c, 0, 65, 0
1, 1197, Note_on_c, 1, 62, 0
1, 1197, Note_on_c, 1, 55, 0
1, 1200, Note_on_c, 0, 64, 75
1, 1200, Note_on_c, 1, 60, 75
1, 1245, Note_on_c, 0, 64, 0
1, 1245, Note_on_c, 1, 60, 0
1, 1248, Note_on_c, 0, 60, 75
1, 1293, Note_on_c, 0, 60, 0
1, 1296, Note_on_c, 0, 65, 75
1, 1296, Note_on_c, 1, 57, 75
1, 1319, Note_on_c, 0, 65, 0
1, 1320, Note_on_c, 0, 60, 75
1, 1341, Note_on_c, 1, 57, 0
1, 1343, Note_on_c, 0, 60, 0
1, 1344, Note_on_c, 0, 64, 75
1, 1344, Note_on_c, 1, 55, 75
1, 1367, Note_on_c, 0, 64, 0
1, 1368, Note_on_c, 0, 60, 75
1, 1389, Note_on_c, 1, 55, 0
1, 1391, Note_on_c, 0, 60, 0
1, 1392, Note_on_c, 0, 69, 75
1, 1392, Note_on_c, 1, 53, 75
1, 1415, Note_on_c, 0, 69, 0
1, 1416, Note_on_c, 0, 60, 75
1, 1437, Note_on_c, 1, 53, 0
1, 1439, Note_on_c, 0, 60, 0
1, 1440, Note_on_c, 0, 67, 75
1, 1440, Note_on_c, 1, 52, 75
1, 1463, Note_on_c, 0, 67, 0
1, 1464, Note_on_c, 0, 60, 75
1, 1485, Note_on_c, 1, 52, 0
1, 1487, Note_on_c, 0, 60, 0
1, 1488, Note_on_c, 0, 65, 75
1, 1488, Note_on_c, 1, 50, 75
1, 1511, Note_on_c, 0, 65, 0
1, 1512, Note_on_c, 0, 60, 75
1, 1533, Note_on_c, 1, 50, 0
1, 1535, Note_on_c, 0, 60, 0
1, 1536, Note_on_c, 0, 64, 75
1, 1536, Note_on_c, 1, 48, 75
1, 1559, Note_on_c, 0, 64, 0
1, 1560, Note_on_c, 0, 60, 75
1, 1581, Note_on_c, 1, 48, 0
1, 1583, Note_on_c, 0, 60, 0
1, 1584, Note_on_c, 0, 65, 75
1, 1584, Note_on_c, 1, 57, 75
1, 1607, Note_on_c, 0, 65, 0
1, 1608, Note_on_c, 0, 60, 75
1, 1629, Note_on_c, 1, 57, 0
1, 1631, Note_on_c, 0, 60, 0
1, 1632, Note_on_c, 0, 64, 75
1, 1632, Note_on_c, 1, 55, 75
1, 1655, Note_on_c, 0, 64, 0
1, 1656, Note_on_c, 0, 60, 75
1, 1677, Note_on_c, 1, 55, 0
1, 1679, Note_on_c, 0, 60, 0
1, 1680, Note_on_c, 0, 69, 75
1, 1680, Note_on_c, 1, 53, 75
1, 1703, Note_on_c, 0, 69, 0
1, 1704, Note_on_c, 0, 60, 75
1, 1725, Note_on_c, 1, 53, 0
1, 1727, Note_on_c, 0, 60, 0
1, 1728, Note_on_c, 0, 67, 75
1, 1728, Note_on_c, 1, 52, 75
1, 1751, Note_on_c, 0, 67, 0
1, 1752, Note_on_c, 0, 60, 75
1, 1773, Note_on_c, 1, 52, 0
1, 1775, Note_on_c, 0, 60, 0
1, 1776, Note_on_c, 0, 71, 75
1, 1776, Note_on_c, 1, 50, 75
1, 1799, Note_on_c, 0, 71, 0
1, 1800, Note_on_c, 0, 60, 75
1, 1821, Note_on_c, 1, 50, 0
1, 1823, Note_on_c, 0, 60, 0
1, 1824, Note_on_c, 0, 72, 75
1, 1824, Note_on_c, 1, 48, 75
1, 1847, Note_on_c, 0, 72, 0
1, 1848, Note_on_c, 0, 60, 75
1, 1869, Note_on_c, 1, 48, 0
1, 1871, Note_on_c, 0, 60, 0
1, 1872, Note_on_c, 0, 74, 75
1, 1872, Note_on_c, 1, 47, 75
1, 1917, Note_on_c, 0, 74, 0
1, 1920, Note_on_c, 0, 65, 75
1, 1920, Note_on_c, 0, 62, 64
1, 1961, Note_on_c, 1, 47, 0
1, 1965, Note_on_c, 0, 65, 0
1, 1965, Note_on_c, 0, 62, 0
1, 1968, Note_on_c, 0, 65, 75
1, 1968, Note_on_c, 0, 60, 64
1, 1968, Note_on_c, 1, 48, 75
1, 1980, Note_on_c, 0, 65, 0
1, 1980, Note_on_c, 0, 64, 75
1, 1992, Note_on_c, 0, 64, 0
1, 1992, Note_on_c, 0, 62, 75
1, 2004, Note_on_c, 0, 62, 0
1, 2004, Note_on_c, 0, 64, 75
1, 2013, Note_on_c, 0, 60, 0
1, 2013, Note_on_c, 1, 48, 0
1, 2016, Note_on_c, 0, 64, 0
1, 2016, Note_on_c, 0, 62, 75
1, 2016, Note_on_c, 0, 59, 64
1, 2016, Note_on_c, 1, 43, 75
1, 2061, Note_on_c, 0, 62, 0
1, 2061, Note_on_c, 0, 59, 0
1, 2061, Note_on_c, 1, 43, 0
1, 2112, Note_on_c, 0, 79, 75
1, 2127, Note_on_c, 0, 79, 0
1, 2128, Note_on_c, 0, 81, 75
1, 2143, Note_on_c, 0, 81, 0
1, 2144, Note_on_c, 0, 79, 75
1, 2159, Note_on_c, 0, 79, 0
1, 2160, Note_on_c, 0, 76, 75
1, 2180, Note_on_c, 0, 76, 0
1, 2208, Note_on_c, 1, 64, 75
1, 2208, Note_on_c, 1, 60, 75
1, 2253, Note_on_c, 1, 64, 0
1, 2253, Note_on_c, 1, 60, 0
1, 2256, Note_on_c, 0, 72, 75
1, 2271, Note_on_c, 0, 72, 0
1, 2272, Note_on_c, 0, 74, 75
1, 2287, Note_on_c, 0, 74, 0
1, 2288, Note_on_c, 0, 72, 75
1, 2304, Note_on_c, 0, 72, 0
1, 2304, Note_on_c, 0, 71, 75
1, 2324, Note_on_c, 0, 71, 0
1, 2352, Note_on_c, 1, 65, 75
1, 2352, Note_on_c, 1, 62, 75
1, 2397, Note_on_c, 1, 65, 0
1, 2397, Note_on_c, 1, 62, 0
1, 2400, Note_on_c, 0, 67, 75
1, 2445, Note_on_c, 0, 67, 0
1, 2448, Note_on_c, 0, 72, 75
1, 2471, Note_on_c, 0, 72, 0
1, 2472, Note_on_c, 0, 76, 75
1, 2495, Note_on_c, 0, 76, 0
1, 2496, Note_on_c, 0, 79, 75
1, 2496, Note_on_c, 1, 64, 75
1, 2519, Note_on_c, 0, 79, 0
1, 2520, Note_on_c, 0, 84, 75
1, 2541, Note_on_c, 1, 64, 0
1, 2543, Note_on_c, 0, 84, 0
1, 2544, Note_on_c, 0, 79, 75
1, 2544, Note_on_c, 1, 60, 75
1, 2567, Note_on_c, 0, 79, 0
1, 2568, Note_on_c, 0, 76, 75
1, 2589, Note_on_c, 1, 60, 0
1, 2591, Note_on_c, 0, 76, 0
1, 2592, Note_on_c, 0, 77, 75
1, 2592, Note_on_c, 1, 62, 75
1, 2592, Note_on_c, 1, 55, 75
1, 2604, Note_on_c, 0, 77, 0
1, 2604, Note_on_c, 0, 79, 75
1, 2616, Note_on_c, 0, 79, 0
1, 2616, Note_on_c, 0, 77, 75
1, 2637, Note_on_c, 0, 77, 0
1, 2637, Note_on_c, 1, 62, 0
1, 2637, Note_on_c, 1, 55, 0
1, 2640, Note_on_c, 0, 76, 75
1, 2640, Note_on_c, 1, 60, 75
1, 2685, Note_on_c, 0, 76, 0
1, 2685, Note_on_c, 1, 60, 0
1, 2688, Note_on_c, 0, 76, 75
1, 2688, Note_on_c, 1, 72, 75
1, 2711, Note_on_c, 0, 76, 0
1, 2712, Note_on_c, 0, 78, 75
1, 2733, Note_on_c, 1, 72, 0
1, 2735, Note_on_c, 0, 78, 0
1, 2736, Note_on_c, 0, 79, 75
1, 2736, Note_on_c, 1, 71, 75
1, 2759, Note_on_c, 0, 79, 0
1, 2760, Note_on_c, 0, 78, 75
1, 2781, Note_on_c, 1, 71, 0
1, 2783, Note_on_c, 0, 78, 0
1, 2784, Note_on_c, 0, 81, 75
1, 2784, Note_on_c, 1, 69, 75
1, 2807, Note_on_c, 0, 81, 0
1, 2808, Note_on_c, 0, 79, 75
1, 2829, Note_on_c, 1, 69, 0
1, 2831, Note_on_c, 0, 79, 0
1, 2832, Note_on_c, 0, 83, 75
1, 2832, Note_on_c, 1, 67, 75
1, 2877, Note_on_c, 1, 67, 0
1, 2880, Note_on_c, 0, 83, 0
1, 2880, Note_on_c, 0, 72, 75
1, 2880, Note_on_c, 1, 69, 75
1, 2900, Note_on_c, 0, 72, 0
1, 2925, Note_on_c, 1, 69, 0
1, 2928, Note_on_c, 1, 66, 75
1, 2973, Note_on_c, 1, 66, 0
1, 2976, Note_on_c, 0, 81, 75
1, 2976, Note_on_c, 1, 62, 75
1, 3021, Note_on_c, 1, 62, 0
1, 3024, Note_on_c, 0, 81, 0
1, 3024, Note_on_c, 0, 71, 75
1, 3024, Note_on_c, 1, 67, 75
1, 3044, Note_on_c, 0, 71, 0
1, 3069, Note_on_c, 1, 67, 0
1, 3072, Note_on_c, 1, 55, 75
1, 3117, Note_on_c, 1, 55, 0
1, 3120, Note_on_c, 0, 79, 75
1, 3120, Note_on_c, 1, 59, 75
1, 3165, Note_on_c, 1, 59, 0
1, 3168, Note_on_c, 0, 79, 0
1, 3168, Note_on_c, 0, 69, 70
1, 3168, Note_on_c, 1, 60, 70
1, 3191, Note_on_c, 0, 69, 0
1, 3192, Note_on_c, 0, 79, 70
1, 3213, Note_on_c, 1, 60, 0
1, 3215, Note_on_c, 0, 79, 0
1, 3216, Note_on_c, 0, 67, 70
1, 3216, Note_on_c, 1, 59, 70
1, 3239, Note_on_c, 0, 67, 0
1, 3240, Note_on_c, 0, 79, 71
1, 3261, Note_on_c, 1, 59, 0
1, 3263, Note_on_c, 0, 79, 0
1, 3264, Note_on_c, 0, 69, 71
1, 3264, Note_on_c, 1, 60, 71
1, 3287, Note_on_c, 0, 69, 0
1, 3288, Note_on_c, 0, 79, 71
1, 3309, Note_on_c, 1, 60, 0
1, 3311, Note_on_c, 0, 79, 0
1, 3312, Note_on_c, 0, 70, 72
1, 3312, Note_on_c, 1, 62, 72
1, 3335, Note_on_c, 0, 70, 0
1, 3336, Note_on_c, 0, 79, 72
1, 3357, Note_on_c, 1, 62, 0
1, 3359, Note_on_c, 0, 79, 0
1, 3360, Note_on_c, 0, 69, 72
1, 3360, Note_on_c, 1, 60, 72
1, 3383, Note_on_c, 0, 69, 0
1, 3384, Note_on_c, 0, 79, 73
1, 3405, Note_on_c, 1, 60, 0
1, 3407, Note_on_c, 0, 79, 0
1, 3408, Note_on_c, 0, 71, 73
1, 3408, Note_on_c, 1, 62, 73
1, 3431, Note_on_c, 0, 71, 0
1, 3432, Note_on_c, 0, 79, 73
1, 3453, Note_on_c, 1, 62, 0
1, 3455, Note_on_c, 0, 79, 0
1, 3456, Note_on_c, 0, 72, 74
1, 3456, Note_on_c, 1, 64, 74
1, 3479, Note_on_c, 0, 72, 0
1, 3480, Note_on_c, 0, 79, 74
1, 3501, Note_on_c, 1, 64, 0
1, 3503, Note_on_c, 0, 79, 0
1, 3504, Note_on_c, 0, 71, 74
1, 3504, Note_on_c, 1, 62, 74
1, 3527, Note_on_c, 0, 71, 0
1, 3528, Note_on_c, 0, 79, 75
1, 3549, Note_on_c, 1, 62, 0
1, 3551, Note_on_c, 0, 79, 0
1, 3552, Note_on_c, 0, 73, 75
1, 3552, Note_on_c, 1, 64, 75
1, 3575, Note_on_c, 0, 73, 0
1, 3576, Note_on_c, 0, 79, 75
1, 3597, Note_on_c, 1, 64, 0
1, 3599, Note_on_c, 0, 79, 0
1, 3600, Note_on_c, 0, 78, 76
1, 3600, Note_on_c, 1, 62, 76
1, 3600, Note_on_c, 1, 62, 64
1, 3623, Note_on_c, 0, 78, 0
1, 3624, Note_on_c, 0, 74, 76
1, 3645, Note_on_c, 1, 62, 0
1, 3647, Note_on_c, 0, 74, 0
1, 3648, Note_on_c, 0, 79, 76
1, 3648, Note_on_c, 1, 64, 76
1, 3671, Note_on_c, 0, 79, 0
1, 3672, Note_on_c, 0, 74, 77
1, 3693, Note_on_c, 1, 64, 0
1, 3695, Note_on_c, 0, 74, 0
1, 3696, Note_on_c, 0, 81, 77
1, 3696, Note_on_c, 1, 66, 77
1, 3719, Note_on_c, 0, 81, 0
1, 3720, Note_on_c, 0, 74, 77
1, 3741, Note_on_c, 1, 66, 0
1, 3743, Note_on_c, 0, 74, 0
1, 3744, Note_on_c, 0, 82, 78
1, 3744, Note_on_c, 1, 67, 78
1, 3767, Note_on_c, 0, 82, 0
1, 3768, Note_on_c, 0, 74, 78
1, 3789, Note_on_c, 1, 67, 0
1, 3791, Note_on_c, 0, 74, 0
1, 3792, Note_on_c, 0, 81, 78
1, 3792, Note_on_c, 1, 66, 78
1, 3815, Note_on_c, 0, 81, 0
1, 3816, Note_on_c, 0, 74, 79
1, 3837, Note_on_c, 1, 66, 0
1, 3839, Note_on_c, 0, 74, 0
1, 3840, Note_on_c, 0, 83, 79
1, 3840, Note_on_c, 1, 68, 79
1, 3863, Note_on_c, 0, 83, 0
1, 3864, Note_on_c, 0, 74, 79
1, 3885, Note_on_c, 1, 68, 0
1, 3887, Note_on_c, 0, 74, 0
1, 3888, Note_on_c, 0, 84, 80
1, 3888, Note_on_c, 1, 69, 80
1, 3911, Note_on_c, 0, 84, 0
1, 3912, Note_on_c, 0, 74, 80
1, 3933, Note_on_c, 1, 69, 0
1, 3935, Note_on_c, 0, 74, 0
1, 3936, Note_on_c, 0, 83, 80
1, 3936, Note_on_c, 1, 68, 80
1, 3959, Note_on_c, 0, 83, 0
1, 3960, Note_on_c, 0, 74, 80
1, 3981, Note_on_c, 1, 68, 0
1, 3983, Note_on_c, 0, 74, 0
1, 3984, Note_on_c, 0, 85, 80
1, 3984, Note_on_c, 1, 70, 80
1, 4007, Note_on_c, 0, 85, 0
1, 4008, Note_on_c, 0, 74, 80
1, 4029, Note_on_c, 1, 70, 0
1, 4031, Note_on_c, 0, 74, 0
1, 4032, Note_on_c, 0, 86, 80
1, 4032, Note_on_c, 1, 71, 80
1, 4055, Note_on_c, 0, 86, 0
1, 4056, Note_on_c, 0, 74, 80
1, 4077, Note_on_c, 1, 71, 0
1, 4079, Note_on_c, 0, 74, 0
1, 4080, Note_on_c, 0, 83, 80
1, 4080, Note_on_c, 1, 68, 80
1, 4103, Note_on_c, 0, 83, 0
1, 4104, Note_on_c, 0, 74, 80
1, 4125, Note_on_c, 1, 68, 0
1, 4127, Note_on_c, 0, 74, 0
1, 4128, Note_on_c, 0, 84, 80
1, 4128, Note_on_c, 1, 69, 80
1, 4151, Note_on_c, 0, 84, 0
1, 4152, Note_on_c, 0, 74, 80
1, 4173, Note_on_c, 1, 69, 0
1, 4175, Note_on_c, 0, 74, 0
1, 4176, Note_on_c, 0, 81, 80
1, 4176, Note_on_c, 1, 66, 80
1, 4199, Note_on_c, 0, 81, 0
1, 4200, Note_on_c, 0, 74, 79
1, 4221, Note_on_c, 1, 66, 0
1, 4223, Note_on_c, 0, 74, 0
1, 4224, Note_on_c, 0, 83, 78
1, 4224, Note_on_c, 1, 67, 78
1, 4247, Note_on_c, 0, 83, 0
1, 4248, Note_on_c, 0, 74, 77
1, 4269, Note_on_c, 1, 67, 0
1, 4271, Note_on_c, 0, 74, 0
1, 4272, Note_on_c, 0, 79, 76
1, 4272, Note_on_c, 1, 64, 76
1, 4295, Note_on_c, 0, 79, 0
1, 4296, Note_on_c, 0, 74, 75
1, 4309, Note_on_c, 1, 62, 0
1, 4317, Note_on_c, 1, 64, 0
1, 4319, Note_on_c, 0, 74, 0
1, 4320, Note_on_c, 0, 78, 75
1, 4320, Note_on_c, 1, 62, 75
1, 4365, Note_on_c, 0, 78, 0
1, 4365, Note_on_c, 1, 62, 0
1, 4416, Note_on_c, 1, 62, 75
1, 4416, Note_on_c, 1, 59, 75
1, 4464, Note_on_c, 0, 86, 75
1, 4464, Note_on_c, 0, 83, 75
1, 4464, Note_on_c, 1, 62, 0
1, 4464, Note_on_c, 1, 55, 75
1, 4484, Note_on_c, 1, 59, 0
1, 4484, Note_on_c, 1, 55, 0
1, 4512, Note_on_c, 0, 86, 0
1, 4512, Note_on_c, 0, 79, 75
1, 4532, Note_on_c, 0, 83, 0
1, 4532, Note_on_c, 0, 79, 0
1, 4560, Note_on_c, 1, 62, 75
1, 4560, Note_on_c, 1, 59, 75
1, 4608, Note_on_c, 0, 86, 75
1, 4608, Note_on_c, 0, 83, 75
1, 4608, Note_on_c, 1, 62, 0
1, 4608, Note_on_c, 1, 55, 75
1, 4628, Note_on_c, 1, 59, 0
1, 4628, Note_on_c, 1, 55, 0
1, 4656, Note_on_c, 0, 86, 0
1, 4656, Note_on_c, 0, 79, 75
1, 4676, Note_on_c, 0, 83, 0
1, 4676, Note_on_c, 0, 79, 0
1, 4704, Note_on_c, 0, 79, 75
1, 4704, Note_on_c, 1, 76, 75
1, 4719, Note_on_c, 0, 79, 0
1, 4720, Note_on_c, 0, 81, 75
1, 4735, Note_on_c, 0, 81, 0
1, 4736, Note_on_c, 0, 79, 75
1, 4751, Note_on_c, 0, 79, 0
1, 4752, Note_on_c, 0, 78, 75
1, 4752, Note_on_c, 1, 76, 0
1, 4752, Note_on_c, 1, 74, 75
1, 4772, Note_on_c, 0, 78, 0
1, 4772, Note_on_c, 1, 74, 0
1, 4800, Note_on_c, 0, 76, 75
1, 4800, Note_on_c, 1, 72, 75
1, 4815, Note_on_c, 0, 76, 0
1, 4816, Note_on_c, 0, 77, 75
1, 4831, Note_on_c, 0, 77, 0
1, 4832, Note_on_c, 0, 76, 75
1, 4847, Note_on_c, 0, 76, 0
1, 4848, Note_on_c, 0, 74, 75
1, 4848, Note_on_c, 1, 72, 0
1, 4848, Note_on_c, 1, 71, 75
1, 4868, Note_on_c, 0, 74, 0
1, 4868, Note_on_c, 1, 71, 0
1, 4896, Note_on_c, 0, 72, 75
1, 4896, Note_on_c, 1, 60, 75
1, 4908, Note_on_c, 0, 72, 0
1, 4908, Note_on_c, 0, 74, 75
1, 4920, Note_on_c, 0, 74, 0
1, 4920, Note_on_c, 0, 72, 75
1, 4941, Note_on_c, 0, 72, 0
1, 4941, Note_on_c, 1, 60, 0
1, 4944, Note_on_c, 0, 71, 75
1, 4944, Note_on_c, 1, 62, 75
1, 4989, Note_on_c, 0, 71, 0
1, 4989, Note_on_c, 1, 62, 0
1, 4992, Note_on_c, 0, 69, 75
1, 4992, Note_on_c, 1, 50, 75
1, 5004, Note_on_c, 0, 69, 0
1, 5004, Note_on_c, 0, 71, 75
1, 5016, Note_on_c, 0, 71, 0
1, 5016, Note_on_c, 0, 69, 75
1, 5037, Note_on_c, 0, 69, 0
1, 5037, Note_on_c, 1, 50, 0
1, 5040, Note_on_c, 0, 67, 75
1, 5040, Note_on_c, 1, 55, 75
1, 5063, Note_on_c, 1, 55, 0
1, 5064, Note_on_c, 1, 62, 75
1, 5085, Note_on_c, 0, 67, 0
1, 5087, Note_on_c, 1, 62, 0
1, 5088, Note_on_c, 1, 59, 75
1, 5111, Note_on_c, 1, 59, 0
1, 5112, Note_on_c, 1, 62, 75
1, 5135, Note_on_c, 1, 62, 0
1, 5136, Note_on_c, 0, 74, 75
1, 5136, Note_on_c, 1, 55, 75
1, 5159, Note_on_c, 1, 55, 0
1, 5160, Note_on_c, 1, 62, 75
1, 5181, Note_on_c, 0, 74, 0
1, 5183, Note_on_c, 1, 62, 0
1, 5184, Note_on_c, 0, 74, 75
1, 5184, Note_on_c, 1, 54, 75
1, 5196, Note_on_c, 0, 74, 0
1, 5196, Note_on_c, 0, 76, 75
1, 5207, Note_on_c, 1, 54, 0
1, 5208, Note_on_c, 0, 76, 0
1, 5208, Note_on_c, 0, 74, 75
1, 5208, Note_on_c, 1, 62, 75
1, 5229, Note_on_c, 0, 74, 0
1, 5231, Note_on_c, 1, 62, 0
1, 5232, Note_on_c, 0, 72, 75
1, 5232, Note_on_c, 1, 57, 75
1, 5255, Note_on_c, 1, 57, 0
1, 5256, Note_on_c, 1, 62, 75
1, 5277, Note_on_c, 0, 72, 0
1, 5279, Note_on_c, 1, 62, 0
1, 5280, Note_on_c, 0, 72, 75
1, 5280, Note_on_c, 1, 54, 75
1, 5303, Note_on_c, 1, 54, 0
1, 5304, Note_on_c, 1, 62, 75
1, 5325, Note_on_c, 0, 72, 0
1, 5327, Note_on_c, 1, 62, 0
1, 5328, Note_on_c, 0, 72, 75
1, 5328, Note_on_c, 1, 55, 75
1, 5340, Note_on_c, 0, 72, 0
1, 5340, Note_on_c, 0, 74, 75
1, 5351, Note_on_c, 1, 55, 0
1, 5352, Note_on_c, 0, 74, 0
1, 5352, Note_on_c, 0, 72, 75
1, 5352, Note_on_c, 1, 62, 75
1, 5373, Note_on_c, 0, 72, 0
1, 5375, Note_on_c, 1, 62, 0
1, 5376, Note_on_c, 0, 71, 75
1, 5376, Note_on_c, 1, 59, 75
1, 5399, Note_on_c, 1, 59, 0
1, 5400, Note_on_c, 1, 62, 75
1, 5421, Note_on_c, 0, 71, 0
1, 5423, Note_on_c, 1, 62, 0
1, 5424, Note_on_c, 0, 83, 75
1, 5424, Note_on_c, 1, 55, 75
1, 5447, Note_on_c, 1, 55, 0
1, 5448, Note_on_c, 1, 62, 75
1, 5469, Note_on_c, 0, 83, 0
1, 5471, Note_on_c, 1, 62, 0
1, 5472, Note_on_c, 0, 83, 75
1, 5472, Note_on_c, 1, 50, 75
1, 5495, Note_on_c, 1, 50, 0
1, 5496, Note_on_c, 1, 62, 75
1, 5519, Note_on_c, 1, 62, 0
1, 5520, Note_on_c, 1, 54, 75
1, 5543, Note_on_c, 0, 83, 0
1, 5543, Note_on_c, 1, 54, 0
1, 5544, Note_on_c, 0, 84, 75
1, 5544, Note_on_c, 1, 62, 75
1, 5567, Note_on_c, 0, 84, 0
1, 5567, Note_on_c, 1, 62, 0
1, 5568, Note_on_c, 0, 81, 75
1, 5568, Note_on_c, 1, 50, 75
1, 5591, Note_on_c, 0, 81, 0
1, 5591, Note_on_c, 1, 50, 0
1, 5592, Note_on_c, 0, 78, 75
1, 5592, Note_on_c, 1, 62, 75
1, 5615, Note_on_c, 0, 78, 0
1, 5615, Note_on_c, 1, 62, 0
1, 5616, Note_on_c, 0, 79, 75
1, 5616, Note_on_c, 1, 55, 75
1, 5639, Note_on_c, 1, 55, 0
1, 5640, Note_on_c, 1, 62, 73
1, 5661, Note_on_c, 0, 79, 0
1, 5663, Note_on_c, 1, 62, 0
1, 5664, Note_on_c, 1, 59, 72
1, 5687, Note_on_c, 1, 59, 0
1, 5688, Note_on_c, 1, 62, 71
1, 5711, Note_on_c, 1, 62, 0
1, 5712, Note_on_c, 0, 74, 70
1, 5712, Note_on_c, 1, 55, 70
1, 5735, Note_on_c, 1, 55, 0
1, 5736, Note_on_c, 1, 62, 70
1, 5757, Note_on_c, 0, 74, 0
1, 5759, Note_on_c, 1, 62, 0
1, 5760, Note_on_c, 0, 74, 70
1, 5760, Note_on_c, 1, 54, 70
1, 5772, Note_on_c, 0, 74, 0
1, 5772, Note_on_c, 0, 76, 70
1, 5783, Note_on_c, 1, 54, 0
1, 5784, Note_on_c, 0, 76, 0
1, 5784, Note_on_c, 0, 74, 70
1, 5784, Note_on_c, 1, 62, 70
1, 5805, Note_on_c, 0, 74, 0
1, 5807, Note_on_c, 1, 62, 0
1, 5808, Note_on_c, 0, 72, 70
1, 5808, Note_on_c, 1, 57, 70
1, 5831, Note_on_c, 1, 57, 0
1, 5832, Note_on_c, 1, 62, 70
1, 5853, Note_on_c, 0, 72, 0
1, 5855, Note_on_c, 1, 62, 0
1, 5856, Note_on_c, 0, 72, 70
1, 5856, Note_on_c, 1, 54, 70
1, 5879, Note_on_c, 1, 54, 0
1, 5880, Note_on_c, 1, 62, 70
1, 5901, Note_on_c, 0, 72, 0
1, 5903, Note_on_c, 1, 62, 0
1, 5904, Note_on_c, 0, 72, 70
1, 5904, Note_on_c, 1, 55, 70
1, 5916, Note_on_c, 0, 72, 0
1, 5916, Note_on_c, 0, 74, 70
1, 5927, Note_on_c, 1, 55, 0
1, 5928, Note_on_c, 0, 74, 0
1, 5928, Note_on_c, 0, 72, 70
1, 5928, Note_on_c, 1, 62, 70
1, 5949, Note_on_c, 0, 72, 0
1, 5951, Note_on_c, 1, 62, 0
1, 5952, Note_on_c, 0, 71, 70
1, 5952, Note_on_c, 1, 59, 70
1, 5975, Note_on_c, 1, 59, 0
1, 5976, Note_on_c, 1, 62, 70
1, 5997, Note_on_c, 0, 71, 0
1, 5999, Note_on_c, 1, 62, 0
1, 6000, Note_on_c, 0, 83, 70
1, 6000, Note_on_c, 1, 55, 70
1, 6023, Note_on_c, 1, 55, 0
1, 6024, Note_on_c, 1, 62, 70
1, 6045, Note_on_c, 0, 83, 0
1, 6047, Note_on_c, 1, 62, 0
1, 6048, Note_on_c, 0, 83, 70
1, 6048, Note_on_c, 1, 50, 70
1, 6071, Note_on_c, 1, 50, 0
1, 6072, Note_on_c, 1, 62, 70
1, 6095, Note_on_c, 1, 62, 0
1, 6096, Note_on_c, 1, 54, 70
1, 6119, Note_on_c, 0, 83, 0
1, 6119, Note_on_c, 1, 54, 0
1, 6120, Note_on_c, 0, 84, 70
1, 6120, Note_on_c, 1, 62, 70
1, 6143, Note_on_c, 0, 84, 0
1, 6143, Note_on_c, 1, 62, 0
1, 6144, Note_on_c, 0, 81, 70
1, 6144, Note_on_c, 1, 50, 70
1, 6167, Note_on_c, 0, 81, 0
1, 6167, Note_on_c, 1, 50, 0
1, 6168, Note_on_c, 0, 78, 70
1, 6168, Note_on_c, 1, 62, 70
1, 6191, Note_on_c, 0, 78, 0
1, 6191, Note_on_c, 1, 62, 0
1, 6192, Note_on_c, 0, 79, 70
1, 6192, Note_on_c, 1, 59, 70
1, 6192, Note_on_c, 1, 55, 70
1, 6237, Note_on_c, 0, 79, 0
1, 6237, Note_on_c, 1, 59, 0
1, 6237, Note_on_c, 1, 55, 0
1, 6288, Note_on_c, 0, 79, 75
1, 6336, Note_on_c, 0, 79, 0
1, 6336, Note_on_c, 0, 76, 75
1, 6356, Note_on_c, 0, 76, 0
1, 6384, Note_on_c, 1, 64, 75
1, 6384, Note_on_c, 1, 60, 75
1, 6429, Note_on_c, 1, 64, 0
1, 6429, Note_on_c, 1, 60, 0
1, 6432, Note_on_c, 0, 72, 75
1, 6480, Note_on_c, 0, 72, 0
1, 6480, Note_on_c, 0, 71, 75
1, 6500, Note_on_c, 0, 71, 0
1, 6528, Note_on_c, 1, 65, 75
1, 6528, Note_on_c, 1, 62, 75
1, 6573, Note_on_c, 1, 65, 0
1, 6573, Note_on_c, 1, 62, 0
1, 6576, Note_on_c, 0, 67, 75
1, 6621, Note_on_c, 0, 67, 0
1, 6624, Note_on_c, 0, 72, 75
1, 6647, Note_on_c, 0, 72, 0
1, 6648, Note_on_c, 0, 76, 75
1, 6671, Note_on_c, 0, 76, 0
1, 6672, Note_on_c, 0, 79, 75
1, 6672, Note_on_c, 1, 64, 75
1, 6695, Note_on_c, 0, 79, 0
1, 6696, Note_on_c, 0, 84, 75
1, 6717, Note_on_c, 1, 64, 0
1, 6719, Note_on_c, 0, 84, 0
1, 6720, Note_on_c, 0, 79, 75
1, 6720, Note_on_c, 1, 60, 75
1, 6743, Note_on_c, 0, 79, 0
1, 6744, Note_on_c, 0, 76, 75
1, 6765, Note_on_c, 1, 60, 0
1, 6767, Note_on_c, 0, 76, 0
1, 6768, Note_on_c, 0, 77, 75
1, 6768, Note_on_c, 1, 62, 75
1, 6768, Note_on_c, 1, 55, 75
1, 6780, Note_on_c, 0, 77, 0
1, 6780, Note_on_c, 0, 79, 75
1, 6792, Note_on_c, 0, 79, 0
1, 6792, Note_on_c, 0, 77, 75
1, 6813, Note_on_c, 0, 77, 0
1, 6813, Note_on_c, 1, 62, 0
1, 6813, Note_on_c, 1, 55, 0
1, 6816, Note_on_c, 0, 76, 75
1, 6816, Note_on_c, 1, 60, 75
1, 6861, Note_on_c, 0, 76, 0
1, 6861, Note_on_c, 1, 60, 0
1, 6864, Note_on_c, 0, 79, 75
1, 6912, Note_on_c, 0, 79, 0
1, 6912, Note_on_c, 0, 76, 75
1, 6932, Note_on_c, 0, 76, 0
1, 6960, Note_on_c, 1, 64, 75
1, 6960, Note_on_c, 1, 60, 75
1, 7005, Note_on_c, 1, 64, 0
1, 7005, Note_on_c, 1, 60, 0
1, 7008, Note_on_c, 0, 72, 75
1, 7056, Note_on_c, 0, 72, 0
1, 7056, Note_on_c, 0, 71, 75
1, 7076, Note_on_c, 0, 71, 0
1, 7104, Note_on_c, 1, 65, 75
1, 7104, Note_on_c, 1, 62, 75
1, 7149, Note_on_c, 1, 65, 0
1, 7149, Note_on_c, 1, 62, 0
1, 7152, Note_on_c, 0, 67, 75
1, 7197, Note_on_c, 0, 67, 0
1, 7200, Note_on_c, 0, 71, 75
1, 7223, Note_on_c, 0, 71, 0
1, 7224, Note_on_c, 0, 72, 75
1, 7247, Note_on_c, 0, 72, 0
1, 7248, Note_on_c, 0, 76, 75
1, 7248, Note_on_c, 1, 64, 75
1, 7271, Note_on_c, 0, 76, 0
1, 7272, Note_on_c, 0, 72, 75
1, 7293, Note_on_c, 1, 64, 0
1, 7295, Note_on_c, 0, 72, 0
1, 7296, Note_on_c, 0, 67, 75
1, 7296, Note_on_c, 1, 60, 75
1, 7319, Note_on_c, 0, 67, 0
1, 7320, Note_on_c, 0, 64, 75
1, 7341, Note_on_c, 1, 60, 0
1, 7343, Note_on_c, 0, 64, 0
1, 7344, Note_on_c, 0, 65, 75
1, 7344, Note_on_c, 1, 62, 75
1, 7344, Note_on_c, 1, 55, 75
1, 7356, Note_on_c, 0, 65, 0
1, 7356, Note_on_c, 0, 67, 75
1, 7368, Note_on_c, 0, 67, 0
1, 7368, Note_on_c, 0, 65, 75
1, 7389, Note_on_c, 0, 65, 0
1, 7389, Note_on_c, 1, 62, 0
1, 7389, Note_on_c, 1, 55, 0
1, 7392, Note_on_c, 0, 64, 75
1, 7392, Note_on_c, 1, 60, 75
1, 7437, Note_on_c, 0, 64, 0
1, 7437, Note_on_c, 1, 60, 0
1, 7440, Note_on_c, 0, 60, 75
1, 7485, Note_on_c, 0, 60, 0
1, 7488, Note_on_c, 0, 65, 75
1, 7488, Note_on_c, 1, 57, 75
1, 7511, Note_on_c, 0, 65, 0
1, 7512, Note_on_c, 0, 60, 75
1, 7533, Note_on_c, 1, 57, 0
1, 7535, Note_on_c, 0, 60, 0
1, 7536, Note_on_c, 0, 64, 75
1, 7536, Note_on_c, 1, 55, 75
1, 7559, Note_on_c, 0, 64, 0
1, 7560, Note_on_c, 0, 60, 75
1, 7581, Note_on_c, 1, 55, 0
1, 7583, Note_on_c, 0, 60, 0
1, 7584, Note_on_c, 0, 69, 75
1, 7584, Note_on_c, 1, 53, 75
1, 7607, Note_on_c, 0, 69, 0
1, 7608, Note_on_c, 0, 60, 75
1, 7629, Note_on_c, 1, 53, 0
1, 7631, Note_on_c, 0, 60, 0
1, 7632, Note_on_c, 0, 67, 75
1, 7632, Note_on_c, 1, 52, 75
1, 7655, Note_on_c, 0, 67, 0
1, 7656, Note_on_c, 0, 60, 75
1, 7677, Note_on_c, 1, 52, 0
1, 7679, Note_on_c, 0, 60, 0
1, 7680, Note_on_c, 0, 65, 75
1, 7680, Note_on_c, 1, 50, 75
1, 7703, Note_on_c, 0, 65, 0
1, 7704, Note_on_c, 0, 60, 75
1, 7725, Note_on_c, 1, 50, 0
1, 7727, Note_on_c, 0, 60, 0
1, 7728, Note_on_c, 0, 64, 75
1, 7728, Note_on_c, 1, 48, 75
1, 7751, Note_on_c, 0, 64, 0
1, 7752, Note_on_c, 0, 60, 75
1, 7773, Note_on_c, 1, 48, 0
1, 7775, Note_on_c, 0, 60, 0
1, 7776, Note_on_c, 0, 65, 75
1, 7776, Note_on_c, 1, 57, 75
1, 7799, Note_on_c, 0, 65, 0
1, 7800, Note_on_c, 0, 60, 75
1, 7821, Note_on_c, 1, 57, 0
1, 7823, Note_on_c, 0, 60, 0
1, 7824, Note_on_c, 0, 64, 75
1, 7824, Note_on_c, 1, 55, 75
1, 7847, Note_on_c, 0, 64, 0
1, 7848, Note_on_c, 0, 60, 75
1, 7869, Note_on_c, 1, 55, 0
1, 7871, Note_on_c, 0, 60, 0
1, 7872, Note_on_c, 0, 69, 75
1, 7872, Note_on_c, 1, 53, 75
1, 7895, Note_on_c, 0, 69, 0
1, 7896, Note_on_c, 0, 60, 75
1, 7917, Note_on_c, 1, 53, 0
1, 7919, Note_on_c, 0, 60, 0
1, 7920, Note_on_c, 0, 67, 75
1, 7920, Note_on_c, 1, 52, 75
1, 7943, Note_on_c, 0, 67, 0
1, 7944, Note_on_c, 0, 60, 75
1, 7965, Note_on_c, 1, 52, 0
1, 7967, Note_on_c, 0, 60, 0
1, 7968, Note_on_c, 0, 71, 75
1, 7968, Note_on_c, 1, 50, 75
1, 7991, Note_on_c, 0, 71, 0
1, 7992, Note_on_c, 0, 60, 75
1, 8013, Note_on_c, 1, 50, 0
1, 8015, Note_on_c, 0, 60, 0
1, 8016, Note_on_c, 0, 72, 75
1, 8016, Note_on_c, 1, 48, 75
1, 8039, Note_on_c, 0, 72, 0
1, 8040, Note_on_c, 0, 60, 75
1, 8061, Note_on_c, 1, 48, 0
1, 8063, Note_on_c, 0, 60, 0
1, 8064, Note_on_c, 0, 74, 75
1, 8064, Note_on_c, 1, 47, 75
1, 8109, Note_on_c, 0, 74, 0
1, 8112, Note_on_c, 0, 65, 75
1, 8112, Note_on_c, 0, 62, 64
1, 8153, Note_on_c, 1, 47, 0
1, 8157, Note_on_c, 0, 65, 0
1, 8157, Note_on_c, 0, 62, 0
1, 8160, Note_on_c, 0, 65, 75
1, 8160, Note_on_c, 0, 60, 64
1, 8160, Note_on_c, 1, 48, 75
1, 8172, Note_on_c, 0, 65, 0
1, 8172, Note_on_c, 0, 64, 75
1, 8184, Note_on_c, 0, 64, 0
1, 8184, Note_on_c, 0, 62, 75
1, 8196, Note_on_c, 0, 62, 0
1, 8196, Note_on_c, 0, 64, 75
1, 8205, Note_on_c, 0, 60, 0
1, 8205, Note_on_c, 1, 48, 0
1, 8208, Note_on_c, 0, 64, 0
1, 8208, Note_on_c, 0, 62, 75
1, 8208, Note_on_c, 0, 59, 64
1, 8208, Note_on_c, 1, 43, 75
1, 8253, Note_on_c, 0, 62, 0
1, 8253, Note_on_c, 0, 59, 0
1, 8253, Note_on_c, 1, 43, 0
1, 8304, Note_on_c, 0, 79, 75
1, 8319, Note_on_c, 0, 79, 0
1, 8320, Note_on_c, 0, 81, 75
1, 8335, Note_on_c, 0, 81, 0
1, 8336, Note_on_c, 0, 79, 75
1, 8351, Note_on_c, 0, 79, 0
1, 8352, Note_on_c, 0, 76, 75
1, 8372, Note_on_c, 0, 76, 0
1, 8400, Note_on_c, 1, 64, 75
1, 8400, Note_on_c, 1, 60, 75
1, 8445, Note_on_c, 1, 64, 0
1, 8445, Note_on_c, 1, 60, 0
1, 8448, Note_on_c, 0, 72, 75
1, 8463, Note_on_c, 0, 72, 0
1, 8464, Note_on_c, 0, 74, 75
1, 8479, Note_on_c, 0, 74, 0
1, 8480, Note_on_c, 0, 72, 75
1, 8496, Note_on_c, 0, 72, 0
1, 8496, Note_on_c, 0, 71, 75
1, 8516, Note_on_c, 0, 71, 0
1, 8544, Note_on_c, 1, 65, 75
1, 8544, Note_on_c, 1, 62, 75
1, 8589, Note_on_c, 1, 65, 0
1, 8589, Note_on_c, 1, 62, 0
1, 8592, Note_on_c, 0, 67, 75
1, 8637, Note_on_c, 0, 67, 0
1, 8640, Note_on_c, 0, 72, 75
1, 8663, Note_on_c, 0, 72, 0
1, 8664, Note_on_c, 0, 76, 75
1, 8687, Note_on_c, 0, 76, 0
1, 8688, Note_on_c, 0, 79, 75
1, 8688, Note_on_c, 1, 64, 75
1, 8711, Note_on_c, 0, 79, 0
1, 8712, Note_on_c, 0, 84, 75
1, 8733, Note_on_c, 1, 64, 0
1, 8735, Note_on_c, 0, 84, 0
1, 8736, Note_on_c, 0, 79, 75
1, 8736, Note_on_c, 1, 60, 75
1, 8759, Note_on_c, 0, 79, 0
1, 8760, Note_on_c, 0, 76, 75
1, 8781, Note_on_c, 1, 60, 0
1, 8783, Note_on_c, 0, 76, 0
1, 8784, Note_on_c, 0, 77, 75
1, 8784, Note_on_c, 1, 62, 75
1, 8784, Note_on_c, 1, 55, 75
1, 8796, Note_on_c, 0, 77, 0
1, 8796, Note_on_c, 0, 79, 75
1, 8808, Note_on_c, 0, 79, 0
1, 8808, Note_on_c, 0, 77, 75
1, 8829, Note_on_c, 0, 77, 0
1, 8829, Note_on_c, 1, 62, 0
1, 8829, Note_on_c, 1, 55, 0
1, 8832, Note_on_c, 0, 76, 75
1, 8832, Note_on_c, 1, 60, 75
1, 8877, Note_on_c, 0, 76, 0
1, 8877, Note_on_c, 1, 60, 0
1, 8880, Note_on_c, 0, 76, 75
1, 8880, Note_on_c, 1, 72, 75
1, 8903, Note_on_c, 0, 76, 0
1, 8904, Note_on_c, 0, 78, 75
1, 8925, Note_on_c, 1, 72, 0
1, 8927, Note_on_c, 0, 78, 0
1, 8928, Note_on_c, 0, 79, 75
1, 8928, Note_on_c, 1, 71, 75
1, 8951, Note_on_c, 0, 79, 0
1, 8952, Note_on_c, 0, 78, 75
1, 8973, Note_on_c, 1, 71, 0
1, 8975, Note_on_c, 0, 78, 0
1, 8976, Note_on_c, 0, 81, 75
1, 8976, Note_on_c, 1, 69, 75
1, 8999, Note_on_c, 0, 81, 0
1, 9000, Note_on_c, 0, 79, 75
1, 9021, Note_on_c, 1, 69, 0
1, 9023, Note_on_c, 0, 79, 0
1, 9024, Note_on_c, 0, 83, 75
1, 9024, Note_on_c, 1, 67, 75
1, 9069, Note_on_c, 1, 67, 0
1, 9072, Note_on_c, 0, 83, 0
1, 9072, Note_on_c, 0, 72, 75
1, 9072, Note_on_c, 1, 69, 75
1, 9092, Note_on_c, 0, 72, 0
1, 9117, Note_on_c, 1, 69, 0
1, 9120, Note_on_c, 1, 66, 75
1, 9165, Note_on_c, 1, 66, 0
1, 9168, Note_on_c, 0, 81, 75
1, 9168, Note_on_c, 1, 62, 75
1, 9213, Note_on_c, 1, 62, 0
1, 9216, Note_on_c, 0, 81, 0
1, 9216, Note_on_c, 0, 71, 75
1, 9216, Note_on_c, 1, 67, 75
1, 9236, Note_on_c, 0, 71, 0
1, 9261, Note_on_c, 1, 67, 0
1, 9264, Note_on_c, 1, 55, 75
1, 9309, Note_on_c, 1, 55, 0
1, 9312, Note_on_c, 0, 79, 75
1, 9312, Note_on_c, 1, 59, 75
1, 9357, Note_on_c, 1, 59, 0
1, 9360, Note_on_c, 0, 79, 0
1, 9360, Note_on_c, 0, 69, 70
1, 9360, Note_on_c, 1, 60, 70
1, 9383, Note_on_c, 0, 69, 0
1, 9384, Note_on_c, 0, 79, 70
1, 9405, Note_on_c, 1, 60, 0
1, 9407, Note_on_c, 0, 79, 0
1, 9408, Note_on_c, 0, 67, 70
1, 9408, Note_on_c, 1, 59, 70
1, 9431, Note_on_c, 0, 67, 0
1, 9432, Note_on_c, 0, 79, 71
1, 9453, Note_on_c, 1, 59, 0
1, 9455, Note_on_c, 0, 79, 0
1, 9456, Note_on_c, 0, 69, 71
1, 9456, Note_on_c, 1, 60, 71
1, 9479, Note_on_c, 0, 69, 0
1, 9480, Note_on_c, 0, 79, 71
1, 9501, Note_on_c, 1, 60, 0
1, 9503, Note_on_c, 0, 79, 0
1, 9504, Note_on_c, 0, 70, 72
1, 9504, Note_on_c, 1, 62, 72
1, 9527, Note_on_c, 0, 70, 0
1, 9528, Note_on_c, 0, 79, 72
1, 9549, Note_on_c, 1, 62, 0
1, 9551, Note_on_c, 0, 79, 0
1, 9552, Note_on_c, 0, 69, 72
1, 9552, Note_on_c, 1, 60, 72
1, 9575, Note_on_c, 0, 69, 0
1, 9576, Note_on_c, 0, 79, 73
1, 9597, Note_on_c, 1, 60, 0
1, 9599, Note_on_c, 0, 79, 0
1, 9600, Note_on_c, 0, 71, 73
1, 9600, Note_on_c, 1, 62, 73
1, 9623, Note_on_c, 0, 71, 0
1, 9624, Note_on_c, 0, 79, 73
1, 9645, Note_on_c, 1, 62, 0
1, 9647, Note_on_c, 0, 79, 0
1, 9648, Note_on_c, 0, 72, 74
1, 9648, Note_on_c, 1, 64, 74
1, 9671, Note_on_c, 0, 72, 0
1, 9672, Note_on_c, 0, 79, 74
1, 9693, Note_on_c, 1, 64, 0
1, 9695, Note_on_c, 0, 79, 0
1, 9696, Note_on_c, 0, 71, 74
1, 9696, Note_on_c, 1, 62, 74
1, 9719, Note_on_c, 0, 71, 0
1, 9720, Note_on_c, 0, 79, 75
1, 9741, Note_on_c, 1, 62, 0
1, 9743, Note_on_c, 0, 79, 0
1, 9744, Note_on_c, 0, 73, 75
1, 9744, Note_on_c, 1, 64, 75
1, 9767, Note_on_c, 0, 73, 0
1, 9768, Note_on_c, 0, 79, 75
1, 9789, Note_on_c, 1, 64, 0
1, 9791, Note_on_c, 0, 79, 0
1, 9792, Note_on_c, 0, 78, 76
1, 9792, Note_on_c, 1, 62, 76
1, 9792, Note_on_c, 1, 62, 64
1, 9815, Note_on_c, 0, 78, 0
1, 9816, Note_on_c, 0, 74, 76
1, 9837, Note_on_c, 1, 62, 0
1, 9839, Note_on_c, 0, 74, 0
1, 9840, Note_on_c, 0, 79, 76
1, 9840, Note_on_c, 1, 64, 76
1, 9863, Note_on_c, 0, 79, 0
1, 9864, Note_on_c, 0, 74, 77
1, 9885, Note_on_c, 1, 64, 0
1, 9887, Note_on_c, 0, 74, 0
1, 9888, Note_on_c, 0, 81, 77
1, 9888, Note_on_c, 1, 66, 77
1, 9911, Note_on_c, 0, 81, 0
1, 9912, Note_on_c, 0, 74, 77
1, 9933, Note_on_c, 1, 66, 0
1, 9935, Note_on_c, 0, 74, 0
1, 9936, Note_on_c, 0, 82, 78
1, 9936, Note_on_c, 1, 67, 78
1, 9959, Note_on_c, 0, 82, 0
1, 9960, Note_on_c, 0, 74, 78
1, 9981, Note_on_c, 1, 67, 0
1, 9983, Note_on_c, 0, 74, 0
1, 9984, Note_on_c, 0, 81, 78
1, 9984, Note_on_c, 1, 66, 78
1, 10007, Note_on_c, 0, 81, 0
1, 10008, Note_on_c, 0, 74, 79
1, 10029, Note_on_c, 1, 66, 0
1, 10031, Note_on_c, 0, 74, 0
1, 10032, Note_on_c, 0, 83, 79
1, 10032, Note_on_c, 1, 68, 79
1, 10055, Note_on_c, 0, 83, 0
1, 10056, Note_on_c, 0, 74, 79
1, 10077, Note_on_c, 1, 68, 0
1, 10079, Note_on_c, 0, 74, 0
1, 10080, Note_on_c, 0, 84, 80
1, 10080, Note_on_c, 1, 69, 80
1, 10103, Note_on_c, 0, 84, 0
1, 10104, Note_on_c, 0, 74, 80
1, 10125, Note_on_c, 1, 69, 0
1, 10127, Note_on_c, 0, 74, 0
1, 10128, Note_on_c, 0, 83, 80
1, 10128, Note_on_c, 1, 68, 80
1, 10151, Note_on_c, 0, 83, 0
1, 10152, Note_on_c, 0, 74, 80
1, 10173, Note_on_c, 1, 68, 0
1, 10175, Note_on_c, 0, 74, 0
1, 10176, Note_on_c, 0, 85, 80
1, 10176, Note_on_c, 1, 70, 80
1, 10199, Note_on_c, 0, 85, 0
1, 10200, Note_on_c, 0, 74, 80
1, 10221, Note_on_c, 1, 70, 0
1, 10223, Note_on_c, 0, 74, 0
1, 10224, Note_on_c, 0, 86, 80
1, 10224, Note_on_c, 1, 71, 80
1, 10247, Note_on_c, 0, 86, 0
1, 10248, Note_on_c, 0, 74, 80
1, 10269, Note_on_c, 1, 71, 0
1, 10271, Note_on_c, 0, 74, 0
1, 10272, Note_on_c, 0, 83, 80
1, 10272, Note_on_c, 1, 68, 80
1, 10295, Note_on_c, 0, 83, 0
1, 10296, Note_on_c, 0, 74, 80
1, 10317, Note_on_c, 1, 68, 0
1, 10319, Note_on_c, 0, 74, 0
1, 10320, Note_on_c, 0, 84, 80
1, 10320, Note_on_c, 1, 69, 80
1, 10343, Note_on_c, 0, 84, 0
1, 10344, Note_on_c, 0, 74, 80
1, 10365, Note_on_c, 1, 69, 0
1, 10367, Note_on_c, 0, 74, 0
1, 10368, Note_on_c, 0, 81, 80
1, 10368, Note_on_c, 1, 66, 80
1, 10391, Note_on_c, 0, 81, 0
1, 10392, Note_on_c, 0, 74, 79
1, 10413, Note_on_c, 1, 66, 0
1, 10415, Note_on_c, 0, 74, 0
1, 10416, Note_on_c, 0, 83, 78
1, 10416, Note_on_c, 1, 67, 78
1, 10439, Note_on_c, 0, 83, 0
1, 10440, Note_on_c, 0, 74, 77
1, 10461, Note_on_c, 1, 67, 0
1, 10463, Note_on_c, 0, 74, 0
1, 10464, Note_on_c, 0, 79, 76
1, 10464, Note_on_c, 1, 64, 76
1, 10487, Note_on_c, 0, 79, 0
1, 10488, Note_on_c, 0, 74, 75
1, 10501, Note_on_c, 1, 62, 0
1, 10509, Note_on_c, 1, 64, 0
1, 10511, Note_on_c, 0, 74, 0
1, 10512, Note_on_c, 0, 78, 75
1, 10512, Note_on_c, 1, 62, 75
1, 10557, Note_on_c, 0, 78, 0
1, 10557, Note_on_c, 1, 62, 0
1, 10608, Note_on_c, 1, 62, 75
1, 10608, Note_on_c, 1, 59, 75
1, 10656, Note_on_c, 0, 86, 75
1, 10656, Note_on_c, 0, 83, 75
1, 10656, Note_on_c, 1, 62, 0
1, 10656, Note_on_c, 1, 55, 75
1, 10676, Note_on_c, 1, 59, 0
1, 10676, Note_on_c, 1, 55, 0
1, 10704, Note_on_c, 0, 86, 0
1, 10704, Note_on_c, 0, 79, 75
1, 10724, Note_on_c, 0, 83, 0
1, 10724, Note_on_c, 0, 79, 0
1, 10752, Note_on_c, 1, 62, 75
1, 10752, Note_on_c, 1, 59, 75
1, 10800, Note_on_c, 0, 86, 75
1, 10800, Note_on_c, 0, 83, 75
1, 10800, Note_on_c, 1, 62, 0
1, 10800, Note_on_c, 1, 55, 75
1, 10820, Note_on_c, 1, 59, 0
1, 10820, Note_on_c, 1, 55, 0
1, 10848, Note_on_c, 0, 86, 0
1, 10848, Note_on_c, 0, 79, 75
1, 10868, Note_on_c, 0, 83, 0
1, 10868, Note_on_c, 0, 79, 0
1, 10896, Note_on_c, 0, 79, 75
1, 10896, Note_on_c, 1, 76, 75
1, 10911, Note_on_c, 0, 79, 0
1, 10912, Note_on_c, 0, 81, 75
1, 10927, Note_on_c, 0, 81, 0
1, 10928, Note_on_c, 0, 79, 75
1, 10943, Note_on_c, 0, 79, 0
1, 10944, Note_on_c, 0, 78, 75
1, 10944, Note_on_c, 1, 76, 0
1, 10944, Note_on_c, 1, 74, 75
1, 10964, Note_on_c, 0, 78, 0
1, 10964, Note_on_c, 1, 74, 0
1, 10992, Note_on_c, 0, 76, 75
1, 10992, Note_on_c, 1, 72, 75
1, 11007, Note_on_c, 0, 76, 0
1, 11008, Note_on_c, 0, 77, 75
1, 11023, Note_on_c, 0, 77, 0
1, 11024, Note_on_c, 0, 76, 75
1, 11039, Note_on_c, 0, 76, 0
1, 11040, Note_on_c, 0, 74, 75
1, 11040, Note_on_c, 1, 72, 0
1, 11040, Note_on_c, 1, 71, 75
1, 11060, Note_on_c, 0, 74, 0
1, 11060, Note_on_c, 1, 71, 0
1, 11088, Note_on_c, 0, 72, 75
1, 11088, Note_on_c, 1, 60, 75
1, 11100, Note_on_c, 0, 72, 0
1, 11100, Note_on_c, 0, 74, 75
1, 11112, Note_on_c, 0, 74, 0
1, 11112, Note_on_c, 0, 72, 75
1, 11133, Note_on_c, 0, 72, 0
1, 11133, Note_on_c, 1, 60, 0
1, 11136, Note_on_c, 0, 71, 75
1, 11136, Note_on_c, 1, 62, 75
1, 11181, Note_on_c, 0, 71, 0
1, 11181, Note_on_c, 1, 62, 0
1, 11184, Note_on_c, 0, 69, 75
1, 11184, Note_on_c, 1, 50, 75
1, 11196, Note_on_c, 0, 69, 0
1, 11196, Note_on_c, 0, 71, 75
1, 11208, Note_on_c, 0, 71, 0
1, 11208, Note_on_c, 0, 69, 75
1, 11229, Note_on_c, 0, 69, 0
1, 11229, Note_on_c, 1, 50, 0
1, 11232, Note_on_c, 0, 67, 75
1, 11232, Note_on_c, 1, 55, 75
1, 11255, Note_on_c, 1, 55, 0
1, 11256, Note_on_c, 1, 62, 75
1, 11277, Note_on_c, 0, 67, 0
1, 11279, Note_on_c, 1, 62, 0
1, 11280, Note_on_c, 1, 59, 75
1, 11303, Note_on_c, 1, 59, 0
1, 11304, Note_on_c, 1, 62, 75
1, 11327, Note_on_c, 1, 62, 0
1, 11328, Note_on_c, 0, 74, 75
1, 11328, Note_on_c, 1, 55, 75
1, 11351, Note_on_c, 1, 55, 0
1, 11352, Note_on_c, 1, 62, 75
1, 11373, Note_on_c, 0, 74, 0
1, 11375, Note_on_c, 1, 62, 0
1, 11376, Note_on_c, 0, 74, 75
1, 11376, Note_on_c, 1, 54, 75
1, 11388, Note_on_c, 0, 74, 0
1, 11388, Note_on_c, 0, 76, 75
1, 11399, Note_on_c, 1, 54, 0
1, 11400, Note_on_c, 0, 76, 0
1, 11400, Note_on_c, 0, 74, 75
1, 11400, Note_on_c, 1, 62, 75
1, 11421, Note_on_c, 0, 74, 0
1, 11423, Note_on_c, 1, 62, 0
1, 11424, Note_on_c, 0, 72, 75
1, 11424, Note_on_c, 1, 57, 75
1, 11447, Note_on_c, 1, 57, 0
1, 11448, Note_on_c, 1, 62, 75
1, 11469, Note_on_c, 0, 72, 0
1, 11471, Note_on_c, 1, 62, 0
1, 11472, Note_on_c, 0, 72, 75
1, 11472, Note_on_c, 1, 54, 75
1, 11495, Note_on_c, 1, 54, 0
1, 11496, Note_on_c, 1, 62, 75
1, 11517, Note_on_c, 0, 72, 0
1, 11519, Note_on_c, 1, 62, 0
1, 11520, Note_on_c, 0, 72, 75
1, 11520, Note_on_c, 1, 55, 75
1, 11532, Note_on_c, 0, 72, 0
1, 11532, Note_on_c, 0, 74, 75
1, 11543, Note_on_c, 1, 55, 0
1, 11544, Note_on_c, 0, 74, 0
1, 11544, Note_on_c, 0, 72, 75
1, 11544, Note_on_c, 1, 62, 75
1, 11565, Note_on_c, 0, 72, 0
1, 11567, Note_on_c, 1, 62, 0
1, 11568, Note_on_c, 0, 71, 75
1, 11568, Note_on_c, 1, 59, 75
1, 11591, Note_on_c, 1, 59, 0
1, 11592, Note_on_c, 1, 62, 75
1, 11613, Note_on_c, 0, 71, 0
1, 11615, Note_on_c, 1, 62, 0
1, 11616, Note_on_c, 0, 83, 75
1, 11616, Note_on_c, 1, 55, 75
1, 11639, Note_on_c, 1, 55, 0
1, 11640, Note_on_c, 1, 62, 75
1, 11661, Note_on_c, 0, 83, 0
1, 11663, Note_on_c, 1, 62, 0
1, 11664, Note_on_c, 0, 83, 75
1, 11664, Note_on_c, 1, 50, 75
1, 11687, Note_on_c, 1, 50, 0
1, 11688, Note_on_c, 1, 62, 75
1, 11711, Note_on_c, 1, 62, 0
1, 11712, Note_on_c, 1, 54, 75
1, 11735, Note_on_c, 0, 83, 0
1, 11735, Note_on_c, 1, 54, 0
1, 11736, Note_on_c, 0, 84, 75
1, 11736, Note_on_c, 1, 62, 75
1, 11759, Note_on_c, 0, 84, 0
1, 11759, Note_on_c, 1, 62, 0
1, 11760, Note_on_c, 0, 81, 75
1, 11760, Note_on_c, 1, 50, 75
1, 11783, Note_on_c, 0, 81, 0
1, 11783, Note_on_c, 1, 50, 0
1, 11784, Note_on_c, 0, 78, 75
1, 11784, Note_on_c, 1, 62, 75
1, 11807, Note_on_c, 0, 78, 0
1, 11807, Note_on_c, 1, 62, 0
1, 11808, Note_on_c, 0, 79, 75
1, 11808, Note_on_c, 1, 55, 75
1, 11831, Note_on_c, 1, 55, 0
1, 11832, Note_on_c, 1, 62, 73
1, 11853, Note_on_c, 0, 79, 0
1, 11855, Note_on_c, 1, 62, 0
1, 11856, Note_on_c, 1, 59, 72
1, 11879, Note_on_c, 1, 59, 0
1, 11880, Note_on_c, 1, 62, 71
1, 11903, Note_on_c, 1, 62, 0
1, 11904, Note_on_c, 0, 74, 70
1, 11904, Note_on_c, 1, 55, 70
1, 11927, Note_on_c, 1, 55, 0
1, 11928, Note_on_c, 1, 62, 70
1, 11949, Note_on_c, 0, 74, 0
1, 11951, Note_on_c, 1, 62, 0
1, 11952, Note_on_c, 0, 74, 70
1, 11952, Note_on_c, 1, 54, 70
1, 11964, Note_on_c, 0, 74, 0
1, 11964, Note_on_c, 0, 76, 70
1, 11975, Note_on_c, 1, 54, 0
1, 11976, Note_on_c, 0, 76, 0
1, 11976, Note_on_c, 0, 74, 70
1, 11976, Note_on_c, 1, 62, 70
1, 11997, Note_on_c, 0, 74, 0
1, 11999, Note_on_c, 1, 62, 0
1, 12000, Note_on_c, 0, 72, 70
1, 12000, Note_on_c, 1, 57, 70
1, 12023, Note_on_c, 1, 57, 0
1, 12024, Note_on_c, 1, 62, 70
1, 12045, Note_on_c, 0, 72, 0
1, 12047, Note_on_c, 1, 62, 0
1, 12048, Note_on_c, 0, 72, 70
1, 12048, Note_on_c, 1, 54, 70
1, 12071, Note_on_c, 1, 54, 0
1, 12072, Note_on_c, 1, 62, 70
1, 12093, Note_on_c, 0, 72, 0
1, 12095, Note_on_c, 1, 62, 0
1, 12096, Note_on_c, 0, 72, 70
1, 12096, Note_on_c, 1, 55, 70
1, 12108, Note_on_c, 0, 72, 0
1, 12108, Note_on_c, 0, 74, 70
1, 12119, Note_on_c, 1, 55, 0
1, 12120, Note_on_c, 0, 74, 0
1, 12120, Note_on_c, 0, 72, 70
1, 12120, Note_on_c, 1, 62, 70
1, 12141, Note_on_c, 0, 72, 0
1, 12143, Note_on_c, 1, 62, 0
1, 12144, Note_on_c, 0, 71, 70
1, 12144, Note_on_c, 1, 59, 70
1, 12167, Note_on_c, 1, 59, 0
1, 12168, Note_on_c, 1, 62, 70
1, 12189, Note_on_c, 0, 71, 0
1, 12191, Note_on_c, 1, 62, 0
1, 12192, Note_on_c, 0, 83, 70
1, 12192, Note_on_c, 1, 55, 70
1, 12215, Note_on_c, 1, 55, 0
1, 12216, Note_on_c, 1, 62, 70
1, 12237, Note_on_c, 0, 83, 0
1, 12239, Note_on_c, 1, 62, 0
1, 12240, Note_on_c, 0, 83, 70
1, 12240, Note_on_c, 1, 50, 70
1, 12263, Note_on_c, 1, 50, 0
1, 12264, Note_on_c, 1, 62, 70
1, 12287, Note_on_c, 1, 62, 0
1, 12288, Note_on_c, 1, 54, 70
1, 12311, Note_on_c, 0, 83, 0
1, 12311, Note_on_c, 1, 54, 0
1, 12312, Note_on_c, 0, 84, 70
1, 12312, Note_on_c, 1, 62, 70
1, 12335, Note_on_c, 0, 84, 0
1, 12335, Note_on_c, 1, 62, 0
1, 12336, Note_on_c, 0, 81, 70
1, 12336, Note_on_c, 1, 50, 70
1, 12359, Note_on_c, 0, 81, 0
1, 12359, Note_on_c, 1, 50, 0
1, 12360, Note_on_c, 0, 78, 70
1, 12360, Note_on_c, 1, 62, 70
1, 12383, Note_on_c, 0, 78, 0
1, 12383, Note_on_c, 1, 62, 0
1, 12384, Note_on_c, 0, 79, 70
1, 12384, Note_on_c, 1, 59, 70
1, 12384, Note_on_c, 1, 55, 70
1, 12429, Note_on_c, 0, 79, 0
1, 12429, Note_on_c, 1, 59, 0
1, 12429, Note_on_c, 1, 55, 0
1, 12528, Note_on_c, 0, 55, 80
1, 12528, Note_on_c, 1, 47, 80
1, 12551, Note_on_c, 0, 55, 0
1, 12552, Note_on_c, 0, 67, 80
1, 12573, Note_on_c, 1, 47, 0
1, 12575, Note_on_c, 0, 67, 0
1, 12576, Note_on_c, 0, 56, 80
1, 12576, Note_on_c, 1, 48, 80
1, 12599, Note_on_c, 0, 56, 0
1, 12600, Note_on_c, 0, 67, 80
1, 12621, Note_on_c, 1, 48, 0
1, 12623, Note_on_c, 0, 67, 0
1, 12624, Note_on_c, 0, 59, 80
1, 12624, Note_on_c, 1, 50, 80
1, 12647, Note_on_c, 0, 59, 0
1, 12648, Note_on_c, 0, 67, 80
1, 12669, Note_on_c, 1, 50, 0
1, 12671, Note_on_c, 0, 67, 0
1, 12672, Note_on_c, 0, 60, 80
1, 12672, Note_on_c, 1, 51, 80
1, 12695, Note_on_c, 0, 60, 0
1, 12696, Note_on_c, 0, 67, 80
1, 12717, Note_on_c, 1, 51, 0
1, 12719, Note_on_c, 0, 67, 0
1, 12720, Note_on_c, 0, 62, 80
1, 12720, Note_on_c, 1, 59, 80
1, 12743, Note_on_c, 0, 62, 0
1, 12744, Note_on_c, 0, 67, 80
1, 12765, Note_on_c, 1, 59, 0
1, 12767, Note_on_c, 0, 67, 0
1, 12768, Note_on_c, 0, 63, 80
1, 12768, Note_on_c, 1, 60, 80
1, 12791, Note_on_c, 0, 63, 0
1, 12792, Note_on_c, 0, 67, 80
1, 12813, Note_on_c, 1, 60, 0
1, 12815, Note_on_c, 0, 67, 0
1, 12816, Note_on_c, 0, 62, 80
1, 12816, Note_on_c, 1, 59, 80
1, 12839, Note_on_c, 0, 62, 0
1, 12840, Note_on_c, 0, 67, 80
1, 12861, Note_on_c, 1, 59, 0
1, 12863, Note_on_c, 0, 67, 0
1, 12864, Note_on_c, 0, 63, 80
1, 12864, Note_on_c, 1, 60, 80
1, 12887, Note_on_c, 0, 63, 0
1, 12888, Note_on_c, 0, 67, 80
1, 12909, Note_on_c, 1, 60, 0
1, 12911, Note_on_c, 0, 67, 0
1, 12912, Note_on_c, 0, 60, 80
1, 12912, Note_on_c, 1, 57, 80
1, 12935, Note_on_c, 0, 60, 0
1, 12936, Note_on_c, 0, 67, 80
1, 12957, Note_on_c, 1, 57, 0
1, 12959, Note_on_c, 0, 67, 0
1, 12960, Note_on_c, 1, 55, 80
1, 12980, Note_on_c, 1, 55, 0
1, 12984, Note_on_c, 0, 67, 80
1, 13007, Note_on_c, 0, 67, 0
1, 13008, Note_on_c, 1, 59, 80
1, 13028, Note_on_c, 1, 59, 0
1, 13032, Note_on_c, 0, 67, 80
1, 13055, Note_on_c, 0, 67, 0
1, 13056, Note_on_c, 1, 62, 80
1, 13076, Note_on_c, 1, 62, 0
1, 13080, Note_on_c, 0, 67, 80
1, 13103, Note_on_c, 0, 67, 0
1, 13104, Note_on_c, 1, 65, 80
1, 13124, Note_on_c, 1, 65, 0
1, 13128, Note_on_c, 0, 67, 80
1, 13151, Note_on_c, 0, 67, 0
1, 13152, Note_on_c, 1, 62, 80
1, 13172, Note_on_c, 1, 62, 0
1, 13176, Note_on_c, 0, 67, 80
1, 13199, Note_on_c, 0, 67, 0
1, 13200, Note_on_c, 1, 63, 80
1, 13220, Note_on_c, 1, 63, 0
1, 13224, Note_on_c, 0, 67, 80
1, 13247, Note_on_c, 0, 67, 0
1, 13248, Note_on_c, 1, 55, 80
1, 13268, Note_on_c, 1, 55, 0
1, 13272, Note_on_c, 0, 67, 80
1, 13295, Note_on_c, 0, 67, 0
1, 13296, Note_on_c, 1, 59, 80
1, 13316, Note_on_c, 1, 59, 0
1, 13320, Note_on_c, 0, 67, 80
1, 13343, Note_on_c, 0, 67, 0
1, 13344, Note_on_c, 1, 62, 80
1, 13364, Note_on_c, 1, 62, 0
1, 13368, Note_on_c, 0, 67, 80
1, 13391, Note_on_c, 0, 67, 0
1, 13392, Note_on_c, 1, 65, 80
1, 13412, Note_on_c, 1, 65, 0
1, 13416, Note_on_c, 0, 67, 80
1, 13439, Note_on_c, 0, 67, 0
1, 13440, Note_on_c, 1, 62, 80
1, 13460, Note_on_c, 1, 62, 0
1, 13464, Note_on_c, 0, 67, 80
1, 13487, Note_on_c, 0, 67, 0
1, 13488, Note_on_c, 1, 63, 80
1, 13508, Note_on_c, 1, 63, 0
1, 13512, Note_on_c, 0, 67, 80
1, 13535, Note_on_c, 0, 67, 0
1, 13536, Note_on_c, 1, 53, 80
1, 13560, Note_on_c, 0, 68, 80
1, 13583, Note_on_c, 0, 68, 0
1, 13584, Note_on_c, 0, 65, 80
1, 13607, Note_on_c, 0, 65, 0
1, 13608, Note_on_c, 0, 68, 80
1, 13631, Note_on_c, 0, 68, 0
1, 13632, Note_on_c, 0, 63, 80
1, 13655, Note_on_c, 0, 63, 0
1, 13656, Note_on_c, 0, 68, 80
1, 13669, Note_on_c, 1, 53, 0
1, 13679, Note_on_c, 0, 68, 0
1, 13680, Note_on_c, 0, 62, 80
1, 13680, Note_on_c, 1, 58, 80
1, 13703, Note_on_c, 0, 62, 0
1, 13704, Note_on_c, 0, 65, 80
1, 13727, Note_on_c, 0, 65, 0
1, 13728, Note_on_c, 0, 68, 80
1, 13751, Note_on_c, 0, 68, 0
1, 13752, Note_on_c, 0, 72, 80
1, 13775, Note_on_c, 0, 72, 0
1, 13776, Note_on_c, 0, 70, 80
1, 13799, Note_on_c, 0, 70, 0
1, 13800, Note_on_c, 0, 68, 80
1, 13813, Note_on_c, 1, 58, 0
1, 13823, Note_on_c, 0, 68, 0
1, 13824, Note_on_c, 1, 51, 80
1, 13848, Note_on_c, 0, 67, 80
1, 13871, Note_on_c, 0, 67, 0
1, 13872, Note_on_c, 0, 63, 80
1, 13895, Note_on_c, 0, 63, 0
1, 13896, Note_on_c, 0, 67, 80
1, 13919, Note_on_c, 0, 67, 0
1, 13920, Note_on_c, 0, 62, 80
1, 13943, Note_on_c, 0, 62, 0
1, 13944, Note_on_c, 0, 67, 80
1, 13957, Note_on_c, 1, 51, 0
1, 13967, Note_on_c, 0, 67, 0
1, 13968, Note_on_c, 0, 60, 80
1, 13968, Note_on_c, 1, 56, 80
1, 13991, Note_on_c, 0, 60, 0
1, 13992, Note_on_c, 0, 63, 80
1, 14015, Note_on_c, 0, 63, 0
1, 14016, Note_on_c, 0, 67, 80
1, 14039, Note_on_c, 0, 67, 0
1, 14040, Note_on_c, 0, 70, 80
1, 14063, Note_on_c, 0, 70, 0
1, 14064, Note_on_c, 0, 68, 80
1, 14087, Note_on_c, 0, 68, 0
1, 14088, Note_on_c, 0, 67, 80
1, 14101, Note_on_c, 1, 56, 0
1, 14111, Note_on_c, 0, 67, 0
1, 14112, Note_on_c, 1, 50, 80
1, 14136, Note_on_c, 0, 65, 80
1, 14159, Note_on_c, 0, 65, 0
1, 14160, Note_on_c, 0, 62, 80
1, 14183, Note_on_c, 0, 62, 0
1, 14184, Note_on_c, 0, 65, 80
1, 14207, Note_on_c, 0, 65, 0
1, 14208, Note_on_c, 0, 60, 80
1, 14231, Note_on_c, 0, 60, 0
1, 14232, Note_on_c, 0, 65, 80
1, 14245, Note_on_c, 1, 50, 0
1, 14255, Note_on_c, 0, 65, 0
1, 14256, Note_on_c, 0, 59, 80
1, 14256, Note_on_c, 1, 55, 80
1, 14279, Note_on_c, 0, 59, 0
1, 14280, Note_on_c, 0, 62, 80
1, 14303, Note_on_c, 0, 62, 0
1, 14304, Note_on_c, 0, 65, 80
1, 14327, Note_on_c, 0, 65, 0
1, 14328, Note_on_c, 0, 68, 80
1, 14351, Note_on_c, 0, 68, 0
1, 14352, Note_on_c, 0, 67, 80
1, 14375, Note_on_c, 0, 67, 0
1, 14376, Note_on_c, 0, 65, 80
1, 14389, Note_on_c, 1, 55, 0
1, 14399, Note_on_c, 0, 65, 0
1, 14400, Note_on_c, 0, 63, 80
1, 14400, Note_on_c, 1, 48, 80
1, 14423, Note_on_c, 0, 63, 0
1, 14424, Note_on_c, 0, 60, 80
1, 14447, Note_on_c, 0, 60, 0
1, 14448, Note_on_c, 0, 63, 80
1, 14471, Note_on_c, 0, 63, 0
1, 14472, Note_on_c, 0, 60, 80
1, 14489, Note_on_c, 1, 48, 0
1, 14495, Note_on_c, 0, 60, 0
1, 14496, Note_on_c, 0, 64, 80
1, 14496, Note_on_c, 1, 58, 80
1, 14519, Note_on_c, 0, 64, 0
1, 14520, Note_on_c, 0, 60, 80
1, 14541, Note_on_c, 1, 58, 0
1, 14543, Note_on_c, 0, 60, 0
1, 14544, Note_on_c, 0, 65, 80
1, 14544, Note_on_c, 1, 57, 80
1, 14567, Note_on_c, 0, 65, 0
1, 14568, Note_on_c, 0, 60, 80
1, 14591, Note_on_c, 0, 60, 0
1, 14592, Note_on_c, 0, 65, 80
1, 14615, Note_on_c, 0, 65, 0
1, 14616, Note_on_c, 0, 60, 80
1, 14633, Note_on_c, 1, 57, 0
1, 14639, Note_on_c, 0, 60, 0
1, 14640, Note_on_c, 0, 66, 80
1, 14640, Note_on_c, 1, 56, 80
1, 14663, Note_on_c, 0, 66, 0
1, 14664, Note_on_c, 0, 60, 80
1, 14685, Note_on_c, 1, 56, 0
1, 14687, Note_on_c, 0, 60, 0
1, 14688, Note_on_c, 1, 55, 80
1, 14712, Note_on_c, 0, 59, 80
1, 14735, Note_on_c, 0, 59, 0
1, 14736, Note_on_c, 0, 62, 80
1, 14759, Note_on_c, 0, 62, 0
1, 14760, Note_on_c, 0, 59, 80
1, 14783, Note_on_c, 0, 59, 0
1, 14784, Note_on_c, 0, 67, 80
1, 14807, Note_on_c, 0, 67, 0
1, 14808, Note_on_c, 0, 59, 80
1, 14821, Note_on_c, 1, 55, 0
1, 14831, Note_on_c, 0, 59, 0
1, 14832, Note_on_c, 1, 53, 80
1, 14832, Note_on_c, 1, 41, 80
1, 14856, Note_on_c, 0, 59, 80
1, 14879, Note_on_c, 0, 59, 0
1, 14880, Note_on_c, 0, 62, 80
1, 14903, Note_on_c, 0, 62, 0
1, 14904, Note_on_c, 0, 59, 80
1, 14927, Note_on_c, 0, 59, 0
1, 14928, Note_on_c, 0, 68, 80
1, 14951, Note_on_c, 0, 68, 0
1, 14952, Note_on_c, 0, 59, 80
1, 14965, Note_on_c, 1, 53, 0
1, 14965, Note_on_c, 1, 41, 0
1, 14975, Note_on_c, 0, 59, 0
1, 14976, Note_on_c, 1, 52, 80
1, 14976, Note_on_c, 1, 40, 80
1, 15000, Note_on_c, 0, 59, 80
1, 15023, Note_on_c, 0, 59, 0
1, 15024, Note_on_c, 0, 62, 80
1, 15047, Note_on_c, 0, 62, 0
1, 15048, Note_on_c, 0, 59, 80
1, 15071, Note_on_c, 0, 59, 0
1, 15072, Note_on_c, 0, 68, 80
1, 15095, Note_on_c, 0, 68, 0
1, 15096, Note_on_c, 0, 59, 80
1, 15120, Note_on_c, 0, 68, 64
1, 15397, Note_on_c, 0, 59, 0
1, 15397, Note_on_c, 0, 68, 0
1, 15397, Note_on_c, 1, 52, 0
1, 15397, Note_on_c, 1, 40, 0
1, 15504, Note_on_c, 0, 76, 75
1, 15552, Note_on_c, 0, 76, 0
1, 15552, Note_on_c, 0, 72, 75
1, 15572, Note_on_c, 0, 72, 0
1, 15600, Note_on_c, 1, 60, 75
1, 15600, Note_on_c, 1, 57, 75
1, 15645, Note_on_c, 1, 60, 0
1, 15645, Note_on_c, 1, 57, 0
1, 15648, Note_on_c, 0, 69, 75
1, 15696, Note_on_c, 0, 69, 0
1, 15696, Note_on_c, 0, 68, 75
1, 15716, Note_on_c, 0, 68, 0
1, 15744, Note_on_c, 1, 62, 75
1, 15744, Note_on_c, 1, 59, 75
1, 15789, Note_on_c, 1, 62, 0
1, 15789, Note_on_c, 1, 59, 0
1, 15792, Note_on_c, 0, 64, 75
1, 15837, Note_on_c, 0, 64, 0
1, 15840, Note_on_c, 0, 69, 75
1, 15863, Note_on_c, 0, 69, 0
1, 15864, Note_on_c, 0, 72, 75
1, 15887, Note_on_c, 0, 72, 0
1, 15888, Note_on_c, 0, 76, 75
1, 15888, Note_on_c, 1, 60, 75
1, 15911, Note_on_c, 0, 76, 0
1, 15912, Note_on_c, 0, 81, 75
1, 15933, Note_on_c, 1, 60, 0
1, 15935, Note_on_c, 0, 81, 0
1, 15936, Note_on_c, 0, 76, 75
1, 15936, Note_on_c, 1, 57, 75
1, 15959, Note_on_c, 0, 76, 0
1, 15960, Note_on_c, 0, 72, 75
1, 15981, Note_on_c, 1, 57, 0
1, 15983, Note_on_c, 0, 72, 0
1, 15984, Note_on_c, 0, 74, 75
1, 15984, Note_on_c, 1, 59, 75
1, 15984, Note_on_c, 1, 52, 75
1, 15996, Note_on_c, 0, 74, 0
1, 15996, Note_on_c, 0, 76, 75
1, 16008, Note_on_c, 0, 76, 0
1, 16008, Note_on_c, 0, 74, 75
1, 16029, Note_on_c, 0, 74, 0
1, 16029, Note_on_c, 1, 59, 0
1, 16029, Note_on_c, 1, 52, 0
1, 16032, Note_on_c, 0, 72, 75
1, 16032, Note_on_c, 1, 57, 75
1, 16077, Note_on_c, 0, 72, 0
1, 16077, Note_on_c, 1, 57, 0
1, 16224, Note_on_c, 0, 84, 70
1, 16239, Note_on_c, 0, 84, 0
1, 16240, Note_on_c, 0, 86, 70
1, 16255, Note_on_c, 0, 86, 0
1, 16256, Note_on_c, 0, 84, 70
1, 16272, Note_on_c, 0, 84, 0
1, 16272, Note_on_c, 0, 81, 70
1, 16292, Note_on_c, 0, 81, 0
1, 16320, Note_on_c, 1, 69, 70
1, 16320, Note_on_c, 1, 65, 70
1, 16365, Note_on_c, 1, 69, 0
1, 16365, Note_on_c, 1, 65, 0
1, 16368, Note_on_c, 0, 77, 70
1, 16383, Note_on_c, 0, 77, 0
1, 16384, Note_on_c, 0, 79, 70
1, 16399, Note_on_c, 0, 79, 0
1, 16400, Note_on_c, 0, 77, 70
1, 16416, Note_on_c, 0, 77, 0
1, 16416, Note_on_c, 0, 76, 70
1, 16436, Note_on_c, 0, 76, 0
1, 16464, Note_on_c, 1, 70, 70
1, 16464, Note_on_c, 1, 67, 70
1, 16509, Note_on_c, 1, 70, 0
1, 16509, Note_on_c, 1, 67, 0
1, 16512, Note_on_c, 0, 72, 70
1, 16557, Note_on_c, 0, 72, 0
1, 16560, Note_on_c, 0, 77, 70
1, 16583, Note_on_c, 0, 77, 0
1, 16584, Note_on_c, 0, 81, 70
1, 16607, Note_on_c, 0, 81, 0
1, 16608, Note_on_c, 0, 84, 70
1, 16608, Note_on_c, 1, 69, 70
1, 16631, Note_on_c, 0, 84, 0
1, 16632, Note_on_c, 0, 89, 70
1, 16653, Note_on_c, 1, 69, 0
1, 16655, Note_on_c, 0, 89, 0
1, 16656, Note_on_c, 0, 84, 70
1, 16656, Note_on_c, 1, 65, 70
1, 16679, Note_on_c, 0, 84, 0
1, 16680, Note_on_c, 0, 81, 70
1, 16701, Note_on_c, 1, 65, 0
1, 16703, Note_on_c, 0, 81, 0
1, 16704, Note_on_c, 0, 82, 70
1, 16704, Note_on_c, 1, 67, 70
1, 16704, Note_on_c, 1, 60, 70
1, 16716, Note_on_c, 0, 82, 0
1, 16716, Note_on_c, 0, 84, 70
1, 16728, Note_on_c, 0, 84, 0
1, 16728, Note_on_c, 0, 82, 70
1, 16749, Note_on_c, 0, 82, 0
1, 16749, Note_on_c, 1, 67, 0
1, 16749, Note_on_c, 1, 60, 0
1, 16752, Note_on_c, 0, 81, 70
1, 16752, Note_on_c, 1, 65, 70
1, 16797, Note_on_c, 0, 81, 0
1, 16797, Note_on_c, 1, 65, 0
1, 16800, Note_on_c, 0, 81, 75
1, 16845, Note_on_c, 0, 81, 0
1, 16848, Note_on_c, 0, 81, 75
1, 16848, Note_on_c, 1, 61, 75
1, 16860, Note_on_c, 0, 81, 0
1, 16860, Note_on_c, 0, 82, 75
1, 16871, Note_on_c, 1, 61, 0
1, 16872, Note_on_c, 0, 82, 0
1, 16872, Note_on_c, 0, 81, 75
1, 16872, Note_on_c, 1, 69, 75
1, 16893, Note_on_c, 0, 81, 0
1, 16895, Note_on_c, 1, 69, 0
1, 16896, Note_on_c, 0, 79, 75
1, 16896, Note_on_c, 1, 64, 75
1, 16919, Note_on_c, 1, 64, 0
1, 16920, Note_on_c, 1, 69, 75
1, 16941, Note_on_c, 0, 79, 0
1, 16943, Note_on_c, 1, 69, 0
1, 16944, Note_on_c, 0, 79, 75
1, 16944, Note_on_c, 1, 61, 75
1, 16967, Note_on_c, 1, 61, 0
1, 16968, Note_on_c, 1, 69, 75
1, 16989, Note_on_c, 0, 79, 0
1, 16991, Note_on_c, 1, 69, 0
1, 16992, Note_on_c, 0, 79, 75
1, 16992, Note_on_c, 1, 62, 75
1, 17004, Note_on_c, 0, 79, 0
1, 17004, Note_on_c, 0, 81, 75
1, 17015, Note_on_c, 1, 62, 0
1, 17016, Note_on_c, 0, 81, 0
1, 17016, Note_on_c, 0, 79, 75
1, 17016, Note_on_c, 1, 69, 75
1, 17037, Note_on_c, 0, 79, 0
1, 17039, Note_on_c, 1, 69, 0
1, 17040, Note_on_c, 0, 77, 75
1, 17040, Note_on_c, 1, 65, 75
1, 17063, Note_on_c, 1, 65, 0
1, 17064, Note_on_c, 1, 69, 75
1, 17085, Note_on_c, 0, 77, 0
1, 17087, Note_on_c, 1, 69, 0
1, 17088, Note_on_c, 0, 81, 75
1, 17088, Note_on_c, 1, 62, 75
1, 17111, Note_on_c, 1, 62, 0
1, 17112, Note_on_c, 1, 69, 75
1, 17133, Note_on_c, 0, 81, 0
1, 17135, Note_on_c, 1, 69, 0
1, 17136, Note_on_c, 0, 81, 75
1, 17136, Note_on_c, 1, 59, 75
1, 17148, Note_on_c, 0, 81, 0
1, 17148, Note_on_c, 0, 83, 75
1, 17159, Note_on_c, 1, 59, 0
1, 17160, Note_on_c, 0, 83, 0
1, 17160, Note_on_c, 0, 81, 75
1, 17160, Note_on_c, 1, 67, 75
1, 17181, Note_on_c, 0, 81, 0
1, 17183, Note_on_c, 1, 67, 0
1, 17184, Note_on_c, 0, 79, 75
1, 17184, Note_on_c, 1, 62, 75
1, 17207, Note_on_c, 1, 62, 0
1, 17208, Note_on_c, 1, 67, 75
1, 17229, Note_on_c, 0, 79, 0
1, 17231, Note_on_c, 1, 67, 0
1, 17232, Note_on_c, 0, 77, 75
1, 17232, Note_on_c, 1, 59, 75
1, 17255, Note_on_c, 1, 59, 0
1, 17256, Note_on_c, 1, 67, 75
1, 17277, Note_on_c, 0, 77, 0
1, 17279, Note_on_c, 1, 67, 0
1, 17280, Note_on_c, 0, 77, 75
1, 17280, Note_on_c, 1, 60, 75
1, 17292, Note_on_c, 0, 77, 0
1, 17292, Note_on_c, 0, 79, 75
1, 17304, Note_on_c, 0, 79, 0
1, 17304, Note_on_c, 0, 77, 75
1, 17325, Note_on_c, 0, 77, 0
1, 17328, Note_on_c, 0, 76, 75
1, 17369, Note_on_c, 1, 60, 0
1, 17373, Note_on_c, 0, 76, 0
1, 17376, Note_on_c, 0, 79, 75
1, 17424, Note_on_c, 0, 79, 0
1, 17424, Note_on_c, 0, 76, 75
1, 17444, Note_on_c, 0, 76, 0
1, 17472, Note_on_c, 1, 64, 75
1, 17472, Note_on_c, 1, 60, 75
1, 17517, Note_on_c, 1, 64, 0
1, 17517, Note_on_c, 1, 60, 0
1, 17520, Note_on_c, 0, 72, 75
1, 17568, Note_on_c, 0, 72, 0
1, 17568, Note_on_c, 0, 71, 75
1, 17588, Note_on_c, 0, 71, 0
1, 17616, Note_on_c, 1, 65, 75
1, 17616, Note_on_c, 1, 62, 75
1, 17661, Note_on_c, 1, 65, 0
1, 17661, Note_on_c, 1, 62, 0
1, 17664, Note_on_c, 0, 67, 75
1, 17709, Note_on_c, 0, 67, 0
1, 17712, Note_on_c, 0, 72, 75
1, 17735, Note_on_c, 0, 72, 0
1, 17736, Note_on_c, 0, 76, 75
1, 17759, Note_on_c, 0, 76, 0
1, 17760, Note_on_c, 0, 79, 75
1, 17760, Note_on_c, 1, 64, 75
1, 17783, Note_on_c, 0, 79, 0
1, 17784, Note_on_c, 0, 84, 75
1, 17805, Note_on_c, 1, 64, 0
1, 17807, Note_on_c, 0, 84, 0
1, 17808, Note_on_c, 0, 79, 75
1, 17808, Note_on_c, 1, 60, 75
1, 17831, Note_on_c, 0, 79, 0
1, 17832, Note_on_c, 0, 76, 75
1, 17853, Note_on_c, 1, 60, 0
1, 17855, Note_on_c, 0, 76, 0
1, 17856, Note_on_c, 0, 77, 75
1, 17856, Note_on_c, 1, 62, 75
1, 17856, Note_on_c, 1, 55, 75
1, 17868, Note_on_c, 0, 77, 0
1, 17868, Note_on_c, 0, 79, 75
1, 17880, Note_on_c, 0, 79, 0
1, 17880, Note_on_c, 0, 77, 75
1, 17901, Note_on_c, 0, 77, 0
1, 17901, Note_on_c, 1, 62, 0
1, 17901, Note_on_c, 1, 55, 0
1, 17904, Note_on_c, 0, 76, 75
1, 17904, Note_on_c, 1, 60, 75
1, 17949, Note_on_c, 0, 76, 0
1, 17949, Note_on_c, 1, 60, 0
1, 17952, Note_on_c, 0, 79, 75
1, 17967, Note_on_c, 0, 79, 0
1, 17968, Note_on_c, 0, 81, 75
1, 17983, Note_on_c, 0, 81, 0
1, 17984, Note_on_c, 0, 79, 75
1, 18000, Note_on_c, 0, 79, 0
1, 18000, Note_on_c, 0, 76, 75
1, 18020, Note_on_c, 0, 76, 0
1, 18048, Note_on_c, 1, 64, 75
1, 18048, Note_on_c, 1, 60, 75
1, 18093, Note_on_c, 1, 64, 0
1, 18093, Note_on_c, 1, 60, 0
1, 18096, Note_on_c, 0, 72, 75
1, 18111, Note_on_c, 0, 72, 0
1, 18112, Note_on_c, 0, 74, 75
1, 18127, Note_on_c, 0, 74, 0
1, 18128, Note_on_c, 0, 72, 75
1, 18144, Note_on_c, 0, 72, 0
1, 18144, Note_on_c, 0, 71, 75
1, 18164, Note_on_c, 0, 71, 0
1, 18192, Note_on_c, 1, 65, 75
1, 18192, Note_on_c, 1, 62, 75
1, 18237, Note_on_c, 1, 65, 0
1, 18237, Note_on_c, 1, 62, 0
1, 18240, Note_on_c, 0, 67, 75
1, 18285, Note_on_c, 0, 67, 0
1, 18288, Note_on_c, 0, 71, 75
1, 18311, Note_on_c, 0, 71, 0
1, 18312, Note_on_c, 0, 72, 75
1, 18335, Note_on_c, 0, 72, 0
1, 18336, Note_on_c, 0, 76, 75
1, 18336, Note_on_c, 1, 64, 75
1, 18359, Note_on_c, 0, 76, 0
1, 18360, Note_on_c, 0, 72, 75
1, 18381, Note_on_c, 1, 64, 0
1, 18383, Note_on_c, 0, 72, 0
1, 18384, Note_on_c, 0, 67, 75
1, 18384, Note_on_c, 1, 60, 75
1, 18407, Note_on_c, 0, 67, 0
1, 18408, Note_on_c, 0, 64, 75
1, 18429, Note_on_c, 1, 60, 0
1, 18431, Note_on_c, 0, 64, 0
1, 18432, Note_on_c, 0, 65, 75
1, 18432, Note_on_c, 1, 62, 75
1, 18432, Note_on_c, 1, 55, 75
1, 18444, Note_on_c, 0, 65, 0
1, 18444, Note_on_c, 0, 67, 75
1, 18456, Note_on_c, 0, 67, 0
1, 18456, Note_on_c, 0, 65, 75
1, 18477, Note_on_c, 0, 65, 0
1, 18477, Note_on_c, 1, 62, 0
1, 18477, Note_on_c, 1, 55, 0
1, 18480, Note_on_c, 0, 64, 75
1, 18480, Note_on_c, 1, 60, 75
1, 18525, Note_on_c, 0, 64, 0
1, 18525, Note_on_c, 1, 60, 0
1, 18528, Note_on_c, 0, 60, 75
1, 18573, Note_on_c, 0, 60, 0
1, 18576, Note_on_c, 0, 65, 75
1, 18576, Note_on_c, 1, 57, 75
1, 18599, Note_on_c, 0, 65, 0
1, 18600, Note_on_c, 0, 60, 75
1, 18621, Note_on_c, 1, 57, 0
1, 18623, Note_on_c, 0, 60, 0
1, 18624, Note_on_c, 0, 64, 75
1, 18624, Note_on_c, 1, 55, 75
1, 18647, Note_on_c, 0, 64, 0
1, 18648, Note_on_c, 0, 60, 75
1, 18669, Note_on_c, 1, 55, 0
1, 18671, Note_on_c, 0, 60, 0
1, 18672, Note_on_c, 0, 69, 75
1, 18672, Note_on_c, 1, 53, 75
1, 18695, Note_on_c, 0, 69, 0
1, 18696, Note_on_c, 0, 60, 75
1, 18717, Note_on_c, 1, 53, 0
1, 18719, Note_on_c, 0, 60, 0
1, 18720, Note_on_c, 0, 67, 76
1, 18720, Note_on_c, 1, 52, 75
1, 18743, Note_on_c, 0, 67, 0
1, 18744, Note_on_c, 0, 60, 76
1, 18765, Note_on_c, 1, 52, 0
1, 18767, Note_on_c, 0, 60, 0
1, 18768, Note_on_c, 0, 65, 76
1, 18768, Note_on_c, 1, 50, 76
1, 18791, Note_on_c, 0, 65, 0
1, 18792, Note_on_c, 0, 60, 76
1, 18813, Note_on_c, 1, 50, 0
1, 18815, Note_on_c, 0, 60, 0
1, 18816, Note_on_c, 0, 64, 76
1, 18816, Note_on_c, 1, 48, 76
1, 18839, Note_on_c, 0, 64, 0
1, 18840, Note_on_c, 0, 60, 77
1, 18861, Note_on_c, 1, 48, 0
1, 18863, Note_on_c, 0, 60, 0
1, 18864, Note_on_c, 0, 65, 77
1, 18864, Note_on_c, 1, 57, 76
1, 18887, Note_on_c, 0, 65, 0
1, 18888, Note_on_c, 0, 60, 77
1, 18909, Note_on_c, 1, 57, 0
1, 18911, Note_on_c, 0, 60, 0
1, 18912, Note_on_c, 0, 64, 77
1, 18912, Note_on_c, 1, 55, 77
1, 18935, Note_on_c, 0, 64, 0
1, 18936, Note_on_c, 0, 60, 77
1, 18957, Note_on_c, 1, 55, 0
1, 18959, Note_on_c, 0, 60, 0
1, 18960, Note_on_c, 0, 69, 78
1, 18960, Note_on_c, 1, 53, 77
1, 18983, Note_on_c, 0, 69, 0
1, 18984, Note_on_c, 0, 60, 78
1, 19005, Note_on_c, 1, 53, 0
1, 19007, Note_on_c, 0, 60, 0
1, 19008, Note_on_c, 0, 67, 78
1, 19008, Note_on_c, 1, 52, 78
1, 19031, Note_on_c, 0, 67, 0
1, 19032, Note_on_c, 0, 60, 78
1, 19053, Note_on_c, 1, 52, 0
1, 19055, Note_on_c, 0, 60, 0
1, 19056, Note_on_c, 0, 71, 78
1, 19056, Note_on_c, 1, 50, 78
1, 19079, Note_on_c, 0, 71, 0
1, 19080, Note_on_c, 0, 60, 79
1, 19101, Note_on_c, 1, 50, 0
1, 19103, Note_on_c, 0, 60, 0
1, 19104, Note_on_c, 0, 72, 79
1, 19104, Note_on_c, 1, 48, 78
1, 19127, Note_on_c, 0, 72, 0
1, 19128, Note_on_c, 0, 60, 79
1, 19149, Note_on_c, 1, 48, 0
1, 19151, Note_on_c, 0, 60, 0
1, 19152, Note_on_c, 0, 74, 79
1, 19152, Note_on_c, 1, 47, 79
1, 19197, Note_on_c, 0, 74, 0
1, 19200, Note_on_c, 0, 65, 80
1, 19200, Note_on_c, 0, 62, 64
1, 19241, Note_on_c, 1, 47, 0
1, 19245, Note_on_c, 0, 65, 0
1, 19245, Note_on_c, 0, 62, 0
1, 19248, Note_on_c, 0, 65, 80
1, 19248, Note_on_c, 0, 60, 64
1, 19248, Note_on_c, 1, 48, 80
1, 19260, Note_on_c, 0, 65, 0
1, 19260, Note_on_c, 0, 64, 80
1, 19272, Note_on_c, 0, 64, 0
1, 19272, Note_on_c, 0, 62, 80
1, 19284, Note_on_c, 0, 62, 0
1, 19284, Note_on_c, 0, 64, 80
1, 19293, Note_on_c, 0, 60, 0
1, 19293, Note_on_c, 1, 48, 0
1, 19296, Note_on_c, 0, 64, 0
1, 19296, Note_on_c, 0, 62, 80
1, 19296, Note_on_c, 0, 59, 64
1, 19296, Note_on_c, 1, 43, 80
1, 19341, Note_on_c, 0, 62, 0
1, 19341, Note_on_c, 0, 59, 0
1, 19341, Note_on_c, 1, 43, 0
1, 19392, Note_on_c, 0, 69, 64
1, 19392, Note_on_c, 1, 65, 64
1, 19415, Note_on_c, 0, 69, 0
1, 19416, Note_on_c, 0, 71, 64
1, 19437, Note_on_c, 1, 65, 0
1, 19439, Note_on_c, 0, 71, 0
1, 19440, Note_on_c, 0, 72, 64
1, 19440, Note_on_c, 1, 64, 64
1, 19463, Note_on_c, 0, 72, 0
1, 19464, Note_on_c, 0, 71, 64
1, 19485, Note_on_c, 1, 64, 0
1, 19487, Note_on_c, 0, 71, 0
1, 19488, Note_on_c, 0, 74, 64
1, 19488, Note_on_c, 1, 62, 64
1, 19511, Note_on_c, 0, 74, 0
1, 19512, Note_on_c, 0, 72, 64
1, 19533, Note_on_c, 1, 62, 0
1, 19535, Note_on_c, 0, 72, 0
1, 19536, Note_on_c, 0, 76, 64
1, 19536, Note_on_c, 1, 60, 64
1, 19581, Note_on_c, 1, 60, 0
1, 19584, Note_on_c, 0, 76, 0
1, 19584, Note_on_c, 0, 65, 64
1, 19584, Note_on_c, 1, 62, 64
1, 19604, Note_on_c, 0, 65, 0
1, 19629, Note_on_c, 1, 62, 0
1, 19632, Note_on_c, 1, 59, 64
1, 19677, Note_on_c, 1, 59, 0
1, 19680, Note_on_c, 0, 74, 64
1, 19680, Note_on_c, 1, 55, 64
1, 19725, Note_on_c, 1, 55, 0
1, 19728, Note_on_c, 0, 74, 0
1, 19728, Note_on_c, 0, 64, 64
1, 19728, Note_on_c, 1, 60, 64
1, 19748, Note_on_c, 0, 64, 0
1, 19773, Note_on_c, 1, 60, 0
1, 19776, Note_on_c, 1, 48, 64
1, 19821, Note_on_c, 1, 48, 0
1, 19824, Note_on_c, 0, 72, 64
1, 19824, Note_on_c, 1, 52, 64
1, 19869, Note_on_c, 1, 52, 0
1, 19872, Note_on_c, 0, 72, 0
1, 19872, Note_on_c, 0, 62, 64
1, 19872, Note_on_c, 1, 53, 64
1, 19895, Note_on_c, 0, 62, 0
1, 19896, Note_on_c, 0, 72, 70
1, 19917, Note_on_c, 1, 53, 0
1, 19919, Note_on_c, 0, 72, 0
1, 19920, Note_on_c, 0, 60, 70
1, 19920, Note_on_c, 1, 52, 70
1, 19943, Note_on_c, 0, 60, 0
1, 19944, Note_on_c, 0, 72, 70
1, 19965, Note_on_c, 1, 52, 0
1, 19967, Note_on_c, 0, 72, 0
1, 19968, Note_on_c, 0, 62, 71
1, 19968, Note_on_c, 1, 53, 70
1, 19991, Note_on_c, 0, 62, 0
1, 19992, Note_on_c, 0, 72, 71
1, 20013, Note_on_c, 1, 53, 0
1, 20015, Note_on_c, 0, 72, 0
1, 20016, Note_on_c, 0, 63, 72
1, 20016, Note_on_c, 1, 55, 71
1, 20039, Note_on_c, 0, 63, 0
1, 20040, Note_on_c, 0, 72, 72
1, 20061, Note_on_c, 1, 55, 0
1, 20063, Note_on_c, 0, 72, 0
1, 20064, Note_on_c, 0, 62, 73
1, 20064, Note_on_c, 1, 53, 72
1, 20087, Note_on_c, 0, 62, 0
1, 20088, Note_on_c, 0, 72, 73
1, 20109, Note_on_c, 1, 53, 0
1, 20111, Note_on_c, 0, 72, 0
1, 20112, Note_on_c, 0, 64, 73
1, 20112, Note_on_c, 1, 55, 73
1, 20135, Note_on_c, 0, 64, 0
1, 20136, Note_on_c, 0, 72, 74
1, 20157, Note_on_c, 1, 55, 0
1, 20159, Note_on_c, 0, 72, 0
1, 20160, Note_on_c, 0, 65, 74
1, 20160, Note_on_c, 1, 57, 74
1, 20183, Note_on_c, 0, 65, 0
1, 20184, Note_on_c, 0, 72, 75
1, 20205, Note_on_c, 1, 57, 0
1, 20207, Note_on_c, 0, 72, 0
1, 20208, Note_on_c, 0, 64, 75
1, 20208, Note_on_c, 1, 55, 75
1, 20231, Note_on_c, 0, 64, 0
1, 20232, Note_on_c, 0, 72, 76
1, 20253, Note_on_c, 1, 55, 0
1, 20255, Note_on_c, 0, 72, 0
1, 20256, Note_on_c, 0, 66, 76
1, 20256, Note_on_c, 1, 57, 76
1, 20279, Note_on_c, 0, 66, 0
1, 20280, Note_on_c, 0, 72, 76
1, 20301, Note_on_c, 1, 57, 0
1, 20303, Note_on_c, 0, 72, 0
1, 20304, Note_on_c, 0, 71, 77
1, 20304, Note_on_c, 1, 55, 77
1, 20304, Note_on_c, 1, 55, 64
1, 20327, Note_on_c, 0, 71, 0
1, 20328, Note_on_c, 0, 67, 77
1, 20349, Note_on_c, 1, 55, 0
1, 20351, Note_on_c, 0, 67, 0
1, 20352, Note_on_c, 0, 72, 78
1, 20352, Note_on_c, 1, 57, 78
1, 20375, Note_on_c, 0, 72, 0
1, 20376, Note_on_c, 0, 67, 78
1, 20397, Note_on_c, 1, 57, 0
1, 20399, Note_on_c, 0, 67, 0
1, 20400, Note_on_c, 0, 74, 79
1, 20400, Note_on_c, 1, 59, 79
1, 20423, Note_on_c, 0, 74, 0
1, 20424, Note_on_c, 0, 67, 79
1, 20445, Note_on_c, 1, 59, 0
1, 20447, Note_on_c, 0, 67, 0
1, 20448, Note_on_c, 0, 75, 80
1, 20448, Note_on_c, 1, 60, 80
1, 20471, Note_on_c, 0, 75, 0
1, 20472, Note_on_c, 0, 67, 79
1, 20493, Note_on_c, 1, 60, 0
1, 20495, Note_on_c, 0, 67, 0
1, 20496, Note_on_c, 0, 74, 79
1, 20496, Note_on_c, 1, 59, 79
1, 20519, Note_on_c, 0, 74, 0
1, 20520, Note_on_c, 0, 67, 79
1, 20541, Note_on_c, 1, 59, 0
1, 20543, Note_on_c, 0, 67, 0
1, 20544, Note_on_c, 0, 76, 79
1, 20544, Note_on_c, 1, 61, 79
1, 20567, Note_on_c, 0, 76, 0
1, 20568, Note_on_c, 0, 67, 79
1, 20589, Note_on_c, 1, 61, 0
1, 20591, Note_on_c, 0, 67, 0
1, 20592, Note_on_c, 0, 77, 78
1, 20592, Note_on_c, 1, 62, 78
1, 20615, Note_on_c, 0, 77, 0
1, 20616, Note_on_c, 0, 67, 78
1, 20637, Note_on_c, 1, 62, 0
1, 20639, Note_on_c, 0, 67, 0
1, 20640, Note_on_c, 0, 76, 78
1, 20640, Note_on_c, 1, 61, 78
1, 20663, Note_on_c, 0, 76, 0
1, 20664, Note_on_c, 0, 67, 78
1, 20685, Note_on_c, 1, 61, 0
1, 20687, Note_on_c, 0, 67, 0
1, 20688, Note_on_c, 0, 78, 78
1, 20688, Note_on_c, 1, 63, 78
1, 20711, Note_on_c, 0, 78, 0
1, 20712, Note_on_c, 0, 67, 77
1, 20733, Note_on_c, 1, 63, 0
1, 20735, Note_on_c, 0, 67, 0
1, 20736, Note_on_c, 0, 79, 77
1, 20736, Note_on_c, 1, 64, 77
1, 20759, Note_on_c, 0, 79, 0
1, 20760, Note_on_c, 0, 67, 77
1, 20781, Note_on_c, 1, 64, 0
1, 20783, Note_on_c, 0, 67, 0
1, 20784, Note_on_c, 0, 76, 77
1, 20784, Note_on_c, 1, 61, 77
1, 20807, Note_on_c, 0, 76, 0
1, 20808, Note_on_c, 0, 67, 77
1, 20829, Note_on_c, 1, 61, 0
1, 20831, Note_on_c, 0, 67, 0
1, 20832, Note_on_c, 0, 77, 76
1, 20832, Note_on_c, 1, 62, 76
1, 20855, Note_on_c, 0, 77, 0
1, 20856, Note_on_c, 0, 67, 76
1, 20877, Note_on_c, 1, 62, 0
1, 20879, Note_on_c, 0, 67, 0
1, 20880, Note_on_c, 0, 74, 76
1, 20880, Note_on_c, 1, 59, 76
1, 20903, Note_on_c, 0, 74, 0
1, 20904, Note_on_c, 0, 67, 76
1, 20925, Note_on_c, 1, 59, 0
1, 20927, Note_on_c, 0, 67, 0
1, 20928, Note_on_c, 0, 76, 76
1, 20928, Note_on_c, 1, 60, 76
1, 20951, Note_on_c, 0, 76, 0
1, 20952, Note_on_c, 0, 67, 75
1, 20973, Note_on_c, 1, 60, 0
1, 20975, Note_on_c, 0, 67, 0
1, 20976, Note_on_c, 0, 72, 75
1, 20976, Note_on_c, 1, 57, 75
1, 20999, Note_on_c, 0, 72, 0
1, 21000, Note_on_c, 0, 67, 75
1, 21013, Note_on_c, 1, 55, 0
1, 21021, Note_on_c, 1, 57, 0
1, 21023, Note_on_c, 0, 67, 0
1, 21024, Note_on_c, 0, 71, 75
1, 21024, Note_on_c, 1, 55, 75
1, 21069, Note_on_c, 0, 71, 0
1, 21069, Note_on_c, 1, 55, 0
1, 21120, Note_on_c, 1, 55, 75
1, 21120, Note_on_c, 1, 52, 75
1, 21168, Note_on_c, 0, 79, 75
1, 21168, Note_on_c, 0, 76, 75
1, 21168, Note_on_c, 1, 55, 0
1, 21168, Note_on_c, 1, 48, 75
1, 21188, Note_on_c, 1, 52, 0
1, 21188, Note_on_c, 1, 48, 0
1, 21216, Note_on_c, 0, 79, 0
1, 21216, Note_on_c, 0, 72, 75
1, 21236, Note_on_c, 0, 76, 0
1, 21236, Note_on_c, 0, 72, 0
1, 21264, Note_on_c, 1, 55, 75
1, 21264, Note_on_c, 1, 52, 75
1, 21312, Note_on_c, 0, 79, 75
1, 21312, Note_on_c, 0, 76, 75
1, 21312, Note_on_c, 1, 55, 0
1, 21312, Note_on_c, 1, 48, 75
1, 21332, Note_on_c, 1, 52, 0
1, 21332, Note_on_c, 1, 48, 0
1, 21360, Note_on_c, 0, 79, 0
1, 21360, Note_on_c, 0, 72, 75
1, 21380, Note_on_c, 0, 76, 0
1, 21380, Note_on_c, 0, 72, 0
1, 21408, Note_on_c, 0, 72, 75
1, 21408, Note_on_c, 1, 69, 75
1, 21423, Note_on_c, 0, 72, 0
1, 21424, Note_on_c, 0, 74, 75
1, 21439, Note_on_c, 0, 74, 0
1, 21440, Note_on_c, 0, 72, 75
1, 21455, Note_on_c, 0, 72, 0
1, 21456, Note_on_c, 0, 71, 75
1, 21456, Note_on_c, 1, 69, 0
1, 21456, Note_on_c, 1, 67, 75
1, 21476, Note_on_c, 0, 71, 0
1, 21476, Note_on_c, 1, 67, 0
1, 21504, Note_on_c, 0, 69, 75
1, 21504, Note_on_c, 1, 65, 75
1, 21519, Note_on_c, 0, 69, 0
1, 21520, Note_on_c, 0, 71, 75
1, 21535, Note_on_c, 0, 71, 0
1, 21536, Note_on_c, 0, 69, 75
1, 21551, Note_on_c, 0, 69, 0
1, 21552, Note_on_c, 0, 67, 75
1, 21552, Note_on_c, 1, 65, 0
1, 21552, Note_on_c, 1, 64, 75
1, 21572, Note_on_c, 0, 67, 0
1, 21572, Note_on_c, 1, 64, 0
1, 21600, Note_on_c, 0, 65, 75
1, 21600, Note_on_c, 1, 53, 75
1, 21612, Note_on_c, 0, 65, 0
1, 21612, Note_on_c, 0, 67, 75
1, 21624, Note_on_c, 0, 67, 0
1, 21624, Note_on_c, 0, 65, 75
1, 21645, Note_on_c, 0, 65, 0
1, 21645, Note_on_c, 1, 53, 0
1, 21648, Note_on_c, 0, 64, 75
1, 21648, Note_on_c, 1, 55, 75
1, 21693, Note_on_c, 0, 64, 0
1, 21693, Note_on_c, 1, 55, 0
1, 21696, Note_on_c, 0, 62, 75
1, 21696, Note_on_c, 1, 43, 75
1, 21708, Note_on_c, 0, 62, 0
1, 21708, Note_on_c, 0, 64, 75
1, 21720, Note_on_c, 0, 64, 0
1, 21720, Note_on_c, 0, 62, 75
1, 21741, Note_on_c, 0, 62, 0
1, 21741, Note_on_c, 1, 43, 0
1, 21744, Note_on_c, 0, 60, 75
1, 21744, Note_on_c, 1, 48, 75
1, 21789, Note_on_c, 0, 60, 0
1, 21789, Note_on_c, 1, 48, 0
1, 21840, Note_on_c, 1, 55, 75
1, 21840, Note_on_c, 1, 52, 75
1, 21888, Note_on_c, 0, 79, 75
1, 21888, Note_on_c, 0, 76, 75
1, 21888, Note_on_c, 1, 55, 0
1, 21888, Note_on_c, 1, 48, 75
1, 21908, Note_on_c, 1, 52, 0
1, 21908, Note_on_c, 1, 48, 0
1, 21936, Note_on_c, 0, 79, 0
1, 21936, Note_on_c, 0, 72, 75
1, 21956, Note_on_c, 0, 76, 0
1, 21956, Note_on_c, 0, 72, 0
1, 21984, Note_on_c, 1, 67, 75
1, 21984, Note_on_c, 1, 64, 75
1, 22032, Note_on_c, 0, 88, 75
1, 22032, Note_on_c, 0, 84, 75
1, 22032, Note_on_c, 1, 67, 0
1, 22032, Note_on_c, 1, 60, 75
1, 22052, Note_on_c, 1, 64, 0
1, 22052, Note_on_c, 1, 60, 0
1, 22080, Note_on_c, 0, 88, 0
1, 22080, Note_on_c, 0, 84, 0
1, 22080, Note_on_c, 0, 76, 75
1, 22100, Note_on_c, 0, 76, 0
1, 22128, Note_on_c, 0, 72, 75
1, 22128, Note_on_c, 1, 69, 75
1, 22143, Note_on_c, 0, 72, 0
1, 22144, Note_on_c, 0, 74, 75
1, 22159, Note_on_c, 0, 74, 0
1, 22160, Note_on_c, 0, 72, 75
1, 22175, Note_on_c, 0, 72, 0
1, 22176, Note_on_c, 0, 71, 75
1, 22176, Note_on_c, 1, 69, 0
1, 22176, Note_on_c, 1, 67, 75
1, 22196, Note_on_c, 0, 71, 0
1, 22196, Note_on_c, 1, 67, 0
1, 22224, Note_on_c, 0, 69, 75
1, 22224, Note_on_c, 1, 65, 75
1, 22239, Note_on_c, 0, 69, 0
1, 22240, Note_on_c, 0, 71, 75
1, 22255, Note_on_c, 0, 71, 0
1, 22256, Note_on_c, 0, 69, 75
1, 22271, Note_on_c, 0, 69, 0
1, 22272, Note_on_c, 0, 67, 75
1, 22272, Note_on_c, 1, 65, 0
1, 22272, Note_on_c, 1, 64, 75
1, 22292, Note_on_c, 0, 67, 0
1, 22292, Note_on_c, 1, 64, 0
1, 22320, Note_on_c, 0, 65, 75
1, 22320, Note_on_c, 1, 53, 75
1, 22332, Note_on_c, 0, 65, 0
1, 22332, Note_on_c, 0, 67, 75
1, 22344, Note_on_c, 0, 67, 0
1, 22344, Note_on_c, 0, 65, 75
1, 22365, Note_on_c, 0, 65, 0
1, 22365, Note_on_c, 1, 53, 0
1, 22368, Note_on_c, 0, 64, 75
1, 22368, Note_on_c, 1, 55, 75
1, 22413, Note_on_c, 0, 64, 0
1, 22413, Note_on_c, 1, 55, 0
1, 22416, Note_on_c, 0, 62, 75
1, 22416, Note_on_c, 1, 43, 75
1, 22428, Note_on_c, 0, 62, 0
1, 22428, Note_on_c, 0, 64, 75
1, 22440, Note_on_c, 0, 64, 0
1, 22440, Note_on_c, 0, 62, 75
1, 22461, Note_on_c, 0, 62, 0
1, 22461, Note_on_c, 1, 43, 0
1, 22464, Note_on_c, 0, 60, 75
1, 22464, Note_on_c, 1, 48, 75
1, 22487, Note_on_c, 1, 48, 0
1, 22488, Note_on_c, 1, 55, 75
1, 22509, Note_on_c, 0, 60, 0
1, 22511, Note_on_c, 1, 55, 0
1, 22512, Note_on_c, 1, 52, 75
1, 22535, Note_on_c, 1, 52, 0
1, 22536, Note_on_c, 1, 55, 75
1, 22559, Note_on_c, 1, 55, 0
1, 22560, Note_on_c, 0, 67, 75
1, 22560, Note_on_c, 1, 48, 75
1, 22583, Note_on_c, 1, 48, 0
1, 22584, Note_on_c, 1, 55, 75
1, 22605, Note_on_c, 0, 67, 0
1, 22607, Note_on_c, 1, 55, 0
1, 22608, Note_on_c, 0, 67, 75
1, 22608, Note_on_c, 1, 47, 75
1, 22620, Note_on_c, 0, 67, 0
1, 22620, Note_on_c, 0, 69, 75
1, 22631, Note_on_c, 1, 47, 0
1, 22632, Note_on_c, 0, 69, 0
1, 22632, Note_on_c, 0, 67, 75
1, 22632, Note_on_c, 1, 55, 75
1, 22653, Note_on_c, 0, 67, 0
1, 22655, Note_on_c, 1, 55, 0
1, 22656, Note_on_c, 0, 65, 75
1, 22656, Note_on_c, 1, 50, 75
1, 22679, Note_on_c, 1, 50, 0
1, 22680, Note_on_c, 1, 55, 75
1, 22701, Note_on_c, 0, 65, 0
1, 22703, Note_on_c, 1, 55, 0
1, 22704, Note_on_c, 0, 65, 75
1, 22704, Note_on_c, 1, 47, 75
1, 22727, Note_on_c, 1, 47, 0
1, 22728, Note_on_c, 1, 55, 75
1, 22749, Note_on_c, 0, 65, 0
1, 22751, Note_on_c, 1, 55, 0
1, 22752, Note_on_c, 0, 65, 75
1, 22752, Note_on_c, 1, 48, 75
1, 22764, Note_on_c, 0, 65, 0
1, 22764, Note_on_c, 0, 67, 75
1, 22775, Note_on_c, 1, 48, 0
1, 22776, Note_on_c, 0, 67, 0
1, 22776, Note_on_c, 0, 65, 75
1, 22776, Note_on_c, 1, 55, 75
1, 22797, Note_on_c, 0, 65, 0
1, 22799, Note_on_c, 1, 55, 0
1, 22800, Note_on_c, 0, 64, 75
1, 22800, Note_on_c, 1, 52, 75
1, 22823, Note_on_c, 1, 52, 0
1, 22824, Note_on_c, 1, 55, 75
1, 22845, Note_on_c, 0, 64, 0
1, 22847, Note_on_c, 1, 55, 0
1, 22848, Note_on_c, 0, 76, 75
1, 22848, Note_on_c, 1, 48, 75
1, 22871, Note_on_c, 1, 48, 0
1, 22872, Note_on_c, 1, 55, 75
1, 22893, Note_on_c, 0, 76, 0
1, 22895, Note_on_c, 1, 55, 0
1, 22896, Note_on_c, 0, 76, 75
1, 22896, Note_on_c, 1, 43, 75
1, 22919, Note_on_c, 1, 43, 0
1, 22920, Note_on_c, 1, 55, 75
1, 22943, Note_on_c, 1, 55, 0
1, 22944, Note_on_c, 1, 47, 75
1, 22967, Note_on_c, 0, 76, 0
1, 22967, Note_on_c, 1, 47, 0
1, 22968, Note_on_c, 0, 77, 75
1, 22968, Note_on_c, 1, 55, 75
1, 22991, Note_on_c, 0, 77, 0
1, 22991, Note_on_c, 1, 55, 0
1, 22992, Note_on_c, 0, 74, 75
1, 22992, Note_on_c, 1, 43, 75
1, 23015, Note_on_c, 0, 74, 0
1, 23015, Note_on_c, 1, 43, 0
1, 23016, Note_on_c, 0, 71, 75
1, 23016, Note_on_c, 1, 55, 75
1, 23039, Note_on_c, 0, 71, 0
1, 23039, Note_on_c, 1, 55, 0
1, 23040, Note_on_c, 0, 72, 75
1, 23040, Note_on_c, 1, 48, 75
1, 23063, Note_on_c, 1, 48, 0
1, 23064, Note_on_c, 1, 55, 73
1, 23085, Note_on_c, 0, 72, 0
1, 23087, Note_on_c, 1, 55, 0
1, 23088, Note_on_c, 1, 52, 72
1, 23111, Note_on_c, 1, 52, 0
1, 23112, Note_on_c, 1, 55, 71
1, 23135, Note_on_c, 1, 55, 0
1, 23136, Note_on_c, 0, 88, 70
1, 23136, Note_on_c, 1, 48, 70
1, 23159, Note_on_c, 0, 88, 0
1, 23159, Note_on_c, 1, 48, 0
1, 23160, Note_on_c, 0, 79, 70
1, 23160, Note_on_c, 1, 55, 70
1, 23183, Note_on_c, 0, 79, 0
1, 23183, Note_on_c, 1, 55, 0
1, 23184, Note_on_c, 0, 79, 70
1, 23184, Note_on_c, 1, 47, 70
1, 23196, Note_on_c, 0, 79, 0
1, 23196, Note_on_c, 0, 81, 70
1, 23207, Note_on_c, 1, 47, 0
1, 23208, Note_on_c, 0, 81, 0
1, 23208, Note_on_c, 0, 79, 70
1, 23208, Note_on_c, 1, 55, 70
1, 23229, Note_on_c, 0, 79, 0
1, 23231, Note_on_c, 1, 55, 0
1, 23232, Note_on_c, 0, 77, 70
1, 23232, Note_on_c, 1, 50, 70
1, 23255, Note_on_c, 1, 50, 0
1, 23256, Note_on_c, 1, 55, 70
1, 23277, Note_on_c, 0, 77, 0
1, 23279, Note_on_c, 1, 55, 0
1, 23280, Note_on_c, 0, 86, 70
1, 23280, Note_on_c, 1, 47, 70
1, 23303, Note_on_c, 0, 86, 0
1, 23303, Note_on_c, 1, 47, 0
1, 23304, Note_on_c, 0, 77, 70
1, 23304, Note_on_c, 1, 55, 70
1, 23327, Note_on_c, 0, 77, 0
1, 23327, Note_on_c, 1, 55, 0
1, 23328, Note_on_c, 0, 77, 70
1, 23328, Note_on_c, 1, 48, 70
1, 23340, Note_on_c, 0, 77, 0
1, 23340, Note_on_c, 0, 79, 70
1, 23351, Note_on_c, 1, 48, 0
1, 23352, Note_on_c, 0, 79, 0
1, 23352, Note_on_c, 0, 77, 70
1, 23352, Note_on_c, 1, 55, 70
1, 23373, Note_on_c, 0, 77, 0
1, 23375, Note_on_c, 1, 55, 0
1, 23376, Note_on_c, 0, 76, 70
1, 23376, Note_on_c, 1, 52, 70
1, 23399, Note_on_c, 1, 52, 0
1, 23400, Note_on_c, 1, 55, 70
1, 23421, Note_on_c, 0, 76, 0
1, 23423, Note_on_c, 1, 55, 0
1, 23424, Note_on_c, 0, 76, 70
1, 23424, Note_on_c, 1, 48, 70
1, 23447, Note_on_c, 1, 48, 0
1, 23448, Note_on_c, 1, 55, 70
1, 23469, Note_on_c, 0, 76, 0
1, 23471, Note_on_c, 1, 55, 0
1, 23472, Note_on_c, 0, 76, 70
1, 23472, Note_on_c, 1, 43, 70
1, 23495, Note_on_c, 1, 43, 0
1, 23496, Note_on_c, 1, 55, 70
1, 23519, Note_on_c, 1, 55, 0
1, 23520, Note_on_c, 1, 47, 70
1, 23543, Note_on_c, 0, 76, 0
1, 23543, Note_on_c, 1, 47, 0
1, 23544, Note_on_c, 0, 77, 70
1, 23544, Note_on_c, 1, 55, 70
1, 23567, Note_on_c, 0, 77, 0
1, 23567, Note_on_c, 1, 55, 0
1, 23568, Note_on_c, 0, 74, 70
1, 23568, Note_on_c, 1, 43, 70
1, 23591, Note_on_c, 0, 74, 0
1, 23591, Note_on_c, 1, 43, 0
1, 23592, Note_on_c, 0, 71, 70
1, 23592, Note_on_c, 1, 55, 70
1, 23615, Note_on_c, 0, 71, 0
1, 23615, Note_on_c, 1, 55, 0
1, 23616, Note_on_c, 0, 72, 70
1, 23616, Note_on_c, 1, 52, 70
1, 23616, Note_on_c, 1, 48, 70
1, 23661, Note_on_c, 0, 72, 0
1, 23661, Note_on_c, 1, 52, 0
1, 23661, Note_on_c, 1, 48, 0
1, 23760, Note_on_c, 0, 55, 80
1, 23760, Note_on_c, 1, 47, 80
1, 23783, Note_on_c, 0, 55, 0
1, 23784, Note_on_c, 0, 67, 80
1, 23805, Note_on_c, 1, 47, 0
1, 23807, Note_on_c, 0, 67, 0
1, 23808, Note_on_c, 0, 56, 80
1, 23808, Note_on_c, 1, 48, 80
1, 23831, Note_on_c, 0, 56, 0
1, 23832, Note_on_c, 0, 67, 80
1, 23853, Note_on_c, 1, 48, 0
1, 23855, Note_on_c, 0, 67, 0
1, 23856, Note_on_c, 0, 59, 80
1, 23856, Note_on_c, 1, 50, 80
1, 23879, Note_on_c, 0, 59, 0
1, 23880, Note_on_c, 0, 67, 80
1, 23901, Note_on_c, 1, 50, 0
1, 23903, Note_on_c, 0, 67, 0
1, 23904, Note_on_c, 0, 60, 80
1, 23904, Note_on_c, 1, 51, 80
1, 23927, Note_on_c, 0, 60, 0
1, 23928, Note_on_c, 0, 67, 80
1, 23949, Note_on_c, 1, 51, 0
1, 23951, Note_on_c, 0, 67, 0
1, 23952, Note_on_c, 0, 62, 80
1, 23952, Note_on_c, 1, 59, 80
1, 23975, Note_on_c, 0, 62, 0
1, 23976, Note_on_c, 0, 67, 80
1, 23997, Note_on_c, 1, 59, 0
1, 23999, Note_on_c, 0, 67, 0
1, 24000, Note_on_c, 0, 63, 80
1, 24000, Note_on_c, 1, 60, 80
1, 24023, Note_on_c, 0, 63, 0
1, 24024, Note_on_c, 0, 67, 80
1, 24045, Note_on_c, 1, 60, 0
1, 24047, Note_on_c, 0, 67, 0
1, 24048, Note_on_c, 0, 62, 80
1, 24048, Note_on_c, 1, 59, 80
1, 24071, Note_on_c, 0, 62, 0
1, 24072, Note_on_c, 0, 67, 80
1, 24093, Note_on_c, 1, 59, 0
1, 24095, Note_on_c, 0, 67, 0
1, 24096, Note_on_c, 0, 63, 80
1, 24096, Note_on_c, 1, 60, 80
1, 24119, Note_on_c, 0, 63, 0
1, 24120, Note_on_c, 0, 67, 80
1, 24141, Note_on_c, 1, 60, 0
1, 24143, Note_on_c, 0, 67, 0
1, 24144, Note_on_c, 0, 60, 80
1, 24144, Note_on_c, 1, 57, 80
1, 24167, Note_on_c, 0, 60, 0
1, 24168, Note_on_c, 0, 67, 80
1, 24189, Note_on_c, 1, 57, 0
1, 24191, Note_on_c, 0, 67, 0
1, 24192, Note_on_c, 1, 55, 80
1, 24212, Note_on_c, 1, 55, 0
1, 24216, Note_on_c, 0, 67, 80
1, 24239, Note_on_c, 0, 67, 0
1, 24240, Note_on_c, 1, 59, 80
1, 24260, Note_on_c, 1, 59, 0
1, 24264, Note_on_c, 0, 67, 80
1, 24287, Note_on_c, 0, 67, 0
1, 24288, Note_on_c, 1, 62, 80
1, 24308, Note_on_c, 1, 62, 0
1, 24312, Note_on_c, 0, 67, 80
1, 24335, Note_on_c, 0, 67, 0
1, 24336, Note_on_c, 1, 65, 80
1, 24356, Note_on_c, 1, 65, 0
1, 24360, Note_on_c, 0, 67, 80
1, 24383, Note_on_c, 0, 67, 0
1, 24384, Note_on_c, 1, 62, 80
1, 24404, Note_on_c, 1, 62, 0
1, 24408, Note_on_c, 0, 67, 80
1, 24431, Note_on_c, 0, 67, 0
1, 24432, Note_on_c, 1, 63, 80
1, 24452, Note_on_c, 1, 63, 0
1, 24456, Note_on_c, 0, 67, 80
1, 24479, Note_on_c, 0, 67, 0
1, 24480, Note_on_c, 1, 55, 80
1, 24500, Note_on_c, 1, 55, 0
1, 24504, Note_on_c, 0, 67, 80
1, 24527, Note_on_c, 0, 67, 0
1, 24528, Note_on_c, 1, 59, 80
1, 24548, Note_on_c, 1, 59, 0
1, 24552, Note_on_c, 0, 67, 80
1, 24575, Note_on_c, 0, 67, 0
1, 24576, Note_on_c, 1, 62, 80
1, 24596, Note_on_c, 1, 62, 0
1, 24600, Note_on_c, 0, 67, 80
1, 24623, Note_on_c, 0, 67, 0
1, 24624, Note_on_c, 1, 65, 80
1, 24644, Note_on_c, 1, 65, 0
1, 24648, Note_on_c, 0, 67, 80
1, 24671, Note_on_c, 0, 67, 0
1, 24672, Note_on_c, 1, 62, 80
1, 24692, Note_on_c, 1, 62, 0
1, 24696, Note_on_c, 0, 67, 80
1, 24719, Note_on_c, 0, 67, 0
1, 24720, Note_on_c, 1, 63, 80
1, 24740, Note_on_c, 1, 63, 0
1, 24744, Note_on_c, 0, 67, 80
1, 24767, Note_on_c, 0, 67, 0
1, 24768, Note_on_c, 1, 53, 80
1, 24792, Note_on_c, 0, 68, 80
1, 24815, Note_on_c, 0, 68, 0
1, 24816, Note_on_c, 0, 65, 80
1, 24839, Note_on_c, 0, 65, 0
1, 24840, Note_on_c, 0, 68, 80
1, 24863, Note_on_c, 0, 68, 0
1, 24864, Note_on_c, 0, 63, 80
1, 24887, Note_on_c, 0, 63, 0
1, 24888, Note_on_c, 0, 68, 80
1, 24901, Note_on_c, 1, 53, 0
1, 24911, Note_on_c, 0, 68, 0
1, 24912, Note_on_c, 0, 62, 80
1, 24912, Note_on_c, 1, 58, 80
1, 24935, Note_on_c, 0, 62, 0
1, 24936, Note_on_c, 0, 65, 80
1, 24959, Note_on_c, 0, 65, 0
1, 24960, Note_on_c, 0, 68, 80
1, 24983, Note_on_c, 0, 68, 0
1, 24984, Note_on_c, 0, 72, 80
1, 25007, Note_on_c, 0, 72, 0
1, 25008, Note_on_c, 0, 70, 80
1, 25031, Note_on_c, 0, 70, 0
1, 25032, Note_on_c, 0, 68, 80
1, 25045, Note_on_c, 1, 58, 0
1, 25055, Note_on_c, 0, 68, 0
1, 25056, Note_on_c, 1, 51, 80
1, 25080, Note_on_c, 0, 67, 80
1, 25103, Note_on_c, 0, 67, 0
1, 25104, Note_on_c, 0, 63, 80
1, 25127, Note_on_c, 0, 63, 0
1, 25128, Note_on_c, 0, 67, 80
1, 25151, Note_on_c, 0, 67, 0
1, 25152, Note_on_c, 0, 62, 80
1, 25175, Note_on_c, 0, 62, 0
1, 25176, Note_on_c, 0, 67, 80
1, 25189, Note_on_c, 1, 51, 0
1, 25199, Note_on_c, 0, 67, 0
1, 25200, Note_on_c, 0, 60, 80
1, 25200, Note_on_c, 1, 56, 80
1, 25223, Note_on_c, 0, 60, 0
1, 25224, Note_on_c, 0, 63, 80
1, 25247, Note_on_c, 0, 63, 0
1, 25248, Note_on_c, 0, 67, 80
1, 25271, Note_on_c, 0, 67, 0
1, 25272, Note_on_c, 0, 70, 80
1, 25295, Note_on_c, 0, 70, 0
1, 25296, Note_on_c, 0, 68, 80
1, 25319, Note_on_c, 0, 68, 0
1, 25320, Note_on_c, 0, 67, 80
1, 25333, Note_on_c, 1, 56, 0
1, 25343, Note_on_c, 0, 67, 0
1, 25344, Note_on_c, 1, 50, 80
1, 25368, Note_on_c, 0, 65, 80
1, 25391, Note_on_c, 0, 65, 0
1, 25392, Note_on_c, 0, 62, 80
1, 25415, Note_on_c, 0, 62, 0
1, 25416, Note_on_c, 0, 65, 80
1, 25439, Note_on_c, 0, 65, 0
1, 25440, Note_on_c, 0, 60, 80
1, 25463, Note_on_c, 0, 60, 0
1, 25464, Note_on_c, 0, 65, 80
1, 25477, Note_on_c, 1, 50, 0
1, 25487, Note_on_c, 0, 65, 0
1, 25488, Note_on_c, 0, 59, 80
1, 25488, Note_on_c, 1, 55, 80
1, 25511, Note_on_c, 0, 59, 0
1, 25512, Note_on_c, 0, 62, 80
1, 25535, Note_on_c, 0, 62, 0
1, 25536, Note_on_c, 0, 65, 80
1, 25559, Note_on_c, 0, 65, 0
1, 25560, Note_on_c, 0, 68, 80
1, 25583, Note_on_c, 0, 68, 0
1, 25584, Note_on_c, 0, 67, 80
1, 25607, Note_on_c, 0, 67, 0
1, 25608, Note_on_c, 0, 65, 80
1, 25621, Note_on_c, 1, 55, 0
1, 25631, Note_on_c, 0, 65, 0
1, 25632, Note_on_c, 0, 63, 80
1, 25632, Note_on_c, 1, 48, 80
1, 25655, Note_on_c, 0, 63, 0
1, 25656, Note_on_c, 0, 60, 80
1, 25679, Note_on_c, 0, 60, 0
1, 25680, Note_on_c, 0, 63, 80
1, 25703, Note_on_c, 0, 63, 0
1, 25704, Note_on_c, 0, 60, 80
1, 25721, Note_on_c, 1, 48, 0
1, 25727, Note_on_c, 0, 60, 0
1, 25728, Note_on_c, 0, 64, 80
1, 25728, Note_on_c, 1, 58, 80
1, 25751, Note_on_c, 0, 64, 0
1, 25752, Note_on_c, 0, 60, 80
1, 25773, Note_on_c, 1, 58, 0
1, 25775, Note_on_c, 0, 60, 0
1, 25776, Note_on_c, 0, 65, 80
1, 25776, Note_on_c, 1, 57, 80
1, 25799, Note_on_c, 0, 65, 0
1, 25800, Note_on_c, 0, 60, 80
1, 25823, Note_on_c, 0, 60, 0
1, 25824, Note_on_c, 0, 65, 80
1, 25847, Note_on_c, 0, 65, 0
1, 25848, Note_on_c, 0, 60, 80
1, 25865, Note_on_c, 1, 57, 0
1, 25871, Note_on_c, 0, 60, 0
1, 25872, Note_on_c, 0, 66, 80
1, 25872, Note_on_c, 1, 56, 80
1, 25895, Note_on_c, 0, 66, 0
1, 25896, Note_on_c, 0, 60, 80
1, 25917, Note_on_c, 1, 56, 0
1, 25919, Note_on_c, 0, 60, 0
1, 25920, Note_on_c, 1, 55, 80
1, 25944, Note_on_c, 0, 59, 80
1, 25967, Note_on_c, 0, 59, 0
1, 25968, Note_on_c, 0, 62, 80
1, 25991, Note_on_c, 0, 62, 0
1, 25992, Note_on_c, 0, 59, 80
1, 26015, Note_on_c, 0, 59, 0
1, 26016, Note_on_c, 0, 67, 80
1, 26039, Note_on_c, 0, 67, 0
1, 26040, Note_on_c, 0, 59, 80
1, 26053, Note_on_c, 1, 55, 0
1, 26063, Note_on_c, 0, 59, 0
1, 26064, Note_on_c, 1, 53, 80
1, 26064, Note_on_c, 1, 41, 80
1, 26088, Note_on_c, 0, 59, 80
1, 26111, Note_on_c, 0, 59, 0
1, 26112, Note_on_c, 0, 62, 80
1, 26135, Note_on_c, 0, 62, 0
1, 26136, Note_on_c, 0, 59, 80
1, 26159, Note_on_c, 0, 59, 0
1, 26160, Note_on_c, 0, 68, 80
1, 26183, Note_on_c, 0, 68, 0
1, 26184, Note_on_c, 0, 59, 80
1, 26197, Note_on_c, 1, 53, 0
1, 26197, Note_on_c, 1, 41, 0
1, 26207, Note_on_c, 0, 59, 0
1, 26208, Note_on_c, 1, 52, 80
1, 26208, Note_on_c, 1, 40, 80
1, 26232, Note_on_c, 0, 59, 80
1, 26255, Note_on_c, 0, 59, 0
1, 26256, Note_on_c, 0, 62, 80
1, 26279, Note_on_c, 0, 62, 0
1, 26280, Note_on_c, 0, 59, 80
1, 26303, Note_on_c, 0, 59, 0
1, 26304, Note_on_c, 0, 68, 80
1, 26327, Note_on_c, 0, 68, 0
1, 26328, Note_on_c, 0, 59, 80
1, 26352, Note_on_c, 0, 68, 64
1, 26629, Note_on_c, 0, 59, 0
1, 26629, Note_on_c, 0, 68, 0
1, 26629, Note_on_c, 1, 52, 0
1, 26629, Note_on_c, 1, 40, 0
1, 26736, Note_on_c, 0, 76, 75
1, 26784, Note_on_c, 0, 76, 0
1, 26784, Note_on_c, 0, 72, 75
1, 26804, Note_on_c, 0, 72, 0
1, 26832, Note_on_c, 1, 60, 75
1, 26832, Note_on_c, 1, 57, 75
1, 26877, Note_on_c, 1, 60, 0
1, 26877, Note_on_c, 1, 57, 0
1, 26880, Note_on_c, 0, 69, 75
1, 26928, Note_on_c, 0, 69, 0
1, 26928, Note_on_c, 0, 68, 75
1, 26948, Note_on_c, 0, 68, 0
1, 26976, Note_on_c, 1, 62, 75
1, 26976, Note_on_c, 1, 59, 75
1, 27021, Note_on_c, 1, 62, 0
1, 27021, Note_on_c, 1, 59, 0
1, 27024, Note_on_c, 0, 64, 75
1, 27069, Note_on_c, 0, 64, 0
1, 27072, Note_on_c, 0, 69, 75
1, 27095, Note_on_c, 0, 69, 0
1, 27096, Note_on_c, 0, 72, 75
1, 27119, Note_on_c, 0, 72, 0
1, 27120, Note_on_c, 0, 76, 75
1, 27120, Note_on_c, 1, 60, 75
1, 27143, Note_on_c, 0, 76, 0
1, 27144, Note_on_c, 0, 81, 75
1, 27165, Note_on_c, 1, 60, 0
1, 27167, Note_on_c, 0, 81, 0
1, 27168, Note_on_c, 0, 76, 75
1, 27168, Note_on_c, 1, 57, 75
1, 27191, Note_on_c, 0, 76, 0
1, 27192, Note_on_c, 0, 72, 75
1, 27213, Note_on_c, 1, 57, 0
1, 27215, Note_on_c, 0, 72, 0
1, 27216, Note_on_c, 0, 74, 75
1, 27216, Note_on_c, 1, 59, 75
1, 27216, Note_on_c, 1, 52, 75
1, 27228, Note_on_c, 0, 74, 0
1, 27228, Note_on_c, 0, 76, 75
1, 27240, Note_on_c, 0, 76, 0
1, 27240, Note_on_c, 0, 74, 75
1, 27261, Note_on_c, 0, 74, 0
1, 27261, Note_on_c, 1, 59, 0
1, 27261, Note_on_c, 1, 52, 0
1, 27264, Note_on_c, 0, 72, 75
1, 27264, Note_on_c, 1, 57, 75
1, 27309, Note_on_c, 0, 72, 0
1, 27309, Note_on_c, 1, 57, 0
1, 27456, Note_on_c, 0, 84, 70
1, 27471, Note_on_c, 0, 84, 0
1, 27472, Note_on_c, 0, 86, 70
1, 27487, Note_on_c, 0, 86, 0
1, 27488, Note_on_c, 0, 84, 70
1, 27504, Note_on_c, 0, 84, 0
1, 27504, Note_on_c, 0, 81, 70
1, 27524, Note_on_c, 0, 81, 0
1, 27552, Note_on_c, 1, 69, 70
1, 27552, Note_on_c, 1, 65, 70
1, 27597, Note_on_c, 1, 69, 0
1, 27597, Note_on_c, 1, 65, 0
1, 27600, Note_on_c, 0, 77, 70
1, 27615, Note_on_c, 0, 77, 0
1, 27616, Note_on_c, 0, 79, 70
1, 27631, Note_on_c, 0, 79, 0
1, 27632, Note_on_c, 0, 77, 70
1, 27648, Note_on_c, 0, 77, 0
1, 27648, Note_on_c, 0, 76, 70
1, 27668, Note_on_c, 0, 76, 0
1, 27696, Note_on_c, 1, 70, 70
1, 27696, Note_on_c, 1, 67, 70
1, 27741, Note_on_c, 1, 70, 0
1, 27741, Note_on_c, 1, 67, 0
1, 27744, Note_on_c, 0, 72, 70
1, 27789, Note_on_c, 0, 72, 0
1, 27792, Note_on_c, 0, 77, 70
1, 27815, Note_on_c, 0, 77, 0
1, 27816, Note_on_c, 0, 81, 70
1, 27839, Note_on_c, 0, 81, 0
1, 27840, Note_on_c, 0, 84, 70
1, 27840, Note_on_c, 1, 69, 70
1, 27863, Note_on_c, 0, 84, 0
1, 27864, Note_on_c, 0, 89, 70
1, 27885, Note_on_c, 1, 69, 0
1, 27887, Note_on_c, 0, 89, 0
1, 27888, Note_on_c, 0, 84, 70
1, 27888, Note_on_c, 1, 65, 70
1, 27911, Note_on_c, 0, 84, 0
1, 27912, Note_on_c, 0, 81, 70
1, 27933, Note_on_c, 1, 65, 0
1, 27935, Note_on_c, 0, 81, 0
1, 27936, Note_on_c, 0, 82, 70
1, 27936, Note_on_c, 1, 67, 70
1, 27936, Note_on_c, 1, 60, 70
1, 27948, Note_on_c, 0, 82, 0
1, 27948, Note_on_c, 0, 84, 70
1, 27960, Note_on_c, 0, 84, 0
1, 27960, Note_on_c, 0, 82, 70
1, 27981, Note_on_c, 0, 82, 0
1, 27981, Note_on_c, 1, 67, 0
1, 27981, Note_on_c, 1, 60, 0
1, 27984, Note_on_c, 0, 81, 70
1, 27984, Note_on_c, 1, 65, 70
1, 28029, Note_on_c, 0, 81, 0
1, 28029, Note_on_c, 1, 65, 0
1, 28032, Note_on_c, 0, 81, 75
1, 28077, Note_on_c, 0, 81, 0
1, 28080, Note_on_c, 0, 81, 75
1, 28080, Note_on_c, 1, 61, 75
1, 28092, Note_on_c, 0, 81, 0
1, 28092, Note_on_c, 0, 82, 75
1, 28103, Note_on_c, 1, 61, 0
1, 28104, Note_on_c, 0, 82, 0
1, 28104, Note_on_c, 0, 81, 75
1, 28104, Note_on_c, 1, 69, 75
1, 28125, Note_on_c, 0, 81, 0
1, 28127, Note_on_c, 1, 69, 0
1, 28128, Note_on_c, 0, 79, 75
1, 28128, Note_on_c, 1, 64, 75
1, 28151, Note_on_c, 1, 64, 0
1, 28152, Note_on_c, 1, 69, 75
1, 28173, Note_on_c, 0, 79, 0
1, 28175, Note_on_c, 1, 69, 0
1, 28176, Note_on_c, 0, 79, 75
1, 28176, Note_on_c, 1, 61, 75
1, 28199, Note_on_c, 1, 61, 0
1, 28200, Note_on_c, 1, 69, 75
1, 28221, Note_on_c, 0, 79, 0
1, 28223, Note_on_c, 1, 69, 0
1, 28224, Note_on_c, 0, 79, 75
1, 28224, Note_on_c, 1, 62, 75
1, 28236, Note_on_c, 0, 79, 0
1, 28236, Note_on_c, 0, 81, 75
1, 28247, Note_on_c, 1, 62, 0
1, 28248, Note_on_c, 0, 81, 0
1, 28248, Note_on_c, 0, 79, 75
1, 28248, Note_on_c, 1, 69, 75
1, 28269, Note_on_c, 0, 79, 0
1, 28271, Note_on_c, 1, 69, 0
1, 28272, Note_on_c, 0, 77, 75
1, 28272, Note_on_c, 1, 65, 75
1, 28295, Note_on_c, 1, 65, 0
1, 28296, Note_on_c, 1, 69, 75
1, 28317, Note_on_c, 0, 77, 0
1, 28319, Note_on_c, 1, 69, 0
1, 28320, Note_on_c, 0, 81, 75
1, 28320, Note_on_c, 1, 62, 75
1, 28343, Note_on_c, 1, 62, 0
1, 28344, Note_on_c, 1, 69, 75
1, 28365, Note_on_c, 0, 81, 0
1, 28367, Note_on_c, 1, 69, 0
1, 28368, Note_on_c, 0, 81, 75
1, 28368, Note_on_c, 1, 59, 75
1, 28380, Note_on_c, 0, 81, 0
1, 28380, Note_on_c, 0, 83, 75
1, 28391, Note_on_c, 1, 59, 0
1, 28392, Note_on_c, 0, 83, 0
1, 28392, Note_on_c, 0, 81, 75
1, 28392, Note_on_c, 1, 67, 75
1, 28413, Note_on_c, 0, 81, 0
1, 28415, Note_on_c, 1, 67, 0
1, 28416, Note_on_c, 0, 79, 75
1, 28416, Note_on_c, 1, 62, 75
1, 28439, Note_on_c, 1, 62, 0
1, 28440, Note_on_c, 1, 67, 75
1, 28461, Note_on_c, 0, 79, 0
1, 28463, Note_on_c, 1, 67, 0
1, 28464, Note_on_c, 0, 77, 75
1, 28464, Note_on_c, 1, 59, 75
1, 28487, Note_on_c, 1, 59, 0
1, 28488, Note_on_c, 1, 67, 75
1, 28509, Note_on_c, 0, 77, 0
1, 28511, Note_on_c, 1, 67, 0
1, 28512, Note_on_c, 0, 77, 75
1, 28512, Note_on_c, 1, 60, 75
1, 28524, Note_on_c, 0, 77, 0
1, 28524, Note_on_c, 0, 79, 75
1, 28536, Note_on_c, 0, 79, 0
1, 28536, Note_on_c, 0, 77, 75
1, 28557, Note_on_c, 0, 77, 0
1, 28560, Note_on_c, 0, 76, 75
1, 28601, Note_on_c, 1, 60, 0
1, 28605, Note_on_c, 0, 76, 0
1, 28608, Note_on_c, 0, 79, 75
1, 28656, Note_on_c, 0, 79, 0
1, 28656, Note_on_c, 0, 76, 75
1, 28676, Note_on_c, 0, 76, 0
1, 28704, Note_on_c, 1, 64, 75
1, 28704, Note_on_c, 1, 60, 75
1, 28749, Note_on_c, 1, 64, 0
1, 28749, Note_on_c, 1, 60, 0
1, 28752, Note_on_c, 0, 72, 75
1, 28800, Note_on_c, 0, 72, 0
1, 28800, Note_on_c, 0, 71, 75
1, 28820, Note_on_c, 0, 71, 0
1, 28848, Note_on_c, 1, 65, 75
1, 28848, Note_on_c, 1, 62, 75
1, 28893, Note_on_c, 1, 65, 0
1, 28893, Note_on_c, 1, 62, 0
1, 28896, Note_on_c, 0, 67, 75
1, 28941, Note_on_c, 0, 67, 0
1, 28944, Note_on_c, 0, 72, 75
1, 28967, Note_on_c, 0, 72, 0
1, 28968, Note_on_c, 0, 76, 75
1, 28991, Note_on_c, 0, 76, 0
1, 28992, Note_on_c, 0, 79, 75
1, 28992, Note_on_c, 1, 64, 75
1, 29015, Note_on_c, 0, 79, 0
1, 29016, Note_on_c, 0, 84, 75
1, 29037, Note_on_c, 1, 64, 0
1, 29039, Note_on_c, 0, 84, 0
1, 29040, Note_on_c, 0, 79, 75
1, 29040, Note_on_c, 1, 60, 75
1, 29063, Note_on_c, 0, 79, 0
1, 29064, Note_on_c, 0, 76, 75
1, 29085, Note_on_c, 1, 60, 0
1, 29087, Note_on_c, 0, 76, 0
1, 29088, Note_on_c, 0, 77, 75
1, 29088, Note_on_c, 1, 62, 75
1, 29088, Note_on_c, 1, 55, 75
1, 29100, Note_on_c, 0, 77, 0
1, 29100, Note_on_c, 0, 79, 75
1, 29112, Note_on_c, 0, 79, 0
1, 29112, Note_on_c, 0, 77, 75
1, 29133, Note_on_c, 0, 77, 0
1, 29133, Note_on_c, 1, 62, 0
1, 29133, Note_on_c, 1, 55, 0
1, 29136, Note_on_c, 0, 76, 75
1, 29136, Note_on_c, 1, 60, 75
1, 29181, Note_on_c, 0, 76, 0
1, 29181, Note_on_c, 1, 60, 0
1, 29184, Note_on_c, 0, 79, 75
1, 29199, Note_on_c, 0, 79, 0
1, 29200, Note_on_c, 0, 81, 75
1, 29215, Note_on_c, 0, 81, 0
1, 29216, Note_on_c, 0, 79, 75
1, 29232, Note_on_c, 0, 79, 0
1, 29232, Note_on_c, 0, 76, 75
1, 29252, Note_on_c, 0, 76, 0
1, 29280, Note_on_c, 1, 64, 75
1, 29280, Note_on_c, 1, 60, 75
1, 29325, Note_on_c, 1, 64, 0
1, 29325, Note_on_c, 1, 60, 0
1, 29328, Note_on_c, 0, 72, 75
1, 29343, Note_on_c, 0, 72, 0
1, 29344, Note_on_c, 0, 74, 75
1, 29359, Note_on_c, 0, 74, 0
1, 29360, Note_on_c, 0, 72, 75
1, 29376, Note_on_c, 0, 72, 0
1, 29376, Note_on_c, 0, 71, 75
1, 29396, Note_on_c, 0, 71, 0
1, 29424, Note_on_c, 1, 65, 75
1, 29424, Note_on_c, 1, 62, 75
1, 29469, Note_on_c, 1, 65, 0
1, 29469, Note_on_c, 1, 62, 0
1, 29472, Note_on_c, 0, 67, 75
1, 29517, Note_on_c, 0, 67, 0
1, 29520, Note_on_c, 0, 71, 75
1, 29543, Note_on_c, 0, 71, 0
1, 29544, Note_on_c, 0, 72, 75
1, 29567, Note_on_c, 0, 72, 0
1, 29568, Note_on_c, 0, 76, 75
1, 29568, Note_on_c, 1, 64, 75
1, 29591, Note_on_c, 0, 76, 0
1, 29592, Note_on_c, 0, 72, 75
1, 29613, Note_on_c, 1, 64, 0
1, 29615, Note_on_c, 0, 72, 0
1, 29616, Note_on_c, 0, 67, 75
1, 29616, Note_on_c, 1, 60, 75
1, 29639, Note_on_c, 0, 67, 0
1, 29640, Note_on_c, 0, 64, 75
1, 29661, Note_on_c, 1, 60, 0
1, 29663, Note_on_c, 0, 64, 0
1, 29664, Note_on_c, 0, 65, 75
1, 29664, Note_on_c, 1, 62, 75
1, 29664, Note_on_c, 1, 55, 75
1, 29676, Note_on_c, 0, 65, 0
1, 29676, Note_on_c, 0, 67, 75
1, 29688, Note_on_c, 0, 67, 0
1, 29688, Note_on_c, 0, 65, 75
1, 29709, Note_on_c, 0, 65, 0
1, 29709, Note_on_c, 1, 62, 0
1, 29709, Note_on_c, 1, 55, 0
1, 29712, Note_on_c, 0, 64, 75
1, 29712, Note_on_c, 1, 60, 75
1, 29757, Note_on_c, 0, 64, 0
1, 29757, Note_on_c, 1, 60, 0
1, 29760, Note_on_c, 0, 60, 75
1, 29805, Note_on_c, 0, 60, 0
1, 29808, Note_on_c, 0, 65, 75
1, 29808, Note_on_c, 1, 57, 75
1, 29831, Note_on_c, 0, 65, 0
1, 29832, Note_on_c, 0, 60, 75
1, 29853, Note_on_c, 1, 57, 0
1, 29855, Note_on_c, 0, 60, 0
1, 29856, Note_on_c, 0, 64, 75
1, 29856, Note_on_c, 1, 55, 75
1, 29879, Note_on_c, 0, 64, 0
1, 29880, Note_on_c, 0, 60, 75
1, 29901, Note_on_c, 1, 55, 0
1, 29903, Note_on_c, 0, 60, 0
1, 29904, Note_on_c, 0, 69, 75
1, 29904, Note_on_c, 1, 53, 75
1, 29927, Note_on_c, 0, 69, 0
1, 29928, Note_on_c, 0, 60, 75
1, 29949, Note_on_c, 1, 53, 0
1, 29951, Note_on_c, 0, 60, 0
1, 29952, Note_on_c, 0, 67, 76
1, 29952, Note_on_c, 1, 52, 75
1, 29975, Note_on_c, 0, 67, 0
1, 29976, Note_on_c, 0, 60, 76
1, 29997, Note_on_c, 1, 52, 0
1, 29999, Note_on_c, 0, 60, 0
1, 30000, Note_on_c, 0, 65, 76
1, 30000, Note_on_c, 1, 50, 76
1, 30023, Note_on_c, 0, 65, 0
1, 30024, Note_on_c, 0, 60, 76
1, 30045, Note_on_c, 1, 50, 0
1, 30047, Note_on_c, 0, 60, 0
1, 30048, Note_on_c, 0, 64, 76
1, 30048, Note_on_c, 1, 48, 76
1, 30071, Note_on_c, 0, 64, 0
1, 30072, Note_on_c, 0, 60, 77
1, 30093, Note_on_c, 1, 48, 0
1, 30095, Note_on_c, 0, 60, 0
1, 30096, Note_on_c, 0, 65, 77
1, 30096, Note_on_c, 1, 57, 76
1, 30119, Note_on_c, 0, 65, 0
1, 30120, Note_on_c, 0, 60, 77
1, 30141, Note_on_c, 1, 57, 0
1, 30143, Note_on_c, 0, 60, 0
1, 30144, Note_on_c, 0, 64, 77
1, 30144, Note_on_c, 1, 55, 77
1, 30167, Note_on_c, 0, 64, 0
1, 30168, Note_on_c, 0, 60, 77
1, 30189, Note_on_c, 1, 55, 0
1, 30191, Note_on_c, 0, 60, 0
1, 30192, Note_on_c, 0, 69, 78
1, 30192, Note_on_c, 1, 53, 77
1, 30215, Note_on_c, 0, 69, 0
1, 30216, Note_on_c, 0, 60, 78
1, 30237, Note_on_c, 1, 53, 0
1, 30239, Note_on_c, 0, 60, 0
1, 30240, Note_on_c, 0, 67, 78
1, 30240, Note_on_c, 1, 52, 78
1, 30263, Note_on_c, 0, 67, 0
1, 30264, Note_on_c, 0, 60, 78
1, 30285, Note_on_c, 1, 52, 0
1, 30287, Note_on_c, 0, 60, 0
1, 30288, Note_on_c, 0, 71, 78
1, 30288, Note_on_c, 1, 50, 78
1, 30311, Note_on_c, 0, 71, 0
1, 30312, Note_on_c, 0, 60, 79
1, 30333, Note_on_c, 1, 50, 0
1, 30335, Note_on_c, 0, 60, 0
1, 30336, Note_on_c, 0, 72, 79
1, 30336, Note_on_c, 1, 48, 78
1, 30359, Note_on_c, 0, 72, 0
1, 30360, Note_on_c, 0, 60, 79
1, 30381, Note_on_c, 1, 48, 0
1, 30383, Note_on_c, 0, 60, 0
1, 30384, Note_on_c, 0, 74, 79
1, 30384, Note_on_c, 1, 47, 79
1, 30429, Note_on_c, 0, 74, 0
1, 30432, Note_on_c, 0, 65, 80
1, 30432, Note_on_c, 0, 62, 64
1, 30473, Note_on_c, 1, 47, 0
1, 30477, Note_on_c, 0, 65, 0
1, 30477, Note_on_c, 0, 62, 0
1, 30480, Note_on_c, 0, 65, 80
1, 30480, Note_on_c, 0, 60, 64
1, 30480, Note_on_c, 1, 48, 80
1, 30492, Note_on_c, 0, 65, 0
1, 30492, Note_on_c, 0, 64, 80
1, 30504, Note_on_c, 0, 64, 0
1, 30504, Note_on_c, 0, 62, 80
1, 30516, Note_on_c, 0, 62, 0
1, 30516, Note_on_c, 0, 64, 80
1, 30525, Note_on_c, 0, 60, 0
1, 30525, Note_on_c, 1, 48, 0
1, 30528, Note_on_c, 0, 64, 0
1, 30528, Note_on_c, 0, 62, 80
1, 30528, Note_on_c, 0, 59, 64
1, 30528, Note_on_c, 1, 43, 80
1, 30573, Note_on_c, 0, 62, 0
1, 30573, Note_on_c, 0, 59, 0
1, 30573, Note_on_c, 1, 43, 0
1, 30624, Note_on_c, 0, 69, 64
1, 30624, Note_on_c, 1, 65, 64
1, 30647, Note_on_c, 0, 69, 0
1, 30648, Note_on_c, 0, 71, 64
1, 30669, Note_on_c, 1, 65, 0
1, 30671, Note_on_c, 0, 71, 0
1, 30672, Note_on_c, 0, 72, 64
1, 30672, Note_on_c, 1, 64, 64
1, 30695, Note_on_c, 0, 72, 0
1, 30696, Note_on_c, 0, 71, 64
1, 30717, Note_on_c, 1, 64, 0
1, 30719, Note_on_c, 0, 71, 0
1, 30720, Note_on_c, 0, 74, 64
1, 30720, Note_on_c, 1, 62, 64
1, 30743, Note_on_c, 0, 74, 0
1, 30744, Note_on_c, 0, 72, 64
1, 30765, Note_on_c, 1, 62, 0
1, 30767, Note_on_c, 0, 72, 0
1, 30768, Note_on_c, 0, 76, 64
1, 30768, Note_on_c, 1, 60, 64
1, 30813, Note_on_c, 1, 60, 0
1, 30816, Note_on_c, 0, 76, 0
1, 30816, Note_on_c, 0, 65, 64
1, 30816, Note_on_c, 1, 62, 64
1, 30836, Note_on_c, 0, 65, 0
1, 30861, Note_on_c, 1, 62, 0
1, 30864, Note_on_c, 1, 59, 64
1, 30909, Note_on_c, 1, 59, 0
1, 30912, Note_on_c, 0, 74, 64
1, 30912, Note_on_c, 1, 55, 64
1, 30957, Note_on_c, 1, 55, 0
1, 30960, Note_on_c, 0, 74, 0
1, 30960, Note_on_c, 0, 64, 64
1, 30960, Note_on_c, 1, 60, 64
1, 30980, Note_on_c, 0, 64, 0
1, 31005, Note_on_c, 1, 60, 0
1, 31008, Note_on_c, 1, 48, 64
1, 31053, Note_on_c, 1, 48, 0
1, 31056, Note_on_c, 0, 72, 64
1, 31056, Note_on_c, 1, 52, 64
1, 31101, Note_on_c, 1, 52, 0
1, 31104, Note_on_c, 0, 72, 0
1, 31104, Note_on_c, 0, 62, 64
1, 31104, Note_on_c, 1, 53, 64
1, 31127, Note_on_c, 0, 62, 0
1, 31128, Note_on_c, 0, 72, 70
1, 31149, Note_on_c, 1, 53, 0
1, 31151, Note_on_c, 0, 72, 0
1, 31152, Note_on_c, 0, 60, 70
1, 31152, Note_on_c, 1, 52, 70
1, 31175, Note_on_c, 0, 60, 0
1, 31176, Note_on_c, 0, 72, 70
1, 31197, Note_on_c, 1, 52, 0
1, 31199, Note_on_c, 0, 72, 0
1, 31200, Note_on_c, 0, 62, 71
1, 31200, Note_on_c, 1, 53, 70
1, 31223, Note_on_c, 0, 62, 0
1, 31224, Note_on_c, 0, 72, 71
1, 31245, Note_on_c, 1, 53, 0
1, 31247, Note_on_c, 0, 72, 0
1, 31248, Note_on_c, 0, 63, 72
1, 31248, Note_on_c, 1, 55, 71
1, 31271, Note_on_c, 0, 63, 0
1, 31272, Note_on_c, 0, 72, 72
1, 31293, Note_on_c, 1, 55, 0
1, 31295, Note_on_c, 0, 72, 0
1, 31296, Note_on_c, 0, 62, 73
1, 31296, Note_on_c, 1, 53, 72
1, 31319, Note_on_c, 0, 62, 0
1, 31320, Note_on_c, 0, 72, 73
1, 31341, Note_on_c, 1, 53, 0
1, 31343, Note_on_c, 0, 72, 0
1, 31344, Note_on_c, 0, 64, 73
1, 31344, Note_on_c, 1, 55, 73
1, 31367, Note_on_c, 0, 64, 0
1, 31368, Note_on_c, 0, 72, 74
1, 31389, Note_on_c, 1, 55, 0
1, 31391, Note_on_c, 0, 72, 0
1, 31392, Note_on_c, 0, 65, 74
1, 31392, Note_on_c, 1, 57, 74
1, 31415, Note_on_c, 0, 65, 0
1, 31416, Note_on_c, 0, 72, 75
1, 31437, Note_on_c, 1, 57, 0
1, 31439, Note_on_c, 0, 72, 0
1, 31440, Note_on_c, 0, 64, 75
1, 31440, Note_on_c, 1, 55, 75
1, 31463, Note_on_c, 0, 64, 0
1, 31464, Note_on_c, 0, 72, 76
1, 31485, Note_on_c, 1, 55, 0
1, 31487, Note_on_c, 0, 72, 0
1, 31488, Note_on_c, 0, 66, 76
1, 31488, Note_on_c, 1, 57, 76
1, 31511, Note_on_c, 0, 66, 0
1, 31512, Note_on_c, 0, 72, 76
1, 31533, Note_on_c, 1, 57, 0
1, 31535, Note_on_c, 0, 72, 0
1, 31536, Note_on_c, 0, 71, 77
1, 31536, Note_on_c, 1, 55, 77
1, 31536, Note_on_c, 1, 55, 64
1, 31559, Note_on_c, 0, 71, 0
1, 31560, Note_on_c, 0, 67, 77
1, 31581, Note_on_c, 1, 55, 0
1, 31583, Note_on_c, 0, 67, 0
1, 31584, Note_on_c, 0, 72, 78
1, 31584, Note_on_c, 1, 57, 78
1, 31607, Note_on_c, 0, 72, 0
1, 31608, Note_on_c, 0, 67, 78
1, 31629, Note_on_c, 1, 57, 0
1, 31631, Note_on_c, 0, 67, 0
1, 31632, Note_on_c, 0, 74, 79
1, 31632, Note_on_c, 1, 59, 79
1, 31655, Note_on_c, 0, 74, 0
1, 31656, Note_on_c, 0, 67, 79
1, 31677, Note_on_c, 1, 59, 0
1, 31679, Note_on_c, 0, 67, 0
1, 31680, Note_on_c, 0, 75, 80
1, 31680, Note_on_c, 1, 60, 80
1, 31703, Note_on_c, 0, 75, 0
1, 31704, Note_on_c, 0, 67, 79
1, 31725, Note_on_c, 1, 60, 0
1, 31727, Note_on_c, 0, 67, 0
1, 31728, Note_on_c, 0, 74, 79
1, 31728, Note_on_c, 1, 59, 79
1, 31751, Note_on_c, 0, 74, 0
1, 31752, Note_on_c, 0, 67, 79
1, 31773, Note_on_c, 1, 59, 0
1, 31775, Note_on_c, 0, 67, 0
1, 31776, Note_on_c, 0, 76, 79
1, 31776, Note_on_c, 1, 61, 79
1, 31799, Note_on_c, 0, 76, 0
1, 31800, Note_on_c, 0, 67, 79
1, 31821, Note_on_c, 1, 61, 0
1, 31823, Note_on_c, 0, 67, 0
1, 31824, Note_on_c, 0, 77, 78
1, 31824, Note_on_c, 1, 62, 78
1, 31847, Note_on_c, 0, 77, 0
1, 31848, Note_on_c, 0, 67, 78
1, 31869, Note_on_c, 1, 62, 0
1, 31871, Note_on_c, 0, 67, 0
1, 31872, Note_on_c, 0, 76, 78
1, 31872, Note_on_c, 1, 61, 78
1, 31895, Note_on_c, 0, 76, 0
1, 31896, Note_on_c, 0, 67, 78
1, 31917, Note_on_c, 1, 61, 0
1, 31919, Note_on_c, 0, 67, 0
1, 31920, Note_on_c, 0, 78, 78
1, 31920, Note_on_c, 1, 63, 78
1, 31943, Note_on_c, 0, 78, 0
1, 31944, Note_on_c, 0, 67, 77
1, 31965, Note_on_c, 1, 63, 0
1, 31967, Note_on_c, 0, 67, 0
1, 31968, Note_on_c, 0, 79, 77
1, 31968, Note_on_c, 1, 64, 77
1, 31991, Note_on_c, 0, 79, 0
1, 31992, Note_on_c, 0, 67, 77
1, 32013, Note_on_c, 1, 64, 0
1, 32015, Note_on_c, 0, 67, 0
1, 32016, Note_on_c, 0, 76, 77
1, 32016, Note_on_c, 1, 61, 77
1, 32039, Note_on_c, 0, 76, 0
1, 32040, Note_on_c, 0, 67, 77
1, 32061, Note_on_c, 1, 61, 0
1, 32063, Note_on_c, 0, 67, 0
1, 32064, Note_on_c, 0, 77, 76
1, 32064, Note_on_c, 1, 62, 76
1, 32087, Note_on_c, 0, 77, 0
1, 32088, Note_on_c, 0, 67, 76
1, 32109, Note_on_c, 1, 62, 0
1, 32111, Note_on_c, 0, 67, 0
1, 32112, Note_on_c, 0, 74, 76
1, 32112, Note_on_c, 1, 59, 76
1, 32135, Note_on_c, 0, 74, 0
1, 32136, Note_on_c, 0, 67, 76
1, 32157, Note_on_c, 1, 59, 0
1, 32159, Note_on_c, 0, 67, 0
1, 32160, Note_on_c, 0, 76, 76
1, 32160, Note_on_c, 1, 60, 76
1, 32183, Note_on_c, 0, 76, 0
1, 32184, Note_on_c, 0, 67, 75
1, 32205, Note_on_c, 1, 60, 0
1, 32207, Note_on_c, 0, 67, 0
1, 32208, Note_on_c, 0, 72, 75
1, 32208, Note_on_c, 1, 57, 75
1, 32231, Note_on_c, 0, 72, 0
1, 32232, Note_on_c, 0, 67, 75
1, 32245, Note_on_c, 1, 55, 0
1, 32253, Note_on_c, 1, 57, 0
1, 32255, Note_on_c, 0, 67, 0
1, 32256, Note_on_c, 0, 71, 75
1, 32256, Note_on_c, 1, 55, 75
1, 32301, Note_on_c, 0, 71, 0
1, 32301, Note_on_c, 1, 55, 0
1, 32352, Note_on_c, 1, 55, 75
1, 32352, Note_on_c, 1, 52, 75
1, 32400, Note_on_c, 0, 79, 75
1, 32400, Note_on_c, 0, 76, 75
1, 32400, Note_on_c, 1, 55, 0
1, 32400, Note_on_c, 1, 48, 75
1, 32420, Note_on_c, 1, 52, 0
1, 32420, Note_on_c, 1, 48, 0
1, 32448, Note_on_c, 0, 79, 0
1, 32448, Note_on_c, 0, 72, 75
1, 32468, Note_on_c, 0, 76, 0
1, 32468, Note_on_c, 0, 72, 0
1, 32496, Note_on_c, 1, 55, 75
1, 32496, Note_on_c, 1, 52, 75
1, 32544, Note_on_c, 0, 79, 75
1, 32544, Note_on_c, 0, 76, 75
1, 32544, Note_on_c, 1, 55, 0
1, 32544, Note_on_c, 1, 48, 75
1, 32564, Note_on_c, 1, 52, 0
1, 32564, Note_on_c, 1, 48, 0
1, 32592, Note_on_c, 0, 79, 0
1, 32592, Note_on_c, 0, 72, 75
1, 32612, Note_on_c, 0, 76, 0
1, 32612, Note_on_c, 0, 72, 0
1, 32640, Note_on_c, 0, 72, 75
1, 32640, Note_on_c, 1, 69, 75
1, 32655, Note_on_c, 0, 72, 0
1, 32656, Note_on_c, 0, 74, 75
1, 32671, Note_on_c, 0, 74, 0
1, 32672, Note_on_c, 0, 72, 75
1, 32687, Note_on_c, 0, 72, 0
1, 32688, Note_on_c, 0, 71, 75
1, 32688, Note_on_c, 1, 69, 0
1, 32688, Note_on_c, 1, 67, 75
1, 32708, Note_on_c, 0, 71, 0
1, 32708, Note_on_c, 1, 67, 0
1, 32736, Note_on_c, 0, 69, 75
1, 32736, Note_on_c, 1, 65, 75
1, 32751, Note_on_c, 0, 69, 0
1, 32752, Note_on_c, 0, 71, 75
1, 32767, Note_on_c, 0, 71, 0
1, 32768, Note_on_c, 0, 69, 75
1, 32783, Note_on_c, 0, 69, 0
1, 32784, Note_on_c, 0, 67, 75
1, 32784, Note_on_c, 1, 65, 0
1, 32784, Note_on_c, 1, 64, 75
1, 32804, Note_on_c, 0, 67, 0
1, 32804, Note_on_c, 1, 64, 0
1, 32832, Note_on_c, 0, 65, 75
1, 32832, Note_on_c, 1, 53, 75
1, 32844, Note_on_c, 0, 65, 0
1, 32844, Note_on_c, 0, 67, 75
1, 32856, Note_on_c, 0, 67, 0
1, 32856, Note_on_c, 0, 65, 75
1, 32877, Note_on_c, 0, 65, 0
1, 32877, Note_on_c, 1, 53, 0
1, 32880, Note_on_c, 0, 64, 75
1, 32880, Note_on_c, 1, 55, 75
1, 32925, Note_on_c, 0, 64, 0
1, 32925, Note_on_c, 1, 55, 0
1, 32928, Note_on_c, 0, 62, 75
1, 32928, Note_on_c, 1, 43, 75
1, 32940, Note_on_c, 0, 62, 0
1, 32940, Note_on_c, 0, 64, 75
1, 32952, Note_on_c, 0, 64, 0
1, 32952, Note_on_c, 0, 62, 75
1, 32973, Note_on_c, 0, 62, 0
1, 32973, Note_on_c, 1, 43, 0
1, 32976, Note_on_c, 0, 60, 75
1, 32976, Note_on_c, 1, 48, 75
1, 33021, Note_on_c, 0, 60, 0
1, 33021, Note_on_c, 1, 48, 0
1, 33072, Note_on_c, 1, 55, 75
1, 33072, Note_on_c, 1, 52, 75
1, 33120, Note_on_c, 0, 79, 75
1, 33120, Note_on_c, 0, 76, 75
1, 33120, Note_on_c, 1, 55, 0
1, 33120, Note_on_c, 1, 48, 75
1, 33140, Note_on_c, 1, 52, 0
1, 33140, Note_on_c, 1, 48, 0
1, 33168, Note_on_c, 0, 79, 0
1, 33168, Note_on_c, 0, 72, 75
1, 33188, Note_on_c, 0, 76, 0
1, 33188, Note_on_c, 0, 72, 0
1, 33216, Note_on_c, 1, 67, 75
1, 33216, Note_on_c, 1, 64, 75
1, 33264, Note_on_c, 0, 88, 75
1, 33264, Note_on_c, 0, 84, 75
1, 33264, Note_on_c, 1, 67, 0
1, 33264, Note_on_c, 1, 60, 75
1, 33284, Note_on_c, 1, 64, 0
1, 33284, Note_on_c, 1, 60, 0
1, 33312, Note_on_c, 0, 88, 0
1, 33312, Note_on_c, 0, 84, 0
1, 33312, Note_on_c, 0, 76, 75
1, 33332, Note_on_c, 0, 76, 0
1, 33360, Note_on_c, 0, 72, 75
1, 33360, Note_on_c, 1, 69, 75
1, 33375, Note_on_c, 0, 72, 0
1, 33376, Note_on_c, 0, 74, 75
1, 33391, Note_on_c, 0, 74, 0
1, 33392, Note_on_c, 0, 72, 75
1, 33407, Note_on_c, 0, 72, 0
1, 33408, Note_on_c, 0, 71, 75
1, 33408, Note_on_c, 1, 69, 0
1, 33408, Note_on_c, 1, 67, 75
1, 33428, Note_on_c, 0, 71, 0
1, 33428, Note_on_c, 1, 67, 0
1, 33456, Note_on_c, 0, 69, 75
1, 33456, Note_on_c, 1, 65, 75
1, 33471, Note_on_c, 0, 69, 0
1, 33472, Note_on_c, 0, 71, 75
1, 33487, Note_on_c, 0, 71, 0
1, 33488, Note_on_c, 0, 69, 75
1, 33503, Note_on_c, 0, 69, 0
1, 33504, Note_on_c, 0, 67, 75
1, 33504, Note_on_c, 1, 65, 0
1, 33504, Note_on_c, 1, 64, 75
1, 33524, Note_on_c, 0, 67, 0
1, 33524, Note_on_c, 1, 64, 0
1, 33552, Note_on_c, 0, 65, 75
1, 33552, Note_on_c, 1, 53, 75
1, 33564, Note_on_c, 0, 65, 0
1, 33564, Note_on_c, 0, 67, 75
1, 33576, Note_on_c, 0, 67, 0
1, 33576, Note_on_c, 0, 65, 75
1, 33597, Note_on_c, 0, 65, 0
1, 33597, Note_on_c, 1, 53, 0
1, 33600, Note_on_c, 0, 64, 75
1, 33600, Note_on_c, 1, 55, 75
1, 33645, Note_on_c, 0, 64, 0
1, 33645, Note_on_c, 1, 55, 0
1, 33648, Note_on_c, 0, 62, 75
1, 33648, Note_on_c, 1, 43, 75
1, 33660, Note_on_c, 0, 62, 0
1, 33660, Note_on_c, 0, 64, 75
1, 33672, Note_on_c, 0, 64, 0
1, 33672, Note_on_c, 0, 62, 75
1, 33693, Note_on_c, 0, 62, 0
1, 33693, Note_on_c, 1, 43, 0
1, 33696, Note_on_c, 0, 60, 75
1, 33696, Note_on_c, 1, 48, 75
1, 33719, Note_on_c, 1, 48, 0
1, 33720, Note_on_c, 1, 55, 75
1, 33741, Note_on_c, 0, 60, 0
1, 33743, Note_on_c, 1, 55, 0
1, 33744, Note_on_c, 1, 52, 75
1, 33767, Note_on_c, 1, 52, 0
1, 33768, Note_on_c, 1, 55, 75
1, 33791, Note_on_c, 1, 55, 0
1, 33792, Note_on_c, 0, 67, 75
1, 33792, Note_on_c, 1, 48, 75
1, 33815, Note_on_c, 1, 48, 0
1, 33816, Note_on_c, 1, 55, 75
1, 33837, Note_on_c, 0, 67, 0
1, 33839, Note_on_c, 1, 55, 0
1, 33840, Note_on_c, 0, 67, 75
1, 33840, Note_on_c, 1, 47, 75
1, 33852, Note_on_c, 0, 67, 0
1, 33852, Note_on_c, 0, 69, 75
1, 33863, Note_on_c, 1, 47, 0
1, 33864, Note_on_c, 0, 69, 0
1, 33864, Note_on_c, 0, 67, 75
1, 33864, Note_on_c, 1, 55, 75
1, 33885, Note_on_c, 0, 67, 0
1, 33887, Note_on_c, 1, 55, 0
1, 33888, Note_on_c, 0, 65, 75
1, 33888, Note_on_c, 1, 50, 75
1, 33911, Note_on_c, 1, 50, 0
1, 33912, Note_on_c, 1, 55, 75
1, 33933, Note_on_c, 0, 65, 0
1, 33935, Note_on_c, 1, 55, 0
1, 33936, Note_on_c, 0, 65, 75
1, 33936, Note_on_c, 1, 47, 75
1, 33959, Note_on_c, 1, 47, 0
1, 33960, Note_on_c, 1, 55, 75
1, 33981, Note_on_c, 0, 65, 0
1, 33983, Note_on_c, 1, 55, 0
1, 33984, Note_on_c, 0, 65, 75
1, 33984, Note_on_c, 1, 48, 75
1, 33996, Note_on_c, 0, 65, 0
1, 33996, Note_on_c, 0, 67, 75
1, 34007, Note_on_c, 1, 48, 0
1, 34008, Note_on_c, 0, 67, 0
1, 34008, Note_on_c, 0, 65, 75
1, 34008, Note_on_c, 1, 55, 75
1, 34029, Note_on_c, 0, 65, 0
1, 34031, Note_on_c, 1, 55, 0
1, 34032, Note_on_c, 0, 64, 75
1, 34032, Note_on_c, 1, 52, 75
1, 34055, Note_on_c, 1, 52, 0
1, 34056, Note_on_c, 1, 55, 75
1, 34077, Note_on_c, 0, 64, 0
1, 34079, Note_on_c, 1, 55, 0
1, 34080, Note_on_c, 0, 76, 75
1, 34080, Note_on_c, 1, 48, 75
1, 34103, Note_on_c, 1, 48, 0
1, 34104, Note_on_c, 1, 55, 75
1, 34125, Note_on_c, 0, 76, 0
1, 34127, Note_on_c, 1, 55, 0
1, 34128, Note_on_c, 0, 76, 75
1, 34128, Note_on_c, 1, 43, 75
1, 34151, Note_on_c, 1, 43, 0
1, 34152, Note_on_c, 1, 55, 75
1, 34175, Note_on_c, 1, 55, 0
1, 34176, Note_on_c, 1, 47, 75
1, 34199, Note_on_c, 0, 76, 0
1, 34199, Note_on_c, 1, 47, 0
1, 34200, Note_on_c, 0, 77, 75
1, 34200, Note_on_c, 1, 55, 75
1, 34223, Note_on_c, 0, 77, 0
1, 34223, Note_on_c, 1, 55, 0
1, 34224, Note_on_c, 0, 74, 75
1, 34224, Note_on_c, 1, 43, 75
1, 34247, Note_on_c, 0, 74, 0
1, 34247, Note_on_c, 1, 43, 0
1, 34248, Note_on_c, 0, 71, 75
1, 34248, Note_on_c, 1, 55, 75
1, 34271, Note_on_c, 0, 71, 0
1, 34271, Note_on_c, 1, 55, 0
1, 34272, Note_on_c, 0, 72, 75
1, 34272, Note_on_c, 1, 48, 75
1, 34295, Note_on_c, 1, 48, 0
1, 34296, Note_on_c, 1, 55, 73
1, 34317, Note_on_c, 0, 72, 0
1, 34319, Note_on_c, 1, 55, 0
1, 34320, Note_on_c, 1, 52, 72
1, 34343, Note_on_c, 1, 52, 0
1, 34344, Note_on_c, 1, 55, 71
1, 34367, Note_on_c, 1, 55, 0
1, 34368, Note_on_c, 0, 88, 70
1, 34368, Note_on_c, 1, 48, 70
1, 34391, Note_on_c, 0, 88, 0
1, 34391, Note_on_c, 1, 48, 0
1, 34392, Note_on_c, 0, 79, 70
1, 34392, Note_on_c, 1, 55, 70
1, 34415, Note_on_c, 0, 79, 0
1, 34415, Note_on_c, 1, 55, 0
1, 34416, Note_on_c, 0, 79, 70
1, 34416, Note_on_c, 1, 47, 70
1, 34428, Note_on_c, 0, 79, 0
1, 34428, Note_on_c, 0, 81, 70
1, 34439, Note_on_c, 1, 47, 0
1, 34440, Note_on_c, 0, 81, 0
1, 34440, Note_on_c, 0, 79, 70
1, 34440, Note_on_c, 1, 55, 70
1, 34461, Note_on_c, 0, 79, 0
1, 34463, Note_on_c, 1, 55, 0
1, 34464, Note_on_c, 0, 77, 70
1, 34464, Note_on_c, 1, 50, 70
1, 34487, Note_on_c, 1, 50, 0
1, 34488, Note_on_c, 1, 55, 70
1, 34509, Note_on_c, 0, 77, 0
1, 34511, Note_on_c, 1, 55, 0
1, 34512, Note_on_c, 0, 86, 70
1, 34512, Note_on_c, 1, 47, 70
1, 34535, Note_on_c, 0, 86, 0
1, 34535, Note_on_c, 1, 47, 0
1, 34536, Note_on_c, 0, 77, 70
1, 34536, Note_on_c, 1, 55, 70
1, 34559, Note_on_c, 0, 77, 0
1, 34559, Note_on_c, 1, 55, 0
1, 34560, Note_on_c, 0, 77, 70
1, 34560, Note_on_c, 1, 48, 70
1, 34572, Note_on_c, 0, 77, 0
1, 34572, Note_on_c, 0, 79, 70
1, 34583, Note_on_c, 1, 48, 0
1, 34584, Note_on_c, 0, 79, 0
1, 34584, Note_on_c, 0, 77, 70
1, 34584, Note_on_c, 1, 55, 70
1, 34605, Note_on_c, 0, 77, 0
1, 34607, Note_on_c, 1, 55, 0
1, 34608, Note_on_c, 0, 76, 70
1, 34608, Note_on_c, 1, 52, 70
1, 34631, Note_on_c, 1, 52, 0
1, 34632, Note_on_c, 1, 55, 70
1, 34653, Note_on_c, 0, 76, 0
1, 34655, Note_on_c, 1, 55, 0
1, 34656, Note_on_c, 0, 76, 70
1, 34656, Note_on_c, 1, 48, 70
1, 34679, Note_on_c, 1, 48, 0
1, 34680, Note_on_c, 1, 55, 70
1, 34701, Note_on_c, 0, 76, 0
1, 34703, Note_on_c, 1, 55, 0
1, 34704, Note_on_c, 0, 76, 70
1, 34704, Note_on_c, 1, 43, 70
1, 34727, Note_on_c, 1, 43, 0
1, 34728, Note_on_c, 1, 55, 70
1, 34751, Note_on_c, 1, 55, 0
1, 34752, Note_on_c, 1, 47, 70
1, 34775, Note_on_c, 0, 76, 0
1, 34775, Note_on_c, 1, 47, 0
1, 34776, Note_on_c, 0, 77, 70
1, 34776, Note_on_c, 1, 55, 70
1, 34799, Note_on_c, 0, 77, 0
1, 34799, Note_on_c, 1, 55, 0
1, 34800, Note_on_c, 0, 74, 70
1, 34800, Note_on_c, 1, 43, 70
1, 34823, Note_on_c, 0, 74, 0
1, 34823, Note_on_c, 1, 43, 0
1, 34824, Note_on_c, 0, 71, 70
1, 34824, Note_on_c, 1, 55, 70
1, 34847, Note_on_c, 0, 71, 0
1, 34847, Note_on_c, 1, 55, 0
1, 34848, Note_on_c, 0, 72, 70
1, 34848, Note_on_c, 1, 52, 70
1, 34848, Note_on_c, 1, 48, 70
1, 34893, Note_on_c, 0, 72, 0
1, 34893, Note_on_c, 1, 52, 0
1, 34893, Note_on_c, 1, 48, 0
1, 34944, Note_on_c, 1, 48, 4
1, 34989, Note_on_c, 1, 48, 0
1, 34999, End_track
0, 0, End_of_file