0, 0, Header, 0, 1, 96
1, 0, Start_track
1, 0, Tempo, 857142
1, 0, Note_on_c, 1, 33, 64
1, 48, Note_on_c, 0, 76, 64
1, 68, Note_on_c, 0, 76, 0
1, 89, Note_on_c, 1, 33, 0
1, 96, Note_on_c, 0, 76, 64
1, 96, Note_on_c, 1, 73, 64
1, 116, Note_on_c, 0, 76, 0
1, 135, Note_on_c, 1, 73, 0
1, 144, Note_on_c, 0, 76, 64
1, 164, Note_on_c, 0, 76, 0
1, 192, Note_on_c, 0, 76, 64
1, 192, Note_on_c, 1, 68, 64
1, 215, Note_on_c, 0, 76, 0
1, 216, Note_on_c, 0, 78, 64
1, 231, Note_on_c, 1, 68, 0
1, 239, Note_on_c, 0, 78, 0
1, 240, Note_on_c, 0, 76, 64
1, 263, Note_on_c, 0, 76, 0
1, 264, Note_on_c, 0, 74, 64
1, 287, Note_on_c, 0, 74, 0
1, 288, Note_on_c, 1, 69, 64
1, 327, Note_on_c, 1, 69, 0
1, 336, Note_on_c, 0, 73, 64
1, 356, Note_on_c, 0, 73, 0
1, 384, Note_on_c, 0, 73, 64
1, 404, Note_on_c, 0, 73, 0
1, 432, Note_on_c, 0, 73, 64
1, 452, Note_on_c, 0, 73, 0
1, 480, Note_on_c, 0, 73, 64
1, 480, Note_on_c, 1, 64, 64
1, 503, Note_on_c, 0, 73, 0
1, 504, Note_on_c, 0, 74, 64
1, 519, Note_on_c, 1, 64, 0
1, 527, Note_on_c, 0, 74, 0
1, 528, Note_on_c, 0, 73, 64
1, 551, Note_on_c, 0, 73, 0
1, 552, Note_on_c, 0, 71, 64
1, 575, Note_on_c, 0, 71, 0
1, 576, Note_on_c, 1, 66, 64
1, 615, Note_on_c, 1, 66, 0
1, 624, Note_on_c, 0, 69, 64
1, 644, Note_on_c, 0, 69, 0
1, 672, Note_on_c, 0, 69, 64
1, 692, Note_on_c, 0, 69, 0
1, 720, Note_on_c, 0, 69, 64
1, 740, Note_on_c, 0, 69, 0
1, 768, Note_on_c, 0, 69, 64
1, 768, Note_on_c, 1, 61, 64
1, 791, Note_on_c, 0, 69, 0
1, 792, Note_on_c, 0, 71, 64
1, 807, Note_on_c, 1, 61, 0
1, 815, Note_on_c, 0, 71, 0
1, 816, Note_on_c, 0, 69, 64
1, 839, Note_on_c, 0, 69, 0
1, 840, Note_on_c, 0, 68, 64
1, 863, Note_on_c, 0, 68, 0
1, 864, Note_on_c, 0, 66, 64
1, 864, Note_on_c, 1, 62, 64
1, 903, Note_on_c, 1, 62, 0
1, 909, Note_on_c, 0, 66, 0
1, 912, Note_on_c, 0, 71, 64
1, 957, Note_on_c, 0, 71, 0
1, 960, Note_on_c, 0, 71, 64
1, 983, Note_on_c, 0, 71, 0
1, 984, Note_on_c, 0, 73, 64
1, 1007, Note_on_c, 0, 73, 0
1, 1008, Note_on_c, 0, 74, 64
1, 1031, Note_on_c, 0, 74, 0
1, 1032, Note_on_c, 0, 73, 64
1, 1055, Note_on_c, 0, 73, 0
1, 1056, Note_on_c, 0, 76, 75
1, 1056, Note_on_c, 1, 64, 64
1, 1079, Note_on_c, 0, 76, 0
1, 1080, Note_on_c, 0, 74, 73
1, 1103, Note_on_c, 0, 74, 0
1, 1104, Note_on_c, 0, 73, 72
1, 1127, Note_on_c, 0, 73, 0
1, 1128, Note_on_c, 0, 71, 70
1, 1145, Note_on_c, 1, 64, 0
1, 1151, Note_on_c, 0, 71, 0
1, 1152, Note_on_c, 0, 69, 69
1, 1152, Note_on_c, 1, 33, 64
1, 1197, Note_on_c, 0, 69, 0
1, 1200, Note_on_c, 0, 76, 69
1, 1241, Note_on_c, 1, 33, 0
1, 1245, Note_on_c, 0, 76, 0
1, 1248, Note_on_c, 0, 76, 69
1, 1248, Note_on_c, 1, 73, 69
1, 1248, Note_on_c, 1, 69, 69
1, 1293, Note_on_c, 0, 76, 0
1, 1296, Note_on_c, 0, 76, 69
1, 1341, Note_on_c, 0, 76, 0
1, 1344, Note_on_c, 0, 76, 69
1, 1344, Note_on_c, 1, 73, 0
1, 1344, Note_on_c, 1, 69, 0
1, 1344, Note_on_c, 1, 71, 69
1, 1344, Note_on_c, 1, 68, 69
1, 1378, Note_on_c, 0, 76, 0
1, 1380, Note_on_c, 0, 74, 69
1, 1386, Note_on_c, 0, 74, 0
1, 1386, Note_on_c, 0, 76, 69
1, 1392, Note_on_c, 0, 76, 0
1, 1392, Note_on_c, 0, 78, 69
1, 1407, Note_on_c, 0, 78, 0
1, 1408, Note_on_c, 0, 76, 69
1, 1423, Note_on_c, 0, 76, 0
1, 1424, Note_on_c, 0, 74, 69
1, 1433, Note_on_c, 1, 71, 0
1, 1433, Note_on_c, 1, 68, 0
1, 1439, Note_on_c, 0, 74, 0
1, 1440, Note_on_c, 0, 73, 69
1, 1485, Note_on_c, 0, 73, 0
1, 1488, Note_on_c, 0, 73, 69
1, 1533, Note_on_c, 0, 73, 0
1, 1536, Note_on_c, 0, 73, 69
1, 1536, Note_on_c, 1, 69, 69
1, 1536, Note_on_c, 1, 66, 69
1, 1581, Note_on_c, 0, 73, 0
1, 1584, Note_on_c, 0, 73, 69
1, 1629, Note_on_c, 0, 73, 0
1, 1632, Note_on_c, 0, 73, 69
1, 1632, Note_on_c, 1, 69, 0
1, 1632, Note_on_c, 1, 66, 0
1, 1632, Note_on_c, 1, 68, 69
1, 1632, Note_on_c, 1, 64, 69
1, 1666, Note_on_c, 0, 73, 0
1, 1668, Note_on_c, 0, 71, 69
1, 1674, Note_on_c, 0, 71, 0
1, 1674, Note_on_c, 0, 73, 69
1, 1680, Note_on_c, 0, 73, 0
1, 1680, Note_on_c, 0, 74, 69
1, 1695, Note_on_c, 0, 74, 0
1, 1696, Note_on_c, 0, 73, 69
1, 1711, Note_on_c, 0, 73, 0
1, 1712, Note_on_c, 0, 71, 69
1, 1721, Note_on_c, 1, 68, 0
1, 1721, Note_on_c, 1, 64, 0
1, 1727, Note_on_c, 0, 71, 0
1, 1728, Note_on_c, 0, 69, 69
1, 1773, Note_on_c, 0, 69, 0
1, 1776, Note_on_c, 0, 69, 69
1, 1821, Note_on_c, 0, 69, 0
1, 1824, Note_on_c, 0, 69, 69
1, 1824, Note_on_c, 1, 66, 69
1, 1824, Note_on_c, 1, 62, 69
1, 1869, Note_on_c, 0, 69, 0
1, 1872, Note_on_c, 0, 69, 69
1, 1917, Note_on_c, 0, 69, 0
1, 1920, Note_on_c, 0, 69, 69
1, 1920, Note_on_c, 1, 66, 0
1, 1920, Note_on_c, 1, 62, 0
1, 1920, Note_on_c, 1, 64, 69
1, 1920, Note_on_c, 1, 61, 69
1, 1954, Note_on_c, 0, 69, 0
1, 1956, Note_on_c, 0, 67, 69
1, 1962, Note_on_c, 0, 67, 0
1, 1962, Note_on_c, 0, 69, 69
1, 1968, Note_on_c, 0, 69, 0
1, 1968, Note_on_c, 0, 71, 69
1, 1983, Note_on_c, 0, 71, 0
1, 1984, Note_on_c, 0, 69, 69
1, 1999, Note_on_c, 0, 69, 0
1, 2000, Note_on_c, 0, 67, 69
1, 2009, Note_on_c, 1, 64, 0
1, 2009, Note_on_c, 1, 61, 0
1, 2015, Note_on_c, 0, 67, 0
1, 2016, Note_on_c, 0, 66, 69
1, 2016, Note_on_c, 1, 62, 69
1, 2061, Note_on_c, 0, 66, 0
1, 2064, Note_on_c, 0, 71, 69
1, 2105, Note_on_c, 1, 62, 0
1, 2109, Note_on_c, 0, 71, 0
1, 2112, Note_on_c, 0, 71, 69
1, 2135, Note_on_c, 0, 71, 0
1, 2136, Note_on_c, 0, 73, 69
1, 2159, Note_on_c, 0, 73, 0
1, 2160, Note_on_c, 0, 74, 69
1, 2183, Note_on_c, 0, 74, 0
1, 2184, Note_on_c, 0, 73, 69
1, 2207, Note_on_c, 0, 73, 0
1, 2208, Note_on_c, 0, 76, 69
1, 2208, Note_on_c, 1, 64, 69
1, 2231, Note_on_c, 0, 76, 0
1, 2232, Note_on_c, 0, 74, 69
1, 2255, Note_on_c, 0, 74, 0
1, 2256, Note_on_c, 0, 73, 69
1, 2279, Note_on_c, 0, 73, 0
1, 2280, Note_on_c, 0, 71, 69
1, 2297, Note_on_c, 1, 64, 0
1, 2303, Note_on_c, 0, 71, 0
1, 2304, Note_on_c, 0, 69, 69
1, 2304, Note_on_c, 1, 57, 69
1, 2349, Note_on_c, 0, 69, 0
1, 2349, Note_on_c, 1, 57, 0
1, 2352, Note_on_c, 0, 64, 84
1, 2352, Note_on_c, 1, 52, 84
1, 2372, Note_on_c, 0, 64, 0
1, 2397, Note_on_c, 1, 52, 0
1, 2400, Note_on_c, 0, 64, 84
1, 2400, Note_on_c, 1, 52, 84
1, 2420, Note_on_c, 0, 64, 0
1, 2445, Note_on_c, 1, 52, 0
1, 2448, Note_on_c, 0, 64, 84
1, 2448, Note_on_c, 1, 52, 84
1, 2468, Note_on_c, 0, 64, 0
1, 2493, Note_on_c, 1, 52, 0
1, 2496, Note_on_c, 0, 64, 84
1, 2496, Note_on_c, 1, 52, 84
1, 2519, Note_on_c, 0, 64, 0
1, 2519, Note_on_c, 1, 52, 0
1, 2520, Note_on_c, 0, 66, 84
1, 2520, Note_on_c, 1, 54, 84
1, 2543, Note_on_c, 0, 66, 0
1, 2543, Note_on_c, 1, 54, 0
1, 2544, Note_on_c, 0, 64, 84
1, 2544, Note_on_c, 1, 52, 84
1, 2567, Note_on_c, 0, 64, 0
1, 2567, Note_on_c, 1, 52, 0
1, 2568, Note_on_c, 0, 62, 84
1, 2568, Note_on_c, 1, 50, 84
1, 2591, Note_on_c, 0, 62, 0
1, 2591, Note_on_c, 1, 50, 0
1, 2592, Note_on_c, 0, 61, 84
1, 2592, Note_on_c, 1, 49, 84
1, 2612, Note_on_c, 0, 61, 0
1, 2637, Note_on_c, 1, 49, 0
1, 2640, Note_on_c, 0, 61, 84
1, 2640, Note_on_c, 1, 49, 84
1, 2660, Note_on_c, 0, 61, 0
1, 2685, Note_on_c, 1, 49, 0
1, 2688, Note_on_c, 0, 61, 84
1, 2688, Note_on_c, 1, 49, 84
1, 2708, Note_on_c, 0, 61, 0
1, 2733, Note_on_c, 1, 49, 0
1, 2736, Note_on_c, 0, 61, 84
1, 2736, Note_on_c, 1, 49, 84
1, 2756, Note_on_c, 0, 61, 0
1, 2781, Note_on_c, 1, 49, 0
1, 2784, Note_on_c, 0, 61, 84
1, 2784, Note_on_c, 1, 49, 84
1, 2807, Note_on_c, 0, 61, 0
1, 2807, Note_on_c, 1, 49, 0
1, 2808, Note_on_c, 0, 62, 84
1, 2808, Note_on_c, 1, 50, 84
1, 2831, Note_on_c, 0, 62, 0
1, 2831, Note_on_c, 1, 50, 0
1, 2832, Note_on_c, 0, 61, 84
1, 2832, Note_on_c, 1, 49, 84
1, 2855, Note_on_c, 0, 61, 0
1, 2855, Note_on_c, 1, 49, 0
1, 2856, Note_on_c, 0, 59, 84
1, 2856, Note_on_c, 1, 47, 84
1, 2879, Note_on_c, 0, 59, 0
1, 2879, Note_on_c, 1, 47, 0
1, 2880, Note_on_c, 0, 57, 75
1, 2880, Note_on_c, 1, 45, 75
1, 2925, Note_on_c, 1, 45, 0
1, 2928, Note_on_c, 1, 33, 75
1, 2948, Note_on_c, 1, 33, 0
1, 2976, Note_on_c, 1, 45, 75
1, 2996, Note_on_c, 1, 45, 0
1, 3024, Note_on_c, 1, 49, 75
1, 3044, Note_on_c, 1, 49, 0
1, 3072, Note_on_c, 1, 52, 75
1, 3092, Note_on_c, 1, 52, 0
1, 3120, Note_on_c, 1, 49, 75
1, 3140, Note_on_c, 1, 49, 0
1, 3145, Note_on_c, 0, 57, 0
1, 3168, Note_on_c, 0, 57, 75
1, 3176, Note_on_c, 0, 62, 75
1, 3184, Note_on_c, 0, 66, 75
1, 3216, Note_on_c, 1, 33, 75
1, 3236, Note_on_c, 1, 33, 0
1, 3264, Note_on_c, 1, 45, 75
1, 3284, Note_on_c, 1, 45, 0
1, 3312, Note_on_c, 1, 50, 75
1, 3332, Note_on_c, 1, 50, 0
1, 3360, Note_on_c, 1, 54, 75
1, 3380, Note_on_c, 1, 54, 0
1, 3408, Note_on_c, 1, 50, 75
1, 3428, Note_on_c, 1, 50, 0
1, 3441, Note_on_c, 0, 66, 0
1, 3441, Note_on_c, 0, 62, 0
1, 3441, Note_on_c, 0, 57, 0
1, 3456, Note_on_c, 0, 57, 75
1, 3468, Note_on_c, 0, 57, 0
1, 3468, Note_on_c, 0, 64, 75
1, 3504, Note_on_c, 1, 52, 69
1, 3504, Note_on_c, 1, 49, 69
1, 3545, Note_on_c, 0, 64, 0
1, 3551, Note_on_c, 1, 52, 0
1, 3551, Note_on_c, 1, 49, 0
1, 3552, Note_on_c, 0, 69, 75
1, 3552, Note_on_c, 0, 57, 64
1, 3600, Note_on_c, 1, 52, 69
1, 3600, Note_on_c, 1, 49, 69
1, 3647, Note_on_c, 1, 52, 0
1, 3647, Note_on_c, 1, 49, 0
1, 3648, Note_on_c, 1, 52, 69
1, 3648, Note_on_c, 1, 49, 69
1, 3682, Note_on_c, 0, 69, 0
1, 3684, Note_on_c, 0, 68, 75
1, 3695, Note_on_c, 1, 52, 0
1, 3695, Note_on_c, 1, 49, 0
1, 3696, Note_on_c, 0, 68, 0
1, 3696, Note_on_c, 0, 66, 75
1, 3696, Note_on_c, 1, 52, 69
1, 3696, Note_on_c, 1, 49, 69
1, 3729, Note_on_c, 0, 57, 0
1, 3730, Note_on_c, 0, 66, 0
1, 3732, Note_on_c, 0, 64, 75
1, 3743, Note_on_c, 1, 52, 0
1, 3743, Note_on_c, 1, 49, 0
1, 3744, Note_on_c, 0, 64, 0
1, 3744, Note_on_c, 0, 64, 75
1, 3744, Note_on_c, 0, 59, 64
1, 3792, Note_on_c, 1, 52, 69
1, 3792, Note_on_c, 1, 44, 69
1, 3839, Note_on_c, 1, 52, 0
1, 3839, Note_on_c, 1, 44, 0
1, 3840, Note_on_c, 1, 52, 69
1, 3840, Note_on_c, 1, 44, 69
1, 3885, Note_on_c, 0, 64, 0
1, 3887, Note_on_c, 1, 52, 0
1, 3887, Note_on_c, 1, 44, 0
1, 3888, Note_on_c, 0, 66, 75
1, 3888, Note_on_c, 1, 52, 69
1, 3888, Note_on_c, 1, 44, 69
1, 3911, Note_on_c, 0, 66, 0
1, 3912, Note_on_c, 0, 64, 75
1, 3921, Note_on_c, 0, 59, 0
1, 3935, Note_on_c, 0, 64, 0
1, 3935, Note_on_c, 1, 52, 0
1, 3935, Note_on_c, 1, 44, 0
1, 3936, Note_on_c, 0, 64, 75
1, 3936, Note_on_c, 1, 52, 69
1, 3936, Note_on_c, 1, 44, 69
1, 3959, Note_on_c, 0, 64, 0
1, 3960, Note_on_c, 0, 62, 75
1, 3983, Note_on_c, 0, 62, 0
1, 3983, Note_on_c, 1, 52, 0
1, 3983, Note_on_c, 1, 44, 0
1, 3984, Note_on_c, 0, 61, 75
1, 3984, Note_on_c, 1, 52, 69
1, 3984, Note_on_c, 1, 44, 69
1, 4007, Note_on_c, 0, 61, 0
1, 4008, Note_on_c, 0, 62, 75
1, 4031, Note_on_c, 0, 62, 0
1, 4031, Note_on_c, 1, 52, 0
1, 4031, Note_on_c, 1, 44, 0
1, 4032, Note_on_c, 0, 62, 75
1, 4032, Note_on_c, 0, 59, 75
1, 4080, Note_on_c, 1, 52, 69
1, 4080, Note_on_c, 1, 45, 69
1, 4127, Note_on_c, 1, 52, 0
1, 4127, Note_on_c, 1, 45, 0
1, 4128, Note_on_c, 0, 62, 0
1, 4128, Note_on_c, 0, 59, 0
1, 4128, Note_on_c, 0, 61, 75
1, 4128, Note_on_c, 0, 57, 75
1, 4128, Note_on_c, 1, 52, 69
1, 4128, Note_on_c, 1, 45, 69
1, 4175, Note_on_c, 1, 52, 0
1, 4175, Note_on_c, 1, 45, 0
1, 4176, Note_on_c, 1, 52, 69
1, 4176, Note_on_c, 1, 45, 69
1, 4217, Note_on_c, 0, 61, 0
1, 4217, Note_on_c, 0, 57, 0
1, 4223, Note_on_c, 1, 52, 0
1, 4223, Note_on_c, 1, 45, 0
1, 4224, Note_on_c, 1, 52, 69
1, 4224, Note_on_c, 1, 45, 69
1, 4271, Note_on_c, 1, 52, 0
1, 4271, Note_on_c, 1, 45, 0
1, 4272, Note_on_c, 1, 52, 69
1, 4272, Note_on_c, 1, 45, 69
1, 4296, Note_on_c, 0, 61, 75
1, 4319, Note_on_c, 0, 61, 0
1, 4319, Note_on_c, 1, 52, 0
1, 4319, Note_on_c, 1, 45, 0
1, 4320, Note_on_c, 0, 61, 75
1, 4343, Note_on_c, 0, 61, 0
1, 4344, Note_on_c, 0, 59, 75
1, 4367, Note_on_c, 0, 59, 0
1, 4368, Note_on_c, 0, 56, 75
1, 4368, Note_on_c, 1, 52, 69
1, 4368, Note_on_c, 1, 50, 69
1, 4391, Note_on_c, 0, 56, 0
1, 4392, Note_on_c, 0, 52, 75
1, 4415, Note_on_c, 0, 52, 0
1, 4415, Note_on_c, 1, 52, 0
1, 4415, Note_on_c, 1, 50, 0
1, 4416, Note_on_c, 0, 57, 75
1, 4416, Note_on_c, 1, 52, 69
1, 4416, Note_on_c, 1, 49, 69
1, 4463, Note_on_c, 1, 52, 0
1, 4463, Note_on_c, 1, 49, 0
1, 4464, Note_on_c, 1, 52, 69
1, 4464, Note_on_c, 1, 49, 69
1, 4511, Note_on_c, 1, 52, 0
1, 4511, Note_on_c, 1, 49, 0
1, 4512, Note_on_c, 1, 52, 69
1, 4512, Note_on_c, 1, 49, 69
1, 4559, Note_on_c, 1, 52, 0
1, 4559, Note_on_c, 1, 49, 0
1, 4560, Note_on_c, 1, 52, 69
1, 4560, Note_on_c, 1, 49, 69
1, 4579, Note_on_c, 0, 57, 0
1, 4584, Note_on_c, 0, 61, 75
1, 4607, Note_on_c, 0, 61, 0
1, 4607, Note_on_c, 1, 52, 0
1, 4607, Note_on_c, 1, 49, 0
1, 4608, Note_on_c, 0, 61, 75
1, 4631, Note_on_c, 0, 61, 0
1, 4632, Note_on_c, 0, 59, 75
1, 4655, Note_on_c, 0, 59, 0
1, 4656, Note_on_c, 0, 56, 75
1, 4656, Note_on_c, 1, 52, 69
1, 4656, Note_on_c, 1, 50, 69
1, 4679, Note_on_c, 0, 56, 0
1, 4680, Note_on_c, 0, 52, 75
1, 4703, Note_on_c, 0, 52, 0
1, 4703, Note_on_c, 1, 52, 0
1, 4703, Note_on_c, 1, 50, 0
1, 4704, Note_on_c, 0, 57, 75
1, 4704, Note_on_c, 1, 52, 69
1, 4704, Note_on_c, 1, 49, 69
1, 4751, Note_on_c, 1, 52, 0
1, 4751, Note_on_c, 1, 49, 0
1, 4752, Note_on_c, 1, 52, 69
1, 4752, Note_on_c, 1, 49, 69
1, 4799, Note_on_c, 1, 52, 0
1, 4799, Note_on_c, 1, 49, 0
1, 4800, Note_on_c, 1, 52, 69
1, 4800, Note_on_c, 1, 49, 69
1, 4847, Note_on_c, 1, 52, 0
1, 4847, Note_on_c, 1, 49, 0
1, 4848, Note_on_c, 1, 52, 69
1, 4848, Note_on_c, 1, 49, 69
1, 4867, Note_on_c, 0, 57, 0
1, 4872, Note_on_c, 0, 61, 75
1, 4895, Note_on_c, 0, 61, 0
1, 4895, Note_on_c, 1, 52, 0
1, 4895, Note_on_c, 1, 49, 0
1, 4896, Note_on_c, 0, 61, 75
1, 4896, Note_on_c, 1, 52, 69
1, 4896, Note_on_c, 1, 50, 69
1, 4919, Note_on_c, 0, 61, 0
1, 4920, Note_on_c, 0, 59, 75
1, 4941, Note_on_c, 1, 52, 0
1, 4941, Note_on_c, 1, 50, 0
1, 4943, Note_on_c, 0, 59, 0
1, 4944, Note_on_c, 0, 56, 75
1, 4967, Note_on_c, 0, 56, 0
1, 4968, Note_on_c, 0, 52, 75
1, 4991, Note_on_c, 0, 52, 0
1, 4992, Note_on_c, 0, 59, 75
1, 4992, Note_on_c, 1, 52, 69
1, 4992, Note_on_c, 1, 49, 69
1, 5016, Note_on_c, 0, 59, 0
1, 5016, Note_on_c, 0, 57, 75
1, 5037, Note_on_c, 1, 52, 0
1, 5037, Note_on_c, 1, 49, 0
1, 5039, Note_on_c, 0, 57, 0
1, 5040, Note_on_c, 0, 52, 75
1, 5050, Note_on_c, 0, 52, 0
1, 5064, Note_on_c, 0, 61, 75
1, 5074, Note_on_c, 0, 61, 0
1, 5088, Note_on_c, 0, 61, 75
1, 5088, Note_on_c, 1, 44, 75
1, 5112, Note_on_c, 0, 61, 0
1, 5112, Note_on_c, 0, 59, 75
1, 5133, Note_on_c, 1, 44, 0
1, 5135, Note_on_c, 0, 59, 0
1, 5136, Note_on_c, 0, 52, 75
1, 5146, Note_on_c, 0, 52, 0
1, 5160, Note_on_c, 0, 62, 75
1, 5170, Note_on_c, 0, 62, 0
1, 5184, Note_on_c, 0, 62, 75
1, 5184, Note_on_c, 1, 45, 75
1, 5208, Note_on_c, 0, 62, 0
1, 5208, Note_on_c, 0, 61, 75
1, 5229, Note_on_c, 1, 45, 0
1, 5231, Note_on_c, 0, 61, 0
1, 5232, Note_on_c, 0, 52, 75
1, 5242, Note_on_c, 0, 52, 0
1, 5256, Note_on_c, 0, 64, 75
1, 5266, Note_on_c, 0, 64, 0
1, 5280, Note_on_c, 0, 64, 75
1, 5280, Note_on_c, 1, 54, 75
1, 5304, Note_on_c, 0, 64, 0
1, 5304, Note_on_c, 0, 62, 79
1, 5325, Note_on_c, 1, 54, 0
1, 5327, Note_on_c, 0, 62, 0
1, 5328, Note_on_c, 0, 62, 83
1, 5328, Note_on_c, 1, 52, 85
1, 5352, Note_on_c, 0, 62, 0
1, 5352, Note_on_c, 0, 61, 88
1, 5373, Note_on_c, 1, 52, 0
1, 5375, Note_on_c, 0, 61, 0
1, 5376, Note_on_c, 0, 61, 92
1, 5376, Note_on_c, 1, 50, 95
1, 5400, Note_on_c, 0, 61, 0
1, 5400, Note_on_c, 0, 59, 97
1, 5421, Note_on_c, 1, 50, 0
1, 5423, Note_on_c, 0, 59, 0
1, 5424, Note_on_c, 0, 59, 101
1, 5424, Note_on_c, 1, 51, 106
1, 5448, Note_on_c, 0, 59, 0
1, 5448, Note_on_c, 0, 57, 106
1, 5469, Note_on_c, 1, 51, 0
1, 5471, Note_on_c, 0, 57, 0
1, 5472, Note_on_c, 0, 57, 103
1, 5472, Note_on_c, 1, 52, 101
1, 5495, Note_on_c, 0, 57, 0
1, 5496, Note_on_c, 0, 56, 101
1, 5511, Note_on_c, 1, 52, 0
1, 5519, Note_on_c, 0, 56, 0
1, 5520, Note_on_c, 0, 59, 98
1, 5543, Note_on_c, 0, 59, 0
1, 5544, Note_on_c, 0, 56, 96
1, 5567, Note_on_c, 0, 56, 0
1, 5568, Note_on_c, 0, 52, 93
1, 5568, Note_on_c, 1, 40, 92
1, 5607, Note_on_c, 0, 52, 0
1, 5657, Note_on_c, 1, 40, 0
1, 5736, Note_on_c, 0, 59, 84
1, 5759, Note_on_c, 0, 59, 0
1, 5760, Note_on_c, 0, 59, 84
1, 5808, Note_on_c, 1, 44, 69
1, 5849, Note_on_c, 0, 59, 0
1, 5855, Note_on_c, 1, 44, 0
1, 5856, Note_on_c, 0, 47, 84
1, 5856, Note_on_c, 1, 44, 69
1, 5903, Note_on_c, 1, 44, 0
1, 5904, Note_on_c, 1, 44, 69
1, 5945, Note_on_c, 0, 47, 0
1, 5951, Note_on_c, 1, 44, 0
1, 5952, Note_on_c, 0, 52, 84
1, 5952, Note_on_c, 1, 44, 69
1, 5999, Note_on_c, 1, 44, 0
1, 6000, Note_on_c, 1, 44, 69
1, 6019, Note_on_c, 0, 52, 0
1, 6024, Note_on_c, 0, 56, 84
1, 6047, Note_on_c, 0, 56, 0
1, 6047, Note_on_c, 1, 44, 0
1, 6048, Note_on_c, 0, 53, 84
1, 6096, Note_on_c, 1, 33, 69
1, 6143, Note_on_c, 1, 33, 0
1, 6144, Note_on_c, 0, 53, 0
1, 6144, Note_on_c, 0, 54, 84
1, 6144, Note_on_c, 1, 33, 69
1, 6191, Note_on_c, 1, 33, 0
1, 6192, Note_on_c, 1, 33, 69
1, 6239, Note_on_c, 1, 33, 0
1, 6240, Note_on_c, 1, 33, 69
1, 6287, Note_on_c, 1, 33, 0
1, 6288, Note_on_c, 1, 33, 69
1, 6307, Note_on_c, 0, 54, 0
1, 6312, Note_on_c, 0, 61, 84
1, 6335, Note_on_c, 0, 61, 0
1, 6335, Note_on_c, 1, 33, 0
1, 6336, Note_on_c, 0, 61, 84
1, 6384, Note_on_c, 1, 34, 69
1, 6425, Note_on_c, 0, 61, 0
1, 6431, Note_on_c, 1, 34, 0
1, 6432, Note_on_c, 0, 49, 84
1, 6432, Note_on_c, 1, 34, 69
1, 6479, Note_on_c, 1, 34, 0
1, 6480, Note_on_c, 1, 34, 69
1, 6521, Note_on_c, 0, 49, 0
1, 6527, Note_on_c, 1, 34, 0
1, 6528, Note_on_c, 0, 54, 84
1, 6528, Note_on_c, 1, 34, 69
1, 6575, Note_on_c, 1, 34, 0
1, 6576, Note_on_c, 1, 34, 69
1, 6617, Note_on_c, 0, 54, 0
1, 6623, Note_on_c, 1, 34, 0
1, 6624, Note_on_c, 0, 52, 84
1, 6672, Note_on_c, 1, 35, 69
1, 6719, Note_on_c, 1, 35, 0
1, 6720, Note_on_c, 0, 52, 0
1, 6720, Note_on_c, 0, 51, 84
1, 6720, Note_on_c, 1, 35, 69
1, 6767, Note_on_c, 1, 35, 0
1, 6768, Note_on_c, 1, 35, 69
1, 6809, Note_on_c, 0, 51, 0
1, 6815, Note_on_c, 1, 35, 0
1, 6816, Note_on_c, 1, 35, 69
1, 6864, Note_on_c, 0, 59, 84
1, 6909, Note_on_c, 0, 59, 0
1, 6910, Note_on_c, 1, 35, 0
1, 6912, Note_on_c, 0, 58, 84
1, 6924, Note_on_c, 0, 58, 0
1, 6924, Note_on_c, 0, 59, 84
1, 6936, Note_on_c, 0, 59, 0
1, 6936, Note_on_c, 0, 61, 84
1, 6948, Note_on_c, 0, 61, 0
1, 6948, Note_on_c, 0, 59, 84
1, 6960, Note_on_c, 1, 54, 69
1, 6960, Note_on_c, 1, 51, 69
1, 7007, Note_on_c, 1, 54, 0
1, 7007, Note_on_c, 1, 51, 0
1, 7008, Note_on_c, 1, 54, 69
1, 7008, Note_on_c, 1, 51, 69
1, 7053, Note_on_c, 0, 59, 0
1, 7055, Note_on_c, 1, 54, 0
1, 7055, Note_on_c, 1, 51, 0
1, 7056, Note_on_c, 0, 61, 84
1, 7056, Note_on_c, 1, 54, 69
1, 7056, Note_on_c, 1, 51, 69
1, 7079, Note_on_c, 0, 61, 0
1, 7080, Note_on_c, 0, 59, 84
1, 7103, Note_on_c, 0, 59, 0
1, 7103, Note_on_c, 1, 54, 0
1, 7103, Note_on_c, 1, 51, 0
1, 7104, Note_on_c, 0, 59, 84
1, 7104, Note_on_c, 1, 54, 69
1, 7104, Note_on_c, 1, 51, 69
1, 7127, Note_on_c, 0, 59, 0
1, 7128, Note_on_c, 0, 57, 84
1, 7151, Note_on_c, 0, 57, 0
1, 7151, Note_on_c, 1, 54, 0
1, 7151, Note_on_c, 1, 51, 0
1, 7152, Note_on_c, 0, 56, 84
1, 7152, Note_on_c, 1, 54, 69
1, 7152, Note_on_c, 1, 51, 69
1, 7175, Note_on_c, 0, 56, 0
1, 7176, Note_on_c, 0, 57, 84
1, 7199, Note_on_c, 0, 57, 0
1, 7199, Note_on_c, 1, 54, 0
1, 7199, Note_on_c, 1, 51, 0
1, 7200, Note_on_c, 0, 57, 84
1, 7248, Note_on_c, 1, 47, 61
1, 7248, Note_on_c, 1, 40, 61
1, 7289, Note_on_c, 0, 57, 0
1, 7295, Note_on_c, 1, 47, 0
1, 7295, Note_on_c, 1, 40, 0
1, 7296, Note_on_c, 0, 56, 84
1, 7296, Note_on_c, 1, 47, 61
1, 7296, Note_on_c, 1, 40, 61
1, 7308, Note_on_c, 0, 56, 0
1, 7308, Note_on_c, 0, 54, 84
1, 7320, Note_on_c, 0, 54, 0
1, 7320, Note_on_c, 0, 56, 84
1, 7343, Note_on_c, 1, 47, 0
1, 7343, Note_on_c, 1, 40, 0
1, 7344, Note_on_c, 1, 47, 61
1, 7344, Note_on_c, 1, 40, 61
1, 7385, Note_on_c, 0, 56, 0
1, 7391, Note_on_c, 1, 47, 0
1, 7391, Note_on_c, 1, 40, 0
1, 7392, Note_on_c, 1, 47, 61
1, 7392, Note_on_c, 1, 40, 61
1, 7439, Note_on_c, 1, 47, 0
1, 7439, Note_on_c, 1, 40, 0
1, 7440, Note_on_c, 0, 59, 84
1, 7440, Note_on_c, 1, 47, 61
1, 7440, Note_on_c, 1, 40, 61
1, 7485, Note_on_c, 0, 59, 0
1, 7487, Note_on_c, 1, 47, 0
1, 7487, Note_on_c, 1, 40, 0
1, 7488, Note_on_c, 0, 58, 84
1, 7500, Note_on_c, 0, 58, 0
1, 7500, Note_on_c, 0, 59, 84
1, 7512, Note_on_c, 0, 59, 0
1, 7512, Note_on_c, 0, 61, 84
1, 7524, Note_on_c, 0, 61, 0
1, 7524, Note_on_c, 0, 59, 84
1, 7536, Note_on_c, 1, 54, 69
1, 7536, Note_on_c, 1, 51, 69
1, 7536, Note_on_c, 1, 45, 69
1, 7583, Note_on_c, 1, 54, 0
1, 7583, Note_on_c, 1, 51, 0
1, 7583, Note_on_c, 1, 45, 0
1, 7584, Note_on_c, 1, 54, 69
1, 7584, Note_on_c, 1, 51, 69
1, 7584, Note_on_c, 1, 45, 69
1, 7629, Note_on_c, 0, 59, 0
1, 7631, Note_on_c, 1, 54, 0
1, 7631, Note_on_c, 1, 51, 0
1, 7631, Note_on_c, 1, 45, 0
1, 7632, Note_on_c, 0, 57, 84
1, 7632, Note_on_c, 1, 54, 69
1, 7632, Note_on_c, 1, 51, 69
1, 7632, Note_on_c, 1, 45, 69
1, 7655, Note_on_c, 0, 57, 0
1, 7656, Note_on_c, 0, 56, 84
1, 7679, Note_on_c, 0, 56, 0
1, 7679, Note_on_c, 1, 54, 0
1, 7679, Note_on_c, 1, 51, 0
1, 7679, Note_on_c, 1, 45, 0
1, 7680, Note_on_c, 0, 56, 84
1, 7680, Note_on_c, 1, 47, 69
1, 7680, Note_on_c, 1, 45, 69
1, 7703, Note_on_c, 0, 56, 0
1, 7704, Note_on_c, 0, 54, 84
1, 7727, Note_on_c, 0, 54, 0
1, 7727, Note_on_c, 1, 47, 0
1, 7727, Note_on_c, 1, 45, 0
1, 7728, Note_on_c, 0, 52, 84
1, 7728, Note_on_c, 1, 47, 69
1, 7728, Note_on_c, 1, 45, 69
1, 7751, Note_on_c, 0, 52, 0
1, 7752, Note_on_c, 0, 51, 84
1, 7775, Note_on_c, 0, 51, 0
1, 7775, Note_on_c, 1, 47, 0
1, 7775, Note_on_c, 1, 45, 0
1, 7776, Note_on_c, 0, 51, 84
1, 7824, Note_on_c, 1, 47, 69
1, 7824, Note_on_c, 1, 44, 69
1, 7871, Note_on_c, 1, 47, 0
1, 7871, Note_on_c, 1, 44, 0
1, 7872, Note_on_c, 0, 51, 0
1, 7872, Note_on_c, 0, 52, 84
1, 7872, Note_on_c, 1, 47, 69
1, 7872, Note_on_c, 1, 44, 69
1, 7919, Note_on_c, 1, 47, 0
1, 7919, Note_on_c, 1, 44, 0
1, 7920, Note_on_c, 1, 47, 69
1, 7920, Note_on_c, 1, 44, 69
1, 7961, Note_on_c, 0, 52, 0
1, 7967, Note_on_c, 1, 47, 0
1, 7967, Note_on_c, 1, 44, 0
1, 7968, Note_on_c, 1, 47, 69
1, 7968, Note_on_c, 1, 44, 69
1, 8015, Note_on_c, 1, 47, 0
1, 8015, Note_on_c, 1, 44, 0
1, 8016, Note_on_c, 0, 59, 84
1, 8016, Note_on_c, 1, 47, 69
1, 8016, Note_on_c, 1, 44, 69
1, 8061, Note_on_c, 0, 59, 0
1, 8063, Note_on_c, 1, 47, 0
1, 8063, Note_on_c, 1, 44, 0
1, 8064, Note_on_c, 0, 58, 84
1, 8087, Note_on_c, 0, 58, 0
1, 8088, Note_on_c, 0, 59, 84
1, 8111, Note_on_c, 0, 59, 0
1, 8112, Note_on_c, 0, 61, 84
1, 8112, Note_on_c, 1, 54, 69
1, 8112, Note_on_c, 1, 51, 69
1, 8135, Note_on_c, 0, 61, 0
1, 8136, Note_on_c, 0, 59, 84
1, 8159, Note_on_c, 0, 59, 0
1, 8159, Note_on_c, 1, 54, 0
1, 8159, Note_on_c, 1, 51, 0
1, 8160, Note_on_c, 0, 59, 84
1, 8160, Note_on_c, 1, 54, 69
1, 8160, Note_on_c, 1, 51, 69
1, 8170, Note_on_c, 0, 59, 0
1, 8184, Note_on_c, 0, 59, 84
1, 8194, Note_on_c, 0, 59, 0
1, 8207, Note_on_c, 1, 54, 0
1, 8207, Note_on_c, 1, 51, 0
1, 8208, Note_on_c, 0, 61, 84
1, 8208, Note_on_c, 1, 54, 69
1, 8208, Note_on_c, 1, 51, 69
1, 8232, Note_on_c, 0, 61, 0
1, 8232, Note_on_c, 0, 59, 84
1, 8255, Note_on_c, 0, 59, 0
1, 8255, Note_on_c, 1, 54, 0
1, 8255, Note_on_c, 1, 51, 0
1, 8256, Note_on_c, 0, 59, 84
1, 8256, Note_on_c, 1, 54, 69
1, 8256, Note_on_c, 1, 51, 69
1, 8279, Note_on_c, 0, 59, 0
1, 8280, Note_on_c, 0, 57, 84
1, 8303, Note_on_c, 0, 57, 0
1, 8303, Note_on_c, 1, 54, 0
1, 8303, Note_on_c, 1, 51, 0
1, 8304, Note_on_c, 0, 56, 84
1, 8304, Note_on_c, 1, 54, 69
1, 8304, Note_on_c, 1, 51, 69
1, 8327, Note_on_c, 0, 56, 0
1, 8328, Note_on_c, 0, 57, 84
1, 8351, Note_on_c, 0, 57, 0
1, 8351, Note_on_c, 1, 54, 0
1, 8351, Note_on_c, 1, 51, 0
1, 8352, Note_on_c, 0, 57, 84
1, 8400, Note_on_c, 1, 47, 61
1, 8400, Note_on_c, 1, 40, 61
1, 8441, Note_on_c, 0, 57, 0
1, 8447, Note_on_c, 1, 47, 0
1, 8447, Note_on_c, 1, 40, 0
1, 8448, Note_on_c, 0, 56, 84
1, 8448, Note_on_c, 1, 47, 61
1, 8448, Note_on_c, 1, 40, 61
1, 8460, Note_on_c, 0, 56, 0
1, 8460, Note_on_c, 0, 54, 84
1, 8472, Note_on_c, 0, 54, 0
1, 8472, Note_on_c, 0, 56, 84
1, 8495, Note_on_c, 1, 47, 0
1, 8495, Note_on_c, 1, 40, 0
1, 8496, Note_on_c, 1, 47, 61
1, 8496, Note_on_c, 1, 40, 61
1, 8537, Note_on_c, 0, 56, 0
1, 8543, Note_on_c, 1, 47, 0
1, 8543, Note_on_c, 1, 40, 0
1, 8544, Note_on_c, 1, 47, 61
1, 8544, Note_on_c, 1, 40, 61
1, 8591, Note_on_c, 1, 47, 0
1, 8591, Note_on_c, 1, 40, 0
1, 8592, Note_on_c, 0, 59, 84
1, 8592, Note_on_c, 1, 47, 61
1, 8592, Note_on_c, 1, 40, 61
1, 8637, Note_on_c, 0, 59, 0
1, 8639, Note_on_c, 1, 47, 0
1, 8639, Note_on_c, 1, 40, 0
1, 8640, Note_on_c, 0, 58, 84
1, 8663, Note_on_c, 0, 58, 0
1, 8664, Note_on_c, 0, 59, 84
1, 8687, Note_on_c, 0, 59, 0
1, 8688, Note_on_c, 0, 61, 84
1, 8688, Note_on_c, 1, 54, 69
1, 8688, Note_on_c, 1, 51, 69
1, 8688, Note_on_c, 1, 45, 69
1, 8711, Note_on_c, 0, 61, 0
1, 8712, Note_on_c, 0, 59, 84
1, 8735, Note_on_c, 0, 59, 0
1, 8735, Note_on_c, 1, 54, 0
1, 8735, Note_on_c, 1, 51, 0
1, 8735, Note_on_c, 1, 45, 0
1, 8736, Note_on_c, 0, 61, 84
1, 8736, Note_on_c, 1, 54, 69
1, 8736, Note_on_c, 1, 51, 69
1, 8736, Note_on_c, 1, 45, 69
1, 8759, Note_on_c, 0, 61, 0
1, 8760, Note_on_c, 0, 59, 84
1, 8783, Note_on_c, 0, 59, 0
1, 8783, Note_on_c, 1, 54, 0
1, 8783, Note_on_c, 1, 51, 0
1, 8783, Note_on_c, 1, 45, 0
1, 8784, Note_on_c, 0, 57, 84
1, 8784, Note_on_c, 1, 54, 69
1, 8784, Note_on_c, 1, 51, 69
1, 8784, Note_on_c, 1, 45, 69
1, 8807, Note_on_c, 0, 57, 0
1, 8808, Note_on_c, 0, 56, 84
1, 8831, Note_on_c, 0, 56, 0
1, 8831, Note_on_c, 1, 54, 0
1, 8831, Note_on_c, 1, 51, 0
1, 8831, Note_on_c, 1, 45, 0
1, 8832, Note_on_c, 0, 56, 84
1, 8832, Note_on_c, 1, 47, 69
1, 8832, Note_on_c, 1, 45, 69
1, 8855, Note_on_c, 0, 56, 0
1, 8856, Note_on_c, 0, 54, 84
1, 8879, Note_on_c, 0, 54, 0
1, 8879, Note_on_c, 1, 47, 0
1, 8879, Note_on_c, 1, 45, 0
1, 8880, Note_on_c, 0, 52, 84
1, 8880, Note_on_c, 1, 47, 69
1, 8880, Note_on_c, 1, 45, 69
1, 8903, Note_on_c, 0, 52, 0
1, 8904, Note_on_c, 0, 51, 84
1, 8927, Note_on_c, 0, 51, 0
1, 8927, Note_on_c, 1, 47, 0
1, 8927, Note_on_c, 1, 45, 0
1, 8928, Note_on_c, 0, 51, 84
1, 8976, Note_on_c, 1, 47, 69
1, 8976, Note_on_c, 1, 44, 69
1, 9023, Note_on_c, 1, 47, 0
1, 9023, Note_on_c, 1, 44, 0
1, 9024, Note_on_c, 0, 51, 0
1, 9024, Note_on_c, 0, 52, 75
1, 9024, Note_on_c, 1, 47, 69
1, 9024, Note_on_c, 1, 44, 69
1, 9069, Note_on_c, 0, 52, 0
1, 9071, Note_on_c, 1, 47, 0
1, 9071, Note_on_c, 1, 44, 0
1, 9072, Note_on_c, 0, 47, 92
1, 9072, Note_on_c, 1, 44, 72
1, 9119, Note_on_c, 1, 44, 0
1, 9120, Note_on_c, 0, 47, 0
1, 9120, Note_on_c, 0, 47, 94
1, 9120, Note_on_c, 1, 44, 75
1, 9167, Note_on_c, 1, 44, 0
1, 9168, Note_on_c, 0, 47, 0
1, 9168, Note_on_c, 0, 48, 95
1, 9168, Note_on_c, 1, 44, 78
1, 9215, Note_on_c, 1, 44, 0
1, 9216, Note_on_c, 0, 48, 0
1, 9216, Note_on_c, 0, 49, 97
1, 9264, Note_on_c, 1, 33, 84
1, 9311, Note_on_c, 1, 33, 0
1, 9312, Note_on_c, 1, 33, 84
1, 9346, Note_on_c, 0, 49, 0
1, 9348, Note_on_c, 0, 54, 88
1, 9359, Note_on_c, 1, 33, 0
1, 9360, Note_on_c, 0, 54, 0
1, 9360, Note_on_c, 0, 53, 89
1, 9360, Note_on_c, 1, 33, 89
1, 9394, Note_on_c, 0, 53, 0
1, 9396, Note_on_c, 0, 56, 93
1, 9407, Note_on_c, 1, 33, 0
1, 9408, Note_on_c, 0, 56, 0
1, 9408, Note_on_c, 0, 54, 95
1, 9408, Note_on_c, 1, 33, 95
1, 9442, Note_on_c, 0, 54, 0
1, 9444, Note_on_c, 0, 57, 99
1, 9455, Note_on_c, 1, 33, 0
1, 9456, Note_on_c, 0, 57, 0
1, 9456, Note_on_c, 0, 56, 100
1, 9456, Note_on_c, 1, 33, 100
1, 9490, Note_on_c, 0, 56, 0
1, 9492, Note_on_c, 0, 59, 104
1, 9503, Note_on_c, 1, 33, 0
1, 9504, Note_on_c, 0, 59, 0
1, 9504, Note_on_c, 0, 57, 84
1, 9504, Note_on_c, 1, 33, 106
1, 9538, Note_on_c, 0, 57, 0
1, 9540, Note_on_c, 0, 61, 82
1, 9552, Note_on_c, 0, 61, 0
1, 9552, Note_on_c, 0, 56, 81
1, 9586, Note_on_c, 0, 56, 0
1, 9588, Note_on_c, 0, 59, 79
1, 9593, Note_on_c, 1, 33, 0
1, 9600, Note_on_c, 0, 59, 0
1, 9600, Note_on_c, 0, 54, 79
1, 9634, Note_on_c, 0, 54, 0
1, 9636, Note_on_c, 0, 57, 77
1, 9648, Note_on_c, 0, 57, 0
1, 9648, Note_on_c, 0, 53, 76
1, 9682, Note_on_c, 0, 53, 0
1, 9684, Note_on_c, 0, 56, 74
1, 9696, Note_on_c, 0, 56, 0
1, 9696, Note_on_c, 0, 54, 74
1, 9730, Note_on_c, 0, 54, 0
1, 9732, Note_on_c, 0, 57, 72
1, 9744, Note_on_c, 0, 57, 0
1, 9744, Note_on_c, 0, 49, 71
1, 9778, Note_on_c, 0, 49, 0
1, 9780, Note_on_c, 0, 54, 69
1, 9792, Note_on_c, 0, 54, 0
1, 9792, Note_on_c, 0, 47, 84
1, 9840, Note_on_c, 1, 44, 106
1, 9885, Note_on_c, 1, 44, 0
1, 9888, Note_on_c, 1, 44, 75
1, 9922, Note_on_c, 0, 47, 0
1, 9924, Note_on_c, 0, 52, 88
1, 9933, Note_on_c, 1, 44, 0
1, 9936, Note_on_c, 0, 52, 0
1, 9936, Note_on_c, 0, 51, 89
1, 9936, Note_on_c, 1, 44, 77
1, 9970, Note_on_c, 0, 51, 0
1, 9972, Note_on_c, 0, 54, 93
1, 9981, Note_on_c, 1, 44, 0
1, 9984, Note_on_c, 0, 54, 0
1, 9984, Note_on_c, 0, 52, 95
1, 9984, Note_on_c, 1, 44, 79
1, 10018, Note_on_c, 0, 52, 0
1, 10020, Note_on_c, 0, 56, 99
1, 10029, Note_on_c, 1, 44, 0
1, 10032, Note_on_c, 0, 56, 0
1, 10032, Note_on_c, 0, 54, 100
1, 10032, Note_on_c, 1, 44, 81
1, 10066, Note_on_c, 0, 54, 0
1, 10068, Note_on_c, 0, 57, 104
1, 10077, Note_on_c, 1, 44, 0
1, 10080, Note_on_c, 0, 57, 0
1, 10080, Note_on_c, 0, 56, 84
1, 10080, Note_on_c, 1, 44, 84
1, 10114, Note_on_c, 0, 56, 0
1, 10116, Note_on_c, 0, 59, 82
1, 10128, Note_on_c, 0, 59, 0
1, 10128, Note_on_c, 0, 54, 82
1, 10162, Note_on_c, 0, 54, 0
1, 10164, Note_on_c, 0, 57, 80
1, 10169, Note_on_c, 1, 44, 0
1, 10176, Note_on_c, 0, 57, 0
1, 10176, Note_on_c, 0, 52, 80
1, 10210, Note_on_c, 0, 52, 0
1, 10212, Note_on_c, 0, 56, 78
1, 10224, Note_on_c, 0, 56, 0
1, 10224, Note_on_c, 0, 51, 78
1, 10258, Note_on_c, 0, 51, 0
1, 10260, Note_on_c, 0, 54, 76
1, 10272, Note_on_c, 0, 54, 0
1, 10272, Note_on_c, 0, 52, 76
1, 10306, Note_on_c, 0, 52, 0
1, 10308, Note_on_c, 0, 56, 75
1, 10320, Note_on_c, 0, 56, 0
1, 10320, Note_on_c, 0, 47, 74
1, 10354, Note_on_c, 0, 47, 0
1, 10356, Note_on_c, 0, 52, 73
1, 10368, Note_on_c, 0, 52, 0
1, 10368, Note_on_c, 0, 45, 72
1, 10416, Note_on_c, 1, 42, 75
1, 10457, Note_on_c, 0, 45, 0
1, 10461, Note_on_c, 1, 42, 0
1, 10464, Note_on_c, 0, 57, 75
1, 10464, Note_on_c, 0, 51, 75
1, 10512, Note_on_c, 1, 35, 75
1, 10557, Note_on_c, 1, 35, 0
1, 10560, Note_on_c, 0, 57, 0
1, 10560, Note_on_c, 0, 51, 0
1, 10560, Note_on_c, 0, 56, 75
1, 10560, Note_on_c, 0, 52, 75
1, 10608, Note_on_c, 1, 40, 75
1, 10649, Note_on_c, 0, 56, 0
1, 10649, Note_on_c, 0, 52, 0
1, 10653, Note_on_c, 1, 40, 0
1, 10656, Note_on_c, 0, 51, 75
1, 10656, Note_on_c, 0, 45, 75
1, 10701, Note_on_c, 0, 51, 0
1, 10701, Note_on_c, 0, 45, 0
1, 10704, Note_on_c, 1, 42, 75
1, 10749, Note_on_c, 1, 42, 0
1, 10752, Note_on_c, 0, 57, 75
1, 10752, Note_on_c, 0, 51, 75
1, 10800, Note_on_c, 1, 35, 75
1, 10845, Note_on_c, 1, 35, 0
1, 10848, Note_on_c, 0, 57, 0
1, 10848, Note_on_c, 0, 51, 0
1, 10848, Note_on_c, 0, 56, 75
1, 10848, Note_on_c, 0, 52, 75
1, 10896, Note_on_c, 1, 40, 75
1, 10937, Note_on_c, 0, 56, 0
1, 10937, Note_on_c, 0, 52, 0
1, 10941, Note_on_c, 1, 40, 0
1, 10944, Note_on_c, 1, 33, 75
1, 10992, Note_on_c, 0, 49, 75
1, 11012, Note_on_c, 0, 49, 0
1, 11033, Note_on_c, 1, 33, 0
1, 11040, Note_on_c, 0, 54, 75
1, 11060, Note_on_c, 0, 54, 0
1, 11088, Note_on_c, 0, 57, 75
1, 11108, Note_on_c, 0, 57, 0
1, 11136, Note_on_c, 0, 61, 75
1, 11156, Note_on_c, 0, 61, 0
1, 11184, Note_on_c, 0, 61, 75
1, 11204, Note_on_c, 0, 61, 0
1, 11232, Note_on_c, 0, 61, 75
1, 11280, Note_on_c, 1, 44, 75
1, 11325, Note_on_c, 1, 44, 0
1, 11328, Note_on_c, 1, 44, 75
1, 11351, Note_on_c, 0, 61, 0
1, 11352, Note_on_c, 0, 59, 75
1, 11373, Note_on_c, 1, 44, 0
1, 11375, Note_on_c, 0, 59, 0
1, 11376, Note_on_c, 0, 57, 75
1, 11376, Note_on_c, 1, 44, 75
1, 11399, Note_on_c, 0, 57, 0
1, 11400, Note_on_c, 0, 56, 75
1, 11421, Note_on_c, 1, 44, 0
1, 11423, Note_on_c, 0, 56, 0
1, 11424, Note_on_c, 0, 56, 75
1, 11424, Note_on_c, 1, 45, 75
1, 11447, Note_on_c, 0, 56, 0
1, 11448, Note_on_c, 0, 54, 75
1, 11469, Note_on_c, 1, 45, 0
1, 11471, Note_on_c, 0, 54, 0
1, 11472, Note_on_c, 0, 52, 75
1, 11472, Note_on_c, 1, 47, 75
1, 11495, Note_on_c, 0, 52, 0
1, 11496, Note_on_c, 0, 51, 75
1, 11517, Note_on_c, 1, 47, 0
1, 11519, Note_on_c, 0, 51, 0
1, 11520, Note_on_c, 0, 52, 75
1, 11520, Note_on_c, 1, 40, 75
1, 11565, Note_on_c, 0, 52, 0
1, 11568, Note_on_c, 0, 83, 61
1, 11588, Note_on_c, 0, 83, 0
1, 11609, Note_on_c, 1, 40, 0
1, 11616, Note_on_c, 0, 83, 61
1, 11616, Note_on_c, 1, 80, 61
1, 11636, Note_on_c, 0, 83, 0
1, 11655, Note_on_c, 1, 80, 0
1, 11664, Note_on_c, 0, 83, 61
1, 11684, Note_on_c, 0, 83, 0
1, 11712, Note_on_c, 0, 83, 61
1, 11712, Note_on_c, 1, 75, 61
1, 11735, Note_on_c, 0, 83, 0
1, 11736, Note_on_c, 0, 85, 61
1, 11751, Note_on_c, 1, 75, 0
1, 11759, Note_on_c, 0, 85, 0
1, 11760, Note_on_c, 0, 83, 61
1, 11783, Note_on_c, 0, 83, 0
1, 11784, Note_on_c, 0, 81, 61
1, 11807, Note_on_c, 0, 81, 0
1, 11808, Note_on_c, 0, 80, 61
1, 11808, Note_on_c, 1, 76, 61
1, 11853, Note_on_c, 0, 80, 0
1, 11853, Note_on_c, 1, 76, 0
1, 11856, Note_on_c, 0, 59, 75
1, 11901, Note_on_c, 0, 59, 0
1, 11904, Note_on_c, 0, 59, 75
1, 11927, Note_on_c, 0, 59, 0
1, 11928, Note_on_c, 0, 57, 75
1, 11951, Note_on_c, 0, 57, 0
1, 11952, Note_on_c, 0, 56, 75
1, 11975, Note_on_c, 0, 56, 0
1, 11976, Note_on_c, 0, 57, 75
1, 11999, Note_on_c, 0, 57, 0
1, 12000, Note_on_c, 0, 59, 75
1, 12000, Note_on_c, 1, 44, 75
1, 12023, Note_on_c, 0, 59, 0
1, 12024, Note_on_c, 0, 61, 75
1, 12047, Note_on_c, 0, 61, 0
1, 12048, Note_on_c, 0, 63, 75
1, 12071, Note_on_c, 0, 63, 0
1, 12072, Note_on_c, 0, 64, 75
1, 12089, Note_on_c, 1, 44, 0
1, 12095, Note_on_c, 0, 64, 0
1, 12096, Note_on_c, 0, 63, 75
1, 12096, Note_on_c, 1, 45, 75
1, 12119, Note_on_c, 0, 63, 0
1, 12120, Note_on_c, 0, 61, 75
1, 12143, Note_on_c, 0, 61, 0
1, 12144, Note_on_c, 0, 59, 75
1, 12167, Note_on_c, 0, 59, 0
1, 12168, Note_on_c, 0, 57, 75
1, 12185, Note_on_c, 1, 45, 0
1, 12191, Note_on_c, 0, 57, 0
1, 12192, Note_on_c, 0, 57, 75
1, 12192, Note_on_c, 1, 47, 75
1, 12215, Note_on_c, 0, 57, 0
1, 12216, Note_on_c, 0, 56, 75
1, 12239, Note_on_c, 0, 56, 0
1, 12240, Note_on_c, 0, 59, 75
1, 12263, Note_on_c, 0, 59, 0
1, 12264, Note_on_c, 0, 52, 75
1, 12281, Note_on_c, 1, 47, 0
1, 12287, Note_on_c, 0, 52, 0
1, 12288, Note_on_c, 0, 56, 75
1, 12288, Note_on_c, 1, 35, 75
1, 12311, Note_on_c, 0, 56, 0
1, 12312, Note_on_c, 0, 54, 75
1, 12335, Note_on_c, 0, 54, 0
1, 12336, Note_on_c, 0, 52, 75
1, 12359, Note_on_c, 0, 52, 0
1, 12360, Note_on_c, 0, 51, 75
1, 12377, Note_on_c, 1, 35, 0
1, 12383, Note_on_c, 0, 51, 0
1, 12384, Note_on_c, 0, 52, 75
1, 12384, Note_on_c, 1, 40, 75
1, 12429, Note_on_c, 0, 52, 0
1, 12432, Note_on_c, 0, 83, 61
1, 12473, Note_on_c, 1, 40, 0
1, 12477, Note_on_c, 0, 83, 0
1, 12480, Note_on_c, 0, 83, 61
1, 12480, Note_on_c, 1, 80, 61
1, 12480, Note_on_c, 1, 76, 61
1, 12525, Note_on_c, 0, 83, 0
1, 12528, Note_on_c, 0, 83, 61
1, 12573, Note_on_c, 0, 83, 0
1, 12576, Note_on_c, 0, 83, 61
1, 12576, Note_on_c, 1, 80, 0
1, 12576, Note_on_c, 1, 76, 0
1, 12576, Note_on_c, 1, 78, 61
1, 12576, Note_on_c, 1, 75, 61
1, 12610, Note_on_c, 0, 83, 0
1, 12612, Note_on_c, 0, 81, 61
1, 12618, Note_on_c, 0, 81, 0
1, 12618, Note_on_c, 0, 83, 61
1, 12624, Note_on_c, 0, 83, 0
1, 12624, Note_on_c, 0, 85, 61
1, 12639, Note_on_c, 0, 85, 0
1, 12640, Note_on_c, 0, 83, 61
1, 12655, Note_on_c, 0, 83, 0
1, 12656, Note_on_c, 0, 81, 61
1, 12665, Note_on_c, 1, 78, 0
1, 12665, Note_on_c, 1, 75, 0
1, 12671, Note_on_c, 0, 81, 0
1, 12672, Note_on_c, 0, 80, 61
1, 12672, Note_on_c, 1, 76, 61
1, 12717, Note_on_c, 0, 80, 0
1, 12717, Note_on_c, 1, 76, 0
1, 12720, Note_on_c, 0, 59, 75
1, 12730, Note_on_c, 0, 59, 0
1, 12744, Note_on_c, 0, 61, 75
1, 12754, Note_on_c, 0, 61, 0
1, 12768, Note_on_c, 0, 59, 75
1, 12778, Note_on_c, 0, 59, 0
1, 12792, Note_on_c, 0, 57, 75
1, 12802, Note_on_c, 0, 57, 0
1, 12816, Note_on_c, 0, 56, 75
1, 12826, Note_on_c, 0, 56, 0
1, 12840, Note_on_c, 0, 57, 75
1, 12850, Note_on_c, 0, 57, 0
1, 12864, Note_on_c, 0, 59, 75
1, 12864, Note_on_c, 1, 44, 75
1, 12874, Note_on_c, 0, 59, 0
1, 12888, Note_on_c, 0, 61, 75
1, 12898, Note_on_c, 0, 61, 0
1, 12912, Note_on_c, 0, 63, 75
1, 12922, Note_on_c, 0, 63, 0
1, 12936, Note_on_c, 0, 64, 75
1, 12946, Note_on_c, 0, 64, 0
1, 12953, Note_on_c, 1, 44, 0
1, 12960, Note_on_c, 0, 63, 75
1, 12960, Note_on_c, 1, 45, 75
1, 12984, Note_on_c, 0, 63, 0
1, 12984, Note_on_c, 0, 61, 75
1, 13007, Note_on_c, 0, 61, 0
1, 13008, Note_on_c, 0, 59, 75
1, 13018, Note_on_c, 0, 59, 0
1, 13032, Note_on_c, 0, 57, 75
1, 13042, Note_on_c, 0, 57, 0
1, 13049, Note_on_c, 1, 45, 0
1, 13056, Note_on_c, 0, 57, 75
1, 13056, Note_on_c, 1, 47, 75
1, 13080, Note_on_c, 0, 57, 0
1, 13080, Note_on_c, 0, 56, 75
1, 13103, Note_on_c, 0, 56, 0
1, 13104, Note_on_c, 0, 59, 75
1, 13114, Note_on_c, 0, 59, 0
1, 13128, Note_on_c, 0, 52, 75
1, 13138, Note_on_c, 0, 52, 0
1, 13145, Note_on_c, 1, 47, 0
1, 13152, Note_on_c, 0, 56, 75
1, 13152, Note_on_c, 1, 35, 75
1, 13176, Note_on_c, 0, 56, 0
1, 13176, Note_on_c, 0, 54, 75
1, 13199, Note_on_c, 0, 54, 0
1, 13200, Note_on_c, 0, 52, 75
1, 13210, Note_on_c, 0, 52, 0
1, 13224, Note_on_c, 0, 51, 75
1, 13234, Note_on_c, 0, 51, 0
1, 13241, Note_on_c, 1, 35, 0
1, 13248, Note_on_c, 0, 52, 75
1, 13248, Note_on_c, 1, 40, 75
1, 13293, Note_on_c, 1, 40, 0
1, 13296, Note_on_c, 1, 40, 75
1, 13337, Note_on_c, 0, 52, 0
1, 13341, Note_on_c, 1, 40, 0
1, 13344, Note_on_c, 1, 40, 75
1, 13389, Note_on_c, 1, 40, 0
1, 13392, Note_on_c, 0, 59, 75
1, 13392, Note_on_c, 0, 56, 75
1, 13392, Note_on_c, 1, 40, 75
1, 13426, Note_on_c, 0, 59, 0
1, 13426, Note_on_c, 0, 56, 0
1, 13428, Note_on_c, 0, 61, 75
1, 13428, Note_on_c, 0, 57, 75
1, 13437, Note_on_c, 1, 40, 0
1, 13440, Note_on_c, 0, 61, 0
1, 13440, Note_on_c, 0, 57, 0
1, 13440, Note_on_c, 0, 59, 75
1, 13440, Note_on_c, 0, 56, 75
1, 13440, Note_on_c, 1, 40, 75
1, 13460, Note_on_c, 0, 59, 0
1, 13460, Note_on_c, 0, 56, 0
1, 13485, Note_on_c, 1, 40, 0
1, 13488, Note_on_c, 0, 57, 75
1, 13488, Note_on_c, 0, 54, 75
1, 13488, Note_on_c, 1, 40, 75
1, 13508, Note_on_c, 0, 57, 0
1, 13508, Note_on_c, 0, 54, 0
1, 13533, Note_on_c, 1, 40, 0
1, 13536, Note_on_c, 0, 57, 75
1, 13536, Note_on_c, 0, 54, 75
1, 13536, Note_on_c, 1, 40, 75
1, 13581, Note_on_c, 1, 40, 0
1, 13584, Note_on_c, 1, 40, 75
1, 13629, Note_on_c, 1, 40, 0
1, 13632, Note_on_c, 0, 57, 0
1, 13632, Note_on_c, 0, 54, 0
1, 13632, Note_on_c, 0, 56, 75
1, 13632, Note_on_c, 0, 52, 75
1, 13632, Note_on_c, 1, 40, 75
1, 13677, Note_on_c, 0, 56, 0
1, 13677, Note_on_c, 0, 52, 0
1, 13677, Note_on_c, 1, 40, 0
1, 13680, Note_on_c, 0, 59, 75
1, 13680, Note_on_c, 0, 56, 75
1, 13680, Note_on_c, 1, 40, 75
1, 13714, Note_on_c, 0, 59, 0
1, 13714, Note_on_c, 0, 56, 0
1, 13716, Note_on_c, 0, 61, 75
1, 13716, Note_on_c, 0, 57, 75
1, 13725, Note_on_c, 1, 40, 0
1, 13728, Note_on_c, 0, 61, 0
1, 13728, Note_on_c, 0, 57, 0
1, 13728, Note_on_c, 0, 59, 75
1, 13728, Note_on_c, 0, 56, 75
1, 13728, Note_on_c, 1, 40, 75
1, 13748, Note_on_c, 0, 59, 0
1, 13748, Note_on_c, 0, 56, 0
1, 13773, Note_on_c, 1, 40, 0
1, 13776, Note_on_c, 0, 63, 75
1, 13776, Note_on_c, 0, 54, 75
1, 13776, Note_on_c, 1, 40, 75
1, 13796, Note_on_c, 0, 63, 0
1, 13796, Note_on_c, 0, 54, 0
1, 13821, Note_on_c, 1, 40, 0
1, 13824, Note_on_c, 0, 63, 75
1, 13824, Note_on_c, 0, 54, 75
1, 13824, Note_on_c, 1, 40, 75
1, 13920, Note_on_c, 0, 63, 0
1, 13920, Note_on_c, 0, 54, 0
1, 13920, Note_on_c, 0, 64, 75
1, 13920, Note_on_c, 0, 52, 75
1, 14009, Note_on_c, 0, 64, 0
1, 14009, Note_on_c, 0, 52, 0
1, 14089, Note_on_c, 1, 40, 0
1, 14112, Note_on_c, 1, 33, 64
1, 14160, Note_on_c, 0, 76, 64
1, 14180, Note_on_c, 0, 76, 0
1, 14201, Note_on_c, 1, 33, 0
1, 14208, Note_on_c, 0, 76, 64
1, 14208, Note_on_c, 1, 73, 64
1, 14228, Note_on_c, 0, 76, 0
1, 14247, Note_on_c, 1, 73, 0
1, 14256, Note_on_c, 0, 76, 64
1, 14276, Note_on_c, 0, 76, 0
1, 14304, Note_on_c, 0, 76, 64
1, 14304, Note_on_c, 1, 68, 64
1, 14327, Note_on_c, 0, 76, 0
1, 14328, Note_on_c, 0, 78, 64
1, 14343, Note_on_c, 1, 68, 0
1, 14351, Note_on_c, 0, 78, 0
1, 14352, Note_on_c, 0, 76, 64
1, 14375, Note_on_c, 0, 76, 0
1, 14376, Note_on_c, 0, 74, 64
1, 14399, Note_on_c, 0, 74, 0
1, 14400, Note_on_c, 1, 69, 64
1, 14439, Note_on_c, 1, 69, 0
1, 14448, Note_on_c, 0, 73, 64
1, 14468, Note_on_c, 0, 73, 0
1, 14496, Note_on_c, 0, 73, 64
1, 14516, Note_on_c, 0, 73, 0
1, 14544, Note_on_c, 0, 73, 64
1, 14564, Note_on_c, 0, 73, 0
1, 14592, Note_on_c, 0, 73, 64
1, 14592, Note_on_c, 1, 64, 64
1, 14615, Note_on_c, 0, 73, 0
1, 14616, Note_on_c, 0, 74, 64
1, 14631, Note_on_c, 1, 64, 0
1, 14639, Note_on_c, 0, 74, 0
1, 14640, Note_on_c, 0, 73, 64
1, 14663, Note_on_c, 0, 73, 0
1, 14664, Note_on_c, 0, 71, 64
1, 14687, Note_on_c, 0, 71, 0
1, 14688, Note_on_c, 1, 66, 64
1, 14727, Note_on_c, 1, 66, 0
1, 14736, Note_on_c, 0, 69, 64
1, 14756, Note_on_c, 0, 69, 0
1, 14784, Note_on_c, 0, 69, 64
1, 14804, Note_on_c, 0, 69, 0
1, 14832, Note_on_c, 0, 69, 64
1, 14852, Note_on_c, 0, 69, 0
1, 14880, Note_on_c, 0, 69, 64
1, 14880, Note_on_c, 1, 61, 64
1, 14903, Note_on_c, 0, 69, 0
1, 14904, Note_on_c, 0, 71, 64
1, 14919, Note_on_c, 1, 61, 0
1, 14927, Note_on_c, 0, 71, 0
1, 14928, Note_on_c, 0, 69, 64
1, 14951, Note_on_c, 0, 69, 0
1, 14952, Note_on_c, 0, 68, 64
1, 14975, Note_on_c, 0, 68, 0
1, 14976, Note_on_c, 0, 66, 64
1, 14976, Note_on_c, 1, 62, 64
1, 15015, Note_on_c, 1, 62, 0
1, 15021, Note_on_c, 0, 66, 0
1, 15024, Note_on_c, 0, 71, 64
1, 15069, Note_on_c, 0, 71, 0
1, 15072, Note_on_c, 0, 71, 64
1, 15095, Note_on_c, 0, 71, 0
1, 15096, Note_on_c, 0, 73, 64
1, 15119, Note_on_c, 0, 73, 0
1, 15120, Note_on_c, 0, 74, 64
1, 15143, Note_on_c, 0, 74, 0
1, 15144, Note_on_c, 0, 73, 64
1, 15167, Note_on_c, 0, 73, 0
1, 15168, Note_on_c, 0, 76, 75
1, 15168, Note_on_c, 1, 64, 64
1, 15191, Note_on_c, 0, 76, 0
1, 15192, Note_on_c, 0, 74, 73
1, 15215, Note_on_c, 0, 74, 0
1, 15216, Note_on_c, 0, 73, 72
1, 15239, Note_on_c, 0, 73, 0
1, 15240, Note_on_c, 0, 71, 70
1, 15257, Note_on_c, 1, 64, 0
1, 15263, Note_on_c, 0, 71, 0
1, 15264, Note_on_c, 0, 69, 69
1, 15264, Note_on_c, 1, 33, 64
1, 15309, Note_on_c, 0, 69, 0
1, 15312, Note_on_c, 0, 76, 69
1, 15353, Note_on_c, 1, 33, 0
1, 15357, Note_on_c, 0, 76, 0
1, 15360, Note_on_c, 0, 76, 69
1, 15360, Note_on_c, 1, 73, 69
1, 15360, Note_on_c, 1, 69, 69
1, 15405, Note_on_c, 0, 76, 0
1, 15408, Note_on_c, 0, 76, 69
1, 15453, Note_on_c, 0, 76, 0
1, 15456, Note_on_c, 0, 76, 69
1, 15456, Note_on_c, 1, 73, 0
1, 15456, Note_on_c, 1, 69, 0
1, 15456, Note_on_c, 1, 71, 69
1, 15456, Note_on_c, 1, 68, 69
1, 15490, Note_on_c, 0, 76, 0
1, 15492, Note_on_c, 0, 74, 69
1, 15498, Note_on_c, 0, 74, 0
1, 15498, Note_on_c, 0, 76, 69
1, 15504, Note_on_c, 0, 76, 0
1, 15504, Note_on_c, 0, 78, 69
1, 15519, Note_on_c, 0, 78, 0
1, 15520, Note_on_c, 0, 76, 69
1, 15535, Note_on_c, 0, 76, 0
1, 15536, Note_on_c, 0, 74, 69
1, 15545, Note_on_c, 1, 71, 0
1, 15545, Note_on_c, 1, 68, 0
1, 15551, Note_on_c, 0, 74, 0
1, 15552, Note_on_c, 0, 73, 69
1, 15597, Note_on_c, 0, 73, 0
1, 15600, Note_on_c, 0, 73, 69
1, 15645, Note_on_c, 0, 73, 0
1, 15648, Note_on_c, 0, 73, 69
1, 15648, Note_on_c, 1, 69, 69
1, 15648, Note_on_c, 1, 66, 69
1, 15693, Note_on_c, 0, 73, 0
1, 15696, Note_on_c, 0, 73, 69
1, 15741, Note_on_c, 0, 73, 0
1, 15744, Note_on_c, 0, 73, 69
1, 15744, Note_on_c, 1, 69, 0
1, 15744, Note_on_c, 1, 66, 0
1, 15744, Note_on_c, 1, 68, 69
1, 15744, Note_on_c, 1, 64, 69
1, 15778, Note_on_c, 0, 73, 0
1, 15780, Note_on_c, 0, 71, 69
1, 15786, Note_on_c, 0, 71, 0
1, 15786, Note_on_c, 0, 73, 69
1, 15792, Note_on_c, 0, 73, 0
1, 15792, Note_on_c, 0, 74, 69
1, 15807, Note_on_c, 0, 74, 0
1, 15808, Note_on_c, 0, 73, 69
1, 15823, Note_on_c, 0, 73, 0
1, 15824, Note_on_c, 0, 71, 69
1, 15833, Note_on_c, 1, 68, 0
1, 15833, Note_on_c, 1, 64, 0
1, 15839, Note_on_c, 0, 71, 0
1, 15840, Note_on_c, 0, 69, 69
1, 15885, Note_on_c, 0, 69, 0
1, 15888, Note_on_c, 0, 69, 69
1, 15933, Note_on_c, 0, 69, 0
1, 15936, Note_on_c, 0, 69, 69
1, 15936, Note_on_c, 1, 66, 69
1, 15936, Note_on_c, 1, 62, 69
1, 15981, Note_on_c, 0, 69, 0
1, 15984, Note_on_c, 0, 69, 69
1, 16029, Note_on_c, 0, 69, 0
1, 16032, Note_on_c, 0, 69, 69
1, 16032, Note_on_c, 1, 66, 0
1, 16032, Note_on_c, 1, 62, 0
1, 16032, Note_on_c, 1, 64, 69
1, 16032, Note_on_c, 1, 61, 69
1, 16066, Note_on_c, 0, 69, 0
1, 16068, Note_on_c, 0, 67, 69
1, 16074, Note_on_c, 0, 67, 0
1, 16074, Note_on_c, 0, 69, 69
1, 16080, Note_on_c, 0, 69, 0
1, 16080, Note_on_c, 0, 71, 69
1, 16095, Note_on_c, 0, 71, 0
1, 16096, Note_on_c, 0, 69, 69
1, 16111, Note_on_c, 0, 69, 0
1, 16112, Note_on_c, 0, 67, 69
1, 16121, Note_on_c, 1, 64, 0
1, 16121, Note_on_c, 1, 61, 0
1, 16127, Note_on_c, 0, 67, 0
1, 16128, Note_on_c, 0, 66, 69
1, 16128, Note_on_c, 1, 62, 69
1, 16173, Note_on_c, 0, 66, 0
1, 16176, Note_on_c, 0, 71, 69
1, 16217, Note_on_c, 1, 62, 0
1, 16221, Note_on_c, 0, 71, 0
1, 16224, Note_on_c, 0, 71, 69
1, 16247, Note_on_c, 0, 71, 0
1, 16248, Note_on_c, 0, 73, 69
1, 16271, Note_on_c, 0, 73, 0
1, 16272, Note_on_c, 0, 74, 69
1, 16295, Note_on_c, 0, 74, 0
1, 16296, Note_on_c, 0, 73, 69
1, 16319, Note_on_c, 0, 73, 0
1, 16320, Note_on_c, 0, 76, 69
1, 16320, Note_on_c, 1, 64, 69
1, 16343, Note_on_c, 0, 76, 0
1, 16344, Note_on_c, 0, 74, 69
1, 16367, Note_on_c, 0, 74, 0
1, 16368, Note_on_c, 0, 73, 69
1, 16391, Note_on_c, 0, 73, 0
1, 16392, Note_on_c, 0, 71, 69
1, 16409, Note_on_c, 1, 64, 0
1, 16415, Note_on_c, 0, 71, 0
1, 16416, Note_on_c, 0, 69, 69
1, 16416, Note_on_c, 1, 57, 69
1, 16461, Note_on_c, 0, 69, 0
1, 16461, Note_on_c, 1, 57, 0
1, 16464, Note_on_c, 0, 64, 84
1, 16464, Note_on_c, 1, 52, 84
1, 16484, Note_on_c, 0, 64, 0
1, 16509, Note_on_c, 1, 52, 0
1, 16512, Note_on_c, 0, 64, 84
1, 16512, Note_on_c, 1, 52, 84
1, 16532, Note_on_c, 0, 64, 0
1, 16557, Note_on_c, 1, 52, 0
1, 16560, Note_on_c, 0, 64, 84
1, 16560, Note_on_c, 1, 52, 84
1, 16580, Note_on_c, 0, 64, 0
1, 16605, Note_on_c, 1, 52, 0
1, 16608, Note_on_c, 0, 64, 84
1, 16608, Note_on_c, 1, 52, 84
1, 16631, Note_on_c, 0, 64, 0
1, 16631, Note_on_c, 1, 52, 0
1, 16632, Note_on_c, 0, 66, 84
1, 16632, Note_on_c, 1, 54, 84
1, 16655, Note_on_c, 0, 66, 0
1, 16655, Note_on_c, 1, 54, 0
1, 16656, Note_on_c, 0, 64, 84
1, 16656, Note_on_c, 1, 52, 84
1, 16679, Note_on_c, 0, 64, 0
1, 16679, Note_on_c, 1, 52, 0
1, 16680, Note_on_c, 0, 62, 84
1, 16680, Note_on_c, 1, 50, 84
1, 16703, Note_on_c, 0, 62, 0
1, 16703, Note_on_c, 1, 50, 0
1, 16704, Note_on_c, 0, 61, 84
1, 16704, Note_on_c, 1, 49, 84
1, 16724, Note_on_c, 0, 61, 0
1, 16749, Note_on_c, 1, 49, 0
1, 16752, Note_on_c, 0, 61, 84
1, 16752, Note_on_c, 1, 49, 84
1, 16772, Note_on_c, 0, 61, 0
1, 16797, Note_on_c, 1, 49, 0
1, 16800, Note_on_c, 0, 61, 84
1, 16800, Note_on_c, 1, 49, 84
1, 16820, Note_on_c, 0, 61, 0
1, 16845, Note_on_c, 1, 49, 0
1, 16848, Note_on_c, 0, 61, 84
1, 16848, Note_on_c, 1, 49, 84
1, 16868, Note_on_c, 0, 61, 0
1, 16893, Note_on_c, 1, 49, 0
1, 16896, Note_on_c, 0, 61, 84
1, 16896, Note_on_c, 1, 49, 84
1, 16919, Note_on_c, 0, 61, 0
1, 16919, Note_on_c, 1, 49, 0
1, 16920, Note_on_c, 0, 62, 84
1, 16920, Note_on_c, 1, 50, 84
1, 16943, Note_on_c, 0, 62, 0
1, 16943, Note_on_c, 1, 50, 0
1, 16944, Note_on_c, 0, 61, 84
1, 16944, Note_on_c, 1, 49, 84
1, 16967, Note_on_c, 0, 61, 0
1, 16967, Note_on_c, 1, 49, 0
1, 16968, Note_on_c, 0, 59, 84
1, 16968, Note_on_c, 1, 47, 84
1, 16991, Note_on_c, 0, 59, 0
1, 16991, Note_on_c, 1, 47, 0
1, 16992, Note_on_c, 0, 57, 75
1, 16992, Note_on_c, 1, 45, 75
1, 17037, Note_on_c, 1, 45, 0
1, 17040, Note_on_c, 1, 33, 75
1, 17060, Note_on_c, 1, 33, 0
1, 17088, Note_on_c, 1, 45, 75
1, 17108, Note_on_c, 1, 45, 0
1, 17136, Note_on_c, 1, 49, 75
1, 17156, Note_on_c, 1, 49, 0
1, 17184, Note_on_c, 1, 52, 75
1, 17204, Note_on_c, 1, 52, 0
1, 17232, Note_on_c, 1, 49, 75
1, 17252, Note_on_c, 1, 49, 0
1, 17257, Note_on_c, 0, 57, 0
1, 17280, Note_on_c, 0, 57, 75
1, 17288, Note_on_c, 0, 62, 75
1, 17296, Note_on_c, 0, 66, 75
1, 17328, Note_on_c, 1, 33, 75
1, 17348, Note_on_c, 1, 33, 0
1, 17376, Note_on_c, 1, 45, 75
1, 17396, Note_on_c, 1, 45, 0
1, 17424, Note_on_c, 1, 50, 75
1, 17444, Note_on_c, 1, 50, 0
1, 17472, Note_on_c, 1, 54, 75
1, 17492, Note_on_c, 1, 54, 0
1, 17520, Note_on_c, 1, 50, 75
1, 17540, Note_on_c, 1, 50, 0
1, 17553, Note_on_c, 0, 66, 0
1, 17553, Note_on_c, 0, 62, 0
1, 17553, Note_on_c, 0, 57, 0
1, 17568, Note_on_c, 0, 57, 75
1, 17580, Note_on_c, 0, 57, 0
1, 17580, Note_on_c, 0, 64, 75
1, 17616, Note_on_c, 1, 52, 69
1, 17616, Note_on_c, 1, 49, 69
1, 17657, Note_on_c, 0, 64, 0
1, 17663, Note_on_c, 1, 52, 0
1, 17663, Note_on_c, 1, 49, 0
1, 17664, Note_on_c, 0, 69, 75
1, 17664, Note_on_c, 0, 57, 64
1, 17712, Note_on_c, 1, 52, 69
1, 17712, Note_on_c, 1, 49, 69
1, 17759, Note_on_c, 1, 52, 0
1, 17759, Note_on_c, 1, 49, 0
1, 17760, Note_on_c, 1, 52, 69
1, 17760, Note_on_c, 1, 49, 69
1, 17794, Note_on_c, 0, 69, 0
1, 17796, Note_on_c, 0, 68, 75
1, 17807, Note_on_c, 1, 52, 0
1, 17807, Note_on_c, 1, 49, 0
1, 17808, Note_on_c, 0, 68, 0
1, 17808, Note_on_c, 0, 66, 75
1, 17808, Note_on_c, 1, 52, 69
1, 17808, Note_on_c, 1, 49, 69
1, 17841, Note_on_c, 0, 57, 0
1, 17842, Note_on_c, 0, 66, 0
1, 17844, Note_on_c, 0, 64, 75
1, 17855, Note_on_c, 1, 52, 0
1, 17855, Note_on_c, 1, 49, 0
1, 17856, Note_on_c, 0, 64, 0
1, 17856, Note_on_c, 0, 64, 75
1, 17856, Note_on_c, 0, 59, 64
1, 17904, Note_on_c, 1, 52, 69
1, 17904, Note_on_c, 1, 44, 69
1, 17951, Note_on_c, 1, 52, 0
1, 17951, Note_on_c, 1, 44, 0
1, 17952, Note_on_c, 1, 52, 69
1, 17952, Note_on_c, 1, 44, 69
1, 17997, Note_on_c, 0, 64, 0
1, 17999, Note_on_c, 1, 52, 0
1, 17999, Note_on_c, 1, 44, 0
1, 18000, Note_on_c, 0, 66, 75
1, 18000, Note_on_c, 1, 52, 69
1, 18000, Note_on_c, 1, 44, 69
1, 18023, Note_on_c, 0, 66, 0
1, 18024, Note_on_c, 0, 64, 75
1, 18033, Note_on_c, 0, 59, 0
1, 18047, Note_on_c, 0, 64, 0
1, 18047, Note_on_c, 1, 52, 0
1, 18047, Note_on_c, 1, 44, 0
1, 18048, Note_on_c, 0, 64, 75
1, 18048, Note_on_c, 1, 52, 69
1, 18048, Note_on_c, 1, 44, 69
1, 18071, Note_on_c, 0, 64, 0
1, 18072, Note_on_c, 0, 62, 75
1, 18095, Note_on_c, 0, 62, 0
1, 18095, Note_on_c, 1, 52, 0
1, 18095, Note_on_c, 1, 44, 0
1, 18096, Note_on_c, 0, 61, 75
1, 18096, Note_on_c, 1, 52, 69
1, 18096, Note_on_c, 1, 44, 69
1, 18119, Note_on_c, 0, 61, 0
1, 18120, Note_on_c, 0, 62, 75
1, 18143, Note_on_c, 0, 62, 0
1, 18143, Note_on_c, 1, 52, 0
1, 18143, Note_on_c, 1, 44, 0
1, 18144, Note_on_c, 0, 62, 75
1, 18144, Note_on_c, 0, 59, 75
1, 18192, Note_on_c, 1, 52, 69
1, 18192, Note_on_c, 1, 45, 69
1, 18239, Note_on_c, 1, 52, 0
1, 18239, Note_on_c, 1, 45, 0
1, 18240, Note_on_c, 0, 62, 0
1, 18240, Note_on_c, 0, 59, 0
1, 18240, Note_on_c, 0, 61, 75
1, 18240, Note_on_c, 0, 57, 75
1, 18240, Note_on_c, 1, 52, 69
1, 18240, Note_on_c, 1, 45, 69
1, 18287, Note_on_c, 1, 52, 0
1, 18287, Note_on_c, 1, 45, 0
1, 18288, Note_on_c, 1, 52, 69
1, 18288, Note_on_c, 1, 45, 69
1, 18329, Note_on_c, 0, 61, 0
1, 18329, Note_on_c, 0, 57, 0
1, 18335, Note_on_c, 1, 52, 0
1, 18335, Note_on_c, 1, 45, 0
1, 18336, Note_on_c, 1, 52, 69
1, 18336, Note_on_c, 1, 45, 69
1, 18383, Note_on_c, 1, 52, 0
1, 18383, Note_on_c, 1, 45, 0
1, 18384, Note_on_c, 1, 52, 69
1, 18384, Note_on_c, 1, 45, 69
1, 18408, Note_on_c, 0, 61, 75
1, 18431, Note_on_c, 0, 61, 0
1, 18431, Note_on_c, 1, 52, 0
1, 18431, Note_on_c, 1, 45, 0
1, 18432, Note_on_c, 0, 61, 75
1, 18455, Note_on_c, 0, 61, 0
1, 18456, Note_on_c, 0, 59, 75
1, 18479, Note_on_c, 0, 59, 0
1, 18480, Note_on_c, 0, 56, 75
1, 18480, Note_on_c, 1, 52, 69
1, 18480, Note_on_c, 1, 50, 69
1, 18503, Note_on_c, 0, 56, 0
1, 18504, Note_on_c, 0, 52, 75
1, 18527, Note_on_c, 0, 52, 0
1, 18527, Note_on_c, 1, 52, 0
1, 18527, Note_on_c, 1, 50, 0
1, 18528, Note_on_c, 0, 57, 75
1, 18528, Note_on_c, 1, 52, 69
1, 18528, Note_on_c, 1, 49, 69
1, 18575, Note_on_c, 1, 52, 0
1, 18575, Note_on_c, 1, 49, 0
1, 18576, Note_on_c, 1, 52, 69
1, 18576, Note_on_c, 1, 49, 69
1, 18623, Note_on_c, 1, 52, 0
1, 18623, Note_on_c, 1, 49, 0
1, 18624, Note_on_c, 1, 52, 69
1, 18624, Note_on_c, 1, 49, 69
1, 18671, Note_on_c, 1, 52, 0
1, 18671, Note_on_c, 1, 49, 0
1, 18672, Note_on_c, 1, 52, 69
1, 18672, Note_on_c, 1, 49, 69
1, 18691, Note_on_c, 0, 57, 0
1, 18696, Note_on_c, 0, 61, 75
1, 18719, Note_on_c, 0, 61, 0
1, 18719, Note_on_c, 1, 52, 0
1, 18719, Note_on_c, 1, 49, 0
1, 18720, Note_on_c, 0, 61, 75
1, 18743, Note_on_c, 0, 61, 0
1, 18744, Note_on_c, 0, 59, 75
1, 18767, Note_on_c, 0, 59, 0
1, 18768, Note_on_c, 0, 56, 75
1, 18768, Note_on_c, 1, 52, 69
1, 18768, Note_on_c, 1, 50, 69
1, 18791, Note_on_c, 0, 56, 0
1, 18792, Note_on_c, 0, 52, 75
1, 18815, Note_on_c, 0, 52, 0
1, 18815, Note_on_c, 1, 52, 0
1, 18815, Note_on_c, 1, 50, 0
1, 18816, Note_on_c, 0, 57, 75
1, 18816, Note_on_c, 1, 52, 69
1, 18816, Note_on_c, 1, 49, 69
1, 18863, Note_on_c, 1, 52, 0
1, 18863, Note_on_c, 1, 49, 0
1, 18864, Note_on_c, 1, 52, 69
1, 18864, Note_on_c, 1, 49, 69
1, 18911, Note_on_c, 1, 52, 0
1, 18911, Note_on_c, 1, 49, 0
1, 18912, Note_on_c, 1, 52, 69
1, 18912, Note_on_c, 1, 49, 69
1, 18959, Note_on_c, 1, 52, 0
1, 18959, Note_on_c, 1, 49, 0
1, 18960, Note_on_c, 1, 52, 69
1, 18960, Note_on_c, 1, 49, 69
1, 18979, Note_on_c, 0, 57, 0
1, 18984, Note_on_c, 0, 61, 75
1, 19007, Note_on_c, 0, 61, 0
1, 19007, Note_on_c, 1, 52, 0
1, 19007, Note_on_c, 1, 49, 0
1, 19008, Note_on_c, 0, 61, 75
1, 19008, Note_on_c, 1, 52, 69
1, 19008, Note_on_c, 1, 50, 69
1, 19031, Note_on_c, 0, 61, 0
1, 19032, Note_on_c, 0, 59, 75
1, 19053, Note_on_c, 1, 52, 0
1, 19053, Note_on_c, 1, 50, 0
1, 19055, Note_on_c, 0, 59, 0
1, 19056, Note_on_c, 0, 56, 75
1, 19079, Note_on_c, 0, 56, 0
1, 19080, Note_on_c, 0, 52, 75
1, 19103, Note_on_c, 0, 52, 0
1, 19104, Note_on_c, 0, 59, 75
1, 19104, Note_on_c, 1, 52, 69
1, 19104, Note_on_c, 1, 49, 69
1, 19128, Note_on_c, 0, 59, 0
1, 19128, Note_on_c, 0, 57, 75
1, 19149, Note_on_c, 1, 52, 0
1, 19149, Note_on_c, 1, 49, 0
1, 19151, Note_on_c, 0, 57, 0
1, 19152, Note_on_c, 0, 52, 75
1, 19162, Note_on_c, 0, 52, 0
1, 19176, Note_on_c, 0, 61, 75
1, 19186, Note_on_c, 0, 61, 0
1, 19200, Note_on_c, 0, 61, 75
1, 19200, Note_on_c, 1, 44, 75
1, 19224, Note_on_c, 0, 61, 0
1, 19224, Note_on_c, 0, 59, 75
1, 19245, Note_on_c, 1, 44, 0
1, 19247, Note_on_c, 0, 59, 0
1, 19248, Note_on_c, 0, 52, 75
1, 19258, Note_on_c, 0, 52, 0
1, 19272, Note_on_c, 0, 62, 75
1, 19282, Note_on_c, 0, 62, 0
1, 19296, Note_on_c, 0, 62, 75
1, 19296, Note_on_c, 1, 45, 75
1, 19320, Note_on_c, 0, 62, 0
1, 19320, Note_on_c, 0, 61, 75
1, 19341, Note_on_c, 1, 45, 0
1, 19343, Note_on_c, 0, 61, 0
1, 19344, Note_on_c, 0, 52, 75
1, 19354, Note_on_c, 0, 52, 0
1, 19368, Note_on_c, 0, 64, 75
1, 19378, Note_on_c, 0, 64, 0
1, 19392, Note_on_c, 0, 64, 75
1, 19392, Note_on_c, 1, 54, 75
1, 19416, Note_on_c, 0, 64, 0
1, 19416, Note_on_c, 0, 62, 79
1, 19437, Note_on_c, 1, 54, 0
1, 19439, Note_on_c, 0, 62, 0
1, 19440, Note_on_c, 0, 62, 83
1, 19440, Note_on_c, 1, 52, 85
1, 19464, Note_on_c, 0, 62, 0
1, 19464, Note_on_c, 0, 61, 88
1, 19485, Note_on_c, 1, 52, 0
1, 19487, Note_on_c, 0, 61, 0
1, 19488, Note_on_c, 0, 61, 92
1, 19488, Note_on_c, 1, 50, 95
1, 19512, Note_on_c, 0, 61, 0
1, 19512, Note_on_c, 0, 59, 97
1, 19533, Note_on_c, 1, 50, 0
1, 19535, Note_on_c, 0, 59, 0
1, 19536, Note_on_c, 0, 59, 101
1, 19536, Note_on_c, 1, 51, 106
1, 19560, Note_on_c, 0, 59, 0
1, 19560, Note_on_c, 0, 57, 106
1, 19581, Note_on_c, 1, 51, 0
1, 19583, Note_on_c, 0, 57, 0
1, 19584, Note_on_c, 0, 57, 103
1, 19584, Note_on_c, 1, 52, 101
1, 19607, Note_on_c, 0, 57, 0
1, 19608, Note_on_c, 0, 56, 101
1, 19623, Note_on_c, 1, 52, 0
1, 19631, Note_on_c, 0, 56, 0
1, 19632, Note_on_c, 0, 59, 98
1, 19655, Note_on_c, 0, 59, 0
1, 19656, Note_on_c, 0, 56, 96
1, 19679, Note_on_c, 0, 56, 0
1, 19680, Note_on_c, 0, 52, 93
1, 19680, Note_on_c, 1, 40, 92
1, 19719, Note_on_c, 0, 52, 0
1, 19769, Note_on_c, 1, 40, 0
1, 19848, Note_on_c, 0, 59, 84
1, 19871, Note_on_c, 0, 59, 0
1, 19872, Note_on_c, 0, 59, 84
1, 19920, Note_on_c, 1, 44, 69
1, 19961, Note_on_c, 0, 59, 0
1, 19967, Note_on_c, 1, 44, 0
1, 19968, Note_on_c, 0, 47, 84
1, 19968, Note_on_c, 1, 44, 69
1, 20015, Note_on_c, 1, 44, 0
1, 20016, Note_on_c, 1, 44, 69
1, 20057, Note_on_c, 0, 47, 0
1, 20063, Note_on_c, 1, 44, 0
1, 20064, Note_on_c, 0, 52, 84
1, 20064, Note_on_c, 1, 44, 69
1, 20111, Note_on_c, 1, 44, 0
1, 20112, Note_on_c, 1, 44, 69
1, 20131, Note_on_c, 0, 52, 0
1, 20136, Note_on_c, 0, 56, 84
1, 20159, Note_on_c, 0, 56, 0
1, 20159, Note_on_c, 1, 44, 0
1, 20160, Note_on_c, 0, 53, 84
1, 20208, Note_on_c, 1, 33, 69
1, 20255, Note_on_c, 1, 33, 0
1, 20256, Note_on_c, 0, 53, 0
1, 20256, Note_on_c, 0, 54, 84
1, 20256, Note_on_c, 1, 33, 69
1, 20303, Note_on_c, 1, 33, 0
1, 20304, Note_on_c, 1, 33, 69
1, 20351, Note_on_c, 1, 33, 0
1, 20352, Note_on_c, 1, 33, 69
1, 20399, Note_on_c, 1, 33, 0
1, 20400, Note_on_c, 1, 33, 69
1, 20419, Note_on_c, 0, 54, 0
1, 20424, Note_on_c, 0, 61, 84
1, 20447, Note_on_c, 0, 61, 0
1, 20447, Note_on_c, 1, 33, 0
1, 20448, Note_on_c, 0, 61, 84
1, 20496, Note_on_c, 1, 34, 69
1, 20537, Note_on_c, 0, 61, 0
1, 20543, Note_on_c, 1, 34, 0
1, 20544, Note_on_c, 0, 49, 84
1, 20544, Note_on_c, 1, 34, 69
1, 20591, Note_on_c, 1, 34, 0
1, 20592, Note_on_c, 1, 34, 69
1, 20633, Note_on_c, 0, 49, 0
1, 20639, Note_on_c, 1, 34, 0
1, 20640, Note_on_c, 0, 54, 84
1, 20640, Note_on_c, 1, 34, 69
1, 20687, Note_on_c, 1, 34, 0
1, 20688, Note_on_c, 1, 34, 69
1, 20729, Note_on_c, 0, 54, 0
1, 20735, Note_on_c, 1, 34, 0
1, 20736, Note_on_c, 0, 52, 84
1, 20784, Note_on_c, 1, 35, 69
1, 20831, Note_on_c, 1, 35, 0
1, 20832, Note_on_c, 0, 52, 0
1, 20832, Note_on_c, 0, 51, 84
1, 20832, Note_on_c, 1, 35, 69
1, 20879, Note_on_c, 1, 35, 0
1, 20880, Note_on_c, 1, 35, 69
1, 20921, Note_on_c, 0, 51, 0
1, 20927, Note_on_c, 1, 35, 0
1, 20928, Note_on_c, 1, 35, 69
1, 20976, Note_on_c, 0, 59, 84
1, 21021, Note_on_c, 0, 59, 0
1, 21022, Note_on_c, 1, 35, 0
1, 21024, Note_on_c, 0, 58, 84
1, 21036, Note_on_c, 0, 58, 0
1, 21036, Note_on_c, 0, 59, 84
1, 21048, Note_on_c, 0, 59, 0
1, 21048, Note_on_c, 0, 61, 84
1, 21060, Note_on_c, 0, 61, 0
1, 21060, Note_on_c, 0, 59, 84
1, 21072, Note_on_c, 1, 54, 69
1, 21072, Note_on_c, 1, 51, 69
1, 21119, Note_on_c, 1, 54, 0
1, 21119, Note_on_c, 1, 51, 0
1, 21120, Note_on_c, 1, 54, 69
1, 21120, Note_on_c, 1, 51, 69
1, 21165, Note_on_c, 0, 59, 0
1, 21167, Note_on_c, 1, 54, 0
1, 21167, Note_on_c, 1, 51, 0
1, 21168, Note_on_c, 0, 61, 84
1, 21168, Note_on_c, 1, 54, 69
1, 21168, Note_on_c, 1, 51, 69
1, 21191, Note_on_c, 0, 61, 0
1, 21192, Note_on_c, 0, 59, 84
1, 21215, Note_on_c, 0, 59, 0
1, 21215, Note_on_c, 1, 54, 0
1, 21215, Note_on_c, 1, 51, 0
1, 21216, Note_on_c, 0, 59, 84
1, 21216, Note_on_c, 1, 54, 69
1, 21216, Note_on_c, 1, 51, 69
1, 21239, Note_on_c, 0, 59, 0
1, 21240, Note_on_c, 0, 57, 84
1, 21263, Note_on_c, 0, 57, 0
1, 21263, Note_on_c, 1, 54, 0
1, 21263, Note_on_c, 1, 51, 0
1, 21264, Note_on_c, 0, 56, 84
1, 21264, Note_on_c, 1, 54, 69
1, 21264, Note_on_c, 1, 51, 69
1, 21287, Note_on_c, 0, 56, 0
1, 21288, Note_on_c, 0, 57, 84
1, 21311, Note_on_c, 0, 57, 0
1, 21311, Note_on_c, 1, 54, 0
1, 21311, Note_on_c, 1, 51, 0
1, 21312, Note_on_c, 0, 57, 84
1, 21360, Note_on_c, 1, 47, 61
1, 21360, Note_on_c, 1, 40, 61
1, 21401, Note_on_c, 0, 57, 0
1, 21407, Note_on_c, 1, 47, 0
1, 21407, Note_on_c, 1, 40, 0
1, 21408, Note_on_c, 0, 56, 84
1, 21408, Note_on_c, 1, 47, 61
1, 21408, Note_on_c, 1, 40, 61
1, 21420, Note_on_c, 0, 56, 0
1, 21420, Note_on_c, 0, 54, 84
1, 21432, Note_on_c, 0, 54, 0
1, 21432, Note_on_c, 0, 56, 84
1, 21455, Note_on_c, 1, 47, 0
1, 21455, Note_on_c, 1, 40, 0
1, 21456, Note_on_c, 1, 47, 61
1, 21456, Note_on_c, 1, 40, 61
1, 21497, Note_on_c, 0, 56, 0
1, 21503, Note_on_c, 1, 47, 0
1, 21503, Note_on_c, 1, 40, 0
1, 21504, Note_on_c, 1, 47, 61
1, 21504, Note_on_c, 1, 40, 61
1, 21551, Note_on_c, 1, 47, 0
1, 21551, Note_on_c, 1, 40, 0
1, 21552, Note_on_c, 0, 59, 84
1, 21552, Note_on_c, 1, 47, 61
1, 21552, Note_on_c, 1, 40, 61
1, 21597, Note_on_c, 0, 59, 0
1, 21599, Note_on_c, 1, 47, 0
1, 21599, Note_on_c, 1, 40, 0
1, 21600, Note_on_c, 0, 58, 84
1, 21612, Note_on_c, 0, 58, 0
1, 21612, Note_on_c, 0, 59, 84
1, 21624, Note_on_c, 0, 59, 0
1, 21624, Note_on_c, 0, 61, 84
1, 21636, Note_on_c, 0, 61, 0
1, 21636, Note_on_c, 0, 59, 84
1, 21648, Note_on_c, 1, 54, 69
1, 21648, Note_on_c, 1, 51, 69
1, 21648, Note_on_c, 1, 45, 69
1, 21695, Note_on_c, 1, 54, 0
1, 21695, Note_on_c, 1, 51, 0
1, 21695, Note_on_c, 1, 45, 0
1, 21696, Note_on_c, 1, 54, 69
1, 21696, Note_on_c, 1, 51, 69
1, 21696, Note_on_c, 1, 45, 69
1, 21741, Note_on_c, 0, 59, 0
1, 21743, Note_on_c, 1, 54, 0
1, 21743, Note_on_c, 1, 51, 0
1, 21743, Note_on_c, 1, 45, 0
1, 21744, Note_on_c, 0, 57, 84
1, 21744, Note_on_c, 1, 54, 69
1, 21744, Note_on_c, 1, 51, 69
1, 21744, Note_on_c, 1, 45, 69
1, 21767, Note_on_c, 0, 57, 0
1, 21768, Note_on_c, 0, 56, 84
1, 21791, Note_on_c, 0, 56, 0
1, 21791, Note_on_c, 1, 54, 0
1, 21791, Note_on_c, 1, 51, 0
1, 21791, Note_on_c, 1, 45, 0
1, 21792, Note_on_c, 0, 56, 84
1, 21792, Note_on_c, 1, 47, 69
1, 21792, Note_on_c, 1, 45, 69
1, 21815, Note_on_c, 0, 56, 0
1, 21816, Note_on_c, 0, 54, 84
1, 21839, Note_on_c, 0, 54, 0
1, 21839, Note_on_c, 1, 47, 0
1, 21839, Note_on_c, 1, 45, 0
1, 21840, Note_on_c, 0, 52, 84
1, 21840, Note_on_c, 1, 47, 69
1, 21840, Note_on_c, 1, 45, 69
1, 21863, Note_on_c, 0, 52, 0
1, 21864, Note_on_c, 0, 51, 84
1, 21887, Note_on_c, 0, 51, 0
1, 21887, Note_on_c, 1, 47, 0
1, 21887, Note_on_c, 1, 45, 0
1, 21888, Note_on_c, 0, 51, 84
1, 21936, Note_on_c, 1, 47, 69
1, 21936, Note_on_c, 1, 44, 69
1, 21983, Note_on_c, 1, 47, 0
1, 21983, Note_on_c, 1, 44, 0
1, 21984, Note_on_c, 0, 51, 0
1, 21984, Note_on_c, 0, 52, 84
1, 21984, Note_on_c, 1, 47, 69
1, 21984, Note_on_c, 1, 44, 69
1, 22031, Note_on_c, 1, 47, 0
1, 22031, Note_on_c, 1, 44, 0
1, 22032, Note_on_c, 1, 47, 69
1, 22032, Note_on_c, 1, 44, 69
1, 22073, Note_on_c, 0, 52, 0
1, 22079, Note_on_c, 1, 47, 0
1, 22079, Note_on_c, 1, 44, 0
1, 22080, Note_on_c, 1, 47, 69
1, 22080, Note_on_c, 1, 44, 69
1, 22127, Note_on_c, 1, 47, 0
1, 22127, Note_on_c, 1, 44, 0
1, 22128, Note_on_c, 0, 59, 84
1, 22128, Note_on_c, 1, 47, 69
1, 22128, Note_on_c, 1, 44, 69
1, 22173, Note_on_c, 0, 59, 0
1, 22175, Note_on_c, 1, 47, 0
1, 22175, Note_on_c, 1, 44, 0
1, 22176, Note_on_c, 0, 58, 84
1, 22199, Note_on_c, 0, 58, 0
1, 22200, Note_on_c, 0, 59, 84
1, 22223, Note_on_c, 0, 59, 0
1, 22224, Note_on_c, 0, 61, 84
1, 22224, Note_on_c, 1, 54, 69
1, 22224, Note_on_c, 1, 51, 69
1, 22247, Note_on_c, 0, 61, 0
1, 22248, Note_on_c, 0, 59, 84
1, 22271, Note_on_c, 0, 59, 0
1, 22271, Note_on_c, 1, 54, 0
1, 22271, Note_on_c, 1, 51, 0
1, 22272, Note_on_c, 0, 59, 84
1, 22272, Note_on_c, 1, 54, 69
1, 22272, Note_on_c, 1, 51, 69
1, 22282, Note_on_c, 0, 59, 0
1, 22296, Note_on_c, 0, 59, 84
1, 22306, Note_on_c, 0, 59, 0
1, 22319, Note_on_c, 1, 54, 0
1, 22319, Note_on_c, 1, 51, 0
1, 22320, Note_on_c, 0, 61, 84
1, 22320, Note_on_c, 1, 54, 69
1, 22320, Note_on_c, 1, 51, 69
1, 22344, Note_on_c, 0, 61, 0
1, 22344, Note_on_c, 0, 59, 84
1, 22367, Note_on_c, 0, 59, 0
1, 22367, Note_on_c, 1, 54, 0
1, 22367, Note_on_c, 1, 51, 0
1, 22368, Note_on_c, 0, 59, 84
1, 22368, Note_on_c, 1, 54, 69
1, 22368, Note_on_c, 1, 51, 69
1, 22391, Note_on_c, 0, 59, 0
1, 22392, Note_on_c, 0, 57, 84
1, 22415, Note_on_c, 0, 57, 0
1, 22415, Note_on_c, 1, 54, 0
1, 22415, Note_on_c, 1, 51, 0
1, 22416, Note_on_c, 0, 56, 84
1, 22416, Note_on_c, 1, 54, 69
1, 22416, Note_on_c, 1, 51, 69
1, 22439, Note_on_c, 0, 56, 0
1, 22440, Note_on_c, 0, 57, 84
1, 22463, Note_on_c, 0, 57, 0
1, 22463, Note_on_c, 1, 54, 0
1, 22463, Note_on_c, 1, 51, 0
1, 22464, Note_on_c, 0, 57, 84
1, 22512, Note_on_c, 1, 47, 61
1, 22512, Note_on_c, 1, 40, 61
1, 22553, Note_on_c, 0, 57, 0
1, 22559, Note_on_c, 1, 47, 0
1, 22559, Note_on_c, 1, 40, 0
1, 22560, Note_on_c, 0, 56, 84
1, 22560, Note_on_c, 1, 47, 61
1, 22560, Note_on_c, 1, 40, 61
1, 22572, Note_on_c, 0, 56, 0
1, 22572, Note_on_c, 0, 54, 84
1, 22584, Note_on_c, 0, 54, 0
1, 22584, Note_on_c, 0, 56, 84
1, 22607, Note_on_c, 1, 47, 0
1, 22607, Note_on_c, 1, 40, 0
1, 22608, Note_on_c, 1, 47, 61
1, 22608, Note_on_c, 1, 40, 61
1, 22649, Note_on_c, 0, 56, 0
1, 22655, Note_on_c, 1, 47, 0
1, 22655, Note_on_c, 1, 40, 0
1, 22656, Note_on_c, 1, 47, 61
1, 22656, Note_on_c, 1, 40, 61
1, 22703, Note_on_c, 1, 47, 0
1, 22703, Note_on_c, 1, 40, 0
1, 22704, Note_on_c, 0, 59, 84
1, 22704, Note_on_c, 1, 47, 61
1, 22704, Note_on_c, 1, 40, 61
1, 22749, Note_on_c, 0, 59, 0
1, 22751, Note_on_c, 1, 47, 0
1, 22751, Note_on_c, 1, 40, 0
1, 22752, Note_on_c, 0, 58, 84
1, 22775, Note_on_c, 0, 58, 0
1, 22776, Note_on_c, 0, 59, 84
1, 22799, Note_on_c, 0, 59, 0
1, 22800, Note_on_c, 0, 61, 84
1, 22800, Note_on_c, 1, 54, 69
1, 22800, Note_on_c, 1, 51, 69
1, 22800, Note_on_c, 1, 45, 69
1, 22823, Note_on_c, 0, 61, 0
1, 22824, Note_on_c, 0, 59, 84
1, 22847, Note_on_c, 0, 59, 0
1, 22847, Note_on_c, 1, 54, 0
1, 22847, Note_on_c, 1, 51, 0
1, 22847, Note_on_c, 1, 45, 0
1, 22848, Note_on_c, 0, 61, 84
1, 22848, Note_on_c, 1, 54, 69
1, 22848, Note_on_c, 1, 51, 69
1, 22848, Note_on_c, 1, 45, 69
1, 22871, Note_on_c, 0, 61, 0
1, 22872, Note_on_c, 0, 59, 84
1, 22895, Note_on_c, 0, 59, 0
1, 22895, Note_on_c, 1, 54, 0
1, 22895, Note_on_c, 1, 51, 0
1, 22895, Note_on_c, 1, 45, 0
1, 22896, Note_on_c, 0, 57, 84
1, 22896, Note_on_c, 1, 54, 69
1, 22896, Note_on_c, 1, 51, 69
1, 22896, Note_on_c, 1, 45, 69
1, 22919, Note_on_c, 0, 57, 0
1, 22920, Note_on_c, 0, 56, 84
1, 22943, Note_on_c, 0, 56, 0
1, 22943, Note_on_c, 1, 54, 0
1, 22943, Note_on_c, 1, 51, 0
1, 22943, Note_on_c, 1, 45, 0
1, 22944, Note_on_c, 0, 56, 84
1, 22944, Note_on_c, 1, 47, 69
1, 22944, Note_on_c, 1, 45, 69
1, 22967, Note_on_c, 0, 56, 0
1, 22968, Note_on_c, 0, 54, 84
1, 22991, Note_on_c, 0, 54, 0
1, 22991, Note_on_c, 1, 47, 0
1, 22991, Note_on_c, 1, 45, 0
1, 22992, Note_on_c, 0, 52, 84
1, 22992, Note_on_c, 1, 47, 69
1, 22992, Note_on_c, 1, 45, 69
1, 23015, Note_on_c, 0, 52, 0
1, 23016, Note_on_c, 0, 51, 84
1, 23039, Note_on_c, 0, 51, 0
1, 23039, Note_on_c, 1, 47, 0
1, 23039, Note_on_c, 1, 45, 0
1, 23040, Note_on_c, 0, 51, 84
1, 23088, Note_on_c, 1, 47, 69
1, 23088, Note_on_c, 1, 44, 69
1, 23135, Note_on_c, 1, 47, 0
1, 23135, Note_on_c, 1, 44, 0
1, 23136, Note_on_c, 0, 51, 0
1, 23136, Note_on_c, 0, 52, 75
1, 23136, Note_on_c, 1, 47, 69
1, 23136, Note_on_c, 1, 44, 69
1, 23181, Note_on_c, 0, 52, 0
1, 23183, Note_on_c, 1, 47, 0
1, 23183, Note_on_c, 1, 44, 0
1, 23184, Note_on_c, 0, 47, 92
1, 23184, Note_on_c, 1, 44, 72
1, 23231, Note_on_c, 1, 44, 0
1, 23232, Note_on_c, 0, 47, 0
1, 23232, Note_on_c, 0, 47, 94
1, 23232, Note_on_c, 1, 44, 75
1, 23279, Note_on_c, 1, 44, 0
1, 23280, Note_on_c, 0, 47, 0
1, 23280, Note_on_c, 0, 48, 95
1, 23280, Note_on_c, 1, 44, 78
1, 23327, Note_on_c, 1, 44, 0
1, 23328, Note_on_c, 0, 48, 0
1, 23328, Note_on_c, 0, 49, 97
1, 23376, Note_on_c, 1, 33, 84
1, 23423, Note_on_c, 1, 33, 0
1, 23424, Note_on_c, 1, 33, 84
1, 23458, Note_on_c, 0, 49, 0
1, 23460, Note_on_c, 0, 54, 88
1, 23471, Note_on_c, 1, 33, 0
1, 23472, Note_on_c, 0, 54, 0
1, 23472, Note_on_c, 0, 53, 89
1, 23472, Note_on_c, 1, 33, 89
1, 23506, Note_on_c, 0, 53, 0
1, 23508, Note_on_c, 0, 56, 93
1, 23519, Note_on_c, 1, 33, 0
1, 23520, Note_on_c, 0, 56, 0
1, 23520, Note_on_c, 0, 54, 95
1, 23520, Note_on_c, 1, 33, 95
1, 23554, Note_on_c, 0, 54, 0
1, 23556, Note_on_c, 0, 57, 99
1, 23567, Note_on_c, 1, 33, 0
1, 23568, Note_on_c, 0, 57, 0
1, 23568, Note_on_c, 0, 56, 100
1, 23568, Note_on_c, 1, 33, 100
1, 23602, Note_on_c, 0, 56, 0
1, 23604, Note_on_c, 0, 59, 104
1, 23615, Note_on_c, 1, 33, 0
1, 23616, Note_on_c, 0, 59, 0
1, 23616, Note_on_c, 0, 57, 84
1, 23616, Note_on_c, 1, 33, 106
1, 23650, Note_on_c, 0, 57, 0
1, 23652, Note_on_c, 0, 61, 82
1, 23664, Note_on_c, 0, 61, 0
1, 23664, Note_on_c, 0, 56, 81
1, 23698, Note_on_c, 0, 56, 0
1, 23700, Note_on_c, 0, 59, 79
1, 23705, Note_on_c, 1, 33, 0
1, 23712, Note_on_c, 0, 59, 0
1, 23712, Note_on_c, 0, 54, 79
1, 23746, Note_on_c, 0, 54, 0
1, 23748, Note_on_c, 0, 57, 77
1, 23760, Note_on_c, 0, 57, 0
1, 23760, Note_on_c, 0, 53, 76
1, 23794, Note_on_c, 0, 53, 0
1, 23796, Note_on_c, 0, 56, 74
1, 23808, Note_on_c, 0, 56, 0
1, 23808, Note_on_c, 0, 54, 74
1, 23842, Note_on_c, 0, 54, 0
1, 23844, Note_on_c, 0, 57, 72
1, 23856, Note_on_c, 0, 57, 0
1, 23856, Note_on_c, 0, 49, 71
1, 23890, Note_on_c, 0, 49, 0
1, 23892, Note_on_c, 0, 54, 69
1, 23904, Note_on_c, 0, 54, 0
1, 23904, Note_on_c, 0, 47, 84
1, 23952, Note_on_c, 1, 44, 106
1, 23997, Note_on_c, 1, 44, 0
1, 24000, Note_on_c, 1, 44, 75
1, 24034, Note_on_c, 0, 47, 0
1, 24036, Note_on_c, 0, 52, 88
1, 24045, Note_on_c, 1, 44, 0
1, 24048, Note_on_c, 0, 52, 0
1, 24048, Note_on_c, 0, 51, 89
1, 24048, Note_on_c, 1, 44, 77
1, 24082, Note_on_c, 0, 51, 0
1, 24084, Note_on_c, 0, 54, 93
1, 24093, Note_on_c, 1, 44, 0
1, 24096, Note_on_c, 0, 54, 0
1, 24096, Note_on_c, 0, 52, 95
1, 24096, Note_on_c, 1, 44, 79
1, 24130, Note_on_c, 0, 52, 0
1, 24132, Note_on_c, 0, 56, 99
1, 24141, Note_on_c, 1, 44, 0
1, 24144, Note_on_c, 0, 56, 0
1, 24144, Note_on_c, 0, 54, 100
1, 24144, Note_on_c, 1, 44, 81
1, 24178, Note_on_c, 0, 54, 0
1, 24180, Note_on_c, 0, 57, 104
1, 24189, Note_on_c, 1, 44, 0
1, 24192, Note_on_c, 0, 57, 0
1, 24192, Note_on_c, 0, 56, 84
1, 24192, Note_on_c, 1, 44, 84
1, 24226, Note_on_c, 0, 56, 0
1, 24228, Note_on_c, 0, 59, 82
1, 24240, Note_on_c, 0, 59, 0
1, 24240, Note_on_c, 0, 54, 82
1, 24274, Note_on_c, 0, 54, 0
1, 24276, Note_on_c, 0, 57, 80
1, 24281, Note_on_c, 1, 44, 0
1, 24288, Note_on_c, 0, 57, 0
1, 24288, Note_on_c, 0, 52, 80
1, 24322, Note_on_c, 0, 52, 0
1, 24324, Note_on_c, 0, 56, 78
1, 24336, Note_on_c, 0, 56, 0
1, 24336, Note_on_c, 0, 51, 78
1, 24370, Note_on_c, 0, 51, 0
1, 24372, Note_on_c, 0, 54, 76
1, 24384, Note_on_c, 0, 54, 0
1, 24384, Note_on_c, 0, 52, 76
1, 24418, Note_on_c, 0, 52, 0
1, 24420, Note_on_c, 0, 56, 75
1, 24432, Note_on_c, 0, 56, 0
1, 24432, Note_on_c, 0, 47, 74
1, 24466, Note_on_c, 0, 47, 0
1, 24468, Note_on_c, 0, 52, 73
1, 24480, Note_on_c, 0, 52, 0
1, 24480, Note_on_c, 0, 45, 72
1, 24528, Note_on_c, 1, 42, 75
1, 24569, Note_on_c, 0, 45, 0
1, 24573, Note_on_c, 1, 42, 0
1, 24576, Note_on_c, 0, 57, 75
1, 24576, Note_on_c, 0, 51, 75
1, 24624, Note_on_c, 1, 35, 75
1, 24669, Note_on_c, 1, 35, 0
1, 24672, Note_on_c, 0, 57, 0
1, 24672, Note_on_c, 0, 51, 0
1, 24672, Note_on_c, 0, 56, 75
1, 24672, Note_on_c, 0, 52, 75
1, 24720, Note_on_c, 1, 40, 75
1, 24761, Note_on_c, 0, 56, 0
1, 24761, Note_on_c, 0, 52, 0
1, 24765, Note_on_c, 1, 40, 0
1, 24768, Note_on_c, 0, 51, 75
1, 24768, Note_on_c, 0, 45, 75
1, 24813, Note_on_c, 0, 51, 0
1, 24813, Note_on_c, 0, 45, 0
1, 24816, Note_on_c, 1, 42, 75
1, 24861, Note_on_c, 1, 42, 0
1, 24864, Note_on_c, 0, 57, 75
1, 24864, Note_on_c, 0, 51, 75
1, 24912, Note_on_c, 1, 35, 75
1, 24957, Note_on_c, 1, 35, 0
1, 24960, Note_on_c, 0, 57, 0
1, 24960, Note_on_c, 0, 51, 0
1, 24960, Note_on_c, 0, 56, 75
1, 24960, Note_on_c, 0, 52, 75
1, 25008, Note_on_c, 1, 40, 75
1, 25049, Note_on_c, 0, 56, 0
1, 25049, Note_on_c, 0, 52, 0
1, 25053, Note_on_c, 1, 40, 0
1, 25056, Note_on_c, 1, 33, 75
1, 25104, Note_on_c, 0, 49, 75
1, 25124, Note_on_c, 0, 49, 0
1, 25145, Note_on_c, 1, 33, 0
1, 25152, Note_on_c, 0, 54, 75
1, 25172, Note_on_c, 0, 54, 0
1, 25200, Note_on_c, 0, 57, 75
1, 25220, Note_on_c, 0, 57, 0
1, 25248, Note_on_c, 0, 61, 75
1, 25268, Note_on_c, 0, 61, 0
1, 25296, Note_on_c, 0, 61, 75
1, 25316, Note_on_c, 0, 61, 0
1, 25344, Note_on_c, 0, 61, 75
1, 25392, Note_on_c, 1, 44, 75
1, 25437, Note_on_c, 1, 44, 0
1, 25440, Note_on_c, 1, 44, 75
1, 25463, Note_on_c, 0, 61, 0
1, 25464, Note_on_c, 0, 59, 75
1, 25485, Note_on_c, 1, 44, 0
1, 25487, Note_on_c, 0, 59, 0
1, 25488, Note_on_c, 0, 57, 75
1, 25488, Note_on_c, 1, 44, 75
1, 25511, Note_on_c, 0, 57, 0
1, 25512, Note_on_c, 0, 56, 75
1, 25533, Note_on_c, 1, 44, 0
1, 25535, Note_on_c, 0, 56, 0
1, 25536, Note_on_c, 0, 56, 75
1, 25536, Note_on_c, 1, 45, 75
1, 25559, Note_on_c, 0, 56, 0
1, 25560, Note_on_c, 0, 54, 75
1, 25581, Note_on_c, 1, 45, 0
1, 25583, Note_on_c, 0, 54, 0
1, 25584, Note_on_c, 0, 52, 75
1, 25584, Note_on_c, 1, 47, 75
1, 25607, Note_on_c, 0, 52, 0
1, 25608, Note_on_c, 0, 51, 75
1, 25629, Note_on_c, 1, 47, 0
1, 25631, Note_on_c, 0, 51, 0
1, 25632, Note_on_c, 0, 52, 75
1, 25632, Note_on_c, 1, 40, 75
1, 25677, Note_on_c, 0, 52, 0
1, 25680, Note_on_c, 0, 83, 61
1, 25700, Note_on_c, 0, 83, 0
1, 25721, Note_on_c, 1, 40, 0
1, 25728, Note_on_c, 0, 83, 61
1, 25728, Note_on_c, 1, 80, 61
1, 25748, Note_on_c, 0, 83, 0
1, 25767, Note_on_c, 1, 80, 0
1, 25776, Note_on_c, 0, 83, 61
1, 25796, Note_on_c, 0, 83, 0
1, 25824, Note_on_c, 0, 83, 61
1, 25824, Note_on_c, 1, 75, 61
1, 25847, Note_on_c, 0, 83, 0
1, 25848, Note_on_c, 0, 85, 61
1, 25863, Note_on_c, 1, 75, 0
1, 25871, Note_on_c, 0, 85, 0
1, 25872, Note_on_c, 0, 83, 61
1, 25895, Note_on_c, 0, 83, 0
1, 25896, Note_on_c, 0, 81, 61
1, 25919, Note_on_c, 0, 81, 0
1, 25920, Note_on_c, 0, 80, 61
1, 25920, Note_on_c, 1, 76, 61
1, 25965, Note_on_c, 0, 80, 0
1, 25965, Note_on_c, 1, 76, 0
1, 25968, Note_on_c, 0, 59, 75
1, 26013, Note_on_c, 0, 59, 0
1, 26016, Note_on_c, 0, 59, 75
1, 26039, Note_on_c, 0, 59, 0
1, 26040, Note_on_c, 0, 57, 75
1, 26063, Note_on_c, 0, 57, 0
1, 26064, Note_on_c, 0, 56, 75
1, 26087, Note_on_c, 0, 56, 0
1, 26088, Note_on_c, 0, 57, 75
1, 26111, Note_on_c, 0, 57, 0
1, 26112, Note_on_c, 0, 59, 75
1, 26112, Note_on_c, 1, 44, 75
1, 26135, Note_on_c, 0, 59, 0
1, 26136, Note_on_c, 0, 61, 75
1, 26159, Note_on_c, 0, 61, 0
1, 26160, Note_on_c, 0, 63, 75
1, 26183, Note_on_c, 0, 63, 0
1, 26184, Note_on_c, 0, 64, 75
1, 26201, Note_on_c, 1, 44, 0
1, 26207, Note_on_c, 0, 64, 0
1, 26208, Note_on_c, 0, 63, 75
1, 26208, Note_on_c, 1, 45, 75
1, 26231, Note_on_c, 0, 63, 0
1, 26232, Note_on_c, 0, 61, 75
1, 26255, Note_on_c, 0, 61, 0
1, 26256, Note_on_c, 0, 59, 75
1, 26279, Note_on_c, 0, 59, 0
1, 26280, Note_on_c, 0, 57, 75
1, 26297, Note_on_c, 1, 45, 0
1, 26303, Note_on_c, 0, 57, 0
1, 26304, Note_on_c, 0, 57, 75
1, 26304, Note_on_c, 1, 47, 75
1, 26327, Note_on_c, 0, 57, 0
1, 26328, Note_on_c, 0, 56, 75
1, 26351, Note_on_c, 0, 56, 0
1, 26352, Note_on_c, 0, 59, 75
1, 26375, Note_on_c, 0, 59, 0
1, 26376, Note_on_c, 0, 52, 75
1, 26393, Note_on_c, 1, 47, 0
1, 26399, Note_on_c, 0, 52, 0
1, 26400, Note_on_c, 0, 56, 75
1, 26400, Note_on_c, 1, 35, 75
1, 26423, Note_on_c, 0, 56, 0
1, 26424, Note_on_c, 0, 54, 75
1, 26447, Note_on_c, 0, 54, 0
1, 26448, Note_on_c, 0, 52, 75
1, 26471, Note_on_c, 0, 52, 0
1, 26472, Note_on_c, 0, 51, 75
1, 26489, Note_on_c, 1, 35, 0
1, 26495, Note_on_c, 0, 51, 0
1, 26496, Note_on_c, 0, 52, 75
1, 26496, Note_on_c, 1, 40, 75
1, 26541, Note_on_c, 0, 52, 0
1, 26544, Note_on_c, 0, 83, 61
1, 26585, Note_on_c, 1, 40, 0
1, 26589, Note_on_c, 0, 83, 0
1, 26592, Note_on_c, 0, 83, 61
1, 26592, Note_on_c, 1, 80, 61
1, 26592, Note_on_c, 1, 76, 61
1, 26637, Note_on_c, 0, 83, 0
1, 26640, Note_on_c, 0, 83, 61
1, 26685, Note_on_c, 0, 83, 0
1, 26688, Note_on_c, 0, 83, 61
1, 26688, Note_on_c, 1, 80, 0
1, 26688, Note_on_c, 1, 76, 0
1, 26688, Note_on_c, 1, 78, 61
1, 26688, Note_on_c, 1, 75, 61
1, 26722, Note_on_c, 0, 83, 0
1, 26724, Note_on_c, 0, 81, 61
1, 26730, Note_on_c, 0, 81, 0
1, 26730, Note_on_c, 0, 83, 61
1, 26736, Note_on_c, 0, 83, 0
1, 26736, Note_on_c, 0, 85, 61
1, 26751, Note_on_c, 0, 85, 0
1, 26752, Note_on_c, 0, 83, 61
1, 26767, Note_on_c, 0, 83, 0
1, 26768, Note_on_c, 0, 81, 61
1, 26777, Note_on_c, 1, 78, 0
1, 26777, Note_on_c, 1, 75, 0
1, 26783, Note_on_c, 0, 81, 0
1, 26784, Note_on_c, 0, 80, 61
1, 26784, Note_on_c, 1, 76, 61
1, 26829, Note_on_c, 0, 80, 0
1, 26829, Note_on_c, 1, 76, 0
1, 26832, Note_on_c, 0, 59, 75
1, 26842, Note_on_c, 0, 59, 0
1, 26856, Note_on_c, 0, 61, 75
1, 26866, Note_on_c, 0, 61, 0
1, 26880, Note_on_c, 0, 59, 75
1, 26890, Note_on_c, 0, 59, 0
1, 26904, Note_on_c, 0, 57, 75
1, 26914, Note_on_c, 0, 57, 0
1, 26928, Note_on_c, 0, 56, 75
1, 26938, Note_on_c, 0, 56, 0
1, 26952, Note_on_c, 0, 57, 75
1, 26962, Note_on_c, 0, 57, 0
1, 26976, Note_on_c, 0, 59, 75
1, 26976, Note_on_c, 1, 44, 75
1, 26986, Note_on_c, 0, 59, 0
1, 27000, Note_on_c, 0, 61, 75
1, 27010, Note_on_c, 0, 61, 0
1, 27024, Note_on_c, 0, 63, 75
1, 27034, Note_on_c, 0, 63, 0
1, 27048, Note_on_c, 0, 64, 75
1, 27058, Note_on_c, 0, 64, 0
1, 27065, Note_on_c, 1, 44, 0
1, 27072, Note_on_c, 0, 63, 75
1, 27072, Note_on_c, 1, 45, 75
1, 27096, Note_on_c, 0, 63, 0
1, 27096, Note_on_c, 0, 61, 75
1, 27119, Note_on_c, 0, 61, 0
1, 27120, Note_on_c, 0, 59, 75
1, 27130, Note_on_c, 0, 59, 0
1, 27144, Note_on_c, 0, 57, 75
1, 27154, Note_on_c, 0, 57, 0
1, 27161, Note_on_c, 1, 45, 0
1, 27168, Note_on_c, 0, 57, 75
1, 27168, Note_on_c, 1, 47, 75
1, 27192, Note_on_c, 0, 57, 0
1, 27192, Note_on_c, 0, 56, 75
1, 27215, Note_on_c, 0, 56, 0
1, 27216, Note_on_c, 0, 59, 75
1, 27226, Note_on_c, 0, 59, 0
1, 27240, Note_on_c, 0, 52, 75
1, 27250, Note_on_c, 0, 52, 0
1, 27257, Note_on_c, 1, 47, 0
1, 27264, Note_on_c, 0, 56, 75
1, 27264, Note_on_c, 1, 35, 75
1, 27288, Note_on_c, 0, 56, 0
1, 27288, Note_on_c, 0, 54, 75
1, 27311, Note_on_c, 0, 54, 0
1, 27312, Note_on_c, 0, 52, 75
1, 27322, Note_on_c, 0, 52, 0
1, 27336, Note_on_c, 0, 51, 75
1, 27346, Note_on_c, 0, 51, 0
1, 27353, Note_on_c, 1, 35, 0
1, 27360, Note_on_c, 0, 52, 75
1, 27360, Note_on_c, 1, 40, 75
1, 27405, Note_on_c, 1, 40, 0
1, 27408, Note_on_c, 1, 40, 75
1, 27449, Note_on_c, 0, 52, 0
1, 27453, Note_on_c, 1, 40, 0
1, 27456, Note_on_c, 1, 40, 75
1, 27501, Note_on_c, 1, 40, 0
1, 27504, Note_on_c, 0, 59, 75
1, 27504, Note_on_c, 0, 56, 75
1, 27504, Note_on_c, 1, 40, 75
1, 27538, Note_on_c, 0, 59, 0
1, 27538, Note_on_c, 0, 56, 0
1, 27540, Note_on_c, 0, 61, 75
1, 27540, Note_on_c, 0, 57, 75
1, 27549, Note_on_c, 1, 40, 0
1, 27552, Note_on_c, 0, 61, 0
1, 27552, Note_on_c, 0, 57, 0
1, 27552, Note_on_c, 0, 59, 75
1, 27552, Note_on_c, 0, 56, 75
1, 27552, Note_on_c, 1, 40, 75
1, 27572, Note_on_c, 0, 59, 0
1, 27572, Note_on_c, 0, 56, 0
1, 27597, Note_on_c, 1, 40, 0
1, 27600, Note_on_c, 0, 57, 75
1, 27600, Note_on_c, 0, 54, 75
1, 27600, Note_on_c, 1, 40, 75
1, 27620, Note_on_c, 0, 57, 0
1, 27620, Note_on_c, 0, 54, 0
1, 27645, Note_on_c, 1, 40, 0
1, 27648, Note_on_c, 0, 57, 75
1, 27648, Note_on_c, 0, 54, 75
1, 27648, Note_on_c, 1, 40, 75
1, 27693, Note_on_c, 1, 40, 0
1, 27696, Note_on_c, 1, 40, 75
1, 27741, Note_on_c, 1, 40, 0
1, 27744, Note_on_c, 0, 57, 0
1, 27744, Note_on_c, 0, 54, 0
1, 27744, Note_on_c, 0, 56, 75
1, 27744, Note_on_c, 0, 52, 75
1, 27744, Note_on_c, 1, 40, 75
1, 27789, Note_on_c, 0, 56, 0
1, 27789, Note_on_c, 0, 52, 0
1, 27789, Note_on_c, 1, 40, 0
1, 27792, Note_on_c, 0, 59, 75
1, 27792, Note_on_c, 0, 56, 75
1, 27792, Note_on_c, 1, 40, 75
1, 27826, Note_on_c, 0, 59, 0
1, 27826, Note_on_c, 0, 56, 0
1, 27828, Note_on_c, 0, 61, 75
1, 27828, Note_on_c, 0, 57, 75
1, 27837, Note_on_c, 1, 40, 0
1, 27840, Note_on_c, 0, 61, 0
1, 27840, Note_on_c, 0, 57, 0
1, 27840, Note_on_c, 0, 59, 75
1, 27840, Note_on_c, 0, 56, 75
1, 27840, Note_on_c, 1, 40, 75
1, 27860, Note_on_c, 0, 59, 0
1, 27860, Note_on_c, 0, 56, 0
1, 27885, Note_on_c, 1, 40, 0
1, 27888, Note_on_c, 0, 63, 75
1, 27888, Note_on_c, 0, 54, 75
1, 27888, Note_on_c, 1, 40, 75
1, 27908, Note_on_c, 0, 63, 0
1, 27908, Note_on_c, 0, 54, 0
1, 27933, Note_on_c, 1, 40, 0
1, 27936, Note_on_c, 0, 63, 75
1, 27936, Note_on_c, 0, 54, 75
1, 27936, Note_on_c, 1, 40, 75
1, 28032, Note_on_c, 0, 63, 0
1, 28032, Note_on_c, 0, 54, 0
1, 28032, Note_on_c, 0, 64, 75
1, 28032, Note_on_c, 0, 52, 75
1, 28121, Note_on_c, 0, 64, 0
1, 28121, Note_on_c, 0, 52, 0
1, 28201, Note_on_c, 1, 40, 0
1, 28224, Note_on_c, 1, 40, 75
1, 28272, Note_on_c, 0, 83, 75
1, 28292, Note_on_c, 0, 83, 0
1, 28313, Note_on_c, 1, 40, 0
1, 28320, Note_on_c, 0, 83, 75
1, 28320, Note_on_c, 1, 80, 75
1, 28340, Note_on_c, 0, 83, 0
1, 28359, Note_on_c, 1, 80, 0
1, 28368, Note_on_c, 0, 83, 75
1, 28388, Note_on_c, 0, 83, 0
1, 28416, Note_on_c, 0, 83, 75
1, 28416, Note_on_c, 1, 75, 75
1, 28439, Note_on_c, 0, 83, 0
1, 28440, Note_on_c, 0, 85, 75
1, 28455, Note_on_c, 1, 75, 0
1, 28463, Note_on_c, 0, 85, 0
1, 28464, Note_on_c, 0, 83, 75
1, 28487, Note_on_c, 0, 83, 0
1, 28488, Note_on_c, 0, 81, 75
1, 28511, Note_on_c, 0, 81, 0
1, 28512, Note_on_c, 1, 76, 75
1, 28551, Note_on_c, 1, 76, 0
1, 28560, Note_on_c, 0, 80, 75
1, 28580, Note_on_c, 0, 80, 0
1, 28608, Note_on_c, 0, 80, 75
1, 28628, Note_on_c, 0, 80, 0
1, 28656, Note_on_c, 0, 80, 75
1, 28676, Note_on_c, 0, 80, 0
1, 28704, Note_on_c, 0, 80, 75
1, 28704, Note_on_c, 1, 71, 75
1, 28727, Note_on_c, 0, 80, 0
1, 28728, Note_on_c, 0, 81, 75
1, 28743, Note_on_c, 1, 71, 0
1, 28751, Note_on_c, 0, 81, 0
1, 28752, Note_on_c, 0, 80, 75
1, 28775, Note_on_c, 0, 80, 0
1, 28776, Note_on_c, 0, 78, 75
1, 28799, Note_on_c, 0, 78, 0
1, 28800, Note_on_c, 1, 73, 75
1, 28839, Note_on_c, 1, 73, 0
1, 28848, Note_on_c, 0, 76, 75
1, 28868, Note_on_c, 0, 76, 0
1, 28896, Note_on_c, 0, 76, 75
1, 28916, Note_on_c, 0, 76, 0
1, 28944, Note_on_c, 0, 76, 75
1, 28964, Note_on_c, 0, 76, 0
1, 28992, Note_on_c, 0, 76, 75
1, 28992, Note_on_c, 1, 68, 75
1, 29015, Note_on_c, 0, 76, 0
1, 29016, Note_on_c, 0, 78, 75
1, 29031, Note_on_c, 1, 68, 0
1, 29039, Note_on_c, 0, 78, 0
1, 29040, Note_on_c, 0, 76, 75
1, 29063, Note_on_c, 0, 76, 0
1, 29064, Note_on_c, 0, 75, 75
1, 29087, Note_on_c, 0, 75, 0
1, 29088, Note_on_c, 0, 73, 75
1, 29088, Note_on_c, 1, 69, 75
1, 29127, Note_on_c, 1, 69, 0
1, 29133, Note_on_c, 0, 73, 0
1, 29136, Note_on_c, 0, 78, 75
1, 29181, Note_on_c, 0, 78, 0
1, 29184, Note_on_c, 0, 78, 75
1, 29207, Note_on_c, 0, 78, 0
1, 29208, Note_on_c, 0, 80, 75
1, 29231, Note_on_c, 0, 80, 0
1, 29232, Note_on_c, 0, 81, 75
1, 29255, Note_on_c, 0, 81, 0
1, 29256, Note_on_c, 0, 80, 75
1, 29279, Note_on_c, 0, 80, 0
1, 29280, Note_on_c, 0, 83, 75
1, 29280, Note_on_c, 1, 71, 75
1, 29303, Note_on_c, 0, 83, 0
1, 29304, Note_on_c, 0, 81, 73
1, 29327, Note_on_c, 0, 81, 0
1, 29328, Note_on_c, 0, 80, 72
1, 29351, Note_on_c, 0, 80, 0
1, 29352, Note_on_c, 0, 78, 70
1, 29369, Note_on_c, 1, 71, 0
1, 29375, Note_on_c, 0, 78, 0
1, 29376, Note_on_c, 0, 76, 69
1, 29376, Note_on_c, 1, 64, 69
1, 29421, Note_on_c, 0, 76, 0
1, 29424, Note_on_c, 0, 83, 69
1, 29465, Note_on_c, 1, 64, 0
1, 29469, Note_on_c, 0, 83, 0
1, 29472, Note_on_c, 0, 83, 69
1, 29472, Note_on_c, 1, 80, 69
1, 29472, Note_on_c, 1, 76, 69
1, 29517, Note_on_c, 0, 83, 0
1, 29520, Note_on_c, 0, 83, 69
1, 29565, Note_on_c, 0, 83, 0
1, 29568, Note_on_c, 0, 83, 69
1, 29568, Note_on_c, 1, 80, 0
1, 29568, Note_on_c, 1, 76, 0
1, 29568, Note_on_c, 1, 78, 69
1, 29568, Note_on_c, 1, 75, 69
1, 29602, Note_on_c, 0, 83, 0
1, 29604, Note_on_c, 0, 81, 69
1, 29610, Note_on_c, 0, 81, 0
1, 29610, Note_on_c, 0, 83, 69
1, 29616, Note_on_c, 0, 83, 0
1, 29616, Note_on_c, 0, 85, 69
1, 29631, Note_on_c, 0, 85, 0
1, 29632, Note_on_c, 0, 83, 69
1, 29647, Note_on_c, 0, 83, 0
1, 29648, Note_on_c, 0, 81, 69
1, 29657, Note_on_c, 1, 78, 0
1, 29657, Note_on_c, 1, 75, 0
1, 29663, Note_on_c, 0, 81, 0
1, 29664, Note_on_c, 0, 80, 69
1, 29709, Note_on_c, 0, 80, 0
1, 29712, Note_on_c, 0, 80, 69
1, 29757, Note_on_c, 0, 80, 0
1, 29760, Note_on_c, 0, 80, 69
1, 29760, Note_on_c, 1, 76, 69
1, 29760, Note_on_c, 1, 73, 69
1, 29805, Note_on_c, 0, 80, 0
1, 29808, Note_on_c, 0, 80, 69
1, 29853, Note_on_c, 0, 80, 0
1, 29856, Note_on_c, 0, 80, 69
1, 29856, Note_on_c, 1, 76, 0
1, 29856, Note_on_c, 1, 73, 0
1, 29856, Note_on_c, 1, 75, 69
1, 29856, Note_on_c, 1, 71, 69
1, 29890, Note_on_c, 0, 80, 0
1, 29892, Note_on_c, 0, 78, 69
1, 29898, Note_on_c, 0, 78, 0
1, 29898, Note_on_c, 0, 80, 69
1, 29904, Note_on_c, 0, 80, 0
1, 29904, Note_on_c, 0, 81, 69
1, 29919, Note_on_c, 0, 81, 0
1, 29920, Note_on_c, 0, 80, 69
1, 29935, Note_on_c, 0, 80, 0
1, 29936, Note_on_c, 0, 78, 69
1, 29945, Note_on_c, 1, 75, 0
1, 29945, Note_on_c, 1, 71, 0
1, 29951, Note_on_c, 0, 78, 0
1, 29952, Note_on_c, 0, 76, 69
1, 29997, Note_on_c, 0, 76, 0
1, 30000, Note_on_c, 0, 76, 69
1, 30045, Note_on_c, 0, 76, 0
1, 30048, Note_on_c, 0, 76, 69
1, 30048, Note_on_c, 1, 73, 69
1, 30048, Note_on_c, 1, 69, 69
1, 30093, Note_on_c, 0, 76, 0
1, 30096, Note_on_c, 0, 76, 69
1, 30141, Note_on_c, 0, 76, 0
1, 30144, Note_on_c, 0, 76, 69
1, 30144, Note_on_c, 1, 73, 0
1, 30144, Note_on_c, 1, 69, 0
1, 30144, Note_on_c, 1, 71, 69
1, 30144, Note_on_c, 1, 68, 69
1, 30178, Note_on_c, 0, 76, 0
1, 30180, Note_on_c, 0, 74, 69
1, 30186, Note_on_c, 0, 74, 0
1, 30186, Note_on_c, 0, 76, 69
1, 30192, Note_on_c, 0, 76, 0
1, 30192, Note_on_c, 0, 78, 69
1, 30207, Note_on_c, 0, 78, 0
1, 30208, Note_on_c, 0, 76, 69
1, 30223, Note_on_c, 0, 76, 0
1, 30224, Note_on_c, 0, 74, 69
1, 30233, Note_on_c, 1, 71, 0
1, 30233, Note_on_c, 1, 68, 0
1, 30239, Note_on_c, 0, 74, 0
1, 30240, Note_on_c, 0, 73, 69
1, 30240, Note_on_c, 1, 69, 69
1, 30285, Note_on_c, 0, 73, 0
1, 30288, Note_on_c, 0, 78, 69
1, 30329, Note_on_c, 1, 69, 0
1, 30333, Note_on_c, 0, 78, 0
1, 30336, Note_on_c, 0, 78, 69
1, 30359, Note_on_c, 0, 78, 0
1, 30360, Note_on_c, 0, 80, 69
1, 30383, Note_on_c, 0, 80, 0
1, 30384, Note_on_c, 0, 81, 69
1, 30407, Note_on_c, 0, 81, 0
1, 30408, Note_on_c, 0, 80, 69
1, 30431, Note_on_c, 0, 80, 0
1, 30432, Note_on_c, 0, 83, 69
1, 30432, Note_on_c, 1, 71, 69
1, 30455, Note_on_c, 0, 83, 0
1, 30456, Note_on_c, 0, 81, 69
1, 30479, Note_on_c, 0, 81, 0
1, 30480, Note_on_c, 0, 80, 69
1, 30503, Note_on_c, 0, 80, 0
1, 30504, Note_on_c, 0, 78, 69
1, 30521, Note_on_c, 1, 71, 0
1, 30527, Note_on_c, 0, 78, 0
1, 30528, Note_on_c, 0, 76, 69
1, 30576, Note_on_c, 1, 64, 69
1, 30596, Note_on_c, 1, 64, 0
1, 30617, Note_on_c, 0, 76, 0
1, 30624, Note_on_c, 1, 64, 69
1, 30644, Note_on_c, 1, 64, 0
1, 30672, Note_on_c, 1, 64, 69
1, 30692, Note_on_c, 1, 64, 0
1, 30720, Note_on_c, 1, 64, 69
1, 30743, Note_on_c, 1, 64, 0
1, 30744, Note_on_c, 1, 66, 69
1, 30767, Note_on_c, 1, 66, 0
1, 30768, Note_on_c, 1, 64, 69
1, 30791, Note_on_c, 1, 64, 0
1, 30792, Note_on_c, 1, 62, 69
1, 30815, Note_on_c, 1, 62, 0
1, 30816, Note_on_c, 1, 61, 69
1, 30864, Note_on_c, 0, 79, 69
1, 30864, Note_on_c, 0, 76, 69
1, 30884, Note_on_c, 0, 79, 0
1, 30884, Note_on_c, 0, 76, 0
1, 30912, Note_on_c, 0, 79, 69
1, 30912, Note_on_c, 0, 76, 69
1, 30932, Note_on_c, 0, 79, 0
1, 30932, Note_on_c, 0, 76, 0
1, 30960, Note_on_c, 0, 79, 69
1, 30960, Note_on_c, 0, 76, 69
1, 30980, Note_on_c, 0, 79, 0
1, 30980, Note_on_c, 0, 76, 0
1, 30993, Note_on_c, 1, 61, 0
1, 31008, Note_on_c, 0, 79, 69
1, 31008, Note_on_c, 0, 76, 69
1, 31031, Note_on_c, 0, 79, 0
1, 31031, Note_on_c, 0, 76, 0
1, 31032, Note_on_c, 0, 81, 69
1, 31032, Note_on_c, 0, 78, 69
1, 31055, Note_on_c, 0, 81, 0
1, 31055, Note_on_c, 0, 78, 0
1, 31056, Note_on_c, 0, 79, 69
1, 31056, Note_on_c, 0, 76, 69
1, 31079, Note_on_c, 0, 79, 0
1, 31079, Note_on_c, 0, 76, 0
1, 31080, Note_on_c, 0, 78, 69
1, 31080, Note_on_c, 0, 74, 69
1, 31103, Note_on_c, 0, 78, 0
1, 31103, Note_on_c, 0, 74, 0
1, 31104, Note_on_c, 0, 76, 69
1, 31104, Note_on_c, 0, 73, 64
1, 31152, Note_on_c, 1, 64, 69
1, 31175, Note_on_c, 1, 64, 0
1, 31176, Note_on_c, 1, 66, 69
1, 31199, Note_on_c, 1, 66, 0
1, 31200, Note_on_c, 1, 67, 69
1, 31223, Note_on_c, 1, 67, 0
1, 31224, Note_on_c, 1, 69, 69
1, 31247, Note_on_c, 1, 69, 0
1, 31248, Note_on_c, 1, 67, 69
1, 31271, Note_on_c, 1, 67, 0
1, 31272, Note_on_c, 1, 66, 69
1, 31295, Note_on_c, 1, 66, 0
1, 31296, Note_on_c, 1, 64, 69
1, 31319, Note_on_c, 1, 64, 0
1, 31320, Note_on_c, 1, 62, 69
1, 31343, Note_on_c, 1, 62, 0
1, 31344, Note_on_c, 1, 61, 69
1, 31367, Note_on_c, 1, 61, 0
1, 31368, Note_on_c, 1, 59, 69
1, 31391, Note_on_c, 1, 59, 0
1, 31392, Note_on_c, 1, 58, 69
1, 31437, Note_on_c, 0, 76, 0
1, 31437, Note_on_c, 0, 73, 0
1, 31440, Note_on_c, 0, 85, 69
1, 31440, Note_on_c, 0, 76, 64
1, 31485, Note_on_c, 0, 85, 0
1, 31485, Note_on_c, 0, 76, 0
1, 31488, Note_on_c, 0, 85, 69
1, 31488, Note_on_c, 0, 76, 64
1, 31533, Note_on_c, 0, 85, 0
1, 31533, Note_on_c, 0, 76, 0
1, 31536, Note_on_c, 0, 79, 69
1, 31536, Note_on_c, 0, 76, 64
1, 31581, Note_on_c, 0, 79, 0
1, 31581, Note_on_c, 0, 76, 0
1, 31584, Note_on_c, 0, 78, 69
1, 31584, Note_on_c, 0, 74, 64
1, 31590, Note_on_c, 0, 78, 0
1, 31590, Note_on_c, 0, 79, 69
1, 31596, Note_on_c, 0, 79, 0
1, 31596, Note_on_c, 0, 78, 69
1, 31629, Note_on_c, 0, 74, 0
1, 31631, Note_on_c, 0, 78, 0
1, 31632, Note_on_c, 0, 76, 69
1, 31632, Note_on_c, 0, 73, 64
1, 31657, Note_on_c, 1, 58, 0
1, 31677, Note_on_c, 0, 76, 0
1, 31677, Note_on_c, 0, 73, 0
1, 31680, Note_on_c, 0, 74, 69
1, 31680, Note_on_c, 0, 71, 64
1, 31728, Note_on_c, 1, 62, 69
1, 31751, Note_on_c, 1, 62, 0
1, 31752, Note_on_c, 1, 64, 69
1, 31775, Note_on_c, 1, 64, 0
1, 31776, Note_on_c, 1, 66, 69
1, 31799, Note_on_c, 1, 66, 0
1, 31800, Note_on_c, 1, 67, 69
1, 31823, Note_on_c, 1, 67, 0
1, 31824, Note_on_c, 1, 66, 69
1, 31847, Note_on_c, 1, 66, 0
1, 31848, Note_on_c, 1, 64, 69
1, 31871, Note_on_c, 1, 64, 0
1, 31872, Note_on_c, 1, 62, 69
1, 31895, Note_on_c, 1, 62, 0
1, 31896, Note_on_c, 1, 61, 69
1, 31919, Note_on_c, 1, 61, 0
1, 31920, Note_on_c, 1, 59, 69
1, 31943, Note_on_c, 1, 59, 0
1, 31944, Note_on_c, 1, 57, 69
1, 31967, Note_on_c, 1, 57, 0
1, 31968, Note_on_c, 1, 56, 69
1, 32013, Note_on_c, 0, 74, 0
1, 32013, Note_on_c, 0, 71, 0
1, 32016, Note_on_c, 0, 83, 69
1, 32016, Note_on_c, 0, 74, 64
1, 32061, Note_on_c, 0, 83, 0
1, 32061, Note_on_c, 0, 74, 0
1, 32064, Note_on_c, 0, 83, 69
1, 32064, Note_on_c, 0, 74, 64
1, 32109, Note_on_c, 0, 83, 0
1, 32109, Note_on_c, 0, 74, 0
1, 32112, Note_on_c, 0, 78, 69
1, 32112, Note_on_c, 0, 74, 64
1, 32157, Note_on_c, 0, 78, 0
1, 32157, Note_on_c, 0, 74, 0
1, 32160, Note_on_c, 0, 76, 69
1, 32160, Note_on_c, 0, 73, 64
1, 32166, Note_on_c, 0, 76, 0
1, 32166, Note_on_c, 0, 78, 69
1, 32172, Note_on_c, 0, 78, 0
1, 32172, Note_on_c, 0, 76, 69
1, 32205, Note_on_c, 0, 73, 0
1, 32207, Note_on_c, 0, 76, 0
1, 32208, Note_on_c, 0, 74, 69
1, 32208, Note_on_c, 0, 71, 64
1, 32233, Note_on_c, 1, 56, 0
1, 32253, Note_on_c, 0, 74, 0
1, 32253, Note_on_c, 0, 71, 0
1, 32256, Note_on_c, 1, 64, 69
1, 32256, Note_on_c, 1, 57, 69
1, 32280, Note_on_c, 0, 73, 69
1, 32303, Note_on_c, 0, 73, 0
1, 32304, Note_on_c, 0, 74, 69
1, 32310, Note_on_c, 0, 74, 0
1, 32310, Note_on_c, 0, 73, 69
1, 32316, Note_on_c, 0, 73, 0
1, 32316, Note_on_c, 0, 71, 69
1, 32322, Note_on_c, 0, 71, 0
1, 32322, Note_on_c, 0, 73, 69
1, 32345, Note_on_c, 1, 64, 0
1, 32345, Note_on_c, 1, 57, 0
1, 32349, Note_on_c, 0, 73, 0
1, 32352, Note_on_c, 1, 68, 69
1, 32352, Note_on_c, 1, 59, 69
1, 32376, Note_on_c, 0, 74, 70
1, 32399, Note_on_c, 0, 74, 0
1, 32400, Note_on_c, 0, 76, 70
1, 32406, Note_on_c, 0, 76, 0
1, 32406, Note_on_c, 0, 74, 70
1, 32412, Note_on_c, 0, 74, 0
1, 32412, Note_on_c, 0, 73, 70
1, 32418, Note_on_c, 0, 73, 0
1, 32418, Note_on_c, 0, 74, 70
1, 32441, Note_on_c, 1, 68, 0
1, 32441, Note_on_c, 1, 59, 0
1, 32445, Note_on_c, 0, 74, 0
1, 32448, Note_on_c, 1, 69, 70
1, 32448, Note_on_c, 1, 61, 70
1, 32472, Note_on_c, 0, 76, 71
1, 32495, Note_on_c, 0, 76, 0
1, 32496, Note_on_c, 0, 78, 71
1, 32502, Note_on_c, 0, 78, 0
1, 32502, Note_on_c, 0, 76, 71
1, 32508, Note_on_c, 0, 76, 0
1, 32508, Note_on_c, 0, 74, 71
1, 32514, Note_on_c, 0, 74, 0
1, 32514, Note_on_c, 0, 76, 71
1, 32537, Note_on_c, 1, 69, 0
1, 32537, Note_on_c, 1, 61, 0
1, 32544, Note_on_c, 1, 71, 71
1, 32544, Note_on_c, 1, 62, 71
1, 32567, Note_on_c, 0, 76, 0
1, 32568, Note_on_c, 0, 77, 72
1, 32591, Note_on_c, 0, 77, 0
1, 32592, Note_on_c, 0, 78, 72
1, 32615, Note_on_c, 0, 78, 0
1, 32616, Note_on_c, 0, 77, 73
1, 32639, Note_on_c, 0, 77, 0
1, 32640, Note_on_c, 0, 78, 73
1, 32663, Note_on_c, 0, 78, 0
1, 32664, Note_on_c, 0, 80, 73
1, 32687, Note_on_c, 0, 80, 0
1, 32688, Note_on_c, 0, 81, 73
1, 32711, Note_on_c, 0, 81, 0
1, 32712, Note_on_c, 0, 80, 74
1, 32721, Note_on_c, 1, 71, 0
1, 32721, Note_on_c, 1, 62, 0
1, 32735, Note_on_c, 0, 80, 0
1, 32736, Note_on_c, 0, 81, 74
1, 32736, Note_on_c, 1, 71, 73
1, 32736, Note_on_c, 1, 63, 73
1, 32781, Note_on_c, 0, 81, 0
1, 32784, Note_on_c, 0, 73, 75
1, 32825, Note_on_c, 1, 71, 0
1, 32825, Note_on_c, 1, 63, 0
1, 32829, Note_on_c, 0, 73, 0
1, 32832, Note_on_c, 0, 74, 75
1, 32832, Note_on_c, 1, 69, 75
1, 32832, Note_on_c, 1, 64, 64
1, 32840, Note_on_c, 0, 74, 0
1, 32840, Note_on_c, 0, 73, 74
1, 32848, Note_on_c, 0, 73, 0
1, 32848, Note_on_c, 0, 74, 74
1, 32856, Note_on_c, 0, 74, 0
1, 32856, Note_on_c, 0, 73, 74
1, 32864, Note_on_c, 0, 73, 0
1, 32864, Note_on_c, 0, 74, 74
1, 32872, Note_on_c, 0, 74, 0
1, 32872, Note_on_c, 0, 73, 74
1, 32880, Note_on_c, 0, 73, 0
1, 32880, Note_on_c, 0, 74, 73
1, 32888, Note_on_c, 0, 74, 0
1, 32888, Note_on_c, 0, 73, 73
1, 32896, Note_on_c, 0, 73, 0
1, 32896, Note_on_c, 0, 74, 73
1, 32904, Note_on_c, 0, 74, 0
1, 32904, Note_on_c, 0, 73, 73
1, 32912, Note_on_c, 0, 73, 0
1, 32912, Note_on_c, 0, 71, 73
1, 32920, Note_on_c, 0, 71, 0
1, 32920, Note_on_c, 0, 73, 72
1, 32921, Note_on_c, 1, 69, 0
1, 32928, Note_on_c, 0, 73, 0
1, 32928, Note_on_c, 0, 71, 72
1, 32928, Note_on_c, 1, 68, 72
1, 33009, Note_on_c, 1, 64, 0
1, 33017, Note_on_c, 0, 71, 0
1, 33017, Note_on_c, 1, 68, 0
1, 33120, Note_on_c, 0, 52, 69
1, 33168, Note_on_c, 1, 33, 69
1, 33188, Note_on_c, 1, 33, 0
1, 33216, Note_on_c, 1, 45, 69
1, 33236, Note_on_c, 1, 45, 0
1, 33264, Note_on_c, 1, 48, 69
1, 33284, Note_on_c, 1, 48, 0
1, 33312, Note_on_c, 1, 45, 69
1, 33332, Note_on_c, 1, 45, 0
1, 33360, Note_on_c, 1, 48, 69
1, 33379, Note_on_c, 0, 52, 0
1, 33380, Note_on_c, 1, 48, 0
1, 33384, Note_on_c, 0, 57, 69
1, 33407, Note_on_c, 0, 57, 0
1, 33408, Note_on_c, 0, 57, 69
1, 33456, Note_on_c, 1, 35, 69
1, 33476, Note_on_c, 1, 35, 0
1, 33497, Note_on_c, 0, 57, 0
1, 33504, Note_on_c, 0, 56, 69
1, 33504, Note_on_c, 1, 47, 69
1, 33524, Note_on_c, 1, 47, 0
1, 33552, Note_on_c, 1, 50, 69
1, 33572, Note_on_c, 1, 50, 0
1, 33600, Note_on_c, 1, 47, 69
1, 33620, Note_on_c, 1, 47, 0
1, 33648, Note_on_c, 1, 50, 69
1, 33667, Note_on_c, 0, 56, 0
1, 33668, Note_on_c, 1, 50, 0
1, 33672, Note_on_c, 0, 59, 69
1, 33695, Note_on_c, 0, 59, 0
1, 33696, Note_on_c, 0, 59, 69
1, 33744, Note_on_c, 1, 36, 69
1, 33764, Note_on_c, 1, 36, 0
1, 33785, Note_on_c, 0, 59, 0
1, 33792, Note_on_c, 0, 57, 69
1, 33792, Note_on_c, 1, 48, 69
1, 33812, Note_on_c, 1, 48, 0
1, 33840, Note_on_c, 1, 52, 69
1, 33860, Note_on_c, 1, 52, 0
1, 33888, Note_on_c, 1, 48, 69
1, 33908, Note_on_c, 1, 48, 0
1, 33936, Note_on_c, 1, 52, 69
1, 33955, Note_on_c, 0, 57, 0
1, 33956, Note_on_c, 1, 52, 0
1, 33960, Note_on_c, 0, 60, 69
1, 33983, Note_on_c, 0, 60, 0
1, 33984, Note_on_c, 0, 60, 69
1, 34032, Note_on_c, 1, 50, 69
1, 34032, Note_on_c, 1, 38, 69
1, 34073, Note_on_c, 0, 60, 0
1, 34079, Note_on_c, 1, 50, 0
1, 34079, Note_on_c, 1, 38, 0
1, 34080, Note_on_c, 0, 59, 69
1, 34080, Note_on_c, 1, 50, 69
1, 34080, Note_on_c, 1, 38, 69
1, 34127, Note_on_c, 1, 50, 0
1, 34127, Note_on_c, 1, 38, 0
1, 34128, Note_on_c, 1, 50, 69
1, 34128, Note_on_c, 1, 38, 69
1, 34169, Note_on_c, 0, 59, 0
1, 34175, Note_on_c, 1, 50, 0
1, 34175, Note_on_c, 1, 38, 0
1, 34176, Note_on_c, 0, 65, 69
1, 34176, Note_on_c, 0, 57, 69
1, 34176, Note_on_c, 1, 50, 69
1, 34176, Note_on_c, 1, 38, 69
1, 34223, Note_on_c, 1, 50, 0
1, 34223, Note_on_c, 1, 38, 0
1, 34224, Note_on_c, 1, 50, 69
1, 34224, Note_on_c, 1, 38, 69
1, 34265, Note_on_c, 0, 65, 0
1, 34265, Note_on_c, 0, 57, 0
1, 34271, Note_on_c, 1, 50, 0
1, 34271, Note_on_c, 1, 38, 0
1, 34272, Note_on_c, 0, 65, 69
1, 34272, Note_on_c, 0, 56, 64
1, 34320, Note_on_c, 1, 52, 69
1, 34320, Note_on_c, 1, 40, 69
1, 34361, Note_on_c, 0, 65, 0
1, 34367, Note_on_c, 1, 52, 0
1, 34367, Note_on_c, 1, 40, 0
1, 34368, Note_on_c, 0, 64, 69
1, 34368, Note_on_c, 1, 52, 69
1, 34368, Note_on_c, 1, 40, 69
1, 34415, Note_on_c, 1, 52, 0
1, 34415, Note_on_c, 1, 40, 0
1, 34416, Note_on_c, 1, 52, 69
1, 34416, Note_on_c, 1, 40, 69
1, 34435, Note_on_c, 0, 56, 0
1, 34440, Note_on_c, 0, 57, 64
1, 34457, Note_on_c, 0, 64, 0
1, 34463, Note_on_c, 0, 57, 0
1, 34463, Note_on_c, 1, 52, 0
1, 34463, Note_on_c, 1, 40, 0
1, 34464, Note_on_c, 0, 62, 69
1, 34464, Note_on_c, 0, 59, 64
1, 34464, Note_on_c, 1, 52, 69
1, 34464, Note_on_c, 1, 44, 69
1, 34511, Note_on_c, 1, 52, 0
1, 34511, Note_on_c, 1, 44, 0
1, 34512, Note_on_c, 1, 52, 69
1, 34512, Note_on_c, 1, 44, 69
1, 34553, Note_on_c, 0, 62, 0
1, 34553, Note_on_c, 0, 59, 0
1, 34559, Note_on_c, 1, 52, 0
1, 34559, Note_on_c, 1, 44, 0
1, 34560, Note_on_c, 0, 62, 69
1, 34560, Note_on_c, 0, 59, 64
1, 34608, Note_on_c, 1, 52, 69
1, 34608, Note_on_c, 1, 45, 69
1, 34655, Note_on_c, 1, 52, 0
1, 34655, Note_on_c, 1, 45, 0
1, 34656, Note_on_c, 1, 52, 69
1, 34656, Note_on_c, 1, 45, 69
1, 34703, Note_on_c, 1, 52, 0
1, 34703, Note_on_c, 1, 45, 0
1, 34704, Note_on_c, 1, 52, 69
1, 34704, Note_on_c, 1, 45, 69
1, 34737, Note_on_c, 0, 62, 0
1, 34737, Note_on_c, 0, 59, 0
1, 34751, Note_on_c, 1, 52, 0
1, 34751, Note_on_c, 1, 45, 0
1, 34752, Note_on_c, 0, 60, 69
1, 34752, Note_on_c, 0, 57, 64
1, 34752, Note_on_c, 1, 54, 69
1, 34752, Note_on_c, 1, 51, 69
1, 34761, Note_on_c, 0, 60, 0
1, 34761, Note_on_c, 0, 62, 69
1, 34770, Note_on_c, 0, 62, 0
1, 34770, Note_on_c, 0, 60, 69
1, 34779, Note_on_c, 0, 60, 0
1, 34779, Note_on_c, 0, 62, 69
1, 34788, Note_on_c, 0, 62, 0
1, 34788, Note_on_c, 0, 60, 69
1, 34797, Note_on_c, 0, 60, 0
1, 34797, Note_on_c, 0, 62, 69
1, 34799, Note_on_c, 1, 54, 0
1, 34799, Note_on_c, 1, 51, 0
1, 34800, Note_on_c, 1, 54, 69
1, 34800, Note_on_c, 1, 51, 69
1, 34806, Note_on_c, 0, 62, 0
1, 34806, Note_on_c, 0, 60, 69
1, 34815, Note_on_c, 0, 60, 0
1, 34815, Note_on_c, 0, 62, 69
1, 34824, Note_on_c, 0, 62, 0
1, 34824, Note_on_c, 0, 60, 69
1, 34832, Note_on_c, 0, 60, 0
1, 34832, Note_on_c, 0, 59, 69
1, 34840, Note_on_c, 0, 59, 0
1, 34840, Note_on_c, 0, 60, 69
1, 34841, Note_on_c, 0, 57, 0
1, 34847, Note_on_c, 1, 54, 0
1, 34847, Note_on_c, 1, 51, 0
1, 34848, Note_on_c, 0, 60, 0
1, 34848, Note_on_c, 0, 60, 69
1, 34848, Note_on_c, 0, 57, 64
1, 34896, Note_on_c, 1, 40, 69
1, 34937, Note_on_c, 0, 57, 0
1, 34941, Note_on_c, 1, 40, 0
1, 34944, Note_on_c, 0, 60, 0
1, 34944, Note_on_c, 0, 59, 69
1, 34944, Note_on_c, 0, 56, 64
1, 34944, Note_on_c, 1, 52, 69
1, 34967, Note_on_c, 1, 52, 0
1, 34968, Note_on_c, 1, 54, 69
1, 34991, Note_on_c, 1, 54, 0
1, 34992, Note_on_c, 1, 52, 69
1, 35015, Note_on_c, 1, 52, 0
1, 35016, Note_on_c, 1, 50, 69
1, 35033, Note_on_c, 0, 59, 0
1, 35033, Note_on_c, 0, 56, 0
1, 35039, Note_on_c, 1, 50, 0
1, 35040, Note_on_c, 1, 49, 69
1, 35063, Note_on_c, 1, 49, 0
1, 35064, Note_on_c, 1, 50, 69
1, 35087, Note_on_c, 1, 50, 0
1, 35088, Note_on_c, 1, 49, 69
1, 35111, Note_on_c, 1, 49, 0
1, 35112, Note_on_c, 1, 47, 69
1, 35135, Note_on_c, 1, 47, 0
1, 35136, Note_on_c, 0, 57, 75
1, 35136, Note_on_c, 1, 45, 75
1, 35183, Note_on_c, 1, 45, 0
1, 35184, Note_on_c, 1, 33, 75
1, 35204, Note_on_c, 1, 33, 0
1, 35232, Note_on_c, 1, 45, 75
1, 35252, Note_on_c, 1, 45, 0
1, 35280, Note_on_c, 1, 49, 75
1, 35300, Note_on_c, 1, 49, 0
1, 35328, Note_on_c, 1, 52, 75
1, 35348, Note_on_c, 1, 52, 0
1, 35376, Note_on_c, 1, 49, 75
1, 35396, Note_on_c, 1, 49, 0
1, 35401, Note_on_c, 0, 57, 0
1, 35424, Note_on_c, 0, 57, 75
1, 35432, Note_on_c, 0, 62, 75
1, 35440, Note_on_c, 0, 66, 75
1, 35472, Note_on_c, 1, 33, 75
1, 35492, Note_on_c, 1, 33, 0
1, 35520, Note_on_c, 1, 45, 75
1, 35540, Note_on_c, 1, 45, 0
1, 35568, Note_on_c, 1, 50, 75
1, 35588, Note_on_c, 1, 50, 0
1, 35616, Note_on_c, 1, 54, 75
1, 35636, Note_on_c, 1, 54, 0
1, 35664, Note_on_c, 1, 50, 75
1, 35684, Note_on_c, 1, 50, 0
1, 35697, Note_on_c, 0, 66, 0
1, 35697, Note_on_c, 0, 62, 0
1, 35697, Note_on_c, 0, 57, 0
1, 35712, Note_on_c, 0, 57, 75
1, 35724, Note_on_c, 0, 57, 0
1, 35724, Note_on_c, 0, 64, 75
1, 35760, Note_on_c, 1, 52, 69
1, 35760, Note_on_c, 1, 49, 69
1, 35801, Note_on_c, 0, 64, 0
1, 35807, Note_on_c, 1, 52, 0
1, 35807, Note_on_c, 1, 49, 0
1, 35808, Note_on_c, 0, 69, 75
1, 35808, Note_on_c, 0, 57, 64
1, 35856, Note_on_c, 1, 52, 69
1, 35856, Note_on_c, 1, 49, 69
1, 35903, Note_on_c, 1, 52, 0
1, 35903, Note_on_c, 1, 49, 0
1, 35904, Note_on_c, 1, 52, 69
1, 35904, Note_on_c, 1, 49, 69
1, 35938, Note_on_c, 0, 69, 0
1, 35940, Note_on_c, 0, 68, 75
1, 35951, Note_on_c, 1, 52, 0
1, 35951, Note_on_c, 1, 49, 0
1, 35952, Note_on_c, 0, 68, 0
1, 35952, Note_on_c, 0, 66, 75
1, 35952, Note_on_c, 1, 52, 69
1, 35952, Note_on_c, 1, 49, 69
1, 35985, Note_on_c, 0, 57, 0
1, 35986, Note_on_c, 0, 66, 0
1, 35988, Note_on_c, 0, 64, 75
1, 35999, Note_on_c, 1, 52, 0
1, 35999, Note_on_c, 1, 49, 0
1, 36000, Note_on_c, 0, 64, 0
1, 36000, Note_on_c, 0, 64, 75
1, 36000, Note_on_c, 0, 59, 64
1, 36048, Note_on_c, 1, 52, 69
1, 36048, Note_on_c, 1, 44, 69
1, 36095, Note_on_c, 1, 52, 0
1, 36095, Note_on_c, 1, 44, 0
1, 36096, Note_on_c, 1, 52, 69
1, 36096, Note_on_c, 1, 44, 69
1, 36141, Note_on_c, 0, 64, 0
1, 36143, Note_on_c, 1, 52, 0
1, 36143, Note_on_c, 1, 44, 0
1, 36144, Note_on_c, 0, 66, 75
1, 36144, Note_on_c, 1, 52, 69
1, 36144, Note_on_c, 1, 44, 69
1, 36167, Note_on_c, 0, 66, 0
1, 36168, Note_on_c, 0, 64, 75
1, 36177, Note_on_c, 0, 59, 0
1, 36191, Note_on_c, 0, 64, 0
1, 36191, Note_on_c, 1, 52, 0
1, 36191, Note_on_c, 1, 44, 0
1, 36192, Note_on_c, 0, 64, 75
1, 36192, Note_on_c, 1, 52, 69
1, 36192, Note_on_c, 1, 44, 69
1, 36215, Note_on_c, 0, 64, 0
1, 36216, Note_on_c, 0, 62, 75
1, 36239, Note_on_c, 0, 62, 0
1, 36239, Note_on_c, 1, 52, 0
1, 36239, Note_on_c, 1, 44, 0
1, 36240, Note_on_c, 0, 61, 75
1, 36240, Note_on_c, 1, 52, 69
1, 36240, Note_on_c, 1, 44, 69
1, 36263, Note_on_c, 0, 61, 0
1, 36264, Note_on_c, 0, 62, 75
1, 36287, Note_on_c, 0, 62, 0
1, 36287, Note_on_c, 1, 52, 0
1, 36287, Note_on_c, 1, 44, 0
1, 36288, Note_on_c, 0, 62, 75
1, 36288, Note_on_c, 0, 59, 75
1, 36336, Note_on_c, 1, 52, 69
1, 36336, Note_on_c, 1, 45, 69
1, 36383, Note_on_c, 1, 52, 0
1, 36383, Note_on_c, 1, 45, 0
1, 36384, Note_on_c, 0, 62, 0
1, 36384, Note_on_c, 0, 59, 0
1, 36384, Note_on_c, 0, 61, 75
1, 36384, Note_on_c, 0, 57, 75
1, 36384, Note_on_c, 1, 52, 69
1, 36384, Note_on_c, 1, 45, 69
1, 36431, Note_on_c, 1, 52, 0
1, 36431, Note_on_c, 1, 45, 0
1, 36432, Note_on_c, 1, 52, 69
1, 36432, Note_on_c, 1, 45, 69
1, 36473, Note_on_c, 0, 61, 0
1, 36473, Note_on_c, 0, 57, 0
1, 36479, Note_on_c, 1, 52, 0
1, 36479, Note_on_c, 1, 45, 0
1, 36480, Note_on_c, 1, 52, 69
1, 36480, Note_on_c, 1, 45, 69
1, 36527, Note_on_c, 1, 52, 0
1, 36527, Note_on_c, 1, 45, 0
1, 36528, Note_on_c, 1, 52, 69
1, 36528, Note_on_c, 1, 45, 69
1, 36552, Note_on_c, 0, 61, 75
1, 36575, Note_on_c, 0, 61, 0
1, 36575, Note_on_c, 1, 52, 0
1, 36575, Note_on_c, 1, 45, 0
1, 36576, Note_on_c, 0, 61, 75
1, 36599, Note_on_c, 0, 61, 0
1, 36600, Note_on_c, 0, 59, 75
1, 36623, Note_on_c, 0, 59, 0
1, 36624, Note_on_c, 0, 56, 75
1, 36624, Note_on_c, 1, 52, 69
1, 36624, Note_on_c, 1, 50, 69
1, 36647, Note_on_c, 0, 56, 0
1, 36648, Note_on_c, 0, 52, 75
1, 36671, Note_on_c, 0, 52, 0
1, 36671, Note_on_c, 1, 52, 0
1, 36671, Note_on_c, 1, 50, 0
1, 36672, Note_on_c, 0, 57, 75
1, 36672, Note_on_c, 1, 52, 69
1, 36672, Note_on_c, 1, 49, 69
1, 36719, Note_on_c, 1, 52, 0
1, 36719, Note_on_c, 1, 49, 0
1, 36720, Note_on_c, 1, 52, 69
1, 36720, Note_on_c, 1, 49, 69
1, 36767, Note_on_c, 1, 52, 0
1, 36767, Note_on_c, 1, 49, 0
1, 36768, Note_on_c, 1, 52, 69
1, 36768, Note_on_c, 1, 49, 69
1, 36815, Note_on_c, 1, 52, 0
1, 36815, Note_on_c, 1, 49, 0
1, 36816, Note_on_c, 1, 52, 69
1, 36816, Note_on_c, 1, 49, 69
1, 36835, Note_on_c, 0, 57, 0
1, 36840, Note_on_c, 0, 61, 75
1, 36863, Note_on_c, 0, 61, 0
1, 36863, Note_on_c, 1, 52, 0
1, 36863, Note_on_c, 1, 49, 0
1, 36864, Note_on_c, 0, 61, 75
1, 36887, Note_on_c, 0, 61, 0
1, 36888, Note_on_c, 0, 59, 75
1, 36911, Note_on_c, 0, 59, 0
1, 36912, Note_on_c, 0, 56, 75
1, 36912, Note_on_c, 1, 52, 69
1, 36912, Note_on_c, 1, 50, 69
1, 36935, Note_on_c, 0, 56, 0
1, 36936, Note_on_c, 0, 52, 75
1, 36959, Note_on_c, 0, 52, 0
1, 36959, Note_on_c, 1, 52, 0
1, 36959, Note_on_c, 1, 50, 0
1, 36960, Note_on_c, 0, 57, 75
1, 36960, Note_on_c, 1, 52, 69
1, 36960, Note_on_c, 1, 49, 69
1, 37007, Note_on_c, 1, 52, 0
1, 37007, Note_on_c, 1, 49, 0
1, 37008, Note_on_c, 1, 52, 69
1, 37008, Note_on_c, 1, 49, 69
1, 37055, Note_on_c, 1, 52, 0
1, 37055, Note_on_c, 1, 49, 0
1, 37056, Note_on_c, 1, 52, 69
1, 37056, Note_on_c, 1, 49, 69
1, 37103, Note_on_c, 1, 52, 0
1, 37103, Note_on_c, 1, 49, 0
1, 37104, Note_on_c, 1, 52, 69
1, 37104, Note_on_c, 1, 49, 69
1, 37123, Note_on_c, 0, 57, 0
1, 37128, Note_on_c, 0, 61, 75
1, 37151, Note_on_c, 0, 61, 0
1, 37151, Note_on_c, 1, 52, 0
1, 37151, Note_on_c, 1, 49, 0
1, 37152, Note_on_c, 0, 61, 75
1, 37152, Note_on_c, 1, 52, 69
1, 37152, Note_on_c, 1, 50, 69
1, 37176, Note_on_c, 0, 61, 0
1, 37176, Note_on_c, 0, 59, 75
1, 37197, Note_on_c, 1, 52, 0
1, 37197, Note_on_c, 1, 50, 0
1, 37199, Note_on_c, 0, 59, 0
1, 37200, Note_on_c, 0, 56, 75
1, 37210, Note_on_c, 0, 56, 0
1, 37224, Note_on_c, 0, 52, 75
1, 37234, Note_on_c, 0, 52, 0
1, 37248, Note_on_c, 0, 59, 75
1, 37248, Note_on_c, 1, 52, 69
1, 37248, Note_on_c, 1, 49, 69
1, 37272, Note_on_c, 0, 59, 0
1, 37272, Note_on_c, 0, 57, 75
1, 37293, Note_on_c, 1, 52, 0
1, 37293, Note_on_c, 1, 49, 0
1, 37295, Note_on_c, 0, 57, 0
1, 37296, Note_on_c, 0, 52, 75
1, 37306, Note_on_c, 0, 52, 0
1, 37320, Note_on_c, 0, 61, 75
1, 37330, Note_on_c, 0, 61, 0
1, 37344, Note_on_c, 0, 61, 75
1, 37344, Note_on_c, 1, 44, 75
1, 37368, Note_on_c, 0, 61, 0
1, 37368, Note_on_c, 0, 59, 75
1, 37389, Note_on_c, 1, 44, 0
1, 37391, Note_on_c, 0, 59, 0
1, 37392, Note_on_c, 0, 52, 75
1, 37402, Note_on_c, 0, 52, 0
1, 37416, Note_on_c, 0, 62, 75
1, 37426, Note_on_c, 0, 62, 0
1, 37440, Note_on_c, 0, 62, 75
1, 37440, Note_on_c, 1, 45, 75
1, 37464, Note_on_c, 0, 62, 0
1, 37464, Note_on_c, 0, 61, 75
1, 37485, Note_on_c, 1, 45, 0
1, 37487, Note_on_c, 0, 61, 0
1, 37488, Note_on_c, 0, 52, 75
1, 37498, Note_on_c, 0, 52, 0
1, 37512, Note_on_c, 0, 64, 75
1, 37522, Note_on_c, 0, 64, 0
1, 37536, Note_on_c, 0, 64, 75
1, 37536, Note_on_c, 1, 54, 75
1, 37560, Note_on_c, 0, 64, 0
1, 37560, Note_on_c, 0, 62, 75
1, 37581, Note_on_c, 1, 54, 0
1, 37583, Note_on_c, 0, 62, 0
1, 37584, Note_on_c, 0, 62, 75
1, 37584, Note_on_c, 1, 52, 75
1, 37608, Note_on_c, 0, 62, 0
1, 37608, Note_on_c, 0, 61, 75
1, 37629, Note_on_c, 1, 52, 0
1, 37631, Note_on_c, 0, 61, 0
1, 37632, Note_on_c, 0, 61, 75
1, 37632, Note_on_c, 1, 50, 75
1, 37656, Note_on_c, 0, 61, 0
1, 37656, Note_on_c, 0, 59, 75
1, 37677, Note_on_c, 1, 50, 0
1, 37679, Note_on_c, 0, 59, 0
1, 37680, Note_on_c, 0, 59, 75
1, 37680, Note_on_c, 1, 51, 75
1, 37704, Note_on_c, 0, 59, 0
1, 37704, Note_on_c, 0, 57, 75
1, 37725, Note_on_c, 1, 51, 0
1, 37727, Note_on_c, 0, 57, 0
1, 37728, Note_on_c, 0, 56, 75
1, 37728, Note_on_c, 1, 52, 75
1, 37752, Note_on_c, 0, 56, 0
1, 37752, Note_on_c, 0, 57, 75
1, 37773, Note_on_c, 1, 52, 0
1, 37775, Note_on_c, 0, 57, 0
1, 37776, Note_on_c, 0, 57, 76
1, 37776, Note_on_c, 1, 54, 76
1, 37800, Note_on_c, 0, 57, 0
1, 37800, Note_on_c, 0, 59, 77
1, 37821, Note_on_c, 1, 54, 0
1, 37823, Note_on_c, 0, 59, 0
1, 37824, Note_on_c, 0, 59, 78
1, 37824, Note_on_c, 1, 56, 78
1, 37848, Note_on_c, 0, 59, 0
1, 37848, Note_on_c, 0, 61, 78
1, 37869, Note_on_c, 1, 56, 0
1, 37871, Note_on_c, 0, 61, 0
1, 37872, Note_on_c, 0, 61, 79
1, 37872, Note_on_c, 1, 57, 79
1, 37896, Note_on_c, 0, 61, 0
1, 37896, Note_on_c, 0, 62, 80
1, 37917, Note_on_c, 1, 57, 0
1, 37919, Note_on_c, 0, 62, 0
1, 37920, Note_on_c, 0, 62, 81
1, 37920, Note_on_c, 1, 59, 81
1, 37944, Note_on_c, 0, 62, 0
1, 37944, Note_on_c, 0, 66, 81
1, 37965, Note_on_c, 1, 59, 0
1, 37967, Note_on_c, 0, 66, 0
1, 37968, Note_on_c, 0, 64, 82
1, 37968, Note_on_c, 1, 56, 82
1, 37992, Note_on_c, 0, 64, 0
1, 37992, Note_on_c, 0, 62, 83
1, 38013, Note_on_c, 1, 56, 0
1, 38015, Note_on_c, 0, 62, 0
1, 38016, Note_on_c, 0, 62, 84
1, 38016, Note_on_c, 1, 57, 84
1, 38039, Note_on_c, 0, 62, 0
1, 38040, Note_on_c, 0, 61, 83
1, 38061, Note_on_c, 1, 57, 0
1, 38063, Note_on_c, 0, 61, 0
1, 38064, Note_on_c, 0, 61, 82
1, 38064, Note_on_c, 1, 45, 82
1, 38087, Note_on_c, 0, 61, 0
1, 38088, Note_on_c, 0, 69, 81
1, 38109, Note_on_c, 1, 45, 0
1, 38111, Note_on_c, 0, 69, 0
1, 38112, Note_on_c, 0, 69, 81
1, 38160, Note_on_c, 1, 57, 79
1, 38160, Note_on_c, 1, 49, 79
1, 38207, Note_on_c, 1, 57, 0
1, 38207, Note_on_c, 1, 49, 0
1, 38208, Note_on_c, 1, 57, 78
1, 38208, Note_on_c, 1, 49, 78
1, 38231, Note_on_c, 0, 69, 0
1, 38232, Note_on_c, 0, 64, 77
1, 38255, Note_on_c, 0, 64, 0
1, 38255, Note_on_c, 1, 57, 0
1, 38255, Note_on_c, 1, 49, 0
1, 38256, Note_on_c, 0, 66, 76
1, 38256, Note_on_c, 1, 57, 76
1, 38256, Note_on_c, 1, 49, 76
1, 38279, Note_on_c, 0, 66, 0
1, 38280, Note_on_c, 0, 67, 75
1, 38303, Note_on_c, 0, 67, 0
1, 38303, Note_on_c, 1, 57, 0
1, 38303, Note_on_c, 1, 49, 0
1, 38304, Note_on_c, 0, 67, 75
1, 38304, Note_on_c, 1, 57, 75
1, 38304, Note_on_c, 1, 50, 75
1, 38327, Note_on_c, 0, 67, 0
1, 38328, Note_on_c, 0, 66, 75
1, 38351, Note_on_c, 0, 66, 0
1, 38351, Note_on_c, 1, 57, 0
1, 38351, Note_on_c, 1, 50, 0
1, 38352, Note_on_c, 0, 64, 75
1, 38352, Note_on_c, 1, 57, 75
1, 38352, Note_on_c, 1, 50, 75
1, 38375, Note_on_c, 0, 64, 0
1, 38376, Note_on_c, 0, 62, 75
1, 38399, Note_on_c, 0, 62, 0
1, 38399, Note_on_c, 1, 57, 0
1, 38399, Note_on_c, 1, 50, 0
1, 38400, Note_on_c, 0, 61, 75
1, 38400, Note_on_c, 1, 57, 75
1, 38400, Note_on_c, 1, 52, 75
1, 38447, Note_on_c, 1, 57, 0
1, 38447, Note_on_c, 1, 52, 0
1, 38448, Note_on_c, 1, 57, 75
1, 38448, Note_on_c, 1, 52, 75
1, 38489, Note_on_c, 0, 61, 0
1, 38495, Note_on_c, 1, 57, 0
1, 38495, Note_on_c, 1, 52, 0
1, 38496, Note_on_c, 0, 64, 75
1, 38496, Note_on_c, 1, 56, 75
1, 38496, Note_on_c, 1, 52, 75
1, 38519, Note_on_c, 0, 64, 0
1, 38520, Note_on_c, 0, 62, 75
1, 38543, Note_on_c, 0, 62, 0
1, 38543, Note_on_c, 1, 56, 0
1, 38543, Note_on_c, 1, 52, 0
1, 38544, Note_on_c, 0, 61, 75
1, 38544, Note_on_c, 1, 56, 75
1, 38544, Note_on_c, 1, 52, 75
1, 38567, Note_on_c, 0, 61, 0
1, 38568, Note_on_c, 0, 59, 75
1, 38591, Note_on_c, 0, 59, 0
1, 38591, Note_on_c, 1, 56, 0
1, 38591, Note_on_c, 1, 52, 0
1, 38592, Note_on_c, 0, 57, 75
1, 38640, Note_on_c, 1, 33, 75
1, 38681, Note_on_c, 0, 57, 0
1, 38685, Note_on_c, 1, 33, 0
1, 38688, Note_on_c, 1, 45, 75
1, 38733, Note_on_c, 1, 45, 0
1, 38736, Note_on_c, 1, 49, 75
1, 38781, Note_on_c, 1, 49, 0
1, 38784, Note_on_c, 1, 33, 75
1, 38832, Note_on_c, 0, 64, 75
1, 38873, Note_on_c, 1, 33, 0
1, 38877, Note_on_c, 0, 64, 0
1, 38880, Note_on_c, 0, 63, 75
1, 38892, Note_on_c, 0, 63, 0
1, 38892, Note_on_c, 0, 64, 75
1, 38904, Note_on_c, 0, 64, 0
1, 38904, Note_on_c, 0, 66, 75
1, 38916, Note_on_c, 0, 66, 0
1, 38916, Note_on_c, 0, 64, 75
1, 38928, Note_on_c, 1, 59, 69
1, 38928, Note_on_c, 1, 56, 69
1, 38975, Note_on_c, 1, 59, 0
1, 38975, Note_on_c, 1, 56, 0
1, 38976, Note_on_c, 1, 59, 69
1, 38976, Note_on_c, 1, 56, 69
1, 39021, Note_on_c, 0, 64, 0
1, 39023, Note_on_c, 1, 59, 0
1, 39023, Note_on_c, 1, 56, 0
1, 39024, Note_on_c, 0, 66, 75
1, 39024, Note_on_c, 1, 59, 69
1, 39024, Note_on_c, 1, 56, 69
1, 39047, Note_on_c, 0, 66, 0
1, 39048, Note_on_c, 0, 64, 75
1, 39071, Note_on_c, 0, 64, 0
1, 39071, Note_on_c, 1, 59, 0
1, 39071, Note_on_c, 1, 56, 0
1, 39072, Note_on_c, 0, 64, 75
1, 39072, Note_on_c, 1, 59, 69
1, 39072, Note_on_c, 1, 56, 69
1, 39095, Note_on_c, 0, 64, 0
1, 39096, Note_on_c, 0, 62, 75
1, 39119, Note_on_c, 0, 62, 0
1, 39119, Note_on_c, 1, 59, 0
1, 39119, Note_on_c, 1, 56, 0
1, 39120, Note_on_c, 0, 61, 75
1, 39120, Note_on_c, 1, 59, 69
1, 39120, Note_on_c, 1, 56, 69
1, 39143, Note_on_c, 0, 61, 0
1, 39144, Note_on_c, 0, 62, 75
1, 39167, Note_on_c, 0, 62, 0
1, 39167, Note_on_c, 1, 59, 0
1, 39167, Note_on_c, 1, 56, 0
1, 39168, Note_on_c, 0, 62, 75
1, 39216, Note_on_c, 1, 52, 61
1, 39216, Note_on_c, 1, 45, 61
1, 39257, Note_on_c, 0, 62, 0
1, 39263, Note_on_c, 1, 52, 0
1, 39263, Note_on_c, 1, 45, 0
1, 39264, Note_on_c, 0, 61, 75
1, 39264, Note_on_c, 1, 52, 61
1, 39264, Note_on_c, 1, 45, 61
1, 39276, Note_on_c, 0, 61, 0
1, 39276, Note_on_c, 0, 59, 75
1, 39288, Note_on_c, 0, 59, 0
1, 39288, Note_on_c, 0, 61, 75
1, 39311, Note_on_c, 1, 52, 0
1, 39311, Note_on_c, 1, 45, 0
1, 39312, Note_on_c, 1, 52, 61
1, 39312, Note_on_c, 1, 45, 61
1, 39353, Note_on_c, 0, 61, 0
1, 39359, Note_on_c, 1, 52, 0
1, 39359, Note_on_c, 1, 45, 0
1, 39360, Note_on_c, 1, 52, 61
1, 39360, Note_on_c, 1, 45, 61
1, 39407, Note_on_c, 1, 52, 0
1, 39407, Note_on_c, 1, 45, 0
1, 39408, Note_on_c, 0, 64, 75
1, 39408, Note_on_c, 1, 52, 61
1, 39408, Note_on_c, 1, 45, 61
1, 39453, Note_on_c, 0, 64, 0
1, 39455, Note_on_c, 1, 52, 0
1, 39455, Note_on_c, 1, 45, 0
1, 39456, Note_on_c, 0, 63, 75
1, 39468, Note_on_c, 0, 63, 0
1, 39468, Note_on_c, 0, 64, 75
1, 39480, Note_on_c, 0, 64, 0
1, 39480, Note_on_c, 0, 66, 75
1, 39492, Note_on_c, 0, 66, 0
1, 39492, Note_on_c, 0, 64, 75
1, 39504, Note_on_c, 1, 59, 61
1, 39504, Note_on_c, 1, 56, 61
1, 39504, Note_on_c, 1, 50, 61
1, 39551, Note_on_c, 1, 59, 0
1, 39551, Note_on_c, 1, 56, 0
1, 39551, Note_on_c, 1, 50, 0
1, 39552, Note_on_c, 1, 59, 61
1, 39552, Note_on_c, 1, 56, 61
1, 39552, Note_on_c, 1, 50, 61
1, 39597, Note_on_c, 0, 64, 0
1, 39599, Note_on_c, 1, 59, 0
1, 39599, Note_on_c, 1, 56, 0
1, 39599, Note_on_c, 1, 50, 0
1, 39600, Note_on_c, 0, 62, 75
1, 39600, Note_on_c, 1, 59, 61
1, 39600, Note_on_c, 1, 56, 61
1, 39600, Note_on_c, 1, 50, 61
1, 39623, Note_on_c, 0, 62, 0
1, 39624, Note_on_c, 0, 61, 75
1, 39647, Note_on_c, 0, 61, 0
1, 39647, Note_on_c, 1, 59, 0
1, 39647, Note_on_c, 1, 56, 0
1, 39647, Note_on_c, 1, 50, 0
1, 39648, Note_on_c, 0, 61, 75
1, 39648, Note_on_c, 1, 52, 69
1, 39648, Note_on_c, 1, 50, 69
1, 39671, Note_on_c, 0, 61, 0
1, 39672, Note_on_c, 0, 59, 75
1, 39695, Note_on_c, 0, 59, 0
1, 39695, Note_on_c, 1, 52, 0
1, 39695, Note_on_c, 1, 50, 0
1, 39696, Note_on_c, 0, 57, 75
1, 39696, Note_on_c, 1, 52, 69
1, 39696, Note_on_c, 1, 50, 69
1, 39719, Note_on_c, 0, 57, 0
1, 39720, Note_on_c, 0, 56, 75
1, 39743, Note_on_c, 0, 56, 0
1, 39743, Note_on_c, 1, 52, 0
1, 39743, Note_on_c, 1, 50, 0
1, 39744, Note_on_c, 0, 56, 75
1, 39792, Note_on_c, 1, 52, 69
1, 39792, Note_on_c, 1, 49, 69
1, 39839, Note_on_c, 1, 52, 0
1, 39839, Note_on_c, 1, 49, 0
1, 39840, Note_on_c, 0, 56, 0
1, 39840, Note_on_c, 0, 57, 75
1, 39840, Note_on_c, 1, 52, 69
1, 39840, Note_on_c, 1, 49, 69
1, 39887, Note_on_c, 1, 52, 0
1, 39887, Note_on_c, 1, 49, 0
1, 39888, Note_on_c, 1, 52, 69
1, 39888, Note_on_c, 1, 49, 69
1, 39929, Note_on_c, 0, 57, 0
1, 39935, Note_on_c, 1, 52, 0
1, 39935, Note_on_c, 1, 49, 0
1, 39936, Note_on_c, 1, 52, 69
1, 39936, Note_on_c, 1, 49, 69
1, 39983, Note_on_c, 1, 52, 0
1, 39983, Note_on_c, 1, 49, 0
1, 39984, Note_on_c, 0, 64, 75
1, 39984, Note_on_c, 1, 52, 69
1, 39984, Note_on_c, 1, 49, 69
1, 40029, Note_on_c, 0, 64, 0
1, 40031, Note_on_c, 1, 52, 0
1, 40031, Note_on_c, 1, 49, 0
1, 40032, Note_on_c, 0, 63, 75
1, 40055, Note_on_c, 0, 63, 0
1, 40056, Note_on_c, 0, 64, 75
1, 40079, Note_on_c, 0, 64, 0
1, 40080, Note_on_c, 0, 66, 75
1, 40080, Note_on_c, 1, 59, 69
1, 40080, Note_on_c, 1, 56, 69
1, 40103, Note_on_c, 0, 66, 0
1, 40104, Note_on_c, 0, 64, 75
1, 40127, Note_on_c, 0, 64, 0
1, 40127, Note_on_c, 1, 59, 0
1, 40127, Note_on_c, 1, 56, 0
1, 40128, Note_on_c, 0, 64, 75
1, 40128, Note_on_c, 1, 59, 69
1, 40128, Note_on_c, 1, 56, 69
1, 40138, Note_on_c, 0, 64, 0
1, 40152, Note_on_c, 0, 64, 75
1, 40162, Note_on_c, 0, 64, 0
1, 40175, Note_on_c, 1, 59, 0
1, 40175, Note_on_c, 1, 56, 0
1, 40176, Note_on_c, 0, 66, 75
1, 40176, Note_on_c, 1, 59, 69
1, 40176, Note_on_c, 1, 56, 69
1, 40200, Note_on_c, 0, 66, 0
1, 40200, Note_on_c, 0, 64, 75
1, 40223, Note_on_c, 0, 64, 0
1, 40223, Note_on_c, 1, 59, 0
1, 40223, Note_on_c, 1, 56, 0
1, 40224, Note_on_c, 0, 64, 75
1, 40224, Note_on_c, 1, 59, 69
1, 40224, Note_on_c, 1, 56, 69
1, 40247, Note_on_c, 0, 64, 0
1, 40248, Note_on_c, 0, 62, 75
1, 40271, Note_on_c, 0, 62, 0
1, 40271, Note_on_c, 1, 59, 0
1, 40271, Note_on_c, 1, 56, 0
1, 40272, Note_on_c, 0, 61, 75
1, 40272, Note_on_c, 1, 59, 69
1, 40272, Note_on_c, 1, 56, 69
1, 40295, Note_on_c, 0, 61, 0
1, 40296, Note_on_c, 0, 62, 75
1, 40319, Note_on_c, 0, 62, 0
1, 40319, Note_on_c, 1, 59, 0
1, 40319, Note_on_c, 1, 56, 0
1, 40320, Note_on_c, 0, 62, 75
1, 40368, Note_on_c, 1, 52, 61
1, 40368, Note_on_c, 1, 45, 61
1, 40409, Note_on_c, 0, 62, 0
1, 40415, Note_on_c, 1, 52, 0
1, 40415, Note_on_c, 1, 45, 0
1, 40416, Note_on_c, 0, 61, 75
1, 40416, Note_on_c, 1, 52, 61
1, 40416, Note_on_c, 1, 45, 61
1, 40428, Note_on_c, 0, 61, 0
1, 40428, Note_on_c, 0, 59, 75
1, 40440, Note_on_c, 0, 59, 0
1, 40440, Note_on_c, 0, 61, 75
1, 40463, Note_on_c, 1, 52, 0
1, 40463, Note_on_c, 1, 45, 0
1, 40464, Note_on_c, 1, 52, 61
1, 40464, Note_on_c, 1, 45, 61
1, 40505, Note_on_c, 0, 61, 0
1, 40511, Note_on_c, 1, 52, 0
1, 40511, Note_on_c, 1, 45, 0
1, 40512, Note_on_c, 1, 52, 61
1, 40512, Note_on_c, 1, 45, 61
1, 40559, Note_on_c, 1, 52, 0
1, 40559, Note_on_c, 1, 45, 0
1, 40560, Note_on_c, 0, 64, 75
1, 40560, Note_on_c, 1, 52, 61
1, 40560, Note_on_c, 1, 45, 61
1, 40605, Note_on_c, 0, 64, 0
1, 40607, Note_on_c, 1, 52, 0
1, 40607, Note_on_c, 1, 45, 0
1, 40608, Note_on_c, 0, 63, 75
1, 40631, Note_on_c, 0, 63, 0
1, 40632, Note_on_c, 0, 64, 75
1, 40655, Note_on_c, 0, 64, 0
1, 40656, Note_on_c, 0, 66, 75
1, 40656, Note_on_c, 1, 59, 61
1, 40656, Note_on_c, 1, 56, 61
1, 40656, Note_on_c, 1, 50, 61
1, 40679, Note_on_c, 0, 66, 0
1, 40680, Note_on_c, 0, 64, 75
1, 40703, Note_on_c, 0, 64, 0
1, 40703, Note_on_c, 1, 59, 0
1, 40703, Note_on_c, 1, 56, 0
1, 40703, Note_on_c, 1, 50, 0
1, 40704, Note_on_c, 0, 66, 75
1, 40704, Note_on_c, 1, 59, 61
1, 40704, Note_on_c, 1, 56, 61
1, 40704, Note_on_c, 1, 50, 61
1, 40727, Note_on_c, 0, 66, 0
1, 40728, Note_on_c, 0, 64, 75
1, 40751, Note_on_c, 0, 64, 0
1, 40751, Note_on_c, 1, 59, 0
1, 40751, Note_on_c, 1, 56, 0
1, 40751, Note_on_c, 1, 50, 0
1, 40752, Note_on_c, 0, 62, 75
1, 40752, Note_on_c, 1, 59, 61
1, 40752, Note_on_c, 1, 56, 61
1, 40752, Note_on_c, 1, 50, 61
1, 40775, Note_on_c, 0, 62, 0
1, 40776, Note_on_c, 0, 61, 75
1, 40799, Note_on_c, 0, 61, 0
1, 40799, Note_on_c, 1, 59, 0
1, 40799, Note_on_c, 1, 56, 0
1, 40799, Note_on_c, 1, 50, 0
1, 40800, Note_on_c, 0, 61, 75
1, 40800, Note_on_c, 1, 52, 69
1, 40800, Note_on_c, 1, 50, 69
1, 40823, Note_on_c, 0, 61, 0
1, 40824, Note_on_c, 0, 59, 75
1, 40847, Note_on_c, 0, 59, 0
1, 40847, Note_on_c, 1, 52, 0
1, 40847, Note_on_c, 1, 50, 0
1, 40848, Note_on_c, 0, 57, 75
1, 40848, Note_on_c, 1, 52, 69
1, 40848, Note_on_c, 1, 50, 69
1, 40871, Note_on_c, 0, 57, 0
1, 40872, Note_on_c, 0, 56, 75
1, 40895, Note_on_c, 0, 56, 0
1, 40895, Note_on_c, 1, 52, 0
1, 40895, Note_on_c, 1, 50, 0
1, 40896, Note_on_c, 0, 56, 75
1, 40944, Note_on_c, 1, 52, 69
1, 40944, Note_on_c, 1, 49, 69
1, 40991, Note_on_c, 1, 52, 0
1, 40991, Note_on_c, 1, 49, 0
1, 40992, Note_on_c, 0, 56, 0
1, 40992, Note_on_c, 0, 57, 75
1, 40992, Note_on_c, 1, 52, 72
1, 40992, Note_on_c, 1, 49, 72
1, 41037, Note_on_c, 0, 57, 0
1, 41039, Note_on_c, 1, 52, 0
1, 41039, Note_on_c, 1, 49, 0
1, 41040, Note_on_c, 0, 52, 93
1, 41040, Note_on_c, 1, 49, 75
1, 41085, Note_on_c, 1, 49, 0
1, 41088, Note_on_c, 0, 52, 0
1, 41088, Note_on_c, 0, 52, 95
1, 41088, Note_on_c, 1, 49, 78
1, 41133, Note_on_c, 1, 49, 0
1, 41136, Note_on_c, 0, 52, 0
1, 41136, Note_on_c, 0, 53, 97
1, 41136, Note_on_c, 1, 49, 81
1, 41181, Note_on_c, 1, 49, 0
1, 41184, Note_on_c, 0, 53, 0
1, 41184, Note_on_c, 0, 54, 100
1, 41232, Note_on_c, 1, 38, 84
1, 41277, Note_on_c, 1, 38, 0
1, 41280, Note_on_c, 1, 38, 87
1, 41314, Note_on_c, 0, 54, 0
1, 41316, Note_on_c, 0, 59, 94
1, 41325, Note_on_c, 1, 38, 0
1, 41328, Note_on_c, 0, 59, 0
1, 41328, Note_on_c, 0, 58, 95
1, 41328, Note_on_c, 1, 38, 90
1, 41362, Note_on_c, 0, 58, 0
1, 41364, Note_on_c, 0, 61, 97
1, 41373, Note_on_c, 1, 38, 0
1, 41376, Note_on_c, 0, 61, 0
1, 41376, Note_on_c, 0, 59, 98
1, 41376, Note_on_c, 1, 38, 93
1, 41410, Note_on_c, 0, 59, 0
1, 41412, Note_on_c, 0, 62, 101
1, 41421, Note_on_c, 1, 38, 0
1, 41424, Note_on_c, 0, 62, 0
1, 41424, Note_on_c, 0, 61, 102
1, 41424, Note_on_c, 1, 38, 96
1, 41458, Note_on_c, 0, 61, 0
1, 41460, Note_on_c, 0, 64, 105
1, 41469, Note_on_c, 1, 38, 0
1, 41472, Note_on_c, 0, 64, 0
1, 41472, Note_on_c, 0, 62, 106
1, 41472, Note_on_c, 1, 38, 99
1, 41506, Note_on_c, 0, 62, 0
1, 41508, Note_on_c, 0, 66, 103
1, 41520, Note_on_c, 0, 66, 0
1, 41520, Note_on_c, 0, 61, 102
1, 41554, Note_on_c, 0, 61, 0
1, 41556, Note_on_c, 0, 64, 99
1, 41561, Note_on_c, 1, 38, 0
1, 41568, Note_on_c, 0, 64, 0
1, 41568, Note_on_c, 0, 59, 98
1, 41602, Note_on_c, 0, 59, 0
1, 41604, Note_on_c, 0, 62, 95
1, 41616, Note_on_c, 0, 62, 0
1, 41616, Note_on_c, 0, 58, 95
1, 41650, Note_on_c, 0, 58, 0
1, 41652, Note_on_c, 0, 61, 92
1, 41664, Note_on_c, 0, 61, 0
1, 41664, Note_on_c, 0, 59, 91
1, 41698, Note_on_c, 0, 59, 0
1, 41700, Note_on_c, 0, 62, 88
1, 41712, Note_on_c, 0, 62, 0
1, 41712, Note_on_c, 0, 54, 87
1, 41746, Note_on_c, 0, 54, 0
1, 41748, Note_on_c, 0, 59, 84
1, 41760, Note_on_c, 0, 59, 0
1, 41760, Note_on_c, 0, 52, 84
1, 41808, Note_on_c, 1, 49, 75
1, 41853, Note_on_c, 1, 49, 0
1, 41856, Note_on_c, 1, 49, 76
1, 41890, Note_on_c, 0, 52, 0
1, 41892, Note_on_c, 0, 57, 87
1, 41901, Note_on_c, 1, 49, 0
1, 41904, Note_on_c, 0, 57, 0
1, 41904, Note_on_c, 0, 56, 88
1, 41904, Note_on_c, 1, 49, 77
1, 41938, Note_on_c, 0, 56, 0
1, 41940, Note_on_c, 0, 59, 92
1, 41949, Note_on_c, 1, 49, 0
1, 41952, Note_on_c, 0, 59, 0
1, 41952, Note_on_c, 0, 57, 93
1, 41952, Note_on_c, 1, 49, 78
1, 41986, Note_on_c, 0, 57, 0
1, 41988, Note_on_c, 0, 61, 96
1, 41997, Note_on_c, 1, 49, 0
1, 42000, Note_on_c, 0, 61, 0
1, 42000, Note_on_c, 0, 59, 97
1, 42000, Note_on_c, 1, 49, 80
1, 42034, Note_on_c, 0, 59, 0
1, 42036, Note_on_c, 0, 62, 101
1, 42045, Note_on_c, 1, 49, 0
1, 42048, Note_on_c, 0, 62, 0
1, 42048, Note_on_c, 0, 61, 102
1, 42048, Note_on_c, 1, 49, 81
1, 42082, Note_on_c, 0, 61, 0
1, 42084, Note_on_c, 0, 64, 106
1, 42096, Note_on_c, 0, 64, 0
1, 42096, Note_on_c, 0, 59, 104
1, 42130, Note_on_c, 0, 59, 0
1, 42132, Note_on_c, 0, 62, 101
1, 42137, Note_on_c, 1, 49, 0
1, 42144, Note_on_c, 0, 62, 0
1, 42144, Note_on_c, 0, 57, 100
1, 42178, Note_on_c, 0, 57, 0
1, 42180, Note_on_c, 0, 61, 97
1, 42192, Note_on_c, 0, 61, 0
1, 42192, Note_on_c, 0, 56, 96
1, 42226, Note_on_c, 0, 56, 0
1, 42228, Note_on_c, 0, 59, 93
1, 42240, Note_on_c, 0, 59, 0
1, 42240, Note_on_c, 0, 57, 92
1, 42274, Note_on_c, 0, 57, 0
1, 42276, Note_on_c, 0, 61, 89
1, 42288, Note_on_c, 0, 61, 0
1, 42288, Note_on_c, 0, 52, 88
1, 42322, Note_on_c, 0, 52, 0
1, 42324, Note_on_c, 0, 57, 85
1, 42336, Note_on_c, 0, 57, 0
1, 42336, Note_on_c, 0, 50, 84
1, 42384, Note_on_c, 1, 47, 75
1, 42425, Note_on_c, 0, 50, 0
1, 42429, Note_on_c, 1, 47, 0
1, 42432, Note_on_c, 0, 62, 75
1, 42432, Note_on_c, 0, 56, 75
1, 42480, Note_on_c, 1, 40, 75
1, 42525, Note_on_c, 1, 40, 0
1, 42528, Note_on_c, 0, 62, 0
1, 42528, Note_on_c, 0, 56, 0
1, 42528, Note_on_c, 0, 61, 75
1, 42528, Note_on_c, 0, 57, 75
1, 42576, Note_on_c, 1, 45, 75
1, 42617, Note_on_c, 0, 61, 0
1, 42617, Note_on_c, 0, 57, 0
1, 42621, Note_on_c, 1, 45, 0
1, 42624, Note_on_c, 0, 56, 75
1, 42624, Note_on_c, 0, 50, 75
1, 42669, Note_on_c, 0, 56, 0
1, 42669, Note_on_c, 0, 50, 0
1, 42672, Note_on_c, 1, 47, 75
1, 42717, Note_on_c, 1, 47, 0
1, 42720, Note_on_c, 0, 62, 75
1, 42720, Note_on_c, 0, 56, 75
1, 42768, Note_on_c, 1, 40, 75
1, 42813, Note_on_c, 1, 40, 0
1, 42816, Note_on_c, 0, 62, 0
1, 42816, Note_on_c, 0, 56, 0
1, 42816, Note_on_c, 0, 61, 75
1, 42816, Note_on_c, 0, 57, 75
1, 42864, Note_on_c, 1, 45, 75
1, 42905, Note_on_c, 0, 61, 0
1, 42905, Note_on_c, 0, 57, 0
1, 42909, Note_on_c, 1, 45, 0
1, 42912, Note_on_c, 1, 38, 75
1, 42960, Note_on_c, 0, 54, 75
1, 42980, Note_on_c, 0, 54, 0
1, 43001, Note_on_c, 1, 38, 0
1, 43008, Note_on_c, 0, 59, 75
1, 43028, Note_on_c, 0, 59, 0
1, 43056, Note_on_c, 0, 62, 75
1, 43076, Note_on_c, 0, 62, 0
1, 43104, Note_on_c, 0, 66, 75
1, 43124, Note_on_c, 0, 66, 0
1, 43152, Note_on_c, 0, 66, 75
1, 43172, Note_on_c, 0, 66, 0
1, 43200, Note_on_c, 0, 66, 75
1, 43248, Note_on_c, 1, 49, 75
1, 43293, Note_on_c, 1, 49, 0
1, 43296, Note_on_c, 1, 49, 75
1, 43319, Note_on_c, 0, 66, 0
1, 43320, Note_on_c, 0, 64, 75
1, 43341, Note_on_c, 1, 49, 0
1, 43343, Note_on_c, 0, 64, 0
1, 43344, Note_on_c, 0, 62, 75
1, 43344, Note_on_c, 1, 49, 75
1, 43367, Note_on_c, 0, 62, 0
1, 43368, Note_on_c, 0, 61, 75
1, 43389, Note_on_c, 1, 49, 0
1, 43391, Note_on_c, 0, 61, 0
1, 43392, Note_on_c, 0, 61, 75
1, 43392, Note_on_c, 1, 50, 75
1, 43415, Note_on_c, 0, 61, 0
1, 43416, Note_on_c, 0, 59, 75
1, 43437, Note_on_c, 1, 50, 0
1, 43439, Note_on_c, 0, 59, 0
1, 43440, Note_on_c, 0, 57, 75
1, 43440, Note_on_c, 1, 52, 75
1, 43463, Note_on_c, 0, 57, 0
1, 43464, Note_on_c, 0, 56, 75
1, 43485, Note_on_c, 1, 52, 0
1, 43487, Note_on_c, 0, 56, 0
1, 43488, Note_on_c, 0, 57, 75
1, 43488, Note_on_c, 1, 45, 75
1, 43533, Note_on_c, 0, 57, 0
1, 43536, Note_on_c, 0, 76, 61
1, 43556, Note_on_c, 0, 76, 0
1, 43577, Note_on_c, 1, 45, 0
1, 43584, Note_on_c, 0, 76, 61
1, 43584, Note_on_c, 1, 73, 61
1, 43604, Note_on_c, 0, 76, 0
1, 43623, Note_on_c, 1, 73, 0
1, 43632, Note_on_c, 0, 76, 61
1, 43652, Note_on_c, 0, 76, 0
1, 43680, Note_on_c, 0, 76, 61
1, 43680, Note_on_c, 1, 68, 61
1, 43703, Note_on_c, 0, 76, 0
1, 43704, Note_on_c, 0, 78, 61
1, 43719, Note_on_c, 1, 68, 0
1, 43727, Note_on_c, 0, 78, 0
1, 43728, Note_on_c, 0, 76, 61
1, 43751, Note_on_c, 0, 76, 0
1, 43752, Note_on_c, 0, 74, 61
1, 43775, Note_on_c, 0, 74, 0
1, 43776, Note_on_c, 0, 73, 61
1, 43776, Note_on_c, 1, 69, 61
1, 43796, Note_on_c, 0, 73, 0
1, 43815, Note_on_c, 1, 69, 0
1, 43824, Note_on_c, 0, 52, 75
1, 43869, Note_on_c, 0, 52, 0
1, 43872, Note_on_c, 0, 52, 75
1, 43895, Note_on_c, 0, 52, 0
1, 43896, Note_on_c, 0, 50, 75
1, 43919, Note_on_c, 0, 50, 0
1, 43920, Note_on_c, 0, 49, 75
1, 43943, Note_on_c, 0, 49, 0
1, 43944, Note_on_c, 0, 50, 75
1, 43967, Note_on_c, 0, 50, 0
1, 43968, Note_on_c, 0, 52, 75
1, 43968, Note_on_c, 1, 33, 75
1, 43991, Note_on_c, 0, 52, 0
1, 43992, Note_on_c, 0, 54, 75
1, 44015, Note_on_c, 0, 54, 0
1, 44016, Note_on_c, 0, 56, 75
1, 44039, Note_on_c, 0, 56, 0
1, 44040, Note_on_c, 0, 57, 75
1, 44057, Note_on_c, 1, 33, 0
1, 44063, Note_on_c, 0, 57, 0
1, 44064, Note_on_c, 0, 56, 75
1, 44064, Note_on_c, 1, 38, 75
1, 44087, Note_on_c, 0, 56, 0
1, 44088, Note_on_c, 0, 54, 75
1, 44111, Note_on_c, 0, 54, 0
1, 44112, Note_on_c, 0, 52, 75
1, 44135, Note_on_c, 0, 52, 0
1, 44136, Note_on_c, 0, 50, 75
1, 44153, Note_on_c, 1, 38, 0
1, 44159, Note_on_c, 0, 50, 0
1, 44160, Note_on_c, 0, 50, 75
1, 44160, Note_on_c, 1, 40, 75
1, 44183, Note_on_c, 0, 50, 0
1, 44184, Note_on_c, 0, 49, 75
1, 44207, Note_on_c, 0, 49, 0
1, 44208, Note_on_c, 0, 52, 75
1, 44231, Note_on_c, 0, 52, 0
1, 44232, Note_on_c, 0, 45, 75
1, 44249, Note_on_c, 1, 40, 0
1, 44255, Note_on_c, 0, 45, 0
1, 44256, Note_on_c, 0, 49, 75
1, 44256, Note_on_c, 1, 40, 75
1, 44279, Note_on_c, 0, 49, 0
1, 44280, Note_on_c, 0, 47, 75
1, 44303, Note_on_c, 0, 47, 0
1, 44304, Note_on_c, 0, 45, 75
1, 44327, Note_on_c, 0, 45, 0
1, 44328, Note_on_c, 0, 44, 75
1, 44345, Note_on_c, 1, 40, 0
1, 44351, Note_on_c, 0, 44, 0
1, 44352, Note_on_c, 0, 45, 75
1, 44352, Note_on_c, 1, 33, 75
1, 44397, Note_on_c, 0, 45, 0
1, 44400, Note_on_c, 0, 76, 61
1, 44441, Note_on_c, 1, 33, 0
1, 44445, Note_on_c, 0, 76, 0
1, 44448, Note_on_c, 0, 76, 61
1, 44448, Note_on_c, 1, 73, 61
1, 44448, Note_on_c, 1, 69, 61
1, 44493, Note_on_c, 0, 76, 0
1, 44496, Note_on_c, 0, 76, 61
1, 44541, Note_on_c, 0, 76, 0
1, 44544, Note_on_c, 0, 76, 61
1, 44544, Note_on_c, 1, 73, 0
1, 44544, Note_on_c, 1, 69, 0
1, 44544, Note_on_c, 1, 71, 61
1, 44544, Note_on_c, 1, 68, 61
1, 44578, Note_on_c, 0, 76, 0
1, 44580, Note_on_c, 0, 74, 61
1, 44586, Note_on_c, 0, 74, 0
1, 44586, Note_on_c, 0, 76, 61
1, 44592, Note_on_c, 0, 76, 0
1, 44592, Note_on_c, 0, 78, 61
1, 44607, Note_on_c, 0, 78, 0
1, 44608, Note_on_c, 0, 76, 61
1, 44623, Note_on_c, 0, 76, 0
1, 44624, Note_on_c, 0, 74, 61
1, 44633, Note_on_c, 1, 71, 0
1, 44633, Note_on_c, 1, 68, 0
1, 44639, Note_on_c, 0, 74, 0
1, 44640, Note_on_c, 0, 73, 61
1, 44640, Note_on_c, 1, 69, 61
1, 44685, Note_on_c, 0, 73, 0
1, 44688, Note_on_c, 0, 52, 75
1, 44698, Note_on_c, 0, 52, 0
1, 44712, Note_on_c, 0, 54, 75
1, 44722, Note_on_c, 0, 54, 0
1, 44729, Note_on_c, 1, 69, 0
1, 44736, Note_on_c, 0, 52, 75
1, 44746, Note_on_c, 0, 52, 0
1, 44760, Note_on_c, 0, 50, 75
1, 44770, Note_on_c, 0, 50, 0
1, 44784, Note_on_c, 0, 49, 75
1, 44794, Note_on_c, 0, 49, 0
1, 44808, Note_on_c, 0, 50, 75
1, 44818, Note_on_c, 0, 50, 0
1, 44832, Note_on_c, 0, 52, 75
1, 44832, Note_on_c, 1, 33, 75
1, 44842, Note_on_c, 0, 52, 0
1, 44856, Note_on_c, 0, 54, 75
1, 44866, Note_on_c, 0, 54, 0
1, 44880, Note_on_c, 0, 56, 75
1, 44890, Note_on_c, 0, 56, 0
1, 44904, Note_on_c, 0, 57, 75
1, 44914, Note_on_c, 0, 57, 0
1, 44921, Note_on_c, 1, 33, 0
1, 44928, Note_on_c, 0, 56, 75
1, 44928, Note_on_c, 1, 38, 75
1, 44952, Note_on_c, 0, 56, 0
1, 44952, Note_on_c, 0, 54, 75
1, 44967, Note_on_c, 1, 38, 0
1, 44975, Note_on_c, 0, 54, 0
1, 44976, Note_on_c, 0, 57, 75
1, 44986, Note_on_c, 0, 57, 0
1, 45000, Note_on_c, 0, 54, 75
1, 45010, Note_on_c, 0, 54, 0
1, 45024, Note_on_c, 0, 54, 75
1, 45024, Note_on_c, 1, 49, 75
1, 45048, Note_on_c, 0, 54, 0
1, 45048, Note_on_c, 0, 52, 75
1, 45063, Note_on_c, 1, 49, 0
1, 45071, Note_on_c, 0, 52, 0
1, 45072, Note_on_c, 0, 57, 75
1, 45082, Note_on_c, 0, 57, 0
1, 45096, Note_on_c, 0, 52, 75
1, 45106, Note_on_c, 0, 52, 0
1, 45120, Note_on_c, 0, 52, 75
1, 45120, Note_on_c, 1, 47, 75
1, 45140, Note_on_c, 1, 47, 0
1, 45144, Note_on_c, 0, 52, 0
1, 45144, Note_on_c, 0, 50, 75
1, 45167, Note_on_c, 0, 50, 0
1, 45168, Note_on_c, 0, 59, 75
1, 45168, Note_on_c, 1, 40, 75
1, 45178, Note_on_c, 0, 59, 0
1, 45188, Note_on_c, 1, 40, 0
1, 45192, Note_on_c, 0, 50, 75
1, 45202, Note_on_c, 0, 50, 0
1, 45216, Note_on_c, 0, 49, 75
1, 45216, Note_on_c, 1, 45, 75
1, 45240, Note_on_c, 0, 49, 0
1, 45240, Note_on_c, 0, 52, 75
1, 45261, Note_on_c, 1, 45, 0
1, 45263, Note_on_c, 0, 52, 0
1, 45264, Note_on_c, 0, 50, 76
1, 45264, Note_on_c, 1, 47, 76
1, 45288, Note_on_c, 0, 50, 0
1, 45288, Note_on_c, 0, 54, 76
1, 45309, Note_on_c, 1, 47, 0
1, 45311, Note_on_c, 0, 54, 0
1, 45312, Note_on_c, 0, 52, 77
1, 45312, Note_on_c, 1, 49, 77
1, 45336, Note_on_c, 0, 52, 0
1, 45336, Note_on_c, 0, 56, 78
1, 45357, Note_on_c, 1, 49, 0
1, 45359, Note_on_c, 0, 56, 0
1, 45360, Note_on_c, 0, 54, 78
1, 45360, Note_on_c, 1, 50, 78
1, 45384, Note_on_c, 0, 54, 0
1, 45384, Note_on_c, 0, 57, 79
1, 45405, Note_on_c, 1, 50, 0
1, 45407, Note_on_c, 0, 57, 0
1, 45408, Note_on_c, 0, 56, 80
1, 45408, Note_on_c, 1, 52, 80
1, 45432, Note_on_c, 0, 56, 0
1, 45432, Note_on_c, 0, 59, 80
1, 45453, Note_on_c, 1, 52, 0
1, 45455, Note_on_c, 0, 59, 0
1, 45456, Note_on_c, 0, 57, 81
1, 45456, Note_on_c, 1, 54, 81
1, 45480, Note_on_c, 0, 57, 0
1, 45480, Note_on_c, 0, 61, 82
1, 45501, Note_on_c, 1, 54, 0
1, 45503, Note_on_c, 0, 61, 0
1, 45504, Note_on_c, 0, 59, 82
1, 45504, Note_on_c, 1, 56, 82
1, 45528, Note_on_c, 0, 59, 0
1, 45528, Note_on_c, 0, 62, 83
1, 45549, Note_on_c, 1, 56, 0
1, 45551, Note_on_c, 0, 62, 0
1, 45552, Note_on_c, 0, 61, 84
1, 45552, Note_on_c, 1, 57, 84
1, 45576, Note_on_c, 0, 61, 0
1, 45576, Note_on_c, 0, 64, 84
1, 45597, Note_on_c, 1, 57, 0
1, 45599, Note_on_c, 0, 64, 0
1, 45600, Note_on_c, 0, 62, 85
1, 45600, Note_on_c, 1, 59, 85
1, 45624, Note_on_c, 0, 62, 0
1, 45624, Note_on_c, 0, 66, 85
1, 45645, Note_on_c, 1, 59, 0
1, 45647, Note_on_c, 0, 66, 0
1, 45648, Note_on_c, 0, 59, 86
1, 45648, Note_on_c, 1, 56, 86
1, 45672, Note_on_c, 0, 59, 0
1, 45672, Note_on_c, 0, 62, 87
1, 45693, Note_on_c, 1, 56, 0
1, 45695, Note_on_c, 0, 62, 0
1, 45696, Note_on_c, 0, 61, 87
1, 45696, Note_on_c, 1, 57, 87
1, 45720, Note_on_c, 0, 61, 0
1, 45720, Note_on_c, 0, 64, 88
1, 45741, Note_on_c, 1, 57, 0
1, 45743, Note_on_c, 0, 64, 0
1, 45744, Note_on_c, 0, 57, 89
1, 45744, Note_on_c, 1, 54, 89
1, 45768, Note_on_c, 0, 57, 0
1, 45768, Note_on_c, 0, 61, 89
1, 45789, Note_on_c, 1, 54, 0
1, 45791, Note_on_c, 0, 61, 0
1, 45792, Note_on_c, 1, 51, 90
1, 45840, Note_on_c, 0, 69, 91
1, 45840, Note_on_c, 0, 61, 91
1, 45885, Note_on_c, 0, 69, 0
1, 45885, Note_on_c, 0, 61, 0
1, 45888, Tempo, 923076
1, 45888, Note_on_c, 0, 69, 93
1, 45888, Note_on_c, 0, 61, 93
1, 45933, Note_on_c, 0, 69, 0
1, 45933, Note_on_c, 0, 61, 0
1, 45936, Tempo, 1000000
1, 45936, Note_on_c, 0, 69, 94
1, 45936, Note_on_c, 0, 61, 94
1, 45981, Note_on_c, 0, 69, 0
1, 45981, Note_on_c, 0, 61, 0
1, 45981, Note_on_c, 1, 51, 0
1, 45984, Tempo, 1090909
1, 45984, Note_on_c, 0, 69, 95
1, 45984, Note_on_c, 0, 61, 95
1, 45984, Note_on_c, 1, 51, 95
1, 45984, Note_on_c, 1, 39, 95
1, 46029, Note_on_c, 0, 69, 0
1, 46029, Note_on_c, 0, 61, 0
1, 46032, Tempo, 1200000
1, 46032, Note_on_c, 0, 69, 96
1, 46032, Note_on_c, 0, 61, 96
1, 46077, Note_on_c, 0, 69, 0
1, 46077, Note_on_c, 0, 61, 0
1, 46077, Note_on_c, 1, 51, 0
1, 46077, Note_on_c, 1, 39, 0
1, 46080, Tempo, 857142
1, 46080, Note_on_c, 0, 69, 98
1, 46080, Note_on_c, 0, 61, 98
1, 46080, Note_on_c, 1, 52, 98
1, 46080, Note_on_c, 1, 40, 98
1, 46345, Note_on_c, 0, 69, 0
1, 46345, Note_on_c, 0, 61, 0
1, 46345, Note_on_c, 1, 52, 0
1, 46345, Note_on_c, 1, 40, 0
1, 46416, Note_on_c, 0, 76, 75
1, 46436, Note_on_c, 0, 76, 0
1, 46464, Note_on_c, 0, 76, 75
1, 46484, Note_on_c, 0, 76, 0
1, 46512, Note_on_c, 0, 76, 75
1, 46532, Note_on_c, 0, 76, 0
1, 46560, Note_on_c, 0, 76, 75
1, 46583, Note_on_c, 0, 76, 0
1, 46584, Note_on_c, 0, 78, 75
1, 46607, Note_on_c, 0, 78, 0
1, 46608, Note_on_c, 0, 76, 75
1, 46631, Note_on_c, 0, 76, 0
1, 46632, Note_on_c, 0, 74, 75
1, 46655, Note_on_c, 0, 74, 0
1, 46656, Note_on_c, 0, 73, 91
1, 46676, Note_on_c, 0, 73, 0
1, 46704, Note_on_c, 0, 73, 75
1, 46704, Note_on_c, 0, 69, 75
1, 46724, Note_on_c, 0, 73, 0
1, 46724, Note_on_c, 0, 69, 0
1, 46752, Note_on_c, 0, 73, 75
1, 46752, Note_on_c, 0, 69, 75
1, 46772, Note_on_c, 0, 73, 0
1, 46772, Note_on_c, 0, 69, 0
1, 46800, Note_on_c, 0, 73, 75
1, 46800, Note_on_c, 0, 69, 75
1, 46820, Note_on_c, 0, 73, 0
1, 46820, Note_on_c, 0, 69, 0
1, 46848, Note_on_c, 0, 73, 75
1, 46848, Note_on_c, 0, 69, 75
1, 46871, Note_on_c, 0, 73, 0
1, 46871, Note_on_c, 0, 69, 0
1, 46872, Note_on_c, 0, 74, 75
1, 46872, Note_on_c, 0, 71, 75
1, 46895, Note_on_c, 0, 74, 0
1, 46895, Note_on_c, 0, 71, 0
1, 46896, Note_on_c, 0, 73, 75
1, 46896, Note_on_c, 0, 69, 75
1, 46919, Note_on_c, 0, 73, 0
1, 46919, Note_on_c, 0, 69, 0
1, 46920, Note_on_c, 0, 71, 75
1, 46920, Note_on_c, 0, 68, 75
1, 46943, Note_on_c, 0, 71, 0
1, 46943, Note_on_c, 0, 68, 0
1, 46944, Note_on_c, 0, 69, 75
1, 46944, Note_on_c, 0, 66, 75
1, 46967, Note_on_c, 0, 69, 0
1, 46967, Note_on_c, 0, 66, 0
1, 46968, Note_on_c, 0, 71, 75
1, 46968, Note_on_c, 0, 68, 75
1, 46991, Note_on_c, 0, 71, 0
1, 46991, Note_on_c, 0, 68, 0
1, 46992, Note_on_c, 0, 69, 75
1, 46992, Note_on_c, 0, 66, 75
1, 47015, Note_on_c, 0, 69, 0
1, 47015, Note_on_c, 0, 66, 0
1, 47016, Note_on_c, 0, 68, 75
1, 47016, Note_on_c, 0, 64, 75
1, 47039, Note_on_c, 0, 68, 0
1, 47039, Note_on_c, 0, 64, 0
1, 47040, Note_on_c, 0, 66, 75
1, 47040, Note_on_c, 0, 62, 75
1, 47063, Note_on_c, 0, 66, 0
1, 47063, Note_on_c, 0, 62, 0
1, 47064, Note_on_c, 0, 68, 75
1, 47064, Note_on_c, 0, 64, 75
1, 47087, Note_on_c, 0, 68, 0
1, 47087, Note_on_c, 0, 64, 0
1, 47088, Note_on_c, 0, 66, 75
1, 47088, Note_on_c, 0, 62, 75
1, 47111, Note_on_c, 0, 66, 0
1, 47111, Note_on_c, 0, 62, 0
1, 47112, Note_on_c, 0, 64, 75
1, 47112, Note_on_c, 0, 61, 75
1, 47135, Note_on_c, 0, 64, 0
1, 47135, Note_on_c, 0, 61, 0
1, 47136, Note_on_c, 0, 62, 75
1, 47136, Note_on_c, 0, 59, 75
1, 47159, Note_on_c, 0, 62, 0
1, 47159, Note_on_c, 0, 59, 0
1, 47160, Note_on_c, 0, 64, 75
1, 47160, Note_on_c, 0, 61, 75
1, 47183, Note_on_c, 0, 64, 0
1, 47183, Note_on_c, 0, 61, 0
1, 47184, Note_on_c, 0, 62, 75
1, 47184, Note_on_c, 0, 59, 75
1, 47207, Note_on_c, 0, 62, 0
1, 47207, Note_on_c, 0, 59, 0
1, 47208, Note_on_c, 0, 61, 75
1, 47208, Note_on_c, 0, 57, 75
1, 47231, Note_on_c, 0, 61, 0
1, 47231, Note_on_c, 0, 57, 0
1, 47232, Note_on_c, 1, 59, 106
1, 47232, Note_on_c, 1, 56, 106
1, 47280, Note_on_c, 0, 74, 75
1, 47300, Note_on_c, 0, 74, 0
1, 47328, Note_on_c, 0, 74, 75
1, 47348, Note_on_c, 0, 74, 0
1, 47376, Note_on_c, 0, 74, 75
1, 47396, Note_on_c, 0, 74, 0
1, 47409, Note_on_c, 1, 59, 0
1, 47409, Note_on_c, 1, 56, 0
1, 47424, Note_on_c, 0, 74, 75
1, 47447, Note_on_c, 0, 74, 0
1, 47448, Note_on_c, 0, 76, 75
1, 47471, Note_on_c, 0, 76, 0
1, 47472, Note_on_c, 0, 74, 75
1, 47495, Note_on_c, 0, 74, 0
1, 47496, Note_on_c, 0, 73, 75
1, 47519, Note_on_c, 0, 73, 0
1, 47520, Note_on_c, 0, 71, 91
1, 47540, Note_on_c, 0, 71, 0
1, 47568, Note_on_c, 0, 71, 75
1, 47568, Note_on_c, 0, 68, 75
1, 47588, Note_on_c, 0, 71, 0
1, 47588, Note_on_c, 0, 68, 0
1, 47616, Note_on_c, 0, 71, 75
1, 47616, Note_on_c, 0, 68, 75
1, 47636, Note_on_c, 0, 71, 0
1, 47636, Note_on_c, 0, 68, 0
1, 47664, Note_on_c, 0, 71, 75
1, 47664, Note_on_c, 0, 68, 75
1, 47684, Note_on_c, 0, 71, 0
1, 47684, Note_on_c, 0, 68, 0
1, 47712, Note_on_c, 0, 71, 75
1, 47712, Note_on_c, 0, 68, 75
1, 47735, Note_on_c, 0, 71, 0
1, 47735, Note_on_c, 0, 68, 0
1, 47736, Note_on_c, 0, 73, 75
1, 47736, Note_on_c, 0, 69, 75
1, 47759, Note_on_c, 0, 73, 0
1, 47759, Note_on_c, 0, 69, 0
1, 47760, Note_on_c, 0, 71, 75
1, 47760, Note_on_c, 0, 68, 75
1, 47783, Note_on_c, 0, 71, 0
1, 47783, Note_on_c, 0, 68, 0
1, 47784, Note_on_c, 0, 69, 75
1, 47784, Note_on_c, 0, 66, 75
1, 47807, Note_on_c, 0, 69, 0
1, 47807, Note_on_c, 0, 66, 0
1, 47808, Note_on_c, 0, 68, 75
1, 47808, Note_on_c, 0, 64, 75
1, 47831, Note_on_c, 0, 68, 0
1, 47831, Note_on_c, 0, 64, 0
1, 47832, Note_on_c, 0, 69, 75
1, 47832, Note_on_c, 0, 66, 75
1, 47855, Note_on_c, 0, 69, 0
1, 47855, Note_on_c, 0, 66, 0
1, 47856, Note_on_c, 0, 68, 75
1, 47856, Note_on_c, 0, 64, 75
1, 47879, Note_on_c, 0, 68, 0
1, 47879, Note_on_c, 0, 64, 0
1, 47880, Note_on_c, 0, 66, 75
1, 47880, Note_on_c, 0, 62, 75
1, 47903, Note_on_c, 0, 66, 0
1, 47903, Note_on_c, 0, 62, 0
1, 47904, Note_on_c, 0, 64, 75
1, 47904, Note_on_c, 0, 61, 75
1, 47927, Note_on_c, 0, 64, 0
1, 47927, Note_on_c, 0, 61, 0
1, 47928, Note_on_c, 0, 66, 75
1, 47928, Note_on_c, 0, 62, 75
1, 47951, Note_on_c, 0, 66, 0
1, 47951, Note_on_c, 0, 62, 0
1, 47952, Note_on_c, 0, 64, 75
1, 47952, Note_on_c, 0, 61, 75
1, 47975, Note_on_c, 0, 64, 0
1, 47975, Note_on_c, 0, 61, 0
1, 47976, Note_on_c, 0, 62, 75
1, 47976, Note_on_c, 0, 59, 75
1, 47999, Note_on_c, 0, 62, 0
1, 47999, Note_on_c, 0, 59, 0
1, 48000, Note_on_c, 0, 61, 75
1, 48000, Note_on_c, 0, 57, 75
1, 48023, Note_on_c, 0, 61, 0
1, 48023, Note_on_c, 0, 57, 0
1, 48024, Note_on_c, 0, 62, 75
1, 48024, Note_on_c, 0, 59, 75
1, 48047, Note_on_c, 0, 62, 0
1, 48047, Note_on_c, 0, 59, 0
1, 48048, Note_on_c, 0, 61, 75
1, 48048, Note_on_c, 0, 57, 75
1, 48071, Note_on_c, 0, 61, 0
1, 48071, Note_on_c, 0, 57, 0
1, 48072, Note_on_c, 0, 59, 75
1, 48072, Note_on_c, 0, 56, 75
1, 48095, Note_on_c, 0, 59, 0
1, 48095, Note_on_c, 0, 56, 0
1, 48096, Note_on_c, 1, 61, 106
1, 48096, Note_on_c, 1, 57, 106
1, 48144, Note_on_c, 0, 64, 75
1, 48164, Note_on_c, 0, 64, 0
1, 48192, Note_on_c, 0, 69, 75
1, 48212, Note_on_c, 0, 69, 0
1, 48240, Note_on_c, 0, 73, 75
1, 48260, Note_on_c, 0, 73, 0
1, 48288, Note_on_c, 0, 76, 75
1, 48308, Note_on_c, 0, 76, 0
1, 48336, Note_on_c, 0, 73, 75
1, 48356, Note_on_c, 0, 73, 0
1, 48361, Note_on_c, 1, 61, 0
1, 48361, Note_on_c, 1, 57, 0
1, 48384, Note_on_c, 1, 60, 106
1, 48384, Note_on_c, 1, 57, 106
1, 48432, Note_on_c, 0, 64, 75
1, 48452, Note_on_c, 0, 64, 0
1, 48480, Note_on_c, 0, 69, 75
1, 48500, Note_on_c, 0, 69, 0
1, 48528, Note_on_c, 0, 72, 75
1, 48548, Note_on_c, 0, 72, 0
1, 48576, Note_on_c, 0, 76, 75
1, 48596, Note_on_c, 0, 76, 0
1, 48624, Note_on_c, 0, 72, 75
1, 48644, Note_on_c, 0, 72, 0
1, 48649, Note_on_c, 1, 60, 0
1, 48649, Note_on_c, 1, 57, 0
1, 48672, Note_on_c, 1, 57, 106
1, 48672, Note_on_c, 1, 53, 106
1, 48696, Note_on_c, 0, 60, 75
1, 48719, Note_on_c, 0, 60, 0
1, 48720, Note_on_c, 0, 62, 75
1, 48743, Note_on_c, 0, 62, 0
1, 48744, Note_on_c, 0, 64, 75
1, 48767, Note_on_c, 0, 64, 0
1, 48768, Note_on_c, 0, 65, 75
1, 48791, Note_on_c, 0, 65, 0
1, 48792, Note_on_c, 0, 67, 75
1, 48815, Note_on_c, 0, 67, 0
1, 48816, Note_on_c, 0, 69, 75
1, 48839, Note_on_c, 0, 69, 0
1, 48840, Note_on_c, 0, 70, 75
1, 48863, Note_on_c, 0, 70, 0
1, 48864, Note_on_c, 0, 72, 75
1, 48884, Note_on_c, 0, 72, 0
1, 48912, Note_on_c, 0, 72, 75
1, 48932, Note_on_c, 0, 72, 0
1, 48937, Note_on_c, 1, 57, 0
1, 48937, Note_on_c, 1, 53, 0
1, 48960, Note_on_c, 1, 57, 106
1, 48960, Note_on_c, 1, 52, 106
1, 48984, Note_on_c, 0, 60, 75
1, 49007, Note_on_c, 0, 60, 0
1, 49008, Note_on_c, 0, 62, 75
1, 49031, Note_on_c, 0, 62, 0
1, 49032, Note_on_c, 0, 64, 75
1, 49055, Note_on_c, 0, 64, 0
1, 49056, Note_on_c, 0, 66, 75
1, 49079, Note_on_c, 0, 66, 0
1, 49080, Note_on_c, 0, 68, 75
1, 49103, Note_on_c, 0, 68, 0
1, 49104, Note_on_c, 0, 69, 75
1, 49127, Note_on_c, 0, 69, 0
1, 49128, Note_on_c, 0, 71, 75
1, 49151, Note_on_c, 0, 71, 0
1, 49152, Note_on_c, 0, 72, 75
1, 49172, Note_on_c, 0, 72, 0
1, 49200, Note_on_c, 0, 72, 75
1, 49220, Note_on_c, 0, 72, 0
1, 49225, Note_on_c, 1, 57, 0
1, 49225, Note_on_c, 1, 52, 0
1, 49248, Note_on_c, 1, 57, 106
1, 49248, Note_on_c, 1, 54, 106
1, 49248, Note_on_c, 1, 51, 106
1, 49272, Note_on_c, 0, 60, 75
1, 49282, Note_on_c, 0, 60, 0
1, 49296, Note_on_c, 0, 63, 75
1, 49306, Note_on_c, 0, 63, 0
1, 49320, Note_on_c, 0, 66, 75
1, 49330, Note_on_c, 0, 66, 0
1, 49344, Note_on_c, 0, 69, 75
1, 49354, Note_on_c, 0, 69, 0
1, 49368, Note_on_c, 0, 72, 75
1, 49378, Note_on_c, 0, 72, 0
1, 49392, Note_on_c, 0, 75, 75
1, 49402, Note_on_c, 0, 75, 0
1, 49416, Note_on_c, 0, 78, 75
1, 49425, Note_on_c, 1, 57, 0
1, 49425, Note_on_c, 1, 54, 0
1, 49425, Note_on_c, 1, 51, 0
1, 49426, Note_on_c, 0, 78, 0
1, 49440, Note_on_c, 0, 81, 75
1, 49450, Note_on_c, 0, 81, 0
1, 49464, Note_on_c, 0, 78, 75
1, 49474, Note_on_c, 0, 78, 0
1, 49488, Note_on_c, 0, 75, 75
1, 49498, Note_on_c, 0, 75, 0
1, 49512, Note_on_c, 0, 72, 75
1, 49522, Note_on_c, 0, 72, 0
1, 49536, Note_on_c, 0, 69, 75
1, 49546, Note_on_c, 0, 69, 0
1, 49560, Note_on_c, 0, 66, 75
1, 49570, Note_on_c, 0, 66, 0
1, 49584, Note_on_c, 0, 63, 75
1, 49594, Note_on_c, 0, 63, 0
1, 49608, Note_on_c, 0, 60, 75
1, 49618, Note_on_c, 0, 60, 0
1, 49632, Note_on_c, 0, 61, 75
1, 49677, Note_on_c, 0, 61, 0
1, 49680, Note_on_c, 0, 69, 91
1, 49680, Note_on_c, 1, 57, 106
1, 49680, Note_on_c, 1, 49, 106
1, 49727, Note_on_c, 1, 57, 0
1, 49727, Note_on_c, 1, 49, 0
1, 49728, Note_on_c, 1, 57, 106
1, 49728, Note_on_c, 1, 49, 106
1, 49751, Note_on_c, 0, 69, 0
1, 49752, Note_on_c, 0, 64, 75
1, 49775, Note_on_c, 0, 64, 0
1, 49775, Note_on_c, 1, 57, 0
1, 49775, Note_on_c, 1, 49, 0
1, 49776, Note_on_c, 0, 66, 75
1, 49776, Note_on_c, 1, 57, 106
1, 49776, Note_on_c, 1, 49, 106
1, 49799, Note_on_c, 0, 66, 0
1, 49800, Note_on_c, 0, 67, 75
1, 49823, Note_on_c, 0, 67, 0
1, 49823, Note_on_c, 1, 57, 0
1, 49823, Note_on_c, 1, 49, 0
1, 49824, Note_on_c, 0, 67, 75
1, 49824, Note_on_c, 1, 57, 106
1, 49824, Note_on_c, 1, 50, 106
1, 49847, Note_on_c, 0, 67, 0
1, 49848, Note_on_c, 0, 66, 75
1, 49871, Note_on_c, 0, 66, 0
1, 49871, Note_on_c, 1, 57, 0
1, 49871, Note_on_c, 1, 50, 0
1, 49872, Note_on_c, 0, 64, 75
1, 49872, Note_on_c, 1, 57, 106
1, 49872, Note_on_c, 1, 50, 106
1, 49895, Note_on_c, 0, 64, 0
1, 49896, Note_on_c, 0, 62, 75
1, 49919, Note_on_c, 0, 62, 0
1, 49919, Note_on_c, 1, 57, 0
1, 49919, Note_on_c, 1, 50, 0
1, 49920, Note_on_c, 0, 61, 75
1, 49920, Note_on_c, 1, 57, 106
1, 49920, Note_on_c, 1, 52, 106
1, 49967, Note_on_c, 1, 57, 0
1, 49967, Note_on_c, 1, 52, 0
1, 49968, Note_on_c, 1, 57, 106
1, 49968, Note_on_c, 1, 52, 106
1, 50009, Note_on_c, 0, 61, 0
1, 50015, Note_on_c, 1, 57, 0
1, 50015, Note_on_c, 1, 52, 0
1, 50016, Note_on_c, 0, 64, 75
1, 50016, Note_on_c, 1, 56, 106
1, 50016, Note_on_c, 1, 52, 106
1, 50039, Note_on_c, 0, 64, 0
1, 50040, Note_on_c, 0, 62, 75
1, 50063, Note_on_c, 0, 62, 0
1, 50063, Note_on_c, 1, 56, 0
1, 50063, Note_on_c, 1, 52, 0
1, 50064, Note_on_c, 0, 61, 75
1, 50064, Note_on_c, 1, 56, 106
1, 50064, Note_on_c, 1, 52, 106
1, 50087, Note_on_c, 0, 61, 0
1, 50088, Note_on_c, 0, 59, 75
1, 50111, Note_on_c, 0, 59, 0
1, 50111, Note_on_c, 1, 56, 0
1, 50111, Note_on_c, 1, 52, 0
1, 50112, Note_on_c, 0, 61, 75
1, 50112, Note_on_c, 1, 57, 106
1, 50112, Note_on_c, 1, 45, 106
1, 50127, Note_on_c, 0, 61, 0
1, 50128, Note_on_c, 0, 57, 75
1, 50143, Note_on_c, 0, 57, 0
1, 50144, Note_on_c, 0, 61, 75
1, 50159, Note_on_c, 0, 61, 0
1, 50160, Note_on_c, 0, 64, 75
1, 50175, Note_on_c, 0, 64, 0
1, 50176, Note_on_c, 0, 61, 75
1, 50191, Note_on_c, 0, 61, 0
1, 50192, Note_on_c, 0, 64, 75
1, 50207, Note_on_c, 0, 64, 0
1, 50208, Note_on_c, 0, 69, 75
1, 50223, Note_on_c, 0, 69, 0
1, 50224, Note_on_c, 0, 64, 75
1, 50239, Note_on_c, 0, 64, 0
1, 50240, Note_on_c, 0, 69, 75
1, 50255, Note_on_c, 0, 69, 0
1, 50256, Note_on_c, 0, 73, 75
1, 50271, Note_on_c, 0, 73, 0
1, 50272, Note_on_c, 0, 69, 75
1, 50287, Note_on_c, 0, 69, 0
1, 50288, Note_on_c, 0, 73, 75
1, 50299, Note_on_c, 1, 57, 0
1, 50299, Note_on_c, 1, 45, 0
1, 50303, Note_on_c, 0, 73, 0
1, 50304, Note_on_c, 0, 76, 75
1, 50314, Note_on_c, 0, 76, 0
1, 50328, Note_on_c, 0, 64, 75
1, 50351, Note_on_c, 0, 64, 0
1, 50352, Note_on_c, 0, 66, 75
1, 50375, Note_on_c, 0, 66, 0
1, 50376, Note_on_c, 0, 67, 75
1, 50399, Note_on_c, 0, 67, 0
1, 50400, Note_on_c, 0, 67, 75
1, 50400, Note_on_c, 1, 57, 106
1, 50400, Note_on_c, 1, 50, 106
1, 50424, Note_on_c, 0, 67, 0
1, 50424, Note_on_c, 0, 66, 75
1, 50447, Note_on_c, 0, 66, 0
1, 50447, Note_on_c, 1, 57, 0
1, 50447, Note_on_c, 1, 50, 0
1, 50448, Note_on_c, 0, 74, 75
1, 50448, Note_on_c, 1, 57, 106
1, 50448, Note_on_c, 1, 50, 106
1, 50472, Note_on_c, 0, 74, 0
1, 50472, Note_on_c, 0, 71, 75
1, 50495, Note_on_c, 0, 71, 0
1, 50495, Note_on_c, 1, 57, 0
1, 50495, Note_on_c, 1, 50, 0
1, 50496, Note_on_c, 0, 69, 75
1, 50496, Note_on_c, 1, 57, 106
1, 50496, Note_on_c, 1, 52, 106
1, 50543, Note_on_c, 1, 57, 0
1, 50543, Note_on_c, 1, 52, 0
1, 50544, Note_on_c, 1, 57, 106
1, 50544, Note_on_c, 1, 52, 106
1, 50585, Note_on_c, 0, 69, 0
1, 50591, Note_on_c, 1, 57, 0
1, 50591, Note_on_c, 1, 52, 0
1, 50592, Note_on_c, 0, 68, 75
1, 50592, Note_on_c, 1, 52, 106
1, 50592, Note_on_c, 1, 40, 106
1, 50601, Note_on_c, 0, 68, 0
1, 50601, Note_on_c, 0, 69, 75
1, 50610, Note_on_c, 0, 69, 0
1, 50610, Note_on_c, 0, 68, 75
1, 50619, Note_on_c, 0, 68, 0
1, 50619, Note_on_c, 0, 69, 75
1, 50628, Note_on_c, 0, 69, 0
1, 50628, Note_on_c, 0, 68, 75
1, 50637, Note_on_c, 0, 68, 0
1, 50637, Note_on_c, 0, 69, 75
1, 50639, Note_on_c, 1, 52, 0
1, 50639, Note_on_c, 1, 40, 0
1, 50640, Note_on_c, 1, 52, 106
1, 50640, Note_on_c, 1, 40, 106
1, 50646, Note_on_c, 0, 69, 0
1, 50646, Note_on_c, 0, 68, 75
1, 50655, Note_on_c, 0, 68, 0
1, 50655, Note_on_c, 0, 69, 75
1, 50664, Note_on_c, 0, 69, 0
1, 50664, Note_on_c, 0, 68, 75
1, 50672, Note_on_c, 0, 68, 0
1, 50672, Note_on_c, 0, 66, 75
1, 50680, Note_on_c, 0, 66, 0
1, 50680, Note_on_c, 0, 68, 75
1, 50687, Note_on_c, 1, 52, 0
1, 50687, Note_on_c, 1, 40, 0
1, 50688, Note_on_c, 0, 68, 0
1, 50688, Note_on_c, 0, 69, 75
1, 50688, Note_on_c, 1, 57, 106
1, 50688, Note_on_c, 1, 45, 106
1, 50733, Note_on_c, 1, 57, 0
1, 50733, Note_on_c, 1, 45, 0
1, 50736, Note_on_c, 1, 45, 106
1, 50736, Note_on_c, 1, 33, 106
1, 50777, Note_on_c, 0, 69, 0
1, 50781, Note_on_c, 1, 45, 0
1, 50781, Note_on_c, 1, 33, 0
1, 50784, Note_on_c, 1, 45, 106
1, 50784, Note_on_c, 1, 33, 106
1, 50829, Note_on_c, 1, 45, 0
1, 50829, Note_on_c, 1, 33, 0
1, 50832, Note_on_c, 0, 64, 75
1, 50832, Note_on_c, 0, 61, 75
1, 50832, Note_on_c, 1, 45, 106
1, 50832, Note_on_c, 1, 33, 106
1, 50866, Note_on_c, 0, 64, 0
1, 50866, Note_on_c, 0, 61, 0
1, 50868, Note_on_c, 0, 66, 75
1, 50868, Note_on_c, 0, 62, 75
1, 50877, Note_on_c, 1, 45, 0
1, 50877, Note_on_c, 1, 33, 0
1, 50880, Note_on_c, 0, 66, 0
1, 50880, Note_on_c, 0, 62, 0
1, 50880, Note_on_c, 0, 64, 75
1, 50880, Note_on_c, 0, 61, 75
1, 50880, Note_on_c, 1, 45, 106
1, 50880, Note_on_c, 1, 33, 106
1, 50900, Note_on_c, 0, 64, 0
1, 50900, Note_on_c, 0, 61, 0
1, 50925, Note_on_c, 1, 45, 0
1, 50925, Note_on_c, 1, 33, 0
1, 50928, Note_on_c, 0, 62, 75
1, 50928, Note_on_c, 0, 59, 75
1, 50928, Note_on_c, 1, 45, 106
1, 50928, Note_on_c, 1, 33, 106
1, 50948, Note_on_c, 0, 62, 0
1, 50948, Note_on_c, 0, 59, 0
1, 50973, Note_on_c, 1, 45, 0
1, 50973, Note_on_c, 1, 33, 0
1, 50976, Note_on_c, 0, 62, 75
1, 50976, Note_on_c, 0, 59, 75
1, 50976, Note_on_c, 1, 45, 106
1, 50976, Note_on_c, 1, 33, 106
1, 51021, Note_on_c, 1, 45, 0
1, 51021, Note_on_c, 1, 33, 0
1, 51024, Note_on_c, 1, 45, 106
1, 51024, Note_on_c, 1, 33, 106
1, 51065, Note_on_c, 0, 62, 0
1, 51065, Note_on_c, 0, 59, 0
1, 51069, Note_on_c, 1, 45, 0
1, 51069, Note_on_c, 1, 33, 0
1, 51072, Note_on_c, 0, 61, 75
1, 51072, Note_on_c, 0, 57, 75
1, 51072, Note_on_c, 1, 45, 106
1, 51072, Note_on_c, 1, 33, 106
1, 51117, Note_on_c, 0, 61, 0
1, 51117, Note_on_c, 0, 57, 0
1, 51117, Note_on_c, 1, 45, 0
1, 51117, Note_on_c, 1, 33, 0
1, 51120, Note_on_c, 0, 64, 75
1, 51120, Note_on_c, 0, 61, 75
1, 51120, Note_on_c, 1, 45, 106
1, 51120, Note_on_c, 1, 33, 106
1, 51154, Note_on_c, 0, 64, 0
1, 51154, Note_on_c, 0, 61, 0
1, 51156, Note_on_c, 0, 66, 75
1, 51156, Note_on_c, 0, 62, 75
1, 51165, Note_on_c, 1, 45, 0
1, 51165, Note_on_c, 1, 33, 0
1, 51168, Note_on_c, 0, 66, 0
1, 51168, Note_on_c, 0, 62, 0
1, 51168, Note_on_c, 0, 64, 75
1, 51168, Note_on_c, 0, 61, 75
1, 51168, Note_on_c, 1, 45, 106
1, 51168, Note_on_c, 1, 33, 106
1, 51188, Note_on_c, 0, 64, 0
1, 51188, Note_on_c, 0, 61, 0
1, 51213, Note_on_c, 1, 45, 0
1, 51213, Note_on_c, 1, 33, 0
1, 51216, Note_on_c, 0, 68, 75
1, 51216, Note_on_c, 0, 59, 75
1, 51216, Note_on_c, 1, 45, 106
1, 51216, Note_on_c, 1, 33, 106
1, 51236, Note_on_c, 0, 68, 0
1, 51236, Note_on_c, 0, 59, 0
1, 51261, Note_on_c, 1, 45, 0
1, 51261, Note_on_c, 1, 33, 0
1, 51264, Note_on_c, 0, 68, 75
1, 51264, Note_on_c, 0, 59, 75
1, 51264, Note_on_c, 1, 45, 106
1, 51264, Note_on_c, 1, 33, 106
1, 51360, Note_on_c, 0, 68, 0
1, 51360, Note_on_c, 0, 59, 0
1, 51360, Note_on_c, 0, 69, 75
1, 51360, Note_on_c, 0, 61, 75
1, 51449, Note_on_c, 0, 69, 0
1, 51449, Note_on_c, 0, 61, 0
1, 51529, Note_on_c, 1, 45, 0
1, 51529, Note_on_c, 1, 33, 0
1, 51552, Note_on_c, 1, 40, 75
1, 51600, Note_on_c, 0, 83, 75
1, 51620, Note_on_c, 0, 83, 0
1, 51641, Note_on_c, 1, 40, 0
1, 51648, Note_on_c, 0, 83, 75
1, 51648, Note_on_c, 1, 80, 75
1, 51668, Note_on_c, 0, 83, 0
1, 51687, Note_on_c, 1, 80, 0
1, 51696, Note_on_c, 0, 83, 75
1, 51716, Note_on_c, 0, 83, 0
1, 51744, Note_on_c, 0, 83, 75
1, 51744, Note_on_c, 1, 75, 75
1, 51767, Note_on_c, 0, 83, 0
1, 51768, Note_on_c, 0, 85, 75
1, 51783, Note_on_c, 1, 75, 0
1, 51791, Note_on_c, 0, 85, 0
1, 51792, Note_on_c, 0, 83, 75
1, 51815, Note_on_c, 0, 83, 0
1, 51816, Note_on_c, 0, 81, 75
1, 51839, Note_on_c, 0, 81, 0
1, 51840, Note_on_c, 1, 76, 75
1, 51879, Note_on_c, 1, 76, 0
1, 51888, Note_on_c, 0, 80, 75
1, 51908, Note_on_c, 0, 80, 0
1, 51936, Note_on_c, 0, 80, 75
1, 51956, Note_on_c, 0, 80, 0
1, 51984, Note_on_c, 0, 80, 75
1, 52004, Note_on_c, 0, 80, 0
1, 52032, Note_on_c, 0, 80, 75
1, 52032, Note_on_c, 1, 71, 75
1, 52055, Note_on_c, 0, 80, 0
1, 52056, Note_on_c, 0, 81, 75
1, 52071, Note_on_c, 1, 71, 0
1, 52079, Note_on_c, 0, 81, 0
1, 52080, Note_on_c, 0, 80, 75
1, 52103, Note_on_c, 0, 80, 0
1, 52104, Note_on_c, 0, 78, 75
1, 52127, Note_on_c, 0, 78, 0
1, 52128, Note_on_c, 1, 73, 75
1, 52167, Note_on_c, 1, 73, 0
1, 52176, Note_on_c, 0, 76, 75
1, 52196, Note_on_c, 0, 76, 0
1, 52224, Note_on_c, 0, 76, 75
1, 52244, Note_on_c, 0, 76, 0
1, 52272, Note_on_c, 0, 76, 75
1, 52292, Note_on_c, 0, 76, 0
1, 52320, Note_on_c, 0, 76, 75
1, 52320, Note_on_c, 1, 68, 75
1, 52343, Note_on_c, 0, 76, 0
1, 52344, Note_on_c, 0, 78, 75
1, 52359, Note_on_c, 1, 68, 0
1, 52367, Note_on_c, 0, 78, 0
1, 52368, Note_on_c, 0, 76, 75
1, 52391, Note_on_c, 0, 76, 0
1, 52392, Note_on_c, 0, 75, 75
1, 52415, Note_on_c, 0, 75, 0
1, 52416, Note_on_c, 0, 73, 75
1, 52416, Note_on_c, 1, 69, 75
1, 52455, Note_on_c, 1, 69, 0
1, 52461, Note_on_c, 0, 73, 0
1, 52464, Note_on_c, 0, 78, 75
1, 52509, Note_on_c, 0, 78, 0
1, 52512, Note_on_c, 0, 78, 75
1, 52535, Note_on_c, 0, 78, 0
1, 52536, Note_on_c, 0, 80, 75
1, 52559, Note_on_c, 0, 80, 0
1, 52560, Note_on_c, 0, 81, 75
1, 52583, Note_on_c, 0, 81, 0
1, 52584, Note_on_c, 0, 80, 75
1, 52607, Note_on_c, 0, 80, 0
1, 52608, Note_on_c, 0, 83, 75
1, 52608, Note_on_c, 1, 71, 75
1, 52631, Note_on_c, 0, 83, 0
1, 52632, Note_on_c, 0, 81, 73
1, 52655, Note_on_c, 0, 81, 0
1, 52656, Note_on_c, 0, 80, 72
1, 52679, Note_on_c, 0, 80, 0
1, 52680, Note_on_c, 0, 78, 70
1, 52697, Note_on_c, 1, 71, 0
1, 52703, Note_on_c, 0, 78, 0
1, 52704, Note_on_c, 0, 76, 69
1, 52704, Note_on_c, 1, 64, 69
1, 52749, Note_on_c, 0, 76, 0
1, 52752, Note_on_c, 0, 83, 69
1, 52793, Note_on_c, 1, 64, 0
1, 52797, Note_on_c, 0, 83, 0
1, 52800, Note_on_c, 0, 83, 69
1, 52800, Note_on_c, 1, 80, 69
1, 52800, Note_on_c, 1, 76, 69
1, 52845, Note_on_c, 0, 83, 0
1, 52848, Note_on_c, 0, 83, 69
1, 52893, Note_on_c, 0, 83, 0
1, 52896, Note_on_c, 0, 83, 69
1, 52896, Note_on_c, 1, 80, 0
1, 52896, Note_on_c, 1, 76, 0
1, 52896, Note_on_c, 1, 78, 69
1, 52896, Note_on_c, 1, 75, 69
1, 52930, Note_on_c, 0, 83, 0
1, 52932, Note_on_c, 0, 81, 69
1, 52938, Note_on_c, 0, 81, 0
1, 52938, Note_on_c, 0, 83, 69
1, 52944, Note_on_c, 0, 83, 0
1, 52944, Note_on_c, 0, 85, 69
1, 52959, Note_on_c, 0, 85, 0
1, 52960, Note_on_c, 0, 83, 69
1, 52975, Note_on_c, 0, 83, 0
1, 52976, Note_on_c, 0, 81, 69
1, 52985, Note_on_c, 1, 78, 0
1, 52985, Note_on_c, 1, 75, 0
1, 52991, Note_on_c, 0, 81, 0
1, 52992, Note_on_c, 0, 80, 69
1, 53037, Note_on_c, 0, 80, 0
1, 53040, Note_on_c, 0, 80, 69
1, 53085, Note_on_c, 0, 80, 0
1, 53088, Note_on_c, 0, 80, 69
1, 53088, Note_on_c, 1, 76, 69
1, 53088, Note_on_c, 1, 73, 69
1, 53133, Note_on_c, 0, 80, 0
1, 53136, Note_on_c, 0, 80, 69
1, 53181, Note_on_c, 0, 80, 0
1, 53184, Note_on_c, 0, 80, 69
1, 53184, Note_on_c, 1, 76, 0
1, 53184, Note_on_c, 1, 73, 0
1, 53184, Note_on_c, 1, 75, 69
1, 53184, Note_on_c, 1, 71, 69
1, 53218, Note_on_c, 0, 80, 0
1, 53220, Note_on_c, 0, 78, 69
1, 53226, Note_on_c, 0, 78, 0
1, 53226, Note_on_c, 0, 80, 69
1, 53232, Note_on_c, 0, 80, 0
1, 53232, Note_on_c, 0, 81, 69
1, 53247, Note_on_c, 0, 81, 0
1, 53248, Note_on_c, 0, 80, 69
1, 53263, Note_on_c, 0, 80, 0
1, 53264, Note_on_c, 0, 78, 69
1, 53273, Note_on_c, 1, 75, 0
1, 53273, Note_on_c, 1, 71, 0
1, 53279, Note_on_c, 0, 78, 0
1, 53280, Note_on_c, 0, 76, 69
1, 53325, Note_on_c, 0, 76, 0
1, 53328, Note_on_c, 0, 76, 69
1, 53373, Note_on_c, 0, 76, 0
1, 53376, Note_on_c, 0, 76, 69
1, 53376, Note_on_c, 1, 73, 69
1, 53376, Note_on_c, 1, 69, 69
1, 53421, Note_on_c, 0, 76, 0
1, 53424, Note_on_c, 0, 76, 69
1, 53469, Note_on_c, 0, 76, 0
1, 53472, Note_on_c, 0, 76, 69
1, 53472, Note_on_c, 1, 73, 0
1, 53472, Note_on_c, 1, 69, 0
1, 53472, Note_on_c, 1, 71, 69
1, 53472, Note_on_c, 1, 68, 69
1, 53506, Note_on_c, 0, 76, 0
1, 53508, Note_on_c, 0, 74, 69
1, 53514, Note_on_c, 0, 74, 0
1, 53514, Note_on_c, 0, 76, 69
1, 53520, Note_on_c, 0, 76, 0
1, 53520, Note_on_c, 0, 78, 69
1, 53535, Note_on_c, 0, 78, 0
1, 53536, Note_on_c, 0, 76, 69
1, 53551, Note_on_c, 0, 76, 0
1, 53552, Note_on_c, 0, 74, 69
1, 53561, Note_on_c, 1, 71, 0
1, 53561, Note_on_c, 1, 68, 0
1, 53567, Note_on_c, 0, 74, 0
1, 53568, Note_on_c, 0, 73, 69
1, 53568, Note_on_c, 1, 69, 69
1, 53613, Note_on_c, 0, 73, 0
1, 53616, Note_on_c, 0, 78, 69
1, 53657, Note_on_c, 1, 69, 0
1, 53661, Note_on_c, 0, 78, 0
1, 53664, Note_on_c, 0, 78, 69
1, 53687, Note_on_c, 0, 78, 0
1, 53688, Note_on_c, 0, 80, 69
1, 53711, Note_on_c, 0, 80, 0
1, 53712, Note_on_c, 0, 81, 69
1, 53735, Note_on_c, 0, 81, 0
1, 53736, Note_on_c, 0, 80, 69
1, 53759, Note_on_c, 0, 80, 0
1, 53760, Note_on_c, 0, 83, 69
1, 53760, Note_on_c, 1, 71, 69
1, 53783, Note_on_c, 0, 83, 0
1, 53784, Note_on_c, 0, 81, 69
1, 53807, Note_on_c, 0, 81, 0
1, 53808, Note_on_c, 0, 80, 69
1, 53831, Note_on_c, 0, 80, 0
1, 53832, Note_on_c, 0, 78, 69
1, 53849, Note_on_c, 1, 71, 0
1, 53855, Note_on_c, 0, 78, 0
1, 53856, Note_on_c, 0, 76, 69
1, 53904, Note_on_c, 1, 64, 69
1, 53924, Note_on_c, 1, 64, 0
1, 53945, Note_on_c, 0, 76, 0
1, 53952, Note_on_c, 1, 64, 69
1, 53972, Note_on_c, 1, 64, 0
1, 54000, Note_on_c, 1, 64, 69
1, 54020, Note_on_c, 1, 64, 0
1, 54048, Note_on_c, 1, 64, 69
1, 54071, Note_on_c, 1, 64, 0
1, 54072, Note_on_c, 1, 66, 69
1, 54095, Note_on_c, 1, 66, 0
1, 54096, Note_on_c, 1, 64, 69
1, 54119, Note_on_c, 1, 64, 0
1, 54120, Note_on_c, 1, 62, 69
1, 54143, Note_on_c, 1, 62, 0
1, 54144, Note_on_c, 1, 61, 69
1, 54192, Note_on_c, 0, 79, 69
1, 54192, Note_on_c, 0, 76, 69
1, 54212, Note_on_c, 0, 79, 0
1, 54212, Note_on_c, 0, 76, 0
1, 54240, Note_on_c, 0, 79, 69
1, 54240, Note_on_c, 0, 76, 69
1, 54260, Note_on_c, 0, 79, 0
1, 54260, Note_on_c, 0, 76, 0
1, 54288, Note_on_c, 0, 79, 69
1, 54288, Note_on_c, 0, 76, 69
1, 54308, Note_on_c, 0, 79, 0
1, 54308, Note_on_c, 0, 76, 0
1, 54321, Note_on_c, 1, 61, 0
1, 54336, Note_on_c, 0, 79, 69
1, 54336, Note_on_c, 0, 76, 69
1, 54359, Note_on_c, 0, 79, 0
1, 54359, Note_on_c, 0, 76, 0
1, 54360, Note_on_c, 0, 81, 69
1, 54360, Note_on_c, 0, 78, 69
1, 54383, Note_on_c, 0, 81, 0
1, 54383, Note_on_c, 0, 78, 0
1, 54384, Note_on_c, 0, 79, 69
1, 54384, Note_on_c, 0, 76, 69
1, 54407, Note_on_c, 0, 79, 0
1, 54407, Note_on_c, 0, 76, 0
1, 54408, Note_on_c, 0, 78, 69
1, 54408, Note_on_c, 0, 74, 69
1, 54431, Note_on_c, 0, 78, 0
1, 54431, Note_on_c, 0, 74, 0
1, 54432, Note_on_c, 0, 76, 69
1, 54432, Note_on_c, 0, 73, 64
1, 54480, Note_on_c, 1, 64, 69
1, 54503, Note_on_c, 1, 64, 0
1, 54504, Note_on_c, 1, 66, 69
1, 54527, Note_on_c, 1, 66, 0
1, 54528, Note_on_c, 1, 67, 69
1, 54551, Note_on_c, 1, 67, 0
1, 54552, Note_on_c, 1, 69, 69
1, 54575, Note_on_c, 1, 69, 0
1, 54576, Note_on_c, 1, 67, 69
1, 54599, Note_on_c, 1, 67, 0
1, 54600, Note_on_c, 1, 66, 69
1, 54623, Note_on_c, 1, 66, 0
1, 54624, Note_on_c, 1, 64, 69
1, 54647, Note_on_c, 1, 64, 0
1, 54648, Note_on_c, 1, 62, 69
1, 54671, Note_on_c, 1, 62, 0
1, 54672, Note_on_c, 1, 61, 69
1, 54695, Note_on_c, 1, 61, 0
1, 54696, Note_on_c, 1, 59, 69
1, 54719, Note_on_c, 1, 59, 0
1, 54720, Note_on_c, 1, 58, 69
1, 54765, Note_on_c, 0, 76, 0
1, 54765, Note_on_c, 0, 73, 0
1, 54768, Note_on_c, 0, 85, 69
1, 54768, Note_on_c, 0, 76, 64
1, 54813, Note_on_c, 0, 85, 0
1, 54813, Note_on_c, 0, 76, 0
1, 54816, Note_on_c, 0, 85, 69
1, 54816, Note_on_c, 0, 76, 64
1, 54861, Note_on_c, 0, 85, 0
1, 54861, Note_on_c, 0, 76, 0
1, 54864, Note_on_c, 0, 79, 69
1, 54864, Note_on_c, 0, 76, 64
1, 54909, Note_on_c, 0, 79, 0
1, 54909, Note_on_c, 0, 76, 0
1, 54912, Note_on_c, 0, 78, 69
1, 54912, Note_on_c, 0, 74, 64
1, 54918, Note_on_c, 0, 78, 0
1, 54918, Note_on_c, 0, 79, 69
1, 54924, Note_on_c, 0, 79, 0
1, 54924, Note_on_c, 0, 78, 69
1, 54957, Note_on_c, 0, 74, 0
1, 54959, Note_on_c, 0, 78, 0
1, 54960, Note_on_c, 0, 76, 69
1, 54960, Note_on_c, 0, 73, 64
1, 54985, Note_on_c, 1, 58, 0
1, 55005, Note_on_c, 0, 76, 0
1, 55005, Note_on_c, 0, 73, 0
1, 55008, Note_on_c, 0, 74, 69
1, 55008, Note_on_c, 0, 71, 64
1, 55056, Note_on_c, 1, 62, 69
1, 55079, Note_on_c, 1, 62, 0
1, 55080, Note_on_c, 1, 64, 69
1, 55103, Note_on_c, 1, 64, 0
1, 55104, Note_on_c, 1, 66, 69
1, 55127, Note_on_c, 1, 66, 0
1, 55128, Note_on_c, 1, 67, 69
1, 55151, Note_on_c, 1, 67, 0
1, 55152, Note_on_c, 1, 66, 69
1, 55175, Note_on_c, 1, 66, 0
1, 55176, Note_on_c, 1, 64, 69
1, 55199, Note_on_c, 1, 64, 0
1, 55200, Note_on_c, 1, 62, 69
1, 55223, Note_on_c, 1, 62, 0
1, 55224, Note_on_c, 1, 61, 69
1, 55247, Note_on_c, 1, 61, 0
1, 55248, Note_on_c, 1, 59, 69
1, 55271, Note_on_c, 1, 59, 0
1, 55272, Note_on_c, 1, 57, 69
1, 55295, Note_on_c, 1, 57, 0
1, 55296, Note_on_c, 1, 56, 69
1, 55341, Note_on_c, 0, 74, 0
1, 55341, Note_on_c, 0, 71, 0
1, 55344, Note_on_c, 0, 83, 69
1, 55344, Note_on_c, 0, 74, 64
1, 55389, Note_on_c, 0, 83, 0
1, 55389, Note_on_c, 0, 74, 0
1, 55392, Note_on_c, 0, 83, 69
1, 55392, Note_on_c, 0, 74, 64
1, 55437, Note_on_c, 0, 83, 0
1, 55437, Note_on_c, 0, 74, 0
1, 55440, Note_on_c, 0, 78, 69
1, 55440, Note_on_c, 0, 74, 64
1, 55485, Note_on_c, 0, 78, 0
1, 55485, Note_on_c, 0, 74, 0
1, 55488, Note_on_c, 0, 76, 69
1, 55488, Note_on_c, 0, 73, 64
1, 55494, Note_on_c, 0, 76, 0
1, 55494, Note_on_c, 0, 78, 69
1, 55500, Note_on_c, 0, 78, 0
1, 55500, Note_on_c, 0, 76, 69
1, 55533, Note_on_c, 0, 73, 0
1, 55535, Note_on_c, 0, 76, 0
1, 55536, Note_on_c, 0, 74, 69
1, 55536, Note_on_c, 0, 71, 64
1, 55561, Note_on_c, 1, 56, 0
1, 55581, Note_on_c, 0, 74, 0
1, 55581, Note_on_c, 0, 71, 0
1, 55584, Note_on_c, 1, 64, 69
1, 55584, Note_on_c, 1, 57, 69
1, 55608, Note_on_c, 0, 73, 69
1, 55631, Note_on_c, 0, 73, 0
1, 55632, Note_on_c, 0, 74, 69
1, 55638, Note_on_c, 0, 74, 0
1, 55638, Note_on_c, 0, 73, 69
1, 55644, Note_on_c, 0, 73, 0
1, 55644, Note_on_c, 0, 71, 69
1, 55650, Note_on_c, 0, 71, 0
1, 55650, Note_on_c, 0, 73, 69
1, 55673, Note_on_c, 1, 64, 0
1, 55673, Note_on_c, 1, 57, 0
1, 55677, Note_on_c, 0, 73, 0
1, 55680, Note_on_c, 1, 68, 69
1, 55680, Note_on_c, 1, 59, 69
1, 55704, Note_on_c, 0, 74, 70
1, 55727, Note_on_c, 0, 74, 0
1, 55728, Note_on_c, 0, 76, 70
1, 55734, Note_on_c, 0, 76, 0
1, 55734, Note_on_c, 0, 74, 70
1, 55740, Note_on_c, 0, 74, 0
1, 55740, Note_on_c, 0, 73, 70
1, 55746, Note_on_c, 0, 73, 0
1, 55746, Note_on_c, 0, 74, 70
1, 55769, Note_on_c, 1, 68, 0
1, 55769, Note_on_c, 1, 59, 0
1, 55773, Note_on_c, 0, 74, 0
1, 55776, Note_on_c, 1, 69, 70
1, 55776, Note_on_c, 1, 61, 70
1, 55800, Note_on_c, 0, 76, 71
1, 55823, Note_on_c, 0, 76, 0
1, 55824, Note_on_c, 0, 78, 71
1, 55830, Note_on_c, 0, 78, 0
1, 55830, Note_on_c, 0, 76, 71
1, 55836, Note_on_c, 0, 76, 0
1, 55836, Note_on_c, 0, 74, 71
1, 55842, Note_on_c, 0, 74, 0
1, 55842, Note_on_c, 0, 76, 71
1, 55865, Note_on_c, 1, 69, 0
1, 55865, Note_on_c, 1, 61, 0
1, 55872, Note_on_c, 1, 71, 71
1, 55872, Note_on_c, 1, 62, 71
1, 55895, Note_on_c, 0, 76, 0
1, 55896, Note_on_c, 0, 77, 72
1, 55919, Note_on_c, 0, 77, 0
1, 55920, Note_on_c, 0, 78, 72
1, 55943, Note_on_c, 0, 78, 0
1, 55944, Note_on_c, 0, 77, 73
1, 55967, Note_on_c, 0, 77, 0
1, 55968, Note_on_c, 0, 78, 73
1, 55991, Note_on_c, 0, 78, 0
1, 55992, Note_on_c, 0, 80, 73
1, 56015, Note_on_c, 0, 80, 0
1, 56016, Note_on_c, 0, 81, 73
1, 56039, Note_on_c, 0, 81, 0
1, 56040, Note_on_c, 0, 80, 74
1, 56049, Note_on_c, 1, 71, 0
1, 56049, Note_on_c, 1, 62, 0
1, 56063, Note_on_c, 0, 80, 0
1, 56064, Note_on_c, 0, 81, 74
1, 56064, Note_on_c, 1, 71, 73
1, 56064, Note_on_c, 1, 63, 73
1, 56109, Note_on_c, 0, 81, 0
1, 56112, Note_on_c, 0, 73, 75
1, 56153, Note_on_c, 1, 71, 0
1, 56153, Note_on_c, 1, 63, 0
1, 56157, Note_on_c, 0, 73, 0
1, 56160, Note_on_c, 0, 74, 75
1, 56160, Note_on_c, 1, 69, 75
1, 56160, Note_on_c, 1, 64, 64
1, 56168, Note_on_c, 0, 74, 0
1, 56168, Note_on_c, 0, 73, 74
1, 56176, Note_on_c, 0, 73, 0
1, 56176, Note_on_c, 0, 74, 74
1, 56184, Note_on_c, 0, 74, 0
1, 56184, Note_on_c, 0, 73, 74
1, 56192, Note_on_c, 0, 73, 0
1, 56192, Note_on_c, 0, 74, 74
1, 56200, Note_on_c, 0, 74, 0
1, 56200, Note_on_c, 0, 73, 74
1, 56208, Note_on_c, 0, 73, 0
1, 56208, Note_on_c, 0, 74, 73
1, 56216, Note_on_c, 0, 74, 0
1, 56216, Note_on_c, 0, 73, 73
1, 56224, Note_on_c, 0, 73, 0
1, 56224, Note_on_c, 0, 74, 73
1, 56232, Note_on_c, 0, 74, 0
1, 56232, Note_on_c, 0, 73, 73
1, 56240, Note_on_c, 0, 73, 0
1, 56240, Note_on_c, 0, 71, 73
1, 56248, Note_on_c, 0, 71, 0
1, 56248, Note_on_c, 0, 73, 72
1, 56249, Note_on_c, 1, 69, 0
1, 56256, Note_on_c, 0, 73, 0
1, 56256, Note_on_c, 0, 71, 72
1, 56256, Note_on_c, 1, 68, 72
1, 56337, Note_on_c, 1, 64, 0
1, 56345, Note_on_c, 0, 71, 0
1, 56345, Note_on_c, 1, 68, 0
1, 56448, Note_on_c, 0, 52, 69
1, 56496, Note_on_c, 1, 33, 69
1, 56516, Note_on_c, 1, 33, 0
1, 56544, Note_on_c, 1, 45, 69
1, 56564, Note_on_c, 1, 45, 0
1, 56592, Note_on_c, 1, 48, 69
1, 56612, Note_on_c, 1, 48, 0
1, 56640, Note_on_c, 1, 45, 69
1, 56660, Note_on_c, 1, 45, 0
1, 56688, Note_on_c, 1, 48, 69
1, 56707, Note_on_c, 0, 52, 0
1, 56708, Note_on_c, 1, 48, 0
1, 56712, Note_on_c, 0, 57, 69
1, 56735, Note_on_c, 0, 57, 0
1, 56736, Note_on_c, 0, 57, 69
1, 56784, Note_on_c, 1, 35, 69
1, 56804, Note_on_c, 1, 35, 0
1, 56825, Note_on_c, 0, 57, 0
1, 56832, Note_on_c, 0, 56, 69
1, 56832, Note_on_c, 1, 47, 69
1, 56852, Note_on_c, 1, 47, 0
1, 56880, Note_on_c, 1, 50, 69
1, 56900, Note_on_c, 1, 50, 0
1, 56928, Note_on_c, 1, 47, 69
1, 56948, Note_on_c, 1, 47, 0
1, 56976, Note_on_c, 1, 50, 69
1, 56995, Note_on_c, 0, 56, 0
1, 56996, Note_on_c, 1, 50, 0
1, 57000, Note_on_c, 0, 59, 69
1, 57023, Note_on_c, 0, 59, 0
1, 57024, Note_on_c, 0, 59, 69
1, 57072, Note_on_c, 1, 36, 69
1, 57092, Note_on_c, 1, 36, 0
1, 57113, Note_on_c, 0, 59, 0
1, 57120, Note_on_c, 0, 57, 69
1, 57120, Note_on_c, 1, 48, 69
1, 57140, Note_on_c, 1, 48, 0
1, 57168, Note_on_c, 1, 52, 69
1, 57188, Note_on_c, 1, 52, 0
1, 57216, Note_on_c, 1, 48, 69
1, 57236, Note_on_c, 1, 48, 0
1, 57264, Note_on_c, 1, 52, 69
1, 57283, Note_on_c, 0, 57, 0
1, 57284, Note_on_c, 1, 52, 0
1, 57288, Note_on_c, 0, 60, 69
1, 57311, Note_on_c, 0, 60, 0
1, 57312, Note_on_c, 0, 60, 69
1, 57360, Note_on_c, 1, 50, 69
1, 57360, Note_on_c, 1, 38, 69
1, 57401, Note_on_c, 0, 60, 0
1, 57407, Note_on_c, 1, 50, 0
1, 57407, Note_on_c, 1, 38, 0
1, 57408, Note_on_c, 0, 59, 69
1, 57408, Note_on_c, 1, 50, 69
1, 57408, Note_on_c, 1, 38, 69
1, 57455, Note_on_c, 1, 50, 0
1, 57455, Note_on_c, 1, 38, 0
1, 57456, Note_on_c, 1, 50, 69
1, 57456, Note_on_c, 1, 38, 69
1, 57497, Note_on_c, 0, 59, 0
1, 57503, Note_on_c, 1, 50, 0
1, 57503, Note_on_c, 1, 38, 0
1, 57504, Note_on_c, 0, 65, 69
1, 57504, Note_on_c, 0, 57, 69
1, 57504, Note_on_c, 1, 50, 69
1, 57504, Note_on_c, 1, 38, 69
1, 57551, Note_on_c, 1, 50, 0
1, 57551, Note_on_c, 1, 38, 0
1, 57552, Note_on_c, 1, 50, 69
1, 57552, Note_on_c, 1, 38, 69
1, 57593, Note_on_c, 0, 65, 0
1, 57593, Note_on_c, 0, 57, 0
1, 57599, Note_on_c, 1, 50, 0
1, 57599, Note_on_c, 1, 38, 0
1, 57600, Note_on_c, 0, 65, 69
1, 57600, Note_on_c, 0, 56, 64
1, 57648, Note_on_c, 1, 52, 69
1, 57648, Note_on_c, 1, 40, 69
1, 57689, Note_on_c, 0, 65, 0
1, 57695, Note_on_c, 1, 52, 0
1, 57695, Note_on_c, 1, 40, 0
1, 57696, Note_on_c, 0, 64, 69
1, 57696, Note_on_c, 1, 52, 69
1, 57696, Note_on_c, 1, 40, 69
1, 57743, Note_on_c, 1, 52, 0
1, 57743, Note_on_c, 1, 40, 0
1, 57744, Note_on_c, 1, 52, 69
1, 57744, Note_on_c, 1, 40, 69
1, 57763, Note_on_c, 0, 56, 0
1, 57768, Note_on_c, 0, 57, 64
1, 57785, Note_on_c, 0, 64, 0
1, 57791, Note_on_c, 0, 57, 0
1, 57791, Note_on_c, 1, 52, 0
1, 57791, Note_on_c, 1, 40, 0
1, 57792, Note_on_c, 0, 62, 69
1, 57792, Note_on_c, 0, 59, 64
1, 57792, Note_on_c, 1, 52, 69
1, 57792, Note_on_c, 1, 44, 69
1, 57839, Note_on_c, 1, 52, 0
1, 57839, Note_on_c, 1, 44, 0
1, 57840, Note_on_c, 1, 52, 69
1, 57840, Note_on_c, 1, 44, 69
1, 57881, Note_on_c, 0, 62, 0
1, 57881, Note_on_c, 0, 59, 0
1, 57887, Note_on_c, 1, 52, 0
1, 57887, Note_on_c, 1, 44, 0
1, 57888, Note_on_c, 0, 62, 69
1, 57888, Note_on_c, 0, 59, 64
1, 57936, Note_on_c, 1, 52, 69
1, 57936, Note_on_c, 1, 45, 69
1, 57983, Note_on_c, 1, 52, 0
1, 57983, Note_on_c, 1, 45, 0
1, 57984, Note_on_c, 1, 52, 69
1, 57984, Note_on_c, 1, 45, 69
1, 58031, Note_on_c, 1, 52, 0
1, 58031, Note_on_c, 1, 45, 0
1, 58032, Note_on_c, 1, 52, 69
1, 58032, Note_on_c, 1, 45, 69
1, 58065, Note_on_c, 0, 62, 0
1, 58065, Note_on_c, 0, 59, 0
1, 58079, Note_on_c, 1, 52, 0
1, 58079, Note_on_c, 1, 45, 0
1, 58080, Note_on_c, 0, 60, 69
1, 58080, Note_on_c, 0, 57, 64
1, 58080, Note_on_c, 1, 54, 69
1, 58080, Note_on_c, 1, 51, 69
1, 58089, Note_on_c, 0, 60, 0
1, 58089, Note_on_c, 0, 62, 69
1, 58098, Note_on_c, 0, 62, 0
1, 58098, Note_on_c, 0, 60, 69
1, 58107, Note_on_c, 0, 60, 0
1, 58107, Note_on_c, 0, 62, 69
1, 58116, Note_on_c, 0, 62, 0
1, 58116, Note_on_c, 0, 60, 69
1, 58125, Note_on_c, 0, 60, 0
1, 58125, Note_on_c, 0, 62, 69
1, 58127, Note_on_c, 1, 54, 0
1, 58127, Note_on_c, 1, 51, 0
1, 58128, Note_on_c, 1, 54, 69
1, 58128, Note_on_c, 1, 51, 69
1, 58134, Note_on_c, 0, 62, 0
1, 58134, Note_on_c, 0, 60, 69
1, 58143, Note_on_c, 0, 60, 0
1, 58143, Note_on_c, 0, 62, 69
1, 58152, Note_on_c, 0, 62, 0
1, 58152, Note_on_c, 0, 60, 69
1, 58160, Note_on_c, 0, 60, 0
1, 58160, Note_on_c, 0, 59, 69
1, 58168, Note_on_c, 0, 59, 0
1, 58168, Note_on_c, 0, 60, 69
1, 58169, Note_on_c, 0, 57, 0
1, 58175, Note_on_c, 1, 54, 0
1, 58175, Note_on_c, 1, 51, 0
1, 58176, Note_on_c, 0, 60, 0
1, 58176, Note_on_c, 0, 60, 69
1, 58176, Note_on_c, 0, 57, 64
1, 58224, Note_on_c, 1, 40, 69
1, 58265, Note_on_c, 0, 57, 0
1, 58269, Note_on_c, 1, 40, 0
1, 58272, Note_on_c, 0, 60, 0
1, 58272, Note_on_c, 0, 59, 69
1, 58272, Note_on_c, 0, 56, 64
1, 58272, Note_on_c, 1, 52, 69
1, 58295, Note_on_c, 1, 52, 0
1, 58296, Note_on_c, 1, 54, 69
1, 58319, Note_on_c, 1, 54, 0
1, 58320, Note_on_c, 1, 52, 69
1, 58343, Note_on_c, 1, 52, 0
1, 58344, Note_on_c, 1, 50, 69
1, 58361, Note_on_c, 0, 59, 0
1, 58361, Note_on_c, 0, 56, 0
1, 58367, Note_on_c, 1, 50, 0
1, 58368, Note_on_c, 1, 49, 69
1, 58391, Note_on_c, 1, 49, 0
1, 58392, Note_on_c, 1, 50, 69
1, 58415, Note_on_c, 1, 50, 0
1, 58416, Note_on_c, 1, 49, 69
1, 58439, Note_on_c, 1, 49, 0
1, 58440, Note_on_c, 1, 47, 69
1, 58463, Note_on_c, 1, 47, 0
1, 58464, Note_on_c, 0, 57, 75
1, 58464, Note_on_c, 1, 45, 75
1, 58511, Note_on_c, 1, 45, 0
1, 58512, Note_on_c, 1, 33, 75
1, 58532, Note_on_c, 1, 33, 0
1, 58560, Note_on_c, 1, 45, 75
1, 58580, Note_on_c, 1, 45, 0
1, 58608, Note_on_c, 1, 49, 75
1, 58628, Note_on_c, 1, 49, 0
1, 58656, Note_on_c, 1, 52, 75
1, 58676, Note_on_c, 1, 52, 0
1, 58704, Note_on_c, 1, 49, 75
1, 58724, Note_on_c, 1, 49, 0
1, 58729, Note_on_c, 0, 57, 0
1, 58752, Note_on_c, 0, 57, 75
1, 58760, Note_on_c, 0, 62, 75
1, 58768, Note_on_c, 0, 66, 75
1, 58800, Note_on_c, 1, 33, 75
1, 58820, Note_on_c, 1, 33, 0
1, 58848, Note_on_c, 1, 45, 75
1, 58868, Note_on_c, 1, 45, 0
1, 58896, Note_on_c, 1, 50, 75
1, 58916, Note_on_c, 1, 50, 0
1, 58944, Note_on_c, 1, 54, 75
1, 58964, Note_on_c, 1, 54, 0
1, 58992, Note_on_c, 1, 50, 75
1, 59012, Note_on_c, 1, 50, 0
1, 59025, Note_on_c, 0, 66, 0
1, 59025, Note_on_c, 0, 62, 0
1, 59025, Note_on_c, 0, 57, 0
1, 59040, Note_on_c, 0, 57, 75
1, 59052, Note_on_c, 0, 57, 0
1, 59052, Note_on_c, 0, 64, 75
1, 59088, Note_on_c, 1, 52, 69
1, 59088, Note_on_c, 1, 49, 69
1, 59129, Note_on_c, 0, 64, 0
1, 59135, Note_on_c, 1, 52, 0
1, 59135, Note_on_c, 1, 49, 0
1, 59136, Note_on_c, 0, 69, 75
1, 59136, Note_on_c, 0, 57, 64
1, 59184, Note_on_c, 1, 52, 69
1, 59184, Note_on_c, 1, 49, 69
1, 59231, Note_on_c, 1, 52, 0
1, 59231, Note_on_c, 1, 49, 0
1, 59232, Note_on_c, 1, 52, 69
1, 59232, Note_on_c, 1, 49, 69
1, 59266, Note_on_c, 0, 69, 0
1, 59268, Note_on_c, 0, 68, 75
1, 59279, Note_on_c, 1, 52, 0
1, 59279, Note_on_c, 1, 49, 0
1, 59280, Note_on_c, 0, 68, 0
1, 59280, Note_on_c, 0, 66, 75
1, 59280, Note_on_c, 1, 52, 69
1, 59280, Note_on_c, 1, 49, 69
1, 59313, Note_on_c, 0, 57, 0
1, 59314, Note_on_c, 0, 66, 0
1, 59316, Note_on_c, 0, 64, 75
1, 59327, Note_on_c, 1, 52, 0
1, 59327, Note_on_c, 1, 49, 0
1, 59328, Note_on_c, 0, 64, 0
1, 59328, Note_on_c, 0, 64, 75
1, 59328, Note_on_c, 0, 59, 64
1, 59376, Note_on_c, 1, 52, 69
1, 59376, Note_on_c, 1, 44, 69
1, 59423, Note_on_c, 1, 52, 0
1, 59423, Note_on_c, 1, 44, 0
1, 59424, Note_on_c, 1, 52, 69
1, 59424, Note_on_c, 1, 44, 69
1, 59469, Note_on_c, 0, 64, 0
1, 59471, Note_on_c, 1, 52, 0
1, 59471, Note_on_c, 1, 44, 0
1, 59472, Note_on_c, 0, 66, 75
1, 59472, Note_on_c, 1, 52, 69
1, 59472, Note_on_c, 1, 44, 69
1, 59495, Note_on_c, 0, 66, 0
1, 59496, Note_on_c, 0, 64, 75
1, 59505, Note_on_c, 0, 59, 0
1, 59519, Note_on_c, 0, 64, 0
1, 59519, Note_on_c, 1, 52, 0
1, 59519, Note_on_c, 1, 44, 0
1, 59520, Note_on_c, 0, 64, 75
1, 59520, Note_on_c, 1, 52, 69
1, 59520, Note_on_c, 1, 44, 69
1, 59543, Note_on_c, 0, 64, 0
1, 59544, Note_on_c, 0, 62, 75
1, 59567, Note_on_c, 0, 62, 0
1, 59567, Note_on_c, 1, 52, 0
1, 59567, Note_on_c, 1, 44, 0
1, 59568, Note_on_c, 0, 61, 75
1, 59568, Note_on_c, 1, 52, 69
1, 59568, Note_on_c, 1, 44, 69
1, 59591, Note_on_c, 0, 61, 0
1, 59592, Note_on_c, 0, 62, 75
1, 59615, Note_on_c, 0, 62, 0
1, 59615, Note_on_c, 1, 52, 0
1, 59615, Note_on_c, 1, 44, 0
1, 59616, Note_on_c, 0, 62, 75
1, 59616, Note_on_c, 0, 59, 75
1, 59664, Note_on_c, 1, 52, 69
1, 59664, Note_on_c, 1, 45, 69
1, 59711, Note_on_c, 1, 52, 0
1, 59711, Note_on_c, 1, 45, 0
1, 59712, Note_on_c, 0, 62, 0
1, 59712, Note_on_c, 0, 59, 0
1, 59712, Note_on_c, 0, 61, 75
1, 59712, Note_on_c, 0, 57, 75
1, 59712, Note_on_c, 1, 52, 69
1, 59712, Note_on_c, 1, 45, 69
1, 59759, Note_on_c, 1, 52, 0
1, 59759, Note_on_c, 1, 45, 0
1, 59760, Note_on_c, 1, 52, 69
1, 59760, Note_on_c, 1, 45, 69
1, 59801, Note_on_c, 0, 61, 0
1, 59801, Note_on_c, 0, 57, 0
1, 59807, Note_on_c, 1, 52, 0
1, 59807, Note_on_c, 1, 45, 0
1, 59808, Note_on_c, 1, 52, 69
1, 59808, Note_on_c, 1, 45, 69
1, 59855, Note_on_c, 1, 52, 0
1, 59855, Note_on_c, 1, 45, 0
1, 59856, Note_on_c, 1, 52, 69
1, 59856, Note_on_c, 1, 45, 69
1, 59880, Note_on_c, 0, 61, 75
1, 59903, Note_on_c, 0, 61, 0
1, 59903, Note_on_c, 1, 52, 0
1, 59903, Note_on_c, 1, 45, 0
1, 59904, Note_on_c, 0, 61, 75
1, 59927, Note_on_c, 0, 61, 0
1, 59928, Note_on_c, 0, 59, 75
1, 59951, Note_on_c, 0, 59, 0
1, 59952, Note_on_c, 0, 56, 75
1, 59952, Note_on_c, 1, 52, 69
1, 59952, Note_on_c, 1, 50, 69
1, 59975, Note_on_c, 0, 56, 0
1, 59976, Note_on_c, 0, 52, 75
1, 59999, Note_on_c, 0, 52, 0
1, 59999, Note_on_c, 1, 52, 0
1, 59999, Note_on_c, 1, 50, 0
1, 60000, Note_on_c, 0, 57, 75
1, 60000, Note_on_c, 1, 52, 69
1, 60000, Note_on_c, 1, 49, 69
1, 60047, Note_on_c, 1, 52, 0
1, 60047, Note_on_c, 1, 49, 0
1, 60048, Note_on_c, 1, 52, 69
1, 60048, Note_on_c, 1, 49, 69
1, 60095, Note_on_c, 1, 52, 0
1, 60095, Note_on_c, 1, 49, 0
1, 60096, Note_on_c, 1, 52, 69
1, 60096, Note_on_c, 1, 49, 69
1, 60143, Note_on_c, 1, 52, 0
1, 60143, Note_on_c, 1, 49, 0
1, 60144, Note_on_c, 1, 52, 69
1, 60144, Note_on_c, 1, 49, 69
1, 60163, Note_on_c, 0, 57, 0
1, 60168, Note_on_c, 0, 61, 75
1, 60191, Note_on_c, 0, 61, 0
1, 60191, Note_on_c, 1, 52, 0
1, 60191, Note_on_c, 1, 49, 0
1, 60192, Note_on_c, 0, 61, 75
1, 60215, Note_on_c, 0, 61, 0
1, 60216, Note_on_c, 0, 59, 75
1, 60239, Note_on_c, 0, 59, 0
1, 60240, Note_on_c, 0, 56, 75
1, 60240, Note_on_c, 1, 52, 69
1, 60240, Note_on_c, 1, 50, 69
1, 60263, Note_on_c, 0, 56, 0
1, 60264, Note_on_c, 0, 52, 75
1, 60287, Note_on_c, 0, 52, 0
1, 60287, Note_on_c, 1, 52, 0
1, 60287, Note_on_c, 1, 50, 0
1, 60288, Note_on_c, 0, 57, 75
1, 60288, Note_on_c, 1, 52, 69
1, 60288, Note_on_c, 1, 49, 69
1, 60335, Note_on_c, 1, 52, 0
1, 60335, Note_on_c, 1, 49, 0
1, 60336, Note_on_c, 1, 52, 69
1, 60336, Note_on_c, 1, 49, 69
1, 60383, Note_on_c, 1, 52, 0
1, 60383, Note_on_c, 1, 49, 0
1, 60384, Note_on_c, 1, 52, 69
1, 60384, Note_on_c, 1, 49, 69
1, 60431, Note_on_c, 1, 52, 0
1, 60431, Note_on_c, 1, 49, 0
1, 60432, Note_on_c, 1, 52, 69
1, 60432, Note_on_c, 1, 49, 69
1, 60451, Note_on_c, 0, 57, 0
1, 60456, Note_on_c, 0, 61, 75
1, 60479, Note_on_c, 0, 61, 0
1, 60479, Note_on_c, 1, 52, 0
1, 60479, Note_on_c, 1, 49, 0
1, 60480, Note_on_c, 0, 61, 75
1, 60480, Note_on_c, 1, 52, 69
1, 60480, Note_on_c, 1, 50, 69
1, 60504, Note_on_c, 0, 61, 0
1, 60504, Note_on_c, 0, 59, 75
1, 60525, Note_on_c, 1, 52, 0
1, 60525, Note_on_c, 1, 50, 0
1, 60527, Note_on_c, 0, 59, 0
1, 60528, Note_on_c, 0, 56, 75
1, 60538, Note_on_c, 0, 56, 0
1, 60552, Note_on_c, 0, 52, 75
1, 60562, Note_on_c, 0, 52, 0
1, 60576, Note_on_c, 0, 59, 75
1, 60576, Note_on_c, 1, 52, 69
1, 60576, Note_on_c, 1, 49, 69
1, 60600, Note_on_c, 0, 59, 0
1, 60600, Note_on_c, 0, 57, 75
1, 60621, Note_on_c, 1, 52, 0
1, 60621, Note_on_c, 1, 49, 0
1, 60623, Note_on_c, 0, 57, 0
1, 60624, Note_on_c, 0, 52, 75
1, 60634, Note_on_c, 0, 52, 0
1, 60648, Note_on_c, 0, 61, 75
1, 60658, Note_on_c, 0, 61, 0
1, 60672, Note_on_c, 0, 61, 75
1, 60672, Note_on_c, 1, 44, 75
1, 60696, Note_on_c, 0, 61, 0
1, 60696, Note_on_c, 0, 59, 75
1, 60717, Note_on_c, 1, 44, 0
1, 60719, Note_on_c, 0, 59, 0
1, 60720, Note_on_c, 0, 52, 75
1, 60730, Note_on_c, 0, 52, 0
1, 60744, Note_on_c, 0, 62, 75
1, 60754, Note_on_c, 0, 62, 0
1, 60768, Note_on_c, 0, 62, 75
1, 60768, Note_on_c, 1, 45, 75
1, 60792, Note_on_c, 0, 62, 0
1, 60792, Note_on_c, 0, 61, 75
1, 60813, Note_on_c, 1, 45, 0
1, 60815, Note_on_c, 0, 61, 0
1, 60816, Note_on_c, 0, 52, 75
1, 60826, Note_on_c, 0, 52, 0
1, 60840, Note_on_c, 0, 64, 75
1, 60850, Note_on_c, 0, 64, 0
1, 60864, Note_on_c, 0, 64, 75
1, 60864, Note_on_c, 1, 54, 75
1, 60888, Note_on_c, 0, 64, 0
1, 60888, Note_on_c, 0, 62, 75
1, 60909, Note_on_c, 1, 54, 0
1, 60911, Note_on_c, 0, 62, 0
1, 60912, Note_on_c, 0, 62, 75
1, 60912, Note_on_c, 1, 52, 75
1, 60936, Note_on_c, 0, 62, 0
1, 60936, Note_on_c, 0, 61, 75
1, 60957, Note_on_c, 1, 52, 0
1, 60959, Note_on_c, 0, 61, 0
1, 60960, Note_on_c, 0, 61, 75
1, 60960, Note_on_c, 1, 50, 75
1, 60984, Note_on_c, 0, 61, 0
1, 60984, Note_on_c, 0, 59, 75
1, 61005, Note_on_c, 1, 50, 0
1, 61007, Note_on_c, 0, 59, 0
1, 61008, Note_on_c, 0, 59, 75
1, 61008, Note_on_c, 1, 51, 75
1, 61032, Note_on_c, 0, 59, 0
1, 61032, Note_on_c, 0, 57, 75
1, 61053, Note_on_c, 1, 51, 0
1, 61055, Note_on_c, 0, 57, 0
1, 61056, Note_on_c, 0, 56, 75
1, 61056, Note_on_c, 1, 52, 75
1, 61080, Note_on_c, 0, 56, 0
1, 61080, Note_on_c, 0, 57, 75
1, 61101, Note_on_c, 1, 52, 0
1, 61103, Note_on_c, 0, 57, 0
1, 61104, Note_on_c, 0, 57, 76
1, 61104, Note_on_c, 1, 54, 76
1, 61128, Note_on_c, 0, 57, 0
1, 61128, Note_on_c, 0, 59, 77
1, 61149, Note_on_c, 1, 54, 0
1, 61151, Note_on_c, 0, 59, 0
1, 61152, Note_on_c, 0, 59, 78
1, 61152, Note_on_c, 1, 56, 78
1, 61176, Note_on_c, 0, 59, 0
1, 61176, Note_on_c, 0, 61, 78
1, 61197, Note_on_c, 1, 56, 0
1, 61199, Note_on_c, 0, 61, 0
1, 61200, Note_on_c, 0, 61, 79
1, 61200, Note_on_c, 1, 57, 79
1, 61224, Note_on_c, 0, 61, 0
1, 61224, Note_on_c, 0, 62, 80
1, 61245, Note_on_c, 1, 57, 0
1, 61247, Note_on_c, 0, 62, 0
1, 61248, Note_on_c, 0, 62, 81
1, 61248, Note_on_c, 1, 59, 81
1, 61272, Note_on_c, 0, 62, 0
1, 61272, Note_on_c, 0, 66, 81
1, 61293, Note_on_c, 1, 59, 0
1, 61295, Note_on_c, 0, 66, 0
1, 61296, Note_on_c, 0, 64, 82
1, 61296, Note_on_c, 1, 56, 82
1, 61320, Note_on_c, 0, 64, 0
1, 61320, Note_on_c, 0, 62, 83
1, 61341, Note_on_c, 1, 56, 0
1, 61343, Note_on_c, 0, 62, 0
1, 61344, Note_on_c, 0, 62, 84
1, 61344, Note_on_c, 1, 57, 84
1, 61367, Note_on_c, 0, 62, 0
1, 61368, Note_on_c, 0, 61, 83
1, 61389, Note_on_c, 1, 57, 0
1, 61391, Note_on_c, 0, 61, 0
1, 61392, Note_on_c, 0, 61, 82
1, 61392, Note_on_c, 1, 45, 82
1, 61415, Note_on_c, 0, 61, 0
1, 61416, Note_on_c, 0, 69, 81
1, 61437, Note_on_c, 1, 45, 0
1, 61439, Note_on_c, 0, 69, 0
1, 61440, Note_on_c, 0, 69, 81
1, 61488, Note_on_c, 1, 57, 79
1, 61488, Note_on_c, 1, 49, 79
1, 61535, Note_on_c, 1, 57, 0
1, 61535, Note_on_c, 1, 49, 0
1, 61536, Note_on_c, 1, 57, 78
1, 61536, Note_on_c, 1, 49, 78
1, 61559, Note_on_c, 0, 69, 0
1, 61560, Note_on_c, 0, 64, 77
1, 61583, Note_on_c, 0, 64, 0
1, 61583, Note_on_c, 1, 57, 0
1, 61583, Note_on_c, 1, 49, 0
1, 61584, Note_on_c, 0, 66, 76
1, 61584, Note_on_c, 1, 57, 76
1, 61584, Note_on_c, 1, 49, 76
1, 61607, Note_on_c, 0, 66, 0
1, 61608, Note_on_c, 0, 67, 75
1, 61631, Note_on_c, 0, 67, 0
1, 61631, Note_on_c, 1, 57, 0
1, 61631, Note_on_c, 1, 49, 0
1, 61632, Note_on_c, 0, 67, 75
1, 61632, Note_on_c, 1, 57, 75
1, 61632, Note_on_c, 1, 50, 75
1, 61655, Note_on_c, 0, 67, 0
1, 61656, Note_on_c, 0, 66, 75
1, 61679, Note_on_c, 0, 66, 0
1, 61679, Note_on_c, 1, 57, 0
1, 61679, Note_on_c, 1, 50, 0
1, 61680, Note_on_c, 0, 64, 75
1, 61680, Note_on_c, 1, 57, 75
1, 61680, Note_on_c, 1, 50, 75
1, 61703, Note_on_c, 0, 64, 0
1, 61704, Note_on_c, 0, 62, 75
1, 61727, Note_on_c, 0, 62, 0
1, 61727, Note_on_c, 1, 57, 0
1, 61727, Note_on_c, 1, 50, 0
1, 61728, Note_on_c, 0, 61, 75
1, 61728, Note_on_c, 1, 57, 75
1, 61728, Note_on_c, 1, 52, 75
1, 61775, Note_on_c, 1, 57, 0
1, 61775, Note_on_c, 1, 52, 0
1, 61776, Note_on_c, 1, 57, 75
1, 61776, Note_on_c, 1, 52, 75
1, 61817, Note_on_c, 0, 61, 0
1, 61823, Note_on_c, 1, 57, 0
1, 61823, Note_on_c, 1, 52, 0
1, 61824, Note_on_c, 0, 64, 75
1, 61824, Note_on_c, 1, 56, 75
1, 61824, Note_on_c, 1, 52, 75
1, 61847, Note_on_c, 0, 64, 0
1, 61848, Note_on_c, 0, 62, 75
1, 61871, Note_on_c, 0, 62, 0
1, 61871, Note_on_c, 1, 56, 0
1, 61871, Note_on_c, 1, 52, 0
1, 61872, Note_on_c, 0, 61, 75
1, 61872, Note_on_c, 1, 56, 75
1, 61872, Note_on_c, 1, 52, 75
1, 61895, Note_on_c, 0, 61, 0
1, 61896, Note_on_c, 0, 59, 75
1, 61919, Note_on_c, 0, 59, 0
1, 61919, Note_on_c, 1, 56, 0
1, 61919, Note_on_c, 1, 52, 0
1, 61920, Note_on_c, 0, 57, 75
1, 61968, Note_on_c, 1, 33, 75
1, 62009, Note_on_c, 0, 57, 0
1, 62013, Note_on_c, 1, 33, 0
1, 62016, Note_on_c, 1, 45, 75
1, 62061, Note_on_c, 1, 45, 0
1, 62064, Note_on_c, 1, 49, 75
1, 62109, Note_on_c, 1, 49, 0
1, 62112, Note_on_c, 1, 33, 75
1, 62160, Note_on_c, 0, 64, 75
1, 62201, Note_on_c, 1, 33, 0
1, 62205, Note_on_c, 0, 64, 0
1, 62208, Note_on_c, 0, 63, 75
1, 62220, Note_on_c, 0, 63, 0
1, 62220, Note_on_c, 0, 64, 75
1, 62232, Note_on_c, 0, 64, 0
1, 62232, Note_on_c, 0, 66, 75
1, 62244, Note_on_c, 0, 66, 0
1, 62244, Note_on_c, 0, 64, 75
1, 62256, Note_on_c, 1, 59, 69
1, 62256, Note_on_c, 1, 56, 69
1, 62303, Note_on_c, 1, 59, 0
1, 62303, Note_on_c, 1, 56, 0
1, 62304, Note_on_c, 1, 59, 69
1, 62304, Note_on_c, 1, 56, 69
1, 62349, Note_on_c, 0, 64, 0
1, 62351, Note_on_c, 1, 59, 0
1, 62351, Note_on_c, 1, 56, 0
1, 62352, Note_on_c, 0, 66, 75
1, 62352, Note_on_c, 1, 59, 69
1, 62352, Note_on_c, 1, 56, 69
1, 62375, Note_on_c, 0, 66, 0
1, 62376, Note_on_c, 0, 64, 75
1, 62399, Note_on_c, 0, 64, 0
1, 62399, Note_on_c, 1, 59, 0
1, 62399, Note_on_c, 1, 56, 0
1, 62400, Note_on_c, 0, 64, 75
1, 62400, Note_on_c, 1, 59, 69
1, 62400, Note_on_c, 1, 56, 69
1, 62423, Note_on_c, 0, 64, 0
1, 62424, Note_on_c, 0, 62, 75
1, 62447, Note_on_c, 0, 62, 0
1, 62447, Note_on_c, 1, 59, 0
1, 62447, Note_on_c, 1, 56, 0
1, 62448, Note_on_c, 0, 61, 75
1, 62448, Note_on_c, 1, 59, 69
1, 62448, Note_on_c, 1, 56, 69
1, 62471, Note_on_c, 0, 61, 0
1, 62472, Note_on_c, 0, 62, 75
1, 62495, Note_on_c, 0, 62, 0
1, 62495, Note_on_c, 1, 59, 0
1, 62495, Note_on_c, 1, 56, 0
1, 62496, Note_on_c, 0, 62, 75
1, 62544, Note_on_c, 1, 52, 61
1, 62544, Note_on_c, 1, 45, 61
1, 62585, Note_on_c, 0, 62, 0
1, 62591, Note_on_c, 1, 52, 0
1, 62591, Note_on_c, 1, 45, 0
1, 62592, Note_on_c, 0, 61, 75
1, 62592, Note_on_c, 1, 52, 61
1, 62592, Note_on_c, 1, 45, 61
1, 62604, Note_on_c, 0, 61, 0
1, 62604, Note_on_c, 0, 59, 75
1, 62616, Note_on_c, 0, 59, 0
1, 62616, Note_on_c, 0, 61, 75
1, 62639, Note_on_c, 1, 52, 0
1, 62639, Note_on_c, 1, 45, 0
1, 62640, Note_on_c, 1, 52, 61
1, 62640, Note_on_c, 1, 45, 61
1, 62681, Note_on_c, 0, 61, 0
1, 62687, Note_on_c, 1, 52, 0
1, 62687, Note_on_c, 1, 45, 0
1, 62688, Note_on_c, 1, 52, 61
1, 62688, Note_on_c, 1, 45, 61
1, 62735, Note_on_c, 1, 52, 0
1, 62735, Note_on_c, 1, 45, 0
1, 62736, Note_on_c, 0, 64, 75
1, 62736, Note_on_c, 1, 52, 61
1, 62736, Note_on_c, 1, 45, 61
1, 62781, Note_on_c, 0, 64, 0
1, 62783, Note_on_c, 1, 52, 0
1, 62783, Note_on_c, 1, 45, 0
1, 62784, Note_on_c, 0, 63, 75
1, 62796, Note_on_c, 0, 63, 0
1, 62796, Note_on_c, 0, 64, 75
1, 62808, Note_on_c, 0, 64, 0
1, 62808, Note_on_c, 0, 66, 75
1, 62820, Note_on_c, 0, 66, 0
1, 62820, Note_on_c, 0, 64, 75
1, 62832, Note_on_c, 1, 59, 61
1, 62832, Note_on_c, 1, 56, 61
1, 62832, Note_on_c, 1, 50, 61
1, 62879, Note_on_c, 1, 59, 0
1, 62879, Note_on_c, 1, 56, 0
1, 62879, Note_on_c, 1, 50, 0
1, 62880, Note_on_c, 1, 59, 61
1, 62880, Note_on_c, 1, 56, 61
1, 62880, Note_on_c, 1, 50, 61
1, 62925, Note_on_c, 0, 64, 0
1, 62927, Note_on_c, 1, 59, 0
1, 62927, Note_on_c, 1, 56, 0
1, 62927, Note_on_c, 1, 50, 0
1, 62928, Note_on_c, 0, 62, 75
1, 62928, Note_on_c, 1, 59, 61
1, 62928, Note_on_c, 1, 56, 61
1, 62928, Note_on_c, 1, 50, 61
1, 62951, Note_on_c, 0, 62, 0
1, 62952, Note_on_c, 0, 61, 75
1, 62975, Note_on_c, 0, 61, 0
1, 62975, Note_on_c, 1, 59, 0
1, 62975, Note_on_c, 1, 56, 0
1, 62975, Note_on_c, 1, 50, 0
1, 62976, Note_on_c, 0, 61, 75
1, 62976, Note_on_c, 1, 52, 69
1, 62976, Note_on_c, 1, 50, 69
1, 62999, Note_on_c, 0, 61, 0
1, 63000, Note_on_c, 0, 59, 75
1, 63023, Note_on_c, 0, 59, 0
1, 63023, Note_on_c, 1, 52, 0
1, 63023, Note_on_c, 1, 50, 0
1, 63024, Note_on_c, 0, 57, 75
1, 63024, Note_on_c, 1, 52, 69
1, 63024, Note_on_c, 1, 50, 69
1, 63047, Note_on_c, 0, 57, 0
1, 63048, Note_on_c, 0, 56, 75
1, 63071, Note_on_c, 0, 56, 0
1, 63071, Note_on_c, 1, 52, 0
1, 63071, Note_on_c, 1, 50, 0
1, 63072, Note_on_c, 0, 56, 75
1, 63120, Note_on_c, 1, 52, 69
1, 63120, Note_on_c, 1, 49, 69
1, 63167, Note_on_c, 1, 52, 0
1, 63167, Note_on_c, 1, 49, 0
1, 63168, Note_on_c, 0, 56, 0
1, 63168, Note_on_c, 0, 57, 75
1, 63168, Note_on_c, 1, 52, 69
1, 63168, Note_on_c, 1, 49, 69
1, 63215, Note_on_c, 1, 52, 0
1, 63215, Note_on_c, 1, 49, 0
1, 63216, Note_on_c, 1, 52, 69
1, 63216, Note_on_c, 1, 49, 69
1, 63257, Note_on_c, 0, 57, 0
1, 63263, Note_on_c, 1, 52, 0
1, 63263, Note_on_c, 1, 49, 0
1, 63264, Note_on_c, 1, 52, 69
1, 63264, Note_on_c, 1, 49, 69
1, 63311, Note_on_c, 1, 52, 0
1, 63311, Note_on_c, 1, 49, 0
1, 63312, Note_on_c, 0, 64, 75
1, 63312, Note_on_c, 1, 52, 69
1, 63312, Note_on_c, 1, 49, 69
1, 63357, Note_on_c, 0, 64, 0
1, 63359, Note_on_c, 1, 52, 0
1, 63359, Note_on_c, 1, 49, 0
1, 63360, Note_on_c, 0, 63, 75
1, 63383, Note_on_c, 0, 63, 0
1, 63384, Note_on_c, 0, 64, 75
1, 63407, Note_on_c, 0, 64, 0
1, 63408, Note_on_c, 0, 66, 75
1, 63408, Note_on_c, 1, 59, 69
1, 63408, Note_on_c, 1, 56, 69
1, 63431, Note_on_c, 0, 66, 0
1, 63432, Note_on_c, 0, 64, 75
1, 63455, Note_on_c, 0, 64, 0
1, 63455, Note_on_c, 1, 59, 0
1, 63455, Note_on_c, 1, 56, 0
1, 63456, Note_on_c, 0, 64, 75
1, 63456, Note_on_c, 1, 59, 69
1, 63456, Note_on_c, 1, 56, 69
1, 63466, Note_on_c, 0, 64, 0
1, 63480, Note_on_c, 0, 64, 75
1, 63490, Note_on_c, 0, 64, 0
1, 63503, Note_on_c, 1, 59, 0
1, 63503, Note_on_c, 1, 56, 0
1, 63504, Note_on_c, 0, 66, 75
1, 63504, Note_on_c, 1, 59, 69
1, 63504, Note_on_c, 1, 56, 69
1, 63528, Note_on_c, 0, 66, 0
1, 63528, Note_on_c, 0, 64, 75
1, 63551, Note_on_c, 0, 64, 0
1, 63551, Note_on_c, 1, 59, 0
1, 63551, Note_on_c, 1, 56, 0
1, 63552, Note_on_c, 0, 64, 75
1, 63552, Note_on_c, 1, 59, 69
1, 63552, Note_on_c, 1, 56, 69
1, 63575, Note_on_c, 0, 64, 0
1, 63576, Note_on_c, 0, 62, 75
1, 63599, Note_on_c, 0, 62, 0
1, 63599, Note_on_c, 1, 59, 0
1, 63599, Note_on_c, 1, 56, 0
1, 63600, Note_on_c, 0, 61, 75
1, 63600, Note_on_c, 1, 59, 69
1, 63600, Note_on_c, 1, 56, 69
1, 63623, Note_on_c, 0, 61, 0
1, 63624, Note_on_c, 0, 62, 75
1, 63647, Note_on_c, 0, 62, 0
1, 63647, Note_on_c, 1, 59, 0
1, 63647, Note_on_c, 1, 56, 0
1, 63648, Note_on_c, 0, 62, 75
1, 63696, Note_on_c, 1, 52, 61
1, 63696, Note_on_c, 1, 45, 61
1, 63737, Note_on_c, 0, 62, 0
1, 63743, Note_on_c, 1, 52, 0
1, 63743, Note_on_c, 1, 45, 0
1, 63744, Note_on_c, 0, 61, 75
1, 63744, Note_on_c, 1, 52, 61
1, 63744, Note_on_c, 1, 45, 61
1, 63756, Note_on_c, 0, 61, 0
1, 63756, Note_on_c, 0, 59, 75
1, 63768, Note_on_c, 0, 59, 0
1, 63768, Note_on_c, 0, 61, 75
1, 63791, Note_on_c, 1, 52, 0
1, 63791, Note_on_c, 1, 45, 0
1, 63792, Note_on_c, 1, 52, 61
1, 63792, Note_on_c, 1, 45, 61
1, 63833, Note_on_c, 0, 61, 0
1, 63839, Note_on_c, 1, 52, 0
1, 63839, Note_on_c, 1, 45, 0
1, 63840, Note_on_c, 1, 52, 61
1, 63840, Note_on_c, 1, 45, 61
1, 63887, Note_on_c, 1, 52, 0
1, 63887, Note_on_c, 1, 45, 0
1, 63888, Note_on_c, 0, 64, 75
1, 63888, Note_on_c, 1, 52, 61
1, 63888, Note_on_c, 1, 45, 61
1, 63933, Note_on_c, 0, 64, 0
1, 63935, Note_on_c, 1, 52, 0
1, 63935, Note_on_c, 1, 45, 0
1, 63936, Note_on_c, 0, 63, 75
1, 63959, Note_on_c, 0, 63, 0
1, 63960, Note_on_c, 0, 64, 75
1, 63983, Note_on_c, 0, 64, 0
1, 63984, Note_on_c, 0, 66, 75
1, 63984, Note_on_c, 1, 59, 61
1, 63984, Note_on_c, 1, 56, 61
1, 63984, Note_on_c, 1, 50, 61
1, 64007, Note_on_c, 0, 66, 0
1, 64008, Note_on_c, 0, 64, 75
1, 64031, Note_on_c, 0, 64, 0
1, 64031, Note_on_c, 1, 59, 0
1, 64031, Note_on_c, 1, 56, 0
1, 64031, Note_on_c, 1, 50, 0
1, 64032, Note_on_c, 0, 66, 75
1, 64032, Note_on_c, 1, 59, 61
1, 64032, Note_on_c, 1, 56, 61
1, 64032, Note_on_c, 1, 50, 61
1, 64055, Note_on_c, 0, 66, 0
1, 64056, Note_on_c, 0, 64, 75
1, 64079, Note_on_c, 0, 64, 0
1, 64079, Note_on_c, 1, 59, 0
1, 64079, Note_on_c, 1, 56, 0
1, 64079, Note_on_c, 1, 50, 0
1, 64080, Note_on_c, 0, 62, 75
1, 64080, Note_on_c, 1, 59, 61
1, 64080, Note_on_c, 1, 56, 61
1, 64080, Note_on_c, 1, 50, 61
1, 64103, Note_on_c, 0, 62, 0
1, 64104, Note_on_c, 0, 61, 75
1, 64127, Note_on_c, 0, 61, 0
1, 64127, Note_on_c, 1, 59, 0
1, 64127, Note_on_c, 1, 56, 0
1, 64127, Note_on_c, 1, 50, 0
1, 64128, Note_on_c, 0, 61, 75
1, 64128, Note_on_c, 1, 52, 69
1, 64128, Note_on_c, 1, 50, 69
1, 64151, Note_on_c, 0, 61, 0
1, 64152, Note_on_c, 0, 59, 75
1, 64175, Note_on_c, 0, 59, 0
1, 64175, Note_on_c, 1, 52, 0
1, 64175, Note_on_c, 1, 50, 0
1, 64176, Note_on_c, 0, 57, 75
1, 64176, Note_on_c, 1, 52, 69
1, 64176, Note_on_c, 1, 50, 69
1, 64199, Note_on_c, 0, 57, 0
1, 64200, Note_on_c, 0, 56, 75
1, 64223, Note_on_c, 0, 56, 0
1, 64223, Note_on_c, 1, 52, 0
1, 64223, Note_on_c, 1, 50, 0
1, 64224, Note_on_c, 0, 56, 75
1, 64272, Note_on_c, 1, 52, 69
1, 64272, Note_on_c, 1, 49, 69
1, 64319, Note_on_c, 1, 52, 0
1, 64319, Note_on_c, 1, 49, 0
1, 64320, Note_on_c, 0, 56, 0
1, 64320, Note_on_c, 0, 57, 75
1, 64320, Note_on_c, 1, 52, 72
1, 64320, Note_on_c, 1, 49, 72
1, 64365, Note_on_c, 0, 57, 0
1, 64367, Note_on_c, 1, 52, 0
1, 64367, Note_on_c, 1, 49, 0
1, 64368, Note_on_c, 0, 52, 93
1, 64368, Note_on_c, 1, 49, 75
1, 64413, Note_on_c, 1, 49, 0
1, 64416, Note_on_c, 0, 52, 0
1, 64416, Note_on_c, 0, 52, 95
1, 64416, Note_on_c, 1, 49, 78
1, 64461, Note_on_c, 1, 49, 0
1, 64464, Note_on_c, 0, 52, 0
1, 64464, Note_on_c, 0, 53, 97
1, 64464, Note_on_c, 1, 49, 81
1, 64509, Note_on_c, 1, 49, 0
1, 64512, Note_on_c, 0, 53, 0
1, 64512, Note_on_c, 0, 54, 100
1, 64560, Note_on_c, 1, 38, 84
1, 64605, Note_on_c, 1, 38, 0
1, 64608, Note_on_c, 1, 38, 87
1, 64642, Note_on_c, 0, 54, 0
1, 64644, Note_on_c, 0, 59, 94
1, 64653, Note_on_c, 1, 38, 0
1, 64656, Note_on_c, 0, 59, 0
1, 64656, Note_on_c, 0, 58, 95
1, 64656, Note_on_c, 1, 38, 90
1, 64690, Note_on_c, 0, 58, 0
1, 64692, Note_on_c, 0, 61, 97
1, 64701, Note_on_c, 1, 38, 0
1, 64704, Note_on_c, 0, 61, 0
1, 64704, Note_on_c, 0, 59, 98
1, 64704, Note_on_c, 1, 38, 93
1, 64738, Note_on_c, 0, 59, 0
1, 64740, Note_on_c, 0, 62, 101
1, 64749, Note_on_c, 1, 38, 0
1, 64752, Note_on_c, 0, 62, 0
1, 64752, Note_on_c, 0, 61, 102
1, 64752, Note_on_c, 1, 38, 96
1, 64786, Note_on_c, 0, 61, 0
1, 64788, Note_on_c, 0, 64, 105
1, 64797, Note_on_c, 1, 38, 0
1, 64800, Note_on_c, 0, 64, 0
1, 64800, Note_on_c, 0, 62, 106
1, 64800, Note_on_c, 1, 38, 99
1, 64834, Note_on_c, 0, 62, 0
1, 64836, Note_on_c, 0, 66, 103
1, 64848, Note_on_c, 0, 66, 0
1, 64848, Note_on_c, 0, 61, 102
1, 64882, Note_on_c, 0, 61, 0
1, 64884, Note_on_c, 0, 64, 99
1, 64889, Note_on_c, 1, 38, 0
1, 64896, Note_on_c, 0, 64, 0
1, 64896, Note_on_c, 0, 59, 98
1, 64930, Note_on_c, 0, 59, 0
1, 64932, Note_on_c, 0, 62, 95
1, 64944, Note_on_c, 0, 62, 0
1, 64944, Note_on_c, 0, 58, 95
1, 64978, Note_on_c, 0, 58, 0
1, 64980, Note_on_c, 0, 61, 92
1, 64992, Note_on_c, 0, 61, 0
1, 64992, Note_on_c, 0, 59, 91
1, 65026, Note_on_c, 0, 59, 0
1, 65028, Note_on_c, 0, 62, 88
1, 65040, Note_on_c, 0, 62, 0
1, 65040, Note_on_c, 0, 54, 87
1, 65074, Note_on_c, 0, 54, 0
1, 65076, Note_on_c, 0, 59, 84
1, 65088, Note_on_c, 0, 59, 0
1, 65088, Note_on_c, 0, 52, 84
1, 65136, Note_on_c, 1, 49, 75
1, 65181, Note_on_c, 1, 49, 0
1, 65184, Note_on_c, 1, 49, 76
1, 65218, Note_on_c, 0, 52, 0
1, 65220, Note_on_c, 0, 57, 87
1, 65229, Note_on_c, 1, 49, 0
1, 65232, Note_on_c, 0, 57, 0
1, 65232, Note_on_c, 0, 56, 88
1, 65232, Note_on_c, 1, 49, 77
1, 65266, Note_on_c, 0, 56, 0
1, 65268, Note_on_c, 0, 59, 92
1, 65277, Note_on_c, 1, 49, 0
1, 65280, Note_on_c, 0, 59, 0
1, 65280, Note_on_c, 0, 57, 93
1, 65280, Note_on_c, 1, 49, 78
1, 65314, Note_on_c, 0, 57, 0
1, 65316, Note_on_c, 0, 61, 96
1, 65325, Note_on_c, 1, 49, 0
1, 65328, Note_on_c, 0, 61, 0
1, 65328, Note_on_c, 0, 59, 97
1, 65328, Note_on_c, 1, 49, 80
1, 65362, Note_on_c, 0, 59, 0
1, 65364, Note_on_c, 0, 62, 101
1, 65373, Note_on_c, 1, 49, 0
1, 65376, Note_on_c, 0, 62, 0
1, 65376, Note_on_c, 0, 61, 102
1, 65376, Note_on_c, 1, 49, 81
1, 65410, Note_on_c, 0, 61, 0
1, 65412, Note_on_c, 0, 64, 106
1, 65424, Note_on_c, 0, 64, 0
1, 65424, Note_on_c, 0, 59, 104
1, 65458, Note_on_c, 0, 59, 0
1, 65460, Note_on_c, 0, 62, 101
1, 65465, Note_on_c, 1, 49, 0
1, 65472, Note_on_c, 0, 62, 0
1, 65472, Note_on_c, 0, 57, 100
1, 65506, Note_on_c, 0, 57, 0
1, 65508, Note_on_c, 0, 61, 97
1, 65520, Note_on_c, 0, 61, 0
1, 65520, Note_on_c, 0, 56, 96
1, 65554, Note_on_c, 0, 56, 0
1, 65556, Note_on_c, 0, 59, 93
1, 65568, Note_on_c, 0, 59, 0
1, 65568, Note_on_c, 0, 57, 92
1, 65602, Note_on_c, 0, 57, 0
1, 65604, Note_on_c, 0, 61, 89
1, 65616, Note_on_c, 0, 61, 0
1, 65616, Note_on_c, 0, 52, 88
1, 65650, Note_on_c, 0, 52, 0
1, 65652, Note_on_c, 0, 57, 85
1, 65664, Note_on_c, 0, 57, 0
1, 65664, Note_on_c, 0, 50, 84
1, 65712, Note_on_c, 1, 47, 75
1, 65753, Note_on_c, 0, 50, 0
1, 65757, Note_on_c, 1, 47, 0
1, 65760, Note_on_c, 0, 62, 75
1, 65760, Note_on_c, 0, 56, 75
1, 65808, Note_on_c, 1, 40, 75
1, 65853, Note_on_c, 1, 40, 0
1, 65856, Note_on_c, 0, 62, 0
1, 65856, Note_on_c, 0, 56, 0
1, 65856, Note_on_c, 0, 61, 75
1, 65856, Note_on_c, 0, 57, 75
1, 65904, Note_on_c, 1, 45, 75
1, 65945, Note_on_c, 0, 61, 0
1, 65945, Note_on_c, 0, 57, 0
1, 65949, Note_on_c, 1, 45, 0
1, 65952, Note_on_c, 0, 56, 75
1, 65952, Note_on_c, 0, 50, 75
1, 65997, Note_on_c, 0, 56, 0
1, 65997, Note_on_c, 0, 50, 0
1, 66000, Note_on_c, 1, 47, 75
1, 66045, Note_on_c, 1, 47, 0
1, 66048, Note_on_c, 0, 62, 75
1, 66048, Note_on_c, 0, 56, 75
1, 66096, Note_on_c, 1, 40, 75
1, 66141, Note_on_c, 1, 40, 0
1, 66144, Note_on_c, 0, 62, 0
1, 66144, Note_on_c, 0, 56, 0
1, 66144, Note_on_c, 0, 61, 75
1, 66144, Note_on_c, 0, 57, 75
1, 66192, Note_on_c, 1, 45, 75
1, 66233, Note_on_c, 0, 61, 0
1, 66233, Note_on_c, 0, 57, 0
1, 66237, Note_on_c, 1, 45, 0
1, 66240, Note_on_c, 1, 38, 75
1, 66288, Note_on_c, 0, 54, 75
1, 66308, Note_on_c, 0, 54, 0
1, 66329, Note_on_c, 1, 38, 0
1, 66336, Note_on_c, 0, 59, 75
1, 66356, Note_on_c, 0, 59, 0
1, 66384, Note_on_c, 0, 62, 75
1, 66404, Note_on_c, 0, 62, 0
1, 66432, Note_on_c, 0, 66, 75
1, 66452, Note_on_c, 0, 66, 0
1, 66480, Note_on_c, 0, 66, 75
1, 66500, Note_on_c, 0, 66, 0
1, 66528, Note_on_c, 0, 66, 75
1, 66576, Note_on_c, 1, 49, 75
1, 66621, Note_on_c, 1, 49, 0
1, 66624, Note_on_c, 1, 49, 75
1, 66647, Note_on_c, 0, 66, 0
1, 66648, Note_on_c, 0, 64, 75
1, 66669, Note_on_c, 1, 49, 0
1, 66671, Note_on_c, 0, 64, 0
1, 66672, Note_on_c, 0, 62, 75
1, 66672, Note_on_c, 1, 49, 75
1, 66695, Note_on_c, 0, 62, 0
1, 66696, Note_on_c, 0, 61, 75
1, 66717, Note_on_c, 1, 49, 0
1, 66719, Note_on_c, 0, 61, 0
1, 66720, Note_on_c, 0, 61, 75
1, 66720, Note_on_c, 1, 50, 75
1, 66743, Note_on_c, 0, 61, 0
1, 66744, Note_on_c, 0, 59, 75
1, 66765, Note_on_c, 1, 50, 0
1, 66767, Note_on_c, 0, 59, 0
1, 66768, Note_on_c, 0, 57, 75
1, 66768, Note_on_c, 1, 52, 75
1, 66791, Note_on_c, 0, 57, 0
1, 66792, Note_on_c, 0, 56, 75
1, 66813, Note_on_c, 1, 52, 0
1, 66815, Note_on_c, 0, 56, 0
1, 66816, Note_on_c, 0, 57, 75
1, 66816, Note_on_c, 1, 45, 75
1, 66861, Note_on_c, 0, 57, 0
1, 66864, Note_on_c, 0, 76, 61
1, 66884, Note_on_c, 0, 76, 0
1, 66905, Note_on_c, 1, 45, 0
1, 66912, Note_on_c, 0, 76, 61
1, 66912, Note_on_c, 1, 73, 61
1, 66932, Note_on_c, 0, 76, 0
1, 66951, Note_on_c, 1, 73, 0
1, 66960, Note_on_c, 0, 76, 61
1, 66980, Note_on_c, 0, 76, 0
1, 67008, Note_on_c, 0, 76, 61
1, 67008, Note_on_c, 1, 68, 61
1, 67031, Note_on_c, 0, 76, 0
1, 67032, Note_on_c, 0, 78, 61
1, 67047, Note_on_c, 1, 68, 0
1, 67055, Note_on_c, 0, 78, 0
1, 67056, Note_on_c, 0, 76, 61
1, 67079, Note_on_c, 0, 76, 0
1, 67080, Note_on_c, 0, 74, 61
1, 67103, Note_on_c, 0, 74, 0
1, 67104, Note_on_c, 0, 73, 61
1, 67104, Note_on_c, 1, 69, 61
1, 67124, Note_on_c, 0, 73, 0
1, 67143, Note_on_c, 1, 69, 0
1, 67152, Note_on_c, 0, 52, 75
1, 67197, Note_on_c, 0, 52, 0
1, 67200, Note_on_c, 0, 52, 75
1, 67223, Note_on_c, 0, 52, 0
1, 67224, Note_on_c, 0, 50, 75
1, 67247, Note_on_c, 0, 50, 0
1, 67248, Note_on_c, 0, 49, 75
1, 67271, Note_on_c, 0, 49, 0
1, 67272, Note_on_c, 0, 50, 75
1, 67295, Note_on_c, 0, 50, 0
1, 67296, Note_on_c, 0, 52, 75
1, 67296, Note_on_c, 1, 33, 75
1, 67319, Note_on_c, 0, 52, 0
1, 67320, Note_on_c, 0, 54, 75
1, 67343, Note_on_c, 0, 54, 0
1, 67344, Note_on_c, 0, 56, 75
1, 67367, Note_on_c, 0, 56, 0
1, 67368, Note_on_c, 0, 57, 75
1, 67385, Note_on_c, 1, 33, 0
1, 67391, Note_on_c, 0, 57, 0
1, 67392, Note_on_c, 0, 56, 75
1, 67392, Note_on_c, 1, 38, 75
1, 67415, Note_on_c, 0, 56, 0
1, 67416, Note_on_c, 0, 54, 75
1, 67439, Note_on_c, 0, 54, 0
1, 67440, Note_on_c, 0, 52, 75
1, 67463, Note_on_c, 0, 52, 0
1, 67464, Note_on_c, 0, 50, 75
1, 67481, Note_on_c, 1, 38, 0
1, 67487, Note_on_c, 0, 50, 0
1, 67488, Note_on_c, 0, 50, 75
1, 67488, Note_on_c, 1, 40, 75
1, 67511, Note_on_c, 0, 50, 0
1, 67512, Note_on_c, 0, 49, 75
1, 67535, Note_on_c, 0, 49, 0
1, 67536, Note_on_c, 0, 52, 75
1, 67559, Note_on_c, 0, 52, 0
1, 67560, Note_on_c, 0, 45, 75
1, 67577, Note_on_c, 1, 40, 0
1, 67583, Note_on_c, 0, 45, 0
1, 67584, Note_on_c, 0, 49, 75
1, 67584, Note_on_c, 1, 40, 75
1, 67607, Note_on_c, 0, 49, 0
1, 67608, Note_on_c, 0, 47, 75
1, 67631, Note_on_c, 0, 47, 0
1, 67632, Note_on_c, 0, 45, 75
1, 67655, Note_on_c, 0, 45, 0
1, 67656, Note_on_c, 0, 44, 75
1, 67673, Note_on_c, 1, 40, 0
1, 67679, Note_on_c, 0, 44, 0
1, 67680, Note_on_c, 0, 45, 75
1, 67680, Note_on_c, 1, 33, 75
1, 67725, Note_on_c, 0, 45, 0
1, 67728, Note_on_c, 0, 76, 61
1, 67769, Note_on_c, 1, 33, 0
1, 67773, Note_on_c, 0, 76, 0
1, 67776, Note_on_c, 0, 76, 61
1, 67776, Note_on_c, 1, 73, 61
1, 67776, Note_on_c, 1, 69, 61
1, 67821, Note_on_c, 0, 76, 0
1, 67824, Note_on_c, 0, 76, 61
1, 67869, Note_on_c, 0, 76, 0
1, 67872, Note_on_c, 0, 76, 61
1, 67872, Note_on_c, 1, 73, 0
1, 67872, Note_on_c, 1, 69, 0
1, 67872, Note_on_c, 1, 71, 61
1, 67872, Note_on_c, 1, 68, 61
1, 67906, Note_on_c, 0, 76, 0
1, 67908, Note_on_c, 0, 74, 61
1, 67914, Note_on_c, 0, 74, 0
1, 67914, Note_on_c, 0, 76, 61
1, 67920, Note_on_c, 0, 76, 0
1, 67920, Note_on_c, 0, 78, 61
1, 67935, Note_on_c, 0, 78, 0
1, 67936, Note_on_c, 0, 76, 61
1, 67951, Note_on_c, 0, 76, 0
1, 67952, Note_on_c, 0, 74, 61
1, 67961, Note_on_c, 1, 71, 0
1, 67961, Note_on_c, 1, 68, 0
1, 67967, Note_on_c, 0, 74, 0
1, 67968, Note_on_c, 0, 73, 61
1, 67968, Note_on_c, 1, 69, 61
1, 68013, Note_on_c, 0, 73, 0
1, 68016, Note_on_c, 0, 52, 75
1, 68026, Note_on_c, 0, 52, 0
1, 68040, Note_on_c, 0, 54, 75
1, 68050, Note_on_c, 0, 54, 0
1, 68057, Note_on_c, 1, 69, 0
1, 68064, Note_on_c, 0, 52, 75
1, 68074, Note_on_c, 0, 52, 0
1, 68088, Note_on_c, 0, 50, 75
1, 68098, Note_on_c, 0, 50, 0
1, 68112, Note_on_c, 0, 49, 75
1, 68122, Note_on_c, 0, 49, 0
1, 68136, Note_on_c, 0, 50, 75
1, 68146, Note_on_c, 0, 50, 0
1, 68160, Note_on_c, 0, 52, 75
1, 68160, Note_on_c, 1, 33, 75
1, 68170, Note_on_c, 0, 52, 0
1, 68184, Note_on_c, 0, 54, 75
1, 68194, Note_on_c, 0, 54, 0
1, 68208, Note_on_c, 0, 56, 75
1, 68218, Note_on_c, 0, 56, 0
1, 68232, Note_on_c, 0, 57, 75
1, 68242, Note_on_c, 0, 57, 0
1, 68249, Note_on_c, 1, 33, 0
1, 68256, Note_on_c, 0, 56, 75
1, 68256, Note_on_c, 1, 38, 75
1, 68280, Note_on_c, 0, 56, 0
1, 68280, Note_on_c, 0, 54, 75
1, 68295, Note_on_c, 1, 38, 0
1, 68303, Note_on_c, 0, 54, 0
1, 68304, Note_on_c, 0, 57, 75
1, 68314, Note_on_c, 0, 57, 0
1, 68328, Note_on_c, 0, 54, 75
1, 68338, Note_on_c, 0, 54, 0
1, 68352, Note_on_c, 0, 54, 75
1, 68352, Note_on_c, 1, 49, 75
1, 68376, Note_on_c, 0, 54, 0
1, 68376, Note_on_c, 0, 52, 75
1, 68391, Note_on_c, 1, 49, 0
1, 68399, Note_on_c, 0, 52, 0
1, 68400, Note_on_c, 0, 57, 75
1, 68410, Note_on_c, 0, 57, 0
1, 68424, Note_on_c, 0, 52, 75
1, 68434, Note_on_c, 0, 52, 0
1, 68448, Note_on_c, 0, 52, 75
1, 68448, Note_on_c, 1, 47, 75
1, 68468, Note_on_c, 1, 47, 0
1, 68472, Note_on_c, 0, 52, 0
1, 68472, Note_on_c, 0, 50, 75
1, 68495, Note_on_c, 0, 50, 0
1, 68496, Note_on_c, 0, 59, 75
1, 68496, Note_on_c, 1, 40, 75
1, 68506, Note_on_c, 0, 59, 0
1, 68516, Note_on_c, 1, 40, 0
1, 68520, Note_on_c, 0, 50, 75
1, 68530, Note_on_c, 0, 50, 0
1, 68544, Note_on_c, 0, 49, 75
1, 68544, Note_on_c, 1, 45, 75
1, 68568, Note_on_c, 0, 49, 0
1, 68568, Note_on_c, 0, 52, 75
1, 68589, Note_on_c, 1, 45, 0
1, 68591, Note_on_c, 0, 52, 0
1, 68592, Note_on_c, 0, 50, 76
1, 68592, Note_on_c, 1, 47, 76
1, 68616, Note_on_c, 0, 50, 0
1, 68616, Note_on_c, 0, 54, 76
1, 68637, Note_on_c, 1, 47, 0
1, 68639, Note_on_c, 0, 54, 0
1, 68640, Note_on_c, 0, 52, 77
1, 68640, Note_on_c, 1, 49, 77
1, 68664, Note_on_c, 0, 52, 0
1, 68664, Note_on_c, 0, 56, 78
1, 68685, Note_on_c, 1, 49, 0
1, 68687, Note_on_c, 0, 56, 0
1, 68688, Note_on_c, 0, 54, 78
1, 68688, Note_on_c, 1, 50, 78
1, 68712, Note_on_c, 0, 54, 0
1, 68712, Note_on_c, 0, 57, 79
1, 68733, Note_on_c, 1, 50, 0
1, 68735, Note_on_c, 0, 57, 0
1, 68736, Note_on_c, 0, 56, 80
1, 68736, Note_on_c, 1, 52, 80
1, 68760, Note_on_c, 0, 56, 0
1, 68760, Note_on_c, 0, 59, 80
1, 68781, Note_on_c, 1, 52, 0
1, 68783, Note_on_c, 0, 59, 0
1, 68784, Note_on_c, 0, 57, 81
1, 68784, Note_on_c, 1, 54, 81
1, 68808, Note_on_c, 0, 57, 0
1, 68808, Note_on_c, 0, 61, 82
1, 68829, Note_on_c, 1, 54, 0
1, 68831, Note_on_c, 0, 61, 0
1, 68832, Note_on_c, 0, 59, 82
1, 68832, Note_on_c, 1, 56, 82
1, 68856, Note_on_c, 0, 59, 0
1, 68856, Note_on_c, 0, 62, 83
1, 68877, Note_on_c, 1, 56, 0
1, 68879, Note_on_c, 0, 62, 0
1, 68880, Note_on_c, 0, 61, 84
1, 68880, Note_on_c, 1, 57, 84
1, 68904, Note_on_c, 0, 61, 0
1, 68904, Note_on_c, 0, 64, 84
1, 68925, Note_on_c, 1, 57, 0
1, 68927, Note_on_c, 0, 64, 0
1, 68928, Note_on_c, 0, 62, 85
1, 68928, Note_on_c, 1, 59, 85
1, 68952, Note_on_c, 0, 62, 0
1, 68952, Note_on_c, 0, 66, 85
1, 68973, Note_on_c, 1, 59, 0
1, 68975, Note_on_c, 0, 66, 0
1, 68976, Note_on_c, 0, 59, 86
1, 68976, Note_on_c, 1, 56, 86
1, 69000, Note_on_c, 0, 59, 0
1, 69000, Note_on_c, 0, 62, 87
1, 69021, Note_on_c, 1, 56, 0
1, 69023, Note_on_c, 0, 62, 0
1, 69024, Note_on_c, 0, 61, 87
1, 69024, Note_on_c, 1, 57, 87
1, 69048, Note_on_c, 0, 61, 0
1, 69048, Note_on_c, 0, 64, 88
1, 69069, Note_on_c, 1, 57, 0
1, 69071, Note_on_c, 0, 64, 0
1, 69072, Note_on_c, 0, 57, 89
1, 69072, Note_on_c, 1, 54, 89
1, 69096, Note_on_c, 0, 57, 0
1, 69096, Note_on_c, 0, 61, 89
1, 69117, Note_on_c, 1, 54, 0
1, 69119, Note_on_c, 0, 61, 0
1, 69120, Note_on_c, 1, 51, 90
1, 69168, Note_on_c, 0, 69, 91
1, 69168, Note_on_c, 0, 61, 91
1, 69213, Note_on_c, 0, 69, 0
1, 69213, Note_on_c, 0, 61, 0
1, 69216, Tempo, 923076
1, 69216, Note_on_c, 0, 69, 93
1, 69216, Note_on_c, 0, 61, 93
1, 69261, Note_on_c, 0, 69, 0
1, 69261, Note_on_c, 0, 61, 0
1, 69264, Tempo, 1000000
1, 69264, Note_on_c, 0, 69, 94
1, 69264, Note_on_c, 0, 61, 94
1, 69309, Note_on_c, 0, 69, 0
1, 69309, Note_on_c, 0, 61, 0
1, 69309, Note_on_c, 1, 51, 0
1, 69312, Tempo, 1090909
1, 69312, Note_on_c, 0, 69, 95
1, 69312, Note_on_c, 0, 61, 95
1, 69312, Note_on_c, 1, 51, 95
1, 69312, Note_on_c, 1, 39, 95
1, 69357, Note_on_c, 0, 69, 0
1, 69357, Note_on_c, 0, 61, 0
1, 69360, Tempo, 1200000
1, 69360, Note_on_c, 0, 69, 96
1, 69360, Note_on_c, 0, 61, 96
1, 69405, Note_on_c, 0, 69, 0
1, 69405, Note_on_c, 0, 61, 0
1, 69405, Note_on_c, 1, 51, 0
1, 69405, Note_on_c, 1, 39, 0
1, 69408, Tempo, 857142
1, 69408, Note_on_c, 0, 69, 98
1, 69408, Note_on_c, 0, 61, 98
1, 69408, Note_on_c, 1, 52, 98
1, 69408, Note_on_c, 1, 40, 98
1, 69673, Note_on_c, 0, 69, 0
1, 69673, Note_on_c, 0, 61, 0
1, 69673, Note_on_c, 1, 52, 0
1, 69673, Note_on_c, 1, 40, 0
1, 69744, Note_on_c, 0, 76, 75
1, 69764, Note_on_c, 0, 76, 0
1, 69792, Note_on_c, 0, 76, 75
1, 69812, Note_on_c, 0, 76, 0
1, 69840, Note_on_c, 0, 76, 75
1, 69860, Note_on_c, 0, 76, 0
1, 69888, Note_on_c, 0, 76, 75
1, 69911, Note_on_c, 0, 76, 0
1, 69912, Note_on_c, 0, 78, 75
1, 69935, Note_on_c, 0, 78, 0
1, 69936, Note_on_c, 0, 76, 75
1, 69959, Note_on_c, 0, 76, 0
1, 69960, Note_on_c, 0, 74, 75
1, 69983, Note_on_c, 0, 74, 0
1, 69984, Note_on_c, 0, 73, 91
1, 70004, Note_on_c, 0, 73, 0
1, 70032, Note_on_c, 0, 73, 75
1, 70032, Note_on_c, 0, 69, 75
1, 70052, Note_on_c, 0, 73, 0
1, 70052, Note_on_c, 0, 69, 0
1, 70080, Note_on_c, 0, 73, 75
1, 70080, Note_on_c, 0, 69, 75
1, 70100, Note_on_c, 0, 73, 0
1, 70100, Note_on_c, 0, 69, 0
1, 70128, Note_on_c, 0, 73, 75
1, 70128, Note_on_c, 0, 69, 75
1, 70148, Note_on_c, 0, 73, 0
1, 70148, Note_on_c, 0, 69, 0
1, 70176, Note_on_c, 0, 73, 75
1, 70176, Note_on_c, 0, 69, 75
1, 70199, Note_on_c, 0, 73, 0
1, 70199, Note_on_c, 0, 69, 0
1, 70200, Note_on_c, 0, 74, 75
1, 70200, Note_on_c, 0, 71, 75
1, 70223, Note_on_c, 0, 74, 0
1, 70223, Note_on_c, 0, 71, 0
1, 70224, Note_on_c, 0, 73, 75
1, 70224, Note_on_c, 0, 69, 75
1, 70247, Note_on_c, 0, 73, 0
1, 70247, Note_on_c, 0, 69, 0
1, 70248, Note_on_c, 0, 71, 75
1, 70248, Note_on_c, 0, 68, 75
1, 70271, Note_on_c, 0, 71, 0
1, 70271, Note_on_c, 0, 68, 0
1, 70272, Note_on_c, 0, 69, 75
1, 70272, Note_on_c, 0, 66, 75
1, 70295, Note_on_c, 0, 69, 0
1, 70295, Note_on_c, 0, 66, 0
1, 70296, Note_on_c, 0, 71, 75
1, 70296, Note_on_c, 0, 68, 75
1, 70319, Note_on_c, 0, 71, 0
1, 70319, Note_on_c, 0, 68, 0
1, 70320, Note_on_c, 0, 69, 75
1, 70320, Note_on_c, 0, 66, 75
1, 70343, Note_on_c, 0, 69, 0
1, 70343, Note_on_c, 0, 66, 0
1, 70344, Note_on_c, 0, 68, 75
1, 70344, Note_on_c, 0, 64, 75
1, 70367, Note_on_c, 0, 68, 0
1, 70367, Note_on_c, 0, 64, 0
1, 70368, Note_on_c, 0, 66, 75
1, 70368, Note_on_c, 0, 62, 75
1, 70391, Note_on_c, 0, 66, 0
1, 70391, Note_on_c, 0, 62, 0
1, 70392, Note_on_c, 0, 68, 75
1, 70392, Note_on_c, 0, 64, 75
1, 70415, Note_on_c, 0, 68, 0
1, 70415, Note_on_c, 0, 64, 0
1, 70416, Note_on_c, 0, 66, 75
1, 70416, Note_on_c, 0, 62, 75
1, 70439, Note_on_c, 0, 66, 0
1, 70439, Note_on_c, 0, 62, 0
1, 70440, Note_on_c, 0, 64, 75
1, 70440, Note_on_c, 0, 61, 75
1, 70463, Note_on_c, 0, 64, 0
1, 70463, Note_on_c, 0, 61, 0
1, 70464, Note_on_c, 0, 62, 75
1, 70464, Note_on_c, 0, 59, 75
1, 70487, Note_on_c, 0, 62, 0
1, 70487, Note_on_c, 0, 59, 0
1, 70488, Note_on_c, 0, 64, 75
1, 70488, Note_on_c, 0, 61, 75
1, 70511, Note_on_c, 0, 64, 0
1, 70511, Note_on_c, 0, 61, 0
1, 70512, Note_on_c, 0, 62, 75
1, 70512, Note_on_c, 0, 59, 75
1, 70535, Note_on_c, 0, 62, 0
1, 70535, Note_on_c, 0, 59, 0
1, 70536, Note_on_c, 0, 61, 75
1, 70536, Note_on_c, 0, 57, 75
1, 70559, Note_on_c, 0, 61, 0
1, 70559, Note_on_c, 0, 57, 0
1, 70560, Note_on_c, 1, 59, 106
1, 70560, Note_on_c, 1, 56, 106
1, 70608, Note_on_c, 0, 74, 75
1, 70628, Note_on_c, 0, 74, 0
1, 70656, Note_on_c, 0, 74, 75
1, 70676, Note_on_c, 0, 74, 0
1, 70704, Note_on_c, 0, 74, 75
1, 70724, Note_on_c, 0, 74, 0
1, 70737, Note_on_c, 1, 59, 0
1, 70737, Note_on_c, 1, 56, 0
1, 70752, Note_on_c, 0, 74, 75
1, 70775, Note_on_c, 0, 74, 0
1, 70776, Note_on_c, 0, 76, 75
1, 70799, Note_on_c, 0, 76, 0
1, 70800, Note_on_c, 0, 74, 75
1, 70823, Note_on_c, 0, 74, 0
1, 70824, Note_on_c, 0, 73, 75
1, 70847, Note_on_c, 0, 73, 0
1, 70848, Note_on_c, 0, 71, 91
1, 70868, Note_on_c, 0, 71, 0
1, 70896, Note_on_c, 0, 71, 75
1, 70896, Note_on_c, 0, 68, 75
1, 70916, Note_on_c, 0, 71, 0
1, 70916, Note_on_c, 0, 68, 0
1, 70944, Note_on_c, 0, 71, 75
1, 70944, Note_on_c, 0, 68, 75
1, 70964, Note_on_c, 0, 71, 0
1, 70964, Note_on_c, 0, 68, 0
1, 70992, Note_on_c, 0, 71, 75
1, 70992, Note_on_c, 0, 68, 75
1, 71012, Note_on_c, 0, 71, 0
1, 71012, Note_on_c, 0, 68, 0
1, 71040, Note_on_c, 0, 71, 75
1, 71040, Note_on_c, 0, 68, 75
1, 71063, Note_on_c, 0, 71, 0
1, 71063, Note_on_c, 0, 68, 0
1, 71064, Note_on_c, 0, 73, 75
1, 71064, Note_on_c, 0, 69, 75
1, 71087, Note_on_c, 0, 73, 0
1, 71087, Note_on_c, 0, 69, 0
1, 71088, Note_on_c, 0, 71, 75
1, 71088, Note_on_c, 0, 68, 75
1, 71111, Note_on_c, 0, 71, 0
1, 71111, Note_on_c, 0, 68, 0
1, 71112, Note_on_c, 0, 69, 75
1, 71112, Note_on_c, 0, 66, 75
1, 71135, Note_on_c, 0, 69, 0
1, 71135, Note_on_c, 0, 66, 0
1, 71136, Note_on_c, 0, 68, 75
1, 71136, Note_on_c, 0, 64, 75
1, 71159, Note_on_c, 0, 68, 0
1, 71159, Note_on_c, 0, 64, 0
1, 71160, Note_on_c, 0, 69, 75
1, 71160, Note_on_c, 0, 66, 75
1, 71183, Note_on_c, 0, 69, 0
1, 71183, Note_on_c, 0, 66, 0
1, 71184, Note_on_c, 0, 68, 75
1, 71184, Note_on_c, 0, 64, 75
1, 71207, Note_on_c, 0, 68, 0
1, 71207, Note_on_c, 0, 64, 0
1, 71208, Note_on_c, 0, 66, 75
1, 71208, Note_on_c, 0, 62, 75
1, 71231, Note_on_c, 0, 66, 0
1, 71231, Note_on_c, 0, 62, 0
1, 71232, Note_on_c, 0, 64, 75
1, 71232, Note_on_c, 0, 61, 75
1, 71255, Note_on_c, 0, 64, 0
1, 71255, Note_on_c, 0, 61, 0
1, 71256, Note_on_c, 0, 66, 75
1, 71256, Note_on_c, 0, 62, 75
1, 71279, Note_on_c, 0, 66, 0
1, 71279, Note_on_c, 0, 62, 0
1, 71280, Note_on_c, 0, 64, 75
1, 71280, Note_on_c, 0, 61, 75
1, 71303, Note_on_c, 0, 64, 0
1, 71303, Note_on_c, 0, 61, 0
1, 71304, Note_on_c, 0, 62, 75
1, 71304, Note_on_c, 0, 59, 75
1, 71327, Note_on_c, 0, 62, 0
1, 71327, Note_on_c, 0, 59, 0
1, 71328, Note_on_c, 0, 61, 75
1, 71328, Note_on_c, 0, 57, 75
1, 71351, Note_on_c, 0, 61, 0
1, 71351, Note_on_c, 0, 57, 0
1, 71352, Note_on_c, 0, 62, 75
1, 71352, Note_on_c, 0, 59, 75
1, 71375, Note_on_c, 0, 62, 0
1, 71375, Note_on_c, 0, 59, 0
1, 71376, Note_on_c, 0, 61, 75
1, 71376, Note_on_c, 0, 57, 75
1, 71399, Note_on_c, 0, 61, 0
1, 71399, Note_on_c, 0, 57, 0
1, 71400, Note_on_c, 0, 59, 75
1, 71400, Note_on_c, 0, 56, 75
1, 71423, Note_on_c, 0, 59, 0
1, 71423, Note_on_c, 0, 56, 0
1, 71424, Note_on_c, 1, 61, 106
1, 71424, Note_on_c, 1, 57, 106
1, 71472, Note_on_c, 0, 64, 75
1, 71492, Note_on_c, 0, 64, 0
1, 71520, Note_on_c, 0, 69, 75
1, 71540, Note_on_c, 0, 69, 0
1, 71568, Note_on_c, 0, 73, 75
1, 71588, Note_on_c, 0, 73, 0
1, 71616, Note_on_c, 0, 76, 75
1, 71636, Note_on_c, 0, 76, 0
1, 71664, Note_on_c, 0, 73, 75
1, 71684, Note_on_c, 0, 73, 0
1, 71689, Note_on_c, 1, 61, 0
1, 71689, Note_on_c, 1, 57, 0
1, 71712, Note_on_c, 1, 60, 106
1, 71712, Note_on_c, 1, 57, 106
1, 71760, Note_on_c, 0, 64, 75
1, 71780, Note_on_c, 0, 64, 0
1, 71808, Note_on_c, 0, 69, 75
1, 71828, Note_on_c, 0, 69, 0
1, 71856, Note_on_c, 0, 72, 75
1, 71876, Note_on_c, 0, 72, 0
1, 71904, Note_on_c, 0, 76, 75
1, 71924, Note_on_c, 0, 76, 0
1, 71952, Note_on_c, 0, 72, 75
1, 71972, Note_on_c, 0, 72, 0
1, 71977, Note_on_c, 1, 60, 0
1, 71977, Note_on_c, 1, 57, 0
1, 72000, Note_on_c, 1, 57, 106
1, 72000, Note_on_c, 1, 53, 106
1, 72024, Note_on_c, 0, 60, 75
1, 72047, Note_on_c, 0, 60, 0
1, 72048, Note_on_c, 0, 62, 75
1, 72071, Note_on_c, 0, 62, 0
1, 72072, Note_on_c, 0, 64, 75
1, 72095, Note_on_c, 0, 64, 0
1, 72096, Note_on_c, 0, 65, 75
1, 72119, Note_on_c, 0, 65, 0
1, 72120, Note_on_c, 0, 67, 75
1, 72143, Note_on_c, 0, 67, 0
1, 72144, Note_on_c, 0, 69, 75
1, 72167, Note_on_c, 0, 69, 0
1, 72168, Note_on_c, 0, 70, 75
1, 72191, Note_on_c, 0, 70, 0
1, 72192, Note_on_c, 0, 72, 75
1, 72212, Note_on_c, 0, 72, 0
1, 72240, Note_on_c, 0, 72, 75
1, 72260, Note_on_c, 0, 72, 0
1, 72265, Note_on_c, 1, 57, 0
1, 72265, Note_on_c, 1, 53, 0
1, 72288, Note_on_c, 1, 57, 106
1, 72288, Note_on_c, 1, 52, 106
1, 72312, Note_on_c, 0, 60, 75
1, 72335, Note_on_c, 0, 60, 0
1, 72336, Note_on_c, 0, 62, 75
1, 72359, Note_on_c, 0, 62, 0
1, 72360, Note_on_c, 0, 64, 75
1, 72383, Note_on_c, 0, 64, 0
1, 72384, Note_on_c, 0, 66, 75
1, 72407, Note_on_c, 0, 66, 0
1, 72408, Note_on_c, 0, 68, 75
1, 72431, Note_on_c, 0, 68, 0
1, 72432, Note_on_c, 0, 69, 75
1, 72455, Note_on_c, 0, 69, 0
1, 72456, Note_on_c, 0, 71, 75
1, 72479, Note_on_c, 0, 71, 0
1, 72480, Note_on_c, 0, 72, 75
1, 72500, Note_on_c, 0, 72, 0
1, 72528, Note_on_c, 0, 72, 75
1, 72548, Note_on_c, 0, 72, 0
1, 72553, Note_on_c, 1, 57, 0
1, 72553, Note_on_c, 1, 52, 0
1, 72576, Note_on_c, 1, 57, 106
1, 72576, Note_on_c, 1, 54, 106
1, 72576, Note_on_c, 1, 51, 106
1, 72600, Note_on_c, 0, 60, 75
1, 72610, Note_on_c, 0, 60, 0
1, 72624, Note_on_c, 0, 63, 75
1, 72634, Note_on_c, 0, 63, 0
1, 72648, Note_on_c, 0, 66, 75
1, 72658, Note_on_c, 0, 66, 0
1, 72672, Note_on_c, 0, 69, 75
1, 72682, Note_on_c, 0, 69, 0
1, 72696, Note_on_c, 0, 72, 75
1, 72706, Note_on_c, 0, 72, 0
1, 72720, Note_on_c, 0, 75, 75
1, 72730, Note_on_c, 0, 75, 0
1, 72744, Note_on_c, 0, 78, 75
1, 72753, Note_on_c, 1, 57, 0
1, 72753, Note_on_c, 1, 54, 0
1, 72753, Note_on_c, 1, 51, 0
1, 72754, Note_on_c, 0, 78, 0
1, 72768, Note_on_c, 0, 81, 75
1, 72778, Note_on_c, 0, 81, 0
1, 72792, Note_on_c, 0, 78, 75
1, 72802, Note_on_c, 0, 78, 0
1, 72816, Note_on_c, 0, 75, 75
1, 72826, Note_on_c, 0, 75, 0
1, 72840, Note_on_c, 0, 72, 75
1, 72850, Note_on_c, 0, 72, 0
1, 72864, Note_on_c, 0, 69, 75
1, 72874, Note_on_c, 0, 69, 0
1, 72888, Note_on_c, 0, 66, 75
1, 72898, Note_on_c, 0, 66, 0
1, 72912, Note_on_c, 0, 63, 75
1, 72922, Note_on_c, 0, 63, 0
1, 72936, Note_on_c, 0, 60, 75
1, 72946, Note_on_c, 0, 60, 0
1, 72960, Note_on_c, 0, 61, 75
1, 73005, Note_on_c, 0, 61, 0
1, 73008, Note_on_c, 0, 69, 91
1, 73008, Note_on_c, 1, 57, 106
1, 73008, Note_on_c, 1, 49, 106
1, 73055, Note_on_c, 1, 57, 0
1, 73055, Note_on_c, 1, 49, 0
1, 73056, Note_on_c, 1, 57, 106
1, 73056, Note_on_c, 1, 49, 106
1, 73079, Note_on_c, 0, 69, 0
1, 73080, Note_on_c, 0, 64, 75
1, 73103, Note_on_c, 0, 64, 0
1, 73103, Note_on_c, 1, 57, 0
1, 73103, Note_on_c, 1, 49, 0
1, 73104, Note_on_c, 0, 66, 75
1, 73104, Note_on_c, 1, 57, 106
1, 73104, Note_on_c, 1, 49, 106
1, 73127, Note_on_c, 0, 66, 0
1, 73128, Note_on_c, 0, 67, 75
1, 73151, Note_on_c, 0, 67, 0
1, 73151, Note_on_c, 1, 57, 0
1, 73151, Note_on_c, 1, 49, 0
1, 73152, Note_on_c, 0, 67, 75
1, 73152, Note_on_c, 1, 57, 106
1, 73152, Note_on_c, 1, 50, 106
1, 73175, Note_on_c, 0, 67, 0
1, 73176, Note_on_c, 0, 66, 75
1, 73199, Note_on_c, 0, 66, 0
1, 73199, Note_on_c, 1, 57, 0
1, 73199, Note_on_c, 1, 50, 0
1, 73200, Note_on_c, 0, 64, 75
1, 73200, Note_on_c, 1, 57, 106
1, 73200, Note_on_c, 1, 50, 106
1, 73223, Note_on_c, 0, 64, 0
1, 73224, Note_on_c, 0, 62, 75
1, 73247, Note_on_c, 0, 62, 0
1, 73247, Note_on_c, 1, 57, 0
1, 73247, Note_on_c, 1, 50, 0
1, 73248, Note_on_c, 0, 61, 75
1, 73248, Note_on_c, 1, 57, 106
1, 73248, Note_on_c, 1, 52, 106
1, 73295, Note_on_c, 1, 57, 0
1, 73295, Note_on_c, 1, 52, 0
1, 73296, Note_on_c, 1, 57, 106
1, 73296, Note_on_c, 1, 52, 106
1, 73337, Note_on_c, 0, 61, 0
1, 73343, Note_on_c, 1, 57, 0
1, 73343, Note_on_c, 1, 52, 0
1, 73344, Note_on_c, 0, 64, 75
1, 73344, Note_on_c, 1, 56, 106
1, 73344, Note_on_c, 1, 52, 106
1, 73367, Note_on_c, 0, 64, 0
1, 73368, Note_on_c, 0, 62, 75
1, 73391, Note_on_c, 0, 62, 0
1, 73391, Note_on_c, 1, 56, 0
1, 73391, Note_on_c, 1, 52, 0
1, 73392, Note_on_c, 0, 61, 75
1, 73392, Note_on_c, 1, 56, 106
1, 73392, Note_on_c, 1, 52, 106
1, 73415, Note_on_c, 0, 61, 0
1, 73416, Note_on_c, 0, 59, 75
1, 73439, Note_on_c, 0, 59, 0
1, 73439, Note_on_c, 1, 56, 0
1, 73439, Note_on_c, 1, 52, 0
1, 73440, Note_on_c, 0, 61, 75
1, 73440, Note_on_c, 1, 57, 106
1, 73440, Note_on_c, 1, 45, 106
1, 73455, Note_on_c, 0, 61, 0
1, 73456, Note_on_c, 0, 57, 75
1, 73471, Note_on_c, 0, 57, 0
1, 73472, Note_on_c, 0, 61, 75
1, 73487, Note_on_c, 0, 61, 0
1, 73488, Note_on_c, 0, 64, 75
1, 73503, Note_on_c, 0, 64, 0
1, 73504, Note_on_c, 0, 61, 75
1, 73519, Note_on_c, 0, 61, 0
1, 73520, Note_on_c, 0, 64, 75
1, 73535, Note_on_c, 0, 64, 0
1, 73536, Note_on_c, 0, 69, 75
1, 73551, Note_on_c, 0, 69, 0
1, 73552, Note_on_c, 0, 64, 75
1, 73567, Note_on_c, 0, 64, 0
1, 73568, Note_on_c, 0, 69, 75
1, 73583, Note_on_c, 0, 69, 0
1, 73584, Note_on_c, 0, 73, 75
1, 73599, Note_on_c, 0, 73, 0
1, 73600, Note_on_c, 0, 69, 75
1, 73615, Note_on_c, 0, 69, 0
1, 73616, Note_on_c, 0, 73, 75
1, 73627, Note_on_c, 1, 57, 0
1, 73627, Note_on_c, 1, 45, 0
1, 73631, Note_on_c, 0, 73, 0
1, 73632, Note_on_c, 0, 76, 75
1, 73642, Note_on_c, 0, 76, 0
1, 73656, Note_on_c, 0, 64, 75
1, 73679, Note_on_c, 0, 64, 0
1, 73680, Note_on_c, 0, 66, 75
1, 73703, Note_on_c, 0, 66, 0
1, 73704, Note_on_c, 0, 67, 75
1, 73727, Note_on_c, 0, 67, 0
1, 73728, Note_on_c, 0, 67, 75
1, 73728, Note_on_c, 1, 57, 106
1, 73728, Note_on_c, 1, 50, 106
1, 73752, Note_on_c, 0, 67, 0
1, 73752, Note_on_c, 0, 66, 75
1, 73775, Note_on_c, 0, 66, 0
1, 73775, Note_on_c, 1, 57, 0
1, 73775, Note_on_c, 1, 50, 0
1, 73776, Note_on_c, 0, 74, 75
1, 73776, Note_on_c, 1, 57, 106
1, 73776, Note_on_c, 1, 50, 106
1, 73800, Note_on_c, 0, 74, 0
1, 73800, Note_on_c, 0, 71, 75
1, 73823, Note_on_c, 0, 71, 0
1, 73823, Note_on_c, 1, 57, 0
1, 73823, Note_on_c, 1, 50, 0
1, 73824, Note_on_c, 0, 69, 75
1, 73824, Note_on_c, 1, 57, 106
1, 73824, Note_on_c, 1, 52, 106
1, 73871, Note_on_c, 1, 57, 0
1, 73871, Note_on_c, 1, 52, 0
1, 73872, Note_on_c, 1, 57, 106
1, 73872, Note_on_c, 1, 52, 106
1, 73913, Note_on_c, 0, 69, 0
1, 73919, Note_on_c, 1, 57, 0
1, 73919, Note_on_c, 1, 52, 0
1, 73920, Note_on_c, 0, 68, 75
1, 73920, Note_on_c, 1, 52, 106
1, 73920, Note_on_c, 1, 40, 106
1, 73929, Note_on_c, 0, 68, 0
1, 73929, Note_on_c, 0, 69, 75
1, 73938, Note_on_c, 0, 69, 0
1, 73938, Note_on_c, 0, 68, 75
1, 73947, Note_on_c, 0, 68, 0
1, 73947, Note_on_c, 0, 69, 75
1, 73956, Note_on_c, 0, 69, 0
1, 73956, Note_on_c, 0, 68, 75
1, 73965, Note_on_c, 0, 68, 0
1, 73965, Note_on_c, 0, 69, 75
1, 73967, Note_on_c, 1, 52, 0
1, 73967, Note_on_c, 1, 40, 0
1, 73968, Note_on_c, 1, 52, 106
1, 73968, Note_on_c, 1, 40, 106
1, 73974, Note_on_c, 0, 69, 0
1, 73974, Note_on_c, 0, 68, 75
1, 73983, Note_on_c, 0, 68, 0
1, 73983, Note_on_c, 0, 69, 75
1, 73992, Note_on_c, 0, 69, 0
1, 73992, Note_on_c, 0, 68, 75
1, 74000, Note_on_c, 0, 68, 0
1, 74000, Note_on_c, 0, 66, 75
1, 74008, Note_on_c, 0, 66, 0
1, 74008, Note_on_c, 0, 68, 75
1, 74015, Note_on_c, 1, 52, 0
1, 74015, Note_on_c, 1, 40, 0
1, 74016, Note_on_c, 0, 68, 0
1, 74016, Note_on_c, 0, 69, 75
1, 74016, Note_on_c, 1, 57, 106
1, 74016, Note_on_c, 1, 45, 106
1, 74061, Note_on_c, 1, 57, 0
1, 74061, Note_on_c, 1, 45, 0
1, 74064, Note_on_c, 1, 45, 106
1, 74064, Note_on_c, 1, 33, 106
1, 74105, Note_on_c, 0, 69, 0
1, 74109, Note_on_c, 1, 45, 0
1, 74109, Note_on_c, 1, 33, 0
1, 74112, Note_on_c, 1, 45, 106
1, 74112, Note_on_c, 1, 33, 106
1, 74157, Note_on_c, 1, 45, 0
1, 74157, Note_on_c, 1, 33, 0
1, 74160, Note_on_c, 0, 64, 75
1, 74160, Note_on_c, 0, 61, 75
1, 74160, Note_on_c, 1, 45, 106
1, 74160, Note_on_c, 1, 33, 106
1, 74194, Note_on_c, 0, 64, 0
1, 74194, Note_on_c, 0, 61, 0
1, 74196, Note_on_c, 0, 66, 75
1, 74196, Note_on_c, 0, 62, 75
1, 74205, Note_on_c, 1, 45, 0
1, 74205, Note_on_c, 1, 33, 0
1, 74208, Note_on_c, 0, 66, 0
1, 74208, Note_on_c, 0, 62, 0
1, 74208, Note_on_c, 0, 64, 75
1, 74208, Note_on_c, 0, 61, 75
1, 74208, Note_on_c, 1, 45, 106
1, 74208, Note_on_c, 1, 33, 106
1, 74228, Note_on_c, 0, 64, 0
1, 74228, Note_on_c, 0, 61, 0
1, 74253, Note_on_c, 1, 45, 0
1, 74253, Note_on_c, 1, 33, 0
1, 74256, Note_on_c, 0, 62, 75
1, 74256, Note_on_c, 0, 59, 75
1, 74256, Note_on_c, 1, 45, 106
1, 74256, Note_on_c, 1, 33, 106
1, 74276, Note_on_c, 0, 62, 0
1, 74276, Note_on_c, 0, 59, 0
1, 74301, Note_on_c, 1, 45, 0
1, 74301, Note_on_c, 1, 33, 0
1, 74304, Note_on_c, 0, 62, 75
1, 74304, Note_on_c, 0, 59, 75
1, 74304, Note_on_c, 1, 45, 106
1, 74304, Note_on_c, 1, 33, 106
1, 74349, Note_on_c, 1, 45, 0
1, 74349, Note_on_c, 1, 33, 0
1, 74352, Note_on_c, 1, 45, 106
1, 74352, Note_on_c, 1, 33, 106
1, 74393, Note_on_c, 0, 62, 0
1, 74393, Note_on_c, 0, 59, 0
1, 74397, Note_on_c, 1, 45, 0
1, 74397, Note_on_c, 1, 33, 0
1, 74400, Note_on_c, 0, 61, 75
1, 74400, Note_on_c, 0, 57, 75
1, 74400, Note_on_c, 1, 45, 106
1, 74400, Note_on_c, 1, 33, 106
1, 74445, Note_on_c, 0, 61, 0
1, 74445, Note_on_c, 0, 57, 0
1, 74445, Note_on_c, 1, 45, 0
1, 74445, Note_on_c, 1, 33, 0
1, 74448, Note_on_c, 0, 64, 75
1, 74448, Note_on_c, 0, 61, 75
1, 74448, Note_on_c, 1, 45, 106
1, 74448, Note_on_c, 1, 33, 106
1, 74482, Note_on_c, 0, 64, 0
1, 74482, Note_on_c, 0, 61, 0
1, 74484, Note_on_c, 0, 66, 75
1, 74484, Note_on_c, 0, 62, 75
1, 74493, Note_on_c, 1, 45, 0
1, 74493, Note_on_c, 1, 33, 0
1, 74496, Note_on_c, 0, 66, 0
1, 74496, Note_on_c, 0, 62, 0
1, 74496, Note_on_c, 0, 64, 75
1, 74496, Note_on_c, 0, 61, 75
1, 74496, Note_on_c, 1, 45, 106
1, 74496, Note_on_c, 1, 33, 106
1, 74516, Note_on_c, 0, 64, 0
1, 74516, Note_on_c, 0, 61, 0
1, 74541, Note_on_c, 1, 45, 0
1, 74541, Note_on_c, 1, 33, 0
1, 74544, Note_on_c, 0, 68, 75
1, 74544, Note_on_c, 0, 59, 75
1, 74544, Note_on_c, 1, 45, 106
1, 74544, Note_on_c, 1, 33, 106
1, 74564, Note_on_c, 0, 68, 0
1, 74564, Note_on_c, 0, 59, 0
1, 74589, Note_on_c, 1, 45, 0
1, 74589, Note_on_c, 1, 33, 0
1, 74592, Note_on_c, 0, 68, 75
1, 74592, Note_on_c, 0, 59, 75
1, 74592, Note_on_c, 1, 45, 106
1, 74592, Note_on_c, 1, 33, 106
1, 74688, Note_on_c, 0, 68, 0
1, 74688, Note_on_c, 0, 59, 0
1, 74688, Note_on_c, 0, 69, 75
1, 74688, Note_on_c, 0, 61, 75
1, 74777, Note_on_c, 0, 69, 0
1, 74777, Note_on_c, 0, 61, 0
1, 74857, Note_on_c, 1, 45, 0
1, 74857, Note_on_c, 1, 33, 0
1, 74880, Note_on_c, 1, 45, 0
1, 74880, Note_on_c, 1, 33, 0
1, 75057, Note_on_c, 1, 45, 0
1, 75057, Note_on_c, 1, 33, 0
1, 75067, End_track
0, 0, End_of_file