0, 0, Header, 0, 1, 96
1, 0, Start_track
1, 0, Tempo, 428571
1, 144, Note_on_c, 0, 72, 78
1, 164, Note_on_c, 0, 72, 0
1, 192, Note_on_c, 0, 65, 78
1, 192, Note_on_c, 1, 57, 78
1, 192, Note_on_c, 1, 53, 78
1, 240, Note_on_c, 0, 65, 0
1, 240, Note_on_c, 0, 69, 78
1, 281, Note_on_c, 1, 57, 0
1, 281, Note_on_c, 1, 53, 0
1, 285, Note_on_c, 0, 69, 0
1, 288, Note_on_c, 0, 62, 82
1, 288, Note_on_c, 1, 58, 78
1, 288, Note_on_c, 1, 46, 78
1, 333, Note_on_c, 0, 62, 0
1, 336, Note_on_c, 0, 74, 86
1, 356, Note_on_c, 0, 74, 0
1, 377, Note_on_c, 1, 58, 0
1, 377, Note_on_c, 1, 46, 0
1, 384, Note_on_c, 0, 65, 84
1, 384, Note_on_c, 1, 57, 78
1, 384, Note_on_c, 1, 48, 78
1, 480, Note_on_c, 0, 65, 0
1, 480, Note_on_c, 0, 64, 80
1, 480, Note_on_c, 1, 57, 0
1, 480, Note_on_c, 1, 55, 78
1, 525, Note_on_c, 0, 64, 0
1, 525, Note_on_c, 1, 55, 0
1, 525, Note_on_c, 1, 48, 0
1, 528, Note_on_c, 0, 70, 78
1, 548, Note_on_c, 0, 70, 0
1, 576, Note_on_c, 0, 67, 78
1, 624, Note_on_c, 0, 67, 0
1, 624, Note_on_c, 0, 76, 80
1, 669, Note_on_c, 0, 76, 0
1, 672, Note_on_c, 0, 70, 82
1, 672, Note_on_c, 1, 64, 78
1, 672, Note_on_c, 1, 60, 78
1, 720, Note_on_c, 0, 70, 0
1, 720, Note_on_c, 0, 79, 84
1, 740, Note_on_c, 0, 79, 0
1, 761, Note_on_c, 1, 64, 0
1, 761, Note_on_c, 1, 60, 0
1, 768, Note_on_c, 0, 70, 86
1, 768, Note_on_c, 1, 65, 78
1, 813, Note_on_c, 1, 65, 0
1, 816, Note_on_c, 1, 53, 78
1, 861, Note_on_c, 1, 53, 0
1, 864, Note_on_c, 0, 70, 0
1, 864, Note_on_c, 0, 69, 80
1, 909, Note_on_c, 0, 69, 0
1, 912, Note_on_c, 0, 72, 78
1, 932, Note_on_c, 0, 72, 0
1, 960, Note_on_c, 0, 63, 78
1, 1008, Note_on_c, 0, 63, 0
1, 1008, Note_on_c, 0, 75, 80
1, 1053, Note_on_c, 0, 75, 0
1, 1056, Note_on_c, 0, 65, 82
1, 1056, Note_on_c, 1, 57, 78
1, 1101, Note_on_c, 0, 65, 0
1, 1104, Note_on_c, 0, 72, 84
1, 1124, Note_on_c, 0, 72, 0
1, 1145, Note_on_c, 1, 57, 0
1, 1152, Note_on_c, 0, 73, 86
1, 1152, Note_on_c, 1, 58, 78
1, 1197, Note_on_c, 1, 58, 0
1, 1200, Note_on_c, 1, 46, 78
1, 1245, Note_on_c, 1, 46, 0
1, 1248, Note_on_c, 0, 73, 0
1, 1248, Note_on_c, 0, 74, 80
1, 1293, Note_on_c, 0, 74, 0
1, 1296, Note_on_c, 0, 67, 78
1, 1296, Note_on_c, 1, 62, 78
1, 1296, Note_on_c, 1, 58, 78
1, 1316, Note_on_c, 0, 67, 0
1, 1341, Note_on_c, 1, 62, 0
1, 1341, Note_on_c, 1, 58, 0
1, 1344, Note_on_c, 0, 69, 78
1, 1344, Note_on_c, 1, 60, 78
1, 1344, Note_on_c, 1, 57, 78
1, 1389, Note_on_c, 0, 69, 0
1, 1389, Note_on_c, 1, 60, 0
1, 1389, Note_on_c, 1, 57, 0
1, 1392, Note_on_c, 0, 70, 78
1, 1392, Note_on_c, 1, 58, 78
1, 1392, Note_on_c, 1, 55, 78
1, 1437, Note_on_c, 0, 70, 0
1, 1437, Note_on_c, 1, 58, 0
1, 1437, Note_on_c, 1, 55, 0
1, 1440, Note_on_c, 0, 64, 78
1, 1440, Note_on_c, 1, 60, 78
1, 1485, Note_on_c, 0, 64, 0
1, 1485, Note_on_c, 1, 60, 0
1, 1488, Note_on_c, 0, 67, 78
1, 1488, Note_on_c, 1, 48, 78
1, 1508, Note_on_c, 0, 67, 0
1, 1533, Note_on_c, 1, 48, 0
1, 1536, Note_on_c, 0, 65, 78
1, 1536, Note_on_c, 1, 53, 78
1, 1581, Note_on_c, 1, 53, 0
1, 1584, Note_on_c, 1, 41, 78
1, 1625, Note_on_c, 0, 65, 0
1, 1629, Note_on_c, 1, 41, 0
1, 1680, Note_on_c, 0, 84, 78
1, 1700, Note_on_c, 0, 84, 0
1, 1728, Note_on_c, 0, 77, 78
1, 1773, Note_on_c, 0, 77, 0
1, 1776, Note_on_c, 0, 81, 78
1, 1821, Note_on_c, 0, 81, 0
1, 1824, Note_on_c, 0, 72, 78
1, 1869, Note_on_c, 0, 72, 0
1, 1872, Note_on_c, 0, 77, 78
1, 1872, Note_on_c, 1, 72, 78
1, 1872, Note_on_c, 1, 69, 78
1, 1892, Note_on_c, 0, 77, 0
1, 1917, Note_on_c, 1, 72, 0
1, 1917, Note_on_c, 1, 69, 0
1, 1920, Note_on_c, 0, 76, 78
1, 1920, Note_on_c, 1, 70, 78
1, 1920, Note_on_c, 1, 67, 78
1, 1965, Note_on_c, 0, 76, 0
1, 1965, Note_on_c, 1, 70, 0
1, 1965, Note_on_c, 1, 67, 0
1, 1968, Note_on_c, 0, 77, 78
1, 1968, Note_on_c, 1, 69, 78
1, 1968, Note_on_c, 1, 65, 78
1, 2013, Note_on_c, 0, 77, 0
1, 2013, Note_on_c, 1, 69, 0
1, 2013, Note_on_c, 1, 65, 0
1, 2016, Note_on_c, 0, 79, 78
1, 2016, Note_on_c, 1, 67, 78
1, 2016, Note_on_c, 1, 64, 78
1, 2061, Note_on_c, 0, 79, 0
1, 2061, Note_on_c, 1, 67, 0
1, 2061, Note_on_c, 1, 64, 0
1, 2064, Note_on_c, 0, 84, 78
1, 2084, Note_on_c, 0, 84, 0
1, 2112, Note_on_c, 0, 79, 78
1, 2157, Note_on_c, 0, 79, 0
1, 2160, Note_on_c, 0, 82, 78
1, 2205, Note_on_c, 0, 82, 0
1, 2208, Note_on_c, 0, 72, 78
1, 2253, Note_on_c, 0, 72, 0
1, 2256, Note_on_c, 0, 76, 78
1, 2256, Note_on_c, 1, 72, 78
1, 2256, Note_on_c, 1, 70, 78
1, 2276, Note_on_c, 0, 76, 0
1, 2301, Note_on_c, 1, 72, 0
1, 2301, Note_on_c, 1, 70, 0
1, 2304, Note_on_c, 0, 77, 78
1, 2304, Note_on_c, 1, 72, 78
1, 2304, Note_on_c, 1, 69, 78
1, 2349, Note_on_c, 0, 77, 0
1, 2349, Note_on_c, 1, 72, 0
1, 2349, Note_on_c, 1, 69, 0
1, 2352, Note_on_c, 0, 79, 78
1, 2352, Note_on_c, 1, 70, 78
1, 2352, Note_on_c, 1, 67, 78
1, 2397, Note_on_c, 0, 79, 0
1, 2397, Note_on_c, 1, 70, 0
1, 2397, Note_on_c, 1, 67, 0
1, 2400, Note_on_c, 0, 81, 78
1, 2400, Note_on_c, 1, 69, 78
1, 2400, Note_on_c, 1, 65, 78
1, 2445, Note_on_c, 0, 81, 0
1, 2445, Note_on_c, 1, 69, 0
1, 2445, Note_on_c, 1, 65, 0
1, 2448, Note_on_c, 0, 84, 78
1, 2468, Note_on_c, 0, 84, 0
1, 2496, Note_on_c, 0, 77, 78
1, 2541, Note_on_c, 0, 77, 0
1, 2544, Note_on_c, 0, 84, 78
1, 2544, Note_on_c, 1, 69, 78
1, 2544, Note_on_c, 1, 65, 78
1, 2564, Note_on_c, 0, 84, 0
1, 2589, Note_on_c, 1, 69, 0
1, 2589, Note_on_c, 1, 65, 0
1, 2592, Note_on_c, 0, 77, 78
1, 2592, Note_on_c, 1, 70, 78
1, 2592, Note_on_c, 1, 67, 78
1, 2637, Note_on_c, 0, 77, 0
1, 2637, Note_on_c, 1, 70, 0
1, 2637, Note_on_c, 1, 67, 0
1, 2640, Note_on_c, 0, 75, 78
1, 2640, Note_on_c, 1, 72, 78
1, 2640, Note_on_c, 1, 69, 78
1, 2685, Note_on_c, 1, 72, 0
1, 2685, Note_on_c, 1, 69, 0
1, 2688, Note_on_c, 1, 70, 78
1, 2733, Note_on_c, 0, 75, 0
1, 2736, Note_on_c, 0, 73, 78
1, 2777, Note_on_c, 1, 70, 0
1, 2781, Note_on_c, 0, 73, 0
1, 2784, Note_on_c, 0, 74, 78
1, 2829, Note_on_c, 0, 74, 0
1, 2832, Note_on_c, 0, 69, 78
1, 2832, Note_on_c, 0, 66, 78
1, 2877, Note_on_c, 0, 69, 0
1, 2877, Note_on_c, 0, 66, 0
1, 2880, Note_on_c, 0, 70, 80
1, 2880, Note_on_c, 0, 67, 80
1, 2925, Note_on_c, 0, 70, 0
1, 2925, Note_on_c, 0, 67, 0
1, 2928, Note_on_c, 0, 72, 83
1, 2928, Note_on_c, 0, 69, 83
1, 2973, Note_on_c, 0, 72, 0
1, 2973, Note_on_c, 0, 69, 0
1, 2976, Note_on_c, 0, 74, 86
1, 2976, Note_on_c, 0, 70, 86
1, 3021, Note_on_c, 0, 74, 0
1, 3021, Note_on_c, 0, 70, 0
1, 3024, Note_on_c, 0, 70, 84
1, 3024, Note_on_c, 0, 67, 84
1, 3024, Note_on_c, 1, 58, 78
1, 3069, Note_on_c, 0, 70, 0
1, 3069, Note_on_c, 0, 67, 0
1, 3069, Note_on_c, 1, 58, 0
1, 3072, Note_on_c, 0, 69, 82
1, 3072, Note_on_c, 0, 65, 82
1, 3072, Note_on_c, 1, 60, 78
1, 3117, Note_on_c, 1, 60, 0
1, 3120, Note_on_c, 1, 48, 78
1, 3165, Note_on_c, 1, 48, 0
1, 3168, Note_on_c, 0, 69, 0
1, 3168, Note_on_c, 0, 65, 0
1, 3168, Note_on_c, 0, 67, 79
1, 3168, Note_on_c, 0, 64, 79
1, 3213, Note_on_c, 0, 67, 0
1, 3213, Note_on_c, 0, 64, 0
1, 3216, Note_on_c, 0, 76, 78
1, 3236, Note_on_c, 0, 76, 0
1, 3264, Note_on_c, 0, 79, 78
1, 3309, Note_on_c, 0, 79, 0
1, 3312, Note_on_c, 0, 72, 78
1, 3312, Note_on_c, 1, 64, 78
1, 3357, Note_on_c, 0, 72, 0
1, 3357, Note_on_c, 1, 64, 0
1, 3360, Note_on_c, 0, 71, 78
1, 3360, Note_on_c, 1, 62, 78
1, 3405, Note_on_c, 0, 71, 0
1, 3405, Note_on_c, 1, 62, 0
1, 3408, Note_on_c, 0, 77, 78
1, 3408, Note_on_c, 0, 74, 78
1, 3408, Note_on_c, 1, 55, 78
1, 3453, Note_on_c, 0, 77, 0
1, 3453, Note_on_c, 0, 74, 0
1, 3453, Note_on_c, 1, 55, 0
1, 3456, Note_on_c, 0, 77, 78
1, 3456, Note_on_c, 0, 74, 78
1, 3456, Note_on_c, 1, 60, 78
1, 3501, Note_on_c, 0, 77, 0
1, 3501, Note_on_c, 0, 74, 0
1, 3501, Note_on_c, 1, 60, 0
1, 3504, Note_on_c, 0, 76, 78
1, 3504, Note_on_c, 0, 72, 78
1, 3504, Note_on_c, 1, 54, 78
1, 3549, Note_on_c, 0, 76, 0
1, 3549, Note_on_c, 0, 72, 0
1, 3549, Note_on_c, 1, 54, 0
1, 3552, Note_on_c, 0, 74, 78
1, 3552, Note_on_c, 0, 71, 78
1, 3552, Note_on_c, 1, 55, 78
1, 3597, Note_on_c, 0, 74, 0
1, 3597, Note_on_c, 0, 71, 0
1, 3597, Note_on_c, 1, 55, 0
1, 3600, Note_on_c, 0, 75, 69
1, 3620, Note_on_c, 0, 75, 0
1, 3648, Note_on_c, 0, 79, 69
1, 3693, Note_on_c, 0, 79, 0
1, 3696, Note_on_c, 0, 72, 69
1, 3696, Note_on_c, 1, 63, 69
1, 3741, Note_on_c, 0, 72, 0
1, 3741, Note_on_c, 1, 63, 0
1, 3744, Note_on_c, 0, 71, 69
1, 3744, Note_on_c, 1, 62, 69
1, 3789, Note_on_c, 0, 71, 0
1, 3789, Note_on_c, 1, 62, 0
1, 3792, Note_on_c, 0, 77, 69
1, 3792, Note_on_c, 0, 74, 69
1, 3792, Note_on_c, 1, 55, 69
1, 3837, Note_on_c, 0, 77, 0
1, 3837, Note_on_c, 0, 74, 0
1, 3837, Note_on_c, 1, 55, 0
1, 3840, Note_on_c, 0, 77, 69
1, 3840, Note_on_c, 0, 74, 69
1, 3840, Note_on_c, 1, 60, 69
1, 3885, Note_on_c, 0, 77, 0
1, 3885, Note_on_c, 0, 74, 0
1, 3885, Note_on_c, 1, 60, 0
1, 3888, Note_on_c, 0, 75, 69
1, 3888, Note_on_c, 0, 72, 69
1, 3888, Note_on_c, 1, 54, 69
1, 3933, Note_on_c, 0, 75, 0
1, 3933, Note_on_c, 0, 72, 0
1, 3933, Note_on_c, 1, 54, 0
1, 3936, Note_on_c, 0, 74, 69
1, 3936, Note_on_c, 0, 71, 69
1, 3936, Note_on_c, 1, 55, 69
1, 3981, Note_on_c, 0, 74, 0
1, 3981, Note_on_c, 0, 71, 0
1, 3981, Note_on_c, 1, 55, 0
1, 3984, Note_on_c, 0, 76, 78
1, 4004, Note_on_c, 0, 76, 0
1, 4032, Note_on_c, 0, 79, 78
1, 4077, Note_on_c, 0, 79, 0
1, 4080, Note_on_c, 0, 72, 78
1, 4080, Note_on_c, 1, 64, 78
1, 4080, Note_on_c, 1, 60, 78
1, 4125, Note_on_c, 0, 72, 0
1, 4125, Note_on_c, 1, 64, 0
1, 4125, Note_on_c, 1, 60, 0
1, 4128, Note_on_c, 0, 71, 78
1, 4128, Note_on_c, 1, 65, 78
1, 4128, Note_on_c, 1, 62, 78
1, 4173, Note_on_c, 0, 71, 0
1, 4173, Note_on_c, 1, 65, 0
1, 4173, Note_on_c, 1, 62, 0
1, 4176, Note_on_c, 0, 70, 78
1, 4176, Note_on_c, 1, 67, 78
1, 4176, Note_on_c, 1, 64, 78
1, 4221, Note_on_c, 1, 67, 0
1, 4221, Note_on_c, 1, 64, 0
1, 4224, Note_on_c, 1, 65, 78
1, 4247, Note_on_c, 0, 70, 0
1, 4248, Note_on_c, 0, 69, 78
1, 4271, Note_on_c, 0, 69, 0
1, 4272, Note_on_c, 0, 68, 78
1, 4295, Note_on_c, 0, 68, 0
1, 4296, Note_on_c, 0, 69, 78
1, 4319, Note_on_c, 0, 69, 0
1, 4320, Note_on_c, 0, 71, 78
1, 4343, Note_on_c, 0, 71, 0
1, 4344, Note_on_c, 0, 69, 78
1, 4357, Note_on_c, 1, 65, 0
1, 4367, Note_on_c, 0, 69, 0
1, 4368, Note_on_c, 0, 73, 78
1, 4368, Note_on_c, 1, 64, 78
1, 4391, Note_on_c, 0, 73, 0
1, 4392, Note_on_c, 0, 69, 78
1, 4413, Note_on_c, 1, 64, 0
1, 4415, Note_on_c, 0, 69, 0
1, 4416, Note_on_c, 0, 74, 78
1, 4416, Note_on_c, 1, 65, 78
1, 4439, Note_on_c, 0, 74, 0
1, 4440, Note_on_c, 0, 69, 79
1, 4461, Note_on_c, 1, 65, 0
1, 4463, Note_on_c, 0, 69, 0
1, 4464, Note_on_c, 0, 76, 80
1, 4464, Note_on_c, 1, 61, 80
1, 4487, Note_on_c, 0, 76, 0
1, 4488, Note_on_c, 0, 69, 82
1, 4509, Note_on_c, 1, 61, 0
1, 4511, Note_on_c, 0, 69, 0
1, 4512, Note_on_c, 0, 77, 83
1, 4512, Note_on_c, 1, 62, 83
1, 4535, Note_on_c, 0, 77, 0
1, 4536, Note_on_c, 0, 69, 84
1, 4557, Note_on_c, 1, 62, 0
1, 4559, Note_on_c, 0, 69, 0
1, 4560, Note_on_c, 0, 79, 86
1, 4560, Note_on_c, 1, 64, 86
1, 4583, Note_on_c, 0, 79, 0
1, 4584, Note_on_c, 0, 69, 85
1, 4605, Note_on_c, 1, 64, 0
1, 4607, Note_on_c, 0, 69, 0
1, 4608, Note_on_c, 0, 81, 100
1, 4608, Note_on_c, 1, 65, 84
1, 4697, Note_on_c, 1, 65, 0
1, 4704, Note_on_c, 0, 81, 0
1, 4704, Note_on_c, 0, 79, 81
1, 4727, Note_on_c, 0, 79, 0
1, 4728, Note_on_c, 0, 77, 80
1, 4751, Note_on_c, 0, 77, 0
1, 4752, Note_on_c, 0, 76, 79
1, 4775, Note_on_c, 0, 76, 0
1, 4776, Note_on_c, 0, 74, 78
1, 4799, Note_on_c, 0, 74, 0
1, 4800, Note_on_c, 0, 73, 78
1, 4823, Note_on_c, 0, 73, 0
1, 4824, Note_on_c, 0, 74, 80
1, 4847, Note_on_c, 0, 74, 0
1, 4848, Note_on_c, 0, 76, 82
1, 4871, Note_on_c, 0, 76, 0
1, 4872, Note_on_c, 0, 74, 84
1, 4895, Note_on_c, 0, 74, 0
1, 4896, Note_on_c, 0, 79, 86
1, 4919, Note_on_c, 0, 79, 0
1, 4920, Note_on_c, 0, 77, 84
1, 4943, Note_on_c, 0, 77, 0
1, 4944, Note_on_c, 0, 76, 82
1, 4967, Note_on_c, 0, 76, 0
1, 4968, Note_on_c, 0, 74, 80
1, 4991, Note_on_c, 0, 74, 0
1, 4992, Note_on_c, 0, 72, 78
1, 5040, Note_on_c, 1, 69, 78
1, 5040, Note_on_c, 1, 66, 78
1, 5085, Note_on_c, 1, 69, 0
1, 5085, Note_on_c, 1, 66, 0
1, 5088, Note_on_c, 1, 67, 78
1, 5125, Note_on_c, 0, 72, 0
1, 5133, Note_on_c, 1, 67, 0
1, 5136, Note_on_c, 0, 76, 78
1, 5136, Note_on_c, 1, 55, 78
1, 5154, Note_on_c, 0, 76, 0
1, 5154, Note_on_c, 0, 74, 78
1, 5181, Note_on_c, 0, 74, 0
1, 5181, Note_on_c, 1, 55, 0
1, 5184, Note_on_c, 0, 72, 78
1, 5184, Note_on_c, 1, 60, 78
1, 5229, Note_on_c, 1, 60, 0
1, 5232, Note_on_c, 1, 48, 78
1, 5273, Note_on_c, 0, 72, 0
1, 5277, Note_on_c, 1, 48, 0
1, 5328, Note_on_c, 0, 74, 78
1, 5351, Note_on_c, 0, 74, 0
1, 5352, Note_on_c, 0, 71, 78
1, 5375, Note_on_c, 0, 71, 0
1, 5376, Note_on_c, 0, 74, 86
1, 5376, Note_on_c, 1, 65, 86
1, 5376, Note_on_c, 1, 62, 86
1, 5376, Note_on_c, 1, 59, 86
1, 5376, Note_on_c, 1, 55, 86
1, 5399, Note_on_c, 0, 74, 0
1, 5400, Note_on_c, 0, 71, 86
1, 5423, Note_on_c, 0, 71, 0
1, 5424, Note_on_c, 0, 77, 86
1, 5447, Note_on_c, 0, 77, 0
1, 5448, Note_on_c, 0, 74, 86
1, 5465, Note_on_c, 1, 65, 0
1, 5465, Note_on_c, 1, 62, 0
1, 5465, Note_on_c, 1, 59, 0
1, 5465, Note_on_c, 1, 55, 0
1, 5471, Note_on_c, 0, 74, 0
1, 5472, Note_on_c, 0, 71, 86
1, 5495, Note_on_c, 0, 71, 0
1, 5496, Note_on_c, 0, 67, 86
1, 5519, Note_on_c, 0, 67, 0
1, 5520, Note_on_c, 0, 74, 86
1, 5543, Note_on_c, 0, 74, 0
1, 5544, Note_on_c, 0, 71, 86
1, 5567, Note_on_c, 0, 71, 0
1, 5568, Note_on_c, 0, 74, 86
1, 5568, Note_on_c, 1, 65, 86
1, 5568, Note_on_c, 1, 62, 86
1, 5568, Note_on_c, 1, 59, 86
1, 5568, Note_on_c, 1, 55, 86
1, 5591, Note_on_c, 0, 74, 0
1, 5592, Note_on_c, 0, 71, 86
1, 5615, Note_on_c, 0, 71, 0
1, 5616, Note_on_c, 0, 77, 86
1, 5639, Note_on_c, 0, 77, 0
1, 5640, Note_on_c, 0, 74, 86
1, 5657, Note_on_c, 1, 65, 0
1, 5657, Note_on_c, 1, 62, 0
1, 5657, Note_on_c, 1, 59, 0
1, 5657, Note_on_c, 1, 55, 0
1, 5663, Note_on_c, 0, 74, 0
1, 5664, Note_on_c, 0, 71, 86
1, 5687, Note_on_c, 0, 71, 0
1, 5688, Note_on_c, 0, 67, 86
1, 5711, Note_on_c, 0, 67, 0
1, 5712, Note_on_c, 0, 74, 86
1, 5735, Note_on_c, 0, 74, 0
1, 5736, Note_on_c, 0, 71, 86
1, 5759, Note_on_c, 0, 71, 0
1, 5760, Note_on_c, 0, 74, 86
1, 5760, Note_on_c, 1, 65, 86
1, 5760, Note_on_c, 1, 62, 86
1, 5760, Note_on_c, 1, 59, 86
1, 5760, Note_on_c, 1, 55, 86
1, 5783, Note_on_c, 0, 74, 0
1, 5784, Note_on_c, 0, 71, 86
1, 5807, Note_on_c, 0, 71, 0
1, 5808, Note_on_c, 0, 77, 86
1, 5831, Note_on_c, 0, 77, 0
1, 5832, Note_on_c, 0, 74, 86
1, 5849, Note_on_c, 1, 65, 0
1, 5849, Note_on_c, 1, 62, 0
1, 5849, Note_on_c, 1, 59, 0
1, 5849, Note_on_c, 1, 55, 0
1, 5855, Note_on_c, 0, 74, 0
1, 5856, Note_on_c, 0, 71, 86
1, 5879, Note_on_c, 0, 71, 0
1, 5880, Note_on_c, 0, 67, 86
1, 5903, Note_on_c, 0, 67, 0
1, 5904, Note_on_c, 0, 74, 86
1, 5927, Note_on_c, 0, 74, 0
1, 5928, Note_on_c, 0, 71, 86
1, 5951, Note_on_c, 0, 71, 0
1, 5952, Note_on_c, 0, 67, 86
1, 5975, Note_on_c, 0, 67, 0
1, 5976, Note_on_c, 0, 65, 86
1, 5999, Note_on_c, 0, 65, 0
1, 6000, Note_on_c, 0, 71, 86
1, 6023, Note_on_c, 0, 71, 0
1, 6024, Note_on_c, 0, 67, 86
1, 6047, Note_on_c, 0, 67, 0
1, 6048, Note_on_c, 0, 65, 86
1, 6071, Note_on_c, 0, 65, 0
1, 6072, Note_on_c, 0, 62, 86
1, 6095, Note_on_c, 0, 62, 0
1, 6096, Note_on_c, 0, 65, 86
1, 6119, Note_on_c, 0, 65, 0
1, 6120, Note_on_c, 0, 62, 86
1, 6143, Note_on_c, 0, 62, 0
1, 6144, Note_on_c, 0, 59, 86
1, 6189, Note_on_c, 0, 59, 0
1, 6288, Note_on_c, 0, 79, 78
1, 6308, Note_on_c, 0, 79, 0
1, 6336, Note_on_c, 0, 72, 78
1, 6336, Note_on_c, 1, 57, 78
1, 6356, Note_on_c, 0, 72, 0
1, 6356, Note_on_c, 1, 57, 0
1, 6384, Note_on_c, 0, 76, 80
1, 6384, Note_on_c, 1, 60, 78
1, 6404, Note_on_c, 0, 76, 0
1, 6404, Note_on_c, 1, 60, 0
1, 6432, Note_on_c, 0, 69, 83
1, 6432, Note_on_c, 1, 53, 78
1, 6452, Note_on_c, 0, 69, 0
1, 6452, Note_on_c, 1, 53, 0
1, 6480, Note_on_c, 0, 81, 86
1, 6480, Note_on_c, 1, 65, 78
1, 6500, Note_on_c, 0, 81, 0
1, 6500, Note_on_c, 1, 65, 0
1, 6528, Note_on_c, 0, 72, 84
1, 6528, Note_on_c, 1, 64, 78
1, 6528, Note_on_c, 1, 55, 64
1, 6624, Note_on_c, 0, 72, 0
1, 6624, Note_on_c, 0, 71, 80
1, 6624, Note_on_c, 1, 64, 0
1, 6624, Note_on_c, 1, 62, 78
1, 6669, Note_on_c, 0, 71, 0
1, 6672, Note_on_c, 0, 79, 78
1, 6692, Note_on_c, 0, 79, 0
1, 6705, Note_on_c, 1, 55, 0
1, 6713, Note_on_c, 1, 62, 0
1, 6720, Note_on_c, 0, 72, 78
1, 6720, Note_on_c, 1, 57, 78
1, 6768, Note_on_c, 0, 72, 0
1, 6768, Note_on_c, 0, 76, 80
1, 6768, Note_on_c, 1, 57, 0
1, 6768, Note_on_c, 1, 60, 78
1, 6813, Note_on_c, 0, 76, 0
1, 6813, Note_on_c, 1, 60, 0
1, 6816, Note_on_c, 0, 69, 83
1, 6816, Note_on_c, 1, 53, 78
1, 6864, Note_on_c, 0, 69, 0
1, 6864, Note_on_c, 0, 81, 86
1, 6864, Note_on_c, 1, 53, 0
1, 6864, Note_on_c, 1, 65, 78
1, 6884, Note_on_c, 0, 81, 0
1, 6909, Note_on_c, 1, 65, 0
1, 6912, Note_on_c, 0, 72, 84
1, 6912, Note_on_c, 1, 64, 78
1, 6912, Note_on_c, 1, 55, 64
1, 7008, Note_on_c, 0, 72, 0
1, 7008, Note_on_c, 0, 71, 80
1, 7008, Note_on_c, 1, 64, 0
1, 7008, Note_on_c, 1, 62, 78
1, 7045, Note_on_c, 1, 55, 0
1, 7053, Note_on_c, 0, 71, 0
1, 7056, Note_on_c, 0, 79, 78
1, 7056, Note_on_c, 1, 53, 64
1, 7076, Note_on_c, 0, 79, 0
1, 7097, Note_on_c, 1, 62, 0
1, 7101, Note_on_c, 1, 53, 0
1, 7104, Note_on_c, 0, 70, 78
1, 7104, Note_on_c, 1, 61, 78
1, 7104, Note_on_c, 1, 52, 64
1, 7193, Note_on_c, 1, 52, 0
1, 7200, Note_on_c, 0, 70, 0
1, 7200, Note_on_c, 0, 69, 78
1, 7200, Note_on_c, 1, 61, 0
1, 7200, Note_on_c, 1, 62, 78
1, 7200, Note_on_c, 1, 53, 64
1, 7245, Note_on_c, 0, 69, 0
1, 7248, Note_on_c, 0, 77, 78
1, 7268, Note_on_c, 0, 77, 0
1, 7289, Note_on_c, 1, 62, 0
1, 7289, Note_on_c, 1, 53, 0
1, 7296, Note_on_c, 0, 68, 78
1, 7296, Note_on_c, 1, 65, 78
1, 7296, Note_on_c, 1, 59, 64
1, 7385, Note_on_c, 1, 59, 0
1, 7392, Note_on_c, 0, 68, 0
1, 7392, Note_on_c, 0, 67, 78
1, 7392, Note_on_c, 1, 65, 0
1, 7392, Note_on_c, 1, 64, 78
1, 7392, Note_on_c, 1, 60, 64
1, 7437, Note_on_c, 0, 67, 0
1, 7440, Note_on_c, 0, 72, 78
1, 7460, Note_on_c, 0, 72, 0
1, 7481, Note_on_c, 1, 64, 0
1, 7481, Note_on_c, 1, 60, 0
1, 7488, Note_on_c, 0, 62, 78
1, 7488, Note_on_c, 1, 53, 78
1, 7488, Note_on_c, 1, 41, 78
1, 7533, Note_on_c, 0, 62, 0
1, 7536, Note_on_c, 0, 69, 82
1, 7536, Note_on_c, 0, 65, 82
1, 7577, Note_on_c, 1, 53, 0
1, 7577, Note_on_c, 1, 41, 0
1, 7581, Note_on_c, 0, 69, 0
1, 7581, Note_on_c, 0, 65, 0
1, 7584, Note_on_c, 0, 67, 86
1, 7584, Note_on_c, 0, 64, 86
1, 7584, Note_on_c, 1, 55, 78
1, 7584, Note_on_c, 1, 43, 78
1, 7629, Note_on_c, 0, 67, 0
1, 7629, Note_on_c, 0, 64, 0
1, 7632, Note_on_c, 0, 59, 82
1, 7673, Note_on_c, 1, 55, 0
1, 7673, Note_on_c, 1, 43, 0
1, 7677, Note_on_c, 0, 59, 0
1, 7680, Note_on_c, 0, 60, 78
1, 7680, Note_on_c, 1, 48, 78
1, 7680, Note_on_c, 1, 36, 78
1, 7769, Note_on_c, 0, 60, 0
1, 7769, Note_on_c, 1, 48, 0
1, 7769, Note_on_c, 1, 36, 0
1, 7824, Note_on_c, 0, 79, 78
1, 7844, Note_on_c, 0, 79, 0
1, 7872, Note_on_c, 0, 72, 78
1, 7872, Note_on_c, 1, 57, 78
1, 7920, Note_on_c, 0, 72, 0
1, 7920, Note_on_c, 0, 76, 80
1, 7920, Note_on_c, 1, 57, 0
1, 7920, Note_on_c, 1, 60, 78
1, 7930, Note_on_c, 0, 76, 0
1, 7930, Note_on_c, 1, 60, 0
1, 7968, Note_on_c, 0, 69, 83
1, 7968, Note_on_c, 1, 53, 78
1, 8016, Note_on_c, 0, 69, 0
1, 8016, Note_on_c, 0, 81, 86
1, 8016, Note_on_c, 1, 53, 0
1, 8016, Note_on_c, 1, 65, 78
1, 8026, Note_on_c, 0, 81, 0
1, 8026, Note_on_c, 1, 65, 0
1, 8064, Note_on_c, 0, 72, 83
1, 8064, Note_on_c, 1, 64, 78
1, 8064, Note_on_c, 1, 55, 64
1, 8160, Note_on_c, 0, 72, 0
1, 8160, Note_on_c, 0, 71, 78
1, 8160, Note_on_c, 1, 64, 0
1, 8160, Note_on_c, 1, 62, 78
1, 8197, Note_on_c, 1, 55, 0
1, 8205, Note_on_c, 0, 71, 0
1, 8205, Note_on_c, 1, 62, 0
1, 8208, Note_on_c, 0, 79, 78
1, 8228, Note_on_c, 0, 79, 0
1, 8256, Note_on_c, 0, 72, 78
1, 8256, Note_on_c, 1, 57, 78
1, 8279, Note_on_c, 0, 72, 0
1, 8279, Note_on_c, 1, 57, 0
1, 8280, Note_on_c, 0, 74, 80
1, 8280, Note_on_c, 1, 59, 78
1, 8303, Note_on_c, 0, 74, 0
1, 8303, Note_on_c, 1, 59, 0
1, 8304, Note_on_c, 0, 76, 82
1, 8304, Note_on_c, 1, 60, 78
1, 8327, Note_on_c, 0, 76, 0
1, 8327, Note_on_c, 1, 60, 0
1, 8328, Note_on_c, 0, 72, 84
1, 8328, Note_on_c, 1, 57, 78
1, 8351, Note_on_c, 0, 72, 0
1, 8351, Note_on_c, 1, 57, 0
1, 8352, Note_on_c, 0, 69, 86
1, 8352, Note_on_c, 1, 53, 78
1, 8397, Note_on_c, 0, 69, 0
1, 8397, Note_on_c, 1, 53, 0
1, 8400, Note_on_c, 0, 81, 84
1, 8400, Note_on_c, 1, 65, 78
1, 8420, Note_on_c, 0, 81, 0
1, 8420, Note_on_c, 1, 65, 0
1, 8448, Note_on_c, 0, 72, 82
1, 8448, Note_on_c, 1, 64, 78
1, 8448, Note_on_c, 1, 55, 64
1, 8544, Note_on_c, 0, 72, 0
1, 8544, Note_on_c, 0, 71, 79
1, 8544, Note_on_c, 1, 64, 0
1, 8544, Note_on_c, 1, 62, 78
1, 8589, Note_on_c, 0, 71, 0
1, 8589, Note_on_c, 1, 62, 0
1, 8589, Note_on_c, 1, 55, 0
1, 8592, Note_on_c, 0, 79, 78
1, 8592, Note_on_c, 1, 64, 78
1, 8612, Note_on_c, 0, 79, 0
1, 8615, Note_on_c, 1, 64, 0
1, 8616, Note_on_c, 1, 65, 78
1, 8639, Note_on_c, 1, 65, 0
1, 8640, Note_on_c, 0, 70, 78
1, 8640, Note_on_c, 1, 67, 78
1, 8640, Note_on_c, 1, 61, 64
1, 8736, Note_on_c, 0, 70, 0
1, 8736, Note_on_c, 0, 69, 78
1, 8736, Note_on_c, 1, 67, 0
1, 8736, Note_on_c, 1, 65, 78
1, 8736, Note_on_c, 1, 61, 0
1, 8736, Note_on_c, 1, 62, 64
1, 8781, Note_on_c, 0, 69, 0
1, 8784, Note_on_c, 0, 77, 78
1, 8804, Note_on_c, 0, 77, 0
1, 8825, Note_on_c, 1, 65, 0
1, 8825, Note_on_c, 1, 62, 0
1, 8832, Note_on_c, 0, 68, 78
1, 8832, Note_on_c, 1, 65, 78
1, 8832, Note_on_c, 1, 59, 64
1, 8928, Note_on_c, 0, 68, 0
1, 8928, Note_on_c, 0, 67, 78
1, 8928, Note_on_c, 1, 65, 0
1, 8928, Note_on_c, 1, 64, 78
1, 8928, Note_on_c, 1, 59, 0
1, 8928, Note_on_c, 1, 60, 64
1, 8973, Note_on_c, 0, 67, 0
1, 8976, Note_on_c, 0, 72, 78
1, 8996, Note_on_c, 0, 72, 0
1, 9017, Note_on_c, 1, 64, 0
1, 9017, Note_on_c, 1, 60, 0
1, 9024, Note_on_c, 0, 62, 78
1, 9024, Note_on_c, 1, 53, 78
1, 9069, Note_on_c, 0, 62, 0
1, 9072, Note_on_c, 0, 69, 86
1, 9072, Note_on_c, 0, 65, 86
1, 9113, Note_on_c, 1, 53, 0
1, 9117, Note_on_c, 0, 69, 0
1, 9117, Note_on_c, 0, 65, 0
1, 9120, Note_on_c, 0, 67, 83
1, 9120, Note_on_c, 0, 64, 83
1, 9120, Note_on_c, 1, 55, 78
1, 9120, Note_on_c, 1, 43, 78
1, 9165, Note_on_c, 0, 67, 0
1, 9165, Note_on_c, 0, 64, 0
1, 9168, Note_on_c, 0, 59, 80
1, 9209, Note_on_c, 1, 55, 0
1, 9209, Note_on_c, 1, 43, 0
1, 9213, Note_on_c, 0, 59, 0
1, 9216, Note_on_c, 0, 60, 78
1, 9264, Note_on_c, 1, 36, 78
1, 9305, Note_on_c, 0, 60, 0
1, 9309, Note_on_c, 1, 36, 0
1, 9312, Note_on_c, 1, 48, 78
1, 9357, Note_on_c, 1, 48, 0
1, 9360, Note_on_c, 0, 65, 74
1, 9360, Note_on_c, 0, 59, 74
1, 9408, Note_on_c, 0, 65, 0
1, 9408, Note_on_c, 0, 59, 0
1, 9408, Note_on_c, 0, 64, 73
1, 9408, Note_on_c, 0, 60, 73
1, 9428, Note_on_c, 0, 64, 0
1, 9428, Note_on_c, 0, 60, 0
1, 9456, Note_on_c, 1, 36, 78
1, 9501, Note_on_c, 1, 36, 0
1, 9504, Note_on_c, 1, 48, 78
1, 9549, Note_on_c, 1, 48, 0
1, 9552, Note_on_c, 0, 69, 70
1, 9552, Note_on_c, 0, 65, 70
1, 9600, Note_on_c, 0, 69, 0
1, 9600, Note_on_c, 0, 65, 0
1, 9600, Note_on_c, 0, 67, 69
1, 9600, Note_on_c, 0, 64, 69
1, 9620, Note_on_c, 0, 67, 0
1, 9620, Note_on_c, 0, 64, 0
1, 9648, Note_on_c, 1, 36, 78
1, 9693, Note_on_c, 1, 36, 0
1, 9696, Note_on_c, 1, 48, 78
1, 9741, Note_on_c, 1, 48, 0
1, 9744, Note_on_c, 0, 77, 66
1, 9744, Note_on_c, 0, 71, 66
1, 9792, Note_on_c, 0, 77, 0
1, 9792, Note_on_c, 0, 71, 0
1, 9792, Note_on_c, 0, 76, 65
1, 9792, Note_on_c, 0, 72, 65
1, 9812, Note_on_c, 0, 76, 0
1, 9812, Note_on_c, 0, 72, 0
1, 9840, Note_on_c, 1, 36, 78
1, 9885, Note_on_c, 1, 36, 0
1, 9888, Note_on_c, 1, 48, 78
1, 9933, Note_on_c, 1, 48, 0
1, 9936, Note_on_c, 0, 83, 62
1, 9936, Note_on_c, 0, 74, 62
1, 9984, Note_on_c, 0, 83, 0
1, 9984, Note_on_c, 0, 74, 0
1, 9984, Note_on_c, 0, 84, 61
1, 9984, Note_on_c, 0, 76, 61
1, 10004, Note_on_c, 0, 84, 0
1, 10004, Note_on_c, 0, 76, 0
1, 10128, Note_on_c, 0, 72, 78
1, 10148, Note_on_c, 0, 72, 0
1, 10176, Note_on_c, 0, 65, 78
1, 10176, Note_on_c, 1, 57, 78
1, 10176, Note_on_c, 1, 53, 78
1, 10224, Note_on_c, 0, 65, 0
1, 10224, Note_on_c, 0, 69, 78
1, 10265, Note_on_c, 1, 57, 0
1, 10265, Note_on_c, 1, 53, 0
1, 10269, Note_on_c, 0, 69, 0
1, 10272, Note_on_c, 0, 62, 82
1, 10272, Note_on_c, 1, 58, 78
1, 10272, Note_on_c, 1, 46, 78
1, 10317, Note_on_c, 0, 62, 0
1, 10320, Note_on_c, 0, 74, 86
1, 10340, Note_on_c, 0, 74, 0
1, 10361, Note_on_c, 1, 58, 0
1, 10361, Note_on_c, 1, 46, 0
1, 10368, Note_on_c, 0, 65, 84
1, 10368, Note_on_c, 1, 57, 78
1, 10368, Note_on_c, 1, 48, 78
1, 10464, Note_on_c, 0, 65, 0
1, 10464, Note_on_c, 0, 64, 80
1, 10464, Note_on_c, 1, 57, 0
1, 10464, Note_on_c, 1, 55, 78
1, 10509, Note_on_c, 0, 64, 0
1, 10509, Note_on_c, 1, 55, 0
1, 10509, Note_on_c, 1, 48, 0
1, 10512, Note_on_c, 0, 70, 78
1, 10532, Note_on_c, 0, 70, 0
1, 10560, Note_on_c, 0, 67, 78
1, 10608, Note_on_c, 0, 67, 0
1, 10608, Note_on_c, 0, 76, 80
1, 10653, Note_on_c, 0, 76, 0
1, 10656, Note_on_c, 0, 70, 82
1, 10656, Note_on_c, 1, 64, 78
1, 10656, Note_on_c, 1, 60, 78
1, 10704, Note_on_c, 0, 70, 0
1, 10704, Note_on_c, 0, 79, 84
1, 10724, Note_on_c, 0, 79, 0
1, 10745, Note_on_c, 1, 64, 0
1, 10745, Note_on_c, 1, 60, 0
1, 10752, Note_on_c, 0, 70, 86
1, 10752, Note_on_c, 1, 65, 78
1, 10797, Note_on_c, 1, 65, 0
1, 10800, Note_on_c, 1, 53, 78
1, 10845, Note_on_c, 1, 53, 0
1, 10848, Note_on_c, 0, 70, 0
1, 10848, Note_on_c, 0, 69, 80
1, 10893, Note_on_c, 0, 69, 0
1, 10896, Note_on_c, 0, 72, 78
1, 10916, Note_on_c, 0, 72, 0
1, 10944, Note_on_c, 0, 63, 78
1, 10992, Note_on_c, 0, 63, 0
1, 10992, Note_on_c, 0, 75, 80
1, 11037, Note_on_c, 0, 75, 0
1, 11040, Note_on_c, 0, 65, 82
1, 11040, Note_on_c, 1, 57, 78
1, 11085, Note_on_c, 0, 65, 0
1, 11088, Note_on_c, 0, 72, 84
1, 11108, Note_on_c, 0, 72, 0
1, 11129, Note_on_c, 1, 57, 0
1, 11136, Note_on_c, 0, 73, 86
1, 11136, Note_on_c, 1, 58, 78
1, 11181, Note_on_c, 1, 58, 0
1, 11184, Note_on_c, 1, 46, 78
1, 11229, Note_on_c, 1, 46, 0
1, 11232, Note_on_c, 0, 73, 0
1, 11232, Note_on_c, 0, 74, 80
1, 11277, Note_on_c, 0, 74, 0
1, 11280, Note_on_c, 0, 67, 78
1, 11280, Note_on_c, 1, 62, 78
1, 11280, Note_on_c, 1, 58, 78
1, 11300, Note_on_c, 0, 67, 0
1, 11325, Note_on_c, 1, 62, 0
1, 11325, Note_on_c, 1, 58, 0
1, 11328, Note_on_c, 0, 69, 78
1, 11328, Note_on_c, 1, 60, 78
1, 11328, Note_on_c, 1, 57, 78
1, 11373, Note_on_c, 0, 69, 0
1, 11373, Note_on_c, 1, 60, 0
1, 11373, Note_on_c, 1, 57, 0
1, 11376, Note_on_c, 0, 70, 78
1, 11376, Note_on_c, 1, 58, 78
1, 11376, Note_on_c, 1, 55, 78
1, 11421, Note_on_c, 0, 70, 0
1, 11421, Note_on_c, 1, 58, 0
1, 11421, Note_on_c, 1, 55, 0
1, 11424, Note_on_c, 0, 64, 78
1, 11424, Note_on_c, 1, 60, 78
1, 11469, Note_on_c, 0, 64, 0
1, 11469, Note_on_c, 1, 60, 0
1, 11472, Note_on_c, 0, 67, 78
1, 11472, Note_on_c, 1, 48, 78
1, 11492, Note_on_c, 0, 67, 0
1, 11517, Note_on_c, 1, 48, 0
1, 11520, Note_on_c, 0, 65, 78
1, 11520, Note_on_c, 1, 53, 78
1, 11565, Note_on_c, 1, 53, 0
1, 11568, Note_on_c, 1, 41, 78
1, 11609, Note_on_c, 0, 65, 0
1, 11613, Note_on_c, 1, 41, 0
1, 11664, Note_on_c, 0, 84, 78
1, 11684, Note_on_c, 0, 84, 0
1, 11712, Note_on_c, 0, 77, 78
1, 11757, Note_on_c, 0, 77, 0
1, 11760, Note_on_c, 0, 81, 78
1, 11805, Note_on_c, 0, 81, 0
1, 11808, Note_on_c, 0, 72, 78
1, 11853, Note_on_c, 0, 72, 0
1, 11856, Note_on_c, 0, 77, 78
1, 11856, Note_on_c, 1, 72, 78
1, 11856, Note_on_c, 1, 69, 78
1, 11876, Note_on_c, 0, 77, 0
1, 11901, Note_on_c, 1, 72, 0
1, 11901, Note_on_c, 1, 69, 0
1, 11904, Note_on_c, 0, 76, 78
1, 11904, Note_on_c, 1, 70, 78
1, 11904, Note_on_c, 1, 67, 78
1, 11949, Note_on_c, 0, 76, 0
1, 11949, Note_on_c, 1, 70, 0
1, 11949, Note_on_c, 1, 67, 0
1, 11952, Note_on_c, 0, 77, 78
1, 11952, Note_on_c, 1, 69, 78
1, 11952, Note_on_c, 1, 65, 78
1, 11997, Note_on_c, 0, 77, 0
1, 11997, Note_on_c, 1, 69, 0
1, 11997, Note_on_c, 1, 65, 0
1, 12000, Note_on_c, 0, 79, 78
1, 12000, Note_on_c, 1, 67, 78
1, 12000, Note_on_c, 1, 64, 78
1, 12045, Note_on_c, 0, 79, 0
1, 12045, Note_on_c, 1, 67, 0
1, 12045, Note_on_c, 1, 64, 0
1, 12048, Note_on_c, 0, 84, 78
1, 12068, Note_on_c, 0, 84, 0
1, 12096, Note_on_c, 0, 79, 78
1, 12141, Note_on_c, 0, 79, 0
1, 12144, Note_on_c, 0, 82, 78
1, 12189, Note_on_c, 0, 82, 0
1, 12192, Note_on_c, 0, 72, 78
1, 12237, Note_on_c, 0, 72, 0
1, 12240, Note_on_c, 0, 76, 78
1, 12240, Note_on_c, 1, 72, 78
1, 12240, Note_on_c, 1, 70, 78
1, 12260, Note_on_c, 0, 76, 0
1, 12285, Note_on_c, 1, 72, 0
1, 12285, Note_on_c, 1, 70, 0
1, 12288, Note_on_c, 0, 77, 78
1, 12288, Note_on_c, 1, 72, 78
1, 12288, Note_on_c, 1, 69, 78
1, 12333, Note_on_c, 0, 77, 0
1, 12333, Note_on_c, 1, 72, 0
1, 12333, Note_on_c, 1, 69, 0
1, 12336, Note_on_c, 0, 79, 78
1, 12336, Note_on_c, 1, 70, 78
1, 12336, Note_on_c, 1, 67, 78
1, 12381, Note_on_c, 0, 79, 0
1, 12381, Note_on_c, 1, 70, 0
1, 12381, Note_on_c, 1, 67, 0
1, 12384, Note_on_c, 0, 81, 78
1, 12384, Note_on_c, 1, 69, 78
1, 12384, Note_on_c, 1, 65, 78
1, 12429, Note_on_c, 0, 81, 0
1, 12429, Note_on_c, 1, 69, 0
1, 12429, Note_on_c, 1, 65, 0
1, 12432, Note_on_c, 0, 84, 78
1, 12452, Note_on_c, 0, 84, 0
1, 12480, Note_on_c, 0, 77, 78
1, 12525, Note_on_c, 0, 77, 0
1, 12528, Note_on_c, 0, 84, 78
1, 12528, Note_on_c, 1, 69, 78
1, 12528, Note_on_c, 1, 65, 78
1, 12548, Note_on_c, 0, 84, 0
1, 12573, Note_on_c, 1, 69, 0
1, 12573, Note_on_c, 1, 65, 0
1, 12576, Note_on_c, 0, 77, 78
1, 12576, Note_on_c, 1, 70, 78
1, 12576, Note_on_c, 1, 67, 78
1, 12621, Note_on_c, 0, 77, 0
1, 12621, Note_on_c, 1, 70, 0
1, 12621, Note_on_c, 1, 67, 0
1, 12624, Note_on_c, 0, 75, 78
1, 12624, Note_on_c, 1, 72, 78
1, 12624, Note_on_c, 1, 69, 78
1, 12669, Note_on_c, 1, 72, 0
1, 12669, Note_on_c, 1, 69, 0
1, 12672, Note_on_c, 1, 70, 78
1, 12717, Note_on_c, 0, 75, 0
1, 12720, Note_on_c, 0, 73, 78
1, 12761, Note_on_c, 1, 70, 0
1, 12765, Note_on_c, 0, 73, 0
1, 12768, Note_on_c, 0, 74, 78
1, 12813, Note_on_c, 0, 74, 0
1, 12816, Note_on_c, 0, 69, 78
1, 12816, Note_on_c, 0, 66, 78
1, 12861, Note_on_c, 0, 69, 0
1, 12861, Note_on_c, 0, 66, 0
1, 12864, Note_on_c, 0, 70, 80
1, 12864, Note_on_c, 0, 67, 80
1, 12909, Note_on_c, 0, 70, 0
1, 12909, Note_on_c, 0, 67, 0
1, 12912, Note_on_c, 0, 72, 83
1, 12912, Note_on_c, 0, 69, 83
1, 12957, Note_on_c, 0, 72, 0
1, 12957, Note_on_c, 0, 69, 0
1, 12960, Note_on_c, 0, 74, 86
1, 12960, Note_on_c, 0, 70, 86
1, 13005, Note_on_c, 0, 74, 0
1, 13005, Note_on_c, 0, 70, 0
1, 13008, Note_on_c, 0, 70, 84
1, 13008, Note_on_c, 0, 67, 84
1, 13008, Note_on_c, 1, 58, 78
1, 13053, Note_on_c, 0, 70, 0
1, 13053, Note_on_c, 0, 67, 0
1, 13053, Note_on_c, 1, 58, 0
1, 13056, Note_on_c, 0, 69, 82
1, 13056, Note_on_c, 0, 65, 82
1, 13056, Note_on_c, 1, 60, 78
1, 13101, Note_on_c, 1, 60, 0
1, 13104, Note_on_c, 1, 48, 78
1, 13149, Note_on_c, 1, 48, 0
1, 13152, Note_on_c, 0, 69, 0
1, 13152, Note_on_c, 0, 65, 0
1, 13152, Note_on_c, 0, 67, 79
1, 13152, Note_on_c, 0, 64, 79
1, 13197, Note_on_c, 0, 67, 0
1, 13197, Note_on_c, 0, 64, 0
1, 13200, Note_on_c, 0, 76, 78
1, 13220, Note_on_c, 0, 76, 0
1, 13248, Note_on_c, 0, 79, 78
1, 13293, Note_on_c, 0, 79, 0
1, 13296, Note_on_c, 0, 72, 78
1, 13296, Note_on_c, 1, 64, 78
1, 13341, Note_on_c, 0, 72, 0
1, 13341, Note_on_c, 1, 64, 0
1, 13344, Note_on_c, 0, 71, 78
1, 13344, Note_on_c, 1, 62, 78
1, 13389, Note_on_c, 0, 71, 0
1, 13389, Note_on_c, 1, 62, 0
1, 13392, Note_on_c, 0, 77, 78
1, 13392, Note_on_c, 0, 74, 78
1, 13392, Note_on_c, 1, 55, 78
1, 13437, Note_on_c, 0, 77, 0
1, 13437, Note_on_c, 0, 74, 0
1, 13437, Note_on_c, 1, 55, 0
1, 13440, Note_on_c, 0, 77, 78
1, 13440, Note_on_c, 0, 74, 78
1, 13440, Note_on_c, 1, 60, 78
1, 13485, Note_on_c, 0, 77, 0
1, 13485, Note_on_c, 0, 74, 0
1, 13485, Note_on_c, 1, 60, 0
1, 13488, Note_on_c, 0, 76, 78
1, 13488, Note_on_c, 0, 72, 78
1, 13488, Note_on_c, 1, 54, 78
1, 13533, Note_on_c, 0, 76, 0
1, 13533, Note_on_c, 0, 72, 0
1, 13533, Note_on_c, 1, 54, 0
1, 13536, Note_on_c, 0, 74, 78
1, 13536, Note_on_c, 0, 71, 78
1, 13536, Note_on_c, 1, 55, 78
1, 13581, Note_on_c, 0, 74, 0
1, 13581, Note_on_c, 0, 71, 0
1, 13581, Note_on_c, 1, 55, 0
1, 13584, Note_on_c, 0, 75, 69
1, 13604, Note_on_c, 0, 75, 0
1, 13632, Note_on_c, 0, 79, 69
1, 13677, Note_on_c, 0, 79, 0
1, 13680, Note_on_c, 0, 72, 69
1, 13680, Note_on_c, 1, 63, 69
1, 13725, Note_on_c, 0, 72, 0
1, 13725, Note_on_c, 1, 63, 0
1, 13728, Note_on_c, 0, 71, 69
1, 13728, Note_on_c, 1, 62, 69
1, 13773, Note_on_c, 0, 71, 0
1, 13773, Note_on_c, 1, 62, 0
1, 13776, Note_on_c, 0, 77, 69
1, 13776, Note_on_c, 0, 74, 69
1, 13776, Note_on_c, 1, 55, 69
1, 13821, Note_on_c, 0, 77, 0
1, 13821, Note_on_c, 0, 74, 0
1, 13821, Note_on_c, 1, 55, 0
1, 13824, Note_on_c, 0, 77, 69
1, 13824, Note_on_c, 0, 74, 69
1, 13824, Note_on_c, 1, 60, 69
1, 13869, Note_on_c, 0, 77, 0
1, 13869, Note_on_c, 0, 74, 0
1, 13869, Note_on_c, 1, 60, 0
1, 13872, Note_on_c, 0, 75, 69
1, 13872, Note_on_c, 0, 72, 69
1, 13872, Note_on_c, 1, 54, 69
1, 13917, Note_on_c, 0, 75, 0
1, 13917, Note_on_c, 0, 72, 0
1, 13917, Note_on_c, 1, 54, 0
1, 13920, Note_on_c, 0, 74, 69
1, 13920, Note_on_c, 0, 71, 69
1, 13920, Note_on_c, 1, 55, 69
1, 13965, Note_on_c, 0, 74, 0
1, 13965, Note_on_c, 0, 71, 0
1, 13965, Note_on_c, 1, 55, 0
1, 13968, Note_on_c, 0, 76, 78
1, 13988, Note_on_c, 0, 76, 0
1, 14016, Note_on_c, 0, 79, 78
1, 14061, Note_on_c, 0, 79, 0
1, 14064, Note_on_c, 0, 72, 78
1, 14064, Note_on_c, 1, 64, 78
1, 14064, Note_on_c, 1, 60, 78
1, 14109, Note_on_c, 0, 72, 0
1, 14109, Note_on_c, 1, 64, 0
1, 14109, Note_on_c, 1, 60, 0
1, 14112, Note_on_c, 0, 71, 78
1, 14112, Note_on_c, 1, 65, 78
1, 14112, Note_on_c, 1, 62, 78
1, 14157, Note_on_c, 0, 71, 0
1, 14157, Note_on_c, 1, 65, 0
1, 14157, Note_on_c, 1, 62, 0
1, 14160, Note_on_c, 0, 70, 78
1, 14160, Note_on_c, 1, 67, 78
1, 14160, Note_on_c, 1, 64, 78
1, 14205, Note_on_c, 1, 67, 0
1, 14205, Note_on_c, 1, 64, 0
1, 14208, Note_on_c, 1, 65, 78
1, 14231, Note_on_c, 0, 70, 0
1, 14232, Note_on_c, 0, 69, 78
1, 14255, Note_on_c, 0, 69, 0
1, 14256, Note_on_c, 0, 68, 78
1, 14279, Note_on_c, 0, 68, 0
1, 14280, Note_on_c, 0, 69, 78
1, 14303, Note_on_c, 0, 69, 0
1, 14304, Note_on_c, 0, 71, 78
1, 14327, Note_on_c, 0, 71, 0
1, 14328, Note_on_c, 0, 69, 78
1, 14341, Note_on_c, 1, 65, 0
1, 14351, Note_on_c, 0, 69, 0
1, 14352, Note_on_c, 0, 73, 78
1, 14352, Note_on_c, 1, 64, 78
1, 14375, Note_on_c, 0, 73, 0
1, 14376, Note_on_c, 0, 69, 78
1, 14397, Note_on_c, 1, 64, 0
1, 14399, Note_on_c, 0, 69, 0
1, 14400, Note_on_c, 0, 74, 78
1, 14400, Note_on_c, 1, 65, 78
1, 14423, Note_on_c, 0, 74, 0
1, 14424, Note_on_c, 0, 69, 79
1, 14445, Note_on_c, 1, 65, 0
1, 14447, Note_on_c, 0, 69, 0
1, 14448, Note_on_c, 0, 76, 80
1, 14448, Note_on_c, 1, 61, 80
1, 14471, Note_on_c, 0, 76, 0
1, 14472, Note_on_c, 0, 69, 82
1, 14493, Note_on_c, 1, 61, 0
1, 14495, Note_on_c, 0, 69, 0
1, 14496, Note_on_c, 0, 77, 83
1, 14496, Note_on_c, 1, 62, 83
1, 14519, Note_on_c, 0, 77, 0
1, 14520, Note_on_c, 0, 69, 84
1, 14541, Note_on_c, 1, 62, 0
1, 14543, Note_on_c, 0, 69, 0
1, 14544, Note_on_c, 0, 79, 86
1, 14544, Note_on_c, 1, 64, 86
1, 14567, Note_on_c, 0, 79, 0
1, 14568, Note_on_c, 0, 69, 85
1, 14589, Note_on_c, 1, 64, 0
1, 14591, Note_on_c, 0, 69, 0
1, 14592, Note_on_c, 0, 81, 100
1, 14592, Note_on_c, 1, 65, 84
1, 14681, Note_on_c, 1, 65, 0
1, 14688, Note_on_c, 0, 81, 0
1, 14688, Note_on_c, 0, 79, 81
1, 14711, Note_on_c, 0, 79, 0
1, 14712, Note_on_c, 0, 77, 80
1, 14735, Note_on_c, 0, 77, 0
1, 14736, Note_on_c, 0, 76, 79
1, 14759, Note_on_c, 0, 76, 0
1, 14760, Note_on_c, 0, 74, 78
1, 14783, Note_on_c, 0, 74, 0
1, 14784, Note_on_c, 0, 73, 78
1, 14807, Note_on_c, 0, 73, 0
1, 14808, Note_on_c, 0, 74, 80
1, 14831, Note_on_c, 0, 74, 0
1, 14832, Note_on_c, 0, 76, 82
1, 14855, Note_on_c, 0, 76, 0
1, 14856, Note_on_c, 0, 74, 84
1, 14879, Note_on_c, 0, 74, 0
1, 14880, Note_on_c, 0, 79, 86
1, 14903, Note_on_c, 0, 79, 0
1, 14904, Note_on_c, 0, 77, 84
1, 14927, Note_on_c, 0, 77, 0
1, 14928, Note_on_c, 0, 76, 82
1, 14951, Note_on_c, 0, 76, 0
1, 14952, Note_on_c, 0, 74, 80
1, 14975, Note_on_c, 0, 74, 0
1, 14976, Note_on_c, 0, 72, 78
1, 15024, Note_on_c, 1, 69, 78
1, 15024, Note_on_c, 1, 66, 78
1, 15069, Note_on_c, 1, 69, 0
1, 15069, Note_on_c, 1, 66, 0
1, 15072, Note_on_c, 1, 67, 78
1, 15109, Note_on_c, 0, 72, 0
1, 15117, Note_on_c, 1, 67, 0
1, 15120, Note_on_c, 0, 76, 78
1, 15120, Note_on_c, 1, 55, 78
1, 15138, Note_on_c, 0, 76, 0
1, 15138, Note_on_c, 0, 74, 78
1, 15165, Note_on_c, 0, 74, 0
1, 15165, Note_on_c, 1, 55, 0
1, 15168, Note_on_c, 0, 72, 78
1, 15168, Note_on_c, 1, 60, 78
1, 15213, Note_on_c, 1, 60, 0
1, 15216, Note_on_c, 1, 48, 78
1, 15257, Note_on_c, 0, 72, 0
1, 15261, Note_on_c, 1, 48, 0
1, 15312, Note_on_c, 0, 74, 78
1, 15335, Note_on_c, 0, 74, 0
1, 15336, Note_on_c, 0, 71, 78
1, 15359, Note_on_c, 0, 71, 0
1, 15360, Note_on_c, 0, 74, 86
1, 15360, Note_on_c, 1, 65, 86
1, 15360, Note_on_c, 1, 62, 86
1, 15360, Note_on_c, 1, 59, 86
1, 15360, Note_on_c, 1, 55, 86
1, 15383, Note_on_c, 0, 74, 0
1, 15384, Note_on_c, 0, 71, 86
1, 15407, Note_on_c, 0, 71, 0
1, 15408, Note_on_c, 0, 77, 86
1, 15431, Note_on_c, 0, 77, 0
1, 15432, Note_on_c, 0, 74, 86
1, 15449, Note_on_c, 1, 65, 0
1, 15449, Note_on_c, 1, 62, 0
1, 15449, Note_on_c, 1, 59, 0
1, 15449, Note_on_c, 1, 55, 0
1, 15455, Note_on_c, 0, 74, 0
1, 15456, Note_on_c, 0, 71, 86
1, 15479, Note_on_c, 0, 71, 0
1, 15480, Note_on_c, 0, 67, 86
1, 15503, Note_on_c, 0, 67, 0
1, 15504, Note_on_c, 0, 74, 86
1, 15527, Note_on_c, 0, 74, 0
1, 15528, Note_on_c, 0, 71, 86
1, 15551, Note_on_c, 0, 71, 0
1, 15552, Note_on_c, 0, 74, 86
1, 15552, Note_on_c, 1, 65, 86
1, 15552, Note_on_c, 1, 62, 86
1, 15552, Note_on_c, 1, 59, 86
1, 15552, Note_on_c, 1, 55, 86
1, 15575, Note_on_c, 0, 74, 0
1, 15576, Note_on_c, 0, 71, 86
1, 15599, Note_on_c, 0, 71, 0
1, 15600, Note_on_c, 0, 77, 86
1, 15623, Note_on_c, 0, 77, 0
1, 15624, Note_on_c, 0, 74, 86
1, 15641, Note_on_c, 1, 65, 0
1, 15641, Note_on_c, 1, 62, 0
1, 15641, Note_on_c, 1, 59, 0
1, 15641, Note_on_c, 1, 55, 0
1, 15647, Note_on_c, 0, 74, 0
1, 15648, Note_on_c, 0, 71, 86
1, 15671, Note_on_c, 0, 71, 0
1, 15672, Note_on_c, 0, 67, 86
1, 15695, Note_on_c, 0, 67, 0
1, 15696, Note_on_c, 0, 74, 86
1, 15719, Note_on_c, 0, 74, 0
1, 15720, Note_on_c, 0, 71, 86
1, 15743, Note_on_c, 0, 71, 0
1, 15744, Note_on_c, 0, 74, 86
1, 15744, Note_on_c, 1, 65, 86
1, 15744, Note_on_c, 1, 62, 86
1, 15744, Note_on_c, 1, 59, 86
1, 15744, Note_on_c, 1, 55, 86
1, 15767, Note_on_c, 0, 74, 0
1, 15768, Note_on_c, 0, 71, 86
1, 15791, Note_on_c, 0, 71, 0
1, 15792, Note_on_c, 0, 77, 86
1, 15815, Note_on_c, 0, 77, 0
1, 15816, Note_on_c, 0, 74, 86
1, 15833, Note_on_c, 1, 65, 0
1, 15833, Note_on_c, 1, 62, 0
1, 15833, Note_on_c, 1, 59, 0
1, 15833, Note_on_c, 1, 55, 0
1, 15839, Note_on_c, 0, 74, 0
1, 15840, Note_on_c, 0, 71, 86
1, 15863, Note_on_c, 0, 71, 0
1, 15864, Note_on_c, 0, 67, 86
1, 15887, Note_on_c, 0, 67, 0
1, 15888, Note_on_c, 0, 74, 86
1, 15911, Note_on_c, 0, 74, 0
1, 15912, Note_on_c, 0, 71, 86
1, 15935, Note_on_c, 0, 71, 0
1, 15936, Note_on_c, 0, 67, 86
1, 15959, Note_on_c, 0, 67, 0
1, 15960, Note_on_c, 0, 65, 86
1, 15983, Note_on_c, 0, 65, 0
1, 15984, Note_on_c, 0, 71, 86
1, 16007, Note_on_c, 0, 71, 0
1, 16008, Note_on_c, 0, 67, 86
1, 16031, Note_on_c, 0, 67, 0
1, 16032, Note_on_c, 0, 65, 86
1, 16055, Note_on_c, 0, 65, 0
1, 16056, Note_on_c, 0, 62, 86
1, 16079, Note_on_c, 0, 62, 0
1, 16080, Note_on_c, 0, 65, 86
1, 16103, Note_on_c, 0, 65, 0
1, 16104, Note_on_c, 0, 62, 86
1, 16127, Note_on_c, 0, 62, 0
1, 16128, Note_on_c, 0, 59, 86
1, 16173, Note_on_c, 0, 59, 0
1, 16272, Note_on_c, 0, 79, 78
1, 16292, Note_on_c, 0, 79, 0
1, 16320, Note_on_c, 0, 72, 78
1, 16320, Note_on_c, 1, 57, 78
1, 16340, Note_on_c, 0, 72, 0
1, 16340, Note_on_c, 1, 57, 0
1, 16368, Note_on_c, 0, 76, 80
1, 16368, Note_on_c, 1, 60, 78
1, 16388, Note_on_c, 0, 76, 0
1, 16388, Note_on_c, 1, 60, 0
1, 16416, Note_on_c, 0, 69, 83
1, 16416, Note_on_c, 1, 53, 78
1, 16436, Note_on_c, 0, 69, 0
1, 16436, Note_on_c, 1, 53, 0
1, 16464, Note_on_c, 0, 81, 86
1, 16464, Note_on_c, 1, 65, 78
1, 16484, Note_on_c, 0, 81, 0
1, 16484, Note_on_c, 1, 65, 0
1, 16512, Note_on_c, 0, 72, 84
1, 16512, Note_on_c, 1, 64, 78
1, 16512, Note_on_c, 1, 55, 64
1, 16608, Note_on_c, 0, 72, 0
1, 16608, Note_on_c, 0, 71, 80
1, 16608, Note_on_c, 1, 64, 0
1, 16608, Note_on_c, 1, 62, 78
1, 16653, Note_on_c, 0, 71, 0
1, 16656, Note_on_c, 0, 79, 78
1, 16676, Note_on_c, 0, 79, 0
1, 16689, Note_on_c, 1, 55, 0
1, 16697, Note_on_c, 1, 62, 0
1, 16704, Note_on_c, 0, 72, 78
1, 16704, Note_on_c, 1, 57, 78
1, 16752, Note_on_c, 0, 72, 0
1, 16752, Note_on_c, 0, 76, 80
1, 16752, Note_on_c, 1, 57, 0
1, 16752, Note_on_c, 1, 60, 78
1, 16797, Note_on_c, 0, 76, 0
1, 16797, Note_on_c, 1, 60, 0
1, 16800, Note_on_c, 0, 69, 83
1, 16800, Note_on_c, 1, 53, 78
1, 16848, Note_on_c, 0, 69, 0
1, 16848, Note_on_c, 0, 81, 86
1, 16848, Note_on_c, 1, 53, 0
1, 16848, Note_on_c, 1, 65, 78
1, 16868, Note_on_c, 0, 81, 0
1, 16893, Note_on_c, 1, 65, 0
1, 16896, Note_on_c, 0, 72, 84
1, 16896, Note_on_c, 1, 64, 78
1, 16896, Note_on_c, 1, 55, 64
1, 16992, Note_on_c, 0, 72, 0
1, 16992, Note_on_c, 0, 71, 80
1, 16992, Note_on_c, 1, 64, 0
1, 16992, Note_on_c, 1, 62, 78
1, 17029, Note_on_c, 1, 55, 0
1, 17037, Note_on_c, 0, 71, 0
1, 17040, Note_on_c, 0, 79, 78
1, 17040, Note_on_c, 1, 53, 64
1, 17060, Note_on_c, 0, 79, 0
1, 17081, Note_on_c, 1, 62, 0
1, 17085, Note_on_c, 1, 53, 0
1, 17088, Note_on_c, 0, 70, 78
1, 17088, Note_on_c, 1, 61, 78
1, 17088, Note_on_c, 1, 52, 64
1, 17177, Note_on_c, 1, 52, 0
1, 17184, Note_on_c, 0, 70, 0
1, 17184, Note_on_c, 0, 69, 78
1, 17184, Note_on_c, 1, 61, 0
1, 17184, Note_on_c, 1, 62, 78
1, 17184, Note_on_c, 1, 53, 64
1, 17229, Note_on_c, 0, 69, 0
1, 17232, Note_on_c, 0, 77, 78
1, 17252, Note_on_c, 0, 77, 0
1, 17273, Note_on_c, 1, 62, 0
1, 17273, Note_on_c, 1, 53, 0
1, 17280, Note_on_c, 0, 68, 78
1, 17280, Note_on_c, 1, 65, 78
1, 17280, Note_on_c, 1, 59, 64
1, 17369, Note_on_c, 1, 59, 0
1, 17376, Note_on_c, 0, 68, 0
1, 17376, Note_on_c, 0, 67, 78
1, 17376, Note_on_c, 1, 65, 0
1, 17376, Note_on_c, 1, 64, 78
1, 17376, Note_on_c, 1, 60, 64
1, 17421, Note_on_c, 0, 67, 0
1, 17424, Note_on_c, 0, 72, 78
1, 17444, Note_on_c, 0, 72, 0
1, 17465, Note_on_c, 1, 64, 0
1, 17465, Note_on_c, 1, 60, 0
1, 17472, Note_on_c, 0, 62, 78
1, 17472, Note_on_c, 1, 53, 78
1, 17472, Note_on_c, 1, 41, 78
1, 17517, Note_on_c, 0, 62, 0
1, 17520, Note_on_c, 0, 69, 82
1, 17520, Note_on_c, 0, 65, 82
1, 17561, Note_on_c, 1, 53, 0
1, 17561, Note_on_c, 1, 41, 0
1, 17565, Note_on_c, 0, 69, 0
1, 17565, Note_on_c, 0, 65, 0
1, 17568, Note_on_c, 0, 67, 86
1, 17568, Note_on_c, 0, 64, 86
1, 17568, Note_on_c, 1, 55, 78
1, 17568, Note_on_c, 1, 43, 78
1, 17613, Note_on_c, 0, 67, 0
1, 17613, Note_on_c, 0, 64, 0
1, 17616, Note_on_c, 0, 59, 82
1, 17657, Note_on_c, 1, 55, 0
1, 17657, Note_on_c, 1, 43, 0
1, 17661, Note_on_c, 0, 59, 0
1, 17664, Note_on_c, 0, 60, 78
1, 17664, Note_on_c, 1, 48, 78
1, 17664, Note_on_c, 1, 36, 78
1, 17753, Note_on_c, 0, 60, 0
1, 17753, Note_on_c, 1, 48, 0
1, 17753, Note_on_c, 1, 36, 0
1, 17808, Note_on_c, 0, 79, 78
1, 17828, Note_on_c, 0, 79, 0
1, 17856, Note_on_c, 0, 72, 78
1, 17856, Note_on_c, 1, 57, 78
1, 17904, Note_on_c, 0, 72, 0
1, 17904, Note_on_c, 0, 76, 80
1, 17904, Note_on_c, 1, 57, 0
1, 17904, Note_on_c, 1, 60, 78
1, 17914, Note_on_c, 0, 76, 0
1, 17914, Note_on_c, 1, 60, 0
1, 17952, Note_on_c, 0, 69, 83
1, 17952, Note_on_c, 1, 53, 78
1, 18000, Note_on_c, 0, 69, 0
1, 18000, Note_on_c, 0, 81, 86
1, 18000, Note_on_c, 1, 53, 0
1, 18000, Note_on_c, 1, 65, 78
1, 18010, Note_on_c, 0, 81, 0
1, 18010, Note_on_c, 1, 65, 0
1, 18048, Note_on_c, 0, 72, 83
1, 18048, Note_on_c, 1, 64, 78
1, 18048, Note_on_c, 1, 55, 64
1, 18144, Note_on_c, 0, 72, 0
1, 18144, Note_on_c, 0, 71, 78
1, 18144, Note_on_c, 1, 64, 0
1, 18144, Note_on_c, 1, 62, 78
1, 18181, Note_on_c, 1, 55, 0
1, 18189, Note_on_c, 0, 71, 0
1, 18189, Note_on_c, 1, 62, 0
1, 18192, Note_on_c, 0, 79, 78
1, 18212, Note_on_c, 0, 79, 0
1, 18240, Note_on_c, 0, 72, 78
1, 18240, Note_on_c, 1, 57, 78
1, 18263, Note_on_c, 0, 72, 0
1, 18263, Note_on_c, 1, 57, 0
1, 18264, Note_on_c, 0, 74, 80
1, 18264, Note_on_c, 1, 59, 78
1, 18287, Note_on_c, 0, 74, 0
1, 18287, Note_on_c, 1, 59, 0
1, 18288, Note_on_c, 0, 76, 82
1, 18288, Note_on_c, 1, 60, 78
1, 18311, Note_on_c, 0, 76, 0
1, 18311, Note_on_c, 1, 60, 0
1, 18312, Note_on_c, 0, 72, 84
1, 18312, Note_on_c, 1, 57, 78
1, 18335, Note_on_c, 0, 72, 0
1, 18335, Note_on_c, 1, 57, 0
1, 18336, Note_on_c, 0, 69, 86
1, 18336, Note_on_c, 1, 53, 78
1, 18381, Note_on_c, 0, 69, 0
1, 18381, Note_on_c, 1, 53, 0
1, 18384, Note_on_c, 0, 81, 84
1, 18384, Note_on_c, 1, 65, 78
1, 18404, Note_on_c, 0, 81, 0
1, 18404, Note_on_c, 1, 65, 0
1, 18432, Note_on_c, 0, 72, 82
1, 18432, Note_on_c, 1, 64, 78
1, 18432, Note_on_c, 1, 55, 64
1, 18528, Note_on_c, 0, 72, 0
1, 18528, Note_on_c, 0, 71, 79
1, 18528, Note_on_c, 1, 64, 0
1, 18528, Note_on_c, 1, 62, 78
1, 18573, Note_on_c, 0, 71, 0
1, 18573, Note_on_c, 1, 62, 0
1, 18573, Note_on_c, 1, 55, 0
1, 18576, Note_on_c, 0, 79, 78
1, 18576, Note_on_c, 1, 64, 78
1, 18596, Note_on_c, 0, 79, 0
1, 18599, Note_on_c, 1, 64, 0
1, 18600, Note_on_c, 1, 65, 78
1, 18623, Note_on_c, 1, 65, 0
1, 18624, Note_on_c, 0, 70, 78
1, 18624, Note_on_c, 1, 67, 78
1, 18624, Note_on_c, 1, 61, 64
1, 18720, Note_on_c, 0, 70, 0
1, 18720, Note_on_c, 0, 69, 78
1, 18720, Note_on_c, 1, 67, 0
1, 18720, Note_on_c, 1, 65, 78
1, 18720, Note_on_c, 1, 61, 0
1, 18720, Note_on_c, 1, 62, 64
1, 18765, Note_on_c, 0, 69, 0
1, 18768, Note_on_c, 0, 77, 78
1, 18788, Note_on_c, 0, 77, 0
1, 18809, Note_on_c, 1, 65, 0
1, 18809, Note_on_c, 1, 62, 0
1, 18816, Note_on_c, 0, 68, 78
1, 18816, Note_on_c, 1, 65, 78
1, 18816, Note_on_c, 1, 59, 64
1, 18912, Note_on_c, 0, 68, 0
1, 18912, Note_on_c, 0, 67, 78
1, 18912, Note_on_c, 1, 65, 0
1, 18912, Note_on_c, 1, 64, 78
1, 18912, Note_on_c, 1, 59, 0
1, 18912, Note_on_c, 1, 60, 64
1, 18957, Note_on_c, 0, 67, 0
1, 18960, Note_on_c, 0, 72, 78
1, 18980, Note_on_c, 0, 72, 0
1, 19001, Note_on_c, 1, 64, 0
1, 19001, Note_on_c, 1, 60, 0
1, 19008, Note_on_c, 0, 62, 78
1, 19008, Note_on_c, 1, 53, 78
1, 19053, Note_on_c, 0, 62, 0
1, 19056, Note_on_c, 0, 69, 86
1, 19056, Note_on_c, 0, 65, 86
1, 19097, Note_on_c, 1, 53, 0
1, 19101, Note_on_c, 0, 69, 0
1, 19101, Note_on_c, 0, 65, 0
1, 19104, Note_on_c, 0, 67, 83
1, 19104, Note_on_c, 0, 64, 83
1, 19104, Note_on_c, 1, 55, 78
1, 19104, Note_on_c, 1, 43, 78
1, 19149, Note_on_c, 0, 67, 0
1, 19149, Note_on_c, 0, 64, 0
1, 19152, Note_on_c, 0, 59, 80
1, 19193, Note_on_c, 1, 55, 0
1, 19193, Note_on_c, 1, 43, 0
1, 19197, Note_on_c, 0, 59, 0
1, 19200, Note_on_c, 0, 60, 78
1, 19248, Note_on_c, 1, 36, 78
1, 19289, Note_on_c, 0, 60, 0
1, 19293, Note_on_c, 1, 36, 0
1, 19296, Note_on_c, 1, 48, 78
1, 19341, Note_on_c, 1, 48, 0
1, 19344, Note_on_c, 0, 65, 74
1, 19344, Note_on_c, 0, 59, 74
1, 19392, Note_on_c, 0, 65, 0
1, 19392, Note_on_c, 0, 59, 0
1, 19392, Note_on_c, 0, 64, 73
1, 19392, Note_on_c, 0, 60, 73
1, 19412, Note_on_c, 0, 64, 0
1, 19412, Note_on_c, 0, 60, 0
1, 19440, Note_on_c, 1, 36, 78
1, 19485, Note_on_c, 1, 36, 0
1, 19488, Note_on_c, 1, 48, 78
1, 19533, Note_on_c, 1, 48, 0
1, 19536, Note_on_c, 0, 69, 70
1, 19536, Note_on_c, 0, 65, 70
1, 19584, Note_on_c, 0, 69, 0
1, 19584, Note_on_c, 0, 65, 0
1, 19584, Note_on_c, 0, 67, 69
1, 19584, Note_on_c, 0, 64, 69
1, 19604, Note_on_c, 0, 67, 0
1, 19604, Note_on_c, 0, 64, 0
1, 19632, Note_on_c, 1, 36, 78
1, 19677, Note_on_c, 1, 36, 0
1, 19680, Note_on_c, 1, 48, 78
1, 19725, Note_on_c, 1, 48, 0
1, 19728, Note_on_c, 0, 77, 66
1, 19728, Note_on_c, 0, 71, 66
1, 19776, Note_on_c, 0, 77, 0
1, 19776, Note_on_c, 0, 71, 0
1, 19776, Note_on_c, 0, 76, 65
1, 19776, Note_on_c, 0, 72, 65
1, 19796, Note_on_c, 0, 76, 0
1, 19796, Note_on_c, 0, 72, 0
1, 19824, Note_on_c, 1, 36, 78
1, 19869, Note_on_c, 1, 36, 0
1, 19872, Note_on_c, 1, 48, 78
1, 19917, Note_on_c, 1, 48, 0
1, 19920, Note_on_c, 0, 83, 62
1, 19920, Note_on_c, 0, 74, 62
1, 19968, Note_on_c, 0, 83, 0
1, 19968, Note_on_c, 0, 74, 0
1, 19968, Note_on_c, 0, 84, 61
1, 19968, Note_on_c, 0, 76, 61
1, 19988, Note_on_c, 0, 84, 0
1, 19988, Note_on_c, 0, 76, 0
1, 20112, Note_on_c, 0, 72, 86
1, 20135, Note_on_c, 0, 72, 0
1, 20136, Note_on_c, 0, 69, 86
1, 20159, Note_on_c, 0, 69, 0
1, 20160, Note_on_c, 0, 72, 86
1, 20160, Note_on_c, 1, 60, 86
1, 20160, Note_on_c, 1, 57, 86
1, 20160, Note_on_c, 1, 54, 86
1, 20183, Note_on_c, 0, 72, 0
1, 20184, Note_on_c, 0, 69, 86
1, 20207, Note_on_c, 0, 69, 0
1, 20208, Note_on_c, 0, 75, 86
1, 20231, Note_on_c, 0, 75, 0
1, 20232, Note_on_c, 0, 72, 86
1, 20249, Note_on_c, 1, 60, 0
1, 20249, Note_on_c, 1, 57, 0
1, 20249, Note_on_c, 1, 54, 0
1, 20255, Note_on_c, 0, 72, 0
1, 20256, Note_on_c, 0, 69, 86
1, 20279, Note_on_c, 0, 69, 0
1, 20280, Note_on_c, 0, 78, 86
1, 20303, Note_on_c, 0, 78, 0
1, 20304, Note_on_c, 0, 75, 86
1, 20327, Note_on_c, 0, 75, 0
1, 20328, Note_on_c, 0, 72, 86
1, 20351, Note_on_c, 0, 72, 0
1, 20352, Note_on_c, 0, 69, 86
1, 20375, Note_on_c, 0, 69, 0
1, 20376, Note_on_c, 0, 81, 86
1, 20399, Note_on_c, 0, 81, 0
1, 20400, Note_on_c, 0, 78, 86
1, 20423, Note_on_c, 0, 78, 0
1, 20424, Note_on_c, 0, 75, 86
1, 20447, Note_on_c, 0, 75, 0
1, 20448, Note_on_c, 0, 72, 86
1, 20471, Note_on_c, 0, 72, 0
1, 20472, Note_on_c, 0, 84, 86
1, 20495, Note_on_c, 0, 84, 0
1, 20496, Note_on_c, 0, 81, 86
1, 20519, Note_on_c, 0, 81, 0
1, 20520, Note_on_c, 0, 78, 86
1, 20543, Note_on_c, 0, 78, 0
1, 20544, Note_on_c, 0, 75, 86
1, 20583, Note_on_c, 0, 75, 0
1, 20592, Note_on_c, 1, 72, 86
1, 20592, Note_on_c, 1, 69, 86
1, 20592, Note_on_c, 1, 66, 86
1, 20637, Note_on_c, 1, 72, 0
1, 20637, Note_on_c, 1, 69, 0
1, 20637, Note_on_c, 1, 66, 0
1, 20640, Note_on_c, 1, 72, 86
1, 20640, Note_on_c, 1, 69, 86
1, 20640, Note_on_c, 1, 66, 86
1, 20664, Note_on_c, 0, 84, 86
1, 20685, Note_on_c, 1, 72, 0
1, 20685, Note_on_c, 1, 69, 0
1, 20685, Note_on_c, 1, 66, 0
1, 20687, Note_on_c, 0, 84, 0
1, 20688, Note_on_c, 0, 81, 86
1, 20711, Note_on_c, 0, 81, 0
1, 20712, Note_on_c, 0, 78, 86
1, 20735, Note_on_c, 0, 78, 0
1, 20736, Note_on_c, 0, 74, 86
1, 20775, Note_on_c, 0, 74, 0
1, 20784, Note_on_c, 1, 72, 86
1, 20784, Note_on_c, 1, 69, 86
1, 20784, Note_on_c, 1, 66, 86
1, 20829, Note_on_c, 1, 72, 0
1, 20829, Note_on_c, 1, 69, 0
1, 20829, Note_on_c, 1, 66, 0
1, 20832, Note_on_c, 1, 72, 86
1, 20832, Note_on_c, 1, 69, 86
1, 20832, Note_on_c, 1, 66, 86
1, 20856, Note_on_c, 0, 84, 86
1, 20877, Note_on_c, 1, 72, 0
1, 20877, Note_on_c, 1, 69, 0
1, 20877, Note_on_c, 1, 66, 0
1, 20879, Note_on_c, 0, 84, 0
1, 20880, Note_on_c, 0, 81, 86
1, 20903, Note_on_c, 0, 81, 0
1, 20904, Note_on_c, 0, 78, 86
1, 20927, Note_on_c, 0, 78, 0
1, 20928, Note_on_c, 0, 75, 86
1, 20967, Note_on_c, 0, 75, 0
1, 20976, Note_on_c, 1, 72, 86
1, 20976, Note_on_c, 1, 69, 86
1, 20976, Note_on_c, 1, 66, 86
1, 21021, Note_on_c, 1, 72, 0
1, 21021, Note_on_c, 1, 69, 0
1, 21021, Note_on_c, 1, 66, 0
1, 21024, Note_on_c, 1, 72, 86
1, 21024, Note_on_c, 1, 69, 86
1, 21024, Note_on_c, 1, 66, 86
1, 21048, Note_on_c, 0, 84, 86
1, 21069, Note_on_c, 1, 72, 0
1, 21069, Note_on_c, 1, 69, 0
1, 21069, Note_on_c, 1, 66, 0
1, 21071, Note_on_c, 0, 84, 0
1, 21072, Note_on_c, 0, 81, 86
1, 21095, Note_on_c, 0, 81, 0
1, 21096, Note_on_c, 0, 78, 86
1, 21119, Note_on_c, 0, 78, 0
1, 21120, Note_on_c, 0, 74, 86
1, 21159, Note_on_c, 0, 74, 0
1, 21264, Note_on_c, 0, 74, 78
1, 21284, Note_on_c, 0, 74, 0
1, 21312, Note_on_c, 0, 67, 78
1, 21312, Note_on_c, 1, 58, 78
1, 21312, Note_on_c, 1, 55, 78
1, 21360, Note_on_c, 0, 67, 0
1, 21360, Note_on_c, 0, 70, 80
1, 21401, Note_on_c, 1, 58, 0
1, 21401, Note_on_c, 1, 55, 0
1, 21405, Note_on_c, 0, 70, 0
1, 21408, Note_on_c, 0, 63, 82
1, 21408, Note_on_c, 1, 60, 78
1, 21408, Note_on_c, 1, 48, 78
1, 21453, Note_on_c, 0, 63, 0
1, 21456, Note_on_c, 0, 75, 84
1, 21476, Note_on_c, 0, 75, 0
1, 21497, Note_on_c, 1, 60, 0
1, 21497, Note_on_c, 1, 48, 0
1, 21504, Note_on_c, 0, 67, 86
1, 21504, Note_on_c, 1, 58, 78
1, 21504, Note_on_c, 1, 50, 78
1, 21600, Note_on_c, 0, 67, 0
1, 21600, Note_on_c, 0, 66, 82
1, 21600, Note_on_c, 1, 58, 0
1, 21600, Note_on_c, 1, 57, 78
1, 21645, Note_on_c, 0, 66, 0
1, 21645, Note_on_c, 1, 57, 0
1, 21645, Note_on_c, 1, 50, 0
1, 21648, Note_on_c, 0, 72, 80
1, 21668, Note_on_c, 0, 72, 0
1, 21696, Note_on_c, 0, 69, 78
1, 21744, Note_on_c, 0, 69, 0
1, 21744, Note_on_c, 0, 81, 80
1, 21789, Note_on_c, 0, 81, 0
1, 21792, Note_on_c, 0, 72, 82
1, 21792, Note_on_c, 1, 66, 78
1, 21840, Note_on_c, 0, 72, 0
1, 21840, Note_on_c, 0, 84, 84
1, 21860, Note_on_c, 0, 84, 0
1, 21881, Note_on_c, 1, 66, 0
1, 21888, Note_on_c, 0, 72, 86
1, 21888, Note_on_c, 1, 67, 78
1, 21933, Note_on_c, 1, 67, 0
1, 21936, Note_on_c, 1, 55, 78
1, 21981, Note_on_c, 1, 55, 0
1, 21984, Note_on_c, 0, 72, 0
1, 21984, Note_on_c, 0, 70, 80
1, 22029, Note_on_c, 0, 70, 0
1, 22032, Note_on_c, 1, 58, 78
1, 22052, Note_on_c, 1, 58, 0
1, 22080, Note_on_c, 1, 55, 80
1, 22128, Note_on_c, 1, 55, 0
1, 22128, Note_on_c, 1, 58, 83
1, 22173, Note_on_c, 1, 58, 0
1, 22176, Note_on_c, 0, 70, 78
1, 22176, Note_on_c, 0, 67, 78
1, 22176, Note_on_c, 1, 51, 86
1, 22224, Note_on_c, 1, 51, 0
1, 22224, Note_on_c, 1, 63, 84
1, 22244, Note_on_c, 1, 63, 0
1, 22265, Note_on_c, 0, 70, 0
1, 22265, Note_on_c, 0, 67, 0
1, 22272, Note_on_c, 0, 68, 78
1, 22272, Note_on_c, 0, 65, 78
1, 22272, Note_on_c, 1, 63, 82
1, 22368, Note_on_c, 1, 63, 0
1, 22368, Note_on_c, 1, 62, 78
1, 22413, Note_on_c, 0, 68, 0
1, 22413, Note_on_c, 0, 65, 0
1, 22413, Note_on_c, 1, 62, 0
1, 22416, Note_on_c, 1, 65, 78
1, 22436, Note_on_c, 1, 65, 0
1, 22464, Note_on_c, 1, 62, 80
1, 22512, Note_on_c, 1, 62, 0
1, 22512, Note_on_c, 1, 65, 83
1, 22557, Note_on_c, 1, 65, 0
1, 22560, Note_on_c, 0, 74, 78
1, 22560, Note_on_c, 0, 70, 78
1, 22560, Note_on_c, 1, 58, 86
1, 22608, Note_on_c, 1, 58, 0
1, 22608, Note_on_c, 1, 68, 84
1, 22628, Note_on_c, 1, 68, 0
1, 22649, Note_on_c, 0, 74, 0
1, 22649, Note_on_c, 0, 70, 0
1, 22656, Note_on_c, 0, 75, 78
1, 22656, Note_on_c, 0, 70, 78
1, 22656, Note_on_c, 1, 68, 82
1, 22752, Note_on_c, 1, 68, 0
1, 22752, Note_on_c, 1, 67, 79
1, 22797, Note_on_c, 0, 75, 0
1, 22797, Note_on_c, 0, 70, 0
1, 22797, Note_on_c, 1, 67, 0
1, 22800, Note_on_c, 1, 70, 69
1, 22845, Note_on_c, 1, 70, 0
1, 22848, Note_on_c, 1, 67, 69
1, 22893, Note_on_c, 1, 67, 0
1, 22896, Note_on_c, 1, 70, 69
1, 22941, Note_on_c, 1, 70, 0
1, 22944, Note_on_c, 0, 73, 69
1, 22944, Note_on_c, 1, 65, 70
1, 22989, Note_on_c, 1, 65, 0
1, 22992, Note_on_c, 1, 70, 70
1, 23033, Note_on_c, 0, 73, 0
1, 23037, Note_on_c, 1, 70, 0
1, 23040, Note_on_c, 0, 82, 69
1, 23040, Note_on_c, 1, 64, 71
1, 23085, Note_on_c, 0, 82, 0
1, 23085, Note_on_c, 1, 64, 0
1, 23088, Note_on_c, 0, 72, 70
1, 23088, Note_on_c, 1, 67, 71
1, 23133, Note_on_c, 0, 72, 0
1, 23133, Note_on_c, 1, 67, 0
1, 23136, Note_on_c, 0, 80, 70
1, 23136, Note_on_c, 1, 65, 72
1, 23181, Note_on_c, 0, 80, 0
1, 23181, Note_on_c, 1, 65, 0
1, 23184, Note_on_c, 0, 72, 71
1, 23184, Note_on_c, 1, 68, 72
1, 23229, Note_on_c, 0, 72, 0
1, 23229, Note_on_c, 1, 68, 0
1, 23232, Note_on_c, 0, 80, 71
1, 23232, Note_on_c, 1, 62, 73
1, 23277, Note_on_c, 0, 80, 0
1, 23277, Note_on_c, 1, 62, 0
1, 23280, Note_on_c, 0, 70, 72
1, 23280, Note_on_c, 1, 65, 73
1, 23325, Note_on_c, 0, 70, 0
1, 23325, Note_on_c, 1, 65, 0
1, 23328, Note_on_c, 0, 79, 72
1, 23328, Note_on_c, 1, 63, 73
1, 23373, Note_on_c, 0, 79, 0
1, 23373, Note_on_c, 1, 63, 0
1, 23376, Note_on_c, 0, 70, 73
1, 23376, Note_on_c, 1, 67, 74
1, 23421, Note_on_c, 0, 70, 0
1, 23421, Note_on_c, 1, 67, 0
1, 23424, Note_on_c, 0, 79, 73
1, 23424, Note_on_c, 1, 60, 74
1, 23469, Note_on_c, 0, 79, 0
1, 23469, Note_on_c, 1, 60, 0
1, 23472, Note_on_c, 0, 68, 74
1, 23472, Note_on_c, 1, 63, 75
1, 23517, Note_on_c, 0, 68, 0
1, 23517, Note_on_c, 1, 63, 0
1, 23520, Note_on_c, 0, 77, 74
1, 23520, Note_on_c, 1, 62, 75
1, 23565, Note_on_c, 0, 77, 0
1, 23565, Note_on_c, 1, 62, 0
1, 23568, Note_on_c, 0, 68, 75
1, 23568, Note_on_c, 1, 65, 76
1, 23613, Note_on_c, 0, 68, 0
1, 23613, Note_on_c, 1, 65, 0
1, 23616, Note_on_c, 0, 77, 75
1, 23616, Note_on_c, 1, 59, 76
1, 23661, Note_on_c, 0, 77, 0
1, 23661, Note_on_c, 1, 59, 0
1, 23664, Note_on_c, 0, 67, 76
1, 23664, Note_on_c, 1, 62, 77
1, 23709, Note_on_c, 0, 67, 0
1, 23709, Note_on_c, 1, 62, 0
1, 23712, Note_on_c, 0, 75, 76
1, 23712, Note_on_c, 1, 60, 77
1, 23757, Note_on_c, 0, 75, 0
1, 23757, Note_on_c, 1, 60, 0
1, 23760, Note_on_c, 0, 67, 77
1, 23760, Note_on_c, 1, 63, 77
1, 23805, Note_on_c, 0, 67, 0
1, 23805, Note_on_c, 1, 63, 0
1, 23808, Note_on_c, 0, 75, 77
1, 23808, Note_on_c, 1, 57, 78
1, 23853, Note_on_c, 0, 75, 0
1, 23853, Note_on_c, 1, 57, 0
1, 23856, Note_on_c, 0, 66, 77
1, 23856, Note_on_c, 1, 60, 78
1, 23901, Note_on_c, 0, 66, 0
1, 23901, Note_on_c, 1, 60, 0
1, 23904, Note_on_c, 0, 74, 78
1, 23904, Note_on_c, 1, 58, 79
1, 23949, Note_on_c, 0, 74, 0
1, 23949, Note_on_c, 1, 58, 0
1, 23952, Note_on_c, 0, 67, 78
1, 23952, Note_on_c, 1, 62, 79
1, 23997, Note_on_c, 0, 67, 0
1, 23997, Note_on_c, 1, 62, 0
1, 24000, Note_on_c, 0, 74, 79
1, 24000, Note_on_c, 1, 58, 80
1, 24045, Note_on_c, 0, 74, 0
1, 24045, Note_on_c, 1, 58, 0
1, 24048, Note_on_c, 0, 68, 79
1, 24048, Note_on_c, 1, 62, 80
1, 24093, Note_on_c, 0, 68, 0
1, 24093, Note_on_c, 1, 62, 0
1, 24096, Note_on_c, 0, 74, 80
1, 24096, Note_on_c, 1, 58, 81
1, 24141, Note_on_c, 0, 74, 0
1, 24141, Note_on_c, 1, 58, 0
1, 24144, Note_on_c, 0, 65, 80
1, 24144, Note_on_c, 0, 68, 80
1, 24144, Note_on_c, 1, 62, 81
1, 24189, Note_on_c, 0, 65, 0
1, 24189, Note_on_c, 0, 68, 0
1, 24189, Note_on_c, 1, 62, 0
1, 24192, Note_on_c, 0, 64, 81
1, 24192, Note_on_c, 0, 69, 81
1, 24192, Note_on_c, 1, 61, 81
1, 24237, Note_on_c, 1, 61, 0
1, 24240, Note_on_c, 1, 49, 82
1, 24281, Note_on_c, 0, 64, 0
1, 24281, Note_on_c, 0, 69, 0
1, 24285, Note_on_c, 1, 49, 0
1, 24288, Note_on_c, 0, 74, 82
1, 24288, Note_on_c, 1, 58, 82
1, 24333, Note_on_c, 0, 74, 0
1, 24333, Note_on_c, 1, 58, 0
1, 24336, Note_on_c, 0, 62, 82
1, 24336, Note_on_c, 0, 68, 82
1, 24336, Note_on_c, 1, 46, 83
1, 24381, Note_on_c, 0, 62, 0
1, 24381, Note_on_c, 0, 68, 0
1, 24381, Note_on_c, 1, 46, 0
1, 24384, Note_on_c, 0, 61, 83
1, 24384, Note_on_c, 0, 69, 83
1, 24384, Note_on_c, 1, 57, 83
1, 24429, Note_on_c, 1, 57, 0
1, 24432, Note_on_c, 1, 45, 84
1, 24473, Note_on_c, 0, 61, 0
1, 24473, Note_on_c, 0, 69, 0
1, 24477, Note_on_c, 1, 45, 0
1, 24480, Note_on_c, 0, 74, 84
1, 24480, Note_on_c, 1, 58, 84
1, 24525, Note_on_c, 0, 74, 0
1, 24525, Note_on_c, 1, 58, 0
1, 24528, Note_on_c, 0, 62, 84
1, 24528, Note_on_c, 0, 68, 84
1, 24528, Note_on_c, 1, 46, 85
1, 24573, Note_on_c, 0, 62, 0
1, 24573, Note_on_c, 0, 68, 0
1, 24573, Note_on_c, 1, 46, 0
1, 24576, Note_on_c, 0, 61, 85
1, 24576, Note_on_c, 0, 69, 85
1, 24576, Note_on_c, 1, 57, 85
1, 24621, Note_on_c, 1, 57, 0
1, 24624, Note_on_c, 1, 45, 86
1, 24665, Note_on_c, 0, 61, 0
1, 24665, Note_on_c, 0, 69, 0
1, 24669, Note_on_c, 1, 45, 0
1, 24720, Note_on_c, 0, 76, 86
1, 24743, Note_on_c, 0, 76, 0
1, 24744, Note_on_c, 0, 73, 86
1, 24767, Note_on_c, 0, 73, 0
1, 24768, Note_on_c, 0, 76, 86
1, 24768, Note_on_c, 1, 64, 86
1, 24768, Note_on_c, 1, 61, 86
1, 24768, Note_on_c, 1, 57, 86
1, 24768, Note_on_c, 1, 55, 86
1, 24791, Note_on_c, 0, 76, 0
1, 24792, Note_on_c, 0, 73, 86
1, 24815, Note_on_c, 0, 73, 0
1, 24816, Note_on_c, 0, 79, 86
1, 24839, Note_on_c, 0, 79, 0
1, 24840, Note_on_c, 0, 76, 86
1, 24857, Note_on_c, 1, 64, 0
1, 24857, Note_on_c, 1, 61, 0
1, 24857, Note_on_c, 1, 57, 0
1, 24857, Note_on_c, 1, 55, 0
1, 24863, Note_on_c, 0, 76, 0
1, 24864, Note_on_c, 0, 73, 86
1, 24887, Note_on_c, 0, 73, 0
1, 24888, Note_on_c, 0, 69, 86
1, 24911, Note_on_c, 0, 69, 0
1, 24912, Note_on_c, 0, 76, 86
1, 24935, Note_on_c, 0, 76, 0
1, 24936, Note_on_c, 0, 73, 86
1, 24959, Note_on_c, 0, 73, 0
1, 24960, Note_on_c, 0, 76, 86
1, 24960, Note_on_c, 1, 64, 86
1, 24960, Note_on_c, 1, 61, 86
1, 24960, Note_on_c, 1, 57, 86
1, 24960, Note_on_c, 1, 55, 86
1, 24983, Note_on_c, 0, 76, 0
1, 24984, Note_on_c, 0, 73, 86
1, 25007, Note_on_c, 0, 73, 0
1, 25008, Note_on_c, 0, 79, 86
1, 25031, Note_on_c, 0, 79, 0
1, 25032, Note_on_c, 0, 76, 86
1, 25049, Note_on_c, 1, 64, 0
1, 25049, Note_on_c, 1, 61, 0
1, 25049, Note_on_c, 1, 57, 0
1, 25049, Note_on_c, 1, 55, 0
1, 25055, Note_on_c, 0, 76, 0
1, 25056, Note_on_c, 0, 73, 86
1, 25079, Note_on_c, 0, 73, 0
1, 25080, Note_on_c, 0, 69, 86
1, 25103, Note_on_c, 0, 69, 0
1, 25104, Note_on_c, 0, 81, 86
1, 25127, Note_on_c, 0, 81, 0
1, 25128, Note_on_c, 0, 77, 86
1, 25151, Note_on_c, 0, 77, 0
1, 25152, Note_on_c, 0, 74, 86
1, 25152, Note_on_c, 1, 62, 86
1, 25152, Note_on_c, 1, 53, 86
1, 25175, Note_on_c, 0, 74, 0
1, 25176, Note_on_c, 0, 69, 86
1, 25199, Note_on_c, 0, 69, 0
1, 25200, Note_on_c, 0, 81, 86
1, 25223, Note_on_c, 0, 81, 0
1, 25224, Note_on_c, 0, 79, 86
1, 25241, Note_on_c, 1, 62, 0
1, 25241, Note_on_c, 1, 53, 0
1, 25247, Note_on_c, 0, 79, 0
1, 25248, Note_on_c, 0, 76, 86
1, 25248, Note_on_c, 1, 61, 86
1, 25248, Note_on_c, 1, 55, 86
1, 25271, Note_on_c, 0, 76, 0
1, 25272, Note_on_c, 0, 69, 86
1, 25295, Note_on_c, 0, 69, 0
1, 25296, Note_on_c, 0, 81, 86
1, 25319, Note_on_c, 0, 81, 0
1, 25320, Note_on_c, 0, 77, 86
1, 25337, Note_on_c, 1, 61, 0
1, 25337, Note_on_c, 1, 55, 0
1, 25343, Note_on_c, 0, 77, 0
1, 25344, Note_on_c, 0, 74, 86
1, 25344, Note_on_c, 1, 62, 86
1, 25344, Note_on_c, 1, 53, 86
1, 25367, Note_on_c, 0, 74, 0
1, 25368, Note_on_c, 0, 69, 86
1, 25391, Note_on_c, 0, 69, 0
1, 25392, Note_on_c, 0, 81, 86
1, 25415, Note_on_c, 0, 81, 0
1, 25416, Note_on_c, 0, 79, 86
1, 25433, Note_on_c, 1, 62, 0
1, 25433, Note_on_c, 1, 53, 0
1, 25439, Note_on_c, 0, 79, 0
1, 25440, Note_on_c, 0, 76, 86
1, 25440, Note_on_c, 1, 61, 86
1, 25440, Note_on_c, 1, 55, 86
1, 25463, Note_on_c, 0, 76, 0
1, 25464, Note_on_c, 0, 69, 86
1, 25487, Note_on_c, 0, 69, 0
1, 25488, Note_on_c, 0, 81, 86
1, 25511, Note_on_c, 0, 81, 0
1, 25512, Note_on_c, 0, 77, 86
1, 25529, Note_on_c, 1, 61, 0
1, 25529, Note_on_c, 1, 55, 0
1, 25535, Note_on_c, 0, 77, 0
1, 25536, Note_on_c, 0, 74, 86
1, 25536, Note_on_c, 1, 62, 86
1, 25536, Note_on_c, 1, 53, 86
1, 25559, Note_on_c, 0, 74, 0
1, 25560, Note_on_c, 0, 69, 86
1, 25583, Note_on_c, 0, 69, 0
1, 25584, Note_on_c, 0, 81, 86
1, 25607, Note_on_c, 0, 81, 0
1, 25608, Note_on_c, 0, 79, 86
1, 25625, Note_on_c, 1, 62, 0
1, 25625, Note_on_c, 1, 53, 0
1, 25631, Note_on_c, 0, 79, 0
1, 25632, Note_on_c, 0, 77, 86
1, 25655, Note_on_c, 0, 77, 0
1, 25656, Note_on_c, 0, 76, 86
1, 25679, Note_on_c, 0, 76, 0
1, 25680, Note_on_c, 0, 74, 86
1, 25703, Note_on_c, 0, 74, 0
1, 25704, Note_on_c, 0, 72, 86
1, 25727, Note_on_c, 0, 72, 0
1, 25728, Note_on_c, 0, 70, 86
1, 25751, Note_on_c, 0, 70, 0
1, 25752, Note_on_c, 0, 69, 86
1, 25775, Note_on_c, 0, 69, 0
1, 25776, Note_on_c, 0, 67, 86
1, 25799, Note_on_c, 0, 67, 0
1, 25800, Note_on_c, 0, 65, 86
1, 25823, Note_on_c, 0, 65, 0
1, 25824, Note_on_c, 0, 64, 86
1, 25847, Note_on_c, 0, 64, 0
1, 25848, Note_on_c, 0, 62, 86
1, 25871, Note_on_c, 0, 62, 0
1, 25872, Note_on_c, 0, 61, 86
1, 25895, Note_on_c, 0, 61, 0
1, 25896, Note_on_c, 0, 62, 86
1, 25919, Note_on_c, 0, 62, 0
1, 25920, Note_on_c, 0, 63, 102
1, 25920, Note_on_c, 1, 43, 86
1, 25943, Note_on_c, 1, 43, 0
1, 25944, Note_on_c, 1, 55, 86
1, 25967, Note_on_c, 1, 55, 0
1, 25968, Note_on_c, 1, 54, 86
1, 25991, Note_on_c, 1, 54, 0
1, 25992, Note_on_c, 1, 55, 86
1, 26015, Note_on_c, 1, 55, 0
1, 26016, Note_on_c, 0, 63, 0
1, 26016, Note_on_c, 1, 58, 86
1, 26061, Note_on_c, 1, 58, 0
1, 26064, Note_on_c, 0, 67, 84
1, 26064, Note_on_c, 0, 63, 84
1, 26109, Note_on_c, 0, 67, 0
1, 26109, Note_on_c, 0, 63, 0
1, 26112, Note_on_c, 1, 57, 83
1, 26157, Note_on_c, 1, 57, 0
1, 26160, Note_on_c, 0, 65, 82
1, 26160, Note_on_c, 0, 62, 82
1, 26205, Note_on_c, 0, 65, 0
1, 26205, Note_on_c, 0, 62, 0
1, 26208, Note_on_c, 1, 45, 80
1, 26253, Note_on_c, 1, 45, 0
1, 26256, Note_on_c, 0, 61, 79
1, 26301, Note_on_c, 0, 61, 0
1, 26304, Note_on_c, 0, 62, 78
1, 26352, Note_on_c, 1, 50, 78
1, 26393, Note_on_c, 0, 62, 0
1, 26397, Note_on_c, 1, 50, 0
1, 26400, Note_on_c, 1, 38, 78
1, 26445, Note_on_c, 1, 38, 0
1, 26448, Note_on_c, 0, 69, 78
1, 26468, Note_on_c, 0, 69, 0
1, 26496, Note_on_c, 0, 62, 78
1, 26541, Note_on_c, 0, 62, 0
1, 26544, Note_on_c, 0, 65, 80
1, 26589, Note_on_c, 0, 65, 0
1, 26592, Note_on_c, 0, 58, 82
1, 26637, Note_on_c, 0, 58, 0
1, 26640, Note_on_c, 0, 70, 84
1, 26640, Note_on_c, 1, 55, 81
1, 26660, Note_on_c, 0, 70, 0
1, 26660, Note_on_c, 1, 55, 0
1, 26688, Note_on_c, 0, 64, 86
1, 26688, Note_on_c, 1, 48, 82
1, 26711, Note_on_c, 0, 64, 0
1, 26711, Note_on_c, 1, 48, 0
1, 26712, Note_on_c, 0, 65, 84
1, 26712, Note_on_c, 1, 50, 82
1, 26735, Note_on_c, 0, 65, 0
1, 26735, Note_on_c, 1, 50, 0
1, 26736, Note_on_c, 0, 67, 83
1, 26736, Note_on_c, 1, 52, 83
1, 26759, Note_on_c, 0, 67, 0
1, 26759, Note_on_c, 1, 52, 0
1, 26760, Note_on_c, 0, 64, 82
1, 26760, Note_on_c, 1, 48, 83
1, 26783, Note_on_c, 0, 64, 0
1, 26783, Note_on_c, 1, 48, 0
1, 26784, Note_on_c, 0, 60, 80
1, 26784, Note_on_c, 1, 45, 78
1, 26829, Note_on_c, 0, 60, 0
1, 26829, Note_on_c, 1, 45, 0
1, 26832, Note_on_c, 0, 72, 78
1, 26832, Note_on_c, 1, 57, 78
1, 26852, Note_on_c, 0, 72, 0
1, 26852, Note_on_c, 1, 57, 0
1, 26880, Note_on_c, 0, 65, 78
1, 26880, Note_on_c, 1, 50, 78
1, 26925, Note_on_c, 0, 65, 0
1, 26925, Note_on_c, 1, 50, 0
1, 26928, Note_on_c, 0, 69, 79
1, 26928, Note_on_c, 1, 53, 80
1, 26973, Note_on_c, 0, 69, 0
1, 26973, Note_on_c, 1, 53, 0
1, 26976, Note_on_c, 0, 62, 80
1, 26976, Note_on_c, 1, 46, 82
1, 27021, Note_on_c, 0, 62, 0
1, 27021, Note_on_c, 1, 46, 0
1, 27024, Note_on_c, 0, 74, 81
1, 27024, Note_on_c, 1, 58, 84
1, 27044, Note_on_c, 0, 74, 0
1, 27044, Note_on_c, 1, 58, 0
1, 27072, Note_on_c, 0, 67, 82
1, 27072, Note_on_c, 1, 52, 86
1, 27095, Note_on_c, 0, 67, 0
1, 27095, Note_on_c, 1, 52, 0
1, 27096, Note_on_c, 0, 69, 82
1, 27096, Note_on_c, 1, 53, 85
1, 27119, Note_on_c, 0, 69, 0
1, 27119, Note_on_c, 1, 53, 0
1, 27120, Note_on_c, 0, 70, 83
1, 27120, Note_on_c, 1, 55, 84
1, 27143, Note_on_c, 0, 70, 0
1, 27143, Note_on_c, 1, 55, 0
1, 27144, Note_on_c, 0, 67, 83
1, 27144, Note_on_c, 1, 52, 83
1, 27167, Note_on_c, 0, 67, 0
1, 27167, Note_on_c, 1, 52, 0
1, 27168, Note_on_c, 0, 64, 78
1, 27168, Note_on_c, 1, 48, 82
1, 27213, Note_on_c, 0, 64, 0
1, 27216, Note_on_c, 0, 79, 78
1, 27236, Note_on_c, 0, 79, 0
1, 27257, Note_on_c, 1, 48, 0
1, 27264, Note_on_c, 0, 70, 78
1, 27264, Note_on_c, 1, 60, 64
1, 27312, Note_on_c, 0, 70, 0
1, 27312, Note_on_c, 0, 67, 78
1, 27312, Note_on_c, 1, 64, 78
1, 27357, Note_on_c, 0, 67, 0
1, 27357, Note_on_c, 1, 64, 0
1, 27360, Note_on_c, 0, 69, 78
1, 27360, Note_on_c, 1, 65, 78
1, 27380, Note_on_c, 0, 69, 0
1, 27408, Note_on_c, 0, 81, 78
1, 27428, Note_on_c, 0, 81, 0
1, 27441, Note_on_c, 1, 60, 0
1, 27449, Note_on_c, 1, 65, 0
1, 27456, Note_on_c, 0, 72, 78
1, 27456, Note_on_c, 1, 60, 64
1, 27504, Note_on_c, 0, 72, 0
1, 27504, Note_on_c, 0, 69, 78
1, 27504, Note_on_c, 1, 66, 78
1, 27549, Note_on_c, 0, 69, 0
1, 27549, Note_on_c, 1, 66, 0
1, 27552, Note_on_c, 0, 70, 78
1, 27552, Note_on_c, 1, 67, 78
1, 27572, Note_on_c, 0, 70, 0
1, 27600, Note_on_c, 0, 82, 78
1, 27620, Note_on_c, 0, 82, 0
1, 27641, Note_on_c, 1, 67, 0
1, 27648, Note_on_c, 0, 76, 78
1, 27648, Note_on_c, 1, 70, 78
1, 27693, Note_on_c, 1, 70, 0
1, 27696, Note_on_c, 0, 76, 0
1, 27696, Note_on_c, 0, 77, 78
1, 27696, Note_on_c, 1, 69, 78
1, 27741, Note_on_c, 0, 77, 0
1, 27741, Note_on_c, 1, 69, 0
1, 27744, Note_on_c, 0, 70, 78
1, 27744, Note_on_c, 1, 67, 78
1, 27764, Note_on_c, 0, 70, 0
1, 27789, Note_on_c, 1, 67, 0
1, 27792, Note_on_c, 0, 69, 78
1, 27792, Note_on_c, 1, 65, 78
1, 27812, Note_on_c, 0, 69, 0
1, 27825, Note_on_c, 1, 60, 0
1, 27837, Note_on_c, 1, 65, 0
1, 27840, Note_on_c, 0, 67, 78
1, 27840, Note_on_c, 1, 64, 78
1, 27840, Note_on_c, 1, 60, 78
1, 27929, Note_on_c, 0, 67, 0
1, 27929, Note_on_c, 1, 64, 0
1, 27929, Note_on_c, 1, 60, 0
1, 27984, Note_on_c, 0, 72, 78
1, 28004, Note_on_c, 0, 72, 0
1, 28032, Note_on_c, 0, 65, 78
1, 28032, Note_on_c, 1, 57, 78
1, 28032, Note_on_c, 1, 53, 78
1, 28080, Note_on_c, 0, 65, 0
1, 28080, Note_on_c, 0, 69, 80
1, 28121, Note_on_c, 1, 57, 0
1, 28121, Note_on_c, 1, 53, 0
1, 28125, Note_on_c, 0, 69, 0
1, 28128, Note_on_c, 0, 62, 83
1, 28128, Note_on_c, 1, 58, 78
1, 28128, Note_on_c, 1, 46, 78
1, 28173, Note_on_c, 0, 62, 0
1, 28176, Note_on_c, 0, 74, 86
1, 28196, Note_on_c, 0, 74, 0
1, 28217, Note_on_c, 1, 58, 0
1, 28217, Note_on_c, 1, 46, 0
1, 28224, Note_on_c, 0, 65, 84
1, 28224, Note_on_c, 1, 57, 78
1, 28224, Note_on_c, 1, 48, 78
1, 28320, Note_on_c, 0, 65, 0
1, 28320, Note_on_c, 0, 64, 80
1, 28320, Note_on_c, 1, 57, 0
1, 28320, Note_on_c, 1, 55, 78
1, 28365, Note_on_c, 0, 64, 0
1, 28365, Note_on_c, 1, 55, 0
1, 28365, Note_on_c, 1, 48, 0
1, 28368, Note_on_c, 0, 70, 78
1, 28388, Note_on_c, 0, 70, 0
1, 28416, Note_on_c, 0, 67, 78
1, 28464, Note_on_c, 0, 67, 0
1, 28464, Note_on_c, 0, 76, 80
1, 28509, Note_on_c, 0, 76, 0
1, 28512, Note_on_c, 0, 70, 82
1, 28512, Note_on_c, 1, 64, 78
1, 28512, Note_on_c, 1, 60, 78
1, 28560, Note_on_c, 0, 70, 0
1, 28560, Note_on_c, 0, 79, 84
1, 28580, Note_on_c, 0, 79, 0
1, 28601, Note_on_c, 1, 64, 0
1, 28601, Note_on_c, 1, 60, 0
1, 28608, Note_on_c, 0, 70, 86
1, 28608, Note_on_c, 1, 65, 78
1, 28653, Note_on_c, 1, 65, 0
1, 28656, Note_on_c, 1, 53, 78
1, 28701, Note_on_c, 1, 53, 0
1, 28704, Note_on_c, 0, 70, 0
1, 28704, Note_on_c, 0, 69, 80
1, 28749, Note_on_c, 0, 69, 0
1, 28752, Note_on_c, 0, 72, 78
1, 28772, Note_on_c, 0, 72, 0
1, 28800, Note_on_c, 0, 63, 78
1, 28848, Note_on_c, 0, 63, 0
1, 28848, Note_on_c, 0, 75, 78
1, 28893, Note_on_c, 0, 75, 0
1, 28896, Note_on_c, 0, 65, 78
1, 28896, Note_on_c, 1, 57, 78
1, 28941, Note_on_c, 0, 65, 0
1, 28944, Note_on_c, 0, 72, 78
1, 28964, Note_on_c, 0, 72, 0
1, 28985, Note_on_c, 1, 57, 0
1, 28992, Note_on_c, 0, 73, 78
1, 28992, Note_on_c, 1, 58, 78
1, 29040, Note_on_c, 0, 73, 0
1, 29040, Note_on_c, 0, 74, 78
1, 29081, Note_on_c, 1, 58, 0
1, 29085, Note_on_c, 0, 74, 0
1, 29088, Note_on_c, 0, 67, 78
1, 29133, Note_on_c, 0, 67, 0
1, 29136, Note_on_c, 0, 74, 79
1, 29136, Note_on_c, 1, 59, 79
1, 29156, Note_on_c, 0, 74, 0
1, 29181, Note_on_c, 1, 59, 0
1, 29184, Note_on_c, 0, 75, 79
1, 29184, Note_on_c, 1, 60, 79
1, 29232, Note_on_c, 0, 75, 0
1, 29232, Note_on_c, 0, 76, 80
1, 29273, Note_on_c, 1, 60, 0
1, 29277, Note_on_c, 0, 76, 0
1, 29280, Note_on_c, 0, 69, 80
1, 29325, Note_on_c, 0, 69, 0
1, 29328, Note_on_c, 0, 76, 80
1, 29328, Note_on_c, 1, 61, 80
1, 29348, Note_on_c, 0, 76, 0
1, 29373, Note_on_c, 1, 61, 0
1, 29376, Note_on_c, 0, 79, 81
1, 29376, Note_on_c, 1, 62, 81
1, 29424, Note_on_c, 0, 79, 0
1, 29424, Note_on_c, 0, 77, 81
1, 29465, Note_on_c, 1, 62, 0
1, 29469, Note_on_c, 0, 77, 0
1, 29472, Note_on_c, 0, 70, 82
1, 29517, Note_on_c, 0, 70, 0
1, 29520, Note_on_c, 0, 77, 82
1, 29520, Note_on_c, 1, 62, 82
1, 29540, Note_on_c, 0, 77, 0
1, 29565, Note_on_c, 1, 62, 0
1, 29568, Note_on_c, 0, 78, 82
1, 29568, Note_on_c, 1, 64, 82
1, 29616, Note_on_c, 0, 78, 0
1, 29616, Note_on_c, 0, 79, 83
1, 29657, Note_on_c, 1, 64, 0
1, 29661, Note_on_c, 0, 79, 0
1, 29664, Note_on_c, 0, 72, 83
1, 29709, Note_on_c, 0, 72, 0
1, 29712, Note_on_c, 0, 79, 84
1, 29712, Note_on_c, 1, 64, 84
1, 29757, Note_on_c, 0, 79, 0
1, 29757, Note_on_c, 1, 64, 0
1, 29760, Note_on_c, 0, 80, 84
1, 29760, Note_on_c, 1, 65, 84
1, 29808, Note_on_c, 0, 80, 0
1, 29808, Note_on_c, 0, 81, 84
1, 29849, Note_on_c, 1, 65, 0
1, 29853, Note_on_c, 0, 81, 0
1, 29856, Note_on_c, 0, 77, 85
1, 29856, Note_on_c, 1, 62, 85
1, 29901, Note_on_c, 0, 77, 0
1, 29904, Note_on_c, 0, 83, 85
1, 29945, Note_on_c, 1, 62, 0
1, 29949, Note_on_c, 0, 83, 0
1, 29952, Note_on_c, 0, 76, 86
1, 29952, Note_on_c, 1, 60, 86
1, 29997, Note_on_c, 0, 76, 0
1, 30000, Note_on_c, 0, 84, 86
1, 30020, Note_on_c, 0, 84, 0
1, 30048, Note_on_c, 0, 72, 86
1, 30093, Note_on_c, 0, 72, 0
1, 30096, Note_on_c, 0, 73, 86
1, 30096, Note_on_c, 1, 69, 86
1, 30141, Note_on_c, 0, 73, 0
1, 30141, Note_on_c, 1, 69, 0
1, 30144, Note_on_c, 0, 74, 86
1, 30144, Note_on_c, 1, 70, 86
1, 30192, Note_on_c, 0, 78, 86
1, 30237, Note_on_c, 0, 78, 0
1, 30240, Note_on_c, 0, 79, 86
1, 30252, Note_on_c, 0, 79, 0
1, 30252, Note_on_c, 0, 77, 86
1, 30264, Note_on_c, 0, 77, 0
1, 30264, Note_on_c, 0, 79, 86
1, 30285, Note_on_c, 0, 79, 0
1, 30288, Note_on_c, 0, 82, 86
1, 30308, Note_on_c, 0, 82, 0
1, 30321, Note_on_c, 0, 74, 0
1, 30336, Note_on_c, 0, 76, 86
1, 30336, Note_on_c, 0, 72, 86
1, 30381, Note_on_c, 0, 76, 0
1, 30384, Note_on_c, 0, 79, 86
1, 30425, Note_on_c, 1, 70, 0
1, 30429, Note_on_c, 0, 79, 0
1, 30432, Note_on_c, 0, 77, 86
1, 30432, Note_on_c, 1, 69, 86
1, 30477, Note_on_c, 0, 77, 0
1, 30480, Note_on_c, 0, 84, 86
1, 30500, Note_on_c, 0, 84, 0
1, 30513, Note_on_c, 0, 72, 0
1, 30528, Note_on_c, 0, 74, 86
1, 30528, Note_on_c, 0, 70, 86
1, 30573, Note_on_c, 1, 69, 0
1, 30576, Note_on_c, 1, 66, 86
1, 30621, Note_on_c, 1, 66, 0
1, 30624, Note_on_c, 1, 67, 86
1, 30661, Note_on_c, 0, 74, 0
1, 30661, Note_on_c, 0, 70, 0
1, 30672, Note_on_c, 0, 82, 86
1, 30692, Note_on_c, 0, 82, 0
1, 30720, Note_on_c, 0, 72, 86
1, 30720, Note_on_c, 0, 69, 86
1, 30765, Note_on_c, 0, 72, 0
1, 30768, Note_on_c, 0, 75, 86
1, 30809, Note_on_c, 1, 67, 0
1, 30813, Note_on_c, 0, 75, 0
1, 30816, Note_on_c, 0, 74, 86
1, 30816, Note_on_c, 1, 65, 86
1, 30861, Note_on_c, 0, 74, 0
1, 30864, Note_on_c, 0, 81, 86
1, 30884, Note_on_c, 0, 81, 0
1, 30897, Note_on_c, 0, 69, 0
1, 30912, Note_on_c, 0, 70, 86
1, 30912, Note_on_c, 0, 67, 86
1, 30957, Note_on_c, 0, 70, 0
1, 30960, Note_on_c, 0, 74, 86
1, 31001, Note_on_c, 1, 65, 0
1, 31005, Note_on_c, 0, 74, 0
1, 31008, Note_on_c, 0, 72, 86
1, 31008, Note_on_c, 1, 64, 86
1, 31053, Note_on_c, 0, 72, 0
1, 31056, Note_on_c, 0, 79, 86
1, 31076, Note_on_c, 0, 79, 0
1, 31089, Note_on_c, 0, 67, 0
1, 31104, Note_on_c, 0, 69, 86
1, 31104, Note_on_c, 0, 65, 86
1, 31149, Note_on_c, 0, 69, 0
1, 31152, Note_on_c, 0, 72, 86
1, 31193, Note_on_c, 0, 65, 0
1, 31193, Note_on_c, 1, 64, 0
1, 31197, Note_on_c, 0, 72, 0
1, 31200, Note_on_c, 0, 71, 86
1, 31200, Note_on_c, 0, 71, 86
1, 31200, Note_on_c, 1, 62, 86
1, 31245, Note_on_c, 0, 71, 0
1, 31248, Note_on_c, 0, 77, 86
1, 31268, Note_on_c, 0, 77, 0
1, 31281, Note_on_c, 1, 60, 0
1, 31289, Note_on_c, 0, 71, 0
1, 31289, Note_on_c, 1, 62, 0
1, 31296, Note_on_c, 0, 76, 86
1, 31296, Note_on_c, 0, 72, 86
1, 31296, Note_on_c, 1, 64, 86
1, 31296, Note_on_c, 1, 60, 86
1, 31385, Note_on_c, 0, 72, 0
1, 31385, Note_on_c, 1, 64, 0
1, 31385, Note_on_c, 1, 60, 0
1, 31390, Note_on_c, 0, 76, 0
1, 31440, Note_on_c, 0, 72, 78
1, 31460, Note_on_c, 0, 72, 0
1, 31488, Note_on_c, 0, 65, 78
1, 31533, Note_on_c, 0, 65, 0
1, 31536, Note_on_c, 0, 69, 78
1, 31581, Note_on_c, 0, 69, 0
1, 31584, Note_on_c, 0, 60, 78
1, 31629, Note_on_c, 0, 60, 0
1, 31632, Note_on_c, 0, 65, 78
1, 31632, Note_on_c, 1, 60, 78
1, 31632, Note_on_c, 1, 57, 78
1, 31677, Note_on_c, 0, 65, 0
1, 31677, Note_on_c, 1, 60, 0
1, 31677, Note_on_c, 1, 57, 0
1, 31680, Note_on_c, 0, 64, 78
1, 31680, Note_on_c, 1, 58, 78
1, 31680, Note_on_c, 1, 55, 78
1, 31725, Note_on_c, 0, 64, 0
1, 31725, Note_on_c, 1, 58, 0
1, 31725, Note_on_c, 1, 55, 0
1, 31728, Note_on_c, 0, 65, 78
1, 31728, Note_on_c, 1, 57, 78
1, 31728, Note_on_c, 1, 53, 78
1, 31773, Note_on_c, 0, 65, 0
1, 31773, Note_on_c, 1, 57, 0
1, 31773, Note_on_c, 1, 53, 0
1, 31776, Note_on_c, 0, 67, 78
1, 31776, Note_on_c, 1, 55, 78
1, 31776, Note_on_c, 1, 52, 78
1, 31821, Note_on_c, 0, 67, 0
1, 31821, Note_on_c, 1, 55, 0
1, 31821, Note_on_c, 1, 52, 0
1, 31824, Note_on_c, 0, 72, 78
1, 31844, Note_on_c, 0, 72, 0
1, 31872, Note_on_c, 0, 67, 78
1, 31917, Note_on_c, 0, 67, 0
1, 31920, Note_on_c, 0, 70, 78
1, 31965, Note_on_c, 0, 70, 0
1, 31968, Note_on_c, 0, 60, 78
1, 32013, Note_on_c, 0, 60, 0
1, 32016, Note_on_c, 0, 64, 78
1, 32016, Note_on_c, 1, 60, 78
1, 32016, Note_on_c, 1, 58, 78
1, 32036, Note_on_c, 0, 64, 0
1, 32061, Note_on_c, 1, 60, 0
1, 32061, Note_on_c, 1, 58, 0
1, 32064, Note_on_c, 0, 65, 78
1, 32064, Note_on_c, 1, 60, 78
1, 32064, Note_on_c, 1, 57, 78
1, 32109, Note_on_c, 0, 65, 0
1, 32109, Note_on_c, 1, 60, 0
1, 32109, Note_on_c, 1, 57, 0
1, 32112, Note_on_c, 0, 67, 78
1, 32112, Note_on_c, 1, 58, 78
1, 32112, Note_on_c, 1, 55, 78
1, 32157, Note_on_c, 0, 67, 0
1, 32157, Note_on_c, 1, 58, 0
1, 32157, Note_on_c, 1, 55, 0
1, 32160, Note_on_c, 0, 69, 78
1, 32160, Note_on_c, 1, 57, 78
1, 32160, Note_on_c, 1, 53, 78
1, 32205, Note_on_c, 0, 69, 0
1, 32205, Note_on_c, 1, 57, 0
1, 32205, Note_on_c, 1, 53, 0
1, 32208, Note_on_c, 0, 72, 78
1, 32228, Note_on_c, 0, 72, 0
1, 32256, Note_on_c, 0, 65, 78
1, 32301, Note_on_c, 0, 65, 0
1, 32304, Note_on_c, 0, 72, 78
1, 32304, Note_on_c, 1, 57, 78
1, 32304, Note_on_c, 1, 53, 78
1, 32324, Note_on_c, 0, 72, 0
1, 32349, Note_on_c, 1, 57, 0
1, 32349, Note_on_c, 1, 53, 0
1, 32352, Note_on_c, 0, 65, 78
1, 32352, Note_on_c, 1, 58, 78
1, 32352, Note_on_c, 1, 55, 78
1, 32397, Note_on_c, 0, 65, 0
1, 32397, Note_on_c, 1, 58, 0
1, 32397, Note_on_c, 1, 55, 0
1, 32400, Note_on_c, 0, 63, 78
1, 32400, Note_on_c, 1, 60, 78
1, 32400, Note_on_c, 1, 57, 78
1, 32445, Note_on_c, 0, 63, 0
1, 32445, Note_on_c, 1, 60, 0
1, 32445, Note_on_c, 1, 57, 0
1, 32448, Note_on_c, 0, 63, 78
1, 32448, Note_on_c, 1, 58, 78
1, 32471, Note_on_c, 0, 63, 0
1, 32472, Note_on_c, 0, 62, 78
1, 32495, Note_on_c, 0, 62, 0
1, 32496, Note_on_c, 0, 61, 78
1, 32519, Note_on_c, 0, 61, 0
1, 32520, Note_on_c, 0, 62, 78
1, 32543, Note_on_c, 0, 62, 0
1, 32544, Note_on_c, 0, 64, 78
1, 32567, Note_on_c, 0, 64, 0
1, 32568, Note_on_c, 0, 62, 78
1, 32581, Note_on_c, 1, 58, 0
1, 32591, Note_on_c, 0, 62, 0
1, 32592, Note_on_c, 0, 66, 78
1, 32592, Note_on_c, 1, 57, 78
1, 32615, Note_on_c, 0, 66, 0
1, 32616, Note_on_c, 0, 62, 78
1, 32637, Note_on_c, 1, 57, 0
1, 32639, Note_on_c, 0, 62, 0
1, 32640, Note_on_c, 0, 67, 78
1, 32640, Note_on_c, 1, 58, 78
1, 32663, Note_on_c, 0, 67, 0
1, 32664, Note_on_c, 0, 62, 79
1, 32685, Note_on_c, 1, 58, 0
1, 32687, Note_on_c, 0, 62, 0
1, 32688, Note_on_c, 0, 69, 80
1, 32688, Note_on_c, 1, 54, 80
1, 32711, Note_on_c, 0, 69, 0
1, 32712, Note_on_c, 0, 62, 81
1, 32733, Note_on_c, 1, 54, 0
1, 32735, Note_on_c, 0, 62, 0
1, 32736, Note_on_c, 0, 70, 82
1, 32736, Note_on_c, 1, 55, 82
1, 32759, Note_on_c, 0, 70, 0
1, 32760, Note_on_c, 0, 62, 83
1, 32781, Note_on_c, 1, 55, 0
1, 32783, Note_on_c, 0, 62, 0
1, 32784, Note_on_c, 0, 72, 84
1, 32784, Note_on_c, 1, 57, 84
1, 32807, Note_on_c, 0, 72, 0
1, 32808, Note_on_c, 0, 62, 86
1, 32829, Note_on_c, 1, 57, 0
1, 32831, Note_on_c, 0, 62, 0
1, 32832, Note_on_c, 0, 74, 101
1, 32832, Note_on_c, 1, 58, 86
1, 32921, Note_on_c, 1, 58, 0
1, 32928, Note_on_c, 0, 74, 0
1, 32928, Note_on_c, 0, 72, 81
1, 32951, Note_on_c, 0, 72, 0
1, 32952, Note_on_c, 0, 70, 80
1, 32975, Note_on_c, 0, 70, 0
1, 32976, Note_on_c, 0, 69, 79
1, 32999, Note_on_c, 0, 69, 0
1, 33000, Note_on_c, 0, 67, 78
1, 33023, Note_on_c, 0, 67, 0
1, 33024, Note_on_c, 0, 65, 78
1, 33072, Note_on_c, 1, 62, 78
1, 33072, Note_on_c, 1, 59, 78
1, 33117, Note_on_c, 1, 62, 0
1, 33117, Note_on_c, 1, 59, 0
1, 33120, Note_on_c, 1, 60, 78
1, 33157, Note_on_c, 0, 65, 0
1, 33165, Note_on_c, 1, 60, 0
1, 33168, Note_on_c, 0, 69, 78
1, 33168, Note_on_c, 1, 48, 78
1, 33186, Note_on_c, 0, 69, 0
1, 33186, Note_on_c, 0, 67, 78
1, 33213, Note_on_c, 0, 67, 0
1, 33213, Note_on_c, 1, 48, 0
1, 33216, Note_on_c, 0, 65, 78
1, 33216, Note_on_c, 1, 53, 78
1, 33261, Note_on_c, 1, 53, 0
1, 33264, Note_on_c, 1, 41, 78
1, 33305, Note_on_c, 0, 65, 0
1, 33309, Note_on_c, 1, 41, 0
1, 33360, Note_on_c, 0, 79, 86
1, 33383, Note_on_c, 0, 79, 0
1, 33384, Note_on_c, 0, 76, 86
1, 33407, Note_on_c, 0, 76, 0
1, 33408, Note_on_c, 0, 79, 86
1, 33408, Note_on_c, 1, 67, 78
1, 33408, Note_on_c, 1, 64, 78
1, 33408, Note_on_c, 1, 60, 78
1, 33431, Note_on_c, 0, 79, 0
1, 33432, Note_on_c, 0, 76, 86
1, 33455, Note_on_c, 0, 76, 0
1, 33456, Note_on_c, 0, 82, 86
1, 33479, Note_on_c, 0, 82, 0
1, 33480, Note_on_c, 0, 79, 86
1, 33497, Note_on_c, 1, 67, 0
1, 33497, Note_on_c, 1, 64, 0
1, 33497, Note_on_c, 1, 60, 0
1, 33503, Note_on_c, 0, 79, 0
1, 33504, Note_on_c, 0, 76, 86
1, 33527, Note_on_c, 0, 76, 0
1, 33528, Note_on_c, 0, 72, 86
1, 33551, Note_on_c, 0, 72, 0
1, 33552, Note_on_c, 0, 79, 86
1, 33575, Note_on_c, 0, 79, 0
1, 33576, Note_on_c, 0, 76, 86
1, 33599, Note_on_c, 0, 76, 0
1, 33600, Note_on_c, 0, 79, 86
1, 33600, Note_on_c, 1, 67, 78
1, 33600, Note_on_c, 1, 64, 78
1, 33600, Note_on_c, 1, 60, 78
1, 33623, Note_on_c, 0, 79, 0
1, 33624, Note_on_c, 0, 76, 86
1, 33647, Note_on_c, 0, 76, 0
1, 33648, Note_on_c, 0, 82, 86
1, 33671, Note_on_c, 0, 82, 0
1, 33672, Note_on_c, 0, 79, 86
1, 33689, Note_on_c, 1, 67, 0
1, 33689, Note_on_c, 1, 64, 0
1, 33689, Note_on_c, 1, 60, 0
1, 33695, Note_on_c, 0, 79, 0
1, 33696, Note_on_c, 0, 76, 86
1, 33719, Note_on_c, 0, 76, 0
1, 33720, Note_on_c, 0, 72, 86
1, 33743, Note_on_c, 0, 72, 0
1, 33744, Note_on_c, 0, 79, 86
1, 33767, Note_on_c, 0, 79, 0
1, 33768, Note_on_c, 0, 76, 86
1, 33791, Note_on_c, 0, 76, 0
1, 33792, Note_on_c, 0, 79, 86
1, 33792, Note_on_c, 1, 67, 78
1, 33792, Note_on_c, 1, 64, 78
1, 33792, Note_on_c, 1, 60, 78
1, 33815, Note_on_c, 0, 79, 0
1, 33816, Note_on_c, 0, 76, 86
1, 33839, Note_on_c, 0, 76, 0
1, 33840, Note_on_c, 0, 82, 86
1, 33863, Note_on_c, 0, 82, 0
1, 33864, Note_on_c, 0, 79, 86
1, 33881, Note_on_c, 1, 67, 0
1, 33881, Note_on_c, 1, 64, 0
1, 33881, Note_on_c, 1, 60, 0
1, 33887, Note_on_c, 0, 79, 0
1, 33888, Note_on_c, 0, 76, 86
1, 33911, Note_on_c, 0, 76, 0
1, 33912, Note_on_c, 0, 72, 86
1, 33935, Note_on_c, 0, 72, 0
1, 33936, Note_on_c, 0, 79, 86
1, 33959, Note_on_c, 0, 79, 0
1, 33960, Note_on_c, 0, 76, 86
1, 33983, Note_on_c, 0, 76, 0
1, 33984, Note_on_c, 0, 72, 86
1, 34007, Note_on_c, 0, 72, 0
1, 34008, Note_on_c, 0, 70, 86
1, 34031, Note_on_c, 0, 70, 0
1, 34032, Note_on_c, 0, 76, 86
1, 34055, Note_on_c, 0, 76, 0
1, 34056, Note_on_c, 0, 72, 86
1, 34079, Note_on_c, 0, 72, 0
1, 34080, Note_on_c, 0, 70, 86
1, 34103, Note_on_c, 0, 70, 0
1, 34104, Note_on_c, 0, 67, 86
1, 34127, Note_on_c, 0, 67, 0
1, 34128, Note_on_c, 0, 70, 86
1, 34151, Note_on_c, 0, 70, 0
1, 34152, Note_on_c, 0, 67, 86
1, 34175, Note_on_c, 0, 67, 0
1, 34176, Note_on_c, 0, 64, 86
1, 34221, Note_on_c, 0, 64, 0
1, 34320, Note_on_c, 0, 84, 78
1, 34340, Note_on_c, 0, 84, 0
1, 34368, Note_on_c, 0, 77, 78
1, 34368, Note_on_c, 1, 62, 78
1, 34388, Note_on_c, 0, 77, 0
1, 34388, Note_on_c, 1, 62, 0
1, 34416, Note_on_c, 0, 81, 80
1, 34416, Note_on_c, 1, 65, 78
1, 34436, Note_on_c, 0, 81, 0
1, 34436, Note_on_c, 1, 65, 0
1, 34464, Note_on_c, 0, 74, 83
1, 34464, Note_on_c, 1, 58, 78
1, 34484, Note_on_c, 0, 74, 0
1, 34484, Note_on_c, 1, 58, 0
1, 34512, Note_on_c, 0, 86, 86
1, 34512, Note_on_c, 1, 70, 78
1, 34532, Note_on_c, 0, 86, 0
1, 34532, Note_on_c, 1, 70, 0
1, 34560, Note_on_c, 0, 77, 84
1, 34560, Note_on_c, 1, 69, 78
1, 34560, Note_on_c, 1, 60, 86
1, 34656, Note_on_c, 0, 77, 0
1, 34656, Note_on_c, 0, 76, 80
1, 34656, Note_on_c, 1, 69, 0
1, 34656, Note_on_c, 1, 67, 78
1, 34701, Note_on_c, 0, 76, 0
1, 34704, Note_on_c, 0, 84, 78
1, 34724, Note_on_c, 0, 84, 0
1, 34737, Note_on_c, 1, 60, 0
1, 34745, Note_on_c, 1, 67, 0
1, 34752, Note_on_c, 0, 77, 78
1, 34752, Note_on_c, 1, 62, 78
1, 34800, Note_on_c, 0, 77, 0
1, 34800, Note_on_c, 0, 81, 80
1, 34800, Note_on_c, 1, 62, 0
1, 34800, Note_on_c, 1, 65, 78
1, 34845, Note_on_c, 0, 81, 0
1, 34845, Note_on_c, 1, 65, 0
1, 34848, Note_on_c, 0, 74, 83
1, 34848, Note_on_c, 1, 58, 78
1, 34896, Note_on_c, 0, 74, 0
1, 34896, Note_on_c, 0, 86, 86
1, 34896, Note_on_c, 1, 58, 0
1, 34896, Note_on_c, 1, 70, 78
1, 34941, Note_on_c, 0, 86, 0
1, 34941, Note_on_c, 1, 70, 0
1, 34944, Note_on_c, 0, 77, 84
1, 34944, Note_on_c, 1, 69, 78
1, 34944, Note_on_c, 1, 60, 86
1, 35040, Note_on_c, 0, 77, 0
1, 35040, Note_on_c, 0, 76, 80
1, 35040, Note_on_c, 1, 69, 0
1, 35040, Note_on_c, 1, 67, 78
1, 35077, Note_on_c, 1, 60, 0
1, 35085, Note_on_c, 0, 76, 0
1, 35088, Note_on_c, 0, 84, 78
1, 35088, Note_on_c, 1, 58, 86
1, 35108, Note_on_c, 0, 84, 0
1, 35129, Note_on_c, 1, 67, 0
1, 35133, Note_on_c, 1, 58, 0
1, 35136, Note_on_c, 0, 75, 78
1, 35136, Note_on_c, 1, 66, 78
1, 35136, Note_on_c, 1, 57, 86
1, 35225, Note_on_c, 1, 57, 0
1, 35232, Note_on_c, 0, 75, 0
1, 35232, Note_on_c, 0, 74, 78
1, 35232, Note_on_c, 1, 66, 0
1, 35232, Note_on_c, 1, 67, 78
1, 35232, Note_on_c, 1, 58, 86
1, 35277, Note_on_c, 0, 74, 0
1, 35280, Note_on_c, 0, 82, 78
1, 35300, Note_on_c, 0, 82, 0
1, 35321, Note_on_c, 1, 67, 0
1, 35321, Note_on_c, 1, 58, 0
1, 35328, Note_on_c, 0, 73, 78
1, 35328, Note_on_c, 1, 70, 78
1, 35328, Note_on_c, 1, 64, 86
1, 35424, Note_on_c, 0, 73, 0
1, 35424, Note_on_c, 0, 72, 78
1, 35424, Note_on_c, 1, 70, 0
1, 35424, Note_on_c, 1, 69, 78
1, 35424, Note_on_c, 1, 64, 0
1, 35424, Note_on_c, 1, 65, 86
1, 35469, Note_on_c, 0, 72, 0
1, 35472, Note_on_c, 0, 77, 78
1, 35492, Note_on_c, 0, 77, 0
1, 35513, Note_on_c, 1, 69, 0
1, 35513, Note_on_c, 1, 65, 0
1, 35520, Note_on_c, 0, 67, 78
1, 35520, Note_on_c, 1, 58, 78
1, 35565, Note_on_c, 0, 67, 0
1, 35568, Note_on_c, 0, 74, 82
1, 35568, Note_on_c, 0, 70, 82
1, 35609, Note_on_c, 1, 58, 0
1, 35613, Note_on_c, 0, 74, 0
1, 35613, Note_on_c, 0, 70, 0
1, 35616, Note_on_c, 0, 72, 86
1, 35616, Note_on_c, 0, 69, 86
1, 35616, Note_on_c, 1, 60, 78
1, 35616, Note_on_c, 1, 48, 78
1, 35661, Note_on_c, 0, 72, 0
1, 35661, Note_on_c, 0, 69, 0
1, 35664, Note_on_c, 0, 64, 82
1, 35705, Note_on_c, 1, 60, 0
1, 35705, Note_on_c, 1, 48, 0
1, 35709, Note_on_c, 0, 64, 0
1, 35712, Note_on_c, 0, 65, 78
1, 35712, Note_on_c, 1, 53, 78
1, 35712, Note_on_c, 1, 41, 78
1, 35801, Note_on_c, 0, 65, 0
1, 35801, Note_on_c, 1, 53, 0
1, 35801, Note_on_c, 1, 41, 0
1, 35856, Note_on_c, 0, 84, 78
1, 35876, Note_on_c, 0, 84, 0
1, 35904, Note_on_c, 0, 77, 78
1, 35904, Note_on_c, 1, 62, 78
1, 35952, Note_on_c, 0, 77, 0
1, 35952, Note_on_c, 0, 81, 80
1, 35952, Note_on_c, 1, 62, 0
1, 35952, Note_on_c, 1, 65, 78
1, 35962, Note_on_c, 0, 81, 0
1, 35962, Note_on_c, 1, 65, 0
1, 36000, Note_on_c, 0, 74, 83
1, 36000, Note_on_c, 1, 58, 78
1, 36048, Note_on_c, 0, 74, 0
1, 36048, Note_on_c, 0, 86, 86
1, 36048, Note_on_c, 1, 58, 0
1, 36048, Note_on_c, 1, 70, 78
1, 36058, Note_on_c, 0, 86, 0
1, 36058, Note_on_c, 1, 70, 0
1, 36096, Note_on_c, 0, 77, 84
1, 36096, Note_on_c, 1, 69, 78
1, 36096, Note_on_c, 1, 60, 86
1, 36192, Note_on_c, 0, 77, 0
1, 36192, Note_on_c, 0, 76, 80
1, 36192, Note_on_c, 1, 69, 0
1, 36192, Note_on_c, 1, 67, 78
1, 36237, Note_on_c, 0, 76, 0
1, 36237, Note_on_c, 1, 67, 0
1, 36237, Note_on_c, 1, 60, 0
1, 36240, Note_on_c, 0, 84, 78
1, 36260, Note_on_c, 0, 84, 0
1, 36288, Note_on_c, 0, 77, 78
1, 36288, Note_on_c, 1, 62, 78
1, 36311, Note_on_c, 0, 77, 0
1, 36311, Note_on_c, 1, 62, 0
1, 36312, Note_on_c, 0, 79, 80
1, 36312, Note_on_c, 1, 64, 78
1, 36335, Note_on_c, 0, 79, 0
1, 36335, Note_on_c, 1, 64, 0
1, 36336, Note_on_c, 0, 81, 82
1, 36336, Note_on_c, 1, 65, 78
1, 36359, Note_on_c, 0, 81, 0
1, 36359, Note_on_c, 1, 65, 0
1, 36360, Note_on_c, 0, 77, 84
1, 36360, Note_on_c, 1, 62, 78
1, 36383, Note_on_c, 0, 77, 0
1, 36383, Note_on_c, 1, 62, 0
1, 36384, Note_on_c, 0, 74, 86
1, 36384, Note_on_c, 1, 58, 78
1, 36429, Note_on_c, 0, 74, 0
1, 36429, Note_on_c, 1, 58, 0
1, 36432, Note_on_c, 0, 86, 84
1, 36432, Note_on_c, 1, 70, 78
1, 36452, Note_on_c, 0, 86, 0
1, 36452, Note_on_c, 1, 70, 0
1, 36480, Note_on_c, 0, 77, 82
1, 36480, Note_on_c, 1, 69, 78
1, 36480, Note_on_c, 1, 60, 86
1, 36576, Note_on_c, 0, 77, 0
1, 36576, Note_on_c, 0, 76, 79
1, 36576, Note_on_c, 1, 69, 0
1, 36576, Note_on_c, 1, 67, 78
1, 36621, Note_on_c, 0, 76, 0
1, 36621, Note_on_c, 1, 67, 0
1, 36621, Note_on_c, 1, 60, 0
1, 36624, Note_on_c, 0, 84, 78
1, 36624, Note_on_c, 1, 69, 78
1, 36644, Note_on_c, 0, 84, 0
1, 36647, Note_on_c, 1, 69, 0
1, 36648, Note_on_c, 1, 70, 78
1, 36671, Note_on_c, 1, 70, 0
1, 36672, Note_on_c, 0, 75, 78
1, 36672, Note_on_c, 1, 72, 78
1, 36672, Note_on_c, 1, 66, 86
1, 36768, Note_on_c, 0, 75, 0
1, 36768, Note_on_c, 0, 74, 78
1, 36768, Note_on_c, 1, 72, 0
1, 36768, Note_on_c, 1, 70, 78
1, 36768, Note_on_c, 1, 66, 0
1, 36768, Note_on_c, 1, 67, 86
1, 36813, Note_on_c, 0, 74, 0
1, 36816, Note_on_c, 0, 82, 78
1, 36836, Note_on_c, 0, 82, 0
1, 36857, Note_on_c, 1, 70, 0
1, 36857, Note_on_c, 1, 67, 0
1, 36864, Note_on_c, 0, 73, 78
1, 36864, Note_on_c, 1, 70, 78
1, 36864, Note_on_c, 1, 64, 86
1, 36960, Note_on_c, 0, 73, 0
1, 36960, Note_on_c, 0, 72, 78
1, 36960, Note_on_c, 1, 70, 0
1, 36960, Note_on_c, 1, 69, 78
1, 36960, Note_on_c, 1, 64, 0
1, 36960, Note_on_c, 1, 65, 86
1, 37005, Note_on_c, 0, 72, 0
1, 37008, Note_on_c, 0, 77, 78
1, 37028, Note_on_c, 0, 77, 0
1, 37049, Note_on_c, 1, 69, 0
1, 37049, Note_on_c, 1, 65, 0
1, 37056, Note_on_c, 0, 67, 78
1, 37056, Note_on_c, 1, 58, 78
1, 37101, Note_on_c, 0, 67, 0
1, 37104, Note_on_c, 0, 74, 82
1, 37104, Note_on_c, 0, 70, 82
1, 37145, Note_on_c, 1, 58, 0
1, 37149, Note_on_c, 0, 74, 0
1, 37149, Note_on_c, 0, 70, 0
1, 37152, Note_on_c, 0, 72, 86
1, 37152, Note_on_c, 0, 69, 86
1, 37152, Note_on_c, 1, 60, 78
1, 37152, Note_on_c, 1, 48, 78
1, 37197, Note_on_c, 0, 72, 0
1, 37197, Note_on_c, 0, 69, 0
1, 37200, Note_on_c, 0, 64, 82
1, 37241, Note_on_c, 1, 60, 0
1, 37241, Note_on_c, 1, 48, 0
1, 37245, Note_on_c, 0, 64, 0
1, 37248, Note_on_c, 0, 65, 78
1, 37296, Note_on_c, 1, 41, 78
1, 37337, Note_on_c, 0, 65, 0
1, 37341, Note_on_c, 1, 41, 0
1, 37344, Note_on_c, 1, 53, 78
1, 37389, Note_on_c, 1, 53, 0
1, 37392, Note_on_c, 0, 62, 78
1, 37392, Note_on_c, 0, 58, 78
1, 37440, Note_on_c, 0, 62, 0
1, 37440, Note_on_c, 0, 58, 0
1, 37440, Note_on_c, 0, 60, 76
1, 37440, Note_on_c, 0, 57, 76
1, 37460, Note_on_c, 0, 60, 0
1, 37460, Note_on_c, 0, 57, 0
1, 37488, Note_on_c, 1, 41, 78
1, 37533, Note_on_c, 1, 41, 0
1, 37536, Note_on_c, 1, 53, 78
1, 37581, Note_on_c, 1, 53, 0
1, 37584, Note_on_c, 0, 70, 72
1, 37584, Note_on_c, 0, 64, 72
1, 37632, Note_on_c, 0, 70, 0
1, 37632, Note_on_c, 0, 64, 0
1, 37632, Note_on_c, 0, 69, 71
1, 37632, Note_on_c, 0, 65, 71
1, 37652, Note_on_c, 0, 69, 0
1, 37652, Note_on_c, 0, 65, 0
1, 37680, Note_on_c, 1, 41, 78
1, 37725, Note_on_c, 1, 41, 0
1, 37728, Note_on_c, 1, 53, 78
1, 37773, Note_on_c, 1, 53, 0
1, 37776, Note_on_c, 0, 74, 67
1, 37776, Note_on_c, 0, 70, 67
1, 37824, Note_on_c, 0, 74, 0
1, 37824, Note_on_c, 0, 70, 0
1, 37824, Note_on_c, 0, 72, 66
1, 37824, Note_on_c, 0, 69, 66
1, 37844, Note_on_c, 0, 72, 0
1, 37844, Note_on_c, 0, 69, 0
1, 37872, Note_on_c, 1, 41, 78
1, 37917, Note_on_c, 1, 41, 0
1, 37920, Note_on_c, 1, 53, 78
1, 37965, Note_on_c, 1, 53, 0
1, 37968, Note_on_c, 0, 82, 62
1, 37968, Note_on_c, 0, 76, 62
1, 38016, Note_on_c, 0, 82, 0
1, 38016, Note_on_c, 0, 76, 0
1, 38016, Note_on_c, 0, 81, 61
1, 38016, Note_on_c, 0, 77, 61
1, 38036, Note_on_c, 0, 81, 0
1, 38036, Note_on_c, 0, 77, 0
1, 38160, Note_on_c, 0, 72, 86
1, 38183, Note_on_c, 0, 72, 0
1, 38184, Note_on_c, 0, 69, 86
1, 38207, Note_on_c, 0, 69, 0
1, 38208, Note_on_c, 0, 72, 86
1, 38208, Note_on_c, 1, 60, 86
1, 38208, Note_on_c, 1, 57, 86
1, 38208, Note_on_c, 1, 54, 86
1, 38231, Note_on_c, 0, 72, 0
1, 38232, Note_on_c, 0, 69, 86
1, 38255, Note_on_c, 0, 69, 0
1, 38256, Note_on_c, 0, 75, 86
1, 38279, Note_on_c, 0, 75, 0
1, 38280, Note_on_c, 0, 72, 86
1, 38297, Note_on_c, 1, 60, 0
1, 38297, Note_on_c, 1, 57, 0
1, 38297, Note_on_c, 1, 54, 0
1, 38303, Note_on_c, 0, 72, 0
1, 38304, Note_on_c, 0, 69, 86
1, 38327, Note_on_c, 0, 69, 0
1, 38328, Note_on_c, 0, 78, 86
1, 38351, Note_on_c, 0, 78, 0
1, 38352, Note_on_c, 0, 75, 86
1, 38375, Note_on_c, 0, 75, 0
1, 38376, Note_on_c, 0, 72, 86
1, 38399, Note_on_c, 0, 72, 0
1, 38400, Note_on_c, 0, 69, 86
1, 38423, Note_on_c, 0, 69, 0
1, 38424, Note_on_c, 0, 81, 86
1, 38447, Note_on_c, 0, 81, 0
1, 38448, Note_on_c, 0, 78, 86
1, 38471, Note_on_c, 0, 78, 0
1, 38472, Note_on_c, 0, 75, 86
1, 38495, Note_on_c, 0, 75, 0
1, 38496, Note_on_c, 0, 72, 86
1, 38519, Note_on_c, 0, 72, 0
1, 38520, Note_on_c, 0, 84, 86
1, 38543, Note_on_c, 0, 84, 0
1, 38544, Note_on_c, 0, 81, 86
1, 38567, Note_on_c, 0, 81, 0
1, 38568, Note_on_c, 0, 78, 86
1, 38591, Note_on_c, 0, 78, 0
1, 38592, Note_on_c, 0, 75, 86
1, 38631, Note_on_c, 0, 75, 0
1, 38640, Note_on_c, 1, 72, 86
1, 38640, Note_on_c, 1, 69, 86
1, 38640, Note_on_c, 1, 66, 86
1, 38685, Note_on_c, 1, 72, 0
1, 38685, Note_on_c, 1, 69, 0
1, 38685, Note_on_c, 1, 66, 0
1, 38688, Note_on_c, 1, 72, 86
1, 38688, Note_on_c, 1, 69, 86
1, 38688, Note_on_c, 1, 66, 86
1, 38712, Note_on_c, 0, 84, 86
1, 38733, Note_on_c, 1, 72, 0
1, 38733, Note_on_c, 1, 69, 0
1, 38733, Note_on_c, 1, 66, 0
1, 38735, Note_on_c, 0, 84, 0
1, 38736, Note_on_c, 0, 81, 86
1, 38759, Note_on_c, 0, 81, 0
1, 38760, Note_on_c, 0, 78, 86
1, 38783, Note_on_c, 0, 78, 0
1, 38784, Note_on_c, 0, 74, 86
1, 38823, Note_on_c, 0, 74, 0
1, 38832, Note_on_c, 1, 72, 86
1, 38832, Note_on_c, 1, 69, 86
1, 38832, Note_on_c, 1, 66, 86
1, 38877, Note_on_c, 1, 72, 0
1, 38877, Note_on_c, 1, 69, 0
1, 38877, Note_on_c, 1, 66, 0
1, 38880, Note_on_c, 1, 72, 86
1, 38880, Note_on_c, 1, 69, 86
1, 38880, Note_on_c, 1, 66, 86
1, 38904, Note_on_c, 0, 84, 86
1, 38925, Note_on_c, 1, 72, 0
1, 38925, Note_on_c, 1, 69, 0
1, 38925, Note_on_c, 1, 66, 0
1, 38927, Note_on_c, 0, 84, 0
1, 38928, Note_on_c, 0, 81, 86
1, 38951, Note_on_c, 0, 81, 0
1, 38952, Note_on_c, 0, 78, 86
1, 38975, Note_on_c, 0, 78, 0
1, 38976, Note_on_c, 0, 75, 86
1, 39015, Note_on_c, 0, 75, 0
1, 39024, Note_on_c, 1, 72, 86
1, 39024, Note_on_c, 1, 69, 86
1, 39024, Note_on_c, 1, 66, 86
1, 39069, Note_on_c, 1, 72, 0
1, 39069, Note_on_c, 1, 69, 0
1, 39069, Note_on_c, 1, 66, 0
1, 39072, Note_on_c, 1, 72, 86
1, 39072, Note_on_c, 1, 69, 86
1, 39072, Note_on_c, 1, 66, 86
1, 39096, Note_on_c, 0, 84, 86
1, 39117, Note_on_c, 1, 72, 0
1, 39117, Note_on_c, 1, 69, 0
1, 39117, Note_on_c, 1, 66, 0
1, 39119, Note_on_c, 0, 84, 0
1, 39120, Note_on_c, 0, 81, 86
1, 39143, Note_on_c, 0, 81, 0
1, 39144, Note_on_c, 0, 78, 86
1, 39167, Note_on_c, 0, 78, 0
1, 39168, Note_on_c, 0, 74, 86
1, 39207, Note_on_c, 0, 74, 0
1, 39312, Note_on_c, 0, 74, 78
1, 39332, Note_on_c, 0, 74, 0
1, 39360, Note_on_c, 0, 67, 78
1, 39360, Note_on_c, 1, 58, 78
1, 39360, Note_on_c, 1, 55, 78
1, 39408, Note_on_c, 0, 67, 0
1, 39408, Note_on_c, 0, 70, 80
1, 39449, Note_on_c, 1, 58, 0
1, 39449, Note_on_c, 1, 55, 0
1, 39453, Note_on_c, 0, 70, 0
1, 39456, Note_on_c, 0, 63, 82
1, 39456, Note_on_c, 1, 60, 78
1, 39456, Note_on_c, 1, 48, 78
1, 39501, Note_on_c, 0, 63, 0
1, 39504, Note_on_c, 0, 75, 84
1, 39524, Note_on_c, 0, 75, 0
1, 39545, Note_on_c, 1, 60, 0
1, 39545, Note_on_c, 1, 48, 0
1, 39552, Note_on_c, 0, 67, 86
1, 39552, Note_on_c, 1, 58, 78
1, 39552, Note_on_c, 1, 50, 78
1, 39648, Note_on_c, 0, 67, 0
1, 39648, Note_on_c, 0, 66, 82
1, 39648, Note_on_c, 1, 58, 0
1, 39648, Note_on_c, 1, 57, 78
1, 39693, Note_on_c, 0, 66, 0
1, 39693, Note_on_c, 1, 57, 0
1, 39693, Note_on_c, 1, 50, 0
1, 39696, Note_on_c, 0, 72, 80
1, 39716, Note_on_c, 0, 72, 0
1, 39744, Note_on_c, 0, 69, 78
1, 39792, Note_on_c, 0, 69, 0
1, 39792, Note_on_c, 0, 81, 80
1, 39837, Note_on_c, 0, 81, 0
1, 39840, Note_on_c, 0, 72, 82
1, 39840, Note_on_c, 1, 66, 78
1, 39888, Note_on_c, 0, 72, 0
1, 39888, Note_on_c, 0, 84, 84
1, 39908, Note_on_c, 0, 84, 0
1, 39929, Note_on_c, 1, 66, 0
1, 39936, Note_on_c, 0, 72, 86
1, 39936, Note_on_c, 1, 67, 78
1, 39981, Note_on_c, 1, 67, 0
1, 39984, Note_on_c, 1, 55, 78
1, 40029, Note_on_c, 1, 55, 0
1, 40032, Note_on_c, 0, 72, 0
1, 40032, Note_on_c, 0, 70, 80
1, 40077, Note_on_c, 0, 70, 0
1, 40080, Note_on_c, 1, 58, 78
1, 40100, Note_on_c, 1, 58, 0
1, 40128, Note_on_c, 1, 55, 80
1, 40176, Note_on_c, 1, 55, 0
1, 40176, Note_on_c, 1, 58, 83
1, 40221, Note_on_c, 1, 58, 0
1, 40224, Note_on_c, 0, 70, 78
1, 40224, Note_on_c, 0, 67, 78
1, 40224, Note_on_c, 1, 51, 86
1, 40272, Note_on_c, 1, 51, 0
1, 40272, Note_on_c, 1, 63, 84
1, 40292, Note_on_c, 1, 63, 0
1, 40313, Note_on_c, 0, 70, 0
1, 40313, Note_on_c, 0, 67, 0
1, 40320, Note_on_c, 0, 68, 78
1, 40320, Note_on_c, 0, 65, 78
1, 40320, Note_on_c, 1, 63, 82
1, 40416, Note_on_c, 1, 63, 0
1, 40416, Note_on_c, 1, 62, 78
1, 40461, Note_on_c, 0, 68, 0
1, 40461, Note_on_c, 0, 65, 0
1, 40461, Note_on_c, 1, 62, 0
1, 40464, Note_on_c, 1, 65, 78
1, 40484, Note_on_c, 1, 65, 0
1, 40512, Note_on_c, 1, 62, 80
1, 40560, Note_on_c, 1, 62, 0
1, 40560, Note_on_c, 1, 65, 83
1, 40605, Note_on_c, 1, 65, 0
1, 40608, Note_on_c, 0, 74, 78
1, 40608, Note_on_c, 0, 70, 78
1, 40608, Note_on_c, 1, 58, 86
1, 40656, Note_on_c, 1, 58, 0
1, 40656, Note_on_c, 1, 68, 84
1, 40676, Note_on_c, 1, 68, 0
1, 40697, Note_on_c, 0, 74, 0
1, 40697, Note_on_c, 0, 70, 0
1, 40704, Note_on_c, 0, 75, 78
1, 40704, Note_on_c, 0, 70, 78
1, 40704, Note_on_c, 1, 68, 82
1, 40800, Note_on_c, 1, 68, 0
1, 40800, Note_on_c, 1, 67, 79
1, 40845, Note_on_c, 0, 75, 0
1, 40845, Note_on_c, 0, 70, 0
1, 40845, Note_on_c, 1, 67, 0
1, 40848, Note_on_c, 1, 70, 69
1, 40893, Note_on_c, 1, 70, 0
1, 40896, Note_on_c, 1, 67, 69
1, 40941, Note_on_c, 1, 67, 0
1, 40944, Note_on_c, 1, 70, 69
1, 40989, Note_on_c, 1, 70, 0
1, 40992, Note_on_c, 0, 73, 69
1, 40992, Note_on_c, 1, 65, 70
1, 41037, Note_on_c, 1, 65, 0
1, 41040, Note_on_c, 1, 70, 70
1, 41081, Note_on_c, 0, 73, 0
1, 41085, Note_on_c, 1, 70, 0
1, 41088, Note_on_c, 0, 82, 69
1, 41088, Note_on_c, 1, 64, 71
1, 41133, Note_on_c, 0, 82, 0
1, 41133, Note_on_c, 1, 64, 0
1, 41136, Note_on_c, 0, 72, 70
1, 41136, Note_on_c, 1, 67, 71
1, 41181, Note_on_c, 0, 72, 0
1, 41181, Note_on_c, 1, 67, 0
1, 41184, Note_on_c, 0, 80, 70
1, 41184, Note_on_c, 1, 65, 72
1, 41229, Note_on_c, 0, 80, 0
1, 41229, Note_on_c, 1, 65, 0
1, 41232, Note_on_c, 0, 72, 71
1, 41232, Note_on_c, 1, 68, 72
1, 41277, Note_on_c, 0, 72, 0
1, 41277, Note_on_c, 1, 68, 0
1, 41280, Note_on_c, 0, 80, 71
1, 41280, Note_on_c, 1, 62, 73
1, 41325, Note_on_c, 0, 80, 0
1, 41325, Note_on_c, 1, 62, 0
1, 41328, Note_on_c, 0, 70, 72
1, 41328, Note_on_c, 1, 65, 73
1, 41373, Note_on_c, 0, 70, 0
1, 41373, Note_on_c, 1, 65, 0
1, 41376, Note_on_c, 0, 79, 72
1, 41376, Note_on_c, 1, 63, 73
1, 41421, Note_on_c, 0, 79, 0
1, 41421, Note_on_c, 1, 63, 0
1, 41424, Note_on_c, 0, 70, 73
1, 41424, Note_on_c, 1, 67, 74
1, 41469, Note_on_c, 0, 70, 0
1, 41469, Note_on_c, 1, 67, 0
1, 41472, Note_on_c, 0, 79, 73
1, 41472, Note_on_c, 1, 60, 74
1, 41517, Note_on_c, 0, 79, 0
1, 41517, Note_on_c, 1, 60, 0
1, 41520, Note_on_c, 0, 68, 74
1, 41520, Note_on_c, 1, 63, 75
1, 41565, Note_on_c, 0, 68, 0
1, 41565, Note_on_c, 1, 63, 0
1, 41568, Note_on_c, 0, 77, 74
1, 41568, Note_on_c, 1, 62, 75
1, 41613, Note_on_c, 0, 77, 0
1, 41613, Note_on_c, 1, 62, 0
1, 41616, Note_on_c, 0, 68, 75
1, 41616, Note_on_c, 1, 65, 76
1, 41661, Note_on_c, 0, 68, 0
1, 41661, Note_on_c, 1, 65, 0
1, 41664, Note_on_c, 0, 77, 75
1, 41664, Note_on_c, 1, 59, 76
1, 41709, Note_on_c, 0, 77, 0
1, 41709, Note_on_c, 1, 59, 0
1, 41712, Note_on_c, 0, 67, 76
1, 41712, Note_on_c, 1, 62, 77
1, 41757, Note_on_c, 0, 67, 0
1, 41757, Note_on_c, 1, 62, 0
1, 41760, Note_on_c, 0, 75, 76
1, 41760, Note_on_c, 1, 60, 77
1, 41805, Note_on_c, 0, 75, 0
1, 41805, Note_on_c, 1, 60, 0
1, 41808, Note_on_c, 0, 67, 77
1, 41808, Note_on_c, 1, 63, 77
1, 41853, Note_on_c, 0, 67, 0
1, 41853, Note_on_c, 1, 63, 0
1, 41856, Note_on_c, 0, 75, 77
1, 41856, Note_on_c, 1, 57, 78
1, 41901, Note_on_c, 0, 75, 0
1, 41901, Note_on_c, 1, 57, 0
1, 41904, Note_on_c, 0, 66, 77
1, 41904, Note_on_c, 1, 60, 78
1, 41949, Note_on_c, 0, 66, 0
1, 41949, Note_on_c, 1, 60, 0
1, 41952, Note_on_c, 0, 74, 78
1, 41952, Note_on_c, 1, 58, 79
1, 41997, Note_on_c, 0, 74, 0
1, 41997, Note_on_c, 1, 58, 0
1, 42000, Note_on_c, 0, 67, 78
1, 42000, Note_on_c, 1, 62, 79
1, 42045, Note_on_c, 0, 67, 0
1, 42045, Note_on_c, 1, 62, 0
1, 42048, Note_on_c, 0, 74, 79
1, 42048, Note_on_c, 1, 58, 80
1, 42093, Note_on_c, 0, 74, 0
1, 42093, Note_on_c, 1, 58, 0
1, 42096, Note_on_c, 0, 68, 79
1, 42096, Note_on_c, 1, 62, 80
1, 42141, Note_on_c, 0, 68, 0
1, 42141, Note_on_c, 1, 62, 0
1, 42144, Note_on_c, 0, 74, 80
1, 42144, Note_on_c, 1, 58, 81
1, 42189, Note_on_c, 0, 74, 0
1, 42189, Note_on_c, 1, 58, 0
1, 42192, Note_on_c, 0, 65, 80
1, 42192, Note_on_c, 0, 68, 80
1, 42192, Note_on_c, 1, 62, 81
1, 42237, Note_on_c, 0, 65, 0
1, 42237, Note_on_c, 0, 68, 0
1, 42237, Note_on_c, 1, 62, 0
1, 42240, Note_on_c, 0, 64, 81
1, 42240, Note_on_c, 0, 69, 81
1, 42240, Note_on_c, 1, 61, 81
1, 42285, Note_on_c, 1, 61, 0
1, 42288, Note_on_c, 1, 49, 82
1, 42329, Note_on_c, 0, 64, 0
1, 42329, Note_on_c, 0, 69, 0
1, 42333, Note_on_c, 1, 49, 0
1, 42336, Note_on_c, 0, 74, 82
1, 42336, Note_on_c, 1, 58, 82
1, 42381, Note_on_c, 0, 74, 0
1, 42381, Note_on_c, 1, 58, 0
1, 42384, Note_on_c, 0, 62, 82
1, 42384, Note_on_c, 0, 68, 82
1, 42384, Note_on_c, 1, 46, 83
1, 42429, Note_on_c, 0, 62, 0
1, 42429, Note_on_c, 0, 68, 0
1, 42429, Note_on_c, 1, 46, 0
1, 42432, Note_on_c, 0, 61, 83
1, 42432, Note_on_c, 0, 69, 83
1, 42432, Note_on_c, 1, 57, 83
1, 42477, Note_on_c, 1, 57, 0
1, 42480, Note_on_c, 1, 45, 84
1, 42521, Note_on_c, 0, 61, 0
1, 42521, Note_on_c, 0, 69, 0
1, 42525, Note_on_c, 1, 45, 0
1, 42528, Note_on_c, 0, 74, 84
1, 42528, Note_on_c, 1, 58, 84
1, 42573, Note_on_c, 0, 74, 0
1, 42573, Note_on_c, 1, 58, 0
1, 42576, Note_on_c, 0, 62, 84
1, 42576, Note_on_c, 0, 68, 84
1, 42576, Note_on_c, 1, 46, 85
1, 42621, Note_on_c, 0, 62, 0
1, 42621, Note_on_c, 0, 68, 0
1, 42621, Note_on_c, 1, 46, 0
1, 42624, Note_on_c, 0, 61, 85
1, 42624, Note_on_c, 0, 69, 85
1, 42624, Note_on_c, 1, 57, 85
1, 42669, Note_on_c, 1, 57, 0
1, 42672, Note_on_c, 1, 45, 86
1, 42713, Note_on_c, 0, 61, 0
1, 42713, Note_on_c, 0, 69, 0
1, 42717, Note_on_c, 1, 45, 0
1, 42768, Note_on_c, 0, 76, 86
1, 42791, Note_on_c, 0, 76, 0
1, 42792, Note_on_c, 0, 73, 86
1, 42815, Note_on_c, 0, 73, 0
1, 42816, Note_on_c, 0, 76, 86
1, 42816, Note_on_c, 1, 64, 86
1, 42816, Note_on_c, 1, 61, 86
1, 42816, Note_on_c, 1, 57, 86
1, 42816, Note_on_c, 1, 55, 86
1, 42839, Note_on_c, 0, 76, 0
1, 42840, Note_on_c, 0, 73, 86
1, 42863, Note_on_c, 0, 73, 0
1, 42864, Note_on_c, 0, 79, 86
1, 42887, Note_on_c, 0, 79, 0
1, 42888, Note_on_c, 0, 76, 86
1, 42905, Note_on_c, 1, 64, 0
1, 42905, Note_on_c, 1, 61, 0
1, 42905, Note_on_c, 1, 57, 0
1, 42905, Note_on_c, 1, 55, 0
1, 42911, Note_on_c, 0, 76, 0
1, 42912, Note_on_c, 0, 73, 86
1, 42935, Note_on_c, 0, 73, 0
1, 42936, Note_on_c, 0, 69, 86
1, 42959, Note_on_c, 0, 69, 0
1, 42960, Note_on_c, 0, 76, 86
1, 42983, Note_on_c, 0, 76, 0
1, 42984, Note_on_c, 0, 73, 86
1, 43007, Note_on_c, 0, 73, 0
1, 43008, Note_on_c, 0, 76, 86
1, 43008, Note_on_c, 1, 64, 86
1, 43008, Note_on_c, 1, 61, 86
1, 43008, Note_on_c, 1, 57, 86
1, 43008, Note_on_c, 1, 55, 86
1, 43031, Note_on_c, 0, 76, 0
1, 43032, Note_on_c, 0, 73, 86
1, 43055, Note_on_c, 0, 73, 0
1, 43056, Note_on_c, 0, 79, 86
1, 43079, Note_on_c, 0, 79, 0
1, 43080, Note_on_c, 0, 76, 86
1, 43097, Note_on_c, 1, 64, 0
1, 43097, Note_on_c, 1, 61, 0
1, 43097, Note_on_c, 1, 57, 0
1, 43097, Note_on_c, 1, 55, 0
1, 43103, Note_on_c, 0, 76, 0
1, 43104, Note_on_c, 0, 73, 86
1, 43127, Note_on_c, 0, 73, 0
1, 43128, Note_on_c, 0, 69, 86
1, 43151, Note_on_c, 0, 69, 0
1, 43152, Note_on_c, 0, 81, 86
1, 43175, Note_on_c, 0, 81, 0
1, 43176, Note_on_c, 0, 77, 86
1, 43199, Note_on_c, 0, 77, 0
1, 43200, Note_on_c, 0, 74, 86
1, 43200, Note_on_c, 1, 62, 86
1, 43200, Note_on_c, 1, 53, 86
1, 43223, Note_on_c, 0, 74, 0
1, 43224, Note_on_c, 0, 69, 86
1, 43247, Note_on_c, 0, 69, 0
1, 43248, Note_on_c, 0, 81, 86
1, 43271, Note_on_c, 0, 81, 0
1, 43272, Note_on_c, 0, 79, 86
1, 43289, Note_on_c, 1, 62, 0
1, 43289, Note_on_c, 1, 53, 0
1, 43295, Note_on_c, 0, 79, 0
1, 43296, Note_on_c, 0, 76, 86
1, 43296, Note_on_c, 1, 61, 86
1, 43296, Note_on_c, 1, 55, 86
1, 43319, Note_on_c, 0, 76, 0
1, 43320, Note_on_c, 0, 69, 86
1, 43343, Note_on_c, 0, 69, 0
1, 43344, Note_on_c, 0, 81, 86
1, 43367, Note_on_c, 0, 81, 0
1, 43368, Note_on_c, 0, 77, 86
1, 43385, Note_on_c, 1, 61, 0
1, 43385, Note_on_c, 1, 55, 0
1, 43391, Note_on_c, 0, 77, 0
1, 43392, Note_on_c, 0, 74, 86
1, 43392, Note_on_c, 1, 62, 86
1, 43392, Note_on_c, 1, 53, 86
1, 43415, Note_on_c, 0, 74, 0
1, 43416, Note_on_c, 0, 69, 86
1, 43439, Note_on_c, 0, 69, 0
1, 43440, Note_on_c, 0, 81, 86
1, 43463, Note_on_c, 0, 81, 0
1, 43464, Note_on_c, 0, 79, 86
1, 43481, Note_on_c, 1, 62, 0
1, 43481, Note_on_c, 1, 53, 0
1, 43487, Note_on_c, 0, 79, 0
1, 43488, Note_on_c, 0, 76, 86
1, 43488, Note_on_c, 1, 61, 86
1, 43488, Note_on_c, 1, 55, 86
1, 43511, Note_on_c, 0, 76, 0
1, 43512, Note_on_c, 0, 69, 86
1, 43535, Note_on_c, 0, 69, 0
1, 43536, Note_on_c, 0, 81, 86
1, 43559, Note_on_c, 0, 81, 0
1, 43560, Note_on_c, 0, 77, 86
1, 43577, Note_on_c, 1, 61, 0
1, 43577, Note_on_c, 1, 55, 0
1, 43583, Note_on_c, 0, 77, 0
1, 43584, Note_on_c, 0, 74, 86
1, 43584, Note_on_c, 1, 62, 86
1, 43584, Note_on_c, 1, 53, 86
1, 43607, Note_on_c, 0, 74, 0
1, 43608, Note_on_c, 0, 69, 86
1, 43631, Note_on_c, 0, 69, 0
1, 43632, Note_on_c, 0, 81, 86
1, 43655, Note_on_c, 0, 81, 0
1, 43656, Note_on_c, 0, 79, 86
1, 43673, Note_on_c, 1, 62, 0
1, 43673, Note_on_c, 1, 53, 0
1, 43679, Note_on_c, 0, 79, 0
1, 43680, Note_on_c, 0, 77, 86
1, 43703, Note_on_c, 0, 77, 0
1, 43704, Note_on_c, 0, 76, 86
1, 43727, Note_on_c, 0, 76, 0
1, 43728, Note_on_c, 0, 74, 86
1, 43751, Note_on_c, 0, 74, 0
1, 43752, Note_on_c, 0, 72, 86
1, 43775, Note_on_c, 0, 72, 0
1, 43776, Note_on_c, 0, 70, 86
1, 43799, Note_on_c, 0, 70, 0
1, 43800, Note_on_c, 0, 69, 86
1, 43823, Note_on_c, 0, 69, 0
1, 43824, Note_on_c, 0, 67, 86
1, 43847, Note_on_c, 0, 67, 0
1, 43848, Note_on_c, 0, 65, 86
1, 43871, Note_on_c, 0, 65, 0
1, 43872, Note_on_c, 0, 64, 86
1, 43895, Note_on_c, 0, 64, 0
1, 43896, Note_on_c, 0, 62, 86
1, 43919, Note_on_c, 0, 62, 0
1, 43920, Note_on_c, 0, 61, 86
1, 43943, Note_on_c, 0, 61, 0
1, 43944, Note_on_c, 0, 62, 86
1, 43967, Note_on_c, 0, 62, 0
1, 43968, Note_on_c, 0, 63, 102
1, 43968, Note_on_c, 1, 43, 86
1, 43991, Note_on_c, 1, 43, 0
1, 43992, Note_on_c, 1, 55, 86
1, 44015, Note_on_c, 1, 55, 0
1, 44016, Note_on_c, 1, 54, 86
1, 44039, Note_on_c, 1, 54, 0
1, 44040, Note_on_c, 1, 55, 86
1, 44063, Note_on_c, 1, 55, 0
1, 44064, Note_on_c, 0, 63, 0
1, 44064, Note_on_c, 1, 58, 86
1, 44109, Note_on_c, 1, 58, 0
1, 44112, Note_on_c, 0, 67, 84
1, 44112, Note_on_c, 0, 63, 84
1, 44157, Note_on_c, 0, 67, 0
1, 44157, Note_on_c, 0, 63, 0
1, 44160, Note_on_c, 1, 57, 83
1, 44205, Note_on_c, 1, 57, 0
1, 44208, Note_on_c, 0, 65, 82
1, 44208, Note_on_c, 0, 62, 82
1, 44253, Note_on_c, 0, 65, 0
1, 44253, Note_on_c, 0, 62, 0
1, 44256, Note_on_c, 1, 45, 80
1, 44301, Note_on_c, 1, 45, 0
1, 44304, Note_on_c, 0, 61, 79
1, 44349, Note_on_c, 0, 61, 0
1, 44352, Note_on_c, 0, 62, 78
1, 44400, Note_on_c, 1, 50, 78
1, 44441, Note_on_c, 0, 62, 0
1, 44445, Note_on_c, 1, 50, 0
1, 44448, Note_on_c, 1, 38, 78
1, 44493, Note_on_c, 1, 38, 0
1, 44496, Note_on_c, 0, 69, 78
1, 44516, Note_on_c, 0, 69, 0
1, 44544, Note_on_c, 0, 62, 78
1, 44589, Note_on_c, 0, 62, 0
1, 44592, Note_on_c, 0, 65, 80
1, 44637, Note_on_c, 0, 65, 0
1, 44640, Note_on_c, 0, 58, 82
1, 44685, Note_on_c, 0, 58, 0
1, 44688, Note_on_c, 0, 70, 84
1, 44688, Note_on_c, 1, 55, 81
1, 44708, Note_on_c, 0, 70, 0
1, 44708, Note_on_c, 1, 55, 0
1, 44736, Note_on_c, 0, 64, 86
1, 44736, Note_on_c, 1, 48, 82
1, 44759, Note_on_c, 0, 64, 0
1, 44759, Note_on_c, 1, 48, 0
1, 44760, Note_on_c, 0, 65, 84
1, 44760, Note_on_c, 1, 50, 82
1, 44783, Note_on_c, 0, 65, 0
1, 44783, Note_on_c, 1, 50, 0
1, 44784, Note_on_c, 0, 67, 83
1, 44784, Note_on_c, 1, 52, 83
1, 44807, Note_on_c, 0, 67, 0
1, 44807, Note_on_c, 1, 52, 0
1, 44808, Note_on_c, 0, 64, 82
1, 44808, Note_on_c, 1, 48, 83
1, 44831, Note_on_c, 0, 64, 0
1, 44831, Note_on_c, 1, 48, 0
1, 44832, Note_on_c, 0, 60, 80
1, 44832, Note_on_c, 1, 45, 78
1, 44877, Note_on_c, 0, 60, 0
1, 44877, Note_on_c, 1, 45, 0
1, 44880, Note_on_c, 0, 72, 78
1, 44880, Note_on_c, 1, 57, 78
1, 44900, Note_on_c, 0, 72, 0
1, 44900, Note_on_c, 1, 57, 0
1, 44928, Note_on_c, 0, 65, 78
1, 44928, Note_on_c, 1, 50, 78
1, 44973, Note_on_c, 0, 65, 0
1, 44973, Note_on_c, 1, 50, 0
1, 44976, Note_on_c, 0, 69, 79
1, 44976, Note_on_c, 1, 53, 80
1, 45021, Note_on_c, 0, 69, 0
1, 45021, Note_on_c, 1, 53, 0
1, 45024, Note_on_c, 0, 62, 80
1, 45024, Note_on_c, 1, 46, 82
1, 45069, Note_on_c, 0, 62, 0
1, 45069, Note_on_c, 1, 46, 0
1, 45072, Note_on_c, 0, 74, 81
1, 45072, Note_on_c, 1, 58, 84
1, 45092, Note_on_c, 0, 74, 0
1, 45092, Note_on_c, 1, 58, 0
1, 45120, Note_on_c, 0, 67, 82
1, 45120, Note_on_c, 1, 52, 86
1, 45143, Note_on_c, 0, 67, 0
1, 45143, Note_on_c, 1, 52, 0
1, 45144, Note_on_c, 0, 69, 82
1, 45144, Note_on_c, 1, 53, 85
1, 45167, Note_on_c, 0, 69, 0
1, 45167, Note_on_c, 1, 53, 0
1, 45168, Note_on_c, 0, 70, 83
1, 45168, Note_on_c, 1, 55, 84
1, 45191, Note_on_c, 0, 70, 0
1, 45191, Note_on_c, 1, 55, 0
1, 45192, Note_on_c, 0, 67, 83
1, 45192, Note_on_c, 1, 52, 83
1, 45215, Note_on_c, 0, 67, 0
1, 45215, Note_on_c, 1, 52, 0
1, 45216, Note_on_c, 0, 64, 78
1, 45216, Note_on_c, 1, 48, 82
1, 45261, Note_on_c, 0, 64, 0
1, 45264, Note_on_c, 0, 79, 78
1, 45284, Note_on_c, 0, 79, 0
1, 45305, Note_on_c, 1, 48, 0
1, 45312, Note_on_c, 0, 70, 78
1, 45312, Note_on_c, 1, 60, 64
1, 45360, Note_on_c, 0, 70, 0
1, 45360, Note_on_c, 0, 67, 78
1, 45360, Note_on_c, 1, 64, 78
1, 45405, Note_on_c, 0, 67, 0
1, 45405, Note_on_c, 1, 64, 0
1, 45408, Note_on_c, 0, 69, 78
1, 45408, Note_on_c, 1, 65, 78
1, 45428, Note_on_c, 0, 69, 0
1, 45456, Note_on_c, 0, 81, 78
1, 45476, Note_on_c, 0, 81, 0
1, 45489, Note_on_c, 1, 60, 0
1, 45497, Note_on_c, 1, 65, 0
1, 45504, Note_on_c, 0, 72, 78
1, 45504, Note_on_c, 1, 60, 64
1, 45552, Note_on_c, 0, 72, 0
1, 45552, Note_on_c, 0, 69, 78
1, 45552, Note_on_c, 1, 66, 78
1, 45597, Note_on_c, 0, 69, 0
1, 45597, Note_on_c, 1, 66, 0
1, 45600, Note_on_c, 0, 70, 78
1, 45600, Note_on_c, 1, 67, 78
1, 45620, Note_on_c, 0, 70, 0
1, 45648, Note_on_c, 0, 82, 78
1, 45668, Note_on_c, 0, 82, 0
1, 45689, Note_on_c, 1, 67, 0
1, 45696, Note_on_c, 0, 76, 78
1, 45696, Note_on_c, 1, 70, 78
1, 45741, Note_on_c, 1, 70, 0
1, 45744, Note_on_c, 0, 76, 0
1, 45744, Note_on_c, 0, 77, 78
1, 45744, Note_on_c, 1, 69, 78
1, 45789, Note_on_c, 0, 77, 0
1, 45789, Note_on_c, 1, 69, 0
1, 45792, Note_on_c, 0, 70, 78
1, 45792, Note_on_c, 1, 67, 78
1, 45812, Note_on_c, 0, 70, 0
1, 45837, Note_on_c, 1, 67, 0
1, 45840, Note_on_c, 0, 69, 78
1, 45840, Note_on_c, 1, 65, 78
1, 45860, Note_on_c, 0, 69, 0
1, 45873, Note_on_c, 1, 60, 0
1, 45885, Note_on_c, 1, 65, 0
1, 45888, Note_on_c, 0, 67, 78
1, 45888, Note_on_c, 1, 64, 78
1, 45888, Note_on_c, 1, 60, 78
1, 45977, Note_on_c, 0, 67, 0
1, 45977, Note_on_c, 1, 64, 0
1, 45977, Note_on_c, 1, 60, 0
1, 46032, Note_on_c, 0, 72, 78
1, 46052, Note_on_c, 0, 72, 0
1, 46080, Note_on_c, 0, 65, 78
1, 46080, Note_on_c, 1, 57, 78
1, 46080, Note_on_c, 1, 53, 78
1, 46128, Note_on_c, 0, 65, 0
1, 46128, Note_on_c, 0, 69, 80
1, 46169, Note_on_c, 1, 57, 0
1, 46169, Note_on_c, 1, 53, 0
1, 46173, Note_on_c, 0, 69, 0
1, 46176, Note_on_c, 0, 62, 83
1, 46176, Note_on_c, 1, 58, 78
1, 46176, Note_on_c, 1, 46, 78
1, 46221, Note_on_c, 0, 62, 0
1, 46224, Note_on_c, 0, 74, 86
1, 46244, Note_on_c, 0, 74, 0
1, 46265, Note_on_c, 1, 58, 0
1, 46265, Note_on_c, 1, 46, 0
1, 46272, Note_on_c, 0, 65, 84
1, 46272, Note_on_c, 1, 57, 78
1, 46272, Note_on_c, 1, 48, 78
1, 46368, Note_on_c, 0, 65, 0
1, 46368, Note_on_c, 0, 64, 80
1, 46368, Note_on_c, 1, 57, 0
1, 46368, Note_on_c, 1, 55, 78
1, 46413, Note_on_c, 0, 64, 0
1, 46413, Note_on_c, 1, 55, 0
1, 46413, Note_on_c, 1, 48, 0
1, 46416, Note_on_c, 0, 70, 78
1, 46436, Note_on_c, 0, 70, 0
1, 46464, Note_on_c, 0, 67, 78
1, 46512, Note_on_c, 0, 67, 0
1, 46512, Note_on_c, 0, 76, 80
1, 46557, Note_on_c, 0, 76, 0
1, 46560, Note_on_c, 0, 70, 82
1, 46560, Note_on_c, 1, 64, 78
1, 46560, Note_on_c, 1, 60, 78
1, 46608, Note_on_c, 0, 70, 0
1, 46608, Note_on_c, 0, 79, 84
1, 46628, Note_on_c, 0, 79, 0
1, 46649, Note_on_c, 1, 64, 0
1, 46649, Note_on_c, 1, 60, 0
1, 46656, Note_on_c, 0, 70, 86
1, 46656, Note_on_c, 1, 65, 78
1, 46701, Note_on_c, 1, 65, 0
1, 46704, Note_on_c, 1, 53, 78
1, 46749, Note_on_c, 1, 53, 0
1, 46752, Note_on_c, 0, 70, 0
1, 46752, Note_on_c, 0, 69, 80
1, 46797, Note_on_c, 0, 69, 0
1, 46800, Note_on_c, 0, 72, 78
1, 46820, Note_on_c, 0, 72, 0
1, 46848, Note_on_c, 0, 63, 78
1, 46896, Note_on_c, 0, 63, 0
1, 46896, Note_on_c, 0, 75, 78
1, 46941, Note_on_c, 0, 75, 0
1, 46944, Note_on_c, 0, 65, 78
1, 46944, Note_on_c, 1, 57, 78
1, 46989, Note_on_c, 0, 65, 0
1, 46992, Note_on_c, 0, 72, 78
1, 47012, Note_on_c, 0, 72, 0
1, 47033, Note_on_c, 1, 57, 0
1, 47040, Note_on_c, 0, 73, 78
1, 47040, Note_on_c, 1, 58, 78
1, 47088, Note_on_c, 0, 73, 0
1, 47088, Note_on_c, 0, 74, 78
1, 47129, Note_on_c, 1, 58, 0
1, 47133, Note_on_c, 0, 74, 0
1, 47136, Note_on_c, 0, 67, 78
1, 47181, Note_on_c, 0, 67, 0
1, 47184, Note_on_c, 0, 74, 79
1, 47184, Note_on_c, 1, 59, 79
1, 47204, Note_on_c, 0, 74, 0
1, 47229, Note_on_c, 1, 59, 0
1, 47232, Note_on_c, 0, 75, 79
1, 47232, Note_on_c, 1, 60, 79
1, 47280, Note_on_c, 0, 75, 0
1, 47280, Note_on_c, 0, 76, 80
1, 47321, Note_on_c, 1, 60, 0
1, 47325, Note_on_c, 0, 76, 0
1, 47328, Note_on_c, 0, 69, 80
1, 47373, Note_on_c, 0, 69, 0
1, 47376, Note_on_c, 0, 76, 80
1, 47376, Note_on_c, 1, 61, 80
1, 47396, Note_on_c, 0, 76, 0
1, 47421, Note_on_c, 1, 61, 0
1, 47424, Note_on_c, 0, 79, 81
1, 47424, Note_on_c, 1, 62, 81
1, 47472, Note_on_c, 0, 79, 0
1, 47472, Note_on_c, 0, 77, 81
1, 47513, Note_on_c, 1, 62, 0
1, 47517, Note_on_c, 0, 77, 0
1, 47520, Note_on_c, 0, 70, 82
1, 47565, Note_on_c, 0, 70, 0
1, 47568, Note_on_c, 0, 77, 82
1, 47568, Note_on_c, 1, 62, 82
1, 47588, Note_on_c, 0, 77, 0
1, 47613, Note_on_c, 1, 62, 0
1, 47616, Note_on_c, 0, 78, 82
1, 47616, Note_on_c, 1, 64, 82
1, 47664, Note_on_c, 0, 78, 0
1, 47664, Note_on_c, 0, 79, 83
1, 47705, Note_on_c, 1, 64, 0
1, 47709, Note_on_c, 0, 79, 0
1, 47712, Note_on_c, 0, 72, 83
1, 47757, Note_on_c, 0, 72, 0
1, 47760, Note_on_c, 0, 79, 84
1, 47760, Note_on_c, 1, 64, 84
1, 47805, Note_on_c, 0, 79, 0
1, 47805, Note_on_c, 1, 64, 0
1, 47808, Note_on_c, 0, 80, 84
1, 47808, Note_on_c, 1, 65, 84
1, 47856, Note_on_c, 0, 80, 0
1, 47856, Note_on_c, 0, 81, 84
1, 47897, Note_on_c, 1, 65, 0
1, 47901, Note_on_c, 0, 81, 0
1, 47904, Note_on_c, 0, 77, 85
1, 47904, Note_on_c, 1, 62, 85
1, 47949, Note_on_c, 0, 77, 0
1, 47952, Note_on_c, 0, 83, 85
1, 47993, Note_on_c, 1, 62, 0
1, 47997, Note_on_c, 0, 83, 0
1, 48000, Note_on_c, 0, 76, 86
1, 48000, Note_on_c, 1, 60, 86
1, 48045, Note_on_c, 0, 76, 0
1, 48048, Note_on_c, 0, 84, 86
1, 48068, Note_on_c, 0, 84, 0
1, 48096, Note_on_c, 0, 72, 86
1, 48141, Note_on_c, 0, 72, 0
1, 48144, Note_on_c, 0, 73, 86
1, 48144, Note_on_c, 1, 69, 86
1, 48189, Note_on_c, 0, 73, 0
1, 48189, Note_on_c, 1, 69, 0
1, 48192, Note_on_c, 0, 74, 86
1, 48192, Note_on_c, 1, 70, 86
1, 48240, Note_on_c, 0, 78, 86
1, 48285, Note_on_c, 0, 78, 0
1, 48288, Note_on_c, 0, 79, 86
1, 48300, Note_on_c, 0, 79, 0
1, 48300, Note_on_c, 0, 77, 86
1, 48312, Note_on_c, 0, 77, 0
1, 48312, Note_on_c, 0, 79, 86
1, 48333, Note_on_c, 0, 79, 0
1, 48336, Note_on_c, 0, 82, 86
1, 48356, Note_on_c, 0, 82, 0
1, 48369, Note_on_c, 0, 74, 0
1, 48384, Note_on_c, 0, 76, 86
1, 48384, Note_on_c, 0, 72, 86
1, 48429, Note_on_c, 0, 76, 0
1, 48432, Note_on_c, 0, 79, 86
1, 48473, Note_on_c, 1, 70, 0
1, 48477, Note_on_c, 0, 79, 0
1, 48480, Note_on_c, 0, 77, 86
1, 48480, Note_on_c, 1, 69, 86
1, 48525, Note_on_c, 0, 77, 0
1, 48528, Note_on_c, 0, 84, 86
1, 48548, Note_on_c, 0, 84, 0
1, 48561, Note_on_c, 0, 72, 0
1, 48576, Note_on_c, 0, 74, 86
1, 48576, Note_on_c, 0, 70, 86
1, 48621, Note_on_c, 1, 69, 0
1, 48624, Note_on_c, 1, 66, 86
1, 48669, Note_on_c, 1, 66, 0
1, 48672, Note_on_c, 1, 67, 86
1, 48709, Note_on_c, 0, 74, 0
1, 48709, Note_on_c, 0, 70, 0
1, 48720, Note_on_c, 0, 82, 86
1, 48740, Note_on_c, 0, 82, 0
1, 48768, Note_on_c, 0, 72, 86
1, 48768, Note_on_c, 0, 69, 86
1, 48813, Note_on_c, 0, 72, 0
1, 48816, Note_on_c, 0, 75, 86
1, 48857, Note_on_c, 1, 67, 0
1, 48861, Note_on_c, 0, 75, 0
1, 48864, Note_on_c, 0, 74, 86
1, 48864, Note_on_c, 1, 65, 86
1, 48909, Note_on_c, 0, 74, 0
1, 48912, Note_on_c, 0, 81, 86
1, 48932, Note_on_c, 0, 81, 0
1, 48945, Note_on_c, 0, 69, 0
1, 48960, Note_on_c, 0, 70, 86
1, 48960, Note_on_c, 0, 67, 86
1, 49005, Note_on_c, 0, 70, 0
1, 49008, Note_on_c, 0, 74, 86
1, 49049, Note_on_c, 1, 65, 0
1, 49053, Note_on_c, 0, 74, 0
1, 49056, Note_on_c, 0, 72, 86
1, 49056, Note_on_c, 1, 64, 86
1, 49101, Note_on_c, 0, 72, 0
1, 49104, Note_on_c, 0, 79, 86
1, 49124, Note_on_c, 0, 79, 0
1, 49137, Note_on_c, 0, 67, 0
1, 49152, Note_on_c, 0, 69, 86
1, 49152, Note_on_c, 0, 65, 86
1, 49197, Note_on_c, 0, 69, 0
1, 49200, Note_on_c, 0, 72, 86
1, 49241, Note_on_c, 0, 65, 0
1, 49241, Note_on_c, 1, 64, 0
1, 49245, Note_on_c, 0, 72, 0
1, 49248, Note_on_c, 0, 71, 86
1, 49248, Note_on_c, 0, 71, 86
1, 49248, Note_on_c, 1, 62, 86
1, 49293, Note_on_c, 0, 71, 0
1, 49296, Note_on_c, 0, 77, 86
1, 49316, Note_on_c, 0, 77, 0
1, 49329, Note_on_c, 1, 60, 0
1, 49337, Note_on_c, 0, 71, 0
1, 49337, Note_on_c, 1, 62, 0
1, 49344, Note_on_c, 0, 76, 86
1, 49344, Note_on_c, 0, 72, 86
1, 49344, Note_on_c, 1, 64, 86
1, 49344, Note_on_c, 1, 60, 86
1, 49433, Note_on_c, 0, 72, 0
1, 49433, Note_on_c, 1, 64, 0
1, 49433, Note_on_c, 1, 60, 0
1, 49438, Note_on_c, 0, 76, 0
1, 49488, Note_on_c, 0, 72, 78
1, 49508, Note_on_c, 0, 72, 0
1, 49536, Note_on_c, 0, 65, 78
1, 49581, Note_on_c, 0, 65, 0
1, 49584, Note_on_c, 0, 69, 78
1, 49629, Note_on_c, 0, 69, 0
1, 49632, Note_on_c, 0, 60, 78
1, 49677, Note_on_c, 0, 60, 0
1, 49680, Note_on_c, 0, 65, 78
1, 49680, Note_on_c, 1, 60, 78
1, 49680, Note_on_c, 1, 57, 78
1, 49725, Note_on_c, 0, 65, 0
1, 49725, Note_on_c, 1, 60, 0
1, 49725, Note_on_c, 1, 57, 0
1, 49728, Note_on_c, 0, 64, 78
1, 49728, Note_on_c, 1, 58, 78
1, 49728, Note_on_c, 1, 55, 78
1, 49773, Note_on_c, 0, 64, 0
1, 49773, Note_on_c, 1, 58, 0
1, 49773, Note_on_c, 1, 55, 0
1, 49776, Note_on_c, 0, 65, 78
1, 49776, Note_on_c, 1, 57, 78
1, 49776, Note_on_c, 1, 53, 78
1, 49821, Note_on_c, 0, 65, 0
1, 49821, Note_on_c, 1, 57, 0
1, 49821, Note_on_c, 1, 53, 0
1, 49824, Note_on_c, 0, 67, 78
1, 49824, Note_on_c, 1, 55, 78
1, 49824, Note_on_c, 1, 52, 78
1, 49869, Note_on_c, 0, 67, 0
1, 49869, Note_on_c, 1, 55, 0
1, 49869, Note_on_c, 1, 52, 0
1, 49872, Note_on_c, 0, 72, 78
1, 49892, Note_on_c, 0, 72, 0
1, 49920, Note_on_c, 0, 67, 78
1, 49965, Note_on_c, 0, 67, 0
1, 49968, Note_on_c, 0, 70, 78
1, 50013, Note_on_c, 0, 70, 0
1, 50016, Note_on_c, 0, 60, 78
1, 50061, Note_on_c, 0, 60, 0
1, 50064, Note_on_c, 0, 64, 78
1, 50064, Note_on_c, 1, 60, 78
1, 50064, Note_on_c, 1, 58, 78
1, 50084, Note_on_c, 0, 64, 0
1, 50109, Note_on_c, 1, 60, 0
1, 50109, Note_on_c, 1, 58, 0
1, 50112, Note_on_c, 0, 65, 78
1, 50112, Note_on_c, 1, 60, 78
1, 50112, Note_on_c, 1, 57, 78
1, 50157, Note_on_c, 0, 65, 0
1, 50157, Note_on_c, 1, 60, 0
1, 50157, Note_on_c, 1, 57, 0
1, 50160, Note_on_c, 0, 67, 78
1, 50160, Note_on_c, 1, 58, 78
1, 50160, Note_on_c, 1, 55, 78
1, 50205, Note_on_c, 0, 67, 0
1, 50205, Note_on_c, 1, 58, 0
1, 50205, Note_on_c, 1, 55, 0
1, 50208, Note_on_c, 0, 69, 78
1, 50208, Note_on_c, 1, 57, 78
1, 50208, Note_on_c, 1, 53, 78
1, 50253, Note_on_c, 0, 69, 0
1, 50253, Note_on_c, 1, 57, 0
1, 50253, Note_on_c, 1, 53, 0
1, 50256, Note_on_c, 0, 72, 78
1, 50276, Note_on_c, 0, 72, 0
1, 50304, Note_on_c, 0, 65, 78
1, 50349, Note_on_c, 0, 65, 0
1, 50352, Note_on_c, 0, 72, 78
1, 50352, Note_on_c, 1, 57, 78
1, 50352, Note_on_c, 1, 53, 78
1, 50372, Note_on_c, 0, 72, 0
1, 50397, Note_on_c, 1, 57, 0
1, 50397, Note_on_c, 1, 53, 0
1, 50400, Note_on_c, 0, 65, 78
1, 50400, Note_on_c, 1, 58, 78
1, 50400, Note_on_c, 1, 55, 78
1, 50445, Note_on_c, 0, 65, 0
1, 50445, Note_on_c, 1, 58, 0
1, 50445, Note_on_c, 1, 55, 0
1, 50448, Note_on_c, 0, 63, 78
1, 50448, Note_on_c, 1, 60, 78
1, 50448, Note_on_c, 1, 57, 78
1, 50493, Note_on_c, 0, 63, 0
1, 50493, Note_on_c, 1, 60, 0
1, 50493, Note_on_c, 1, 57, 0
1, 50496, Note_on_c, 0, 63, 78
1, 50496, Note_on_c, 1, 58, 78
1, 50519, Note_on_c, 0, 63, 0
1, 50520, Note_on_c, 0, 62, 78
1, 50543, Note_on_c, 0, 62, 0
1, 50544, Note_on_c, 0, 61, 78
1, 50567, Note_on_c, 0, 61, 0
1, 50568, Note_on_c, 0, 62, 78
1, 50591, Note_on_c, 0, 62, 0
1, 50592, Note_on_c, 0, 64, 78
1, 50615, Note_on_c, 0, 64, 0
1, 50616, Note_on_c, 0, 62, 78
1, 50629, Note_on_c, 1, 58, 0
1, 50639, Note_on_c, 0, 62, 0
1, 50640, Note_on_c, 0, 66, 78
1, 50640, Note_on_c, 1, 57, 78
1, 50663, Note_on_c, 0, 66, 0
1, 50664, Note_on_c, 0, 62, 78
1, 50685, Note_on_c, 1, 57, 0
1, 50687, Note_on_c, 0, 62, 0
1, 50688, Note_on_c, 0, 67, 78
1, 50688, Note_on_c, 1, 58, 78
1, 50711, Note_on_c, 0, 67, 0
1, 50712, Note_on_c, 0, 62, 79
1, 50733, Note_on_c, 1, 58, 0
1, 50735, Note_on_c, 0, 62, 0
1, 50736, Note_on_c, 0, 69, 80
1, 50736, Note_on_c, 1, 54, 80
1, 50759, Note_on_c, 0, 69, 0
1, 50760, Note_on_c, 0, 62, 81
1, 50781, Note_on_c, 1, 54, 0
1, 50783, Note_on_c, 0, 62, 0
1, 50784, Note_on_c, 0, 70, 82
1, 50784, Note_on_c, 1, 55, 82
1, 50807, Note_on_c, 0, 70, 0
1, 50808, Note_on_c, 0, 62, 83
1, 50829, Note_on_c, 1, 55, 0
1, 50831, Note_on_c, 0, 62, 0
1, 50832, Note_on_c, 0, 72, 84
1, 50832, Note_on_c, 1, 57, 84
1, 50855, Note_on_c, 0, 72, 0
1, 50856, Note_on_c, 0, 62, 86
1, 50877, Note_on_c, 1, 57, 0
1, 50879, Note_on_c, 0, 62, 0
1, 50880, Note_on_c, 0, 74, 101
1, 50880, Note_on_c, 1, 58, 86
1, 50969, Note_on_c, 1, 58, 0
1, 50976, Note_on_c, 0, 74, 0
1, 50976, Note_on_c, 0, 72, 81
1, 50999, Note_on_c, 0, 72, 0
1, 51000, Note_on_c, 0, 70, 80
1, 51023, Note_on_c, 0, 70, 0
1, 51024, Note_on_c, 0, 69, 79
1, 51047, Note_on_c, 0, 69, 0
1, 51048, Note_on_c, 0, 67, 78
1, 51071, Note_on_c, 0, 67, 0
1, 51072, Note_on_c, 0, 65, 78
1, 51120, Note_on_c, 1, 62, 78
1, 51120, Note_on_c, 1, 59, 78
1, 51165, Note_on_c, 1, 62, 0
1, 51165, Note_on_c, 1, 59, 0
1, 51168, Note_on_c, 1, 60, 78
1, 51205, Note_on_c, 0, 65, 0
1, 51213, Note_on_c, 1, 60, 0
1, 51216, Note_on_c, 0, 69, 78
1, 51216, Note_on_c, 1, 48, 78
1, 51234, Note_on_c, 0, 69, 0
1, 51234, Note_on_c, 0, 67, 78
1, 51261, Note_on_c, 0, 67, 0
1, 51261, Note_on_c, 1, 48, 0
1, 51264, Note_on_c, 0, 65, 78
1, 51264, Note_on_c, 1, 53, 78
1, 51309, Note_on_c, 1, 53, 0
1, 51312, Note_on_c, 1, 41, 78
1, 51353, Note_on_c, 0, 65, 0
1, 51357, Note_on_c, 1, 41, 0
1, 51408, Note_on_c, 0, 79, 86
1, 51431, Note_on_c, 0, 79, 0
1, 51432, Note_on_c, 0, 76, 86
1, 51455, Note_on_c, 0, 76, 0
1, 51456, Note_on_c, 0, 79, 86
1, 51456, Note_on_c, 1, 67, 78
1, 51456, Note_on_c, 1, 64, 78
1, 51456, Note_on_c, 1, 60, 78
1, 51479, Note_on_c, 0, 79, 0
1, 51480, Note_on_c, 0, 76, 86
1, 51503, Note_on_c, 0, 76, 0
1, 51504, Note_on_c, 0, 82, 86
1, 51527, Note_on_c, 0, 82, 0
1, 51528, Note_on_c, 0, 79, 86
1, 51545, Note_on_c, 1, 67, 0
1, 51545, Note_on_c, 1, 64, 0
1, 51545, Note_on_c, 1, 60, 0
1, 51551, Note_on_c, 0, 79, 0
1, 51552, Note_on_c, 0, 76, 86
1, 51575, Note_on_c, 0, 76, 0
1, 51576, Note_on_c, 0, 72, 86
1, 51599, Note_on_c, 0, 72, 0
1, 51600, Note_on_c, 0, 79, 86
1, 51623, Note_on_c, 0, 79, 0
1, 51624, Note_on_c, 0, 76, 86
1, 51647, Note_on_c, 0, 76, 0
1, 51648, Note_on_c, 0, 79, 86
1, 51648, Note_on_c, 1, 67, 78
1, 51648, Note_on_c, 1, 64, 78
1, 51648, Note_on_c, 1, 60, 78
1, 51671, Note_on_c, 0, 79, 0
1, 51672, Note_on_c, 0, 76, 86
1, 51695, Note_on_c, 0, 76, 0
1, 51696, Note_on_c, 0, 82, 86
1, 51719, Note_on_c, 0, 82, 0
1, 51720, Note_on_c, 0, 79, 86
1, 51737, Note_on_c, 1, 67, 0
1, 51737, Note_on_c, 1, 64, 0
1, 51737, Note_on_c, 1, 60, 0
1, 51743, Note_on_c, 0, 79, 0
1, 51744, Note_on_c, 0, 76, 86
1, 51767, Note_on_c, 0, 76, 0
1, 51768, Note_on_c, 0, 72, 86
1, 51791, Note_on_c, 0, 72, 0
1, 51792, Note_on_c, 0, 79, 86
1, 51815, Note_on_c, 0, 79, 0
1, 51816, Note_on_c, 0, 76, 86
1, 51839, Note_on_c, 0, 76, 0
1, 51840, Note_on_c, 0, 79, 86
1, 51840, Note_on_c, 1, 67, 78
1, 51840, Note_on_c, 1, 64, 78
1, 51840, Note_on_c, 1, 60, 78
1, 51863, Note_on_c, 0, 79, 0
1, 51864, Note_on_c, 0, 76, 86
1, 51887, Note_on_c, 0, 76, 0
1, 51888, Note_on_c, 0, 82, 86
1, 51911, Note_on_c, 0, 82, 0
1, 51912, Note_on_c, 0, 79, 86
1, 51929, Note_on_c, 1, 67, 0
1, 51929, Note_on_c, 1, 64, 0
1, 51929, Note_on_c, 1, 60, 0
1, 51935, Note_on_c, 0, 79, 0
1, 51936, Note_on_c, 0, 76, 86
1, 51959, Note_on_c, 0, 76, 0
1, 51960, Note_on_c, 0, 72, 86
1, 51983, Note_on_c, 0, 72, 0
1, 51984, Note_on_c, 0, 79, 86
1, 52007, Note_on_c, 0, 79, 0
1, 52008, Note_on_c, 0, 76, 86
1, 52031, Note_on_c, 0, 76, 0
1, 52032, Note_on_c, 0, 72, 86
1, 52055, Note_on_c, 0, 72, 0
1, 52056, Note_on_c, 0, 70, 86
1, 52079, Note_on_c, 0, 70, 0
1, 52080, Note_on_c, 0, 76, 86
1, 52103, Note_on_c, 0, 76, 0
1, 52104, Note_on_c, 0, 72, 86
1, 52127, Note_on_c, 0, 72, 0
1, 52128, Note_on_c, 0, 70, 86
1, 52151, Note_on_c, 0, 70, 0
1, 52152, Note_on_c, 0, 67, 86
1, 52175, Note_on_c, 0, 67, 0
1, 52176, Note_on_c, 0, 70, 86
1, 52199, Note_on_c, 0, 70, 0
1, 52200, Note_on_c, 0, 67, 86
1, 52223, Note_on_c, 0, 67, 0
1, 52224, Note_on_c, 0, 64, 86
1, 52269, Note_on_c, 0, 64, 0
1, 52368, Note_on_c, 0, 84, 78
1, 52388, Note_on_c, 0, 84, 0
1, 52416, Note_on_c, 0, 77, 78
1, 52416, Note_on_c, 1, 62, 78
1, 52436, Note_on_c, 0, 77, 0
1, 52436, Note_on_c, 1, 62, 0
1, 52464, Note_on_c, 0, 81, 80
1, 52464, Note_on_c, 1, 65, 78
1, 52484, Note_on_c, 0, 81, 0
1, 52484, Note_on_c, 1, 65, 0
1, 52512, Note_on_c, 0, 74, 83
1, 52512, Note_on_c, 1, 58, 78
1, 52532, Note_on_c, 0, 74, 0
1, 52532, Note_on_c, 1, 58, 0
1, 52560, Note_on_c, 0, 86, 86
1, 52560, Note_on_c, 1, 70, 78
1, 52580, Note_on_c, 0, 86, 0
1, 52580, Note_on_c, 1, 70, 0
1, 52608, Note_on_c, 0, 77, 84
1, 52608, Note_on_c, 1, 69, 78
1, 52608, Note_on_c, 1, 60, 86
1, 52704, Note_on_c, 0, 77, 0
1, 52704, Note_on_c, 0, 76, 80
1, 52704, Note_on_c, 1, 69, 0
1, 52704, Note_on_c, 1, 67, 78
1, 52749, Note_on_c, 0, 76, 0
1, 52752, Note_on_c, 0, 84, 78
1, 52772, Note_on_c, 0, 84, 0
1, 52785, Note_on_c, 1, 60, 0
1, 52793, Note_on_c, 1, 67, 0
1, 52800, Note_on_c, 0, 77, 78
1, 52800, Note_on_c, 1, 62, 78
1, 52848, Note_on_c, 0, 77, 0
1, 52848, Note_on_c, 0, 81, 80
1, 52848, Note_on_c, 1, 62, 0
1, 52848, Note_on_c, 1, 65, 78
1, 52893, Note_on_c, 0, 81, 0
1, 52893, Note_on_c, 1, 65, 0
1, 52896, Note_on_c, 0, 74, 83
1, 52896, Note_on_c, 1, 58, 78
1, 52944, Note_on_c, 0, 74, 0
1, 52944, Note_on_c, 0, 86, 86
1, 52944, Note_on_c, 1, 58, 0
1, 52944, Note_on_c, 1, 70, 78
1, 52989, Note_on_c, 0, 86, 0
1, 52989, Note_on_c, 1, 70, 0
1, 52992, Note_on_c, 0, 77, 84
1, 52992, Note_on_c, 1, 69, 78
1, 52992, Note_on_c, 1, 60, 86
1, 53088, Note_on_c, 0, 77, 0
1, 53088, Note_on_c, 0, 76, 80
1, 53088, Note_on_c, 1, 69, 0
1, 53088, Note_on_c, 1, 67, 78
1, 53125, Note_on_c, 1, 60, 0
1, 53133, Note_on_c, 0, 76, 0
1, 53136, Note_on_c, 0, 84, 78
1, 53136, Note_on_c, 1, 58, 86
1, 53156, Note_on_c, 0, 84, 0
1, 53177, Note_on_c, 1, 67, 0
1, 53181, Note_on_c, 1, 58, 0
1, 53184, Note_on_c, 0, 75, 78
1, 53184, Note_on_c, 1, 66, 78
1, 53184, Note_on_c, 1, 57, 86
1, 53273, Note_on_c, 1, 57, 0
1, 53280, Note_on_c, 0, 75, 0
1, 53280, Note_on_c, 0, 74, 78
1, 53280, Note_on_c, 1, 66, 0
1, 53280, Note_on_c, 1, 67, 78
1, 53280, Note_on_c, 1, 58, 86
1, 53325, Note_on_c, 0, 74, 0
1, 53328, Note_on_c, 0, 82, 78
1, 53348, Note_on_c, 0, 82, 0
1, 53369, Note_on_c, 1, 67, 0
1, 53369, Note_on_c, 1, 58, 0
1, 53376, Note_on_c, 0, 73, 78
1, 53376, Note_on_c, 1, 70, 78
1, 53376, Note_on_c, 1, 64, 86
1, 53472, Note_on_c, 0, 73, 0
1, 53472, Note_on_c, 0, 72, 78
1, 53472, Note_on_c, 1, 70, 0
1, 53472, Note_on_c, 1, 69, 78
1, 53472, Note_on_c, 1, 64, 0
1, 53472, Note_on_c, 1, 65, 86
1, 53517, Note_on_c, 0, 72, 0
1, 53520, Note_on_c, 0, 77, 78
1, 53540, Note_on_c, 0, 77, 0
1, 53561, Note_on_c, 1, 69, 0
1, 53561, Note_on_c, 1, 65, 0
1, 53568, Note_on_c, 0, 67, 78
1, 53568, Note_on_c, 1, 58, 78
1, 53613, Note_on_c, 0, 67, 0
1, 53616, Note_on_c, 0, 74, 82
1, 53616, Note_on_c, 0, 70, 82
1, 53657, Note_on_c, 1, 58, 0
1, 53661, Note_on_c, 0, 74, 0
1, 53661, Note_on_c, 0, 70, 0
1, 53664, Note_on_c, 0, 72, 86
1, 53664, Note_on_c, 0, 69, 86
1, 53664, Note_on_c, 1, 60, 78
1, 53664, Note_on_c, 1, 48, 78
1, 53709, Note_on_c, 0, 72, 0
1, 53709, Note_on_c, 0, 69, 0
1, 53712, Note_on_c, 0, 64, 82
1, 53753, Note_on_c, 1, 60, 0
1, 53753, Note_on_c, 1, 48, 0
1, 53757, Note_on_c, 0, 64, 0
1, 53760, Note_on_c, 0, 65, 78
1, 53760, Note_on_c, 1, 53, 78
1, 53760, Note_on_c, 1, 41, 78
1, 53849, Note_on_c, 0, 65, 0
1, 53849, Note_on_c, 1, 53, 0
1, 53849, Note_on_c, 1, 41, 0
1, 53904, Note_on_c, 0, 84, 78
1, 53924, Note_on_c, 0, 84, 0
1, 53952, Note_on_c, 0, 77, 78
1, 53952, Note_on_c, 1, 62, 78
1, 54000, Note_on_c, 0, 77, 0
1, 54000, Note_on_c, 0, 81, 80
1, 54000, Note_on_c, 1, 62, 0
1, 54000, Note_on_c, 1, 65, 78
1, 54010, Note_on_c, 0, 81, 0
1, 54010, Note_on_c, 1, 65, 0
1, 54048, Note_on_c, 0, 74, 83
1, 54048, Note_on_c, 1, 58, 78
1, 54096, Note_on_c, 0, 74, 0
1, 54096, Note_on_c, 0, 86, 86
1, 54096, Note_on_c, 1, 58, 0
1, 54096, Note_on_c, 1, 70, 78
1, 54106, Note_on_c, 0, 86, 0
1, 54106, Note_on_c, 1, 70, 0
1, 54144, Note_on_c, 0, 77, 84
1, 54144, Note_on_c, 1, 69, 78
1, 54144, Note_on_c, 1, 60, 86
1, 54240, Note_on_c, 0, 77, 0
1, 54240, Note_on_c, 0, 76, 80
1, 54240, Note_on_c, 1, 69, 0
1, 54240, Note_on_c, 1, 67, 78
1, 54285, Note_on_c, 0, 76, 0
1, 54285, Note_on_c, 1, 67, 0
1, 54285, Note_on_c, 1, 60, 0
1, 54288, Note_on_c, 0, 84, 78
1, 54308, Note_on_c, 0, 84, 0
1, 54336, Note_on_c, 0, 77, 78
1, 54336, Note_on_c, 1, 62, 78
1, 54359, Note_on_c, 0, 77, 0
1, 54359, Note_on_c, 1, 62, 0
1, 54360, Note_on_c, 0, 79, 80
1, 54360, Note_on_c, 1, 64, 78
1, 54383, Note_on_c, 0, 79, 0
1, 54383, Note_on_c, 1, 64, 0
1, 54384, Note_on_c, 0, 81, 82
1, 54384, Note_on_c, 1, 65, 78
1, 54407, Note_on_c, 0, 81, 0
1, 54407, Note_on_c, 1, 65, 0
1, 54408, Note_on_c, 0, 77, 84
1, 54408, Note_on_c, 1, 62, 78
1, 54431, Note_on_c, 0, 77, 0
1, 54431, Note_on_c, 1, 62, 0
1, 54432, Note_on_c, 0, 74, 86
1, 54432, Note_on_c, 1, 58, 78
1, 54477, Note_on_c, 0, 74, 0
1, 54477, Note_on_c, 1, 58, 0
1, 54480, Note_on_c, 0, 86, 84
1, 54480, Note_on_c, 1, 70, 78
1, 54500, Note_on_c, 0, 86, 0
1, 54500, Note_on_c, 1, 70, 0
1, 54528, Note_on_c, 0, 77, 82
1, 54528, Note_on_c, 1, 69, 78
1, 54528, Note_on_c, 1, 60, 86
1, 54624, Note_on_c, 0, 77, 0
1, 54624, Note_on_c, 0, 76, 79
1, 54624, Note_on_c, 1, 69, 0
1, 54624, Note_on_c, 1, 67, 78
1, 54669, Note_on_c, 0, 76, 0
1, 54669, Note_on_c, 1, 67, 0
1, 54669, Note_on_c, 1, 60, 0
1, 54672, Note_on_c, 0, 84, 78
1, 54672, Note_on_c, 1, 69, 78
1, 54692, Note_on_c, 0, 84, 0
1, 54695, Note_on_c, 1, 69, 0
1, 54696, Note_on_c, 1, 70, 78
1, 54719, Note_on_c, 1, 70, 0
1, 54720, Note_on_c, 0, 75, 78
1, 54720, Note_on_c, 1, 72, 78
1, 54720, Note_on_c, 1, 66, 86
1, 54816, Note_on_c, 0, 75, 0
1, 54816, Note_on_c, 0, 74, 78
1, 54816, Note_on_c, 1, 72, 0
1, 54816, Note_on_c, 1, 70, 78
1, 54816, Note_on_c, 1, 66, 0
1, 54816, Note_on_c, 1, 67, 86
1, 54861, Note_on_c, 0, 74, 0
1, 54864, Note_on_c, 0, 82, 78
1, 54884, Note_on_c, 0, 82, 0
1, 54905, Note_on_c, 1, 70, 0
1, 54905, Note_on_c, 1, 67, 0
1, 54912, Note_on_c, 0, 73, 78
1, 54912, Note_on_c, 1, 70, 78
1, 54912, Note_on_c, 1, 64, 86
1, 55008, Note_on_c, 0, 73, 0
1, 55008, Note_on_c, 0, 72, 78
1, 55008, Note_on_c, 1, 70, 0
1, 55008, Note_on_c, 1, 69, 78
1, 55008, Note_on_c, 1, 64, 0
1, 55008, Note_on_c, 1, 65, 86
1, 55053, Note_on_c, 0, 72, 0
1, 55056, Note_on_c, 0, 77, 78
1, 55076, Note_on_c, 0, 77, 0
1, 55097, Note_on_c, 1, 69, 0
1, 55097, Note_on_c, 1, 65, 0
1, 55104, Note_on_c, 0, 67, 78
1, 55104, Note_on_c, 1, 58, 78
1, 55149, Note_on_c, 0, 67, 0
1, 55152, Note_on_c, 0, 74, 82
1, 55152, Note_on_c, 0, 70, 82
1, 55193, Note_on_c, 1, 58, 0
1, 55197, Note_on_c, 0, 74, 0
1, 55197, Note_on_c, 0, 70, 0
1, 55200, Note_on_c, 0, 72, 86
1, 55200, Note_on_c, 0, 69, 86
1, 55200, Note_on_c, 1, 60, 78
1, 55200, Note_on_c, 1, 48, 78
1, 55245, Note_on_c, 0, 72, 0
1, 55245, Note_on_c, 0, 69, 0
1, 55248, Note_on_c, 0, 64, 82
1, 55289, Note_on_c, 1, 60, 0
1, 55289, Note_on_c, 1, 48, 0
1, 55293, Note_on_c, 0, 64, 0
1, 55296, Note_on_c, 0, 65, 78
1, 55344, Note_on_c, 1, 41, 78
1, 55385, Note_on_c, 0, 65, 0
1, 55389, Note_on_c, 1, 41, 0
1, 55392, Note_on_c, 1, 53, 78
1, 55437, Note_on_c, 1, 53, 0
1, 55440, Note_on_c, 0, 62, 78
1, 55440, Note_on_c, 0, 58, 78
1, 55488, Note_on_c, 0, 62, 0
1, 55488, Note_on_c, 0, 58, 0
1, 55488, Note_on_c, 0, 60, 76
1, 55488, Note_on_c, 0, 57, 76
1, 55508, Note_on_c, 0, 60, 0
1, 55508, Note_on_c, 0, 57, 0
1, 55536, Note_on_c, 1, 41, 78
1, 55581, Note_on_c, 1, 41, 0
1, 55584, Note_on_c, 1, 53, 78
1, 55629, Note_on_c, 1, 53, 0
1, 55632, Note_on_c, 0, 70, 72
1, 55632, Note_on_c, 0, 64, 72
1, 55680, Note_on_c, 0, 70, 0
1, 55680, Note_on_c, 0, 64, 0
1, 55680, Note_on_c, 0, 69, 71
1, 55680, Note_on_c, 0, 65, 71
1, 55700, Note_on_c, 0, 69, 0
1, 55700, Note_on_c, 0, 65, 0
1, 55728, Note_on_c, 1, 41, 78
1, 55773, Note_on_c, 1, 41, 0
1, 55776, Note_on_c, 1, 53, 78
1, 55821, Note_on_c, 1, 53, 0
1, 55824, Note_on_c, 0, 74, 67
1, 55824, Note_on_c, 0, 70, 67
1, 55872, Note_on_c, 0, 74, 0
1, 55872, Note_on_c, 0, 70, 0
1, 55872, Note_on_c, 0, 72, 66
1, 55872, Note_on_c, 0, 69, 66
1, 55892, Note_on_c, 0, 72, 0
1, 55892, Note_on_c, 0, 69, 0
1, 55920, Note_on_c, 1, 41, 78
1, 55965, Note_on_c, 1, 41, 0
1, 55968, Note_on_c, 1, 53, 78
1, 56013, Note_on_c, 1, 53, 0
1, 56016, Note_on_c, 0, 82, 62
1, 56016, Note_on_c, 0, 76, 62
1, 56064, Note_on_c, 0, 82, 0
1, 56064, Note_on_c, 0, 76, 0
1, 56064, Note_on_c, 0, 81, 61
1, 56064, Note_on_c, 0, 77, 61
1, 56084, Note_on_c, 0, 81, 0
1, 56084, Note_on_c, 0, 77, 0
1, 56208, Note_on_c, 1, 41, 0
1, 56253, Note_on_c, 1, 41, 0
1, 56263, End_track
0, 0, End_of_file