0, 0, Header, 0, 1, 96
1, 0, Start_track
1, 0, Tempo, 1000000
1, 96, Tempo, 120000
1, 144, Tempo, 1000000
1, 144, Note_on_c, 0, 79, 86
1, 192, Note_on_c, 0, 79, 0
1, 192, Note_on_c, 0, 77, 70
1, 215, Note_on_c, 0, 77, 0
1, 216, Note_on_c, 0, 75, 70
1, 239, Note_on_c, 0, 75, 0
1, 240, Note_on_c, 0, 74, 70
1, 240, Note_on_c, 1, 63, 62
1, 240, Note_on_c, 1, 60, 62
1, 263, Note_on_c, 0, 74, 0
1, 264, Note_on_c, 0, 72, 70
1, 285, Note_on_c, 1, 63, 0
1, 285, Note_on_c, 1, 60, 0
1, 287, Note_on_c, 0, 72, 0
1, 288, Note_on_c, 0, 72, 71
1, 288, Note_on_c, 1, 65, 63
1, 288, Note_on_c, 1, 62, 63
1, 333, Note_on_c, 0, 72, 0
1, 333, Note_on_c, 1, 65, 0
1, 333, Note_on_c, 1, 62, 0
1, 336, Note_on_c, 0, 72, 73
1, 336, Note_on_c, 1, 67, 64
1, 336, Note_on_c, 1, 63, 64
1, 381, Note_on_c, 0, 72, 0
1, 381, Note_on_c, 1, 67, 0
1, 381, Note_on_c, 1, 63, 0
1, 384, Note_on_c, 0, 71, 75
1, 384, Note_on_c, 1, 68, 66
1, 384, Note_on_c, 1, 65, 66
1, 418, Note_on_c, 0, 71, 0
1, 420, Note_on_c, 0, 72, 73
1, 426, Note_on_c, 0, 72, 0
1, 426, Note_on_c, 0, 74, 72
1, 429, Note_on_c, 1, 68, 0
1, 429, Note_on_c, 1, 65, 0
1, 432, Note_on_c, 0, 74, 0
1, 432, Note_on_c, 0, 72, 72
1, 432, Note_on_c, 1, 67, 64
1, 432, Note_on_c, 1, 63, 64
1, 477, Note_on_c, 0, 72, 0
1, 477, Note_on_c, 1, 67, 0
1, 477, Note_on_c, 1, 63, 0
1, 480, Note_on_c, 0, 68, 86
1, 480, Note_on_c, 0, 65, 86
1, 528, Note_on_c, 1, 59, 78
1, 576, Note_on_c, 0, 68, 0
1, 576, Note_on_c, 0, 65, 0
1, 576, Note_on_c, 0, 67, 70
1, 576, Note_on_c, 0, 63, 70
1, 576, Note_on_c, 1, 59, 0
1, 576, Note_on_c, 1, 60, 62
1, 621, Note_on_c, 0, 67, 0
1, 621, Note_on_c, 0, 63, 0
1, 621, Note_on_c, 1, 60, 0
1, 624, Note_on_c, 0, 72, 70
1, 624, Note_on_c, 1, 56, 62
1, 658, Note_on_c, 0, 72, 0
1, 660, Note_on_c, 0, 60, 70
1, 669, Note_on_c, 1, 56, 0
1, 672, Note_on_c, 0, 60, 0
1, 672, Note_on_c, 0, 63, 70
1, 672, Note_on_c, 1, 53, 66
1, 695, Note_on_c, 0, 63, 0
1, 696, Note_on_c, 0, 62, 69
1, 717, Note_on_c, 1, 53, 0
1, 719, Note_on_c, 0, 62, 0
1, 720, Note_on_c, 0, 60, 68
1, 720, Note_on_c, 1, 55, 65
1, 743, Note_on_c, 0, 60, 0
1, 744, Note_on_c, 0, 59, 68
1, 765, Note_on_c, 1, 55, 0
1, 767, Note_on_c, 0, 59, 0
1, 768, Note_on_c, 0, 60, 67
1, 768, Note_on_c, 1, 48, 64
1, 813, Note_on_c, 0, 60, 0
1, 816, Note_on_c, 0, 55, 62
1, 857, Note_on_c, 1, 48, 0
1, 861, Note_on_c, 0, 55, 0
1, 912, Note_on_c, 0, 79, 70
1, 957, Note_on_c, 0, 79, 0
1, 960, Note_on_c, 0, 77, 70
1, 983, Note_on_c, 0, 77, 0
1, 984, Note_on_c, 0, 75, 70
1, 1007, Note_on_c, 0, 75, 0
1, 1008, Note_on_c, 0, 74, 70
1, 1008, Note_on_c, 1, 51, 66
1, 1008, Note_on_c, 1, 48, 66
1, 1031, Note_on_c, 0, 74, 0
1, 1032, Note_on_c, 0, 72, 70
1, 1053, Note_on_c, 1, 51, 0
1, 1053, Note_on_c, 1, 48, 0
1, 1055, Note_on_c, 0, 72, 0
1, 1056, Note_on_c, 0, 72, 70
1, 1056, Note_on_c, 1, 53, 66
1, 1056, Note_on_c, 1, 50, 66
1, 1101, Note_on_c, 0, 72, 0
1, 1101, Note_on_c, 1, 53, 0
1, 1101, Note_on_c, 1, 50, 0
1, 1104, Note_on_c, 0, 72, 71
1, 1104, Note_on_c, 1, 55, 67
1, 1104, Note_on_c, 1, 51, 67
1, 1149, Note_on_c, 0, 72, 0
1, 1149, Note_on_c, 1, 55, 0
1, 1149, Note_on_c, 1, 51, 0
1, 1152, Note_on_c, 0, 72, 72
1, 1152, Note_on_c, 1, 54, 67
1, 1152, Note_on_c, 1, 50, 67
1, 1164, Note_on_c, 0, 72, 0
1, 1164, Note_on_c, 0, 84, 88
1, 1241, Note_on_c, 1, 54, 0
1, 1241, Note_on_c, 1, 50, 0
1, 1248, Note_on_c, 0, 84, 0
1, 1248, Note_on_c, 0, 82, 74
1, 1248, Note_on_c, 1, 57, 68
1, 1248, Note_on_c, 1, 48, 68
1, 1271, Note_on_c, 0, 82, 0
1, 1272, Note_on_c, 0, 81, 74
1, 1295, Note_on_c, 0, 81, 0
1, 1296, Note_on_c, 0, 79, 75
1, 1319, Note_on_c, 0, 79, 0
1, 1320, Note_on_c, 0, 78, 74
1, 1337, Note_on_c, 1, 57, 0
1, 1337, Note_on_c, 1, 48, 0
1, 1343, Note_on_c, 0, 78, 0
1, 1344, Note_on_c, 0, 79, 73
1, 1344, Note_on_c, 1, 58, 70
1, 1344, Note_on_c, 1, 46, 70
1, 1378, Note_on_c, 0, 79, 0
1, 1380, Note_on_c, 0, 74, 72
1, 1389, Note_on_c, 1, 58, 0
1, 1389, Note_on_c, 1, 46, 0
1, 1392, Note_on_c, 0, 74, 0
1, 1392, Note_on_c, 0, 77, 72
1, 1392, Note_on_c, 1, 55, 68
1, 1392, Note_on_c, 1, 48, 68
1, 1404, Note_on_c, 0, 77, 0
1, 1404, Note_on_c, 0, 75, 72
1, 1416, Note_on_c, 0, 75, 0
1, 1416, Note_on_c, 0, 74, 71
1, 1428, Note_on_c, 0, 74, 0
1, 1428, Note_on_c, 0, 72, 71
1, 1437, Note_on_c, 1, 55, 0
1, 1437, Note_on_c, 1, 48, 0
1, 1440, Note_on_c, 0, 72, 0
1, 1440, Note_on_c, 0, 70, 71
1, 1440, Note_on_c, 1, 55, 66
1, 1440, Note_on_c, 0, 50, 64
1, 1485, Note_on_c, 0, 70, 0
1, 1485, Note_on_c, 1, 55, 0
1, 1488, Note_on_c, 0, 69, 70
1, 1488, Note_on_c, 1, 54, 64
1, 1495, Note_on_c, 0, 69, 0
1, 1495, Note_on_c, 0, 70, 70
1, 1502, Note_on_c, 0, 70, 0
1, 1502, Note_on_c, 0, 69, 70
1, 1509, Note_on_c, 0, 69, 0
1, 1509, Note_on_c, 0, 70, 70
1, 1516, Note_on_c, 0, 70, 0
1, 1516, Note_on_c, 0, 69, 70
1, 1523, Note_on_c, 0, 69, 0
1, 1523, Note_on_c, 0, 67, 70
1, 1529, Note_on_c, 0, 50, 0
1, 1530, Note_on_c, 0, 67, 0
1, 1530, Note_on_c, 0, 69, 70
1, 1533, Note_on_c, 1, 54, 0
1, 1536, Note_on_c, 0, 69, 0
1, 1536, Note_on_c, 0, 67, 70
1, 1536, Note_on_c, 1, 55, 62
1, 1551, Note_on_c, 1, 55, 0
1, 1552, Note_on_c, 1, 58, 62
1, 1567, Note_on_c, 1, 58, 0
1, 1568, Note_on_c, 1, 62, 62
1, 1583, Note_on_c, 1, 62, 0
1, 1584, Note_on_c, 1, 55, 62
1, 1599, Note_on_c, 1, 55, 0
1, 1600, Note_on_c, 1, 58, 62
1, 1615, Note_on_c, 1, 58, 0
1, 1616, Note_on_c, 1, 62, 62
1, 1625, Note_on_c, 0, 67, 0
1, 1631, Note_on_c, 1, 62, 0
1, 1632, Note_on_c, 1, 55, 62
1, 1647, Note_on_c, 1, 55, 0
1, 1648, Note_on_c, 1, 58, 62
1, 1663, Note_on_c, 1, 58, 0
1, 1664, Note_on_c, 1, 62, 62
1, 1679, Note_on_c, 1, 62, 0
1, 1680, Note_on_c, 1, 55, 62
1, 1695, Note_on_c, 1, 55, 0
1, 1696, Note_on_c, 1, 58, 62
1, 1711, Note_on_c, 1, 58, 0
1, 1712, Note_on_c, 1, 62, 62
1, 1727, Note_on_c, 1, 62, 0
1, 1728, Note_on_c, 0, 75, 70
1, 1728, Note_on_c, 1, 54, 66
1, 1734, Note_on_c, 0, 75, 0
1, 1734, Note_on_c, 0, 74, 70
1, 1740, Note_on_c, 0, 74, 0
1, 1740, Note_on_c, 0, 73, 70
1, 1743, Note_on_c, 1, 54, 0
1, 1744, Note_on_c, 1, 57, 66
1, 1746, Note_on_c, 0, 73, 0
1, 1746, Note_on_c, 0, 74, 70
1, 1759, Note_on_c, 1, 57, 0
1, 1760, Note_on_c, 1, 62, 66
1, 1775, Note_on_c, 1, 62, 0
1, 1776, Note_on_c, 1, 54, 66
1, 1791, Note_on_c, 1, 54, 0
1, 1792, Note_on_c, 1, 57, 66
1, 1807, Note_on_c, 1, 57, 0
1, 1808, Note_on_c, 1, 62, 66
1, 1817, Note_on_c, 0, 74, 0
1, 1823, Note_on_c, 1, 62, 0
1, 1824, Note_on_c, 0, 81, 70
1, 1824, Note_on_c, 1, 54, 66
1, 1830, Note_on_c, 0, 81, 0
1, 1830, Note_on_c, 0, 82, 70
1, 1836, Note_on_c, 0, 82, 0
1, 1836, Note_on_c, 0, 84, 70
1, 1839, Note_on_c, 1, 54, 0
1, 1840, Note_on_c, 1, 57, 66
1, 1855, Note_on_c, 1, 57, 0
1, 1856, Note_on_c, 1, 62, 66
1, 1871, Note_on_c, 1, 62, 0
1, 1872, Note_on_c, 1, 54, 66
1, 1887, Note_on_c, 1, 54, 0
1, 1888, Note_on_c, 1, 57, 66
1, 1891, Note_on_c, 0, 84, 0
1, 1896, Note_on_c, 0, 82, 70
1, 1903, Note_on_c, 1, 57, 0
1, 1904, Note_on_c, 1, 62, 66
1, 1908, Note_on_c, 0, 82, 0
1, 1908, Note_on_c, 0, 81, 70
1, 1919, Note_on_c, 1, 62, 0
1, 1920, Note_on_c, 0, 81, 0
1, 1920, Note_on_c, 0, 79, 70
1, 1920, Note_on_c, 1, 55, 66
1, 1935, Note_on_c, 1, 55, 0
1, 1936, Note_on_c, 1, 58, 66
1, 1951, Note_on_c, 1, 58, 0
1, 1952, Note_on_c, 1, 62, 66
1, 1967, Note_on_c, 1, 62, 0
1, 1968, Note_on_c, 0, 79, 0
1, 1968, Note_on_c, 0, 74, 70
1, 1968, Note_on_c, 1, 55, 66
1, 1983, Note_on_c, 1, 55, 0
1, 1984, Note_on_c, 1, 58, 66
1, 1999, Note_on_c, 1, 58, 0
1, 2000, Note_on_c, 1, 62, 66
1, 2013, Note_on_c, 0, 74, 0
1, 2015, Note_on_c, 1, 62, 0
1, 2016, Note_on_c, 1, 55, 66
1, 2031, Note_on_c, 1, 55, 0
1, 2032, Note_on_c, 1, 58, 66
1, 2047, Note_on_c, 1, 58, 0
1, 2048, Note_on_c, 1, 62, 66
1, 2063, Note_on_c, 1, 62, 0
1, 2064, Note_on_c, 1, 55, 66
1, 2079, Note_on_c, 1, 55, 0
1, 2080, Note_on_c, 1, 58, 66
1, 2095, Note_on_c, 1, 58, 0
1, 2096, Note_on_c, 1, 62, 66
1, 2111, Note_on_c, 1, 62, 0
1, 2112, Note_on_c, 0, 75, 62
1, 2112, Note_on_c, 1, 54, 66
1, 2118, Note_on_c, 0, 75, 0
1, 2118, Note_on_c, 0, 74, 62
1, 2124, Note_on_c, 0, 74, 0
1, 2124, Note_on_c, 0, 73, 62
1, 2127, Note_on_c, 1, 54, 0
1, 2128, Note_on_c, 1, 57, 66
1, 2130, Note_on_c, 0, 73, 0
1, 2130, Note_on_c, 0, 74, 62
1, 2143, Note_on_c, 1, 57, 0
1, 2144, Note_on_c, 1, 62, 66
1, 2159, Note_on_c, 1, 62, 0
1, 2160, Note_on_c, 1, 54, 66
1, 2175, Note_on_c, 1, 54, 0
1, 2176, Note_on_c, 1, 57, 66
1, 2191, Note_on_c, 1, 57, 0
1, 2192, Note_on_c, 1, 62, 66
1, 2201, Note_on_c, 0, 74, 0
1, 2207, Note_on_c, 1, 62, 0
1, 2208, Note_on_c, 0, 81, 62
1, 2208, Note_on_c, 1, 54, 66
1, 2214, Note_on_c, 0, 81, 0
1, 2214, Note_on_c, 0, 82, 62
1, 2220, Note_on_c, 0, 82, 0
1, 2220, Note_on_c, 0, 84, 62
1, 2223, Note_on_c, 1, 54, 0
1, 2224, Note_on_c, 1, 57, 66
1, 2239, Note_on_c, 1, 57, 0
1, 2240, Note_on_c, 1, 62, 66
1, 2255, Note_on_c, 1, 62, 0
1, 2256, Note_on_c, 1, 54, 66
1, 2271, Note_on_c, 1, 54, 0
1, 2272, Note_on_c, 1, 57, 66
1, 2275, Note_on_c, 0, 84, 0
1, 2280, Note_on_c, 0, 82, 62
1, 2287, Note_on_c, 1, 57, 0
1, 2288, Note_on_c, 1, 62, 66
1, 2292, Note_on_c, 0, 82, 0
1, 2292, Note_on_c, 0, 81, 62
1, 2303, Note_on_c, 1, 62, 0
1, 2304, Note_on_c, 0, 81, 0
1, 2304, Note_on_c, 0, 79, 62
1, 2304, Note_on_c, 1, 55, 66
1, 2319, Note_on_c, 1, 55, 0
1, 2320, Note_on_c, 1, 58, 66
1, 2335, Note_on_c, 1, 58, 0
1, 2336, Note_on_c, 1, 62, 66
1, 2351, Note_on_c, 1, 62, 0
1, 2352, Note_on_c, 0, 79, 0
1, 2352, Note_on_c, 0, 74, 62
1, 2352, Note_on_c, 1, 55, 66
1, 2367, Note_on_c, 1, 55, 0
1, 2368, Note_on_c, 1, 58, 66
1, 2383, Note_on_c, 1, 58, 0
1, 2384, Note_on_c, 1, 62, 66
1, 2397, Note_on_c, 0, 74, 0
1, 2399, Note_on_c, 1, 62, 0
1, 2400, Note_on_c, 1, 55, 66
1, 2415, Note_on_c, 1, 55, 0
1, 2416, Note_on_c, 1, 58, 66
1, 2431, Note_on_c, 1, 58, 0
1, 2432, Note_on_c, 1, 62, 66
1, 2447, Note_on_c, 1, 62, 0
1, 2448, Note_on_c, 1, 55, 66
1, 2463, Note_on_c, 1, 55, 0
1, 2464, Note_on_c, 1, 58, 66
1, 2479, Note_on_c, 1, 58, 0
1, 2480, Note_on_c, 1, 62, 66
1, 2495, Note_on_c, 1, 62, 0
1, 2496, Note_on_c, 0, 84, 75
1, 2496, Note_on_c, 1, 50, 66
1, 2503, Note_on_c, 0, 84, 0
1, 2503, Note_on_c, 0, 82, 75
1, 2510, Note_on_c, 0, 82, 0
1, 2510, Note_on_c, 0, 84, 75
1, 2511, Note_on_c, 1, 50, 0
1, 2512, Note_on_c, 1, 53, 66
1, 2517, Note_on_c, 0, 84, 0
1, 2517, Note_on_c, 0, 82, 75
1, 2524, Note_on_c, 0, 82, 0
1, 2524, Note_on_c, 0, 84, 75
1, 2527, Note_on_c, 1, 53, 0
1, 2528, Note_on_c, 1, 58, 66
1, 2531, Note_on_c, 0, 84, 0
1, 2531, Note_on_c, 0, 82, 75
1, 2538, Note_on_c, 0, 82, 0
1, 2538, Note_on_c, 0, 84, 75
1, 2543, Note_on_c, 1, 58, 0
1, 2544, Note_on_c, 1, 50, 66
1, 2545, Note_on_c, 0, 84, 0
1, 2545, Note_on_c, 0, 82, 75
1, 2552, Note_on_c, 0, 82, 0
1, 2552, Note_on_c, 0, 84, 75
1, 2559, Note_on_c, 0, 84, 0
1, 2559, Note_on_c, 0, 82, 75
1, 2559, Note_on_c, 1, 50, 0
1, 2560, Note_on_c, 1, 53, 66
1, 2566, Note_on_c, 0, 82, 0
1, 2566, Note_on_c, 0, 84, 75
1, 2573, Note_on_c, 0, 84, 0
1, 2573, Note_on_c, 0, 82, 75
1, 2575, Note_on_c, 1, 53, 0
1, 2576, Note_on_c, 1, 58, 66
1, 2580, Note_on_c, 0, 82, 0
1, 2580, Note_on_c, 0, 81, 75
1, 2586, Note_on_c, 0, 81, 0
1, 2586, Note_on_c, 0, 79, 75
1, 2591, Note_on_c, 1, 58, 0
1, 2592, Note_on_c, 0, 79, 0
1, 2592, Note_on_c, 0, 77, 75
1, 2592, Note_on_c, 1, 50, 66
1, 2607, Note_on_c, 1, 50, 0
1, 2608, Note_on_c, 1, 53, 66
1, 2623, Note_on_c, 1, 53, 0
1, 2624, Note_on_c, 1, 58, 66
1, 2639, Note_on_c, 1, 58, 0
1, 2640, Note_on_c, 1, 50, 66
1, 2655, Note_on_c, 1, 50, 0
1, 2656, Note_on_c, 1, 53, 66
1, 2664, Note_on_c, 0, 77, 0
1, 2664, Note_on_c, 0, 78, 79
1, 2671, Note_on_c, 1, 53, 0
1, 2672, Note_on_c, 1, 58, 66
1, 2687, Note_on_c, 0, 78, 0
1, 2687, Note_on_c, 1, 58, 0
1, 2688, Note_on_c, 0, 81, 81
1, 2688, Note_on_c, 1, 51, 66
1, 2694, Note_on_c, 0, 81, 0
1, 2694, Note_on_c, 0, 79, 81
1, 2700, Note_on_c, 0, 79, 0
1, 2700, Note_on_c, 0, 78, 81
1, 2703, Note_on_c, 1, 51, 0
1, 2704, Note_on_c, 1, 55, 66
1, 2706, Note_on_c, 0, 78, 0
1, 2706, Note_on_c, 0, 79, 81
1, 2719, Note_on_c, 1, 55, 0
1, 2720, Note_on_c, 1, 58, 66
1, 2733, Note_on_c, 0, 79, 0
1, 2735, Note_on_c, 1, 58, 0
1, 2736, Note_on_c, 1, 51, 66
1, 2751, Note_on_c, 1, 51, 0
1, 2752, Note_on_c, 1, 55, 66
1, 2767, Note_on_c, 1, 55, 0
1, 2768, Note_on_c, 1, 58, 66
1, 2783, Note_on_c, 1, 58, 0
1, 2784, Note_on_c, 0, 81, 81
1, 2784, Note_on_c, 1, 51, 66
1, 2790, Note_on_c, 0, 81, 0
1, 2790, Note_on_c, 0, 79, 81
1, 2796, Note_on_c, 0, 79, 0
1, 2796, Note_on_c, 0, 78, 81
1, 2799, Note_on_c, 1, 51, 0
1, 2800, Note_on_c, 1, 55, 66
1, 2802, Note_on_c, 0, 78, 0
1, 2802, Note_on_c, 0, 79, 81
1, 2815, Note_on_c, 1, 55, 0
1, 2816, Note_on_c, 1, 58, 66
1, 2829, Note_on_c, 0, 79, 0
1, 2831, Note_on_c, 1, 58, 0
1, 2832, Note_on_c, 1, 51, 66
1, 2847, Note_on_c, 1, 51, 0
1, 2848, Note_on_c, 1, 55, 66
1, 2863, Note_on_c, 1, 55, 0
1, 2864, Note_on_c, 1, 58, 66
1, 2879, Note_on_c, 1, 58, 0
1, 2880, Note_on_c, 0, 84, 70
1, 2880, Note_on_c, 1, 50, 62
1, 2887, Note_on_c, 0, 84, 0
1, 2887, Note_on_c, 0, 82, 70
1, 2894, Note_on_c, 0, 82, 0
1, 2894, Note_on_c, 0, 84, 70
1, 2895, Note_on_c, 1, 50, 0
1, 2896, Note_on_c, 1, 53, 62
1, 2901, Note_on_c, 0, 84, 0
1, 2901, Note_on_c, 0, 82, 70
1, 2908, Note_on_c, 0, 82, 0
1, 2908, Note_on_c, 0, 84, 70
1, 2911, Note_on_c, 1, 53, 0
1, 2912, Note_on_c, 1, 58, 62
1, 2915, Note_on_c, 0, 84, 0
1, 2915, Note_on_c, 0, 82, 70
1, 2922, Note_on_c, 0, 82, 0
1, 2922, Note_on_c, 0, 84, 70
1, 2927, Note_on_c, 1, 58, 0
1, 2928, Note_on_c, 1, 50, 62
1, 2929, Note_on_c, 0, 84, 0
1, 2929, Note_on_c, 0, 82, 70
1, 2936, Note_on_c, 0, 82, 0
1, 2936, Note_on_c, 0, 84, 70
1, 2943, Note_on_c, 0, 84, 0
1, 2943, Note_on_c, 0, 82, 70
1, 2943, Note_on_c, 1, 50, 0
1, 2944, Note_on_c, 1, 53, 62
1, 2950, Note_on_c, 0, 82, 0
1, 2950, Note_on_c, 0, 84, 70
1, 2957, Note_on_c, 0, 84, 0
1, 2957, Note_on_c, 0, 82, 70
1, 2959, Note_on_c, 1, 53, 0
1, 2960, Note_on_c, 1, 58, 62
1, 2964, Note_on_c, 0, 82, 0
1, 2964, Note_on_c, 0, 81, 70
1, 2970, Note_on_c, 0, 81, 0
1, 2970, Note_on_c, 0, 79, 70
1, 2975, Note_on_c, 1, 58, 0
1, 2976, Note_on_c, 0, 79, 0
1, 2976, Note_on_c, 0, 77, 70
1, 2976, Note_on_c, 1, 50, 62
1, 2991, Note_on_c, 1, 50, 0
1, 2992, Note_on_c, 1, 53, 62
1, 3007, Note_on_c, 1, 53, 0
1, 3008, Note_on_c, 1, 58, 62
1, 3023, Note_on_c, 1, 58, 0
1, 3024, Note_on_c, 1, 50, 62
1, 3039, Note_on_c, 1, 50, 0
1, 3040, Note_on_c, 1, 53, 62
1, 3048, Note_on_c, 0, 77, 0
1, 3048, Note_on_c, 0, 78, 73
1, 3055, Note_on_c, 1, 53, 0
1, 3056, Note_on_c, 1, 58, 62
1, 3071, Note_on_c, 0, 78, 0
1, 3071, Note_on_c, 1, 58, 0
1, 3072, Note_on_c, 0, 81, 75
1, 3072, Note_on_c, 1, 51, 62
1, 3078, Note_on_c, 0, 81, 0
1, 3078, Note_on_c, 0, 79, 75
1, 3084, Note_on_c, 0, 79, 0
1, 3084, Note_on_c, 0, 78, 75
1, 3087, Note_on_c, 1, 51, 0
1, 3088, Note_on_c, 1, 55, 62
1, 3090, Note_on_c, 0, 78, 0
1, 3090, Note_on_c, 0, 79, 75
1, 3103, Note_on_c, 1, 55, 0
1, 3104, Note_on_c, 1, 58, 62
1, 3117, Note_on_c, 0, 79, 0
1, 3119, Note_on_c, 1, 58, 0
1, 3120, Note_on_c, 1, 51, 62
1, 3135, Note_on_c, 1, 51, 0
1, 3136, Note_on_c, 1, 55, 62
1, 3151, Note_on_c, 1, 55, 0
1, 3152, Note_on_c, 1, 58, 62
1, 3167, Note_on_c, 1, 58, 0
1, 3168, Note_on_c, 0, 81, 75
1, 3168, Note_on_c, 1, 51, 62
1, 3174, Note_on_c, 0, 81, 0
1, 3174, Note_on_c, 0, 79, 75
1, 3180, Note_on_c, 0, 79, 0
1, 3180, Note_on_c, 0, 78, 75
1, 3183, Note_on_c, 1, 51, 0
1, 3184, Note_on_c, 1, 55, 62
1, 3186, Note_on_c, 0, 78, 0
1, 3186, Note_on_c, 0, 79, 75
1, 3199, Note_on_c, 1, 55, 0
1, 3200, Note_on_c, 1, 58, 62
1, 3213, Note_on_c, 0, 79, 0
1, 3215, Note_on_c, 1, 58, 0
1, 3216, Note_on_c, 1, 51, 62
1, 3231, Note_on_c, 1, 51, 0
1, 3232, Note_on_c, 1, 55, 62
1, 3247, Note_on_c, 1, 55, 0
1, 3248, Note_on_c, 1, 58, 62
1, 3263, Note_on_c, 1, 58, 0
1, 3264, Note_on_c, 0, 84, 75
1, 3264, Note_on_c, 1, 50, 66
1, 3271, Note_on_c, 0, 84, 0
1, 3271, Note_on_c, 0, 82, 75
1, 3278, Note_on_c, 0, 82, 0
1, 3278, Note_on_c, 0, 84, 75
1, 3279, Note_on_c, 1, 50, 0
1, 3280, Note_on_c, 1, 53, 66
1, 3285, Note_on_c, 0, 84, 0
1, 3285, Note_on_c, 0, 82, 75
1, 3292, Note_on_c, 0, 82, 0
1, 3292, Note_on_c, 0, 84, 75
1, 3295, Note_on_c, 1, 53, 0
1, 3296, Note_on_c, 1, 58, 66
1, 3299, Note_on_c, 0, 84, 0
1, 3299, Note_on_c, 0, 82, 75
1, 3306, Note_on_c, 0, 82, 0
1, 3306, Note_on_c, 0, 84, 75
1, 3311, Note_on_c, 1, 58, 0
1, 3312, Note_on_c, 1, 50, 66
1, 3313, Note_on_c, 0, 84, 0
1, 3313, Note_on_c, 0, 82, 75
1, 3320, Note_on_c, 0, 82, 0
1, 3320, Note_on_c, 0, 84, 75
1, 3327, Note_on_c, 0, 84, 0
1, 3327, Note_on_c, 0, 82, 75
1, 3327, Note_on_c, 1, 50, 0
1, 3328, Note_on_c, 1, 53, 66
1, 3334, Note_on_c, 0, 82, 0
1, 3334, Note_on_c, 0, 84, 75
1, 3341, Note_on_c, 0, 84, 0
1, 3341, Note_on_c, 0, 82, 75
1, 3343, Note_on_c, 1, 53, 0
1, 3344, Note_on_c, 1, 58, 66
1, 3348, Note_on_c, 0, 82, 0
1, 3348, Note_on_c, 0, 81, 75
1, 3354, Note_on_c, 0, 81, 0
1, 3354, Note_on_c, 0, 79, 75
1, 3359, Note_on_c, 1, 58, 0
1, 3360, Note_on_c, 0, 79, 0
1, 3360, Note_on_c, 0, 77, 75
1, 3360, Note_on_c, 1, 50, 66
1, 3375, Note_on_c, 1, 50, 0
1, 3376, Note_on_c, 1, 53, 66
1, 3391, Note_on_c, 1, 53, 0
1, 3392, Note_on_c, 1, 58, 66
1, 3407, Note_on_c, 1, 58, 0
1, 3408, Note_on_c, 1, 50, 66
1, 3423, Note_on_c, 1, 50, 0
1, 3424, Note_on_c, 1, 53, 66
1, 3439, Note_on_c, 1, 53, 0
1, 3440, Note_on_c, 1, 58, 66
1, 3455, Note_on_c, 1, 58, 0
1, 3456, Note_on_c, 0, 51, 64
1, 3471, Note_on_c, 0, 77, 0
1, 3472, Note_on_c, 0, 78, 91
1, 3488, Note_on_c, 0, 78, 0
1, 3488, Note_on_c, 0, 79, 75
1, 3503, Note_on_c, 0, 79, 0
1, 3504, Note_on_c, 0, 77, 75
1, 3504, Note_on_c, 1, 63, 66
1, 3516, Note_on_c, 0, 77, 0
1, 3516, Note_on_c, 0, 75, 75
1, 3528, Note_on_c, 0, 75, 0
1, 3528, Note_on_c, 0, 74, 75
1, 3540, Note_on_c, 0, 74, 0
1, 3540, Note_on_c, 0, 72, 75
1, 3545, Note_on_c, 0, 51, 0
1, 3549, Note_on_c, 1, 63, 0
1, 3552, Note_on_c, 0, 72, 0
1, 3552, Note_on_c, 0, 70, 75
1, 3552, Note_on_c, 1, 62, 66
1, 3552, Note_on_c, 0, 53, 64
1, 3597, Note_on_c, 0, 70, 0
1, 3597, Note_on_c, 1, 62, 0
1, 3600, Note_on_c, 0, 69, 75
1, 3600, Note_on_c, 1, 60, 66
1, 3607, Note_on_c, 0, 69, 0
1, 3607, Note_on_c, 0, 70, 75
1, 3614, Note_on_c, 0, 70, 0
1, 3614, Note_on_c, 0, 69, 75
1, 3621, Note_on_c, 0, 69, 0
1, 3621, Note_on_c, 0, 70, 75
1, 3628, Note_on_c, 0, 70, 0
1, 3628, Note_on_c, 0, 69, 75
1, 3635, Note_on_c, 0, 69, 0
1, 3635, Note_on_c, 0, 67, 75
1, 3641, Note_on_c, 0, 53, 0
1, 3642, Note_on_c, 0, 67, 0
1, 3642, Note_on_c, 0, 69, 75
1, 3645, Note_on_c, 1, 60, 0
1, 3648, Note_on_c, 0, 69, 0
1, 3648, Note_on_c, 0, 70, 75
1, 3648, Note_on_c, 1, 58, 66
1, 3663, Note_on_c, 1, 58, 0
1, 3664, Note_on_c, 1, 62, 66
1, 3679, Note_on_c, 1, 62, 0
1, 3680, Note_on_c, 1, 65, 66
1, 3695, Note_on_c, 1, 65, 0
1, 3696, Note_on_c, 1, 58, 66
1, 3711, Note_on_c, 1, 58, 0
1, 3712, Note_on_c, 1, 62, 66
1, 3727, Note_on_c, 1, 62, 0
1, 3728, Note_on_c, 1, 65, 66
1, 3737, Note_on_c, 0, 70, 0
1, 3743, Note_on_c, 1, 65, 0
1, 3744, Note_on_c, 0, 84, 75
1, 3744, Note_on_c, 1, 57, 66
1, 3756, Note_on_c, 0, 84, 0
1, 3756, Note_on_c, 0, 75, 75
1, 3759, Note_on_c, 1, 57, 0
1, 3760, Note_on_c, 1, 60, 66
1, 3775, Note_on_c, 1, 60, 0
1, 3776, Note_on_c, 1, 65, 66
1, 3791, Note_on_c, 1, 65, 0
1, 3792, Note_on_c, 1, 57, 66
1, 3807, Note_on_c, 1, 57, 0
1, 3808, Note_on_c, 1, 60, 66
1, 3823, Note_on_c, 1, 60, 0
1, 3824, Note_on_c, 1, 65, 66
1, 3834, Note_on_c, 0, 75, 0
1, 3839, Note_on_c, 1, 65, 0
1, 3840, Note_on_c, 0, 74, 75
1, 3840, Note_on_c, 1, 58, 66
1, 3852, Note_on_c, 0, 74, 0
1, 3852, Note_on_c, 0, 82, 75
1, 3855, Note_on_c, 1, 58, 0
1, 3856, Note_on_c, 1, 62, 66
1, 3871, Note_on_c, 1, 62, 0
1, 3872, Note_on_c, 1, 65, 66
1, 3887, Note_on_c, 1, 65, 0
1, 3888, Note_on_c, 1, 58, 66
1, 3903, Note_on_c, 1, 58, 0
1, 3904, Note_on_c, 1, 62, 66
1, 3919, Note_on_c, 1, 62, 0
1, 3920, Note_on_c, 1, 65, 66
1, 3930, Note_on_c, 0, 82, 0
1, 3935, Note_on_c, 1, 65, 0
1, 3936, Note_on_c, 0, 84, 70
1, 3936, Note_on_c, 1, 57, 62
1, 3948, Note_on_c, 0, 84, 0
1, 3948, Note_on_c, 0, 75, 70
1, 3951, Note_on_c, 1, 57, 0
1, 3952, Note_on_c, 1, 60, 62
1, 3967, Note_on_c, 1, 60, 0
1, 3968, Note_on_c, 1, 65, 62
1, 3983, Note_on_c, 1, 65, 0
1, 3984, Note_on_c, 1, 57, 62
1, 3999, Note_on_c, 1, 57, 0
1, 4000, Note_on_c, 1, 60, 62
1, 4015, Note_on_c, 1, 60, 0
1, 4016, Note_on_c, 1, 65, 62
1, 4026, Note_on_c, 0, 75, 0
1, 4031, Note_on_c, 1, 65, 0
1, 4032, Note_on_c, 0, 74, 70
1, 4032, Note_on_c, 1, 58, 62
1, 4044, Note_on_c, 0, 74, 0
1, 4044, Note_on_c, 0, 82, 70
1, 4047, Note_on_c, 1, 58, 0
1, 4048, Note_on_c, 1, 62, 62
1, 4063, Note_on_c, 1, 62, 0
1, 4064, Note_on_c, 1, 65, 62
1, 4079, Note_on_c, 1, 65, 0
1, 4080, Note_on_c, 1, 58, 62
1, 4095, Note_on_c, 1, 58, 0
1, 4096, Note_on_c, 1, 62, 62
1, 4111, Note_on_c, 1, 62, 0
1, 4112, Note_on_c, 1, 65, 62
1, 4122, Note_on_c, 0, 82, 0
1, 4127, Note_on_c, 1, 65, 0
1, 4128, Note_on_c, 0, 84, 75
1, 4128, Note_on_c, 1, 57, 66
1, 4140, Note_on_c, 0, 84, 0
1, 4140, Note_on_c, 0, 75, 75
1, 4143, Note_on_c, 1, 57, 0
1, 4144, Note_on_c, 1, 60, 66
1, 4159, Note_on_c, 1, 60, 0
1, 4160, Note_on_c, 1, 65, 66
1, 4175, Note_on_c, 1, 65, 0
1, 4176, Note_on_c, 1, 57, 66
1, 4191, Note_on_c, 1, 57, 0
1, 4192, Note_on_c, 1, 60, 66
1, 4207, Note_on_c, 1, 60, 0
1, 4208, Note_on_c, 1, 65, 66
1, 4218, Note_on_c, 0, 75, 0
1, 4223, Note_on_c, 1, 65, 0
1, 4224, Note_on_c, 0, 74, 75
1, 4224, Note_on_c, 0, 58, 64
1, 4239, Note_on_c, 0, 74, 0
1, 4240, Note_on_c, 0, 82, 74
1, 4255, Note_on_c, 0, 82, 0
1, 4256, Note_on_c, 0, 78, 73
1, 4269, Note_on_c, 0, 58, 0
1, 4271, Note_on_c, 0, 78, 0
1, 4272, Note_on_c, 0, 79, 73
1, 4272, Note_on_c, 1, 63, 72
1, 4272, Note_on_c, 0, 51, 64
1, 4287, Note_on_c, 0, 79, 0
1, 4288, Note_on_c, 0, 75, 72
1, 4303, Note_on_c, 0, 75, 0
1, 4304, Note_on_c, 0, 72, 72
1, 4317, Note_on_c, 1, 63, 0
1, 4317, Note_on_c, 0, 51, 0
1, 4319, Note_on_c, 0, 72, 0
1, 4320, Note_on_c, 0, 70, 71
1, 4320, Note_on_c, 1, 62, 70
1, 4320, Note_on_c, 0, 53, 64
1, 4365, Note_on_c, 0, 70, 0
1, 4365, Note_on_c, 1, 62, 0
1, 4368, Note_on_c, 0, 69, 69
1, 4368, Note_on_c, 1, 60, 68
1, 4375, Note_on_c, 0, 69, 0
1, 4375, Note_on_c, 0, 70, 69
1, 4382, Note_on_c, 0, 70, 0
1, 4382, Note_on_c, 0, 69, 68
1, 4389, Note_on_c, 0, 69, 0
1, 4389, Note_on_c, 0, 70, 68
1, 4396, Note_on_c, 0, 70, 0
1, 4396, Note_on_c, 0, 69, 68
1, 4403, Note_on_c, 0, 69, 0
1, 4403, Note_on_c, 0, 67, 67
1, 4409, Note_on_c, 0, 53, 0
1, 4410, Note_on_c, 0, 67, 0
1, 4410, Note_on_c, 0, 69, 67
1, 4413, Note_on_c, 1, 60, 0
1, 4416, Note_on_c, 0, 69, 0
1, 4416, Note_on_c, 0, 70, 66
1, 4416, Note_on_c, 1, 58, 66
1, 4461, Note_on_c, 1, 58, 0
1, 4464, Note_on_c, 1, 46, 66
1, 4505, Note_on_c, 0, 70, 0
1, 4509, Note_on_c, 1, 46, 0
1, 4560, Tempo, 1000000
1, 4560, Note_on_c, 0, 79, 86
1, 4608, Note_on_c, 0, 79, 0
1, 4608, Note_on_c, 0, 77, 70
1, 4631, Note_on_c, 0, 77, 0
1, 4632, Note_on_c, 0, 75, 70
1, 4655, Note_on_c, 0, 75, 0
1, 4656, Note_on_c, 0, 74, 70
1, 4656, Note_on_c, 1, 63, 62
1, 4656, Note_on_c, 1, 60, 62
1, 4679, Note_on_c, 0, 74, 0
1, 4680, Note_on_c, 0, 72, 70
1, 4701, Note_on_c, 1, 63, 0
1, 4701, Note_on_c, 1, 60, 0
1, 4703, Note_on_c, 0, 72, 0
1, 4704, Note_on_c, 0, 72, 71
1, 4704, Note_on_c, 1, 65, 63
1, 4704, Note_on_c, 1, 62, 63
1, 4749, Note_on_c, 0, 72, 0
1, 4749, Note_on_c, 1, 65, 0
1, 4749, Note_on_c, 1, 62, 0
1, 4752, Note_on_c, 0, 72, 73
1, 4752, Note_on_c, 1, 67, 64
1, 4752, Note_on_c, 1, 63, 64
1, 4797, Note_on_c, 0, 72, 0
1, 4797, Note_on_c, 1, 67, 0
1, 4797, Note_on_c, 1, 63, 0
1, 4800, Note_on_c, 0, 71, 75
1, 4800, Note_on_c, 1, 68, 66
1, 4800, Note_on_c, 1, 65, 66
1, 4834, Note_on_c, 0, 71, 0
1, 4836, Note_on_c, 0, 72, 73
1, 4842, Note_on_c, 0, 72, 0
1, 4842, Note_on_c, 0, 74, 72
1, 4845, Note_on_c, 1, 68, 0
1, 4845, Note_on_c, 1, 65, 0
1, 4848, Note_on_c, 0, 74, 0
1, 4848, Note_on_c, 0, 72, 72
1, 4848, Note_on_c, 1, 67, 64
1, 4848, Note_on_c, 1, 63, 64
1, 4893, Note_on_c, 0, 72, 0
1, 4893, Note_on_c, 1, 67, 0
1, 4893, Note_on_c, 1, 63, 0
1, 4896, Note_on_c, 0, 68, 86
1, 4896, Note_on_c, 0, 65, 86
1, 4944, Note_on_c, 1, 59, 78
1, 4992, Note_on_c, 0, 68, 0
1, 4992, Note_on_c, 0, 65, 0
1, 4992, Note_on_c, 0, 67, 70
1, 4992, Note_on_c, 0, 63, 70
1, 4992, Note_on_c, 1, 59, 0
1, 4992, Note_on_c, 1, 60, 62
1, 5037, Note_on_c, 0, 67, 0
1, 5037, Note_on_c, 0, 63, 0
1, 5037, Note_on_c, 1, 60, 0
1, 5040, Note_on_c, 0, 72, 70
1, 5040, Note_on_c, 1, 56, 62
1, 5074, Note_on_c, 0, 72, 0
1, 5076, Note_on_c, 0, 60, 70
1, 5085, Note_on_c, 1, 56, 0
1, 5088, Note_on_c, 0, 60, 0
1, 5088, Note_on_c, 0, 63, 70
1, 5088, Note_on_c, 1, 53, 66
1, 5111, Note_on_c, 0, 63, 0
1, 5112, Note_on_c, 0, 62, 69
1, 5133, Note_on_c, 1, 53, 0
1, 5135, Note_on_c, 0, 62, 0
1, 5136, Note_on_c, 0, 60, 68
1, 5136, Note_on_c, 1, 55, 65
1, 5159, Note_on_c, 0, 60, 0
1, 5160, Note_on_c, 0, 59, 68
1, 5181, Note_on_c, 1, 55, 0
1, 5183, Note_on_c, 0, 59, 0
1, 5184, Note_on_c, 0, 60, 67
1, 5184, Note_on_c, 1, 48, 64
1, 5229, Note_on_c, 0, 60, 0
1, 5232, Note_on_c, 0, 55, 62
1, 5273, Note_on_c, 1, 48, 0
1, 5277, Note_on_c, 0, 55, 0
1, 5328, Note_on_c, 0, 79, 70
1, 5373, Note_on_c, 0, 79, 0
1, 5376, Note_on_c, 0, 77, 70
1, 5399, Note_on_c, 0, 77, 0
1, 5400, Note_on_c, 0, 75, 70
1, 5423, Note_on_c, 0, 75, 0
1, 5424, Note_on_c, 0, 74, 70
1, 5424, Note_on_c, 1, 51, 66
1, 5424, Note_on_c, 1, 48, 66
1, 5447, Note_on_c, 0, 74, 0
1, 5448, Note_on_c, 0, 72, 70
1, 5469, Note_on_c, 1, 51, 0
1, 5469, Note_on_c, 1, 48, 0
1, 5471, Note_on_c, 0, 72, 0
1, 5472, Note_on_c, 0, 72, 70
1, 5472, Note_on_c, 1, 53, 66
1, 5472, Note_on_c, 1, 50, 66
1, 5517, Note_on_c, 0, 72, 0
1, 5517, Note_on_c, 1, 53, 0
1, 5517, Note_on_c, 1, 50, 0
1, 5520, Note_on_c, 0, 72, 71
1, 5520, Note_on_c, 1, 55, 67
1, 5520, Note_on_c, 1, 51, 67
1, 5565, Note_on_c, 0, 72, 0
1, 5565, Note_on_c, 1, 55, 0
1, 5565, Note_on_c, 1, 51, 0
1, 5568, Note_on_c, 0, 72, 72
1, 5568, Note_on_c, 1, 54, 67
1, 5568, Note_on_c, 1, 50, 67
1, 5580, Note_on_c, 0, 72, 0
1, 5580, Note_on_c, 0, 84, 88
1, 5657, Note_on_c, 1, 54, 0
1, 5657, Note_on_c, 1, 50, 0
1, 5664, Note_on_c, 0, 84, 0
1, 5664, Note_on_c, 0, 82, 74
1, 5664, Note_on_c, 1, 57, 68
1, 5664, Note_on_c, 1, 48, 68
1, 5687, Note_on_c, 0, 82, 0
1, 5688, Note_on_c, 0, 81, 74
1, 5711, Note_on_c, 0, 81, 0
1, 5712, Note_on_c, 0, 79, 75
1, 5735, Note_on_c, 0, 79, 0
1, 5736, Note_on_c, 0, 78, 74
1, 5753, Note_on_c, 1, 57, 0
1, 5753, Note_on_c, 1, 48, 0
1, 5759, Note_on_c, 0, 78, 0
1, 5760, Note_on_c, 0, 79, 73
1, 5760, Note_on_c, 1, 58, 70
1, 5760, Note_on_c, 1, 46, 70
1, 5794, Note_on_c, 0, 79, 0
1, 5796, Note_on_c, 0, 74, 72
1, 5805, Note_on_c, 1, 58, 0
1, 5805, Note_on_c, 1, 46, 0
1, 5808, Note_on_c, 0, 74, 0
1, 5808, Note_on_c, 0, 77, 72
1, 5808, Note_on_c, 1, 55, 68
1, 5808, Note_on_c, 1, 48, 68
1, 5820, Note_on_c, 0, 77, 0
1, 5820, Note_on_c, 0, 75, 72
1, 5832, Note_on_c, 0, 75, 0
1, 5832, Note_on_c, 0, 74, 71
1, 5844, Note_on_c, 0, 74, 0
1, 5844, Note_on_c, 0, 72, 71
1, 5853, Note_on_c, 1, 55, 0
1, 5853, Note_on_c, 1, 48, 0
1, 5856, Note_on_c, 0, 72, 0
1, 5856, Note_on_c, 0, 70, 71
1, 5856, Note_on_c, 1, 55, 66
1, 5856, Note_on_c, 0, 50, 64
1, 5901, Note_on_c, 0, 70, 0
1, 5901, Note_on_c, 1, 55, 0
1, 5904, Note_on_c, 0, 69, 70
1, 5904, Note_on_c, 1, 54, 64
1, 5911, Note_on_c, 0, 69, 0
1, 5911, Note_on_c, 0, 70, 70
1, 5918, Note_on_c, 0, 70, 0
1, 5918, Note_on_c, 0, 69, 70
1, 5925, Note_on_c, 0, 69, 0
1, 5925, Note_on_c, 0, 70, 70
1, 5932, Note_on_c, 0, 70, 0
1, 5932, Note_on_c, 0, 69, 70
1, 5939, Note_on_c, 0, 69, 0
1, 5939, Note_on_c, 0, 67, 70
1, 5945, Note_on_c, 0, 50, 0
1, 5946, Note_on_c, 0, 67, 0
1, 5946, Note_on_c, 0, 69, 70
1, 5949, Note_on_c, 1, 54, 0
1, 5952, Note_on_c, 0, 69, 0
1, 5952, Note_on_c, 0, 67, 70
1, 5952, Note_on_c, 1, 55, 62
1, 5967, Note_on_c, 1, 55, 0
1, 5968, Note_on_c, 1, 58, 62
1, 5983, Note_on_c, 1, 58, 0
1, 5984, Note_on_c, 1, 62, 62
1, 5999, Note_on_c, 1, 62, 0
1, 6000, Note_on_c, 1, 55, 62
1, 6015, Note_on_c, 1, 55, 0
1, 6016, Note_on_c, 1, 58, 62
1, 6031, Note_on_c, 1, 58, 0
1, 6032, Note_on_c, 1, 62, 62
1, 6041, Note_on_c, 0, 67, 0
1, 6047, Note_on_c, 1, 62, 0
1, 6048, Note_on_c, 1, 55, 62
1, 6063, Note_on_c, 1, 55, 0
1, 6064, Note_on_c, 1, 58, 62
1, 6079, Note_on_c, 1, 58, 0
1, 6080, Note_on_c, 1, 62, 62
1, 6095, Note_on_c, 1, 62, 0
1, 6096, Note_on_c, 1, 55, 62
1, 6111, Note_on_c, 1, 55, 0
1, 6112, Note_on_c, 1, 58, 62
1, 6127, Note_on_c, 1, 58, 0
1, 6128, Note_on_c, 1, 62, 62
1, 6143, Note_on_c, 1, 62, 0
1, 6144, Note_on_c, 0, 75, 70
1, 6144, Note_on_c, 1, 54, 66
1, 6150, Note_on_c, 0, 75, 0
1, 6150, Note_on_c, 0, 74, 70
1, 6156, Note_on_c, 0, 74, 0
1, 6156, Note_on_c, 0, 73, 70
1, 6159, Note_on_c, 1, 54, 0
1, 6160, Note_on_c, 1, 57, 66
1, 6162, Note_on_c, 0, 73, 0
1, 6162, Note_on_c, 0, 74, 70
1, 6175, Note_on_c, 1, 57, 0
1, 6176, Note_on_c, 1, 62, 66
1, 6191, Note_on_c, 1, 62, 0
1, 6192, Note_on_c, 1, 54, 66
1, 6207, Note_on_c, 1, 54, 0
1, 6208, Note_on_c, 1, 57, 66
1, 6223, Note_on_c, 1, 57, 0
1, 6224, Note_on_c, 1, 62, 66
1, 6233, Note_on_c, 0, 74, 0
1, 6239, Note_on_c, 1, 62, 0
1, 6240, Note_on_c, 0, 81, 70
1, 6240, Note_on_c, 1, 54, 66
1, 6246, Note_on_c, 0, 81, 0
1, 6246, Note_on_c, 0, 82, 70
1, 6252, Note_on_c, 0, 82, 0
1, 6252, Note_on_c, 0, 84, 70
1, 6255, Note_on_c, 1, 54, 0
1, 6256, Note_on_c, 1, 57, 66
1, 6271, Note_on_c, 1, 57, 0
1, 6272, Note_on_c, 1, 62, 66
1, 6287, Note_on_c, 1, 62, 0
1, 6288, Note_on_c, 1, 54, 66
1, 6303, Note_on_c, 1, 54, 0
1, 6304, Note_on_c, 1, 57, 66
1, 6307, Note_on_c, 0, 84, 0
1, 6312, Note_on_c, 0, 82, 70
1, 6319, Note_on_c, 1, 57, 0
1, 6320, Note_on_c, 1, 62, 66
1, 6324, Note_on_c, 0, 82, 0
1, 6324, Note_on_c, 0, 81, 70
1, 6335, Note_on_c, 1, 62, 0
1, 6336, Note_on_c, 0, 81, 0
1, 6336, Note_on_c, 0, 79, 70
1, 6336, Note_on_c, 1, 55, 66
1, 6351, Note_on_c, 1, 55, 0
1, 6352, Note_on_c, 1, 58, 66
1, 6367, Note_on_c, 1, 58, 0
1, 6368, Note_on_c, 1, 62, 66
1, 6383, Note_on_c, 1, 62, 0
1, 6384, Note_on_c, 0, 79, 0
1, 6384, Note_on_c, 0, 74, 70
1, 6384, Note_on_c, 1, 55, 66
1, 6399, Note_on_c, 1, 55, 0
1, 6400, Note_on_c, 1, 58, 66
1, 6415, Note_on_c, 1, 58, 0
1, 6416, Note_on_c, 1, 62, 66
1, 6429, Note_on_c, 0, 74, 0
1, 6431, Note_on_c, 1, 62, 0
1, 6432, Note_on_c, 1, 55, 66
1, 6447, Note_on_c, 1, 55, 0
1, 6448, Note_on_c, 1, 58, 66
1, 6463, Note_on_c, 1, 58, 0
1, 6464, Note_on_c, 1, 62, 66
1, 6479, Note_on_c, 1, 62, 0
1, 6480, Note_on_c, 1, 55, 66
1, 6495, Note_on_c, 1, 55, 0
1, 6496, Note_on_c, 1, 58, 66
1, 6511, Note_on_c, 1, 58, 0
1, 6512, Note_on_c, 1, 62, 66
1, 6527, Note_on_c, 1, 62, 0
1, 6528, Note_on_c, 0, 75, 62
1, 6528, Note_on_c, 1, 54, 66
1, 6534, Note_on_c, 0, 75, 0
1, 6534, Note_on_c, 0, 74, 62
1, 6540, Note_on_c, 0, 74, 0
1, 6540, Note_on_c, 0, 73, 62
1, 6543, Note_on_c, 1, 54, 0
1, 6544, Note_on_c, 1, 57, 66
1, 6546, Note_on_c, 0, 73, 0
1, 6546, Note_on_c, 0, 74, 62
1, 6559, Note_on_c, 1, 57, 0
1, 6560, Note_on_c, 1, 62, 66
1, 6575, Note_on_c, 1, 62, 0
1, 6576, Note_on_c, 1, 54, 66
1, 6591, Note_on_c, 1, 54, 0
1, 6592, Note_on_c, 1, 57, 66
1, 6607, Note_on_c, 1, 57, 0
1, 6608, Note_on_c, 1, 62, 66
1, 6617, Note_on_c, 0, 74, 0
1, 6623, Note_on_c, 1, 62, 0
1, 6624, Note_on_c, 0, 81, 62
1, 6624, Note_on_c, 1, 54, 66
1, 6630, Note_on_c, 0, 81, 0
1, 6630, Note_on_c, 0, 82, 62
1, 6636, Note_on_c, 0, 82, 0
1, 6636, Note_on_c, 0, 84, 62
1, 6639, Note_on_c, 1, 54, 0
1, 6640, Note_on_c, 1, 57, 66
1, 6655, Note_on_c, 1, 57, 0
1, 6656, Note_on_c, 1, 62, 66
1, 6671, Note_on_c, 1, 62, 0
1, 6672, Note_on_c, 1, 54, 66
1, 6687, Note_on_c, 1, 54, 0
1, 6688, Note_on_c, 1, 57, 66
1, 6691, Note_on_c, 0, 84, 0
1, 6696, Note_on_c, 0, 82, 62
1, 6703, Note_on_c, 1, 57, 0
1, 6704, Note_on_c, 1, 62, 66
1, 6708, Note_on_c, 0, 82, 0
1, 6708, Note_on_c, 0, 81, 62
1, 6719, Note_on_c, 1, 62, 0
1, 6720, Note_on_c, 0, 81, 0
1, 6720, Note_on_c, 0, 79, 62
1, 6720, Note_on_c, 1, 55, 66
1, 6735, Note_on_c, 1, 55, 0
1, 6736, Note_on_c, 1, 58, 66
1, 6751, Note_on_c, 1, 58, 0
1, 6752, Note_on_c, 1, 62, 66
1, 6767, Note_on_c, 1, 62, 0
1, 6768, Note_on_c, 0, 79, 0
1, 6768, Note_on_c, 0, 74, 62
1, 6768, Note_on_c, 1, 55, 66
1, 6783, Note_on_c, 1, 55, 0
1, 6784, Note_on_c, 1, 58, 66
1, 6799, Note_on_c, 1, 58, 0
1, 6800, Note_on_c, 1, 62, 66
1, 6813, Note_on_c, 0, 74, 0
1, 6815, Note_on_c, 1, 62, 0
1, 6816, Note_on_c, 1, 55, 66
1, 6831, Note_on_c, 1, 55, 0
1, 6832, Note_on_c, 1, 58, 66
1, 6847, Note_on_c, 1, 58, 0
1, 6848, Note_on_c, 1, 62, 66
1, 6863, Note_on_c, 1, 62, 0
1, 6864, Note_on_c, 1, 55, 66
1, 6879, Note_on_c, 1, 55, 0
1, 6880, Note_on_c, 1, 58, 66
1, 6895, Note_on_c, 1, 58, 0
1, 6896, Note_on_c, 1, 62, 66
1, 6911, Note_on_c, 1, 62, 0
1, 6912, Note_on_c, 0, 84, 75
1, 6912, Note_on_c, 1, 50, 66
1, 6919, Note_on_c, 0, 84, 0
1, 6919, Note_on_c, 0, 82, 75
1, 6926, Note_on_c, 0, 82, 0
1, 6926, Note_on_c, 0, 84, 75
1, 6927, Note_on_c, 1, 50, 0
1, 6928, Note_on_c, 1, 53, 66
1, 6933, Note_on_c, 0, 84, 0
1, 6933, Note_on_c, 0, 82, 75
1, 6940, Note_on_c, 0, 82, 0
1, 6940, Note_on_c, 0, 84, 75
1, 6943, Note_on_c, 1, 53, 0
1, 6944, Note_on_c, 1, 58, 66
1, 6947, Note_on_c, 0, 84, 0
1, 6947, Note_on_c, 0, 82, 75
1, 6954, Note_on_c, 0, 82, 0
1, 6954, Note_on_c, 0, 84, 75
1, 6959, Note_on_c, 1, 58, 0
1, 6960, Note_on_c, 1, 50, 66
1, 6961, Note_on_c, 0, 84, 0
1, 6961, Note_on_c, 0, 82, 75
1, 6968, Note_on_c, 0, 82, 0
1, 6968, Note_on_c, 0, 84, 75
1, 6975, Note_on_c, 0, 84, 0
1, 6975, Note_on_c, 0, 82, 75
1, 6975, Note_on_c, 1, 50, 0
1, 6976, Note_on_c, 1, 53, 66
1, 6982, Note_on_c, 0, 82, 0
1, 6982, Note_on_c, 0, 84, 75
1, 6989, Note_on_c, 0, 84, 0
1, 6989, Note_on_c, 0, 82, 75
1, 6991, Note_on_c, 1, 53, 0
1, 6992, Note_on_c, 1, 58, 66
1, 6996, Note_on_c, 0, 82, 0
1, 6996, Note_on_c, 0, 81, 75
1, 7002, Note_on_c, 0, 81, 0
1, 7002, Note_on_c, 0, 79, 75
1, 7007, Note_on_c, 1, 58, 0
1, 7008, Note_on_c, 0, 79, 0
1, 7008, Note_on_c, 0, 77, 75
1, 7008, Note_on_c, 1, 50, 66
1, 7023, Note_on_c, 1, 50, 0
1, 7024, Note_on_c, 1, 53, 66
1, 7039, Note_on_c, 1, 53, 0
1, 7040, Note_on_c, 1, 58, 66
1, 7055, Note_on_c, 1, 58, 0
1, 7056, Note_on_c, 1, 50, 66
1, 7071, Note_on_c, 1, 50, 0
1, 7072, Note_on_c, 1, 53, 66
1, 7080, Note_on_c, 0, 77, 0
1, 7080, Note_on_c, 0, 78, 79
1, 7087, Note_on_c, 1, 53, 0
1, 7088, Note_on_c, 1, 58, 66
1, 7103, Note_on_c, 0, 78, 0
1, 7103, Note_on_c, 1, 58, 0
1, 7104, Note_on_c, 0, 81, 81
1, 7104, Note_on_c, 1, 51, 66
1, 7110, Note_on_c, 0, 81, 0
1, 7110, Note_on_c, 0, 79, 81
1, 7116, Note_on_c, 0, 79, 0
1, 7116, Note_on_c, 0, 78, 81
1, 7119, Note_on_c, 1, 51, 0
1, 7120, Note_on_c, 1, 55, 66
1, 7122, Note_on_c, 0, 78, 0
1, 7122, Note_on_c, 0, 79, 81
1, 7135, Note_on_c, 1, 55, 0
1, 7136, Note_on_c, 1, 58, 66
1, 7149, Note_on_c, 0, 79, 0
1, 7151, Note_on_c, 1, 58, 0
1, 7152, Note_on_c, 1, 51, 66
1, 7167, Note_on_c, 1, 51, 0
1, 7168, Note_on_c, 1, 55, 66
1, 7183, Note_on_c, 1, 55, 0
1, 7184, Note_on_c, 1, 58, 66
1, 7199, Note_on_c, 1, 58, 0
1, 7200, Note_on_c, 0, 81, 81
1, 7200, Note_on_c, 1, 51, 66
1, 7206, Note_on_c, 0, 81, 0
1, 7206, Note_on_c, 0, 79, 81
1, 7212, Note_on_c, 0, 79, 0
1, 7212, Note_on_c, 0, 78, 81
1, 7215, Note_on_c, 1, 51, 0
1, 7216, Note_on_c, 1, 55, 66
1, 7218, Note_on_c, 0, 78, 0
1, 7218, Note_on_c, 0, 79, 81
1, 7231, Note_on_c, 1, 55, 0
1, 7232, Note_on_c, 1, 58, 66
1, 7245, Note_on_c, 0, 79, 0
1, 7247, Note_on_c, 1, 58, 0
1, 7248, Note_on_c, 1, 51, 66
1, 7263, Note_on_c, 1, 51, 0
1, 7264, Note_on_c, 1, 55, 66
1, 7279, Note_on_c, 1, 55, 0
1, 7280, Note_on_c, 1, 58, 66
1, 7295, Note_on_c, 1, 58, 0
1, 7296, Note_on_c, 0, 84, 70
1, 7296, Note_on_c, 1, 50, 62
1, 7303, Note_on_c, 0, 84, 0
1, 7303, Note_on_c, 0, 82, 70
1, 7310, Note_on_c, 0, 82, 0
1, 7310, Note_on_c, 0, 84, 70
1, 7311, Note_on_c, 1, 50, 0
1, 7312, Note_on_c, 1, 53, 62
1, 7317, Note_on_c, 0, 84, 0
1, 7317, Note_on_c, 0, 82, 70
1, 7324, Note_on_c, 0, 82, 0
1, 7324, Note_on_c, 0, 84, 70
1, 7327, Note_on_c, 1, 53, 0
1, 7328, Note_on_c, 1, 58, 62
1, 7331, Note_on_c, 0, 84, 0
1, 7331, Note_on_c, 0, 82, 70
1, 7338, Note_on_c, 0, 82, 0
1, 7338, Note_on_c, 0, 84, 70
1, 7343, Note_on_c, 1, 58, 0
1, 7344, Note_on_c, 1, 50, 62
1, 7345, Note_on_c, 0, 84, 0
1, 7345, Note_on_c, 0, 82, 70
1, 7352, Note_on_c, 0, 82, 0
1, 7352, Note_on_c, 0, 84, 70
1, 7359, Note_on_c, 0, 84, 0
1, 7359, Note_on_c, 0, 82, 70
1, 7359, Note_on_c, 1, 50, 0
1, 7360, Note_on_c, 1, 53, 62
1, 7366, Note_on_c, 0, 82, 0
1, 7366, Note_on_c, 0, 84, 70
1, 7373, Note_on_c, 0, 84, 0
1, 7373, Note_on_c, 0, 82, 70
1, 7375, Note_on_c, 1, 53, 0
1, 7376, Note_on_c, 1, 58, 62
1, 7380, Note_on_c, 0, 82, 0
1, 7380, Note_on_c, 0, 81, 70
1, 7386, Note_on_c, 0, 81, 0
1, 7386, Note_on_c, 0, 79, 70
1, 7391, Note_on_c, 1, 58, 0
1, 7392, Note_on_c, 0, 79, 0
1, 7392, Note_on_c, 0, 77, 70
1, 7392, Note_on_c, 1, 50, 62
1, 7407, Note_on_c, 1, 50, 0
1, 7408, Note_on_c, 1, 53, 62
1, 7423, Note_on_c, 1, 53, 0
1, 7424, Note_on_c, 1, 58, 62
1, 7439, Note_on_c, 1, 58, 0
1, 7440, Note_on_c, 1, 50, 62
1, 7455, Note_on_c, 1, 50, 0
1, 7456, Note_on_c, 1, 53, 62
1, 7464, Note_on_c, 0, 77, 0
1, 7464, Note_on_c, 0, 78, 73
1, 7471, Note_on_c, 1, 53, 0
1, 7472, Note_on_c, 1, 58, 62
1, 7487, Note_on_c, 0, 78, 0
1, 7487, Note_on_c, 1, 58, 0
1, 7488, Note_on_c, 0, 81, 75
1, 7488, Note_on_c, 1, 51, 62
1, 7494, Note_on_c, 0, 81, 0
1, 7494, Note_on_c, 0, 79, 75
1, 7500, Note_on_c, 0, 79, 0
1, 7500, Note_on_c, 0, 78, 75
1, 7503, Note_on_c, 1, 51, 0
1, 7504, Note_on_c, 1, 55, 62
1, 7506, Note_on_c, 0, 78, 0
1, 7506, Note_on_c, 0, 79, 75
1, 7519, Note_on_c, 1, 55, 0
1, 7520, Note_on_c, 1, 58, 62
1, 7533, Note_on_c, 0, 79, 0
1, 7535, Note_on_c, 1, 58, 0
1, 7536, Note_on_c, 1, 51, 62
1, 7551, Note_on_c, 1, 51, 0
1, 7552, Note_on_c, 1, 55, 62
1, 7567, Note_on_c, 1, 55, 0
1, 7568, Note_on_c, 1, 58, 62
1, 7583, Note_on_c, 1, 58, 0
1, 7584, Note_on_c, 0, 81, 75
1, 7584, Note_on_c, 1, 51, 62
1, 7590, Note_on_c, 0, 81, 0
1, 7590, Note_on_c, 0, 79, 75
1, 7596, Note_on_c, 0, 79, 0
1, 7596, Note_on_c, 0, 78, 75
1, 7599, Note_on_c, 1, 51, 0
1, 7600, Note_on_c, 1, 55, 62
1, 7602, Note_on_c, 0, 78, 0
1, 7602, Note_on_c, 0, 79, 75
1, 7615, Note_on_c, 1, 55, 0
1, 7616, Note_on_c, 1, 58, 62
1, 7629, Note_on_c, 0, 79, 0
1, 7631, Note_on_c, 1, 58, 0
1, 7632, Note_on_c, 1, 51, 62
1, 7647, Note_on_c, 1, 51, 0
1, 7648, Note_on_c, 1, 55, 62
1, 7663, Note_on_c, 1, 55, 0
1, 7664, Note_on_c, 1, 58, 62
1, 7679, Note_on_c, 1, 58, 0
1, 7680, Note_on_c, 0, 84, 75
1, 7680, Note_on_c, 1, 50, 66
1, 7687, Note_on_c, 0, 84, 0
1, 7687, Note_on_c, 0, 82, 75
1, 7694, Note_on_c, 0, 82, 0
1, 7694, Note_on_c, 0, 84, 75
1, 7695, Note_on_c, 1, 50, 0
1, 7696, Note_on_c, 1, 53, 66
1, 7701, Note_on_c, 0, 84, 0
1, 7701, Note_on_c, 0, 82, 75
1, 7708, Note_on_c, 0, 82, 0
1, 7708, Note_on_c, 0, 84, 75
1, 7711, Note_on_c, 1, 53, 0
1, 7712, Note_on_c, 1, 58, 66
1, 7715, Note_on_c, 0, 84, 0
1, 7715, Note_on_c, 0, 82, 75
1, 7722, Note_on_c, 0, 82, 0
1, 7722, Note_on_c, 0, 84, 75
1, 7727, Note_on_c, 1, 58, 0
1, 7728, Note_on_c, 1, 50, 66
1, 7729, Note_on_c, 0, 84, 0
1, 7729, Note_on_c, 0, 82, 75
1, 7736, Note_on_c, 0, 82, 0
1, 7736, Note_on_c, 0, 84, 75
1, 7743, Note_on_c, 0, 84, 0
1, 7743, Note_on_c, 0, 82, 75
1, 7743, Note_on_c, 1, 50, 0
1, 7744, Note_on_c, 1, 53, 66
1, 7750, Note_on_c, 0, 82, 0
1, 7750, Note_on_c, 0, 84, 75
1, 7757, Note_on_c, 0, 84, 0
1, 7757, Note_on_c, 0, 82, 75
1, 7759, Note_on_c, 1, 53, 0
1, 7760, Note_on_c, 1, 58, 66
1, 7764, Note_on_c, 0, 82, 0
1, 7764, Note_on_c, 0, 81, 75
1, 7770, Note_on_c, 0, 81, 0
1, 7770, Note_on_c, 0, 79, 75
1, 7775, Note_on_c, 1, 58, 0
1, 7776, Note_on_c, 0, 79, 0
1, 7776, Note_on_c, 0, 77, 75
1, 7776, Note_on_c, 1, 50, 66
1, 7791, Note_on_c, 1, 50, 0
1, 7792, Note_on_c, 1, 53, 66
1, 7807, Note_on_c, 1, 53, 0
1, 7808, Note_on_c, 1, 58, 66
1, 7823, Note_on_c, 1, 58, 0
1, 7824, Note_on_c, 1, 50, 66
1, 7839, Note_on_c, 1, 50, 0
1, 7840, Note_on_c, 1, 53, 66
1, 7855, Note_on_c, 1, 53, 0
1, 7856, Note_on_c, 1, 58, 66
1, 7871, Note_on_c, 1, 58, 0
1, 7872, Note_on_c, 0, 51, 64
1, 7887, Note_on_c, 0, 77, 0
1, 7888, Note_on_c, 0, 78, 91
1, 7904, Note_on_c, 0, 78, 0
1, 7904, Note_on_c, 0, 79, 75
1, 7919, Note_on_c, 0, 79, 0
1, 7920, Note_on_c, 0, 77, 75
1, 7920, Note_on_c, 1, 63, 66
1, 7932, Note_on_c, 0, 77, 0
1, 7932, Note_on_c, 0, 75, 75
1, 7944, Note_on_c, 0, 75, 0
1, 7944, Note_on_c, 0, 74, 75
1, 7956, Note_on_c, 0, 74, 0
1, 7956, Note_on_c, 0, 72, 75
1, 7961, Note_on_c, 0, 51, 0
1, 7965, Note_on_c, 1, 63, 0
1, 7968, Note_on_c, 0, 72, 0
1, 7968, Note_on_c, 0, 70, 75
1, 7968, Note_on_c, 1, 62, 66
1, 7968, Note_on_c, 0, 53, 64
1, 8013, Note_on_c, 0, 70, 0
1, 8013, Note_on_c, 1, 62, 0
1, 8016, Note_on_c, 0, 69, 75
1, 8016, Note_on_c, 1, 60, 66
1, 8023, Note_on_c, 0, 69, 0
1, 8023, Note_on_c, 0, 70, 75
1, 8030, Note_on_c, 0, 70, 0
1, 8030, Note_on_c, 0, 69, 75
1, 8037, Note_on_c, 0, 69, 0
1, 8037, Note_on_c, 0, 70, 75
1, 8044, Note_on_c, 0, 70, 0
1, 8044, Note_on_c, 0, 69, 75
1, 8051, Note_on_c, 0, 69, 0
1, 8051, Note_on_c, 0, 67, 75
1, 8057, Note_on_c, 0, 53, 0
1, 8058, Note_on_c, 0, 67, 0
1, 8058, Note_on_c, 0, 69, 75
1, 8061, Note_on_c, 1, 60, 0
1, 8064, Note_on_c, 0, 69, 0
1, 8064, Note_on_c, 0, 70, 75
1, 8064, Note_on_c, 1, 58, 66
1, 8079, Note_on_c, 1, 58, 0
1, 8080, Note_on_c, 1, 62, 66
1, 8095, Note_on_c, 1, 62, 0
1, 8096, Note_on_c, 1, 65, 66
1, 8111, Note_on_c, 1, 65, 0
1, 8112, Note_on_c, 1, 58, 66
1, 8127, Note_on_c, 1, 58, 0
1, 8128, Note_on_c, 1, 62, 66
1, 8143, Note_on_c, 1, 62, 0
1, 8144, Note_on_c, 1, 65, 66
1, 8153, Note_on_c, 0, 70, 0
1, 8159, Note_on_c, 1, 65, 0
1, 8160, Note_on_c, 0, 84, 75
1, 8160, Note_on_c, 1, 57, 66
1, 8172, Note_on_c, 0, 84, 0
1, 8172, Note_on_c, 0, 75, 75
1, 8175, Note_on_c, 1, 57, 0
1, 8176, Note_on_c, 1, 60, 66
1, 8191, Note_on_c, 1, 60, 0
1, 8192, Note_on_c, 1, 65, 66
1, 8207, Note_on_c, 1, 65, 0
1, 8208, Note_on_c, 1, 57, 66
1, 8223, Note_on_c, 1, 57, 0
1, 8224, Note_on_c, 1, 60, 66
1, 8239, Note_on_c, 1, 60, 0
1, 8240, Note_on_c, 1, 65, 66
1, 8250, Note_on_c, 0, 75, 0
1, 8255, Note_on_c, 1, 65, 0
1, 8256, Note_on_c, 0, 74, 75
1, 8256, Note_on_c, 1, 58, 66
1, 8268, Note_on_c, 0, 74, 0
1, 8268, Note_on_c, 0, 82, 75
1, 8271, Note_on_c, 1, 58, 0
1, 8272, Note_on_c, 1, 62, 66
1, 8287, Note_on_c, 1, 62, 0
1, 8288, Note_on_c, 1, 65, 66
1, 8303, Note_on_c, 1, 65, 0
1, 8304, Note_on_c, 1, 58, 66
1, 8319, Note_on_c, 1, 58, 0
1, 8320, Note_on_c, 1, 62, 66
1, 8335, Note_on_c, 1, 62, 0
1, 8336, Note_on_c, 1, 65, 66
1, 8346, Note_on_c, 0, 82, 0
1, 8351, Note_on_c, 1, 65, 0
1, 8352, Note_on_c, 0, 84, 70
1, 8352, Note_on_c, 1, 57, 62
1, 8364, Note_on_c, 0, 84, 0
1, 8364, Note_on_c, 0, 75, 70
1, 8367, Note_on_c, 1, 57, 0
1, 8368, Note_on_c, 1, 60, 62
1, 8383, Note_on_c, 1, 60, 0
1, 8384, Note_on_c, 1, 65, 62
1, 8399, Note_on_c, 1, 65, 0
1, 8400, Note_on_c, 1, 57, 62
1, 8415, Note_on_c, 1, 57, 0
1, 8416, Note_on_c, 1, 60, 62
1, 8431, Note_on_c, 1, 60, 0
1, 8432, Note_on_c, 1, 65, 62
1, 8442, Note_on_c, 0, 75, 0
1, 8447, Note_on_c, 1, 65, 0
1, 8448, Note_on_c, 0, 74, 70
1, 8448, Note_on_c, 1, 58, 62
1, 8460, Note_on_c, 0, 74, 0
1, 8460, Note_on_c, 0, 82, 70
1, 8463, Note_on_c, 1, 58, 0
1, 8464, Note_on_c, 1, 62, 62
1, 8479, Note_on_c, 1, 62, 0
1, 8480, Note_on_c, 1, 65, 62
1, 8495, Note_on_c, 1, 65, 0
1, 8496, Note_on_c, 1, 58, 62
1, 8511, Note_on_c, 1, 58, 0
1, 8512, Note_on_c, 1, 62, 62
1, 8527, Note_on_c, 1, 62, 0
1, 8528, Note_on_c, 1, 65, 62
1, 8538, Note_on_c, 0, 82, 0
1, 8543, Note_on_c, 1, 65, 0
1, 8544, Note_on_c, 0, 84, 75
1, 8544, Note_on_c, 1, 57, 66
1, 8556, Note_on_c, 0, 84, 0
1, 8556, Note_on_c, 0, 75, 75
1, 8559, Note_on_c, 1, 57, 0
1, 8560, Note_on_c, 1, 60, 66
1, 8575, Note_on_c, 1, 60, 0
1, 8576, Note_on_c, 1, 65, 66
1, 8591, Note_on_c, 1, 65, 0
1, 8592, Note_on_c, 1, 57, 66
1, 8607, Note_on_c, 1, 57, 0
1, 8608, Note_on_c, 1, 60, 66
1, 8623, Note_on_c, 1, 60, 0
1, 8624, Note_on_c, 1, 65, 66
1, 8634, Note_on_c, 0, 75, 0
1, 8639, Note_on_c, 1, 65, 0
1, 8640, Note_on_c, 0, 74, 75
1, 8640, Note_on_c, 0, 58, 64
1, 8655, Note_on_c, 0, 74, 0
1, 8656, Note_on_c, 0, 82, 74
1, 8671, Note_on_c, 0, 82, 0
1, 8672, Note_on_c, 0, 78, 73
1, 8685, Note_on_c, 0, 58, 0
1, 8687, Note_on_c, 0, 78, 0
1, 8688, Note_on_c, 0, 79, 73
1, 8688, Note_on_c, 1, 63, 72
1, 8688, Note_on_c, 0, 51, 64
1, 8703, Note_on_c, 0, 79, 0
1, 8704, Note_on_c, 0, 75, 72
1, 8719, Note_on_c, 0, 75, 0
1, 8720, Note_on_c, 0, 72, 72
1, 8733, Note_on_c, 1, 63, 0
1, 8733, Note_on_c, 0, 51, 0
1, 8735, Note_on_c, 0, 72, 0
1, 8736, Note_on_c, 0, 70, 71
1, 8736, Note_on_c, 1, 62, 70
1, 8736, Note_on_c, 0, 53, 64
1, 8781, Note_on_c, 0, 70, 0
1, 8781, Note_on_c, 1, 62, 0
1, 8784, Note_on_c, 0, 69, 69
1, 8784, Note_on_c, 1, 60, 68
1, 8791, Note_on_c, 0, 69, 0
1, 8791, Note_on_c, 0, 70, 69
1, 8798, Note_on_c, 0, 70, 0
1, 8798, Note_on_c, 0, 69, 68
1, 8805, Note_on_c, 0, 69, 0
1, 8805, Note_on_c, 0, 70, 68
1, 8812, Note_on_c, 0, 70, 0
1, 8812, Note_on_c, 0, 69, 68
1, 8819, Note_on_c, 0, 69, 0
1, 8819, Note_on_c, 0, 67, 67
1, 8825, Note_on_c, 0, 53, 0
1, 8826, Note_on_c, 0, 67, 0
1, 8826, Note_on_c, 0, 69, 67
1, 8829, Note_on_c, 1, 60, 0
1, 8832, Note_on_c, 0, 69, 0
1, 8832, Note_on_c, 0, 70, 66
1, 8832, Note_on_c, 1, 58, 66
1, 8877, Note_on_c, 1, 58, 0
1, 8880, Note_on_c, 1, 46, 66
1, 8921, Note_on_c, 0, 70, 0
1, 8925, Note_on_c, 1, 46, 0
1, 8976, Note_on_c, 0, 77, 86
1, 9024, Note_on_c, 0, 77, 0
1, 9024, Note_on_c, 0, 75, 70
1, 9047, Note_on_c, 0, 75, 0
1, 9048, Note_on_c, 0, 74, 70
1, 9071, Note_on_c, 0, 74, 0
1, 9072, Note_on_c, 0, 72, 70
1, 9072, Note_on_c, 1, 50, 66
1, 9072, Note_on_c, 1, 46, 66
1, 9095, Note_on_c, 0, 72, 0
1, 9096, Note_on_c, 0, 70, 70
1, 9117, Note_on_c, 1, 50, 0
1, 9117, Note_on_c, 1, 46, 0
1, 9119, Note_on_c, 0, 70, 0
1, 9120, Note_on_c, 0, 70, 71
1, 9120, Note_on_c, 1, 51, 67
1, 9120, Note_on_c, 1, 48, 67
1, 9165, Note_on_c, 0, 70, 0
1, 9165, Note_on_c, 1, 51, 0
1, 9165, Note_on_c, 1, 48, 0
1, 9168, Note_on_c, 0, 70, 71
1, 9168, Note_on_c, 1, 53, 68
1, 9168, Note_on_c, 1, 50, 68
1, 9213, Note_on_c, 0, 70, 0
1, 9213, Note_on_c, 1, 53, 0
1, 9213, Note_on_c, 1, 50, 0
1, 9216, Note_on_c, 0, 70, 72
1, 9216, Note_on_c, 1, 55, 68
1, 9216, Note_on_c, 1, 51, 68
1, 9261, Note_on_c, 0, 70, 0
1, 9264, Note_on_c, 0, 71, 72
1, 9305, Note_on_c, 1, 55, 0
1, 9305, Note_on_c, 1, 51, 0
1, 9309, Note_on_c, 0, 71, 0
1, 9312, Note_on_c, 0, 72, 73
1, 9357, Note_on_c, 0, 72, 0
1, 9360, Note_on_c, 0, 79, 89
1, 9408, Note_on_c, 0, 79, 0
1, 9408, Note_on_c, 0, 77, 74
1, 9431, Note_on_c, 0, 77, 0
1, 9432, Note_on_c, 0, 75, 74
1, 9455, Note_on_c, 0, 75, 0
1, 9456, Note_on_c, 0, 74, 74
1, 9456, Note_on_c, 1, 51, 72
1, 9456, Note_on_c, 1, 48, 72
1, 9479, Note_on_c, 0, 74, 0
1, 9480, Note_on_c, 0, 72, 74
1, 9501, Note_on_c, 1, 51, 0
1, 9501, Note_on_c, 1, 48, 0
1, 9503, Note_on_c, 0, 72, 0
1, 9504, Note_on_c, 0, 72, 75
1, 9504, Note_on_c, 1, 53, 73
1, 9504, Note_on_c, 1, 50, 73
1, 9549, Note_on_c, 0, 72, 0
1, 9549, Note_on_c, 1, 53, 0
1, 9549, Note_on_c, 1, 50, 0
1, 9552, Note_on_c, 0, 72, 75
1, 9552, Note_on_c, 1, 55, 73
1, 9552, Note_on_c, 1, 51, 73
1, 9597, Note_on_c, 0, 72, 0
1, 9597, Note_on_c, 1, 55, 0
1, 9597, Note_on_c, 1, 51, 0
1, 9600, Note_on_c, 0, 72, 76
1, 9600, Note_on_c, 1, 57, 74
1, 9600, Note_on_c, 1, 53, 74
1, 9645, Note_on_c, 0, 72, 0
1, 9648, Note_on_c, 0, 73, 76
1, 9689, Note_on_c, 1, 57, 0
1, 9689, Note_on_c, 1, 53, 0
1, 9693, Note_on_c, 0, 73, 0
1, 9696, Note_on_c, 0, 74, 77
1, 9741, Note_on_c, 0, 74, 0
1, 9744, Note_on_c, 0, 81, 93
1, 9792, Note_on_c, 0, 81, 0
1, 9792, Note_on_c, 0, 79, 78
1, 9815, Note_on_c, 0, 79, 0
1, 9816, Note_on_c, 0, 78, 78
1, 9839, Note_on_c, 0, 78, 0
1, 9840, Note_on_c, 0, 75, 78
1, 9840, Note_on_c, 1, 54, 78
1, 9840, Note_on_c, 1, 50, 78
1, 9863, Note_on_c, 0, 75, 0
1, 9864, Note_on_c, 0, 74, 79
1, 9885, Note_on_c, 1, 54, 0
1, 9885, Note_on_c, 1, 50, 0
1, 9887, Note_on_c, 0, 74, 0
1, 9888, Note_on_c, 0, 74, 79
1, 9888, Note_on_c, 1, 55, 78
1, 9888, Note_on_c, 1, 52, 78
1, 9933, Note_on_c, 0, 74, 0
1, 9933, Note_on_c, 1, 55, 0
1, 9933, Note_on_c, 1, 52, 0
1, 9936, Note_on_c, 0, 74, 79
1, 9936, Note_on_c, 1, 57, 79
1, 9936, Note_on_c, 1, 54, 79
1, 9981, Note_on_c, 0, 74, 0
1, 9981, Note_on_c, 1, 57, 0
1, 9981, Note_on_c, 1, 54, 0
1, 9984, Note_on_c, 0, 74, 80
1, 9984, Note_on_c, 1, 58, 80
1, 10029, Note_on_c, 0, 74, 0
1, 10029, Note_on_c, 1, 58, 0
1, 10032, Note_on_c, 0, 82, 70
1, 10032, Note_on_c, 1, 67, 70
1, 10080, Note_on_c, 0, 82, 0
1, 10080, Note_on_c, 0, 81, 70
1, 10080, Note_on_c, 1, 67, 0
1, 10080, Note_on_c, 1, 65, 70
1, 10125, Note_on_c, 0, 81, 0
1, 10128, Note_on_c, 0, 74, 70
1, 10169, Note_on_c, 1, 65, 0
1, 10176, Note_on_c, 0, 74, 0
1, 10176, Note_on_c, 0, 79, 70
1, 10176, Note_on_c, 0, 63, 64
1, 10224, Note_on_c, 1, 70, 70
1, 10265, Note_on_c, 0, 79, 0
1, 10272, Note_on_c, 0, 77, 70
1, 10295, Note_on_c, 0, 77, 0
1, 10296, Note_on_c, 0, 75, 69
1, 10313, Note_on_c, 1, 70, 0
1, 10319, Note_on_c, 0, 75, 0
1, 10320, Note_on_c, 0, 74, 69
1, 10320, Note_on_c, 1, 67, 70
1, 10343, Note_on_c, 0, 74, 0
1, 10344, Note_on_c, 0, 73, 68
1, 10353, Note_on_c, 0, 63, 0
1, 10365, Note_on_c, 1, 67, 0
1, 10367, Note_on_c, 0, 73, 0
1, 10368, Note_on_c, 0, 73, 68
1, 10368, Note_on_c, 1, 66, 68
1, 10368, Note_on_c, 1, 62, 68
1, 10416, Note_on_c, 0, 73, 0
1, 10416, Note_on_c, 0, 74, 67
1, 10457, Note_on_c, 1, 66, 0
1, 10457, Note_on_c, 1, 62, 0
1, 10483, Note_on_c, 0, 74, 0
1, 10488, Tempo, 1333333
1, 10536, Tempo, 1000000
1, 10536, Note_on_c, 0, 74, 70
1, 10546, Note_on_c, 0, 74, 0
1, 10560, Note_on_c, 0, 72, 70
1, 10583, Note_on_c, 0, 72, 0
1, 10584, Note_on_c, 0, 70, 70
1, 10607, Note_on_c, 0, 70, 0
1, 10608, Note_on_c, 0, 69, 70
1, 10608, Note_on_c, 1, 58, 66
1, 10608, Note_on_c, 1, 55, 66
1, 10631, Note_on_c, 0, 69, 0
1, 10632, Note_on_c, 0, 67, 70
1, 10653, Note_on_c, 1, 58, 0
1, 10653, Note_on_c, 1, 55, 0
1, 10655, Note_on_c, 0, 67, 0
1, 10656, Note_on_c, 0, 66, 70
1, 10656, Note_on_c, 1, 60, 66
1, 10656, Note_on_c, 1, 57, 66
1, 10680, Note_on_c, 0, 66, 0
1, 10680, Note_on_c, 0, 67, 70
1, 10701, Note_on_c, 1, 60, 0
1, 10701, Note_on_c, 1, 57, 0
1, 10703, Note_on_c, 0, 67, 0
1, 10704, Note_on_c, 1, 62, 67
1, 10704, Note_on_c, 1, 58, 67
1, 10728, Note_on_c, 0, 79, 70
1, 10738, Note_on_c, 0, 79, 0
1, 10749, Note_on_c, 1, 62, 0
1, 10749, Note_on_c, 1, 58, 0
1, 10752, Note_on_c, 0, 77, 71
1, 10775, Note_on_c, 0, 77, 0
1, 10776, Note_on_c, 0, 75, 71
1, 10799, Note_on_c, 0, 75, 0
1, 10800, Note_on_c, 0, 74, 71
1, 10800, Note_on_c, 1, 63, 68
1, 10800, Note_on_c, 1, 60, 68
1, 10823, Note_on_c, 0, 74, 0
1, 10824, Note_on_c, 0, 72, 71
1, 10845, Note_on_c, 1, 63, 0
1, 10845, Note_on_c, 1, 60, 0
1, 10847, Note_on_c, 0, 72, 0
1, 10848, Note_on_c, 0, 71, 71
1, 10848, Note_on_c, 1, 65, 68
1, 10848, Note_on_c, 1, 62, 68
1, 10872, Note_on_c, 0, 71, 0
1, 10872, Note_on_c, 0, 72, 71
1, 10893, Note_on_c, 1, 65, 0
1, 10893, Note_on_c, 1, 62, 0
1, 10895, Note_on_c, 0, 72, 0
1, 10896, Note_on_c, 1, 67, 69
1, 10896, Note_on_c, 1, 63, 69
1, 10920, Note_on_c, 0, 84, 71
1, 10930, Note_on_c, 0, 84, 0
1, 10941, Note_on_c, 1, 67, 0
1, 10941, Note_on_c, 1, 63, 0
1, 10944, Note_on_c, 0, 82, 72
1, 10967, Note_on_c, 0, 82, 0
1, 10968, Note_on_c, 0, 81, 72
1, 10991, Note_on_c, 0, 81, 0
1, 10992, Note_on_c, 0, 79, 72
1, 10992, Note_on_c, 1, 69, 70
1, 10992, Note_on_c, 1, 65, 70
1, 11015, Note_on_c, 0, 79, 0
1, 11016, Note_on_c, 0, 77, 72
1, 11037, Note_on_c, 1, 69, 0
1, 11037, Note_on_c, 1, 65, 0
1, 11039, Note_on_c, 0, 77, 0
1, 11040, Note_on_c, 0, 76, 72
1, 11040, Note_on_c, 1, 70, 70
1, 11040, Note_on_c, 1, 67, 70
1, 11064, Note_on_c, 0, 76, 0
1, 11064, Note_on_c, 0, 77, 72
1, 11085, Note_on_c, 1, 70, 0
1, 11085, Note_on_c, 1, 67, 0
1, 11087, Note_on_c, 0, 77, 0
1, 11088, Note_on_c, 1, 72, 70
1, 11088, Note_on_c, 1, 69, 70
1, 11112, Note_on_c, 0, 77, 72
1, 11122, Note_on_c, 0, 77, 0
1, 11133, Note_on_c, 1, 72, 0
1, 11133, Note_on_c, 1, 69, 0
1, 11136, Note_on_c, 0, 75, 73
1, 11159, Note_on_c, 0, 75, 0
1, 11160, Note_on_c, 0, 74, 73
1, 11183, Note_on_c, 0, 74, 0
1, 11184, Note_on_c, 0, 72, 73
1, 11184, Note_on_c, 1, 62, 71
1, 11184, Note_on_c, 1, 58, 71
1, 11207, Note_on_c, 0, 72, 0
1, 11208, Note_on_c, 0, 70, 73
1, 11229, Note_on_c, 1, 62, 0
1, 11229, Note_on_c, 1, 58, 0
1, 11231, Note_on_c, 0, 70, 0
1, 11232, Note_on_c, 0, 69, 73
1, 11232, Note_on_c, 1, 63, 72
1, 11232, Note_on_c, 1, 60, 72
1, 11256, Note_on_c, 0, 69, 0
1, 11256, Note_on_c, 0, 70, 73
1, 11277, Note_on_c, 1, 63, 0
1, 11277, Note_on_c, 1, 60, 0
1, 11279, Note_on_c, 0, 70, 0
1, 11280, Note_on_c, 1, 65, 72
1, 11280, Note_on_c, 1, 62, 72
1, 11304, Note_on_c, 0, 82, 73
1, 11314, Note_on_c, 0, 82, 0
1, 11325, Note_on_c, 1, 65, 0
1, 11325, Note_on_c, 1, 62, 0
1, 11328, Note_on_c, 0, 80, 74
1, 11351, Note_on_c, 0, 80, 0
1, 11352, Note_on_c, 0, 79, 74
1, 11375, Note_on_c, 0, 79, 0
1, 11376, Note_on_c, 0, 77, 74
1, 11376, Note_on_c, 1, 67, 73
1, 11376, Note_on_c, 1, 63, 73
1, 11399, Note_on_c, 0, 77, 0
1, 11400, Note_on_c, 0, 75, 74
1, 11421, Note_on_c, 1, 67, 0
1, 11421, Note_on_c, 1, 63, 0
1, 11423, Note_on_c, 0, 75, 0
1, 11424, Note_on_c, 0, 74, 74
1, 11424, Note_on_c, 1, 68, 74
1, 11424, Note_on_c, 1, 65, 74
1, 11448, Note_on_c, 0, 74, 0
1, 11448, Note_on_c, 0, 75, 74
1, 11469, Note_on_c, 1, 68, 0
1, 11469, Note_on_c, 1, 65, 0
1, 11471, Note_on_c, 0, 75, 0
1, 11472, Note_on_c, 0, 74, 74
1, 11472, Note_on_c, 1, 70, 74
1, 11472, Note_on_c, 1, 67, 74
1, 11496, Note_on_c, 0, 74, 0
1, 11496, Note_on_c, 0, 75, 74
1, 11517, Note_on_c, 1, 70, 0
1, 11517, Note_on_c, 1, 67, 0
1, 11519, Note_on_c, 0, 75, 0
1, 11520, Note_on_c, 1, 68, 75
1, 11544, Note_on_c, 0, 72, 75
1, 11567, Note_on_c, 0, 72, 0
1, 11568, Note_on_c, 0, 74, 75
1, 11592, Note_on_c, 0, 74, 0
1, 11592, Note_on_c, 0, 75, 75
1, 11609, Note_on_c, 1, 68, 0
1, 11615, Note_on_c, 0, 75, 0
1, 11616, Note_on_c, 1, 67, 75
1, 11640, Note_on_c, 0, 70, 75
1, 11663, Note_on_c, 0, 70, 0
1, 11664, Note_on_c, 0, 74, 75
1, 11688, Note_on_c, 0, 74, 0
1, 11688, Note_on_c, 0, 75, 75
1, 11705, Note_on_c, 1, 67, 0
1, 11711, Note_on_c, 0, 75, 0
1, 11712, Note_on_c, 1, 65, 75
1, 11736, Note_on_c, 0, 68, 75
1, 11759, Note_on_c, 0, 68, 0
1, 11760, Note_on_c, 0, 73, 75
1, 11784, Note_on_c, 0, 73, 0
1, 11784, Note_on_c, 0, 74, 75
1, 11801, Note_on_c, 1, 65, 0
1, 11807, Note_on_c, 0, 74, 0
1, 11808, Note_on_c, 1, 63, 75
1, 11832, Note_on_c, 0, 67, 75
1, 11855, Note_on_c, 0, 67, 0
1, 11856, Note_on_c, 0, 71, 75
1, 11880, Note_on_c, 0, 71, 0
1, 11880, Note_on_c, 0, 72, 75
1, 11897, Note_on_c, 1, 63, 0
1, 11903, Note_on_c, 0, 72, 0
1, 11904, Note_on_c, 0, 65, 75
1, 11904, Note_on_c, 1, 62, 75
1, 11927, Note_on_c, 0, 65, 0
1, 11928, Note_on_c, 0, 71, 75
1, 11951, Note_on_c, 0, 71, 0
1, 11952, Note_on_c, 0, 74, 75
1, 11975, Note_on_c, 0, 74, 0
1, 11976, Note_on_c, 0, 77, 75
1, 11993, Note_on_c, 1, 62, 0
1, 11999, Note_on_c, 0, 77, 0
1, 12000, Note_on_c, 0, 80, 91
1, 12048, Note_on_c, 1, 59, 75
1, 12072, Note_on_c, 0, 80, 0
1, 12072, Note_on_c, 0, 79, 75
1, 12084, Note_on_c, 0, 79, 0
1, 12084, Note_on_c, 0, 77, 75
1, 12093, Note_on_c, 1, 59, 0
1, 12096, Note_on_c, 0, 77, 0
1, 12096, Note_on_c, 0, 77, 75
1, 12096, Note_on_c, 1, 60, 75
1, 12119, Note_on_c, 0, 77, 0
1, 12120, Note_on_c, 0, 75, 75
1, 12141, Note_on_c, 1, 60, 0
1, 12143, Note_on_c, 0, 75, 0
1, 12144, Note_on_c, 0, 74, 75
1, 12144, Note_on_c, 1, 51, 75
1, 12167, Note_on_c, 0, 74, 0
1, 12168, Note_on_c, 0, 72, 75
1, 12189, Note_on_c, 1, 51, 0
1, 12191, Note_on_c, 0, 72, 0
1, 12192, Note_on_c, 0, 80, 75
1, 12192, Note_on_c, 1, 53, 75
1, 12207, Note_on_c, 0, 80, 0
1, 12208, Note_on_c, 0, 79, 75
1, 12223, Note_on_c, 0, 79, 0
1, 12224, Note_on_c, 0, 77, 75
1, 12239, Note_on_c, 0, 77, 0
1, 12240, Note_on_c, 0, 75, 75
1, 12240, Note_on_c, 1, 53, 0
1, 12240, Note_on_c, 1, 54, 77
1, 12255, Note_on_c, 0, 75, 0
1, 12256, Note_on_c, 0, 74, 76
1, 12271, Note_on_c, 0, 74, 0
1, 12272, Note_on_c, 0, 72, 76
1, 12285, Note_on_c, 1, 54, 0
1, 12287, Note_on_c, 0, 72, 0
1, 12288, Note_on_c, 0, 71, 77
1, 12288, Note_on_c, 1, 55, 80
1, 12303, Note_on_c, 1, 55, 0
1, 12304, Note_on_c, 1, 59, 81
1, 12319, Note_on_c, 1, 59, 0
1, 12320, Note_on_c, 1, 62, 81
1, 12335, Note_on_c, 1, 62, 0
1, 12336, Note_on_c, 1, 55, 81
1, 12351, Note_on_c, 1, 55, 0
1, 12352, Note_on_c, 1, 59, 81
1, 12367, Note_on_c, 1, 59, 0
1, 12368, Note_on_c, 1, 62, 81
1, 12377, Note_on_c, 0, 71, 0
1, 12383, Note_on_c, 1, 62, 0
1, 12384, Note_on_c, 0, 74, 97
1, 12384, Note_on_c, 1, 55, 81
1, 12399, Note_on_c, 1, 55, 0
1, 12400, Note_on_c, 1, 59, 81
1, 12415, Note_on_c, 1, 59, 0
1, 12416, Note_on_c, 1, 62, 81
1, 12431, Note_on_c, 1, 62, 0
1, 12432, Note_on_c, 1, 55, 81
1, 12447, Note_on_c, 1, 55, 0
1, 12448, Note_on_c, 1, 59, 81
1, 12456, Note_on_c, 0, 74, 0
1, 12456, Note_on_c, 0, 75, 81
1, 12463, Note_on_c, 1, 59, 0
1, 12464, Note_on_c, 1, 62, 81
1, 12468, Note_on_c, 0, 75, 0
1, 12468, Note_on_c, 0, 77, 81
1, 12479, Note_on_c, 1, 62, 0
1, 12480, Note_on_c, 0, 77, 0
1, 12480, Note_on_c, 0, 75, 81
1, 12480, Note_on_c, 1, 55, 81
1, 12495, Note_on_c, 1, 55, 0
1, 12496, Note_on_c, 1, 60, 81
1, 12511, Note_on_c, 1, 60, 0
1, 12512, Note_on_c, 1, 63, 81
1, 12527, Note_on_c, 1, 63, 0
1, 12528, Note_on_c, 0, 75, 0
1, 12528, Note_on_c, 0, 79, 81
1, 12528, Note_on_c, 1, 55, 81
1, 12543, Note_on_c, 1, 55, 0
1, 12544, Note_on_c, 1, 60, 81
1, 12548, Note_on_c, 0, 79, 0
1, 12559, Note_on_c, 1, 60, 0
1, 12560, Note_on_c, 1, 63, 81
1, 12575, Note_on_c, 1, 63, 0
1, 12576, Note_on_c, 0, 71, 97
1, 12576, Note_on_c, 1, 55, 81
1, 12591, Note_on_c, 1, 55, 0
1, 12592, Note_on_c, 1, 62, 81
1, 12607, Note_on_c, 1, 62, 0
1, 12608, Note_on_c, 1, 65, 81
1, 12623, Note_on_c, 1, 65, 0
1, 12624, Note_on_c, 1, 55, 81
1, 12639, Note_on_c, 1, 55, 0
1, 12640, Note_on_c, 1, 62, 81
1, 12648, Note_on_c, 0, 71, 0
1, 12648, Note_on_c, 0, 72, 81
1, 12655, Note_on_c, 1, 62, 0
1, 12656, Note_on_c, 1, 65, 81
1, 12660, Note_on_c, 0, 72, 0
1, 12660, Note_on_c, 0, 74, 81
1, 12671, Note_on_c, 1, 65, 0
1, 12672, Note_on_c, 0, 74, 0
1, 12672, Note_on_c, 0, 72, 81
1, 12672, Note_on_c, 1, 55, 81
1, 12687, Note_on_c, 1, 55, 0
1, 12688, Note_on_c, 1, 63, 81
1, 12703, Note_on_c, 1, 63, 0
1, 12704, Note_on_c, 1, 67, 81
1, 12719, Note_on_c, 1, 67, 0
1, 12720, Note_on_c, 0, 72, 0
1, 12720, Note_on_c, 0, 75, 81
1, 12720, Note_on_c, 1, 55, 81
1, 12735, Note_on_c, 1, 55, 0
1, 12736, Note_on_c, 1, 63, 81
1, 12740, Note_on_c, 0, 75, 0
1, 12751, Note_on_c, 1, 63, 0
1, 12752, Note_on_c, 1, 67, 81
1, 12767, Note_on_c, 1, 67, 0
1, 12768, Note_on_c, 0, 74, 97
1, 12768, Note_on_c, 1, 55, 81
1, 12783, Note_on_c, 1, 55, 0
1, 12784, Note_on_c, 1, 59, 81
1, 12799, Note_on_c, 1, 59, 0
1, 12800, Note_on_c, 1, 62, 81
1, 12815, Note_on_c, 1, 62, 0
1, 12816, Note_on_c, 1, 55, 81
1, 12831, Note_on_c, 1, 55, 0
1, 12832, Note_on_c, 1, 59, 81
1, 12840, Note_on_c, 0, 74, 0
1, 12840, Note_on_c, 0, 75, 81
1, 12847, Note_on_c, 1, 59, 0
1, 12848, Note_on_c, 1, 62, 81
1, 12852, Note_on_c, 0, 75, 0
1, 12852, Note_on_c, 0, 77, 81
1, 12863, Note_on_c, 1, 62, 0
1, 12864, Note_on_c, 0, 77, 0
1, 12864, Note_on_c, 0, 75, 81
1, 12864, Note_on_c, 1, 55, 81
1, 12879, Note_on_c, 1, 55, 0
1, 12880, Note_on_c, 1, 60, 81
1, 12895, Note_on_c, 1, 60, 0
1, 12896, Note_on_c, 1, 63, 81
1, 12911, Note_on_c, 1, 63, 0
1, 12912, Note_on_c, 0, 75, 0
1, 12912, Note_on_c, 0, 79, 81
1, 12912, Note_on_c, 1, 55, 81
1, 12927, Note_on_c, 1, 55, 0
1, 12928, Note_on_c, 1, 60, 81
1, 12932, Note_on_c, 0, 79, 0
1, 12943, Note_on_c, 1, 60, 0
1, 12944, Note_on_c, 1, 63, 81
1, 12959, Note_on_c, 1, 63, 0
1, 12960, Note_on_c, 0, 71, 97
1, 12960, Note_on_c, 1, 55, 81
1, 12975, Note_on_c, 1, 55, 0
1, 12976, Note_on_c, 1, 62, 81
1, 12991, Note_on_c, 1, 62, 0
1, 12992, Note_on_c, 1, 65, 81
1, 13007, Note_on_c, 1, 65, 0
1, 13008, Note_on_c, 1, 55, 81
1, 13023, Note_on_c, 1, 55, 0
1, 13024, Note_on_c, 1, 62, 81
1, 13032, Note_on_c, 0, 71, 0
1, 13032, Note_on_c, 0, 72, 81
1, 13039, Note_on_c, 1, 62, 0
1, 13040, Note_on_c, 1, 65, 81
1, 13044, Note_on_c, 0, 72, 0
1, 13044, Note_on_c, 0, 74, 81
1, 13055, Note_on_c, 1, 65, 0
1, 13056, Note_on_c, 0, 74, 0
1, 13056, Note_on_c, 0, 72, 81
1, 13056, Note_on_c, 1, 55, 81
1, 13071, Note_on_c, 1, 55, 0
1, 13072, Note_on_c, 1, 63, 81
1, 13087, Note_on_c, 1, 63, 0
1, 13088, Note_on_c, 1, 67, 81
1, 13103, Note_on_c, 1, 67, 0
1, 13104, Note_on_c, 0, 72, 0
1, 13104, Note_on_c, 0, 75, 81
1, 13104, Note_on_c, 1, 55, 81
1, 13119, Note_on_c, 1, 55, 0
1, 13120, Note_on_c, 1, 63, 81
1, 13124, Note_on_c, 0, 75, 0
1, 13135, Note_on_c, 1, 63, 0
1, 13136, Note_on_c, 1, 67, 81
1, 13151, Note_on_c, 1, 67, 0
1, 13152, Note_on_c, 0, 74, 97
1, 13152, Note_on_c, 1, 55, 81
1, 13167, Note_on_c, 1, 55, 0
1, 13168, Note_on_c, 1, 59, 81
1, 13183, Note_on_c, 1, 59, 0
1, 13184, Note_on_c, 1, 62, 81
1, 13199, Note_on_c, 1, 62, 0
1, 13200, Note_on_c, 1, 55, 81
1, 13215, Note_on_c, 1, 55, 0
1, 13216, Note_on_c, 1, 59, 81
1, 13224, Note_on_c, 0, 74, 0
1, 13224, Note_on_c, 0, 75, 81
1, 13231, Note_on_c, 1, 59, 0
1, 13232, Note_on_c, 1, 62, 81
1, 13236, Note_on_c, 0, 75, 0
1, 13236, Note_on_c, 0, 77, 81
1, 13247, Note_on_c, 1, 62, 0
1, 13248, Note_on_c, 0, 77, 0
1, 13248, Note_on_c, 0, 75, 81
1, 13248, Note_on_c, 1, 60, 81
1, 13282, Note_on_c, 0, 75, 0
1, 13284, Note_on_c, 0, 79, 81
1, 13289, Note_on_c, 0, 79, 0
1, 13293, Note_on_c, 1, 60, 0
1, 13296, Note_on_c, 0, 80, 81
1, 13296, Note_on_c, 1, 63, 81
1, 13308, Note_on_c, 0, 80, 0
1, 13308, Note_on_c, 0, 79, 81
1, 13320, Note_on_c, 0, 79, 0
1, 13320, Note_on_c, 0, 77, 81
1, 13332, Note_on_c, 0, 77, 0
1, 13332, Note_on_c, 0, 79, 81
1, 13341, Note_on_c, 1, 63, 0
1, 13344, Note_on_c, 0, 79, 0
1, 13344, Note_on_c, 0, 80, 81
1, 13344, Note_on_c, 1, 65, 81
1, 13378, Note_on_c, 0, 80, 0
1, 13380, Note_on_c, 0, 77, 81
1, 13392, Note_on_c, 0, 77, 0
1, 13392, Note_on_c, 0, 75, 81
1, 13426, Note_on_c, 0, 75, 0
1, 13428, Note_on_c, 0, 74, 81
1, 13433, Note_on_c, 1, 65, 0
1, 13440, Note_on_c, 0, 74, 0
1, 13440, Note_on_c, 0, 72, 81
1, 13488, Note_on_c, 1, 60, 81
1, 13488, Note_on_c, 0, 51, 64
1, 13507, Note_on_c, 0, 72, 0
1, 13512, Note_on_c, 0, 74, 81
1, 13533, Note_on_c, 0, 51, 0
1, 13535, Note_on_c, 0, 74, 0
1, 13536, Note_on_c, 0, 75, 81
1, 13536, Note_on_c, 0, 53, 64
1, 13543, Note_on_c, 0, 75, 0
1, 13543, Note_on_c, 0, 74, 81
1, 13550, Note_on_c, 0, 74, 0
1, 13550, Note_on_c, 0, 75, 81
1, 13557, Note_on_c, 0, 75, 0
1, 13557, Note_on_c, 0, 74, 81
1, 13564, Note_on_c, 0, 74, 0
1, 13564, Note_on_c, 0, 75, 81
1, 13571, Note_on_c, 0, 75, 0
1, 13571, Note_on_c, 0, 74, 81
1, 13577, Note_on_c, 1, 60, 0
1, 13578, Note_on_c, 0, 74, 0
1, 13578, Note_on_c, 0, 75, 81
1, 13581, Note_on_c, 0, 53, 0
1, 13584, Note_on_c, 1, 59, 81
1, 13584, Note_on_c, 0, 55, 64
1, 13585, Note_on_c, 0, 75, 0
1, 13585, Note_on_c, 0, 74, 81
1, 13592, Note_on_c, 0, 74, 0
1, 13592, Note_on_c, 0, 75, 81
1, 13599, Note_on_c, 0, 75, 0
1, 13599, Note_on_c, 0, 74, 81
1, 13606, Note_on_c, 0, 74, 0
1, 13606, Note_on_c, 0, 75, 81
1, 13613, Note_on_c, 0, 75, 0
1, 13613, Note_on_c, 0, 74, 81
1, 13620, Note_on_c, 0, 74, 0
1, 13620, Note_on_c, 0, 72, 81
1, 13626, Note_on_c, 0, 72, 0
1, 13626, Note_on_c, 0, 74, 81
1, 13629, Note_on_c, 1, 59, 0
1, 13629, Note_on_c, 0, 55, 0
1, 13632, Note_on_c, 0, 74, 0
1, 13632, Note_on_c, 0, 72, 81
1, 13632, Note_on_c, 0, 48, 64
1, 13647, Note_on_c, 0, 48, 0
1, 13648, Note_on_c, 0, 51, 64
1, 13663, Note_on_c, 0, 51, 0
1, 13664, Note_on_c, 0, 55, 64
1, 13679, Note_on_c, 0, 55, 0
1, 13680, Note_on_c, 0, 48, 64
1, 13695, Note_on_c, 0, 48, 0
1, 13696, Note_on_c, 0, 51, 64
1, 13711, Note_on_c, 0, 51, 0
1, 13712, Note_on_c, 0, 55, 64
1, 13721, Note_on_c, 0, 72, 0
1, 13727, Note_on_c, 0, 55, 0
1, 13728, Note_on_c, 0, 86, 75
1, 13728, Note_on_c, 0, 47, 64
1, 13740, Note_on_c, 0, 86, 0
1, 13740, Note_on_c, 0, 77, 75
1, 13743, Note_on_c, 0, 47, 0
1, 13744, Note_on_c, 0, 50, 64
1, 13759, Note_on_c, 0, 50, 0
1, 13760, Note_on_c, 0, 55, 64
1, 13775, Note_on_c, 0, 55, 0
1, 13776, Note_on_c, 0, 47, 64
1, 13791, Note_on_c, 0, 47, 0
1, 13792, Note_on_c, 0, 50, 64
1, 13807, Note_on_c, 0, 50, 0
1, 13808, Note_on_c, 0, 55, 64
1, 13818, Note_on_c, 0, 77, 0
1, 13823, Note_on_c, 0, 55, 0
1, 13824, Note_on_c, 0, 75, 75
1, 13824, Note_on_c, 0, 48, 64
1, 13836, Note_on_c, 0, 75, 0
1, 13836, Note_on_c, 0, 84, 75
1, 13839, Note_on_c, 0, 48, 0
1, 13840, Note_on_c, 0, 51, 64
1, 13855, Note_on_c, 0, 51, 0
1, 13856, Note_on_c, 0, 55, 64
1, 13871, Note_on_c, 0, 55, 0
1, 13872, Note_on_c, 0, 48, 64
1, 13887, Note_on_c, 0, 48, 0
1, 13888, Note_on_c, 0, 51, 64
1, 13903, Note_on_c, 0, 51, 0
1, 13904, Note_on_c, 0, 55, 64
1, 13914, Note_on_c, 0, 84, 0
1, 13919, Note_on_c, 0, 55, 0
1, 13920, Note_on_c, 0, 86, 66
1, 13920, Note_on_c, 0, 47, 64
1, 13932, Note_on_c, 0, 86, 0
1, 13932, Note_on_c, 0, 77, 66
1, 13935, Note_on_c, 0, 47, 0
1, 13936, Note_on_c, 0, 50, 64
1, 13951, Note_on_c, 0, 50, 0
1, 13952, Note_on_c, 0, 55, 64
1, 13967, Note_on_c, 0, 55, 0
1, 13968, Note_on_c, 0, 47, 64
1, 13983, Note_on_c, 0, 47, 0
1, 13984, Note_on_c, 0, 50, 64
1, 13999, Note_on_c, 0, 50, 0
1, 14000, Note_on_c, 0, 55, 64
1, 14010, Note_on_c, 0, 77, 0
1, 14015, Note_on_c, 0, 55, 0
1, 14016, Note_on_c, 0, 75, 66
1, 14016, Note_on_c, 0, 48, 64
1, 14028, Note_on_c, 0, 75, 0
1, 14028, Note_on_c, 0, 84, 66
1, 14031, Note_on_c, 0, 48, 0
1, 14032, Note_on_c, 0, 51, 64
1, 14047, Note_on_c, 0, 51, 0
1, 14048, Note_on_c, 0, 55, 64
1, 14063, Note_on_c, 0, 55, 0
1, 14064, Note_on_c, 0, 48, 64
1, 14079, Note_on_c, 0, 48, 0
1, 14080, Note_on_c, 0, 51, 64
1, 14095, Note_on_c, 0, 51, 0
1, 14096, Note_on_c, 0, 55, 64
1, 14106, Note_on_c, 0, 84, 0
1, 14111, Note_on_c, 0, 55, 0
1, 14112, Note_on_c, 0, 86, 75
1, 14112, Note_on_c, 0, 47, 64
1, 14124, Note_on_c, 0, 86, 0
1, 14124, Note_on_c, 0, 77, 75
1, 14127, Note_on_c, 0, 47, 0
1, 14128, Note_on_c, 0, 50, 64
1, 14143, Note_on_c, 0, 50, 0
1, 14144, Note_on_c, 0, 55, 64
1, 14159, Note_on_c, 0, 55, 0
1, 14160, Note_on_c, 0, 47, 64
1, 14175, Note_on_c, 0, 47, 0
1, 14176, Note_on_c, 0, 50, 64
1, 14191, Note_on_c, 0, 50, 0
1, 14192, Note_on_c, 0, 55, 64
1, 14202, Note_on_c, 0, 77, 0
1, 14207, Note_on_c, 0, 55, 0
1, 14208, Note_on_c, 0, 75, 75
1, 14208, Note_on_c, 1, 48, 66
1, 14223, Note_on_c, 0, 75, 0
1, 14224, Note_on_c, 0, 84, 75
1, 14239, Note_on_c, 0, 84, 0
1, 14240, Note_on_c, 0, 79, 75
1, 14253, Note_on_c, 1, 48, 0
1, 14255, Note_on_c, 0, 79, 0
1, 14256, Note_on_c, 0, 80, 75
1, 14256, Note_on_c, 1, 53, 66
1, 14256, Note_on_c, 0, 41, 64
1, 14271, Note_on_c, 0, 80, 0
1, 14272, Note_on_c, 0, 77, 75
1, 14287, Note_on_c, 0, 77, 0
1, 14288, Note_on_c, 0, 74, 75
1, 14301, Note_on_c, 1, 53, 0
1, 14301, Note_on_c, 0, 41, 0
1, 14303, Note_on_c, 0, 74, 0
1, 14304, Note_on_c, 0, 72, 75
1, 14304, Note_on_c, 1, 51, 66
1, 14304, Note_on_c, 0, 43, 64
1, 14349, Note_on_c, 0, 72, 0
1, 14349, Note_on_c, 1, 51, 0
1, 14349, Note_on_c, 0, 43, 0
1, 14352, Note_on_c, 0, 71, 75
1, 14352, Note_on_c, 1, 50, 66
1, 14352, Note_on_c, 0, 43, 64
1, 14359, Note_on_c, 0, 71, 0
1, 14359, Note_on_c, 0, 72, 75
1, 14366, Note_on_c, 0, 72, 0
1, 14366, Note_on_c, 0, 71, 75
1, 14373, Note_on_c, 0, 71, 0
1, 14373, Note_on_c, 0, 72, 75
1, 14380, Note_on_c, 0, 72, 0
1, 14380, Note_on_c, 0, 71, 75
1, 14387, Note_on_c, 0, 71, 0
1, 14387, Note_on_c, 0, 69, 75
1, 14394, Note_on_c, 0, 69, 0
1, 14394, Note_on_c, 0, 71, 75
1, 14397, Note_on_c, 1, 50, 0
1, 14397, Note_on_c, 0, 43, 0
1, 14400, Note_on_c, 0, 71, 0
1, 14400, Note_on_c, 0, 72, 75
1, 14400, Note_on_c, 1, 48, 66
1, 14445, Note_on_c, 1, 48, 0
1, 14448, Note_on_c, 1, 43, 66
1, 14489, Note_on_c, 0, 72, 0
1, 14493, Note_on_c, 1, 43, 0
1, 14496, Note_on_c, 1, 36, 66
1, 14544, Note_on_c, 0, 67, 82
1, 14585, Note_on_c, 1, 36, 0
1, 14592, Note_on_c, 0, 67, 0
1, 14592, Note_on_c, 0, 65, 66
1, 14615, Note_on_c, 0, 65, 0
1, 14616, Note_on_c, 0, 63, 66
1, 14639, Note_on_c, 0, 63, 0
1, 14640, Note_on_c, 0, 62, 70
1, 14640, Note_on_c, 1, 51, 62
1, 14640, Note_on_c, 1, 48, 62
1, 14663, Note_on_c, 0, 62, 0
1, 14664, Note_on_c, 0, 60, 70
1, 14685, Note_on_c, 1, 51, 0
1, 14685, Note_on_c, 1, 48, 0
1, 14687, Note_on_c, 0, 60, 0
1, 14688, Note_on_c, 0, 60, 71
1, 14688, Note_on_c, 1, 53, 63
1, 14688, Note_on_c, 1, 50, 63
1, 14733, Note_on_c, 0, 60, 0
1, 14733, Note_on_c, 1, 53, 0
1, 14733, Note_on_c, 1, 50, 0
1, 14736, Note_on_c, 0, 60, 73
1, 14736, Note_on_c, 1, 55, 64
1, 14736, Note_on_c, 1, 51, 64
1, 14781, Note_on_c, 0, 60, 0
1, 14781, Note_on_c, 1, 55, 0
1, 14781, Note_on_c, 1, 51, 0
1, 14784, Note_on_c, 0, 59, 75
1, 14784, Note_on_c, 1, 56, 66
1, 14784, Note_on_c, 1, 53, 66
1, 14818, Note_on_c, 0, 59, 0
1, 14820, Note_on_c, 0, 60, 73
1, 14826, Note_on_c, 0, 60, 0
1, 14826, Note_on_c, 0, 62, 72
1, 14829, Note_on_c, 1, 56, 0
1, 14829, Note_on_c, 1, 53, 0
1, 14832, Note_on_c, 0, 62, 0
1, 14832, Note_on_c, 0, 60, 72
1, 14832, Note_on_c, 1, 55, 64
1, 14832, Note_on_c, 1, 51, 64
1, 14877, Note_on_c, 0, 60, 0
1, 14877, Note_on_c, 1, 55, 0
1, 14877, Note_on_c, 1, 51, 0
1, 14880, Note_on_c, 0, 68, 86
1, 14880, Note_on_c, 0, 59, 86
1, 14928, Note_on_c, 1, 53, 78
1, 14976, Note_on_c, 0, 68, 0
1, 14976, Note_on_c, 0, 59, 0
1, 14976, Note_on_c, 0, 67, 62
1, 14976, Note_on_c, 0, 60, 62
1, 14976, Note_on_c, 1, 53, 0
1, 14976, Note_on_c, 1, 51, 62
1, 14996, Note_on_c, 0, 67, 0
1, 14996, Note_on_c, 0, 60, 0
1, 14996, Note_on_c, 1, 51, 0
1, 15024, Note_on_c, 0, 63, 62
1, 15024, Note_on_c, 0, 60, 62
1, 15024, Note_on_c, 1, 56, 62
1, 15044, Note_on_c, 0, 63, 0
1, 15044, Note_on_c, 0, 60, 0
1, 15044, Note_on_c, 1, 56, 0
1, 15072, Note_on_c, 0, 65, 62
1, 15072, Note_on_c, 0, 62, 62
1, 15072, Note_on_c, 1, 53, 62
1, 15092, Note_on_c, 0, 65, 0
1, 15092, Note_on_c, 0, 62, 0
1, 15092, Note_on_c, 1, 53, 0
1, 15120, Note_on_c, 0, 62, 62
1, 15120, Note_on_c, 0, 59, 62
1, 15120, Note_on_c, 1, 55, 62
1, 15140, Note_on_c, 0, 62, 0
1, 15140, Note_on_c, 0, 59, 0
1, 15140, Note_on_c, 1, 55, 0
1, 15168, Note_on_c, 0, 60, 62
1, 15168, Note_on_c, 1, 48, 62
1, 15213, Note_on_c, 1, 48, 0
1, 15216, Note_on_c, 1, 36, 62
1, 15257, Note_on_c, 0, 60, 0
1, 15261, Note_on_c, 1, 36, 0
1, 15312, Note_on_c, 0, 77, 86
1, 15360, Note_on_c, 0, 77, 0
1, 15360, Note_on_c, 0, 75, 70
1, 15383, Note_on_c, 0, 75, 0
1, 15384, Note_on_c, 0, 74, 70
1, 15407, Note_on_c, 0, 74, 0
1, 15408, Note_on_c, 0, 72, 70
1, 15408, Note_on_c, 1, 50, 66
1, 15408, Note_on_c, 1, 46, 66
1, 15431, Note_on_c, 0, 72, 0
1, 15432, Note_on_c, 0, 70, 70
1, 15453, Note_on_c, 1, 50, 0
1, 15453, Note_on_c, 1, 46, 0
1, 15455, Note_on_c, 0, 70, 0
1, 15456, Note_on_c, 0, 70, 71
1, 15456, Note_on_c, 1, 51, 67
1, 15456, Note_on_c, 1, 48, 67
1, 15501, Note_on_c, 0, 70, 0
1, 15501, Note_on_c, 1, 51, 0
1, 15501, Note_on_c, 1, 48, 0
1, 15504, Note_on_c, 0, 70, 71
1, 15504, Note_on_c, 1, 53, 68
1, 15504, Note_on_c, 1, 50, 68
1, 15549, Note_on_c, 0, 70, 0
1, 15549, Note_on_c, 1, 53, 0
1, 15549, Note_on_c, 1, 50, 0
1, 15552, Note_on_c, 0, 70, 72
1, 15552, Note_on_c, 1, 55, 68
1, 15552, Note_on_c, 1, 51, 68
1, 15597, Note_on_c, 0, 70, 0
1, 15600, Note_on_c, 0, 71, 72
1, 15641, Note_on_c, 1, 55, 0
1, 15641, Note_on_c, 1, 51, 0
1, 15645, Note_on_c, 0, 71, 0
1, 15648, Note_on_c, 0, 72, 73
1, 15693, Note_on_c, 0, 72, 0
1, 15696, Note_on_c, 0, 79, 89
1, 15744, Note_on_c, 0, 79, 0
1, 15744, Note_on_c, 0, 77, 74
1, 15767, Note_on_c, 0, 77, 0
1, 15768, Note_on_c, 0, 75, 74
1, 15791, Note_on_c, 0, 75, 0
1, 15792, Note_on_c, 0, 74, 74
1, 15792, Note_on_c, 1, 51, 72
1, 15792, Note_on_c, 1, 48, 72
1, 15815, Note_on_c, 0, 74, 0
1, 15816, Note_on_c, 0, 72, 74
1, 15837, Note_on_c, 1, 51, 0
1, 15837, Note_on_c, 1, 48, 0
1, 15839, Note_on_c, 0, 72, 0
1, 15840, Note_on_c, 0, 72, 75
1, 15840, Note_on_c, 1, 53, 73
1, 15840, Note_on_c, 1, 50, 73
1, 15885, Note_on_c, 0, 72, 0
1, 15885, Note_on_c, 1, 53, 0
1, 15885, Note_on_c, 1, 50, 0
1, 15888, Note_on_c, 0, 72, 75
1, 15888, Note_on_c, 1, 55, 73
1, 15888, Note_on_c, 1, 51, 73
1, 15933, Note_on_c, 0, 72, 0
1, 15933, Note_on_c, 1, 55, 0
1, 15933, Note_on_c, 1, 51, 0
1, 15936, Note_on_c, 0, 72, 76
1, 15936, Note_on_c, 1, 57, 74
1, 15936, Note_on_c, 1, 53, 74
1, 15981, Note_on_c, 0, 72, 0
1, 15984, Note_on_c, 0, 73, 76
1, 16025, Note_on_c, 1, 57, 0
1, 16025, Note_on_c, 1, 53, 0
1, 16029, Note_on_c, 0, 73, 0
1, 16032, Note_on_c, 0, 74, 77
1, 16077, Note_on_c, 0, 74, 0
1, 16080, Note_on_c, 0, 81, 93
1, 16128, Note_on_c, 0, 81, 0
1, 16128, Note_on_c, 0, 79, 78
1, 16151, Note_on_c, 0, 79, 0
1, 16152, Note_on_c, 0, 78, 78
1, 16175, Note_on_c, 0, 78, 0
1, 16176, Note_on_c, 0, 75, 78
1, 16176, Note_on_c, 1, 54, 78
1, 16176, Note_on_c, 1, 50, 78
1, 16199, Note_on_c, 0, 75, 0
1, 16200, Note_on_c, 0, 74, 79
1, 16221, Note_on_c, 1, 54, 0
1, 16221, Note_on_c, 1, 50, 0
1, 16223, Note_on_c, 0, 74, 0
1, 16224, Note_on_c, 0, 74, 79
1, 16224, Note_on_c, 1, 55, 78
1, 16224, Note_on_c, 1, 52, 78
1, 16269, Note_on_c, 0, 74, 0
1, 16269, Note_on_c, 1, 55, 0
1, 16269, Note_on_c, 1, 52, 0
1, 16272, Note_on_c, 0, 74, 79
1, 16272, Note_on_c, 1, 57, 79
1, 16272, Note_on_c, 1, 54, 79
1, 16317, Note_on_c, 0, 74, 0
1, 16317, Note_on_c, 1, 57, 0
1, 16317, Note_on_c, 1, 54, 0
1, 16320, Note_on_c, 0, 74, 80
1, 16320, Note_on_c, 1, 58, 80
1, 16365, Note_on_c, 0, 74, 0
1, 16365, Note_on_c, 1, 58, 0
1, 16368, Note_on_c, 0, 82, 70
1, 16368, Note_on_c, 1, 67, 70
1, 16416, Note_on_c, 0, 82, 0
1, 16416, Note_on_c, 0, 81, 70
1, 16416, Note_on_c, 1, 67, 0
1, 16416, Note_on_c, 1, 65, 70
1, 16461, Note_on_c, 0, 81, 0
1, 16464, Note_on_c, 0, 74, 70
1, 16505, Note_on_c, 1, 65, 0
1, 16512, Note_on_c, 0, 74, 0
1, 16512, Note_on_c, 0, 79, 70
1, 16512, Note_on_c, 0, 63, 64
1, 16560, Note_on_c, 1, 70, 70
1, 16601, Note_on_c, 0, 79, 0
1, 16608, Note_on_c, 0, 77, 70
1, 16631, Note_on_c, 0, 77, 0
1, 16632, Note_on_c, 0, 75, 69
1, 16649, Note_on_c, 1, 70, 0
1, 16655, Note_on_c, 0, 75, 0
1, 16656, Note_on_c, 0, 74, 69
1, 16656, Note_on_c, 1, 67, 70
1, 16679, Note_on_c, 0, 74, 0
1, 16680, Note_on_c, 0, 73, 68
1, 16689, Note_on_c, 0, 63, 0
1, 16701, Note_on_c, 1, 67, 0
1, 16703, Note_on_c, 0, 73, 0
1, 16704, Note_on_c, 0, 73, 68
1, 16704, Note_on_c, 1, 66, 68
1, 16704, Note_on_c, 1, 62, 68
1, 16752, Note_on_c, 0, 73, 0
1, 16752, Note_on_c, 0, 74, 67
1, 16793, Note_on_c, 1, 66, 0
1, 16793, Note_on_c, 1, 62, 0
1, 16819, Note_on_c, 0, 74, 0
1, 16824, Tempo, 1333333
1, 16872, Tempo, 1000000
1, 16872, Note_on_c, 0, 74, 70
1, 16882, Note_on_c, 0, 74, 0
1, 16896, Note_on_c, 0, 72, 70
1, 16919, Note_on_c, 0, 72, 0
1, 16920, Note_on_c, 0, 70, 70
1, 16943, Note_on_c, 0, 70, 0
1, 16944, Note_on_c, 0, 69, 70
1, 16944, Note_on_c, 1, 58, 66
1, 16944, Note_on_c, 1, 55, 66
1, 16967, Note_on_c, 0, 69, 0
1, 16968, Note_on_c, 0, 67, 70
1, 16989, Note_on_c, 1, 58, 0
1, 16989, Note_on_c, 1, 55, 0
1, 16991, Note_on_c, 0, 67, 0
1, 16992, Note_on_c, 0, 66, 70
1, 16992, Note_on_c, 1, 60, 66
1, 16992, Note_on_c, 1, 57, 66
1, 17016, Note_on_c, 0, 66, 0
1, 17016, Note_on_c, 0, 67, 70
1, 17037, Note_on_c, 1, 60, 0
1, 17037, Note_on_c, 1, 57, 0
1, 17039, Note_on_c, 0, 67, 0
1, 17040, Note_on_c, 1, 62, 67
1, 17040, Note_on_c, 1, 58, 67
1, 17064, Note_on_c, 0, 79, 70
1, 17074, Note_on_c, 0, 79, 0
1, 17085, Note_on_c, 1, 62, 0
1, 17085, Note_on_c, 1, 58, 0
1, 17088, Note_on_c, 0, 77, 71
1, 17111, Note_on_c, 0, 77, 0
1, 17112, Note_on_c, 0, 75, 71
1, 17135, Note_on_c, 0, 75, 0
1, 17136, Note_on_c, 0, 74, 71
1, 17136, Note_on_c, 1, 63, 68
1, 17136, Note_on_c, 1, 60, 68
1, 17159, Note_on_c, 0, 74, 0
1, 17160, Note_on_c, 0, 72, 71
1, 17181, Note_on_c, 1, 63, 0
1, 17181, Note_on_c, 1, 60, 0
1, 17183, Note_on_c, 0, 72, 0
1, 17184, Note_on_c, 0, 71, 71
1, 17184, Note_on_c, 1, 65, 68
1, 17184, Note_on_c, 1, 62, 68
1, 17208, Note_on_c, 0, 71, 0
1, 17208, Note_on_c, 0, 72, 71
1, 17229, Note_on_c, 1, 65, 0
1, 17229, Note_on_c, 1, 62, 0
1, 17231, Note_on_c, 0, 72, 0
1, 17232, Note_on_c, 1, 67, 69
1, 17232, Note_on_c, 1, 63, 69
1, 17256, Note_on_c, 0, 84, 71
1, 17266, Note_on_c, 0, 84, 0
1, 17277, Note_on_c, 1, 67, 0
1, 17277, Note_on_c, 1, 63, 0
1, 17280, Note_on_c, 0, 82, 72
1, 17303, Note_on_c, 0, 82, 0
1, 17304, Note_on_c, 0, 81, 72
1, 17327, Note_on_c, 0, 81, 0
1, 17328, Note_on_c, 0, 79, 72
1, 17328, Note_on_c, 1, 69, 70
1, 17328, Note_on_c, 1, 65, 70
1, 17351, Note_on_c, 0, 79, 0
1, 17352, Note_on_c, 0, 77, 72
1, 17373, Note_on_c, 1, 69, 0
1, 17373, Note_on_c, 1, 65, 0
1, 17375, Note_on_c, 0, 77, 0
1, 17376, Note_on_c, 0, 76, 72
1, 17376, Note_on_c, 1, 70, 70
1, 17376, Note_on_c, 1, 67, 70
1, 17400, Note_on_c, 0, 76, 0
1, 17400, Note_on_c, 0, 77, 72
1, 17421, Note_on_c, 1, 70, 0
1, 17421, Note_on_c, 1, 67, 0
1, 17423, Note_on_c, 0, 77, 0
1, 17424, Note_on_c, 1, 72, 70
1, 17424, Note_on_c, 1, 69, 70
1, 17448, Note_on_c, 0, 77, 72
1, 17458, Note_on_c, 0, 77, 0
1, 17469, Note_on_c, 1, 72, 0
1, 17469, Note_on_c, 1, 69, 0
1, 17472, Note_on_c, 0, 75, 73
1, 17495, Note_on_c, 0, 75, 0
1, 17496, Note_on_c, 0, 74, 73
1, 17519, Note_on_c, 0, 74, 0
1, 17520, Note_on_c, 0, 72, 73
1, 17520, Note_on_c, 1, 62, 71
1, 17520, Note_on_c, 1, 58, 71
1, 17543, Note_on_c, 0, 72, 0
1, 17544, Note_on_c, 0, 70, 73
1, 17565, Note_on_c, 1, 62, 0
1, 17565, Note_on_c, 1, 58, 0
1, 17567, Note_on_c, 0, 70, 0
1, 17568, Note_on_c, 0, 69, 73
1, 17568, Note_on_c, 1, 63, 72
1, 17568, Note_on_c, 1, 60, 72
1, 17592, Note_on_c, 0, 69, 0
1, 17592, Note_on_c, 0, 70, 73
1, 17613, Note_on_c, 1, 63, 0
1, 17613, Note_on_c, 1, 60, 0
1, 17615, Note_on_c, 0, 70, 0
1, 17616, Note_on_c, 1, 65, 72
1, 17616, Note_on_c, 1, 62, 72
1, 17640, Note_on_c, 0, 82, 73
1, 17650, Note_on_c, 0, 82, 0
1, 17661, Note_on_c, 1, 65, 0
1, 17661, Note_on_c, 1, 62, 0
1, 17664, Note_on_c, 0, 80, 74
1, 17687, Note_on_c, 0, 80, 0
1, 17688, Note_on_c, 0, 79, 74
1, 17711, Note_on_c, 0, 79, 0
1, 17712, Note_on_c, 0, 77, 74
1, 17712, Note_on_c, 1, 67, 73
1, 17712, Note_on_c, 1, 63, 73
1, 17735, Note_on_c, 0, 77, 0
1, 17736, Note_on_c, 0, 75, 74
1, 17757, Note_on_c, 1, 67, 0
1, 17757, Note_on_c, 1, 63, 0
1, 17759, Note_on_c, 0, 75, 0
1, 17760, Note_on_c, 0, 74, 74
1, 17760, Note_on_c, 1, 68, 74
1, 17760, Note_on_c, 1, 65, 74
1, 17784, Note_on_c, 0, 74, 0
1, 17784, Note_on_c, 0, 75, 74
1, 17805, Note_on_c, 1, 68, 0
1, 17805, Note_on_c, 1, 65, 0
1, 17807, Note_on_c, 0, 75, 0
1, 17808, Note_on_c, 0, 74, 74
1, 17808, Note_on_c, 1, 70, 74
1, 17808, Note_on_c, 1, 67, 74
1, 17832, Note_on_c, 0, 74, 0
1, 17832, Note_on_c, 0, 75, 74
1, 17853, Note_on_c, 1, 70, 0
1, 17853, Note_on_c, 1, 67, 0
1, 17855, Note_on_c, 0, 75, 0
1, 17856, Note_on_c, 1, 68, 75
1, 17880, Note_on_c, 0, 72, 75
1, 17903, Note_on_c, 0, 72, 0
1, 17904, Note_on_c, 0, 74, 75
1, 17928, Note_on_c, 0, 74, 0
1, 17928, Note_on_c, 0, 75, 75
1, 17945, Note_on_c, 1, 68, 0
1, 17951, Note_on_c, 0, 75, 0
1, 17952, Note_on_c, 1, 67, 75
1, 17976, Note_on_c, 0, 70, 75
1, 17999, Note_on_c, 0, 70, 0
1, 18000, Note_on_c, 0, 74, 75
1, 18024, Note_on_c, 0, 74, 0
1, 18024, Note_on_c, 0, 75, 75
1, 18041, Note_on_c, 1, 67, 0
1, 18047, Note_on_c, 0, 75, 0
1, 18048, Note_on_c, 1, 65, 75
1, 18072, Note_on_c, 0, 68, 75
1, 18095, Note_on_c, 0, 68, 0
1, 18096, Note_on_c, 0, 73, 75
1, 18120, Note_on_c, 0, 73, 0
1, 18120, Note_on_c, 0, 74, 75
1, 18137, Note_on_c, 1, 65, 0
1, 18143, Note_on_c, 0, 74, 0
1, 18144, Note_on_c, 1, 63, 75
1, 18168, Note_on_c, 0, 67, 75
1, 18191, Note_on_c, 0, 67, 0
1, 18192, Note_on_c, 0, 71, 75
1, 18216, Note_on_c, 0, 71, 0
1, 18216, Note_on_c, 0, 72, 75
1, 18233, Note_on_c, 1, 63, 0
1, 18239, Note_on_c, 0, 72, 0
1, 18240, Note_on_c, 0, 65, 75
1, 18240, Note_on_c, 1, 62, 75
1, 18263, Note_on_c, 0, 65, 0
1, 18264, Note_on_c, 0, 71, 75
1, 18287, Note_on_c, 0, 71, 0
1, 18288, Note_on_c, 0, 74, 75
1, 18311, Note_on_c, 0, 74, 0
1, 18312, Note_on_c, 0, 77, 75
1, 18329, Note_on_c, 1, 62, 0
1, 18335, Note_on_c, 0, 77, 0
1, 18336, Note_on_c, 0, 80, 91
1, 18384, Note_on_c, 1, 59, 75
1, 18408, Note_on_c, 0, 80, 0
1, 18408, Note_on_c, 0, 79, 75
1, 18420, Note_on_c, 0, 79, 0
1, 18420, Note_on_c, 0, 77, 75
1, 18429, Note_on_c, 1, 59, 0
1, 18432, Note_on_c, 0, 77, 0
1, 18432, Note_on_c, 0, 77, 75
1, 18432, Note_on_c, 1, 60, 75
1, 18455, Note_on_c, 0, 77, 0
1, 18456, Note_on_c, 0, 75, 75
1, 18477, Note_on_c, 1, 60, 0
1, 18479, Note_on_c, 0, 75, 0
1, 18480, Note_on_c, 0, 74, 75
1, 18480, Note_on_c, 1, 51, 75
1, 18503, Note_on_c, 0, 74, 0
1, 18504, Note_on_c, 0, 72, 75
1, 18525, Note_on_c, 1, 51, 0
1, 18527, Note_on_c, 0, 72, 0
1, 18528, Note_on_c, 0, 80, 75
1, 18528, Note_on_c, 1, 53, 75
1, 18543, Note_on_c, 0, 80, 0
1, 18544, Note_on_c, 0, 79, 75
1, 18559, Note_on_c, 0, 79, 0
1, 18560, Note_on_c, 0, 77, 75
1, 18575, Note_on_c, 0, 77, 0
1, 18576, Note_on_c, 0, 75, 75
1, 18576, Note_on_c, 1, 53, 0
1, 18576, Note_on_c, 1, 54, 77
1, 18591, Note_on_c, 0, 75, 0
1, 18592, Note_on_c, 0, 74, 76
1, 18607, Note_on_c, 0, 74, 0
1, 18608, Note_on_c, 0, 72, 76
1, 18621, Note_on_c, 1, 54, 0
1, 18623, Note_on_c, 0, 72, 0
1, 18624, Note_on_c, 0, 71, 77
1, 18624, Note_on_c, 1, 55, 80
1, 18639, Note_on_c, 1, 55, 0
1, 18640, Note_on_c, 1, 59, 81
1, 18655, Note_on_c, 1, 59, 0
1, 18656, Note_on_c, 1, 62, 81
1, 18671, Note_on_c, 1, 62, 0
1, 18672, Note_on_c, 1, 55, 81
1, 18687, Note_on_c, 1, 55, 0
1, 18688, Note_on_c, 1, 59, 81
1, 18703, Note_on_c, 1, 59, 0
1, 18704, Note_on_c, 1, 62, 81
1, 18713, Note_on_c, 0, 71, 0
1, 18719, Note_on_c, 1, 62, 0
1, 18720, Note_on_c, 0, 74, 97
1, 18720, Note_on_c, 1, 55, 81
1, 18735, Note_on_c, 1, 55, 0
1, 18736, Note_on_c, 1, 59, 81
1, 18751, Note_on_c, 1, 59, 0
1, 18752, Note_on_c, 1, 62, 81
1, 18767, Note_on_c, 1, 62, 0
1, 18768, Note_on_c, 1, 55, 81
1, 18783, Note_on_c, 1, 55, 0
1, 18784, Note_on_c, 1, 59, 81
1, 18792, Note_on_c, 0, 74, 0
1, 18792, Note_on_c, 0, 75, 81
1, 18799, Note_on_c, 1, 59, 0
1, 18800, Note_on_c, 1, 62, 81
1, 18804, Note_on_c, 0, 75, 0
1, 18804, Note_on_c, 0, 77, 81
1, 18815, Note_on_c, 1, 62, 0
1, 18816, Note_on_c, 0, 77, 0
1, 18816, Note_on_c, 0, 75, 81
1, 18816, Note_on_c, 1, 55, 81
1, 18831, Note_on_c, 1, 55, 0
1, 18832, Note_on_c, 1, 60, 81
1, 18847, Note_on_c, 1, 60, 0
1, 18848, Note_on_c, 1, 63, 81
1, 18863, Note_on_c, 1, 63, 0
1, 18864, Note_on_c, 0, 75, 0
1, 18864, Note_on_c, 0, 79, 81
1, 18864, Note_on_c, 1, 55, 81
1, 18879, Note_on_c, 1, 55, 0
1, 18880, Note_on_c, 1, 60, 81
1, 18884, Note_on_c, 0, 79, 0
1, 18895, Note_on_c, 1, 60, 0
1, 18896, Note_on_c, 1, 63, 81
1, 18911, Note_on_c, 1, 63, 0
1, 18912, Note_on_c, 0, 71, 97
1, 18912, Note_on_c, 1, 55, 81
1, 18927, Note_on_c, 1, 55, 0
1, 18928, Note_on_c, 1, 62, 81
1, 18943, Note_on_c, 1, 62, 0
1, 18944, Note_on_c, 1, 65, 81
1, 18959, Note_on_c, 1, 65, 0
1, 18960, Note_on_c, 1, 55, 81
1, 18975, Note_on_c, 1, 55, 0
1, 18976, Note_on_c, 1, 62, 81
1, 18984, Note_on_c, 0, 71, 0
1, 18984, Note_on_c, 0, 72, 81
1, 18991, Note_on_c, 1, 62, 0
1, 18992, Note_on_c, 1, 65, 81
1, 18996, Note_on_c, 0, 72, 0
1, 18996, Note_on_c, 0, 74, 81
1, 19007, Note_on_c, 1, 65, 0
1, 19008, Note_on_c, 0, 74, 0
1, 19008, Note_on_c, 0, 72, 81
1, 19008, Note_on_c, 1, 55, 81
1, 19023, Note_on_c, 1, 55, 0
1, 19024, Note_on_c, 1, 63, 81
1, 19039, Note_on_c, 1, 63, 0
1, 19040, Note_on_c, 1, 67, 81
1, 19055, Note_on_c, 1, 67, 0
1, 19056, Note_on_c, 0, 72, 0
1, 19056, Note_on_c, 0, 75, 81
1, 19056, Note_on_c, 1, 55, 81
1, 19071, Note_on_c, 1, 55, 0
1, 19072, Note_on_c, 1, 63, 81
1, 19076, Note_on_c, 0, 75, 0
1, 19087, Note_on_c, 1, 63, 0
1, 19088, Note_on_c, 1, 67, 81
1, 19103, Note_on_c, 1, 67, 0
1, 19104, Note_on_c, 0, 74, 97
1, 19104, Note_on_c, 1, 55, 81
1, 19119, Note_on_c, 1, 55, 0
1, 19120, Note_on_c, 1, 59, 81
1, 19135, Note_on_c, 1, 59, 0
1, 19136, Note_on_c, 1, 62, 81
1, 19151, Note_on_c, 1, 62, 0
1, 19152, Note_on_c, 1, 55, 81
1, 19167, Note_on_c, 1, 55, 0
1, 19168, Note_on_c, 1, 59, 81
1, 19176, Note_on_c, 0, 74, 0
1, 19176, Note_on_c, 0, 75, 81
1, 19183, Note_on_c, 1, 59, 0
1, 19184, Note_on_c, 1, 62, 81
1, 19188, Note_on_c, 0, 75, 0
1, 19188, Note_on_c, 0, 77, 81
1, 19199, Note_on_c, 1, 62, 0
1, 19200, Note_on_c, 0, 77, 0
1, 19200, Note_on_c, 0, 75, 81
1, 19200, Note_on_c, 1, 55, 81
1, 19215, Note_on_c, 1, 55, 0
1, 19216, Note_on_c, 1, 60, 81
1, 19231, Note_on_c, 1, 60, 0
1, 19232, Note_on_c, 1, 63, 81
1, 19247, Note_on_c, 1, 63, 0
1, 19248, Note_on_c, 0, 75, 0
1, 19248, Note_on_c, 0, 79, 81
1, 19248, Note_on_c, 1, 55, 81
1, 19263, Note_on_c, 1, 55, 0
1, 19264, Note_on_c, 1, 60, 81
1, 19268, Note_on_c, 0, 79, 0
1, 19279, Note_on_c, 1, 60, 0
1, 19280, Note_on_c, 1, 63, 81
1, 19295, Note_on_c, 1, 63, 0
1, 19296, Note_on_c, 0, 71, 97
1, 19296, Note_on_c, 1, 55, 81
1, 19311, Note_on_c, 1, 55, 0
1, 19312, Note_on_c, 1, 62, 81
1, 19327, Note_on_c, 1, 62, 0
1, 19328, Note_on_c, 1, 65, 81
1, 19343, Note_on_c, 1, 65, 0
1, 19344, Note_on_c, 1, 55, 81
1, 19359, Note_on_c, 1, 55, 0
1, 19360, Note_on_c, 1, 62, 81
1, 19368, Note_on_c, 0, 71, 0
1, 19368, Note_on_c, 0, 72, 81
1, 19375, Note_on_c, 1, 62, 0
1, 19376, Note_on_c, 1, 65, 81
1, 19380, Note_on_c, 0, 72, 0
1, 19380, Note_on_c, 0, 74, 81
1, 19391, Note_on_c, 1, 65, 0
1, 19392, Note_on_c, 0, 74, 0
1, 19392, Note_on_c, 0, 72, 81
1, 19392, Note_on_c, 1, 55, 81
1, 19407, Note_on_c, 1, 55, 0
1, 19408, Note_on_c, 1, 63, 81
1, 19423, Note_on_c, 1, 63, 0
1, 19424, Note_on_c, 1, 67, 81
1, 19439, Note_on_c, 1, 67, 0
1, 19440, Note_on_c, 0, 72, 0
1, 19440, Note_on_c, 0, 75, 81
1, 19440, Note_on_c, 1, 55, 81
1, 19455, Note_on_c, 1, 55, 0
1, 19456, Note_on_c, 1, 63, 81
1, 19460, Note_on_c, 0, 75, 0
1, 19471, Note_on_c, 1, 63, 0
1, 19472, Note_on_c, 1, 67, 81
1, 19487, Note_on_c, 1, 67, 0
1, 19488, Note_on_c, 0, 74, 97
1, 19488, Note_on_c, 1, 55, 81
1, 19503, Note_on_c, 1, 55, 0
1, 19504, Note_on_c, 1, 59, 81
1, 19519, Note_on_c, 1, 59, 0
1, 19520, Note_on_c, 1, 62, 81
1, 19535, Note_on_c, 1, 62, 0
1, 19536, Note_on_c, 1, 55, 81
1, 19551, Note_on_c, 1, 55, 0
1, 19552, Note_on_c, 1, 59, 81
1, 19560, Note_on_c, 0, 74, 0
1, 19560, Note_on_c, 0, 75, 81
1, 19567, Note_on_c, 1, 59, 0
1, 19568, Note_on_c, 1, 62, 81
1, 19572, Note_on_c, 0, 75, 0
1, 19572, Note_on_c, 0, 77, 81
1, 19583, Note_on_c, 1, 62, 0
1, 19584, Note_on_c, 0, 77, 0
1, 19584, Note_on_c, 0, 75, 81
1, 19584, Note_on_c, 1, 60, 81
1, 19618, Note_on_c, 0, 75, 0
1, 19620, Note_on_c, 0, 79, 81
1, 19625, Note_on_c, 0, 79, 0
1, 19629, Note_on_c, 1, 60, 0
1, 19632, Note_on_c, 0, 80, 81
1, 19632, Note_on_c, 1, 63, 81
1, 19644, Note_on_c, 0, 80, 0
1, 19644, Note_on_c, 0, 79, 81
1, 19656, Note_on_c, 0, 79, 0
1, 19656, Note_on_c, 0, 77, 81
1, 19668, Note_on_c, 0, 77, 0
1, 19668, Note_on_c, 0, 79, 81
1, 19677, Note_on_c, 1, 63, 0
1, 19680, Note_on_c, 0, 79, 0
1, 19680, Note_on_c, 0, 80, 81
1, 19680, Note_on_c, 1, 65, 81
1, 19714, Note_on_c, 0, 80, 0
1, 19716, Note_on_c, 0, 77, 81
1, 19728, Note_on_c, 0, 77, 0
1, 19728, Note_on_c, 0, 75, 81
1, 19762, Note_on_c, 0, 75, 0
1, 19764, Note_on_c, 0, 74, 81
1, 19769, Note_on_c, 1, 65, 0
1, 19776, Note_on_c, 0, 74, 0
1, 19776, Note_on_c, 0, 72, 81
1, 19824, Note_on_c, 1, 60, 81
1, 19824, Note_on_c, 0, 51, 64
1, 19843, Note_on_c, 0, 72, 0
1, 19848, Note_on_c, 0, 74, 81
1, 19869, Note_on_c, 0, 51, 0
1, 19871, Note_on_c, 0, 74, 0
1, 19872, Note_on_c, 0, 75, 81
1, 19872, Note_on_c, 0, 53, 64
1, 19879, Note_on_c, 0, 75, 0
1, 19879, Note_on_c, 0, 74, 81
1, 19886, Note_on_c, 0, 74, 0
1, 19886, Note_on_c, 0, 75, 81
1, 19893, Note_on_c, 0, 75, 0
1, 19893, Note_on_c, 0, 74, 81
1, 19900, Note_on_c, 0, 74, 0
1, 19900, Note_on_c, 0, 75, 81
1, 19907, Note_on_c, 0, 75, 0
1, 19907, Note_on_c, 0, 74, 81
1, 19913, Note_on_c, 1, 60, 0
1, 19914, Note_on_c, 0, 74, 0
1, 19914, Note_on_c, 0, 75, 81
1, 19917, Note_on_c, 0, 53, 0
1, 19920, Note_on_c, 1, 59, 81
1, 19920, Note_on_c, 0, 55, 64
1, 19921, Note_on_c, 0, 75, 0
1, 19921, Note_on_c, 0, 74, 81
1, 19928, Note_on_c, 0, 74, 0
1, 19928, Note_on_c, 0, 75, 81
1, 19935, Note_on_c, 0, 75, 0
1, 19935, Note_on_c, 0, 74, 81
1, 19942, Note_on_c, 0, 74, 0
1, 19942, Note_on_c, 0, 75, 81
1, 19949, Note_on_c, 0, 75, 0
1, 19949, Note_on_c, 0, 74, 81
1, 19956, Note_on_c, 0, 74, 0
1, 19956, Note_on_c, 0, 72, 81
1, 19962, Note_on_c, 0, 72, 0
1, 19962, Note_on_c, 0, 74, 81
1, 19965, Note_on_c, 1, 59, 0
1, 19965, Note_on_c, 0, 55, 0
1, 19968, Note_on_c, 0, 74, 0
1, 19968, Note_on_c, 0, 72, 81
1, 19968, Note_on_c, 0, 48, 64
1, 19983, Note_on_c, 0, 48, 0
1, 19984, Note_on_c, 0, 51, 64
1, 19999, Note_on_c, 0, 51, 0
1, 20000, Note_on_c, 0, 55, 64
1, 20015, Note_on_c, 0, 55, 0
1, 20016, Note_on_c, 0, 48, 64
1, 20031, Note_on_c, 0, 48, 0
1, 20032, Note_on_c, 0, 51, 64
1, 20047, Note_on_c, 0, 51, 0
1, 20048, Note_on_c, 0, 55, 64
1, 20057, Note_on_c, 0, 72, 0
1, 20063, Note_on_c, 0, 55, 0
1, 20064, Note_on_c, 0, 86, 75
1, 20064, Note_on_c, 0, 47, 64
1, 20076, Note_on_c, 0, 86, 0
1, 20076, Note_on_c, 0, 77, 75
1, 20079, Note_on_c, 0, 47, 0
1, 20080, Note_on_c, 0, 50, 64
1, 20095, Note_on_c, 0, 50, 0
1, 20096, Note_on_c, 0, 55, 64
1, 20111, Note_on_c, 0, 55, 0
1, 20112, Note_on_c, 0, 47, 64
1, 20127, Note_on_c, 0, 47, 0
1, 20128, Note_on_c, 0, 50, 64
1, 20143, Note_on_c, 0, 50, 0
1, 20144, Note_on_c, 0, 55, 64
1, 20154, Note_on_c, 0, 77, 0
1, 20159, Note_on_c, 0, 55, 0
1, 20160, Note_on_c, 0, 75, 75
1, 20160, Note_on_c, 0, 48, 64
1, 20172, Note_on_c, 0, 75, 0
1, 20172, Note_on_c, 0, 84, 75
1, 20175, Note_on_c, 0, 48, 0
1, 20176, Note_on_c, 0, 51, 64
1, 20191, Note_on_c, 0, 51, 0
1, 20192, Note_on_c, 0, 55, 64
1, 20207, Note_on_c, 0, 55, 0
1, 20208, Note_on_c, 0, 48, 64
1, 20223, Note_on_c, 0, 48, 0
1, 20224, Note_on_c, 0, 51, 64
1, 20239, Note_on_c, 0, 51, 0
1, 20240, Note_on_c, 0, 55, 64
1, 20250, Note_on_c, 0, 84, 0
1, 20255, Note_on_c, 0, 55, 0
1, 20256, Note_on_c, 0, 86, 66
1, 20256, Note_on_c, 0, 47, 64
1, 20268, Note_on_c, 0, 86, 0
1, 20268, Note_on_c, 0, 77, 66
1, 20271, Note_on_c, 0, 47, 0
1, 20272, Note_on_c, 0, 50, 64
1, 20287, Note_on_c, 0, 50, 0
1, 20288, Note_on_c, 0, 55, 64
1, 20303, Note_on_c, 0, 55, 0
1, 20304, Note_on_c, 0, 47, 64
1, 20319, Note_on_c, 0, 47, 0
1, 20320, Note_on_c, 0, 50, 64
1, 20335, Note_on_c, 0, 50, 0
1, 20336, Note_on_c, 0, 55, 64
1, 20346, Note_on_c, 0, 77, 0
1, 20351, Note_on_c, 0, 55, 0
1, 20352, Note_on_c, 0, 75, 66
1, 20352, Note_on_c, 0, 48, 64
1, 20364, Note_on_c, 0, 75, 0
1, 20364, Note_on_c, 0, 84, 66
1, 20367, Note_on_c, 0, 48, 0
1, 20368, Note_on_c, 0, 51, 64
1, 20383, Note_on_c, 0, 51, 0
1, 20384, Note_on_c, 0, 55, 64
1, 20399, Note_on_c, 0, 55, 0
1, 20400, Note_on_c, 0, 48, 64
1, 20415, Note_on_c, 0, 48, 0
1, 20416, Note_on_c, 0, 51, 64
1, 20431, Note_on_c, 0, 51, 0
1, 20432, Note_on_c, 0, 55, 64
1, 20442, Note_on_c, 0, 84, 0
1, 20447, Note_on_c, 0, 55, 0
1, 20448, Note_on_c, 0, 86, 75
1, 20448, Note_on_c, 0, 47, 64
1, 20460, Note_on_c, 0, 86, 0
1, 20460, Note_on_c, 0, 77, 75
1, 20463, Note_on_c, 0, 47, 0
1, 20464, Note_on_c, 0, 50, 64
1, 20479, Note_on_c, 0, 50, 0
1, 20480, Note_on_c, 0, 55, 64
1, 20495, Note_on_c, 0, 55, 0
1, 20496, Note_on_c, 0, 47, 64
1, 20511, Note_on_c, 0, 47, 0
1, 20512, Note_on_c, 0, 50, 64
1, 20527, Note_on_c, 0, 50, 0
1, 20528, Note_on_c, 0, 55, 64
1, 20538, Note_on_c, 0, 77, 0
1, 20543, Note_on_c, 0, 55, 0
1, 20544, Note_on_c, 0, 75, 75
1, 20544, Note_on_c, 1, 48, 66
1, 20559, Note_on_c, 0, 75, 0
1, 20560, Note_on_c, 0, 84, 75
1, 20575, Note_on_c, 0, 84, 0
1, 20576, Note_on_c, 0, 79, 75
1, 20589, Note_on_c, 1, 48, 0
1, 20591, Note_on_c, 0, 79, 0
1, 20592, Note_on_c, 0, 80, 75
1, 20592, Note_on_c, 1, 53, 66
1, 20592, Note_on_c, 0, 41, 64
1, 20607, Note_on_c, 0, 80, 0
1, 20608, Note_on_c, 0, 77, 75
1, 20623, Note_on_c, 0, 77, 0
1, 20624, Note_on_c, 0, 74, 75
1, 20637, Note_on_c, 1, 53, 0
1, 20637, Note_on_c, 0, 41, 0
1, 20639, Note_on_c, 0, 74, 0
1, 20640, Note_on_c, 0, 72, 75
1, 20640, Note_on_c, 1, 51, 66
1, 20640, Note_on_c, 0, 43, 64
1, 20685, Note_on_c, 0, 72, 0
1, 20685, Note_on_c, 1, 51, 0
1, 20685, Note_on_c, 0, 43, 0
1, 20688, Note_on_c, 0, 71, 75
1, 20688, Note_on_c, 1, 50, 66
1, 20688, Note_on_c, 0, 43, 64
1, 20695, Note_on_c, 0, 71, 0
1, 20695, Note_on_c, 0, 72, 75
1, 20702, Note_on_c, 0, 72, 0
1, 20702, Note_on_c, 0, 71, 75
1, 20709, Note_on_c, 0, 71, 0
1, 20709, Note_on_c, 0, 72, 75
1, 20716, Note_on_c, 0, 72, 0
1, 20716, Note_on_c, 0, 71, 75
1, 20723, Note_on_c, 0, 71, 0
1, 20723, Note_on_c, 0, 69, 75
1, 20730, Note_on_c, 0, 69, 0
1, 20730, Note_on_c, 0, 71, 75
1, 20733, Note_on_c, 1, 50, 0
1, 20733, Note_on_c, 0, 43, 0
1, 20736, Note_on_c, 0, 71, 0
1, 20736, Note_on_c, 0, 72, 75
1, 20736, Note_on_c, 1, 48, 66
1, 20781, Note_on_c, 1, 48, 0
1, 20784, Note_on_c, 1, 43, 66
1, 20825, Note_on_c, 0, 72, 0
1, 20829, Note_on_c, 1, 43, 0
1, 20832, Note_on_c, 1, 36, 66
1, 20880, Note_on_c, 0, 67, 82
1, 20921, Note_on_c, 1, 36, 0
1, 20928, Note_on_c, 0, 67, 0
1, 20928, Note_on_c, 0, 65, 66
1, 20951, Note_on_c, 0, 65, 0
1, 20952, Note_on_c, 0, 63, 66
1, 20975, Note_on_c, 0, 63, 0
1, 20976, Note_on_c, 0, 62, 70
1, 20976, Note_on_c, 1, 51, 62
1, 20976, Note_on_c, 1, 48, 62
1, 20999, Note_on_c, 0, 62, 0
1, 21000, Note_on_c, 0, 60, 70
1, 21021, Note_on_c, 1, 51, 0
1, 21021, Note_on_c, 1, 48, 0
1, 21023, Note_on_c, 0, 60, 0
1, 21024, Note_on_c, 0, 60, 71
1, 21024, Note_on_c, 1, 53, 63
1, 21024, Note_on_c, 1, 50, 63
1, 21069, Note_on_c, 0, 60, 0
1, 21069, Note_on_c, 1, 53, 0
1, 21069, Note_on_c, 1, 50, 0
1, 21072, Note_on_c, 0, 60, 73
1, 21072, Note_on_c, 1, 55, 64
1, 21072, Note_on_c, 1, 51, 64
1, 21117, Note_on_c, 0, 60, 0
1, 21117, Note_on_c, 1, 55, 0
1, 21117, Note_on_c, 1, 51, 0
1, 21120, Note_on_c, 0, 59, 75
1, 21120, Note_on_c, 1, 56, 66
1, 21120, Note_on_c, 1, 53, 66
1, 21154, Note_on_c, 0, 59, 0
1, 21156, Note_on_c, 0, 60, 73
1, 21162, Note_on_c, 0, 60, 0
1, 21162, Note_on_c, 0, 62, 72
1, 21165, Note_on_c, 1, 56, 0
1, 21165, Note_on_c, 1, 53, 0
1, 21168, Note_on_c, 0, 62, 0
1, 21168, Note_on_c, 0, 60, 72
1, 21168, Note_on_c, 1, 55, 64
1, 21168, Note_on_c, 1, 51, 64
1, 21213, Note_on_c, 0, 60, 0
1, 21213, Note_on_c, 1, 55, 0
1, 21213, Note_on_c, 1, 51, 0
1, 21216, Note_on_c, 0, 68, 86
1, 21216, Note_on_c, 0, 59, 86
1, 21264, Note_on_c, 1, 53, 78
1, 21312, Note_on_c, 0, 68, 0
1, 21312, Note_on_c, 0, 59, 0
1, 21312, Note_on_c, 0, 67, 62
1, 21312, Note_on_c, 0, 60, 62
1, 21312, Note_on_c, 1, 53, 0
1, 21312, Note_on_c, 1, 51, 62
1, 21332, Note_on_c, 0, 67, 0
1, 21332, Note_on_c, 0, 60, 0
1, 21332, Note_on_c, 1, 51, 0
1, 21360, Note_on_c, 0, 63, 62
1, 21360, Note_on_c, 0, 60, 62
1, 21360, Note_on_c, 1, 56, 62
1, 21380, Note_on_c, 0, 63, 0
1, 21380, Note_on_c, 0, 60, 0
1, 21380, Note_on_c, 1, 56, 0
1, 21408, Note_on_c, 0, 65, 62
1, 21408, Note_on_c, 0, 62, 62
1, 21408, Note_on_c, 1, 53, 62
1, 21428, Note_on_c, 0, 65, 0
1, 21428, Note_on_c, 0, 62, 0
1, 21428, Note_on_c, 1, 53, 0
1, 21456, Note_on_c, 0, 62, 62
1, 21456, Note_on_c, 0, 59, 62
1, 21456, Note_on_c, 1, 55, 62
1, 21476, Note_on_c, 0, 62, 0
1, 21476, Note_on_c, 0, 59, 0
1, 21476, Note_on_c, 1, 55, 0
1, 21504, Note_on_c, 0, 60, 62
1, 21504, Note_on_c, 1, 48, 62
1, 21549, Note_on_c, 1, 48, 0
1, 21552, Note_on_c, 1, 36, 62
1, 21593, Note_on_c, 0, 60, 0
1, 21597, Note_on_c, 1, 36, 0
1, 21648, Note_on_c, 1, 36, 0
1, 21693, Note_on_c, 1, 36, 0
1, 21703, End_track
0, 0, End_of_file