0, 0, Header, 0, 1, 96
1, 0, Start_track
1, 0, Tempo, 428571
1, 144, Note_on_c, 0, 78, 75
1, 192, Note_on_c, 0, 78, 0
1, 192, Note_on_c, 0, 79, 75
1, 212, Note_on_c, 0, 79, 0
1, 240, Note_on_c, 0, 76, 75
1, 288, Note_on_c, 0, 76, 0
1, 288, Note_on_c, 0, 78, 75
1, 308, Note_on_c, 0, 78, 0
1, 336, Note_on_c, 0, 75, 75
1, 384, Note_on_c, 0, 75, 0
1, 384, Note_on_c, 0, 76, 75
1, 404, Note_on_c, 0, 76, 0
1, 432, Note_on_c, 0, 73, 75
1, 480, Note_on_c, 0, 73, 0
1, 480, Note_on_c, 0, 74, 75
1, 500, Note_on_c, 0, 74, 0
1, 528, Note_on_c, 0, 71, 75
1, 573, Note_on_c, 0, 71, 0
1, 576, Note_on_c, 0, 69, 75
1, 576, Note_on_c, 1, 62, 70
1, 599, Note_on_c, 0, 69, 0
1, 600, Note_on_c, 0, 68, 75
1, 621, Note_on_c, 1, 62, 0
1, 623, Note_on_c, 0, 68, 0
1, 624, Note_on_c, 0, 66, 75
1, 624, Note_on_c, 1, 62, 70
1, 647, Note_on_c, 0, 66, 0
1, 648, Note_on_c, 0, 64, 75
1, 669, Note_on_c, 1, 62, 0
1, 671, Note_on_c, 0, 64, 0
1, 672, Note_on_c, 0, 63, 75
1, 672, Note_on_c, 1, 62, 70
1, 695, Note_on_c, 0, 63, 0
1, 696, Note_on_c, 0, 64, 75
1, 717, Note_on_c, 1, 62, 0
1, 719, Note_on_c, 0, 64, 0
1, 720, Note_on_c, 0, 66, 75
1, 720, Note_on_c, 1, 62, 70
1, 743, Note_on_c, 0, 66, 0
1, 744, Note_on_c, 0, 68, 75
1, 765, Note_on_c, 1, 62, 0
1, 767, Note_on_c, 0, 68, 0
1, 768, Note_on_c, 0, 69, 75
1, 768, Note_on_c, 1, 61, 70
1, 813, Note_on_c, 1, 61, 0
1, 816, Note_on_c, 1, 61, 70
1, 857, Note_on_c, 0, 69, 0
1, 861, Note_on_c, 1, 61, 0
1, 864, Note_on_c, 1, 61, 70
1, 909, Note_on_c, 1, 61, 0
1, 912, Note_on_c, 0, 73, 75
1, 912, Note_on_c, 1, 61, 70
1, 935, Note_on_c, 0, 73, 0
1, 936, Note_on_c, 0, 71, 75
1, 957, Note_on_c, 1, 61, 0
1, 959, Note_on_c, 0, 71, 0
1, 960, Note_on_c, 0, 69, 75
1, 960, Note_on_c, 1, 62, 70
1, 983, Note_on_c, 0, 69, 0
1, 984, Note_on_c, 0, 68, 75
1, 1005, Note_on_c, 1, 62, 0
1, 1007, Note_on_c, 0, 68, 0
1, 1008, Note_on_c, 0, 66, 75
1, 1008, Note_on_c, 1, 62, 70
1, 1031, Note_on_c, 0, 66, 0
1, 1032, Note_on_c, 0, 64, 75
1, 1053, Note_on_c, 1, 62, 0
1, 1055, Note_on_c, 0, 64, 0
1, 1056, Note_on_c, 0, 63, 75
1, 1056, Note_on_c, 1, 62, 70
1, 1079, Note_on_c, 0, 63, 0
1, 1080, Note_on_c, 0, 64, 75
1, 1101, Note_on_c, 1, 62, 0
1, 1103, Note_on_c, 0, 64, 0
1, 1104, Note_on_c, 0, 66, 75
1, 1104, Note_on_c, 1, 62, 70
1, 1127, Note_on_c, 0, 66, 0
1, 1128, Note_on_c, 0, 68, 75
1, 1149, Note_on_c, 1, 62, 0
1, 1151, Note_on_c, 0, 68, 0
1, 1152, Note_on_c, 0, 69, 75
1, 1152, Note_on_c, 1, 61, 70
1, 1175, Note_on_c, 0, 69, 0
1, 1176, Note_on_c, 0, 71, 75
1, 1197, Note_on_c, 1, 61, 0
1, 1199, Note_on_c, 0, 71, 0
1, 1200, Note_on_c, 0, 73, 76
1, 1200, Note_on_c, 1, 61, 70
1, 1223, Note_on_c, 0, 73, 0
1, 1224, Note_on_c, 0, 74, 76
1, 1245, Note_on_c, 1, 61, 0
1, 1247, Note_on_c, 0, 74, 0
1, 1248, Note_on_c, 0, 76, 77
1, 1248, Note_on_c, 1, 61, 70
1, 1271, Note_on_c, 0, 76, 0
1, 1272, Note_on_c, 0, 78, 78
1, 1293, Note_on_c, 1, 61, 0
1, 1295, Note_on_c, 0, 78, 0
1, 1296, Note_on_c, 0, 80, 78
1, 1296, Note_on_c, 1, 61, 70
1, 1319, Note_on_c, 0, 80, 0
1, 1320, Note_on_c, 0, 81, 79
1, 1341, Note_on_c, 1, 61, 0
1, 1343, Note_on_c, 0, 81, 0
1, 1344, Note_on_c, 0, 71, 80
1, 1344, Note_on_c, 1, 62, 70
1, 1389, Note_on_c, 0, 71, 0
1, 1392, Note_on_c, 0, 78, 80
1, 1392, Note_on_c, 0, 74, 80
1, 1433, Note_on_c, 1, 62, 0
1, 1437, Note_on_c, 0, 78, 0
1, 1437, Note_on_c, 0, 74, 0
1, 1440, Note_on_c, 0, 76, 80
1, 1440, Note_on_c, 0, 73, 80
1, 1440, Note_on_c, 1, 64, 70
1, 1485, Note_on_c, 0, 76, 0
1, 1485, Note_on_c, 0, 73, 0
1, 1488, Note_on_c, 0, 68, 80
1, 1529, Note_on_c, 1, 64, 0
1, 1533, Note_on_c, 0, 68, 0
1, 1536, Note_on_c, 0, 69, 80
1, 1536, Note_on_c, 1, 57, 70
1, 1603, Note_on_c, 0, 69, 0
1, 1603, Note_on_c, 1, 57, 0
1, 1680, Note_on_c, 0, 78, 75
1, 1728, Note_on_c, 0, 78, 0
1, 1728, Note_on_c, 0, 79, 75
1, 1748, Note_on_c, 0, 79, 0
1, 1776, Note_on_c, 0, 76, 75
1, 1824, Note_on_c, 0, 76, 0
1, 1824, Note_on_c, 0, 78, 75
1, 1844, Note_on_c, 0, 78, 0
1, 1872, Note_on_c, 0, 75, 75
1, 1920, Note_on_c, 0, 75, 0
1, 1920, Note_on_c, 0, 76, 75
1, 1940, Note_on_c, 0, 76, 0
1, 1968, Note_on_c, 0, 73, 75
1, 2016, Note_on_c, 0, 73, 0
1, 2016, Note_on_c, 0, 74, 75
1, 2036, Note_on_c, 0, 74, 0
1, 2064, Note_on_c, 0, 71, 75
1, 2109, Note_on_c, 0, 71, 0
1, 2112, Note_on_c, 0, 69, 75
1, 2112, Note_on_c, 1, 62, 70
1, 2135, Note_on_c, 0, 69, 0
1, 2136, Note_on_c, 0, 68, 75
1, 2157, Note_on_c, 1, 62, 0
1, 2159, Note_on_c, 0, 68, 0
1, 2160, Note_on_c, 0, 66, 75
1, 2160, Note_on_c, 1, 62, 70
1, 2183, Note_on_c, 0, 66, 0
1, 2184, Note_on_c, 0, 64, 75
1, 2205, Note_on_c, 1, 62, 0
1, 2207, Note_on_c, 0, 64, 0
1, 2208, Note_on_c, 0, 63, 75
1, 2208, Note_on_c, 1, 62, 70
1, 2231, Note_on_c, 0, 63, 0
1, 2232, Note_on_c, 0, 64, 75
1, 2253, Note_on_c, 1, 62, 0
1, 2255, Note_on_c, 0, 64, 0
1, 2256, Note_on_c, 0, 66, 75
1, 2256, Note_on_c, 1, 62, 70
1, 2279, Note_on_c, 0, 66, 0
1, 2280, Note_on_c, 0, 68, 75
1, 2301, Note_on_c, 1, 62, 0
1, 2303, Note_on_c, 0, 68, 0
1, 2304, Note_on_c, 0, 69, 75
1, 2304, Note_on_c, 1, 61, 70
1, 2349, Note_on_c, 1, 61, 0
1, 2352, Note_on_c, 1, 61, 70
1, 2393, Note_on_c, 0, 69, 0
1, 2397, Note_on_c, 1, 61, 0
1, 2400, Note_on_c, 1, 61, 70
1, 2445, Note_on_c, 1, 61, 0
1, 2448, Note_on_c, 0, 73, 75
1, 2448, Note_on_c, 1, 61, 70
1, 2471, Note_on_c, 0, 73, 0
1, 2472, Note_on_c, 0, 71, 75
1, 2493, Note_on_c, 1, 61, 0
1, 2495, Note_on_c, 0, 71, 0
1, 2496, Note_on_c, 0, 69, 75
1, 2496, Note_on_c, 1, 62, 70
1, 2519, Note_on_c, 0, 69, 0
1, 2520, Note_on_c, 0, 68, 75
1, 2541, Note_on_c, 1, 62, 0
1, 2543, Note_on_c, 0, 68, 0
1, 2544, Note_on_c, 0, 66, 75
1, 2544, Note_on_c, 1, 62, 70
1, 2567, Note_on_c, 0, 66, 0
1, 2568, Note_on_c, 0, 64, 75
1, 2589, Note_on_c, 1, 62, 0
1, 2591, Note_on_c, 0, 64, 0
1, 2592, Note_on_c, 0, 63, 75
1, 2592, Note_on_c, 1, 62, 70
1, 2615, Note_on_c, 0, 63, 0
1, 2616, Note_on_c, 0, 64, 75
1, 2637, Note_on_c, 1, 62, 0
1, 2639, Note_on_c, 0, 64, 0
1, 2640, Note_on_c, 0, 66, 75
1, 2640, Note_on_c, 1, 62, 70
1, 2663, Note_on_c, 0, 66, 0
1, 2664, Note_on_c, 0, 68, 75
1, 2685, Note_on_c, 1, 62, 0
1, 2687, Note_on_c, 0, 68, 0
1, 2688, Note_on_c, 0, 69, 75
1, 2688, Note_on_c, 1, 61, 70
1, 2711, Note_on_c, 0, 69, 0
1, 2712, Note_on_c, 0, 71, 75
1, 2733, Note_on_c, 1, 61, 0
1, 2735, Note_on_c, 0, 71, 0
1, 2736, Note_on_c, 0, 73, 76
1, 2736, Note_on_c, 1, 61, 70
1, 2759, Note_on_c, 0, 73, 0
1, 2760, Note_on_c, 0, 74, 76
1, 2781, Note_on_c, 1, 61, 0
1, 2783, Note_on_c, 0, 74, 0
1, 2784, Note_on_c, 0, 76, 77
1, 2784, Note_on_c, 1, 61, 70
1, 2807, Note_on_c, 0, 76, 0
1, 2808, Note_on_c, 0, 78, 78
1, 2829, Note_on_c, 1, 61, 0
1, 2831, Note_on_c, 0, 78, 0
1, 2832, Note_on_c, 0, 80, 78
1, 2832, Note_on_c, 1, 61, 70
1, 2855, Note_on_c, 0, 80, 0
1, 2856, Note_on_c, 0, 81, 79
1, 2877, Note_on_c, 1, 61, 0
1, 2879, Note_on_c, 0, 81, 0
1, 2880, Note_on_c, 0, 71, 80
1, 2880, Note_on_c, 1, 62, 70
1, 2925, Note_on_c, 0, 71, 0
1, 2928, Note_on_c, 0, 78, 80
1, 2928, Note_on_c, 0, 74, 80
1, 2969, Note_on_c, 1, 62, 0
1, 2973, Note_on_c, 0, 78, 0
1, 2973, Note_on_c, 0, 74, 0
1, 2976, Note_on_c, 0, 76, 80
1, 2976, Note_on_c, 0, 73, 80
1, 2976, Note_on_c, 1, 64, 70
1, 3021, Note_on_c, 0, 76, 0
1, 3021, Note_on_c, 0, 73, 0
1, 3024, Note_on_c, 0, 68, 80
1, 3065, Note_on_c, 1, 64, 0
1, 3069, Note_on_c, 0, 68, 0
1, 3072, Note_on_c, 0, 69, 80
1, 3072, Note_on_c, 1, 57, 70
1, 3139, Note_on_c, 0, 69, 0
1, 3139, Note_on_c, 1, 57, 0
1, 3216, Note_on_c, 0, 81, 75
1, 3264, Note_on_c, 0, 81, 0
1, 3264, Note_on_c, 0, 83, 75
1, 3284, Note_on_c, 0, 83, 0
1, 3312, Note_on_c, 0, 80, 75
1, 3360, Note_on_c, 0, 80, 0
1, 3360, Note_on_c, 0, 81, 75
1, 3380, Note_on_c, 0, 81, 0
1, 3408, Note_on_c, 0, 78, 75
1, 3408, Note_on_c, 0, 74, 75
1, 3456, Note_on_c, 0, 78, 0
1, 3456, Note_on_c, 0, 74, 0
1, 3456, Note_on_c, 0, 79, 75
1, 3456, Note_on_c, 0, 76, 75
1, 3476, Note_on_c, 0, 79, 0
1, 3476, Note_on_c, 0, 76, 0
1, 3504, Note_on_c, 0, 76, 75
1, 3504, Note_on_c, 0, 73, 75
1, 3552, Note_on_c, 0, 76, 0
1, 3552, Note_on_c, 0, 73, 0
1, 3552, Note_on_c, 0, 78, 75
1, 3552, Note_on_c, 0, 74, 75
1, 3572, Note_on_c, 0, 78, 0
1, 3572, Note_on_c, 0, 74, 0
1, 3600, Note_on_c, 0, 76, 75
1, 3600, Note_on_c, 0, 73, 75
1, 3600, Note_on_c, 1, 66, 75
1, 3648, Note_on_c, 0, 76, 0
1, 3648, Note_on_c, 0, 74, 75
1, 3648, Note_on_c, 1, 66, 0
1, 3648, Note_on_c, 1, 67, 75
1, 3668, Note_on_c, 1, 67, 0
1, 3693, Note_on_c, 0, 74, 0
1, 3693, Note_on_c, 0, 73, 0
1, 3696, Note_on_c, 0, 79, 75
1, 3696, Note_on_c, 0, 71, 64
1, 3696, Note_on_c, 1, 64, 75
1, 3741, Note_on_c, 0, 79, 0
1, 3744, Note_on_c, 0, 73, 75
1, 3744, Note_on_c, 1, 64, 0
1, 3744, Note_on_c, 1, 66, 75
1, 3764, Note_on_c, 1, 66, 0
1, 3785, Note_on_c, 0, 71, 0
1, 3789, Note_on_c, 0, 73, 0
1, 3792, Note_on_c, 0, 78, 75
1, 3792, Note_on_c, 0, 69, 64
1, 3792, Note_on_c, 1, 63, 75
1, 3837, Note_on_c, 0, 78, 0
1, 3840, Note_on_c, 0, 71, 75
1, 3840, Note_on_c, 1, 63, 0
1, 3840, Note_on_c, 1, 64, 75
1, 3860, Note_on_c, 1, 64, 0
1, 3885, Note_on_c, 0, 69, 0
1, 3888, Note_on_c, 0, 71, 0
1, 3888, Note_on_c, 0, 76, 75
1, 3888, Note_on_c, 0, 67, 64
1, 3888, Note_on_c, 1, 61, 75
1, 3933, Note_on_c, 0, 76, 0
1, 3936, Note_on_c, 0, 69, 75
1, 3936, Note_on_c, 1, 61, 0
1, 3936, Note_on_c, 1, 62, 75
1, 3956, Note_on_c, 1, 62, 0
1, 3977, Note_on_c, 0, 67, 0
1, 3984, Note_on_c, 0, 69, 0
1, 3984, Note_on_c, 0, 74, 75
1, 3984, Note_on_c, 0, 66, 64
1, 3984, Note_on_c, 1, 59, 75
1, 4029, Note_on_c, 0, 74, 0
1, 4029, Note_on_c, 0, 66, 0
1, 4032, Note_on_c, 0, 74, 91
1, 4032, Note_on_c, 0, 64, 91
1, 4032, Note_on_c, 1, 59, 0
1, 4032, Note_on_c, 1, 57, 75
1, 4055, Note_on_c, 1, 57, 0
1, 4056, Note_on_c, 1, 56, 75
1, 4079, Note_on_c, 1, 56, 0
1, 4080, Note_on_c, 1, 54, 75
1, 4103, Note_on_c, 1, 54, 0
1, 4104, Note_on_c, 1, 52, 75
1, 4127, Note_on_c, 1, 52, 0
1, 4128, Note_on_c, 0, 74, 0
1, 4128, Note_on_c, 0, 64, 0
1, 4128, Note_on_c, 1, 51, 75
1, 4151, Note_on_c, 1, 51, 0
1, 4152, Note_on_c, 1, 52, 75
1, 4175, Note_on_c, 1, 52, 0
1, 4176, Note_on_c, 0, 74, 75
1, 4176, Note_on_c, 1, 54, 75
1, 4196, Note_on_c, 0, 74, 0
1, 4199, Note_on_c, 1, 54, 0
1, 4200, Note_on_c, 1, 56, 75
1, 4223, Note_on_c, 1, 56, 0
1, 4224, Note_on_c, 0, 74, 91
1, 4224, Note_on_c, 1, 57, 75
1, 4248, Note_on_c, 0, 74, 0
1, 4248, Note_on_c, 0, 73, 75
1, 4271, Note_on_c, 0, 73, 0
1, 4272, Note_on_c, 0, 71, 75
1, 4295, Note_on_c, 0, 71, 0
1, 4296, Note_on_c, 0, 69, 75
1, 4313, Note_on_c, 1, 57, 0
1, 4319, Note_on_c, 0, 69, 0
1, 4320, Note_on_c, 0, 68, 75
1, 4343, Note_on_c, 0, 68, 0
1, 4344, Note_on_c, 0, 69, 75
1, 4367, Note_on_c, 0, 69, 0
1, 4368, Note_on_c, 0, 71, 75
1, 4368, Note_on_c, 1, 57, 75
1, 4388, Note_on_c, 1, 57, 0
1, 4391, Note_on_c, 0, 71, 0
1, 4392, Note_on_c, 0, 73, 75
1, 4415, Note_on_c, 0, 73, 0
1, 4416, Note_on_c, 0, 74, 75
1, 4416, Note_on_c, 1, 57, 91
1, 4440, Note_on_c, 1, 57, 0
1, 4440, Note_on_c, 1, 56, 75
1, 4463, Note_on_c, 1, 56, 0
1, 4464, Note_on_c, 1, 54, 75
1, 4487, Note_on_c, 1, 54, 0
1, 4488, Note_on_c, 1, 52, 75
1, 4505, Note_on_c, 0, 74, 0
1, 4511, Note_on_c, 1, 52, 0
1, 4512, Note_on_c, 1, 51, 75
1, 4535, Note_on_c, 1, 51, 0
1, 4536, Note_on_c, 1, 52, 75
1, 4559, Note_on_c, 1, 52, 0
1, 4560, Note_on_c, 0, 74, 75
1, 4560, Note_on_c, 1, 54, 75
1, 4580, Note_on_c, 0, 74, 0
1, 4583, Note_on_c, 1, 54, 0
1, 4584, Note_on_c, 1, 56, 75
1, 4607, Note_on_c, 1, 56, 0
1, 4608, Note_on_c, 0, 74, 91
1, 4608, Note_on_c, 1, 57, 75
1, 4632, Note_on_c, 0, 74, 0
1, 4632, Note_on_c, 0, 73, 75
1, 4655, Note_on_c, 0, 73, 0
1, 4656, Note_on_c, 0, 71, 75
1, 4679, Note_on_c, 0, 71, 0
1, 4680, Note_on_c, 0, 69, 75
1, 4697, Note_on_c, 1, 57, 0
1, 4703, Note_on_c, 0, 69, 0
1, 4704, Note_on_c, 0, 68, 75
1, 4727, Note_on_c, 0, 68, 0
1, 4728, Note_on_c, 0, 69, 75
1, 4751, Note_on_c, 0, 69, 0
1, 4752, Note_on_c, 0, 71, 75
1, 4752, Note_on_c, 1, 67, 75
1, 4772, Note_on_c, 1, 67, 0
1, 4775, Note_on_c, 0, 71, 0
1, 4776, Note_on_c, 0, 73, 75
1, 4799, Note_on_c, 0, 73, 0
1, 4800, Note_on_c, 0, 74, 75
1, 4800, Note_on_c, 1, 67, 91
1, 4824, Note_on_c, 1, 67, 0
1, 4824, Note_on_c, 1, 66, 75
1, 4847, Note_on_c, 1, 66, 0
1, 4848, Note_on_c, 1, 64, 75
1, 4871, Note_on_c, 1, 64, 0
1, 4872, Note_on_c, 1, 62, 75
1, 4889, Note_on_c, 0, 74, 0
1, 4895, Note_on_c, 1, 62, 0
1, 4896, Note_on_c, 1, 61, 75
1, 4919, Note_on_c, 1, 61, 0
1, 4920, Note_on_c, 1, 62, 75
1, 4943, Note_on_c, 1, 62, 0
1, 4944, Note_on_c, 0, 81, 75
1, 4944, Note_on_c, 1, 64, 75
1, 4964, Note_on_c, 0, 81, 0
1, 4967, Note_on_c, 1, 64, 0
1, 4968, Note_on_c, 1, 66, 75
1, 4991, Note_on_c, 1, 66, 0
1, 4992, Note_on_c, 0, 81, 91
1, 4992, Note_on_c, 1, 67, 75
1, 5016, Note_on_c, 0, 81, 0
1, 5016, Note_on_c, 0, 71, 75
1, 5039, Note_on_c, 0, 71, 0
1, 5040, Note_on_c, 0, 73, 75
1, 5063, Note_on_c, 0, 73, 0
1, 5064, Note_on_c, 0, 71, 75
1, 5081, Note_on_c, 1, 67, 0
1, 5087, Note_on_c, 0, 71, 0
1, 5088, Note_on_c, 0, 79, 75
1, 5088, Note_on_c, 1, 64, 75
1, 5111, Note_on_c, 0, 79, 0
1, 5112, Note_on_c, 0, 78, 75
1, 5135, Note_on_c, 0, 78, 0
1, 5136, Note_on_c, 0, 76, 75
1, 5159, Note_on_c, 0, 76, 0
1, 5160, Note_on_c, 0, 74, 75
1, 5177, Note_on_c, 1, 64, 0
1, 5183, Note_on_c, 0, 74, 0
1, 5184, Note_on_c, 0, 73, 75
1, 5184, Note_on_c, 1, 69, 75
1, 5207, Note_on_c, 1, 69, 0
1, 5208, Note_on_c, 1, 67, 75
1, 5231, Note_on_c, 1, 67, 0
1, 5232, Note_on_c, 1, 66, 75
1, 5255, Note_on_c, 1, 66, 0
1, 5256, Note_on_c, 1, 64, 75
1, 5273, Note_on_c, 0, 73, 0
1, 5279, Note_on_c, 1, 64, 0
1, 5280, Note_on_c, 0, 81, 75
1, 5280, Note_on_c, 0, 78, 75
1, 5280, Note_on_c, 1, 62, 75
1, 5303, Note_on_c, 0, 81, 0
1, 5303, Note_on_c, 0, 78, 0
1, 5304, Note_on_c, 0, 79, 75
1, 5304, Note_on_c, 0, 76, 75
1, 5327, Note_on_c, 0, 79, 0
1, 5327, Note_on_c, 0, 76, 0
1, 5328, Note_on_c, 0, 78, 75
1, 5328, Note_on_c, 0, 74, 75
1, 5351, Note_on_c, 0, 78, 0
1, 5351, Note_on_c, 0, 74, 0
1, 5352, Note_on_c, 0, 76, 75
1, 5352, Note_on_c, 0, 73, 75
1, 5369, Note_on_c, 1, 62, 0
1, 5375, Note_on_c, 0, 76, 0
1, 5375, Note_on_c, 0, 73, 0
1, 5376, Note_on_c, 0, 74, 75
1, 5376, Note_on_c, 1, 71, 75
1, 5399, Note_on_c, 1, 71, 0
1, 5400, Note_on_c, 1, 69, 75
1, 5423, Note_on_c, 1, 69, 0
1, 5424, Note_on_c, 1, 67, 75
1, 5447, Note_on_c, 1, 67, 0
1, 5448, Note_on_c, 1, 66, 75
1, 5465, Note_on_c, 0, 74, 0
1, 5471, Note_on_c, 1, 66, 0
1, 5472, Note_on_c, 0, 83, 75
1, 5472, Note_on_c, 0, 79, 75
1, 5472, Note_on_c, 1, 64, 75
1, 5495, Note_on_c, 0, 83, 0
1, 5495, Note_on_c, 0, 79, 0
1, 5496, Note_on_c, 0, 81, 75
1, 5496, Note_on_c, 0, 78, 75
1, 5519, Note_on_c, 0, 81, 0
1, 5519, Note_on_c, 0, 78, 0
1, 5520, Note_on_c, 0, 79, 75
1, 5520, Note_on_c, 0, 76, 75
1, 5543, Note_on_c, 0, 79, 0
1, 5543, Note_on_c, 0, 76, 0
1, 5544, Note_on_c, 0, 78, 75
1, 5544, Note_on_c, 0, 74, 75
1, 5561, Note_on_c, 1, 64, 0
1, 5567, Note_on_c, 0, 78, 0
1, 5567, Note_on_c, 0, 74, 0
1, 5568, Note_on_c, 0, 76, 75
1, 5568, Note_on_c, 0, 73, 75
1, 5568, Note_on_c, 1, 69, 75
1, 5613, Note_on_c, 0, 76, 0
1, 5613, Note_on_c, 0, 73, 0
1, 5613, Note_on_c, 1, 69, 0
1, 5616, Note_on_c, 0, 78, 75
1, 5616, Note_on_c, 0, 74, 75
1, 5616, Note_on_c, 1, 69, 75
1, 5661, Note_on_c, 0, 78, 0
1, 5661, Note_on_c, 0, 74, 0
1, 5661, Note_on_c, 1, 69, 0
1, 5664, Note_on_c, 0, 79, 75
1, 5664, Note_on_c, 0, 76, 75
1, 5664, Note_on_c, 1, 69, 75
1, 5709, Note_on_c, 0, 79, 0
1, 5709, Note_on_c, 0, 76, 0
1, 5709, Note_on_c, 1, 69, 0
1, 5712, Note_on_c, 0, 78, 75
1, 5712, Note_on_c, 0, 74, 75
1, 5712, Note_on_c, 1, 69, 75
1, 5757, Note_on_c, 0, 78, 0
1, 5757, Note_on_c, 0, 74, 0
1, 5757, Note_on_c, 1, 69, 0
1, 5760, Note_on_c, 0, 76, 75
1, 5760, Note_on_c, 0, 73, 75
1, 5760, Note_on_c, 1, 69, 75
1, 5805, Note_on_c, 0, 76, 0
1, 5805, Note_on_c, 0, 73, 0
1, 5805, Note_on_c, 1, 69, 0
1, 5808, Note_on_c, 0, 83, 75
1, 5808, Note_on_c, 1, 73, 75
1, 5808, Note_on_c, 1, 69, 64
1, 5820, Note_on_c, 0, 83, 0
1, 5820, Note_on_c, 0, 81, 75
1, 5832, Note_on_c, 0, 81, 0
1, 5832, Note_on_c, 0, 80, 75
1, 5844, Note_on_c, 0, 80, 0
1, 5844, Note_on_c, 0, 81, 75
1, 5853, Note_on_c, 1, 73, 0
1, 5856, Note_on_c, 0, 81, 0
1, 5856, Note_on_c, 0, 83, 75
1, 5856, Note_on_c, 1, 74, 75
1, 5901, Note_on_c, 0, 83, 0
1, 5901, Note_on_c, 1, 74, 0
1, 5904, Note_on_c, 0, 80, 75
1, 5904, Note_on_c, 1, 71, 75
1, 5949, Note_on_c, 0, 80, 0
1, 5949, Note_on_c, 1, 71, 0
1, 5952, Note_on_c, 0, 81, 75
1, 5952, Note_on_c, 1, 73, 75
1, 5972, Note_on_c, 0, 81, 0
1, 5997, Note_on_c, 1, 73, 0
1, 5997, Note_on_c, 1, 69, 0
1, 6000, Note_on_c, 0, 86, 75
1, 6000, Note_on_c, 1, 76, 75
1, 6000, Note_on_c, 1, 69, 64
1, 6012, Note_on_c, 0, 86, 0
1, 6012, Note_on_c, 0, 85, 75
1, 6024, Note_on_c, 0, 85, 0
1, 6024, Note_on_c, 0, 83, 75
1, 6036, Note_on_c, 0, 83, 0
1, 6036, Note_on_c, 0, 85, 75
1, 6045, Note_on_c, 1, 76, 0
1, 6048, Note_on_c, 0, 85, 0
1, 6048, Note_on_c, 0, 86, 75
1, 6048, Note_on_c, 1, 78, 75
1, 6093, Note_on_c, 0, 86, 0
1, 6093, Note_on_c, 1, 78, 0
1, 6096, Note_on_c, 0, 83, 75
1, 6096, Note_on_c, 1, 74, 75
1, 6141, Note_on_c, 0, 83, 0
1, 6141, Note_on_c, 1, 74, 0
1, 6144, Note_on_c, 0, 81, 75
1, 6144, Note_on_c, 1, 73, 75
1, 6189, Note_on_c, 0, 81, 0
1, 6189, Note_on_c, 1, 73, 0
1, 6189, Note_on_c, 1, 69, 0
1, 6240, Note_on_c, 0, 81, 73
1, 6240, Note_on_c, 1, 73, 73
1, 6240, Note_on_c, 1, 69, 73
1, 6285, Note_on_c, 0, 81, 0
1, 6285, Note_on_c, 1, 73, 0
1, 6285, Note_on_c, 1, 69, 0
1, 6336, Note_on_c, 0, 81, 71
1, 6336, Note_on_c, 1, 73, 71
1, 6336, Note_on_c, 1, 69, 71
1, 6425, Note_on_c, 0, 81, 0
1, 6425, Note_on_c, 1, 73, 0
1, 6425, Note_on_c, 1, 69, 0
1, 6480, Note_on_c, 1, 57, 70
1, 6480, Note_on_c, 1, 54, 70
1, 6528, Note_on_c, 1, 57, 0
1, 6528, Note_on_c, 1, 54, 0
1, 6528, Note_on_c, 1, 59, 70
1, 6528, Note_on_c, 1, 55, 70
1, 6573, Note_on_c, 1, 59, 0
1, 6573, Note_on_c, 1, 55, 0
1, 6576, Note_on_c, 1, 55, 70
1, 6576, Note_on_c, 1, 52, 70
1, 6624, Note_on_c, 1, 55, 0
1, 6624, Note_on_c, 1, 52, 0
1, 6624, Note_on_c, 1, 57, 70
1, 6624, Note_on_c, 1, 54, 70
1, 6669, Note_on_c, 1, 57, 0
1, 6669, Note_on_c, 1, 54, 0
1, 6672, Note_on_c, 0, 71, 70
1, 6672, Note_on_c, 1, 54, 70
1, 6672, Note_on_c, 1, 51, 70
1, 6720, Note_on_c, 0, 71, 0
1, 6720, Note_on_c, 0, 72, 70
1, 6720, Note_on_c, 1, 54, 0
1, 6720, Note_on_c, 1, 51, 0
1, 6720, Note_on_c, 1, 55, 70
1, 6720, Note_on_c, 1, 52, 70
1, 6740, Note_on_c, 0, 72, 0
1, 6765, Note_on_c, 1, 55, 0
1, 6765, Note_on_c, 1, 52, 0
1, 6768, Note_on_c, 0, 70, 70
1, 6768, Note_on_c, 1, 52, 70
1, 6768, Note_on_c, 1, 49, 70
1, 6816, Note_on_c, 0, 70, 0
1, 6816, Note_on_c, 0, 71, 70
1, 6816, Note_on_c, 1, 52, 0
1, 6816, Note_on_c, 1, 49, 0
1, 6816, Note_on_c, 1, 54, 70
1, 6816, Note_on_c, 1, 51, 70
1, 6836, Note_on_c, 0, 71, 0
1, 6864, Note_on_c, 0, 69, 70
1, 6864, Note_on_c, 1, 54, 0
1, 6864, Note_on_c, 1, 59, 70
1, 6909, Note_on_c, 1, 59, 0
1, 6909, Note_on_c, 1, 51, 0
1, 6912, Note_on_c, 1, 59, 70
1, 6912, Note_on_c, 1, 52, 70
1, 6936, Note_on_c, 0, 69, 0
1, 6936, Note_on_c, 0, 68, 70
1, 6959, Note_on_c, 0, 68, 0
1, 6960, Note_on_c, 0, 66, 70
1, 6983, Note_on_c, 0, 66, 0
1, 6984, Note_on_c, 0, 64, 70
1, 7001, Note_on_c, 1, 59, 0
1, 7001, Note_on_c, 1, 52, 0
1, 7007, Note_on_c, 0, 64, 0
1, 7008, Note_on_c, 0, 63, 70
1, 7031, Note_on_c, 0, 63, 0
1, 7032, Note_on_c, 0, 64, 70
1, 7055, Note_on_c, 0, 64, 0
1, 7056, Note_on_c, 0, 66, 70
1, 7056, Note_on_c, 1, 50, 70
1, 7076, Note_on_c, 1, 50, 0
1, 7079, Note_on_c, 0, 66, 0
1, 7080, Note_on_c, 0, 68, 70
1, 7103, Note_on_c, 0, 68, 0
1, 7104, Note_on_c, 0, 69, 70
1, 7104, Note_on_c, 1, 50, 86
1, 7128, Note_on_c, 1, 50, 0
1, 7128, Note_on_c, 1, 49, 70
1, 7151, Note_on_c, 1, 49, 0
1, 7152, Note_on_c, 1, 47, 70
1, 7175, Note_on_c, 1, 47, 0
1, 7176, Note_on_c, 1, 45, 70
1, 7193, Note_on_c, 0, 69, 0
1, 7199, Note_on_c, 1, 45, 0
1, 7200, Note_on_c, 1, 44, 70
1, 7223, Note_on_c, 1, 44, 0
1, 7224, Note_on_c, 1, 45, 70
1, 7247, Note_on_c, 1, 45, 0
1, 7248, Note_on_c, 0, 67, 70
1, 7248, Note_on_c, 1, 47, 70
1, 7268, Note_on_c, 0, 67, 0
1, 7271, Note_on_c, 1, 47, 0
1, 7272, Note_on_c, 1, 49, 70
1, 7295, Note_on_c, 1, 49, 0
1, 7296, Note_on_c, 0, 67, 86
1, 7296, Note_on_c, 1, 50, 70
1, 7320, Note_on_c, 0, 67, 0
1, 7320, Note_on_c, 0, 66, 70
1, 7343, Note_on_c, 0, 66, 0
1, 7344, Note_on_c, 0, 64, 70
1, 7367, Note_on_c, 0, 64, 0
1, 7368, Note_on_c, 0, 62, 70
1, 7385, Note_on_c, 1, 50, 0
1, 7391, Note_on_c, 0, 62, 0
1, 7392, Note_on_c, 0, 61, 70
1, 7415, Note_on_c, 0, 61, 0
1, 7416, Note_on_c, 0, 62, 70
1, 7439, Note_on_c, 0, 62, 0
1, 7440, Note_on_c, 0, 64, 70
1, 7440, Note_on_c, 1, 60, 70
1, 7460, Note_on_c, 1, 60, 0
1, 7463, Note_on_c, 0, 64, 0
1, 7464, Note_on_c, 0, 66, 70
1, 7487, Note_on_c, 0, 66, 0
1, 7488, Note_on_c, 0, 67, 70
1, 7488, Note_on_c, 1, 60, 86
1, 7512, Note_on_c, 1, 60, 0
1, 7512, Note_on_c, 1, 59, 70
1, 7535, Note_on_c, 1, 59, 0
1, 7536, Note_on_c, 1, 57, 70
1, 7559, Note_on_c, 1, 57, 0
1, 7560, Note_on_c, 1, 55, 70
1, 7577, Note_on_c, 0, 67, 0
1, 7583, Note_on_c, 1, 55, 0
1, 7584, Note_on_c, 1, 54, 70
1, 7607, Note_on_c, 1, 54, 0
1, 7608, Note_on_c, 1, 55, 70
1, 7631, Note_on_c, 1, 55, 0
1, 7632, Note_on_c, 0, 79, 70
1, 7632, Note_on_c, 1, 57, 70
1, 7652, Note_on_c, 0, 79, 0
1, 7655, Note_on_c, 1, 57, 0
1, 7656, Note_on_c, 1, 59, 70
1, 7679, Note_on_c, 1, 59, 0
1, 7680, Note_on_c, 0, 79, 86
1, 7680, Note_on_c, 1, 60, 70
1, 7704, Note_on_c, 0, 79, 0
1, 7704, Note_on_c, 0, 78, 70
1, 7727, Note_on_c, 0, 78, 0
1, 7728, Note_on_c, 0, 76, 70
1, 7751, Note_on_c, 0, 76, 0
1, 7752, Note_on_c, 0, 74, 70
1, 7769, Note_on_c, 1, 60, 0
1, 7775, Note_on_c, 0, 74, 0
1, 7776, Note_on_c, 0, 73, 70
1, 7799, Note_on_c, 0, 73, 0
1, 7800, Note_on_c, 0, 74, 70
1, 7823, Note_on_c, 0, 74, 0
1, 7824, Note_on_c, 0, 76, 70
1, 7824, Note_on_c, 1, 72, 70
1, 7844, Note_on_c, 1, 72, 0
1, 7847, Note_on_c, 0, 76, 0
1, 7848, Note_on_c, 0, 78, 70
1, 7871, Note_on_c, 0, 78, 0
1, 7872, Note_on_c, 0, 79, 70
1, 7872, Note_on_c, 1, 71, 70
1, 7895, Note_on_c, 0, 79, 0
1, 7896, Note_on_c, 0, 74, 71
1, 7917, Note_on_c, 1, 71, 0
1, 7919, Note_on_c, 0, 74, 0
1, 7920, Note_on_c, 0, 81, 73
1, 7920, Note_on_c, 1, 69, 70
1, 7943, Note_on_c, 0, 81, 0
1, 7944, Note_on_c, 0, 74, 75
1, 7965, Note_on_c, 1, 69, 0
1, 7967, Note_on_c, 0, 74, 0
1, 7968, Note_on_c, 0, 83, 74
1, 7968, Note_on_c, 1, 67, 70
1, 7991, Note_on_c, 0, 83, 0
1, 7992, Note_on_c, 0, 74, 73
1, 8013, Note_on_c, 1, 67, 0
1, 8015, Note_on_c, 0, 74, 0
1, 8016, Note_on_c, 0, 81, 72
1, 8016, Note_on_c, 1, 66, 70
1, 8039, Note_on_c, 0, 81, 0
1, 8040, Note_on_c, 0, 74, 71
1, 8061, Note_on_c, 1, 66, 0
1, 8063, Note_on_c, 0, 74, 0
1, 8064, Note_on_c, 0, 81, 70
1, 8064, Note_on_c, 1, 64, 70
1, 8087, Note_on_c, 0, 81, 0
1, 8088, Note_on_c, 0, 80, 70
1, 8111, Note_on_c, 0, 80, 0
1, 8112, Note_on_c, 0, 78, 70
1, 8135, Note_on_c, 0, 78, 0
1, 8136, Note_on_c, 0, 76, 70
1, 8153, Note_on_c, 1, 64, 0
1, 8159, Note_on_c, 0, 76, 0
1, 8160, Note_on_c, 0, 75, 70
1, 8183, Note_on_c, 0, 75, 0
1, 8184, Note_on_c, 0, 76, 70
1, 8207, Note_on_c, 0, 76, 0
1, 8208, Note_on_c, 0, 78, 70
1, 8208, Note_on_c, 1, 74, 70
1, 8228, Note_on_c, 1, 74, 0
1, 8231, Note_on_c, 0, 78, 0
1, 8232, Note_on_c, 0, 80, 70
1, 8255, Note_on_c, 0, 80, 0
1, 8256, Note_on_c, 0, 81, 70
1, 8256, Note_on_c, 1, 72, 70
1, 8279, Note_on_c, 0, 81, 0
1, 8280, Note_on_c, 0, 76, 71
1, 8301, Note_on_c, 1, 72, 0
1, 8303, Note_on_c, 0, 76, 0
1, 8304, Note_on_c, 0, 83, 73
1, 8304, Note_on_c, 1, 71, 70
1, 8327, Note_on_c, 0, 83, 0
1, 8328, Note_on_c, 0, 76, 75
1, 8349, Note_on_c, 1, 71, 0
1, 8351, Note_on_c, 0, 76, 0
1, 8352, Note_on_c, 0, 84, 74
1, 8352, Note_on_c, 1, 69, 70
1, 8375, Note_on_c, 0, 84, 0
1, 8376, Note_on_c, 0, 76, 73
1, 8397, Note_on_c, 1, 69, 0
1, 8399, Note_on_c, 0, 76, 0
1, 8400, Note_on_c, 0, 83, 72
1, 8400, Note_on_c, 1, 67, 70
1, 8423, Note_on_c, 0, 83, 0
1, 8424, Note_on_c, 0, 76, 71
1, 8445, Note_on_c, 1, 67, 0
1, 8447, Note_on_c, 0, 76, 0
1, 8448, Note_on_c, 0, 83, 70
1, 8448, Note_on_c, 1, 66, 70
1, 8471, Note_on_c, 0, 83, 0
1, 8472, Note_on_c, 0, 82, 70
1, 8495, Note_on_c, 0, 82, 0
1, 8496, Note_on_c, 0, 80, 70
1, 8519, Note_on_c, 0, 80, 0
1, 8520, Note_on_c, 0, 78, 70
1, 8537, Note_on_c, 1, 66, 0
1, 8543, Note_on_c, 0, 78, 0
1, 8544, Note_on_c, 0, 77, 70
1, 8567, Note_on_c, 0, 77, 0
1, 8568, Note_on_c, 0, 78, 70
1, 8591, Note_on_c, 0, 78, 0
1, 8592, Note_on_c, 0, 80, 70
1, 8592, Note_on_c, 1, 64, 70
1, 8612, Note_on_c, 1, 64, 0
1, 8615, Note_on_c, 0, 80, 0
1, 8616, Note_on_c, 0, 82, 70
1, 8639, Note_on_c, 0, 82, 0
1, 8640, Note_on_c, 0, 83, 70
1, 8640, Note_on_c, 1, 64, 86
1, 8664, Note_on_c, 1, 64, 0
1, 8664, Note_on_c, 1, 63, 70
1, 8687, Note_on_c, 1, 63, 0
1, 8688, Note_on_c, 1, 61, 70
1, 8711, Note_on_c, 1, 61, 0
1, 8712, Note_on_c, 1, 59, 70
1, 8729, Note_on_c, 0, 83, 0
1, 8735, Note_on_c, 1, 59, 0
1, 8736, Note_on_c, 1, 58, 70
1, 8759, Note_on_c, 1, 58, 0
1, 8760, Note_on_c, 1, 59, 70
1, 8783, Note_on_c, 1, 59, 0
1, 8784, Note_on_c, 0, 81, 70
1, 8784, Note_on_c, 1, 61, 70
1, 8804, Note_on_c, 0, 81, 0
1, 8807, Note_on_c, 1, 61, 0
1, 8808, Note_on_c, 1, 63, 70
1, 8831, Note_on_c, 1, 63, 0
1, 8832, Note_on_c, 0, 81, 86
1, 8832, Note_on_c, 1, 64, 70
1, 8856, Note_on_c, 0, 81, 0
1, 8856, Note_on_c, 0, 80, 70
1, 8879, Note_on_c, 0, 80, 0
1, 8880, Note_on_c, 0, 78, 70
1, 8903, Note_on_c, 0, 78, 0
1, 8904, Note_on_c, 0, 76, 70
1, 8921, Note_on_c, 1, 64, 0
1, 8927, Note_on_c, 0, 76, 0
1, 8928, Note_on_c, 0, 75, 70
1, 8951, Note_on_c, 0, 75, 0
1, 8952, Note_on_c, 0, 76, 70
1, 8975, Note_on_c, 0, 76, 0
1, 8976, Note_on_c, 0, 78, 70
1, 8976, Note_on_c, 1, 62, 70
1, 8996, Note_on_c, 1, 62, 0
1, 8999, Note_on_c, 0, 78, 0
1, 9000, Note_on_c, 0, 80, 70
1, 9023, Note_on_c, 0, 80, 0
1, 9024, Note_on_c, 0, 81, 70
1, 9024, Note_on_c, 1, 62, 86
1, 9048, Note_on_c, 1, 62, 0
1, 9048, Note_on_c, 1, 61, 70
1, 9071, Note_on_c, 1, 61, 0
1, 9072, Note_on_c, 1, 59, 70
1, 9095, Note_on_c, 1, 59, 0
1, 9096, Note_on_c, 1, 57, 70
1, 9113, Note_on_c, 0, 81, 0
1, 9119, Note_on_c, 1, 57, 0
1, 9120, Note_on_c, 1, 56, 70
1, 9143, Note_on_c, 1, 56, 0
1, 9144, Note_on_c, 1, 57, 70
1, 9167, Note_on_c, 1, 57, 0
1, 9168, Note_on_c, 0, 79, 70
1, 9168, Note_on_c, 1, 59, 70
1, 9188, Note_on_c, 0, 79, 0
1, 9191, Note_on_c, 1, 59, 0
1, 9192, Note_on_c, 1, 61, 70
1, 9215, Note_on_c, 1, 61, 0
1, 9216, Note_on_c, 0, 79, 86
1, 9216, Note_on_c, 1, 62, 70
1, 9240, Note_on_c, 0, 79, 0
1, 9240, Note_on_c, 0, 78, 70
1, 9261, Note_on_c, 1, 62, 0
1, 9263, Note_on_c, 0, 78, 0
1, 9264, Note_on_c, 0, 76, 70
1, 9264, Note_on_c, 1, 71, 70
1, 9287, Note_on_c, 0, 76, 0
1, 9288, Note_on_c, 0, 74, 70
1, 9309, Note_on_c, 1, 71, 0
1, 9311, Note_on_c, 0, 74, 0
1, 9312, Note_on_c, 0, 78, 70
1, 9312, Note_on_c, 1, 61, 70
1, 9335, Note_on_c, 0, 78, 0
1, 9336, Note_on_c, 0, 76, 70
1, 9357, Note_on_c, 1, 61, 0
1, 9359, Note_on_c, 0, 76, 0
1, 9360, Note_on_c, 0, 74, 70
1, 9360, Note_on_c, 1, 69, 70
1, 9383, Note_on_c, 0, 74, 0
1, 9384, Note_on_c, 0, 73, 70
1, 9405, Note_on_c, 1, 69, 0
1, 9407, Note_on_c, 0, 73, 0
1, 9408, Note_on_c, 0, 76, 70
1, 9408, Note_on_c, 1, 59, 70
1, 9431, Note_on_c, 0, 76, 0
1, 9432, Note_on_c, 0, 74, 70
1, 9453, Note_on_c, 1, 59, 0
1, 9455, Note_on_c, 0, 74, 0
1, 9456, Note_on_c, 0, 73, 70
1, 9456, Note_on_c, 1, 68, 70
1, 9479, Note_on_c, 0, 73, 0
1, 9480, Note_on_c, 0, 71, 70
1, 9501, Note_on_c, 1, 68, 0
1, 9503, Note_on_c, 0, 71, 0
1, 9504, Note_on_c, 0, 74, 70
1, 9504, Note_on_c, 1, 57, 70
1, 9527, Note_on_c, 0, 74, 0
1, 9528, Note_on_c, 0, 73, 70
1, 9549, Note_on_c, 1, 57, 0
1, 9551, Note_on_c, 0, 73, 0
1, 9552, Note_on_c, 0, 71, 70
1, 9552, Note_on_c, 1, 66, 70
1, 9575, Note_on_c, 0, 71, 0
1, 9576, Note_on_c, 0, 69, 70
1, 9597, Note_on_c, 1, 66, 0
1, 9599, Note_on_c, 0, 69, 0
1, 9600, Note_on_c, 0, 71, 70
1, 9600, Note_on_c, 1, 69, 70
1, 9623, Note_on_c, 1, 69, 0
1, 9624, Note_on_c, 1, 67, 70
1, 9645, Note_on_c, 0, 71, 0
1, 9647, Note_on_c, 1, 67, 0
1, 9648, Note_on_c, 0, 76, 70
1, 9648, Note_on_c, 1, 66, 70
1, 9671, Note_on_c, 1, 66, 0
1, 9672, Note_on_c, 1, 64, 70
1, 9693, Note_on_c, 0, 76, 0
1, 9695, Note_on_c, 1, 64, 0
1, 9696, Note_on_c, 0, 69, 70
1, 9696, Note_on_c, 1, 67, 70
1, 9719, Note_on_c, 1, 67, 0
1, 9720, Note_on_c, 1, 66, 70
1, 9741, Note_on_c, 0, 69, 0
1, 9743, Note_on_c, 1, 66, 0
1, 9744, Note_on_c, 0, 74, 70
1, 9744, Note_on_c, 1, 64, 70
1, 9767, Note_on_c, 1, 64, 0
1, 9768, Note_on_c, 1, 62, 70
1, 9789, Note_on_c, 0, 74, 0
1, 9791, Note_on_c, 1, 62, 0
1, 9792, Note_on_c, 0, 67, 70
1, 9792, Note_on_c, 1, 64, 70
1, 9815, Note_on_c, 0, 67, 0
1, 9816, Note_on_c, 0, 71, 70
1, 9837, Note_on_c, 1, 64, 0
1, 9839, Note_on_c, 0, 71, 0
1, 9840, Note_on_c, 0, 69, 70
1, 9840, Note_on_c, 1, 61, 70
1, 9863, Note_on_c, 0, 69, 0
1, 9864, Note_on_c, 0, 67, 70
1, 9885, Note_on_c, 1, 61, 0
1, 9887, Note_on_c, 0, 67, 0
1, 9888, Note_on_c, 0, 66, 70
1, 9888, Note_on_c, 1, 62, 70
1, 9911, Note_on_c, 0, 66, 0
1, 9912, Note_on_c, 0, 69, 70
1, 9933, Note_on_c, 1, 62, 0
1, 9935, Note_on_c, 0, 69, 0
1, 9936, Note_on_c, 0, 67, 70
1, 9936, Note_on_c, 1, 54, 70
1, 9959, Note_on_c, 0, 67, 0
1, 9960, Note_on_c, 0, 66, 70
1, 9981, Note_on_c, 1, 54, 0
1, 9983, Note_on_c, 0, 66, 0
1, 9984, Note_on_c, 0, 64, 70
1, 9984, Note_on_c, 1, 55, 70
1, 10029, Note_on_c, 0, 64, 0
1, 10032, Note_on_c, 0, 71, 68
1, 10032, Note_on_c, 0, 67, 68
1, 10073, Note_on_c, 1, 55, 0
1, 10077, Note_on_c, 0, 71, 0
1, 10077, Note_on_c, 0, 67, 0
1, 10080, Note_on_c, 0, 69, 67
1, 10125, Note_on_c, 0, 69, 0
1, 10128, Tempo, 600000
1, 10128, Note_on_c, 0, 61, 65
1, 10128, Note_on_c, 0, 55, 65
1, 10128, Note_on_c, 1, 45, 65
1, 10128, Note_on_c, 1, 33, 65
1, 10173, Note_on_c, 0, 61, 0
1, 10173, Note_on_c, 0, 55, 0
1, 10173, Note_on_c, 1, 45, 0
1, 10173, Note_on_c, 1, 33, 0
1, 10176, Note_on_c, 0, 62, 64
1, 10176, Note_on_c, 0, 54, 64
1, 10176, Note_on_c, 1, 47, 64
1, 10176, Note_on_c, 1, 35, 64
1, 10265, Note_on_c, 0, 62, 0
1, 10265, Note_on_c, 0, 54, 0
1, 10265, Note_on_c, 1, 47, 0
1, 10265, Note_on_c, 1, 35, 0
1, 10320, Tempo, 428571
1, 10320, Note_on_c, 0, 78, 75
1, 10320, Note_on_c, 1, 62, 75
1, 10368, Note_on_c, 0, 78, 0
1, 10368, Note_on_c, 0, 79, 75
1, 10368, Note_on_c, 1, 62, 0
1, 10368, Note_on_c, 1, 61, 75
1, 10388, Note_on_c, 0, 79, 0
1, 10388, Note_on_c, 1, 61, 0
1, 10416, Note_on_c, 0, 76, 75
1, 10416, Note_on_c, 1, 64, 75
1, 10464, Note_on_c, 0, 76, 0
1, 10464, Note_on_c, 0, 78, 75
1, 10464, Note_on_c, 1, 64, 0
1, 10464, Note_on_c, 1, 63, 75
1, 10484, Note_on_c, 0, 78, 0
1, 10484, Note_on_c, 1, 63, 0
1, 10512, Note_on_c, 0, 75, 75
1, 10512, Note_on_c, 1, 66, 75
1, 10560, Note_on_c, 0, 75, 0
1, 10560, Note_on_c, 0, 76, 75
1, 10560, Note_on_c, 1, 66, 0
1, 10560, Note_on_c, 1, 64, 75
1, 10580, Note_on_c, 0, 76, 0
1, 10580, Note_on_c, 1, 64, 0
1, 10608, Note_on_c, 0, 73, 75
1, 10608, Note_on_c, 1, 67, 75
1, 10656, Note_on_c, 0, 73, 0
1, 10656, Note_on_c, 0, 74, 75
1, 10656, Note_on_c, 1, 67, 0
1, 10656, Note_on_c, 1, 66, 75
1, 10676, Note_on_c, 0, 74, 0
1, 10676, Note_on_c, 1, 66, 0
1, 10704, Note_on_c, 0, 81, 75
1, 10704, Note_on_c, 1, 76, 75
1, 10704, Note_on_c, 1, 73, 75
1, 10752, Note_on_c, 0, 81, 0
1, 10752, Note_on_c, 0, 80, 75
1, 10752, Note_on_c, 1, 76, 0
1, 10752, Note_on_c, 1, 73, 0
1, 10752, Note_on_c, 1, 77, 75
1, 10752, Note_on_c, 1, 74, 75
1, 10772, Note_on_c, 0, 80, 0
1, 10797, Note_on_c, 1, 77, 0
1, 10797, Note_on_c, 1, 74, 0
1, 10800, Note_on_c, 0, 83, 75
1, 10800, Note_on_c, 1, 74, 75
1, 10800, Note_on_c, 1, 71, 75
1, 10848, Note_on_c, 0, 83, 0
1, 10848, Note_on_c, 0, 81, 75
1, 10848, Note_on_c, 1, 74, 0
1, 10848, Note_on_c, 1, 71, 0
1, 10848, Note_on_c, 1, 76, 75
1, 10848, Note_on_c, 1, 73, 75
1, 10868, Note_on_c, 0, 81, 0
1, 10893, Note_on_c, 1, 76, 0
1, 10893, Note_on_c, 1, 73, 0
1, 10896, Note_on_c, 0, 85, 75
1, 10896, Note_on_c, 1, 73, 75
1, 10896, Note_on_c, 1, 69, 75
1, 10944, Note_on_c, 0, 85, 0
1, 10944, Note_on_c, 0, 83, 75
1, 10944, Note_on_c, 1, 73, 0
1, 10944, Note_on_c, 1, 69, 0
1, 10944, Note_on_c, 1, 74, 75
1, 10944, Note_on_c, 1, 71, 75
1, 10964, Note_on_c, 0, 83, 0
1, 10989, Note_on_c, 1, 74, 0
1, 10989, Note_on_c, 1, 71, 0
1, 10992, Note_on_c, 0, 86, 75
1, 10992, Note_on_c, 1, 71, 75
1, 10992, Note_on_c, 1, 68, 75
1, 11040, Note_on_c, 0, 86, 0
1, 11040, Note_on_c, 0, 85, 75
1, 11040, Note_on_c, 1, 71, 0
1, 11040, Note_on_c, 1, 68, 0
1, 11040, Note_on_c, 1, 69, 75
1, 11060, Note_on_c, 0, 85, 0
1, 11085, Note_on_c, 1, 69, 0
1, 11088, Note_on_c, 0, 88, 75
1, 11088, Note_on_c, 0, 76, 64
1, 11088, Note_on_c, 1, 61, 75
1, 11108, Note_on_c, 0, 76, 0
1, 11136, Note_on_c, 0, 78, 64
1, 11136, Note_on_c, 1, 61, 0
1, 11136, Note_on_c, 1, 62, 75
1, 11156, Note_on_c, 1, 62, 0
1, 11181, Note_on_c, 0, 88, 0
1, 11184, Note_on_c, 0, 86, 75
1, 11184, Note_on_c, 1, 59, 75
1, 11225, Note_on_c, 0, 78, 0
1, 11232, Note_on_c, 0, 76, 64
1, 11232, Note_on_c, 1, 59, 0
1, 11232, Note_on_c, 1, 61, 75
1, 11252, Note_on_c, 1, 61, 0
1, 11273, Note_on_c, 0, 86, 0
1, 11280, Note_on_c, 0, 85, 75
1, 11280, Note_on_c, 1, 58, 75
1, 11321, Note_on_c, 0, 76, 0
1, 11328, Note_on_c, 0, 74, 64
1, 11328, Note_on_c, 1, 58, 0
1, 11328, Note_on_c, 1, 59, 75
1, 11348, Note_on_c, 1, 59, 0
1, 11373, Note_on_c, 0, 85, 0
1, 11376, Note_on_c, 0, 83, 75
1, 11376, Note_on_c, 1, 56, 75
1, 11417, Note_on_c, 0, 74, 0
1, 11424, Note_on_c, 0, 73, 64
1, 11424, Note_on_c, 1, 56, 0
1, 11424, Note_on_c, 1, 57, 75
1, 11465, Note_on_c, 0, 83, 0
1, 11469, Note_on_c, 0, 73, 0
1, 11472, Note_on_c, 0, 81, 75
1, 11472, Note_on_c, 0, 66, 64
1, 11492, Note_on_c, 0, 81, 0
1, 11517, Note_on_c, 0, 66, 0
1, 11520, Note_on_c, 0, 83, 75
1, 11520, Note_on_c, 0, 67, 64
1, 11543, Note_on_c, 0, 83, 0
1, 11544, Note_on_c, 0, 85, 75
1, 11565, Note_on_c, 0, 67, 0
1, 11567, Note_on_c, 0, 85, 0
1, 11568, Note_on_c, 0, 86, 75
1, 11568, Note_on_c, 0, 64, 64
1, 11591, Note_on_c, 0, 86, 0
1, 11592, Note_on_c, 0, 88, 75
1, 11613, Note_on_c, 0, 64, 0
1, 11615, Note_on_c, 0, 88, 0
1, 11616, Note_on_c, 0, 81, 75
1, 11616, Note_on_c, 0, 66, 64
1, 11639, Note_on_c, 0, 81, 0
1, 11640, Note_on_c, 0, 84, 75
1, 11661, Note_on_c, 0, 66, 0
1, 11663, Note_on_c, 0, 84, 0
1, 11664, Note_on_c, 0, 83, 75
1, 11664, Note_on_c, 0, 63, 64
1, 11687, Note_on_c, 0, 83, 0
1, 11688, Note_on_c, 0, 81, 75
1, 11709, Note_on_c, 0, 63, 0
1, 11711, Note_on_c, 0, 81, 0
1, 11712, Note_on_c, 0, 79, 75
1, 11712, Note_on_c, 0, 64, 64
1, 11735, Note_on_c, 0, 79, 0
1, 11736, Note_on_c, 0, 83, 75
1, 11757, Note_on_c, 0, 64, 0
1, 11759, Note_on_c, 0, 83, 0
1, 11760, Note_on_c, 0, 81, 75
1, 11760, Note_on_c, 0, 61, 64
1, 11783, Note_on_c, 0, 81, 0
1, 11784, Note_on_c, 0, 79, 75
1, 11805, Note_on_c, 0, 61, 0
1, 11807, Note_on_c, 0, 79, 0
1, 11808, Note_on_c, 0, 78, 75
1, 11808, Note_on_c, 0, 62, 64
1, 11831, Note_on_c, 0, 78, 0
1, 11832, Note_on_c, 0, 81, 75
1, 11853, Note_on_c, 0, 62, 0
1, 11855, Note_on_c, 0, 81, 0
1, 11856, Note_on_c, 0, 79, 75
1, 11856, Note_on_c, 0, 66, 64
1, 11879, Note_on_c, 0, 79, 0
1, 11880, Note_on_c, 0, 78, 75
1, 11901, Note_on_c, 0, 66, 0
1, 11903, Note_on_c, 0, 78, 0
1, 11904, Note_on_c, 0, 76, 75
1, 11904, Note_on_c, 0, 67, 64
1, 11927, Note_on_c, 0, 76, 0
1, 11928, Note_on_c, 0, 75, 75
1, 11949, Note_on_c, 0, 67, 0
1, 11951, Note_on_c, 0, 75, 0
1, 11952, Note_on_c, 0, 76, 76
1, 11952, Note_on_c, 0, 66, 64
1, 11975, Note_on_c, 0, 76, 0
1, 11976, Note_on_c, 0, 75, 76
1, 11997, Note_on_c, 0, 66, 0
1, 11999, Note_on_c, 0, 75, 0
1, 12000, Note_on_c, 0, 76, 77
1, 12000, Note_on_c, 0, 67, 64
1, 12023, Note_on_c, 0, 76, 0
1, 12024, Note_on_c, 0, 78, 78
1, 12045, Note_on_c, 0, 67, 0
1, 12047, Note_on_c, 0, 78, 0
1, 12048, Note_on_c, 0, 76, 78
1, 12048, Note_on_c, 0, 68, 64
1, 12071, Note_on_c, 0, 76, 0
1, 12072, Note_on_c, 0, 74, 79
1, 12093, Note_on_c, 0, 68, 0
1, 12095, Note_on_c, 0, 74, 0
1, 12096, Note_on_c, 0, 73, 80
1, 12096, Note_on_c, 0, 69, 64
1, 12119, Note_on_c, 0, 73, 0
1, 12120, Note_on_c, 0, 74, 79
1, 12143, Note_on_c, 0, 74, 0
1, 12144, Note_on_c, 0, 76, 78
1, 12167, Note_on_c, 0, 76, 0
1, 12168, Note_on_c, 0, 74, 78
1, 12185, Note_on_c, 0, 69, 0
1, 12185, Note_on_c, 1, 57, 0
1, 12191, Note_on_c, 0, 74, 0
1, 12192, Note_on_c, 0, 73, 77
1, 12215, Note_on_c, 0, 73, 0
1, 12216, Note_on_c, 0, 71, 76
1, 12239, Note_on_c, 0, 71, 0
1, 12240, Note_on_c, 0, 69, 76
1, 12240, Note_on_c, 1, 57, 75
1, 12263, Note_on_c, 0, 69, 0
1, 12264, Note_on_c, 0, 67, 75
1, 12287, Note_on_c, 0, 67, 0
1, 12288, Note_on_c, 0, 66, 75
1, 12288, Note_on_c, 1, 57, 0
1, 12288, Note_on_c, 1, 59, 75
1, 12308, Note_on_c, 1, 59, 0
1, 12336, Note_on_c, 1, 56, 75
1, 12377, Note_on_c, 0, 66, 0
1, 12384, Note_on_c, 1, 56, 0
1, 12384, Note_on_c, 1, 57, 75
1, 12404, Note_on_c, 1, 57, 0
1, 12432, Note_on_c, 0, 62, 75
1, 12432, Note_on_c, 1, 54, 75
1, 12480, Note_on_c, 0, 62, 0
1, 12480, Note_on_c, 0, 64, 75
1, 12480, Note_on_c, 1, 54, 0
1, 12480, Note_on_c, 1, 55, 75
1, 12500, Note_on_c, 0, 64, 0
1, 12500, Note_on_c, 1, 55, 0
1, 12528, Note_on_c, 0, 61, 75
1, 12528, Note_on_c, 1, 52, 75
1, 12576, Note_on_c, 0, 61, 0
1, 12576, Note_on_c, 0, 62, 75
1, 12576, Note_on_c, 1, 52, 0
1, 12576, Note_on_c, 1, 54, 75
1, 12596, Note_on_c, 1, 54, 0
1, 12621, Note_on_c, 0, 62, 0
1, 12624, Note_on_c, 0, 71, 75
1, 12624, Note_on_c, 0, 66, 75
1, 12624, Note_on_c, 1, 51, 75
1, 12672, Note_on_c, 0, 71, 0
1, 12672, Note_on_c, 0, 66, 0
1, 12672, Note_on_c, 0, 72, 75
1, 12672, Note_on_c, 0, 67, 75
1, 12672, Note_on_c, 1, 51, 0
1, 12672, Note_on_c, 1, 52, 75
1, 12692, Note_on_c, 1, 52, 0
1, 12717, Note_on_c, 0, 72, 0
1, 12717, Note_on_c, 0, 67, 0
1, 12720, Note_on_c, 0, 70, 75
1, 12720, Note_on_c, 0, 64, 75
1, 12720, Note_on_c, 1, 49, 75
1, 12768, Note_on_c, 0, 70, 0
1, 12768, Note_on_c, 0, 64, 0
1, 12768, Note_on_c, 0, 71, 75
1, 12768, Note_on_c, 0, 66, 75
1, 12768, Note_on_c, 1, 49, 0
1, 12768, Note_on_c, 1, 50, 75
1, 12788, Note_on_c, 1, 50, 0
1, 12813, Note_on_c, 0, 71, 0
1, 12813, Note_on_c, 0, 66, 0
1, 12816, Note_on_c, 0, 68, 75
1, 12816, Note_on_c, 0, 62, 75
1, 12816, Note_on_c, 1, 47, 75
1, 12864, Note_on_c, 0, 68, 0
1, 12864, Note_on_c, 0, 62, 0
1, 12864, Note_on_c, 0, 69, 75
1, 12864, Note_on_c, 0, 64, 75
1, 12864, Note_on_c, 1, 47, 0
1, 12864, Note_on_c, 1, 48, 75
1, 12884, Note_on_c, 1, 48, 0
1, 12909, Note_on_c, 0, 69, 0
1, 12909, Note_on_c, 0, 64, 0
1, 12912, Note_on_c, 0, 66, 75
1, 12912, Note_on_c, 0, 60, 75
1, 12912, Note_on_c, 1, 45, 75
1, 12960, Note_on_c, 0, 66, 0
1, 12960, Note_on_c, 0, 60, 0
1, 12960, Note_on_c, 0, 67, 75
1, 12960, Note_on_c, 0, 62, 64
1, 12960, Note_on_c, 1, 45, 0
1, 12960, Note_on_c, 1, 47, 75
1, 12980, Note_on_c, 1, 47, 0
1, 13005, Note_on_c, 0, 67, 0
1, 13008, Note_on_c, 0, 71, 75
1, 13008, Note_on_c, 1, 43, 75
1, 13049, Note_on_c, 0, 62, 0
1, 13056, Tempo, 1200000
1, 13056, Note_on_c, 0, 71, 0
1, 13056, Note_on_c, 0, 62, 75
1, 13056, Note_on_c, 1, 43, 0
1, 13056, Note_on_c, 1, 55, 75
1, 13056, Note_on_c, 1, 52, 75
1, 13056, Note_on_c, 1, 45, 75
1, 13152, Tempo, 2400000
1, 13152, Note_on_c, 0, 62, 0
1, 13152, Note_on_c, 0, 61, 75
1, 13197, Note_on_c, 0, 61, 0
1, 13197, Note_on_c, 1, 55, 0
1, 13197, Note_on_c, 1, 52, 0
1, 13197, Note_on_c, 1, 45, 0
1, 13200, Tempo, 428571
1, 13200, Note_on_c, 0, 74, 75
1, 13220, Note_on_c, 0, 74, 0
1, 13248, Note_on_c, 0, 74, 91
1, 13272, Note_on_c, 0, 74, 0
1, 13272, Note_on_c, 0, 73, 75
1, 13295, Note_on_c, 0, 73, 0
1, 13296, Note_on_c, 0, 71, 75
1, 13319, Note_on_c, 0, 71, 0
1, 13320, Note_on_c, 0, 69, 75
1, 13343, Note_on_c, 0, 69, 0
1, 13344, Note_on_c, 0, 68, 75
1, 13367, Note_on_c, 0, 68, 0
1, 13368, Note_on_c, 0, 69, 75
1, 13391, Note_on_c, 0, 69, 0
1, 13392, Note_on_c, 0, 71, 75
1, 13392, Note_on_c, 1, 67, 75
1, 13412, Note_on_c, 1, 67, 0
1, 13415, Note_on_c, 0, 71, 0
1, 13416, Note_on_c, 0, 73, 75
1, 13439, Note_on_c, 0, 73, 0
1, 13440, Note_on_c, 0, 74, 75
1, 13440, Note_on_c, 1, 67, 91
1, 13464, Note_on_c, 1, 67, 0
1, 13464, Note_on_c, 1, 66, 75
1, 13487, Note_on_c, 1, 66, 0
1, 13488, Note_on_c, 1, 64, 75
1, 13511, Note_on_c, 1, 64, 0
1, 13512, Note_on_c, 1, 62, 75
1, 13529, Note_on_c, 0, 74, 0
1, 13535, Note_on_c, 1, 62, 0
1, 13536, Note_on_c, 1, 61, 75
1, 13559, Note_on_c, 1, 61, 0
1, 13560, Note_on_c, 1, 62, 75
1, 13583, Note_on_c, 1, 62, 0
1, 13584, Note_on_c, 0, 81, 75
1, 13584, Note_on_c, 1, 64, 75
1, 13604, Note_on_c, 0, 81, 0
1, 13607, Note_on_c, 1, 64, 0
1, 13608, Note_on_c, 1, 66, 75
1, 13631, Note_on_c, 1, 66, 0
1, 13632, Note_on_c, 0, 81, 91
1, 13632, Note_on_c, 1, 67, 75
1, 13656, Note_on_c, 0, 81, 0
1, 13656, Note_on_c, 0, 79, 75
1, 13679, Note_on_c, 0, 79, 0
1, 13680, Note_on_c, 0, 78, 75
1, 13703, Note_on_c, 0, 78, 0
1, 13704, Note_on_c, 0, 76, 75
1, 13721, Note_on_c, 1, 67, 0
1, 13727, Note_on_c, 0, 76, 0
1, 13728, Note_on_c, 0, 75, 75
1, 13751, Note_on_c, 0, 75, 0
1, 13752, Note_on_c, 0, 76, 75
1, 13775, Note_on_c, 0, 76, 0
1, 13776, Note_on_c, 0, 78, 75
1, 13776, Note_on_c, 1, 67, 75
1, 13796, Note_on_c, 1, 67, 0
1, 13799, Note_on_c, 0, 78, 0
1, 13800, Note_on_c, 0, 79, 75
1, 13823, Note_on_c, 0, 79, 0
1, 13824, Note_on_c, 0, 81, 75
1, 13824, Note_on_c, 1, 67, 91
1, 13848, Note_on_c, 1, 67, 0
1, 13848, Note_on_c, 1, 66, 75
1, 13871, Note_on_c, 1, 66, 0
1, 13872, Note_on_c, 1, 64, 75
1, 13895, Note_on_c, 1, 64, 0
1, 13896, Note_on_c, 1, 62, 75
1, 13913, Note_on_c, 0, 81, 0
1, 13919, Note_on_c, 1, 62, 0
1, 13920, Note_on_c, 1, 61, 75
1, 13943, Note_on_c, 1, 61, 0
1, 13944, Note_on_c, 1, 62, 75
1, 13967, Note_on_c, 1, 62, 0
1, 13968, Note_on_c, 0, 86, 75
1, 13968, Note_on_c, 1, 64, 75
1, 13988, Note_on_c, 0, 86, 0
1, 13991, Note_on_c, 1, 64, 0
1, 13992, Note_on_c, 1, 66, 75
1, 14015, Note_on_c, 1, 66, 0
1, 14016, Note_on_c, 0, 86, 91
1, 14016, Note_on_c, 1, 67, 75
1, 14040, Note_on_c, 0, 86, 0
1, 14040, Note_on_c, 0, 85, 75
1, 14063, Note_on_c, 0, 85, 0
1, 14064, Note_on_c, 0, 83, 75
1, 14087, Note_on_c, 0, 83, 0
1, 14088, Note_on_c, 0, 81, 75
1, 14105, Note_on_c, 1, 67, 0
1, 14111, Note_on_c, 0, 81, 0
1, 14112, Note_on_c, 0, 80, 75
1, 14135, Note_on_c, 0, 80, 0
1, 14136, Note_on_c, 0, 81, 75
1, 14159, Note_on_c, 0, 81, 0
1, 14160, Note_on_c, 0, 83, 75
1, 14160, Note_on_c, 1, 79, 75
1, 14180, Note_on_c, 1, 79, 0
1, 14183, Note_on_c, 0, 83, 0
1, 14184, Note_on_c, 0, 85, 75
1, 14207, Note_on_c, 0, 85, 0
1, 14208, Note_on_c, 0, 86, 75
1, 14208, Note_on_c, 1, 78, 75
1, 14231, Note_on_c, 0, 86, 0
1, 14232, Note_on_c, 0, 81, 75
1, 14253, Note_on_c, 1, 78, 0
1, 14255, Note_on_c, 0, 81, 0
1, 14256, Note_on_c, 0, 85, 75
1, 14256, Note_on_c, 1, 76, 75
1, 14279, Note_on_c, 0, 85, 0
1, 14280, Note_on_c, 0, 79, 75
1, 14301, Note_on_c, 1, 76, 0
1, 14303, Note_on_c, 0, 79, 0
1, 14304, Note_on_c, 0, 83, 75
1, 14304, Note_on_c, 1, 74, 75
1, 14327, Note_on_c, 0, 83, 0
1, 14328, Note_on_c, 0, 78, 75
1, 14349, Note_on_c, 1, 74, 0
1, 14351, Note_on_c, 0, 78, 0
1, 14352, Note_on_c, 0, 81, 75
1, 14352, Note_on_c, 1, 73, 75
1, 14375, Note_on_c, 0, 81, 0
1, 14376, Note_on_c, 0, 76, 75
1, 14397, Note_on_c, 1, 73, 0
1, 14399, Note_on_c, 0, 76, 0
1, 14400, Note_on_c, 0, 79, 75
1, 14400, Note_on_c, 1, 71, 75
1, 14423, Note_on_c, 0, 79, 0
1, 14424, Note_on_c, 0, 74, 75
1, 14445, Note_on_c, 1, 71, 0
1, 14447, Note_on_c, 0, 74, 0
1, 14448, Note_on_c, 0, 78, 75
1, 14448, Note_on_c, 1, 69, 75
1, 14471, Note_on_c, 0, 78, 0
1, 14472, Note_on_c, 0, 73, 75
1, 14493, Note_on_c, 1, 69, 0
1, 14495, Note_on_c, 0, 73, 0
1, 14496, Note_on_c, 0, 76, 75
1, 14496, Note_on_c, 1, 67, 75
1, 14519, Note_on_c, 0, 76, 0
1, 14520, Note_on_c, 0, 71, 75
1, 14541, Note_on_c, 1, 67, 0
1, 14543, Note_on_c, 0, 71, 0
1, 14544, Note_on_c, 0, 75, 75
1, 14544, Note_on_c, 1, 66, 75
1, 14567, Note_on_c, 0, 75, 0
1, 14568, Note_on_c, 0, 71, 75
1, 14589, Note_on_c, 1, 66, 0
1, 14591, Note_on_c, 0, 71, 0
1, 14592, Note_on_c, 0, 76, 75
1, 14592, Note_on_c, 1, 67, 75
1, 14615, Note_on_c, 0, 76, 0
1, 14616, Note_on_c, 0, 71, 75
1, 14637, Note_on_c, 1, 67, 0
1, 14639, Note_on_c, 0, 71, 0
1, 14640, Note_on_c, 0, 75, 76
1, 14640, Note_on_c, 1, 66, 75
1, 14663, Note_on_c, 0, 75, 0
1, 14664, Note_on_c, 0, 71, 76
1, 14685, Note_on_c, 1, 66, 0
1, 14687, Note_on_c, 0, 71, 0
1, 14688, Note_on_c, 0, 76, 77
1, 14688, Note_on_c, 1, 67, 75
1, 14711, Note_on_c, 0, 76, 0
1, 14712, Note_on_c, 0, 71, 78
1, 14733, Note_on_c, 1, 67, 0
1, 14735, Note_on_c, 0, 71, 0
1, 14736, Note_on_c, 0, 78, 78
1, 14736, Note_on_c, 1, 63, 75
1, 14759, Note_on_c, 0, 78, 0
1, 14760, Note_on_c, 0, 71, 79
1, 14781, Note_on_c, 1, 63, 0
1, 14783, Note_on_c, 0, 71, 0
1, 14784, Note_on_c, 0, 79, 80
1, 14784, Note_on_c, 1, 64, 75
1, 14807, Note_on_c, 0, 79, 0
1, 14808, Note_on_c, 0, 71, 79
1, 14829, Note_on_c, 1, 64, 0
1, 14831, Note_on_c, 0, 71, 0
1, 14832, Note_on_c, 0, 78, 78
1, 14832, Note_on_c, 1, 63, 75
1, 14855, Note_on_c, 0, 78, 0
1, 14856, Note_on_c, 0, 71, 78
1, 14877, Note_on_c, 1, 63, 0
1, 14879, Note_on_c, 0, 71, 0
1, 14880, Note_on_c, 0, 79, 77
1, 14880, Note_on_c, 1, 64, 75
1, 14903, Note_on_c, 0, 79, 0
1, 14904, Note_on_c, 0, 71, 76
1, 14925, Note_on_c, 1, 64, 0
1, 14927, Note_on_c, 0, 71, 0
1, 14928, Note_on_c, 0, 73, 76
1, 14928, Note_on_c, 1, 67, 75
1, 14951, Note_on_c, 0, 73, 0
1, 14952, Note_on_c, 0, 69, 75
1, 14973, Note_on_c, 1, 67, 0
1, 14975, Note_on_c, 0, 69, 0
1, 14976, Note_on_c, 0, 74, 75
1, 14976, Note_on_c, 1, 66, 75
1, 14999, Note_on_c, 0, 74, 0
1, 15000, Note_on_c, 0, 69, 75
1, 15021, Note_on_c, 1, 66, 0
1, 15023, Note_on_c, 0, 69, 0
1, 15024, Note_on_c, 0, 73, 76
1, 15024, Note_on_c, 1, 67, 75
1, 15047, Note_on_c, 0, 73, 0
1, 15048, Note_on_c, 0, 69, 76
1, 15069, Note_on_c, 1, 67, 0
1, 15071, Note_on_c, 0, 69, 0
1, 15072, Note_on_c, 0, 74, 77
1, 15072, Note_on_c, 1, 66, 75
1, 15095, Note_on_c, 0, 74, 0
1, 15096, Note_on_c, 0, 69, 78
1, 15117, Note_on_c, 1, 66, 0
1, 15119, Note_on_c, 0, 69, 0
1, 15120, Note_on_c, 0, 76, 78
1, 15120, Note_on_c, 1, 61, 75
1, 15143, Note_on_c, 0, 76, 0
1, 15144, Note_on_c, 0, 69, 79
1, 15165, Note_on_c, 1, 61, 0
1, 15167, Note_on_c, 0, 69, 0
1, 15168, Note_on_c, 0, 78, 80
1, 15168, Note_on_c, 1, 62, 75
1, 15191, Note_on_c, 0, 78, 0
1, 15192, Note_on_c, 0, 69, 79
1, 15213, Note_on_c, 1, 62, 0
1, 15215, Note_on_c, 0, 69, 0
1, 15216, Note_on_c, 0, 76, 78
1, 15216, Note_on_c, 1, 61, 75
1, 15239, Note_on_c, 0, 76, 0
1, 15240, Note_on_c, 0, 69, 78
1, 15261, Note_on_c, 1, 61, 0
1, 15263, Note_on_c, 0, 69, 0
1, 15264, Note_on_c, 0, 78, 77
1, 15264, Note_on_c, 1, 62, 75
1, 15287, Note_on_c, 0, 78, 0
1, 15288, Note_on_c, 0, 69, 76
1, 15309, Note_on_c, 1, 62, 0
1, 15311, Note_on_c, 0, 69, 0
1, 15312, Note_on_c, 0, 76, 76
1, 15312, Note_on_c, 1, 60, 75
1, 15335, Note_on_c, 0, 76, 0
1, 15336, Note_on_c, 0, 69, 75
1, 15357, Note_on_c, 1, 60, 0
1, 15359, Note_on_c, 0, 69, 0
1, 15360, Note_on_c, 0, 76, 75
1, 15360, Note_on_c, 1, 59, 75
1, 15383, Note_on_c, 0, 76, 0
1, 15384, Note_on_c, 0, 75, 75
1, 15407, Note_on_c, 0, 75, 0
1, 15408, Note_on_c, 0, 73, 75
1, 15431, Note_on_c, 0, 73, 0
1, 15432, Note_on_c, 0, 71, 75
1, 15449, Note_on_c, 1, 59, 0
1, 15455, Note_on_c, 0, 71, 0
1, 15456, Note_on_c, 0, 70, 75
1, 15479, Note_on_c, 0, 70, 0
1, 15480, Note_on_c, 0, 71, 75
1, 15503, Note_on_c, 0, 71, 0
1, 15504, Note_on_c, 0, 73, 75
1, 15504, Note_on_c, 1, 57, 75
1, 15524, Note_on_c, 1, 57, 0
1, 15527, Note_on_c, 0, 73, 0
1, 15528, Note_on_c, 0, 75, 75
1, 15551, Note_on_c, 0, 75, 0
1, 15552, Note_on_c, 0, 76, 75
1, 15552, Note_on_c, 1, 57, 91
1, 15576, Note_on_c, 1, 57, 0
1, 15576, Note_on_c, 1, 56, 75
1, 15599, Note_on_c, 1, 56, 0
1, 15600, Note_on_c, 1, 54, 75
1, 15623, Note_on_c, 1, 54, 0
1, 15624, Note_on_c, 1, 52, 75
1, 15641, Note_on_c, 0, 76, 0
1, 15647, Note_on_c, 1, 52, 0
1, 15648, Note_on_c, 1, 51, 75
1, 15671, Note_on_c, 1, 51, 0
1, 15672, Note_on_c, 1, 52, 75
1, 15695, Note_on_c, 1, 52, 0
1, 15696, Note_on_c, 0, 74, 75
1, 15696, Note_on_c, 1, 54, 75
1, 15716, Note_on_c, 0, 74, 0
1, 15719, Note_on_c, 1, 54, 0
1, 15720, Note_on_c, 1, 56, 75
1, 15743, Note_on_c, 1, 56, 0
1, 15744, Note_on_c, 0, 74, 91
1, 15744, Note_on_c, 1, 57, 75
1, 15768, Note_on_c, 0, 74, 0
1, 15768, Note_on_c, 0, 73, 75
1, 15791, Note_on_c, 0, 73, 0
1, 15792, Note_on_c, 0, 71, 75
1, 15815, Note_on_c, 0, 71, 0
1, 15816, Note_on_c, 0, 69, 75
1, 15833, Note_on_c, 1, 57, 0
1, 15839, Note_on_c, 0, 69, 0
1, 15840, Note_on_c, 0, 68, 75
1, 15863, Note_on_c, 0, 68, 0
1, 15864, Note_on_c, 0, 69, 75
1, 15887, Note_on_c, 0, 69, 0
1, 15888, Note_on_c, 0, 71, 75
1, 15888, Note_on_c, 1, 67, 75
1, 15908, Note_on_c, 1, 67, 0
1, 15911, Note_on_c, 0, 71, 0
1, 15912, Note_on_c, 0, 73, 75
1, 15935, Note_on_c, 0, 73, 0
1, 15936, Note_on_c, 0, 74, 75
1, 15936, Note_on_c, 1, 67, 91
1, 15960, Note_on_c, 1, 67, 0
1, 15960, Note_on_c, 1, 66, 75
1, 15983, Note_on_c, 1, 66, 0
1, 15984, Note_on_c, 1, 64, 75
1, 16007, Note_on_c, 1, 64, 0
1, 16008, Note_on_c, 1, 62, 75
1, 16025, Note_on_c, 0, 74, 0
1, 16031, Note_on_c, 1, 62, 0
1, 16032, Note_on_c, 1, 61, 75
1, 16055, Note_on_c, 1, 61, 0
1, 16056, Note_on_c, 1, 62, 75
1, 16079, Note_on_c, 1, 62, 0
1, 16080, Note_on_c, 0, 81, 75
1, 16080, Note_on_c, 1, 64, 75
1, 16100, Note_on_c, 0, 81, 0
1, 16103, Note_on_c, 1, 64, 0
1, 16104, Note_on_c, 1, 66, 75
1, 16127, Note_on_c, 1, 66, 0
1, 16128, Note_on_c, 0, 81, 91
1, 16128, Note_on_c, 1, 67, 75
1, 16152, Note_on_c, 0, 81, 0
1, 16152, Note_on_c, 0, 71, 75
1, 16175, Note_on_c, 0, 71, 0
1, 16176, Note_on_c, 0, 73, 75
1, 16199, Note_on_c, 0, 73, 0
1, 16200, Note_on_c, 0, 71, 75
1, 16217, Note_on_c, 1, 67, 0
1, 16223, Note_on_c, 0, 71, 0
1, 16224, Note_on_c, 0, 79, 75
1, 16224, Note_on_c, 1, 64, 75
1, 16247, Note_on_c, 0, 79, 0
1, 16248, Note_on_c, 0, 78, 75
1, 16271, Note_on_c, 0, 78, 0
1, 16272, Note_on_c, 0, 76, 75
1, 16295, Note_on_c, 0, 76, 0
1, 16296, Note_on_c, 0, 74, 75
1, 16313, Note_on_c, 1, 64, 0
1, 16319, Note_on_c, 0, 74, 0
1, 16320, Note_on_c, 0, 73, 75
1, 16320, Note_on_c, 1, 69, 75
1, 16343, Note_on_c, 1, 69, 0
1, 16344, Note_on_c, 1, 67, 75
1, 16367, Note_on_c, 1, 67, 0
1, 16368, Note_on_c, 1, 66, 75
1, 16391, Note_on_c, 1, 66, 0
1, 16392, Note_on_c, 1, 64, 75
1, 16409, Note_on_c, 0, 73, 0
1, 16415, Note_on_c, 1, 64, 0
1, 16416, Note_on_c, 0, 81, 75
1, 16416, Note_on_c, 0, 78, 75
1, 16416, Note_on_c, 1, 62, 75
1, 16439, Note_on_c, 0, 81, 0
1, 16439, Note_on_c, 0, 78, 0
1, 16440, Note_on_c, 0, 79, 75
1, 16440, Note_on_c, 0, 76, 75
1, 16463, Note_on_c, 0, 79, 0
1, 16463, Note_on_c, 0, 76, 0
1, 16464, Note_on_c, 0, 78, 75
1, 16464, Note_on_c, 0, 74, 75
1, 16487, Note_on_c, 0, 78, 0
1, 16487, Note_on_c, 0, 74, 0
1, 16488, Note_on_c, 0, 76, 75
1, 16488, Note_on_c, 0, 73, 75
1, 16505, Note_on_c, 1, 62, 0
1, 16511, Note_on_c, 0, 76, 0
1, 16511, Note_on_c, 0, 73, 0
1, 16512, Note_on_c, 0, 74, 75
1, 16512, Note_on_c, 1, 71, 75
1, 16535, Note_on_c, 1, 71, 0
1, 16536, Note_on_c, 1, 69, 75
1, 16559, Note_on_c, 1, 69, 0
1, 16560, Note_on_c, 1, 67, 75
1, 16583, Note_on_c, 1, 67, 0
1, 16584, Note_on_c, 1, 66, 75
1, 16601, Note_on_c, 0, 74, 0
1, 16607, Note_on_c, 1, 66, 0
1, 16608, Note_on_c, 0, 83, 75
1, 16608, Note_on_c, 0, 79, 75
1, 16608, Note_on_c, 1, 64, 75
1, 16631, Note_on_c, 0, 83, 0
1, 16631, Note_on_c, 0, 79, 0
1, 16632, Note_on_c, 0, 81, 75
1, 16632, Note_on_c, 0, 78, 75
1, 16655, Note_on_c, 0, 81, 0
1, 16655, Note_on_c, 0, 78, 0
1, 16656, Note_on_c, 0, 79, 75
1, 16656, Note_on_c, 0, 76, 75
1, 16679, Note_on_c, 0, 79, 0
1, 16679, Note_on_c, 0, 76, 0
1, 16680, Note_on_c, 0, 78, 75
1, 16680, Note_on_c, 0, 74, 75
1, 16697, Note_on_c, 1, 64, 0
1, 16703, Note_on_c, 0, 78, 0
1, 16703, Note_on_c, 0, 74, 0
1, 16704, Note_on_c, 0, 76, 75
1, 16704, Note_on_c, 0, 73, 75
1, 16704, Note_on_c, 1, 69, 75
1, 16727, Note_on_c, 1, 69, 0
1, 16728, Note_on_c, 1, 68, 75
1, 16749, Note_on_c, 0, 76, 0
1, 16749, Note_on_c, 0, 73, 0
1, 16751, Note_on_c, 1, 68, 0
1, 16752, Note_on_c, 0, 78, 77
1, 16752, Note_on_c, 0, 74, 77
1, 16752, Note_on_c, 1, 69, 75
1, 16775, Note_on_c, 1, 69, 0
1, 16776, Note_on_c, 1, 68, 75
1, 16797, Note_on_c, 0, 78, 0
1, 16797, Note_on_c, 0, 74, 0
1, 16799, Note_on_c, 1, 68, 0
1, 16800, Note_on_c, 0, 79, 80
1, 16800, Note_on_c, 0, 76, 80
1, 16800, Note_on_c, 1, 69, 75
1, 16823, Note_on_c, 1, 69, 0
1, 16824, Note_on_c, 1, 68, 75
1, 16845, Note_on_c, 0, 79, 0
1, 16845, Note_on_c, 0, 76, 0
1, 16847, Note_on_c, 1, 68, 0
1, 16848, Note_on_c, 0, 78, 77
1, 16848, Note_on_c, 0, 74, 77
1, 16848, Note_on_c, 1, 69, 75
1, 16871, Note_on_c, 1, 69, 0
1, 16872, Note_on_c, 1, 68, 75
1, 16893, Note_on_c, 0, 78, 0
1, 16893, Note_on_c, 0, 74, 0
1, 16895, Note_on_c, 1, 68, 0
1, 16896, Note_on_c, 0, 76, 75
1, 16896, Note_on_c, 0, 73, 75
1, 16896, Note_on_c, 1, 69, 75
1, 16941, Note_on_c, 0, 76, 0
1, 16941, Note_on_c, 0, 73, 0
1, 16944, Note_on_c, 0, 81, 75
1, 16967, Note_on_c, 0, 81, 0
1, 16968, Note_on_c, 0, 80, 75
1, 16985, Note_on_c, 1, 69, 0
1, 16991, Note_on_c, 0, 80, 0
1, 16992, Note_on_c, 0, 81, 75
1, 17015, Note_on_c, 0, 81, 0
1, 17016, Note_on_c, 0, 80, 75
1, 17039, Note_on_c, 0, 80, 0
1, 17040, Note_on_c, 0, 81, 75
1, 17040, Note_on_c, 1, 66, 75
1, 17040, Note_on_c, 1, 62, 75
1, 17063, Note_on_c, 0, 81, 0
1, 17064, Note_on_c, 0, 80, 75
1, 17085, Note_on_c, 1, 66, 0
1, 17085, Note_on_c, 1, 62, 0
1, 17087, Note_on_c, 0, 80, 0
1, 17088, Note_on_c, 0, 81, 75
1, 17088, Note_on_c, 1, 64, 75
1, 17088, Note_on_c, 1, 61, 75
1, 17111, Note_on_c, 0, 81, 0
1, 17112, Note_on_c, 0, 80, 75
1, 17133, Note_on_c, 1, 64, 0
1, 17133, Note_on_c, 1, 61, 0
1, 17135, Note_on_c, 0, 80, 0
1, 17136, Note_on_c, 0, 81, 75
1, 17136, Note_on_c, 1, 66, 77
1, 17136, Note_on_c, 1, 62, 77
1, 17159, Note_on_c, 0, 81, 0
1, 17160, Note_on_c, 0, 80, 75
1, 17181, Note_on_c, 1, 66, 0
1, 17181, Note_on_c, 1, 62, 0
1, 17183, Note_on_c, 0, 80, 0
1, 17184, Note_on_c, 0, 81, 75
1, 17184, Note_on_c, 1, 67, 80
1, 17184, Note_on_c, 1, 64, 80
1, 17207, Note_on_c, 0, 81, 0
1, 17208, Note_on_c, 0, 80, 75
1, 17229, Note_on_c, 1, 67, 0
1, 17229, Note_on_c, 1, 64, 0
1, 17231, Note_on_c, 0, 80, 0
1, 17232, Note_on_c, 0, 81, 75
1, 17232, Note_on_c, 1, 66, 77
1, 17232, Note_on_c, 1, 62, 77
1, 17255, Note_on_c, 0, 81, 0
1, 17256, Note_on_c, 0, 80, 75
1, 17277, Note_on_c, 1, 66, 0
1, 17277, Note_on_c, 1, 62, 0
1, 17279, Note_on_c, 0, 80, 0
1, 17280, Note_on_c, 0, 81, 75
1, 17280, Note_on_c, 1, 64, 75
1, 17280, Note_on_c, 1, 61, 75
1, 17369, Note_on_c, 1, 64, 0
1, 17369, Note_on_c, 1, 61, 0
1, 17424, Tempo, 600000
1, 17424, Note_on_c, 0, 81, 0
1, 17424, Note_on_c, 0, 82, 75
1, 17472, Tempo, 428571
1, 17472, Note_on_c, 0, 82, 0
1, 17472, Note_on_c, 0, 83, 75
1, 17492, Note_on_c, 0, 83, 0
1, 17520, Note_on_c, 0, 80, 75
1, 17568, Note_on_c, 0, 80, 0
1, 17568, Note_on_c, 0, 81, 75
1, 17588, Note_on_c, 0, 81, 0
1, 17616, Note_on_c, 0, 78, 75
1, 17616, Note_on_c, 1, 70, 75
1, 17664, Note_on_c, 0, 78, 0
1, 17664, Note_on_c, 0, 79, 75
1, 17664, Note_on_c, 1, 70, 0
1, 17664, Note_on_c, 1, 71, 75
1, 17684, Note_on_c, 0, 79, 0
1, 17684, Note_on_c, 1, 71, 0
1, 17712, Note_on_c, 0, 77, 75
1, 17712, Note_on_c, 1, 68, 75
1, 17760, Note_on_c, 0, 77, 0
1, 17760, Note_on_c, 0, 78, 75
1, 17760, Note_on_c, 1, 68, 0
1, 17760, Note_on_c, 1, 69, 75
1, 17780, Note_on_c, 0, 78, 0
1, 17780, Note_on_c, 1, 69, 0
1, 17808, Note_on_c, 0, 75, 75
1, 17808, Note_on_c, 0, 69, 75
1, 17808, Note_on_c, 1, 66, 75
1, 17856, Note_on_c, 0, 75, 0
1, 17856, Note_on_c, 0, 69, 0
1, 17856, Note_on_c, 0, 76, 75
1, 17856, Note_on_c, 0, 71, 75
1, 17856, Note_on_c, 1, 66, 0
1, 17856, Note_on_c, 1, 67, 75
1, 17876, Note_on_c, 1, 67, 0
1, 17901, Note_on_c, 0, 76, 0
1, 17901, Note_on_c, 0, 71, 0
1, 17904, Note_on_c, 0, 73, 75
1, 17904, Note_on_c, 0, 67, 75
1, 17904, Note_on_c, 1, 64, 75
1, 17952, Note_on_c, 0, 73, 0
1, 17952, Note_on_c, 0, 67, 0
1, 17952, Note_on_c, 0, 74, 75
1, 17952, Note_on_c, 0, 69, 75
1, 17952, Note_on_c, 1, 64, 0
1, 17952, Note_on_c, 1, 66, 75
1, 17972, Note_on_c, 1, 66, 0
1, 17997, Note_on_c, 0, 74, 0
1, 17997, Note_on_c, 0, 69, 0
1, 18000, Note_on_c, 0, 79, 75
1, 18000, Note_on_c, 0, 76, 75
1, 18000, Note_on_c, 0, 71, 75
1, 18000, Note_on_c, 1, 55, 75
1, 18045, Note_on_c, 1, 55, 0
1, 18048, Note_on_c, 0, 79, 0
1, 18048, Note_on_c, 0, 76, 0
1, 18048, Note_on_c, 0, 71, 0
1, 18048, Note_on_c, 0, 78, 75
1, 18048, Note_on_c, 0, 74, 64
1, 18048, Note_on_c, 0, 69, 64
1, 18048, Note_on_c, 1, 57, 75
1, 18048, Note_on_c, 1, 57, 64
1, 18093, Note_on_c, 0, 78, 0
1, 18096, Note_on_c, 0, 81, 75
1, 18137, Note_on_c, 0, 74, 0
1, 18137, Note_on_c, 0, 69, 0
1, 18137, Note_on_c, 1, 57, 0
1, 18137, Note_on_c, 1, 57, 0
1, 18141, Note_on_c, 0, 81, 0
1, 18144, Note_on_c, 0, 73, 75
1, 18144, Note_on_c, 0, 67, 64
1, 18144, Note_on_c, 1, 64, 75
1, 18144, Note_on_c, 1, 57, 64
1, 18189, Note_on_c, 0, 73, 0
1, 18189, Note_on_c, 1, 64, 0
1, 18192, Note_on_c, 0, 76, 75
1, 18192, Note_on_c, 1, 61, 75
1, 18233, Note_on_c, 0, 67, 0
1, 18233, Note_on_c, 1, 57, 0
1, 18237, Note_on_c, 0, 76, 0
1, 18237, Note_on_c, 1, 61, 0
1, 18240, Note_on_c, 0, 74, 64
1, 18240, Note_on_c, 0, 66, 64
1, 18240, Note_on_c, 1, 62, 75
1, 18240, Note_on_c, 1, 50, 75
1, 18329, Note_on_c, 0, 74, 0
1, 18329, Note_on_c, 0, 66, 0
1, 18329, Note_on_c, 1, 62, 0
1, 18329, Note_on_c, 1, 50, 0
1, 18384, Note_on_c, 0, 86, 64
1, 18404, Note_on_c, 0, 86, 0
1, 18432, Note_on_c, 0, 86, 80
1, 18432, Note_on_c, 1, 67, 75
1, 18432, Note_on_c, 1, 64, 75
1, 18432, Note_on_c, 1, 57, 75
1, 18456, Note_on_c, 0, 86, 0
1, 18456, Note_on_c, 0, 85, 64
1, 18479, Note_on_c, 0, 85, 0
1, 18480, Note_on_c, 0, 83, 64
1, 18503, Note_on_c, 0, 83, 0
1, 18504, Note_on_c, 0, 81, 64
1, 18521, Note_on_c, 1, 67, 0
1, 18521, Note_on_c, 1, 64, 0
1, 18521, Note_on_c, 1, 57, 0
1, 18527, Note_on_c, 0, 81, 0
1, 18528, Note_on_c, 0, 80, 64
1, 18551, Note_on_c, 0, 80, 0
1, 18552, Note_on_c, 0, 81, 64
1, 18575, Note_on_c, 0, 81, 0
1, 18576, Note_on_c, 0, 83, 64
1, 18599, Note_on_c, 0, 83, 0
1, 18600, Note_on_c, 0, 85, 64
1, 18623, Note_on_c, 0, 85, 0
1, 18624, Note_on_c, 0, 86, 64
1, 18624, Note_on_c, 1, 66, 75
1, 18624, Note_on_c, 1, 62, 75
1, 18647, Note_on_c, 0, 86, 0
1, 18648, Note_on_c, 0, 85, 64
1, 18671, Note_on_c, 0, 85, 0
1, 18672, Note_on_c, 0, 83, 64
1, 18695, Note_on_c, 0, 83, 0
1, 18696, Note_on_c, 0, 81, 64
1, 18713, Note_on_c, 1, 66, 0
1, 18713, Note_on_c, 1, 62, 0
1, 18719, Note_on_c, 0, 81, 0
1, 18720, Note_on_c, 0, 79, 64
1, 18743, Note_on_c, 0, 79, 0
1, 18744, Note_on_c, 0, 78, 64
1, 18767, Note_on_c, 0, 78, 0
1, 18768, Note_on_c, 0, 76, 64
1, 18791, Note_on_c, 0, 76, 0
1, 18792, Note_on_c, 0, 74, 64
1, 18815, Note_on_c, 0, 74, 0
1, 18816, Note_on_c, 0, 74, 64
1, 18816, Note_on_c, 1, 67, 75
1, 18816, Note_on_c, 1, 64, 75
1, 18816, Note_on_c, 1, 57, 75
1, 18839, Note_on_c, 0, 74, 0
1, 18840, Note_on_c, 0, 73, 64
1, 18863, Note_on_c, 0, 73, 0
1, 18864, Note_on_c, 0, 71, 64
1, 18887, Note_on_c, 0, 71, 0
1, 18888, Note_on_c, 0, 69, 64
1, 18905, Note_on_c, 1, 67, 0
1, 18905, Note_on_c, 1, 64, 0
1, 18905, Note_on_c, 1, 57, 0
1, 18911, Note_on_c, 0, 69, 0
1, 18912, Note_on_c, 0, 68, 64
1, 18935, Note_on_c, 0, 68, 0
1, 18936, Note_on_c, 0, 69, 64
1, 18959, Note_on_c, 0, 69, 0
1, 18960, Note_on_c, 0, 71, 64
1, 18983, Note_on_c, 0, 71, 0
1, 18984, Note_on_c, 0, 73, 64
1, 19007, Note_on_c, 0, 73, 0
1, 19008, Note_on_c, 0, 74, 64
1, 19008, Note_on_c, 1, 66, 75
1, 19008, Note_on_c, 1, 62, 75
1, 19028, Note_on_c, 0, 74, 0
1, 19056, Note_on_c, 0, 78, 64
1, 19056, Note_on_c, 0, 74, 64
1, 19076, Note_on_c, 0, 78, 0
1, 19076, Note_on_c, 0, 74, 0
1, 19097, Note_on_c, 1, 66, 0
1, 19097, Note_on_c, 1, 62, 0
1, 19104, Note_on_c, 0, 81, 64
1, 19104, Note_on_c, 0, 78, 64
1, 19124, Note_on_c, 0, 81, 0
1, 19124, Note_on_c, 0, 78, 0
1, 19152, Note_on_c, 1, 62, 75
1, 19172, Note_on_c, 1, 62, 0
1, 19200, Note_on_c, 0, 79, 75
1, 19200, Note_on_c, 0, 76, 75
1, 19200, Note_on_c, 0, 69, 75
1, 19200, Note_on_c, 1, 62, 91
1, 19224, Note_on_c, 1, 62, 0
1, 19224, Note_on_c, 1, 61, 75
1, 19247, Note_on_c, 1, 61, 0
1, 19248, Note_on_c, 1, 59, 75
1, 19271, Note_on_c, 1, 59, 0
1, 19272, Note_on_c, 1, 57, 75
1, 19289, Note_on_c, 0, 79, 0
1, 19289, Note_on_c, 0, 76, 0
1, 19289, Note_on_c, 0, 69, 0
1, 19295, Note_on_c, 1, 57, 0
1, 19296, Note_on_c, 1, 56, 75
1, 19319, Note_on_c, 1, 56, 0
1, 19320, Note_on_c, 1, 57, 75
1, 19343, Note_on_c, 1, 57, 0
1, 19344, Note_on_c, 1, 59, 75
1, 19367, Note_on_c, 1, 59, 0
1, 19368, Note_on_c, 1, 61, 75
1, 19391, Note_on_c, 1, 61, 0
1, 19392, Note_on_c, 0, 78, 75
1, 19392, Note_on_c, 0, 74, 75
1, 19392, Note_on_c, 0, 69, 75
1, 19392, Note_on_c, 1, 62, 75
1, 19415, Note_on_c, 1, 62, 0
1, 19416, Note_on_c, 1, 61, 75
1, 19439, Note_on_c, 1, 61, 0
1, 19440, Note_on_c, 1, 59, 75
1, 19463, Note_on_c, 1, 59, 0
1, 19464, Note_on_c, 1, 57, 75
1, 19481, Note_on_c, 0, 78, 0
1, 19481, Note_on_c, 0, 74, 0
1, 19481, Note_on_c, 0, 69, 0
1, 19487, Note_on_c, 1, 57, 0
1, 19488, Note_on_c, 1, 55, 75
1, 19511, Note_on_c, 1, 55, 0
1, 19512, Note_on_c, 1, 54, 75
1, 19535, Note_on_c, 1, 54, 0
1, 19536, Note_on_c, 1, 52, 75
1, 19559, Note_on_c, 1, 52, 0
1, 19560, Note_on_c, 1, 50, 75
1, 19583, Note_on_c, 1, 50, 0
1, 19584, Note_on_c, 0, 79, 75
1, 19584, Note_on_c, 0, 76, 75
1, 19584, Note_on_c, 0, 69, 75
1, 19584, Note_on_c, 1, 50, 75
1, 19607, Note_on_c, 1, 50, 0
1, 19608, Note_on_c, 1, 49, 75
1, 19631, Note_on_c, 1, 49, 0
1, 19632, Note_on_c, 1, 47, 75
1, 19655, Note_on_c, 1, 47, 0
1, 19656, Note_on_c, 1, 45, 75
1, 19673, Note_on_c, 0, 79, 0
1, 19673, Note_on_c, 0, 76, 0
1, 19673, Note_on_c, 0, 69, 0
1, 19679, Note_on_c, 1, 45, 0
1, 19680, Note_on_c, 1, 44, 75
1, 19703, Note_on_c, 1, 44, 0
1, 19704, Note_on_c, 1, 45, 75
1, 19727, Note_on_c, 1, 45, 0
1, 19728, Note_on_c, 1, 47, 75
1, 19751, Note_on_c, 1, 47, 0
1, 19752, Note_on_c, 1, 49, 75
1, 19775, Note_on_c, 1, 49, 0
1, 19776, Note_on_c, 0, 78, 80
1, 19776, Note_on_c, 0, 74, 80
1, 19776, Note_on_c, 0, 69, 80
1, 19776, Note_on_c, 1, 50, 80
1, 19821, Note_on_c, 0, 78, 0
1, 19821, Note_on_c, 0, 74, 0
1, 19821, Note_on_c, 0, 69, 0
1, 19821, Note_on_c, 1, 50, 0
1, 19872, Note_on_c, 0, 86, 80
1, 19872, Note_on_c, 0, 78, 80
1, 19872, Note_on_c, 0, 74, 80
1, 19872, Note_on_c, 1, 47, 80
1, 19872, Note_on_c, 1, 35, 80
1, 19917, Note_on_c, 0, 86, 0
1, 19917, Note_on_c, 0, 78, 0
1, 19917, Note_on_c, 0, 74, 0
1, 19917, Note_on_c, 1, 47, 0
1, 19917, Note_on_c, 1, 35, 0
1, 19968, Note_on_c, 0, 83, 80
1, 19968, Note_on_c, 0, 79, 80
1, 19968, Note_on_c, 0, 71, 80
1, 19968, Note_on_c, 1, 43, 80
1, 19968, Note_on_c, 1, 31, 80
1, 20013, Note_on_c, 0, 83, 0
1, 20013, Note_on_c, 0, 79, 0
1, 20013, Note_on_c, 0, 71, 0
1, 20013, Note_on_c, 1, 43, 0
1, 20013, Note_on_c, 1, 31, 0
1, 20064, Note_on_c, 0, 73, 80
1, 20064, Note_on_c, 0, 67, 80
1, 20064, Note_on_c, 0, 64, 80
1, 20064, Note_on_c, 1, 45, 80
1, 20064, Note_on_c, 1, 33, 80
1, 20109, Note_on_c, 0, 73, 0
1, 20109, Note_on_c, 0, 67, 0
1, 20109, Note_on_c, 0, 64, 0
1, 20109, Note_on_c, 1, 45, 0
1, 20109, Note_on_c, 1, 33, 0
1, 20160, Note_on_c, 0, 74, 80
1, 20160, Note_on_c, 0, 66, 80
1, 20160, Note_on_c, 0, 62, 80
1, 20160, Note_on_c, 1, 50, 80
1, 20160, Note_on_c, 1, 38, 80
1, 20249, Note_on_c, 0, 74, 0
1, 20249, Note_on_c, 0, 66, 0
1, 20249, Note_on_c, 0, 62, 0
1, 20249, Note_on_c, 1, 50, 0
1, 20249, Note_on_c, 1, 38, 0
1, 20304, Note_on_c, 0, 74, 75
1, 20324, Note_on_c, 0, 74, 0
1, 20352, Note_on_c, 0, 74, 91
1, 20352, Note_on_c, 1, 67, 75
1, 20352, Note_on_c, 1, 64, 75
1, 20352, Note_on_c, 1, 57, 75
1, 20376, Note_on_c, 0, 74, 0
1, 20376, Note_on_c, 0, 73, 75
1, 20399, Note_on_c, 0, 73, 0
1, 20400, Note_on_c, 0, 71, 75
1, 20423, Note_on_c, 0, 71, 0
1, 20424, Note_on_c, 0, 69, 75
1, 20441, Note_on_c, 1, 67, 0
1, 20441, Note_on_c, 1, 64, 0
1, 20441, Note_on_c, 1, 57, 0
1, 20447, Note_on_c, 0, 69, 0
1, 20448, Note_on_c, 0, 68, 75
1, 20471, Note_on_c, 0, 68, 0
1, 20472, Note_on_c, 0, 69, 75
1, 20495, Note_on_c, 0, 69, 0
1, 20496, Note_on_c, 0, 71, 75
1, 20519, Note_on_c, 0, 71, 0
1, 20520, Note_on_c, 0, 73, 75
1, 20543, Note_on_c, 0, 73, 0
1, 20544, Note_on_c, 0, 74, 75
1, 20544, Note_on_c, 1, 66, 75
1, 20544, Note_on_c, 1, 62, 75
1, 20633, Note_on_c, 0, 74, 0
1, 20633, Note_on_c, 1, 66, 0
1, 20633, Note_on_c, 1, 62, 0
1, 20688, Note_on_c, 0, 62, 64
1, 20708, Note_on_c, 0, 62, 0
1, 20736, Note_on_c, 0, 61, 64
1, 20736, Note_on_c, 1, 55, 64
1, 20736, Note_on_c, 1, 45, 64
1, 20759, Note_on_c, 0, 61, 0
1, 20760, Note_on_c, 0, 62, 64
1, 20783, Note_on_c, 0, 62, 0
1, 20784, Note_on_c, 0, 64, 64
1, 20807, Note_on_c, 0, 64, 0
1, 20808, Note_on_c, 0, 66, 64
1, 20825, Note_on_c, 1, 55, 0
1, 20825, Note_on_c, 1, 45, 0
1, 20831, Note_on_c, 0, 66, 0
1, 20832, Note_on_c, 0, 69, 64
1, 20855, Note_on_c, 0, 69, 0
1, 20856, Note_on_c, 0, 67, 64
1, 20879, Note_on_c, 0, 67, 0
1, 20880, Note_on_c, 0, 66, 64
1, 20903, Note_on_c, 0, 66, 0
1, 20904, Note_on_c, 0, 64, 64
1, 20927, Note_on_c, 0, 64, 0
1, 20928, Note_on_c, 0, 62, 64
1, 20928, Note_on_c, 1, 54, 64
1, 20928, Note_on_c, 1, 50, 64
1, 21017, Note_on_c, 0, 62, 0
1, 21017, Note_on_c, 1, 54, 0
1, 21017, Note_on_c, 1, 50, 0
1, 21072, Note_on_c, 0, 81, 75
1, 21120, Note_on_c, 0, 81, 0
1, 21120, Note_on_c, 0, 83, 75
1, 21140, Note_on_c, 0, 83, 0
1, 21168, Note_on_c, 0, 80, 75
1, 21216, Note_on_c, 0, 80, 0
1, 21216, Note_on_c, 0, 81, 75
1, 21236, Note_on_c, 0, 81, 0
1, 21264, Note_on_c, 0, 78, 75
1, 21264, Note_on_c, 0, 74, 75
1, 21312, Note_on_c, 0, 78, 0
1, 21312, Note_on_c, 0, 74, 0
1, 21312, Note_on_c, 0, 79, 75
1, 21312, Note_on_c, 0, 76, 75
1, 21332, Note_on_c, 0, 79, 0
1, 21332, Note_on_c, 0, 76, 0
1, 21360, Note_on_c, 0, 76, 75
1, 21360, Note_on_c, 0, 73, 75
1, 21408, Note_on_c, 0, 76, 0
1, 21408, Note_on_c, 0, 73, 0
1, 21408, Note_on_c, 0, 78, 75
1, 21408, Note_on_c, 0, 74, 75
1, 21428, Note_on_c, 0, 78, 0
1, 21428, Note_on_c, 0, 74, 0
1, 21456, Note_on_c, 0, 76, 75
1, 21456, Note_on_c, 0, 73, 75
1, 21456, Note_on_c, 1, 66, 75
1, 21504, Note_on_c, 0, 76, 0
1, 21504, Note_on_c, 0, 74, 75
1, 21504, Note_on_c, 1, 66, 0
1, 21504, Note_on_c, 1, 67, 75
1, 21524, Note_on_c, 1, 67, 0
1, 21549, Note_on_c, 0, 74, 0
1, 21549, Note_on_c, 0, 73, 0
1, 21552, Note_on_c, 0, 79, 75
1, 21552, Note_on_c, 0, 71, 64
1, 21552, Note_on_c, 1, 64, 75
1, 21597, Note_on_c, 0, 79, 0
1, 21600, Note_on_c, 0, 73, 75
1, 21600, Note_on_c, 1, 64, 0
1, 21600, Note_on_c, 1, 66, 75
1, 21620, Note_on_c, 1, 66, 0
1, 21641, Note_on_c, 0, 71, 0
1, 21645, Note_on_c, 0, 73, 0
1, 21648, Note_on_c, 0, 78, 75
1, 21648, Note_on_c, 0, 69, 64
1, 21648, Note_on_c, 1, 63, 75
1, 21693, Note_on_c, 0, 78, 0
1, 21696, Note_on_c, 0, 71, 75
1, 21696, Note_on_c, 1, 63, 0
1, 21696, Note_on_c, 1, 64, 75
1, 21716, Note_on_c, 1, 64, 0
1, 21741, Note_on_c, 0, 69, 0
1, 21744, Note_on_c, 0, 71, 0
1, 21744, Note_on_c, 0, 76, 75
1, 21744, Note_on_c, 0, 67, 64
1, 21744, Note_on_c, 1, 61, 75
1, 21789, Note_on_c, 0, 76, 0
1, 21792, Note_on_c, 0, 69, 75
1, 21792, Note_on_c, 1, 61, 0
1, 21792, Note_on_c, 1, 62, 75
1, 21812, Note_on_c, 1, 62, 0
1, 21833, Note_on_c, 0, 67, 0
1, 21840, Note_on_c, 0, 69, 0
1, 21840, Note_on_c, 0, 74, 75
1, 21840, Note_on_c, 0, 66, 64
1, 21840, Note_on_c, 1, 59, 75
1, 21885, Note_on_c, 0, 74, 0
1, 21885, Note_on_c, 0, 66, 0
1, 21888, Note_on_c, 0, 74, 91
1, 21888, Note_on_c, 0, 64, 91
1, 21888, Note_on_c, 1, 59, 0
1, 21888, Note_on_c, 1, 57, 75
1, 21911, Note_on_c, 1, 57, 0
1, 21912, Note_on_c, 1, 56, 75
1, 21935, Note_on_c, 1, 56, 0
1, 21936, Note_on_c, 1, 54, 75
1, 21959, Note_on_c, 1, 54, 0
1, 21960, Note_on_c, 1, 52, 75
1, 21983, Note_on_c, 1, 52, 0
1, 21984, Note_on_c, 0, 74, 0
1, 21984, Note_on_c, 0, 64, 0
1, 21984, Note_on_c, 1, 51, 75
1, 22007, Note_on_c, 1, 51, 0
1, 22008, Note_on_c, 1, 52, 75
1, 22031, Note_on_c, 1, 52, 0
1, 22032, Note_on_c, 0, 74, 75
1, 22032, Note_on_c, 1, 54, 75
1, 22052, Note_on_c, 0, 74, 0
1, 22055, Note_on_c, 1, 54, 0
1, 22056, Note_on_c, 1, 56, 75
1, 22079, Note_on_c, 1, 56, 0
1, 22080, Note_on_c, 0, 74, 91
1, 22080, Note_on_c, 1, 57, 75
1, 22104, Note_on_c, 0, 74, 0
1, 22104, Note_on_c, 0, 73, 75
1, 22127, Note_on_c, 0, 73, 0
1, 22128, Note_on_c, 0, 71, 75
1, 22151, Note_on_c, 0, 71, 0
1, 22152, Note_on_c, 0, 69, 75
1, 22169, Note_on_c, 1, 57, 0
1, 22175, Note_on_c, 0, 69, 0
1, 22176, Note_on_c, 0, 68, 75
1, 22199, Note_on_c, 0, 68, 0
1, 22200, Note_on_c, 0, 69, 75
1, 22223, Note_on_c, 0, 69, 0
1, 22224, Note_on_c, 0, 71, 75
1, 22224, Note_on_c, 1, 57, 75
1, 22244, Note_on_c, 1, 57, 0
1, 22247, Note_on_c, 0, 71, 0
1, 22248, Note_on_c, 0, 73, 75
1, 22271, Note_on_c, 0, 73, 0
1, 22272, Note_on_c, 0, 74, 75
1, 22272, Note_on_c, 1, 57, 91
1, 22296, Note_on_c, 1, 57, 0
1, 22296, Note_on_c, 1, 56, 75
1, 22319, Note_on_c, 1, 56, 0
1, 22320, Note_on_c, 1, 54, 75
1, 22343, Note_on_c, 1, 54, 0
1, 22344, Note_on_c, 1, 52, 75
1, 22361, Note_on_c, 0, 74, 0
1, 22367, Note_on_c, 1, 52, 0
1, 22368, Note_on_c, 1, 51, 75
1, 22391, Note_on_c, 1, 51, 0
1, 22392, Note_on_c, 1, 52, 75
1, 22415, Note_on_c, 1, 52, 0
1, 22416, Note_on_c, 0, 74, 75
1, 22416, Note_on_c, 1, 54, 75
1, 22436, Note_on_c, 0, 74, 0
1, 22439, Note_on_c, 1, 54, 0
1, 22440, Note_on_c, 1, 56, 75
1, 22463, Note_on_c, 1, 56, 0
1, 22464, Note_on_c, 0, 74, 91
1, 22464, Note_on_c, 1, 57, 75
1, 22488, Note_on_c, 0, 74, 0
1, 22488, Note_on_c, 0, 73, 75
1, 22511, Note_on_c, 0, 73, 0
1, 22512, Note_on_c, 0, 71, 75
1, 22535, Note_on_c, 0, 71, 0
1, 22536, Note_on_c, 0, 69, 75
1, 22553, Note_on_c, 1, 57, 0
1, 22559, Note_on_c, 0, 69, 0
1, 22560, Note_on_c, 0, 68, 75
1, 22583, Note_on_c, 0, 68, 0
1, 22584, Note_on_c, 0, 69, 75
1, 22607, Note_on_c, 0, 69, 0
1, 22608, Note_on_c, 0, 71, 75
1, 22608, Note_on_c, 1, 67, 75
1, 22628, Note_on_c, 1, 67, 0
1, 22631, Note_on_c, 0, 71, 0
1, 22632, Note_on_c, 0, 73, 75
1, 22655, Note_on_c, 0, 73, 0
1, 22656, Note_on_c, 0, 74, 75
1, 22656, Note_on_c, 1, 67, 91
1, 22680, Note_on_c, 1, 67, 0
1, 22680, Note_on_c, 1, 66, 75
1, 22703, Note_on_c, 1, 66, 0
1, 22704, Note_on_c, 1, 64, 75
1, 22727, Note_on_c, 1, 64, 0
1, 22728, Note_on_c, 1, 62, 75
1, 22745, Note_on_c, 0, 74, 0
1, 22751, Note_on_c, 1, 62, 0
1, 22752, Note_on_c, 1, 61, 75
1, 22775, Note_on_c, 1, 61, 0
1, 22776, Note_on_c, 1, 62, 75
1, 22799, Note_on_c, 1, 62, 0
1, 22800, Note_on_c, 0, 81, 75
1, 22800, Note_on_c, 1, 64, 75
1, 22820, Note_on_c, 0, 81, 0
1, 22823, Note_on_c, 1, 64, 0
1, 22824, Note_on_c, 1, 66, 75
1, 22847, Note_on_c, 1, 66, 0
1, 22848, Note_on_c, 0, 81, 91
1, 22848, Note_on_c, 1, 67, 75
1, 22872, Note_on_c, 0, 81, 0
1, 22872, Note_on_c, 0, 71, 75
1, 22895, Note_on_c, 0, 71, 0
1, 22896, Note_on_c, 0, 73, 75
1, 22919, Note_on_c, 0, 73, 0
1, 22920, Note_on_c, 0, 71, 75
1, 22937, Note_on_c, 1, 67, 0
1, 22943, Note_on_c, 0, 71, 0
1, 22944, Note_on_c, 0, 79, 75
1, 22944, Note_on_c, 1, 64, 75
1, 22967, Note_on_c, 0, 79, 0
1, 22968, Note_on_c, 0, 78, 75
1, 22991, Note_on_c, 0, 78, 0
1, 22992, Note_on_c, 0, 76, 75
1, 23015, Note_on_c, 0, 76, 0
1, 23016, Note_on_c, 0, 74, 75
1, 23033, Note_on_c, 1, 64, 0
1, 23039, Note_on_c, 0, 74, 0
1, 23040, Note_on_c, 0, 73, 75
1, 23040, Note_on_c, 1, 69, 75
1, 23063, Note_on_c, 1, 69, 0
1, 23064, Note_on_c, 1, 67, 75
1, 23087, Note_on_c, 1, 67, 0
1, 23088, Note_on_c, 1, 66, 75
1, 23111, Note_on_c, 1, 66, 0
1, 23112, Note_on_c, 1, 64, 75
1, 23129, Note_on_c, 0, 73, 0
1, 23135, Note_on_c, 1, 64, 0
1, 23136, Note_on_c, 0, 81, 75
1, 23136, Note_on_c, 0, 78, 75
1, 23136, Note_on_c, 1, 62, 75
1, 23159, Note_on_c, 0, 81, 0
1, 23159, Note_on_c, 0, 78, 0
1, 23160, Note_on_c, 0, 79, 75
1, 23160, Note_on_c, 0, 76, 75
1, 23183, Note_on_c, 0, 79, 0
1, 23183, Note_on_c, 0, 76, 0
1, 23184, Note_on_c, 0, 78, 75
1, 23184, Note_on_c, 0, 74, 75
1, 23207, Note_on_c, 0, 78, 0
1, 23207, Note_on_c, 0, 74, 0
1, 23208, Note_on_c, 0, 76, 75
1, 23208, Note_on_c, 0, 73, 75
1, 23225, Note_on_c, 1, 62, 0
1, 23231, Note_on_c, 0, 76, 0
1, 23231, Note_on_c, 0, 73, 0
1, 23232, Note_on_c, 0, 74, 75
1, 23232, Note_on_c, 1, 71, 75
1, 23255, Note_on_c, 1, 71, 0
1, 23256, Note_on_c, 1, 69, 75
1, 23279, Note_on_c, 1, 69, 0
1, 23280, Note_on_c, 1, 67, 75
1, 23303, Note_on_c, 1, 67, 0
1, 23304, Note_on_c, 1, 66, 75
1, 23321, Note_on_c, 0, 74, 0
1, 23327, Note_on_c, 1, 66, 0
1, 23328, Note_on_c, 0, 83, 75
1, 23328, Note_on_c, 0, 79, 75
1, 23328, Note_on_c, 1, 64, 75
1, 23351, Note_on_c, 0, 83, 0
1, 23351, Note_on_c, 0, 79, 0
1, 23352, Note_on_c, 0, 81, 75
1, 23352, Note_on_c, 0, 78, 75
1, 23375, Note_on_c, 0, 81, 0
1, 23375, Note_on_c, 0, 78, 0
1, 23376, Note_on_c, 0, 79, 75
1, 23376, Note_on_c, 0, 76, 75
1, 23399, Note_on_c, 0, 79, 0
1, 23399, Note_on_c, 0, 76, 0
1, 23400, Note_on_c, 0, 78, 75
1, 23400, Note_on_c, 0, 74, 75
1, 23417, Note_on_c, 1, 64, 0
1, 23423, Note_on_c, 0, 78, 0
1, 23423, Note_on_c, 0, 74, 0
1, 23424, Note_on_c, 0, 76, 75
1, 23424, Note_on_c, 0, 73, 75
1, 23424, Note_on_c, 1, 69, 75
1, 23469, Note_on_c, 0, 76, 0
1, 23469, Note_on_c, 0, 73, 0
1, 23469, Note_on_c, 1, 69, 0
1, 23472, Note_on_c, 0, 78, 75
1, 23472, Note_on_c, 0, 74, 75
1, 23472, Note_on_c, 1, 69, 75
1, 23517, Note_on_c, 0, 78, 0
1, 23517, Note_on_c, 0, 74, 0
1, 23517, Note_on_c, 1, 69, 0
1, 23520, Note_on_c, 0, 79, 75
1, 23520, Note_on_c, 0, 76, 75
1, 23520, Note_on_c, 1, 69, 75
1, 23565, Note_on_c, 0, 79, 0
1, 23565, Note_on_c, 0, 76, 0
1, 23565, Note_on_c, 1, 69, 0
1, 23568, Note_on_c, 0, 78, 75
1, 23568, Note_on_c, 0, 74, 75
1, 23568, Note_on_c, 1, 69, 75
1, 23613, Note_on_c, 0, 78, 0
1, 23613, Note_on_c, 0, 74, 0
1, 23613, Note_on_c, 1, 69, 0
1, 23616, Note_on_c, 0, 76, 75
1, 23616, Note_on_c, 0, 73, 75
1, 23616, Note_on_c, 1, 69, 75
1, 23661, Note_on_c, 0, 76, 0
1, 23661, Note_on_c, 0, 73, 0
1, 23661, Note_on_c, 1, 69, 0
1, 23664, Note_on_c, 0, 83, 75
1, 23664, Note_on_c, 1, 73, 75
1, 23664, Note_on_c, 1, 69, 64
1, 23676, Note_on_c, 0, 83, 0
1, 23676, Note_on_c, 0, 81, 75
1, 23688, Note_on_c, 0, 81, 0
1, 23688, Note_on_c, 0, 80, 75
1, 23700, Note_on_c, 0, 80, 0
1, 23700, Note_on_c, 0, 81, 75
1, 23709, Note_on_c, 1, 73, 0
1, 23712, Note_on_c, 0, 81, 0
1, 23712, Note_on_c, 0, 83, 75
1, 23712, Note_on_c, 1, 74, 75
1, 23757, Note_on_c, 0, 83, 0
1, 23757, Note_on_c, 1, 74, 0
1, 23760, Note_on_c, 0, 80, 75
1, 23760, Note_on_c, 1, 71, 75
1, 23805, Note_on_c, 0, 80, 0
1, 23805, Note_on_c, 1, 71, 0
1, 23808, Note_on_c, 0, 81, 75
1, 23808, Note_on_c, 1, 73, 75
1, 23828, Note_on_c, 0, 81, 0
1, 23853, Note_on_c, 1, 73, 0
1, 23853, Note_on_c, 1, 69, 0
1, 23856, Note_on_c, 0, 86, 75
1, 23856, Note_on_c, 1, 76, 75
1, 23856, Note_on_c, 1, 69, 64
1, 23868, Note_on_c, 0, 86, 0
1, 23868, Note_on_c, 0, 85, 75
1, 23880, Note_on_c, 0, 85, 0
1, 23880, Note_on_c, 0, 83, 75
1, 23892, Note_on_c, 0, 83, 0
1, 23892, Note_on_c, 0, 85, 75
1, 23901, Note_on_c, 1, 76, 0
1, 23904, Note_on_c, 0, 85, 0
1, 23904, Note_on_c, 0, 86, 75
1, 23904, Note_on_c, 1, 78, 75
1, 23949, Note_on_c, 0, 86, 0
1, 23949, Note_on_c, 1, 78, 0
1, 23952, Note_on_c, 0, 83, 75
1, 23952, Note_on_c, 1, 74, 75
1, 23997, Note_on_c, 0, 83, 0
1, 23997, Note_on_c, 1, 74, 0
1, 24000, Note_on_c, 0, 81, 75
1, 24000, Note_on_c, 1, 73, 75
1, 24045, Note_on_c, 0, 81, 0
1, 24045, Note_on_c, 1, 73, 0
1, 24045, Note_on_c, 1, 69, 0
1, 24096, Note_on_c, 0, 81, 73
1, 24096, Note_on_c, 1, 73, 73
1, 24096, Note_on_c, 1, 69, 73
1, 24141, Note_on_c, 0, 81, 0
1, 24141, Note_on_c, 1, 73, 0
1, 24141, Note_on_c, 1, 69, 0
1, 24192, Note_on_c, 0, 81, 71
1, 24192, Note_on_c, 1, 73, 71
1, 24192, Note_on_c, 1, 69, 71
1, 24281, Note_on_c, 0, 81, 0
1, 24281, Note_on_c, 1, 73, 0
1, 24281, Note_on_c, 1, 69, 0
1, 24336, Note_on_c, 1, 57, 70
1, 24336, Note_on_c, 1, 54, 70
1, 24384, Note_on_c, 1, 57, 0
1, 24384, Note_on_c, 1, 54, 0
1, 24384, Note_on_c, 1, 59, 70
1, 24384, Note_on_c, 1, 55, 70
1, 24429, Note_on_c, 1, 59, 0
1, 24429, Note_on_c, 1, 55, 0
1, 24432, Note_on_c, 1, 55, 70
1, 24432, Note_on_c, 1, 52, 70
1, 24480, Note_on_c, 1, 55, 0
1, 24480, Note_on_c, 1, 52, 0
1, 24480, Note_on_c, 1, 57, 70
1, 24480, Note_on_c, 1, 54, 70
1, 24525, Note_on_c, 1, 57, 0
1, 24525, Note_on_c, 1, 54, 0
1, 24528, Note_on_c, 0, 71, 70
1, 24528, Note_on_c, 1, 54, 70
1, 24528, Note_on_c, 1, 51, 70
1, 24576, Note_on_c, 0, 71, 0
1, 24576, Note_on_c, 0, 72, 70
1, 24576, Note_on_c, 1, 54, 0
1, 24576, Note_on_c, 1, 51, 0
1, 24576, Note_on_c, 1, 55, 70
1, 24576, Note_on_c, 1, 52, 70
1, 24596, Note_on_c, 0, 72, 0
1, 24621, Note_on_c, 1, 55, 0
1, 24621, Note_on_c, 1, 52, 0
1, 24624, Note_on_c, 0, 70, 70
1, 24624, Note_on_c, 1, 52, 70
1, 24624, Note_on_c, 1, 49, 70
1, 24672, Note_on_c, 0, 70, 0
1, 24672, Note_on_c, 0, 71, 70
1, 24672, Note_on_c, 1, 52, 0
1, 24672, Note_on_c, 1, 49, 0
1, 24672, Note_on_c, 1, 54, 70
1, 24672, Note_on_c, 1, 51, 70
1, 24692, Note_on_c, 0, 71, 0
1, 24720, Note_on_c, 0, 69, 70
1, 24720, Note_on_c, 1, 54, 0
1, 24720, Note_on_c, 1, 59, 70
1, 24765, Note_on_c, 1, 59, 0
1, 24765, Note_on_c, 1, 51, 0
1, 24768, Note_on_c, 1, 59, 70
1, 24768, Note_on_c, 1, 52, 70
1, 24792, Note_on_c, 0, 69, 0
1, 24792, Note_on_c, 0, 68, 70
1, 24815, Note_on_c, 0, 68, 0
1, 24816, Note_on_c, 0, 66, 70
1, 24839, Note_on_c, 0, 66, 0
1, 24840, Note_on_c, 0, 64, 70
1, 24857, Note_on_c, 1, 59, 0
1, 24857, Note_on_c, 1, 52, 0
1, 24863, Note_on_c, 0, 64, 0
1, 24864, Note_on_c, 0, 63, 70
1, 24887, Note_on_c, 0, 63, 0
1, 24888, Note_on_c, 0, 64, 70
1, 24911, Note_on_c, 0, 64, 0
1, 24912, Note_on_c, 0, 66, 70
1, 24912, Note_on_c, 1, 50, 70
1, 24932, Note_on_c, 1, 50, 0
1, 24935, Note_on_c, 0, 66, 0
1, 24936, Note_on_c, 0, 68, 70
1, 24959, Note_on_c, 0, 68, 0
1, 24960, Note_on_c, 0, 69, 70
1, 24960, Note_on_c, 1, 50, 86
1, 24984, Note_on_c, 1, 50, 0
1, 24984, Note_on_c, 1, 49, 70
1, 25007, Note_on_c, 1, 49, 0
1, 25008, Note_on_c, 1, 47, 70
1, 25031, Note_on_c, 1, 47, 0
1, 25032, Note_on_c, 1, 45, 70
1, 25049, Note_on_c, 0, 69, 0
1, 25055, Note_on_c, 1, 45, 0
1, 25056, Note_on_c, 1, 44, 70
1, 25079, Note_on_c, 1, 44, 0
1, 25080, Note_on_c, 1, 45, 70
1, 25103, Note_on_c, 1, 45, 0
1, 25104, Note_on_c, 0, 67, 70
1, 25104, Note_on_c, 1, 47, 70
1, 25124, Note_on_c, 0, 67, 0
1, 25127, Note_on_c, 1, 47, 0
1, 25128, Note_on_c, 1, 49, 70
1, 25151, Note_on_c, 1, 49, 0
1, 25152, Note_on_c, 0, 67, 86
1, 25152, Note_on_c, 1, 50, 70
1, 25176, Note_on_c, 0, 67, 0
1, 25176, Note_on_c, 0, 66, 70
1, 25199, Note_on_c, 0, 66, 0
1, 25200, Note_on_c, 0, 64, 70
1, 25223, Note_on_c, 0, 64, 0
1, 25224, Note_on_c, 0, 62, 70
1, 25241, Note_on_c, 1, 50, 0
1, 25247, Note_on_c, 0, 62, 0
1, 25248, Note_on_c, 0, 61, 70
1, 25271, Note_on_c, 0, 61, 0
1, 25272, Note_on_c, 0, 62, 70
1, 25295, Note_on_c, 0, 62, 0
1, 25296, Note_on_c, 0, 64, 70
1, 25296, Note_on_c, 1, 60, 70
1, 25316, Note_on_c, 1, 60, 0
1, 25319, Note_on_c, 0, 64, 0
1, 25320, Note_on_c, 0, 66, 70
1, 25343, Note_on_c, 0, 66, 0
1, 25344, Note_on_c, 0, 67, 70
1, 25344, Note_on_c, 1, 60, 86
1, 25368, Note_on_c, 1, 60, 0
1, 25368, Note_on_c, 1, 59, 70
1, 25391, Note_on_c, 1, 59, 0
1, 25392, Note_on_c, 1, 57, 70
1, 25415, Note_on_c, 1, 57, 0
1, 25416, Note_on_c, 1, 55, 70
1, 25433, Note_on_c, 0, 67, 0
1, 25439, Note_on_c, 1, 55, 0
1, 25440, Note_on_c, 1, 54, 70
1, 25463, Note_on_c, 1, 54, 0
1, 25464, Note_on_c, 1, 55, 70
1, 25487, Note_on_c, 1, 55, 0
1, 25488, Note_on_c, 0, 79, 70
1, 25488, Note_on_c, 1, 57, 70
1, 25508, Note_on_c, 0, 79, 0
1, 25511, Note_on_c, 1, 57, 0
1, 25512, Note_on_c, 1, 59, 70
1, 25535, Note_on_c, 1, 59, 0
1, 25536, Note_on_c, 0, 79, 86
1, 25536, Note_on_c, 1, 60, 70
1, 25560, Note_on_c, 0, 79, 0
1, 25560, Note_on_c, 0, 78, 70
1, 25583, Note_on_c, 0, 78, 0
1, 25584, Note_on_c, 0, 76, 70
1, 25607, Note_on_c, 0, 76, 0
1, 25608, Note_on_c, 0, 74, 70
1, 25625, Note_on_c, 1, 60, 0
1, 25631, Note_on_c, 0, 74, 0
1, 25632, Note_on_c, 0, 73, 70
1, 25655, Note_on_c, 0, 73, 0
1, 25656, Note_on_c, 0, 74, 70
1, 25679, Note_on_c, 0, 74, 0
1, 25680, Note_on_c, 0, 76, 70
1, 25680, Note_on_c, 1, 72, 70
1, 25700, Note_on_c, 1, 72, 0
1, 25703, Note_on_c, 0, 76, 0
1, 25704, Note_on_c, 0, 78, 70
1, 25727, Note_on_c, 0, 78, 0
1, 25728, Note_on_c, 0, 79, 70
1, 25728, Note_on_c, 1, 71, 70
1, 25751, Note_on_c, 0, 79, 0
1, 25752, Note_on_c, 0, 74, 71
1, 25773, Note_on_c, 1, 71, 0
1, 25775, Note_on_c, 0, 74, 0
1, 25776, Note_on_c, 0, 81, 73
1, 25776, Note_on_c, 1, 69, 70
1, 25799, Note_on_c, 0, 81, 0
1, 25800, Note_on_c, 0, 74, 75
1, 25821, Note_on_c, 1, 69, 0
1, 25823, Note_on_c, 0, 74, 0
1, 25824, Note_on_c, 0, 83, 74
1, 25824, Note_on_c, 1, 67, 70
1, 25847, Note_on_c, 0, 83, 0
1, 25848, Note_on_c, 0, 74, 73
1, 25869, Note_on_c, 1, 67, 0
1, 25871, Note_on_c, 0, 74, 0
1, 25872, Note_on_c, 0, 81, 72
1, 25872, Note_on_c, 1, 66, 70
1, 25895, Note_on_c, 0, 81, 0
1, 25896, Note_on_c, 0, 74, 71
1, 25917, Note_on_c, 1, 66, 0
1, 25919, Note_on_c, 0, 74, 0
1, 25920, Note_on_c, 0, 81, 70
1, 25920, Note_on_c, 1, 64, 70
1, 25943, Note_on_c, 0, 81, 0
1, 25944, Note_on_c, 0, 80, 70
1, 25967, Note_on_c, 0, 80, 0
1, 25968, Note_on_c, 0, 78, 70
1, 25991, Note_on_c, 0, 78, 0
1, 25992, Note_on_c, 0, 76, 70
1, 26009, Note_on_c, 1, 64, 0
1, 26015, Note_on_c, 0, 76, 0
1, 26016, Note_on_c, 0, 75, 70
1, 26039, Note_on_c, 0, 75, 0
1, 26040, Note_on_c, 0, 76, 70
1, 26063, Note_on_c, 0, 76, 0
1, 26064, Note_on_c, 0, 78, 70
1, 26064, Note_on_c, 1, 74, 70
1, 26084, Note_on_c, 1, 74, 0
1, 26087, Note_on_c, 0, 78, 0
1, 26088, Note_on_c, 0, 80, 70
1, 26111, Note_on_c, 0, 80, 0
1, 26112, Note_on_c, 0, 81, 70
1, 26112, Note_on_c, 1, 72, 70
1, 26135, Note_on_c, 0, 81, 0
1, 26136, Note_on_c, 0, 76, 71
1, 26157, Note_on_c, 1, 72, 0
1, 26159, Note_on_c, 0, 76, 0
1, 26160, Note_on_c, 0, 83, 73
1, 26160, Note_on_c, 1, 71, 70
1, 26183, Note_on_c, 0, 83, 0
1, 26184, Note_on_c, 0, 76, 75
1, 26205, Note_on_c, 1, 71, 0
1, 26207, Note_on_c, 0, 76, 0
1, 26208, Note_on_c, 0, 84, 74
1, 26208, Note_on_c, 1, 69, 70
1, 26231, Note_on_c, 0, 84, 0
1, 26232, Note_on_c, 0, 76, 73
1, 26253, Note_on_c, 1, 69, 0
1, 26255, Note_on_c, 0, 76, 0
1, 26256, Note_on_c, 0, 83, 72
1, 26256, Note_on_c, 1, 67, 70
1, 26279, Note_on_c, 0, 83, 0
1, 26280, Note_on_c, 0, 76, 71
1, 26301, Note_on_c, 1, 67, 0
1, 26303, Note_on_c, 0, 76, 0
1, 26304, Note_on_c, 0, 83, 70
1, 26304, Note_on_c, 1, 66, 70
1, 26327, Note_on_c, 0, 83, 0
1, 26328, Note_on_c, 0, 82, 70
1, 26351, Note_on_c, 0, 82, 0
1, 26352, Note_on_c, 0, 80, 70
1, 26375, Note_on_c, 0, 80, 0
1, 26376, Note_on_c, 0, 78, 70
1, 26393, Note_on_c, 1, 66, 0
1, 26399, Note_on_c, 0, 78, 0
1, 26400, Note_on_c, 0, 77, 70
1, 26423, Note_on_c, 0, 77, 0
1, 26424, Note_on_c, 0, 78, 70
1, 26447, Note_on_c, 0, 78, 0
1, 26448, Note_on_c, 0, 80, 70
1, 26448, Note_on_c, 1, 64, 70
1, 26468, Note_on_c, 1, 64, 0
1, 26471, Note_on_c, 0, 80, 0
1, 26472, Note_on_c, 0, 82, 70
1, 26495, Note_on_c, 0, 82, 0
1, 26496, Note_on_c, 0, 83, 70
1, 26496, Note_on_c, 1, 64, 86
1, 26520, Note_on_c, 1, 64, 0
1, 26520, Note_on_c, 1, 63, 70
1, 26543, Note_on_c, 1, 63, 0
1, 26544, Note_on_c, 1, 61, 70
1, 26567, Note_on_c, 1, 61, 0
1, 26568, Note_on_c, 1, 59, 70
1, 26585, Note_on_c, 0, 83, 0
1, 26591, Note_on_c, 1, 59, 0
1, 26592, Note_on_c, 1, 58, 70
1, 26615, Note_on_c, 1, 58, 0
1, 26616, Note_on_c, 1, 59, 70
1, 26639, Note_on_c, 1, 59, 0
1, 26640, Note_on_c, 0, 81, 70
1, 26640, Note_on_c, 1, 61, 70
1, 26660, Note_on_c, 0, 81, 0
1, 26663, Note_on_c, 1, 61, 0
1, 26664, Note_on_c, 1, 63, 70
1, 26687, Note_on_c, 1, 63, 0
1, 26688, Note_on_c, 0, 81, 86
1, 26688, Note_on_c, 1, 64, 70
1, 26712, Note_on_c, 0, 81, 0
1, 26712, Note_on_c, 0, 80, 70
1, 26735, Note_on_c, 0, 80, 0
1, 26736, Note_on_c, 0, 78, 70
1, 26759, Note_on_c, 0, 78, 0
1, 26760, Note_on_c, 0, 76, 70
1, 26777, Note_on_c, 1, 64, 0
1, 26783, Note_on_c, 0, 76, 0
1, 26784, Note_on_c, 0, 75, 70
1, 26807, Note_on_c, 0, 75, 0
1, 26808, Note_on_c, 0, 76, 70
1, 26831, Note_on_c, 0, 76, 0
1, 26832, Note_on_c, 0, 78, 70
1, 26832, Note_on_c, 1, 62, 70
1, 26852, Note_on_c, 1, 62, 0
1, 26855, Note_on_c, 0, 78, 0
1, 26856, Note_on_c, 0, 80, 70
1, 26879, Note_on_c, 0, 80, 0
1, 26880, Note_on_c, 0, 81, 70
1, 26880, Note_on_c, 1, 62, 86
1, 26904, Note_on_c, 1, 62, 0
1, 26904, Note_on_c, 1, 61, 70
1, 26927, Note_on_c, 1, 61, 0
1, 26928, Note_on_c, 1, 59, 70
1, 26951, Note_on_c, 1, 59, 0
1, 26952, Note_on_c, 1, 57, 70
1, 26969, Note_on_c, 0, 81, 0
1, 26975, Note_on_c, 1, 57, 0
1, 26976, Note_on_c, 1, 56, 70
1, 26999, Note_on_c, 1, 56, 0
1, 27000, Note_on_c, 1, 57, 70
1, 27023, Note_on_c, 1, 57, 0
1, 27024, Note_on_c, 0, 79, 70
1, 27024, Note_on_c, 1, 59, 70
1, 27044, Note_on_c, 0, 79, 0
1, 27047, Note_on_c, 1, 59, 0
1, 27048, Note_on_c, 1, 61, 70
1, 27071, Note_on_c, 1, 61, 0
1, 27072, Note_on_c, 0, 79, 86
1, 27072, Note_on_c, 1, 62, 70
1, 27096, Note_on_c, 0, 79, 0
1, 27096, Note_on_c, 0, 78, 70
1, 27117, Note_on_c, 1, 62, 0
1, 27119, Note_on_c, 0, 78, 0
1, 27120, Note_on_c, 0, 76, 70
1, 27120, Note_on_c, 1, 71, 70
1, 27143, Note_on_c, 0, 76, 0
1, 27144, Note_on_c, 0, 74, 70
1, 27165, Note_on_c, 1, 71, 0
1, 27167, Note_on_c, 0, 74, 0
1, 27168, Note_on_c, 0, 78, 70
1, 27168, Note_on_c, 1, 61, 70
1, 27191, Note_on_c, 0, 78, 0
1, 27192, Note_on_c, 0, 76, 70
1, 27213, Note_on_c, 1, 61, 0
1, 27215, Note_on_c, 0, 76, 0
1, 27216, Note_on_c, 0, 74, 70
1, 27216, Note_on_c, 1, 69, 70
1, 27239, Note_on_c, 0, 74, 0
1, 27240, Note_on_c, 0, 73, 70
1, 27261, Note_on_c, 1, 69, 0
1, 27263, Note_on_c, 0, 73, 0
1, 27264, Note_on_c, 0, 76, 70
1, 27264, Note_on_c, 1, 59, 70
1, 27287, Note_on_c, 0, 76, 0
1, 27288, Note_on_c, 0, 74, 70
1, 27309, Note_on_c, 1, 59, 0
1, 27311, Note_on_c, 0, 74, 0
1, 27312, Note_on_c, 0, 73, 70
1, 27312, Note_on_c, 1, 68, 70
1, 27335, Note_on_c, 0, 73, 0
1, 27336, Note_on_c, 0, 71, 70
1, 27357, Note_on_c, 1, 68, 0
1, 27359, Note_on_c, 0, 71, 0
1, 27360, Note_on_c, 0, 74, 70
1, 27360, Note_on_c, 1, 57, 70
1, 27383, Note_on_c, 0, 74, 0
1, 27384, Note_on_c, 0, 73, 70
1, 27405, Note_on_c, 1, 57, 0
1, 27407, Note_on_c, 0, 73, 0
1, 27408, Note_on_c, 0, 71, 70
1, 27408, Note_on_c, 1, 66, 70
1, 27431, Note_on_c, 0, 71, 0
1, 27432, Note_on_c, 0, 69, 70
1, 27453, Note_on_c, 1, 66, 0
1, 27455, Note_on_c, 0, 69, 0
1, 27456, Note_on_c, 0, 71, 70
1, 27456, Note_on_c, 1, 69, 70
1, 27479, Note_on_c, 1, 69, 0
1, 27480, Note_on_c, 1, 67, 70
1, 27501, Note_on_c, 0, 71, 0
1, 27503, Note_on_c, 1, 67, 0
1, 27504, Note_on_c, 0, 76, 70
1, 27504, Note_on_c, 1, 66, 70
1, 27527, Note_on_c, 1, 66, 0
1, 27528, Note_on_c, 1, 64, 70
1, 27549, Note_on_c, 0, 76, 0
1, 27551, Note_on_c, 1, 64, 0
1, 27552, Note_on_c, 0, 69, 70
1, 27552, Note_on_c, 1, 67, 70
1, 27575, Note_on_c, 1, 67, 0
1, 27576, Note_on_c, 1, 66, 70
1, 27597, Note_on_c, 0, 69, 0
1, 27599, Note_on_c, 1, 66, 0
1, 27600, Note_on_c, 0, 74, 70
1, 27600, Note_on_c, 1, 64, 70
1, 27623, Note_on_c, 1, 64, 0
1, 27624, Note_on_c, 1, 62, 70
1, 27645, Note_on_c, 0, 74, 0
1, 27647, Note_on_c, 1, 62, 0
1, 27648, Note_on_c, 0, 67, 70
1, 27648, Note_on_c, 1, 64, 70
1, 27671, Note_on_c, 0, 67, 0
1, 27672, Note_on_c, 0, 71, 70
1, 27693, Note_on_c, 1, 64, 0
1, 27695, Note_on_c, 0, 71, 0
1, 27696, Note_on_c, 0, 69, 70
1, 27696, Note_on_c, 1, 61, 70
1, 27719, Note_on_c, 0, 69, 0
1, 27720, Note_on_c, 0, 67, 70
1, 27741, Note_on_c, 1, 61, 0
1, 27743, Note_on_c, 0, 67, 0
1, 27744, Note_on_c, 0, 66, 70
1, 27744, Note_on_c, 1, 62, 70
1, 27767, Note_on_c, 0, 66, 0
1, 27768, Note_on_c, 0, 69, 70
1, 27789, Note_on_c, 1, 62, 0
1, 27791, Note_on_c, 0, 69, 0
1, 27792, Note_on_c, 0, 67, 70
1, 27792, Note_on_c, 1, 54, 70
1, 27815, Note_on_c, 0, 67, 0
1, 27816, Note_on_c, 0, 66, 70
1, 27837, Note_on_c, 1, 54, 0
1, 27839, Note_on_c, 0, 66, 0
1, 27840, Note_on_c, 0, 64, 70
1, 27840, Note_on_c, 1, 55, 70
1, 27885, Note_on_c, 0, 64, 0
1, 27888, Note_on_c, 0, 71, 68
1, 27888, Note_on_c, 0, 67, 68
1, 27929, Note_on_c, 1, 55, 0
1, 27933, Note_on_c, 0, 71, 0
1, 27933, Note_on_c, 0, 67, 0
1, 27936, Note_on_c, 0, 69, 67
1, 27981, Note_on_c, 0, 69, 0
1, 27984, Tempo, 600000
1, 27984, Note_on_c, 0, 61, 65
1, 27984, Note_on_c, 0, 55, 65
1, 27984, Note_on_c, 1, 45, 65
1, 27984, Note_on_c, 1, 33, 65
1, 28029, Note_on_c, 0, 61, 0
1, 28029, Note_on_c, 0, 55, 0
1, 28029, Note_on_c, 1, 45, 0
1, 28029, Note_on_c, 1, 33, 0
1, 28032, Note_on_c, 0, 62, 64
1, 28032, Note_on_c, 0, 54, 64
1, 28032, Note_on_c, 1, 47, 64
1, 28032, Note_on_c, 1, 35, 64
1, 28121, Note_on_c, 0, 62, 0
1, 28121, Note_on_c, 0, 54, 0
1, 28121, Note_on_c, 1, 47, 0
1, 28121, Note_on_c, 1, 35, 0
1, 28176, Tempo, 428571
1, 28176, Note_on_c, 0, 78, 75
1, 28176, Note_on_c, 1, 62, 75
1, 28224, Note_on_c, 0, 78, 0
1, 28224, Note_on_c, 0, 79, 75
1, 28224, Note_on_c, 1, 62, 0
1, 28224, Note_on_c, 1, 61, 75
1, 28244, Note_on_c, 0, 79, 0
1, 28244, Note_on_c, 1, 61, 0
1, 28272, Note_on_c, 0, 76, 75
1, 28272, Note_on_c, 1, 64, 75
1, 28320, Note_on_c, 0, 76, 0
1, 28320, Note_on_c, 0, 78, 75
1, 28320, Note_on_c, 1, 64, 0
1, 28320, Note_on_c, 1, 63, 75
1, 28340, Note_on_c, 0, 78, 0
1, 28340, Note_on_c, 1, 63, 0
1, 28368, Note_on_c, 0, 75, 75
1, 28368, Note_on_c, 1, 66, 75
1, 28416, Note_on_c, 0, 75, 0
1, 28416, Note_on_c, 0, 76, 75
1, 28416, Note_on_c, 1, 66, 0
1, 28416, Note_on_c, 1, 64, 75
1, 28436, Note_on_c, 0, 76, 0
1, 28436, Note_on_c, 1, 64, 0
1, 28464, Note_on_c, 0, 73, 75
1, 28464, Note_on_c, 1, 67, 75
1, 28512, Note_on_c, 0, 73, 0
1, 28512, Note_on_c, 0, 74, 75
1, 28512, Note_on_c, 1, 67, 0
1, 28512, Note_on_c, 1, 66, 75
1, 28532, Note_on_c, 0, 74, 0
1, 28532, Note_on_c, 1, 66, 0
1, 28560, Note_on_c, 0, 81, 75
1, 28560, Note_on_c, 1, 76, 75
1, 28560, Note_on_c, 1, 73, 75
1, 28608, Note_on_c, 0, 81, 0
1, 28608, Note_on_c, 0, 80, 75
1, 28608, Note_on_c, 1, 76, 0
1, 28608, Note_on_c, 1, 73, 0
1, 28608, Note_on_c, 1, 77, 75
1, 28608, Note_on_c, 1, 74, 75
1, 28628, Note_on_c, 0, 80, 0
1, 28653, Note_on_c, 1, 77, 0
1, 28653, Note_on_c, 1, 74, 0
1, 28656, Note_on_c, 0, 83, 75
1, 28656, Note_on_c, 1, 74, 75
1, 28656, Note_on_c, 1, 71, 75
1, 28704, Note_on_c, 0, 83, 0
1, 28704, Note_on_c, 0, 81, 75
1, 28704, Note_on_c, 1, 74, 0
1, 28704, Note_on_c, 1, 71, 0
1, 28704, Note_on_c, 1, 76, 75
1, 28704, Note_on_c, 1, 73, 75
1, 28724, Note_on_c, 0, 81, 0
1, 28749, Note_on_c, 1, 76, 0
1, 28749, Note_on_c, 1, 73, 0
1, 28752, Note_on_c, 0, 85, 75
1, 28752, Note_on_c, 1, 73, 75
1, 28752, Note_on_c, 1, 69, 75
1, 28800, Note_on_c, 0, 85, 0
1, 28800, Note_on_c, 0, 83, 75
1, 28800, Note_on_c, 1, 73, 0
1, 28800, Note_on_c, 1, 69, 0
1, 28800, Note_on_c, 1, 74, 75
1, 28800, Note_on_c, 1, 71, 75
1, 28820, Note_on_c, 0, 83, 0
1, 28845, Note_on_c, 1, 74, 0
1, 28845, Note_on_c, 1, 71, 0
1, 28848, Note_on_c, 0, 86, 75
1, 28848, Note_on_c, 1, 71, 75
1, 28848, Note_on_c, 1, 68, 75
1, 28896, Note_on_c, 0, 86, 0
1, 28896, Note_on_c, 0, 85, 75
1, 28896, Note_on_c, 1, 71, 0
1, 28896, Note_on_c, 1, 68, 0
1, 28896, Note_on_c, 1, 69, 75
1, 28916, Note_on_c, 0, 85, 0
1, 28941, Note_on_c, 1, 69, 0
1, 28944, Note_on_c, 0, 88, 75
1, 28944, Note_on_c, 0, 76, 64
1, 28944, Note_on_c, 1, 61, 75
1, 28964, Note_on_c, 0, 76, 0
1, 28992, Note_on_c, 0, 78, 64
1, 28992, Note_on_c, 1, 61, 0
1, 28992, Note_on_c, 1, 62, 75
1, 29012, Note_on_c, 1, 62, 0
1, 29037, Note_on_c, 0, 88, 0
1, 29040, Note_on_c, 0, 86, 75
1, 29040, Note_on_c, 1, 59, 75
1, 29081, Note_on_c, 0, 78, 0
1, 29088, Note_on_c, 0, 76, 64
1, 29088, Note_on_c, 1, 59, 0
1, 29088, Note_on_c, 1, 61, 75
1, 29108, Note_on_c, 1, 61, 0
1, 29129, Note_on_c, 0, 86, 0
1, 29136, Note_on_c, 0, 85, 75
1, 29136, Note_on_c, 1, 58, 75
1, 29177, Note_on_c, 0, 76, 0
1, 29184, Note_on_c, 0, 74, 64
1, 29184, Note_on_c, 1, 58, 0
1, 29184, Note_on_c, 1, 59, 75
1, 29204, Note_on_c, 1, 59, 0
1, 29229, Note_on_c, 0, 85, 0
1, 29232, Note_on_c, 0, 83, 75
1, 29232, Note_on_c, 1, 56, 75
1, 29273, Note_on_c, 0, 74, 0
1, 29280, Note_on_c, 0, 73, 64
1, 29280, Note_on_c, 1, 56, 0
1, 29280, Note_on_c, 1, 57, 75
1, 29321, Note_on_c, 0, 83, 0
1, 29325, Note_on_c, 0, 73, 0
1, 29328, Note_on_c, 0, 81, 75
1, 29328, Note_on_c, 0, 66, 64
1, 29348, Note_on_c, 0, 81, 0
1, 29373, Note_on_c, 0, 66, 0
1, 29376, Note_on_c, 0, 83, 75
1, 29376, Note_on_c, 0, 67, 64
1, 29399, Note_on_c, 0, 83, 0
1, 29400, Note_on_c, 0, 85, 75
1, 29421, Note_on_c, 0, 67, 0
1, 29423, Note_on_c, 0, 85, 0
1, 29424, Note_on_c, 0, 86, 75
1, 29424, Note_on_c, 0, 64, 64
1, 29447, Note_on_c, 0, 86, 0
1, 29448, Note_on_c, 0, 88, 75
1, 29469, Note_on_c, 0, 64, 0
1, 29471, Note_on_c, 0, 88, 0
1, 29472, Note_on_c, 0, 81, 75
1, 29472, Note_on_c, 0, 66, 64
1, 29495, Note_on_c, 0, 81, 0
1, 29496, Note_on_c, 0, 84, 75
1, 29517, Note_on_c, 0, 66, 0
1, 29519, Note_on_c, 0, 84, 0
1, 29520, Note_on_c, 0, 83, 75
1, 29520, Note_on_c, 0, 63, 64
1, 29543, Note_on_c, 0, 83, 0
1, 29544, Note_on_c, 0, 81, 75
1, 29565, Note_on_c, 0, 63, 0
1, 29567, Note_on_c, 0, 81, 0
1, 29568, Note_on_c, 0, 79, 75
1, 29568, Note_on_c, 0, 64, 64
1, 29591, Note_on_c, 0, 79, 0
1, 29592, Note_on_c, 0, 83, 75
1, 29613, Note_on_c, 0, 64, 0
1, 29615, Note_on_c, 0, 83, 0
1, 29616, Note_on_c, 0, 81, 75
1, 29616, Note_on_c, 0, 61, 64
1, 29639, Note_on_c, 0, 81, 0
1, 29640, Note_on_c, 0, 79, 75
1, 29661, Note_on_c, 0, 61, 0
1, 29663, Note_on_c, 0, 79, 0
1, 29664, Note_on_c, 0, 78, 75
1, 29664, Note_on_c, 0, 62, 64
1, 29687, Note_on_c, 0, 78, 0
1, 29688, Note_on_c, 0, 81, 75
1, 29709, Note_on_c, 0, 62, 0
1, 29711, Note_on_c, 0, 81, 0
1, 29712, Note_on_c, 0, 79, 75
1, 29712, Note_on_c, 0, 66, 64
1, 29735, Note_on_c, 0, 79, 0
1, 29736, Note_on_c, 0, 78, 75
1, 29757, Note_on_c, 0, 66, 0
1, 29759, Note_on_c, 0, 78, 0
1, 29760, Note_on_c, 0, 76, 75
1, 29760, Note_on_c, 0, 67, 64
1, 29783, Note_on_c, 0, 76, 0
1, 29784, Note_on_c, 0, 75, 75
1, 29805, Note_on_c, 0, 67, 0
1, 29807, Note_on_c, 0, 75, 0
1, 29808, Note_on_c, 0, 76, 76
1, 29808, Note_on_c, 0, 66, 64
1, 29831, Note_on_c, 0, 76, 0
1, 29832, Note_on_c, 0, 75, 76
1, 29853, Note_on_c, 0, 66, 0
1, 29855, Note_on_c, 0, 75, 0
1, 29856, Note_on_c, 0, 76, 77
1, 29856, Note_on_c, 0, 67, 64
1, 29879, Note_on_c, 0, 76, 0
1, 29880, Note_on_c, 0, 78, 78
1, 29901, Note_on_c, 0, 67, 0
1, 29903, Note_on_c, 0, 78, 0
1, 29904, Note_on_c, 0, 76, 78
1, 29904, Note_on_c, 0, 68, 64
1, 29927, Note_on_c, 0, 76, 0
1, 29928, Note_on_c, 0, 74, 79
1, 29949, Note_on_c, 0, 68, 0
1, 29951, Note_on_c, 0, 74, 0
1, 29952, Note_on_c, 0, 73, 80
1, 29952, Note_on_c, 0, 69, 64
1, 29975, Note_on_c, 0, 73, 0
1, 29976, Note_on_c, 0, 74, 79
1, 29999, Note_on_c, 0, 74, 0
1, 30000, Note_on_c, 0, 76, 78
1, 30023, Note_on_c, 0, 76, 0
1, 30024, Note_on_c, 0, 74, 78
1, 30041, Note_on_c, 0, 69, 0
1, 30041, Note_on_c, 1, 57, 0
1, 30047, Note_on_c, 0, 74, 0
1, 30048, Note_on_c, 0, 73, 77
1, 30071, Note_on_c, 0, 73, 0
1, 30072, Note_on_c, 0, 71, 76
1, 30095, Note_on_c, 0, 71, 0
1, 30096, Note_on_c, 0, 69, 76
1, 30096, Note_on_c, 1, 57, 75
1, 30119, Note_on_c, 0, 69, 0
1, 30120, Note_on_c, 0, 67, 75
1, 30143, Note_on_c, 0, 67, 0
1, 30144, Note_on_c, 0, 66, 75
1, 30144, Note_on_c, 1, 57, 0
1, 30144, Note_on_c, 1, 59, 75
1, 30164, Note_on_c, 1, 59, 0
1, 30192, Note_on_c, 1, 56, 75
1, 30233, Note_on_c, 0, 66, 0
1, 30240, Note_on_c, 1, 56, 0
1, 30240, Note_on_c, 1, 57, 75
1, 30260, Note_on_c, 1, 57, 0
1, 30288, Note_on_c, 0, 62, 75
1, 30288, Note_on_c, 1, 54, 75
1, 30336, Note_on_c, 0, 62, 0
1, 30336, Note_on_c, 0, 64, 75
1, 30336, Note_on_c, 1, 54, 0
1, 30336, Note_on_c, 1, 55, 75
1, 30356, Note_on_c, 0, 64, 0
1, 30356, Note_on_c, 1, 55, 0
1, 30384, Note_on_c, 0, 61, 75
1, 30384, Note_on_c, 1, 52, 75
1, 30432, Note_on_c, 0, 61, 0
1, 30432, Note_on_c, 0, 62, 75
1, 30432, Note_on_c, 1, 52, 0
1, 30432, Note_on_c, 1, 54, 75
1, 30452, Note_on_c, 1, 54, 0
1, 30477, Note_on_c, 0, 62, 0
1, 30480, Note_on_c, 0, 71, 75
1, 30480, Note_on_c, 0, 66, 75
1, 30480, Note_on_c, 1, 51, 75
1, 30528, Note_on_c, 0, 71, 0
1, 30528, Note_on_c, 0, 66, 0
1, 30528, Note_on_c, 0, 72, 75
1, 30528, Note_on_c, 0, 67, 75
1, 30528, Note_on_c, 1, 51, 0
1, 30528, Note_on_c, 1, 52, 75
1, 30548, Note_on_c, 1, 52, 0
1, 30573, Note_on_c, 0, 72, 0
1, 30573, Note_on_c, 0, 67, 0
1, 30576, Note_on_c, 0, 70, 75
1, 30576, Note_on_c, 0, 64, 75
1, 30576, Note_on_c, 1, 49, 75
1, 30624, Note_on_c, 0, 70, 0
1, 30624, Note_on_c, 0, 64, 0
1, 30624, Note_on_c, 0, 71, 75
1, 30624, Note_on_c, 0, 66, 75
1, 30624, Note_on_c, 1, 49, 0
1, 30624, Note_on_c, 1, 50, 75
1, 30644, Note_on_c, 1, 50, 0
1, 30669, Note_on_c, 0, 71, 0
1, 30669, Note_on_c, 0, 66, 0
1, 30672, Note_on_c, 0, 68, 75
1, 30672, Note_on_c, 0, 62, 75
1, 30672, Note_on_c, 1, 47, 75
1, 30720, Note_on_c, 0, 68, 0
1, 30720, Note_on_c, 0, 62, 0
1, 30720, Note_on_c, 0, 69, 75
1, 30720, Note_on_c, 0, 64, 75
1, 30720, Note_on_c, 1, 47, 0
1, 30720, Note_on_c, 1, 48, 75
1, 30740, Note_on_c, 1, 48, 0
1, 30765, Note_on_c, 0, 69, 0
1, 30765, Note_on_c, 0, 64, 0
1, 30768, Note_on_c, 0, 66, 75
1, 30768, Note_on_c, 0, 60, 75
1, 30768, Note_on_c, 1, 45, 75
1, 30816, Note_on_c, 0, 66, 0
1, 30816, Note_on_c, 0, 60, 0
1, 30816, Note_on_c, 0, 67, 75
1, 30816, Note_on_c, 0, 62, 64
1, 30816, Note_on_c, 1, 45, 0
1, 30816, Note_on_c, 1, 47, 75
1, 30836, Note_on_c, 1, 47, 0
1, 30861, Note_on_c, 0, 67, 0
1, 30864, Note_on_c, 0, 71, 75
1, 30864, Note_on_c, 1, 43, 75
1, 30905, Note_on_c, 0, 62, 0
1, 30912, Tempo, 1200000
1, 30912, Note_on_c, 0, 71, 0
1, 30912, Note_on_c, 0, 62, 75
1, 30912, Note_on_c, 1, 43, 0
1, 30912, Note_on_c, 1, 55, 75
1, 30912, Note_on_c, 1, 52, 75
1, 30912, Note_on_c, 1, 45, 75
1, 31008, Tempo, 2400000
1, 31008, Note_on_c, 0, 62, 0
1, 31008, Note_on_c, 0, 61, 75
1, 31053, Note_on_c, 0, 61, 0
1, 31053, Note_on_c, 1, 55, 0
1, 31053, Note_on_c, 1, 52, 0
1, 31053, Note_on_c, 1, 45, 0
1, 31056, Tempo, 428571
1, 31056, Note_on_c, 0, 74, 75
1, 31076, Note_on_c, 0, 74, 0
1, 31104, Note_on_c, 0, 74, 91
1, 31128, Note_on_c, 0, 74, 0
1, 31128, Note_on_c, 0, 73, 75
1, 31151, Note_on_c, 0, 73, 0
1, 31152, Note_on_c, 0, 71, 75
1, 31175, Note_on_c, 0, 71, 0
1, 31176, Note_on_c, 0, 69, 75
1, 31199, Note_on_c, 0, 69, 0
1, 31200, Note_on_c, 0, 68, 75
1, 31223, Note_on_c, 0, 68, 0
1, 31224, Note_on_c, 0, 69, 75
1, 31247, Note_on_c, 0, 69, 0
1, 31248, Note_on_c, 0, 71, 75
1, 31248, Note_on_c, 1, 67, 75
1, 31268, Note_on_c, 1, 67, 0
1, 31271, Note_on_c, 0, 71, 0
1, 31272, Note_on_c, 0, 73, 75
1, 31295, Note_on_c, 0, 73, 0
1, 31296, Note_on_c, 0, 74, 75
1, 31296, Note_on_c, 1, 67, 91
1, 31320, Note_on_c, 1, 67, 0
1, 31320, Note_on_c, 1, 66, 75
1, 31343, Note_on_c, 1, 66, 0
1, 31344, Note_on_c, 1, 64, 75
1, 31367, Note_on_c, 1, 64, 0
1, 31368, Note_on_c, 1, 62, 75
1, 31385, Note_on_c, 0, 74, 0
1, 31391, Note_on_c, 1, 62, 0
1, 31392, Note_on_c, 1, 61, 75
1, 31415, Note_on_c, 1, 61, 0
1, 31416, Note_on_c, 1, 62, 75
1, 31439, Note_on_c, 1, 62, 0
1, 31440, Note_on_c, 0, 81, 75
1, 31440, Note_on_c, 1, 64, 75
1, 31460, Note_on_c, 0, 81, 0
1, 31463, Note_on_c, 1, 64, 0
1, 31464, Note_on_c, 1, 66, 75
1, 31487, Note_on_c, 1, 66, 0
1, 31488, Note_on_c, 0, 81, 91
1, 31488, Note_on_c, 1, 67, 75
1, 31512, Note_on_c, 0, 81, 0
1, 31512, Note_on_c, 0, 79, 75
1, 31535, Note_on_c, 0, 79, 0
1, 31536, Note_on_c, 0, 78, 75
1, 31559, Note_on_c, 0, 78, 0
1, 31560, Note_on_c, 0, 76, 75
1, 31577, Note_on_c, 1, 67, 0
1, 31583, Note_on_c, 0, 76, 0
1, 31584, Note_on_c, 0, 75, 75
1, 31607, Note_on_c, 0, 75, 0
1, 31608, Note_on_c, 0, 76, 75
1, 31631, Note_on_c, 0, 76, 0
1, 31632, Note_on_c, 0, 78, 75
1, 31632, Note_on_c, 1, 67, 75
1, 31652, Note_on_c, 1, 67, 0
1, 31655, Note_on_c, 0, 78, 0
1, 31656, Note_on_c, 0, 79, 75
1, 31679, Note_on_c, 0, 79, 0
1, 31680, Note_on_c, 0, 81, 75
1, 31680, Note_on_c, 1, 67, 91
1, 31704, Note_on_c, 1, 67, 0
1, 31704, Note_on_c, 1, 66, 75
1, 31727, Note_on_c, 1, 66, 0
1, 31728, Note_on_c, 1, 64, 75
1, 31751, Note_on_c, 1, 64, 0
1, 31752, Note_on_c, 1, 62, 75
1, 31769, Note_on_c, 0, 81, 0
1, 31775, Note_on_c, 1, 62, 0
1, 31776, Note_on_c, 1, 61, 75
1, 31799, Note_on_c, 1, 61, 0
1, 31800, Note_on_c, 1, 62, 75
1, 31823, Note_on_c, 1, 62, 0
1, 31824, Note_on_c, 0, 86, 75
1, 31824, Note_on_c, 1, 64, 75
1, 31844, Note_on_c, 0, 86, 0
1, 31847, Note_on_c, 1, 64, 0
1, 31848, Note_on_c, 1, 66, 75
1, 31871, Note_on_c, 1, 66, 0
1, 31872, Note_on_c, 0, 86, 91
1, 31872, Note_on_c, 1, 67, 75
1, 31896, Note_on_c, 0, 86, 0
1, 31896, Note_on_c, 0, 85, 75
1, 31919, Note_on_c, 0, 85, 0
1, 31920, Note_on_c, 0, 83, 75
1, 31943, Note_on_c, 0, 83, 0
1, 31944, Note_on_c, 0, 81, 75
1, 31961, Note_on_c, 1, 67, 0
1, 31967, Note_on_c, 0, 81, 0
1, 31968, Note_on_c, 0, 80, 75
1, 31991, Note_on_c, 0, 80, 0
1, 31992, Note_on_c, 0, 81, 75
1, 32015, Note_on_c, 0, 81, 0
1, 32016, Note_on_c, 0, 83, 75
1, 32016, Note_on_c, 1, 79, 75
1, 32036, Note_on_c, 1, 79, 0
1, 32039, Note_on_c, 0, 83, 0
1, 32040, Note_on_c, 0, 85, 75
1, 32063, Note_on_c, 0, 85, 0
1, 32064, Note_on_c, 0, 86, 75
1, 32064, Note_on_c, 1, 78, 75
1, 32087, Note_on_c, 0, 86, 0
1, 32088, Note_on_c, 0, 81, 75
1, 32109, Note_on_c, 1, 78, 0
1, 32111, Note_on_c, 0, 81, 0
1, 32112, Note_on_c, 0, 85, 75
1, 32112, Note_on_c, 1, 76, 75
1, 32135, Note_on_c, 0, 85, 0
1, 32136, Note_on_c, 0, 79, 75
1, 32157, Note_on_c, 1, 76, 0
1, 32159, Note_on_c, 0, 79, 0
1, 32160, Note_on_c, 0, 83, 75
1, 32160, Note_on_c, 1, 74, 75
1, 32183, Note_on_c, 0, 83, 0
1, 32184, Note_on_c, 0, 78, 75
1, 32205, Note_on_c, 1, 74, 0
1, 32207, Note_on_c, 0, 78, 0
1, 32208, Note_on_c, 0, 81, 75
1, 32208, Note_on_c, 1, 73, 75
1, 32231, Note_on_c, 0, 81, 0
1, 32232, Note_on_c, 0, 76, 75
1, 32253, Note_on_c, 1, 73, 0
1, 32255, Note_on_c, 0, 76, 0
1, 32256, Note_on_c, 0, 79, 75
1, 32256, Note_on_c, 1, 71, 75
1, 32279, Note_on_c, 0, 79, 0
1, 32280, Note_on_c, 0, 74, 75
1, 32301, Note_on_c, 1, 71, 0
1, 32303, Note_on_c, 0, 74, 0
1, 32304, Note_on_c, 0, 78, 75
1, 32304, Note_on_c, 1, 69, 75
1, 32327, Note_on_c, 0, 78, 0
1, 32328, Note_on_c, 0, 73, 75
1, 32349, Note_on_c, 1, 69, 0
1, 32351, Note_on_c, 0, 73, 0
1, 32352, Note_on_c, 0, 76, 75
1, 32352, Note_on_c, 1, 67, 75
1, 32375, Note_on_c, 0, 76, 0
1, 32376, Note_on_c, 0, 71, 75
1, 32397, Note_on_c, 1, 67, 0
1, 32399, Note_on_c, 0, 71, 0
1, 32400, Note_on_c, 0, 75, 75
1, 32400, Note_on_c, 1, 66, 75
1, 32423, Note_on_c, 0, 75, 0
1, 32424, Note_on_c, 0, 71, 75
1, 32445, Note_on_c, 1, 66, 0
1, 32447, Note_on_c, 0, 71, 0
1, 32448, Note_on_c, 0, 76, 75
1, 32448, Note_on_c, 1, 67, 75
1, 32471, Note_on_c, 0, 76, 0
1, 32472, Note_on_c, 0, 71, 75
1, 32493, Note_on_c, 1, 67, 0
1, 32495, Note_on_c, 0, 71, 0
1, 32496, Note_on_c, 0, 75, 76
1, 32496, Note_on_c, 1, 66, 75
1, 32519, Note_on_c, 0, 75, 0
1, 32520, Note_on_c, 0, 71, 76
1, 32541, Note_on_c, 1, 66, 0
1, 32543, Note_on_c, 0, 71, 0
1, 32544, Note_on_c, 0, 76, 77
1, 32544, Note_on_c, 1, 67, 75
1, 32567, Note_on_c, 0, 76, 0
1, 32568, Note_on_c, 0, 71, 78
1, 32589, Note_on_c, 1, 67, 0
1, 32591, Note_on_c, 0, 71, 0
1, 32592, Note_on_c, 0, 78, 78
1, 32592, Note_on_c, 1, 63, 75
1, 32615, Note_on_c, 0, 78, 0
1, 32616, Note_on_c, 0, 71, 79
1, 32637, Note_on_c, 1, 63, 0
1, 32639, Note_on_c, 0, 71, 0
1, 32640, Note_on_c, 0, 79, 80
1, 32640, Note_on_c, 1, 64, 75
1, 32663, Note_on_c, 0, 79, 0
1, 32664, Note_on_c, 0, 71, 79
1, 32685, Note_on_c, 1, 64, 0
1, 32687, Note_on_c, 0, 71, 0
1, 32688, Note_on_c, 0, 78, 78
1, 32688, Note_on_c, 1, 63, 75
1, 32711, Note_on_c, 0, 78, 0
1, 32712, Note_on_c, 0, 71, 78
1, 32733, Note_on_c, 1, 63, 0
1, 32735, Note_on_c, 0, 71, 0
1, 32736, Note_on_c, 0, 79, 77
1, 32736, Note_on_c, 1, 64, 75
1, 32759, Note_on_c, 0, 79, 0
1, 32760, Note_on_c, 0, 71, 76
1, 32781, Note_on_c, 1, 64, 0
1, 32783, Note_on_c, 0, 71, 0
1, 32784, Note_on_c, 0, 73, 76
1, 32784, Note_on_c, 1, 67, 75
1, 32807, Note_on_c, 0, 73, 0
1, 32808, Note_on_c, 0, 69, 75
1, 32829, Note_on_c, 1, 67, 0
1, 32831, Note_on_c, 0, 69, 0
1, 32832, Note_on_c, 0, 74, 75
1, 32832, Note_on_c, 1, 66, 75
1, 32855, Note_on_c, 0, 74, 0
1, 32856, Note_on_c, 0, 69, 75
1, 32877, Note_on_c, 1, 66, 0
1, 32879, Note_on_c, 0, 69, 0
1, 32880, Note_on_c, 0, 73, 76
1, 32880, Note_on_c, 1, 67, 75
1, 32903, Note_on_c, 0, 73, 0
1, 32904, Note_on_c, 0, 69, 76
1, 32925, Note_on_c, 1, 67, 0
1, 32927, Note_on_c, 0, 69, 0
1, 32928, Note_on_c, 0, 74, 77
1, 32928, Note_on_c, 1, 66, 75
1, 32951, Note_on_c, 0, 74, 0
1, 32952, Note_on_c, 0, 69, 78
1, 32973, Note_on_c, 1, 66, 0
1, 32975, Note_on_c, 0, 69, 0
1, 32976, Note_on_c, 0, 76, 78
1, 32976, Note_on_c, 1, 61, 75
1, 32999, Note_on_c, 0, 76, 0
1, 33000, Note_on_c, 0, 69, 79
1, 33021, Note_on_c, 1, 61, 0
1, 33023, Note_on_c, 0, 69, 0
1, 33024, Note_on_c, 0, 78, 80
1, 33024, Note_on_c, 1, 62, 75
1, 33047, Note_on_c, 0, 78, 0
1, 33048, Note_on_c, 0, 69, 79
1, 33069, Note_on_c, 1, 62, 0
1, 33071, Note_on_c, 0, 69, 0
1, 33072, Note_on_c, 0, 76, 78
1, 33072, Note_on_c, 1, 61, 75
1, 33095, Note_on_c, 0, 76, 0
1, 33096, Note_on_c, 0, 69, 78
1, 33117, Note_on_c, 1, 61, 0
1, 33119, Note_on_c, 0, 69, 0
1, 33120, Note_on_c, 0, 78, 77
1, 33120, Note_on_c, 1, 62, 75
1, 33143, Note_on_c, 0, 78, 0
1, 33144, Note_on_c, 0, 69, 76
1, 33165, Note_on_c, 1, 62, 0
1, 33167, Note_on_c, 0, 69, 0
1, 33168, Note_on_c, 0, 76, 76
1, 33168, Note_on_c, 1, 60, 75
1, 33191, Note_on_c, 0, 76, 0
1, 33192, Note_on_c, 0, 69, 75
1, 33213, Note_on_c, 1, 60, 0
1, 33215, Note_on_c, 0, 69, 0
1, 33216, Note_on_c, 0, 76, 75
1, 33216, Note_on_c, 1, 59, 75
1, 33239, Note_on_c, 0, 76, 0
1, 33240, Note_on_c, 0, 75, 75
1, 33263, Note_on_c, 0, 75, 0
1, 33264, Note_on_c, 0, 73, 75
1, 33287, Note_on_c, 0, 73, 0
1, 33288, Note_on_c, 0, 71, 75
1, 33305, Note_on_c, 1, 59, 0
1, 33311, Note_on_c, 0, 71, 0
1, 33312, Note_on_c, 0, 70, 75
1, 33335, Note_on_c, 0, 70, 0
1, 33336, Note_on_c, 0, 71, 75
1, 33359, Note_on_c, 0, 71, 0
1, 33360, Note_on_c, 0, 73, 75
1, 33360, Note_on_c, 1, 57, 75
1, 33380, Note_on_c, 1, 57, 0
1, 33383, Note_on_c, 0, 73, 0
1, 33384, Note_on_c, 0, 75, 75
1, 33407, Note_on_c, 0, 75, 0
1, 33408, Note_on_c, 0, 76, 75
1, 33408, Note_on_c, 1, 57, 91
1, 33432, Note_on_c, 1, 57, 0
1, 33432, Note_on_c, 1, 56, 75
1, 33455, Note_on_c, 1, 56, 0
1, 33456, Note_on_c, 1, 54, 75
1, 33479, Note_on_c, 1, 54, 0
1, 33480, Note_on_c, 1, 52, 75
1, 33497, Note_on_c, 0, 76, 0
1, 33503, Note_on_c, 1, 52, 0
1, 33504, Note_on_c, 1, 51, 75
1, 33527, Note_on_c, 1, 51, 0
1, 33528, Note_on_c, 1, 52, 75
1, 33551, Note_on_c, 1, 52, 0
1, 33552, Note_on_c, 0, 74, 75
1, 33552, Note_on_c, 1, 54, 75
1, 33572, Note_on_c, 0, 74, 0
1, 33575, Note_on_c, 1, 54, 0
1, 33576, Note_on_c, 1, 56, 75
1, 33599, Note_on_c, 1, 56, 0
1, 33600, Note_on_c, 0, 74, 91
1, 33600, Note_on_c, 1, 57, 75
1, 33624, Note_on_c, 0, 74, 0
1, 33624, Note_on_c, 0, 73, 75
1, 33647, Note_on_c, 0, 73, 0
1, 33648, Note_on_c, 0, 71, 75
1, 33671, Note_on_c, 0, 71, 0
1, 33672, Note_on_c, 0, 69, 75
1, 33689, Note_on_c, 1, 57, 0
1, 33695, Note_on_c, 0, 69, 0
1, 33696, Note_on_c, 0, 68, 75
1, 33719, Note_on_c, 0, 68, 0
1, 33720, Note_on_c, 0, 69, 75
1, 33743, Note_on_c, 0, 69, 0
1, 33744, Note_on_c, 0, 71, 75
1, 33744, Note_on_c, 1, 67, 75
1, 33764, Note_on_c, 1, 67, 0
1, 33767, Note_on_c, 0, 71, 0
1, 33768, Note_on_c, 0, 73, 75
1, 33791, Note_on_c, 0, 73, 0
1, 33792, Note_on_c, 0, 74, 75
1, 33792, Note_on_c, 1, 67, 91
1, 33816, Note_on_c, 1, 67, 0
1, 33816, Note_on_c, 1, 66, 75
1, 33839, Note_on_c, 1, 66, 0
1, 33840, Note_on_c, 1, 64, 75
1, 33863, Note_on_c, 1, 64, 0
1, 33864, Note_on_c, 1, 62, 75
1, 33881, Note_on_c, 0, 74, 0
1, 33887, Note_on_c, 1, 62, 0
1, 33888, Note_on_c, 1, 61, 75
1, 33911, Note_on_c, 1, 61, 0
1, 33912, Note_on_c, 1, 62, 75
1, 33935, Note_on_c, 1, 62, 0
1, 33936, Note_on_c, 0, 81, 75
1, 33936, Note_on_c, 1, 64, 75
1, 33956, Note_on_c, 0, 81, 0
1, 33959, Note_on_c, 1, 64, 0
1, 33960, Note_on_c, 1, 66, 75
1, 33983, Note_on_c, 1, 66, 0
1, 33984, Note_on_c, 0, 81, 91
1, 33984, Note_on_c, 1, 67, 75
1, 34008, Note_on_c, 0, 81, 0
1, 34008, Note_on_c, 0, 71, 75
1, 34031, Note_on_c, 0, 71, 0
1, 34032, Note_on_c, 0, 73, 75
1, 34055, Note_on_c, 0, 73, 0
1, 34056, Note_on_c, 0, 71, 75
1, 34073, Note_on_c, 1, 67, 0
1, 34079, Note_on_c, 0, 71, 0
1, 34080, Note_on_c, 0, 79, 75
1, 34080, Note_on_c, 1, 64, 75
1, 34103, Note_on_c, 0, 79, 0
1, 34104, Note_on_c, 0, 78, 75
1, 34127, Note_on_c, 0, 78, 0
1, 34128, Note_on_c, 0, 76, 75
1, 34151, Note_on_c, 0, 76, 0
1, 34152, Note_on_c, 0, 74, 75
1, 34169, Note_on_c, 1, 64, 0
1, 34175, Note_on_c, 0, 74, 0
1, 34176, Note_on_c, 0, 73, 75
1, 34176, Note_on_c, 1, 69, 75
1, 34199, Note_on_c, 1, 69, 0
1, 34200, Note_on_c, 1, 67, 75
1, 34223, Note_on_c, 1, 67, 0
1, 34224, Note_on_c, 1, 66, 75
1, 34247, Note_on_c, 1, 66, 0
1, 34248, Note_on_c, 1, 64, 75
1, 34265, Note_on_c, 0, 73, 0
1, 34271, Note_on_c, 1, 64, 0
1, 34272, Note_on_c, 0, 81, 75
1, 34272, Note_on_c, 0, 78, 75
1, 34272, Note_on_c, 1, 62, 75
1, 34295, Note_on_c, 0, 81, 0
1, 34295, Note_on_c, 0, 78, 0
1, 34296, Note_on_c, 0, 79, 75
1, 34296, Note_on_c, 0, 76, 75
1, 34319, Note_on_c, 0, 79, 0
1, 34319, Note_on_c, 0, 76, 0
1, 34320, Note_on_c, 0, 78, 75
1, 34320, Note_on_c, 0, 74, 75
1, 34343, Note_on_c, 0, 78, 0
1, 34343, Note_on_c, 0, 74, 0
1, 34344, Note_on_c, 0, 76, 75
1, 34344, Note_on_c, 0, 73, 75
1, 34361, Note_on_c, 1, 62, 0
1, 34367, Note_on_c, 0, 76, 0
1, 34367, Note_on_c, 0, 73, 0
1, 34368, Note_on_c, 0, 74, 75
1, 34368, Note_on_c, 1, 71, 75
1, 34391, Note_on_c, 1, 71, 0
1, 34392, Note_on_c, 1, 69, 75
1, 34415, Note_on_c, 1, 69, 0
1, 34416, Note_on_c, 1, 67, 75
1, 34439, Note_on_c, 1, 67, 0
1, 34440, Note_on_c, 1, 66, 75
1, 34457, Note_on_c, 0, 74, 0
1, 34463, Note_on_c, 1, 66, 0
1, 34464, Note_on_c, 0, 83, 75
1, 34464, Note_on_c, 0, 79, 75
1, 34464, Note_on_c, 1, 64, 75
1, 34487, Note_on_c, 0, 83, 0
1, 34487, Note_on_c, 0, 79, 0
1, 34488, Note_on_c, 0, 81, 75
1, 34488, Note_on_c, 0, 78, 75
1, 34511, Note_on_c, 0, 81, 0
1, 34511, Note_on_c, 0, 78, 0
1, 34512, Note_on_c, 0, 79, 75
1, 34512, Note_on_c, 0, 76, 75
1, 34535, Note_on_c, 0, 79, 0
1, 34535, Note_on_c, 0, 76, 0
1, 34536, Note_on_c, 0, 78, 75
1, 34536, Note_on_c, 0, 74, 75
1, 34553, Note_on_c, 1, 64, 0
1, 34559, Note_on_c, 0, 78, 0
1, 34559, Note_on_c, 0, 74, 0
1, 34560, Note_on_c, 0, 76, 75
1, 34560, Note_on_c, 0, 73, 75
1, 34560, Note_on_c, 1, 69, 75
1, 34583, Note_on_c, 1, 69, 0
1, 34584, Note_on_c, 1, 68, 75
1, 34605, Note_on_c, 0, 76, 0
1, 34605, Note_on_c, 0, 73, 0
1, 34607, Note_on_c, 1, 68, 0
1, 34608, Note_on_c, 0, 78, 77
1, 34608, Note_on_c, 0, 74, 77
1, 34608, Note_on_c, 1, 69, 75
1, 34631, Note_on_c, 1, 69, 0
1, 34632, Note_on_c, 1, 68, 75
1, 34653, Note_on_c, 0, 78, 0
1, 34653, Note_on_c, 0, 74, 0
1, 34655, Note_on_c, 1, 68, 0
1, 34656, Note_on_c, 0, 79, 80
1, 34656, Note_on_c, 0, 76, 80
1, 34656, Note_on_c, 1, 69, 75
1, 34679, Note_on_c, 1, 69, 0
1, 34680, Note_on_c, 1, 68, 75
1, 34701, Note_on_c, 0, 79, 0
1, 34701, Note_on_c, 0, 76, 0
1, 34703, Note_on_c, 1, 68, 0
1, 34704, Note_on_c, 0, 78, 77
1, 34704, Note_on_c, 0, 74, 77
1, 34704, Note_on_c, 1, 69, 75
1, 34727, Note_on_c, 1, 69, 0
1, 34728, Note_on_c, 1, 68, 75
1, 34749, Note_on_c, 0, 78, 0
1, 34749, Note_on_c, 0, 74, 0
1, 34751, Note_on_c, 1, 68, 0
1, 34752, Note_on_c, 0, 76, 75
1, 34752, Note_on_c, 0, 73, 75
1, 34752, Note_on_c, 1, 69, 75
1, 34797, Note_on_c, 0, 76, 0
1, 34797, Note_on_c, 0, 73, 0
1, 34800, Note_on_c, 0, 81, 75
1, 34823, Note_on_c, 0, 81, 0
1, 34824, Note_on_c, 0, 80, 75
1, 34841, Note_on_c, 1, 69, 0
1, 34847, Note_on_c, 0, 80, 0
1, 34848, Note_on_c, 0, 81, 75
1, 34871, Note_on_c, 0, 81, 0
1, 34872, Note_on_c, 0, 80, 75
1, 34895, Note_on_c, 0, 80, 0
1, 34896, Note_on_c, 0, 81, 75
1, 34896, Note_on_c, 1, 66, 75
1, 34896, Note_on_c, 1, 62, 75
1, 34919, Note_on_c, 0, 81, 0
1, 34920, Note_on_c, 0, 80, 75
1, 34941, Note_on_c, 1, 66, 0
1, 34941, Note_on_c, 1, 62, 0
1, 34943, Note_on_c, 0, 80, 0
1, 34944, Note_on_c, 0, 81, 75
1, 34944, Note_on_c, 1, 64, 75
1, 34944, Note_on_c, 1, 61, 75
1, 34967, Note_on_c, 0, 81, 0
1, 34968, Note_on_c, 0, 80, 75
1, 34989, Note_on_c, 1, 64, 0
1, 34989, Note_on_c, 1, 61, 0
1, 34991, Note_on_c, 0, 80, 0
1, 34992, Note_on_c, 0, 81, 75
1, 34992, Note_on_c, 1, 66, 77
1, 34992, Note_on_c, 1, 62, 77
1, 35015, Note_on_c, 0, 81, 0
1, 35016, Note_on_c, 0, 80, 75
1, 35037, Note_on_c, 1, 66, 0
1, 35037, Note_on_c, 1, 62, 0
1, 35039, Note_on_c, 0, 80, 0
1, 35040, Note_on_c, 0, 81, 75
1, 35040, Note_on_c, 1, 67, 80
1, 35040, Note_on_c, 1, 64, 80
1, 35063, Note_on_c, 0, 81, 0
1, 35064, Note_on_c, 0, 80, 75
1, 35085, Note_on_c, 1, 67, 0
1, 35085, Note_on_c, 1, 64, 0
1, 35087, Note_on_c, 0, 80, 0
1, 35088, Note_on_c, 0, 81, 75
1, 35088, Note_on_c, 1, 66, 77
1, 35088, Note_on_c, 1, 62, 77
1, 35111, Note_on_c, 0, 81, 0
1, 35112, Note_on_c, 0, 80, 75
1, 35133, Note_on_c, 1, 66, 0
1, 35133, Note_on_c, 1, 62, 0
1, 35135, Note_on_c, 0, 80, 0
1, 35136, Note_on_c, 0, 81, 75
1, 35136, Note_on_c, 1, 64, 75
1, 35136, Note_on_c, 1, 61, 75
1, 35225, Note_on_c, 1, 64, 0
1, 35225, Note_on_c, 1, 61, 0
1, 35280, Tempo, 600000
1, 35280, Note_on_c, 0, 81, 0
1, 35280, Note_on_c, 0, 82, 75
1, 35328, Tempo, 428571
1, 35328, Note_on_c, 0, 82, 0
1, 35328, Note_on_c, 0, 83, 75
1, 35348, Note_on_c, 0, 83, 0
1, 35376, Note_on_c, 0, 80, 75
1, 35424, Note_on_c, 0, 80, 0
1, 35424, Note_on_c, 0, 81, 75
1, 35444, Note_on_c, 0, 81, 0
1, 35472, Note_on_c, 0, 78, 75
1, 35472, Note_on_c, 1, 70, 75
1, 35520, Note_on_c, 0, 78, 0
1, 35520, Note_on_c, 0, 79, 75
1, 35520, Note_on_c, 1, 70, 0
1, 35520, Note_on_c, 1, 71, 75
1, 35540, Note_on_c, 0, 79, 0
1, 35540, Note_on_c, 1, 71, 0
1, 35568, Note_on_c, 0, 77, 75
1, 35568, Note_on_c, 1, 68, 75
1, 35616, Note_on_c, 0, 77, 0
1, 35616, Note_on_c, 0, 78, 75
1, 35616, Note_on_c, 1, 68, 0
1, 35616, Note_on_c, 1, 69, 75
1, 35636, Note_on_c, 0, 78, 0
1, 35636, Note_on_c, 1, 69, 0
1, 35664, Note_on_c, 0, 75, 75
1, 35664, Note_on_c, 0, 69, 75
1, 35664, Note_on_c, 1, 66, 75
1, 35712, Note_on_c, 0, 75, 0
1, 35712, Note_on_c, 0, 69, 0
1, 35712, Note_on_c, 0, 76, 75
1, 35712, Note_on_c, 0, 71, 75
1, 35712, Note_on_c, 1, 66, 0
1, 35712, Note_on_c, 1, 67, 75
1, 35732, Note_on_c, 1, 67, 0
1, 35757, Note_on_c, 0, 76, 0
1, 35757, Note_on_c, 0, 71, 0
1, 35760, Note_on_c, 0, 73, 75
1, 35760, Note_on_c, 0, 67, 75
1, 35760, Note_on_c, 1, 64, 75
1, 35808, Note_on_c, 0, 73, 0
1, 35808, Note_on_c, 0, 67, 0
1, 35808, Note_on_c, 0, 74, 75
1, 35808, Note_on_c, 0, 69, 75
1, 35808, Note_on_c, 1, 64, 0
1, 35808, Note_on_c, 1, 66, 75
1, 35828, Note_on_c, 1, 66, 0
1, 35853, Note_on_c, 0, 74, 0
1, 35853, Note_on_c, 0, 69, 0
1, 35856, Note_on_c, 0, 79, 75
1, 35856, Note_on_c, 0, 76, 75
1, 35856, Note_on_c, 0, 71, 75
1, 35856, Note_on_c, 1, 55, 75
1, 35901, Note_on_c, 1, 55, 0
1, 35904, Note_on_c, 0, 79, 0
1, 35904, Note_on_c, 0, 76, 0
1, 35904, Note_on_c, 0, 71, 0
1, 35904, Note_on_c, 0, 78, 75
1, 35904, Note_on_c, 0, 74, 64
1, 35904, Note_on_c, 0, 69, 64
1, 35904, Note_on_c, 1, 57, 75
1, 35904, Note_on_c, 1, 57, 64
1, 35949, Note_on_c, 0, 78, 0
1, 35952, Note_on_c, 0, 81, 75
1, 35993, Note_on_c, 0, 74, 0
1, 35993, Note_on_c, 0, 69, 0
1, 35993, Note_on_c, 1, 57, 0
1, 35993, Note_on_c, 1, 57, 0
1, 35997, Note_on_c, 0, 81, 0
1, 36000, Note_on_c, 0, 73, 75
1, 36000, Note_on_c, 0, 67, 64
1, 36000, Note_on_c, 1, 64, 75
1, 36000, Note_on_c, 1, 57, 64
1, 36045, Note_on_c, 0, 73, 0
1, 36045, Note_on_c, 1, 64, 0
1, 36048, Note_on_c, 0, 76, 75
1, 36048, Note_on_c, 1, 61, 75
1, 36089, Note_on_c, 0, 67, 0
1, 36089, Note_on_c, 1, 57, 0
1, 36093, Note_on_c, 0, 76, 0
1, 36093, Note_on_c, 1, 61, 0
1, 36096, Note_on_c, 0, 74, 64
1, 36096, Note_on_c, 0, 66, 64
1, 36096, Note_on_c, 1, 62, 75
1, 36096, Note_on_c, 1, 50, 75
1, 36185, Note_on_c, 0, 74, 0
1, 36185, Note_on_c, 0, 66, 0
1, 36185, Note_on_c, 1, 62, 0
1, 36185, Note_on_c, 1, 50, 0
1, 36240, Note_on_c, 0, 86, 64
1, 36260, Note_on_c, 0, 86, 0
1, 36288, Note_on_c, 0, 86, 80
1, 36288, Note_on_c, 1, 67, 75
1, 36288, Note_on_c, 1, 64, 75
1, 36288, Note_on_c, 1, 57, 75
1, 36312, Note_on_c, 0, 86, 0
1, 36312, Note_on_c, 0, 85, 64
1, 36335, Note_on_c, 0, 85, 0
1, 36336, Note_on_c, 0, 83, 64
1, 36359, Note_on_c, 0, 83, 0
1, 36360, Note_on_c, 0, 81, 64
1, 36377, Note_on_c, 1, 67, 0
1, 36377, Note_on_c, 1, 64, 0
1, 36377, Note_on_c, 1, 57, 0
1, 36383, Note_on_c, 0, 81, 0
1, 36384, Note_on_c, 0, 80, 64
1, 36407, Note_on_c, 0, 80, 0
1, 36408, Note_on_c, 0, 81, 64
1, 36431, Note_on_c, 0, 81, 0
1, 36432, Note_on_c, 0, 83, 64
1, 36455, Note_on_c, 0, 83, 0
1, 36456, Note_on_c, 0, 85, 64
1, 36479, Note_on_c, 0, 85, 0
1, 36480, Note_on_c, 0, 86, 64
1, 36480, Note_on_c, 1, 66, 75
1, 36480, Note_on_c, 1, 62, 75
1, 36503, Note_on_c, 0, 86, 0
1, 36504, Note_on_c, 0, 85, 64
1, 36527, Note_on_c, 0, 85, 0
1, 36528, Note_on_c, 0, 83, 64
1, 36551, Note_on_c, 0, 83, 0
1, 36552, Note_on_c, 0, 81, 64
1, 36569, Note_on_c, 1, 66, 0
1, 36569, Note_on_c, 1, 62, 0
1, 36575, Note_on_c, 0, 81, 0
1, 36576, Note_on_c, 0, 79, 64
1, 36599, Note_on_c, 0, 79, 0
1, 36600, Note_on_c, 0, 78, 64
1, 36623, Note_on_c, 0, 78, 0
1, 36624, Note_on_c, 0, 76, 64
1, 36647, Note_on_c, 0, 76, 0
1, 36648, Note_on_c, 0, 74, 64
1, 36671, Note_on_c, 0, 74, 0
1, 36672, Note_on_c, 0, 74, 64
1, 36672, Note_on_c, 1, 67, 75
1, 36672, Note_on_c, 1, 64, 75
1, 36672, Note_on_c, 1, 57, 75
1, 36695, Note_on_c, 0, 74, 0
1, 36696, Note_on_c, 0, 73, 64
1, 36719, Note_on_c, 0, 73, 0
1, 36720, Note_on_c, 0, 71, 64
1, 36743, Note_on_c, 0, 71, 0
1, 36744, Note_on_c, 0, 69, 64
1, 36761, Note_on_c, 1, 67, 0
1, 36761, Note_on_c, 1, 64, 0
1, 36761, Note_on_c, 1, 57, 0
1, 36767, Note_on_c, 0, 69, 0
1, 36768, Note_on_c, 0, 68, 64
1, 36791, Note_on_c, 0, 68, 0
1, 36792, Note_on_c, 0, 69, 64
1, 36815, Note_on_c, 0, 69, 0
1, 36816, Note_on_c, 0, 71, 64
1, 36839, Note_on_c, 0, 71, 0
1, 36840, Note_on_c, 0, 73, 64
1, 36863, Note_on_c, 0, 73, 0
1, 36864, Note_on_c, 0, 74, 64
1, 36864, Note_on_c, 1, 66, 75
1, 36864, Note_on_c, 1, 62, 75
1, 36884, Note_on_c, 0, 74, 0
1, 36912, Note_on_c, 0, 78, 64
1, 36912, Note_on_c, 0, 74, 64
1, 36932, Note_on_c, 0, 78, 0
1, 36932, Note_on_c, 0, 74, 0
1, 36953, Note_on_c, 1, 66, 0
1, 36953, Note_on_c, 1, 62, 0
1, 36960, Note_on_c, 0, 81, 64
1, 36960, Note_on_c, 0, 78, 64
1, 36980, Note_on_c, 0, 81, 0
1, 36980, Note_on_c, 0, 78, 0
1, 37008, Note_on_c, 1, 62, 75
1, 37028, Note_on_c, 1, 62, 0
1, 37056, Note_on_c, 0, 79, 75
1, 37056, Note_on_c, 0, 76, 75
1, 37056, Note_on_c, 0, 69, 75
1, 37056, Note_on_c, 1, 62, 91
1, 37080, Note_on_c, 1, 62, 0
1, 37080, Note_on_c, 1, 61, 75
1, 37103, Note_on_c, 1, 61, 0
1, 37104, Note_on_c, 1, 59, 75
1, 37127, Note_on_c, 1, 59, 0
1, 37128, Note_on_c, 1, 57, 75
1, 37145, Note_on_c, 0, 79, 0
1, 37145, Note_on_c, 0, 76, 0
1, 37145, Note_on_c, 0, 69, 0
1, 37151, Note_on_c, 1, 57, 0
1, 37152, Note_on_c, 1, 56, 75
1, 37175, Note_on_c, 1, 56, 0
1, 37176, Note_on_c, 1, 57, 75
1, 37199, Note_on_c, 1, 57, 0
1, 37200, Note_on_c, 1, 59, 75
1, 37223, Note_on_c, 1, 59, 0
1, 37224, Note_on_c, 1, 61, 75
1, 37247, Note_on_c, 1, 61, 0
1, 37248, Note_on_c, 0, 78, 75
1, 37248, Note_on_c, 0, 74, 75
1, 37248, Note_on_c, 0, 69, 75
1, 37248, Note_on_c, 1, 62, 75
1, 37271, Note_on_c, 1, 62, 0
1, 37272, Note_on_c, 1, 61, 75
1, 37295, Note_on_c, 1, 61, 0
1, 37296, Note_on_c, 1, 59, 75
1, 37319, Note_on_c, 1, 59, 0
1, 37320, Note_on_c, 1, 57, 75
1, 37337, Note_on_c, 0, 78, 0
1, 37337, Note_on_c, 0, 74, 0
1, 37337, Note_on_c, 0, 69, 0
1, 37343, Note_on_c, 1, 57, 0
1, 37344, Note_on_c, 1, 55, 75
1, 37367, Note_on_c, 1, 55, 0
1, 37368, Note_on_c, 1, 54, 75
1, 37391, Note_on_c, 1, 54, 0
1, 37392, Note_on_c, 1, 52, 75
1, 37415, Note_on_c, 1, 52, 0
1, 37416, Note_on_c, 1, 50, 75
1, 37439, Note_on_c, 1, 50, 0
1, 37440, Note_on_c, 0, 79, 75
1, 37440, Note_on_c, 0, 76, 75
1, 37440, Note_on_c, 0, 69, 75
1, 37440, Note_on_c, 1, 50, 75
1, 37463, Note_on_c, 1, 50, 0
1, 37464, Note_on_c, 1, 49, 75
1, 37487, Note_on_c, 1, 49, 0
1, 37488, Note_on_c, 1, 47, 75
1, 37511, Note_on_c, 1, 47, 0
1, 37512, Note_on_c, 1, 45, 75
1, 37529, Note_on_c, 0, 79, 0
1, 37529, Note_on_c, 0, 76, 0
1, 37529, Note_on_c, 0, 69, 0
1, 37535, Note_on_c, 1, 45, 0
1, 37536, Note_on_c, 1, 44, 75
1, 37559, Note_on_c, 1, 44, 0
1, 37560, Note_on_c, 1, 45, 75
1, 37583, Note_on_c, 1, 45, 0
1, 37584, Note_on_c, 1, 47, 75
1, 37607, Note_on_c, 1, 47, 0
1, 37608, Note_on_c, 1, 49, 75
1, 37631, Note_on_c, 1, 49, 0
1, 37632, Note_on_c, 0, 78, 80
1, 37632, Note_on_c, 0, 74, 80
1, 37632, Note_on_c, 0, 69, 80
1, 37632, Note_on_c, 1, 50, 80
1, 37677, Note_on_c, 0, 78, 0
1, 37677, Note_on_c, 0, 74, 0
1, 37677, Note_on_c, 0, 69, 0
1, 37677, Note_on_c, 1, 50, 0
1, 37728, Note_on_c, 0, 86, 80
1, 37728, Note_on_c, 0, 78, 80
1, 37728, Note_on_c, 0, 74, 80
1, 37728, Note_on_c, 1, 47, 80
1, 37728, Note_on_c, 1, 35, 80
1, 37773, Note_on_c, 0, 86, 0
1, 37773, Note_on_c, 0, 78, 0
1, 37773, Note_on_c, 0, 74, 0
1, 37773, Note_on_c, 1, 47, 0
1, 37773, Note_on_c, 1, 35, 0
1, 37824, Note_on_c, 0, 83, 80
1, 37824, Note_on_c, 0, 79, 80
1, 37824, Note_on_c, 0, 71, 80
1, 37824, Note_on_c, 1, 43, 80
1, 37824, Note_on_c, 1, 31, 80
1, 37869, Note_on_c, 0, 83, 0
1, 37869, Note_on_c, 0, 79, 0
1, 37869, Note_on_c, 0, 71, 0
1, 37869, Note_on_c, 1, 43, 0
1, 37869, Note_on_c, 1, 31, 0
1, 37920, Note_on_c, 0, 73, 80
1, 37920, Note_on_c, 0, 67, 80
1, 37920, Note_on_c, 0, 64, 80
1, 37920, Note_on_c, 1, 45, 80
1, 37920, Note_on_c, 1, 33, 80
1, 37965, Note_on_c, 0, 73, 0
1, 37965, Note_on_c, 0, 67, 0
1, 37965, Note_on_c, 0, 64, 0
1, 37965, Note_on_c, 1, 45, 0
1, 37965, Note_on_c, 1, 33, 0
1, 38016, Note_on_c, 0, 74, 80
1, 38016, Note_on_c, 0, 66, 80
1, 38016, Note_on_c, 0, 62, 80
1, 38016, Note_on_c, 1, 50, 80
1, 38016, Note_on_c, 1, 38, 80
1, 38105, Note_on_c, 0, 74, 0
1, 38105, Note_on_c, 0, 66, 0
1, 38105, Note_on_c, 0, 62, 0
1, 38105, Note_on_c, 1, 50, 0
1, 38105, Note_on_c, 1, 38, 0
1, 38160, Note_on_c, 0, 74, 75
1, 38180, Note_on_c, 0, 74, 0
1, 38208, Note_on_c, 0, 74, 91
1, 38208, Note_on_c, 1, 67, 75
1, 38208, Note_on_c, 1, 64, 75
1, 38208, Note_on_c, 1, 57, 75
1, 38232, Note_on_c, 0, 74, 0
1, 38232, Note_on_c, 0, 73, 75
1, 38255, Note_on_c, 0, 73, 0
1, 38256, Note_on_c, 0, 71, 75
1, 38279, Note_on_c, 0, 71, 0
1, 38280, Note_on_c, 0, 69, 75
1, 38297, Note_on_c, 1, 67, 0
1, 38297, Note_on_c, 1, 64, 0
1, 38297, Note_on_c, 1, 57, 0
1, 38303, Note_on_c, 0, 69, 0
1, 38304, Note_on_c, 0, 68, 75
1, 38327, Note_on_c, 0, 68, 0
1, 38328, Note_on_c, 0, 69, 75
1, 38351, Note_on_c, 0, 69, 0
1, 38352, Note_on_c, 0, 71, 75
1, 38375, Note_on_c, 0, 71, 0
1, 38376, Note_on_c, 0, 73, 75
1, 38399, Note_on_c, 0, 73, 0
1, 38400, Note_on_c, 0, 74, 75
1, 38400, Note_on_c, 1, 66, 75
1, 38400, Note_on_c, 1, 62, 75
1, 38489, Note_on_c, 0, 74, 0
1, 38489, Note_on_c, 1, 66, 0
1, 38489, Note_on_c, 1, 62, 0
1, 38544, Note_on_c, 0, 62, 64
1, 38564, Note_on_c, 0, 62, 0
1, 38592, Note_on_c, 0, 61, 64
1, 38592, Note_on_c, 1, 55, 64
1, 38592, Note_on_c, 1, 45, 64
1, 38615, Note_on_c, 0, 61, 0
1, 38616, Note_on_c, 0, 62, 64
1, 38639, Note_on_c, 0, 62, 0
1, 38640, Note_on_c, 0, 64, 64
1, 38663, Note_on_c, 0, 64, 0
1, 38664, Note_on_c, 0, 66, 64
1, 38681, Note_on_c, 1, 55, 0
1, 38681, Note_on_c, 1, 45, 0
1, 38687, Note_on_c, 0, 66, 0
1, 38688, Note_on_c, 0, 69, 64
1, 38711, Note_on_c, 0, 69, 0
1, 38712, Note_on_c, 0, 67, 64
1, 38735, Note_on_c, 0, 67, 0
1, 38736, Note_on_c, 0, 66, 64
1, 38759, Note_on_c, 0, 66, 0
1, 38760, Note_on_c, 0, 64, 64
1, 38783, Note_on_c, 0, 64, 0
1, 38784, Note_on_c, 0, 62, 64
1, 38784, Note_on_c, 1, 54, 64
1, 38784, Note_on_c, 1, 50, 64
1, 38873, Note_on_c, 0, 62, 0
1, 38873, Note_on_c, 1, 54, 0
1, 38873, Note_on_c, 1, 50, 0
1, 38976, Note_on_c, 1, 50, 0
1, 39065, Note_on_c, 1, 50, 0
1, 39075, End_track
0, 0, End_of_file