0, 0, Header, 0, 1, 96
1, 0, Start_track
1, 0, Tempo, 444444
1, 168, Note_on_c, 0, 75, 77
1, 191, Note_on_c, 0, 75, 0
1, 192, Note_on_c, 0, 77, 77
1, 204, Note_on_c, 0, 77, 0
1, 204, Note_on_c, 0, 75, 77
1, 216, Note_on_c, 0, 75, 0
1, 216, Note_on_c, 0, 74, 77
1, 228, Note_on_c, 0, 74, 0
1, 228, Note_on_c, 0, 75, 77
1, 240, Note_on_c, 0, 75, 0
1, 240, Note_on_c, 0, 75, 77
1, 259, Note_on_c, 0, 75, 0
1, 264, Note_on_c, 0, 79, 77
1, 287, Note_on_c, 0, 79, 0
1, 288, Note_on_c, 0, 82, 77
1, 327, Note_on_c, 0, 82, 0
1, 384, Note_on_c, 1, 67, 70
1, 384, Note_on_c, 1, 63, 70
1, 456, Note_on_c, 0, 75, 77
1, 473, Note_on_c, 1, 67, 0
1, 473, Note_on_c, 1, 63, 0
1, 479, Note_on_c, 0, 75, 0
1, 480, Note_on_c, 0, 77, 77
1, 492, Note_on_c, 0, 77, 0
1, 492, Note_on_c, 0, 75, 77
1, 504, Note_on_c, 0, 75, 0
1, 504, Note_on_c, 0, 74, 77
1, 516, Note_on_c, 0, 74, 0
1, 516, Note_on_c, 0, 75, 77
1, 528, Note_on_c, 0, 75, 0
1, 528, Note_on_c, 0, 75, 77
1, 547, Note_on_c, 0, 75, 0
1, 552, Note_on_c, 0, 79, 77
1, 575, Note_on_c, 0, 79, 0
1, 576, Note_on_c, 0, 72, 77
1, 615, Note_on_c, 0, 72, 0
1, 672, Note_on_c, 1, 60, 70
1, 672, Note_on_c, 1, 56, 70
1, 744, Note_on_c, 0, 77, 77
1, 761, Note_on_c, 1, 60, 0
1, 761, Note_on_c, 1, 56, 0
1, 767, Note_on_c, 0, 77, 0
1, 768, Note_on_c, 0, 79, 78
1, 780, Note_on_c, 0, 79, 0
1, 780, Note_on_c, 0, 77, 78
1, 792, Note_on_c, 0, 77, 0
1, 792, Note_on_c, 0, 75, 78
1, 804, Note_on_c, 0, 75, 0
1, 804, Note_on_c, 0, 77, 78
1, 816, Note_on_c, 0, 77, 0
1, 816, Note_on_c, 0, 77, 78
1, 835, Note_on_c, 0, 77, 0
1, 840, Note_on_c, 0, 80, 83
1, 863, Note_on_c, 0, 80, 0
1, 864, Note_on_c, 0, 84, 85
1, 894, Note_on_c, 0, 84, 0
1, 896, Note_on_c, 0, 82, 84
1, 926, Note_on_c, 0, 82, 0
1, 928, Note_on_c, 0, 80, 83
1, 958, Note_on_c, 0, 80, 0
1, 960, Note_on_c, 0, 79, 82
1, 990, Note_on_c, 0, 79, 0
1, 992, Note_on_c, 0, 77, 81
1, 1022, Note_on_c, 0, 77, 0
1, 1024, Note_on_c, 0, 75, 80
1, 1054, Note_on_c, 0, 75, 0
1, 1056, Note_on_c, 0, 74, 80
1, 1056, Note_on_c, 1, 62, 70
1, 1056, Note_on_c, 1, 58, 70
1, 1086, Note_on_c, 0, 74, 0
1, 1088, Note_on_c, 0, 72, 79
1, 1118, Note_on_c, 0, 72, 0
1, 1120, Note_on_c, 0, 70, 78
1, 1145, Note_on_c, 1, 62, 0
1, 1145, Note_on_c, 1, 58, 0
1, 1150, Note_on_c, 0, 70, 0
1, 1152, Note_on_c, 0, 68, 77
1, 1152, Note_on_c, 1, 63, 77
1, 1241, Note_on_c, 1, 63, 0
1, 1248, Note_on_c, 0, 68, 0
1, 1248, Note_on_c, 0, 67, 77
1, 1248, Note_on_c, 1, 51, 77
1, 1315, Note_on_c, 0, 67, 0
1, 1320, Note_on_c, 0, 79, 77
1, 1337, Note_on_c, 1, 51, 0
1, 1343, Note_on_c, 0, 79, 0
1, 1344, Note_on_c, 0, 80, 77
1, 1344, Note_on_c, 1, 70, 77
1, 1344, Note_on_c, 1, 63, 77
1, 1356, Note_on_c, 0, 80, 0
1, 1356, Note_on_c, 0, 79, 77
1, 1368, Note_on_c, 0, 79, 0
1, 1368, Note_on_c, 0, 77, 77
1, 1380, Note_on_c, 0, 77, 0
1, 1380, Note_on_c, 0, 79, 77
1, 1392, Note_on_c, 0, 79, 0
1, 1392, Note_on_c, 0, 79, 77
1, 1411, Note_on_c, 0, 79, 0
1, 1416, Note_on_c, 0, 80, 80
1, 1439, Note_on_c, 0, 80, 0
1, 1440, Note_on_c, 0, 82, 81
1, 1440, Note_on_c, 1, 63, 0
1, 1440, Note_on_c, 1, 62, 64
1, 1479, Note_on_c, 0, 82, 0
1, 1529, Note_on_c, 1, 70, 0
1, 1536, Note_on_c, 1, 70, 77
1, 1608, Note_on_c, 0, 77, 85
1, 1617, Note_on_c, 1, 62, 0
1, 1631, Note_on_c, 0, 77, 0
1, 1632, Note_on_c, 0, 79, 85
1, 1632, Note_on_c, 1, 62, 64
1, 1644, Note_on_c, 0, 79, 0
1, 1644, Note_on_c, 0, 77, 85
1, 1656, Note_on_c, 0, 77, 0
1, 1656, Note_on_c, 0, 75, 85
1, 1668, Note_on_c, 0, 75, 0
1, 1668, Note_on_c, 0, 77, 85
1, 1680, Note_on_c, 0, 77, 0
1, 1680, Note_on_c, 0, 77, 85
1, 1699, Note_on_c, 0, 77, 0
1, 1704, Note_on_c, 0, 79, 85
1, 1721, Note_on_c, 1, 62, 0
1, 1727, Note_on_c, 0, 79, 0
1, 1728, Note_on_c, 0, 77, 85
1, 1728, Note_on_c, 1, 60, 64
1, 1795, Note_on_c, 0, 77, 0
1, 1800, Note_on_c, 0, 76, 83
1, 1817, Note_on_c, 1, 70, 0
1, 1823, Note_on_c, 0, 76, 0
1, 1824, Note_on_c, 0, 75, 82
1, 1824, Note_on_c, 1, 69, 77
1, 1905, Note_on_c, 1, 60, 0
1, 1913, Note_on_c, 1, 69, 0
1, 1920, Note_on_c, 1, 70, 77
1, 1920, Note_on_c, 1, 58, 64
1, 1957, Note_on_c, 0, 75, 0
1, 1968, Note_on_c, 0, 74, 78
1, 2009, Note_on_c, 1, 70, 0
1, 2009, Note_on_c, 1, 58, 0
1, 2013, Note_on_c, 0, 74, 0
1, 2016, Note_on_c, 0, 72, 77
1, 2016, Note_on_c, 1, 67, 77
1, 2016, Note_on_c, 1, 63, 64
1, 2046, Note_on_c, 0, 72, 0
1, 2048, Note_on_c, 0, 75, 78
1, 2078, Note_on_c, 0, 75, 0
1, 2080, Note_on_c, 0, 79, 79
1, 2105, Note_on_c, 1, 67, 0
1, 2105, Note_on_c, 1, 63, 0
1, 2110, Note_on_c, 0, 79, 0
1, 2112, Note_on_c, 0, 70, 80
1, 2112, Note_on_c, 1, 62, 77
1, 2112, Note_on_c, 1, 53, 64
1, 2201, Note_on_c, 0, 70, 0
1, 2201, Note_on_c, 1, 62, 0
1, 2208, Note_on_c, 0, 69, 85
1, 2208, Note_on_c, 1, 60, 77
1, 2221, Note_on_c, 0, 69, 0
1, 2222, Note_on_c, 0, 70, 84
1, 2235, Note_on_c, 0, 70, 0
1, 2236, Note_on_c, 0, 69, 83
1, 2249, Note_on_c, 0, 69, 0
1, 2250, Note_on_c, 0, 70, 82
1, 2263, Note_on_c, 0, 70, 0
1, 2264, Note_on_c, 0, 69, 81
1, 2277, Note_on_c, 0, 69, 0
1, 2278, Note_on_c, 0, 67, 80
1, 2289, Note_on_c, 1, 53, 0
1, 2290, Note_on_c, 0, 67, 0
1, 2291, Note_on_c, 0, 69, 79
1, 2297, Note_on_c, 1, 60, 0
1, 2303, Note_on_c, 0, 69, 0
1, 2304, Note_on_c, 0, 70, 77
1, 2304, Note_on_c, 1, 58, 77
1, 2334, Note_on_c, 1, 58, 0
1, 2336, Note_on_c, 1, 60, 77
1, 2366, Note_on_c, 1, 60, 0
1, 2368, Note_on_c, 1, 62, 77
1, 2398, Note_on_c, 1, 62, 0
1, 2400, Note_on_c, 1, 63, 78
1, 2430, Note_on_c, 1, 63, 0
1, 2432, Note_on_c, 1, 65, 79
1, 2462, Note_on_c, 1, 65, 0
1, 2464, Note_on_c, 1, 67, 79
1, 2494, Note_on_c, 1, 67, 0
1, 2496, Note_on_c, 1, 64, 96
1, 2528, Note_on_c, 1, 64, 0
1, 2528, Note_on_c, 1, 65, 81
1, 2558, Note_on_c, 1, 65, 0
1, 2560, Note_on_c, 1, 67, 81
1, 2590, Note_on_c, 1, 67, 0
1, 2592, Note_on_c, 1, 65, 82
1, 2622, Note_on_c, 0, 70, 0
1, 2624, Note_on_c, 0, 79, 77
1, 2654, Note_on_c, 0, 79, 0
1, 2656, Note_on_c, 0, 77, 77
1, 2681, Note_on_c, 1, 65, 0
1, 2686, Note_on_c, 0, 77, 0
1, 2688, Note_on_c, 0, 75, 77
1, 2718, Note_on_c, 0, 75, 0
1, 2720, Note_on_c, 0, 74, 78
1, 2750, Note_on_c, 0, 74, 0
1, 2752, Note_on_c, 0, 72, 78
1, 2782, Note_on_c, 0, 72, 0
1, 2784, Note_on_c, 0, 70, 79
1, 2784, Note_on_c, 1, 65, 77
1, 2814, Note_on_c, 0, 70, 0
1, 2816, Note_on_c, 0, 69, 79
1, 2846, Note_on_c, 0, 69, 0
1, 2848, Note_on_c, 0, 72, 80
1, 2873, Note_on_c, 1, 65, 0
1, 2878, Note_on_c, 0, 72, 0
1, 2880, Note_on_c, 0, 70, 80
1, 2880, Note_on_c, 1, 67, 78
1, 2910, Note_on_c, 1, 67, 0
1, 2912, Note_on_c, 1, 65, 79
1, 2942, Note_on_c, 1, 65, 0
1, 2944, Note_on_c, 1, 63, 79
1, 2974, Note_on_c, 1, 63, 0
1, 2976, Note_on_c, 1, 62, 80
1, 3006, Note_on_c, 1, 62, 0
1, 3008, Note_on_c, 1, 60, 80
1, 3038, Note_on_c, 1, 60, 0
1, 3040, Note_on_c, 1, 58, 81
1, 3070, Note_on_c, 1, 58, 0
1, 3072, Note_on_c, 1, 67, 81
1, 3102, Note_on_c, 1, 67, 0
1, 3104, Note_on_c, 1, 65, 82
1, 3134, Note_on_c, 1, 65, 0
1, 3136, Note_on_c, 1, 64, 82
1, 3166, Note_on_c, 1, 64, 0
1, 3168, Note_on_c, 1, 65, 83
1, 3198, Note_on_c, 0, 70, 0
1, 3200, Note_on_c, 0, 72, 77
1, 3230, Note_on_c, 0, 72, 0
1, 3232, Note_on_c, 0, 74, 77
1, 3257, Note_on_c, 1, 65, 0
1, 3262, Note_on_c, 0, 74, 0
1, 3264, Note_on_c, 0, 75, 78
1, 3294, Note_on_c, 0, 75, 0
1, 3296, Note_on_c, 0, 77, 79
1, 3326, Note_on_c, 0, 77, 0
1, 3328, Note_on_c, 0, 79, 79
1, 3358, Note_on_c, 0, 79, 0
1, 3360, Note_on_c, 0, 81, 80
1, 3360, Note_on_c, 1, 63, 64
1, 3360, Note_on_c, 1, 53, 64
1, 3390, Note_on_c, 0, 81, 0
1, 3392, Note_on_c, 0, 82, 81
1, 3422, Note_on_c, 0, 82, 0
1, 3424, Note_on_c, 0, 84, 81
1, 3449, Note_on_c, 1, 63, 0
1, 3449, Note_on_c, 1, 53, 0
1, 3454, Note_on_c, 0, 84, 0
1, 3456, Note_on_c, 0, 82, 82
1, 3456, Note_on_c, 1, 62, 64
1, 3456, Note_on_c, 1, 58, 64
1, 3495, Note_on_c, 0, 82, 0
1, 3545, Note_on_c, 1, 62, 0
1, 3545, Note_on_c, 1, 58, 0
1, 3552, Note_on_c, 1, 46, 64
1, 3624, Note_on_c, 0, 75, 77
1, 3641, Note_on_c, 1, 46, 0
1, 3647, Note_on_c, 0, 75, 0
1, 3648, Note_on_c, 0, 77, 77
1, 3660, Note_on_c, 0, 77, 0
1, 3660, Note_on_c, 0, 75, 77
1, 3672, Note_on_c, 0, 75, 0
1, 3672, Note_on_c, 0, 74, 77
1, 3684, Note_on_c, 0, 74, 0
1, 3684, Note_on_c, 0, 75, 77
1, 3696, Note_on_c, 0, 75, 0
1, 3696, Note_on_c, 0, 75, 77
1, 3715, Note_on_c, 0, 75, 0
1, 3720, Note_on_c, 0, 79, 77
1, 3743, Note_on_c, 0, 79, 0
1, 3744, Note_on_c, 0, 82, 77
1, 3783, Note_on_c, 0, 82, 0
1, 3840, Note_on_c, 1, 67, 70
1, 3840, Note_on_c, 1, 63, 70
1, 3912, Note_on_c, 0, 75, 77
1, 3929, Note_on_c, 1, 67, 0
1, 3929, Note_on_c, 1, 63, 0
1, 3935, Note_on_c, 0, 75, 0
1, 3936, Note_on_c, 0, 77, 77
1, 3948, Note_on_c, 0, 77, 0
1, 3948, Note_on_c, 0, 75, 77
1, 3960, Note_on_c, 0, 75, 0
1, 3960, Note_on_c, 0, 74, 77
1, 3972, Note_on_c, 0, 74, 0
1, 3972, Note_on_c, 0, 75, 77
1, 3984, Note_on_c, 0, 75, 0
1, 3984, Note_on_c, 0, 75, 77
1, 4003, Note_on_c, 0, 75, 0
1, 4008, Note_on_c, 0, 79, 77
1, 4031, Note_on_c, 0, 79, 0
1, 4032, Note_on_c, 0, 72, 77
1, 4071, Note_on_c, 0, 72, 0
1, 4128, Note_on_c, 1, 60, 70
1, 4128, Note_on_c, 1, 56, 70
1, 4200, Note_on_c, 0, 77, 77
1, 4217, Note_on_c, 1, 60, 0
1, 4217, Note_on_c, 1, 56, 0
1, 4223, Note_on_c, 0, 77, 0
1, 4224, Note_on_c, 0, 79, 78
1, 4236, Note_on_c, 0, 79, 0
1, 4236, Note_on_c, 0, 77, 78
1, 4248, Note_on_c, 0, 77, 0
1, 4248, Note_on_c, 0, 75, 78
1, 4260, Note_on_c, 0, 75, 0
1, 4260, Note_on_c, 0, 77, 78
1, 4272, Note_on_c, 0, 77, 0
1, 4272, Note_on_c, 0, 77, 78
1, 4291, Note_on_c, 0, 77, 0
1, 4296, Note_on_c, 0, 80, 83
1, 4319, Note_on_c, 0, 80, 0
1, 4320, Note_on_c, 0, 84, 85
1, 4350, Note_on_c, 0, 84, 0
1, 4352, Note_on_c, 0, 82, 84
1, 4382, Note_on_c, 0, 82, 0
1, 4384, Note_on_c, 0, 80, 83
1, 4414, Note_on_c, 0, 80, 0
1, 4416, Note_on_c, 0, 79, 82
1, 4446, Note_on_c, 0, 79, 0
1, 4448, Note_on_c, 0, 77, 81
1, 4478, Note_on_c, 0, 77, 0
1, 4480, Note_on_c, 0, 75, 80
1, 4510, Note_on_c, 0, 75, 0
1, 4512, Note_on_c, 0, 74, 80
1, 4512, Note_on_c, 1, 62, 70
1, 4512, Note_on_c, 1, 58, 70
1, 4542, Note_on_c, 0, 74, 0
1, 4544, Note_on_c, 0, 72, 79
1, 4574, Note_on_c, 0, 72, 0
1, 4576, Note_on_c, 0, 70, 78
1, 4601, Note_on_c, 1, 62, 0
1, 4601, Note_on_c, 1, 58, 0
1, 4606, Note_on_c, 0, 70, 0
1, 4608, Note_on_c, 0, 68, 77
1, 4608, Note_on_c, 1, 63, 77
1, 4697, Note_on_c, 1, 63, 0
1, 4704, Note_on_c, 0, 68, 0
1, 4704, Note_on_c, 0, 67, 77
1, 4704, Note_on_c, 1, 51, 77
1, 4771, Note_on_c, 0, 67, 0
1, 4776, Note_on_c, 0, 79, 77
1, 4793, Note_on_c, 1, 51, 0
1, 4799, Note_on_c, 0, 79, 0
1, 4800, Note_on_c, 0, 80, 77
1, 4800, Note_on_c, 1, 70, 77
1, 4800, Note_on_c, 1, 63, 77
1, 4812, Note_on_c, 0, 80, 0
1, 4812, Note_on_c, 0, 79, 77
1, 4824, Note_on_c, 0, 79, 0
1, 4824, Note_on_c, 0, 77, 77
1, 4836, Note_on_c, 0, 77, 0
1, 4836, Note_on_c, 0, 79, 77
1, 4848, Note_on_c, 0, 79, 0
1, 4848, Note_on_c, 0, 79, 77
1, 4867, Note_on_c, 0, 79, 0
1, 4872, Note_on_c, 0, 80, 80
1, 4895, Note_on_c, 0, 80, 0
1, 4896, Note_on_c, 0, 82, 81
1, 4896, Note_on_c, 1, 63, 0
1, 4896, Note_on_c, 1, 62, 64
1, 4935, Note_on_c, 0, 82, 0
1, 4985, Note_on_c, 1, 70, 0
1, 4992, Note_on_c, 1, 70, 77
1, 5064, Note_on_c, 0, 77, 85
1, 5073, Note_on_c, 1, 62, 0
1, 5087, Note_on_c, 0, 77, 0
1, 5088, Note_on_c, 0, 79, 85
1, 5088, Note_on_c, 1, 62, 64
1, 5100, Note_on_c, 0, 79, 0
1, 5100, Note_on_c, 0, 77, 85
1, 5112, Note_on_c, 0, 77, 0
1, 5112, Note_on_c, 0, 75, 85
1, 5124, Note_on_c, 0, 75, 0
1, 5124, Note_on_c, 0, 77, 85
1, 5136, Note_on_c, 0, 77, 0
1, 5136, Note_on_c, 0, 77, 85
1, 5155, Note_on_c, 0, 77, 0
1, 5160, Note_on_c, 0, 79, 85
1, 5177, Note_on_c, 1, 62, 0
1, 5183, Note_on_c, 0, 79, 0
1, 5184, Note_on_c, 0, 77, 85
1, 5184, Note_on_c, 1, 60, 64
1, 5251, Note_on_c, 0, 77, 0
1, 5256, Note_on_c, 0, 76, 83
1, 5273, Note_on_c, 1, 70, 0
1, 5279, Note_on_c, 0, 76, 0
1, 5280, Note_on_c, 0, 75, 82
1, 5280, Note_on_c, 1, 69, 77
1, 5361, Note_on_c, 1, 60, 0
1, 5369, Note_on_c, 1, 69, 0
1, 5376, Note_on_c, 1, 70, 77
1, 5376, Note_on_c, 1, 58, 64
1, 5413, Note_on_c, 0, 75, 0
1, 5424, Note_on_c, 0, 74, 78
1, 5465, Note_on_c, 1, 70, 0
1, 5465, Note_on_c, 1, 58, 0
1, 5469, Note_on_c, 0, 74, 0
1, 5472, Note_on_c, 0, 72, 77
1, 5472, Note_on_c, 1, 67, 77
1, 5472, Note_on_c, 1, 63, 64
1, 5502, Note_on_c, 0, 72, 0
1, 5504, Note_on_c, 0, 75, 78
1, 5534, Note_on_c, 0, 75, 0
1, 5536, Note_on_c, 0, 79, 79
1, 5561, Note_on_c, 1, 67, 0
1, 5561, Note_on_c, 1, 63, 0
1, 5566, Note_on_c, 0, 79, 0
1, 5568, Note_on_c, 0, 70, 80
1, 5568, Note_on_c, 1, 62, 77
1, 5568, Note_on_c, 1, 53, 64
1, 5657, Note_on_c, 0, 70, 0
1, 5657, Note_on_c, 1, 62, 0
1, 5664, Note_on_c, 0, 69, 85
1, 5664, Note_on_c, 1, 60, 77
1, 5677, Note_on_c, 0, 69, 0
1, 5678, Note_on_c, 0, 70, 84
1, 5691, Note_on_c, 0, 70, 0
1, 5692, Note_on_c, 0, 69, 83
1, 5705, Note_on_c, 0, 69, 0
1, 5706, Note_on_c, 0, 70, 82
1, 5719, Note_on_c, 0, 70, 0
1, 5720, Note_on_c, 0, 69, 81
1, 5733, Note_on_c, 0, 69, 0
1, 5734, Note_on_c, 0, 67, 80
1, 5745, Note_on_c, 1, 53, 0
1, 5746, Note_on_c, 0, 67, 0
1, 5747, Note_on_c, 0, 69, 79
1, 5753, Note_on_c, 1, 60, 0
1, 5759, Note_on_c, 0, 69, 0
1, 5760, Note_on_c, 0, 70, 77
1, 5760, Note_on_c, 1, 58, 77
1, 5790, Note_on_c, 1, 58, 0
1, 5792, Note_on_c, 1, 60, 77
1, 5822, Note_on_c, 1, 60, 0
1, 5824, Note_on_c, 1, 62, 77
1, 5854, Note_on_c, 1, 62, 0
1, 5856, Note_on_c, 1, 63, 78
1, 5886, Note_on_c, 1, 63, 0
1, 5888, Note_on_c, 1, 65, 79
1, 5918, Note_on_c, 1, 65, 0
1, 5920, Note_on_c, 1, 67, 79
1, 5950, Note_on_c, 1, 67, 0
1, 5952, Note_on_c, 1, 64, 96
1, 5984, Note_on_c, 1, 64, 0
1, 5984, Note_on_c, 1, 65, 81
1, 6014, Note_on_c, 1, 65, 0
1, 6016, Note_on_c, 1, 67, 81
1, 6046, Note_on_c, 1, 67, 0
1, 6048, Note_on_c, 1, 65, 82
1, 6078, Note_on_c, 0, 70, 0
1, 6080, Note_on_c, 0, 79, 77
1, 6110, Note_on_c, 0, 79, 0
1, 6112, Note_on_c, 0, 77, 77
1, 6137, Note_on_c, 1, 65, 0
1, 6142, Note_on_c, 0, 77, 0
1, 6144, Note_on_c, 0, 75, 77
1, 6174, Note_on_c, 0, 75, 0
1, 6176, Note_on_c, 0, 74, 78
1, 6206, Note_on_c, 0, 74, 0
1, 6208, Note_on_c, 0, 72, 78
1, 6238, Note_on_c, 0, 72, 0
1, 6240, Note_on_c, 0, 70, 79
1, 6240, Note_on_c, 1, 65, 77
1, 6270, Note_on_c, 0, 70, 0
1, 6272, Note_on_c, 0, 69, 79
1, 6302, Note_on_c, 0, 69, 0
1, 6304, Note_on_c, 0, 72, 80
1, 6329, Note_on_c, 1, 65, 0
1, 6334, Note_on_c, 0, 72, 0
1, 6336, Note_on_c, 0, 70, 80
1, 6336, Note_on_c, 1, 67, 78
1, 6366, Note_on_c, 1, 67, 0
1, 6368, Note_on_c, 1, 65, 79
1, 6398, Note_on_c, 1, 65, 0
1, 6400, Note_on_c, 1, 63, 79
1, 6430, Note_on_c, 1, 63, 0
1, 6432, Note_on_c, 1, 62, 80
1, 6462, Note_on_c, 1, 62, 0
1, 6464, Note_on_c, 1, 60, 80
1, 6494, Note_on_c, 1, 60, 0
1, 6496, Note_on_c, 1, 58, 81
1, 6526, Note_on_c, 1, 58, 0
1, 6528, Note_on_c, 1, 67, 81
1, 6558, Note_on_c, 1, 67, 0
1, 6560, Note_on_c, 1, 65, 82
1, 6590, Note_on_c, 1, 65, 0
1, 6592, Note_on_c, 1, 64, 82
1, 6622, Note_on_c, 1, 64, 0
1, 6624, Note_on_c, 1, 65, 83
1, 6654, Note_on_c, 0, 70, 0
1, 6656, Note_on_c, 0, 72, 77
1, 6686, Note_on_c, 0, 72, 0
1, 6688, Note_on_c, 0, 74, 77
1, 6713, Note_on_c, 1, 65, 0
1, 6718, Note_on_c, 0, 74, 0
1, 6720, Note_on_c, 0, 75, 78
1, 6750, Note_on_c, 0, 75, 0
1, 6752, Note_on_c, 0, 77, 79
1, 6782, Note_on_c, 0, 77, 0
1, 6784, Note_on_c, 0, 79, 79
1, 6814, Note_on_c, 0, 79, 0
1, 6816, Note_on_c, 0, 81, 80
1, 6816, Note_on_c, 1, 63, 64
1, 6816, Note_on_c, 1, 53, 64
1, 6846, Note_on_c, 0, 81, 0
1, 6848, Note_on_c, 0, 82, 81
1, 6878, Note_on_c, 0, 82, 0
1, 6880, Note_on_c, 0, 84, 81
1, 6905, Note_on_c, 1, 63, 0
1, 6905, Note_on_c, 1, 53, 0
1, 6910, Note_on_c, 0, 84, 0
1, 6912, Note_on_c, 0, 82, 82
1, 6912, Note_on_c, 1, 62, 70
1, 6912, Note_on_c, 1, 58, 70
1, 6951, Note_on_c, 0, 82, 0
1, 7001, Note_on_c, 1, 62, 0
1, 7001, Note_on_c, 1, 58, 0
1, 7008, Note_on_c, 1, 46, 70
1, 7080, Note_on_c, 0, 70, 85
1, 7097, Note_on_c, 1, 46, 0
1, 7103, Note_on_c, 0, 70, 0
1, 7104, Note_on_c, 0, 72, 85
1, 7116, Note_on_c, 0, 72, 0
1, 7116, Note_on_c, 0, 70, 85
1, 7128, Note_on_c, 0, 70, 0
1, 7128, Note_on_c, 0, 68, 85
1, 7140, Note_on_c, 0, 68, 0
1, 7140, Note_on_c, 0, 70, 85
1, 7152, Note_on_c, 0, 70, 0
1, 7152, Note_on_c, 0, 70, 85
1, 7171, Note_on_c, 0, 70, 0
1, 7176, Note_on_c, 0, 72, 85
1, 7199, Note_on_c, 0, 72, 0
1, 7200, Note_on_c, 0, 73, 101
1, 7296, Note_on_c, 1, 61, 64
1, 7296, Note_on_c, 1, 58, 64
1, 7326, Note_on_c, 0, 73, 0
1, 7328, Note_on_c, 0, 72, 85
1, 7358, Note_on_c, 0, 72, 0
1, 7360, Note_on_c, 0, 70, 85
1, 7385, Note_on_c, 1, 61, 0
1, 7385, Note_on_c, 1, 58, 0
1, 7390, Note_on_c, 0, 70, 0
1, 7392, Note_on_c, 0, 68, 85
1, 7392, Note_on_c, 1, 61, 64
1, 7392, Note_on_c, 1, 58, 64
1, 7422, Note_on_c, 0, 68, 0
1, 7424, Note_on_c, 0, 67, 85
1, 7454, Note_on_c, 0, 67, 0
1, 7456, Note_on_c, 0, 65, 85
1, 7481, Note_on_c, 1, 61, 0
1, 7481, Note_on_c, 1, 58, 0
1, 7486, Note_on_c, 0, 65, 0
1, 7488, Note_on_c, 0, 64, 85
1, 7488, Note_on_c, 1, 61, 64
1, 7488, Note_on_c, 1, 58, 64
1, 7584, Note_on_c, 0, 64, 0
1, 7584, Note_on_c, 0, 65, 85
1, 7584, Note_on_c, 1, 61, 0
1, 7584, Note_on_c, 1, 58, 0
1, 7584, Note_on_c, 1, 60, 64
1, 7584, Note_on_c, 1, 56, 64
1, 7651, Note_on_c, 0, 65, 0
1, 7656, Note_on_c, 0, 68, 85
1, 7673, Note_on_c, 1, 60, 0
1, 7673, Note_on_c, 1, 56, 0
1, 7679, Note_on_c, 0, 68, 0
1, 7680, Note_on_c, 0, 70, 85
1, 7692, Note_on_c, 0, 70, 0
1, 7692, Note_on_c, 0, 68, 85
1, 7704, Note_on_c, 0, 68, 0
1, 7704, Note_on_c, 0, 67, 85
1, 7716, Note_on_c, 0, 67, 0
1, 7716, Note_on_c, 0, 68, 85
1, 7728, Note_on_c, 0, 68, 0
1, 7728, Note_on_c, 0, 68, 85
1, 7747, Note_on_c, 0, 68, 0
1, 7752, Note_on_c, 0, 70, 85
1, 7775, Note_on_c, 0, 70, 0
1, 7776, Note_on_c, 0, 71, 101
1, 7872, Note_on_c, 1, 59, 64
1, 7872, Note_on_c, 1, 56, 64
1, 7902, Note_on_c, 0, 71, 0
1, 7904, Note_on_c, 0, 70, 85
1, 7934, Note_on_c, 0, 70, 0
1, 7936, Note_on_c, 0, 68, 85
1, 7961, Note_on_c, 1, 59, 0
1, 7961, Note_on_c, 1, 56, 0
1, 7966, Note_on_c, 0, 68, 0
1, 7968, Note_on_c, 0, 66, 85
1, 7968, Note_on_c, 1, 59, 64
1, 7968, Note_on_c, 1, 56, 64
1, 7998, Note_on_c, 0, 66, 0
1, 8000, Note_on_c, 0, 65, 85
1, 8030, Note_on_c, 0, 65, 0
1, 8032, Note_on_c, 0, 63, 85
1, 8057, Note_on_c, 1, 59, 0
1, 8057, Note_on_c, 1, 56, 0
1, 8062, Note_on_c, 0, 63, 0
1, 8064, Note_on_c, 0, 62, 85
1, 8064, Note_on_c, 1, 58, 64
1, 8064, Note_on_c, 1, 56, 64
1, 8160, Note_on_c, 0, 62, 0
1, 8160, Note_on_c, 0, 63, 85
1, 8160, Note_on_c, 1, 56, 0
1, 8160, Note_on_c, 1, 55, 64
1, 8227, Note_on_c, 0, 63, 0
1, 8232, Note_on_c, 0, 63, 85
1, 8241, Note_on_c, 1, 58, 0
1, 8249, Note_on_c, 1, 55, 0
1, 8255, Note_on_c, 0, 63, 0
1, 8256, Note_on_c, 0, 65, 85
1, 8268, Note_on_c, 0, 65, 0
1, 8268, Note_on_c, 0, 63, 85
1, 8280, Note_on_c, 0, 63, 0
1, 8280, Note_on_c, 0, 62, 85
1, 8292, Note_on_c, 0, 62, 0
1, 8292, Note_on_c, 0, 63, 85
1, 8304, Note_on_c, 0, 63, 0
1, 8304, Note_on_c, 0, 63, 85
1, 8323, Note_on_c, 0, 63, 0
1, 8328, Note_on_c, 0, 67, 85
1, 8351, Note_on_c, 0, 67, 0
1, 8352, Note_on_c, 0, 60, 85
1, 8352, Note_on_c, 1, 56, 64
1, 8382, Note_on_c, 0, 60, 0
1, 8384, Note_on_c, 0, 62, 85
1, 8414, Note_on_c, 0, 62, 0
1, 8416, Note_on_c, 0, 63, 85
1, 8441, Note_on_c, 1, 56, 0
1, 8446, Note_on_c, 0, 63, 0
1, 8448, Note_on_c, 0, 65, 85
1, 8478, Note_on_c, 0, 65, 0
1, 8480, Note_on_c, 0, 67, 85
1, 8510, Note_on_c, 0, 67, 0
1, 8512, Note_on_c, 0, 68, 85
1, 8542, Note_on_c, 0, 68, 0
1, 8544, Note_on_c, 0, 62, 85
1, 8544, Note_on_c, 1, 58, 68
1, 8574, Note_on_c, 0, 62, 0
1, 8576, Note_on_c, 0, 63, 85
1, 8583, Note_on_c, 1, 58, 0
1, 8606, Note_on_c, 0, 63, 0
1, 8608, Note_on_c, 0, 65, 85
1, 8638, Note_on_c, 0, 65, 0
1, 8640, Note_on_c, 0, 63, 85
1, 8640, Note_on_c, 1, 60, 71
1, 8670, Note_on_c, 0, 63, 0
1, 8672, Note_on_c, 0, 65, 85
1, 8679, Note_on_c, 1, 60, 0
1, 8702, Note_on_c, 0, 65, 0
1, 8704, Note_on_c, 0, 67, 85
1, 8734, Note_on_c, 0, 67, 0
1, 8736, Note_on_c, 0, 68, 85
1, 8766, Note_on_c, 0, 68, 0
1, 8768, Note_on_c, 0, 70, 85
1, 8798, Note_on_c, 0, 70, 0
1, 8800, Note_on_c, 0, 72, 85
1, 8830, Note_on_c, 0, 72, 0
1, 8832, Note_on_c, 0, 65, 85
1, 8832, Note_on_c, 1, 62, 75
1, 8862, Note_on_c, 0, 65, 0
1, 8864, Note_on_c, 0, 67, 85
1, 8871, Note_on_c, 1, 62, 0
1, 8894, Note_on_c, 0, 67, 0
1, 8896, Note_on_c, 0, 68, 85
1, 8926, Note_on_c, 0, 68, 0
1, 8928, Note_on_c, 0, 67, 85
1, 8928, Note_on_c, 1, 63, 78
1, 8958, Note_on_c, 0, 67, 0
1, 8960, Note_on_c, 0, 68, 85
1, 8967, Note_on_c, 1, 63, 0
1, 8990, Note_on_c, 0, 68, 0
1, 8992, Note_on_c, 0, 70, 85
1, 9022, Note_on_c, 0, 70, 0
1, 9024, Note_on_c, 0, 72, 85
1, 9024, Note_on_c, 1, 60, 80
1, 9054, Note_on_c, 0, 72, 0
1, 9056, Note_on_c, 0, 74, 85
1, 9063, Note_on_c, 1, 60, 0
1, 9086, Note_on_c, 0, 74, 0
1, 9088, Note_on_c, 0, 75, 85
1, 9118, Note_on_c, 0, 75, 0
1, 9120, Note_on_c, 0, 77, 85
1, 9120, Note_on_c, 1, 56, 82
1, 9150, Note_on_c, 0, 77, 0
1, 9152, Note_on_c, 0, 79, 85
1, 9159, Note_on_c, 1, 56, 0
1, 9182, Note_on_c, 0, 79, 0
1, 9184, Note_on_c, 0, 80, 85
1, 9214, Note_on_c, 0, 80, 0
1, 9216, Note_on_c, 0, 79, 85
1, 9216, Note_on_c, 0, 75, 85
1, 9216, Note_on_c, 1, 58, 85
1, 9305, Note_on_c, 1, 58, 0
1, 9312, Note_on_c, 0, 79, 0
1, 9312, Note_on_c, 0, 75, 0
1, 9312, Note_on_c, 0, 77, 81
1, 9312, Note_on_c, 0, 74, 81
1, 9312, Note_on_c, 1, 46, 85
1, 9379, Note_on_c, 0, 77, 0
1, 9379, Note_on_c, 0, 74, 0
1, 9384, Note_on_c, 0, 75, 78
1, 9401, Note_on_c, 1, 46, 0
1, 9407, Note_on_c, 0, 75, 0
1, 9408, Note_on_c, 0, 77, 77
1, 9420, Note_on_c, 0, 77, 0
1, 9420, Note_on_c, 0, 75, 77
1, 9432, Note_on_c, 0, 75, 0
1, 9432, Note_on_c, 0, 74, 77
1, 9444, Note_on_c, 0, 74, 0
1, 9444, Note_on_c, 0, 75, 77
1, 9456, Note_on_c, 0, 75, 0
1, 9456, Note_on_c, 0, 75, 77
1, 9475, Note_on_c, 0, 75, 0
1, 9480, Note_on_c, 0, 79, 77
1, 9503, Note_on_c, 0, 79, 0
1, 9504, Note_on_c, 0, 82, 77
1, 9543, Note_on_c, 0, 82, 0
1, 9600, Note_on_c, 1, 67, 70
1, 9600, Note_on_c, 1, 63, 70
1, 9672, Note_on_c, 0, 75, 77
1, 9689, Note_on_c, 1, 67, 0
1, 9689, Note_on_c, 1, 63, 0
1, 9695, Note_on_c, 0, 75, 0
1, 9696, Note_on_c, 0, 77, 77
1, 9708, Note_on_c, 0, 77, 0
1, 9708, Note_on_c, 0, 75, 77
1, 9720, Note_on_c, 0, 75, 0
1, 9720, Note_on_c, 0, 74, 77
1, 9732, Note_on_c, 0, 74, 0
1, 9732, Note_on_c, 0, 75, 77
1, 9744, Note_on_c, 0, 75, 0
1, 9744, Note_on_c, 0, 75, 77
1, 9763, Note_on_c, 0, 75, 0
1, 9768, Note_on_c, 0, 79, 77
1, 9791, Note_on_c, 0, 79, 0
1, 9792, Note_on_c, 0, 72, 77
1, 9831, Note_on_c, 0, 72, 0
1, 9888, Note_on_c, 1, 60, 70
1, 9888, Note_on_c, 1, 56, 70
1, 9960, Note_on_c, 0, 77, 77
1, 9977, Note_on_c, 1, 60, 0
1, 9977, Note_on_c, 1, 56, 0
1, 9983, Note_on_c, 0, 77, 0
1, 9984, Note_on_c, 0, 79, 78
1, 9996, Note_on_c, 0, 79, 0
1, 9996, Note_on_c, 0, 77, 78
1, 10008, Note_on_c, 0, 77, 0
1, 10008, Note_on_c, 0, 75, 78
1, 10020, Note_on_c, 0, 75, 0
1, 10020, Note_on_c, 0, 77, 78
1, 10032, Note_on_c, 0, 77, 0
1, 10032, Note_on_c, 0, 77, 78
1, 10051, Note_on_c, 0, 77, 0
1, 10056, Note_on_c, 0, 80, 83
1, 10079, Note_on_c, 0, 80, 0
1, 10080, Note_on_c, 0, 84, 85
1, 10110, Note_on_c, 0, 84, 0
1, 10112, Note_on_c, 0, 82, 84
1, 10142, Note_on_c, 0, 82, 0
1, 10144, Note_on_c, 0, 80, 83
1, 10174, Note_on_c, 0, 80, 0
1, 10176, Note_on_c, 0, 79, 82
1, 10206, Note_on_c, 0, 79, 0
1, 10208, Note_on_c, 0, 77, 81
1, 10238, Note_on_c, 0, 77, 0
1, 10240, Note_on_c, 0, 75, 80
1, 10270, Note_on_c, 0, 75, 0
1, 10272, Note_on_c, 0, 74, 80
1, 10272, Note_on_c, 1, 62, 70
1, 10272, Note_on_c, 1, 58, 70
1, 10302, Note_on_c, 0, 74, 0
1, 10304, Note_on_c, 0, 72, 79
1, 10334, Note_on_c, 0, 72, 0
1, 10336, Note_on_c, 0, 70, 78
1, 10361, Note_on_c, 1, 62, 0
1, 10361, Note_on_c, 1, 58, 0
1, 10366, Note_on_c, 0, 70, 0
1, 10368, Note_on_c, 0, 68, 77
1, 10368, Note_on_c, 1, 63, 77
1, 10457, Note_on_c, 1, 63, 0
1, 10464, Note_on_c, 0, 68, 0
1, 10464, Note_on_c, 0, 67, 79
1, 10464, Note_on_c, 1, 51, 77
1, 10531, Note_on_c, 0, 67, 0
1, 10536, Note_on_c, 0, 72, 81
1, 10553, Note_on_c, 1, 51, 0
1, 10559, Note_on_c, 0, 72, 0
1, 10560, Note_on_c, 0, 74, 82
1, 10560, Note_on_c, 1, 56, 77
1, 10560, Note_on_c, 1, 63, 64
1, 10572, Note_on_c, 0, 74, 0
1, 10572, Note_on_c, 0, 72, 82
1, 10584, Note_on_c, 0, 72, 0
1, 10584, Note_on_c, 0, 70, 82
1, 10596, Note_on_c, 0, 70, 0
1, 10596, Note_on_c, 0, 72, 82
1, 10608, Note_on_c, 0, 72, 0
1, 10608, Note_on_c, 0, 72, 82
1, 10627, Note_on_c, 0, 72, 0
1, 10632, Note_on_c, 0, 74, 84
1, 10649, Note_on_c, 1, 56, 0
1, 10655, Note_on_c, 0, 74, 0
1, 10656, Note_on_c, 0, 75, 85
1, 10656, Note_on_c, 1, 55, 77
1, 10695, Note_on_c, 0, 75, 0
1, 10745, Note_on_c, 1, 63, 0
1, 10752, Note_on_c, 1, 63, 64
1, 10824, Note_on_c, 0, 70, 85
1, 10833, Note_on_c, 1, 55, 0
1, 10847, Note_on_c, 0, 70, 0
1, 10848, Note_on_c, 0, 72, 85
1, 10848, Note_on_c, 1, 55, 77
1, 10860, Note_on_c, 0, 72, 0
1, 10860, Note_on_c, 0, 70, 85
1, 10872, Note_on_c, 0, 70, 0
1, 10872, Note_on_c, 0, 68, 85
1, 10884, Note_on_c, 0, 68, 0
1, 10884, Note_on_c, 0, 70, 85
1, 10896, Note_on_c, 0, 70, 0
1, 10896, Note_on_c, 0, 70, 85
1, 10915, Note_on_c, 0, 70, 0
1, 10920, Note_on_c, 0, 72, 85
1, 10937, Note_on_c, 1, 55, 0
1, 10943, Note_on_c, 0, 72, 0
1, 10944, Note_on_c, 0, 70, 85
1, 10944, Note_on_c, 1, 53, 77
1, 11011, Note_on_c, 0, 70, 0
1, 11016, Note_on_c, 0, 69, 82
1, 11033, Note_on_c, 1, 63, 0
1, 11039, Note_on_c, 0, 69, 0
1, 11040, Note_on_c, 0, 68, 81
1, 11040, Note_on_c, 1, 62, 64
1, 11121, Note_on_c, 1, 53, 0
1, 11129, Note_on_c, 1, 62, 0
1, 11136, Note_on_c, 1, 51, 77
1, 11136, Note_on_c, 1, 63, 64
1, 11173, Note_on_c, 0, 68, 0
1, 11184, Note_on_c, 0, 67, 77
1, 11225, Note_on_c, 1, 51, 0
1, 11225, Note_on_c, 1, 63, 0
1, 11229, Note_on_c, 0, 67, 0
1, 11232, Note_on_c, 0, 65, 77
1, 11232, Note_on_c, 1, 56, 77
1, 11232, Note_on_c, 1, 60, 64
1, 11262, Note_on_c, 0, 65, 0
1, 11264, Note_on_c, 0, 68, 77
1, 11294, Note_on_c, 0, 68, 0
1, 11296, Note_on_c, 0, 72, 77
1, 11321, Note_on_c, 1, 56, 0
1, 11321, Note_on_c, 1, 60, 0
1, 11326, Note_on_c, 0, 72, 0
1, 11328, Note_on_c, 0, 63, 77
1, 11328, Note_on_c, 1, 46, 77
1, 11328, Note_on_c, 1, 55, 64
1, 11417, Note_on_c, 0, 63, 0
1, 11417, Note_on_c, 1, 55, 0
1, 11424, Note_on_c, 0, 62, 77
1, 11424, Note_on_c, 1, 53, 64
1, 11437, Note_on_c, 0, 62, 0
1, 11438, Note_on_c, 0, 63, 77
1, 11451, Note_on_c, 0, 63, 0
1, 11452, Note_on_c, 0, 62, 77
1, 11465, Note_on_c, 0, 62, 0
1, 11466, Note_on_c, 0, 63, 77
1, 11479, Note_on_c, 0, 63, 0
1, 11480, Note_on_c, 0, 62, 77
1, 11493, Note_on_c, 0, 62, 0
1, 11494, Note_on_c, 0, 60, 77
1, 11505, Note_on_c, 1, 46, 0
1, 11506, Note_on_c, 0, 60, 0
1, 11507, Note_on_c, 0, 62, 77
1, 11513, Note_on_c, 1, 53, 0
1, 11519, Note_on_c, 0, 62, 0
1, 11520, Note_on_c, 0, 63, 77
1, 11520, Note_on_c, 1, 51, 77
1, 11550, Note_on_c, 1, 51, 0
1, 11552, Note_on_c, 1, 53, 77
1, 11582, Note_on_c, 1, 53, 0
1, 11584, Note_on_c, 1, 55, 78
1, 11614, Note_on_c, 1, 55, 0
1, 11616, Note_on_c, 1, 56, 78
1, 11646, Note_on_c, 1, 56, 0
1, 11648, Note_on_c, 1, 58, 79
1, 11678, Note_on_c, 1, 58, 0
1, 11680, Note_on_c, 1, 60, 80
1, 11710, Note_on_c, 1, 60, 0
1, 11712, Note_on_c, 1, 57, 96
1, 11744, Note_on_c, 1, 57, 0
1, 11744, Note_on_c, 1, 58, 81
1, 11774, Note_on_c, 1, 58, 0
1, 11776, Note_on_c, 1, 60, 82
1, 11806, Note_on_c, 1, 60, 0
1, 11808, Note_on_c, 1, 58, 82
1, 11838, Note_on_c, 0, 63, 0
1, 11840, Note_on_c, 0, 72, 85
1, 11870, Note_on_c, 0, 72, 0
1, 11872, Note_on_c, 0, 70, 84
1, 11897, Note_on_c, 1, 58, 0
1, 11902, Note_on_c, 0, 70, 0
1, 11904, Note_on_c, 0, 68, 83
1, 11934, Note_on_c, 0, 68, 0
1, 11936, Note_on_c, 0, 67, 82
1, 11966, Note_on_c, 0, 67, 0
1, 11968, Note_on_c, 0, 65, 81
1, 11998, Note_on_c, 0, 65, 0
1, 12000, Note_on_c, 0, 63, 80
1, 12000, Note_on_c, 1, 58, 77
1, 12030, Note_on_c, 0, 63, 0
1, 12032, Note_on_c, 0, 62, 79
1, 12062, Note_on_c, 0, 62, 0
1, 12064, Note_on_c, 0, 65, 78
1, 12089, Note_on_c, 1, 58, 0
1, 12094, Note_on_c, 0, 65, 0
1, 12096, Note_on_c, 0, 67, 85
1, 12096, Note_on_c, 1, 51, 77
1, 12126, Note_on_c, 0, 67, 0
1, 12126, Note_on_c, 1, 51, 0
1, 12128, Note_on_c, 0, 68, 85
1, 12128, Note_on_c, 1, 53, 77
1, 12158, Note_on_c, 0, 68, 0
1, 12158, Note_on_c, 1, 53, 0
1, 12160, Note_on_c, 0, 70, 86
1, 12160, Note_on_c, 1, 55, 78
1, 12190, Note_on_c, 0, 70, 0
1, 12190, Note_on_c, 1, 55, 0
1, 12192, Note_on_c, 0, 72, 86
1, 12192, Note_on_c, 1, 56, 78
1, 12222, Note_on_c, 0, 72, 0
1, 12222, Note_on_c, 1, 56, 0
1, 12224, Note_on_c, 0, 74, 87
1, 12224, Note_on_c, 1, 58, 79
1, 12254, Note_on_c, 0, 74, 0
1, 12254, Note_on_c, 1, 58, 0
1, 12256, Note_on_c, 0, 75, 88
1, 12256, Note_on_c, 1, 60, 80
1, 12286, Note_on_c, 0, 75, 0
1, 12286, Note_on_c, 1, 60, 0
1, 12288, Note_on_c, 0, 77, 88
1, 12288, Note_on_c, 1, 62, 80
1, 12318, Note_on_c, 0, 77, 0
1, 12318, Note_on_c, 1, 62, 0
1, 12320, Note_on_c, 0, 79, 89
1, 12320, Note_on_c, 1, 63, 81
1, 12350, Note_on_c, 0, 79, 0
1, 12350, Note_on_c, 1, 63, 0
1, 12352, Note_on_c, 0, 80, 90
1, 12352, Note_on_c, 1, 65, 82
1, 12382, Note_on_c, 0, 80, 0
1, 12382, Note_on_c, 1, 65, 0
1, 12384, Note_on_c, 0, 82, 90
1, 12384, Note_on_c, 1, 67, 82
1, 12414, Note_on_c, 0, 82, 0
1, 12416, Note_on_c, 0, 84, 92
1, 12446, Note_on_c, 0, 84, 0
1, 12448, Note_on_c, 0, 82, 90
1, 12473, Note_on_c, 1, 67, 0
1, 12478, Note_on_c, 0, 82, 0
1, 12480, Note_on_c, 0, 80, 89
1, 12510, Note_on_c, 0, 80, 0
1, 12512, Note_on_c, 0, 79, 88
1, 12542, Note_on_c, 0, 79, 0
1, 12544, Note_on_c, 0, 77, 87
1, 12574, Note_on_c, 0, 77, 0
1, 12576, Note_on_c, 0, 75, 86
1, 12576, Note_on_c, 1, 68, 70
1, 12576, Note_on_c, 1, 58, 70
1, 12606, Note_on_c, 0, 75, 0
1, 12608, Note_on_c, 0, 74, 85
1, 12638, Note_on_c, 0, 74, 0
1, 12640, Note_on_c, 0, 77, 85
1, 12665, Note_on_c, 1, 68, 0
1, 12665, Note_on_c, 1, 58, 0
1, 12670, Note_on_c, 0, 77, 0
1, 12672, Note_on_c, 0, 75, 85
1, 12672, Note_on_c, 1, 67, 70
1, 12672, Note_on_c, 1, 63, 70
1, 12761, Note_on_c, 0, 75, 0
1, 12761, Note_on_c, 1, 67, 0
1, 12761, Note_on_c, 1, 63, 0
1, 12768, Note_on_c, 1, 51, 70
1, 12840, Note_on_c, 0, 70, 85
1, 12857, Note_on_c, 1, 51, 0
1, 12863, Note_on_c, 0, 70, 0
1, 12864, Note_on_c, 0, 72, 85
1, 12876, Note_on_c, 0, 72, 0
1, 12876, Note_on_c, 0, 70, 85
1, 12888, Note_on_c, 0, 70, 0
1, 12888, Note_on_c, 0, 68, 85
1, 12900, Note_on_c, 0, 68, 0
1, 12900, Note_on_c, 0, 70, 85
1, 12912, Note_on_c, 0, 70, 0
1, 12912, Note_on_c, 0, 70, 85
1, 12931, Note_on_c, 0, 70, 0
1, 12936, Note_on_c, 0, 72, 85
1, 12959, Note_on_c, 0, 72, 0
1, 12960, Note_on_c, 0, 73, 86
1, 13056, Note_on_c, 1, 61, 64
1, 13056, Note_on_c, 1, 58, 64
1, 13086, Note_on_c, 0, 73, 0
1, 13088, Note_on_c, 0, 72, 70
1, 13118, Note_on_c, 0, 72, 0
1, 13120, Note_on_c, 0, 70, 70
1, 13145, Note_on_c, 1, 61, 0
1, 13145, Note_on_c, 1, 58, 0
1, 13150, Note_on_c, 0, 70, 0
1, 13152, Note_on_c, 0, 68, 70
1, 13152, Note_on_c, 1, 61, 64
1, 13152, Note_on_c, 1, 58, 64
1, 13182, Note_on_c, 0, 68, 0
1, 13184, Note_on_c, 0, 67, 70
1, 13214, Note_on_c, 0, 67, 0
1, 13216, Note_on_c, 0, 65, 70
1, 13241, Note_on_c, 1, 61, 0
1, 13241, Note_on_c, 1, 58, 0
1, 13246, Note_on_c, 0, 65, 0
1, 13248, Note_on_c, 0, 64, 70
1, 13248, Note_on_c, 1, 61, 64
1, 13248, Note_on_c, 1, 58, 64
1, 13344, Note_on_c, 0, 64, 0
1, 13344, Note_on_c, 0, 65, 70
1, 13344, Note_on_c, 1, 61, 0
1, 13344, Note_on_c, 1, 58, 0
1, 13344, Note_on_c, 1, 60, 64
1, 13344, Note_on_c, 1, 56, 64
1, 13411, Note_on_c, 0, 65, 0
1, 13416, Note_on_c, 0, 68, 70
1, 13433, Note_on_c, 1, 60, 0
1, 13433, Note_on_c, 1, 56, 0
1, 13439, Note_on_c, 0, 68, 0
1, 13440, Note_on_c, 0, 70, 70
1, 13452, Note_on_c, 0, 70, 0
1, 13452, Note_on_c, 0, 68, 70
1, 13464, Note_on_c, 0, 68, 0
1, 13464, Note_on_c, 0, 67, 70
1, 13476, Note_on_c, 0, 67, 0
1, 13476, Note_on_c, 0, 68, 70
1, 13488, Note_on_c, 0, 68, 0
1, 13488, Note_on_c, 0, 68, 70
1, 13507, Note_on_c, 0, 68, 0
1, 13512, Note_on_c, 0, 70, 70
1, 13535, Note_on_c, 0, 70, 0
1, 13536, Note_on_c, 0, 71, 86
1, 13632, Note_on_c, 1, 59, 64
1, 13632, Note_on_c, 1, 56, 64
1, 13662, Note_on_c, 0, 71, 0
1, 13664, Note_on_c, 0, 70, 70
1, 13694, Note_on_c, 0, 70, 0
1, 13696, Note_on_c, 0, 68, 70
1, 13721, Note_on_c, 1, 59, 0
1, 13721, Note_on_c, 1, 56, 0
1, 13726, Note_on_c, 0, 68, 0
1, 13728, Note_on_c, 0, 66, 70
1, 13728, Note_on_c, 1, 59, 64
1, 13728, Note_on_c, 1, 56, 64
1, 13758, Note_on_c, 0, 66, 0
1, 13760, Note_on_c, 0, 65, 70
1, 13790, Note_on_c, 0, 65, 0
1, 13792, Note_on_c, 0, 63, 70
1, 13817, Note_on_c, 1, 59, 0
1, 13817, Note_on_c, 1, 56, 0
1, 13822, Note_on_c, 0, 63, 0
1, 13824, Note_on_c, 0, 62, 70
1, 13824, Note_on_c, 1, 58, 64
1, 13824, Note_on_c, 1, 56, 64
1, 13920, Note_on_c, 0, 62, 0
1, 13920, Note_on_c, 0, 63, 70
1, 13920, Note_on_c, 1, 56, 0
1, 13920, Note_on_c, 1, 55, 64
1, 13987, Note_on_c, 0, 63, 0
1, 13992, Note_on_c, 0, 63, 70
1, 14001, Note_on_c, 1, 58, 0
1, 14009, Note_on_c, 1, 55, 0
1, 14015, Note_on_c, 0, 63, 0
1, 14016, Note_on_c, 0, 65, 70
1, 14028, Note_on_c, 0, 65, 0
1, 14028, Note_on_c, 0, 63, 70
1, 14040, Note_on_c, 0, 63, 0
1, 14040, Note_on_c, 0, 62, 70
1, 14052, Note_on_c, 0, 62, 0
1, 14052, Note_on_c, 0, 63, 70
1, 14064, Note_on_c, 0, 63, 0
1, 14064, Note_on_c, 0, 63, 70
1, 14083, Note_on_c, 0, 63, 0
1, 14088, Note_on_c, 0, 67, 70
1, 14111, Note_on_c, 0, 67, 0
1, 14112, Note_on_c, 0, 60, 70
1, 14112, Note_on_c, 1, 56, 64
1, 14142, Note_on_c, 0, 60, 0
1, 14144, Note_on_c, 0, 62, 70
1, 14174, Note_on_c, 0, 62, 0
1, 14176, Note_on_c, 0, 63, 70
1, 14201, Note_on_c, 1, 56, 0
1, 14206, Note_on_c, 0, 63, 0
1, 14208, Note_on_c, 0, 65, 70
1, 14238, Note_on_c, 0, 65, 0
1, 14240, Note_on_c, 0, 67, 70
1, 14270, Note_on_c, 0, 67, 0
1, 14272, Note_on_c, 0, 68, 70
1, 14302, Note_on_c, 0, 68, 0
1, 14304, Note_on_c, 0, 62, 70
1, 14304, Note_on_c, 1, 58, 68
1, 14334, Note_on_c, 0, 62, 0
1, 14336, Note_on_c, 0, 63, 70
1, 14343, Note_on_c, 1, 58, 0
1, 14366, Note_on_c, 0, 63, 0
1, 14368, Note_on_c, 0, 65, 70
1, 14398, Note_on_c, 0, 65, 0
1, 14400, Note_on_c, 0, 63, 70
1, 14400, Note_on_c, 1, 60, 71
1, 14430, Note_on_c, 0, 63, 0
1, 14432, Note_on_c, 0, 65, 70
1, 14439, Note_on_c, 1, 60, 0
1, 14462, Note_on_c, 0, 65, 0
1, 14464, Note_on_c, 0, 67, 70
1, 14494, Note_on_c, 0, 67, 0
1, 14496, Note_on_c, 0, 68, 70
1, 14526, Note_on_c, 0, 68, 0
1, 14528, Note_on_c, 0, 70, 70
1, 14558, Note_on_c, 0, 70, 0
1, 14560, Note_on_c, 0, 72, 70
1, 14590, Note_on_c, 0, 72, 0
1, 14592, Note_on_c, 0, 65, 70
1, 14592, Note_on_c, 1, 62, 75
1, 14622, Note_on_c, 0, 65, 0
1, 14624, Note_on_c, 0, 67, 70
1, 14631, Note_on_c, 1, 62, 0
1, 14654, Note_on_c, 0, 67, 0
1, 14656, Note_on_c, 0, 68, 70
1, 14686, Note_on_c, 0, 68, 0
1, 14688, Note_on_c, 0, 67, 70
1, 14688, Note_on_c, 1, 63, 78
1, 14718, Note_on_c, 0, 67, 0
1, 14720, Note_on_c, 0, 68, 70
1, 14727, Note_on_c, 1, 63, 0
1, 14750, Note_on_c, 0, 68, 0
1, 14752, Note_on_c, 0, 70, 70
1, 14782, Note_on_c, 0, 70, 0
1, 14784, Note_on_c, 0, 72, 70
1, 14784, Note_on_c, 1, 60, 80
1, 14814, Note_on_c, 0, 72, 0
1, 14816, Note_on_c, 0, 74, 70
1, 14823, Note_on_c, 1, 60, 0
1, 14846, Note_on_c, 0, 74, 0
1, 14848, Note_on_c, 0, 75, 70
1, 14878, Note_on_c, 0, 75, 0
1, 14880, Note_on_c, 0, 77, 70
1, 14880, Note_on_c, 1, 56, 82
1, 14910, Note_on_c, 0, 77, 0
1, 14912, Note_on_c, 0, 79, 70
1, 14919, Note_on_c, 1, 56, 0
1, 14942, Note_on_c, 0, 79, 0
1, 14944, Note_on_c, 0, 80, 70
1, 14974, Note_on_c, 0, 80, 0
1, 14976, Note_on_c, 0, 79, 85
1, 14976, Note_on_c, 0, 75, 85
1, 14976, Note_on_c, 1, 58, 85
1, 15065, Note_on_c, 1, 58, 0
1, 15072, Note_on_c, 0, 79, 0
1, 15072, Note_on_c, 0, 75, 0
1, 15072, Note_on_c, 0, 77, 81
1, 15072, Note_on_c, 0, 74, 81
1, 15072, Note_on_c, 1, 46, 85
1, 15139, Note_on_c, 0, 77, 0
1, 15139, Note_on_c, 0, 74, 0
1, 15144, Note_on_c, 0, 75, 78
1, 15161, Note_on_c, 1, 46, 0
1, 15167, Note_on_c, 0, 75, 0
1, 15168, Note_on_c, 0, 77, 77
1, 15180, Note_on_c, 0, 77, 0
1, 15180, Note_on_c, 0, 75, 77
1, 15192, Note_on_c, 0, 75, 0
1, 15192, Note_on_c, 0, 74, 77
1, 15204, Note_on_c, 0, 74, 0
1, 15204, Note_on_c, 0, 75, 77
1, 15216, Note_on_c, 0, 75, 0
1, 15216, Note_on_c, 0, 75, 77
1, 15235, Note_on_c, 0, 75, 0
1, 15240, Note_on_c, 0, 79, 77
1, 15263, Note_on_c, 0, 79, 0
1, 15264, Note_on_c, 0, 82, 77
1, 15303, Note_on_c, 0, 82, 0
1, 15360, Note_on_c, 1, 67, 70
1, 15360, Note_on_c, 1, 63, 70
1, 15432, Note_on_c, 0, 75, 77
1, 15449, Note_on_c, 1, 67, 0
1, 15449, Note_on_c, 1, 63, 0
1, 15455, Note_on_c, 0, 75, 0
1, 15456, Note_on_c, 0, 77, 77
1, 15468, Note_on_c, 0, 77, 0
1, 15468, Note_on_c, 0, 75, 77
1, 15480, Note_on_c, 0, 75, 0
1, 15480, Note_on_c, 0, 74, 77
1, 15492, Note_on_c, 0, 74, 0
1, 15492, Note_on_c, 0, 75, 77
1, 15504, Note_on_c, 0, 75, 0
1, 15504, Note_on_c, 0, 75, 77
1, 15523, Note_on_c, 0, 75, 0
1, 15528, Note_on_c, 0, 79, 77
1, 15551, Note_on_c, 0, 79, 0
1, 15552, Note_on_c, 0, 72, 77
1, 15591, Note_on_c, 0, 72, 0
1, 15648, Note_on_c, 1, 60, 70
1, 15648, Note_on_c, 1, 56, 70
1, 15720, Note_on_c, 0, 77, 77
1, 15737, Note_on_c, 1, 60, 0
1, 15737, Note_on_c, 1, 56, 0
1, 15743, Note_on_c, 0, 77, 0
1, 15744, Note_on_c, 0, 79, 78
1, 15756, Note_on_c, 0, 79, 0
1, 15756, Note_on_c, 0, 77, 78
1, 15768, Note_on_c, 0, 77, 0
1, 15768, Note_on_c, 0, 75, 78
1, 15780, Note_on_c, 0, 75, 0
1, 15780, Note_on_c, 0, 77, 78
1, 15792, Note_on_c, 0, 77, 0
1, 15792, Note_on_c, 0, 77, 78
1, 15811, Note_on_c, 0, 77, 0
1, 15816, Note_on_c, 0, 80, 83
1, 15839, Note_on_c, 0, 80, 0
1, 15840, Note_on_c, 0, 84, 85
1, 15870, Note_on_c, 0, 84, 0
1, 15872, Note_on_c, 0, 82, 84
1, 15902, Note_on_c, 0, 82, 0
1, 15904, Note_on_c, 0, 80, 83
1, 15934, Note_on_c, 0, 80, 0
1, 15936, Note_on_c, 0, 79, 82
1, 15966, Note_on_c, 0, 79, 0
1, 15968, Note_on_c, 0, 77, 81
1, 15998, Note_on_c, 0, 77, 0
1, 16000, Note_on_c, 0, 75, 80
1, 16030, Note_on_c, 0, 75, 0
1, 16032, Note_on_c, 0, 74, 80
1, 16032, Note_on_c, 1, 62, 70
1, 16032, Note_on_c, 1, 58, 70
1, 16062, Note_on_c, 0, 74, 0
1, 16064, Note_on_c, 0, 72, 79
1, 16094, Note_on_c, 0, 72, 0
1, 16096, Note_on_c, 0, 70, 78
1, 16121, Note_on_c, 1, 62, 0
1, 16121, Note_on_c, 1, 58, 0
1, 16126, Note_on_c, 0, 70, 0
1, 16128, Note_on_c, 0, 68, 77
1, 16128, Note_on_c, 1, 63, 77
1, 16217, Note_on_c, 1, 63, 0
1, 16224, Note_on_c, 0, 68, 0
1, 16224, Note_on_c, 0, 67, 79
1, 16224, Note_on_c, 1, 51, 77
1, 16291, Note_on_c, 0, 67, 0
1, 16296, Note_on_c, 0, 72, 81
1, 16313, Note_on_c, 1, 51, 0
1, 16319, Note_on_c, 0, 72, 0
1, 16320, Note_on_c, 0, 74, 82
1, 16320, Note_on_c, 1, 56, 77
1, 16320, Note_on_c, 1, 63, 64
1, 16332, Note_on_c, 0, 74, 0
1, 16332, Note_on_c, 0, 72, 82
1, 16344, Note_on_c, 0, 72, 0
1, 16344, Note_on_c, 0, 70, 82
1, 16356, Note_on_c, 0, 70, 0
1, 16356, Note_on_c, 0, 72, 82
1, 16368, Note_on_c, 0, 72, 0
1, 16368, Note_on_c, 0, 72, 82
1, 16387, Note_on_c, 0, 72, 0
1, 16392, Note_on_c, 0, 74, 84
1, 16409, Note_on_c, 1, 56, 0
1, 16415, Note_on_c, 0, 74, 0
1, 16416, Note_on_c, 0, 75, 85
1, 16416, Note_on_c, 1, 55, 77
1, 16455, Note_on_c, 0, 75, 0
1, 16505, Note_on_c, 1, 63, 0
1, 16512, Note_on_c, 1, 63, 64
1, 16584, Note_on_c, 0, 70, 85
1, 16593, Note_on_c, 1, 55, 0
1, 16607, Note_on_c, 0, 70, 0
1, 16608, Note_on_c, 0, 72, 85
1, 16608, Note_on_c, 1, 55, 77
1, 16620, Note_on_c, 0, 72, 0
1, 16620, Note_on_c, 0, 70, 85
1, 16632, Note_on_c, 0, 70, 0
1, 16632, Note_on_c, 0, 68, 85
1, 16644, Note_on_c, 0, 68, 0
1, 16644, Note_on_c, 0, 70, 85
1, 16656, Note_on_c, 0, 70, 0
1, 16656, Note_on_c, 0, 70, 85
1, 16675, Note_on_c, 0, 70, 0
1, 16680, Note_on_c, 0, 72, 85
1, 16697, Note_on_c, 1, 55, 0
1, 16703, Note_on_c, 0, 72, 0
1, 16704, Note_on_c, 0, 70, 85
1, 16704, Note_on_c, 1, 53, 77
1, 16771, Note_on_c, 0, 70, 0
1, 16776, Note_on_c, 0, 69, 82
1, 16793, Note_on_c, 1, 63, 0
1, 16799, Note_on_c, 0, 69, 0
1, 16800, Note_on_c, 0, 68, 81
1, 16800, Note_on_c, 1, 62, 64
1, 16881, Note_on_c, 1, 53, 0
1, 16889, Note_on_c, 1, 62, 0
1, 16896, Note_on_c, 1, 51, 77
1, 16896, Note_on_c, 1, 63, 64
1, 16933, Note_on_c, 0, 68, 0
1, 16944, Note_on_c, 0, 67, 77
1, 16985, Note_on_c, 1, 51, 0
1, 16985, Note_on_c, 1, 63, 0
1, 16989, Note_on_c, 0, 67, 0
1, 16992, Note_on_c, 0, 65, 77
1, 16992, Note_on_c, 1, 56, 77
1, 16992, Note_on_c, 1, 60, 64
1, 17022, Note_on_c, 0, 65, 0
1, 17024, Note_on_c, 0, 68, 77
1, 17054, Note_on_c, 0, 68, 0
1, 17056, Note_on_c, 0, 72, 77
1, 17081, Note_on_c, 1, 56, 0
1, 17081, Note_on_c, 1, 60, 0
1, 17086, Note_on_c, 0, 72, 0
1, 17088, Note_on_c, 0, 63, 77
1, 17088, Note_on_c, 1, 46, 77
1, 17088, Note_on_c, 1, 55, 64
1, 17177, Note_on_c, 0, 63, 0
1, 17177, Note_on_c, 1, 55, 0
1, 17184, Note_on_c, 0, 62, 77
1, 17184, Note_on_c, 1, 53, 64
1, 17197, Note_on_c, 0, 62, 0
1, 17198, Note_on_c, 0, 63, 77
1, 17211, Note_on_c, 0, 63, 0
1, 17212, Note_on_c, 0, 62, 77
1, 17225, Note_on_c, 0, 62, 0
1, 17226, Note_on_c, 0, 63, 77
1, 17239, Note_on_c, 0, 63, 0
1, 17240, Note_on_c, 0, 62, 77
1, 17253, Note_on_c, 0, 62, 0
1, 17254, Note_on_c, 0, 60, 77
1, 17265, Note_on_c, 1, 46, 0
1, 17266, Note_on_c, 0, 60, 0
1, 17267, Note_on_c, 0, 62, 77
1, 17273, Note_on_c, 1, 53, 0
1, 17279, Note_on_c, 0, 62, 0
1, 17280, Note_on_c, 0, 63, 77
1, 17280, Note_on_c, 1, 51, 77
1, 17310, Note_on_c, 1, 51, 0
1, 17312, Note_on_c, 1, 53, 77
1, 17342, Note_on_c, 1, 53, 0
1, 17344, Note_on_c, 1, 55, 78
1, 17374, Note_on_c, 1, 55, 0
1, 17376, Note_on_c, 1, 56, 78
1, 17406, Note_on_c, 1, 56, 0
1, 17408, Note_on_c, 1, 58, 79
1, 17438, Note_on_c, 1, 58, 0
1, 17440, Note_on_c, 1, 60, 80
1, 17470, Note_on_c, 1, 60, 0
1, 17472, Note_on_c, 1, 57, 96
1, 17504, Note_on_c, 1, 57, 0
1, 17504, Note_on_c, 1, 58, 81
1, 17534, Note_on_c, 1, 58, 0
1, 17536, Note_on_c, 1, 60, 82
1, 17566, Note_on_c, 1, 60, 0
1, 17568, Note_on_c, 1, 58, 82
1, 17598, Note_on_c, 0, 63, 0
1, 17600, Note_on_c, 0, 72, 85
1, 17630, Note_on_c, 0, 72, 0
1, 17632, Note_on_c, 0, 70, 84
1, 17657, Note_on_c, 1, 58, 0
1, 17662, Note_on_c, 0, 70, 0
1, 17664, Note_on_c, 0, 68, 83
1, 17694, Note_on_c, 0, 68, 0
1, 17696, Note_on_c, 0, 67, 82
1, 17726, Note_on_c, 0, 67, 0
1, 17728, Note_on_c, 0, 65, 81
1, 17758, Note_on_c, 0, 65, 0
1, 17760, Note_on_c, 0, 63, 80
1, 17760, Note_on_c, 1, 58, 77
1, 17790, Note_on_c, 0, 63, 0
1, 17792, Note_on_c, 0, 62, 79
1, 17822, Note_on_c, 0, 62, 0
1, 17824, Note_on_c, 0, 65, 78
1, 17849, Note_on_c, 1, 58, 0
1, 17854, Note_on_c, 0, 65, 0
1, 17856, Note_on_c, 0, 67, 85
1, 17856, Note_on_c, 1, 51, 77
1, 17886, Note_on_c, 0, 67, 0
1, 17886, Note_on_c, 1, 51, 0
1, 17888, Note_on_c, 0, 68, 85
1, 17888, Note_on_c, 1, 53, 77
1, 17918, Note_on_c, 0, 68, 0
1, 17918, Note_on_c, 1, 53, 0
1, 17920, Note_on_c, 0, 70, 86
1, 17920, Note_on_c, 1, 55, 78
1, 17950, Note_on_c, 0, 70, 0
1, 17950, Note_on_c, 1, 55, 0
1, 17952, Note_on_c, 0, 72, 86
1, 17952, Note_on_c, 1, 56, 78
1, 17982, Note_on_c, 0, 72, 0
1, 17982, Note_on_c, 1, 56, 0
1, 17984, Note_on_c, 0, 74, 87
1, 17984, Note_on_c, 1, 58, 79
1, 18014, Note_on_c, 0, 74, 0
1, 18014, Note_on_c, 1, 58, 0
1, 18016, Note_on_c, 0, 75, 88
1, 18016, Note_on_c, 1, 60, 80
1, 18046, Note_on_c, 0, 75, 0
1, 18046, Note_on_c, 1, 60, 0
1, 18048, Note_on_c, 0, 77, 88
1, 18048, Note_on_c, 1, 62, 80
1, 18078, Note_on_c, 0, 77, 0
1, 18078, Note_on_c, 1, 62, 0
1, 18080, Note_on_c, 0, 79, 89
1, 18080, Note_on_c, 1, 63, 81
1, 18110, Note_on_c, 0, 79, 0
1, 18110, Note_on_c, 1, 63, 0
1, 18112, Note_on_c, 0, 80, 90
1, 18112, Note_on_c, 1, 65, 82
1, 18142, Note_on_c, 0, 80, 0
1, 18142, Note_on_c, 1, 65, 0
1, 18144, Note_on_c, 0, 82, 90
1, 18144, Note_on_c, 1, 67, 82
1, 18174, Note_on_c, 0, 82, 0
1, 18176, Note_on_c, 0, 84, 92
1, 18206, Note_on_c, 0, 84, 0
1, 18208, Note_on_c, 0, 82, 90
1, 18233, Note_on_c, 1, 67, 0
1, 18238, Note_on_c, 0, 82, 0
1, 18240, Note_on_c, 0, 80, 89
1, 18270, Note_on_c, 0, 80, 0
1, 18272, Note_on_c, 0, 79, 88
1, 18302, Note_on_c, 0, 79, 0
1, 18304, Note_on_c, 0, 77, 87
1, 18334, Note_on_c, 0, 77, 0
1, 18336, Note_on_c, 0, 75, 86
1, 18336, Note_on_c, 1, 68, 70
1, 18336, Note_on_c, 1, 58, 70
1, 18366, Note_on_c, 0, 75, 0
1, 18368, Note_on_c, 0, 74, 85
1, 18398, Note_on_c, 0, 74, 0
1, 18400, Note_on_c, 0, 77, 85
1, 18425, Note_on_c, 1, 68, 0
1, 18425, Note_on_c, 1, 58, 0
1, 18430, Note_on_c, 0, 77, 0
1, 18432, Note_on_c, 0, 75, 85
1, 18432, Note_on_c, 1, 67, 70
1, 18432, Note_on_c, 1, 63, 70
1, 18521, Note_on_c, 0, 75, 0
1, 18521, Note_on_c, 1, 67, 0
1, 18521, Note_on_c, 1, 63, 0
1, 18528, Note_on_c, 1, 51, 70
1, 18576, Note_on_c, 0, 70, 70
1, 18617, Note_on_c, 1, 51, 0
1, 18621, Note_on_c, 0, 70, 0
1, 18624, Note_on_c, 0, 66, 70
1, 18669, Note_on_c, 0, 66, 0
1, 18672, Note_on_c, 0, 63, 70
1, 18717, Note_on_c, 0, 63, 0
1, 18720, Note_on_c, 0, 62, 70
1, 18768, Note_on_c, 1, 56, 64
1, 18768, Note_on_c, 1, 53, 64
1, 18816, Note_on_c, 0, 62, 0
1, 18816, Note_on_c, 0, 63, 70
1, 18816, Note_on_c, 1, 56, 0
1, 18816, Note_on_c, 1, 53, 0
1, 18816, Note_on_c, 1, 58, 64
1, 18816, Note_on_c, 1, 54, 64
1, 18861, Note_on_c, 0, 63, 0
1, 18864, Note_on_c, 0, 70, 70
1, 18905, Note_on_c, 1, 58, 0
1, 18905, Note_on_c, 1, 54, 0
1, 18909, Note_on_c, 0, 70, 0
1, 18912, Note_on_c, 0, 66, 70
1, 18957, Note_on_c, 0, 66, 0
1, 18960, Note_on_c, 0, 63, 70
1, 19005, Note_on_c, 0, 63, 0
1, 19008, Note_on_c, 0, 59, 70
1, 19056, Note_on_c, 1, 54, 64
1, 19056, Note_on_c, 1, 51, 64
1, 19104, Note_on_c, 0, 59, 0
1, 19104, Note_on_c, 0, 58, 70
1, 19104, Note_on_c, 1, 54, 0
1, 19104, Note_on_c, 1, 51, 0
1, 19104, Note_on_c, 1, 53, 64
1, 19104, Note_on_c, 1, 50, 64
1, 19149, Note_on_c, 0, 58, 0
1, 19152, Note_on_c, 0, 70, 70
1, 19193, Note_on_c, 1, 53, 0
1, 19193, Note_on_c, 1, 50, 0
1, 19197, Note_on_c, 0, 70, 0
1, 19200, Note_on_c, 0, 68, 70
1, 19245, Note_on_c, 0, 68, 0
1, 19248, Note_on_c, 0, 65, 70
1, 19293, Note_on_c, 0, 65, 0
1, 19296, Note_on_c, 0, 66, 70
1, 19344, Note_on_c, 1, 63, 64
1, 19389, Note_on_c, 1, 63, 0
1, 19392, Note_on_c, 0, 66, 0
1, 19392, Note_on_c, 0, 67, 70
1, 19392, Note_on_c, 1, 61, 65
1, 19437, Note_on_c, 1, 61, 0
1, 19440, Note_on_c, 1, 58, 65
1, 19481, Note_on_c, 0, 67, 0
1, 19485, Note_on_c, 1, 58, 0
1, 19488, Note_on_c, 0, 68, 71
1, 19488, Note_on_c, 1, 59, 66
1, 19533, Note_on_c, 0, 68, 0
1, 19536, Note_on_c, 0, 75, 71
1, 19577, Note_on_c, 1, 59, 0
1, 19581, Note_on_c, 0, 75, 0
1, 19584, Note_on_c, 0, 73, 71
1, 19629, Note_on_c, 0, 73, 0
1, 19632, Note_on_c, 0, 70, 72
1, 19677, Note_on_c, 0, 70, 0
1, 19680, Note_on_c, 0, 71, 72
1, 19728, Note_on_c, 1, 68, 69
1, 19773, Note_on_c, 1, 68, 0
1, 19776, Note_on_c, 0, 71, 0
1, 19776, Note_on_c, 0, 72, 73
1, 19776, Note_on_c, 1, 66, 69
1, 19821, Note_on_c, 1, 66, 0
1, 19824, Note_on_c, 1, 63, 70
1, 19865, Note_on_c, 0, 72, 0
1, 19869, Note_on_c, 1, 63, 0
1, 19872, Note_on_c, 0, 73, 73
1, 19872, Note_on_c, 0, 65, 64
1, 19920, Note_on_c, 1, 61, 71
1, 19965, Note_on_c, 1, 61, 0
1, 19968, Note_on_c, 1, 59, 72
1, 20013, Note_on_c, 1, 59, 0
1, 20016, Note_on_c, 1, 56, 72
1, 20049, Note_on_c, 0, 65, 0
1, 20061, Note_on_c, 1, 56, 0
1, 20064, Note_on_c, 1, 58, 73
1, 20109, Note_on_c, 0, 73, 0
1, 20112, Note_on_c, 0, 73, 75
1, 20153, Note_on_c, 1, 58, 0
1, 20157, Note_on_c, 0, 73, 0
1, 20160, Note_on_c, 0, 71, 64
1, 20160, Note_on_c, 1, 61, 74
1, 20160, Note_on_c, 1, 53, 64
1, 20205, Note_on_c, 0, 71, 0
1, 20208, Note_on_c, 0, 68, 64
1, 20249, Note_on_c, 1, 53, 0
1, 20253, Note_on_c, 0, 68, 0
1, 20256, Note_on_c, 0, 70, 64
1, 20256, Note_on_c, 1, 54, 64
1, 20301, Note_on_c, 0, 70, 0
1, 20304, Note_on_c, 0, 66, 64
1, 20337, Note_on_c, 1, 61, 0
1, 20345, Note_on_c, 1, 54, 0
1, 20349, Note_on_c, 0, 66, 0
1, 20352, Note_on_c, 0, 64, 64
1, 20352, Note_on_c, 1, 58, 64
1, 20397, Note_on_c, 0, 64, 0
1, 20400, Note_on_c, 0, 61, 64
1, 20441, Note_on_c, 1, 58, 0
1, 20445, Note_on_c, 0, 61, 0
1, 20448, Note_on_c, 0, 63, 77
1, 20448, Note_on_c, 1, 59, 64
1, 20493, Note_on_c, 0, 63, 0
1, 20496, Note_on_c, 0, 68, 79
1, 20537, Note_on_c, 1, 59, 0
1, 20541, Note_on_c, 0, 68, 0
1, 20544, Note_on_c, 0, 71, 82
1, 20589, Note_on_c, 0, 71, 0
1, 20592, Note_on_c, 0, 68, 85
1, 20637, Note_on_c, 0, 68, 0
1, 20640, Note_on_c, 0, 66, 82
1, 20640, Note_on_c, 1, 59, 70
1, 20640, Note_on_c, 1, 49, 70
1, 20685, Note_on_c, 0, 66, 0
1, 20688, Note_on_c, 0, 65, 79
1, 20729, Note_on_c, 1, 59, 0
1, 20729, Note_on_c, 1, 49, 0
1, 20733, Note_on_c, 0, 65, 0
1, 20736, Note_on_c, 0, 66, 77
1, 20736, Note_on_c, 1, 58, 70
1, 20736, Note_on_c, 1, 54, 70
1, 20825, Note_on_c, 0, 66, 0
1, 20825, Note_on_c, 1, 58, 0
1, 20825, Note_on_c, 1, 54, 0
1, 20832, Note_on_c, 1, 42, 70
1, 20880, Note_on_c, 0, 70, 70
1, 20921, Note_on_c, 1, 42, 0
1, 20925, Note_on_c, 0, 70, 0
1, 20928, Note_on_c, 0, 66, 70
1, 20973, Note_on_c, 0, 66, 0
1, 20976, Note_on_c, 0, 63, 70
1, 21021, Note_on_c, 0, 63, 0
1, 21024, Note_on_c, 0, 62, 70
1, 21072, Note_on_c, 1, 56, 64
1, 21072, Note_on_c, 1, 53, 64
1, 21120, Note_on_c, 0, 62, 0
1, 21120, Note_on_c, 0, 63, 70
1, 21120, Note_on_c, 1, 56, 0
1, 21120, Note_on_c, 1, 53, 0
1, 21120, Note_on_c, 1, 58, 64
1, 21120, Note_on_c, 1, 54, 64
1, 21165, Note_on_c, 0, 63, 0
1, 21168, Note_on_c, 0, 70, 70
1, 21209, Note_on_c, 1, 58, 0
1, 21209, Note_on_c, 1, 54, 0
1, 21213, Note_on_c, 0, 70, 0
1, 21216, Note_on_c, 0, 66, 70
1, 21261, Note_on_c, 0, 66, 0
1, 21264, Note_on_c, 0, 63, 70
1, 21309, Note_on_c, 0, 63, 0
1, 21312, Note_on_c, 0, 59, 70
1, 21360, Note_on_c, 1, 54, 64
1, 21360, Note_on_c, 1, 51, 64
1, 21408, Note_on_c, 0, 59, 0
1, 21408, Note_on_c, 0, 58, 70
1, 21408, Note_on_c, 1, 54, 0
1, 21408, Note_on_c, 1, 51, 0
1, 21408, Note_on_c, 1, 53, 64
1, 21408, Note_on_c, 1, 50, 64
1, 21453, Note_on_c, 0, 58, 0
1, 21456, Note_on_c, 0, 70, 70
1, 21497, Note_on_c, 1, 53, 0
1, 21497, Note_on_c, 1, 50, 0
1, 21501, Note_on_c, 0, 70, 0
1, 21504, Note_on_c, 0, 68, 70
1, 21549, Note_on_c, 0, 68, 0
1, 21552, Note_on_c, 0, 65, 70
1, 21597, Note_on_c, 0, 65, 0
1, 21600, Note_on_c, 0, 66, 70
1, 21648, Note_on_c, 1, 63, 64
1, 21693, Note_on_c, 1, 63, 0
1, 21696, Note_on_c, 0, 66, 0
1, 21696, Note_on_c, 0, 67, 70
1, 21696, Note_on_c, 1, 61, 65
1, 21741, Note_on_c, 1, 61, 0
1, 21744, Note_on_c, 1, 58, 65
1, 21785, Note_on_c, 0, 67, 0
1, 21789, Note_on_c, 1, 58, 0
1, 21792, Note_on_c, 0, 68, 71
1, 21792, Note_on_c, 1, 59, 66
1, 21837, Note_on_c, 0, 68, 0
1, 21840, Note_on_c, 0, 75, 71
1, 21881, Note_on_c, 1, 59, 0
1, 21885, Note_on_c, 0, 75, 0
1, 21888, Note_on_c, 0, 73, 71
1, 21933, Note_on_c, 0, 73, 0
1, 21936, Note_on_c, 0, 70, 72
1, 21981, Note_on_c, 0, 70, 0
1, 21984, Note_on_c, 0, 71, 72
1, 22032, Note_on_c, 1, 68, 69
1, 22077, Note_on_c, 1, 68, 0
1, 22080, Note_on_c, 0, 71, 0
1, 22080, Note_on_c, 0, 72, 73
1, 22080, Note_on_c, 1, 66, 69
1, 22125, Note_on_c, 1, 66, 0
1, 22128, Note_on_c, 1, 63, 70
1, 22169, Note_on_c, 0, 72, 0
1, 22173, Note_on_c, 1, 63, 0
1, 22176, Note_on_c, 0, 73, 73
1, 22176, Note_on_c, 0, 65, 64
1, 22224, Note_on_c, 1, 61, 71
1, 22269, Note_on_c, 1, 61, 0
1, 22272, Note_on_c, 1, 59, 72
1, 22317, Note_on_c, 1, 59, 0
1, 22320, Note_on_c, 1, 56, 72
1, 22353, Note_on_c, 0, 65, 0
1, 22365, Note_on_c, 1, 56, 0
1, 22368, Note_on_c, 1, 58, 73
1, 22413, Note_on_c, 0, 73, 0
1, 22416, Note_on_c, 0, 73, 75
1, 22457, Note_on_c, 1, 58, 0
1, 22461, Note_on_c, 0, 73, 0
1, 22464, Note_on_c, 0, 71, 64
1, 22464, Note_on_c, 1, 61, 74
1, 22464, Note_on_c, 1, 53, 64
1, 22509, Note_on_c, 0, 71, 0
1, 22512, Note_on_c, 0, 68, 64
1, 22553, Note_on_c, 1, 53, 0
1, 22557, Note_on_c, 0, 68, 0
1, 22560, Note_on_c, 0, 70, 64
1, 22560, Note_on_c, 1, 54, 64
1, 22605, Note_on_c, 0, 70, 0
1, 22608, Note_on_c, 0, 66, 64
1, 22641, Note_on_c, 1, 61, 0
1, 22649, Note_on_c, 1, 54, 0
1, 22653, Note_on_c, 0, 66, 0
1, 22656, Note_on_c, 0, 64, 64
1, 22656, Note_on_c, 1, 58, 64
1, 22701, Note_on_c, 0, 64, 0
1, 22704, Note_on_c, 0, 61, 64
1, 22745, Note_on_c, 1, 58, 0
1, 22749, Note_on_c, 0, 61, 0
1, 22752, Note_on_c, 0, 63, 77
1, 22752, Note_on_c, 1, 59, 64
1, 22797, Note_on_c, 0, 63, 0
1, 22800, Note_on_c, 0, 68, 79
1, 22841, Note_on_c, 1, 59, 0
1, 22845, Note_on_c, 0, 68, 0
1, 22848, Note_on_c, 0, 71, 82
1, 22893, Note_on_c, 0, 71, 0
1, 22896, Note_on_c, 0, 68, 85
1, 22941, Note_on_c, 0, 68, 0
1, 22944, Note_on_c, 0, 66, 82
1, 22944, Note_on_c, 1, 59, 70
1, 22944, Note_on_c, 1, 49, 70
1, 22989, Note_on_c, 0, 66, 0
1, 22992, Note_on_c, 0, 65, 79
1, 23033, Note_on_c, 1, 59, 0
1, 23033, Note_on_c, 1, 49, 0
1, 23037, Note_on_c, 0, 65, 0
1, 23040, Note_on_c, 0, 66, 77
1, 23040, Note_on_c, 1, 58, 70
1, 23040, Note_on_c, 1, 54, 70
1, 23129, Note_on_c, 0, 66, 0
1, 23129, Note_on_c, 1, 58, 0
1, 23129, Note_on_c, 1, 54, 0
1, 23136, Note_on_c, 1, 42, 70
1, 23184, Note_on_c, 0, 73, 77
1, 23225, Note_on_c, 1, 42, 0
1, 23229, Note_on_c, 0, 73, 0
1, 23232, Note_on_c, 0, 70, 77
1, 23277, Note_on_c, 0, 70, 0
1, 23280, Note_on_c, 0, 66, 77
1, 23325, Note_on_c, 0, 66, 0
1, 23328, Note_on_c, 0, 65, 77
1, 23376, Note_on_c, 1, 59, 70
1, 23376, Note_on_c, 1, 56, 70
1, 23424, Note_on_c, 0, 65, 0
1, 23424, Note_on_c, 0, 66, 77
1, 23424, Note_on_c, 1, 59, 0
1, 23424, Note_on_c, 1, 56, 0
1, 23424, Note_on_c, 1, 61, 70
1, 23424, Note_on_c, 1, 58, 70
1, 23469, Note_on_c, 0, 66, 0
1, 23472, Note_on_c, 0, 73, 77
1, 23513, Note_on_c, 1, 61, 0
1, 23513, Note_on_c, 1, 58, 0
1, 23517, Note_on_c, 0, 73, 0
1, 23520, Note_on_c, 0, 70, 77
1, 23565, Note_on_c, 0, 70, 0
1, 23568, Note_on_c, 0, 66, 77
1, 23613, Note_on_c, 0, 66, 0
1, 23616, Note_on_c, 0, 64, 77
1, 23664, Note_on_c, 1, 61, 70
1, 23664, Note_on_c, 1, 58, 70
1, 23712, Note_on_c, 0, 64, 0
1, 23712, Note_on_c, 0, 63, 77
1, 23712, Note_on_c, 1, 61, 0
1, 23712, Note_on_c, 1, 58, 0
1, 23712, Note_on_c, 1, 59, 71
1, 23757, Note_on_c, 0, 63, 0
1, 23760, Note_on_c, 0, 75, 77
1, 23801, Note_on_c, 1, 59, 0
1, 23805, Note_on_c, 0, 75, 0
1, 23808, Note_on_c, 0, 71, 78
1, 23853, Note_on_c, 0, 71, 0
1, 23856, Note_on_c, 0, 68, 79
1, 23901, Note_on_c, 0, 68, 0
1, 23904, Note_on_c, 0, 67, 79
1, 23952, Note_on_c, 1, 61, 74
1, 23952, Note_on_c, 1, 58, 74
1, 24000, Note_on_c, 0, 67, 0
1, 24000, Note_on_c, 0, 68, 81
1, 24000, Note_on_c, 1, 61, 0
1, 24000, Note_on_c, 1, 58, 0
1, 24000, Note_on_c, 1, 59, 74
1, 24045, Note_on_c, 0, 68, 0
1, 24048, Note_on_c, 0, 75, 81
1, 24089, Note_on_c, 1, 59, 0
1, 24093, Note_on_c, 0, 75, 0
1, 24096, Note_on_c, 0, 71, 82
1, 24141, Note_on_c, 0, 71, 0
1, 24144, Note_on_c, 0, 70, 83
1, 24189, Note_on_c, 0, 70, 0
1, 24192, Note_on_c, 0, 69, 83
1, 24240, Note_on_c, 1, 66, 77
1, 24240, Note_on_c, 1, 63, 77
1, 24288, Note_on_c, 0, 69, 0
1, 24288, Note_on_c, 0, 70, 85
1, 24288, Note_on_c, 1, 66, 0
1, 24288, Note_on_c, 1, 63, 0
1, 24288, Note_on_c, 1, 65, 77
1, 24288, Note_on_c, 1, 62, 77
1, 24333, Note_on_c, 0, 70, 0
1, 24336, Note_on_c, 0, 71, 85
1, 24377, Note_on_c, 1, 65, 0
1, 24377, Note_on_c, 1, 62, 0
1, 24381, Note_on_c, 0, 71, 0
1, 24384, Note_on_c, 0, 68, 85
1, 24429, Note_on_c, 0, 68, 0
1, 24432, Note_on_c, 0, 65, 85
1, 24477, Note_on_c, 0, 65, 0
1, 24480, Note_on_c, 0, 62, 85
1, 24500, Note_on_c, 0, 62, 0
1, 24528, Note_on_c, 1, 59, 77
1, 24573, Note_on_c, 1, 59, 0
1, 24576, Note_on_c, 1, 56, 75
1, 24621, Note_on_c, 1, 56, 0
1, 24624, Note_on_c, 1, 53, 74
1, 24669, Note_on_c, 1, 53, 0
1, 24672, Note_on_c, 1, 50, 72
1, 24717, Note_on_c, 1, 50, 0
1, 24720, Note_on_c, 1, 47, 71
1, 24765, Note_on_c, 1, 47, 0
1, 24768, Note_on_c, 1, 46, 70
1, 24816, Note_on_c, 0, 71, 77
1, 24861, Note_on_c, 0, 71, 0
1, 24864, Note_on_c, 0, 62, 76
1, 24864, Note_on_c, 1, 56, 70
1, 24909, Note_on_c, 0, 62, 0
1, 24912, Note_on_c, 0, 65, 75
1, 24953, Note_on_c, 1, 56, 0
1, 24957, Note_on_c, 0, 65, 0
1, 24960, Note_on_c, 0, 63, 74
1, 24960, Note_on_c, 1, 54, 69
1, 25005, Note_on_c, 0, 63, 0
1, 25008, Note_on_c, 0, 70, 73
1, 25049, Note_on_c, 1, 54, 0
1, 25056, Note_on_c, 1, 53, 68
1, 25101, Note_on_c, 0, 70, 0
1, 25104, Note_on_c, 0, 68, 71
1, 25145, Note_on_c, 1, 53, 0
1, 25152, Note_on_c, 1, 51, 67
1, 25193, Note_on_c, 0, 68, 0
1, 25200, Note_on_c, 0, 66, 69
1, 25241, Note_on_c, 1, 51, 0
1, 25248, Note_on_c, 1, 50, 66
1, 25289, Note_on_c, 0, 66, 0
1, 25296, Note_on_c, 0, 65, 67
1, 25321, Note_on_c, 1, 46, 0
1, 25337, Note_on_c, 1, 50, 0
1, 25341, Note_on_c, 0, 65, 0
1, 25344, Note_on_c, 0, 65, 66
1, 25344, Note_on_c, 1, 51, 65
1, 25383, Note_on_c, 1, 51, 0
1, 25392, Note_on_c, 0, 65, 0
1, 25392, Note_on_c, 0, 63, 65
1, 25437, Note_on_c, 0, 63, 0
1, 25440, Note_on_c, 1, 39, 64
1, 25488, Note_on_c, 0, 73, 77
1, 25529, Note_on_c, 1, 39, 0
1, 25533, Note_on_c, 0, 73, 0
1, 25536, Note_on_c, 0, 70, 77
1, 25581, Note_on_c, 0, 70, 0
1, 25584, Note_on_c, 0, 66, 77
1, 25629, Note_on_c, 0, 66, 0
1, 25632, Note_on_c, 0, 65, 77
1, 25680, Note_on_c, 1, 59, 70
1, 25680, Note_on_c, 1, 56, 70
1, 25728, Note_on_c, 0, 65, 0
1, 25728, Note_on_c, 0, 66, 77
1, 25728, Note_on_c, 1, 59, 0
1, 25728, Note_on_c, 1, 56, 0
1, 25728, Note_on_c, 1, 61, 70
1, 25728, Note_on_c, 1, 58, 70
1, 25773, Note_on_c, 0, 66, 0
1, 25776, Note_on_c, 0, 73, 77
1, 25817, Note_on_c, 1, 61, 0
1, 25817, Note_on_c, 1, 58, 0
1, 25821, Note_on_c, 0, 73, 0
1, 25824, Note_on_c, 0, 70, 77
1, 25869, Note_on_c, 0, 70, 0
1, 25872, Note_on_c, 0, 66, 77
1, 25917, Note_on_c, 0, 66, 0
1, 25920, Note_on_c, 0, 64, 77
1, 25968, Note_on_c, 1, 61, 70
1, 25968, Note_on_c, 1, 58, 70
1, 26016, Note_on_c, 0, 64, 0
1, 26016, Note_on_c, 0, 63, 77
1, 26016, Note_on_c, 1, 61, 0
1, 26016, Note_on_c, 1, 58, 0
1, 26016, Note_on_c, 1, 59, 71
1, 26061, Note_on_c, 0, 63, 0
1, 26064, Note_on_c, 0, 75, 77
1, 26105, Note_on_c, 1, 59, 0
1, 26109, Note_on_c, 0, 75, 0
1, 26112, Note_on_c, 0, 71, 78
1, 26157, Note_on_c, 0, 71, 0
1, 26160, Note_on_c, 0, 68, 79
1, 26205, Note_on_c, 0, 68, 0
1, 26208, Note_on_c, 0, 67, 79
1, 26256, Note_on_c, 1, 61, 74
1, 26256, Note_on_c, 1, 58, 74
1, 26304, Note_on_c, 0, 67, 0
1, 26304, Note_on_c, 0, 68, 81
1, 26304, Note_on_c, 1, 61, 0
1, 26304, Note_on_c, 1, 58, 0
1, 26304, Note_on_c, 1, 59, 74
1, 26349, Note_on_c, 0, 68, 0
1, 26352, Note_on_c, 0, 75, 81
1, 26393, Note_on_c, 1, 59, 0
1, 26397, Note_on_c, 0, 75, 0
1, 26400, Note_on_c, 0, 71, 82
1, 26445, Note_on_c, 0, 71, 0
1, 26448, Note_on_c, 0, 70, 83
1, 26493, Note_on_c, 0, 70, 0
1, 26496, Note_on_c, 0, 69, 83
1, 26544, Note_on_c, 1, 66, 77
1, 26544, Note_on_c, 1, 63, 77
1, 26592, Note_on_c, 0, 69, 0
1, 26592, Note_on_c, 0, 70, 85
1, 26592, Note_on_c, 1, 66, 0
1, 26592, Note_on_c, 1, 63, 0
1, 26592, Note_on_c, 1, 65, 77
1, 26592, Note_on_c, 1, 62, 77
1, 26637, Note_on_c, 0, 70, 0
1, 26640, Note_on_c, 0, 71, 85
1, 26681, Note_on_c, 1, 65, 0
1, 26681, Note_on_c, 1, 62, 0
1, 26685, Note_on_c, 0, 71, 0
1, 26688, Note_on_c, 0, 68, 85
1, 26733, Note_on_c, 0, 68, 0
1, 26736, Note_on_c, 0, 65, 85
1, 26781, Note_on_c, 0, 65, 0
1, 26784, Note_on_c, 0, 62, 85
1, 26804, Note_on_c, 0, 62, 0
1, 26832, Note_on_c, 1, 59, 77
1, 26877, Note_on_c, 1, 59, 0
1, 26880, Note_on_c, 1, 56, 75
1, 26925, Note_on_c, 1, 56, 0
1, 26928, Note_on_c, 1, 53, 74
1, 26973, Note_on_c, 1, 53, 0
1, 26976, Note_on_c, 1, 50, 72
1, 27021, Note_on_c, 1, 50, 0
1, 27024, Note_on_c, 1, 47, 71
1, 27069, Note_on_c, 1, 47, 0
1, 27072, Note_on_c, 1, 46, 70
1, 27120, Note_on_c, 0, 71, 77
1, 27165, Note_on_c, 0, 71, 0
1, 27168, Note_on_c, 0, 62, 76
1, 27168, Note_on_c, 1, 56, 70
1, 27213, Note_on_c, 0, 62, 0
1, 27216, Note_on_c, 0, 65, 75
1, 27257, Note_on_c, 1, 56, 0
1, 27261, Note_on_c, 0, 65, 0
1, 27264, Note_on_c, 0, 63, 74
1, 27264, Note_on_c, 1, 54, 69
1, 27309, Note_on_c, 0, 63, 0
1, 27312, Note_on_c, 0, 70, 73
1, 27353, Note_on_c, 1, 54, 0
1, 27360, Note_on_c, 1, 53, 68
1, 27405, Note_on_c, 0, 70, 0
1, 27408, Note_on_c, 0, 68, 71
1, 27449, Note_on_c, 1, 53, 0
1, 27456, Note_on_c, 1, 51, 67
1, 27497, Note_on_c, 0, 68, 0
1, 27504, Note_on_c, 0, 66, 69
1, 27545, Note_on_c, 1, 51, 0
1, 27552, Note_on_c, 1, 50, 66
1, 27593, Note_on_c, 0, 66, 0
1, 27600, Note_on_c, 0, 65, 67
1, 27625, Note_on_c, 1, 46, 0
1, 27641, Note_on_c, 1, 50, 0
1, 27645, Note_on_c, 0, 65, 0
1, 27648, Note_on_c, 0, 65, 66
1, 27648, Note_on_c, 1, 51, 65
1, 27687, Note_on_c, 1, 51, 0
1, 27696, Note_on_c, 0, 65, 0
1, 27696, Note_on_c, 0, 63, 65
1, 27741, Note_on_c, 0, 63, 0
1, 27744, Note_on_c, 1, 39, 64
1, 27816, Note_on_c, 0, 75, 64
1, 27833, Note_on_c, 1, 39, 0
1, 27839, Note_on_c, 0, 75, 0
1, 27840, Note_on_c, 0, 77, 64
1, 27852, Note_on_c, 0, 77, 0
1, 27852, Note_on_c, 0, 75, 64
1, 27864, Note_on_c, 0, 75, 0
1, 27864, Note_on_c, 0, 74, 64
1, 27876, Note_on_c, 0, 74, 0
1, 27876, Note_on_c, 0, 75, 64
1, 27888, Note_on_c, 0, 75, 0
1, 27888, Note_on_c, 0, 75, 64
1, 27907, Note_on_c, 0, 75, 0
1, 27912, Note_on_c, 0, 79, 64
1, 27935, Note_on_c, 0, 79, 0
1, 27936, Note_on_c, 0, 82, 64
1, 27975, Note_on_c, 0, 82, 0
1, 28032, Note_on_c, 1, 67, 64
1, 28032, Note_on_c, 1, 63, 64
1, 28104, Note_on_c, 0, 75, 64
1, 28121, Note_on_c, 1, 67, 0
1, 28121, Note_on_c, 1, 63, 0
1, 28127, Note_on_c, 0, 75, 0
1, 28128, Note_on_c, 0, 77, 64
1, 28140, Note_on_c, 0, 77, 0
1, 28140, Note_on_c, 0, 75, 64
1, 28152, Note_on_c, 0, 75, 0
1, 28152, Note_on_c, 0, 74, 64
1, 28164, Note_on_c, 0, 74, 0
1, 28164, Note_on_c, 0, 75, 64
1, 28176, Note_on_c, 0, 75, 0
1, 28176, Note_on_c, 0, 75, 64
1, 28195, Note_on_c, 0, 75, 0
1, 28200, Note_on_c, 0, 79, 64
1, 28223, Note_on_c, 0, 79, 0
1, 28224, Note_on_c, 0, 72, 64
1, 28263, Note_on_c, 0, 72, 0
1, 28320, Note_on_c, 1, 60, 64
1, 28320, Note_on_c, 1, 56, 64
1, 28392, Note_on_c, 0, 77, 77
1, 28409, Note_on_c, 1, 60, 0
1, 28409, Note_on_c, 1, 56, 0
1, 28415, Note_on_c, 0, 77, 0
1, 28416, Note_on_c, 0, 79, 78
1, 28428, Note_on_c, 0, 79, 0
1, 28428, Note_on_c, 0, 77, 78
1, 28440, Note_on_c, 0, 77, 0
1, 28440, Note_on_c, 0, 75, 78
1, 28452, Note_on_c, 0, 75, 0
1, 28452, Note_on_c, 0, 77, 78
1, 28464, Note_on_c, 0, 77, 0
1, 28464, Note_on_c, 0, 77, 78
1, 28483, Note_on_c, 0, 77, 0
1, 28488, Note_on_c, 0, 80, 83
1, 28511, Note_on_c, 0, 80, 0
1, 28512, Note_on_c, 0, 84, 85
1, 28542, Note_on_c, 0, 84, 0
1, 28544, Note_on_c, 0, 82, 84
1, 28574, Note_on_c, 0, 82, 0
1, 28576, Note_on_c, 0, 80, 83
1, 28606, Note_on_c, 0, 80, 0
1, 28608, Note_on_c, 0, 79, 83
1, 28638, Note_on_c, 0, 79, 0
1, 28640, Note_on_c, 0, 77, 82
1, 28670, Note_on_c, 0, 77, 0
1, 28672, Note_on_c, 0, 75, 81
1, 28702, Note_on_c, 0, 75, 0
1, 28704, Note_on_c, 0, 74, 81
1, 28704, Note_on_c, 1, 62, 64
1, 28704, Note_on_c, 1, 58, 64
1, 28734, Note_on_c, 0, 74, 0
1, 28736, Note_on_c, 0, 72, 80
1, 28766, Note_on_c, 0, 72, 0
1, 28768, Note_on_c, 0, 70, 80
1, 28793, Note_on_c, 1, 62, 0
1, 28793, Note_on_c, 1, 58, 0
1, 28798, Note_on_c, 0, 70, 0
1, 28800, Note_on_c, 0, 68, 79
1, 28800, Note_on_c, 1, 63, 64
1, 28889, Note_on_c, 1, 63, 0
1, 28896, Note_on_c, 0, 68, 0
1, 28896, Note_on_c, 0, 67, 77
1, 28896, Note_on_c, 1, 51, 64
1, 28963, Note_on_c, 0, 67, 0
1, 28968, Note_on_c, 0, 79, 77
1, 28985, Note_on_c, 1, 51, 0
1, 28991, Note_on_c, 0, 79, 0
1, 28992, Note_on_c, 0, 80, 78
1, 28992, Note_on_c, 1, 70, 64
1, 28992, Note_on_c, 1, 63, 64
1, 29004, Note_on_c, 0, 80, 0
1, 29004, Note_on_c, 0, 79, 78
1, 29016, Note_on_c, 0, 79, 0
1, 29016, Note_on_c, 0, 77, 78
1, 29028, Note_on_c, 0, 77, 0
1, 29028, Note_on_c, 0, 79, 78
1, 29040, Note_on_c, 0, 79, 0
1, 29040, Note_on_c, 0, 79, 78
1, 29059, Note_on_c, 0, 79, 0
1, 29064, Note_on_c, 0, 80, 83
1, 29087, Note_on_c, 0, 80, 0
1, 29088, Note_on_c, 0, 82, 85
1, 29088, Note_on_c, 1, 63, 0
1, 29088, Note_on_c, 1, 62, 70
1, 29127, Note_on_c, 0, 82, 0
1, 29177, Note_on_c, 1, 70, 0
1, 29184, Note_on_c, 1, 70, 64
1, 29256, Note_on_c, 0, 77, 85
1, 29265, Note_on_c, 1, 62, 0
1, 29279, Note_on_c, 0, 77, 0
1, 29280, Note_on_c, 0, 79, 84
1, 29280, Note_on_c, 1, 62, 70
1, 29292, Note_on_c, 0, 79, 0
1, 29292, Note_on_c, 0, 77, 84
1, 29304, Note_on_c, 0, 77, 0
1, 29304, Note_on_c, 0, 75, 84
1, 29316, Note_on_c, 0, 75, 0
1, 29316, Note_on_c, 0, 77, 84
1, 29328, Note_on_c, 0, 77, 0
1, 29328, Note_on_c, 0, 77, 84
1, 29347, Note_on_c, 0, 77, 0
1, 29352, Note_on_c, 0, 79, 82
1, 29369, Note_on_c, 1, 62, 0
1, 29375, Note_on_c, 0, 79, 0
1, 29376, Note_on_c, 0, 77, 82
1, 29376, Note_on_c, 1, 60, 70
1, 29443, Note_on_c, 0, 77, 0
1, 29448, Note_on_c, 0, 76, 80
1, 29465, Note_on_c, 1, 70, 0
1, 29471, Note_on_c, 0, 76, 0
1, 29472, Note_on_c, 0, 75, 80
1, 29472, Note_on_c, 1, 69, 64
1, 29553, Note_on_c, 1, 60, 0
1, 29561, Note_on_c, 1, 69, 0
1, 29568, Note_on_c, 1, 70, 64
1, 29568, Note_on_c, 1, 58, 70
1, 29605, Note_on_c, 0, 75, 0
1, 29616, Note_on_c, 0, 74, 77
1, 29657, Note_on_c, 1, 70, 0
1, 29657, Note_on_c, 1, 58, 0
1, 29661, Note_on_c, 0, 74, 0
1, 29664, Note_on_c, 0, 72, 77
1, 29664, Note_on_c, 1, 67, 64
1, 29664, Note_on_c, 1, 63, 70
1, 29694, Note_on_c, 0, 72, 0
1, 29696, Note_on_c, 0, 75, 77
1, 29726, Note_on_c, 0, 75, 0
1, 29728, Note_on_c, 0, 79, 77
1, 29753, Note_on_c, 1, 67, 0
1, 29753, Note_on_c, 1, 63, 0
1, 29758, Note_on_c, 0, 79, 0
1, 29760, Note_on_c, 0, 70, 77
1, 29760, Note_on_c, 1, 62, 64
1, 29760, Note_on_c, 1, 53, 70
1, 29849, Note_on_c, 0, 70, 0
1, 29849, Note_on_c, 1, 62, 0
1, 29856, Note_on_c, 0, 69, 77
1, 29856, Note_on_c, 1, 60, 64
1, 29869, Note_on_c, 0, 69, 0
1, 29870, Note_on_c, 0, 70, 77
1, 29883, Note_on_c, 0, 70, 0
1, 29884, Note_on_c, 0, 69, 77
1, 29897, Note_on_c, 0, 69, 0
1, 29898, Note_on_c, 0, 70, 77
1, 29911, Note_on_c, 0, 70, 0
1, 29912, Note_on_c, 0, 69, 77
1, 29925, Note_on_c, 0, 69, 0
1, 29926, Note_on_c, 0, 67, 77
1, 29937, Note_on_c, 1, 53, 0
1, 29938, Note_on_c, 0, 67, 0
1, 29939, Note_on_c, 0, 69, 77
1, 29945, Note_on_c, 1, 60, 0
1, 29951, Note_on_c, 0, 69, 0
1, 29952, Note_on_c, 0, 70, 77
1, 29952, Note_on_c, 1, 58, 77
1, 29982, Note_on_c, 1, 58, 0
1, 29984, Note_on_c, 1, 60, 77
1, 30014, Note_on_c, 1, 60, 0
1, 30016, Note_on_c, 1, 62, 78
1, 30046, Note_on_c, 1, 62, 0
1, 30048, Note_on_c, 1, 63, 78
1, 30078, Note_on_c, 1, 63, 0
1, 30080, Note_on_c, 1, 65, 79
1, 30110, Note_on_c, 1, 65, 0
1, 30112, Note_on_c, 1, 67, 80
1, 30142, Note_on_c, 1, 67, 0
1, 30144, Note_on_c, 1, 64, 96
1, 30176, Note_on_c, 1, 64, 0
1, 30176, Note_on_c, 1, 65, 81
1, 30206, Note_on_c, 1, 65, 0
1, 30208, Note_on_c, 1, 67, 82
1, 30238, Note_on_c, 1, 67, 0
1, 30240, Note_on_c, 1, 65, 82
1, 30270, Note_on_c, 0, 70, 0
1, 30272, Note_on_c, 0, 79, 85
1, 30302, Note_on_c, 0, 79, 0
1, 30304, Note_on_c, 0, 77, 84
1, 30329, Note_on_c, 1, 65, 0
1, 30334, Note_on_c, 0, 77, 0
1, 30336, Note_on_c, 0, 75, 83
1, 30366, Note_on_c, 0, 75, 0
1, 30368, Note_on_c, 0, 74, 82
1, 30398, Note_on_c, 0, 74, 0
1, 30400, Note_on_c, 0, 72, 81
1, 30430, Note_on_c, 0, 72, 0
1, 30432, Note_on_c, 0, 70, 80
1, 30432, Note_on_c, 1, 65, 77
1, 30462, Note_on_c, 0, 70, 0
1, 30464, Note_on_c, 0, 69, 79
1, 30494, Note_on_c, 0, 69, 0
1, 30496, Note_on_c, 0, 72, 78
1, 30521, Note_on_c, 1, 65, 0
1, 30526, Note_on_c, 0, 72, 0
1, 30528, Note_on_c, 0, 70, 77
1, 30528, Note_on_c, 1, 67, 77
1, 30558, Note_on_c, 1, 67, 0
1, 30560, Note_on_c, 1, 65, 77
1, 30590, Note_on_c, 1, 65, 0
1, 30592, Note_on_c, 1, 63, 78
1, 30622, Note_on_c, 1, 63, 0
1, 30624, Note_on_c, 1, 62, 79
1, 30654, Note_on_c, 1, 62, 0
1, 30656, Note_on_c, 1, 60, 80
1, 30686, Note_on_c, 1, 60, 0
1, 30688, Note_on_c, 1, 58, 81
1, 30718, Note_on_c, 1, 58, 0
1, 30720, Note_on_c, 1, 67, 82
1, 30750, Note_on_c, 1, 67, 0
1, 30752, Note_on_c, 1, 65, 82
1, 30782, Note_on_c, 1, 65, 0
1, 30784, Note_on_c, 1, 64, 83
1, 30814, Note_on_c, 1, 64, 0
1, 30816, Note_on_c, 1, 65, 85
1, 30846, Note_on_c, 0, 70, 0
1, 30848, Note_on_c, 0, 72, 77
1, 30878, Note_on_c, 0, 72, 0
1, 30880, Note_on_c, 0, 74, 78
1, 30905, Note_on_c, 1, 65, 0
1, 30910, Note_on_c, 0, 74, 0
1, 30912, Note_on_c, 0, 75, 78
1, 30942, Note_on_c, 0, 75, 0
1, 30944, Note_on_c, 0, 77, 79
1, 30974, Note_on_c, 0, 77, 0
1, 30976, Note_on_c, 0, 79, 80
1, 31006, Note_on_c, 0, 79, 0
1, 31008, Note_on_c, 0, 81, 80
1, 31008, Note_on_c, 1, 63, 70
1, 31008, Note_on_c, 1, 53, 70
1, 31038, Note_on_c, 0, 81, 0
1, 31040, Note_on_c, 0, 82, 81
1, 31070, Note_on_c, 0, 82, 0
1, 31072, Note_on_c, 0, 84, 82
1, 31097, Note_on_c, 1, 63, 0
1, 31097, Note_on_c, 1, 53, 0
1, 31102, Note_on_c, 0, 84, 0
1, 31104, Note_on_c, 0, 82, 82
1, 31104, Note_on_c, 1, 62, 70
1, 31104, Note_on_c, 1, 58, 70
1, 31143, Note_on_c, 0, 82, 0
1, 31193, Note_on_c, 1, 62, 0
1, 31193, Note_on_c, 1, 58, 0
1, 31200, Note_on_c, 1, 46, 70
1, 31272, Note_on_c, 0, 75, 77
1, 31289, Note_on_c, 1, 46, 0
1, 31295, Note_on_c, 0, 75, 0
1, 31296, Note_on_c, 0, 77, 77
1, 31308, Note_on_c, 0, 77, 0
1, 31308, Note_on_c, 0, 75, 77
1, 31320, Note_on_c, 0, 75, 0
1, 31320, Note_on_c, 0, 74, 77
1, 31332, Note_on_c, 0, 74, 0
1, 31332, Note_on_c, 0, 75, 77
1, 31344, Note_on_c, 0, 75, 0
1, 31344, Note_on_c, 0, 75, 77
1, 31363, Note_on_c, 0, 75, 0
1, 31368, Note_on_c, 0, 79, 77
1, 31391, Note_on_c, 0, 79, 0
1, 31392, Note_on_c, 0, 82, 77
1, 31431, Note_on_c, 0, 82, 0
1, 31488, Note_on_c, 1, 67, 70
1, 31488, Note_on_c, 1, 63, 70
1, 31560, Note_on_c, 0, 75, 77
1, 31577, Note_on_c, 1, 67, 0
1, 31577, Note_on_c, 1, 63, 0
1, 31583, Note_on_c, 0, 75, 0
1, 31584, Note_on_c, 0, 77, 77
1, 31596, Note_on_c, 0, 77, 0
1, 31596, Note_on_c, 0, 75, 77
1, 31608, Note_on_c, 0, 75, 0
1, 31608, Note_on_c, 0, 74, 77
1, 31620, Note_on_c, 0, 74, 0
1, 31620, Note_on_c, 0, 75, 77
1, 31632, Note_on_c, 0, 75, 0
1, 31632, Note_on_c, 0, 75, 77
1, 31651, Note_on_c, 0, 75, 0
1, 31656, Note_on_c, 0, 79, 77
1, 31679, Note_on_c, 0, 79, 0
1, 31680, Note_on_c, 0, 72, 77
1, 31719, Note_on_c, 0, 72, 0
1, 31776, Note_on_c, 1, 60, 70
1, 31776, Note_on_c, 1, 56, 70
1, 31848, Note_on_c, 0, 77, 77
1, 31865, Note_on_c, 1, 60, 0
1, 31865, Note_on_c, 1, 56, 0
1, 31871, Note_on_c, 0, 77, 0
1, 31872, Note_on_c, 0, 79, 78
1, 31884, Note_on_c, 0, 79, 0
1, 31884, Note_on_c, 0, 77, 78
1, 31896, Note_on_c, 0, 77, 0
1, 31896, Note_on_c, 0, 75, 78
1, 31908, Note_on_c, 0, 75, 0
1, 31908, Note_on_c, 0, 77, 78
1, 31920, Note_on_c, 0, 77, 0
1, 31920, Note_on_c, 0, 77, 78
1, 31939, Note_on_c, 0, 77, 0
1, 31944, Note_on_c, 0, 80, 83
1, 31967, Note_on_c, 0, 80, 0
1, 31968, Note_on_c, 0, 84, 85
1, 31998, Note_on_c, 0, 84, 0
1, 32000, Note_on_c, 0, 82, 84
1, 32030, Note_on_c, 0, 82, 0
1, 32032, Note_on_c, 0, 80, 83
1, 32062, Note_on_c, 0, 80, 0
1, 32064, Note_on_c, 0, 79, 83
1, 32094, Note_on_c, 0, 79, 0
1, 32096, Note_on_c, 0, 77, 82
1, 32126, Note_on_c, 0, 77, 0
1, 32128, Note_on_c, 0, 75, 81
1, 32158, Note_on_c, 0, 75, 0
1, 32160, Note_on_c, 0, 74, 81
1, 32160, Note_on_c, 1, 62, 70
1, 32160, Note_on_c, 1, 58, 70
1, 32190, Note_on_c, 0, 74, 0
1, 32192, Note_on_c, 0, 72, 80
1, 32222, Note_on_c, 0, 72, 0
1, 32224, Note_on_c, 0, 70, 80
1, 32249, Note_on_c, 1, 62, 0
1, 32249, Note_on_c, 1, 58, 0
1, 32254, Note_on_c, 0, 70, 0
1, 32256, Note_on_c, 0, 68, 79
1, 32256, Note_on_c, 1, 63, 77
1, 32345, Note_on_c, 1, 63, 0
1, 32352, Note_on_c, 0, 68, 0
1, 32352, Note_on_c, 0, 67, 77
1, 32352, Note_on_c, 1, 51, 77
1, 32419, Note_on_c, 0, 67, 0
1, 32424, Note_on_c, 0, 79, 77
1, 32441, Note_on_c, 1, 51, 0
1, 32447, Note_on_c, 0, 79, 0
1, 32448, Note_on_c, 0, 80, 78
1, 32448, Note_on_c, 1, 70, 77
1, 32448, Note_on_c, 1, 63, 77
1, 32460, Note_on_c, 0, 80, 0
1, 32460, Note_on_c, 0, 79, 78
1, 32472, Note_on_c, 0, 79, 0
1, 32472, Note_on_c, 0, 77, 78
1, 32484, Note_on_c, 0, 77, 0
1, 32484, Note_on_c, 0, 79, 78
1, 32496, Note_on_c, 0, 79, 0
1, 32496, Note_on_c, 0, 79, 78
1, 32515, Note_on_c, 0, 79, 0
1, 32520, Note_on_c, 0, 80, 83
1, 32543, Note_on_c, 0, 80, 0
1, 32544, Note_on_c, 0, 82, 85
1, 32544, Note_on_c, 1, 63, 0
1, 32544, Note_on_c, 1, 62, 70
1, 32583, Note_on_c, 0, 82, 0
1, 32633, Note_on_c, 1, 70, 0
1, 32640, Note_on_c, 1, 70, 77
1, 32712, Note_on_c, 0, 77, 85
1, 32721, Note_on_c, 1, 62, 0
1, 32735, Note_on_c, 0, 77, 0
1, 32736, Note_on_c, 0, 79, 84
1, 32736, Note_on_c, 1, 62, 70
1, 32748, Note_on_c, 0, 79, 0
1, 32748, Note_on_c, 0, 77, 84
1, 32760, Note_on_c, 0, 77, 0
1, 32760, Note_on_c, 0, 75, 84
1, 32772, Note_on_c, 0, 75, 0
1, 32772, Note_on_c, 0, 77, 84
1, 32784, Note_on_c, 0, 77, 0
1, 32784, Note_on_c, 0, 77, 84
1, 32803, Note_on_c, 0, 77, 0
1, 32808, Note_on_c, 0, 79, 82
1, 32825, Note_on_c, 1, 62, 0
1, 32831, Note_on_c, 0, 79, 0
1, 32832, Note_on_c, 0, 77, 82
1, 32832, Note_on_c, 1, 60, 70
1, 32899, Note_on_c, 0, 77, 0
1, 32904, Note_on_c, 0, 76, 80
1, 32921, Note_on_c, 1, 70, 0
1, 32927, Note_on_c, 0, 76, 0
1, 32928, Note_on_c, 0, 75, 80
1, 32928, Note_on_c, 1, 69, 77
1, 33009, Note_on_c, 1, 60, 0
1, 33017, Note_on_c, 1, 69, 0
1, 33024, Note_on_c, 1, 70, 77
1, 33024, Note_on_c, 1, 58, 70
1, 33061, Note_on_c, 0, 75, 0
1, 33072, Note_on_c, 0, 74, 77
1, 33113, Note_on_c, 1, 70, 0
1, 33113, Note_on_c, 1, 58, 0
1, 33117, Note_on_c, 0, 74, 0
1, 33120, Note_on_c, 0, 72, 77
1, 33120, Note_on_c, 1, 67, 77
1, 33120, Note_on_c, 1, 63, 70
1, 33150, Note_on_c, 0, 72, 0
1, 33152, Note_on_c, 0, 75, 77
1, 33182, Note_on_c, 0, 75, 0
1, 33184, Note_on_c, 0, 79, 77
1, 33209, Note_on_c, 1, 67, 0
1, 33209, Note_on_c, 1, 63, 0
1, 33214, Note_on_c, 0, 79, 0
1, 33216, Note_on_c, 0, 70, 77
1, 33216, Note_on_c, 1, 62, 77
1, 33216, Note_on_c, 1, 53, 70
1, 33305, Note_on_c, 0, 70, 0
1, 33305, Note_on_c, 1, 62, 0
1, 33312, Note_on_c, 0, 69, 77
1, 33312, Note_on_c, 1, 60, 77
1, 33325, Note_on_c, 0, 69, 0
1, 33326, Note_on_c, 0, 70, 77
1, 33339, Note_on_c, 0, 70, 0
1, 33340, Note_on_c, 0, 69, 77
1, 33353, Note_on_c, 0, 69, 0
1, 33354, Note_on_c, 0, 70, 77
1, 33367, Note_on_c, 0, 70, 0
1, 33368, Note_on_c, 0, 69, 77
1, 33381, Note_on_c, 0, 69, 0
1, 33382, Note_on_c, 0, 67, 77
1, 33393, Note_on_c, 1, 53, 0
1, 33394, Note_on_c, 0, 67, 0
1, 33395, Note_on_c, 0, 69, 77
1, 33401, Note_on_c, 1, 60, 0
1, 33407, Note_on_c, 0, 69, 0
1, 33408, Note_on_c, 0, 70, 77
1, 33408, Note_on_c, 1, 58, 77
1, 33438, Note_on_c, 1, 58, 0
1, 33440, Note_on_c, 1, 60, 77
1, 33470, Note_on_c, 1, 60, 0
1, 33472, Note_on_c, 1, 62, 78
1, 33502, Note_on_c, 1, 62, 0
1, 33504, Note_on_c, 1, 63, 78
1, 33534, Note_on_c, 1, 63, 0
1, 33536, Note_on_c, 1, 65, 79
1, 33566, Note_on_c, 1, 65, 0
1, 33568, Note_on_c, 1, 67, 80
1, 33598, Note_on_c, 1, 67, 0
1, 33600, Note_on_c, 1, 64, 96
1, 33632, Note_on_c, 1, 64, 0
1, 33632, Note_on_c, 1, 65, 81
1, 33662, Note_on_c, 1, 65, 0
1, 33664, Note_on_c, 1, 67, 82
1, 33694, Note_on_c, 1, 67, 0
1, 33696, Note_on_c, 1, 65, 82
1, 33726, Note_on_c, 0, 70, 0
1, 33728, Note_on_c, 0, 79, 85
1, 33758, Note_on_c, 0, 79, 0
1, 33760, Note_on_c, 0, 77, 84
1, 33785, Note_on_c, 1, 65, 0
1, 33790, Note_on_c, 0, 77, 0
1, 33792, Note_on_c, 0, 75, 83
1, 33822, Note_on_c, 0, 75, 0
1, 33824, Note_on_c, 0, 74, 82
1, 33854, Note_on_c, 0, 74, 0
1, 33856, Note_on_c, 0, 72, 81
1, 33886, Note_on_c, 0, 72, 0
1, 33888, Note_on_c, 0, 70, 80
1, 33888, Note_on_c, 1, 65, 77
1, 33918, Note_on_c, 0, 70, 0
1, 33920, Note_on_c, 0, 69, 79
1, 33950, Note_on_c, 0, 69, 0
1, 33952, Note_on_c, 0, 72, 78
1, 33977, Note_on_c, 1, 65, 0
1, 33982, Note_on_c, 0, 72, 0
1, 33984, Note_on_c, 0, 70, 77
1, 33984, Note_on_c, 1, 67, 77
1, 34014, Note_on_c, 1, 67, 0
1, 34016, Note_on_c, 1, 65, 77
1, 34046, Note_on_c, 1, 65, 0
1, 34048, Note_on_c, 1, 63, 78
1, 34078, Note_on_c, 1, 63, 0
1, 34080, Note_on_c, 1, 62, 79
1, 34110, Note_on_c, 1, 62, 0
1, 34112, Note_on_c, 1, 60, 80
1, 34142, Note_on_c, 1, 60, 0
1, 34144, Note_on_c, 1, 58, 81
1, 34174, Note_on_c, 1, 58, 0
1, 34176, Note_on_c, 1, 67, 82
1, 34206, Note_on_c, 1, 67, 0
1, 34208, Note_on_c, 1, 65, 82
1, 34238, Note_on_c, 1, 65, 0
1, 34240, Note_on_c, 1, 64, 83
1, 34270, Note_on_c, 1, 64, 0
1, 34272, Note_on_c, 1, 65, 85
1, 34302, Note_on_c, 0, 70, 0
1, 34304, Note_on_c, 0, 72, 77
1, 34334, Note_on_c, 0, 72, 0
1, 34336, Note_on_c, 0, 74, 78
1, 34361, Note_on_c, 1, 65, 0
1, 34366, Note_on_c, 0, 74, 0
1, 34368, Note_on_c, 0, 75, 78
1, 34398, Note_on_c, 0, 75, 0
1, 34400, Note_on_c, 0, 77, 79
1, 34430, Note_on_c, 0, 77, 0
1, 34432, Note_on_c, 0, 79, 80
1, 34462, Note_on_c, 0, 79, 0
1, 34464, Note_on_c, 0, 81, 80
1, 34464, Note_on_c, 1, 63, 70
1, 34464, Note_on_c, 1, 53, 70
1, 34494, Note_on_c, 0, 81, 0
1, 34496, Note_on_c, 0, 82, 81
1, 34526, Note_on_c, 0, 82, 0
1, 34528, Note_on_c, 0, 84, 82
1, 34553, Note_on_c, 1, 63, 0
1, 34553, Note_on_c, 1, 53, 0
1, 34558, Note_on_c, 0, 84, 0
1, 34560, Note_on_c, 0, 82, 82
1, 34560, Note_on_c, 1, 62, 70
1, 34560, Note_on_c, 1, 58, 70
1, 34599, Note_on_c, 0, 82, 0
1, 34649, Note_on_c, 1, 62, 0
1, 34649, Note_on_c, 1, 58, 0
1, 34656, Note_on_c, 1, 46, 70
1, 34728, Note_on_c, 0, 70, 85
1, 34745, Note_on_c, 1, 46, 0
1, 34751, Note_on_c, 0, 70, 0
1, 34752, Note_on_c, 0, 72, 85
1, 34764, Note_on_c, 0, 72, 0
1, 34764, Note_on_c, 0, 70, 85
1, 34776, Note_on_c, 0, 70, 0
1, 34776, Note_on_c, 0, 68, 85
1, 34788, Note_on_c, 0, 68, 0
1, 34788, Note_on_c, 0, 70, 85
1, 34800, Note_on_c, 0, 70, 0
1, 34800, Note_on_c, 0, 70, 85
1, 34819, Note_on_c, 0, 70, 0
1, 34824, Note_on_c, 0, 72, 85
1, 34847, Note_on_c, 0, 72, 0
1, 34848, Note_on_c, 0, 73, 101
1, 34944, Note_on_c, 1, 61, 64
1, 34944, Note_on_c, 1, 58, 64
1, 34974, Note_on_c, 0, 73, 0
1, 34976, Note_on_c, 0, 72, 85
1, 35006, Note_on_c, 0, 72, 0
1, 35008, Note_on_c, 0, 70, 85
1, 35033, Note_on_c, 1, 61, 0
1, 35033, Note_on_c, 1, 58, 0
1, 35038, Note_on_c, 0, 70, 0
1, 35040, Note_on_c, 0, 68, 85
1, 35040, Note_on_c, 1, 61, 64
1, 35040, Note_on_c, 1, 58, 64
1, 35070, Note_on_c, 0, 68, 0
1, 35072, Note_on_c, 0, 67, 85
1, 35102, Note_on_c, 0, 67, 0
1, 35104, Note_on_c, 0, 65, 85
1, 35129, Note_on_c, 1, 61, 0
1, 35129, Note_on_c, 1, 58, 0
1, 35134, Note_on_c, 0, 65, 0
1, 35136, Note_on_c, 0, 64, 85
1, 35136, Note_on_c, 1, 61, 64
1, 35136, Note_on_c, 1, 58, 64
1, 35232, Note_on_c, 0, 64, 0
1, 35232, Note_on_c, 0, 65, 85
1, 35232, Note_on_c, 1, 61, 0
1, 35232, Note_on_c, 1, 58, 0
1, 35232, Note_on_c, 1, 60, 64
1, 35232, Note_on_c, 1, 56, 64
1, 35299, Note_on_c, 0, 65, 0
1, 35304, Note_on_c, 0, 68, 85
1, 35321, Note_on_c, 1, 60, 0
1, 35321, Note_on_c, 1, 56, 0
1, 35327, Note_on_c, 0, 68, 0
1, 35328, Note_on_c, 0, 70, 85
1, 35340, Note_on_c, 0, 70, 0
1, 35340, Note_on_c, 0, 68, 85
1, 35352, Note_on_c, 0, 68, 0
1, 35352, Note_on_c, 0, 67, 85
1, 35364, Note_on_c, 0, 67, 0
1, 35364, Note_on_c, 0, 68, 85
1, 35376, Note_on_c, 0, 68, 0
1, 35376, Note_on_c, 0, 68, 85
1, 35395, Note_on_c, 0, 68, 0
1, 35400, Note_on_c, 0, 70, 85
1, 35423, Note_on_c, 0, 70, 0
1, 35424, Note_on_c, 0, 71, 101
1, 35520, Note_on_c, 1, 59, 64
1, 35520, Note_on_c, 1, 56, 64
1, 35550, Note_on_c, 0, 71, 0
1, 35552, Note_on_c, 0, 70, 85
1, 35582, Note_on_c, 0, 70, 0
1, 35584, Note_on_c, 0, 68, 85
1, 35609, Note_on_c, 1, 59, 0
1, 35609, Note_on_c, 1, 56, 0
1, 35614, Note_on_c, 0, 68, 0
1, 35616, Note_on_c, 0, 66, 85
1, 35616, Note_on_c, 1, 59, 64
1, 35616, Note_on_c, 1, 56, 64
1, 35646, Note_on_c, 0, 66, 0
1, 35648, Note_on_c, 0, 65, 85
1, 35678, Note_on_c, 0, 65, 0
1, 35680, Note_on_c, 0, 63, 85
1, 35705, Note_on_c, 1, 59, 0
1, 35705, Note_on_c, 1, 56, 0
1, 35710, Note_on_c, 0, 63, 0
1, 35712, Note_on_c, 0, 62, 85
1, 35712, Note_on_c, 1, 58, 64
1, 35712, Note_on_c, 1, 56, 70
1, 35808, Note_on_c, 0, 62, 0
1, 35808, Note_on_c, 0, 63, 85
1, 35808, Note_on_c, 1, 56, 0
1, 35808, Note_on_c, 1, 55, 70
1, 35875, Note_on_c, 0, 63, 0
1, 35880, Note_on_c, 0, 63, 85
1, 35889, Note_on_c, 1, 58, 0
1, 35897, Note_on_c, 1, 55, 0
1, 35903, Note_on_c, 0, 63, 0
1, 35904, Note_on_c, 0, 65, 85
1, 35916, Note_on_c, 0, 65, 0
1, 35916, Note_on_c, 0, 63, 85
1, 35928, Note_on_c, 0, 63, 0
1, 35928, Note_on_c, 0, 62, 85
1, 35940, Note_on_c, 0, 62, 0
1, 35940, Note_on_c, 0, 63, 85
1, 35952, Note_on_c, 0, 63, 0
1, 35952, Note_on_c, 0, 63, 85
1, 35971, Note_on_c, 0, 63, 0
1, 35976, Note_on_c, 0, 67, 85
1, 35999, Note_on_c, 0, 67, 0
1, 36000, Note_on_c, 0, 60, 70
1, 36000, Note_on_c, 1, 56, 64
1, 36030, Note_on_c, 0, 60, 0
1, 36032, Note_on_c, 0, 62, 70
1, 36062, Note_on_c, 0, 62, 0
1, 36064, Note_on_c, 0, 63, 71
1, 36089, Note_on_c, 1, 56, 0
1, 36094, Note_on_c, 0, 63, 0
1, 36096, Note_on_c, 0, 65, 71
1, 36126, Note_on_c, 0, 65, 0
1, 36128, Note_on_c, 0, 67, 72
1, 36158, Note_on_c, 0, 67, 0
1, 36160, Note_on_c, 0, 68, 72
1, 36190, Note_on_c, 0, 68, 0
1, 36192, Note_on_c, 0, 62, 73
1, 36192, Note_on_c, 1, 58, 68
1, 36222, Note_on_c, 0, 62, 0
1, 36224, Note_on_c, 0, 63, 73
1, 36231, Note_on_c, 1, 58, 0
1, 36254, Note_on_c, 0, 63, 0
1, 36256, Note_on_c, 0, 65, 74
1, 36286, Note_on_c, 0, 65, 0
1, 36288, Note_on_c, 0, 63, 74
1, 36288, Note_on_c, 1, 60, 71
1, 36318, Note_on_c, 0, 63, 0
1, 36320, Note_on_c, 0, 65, 75
1, 36327, Note_on_c, 1, 60, 0
1, 36350, Note_on_c, 0, 65, 0
1, 36352, Note_on_c, 0, 67, 75
1, 36382, Note_on_c, 0, 67, 0
1, 36384, Note_on_c, 0, 68, 76
1, 36414, Note_on_c, 0, 68, 0
1, 36416, Note_on_c, 0, 70, 76
1, 36446, Note_on_c, 0, 70, 0
1, 36448, Note_on_c, 0, 72, 77
1, 36478, Note_on_c, 0, 72, 0
1, 36480, Note_on_c, 0, 65, 77
1, 36480, Note_on_c, 1, 62, 75
1, 36510, Note_on_c, 0, 65, 0
1, 36512, Note_on_c, 0, 67, 78
1, 36519, Note_on_c, 1, 62, 0
1, 36542, Note_on_c, 0, 67, 0
1, 36544, Note_on_c, 0, 68, 78
1, 36574, Note_on_c, 0, 68, 0
1, 36576, Note_on_c, 0, 67, 79
1, 36576, Note_on_c, 1, 63, 78
1, 36606, Note_on_c, 0, 67, 0
1, 36608, Note_on_c, 0, 68, 79
1, 36615, Note_on_c, 1, 63, 0
1, 36638, Note_on_c, 0, 68, 0
1, 36640, Note_on_c, 0, 70, 80
1, 36670, Note_on_c, 0, 70, 0
1, 36672, Note_on_c, 0, 72, 80
1, 36672, Note_on_c, 1, 60, 80
1, 36702, Note_on_c, 0, 72, 0
1, 36704, Note_on_c, 0, 74, 81
1, 36711, Note_on_c, 1, 60, 0
1, 36734, Note_on_c, 0, 74, 0
1, 36736, Note_on_c, 0, 75, 81
1, 36766, Note_on_c, 0, 75, 0
1, 36768, Note_on_c, 0, 77, 82
1, 36768, Note_on_c, 1, 56, 82
1, 36798, Note_on_c, 0, 77, 0
1, 36800, Note_on_c, 0, 79, 83
1, 36807, Note_on_c, 1, 56, 0
1, 36830, Note_on_c, 0, 79, 0
1, 36832, Note_on_c, 0, 80, 83
1, 36862, Note_on_c, 0, 80, 0
1, 36864, Note_on_c, 0, 79, 85
1, 36864, Note_on_c, 0, 75, 85
1, 36864, Note_on_c, 1, 58, 85
1, 36953, Note_on_c, 0, 79, 0
1, 36953, Note_on_c, 0, 75, 0
1, 36953, Note_on_c, 1, 58, 0
1, 36960, Note_on_c, 0, 77, 81
1, 36960, Note_on_c, 0, 74, 81
1, 36960, Note_on_c, 1, 46, 85
1, 37027, Note_on_c, 0, 77, 0
1, 37027, Note_on_c, 0, 74, 0
1, 37032, Note_on_c, 0, 75, 78
1, 37049, Note_on_c, 1, 46, 0
1, 37055, Note_on_c, 0, 75, 0
1, 37056, Note_on_c, 0, 77, 77
1, 37068, Note_on_c, 0, 77, 0
1, 37068, Note_on_c, 0, 75, 77
1, 37080, Note_on_c, 0, 75, 0
1, 37080, Note_on_c, 0, 74, 77
1, 37092, Note_on_c, 0, 74, 0
1, 37092, Note_on_c, 0, 75, 77
1, 37104, Note_on_c, 0, 75, 0
1, 37104, Note_on_c, 0, 75, 77
1, 37123, Note_on_c, 0, 75, 0
1, 37128, Note_on_c, 0, 79, 77
1, 37151, Note_on_c, 0, 79, 0
1, 37152, Note_on_c, 0, 82, 77
1, 37191, Note_on_c, 0, 82, 0
1, 37248, Note_on_c, 1, 67, 70
1, 37248, Note_on_c, 1, 63, 70
1, 37320, Note_on_c, 0, 75, 77
1, 37337, Note_on_c, 1, 67, 0
1, 37337, Note_on_c, 1, 63, 0
1, 37343, Note_on_c, 0, 75, 0
1, 37344, Note_on_c, 0, 77, 77
1, 37356, Note_on_c, 0, 77, 0
1, 37356, Note_on_c, 0, 75, 77
1, 37368, Note_on_c, 0, 75, 0
1, 37368, Note_on_c, 0, 74, 77
1, 37380, Note_on_c, 0, 74, 0
1, 37380, Note_on_c, 0, 75, 77
1, 37392, Note_on_c, 0, 75, 0
1, 37392, Note_on_c, 0, 75, 77
1, 37411, Note_on_c, 0, 75, 0
1, 37416, Note_on_c, 0, 79, 77
1, 37439, Note_on_c, 0, 79, 0
1, 37440, Note_on_c, 0, 72, 77
1, 37479, Note_on_c, 0, 72, 0
1, 37536, Note_on_c, 1, 60, 70
1, 37536, Note_on_c, 1, 56, 70
1, 37608, Note_on_c, 0, 77, 77
1, 37625, Note_on_c, 1, 60, 0
1, 37625, Note_on_c, 1, 56, 0
1, 37631, Note_on_c, 0, 77, 0
1, 37632, Note_on_c, 0, 79, 78
1, 37644, Note_on_c, 0, 79, 0
1, 37644, Note_on_c, 0, 77, 78
1, 37656, Note_on_c, 0, 77, 0
1, 37656, Note_on_c, 0, 75, 78
1, 37668, Note_on_c, 0, 75, 0
1, 37668, Note_on_c, 0, 77, 78
1, 37680, Note_on_c, 0, 77, 0
1, 37680, Note_on_c, 0, 77, 78
1, 37699, Note_on_c, 0, 77, 0
1, 37704, Note_on_c, 0, 80, 83
1, 37727, Note_on_c, 0, 80, 0
1, 37728, Note_on_c, 0, 84, 85
1, 37758, Note_on_c, 0, 84, 0
1, 37760, Note_on_c, 0, 82, 84
1, 37790, Note_on_c, 0, 82, 0
1, 37792, Note_on_c, 0, 80, 83
1, 37822, Note_on_c, 0, 80, 0
1, 37824, Note_on_c, 0, 79, 83
1, 37854, Note_on_c, 0, 79, 0
1, 37856, Note_on_c, 0, 77, 82
1, 37886, Note_on_c, 0, 77, 0
1, 37888, Note_on_c, 0, 75, 82
1, 37918, Note_on_c, 0, 75, 0
1, 37920, Note_on_c, 0, 74, 81
1, 37920, Note_on_c, 1, 62, 70
1, 37920, Note_on_c, 1, 58, 70
1, 37950, Note_on_c, 0, 74, 0
1, 37952, Note_on_c, 0, 72, 81
1, 37982, Note_on_c, 0, 72, 0
1, 37984, Note_on_c, 0, 70, 80
1, 38009, Note_on_c, 1, 62, 0
1, 38009, Note_on_c, 1, 58, 0
1, 38014, Note_on_c, 0, 70, 0
1, 38016, Note_on_c, 0, 68, 80
1, 38016, Note_on_c, 1, 63, 70
1, 38105, Note_on_c, 1, 63, 0
1, 38112, Note_on_c, 0, 68, 0
1, 38112, Note_on_c, 0, 67, 78
1, 38112, Note_on_c, 1, 51, 70
1, 38179, Note_on_c, 0, 67, 0
1, 38184, Note_on_c, 0, 72, 77
1, 38201, Note_on_c, 1, 51, 0
1, 38207, Note_on_c, 0, 72, 0
1, 38208, Note_on_c, 0, 74, 77
1, 38208, Note_on_c, 1, 56, 70
1, 38208, Note_on_c, 1, 63, 70
1, 38220, Note_on_c, 0, 74, 0
1, 38220, Note_on_c, 0, 72, 77
1, 38232, Note_on_c, 0, 72, 0
1, 38232, Note_on_c, 0, 70, 77
1, 38244, Note_on_c, 0, 70, 0
1, 38244, Note_on_c, 0, 72, 77
1, 38256, Note_on_c, 0, 72, 0
1, 38256, Note_on_c, 0, 72, 77
1, 38275, Note_on_c, 0, 72, 0
1, 38280, Note_on_c, 0, 74, 80
1, 38297, Note_on_c, 1, 56, 0
1, 38303, Note_on_c, 0, 74, 0
1, 38304, Note_on_c, 0, 75, 81
1, 38304, Note_on_c, 1, 55, 70
1, 38343, Note_on_c, 0, 75, 0
1, 38393, Note_on_c, 1, 63, 0
1, 38400, Note_on_c, 1, 63, 70
1, 38472, Note_on_c, 0, 70, 85
1, 38481, Note_on_c, 1, 55, 0
1, 38495, Note_on_c, 0, 70, 0
1, 38496, Note_on_c, 0, 72, 85
1, 38496, Note_on_c, 1, 55, 70
1, 38508, Note_on_c, 0, 72, 0
1, 38508, Note_on_c, 0, 70, 85
1, 38520, Note_on_c, 0, 70, 0
1, 38520, Note_on_c, 0, 68, 85
1, 38532, Note_on_c, 0, 68, 0
1, 38532, Note_on_c, 0, 70, 85
1, 38544, Note_on_c, 0, 70, 0
1, 38544, Note_on_c, 0, 70, 85
1, 38563, Note_on_c, 0, 70, 0
1, 38568, Note_on_c, 0, 72, 85
1, 38585, Note_on_c, 1, 55, 0
1, 38591, Note_on_c, 0, 72, 0
1, 38592, Note_on_c, 0, 70, 85
1, 38592, Note_on_c, 1, 53, 70
1, 38659, Note_on_c, 0, 70, 0
1, 38664, Note_on_c, 0, 69, 82
1, 38681, Note_on_c, 1, 63, 0
1, 38687, Note_on_c, 0, 69, 0
1, 38688, Note_on_c, 0, 68, 81
1, 38688, Note_on_c, 1, 62, 70
1, 38769, Note_on_c, 1, 53, 0
1, 38777, Note_on_c, 1, 62, 0
1, 38784, Note_on_c, 1, 51, 70
1, 38784, Note_on_c, 1, 63, 70
1, 38821, Note_on_c, 0, 68, 0
1, 38832, Note_on_c, 0, 67, 77
1, 38873, Note_on_c, 1, 51, 0
1, 38873, Note_on_c, 1, 63, 0
1, 38877, Note_on_c, 0, 67, 0
1, 38880, Note_on_c, 0, 65, 77
1, 38880, Note_on_c, 1, 56, 70
1, 38880, Note_on_c, 1, 60, 70
1, 38910, Note_on_c, 0, 65, 0
1, 38912, Note_on_c, 0, 68, 77
1, 38942, Note_on_c, 0, 68, 0
1, 38944, Note_on_c, 0, 72, 77
1, 38969, Note_on_c, 1, 56, 0
1, 38969, Note_on_c, 1, 60, 0
1, 38974, Note_on_c, 0, 72, 0
1, 38976, Note_on_c, 0, 63, 77
1, 38976, Note_on_c, 1, 46, 70
1, 38976, Note_on_c, 1, 55, 70
1, 39065, Note_on_c, 0, 63, 0
1, 39065, Note_on_c, 1, 55, 0
1, 39072, Note_on_c, 0, 62, 77
1, 39072, Note_on_c, 1, 53, 70
1, 39085, Note_on_c, 0, 62, 0
1, 39086, Note_on_c, 0, 63, 77
1, 39099, Note_on_c, 0, 63, 0
1, 39100, Note_on_c, 0, 62, 77
1, 39113, Note_on_c, 0, 62, 0
1, 39114, Note_on_c, 0, 63, 77
1, 39127, Note_on_c, 0, 63, 0
1, 39128, Note_on_c, 0, 62, 77
1, 39141, Note_on_c, 0, 62, 0
1, 39142, Note_on_c, 0, 60, 77
1, 39153, Note_on_c, 1, 46, 0
1, 39154, Note_on_c, 0, 60, 0
1, 39155, Note_on_c, 0, 62, 77
1, 39161, Note_on_c, 1, 53, 0
1, 39167, Note_on_c, 0, 62, 0
1, 39168, Note_on_c, 0, 63, 77
1, 39168, Note_on_c, 1, 51, 70
1, 39198, Note_on_c, 1, 51, 0
1, 39200, Note_on_c, 1, 53, 70
1, 39230, Note_on_c, 1, 53, 0
1, 39232, Note_on_c, 1, 55, 71
1, 39262, Note_on_c, 1, 55, 0
1, 39264, Note_on_c, 1, 56, 71
1, 39294, Note_on_c, 1, 56, 0
1, 39296, Note_on_c, 1, 58, 72
1, 39326, Note_on_c, 1, 58, 0
1, 39328, Note_on_c, 1, 60, 72
1, 39358, Note_on_c, 1, 60, 0
1, 39360, Note_on_c, 1, 57, 73
1, 39390, Note_on_c, 1, 57, 0
1, 39392, Note_on_c, 1, 58, 73
1, 39422, Note_on_c, 1, 58, 0
1, 39424, Note_on_c, 1, 60, 74
1, 39454, Note_on_c, 1, 60, 0
1, 39456, Note_on_c, 1, 58, 74
1, 39486, Note_on_c, 0, 63, 0
1, 39488, Note_on_c, 0, 72, 85
1, 39518, Note_on_c, 0, 72, 0
1, 39520, Note_on_c, 0, 70, 84
1, 39545, Note_on_c, 1, 58, 0
1, 39550, Note_on_c, 0, 70, 0
1, 39552, Note_on_c, 0, 68, 83
1, 39582, Note_on_c, 0, 68, 0
1, 39584, Note_on_c, 0, 67, 82
1, 39614, Note_on_c, 0, 67, 0
1, 39616, Note_on_c, 0, 65, 81
1, 39646, Note_on_c, 0, 65, 0
1, 39648, Note_on_c, 0, 63, 80
1, 39648, Note_on_c, 1, 58, 77
1, 39678, Note_on_c, 0, 63, 0
1, 39680, Note_on_c, 0, 62, 79
1, 39710, Note_on_c, 0, 62, 0
1, 39712, Note_on_c, 0, 65, 78
1, 39737, Note_on_c, 1, 58, 0
1, 39742, Note_on_c, 0, 65, 0
1, 39744, Note_on_c, 0, 67, 77
1, 39744, Note_on_c, 1, 51, 77
1, 39774, Note_on_c, 0, 67, 0
1, 39774, Note_on_c, 1, 51, 0
1, 39776, Note_on_c, 0, 68, 77
1, 39776, Note_on_c, 1, 53, 77
1, 39806, Note_on_c, 0, 68, 0
1, 39806, Note_on_c, 1, 53, 0
1, 39808, Note_on_c, 0, 70, 78
1, 39808, Note_on_c, 1, 55, 78
1, 39838, Note_on_c, 0, 70, 0
1, 39838, Note_on_c, 1, 55, 0
1, 39840, Note_on_c, 0, 72, 79
1, 39840, Note_on_c, 1, 56, 79
1, 39870, Note_on_c, 0, 72, 0
1, 39870, Note_on_c, 1, 56, 0
1, 39872, Note_on_c, 0, 74, 80
1, 39872, Note_on_c, 1, 58, 80
1, 39902, Note_on_c, 0, 74, 0
1, 39902, Note_on_c, 1, 58, 0
1, 39904, Note_on_c, 0, 75, 80
1, 39904, Note_on_c, 1, 60, 81
1, 39934, Note_on_c, 0, 75, 0
1, 39934, Note_on_c, 1, 60, 0
1, 39936, Note_on_c, 0, 77, 81
1, 39936, Note_on_c, 1, 62, 82
1, 39966, Note_on_c, 0, 77, 0
1, 39966, Note_on_c, 1, 62, 0
1, 39968, Note_on_c, 0, 79, 82
1, 39968, Note_on_c, 1, 63, 82
1, 39998, Note_on_c, 0, 79, 0
1, 39998, Note_on_c, 1, 63, 0
1, 40000, Note_on_c, 0, 80, 83
1, 40000, Note_on_c, 1, 65, 83
1, 40030, Note_on_c, 0, 80, 0
1, 40030, Note_on_c, 1, 65, 0
1, 40032, Note_on_c, 0, 82, 83
1, 40032, Note_on_c, 1, 67, 85
1, 40062, Note_on_c, 0, 82, 0
1, 40064, Note_on_c, 0, 84, 85
1, 40094, Note_on_c, 0, 84, 0
1, 40096, Note_on_c, 0, 82, 83
1, 40121, Note_on_c, 1, 67, 0
1, 40126, Note_on_c, 0, 82, 0
1, 40128, Note_on_c, 0, 80, 82
1, 40158, Note_on_c, 0, 80, 0
1, 40160, Note_on_c, 0, 79, 81
1, 40190, Note_on_c, 0, 79, 0
1, 40192, Note_on_c, 0, 77, 80
1, 40222, Note_on_c, 0, 77, 0
1, 40224, Note_on_c, 0, 75, 78
1, 40224, Note_on_c, 1, 68, 70
1, 40224, Note_on_c, 1, 58, 70
1, 40254, Note_on_c, 0, 75, 0
1, 40256, Note_on_c, 0, 74, 77
1, 40286, Note_on_c, 0, 74, 0
1, 40288, Note_on_c, 0, 77, 77
1, 40313, Note_on_c, 1, 68, 0
1, 40313, Note_on_c, 1, 58, 0
1, 40318, Note_on_c, 0, 77, 0
1, 40320, Note_on_c, 0, 75, 77
1, 40320, Note_on_c, 1, 67, 70
1, 40320, Note_on_c, 1, 63, 70
1, 40409, Note_on_c, 0, 75, 0
1, 40409, Note_on_c, 1, 67, 0
1, 40409, Note_on_c, 1, 63, 0
1, 40416, Note_on_c, 1, 51, 70
1, 40488, Note_on_c, 0, 70, 70
1, 40505, Note_on_c, 1, 51, 0
1, 40511, Note_on_c, 0, 70, 0
1, 40512, Note_on_c, 0, 72, 70
1, 40524, Note_on_c, 0, 72, 0
1, 40524, Note_on_c, 0, 70, 70
1, 40536, Note_on_c, 0, 70, 0
1, 40536, Note_on_c, 0, 68, 70
1, 40548, Note_on_c, 0, 68, 0
1, 40548, Note_on_c, 0, 70, 70
1, 40560, Note_on_c, 0, 70, 0
1, 40560, Note_on_c, 0, 70, 70
1, 40579, Note_on_c, 0, 70, 0
1, 40584, Note_on_c, 0, 72, 70
1, 40607, Note_on_c, 0, 72, 0
1, 40608, Note_on_c, 0, 73, 86
1, 40704, Note_on_c, 1, 61, 64
1, 40704, Note_on_c, 1, 58, 64
1, 40734, Note_on_c, 0, 73, 0
1, 40736, Note_on_c, 0, 72, 70
1, 40766, Note_on_c, 0, 72, 0
1, 40768, Note_on_c, 0, 70, 70
1, 40793, Note_on_c, 1, 61, 0
1, 40793, Note_on_c, 1, 58, 0
1, 40798, Note_on_c, 0, 70, 0
1, 40800, Note_on_c, 0, 68, 70
1, 40800, Note_on_c, 1, 61, 64
1, 40800, Note_on_c, 1, 58, 64
1, 40830, Note_on_c, 0, 68, 0
1, 40832, Note_on_c, 0, 67, 70
1, 40862, Note_on_c, 0, 67, 0
1, 40864, Note_on_c, 0, 65, 70
1, 40889, Note_on_c, 1, 61, 0
1, 40889, Note_on_c, 1, 58, 0
1, 40894, Note_on_c, 0, 65, 0
1, 40896, Note_on_c, 0, 64, 70
1, 40896, Note_on_c, 1, 61, 64
1, 40896, Note_on_c, 1, 58, 64
1, 40992, Note_on_c, 0, 64, 0
1, 40992, Note_on_c, 0, 65, 70
1, 40992, Note_on_c, 1, 61, 0
1, 40992, Note_on_c, 1, 58, 0
1, 40992, Note_on_c, 1, 60, 64
1, 40992, Note_on_c, 1, 56, 64
1, 41059, Note_on_c, 0, 65, 0
1, 41064, Note_on_c, 0, 68, 70
1, 41081, Note_on_c, 1, 60, 0
1, 41081, Note_on_c, 1, 56, 0
1, 41087, Note_on_c, 0, 68, 0
1, 41088, Note_on_c, 0, 70, 70
1, 41100, Note_on_c, 0, 70, 0
1, 41100, Note_on_c, 0, 68, 70
1, 41112, Note_on_c, 0, 68, 0
1, 41112, Note_on_c, 0, 67, 70
1, 41124, Note_on_c, 0, 67, 0
1, 41124, Note_on_c, 0, 68, 70
1, 41136, Note_on_c, 0, 68, 0
1, 41136, Note_on_c, 0, 68, 70
1, 41155, Note_on_c, 0, 68, 0
1, 41160, Note_on_c, 0, 70, 70
1, 41183, Note_on_c, 0, 70, 0
1, 41184, Note_on_c, 0, 71, 86
1, 41280, Note_on_c, 1, 59, 64
1, 41280, Note_on_c, 1, 56, 64
1, 41310, Note_on_c, 0, 71, 0
1, 41312, Note_on_c, 0, 70, 70
1, 41342, Note_on_c, 0, 70, 0
1, 41344, Note_on_c, 0, 68, 70
1, 41369, Note_on_c, 1, 59, 0
1, 41369, Note_on_c, 1, 56, 0
1, 41374, Note_on_c, 0, 68, 0
1, 41376, Note_on_c, 0, 66, 70
1, 41376, Note_on_c, 1, 59, 64
1, 41376, Note_on_c, 1, 56, 64
1, 41406, Note_on_c, 0, 66, 0
1, 41408, Note_on_c, 0, 65, 70
1, 41438, Note_on_c, 0, 65, 0
1, 41440, Note_on_c, 0, 63, 70
1, 41465, Note_on_c, 1, 59, 0
1, 41465, Note_on_c, 1, 56, 0
1, 41470, Note_on_c, 0, 63, 0
1, 41472, Note_on_c, 0, 62, 70
1, 41472, Note_on_c, 1, 58, 64
1, 41472, Note_on_c, 1, 56, 70
1, 41568, Note_on_c, 0, 62, 0
1, 41568, Note_on_c, 0, 63, 70
1, 41568, Note_on_c, 1, 56, 0
1, 41568, Note_on_c, 1, 55, 70
1, 41635, Note_on_c, 0, 63, 0
1, 41640, Note_on_c, 0, 63, 70
1, 41649, Note_on_c, 1, 58, 0
1, 41657, Note_on_c, 1, 55, 0
1, 41663, Note_on_c, 0, 63, 0
1, 41664, Note_on_c, 0, 65, 70
1, 41676, Note_on_c, 0, 65, 0
1, 41676, Note_on_c, 0, 63, 70
1, 41688, Note_on_c, 0, 63, 0
1, 41688, Note_on_c, 0, 62, 70
1, 41700, Note_on_c, 0, 62, 0
1, 41700, Note_on_c, 0, 63, 70
1, 41712, Note_on_c, 0, 63, 0
1, 41712, Note_on_c, 0, 63, 70
1, 41731, Note_on_c, 0, 63, 0
1, 41736, Note_on_c, 0, 67, 70
1, 41759, Note_on_c, 0, 67, 0
1, 41760, Note_on_c, 0, 60, 70
1, 41760, Note_on_c, 1, 56, 64
1, 41790, Note_on_c, 0, 60, 0
1, 41792, Note_on_c, 0, 62, 70
1, 41822, Note_on_c, 0, 62, 0
1, 41824, Note_on_c, 0, 63, 71
1, 41849, Note_on_c, 1, 56, 0
1, 41854, Note_on_c, 0, 63, 0
1, 41856, Note_on_c, 0, 65, 71
1, 41886, Note_on_c, 0, 65, 0
1, 41888, Note_on_c, 0, 67, 72
1, 41918, Note_on_c, 0, 67, 0
1, 41920, Note_on_c, 0, 68, 72
1, 41950, Note_on_c, 0, 68, 0
1, 41952, Note_on_c, 0, 62, 73
1, 41952, Note_on_c, 1, 58, 68
1, 41982, Note_on_c, 0, 62, 0
1, 41984, Note_on_c, 0, 63, 73
1, 41991, Note_on_c, 1, 58, 0
1, 42014, Note_on_c, 0, 63, 0
1, 42016, Note_on_c, 0, 65, 74
1, 42046, Note_on_c, 0, 65, 0
1, 42048, Note_on_c, 0, 63, 74
1, 42048, Note_on_c, 1, 60, 71
1, 42078, Note_on_c, 0, 63, 0
1, 42080, Note_on_c, 0, 65, 75
1, 42087, Note_on_c, 1, 60, 0
1, 42110, Note_on_c, 0, 65, 0
1, 42112, Note_on_c, 0, 67, 75
1, 42142, Note_on_c, 0, 67, 0
1, 42144, Note_on_c, 0, 68, 76
1, 42174, Note_on_c, 0, 68, 0
1, 42176, Note_on_c, 0, 70, 76
1, 42206, Note_on_c, 0, 70, 0
1, 42208, Note_on_c, 0, 72, 77
1, 42238, Note_on_c, 0, 72, 0
1, 42240, Note_on_c, 0, 65, 77
1, 42240, Note_on_c, 1, 62, 75
1, 42270, Note_on_c, 0, 65, 0
1, 42272, Note_on_c, 0, 67, 78
1, 42279, Note_on_c, 1, 62, 0
1, 42302, Note_on_c, 0, 67, 0
1, 42304, Note_on_c, 0, 68, 78
1, 42334, Note_on_c, 0, 68, 0
1, 42336, Note_on_c, 0, 67, 79
1, 42336, Note_on_c, 1, 63, 78
1, 42366, Note_on_c, 0, 67, 0
1, 42368, Note_on_c, 0, 68, 79
1, 42375, Note_on_c, 1, 63, 0
1, 42398, Note_on_c, 0, 68, 0
1, 42400, Note_on_c, 0, 70, 80
1, 42430, Note_on_c, 0, 70, 0
1, 42432, Note_on_c, 0, 72, 80
1, 42432, Note_on_c, 1, 60, 80
1, 42462, Note_on_c, 0, 72, 0
1, 42464, Note_on_c, 0, 74, 81
1, 42471, Note_on_c, 1, 60, 0
1, 42494, Note_on_c, 0, 74, 0
1, 42496, Note_on_c, 0, 75, 81
1, 42526, Note_on_c, 0, 75, 0
1, 42528, Note_on_c, 0, 77, 82
1, 42528, Note_on_c, 1, 56, 82
1, 42558, Note_on_c, 0, 77, 0
1, 42560, Note_on_c, 0, 79, 83
1, 42567, Note_on_c, 1, 56, 0
1, 42590, Note_on_c, 0, 79, 0
1, 42592, Note_on_c, 0, 80, 83
1, 42622, Note_on_c, 0, 80, 0
1, 42624, Note_on_c, 0, 79, 85
1, 42624, Note_on_c, 0, 75, 85
1, 42624, Note_on_c, 1, 58, 85
1, 42713, Note_on_c, 0, 79, 0
1, 42713, Note_on_c, 0, 75, 0
1, 42713, Note_on_c, 1, 58, 0
1, 42720, Note_on_c, 0, 77, 81
1, 42720, Note_on_c, 0, 74, 81
1, 42720, Note_on_c, 1, 46, 85
1, 42787, Note_on_c, 0, 77, 0
1, 42787, Note_on_c, 0, 74, 0
1, 42792, Note_on_c, 0, 75, 78
1, 42809, Note_on_c, 1, 46, 0
1, 42815, Note_on_c, 0, 75, 0
1, 42816, Note_on_c, 0, 77, 77
1, 42828, Note_on_c, 0, 77, 0
1, 42828, Note_on_c, 0, 75, 77
1, 42840, Note_on_c, 0, 75, 0
1, 42840, Note_on_c, 0, 74, 77
1, 42852, Note_on_c, 0, 74, 0
1, 42852, Note_on_c, 0, 75, 77
1, 42864, Note_on_c, 0, 75, 0
1, 42864, Note_on_c, 0, 75, 77
1, 42883, Note_on_c, 0, 75, 0
1, 42888, Note_on_c, 0, 79, 77
1, 42911, Note_on_c, 0, 79, 0
1, 42912, Note_on_c, 0, 82, 77
1, 42951, Note_on_c, 0, 82, 0
1, 43008, Note_on_c, 1, 67, 70
1, 43008, Note_on_c, 1, 63, 70
1, 43080, Note_on_c, 0, 75, 77
1, 43097, Note_on_c, 1, 67, 0
1, 43097, Note_on_c, 1, 63, 0
1, 43103, Note_on_c, 0, 75, 0
1, 43104, Note_on_c, 0, 77, 77
1, 43116, Note_on_c, 0, 77, 0
1, 43116, Note_on_c, 0, 75, 77
1, 43128, Note_on_c, 0, 75, 0
1, 43128, Note_on_c, 0, 74, 77
1, 43140, Note_on_c, 0, 74, 0
1, 43140, Note_on_c, 0, 75, 77
1, 43152, Note_on_c, 0, 75, 0
1, 43152, Note_on_c, 0, 75, 77
1, 43171, Note_on_c, 0, 75, 0
1, 43176, Note_on_c, 0, 79, 77
1, 43199, Note_on_c, 0, 79, 0
1, 43200, Note_on_c, 0, 72, 77
1, 43239, Note_on_c, 0, 72, 0
1, 43296, Note_on_c, 1, 60, 70
1, 43296, Note_on_c, 1, 56, 70
1, 43368, Note_on_c, 0, 77, 77
1, 43385, Note_on_c, 1, 60, 0
1, 43385, Note_on_c, 1, 56, 0
1, 43391, Note_on_c, 0, 77, 0
1, 43392, Note_on_c, 0, 79, 78
1, 43404, Note_on_c, 0, 79, 0
1, 43404, Note_on_c, 0, 77, 78
1, 43416, Note_on_c, 0, 77, 0
1, 43416, Note_on_c, 0, 75, 78
1, 43428, Note_on_c, 0, 75, 0
1, 43428, Note_on_c, 0, 77, 78
1, 43440, Note_on_c, 0, 77, 0
1, 43440, Note_on_c, 0, 77, 78
1, 43459, Note_on_c, 0, 77, 0
1, 43464, Note_on_c, 0, 80, 83
1, 43487, Note_on_c, 0, 80, 0
1, 43488, Note_on_c, 0, 84, 85
1, 43518, Note_on_c, 0, 84, 0
1, 43520, Note_on_c, 0, 82, 84
1, 43550, Note_on_c, 0, 82, 0
1, 43552, Note_on_c, 0, 80, 83
1, 43582, Note_on_c, 0, 80, 0
1, 43584, Note_on_c, 0, 79, 83
1, 43614, Note_on_c, 0, 79, 0
1, 43616, Note_on_c, 0, 77, 82
1, 43646, Note_on_c, 0, 77, 0
1, 43648, Note_on_c, 0, 75, 82
1, 43678, Note_on_c, 0, 75, 0
1, 43680, Note_on_c, 0, 74, 81
1, 43680, Note_on_c, 1, 62, 70
1, 43680, Note_on_c, 1, 58, 70
1, 43710, Note_on_c, 0, 74, 0
1, 43712, Note_on_c, 0, 72, 81
1, 43742, Note_on_c, 0, 72, 0
1, 43744, Note_on_c, 0, 70, 80
1, 43769, Note_on_c, 1, 62, 0
1, 43769, Note_on_c, 1, 58, 0
1, 43774, Note_on_c, 0, 70, 0
1, 43776, Note_on_c, 0, 68, 80
1, 43776, Note_on_c, 1, 63, 70
1, 43865, Note_on_c, 1, 63, 0
1, 43872, Note_on_c, 0, 68, 0
1, 43872, Note_on_c, 0, 67, 78
1, 43872, Note_on_c, 1, 51, 70
1, 43939, Note_on_c, 0, 67, 0
1, 43944, Note_on_c, 0, 72, 77
1, 43961, Note_on_c, 1, 51, 0
1, 43967, Note_on_c, 0, 72, 0
1, 43968, Note_on_c, 0, 74, 77
1, 43968, Note_on_c, 1, 56, 70
1, 43968, Note_on_c, 1, 63, 70
1, 43980, Note_on_c, 0, 74, 0
1, 43980, Note_on_c, 0, 72, 77
1, 43992, Note_on_c, 0, 72, 0
1, 43992, Note_on_c, 0, 70, 77
1, 44004, Note_on_c, 0, 70, 0
1, 44004, Note_on_c, 0, 72, 77
1, 44016, Note_on_c, 0, 72, 0
1, 44016, Note_on_c, 0, 72, 77
1, 44035, Note_on_c, 0, 72, 0
1, 44040, Note_on_c, 0, 74, 80
1, 44057, Note_on_c, 1, 56, 0
1, 44063, Note_on_c, 0, 74, 0
1, 44064, Note_on_c, 0, 75, 81
1, 44064, Note_on_c, 1, 55, 70
1, 44103, Note_on_c, 0, 75, 0
1, 44153, Note_on_c, 1, 63, 0
1, 44160, Note_on_c, 1, 63, 70
1, 44232, Note_on_c, 0, 70, 85
1, 44241, Note_on_c, 1, 55, 0
1, 44255, Note_on_c, 0, 70, 0
1, 44256, Note_on_c, 0, 72, 85
1, 44256, Note_on_c, 1, 55, 70
1, 44268, Note_on_c, 0, 72, 0
1, 44268, Note_on_c, 0, 70, 85
1, 44280, Note_on_c, 0, 70, 0
1, 44280, Note_on_c, 0, 68, 85
1, 44292, Note_on_c, 0, 68, 0
1, 44292, Note_on_c, 0, 70, 85
1, 44304, Note_on_c, 0, 70, 0
1, 44304, Note_on_c, 0, 70, 85
1, 44323, Note_on_c, 0, 70, 0
1, 44328, Note_on_c, 0, 72, 85
1, 44345, Note_on_c, 1, 55, 0
1, 44351, Note_on_c, 0, 72, 0
1, 44352, Note_on_c, 0, 70, 85
1, 44352, Note_on_c, 1, 53, 70
1, 44419, Note_on_c, 0, 70, 0
1, 44424, Note_on_c, 0, 69, 82
1, 44441, Note_on_c, 1, 63, 0
1, 44447, Note_on_c, 0, 69, 0
1, 44448, Note_on_c, 0, 68, 81
1, 44448, Note_on_c, 1, 62, 70
1, 44529, Note_on_c, 1, 53, 0
1, 44537, Note_on_c, 1, 62, 0
1, 44544, Note_on_c, 1, 51, 70
1, 44544, Note_on_c, 1, 63, 70
1, 44581, Note_on_c, 0, 68, 0
1, 44592, Note_on_c, 0, 67, 77
1, 44633, Note_on_c, 1, 51, 0
1, 44633, Note_on_c, 1, 63, 0
1, 44637, Note_on_c, 0, 67, 0
1, 44640, Note_on_c, 0, 65, 77
1, 44640, Note_on_c, 1, 56, 70
1, 44640, Note_on_c, 1, 60, 70
1, 44670, Note_on_c, 0, 65, 0
1, 44672, Note_on_c, 0, 68, 77
1, 44702, Note_on_c, 0, 68, 0
1, 44704, Note_on_c, 0, 72, 77
1, 44729, Note_on_c, 1, 56, 0
1, 44729, Note_on_c, 1, 60, 0
1, 44734, Note_on_c, 0, 72, 0
1, 44736, Note_on_c, 0, 63, 77
1, 44736, Note_on_c, 1, 46, 70
1, 44736, Note_on_c, 1, 55, 70
1, 44825, Note_on_c, 0, 63, 0
1, 44825, Note_on_c, 1, 55, 0
1, 44832, Note_on_c, 0, 62, 77
1, 44832, Note_on_c, 1, 53, 70
1, 44845, Note_on_c, 0, 62, 0
1, 44846, Note_on_c, 0, 63, 77
1, 44859, Note_on_c, 0, 63, 0
1, 44860, Note_on_c, 0, 62, 77
1, 44873, Note_on_c, 0, 62, 0
1, 44874, Note_on_c, 0, 63, 77
1, 44887, Note_on_c, 0, 63, 0
1, 44888, Note_on_c, 0, 62, 77
1, 44901, Note_on_c, 0, 62, 0
1, 44902, Note_on_c, 0, 60, 77
1, 44913, Note_on_c, 1, 46, 0
1, 44914, Note_on_c, 0, 60, 0
1, 44915, Note_on_c, 0, 62, 77
1, 44921, Note_on_c, 1, 53, 0
1, 44927, Note_on_c, 0, 62, 0
1, 44928, Note_on_c, 0, 63, 77
1, 44928, Note_on_c, 1, 51, 70
1, 44958, Note_on_c, 1, 51, 0
1, 44960, Note_on_c, 1, 53, 70
1, 44990, Note_on_c, 1, 53, 0
1, 44992, Note_on_c, 1, 55, 71
1, 45022, Note_on_c, 1, 55, 0
1, 45024, Note_on_c, 1, 56, 71
1, 45054, Note_on_c, 1, 56, 0
1, 45056, Note_on_c, 1, 58, 72
1, 45086, Note_on_c, 1, 58, 0
1, 45088, Note_on_c, 1, 60, 72
1, 45118, Note_on_c, 1, 60, 0
1, 45120, Note_on_c, 1, 57, 73
1, 45150, Note_on_c, 1, 57, 0
1, 45152, Note_on_c, 1, 58, 73
1, 45182, Note_on_c, 1, 58, 0
1, 45184, Note_on_c, 1, 60, 74
1, 45214, Note_on_c, 1, 60, 0
1, 45216, Note_on_c, 1, 58, 74
1, 45246, Note_on_c, 0, 63, 0
1, 45248, Note_on_c, 0, 72, 85
1, 45278, Note_on_c, 0, 72, 0
1, 45280, Note_on_c, 0, 70, 84
1, 45305, Note_on_c, 1, 58, 0
1, 45310, Note_on_c, 0, 70, 0
1, 45312, Note_on_c, 0, 68, 83
1, 45342, Note_on_c, 0, 68, 0
1, 45344, Note_on_c, 0, 67, 82
1, 45374, Note_on_c, 0, 67, 0
1, 45376, Note_on_c, 0, 65, 81
1, 45406, Note_on_c, 0, 65, 0
1, 45408, Note_on_c, 0, 63, 80
1, 45408, Note_on_c, 1, 58, 77
1, 45438, Note_on_c, 0, 63, 0
1, 45440, Note_on_c, 0, 62, 79
1, 45470, Note_on_c, 0, 62, 0
1, 45472, Note_on_c, 0, 65, 78
1, 45497, Note_on_c, 1, 58, 0
1, 45502, Note_on_c, 0, 65, 0
1, 45504, Note_on_c, 0, 67, 77
1, 45504, Note_on_c, 1, 51, 77
1, 45534, Note_on_c, 0, 67, 0
1, 45534, Note_on_c, 1, 51, 0
1, 45536, Note_on_c, 0, 68, 77
1, 45536, Note_on_c, 1, 53, 77
1, 45566, Note_on_c, 0, 68, 0
1, 45566, Note_on_c, 1, 53, 0
1, 45568, Note_on_c, 0, 70, 78
1, 45568, Note_on_c, 1, 55, 78
1, 45598, Note_on_c, 0, 70, 0
1, 45598, Note_on_c, 1, 55, 0
1, 45600, Note_on_c, 0, 72, 79
1, 45600, Note_on_c, 1, 56, 79
1, 45630, Note_on_c, 0, 72, 0
1, 45630, Note_on_c, 1, 56, 0
1, 45632, Note_on_c, 0, 74, 80
1, 45632, Note_on_c, 1, 58, 80
1, 45662, Note_on_c, 0, 74, 0
1, 45662, Note_on_c, 1, 58, 0
1, 45664, Note_on_c, 0, 75, 80
1, 45664, Note_on_c, 1, 60, 81
1, 45694, Note_on_c, 0, 75, 0
1, 45694, Note_on_c, 1, 60, 0
1, 45696, Note_on_c, 0, 77, 81
1, 45696, Note_on_c, 1, 62, 82
1, 45726, Note_on_c, 0, 77, 0
1, 45726, Note_on_c, 1, 62, 0
1, 45728, Note_on_c, 0, 79, 82
1, 45728, Note_on_c, 1, 63, 82
1, 45758, Note_on_c, 0, 79, 0
1, 45758, Note_on_c, 1, 63, 0
1, 45760, Note_on_c, 0, 80, 83
1, 45760, Note_on_c, 1, 65, 83
1, 45790, Note_on_c, 0, 80, 0
1, 45790, Note_on_c, 1, 65, 0
1, 45792, Note_on_c, 0, 82, 83
1, 45792, Note_on_c, 1, 67, 85
1, 45822, Note_on_c, 0, 82, 0
1, 45824, Note_on_c, 0, 84, 85
1, 45854, Note_on_c, 0, 84, 0
1, 45856, Note_on_c, 0, 82, 83
1, 45881, Note_on_c, 1, 67, 0
1, 45886, Note_on_c, 0, 82, 0
1, 45888, Note_on_c, 0, 80, 82
1, 45918, Note_on_c, 0, 80, 0
1, 45920, Note_on_c, 0, 79, 81
1, 45950, Note_on_c, 0, 79, 0
1, 45952, Note_on_c, 0, 77, 80
1, 45982, Note_on_c, 0, 77, 0
1, 45984, Note_on_c, 0, 75, 78
1, 45984, Note_on_c, 1, 68, 70
1, 45984, Note_on_c, 1, 58, 70
1, 46014, Note_on_c, 0, 75, 0
1, 46016, Note_on_c, 0, 74, 77
1, 46046, Note_on_c, 0, 74, 0
1, 46048, Note_on_c, 0, 77, 77
1, 46073, Note_on_c, 1, 68, 0
1, 46073, Note_on_c, 1, 58, 0
1, 46078, Note_on_c, 0, 77, 0
1, 46080, Note_on_c, 0, 75, 77
1, 46080, Note_on_c, 1, 67, 70
1, 46080, Note_on_c, 1, 63, 70
1, 46169, Note_on_c, 0, 75, 0
1, 46169, Note_on_c, 1, 67, 0
1, 46169, Note_on_c, 1, 63, 0
1, 46176, Note_on_c, 1, 51, 70
1, 46265, Note_on_c, 1, 51, 0
1, 46368, Note_on_c, 1, 51, 4
1, 46457, Note_on_c, 1, 51, 0
1, 46467, End_track
0, 0, End_of_file