0, 0, Header, 0, 1, 96
1, 0, Start_track
1, 0, Tempo, 461538
1, 0, Note_on_c, 0, 62, 91
1, 0, Note_on_c, 1, 50, 91
1, 0, Note_on_c, 1, 38, 91
1, 96, Note_on_c, 0, 62, 0
1, 96, Note_on_c, 0, 66, 75
1, 114, Note_on_c, 0, 66, 0
1, 114, Note_on_c, 0, 67, 75
1, 132, Note_on_c, 0, 67, 0
1, 132, Note_on_c, 0, 66, 75
1, 163, Note_on_c, 0, 66, 0
1, 168, Note_on_c, 0, 64, 75
1, 191, Note_on_c, 0, 64, 0
1, 192, Note_on_c, 0, 66, 75
1, 192, Note_on_c, 1, 50, 0
1, 192, Note_on_c, 1, 38, 0
1, 192, Note_on_c, 1, 52, 75
1, 192, Note_on_c, 1, 40, 75
1, 259, Note_on_c, 0, 66, 0
1, 264, Note_on_c, 0, 67, 75
1, 281, Note_on_c, 1, 52, 0
1, 281, Note_on_c, 1, 40, 0
1, 287, Note_on_c, 0, 67, 0
1, 288, Note_on_c, 0, 69, 75
1, 288, Note_on_c, 1, 54, 75
1, 288, Note_on_c, 1, 42, 75
1, 377, Note_on_c, 0, 69, 0
1, 377, Note_on_c, 1, 54, 0
1, 377, Note_on_c, 1, 42, 0
1, 384, Note_on_c, 0, 66, 75
1, 384, Note_on_c, 1, 50, 75
1, 384, Note_on_c, 1, 38, 75
1, 402, Note_on_c, 0, 66, 0
1, 402, Note_on_c, 0, 67, 75
1, 420, Note_on_c, 0, 67, 0
1, 420, Note_on_c, 0, 66, 75
1, 451, Note_on_c, 0, 66, 0
1, 456, Note_on_c, 0, 64, 75
1, 473, Note_on_c, 1, 50, 0
1, 473, Note_on_c, 1, 38, 0
1, 479, Note_on_c, 0, 64, 0
1, 480, Note_on_c, 0, 66, 75
1, 480, Note_on_c, 1, 52, 75
1, 480, Note_on_c, 1, 40, 75
1, 547, Note_on_c, 0, 66, 0
1, 552, Note_on_c, 0, 67, 75
1, 569, Note_on_c, 1, 52, 0
1, 569, Note_on_c, 1, 40, 0
1, 575, Note_on_c, 0, 67, 0
1, 576, Note_on_c, 0, 69, 75
1, 576, Note_on_c, 1, 54, 75
1, 576, Note_on_c, 1, 42, 75
1, 665, Note_on_c, 0, 69, 0
1, 672, Note_on_c, 0, 57, 75
1, 702, Note_on_c, 0, 57, 0
1, 704, Note_on_c, 0, 62, 75
1, 734, Note_on_c, 0, 62, 0
1, 736, Note_on_c, 0, 66, 75
1, 753, Note_on_c, 1, 54, 0
1, 753, Note_on_c, 1, 42, 0
1, 766, Note_on_c, 0, 66, 0
1, 768, Note_on_c, 0, 64, 75
1, 768, Note_on_c, 1, 50, 75
1, 791, Note_on_c, 0, 64, 0
1, 792, Note_on_c, 0, 62, 75
1, 815, Note_on_c, 0, 62, 0
1, 816, Note_on_c, 0, 61, 75
1, 839, Note_on_c, 0, 61, 0
1, 840, Note_on_c, 0, 59, 75
1, 857, Note_on_c, 1, 50, 0
1, 863, Note_on_c, 0, 59, 0
1, 864, Note_on_c, 0, 57, 75
1, 864, Note_on_c, 1, 52, 75
1, 953, Note_on_c, 0, 57, 0
1, 953, Note_on_c, 1, 52, 0
1, 960, Note_on_c, 0, 55, 75
1, 960, Note_on_c, 1, 45, 75
1, 973, Note_on_c, 0, 55, 0
1, 974, Note_on_c, 0, 57, 75
1, 987, Note_on_c, 0, 57, 0
1, 988, Note_on_c, 0, 55, 75
1, 1001, Note_on_c, 0, 55, 0
1, 1002, Note_on_c, 0, 57, 75
1, 1015, Note_on_c, 0, 57, 0
1, 1016, Note_on_c, 0, 55, 75
1, 1029, Note_on_c, 0, 55, 0
1, 1030, Note_on_c, 0, 54, 75
1, 1042, Note_on_c, 0, 54, 0
1, 1043, Note_on_c, 0, 55, 75
1, 1049, Note_on_c, 1, 45, 0
1, 1055, Note_on_c, 0, 55, 0
1, 1056, Note_on_c, 0, 54, 75
1, 1056, Note_on_c, 1, 50, 75
1, 1145, Note_on_c, 0, 54, 0
1, 1145, Note_on_c, 1, 50, 0
1, 1152, Note_on_c, 0, 59, 75
1, 1152, Note_on_c, 1, 43, 75
1, 1170, Note_on_c, 0, 59, 0
1, 1170, Note_on_c, 0, 61, 75
1, 1188, Note_on_c, 0, 61, 0
1, 1188, Note_on_c, 0, 59, 75
1, 1219, Note_on_c, 0, 59, 0
1, 1224, Note_on_c, 0, 57, 75
1, 1241, Note_on_c, 1, 43, 0
1, 1247, Note_on_c, 0, 57, 0
1, 1248, Note_on_c, 0, 59, 75
1, 1248, Note_on_c, 1, 55, 75
1, 1315, Note_on_c, 0, 59, 0
1, 1320, Note_on_c, 0, 61, 75
1, 1337, Note_on_c, 1, 55, 0
1, 1343, Note_on_c, 0, 61, 0
1, 1344, Note_on_c, 0, 62, 75
1, 1344, Note_on_c, 1, 54, 75
1, 1411, Note_on_c, 0, 62, 0
1, 1416, Note_on_c, 0, 57, 75
1, 1433, Note_on_c, 1, 54, 0
1, 1439, Note_on_c, 0, 57, 0
1, 1440, Note_on_c, 0, 57, 75
1, 1440, Note_on_c, 1, 52, 75
1, 1507, Note_on_c, 0, 57, 0
1, 1512, Note_on_c, 0, 55, 75
1, 1529, Note_on_c, 1, 52, 0
1, 1535, Note_on_c, 0, 55, 0
1, 1536, Note_on_c, 0, 67, 75
1, 1536, Note_on_c, 1, 45, 75
1, 1566, Note_on_c, 0, 67, 0
1, 1568, Note_on_c, 0, 64, 75
1, 1598, Note_on_c, 0, 64, 0
1, 1600, Note_on_c, 0, 61, 75
1, 1625, Note_on_c, 1, 45, 0
1, 1630, Note_on_c, 0, 61, 0
1, 1632, Note_on_c, 0, 62, 75
1, 1632, Note_on_c, 1, 50, 75
1, 1650, Note_on_c, 0, 62, 0
1, 1650, Note_on_c, 0, 61, 75
1, 1668, Note_on_c, 0, 61, 0
1, 1668, Note_on_c, 0, 62, 75
1, 1721, Note_on_c, 0, 62, 0
1, 1721, Note_on_c, 1, 50, 0
1, 1728, Note_on_c, 0, 59, 75
1, 1728, Note_on_c, 1, 43, 75
1, 1817, Note_on_c, 0, 59, 0
1, 1817, Note_on_c, 1, 43, 0
1, 1824, Note_on_c, 0, 70, 75
1, 1824, Note_on_c, 1, 55, 75
1, 1854, Note_on_c, 0, 70, 0
1, 1856, Note_on_c, 0, 71, 76
1, 1886, Note_on_c, 0, 71, 0
1, 1888, Note_on_c, 0, 69, 78
1, 1913, Note_on_c, 1, 55, 0
1, 1918, Note_on_c, 0, 69, 0
1, 1920, Note_on_c, 0, 67, 79
1, 1920, Note_on_c, 1, 55, 75
1, 1950, Note_on_c, 0, 67, 0
1, 1952, Note_on_c, 0, 66, 78
1, 1982, Note_on_c, 0, 66, 0
1, 1984, Note_on_c, 0, 64, 77
1, 2009, Note_on_c, 1, 55, 0
1, 2014, Note_on_c, 0, 64, 0
1, 2016, Note_on_c, 0, 62, 75
1, 2016, Note_on_c, 1, 57, 75
1, 2105, Note_on_c, 1, 57, 0
1, 2112, Note_on_c, 1, 52, 75
1, 2201, Note_on_c, 1, 52, 0
1, 2208, Note_on_c, 0, 62, 0
1, 2208, Note_on_c, 0, 61, 75
1, 2208, Note_on_c, 1, 45, 75
1, 2297, Note_on_c, 0, 61, 0
1, 2297, Note_on_c, 1, 45, 0
1, 2304, Note_on_c, 0, 81, 75
1, 2304, Note_on_c, 1, 57, 75
1, 2334, Note_on_c, 0, 81, 0
1, 2336, Note_on_c, 0, 85, 76
1, 2366, Note_on_c, 0, 85, 0
1, 2368, Note_on_c, 0, 88, 78
1, 2393, Note_on_c, 1, 57, 0
1, 2398, Note_on_c, 0, 88, 0
1, 2400, Note_on_c, 0, 86, 79
1, 2400, Note_on_c, 1, 61, 75
1, 2430, Note_on_c, 0, 86, 0
1, 2432, Note_on_c, 0, 85, 78
1, 2462, Note_on_c, 0, 85, 0
1, 2464, Note_on_c, 0, 83, 77
1, 2489, Note_on_c, 1, 61, 0
1, 2494, Note_on_c, 0, 83, 0
1, 2496, Note_on_c, 0, 81, 75
1, 2496, Note_on_c, 1, 62, 75
1, 2526, Note_on_c, 0, 81, 0
1, 2528, Note_on_c, 0, 80, 75
1, 2558, Note_on_c, 0, 80, 0
1, 2560, Note_on_c, 0, 78, 75
1, 2585, Note_on_c, 1, 62, 0
1, 2592, Note_on_c, 1, 61, 75
1, 2637, Note_on_c, 0, 78, 0
1, 2640, Note_on_c, 0, 76, 75
1, 2681, Note_on_c, 1, 61, 0
1, 2688, Note_on_c, 1, 59, 75
1, 2729, Note_on_c, 0, 76, 0
1, 2736, Note_on_c, 0, 74, 75
1, 2777, Note_on_c, 1, 59, 0
1, 2784, Note_on_c, 1, 57, 75
1, 2825, Note_on_c, 0, 74, 0
1, 2832, Note_on_c, 0, 73, 75
1, 2873, Note_on_c, 1, 57, 0
1, 2877, Note_on_c, 0, 73, 0
1, 2880, Note_on_c, 0, 71, 75
1, 2880, Note_on_c, 1, 62, 75
1, 2910, Note_on_c, 0, 71, 0
1, 2912, Note_on_c, 0, 74, 76
1, 2942, Note_on_c, 0, 74, 0
1, 2944, Note_on_c, 0, 73, 77
1, 2969, Note_on_c, 1, 62, 0
1, 2974, Note_on_c, 0, 73, 0
1, 2976, Note_on_c, 0, 74, 78
1, 2976, Note_on_c, 1, 59, 75
1, 3006, Note_on_c, 0, 74, 0
1, 3008, Note_on_c, 0, 78, 79
1, 3038, Note_on_c, 0, 78, 0
1, 3040, Note_on_c, 0, 76, 79
1, 3065, Note_on_c, 1, 59, 0
1, 3070, Note_on_c, 0, 76, 0
1, 3072, Note_on_c, 0, 74, 78
1, 3072, Note_on_c, 1, 62, 75
1, 3102, Note_on_c, 0, 74, 0
1, 3104, Note_on_c, 0, 73, 77
1, 3134, Note_on_c, 0, 73, 0
1, 3136, Note_on_c, 0, 71, 76
1, 3161, Note_on_c, 1, 62, 0
1, 3166, Note_on_c, 0, 71, 0
1, 3168, Note_on_c, 0, 69, 75
1, 3168, Note_on_c, 1, 64, 75
1, 3213, Note_on_c, 0, 69, 0
1, 3216, Note_on_c, 0, 68, 75
1, 3257, Note_on_c, 1, 64, 0
1, 3264, Note_on_c, 1, 62, 75
1, 3305, Note_on_c, 0, 68, 0
1, 3312, Note_on_c, 0, 71, 75
1, 3353, Note_on_c, 1, 62, 0
1, 3360, Note_on_c, 1, 61, 75
1, 3401, Note_on_c, 0, 71, 0
1, 3408, Note_on_c, 0, 69, 75
1, 3449, Note_on_c, 1, 61, 0
1, 3453, Note_on_c, 0, 69, 0
1, 3456, Note_on_c, 0, 64, 75
1, 3456, Note_on_c, 1, 56, 75
1, 3486, Note_on_c, 0, 64, 0
1, 3488, Note_on_c, 0, 74, 76
1, 3518, Note_on_c, 0, 74, 0
1, 3520, Note_on_c, 0, 73, 78
1, 3545, Note_on_c, 1, 56, 0
1, 3550, Note_on_c, 0, 73, 0
1, 3552, Note_on_c, 0, 74, 79
1, 3552, Note_on_c, 1, 59, 75
1, 3582, Note_on_c, 0, 74, 0
1, 3584, Note_on_c, 0, 71, 78
1, 3614, Note_on_c, 0, 71, 0
1, 3616, Note_on_c, 0, 68, 77
1, 3641, Note_on_c, 1, 59, 0
1, 3646, Note_on_c, 0, 68, 0
1, 3648, Note_on_c, 0, 69, 75
1, 3648, Note_on_c, 1, 61, 75
1, 3666, Note_on_c, 0, 69, 0
1, 3666, Note_on_c, 0, 68, 75
1, 3684, Note_on_c, 0, 68, 0
1, 3684, Note_on_c, 0, 69, 75
1, 3737, Note_on_c, 0, 69, 0
1, 3737, Note_on_c, 1, 61, 0
1, 3744, Note_on_c, 0, 64, 64
1, 3744, Note_on_c, 1, 56, 64
1, 3774, Note_on_c, 0, 64, 0
1, 3776, Note_on_c, 0, 74, 64
1, 3806, Note_on_c, 0, 74, 0
1, 3808, Note_on_c, 0, 73, 69
1, 3833, Note_on_c, 1, 56, 0
1, 3838, Note_on_c, 0, 73, 0
1, 3840, Note_on_c, 0, 74, 74
1, 3840, Note_on_c, 1, 59, 64
1, 3870, Note_on_c, 0, 74, 0
1, 3872, Note_on_c, 0, 71, 72
1, 3902, Note_on_c, 0, 71, 0
1, 3904, Note_on_c, 0, 68, 68
1, 3929, Note_on_c, 1, 59, 0
1, 3934, Note_on_c, 0, 68, 0
1, 3936, Note_on_c, 0, 69, 64
1, 3936, Note_on_c, 1, 61, 64
1, 3954, Note_on_c, 0, 69, 0
1, 3954, Note_on_c, 0, 68, 64
1, 3972, Note_on_c, 0, 68, 0
1, 3972, Note_on_c, 0, 69, 64
1, 4025, Note_on_c, 0, 69, 0
1, 4025, Note_on_c, 1, 61, 0
1, 4032, Note_on_c, 0, 66, 75
1, 4032, Note_on_c, 1, 62, 75
1, 4032, Note_on_c, 1, 50, 75
1, 4062, Note_on_c, 0, 66, 0
1, 4064, Note_on_c, 0, 71, 75
1, 4094, Note_on_c, 0, 71, 0
1, 4096, Note_on_c, 0, 70, 75
1, 4121, Note_on_c, 1, 62, 0
1, 4121, Note_on_c, 1, 50, 0
1, 4126, Note_on_c, 0, 70, 0
1, 4128, Note_on_c, 0, 71, 75
1, 4158, Note_on_c, 0, 71, 0
1, 4160, Note_on_c, 0, 74, 75
1, 4190, Note_on_c, 0, 74, 0
1, 4192, Note_on_c, 0, 73, 76
1, 4222, Note_on_c, 0, 73, 0
1, 4224, Note_on_c, 0, 74, 77
1, 4254, Note_on_c, 0, 74, 0
1, 4256, Note_on_c, 0, 76, 77
1, 4286, Note_on_c, 0, 76, 0
1, 4288, Note_on_c, 0, 78, 78
1, 4318, Note_on_c, 0, 78, 0
1, 4320, Note_on_c, 0, 76, 79
1, 4320, Note_on_c, 1, 49, 75
1, 4320, Note_on_c, 1, 37, 75
1, 4350, Note_on_c, 0, 76, 0
1, 4352, Note_on_c, 0, 74, 79
1, 4382, Note_on_c, 0, 74, 0
1, 4384, Note_on_c, 0, 73, 79
1, 4409, Note_on_c, 1, 49, 0
1, 4409, Note_on_c, 1, 37, 0
1, 4414, Note_on_c, 0, 73, 0
1, 4416, Note_on_c, 0, 71, 79
1, 4446, Note_on_c, 0, 71, 0
1, 4448, Note_on_c, 0, 69, 78
1, 4478, Note_on_c, 0, 69, 0
1, 4480, Note_on_c, 0, 68, 77
1, 4510, Note_on_c, 0, 68, 0
1, 4512, Note_on_c, 0, 69, 77
1, 4542, Note_on_c, 0, 69, 0
1, 4544, Note_on_c, 0, 64, 76
1, 4574, Note_on_c, 0, 64, 0
1, 4576, Note_on_c, 0, 61, 76
1, 4606, Note_on_c, 0, 61, 0
1, 4608, Note_on_c, 0, 66, 75
1, 4608, Note_on_c, 1, 50, 75
1, 4608, Note_on_c, 1, 38, 75
1, 4638, Note_on_c, 0, 66, 0
1, 4640, Note_on_c, 0, 64, 75
1, 4670, Note_on_c, 0, 64, 0
1, 4672, Note_on_c, 0, 62, 75
1, 4697, Note_on_c, 1, 50, 0
1, 4697, Note_on_c, 1, 38, 0
1, 4702, Note_on_c, 0, 62, 0
1, 4704, Note_on_c, 0, 61, 75
1, 4704, Note_on_c, 1, 52, 75
1, 4793, Note_on_c, 0, 61, 0
1, 4793, Note_on_c, 1, 52, 0
1, 4800, Note_on_c, 0, 59, 75
1, 4800, Note_on_c, 1, 40, 75
1, 4813, Note_on_c, 0, 59, 0
1, 4814, Note_on_c, 0, 61, 75
1, 4827, Note_on_c, 0, 61, 0
1, 4828, Note_on_c, 0, 59, 75
1, 4841, Note_on_c, 0, 59, 0
1, 4842, Note_on_c, 0, 61, 75
1, 4855, Note_on_c, 0, 61, 0
1, 4856, Note_on_c, 0, 59, 75
1, 4869, Note_on_c, 0, 59, 0
1, 4870, Note_on_c, 0, 57, 75
1, 4882, Note_on_c, 0, 57, 0
1, 4883, Note_on_c, 0, 59, 75
1, 4889, Note_on_c, 1, 40, 0
1, 4895, Note_on_c, 0, 59, 0
1, 4896, Note_on_c, 0, 57, 75
1, 4896, Note_on_c, 1, 45, 75
1, 4985, Note_on_c, 1, 45, 0
1, 4992, Note_on_c, 1, 40, 75
1, 5073, Note_on_c, 0, 57, 0
1, 5081, Note_on_c, 1, 40, 0
1, 5088, Note_on_c, 1, 33, 75
1, 5177, Note_on_c, 1, 33, 0
1, 5184, Note_on_c, 0, 62, 91
1, 5184, Note_on_c, 1, 50, 91
1, 5184, Note_on_c, 1, 38, 91
1, 5280, Note_on_c, 0, 62, 0
1, 5280, Note_on_c, 0, 66, 75
1, 5298, Note_on_c, 0, 66, 0
1, 5298, Note_on_c, 0, 67, 75
1, 5316, Note_on_c, 0, 67, 0
1, 5316, Note_on_c, 0, 66, 75
1, 5347, Note_on_c, 0, 66, 0
1, 5352, Note_on_c, 0, 64, 75
1, 5375, Note_on_c, 0, 64, 0
1, 5376, Note_on_c, 0, 66, 75
1, 5376, Note_on_c, 1, 50, 0
1, 5376, Note_on_c, 1, 38, 0
1, 5376, Note_on_c, 1, 52, 75
1, 5376, Note_on_c, 1, 40, 75
1, 5443, Note_on_c, 0, 66, 0
1, 5448, Note_on_c, 0, 67, 75
1, 5465, Note_on_c, 1, 52, 0
1, 5465, Note_on_c, 1, 40, 0
1, 5471, Note_on_c, 0, 67, 0
1, 5472, Note_on_c, 0, 69, 75
1, 5472, Note_on_c, 1, 54, 75
1, 5472, Note_on_c, 1, 42, 75
1, 5561, Note_on_c, 0, 69, 0
1, 5561, Note_on_c, 1, 54, 0
1, 5561, Note_on_c, 1, 42, 0
1, 5568, Note_on_c, 0, 66, 75
1, 5568, Note_on_c, 1, 50, 75
1, 5568, Note_on_c, 1, 38, 75
1, 5586, Note_on_c, 0, 66, 0
1, 5586, Note_on_c, 0, 67, 75
1, 5604, Note_on_c, 0, 67, 0
1, 5604, Note_on_c, 0, 66, 75
1, 5635, Note_on_c, 0, 66, 0
1, 5640, Note_on_c, 0, 64, 75
1, 5657, Note_on_c, 1, 50, 0
1, 5657, Note_on_c, 1, 38, 0
1, 5663, Note_on_c, 0, 64, 0
1, 5664, Note_on_c, 0, 66, 75
1, 5664, Note_on_c, 1, 52, 75
1, 5664, Note_on_c, 1, 40, 75
1, 5731, Note_on_c, 0, 66, 0
1, 5736, Note_on_c, 0, 67, 75
1, 5753, Note_on_c, 1, 52, 0
1, 5753, Note_on_c, 1, 40, 0
1, 5759, Note_on_c, 0, 67, 0
1, 5760, Note_on_c, 0, 69, 75
1, 5760, Note_on_c, 1, 54, 75
1, 5760, Note_on_c, 1, 42, 75
1, 5849, Note_on_c, 0, 69, 0
1, 5856, Note_on_c, 0, 57, 75
1, 5886, Note_on_c, 0, 57, 0
1, 5888, Note_on_c, 0, 62, 75
1, 5918, Note_on_c, 0, 62, 0
1, 5920, Note_on_c, 0, 66, 75
1, 5937, Note_on_c, 1, 54, 0
1, 5937, Note_on_c, 1, 42, 0
1, 5950, Note_on_c, 0, 66, 0
1, 5952, Note_on_c, 0, 64, 75
1, 5952, Note_on_c, 1, 50, 75
1, 5975, Note_on_c, 0, 64, 0
1, 5976, Note_on_c, 0, 62, 75
1, 5999, Note_on_c, 0, 62, 0
1, 6000, Note_on_c, 0, 61, 75
1, 6023, Note_on_c, 0, 61, 0
1, 6024, Note_on_c, 0, 59, 75
1, 6041, Note_on_c, 1, 50, 0
1, 6047, Note_on_c, 0, 59, 0
1, 6048, Note_on_c, 0, 57, 75
1, 6048, Note_on_c, 1, 52, 75
1, 6137, Note_on_c, 0, 57, 0
1, 6137, Note_on_c, 1, 52, 0
1, 6144, Note_on_c, 0, 55, 75
1, 6144, Note_on_c, 1, 45, 75
1, 6157, Note_on_c, 0, 55, 0
1, 6158, Note_on_c, 0, 57, 75
1, 6171, Note_on_c, 0, 57, 0
1, 6172, Note_on_c, 0, 55, 75
1, 6185, Note_on_c, 0, 55, 0
1, 6186, Note_on_c, 0, 57, 75
1, 6199, Note_on_c, 0, 57, 0
1, 6200, Note_on_c, 0, 55, 75
1, 6213, Note_on_c, 0, 55, 0
1, 6214, Note_on_c, 0, 54, 75
1, 6226, Note_on_c, 0, 54, 0
1, 6227, Note_on_c, 0, 55, 75
1, 6233, Note_on_c, 1, 45, 0
1, 6239, Note_on_c, 0, 55, 0
1, 6240, Note_on_c, 0, 54, 75
1, 6240, Note_on_c, 1, 50, 75
1, 6329, Note_on_c, 0, 54, 0
1, 6329, Note_on_c, 1, 50, 0
1, 6336, Note_on_c, 0, 59, 75
1, 6336, Note_on_c, 1, 43, 75
1, 6354, Note_on_c, 0, 59, 0
1, 6354, Note_on_c, 0, 61, 75
1, 6372, Note_on_c, 0, 61, 0
1, 6372, Note_on_c, 0, 59, 75
1, 6403, Note_on_c, 0, 59, 0
1, 6408, Note_on_c, 0, 57, 75
1, 6425, Note_on_c, 1, 43, 0
1, 6431, Note_on_c, 0, 57, 0
1, 6432, Note_on_c, 0, 59, 75
1, 6432, Note_on_c, 1, 55, 75
1, 6499, Note_on_c, 0, 59, 0
1, 6504, Note_on_c, 0, 61, 75
1, 6521, Note_on_c, 1, 55, 0
1, 6527, Note_on_c, 0, 61, 0
1, 6528, Note_on_c, 0, 62, 75
1, 6528, Note_on_c, 1, 54, 75
1, 6595, Note_on_c, 0, 62, 0
1, 6600, Note_on_c, 0, 57, 75
1, 6617, Note_on_c, 1, 54, 0
1, 6623, Note_on_c, 0, 57, 0
1, 6624, Note_on_c, 0, 57, 75
1, 6624, Note_on_c, 1, 52, 75
1, 6691, Note_on_c, 0, 57, 0
1, 6696, Note_on_c, 0, 55, 75
1, 6713, Note_on_c, 1, 52, 0
1, 6719, Note_on_c, 0, 55, 0
1, 6720, Note_on_c, 0, 67, 75
1, 6720, Note_on_c, 1, 45, 75
1, 6750, Note_on_c, 0, 67, 0
1, 6752, Note_on_c, 0, 64, 75
1, 6782, Note_on_c, 0, 64, 0
1, 6784, Note_on_c, 0, 61, 75
1, 6809, Note_on_c, 1, 45, 0
1, 6814, Note_on_c, 0, 61, 0
1, 6816, Note_on_c, 0, 62, 75
1, 6816, Note_on_c, 1, 50, 75
1, 6834, Note_on_c, 0, 62, 0
1, 6834, Note_on_c, 0, 61, 75
1, 6852, Note_on_c, 0, 61, 0
1, 6852, Note_on_c, 0, 62, 75
1, 6905, Note_on_c, 0, 62, 0
1, 6905, Note_on_c, 1, 50, 0
1, 6912, Note_on_c, 0, 59, 75
1, 6912, Note_on_c, 1, 43, 75
1, 7001, Note_on_c, 0, 59, 0
1, 7001, Note_on_c, 1, 43, 0
1, 7008, Note_on_c, 0, 70, 75
1, 7008, Note_on_c, 1, 55, 75
1, 7038, Note_on_c, 0, 70, 0
1, 7040, Note_on_c, 0, 71, 76
1, 7070, Note_on_c, 0, 71, 0
1, 7072, Note_on_c, 0, 69, 78
1, 7097, Note_on_c, 1, 55, 0
1, 7102, Note_on_c, 0, 69, 0
1, 7104, Note_on_c, 0, 67, 79
1, 7104, Note_on_c, 1, 55, 75
1, 7134, Note_on_c, 0, 67, 0
1, 7136, Note_on_c, 0, 66, 78
1, 7166, Note_on_c, 0, 66, 0
1, 7168, Note_on_c, 0, 64, 77
1, 7193, Note_on_c, 1, 55, 0
1, 7198, Note_on_c, 0, 64, 0
1, 7200, Note_on_c, 0, 62, 75
1, 7200, Note_on_c, 1, 57, 75
1, 7289, Note_on_c, 1, 57, 0
1, 7296, Note_on_c, 1, 52, 75
1, 7385, Note_on_c, 1, 52, 0
1, 7392, Note_on_c, 0, 62, 0
1, 7392, Note_on_c, 0, 61, 75
1, 7392, Note_on_c, 1, 45, 75
1, 7481, Note_on_c, 0, 61, 0
1, 7481, Note_on_c, 1, 45, 0
1, 7488, Note_on_c, 0, 81, 75
1, 7488, Note_on_c, 1, 57, 75
1, 7518, Note_on_c, 0, 81, 0
1, 7520, Note_on_c, 0, 85, 76
1, 7550, Note_on_c, 0, 85, 0
1, 7552, Note_on_c, 0, 88, 78
1, 7577, Note_on_c, 1, 57, 0
1, 7582, Note_on_c, 0, 88, 0
1, 7584, Note_on_c, 0, 86, 79
1, 7584, Note_on_c, 1, 61, 75
1, 7614, Note_on_c, 0, 86, 0
1, 7616, Note_on_c, 0, 85, 78
1, 7646, Note_on_c, 0, 85, 0
1, 7648, Note_on_c, 0, 83, 77
1, 7673, Note_on_c, 1, 61, 0
1, 7678, Note_on_c, 0, 83, 0
1, 7680, Note_on_c, 0, 81, 75
1, 7680, Note_on_c, 1, 62, 75
1, 7710, Note_on_c, 0, 81, 0
1, 7712, Note_on_c, 0, 80, 75
1, 7742, Note_on_c, 0, 80, 0
1, 7744, Note_on_c, 0, 78, 75
1, 7769, Note_on_c, 1, 62, 0
1, 7776, Note_on_c, 1, 61, 75
1, 7821, Note_on_c, 0, 78, 0
1, 7824, Note_on_c, 0, 76, 75
1, 7865, Note_on_c, 1, 61, 0
1, 7872, Note_on_c, 1, 59, 75
1, 7913, Note_on_c, 0, 76, 0
1, 7920, Note_on_c, 0, 74, 75
1, 7961, Note_on_c, 1, 59, 0
1, 7968, Note_on_c, 1, 57, 75
1, 8009, Note_on_c, 0, 74, 0
1, 8016, Note_on_c, 0, 73, 75
1, 8057, Note_on_c, 1, 57, 0
1, 8061, Note_on_c, 0, 73, 0
1, 8064, Note_on_c, 0, 71, 75
1, 8064, Note_on_c, 1, 62, 75
1, 8094, Note_on_c, 0, 71, 0
1, 8096, Note_on_c, 0, 74, 76
1, 8126, Note_on_c, 0, 74, 0
1, 8128, Note_on_c, 0, 73, 77
1, 8153, Note_on_c, 1, 62, 0
1, 8158, Note_on_c, 0, 73, 0
1, 8160, Note_on_c, 0, 74, 78
1, 8160, Note_on_c, 1, 59, 75
1, 8190, Note_on_c, 0, 74, 0
1, 8192, Note_on_c, 0, 78, 79
1, 8222, Note_on_c, 0, 78, 0
1, 8224, Note_on_c, 0, 76, 79
1, 8249, Note_on_c, 1, 59, 0
1, 8254, Note_on_c, 0, 76, 0
1, 8256, Note_on_c, 0, 74, 78
1, 8256, Note_on_c, 1, 62, 75
1, 8286, Note_on_c, 0, 74, 0
1, 8288, Note_on_c, 0, 73, 77
1, 8318, Note_on_c, 0, 73, 0
1, 8320, Note_on_c, 0, 71, 76
1, 8345, Note_on_c, 1, 62, 0
1, 8350, Note_on_c, 0, 71, 0
1, 8352, Note_on_c, 0, 69, 75
1, 8352, Note_on_c, 1, 64, 75
1, 8397, Note_on_c, 0, 69, 0
1, 8400, Note_on_c, 0, 68, 75
1, 8441, Note_on_c, 1, 64, 0
1, 8448, Note_on_c, 1, 62, 75
1, 8489, Note_on_c, 0, 68, 0
1, 8496, Note_on_c, 0, 71, 75
1, 8537, Note_on_c, 1, 62, 0
1, 8544, Note_on_c, 1, 61, 75
1, 8585, Note_on_c, 0, 71, 0
1, 8592, Note_on_c, 0, 69, 75
1, 8633, Note_on_c, 1, 61, 0
1, 8637, Note_on_c, 0, 69, 0
1, 8640, Note_on_c, 0, 64, 75
1, 8640, Note_on_c, 1, 56, 75
1, 8670, Note_on_c, 0, 64, 0
1, 8672, Note_on_c, 0, 74, 76
1, 8702, Note_on_c, 0, 74, 0
1, 8704, Note_on_c, 0, 73, 78
1, 8729, Note_on_c, 1, 56, 0
1, 8734, Note_on_c, 0, 73, 0
1, 8736, Note_on_c, 0, 74, 79
1, 8736, Note_on_c, 1, 59, 75
1, 8766, Note_on_c, 0, 74, 0
1, 8768, Note_on_c, 0, 71, 78
1, 8798, Note_on_c, 0, 71, 0
1, 8800, Note_on_c, 0, 68, 77
1, 8825, Note_on_c, 1, 59, 0
1, 8830, Note_on_c, 0, 68, 0
1, 8832, Note_on_c, 0, 69, 75
1, 8832, Note_on_c, 1, 61, 75
1, 8850, Note_on_c, 0, 69, 0
1, 8850, Note_on_c, 0, 68, 75
1, 8868, Note_on_c, 0, 68, 0
1, 8868, Note_on_c, 0, 69, 75
1, 8921, Note_on_c, 0, 69, 0
1, 8921, Note_on_c, 1, 61, 0
1, 8928, Note_on_c, 0, 64, 64
1, 8928, Note_on_c, 1, 56, 64
1, 8958, Note_on_c, 0, 64, 0
1, 8960, Note_on_c, 0, 74, 64
1, 8990, Note_on_c, 0, 74, 0
1, 8992, Note_on_c, 0, 73, 69
1, 9017, Note_on_c, 1, 56, 0
1, 9022, Note_on_c, 0, 73, 0
1, 9024, Note_on_c, 0, 74, 74
1, 9024, Note_on_c, 1, 59, 64
1, 9054, Note_on_c, 0, 74, 0
1, 9056, Note_on_c, 0, 71, 72
1, 9086, Note_on_c, 0, 71, 0
1, 9088, Note_on_c, 0, 68, 68
1, 9113, Note_on_c, 1, 59, 0
1, 9118, Note_on_c, 0, 68, 0
1, 9120, Note_on_c, 0, 69, 64
1, 9120, Note_on_c, 1, 61, 64
1, 9138, Note_on_c, 0, 69, 0
1, 9138, Note_on_c, 0, 68, 64
1, 9156, Note_on_c, 0, 68, 0
1, 9156, Note_on_c, 0, 69, 64
1, 9209, Note_on_c, 0, 69, 0
1, 9209, Note_on_c, 1, 61, 0
1, 9216, Note_on_c, 0, 66, 75
1, 9216, Note_on_c, 1, 62, 75
1, 9216, Note_on_c, 1, 50, 75
1, 9246, Note_on_c, 0, 66, 0
1, 9248, Note_on_c, 0, 71, 75
1, 9278, Note_on_c, 0, 71, 0
1, 9280, Note_on_c, 0, 70, 75
1, 9305, Note_on_c, 1, 62, 0
1, 9305, Note_on_c, 1, 50, 0
1, 9310, Note_on_c, 0, 70, 0
1, 9312, Note_on_c, 0, 71, 75
1, 9342, Note_on_c, 0, 71, 0
1, 9344, Note_on_c, 0, 74, 75
1, 9374, Note_on_c, 0, 74, 0
1, 9376, Note_on_c, 0, 73, 76
1, 9406, Note_on_c, 0, 73, 0
1, 9408, Note_on_c, 0, 74, 77
1, 9438, Note_on_c, 0, 74, 0
1, 9440, Note_on_c, 0, 76, 77
1, 9470, Note_on_c, 0, 76, 0
1, 9472, Note_on_c, 0, 78, 78
1, 9502, Note_on_c, 0, 78, 0
1, 9504, Note_on_c, 0, 76, 79
1, 9504, Note_on_c, 1, 49, 75
1, 9504, Note_on_c, 1, 37, 75
1, 9534, Note_on_c, 0, 76, 0
1, 9536, Note_on_c, 0, 74, 79
1, 9566, Note_on_c, 0, 74, 0
1, 9568, Note_on_c, 0, 73, 79
1, 9593, Note_on_c, 1, 49, 0
1, 9593, Note_on_c, 1, 37, 0
1, 9598, Note_on_c, 0, 73, 0
1, 9600, Note_on_c, 0, 71, 79
1, 9630, Note_on_c, 0, 71, 0
1, 9632, Note_on_c, 0, 69, 78
1, 9662, Note_on_c, 0, 69, 0
1, 9664, Note_on_c, 0, 68, 77
1, 9694, Note_on_c, 0, 68, 0
1, 9696, Note_on_c, 0, 69, 77
1, 9726, Note_on_c, 0, 69, 0
1, 9728, Note_on_c, 0, 64, 76
1, 9758, Note_on_c, 0, 64, 0
1, 9760, Note_on_c, 0, 61, 76
1, 9790, Note_on_c, 0, 61, 0
1, 9792, Note_on_c, 0, 66, 75
1, 9792, Note_on_c, 1, 50, 75
1, 9792, Note_on_c, 1, 38, 75
1, 9822, Note_on_c, 0, 66, 0
1, 9824, Note_on_c, 0, 64, 75
1, 9854, Note_on_c, 0, 64, 0
1, 9856, Note_on_c, 0, 62, 75
1, 9881, Note_on_c, 1, 50, 0
1, 9881, Note_on_c, 1, 38, 0
1, 9886, Note_on_c, 0, 62, 0
1, 9888, Note_on_c, 0, 61, 75
1, 9888, Note_on_c, 1, 52, 75
1, 9977, Note_on_c, 0, 61, 0
1, 9977, Note_on_c, 1, 52, 0
1, 9984, Note_on_c, 0, 59, 75
1, 9984, Note_on_c, 1, 40, 75
1, 9997, Note_on_c, 0, 59, 0
1, 9998, Note_on_c, 0, 61, 75
1, 10011, Note_on_c, 0, 61, 0
1, 10012, Note_on_c, 0, 59, 75
1, 10025, Note_on_c, 0, 59, 0
1, 10026, Note_on_c, 0, 61, 75
1, 10039, Note_on_c, 0, 61, 0
1, 10040, Note_on_c, 0, 59, 75
1, 10053, Note_on_c, 0, 59, 0
1, 10054, Note_on_c, 0, 57, 75
1, 10066, Note_on_c, 0, 57, 0
1, 10067, Note_on_c, 0, 59, 75
1, 10073, Note_on_c, 1, 40, 0
1, 10079, Note_on_c, 0, 59, 0
1, 10080, Note_on_c, 0, 57, 75
1, 10080, Note_on_c, 1, 45, 75
1, 10169, Note_on_c, 1, 45, 0
1, 10176, Note_on_c, 1, 40, 75
1, 10257, Note_on_c, 0, 57, 0
1, 10265, Note_on_c, 1, 40, 0
1, 10272, Note_on_c, 1, 33, 75
1, 10361, Note_on_c, 1, 33, 0
1, 10368, Note_on_c, 0, 57, 75
1, 10368, Note_on_c, 1, 45, 75
1, 10368, Note_on_c, 1, 33, 75
1, 10457, Note_on_c, 0, 57, 0
1, 10457, Note_on_c, 1, 45, 0
1, 10457, Note_on_c, 1, 33, 0
1, 10464, Note_on_c, 0, 61, 75
1, 10464, Note_on_c, 1, 45, 75
1, 10464, Note_on_c, 1, 45, 64
1, 10482, Note_on_c, 0, 61, 0
1, 10482, Note_on_c, 0, 62, 75
1, 10500, Note_on_c, 0, 62, 0
1, 10500, Note_on_c, 0, 61, 75
1, 10531, Note_on_c, 0, 61, 0
1, 10536, Note_on_c, 0, 59, 75
1, 10553, Note_on_c, 1, 45, 0
1, 10559, Note_on_c, 0, 59, 0
1, 10560, Note_on_c, 0, 61, 75
1, 10560, Note_on_c, 1, 47, 75
1, 10627, Note_on_c, 0, 61, 0
1, 10632, Note_on_c, 0, 62, 75
1, 10641, Note_on_c, 1, 45, 0
1, 10649, Note_on_c, 1, 47, 0
1, 10655, Note_on_c, 0, 62, 0
1, 10656, Note_on_c, 0, 64, 75
1, 10656, Note_on_c, 1, 49, 75
1, 10656, Note_on_c, 1, 45, 64
1, 10686, Note_on_c, 0, 64, 0
1, 10688, Note_on_c, 0, 61, 75
1, 10718, Note_on_c, 0, 61, 0
1, 10720, Note_on_c, 0, 57, 75
1, 10745, Note_on_c, 1, 49, 0
1, 10750, Note_on_c, 0, 57, 0
1, 10752, Note_on_c, 0, 67, 75
1, 10752, Note_on_c, 1, 52, 75
1, 10782, Note_on_c, 0, 67, 0
1, 10784, Note_on_c, 0, 64, 75
1, 10814, Note_on_c, 0, 64, 0
1, 10816, Note_on_c, 0, 61, 75
1, 10841, Note_on_c, 1, 52, 0
1, 10846, Note_on_c, 0, 61, 0
1, 10848, Note_on_c, 0, 62, 75
1, 10848, Note_on_c, 1, 54, 75
1, 10866, Note_on_c, 0, 62, 0
1, 10866, Note_on_c, 0, 61, 75
1, 10884, Note_on_c, 0, 61, 0
1, 10884, Note_on_c, 0, 62, 75
1, 10921, Note_on_c, 1, 45, 0
1, 10937, Note_on_c, 0, 62, 0
1, 10937, Note_on_c, 1, 54, 0
1, 10944, Note_on_c, 0, 57, 64
1, 10944, Note_on_c, 1, 45, 64
1, 10944, Note_on_c, 1, 33, 64
1, 11033, Note_on_c, 0, 57, 0
1, 11033, Note_on_c, 1, 45, 0
1, 11033, Note_on_c, 1, 33, 0
1, 11040, Note_on_c, 0, 61, 64
1, 11040, Note_on_c, 1, 45, 64
1, 11040, Note_on_c, 1, 45, 64
1, 11058, Note_on_c, 0, 61, 0
1, 11058, Note_on_c, 0, 62, 64
1, 11076, Note_on_c, 0, 62, 0
1, 11076, Note_on_c, 0, 61, 64
1, 11107, Note_on_c, 0, 61, 0
1, 11112, Note_on_c, 0, 59, 64
1, 11129, Note_on_c, 1, 45, 0
1, 11135, Note_on_c, 0, 59, 0
1, 11136, Note_on_c, 0, 61, 64
1, 11136, Note_on_c, 1, 47, 64
1, 11203, Note_on_c, 0, 61, 0
1, 11208, Note_on_c, 0, 62, 64
1, 11217, Note_on_c, 1, 45, 0
1, 11225, Note_on_c, 1, 47, 0
1, 11231, Note_on_c, 0, 62, 0
1, 11232, Note_on_c, 0, 64, 64
1, 11232, Note_on_c, 1, 49, 64
1, 11232, Note_on_c, 1, 45, 64
1, 11262, Note_on_c, 0, 64, 0
1, 11264, Note_on_c, 0, 61, 64
1, 11294, Note_on_c, 0, 61, 0
1, 11296, Note_on_c, 0, 57, 64
1, 11321, Note_on_c, 1, 49, 0
1, 11326, Note_on_c, 0, 57, 0
1, 11328, Note_on_c, 0, 67, 64
1, 11328, Note_on_c, 1, 52, 64
1, 11358, Note_on_c, 0, 67, 0
1, 11360, Note_on_c, 0, 64, 64
1, 11390, Note_on_c, 0, 64, 0
1, 11392, Note_on_c, 0, 61, 64
1, 11417, Note_on_c, 1, 52, 0
1, 11422, Note_on_c, 0, 61, 0
1, 11424, Note_on_c, 0, 62, 64
1, 11424, Note_on_c, 1, 54, 64
1, 11442, Note_on_c, 0, 62, 0
1, 11442, Note_on_c, 0, 61, 64
1, 11460, Note_on_c, 0, 61, 0
1, 11460, Note_on_c, 0, 62, 64
1, 11497, Note_on_c, 1, 45, 0
1, 11513, Note_on_c, 0, 62, 0
1, 11513, Note_on_c, 1, 54, 0
1, 11520, Note_on_c, 0, 59, 75
1, 11520, Note_on_c, 1, 43, 75
1, 11609, Note_on_c, 0, 59, 0
1, 11609, Note_on_c, 1, 43, 0
1, 11616, Note_on_c, 0, 70, 75
1, 11616, Note_on_c, 1, 55, 75
1, 11646, Note_on_c, 0, 70, 0
1, 11648, Note_on_c, 0, 71, 75
1, 11678, Note_on_c, 0, 71, 0
1, 11680, Note_on_c, 0, 69, 75
1, 11705, Note_on_c, 1, 55, 0
1, 11710, Note_on_c, 0, 69, 0
1, 11712, Note_on_c, 0, 67, 75
1, 11742, Note_on_c, 0, 67, 0
1, 11744, Note_on_c, 0, 66, 75
1, 11774, Note_on_c, 0, 66, 0
1, 11776, Note_on_c, 0, 64, 75
1, 11806, Note_on_c, 0, 64, 0
1, 11808, Note_on_c, 0, 57, 75
1, 11808, Note_on_c, 1, 42, 75
1, 11897, Note_on_c, 0, 57, 0
1, 11897, Note_on_c, 1, 42, 0
1, 11904, Note_on_c, 0, 68, 75
1, 11904, Note_on_c, 1, 54, 75
1, 11934, Note_on_c, 0, 68, 0
1, 11936, Note_on_c, 0, 69, 75
1, 11966, Note_on_c, 0, 69, 0
1, 11968, Note_on_c, 0, 67, 75
1, 11993, Note_on_c, 1, 54, 0
1, 11998, Note_on_c, 0, 67, 0
1, 12000, Note_on_c, 0, 66, 75
1, 12030, Note_on_c, 0, 66, 0
1, 12032, Note_on_c, 0, 64, 75
1, 12062, Note_on_c, 0, 64, 0
1, 12064, Note_on_c, 0, 62, 75
1, 12094, Note_on_c, 0, 62, 0
1, 12096, Note_on_c, 0, 63, 75
1, 12096, Note_on_c, 1, 55, 75
1, 12096, Note_on_c, 1, 43, 75
1, 12185, Note_on_c, 0, 63, 0
1, 12192, Note_on_c, 0, 64, 75
1, 12259, Note_on_c, 0, 64, 0
1, 12264, Note_on_c, 0, 67, 75
1, 12273, Note_on_c, 1, 55, 0
1, 12273, Note_on_c, 1, 43, 0
1, 12287, Note_on_c, 0, 67, 0
1, 12288, Note_on_c, 0, 59, 75
1, 12288, Note_on_c, 1, 56, 75
1, 12355, Note_on_c, 0, 59, 0
1, 12360, Note_on_c, 0, 64, 75
1, 12377, Note_on_c, 1, 56, 0
1, 12383, Note_on_c, 0, 64, 0
1, 12384, Note_on_c, 0, 62, 75
1, 12384, Note_on_c, 1, 57, 75
1, 12473, Note_on_c, 1, 57, 0
1, 12480, Note_on_c, 1, 52, 75
1, 12569, Note_on_c, 1, 52, 0
1, 12576, Note_on_c, 0, 62, 0
1, 12576, Note_on_c, 0, 61, 75
1, 12576, Note_on_c, 1, 45, 75
1, 12665, Note_on_c, 0, 61, 0
1, 12665, Note_on_c, 1, 45, 0
1, 12672, Note_on_c, 0, 74, 75
1, 12672, Note_on_c, 1, 62, 75
1, 12702, Note_on_c, 0, 74, 0
1, 12704, Note_on_c, 0, 78, 76
1, 12734, Note_on_c, 0, 78, 0
1, 12736, Note_on_c, 0, 81, 78
1, 12761, Note_on_c, 1, 62, 0
1, 12766, Note_on_c, 0, 81, 0
1, 12768, Note_on_c, 0, 79, 79
1, 12768, Note_on_c, 1, 66, 75
1, 12798, Note_on_c, 0, 79, 0
1, 12800, Note_on_c, 0, 78, 78
1, 12830, Note_on_c, 0, 78, 0
1, 12832, Note_on_c, 0, 76, 77
1, 12857, Note_on_c, 1, 66, 0
1, 12862, Note_on_c, 0, 76, 0
1, 12864, Note_on_c, 0, 74, 75
1, 12864, Note_on_c, 1, 67, 75
1, 12894, Note_on_c, 0, 74, 0
1, 12896, Note_on_c, 0, 73, 75
1, 12926, Note_on_c, 0, 73, 0
1, 12928, Note_on_c, 0, 71, 75
1, 12953, Note_on_c, 1, 67, 0
1, 12960, Note_on_c, 1, 66, 75
1, 13005, Note_on_c, 0, 71, 0
1, 13008, Note_on_c, 0, 69, 75
1, 13049, Note_on_c, 1, 66, 0
1, 13056, Note_on_c, 1, 64, 75
1, 13097, Note_on_c, 0, 69, 0
1, 13104, Note_on_c, 0, 67, 75
1, 13145, Note_on_c, 1, 64, 0
1, 13152, Note_on_c, 1, 62, 75
1, 13193, Note_on_c, 0, 67, 0
1, 13200, Note_on_c, 0, 66, 75
1, 13241, Note_on_c, 1, 62, 0
1, 13245, Note_on_c, 0, 66, 0
1, 13248, Note_on_c, 0, 64, 75
1, 13248, Note_on_c, 1, 55, 75
1, 13278, Note_on_c, 0, 64, 0
1, 13280, Note_on_c, 0, 67, 75
1, 13310, Note_on_c, 0, 67, 0
1, 13312, Note_on_c, 0, 66, 76
1, 13337, Note_on_c, 1, 55, 0
1, 13342, Note_on_c, 0, 66, 0
1, 13344, Note_on_c, 0, 67, 77
1, 13344, Note_on_c, 1, 52, 75
1, 13374, Note_on_c, 0, 67, 0
1, 13376, Note_on_c, 0, 71, 78
1, 13406, Note_on_c, 0, 71, 0
1, 13408, Note_on_c, 0, 69, 79
1, 13433, Note_on_c, 1, 52, 0
1, 13438, Note_on_c, 0, 69, 0
1, 13440, Note_on_c, 0, 67, 79
1, 13440, Note_on_c, 1, 55, 75
1, 13470, Note_on_c, 0, 67, 0
1, 13472, Note_on_c, 0, 66, 77
1, 13502, Note_on_c, 0, 66, 0
1, 13504, Note_on_c, 0, 64, 76
1, 13529, Note_on_c, 1, 55, 0
1, 13534, Note_on_c, 0, 64, 0
1, 13536, Note_on_c, 0, 62, 75
1, 13536, Note_on_c, 1, 57, 75
1, 13581, Note_on_c, 0, 62, 0
1, 13584, Note_on_c, 0, 61, 75
1, 13625, Note_on_c, 1, 57, 0
1, 13632, Note_on_c, 1, 55, 75
1, 13673, Note_on_c, 0, 61, 0
1, 13680, Note_on_c, 0, 64, 75
1, 13721, Note_on_c, 1, 55, 0
1, 13728, Note_on_c, 1, 54, 75
1, 13769, Note_on_c, 0, 64, 0
1, 13776, Note_on_c, 0, 62, 75
1, 13817, Note_on_c, 1, 54, 0
1, 13821, Note_on_c, 0, 62, 0
1, 13824, Note_on_c, 0, 57, 75
1, 13824, Note_on_c, 1, 49, 75
1, 13854, Note_on_c, 0, 57, 0
1, 13856, Note_on_c, 0, 67, 76
1, 13886, Note_on_c, 0, 67, 0
1, 13888, Note_on_c, 0, 66, 78
1, 13913, Note_on_c, 1, 49, 0
1, 13918, Note_on_c, 0, 66, 0
1, 13920, Note_on_c, 0, 67, 79
1, 13920, Note_on_c, 1, 52, 75
1, 13950, Note_on_c, 0, 67, 0
1, 13952, Note_on_c, 0, 64, 78
1, 13982, Note_on_c, 0, 64, 0
1, 13984, Note_on_c, 0, 61, 77
1, 14009, Note_on_c, 1, 52, 0
1, 14014, Note_on_c, 0, 61, 0
1, 14016, Note_on_c, 0, 62, 75
1, 14016, Note_on_c, 1, 54, 75
1, 14034, Note_on_c, 0, 62, 0
1, 14034, Note_on_c, 0, 61, 75
1, 14052, Note_on_c, 0, 61, 0
1, 14052, Note_on_c, 0, 62, 75
1, 14105, Note_on_c, 0, 62, 0
1, 14105, Note_on_c, 1, 54, 0
1, 14112, Note_on_c, 0, 57, 64
1, 14112, Note_on_c, 1, 49, 64
1, 14142, Note_on_c, 0, 57, 0
1, 14144, Note_on_c, 0, 67, 64
1, 14174, Note_on_c, 0, 67, 0
1, 14176, Note_on_c, 0, 66, 69
1, 14201, Note_on_c, 1, 49, 0
1, 14206, Note_on_c, 0, 66, 0
1, 14208, Note_on_c, 0, 67, 74
1, 14208, Note_on_c, 1, 52, 64
1, 14238, Note_on_c, 0, 67, 0
1, 14240, Note_on_c, 0, 64, 72
1, 14270, Note_on_c, 0, 64, 0
1, 14272, Note_on_c, 0, 61, 68
1, 14297, Note_on_c, 1, 52, 0
1, 14302, Note_on_c, 0, 61, 0
1, 14304, Note_on_c, 0, 62, 64
1, 14304, Note_on_c, 1, 54, 64
1, 14322, Note_on_c, 0, 62, 0
1, 14322, Note_on_c, 0, 61, 64
1, 14340, Note_on_c, 0, 61, 0
1, 14340, Note_on_c, 0, 62, 64
1, 14393, Note_on_c, 0, 62, 0
1, 14393, Note_on_c, 1, 54, 0
1, 14400, Note_on_c, 0, 59, 75
1, 14400, Note_on_c, 1, 55, 64
1, 14400, Note_on_c, 1, 43, 64
1, 14430, Note_on_c, 0, 59, 0
1, 14432, Note_on_c, 0, 64, 75
1, 14462, Note_on_c, 0, 64, 0
1, 14464, Note_on_c, 0, 63, 75
1, 14494, Note_on_c, 0, 63, 0
1, 14496, Note_on_c, 0, 64, 75
1, 14526, Note_on_c, 0, 64, 0
1, 14528, Note_on_c, 0, 67, 75
1, 14558, Note_on_c, 0, 67, 0
1, 14560, Note_on_c, 0, 66, 76
1, 14577, Note_on_c, 1, 55, 0
1, 14577, Note_on_c, 1, 43, 0
1, 14590, Note_on_c, 0, 66, 0
1, 14592, Note_on_c, 0, 67, 77
1, 14622, Note_on_c, 0, 67, 0
1, 14624, Note_on_c, 0, 69, 78
1, 14654, Note_on_c, 0, 69, 0
1, 14656, Note_on_c, 0, 71, 78
1, 14686, Note_on_c, 0, 71, 0
1, 14688, Note_on_c, 0, 69, 79
1, 14688, Note_on_c, 1, 54, 64
1, 14688, Note_on_c, 1, 42, 64
1, 14718, Note_on_c, 0, 69, 0
1, 14720, Note_on_c, 0, 67, 79
1, 14750, Note_on_c, 0, 67, 0
1, 14752, Note_on_c, 0, 66, 79
1, 14782, Note_on_c, 0, 66, 0
1, 14784, Note_on_c, 0, 64, 78
1, 14814, Note_on_c, 0, 64, 0
1, 14816, Note_on_c, 0, 62, 78
1, 14846, Note_on_c, 0, 62, 0
1, 14848, Note_on_c, 0, 61, 77
1, 14865, Note_on_c, 1, 54, 0
1, 14865, Note_on_c, 1, 42, 0
1, 14878, Note_on_c, 0, 61, 0
1, 14880, Note_on_c, 0, 62, 77
1, 14969, Note_on_c, 0, 62, 0
1, 14976, Note_on_c, 0, 71, 75
1, 14976, Note_on_c, 1, 55, 64
1, 14976, Note_on_c, 1, 43, 64
1, 15006, Note_on_c, 0, 71, 0
1, 15008, Note_on_c, 0, 76, 75
1, 15038, Note_on_c, 0, 76, 0
1, 15040, Note_on_c, 0, 75, 75
1, 15070, Note_on_c, 0, 75, 0
1, 15072, Note_on_c, 0, 76, 75
1, 15102, Note_on_c, 0, 76, 0
1, 15104, Note_on_c, 0, 79, 75
1, 15134, Note_on_c, 0, 79, 0
1, 15136, Note_on_c, 0, 78, 76
1, 15153, Note_on_c, 1, 55, 0
1, 15153, Note_on_c, 1, 43, 0
1, 15166, Note_on_c, 0, 78, 0
1, 15168, Note_on_c, 0, 79, 77
1, 15198, Note_on_c, 0, 79, 0
1, 15200, Note_on_c, 0, 81, 77
1, 15230, Note_on_c, 0, 81, 0
1, 15232, Note_on_c, 0, 83, 78
1, 15262, Note_on_c, 0, 83, 0
1, 15264, Note_on_c, 0, 81, 79
1, 15264, Note_on_c, 1, 54, 64
1, 15264, Note_on_c, 1, 42, 64
1, 15294, Note_on_c, 0, 81, 0
1, 15296, Note_on_c, 0, 79, 79
1, 15326, Note_on_c, 0, 79, 0
1, 15328, Note_on_c, 0, 78, 79
1, 15358, Note_on_c, 0, 78, 0
1, 15360, Note_on_c, 0, 76, 79
1, 15390, Note_on_c, 0, 76, 0
1, 15392, Note_on_c, 0, 74, 78
1, 15422, Note_on_c, 0, 74, 0
1, 15424, Note_on_c, 0, 73, 77
1, 15441, Note_on_c, 1, 54, 0
1, 15441, Note_on_c, 1, 42, 0
1, 15454, Note_on_c, 0, 73, 0
1, 15456, Note_on_c, 0, 74, 77
1, 15486, Note_on_c, 0, 74, 0
1, 15488, Note_on_c, 0, 69, 76
1, 15518, Note_on_c, 0, 69, 0
1, 15520, Note_on_c, 0, 66, 76
1, 15550, Note_on_c, 0, 66, 0
1, 15552, Note_on_c, 0, 71, 75
1, 15552, Note_on_c, 1, 55, 64
1, 15552, Note_on_c, 1, 43, 64
1, 15582, Note_on_c, 0, 71, 0
1, 15584, Note_on_c, 0, 69, 75
1, 15614, Note_on_c, 0, 69, 0
1, 15616, Note_on_c, 0, 67, 75
1, 15641, Note_on_c, 1, 55, 0
1, 15641, Note_on_c, 1, 43, 0
1, 15646, Note_on_c, 0, 67, 0
1, 15648, Note_on_c, 0, 66, 75
1, 15648, Note_on_c, 1, 57, 64
1, 15737, Note_on_c, 0, 66, 0
1, 15737, Note_on_c, 1, 57, 0
1, 15744, Note_on_c, 0, 64, 75
1, 15744, Note_on_c, 1, 45, 64
1, 15757, Note_on_c, 0, 64, 0
1, 15758, Note_on_c, 0, 66, 75
1, 15771, Note_on_c, 0, 66, 0
1, 15772, Note_on_c, 0, 64, 75
1, 15785, Note_on_c, 0, 64, 0
1, 15786, Note_on_c, 0, 66, 75
1, 15799, Note_on_c, 0, 66, 0
1, 15800, Note_on_c, 0, 64, 75
1, 15813, Note_on_c, 0, 64, 0
1, 15814, Note_on_c, 0, 62, 75
1, 15826, Note_on_c, 0, 62, 0
1, 15827, Note_on_c, 0, 64, 75
1, 15833, Note_on_c, 1, 45, 0
1, 15839, Note_on_c, 0, 64, 0
1, 15840, Note_on_c, 0, 62, 75
1, 15840, Note_on_c, 1, 50, 64
1, 15929, Note_on_c, 1, 50, 0
1, 15936, Note_on_c, 1, 45, 64
1, 16017, Note_on_c, 0, 62, 0
1, 16025, Note_on_c, 1, 45, 0
1, 16032, Note_on_c, 1, 38, 64
1, 16121, Note_on_c, 1, 38, 0
1, 16128, Note_on_c, 0, 57, 75
1, 16128, Note_on_c, 1, 45, 75
1, 16128, Note_on_c, 1, 33, 75
1, 16217, Note_on_c, 0, 57, 0
1, 16217, Note_on_c, 1, 45, 0
1, 16217, Note_on_c, 1, 33, 0
1, 16224, Note_on_c, 0, 61, 75
1, 16224, Note_on_c, 1, 45, 75
1, 16224, Note_on_c, 1, 45, 64
1, 16242, Note_on_c, 0, 61, 0
1, 16242, Note_on_c, 0, 62, 75
1, 16260, Note_on_c, 0, 62, 0
1, 16260, Note_on_c, 0, 61, 75
1, 16291, Note_on_c, 0, 61, 0
1, 16296, Note_on_c, 0, 59, 75
1, 16313, Note_on_c, 1, 45, 0
1, 16319, Note_on_c, 0, 59, 0
1, 16320, Note_on_c, 0, 61, 75
1, 16320, Note_on_c, 1, 47, 75
1, 16387, Note_on_c, 0, 61, 0
1, 16392, Note_on_c, 0, 62, 75
1, 16401, Note_on_c, 1, 45, 0
1, 16409, Note_on_c, 1, 47, 0
1, 16415, Note_on_c, 0, 62, 0
1, 16416, Note_on_c, 0, 64, 75
1, 16416, Note_on_c, 1, 49, 75
1, 16416, Note_on_c, 1, 45, 64
1, 16446, Note_on_c, 0, 64, 0
1, 16448, Note_on_c, 0, 61, 75
1, 16478, Note_on_c, 0, 61, 0
1, 16480, Note_on_c, 0, 57, 75
1, 16505, Note_on_c, 1, 49, 0
1, 16510, Note_on_c, 0, 57, 0
1, 16512, Note_on_c, 0, 67, 75
1, 16512, Note_on_c, 1, 52, 75
1, 16542, Note_on_c, 0, 67, 0
1, 16544, Note_on_c, 0, 64, 75
1, 16574, Note_on_c, 0, 64, 0
1, 16576, Note_on_c, 0, 61, 75
1, 16601, Note_on_c, 1, 52, 0
1, 16606, Note_on_c, 0, 61, 0
1, 16608, Note_on_c, 0, 62, 75
1, 16608, Note_on_c, 1, 54, 75
1, 16626, Note_on_c, 0, 62, 0
1, 16626, Note_on_c, 0, 61, 75
1, 16644, Note_on_c, 0, 61, 0
1, 16644, Note_on_c, 0, 62, 75
1, 16681, Note_on_c, 1, 45, 0
1, 16697, Note_on_c, 0, 62, 0
1, 16697, Note_on_c, 1, 54, 0
1, 16704, Note_on_c, 0, 57, 64
1, 16704, Note_on_c, 1, 45, 64
1, 16704, Note_on_c, 1, 33, 64
1, 16793, Note_on_c, 0, 57, 0
1, 16793, Note_on_c, 1, 45, 0
1, 16793, Note_on_c, 1, 33, 0
1, 16800, Note_on_c, 0, 61, 64
1, 16800, Note_on_c, 1, 45, 64
1, 16800, Note_on_c, 1, 45, 64
1, 16818, Note_on_c, 0, 61, 0
1, 16818, Note_on_c, 0, 62, 64
1, 16836, Note_on_c, 0, 62, 0
1, 16836, Note_on_c, 0, 61, 64
1, 16867, Note_on_c, 0, 61, 0
1, 16872, Note_on_c, 0, 59, 64
1, 16889, Note_on_c, 1, 45, 0
1, 16895, Note_on_c, 0, 59, 0
1, 16896, Note_on_c, 0, 61, 64
1, 16896, Note_on_c, 1, 47, 64
1, 16963, Note_on_c, 0, 61, 0
1, 16968, Note_on_c, 0, 62, 64
1, 16977, Note_on_c, 1, 45, 0
1, 16985, Note_on_c, 1, 47, 0
1, 16991, Note_on_c, 0, 62, 0
1, 16992, Note_on_c, 0, 64, 64
1, 16992, Note_on_c, 1, 49, 64
1, 16992, Note_on_c, 1, 45, 64
1, 17022, Note_on_c, 0, 64, 0
1, 17024, Note_on_c, 0, 61, 64
1, 17054, Note_on_c, 0, 61, 0
1, 17056, Note_on_c, 0, 57, 64
1, 17081, Note_on_c, 1, 49, 0
1, 17086, Note_on_c, 0, 57, 0
1, 17088, Note_on_c, 0, 67, 64
1, 17088, Note_on_c, 1, 52, 64
1, 17118, Note_on_c, 0, 67, 0
1, 17120, Note_on_c, 0, 64, 64
1, 17150, Note_on_c, 0, 64, 0
1, 17152, Note_on_c, 0, 61, 64
1, 17177, Note_on_c, 1, 52, 0
1, 17182, Note_on_c, 0, 61, 0
1, 17184, Note_on_c, 0, 62, 64
1, 17184, Note_on_c, 1, 54, 64
1, 17202, Note_on_c, 0, 62, 0
1, 17202, Note_on_c, 0, 61, 64
1, 17220, Note_on_c, 0, 61, 0
1, 17220, Note_on_c, 0, 62, 64
1, 17257, Note_on_c, 1, 45, 0
1, 17273, Note_on_c, 0, 62, 0
1, 17273, Note_on_c, 1, 54, 0
1, 17280, Note_on_c, 0, 59, 75
1, 17280, Note_on_c, 1, 43, 75
1, 17369, Note_on_c, 0, 59, 0
1, 17369, Note_on_c, 1, 43, 0
1, 17376, Note_on_c, 0, 70, 75
1, 17376, Note_on_c, 1, 55, 75
1, 17406, Note_on_c, 0, 70, 0
1, 17408, Note_on_c, 0, 71, 75
1, 17438, Note_on_c, 0, 71, 0
1, 17440, Note_on_c, 0, 69, 75
1, 17465, Note_on_c, 1, 55, 0
1, 17470, Note_on_c, 0, 69, 0
1, 17472, Note_on_c, 0, 67, 75
1, 17502, Note_on_c, 0, 67, 0
1, 17504, Note_on_c, 0, 66, 75
1, 17534, Note_on_c, 0, 66, 0
1, 17536, Note_on_c, 0, 64, 75
1, 17566, Note_on_c, 0, 64, 0
1, 17568, Note_on_c, 0, 57, 75
1, 17568, Note_on_c, 1, 42, 75
1, 17657, Note_on_c, 0, 57, 0
1, 17657, Note_on_c, 1, 42, 0
1, 17664, Note_on_c, 0, 68, 75
1, 17664, Note_on_c, 1, 54, 75
1, 17694, Note_on_c, 0, 68, 0
1, 17696, Note_on_c, 0, 69, 75
1, 17726, Note_on_c, 0, 69, 0
1, 17728, Note_on_c, 0, 67, 75
1, 17753, Note_on_c, 1, 54, 0
1, 17758, Note_on_c, 0, 67, 0
1, 17760, Note_on_c, 0, 66, 75
1, 17790, Note_on_c, 0, 66, 0
1, 17792, Note_on_c, 0, 64, 75
1, 17822, Note_on_c, 0, 64, 0
1, 17824, Note_on_c, 0, 62, 75
1, 17854, Note_on_c, 0, 62, 0
1, 17856, Note_on_c, 0, 63, 75
1, 17856, Note_on_c, 1, 55, 75
1, 17856, Note_on_c, 1, 43, 75
1, 17945, Note_on_c, 0, 63, 0
1, 17952, Note_on_c, 0, 64, 75
1, 18019, Note_on_c, 0, 64, 0
1, 18024, Note_on_c, 0, 67, 75
1, 18033, Note_on_c, 1, 55, 0
1, 18033, Note_on_c, 1, 43, 0
1, 18047, Note_on_c, 0, 67, 0
1, 18048, Note_on_c, 0, 59, 75
1, 18048, Note_on_c, 1, 56, 75
1, 18115, Note_on_c, 0, 59, 0
1, 18120, Note_on_c, 0, 64, 75
1, 18137, Note_on_c, 1, 56, 0
1, 18143, Note_on_c, 0, 64, 0
1, 18144, Note_on_c, 0, 62, 75
1, 18144, Note_on_c, 1, 57, 75
1, 18233, Note_on_c, 1, 57, 0
1, 18240, Note_on_c, 1, 52, 75
1, 18329, Note_on_c, 1, 52, 0
1, 18336, Note_on_c, 0, 62, 0
1, 18336, Note_on_c, 0, 61, 75
1, 18336, Note_on_c, 1, 45, 75
1, 18425, Note_on_c, 0, 61, 0
1, 18425, Note_on_c, 1, 45, 0
1, 18432, Note_on_c, 0, 74, 75
1, 18432, Note_on_c, 1, 62, 75
1, 18462, Note_on_c, 0, 74, 0
1, 18464, Note_on_c, 0, 78, 76
1, 18494, Note_on_c, 0, 78, 0
1, 18496, Note_on_c, 0, 81, 78
1, 18521, Note_on_c, 1, 62, 0
1, 18526, Note_on_c, 0, 81, 0
1, 18528, Note_on_c, 0, 79, 79
1, 18528, Note_on_c, 1, 66, 75
1, 18558, Note_on_c, 0, 79, 0
1, 18560, Note_on_c, 0, 78, 78
1, 18590, Note_on_c, 0, 78, 0
1, 18592, Note_on_c, 0, 76, 77
1, 18617, Note_on_c, 1, 66, 0
1, 18622, Note_on_c, 0, 76, 0
1, 18624, Note_on_c, 0, 74, 75
1, 18624, Note_on_c, 1, 67, 75
1, 18654, Note_on_c, 0, 74, 0
1, 18656, Note_on_c, 0, 73, 75
1, 18686, Note_on_c, 0, 73, 0
1, 18688, Note_on_c, 0, 71, 75
1, 18713, Note_on_c, 1, 67, 0
1, 18720, Note_on_c, 1, 66, 75
1, 18765, Note_on_c, 0, 71, 0
1, 18768, Note_on_c, 0, 69, 75
1, 18809, Note_on_c, 1, 66, 0
1, 18816, Note_on_c, 1, 64, 75
1, 18857, Note_on_c, 0, 69, 0
1, 18864, Note_on_c, 0, 67, 75
1, 18905, Note_on_c, 1, 64, 0
1, 18912, Note_on_c, 1, 62, 75
1, 18953, Note_on_c, 0, 67, 0
1, 18960, Note_on_c, 0, 66, 75
1, 19001, Note_on_c, 1, 62, 0
1, 19005, Note_on_c, 0, 66, 0
1, 19008, Note_on_c, 0, 64, 75
1, 19008, Note_on_c, 1, 55, 75
1, 19038, Note_on_c, 0, 64, 0
1, 19040, Note_on_c, 0, 67, 75
1, 19070, Note_on_c, 0, 67, 0
1, 19072, Note_on_c, 0, 66, 76
1, 19097, Note_on_c, 1, 55, 0
1, 19102, Note_on_c, 0, 66, 0
1, 19104, Note_on_c, 0, 67, 77
1, 19104, Note_on_c, 1, 52, 75
1, 19134, Note_on_c, 0, 67, 0
1, 19136, Note_on_c, 0, 71, 78
1, 19166, Note_on_c, 0, 71, 0
1, 19168, Note_on_c, 0, 69, 79
1, 19193, Note_on_c, 1, 52, 0
1, 19198, Note_on_c, 0, 69, 0
1, 19200, Note_on_c, 0, 67, 79
1, 19200, Note_on_c, 1, 55, 75
1, 19230, Note_on_c, 0, 67, 0
1, 19232, Note_on_c, 0, 66, 77
1, 19262, Note_on_c, 0, 66, 0
1, 19264, Note_on_c, 0, 64, 76
1, 19289, Note_on_c, 1, 55, 0
1, 19294, Note_on_c, 0, 64, 0
1, 19296, Note_on_c, 0, 62, 75
1, 19296, Note_on_c, 1, 57, 75
1, 19341, Note_on_c, 0, 62, 0
1, 19344, Note_on_c, 0, 61, 75
1, 19385, Note_on_c, 1, 57, 0
1, 19392, Note_on_c, 1, 55, 75
1, 19433, Note_on_c, 0, 61, 0
1, 19440, Note_on_c, 0, 64, 75
1, 19481, Note_on_c, 1, 55, 0
1, 19488, Note_on_c, 1, 54, 75
1, 19529, Note_on_c, 0, 64, 0
1, 19536, Note_on_c, 0, 62, 75
1, 19577, Note_on_c, 1, 54, 0
1, 19581, Note_on_c, 0, 62, 0
1, 19584, Note_on_c, 0, 57, 75
1, 19584, Note_on_c, 1, 49, 75
1, 19614, Note_on_c, 0, 57, 0
1, 19616, Note_on_c, 0, 67, 76
1, 19646, Note_on_c, 0, 67, 0
1, 19648, Note_on_c, 0, 66, 78
1, 19673, Note_on_c, 1, 49, 0
1, 19678, Note_on_c, 0, 66, 0
1, 19680, Note_on_c, 0, 67, 79
1, 19680, Note_on_c, 1, 52, 75
1, 19710, Note_on_c, 0, 67, 0
1, 19712, Note_on_c, 0, 64, 78
1, 19742, Note_on_c, 0, 64, 0
1, 19744, Note_on_c, 0, 61, 77
1, 19769, Note_on_c, 1, 52, 0
1, 19774, Note_on_c, 0, 61, 0
1, 19776, Note_on_c, 0, 62, 75
1, 19776, Note_on_c, 1, 54, 75
1, 19794, Note_on_c, 0, 62, 0
1, 19794, Note_on_c, 0, 61, 75
1, 19812, Note_on_c, 0, 61, 0
1, 19812, Note_on_c, 0, 62, 75
1, 19865, Note_on_c, 0, 62, 0
1, 19865, Note_on_c, 1, 54, 0
1, 19872, Note_on_c, 0, 57, 64
1, 19872, Note_on_c, 1, 49, 64
1, 19902, Note_on_c, 0, 57, 0
1, 19904, Note_on_c, 0, 67, 64
1, 19934, Note_on_c, 0, 67, 0
1, 19936, Note_on_c, 0, 66, 69
1, 19961, Note_on_c, 1, 49, 0
1, 19966, Note_on_c, 0, 66, 0
1, 19968, Note_on_c, 0, 67, 74
1, 19968, Note_on_c, 1, 52, 64
1, 19998, Note_on_c, 0, 67, 0
1, 20000, Note_on_c, 0, 64, 72
1, 20030, Note_on_c, 0, 64, 0
1, 20032, Note_on_c, 0, 61, 68
1, 20057, Note_on_c, 1, 52, 0
1, 20062, Note_on_c, 0, 61, 0
1, 20064, Note_on_c, 0, 62, 64
1, 20064, Note_on_c, 1, 54, 64
1, 20082, Note_on_c, 0, 62, 0
1, 20082, Note_on_c, 0, 61, 64
1, 20100, Note_on_c, 0, 61, 0
1, 20100, Note_on_c, 0, 62, 64
1, 20153, Note_on_c, 0, 62, 0
1, 20153, Note_on_c, 1, 54, 0
1, 20160, Note_on_c, 0, 59, 75
1, 20160, Note_on_c, 1, 55, 64
1, 20160, Note_on_c, 1, 43, 64
1, 20190, Note_on_c, 0, 59, 0
1, 20192, Note_on_c, 0, 64, 75
1, 20222, Note_on_c, 0, 64, 0
1, 20224, Note_on_c, 0, 63, 75
1, 20254, Note_on_c, 0, 63, 0
1, 20256, Note_on_c, 0, 64, 75
1, 20286, Note_on_c, 0, 64, 0
1, 20288, Note_on_c, 0, 67, 75
1, 20318, Note_on_c, 0, 67, 0
1, 20320, Note_on_c, 0, 66, 76
1, 20337, Note_on_c, 1, 55, 0
1, 20337, Note_on_c, 1, 43, 0
1, 20350, Note_on_c, 0, 66, 0
1, 20352, Note_on_c, 0, 67, 77
1, 20382, Note_on_c, 0, 67, 0
1, 20384, Note_on_c, 0, 69, 78
1, 20414, Note_on_c, 0, 69, 0
1, 20416, Note_on_c, 0, 71, 78
1, 20446, Note_on_c, 0, 71, 0
1, 20448, Note_on_c, 0, 69, 79
1, 20448, Note_on_c, 1, 54, 64
1, 20448, Note_on_c, 1, 42, 64
1, 20478, Note_on_c, 0, 69, 0
1, 20480, Note_on_c, 0, 67, 79
1, 20510, Note_on_c, 0, 67, 0
1, 20512, Note_on_c, 0, 66, 79
1, 20542, Note_on_c, 0, 66, 0
1, 20544, Note_on_c, 0, 64, 78
1, 20574, Note_on_c, 0, 64, 0
1, 20576, Note_on_c, 0, 62, 78
1, 20606, Note_on_c, 0, 62, 0
1, 20608, Note_on_c, 0, 61, 77
1, 20625, Note_on_c, 1, 54, 0
1, 20625, Note_on_c, 1, 42, 0
1, 20638, Note_on_c, 0, 61, 0
1, 20640, Note_on_c, 0, 62, 77
1, 20729, Note_on_c, 0, 62, 0
1, 20736, Note_on_c, 0, 71, 75
1, 20736, Note_on_c, 1, 55, 64
1, 20736, Note_on_c, 1, 43, 64
1, 20766, Note_on_c, 0, 71, 0
1, 20768, Note_on_c, 0, 76, 75
1, 20798, Note_on_c, 0, 76, 0
1, 20800, Note_on_c, 0, 75, 75
1, 20830, Note_on_c, 0, 75, 0
1, 20832, Note_on_c, 0, 76, 75
1, 20862, Note_on_c, 0, 76, 0
1, 20864, Note_on_c, 0, 79, 75
1, 20894, Note_on_c, 0, 79, 0
1, 20896, Note_on_c, 0, 78, 76
1, 20913, Note_on_c, 1, 55, 0
1, 20913, Note_on_c, 1, 43, 0
1, 20926, Note_on_c, 0, 78, 0
1, 20928, Note_on_c, 0, 79, 77
1, 20958, Note_on_c, 0, 79, 0
1, 20960, Note_on_c, 0, 81, 77
1, 20990, Note_on_c, 0, 81, 0
1, 20992, Note_on_c, 0, 83, 78
1, 21022, Note_on_c, 0, 83, 0
1, 21024, Note_on_c, 0, 81, 79
1, 21024, Note_on_c, 1, 54, 64
1, 21024, Note_on_c, 1, 42, 64
1, 21054, Note_on_c, 0, 81, 0
1, 21056, Note_on_c, 0, 79, 79
1, 21086, Note_on_c, 0, 79, 0
1, 21088, Note_on_c, 0, 78, 79
1, 21118, Note_on_c, 0, 78, 0
1, 21120, Note_on_c, 0, 76, 79
1, 21150, Note_on_c, 0, 76, 0
1, 21152, Note_on_c, 0, 74, 78
1, 21182, Note_on_c, 0, 74, 0
1, 21184, Note_on_c, 0, 73, 77
1, 21201, Note_on_c, 1, 54, 0
1, 21201, Note_on_c, 1, 42, 0
1, 21214, Note_on_c, 0, 73, 0
1, 21216, Note_on_c, 0, 74, 77
1, 21246, Note_on_c, 0, 74, 0
1, 21248, Note_on_c, 0, 69, 76
1, 21278, Note_on_c, 0, 69, 0
1, 21280, Note_on_c, 0, 66, 76
1, 21310, Note_on_c, 0, 66, 0
1, 21312, Note_on_c, 0, 71, 75
1, 21312, Note_on_c, 1, 55, 64
1, 21312, Note_on_c, 1, 43, 64
1, 21342, Note_on_c, 0, 71, 0
1, 21344, Note_on_c, 0, 69, 75
1, 21374, Note_on_c, 0, 69, 0
1, 21376, Note_on_c, 0, 67, 75
1, 21401, Note_on_c, 1, 55, 0
1, 21401, Note_on_c, 1, 43, 0
1, 21406, Note_on_c, 0, 67, 0
1, 21408, Note_on_c, 0, 66, 75
1, 21408, Note_on_c, 1, 57, 64
1, 21497, Note_on_c, 0, 66, 0
1, 21497, Note_on_c, 1, 57, 0
1, 21504, Note_on_c, 0, 64, 75
1, 21504, Note_on_c, 1, 45, 64
1, 21517, Note_on_c, 0, 64, 0
1, 21518, Note_on_c, 0, 66, 75
1, 21531, Note_on_c, 0, 66, 0
1, 21532, Note_on_c, 0, 64, 75
1, 21545, Note_on_c, 0, 64, 0
1, 21546, Note_on_c, 0, 66, 75
1, 21559, Note_on_c, 0, 66, 0
1, 21560, Note_on_c, 0, 64, 75
1, 21573, Note_on_c, 0, 64, 0
1, 21574, Note_on_c, 0, 62, 75
1, 21586, Note_on_c, 0, 62, 0
1, 21587, Note_on_c, 0, 64, 75
1, 21593, Note_on_c, 1, 45, 0
1, 21599, Note_on_c, 0, 64, 0
1, 21600, Note_on_c, 0, 62, 75
1, 21600, Note_on_c, 1, 50, 64
1, 21689, Note_on_c, 1, 50, 0
1, 21696, Note_on_c, 1, 45, 64
1, 21777, Note_on_c, 0, 62, 0
1, 21785, Note_on_c, 1, 45, 0
1, 21792, Note_on_c, 1, 38, 64
1, 21881, Note_on_c, 1, 38, 0
1, 21888, Note_on_c, 1, 50, 80
1, 21888, Note_on_c, 1, 38, 80
1, 21960, Note_on_c, 0, 62, 80
1, 21972, Note_on_c, 0, 62, 0
1, 21972, Note_on_c, 0, 64, 80
1, 21984, Note_on_c, 0, 64, 0
1, 21984, Note_on_c, 0, 65, 80
1, 22051, Note_on_c, 0, 65, 0
1, 22056, Note_on_c, 0, 65, 80
1, 22065, Note_on_c, 1, 50, 0
1, 22065, Note_on_c, 1, 38, 0
1, 22068, Note_on_c, 0, 65, 0
1, 22068, Note_on_c, 0, 67, 80
1, 22080, Note_on_c, 0, 67, 0
1, 22080, Note_on_c, 0, 69, 80
1, 22080, Note_on_c, 1, 48, 80
1, 22080, Note_on_c, 1, 36, 80
1, 22147, Note_on_c, 0, 69, 0
1, 22152, Note_on_c, 0, 71, 80
1, 22164, Note_on_c, 0, 71, 0
1, 22164, Note_on_c, 0, 73, 80
1, 22169, Note_on_c, 1, 48, 0
1, 22169, Note_on_c, 1, 36, 0
1, 22176, Note_on_c, 0, 73, 0
1, 22176, Note_on_c, 0, 74, 80
1, 22176, Note_on_c, 1, 46, 80
1, 22176, Note_on_c, 1, 34, 80
1, 22243, Note_on_c, 0, 74, 0
1, 22248, Note_on_c, 0, 74, 80
1, 22260, Note_on_c, 0, 74, 0
1, 22260, Note_on_c, 0, 76, 80
1, 22265, Note_on_c, 1, 46, 0
1, 22265, Note_on_c, 1, 34, 0
1, 22272, Note_on_c, 0, 76, 0
1, 22272, Note_on_c, 0, 77, 80
1, 22272, Note_on_c, 1, 41, 80
1, 22272, Note_on_c, 1, 29, 80
1, 22311, Note_on_c, 0, 77, 0
1, 22361, Note_on_c, 1, 41, 0
1, 22361, Note_on_c, 1, 29, 0
1, 22464, Note_on_c, 0, 76, 64
1, 22464, Note_on_c, 1, 43, 64
1, 22464, Note_on_c, 1, 31, 64
1, 22509, Note_on_c, 0, 76, 0
1, 22512, Note_on_c, 0, 82, 64
1, 22512, Note_on_c, 0, 79, 64
1, 22532, Note_on_c, 0, 82, 0
1, 22532, Note_on_c, 0, 79, 0
1, 22560, Note_on_c, 0, 82, 64
1, 22560, Note_on_c, 0, 79, 64
1, 22608, Note_on_c, 0, 82, 0
1, 22608, Note_on_c, 0, 79, 0
1, 22608, Note_on_c, 0, 81, 64
1, 22608, Note_on_c, 0, 77, 64
1, 22641, Note_on_c, 1, 43, 0
1, 22641, Note_on_c, 1, 31, 0
1, 22653, Note_on_c, 0, 81, 0
1, 22653, Note_on_c, 0, 77, 0
1, 22656, Note_on_c, 0, 81, 64
1, 22656, Note_on_c, 0, 77, 64
1, 22656, Note_on_c, 1, 45, 64
1, 22656, Note_on_c, 1, 33, 64
1, 22704, Note_on_c, 0, 81, 0
1, 22704, Note_on_c, 0, 77, 0
1, 22704, Note_on_c, 0, 79, 64
1, 22704, Note_on_c, 0, 76, 64
1, 22724, Note_on_c, 0, 79, 0
1, 22724, Note_on_c, 0, 76, 0
1, 22745, Note_on_c, 1, 45, 0
1, 22745, Note_on_c, 1, 33, 0
1, 22752, Note_on_c, 0, 79, 64
1, 22752, Note_on_c, 0, 76, 64
1, 22752, Note_on_c, 1, 50, 64
1, 22752, Note_on_c, 1, 38, 64
1, 22800, Note_on_c, 0, 79, 0
1, 22800, Note_on_c, 0, 76, 0
1, 22800, Note_on_c, 0, 77, 64
1, 22800, Note_on_c, 0, 74, 64
1, 22845, Note_on_c, 0, 77, 0
1, 22845, Note_on_c, 0, 74, 0
1, 22848, Note_on_c, 0, 81, 64
1, 22848, Note_on_c, 0, 77, 64
1, 22929, Note_on_c, 1, 50, 0
1, 22929, Note_on_c, 1, 38, 0
1, 22937, Note_on_c, 0, 81, 0
1, 22937, Note_on_c, 0, 77, 0
1, 23040, Note_on_c, 1, 50, 80
1, 23040, Note_on_c, 1, 38, 80
1, 23112, Note_on_c, 0, 62, 80
1, 23124, Note_on_c, 0, 62, 0
1, 23124, Note_on_c, 0, 64, 80
1, 23136, Note_on_c, 0, 64, 0
1, 23136, Note_on_c, 0, 65, 80
1, 23203, Note_on_c, 0, 65, 0
1, 23208, Note_on_c, 0, 65, 80
1, 23217, Note_on_c, 1, 50, 0
1, 23217, Note_on_c, 1, 38, 0
1, 23220, Note_on_c, 0, 65, 0
1, 23220, Note_on_c, 0, 67, 80
1, 23232, Note_on_c, 0, 67, 0
1, 23232, Note_on_c, 0, 69, 80
1, 23232, Note_on_c, 1, 48, 80
1, 23232, Note_on_c, 1, 36, 80
1, 23299, Note_on_c, 0, 69, 0
1, 23304, Note_on_c, 0, 71, 80
1, 23316, Note_on_c, 0, 71, 0
1, 23316, Note_on_c, 0, 73, 80
1, 23321, Note_on_c, 1, 48, 0
1, 23321, Note_on_c, 1, 36, 0
1, 23328, Note_on_c, 0, 73, 0
1, 23328, Note_on_c, 0, 74, 80
1, 23328, Note_on_c, 1, 46, 80
1, 23328, Note_on_c, 1, 34, 80
1, 23395, Note_on_c, 0, 74, 0
1, 23400, Note_on_c, 0, 74, 80
1, 23412, Note_on_c, 0, 74, 0
1, 23412, Note_on_c, 0, 76, 80
1, 23417, Note_on_c, 1, 46, 0
1, 23417, Note_on_c, 1, 34, 0
1, 23424, Note_on_c, 0, 76, 0
1, 23424, Note_on_c, 0, 77, 80
1, 23424, Note_on_c, 1, 41, 80
1, 23424, Note_on_c, 1, 29, 80
1, 23463, Note_on_c, 0, 77, 0
1, 23513, Note_on_c, 1, 41, 0
1, 23513, Note_on_c, 1, 29, 0
1, 23616, Note_on_c, 0, 76, 64
1, 23616, Note_on_c, 1, 43, 64
1, 23616, Note_on_c, 1, 31, 64
1, 23661, Note_on_c, 0, 76, 0
1, 23664, Note_on_c, 0, 82, 64
1, 23664, Note_on_c, 0, 79, 64
1, 23684, Note_on_c, 0, 82, 0
1, 23684, Note_on_c, 0, 79, 0
1, 23712, Note_on_c, 0, 82, 64
1, 23712, Note_on_c, 0, 79, 64
1, 23760, Note_on_c, 0, 82, 0
1, 23760, Note_on_c, 0, 79, 0
1, 23760, Note_on_c, 0, 81, 64
1, 23760, Note_on_c, 0, 77, 64
1, 23780, Note_on_c, 0, 81, 0
1, 23780, Note_on_c, 0, 77, 0
1, 23793, Note_on_c, 1, 43, 0
1, 23793, Note_on_c, 1, 31, 0
1, 23808, Note_on_c, 0, 81, 64
1, 23808, Note_on_c, 0, 77, 64
1, 23808, Note_on_c, 1, 45, 64
1, 23808, Note_on_c, 1, 33, 64
1, 23856, Note_on_c, 0, 81, 0
1, 23856, Note_on_c, 0, 77, 0
1, 23856, Note_on_c, 0, 79, 64
1, 23856, Note_on_c, 0, 76, 64
1, 23876, Note_on_c, 0, 79, 0
1, 23876, Note_on_c, 0, 76, 0
1, 23897, Note_on_c, 1, 45, 0
1, 23897, Note_on_c, 1, 33, 0
1, 23904, Note_on_c, 0, 77, 64
1, 23904, Note_on_c, 0, 74, 64
1, 23904, Note_on_c, 1, 50, 64
1, 23904, Note_on_c, 1, 38, 64
1, 23952, Note_on_c, 0, 74, 0
1, 23952, Note_on_c, 0, 81, 64
1, 23972, Note_on_c, 0, 81, 0
1, 23972, Note_on_c, 0, 77, 0
1, 24000, Note_on_c, 0, 81, 64
1, 24000, Note_on_c, 0, 77, 64
1, 24048, Note_on_c, 0, 81, 0
1, 24048, Note_on_c, 0, 77, 0
1, 24048, Note_on_c, 0, 79, 64
1, 24048, Note_on_c, 0, 76, 64
1, 24068, Note_on_c, 0, 79, 0
1, 24068, Note_on_c, 0, 76, 0
1, 24081, Note_on_c, 1, 50, 0
1, 24081, Note_on_c, 1, 38, 0
1, 24096, Note_on_c, 0, 79, 64
1, 24096, Note_on_c, 0, 76, 64
1, 24144, Note_on_c, 0, 79, 0
1, 24144, Note_on_c, 0, 76, 0
1, 24144, Note_on_c, 0, 77, 64
1, 24144, Note_on_c, 0, 74, 64
1, 24164, Note_on_c, 0, 77, 0
1, 24164, Note_on_c, 0, 74, 0
1, 24192, Note_on_c, 1, 44, 70
1, 24240, Note_on_c, 0, 77, 64
1, 24240, Note_on_c, 0, 74, 64
1, 24285, Note_on_c, 0, 77, 0
1, 24285, Note_on_c, 0, 74, 0
1, 24288, Note_on_c, 0, 76, 64
1, 24288, Note_on_c, 0, 73, 64
1, 24333, Note_on_c, 0, 76, 0
1, 24333, Note_on_c, 0, 73, 0
1, 24336, Note_on_c, 0, 77, 64
1, 24336, Note_on_c, 0, 74, 64
1, 24369, Note_on_c, 1, 44, 0
1, 24381, Note_on_c, 0, 77, 0
1, 24381, Note_on_c, 0, 74, 0
1, 24384, Note_on_c, 1, 44, 75
1, 24432, Note_on_c, 0, 77, 80
1, 24432, Note_on_c, 0, 74, 80
1, 24473, Note_on_c, 1, 44, 0
1, 24477, Note_on_c, 0, 77, 0
1, 24477, Note_on_c, 0, 74, 0
1, 24480, Note_on_c, 0, 77, 80
1, 24480, Note_on_c, 0, 74, 80
1, 24480, Note_on_c, 1, 45, 80
1, 24569, Note_on_c, 1, 45, 0
1, 24576, Note_on_c, 0, 77, 0
1, 24576, Note_on_c, 0, 74, 0
1, 24576, Note_on_c, 0, 76, 64
1, 24576, Note_on_c, 0, 73, 64
1, 24576, Note_on_c, 1, 33, 64
1, 24665, Note_on_c, 0, 76, 0
1, 24665, Note_on_c, 0, 73, 0
1, 24665, Note_on_c, 1, 33, 0
1, 24768, Note_on_c, 1, 53, 80
1, 24768, Note_on_c, 1, 41, 80
1, 24840, Note_on_c, 0, 65, 80
1, 24852, Note_on_c, 0, 65, 0
1, 24852, Note_on_c, 0, 67, 80
1, 24864, Note_on_c, 0, 67, 0
1, 24864, Note_on_c, 0, 69, 80
1, 24931, Note_on_c, 0, 69, 0
1, 24936, Note_on_c, 0, 69, 80
1, 24945, Note_on_c, 1, 53, 0
1, 24945, Note_on_c, 1, 41, 0
1, 24948, Note_on_c, 0, 69, 0
1, 24948, Note_on_c, 0, 70, 80
1, 24960, Note_on_c, 0, 70, 0
1, 24960, Note_on_c, 0, 72, 80
1, 24960, Note_on_c, 1, 52, 80
1, 24960, Note_on_c, 1, 40, 80
1, 25027, Note_on_c, 0, 72, 0
1, 25032, Note_on_c, 0, 74, 80
1, 25044, Note_on_c, 0, 74, 0
1, 25044, Note_on_c, 0, 76, 80
1, 25049, Note_on_c, 1, 52, 0
1, 25049, Note_on_c, 1, 40, 0
1, 25056, Note_on_c, 0, 76, 0
1, 25056, Note_on_c, 0, 77, 80
1, 25056, Note_on_c, 1, 50, 80
1, 25056, Note_on_c, 1, 38, 80
1, 25123, Note_on_c, 0, 77, 0
1, 25128, Note_on_c, 0, 77, 80
1, 25140, Note_on_c, 0, 77, 0
1, 25140, Note_on_c, 0, 79, 80
1, 25145, Note_on_c, 1, 50, 0
1, 25145, Note_on_c, 1, 38, 0
1, 25152, Note_on_c, 0, 79, 0
1, 25152, Note_on_c, 0, 81, 80
1, 25152, Note_on_c, 1, 48, 80
1, 25152, Note_on_c, 1, 36, 80
1, 25219, Note_on_c, 0, 81, 0
1, 25224, Note_on_c, 0, 81, 80
1, 25236, Note_on_c, 0, 81, 0
1, 25236, Note_on_c, 0, 82, 80
1, 25241, Note_on_c, 1, 48, 0
1, 25241, Note_on_c, 1, 36, 0
1, 25248, Note_on_c, 0, 82, 0
1, 25248, Note_on_c, 0, 84, 80
1, 25248, Note_on_c, 1, 46, 80
1, 25248, Note_on_c, 1, 34, 80
1, 25315, Note_on_c, 0, 84, 0
1, 25320, Note_on_c, 0, 86, 80
1, 25332, Note_on_c, 0, 86, 0
1, 25332, Note_on_c, 0, 88, 80
1, 25337, Note_on_c, 1, 46, 0
1, 25337, Note_on_c, 1, 34, 0
1, 25344, Note_on_c, 0, 88, 0
1, 25344, Note_on_c, 0, 89, 80
1, 25344, Note_on_c, 1, 45, 80
1, 25344, Note_on_c, 1, 33, 80
1, 25389, Note_on_c, 0, 89, 0
1, 25392, Note_on_c, 0, 84, 80
1, 25437, Note_on_c, 0, 84, 0
1, 25440, Note_on_c, 0, 82, 78
1, 25452, Note_on_c, 0, 82, 0
1, 25452, Note_on_c, 0, 84, 78
1, 25464, Note_on_c, 0, 84, 0
1, 25464, Note_on_c, 0, 82, 78
1, 25485, Note_on_c, 0, 82, 0
1, 25488, Note_on_c, 0, 81, 76
1, 25521, Note_on_c, 1, 45, 0
1, 25521, Note_on_c, 1, 33, 0
1, 25533, Note_on_c, 0, 81, 0
1, 25536, Note_on_c, 0, 79, 74
1, 25548, Note_on_c, 0, 79, 0
1, 25548, Note_on_c, 0, 81, 74
1, 25560, Note_on_c, 0, 81, 0
1, 25560, Note_on_c, 0, 79, 74
1, 25581, Note_on_c, 0, 79, 0
1, 25584, Note_on_c, 0, 77, 72
1, 25629, Note_on_c, 0, 77, 0
1, 25632, Note_on_c, 1, 72, 70
1, 25632, Note_on_c, 1, 70, 70
1, 25680, Note_on_c, 0, 79, 70
1, 25725, Note_on_c, 0, 79, 0
1, 25728, Note_on_c, 0, 84, 70
1, 25773, Note_on_c, 0, 84, 0
1, 25776, Note_on_c, 0, 76, 70
1, 25809, Note_on_c, 1, 72, 0
1, 25809, Note_on_c, 1, 70, 0
1, 25821, Note_on_c, 0, 76, 0
1, 25824, Note_on_c, 0, 77, 70
1, 25824, Note_on_c, 1, 72, 70
1, 25824, Note_on_c, 1, 69, 70
1, 25842, Note_on_c, 0, 77, 0
1, 25842, Note_on_c, 0, 76, 70
1, 25860, Note_on_c, 0, 76, 0
1, 25860, Note_on_c, 0, 77, 70
1, 25913, Note_on_c, 0, 77, 0
1, 25913, Note_on_c, 1, 72, 0
1, 25913, Note_on_c, 1, 69, 0
1, 25920, Note_on_c, 1, 72, 64
1, 25920, Note_on_c, 1, 70, 64
1, 25968, Note_on_c, 0, 79, 64
1, 26013, Note_on_c, 0, 79, 0
1, 26016, Note_on_c, 0, 84, 64
1, 26061, Note_on_c, 0, 84, 0
1, 26064, Note_on_c, 0, 76, 64
1, 26097, Note_on_c, 1, 72, 0
1, 26097, Note_on_c, 1, 70, 0
1, 26109, Note_on_c, 0, 76, 0
1, 26112, Note_on_c, 0, 77, 64
1, 26130, Note_on_c, 0, 77, 0
1, 26130, Note_on_c, 0, 76, 64
1, 26148, Note_on_c, 0, 76, 0
1, 26148, Note_on_c, 0, 77, 64
1, 26201, Note_on_c, 0, 77, 0
1, 26208, Note_on_c, 1, 60, 64
1, 26208, Note_on_c, 1, 48, 64
1, 26256, Note_on_c, 0, 70, 64
1, 26256, Note_on_c, 0, 67, 64
1, 26276, Note_on_c, 0, 70, 0
1, 26276, Note_on_c, 0, 67, 0
1, 26297, Note_on_c, 1, 60, 0
1, 26297, Note_on_c, 1, 48, 0
1, 26304, Note_on_c, 0, 70, 65
1, 26304, Note_on_c, 0, 67, 65
1, 26352, Note_on_c, 0, 70, 0
1, 26352, Note_on_c, 0, 67, 0
1, 26352, Note_on_c, 0, 69, 66
1, 26352, Note_on_c, 0, 65, 66
1, 26372, Note_on_c, 0, 69, 0
1, 26372, Note_on_c, 0, 65, 0
1, 26400, Note_on_c, 0, 69, 67
1, 26400, Note_on_c, 0, 65, 67
1, 26448, Note_on_c, 0, 69, 0
1, 26448, Note_on_c, 0, 65, 0
1, 26448, Note_on_c, 0, 67, 68
1, 26448, Note_on_c, 0, 64, 68
1, 26468, Note_on_c, 0, 67, 0
1, 26468, Note_on_c, 0, 64, 0
1, 26496, Note_on_c, 1, 60, 70
1, 26496, Note_on_c, 1, 48, 70
1, 26544, Note_on_c, 0, 72, 70
1, 26544, Note_on_c, 0, 69, 70
1, 26564, Note_on_c, 0, 72, 0
1, 26564, Note_on_c, 0, 69, 0
1, 26585, Note_on_c, 1, 60, 0
1, 26585, Note_on_c, 1, 48, 0
1, 26592, Note_on_c, 0, 72, 71
1, 26592, Note_on_c, 0, 69, 71
1, 26640, Note_on_c, 0, 72, 0
1, 26640, Note_on_c, 0, 69, 0
1, 26640, Note_on_c, 0, 70, 72
1, 26640, Note_on_c, 0, 67, 72
1, 26660, Note_on_c, 0, 70, 0
1, 26660, Note_on_c, 0, 67, 0
1, 26688, Note_on_c, 0, 70, 72
1, 26688, Note_on_c, 0, 67, 72
1, 26736, Note_on_c, 0, 70, 0
1, 26736, Note_on_c, 0, 67, 0
1, 26736, Note_on_c, 0, 69, 73
1, 26736, Note_on_c, 0, 65, 73
1, 26756, Note_on_c, 0, 69, 0
1, 26756, Note_on_c, 0, 65, 0
1, 26784, Note_on_c, 1, 60, 75
1, 26784, Note_on_c, 1, 48, 75
1, 26832, Note_on_c, 0, 74, 75
1, 26832, Note_on_c, 0, 70, 75
1, 26852, Note_on_c, 0, 74, 0
1, 26852, Note_on_c, 0, 70, 0
1, 26873, Note_on_c, 1, 60, 0
1, 26873, Note_on_c, 1, 48, 0
1, 26880, Note_on_c, 0, 74, 76
1, 26880, Note_on_c, 0, 70, 76
1, 26928, Note_on_c, 0, 74, 0
1, 26928, Note_on_c, 0, 70, 0
1, 26928, Note_on_c, 0, 72, 77
1, 26928, Note_on_c, 0, 69, 77
1, 26948, Note_on_c, 0, 72, 0
1, 26948, Note_on_c, 0, 69, 0
1, 26976, Note_on_c, 0, 72, 78
1, 26976, Note_on_c, 0, 69, 78
1, 27024, Note_on_c, 0, 72, 0
1, 27024, Note_on_c, 0, 69, 0
1, 27024, Note_on_c, 0, 70, 79
1, 27024, Note_on_c, 0, 67, 79
1, 27044, Note_on_c, 0, 70, 0
1, 27044, Note_on_c, 0, 67, 0
1, 27072, Note_on_c, 1, 53, 80
1, 27072, Note_on_c, 1, 41, 80
1, 27144, Note_on_c, 0, 77, 80
1, 27144, Note_on_c, 0, 69, 80
1, 27156, Note_on_c, 0, 77, 0
1, 27156, Note_on_c, 0, 79, 80
1, 27168, Note_on_c, 0, 79, 0
1, 27168, Note_on_c, 0, 81, 80
1, 27213, Note_on_c, 0, 81, 0
1, 27213, Note_on_c, 0, 69, 0
1, 27216, Note_on_c, 0, 77, 80
1, 27216, Note_on_c, 0, 69, 80
1, 27249, Note_on_c, 1, 53, 0
1, 27249, Note_on_c, 1, 41, 0
1, 27261, Note_on_c, 0, 77, 0
1, 27261, Note_on_c, 0, 69, 0
1, 27264, Note_on_c, 1, 52, 80
1, 27264, Note_on_c, 1, 40, 80
1, 27312, Note_on_c, 0, 77, 80
1, 27312, Note_on_c, 0, 69, 80
1, 27353, Note_on_c, 1, 52, 0
1, 27353, Note_on_c, 1, 40, 0
1, 27357, Note_on_c, 0, 77, 0
1, 27357, Note_on_c, 0, 69, 0
1, 27360, Note_on_c, 1, 50, 80
1, 27360, Note_on_c, 1, 38, 80
1, 27432, Note_on_c, 0, 77, 80
1, 27432, Note_on_c, 0, 69, 80
1, 27444, Note_on_c, 0, 77, 0
1, 27444, Note_on_c, 0, 79, 80
1, 27456, Note_on_c, 0, 79, 0
1, 27456, Note_on_c, 0, 81, 80
1, 27501, Note_on_c, 0, 81, 0
1, 27501, Note_on_c, 0, 69, 0
1, 27504, Note_on_c, 0, 77, 80
1, 27504, Note_on_c, 0, 69, 80
1, 27537, Note_on_c, 1, 50, 0
1, 27537, Note_on_c, 1, 38, 0
1, 27549, Note_on_c, 0, 77, 0
1, 27549, Note_on_c, 0, 69, 0
1, 27552, Note_on_c, 1, 45, 80
1, 27552, Note_on_c, 1, 36, 80
1, 27600, Note_on_c, 0, 77, 80
1, 27600, Note_on_c, 0, 69, 80
1, 27641, Note_on_c, 1, 45, 0
1, 27641, Note_on_c, 1, 36, 0
1, 27645, Note_on_c, 0, 77, 0
1, 27645, Note_on_c, 0, 69, 0
1, 27648, Note_on_c, 1, 46, 80
1, 27648, Note_on_c, 1, 34, 80
1, 27696, Note_on_c, 0, 86, 80
1, 27696, Note_on_c, 0, 82, 80
1, 27737, Note_on_c, 1, 46, 0
1, 27737, Note_on_c, 1, 34, 0
1, 27741, Note_on_c, 0, 86, 0
1, 27741, Note_on_c, 0, 82, 0
1, 27744, Note_on_c, 0, 84, 80
1, 27744, Note_on_c, 0, 81, 80
1, 27744, Note_on_c, 1, 48, 80
1, 27789, Note_on_c, 0, 84, 0
1, 27789, Note_on_c, 0, 81, 0
1, 27792, Note_on_c, 0, 82, 80
1, 27792, Note_on_c, 0, 79, 80
1, 27833, Note_on_c, 1, 48, 0
1, 27837, Note_on_c, 0, 82, 0
1, 27837, Note_on_c, 0, 79, 0
1, 27840, Note_on_c, 0, 81, 80
1, 27840, Note_on_c, 0, 77, 80
1, 27840, Note_on_c, 1, 36, 80
1, 27885, Note_on_c, 0, 81, 0
1, 27885, Note_on_c, 0, 77, 0
1, 27888, Note_on_c, 0, 79, 80
1, 27888, Note_on_c, 0, 76, 80
1, 27929, Note_on_c, 1, 36, 0
1, 27933, Note_on_c, 0, 79, 0
1, 27933, Note_on_c, 0, 76, 0
1, 27936, Note_on_c, 0, 79, 80
1, 27936, Note_on_c, 1, 41, 80
1, 27950, Note_on_c, 0, 79, 0
1, 27951, Note_on_c, 0, 77, 80
1, 27965, Note_on_c, 0, 77, 0
1, 27966, Note_on_c, 0, 79, 80
1, 27980, Note_on_c, 0, 79, 0
1, 27981, Note_on_c, 0, 77, 80
1, 27995, Note_on_c, 0, 77, 0
1, 27996, Note_on_c, 0, 79, 80
1, 28010, Note_on_c, 0, 79, 0
1, 28011, Note_on_c, 0, 77, 80
1, 28025, Note_on_c, 0, 77, 0
1, 28025, Note_on_c, 1, 41, 0
1, 28026, Note_on_c, 0, 79, 80
1, 28032, Note_on_c, 1, 36, 80
1, 28040, Note_on_c, 0, 79, 0
1, 28041, Note_on_c, 0, 77, 80
1, 28055, Note_on_c, 0, 77, 0
1, 28056, Note_on_c, 0, 79, 80
1, 28070, Note_on_c, 0, 79, 0
1, 28071, Note_on_c, 0, 77, 80
1, 28085, Note_on_c, 0, 77, 0
1, 28086, Note_on_c, 0, 79, 80
1, 28099, Note_on_c, 0, 79, 0
1, 28100, Note_on_c, 0, 77, 80
1, 28121, Note_on_c, 1, 36, 0
1, 28127, Note_on_c, 0, 77, 0
1, 28128, Note_on_c, 1, 29, 80
1, 28217, Note_on_c, 1, 29, 0
1, 28224, Note_on_c, 1, 50, 80
1, 28224, Note_on_c, 1, 38, 80
1, 28296, Note_on_c, 0, 62, 80
1, 28308, Note_on_c, 0, 62, 0
1, 28308, Note_on_c, 0, 64, 80
1, 28320, Note_on_c, 0, 64, 0
1, 28320, Note_on_c, 0, 65, 80
1, 28387, Note_on_c, 0, 65, 0
1, 28392, Note_on_c, 0, 65, 80
1, 28401, Note_on_c, 1, 50, 0
1, 28401, Note_on_c, 1, 38, 0
1, 28404, Note_on_c, 0, 65, 0
1, 28404, Note_on_c, 0, 67, 80
1, 28416, Note_on_c, 0, 67, 0
1, 28416, Note_on_c, 0, 69, 80
1, 28416, Note_on_c, 1, 48, 80
1, 28416, Note_on_c, 1, 36, 80
1, 28483, Note_on_c, 0, 69, 0
1, 28488, Note_on_c, 0, 71, 80
1, 28500, Note_on_c, 0, 71, 0
1, 28500, Note_on_c, 0, 73, 80
1, 28505, Note_on_c, 1, 48, 0
1, 28505, Note_on_c, 1, 36, 0
1, 28512, Note_on_c, 0, 73, 0
1, 28512, Note_on_c, 0, 74, 80
1, 28512, Note_on_c, 1, 46, 80
1, 28512, Note_on_c, 1, 34, 80
1, 28579, Note_on_c, 0, 74, 0
1, 28584, Note_on_c, 0, 74, 80
1, 28596, Note_on_c, 0, 74, 0
1, 28596, Note_on_c, 0, 76, 80
1, 28601, Note_on_c, 1, 46, 0
1, 28601, Note_on_c, 1, 34, 0
1, 28608, Note_on_c, 0, 76, 0
1, 28608, Note_on_c, 0, 77, 80
1, 28608, Note_on_c, 1, 41, 80
1, 28608, Note_on_c, 1, 29, 80
1, 28647, Note_on_c, 0, 77, 0
1, 28697, Note_on_c, 1, 41, 0
1, 28697, Note_on_c, 1, 29, 0
1, 28800, Note_on_c, 0, 76, 64
1, 28800, Note_on_c, 1, 43, 64
1, 28800, Note_on_c, 1, 31, 64
1, 28845, Note_on_c, 0, 76, 0
1, 28848, Note_on_c, 0, 82, 64
1, 28848, Note_on_c, 0, 79, 64
1, 28868, Note_on_c, 0, 82, 0
1, 28868, Note_on_c, 0, 79, 0
1, 28896, Note_on_c, 0, 82, 64
1, 28896, Note_on_c, 0, 79, 64
1, 28944, Note_on_c, 0, 82, 0
1, 28944, Note_on_c, 0, 79, 0
1, 28944, Note_on_c, 0, 81, 64
1, 28944, Note_on_c, 0, 77, 64
1, 28977, Note_on_c, 1, 43, 0
1, 28977, Note_on_c, 1, 31, 0
1, 28989, Note_on_c, 0, 81, 0
1, 28989, Note_on_c, 0, 77, 0
1, 28992, Note_on_c, 0, 81, 64
1, 28992, Note_on_c, 0, 77, 64
1, 28992, Note_on_c, 1, 45, 64
1, 28992, Note_on_c, 1, 33, 64
1, 29040, Note_on_c, 0, 81, 0
1, 29040, Note_on_c, 0, 77, 0
1, 29040, Note_on_c, 0, 79, 64
1, 29040, Note_on_c, 0, 76, 64
1, 29060, Note_on_c, 0, 79, 0
1, 29060, Note_on_c, 0, 76, 0
1, 29081, Note_on_c, 1, 45, 0
1, 29081, Note_on_c, 1, 33, 0
1, 29088, Note_on_c, 0, 79, 64
1, 29088, Note_on_c, 0, 76, 64
1, 29088, Note_on_c, 1, 50, 64
1, 29088, Note_on_c, 1, 38, 64
1, 29136, Note_on_c, 0, 79, 0
1, 29136, Note_on_c, 0, 76, 0
1, 29136, Note_on_c, 0, 77, 64
1, 29136, Note_on_c, 0, 74, 64
1, 29181, Note_on_c, 0, 77, 0
1, 29181, Note_on_c, 0, 74, 0
1, 29184, Note_on_c, 0, 81, 64
1, 29184, Note_on_c, 0, 77, 64
1, 29265, Note_on_c, 1, 50, 0
1, 29265, Note_on_c, 1, 38, 0
1, 29273, Note_on_c, 0, 81, 0
1, 29273, Note_on_c, 0, 77, 0
1, 29376, Note_on_c, 1, 50, 80
1, 29376, Note_on_c, 1, 38, 80
1, 29448, Note_on_c, 0, 62, 80
1, 29460, Note_on_c, 0, 62, 0
1, 29460, Note_on_c, 0, 64, 80
1, 29472, Note_on_c, 0, 64, 0
1, 29472, Note_on_c, 0, 65, 80
1, 29539, Note_on_c, 0, 65, 0
1, 29544, Note_on_c, 0, 65, 80
1, 29553, Note_on_c, 1, 50, 0
1, 29553, Note_on_c, 1, 38, 0
1, 29556, Note_on_c, 0, 65, 0
1, 29556, Note_on_c, 0, 67, 80
1, 29568, Note_on_c, 0, 67, 0
1, 29568, Note_on_c, 0, 69, 80
1, 29568, Note_on_c, 1, 48, 80
1, 29568, Note_on_c, 1, 36, 80
1, 29635, Note_on_c, 0, 69, 0
1, 29640, Note_on_c, 0, 71, 80
1, 29652, Note_on_c, 0, 71, 0
1, 29652, Note_on_c, 0, 73, 80
1, 29657, Note_on_c, 1, 48, 0
1, 29657, Note_on_c, 1, 36, 0
1, 29664, Note_on_c, 0, 73, 0
1, 29664, Note_on_c, 0, 74, 80
1, 29664, Note_on_c, 1, 46, 80
1, 29664, Note_on_c, 1, 34, 80
1, 29731, Note_on_c, 0, 74, 0
1, 29736, Note_on_c, 0, 74, 80
1, 29748, Note_on_c, 0, 74, 0
1, 29748, Note_on_c, 0, 76, 80
1, 29753, Note_on_c, 1, 46, 0
1, 29753, Note_on_c, 1, 34, 0
1, 29760, Note_on_c, 0, 76, 0
1, 29760, Note_on_c, 0, 77, 80
1, 29760, Note_on_c, 1, 41, 80
1, 29760, Note_on_c, 1, 29, 80
1, 29799, Note_on_c, 0, 77, 0
1, 29849, Note_on_c, 1, 41, 0
1, 29849, Note_on_c, 1, 29, 0
1, 29952, Note_on_c, 0, 76, 64
1, 29952, Note_on_c, 1, 43, 64
1, 29952, Note_on_c, 1, 31, 64
1, 29997, Note_on_c, 0, 76, 0
1, 30000, Note_on_c, 0, 82, 64
1, 30000, Note_on_c, 0, 79, 64
1, 30020, Note_on_c, 0, 82, 0
1, 30020, Note_on_c, 0, 79, 0
1, 30048, Note_on_c, 0, 82, 64
1, 30048, Note_on_c, 0, 79, 64
1, 30096, Note_on_c, 0, 82, 0
1, 30096, Note_on_c, 0, 79, 0
1, 30096, Note_on_c, 0, 81, 64
1, 30096, Note_on_c, 0, 77, 64
1, 30116, Note_on_c, 0, 81, 0
1, 30116, Note_on_c, 0, 77, 0
1, 30129, Note_on_c, 1, 43, 0
1, 30129, Note_on_c, 1, 31, 0
1, 30144, Note_on_c, 0, 81, 64
1, 30144, Note_on_c, 0, 77, 64
1, 30144, Note_on_c, 1, 45, 64
1, 30144, Note_on_c, 1, 33, 64
1, 30192, Note_on_c, 0, 81, 0
1, 30192, Note_on_c, 0, 77, 0
1, 30192, Note_on_c, 0, 79, 64
1, 30192, Note_on_c, 0, 76, 64
1, 30212, Note_on_c, 0, 79, 0
1, 30212, Note_on_c, 0, 76, 0
1, 30233, Note_on_c, 1, 45, 0
1, 30233, Note_on_c, 1, 33, 0
1, 30240, Note_on_c, 0, 77, 64
1, 30240, Note_on_c, 0, 74, 64
1, 30240, Note_on_c, 1, 50, 64
1, 30240, Note_on_c, 1, 38, 64
1, 30288, Note_on_c, 0, 74, 0
1, 30288, Note_on_c, 0, 81, 64
1, 30308, Note_on_c, 0, 81, 0
1, 30308, Note_on_c, 0, 77, 0
1, 30336, Note_on_c, 0, 81, 64
1, 30336, Note_on_c, 0, 77, 64
1, 30384, Note_on_c, 0, 81, 0
1, 30384, Note_on_c, 0, 77, 0
1, 30384, Note_on_c, 0, 79, 64
1, 30384, Note_on_c, 0, 76, 64
1, 30404, Note_on_c, 0, 79, 0
1, 30404, Note_on_c, 0, 76, 0
1, 30417, Note_on_c, 1, 50, 0
1, 30417, Note_on_c, 1, 38, 0
1, 30432, Note_on_c, 0, 79, 64
1, 30432, Note_on_c, 0, 76, 64
1, 30480, Note_on_c, 0, 79, 0
1, 30480, Note_on_c, 0, 76, 0
1, 30480, Note_on_c, 0, 77, 64
1, 30480, Note_on_c, 0, 74, 64
1, 30500, Note_on_c, 0, 77, 0
1, 30500, Note_on_c, 0, 74, 0
1, 30528, Note_on_c, 1, 44, 70
1, 30576, Note_on_c, 0, 77, 64
1, 30576, Note_on_c, 0, 74, 64
1, 30621, Note_on_c, 0, 77, 0
1, 30621, Note_on_c, 0, 74, 0
1, 30624, Note_on_c, 0, 76, 64
1, 30624, Note_on_c, 0, 73, 64
1, 30669, Note_on_c, 0, 76, 0
1, 30669, Note_on_c, 0, 73, 0
1, 30672, Note_on_c, 0, 77, 64
1, 30672, Note_on_c, 0, 74, 64
1, 30705, Note_on_c, 1, 44, 0
1, 30717, Note_on_c, 0, 77, 0
1, 30717, Note_on_c, 0, 74, 0
1, 30720, Note_on_c, 1, 44, 75
1, 30768, Note_on_c, 0, 77, 80
1, 30768, Note_on_c, 0, 74, 80
1, 30809, Note_on_c, 1, 44, 0
1, 30813, Note_on_c, 0, 77, 0
1, 30813, Note_on_c, 0, 74, 0
1, 30816, Note_on_c, 0, 77, 80
1, 30816, Note_on_c, 0, 74, 80
1, 30816, Note_on_c, 1, 45, 80
1, 30905, Note_on_c, 1, 45, 0
1, 30912, Note_on_c, 0, 77, 0
1, 30912, Note_on_c, 0, 74, 0
1, 30912, Note_on_c, 0, 76, 64
1, 30912, Note_on_c, 0, 73, 64
1, 30912, Note_on_c, 1, 33, 64
1, 31001, Note_on_c, 0, 76, 0
1, 31001, Note_on_c, 0, 73, 0
1, 31001, Note_on_c, 1, 33, 0
1, 31104, Note_on_c, 1, 53, 80
1, 31104, Note_on_c, 1, 41, 80
1, 31176, Note_on_c, 0, 65, 80
1, 31188, Note_on_c, 0, 65, 0
1, 31188, Note_on_c, 0, 67, 80
1, 31200, Note_on_c, 0, 67, 0
1, 31200, Note_on_c, 0, 69, 80
1, 31267, Note_on_c, 0, 69, 0
1, 31272, Note_on_c, 0, 69, 80
1, 31281, Note_on_c, 1, 53, 0
1, 31281, Note_on_c, 1, 41, 0
1, 31284, Note_on_c, 0, 69, 0
1, 31284, Note_on_c, 0, 70, 80
1, 31296, Note_on_c, 0, 70, 0
1, 31296, Note_on_c, 0, 72, 80
1, 31296, Note_on_c, 1, 52, 80
1, 31296, Note_on_c, 1, 40, 80
1, 31363, Note_on_c, 0, 72, 0
1, 31368, Note_on_c, 0, 74, 80
1, 31380, Note_on_c, 0, 74, 0
1, 31380, Note_on_c, 0, 76, 80
1, 31385, Note_on_c, 1, 52, 0
1, 31385, Note_on_c, 1, 40, 0
1, 31392, Note_on_c, 0, 76, 0
1, 31392, Note_on_c, 0, 77, 80
1, 31392, Note_on_c, 1, 50, 80
1, 31392, Note_on_c, 1, 38, 80
1, 31459, Note_on_c, 0, 77, 0
1, 31464, Note_on_c, 0, 77, 80
1, 31476, Note_on_c, 0, 77, 0
1, 31476, Note_on_c, 0, 79, 80
1, 31481, Note_on_c, 1, 50, 0
1, 31481, Note_on_c, 1, 38, 0
1, 31488, Note_on_c, 0, 79, 0
1, 31488, Note_on_c, 0, 81, 80
1, 31488, Note_on_c, 1, 48, 80
1, 31488, Note_on_c, 1, 36, 80
1, 31555, Note_on_c, 0, 81, 0
1, 31560, Note_on_c, 0, 81, 80
1, 31572, Note_on_c, 0, 81, 0
1, 31572, Note_on_c, 0, 82, 80
1, 31577, Note_on_c, 1, 48, 0
1, 31577, Note_on_c, 1, 36, 0
1, 31584, Note_on_c, 0, 82, 0
1, 31584, Note_on_c, 0, 84, 80
1, 31584, Note_on_c, 1, 46, 80
1, 31584, Note_on_c, 1, 34, 80
1, 31651, Note_on_c, 0, 84, 0
1, 31656, Note_on_c, 0, 86, 80
1, 31668, Note_on_c, 0, 86, 0
1, 31668, Note_on_c, 0, 88, 80
1, 31673, Note_on_c, 1, 46, 0
1, 31673, Note_on_c, 1, 34, 0
1, 31680, Note_on_c, 0, 88, 0
1, 31680, Note_on_c, 0, 89, 80
1, 31680, Note_on_c, 1, 45, 80
1, 31680, Note_on_c, 1, 33, 80
1, 31725, Note_on_c, 0, 89, 0
1, 31728, Note_on_c, 0, 84, 80
1, 31773, Note_on_c, 0, 84, 0
1, 31776, Note_on_c, 0, 82, 78
1, 31788, Note_on_c, 0, 82, 0
1, 31788, Note_on_c, 0, 84, 78
1, 31800, Note_on_c, 0, 84, 0
1, 31800, Note_on_c, 0, 82, 78
1, 31821, Note_on_c, 0, 82, 0
1, 31824, Note_on_c, 0, 81, 76
1, 31857, Note_on_c, 1, 45, 0
1, 31857, Note_on_c, 1, 33, 0
1, 31869, Note_on_c, 0, 81, 0
1, 31872, Note_on_c, 0, 79, 74
1, 31884, Note_on_c, 0, 79, 0
1, 31884, Note_on_c, 0, 81, 74
1, 31896, Note_on_c, 0, 81, 0
1, 31896, Note_on_c, 0, 79, 74
1, 31917, Note_on_c, 0, 79, 0
1, 31920, Note_on_c, 0, 77, 72
1, 31965, Note_on_c, 0, 77, 0
1, 31968, Note_on_c, 1, 72, 70
1, 31968, Note_on_c, 1, 70, 70
1, 32016, Note_on_c, 0, 79, 70
1, 32061, Note_on_c, 0, 79, 0
1, 32064, Note_on_c, 0, 84, 70
1, 32109, Note_on_c, 0, 84, 0
1, 32112, Note_on_c, 0, 76, 70
1, 32145, Note_on_c, 1, 72, 0
1, 32145, Note_on_c, 1, 70, 0
1, 32157, Note_on_c, 0, 76, 0
1, 32160, Note_on_c, 0, 77, 70
1, 32160, Note_on_c, 1, 72, 70
1, 32160, Note_on_c, 1, 69, 70
1, 32178, Note_on_c, 0, 77, 0
1, 32178, Note_on_c, 0, 76, 70
1, 32196, Note_on_c, 0, 76, 0
1, 32196, Note_on_c, 0, 77, 70
1, 32249, Note_on_c, 0, 77, 0
1, 32249, Note_on_c, 1, 72, 0
1, 32249, Note_on_c, 1, 69, 0
1, 32256, Note_on_c, 1, 72, 64
1, 32256, Note_on_c, 1, 70, 64
1, 32304, Note_on_c, 0, 79, 64
1, 32349, Note_on_c, 0, 79, 0
1, 32352, Note_on_c, 0, 84, 64
1, 32397, Note_on_c, 0, 84, 0
1, 32400, Note_on_c, 0, 76, 64
1, 32433, Note_on_c, 1, 72, 0
1, 32433, Note_on_c, 1, 70, 0
1, 32445, Note_on_c, 0, 76, 0
1, 32448, Note_on_c, 0, 77, 64
1, 32466, Note_on_c, 0, 77, 0
1, 32466, Note_on_c, 0, 76, 64
1, 32484, Note_on_c, 0, 76, 0
1, 32484, Note_on_c, 0, 77, 64
1, 32537, Note_on_c, 0, 77, 0
1, 32544, Note_on_c, 1, 60, 64
1, 32544, Note_on_c, 1, 48, 64
1, 32592, Note_on_c, 0, 70, 64
1, 32592, Note_on_c, 0, 67, 64
1, 32612, Note_on_c, 0, 70, 0
1, 32612, Note_on_c, 0, 67, 0
1, 32633, Note_on_c, 1, 60, 0
1, 32633, Note_on_c, 1, 48, 0
1, 32640, Note_on_c, 0, 70, 65
1, 32640, Note_on_c, 0, 67, 65
1, 32688, Note_on_c, 0, 70, 0
1, 32688, Note_on_c, 0, 67, 0
1, 32688, Note_on_c, 0, 69, 66
1, 32688, Note_on_c, 0, 65, 66
1, 32708, Note_on_c, 0, 69, 0
1, 32708, Note_on_c, 0, 65, 0
1, 32736, Note_on_c, 0, 69, 67
1, 32736, Note_on_c, 0, 65, 67
1, 32784, Note_on_c, 0, 69, 0
1, 32784, Note_on_c, 0, 65, 0
1, 32784, Note_on_c, 0, 67, 68
1, 32784, Note_on_c, 0, 64, 68
1, 32804, Note_on_c, 0, 67, 0
1, 32804, Note_on_c, 0, 64, 0
1, 32832, Note_on_c, 1, 60, 70
1, 32832, Note_on_c, 1, 48, 70
1, 32880, Note_on_c, 0, 72, 70
1, 32880, Note_on_c, 0, 69, 70
1, 32900, Note_on_c, 0, 72, 0
1, 32900, Note_on_c, 0, 69, 0
1, 32921, Note_on_c, 1, 60, 0
1, 32921, Note_on_c, 1, 48, 0
1, 32928, Note_on_c, 0, 72, 71
1, 32928, Note_on_c, 0, 69, 71
1, 32976, Note_on_c, 0, 72, 0
1, 32976, Note_on_c, 0, 69, 0
1, 32976, Note_on_c, 0, 70, 72
1, 32976, Note_on_c, 0, 67, 72
1, 32996, Note_on_c, 0, 70, 0
1, 32996, Note_on_c, 0, 67, 0
1, 33024, Note_on_c, 0, 70, 72
1, 33024, Note_on_c, 0, 67, 72
1, 33072, Note_on_c, 0, 70, 0
1, 33072, Note_on_c, 0, 67, 0
1, 33072, Note_on_c, 0, 69, 73
1, 33072, Note_on_c, 0, 65, 73
1, 33092, Note_on_c, 0, 69, 0
1, 33092, Note_on_c, 0, 65, 0
1, 33120, Note_on_c, 1, 60, 75
1, 33120, Note_on_c, 1, 48, 75
1, 33168, Note_on_c, 0, 74, 75
1, 33168, Note_on_c, 0, 70, 75
1, 33188, Note_on_c, 0, 74, 0
1, 33188, Note_on_c, 0, 70, 0
1, 33209, Note_on_c, 1, 60, 0
1, 33209, Note_on_c, 1, 48, 0
1, 33216, Note_on_c, 0, 74, 76
1, 33216, Note_on_c, 0, 70, 76
1, 33264, Note_on_c, 0, 74, 0
1, 33264, Note_on_c, 0, 70, 0
1, 33264, Note_on_c, 0, 72, 77
1, 33264, Note_on_c, 0, 69, 77
1, 33284, Note_on_c, 0, 72, 0
1, 33284, Note_on_c, 0, 69, 0
1, 33312, Note_on_c, 0, 72, 78
1, 33312, Note_on_c, 0, 69, 78
1, 33360, Note_on_c, 0, 72, 0
1, 33360, Note_on_c, 0, 69, 0
1, 33360, Note_on_c, 0, 70, 79
1, 33360, Note_on_c, 0, 67, 79
1, 33380, Note_on_c, 0, 70, 0
1, 33380, Note_on_c, 0, 67, 0
1, 33408, Note_on_c, 1, 53, 80
1, 33408, Note_on_c, 1, 41, 80
1, 33480, Note_on_c, 0, 77, 80
1, 33480, Note_on_c, 0, 69, 80
1, 33492, Note_on_c, 0, 77, 0
1, 33492, Note_on_c, 0, 79, 80
1, 33504, Note_on_c, 0, 79, 0
1, 33504, Note_on_c, 0, 81, 80
1, 33549, Note_on_c, 0, 81, 0
1, 33549, Note_on_c, 0, 69, 0
1, 33552, Note_on_c, 0, 77, 80
1, 33552, Note_on_c, 0, 69, 80
1, 33585, Note_on_c, 1, 53, 0
1, 33585, Note_on_c, 1, 41, 0
1, 33597, Note_on_c, 0, 77, 0
1, 33597, Note_on_c, 0, 69, 0
1, 33600, Note_on_c, 1, 52, 80
1, 33600, Note_on_c, 1, 40, 80
1, 33648, Note_on_c, 0, 77, 80
1, 33648, Note_on_c, 0, 69, 80
1, 33689, Note_on_c, 1, 52, 0
1, 33689, Note_on_c, 1, 40, 0
1, 33693, Note_on_c, 0, 77, 0
1, 33693, Note_on_c, 0, 69, 0
1, 33696, Note_on_c, 1, 50, 80
1, 33696, Note_on_c, 1, 38, 80
1, 33768, Note_on_c, 0, 77, 80
1, 33768, Note_on_c, 0, 69, 80
1, 33780, Note_on_c, 0, 77, 0
1, 33780, Note_on_c, 0, 79, 80
1, 33792, Note_on_c, 0, 79, 0
1, 33792, Note_on_c, 0, 81, 80
1, 33837, Note_on_c, 0, 81, 0
1, 33837, Note_on_c, 0, 69, 0
1, 33840, Note_on_c, 0, 77, 80
1, 33840, Note_on_c, 0, 69, 80
1, 33873, Note_on_c, 1, 50, 0
1, 33873, Note_on_c, 1, 38, 0
1, 33885, Note_on_c, 0, 77, 0
1, 33885, Note_on_c, 0, 69, 0
1, 33888, Note_on_c, 1, 45, 80
1, 33888, Note_on_c, 1, 36, 80
1, 33936, Note_on_c, 0, 77, 80
1, 33936, Note_on_c, 0, 69, 80
1, 33977, Note_on_c, 1, 45, 0
1, 33977, Note_on_c, 1, 36, 0
1, 33981, Note_on_c, 0, 77, 0
1, 33981, Note_on_c, 0, 69, 0
1, 33984, Note_on_c, 1, 46, 80
1, 33984, Note_on_c, 1, 34, 80
1, 34032, Note_on_c, 0, 86, 80
1, 34032, Note_on_c, 0, 82, 80
1, 34073, Note_on_c, 1, 46, 0
1, 34073, Note_on_c, 1, 34, 0
1, 34077, Note_on_c, 0, 86, 0
1, 34077, Note_on_c, 0, 82, 0
1, 34080, Note_on_c, 0, 84, 80
1, 34080, Note_on_c, 0, 81, 80
1, 34080, Note_on_c, 1, 48, 80
1, 34125, Note_on_c, 0, 84, 0
1, 34125, Note_on_c, 0, 81, 0
1, 34128, Note_on_c, 0, 82, 80
1, 34128, Note_on_c, 0, 79, 80
1, 34169, Note_on_c, 1, 48, 0
1, 34173, Note_on_c, 0, 82, 0
1, 34173, Note_on_c, 0, 79, 0
1, 34176, Note_on_c, 0, 81, 80
1, 34176, Note_on_c, 0, 77, 80
1, 34176, Note_on_c, 1, 36, 80
1, 34221, Note_on_c, 0, 81, 0
1, 34221, Note_on_c, 0, 77, 0
1, 34224, Note_on_c, 0, 79, 80
1, 34224, Note_on_c, 0, 76, 80
1, 34265, Note_on_c, 1, 36, 0
1, 34269, Note_on_c, 0, 79, 0
1, 34269, Note_on_c, 0, 76, 0
1, 34272, Note_on_c, 0, 79, 80
1, 34272, Note_on_c, 1, 41, 80
1, 34286, Note_on_c, 0, 79, 0
1, 34287, Note_on_c, 0, 77, 80
1, 34301, Note_on_c, 0, 77, 0
1, 34302, Note_on_c, 0, 79, 80
1, 34316, Note_on_c, 0, 79, 0
1, 34317, Note_on_c, 0, 77, 80
1, 34331, Note_on_c, 0, 77, 0
1, 34332, Note_on_c, 0, 79, 80
1, 34346, Note_on_c, 0, 79, 0
1, 34347, Note_on_c, 0, 77, 80
1, 34361, Note_on_c, 0, 77, 0
1, 34361, Note_on_c, 1, 41, 0
1, 34362, Note_on_c, 0, 79, 80
1, 34368, Note_on_c, 1, 36, 80
1, 34376, Note_on_c, 0, 79, 0
1, 34377, Note_on_c, 0, 77, 80
1, 34391, Note_on_c, 0, 77, 0
1, 34392, Note_on_c, 0, 79, 80
1, 34406, Note_on_c, 0, 79, 0
1, 34407, Note_on_c, 0, 77, 80
1, 34421, Note_on_c, 0, 77, 0
1, 34422, Note_on_c, 0, 79, 80
1, 34435, Note_on_c, 0, 79, 0
1, 34436, Note_on_c, 0, 77, 80
1, 34457, Note_on_c, 1, 36, 0
1, 34463, Note_on_c, 0, 77, 0
1, 34464, Note_on_c, 1, 29, 80
1, 34553, Note_on_c, 1, 29, 0
1, 34560, Note_on_c, 1, 66, 80
1, 34560, Note_on_c, 1, 54, 80
1, 34632, Note_on_c, 0, 72, 80
1, 34644, Note_on_c, 0, 72, 0
1, 34644, Note_on_c, 0, 74, 80
1, 34656, Note_on_c, 0, 74, 0
1, 34656, Note_on_c, 0, 75, 80
1, 34723, Note_on_c, 0, 75, 0
1, 34728, Note_on_c, 0, 69, 80
1, 34737, Note_on_c, 1, 66, 0
1, 34737, Note_on_c, 1, 54, 0
1, 34740, Note_on_c, 0, 69, 0
1, 34740, Note_on_c, 0, 70, 80
1, 34752, Note_on_c, 0, 70, 0
1, 34752, Note_on_c, 0, 72, 80
1, 34752, Note_on_c, 1, 63, 80
1, 34752, Note_on_c, 1, 51, 80
1, 34819, Note_on_c, 0, 72, 0
1, 34824, Note_on_c, 0, 66, 80
1, 34836, Note_on_c, 0, 66, 0
1, 34836, Note_on_c, 0, 67, 80
1, 34841, Note_on_c, 1, 63, 0
1, 34841, Note_on_c, 1, 51, 0
1, 34848, Note_on_c, 0, 67, 0
1, 34848, Note_on_c, 0, 69, 80
1, 34848, Note_on_c, 1, 60, 80
1, 34848, Note_on_c, 1, 48, 80
1, 34915, Note_on_c, 0, 69, 0
1, 34920, Note_on_c, 0, 60, 80
1, 34932, Note_on_c, 0, 60, 0
1, 34932, Note_on_c, 0, 62, 80
1, 34937, Note_on_c, 1, 60, 0
1, 34937, Note_on_c, 1, 48, 0
1, 34944, Note_on_c, 0, 62, 0
1, 34944, Note_on_c, 0, 63, 80
1, 34944, Note_on_c, 1, 57, 80
1, 34944, Note_on_c, 1, 45, 80
1, 35011, Note_on_c, 0, 63, 0
1, 35016, Note_on_c, 0, 57, 80
1, 35028, Note_on_c, 0, 57, 0
1, 35028, Note_on_c, 0, 58, 80
1, 35033, Note_on_c, 1, 57, 0
1, 35033, Note_on_c, 1, 45, 0
1, 35040, Note_on_c, 0, 58, 0
1, 35040, Note_on_c, 0, 60, 80
1, 35040, Note_on_c, 1, 54, 80
1, 35040, Note_on_c, 1, 42, 80
1, 35107, Note_on_c, 0, 60, 0
1, 35112, Note_on_c, 0, 54, 80
1, 35124, Note_on_c, 0, 54, 0
1, 35124, Note_on_c, 0, 55, 80
1, 35129, Note_on_c, 1, 54, 0
1, 35129, Note_on_c, 1, 42, 0
1, 35136, Note_on_c, 0, 55, 0
1, 35136, Note_on_c, 0, 57, 80
1, 35136, Note_on_c, 1, 50, 80
1, 35136, Note_on_c, 1, 38, 80
1, 35181, Note_on_c, 0, 57, 0
1, 35184, Note_on_c, 0, 75, 64
1, 35184, Note_on_c, 0, 72, 64
1, 35204, Note_on_c, 0, 75, 0
1, 35204, Note_on_c, 0, 72, 0
1, 35225, Note_on_c, 1, 50, 0
1, 35225, Note_on_c, 1, 38, 0
1, 35232, Note_on_c, 0, 75, 64
1, 35232, Note_on_c, 0, 72, 64
1, 35280, Note_on_c, 0, 75, 0
1, 35280, Note_on_c, 0, 72, 0
1, 35280, Note_on_c, 0, 74, 64
1, 35280, Note_on_c, 0, 70, 64
1, 35300, Note_on_c, 0, 74, 0
1, 35300, Note_on_c, 0, 70, 0
1, 35328, Note_on_c, 0, 74, 64
1, 35328, Note_on_c, 0, 70, 64
1, 35376, Note_on_c, 0, 74, 0
1, 35376, Note_on_c, 0, 70, 0
1, 35376, Note_on_c, 0, 72, 64
1, 35376, Note_on_c, 0, 69, 64
1, 35396, Note_on_c, 0, 72, 0
1, 35396, Note_on_c, 0, 69, 0
1, 35424, Note_on_c, 0, 70, 64
1, 35424, Note_on_c, 0, 67, 64
1, 35424, Note_on_c, 1, 55, 64
1, 35424, Note_on_c, 1, 43, 64
1, 35472, Note_on_c, 0, 67, 0
1, 35472, Note_on_c, 0, 74, 64
1, 35492, Note_on_c, 0, 74, 0
1, 35492, Note_on_c, 0, 70, 0
1, 35513, Note_on_c, 1, 55, 0
1, 35513, Note_on_c, 1, 43, 0
1, 35520, Note_on_c, 0, 74, 64
1, 35520, Note_on_c, 0, 70, 64
1, 35568, Note_on_c, 0, 74, 0
1, 35568, Note_on_c, 0, 70, 0
1, 35568, Note_on_c, 0, 72, 64
1, 35568, Note_on_c, 0, 69, 64
1, 35588, Note_on_c, 0, 72, 0
1, 35588, Note_on_c, 0, 69, 0
1, 35616, Note_on_c, 0, 72, 64
1, 35616, Note_on_c, 0, 69, 64
1, 35664, Note_on_c, 0, 72, 0
1, 35664, Note_on_c, 0, 69, 0
1, 35664, Note_on_c, 0, 70, 64
1, 35664, Note_on_c, 0, 67, 64
1, 35684, Note_on_c, 0, 70, 0
1, 35684, Note_on_c, 0, 67, 0
1, 35712, Note_on_c, 1, 68, 80
1, 35712, Note_on_c, 1, 56, 80
1, 35784, Note_on_c, 0, 74, 80
1, 35796, Note_on_c, 0, 74, 0
1, 35796, Note_on_c, 0, 76, 80
1, 35808, Note_on_c, 0, 76, 0
1, 35808, Note_on_c, 0, 77, 80
1, 35875, Note_on_c, 0, 77, 0
1, 35880, Note_on_c, 0, 71, 80
1, 35889, Note_on_c, 1, 68, 0
1, 35889, Note_on_c, 1, 56, 0
1, 35892, Note_on_c, 0, 71, 0
1, 35892, Note_on_c, 0, 72, 80
1, 35904, Note_on_c, 0, 72, 0
1, 35904, Note_on_c, 0, 74, 80
1, 35904, Note_on_c, 1, 65, 80
1, 35904, Note_on_c, 1, 53, 80
1, 35971, Note_on_c, 0, 74, 0
1, 35976, Note_on_c, 0, 68, 80
1, 35988, Note_on_c, 0, 68, 0
1, 35988, Note_on_c, 0, 69, 80
1, 35993, Note_on_c, 1, 65, 0
1, 35993, Note_on_c, 1, 53, 0
1, 36000, Note_on_c, 0, 69, 0
1, 36000, Note_on_c, 0, 71, 80
1, 36000, Note_on_c, 1, 62, 80
1, 36000, Note_on_c, 1, 50, 80
1, 36067, Note_on_c, 0, 71, 0
1, 36072, Note_on_c, 0, 62, 80
1, 36084, Note_on_c, 0, 62, 0
1, 36084, Note_on_c, 0, 64, 80
1, 36089, Note_on_c, 1, 62, 0
1, 36089, Note_on_c, 1, 50, 0
1, 36096, Note_on_c, 0, 64, 0
1, 36096, Note_on_c, 0, 65, 80
1, 36096, Note_on_c, 1, 59, 80
1, 36096, Note_on_c, 1, 47, 80
1, 36163, Note_on_c, 0, 65, 0
1, 36168, Note_on_c, 0, 59, 80
1, 36180, Note_on_c, 0, 59, 0
1, 36180, Note_on_c, 0, 60, 80
1, 36185, Note_on_c, 1, 59, 0
1, 36185, Note_on_c, 1, 47, 0
1, 36192, Note_on_c, 0, 60, 0
1, 36192, Note_on_c, 0, 62, 80
1, 36192, Note_on_c, 1, 56, 80
1, 36192, Note_on_c, 1, 44, 80
1, 36259, Note_on_c, 0, 62, 0
1, 36264, Note_on_c, 0, 56, 80
1, 36276, Note_on_c, 0, 56, 0
1, 36276, Note_on_c, 0, 57, 80
1, 36281, Note_on_c, 1, 56, 0
1, 36281, Note_on_c, 1, 44, 0
1, 36288, Note_on_c, 0, 57, 0
1, 36288, Note_on_c, 0, 59, 80
1, 36288, Note_on_c, 1, 52, 80
1, 36288, Note_on_c, 1, 40, 80
1, 36333, Note_on_c, 0, 59, 0
1, 36336, Note_on_c, 0, 77, 64
1, 36336, Note_on_c, 0, 74, 64
1, 36356, Note_on_c, 0, 77, 0
1, 36356, Note_on_c, 0, 74, 0
1, 36377, Note_on_c, 1, 52, 0
1, 36377, Note_on_c, 1, 40, 0
1, 36384, Note_on_c, 0, 77, 64
1, 36384, Note_on_c, 0, 74, 64
1, 36432, Note_on_c, 0, 77, 0
1, 36432, Note_on_c, 0, 74, 0
1, 36432, Note_on_c, 0, 76, 64
1, 36432, Note_on_c, 0, 72, 64
1, 36452, Note_on_c, 0, 76, 0
1, 36452, Note_on_c, 0, 72, 0
1, 36480, Note_on_c, 0, 76, 64
1, 36480, Note_on_c, 0, 72, 64
1, 36528, Note_on_c, 0, 76, 0
1, 36528, Note_on_c, 0, 72, 0
1, 36528, Note_on_c, 0, 74, 64
1, 36528, Note_on_c, 0, 71, 64
1, 36548, Note_on_c, 0, 74, 0
1, 36548, Note_on_c, 0, 71, 0
1, 36576, Note_on_c, 0, 73, 64
1, 36576, Note_on_c, 0, 69, 64
1, 36576, Note_on_c, 1, 57, 64
1, 36576, Note_on_c, 1, 45, 64
1, 36624, Note_on_c, 0, 69, 0
1, 36624, Note_on_c, 0, 76, 64
1, 36644, Note_on_c, 0, 76, 0
1, 36644, Note_on_c, 0, 73, 0
1, 36665, Note_on_c, 1, 57, 0
1, 36665, Note_on_c, 1, 45, 0
1, 36672, Note_on_c, 0, 76, 64
1, 36672, Note_on_c, 0, 73, 64
1, 36720, Note_on_c, 0, 76, 0
1, 36720, Note_on_c, 0, 73, 0
1, 36720, Note_on_c, 0, 74, 64
1, 36720, Note_on_c, 0, 71, 64
1, 36740, Note_on_c, 0, 74, 0
1, 36740, Note_on_c, 0, 71, 0
1, 36768, Note_on_c, 0, 74, 64
1, 36768, Note_on_c, 0, 71, 64
1, 36816, Note_on_c, 0, 74, 0
1, 36816, Note_on_c, 0, 71, 0
1, 36816, Note_on_c, 0, 73, 64
1, 36816, Note_on_c, 0, 69, 64
1, 36836, Note_on_c, 0, 73, 0
1, 36836, Note_on_c, 0, 69, 0
1, 36864, Note_on_c, 1, 49, 64
1, 36864, Note_on_c, 1, 37, 64
1, 36912, Note_on_c, 0, 82, 64
1, 36912, Note_on_c, 0, 79, 64
1, 36932, Note_on_c, 0, 82, 0
1, 36932, Note_on_c, 0, 79, 0
1, 36960, Note_on_c, 0, 82, 65
1, 36960, Note_on_c, 0, 79, 65
1, 37008, Note_on_c, 0, 82, 0
1, 37008, Note_on_c, 0, 79, 0
1, 37008, Note_on_c, 0, 81, 66
1, 37008, Note_on_c, 0, 77, 66
1, 37028, Note_on_c, 0, 81, 0
1, 37028, Note_on_c, 0, 77, 0
1, 37041, Note_on_c, 1, 49, 0
1, 37041, Note_on_c, 1, 37, 0
1, 37056, Note_on_c, 0, 81, 68
1, 37056, Note_on_c, 0, 77, 68
1, 37104, Note_on_c, 0, 81, 0
1, 37104, Note_on_c, 0, 77, 0
1, 37104, Note_on_c, 0, 79, 69
1, 37104, Note_on_c, 0, 76, 69
1, 37124, Note_on_c, 0, 79, 0
1, 37124, Note_on_c, 0, 76, 0
1, 37152, Note_on_c, 0, 77, 71
1, 37152, Note_on_c, 0, 74, 71
1, 37152, Note_on_c, 1, 50, 68
1, 37152, Note_on_c, 1, 38, 68
1, 37200, Note_on_c, 0, 74, 0
1, 37200, Note_on_c, 0, 81, 72
1, 37220, Note_on_c, 0, 81, 0
1, 37220, Note_on_c, 0, 77, 0
1, 37248, Note_on_c, 0, 81, 74
1, 37248, Note_on_c, 0, 77, 74
1, 37296, Note_on_c, 0, 81, 0
1, 37296, Note_on_c, 0, 77, 0
1, 37296, Note_on_c, 0, 79, 75
1, 37296, Note_on_c, 0, 76, 75
1, 37316, Note_on_c, 0, 79, 0
1, 37316, Note_on_c, 0, 76, 0
1, 37329, Note_on_c, 1, 50, 0
1, 37329, Note_on_c, 1, 38, 0
1, 37344, Note_on_c, 0, 79, 77
1, 37344, Note_on_c, 0, 76, 77
1, 37392, Note_on_c, 0, 79, 0
1, 37392, Note_on_c, 0, 76, 0
1, 37392, Note_on_c, 0, 77, 78
1, 37392, Note_on_c, 0, 74, 78
1, 37412, Note_on_c, 0, 77, 0
1, 37412, Note_on_c, 0, 74, 0
1, 37440, Note_on_c, 1, 56, 80
1, 37440, Note_on_c, 1, 44, 80
1, 37488, Note_on_c, 0, 77, 80
1, 37488, Note_on_c, 0, 74, 80
1, 37533, Note_on_c, 0, 77, 0
1, 37533, Note_on_c, 0, 74, 0
1, 37536, Note_on_c, 0, 86, 80
1, 37581, Note_on_c, 0, 86, 0
1, 37584, Note_on_c, 0, 77, 80
1, 37584, Note_on_c, 0, 74, 80
1, 37617, Note_on_c, 1, 56, 0
1, 37617, Note_on_c, 1, 44, 0
1, 37629, Note_on_c, 0, 77, 0
1, 37629, Note_on_c, 0, 74, 0
1, 37632, Note_on_c, 0, 86, 80
1, 37632, Note_on_c, 1, 56, 80
1, 37632, Note_on_c, 1, 44, 80
1, 37677, Note_on_c, 0, 86, 0
1, 37680, Note_on_c, 0, 77, 76
1, 37680, Note_on_c, 0, 74, 76
1, 37721, Note_on_c, 1, 56, 0
1, 37721, Note_on_c, 1, 44, 0
1, 37725, Note_on_c, 0, 77, 0
1, 37725, Note_on_c, 0, 74, 0
1, 37728, Note_on_c, 0, 79, 72
1, 37728, Note_on_c, 0, 76, 78
1, 37728, Note_on_c, 1, 57, 72
1, 37743, Note_on_c, 0, 79, 0
1, 37744, Note_on_c, 0, 77, 71
1, 37759, Note_on_c, 0, 77, 0
1, 37760, Note_on_c, 0, 79, 70
1, 37775, Note_on_c, 0, 79, 0
1, 37776, Note_on_c, 0, 77, 69
1, 37791, Note_on_c, 0, 77, 0
1, 37792, Note_on_c, 0, 76, 68
1, 37807, Note_on_c, 0, 76, 0
1, 37808, Note_on_c, 0, 77, 67
1, 37817, Note_on_c, 0, 76, 0
1, 37817, Note_on_c, 1, 57, 0
1, 37823, Note_on_c, 0, 77, 0
1, 37824, Note_on_c, 0, 76, 64
1, 37824, Note_on_c, 0, 73, 64
1, 37824, Note_on_c, 1, 45, 64
1, 37913, Note_on_c, 0, 76, 0
1, 37913, Note_on_c, 0, 73, 0
1, 37913, Note_on_c, 1, 45, 0
1, 38016, Note_on_c, 1, 50, 80
1, 38016, Note_on_c, 1, 38, 80
1, 38088, Note_on_c, 0, 62, 80
1, 38100, Note_on_c, 0, 62, 0
1, 38100, Note_on_c, 0, 64, 80
1, 38112, Note_on_c, 0, 64, 0
1, 38112, Note_on_c, 0, 65, 80
1, 38179, Note_on_c, 0, 65, 0
1, 38184, Note_on_c, 0, 65, 80
1, 38193, Note_on_c, 1, 50, 0
1, 38193, Note_on_c, 1, 38, 0
1, 38196, Note_on_c, 0, 65, 0
1, 38196, Note_on_c, 0, 67, 80
1, 38208, Note_on_c, 0, 67, 0
1, 38208, Note_on_c, 0, 69, 80
1, 38208, Note_on_c, 1, 48, 80
1, 38208, Note_on_c, 1, 36, 80
1, 38275, Note_on_c, 0, 69, 0
1, 38280, Note_on_c, 0, 71, 80
1, 38292, Note_on_c, 0, 71, 0
1, 38292, Note_on_c, 0, 73, 80
1, 38297, Note_on_c, 1, 48, 0
1, 38297, Note_on_c, 1, 36, 0
1, 38304, Note_on_c, 0, 73, 0
1, 38304, Note_on_c, 0, 74, 80
1, 38304, Note_on_c, 1, 46, 80
1, 38304, Note_on_c, 1, 34, 80
1, 38371, Note_on_c, 0, 74, 0
1, 38376, Note_on_c, 0, 74, 80
1, 38388, Note_on_c, 0, 74, 0
1, 38388, Note_on_c, 0, 76, 80
1, 38393, Note_on_c, 1, 46, 0
1, 38393, Note_on_c, 1, 34, 0
1, 38400, Note_on_c, 0, 76, 0
1, 38400, Note_on_c, 0, 77, 80
1, 38400, Note_on_c, 1, 41, 80
1, 38400, Note_on_c, 1, 29, 80
1, 38439, Note_on_c, 0, 77, 0
1, 38489, Note_on_c, 1, 41, 0
1, 38489, Note_on_c, 1, 29, 0
1, 38592, Note_on_c, 0, 76, 64
1, 38592, Note_on_c, 1, 43, 64
1, 38592, Note_on_c, 1, 31, 64
1, 38637, Note_on_c, 0, 76, 0
1, 38640, Note_on_c, 0, 82, 64
1, 38640, Note_on_c, 0, 79, 64
1, 38660, Note_on_c, 0, 82, 0
1, 38660, Note_on_c, 0, 79, 0
1, 38688, Note_on_c, 0, 82, 64
1, 38688, Note_on_c, 0, 79, 64
1, 38736, Note_on_c, 0, 82, 0
1, 38736, Note_on_c, 0, 79, 0
1, 38736, Note_on_c, 0, 81, 64
1, 38736, Note_on_c, 0, 77, 64
1, 38756, Note_on_c, 0, 81, 0
1, 38756, Note_on_c, 0, 77, 0
1, 38769, Note_on_c, 1, 43, 0
1, 38769, Note_on_c, 1, 31, 0
1, 38784, Note_on_c, 0, 81, 64
1, 38784, Note_on_c, 0, 77, 64
1, 38784, Note_on_c, 1, 45, 64
1, 38784, Note_on_c, 1, 33, 64
1, 38832, Note_on_c, 0, 81, 0
1, 38832, Note_on_c, 0, 77, 0
1, 38832, Note_on_c, 0, 79, 64
1, 38832, Note_on_c, 0, 76, 64
1, 38852, Note_on_c, 0, 79, 0
1, 38852, Note_on_c, 0, 76, 0
1, 38873, Note_on_c, 1, 45, 0
1, 38873, Note_on_c, 1, 33, 0
1, 38880, Note_on_c, 0, 79, 64
1, 38880, Note_on_c, 0, 76, 64
1, 38880, Note_on_c, 1, 50, 64
1, 38880, Note_on_c, 1, 38, 64
1, 38928, Note_on_c, 0, 79, 0
1, 38928, Note_on_c, 0, 76, 0
1, 38928, Note_on_c, 0, 77, 64
1, 38928, Note_on_c, 0, 74, 64
1, 38948, Note_on_c, 0, 77, 0
1, 38948, Note_on_c, 0, 74, 0
1, 38976, Note_on_c, 0, 81, 64
1, 38976, Note_on_c, 0, 77, 64
1, 39057, Note_on_c, 1, 50, 0
1, 39057, Note_on_c, 1, 38, 0
1, 39065, Note_on_c, 0, 81, 0
1, 39065, Note_on_c, 0, 77, 0
1, 39168, Note_on_c, 1, 50, 80
1, 39168, Note_on_c, 1, 38, 80
1, 39240, Note_on_c, 0, 62, 80
1, 39252, Note_on_c, 0, 62, 0
1, 39252, Note_on_c, 0, 64, 80
1, 39264, Note_on_c, 0, 64, 0
1, 39264, Note_on_c, 0, 65, 80
1, 39331, Note_on_c, 0, 65, 0
1, 39336, Note_on_c, 0, 65, 80
1, 39345, Note_on_c, 1, 50, 0
1, 39345, Note_on_c, 1, 38, 0
1, 39348, Note_on_c, 0, 65, 0
1, 39348, Note_on_c, 0, 67, 80
1, 39360, Note_on_c, 0, 67, 0
1, 39360, Note_on_c, 0, 69, 80
1, 39360, Note_on_c, 1, 48, 80
1, 39360, Note_on_c, 1, 36, 80
1, 39427, Note_on_c, 0, 69, 0
1, 39432, Note_on_c, 0, 71, 80
1, 39444, Note_on_c, 0, 71, 0
1, 39444, Note_on_c, 0, 73, 80
1, 39449, Note_on_c, 1, 48, 0
1, 39449, Note_on_c, 1, 36, 0
1, 39456, Note_on_c, 0, 73, 0
1, 39456, Note_on_c, 0, 74, 80
1, 39456, Note_on_c, 1, 46, 80
1, 39456, Note_on_c, 1, 34, 80
1, 39523, Note_on_c, 0, 74, 0
1, 39528, Note_on_c, 0, 74, 80
1, 39540, Note_on_c, 0, 74, 0
1, 39540, Note_on_c, 0, 76, 80
1, 39545, Note_on_c, 1, 46, 0
1, 39545, Note_on_c, 1, 34, 0
1, 39552, Note_on_c, 0, 76, 0
1, 39552, Note_on_c, 0, 77, 80
1, 39552, Note_on_c, 1, 45, 80
1, 39552, Note_on_c, 1, 33, 80
1, 39619, Note_on_c, 0, 77, 0
1, 39624, Note_on_c, 0, 77, 80
1, 39636, Note_on_c, 0, 77, 0
1, 39636, Note_on_c, 0, 79, 80
1, 39641, Note_on_c, 1, 45, 0
1, 39641, Note_on_c, 1, 33, 0
1, 39648, Note_on_c, 0, 79, 0
1, 39648, Note_on_c, 0, 81, 80
1, 39648, Note_on_c, 1, 43, 80
1, 39648, Note_on_c, 1, 31, 80
1, 39715, Note_on_c, 0, 81, 0
1, 39720, Note_on_c, 0, 83, 80
1, 39732, Note_on_c, 0, 83, 0
1, 39732, Note_on_c, 0, 85, 80
1, 39737, Note_on_c, 1, 43, 0
1, 39737, Note_on_c, 1, 31, 0
1, 39744, Note_on_c, 0, 85, 0
1, 39744, Note_on_c, 0, 86, 80
1, 39744, Note_on_c, 1, 41, 80
1, 39744, Note_on_c, 1, 29, 80
1, 39789, Note_on_c, 0, 86, 0
1, 39792, Note_on_c, 0, 81, 80
1, 39833, Note_on_c, 1, 41, 0
1, 39833, Note_on_c, 1, 29, 0
1, 39837, Note_on_c, 0, 81, 0
1, 39840, Note_on_c, 0, 79, 78
1, 39852, Note_on_c, 0, 79, 0
1, 39852, Note_on_c, 0, 81, 78
1, 39864, Note_on_c, 0, 81, 0
1, 39864, Note_on_c, 0, 79, 78
1, 39885, Note_on_c, 0, 79, 0
1, 39888, Note_on_c, 0, 77, 76
1, 39933, Note_on_c, 0, 77, 0
1, 39936, Note_on_c, 0, 76, 74
1, 39948, Note_on_c, 0, 76, 0
1, 39948, Note_on_c, 0, 77, 74
1, 39960, Note_on_c, 0, 77, 0
1, 39960, Note_on_c, 0, 76, 74
1, 39981, Note_on_c, 0, 76, 0
1, 39984, Note_on_c, 0, 74, 72
1, 40029, Note_on_c, 0, 74, 0
1, 40032, Note_on_c, 1, 69, 70
1, 40032, Note_on_c, 1, 67, 70
1, 40080, Note_on_c, 0, 76, 70
1, 40125, Note_on_c, 0, 76, 0
1, 40128, Note_on_c, 0, 81, 70
1, 40173, Note_on_c, 0, 81, 0
1, 40176, Note_on_c, 0, 73, 70
1, 40209, Note_on_c, 1, 69, 0
1, 40209, Note_on_c, 1, 67, 0
1, 40221, Note_on_c, 0, 73, 0
1, 40224, Note_on_c, 0, 74, 70
1, 40224, Note_on_c, 1, 69, 70
1, 40224, Note_on_c, 1, 65, 70
1, 40242, Note_on_c, 0, 74, 0
1, 40242, Note_on_c, 0, 73, 70
1, 40260, Note_on_c, 0, 73, 0
1, 40260, Note_on_c, 0, 74, 70
1, 40313, Note_on_c, 0, 74, 0
1, 40313, Note_on_c, 1, 69, 0
1, 40313, Note_on_c, 1, 65, 0
1, 40320, Note_on_c, 1, 69, 64
1, 40320, Note_on_c, 1, 67, 64
1, 40368, Note_on_c, 0, 76, 64
1, 40413, Note_on_c, 0, 76, 0
1, 40416, Note_on_c, 0, 81, 64
1, 40461, Note_on_c, 0, 81, 0
1, 40464, Note_on_c, 0, 73, 64
1, 40497, Note_on_c, 1, 69, 0
1, 40497, Note_on_c, 1, 67, 0
1, 40509, Note_on_c, 0, 73, 0
1, 40512, Note_on_c, 0, 74, 64
1, 40512, Note_on_c, 1, 69, 64
1, 40512, Note_on_c, 1, 65, 64
1, 40530, Note_on_c, 0, 74, 0
1, 40530, Note_on_c, 0, 73, 64
1, 40548, Note_on_c, 0, 73, 0
1, 40548, Note_on_c, 0, 74, 64
1, 40601, Note_on_c, 0, 74, 0
1, 40601, Note_on_c, 1, 69, 0
1, 40601, Note_on_c, 1, 65, 0
1, 40608, Note_on_c, 1, 57, 64
1, 40608, Note_on_c, 1, 45, 64
1, 40656, Note_on_c, 0, 67, 64
1, 40656, Note_on_c, 0, 64, 64
1, 40676, Note_on_c, 0, 67, 0
1, 40676, Note_on_c, 0, 64, 0
1, 40697, Note_on_c, 1, 57, 0
1, 40697, Note_on_c, 1, 45, 0
1, 40704, Note_on_c, 0, 67, 64
1, 40704, Note_on_c, 0, 64, 64
1, 40752, Note_on_c, 0, 67, 0
1, 40752, Note_on_c, 0, 64, 0
1, 40752, Note_on_c, 0, 65, 65
1, 40752, Note_on_c, 0, 62, 65
1, 40772, Note_on_c, 0, 65, 0
1, 40772, Note_on_c, 0, 62, 0
1, 40800, Note_on_c, 0, 65, 66
1, 40800, Note_on_c, 0, 62, 66
1, 40848, Note_on_c, 0, 65, 0
1, 40848, Note_on_c, 0, 62, 0
1, 40848, Note_on_c, 0, 64, 67
1, 40848, Note_on_c, 0, 61, 67
1, 40868, Note_on_c, 0, 64, 0
1, 40868, Note_on_c, 0, 61, 0
1, 40896, Note_on_c, 1, 57, 70
1, 40896, Note_on_c, 1, 45, 70
1, 40944, Note_on_c, 0, 69, 69
1, 40944, Note_on_c, 0, 65, 69
1, 40964, Note_on_c, 0, 69, 0
1, 40964, Note_on_c, 0, 65, 0
1, 40985, Note_on_c, 1, 57, 0
1, 40985, Note_on_c, 1, 45, 0
1, 40992, Note_on_c, 0, 69, 70
1, 40992, Note_on_c, 0, 65, 70
1, 41040, Note_on_c, 0, 69, 0
1, 41040, Note_on_c, 0, 65, 0
1, 41040, Note_on_c, 0, 67, 71
1, 41040, Note_on_c, 0, 64, 71
1, 41060, Note_on_c, 0, 67, 0
1, 41060, Note_on_c, 0, 64, 0
1, 41088, Note_on_c, 0, 67, 72
1, 41088, Note_on_c, 0, 64, 72
1, 41136, Note_on_c, 0, 67, 0
1, 41136, Note_on_c, 0, 64, 0
1, 41136, Note_on_c, 0, 65, 73
1, 41136, Note_on_c, 0, 62, 73
1, 41156, Note_on_c, 0, 65, 0
1, 41156, Note_on_c, 0, 62, 0
1, 41184, Note_on_c, 1, 57, 75
1, 41184, Note_on_c, 1, 45, 75
1, 41232, Note_on_c, 0, 70, 75
1, 41232, Note_on_c, 0, 67, 75
1, 41252, Note_on_c, 0, 70, 0
1, 41252, Note_on_c, 0, 67, 0
1, 41273, Note_on_c, 1, 57, 0
1, 41273, Note_on_c, 1, 45, 0
1, 41280, Note_on_c, 0, 70, 76
1, 41280, Note_on_c, 0, 67, 76
1, 41328, Note_on_c, 0, 70, 0
1, 41328, Note_on_c, 0, 67, 0
1, 41328, Note_on_c, 0, 69, 77
1, 41328, Note_on_c, 0, 65, 77
1, 41348, Note_on_c, 0, 69, 0
1, 41348, Note_on_c, 0, 65, 0
1, 41376, Note_on_c, 0, 69, 78
1, 41376, Note_on_c, 0, 65, 78
1, 41424, Note_on_c, 0, 69, 0
1, 41424, Note_on_c, 0, 65, 0
1, 41424, Note_on_c, 0, 67, 79
1, 41424, Note_on_c, 0, 64, 79
1, 41444, Note_on_c, 0, 67, 0
1, 41444, Note_on_c, 0, 64, 0
1, 41472, Note_on_c, 1, 50, 80
1, 41472, Note_on_c, 1, 38, 80
1, 41544, Note_on_c, 0, 74, 80
1, 41544, Note_on_c, 0, 65, 80
1, 41556, Note_on_c, 0, 74, 0
1, 41556, Note_on_c, 0, 76, 80
1, 41568, Note_on_c, 0, 76, 0
1, 41568, Note_on_c, 0, 77, 80
1, 41613, Note_on_c, 0, 77, 0
1, 41613, Note_on_c, 0, 65, 0
1, 41616, Note_on_c, 0, 74, 80
1, 41616, Note_on_c, 0, 65, 80
1, 41649, Note_on_c, 1, 50, 0
1, 41649, Note_on_c, 1, 38, 0
1, 41661, Note_on_c, 0, 74, 0
1, 41661, Note_on_c, 0, 65, 0
1, 41664, Note_on_c, 1, 48, 80
1, 41664, Note_on_c, 1, 36, 80
1, 41712, Note_on_c, 0, 74, 80
1, 41712, Note_on_c, 0, 65, 80
1, 41753, Note_on_c, 1, 48, 0
1, 41753, Note_on_c, 1, 36, 0
1, 41757, Note_on_c, 0, 74, 0
1, 41757, Note_on_c, 0, 65, 0
1, 41760, Note_on_c, 1, 46, 80
1, 41760, Note_on_c, 1, 34, 80
1, 41832, Note_on_c, 0, 74, 80
1, 41832, Note_on_c, 0, 65, 80
1, 41844, Note_on_c, 0, 74, 0
1, 41844, Note_on_c, 0, 76, 80
1, 41856, Note_on_c, 0, 76, 0
1, 41856, Note_on_c, 0, 77, 80
1, 41901, Note_on_c, 0, 77, 0
1, 41901, Note_on_c, 0, 65, 0
1, 41904, Note_on_c, 0, 74, 80
1, 41904, Note_on_c, 0, 65, 80
1, 41937, Note_on_c, 1, 46, 0
1, 41937, Note_on_c, 1, 34, 0
1, 41949, Note_on_c, 0, 74, 0
1, 41949, Note_on_c, 0, 65, 0
1, 41952, Note_on_c, 1, 41, 80
1, 41952, Note_on_c, 1, 29, 80
1, 42000, Note_on_c, 0, 74, 80
1, 42000, Note_on_c, 0, 65, 80
1, 42041, Note_on_c, 1, 41, 0
1, 42041, Note_on_c, 1, 29, 0
1, 42045, Note_on_c, 0, 74, 0
1, 42045, Note_on_c, 0, 65, 0
1, 42048, Note_on_c, 1, 43, 80
1, 42048, Note_on_c, 1, 31, 80
1, 42096, Note_on_c, 0, 82, 80
1, 42096, Note_on_c, 0, 79, 80
1, 42141, Note_on_c, 0, 82, 0
1, 42141, Note_on_c, 0, 79, 0
1, 42144, Note_on_c, 0, 81, 80
1, 42144, Note_on_c, 0, 77, 80
1, 42189, Note_on_c, 0, 81, 0
1, 42189, Note_on_c, 0, 77, 0
1, 42192, Note_on_c, 0, 79, 80
1, 42192, Note_on_c, 0, 76, 80
1, 42225, Note_on_c, 1, 43, 0
1, 42225, Note_on_c, 1, 31, 0
1, 42237, Note_on_c, 0, 79, 0
1, 42237, Note_on_c, 0, 76, 0
1, 42240, Note_on_c, 0, 77, 80
1, 42240, Note_on_c, 0, 74, 80
1, 42240, Note_on_c, 1, 45, 80
1, 42240, Note_on_c, 1, 33, 80
1, 42285, Note_on_c, 0, 77, 0
1, 42285, Note_on_c, 0, 74, 0
1, 42288, Note_on_c, 0, 76, 80
1, 42288, Note_on_c, 0, 73, 80
1, 42329, Note_on_c, 1, 45, 0
1, 42329, Note_on_c, 1, 33, 0
1, 42333, Note_on_c, 0, 76, 0
1, 42333, Note_on_c, 0, 73, 0
1, 42336, Note_on_c, 0, 76, 80
1, 42336, Note_on_c, 1, 50, 80
1, 42350, Note_on_c, 0, 76, 0
1, 42351, Note_on_c, 0, 74, 80
1, 42365, Note_on_c, 0, 74, 0
1, 42366, Note_on_c, 0, 76, 80
1, 42380, Note_on_c, 0, 76, 0
1, 42381, Note_on_c, 0, 74, 80
1, 42395, Note_on_c, 0, 74, 0
1, 42396, Note_on_c, 0, 76, 80
1, 42410, Note_on_c, 0, 76, 0
1, 42411, Note_on_c, 0, 74, 80
1, 42425, Note_on_c, 0, 74, 0
1, 42425, Note_on_c, 1, 50, 0
1, 42426, Note_on_c, 0, 76, 80
1, 42432, Note_on_c, 1, 45, 80
1, 42440, Note_on_c, 0, 76, 0
1, 42441, Note_on_c, 0, 74, 80
1, 42455, Note_on_c, 0, 74, 0
1, 42456, Note_on_c, 0, 76, 80
1, 42470, Note_on_c, 0, 76, 0
1, 42471, Note_on_c, 0, 74, 80
1, 42485, Note_on_c, 0, 74, 0
1, 42486, Note_on_c, 0, 76, 80
1, 42499, Note_on_c, 0, 76, 0
1, 42500, Note_on_c, 0, 74, 80
1, 42521, Note_on_c, 1, 45, 0
1, 42527, Note_on_c, 0, 74, 0
1, 42528, Note_on_c, 1, 38, 80
1, 42617, Note_on_c, 1, 38, 0
1, 42624, Note_on_c, 1, 66, 80
1, 42624, Note_on_c, 1, 54, 80
1, 42696, Note_on_c, 0, 72, 80
1, 42708, Note_on_c, 0, 72, 0
1, 42708, Note_on_c, 0, 74, 80
1, 42720, Note_on_c, 0, 74, 0
1, 42720, Note_on_c, 0, 75, 80
1, 42787, Note_on_c, 0, 75, 0
1, 42792, Note_on_c, 0, 69, 80
1, 42801, Note_on_c, 1, 66, 0
1, 42801, Note_on_c, 1, 54, 0
1, 42804, Note_on_c, 0, 69, 0
1, 42804, Note_on_c, 0, 70, 80
1, 42816, Note_on_c, 0, 70, 0
1, 42816, Note_on_c, 0, 72, 80
1, 42816, Note_on_c, 1, 63, 80
1, 42816, Note_on_c, 1, 51, 80
1, 42883, Note_on_c, 0, 72, 0
1, 42888, Note_on_c, 0, 66, 80
1, 42900, Note_on_c, 0, 66, 0
1, 42900, Note_on_c, 0, 67, 80
1, 42905, Note_on_c, 1, 63, 0
1, 42905, Note_on_c, 1, 51, 0
1, 42912, Note_on_c, 0, 67, 0
1, 42912, Note_on_c, 0, 69, 80
1, 42912, Note_on_c, 1, 60, 80
1, 42912, Note_on_c, 1, 48, 80
1, 42979, Note_on_c, 0, 69, 0
1, 42984, Note_on_c, 0, 60, 80
1, 42996, Note_on_c, 0, 60, 0
1, 42996, Note_on_c, 0, 62, 80
1, 43001, Note_on_c, 1, 60, 0
1, 43001, Note_on_c, 1, 48, 0
1, 43008, Note_on_c, 0, 62, 0
1, 43008, Note_on_c, 0, 63, 80
1, 43008, Note_on_c, 1, 57, 80
1, 43008, Note_on_c, 1, 45, 80
1, 43075, Note_on_c, 0, 63, 0
1, 43080, Note_on_c, 0, 57, 80
1, 43092, Note_on_c, 0, 57, 0
1, 43092, Note_on_c, 0, 58, 80
1, 43097, Note_on_c, 1, 57, 0
1, 43097, Note_on_c, 1, 45, 0
1, 43104, Note_on_c, 0, 58, 0
1, 43104, Note_on_c, 0, 60, 80
1, 43104, Note_on_c, 1, 54, 80
1, 43104, Note_on_c, 1, 42, 80
1, 43171, Note_on_c, 0, 60, 0
1, 43176, Note_on_c, 0, 54, 80
1, 43188, Note_on_c, 0, 54, 0
1, 43188, Note_on_c, 0, 55, 80
1, 43193, Note_on_c, 1, 54, 0
1, 43193, Note_on_c, 1, 42, 0
1, 43200, Note_on_c, 0, 55, 0
1, 43200, Note_on_c, 0, 57, 80
1, 43200, Note_on_c, 1, 50, 80
1, 43200, Note_on_c, 1, 38, 80
1, 43245, Note_on_c, 0, 57, 0
1, 43248, Note_on_c, 0, 75, 64
1, 43248, Note_on_c, 0, 72, 64
1, 43268, Note_on_c, 0, 75, 0
1, 43268, Note_on_c, 0, 72, 0
1, 43289, Note_on_c, 1, 50, 0
1, 43289, Note_on_c, 1, 38, 0
1, 43296, Note_on_c, 0, 75, 64
1, 43296, Note_on_c, 0, 72, 64
1, 43344, Note_on_c, 0, 75, 0
1, 43344, Note_on_c, 0, 72, 0
1, 43344, Note_on_c, 0, 74, 64
1, 43344, Note_on_c, 0, 70, 64
1, 43364, Note_on_c, 0, 74, 0
1, 43364, Note_on_c, 0, 70, 0
1, 43392, Note_on_c, 0, 74, 64
1, 43392, Note_on_c, 0, 70, 64
1, 43440, Note_on_c, 0, 74, 0
1, 43440, Note_on_c, 0, 70, 0
1, 43440, Note_on_c, 0, 72, 64
1, 43440, Note_on_c, 0, 69, 64
1, 43460, Note_on_c, 0, 72, 0
1, 43460, Note_on_c, 0, 69, 0
1, 43488, Note_on_c, 0, 70, 64
1, 43488, Note_on_c, 0, 67, 64
1, 43488, Note_on_c, 1, 55, 64
1, 43488, Note_on_c, 1, 43, 64
1, 43536, Note_on_c, 0, 67, 0
1, 43536, Note_on_c, 0, 74, 64
1, 43556, Note_on_c, 0, 74, 0
1, 43556, Note_on_c, 0, 70, 0
1, 43577, Note_on_c, 1, 55, 0
1, 43577, Note_on_c, 1, 43, 0
1, 43584, Note_on_c, 0, 74, 64
1, 43584, Note_on_c, 0, 70, 64
1, 43632, Note_on_c, 0, 74, 0
1, 43632, Note_on_c, 0, 70, 0
1, 43632, Note_on_c, 0, 72, 64
1, 43632, Note_on_c, 0, 69, 64
1, 43652, Note_on_c, 0, 72, 0
1, 43652, Note_on_c, 0, 69, 0
1, 43680, Note_on_c, 0, 72, 64
1, 43680, Note_on_c, 0, 69, 64
1, 43728, Note_on_c, 0, 72, 0
1, 43728, Note_on_c, 0, 69, 0
1, 43728, Note_on_c, 0, 70, 64
1, 43728, Note_on_c, 0, 67, 64
1, 43748, Note_on_c, 0, 70, 0
1, 43748, Note_on_c, 0, 67, 0
1, 43776, Note_on_c, 1, 68, 80
1, 43776, Note_on_c, 1, 56, 80
1, 43848, Note_on_c, 0, 74, 80
1, 43860, Note_on_c, 0, 74, 0
1, 43860, Note_on_c, 0, 76, 80
1, 43872, Note_on_c, 0, 76, 0
1, 43872, Note_on_c, 0, 77, 80
1, 43939, Note_on_c, 0, 77, 0
1, 43944, Note_on_c, 0, 71, 80
1, 43953, Note_on_c, 1, 68, 0
1, 43953, Note_on_c, 1, 56, 0
1, 43956, Note_on_c, 0, 71, 0
1, 43956, Note_on_c, 0, 72, 80
1, 43968, Note_on_c, 0, 72, 0
1, 43968, Note_on_c, 0, 74, 80
1, 43968, Note_on_c, 1, 65, 80
1, 43968, Note_on_c, 1, 53, 80
1, 44035, Note_on_c, 0, 74, 0
1, 44040, Note_on_c, 0, 68, 80
1, 44052, Note_on_c, 0, 68, 0
1, 44052, Note_on_c, 0, 69, 80
1, 44057, Note_on_c, 1, 65, 0
1, 44057, Note_on_c, 1, 53, 0
1, 44064, Note_on_c, 0, 69, 0
1, 44064, Note_on_c, 0, 71, 80
1, 44064, Note_on_c, 1, 62, 80
1, 44064, Note_on_c, 1, 50, 80
1, 44131, Note_on_c, 0, 71, 0
1, 44136, Note_on_c, 0, 62, 80
1, 44148, Note_on_c, 0, 62, 0
1, 44148, Note_on_c, 0, 64, 80
1, 44153, Note_on_c, 1, 62, 0
1, 44153, Note_on_c, 1, 50, 0
1, 44160, Note_on_c, 0, 64, 0
1, 44160, Note_on_c, 0, 65, 80
1, 44160, Note_on_c, 1, 59, 80
1, 44160, Note_on_c, 1, 47, 80
1, 44227, Note_on_c, 0, 65, 0
1, 44232, Note_on_c, 0, 59, 80
1, 44244, Note_on_c, 0, 59, 0
1, 44244, Note_on_c, 0, 60, 80
1, 44249, Note_on_c, 1, 59, 0
1, 44249, Note_on_c, 1, 47, 0
1, 44256, Note_on_c, 0, 60, 0
1, 44256, Note_on_c, 0, 62, 80
1, 44256, Note_on_c, 1, 56, 80
1, 44256, Note_on_c, 1, 44, 80
1, 44323, Note_on_c, 0, 62, 0
1, 44328, Note_on_c, 0, 56, 80
1, 44340, Note_on_c, 0, 56, 0
1, 44340, Note_on_c, 0, 57, 80
1, 44345, Note_on_c, 1, 56, 0
1, 44345, Note_on_c, 1, 44, 0
1, 44352, Note_on_c, 0, 57, 0
1, 44352, Note_on_c, 0, 59, 80
1, 44352, Note_on_c, 1, 52, 80
1, 44352, Note_on_c, 1, 40, 80
1, 44397, Note_on_c, 0, 59, 0
1, 44400, Note_on_c, 0, 77, 64
1, 44400, Note_on_c, 0, 74, 64
1, 44420, Note_on_c, 0, 77, 0
1, 44420, Note_on_c, 0, 74, 0
1, 44441, Note_on_c, 1, 52, 0
1, 44441, Note_on_c, 1, 40, 0
1, 44448, Note_on_c, 0, 77, 64
1, 44448, Note_on_c, 0, 74, 64
1, 44496, Note_on_c, 0, 77, 0
1, 44496, Note_on_c, 0, 74, 0
1, 44496, Note_on_c, 0, 76, 64
1, 44496, Note_on_c, 0, 72, 64
1, 44516, Note_on_c, 0, 76, 0
1, 44516, Note_on_c, 0, 72, 0
1, 44544, Note_on_c, 0, 76, 64
1, 44544, Note_on_c, 0, 72, 64
1, 44592, Note_on_c, 0, 76, 0
1, 44592, Note_on_c, 0, 72, 0
1, 44592, Note_on_c, 0, 74, 64
1, 44592, Note_on_c, 0, 71, 64
1, 44612, Note_on_c, 0, 74, 0
1, 44612, Note_on_c, 0, 71, 0
1, 44640, Note_on_c, 0, 73, 64
1, 44640, Note_on_c, 0, 69, 64
1, 44640, Note_on_c, 1, 57, 64
1, 44640, Note_on_c, 1, 45, 64
1, 44688, Note_on_c, 0, 69, 0
1, 44688, Note_on_c, 0, 76, 64
1, 44708, Note_on_c, 0, 76, 0
1, 44708, Note_on_c, 0, 73, 0
1, 44729, Note_on_c, 1, 57, 0
1, 44729, Note_on_c, 1, 45, 0
1, 44736, Note_on_c, 0, 76, 64
1, 44736, Note_on_c, 0, 73, 64
1, 44784, Note_on_c, 0, 76, 0
1, 44784, Note_on_c, 0, 73, 0
1, 44784, Note_on_c, 0, 74, 64
1, 44784, Note_on_c, 0, 71, 64
1, 44804, Note_on_c, 0, 74, 0
1, 44804, Note_on_c, 0, 71, 0
1, 44832, Note_on_c, 0, 74, 64
1, 44832, Note_on_c, 0, 71, 64
1, 44880, Note_on_c, 0, 74, 0
1, 44880, Note_on_c, 0, 71, 0
1, 44880, Note_on_c, 0, 73, 64
1, 44880, Note_on_c, 0, 69, 64
1, 44900, Note_on_c, 0, 73, 0
1, 44900, Note_on_c, 0, 69, 0
1, 44928, Note_on_c, 1, 49, 64
1, 44928, Note_on_c, 1, 37, 64
1, 44976, Note_on_c, 0, 82, 64
1, 44976, Note_on_c, 0, 79, 64
1, 44996, Note_on_c, 0, 82, 0
1, 44996, Note_on_c, 0, 79, 0
1, 45024, Note_on_c, 0, 82, 65
1, 45024, Note_on_c, 0, 79, 65
1, 45072, Note_on_c, 0, 82, 0
1, 45072, Note_on_c, 0, 79, 0
1, 45072, Note_on_c, 0, 81, 66
1, 45072, Note_on_c, 0, 77, 66
1, 45092, Note_on_c, 0, 81, 0
1, 45092, Note_on_c, 0, 77, 0
1, 45105, Note_on_c, 1, 49, 0
1, 45105, Note_on_c, 1, 37, 0
1, 45120, Note_on_c, 0, 81, 68
1, 45120, Note_on_c, 0, 77, 68
1, 45168, Note_on_c, 0, 81, 0
1, 45168, Note_on_c, 0, 77, 0
1, 45168, Note_on_c, 0, 79, 69
1, 45168, Note_on_c, 0, 76, 69
1, 45188, Note_on_c, 0, 79, 0
1, 45188, Note_on_c, 0, 76, 0
1, 45216, Note_on_c, 0, 77, 71
1, 45216, Note_on_c, 0, 74, 71
1, 45216, Note_on_c, 1, 50, 68
1, 45216, Note_on_c, 1, 38, 68
1, 45264, Note_on_c, 0, 74, 0
1, 45264, Note_on_c, 0, 81, 72
1, 45284, Note_on_c, 0, 81, 0
1, 45284, Note_on_c, 0, 77, 0
1, 45312, Note_on_c, 0, 81, 74
1, 45312, Note_on_c, 0, 77, 74
1, 45360, Note_on_c, 0, 81, 0
1, 45360, Note_on_c, 0, 77, 0
1, 45360, Note_on_c, 0, 79, 75
1, 45360, Note_on_c, 0, 76, 75
1, 45380, Note_on_c, 0, 79, 0
1, 45380, Note_on_c, 0, 76, 0
1, 45393, Note_on_c, 1, 50, 0
1, 45393, Note_on_c, 1, 38, 0
1, 45408, Note_on_c, 0, 79, 77
1, 45408, Note_on_c, 0, 76, 77
1, 45456, Note_on_c, 0, 79, 0
1, 45456, Note_on_c, 0, 76, 0
1, 45456, Note_on_c, 0, 77, 78
1, 45456, Note_on_c, 0, 74, 78
1, 45476, Note_on_c, 0, 77, 0
1, 45476, Note_on_c, 0, 74, 0
1, 45504, Note_on_c, 1, 56, 80
1, 45504, Note_on_c, 1, 44, 80
1, 45552, Note_on_c, 0, 77, 80
1, 45552, Note_on_c, 0, 74, 80
1, 45597, Note_on_c, 0, 77, 0
1, 45597, Note_on_c, 0, 74, 0
1, 45600, Note_on_c, 0, 86, 80
1, 45645, Note_on_c, 0, 86, 0
1, 45648, Note_on_c, 0, 77, 80
1, 45648, Note_on_c, 0, 74, 80
1, 45681, Note_on_c, 1, 56, 0
1, 45681, Note_on_c, 1, 44, 0
1, 45693, Note_on_c, 0, 77, 0
1, 45693, Note_on_c, 0, 74, 0
1, 45696, Note_on_c, 0, 86, 80
1, 45696, Note_on_c, 1, 56, 80
1, 45696, Note_on_c, 1, 44, 80
1, 45741, Note_on_c, 0, 86, 0
1, 45744, Note_on_c, 0, 77, 76
1, 45744, Note_on_c, 0, 74, 76
1, 45785, Note_on_c, 1, 56, 0
1, 45785, Note_on_c, 1, 44, 0
1, 45789, Note_on_c, 0, 77, 0
1, 45789, Note_on_c, 0, 74, 0
1, 45792, Note_on_c, 0, 79, 72
1, 45792, Note_on_c, 0, 76, 78
1, 45792, Note_on_c, 1, 57, 72
1, 45807, Note_on_c, 0, 79, 0
1, 45808, Note_on_c, 0, 77, 71
1, 45823, Note_on_c, 0, 77, 0
1, 45824, Note_on_c, 0, 79, 70
1, 45839, Note_on_c, 0, 79, 0
1, 45840, Note_on_c, 0, 77, 69
1, 45855, Note_on_c, 0, 77, 0
1, 45856, Note_on_c, 0, 76, 68
1, 45871, Note_on_c, 0, 76, 0
1, 45872, Note_on_c, 0, 77, 67
1, 45881, Note_on_c, 0, 76, 0
1, 45881, Note_on_c, 1, 57, 0
1, 45887, Note_on_c, 0, 77, 0
1, 45888, Note_on_c, 0, 76, 64
1, 45888, Note_on_c, 0, 73, 64
1, 45888, Note_on_c, 1, 45, 64
1, 45977, Note_on_c, 0, 76, 0
1, 45977, Note_on_c, 0, 73, 0
1, 45977, Note_on_c, 1, 45, 0
1, 46080, Note_on_c, 1, 50, 80
1, 46080, Note_on_c, 1, 38, 80
1, 46152, Note_on_c, 0, 62, 80
1, 46164, Note_on_c, 0, 62, 0
1, 46164, Note_on_c, 0, 64, 80
1, 46176, Note_on_c, 0, 64, 0
1, 46176, Note_on_c, 0, 65, 80
1, 46243, Note_on_c, 0, 65, 0
1, 46248, Note_on_c, 0, 65, 80
1, 46257, Note_on_c, 1, 50, 0
1, 46257, Note_on_c, 1, 38, 0
1, 46260, Note_on_c, 0, 65, 0
1, 46260, Note_on_c, 0, 67, 80
1, 46272, Note_on_c, 0, 67, 0
1, 46272, Note_on_c, 0, 69, 80
1, 46272, Note_on_c, 1, 48, 80
1, 46272, Note_on_c, 1, 36, 80
1, 46339, Note_on_c, 0, 69, 0
1, 46344, Note_on_c, 0, 71, 80
1, 46356, Note_on_c, 0, 71, 0
1, 46356, Note_on_c, 0, 73, 80
1, 46361, Note_on_c, 1, 48, 0
1, 46361, Note_on_c, 1, 36, 0
1, 46368, Note_on_c, 0, 73, 0
1, 46368, Note_on_c, 0, 74, 80
1, 46368, Note_on_c, 1, 46, 80
1, 46368, Note_on_c, 1, 34, 80
1, 46435, Note_on_c, 0, 74, 0
1, 46440, Note_on_c, 0, 74, 80
1, 46452, Note_on_c, 0, 74, 0
1, 46452, Note_on_c, 0, 76, 80
1, 46457, Note_on_c, 1, 46, 0
1, 46457, Note_on_c, 1, 34, 0
1, 46464, Note_on_c, 0, 76, 0
1, 46464, Note_on_c, 0, 77, 80
1, 46464, Note_on_c, 1, 41, 80
1, 46464, Note_on_c, 1, 29, 80
1, 46503, Note_on_c, 0, 77, 0
1, 46553, Note_on_c, 1, 41, 0
1, 46553, Note_on_c, 1, 29, 0
1, 46656, Note_on_c, 0, 76, 64
1, 46656, Note_on_c, 1, 43, 64
1, 46656, Note_on_c, 1, 31, 64
1, 46701, Note_on_c, 0, 76, 0
1, 46704, Note_on_c, 0, 82, 64
1, 46704, Note_on_c, 0, 79, 64
1, 46724, Note_on_c, 0, 82, 0
1, 46724, Note_on_c, 0, 79, 0
1, 46752, Note_on_c, 0, 82, 64
1, 46752, Note_on_c, 0, 79, 64
1, 46800, Note_on_c, 0, 82, 0
1, 46800, Note_on_c, 0, 79, 0
1, 46800, Note_on_c, 0, 81, 64
1, 46800, Note_on_c, 0, 77, 64
1, 46820, Note_on_c, 0, 81, 0
1, 46820, Note_on_c, 0, 77, 0
1, 46833, Note_on_c, 1, 43, 0
1, 46833, Note_on_c, 1, 31, 0
1, 46848, Note_on_c, 0, 81, 64
1, 46848, Note_on_c, 0, 77, 64
1, 46848, Note_on_c, 1, 45, 64
1, 46848, Note_on_c, 1, 33, 64
1, 46896, Note_on_c, 0, 81, 0
1, 46896, Note_on_c, 0, 77, 0
1, 46896, Note_on_c, 0, 79, 64
1, 46896, Note_on_c, 0, 76, 64
1, 46916, Note_on_c, 0, 79, 0
1, 46916, Note_on_c, 0, 76, 0
1, 46937, Note_on_c, 1, 45, 0
1, 46937, Note_on_c, 1, 33, 0
1, 46944, Note_on_c, 0, 79, 64
1, 46944, Note_on_c, 0, 76, 64
1, 46944, Note_on_c, 1, 50, 64
1, 46944, Note_on_c, 1, 38, 64
1, 46992, Note_on_c, 0, 79, 0
1, 46992, Note_on_c, 0, 76, 0
1, 46992, Note_on_c, 0, 77, 64
1, 46992, Note_on_c, 0, 74, 64
1, 47012, Note_on_c, 0, 77, 0
1, 47012, Note_on_c, 0, 74, 0
1, 47040, Note_on_c, 0, 81, 64
1, 47040, Note_on_c, 0, 77, 64
1, 47121, Note_on_c, 1, 50, 0
1, 47121, Note_on_c, 1, 38, 0
1, 47129, Note_on_c, 0, 81, 0
1, 47129, Note_on_c, 0, 77, 0
1, 47232, Note_on_c, 1, 50, 80
1, 47232, Note_on_c, 1, 38, 80
1, 47304, Note_on_c, 0, 62, 80
1, 47316, Note_on_c, 0, 62, 0
1, 47316, Note_on_c, 0, 64, 80
1, 47328, Note_on_c, 0, 64, 0
1, 47328, Note_on_c, 0, 65, 80
1, 47395, Note_on_c, 0, 65, 0
1, 47400, Note_on_c, 0, 65, 80
1, 47409, Note_on_c, 1, 50, 0
1, 47409, Note_on_c, 1, 38, 0
1, 47412, Note_on_c, 0, 65, 0
1, 47412, Note_on_c, 0, 67, 80
1, 47424, Note_on_c, 0, 67, 0
1, 47424, Note_on_c, 0, 69, 80
1, 47424, Note_on_c, 1, 48, 80
1, 47424, Note_on_c, 1, 36, 80
1, 47491, Note_on_c, 0, 69, 0
1, 47496, Note_on_c, 0, 71, 80
1, 47508, Note_on_c, 0, 71, 0
1, 47508, Note_on_c, 0, 73, 80
1, 47513, Note_on_c, 1, 48, 0
1, 47513, Note_on_c, 1, 36, 0
1, 47520, Note_on_c, 0, 73, 0
1, 47520, Note_on_c, 0, 74, 80
1, 47520, Note_on_c, 1, 46, 80
1, 47520, Note_on_c, 1, 34, 80
1, 47587, Note_on_c, 0, 74, 0
1, 47592, Note_on_c, 0, 74, 80
1, 47604, Note_on_c, 0, 74, 0
1, 47604, Note_on_c, 0, 76, 80
1, 47609, Note_on_c, 1, 46, 0
1, 47609, Note_on_c, 1, 34, 0
1, 47616, Note_on_c, 0, 76, 0
1, 47616, Note_on_c, 0, 77, 80
1, 47616, Note_on_c, 1, 45, 80
1, 47616, Note_on_c, 1, 33, 80
1, 47683, Note_on_c, 0, 77, 0
1, 47688, Note_on_c, 0, 77, 80
1, 47700, Note_on_c, 0, 77, 0
1, 47700, Note_on_c, 0, 79, 80
1, 47705, Note_on_c, 1, 45, 0
1, 47705, Note_on_c, 1, 33, 0
1, 47712, Note_on_c, 0, 79, 0
1, 47712, Note_on_c, 0, 81, 80
1, 47712, Note_on_c, 1, 43, 80
1, 47712, Note_on_c, 1, 31, 80
1, 47779, Note_on_c, 0, 81, 0
1, 47784, Note_on_c, 0, 83, 80
1, 47796, Note_on_c, 0, 83, 0
1, 47796, Note_on_c, 0, 85, 80
1, 47801, Note_on_c, 1, 43, 0
1, 47801, Note_on_c, 1, 31, 0
1, 47808, Note_on_c, 0, 85, 0
1, 47808, Note_on_c, 0, 86, 80
1, 47808, Note_on_c, 1, 41, 80
1, 47808, Note_on_c, 1, 29, 80
1, 47853, Note_on_c, 0, 86, 0
1, 47856, Note_on_c, 0, 81, 80
1, 47897, Note_on_c, 1, 41, 0
1, 47897, Note_on_c, 1, 29, 0
1, 47901, Note_on_c, 0, 81, 0
1, 47904, Note_on_c, 0, 79, 78
1, 47916, Note_on_c, 0, 79, 0
1, 47916, Note_on_c, 0, 81, 78
1, 47928, Note_on_c, 0, 81, 0
1, 47928, Note_on_c, 0, 79, 78
1, 47949, Note_on_c, 0, 79, 0
1, 47952, Note_on_c, 0, 77, 76
1, 47997, Note_on_c, 0, 77, 0
1, 48000, Note_on_c, 0, 76, 74
1, 48012, Note_on_c, 0, 76, 0
1, 48012, Note_on_c, 0, 77, 74
1, 48024, Note_on_c, 0, 77, 0
1, 48024, Note_on_c, 0, 76, 74
1, 48045, Note_on_c, 0, 76, 0
1, 48048, Note_on_c, 0, 74, 72
1, 48093, Note_on_c, 0, 74, 0
1, 48096, Note_on_c, 1, 69, 70
1, 48096, Note_on_c, 1, 67, 70
1, 48144, Note_on_c, 0, 76, 70
1, 48189, Note_on_c, 0, 76, 0
1, 48192, Note_on_c, 0, 81, 70
1, 48237, Note_on_c, 0, 81, 0
1, 48240, Note_on_c, 0, 73, 70
1, 48273, Note_on_c, 1, 69, 0
1, 48273, Note_on_c, 1, 67, 0
1, 48285, Note_on_c, 0, 73, 0
1, 48288, Note_on_c, 0, 74, 70
1, 48288, Note_on_c, 1, 69, 70
1, 48288, Note_on_c, 1, 65, 70
1, 48306, Note_on_c, 0, 74, 0
1, 48306, Note_on_c, 0, 73, 70
1, 48324, Note_on_c, 0, 73, 0
1, 48324, Note_on_c, 0, 74, 70
1, 48377, Note_on_c, 0, 74, 0
1, 48377, Note_on_c, 1, 69, 0
1, 48377, Note_on_c, 1, 65, 0
1, 48384, Note_on_c, 1, 69, 64
1, 48384, Note_on_c, 1, 67, 64
1, 48432, Note_on_c, 0, 76, 64
1, 48477, Note_on_c, 0, 76, 0
1, 48480, Note_on_c, 0, 81, 64
1, 48525, Note_on_c, 0, 81, 0
1, 48528, Note_on_c, 0, 73, 64
1, 48561, Note_on_c, 1, 69, 0
1, 48561, Note_on_c, 1, 67, 0
1, 48573, Note_on_c, 0, 73, 0
1, 48576, Note_on_c, 0, 74, 64
1, 48576, Note_on_c, 1, 69, 64
1, 48576, Note_on_c, 1, 65, 64
1, 48594, Note_on_c, 0, 74, 0
1, 48594, Note_on_c, 0, 73, 64
1, 48612, Note_on_c, 0, 73, 0
1, 48612, Note_on_c, 0, 74, 64
1, 48665, Note_on_c, 0, 74, 0
1, 48665, Note_on_c, 1, 69, 0
1, 48665, Note_on_c, 1, 65, 0
1, 48672, Note_on_c, 1, 57, 64
1, 48672, Note_on_c, 1, 45, 64
1, 48720, Note_on_c, 0, 67, 64
1, 48720, Note_on_c, 0, 64, 64
1, 48740, Note_on_c, 0, 67, 0
1, 48740, Note_on_c, 0, 64, 0
1, 48761, Note_on_c, 1, 57, 0
1, 48761, Note_on_c, 1, 45, 0
1, 48768, Note_on_c, 0, 67, 64
1, 48768, Note_on_c, 0, 64, 64
1, 48816, Note_on_c, 0, 67, 0
1, 48816, Note_on_c, 0, 64, 0
1, 48816, Note_on_c, 0, 65, 65
1, 48816, Note_on_c, 0, 62, 65
1, 48836, Note_on_c, 0, 65, 0
1, 48836, Note_on_c, 0, 62, 0
1, 48864, Note_on_c, 0, 65, 66
1, 48864, Note_on_c, 0, 62, 66
1, 48912, Note_on_c, 0, 65, 0
1, 48912, Note_on_c, 0, 62, 0
1, 48912, Note_on_c, 0, 64, 67
1, 48912, Note_on_c, 0, 61, 67
1, 48932, Note_on_c, 0, 64, 0
1, 48932, Note_on_c, 0, 61, 0
1, 48960, Note_on_c, 1, 57, 70
1, 48960, Note_on_c, 1, 45, 70
1, 49008, Note_on_c, 0, 69, 69
1, 49008, Note_on_c, 0, 65, 69
1, 49028, Note_on_c, 0, 69, 0
1, 49028, Note_on_c, 0, 65, 0
1, 49049, Note_on_c, 1, 57, 0
1, 49049, Note_on_c, 1, 45, 0
1, 49056, Note_on_c, 0, 69, 70
1, 49056, Note_on_c, 0, 65, 70
1, 49104, Note_on_c, 0, 69, 0
1, 49104, Note_on_c, 0, 65, 0
1, 49104, Note_on_c, 0, 67, 71
1, 49104, Note_on_c, 0, 64, 71
1, 49124, Note_on_c, 0, 67, 0
1, 49124, Note_on_c, 0, 64, 0
1, 49152, Note_on_c, 0, 67, 72
1, 49152, Note_on_c, 0, 64, 72
1, 49200, Note_on_c, 0, 67, 0
1, 49200, Note_on_c, 0, 64, 0
1, 49200, Note_on_c, 0, 65, 73
1, 49200, Note_on_c, 0, 62, 73
1, 49220, Note_on_c, 0, 65, 0
1, 49220, Note_on_c, 0, 62, 0
1, 49248, Note_on_c, 1, 57, 75
1, 49248, Note_on_c, 1, 45, 75
1, 49296, Note_on_c, 0, 70, 75
1, 49296, Note_on_c, 0, 67, 75
1, 49316, Note_on_c, 0, 70, 0
1, 49316, Note_on_c, 0, 67, 0
1, 49337, Note_on_c, 1, 57, 0
1, 49337, Note_on_c, 1, 45, 0
1, 49344, Note_on_c, 0, 70, 76
1, 49344, Note_on_c, 0, 67, 76
1, 49392, Note_on_c, 0, 70, 0
1, 49392, Note_on_c, 0, 67, 0
1, 49392, Note_on_c, 0, 69, 77
1, 49392, Note_on_c, 0, 65, 77
1, 49412, Note_on_c, 0, 69, 0
1, 49412, Note_on_c, 0, 65, 0
1, 49440, Note_on_c, 0, 69, 78
1, 49440, Note_on_c, 0, 65, 78
1, 49488, Note_on_c, 0, 69, 0
1, 49488, Note_on_c, 0, 65, 0
1, 49488, Note_on_c, 0, 67, 79
1, 49488, Note_on_c, 0, 64, 79
1, 49508, Note_on_c, 0, 67, 0
1, 49508, Note_on_c, 0, 64, 0
1, 49536, Note_on_c, 1, 50, 80
1, 49536, Note_on_c, 1, 38, 80
1, 49608, Note_on_c, 0, 74, 80
1, 49608, Note_on_c, 0, 65, 80
1, 49620, Note_on_c, 0, 74, 0
1, 49620, Note_on_c, 0, 76, 80
1, 49632, Note_on_c, 0, 76, 0
1, 49632, Note_on_c, 0, 77, 80
1, 49677, Note_on_c, 0, 77, 0
1, 49677, Note_on_c, 0, 65, 0
1, 49680, Note_on_c, 0, 74, 80
1, 49680, Note_on_c, 0, 65, 80
1, 49713, Note_on_c, 1, 50, 0
1, 49713, Note_on_c, 1, 38, 0
1, 49725, Note_on_c, 0, 74, 0
1, 49725, Note_on_c, 0, 65, 0
1, 49728, Note_on_c, 1, 48, 80
1, 49728, Note_on_c, 1, 36, 80
1, 49776, Note_on_c, 0, 74, 80
1, 49776, Note_on_c, 0, 65, 80
1, 49817, Note_on_c, 1, 48, 0
1, 49817, Note_on_c, 1, 36, 0
1, 49821, Note_on_c, 0, 74, 0
1, 49821, Note_on_c, 0, 65, 0
1, 49824, Note_on_c, 1, 46, 80
1, 49824, Note_on_c, 1, 34, 80
1, 49896, Note_on_c, 0, 74, 80
1, 49896, Note_on_c, 0, 65, 80
1, 49908, Note_on_c, 0, 74, 0
1, 49908, Note_on_c, 0, 76, 80
1, 49920, Note_on_c, 0, 76, 0
1, 49920, Note_on_c, 0, 77, 80
1, 49965, Note_on_c, 0, 77, 0
1, 49965, Note_on_c, 0, 65, 0
1, 49968, Note_on_c, 0, 74, 80
1, 49968, Note_on_c, 0, 65, 80
1, 50001, Note_on_c, 1, 46, 0
1, 50001, Note_on_c, 1, 34, 0
1, 50013, Note_on_c, 0, 74, 0
1, 50013, Note_on_c, 0, 65, 0
1, 50016, Note_on_c, 1, 41, 80
1, 50016, Note_on_c, 1, 29, 80
1, 50064, Note_on_c, 0, 74, 80
1, 50064, Note_on_c, 0, 65, 80
1, 50105, Note_on_c, 1, 41, 0
1, 50105, Note_on_c, 1, 29, 0
1, 50109, Note_on_c, 0, 74, 0
1, 50109, Note_on_c, 0, 65, 0
1, 50112, Note_on_c, 1, 43, 80
1, 50112, Note_on_c, 1, 31, 80
1, 50160, Note_on_c, 0, 82, 80
1, 50160, Note_on_c, 0, 79, 80
1, 50205, Note_on_c, 0, 82, 0
1, 50205, Note_on_c, 0, 79, 0
1, 50208, Note_on_c, 0, 81, 80
1, 50208, Note_on_c, 0, 77, 80
1, 50253, Note_on_c, 0, 81, 0
1, 50253, Note_on_c, 0, 77, 0
1, 50256, Note_on_c, 0, 79, 80
1, 50256, Note_on_c, 0, 76, 80
1, 50289, Note_on_c, 1, 43, 0
1, 50289, Note_on_c, 1, 31, 0
1, 50301, Note_on_c, 0, 79, 0
1, 50301, Note_on_c, 0, 76, 0
1, 50304, Note_on_c, 0, 77, 80
1, 50304, Note_on_c, 0, 74, 80
1, 50304, Note_on_c, 1, 45, 80
1, 50304, Note_on_c, 1, 33, 80
1, 50349, Note_on_c, 0, 77, 0
1, 50349, Note_on_c, 0, 74, 0
1, 50352, Note_on_c, 0, 76, 80
1, 50352, Note_on_c, 0, 73, 80
1, 50393, Note_on_c, 1, 45, 0
1, 50393, Note_on_c, 1, 33, 0
1, 50397, Note_on_c, 0, 76, 0
1, 50397, Note_on_c, 0, 73, 0
1, 50400, Note_on_c, 0, 76, 80
1, 50400, Note_on_c, 1, 50, 80
1, 50414, Note_on_c, 0, 76, 0
1, 50415, Note_on_c, 0, 74, 80
1, 50429, Note_on_c, 0, 74, 0
1, 50430, Note_on_c, 0, 76, 80
1, 50444, Note_on_c, 0, 76, 0
1, 50445, Note_on_c, 0, 74, 80
1, 50459, Note_on_c, 0, 74, 0
1, 50460, Note_on_c, 0, 76, 80
1, 50474, Note_on_c, 0, 76, 0
1, 50475, Note_on_c, 0, 74, 80
1, 50489, Note_on_c, 0, 74, 0
1, 50489, Note_on_c, 1, 50, 0
1, 50490, Note_on_c, 0, 76, 80
1, 50496, Note_on_c, 1, 45, 80
1, 50504, Note_on_c, 0, 76, 0
1, 50505, Note_on_c, 0, 74, 80
1, 50519, Note_on_c, 0, 74, 0
1, 50520, Note_on_c, 0, 76, 80
1, 50534, Note_on_c, 0, 76, 0
1, 50535, Note_on_c, 0, 74, 80
1, 50549, Note_on_c, 0, 74, 0
1, 50550, Note_on_c, 0, 76, 80
1, 50563, Note_on_c, 0, 76, 0
1, 50564, Note_on_c, 0, 74, 80
1, 50585, Note_on_c, 1, 45, 0
1, 50591, Note_on_c, 0, 74, 0
1, 50592, Note_on_c, 1, 38, 80
1, 50681, Note_on_c, 1, 38, 0
1, 50688, Note_on_c, 0, 62, 91
1, 50688, Note_on_c, 1, 50, 91
1, 50688, Note_on_c, 1, 38, 91
1, 50784, Note_on_c, 0, 62, 0
1, 50784, Note_on_c, 0, 66, 75
1, 50802, Note_on_c, 0, 66, 0
1, 50802, Note_on_c, 0, 67, 75
1, 50820, Note_on_c, 0, 67, 0
1, 50820, Note_on_c, 0, 66, 75
1, 50851, Note_on_c, 0, 66, 0
1, 50856, Note_on_c, 0, 64, 75
1, 50879, Note_on_c, 0, 64, 0
1, 50880, Note_on_c, 0, 66, 75
1, 50880, Note_on_c, 1, 50, 0
1, 50880, Note_on_c, 1, 38, 0
1, 50880, Note_on_c, 1, 52, 75
1, 50880, Note_on_c, 1, 40, 75
1, 50947, Note_on_c, 0, 66, 0
1, 50952, Note_on_c, 0, 67, 75
1, 50969, Note_on_c, 1, 52, 0
1, 50969, Note_on_c, 1, 40, 0
1, 50975, Note_on_c, 0, 67, 0
1, 50976, Note_on_c, 0, 69, 75
1, 50976, Note_on_c, 1, 54, 75
1, 50976, Note_on_c, 1, 42, 75
1, 51065, Note_on_c, 0, 69, 0
1, 51065, Note_on_c, 1, 54, 0
1, 51065, Note_on_c, 1, 42, 0
1, 51072, Note_on_c, 0, 66, 75
1, 51072, Note_on_c, 1, 50, 75
1, 51072, Note_on_c, 1, 38, 75
1, 51090, Note_on_c, 0, 66, 0
1, 51090, Note_on_c, 0, 67, 75
1, 51108, Note_on_c, 0, 67, 0
1, 51108, Note_on_c, 0, 66, 75
1, 51139, Note_on_c, 0, 66, 0
1, 51144, Note_on_c, 0, 64, 75
1, 51161, Note_on_c, 1, 50, 0
1, 51161, Note_on_c, 1, 38, 0
1, 51167, Note_on_c, 0, 64, 0
1, 51168, Note_on_c, 0, 66, 75
1, 51168, Note_on_c, 1, 52, 75
1, 51168, Note_on_c, 1, 40, 75
1, 51235, Note_on_c, 0, 66, 0
1, 51240, Note_on_c, 0, 67, 75
1, 51257, Note_on_c, 1, 52, 0
1, 51257, Note_on_c, 1, 40, 0
1, 51263, Note_on_c, 0, 67, 0
1, 51264, Note_on_c, 0, 69, 75
1, 51264, Note_on_c, 1, 54, 75
1, 51264, Note_on_c, 1, 42, 75
1, 51353, Note_on_c, 0, 69, 0
1, 51360, Note_on_c, 0, 57, 75
1, 51390, Note_on_c, 0, 57, 0
1, 51392, Note_on_c, 0, 62, 75
1, 51422, Note_on_c, 0, 62, 0
1, 51424, Note_on_c, 0, 66, 75
1, 51441, Note_on_c, 1, 54, 0
1, 51441, Note_on_c, 1, 42, 0
1, 51454, Note_on_c, 0, 66, 0
1, 51456, Note_on_c, 0, 64, 75
1, 51456, Note_on_c, 1, 50, 75
1, 51479, Note_on_c, 0, 64, 0
1, 51480, Note_on_c, 0, 62, 75
1, 51503, Note_on_c, 0, 62, 0
1, 51504, Note_on_c, 0, 61, 75
1, 51527, Note_on_c, 0, 61, 0
1, 51528, Note_on_c, 0, 59, 75
1, 51545, Note_on_c, 1, 50, 0
1, 51551, Note_on_c, 0, 59, 0
1, 51552, Note_on_c, 0, 57, 75
1, 51552, Note_on_c, 1, 52, 75
1, 51641, Note_on_c, 0, 57, 0
1, 51641, Note_on_c, 1, 52, 0
1, 51648, Note_on_c, 0, 55, 75
1, 51648, Note_on_c, 1, 45, 75
1, 51661, Note_on_c, 0, 55, 0
1, 51662, Note_on_c, 0, 57, 75
1, 51675, Note_on_c, 0, 57, 0
1, 51676, Note_on_c, 0, 55, 75
1, 51689, Note_on_c, 0, 55, 0
1, 51690, Note_on_c, 0, 57, 75
1, 51703, Note_on_c, 0, 57, 0
1, 51704, Note_on_c, 0, 55, 75
1, 51717, Note_on_c, 0, 55, 0
1, 51718, Note_on_c, 0, 54, 75
1, 51730, Note_on_c, 0, 54, 0
1, 51731, Note_on_c, 0, 55, 75
1, 51737, Note_on_c, 1, 45, 0
1, 51743, Note_on_c, 0, 55, 0
1, 51744, Note_on_c, 0, 54, 75
1, 51744, Note_on_c, 1, 50, 75
1, 51833, Note_on_c, 0, 54, 0
1, 51833, Note_on_c, 1, 50, 0
1, 51840, Note_on_c, 0, 59, 75
1, 51840, Note_on_c, 1, 43, 75
1, 51858, Note_on_c, 0, 59, 0
1, 51858, Note_on_c, 0, 61, 75
1, 51876, Note_on_c, 0, 61, 0
1, 51876, Note_on_c, 0, 59, 75
1, 51907, Note_on_c, 0, 59, 0
1, 51912, Note_on_c, 0, 57, 75
1, 51929, Note_on_c, 1, 43, 0
1, 51935, Note_on_c, 0, 57, 0
1, 51936, Note_on_c, 0, 59, 75
1, 51936, Note_on_c, 1, 55, 75
1, 52003, Note_on_c, 0, 59, 0
1, 52008, Note_on_c, 0, 61, 75
1, 52025, Note_on_c, 1, 55, 0
1, 52031, Note_on_c, 0, 61, 0
1, 52032, Note_on_c, 0, 62, 75
1, 52032, Note_on_c, 1, 54, 75
1, 52099, Note_on_c, 0, 62, 0
1, 52104, Note_on_c, 0, 57, 75
1, 52121, Note_on_c, 1, 54, 0
1, 52127, Note_on_c, 0, 57, 0
1, 52128, Note_on_c, 0, 57, 75
1, 52128, Note_on_c, 1, 52, 75
1, 52195, Note_on_c, 0, 57, 0
1, 52200, Note_on_c, 0, 55, 75
1, 52217, Note_on_c, 1, 52, 0
1, 52223, Note_on_c, 0, 55, 0
1, 52224, Note_on_c, 0, 67, 75
1, 52224, Note_on_c, 1, 45, 75
1, 52254, Note_on_c, 0, 67, 0
1, 52256, Note_on_c, 0, 64, 75
1, 52286, Note_on_c, 0, 64, 0
1, 52288, Note_on_c, 0, 61, 75
1, 52313, Note_on_c, 1, 45, 0
1, 52318, Note_on_c, 0, 61, 0
1, 52320, Note_on_c, 0, 62, 75
1, 52320, Note_on_c, 1, 50, 75
1, 52338, Note_on_c, 0, 62, 0
1, 52338, Note_on_c, 0, 61, 75
1, 52356, Note_on_c, 0, 61, 0
1, 52356, Note_on_c, 0, 62, 75
1, 52409, Note_on_c, 0, 62, 0
1, 52409, Note_on_c, 1, 50, 0
1, 52416, Note_on_c, 0, 59, 75
1, 52416, Note_on_c, 1, 43, 75
1, 52505, Note_on_c, 0, 59, 0
1, 52505, Note_on_c, 1, 43, 0
1, 52512, Note_on_c, 0, 70, 75
1, 52512, Note_on_c, 1, 55, 75
1, 52542, Note_on_c, 0, 70, 0
1, 52544, Note_on_c, 0, 71, 76
1, 52574, Note_on_c, 0, 71, 0
1, 52576, Note_on_c, 0, 69, 78
1, 52601, Note_on_c, 1, 55, 0
1, 52606, Note_on_c, 0, 69, 0
1, 52608, Note_on_c, 0, 67, 79
1, 52608, Note_on_c, 1, 55, 75
1, 52638, Note_on_c, 0, 67, 0
1, 52640, Note_on_c, 0, 66, 78
1, 52670, Note_on_c, 0, 66, 0
1, 52672, Note_on_c, 0, 64, 77
1, 52697, Note_on_c, 1, 55, 0
1, 52702, Note_on_c, 0, 64, 0
1, 52704, Note_on_c, 0, 62, 75
1, 52704, Note_on_c, 1, 57, 75
1, 52793, Note_on_c, 1, 57, 0
1, 52800, Note_on_c, 1, 52, 75
1, 52889, Note_on_c, 1, 52, 0
1, 52896, Note_on_c, 0, 62, 0
1, 52896, Note_on_c, 0, 61, 75
1, 52896, Note_on_c, 1, 45, 75
1, 52985, Note_on_c, 0, 61, 0
1, 52985, Note_on_c, 1, 45, 0
1, 52992, Note_on_c, 0, 81, 75
1, 52992, Note_on_c, 1, 57, 75
1, 53022, Note_on_c, 0, 81, 0
1, 53024, Note_on_c, 0, 85, 76
1, 53054, Note_on_c, 0, 85, 0
1, 53056, Note_on_c, 0, 88, 78
1, 53081, Note_on_c, 1, 57, 0
1, 53086, Note_on_c, 0, 88, 0
1, 53088, Note_on_c, 0, 86, 79
1, 53088, Note_on_c, 1, 61, 75
1, 53118, Note_on_c, 0, 86, 0
1, 53120, Note_on_c, 0, 85, 78
1, 53150, Note_on_c, 0, 85, 0
1, 53152, Note_on_c, 0, 83, 77
1, 53177, Note_on_c, 1, 61, 0
1, 53182, Note_on_c, 0, 83, 0
1, 53184, Note_on_c, 0, 81, 75
1, 53184, Note_on_c, 1, 62, 75
1, 53214, Note_on_c, 0, 81, 0
1, 53216, Note_on_c, 0, 80, 75
1, 53246, Note_on_c, 0, 80, 0
1, 53248, Note_on_c, 0, 78, 75
1, 53273, Note_on_c, 1, 62, 0
1, 53280, Note_on_c, 1, 61, 75
1, 53325, Note_on_c, 0, 78, 0
1, 53328, Note_on_c, 0, 76, 75
1, 53369, Note_on_c, 1, 61, 0
1, 53376, Note_on_c, 1, 59, 75
1, 53417, Note_on_c, 0, 76, 0
1, 53424, Note_on_c, 0, 74, 75
1, 53465, Note_on_c, 1, 59, 0
1, 53472, Note_on_c, 1, 57, 75
1, 53513, Note_on_c, 0, 74, 0
1, 53520, Note_on_c, 0, 73, 75
1, 53561, Note_on_c, 1, 57, 0
1, 53565, Note_on_c, 0, 73, 0
1, 53568, Note_on_c, 0, 71, 75
1, 53568, Note_on_c, 1, 62, 75
1, 53598, Note_on_c, 0, 71, 0
1, 53600, Note_on_c, 0, 74, 75
1, 53630, Note_on_c, 0, 74, 0
1, 53632, Note_on_c, 0, 73, 76
1, 53657, Note_on_c, 1, 62, 0
1, 53662, Note_on_c, 0, 73, 0
1, 53664, Note_on_c, 0, 74, 77
1, 53664, Note_on_c, 1, 59, 75
1, 53694, Note_on_c, 0, 74, 0
1, 53696, Note_on_c, 0, 78, 78
1, 53726, Note_on_c, 0, 78, 0
1, 53728, Note_on_c, 0, 76, 79
1, 53753, Note_on_c, 1, 59, 0
1, 53758, Note_on_c, 0, 76, 0
1, 53760, Note_on_c, 0, 74, 79
1, 53760, Note_on_c, 1, 62, 75
1, 53790, Note_on_c, 0, 74, 0
1, 53792, Note_on_c, 0, 73, 77
1, 53822, Note_on_c, 0, 73, 0
1, 53824, Note_on_c, 0, 71, 76
1, 53849, Note_on_c, 1, 62, 0
1, 53854, Note_on_c, 0, 71, 0
1, 53856, Note_on_c, 0, 69, 75
1, 53856, Note_on_c, 1, 64, 75
1, 53901, Note_on_c, 0, 69, 0
1, 53904, Note_on_c, 0, 68, 75
1, 53945, Note_on_c, 1, 64, 0
1, 53952, Note_on_c, 1, 62, 75
1, 53993, Note_on_c, 0, 68, 0
1, 54000, Note_on_c, 0, 71, 75
1, 54041, Note_on_c, 1, 62, 0
1, 54048, Note_on_c, 1, 61, 75
1, 54089, Note_on_c, 0, 71, 0
1, 54096, Note_on_c, 0, 69, 75
1, 54137, Note_on_c, 1, 61, 0
1, 54141, Note_on_c, 0, 69, 0
1, 54144, Note_on_c, 0, 64, 75
1, 54144, Note_on_c, 1, 56, 75
1, 54174, Note_on_c, 0, 64, 0
1, 54176, Note_on_c, 0, 74, 76
1, 54206, Note_on_c, 0, 74, 0
1, 54208, Note_on_c, 0, 73, 78
1, 54233, Note_on_c, 1, 56, 0
1, 54238, Note_on_c, 0, 73, 0
1, 54240, Note_on_c, 0, 74, 79
1, 54240, Note_on_c, 1, 59, 75
1, 54270, Note_on_c, 0, 74, 0
1, 54272, Note_on_c, 0, 71, 78
1, 54302, Note_on_c, 0, 71, 0
1, 54304, Note_on_c, 0, 68, 77
1, 54329, Note_on_c, 1, 59, 0
1, 54334, Note_on_c, 0, 68, 0
1, 54336, Note_on_c, 0, 69, 75
1, 54336, Note_on_c, 1, 61, 75
1, 54354, Note_on_c, 0, 69, 0
1, 54354, Note_on_c, 0, 68, 75
1, 54372, Note_on_c, 0, 68, 0
1, 54372, Note_on_c, 0, 69, 75
1, 54425, Note_on_c, 0, 69, 0
1, 54425, Note_on_c, 1, 61, 0
1, 54432, Note_on_c, 0, 64, 64
1, 54432, Note_on_c, 1, 56, 64
1, 54462, Note_on_c, 0, 64, 0
1, 54464, Note_on_c, 0, 74, 67
1, 54494, Note_on_c, 0, 74, 0
1, 54496, Note_on_c, 0, 73, 70
1, 54521, Note_on_c, 1, 56, 0
1, 54526, Note_on_c, 0, 73, 0
1, 54528, Note_on_c, 0, 74, 74
1, 54528, Note_on_c, 1, 59, 64
1, 54558, Note_on_c, 0, 74, 0
1, 54560, Note_on_c, 0, 71, 72
1, 54590, Note_on_c, 0, 71, 0
1, 54592, Note_on_c, 0, 68, 68
1, 54617, Note_on_c, 1, 59, 0
1, 54622, Note_on_c, 0, 68, 0
1, 54624, Note_on_c, 0, 69, 64
1, 54624, Note_on_c, 1, 61, 64
1, 54642, Note_on_c, 0, 69, 0
1, 54642, Note_on_c, 0, 68, 64
1, 54660, Note_on_c, 0, 68, 0
1, 54660, Note_on_c, 0, 69, 64
1, 54713, Note_on_c, 0, 69, 0
1, 54713, Note_on_c, 1, 61, 0
1, 54720, Note_on_c, 0, 66, 75
1, 54720, Note_on_c, 1, 62, 75
1, 54720, Note_on_c, 1, 50, 75
1, 54750, Note_on_c, 0, 66, 0
1, 54752, Note_on_c, 0, 71, 75
1, 54782, Note_on_c, 0, 71, 0
1, 54784, Note_on_c, 0, 70, 75
1, 54809, Note_on_c, 1, 62, 0
1, 54809, Note_on_c, 1, 50, 0
1, 54814, Note_on_c, 0, 70, 0
1, 54816, Note_on_c, 0, 71, 75
1, 54846, Note_on_c, 0, 71, 0
1, 54848, Note_on_c, 0, 74, 75
1, 54878, Note_on_c, 0, 74, 0
1, 54880, Note_on_c, 0, 73, 76
1, 54910, Note_on_c, 0, 73, 0
1, 54912, Note_on_c, 0, 74, 77
1, 54942, Note_on_c, 0, 74, 0
1, 54944, Note_on_c, 0, 76, 77
1, 54974, Note_on_c, 0, 76, 0
1, 54976, Note_on_c, 0, 78, 78
1, 55006, Note_on_c, 0, 78, 0
1, 55008, Note_on_c, 0, 76, 79
1, 55008, Note_on_c, 1, 49, 75
1, 55008, Note_on_c, 1, 37, 75
1, 55038, Note_on_c, 0, 76, 0
1, 55040, Note_on_c, 0, 74, 79
1, 55070, Note_on_c, 0, 74, 0
1, 55072, Note_on_c, 0, 73, 79
1, 55097, Note_on_c, 1, 49, 0
1, 55097, Note_on_c, 1, 37, 0
1, 55102, Note_on_c, 0, 73, 0
1, 55104, Note_on_c, 0, 71, 79
1, 55134, Note_on_c, 0, 71, 0
1, 55136, Note_on_c, 0, 69, 78
1, 55166, Note_on_c, 0, 69, 0
1, 55168, Note_on_c, 0, 68, 77
1, 55198, Note_on_c, 0, 68, 0
1, 55200, Note_on_c, 0, 69, 77
1, 55230, Note_on_c, 0, 69, 0
1, 55232, Note_on_c, 0, 64, 76
1, 55262, Note_on_c, 0, 64, 0
1, 55264, Note_on_c, 0, 61, 76
1, 55294, Note_on_c, 0, 61, 0
1, 55296, Note_on_c, 0, 66, 75
1, 55296, Note_on_c, 1, 50, 75
1, 55296, Note_on_c, 1, 38, 75
1, 55326, Note_on_c, 0, 66, 0
1, 55328, Note_on_c, 0, 64, 75
1, 55358, Note_on_c, 0, 64, 0
1, 55360, Note_on_c, 0, 62, 75
1, 55385, Note_on_c, 1, 50, 0
1, 55385, Note_on_c, 1, 38, 0
1, 55390, Note_on_c, 0, 62, 0
1, 55392, Note_on_c, 0, 61, 75
1, 55392, Note_on_c, 1, 52, 75
1, 55481, Note_on_c, 0, 61, 0
1, 55481, Note_on_c, 1, 52, 0
1, 55488, Note_on_c, 0, 59, 75
1, 55488, Note_on_c, 1, 40, 75
1, 55501, Note_on_c, 0, 59, 0
1, 55502, Note_on_c, 0, 61, 75
1, 55515, Note_on_c, 0, 61, 0
1, 55516, Note_on_c, 0, 59, 75
1, 55529, Note_on_c, 0, 59, 0
1, 55530, Note_on_c, 0, 61, 75
1, 55543, Note_on_c, 0, 61, 0
1, 55544, Note_on_c, 0, 59, 75
1, 55557, Note_on_c, 0, 59, 0
1, 55558, Note_on_c, 0, 57, 75
1, 55570, Note_on_c, 0, 57, 0
1, 55571, Note_on_c, 0, 59, 75
1, 55577, Note_on_c, 1, 40, 0
1, 55583, Note_on_c, 0, 59, 0
1, 55584, Note_on_c, 0, 57, 75
1, 55584, Note_on_c, 1, 45, 75
1, 55673, Note_on_c, 1, 45, 0
1, 55680, Note_on_c, 1, 40, 75
1, 55761, Note_on_c, 0, 57, 0
1, 55769, Note_on_c, 1, 40, 0
1, 55776, Note_on_c, 1, 33, 75
1, 55865, Note_on_c, 1, 33, 0
1, 55872, Note_on_c, 0, 62, 91
1, 55872, Note_on_c, 1, 50, 91
1, 55872, Note_on_c, 1, 38, 91
1, 55968, Note_on_c, 0, 62, 0
1, 55968, Note_on_c, 0, 66, 75
1, 55986, Note_on_c, 0, 66, 0
1, 55986, Note_on_c, 0, 67, 75
1, 56004, Note_on_c, 0, 67, 0
1, 56004, Note_on_c, 0, 66, 75
1, 56035, Note_on_c, 0, 66, 0
1, 56040, Note_on_c, 0, 64, 75
1, 56063, Note_on_c, 0, 64, 0
1, 56064, Note_on_c, 0, 66, 75
1, 56064, Note_on_c, 1, 50, 0
1, 56064, Note_on_c, 1, 38, 0
1, 56064, Note_on_c, 1, 52, 75
1, 56064, Note_on_c, 1, 40, 75
1, 56131, Note_on_c, 0, 66, 0
1, 56136, Note_on_c, 0, 67, 75
1, 56153, Note_on_c, 1, 52, 0
1, 56153, Note_on_c, 1, 40, 0
1, 56159, Note_on_c, 0, 67, 0
1, 56160, Note_on_c, 0, 69, 75
1, 56160, Note_on_c, 1, 54, 75
1, 56160, Note_on_c, 1, 42, 75
1, 56249, Note_on_c, 0, 69, 0
1, 56249, Note_on_c, 1, 54, 0
1, 56249, Note_on_c, 1, 42, 0
1, 56256, Note_on_c, 0, 66, 75
1, 56256, Note_on_c, 1, 50, 75
1, 56256, Note_on_c, 1, 38, 75
1, 56274, Note_on_c, 0, 66, 0
1, 56274, Note_on_c, 0, 67, 75
1, 56292, Note_on_c, 0, 67, 0
1, 56292, Note_on_c, 0, 66, 75
1, 56323, Note_on_c, 0, 66, 0
1, 56328, Note_on_c, 0, 64, 75
1, 56345, Note_on_c, 1, 50, 0
1, 56345, Note_on_c, 1, 38, 0
1, 56351, Note_on_c, 0, 64, 0
1, 56352, Note_on_c, 0, 66, 75
1, 56352, Note_on_c, 1, 52, 75
1, 56352, Note_on_c, 1, 40, 75
1, 56419, Note_on_c, 0, 66, 0
1, 56424, Note_on_c, 0, 67, 75
1, 56441, Note_on_c, 1, 52, 0
1, 56441, Note_on_c, 1, 40, 0
1, 56447, Note_on_c, 0, 67, 0
1, 56448, Note_on_c, 0, 69, 75
1, 56448, Note_on_c, 1, 54, 75
1, 56448, Note_on_c, 1, 42, 75
1, 56537, Note_on_c, 0, 69, 0
1, 56544, Note_on_c, 0, 57, 75
1, 56574, Note_on_c, 0, 57, 0
1, 56576, Note_on_c, 0, 62, 75
1, 56606, Note_on_c, 0, 62, 0
1, 56608, Note_on_c, 0, 66, 75
1, 56625, Note_on_c, 1, 54, 0
1, 56625, Note_on_c, 1, 42, 0
1, 56638, Note_on_c, 0, 66, 0
1, 56640, Note_on_c, 0, 64, 75
1, 56640, Note_on_c, 1, 50, 75
1, 56663, Note_on_c, 0, 64, 0
1, 56664, Note_on_c, 0, 62, 75
1, 56687, Note_on_c, 0, 62, 0
1, 56688, Note_on_c, 0, 61, 75
1, 56711, Note_on_c, 0, 61, 0
1, 56712, Note_on_c, 0, 59, 75
1, 56729, Note_on_c, 1, 50, 0
1, 56735, Note_on_c, 0, 59, 0
1, 56736, Note_on_c, 0, 57, 75
1, 56736, Note_on_c, 1, 52, 75
1, 56825, Note_on_c, 0, 57, 0
1, 56825, Note_on_c, 1, 52, 0
1, 56832, Note_on_c, 0, 55, 75
1, 56832, Note_on_c, 1, 45, 75
1, 56845, Note_on_c, 0, 55, 0
1, 56846, Note_on_c, 0, 57, 75
1, 56859, Note_on_c, 0, 57, 0
1, 56860, Note_on_c, 0, 55, 75
1, 56873, Note_on_c, 0, 55, 0
1, 56874, Note_on_c, 0, 57, 75
1, 56887, Note_on_c, 0, 57, 0
1, 56888, Note_on_c, 0, 55, 75
1, 56901, Note_on_c, 0, 55, 0
1, 56902, Note_on_c, 0, 54, 75
1, 56914, Note_on_c, 0, 54, 0
1, 56915, Note_on_c, 0, 55, 75
1, 56921, Note_on_c, 1, 45, 0
1, 56927, Note_on_c, 0, 55, 0
1, 56928, Note_on_c, 0, 54, 75
1, 56928, Note_on_c, 1, 50, 75
1, 57017, Note_on_c, 0, 54, 0
1, 57017, Note_on_c, 1, 50, 0
1, 57024, Note_on_c, 0, 59, 75
1, 57024, Note_on_c, 1, 43, 75
1, 57042, Note_on_c, 0, 59, 0
1, 57042, Note_on_c, 0, 61, 75
1, 57060, Note_on_c, 0, 61, 0
1, 57060, Note_on_c, 0, 59, 75
1, 57091, Note_on_c, 0, 59, 0
1, 57096, Note_on_c, 0, 57, 75
1, 57113, Note_on_c, 1, 43, 0
1, 57119, Note_on_c, 0, 57, 0
1, 57120, Note_on_c, 0, 59, 75
1, 57120, Note_on_c, 1, 55, 75
1, 57187, Note_on_c, 0, 59, 0
1, 57192, Note_on_c, 0, 61, 75
1, 57209, Note_on_c, 1, 55, 0
1, 57215, Note_on_c, 0, 61, 0
1, 57216, Note_on_c, 0, 62, 75
1, 57216, Note_on_c, 1, 54, 75
1, 57283, Note_on_c, 0, 62, 0
1, 57288, Note_on_c, 0, 57, 75
1, 57305, Note_on_c, 1, 54, 0
1, 57311, Note_on_c, 0, 57, 0
1, 57312, Note_on_c, 0, 57, 75
1, 57312, Note_on_c, 1, 52, 75
1, 57379, Note_on_c, 0, 57, 0
1, 57384, Note_on_c, 0, 55, 75
1, 57401, Note_on_c, 1, 52, 0
1, 57407, Note_on_c, 0, 55, 0
1, 57408, Note_on_c, 0, 67, 75
1, 57408, Note_on_c, 1, 45, 75
1, 57438, Note_on_c, 0, 67, 0
1, 57440, Note_on_c, 0, 64, 75
1, 57470, Note_on_c, 0, 64, 0
1, 57472, Note_on_c, 0, 61, 75
1, 57497, Note_on_c, 1, 45, 0
1, 57502, Note_on_c, 0, 61, 0
1, 57504, Note_on_c, 0, 62, 75
1, 57504, Note_on_c, 1, 50, 75
1, 57522, Note_on_c, 0, 62, 0
1, 57522, Note_on_c, 0, 61, 75
1, 57540, Note_on_c, 0, 61, 0
1, 57540, Note_on_c, 0, 62, 75
1, 57593, Note_on_c, 0, 62, 0
1, 57593, Note_on_c, 1, 50, 0
1, 57600, Note_on_c, 0, 59, 75
1, 57600, Note_on_c, 1, 43, 75
1, 57689, Note_on_c, 0, 59, 0
1, 57689, Note_on_c, 1, 43, 0
1, 57696, Note_on_c, 0, 70, 75
1, 57696, Note_on_c, 1, 55, 75
1, 57726, Note_on_c, 0, 70, 0
1, 57728, Note_on_c, 0, 71, 76
1, 57758, Note_on_c, 0, 71, 0
1, 57760, Note_on_c, 0, 69, 78
1, 57785, Note_on_c, 1, 55, 0
1, 57790, Note_on_c, 0, 69, 0
1, 57792, Note_on_c, 0, 67, 79
1, 57792, Note_on_c, 1, 55, 75
1, 57822, Note_on_c, 0, 67, 0
1, 57824, Note_on_c, 0, 66, 78
1, 57854, Note_on_c, 0, 66, 0
1, 57856, Note_on_c, 0, 64, 77
1, 57881, Note_on_c, 1, 55, 0
1, 57886, Note_on_c, 0, 64, 0
1, 57888, Note_on_c, 0, 62, 75
1, 57888, Note_on_c, 1, 57, 75
1, 57977, Note_on_c, 1, 57, 0
1, 57984, Note_on_c, 1, 52, 75
1, 58073, Note_on_c, 1, 52, 0
1, 58080, Note_on_c, 0, 62, 0
1, 58080, Note_on_c, 0, 61, 75
1, 58080, Note_on_c, 1, 45, 75
1, 58169, Note_on_c, 0, 61, 0
1, 58169, Note_on_c, 1, 45, 0
1, 58176, Note_on_c, 0, 81, 75
1, 58176, Note_on_c, 1, 57, 75
1, 58206, Note_on_c, 0, 81, 0
1, 58208, Note_on_c, 0, 85, 76
1, 58238, Note_on_c, 0, 85, 0
1, 58240, Note_on_c, 0, 88, 78
1, 58265, Note_on_c, 1, 57, 0
1, 58270, Note_on_c, 0, 88, 0
1, 58272, Note_on_c, 0, 86, 79
1, 58272, Note_on_c, 1, 61, 75
1, 58302, Note_on_c, 0, 86, 0
1, 58304, Note_on_c, 0, 85, 78
1, 58334, Note_on_c, 0, 85, 0
1, 58336, Note_on_c, 0, 83, 77
1, 58361, Note_on_c, 1, 61, 0
1, 58366, Note_on_c, 0, 83, 0
1, 58368, Note_on_c, 0, 81, 75
1, 58368, Note_on_c, 1, 62, 75
1, 58398, Note_on_c, 0, 81, 0
1, 58400, Note_on_c, 0, 80, 75
1, 58430, Note_on_c, 0, 80, 0
1, 58432, Note_on_c, 0, 78, 75
1, 58457, Note_on_c, 1, 62, 0
1, 58464, Note_on_c, 1, 61, 75
1, 58509, Note_on_c, 0, 78, 0
1, 58512, Note_on_c, 0, 76, 75
1, 58553, Note_on_c, 1, 61, 0
1, 58560, Note_on_c, 1, 59, 75
1, 58601, Note_on_c, 0, 76, 0
1, 58608, Note_on_c, 0, 74, 75
1, 58649, Note_on_c, 1, 59, 0
1, 58656, Note_on_c, 1, 57, 75
1, 58697, Note_on_c, 0, 74, 0
1, 58704, Note_on_c, 0, 73, 75
1, 58745, Note_on_c, 1, 57, 0
1, 58749, Note_on_c, 0, 73, 0
1, 58752, Note_on_c, 0, 71, 75
1, 58752, Note_on_c, 1, 62, 75
1, 58782, Note_on_c, 0, 71, 0
1, 58784, Note_on_c, 0, 74, 75
1, 58814, Note_on_c, 0, 74, 0
1, 58816, Note_on_c, 0, 73, 76
1, 58841, Note_on_c, 1, 62, 0
1, 58846, Note_on_c, 0, 73, 0
1, 58848, Note_on_c, 0, 74, 77
1, 58848, Note_on_c, 1, 59, 75
1, 58878, Note_on_c, 0, 74, 0
1, 58880, Note_on_c, 0, 78, 78
1, 58910, Note_on_c, 0, 78, 0
1, 58912, Note_on_c, 0, 76, 79
1, 58937, Note_on_c, 1, 59, 0
1, 58942, Note_on_c, 0, 76, 0
1, 58944, Note_on_c, 0, 74, 79
1, 58944, Note_on_c, 1, 62, 75
1, 58974, Note_on_c, 0, 74, 0
1, 58976, Note_on_c, 0, 73, 77
1, 59006, Note_on_c, 0, 73, 0
1, 59008, Note_on_c, 0, 71, 76
1, 59033, Note_on_c, 1, 62, 0
1, 59038, Note_on_c, 0, 71, 0
1, 59040, Note_on_c, 0, 69, 75
1, 59040, Note_on_c, 1, 64, 75
1, 59085, Note_on_c, 0, 69, 0
1, 59088, Note_on_c, 0, 68, 75
1, 59129, Note_on_c, 1, 64, 0
1, 59136, Note_on_c, 1, 62, 75
1, 59177, Note_on_c, 0, 68, 0
1, 59184, Note_on_c, 0, 71, 75
1, 59225, Note_on_c, 1, 62, 0
1, 59232, Note_on_c, 1, 61, 75
1, 59273, Note_on_c, 0, 71, 0
1, 59280, Note_on_c, 0, 69, 75
1, 59321, Note_on_c, 1, 61, 0
1, 59325, Note_on_c, 0, 69, 0
1, 59328, Note_on_c, 0, 64, 75
1, 59328, Note_on_c, 1, 56, 75
1, 59358, Note_on_c, 0, 64, 0
1, 59360, Note_on_c, 0, 74, 76
1, 59390, Note_on_c, 0, 74, 0
1, 59392, Note_on_c, 0, 73, 78
1, 59417, Note_on_c, 1, 56, 0
1, 59422, Note_on_c, 0, 73, 0
1, 59424, Note_on_c, 0, 74, 79
1, 59424, Note_on_c, 1, 59, 75
1, 59454, Note_on_c, 0, 74, 0
1, 59456, Note_on_c, 0, 71, 78
1, 59486, Note_on_c, 0, 71, 0
1, 59488, Note_on_c, 0, 68, 77
1, 59513, Note_on_c, 1, 59, 0
1, 59518, Note_on_c, 0, 68, 0
1, 59520, Note_on_c, 0, 69, 75
1, 59520, Note_on_c, 1, 61, 75
1, 59538, Note_on_c, 0, 69, 0
1, 59538, Note_on_c, 0, 68, 75
1, 59556, Note_on_c, 0, 68, 0
1, 59556, Note_on_c, 0, 69, 75
1, 59609, Note_on_c, 0, 69, 0
1, 59609, Note_on_c, 1, 61, 0
1, 59616, Note_on_c, 0, 64, 64
1, 59616, Note_on_c, 1, 56, 64
1, 59646, Note_on_c, 0, 64, 0
1, 59648, Note_on_c, 0, 74, 67
1, 59678, Note_on_c, 0, 74, 0
1, 59680, Note_on_c, 0, 73, 70
1, 59705, Note_on_c, 1, 56, 0
1, 59710, Note_on_c, 0, 73, 0
1, 59712, Note_on_c, 0, 74, 74
1, 59712, Note_on_c, 1, 59, 64
1, 59742, Note_on_c, 0, 74, 0
1, 59744, Note_on_c, 0, 71, 72
1, 59774, Note_on_c, 0, 71, 0
1, 59776, Note_on_c, 0, 68, 68
1, 59801, Note_on_c, 1, 59, 0
1, 59806, Note_on_c, 0, 68, 0
1, 59808, Note_on_c, 0, 69, 64
1, 59808, Note_on_c, 1, 61, 64
1, 59826, Note_on_c, 0, 69, 0
1, 59826, Note_on_c, 0, 68, 64
1, 59844, Note_on_c, 0, 68, 0
1, 59844, Note_on_c, 0, 69, 64
1, 59897, Note_on_c, 0, 69, 0
1, 59897, Note_on_c, 1, 61, 0
1, 59904, Note_on_c, 0, 66, 75
1, 59904, Note_on_c, 1, 62, 75
1, 59904, Note_on_c, 1, 50, 75
1, 59934, Note_on_c, 0, 66, 0
1, 59936, Note_on_c, 0, 71, 75
1, 59966, Note_on_c, 0, 71, 0
1, 59968, Note_on_c, 0, 70, 75
1, 59993, Note_on_c, 1, 62, 0
1, 59993, Note_on_c, 1, 50, 0
1, 59998, Note_on_c, 0, 70, 0
1, 60000, Note_on_c, 0, 71, 75
1, 60030, Note_on_c, 0, 71, 0
1, 60032, Note_on_c, 0, 74, 75
1, 60062, Note_on_c, 0, 74, 0
1, 60064, Note_on_c, 0, 73, 76
1, 60094, Note_on_c, 0, 73, 0
1, 60096, Note_on_c, 0, 74, 77
1, 60126, Note_on_c, 0, 74, 0
1, 60128, Note_on_c, 0, 76, 77
1, 60158, Note_on_c, 0, 76, 0
1, 60160, Note_on_c, 0, 78, 78
1, 60190, Note_on_c, 0, 78, 0
1, 60192, Note_on_c, 0, 76, 79
1, 60192, Note_on_c, 1, 49, 75
1, 60192, Note_on_c, 1, 37, 75
1, 60222, Note_on_c, 0, 76, 0
1, 60224, Note_on_c, 0, 74, 79
1, 60254, Note_on_c, 0, 74, 0
1, 60256, Note_on_c, 0, 73, 79
1, 60281, Note_on_c, 1, 49, 0
1, 60281, Note_on_c, 1, 37, 0
1, 60286, Note_on_c, 0, 73, 0
1, 60288, Note_on_c, 0, 71, 79
1, 60318, Note_on_c, 0, 71, 0
1, 60320, Note_on_c, 0, 69, 78
1, 60350, Note_on_c, 0, 69, 0
1, 60352, Note_on_c, 0, 68, 77
1, 60382, Note_on_c, 0, 68, 0
1, 60384, Note_on_c, 0, 69, 77
1, 60414, Note_on_c, 0, 69, 0
1, 60416, Note_on_c, 0, 64, 76
1, 60446, Note_on_c, 0, 64, 0
1, 60448, Note_on_c, 0, 61, 76
1, 60478, Note_on_c, 0, 61, 0
1, 60480, Note_on_c, 0, 66, 75
1, 60480, Note_on_c, 1, 50, 75
1, 60480, Note_on_c, 1, 38, 75
1, 60510, Note_on_c, 0, 66, 0
1, 60512, Note_on_c, 0, 64, 75
1, 60542, Note_on_c, 0, 64, 0
1, 60544, Note_on_c, 0, 62, 75
1, 60569, Note_on_c, 1, 50, 0
1, 60569, Note_on_c, 1, 38, 0
1, 60574, Note_on_c, 0, 62, 0
1, 60576, Note_on_c, 0, 61, 75
1, 60576, Note_on_c, 1, 52, 75
1, 60665, Note_on_c, 0, 61, 0
1, 60665, Note_on_c, 1, 52, 0
1, 60672, Note_on_c, 0, 59, 75
1, 60672, Note_on_c, 1, 40, 75
1, 60685, Note_on_c, 0, 59, 0
1, 60686, Note_on_c, 0, 61, 75
1, 60699, Note_on_c, 0, 61, 0
1, 60700, Note_on_c, 0, 59, 75
1, 60713, Note_on_c, 0, 59, 0
1, 60714, Note_on_c, 0, 61, 75
1, 60727, Note_on_c, 0, 61, 0
1, 60728, Note_on_c, 0, 59, 75
1, 60741, Note_on_c, 0, 59, 0
1, 60742, Note_on_c, 0, 57, 75
1, 60754, Note_on_c, 0, 57, 0
1, 60755, Note_on_c, 0, 59, 75
1, 60761, Note_on_c, 1, 40, 0
1, 60767, Note_on_c, 0, 59, 0
1, 60768, Note_on_c, 0, 57, 75
1, 60768, Note_on_c, 1, 45, 75
1, 60857, Note_on_c, 1, 45, 0
1, 60864, Note_on_c, 1, 40, 75
1, 60945, Note_on_c, 0, 57, 0
1, 60953, Note_on_c, 1, 40, 0
1, 60960, Note_on_c, 1, 33, 75
1, 61049, Note_on_c, 1, 33, 0
1, 61056, Note_on_c, 0, 57, 75
1, 61056, Note_on_c, 1, 45, 75
1, 61056, Note_on_c, 1, 33, 75
1, 61145, Note_on_c, 0, 57, 0
1, 61145, Note_on_c, 1, 45, 0
1, 61145, Note_on_c, 1, 33, 0
1, 61152, Note_on_c, 0, 61, 75
1, 61152, Note_on_c, 1, 45, 75
1, 61152, Note_on_c, 1, 45, 64
1, 61170, Note_on_c, 0, 61, 0
1, 61170, Note_on_c, 0, 62, 75
1, 61188, Note_on_c, 0, 62, 0
1, 61188, Note_on_c, 0, 61, 75
1, 61219, Note_on_c, 0, 61, 0
1, 61224, Note_on_c, 0, 59, 75
1, 61241, Note_on_c, 1, 45, 0
1, 61247, Note_on_c, 0, 59, 0
1, 61248, Note_on_c, 0, 61, 75
1, 61248, Note_on_c, 1, 47, 75
1, 61315, Note_on_c, 0, 61, 0
1, 61320, Note_on_c, 0, 62, 75
1, 61329, Note_on_c, 1, 45, 0
1, 61337, Note_on_c, 1, 47, 0
1, 61343, Note_on_c, 0, 62, 0
1, 61344, Note_on_c, 0, 64, 75
1, 61344, Note_on_c, 1, 49, 75
1, 61344, Note_on_c, 1, 45, 64
1, 61374, Note_on_c, 0, 64, 0
1, 61376, Note_on_c, 0, 61, 75
1, 61406, Note_on_c, 0, 61, 0
1, 61408, Note_on_c, 0, 57, 75
1, 61433, Note_on_c, 1, 49, 0
1, 61438, Note_on_c, 0, 57, 0
1, 61440, Note_on_c, 0, 67, 75
1, 61440, Note_on_c, 1, 52, 75
1, 61470, Note_on_c, 0, 67, 0
1, 61472, Note_on_c, 0, 64, 75
1, 61502, Note_on_c, 0, 64, 0
1, 61504, Note_on_c, 0, 61, 75
1, 61529, Note_on_c, 1, 52, 0
1, 61534, Note_on_c, 0, 61, 0
1, 61536, Note_on_c, 0, 62, 75
1, 61536, Note_on_c, 1, 54, 75
1, 61554, Note_on_c, 0, 62, 0
1, 61554, Note_on_c, 0, 61, 75
1, 61572, Note_on_c, 0, 61, 0
1, 61572, Note_on_c, 0, 62, 75
1, 61609, Note_on_c, 1, 45, 0
1, 61625, Note_on_c, 0, 62, 0
1, 61625, Note_on_c, 1, 54, 0
1, 61632, Note_on_c, 0, 57, 64
1, 61632, Note_on_c, 1, 45, 64
1, 61632, Note_on_c, 1, 33, 64
1, 61721, Note_on_c, 0, 57, 0
1, 61721, Note_on_c, 1, 45, 0
1, 61721, Note_on_c, 1, 33, 0
1, 61728, Note_on_c, 0, 61, 64
1, 61728, Note_on_c, 1, 45, 64
1, 61728, Note_on_c, 1, 45, 64
1, 61746, Note_on_c, 0, 61, 0
1, 61746, Note_on_c, 0, 62, 64
1, 61764, Note_on_c, 0, 62, 0
1, 61764, Note_on_c, 0, 61, 64
1, 61795, Note_on_c, 0, 61, 0
1, 61800, Note_on_c, 0, 59, 64
1, 61817, Note_on_c, 1, 45, 0
1, 61823, Note_on_c, 0, 59, 0
1, 61824, Note_on_c, 0, 61, 64
1, 61824, Note_on_c, 1, 47, 64
1, 61891, Note_on_c, 0, 61, 0
1, 61896, Note_on_c, 0, 62, 64
1, 61905, Note_on_c, 1, 45, 0
1, 61913, Note_on_c, 1, 47, 0
1, 61919, Note_on_c, 0, 62, 0
1, 61920, Note_on_c, 0, 64, 64
1, 61920, Note_on_c, 1, 49, 64
1, 61920, Note_on_c, 1, 45, 64
1, 61950, Note_on_c, 0, 64, 0
1, 61952, Note_on_c, 0, 61, 64
1, 61982, Note_on_c, 0, 61, 0
1, 61984, Note_on_c, 0, 57, 64
1, 62009, Note_on_c, 1, 49, 0
1, 62014, Note_on_c, 0, 57, 0
1, 62016, Note_on_c, 0, 67, 64
1, 62016, Note_on_c, 1, 52, 64
1, 62046, Note_on_c, 0, 67, 0
1, 62048, Note_on_c, 0, 64, 64
1, 62078, Note_on_c, 0, 64, 0
1, 62080, Note_on_c, 0, 61, 64
1, 62105, Note_on_c, 1, 52, 0
1, 62110, Note_on_c, 0, 61, 0
1, 62112, Note_on_c, 0, 62, 64
1, 62112, Note_on_c, 1, 54, 64
1, 62130, Note_on_c, 0, 62, 0
1, 62130, Note_on_c, 0, 61, 64
1, 62148, Note_on_c, 0, 61, 0
1, 62148, Note_on_c, 0, 62, 64
1, 62185, Note_on_c, 1, 45, 0
1, 62201, Note_on_c, 0, 62, 0
1, 62201, Note_on_c, 1, 54, 0
1, 62208, Note_on_c, 0, 59, 75
1, 62208, Note_on_c, 1, 43, 75
1, 62297, Note_on_c, 0, 59, 0
1, 62297, Note_on_c, 1, 43, 0
1, 62304, Note_on_c, 0, 70, 75
1, 62304, Note_on_c, 1, 55, 75
1, 62334, Note_on_c, 0, 70, 0
1, 62336, Note_on_c, 0, 71, 75
1, 62366, Note_on_c, 0, 71, 0
1, 62368, Note_on_c, 0, 69, 75
1, 62393, Note_on_c, 1, 55, 0
1, 62398, Note_on_c, 0, 69, 0
1, 62400, Note_on_c, 0, 67, 75
1, 62430, Note_on_c, 0, 67, 0
1, 62432, Note_on_c, 0, 66, 75
1, 62462, Note_on_c, 0, 66, 0
1, 62464, Note_on_c, 0, 64, 75
1, 62494, Note_on_c, 0, 64, 0
1, 62496, Note_on_c, 0, 57, 75
1, 62496, Note_on_c, 1, 42, 75
1, 62585, Note_on_c, 0, 57, 0
1, 62585, Note_on_c, 1, 42, 0
1, 62592, Note_on_c, 0, 68, 75
1, 62592, Note_on_c, 1, 54, 75
1, 62622, Note_on_c, 0, 68, 0
1, 62624, Note_on_c, 0, 69, 75
1, 62654, Note_on_c, 0, 69, 0
1, 62656, Note_on_c, 0, 67, 75
1, 62681, Note_on_c, 1, 54, 0
1, 62686, Note_on_c, 0, 67, 0
1, 62688, Note_on_c, 0, 66, 75
1, 62718, Note_on_c, 0, 66, 0
1, 62720, Note_on_c, 0, 64, 75
1, 62750, Note_on_c, 0, 64, 0
1, 62752, Note_on_c, 0, 62, 75
1, 62782, Note_on_c, 0, 62, 0
1, 62784, Note_on_c, 0, 63, 75
1, 62784, Note_on_c, 1, 55, 75
1, 62784, Note_on_c, 1, 43, 75
1, 62873, Note_on_c, 0, 63, 0
1, 62880, Note_on_c, 0, 64, 75
1, 62947, Note_on_c, 0, 64, 0
1, 62952, Note_on_c, 0, 67, 75
1, 62961, Note_on_c, 1, 55, 0
1, 62961, Note_on_c, 1, 43, 0
1, 62975, Note_on_c, 0, 67, 0
1, 62976, Note_on_c, 0, 59, 75
1, 62976, Note_on_c, 1, 56, 75
1, 63043, Note_on_c, 0, 59, 0
1, 63048, Note_on_c, 0, 64, 75
1, 63065, Note_on_c, 1, 56, 0
1, 63071, Note_on_c, 0, 64, 0
1, 63072, Note_on_c, 0, 62, 75
1, 63072, Note_on_c, 1, 57, 75
1, 63161, Note_on_c, 1, 57, 0
1, 63168, Note_on_c, 1, 52, 75
1, 63249, Note_on_c, 0, 62, 0
1, 63257, Note_on_c, 1, 52, 0
1, 63264, Note_on_c, 0, 61, 75
1, 63264, Note_on_c, 1, 45, 75
1, 63353, Note_on_c, 0, 61, 0
1, 63353, Note_on_c, 1, 45, 0
1, 63360, Note_on_c, 0, 74, 75
1, 63360, Note_on_c, 1, 62, 75
1, 63390, Note_on_c, 0, 74, 0
1, 63392, Note_on_c, 0, 78, 76
1, 63422, Note_on_c, 0, 78, 0
1, 63424, Note_on_c, 0, 81, 78
1, 63449, Note_on_c, 1, 62, 0
1, 63454, Note_on_c, 0, 81, 0
1, 63456, Note_on_c, 0, 79, 79
1, 63456, Note_on_c, 1, 66, 75
1, 63486, Note_on_c, 0, 79, 0
1, 63488, Note_on_c, 0, 78, 78
1, 63518, Note_on_c, 0, 78, 0
1, 63520, Note_on_c, 0, 76, 77
1, 63545, Note_on_c, 1, 66, 0
1, 63550, Note_on_c, 0, 76, 0
1, 63552, Note_on_c, 0, 74, 75
1, 63552, Note_on_c, 1, 67, 75
1, 63582, Note_on_c, 0, 74, 0
1, 63584, Note_on_c, 0, 73, 75
1, 63614, Note_on_c, 0, 73, 0
1, 63616, Note_on_c, 0, 71, 75
1, 63641, Note_on_c, 1, 67, 0
1, 63648, Note_on_c, 1, 66, 75
1, 63693, Note_on_c, 0, 71, 0
1, 63696, Note_on_c, 0, 69, 75
1, 63737, Note_on_c, 1, 66, 0
1, 63744, Note_on_c, 1, 64, 75
1, 63785, Note_on_c, 0, 69, 0
1, 63792, Note_on_c, 0, 67, 75
1, 63833, Note_on_c, 1, 64, 0
1, 63840, Note_on_c, 1, 62, 75
1, 63881, Note_on_c, 0, 67, 0
1, 63888, Note_on_c, 0, 66, 75
1, 63929, Note_on_c, 1, 62, 0
1, 63933, Note_on_c, 0, 66, 0
1, 63936, Note_on_c, 0, 64, 75
1, 63936, Note_on_c, 1, 55, 75
1, 63966, Note_on_c, 0, 64, 0
1, 63968, Note_on_c, 0, 67, 75
1, 63998, Note_on_c, 0, 67, 0
1, 64000, Note_on_c, 0, 66, 76
1, 64025, Note_on_c, 1, 55, 0
1, 64030, Note_on_c, 0, 66, 0
1, 64032, Note_on_c, 0, 67, 77
1, 64032, Note_on_c, 1, 52, 75
1, 64062, Note_on_c, 0, 67, 0
1, 64064, Note_on_c, 0, 71, 78
1, 64094, Note_on_c, 0, 71, 0
1, 64096, Note_on_c, 0, 69, 79
1, 64121, Note_on_c, 1, 52, 0
1, 64126, Note_on_c, 0, 69, 0
1, 64128, Note_on_c, 0, 67, 79
1, 64128, Note_on_c, 1, 55, 75
1, 64158, Note_on_c, 0, 67, 0
1, 64160, Note_on_c, 0, 66, 77
1, 64190, Note_on_c, 0, 66, 0
1, 64192, Note_on_c, 0, 64, 76
1, 64217, Note_on_c, 1, 55, 0
1, 64222, Note_on_c, 0, 64, 0
1, 64224, Note_on_c, 0, 62, 75
1, 64224, Note_on_c, 1, 57, 75
1, 64269, Note_on_c, 0, 62, 0
1, 64272, Note_on_c, 0, 61, 75
1, 64313, Note_on_c, 1, 57, 0
1, 64320, Note_on_c, 1, 55, 75
1, 64361, Note_on_c, 0, 61, 0
1, 64368, Note_on_c, 0, 64, 75
1, 64409, Note_on_c, 1, 55, 0
1, 64416, Note_on_c, 1, 54, 75
1, 64457, Note_on_c, 0, 64, 0
1, 64464, Note_on_c, 0, 62, 75
1, 64505, Note_on_c, 1, 54, 0
1, 64509, Note_on_c, 0, 62, 0
1, 64512, Note_on_c, 0, 57, 75
1, 64512, Note_on_c, 1, 49, 75
1, 64542, Note_on_c, 0, 57, 0
1, 64544, Note_on_c, 0, 67, 76
1, 64574, Note_on_c, 0, 67, 0
1, 64576, Note_on_c, 0, 66, 78
1, 64601, Note_on_c, 1, 49, 0
1, 64606, Note_on_c, 0, 66, 0
1, 64608, Note_on_c, 0, 67, 79
1, 64608, Note_on_c, 1, 52, 75
1, 64638, Note_on_c, 0, 67, 0
1, 64640, Note_on_c, 0, 64, 78
1, 64670, Note_on_c, 0, 64, 0
1, 64672, Note_on_c, 0, 61, 77
1, 64697, Note_on_c, 1, 52, 0
1, 64702, Note_on_c, 0, 61, 0
1, 64704, Note_on_c, 0, 62, 75
1, 64704, Note_on_c, 1, 54, 75
1, 64722, Note_on_c, 0, 62, 0
1, 64722, Note_on_c, 0, 61, 75
1, 64740, Note_on_c, 0, 61, 0
1, 64740, Note_on_c, 0, 62, 75
1, 64793, Note_on_c, 0, 62, 0
1, 64793, Note_on_c, 1, 54, 0
1, 64800, Note_on_c, 0, 57, 64
1, 64800, Note_on_c, 1, 49, 64
1, 64830, Note_on_c, 0, 57, 0
1, 64832, Note_on_c, 0, 67, 64
1, 64862, Note_on_c, 0, 67, 0
1, 64864, Note_on_c, 0, 66, 69
1, 64889, Note_on_c, 1, 49, 0
1, 64894, Note_on_c, 0, 66, 0
1, 64896, Note_on_c, 0, 67, 74
1, 64896, Note_on_c, 1, 52, 64
1, 64926, Note_on_c, 0, 67, 0
1, 64928, Note_on_c, 0, 64, 72
1, 64958, Note_on_c, 0, 64, 0
1, 64960, Note_on_c, 0, 61, 68
1, 64985, Note_on_c, 1, 52, 0
1, 64990, Note_on_c, 0, 61, 0
1, 64992, Note_on_c, 0, 62, 64
1, 64992, Note_on_c, 1, 54, 64
1, 65010, Note_on_c, 0, 62, 0
1, 65010, Note_on_c, 0, 61, 64
1, 65028, Note_on_c, 0, 61, 0
1, 65028, Note_on_c, 0, 62, 64
1, 65081, Note_on_c, 0, 62, 0
1, 65081, Note_on_c, 1, 54, 0
1, 65088, Note_on_c, 0, 59, 75
1, 65088, Note_on_c, 1, 55, 64
1, 65088, Note_on_c, 1, 43, 64
1, 65118, Note_on_c, 0, 59, 0
1, 65120, Note_on_c, 0, 64, 75
1, 65150, Note_on_c, 0, 64, 0
1, 65152, Note_on_c, 0, 63, 75
1, 65182, Note_on_c, 0, 63, 0
1, 65184, Note_on_c, 0, 64, 75
1, 65214, Note_on_c, 0, 64, 0
1, 65216, Note_on_c, 0, 67, 75
1, 65246, Note_on_c, 0, 67, 0
1, 65248, Note_on_c, 0, 66, 76
1, 65265, Note_on_c, 1, 55, 0
1, 65265, Note_on_c, 1, 43, 0
1, 65278, Note_on_c, 0, 66, 0
1, 65280, Note_on_c, 0, 67, 77
1, 65310, Note_on_c, 0, 67, 0
1, 65312, Note_on_c, 0, 69, 78
1, 65342, Note_on_c, 0, 69, 0
1, 65344, Note_on_c, 0, 71, 78
1, 65374, Note_on_c, 0, 71, 0
1, 65376, Note_on_c, 0, 69, 79
1, 65376, Note_on_c, 1, 54, 64
1, 65376, Note_on_c, 1, 42, 64
1, 65406, Note_on_c, 0, 69, 0
1, 65408, Note_on_c, 0, 67, 79
1, 65438, Note_on_c, 0, 67, 0
1, 65440, Note_on_c, 0, 66, 79
1, 65470, Note_on_c, 0, 66, 0
1, 65472, Note_on_c, 0, 64, 78
1, 65502, Note_on_c, 0, 64, 0
1, 65504, Note_on_c, 0, 62, 78
1, 65534, Note_on_c, 0, 62, 0
1, 65536, Note_on_c, 0, 61, 77
1, 65553, Note_on_c, 1, 54, 0
1, 65553, Note_on_c, 1, 42, 0
1, 65566, Note_on_c, 0, 61, 0
1, 65568, Note_on_c, 0, 62, 77
1, 65657, Note_on_c, 0, 62, 0
1, 65664, Note_on_c, 0, 71, 75
1, 65664, Note_on_c, 1, 55, 64
1, 65664, Note_on_c, 1, 43, 64
1, 65694, Note_on_c, 0, 71, 0
1, 65696, Note_on_c, 0, 76, 75
1, 65726, Note_on_c, 0, 76, 0
1, 65728, Note_on_c, 0, 75, 75
1, 65758, Note_on_c, 0, 75, 0
1, 65760, Note_on_c, 0, 76, 75
1, 65790, Note_on_c, 0, 76, 0
1, 65792, Note_on_c, 0, 79, 75
1, 65822, Note_on_c, 0, 79, 0
1, 65824, Note_on_c, 0, 78, 76
1, 65841, Note_on_c, 1, 55, 0
1, 65841, Note_on_c, 1, 43, 0
1, 65854, Note_on_c, 0, 78, 0
1, 65856, Note_on_c, 0, 79, 77
1, 65886, Note_on_c, 0, 79, 0
1, 65888, Note_on_c, 0, 81, 77
1, 65918, Note_on_c, 0, 81, 0
1, 65920, Note_on_c, 0, 83, 78
1, 65950, Note_on_c, 0, 83, 0
1, 65952, Note_on_c, 0, 81, 79
1, 65952, Note_on_c, 1, 54, 64
1, 65952, Note_on_c, 1, 42, 64
1, 65982, Note_on_c, 0, 81, 0
1, 65984, Note_on_c, 0, 79, 79
1, 66014, Note_on_c, 0, 79, 0
1, 66016, Note_on_c, 0, 78, 79
1, 66046, Note_on_c, 0, 78, 0
1, 66048, Note_on_c, 0, 76, 79
1, 66078, Note_on_c, 0, 76, 0
1, 66080, Note_on_c, 0, 74, 78
1, 66110, Note_on_c, 0, 74, 0
1, 66112, Note_on_c, 0, 73, 77
1, 66129, Note_on_c, 1, 54, 0
1, 66129, Note_on_c, 1, 42, 0
1, 66142, Note_on_c, 0, 73, 0
1, 66144, Note_on_c, 0, 74, 77
1, 66174, Note_on_c, 0, 74, 0
1, 66176, Note_on_c, 0, 69, 76
1, 66206, Note_on_c, 0, 69, 0
1, 66208, Note_on_c, 0, 66, 76
1, 66238, Note_on_c, 0, 66, 0
1, 66240, Note_on_c, 0, 71, 75
1, 66240, Note_on_c, 1, 55, 64
1, 66240, Note_on_c, 1, 43, 64
1, 66270, Note_on_c, 0, 71, 0
1, 66272, Note_on_c, 0, 69, 75
1, 66302, Note_on_c, 0, 69, 0
1, 66304, Note_on_c, 0, 67, 75
1, 66329, Note_on_c, 1, 55, 0
1, 66329, Note_on_c, 1, 43, 0
1, 66334, Note_on_c, 0, 67, 0
1, 66336, Note_on_c, 0, 66, 75
1, 66336, Note_on_c, 1, 57, 64
1, 66425, Note_on_c, 0, 66, 0
1, 66425, Note_on_c, 1, 57, 0
1, 66432, Note_on_c, 0, 64, 75
1, 66432, Note_on_c, 1, 45, 64
1, 66445, Note_on_c, 0, 64, 0
1, 66446, Note_on_c, 0, 66, 75
1, 66459, Note_on_c, 0, 66, 0
1, 66460, Note_on_c, 0, 64, 75
1, 66473, Note_on_c, 0, 64, 0
1, 66474, Note_on_c, 0, 66, 75
1, 66487, Note_on_c, 0, 66, 0
1, 66488, Note_on_c, 0, 64, 75
1, 66501, Note_on_c, 0, 64, 0
1, 66502, Note_on_c, 0, 62, 75
1, 66514, Note_on_c, 0, 62, 0
1, 66515, Note_on_c, 0, 64, 75
1, 66521, Note_on_c, 1, 45, 0
1, 66527, Note_on_c, 0, 64, 0
1, 66528, Note_on_c, 0, 62, 75
1, 66528, Note_on_c, 1, 50, 64
1, 66617, Note_on_c, 1, 50, 0
1, 66624, Note_on_c, 1, 45, 64
1, 66705, Note_on_c, 0, 62, 0
1, 66713, Note_on_c, 1, 45, 0
1, 66720, Note_on_c, 1, 38, 64
1, 66809, Note_on_c, 1, 38, 0
1, 66816, Note_on_c, 0, 57, 75
1, 66816, Note_on_c, 1, 45, 75
1, 66816, Note_on_c, 1, 33, 75
1, 66905, Note_on_c, 0, 57, 0
1, 66905, Note_on_c, 1, 45, 0
1, 66905, Note_on_c, 1, 33, 0
1, 66912, Note_on_c, 0, 61, 75
1, 66912, Note_on_c, 1, 45, 75
1, 66912, Note_on_c, 1, 45, 64
1, 66930, Note_on_c, 0, 61, 0
1, 66930, Note_on_c, 0, 62, 75
1, 66948, Note_on_c, 0, 62, 0
1, 66948, Note_on_c, 0, 61, 75
1, 66979, Note_on_c, 0, 61, 0
1, 66984, Note_on_c, 0, 59, 75
1, 67001, Note_on_c, 1, 45, 0
1, 67007, Note_on_c, 0, 59, 0
1, 67008, Note_on_c, 0, 61, 75
1, 67008, Note_on_c, 1, 47, 75
1, 67075, Note_on_c, 0, 61, 0
1, 67080, Note_on_c, 0, 62, 75
1, 67089, Note_on_c, 1, 45, 0
1, 67097, Note_on_c, 1, 47, 0
1, 67103, Note_on_c, 0, 62, 0
1, 67104, Note_on_c, 0, 64, 75
1, 67104, Note_on_c, 1, 49, 75
1, 67104, Note_on_c, 1, 45, 64
1, 67134, Note_on_c, 0, 64, 0
1, 67136, Note_on_c, 0, 61, 75
1, 67166, Note_on_c, 0, 61, 0
1, 67168, Note_on_c, 0, 57, 75
1, 67193, Note_on_c, 1, 49, 0
1, 67198, Note_on_c, 0, 57, 0
1, 67200, Note_on_c, 0, 67, 75
1, 67200, Note_on_c, 1, 52, 75
1, 67230, Note_on_c, 0, 67, 0
1, 67232, Note_on_c, 0, 64, 75
1, 67262, Note_on_c, 0, 64, 0
1, 67264, Note_on_c, 0, 61, 75
1, 67289, Note_on_c, 1, 52, 0
1, 67294, Note_on_c, 0, 61, 0
1, 67296, Note_on_c, 0, 62, 75
1, 67296, Note_on_c, 1, 54, 75
1, 67314, Note_on_c, 0, 62, 0
1, 67314, Note_on_c, 0, 61, 75
1, 67332, Note_on_c, 0, 61, 0
1, 67332, Note_on_c, 0, 62, 75
1, 67369, Note_on_c, 1, 45, 0
1, 67385, Note_on_c, 0, 62, 0
1, 67385, Note_on_c, 1, 54, 0
1, 67392, Note_on_c, 0, 57, 64
1, 67392, Note_on_c, 1, 45, 64
1, 67392, Note_on_c, 1, 33, 64
1, 67481, Note_on_c, 0, 57, 0
1, 67481, Note_on_c, 1, 45, 0
1, 67481, Note_on_c, 1, 33, 0
1, 67488, Note_on_c, 0, 61, 64
1, 67488, Note_on_c, 1, 45, 64
1, 67488, Note_on_c, 1, 45, 64
1, 67506, Note_on_c, 0, 61, 0
1, 67506, Note_on_c, 0, 62, 64
1, 67524, Note_on_c, 0, 62, 0
1, 67524, Note_on_c, 0, 61, 64
1, 67555, Note_on_c, 0, 61, 0
1, 67560, Note_on_c, 0, 59, 64
1, 67577, Note_on_c, 1, 45, 0
1, 67583, Note_on_c, 0, 59, 0
1, 67584, Note_on_c, 0, 61, 64
1, 67584, Note_on_c, 1, 47, 64
1, 67651, Note_on_c, 0, 61, 0
1, 67656, Note_on_c, 0, 62, 64
1, 67665, Note_on_c, 1, 45, 0
1, 67673, Note_on_c, 1, 47, 0
1, 67679, Note_on_c, 0, 62, 0
1, 67680, Note_on_c, 0, 64, 64
1, 67680, Note_on_c, 1, 49, 64
1, 67680, Note_on_c, 1, 45, 64
1, 67710, Note_on_c, 0, 64, 0
1, 67712, Note_on_c, 0, 61, 64
1, 67742, Note_on_c, 0, 61, 0
1, 67744, Note_on_c, 0, 57, 64
1, 67769, Note_on_c, 1, 49, 0
1, 67774, Note_on_c, 0, 57, 0
1, 67776, Note_on_c, 0, 67, 64
1, 67776, Note_on_c, 1, 52, 64
1, 67806, Note_on_c, 0, 67, 0
1, 67808, Note_on_c, 0, 64, 64
1, 67838, Note_on_c, 0, 64, 0
1, 67840, Note_on_c, 0, 61, 64
1, 67865, Note_on_c, 1, 52, 0
1, 67870, Note_on_c, 0, 61, 0
1, 67872, Note_on_c, 0, 62, 64
1, 67872, Note_on_c, 1, 54, 64
1, 67890, Note_on_c, 0, 62, 0
1, 67890, Note_on_c, 0, 61, 64
1, 67908, Note_on_c, 0, 61, 0
1, 67908, Note_on_c, 0, 62, 64
1, 67945, Note_on_c, 1, 45, 0
1, 67961, Note_on_c, 0, 62, 0
1, 67961, Note_on_c, 1, 54, 0
1, 67968, Note_on_c, 0, 59, 75
1, 67968, Note_on_c, 1, 43, 75
1, 68057, Note_on_c, 0, 59, 0
1, 68057, Note_on_c, 1, 43, 0
1, 68064, Note_on_c, 0, 70, 75
1, 68064, Note_on_c, 1, 55, 75
1, 68094, Note_on_c, 0, 70, 0
1, 68096, Note_on_c, 0, 71, 75
1, 68126, Note_on_c, 0, 71, 0
1, 68128, Note_on_c, 0, 69, 75
1, 68153, Note_on_c, 1, 55, 0
1, 68158, Note_on_c, 0, 69, 0
1, 68160, Note_on_c, 0, 67, 75
1, 68190, Note_on_c, 0, 67, 0
1, 68192, Note_on_c, 0, 66, 75
1, 68222, Note_on_c, 0, 66, 0
1, 68224, Note_on_c, 0, 64, 75
1, 68254, Note_on_c, 0, 64, 0
1, 68256, Note_on_c, 0, 57, 75
1, 68256, Note_on_c, 1, 42, 75
1, 68345, Note_on_c, 0, 57, 0
1, 68345, Note_on_c, 1, 42, 0
1, 68352, Note_on_c, 0, 68, 75
1, 68352, Note_on_c, 1, 54, 75
1, 68382, Note_on_c, 0, 68, 0
1, 68384, Note_on_c, 0, 69, 75
1, 68414, Note_on_c, 0, 69, 0
1, 68416, Note_on_c, 0, 67, 75
1, 68441, Note_on_c, 1, 54, 0
1, 68446, Note_on_c, 0, 67, 0
1, 68448, Note_on_c, 0, 66, 75
1, 68478, Note_on_c, 0, 66, 0
1, 68480, Note_on_c, 0, 64, 75
1, 68510, Note_on_c, 0, 64, 0
1, 68512, Note_on_c, 0, 62, 75
1, 68542, Note_on_c, 0, 62, 0
1, 68544, Note_on_c, 0, 63, 75
1, 68544, Note_on_c, 1, 55, 75
1, 68544, Note_on_c, 1, 43, 75
1, 68633, Note_on_c, 0, 63, 0
1, 68640, Note_on_c, 0, 64, 75
1, 68707, Note_on_c, 0, 64, 0
1, 68712, Note_on_c, 0, 67, 75
1, 68721, Note_on_c, 1, 55, 0
1, 68721, Note_on_c, 1, 43, 0
1, 68735, Note_on_c, 0, 67, 0
1, 68736, Note_on_c, 0, 59, 75
1, 68736, Note_on_c, 1, 56, 75
1, 68803, Note_on_c, 0, 59, 0
1, 68808, Note_on_c, 0, 64, 75
1, 68825, Note_on_c, 1, 56, 0
1, 68831, Note_on_c, 0, 64, 0
1, 68832, Note_on_c, 0, 62, 75
1, 68832, Note_on_c, 1, 57, 75
1, 68921, Note_on_c, 1, 57, 0
1, 68928, Note_on_c, 1, 52, 75
1, 69009, Note_on_c, 0, 62, 0
1, 69017, Note_on_c, 1, 52, 0
1, 69024, Note_on_c, 0, 61, 75
1, 69024, Note_on_c, 1, 45, 75
1, 69113, Note_on_c, 0, 61, 0
1, 69113, Note_on_c, 1, 45, 0
1, 69120, Note_on_c, 0, 74, 75
1, 69120, Note_on_c, 1, 62, 75
1, 69150, Note_on_c, 0, 74, 0
1, 69152, Note_on_c, 0, 78, 76
1, 69182, Note_on_c, 0, 78, 0
1, 69184, Note_on_c, 0, 81, 78
1, 69209, Note_on_c, 1, 62, 0
1, 69214, Note_on_c, 0, 81, 0
1, 69216, Note_on_c, 0, 79, 79
1, 69216, Note_on_c, 1, 66, 75
1, 69246, Note_on_c, 0, 79, 0
1, 69248, Note_on_c, 0, 78, 78
1, 69278, Note_on_c, 0, 78, 0
1, 69280, Note_on_c, 0, 76, 77
1, 69305, Note_on_c, 1, 66, 0
1, 69310, Note_on_c, 0, 76, 0
1, 69312, Note_on_c, 0, 74, 75
1, 69312, Note_on_c, 1, 67, 75
1, 69342, Note_on_c, 0, 74, 0
1, 69344, Note_on_c, 0, 73, 75
1, 69374, Note_on_c, 0, 73, 0
1, 69376, Note_on_c, 0, 71, 75
1, 69401, Note_on_c, 1, 67, 0
1, 69408, Note_on_c, 1, 66, 75
1, 69453, Note_on_c, 0, 71, 0
1, 69456, Note_on_c, 0, 69, 75
1, 69497, Note_on_c, 1, 66, 0
1, 69504, Note_on_c, 1, 64, 75
1, 69545, Note_on_c, 0, 69, 0
1, 69552, Note_on_c, 0, 67, 75
1, 69593, Note_on_c, 1, 64, 0
1, 69600, Note_on_c, 1, 62, 75
1, 69641, Note_on_c, 0, 67, 0
1, 69648, Note_on_c, 0, 66, 75
1, 69689, Note_on_c, 1, 62, 0
1, 69693, Note_on_c, 0, 66, 0
1, 69696, Note_on_c, 0, 64, 75
1, 69696, Note_on_c, 1, 55, 75
1, 69726, Note_on_c, 0, 64, 0
1, 69728, Note_on_c, 0, 67, 75
1, 69758, Note_on_c, 0, 67, 0
1, 69760, Note_on_c, 0, 66, 76
1, 69785, Note_on_c, 1, 55, 0
1, 69790, Note_on_c, 0, 66, 0
1, 69792, Note_on_c, 0, 67, 77
1, 69792, Note_on_c, 1, 52, 75
1, 69822, Note_on_c, 0, 67, 0
1, 69824, Note_on_c, 0, 71, 78
1, 69854, Note_on_c, 0, 71, 0
1, 69856, Note_on_c, 0, 69, 79
1, 69881, Note_on_c, 1, 52, 0
1, 69886, Note_on_c, 0, 69, 0
1, 69888, Note_on_c, 0, 67, 79
1, 69888, Note_on_c, 1, 55, 75
1, 69918, Note_on_c, 0, 67, 0
1, 69920, Note_on_c, 0, 66, 77
1, 69950, Note_on_c, 0, 66, 0
1, 69952, Note_on_c, 0, 64, 76
1, 69977, Note_on_c, 1, 55, 0
1, 69982, Note_on_c, 0, 64, 0
1, 69984, Note_on_c, 0, 62, 75
1, 69984, Note_on_c, 1, 57, 75
1, 70029, Note_on_c, 0, 62, 0
1, 70032, Note_on_c, 0, 61, 75
1, 70073, Note_on_c, 1, 57, 0
1, 70080, Note_on_c, 1, 55, 75
1, 70121, Note_on_c, 0, 61, 0
1, 70128, Note_on_c, 0, 64, 75
1, 70169, Note_on_c, 1, 55, 0
1, 70176, Note_on_c, 1, 54, 75
1, 70217, Note_on_c, 0, 64, 0
1, 70224, Note_on_c, 0, 62, 75
1, 70265, Note_on_c, 1, 54, 0
1, 70269, Note_on_c, 0, 62, 0
1, 70272, Note_on_c, 0, 57, 75
1, 70272, Note_on_c, 1, 49, 75
1, 70302, Note_on_c, 0, 57, 0
1, 70304, Note_on_c, 0, 67, 76
1, 70334, Note_on_c, 0, 67, 0
1, 70336, Note_on_c, 0, 66, 78
1, 70361, Note_on_c, 1, 49, 0
1, 70366, Note_on_c, 0, 66, 0
1, 70368, Note_on_c, 0, 67, 79
1, 70368, Note_on_c, 1, 52, 75
1, 70398, Note_on_c, 0, 67, 0
1, 70400, Note_on_c, 0, 64, 78
1, 70430, Note_on_c, 0, 64, 0
1, 70432, Note_on_c, 0, 61, 77
1, 70457, Note_on_c, 1, 52, 0
1, 70462, Note_on_c, 0, 61, 0
1, 70464, Note_on_c, 0, 62, 75
1, 70464, Note_on_c, 1, 54, 75
1, 70482, Note_on_c, 0, 62, 0
1, 70482, Note_on_c, 0, 61, 75
1, 70500, Note_on_c, 0, 61, 0
1, 70500, Note_on_c, 0, 62, 75
1, 70553, Note_on_c, 0, 62, 0
1, 70553, Note_on_c, 1, 54, 0
1, 70560, Note_on_c, 0, 57, 64
1, 70560, Note_on_c, 1, 49, 64
1, 70590, Note_on_c, 0, 57, 0
1, 70592, Note_on_c, 0, 67, 64
1, 70622, Note_on_c, 0, 67, 0
1, 70624, Note_on_c, 0, 66, 69
1, 70649, Note_on_c, 1, 49, 0
1, 70654, Note_on_c, 0, 66, 0
1, 70656, Note_on_c, 0, 67, 74
1, 70656, Note_on_c, 1, 52, 64
1, 70686, Note_on_c, 0, 67, 0
1, 70688, Note_on_c, 0, 64, 72
1, 70718, Note_on_c, 0, 64, 0
1, 70720, Note_on_c, 0, 61, 68
1, 70745, Note_on_c, 1, 52, 0
1, 70750, Note_on_c, 0, 61, 0
1, 70752, Note_on_c, 0, 62, 64
1, 70752, Note_on_c, 1, 54, 64
1, 70770, Note_on_c, 0, 62, 0
1, 70770, Note_on_c, 0, 61, 64
1, 70788, Note_on_c, 0, 61, 0
1, 70788, Note_on_c, 0, 62, 64
1, 70841, Note_on_c, 0, 62, 0
1, 70841, Note_on_c, 1, 54, 0
1, 70848, Note_on_c, 0, 59, 75
1, 70848, Note_on_c, 1, 55, 64
1, 70848, Note_on_c, 1, 43, 64
1, 70878, Note_on_c, 0, 59, 0
1, 70880, Note_on_c, 0, 64, 75
1, 70910, Note_on_c, 0, 64, 0
1, 70912, Note_on_c, 0, 63, 75
1, 70942, Note_on_c, 0, 63, 0
1, 70944, Note_on_c, 0, 64, 75
1, 70974, Note_on_c, 0, 64, 0
1, 70976, Note_on_c, 0, 67, 75
1, 71006, Note_on_c, 0, 67, 0
1, 71008, Note_on_c, 0, 66, 76
1, 71025, Note_on_c, 1, 55, 0
1, 71025, Note_on_c, 1, 43, 0
1, 71038, Note_on_c, 0, 66, 0
1, 71040, Note_on_c, 0, 67, 77
1, 71070, Note_on_c, 0, 67, 0
1, 71072, Note_on_c, 0, 69, 78
1, 71102, Note_on_c, 0, 69, 0
1, 71104, Note_on_c, 0, 71, 78
1, 71134, Note_on_c, 0, 71, 0
1, 71136, Note_on_c, 0, 69, 79
1, 71136, Note_on_c, 1, 54, 64
1, 71136, Note_on_c, 1, 42, 64
1, 71166, Note_on_c, 0, 69, 0
1, 71168, Note_on_c, 0, 67, 79
1, 71198, Note_on_c, 0, 67, 0
1, 71200, Note_on_c, 0, 66, 79
1, 71230, Note_on_c, 0, 66, 0
1, 71232, Note_on_c, 0, 64, 78
1, 71262, Note_on_c, 0, 64, 0
1, 71264, Note_on_c, 0, 62, 78
1, 71294, Note_on_c, 0, 62, 0
1, 71296, Note_on_c, 0, 61, 77
1, 71313, Note_on_c, 1, 54, 0
1, 71313, Note_on_c, 1, 42, 0
1, 71326, Note_on_c, 0, 61, 0
1, 71328, Note_on_c, 0, 62, 77
1, 71417, Note_on_c, 0, 62, 0
1, 71424, Note_on_c, 0, 71, 75
1, 71424, Note_on_c, 1, 55, 64
1, 71424, Note_on_c, 1, 43, 64
1, 71454, Note_on_c, 0, 71, 0
1, 71456, Note_on_c, 0, 76, 75
1, 71486, Note_on_c, 0, 76, 0
1, 71488, Note_on_c, 0, 75, 75
1, 71518, Note_on_c, 0, 75, 0
1, 71520, Note_on_c, 0, 76, 75
1, 71550, Note_on_c, 0, 76, 0
1, 71552, Note_on_c, 0, 79, 75
1, 71582, Note_on_c, 0, 79, 0
1, 71584, Note_on_c, 0, 78, 76
1, 71601, Note_on_c, 1, 55, 0
1, 71601, Note_on_c, 1, 43, 0
1, 71614, Note_on_c, 0, 78, 0
1, 71616, Note_on_c, 0, 79, 77
1, 71646, Note_on_c, 0, 79, 0
1, 71648, Note_on_c, 0, 81, 77
1, 71678, Note_on_c, 0, 81, 0
1, 71680, Note_on_c, 0, 83, 78
1, 71710, Note_on_c, 0, 83, 0
1, 71712, Note_on_c, 0, 81, 79
1, 71712, Note_on_c, 1, 54, 64
1, 71712, Note_on_c, 1, 42, 64
1, 71742, Note_on_c, 0, 81, 0
1, 71744, Note_on_c, 0, 79, 79
1, 71774, Note_on_c, 0, 79, 0
1, 71776, Note_on_c, 0, 78, 79
1, 71806, Note_on_c, 0, 78, 0
1, 71808, Note_on_c, 0, 76, 79
1, 71838, Note_on_c, 0, 76, 0
1, 71840, Note_on_c, 0, 74, 78
1, 71870, Note_on_c, 0, 74, 0
1, 71872, Note_on_c, 0, 73, 77
1, 71889, Note_on_c, 1, 54, 0
1, 71889, Note_on_c, 1, 42, 0
1, 71902, Note_on_c, 0, 73, 0
1, 71904, Note_on_c, 0, 74, 77
1, 71934, Note_on_c, 0, 74, 0
1, 71936, Note_on_c, 0, 69, 76
1, 71966, Note_on_c, 0, 69, 0
1, 71968, Note_on_c, 0, 66, 76
1, 71998, Note_on_c, 0, 66, 0
1, 72000, Note_on_c, 0, 71, 75
1, 72000, Note_on_c, 1, 55, 64
1, 72000, Note_on_c, 1, 43, 64
1, 72030, Note_on_c, 0, 71, 0
1, 72032, Note_on_c, 0, 69, 75
1, 72062, Note_on_c, 0, 69, 0
1, 72064, Note_on_c, 0, 67, 75
1, 72089, Note_on_c, 1, 55, 0
1, 72089, Note_on_c, 1, 43, 0
1, 72094, Note_on_c, 0, 67, 0
1, 72096, Note_on_c, 0, 66, 75
1, 72096, Note_on_c, 1, 57, 64
1, 72185, Note_on_c, 0, 66, 0
1, 72185, Note_on_c, 1, 57, 0
1, 72192, Note_on_c, 0, 64, 75
1, 72192, Note_on_c, 1, 45, 64
1, 72205, Note_on_c, 0, 64, 0
1, 72206, Note_on_c, 0, 66, 75
1, 72219, Note_on_c, 0, 66, 0
1, 72220, Note_on_c, 0, 64, 75
1, 72233, Note_on_c, 0, 64, 0
1, 72234, Note_on_c, 0, 66, 75
1, 72247, Note_on_c, 0, 66, 0
1, 72248, Note_on_c, 0, 64, 75
1, 72261, Note_on_c, 0, 64, 0
1, 72262, Note_on_c, 0, 62, 75
1, 72274, Note_on_c, 0, 62, 0
1, 72275, Note_on_c, 0, 64, 75
1, 72281, Note_on_c, 1, 45, 0
1, 72287, Note_on_c, 0, 64, 0
1, 72288, Note_on_c, 0, 62, 75
1, 72288, Note_on_c, 1, 50, 64
1, 72377, Note_on_c, 1, 50, 0
1, 72384, Note_on_c, 1, 45, 64
1, 72465, Note_on_c, 0, 62, 0
1, 72473, Note_on_c, 1, 45, 0
1, 72480, Note_on_c, 1, 38, 64
1, 72569, Note_on_c, 1, 38, 0
1, 72576, Note_on_c, 1, 38, 0
1, 72665, Note_on_c, 1, 38, 0
1, 72675, End_track
0, 0, End_of_file