0, 0, Header, 0, 1, 96
1, 0, Start_track
1, 0, Tempo, 100000
1, 144, Note_on_c, 0, 72, 75
1, 178, Note_on_c, 0, 72, 0
1, 180, Note_on_c, 0, 69, 75
1, 192, Note_on_c, 0, 69, 0
1, 192, Note_on_c, 0, 65, 75
1, 192, Note_on_c, 1, 57, 75
1, 192, Note_on_c, 1, 53, 75
1, 212, Note_on_c, 0, 65, 0
1, 237, Note_on_c, 1, 57, 0
1, 237, Note_on_c, 1, 53, 0
1, 240, Note_on_c, 0, 69, 75
1, 274, Note_on_c, 0, 69, 0
1, 276, Note_on_c, 0, 65, 75
1, 288, Note_on_c, 0, 65, 0
1, 288, Note_on_c, 0, 64, 75
1, 288, Note_on_c, 1, 58, 75
1, 288, Note_on_c, 1, 48, 75
1, 308, Note_on_c, 0, 64, 0
1, 333, Note_on_c, 1, 58, 0
1, 333, Note_on_c, 1, 48, 0
1, 336, Note_on_c, 0, 67, 75
1, 370, Note_on_c, 0, 67, 0
1, 372, Note_on_c, 0, 64, 75
1, 384, Note_on_c, 0, 64, 0
1, 384, Note_on_c, 0, 65, 75
1, 384, Note_on_c, 1, 57, 75
1, 384, Note_on_c, 1, 53, 75
1, 429, Note_on_c, 0, 65, 0
1, 429, Note_on_c, 1, 57, 0
1, 429, Note_on_c, 1, 53, 0
1, 432, Note_on_c, 0, 74, 75
1, 432, Note_on_c, 0, 70, 75
1, 480, Note_on_c, 0, 74, 0
1, 480, Note_on_c, 0, 70, 0
1, 480, Note_on_c, 0, 72, 75
1, 480, Note_on_c, 0, 69, 75
1, 500, Note_on_c, 0, 72, 0
1, 500, Note_on_c, 0, 69, 0
1, 528, Note_on_c, 0, 79, 75
1, 540, Note_on_c, 0, 79, 0
1, 540, Note_on_c, 0, 77, 75
1, 552, Note_on_c, 0, 77, 0
1, 552, Note_on_c, 0, 76, 75
1, 564, Note_on_c, 0, 76, 0
1, 564, Note_on_c, 0, 74, 75
1, 576, Note_on_c, 0, 74, 0
1, 576, Note_on_c, 0, 72, 75
1, 621, Note_on_c, 0, 72, 0
1, 624, Note_on_c, 0, 81, 75
1, 624, Note_on_c, 1, 65, 75
1, 639, Note_on_c, 0, 81, 0
1, 640, Note_on_c, 0, 69, 75
1, 655, Note_on_c, 0, 69, 0
1, 656, Note_on_c, 0, 74, 75
1, 669, Note_on_c, 1, 65, 0
1, 671, Note_on_c, 0, 74, 0
1, 672, Note_on_c, 0, 72, 75
1, 672, Note_on_c, 1, 67, 75
1, 717, Note_on_c, 0, 72, 0
1, 717, Note_on_c, 1, 67, 0
1, 720, Note_on_c, 0, 70, 75
1, 720, Note_on_c, 1, 60, 75
1, 730, Note_on_c, 0, 70, 0
1, 730, Note_on_c, 0, 72, 75
1, 740, Note_on_c, 0, 72, 0
1, 740, Note_on_c, 0, 70, 75
1, 750, Note_on_c, 0, 70, 0
1, 750, Note_on_c, 0, 69, 75
1, 759, Note_on_c, 0, 69, 0
1, 759, Note_on_c, 0, 70, 75
1, 765, Note_on_c, 1, 60, 0
1, 768, Note_on_c, 0, 70, 0
1, 768, Note_on_c, 0, 70, 75
1, 768, Note_on_c, 1, 65, 75
1, 813, Note_on_c, 1, 65, 0
1, 816, Note_on_c, 1, 60, 75
1, 861, Note_on_c, 1, 60, 0
1, 864, Note_on_c, 0, 70, 0
1, 864, Note_on_c, 0, 69, 75
1, 864, Note_on_c, 1, 53, 75
1, 884, Note_on_c, 0, 69, 0
1, 909, Note_on_c, 1, 53, 0
1, 912, Note_on_c, 0, 72, 75
1, 924, Note_on_c, 0, 72, 0
1, 924, Note_on_c, 0, 69, 75
1, 936, Note_on_c, 0, 69, 0
1, 936, Note_on_c, 0, 72, 75
1, 948, Note_on_c, 0, 72, 0
1, 948, Note_on_c, 0, 69, 75
1, 960, Note_on_c, 0, 69, 0
1, 960, Note_on_c, 0, 65, 75
1, 960, Note_on_c, 1, 57, 75
1, 960, Note_on_c, 1, 53, 75
1, 980, Note_on_c, 0, 65, 0
1, 1005, Note_on_c, 1, 57, 0
1, 1005, Note_on_c, 1, 53, 0
1, 1008, Note_on_c, 0, 70, 75
1, 1020, Note_on_c, 0, 70, 0
1, 1020, Note_on_c, 0, 69, 75
1, 1032, Note_on_c, 0, 69, 0
1, 1032, Note_on_c, 0, 67, 75
1, 1044, Note_on_c, 0, 67, 0
1, 1044, Note_on_c, 0, 65, 75
1, 1056, Note_on_c, 0, 65, 0
1, 1056, Note_on_c, 0, 64, 75
1, 1056, Note_on_c, 1, 58, 75
1, 1056, Note_on_c, 1, 48, 75
1, 1076, Note_on_c, 0, 64, 0
1, 1101, Note_on_c, 1, 58, 0
1, 1101, Note_on_c, 1, 48, 0
1, 1104, Note_on_c, 0, 69, 75
1, 1116, Note_on_c, 0, 69, 0
1, 1116, Note_on_c, 0, 67, 75
1, 1128, Note_on_c, 0, 67, 0
1, 1128, Note_on_c, 0, 65, 75
1, 1140, Note_on_c, 0, 65, 0
1, 1140, Note_on_c, 0, 64, 75
1, 1152, Note_on_c, 0, 64, 0
1, 1152, Note_on_c, 0, 65, 75
1, 1152, Note_on_c, 1, 57, 75
1, 1152, Note_on_c, 1, 53, 75
1, 1162, Note_on_c, 0, 65, 0
1, 1176, Note_on_c, 0, 74, 75
1, 1188, Note_on_c, 0, 74, 0
1, 1188, Note_on_c, 0, 76, 75
1, 1197, Note_on_c, 1, 57, 0
1, 1197, Note_on_c, 1, 53, 0
1, 1200, Note_on_c, 0, 76, 0
1, 1200, Note_on_c, 0, 79, 75
1, 1200, Note_on_c, 1, 70, 75
1, 1212, Note_on_c, 0, 79, 0
1, 1212, Note_on_c, 0, 77, 75
1, 1224, Note_on_c, 0, 77, 0
1, 1224, Note_on_c, 0, 76, 75
1, 1236, Note_on_c, 0, 76, 0
1, 1236, Note_on_c, 0, 74, 75
1, 1245, Note_on_c, 1, 70, 0
1, 1248, Note_on_c, 0, 74, 0
1, 1248, Note_on_c, 0, 72, 75
1, 1248, Note_on_c, 1, 69, 75
1, 1268, Note_on_c, 0, 72, 0
1, 1293, Note_on_c, 1, 69, 0
1, 1296, Note_on_c, 0, 84, 75
1, 1308, Note_on_c, 0, 84, 0
1, 1308, Note_on_c, 0, 81, 75
1, 1320, Note_on_c, 0, 81, 0
1, 1320, Note_on_c, 0, 77, 75
1, 1332, Note_on_c, 0, 77, 0
1, 1332, Note_on_c, 0, 72, 75
1, 1344, Note_on_c, 0, 72, 0
1, 1344, Note_on_c, 0, 69, 75
1, 1392, Note_on_c, 1, 65, 75
1, 1392, Note_on_c, 1, 60, 64
1, 1440, Note_on_c, 0, 69, 0
1, 1440, Note_on_c, 0, 70, 75
1, 1440, Note_on_c, 1, 65, 0
1, 1440, Note_on_c, 1, 67, 75
1, 1460, Note_on_c, 0, 70, 0
1, 1486, Note_on_c, 1, 60, 0
1, 1487, Note_on_c, 1, 67, 0
1, 1488, Note_on_c, 0, 82, 75
1, 1500, Note_on_c, 0, 82, 0
1, 1500, Note_on_c, 0, 79, 75
1, 1512, Note_on_c, 0, 79, 0
1, 1512, Note_on_c, 0, 76, 75
1, 1524, Note_on_c, 0, 76, 0
1, 1524, Note_on_c, 0, 72, 75
1, 1536, Note_on_c, 0, 72, 0
1, 1536, Note_on_c, 0, 70, 75
1, 1584, Note_on_c, 1, 64, 70
1, 1584, Note_on_c, 1, 60, 70
1, 1632, Note_on_c, 0, 70, 0
1, 1632, Note_on_c, 0, 69, 65
1, 1632, Note_on_c, 1, 64, 0
1, 1632, Note_on_c, 1, 60, 0
1, 1632, Note_on_c, 1, 65, 65
1, 1632, Note_on_c, 1, 62, 65
1, 1652, Note_on_c, 0, 69, 0
1, 1679, Note_on_c, 1, 65, 0
1, 1679, Note_on_c, 1, 62, 0
1, 1680, Note_on_c, 0, 77, 60
1, 1692, Note_on_c, 0, 77, 0
1, 1692, Note_on_c, 0, 72, 60
1, 1704, Note_on_c, 0, 72, 0
1, 1704, Note_on_c, 0, 69, 62
1, 1716, Note_on_c, 0, 69, 0
1, 1716, Note_on_c, 0, 65, 65
1, 1728, Note_on_c, 0, 65, 0
1, 1728, Note_on_c, 0, 63, 84
1, 1776, Note_on_c, 1, 57, 60
1, 1776, Note_on_c, 1, 53, 60
1, 1821, Note_on_c, 1, 57, 0
1, 1821, Note_on_c, 1, 53, 0
1, 1824, Note_on_c, 1, 58, 62
1, 1824, Note_on_c, 1, 55, 62
1, 1869, Note_on_c, 1, 58, 0
1, 1869, Note_on_c, 1, 55, 0
1, 1872, Note_on_c, 1, 60, 65
1, 1872, Note_on_c, 1, 57, 65
1, 1917, Note_on_c, 1, 60, 0
1, 1917, Note_on_c, 1, 57, 0
1, 1920, Note_on_c, 1, 58, 68
1, 1943, Note_on_c, 0, 63, 0
1, 1944, Note_on_c, 0, 61, 75
1, 1968, Note_on_c, 0, 61, 0
1, 1968, Note_on_c, 0, 62, 76
1, 1978, Note_on_c, 0, 62, 0
1, 1992, Note_on_c, 0, 66, 77
1, 2009, Note_on_c, 1, 58, 0
1, 2016, Note_on_c, 0, 66, 0
1, 2016, Note_on_c, 0, 67, 78
1, 2026, Note_on_c, 0, 67, 0
1, 2040, Note_on_c, 0, 69, 80
1, 2064, Note_on_c, 0, 69, 0
1, 2064, Note_on_c, 0, 70, 81
1, 2074, Note_on_c, 0, 70, 0
1, 2088, Note_on_c, 0, 74, 82
1, 2088, Note_on_c, 0, 70, 82
1, 2088, Note_on_c, 1, 46, 68
1, 2098, Note_on_c, 0, 74, 0
1, 2098, Note_on_c, 0, 70, 0
1, 2111, Note_on_c, 1, 46, 0
1, 2112, Note_on_c, 0, 74, 84
1, 2112, Note_on_c, 0, 70, 84
1, 2112, Note_on_c, 1, 48, 68
1, 2136, Note_on_c, 0, 74, 0
1, 2136, Note_on_c, 0, 70, 0
1, 2136, Note_on_c, 0, 72, 83
1, 2136, Note_on_c, 0, 69, 83
1, 2159, Note_on_c, 0, 72, 0
1, 2159, Note_on_c, 0, 69, 0
1, 2160, Note_on_c, 0, 70, 82
1, 2160, Note_on_c, 0, 67, 82
1, 2170, Note_on_c, 0, 70, 0
1, 2170, Note_on_c, 0, 67, 0
1, 2184, Note_on_c, 0, 69, 82
1, 2184, Note_on_c, 0, 65, 82
1, 2194, Note_on_c, 0, 69, 0
1, 2194, Note_on_c, 0, 65, 0
1, 2201, Note_on_c, 1, 48, 0
1, 2208, Note_on_c, 0, 72, 81
1, 2208, Note_on_c, 0, 69, 81
1, 2232, Note_on_c, 0, 72, 0
1, 2232, Note_on_c, 0, 69, 0
1, 2232, Note_on_c, 0, 70, 80
1, 2232, Note_on_c, 0, 67, 80
1, 2255, Note_on_c, 0, 70, 0
1, 2255, Note_on_c, 0, 67, 0
1, 2256, Note_on_c, 0, 69, 80
1, 2256, Note_on_c, 0, 65, 80
1, 2266, Note_on_c, 0, 69, 0
1, 2266, Note_on_c, 0, 65, 0
1, 2280, Note_on_c, 0, 67, 79
1, 2280, Note_on_c, 0, 64, 79
1, 2280, Note_on_c, 1, 58, 64
1, 2280, Note_on_c, 1, 48, 64
1, 2290, Note_on_c, 0, 67, 0
1, 2290, Note_on_c, 0, 64, 0
1, 2303, Note_on_c, 1, 58, 0
1, 2303, Note_on_c, 1, 48, 0
1, 2304, Note_on_c, 0, 67, 78
1, 2304, Note_on_c, 0, 64, 78
1, 2304, Note_on_c, 1, 58, 63
1, 2304, Note_on_c, 1, 53, 63
1, 2400, Note_on_c, 0, 67, 0
1, 2400, Note_on_c, 0, 64, 0
1, 2400, Note_on_c, 0, 65, 76
1, 2400, Note_on_c, 1, 58, 0
1, 2400, Note_on_c, 1, 57, 61
1, 2420, Note_on_c, 0, 65, 0
1, 2445, Note_on_c, 1, 57, 0
1, 2445, Note_on_c, 1, 53, 0
1, 2448, Note_on_c, 0, 84, 75
1, 2460, Note_on_c, 0, 84, 0
1, 2460, Note_on_c, 0, 81, 75
1, 2472, Note_on_c, 0, 81, 0
1, 2472, Note_on_c, 0, 84, 75
1, 2484, Note_on_c, 0, 84, 0
1, 2484, Note_on_c, 0, 81, 75
1, 2496, Note_on_c, 0, 81, 0
1, 2496, Note_on_c, 0, 77, 75
1, 2496, Note_on_c, 1, 65, 60
1, 2516, Note_on_c, 0, 77, 0
1, 2519, Note_on_c, 1, 65, 0
1, 2520, Note_on_c, 1, 69, 60
1, 2543, Note_on_c, 1, 69, 0
1, 2544, Note_on_c, 1, 65, 60
1, 2567, Note_on_c, 1, 65, 0
1, 2568, Note_on_c, 0, 81, 75
1, 2568, Note_on_c, 1, 69, 60
1, 2578, Note_on_c, 0, 81, 0
1, 2591, Note_on_c, 1, 69, 0
1, 2592, Note_on_c, 0, 79, 75
1, 2592, Note_on_c, 1, 65, 60
1, 2602, Note_on_c, 0, 79, 0
1, 2615, Note_on_c, 1, 65, 0
1, 2616, Note_on_c, 0, 77, 75
1, 2616, Note_on_c, 1, 69, 60
1, 2626, Note_on_c, 0, 77, 0
1, 2639, Note_on_c, 1, 69, 0
1, 2640, Note_on_c, 0, 76, 75
1, 2640, Note_on_c, 1, 65, 60
1, 2650, Note_on_c, 0, 76, 0
1, 2663, Note_on_c, 1, 65, 0
1, 2664, Note_on_c, 0, 74, 75
1, 2664, Note_on_c, 1, 69, 60
1, 2674, Note_on_c, 0, 74, 0
1, 2687, Note_on_c, 1, 69, 0
1, 2688, Note_on_c, 0, 74, 91
1, 2688, Note_on_c, 1, 64, 60
1, 2711, Note_on_c, 1, 64, 0
1, 2712, Note_on_c, 1, 67, 60
1, 2735, Note_on_c, 1, 67, 0
1, 2736, Note_on_c, 1, 64, 60
1, 2759, Note_on_c, 1, 64, 0
1, 2760, Note_on_c, 0, 74, 0
1, 2760, Note_on_c, 0, 76, 84
1, 2760, Note_on_c, 1, 67, 60
1, 2772, Note_on_c, 0, 76, 0
1, 2772, Note_on_c, 0, 74, 82
1, 2783, Note_on_c, 1, 67, 0
1, 2784, Note_on_c, 0, 74, 0
1, 2784, Note_on_c, 0, 73, 81
1, 2784, Note_on_c, 1, 64, 60
1, 2804, Note_on_c, 0, 73, 0
1, 2807, Note_on_c, 1, 64, 0
1, 2808, Note_on_c, 1, 67, 60
1, 2831, Note_on_c, 1, 67, 0
1, 2832, Note_on_c, 0, 76, 75
1, 2832, Note_on_c, 1, 64, 60
1, 2844, Note_on_c, 0, 76, 0
1, 2844, Note_on_c, 0, 73, 75
1, 2855, Note_on_c, 1, 64, 0
1, 2856, Note_on_c, 0, 73, 0
1, 2856, Note_on_c, 0, 76, 75
1, 2856, Note_on_c, 1, 67, 60
1, 2868, Note_on_c, 0, 76, 0
1, 2868, Note_on_c, 0, 73, 75
1, 2879, Note_on_c, 1, 67, 0
1, 2880, Note_on_c, 0, 73, 0
1, 2880, Note_on_c, 0, 69, 75
1, 2880, Note_on_c, 1, 61, 60
1, 2900, Note_on_c, 0, 69, 0
1, 2903, Note_on_c, 1, 61, 0
1, 2904, Note_on_c, 1, 64, 60
1, 2927, Note_on_c, 1, 64, 0
1, 2928, Note_on_c, 1, 61, 60
1, 2951, Note_on_c, 1, 61, 0
1, 2952, Note_on_c, 0, 82, 75
1, 2952, Note_on_c, 1, 64, 60
1, 2962, Note_on_c, 0, 82, 0
1, 2975, Note_on_c, 1, 64, 0
1, 2976, Note_on_c, 0, 81, 75
1, 2976, Note_on_c, 1, 61, 60
1, 2986, Note_on_c, 0, 81, 0
1, 2999, Note_on_c, 1, 61, 0
1, 3000, Note_on_c, 0, 79, 75
1, 3000, Note_on_c, 1, 69, 60
1, 3010, Note_on_c, 0, 79, 0
1, 3023, Note_on_c, 1, 69, 0
1, 3024, Note_on_c, 0, 77, 75
1, 3024, Note_on_c, 1, 61, 60
1, 3034, Note_on_c, 0, 77, 0
1, 3047, Note_on_c, 1, 61, 0
1, 3048, Note_on_c, 0, 76, 75
1, 3048, Note_on_c, 1, 69, 60
1, 3058, Note_on_c, 0, 76, 0
1, 3071, Note_on_c, 1, 69, 0
1, 3072, Note_on_c, 0, 79, 91
1, 3072, Note_on_c, 1, 62, 60
1, 3095, Note_on_c, 1, 62, 0
1, 3096, Note_on_c, 1, 69, 60
1, 3119, Note_on_c, 1, 69, 0
1, 3120, Note_on_c, 1, 62, 60
1, 3143, Note_on_c, 1, 62, 0
1, 3144, Note_on_c, 0, 79, 0
1, 3144, Note_on_c, 0, 76, 84
1, 3144, Note_on_c, 1, 69, 60
1, 3167, Note_on_c, 0, 76, 0
1, 3167, Note_on_c, 1, 69, 0
1, 3168, Note_on_c, 0, 77, 81
1, 3168, Note_on_c, 1, 62, 60
1, 3188, Note_on_c, 0, 77, 0
1, 3191, Note_on_c, 1, 62, 0
1, 3192, Note_on_c, 1, 69, 60
1, 3215, Note_on_c, 1, 69, 0
1, 3216, Note_on_c, 0, 81, 75
1, 3216, Note_on_c, 1, 62, 60
1, 3228, Note_on_c, 0, 81, 0
1, 3228, Note_on_c, 0, 77, 75
1, 3239, Note_on_c, 1, 62, 0
1, 3240, Note_on_c, 0, 77, 0
1, 3240, Note_on_c, 0, 81, 75
1, 3240, Note_on_c, 1, 69, 60
1, 3252, Note_on_c, 0, 81, 0
1, 3252, Note_on_c, 0, 77, 75
1, 3263, Note_on_c, 1, 69, 0
1, 3264, Note_on_c, 0, 77, 0
1, 3264, Note_on_c, 0, 74, 75
1, 3264, Note_on_c, 1, 59, 60
1, 3284, Note_on_c, 0, 74, 0
1, 3287, Note_on_c, 1, 59, 0
1, 3288, Note_on_c, 1, 67, 60
1, 3311, Note_on_c, 1, 67, 0
1, 3312, Note_on_c, 1, 59, 60
1, 3335, Note_on_c, 1, 59, 0
1, 3336, Note_on_c, 0, 86, 75
1, 3336, Note_on_c, 1, 67, 60
1, 3346, Note_on_c, 0, 86, 0
1, 3359, Note_on_c, 1, 67, 0
1, 3360, Note_on_c, 0, 84, 75
1, 3360, Note_on_c, 1, 59, 60
1, 3370, Note_on_c, 0, 84, 0
1, 3383, Note_on_c, 1, 59, 0
1, 3384, Note_on_c, 0, 83, 75
1, 3384, Note_on_c, 1, 67, 60
1, 3394, Note_on_c, 0, 83, 0
1, 3407, Note_on_c, 1, 67, 0
1, 3408, Note_on_c, 0, 81, 75
1, 3408, Note_on_c, 1, 59, 60
1, 3418, Note_on_c, 0, 81, 0
1, 3431, Note_on_c, 1, 59, 0
1, 3432, Note_on_c, 0, 79, 75
1, 3432, Note_on_c, 1, 67, 60
1, 3442, Note_on_c, 0, 79, 0
1, 3455, Note_on_c, 1, 67, 0
1, 3456, Note_on_c, 0, 77, 91
1, 3456, Note_on_c, 1, 60, 60
1, 3479, Note_on_c, 1, 60, 0
1, 3480, Note_on_c, 1, 67, 60
1, 3503, Note_on_c, 1, 67, 0
1, 3504, Note_on_c, 0, 77, 0
1, 3504, Note_on_c, 0, 76, 75
1, 3504, Note_on_c, 1, 60, 60
1, 3527, Note_on_c, 0, 76, 0
1, 3527, Note_on_c, 1, 60, 0
1, 3528, Note_on_c, 0, 79, 75
1, 3528, Note_on_c, 1, 67, 60
1, 3538, Note_on_c, 0, 79, 0
1, 3551, Note_on_c, 1, 67, 0
1, 3552, Note_on_c, 0, 77, 75
1, 3552, Note_on_c, 1, 52, 60
1, 3562, Note_on_c, 0, 77, 0
1, 3575, Note_on_c, 1, 52, 0
1, 3576, Note_on_c, 0, 76, 75
1, 3576, Note_on_c, 1, 60, 60
1, 3586, Note_on_c, 0, 76, 0
1, 3599, Note_on_c, 1, 60, 0
1, 3600, Note_on_c, 0, 74, 75
1, 3600, Note_on_c, 1, 52, 60
1, 3610, Note_on_c, 0, 74, 0
1, 3623, Note_on_c, 1, 52, 0
1, 3624, Note_on_c, 0, 72, 75
1, 3624, Note_on_c, 1, 60, 60
1, 3634, Note_on_c, 0, 72, 0
1, 3647, Note_on_c, 1, 60, 0
1, 3648, Note_on_c, 0, 71, 91
1, 3648, Note_on_c, 1, 53, 60
1, 3671, Note_on_c, 1, 53, 0
1, 3672, Note_on_c, 1, 60, 60
1, 3695, Note_on_c, 1, 60, 0
1, 3696, Note_on_c, 0, 71, 0
1, 3696, Note_on_c, 0, 69, 75
1, 3696, Note_on_c, 1, 53, 61
1, 3708, Note_on_c, 0, 69, 0
1, 3708, Note_on_c, 0, 74, 75
1, 3719, Note_on_c, 1, 53, 0
1, 3720, Note_on_c, 0, 74, 0
1, 3720, Note_on_c, 0, 77, 76
1, 3720, Note_on_c, 1, 60, 62
1, 3732, Note_on_c, 0, 77, 0
1, 3732, Note_on_c, 0, 81, 77
1, 3743, Note_on_c, 1, 60, 0
1, 3744, Note_on_c, 0, 81, 0
1, 3744, Note_on_c, 0, 79, 78
1, 3744, Note_on_c, 1, 53, 63
1, 3754, Note_on_c, 0, 79, 0
1, 3767, Note_on_c, 1, 53, 0
1, 3768, Note_on_c, 0, 77, 79
1, 3768, Note_on_c, 1, 62, 64
1, 3778, Note_on_c, 0, 77, 0
1, 3791, Note_on_c, 1, 62, 0
1, 3792, Note_on_c, 0, 76, 81
1, 3792, Note_on_c, 1, 54, 65
1, 3802, Note_on_c, 0, 76, 0
1, 3815, Note_on_c, 1, 54, 0
1, 3816, Note_on_c, 0, 74, 82
1, 3816, Note_on_c, 1, 62, 66
1, 3826, Note_on_c, 0, 74, 0
1, 3839, Note_on_c, 1, 62, 0
1, 3840, Note_on_c, 0, 72, 84
1, 3840, Note_on_c, 1, 55, 64
1, 3888, Note_on_c, 0, 72, 0
1, 3888, Note_on_c, 0, 71, 84
1, 3907, Note_on_c, 1, 55, 0
1, 3912, Note_on_c, 1, 62, 64
1, 3924, Note_on_c, 1, 62, 0
1, 3924, Note_on_c, 1, 59, 64
1, 3933, Note_on_c, 0, 71, 0
1, 3936, Note_on_c, 1, 59, 0
1, 3936, Note_on_c, 1, 55, 64
1, 3959, Note_on_c, 1, 55, 0
1, 3960, Note_on_c, 1, 69, 64
1, 3960, Note_on_c, 1, 65, 64
1, 3970, Note_on_c, 1, 69, 0
1, 3970, Note_on_c, 1, 65, 0
1, 3984, Note_on_c, 1, 67, 64
1, 3984, Note_on_c, 1, 64, 64
1, 3994, Note_on_c, 1, 67, 0
1, 3994, Note_on_c, 1, 64, 0
1, 4008, Note_on_c, 1, 65, 64
1, 4008, Note_on_c, 1, 62, 64
1, 4018, Note_on_c, 1, 65, 0
1, 4018, Note_on_c, 1, 62, 0
1, 4032, Note_on_c, 1, 64, 75
1, 4032, Note_on_c, 1, 60, 75
1, 4044, Note_on_c, 0, 79, 84
1, 4056, Note_on_c, 0, 79, 0
1, 4056, Note_on_c, 0, 81, 84
1, 4068, Note_on_c, 0, 81, 0
1, 4068, Note_on_c, 0, 79, 84
1, 4080, Note_on_c, 0, 79, 0
1, 4080, Note_on_c, 0, 84, 84
1, 4092, Note_on_c, 0, 84, 0
1, 4092, Note_on_c, 0, 83, 84
1, 4104, Note_on_c, 0, 83, 0
1, 4104, Note_on_c, 0, 81, 84
1, 4116, Note_on_c, 0, 81, 0
1, 4116, Note_on_c, 0, 79, 84
1, 4121, Note_on_c, 1, 64, 0
1, 4121, Note_on_c, 1, 60, 0
1, 4128, Note_on_c, 0, 79, 0
1, 4128, Note_on_c, 0, 77, 84
1, 4140, Note_on_c, 0, 77, 0
1, 4140, Note_on_c, 0, 76, 84
1, 4152, Note_on_c, 0, 76, 0
1, 4152, Note_on_c, 0, 74, 84
1, 4164, Note_on_c, 0, 74, 0
1, 4164, Note_on_c, 0, 72, 84
1, 4176, Note_on_c, 0, 72, 0
1, 4176, Note_on_c, 0, 71, 84
1, 4176, Note_on_c, 1, 64, 75
1, 4188, Note_on_c, 0, 71, 0
1, 4188, Note_on_c, 0, 72, 84
1, 4196, Note_on_c, 1, 64, 0
1, 4200, Note_on_c, 0, 72, 0
1, 4200, Note_on_c, 0, 74, 84
1, 4212, Note_on_c, 0, 74, 0
1, 4212, Note_on_c, 0, 72, 84
1, 4224, Note_on_c, 0, 72, 0
1, 4224, Note_on_c, 0, 69, 84
1, 4224, Note_on_c, 1, 65, 75
1, 4236, Note_on_c, 0, 69, 0
1, 4236, Note_on_c, 0, 72, 84
1, 4244, Note_on_c, 1, 65, 0
1, 4248, Note_on_c, 0, 72, 0
1, 4248, Note_on_c, 0, 74, 84
1, 4260, Note_on_c, 0, 74, 0
1, 4260, Note_on_c, 0, 72, 84
1, 4272, Note_on_c, 0, 72, 0
1, 4272, Note_on_c, 0, 67, 84
1, 4272, Note_on_c, 1, 64, 75
1, 4284, Note_on_c, 0, 67, 0
1, 4284, Note_on_c, 0, 72, 84
1, 4292, Note_on_c, 1, 64, 0
1, 4296, Note_on_c, 0, 72, 0
1, 4296, Note_on_c, 0, 74, 84
1, 4308, Note_on_c, 0, 74, 0
1, 4308, Note_on_c, 0, 72, 84
1, 4320, Note_on_c, 0, 72, 0
1, 4320, Note_on_c, 0, 65, 84
1, 4320, Note_on_c, 1, 62, 75
1, 4330, Note_on_c, 0, 65, 0
1, 4344, Note_on_c, 0, 77, 84
1, 4354, Note_on_c, 0, 77, 0
1, 4368, Note_on_c, 1, 62, 0
1, 4368, Note_on_c, 1, 55, 75
1, 4392, Note_on_c, 0, 77, 84
1, 4402, Note_on_c, 0, 77, 0
1, 4413, Note_on_c, 1, 55, 0
1, 4416, Note_on_c, 0, 76, 84
1, 4416, Note_on_c, 1, 60, 75
1, 4428, Note_on_c, 0, 76, 0
1, 4428, Note_on_c, 0, 79, 84
1, 4440, Note_on_c, 0, 79, 0
1, 4440, Note_on_c, 0, 81, 84
1, 4452, Note_on_c, 0, 81, 0
1, 4452, Note_on_c, 0, 79, 84
1, 4464, Note_on_c, 0, 79, 0
1, 4464, Note_on_c, 0, 84, 84
1, 4464, Note_on_c, 1, 60, 0
1, 4464, Note_on_c, 1, 64, 75
1, 4476, Note_on_c, 0, 84, 0
1, 4476, Note_on_c, 0, 83, 84
1, 4488, Note_on_c, 0, 83, 0
1, 4488, Note_on_c, 0, 81, 84
1, 4500, Note_on_c, 0, 81, 0
1, 4500, Note_on_c, 0, 79, 84
1, 4509, Note_on_c, 1, 64, 0
1, 4512, Note_on_c, 0, 79, 0
1, 4512, Note_on_c, 0, 77, 84
1, 4524, Note_on_c, 0, 77, 0
1, 4524, Note_on_c, 0, 76, 84
1, 4536, Note_on_c, 0, 76, 0
1, 4536, Note_on_c, 0, 74, 84
1, 4548, Note_on_c, 0, 74, 0
1, 4548, Note_on_c, 0, 72, 84
1, 4560, Note_on_c, 0, 72, 0
1, 4560, Note_on_c, 0, 71, 84
1, 4560, Note_on_c, 1, 64, 75
1, 4572, Note_on_c, 0, 71, 0
1, 4572, Note_on_c, 0, 72, 84
1, 4580, Note_on_c, 1, 64, 0
1, 4584, Note_on_c, 0, 72, 0
1, 4584, Note_on_c, 0, 74, 84
1, 4596, Note_on_c, 0, 74, 0
1, 4596, Note_on_c, 0, 72, 84
1, 4608, Note_on_c, 0, 72, 0
1, 4608, Note_on_c, 0, 69, 84
1, 4608, Note_on_c, 1, 65, 75
1, 4620, Note_on_c, 0, 69, 0
1, 4620, Note_on_c, 0, 72, 84
1, 4628, Note_on_c, 1, 65, 0
1, 4632, Note_on_c, 0, 72, 0
1, 4632, Note_on_c, 0, 74, 84
1, 4644, Note_on_c, 0, 74, 0
1, 4644, Note_on_c, 0, 72, 84
1, 4656, Note_on_c, 0, 72, 0
1, 4656, Note_on_c, 0, 67, 84
1, 4656, Note_on_c, 1, 64, 75
1, 4668, Note_on_c, 0, 67, 0
1, 4668, Note_on_c, 0, 72, 84
1, 4676, Note_on_c, 1, 64, 0
1, 4680, Note_on_c, 0, 72, 0
1, 4680, Note_on_c, 0, 74, 84
1, 4692, Note_on_c, 0, 74, 0
1, 4692, Note_on_c, 0, 72, 84
1, 4704, Note_on_c, 0, 72, 0
1, 4704, Note_on_c, 0, 65, 84
1, 4704, Note_on_c, 1, 62, 75
1, 4714, Note_on_c, 0, 65, 0
1, 4728, Note_on_c, 0, 77, 84
1, 4738, Note_on_c, 0, 77, 0
1, 4752, Note_on_c, 1, 62, 0
1, 4752, Note_on_c, 1, 55, 75
1, 4776, Note_on_c, 0, 77, 84
1, 4786, Note_on_c, 0, 77, 0
1, 4797, Note_on_c, 1, 55, 0
1, 4800, Note_on_c, 0, 76, 84
1, 4800, Note_on_c, 1, 60, 75
1, 4812, Note_on_c, 0, 76, 0
1, 4812, Note_on_c, 0, 77, 84
1, 4824, Note_on_c, 0, 77, 0
1, 4824, Note_on_c, 0, 79, 84
1, 4836, Note_on_c, 0, 79, 0
1, 4836, Note_on_c, 0, 77, 84
1, 4848, Note_on_c, 0, 77, 0
1, 4848, Note_on_c, 0, 76, 84
1, 4848, Note_on_c, 1, 60, 0
1, 4848, Note_on_c, 1, 62, 75
1, 4860, Note_on_c, 0, 76, 0
1, 4860, Note_on_c, 0, 74, 84
1, 4872, Note_on_c, 0, 74, 0
1, 4872, Note_on_c, 0, 72, 84
1, 4884, Note_on_c, 0, 72, 0
1, 4884, Note_on_c, 0, 71, 84
1, 4893, Note_on_c, 1, 62, 0
1, 4896, Note_on_c, 0, 71, 0
1, 4896, Note_on_c, 0, 72, 84
1, 4896, Note_on_c, 1, 64, 75
1, 4908, Note_on_c, 0, 72, 0
1, 4908, Note_on_c, 0, 74, 84
1, 4920, Note_on_c, 0, 74, 0
1, 4920, Note_on_c, 0, 76, 84
1, 4932, Note_on_c, 0, 76, 0
1, 4932, Note_on_c, 0, 74, 84
1, 4941, Note_on_c, 1, 64, 0
1, 4944, Note_on_c, 0, 74, 0
1, 4944, Note_on_c, 0, 72, 84
1, 4944, Note_on_c, 1, 52, 84
1, 4956, Note_on_c, 0, 72, 0
1, 4956, Note_on_c, 0, 71, 84
1, 4968, Note_on_c, 0, 71, 0
1, 4968, Note_on_c, 0, 69, 84
1, 4980, Note_on_c, 0, 69, 0
1, 4980, Note_on_c, 0, 68, 84
1, 4989, Note_on_c, 1, 52, 0
1, 4992, Note_on_c, 0, 68, 0
1, 4992, Note_on_c, 1, 53, 84
1, 5004, Note_on_c, 0, 69, 84
1, 5016, Note_on_c, 0, 69, 0
1, 5016, Note_on_c, 0, 71, 84
1, 5028, Note_on_c, 0, 71, 0
1, 5028, Note_on_c, 0, 73, 84
1, 5040, Note_on_c, 0, 73, 0
1, 5040, Note_on_c, 0, 74, 84
1, 5052, Note_on_c, 0, 74, 0
1, 5052, Note_on_c, 0, 76, 84
1, 5064, Note_on_c, 0, 76, 0
1, 5064, Note_on_c, 0, 77, 84
1, 5076, Note_on_c, 0, 77, 0
1, 5076, Note_on_c, 0, 79, 84
1, 5081, Note_on_c, 1, 53, 0
1, 5088, Note_on_c, 0, 79, 0
1, 5088, Note_on_c, 0, 81, 84
1, 5100, Note_on_c, 0, 81, 0
1, 5100, Note_on_c, 0, 77, 84
1, 5112, Note_on_c, 0, 77, 0
1, 5112, Note_on_c, 0, 74, 84
1, 5124, Note_on_c, 0, 74, 0
1, 5124, Note_on_c, 0, 69, 84
1, 5136, Note_on_c, 0, 69, 0
1, 5136, Note_on_c, 0, 79, 84
1, 5136, Note_on_c, 1, 52, 84
1, 5148, Note_on_c, 0, 79, 0
1, 5148, Note_on_c, 0, 76, 84
1, 5160, Note_on_c, 0, 76, 0
1, 5160, Note_on_c, 0, 73, 84
1, 5172, Note_on_c, 0, 73, 0
1, 5172, Note_on_c, 0, 67, 84
1, 5181, Note_on_c, 1, 52, 0
1, 5184, Note_on_c, 0, 67, 0
1, 5184, Note_on_c, 1, 59, 84
1, 5184, Note_on_c, 1, 50, 84
1, 5196, Note_on_c, 0, 77, 84
1, 5208, Note_on_c, 0, 77, 0
1, 5208, Note_on_c, 0, 79, 85
1, 5220, Note_on_c, 0, 79, 0
1, 5220, Note_on_c, 0, 81, 86
1, 5232, Note_on_c, 0, 81, 0
1, 5232, Note_on_c, 0, 83, 87
1, 5244, Note_on_c, 0, 83, 0
1, 5244, Note_on_c, 0, 84, 88
1, 5256, Note_on_c, 0, 84, 0
1, 5256, Note_on_c, 0, 86, 89
1, 5268, Note_on_c, 0, 86, 0
1, 5268, Note_on_c, 0, 88, 90
1, 5280, Note_on_c, 0, 88, 0
1, 5280, Note_on_c, 0, 89, 89
1, 5292, Note_on_c, 0, 89, 0
1, 5292, Note_on_c, 0, 86, 88
1, 5304, Note_on_c, 0, 86, 0
1, 5304, Note_on_c, 0, 83, 88
1, 5316, Note_on_c, 0, 83, 0
1, 5316, Note_on_c, 0, 77, 87
1, 5317, Note_on_c, 1, 59, 0
1, 5317, Note_on_c, 1, 50, 0
1, 5328, Note_on_c, 0, 77, 0
1, 5328, Note_on_c, 0, 76, 86
1, 5328, Note_on_c, 1, 60, 84
1, 5328, Note_on_c, 1, 48, 84
1, 5351, Note_on_c, 0, 76, 0
1, 5352, Note_on_c, 0, 84, 85
1, 5373, Note_on_c, 1, 60, 0
1, 5373, Note_on_c, 1, 48, 0
1, 5375, Note_on_c, 0, 84, 0
1, 5376, Note_on_c, 1, 53, 84
1, 5400, Note_on_c, 0, 81, 84
1, 5400, Note_on_c, 0, 77, 84
1, 5415, Note_on_c, 1, 53, 0
1, 5423, Note_on_c, 0, 81, 0
1, 5423, Note_on_c, 0, 77, 0
1, 5424, Note_on_c, 0, 79, 82
1, 5424, Note_on_c, 0, 76, 82
1, 5447, Note_on_c, 0, 79, 0
1, 5447, Note_on_c, 0, 76, 0
1, 5448, Note_on_c, 0, 77, 80
1, 5448, Note_on_c, 0, 74, 80
1, 5471, Note_on_c, 0, 77, 0
1, 5471, Note_on_c, 0, 74, 0
1, 5472, Note_on_c, 0, 76, 78
1, 5472, Note_on_c, 0, 72, 78
1, 5495, Note_on_c, 0, 76, 0
1, 5495, Note_on_c, 0, 72, 0
1, 5496, Note_on_c, 0, 79, 76
1, 5496, Note_on_c, 0, 76, 76
1, 5519, Note_on_c, 0, 79, 0
1, 5519, Note_on_c, 0, 76, 0
1, 5520, Note_on_c, 1, 55, 75
1, 5520, Note_on_c, 1, 43, 75
1, 5544, Note_on_c, 0, 71, 75
1, 5544, Note_on_c, 0, 65, 75
1, 5554, Note_on_c, 0, 71, 0
1, 5554, Note_on_c, 0, 65, 0
1, 5565, Note_on_c, 1, 55, 0
1, 5565, Note_on_c, 1, 43, 0
1, 5568, Note_on_c, 1, 56, 91
1, 5568, Note_on_c, 1, 44, 91
1, 5592, Note_on_c, 0, 72, 68
1, 5592, Note_on_c, 0, 63, 68
1, 5602, Note_on_c, 0, 72, 0
1, 5602, Note_on_c, 0, 63, 0
1, 5616, Note_on_c, 1, 56, 0
1, 5616, Note_on_c, 1, 44, 0
1, 5616, Note_on_c, 1, 60, 60
1, 5616, Note_on_c, 1, 56, 60
1, 5640, Note_on_c, 0, 75, 68
1, 5661, Note_on_c, 1, 60, 0
1, 5661, Note_on_c, 1, 56, 0
1, 5663, Note_on_c, 0, 75, 0
1, 5664, Note_on_c, 1, 60, 60
1, 5664, Note_on_c, 1, 56, 60
1, 5676, Note_on_c, 0, 75, 68
1, 5688, Note_on_c, 0, 75, 0
1, 5688, Note_on_c, 0, 74, 68
1, 5700, Note_on_c, 0, 74, 0
1, 5700, Note_on_c, 0, 75, 68
1, 5709, Note_on_c, 1, 60, 0
1, 5709, Note_on_c, 1, 56, 0
1, 5712, Note_on_c, 0, 75, 0
1, 5712, Note_on_c, 0, 77, 68
1, 5712, Note_on_c, 1, 60, 60
1, 5712, Note_on_c, 1, 56, 60
1, 5724, Note_on_c, 0, 77, 0
1, 5724, Note_on_c, 0, 75, 68
1, 5736, Note_on_c, 0, 75, 0
1, 5736, Note_on_c, 0, 74, 68
1, 5748, Note_on_c, 0, 74, 0
1, 5748, Note_on_c, 0, 75, 68
1, 5757, Note_on_c, 1, 60, 0
1, 5757, Note_on_c, 1, 56, 0
1, 5760, Note_on_c, 0, 75, 0
1, 5760, Note_on_c, 0, 84, 84
1, 5760, Note_on_c, 1, 60, 76
1, 5760, Note_on_c, 1, 55, 76
1, 5784, Note_on_c, 0, 84, 0
1, 5784, Note_on_c, 0, 75, 68
1, 5807, Note_on_c, 0, 75, 0
1, 5808, Note_on_c, 1, 60, 0
1, 5808, Note_on_c, 1, 55, 0
1, 5808, Note_on_c, 1, 60, 61
1, 5808, Note_on_c, 1, 55, 61
1, 5832, Note_on_c, 0, 75, 69
1, 5853, Note_on_c, 1, 60, 0
1, 5853, Note_on_c, 1, 55, 0
1, 5855, Note_on_c, 0, 75, 0
1, 5856, Note_on_c, 1, 60, 63
1, 5856, Note_on_c, 1, 55, 63
1, 5868, Note_on_c, 0, 75, 70
1, 5880, Note_on_c, 0, 75, 0
1, 5880, Note_on_c, 0, 74, 71
1, 5892, Note_on_c, 0, 74, 0
1, 5892, Note_on_c, 0, 75, 71
1, 5901, Note_on_c, 1, 60, 0
1, 5901, Note_on_c, 1, 55, 0
1, 5904, Note_on_c, 0, 75, 0
1, 5904, Note_on_c, 0, 77, 71
1, 5904, Note_on_c, 1, 60, 65
1, 5904, Note_on_c, 1, 55, 65
1, 5916, Note_on_c, 0, 77, 0
1, 5916, Note_on_c, 0, 75, 72
1, 5928, Note_on_c, 0, 75, 0
1, 5928, Note_on_c, 0, 74, 72
1, 5940, Note_on_c, 0, 74, 0
1, 5940, Note_on_c, 0, 75, 72
1, 5949, Note_on_c, 1, 60, 0
1, 5949, Note_on_c, 1, 55, 0
1, 5952, Note_on_c, 0, 75, 0
1, 5952, Note_on_c, 0, 84, 89
1, 5952, Note_on_c, 1, 60, 83
1, 5952, Note_on_c, 1, 54, 83
1, 5976, Note_on_c, 0, 84, 0
1, 5976, Note_on_c, 0, 75, 73
1, 5999, Note_on_c, 0, 75, 0
1, 6000, Note_on_c, 1, 60, 0
1, 6000, Note_on_c, 1, 54, 0
1, 6000, Note_on_c, 1, 60, 69
1, 6000, Note_on_c, 1, 54, 69
1, 6024, Note_on_c, 0, 75, 75
1, 6045, Note_on_c, 1, 60, 0
1, 6045, Note_on_c, 1, 54, 0
1, 6047, Note_on_c, 0, 75, 0
1, 6048, Note_on_c, 1, 60, 71
1, 6048, Note_on_c, 1, 54, 71
1, 6060, Note_on_c, 0, 75, 76
1, 6072, Note_on_c, 0, 75, 0
1, 6072, Note_on_c, 0, 74, 76
1, 6084, Note_on_c, 0, 74, 0
1, 6084, Note_on_c, 0, 75, 76
1, 6093, Note_on_c, 1, 60, 0
1, 6093, Note_on_c, 1, 54, 0
1, 6096, Note_on_c, 0, 75, 0
1, 6096, Note_on_c, 0, 77, 77
1, 6096, Note_on_c, 1, 57, 72
1, 6096, Note_on_c, 1, 54, 72
1, 6108, Note_on_c, 0, 77, 0
1, 6108, Note_on_c, 0, 75, 77
1, 6120, Note_on_c, 0, 75, 0
1, 6120, Note_on_c, 0, 74, 77
1, 6132, Note_on_c, 0, 74, 0
1, 6132, Note_on_c, 0, 72, 78
1, 6141, Note_on_c, 1, 57, 0
1, 6141, Note_on_c, 1, 54, 0
1, 6144, Note_on_c, 0, 72, 0
1, 6144, Note_on_c, 0, 71, 78
1, 6144, Note_on_c, 1, 59, 74
1, 6144, Note_on_c, 1, 55, 74
1, 6156, Note_on_c, 0, 71, 0
1, 6156, Note_on_c, 0, 72, 78
1, 6168, Note_on_c, 0, 72, 0
1, 6168, Note_on_c, 0, 74, 79
1, 6180, Note_on_c, 0, 74, 0
1, 6180, Note_on_c, 0, 72, 79
1, 6189, Note_on_c, 1, 59, 0
1, 6189, Note_on_c, 1, 55, 0
1, 6192, Note_on_c, 0, 72, 0
1, 6192, Note_on_c, 0, 71, 79
1, 6192, Note_on_c, 1, 60, 76
1, 6192, Note_on_c, 1, 57, 76
1, 6204, Note_on_c, 0, 71, 0
1, 6204, Note_on_c, 0, 69, 80
1, 6216, Note_on_c, 0, 69, 0
1, 6216, Note_on_c, 0, 67, 80
1, 6228, Note_on_c, 0, 67, 0
1, 6228, Note_on_c, 0, 66, 80
1, 6237, Note_on_c, 1, 60, 0
1, 6237, Note_on_c, 1, 57, 0
1, 6240, Note_on_c, 0, 66, 0
1, 6240, Note_on_c, 0, 67, 81
1, 6240, Note_on_c, 1, 62, 78
1, 6240, Note_on_c, 1, 59, 78
1, 6263, Note_on_c, 0, 67, 0
1, 6264, Note_on_c, 0, 74, 81
1, 6276, Note_on_c, 0, 74, 0
1, 6276, Note_on_c, 0, 72, 82
1, 6285, Note_on_c, 1, 62, 0
1, 6285, Note_on_c, 1, 59, 0
1, 6288, Note_on_c, 0, 72, 0
1, 6288, Note_on_c, 0, 71, 82
1, 6300, Note_on_c, 0, 71, 0
1, 6300, Note_on_c, 0, 69, 82
1, 6312, Note_on_c, 0, 69, 0
1, 6312, Note_on_c, 0, 67, 83
1, 6324, Note_on_c, 0, 67, 0
1, 6324, Note_on_c, 0, 65, 83
1, 6336, Note_on_c, 0, 65, 0
1, 6336, Note_on_c, 0, 64, 83
1, 6336, Note_on_c, 1, 60, 82
1, 6348, Note_on_c, 0, 64, 0
1, 6348, Note_on_c, 0, 72, 84
1, 6360, Note_on_c, 0, 72, 0
1, 6360, Note_on_c, 0, 71, 84
1, 6372, Note_on_c, 0, 71, 0
1, 6372, Note_on_c, 0, 72, 84
1, 6381, Note_on_c, 1, 60, 0
1, 6384, Note_on_c, 0, 72, 0
1, 6384, Note_on_c, 0, 76, 84
1, 6396, Note_on_c, 0, 76, 0
1, 6396, Note_on_c, 0, 72, 84
1, 6408, Note_on_c, 0, 72, 0
1, 6408, Note_on_c, 0, 71, 84
1, 6420, Note_on_c, 0, 71, 0
1, 6420, Note_on_c, 0, 72, 84
1, 6432, Note_on_c, 0, 72, 0
1, 6432, Note_on_c, 0, 67, 84
1, 6432, Note_on_c, 1, 64, 84
1, 6444, Note_on_c, 0, 67, 0
1, 6444, Note_on_c, 0, 72, 84
1, 6452, Note_on_c, 1, 64, 0
1, 6456, Note_on_c, 0, 72, 0
1, 6456, Note_on_c, 0, 71, 84
1, 6468, Note_on_c, 0, 71, 0
1, 6468, Note_on_c, 0, 72, 84
1, 6480, Note_on_c, 0, 72, 0
1, 6480, Note_on_c, 0, 69, 84
1, 6480, Note_on_c, 1, 65, 84
1, 6492, Note_on_c, 0, 69, 0
1, 6492, Note_on_c, 0, 72, 84
1, 6500, Note_on_c, 1, 65, 0
1, 6504, Note_on_c, 0, 72, 0
1, 6504, Note_on_c, 0, 71, 84
1, 6516, Note_on_c, 0, 71, 0
1, 6516, Note_on_c, 0, 72, 84
1, 6528, Note_on_c, 0, 72, 0
1, 6528, Note_on_c, 0, 67, 84
1, 6528, Note_on_c, 1, 64, 84
1, 6540, Note_on_c, 0, 67, 0
1, 6540, Note_on_c, 0, 72, 84
1, 6552, Note_on_c, 0, 72, 0
1, 6552, Note_on_c, 0, 71, 84
1, 6564, Note_on_c, 0, 71, 0
1, 6564, Note_on_c, 0, 72, 84
1, 6573, Note_on_c, 1, 64, 0
1, 6576, Note_on_c, 0, 72, 0
1, 6576, Note_on_c, 0, 76, 84
1, 6588, Note_on_c, 0, 76, 0
1, 6588, Note_on_c, 0, 72, 84
1, 6600, Note_on_c, 0, 72, 0
1, 6600, Note_on_c, 0, 71, 84
1, 6612, Note_on_c, 0, 71, 0
1, 6612, Note_on_c, 0, 72, 84
1, 6624, Note_on_c, 0, 72, 0
1, 6624, Note_on_c, 0, 79, 84
1, 6624, Note_on_c, 1, 64, 68
1, 6636, Note_on_c, 0, 79, 0
1, 6636, Note_on_c, 0, 72, 84
1, 6644, Note_on_c, 1, 64, 0
1, 6648, Note_on_c, 0, 72, 0
1, 6648, Note_on_c, 0, 71, 84
1, 6660, Note_on_c, 0, 71, 0
1, 6660, Note_on_c, 0, 72, 84
1, 6672, Note_on_c, 0, 72, 0
1, 6672, Note_on_c, 0, 81, 84
1, 6672, Note_on_c, 1, 65, 68
1, 6684, Note_on_c, 0, 81, 0
1, 6684, Note_on_c, 0, 72, 84
1, 6692, Note_on_c, 1, 65, 0
1, 6696, Note_on_c, 0, 72, 0
1, 6696, Note_on_c, 0, 71, 84
1, 6708, Note_on_c, 0, 71, 0
1, 6708, Note_on_c, 0, 72, 84
1, 6720, Note_on_c, 0, 72, 0
1, 6720, Note_on_c, 0, 79, 84
1, 6720, Note_on_c, 1, 64, 68
1, 6732, Note_on_c, 0, 79, 0
1, 6732, Note_on_c, 0, 72, 84
1, 6744, Note_on_c, 0, 72, 0
1, 6744, Note_on_c, 0, 71, 84
1, 6756, Note_on_c, 0, 71, 0
1, 6756, Note_on_c, 0, 72, 84
1, 6767, Note_on_c, 1, 64, 0
1, 6768, Note_on_c, 0, 72, 0
1, 6768, Note_on_c, 0, 76, 84
1, 6780, Note_on_c, 0, 76, 0
1, 6780, Note_on_c, 0, 72, 84
1, 6792, Note_on_c, 0, 72, 0
1, 6792, Note_on_c, 0, 71, 84
1, 6804, Note_on_c, 0, 71, 0
1, 6804, Note_on_c, 0, 72, 84
1, 6816, Note_on_c, 0, 72, 0
1, 6816, Note_on_c, 0, 67, 84
1, 6816, Note_on_c, 1, 64, 75
1, 6828, Note_on_c, 0, 67, 0
1, 6828, Note_on_c, 0, 72, 84
1, 6836, Note_on_c, 1, 64, 0
1, 6840, Note_on_c, 0, 72, 0
1, 6840, Note_on_c, 0, 71, 84
1, 6852, Note_on_c, 0, 71, 0
1, 6852, Note_on_c, 0, 72, 84
1, 6864, Note_on_c, 0, 72, 0
1, 6864, Note_on_c, 0, 69, 84
1, 6864, Note_on_c, 1, 65, 75
1, 6876, Note_on_c, 0, 69, 0
1, 6876, Note_on_c, 0, 72, 84
1, 6884, Note_on_c, 1, 65, 0
1, 6888, Note_on_c, 0, 72, 0
1, 6888, Note_on_c, 0, 71, 84
1, 6900, Note_on_c, 0, 71, 0
1, 6900, Note_on_c, 0, 72, 84
1, 6912, Note_on_c, 0, 72, 0
1, 6912, Note_on_c, 0, 67, 84
1, 6912, Note_on_c, 1, 64, 75
1, 6924, Note_on_c, 0, 67, 0
1, 6924, Note_on_c, 0, 72, 84
1, 6936, Note_on_c, 0, 72, 0
1, 6936, Note_on_c, 0, 71, 84
1, 6948, Note_on_c, 0, 71, 0
1, 6948, Note_on_c, 0, 72, 84
1, 6957, Note_on_c, 1, 64, 0
1, 6960, Note_on_c, 0, 72, 0
1, 6960, Note_on_c, 0, 76, 84
1, 6972, Note_on_c, 0, 76, 0
1, 6972, Note_on_c, 0, 72, 84
1, 6984, Note_on_c, 0, 72, 0
1, 6984, Note_on_c, 0, 71, 84
1, 6996, Note_on_c, 0, 71, 0
1, 6996, Note_on_c, 0, 72, 84
1, 7008, Note_on_c, 0, 72, 0
1, 7008, Note_on_c, 0, 79, 84
1, 7008, Note_on_c, 1, 64, 68
1, 7020, Note_on_c, 0, 79, 0
1, 7020, Note_on_c, 0, 72, 84
1, 7028, Note_on_c, 1, 64, 0
1, 7032, Note_on_c, 0, 72, 0
1, 7032, Note_on_c, 0, 71, 84
1, 7044, Note_on_c, 0, 71, 0
1, 7044, Note_on_c, 0, 72, 84
1, 7056, Note_on_c, 0, 72, 0
1, 7056, Note_on_c, 0, 81, 84
1, 7056, Note_on_c, 1, 65, 68
1, 7068, Note_on_c, 0, 81, 0
1, 7068, Note_on_c, 0, 72, 84
1, 7076, Note_on_c, 1, 65, 0
1, 7080, Note_on_c, 0, 72, 0
1, 7080, Note_on_c, 0, 71, 84
1, 7092, Note_on_c, 0, 71, 0
1, 7092, Note_on_c, 0, 72, 84
1, 7104, Note_on_c, 0, 72, 0
1, 7104, Note_on_c, 0, 79, 84
1, 7104, Note_on_c, 1, 64, 68
1, 7116, Note_on_c, 0, 79, 0
1, 7116, Note_on_c, 0, 72, 84
1, 7124, Note_on_c, 1, 64, 0
1, 7128, Note_on_c, 0, 72, 0
1, 7128, Note_on_c, 0, 71, 84
1, 7140, Note_on_c, 0, 71, 0
1, 7140, Note_on_c, 0, 72, 84
1, 7152, Note_on_c, 0, 72, 0
1, 7152, Note_on_c, 0, 81, 84
1, 7152, Note_on_c, 1, 65, 68
1, 7164, Note_on_c, 0, 81, 0
1, 7164, Note_on_c, 0, 72, 84
1, 7172, Note_on_c, 1, 65, 0
1, 7176, Note_on_c, 0, 72, 0
1, 7176, Note_on_c, 0, 71, 84
1, 7188, Note_on_c, 0, 71, 0
1, 7188, Note_on_c, 0, 72, 84
1, 7200, Note_on_c, 0, 72, 0
1, 7200, Note_on_c, 0, 79, 84
1, 7200, Note_on_c, 1, 64, 68
1, 7212, Note_on_c, 0, 79, 0
1, 7212, Note_on_c, 0, 72, 84
1, 7220, Note_on_c, 1, 64, 0
1, 7224, Note_on_c, 0, 72, 0
1, 7224, Note_on_c, 0, 71, 84
1, 7236, Note_on_c, 0, 71, 0
1, 7236, Note_on_c, 0, 72, 84
1, 7248, Note_on_c, 0, 72, 0
1, 7248, Note_on_c, 0, 81, 84
1, 7248, Note_on_c, 1, 65, 68
1, 7260, Note_on_c, 0, 81, 0
1, 7260, Note_on_c, 0, 72, 84
1, 7268, Note_on_c, 1, 65, 0
1, 7272, Note_on_c, 0, 72, 0
1, 7272, Note_on_c, 0, 71, 84
1, 7284, Note_on_c, 0, 71, 0
1, 7284, Note_on_c, 0, 72, 84
1, 7296, Note_on_c, 0, 72, 0
1, 7296, Note_on_c, 0, 79, 84
1, 7296, Note_on_c, 1, 64, 75
1, 7308, Note_on_c, 0, 79, 0
1, 7308, Note_on_c, 0, 72, 84
1, 7320, Note_on_c, 0, 72, 0
1, 7320, Note_on_c, 0, 71, 84
1, 7332, Note_on_c, 0, 71, 0
1, 7332, Note_on_c, 0, 72, 84
1, 7344, Note_on_c, 0, 72, 0
1, 7344, Note_on_c, 0, 79, 84
1, 7356, Note_on_c, 0, 79, 0
1, 7356, Note_on_c, 0, 72, 84
1, 7368, Note_on_c, 0, 72, 0
1, 7368, Note_on_c, 0, 71, 84
1, 7380, Note_on_c, 0, 71, 0
1, 7380, Note_on_c, 0, 72, 84
1, 7390, Note_on_c, 1, 64, 0
1, 7392, Note_on_c, 0, 72, 0
1, 7392, Note_on_c, 0, 79, 84
1, 7392, Note_on_c, 1, 67, 75
1, 7392, Note_on_c, 1, 63, 75
1, 7404, Note_on_c, 0, 79, 0
1, 7404, Note_on_c, 0, 72, 84
1, 7416, Note_on_c, 0, 72, 0
1, 7416, Note_on_c, 0, 71, 84
1, 7428, Note_on_c, 0, 71, 0
1, 7428, Note_on_c, 0, 72, 84
1, 7440, Note_on_c, 0, 72, 0
1, 7440, Note_on_c, 0, 79, 84
1, 7452, Note_on_c, 0, 79, 0
1, 7452, Note_on_c, 0, 72, 84
1, 7464, Note_on_c, 0, 72, 0
1, 7464, Note_on_c, 0, 71, 84
1, 7476, Note_on_c, 0, 71, 0
1, 7476, Note_on_c, 0, 72, 84
1, 7486, Note_on_c, 1, 67, 0
1, 7486, Note_on_c, 1, 63, 0
1, 7488, Note_on_c, 0, 72, 0
1, 7488, Note_on_c, 0, 78, 84
1, 7488, Note_on_c, 1, 69, 75
1, 7488, Note_on_c, 1, 62, 75
1, 7500, Note_on_c, 0, 78, 0
1, 7500, Note_on_c, 0, 72, 84
1, 7512, Note_on_c, 0, 72, 0
1, 7512, Note_on_c, 0, 71, 84
1, 7524, Note_on_c, 0, 71, 0
1, 7524, Note_on_c, 0, 72, 84
1, 7536, Note_on_c, 0, 72, 0
1, 7536, Note_on_c, 0, 78, 84
1, 7548, Note_on_c, 0, 78, 0
1, 7548, Note_on_c, 0, 72, 84
1, 7560, Note_on_c, 0, 72, 0
1, 7560, Note_on_c, 0, 71, 84
1, 7572, Note_on_c, 0, 71, 0
1, 7572, Note_on_c, 0, 72, 84
1, 7582, Note_on_c, 1, 69, 0
1, 7582, Note_on_c, 1, 62, 0
1, 7584, Note_on_c, 0, 72, 0
1, 7584, Note_on_c, 0, 77, 84
1, 7584, Note_on_c, 1, 67, 75
1, 7584, Note_on_c, 1, 59, 75
1, 7596, Note_on_c, 0, 77, 0
1, 7596, Note_on_c, 0, 74, 84
1, 7608, Note_on_c, 0, 74, 0
1, 7608, Note_on_c, 0, 73, 84
1, 7620, Note_on_c, 0, 73, 0
1, 7620, Note_on_c, 0, 74, 84
1, 7632, Note_on_c, 0, 74, 0
1, 7632, Note_on_c, 0, 77, 84
1, 7644, Note_on_c, 0, 77, 0
1, 7644, Note_on_c, 0, 74, 84
1, 7656, Note_on_c, 0, 74, 0
1, 7656, Note_on_c, 0, 73, 84
1, 7668, Note_on_c, 0, 73, 0
1, 7668, Note_on_c, 0, 74, 84
1, 7678, Note_on_c, 1, 67, 0
1, 7678, Note_on_c, 1, 59, 0
1, 7680, Note_on_c, 0, 74, 0
1, 7680, Note_on_c, 0, 76, 75
1, 7680, Note_on_c, 1, 67, 75
1, 7680, Note_on_c, 1, 60, 75
1, 7703, Note_on_c, 0, 76, 0
1, 7704, Note_on_c, 0, 84, 75
1, 7714, Note_on_c, 0, 84, 0
1, 7728, Note_on_c, 0, 86, 75
1, 7740, Note_on_c, 0, 86, 0
1, 7740, Note_on_c, 0, 84, 75
1, 7752, Note_on_c, 0, 84, 0
1, 7752, Note_on_c, 0, 83, 75
1, 7764, Note_on_c, 0, 83, 0
1, 7764, Note_on_c, 0, 81, 75
1, 7774, Note_on_c, 1, 67, 0
1, 7774, Note_on_c, 1, 60, 0
1, 7776, Note_on_c, 0, 81, 0
1, 7776, Note_on_c, 0, 81, 75
1, 7788, Note_on_c, 0, 81, 0
1, 7788, Note_on_c, 0, 79, 75
1, 7800, Note_on_c, 0, 79, 0
1, 7800, Note_on_c, 0, 77, 75
1, 7812, Note_on_c, 0, 77, 0
1, 7812, Note_on_c, 0, 76, 75
1, 7824, Note_on_c, 0, 76, 0
1, 7824, Note_on_c, 0, 76, 75
1, 7824, Note_on_c, 1, 60, 75
1, 7824, Note_on_c, 1, 52, 75
1, 7836, Note_on_c, 0, 76, 0
1, 7836, Note_on_c, 0, 74, 75
1, 7848, Note_on_c, 0, 74, 0
1, 7848, Note_on_c, 0, 72, 75
1, 7860, Note_on_c, 0, 72, 0
1, 7860, Note_on_c, 0, 71, 75
1, 7872, Note_on_c, 0, 71, 0
1, 7872, Note_on_c, 0, 69, 75
1, 7872, Note_on_c, 1, 52, 0
1, 7872, Note_on_c, 1, 53, 64
1, 7895, Note_on_c, 0, 69, 0
1, 7896, Note_on_c, 0, 80, 79
1, 7908, Note_on_c, 0, 80, 0
1, 7908, Note_on_c, 0, 81, 81
1, 7917, Note_on_c, 1, 60, 0
1, 7920, Note_on_c, 0, 81, 0
1, 7920, Note_on_c, 0, 79, 84
1, 7920, Note_on_c, 1, 65, 75
1, 7932, Note_on_c, 0, 79, 0
1, 7932, Note_on_c, 0, 77, 81
1, 7944, Note_on_c, 0, 77, 0
1, 7944, Note_on_c, 0, 76, 79
1, 7956, Note_on_c, 0, 76, 0
1, 7956, Note_on_c, 0, 74, 77
1, 7961, Note_on_c, 1, 53, 0
1, 7965, Note_on_c, 1, 65, 0
1, 7968, Note_on_c, 0, 74, 0
1, 7968, Note_on_c, 0, 72, 75
1, 7968, Note_on_c, 1, 64, 75
1, 7968, Note_on_c, 1, 55, 64
1, 8013, Note_on_c, 0, 72, 0
1, 8013, Note_on_c, 1, 64, 0
1, 8016, Note_on_c, 0, 71, 75
1, 8016, Note_on_c, 1, 62, 75
1, 8026, Note_on_c, 0, 71, 0
1, 8026, Note_on_c, 0, 72, 75
1, 8036, Note_on_c, 0, 72, 0
1, 8036, Note_on_c, 0, 71, 75
1, 8046, Note_on_c, 0, 71, 0
1, 8046, Note_on_c, 0, 69, 75
1, 8055, Note_on_c, 0, 69, 0
1, 8055, Note_on_c, 0, 71, 75
1, 8057, Note_on_c, 1, 55, 0
1, 8061, Note_on_c, 1, 62, 0
1, 8064, Note_on_c, 0, 71, 0
1, 8064, Note_on_c, 0, 72, 75
1, 8064, Note_on_c, 1, 64, 75
1, 8064, Note_on_c, 1, 60, 64
1, 8076, Note_on_c, 0, 72, 0
1, 8076, Note_on_c, 0, 84, 78
1, 8088, Note_on_c, 0, 84, 0
1, 8088, Note_on_c, 0, 83, 81
1, 8100, Note_on_c, 0, 83, 0
1, 8100, Note_on_c, 0, 84, 84
1, 8112, Note_on_c, 0, 84, 0
1, 8112, Note_on_c, 0, 86, 82
1, 8124, Note_on_c, 0, 86, 0
1, 8124, Note_on_c, 0, 84, 80
1, 8136, Note_on_c, 0, 84, 0
1, 8136, Note_on_c, 0, 83, 78
1, 8148, Note_on_c, 0, 83, 0
1, 8148, Note_on_c, 0, 81, 76
1, 8153, Note_on_c, 1, 64, 0
1, 8153, Note_on_c, 1, 60, 0
1, 8160, Note_on_c, 0, 81, 0
1, 8160, Note_on_c, 0, 81, 75
1, 8172, Note_on_c, 0, 81, 0
1, 8172, Note_on_c, 0, 79, 75
1, 8184, Note_on_c, 0, 79, 0
1, 8184, Note_on_c, 0, 77, 75
1, 8196, Note_on_c, 0, 77, 0
1, 8196, Note_on_c, 0, 76, 75
1, 8208, Note_on_c, 0, 76, 0
1, 8208, Note_on_c, 0, 76, 75
1, 8208, Note_on_c, 1, 60, 75
1, 8208, Note_on_c, 1, 52, 75
1, 8220, Note_on_c, 0, 76, 0
1, 8220, Note_on_c, 0, 74, 75
1, 8232, Note_on_c, 0, 74, 0
1, 8232, Note_on_c, 0, 72, 75
1, 8244, Note_on_c, 0, 72, 0
1, 8244, Note_on_c, 0, 71, 75
1, 8256, Note_on_c, 0, 71, 0
1, 8256, Note_on_c, 0, 69, 75
1, 8256, Note_on_c, 1, 52, 0
1, 8256, Note_on_c, 1, 53, 64
1, 8279, Note_on_c, 0, 69, 0
1, 8280, Note_on_c, 0, 80, 79
1, 8292, Note_on_c, 0, 80, 0
1, 8292, Note_on_c, 0, 81, 81
1, 8301, Note_on_c, 1, 60, 0
1, 8304, Note_on_c, 0, 81, 0
1, 8304, Note_on_c, 0, 79, 84
1, 8304, Note_on_c, 1, 65, 75
1, 8316, Note_on_c, 0, 79, 0
1, 8316, Note_on_c, 0, 77, 81
1, 8328, Note_on_c, 0, 77, 0
1, 8328, Note_on_c, 0, 76, 79
1, 8340, Note_on_c, 0, 76, 0
1, 8340, Note_on_c, 0, 74, 77
1, 8345, Note_on_c, 1, 53, 0
1, 8349, Note_on_c, 1, 65, 0
1, 8352, Note_on_c, 0, 74, 0
1, 8352, Note_on_c, 0, 72, 75
1, 8352, Note_on_c, 1, 64, 75
1, 8352, Note_on_c, 1, 55, 64
1, 8397, Note_on_c, 0, 72, 0
1, 8397, Note_on_c, 1, 64, 0
1, 8400, Note_on_c, 0, 71, 75
1, 8400, Note_on_c, 1, 62, 75
1, 8410, Note_on_c, 0, 71, 0
1, 8410, Note_on_c, 0, 72, 75
1, 8420, Note_on_c, 0, 72, 0
1, 8420, Note_on_c, 0, 71, 75
1, 8430, Note_on_c, 0, 71, 0
1, 8430, Note_on_c, 0, 69, 75
1, 8439, Note_on_c, 0, 69, 0
1, 8439, Note_on_c, 0, 71, 75
1, 8441, Note_on_c, 1, 55, 0
1, 8445, Note_on_c, 1, 62, 0
1, 8448, Note_on_c, 0, 71, 0
1, 8448, Note_on_c, 0, 72, 75
1, 8448, Note_on_c, 1, 48, 75
1, 8460, Note_on_c, 1, 48, 0
1, 8460, Note_on_c, 1, 60, 75
1, 8468, Note_on_c, 0, 72, 0
1, 8472, Note_on_c, 1, 60, 0
1, 8472, Note_on_c, 1, 59, 75
1, 8484, Note_on_c, 1, 59, 0
1, 8484, Note_on_c, 1, 60, 75
1, 8496, Note_on_c, 0, 69, 75
1, 8496, Note_on_c, 0, 65, 75
1, 8496, Note_on_c, 1, 60, 0
1, 8496, Note_on_c, 1, 48, 75
1, 8508, Note_on_c, 1, 48, 0
1, 8508, Note_on_c, 1, 60, 75
1, 8516, Note_on_c, 0, 69, 0
1, 8516, Note_on_c, 0, 65, 0
1, 8520, Note_on_c, 1, 60, 0
1, 8520, Note_on_c, 1, 59, 75
1, 8532, Note_on_c, 1, 59, 0
1, 8532, Note_on_c, 1, 60, 75
1, 8544, Note_on_c, 0, 67, 75
1, 8544, Note_on_c, 0, 64, 75
1, 8544, Note_on_c, 1, 60, 0
1, 8544, Note_on_c, 1, 48, 75
1, 8556, Note_on_c, 1, 48, 0
1, 8556, Note_on_c, 1, 60, 75
1, 8564, Note_on_c, 0, 67, 0
1, 8564, Note_on_c, 0, 64, 0
1, 8568, Note_on_c, 1, 60, 0
1, 8568, Note_on_c, 1, 59, 75
1, 8580, Note_on_c, 1, 59, 0
1, 8580, Note_on_c, 1, 60, 75
1, 8592, Note_on_c, 0, 71, 75
1, 8592, Note_on_c, 0, 65, 75
1, 8592, Note_on_c, 0, 62, 75
1, 8592, Note_on_c, 1, 60, 0
1, 8592, Note_on_c, 1, 48, 75
1, 8604, Note_on_c, 1, 48, 0
1, 8604, Note_on_c, 1, 60, 75
1, 8612, Note_on_c, 0, 71, 0
1, 8612, Note_on_c, 0, 65, 0
1, 8612, Note_on_c, 0, 62, 0
1, 8616, Note_on_c, 1, 60, 0
1, 8616, Note_on_c, 1, 59, 75
1, 8628, Note_on_c, 1, 59, 0
1, 8628, Note_on_c, 1, 60, 75
1, 8640, Note_on_c, 0, 72, 75
1, 8640, Note_on_c, 0, 67, 75
1, 8640, Note_on_c, 0, 64, 75
1, 8640, Note_on_c, 1, 60, 0
1, 8640, Note_on_c, 1, 48, 75
1, 8652, Note_on_c, 1, 48, 0
1, 8652, Note_on_c, 1, 60, 75
1, 8660, Note_on_c, 0, 72, 0
1, 8660, Note_on_c, 0, 67, 0
1, 8660, Note_on_c, 0, 64, 0
1, 8664, Note_on_c, 1, 60, 0
1, 8664, Note_on_c, 1, 59, 75
1, 8676, Note_on_c, 1, 59, 0
1, 8676, Note_on_c, 1, 60, 75
1, 8688, Note_on_c, 0, 81, 75
1, 8688, Note_on_c, 0, 77, 75
1, 8688, Note_on_c, 1, 60, 0
1, 8688, Note_on_c, 1, 48, 75
1, 8700, Note_on_c, 1, 48, 0
1, 8700, Note_on_c, 1, 60, 75
1, 8708, Note_on_c, 0, 81, 0
1, 8708, Note_on_c, 0, 77, 0
1, 8712, Note_on_c, 1, 60, 0
1, 8712, Note_on_c, 1, 59, 75
1, 8724, Note_on_c, 1, 59, 0
1, 8724, Note_on_c, 1, 60, 75
1, 8736, Note_on_c, 0, 79, 75
1, 8736, Note_on_c, 0, 76, 75
1, 8736, Note_on_c, 1, 60, 0
1, 8736, Note_on_c, 1, 48, 75
1, 8748, Note_on_c, 1, 48, 0
1, 8748, Note_on_c, 1, 60, 75
1, 8756, Note_on_c, 0, 79, 0
1, 8756, Note_on_c, 0, 76, 0
1, 8760, Note_on_c, 1, 60, 0
1, 8760, Note_on_c, 1, 59, 75
1, 8772, Note_on_c, 1, 59, 0
1, 8772, Note_on_c, 1, 60, 75
1, 8784, Note_on_c, 0, 83, 75
1, 8784, Note_on_c, 0, 77, 75
1, 8784, Note_on_c, 0, 74, 75
1, 8784, Note_on_c, 1, 60, 0
1, 8784, Note_on_c, 1, 48, 75
1, 8796, Note_on_c, 1, 48, 0
1, 8796, Note_on_c, 1, 60, 75
1, 8804, Note_on_c, 0, 83, 0
1, 8804, Note_on_c, 0, 77, 0
1, 8804, Note_on_c, 0, 74, 0
1, 8808, Note_on_c, 1, 60, 0
1, 8808, Note_on_c, 1, 59, 75
1, 8820, Note_on_c, 1, 59, 0
1, 8820, Note_on_c, 1, 60, 75
1, 8832, Note_on_c, 0, 84, 75
1, 8832, Note_on_c, 0, 79, 75
1, 8832, Note_on_c, 0, 76, 75
1, 8832, Note_on_c, 1, 60, 0
1, 8832, Note_on_c, 1, 48, 75
1, 8921, Note_on_c, 0, 84, 0
1, 8921, Note_on_c, 0, 79, 0
1, 8921, Note_on_c, 0, 76, 0
1, 8921, Note_on_c, 1, 48, 0
1, 8976, Note_on_c, 0, 72, 75
1, 9010, Note_on_c, 0, 72, 0
1, 9012, Note_on_c, 0, 69, 75
1, 9024, Note_on_c, 0, 69, 0
1, 9024, Note_on_c, 0, 65, 75
1, 9024, Note_on_c, 1, 57, 75
1, 9024, Note_on_c, 1, 53, 75
1, 9044, Note_on_c, 0, 65, 0
1, 9069, Note_on_c, 1, 57, 0
1, 9069, Note_on_c, 1, 53, 0
1, 9072, Note_on_c, 0, 69, 75
1, 9106, Note_on_c, 0, 69, 0
1, 9108, Note_on_c, 0, 65, 75
1, 9120, Note_on_c, 0, 65, 0
1, 9120, Note_on_c, 0, 64, 75
1, 9120, Note_on_c, 1, 58, 75
1, 9120, Note_on_c, 1, 48, 75
1, 9140, Note_on_c, 0, 64, 0
1, 9165, Note_on_c, 1, 58, 0
1, 9165, Note_on_c, 1, 48, 0
1, 9168, Note_on_c, 0, 67, 75
1, 9202, Note_on_c, 0, 67, 0
1, 9204, Note_on_c, 0, 64, 75
1, 9216, Note_on_c, 0, 64, 0
1, 9216, Note_on_c, 0, 65, 75
1, 9216, Note_on_c, 1, 57, 75
1, 9216, Note_on_c, 1, 53, 75
1, 9261, Note_on_c, 0, 65, 0
1, 9261, Note_on_c, 1, 57, 0
1, 9261, Note_on_c, 1, 53, 0
1, 9264, Note_on_c, 0, 74, 75
1, 9264, Note_on_c, 0, 70, 75
1, 9312, Note_on_c, 0, 74, 0
1, 9312, Note_on_c, 0, 70, 0
1, 9312, Note_on_c, 0, 72, 75
1, 9312, Note_on_c, 0, 69, 75
1, 9332, Note_on_c, 0, 72, 0
1, 9332, Note_on_c, 0, 69, 0
1, 9360, Note_on_c, 0, 79, 75
1, 9372, Note_on_c, 0, 79, 0
1, 9372, Note_on_c, 0, 77, 75
1, 9384, Note_on_c, 0, 77, 0
1, 9384, Note_on_c, 0, 76, 75
1, 9396, Note_on_c, 0, 76, 0
1, 9396, Note_on_c, 0, 74, 75
1, 9408, Note_on_c, 0, 74, 0
1, 9408, Note_on_c, 0, 72, 75
1, 9453, Note_on_c, 0, 72, 0
1, 9456, Note_on_c, 0, 81, 75
1, 9456, Note_on_c, 1, 65, 75
1, 9471, Note_on_c, 0, 81, 0
1, 9472, Note_on_c, 0, 69, 75
1, 9487, Note_on_c, 0, 69, 0
1, 9488, Note_on_c, 0, 74, 75
1, 9501, Note_on_c, 1, 65, 0
1, 9503, Note_on_c, 0, 74, 0
1, 9504, Note_on_c, 0, 72, 75
1, 9504, Note_on_c, 1, 67, 75
1, 9549, Note_on_c, 0, 72, 0
1, 9549, Note_on_c, 1, 67, 0
1, 9552, Note_on_c, 0, 70, 75
1, 9552, Note_on_c, 1, 60, 75
1, 9562, Note_on_c, 0, 70, 0
1, 9562, Note_on_c, 0, 72, 75
1, 9572, Note_on_c, 0, 72, 0
1, 9572, Note_on_c, 0, 70, 75
1, 9582, Note_on_c, 0, 70, 0
1, 9582, Note_on_c, 0, 69, 75
1, 9591, Note_on_c, 0, 69, 0
1, 9591, Note_on_c, 0, 70, 75
1, 9597, Note_on_c, 1, 60, 0
1, 9600, Note_on_c, 0, 70, 0
1, 9600, Note_on_c, 0, 70, 75
1, 9600, Note_on_c, 1, 65, 75
1, 9645, Note_on_c, 1, 65, 0
1, 9648, Note_on_c, 1, 60, 75
1, 9693, Note_on_c, 1, 60, 0
1, 9696, Note_on_c, 0, 70, 0
1, 9696, Note_on_c, 0, 69, 75
1, 9696, Note_on_c, 1, 53, 75
1, 9716, Note_on_c, 0, 69, 0
1, 9741, Note_on_c, 1, 53, 0
1, 9744, Note_on_c, 0, 72, 75
1, 9756, Note_on_c, 0, 72, 0
1, 9756, Note_on_c, 0, 69, 75
1, 9768, Note_on_c, 0, 69, 0
1, 9768, Note_on_c, 0, 72, 75
1, 9780, Note_on_c, 0, 72, 0
1, 9780, Note_on_c, 0, 69, 75
1, 9792, Note_on_c, 0, 69, 0
1, 9792, Note_on_c, 0, 65, 75
1, 9792, Note_on_c, 1, 57, 75
1, 9792, Note_on_c, 1, 53, 75
1, 9812, Note_on_c, 0, 65, 0
1, 9837, Note_on_c, 1, 57, 0
1, 9837, Note_on_c, 1, 53, 0
1, 9840, Note_on_c, 0, 70, 75
1, 9852, Note_on_c, 0, 70, 0
1, 9852, Note_on_c, 0, 69, 75
1, 9864, Note_on_c, 0, 69, 0
1, 9864, Note_on_c, 0, 67, 75
1, 9876, Note_on_c, 0, 67, 0
1, 9876, Note_on_c, 0, 65, 75
1, 9888, Note_on_c, 0, 65, 0
1, 9888, Note_on_c, 0, 64, 75
1, 9888, Note_on_c, 1, 58, 75
1, 9888, Note_on_c, 1, 48, 75
1, 9908, Note_on_c, 0, 64, 0
1, 9933, Note_on_c, 1, 58, 0
1, 9933, Note_on_c, 1, 48, 0
1, 9936, Note_on_c, 0, 69, 75
1, 9948, Note_on_c, 0, 69, 0
1, 9948, Note_on_c, 0, 67, 75
1, 9960, Note_on_c, 0, 67, 0
1, 9960, Note_on_c, 0, 65, 75
1, 9972, Note_on_c, 0, 65, 0
1, 9972, Note_on_c, 0, 64, 75
1, 9984, Note_on_c, 0, 64, 0
1, 9984, Note_on_c, 0, 65, 75
1, 9984, Note_on_c, 1, 57, 75
1, 9984, Note_on_c, 1, 53, 75
1, 9994, Note_on_c, 0, 65, 0
1, 10008, Note_on_c, 0, 74, 75
1, 10020, Note_on_c, 0, 74, 0
1, 10020, Note_on_c, 0, 76, 75
1, 10029, Note_on_c, 1, 57, 0
1, 10029, Note_on_c, 1, 53, 0
1, 10032, Note_on_c, 0, 76, 0
1, 10032, Note_on_c, 0, 79, 75
1, 10032, Note_on_c, 1, 70, 75
1, 10044, Note_on_c, 0, 79, 0
1, 10044, Note_on_c, 0, 77, 75
1, 10056, Note_on_c, 0, 77, 0
1, 10056, Note_on_c, 0, 76, 75
1, 10068, Note_on_c, 0, 76, 0
1, 10068, Note_on_c, 0, 74, 75
1, 10077, Note_on_c, 1, 70, 0
1, 10080, Note_on_c, 0, 74, 0
1, 10080, Note_on_c, 0, 72, 75
1, 10080, Note_on_c, 1, 69, 75
1, 10100, Note_on_c, 0, 72, 0
1, 10125, Note_on_c, 1, 69, 0
1, 10128, Note_on_c, 0, 84, 75
1, 10140, Note_on_c, 0, 84, 0
1, 10140, Note_on_c, 0, 81, 75
1, 10152, Note_on_c, 0, 81, 0
1, 10152, Note_on_c, 0, 77, 75
1, 10164, Note_on_c, 0, 77, 0
1, 10164, Note_on_c, 0, 72, 75
1, 10176, Note_on_c, 0, 72, 0
1, 10176, Note_on_c, 0, 69, 75
1, 10224, Note_on_c, 1, 65, 75
1, 10224, Note_on_c, 1, 60, 64
1, 10272, Note_on_c, 0, 69, 0
1, 10272, Note_on_c, 0, 70, 75
1, 10272, Note_on_c, 1, 65, 0
1, 10272, Note_on_c, 1, 67, 75
1, 10292, Note_on_c, 0, 70, 0
1, 10318, Note_on_c, 1, 60, 0
1, 10319, Note_on_c, 1, 67, 0
1, 10320, Note_on_c, 0, 82, 75
1, 10332, Note_on_c, 0, 82, 0
1, 10332, Note_on_c, 0, 79, 75
1, 10344, Note_on_c, 0, 79, 0
1, 10344, Note_on_c, 0, 76, 75
1, 10356, Note_on_c, 0, 76, 0
1, 10356, Note_on_c, 0, 72, 75
1, 10368, Note_on_c, 0, 72, 0
1, 10368, Note_on_c, 0, 70, 75
1, 10416, Note_on_c, 1, 64, 70
1, 10416, Note_on_c, 1, 60, 70
1, 10464, Note_on_c, 0, 70, 0
1, 10464, Note_on_c, 0, 69, 65
1, 10464, Note_on_c, 1, 64, 0
1, 10464, Note_on_c, 1, 60, 0
1, 10464, Note_on_c, 1, 65, 65
1, 10464, Note_on_c, 1, 62, 65
1, 10484, Note_on_c, 0, 69, 0
1, 10511, Note_on_c, 1, 65, 0
1, 10511, Note_on_c, 1, 62, 0
1, 10512, Note_on_c, 0, 77, 60
1, 10524, Note_on_c, 0, 77, 0
1, 10524, Note_on_c, 0, 72, 60
1, 10536, Note_on_c, 0, 72, 0
1, 10536, Note_on_c, 0, 69, 62
1, 10548, Note_on_c, 0, 69, 0
1, 10548, Note_on_c, 0, 65, 65
1, 10560, Note_on_c, 0, 65, 0
1, 10560, Note_on_c, 0, 63, 84
1, 10608, Note_on_c, 1, 57, 60
1, 10608, Note_on_c, 1, 53, 60
1, 10653, Note_on_c, 1, 57, 0
1, 10653, Note_on_c, 1, 53, 0
1, 10656, Note_on_c, 1, 58, 62
1, 10656, Note_on_c, 1, 55, 62
1, 10701, Note_on_c, 1, 58, 0
1, 10701, Note_on_c, 1, 55, 0
1, 10704, Note_on_c, 1, 60, 65
1, 10704, Note_on_c, 1, 57, 65
1, 10749, Note_on_c, 1, 60, 0
1, 10749, Note_on_c, 1, 57, 0
1, 10752, Note_on_c, 1, 58, 68
1, 10775, Note_on_c, 0, 63, 0
1, 10776, Note_on_c, 0, 61, 75
1, 10800, Note_on_c, 0, 61, 0
1, 10800, Note_on_c, 0, 62, 76
1, 10810, Note_on_c, 0, 62, 0
1, 10824, Note_on_c, 0, 66, 77
1, 10841, Note_on_c, 1, 58, 0
1, 10848, Note_on_c, 0, 66, 0
1, 10848, Note_on_c, 0, 67, 78
1, 10858, Note_on_c, 0, 67, 0
1, 10872, Note_on_c, 0, 69, 80
1, 10896, Note_on_c, 0, 69, 0
1, 10896, Note_on_c, 0, 70, 81
1, 10906, Note_on_c, 0, 70, 0
1, 10920, Note_on_c, 0, 74, 82
1, 10920, Note_on_c, 0, 70, 82
1, 10920, Note_on_c, 1, 46, 68
1, 10930, Note_on_c, 0, 74, 0
1, 10930, Note_on_c, 0, 70, 0
1, 10943, Note_on_c, 1, 46, 0
1, 10944, Note_on_c, 0, 74, 84
1, 10944, Note_on_c, 0, 70, 84
1, 10944, Note_on_c, 1, 48, 68
1, 10968, Note_on_c, 0, 74, 0
1, 10968, Note_on_c, 0, 70, 0
1, 10968, Note_on_c, 0, 72, 83
1, 10968, Note_on_c, 0, 69, 83
1, 10991, Note_on_c, 0, 72, 0
1, 10991, Note_on_c, 0, 69, 0
1, 10992, Note_on_c, 0, 70, 82
1, 10992, Note_on_c, 0, 67, 82
1, 11002, Note_on_c, 0, 70, 0
1, 11002, Note_on_c, 0, 67, 0
1, 11016, Note_on_c, 0, 69, 82
1, 11016, Note_on_c, 0, 65, 82
1, 11026, Note_on_c, 0, 69, 0
1, 11026, Note_on_c, 0, 65, 0
1, 11033, Note_on_c, 1, 48, 0
1, 11040, Note_on_c, 0, 72, 81
1, 11040, Note_on_c, 0, 69, 81
1, 11064, Note_on_c, 0, 72, 0
1, 11064, Note_on_c, 0, 69, 0
1, 11064, Note_on_c, 0, 70, 80
1, 11064, Note_on_c, 0, 67, 80
1, 11087, Note_on_c, 0, 70, 0
1, 11087, Note_on_c, 0, 67, 0
1, 11088, Note_on_c, 0, 69, 80
1, 11088, Note_on_c, 0, 65, 80
1, 11098, Note_on_c, 0, 69, 0
1, 11098, Note_on_c, 0, 65, 0
1, 11112, Note_on_c, 0, 67, 79
1, 11112, Note_on_c, 0, 64, 79
1, 11112, Note_on_c, 1, 58, 64
1, 11112, Note_on_c, 1, 48, 64
1, 11122, Note_on_c, 0, 67, 0
1, 11122, Note_on_c, 0, 64, 0
1, 11135, Note_on_c, 1, 58, 0
1, 11135, Note_on_c, 1, 48, 0
1, 11136, Note_on_c, 0, 67, 78
1, 11136, Note_on_c, 0, 64, 78
1, 11136, Note_on_c, 1, 58, 63
1, 11136, Note_on_c, 1, 53, 63
1, 11232, Note_on_c, 0, 67, 0
1, 11232, Note_on_c, 0, 64, 0
1, 11232, Note_on_c, 0, 65, 76
1, 11232, Note_on_c, 1, 58, 0
1, 11232, Note_on_c, 1, 57, 61
1, 11252, Note_on_c, 0, 65, 0
1, 11277, Note_on_c, 1, 57, 0
1, 11277, Note_on_c, 1, 53, 0
1, 11280, Note_on_c, 0, 84, 75
1, 11292, Note_on_c, 0, 84, 0
1, 11292, Note_on_c, 0, 81, 75
1, 11304, Note_on_c, 0, 81, 0
1, 11304, Note_on_c, 0, 84, 75
1, 11316, Note_on_c, 0, 84, 0
1, 11316, Note_on_c, 0, 81, 75
1, 11328, Note_on_c, 0, 81, 0
1, 11328, Note_on_c, 0, 77, 75
1, 11328, Note_on_c, 1, 65, 60
1, 11348, Note_on_c, 0, 77, 0
1, 11351, Note_on_c, 1, 65, 0
1, 11352, Note_on_c, 1, 69, 60
1, 11375, Note_on_c, 1, 69, 0
1, 11376, Note_on_c, 1, 65, 60
1, 11399, Note_on_c, 1, 65, 0
1, 11400, Note_on_c, 0, 81, 75
1, 11400, Note_on_c, 1, 69, 60
1, 11410, Note_on_c, 0, 81, 0
1, 11423, Note_on_c, 1, 69, 0
1, 11424, Note_on_c, 0, 79, 75
1, 11424, Note_on_c, 1, 65, 60
1, 11434, Note_on_c, 0, 79, 0
1, 11447, Note_on_c, 1, 65, 0
1, 11448, Note_on_c, 0, 77, 75
1, 11448, Note_on_c, 1, 69, 60
1, 11458, Note_on_c, 0, 77, 0
1, 11471, Note_on_c, 1, 69, 0
1, 11472, Note_on_c, 0, 76, 75
1, 11472, Note_on_c, 1, 65, 60
1, 11482, Note_on_c, 0, 76, 0
1, 11495, Note_on_c, 1, 65, 0
1, 11496, Note_on_c, 0, 74, 75
1, 11496, Note_on_c, 1, 69, 60
1, 11506, Note_on_c, 0, 74, 0
1, 11519, Note_on_c, 1, 69, 0
1, 11520, Note_on_c, 0, 74, 91
1, 11520, Note_on_c, 1, 64, 60
1, 11543, Note_on_c, 1, 64, 0
1, 11544, Note_on_c, 1, 67, 60
1, 11567, Note_on_c, 1, 67, 0
1, 11568, Note_on_c, 1, 64, 60
1, 11591, Note_on_c, 1, 64, 0
1, 11592, Note_on_c, 0, 74, 0
1, 11592, Note_on_c, 0, 76, 84
1, 11592, Note_on_c, 1, 67, 60
1, 11604, Note_on_c, 0, 76, 0
1, 11604, Note_on_c, 0, 74, 82
1, 11615, Note_on_c, 1, 67, 0
1, 11616, Note_on_c, 0, 74, 0
1, 11616, Note_on_c, 0, 73, 81
1, 11616, Note_on_c, 1, 64, 60
1, 11636, Note_on_c, 0, 73, 0
1, 11639, Note_on_c, 1, 64, 0
1, 11640, Note_on_c, 1, 67, 60
1, 11663, Note_on_c, 1, 67, 0
1, 11664, Note_on_c, 0, 76, 75
1, 11664, Note_on_c, 1, 64, 60
1, 11676, Note_on_c, 0, 76, 0
1, 11676, Note_on_c, 0, 73, 75
1, 11687, Note_on_c, 1, 64, 0
1, 11688, Note_on_c, 0, 73, 0
1, 11688, Note_on_c, 0, 76, 75
1, 11688, Note_on_c, 1, 67, 60
1, 11700, Note_on_c, 0, 76, 0
1, 11700, Note_on_c, 0, 73, 75
1, 11711, Note_on_c, 1, 67, 0
1, 11712, Note_on_c, 0, 73, 0
1, 11712, Note_on_c, 0, 69, 75
1, 11712, Note_on_c, 1, 61, 60
1, 11732, Note_on_c, 0, 69, 0
1, 11735, Note_on_c, 1, 61, 0
1, 11736, Note_on_c, 1, 64, 60
1, 11759, Note_on_c, 1, 64, 0
1, 11760, Note_on_c, 1, 61, 60
1, 11783, Note_on_c, 1, 61, 0
1, 11784, Note_on_c, 0, 82, 75
1, 11784, Note_on_c, 1, 64, 60
1, 11794, Note_on_c, 0, 82, 0
1, 11807, Note_on_c, 1, 64, 0
1, 11808, Note_on_c, 0, 81, 75
1, 11808, Note_on_c, 1, 61, 60
1, 11818, Note_on_c, 0, 81, 0
1, 11831, Note_on_c, 1, 61, 0
1, 11832, Note_on_c, 0, 79, 75
1, 11832, Note_on_c, 1, 69, 60
1, 11842, Note_on_c, 0, 79, 0
1, 11855, Note_on_c, 1, 69, 0
1, 11856, Note_on_c, 0, 77, 75
1, 11856, Note_on_c, 1, 61, 60
1, 11866, Note_on_c, 0, 77, 0
1, 11879, Note_on_c, 1, 61, 0
1, 11880, Note_on_c, 0, 76, 75
1, 11880, Note_on_c, 1, 69, 60
1, 11890, Note_on_c, 0, 76, 0
1, 11903, Note_on_c, 1, 69, 0
1, 11904, Note_on_c, 0, 79, 91
1, 11904, Note_on_c, 1, 62, 60
1, 11927, Note_on_c, 1, 62, 0
1, 11928, Note_on_c, 1, 69, 60
1, 11951, Note_on_c, 1, 69, 0
1, 11952, Note_on_c, 1, 62, 60
1, 11975, Note_on_c, 1, 62, 0
1, 11976, Note_on_c, 0, 79, 0
1, 11976, Note_on_c, 0, 76, 84
1, 11976, Note_on_c, 1, 69, 60
1, 11999, Note_on_c, 0, 76, 0
1, 11999, Note_on_c, 1, 69, 0
1, 12000, Note_on_c, 0, 77, 81
1, 12000, Note_on_c, 1, 62, 60
1, 12020, Note_on_c, 0, 77, 0
1, 12023, Note_on_c, 1, 62, 0
1, 12024, Note_on_c, 1, 69, 60
1, 12047, Note_on_c, 1, 69, 0
1, 12048, Note_on_c, 0, 81, 75
1, 12048, Note_on_c, 1, 62, 60
1, 12060, Note_on_c, 0, 81, 0
1, 12060, Note_on_c, 0, 77, 75
1, 12071, Note_on_c, 1, 62, 0
1, 12072, Note_on_c, 0, 77, 0
1, 12072, Note_on_c, 0, 81, 75
1, 12072, Note_on_c, 1, 69, 60
1, 12084, Note_on_c, 0, 81, 0
1, 12084, Note_on_c, 0, 77, 75
1, 12095, Note_on_c, 1, 69, 0
1, 12096, Note_on_c, 0, 77, 0
1, 12096, Note_on_c, 0, 74, 75
1, 12096, Note_on_c, 1, 59, 60
1, 12116, Note_on_c, 0, 74, 0
1, 12119, Note_on_c, 1, 59, 0
1, 12120, Note_on_c, 1, 67, 60
1, 12143, Note_on_c, 1, 67, 0
1, 12144, Note_on_c, 1, 59, 60
1, 12167, Note_on_c, 1, 59, 0
1, 12168, Note_on_c, 0, 86, 75
1, 12168, Note_on_c, 1, 67, 60
1, 12178, Note_on_c, 0, 86, 0
1, 12191, Note_on_c, 1, 67, 0
1, 12192, Note_on_c, 0, 84, 75
1, 12192, Note_on_c, 1, 59, 60
1, 12202, Note_on_c, 0, 84, 0
1, 12215, Note_on_c, 1, 59, 0
1, 12216, Note_on_c, 0, 83, 75
1, 12216, Note_on_c, 1, 67, 60
1, 12226, Note_on_c, 0, 83, 0
1, 12239, Note_on_c, 1, 67, 0
1, 12240, Note_on_c, 0, 81, 75
1, 12240, Note_on_c, 1, 59, 60
1, 12250, Note_on_c, 0, 81, 0
1, 12263, Note_on_c, 1, 59, 0
1, 12264, Note_on_c, 0, 79, 75
1, 12264, Note_on_c, 1, 67, 60
1, 12274, Note_on_c, 0, 79, 0
1, 12287, Note_on_c, 1, 67, 0
1, 12288, Note_on_c, 0, 77, 91
1, 12288, Note_on_c, 1, 60, 60
1, 12311, Note_on_c, 1, 60, 0
1, 12312, Note_on_c, 1, 67, 60
1, 12335, Note_on_c, 1, 67, 0
1, 12336, Note_on_c, 0, 77, 0
1, 12336, Note_on_c, 0, 76, 75
1, 12336, Note_on_c, 1, 60, 60
1, 12359, Note_on_c, 0, 76, 0
1, 12359, Note_on_c, 1, 60, 0
1, 12360, Note_on_c, 0, 79, 75
1, 12360, Note_on_c, 1, 67, 60
1, 12370, Note_on_c, 0, 79, 0
1, 12383, Note_on_c, 1, 67, 0
1, 12384, Note_on_c, 0, 77, 75
1, 12384, Note_on_c, 1, 52, 60
1, 12394, Note_on_c, 0, 77, 0
1, 12407, Note_on_c, 1, 52, 0
1, 12408, Note_on_c, 0, 76, 75
1, 12408, Note_on_c, 1, 60, 60
1, 12418, Note_on_c, 0, 76, 0
1, 12431, Note_on_c, 1, 60, 0
1, 12432, Note_on_c, 0, 74, 75
1, 12432, Note_on_c, 1, 52, 60
1, 12442, Note_on_c, 0, 74, 0
1, 12455, Note_on_c, 1, 52, 0
1, 12456, Note_on_c, 0, 72, 75
1, 12456, Note_on_c, 1, 60, 60
1, 12466, Note_on_c, 0, 72, 0
1, 12479, Note_on_c, 1, 60, 0
1, 12480, Note_on_c, 0, 71, 91
1, 12480, Note_on_c, 1, 53, 60
1, 12503, Note_on_c, 1, 53, 0
1, 12504, Note_on_c, 1, 60, 60
1, 12527, Note_on_c, 1, 60, 0
1, 12528, Note_on_c, 0, 71, 0
1, 12528, Note_on_c, 0, 69, 75
1, 12528, Note_on_c, 1, 53, 61
1, 12540, Note_on_c, 0, 69, 0
1, 12540, Note_on_c, 0, 74, 75
1, 12551, Note_on_c, 1, 53, 0
1, 12552, Note_on_c, 0, 74, 0
1, 12552, Note_on_c, 0, 77, 76
1, 12552, Note_on_c, 1, 60, 62
1, 12564, Note_on_c, 0, 77, 0
1, 12564, Note_on_c, 0, 81, 77
1, 12575, Note_on_c, 1, 60, 0
1, 12576, Note_on_c, 0, 81, 0
1, 12576, Note_on_c, 0, 79, 78
1, 12576, Note_on_c, 1, 53, 63
1, 12586, Note_on_c, 0, 79, 0
1, 12599, Note_on_c, 1, 53, 0
1, 12600, Note_on_c, 0, 77, 79
1, 12600, Note_on_c, 1, 62, 64
1, 12610, Note_on_c, 0, 77, 0
1, 12623, Note_on_c, 1, 62, 0
1, 12624, Note_on_c, 0, 76, 81
1, 12624, Note_on_c, 1, 54, 65
1, 12634, Note_on_c, 0, 76, 0
1, 12647, Note_on_c, 1, 54, 0
1, 12648, Note_on_c, 0, 74, 82
1, 12648, Note_on_c, 1, 62, 66
1, 12658, Note_on_c, 0, 74, 0
1, 12671, Note_on_c, 1, 62, 0
1, 12672, Note_on_c, 0, 72, 84
1, 12672, Note_on_c, 1, 55, 64
1, 12720, Note_on_c, 0, 72, 0
1, 12720, Note_on_c, 0, 71, 84
1, 12739, Note_on_c, 1, 55, 0
1, 12744, Note_on_c, 1, 62, 64
1, 12756, Note_on_c, 1, 62, 0
1, 12756, Note_on_c, 1, 59, 64
1, 12765, Note_on_c, 0, 71, 0
1, 12768, Note_on_c, 1, 59, 0
1, 12768, Note_on_c, 1, 55, 64
1, 12791, Note_on_c, 1, 55, 0
1, 12792, Note_on_c, 1, 69, 64
1, 12792, Note_on_c, 1, 65, 64
1, 12802, Note_on_c, 1, 69, 0
1, 12802, Note_on_c, 1, 65, 0
1, 12816, Note_on_c, 1, 67, 64
1, 12816, Note_on_c, 1, 64, 64
1, 12826, Note_on_c, 1, 67, 0
1, 12826, Note_on_c, 1, 64, 0
1, 12840, Note_on_c, 1, 65, 64
1, 12840, Note_on_c, 1, 62, 64
1, 12850, Note_on_c, 1, 65, 0
1, 12850, Note_on_c, 1, 62, 0
1, 12864, Note_on_c, 1, 64, 75
1, 12864, Note_on_c, 1, 60, 75
1, 12876, Note_on_c, 0, 79, 84
1, 12888, Note_on_c, 0, 79, 0
1, 12888, Note_on_c, 0, 81, 84
1, 12900, Note_on_c, 0, 81, 0
1, 12900, Note_on_c, 0, 79, 84
1, 12912, Note_on_c, 0, 79, 0
1, 12912, Note_on_c, 0, 84, 84
1, 12924, Note_on_c, 0, 84, 0
1, 12924, Note_on_c, 0, 83, 84
1, 12936, Note_on_c, 0, 83, 0
1, 12936, Note_on_c, 0, 81, 84
1, 12948, Note_on_c, 0, 81, 0
1, 12948, Note_on_c, 0, 79, 84
1, 12953, Note_on_c, 1, 64, 0
1, 12953, Note_on_c, 1, 60, 0
1, 12960, Note_on_c, 0, 79, 0
1, 12960, Note_on_c, 0, 77, 84
1, 12972, Note_on_c, 0, 77, 0
1, 12972, Note_on_c, 0, 76, 84
1, 12984, Note_on_c, 0, 76, 0
1, 12984, Note_on_c, 0, 74, 84
1, 12996, Note_on_c, 0, 74, 0
1, 12996, Note_on_c, 0, 72, 84
1, 13008, Note_on_c, 0, 72, 0
1, 13008, Note_on_c, 0, 71, 84
1, 13008, Note_on_c, 1, 64, 75
1, 13020, Note_on_c, 0, 71, 0
1, 13020, Note_on_c, 0, 72, 84
1, 13028, Note_on_c, 1, 64, 0
1, 13032, Note_on_c, 0, 72, 0
1, 13032, Note_on_c, 0, 74, 84
1, 13044, Note_on_c, 0, 74, 0
1, 13044, Note_on_c, 0, 72, 84
1, 13056, Note_on_c, 0, 72, 0
1, 13056, Note_on_c, 0, 69, 84
1, 13056, Note_on_c, 1, 65, 75
1, 13068, Note_on_c, 0, 69, 0
1, 13068, Note_on_c, 0, 72, 84
1, 13076, Note_on_c, 1, 65, 0
1, 13080, Note_on_c, 0, 72, 0
1, 13080, Note_on_c, 0, 74, 84
1, 13092, Note_on_c, 0, 74, 0
1, 13092, Note_on_c, 0, 72, 84
1, 13104, Note_on_c, 0, 72, 0
1, 13104, Note_on_c, 0, 67, 84
1, 13104, Note_on_c, 1, 64, 75
1, 13116, Note_on_c, 0, 67, 0
1, 13116, Note_on_c, 0, 72, 84
1, 13124, Note_on_c, 1, 64, 0
1, 13128, Note_on_c, 0, 72, 0
1, 13128, Note_on_c, 0, 74, 84
1, 13140, Note_on_c, 0, 74, 0
1, 13140, Note_on_c, 0, 72, 84
1, 13152, Note_on_c, 0, 72, 0
1, 13152, Note_on_c, 0, 65, 84
1, 13152, Note_on_c, 1, 62, 75
1, 13162, Note_on_c, 0, 65, 0
1, 13176, Note_on_c, 0, 77, 84
1, 13186, Note_on_c, 0, 77, 0
1, 13200, Note_on_c, 1, 62, 0
1, 13200, Note_on_c, 1, 55, 75
1, 13224, Note_on_c, 0, 77, 84
1, 13234, Note_on_c, 0, 77, 0
1, 13245, Note_on_c, 1, 55, 0
1, 13248, Note_on_c, 0, 76, 84
1, 13248, Note_on_c, 1, 60, 75
1, 13260, Note_on_c, 0, 76, 0
1, 13260, Note_on_c, 0, 79, 84
1, 13272, Note_on_c, 0, 79, 0
1, 13272, Note_on_c, 0, 81, 84
1, 13284, Note_on_c, 0, 81, 0
1, 13284, Note_on_c, 0, 79, 84
1, 13296, Note_on_c, 0, 79, 0
1, 13296, Note_on_c, 0, 84, 84
1, 13296, Note_on_c, 1, 60, 0
1, 13296, Note_on_c, 1, 64, 75
1, 13308, Note_on_c, 0, 84, 0
1, 13308, Note_on_c, 0, 83, 84
1, 13320, Note_on_c, 0, 83, 0
1, 13320, Note_on_c, 0, 81, 84
1, 13332, Note_on_c, 0, 81, 0
1, 13332, Note_on_c, 0, 79, 84
1, 13341, Note_on_c, 1, 64, 0
1, 13344, Note_on_c, 0, 79, 0
1, 13344, Note_on_c, 0, 77, 84
1, 13356, Note_on_c, 0, 77, 0
1, 13356, Note_on_c, 0, 76, 84
1, 13368, Note_on_c, 0, 76, 0
1, 13368, Note_on_c, 0, 74, 84
1, 13380, Note_on_c, 0, 74, 0
1, 13380, Note_on_c, 0, 72, 84
1, 13392, Note_on_c, 0, 72, 0
1, 13392, Note_on_c, 0, 71, 84
1, 13392, Note_on_c, 1, 64, 75
1, 13404, Note_on_c, 0, 71, 0
1, 13404, Note_on_c, 0, 72, 84
1, 13412, Note_on_c, 1, 64, 0
1, 13416, Note_on_c, 0, 72, 0
1, 13416, Note_on_c, 0, 74, 84
1, 13428, Note_on_c, 0, 74, 0
1, 13428, Note_on_c, 0, 72, 84
1, 13440, Note_on_c, 0, 72, 0
1, 13440, Note_on_c, 0, 69, 84
1, 13440, Note_on_c, 1, 65, 75
1, 13452, Note_on_c, 0, 69, 0
1, 13452, Note_on_c, 0, 72, 84
1, 13460, Note_on_c, 1, 65, 0
1, 13464, Note_on_c, 0, 72, 0
1, 13464, Note_on_c, 0, 74, 84
1, 13476, Note_on_c, 0, 74, 0
1, 13476, Note_on_c, 0, 72, 84
1, 13488, Note_on_c, 0, 72, 0
1, 13488, Note_on_c, 0, 67, 84
1, 13488, Note_on_c, 1, 64, 75
1, 13500, Note_on_c, 0, 67, 0
1, 13500, Note_on_c, 0, 72, 84
1, 13508, Note_on_c, 1, 64, 0
1, 13512, Note_on_c, 0, 72, 0
1, 13512, Note_on_c, 0, 74, 84
1, 13524, Note_on_c, 0, 74, 0
1, 13524, Note_on_c, 0, 72, 84
1, 13536, Note_on_c, 0, 72, 0
1, 13536, Note_on_c, 0, 65, 84
1, 13536, Note_on_c, 1, 62, 75
1, 13546, Note_on_c, 0, 65, 0
1, 13560, Note_on_c, 0, 77, 84
1, 13570, Note_on_c, 0, 77, 0
1, 13584, Note_on_c, 1, 62, 0
1, 13584, Note_on_c, 1, 55, 75
1, 13608, Note_on_c, 0, 77, 84
1, 13618, Note_on_c, 0, 77, 0
1, 13629, Note_on_c, 1, 55, 0
1, 13632, Note_on_c, 0, 76, 84
1, 13632, Note_on_c, 1, 60, 75
1, 13644, Note_on_c, 0, 76, 0
1, 13644, Note_on_c, 0, 77, 84
1, 13656, Note_on_c, 0, 77, 0
1, 13656, Note_on_c, 0, 79, 84
1, 13668, Note_on_c, 0, 79, 0
1, 13668, Note_on_c, 0, 77, 84
1, 13680, Note_on_c, 0, 77, 0
1, 13680, Note_on_c, 0, 76, 84
1, 13680, Note_on_c, 1, 60, 0
1, 13680, Note_on_c, 1, 62, 75
1, 13692, Note_on_c, 0, 76, 0
1, 13692, Note_on_c, 0, 74, 84
1, 13704, Note_on_c, 0, 74, 0
1, 13704, Note_on_c, 0, 72, 84
1, 13716, Note_on_c, 0, 72, 0
1, 13716, Note_on_c, 0, 71, 84
1, 13725, Note_on_c, 1, 62, 0
1, 13728, Note_on_c, 0, 71, 0
1, 13728, Note_on_c, 0, 72, 84
1, 13728, Note_on_c, 1, 64, 75
1, 13740, Note_on_c, 0, 72, 0
1, 13740, Note_on_c, 0, 74, 84
1, 13752, Note_on_c, 0, 74, 0
1, 13752, Note_on_c, 0, 76, 84
1, 13764, Note_on_c, 0, 76, 0
1, 13764, Note_on_c, 0, 74, 84
1, 13773, Note_on_c, 1, 64, 0
1, 13776, Note_on_c, 0, 74, 0
1, 13776, Note_on_c, 0, 72, 84
1, 13776, Note_on_c, 1, 52, 84
1, 13788, Note_on_c, 0, 72, 0
1, 13788, Note_on_c, 0, 71, 84
1, 13800, Note_on_c, 0, 71, 0
1, 13800, Note_on_c, 0, 69, 84
1, 13812, Note_on_c, 0, 69, 0
1, 13812, Note_on_c, 0, 68, 84
1, 13821, Note_on_c, 1, 52, 0
1, 13824, Note_on_c, 0, 68, 0
1, 13824, Note_on_c, 1, 53, 84
1, 13836, Note_on_c, 0, 69, 84
1, 13848, Note_on_c, 0, 69, 0
1, 13848, Note_on_c, 0, 71, 84
1, 13860, Note_on_c, 0, 71, 0
1, 13860, Note_on_c, 0, 73, 84
1, 13872, Note_on_c, 0, 73, 0
1, 13872, Note_on_c, 0, 74, 84
1, 13884, Note_on_c, 0, 74, 0
1, 13884, Note_on_c, 0, 76, 84
1, 13896, Note_on_c, 0, 76, 0
1, 13896, Note_on_c, 0, 77, 84
1, 13908, Note_on_c, 0, 77, 0
1, 13908, Note_on_c, 0, 79, 84
1, 13913, Note_on_c, 1, 53, 0
1, 13920, Note_on_c, 0, 79, 0
1, 13920, Note_on_c, 0, 81, 84
1, 13932, Note_on_c, 0, 81, 0
1, 13932, Note_on_c, 0, 77, 84
1, 13944, Note_on_c, 0, 77, 0
1, 13944, Note_on_c, 0, 74, 84
1, 13956, Note_on_c, 0, 74, 0
1, 13956, Note_on_c, 0, 69, 84
1, 13968, Note_on_c, 0, 69, 0
1, 13968, Note_on_c, 0, 79, 84
1, 13968, Note_on_c, 1, 52, 84
1, 13980, Note_on_c, 0, 79, 0
1, 13980, Note_on_c, 0, 76, 84
1, 13992, Note_on_c, 0, 76, 0
1, 13992, Note_on_c, 0, 73, 84
1, 14004, Note_on_c, 0, 73, 0
1, 14004, Note_on_c, 0, 67, 84
1, 14013, Note_on_c, 1, 52, 0
1, 14016, Note_on_c, 0, 67, 0
1, 14016, Note_on_c, 1, 59, 84
1, 14016, Note_on_c, 1, 50, 84
1, 14028, Note_on_c, 0, 77, 84
1, 14040, Note_on_c, 0, 77, 0
1, 14040, Note_on_c, 0, 79, 85
1, 14052, Note_on_c, 0, 79, 0
1, 14052, Note_on_c, 0, 81, 86
1, 14064, Note_on_c, 0, 81, 0
1, 14064, Note_on_c, 0, 83, 87
1, 14076, Note_on_c, 0, 83, 0
1, 14076, Note_on_c, 0, 84, 88
1, 14088, Note_on_c, 0, 84, 0
1, 14088, Note_on_c, 0, 86, 89
1, 14100, Note_on_c, 0, 86, 0
1, 14100, Note_on_c, 0, 88, 90
1, 14112, Note_on_c, 0, 88, 0
1, 14112, Note_on_c, 0, 89, 89
1, 14124, Note_on_c, 0, 89, 0
1, 14124, Note_on_c, 0, 86, 88
1, 14136, Note_on_c, 0, 86, 0
1, 14136, Note_on_c, 0, 83, 88
1, 14148, Note_on_c, 0, 83, 0
1, 14148, Note_on_c, 0, 77, 87
1, 14149, Note_on_c, 1, 59, 0
1, 14149, Note_on_c, 1, 50, 0
1, 14160, Note_on_c, 0, 77, 0
1, 14160, Note_on_c, 0, 76, 86
1, 14160, Note_on_c, 1, 60, 84
1, 14160, Note_on_c, 1, 48, 84
1, 14183, Note_on_c, 0, 76, 0
1, 14184, Note_on_c, 0, 84, 85
1, 14205, Note_on_c, 1, 60, 0
1, 14205, Note_on_c, 1, 48, 0
1, 14207, Note_on_c, 0, 84, 0
1, 14208, Note_on_c, 1, 53, 84
1, 14232, Note_on_c, 0, 81, 84
1, 14232, Note_on_c, 0, 77, 84
1, 14247, Note_on_c, 1, 53, 0
1, 14255, Note_on_c, 0, 81, 0
1, 14255, Note_on_c, 0, 77, 0
1, 14256, Note_on_c, 0, 79, 82
1, 14256, Note_on_c, 0, 76, 82
1, 14279, Note_on_c, 0, 79, 0
1, 14279, Note_on_c, 0, 76, 0
1, 14280, Note_on_c, 0, 77, 80
1, 14280, Note_on_c, 0, 74, 80
1, 14303, Note_on_c, 0, 77, 0
1, 14303, Note_on_c, 0, 74, 0
1, 14304, Note_on_c, 0, 76, 78
1, 14304, Note_on_c, 0, 72, 78
1, 14327, Note_on_c, 0, 76, 0
1, 14327, Note_on_c, 0, 72, 0
1, 14328, Note_on_c, 0, 79, 76
1, 14328, Note_on_c, 0, 76, 76
1, 14351, Note_on_c, 0, 79, 0
1, 14351, Note_on_c, 0, 76, 0
1, 14352, Note_on_c, 1, 55, 75
1, 14352, Note_on_c, 1, 43, 75
1, 14376, Note_on_c, 0, 71, 75
1, 14376, Note_on_c, 0, 65, 75
1, 14386, Note_on_c, 0, 71, 0
1, 14386, Note_on_c, 0, 65, 0
1, 14397, Note_on_c, 1, 55, 0
1, 14397, Note_on_c, 1, 43, 0
1, 14400, Note_on_c, 1, 56, 91
1, 14400, Note_on_c, 1, 44, 91
1, 14424, Note_on_c, 0, 72, 68
1, 14424, Note_on_c, 0, 63, 68
1, 14434, Note_on_c, 0, 72, 0
1, 14434, Note_on_c, 0, 63, 0
1, 14448, Note_on_c, 1, 56, 0
1, 14448, Note_on_c, 1, 44, 0
1, 14448, Note_on_c, 1, 60, 60
1, 14448, Note_on_c, 1, 56, 60
1, 14472, Note_on_c, 0, 75, 68
1, 14493, Note_on_c, 1, 60, 0
1, 14493, Note_on_c, 1, 56, 0
1, 14495, Note_on_c, 0, 75, 0
1, 14496, Note_on_c, 1, 60, 60
1, 14496, Note_on_c, 1, 56, 60
1, 14508, Note_on_c, 0, 75, 68
1, 14520, Note_on_c, 0, 75, 0
1, 14520, Note_on_c, 0, 74, 68
1, 14532, Note_on_c, 0, 74, 0
1, 14532, Note_on_c, 0, 75, 68
1, 14541, Note_on_c, 1, 60, 0
1, 14541, Note_on_c, 1, 56, 0
1, 14544, Note_on_c, 0, 75, 0
1, 14544, Note_on_c, 0, 77, 68
1, 14544, Note_on_c, 1, 60, 60
1, 14544, Note_on_c, 1, 56, 60
1, 14556, Note_on_c, 0, 77, 0
1, 14556, Note_on_c, 0, 75, 68
1, 14568, Note_on_c, 0, 75, 0
1, 14568, Note_on_c, 0, 74, 68
1, 14580, Note_on_c, 0, 74, 0
1, 14580, Note_on_c, 0, 75, 68
1, 14589, Note_on_c, 1, 60, 0
1, 14589, Note_on_c, 1, 56, 0
1, 14592, Note_on_c, 0, 75, 0
1, 14592, Note_on_c, 0, 84, 84
1, 14592, Note_on_c, 1, 60, 76
1, 14592, Note_on_c, 1, 55, 76
1, 14616, Note_on_c, 0, 84, 0
1, 14616, Note_on_c, 0, 75, 68
1, 14639, Note_on_c, 0, 75, 0
1, 14640, Note_on_c, 1, 60, 0
1, 14640, Note_on_c, 1, 55, 0
1, 14640, Note_on_c, 1, 60, 61
1, 14640, Note_on_c, 1, 55, 61
1, 14664, Note_on_c, 0, 75, 69
1, 14685, Note_on_c, 1, 60, 0
1, 14685, Note_on_c, 1, 55, 0
1, 14687, Note_on_c, 0, 75, 0
1, 14688, Note_on_c, 1, 60, 63
1, 14688, Note_on_c, 1, 55, 63
1, 14700, Note_on_c, 0, 75, 70
1, 14712, Note_on_c, 0, 75, 0
1, 14712, Note_on_c, 0, 74, 71
1, 14724, Note_on_c, 0, 74, 0
1, 14724, Note_on_c, 0, 75, 71
1, 14733, Note_on_c, 1, 60, 0
1, 14733, Note_on_c, 1, 55, 0
1, 14736, Note_on_c, 0, 75, 0
1, 14736, Note_on_c, 0, 77, 71
1, 14736, Note_on_c, 1, 60, 65
1, 14736, Note_on_c, 1, 55, 65
1, 14748, Note_on_c, 0, 77, 0
1, 14748, Note_on_c, 0, 75, 72
1, 14760, Note_on_c, 0, 75, 0
1, 14760, Note_on_c, 0, 74, 72
1, 14772, Note_on_c, 0, 74, 0
1, 14772, Note_on_c, 0, 75, 72
1, 14781, Note_on_c, 1, 60, 0
1, 14781, Note_on_c, 1, 55, 0
1, 14784, Note_on_c, 0, 75, 0
1, 14784, Note_on_c, 0, 84, 89
1, 14784, Note_on_c, 1, 60, 83
1, 14784, Note_on_c, 1, 54, 83
1, 14808, Note_on_c, 0, 84, 0
1, 14808, Note_on_c, 0, 75, 73
1, 14831, Note_on_c, 0, 75, 0
1, 14832, Note_on_c, 1, 60, 0
1, 14832, Note_on_c, 1, 54, 0
1, 14832, Note_on_c, 1, 60, 69
1, 14832, Note_on_c, 1, 54, 69
1, 14856, Note_on_c, 0, 75, 75
1, 14877, Note_on_c, 1, 60, 0
1, 14877, Note_on_c, 1, 54, 0
1, 14879, Note_on_c, 0, 75, 0
1, 14880, Note_on_c, 1, 60, 71
1, 14880, Note_on_c, 1, 54, 71
1, 14892, Note_on_c, 0, 75, 76
1, 14904, Note_on_c, 0, 75, 0
1, 14904, Note_on_c, 0, 74, 76
1, 14916, Note_on_c, 0, 74, 0
1, 14916, Note_on_c, 0, 75, 76
1, 14925, Note_on_c, 1, 60, 0
1, 14925, Note_on_c, 1, 54, 0
1, 14928, Note_on_c, 0, 75, 0
1, 14928, Note_on_c, 0, 77, 77
1, 14928, Note_on_c, 1, 57, 72
1, 14928, Note_on_c, 1, 54, 72
1, 14940, Note_on_c, 0, 77, 0
1, 14940, Note_on_c, 0, 75, 77
1, 14952, Note_on_c, 0, 75, 0
1, 14952, Note_on_c, 0, 74, 77
1, 14964, Note_on_c, 0, 74, 0
1, 14964, Note_on_c, 0, 72, 78
1, 14973, Note_on_c, 1, 57, 0
1, 14973, Note_on_c, 1, 54, 0
1, 14976, Note_on_c, 0, 72, 0
1, 14976, Note_on_c, 0, 71, 78
1, 14976, Note_on_c, 1, 59, 74
1, 14976, Note_on_c, 1, 55, 74
1, 14988, Note_on_c, 0, 71, 0
1, 14988, Note_on_c, 0, 72, 78
1, 15000, Note_on_c, 0, 72, 0
1, 15000, Note_on_c, 0, 74, 79
1, 15012, Note_on_c, 0, 74, 0
1, 15012, Note_on_c, 0, 72, 79
1, 15021, Note_on_c, 1, 59, 0
1, 15021, Note_on_c, 1, 55, 0
1, 15024, Note_on_c, 0, 72, 0
1, 15024, Note_on_c, 0, 71, 79
1, 15024, Note_on_c, 1, 60, 76
1, 15024, Note_on_c, 1, 57, 76
1, 15036, Note_on_c, 0, 71, 0
1, 15036, Note_on_c, 0, 69, 80
1, 15048, Note_on_c, 0, 69, 0
1, 15048, Note_on_c, 0, 67, 80
1, 15060, Note_on_c, 0, 67, 0
1, 15060, Note_on_c, 0, 66, 80
1, 15069, Note_on_c, 1, 60, 0
1, 15069, Note_on_c, 1, 57, 0
1, 15072, Note_on_c, 0, 66, 0
1, 15072, Note_on_c, 0, 67, 81
1, 15072, Note_on_c, 1, 62, 78
1, 15072, Note_on_c, 1, 59, 78
1, 15095, Note_on_c, 0, 67, 0
1, 15096, Note_on_c, 0, 74, 81
1, 15108, Note_on_c, 0, 74, 0
1, 15108, Note_on_c, 0, 72, 82
1, 15117, Note_on_c, 1, 62, 0
1, 15117, Note_on_c, 1, 59, 0
1, 15120, Note_on_c, 0, 72, 0
1, 15120, Note_on_c, 0, 71, 82
1, 15132, Note_on_c, 0, 71, 0
1, 15132, Note_on_c, 0, 69, 82
1, 15144, Note_on_c, 0, 69, 0
1, 15144, Note_on_c, 0, 67, 83
1, 15156, Note_on_c, 0, 67, 0
1, 15156, Note_on_c, 0, 65, 83
1, 15168, Note_on_c, 0, 65, 0
1, 15168, Note_on_c, 0, 64, 83
1, 15168, Note_on_c, 1, 60, 82
1, 15180, Note_on_c, 0, 64, 0
1, 15180, Note_on_c, 0, 72, 84
1, 15192, Note_on_c, 0, 72, 0
1, 15192, Note_on_c, 0, 71, 84
1, 15204, Note_on_c, 0, 71, 0
1, 15204, Note_on_c, 0, 72, 84
1, 15213, Note_on_c, 1, 60, 0
1, 15216, Note_on_c, 0, 72, 0
1, 15216, Note_on_c, 0, 76, 84
1, 15228, Note_on_c, 0, 76, 0
1, 15228, Note_on_c, 0, 72, 84
1, 15240, Note_on_c, 0, 72, 0
1, 15240, Note_on_c, 0, 71, 84
1, 15252, Note_on_c, 0, 71, 0
1, 15252, Note_on_c, 0, 72, 84
1, 15264, Note_on_c, 0, 72, 0
1, 15264, Note_on_c, 0, 67, 84
1, 15264, Note_on_c, 1, 64, 84
1, 15276, Note_on_c, 0, 67, 0
1, 15276, Note_on_c, 0, 72, 84
1, 15284, Note_on_c, 1, 64, 0
1, 15288, Note_on_c, 0, 72, 0
1, 15288, Note_on_c, 0, 71, 84
1, 15300, Note_on_c, 0, 71, 0
1, 15300, Note_on_c, 0, 72, 84
1, 15312, Note_on_c, 0, 72, 0
1, 15312, Note_on_c, 0, 69, 84
1, 15312, Note_on_c, 1, 65, 84
1, 15324, Note_on_c, 0, 69, 0
1, 15324, Note_on_c, 0, 72, 84
1, 15332, Note_on_c, 1, 65, 0
1, 15336, Note_on_c, 0, 72, 0
1, 15336, Note_on_c, 0, 71, 84
1, 15348, Note_on_c, 0, 71, 0
1, 15348, Note_on_c, 0, 72, 84
1, 15360, Note_on_c, 0, 72, 0
1, 15360, Note_on_c, 0, 67, 84
1, 15360, Note_on_c, 1, 64, 84
1, 15372, Note_on_c, 0, 67, 0
1, 15372, Note_on_c, 0, 72, 84
1, 15384, Note_on_c, 0, 72, 0
1, 15384, Note_on_c, 0, 71, 84
1, 15396, Note_on_c, 0, 71, 0
1, 15396, Note_on_c, 0, 72, 84
1, 15405, Note_on_c, 1, 64, 0
1, 15408, Note_on_c, 0, 72, 0
1, 15408, Note_on_c, 0, 76, 84
1, 15420, Note_on_c, 0, 76, 0
1, 15420, Note_on_c, 0, 72, 84
1, 15432, Note_on_c, 0, 72, 0
1, 15432, Note_on_c, 0, 71, 84
1, 15444, Note_on_c, 0, 71, 0
1, 15444, Note_on_c, 0, 72, 84
1, 15456, Note_on_c, 0, 72, 0
1, 15456, Note_on_c, 0, 79, 84
1, 15456, Note_on_c, 1, 64, 68
1, 15468, Note_on_c, 0, 79, 0
1, 15468, Note_on_c, 0, 72, 84
1, 15476, Note_on_c, 1, 64, 0
1, 15480, Note_on_c, 0, 72, 0
1, 15480, Note_on_c, 0, 71, 84
1, 15492, Note_on_c, 0, 71, 0
1, 15492, Note_on_c, 0, 72, 84
1, 15504, Note_on_c, 0, 72, 0
1, 15504, Note_on_c, 0, 81, 84
1, 15504, Note_on_c, 1, 65, 68
1, 15516, Note_on_c, 0, 81, 0
1, 15516, Note_on_c, 0, 72, 84
1, 15524, Note_on_c, 1, 65, 0
1, 15528, Note_on_c, 0, 72, 0
1, 15528, Note_on_c, 0, 71, 84
1, 15540, Note_on_c, 0, 71, 0
1, 15540, Note_on_c, 0, 72, 84
1, 15552, Note_on_c, 0, 72, 0
1, 15552, Note_on_c, 0, 79, 84
1, 15552, Note_on_c, 1, 64, 68
1, 15564, Note_on_c, 0, 79, 0
1, 15564, Note_on_c, 0, 72, 84
1, 15576, Note_on_c, 0, 72, 0
1, 15576, Note_on_c, 0, 71, 84
1, 15588, Note_on_c, 0, 71, 0
1, 15588, Note_on_c, 0, 72, 84
1, 15599, Note_on_c, 1, 64, 0
1, 15600, Note_on_c, 0, 72, 0
1, 15600, Note_on_c, 0, 76, 84
1, 15612, Note_on_c, 0, 76, 0
1, 15612, Note_on_c, 0, 72, 84
1, 15624, Note_on_c, 0, 72, 0
1, 15624, Note_on_c, 0, 71, 84
1, 15636, Note_on_c, 0, 71, 0
1, 15636, Note_on_c, 0, 72, 84
1, 15648, Note_on_c, 0, 72, 0
1, 15648, Note_on_c, 0, 67, 84
1, 15648, Note_on_c, 1, 64, 75
1, 15660, Note_on_c, 0, 67, 0
1, 15660, Note_on_c, 0, 72, 84
1, 15668, Note_on_c, 1, 64, 0
1, 15672, Note_on_c, 0, 72, 0
1, 15672, Note_on_c, 0, 71, 84
1, 15684, Note_on_c, 0, 71, 0
1, 15684, Note_on_c, 0, 72, 84
1, 15696, Note_on_c, 0, 72, 0
1, 15696, Note_on_c, 0, 69, 84
1, 15696, Note_on_c, 1, 65, 75
1, 15708, Note_on_c, 0, 69, 0
1, 15708, Note_on_c, 0, 72, 84
1, 15716, Note_on_c, 1, 65, 0
1, 15720, Note_on_c, 0, 72, 0
1, 15720, Note_on_c, 0, 71, 84
1, 15732, Note_on_c, 0, 71, 0
1, 15732, Note_on_c, 0, 72, 84
1, 15744, Note_on_c, 0, 72, 0
1, 15744, Note_on_c, 0, 67, 84
1, 15744, Note_on_c, 1, 64, 75
1, 15756, Note_on_c, 0, 67, 0
1, 15756, Note_on_c, 0, 72, 84
1, 15768, Note_on_c, 0, 72, 0
1, 15768, Note_on_c, 0, 71, 84
1, 15780, Note_on_c, 0, 71, 0
1, 15780, Note_on_c, 0, 72, 84
1, 15789, Note_on_c, 1, 64, 0
1, 15792, Note_on_c, 0, 72, 0
1, 15792, Note_on_c, 0, 76, 84
1, 15804, Note_on_c, 0, 76, 0
1, 15804, Note_on_c, 0, 72, 84
1, 15816, Note_on_c, 0, 72, 0
1, 15816, Note_on_c, 0, 71, 84
1, 15828, Note_on_c, 0, 71, 0
1, 15828, Note_on_c, 0, 72, 84
1, 15840, Note_on_c, 0, 72, 0
1, 15840, Note_on_c, 0, 79, 84
1, 15840, Note_on_c, 1, 64, 68
1, 15852, Note_on_c, 0, 79, 0
1, 15852, Note_on_c, 0, 72, 84
1, 15860, Note_on_c, 1, 64, 0
1, 15864, Note_on_c, 0, 72, 0
1, 15864, Note_on_c, 0, 71, 84
1, 15876, Note_on_c, 0, 71, 0
1, 15876, Note_on_c, 0, 72, 84
1, 15888, Note_on_c, 0, 72, 0
1, 15888, Note_on_c, 0, 81, 84
1, 15888, Note_on_c, 1, 65, 68
1, 15900, Note_on_c, 0, 81, 0
1, 15900, Note_on_c, 0, 72, 84
1, 15908, Note_on_c, 1, 65, 0
1, 15912, Note_on_c, 0, 72, 0
1, 15912, Note_on_c, 0, 71, 84
1, 15924, Note_on_c, 0, 71, 0
1, 15924, Note_on_c, 0, 72, 84
1, 15936, Note_on_c, 0, 72, 0
1, 15936, Note_on_c, 0, 79, 84
1, 15936, Note_on_c, 1, 64, 68
1, 15948, Note_on_c, 0, 79, 0
1, 15948, Note_on_c, 0, 72, 84
1, 15956, Note_on_c, 1, 64, 0
1, 15960, Note_on_c, 0, 72, 0
1, 15960, Note_on_c, 0, 71, 84
1, 15972, Note_on_c, 0, 71, 0
1, 15972, Note_on_c, 0, 72, 84
1, 15984, Note_on_c, 0, 72, 0
1, 15984, Note_on_c, 0, 81, 84
1, 15984, Note_on_c, 1, 65, 68
1, 15996, Note_on_c, 0, 81, 0
1, 15996, Note_on_c, 0, 72, 84
1, 16004, Note_on_c, 1, 65, 0
1, 16008, Note_on_c, 0, 72, 0
1, 16008, Note_on_c, 0, 71, 84
1, 16020, Note_on_c, 0, 71, 0
1, 16020, Note_on_c, 0, 72, 84
1, 16032, Note_on_c, 0, 72, 0
1, 16032, Note_on_c, 0, 79, 84
1, 16032, Note_on_c, 1, 64, 68
1, 16044, Note_on_c, 0, 79, 0
1, 16044, Note_on_c, 0, 72, 84
1, 16052, Note_on_c, 1, 64, 0
1, 16056, Note_on_c, 0, 72, 0
1, 16056, Note_on_c, 0, 71, 84
1, 16068, Note_on_c, 0, 71, 0
1, 16068, Note_on_c, 0, 72, 84
1, 16080, Note_on_c, 0, 72, 0
1, 16080, Note_on_c, 0, 81, 84
1, 16080, Note_on_c, 1, 65, 68
1, 16092, Note_on_c, 0, 81, 0
1, 16092, Note_on_c, 0, 72, 84
1, 16100, Note_on_c, 1, 65, 0
1, 16104, Note_on_c, 0, 72, 0
1, 16104, Note_on_c, 0, 71, 84
1, 16116, Note_on_c, 0, 71, 0
1, 16116, Note_on_c, 0, 72, 84
1, 16128, Note_on_c, 0, 72, 0
1, 16128, Note_on_c, 0, 79, 84
1, 16128, Note_on_c, 1, 64, 75
1, 16140, Note_on_c, 0, 79, 0
1, 16140, Note_on_c, 0, 72, 84
1, 16152, Note_on_c, 0, 72, 0
1, 16152, Note_on_c, 0, 71, 84
1, 16164, Note_on_c, 0, 71, 0
1, 16164, Note_on_c, 0, 72, 84
1, 16176, Note_on_c, 0, 72, 0
1, 16176, Note_on_c, 0, 79, 84
1, 16188, Note_on_c, 0, 79, 0
1, 16188, Note_on_c, 0, 72, 84
1, 16200, Note_on_c, 0, 72, 0
1, 16200, Note_on_c, 0, 71, 84
1, 16212, Note_on_c, 0, 71, 0
1, 16212, Note_on_c, 0, 72, 84
1, 16222, Note_on_c, 1, 64, 0
1, 16224, Note_on_c, 0, 72, 0
1, 16224, Note_on_c, 0, 79, 84
1, 16224, Note_on_c, 1, 67, 75
1, 16224, Note_on_c, 1, 63, 75
1, 16236, Note_on_c, 0, 79, 0
1, 16236, Note_on_c, 0, 72, 84
1, 16248, Note_on_c, 0, 72, 0
1, 16248, Note_on_c, 0, 71, 84
1, 16260, Note_on_c, 0, 71, 0
1, 16260, Note_on_c, 0, 72, 84
1, 16272, Note_on_c, 0, 72, 0
1, 16272, Note_on_c, 0, 79, 84
1, 16284, Note_on_c, 0, 79, 0
1, 16284, Note_on_c, 0, 72, 84
1, 16296, Note_on_c, 0, 72, 0
1, 16296, Note_on_c, 0, 71, 84
1, 16308, Note_on_c, 0, 71, 0
1, 16308, Note_on_c, 0, 72, 84
1, 16318, Note_on_c, 1, 67, 0
1, 16318, Note_on_c, 1, 63, 0
1, 16320, Note_on_c, 0, 72, 0
1, 16320, Note_on_c, 0, 78, 84
1, 16320, Note_on_c, 1, 69, 75
1, 16320, Note_on_c, 1, 62, 75
1, 16332, Note_on_c, 0, 78, 0
1, 16332, Note_on_c, 0, 72, 84
1, 16344, Note_on_c, 0, 72, 0
1, 16344, Note_on_c, 0, 71, 84
1, 16356, Note_on_c, 0, 71, 0
1, 16356, Note_on_c, 0, 72, 84
1, 16368, Note_on_c, 0, 72, 0
1, 16368, Note_on_c, 0, 78, 84
1, 16380, Note_on_c, 0, 78, 0
1, 16380, Note_on_c, 0, 72, 84
1, 16392, Note_on_c, 0, 72, 0
1, 16392, Note_on_c, 0, 71, 84
1, 16404, Note_on_c, 0, 71, 0
1, 16404, Note_on_c, 0, 72, 84
1, 16414, Note_on_c, 1, 69, 0
1, 16414, Note_on_c, 1, 62, 0
1, 16416, Note_on_c, 0, 72, 0
1, 16416, Note_on_c, 0, 77, 84
1, 16416, Note_on_c, 1, 67, 75
1, 16416, Note_on_c, 1, 59, 75
1, 16428, Note_on_c, 0, 77, 0
1, 16428, Note_on_c, 0, 74, 84
1, 16440, Note_on_c, 0, 74, 0
1, 16440, Note_on_c, 0, 73, 84
1, 16452, Note_on_c, 0, 73, 0
1, 16452, Note_on_c, 0, 74, 84
1, 16464, Note_on_c, 0, 74, 0
1, 16464, Note_on_c, 0, 77, 84
1, 16476, Note_on_c, 0, 77, 0
1, 16476, Note_on_c, 0, 74, 84
1, 16488, Note_on_c, 0, 74, 0
1, 16488, Note_on_c, 0, 73, 84
1, 16500, Note_on_c, 0, 73, 0
1, 16500, Note_on_c, 0, 74, 84
1, 16510, Note_on_c, 1, 67, 0
1, 16510, Note_on_c, 1, 59, 0
1, 16512, Note_on_c, 0, 74, 0
1, 16512, Note_on_c, 0, 76, 75
1, 16512, Note_on_c, 1, 67, 75
1, 16512, Note_on_c, 1, 60, 75
1, 16535, Note_on_c, 0, 76, 0
1, 16536, Note_on_c, 0, 84, 75
1, 16546, Note_on_c, 0, 84, 0
1, 16560, Note_on_c, 0, 86, 75
1, 16572, Note_on_c, 0, 86, 0
1, 16572, Note_on_c, 0, 84, 75
1, 16584, Note_on_c, 0, 84, 0
1, 16584, Note_on_c, 0, 83, 75
1, 16596, Note_on_c, 0, 83, 0
1, 16596, Note_on_c, 0, 81, 75
1, 16606, Note_on_c, 1, 67, 0
1, 16606, Note_on_c, 1, 60, 0
1, 16608, Note_on_c, 0, 81, 0
1, 16608, Note_on_c, 0, 81, 75
1, 16620, Note_on_c, 0, 81, 0
1, 16620, Note_on_c, 0, 79, 75
1, 16632, Note_on_c, 0, 79, 0
1, 16632, Note_on_c, 0, 77, 75
1, 16644, Note_on_c, 0, 77, 0
1, 16644, Note_on_c, 0, 76, 75
1, 16656, Note_on_c, 0, 76, 0
1, 16656, Note_on_c, 0, 76, 75
1, 16656, Note_on_c, 1, 60, 75
1, 16656, Note_on_c, 1, 52, 75
1, 16668, Note_on_c, 0, 76, 0
1, 16668, Note_on_c, 0, 74, 75
1, 16680, Note_on_c, 0, 74, 0
1, 16680, Note_on_c, 0, 72, 75
1, 16692, Note_on_c, 0, 72, 0
1, 16692, Note_on_c, 0, 71, 75
1, 16704, Note_on_c, 0, 71, 0
1, 16704, Note_on_c, 0, 69, 75
1, 16704, Note_on_c, 1, 52, 0
1, 16704, Note_on_c, 1, 53, 64
1, 16727, Note_on_c, 0, 69, 0
1, 16728, Note_on_c, 0, 80, 79
1, 16740, Note_on_c, 0, 80, 0
1, 16740, Note_on_c, 0, 81, 81
1, 16749, Note_on_c, 1, 60, 0
1, 16752, Note_on_c, 0, 81, 0
1, 16752, Note_on_c, 0, 79, 84
1, 16752, Note_on_c, 1, 65, 75
1, 16764, Note_on_c, 0, 79, 0
1, 16764, Note_on_c, 0, 77, 81
1, 16776, Note_on_c, 0, 77, 0
1, 16776, Note_on_c, 0, 76, 79
1, 16788, Note_on_c, 0, 76, 0
1, 16788, Note_on_c, 0, 74, 77
1, 16793, Note_on_c, 1, 53, 0
1, 16797, Note_on_c, 1, 65, 0
1, 16800, Note_on_c, 0, 74, 0
1, 16800, Note_on_c, 0, 72, 75
1, 16800, Note_on_c, 1, 64, 75
1, 16800, Note_on_c, 1, 55, 64
1, 16845, Note_on_c, 0, 72, 0
1, 16845, Note_on_c, 1, 64, 0
1, 16848, Note_on_c, 0, 71, 75
1, 16848, Note_on_c, 1, 62, 75
1, 16858, Note_on_c, 0, 71, 0
1, 16858, Note_on_c, 0, 72, 75
1, 16868, Note_on_c, 0, 72, 0
1, 16868, Note_on_c, 0, 71, 75
1, 16878, Note_on_c, 0, 71, 0
1, 16878, Note_on_c, 0, 69, 75
1, 16887, Note_on_c, 0, 69, 0
1, 16887, Note_on_c, 0, 71, 75
1, 16889, Note_on_c, 1, 55, 0
1, 16893, Note_on_c, 1, 62, 0
1, 16896, Note_on_c, 0, 71, 0
1, 16896, Note_on_c, 0, 72, 75
1, 16896, Note_on_c, 1, 64, 75
1, 16896, Note_on_c, 1, 60, 64
1, 16908, Note_on_c, 0, 72, 0
1, 16908, Note_on_c, 0, 84, 78
1, 16920, Note_on_c, 0, 84, 0
1, 16920, Note_on_c, 0, 83, 81
1, 16932, Note_on_c, 0, 83, 0
1, 16932, Note_on_c, 0, 84, 84
1, 16944, Note_on_c, 0, 84, 0
1, 16944, Note_on_c, 0, 86, 82
1, 16956, Note_on_c, 0, 86, 0
1, 16956, Note_on_c, 0, 84, 80
1, 16968, Note_on_c, 0, 84, 0
1, 16968, Note_on_c, 0, 83, 78
1, 16980, Note_on_c, 0, 83, 0
1, 16980, Note_on_c, 0, 81, 76
1, 16985, Note_on_c, 1, 64, 0
1, 16985, Note_on_c, 1, 60, 0
1, 16992, Note_on_c, 0, 81, 0
1, 16992, Note_on_c, 0, 81, 75
1, 17004, Note_on_c, 0, 81, 0
1, 17004, Note_on_c, 0, 79, 75
1, 17016, Note_on_c, 0, 79, 0
1, 17016, Note_on_c, 0, 77, 75
1, 17028, Note_on_c, 0, 77, 0
1, 17028, Note_on_c, 0, 76, 75
1, 17040, Note_on_c, 0, 76, 0
1, 17040, Note_on_c, 0, 76, 75
1, 17040, Note_on_c, 1, 60, 75
1, 17040, Note_on_c, 1, 52, 75
1, 17052, Note_on_c, 0, 76, 0
1, 17052, Note_on_c, 0, 74, 75
1, 17064, Note_on_c, 0, 74, 0
1, 17064, Note_on_c, 0, 72, 75
1, 17076, Note_on_c, 0, 72, 0
1, 17076, Note_on_c, 0, 71, 75
1, 17088, Note_on_c, 0, 71, 0
1, 17088, Note_on_c, 0, 69, 75
1, 17088, Note_on_c, 1, 52, 0
1, 17088, Note_on_c, 1, 53, 64
1, 17111, Note_on_c, 0, 69, 0
1, 17112, Note_on_c, 0, 80, 79
1, 17124, Note_on_c, 0, 80, 0
1, 17124, Note_on_c, 0, 81, 81
1, 17133, Note_on_c, 1, 60, 0
1, 17136, Note_on_c, 0, 81, 0
1, 17136, Note_on_c, 0, 79, 84
1, 17136, Note_on_c, 1, 65, 75
1, 17148, Note_on_c, 0, 79, 0
1, 17148, Note_on_c, 0, 77, 81
1, 17160, Note_on_c, 0, 77, 0
1, 17160, Note_on_c, 0, 76, 79
1, 17172, Note_on_c, 0, 76, 0
1, 17172, Note_on_c, 0, 74, 77
1, 17177, Note_on_c, 1, 53, 0
1, 17181, Note_on_c, 1, 65, 0
1, 17184, Note_on_c, 0, 74, 0
1, 17184, Note_on_c, 0, 72, 75
1, 17184, Note_on_c, 1, 64, 75
1, 17184, Note_on_c, 1, 55, 64
1, 17229, Note_on_c, 0, 72, 0
1, 17229, Note_on_c, 1, 64, 0
1, 17232, Note_on_c, 0, 71, 75
1, 17232, Note_on_c, 1, 62, 75
1, 17242, Note_on_c, 0, 71, 0
1, 17242, Note_on_c, 0, 72, 75
1, 17252, Note_on_c, 0, 72, 0
1, 17252, Note_on_c, 0, 71, 75
1, 17262, Note_on_c, 0, 71, 0
1, 17262, Note_on_c, 0, 69, 75
1, 17271, Note_on_c, 0, 69, 0
1, 17271, Note_on_c, 0, 71, 75
1, 17273, Note_on_c, 1, 55, 0
1, 17277, Note_on_c, 1, 62, 0
1, 17280, Note_on_c, 0, 71, 0
1, 17280, Note_on_c, 0, 72, 75
1, 17280, Note_on_c, 1, 48, 75
1, 17292, Note_on_c, 1, 48, 0
1, 17292, Note_on_c, 1, 60, 75
1, 17300, Note_on_c, 0, 72, 0
1, 17304, Note_on_c, 1, 60, 0
1, 17304, Note_on_c, 1, 59, 75
1, 17316, Note_on_c, 1, 59, 0
1, 17316, Note_on_c, 1, 60, 75
1, 17328, Note_on_c, 0, 69, 75
1, 17328, Note_on_c, 0, 65, 75
1, 17328, Note_on_c, 1, 60, 0
1, 17328, Note_on_c, 1, 48, 75
1, 17340, Note_on_c, 1, 48, 0
1, 17340, Note_on_c, 1, 60, 75
1, 17348, Note_on_c, 0, 69, 0
1, 17348, Note_on_c, 0, 65, 0
1, 17352, Note_on_c, 1, 60, 0
1, 17352, Note_on_c, 1, 59, 75
1, 17364, Note_on_c, 1, 59, 0
1, 17364, Note_on_c, 1, 60, 75
1, 17376, Note_on_c, 0, 67, 75
1, 17376, Note_on_c, 0, 64, 75
1, 17376, Note_on_c, 1, 60, 0
1, 17376, Note_on_c, 1, 48, 75
1, 17388, Note_on_c, 1, 48, 0
1, 17388, Note_on_c, 1, 60, 75
1, 17396, Note_on_c, 0, 67, 0
1, 17396, Note_on_c, 0, 64, 0
1, 17400, Note_on_c, 1, 60, 0
1, 17400, Note_on_c, 1, 59, 75
1, 17412, Note_on_c, 1, 59, 0
1, 17412, Note_on_c, 1, 60, 75
1, 17424, Note_on_c, 0, 71, 75
1, 17424, Note_on_c, 0, 65, 75
1, 17424, Note_on_c, 0, 62, 75
1, 17424, Note_on_c, 1, 60, 0
1, 17424, Note_on_c, 1, 48, 75
1, 17436, Note_on_c, 1, 48, 0
1, 17436, Note_on_c, 1, 60, 75
1, 17444, Note_on_c, 0, 71, 0
1, 17444, Note_on_c, 0, 65, 0
1, 17444, Note_on_c, 0, 62, 0
1, 17448, Note_on_c, 1, 60, 0
1, 17448, Note_on_c, 1, 59, 75
1, 17460, Note_on_c, 1, 59, 0
1, 17460, Note_on_c, 1, 60, 75
1, 17472, Note_on_c, 0, 72, 75
1, 17472, Note_on_c, 0, 67, 75
1, 17472, Note_on_c, 0, 64, 75
1, 17472, Note_on_c, 1, 60, 0
1, 17472, Note_on_c, 1, 48, 75
1, 17484, Note_on_c, 1, 48, 0
1, 17484, Note_on_c, 1, 60, 75
1, 17492, Note_on_c, 0, 72, 0
1, 17492, Note_on_c, 0, 67, 0
1, 17492, Note_on_c, 0, 64, 0
1, 17496, Note_on_c, 1, 60, 0
1, 17496, Note_on_c, 1, 59, 75
1, 17508, Note_on_c, 1, 59, 0
1, 17508, Note_on_c, 1, 60, 75
1, 17520, Note_on_c, 0, 81, 75
1, 17520, Note_on_c, 0, 77, 75
1, 17520, Note_on_c, 1, 60, 0
1, 17520, Note_on_c, 1, 48, 75
1, 17532, Note_on_c, 1, 48, 0
1, 17532, Note_on_c, 1, 60, 75
1, 17540, Note_on_c, 0, 81, 0
1, 17540, Note_on_c, 0, 77, 0
1, 17544, Note_on_c, 1, 60, 0
1, 17544, Note_on_c, 1, 59, 75
1, 17556, Note_on_c, 1, 59, 0
1, 17556, Note_on_c, 1, 60, 75
1, 17568, Note_on_c, 0, 79, 75
1, 17568, Note_on_c, 0, 76, 75
1, 17568, Note_on_c, 1, 60, 0
1, 17568, Note_on_c, 1, 48, 75
1, 17580, Note_on_c, 1, 48, 0
1, 17580, Note_on_c, 1, 60, 75
1, 17588, Note_on_c, 0, 79, 0
1, 17588, Note_on_c, 0, 76, 0
1, 17592, Note_on_c, 1, 60, 0
1, 17592, Note_on_c, 1, 59, 75
1, 17604, Note_on_c, 1, 59, 0
1, 17604, Note_on_c, 1, 60, 75
1, 17616, Note_on_c, 0, 83, 75
1, 17616, Note_on_c, 0, 77, 75
1, 17616, Note_on_c, 0, 74, 75
1, 17616, Note_on_c, 1, 60, 0
1, 17616, Note_on_c, 1, 48, 75
1, 17628, Note_on_c, 1, 48, 0
1, 17628, Note_on_c, 1, 60, 75
1, 17636, Note_on_c, 0, 83, 0
1, 17636, Note_on_c, 0, 77, 0
1, 17636, Note_on_c, 0, 74, 0
1, 17640, Note_on_c, 1, 60, 0
1, 17640, Note_on_c, 1, 59, 75
1, 17652, Note_on_c, 1, 59, 0
1, 17652, Note_on_c, 1, 60, 75
1, 17664, Note_on_c, 0, 84, 75
1, 17664, Note_on_c, 0, 79, 75
1, 17664, Note_on_c, 0, 76, 75
1, 17664, Note_on_c, 1, 60, 0
1, 17664, Note_on_c, 1, 48, 75
1, 17753, Note_on_c, 0, 84, 0
1, 17753, Note_on_c, 0, 79, 0
1, 17753, Note_on_c, 0, 76, 0
1, 17753, Note_on_c, 1, 48, 0
1, 17808, Note_on_c, 0, 67, 75
1, 17842, Note_on_c, 0, 67, 0
1, 17844, Note_on_c, 0, 64, 75
1, 17856, Note_on_c, 0, 64, 0
1, 17856, Note_on_c, 0, 60, 75
1, 17856, Note_on_c, 1, 52, 75
1, 17856, Note_on_c, 1, 48, 75
1, 17876, Note_on_c, 0, 60, 0
1, 17901, Note_on_c, 1, 52, 0
1, 17901, Note_on_c, 1, 48, 0
1, 17904, Note_on_c, 0, 64, 75
1, 17938, Note_on_c, 0, 64, 0
1, 17940, Note_on_c, 0, 60, 75
1, 17952, Note_on_c, 0, 60, 0
1, 17952, Note_on_c, 0, 59, 75
1, 17952, Note_on_c, 1, 53, 75
1, 17952, Note_on_c, 1, 43, 75
1, 17972, Note_on_c, 0, 59, 0
1, 17997, Note_on_c, 1, 53, 0
1, 17997, Note_on_c, 1, 43, 0
1, 18000, Note_on_c, 0, 62, 75
1, 18034, Note_on_c, 0, 62, 0
1, 18036, Note_on_c, 0, 59, 75
1, 18048, Note_on_c, 0, 59, 0
1, 18048, Note_on_c, 0, 60, 75
1, 18048, Note_on_c, 1, 52, 75
1, 18048, Note_on_c, 1, 48, 75
1, 18093, Note_on_c, 0, 60, 0
1, 18093, Note_on_c, 1, 52, 0
1, 18093, Note_on_c, 1, 48, 0
1, 18096, Note_on_c, 0, 69, 75
1, 18096, Note_on_c, 0, 65, 75
1, 18144, Note_on_c, 0, 69, 0
1, 18144, Note_on_c, 0, 65, 0
1, 18144, Note_on_c, 0, 67, 75
1, 18144, Note_on_c, 0, 64, 75
1, 18164, Note_on_c, 0, 67, 0
1, 18164, Note_on_c, 0, 64, 0
1, 18192, Note_on_c, 0, 74, 75
1, 18204, Note_on_c, 0, 74, 0
1, 18204, Note_on_c, 0, 72, 75
1, 18216, Note_on_c, 0, 72, 0
1, 18216, Note_on_c, 0, 71, 75
1, 18228, Note_on_c, 0, 71, 0
1, 18228, Note_on_c, 0, 69, 75
1, 18240, Note_on_c, 0, 69, 0
1, 18240, Note_on_c, 0, 67, 75
1, 18285, Note_on_c, 0, 67, 0
1, 18288, Note_on_c, 0, 76, 75
1, 18288, Note_on_c, 1, 60, 75
1, 18303, Note_on_c, 0, 76, 0
1, 18304, Note_on_c, 0, 64, 75
1, 18319, Note_on_c, 0, 64, 0
1, 18320, Note_on_c, 0, 69, 75
1, 18333, Note_on_c, 1, 60, 0
1, 18335, Note_on_c, 0, 69, 0
1, 18336, Note_on_c, 0, 67, 75
1, 18336, Note_on_c, 1, 62, 75
1, 18381, Note_on_c, 0, 67, 0
1, 18381, Note_on_c, 1, 62, 0
1, 18384, Note_on_c, 0, 65, 75
1, 18384, Note_on_c, 1, 55, 75
1, 18394, Note_on_c, 0, 65, 0
1, 18394, Note_on_c, 0, 67, 75
1, 18404, Note_on_c, 0, 67, 0
1, 18404, Note_on_c, 0, 65, 75
1, 18414, Note_on_c, 0, 65, 0
1, 18414, Note_on_c, 0, 64, 75
1, 18423, Note_on_c, 0, 64, 0
1, 18423, Note_on_c, 0, 65, 75
1, 18429, Note_on_c, 1, 55, 0
1, 18432, Note_on_c, 0, 65, 0
1, 18432, Note_on_c, 0, 65, 75
1, 18432, Note_on_c, 1, 60, 75
1, 18477, Note_on_c, 1, 60, 0
1, 18480, Note_on_c, 1, 55, 75
1, 18525, Note_on_c, 1, 55, 0
1, 18528, Note_on_c, 0, 65, 0
1, 18528, Note_on_c, 0, 64, 75
1, 18528, Note_on_c, 1, 48, 75
1, 18548, Note_on_c, 0, 64, 0
1, 18573, Note_on_c, 1, 48, 0
1, 18576, Note_on_c, 0, 67, 75
1, 18588, Note_on_c, 0, 67, 0
1, 18588, Note_on_c, 0, 64, 75
1, 18600, Note_on_c, 0, 64, 0
1, 18600, Note_on_c, 0, 67, 75
1, 18612, Note_on_c, 0, 67, 0
1, 18612, Note_on_c, 0, 64, 75
1, 18624, Note_on_c, 0, 64, 0
1, 18624, Note_on_c, 0, 60, 75
1, 18669, Note_on_c, 0, 60, 0
1, 18672, Note_on_c, 0, 79, 75
1, 18672, Note_on_c, 1, 58, 75
1, 18684, Note_on_c, 1, 58, 0
1, 18684, Note_on_c, 1, 55, 75
1, 18696, Note_on_c, 1, 55, 0
1, 18696, Note_on_c, 1, 58, 75
1, 18708, Note_on_c, 1, 58, 0
1, 18708, Note_on_c, 1, 55, 75
1, 18717, Note_on_c, 0, 79, 0
1, 18720, Note_on_c, 1, 55, 0
1, 18720, Note_on_c, 1, 52, 75
1, 18765, Note_on_c, 1, 52, 0
1, 18768, Note_on_c, 0, 77, 75
1, 18768, Note_on_c, 1, 70, 75
1, 18780, Note_on_c, 0, 77, 0
1, 18780, Note_on_c, 0, 76, 75
1, 18792, Note_on_c, 0, 76, 0
1, 18792, Note_on_c, 0, 74, 75
1, 18804, Note_on_c, 0, 74, 0
1, 18804, Note_on_c, 0, 72, 75
1, 18813, Note_on_c, 1, 70, 0
1, 18816, Note_on_c, 0, 72, 0
1, 18816, Note_on_c, 0, 77, 75
1, 18816, Note_on_c, 1, 69, 75
1, 18861, Note_on_c, 0, 77, 0
1, 18861, Note_on_c, 1, 69, 0
1, 18864, Note_on_c, 1, 48, 75
1, 18876, Note_on_c, 1, 48, 0
1, 18876, Note_on_c, 1, 45, 75
1, 18888, Note_on_c, 1, 45, 0
1, 18888, Note_on_c, 1, 48, 75
1, 18900, Note_on_c, 1, 48, 0
1, 18900, Note_on_c, 1, 45, 75
1, 18912, Note_on_c, 1, 45, 0
1, 18912, Note_on_c, 1, 41, 75
1, 18957, Note_on_c, 1, 41, 0
1, 18960, Note_on_c, 0, 72, 75
1, 18972, Note_on_c, 0, 72, 0
1, 18972, Note_on_c, 0, 69, 75
1, 18984, Note_on_c, 0, 69, 0
1, 18984, Note_on_c, 0, 72, 75
1, 18996, Note_on_c, 0, 72, 0
1, 18996, Note_on_c, 0, 69, 75
1, 19008, Note_on_c, 0, 69, 0
1, 19008, Note_on_c, 0, 65, 75
1, 19053, Note_on_c, 0, 65, 0
1, 19056, Note_on_c, 0, 84, 75
1, 19056, Note_on_c, 1, 63, 75
1, 19068, Note_on_c, 1, 63, 0
1, 19068, Note_on_c, 1, 60, 75
1, 19080, Note_on_c, 1, 60, 0
1, 19080, Note_on_c, 1, 63, 75
1, 19092, Note_on_c, 1, 63, 0
1, 19092, Note_on_c, 1, 60, 75
1, 19101, Note_on_c, 0, 84, 0
1, 19104, Note_on_c, 1, 60, 0
1, 19104, Note_on_c, 1, 57, 75
1, 19149, Note_on_c, 1, 57, 0
1, 19152, Note_on_c, 0, 82, 75
1, 19152, Note_on_c, 1, 75, 75
1, 19164, Note_on_c, 0, 82, 0
1, 19164, Note_on_c, 0, 81, 75
1, 19176, Note_on_c, 0, 81, 0
1, 19176, Note_on_c, 0, 79, 75
1, 19188, Note_on_c, 0, 79, 0
1, 19188, Note_on_c, 0, 77, 75
1, 19197, Note_on_c, 1, 75, 0
1, 19200, Note_on_c, 0, 77, 0
1, 19200, Note_on_c, 0, 82, 75
1, 19200, Note_on_c, 1, 74, 75
1, 19223, Note_on_c, 0, 82, 0
1, 19224, Note_on_c, 0, 86, 75
1, 19236, Note_on_c, 0, 86, 0
1, 19236, Note_on_c, 0, 84, 75
1, 19245, Note_on_c, 1, 74, 0
1, 19248, Note_on_c, 0, 84, 0
1, 19248, Note_on_c, 0, 82, 75
1, 19260, Note_on_c, 0, 82, 0
1, 19260, Note_on_c, 0, 81, 75
1, 19272, Note_on_c, 0, 81, 0
1, 19272, Note_on_c, 0, 79, 75
1, 19272, Note_on_c, 1, 70, 75
1, 19284, Note_on_c, 0, 79, 0
1, 19284, Note_on_c, 0, 77, 75
1, 19295, Note_on_c, 1, 70, 0
1, 19296, Note_on_c, 0, 77, 0
1, 19296, Note_on_c, 0, 75, 75
1, 19296, Note_on_c, 1, 72, 75
1, 19306, Note_on_c, 0, 75, 0
1, 19320, Note_on_c, 0, 84, 75
1, 19330, Note_on_c, 0, 84, 0
1, 19341, Note_on_c, 1, 72, 0
1, 19344, Note_on_c, 1, 69, 75
1, 19368, Note_on_c, 0, 75, 75
1, 19389, Note_on_c, 1, 69, 0
1, 19391, Note_on_c, 0, 75, 0
1, 19392, Note_on_c, 0, 74, 75
1, 19392, Note_on_c, 1, 70, 75
1, 19415, Note_on_c, 0, 74, 0
1, 19416, Note_on_c, 0, 82, 75
1, 19428, Note_on_c, 0, 82, 0
1, 19428, Note_on_c, 0, 81, 75
1, 19437, Note_on_c, 1, 70, 0
1, 19440, Note_on_c, 0, 81, 0
1, 19440, Note_on_c, 0, 79, 75
1, 19452, Note_on_c, 0, 79, 0
1, 19452, Note_on_c, 0, 77, 75
1, 19464, Note_on_c, 0, 77, 0
1, 19464, Note_on_c, 0, 75, 75
1, 19464, Note_on_c, 1, 67, 75
1, 19476, Note_on_c, 0, 75, 0
1, 19476, Note_on_c, 0, 74, 75
1, 19487, Note_on_c, 1, 67, 0
1, 19488, Note_on_c, 0, 74, 0
1, 19488, Note_on_c, 0, 72, 75
1, 19488, Note_on_c, 1, 69, 75
1, 19498, Note_on_c, 0, 72, 0
1, 19512, Note_on_c, 0, 81, 75
1, 19522, Note_on_c, 0, 81, 0
1, 19533, Note_on_c, 1, 69, 0
1, 19536, Note_on_c, 1, 66, 75
1, 19560, Note_on_c, 0, 72, 75
1, 19581, Note_on_c, 1, 66, 0
1, 19583, Note_on_c, 0, 72, 0
1, 19584, Note_on_c, 0, 70, 75
1, 19584, Note_on_c, 1, 67, 75
1, 19607, Note_on_c, 0, 70, 0
1, 19608, Note_on_c, 0, 79, 75
1, 19620, Note_on_c, 0, 79, 0
1, 19620, Note_on_c, 0, 77, 75
1, 19629, Note_on_c, 1, 67, 0
1, 19632, Note_on_c, 0, 77, 0
1, 19632, Note_on_c, 0, 76, 75
1, 19644, Note_on_c, 0, 76, 0
1, 19644, Note_on_c, 0, 74, 75
1, 19656, Note_on_c, 0, 74, 0
1, 19656, Note_on_c, 0, 72, 75
1, 19656, Note_on_c, 1, 64, 75
1, 19668, Note_on_c, 0, 72, 0
1, 19668, Note_on_c, 0, 70, 75
1, 19679, Note_on_c, 1, 64, 0
1, 19680, Note_on_c, 0, 70, 0
1, 19680, Note_on_c, 0, 69, 75
1, 19680, Note_on_c, 1, 65, 75
1, 19690, Note_on_c, 0, 69, 0
1, 19704, Note_on_c, 0, 77, 75
1, 19714, Note_on_c, 0, 77, 0
1, 19725, Note_on_c, 1, 65, 0
1, 19728, Note_on_c, 1, 62, 75
1, 19752, Note_on_c, 0, 69, 75
1, 19773, Note_on_c, 1, 62, 0
1, 19775, Note_on_c, 0, 69, 0
1, 19776, Note_on_c, 0, 67, 75
1, 19776, Note_on_c, 1, 64, 75
1, 19799, Note_on_c, 0, 67, 0
1, 19800, Note_on_c, 0, 76, 76
1, 19812, Note_on_c, 0, 76, 0
1, 19812, Note_on_c, 0, 74, 76
1, 19821, Note_on_c, 1, 64, 0
1, 19824, Note_on_c, 0, 74, 0
1, 19824, Note_on_c, 0, 73, 77
1, 19836, Note_on_c, 0, 73, 0
1, 19836, Note_on_c, 0, 71, 77
1, 19848, Note_on_c, 0, 71, 0
1, 19848, Note_on_c, 0, 69, 78
1, 19848, Note_on_c, 1, 61, 78
1, 19860, Note_on_c, 0, 69, 0
1, 19860, Note_on_c, 0, 67, 78
1, 19871, Note_on_c, 1, 61, 0
1, 19872, Note_on_c, 0, 67, 0
1, 19872, Note_on_c, 0, 65, 79
1, 19872, Note_on_c, 1, 62, 79
1, 19882, Note_on_c, 0, 65, 0
1, 19896, Note_on_c, 0, 74, 80
1, 19906, Note_on_c, 0, 74, 0
1, 19917, Note_on_c, 1, 62, 0
1, 19920, Note_on_c, 1, 56, 81
1, 19944, Note_on_c, 0, 65, 82
1, 19944, Note_on_c, 0, 62, 82
1, 19965, Note_on_c, 1, 56, 0
1, 19967, Note_on_c, 0, 65, 0
1, 19967, Note_on_c, 0, 62, 0
1, 19968, Note_on_c, 0, 64, 84
1, 19968, Note_on_c, 0, 61, 84
1, 19968, Note_on_c, 1, 45, 84
1, 19980, Note_on_c, 1, 45, 0
1, 19980, Note_on_c, 1, 57, 84
1, 19988, Note_on_c, 0, 64, 0
1, 19988, Note_on_c, 0, 61, 0
1, 19992, Note_on_c, 1, 57, 0
1, 19992, Note_on_c, 1, 56, 84
1, 20004, Note_on_c, 1, 56, 0
1, 20004, Note_on_c, 1, 57, 84
1, 20016, Note_on_c, 0, 69, 84
1, 20016, Note_on_c, 0, 65, 84
1, 20016, Note_on_c, 1, 57, 0
1, 20016, Note_on_c, 1, 45, 84
1, 20028, Note_on_c, 1, 45, 0
1, 20028, Note_on_c, 1, 57, 84
1, 20036, Note_on_c, 0, 69, 0
1, 20036, Note_on_c, 0, 65, 0
1, 20040, Note_on_c, 1, 57, 0
1, 20040, Note_on_c, 1, 56, 84
1, 20052, Note_on_c, 1, 56, 0
1, 20052, Note_on_c, 1, 57, 84
1, 20064, Note_on_c, 0, 67, 84
1, 20064, Note_on_c, 0, 64, 84
1, 20064, Note_on_c, 1, 57, 0
1, 20064, Note_on_c, 1, 45, 84
1, 20076, Note_on_c, 1, 45, 0
1, 20076, Note_on_c, 1, 57, 84
1, 20084, Note_on_c, 0, 67, 0
1, 20084, Note_on_c, 0, 64, 0
1, 20088, Note_on_c, 1, 57, 0
1, 20088, Note_on_c, 1, 56, 84
1, 20100, Note_on_c, 1, 56, 0
1, 20100, Note_on_c, 1, 57, 84
1, 20112, Note_on_c, 0, 65, 84
1, 20112, Note_on_c, 0, 62, 84
1, 20112, Note_on_c, 1, 57, 0
1, 20112, Note_on_c, 1, 45, 84
1, 20124, Note_on_c, 1, 45, 0
1, 20124, Note_on_c, 1, 57, 84
1, 20132, Note_on_c, 0, 65, 0
1, 20132, Note_on_c, 0, 62, 0
1, 20136, Note_on_c, 1, 57, 0
1, 20136, Note_on_c, 1, 56, 84
1, 20148, Note_on_c, 1, 56, 0
1, 20148, Note_on_c, 1, 57, 84
1, 20160, Note_on_c, 0, 64, 84
1, 20160, Note_on_c, 0, 61, 84
1, 20160, Note_on_c, 1, 57, 0
1, 20160, Note_on_c, 1, 45, 84
1, 20180, Note_on_c, 0, 64, 0
1, 20180, Note_on_c, 0, 61, 0
1, 20205, Note_on_c, 1, 45, 0
1, 20208, Note_on_c, 0, 81, 84
1, 20208, Note_on_c, 1, 65, 84
1, 20208, Note_on_c, 1, 57, 90
1, 20220, Note_on_c, 0, 81, 0
1, 20220, Note_on_c, 0, 69, 84
1, 20232, Note_on_c, 0, 69, 0
1, 20232, Note_on_c, 0, 68, 85
1, 20244, Note_on_c, 0, 68, 0
1, 20244, Note_on_c, 0, 69, 86
1, 20253, Note_on_c, 1, 65, 0
1, 20256, Note_on_c, 0, 69, 0
1, 20256, Note_on_c, 0, 79, 87
1, 20256, Note_on_c, 1, 64, 87
1, 20268, Note_on_c, 0, 79, 0
1, 20268, Note_on_c, 0, 69, 87
1, 20280, Note_on_c, 0, 69, 0
1, 20280, Note_on_c, 0, 68, 88
1, 20292, Note_on_c, 0, 68, 0
1, 20292, Note_on_c, 0, 69, 89
1, 20301, Note_on_c, 1, 64, 0
1, 20304, Note_on_c, 0, 69, 0
1, 20304, Note_on_c, 0, 77, 90
1, 20304, Note_on_c, 1, 62, 90
1, 20316, Note_on_c, 0, 77, 0
1, 20316, Note_on_c, 0, 69, 90
1, 20328, Note_on_c, 0, 69, 0
1, 20328, Note_on_c, 0, 68, 90
1, 20340, Note_on_c, 0, 68, 0
1, 20340, Note_on_c, 0, 69, 90
1, 20349, Note_on_c, 1, 62, 0
1, 20352, Note_on_c, 0, 69, 0
1, 20352, Note_on_c, 0, 76, 90
1, 20352, Note_on_c, 1, 61, 90
1, 20391, Note_on_c, 0, 76, 0
1, 20441, Note_on_c, 1, 61, 0
1, 20441, Note_on_c, 1, 57, 0
1, 20496, Note_on_c, 0, 69, 68
1, 20508, Note_on_c, 0, 69, 0
1, 20508, Note_on_c, 0, 65, 68
1, 20520, Note_on_c, 0, 65, 0
1, 20520, Note_on_c, 0, 69, 68
1, 20532, Note_on_c, 0, 69, 0
1, 20532, Note_on_c, 0, 65, 68
1, 20544, Note_on_c, 0, 65, 0
1, 20544, Note_on_c, 0, 62, 68
1, 20544, Note_on_c, 1, 50, 60
1, 20567, Note_on_c, 1, 50, 0
1, 20568, Note_on_c, 1, 53, 60
1, 20589, Note_on_c, 0, 62, 0
1, 20591, Note_on_c, 1, 53, 0
1, 20592, Note_on_c, 1, 50, 60
1, 20615, Note_on_c, 1, 50, 0
1, 20616, Note_on_c, 0, 81, 68
1, 20616, Note_on_c, 1, 53, 60
1, 20626, Note_on_c, 0, 81, 0
1, 20639, Note_on_c, 1, 53, 0
1, 20640, Note_on_c, 0, 79, 68
1, 20640, Note_on_c, 1, 50, 60
1, 20650, Note_on_c, 0, 79, 0
1, 20663, Note_on_c, 1, 50, 0
1, 20664, Note_on_c, 0, 77, 68
1, 20664, Note_on_c, 1, 53, 60
1, 20674, Note_on_c, 0, 77, 0
1, 20687, Note_on_c, 1, 53, 0
1, 20688, Note_on_c, 0, 76, 68
1, 20688, Note_on_c, 1, 50, 60
1, 20698, Note_on_c, 0, 76, 0
1, 20711, Note_on_c, 1, 50, 0
1, 20712, Note_on_c, 0, 74, 68
1, 20712, Note_on_c, 1, 53, 60
1, 20722, Note_on_c, 0, 74, 0
1, 20735, Note_on_c, 1, 53, 0
1, 20736, Note_on_c, 0, 74, 84
1, 20736, Note_on_c, 1, 52, 60
1, 20759, Note_on_c, 1, 52, 0
1, 20760, Note_on_c, 1, 55, 60
1, 20783, Note_on_c, 1, 55, 0
1, 20784, Note_on_c, 1, 52, 60
1, 20807, Note_on_c, 1, 52, 0
1, 20808, Note_on_c, 0, 74, 0
1, 20808, Note_on_c, 0, 76, 75
1, 20808, Note_on_c, 1, 55, 60
1, 20820, Note_on_c, 0, 76, 0
1, 20820, Note_on_c, 0, 74, 71
1, 20831, Note_on_c, 1, 55, 0
1, 20832, Note_on_c, 0, 74, 0
1, 20832, Note_on_c, 0, 73, 68
1, 20832, Note_on_c, 1, 52, 60
1, 20852, Note_on_c, 0, 73, 0
1, 20855, Note_on_c, 1, 52, 0
1, 20856, Note_on_c, 1, 55, 60
1, 20879, Note_on_c, 1, 55, 0
1, 20880, Note_on_c, 0, 70, 68
1, 20880, Note_on_c, 1, 52, 60
1, 20892, Note_on_c, 0, 70, 0
1, 20892, Note_on_c, 0, 67, 68
1, 20903, Note_on_c, 1, 52, 0
1, 20904, Note_on_c, 0, 67, 0
1, 20904, Note_on_c, 0, 70, 68
1, 20904, Note_on_c, 1, 55, 60
1, 20916, Note_on_c, 0, 70, 0
1, 20916, Note_on_c, 0, 67, 68
1, 20927, Note_on_c, 1, 55, 0
1, 20928, Note_on_c, 0, 67, 0
1, 20928, Note_on_c, 0, 61, 68
1, 20928, Note_on_c, 1, 52, 60
1, 20951, Note_on_c, 1, 52, 0
1, 20952, Note_on_c, 1, 55, 60
1, 20973, Note_on_c, 0, 61, 0
1, 20975, Note_on_c, 1, 55, 0
1, 20976, Note_on_c, 1, 52, 60
1, 20999, Note_on_c, 1, 52, 0
1, 21000, Note_on_c, 0, 82, 68
1, 21000, Note_on_c, 1, 55, 60
1, 21010, Note_on_c, 0, 82, 0
1, 21023, Note_on_c, 1, 55, 0
1, 21024, Note_on_c, 0, 81, 68
1, 21024, Note_on_c, 1, 52, 60
1, 21034, Note_on_c, 0, 81, 0
1, 21047, Note_on_c, 1, 52, 0
1, 21048, Note_on_c, 0, 79, 68
1, 21048, Note_on_c, 1, 55, 60
1, 21058, Note_on_c, 0, 79, 0
1, 21071, Note_on_c, 1, 55, 0
1, 21072, Note_on_c, 0, 77, 68
1, 21072, Note_on_c, 1, 52, 60
1, 21082, Note_on_c, 0, 77, 0
1, 21095, Note_on_c, 1, 52, 0
1, 21096, Note_on_c, 0, 76, 68
1, 21096, Note_on_c, 1, 55, 60
1, 21106, Note_on_c, 0, 76, 0
1, 21119, Note_on_c, 1, 55, 0
1, 21120, Note_on_c, 0, 76, 84
1, 21120, Note_on_c, 1, 53, 60
1, 21143, Note_on_c, 1, 53, 0
1, 21144, Note_on_c, 1, 57, 60
1, 21167, Note_on_c, 1, 57, 0
1, 21168, Note_on_c, 1, 53, 60
1, 21191, Note_on_c, 1, 53, 0
1, 21192, Note_on_c, 0, 76, 0
1, 21192, Note_on_c, 0, 77, 75
1, 21192, Note_on_c, 1, 57, 60
1, 21204, Note_on_c, 0, 77, 0
1, 21204, Note_on_c, 0, 76, 71
1, 21215, Note_on_c, 1, 57, 0
1, 21216, Note_on_c, 0, 76, 0
1, 21216, Note_on_c, 0, 74, 68
1, 21216, Note_on_c, 1, 53, 60
1, 21236, Note_on_c, 0, 74, 0
1, 21239, Note_on_c, 1, 53, 0
1, 21240, Note_on_c, 1, 57, 60
1, 21263, Note_on_c, 1, 57, 0
1, 21264, Note_on_c, 0, 74, 68
1, 21264, Note_on_c, 1, 53, 60
1, 21276, Note_on_c, 0, 74, 0
1, 21276, Note_on_c, 0, 69, 68
1, 21287, Note_on_c, 1, 53, 0
1, 21288, Note_on_c, 0, 69, 0
1, 21288, Note_on_c, 0, 74, 68
1, 21288, Note_on_c, 1, 57, 60
1, 21300, Note_on_c, 0, 74, 0
1, 21300, Note_on_c, 0, 69, 68
1, 21311, Note_on_c, 1, 57, 0
1, 21312, Note_on_c, 0, 69, 0
1, 21312, Note_on_c, 0, 62, 68
1, 21312, Note_on_c, 1, 53, 60
1, 21335, Note_on_c, 1, 53, 0
1, 21336, Note_on_c, 1, 57, 60
1, 21357, Note_on_c, 0, 62, 0
1, 21359, Note_on_c, 1, 57, 0
1, 21360, Note_on_c, 1, 53, 61
1, 21383, Note_on_c, 1, 53, 0
1, 21384, Note_on_c, 0, 75, 69
1, 21384, Note_on_c, 1, 57, 62
1, 21394, Note_on_c, 0, 75, 0
1, 21407, Note_on_c, 1, 57, 0
1, 21408, Note_on_c, 0, 74, 70
1, 21408, Note_on_c, 1, 54, 63
1, 21418, Note_on_c, 0, 74, 0
1, 21431, Note_on_c, 1, 54, 0
1, 21432, Note_on_c, 0, 72, 71
1, 21432, Note_on_c, 1, 62, 63
1, 21442, Note_on_c, 0, 72, 0
1, 21455, Note_on_c, 1, 62, 0
1, 21456, Note_on_c, 0, 70, 71
1, 21456, Note_on_c, 1, 54, 64
1, 21466, Note_on_c, 0, 70, 0
1, 21479, Note_on_c, 1, 54, 0
1, 21480, Note_on_c, 0, 69, 72
1, 21480, Note_on_c, 1, 62, 65
1, 21490, Note_on_c, 0, 69, 0
1, 21503, Note_on_c, 1, 62, 0
1, 21504, Note_on_c, 0, 72, 73
1, 21504, Note_on_c, 1, 55, 66
1, 21527, Note_on_c, 1, 55, 0
1, 21528, Note_on_c, 0, 72, 0
1, 21528, Note_on_c, 0, 70, 73
1, 21528, Note_on_c, 1, 62, 66
1, 21551, Note_on_c, 0, 70, 0
1, 21551, Note_on_c, 1, 62, 0
1, 21552, Note_on_c, 1, 55, 67
1, 21575, Note_on_c, 1, 55, 0
1, 21576, Note_on_c, 0, 77, 75
1, 21576, Note_on_c, 1, 62, 68
1, 21586, Note_on_c, 0, 77, 0
1, 21599, Note_on_c, 1, 62, 0
1, 21600, Note_on_c, 0, 76, 75
1, 21600, Note_on_c, 1, 56, 69
1, 21610, Note_on_c, 0, 76, 0
1, 21623, Note_on_c, 1, 56, 0
1, 21624, Note_on_c, 0, 74, 76
1, 21624, Note_on_c, 1, 64, 69
1, 21634, Note_on_c, 0, 74, 0
1, 21647, Note_on_c, 1, 64, 0
1, 21648, Note_on_c, 0, 73, 77
1, 21648, Note_on_c, 1, 56, 70
1, 21658, Note_on_c, 0, 73, 0
1, 21671, Note_on_c, 1, 56, 0
1, 21672, Note_on_c, 0, 71, 77
1, 21672, Note_on_c, 1, 64, 71
1, 21682, Note_on_c, 0, 71, 0
1, 21695, Note_on_c, 1, 64, 0
1, 21696, Note_on_c, 0, 74, 78
1, 21696, Note_on_c, 1, 57, 72
1, 21719, Note_on_c, 1, 57, 0
1, 21720, Note_on_c, 0, 74, 0
1, 21720, Note_on_c, 0, 73, 79
1, 21720, Note_on_c, 1, 64, 72
1, 21743, Note_on_c, 0, 73, 0
1, 21743, Note_on_c, 1, 64, 0
1, 21744, Note_on_c, 1, 57, 73
1, 21767, Note_on_c, 1, 57, 0
1, 21768, Note_on_c, 0, 82, 80
1, 21768, Note_on_c, 1, 64, 74
1, 21778, Note_on_c, 0, 82, 0
1, 21791, Note_on_c, 1, 64, 0
1, 21792, Note_on_c, 0, 81, 81
1, 21792, Note_on_c, 1, 61, 75
1, 21802, Note_on_c, 0, 81, 0
1, 21815, Note_on_c, 1, 61, 0
1, 21816, Note_on_c, 0, 79, 81
1, 21816, Note_on_c, 1, 69, 75
1, 21826, Note_on_c, 0, 79, 0
1, 21839, Note_on_c, 1, 69, 0
1, 21840, Note_on_c, 0, 77, 82
1, 21840, Note_on_c, 1, 61, 76
1, 21850, Note_on_c, 0, 77, 0
1, 21863, Note_on_c, 1, 61, 0
1, 21864, Note_on_c, 0, 76, 83
1, 21864, Note_on_c, 1, 69, 77
1, 21874, Note_on_c, 0, 76, 0
1, 21887, Note_on_c, 1, 69, 0
1, 21888, Note_on_c, 0, 77, 83
1, 21900, Note_on_c, 0, 77, 0
1, 21900, Note_on_c, 0, 74, 84
1, 21912, Note_on_c, 0, 74, 0
1, 21912, Note_on_c, 0, 69, 84
1, 21924, Note_on_c, 0, 69, 0
1, 21924, Note_on_c, 0, 65, 84
1, 21936, Note_on_c, 0, 65, 0
1, 21936, Note_on_c, 0, 62, 84
1, 21948, Note_on_c, 0, 62, 0
1, 21948, Note_on_c, 0, 77, 84
1, 21960, Note_on_c, 0, 77, 0
1, 21960, Note_on_c, 0, 74, 84
1, 21972, Note_on_c, 0, 74, 0
1, 21972, Note_on_c, 0, 69, 84
1, 21984, Note_on_c, 0, 69, 0
1, 21984, Note_on_c, 0, 79, 84
1, 21996, Note_on_c, 0, 79, 0
1, 21996, Note_on_c, 0, 76, 84
1, 22008, Note_on_c, 0, 76, 0
1, 22008, Note_on_c, 0, 73, 84
1, 22020, Note_on_c, 0, 73, 0
1, 22020, Note_on_c, 0, 67, 84
1, 22032, Note_on_c, 0, 67, 0
1, 22032, Note_on_c, 0, 64, 84
1, 22044, Note_on_c, 0, 64, 0
1, 22044, Note_on_c, 0, 79, 84
1, 22056, Note_on_c, 0, 79, 0
1, 22056, Note_on_c, 0, 76, 84
1, 22068, Note_on_c, 0, 76, 0
1, 22068, Note_on_c, 0, 73, 84
1, 22080, Note_on_c, 0, 73, 0
1, 22080, Note_on_c, 0, 81, 84
1, 22092, Note_on_c, 0, 81, 0
1, 22092, Note_on_c, 0, 77, 84
1, 22104, Note_on_c, 0, 77, 0
1, 22104, Note_on_c, 0, 74, 84
1, 22116, Note_on_c, 0, 74, 0
1, 22116, Note_on_c, 0, 69, 84
1, 22128, Note_on_c, 0, 69, 0
1, 22128, Note_on_c, 0, 65, 84
1, 22140, Note_on_c, 0, 65, 0
1, 22140, Note_on_c, 0, 81, 84
1, 22152, Note_on_c, 0, 81, 0
1, 22152, Note_on_c, 0, 77, 84
1, 22164, Note_on_c, 0, 77, 0
1, 22164, Note_on_c, 0, 74, 84
1, 22176, Note_on_c, 0, 74, 0
1, 22176, Note_on_c, 0, 82, 84
1, 22188, Note_on_c, 0, 82, 0
1, 22188, Note_on_c, 0, 79, 84
1, 22200, Note_on_c, 0, 79, 0
1, 22200, Note_on_c, 0, 74, 84
1, 22212, Note_on_c, 0, 74, 0
1, 22212, Note_on_c, 0, 70, 84
1, 22224, Note_on_c, 0, 70, 0
1, 22224, Note_on_c, 0, 67, 84
1, 22236, Note_on_c, 0, 67, 0
1, 22236, Note_on_c, 0, 82, 84
1, 22248, Note_on_c, 0, 82, 0
1, 22248, Note_on_c, 0, 79, 84
1, 22260, Note_on_c, 0, 79, 0
1, 22260, Note_on_c, 0, 74, 84
1, 22272, Note_on_c, 0, 74, 0
1, 22272, Note_on_c, 0, 81, 84
1, 22284, Note_on_c, 0, 81, 0
1, 22284, Note_on_c, 0, 77, 84
1, 22296, Note_on_c, 0, 77, 0
1, 22296, Note_on_c, 0, 74, 84
1, 22308, Note_on_c, 0, 74, 0
1, 22308, Note_on_c, 0, 69, 84
1, 22320, Note_on_c, 0, 69, 0
1, 22320, Note_on_c, 0, 65, 84
1, 22332, Note_on_c, 0, 65, 0
1, 22332, Note_on_c, 0, 81, 84
1, 22344, Note_on_c, 0, 81, 0
1, 22344, Note_on_c, 0, 77, 84
1, 22356, Note_on_c, 0, 77, 0
1, 22356, Note_on_c, 0, 74, 84
1, 22368, Note_on_c, 0, 74, 0
1, 22368, Note_on_c, 0, 83, 84
1, 22380, Note_on_c, 0, 83, 0
1, 22380, Note_on_c, 0, 77, 84
1, 22392, Note_on_c, 0, 77, 0
1, 22392, Note_on_c, 0, 74, 84
1, 22404, Note_on_c, 0, 74, 0
1, 22404, Note_on_c, 0, 71, 84
1, 22416, Note_on_c, 0, 71, 0
1, 22416, Note_on_c, 0, 68, 84
1, 22428, Note_on_c, 0, 68, 0
1, 22428, Note_on_c, 0, 86, 84
1, 22440, Note_on_c, 0, 86, 0
1, 22440, Note_on_c, 0, 83, 84
1, 22452, Note_on_c, 0, 83, 0
1, 22452, Note_on_c, 0, 77, 84
1, 22464, Note_on_c, 0, 77, 0
1, 22464, Note_on_c, 0, 85, 84
1, 22476, Note_on_c, 0, 85, 0
1, 22476, Note_on_c, 0, 81, 84
1, 22488, Note_on_c, 0, 81, 0
1, 22488, Note_on_c, 0, 76, 84
1, 22500, Note_on_c, 0, 76, 0
1, 22500, Note_on_c, 0, 73, 84
1, 22512, Note_on_c, 0, 73, 0
1, 22512, Note_on_c, 0, 69, 84
1, 22524, Note_on_c, 0, 69, 0
1, 22524, Note_on_c, 0, 85, 84
1, 22536, Note_on_c, 0, 85, 0
1, 22536, Note_on_c, 0, 81, 84
1, 22548, Note_on_c, 0, 81, 0
1, 22548, Note_on_c, 0, 76, 84
1, 22560, Note_on_c, 0, 76, 0
1, 22560, Note_on_c, 0, 86, 84
1, 22572, Note_on_c, 0, 86, 0
1, 22572, Note_on_c, 0, 80, 84
1, 22584, Note_on_c, 0, 80, 0
1, 22584, Note_on_c, 0, 77, 84
1, 22596, Note_on_c, 0, 77, 0
1, 22596, Note_on_c, 0, 74, 84
1, 22608, Note_on_c, 0, 74, 0
1, 22608, Note_on_c, 0, 71, 84
1, 22620, Note_on_c, 0, 71, 0
1, 22620, Note_on_c, 0, 86, 84
1, 22632, Note_on_c, 0, 86, 0
1, 22632, Note_on_c, 0, 80, 84
1, 22644, Note_on_c, 0, 80, 0
1, 22644, Note_on_c, 0, 77, 84
1, 22656, Note_on_c, 0, 77, 0
1, 22656, Note_on_c, 0, 85, 84
1, 22668, Note_on_c, 0, 85, 0
1, 22668, Note_on_c, 0, 81, 84
1, 22680, Note_on_c, 0, 81, 0
1, 22680, Note_on_c, 0, 76, 84
1, 22692, Note_on_c, 0, 76, 0
1, 22692, Note_on_c, 0, 73, 84
1, 22704, Note_on_c, 0, 73, 0
1, 22704, Note_on_c, 0, 69, 84
1, 22716, Note_on_c, 0, 69, 0
1, 22716, Note_on_c, 0, 88, 84
1, 22728, Note_on_c, 0, 88, 0
1, 22728, Note_on_c, 0, 85, 84
1, 22740, Note_on_c, 0, 85, 0
1, 22740, Note_on_c, 0, 81, 84
1, 22752, Note_on_c, 0, 81, 0
1, 22752, Note_on_c, 0, 85, 84
1, 22764, Note_on_c, 0, 85, 0
1, 22764, Note_on_c, 0, 81, 84
1, 22776, Note_on_c, 0, 81, 0
1, 22776, Note_on_c, 0, 76, 84
1, 22788, Note_on_c, 0, 76, 0
1, 22788, Note_on_c, 0, 73, 84
1, 22800, Note_on_c, 0, 73, 0
1, 22800, Note_on_c, 0, 69, 84
1, 22812, Note_on_c, 0, 69, 0
1, 22812, Note_on_c, 0, 85, 84
1, 22824, Note_on_c, 0, 85, 0
1, 22824, Note_on_c, 0, 81, 84
1, 22836, Note_on_c, 0, 81, 0
1, 22836, Note_on_c, 0, 76, 84
1, 22848, Note_on_c, 0, 76, 0
1, 22848, Note_on_c, 0, 82, 84
1, 22860, Note_on_c, 0, 82, 0
1, 22860, Note_on_c, 0, 79, 84
1, 22872, Note_on_c, 0, 79, 0
1, 22872, Note_on_c, 0, 76, 84
1, 22884, Note_on_c, 0, 76, 0
1, 22884, Note_on_c, 0, 73, 84
1, 22896, Note_on_c, 0, 73, 0
1, 22896, Note_on_c, 0, 81, 84
1, 22908, Note_on_c, 0, 81, 0
1, 22908, Note_on_c, 0, 78, 84
1, 22920, Note_on_c, 0, 78, 0
1, 22920, Note_on_c, 0, 75, 84
1, 22932, Note_on_c, 0, 75, 0
1, 22932, Note_on_c, 0, 72, 84
1, 22944, Note_on_c, 0, 72, 0
1, 22944, Note_on_c, 0, 80, 84
1, 22956, Note_on_c, 0, 80, 0
1, 22956, Note_on_c, 0, 77, 84
1, 22968, Note_on_c, 0, 77, 0
1, 22968, Note_on_c, 0, 74, 84
1, 22980, Note_on_c, 0, 74, 0
1, 22980, Note_on_c, 0, 71, 84
1, 22992, Note_on_c, 0, 71, 0
1, 22992, Note_on_c, 0, 79, 84
1, 23004, Note_on_c, 0, 79, 0
1, 23004, Note_on_c, 0, 76, 84
1, 23016, Note_on_c, 0, 76, 0
1, 23016, Note_on_c, 0, 73, 84
1, 23028, Note_on_c, 0, 73, 0
1, 23028, Note_on_c, 0, 70, 84
1, 23040, Note_on_c, 0, 70, 0
1, 23040, Note_on_c, 0, 77, 84
1, 23052, Note_on_c, 0, 77, 0
1, 23052, Note_on_c, 0, 74, 84
1, 23064, Note_on_c, 0, 74, 0
1, 23064, Note_on_c, 0, 71, 84
1, 23076, Note_on_c, 0, 71, 0
1, 23076, Note_on_c, 0, 68, 84
1, 23088, Note_on_c, 0, 68, 0
1, 23088, Note_on_c, 0, 56, 84
1, 23100, Note_on_c, 0, 56, 0
1, 23100, Note_on_c, 0, 71, 84
1, 23112, Note_on_c, 0, 71, 0
1, 23112, Note_on_c, 0, 74, 84
1, 23124, Note_on_c, 0, 74, 0
1, 23124, Note_on_c, 0, 77, 84
1, 23136, Note_on_c, 0, 77, 0
1, 23136, Note_on_c, 0, 62, 64
1, 23136, Note_on_c, 0, 57, 64
1, 23148, Note_on_c, 0, 69, 84
1, 23160, Note_on_c, 0, 69, 0
1, 23160, Note_on_c, 0, 74, 84
1, 23172, Note_on_c, 0, 74, 0
1, 23172, Note_on_c, 0, 77, 84
1, 23181, Note_on_c, 0, 62, 0
1, 23181, Note_on_c, 0, 57, 0
1, 23184, Note_on_c, 0, 77, 0
1, 23184, Note_on_c, 0, 61, 64
1, 23184, Note_on_c, 0, 57, 64
1, 23196, Note_on_c, 0, 67, 84
1, 23208, Note_on_c, 0, 67, 0
1, 23208, Note_on_c, 0, 73, 84
1, 23220, Note_on_c, 0, 73, 0
1, 23220, Note_on_c, 0, 76, 84
1, 23229, Note_on_c, 0, 61, 0
1, 23229, Note_on_c, 0, 57, 0
1, 23232, Note_on_c, 0, 76, 0
1, 23232, Note_on_c, 0, 73, 84
1, 23244, Note_on_c, 0, 73, 0
1, 23244, Note_on_c, 0, 76, 84
1, 23256, Note_on_c, 0, 76, 0
1, 23256, Note_on_c, 0, 79, 84
1, 23268, Note_on_c, 0, 79, 0
1, 23268, Note_on_c, 0, 82, 84
1, 23280, Note_on_c, 0, 82, 0
1, 23280, Note_on_c, 0, 72, 84
1, 23292, Note_on_c, 0, 72, 0
1, 23292, Note_on_c, 0, 75, 84
1, 23304, Note_on_c, 0, 75, 0
1, 23304, Note_on_c, 0, 78, 84
1, 23316, Note_on_c, 0, 78, 0
1, 23316, Note_on_c, 0, 81, 84
1, 23328, Note_on_c, 0, 81, 0
1, 23328, Note_on_c, 0, 71, 84
1, 23340, Note_on_c, 0, 71, 0
1, 23340, Note_on_c, 0, 74, 84
1, 23352, Note_on_c, 0, 74, 0
1, 23352, Note_on_c, 0, 77, 84
1, 23364, Note_on_c, 0, 77, 0
1, 23364, Note_on_c, 0, 80, 84
1, 23376, Note_on_c, 0, 80, 0
1, 23376, Note_on_c, 0, 70, 84
1, 23388, Note_on_c, 0, 70, 0
1, 23388, Note_on_c, 0, 73, 84
1, 23400, Note_on_c, 0, 73, 0
1, 23400, Note_on_c, 0, 76, 84
1, 23412, Note_on_c, 0, 76, 0
1, 23412, Note_on_c, 0, 79, 84
1, 23424, Note_on_c, 0, 79, 0
1, 23424, Note_on_c, 0, 68, 84
1, 23436, Note_on_c, 0, 68, 0
1, 23436, Note_on_c, 0, 71, 84
1, 23448, Note_on_c, 0, 71, 0
1, 23448, Note_on_c, 0, 74, 84
1, 23460, Note_on_c, 0, 74, 0
1, 23460, Note_on_c, 0, 77, 84
1, 23472, Note_on_c, 0, 77, 0
1, 23472, Note_on_c, 0, 56, 84
1, 23484, Note_on_c, 0, 56, 0
1, 23484, Note_on_c, 0, 71, 84
1, 23496, Note_on_c, 0, 71, 0
1, 23496, Note_on_c, 0, 74, 84
1, 23508, Note_on_c, 0, 74, 0
1, 23508, Note_on_c, 0, 77, 84
1, 23520, Note_on_c, 0, 77, 0
1, 23520, Note_on_c, 0, 62, 64
1, 23520, Note_on_c, 0, 57, 64
1, 23532, Note_on_c, 0, 69, 84
1, 23544, Note_on_c, 0, 69, 0
1, 23544, Note_on_c, 0, 74, 84
1, 23556, Note_on_c, 0, 74, 0
1, 23556, Note_on_c, 0, 77, 84
1, 23565, Note_on_c, 0, 62, 0
1, 23565, Note_on_c, 0, 57, 0
1, 23568, Note_on_c, 0, 77, 0
1, 23568, Note_on_c, 0, 61, 64
1, 23568, Note_on_c, 0, 57, 64
1, 23580, Note_on_c, 0, 67, 84
1, 23592, Note_on_c, 0, 67, 0
1, 23592, Note_on_c, 0, 73, 84
1, 23604, Note_on_c, 0, 73, 0
1, 23604, Note_on_c, 0, 76, 84
1, 23613, Note_on_c, 0, 61, 0
1, 23613, Note_on_c, 0, 57, 0
1, 23616, Note_on_c, 0, 76, 0
1, 23616, Note_on_c, 0, 74, 90
1, 23616, Note_on_c, 1, 50, 90
1, 23628, Note_on_c, 1, 50, 0
1, 23628, Note_on_c, 1, 62, 90
1, 23640, Note_on_c, 1, 62, 0
1, 23640, Note_on_c, 1, 61, 90
1, 23652, Note_on_c, 1, 61, 0
1, 23652, Note_on_c, 1, 62, 90
1, 23661, Note_on_c, 0, 74, 0
1, 23664, Note_on_c, 1, 62, 0
1, 23664, Note_on_c, 1, 50, 90
1, 23676, Note_on_c, 1, 50, 0
1, 23676, Note_on_c, 1, 62, 90
1, 23688, Note_on_c, 1, 62, 0
1, 23688, Note_on_c, 1, 61, 90
1, 23700, Note_on_c, 1, 61, 0
1, 23700, Note_on_c, 1, 62, 90
1, 23712, Note_on_c, 0, 75, 106
1, 23712, Note_on_c, 0, 72, 106
1, 23712, Note_on_c, 0, 66, 106
1, 23712, Note_on_c, 1, 62, 0
1, 23712, Note_on_c, 1, 50, 90
1, 23724, Note_on_c, 1, 50, 0
1, 23724, Note_on_c, 1, 62, 90
1, 23736, Note_on_c, 1, 62, 0
1, 23736, Note_on_c, 1, 61, 90
1, 23748, Note_on_c, 1, 61, 0
1, 23748, Note_on_c, 1, 62, 90
1, 23760, Note_on_c, 1, 62, 0
1, 23760, Note_on_c, 1, 50, 90
1, 23772, Note_on_c, 1, 50, 0
1, 23772, Note_on_c, 1, 62, 90
1, 23784, Note_on_c, 1, 62, 0
1, 23784, Note_on_c, 1, 61, 90
1, 23796, Note_on_c, 1, 61, 0
1, 23796, Note_on_c, 1, 62, 90
1, 23808, Note_on_c, 0, 75, 0
1, 23808, Note_on_c, 0, 72, 0
1, 23808, Note_on_c, 0, 66, 0
1, 23808, Note_on_c, 0, 74, 90
1, 23808, Note_on_c, 0, 70, 90
1, 23808, Note_on_c, 0, 67, 90
1, 23808, Note_on_c, 1, 62, 0
1, 23808, Note_on_c, 1, 50, 90
1, 23820, Note_on_c, 1, 50, 0
1, 23820, Note_on_c, 1, 62, 90
1, 23828, Note_on_c, 0, 74, 0
1, 23828, Note_on_c, 0, 70, 0
1, 23828, Note_on_c, 0, 67, 0
1, 23832, Note_on_c, 1, 62, 0
1, 23832, Note_on_c, 1, 61, 90
1, 23844, Note_on_c, 1, 61, 0
1, 23844, Note_on_c, 1, 62, 90
1, 23856, Note_on_c, 0, 82, 90
1, 23856, Note_on_c, 0, 79, 90
1, 23856, Note_on_c, 1, 62, 0
1, 23856, Note_on_c, 1, 50, 90
1, 23868, Note_on_c, 1, 50, 0
1, 23868, Note_on_c, 1, 62, 90
1, 23876, Note_on_c, 0, 82, 0
1, 23876, Note_on_c, 0, 79, 0
1, 23880, Note_on_c, 1, 62, 0
1, 23880, Note_on_c, 1, 61, 90
1, 23892, Note_on_c, 1, 61, 0
1, 23892, Note_on_c, 1, 62, 90
1, 23904, Note_on_c, 0, 72, 106
1, 23904, Note_on_c, 0, 69, 106
1, 23904, Note_on_c, 0, 66, 106
1, 23904, Note_on_c, 1, 62, 0
1, 23904, Note_on_c, 1, 50, 90
1, 23916, Note_on_c, 1, 50, 0
1, 23916, Note_on_c, 1, 62, 90
1, 23928, Note_on_c, 1, 62, 0
1, 23928, Note_on_c, 1, 61, 90
1, 23940, Note_on_c, 1, 61, 0
1, 23940, Note_on_c, 1, 62, 90
1, 23952, Note_on_c, 1, 62, 0
1, 23952, Note_on_c, 1, 50, 90
1, 23964, Note_on_c, 1, 50, 0
1, 23964, Note_on_c, 1, 62, 90
1, 23976, Note_on_c, 1, 62, 0
1, 23976, Note_on_c, 1, 61, 90
1, 23988, Note_on_c, 1, 61, 0
1, 23988, Note_on_c, 1, 62, 90
1, 24000, Note_on_c, 0, 72, 0
1, 24000, Note_on_c, 0, 69, 0
1, 24000, Note_on_c, 0, 66, 0
1, 24000, Note_on_c, 0, 70, 90
1, 24000, Note_on_c, 1, 62, 0
1, 24000, Note_on_c, 1, 55, 90
1, 24012, Note_on_c, 0, 70, 0
1, 24012, Note_on_c, 0, 67, 90
1, 24024, Note_on_c, 0, 67, 0
1, 24024, Note_on_c, 0, 69, 90
1, 24036, Note_on_c, 0, 69, 0
1, 24036, Note_on_c, 0, 70, 90
1, 24048, Note_on_c, 0, 70, 0
1, 24048, Note_on_c, 0, 72, 90
1, 24060, Note_on_c, 0, 72, 0
1, 24060, Note_on_c, 0, 74, 90
1, 24072, Note_on_c, 0, 74, 0
1, 24072, Note_on_c, 0, 76, 90
1, 24084, Note_on_c, 0, 76, 0
1, 24084, Note_on_c, 0, 78, 90
1, 24089, Note_on_c, 1, 55, 0
1, 24096, Note_on_c, 0, 78, 0
1, 24096, Note_on_c, 0, 79, 90
1, 24108, Note_on_c, 0, 79, 0
1, 24108, Note_on_c, 0, 81, 90
1, 24120, Note_on_c, 0, 81, 0
1, 24120, Note_on_c, 0, 82, 90
1, 24132, Note_on_c, 0, 82, 0
1, 24132, Note_on_c, 0, 81, 90
1, 24144, Note_on_c, 0, 81, 0
1, 24144, Note_on_c, 0, 79, 90
1, 24156, Note_on_c, 0, 79, 0
1, 24156, Note_on_c, 0, 77, 90
1, 24168, Note_on_c, 0, 77, 0
1, 24168, Note_on_c, 0, 76, 90
1, 24180, Note_on_c, 0, 76, 0
1, 24180, Note_on_c, 0, 74, 90
1, 24192, Note_on_c, 0, 74, 0
1, 24192, Note_on_c, 0, 72, 90
1, 24192, Note_on_c, 1, 48, 90
1, 24204, Note_on_c, 1, 48, 0
1, 24204, Note_on_c, 1, 60, 90
1, 24216, Note_on_c, 1, 60, 0
1, 24216, Note_on_c, 1, 59, 90
1, 24228, Note_on_c, 1, 59, 0
1, 24228, Note_on_c, 1, 60, 90
1, 24237, Note_on_c, 0, 72, 0
1, 24240, Note_on_c, 1, 60, 0
1, 24240, Note_on_c, 1, 48, 90
1, 24252, Note_on_c, 1, 48, 0
1, 24252, Note_on_c, 1, 60, 90
1, 24264, Note_on_c, 1, 60, 0
1, 24264, Note_on_c, 1, 59, 90
1, 24276, Note_on_c, 1, 59, 0
1, 24276, Note_on_c, 1, 60, 90
1, 24288, Note_on_c, 0, 73, 106
1, 24288, Note_on_c, 0, 70, 106
1, 24288, Note_on_c, 0, 64, 106
1, 24288, Note_on_c, 1, 60, 0
1, 24288, Note_on_c, 1, 48, 90
1, 24300, Note_on_c, 1, 48, 0
1, 24300, Note_on_c, 1, 60, 90
1, 24312, Note_on_c, 1, 60, 0
1, 24312, Note_on_c, 1, 59, 90
1, 24324, Note_on_c, 1, 59, 0
1, 24324, Note_on_c, 1, 60, 90
1, 24336, Note_on_c, 1, 60, 0
1, 24336, Note_on_c, 1, 48, 90
1, 24348, Note_on_c, 1, 48, 0
1, 24348, Note_on_c, 1, 60, 90
1, 24360, Note_on_c, 1, 60, 0
1, 24360, Note_on_c, 1, 59, 90
1, 24372, Note_on_c, 1, 59, 0
1, 24372, Note_on_c, 1, 60, 90
1, 24384, Note_on_c, 0, 73, 0
1, 24384, Note_on_c, 0, 70, 0
1, 24384, Note_on_c, 0, 64, 0
1, 24384, Note_on_c, 0, 72, 90
1, 24384, Note_on_c, 0, 69, 90
1, 24384, Note_on_c, 0, 65, 90
1, 24384, Note_on_c, 1, 60, 0
1, 24384, Note_on_c, 1, 48, 90
1, 24396, Note_on_c, 1, 48, 0
1, 24396, Note_on_c, 1, 60, 90
1, 24404, Note_on_c, 0, 72, 0
1, 24404, Note_on_c, 0, 69, 0
1, 24404, Note_on_c, 0, 65, 0
1, 24408, Note_on_c, 1, 60, 0
1, 24408, Note_on_c, 1, 59, 90
1, 24420, Note_on_c, 1, 59, 0
1, 24420, Note_on_c, 1, 60, 90
1, 24432, Note_on_c, 0, 81, 90
1, 24432, Note_on_c, 0, 77, 90
1, 24432, Note_on_c, 1, 60, 0
1, 24432, Note_on_c, 1, 48, 90
1, 24444, Note_on_c, 1, 48, 0
1, 24444, Note_on_c, 1, 60, 90
1, 24452, Note_on_c, 0, 81, 0
1, 24452, Note_on_c, 0, 77, 0
1, 24456, Note_on_c, 1, 60, 0
1, 24456, Note_on_c, 1, 59, 90
1, 24468, Note_on_c, 1, 59, 0
1, 24468, Note_on_c, 1, 60, 90
1, 24480, Note_on_c, 0, 70, 106
1, 24480, Note_on_c, 0, 67, 106
1, 24480, Note_on_c, 0, 64, 106
1, 24480, Note_on_c, 1, 60, 0
1, 24480, Note_on_c, 1, 48, 90
1, 24492, Note_on_c, 1, 48, 0
1, 24492, Note_on_c, 1, 60, 90
1, 24504, Note_on_c, 1, 60, 0
1, 24504, Note_on_c, 1, 59, 90
1, 24516, Note_on_c, 1, 59, 0
1, 24516, Note_on_c, 1, 60, 90
1, 24528, Note_on_c, 1, 60, 0
1, 24528, Note_on_c, 1, 48, 90
1, 24540, Note_on_c, 1, 48, 0
1, 24540, Note_on_c, 1, 60, 90
1, 24552, Note_on_c, 1, 60, 0
1, 24552, Note_on_c, 1, 59, 90
1, 24564, Note_on_c, 1, 59, 0
1, 24564, Note_on_c, 1, 60, 90
1, 24576, Note_on_c, 0, 70, 0
1, 24576, Note_on_c, 0, 67, 0
1, 24576, Note_on_c, 0, 64, 0
1, 24576, Note_on_c, 0, 69, 90
1, 24576, Note_on_c, 0, 65, 90
1, 24576, Note_on_c, 1, 60, 0
1, 24576, Note_on_c, 1, 48, 90
1, 24588, Note_on_c, 1, 48, 0
1, 24588, Note_on_c, 1, 60, 90
1, 24596, Note_on_c, 0, 69, 0
1, 24596, Note_on_c, 0, 65, 0
1, 24600, Note_on_c, 1, 60, 0
1, 24600, Note_on_c, 1, 59, 90
1, 24612, Note_on_c, 1, 59, 0
1, 24612, Note_on_c, 1, 60, 90
1, 24624, Note_on_c, 0, 77, 90
1, 24624, Note_on_c, 1, 60, 0
1, 24624, Note_on_c, 1, 48, 90
1, 24636, Note_on_c, 1, 48, 0
1, 24636, Note_on_c, 1, 60, 90
1, 24644, Note_on_c, 0, 77, 0
1, 24648, Note_on_c, 1, 60, 0
1, 24648, Note_on_c, 1, 59, 90
1, 24660, Note_on_c, 1, 59, 0
1, 24660, Note_on_c, 1, 60, 90
1, 24672, Note_on_c, 0, 71, 106
1, 24672, Note_on_c, 0, 65, 106
1, 24672, Note_on_c, 0, 62, 106
1, 24672, Note_on_c, 1, 60, 0
1, 24672, Note_on_c, 1, 48, 90
1, 24684, Note_on_c, 1, 48, 0
1, 24684, Note_on_c, 1, 60, 90
1, 24696, Note_on_c, 1, 60, 0
1, 24696, Note_on_c, 1, 59, 90
1, 24708, Note_on_c, 1, 59, 0
1, 24708, Note_on_c, 1, 60, 90
1, 24720, Note_on_c, 1, 60, 0
1, 24720, Note_on_c, 1, 48, 90
1, 24732, Note_on_c, 1, 48, 0
1, 24732, Note_on_c, 1, 60, 90
1, 24744, Note_on_c, 1, 60, 0
1, 24744, Note_on_c, 1, 59, 90
1, 24756, Note_on_c, 1, 59, 0
1, 24756, Note_on_c, 1, 60, 90
1, 24768, Note_on_c, 0, 71, 0
1, 24768, Note_on_c, 0, 65, 0
1, 24768, Note_on_c, 0, 62, 0
1, 24768, Note_on_c, 0, 72, 90
1, 24768, Note_on_c, 0, 67, 90
1, 24768, Note_on_c, 0, 64, 90
1, 24768, Note_on_c, 1, 60, 0
1, 24768, Note_on_c, 1, 48, 90
1, 24788, Note_on_c, 0, 72, 0
1, 24788, Note_on_c, 0, 67, 0
1, 24788, Note_on_c, 0, 64, 0
1, 24813, Note_on_c, 1, 48, 0
1, 24840, Note_on_c, 0, 60, 75
1, 24852, Note_on_c, 0, 60, 0
1, 24852, Note_on_c, 0, 64, 75
1, 24864, Note_on_c, 0, 64, 0
1, 24864, Note_on_c, 0, 67, 75
1, 24874, Note_on_c, 0, 67, 0
1, 24888, Note_on_c, 0, 64, 75
1, 24900, Note_on_c, 0, 64, 0
1, 24900, Note_on_c, 0, 67, 75
1, 24912, Note_on_c, 0, 67, 0
1, 24912, Note_on_c, 0, 70, 75
1, 24922, Note_on_c, 0, 70, 0
1, 24936, Note_on_c, 0, 67, 75
1, 24948, Note_on_c, 0, 67, 0
1, 24948, Note_on_c, 0, 70, 75
1, 24960, Note_on_c, 0, 70, 0
1, 24960, Note_on_c, 0, 76, 75
1, 24960, Note_on_c, 1, 48, 75
1, 24960, Note_on_c, 1, 36, 75
1, 24980, Note_on_c, 0, 76, 0
1, 24980, Note_on_c, 1, 48, 0
1, 24980, Note_on_c, 1, 36, 0
1, 25032, Note_on_c, 0, 86, 60
1, 25032, Note_on_c, 1, 58, 60
1, 25044, Note_on_c, 0, 86, 0
1, 25044, Note_on_c, 0, 82, 60
1, 25044, Note_on_c, 1, 58, 0
1, 25044, Note_on_c, 1, 60, 60
1, 25056, Note_on_c, 0, 82, 0
1, 25056, Note_on_c, 0, 79, 60
1, 25056, Note_on_c, 1, 60, 0
1, 25056, Note_on_c, 1, 64, 60
1, 25066, Note_on_c, 0, 79, 0
1, 25066, Note_on_c, 1, 64, 0
1, 25080, Note_on_c, 0, 82, 60
1, 25080, Note_on_c, 1, 60, 60
1, 25092, Note_on_c, 0, 82, 0
1, 25092, Note_on_c, 0, 79, 60
1, 25092, Note_on_c, 1, 60, 0
1, 25092, Note_on_c, 1, 64, 60
1, 25104, Note_on_c, 0, 79, 0
1, 25104, Note_on_c, 0, 76, 60
1, 25104, Note_on_c, 1, 64, 0
1, 25104, Note_on_c, 1, 67, 60
1, 25114, Note_on_c, 0, 76, 0
1, 25114, Note_on_c, 1, 67, 0
1, 25128, Note_on_c, 0, 79, 60
1, 25128, Note_on_c, 1, 64, 60
1, 25140, Note_on_c, 0, 79, 0
1, 25140, Note_on_c, 0, 76, 60
1, 25140, Note_on_c, 1, 64, 0
1, 25140, Note_on_c, 1, 67, 60
1, 25152, Note_on_c, 0, 76, 0
1, 25152, Note_on_c, 0, 72, 60
1, 25152, Note_on_c, 1, 67, 0
1, 25152, Note_on_c, 1, 70, 60
1, 25172, Note_on_c, 0, 72, 0
1, 25172, Note_on_c, 1, 70, 0
1, 25296, Note_on_c, 0, 72, 75
1, 25330, Note_on_c, 0, 72, 0
1, 25332, Note_on_c, 0, 69, 75
1, 25344, Note_on_c, 0, 69, 0
1, 25344, Note_on_c, 0, 65, 75
1, 25344, Note_on_c, 1, 57, 75
1, 25344, Note_on_c, 1, 53, 75
1, 25364, Note_on_c, 0, 65, 0
1, 25389, Note_on_c, 1, 57, 0
1, 25389, Note_on_c, 1, 53, 0
1, 25392, Note_on_c, 0, 69, 75
1, 25426, Note_on_c, 0, 69, 0
1, 25428, Note_on_c, 0, 65, 75
1, 25440, Note_on_c, 0, 65, 0
1, 25440, Note_on_c, 0, 64, 75
1, 25440, Note_on_c, 1, 58, 75
1, 25440, Note_on_c, 1, 48, 75
1, 25460, Note_on_c, 0, 64, 0
1, 25485, Note_on_c, 1, 58, 0
1, 25485, Note_on_c, 1, 48, 0
1, 25488, Note_on_c, 0, 67, 75
1, 25522, Note_on_c, 0, 67, 0
1, 25524, Note_on_c, 0, 64, 75
1, 25536, Note_on_c, 0, 64, 0
1, 25536, Note_on_c, 0, 65, 75
1, 25536, Note_on_c, 1, 57, 75
1, 25536, Note_on_c, 1, 53, 75
1, 25581, Note_on_c, 0, 65, 0
1, 25581, Note_on_c, 1, 57, 0
1, 25581, Note_on_c, 1, 53, 0
1, 25584, Note_on_c, 0, 74, 75
1, 25584, Note_on_c, 0, 70, 75
1, 25632, Note_on_c, 0, 74, 0
1, 25632, Note_on_c, 0, 70, 0
1, 25632, Note_on_c, 0, 72, 75
1, 25632, Note_on_c, 0, 69, 75
1, 25652, Note_on_c, 0, 72, 0
1, 25652, Note_on_c, 0, 69, 0
1, 25680, Note_on_c, 0, 79, 75
1, 25692, Note_on_c, 0, 79, 0
1, 25692, Note_on_c, 0, 77, 75
1, 25704, Note_on_c, 0, 77, 0
1, 25704, Note_on_c, 0, 76, 75
1, 25716, Note_on_c, 0, 76, 0
1, 25716, Note_on_c, 0, 74, 75
1, 25728, Note_on_c, 0, 74, 0
1, 25728, Note_on_c, 0, 72, 75
1, 25773, Note_on_c, 0, 72, 0
1, 25776, Note_on_c, 0, 81, 75
1, 25776, Note_on_c, 1, 65, 75
1, 25791, Note_on_c, 0, 81, 0
1, 25792, Note_on_c, 0, 69, 75
1, 25807, Note_on_c, 0, 69, 0
1, 25808, Note_on_c, 0, 74, 75
1, 25821, Note_on_c, 1, 65, 0
1, 25823, Note_on_c, 0, 74, 0
1, 25824, Note_on_c, 0, 72, 75
1, 25824, Note_on_c, 1, 67, 75
1, 25869, Note_on_c, 0, 72, 0
1, 25869, Note_on_c, 1, 67, 0
1, 25872, Note_on_c, 0, 70, 75
1, 25872, Note_on_c, 1, 60, 75
1, 25882, Note_on_c, 0, 70, 0
1, 25882, Note_on_c, 0, 72, 75
1, 25892, Note_on_c, 0, 72, 0
1, 25892, Note_on_c, 0, 70, 75
1, 25902, Note_on_c, 0, 70, 0
1, 25902, Note_on_c, 0, 69, 75
1, 25911, Note_on_c, 0, 69, 0
1, 25911, Note_on_c, 0, 70, 75
1, 25917, Note_on_c, 1, 60, 0
1, 25920, Note_on_c, 0, 70, 0
1, 25920, Note_on_c, 0, 70, 75
1, 25920, Note_on_c, 1, 65, 75
1, 25965, Note_on_c, 1, 65, 0
1, 25968, Note_on_c, 1, 60, 75
1, 26013, Note_on_c, 1, 60, 0
1, 26016, Note_on_c, 0, 70, 0
1, 26016, Note_on_c, 0, 69, 75
1, 26016, Note_on_c, 1, 53, 75
1, 26061, Note_on_c, 0, 69, 0
1, 26061, Note_on_c, 1, 53, 0
1, 26064, Note_on_c, 0, 72, 75
1, 26076, Note_on_c, 0, 72, 0
1, 26076, Note_on_c, 0, 69, 75
1, 26088, Note_on_c, 0, 69, 0
1, 26088, Note_on_c, 0, 72, 75
1, 26100, Note_on_c, 0, 72, 0
1, 26100, Note_on_c, 0, 69, 75
1, 26112, Note_on_c, 0, 69, 0
1, 26112, Note_on_c, 0, 65, 75
1, 26112, Note_on_c, 1, 57, 75
1, 26112, Note_on_c, 1, 53, 75
1, 26132, Note_on_c, 0, 65, 0
1, 26157, Note_on_c, 1, 57, 0
1, 26157, Note_on_c, 1, 53, 0
1, 26160, Note_on_c, 0, 70, 75
1, 26172, Note_on_c, 0, 70, 0
1, 26172, Note_on_c, 0, 69, 75
1, 26184, Note_on_c, 0, 69, 0
1, 26184, Note_on_c, 0, 67, 75
1, 26196, Note_on_c, 0, 67, 0
1, 26196, Note_on_c, 0, 65, 75
1, 26208, Note_on_c, 0, 65, 0
1, 26208, Note_on_c, 0, 64, 75
1, 26208, Note_on_c, 1, 58, 75
1, 26208, Note_on_c, 1, 48, 75
1, 26228, Note_on_c, 0, 64, 0
1, 26253, Note_on_c, 1, 58, 0
1, 26253, Note_on_c, 1, 48, 0
1, 26256, Note_on_c, 0, 69, 75
1, 26268, Note_on_c, 0, 69, 0
1, 26268, Note_on_c, 0, 67, 75
1, 26280, Note_on_c, 0, 67, 0
1, 26280, Note_on_c, 0, 65, 75
1, 26292, Note_on_c, 0, 65, 0
1, 26292, Note_on_c, 0, 64, 75
1, 26304, Note_on_c, 0, 64, 0
1, 26304, Note_on_c, 0, 65, 75
1, 26304, Note_on_c, 1, 57, 75
1, 26304, Note_on_c, 1, 53, 75
1, 26314, Note_on_c, 0, 65, 0
1, 26328, Note_on_c, 0, 74, 75
1, 26340, Note_on_c, 0, 74, 0
1, 26340, Note_on_c, 0, 76, 75
1, 26349, Note_on_c, 1, 57, 0
1, 26349, Note_on_c, 1, 53, 0
1, 26352, Note_on_c, 0, 76, 0
1, 26352, Note_on_c, 0, 79, 75
1, 26352, Note_on_c, 1, 70, 75
1, 26364, Note_on_c, 0, 79, 0
1, 26364, Note_on_c, 0, 77, 75
1, 26376, Note_on_c, 0, 77, 0
1, 26376, Note_on_c, 0, 76, 75
1, 26388, Note_on_c, 0, 76, 0
1, 26388, Note_on_c, 0, 74, 75
1, 26397, Note_on_c, 1, 70, 0
1, 26400, Note_on_c, 0, 74, 0
1, 26400, Note_on_c, 0, 72, 75
1, 26400, Note_on_c, 1, 69, 75
1, 26420, Note_on_c, 0, 72, 0
1, 26445, Note_on_c, 1, 69, 0
1, 26448, Note_on_c, 0, 84, 75
1, 26460, Note_on_c, 0, 84, 0
1, 26460, Note_on_c, 0, 81, 75
1, 26472, Note_on_c, 0, 81, 0
1, 26472, Note_on_c, 0, 77, 75
1, 26484, Note_on_c, 0, 77, 0
1, 26484, Note_on_c, 0, 72, 75
1, 26496, Note_on_c, 0, 72, 0
1, 26496, Note_on_c, 0, 69, 75
1, 26544, Note_on_c, 1, 65, 75
1, 26544, Note_on_c, 1, 60, 60
1, 26592, Note_on_c, 0, 69, 0
1, 26592, Note_on_c, 0, 70, 75
1, 26592, Note_on_c, 1, 65, 0
1, 26592, Note_on_c, 1, 67, 75
1, 26612, Note_on_c, 0, 70, 0
1, 26638, Note_on_c, 1, 60, 0
1, 26639, Note_on_c, 1, 67, 0
1, 26640, Note_on_c, 0, 82, 75
1, 26652, Note_on_c, 0, 82, 0
1, 26652, Note_on_c, 0, 79, 75
1, 26664, Note_on_c, 0, 79, 0
1, 26664, Note_on_c, 0, 76, 75
1, 26676, Note_on_c, 0, 76, 0
1, 26676, Note_on_c, 0, 72, 75
1, 26688, Note_on_c, 0, 72, 0
1, 26688, Note_on_c, 0, 70, 75
1, 26736, Note_on_c, 1, 64, 70
1, 26736, Note_on_c, 1, 60, 70
1, 26784, Note_on_c, 0, 70, 0
1, 26784, Note_on_c, 0, 69, 65
1, 26784, Note_on_c, 1, 64, 0
1, 26784, Note_on_c, 1, 60, 0
1, 26784, Note_on_c, 1, 65, 65
1, 26784, Note_on_c, 1, 62, 65
1, 26804, Note_on_c, 0, 69, 0
1, 26831, Note_on_c, 1, 65, 0
1, 26831, Note_on_c, 1, 62, 0
1, 26832, Note_on_c, 0, 77, 60
1, 26844, Note_on_c, 0, 77, 0
1, 26844, Note_on_c, 0, 72, 58
1, 26856, Note_on_c, 0, 72, 0
1, 26856, Note_on_c, 0, 69, 56
1, 26868, Note_on_c, 0, 69, 0
1, 26868, Note_on_c, 0, 65, 54
1, 26880, Note_on_c, 0, 65, 0
1, 26880, Note_on_c, 0, 63, 68
1, 26928, Note_on_c, 1, 57, 60
1, 26928, Note_on_c, 1, 53, 60
1, 26973, Note_on_c, 1, 57, 0
1, 26973, Note_on_c, 1, 53, 0
1, 26976, Note_on_c, 1, 58, 60
1, 26976, Note_on_c, 1, 55, 60
1, 27021, Note_on_c, 1, 58, 0
1, 27021, Note_on_c, 1, 55, 0
1, 27024, Note_on_c, 1, 60, 60
1, 27024, Note_on_c, 1, 57, 60
1, 27069, Note_on_c, 1, 60, 0
1, 27069, Note_on_c, 1, 57, 0
1, 27072, Note_on_c, 1, 58, 60
1, 27095, Note_on_c, 0, 63, 0
1, 27096, Note_on_c, 0, 61, 52
1, 27120, Note_on_c, 0, 61, 0
1, 27120, Note_on_c, 0, 62, 53
1, 27130, Note_on_c, 0, 62, 0
1, 27144, Note_on_c, 0, 66, 54
1, 27161, Note_on_c, 1, 58, 0
1, 27168, Note_on_c, 0, 66, 0
1, 27168, Note_on_c, 0, 67, 55
1, 27178, Note_on_c, 0, 67, 0
1, 27192, Note_on_c, 0, 69, 56
1, 27216, Note_on_c, 0, 69, 0
1, 27216, Note_on_c, 0, 70, 57
1, 27226, Note_on_c, 0, 70, 0
1, 27240, Note_on_c, 0, 74, 58
1, 27240, Note_on_c, 1, 46, 75
1, 27263, Note_on_c, 0, 74, 0
1, 27263, Note_on_c, 1, 46, 0
1, 27264, Note_on_c, 0, 69, 76
1, 27264, Note_on_c, 0, 65, 76
1, 27264, Note_on_c, 1, 48, 75
1, 27312, Note_on_c, 0, 69, 0
1, 27312, Note_on_c, 0, 65, 0
1, 27312, Note_on_c, 0, 67, 56
1, 27312, Note_on_c, 0, 64, 56
1, 27331, Note_on_c, 1, 48, 0
1, 27336, Note_on_c, 1, 55, 75
1, 27348, Note_on_c, 1, 55, 0
1, 27348, Note_on_c, 1, 52, 75
1, 27357, Note_on_c, 0, 67, 0
1, 27357, Note_on_c, 0, 64, 0
1, 27360, Note_on_c, 1, 52, 0
1, 27360, Note_on_c, 1, 48, 75
1, 27383, Note_on_c, 1, 48, 0
1, 27384, Note_on_c, 1, 62, 75
1, 27384, Note_on_c, 1, 58, 75
1, 27407, Note_on_c, 1, 62, 0
1, 27407, Note_on_c, 1, 58, 0
1, 27408, Note_on_c, 1, 60, 75
1, 27408, Note_on_c, 1, 57, 75
1, 27431, Note_on_c, 1, 60, 0
1, 27431, Note_on_c, 1, 57, 0
1, 27432, Note_on_c, 1, 58, 75
1, 27432, Note_on_c, 1, 55, 75
1, 27455, Note_on_c, 1, 58, 0
1, 27455, Note_on_c, 1, 55, 0
1, 27456, Note_on_c, 1, 57, 75
1, 27456, Note_on_c, 1, 53, 75
1, 27468, Note_on_c, 0, 72, 84
1, 27480, Note_on_c, 0, 72, 0
1, 27480, Note_on_c, 0, 74, 84
1, 27492, Note_on_c, 0, 74, 0
1, 27492, Note_on_c, 0, 72, 84
1, 27504, Note_on_c, 0, 72, 0
1, 27504, Note_on_c, 0, 77, 84
1, 27516, Note_on_c, 0, 77, 0
1, 27516, Note_on_c, 0, 76, 84
1, 27528, Note_on_c, 0, 76, 0
1, 27528, Note_on_c, 0, 74, 84
1, 27540, Note_on_c, 0, 74, 0
1, 27540, Note_on_c, 0, 72, 84
1, 27545, Note_on_c, 1, 57, 0
1, 27545, Note_on_c, 1, 53, 0
1, 27552, Note_on_c, 0, 72, 0
1, 27552, Note_on_c, 0, 70, 84
1, 27564, Note_on_c, 0, 70, 0
1, 27564, Note_on_c, 0, 69, 84
1, 27576, Note_on_c, 0, 69, 0
1, 27576, Note_on_c, 0, 67, 84
1, 27588, Note_on_c, 0, 67, 0
1, 27588, Note_on_c, 0, 65, 84
1, 27600, Note_on_c, 0, 65, 0
1, 27600, Note_on_c, 0, 64, 84
1, 27600, Note_on_c, 1, 57, 75
1, 27612, Note_on_c, 0, 64, 0
1, 27612, Note_on_c, 0, 65, 84
1, 27624, Note_on_c, 0, 65, 0
1, 27624, Note_on_c, 0, 67, 84
1, 27636, Note_on_c, 0, 67, 0
1, 27636, Note_on_c, 0, 65, 84
1, 27645, Note_on_c, 1, 57, 0
1, 27648, Note_on_c, 0, 65, 0
1, 27648, Note_on_c, 0, 62, 84
1, 27648, Note_on_c, 1, 58, 75
1, 27660, Note_on_c, 0, 62, 0
1, 27660, Note_on_c, 0, 65, 84
1, 27668, Note_on_c, 1, 58, 0
1, 27672, Note_on_c, 0, 65, 0
1, 27672, Note_on_c, 0, 67, 84
1, 27684, Note_on_c, 0, 67, 0
1, 27684, Note_on_c, 0, 65, 84
1, 27696, Note_on_c, 0, 65, 0
1, 27696, Note_on_c, 0, 60, 84
1, 27696, Note_on_c, 1, 57, 75
1, 27708, Note_on_c, 0, 60, 0
1, 27708, Note_on_c, 0, 65, 84
1, 27716, Note_on_c, 1, 57, 0
1, 27720, Note_on_c, 0, 65, 0
1, 27720, Note_on_c, 0, 67, 84
1, 27732, Note_on_c, 0, 67, 0
1, 27732, Note_on_c, 0, 65, 84
1, 27744, Note_on_c, 0, 65, 0
1, 27744, Note_on_c, 0, 58, 84
1, 27744, Note_on_c, 1, 55, 75
1, 27754, Note_on_c, 0, 58, 0
1, 27768, Note_on_c, 0, 70, 84
1, 27778, Note_on_c, 0, 70, 0
1, 27792, Note_on_c, 1, 55, 0
1, 27792, Note_on_c, 1, 48, 75
1, 27816, Note_on_c, 0, 70, 84
1, 27826, Note_on_c, 0, 70, 0
1, 27837, Note_on_c, 1, 48, 0
1, 27840, Note_on_c, 0, 69, 84
1, 27840, Note_on_c, 1, 53, 75
1, 27852, Note_on_c, 0, 69, 0
1, 27852, Note_on_c, 0, 72, 84
1, 27864, Note_on_c, 0, 72, 0
1, 27864, Note_on_c, 0, 74, 84
1, 27876, Note_on_c, 0, 74, 0
1, 27876, Note_on_c, 0, 72, 84
1, 27888, Note_on_c, 0, 72, 0
1, 27888, Note_on_c, 0, 77, 84
1, 27888, Note_on_c, 1, 53, 0
1, 27888, Note_on_c, 1, 57, 75
1, 27900, Note_on_c, 0, 77, 0
1, 27900, Note_on_c, 0, 76, 84
1, 27912, Note_on_c, 0, 76, 0
1, 27912, Note_on_c, 0, 74, 84
1, 27924, Note_on_c, 0, 74, 0
1, 27924, Note_on_c, 0, 72, 84
1, 27933, Note_on_c, 1, 57, 0
1, 27936, Note_on_c, 0, 72, 0
1, 27936, Note_on_c, 0, 70, 84
1, 27948, Note_on_c, 0, 70, 0
1, 27948, Note_on_c, 0, 69, 84
1, 27960, Note_on_c, 0, 69, 0
1, 27960, Note_on_c, 0, 67, 84
1, 27972, Note_on_c, 0, 67, 0
1, 27972, Note_on_c, 0, 65, 84
1, 27984, Note_on_c, 0, 65, 0
1, 27984, Note_on_c, 0, 64, 84
1, 27984, Note_on_c, 1, 57, 75
1, 27996, Note_on_c, 0, 64, 0
1, 27996, Note_on_c, 0, 65, 84
1, 28008, Note_on_c, 0, 65, 0
1, 28008, Note_on_c, 0, 67, 84
1, 28020, Note_on_c, 0, 67, 0
1, 28020, Note_on_c, 0, 65, 84
1, 28029, Note_on_c, 1, 57, 0
1, 28032, Note_on_c, 0, 65, 0
1, 28032, Note_on_c, 0, 62, 84
1, 28032, Note_on_c, 1, 58, 75
1, 28044, Note_on_c, 0, 62, 0
1, 28044, Note_on_c, 0, 65, 84
1, 28052, Note_on_c, 1, 58, 0
1, 28056, Note_on_c, 0, 65, 0
1, 28056, Note_on_c, 0, 67, 84
1, 28068, Note_on_c, 0, 67, 0
1, 28068, Note_on_c, 0, 65, 84
1, 28080, Note_on_c, 0, 65, 0
1, 28080, Note_on_c, 0, 60, 84
1, 28080, Note_on_c, 1, 57, 75
1, 28092, Note_on_c, 0, 60, 0
1, 28092, Note_on_c, 0, 65, 84
1, 28100, Note_on_c, 1, 57, 0
1, 28104, Note_on_c, 0, 65, 0
1, 28104, Note_on_c, 0, 67, 84
1, 28116, Note_on_c, 0, 67, 0
1, 28116, Note_on_c, 0, 65, 84
1, 28128, Note_on_c, 0, 65, 0
1, 28128, Note_on_c, 0, 58, 84
1, 28128, Note_on_c, 1, 55, 75
1, 28138, Note_on_c, 0, 58, 0
1, 28152, Note_on_c, 0, 70, 84
1, 28162, Note_on_c, 0, 70, 0
1, 28176, Note_on_c, 1, 55, 0
1, 28176, Note_on_c, 1, 48, 75
1, 28200, Note_on_c, 0, 70, 84
1, 28210, Note_on_c, 0, 70, 0
1, 28221, Note_on_c, 1, 48, 0
1, 28224, Note_on_c, 0, 69, 84
1, 28224, Note_on_c, 1, 53, 75
1, 28236, Note_on_c, 0, 69, 0
1, 28236, Note_on_c, 0, 74, 84
1, 28248, Note_on_c, 0, 74, 0
1, 28248, Note_on_c, 0, 76, 84
1, 28260, Note_on_c, 0, 76, 0
1, 28260, Note_on_c, 0, 74, 84
1, 28269, Note_on_c, 1, 53, 0
1, 28272, Note_on_c, 0, 74, 0
1, 28272, Note_on_c, 0, 81, 84
1, 28272, Note_on_c, 1, 65, 75
1, 28284, Note_on_c, 0, 81, 0
1, 28284, Note_on_c, 0, 77, 84
1, 28296, Note_on_c, 0, 77, 0
1, 28296, Note_on_c, 0, 76, 84
1, 28308, Note_on_c, 0, 76, 0
1, 28308, Note_on_c, 0, 74, 84
1, 28317, Note_on_c, 1, 65, 0
1, 28320, Note_on_c, 0, 74, 0
1, 28320, Note_on_c, 0, 79, 84
1, 28320, Note_on_c, 1, 64, 75
1, 28332, Note_on_c, 0, 79, 0
1, 28332, Note_on_c, 0, 76, 84
1, 28344, Note_on_c, 0, 76, 0
1, 28344, Note_on_c, 0, 74, 84
1, 28356, Note_on_c, 0, 74, 0
1, 28356, Note_on_c, 0, 72, 84
1, 28365, Note_on_c, 1, 64, 0
1, 28368, Note_on_c, 0, 72, 0
1, 28368, Note_on_c, 0, 71, 84
1, 28368, Note_on_c, 1, 52, 75
1, 28380, Note_on_c, 0, 71, 0
1, 28380, Note_on_c, 0, 72, 84
1, 28392, Note_on_c, 0, 72, 0
1, 28392, Note_on_c, 0, 71, 84
1, 28404, Note_on_c, 0, 71, 0
1, 28404, Note_on_c, 0, 72, 84
1, 28413, Note_on_c, 1, 52, 0
1, 28416, Note_on_c, 0, 72, 0
1, 28416, Note_on_c, 0, 65, 84
1, 28416, Note_on_c, 1, 50, 75
1, 28428, Note_on_c, 0, 65, 0
1, 28428, Note_on_c, 0, 70, 84
1, 28440, Note_on_c, 0, 70, 0
1, 28440, Note_on_c, 0, 72, 84
1, 28452, Note_on_c, 0, 72, 0
1, 28452, Note_on_c, 0, 70, 84
1, 28461, Note_on_c, 1, 50, 0
1, 28464, Note_on_c, 0, 70, 0
1, 28464, Note_on_c, 0, 77, 84
1, 28464, Note_on_c, 1, 62, 75
1, 28476, Note_on_c, 0, 77, 0
1, 28476, Note_on_c, 0, 74, 84
1, 28488, Note_on_c, 0, 74, 0
1, 28488, Note_on_c, 0, 72, 84
1, 28500, Note_on_c, 0, 72, 0
1, 28500, Note_on_c, 0, 70, 84
1, 28509, Note_on_c, 1, 62, 0
1, 28512, Note_on_c, 0, 70, 0
1, 28512, Note_on_c, 0, 76, 84
1, 28512, Note_on_c, 1, 60, 75
1, 28524, Note_on_c, 0, 76, 0
1, 28524, Note_on_c, 0, 72, 84
1, 28536, Note_on_c, 0, 72, 0
1, 28536, Note_on_c, 0, 70, 84
1, 28548, Note_on_c, 0, 70, 0
1, 28548, Note_on_c, 0, 69, 84
1, 28557, Note_on_c, 1, 60, 0
1, 28560, Note_on_c, 0, 69, 0
1, 28560, Note_on_c, 0, 68, 84
1, 28560, Note_on_c, 1, 48, 75
1, 28572, Note_on_c, 0, 68, 0
1, 28572, Note_on_c, 0, 69, 84
1, 28584, Note_on_c, 0, 69, 0
1, 28584, Note_on_c, 0, 68, 84
1, 28596, Note_on_c, 0, 68, 0
1, 28596, Note_on_c, 0, 69, 84
1, 28605, Note_on_c, 1, 48, 0
1, 28608, Note_on_c, 0, 69, 0
1, 28608, Note_on_c, 0, 62, 84
1, 28608, Note_on_c, 1, 46, 75
1, 28620, Note_on_c, 0, 62, 0
1, 28620, Note_on_c, 0, 67, 84
1, 28632, Note_on_c, 0, 67, 0
1, 28632, Note_on_c, 0, 69, 84
1, 28644, Note_on_c, 0, 69, 0
1, 28644, Note_on_c, 0, 67, 84
1, 28653, Note_on_c, 1, 46, 0
1, 28656, Note_on_c, 0, 67, 0
1, 28656, Note_on_c, 0, 74, 84
1, 28656, Note_on_c, 1, 58, 75
1, 28668, Note_on_c, 0, 74, 0
1, 28668, Note_on_c, 0, 70, 84
1, 28680, Note_on_c, 0, 70, 0
1, 28680, Note_on_c, 0, 69, 84
1, 28692, Note_on_c, 0, 69, 0
1, 28692, Note_on_c, 0, 67, 84
1, 28701, Note_on_c, 1, 58, 0
1, 28704, Note_on_c, 0, 67, 0
1, 28704, Note_on_c, 0, 72, 84
1, 28704, Note_on_c, 1, 57, 75
1, 28716, Note_on_c, 0, 72, 0
1, 28716, Note_on_c, 0, 69, 84
1, 28728, Note_on_c, 0, 69, 0
1, 28728, Note_on_c, 0, 67, 84
1, 28740, Note_on_c, 0, 67, 0
1, 28740, Note_on_c, 0, 65, 84
1, 28749, Note_on_c, 1, 57, 0
1, 28752, Note_on_c, 0, 65, 0
1, 28752, Note_on_c, 0, 64, 84
1, 28752, Note_on_c, 1, 45, 75
1, 28764, Note_on_c, 0, 64, 0
1, 28764, Note_on_c, 0, 65, 84
1, 28776, Note_on_c, 0, 65, 0
1, 28776, Note_on_c, 0, 64, 84
1, 28788, Note_on_c, 0, 64, 0
1, 28788, Note_on_c, 0, 65, 84
1, 28797, Note_on_c, 1, 45, 0
1, 28800, Note_on_c, 0, 65, 0
1, 28800, Note_on_c, 0, 55, 75
1, 28812, Note_on_c, 0, 55, 0
1, 28812, Note_on_c, 0, 59, 75
1, 28824, Note_on_c, 0, 59, 0
1, 28824, Note_on_c, 0, 62, 75
1, 28836, Note_on_c, 0, 62, 0
1, 28836, Note_on_c, 0, 65, 75
1, 28848, Note_on_c, 0, 65, 0
1, 28848, Note_on_c, 0, 71, 75
1, 28860, Note_on_c, 0, 71, 0
1, 28860, Note_on_c, 0, 65, 75
1, 28872, Note_on_c, 0, 65, 0
1, 28872, Note_on_c, 0, 62, 75
1, 28884, Note_on_c, 0, 62, 0
1, 28884, Note_on_c, 0, 59, 75
1, 28896, Note_on_c, 0, 59, 0
1, 28896, Note_on_c, 0, 55, 75
1, 28908, Note_on_c, 0, 55, 0
1, 28908, Note_on_c, 0, 59, 75
1, 28920, Note_on_c, 0, 59, 0
1, 28920, Note_on_c, 0, 62, 75
1, 28932, Note_on_c, 0, 62, 0
1, 28932, Note_on_c, 0, 65, 75
1, 28944, Note_on_c, 0, 65, 0
1, 28944, Note_on_c, 0, 71, 75
1, 28956, Note_on_c, 0, 71, 0
1, 28956, Note_on_c, 0, 65, 75
1, 28968, Note_on_c, 0, 65, 0
1, 28968, Note_on_c, 0, 62, 75
1, 28980, Note_on_c, 0, 62, 0
1, 28980, Note_on_c, 0, 55, 75
1, 28992, Note_on_c, 0, 55, 0
1, 28992, Note_on_c, 1, 60, 75
1, 29014, Note_on_c, 1, 60, 0
1, 29014, Note_on_c, 1, 62, 73
1, 29024, Note_on_c, 1, 62, 0
1, 29024, Note_on_c, 1, 60, 73
1, 29034, Note_on_c, 1, 60, 0
1, 29034, Note_on_c, 1, 62, 72
1, 29044, Note_on_c, 1, 62, 0
1, 29044, Note_on_c, 1, 60, 72
1, 29054, Note_on_c, 1, 60, 0
1, 29054, Note_on_c, 1, 62, 71
1, 29064, Note_on_c, 1, 62, 0
1, 29064, Note_on_c, 1, 60, 70
1, 29074, Note_on_c, 1, 60, 0
1, 29074, Note_on_c, 1, 62, 70
1, 29084, Note_on_c, 1, 62, 0
1, 29084, Note_on_c, 1, 60, 69
1, 29094, Note_on_c, 1, 60, 0
1, 29094, Note_on_c, 1, 62, 69
1, 29104, Note_on_c, 1, 62, 0
1, 29104, Note_on_c, 1, 60, 68
1, 29114, Note_on_c, 1, 60, 0
1, 29114, Note_on_c, 1, 62, 67
1, 29124, Note_on_c, 1, 62, 0
1, 29124, Note_on_c, 1, 60, 67
1, 29134, Note_on_c, 1, 60, 0
1, 29134, Note_on_c, 1, 62, 66
1, 29136, Note_on_c, 0, 70, 84
1, 29144, Note_on_c, 1, 62, 0
1, 29144, Note_on_c, 1, 60, 60
1, 29148, Note_on_c, 0, 70, 0
1, 29148, Note_on_c, 0, 67, 84
1, 29154, Note_on_c, 1, 60, 0
1, 29154, Note_on_c, 1, 62, 60
1, 29160, Note_on_c, 0, 67, 0
1, 29160, Note_on_c, 0, 70, 84
1, 29164, Note_on_c, 1, 62, 0
1, 29164, Note_on_c, 1, 60, 60
1, 29172, Note_on_c, 0, 70, 0
1, 29172, Note_on_c, 0, 67, 84
1, 29174, Note_on_c, 1, 60, 0
1, 29174, Note_on_c, 1, 62, 60
1, 29184, Note_on_c, 0, 67, 0
1, 29184, Note_on_c, 0, 64, 84
1, 29184, Note_on_c, 1, 62, 0
1, 29184, Note_on_c, 1, 60, 60
1, 29195, Note_on_c, 1, 60, 0
1, 29195, Note_on_c, 1, 62, 60
1, 29206, Note_on_c, 1, 62, 0
1, 29206, Note_on_c, 1, 60, 60
1, 29216, Note_on_c, 1, 60, 0
1, 29216, Note_on_c, 1, 62, 60
1, 29226, Note_on_c, 1, 62, 0
1, 29226, Note_on_c, 1, 60, 60
1, 29229, Note_on_c, 0, 64, 0
1, 29232, Note_on_c, 0, 76, 84
1, 29232, Note_on_c, 0, 70, 84
1, 29236, Note_on_c, 1, 60, 0
1, 29236, Note_on_c, 1, 62, 60
1, 29246, Note_on_c, 1, 62, 0
1, 29246, Note_on_c, 1, 60, 60
1, 29252, Note_on_c, 0, 76, 0
1, 29252, Note_on_c, 0, 70, 0
1, 29256, Note_on_c, 1, 60, 0
1, 29256, Note_on_c, 1, 62, 60
1, 29266, Note_on_c, 1, 62, 0
1, 29266, Note_on_c, 1, 60, 60
1, 29276, Note_on_c, 1, 60, 0
1, 29276, Note_on_c, 1, 62, 60
1, 29280, Note_on_c, 0, 79, 84
1, 29280, Note_on_c, 0, 76, 84
1, 29286, Note_on_c, 1, 62, 0
1, 29286, Note_on_c, 1, 60, 60
1, 29296, Note_on_c, 1, 60, 0
1, 29296, Note_on_c, 1, 62, 60
1, 29300, Note_on_c, 0, 79, 0
1, 29300, Note_on_c, 0, 76, 0
1, 29306, Note_on_c, 1, 62, 0
1, 29306, Note_on_c, 1, 60, 60
1, 29316, Note_on_c, 1, 60, 0
1, 29316, Note_on_c, 1, 62, 60
1, 29326, Note_on_c, 1, 62, 0
1, 29326, Note_on_c, 1, 60, 60
1, 29328, Note_on_c, 0, 82, 84
1, 29328, Note_on_c, 0, 79, 84
1, 29336, Note_on_c, 1, 60, 0
1, 29336, Note_on_c, 1, 62, 60
1, 29346, Note_on_c, 1, 62, 0
1, 29346, Note_on_c, 1, 60, 60
1, 29348, Note_on_c, 0, 82, 0
1, 29348, Note_on_c, 0, 79, 0
1, 29356, Note_on_c, 1, 60, 0
1, 29356, Note_on_c, 1, 62, 60
1, 29366, Note_on_c, 1, 62, 0
1, 29366, Note_on_c, 1, 60, 60
1, 29376, Note_on_c, 0, 81, 84
1, 29376, Note_on_c, 0, 77, 84
1, 29376, Note_on_c, 1, 60, 0
1, 29376, Note_on_c, 1, 62, 60
1, 29387, Note_on_c, 1, 62, 0
1, 29387, Note_on_c, 1, 60, 60
1, 29398, Note_on_c, 1, 60, 0
1, 29398, Note_on_c, 1, 62, 60
1, 29408, Note_on_c, 1, 62, 0
1, 29408, Note_on_c, 1, 60, 60
1, 29415, Note_on_c, 0, 81, 0
1, 29415, Note_on_c, 0, 77, 0
1, 29418, Note_on_c, 1, 60, 0
1, 29418, Note_on_c, 1, 62, 60
1, 29428, Note_on_c, 1, 62, 0
1, 29428, Note_on_c, 1, 60, 60
1, 29438, Note_on_c, 1, 60, 0
1, 29438, Note_on_c, 1, 62, 60
1, 29448, Note_on_c, 1, 62, 0
1, 29448, Note_on_c, 1, 60, 60
1, 29458, Note_on_c, 1, 60, 0
1, 29458, Note_on_c, 1, 62, 60
1, 29468, Note_on_c, 1, 62, 0
1, 29468, Note_on_c, 1, 60, 60
1, 29478, Note_on_c, 1, 60, 0
1, 29478, Note_on_c, 1, 62, 60
1, 29488, Note_on_c, 1, 62, 0
1, 29488, Note_on_c, 1, 60, 60
1, 29498, Note_on_c, 1, 60, 0
1, 29498, Note_on_c, 1, 62, 60
1, 29508, Note_on_c, 1, 62, 0
1, 29508, Note_on_c, 1, 60, 60
1, 29518, Note_on_c, 1, 60, 0
1, 29518, Note_on_c, 1, 62, 60
1, 29520, Note_on_c, 0, 72, 84
1, 29528, Note_on_c, 1, 62, 0
1, 29528, Note_on_c, 1, 60, 60
1, 29532, Note_on_c, 0, 72, 0
1, 29532, Note_on_c, 0, 69, 84
1, 29538, Note_on_c, 1, 60, 0
1, 29538, Note_on_c, 1, 62, 60
1, 29544, Note_on_c, 0, 69, 0
1, 29544, Note_on_c, 0, 72, 84
1, 29548, Note_on_c, 1, 62, 0
1, 29548, Note_on_c, 1, 60, 60
1, 29556, Note_on_c, 0, 72, 0
1, 29556, Note_on_c, 0, 69, 84
1, 29558, Note_on_c, 1, 60, 0
1, 29558, Note_on_c, 1, 62, 60
1, 29568, Note_on_c, 0, 69, 0
1, 29568, Note_on_c, 0, 65, 84
1, 29568, Note_on_c, 1, 62, 0
1, 29568, Note_on_c, 1, 60, 60
1, 29579, Note_on_c, 1, 60, 0
1, 29579, Note_on_c, 1, 62, 60
1, 29590, Note_on_c, 1, 62, 0
1, 29590, Note_on_c, 1, 60, 60
1, 29600, Note_on_c, 1, 60, 0
1, 29600, Note_on_c, 1, 62, 60
1, 29610, Note_on_c, 1, 62, 0
1, 29610, Note_on_c, 1, 60, 60
1, 29613, Note_on_c, 0, 65, 0
1, 29616, Note_on_c, 0, 77, 84
1, 29616, Note_on_c, 0, 69, 84
1, 29620, Note_on_c, 1, 60, 0
1, 29620, Note_on_c, 1, 62, 60
1, 29630, Note_on_c, 1, 62, 0
1, 29630, Note_on_c, 1, 60, 60
1, 29636, Note_on_c, 0, 77, 0
1, 29636, Note_on_c, 0, 69, 0
1, 29640, Note_on_c, 1, 60, 0
1, 29640, Note_on_c, 1, 62, 60
1, 29650, Note_on_c, 1, 62, 0
1, 29650, Note_on_c, 1, 60, 60
1, 29660, Note_on_c, 1, 60, 0
1, 29660, Note_on_c, 1, 62, 60
1, 29664, Note_on_c, 0, 81, 84
1, 29664, Note_on_c, 0, 77, 84
1, 29670, Note_on_c, 1, 62, 0
1, 29670, Note_on_c, 1, 60, 60
1, 29680, Note_on_c, 1, 60, 0
1, 29680, Note_on_c, 1, 62, 60
1, 29684, Note_on_c, 0, 81, 0
1, 29684, Note_on_c, 0, 77, 0
1, 29690, Note_on_c, 1, 62, 0
1, 29690, Note_on_c, 1, 60, 60
1, 29700, Note_on_c, 1, 60, 0
1, 29700, Note_on_c, 1, 62, 60
1, 29710, Note_on_c, 1, 62, 0
1, 29710, Note_on_c, 1, 60, 60
1, 29712, Note_on_c, 0, 84, 84
1, 29712, Note_on_c, 0, 81, 84
1, 29720, Note_on_c, 1, 60, 0
1, 29720, Note_on_c, 1, 62, 60
1, 29730, Note_on_c, 1, 62, 0
1, 29730, Note_on_c, 1, 60, 60
1, 29732, Note_on_c, 0, 84, 0
1, 29732, Note_on_c, 0, 81, 0
1, 29740, Note_on_c, 1, 60, 0
1, 29740, Note_on_c, 1, 62, 60
1, 29750, Note_on_c, 1, 62, 0
1, 29750, Note_on_c, 1, 60, 60
1, 29760, Note_on_c, 0, 82, 84
1, 29760, Note_on_c, 0, 79, 84
1, 29760, Note_on_c, 1, 60, 0
1, 29760, Note_on_c, 1, 62, 60
1, 29771, Note_on_c, 1, 62, 0
1, 29771, Note_on_c, 1, 60, 60
1, 29782, Note_on_c, 1, 60, 0
1, 29782, Note_on_c, 1, 62, 60
1, 29792, Note_on_c, 1, 62, 0
1, 29792, Note_on_c, 1, 60, 60
1, 29799, Note_on_c, 0, 82, 0
1, 29799, Note_on_c, 0, 79, 0
1, 29802, Note_on_c, 1, 60, 0
1, 29802, Note_on_c, 1, 62, 60
1, 29812, Note_on_c, 1, 62, 0
1, 29812, Note_on_c, 1, 60, 60
1, 29822, Note_on_c, 1, 60, 0
1, 29822, Note_on_c, 1, 62, 60
1, 29832, Note_on_c, 1, 62, 0
1, 29832, Note_on_c, 1, 60, 60
1, 29842, Note_on_c, 1, 60, 0
1, 29842, Note_on_c, 1, 62, 60
1, 29852, Note_on_c, 1, 62, 0
1, 29852, Note_on_c, 1, 60, 60
1, 29862, Note_on_c, 1, 60, 0
1, 29862, Note_on_c, 1, 62, 60
1, 29872, Note_on_c, 1, 62, 0
1, 29872, Note_on_c, 1, 60, 60
1, 29882, Note_on_c, 1, 60, 0
1, 29882, Note_on_c, 1, 62, 60
1, 29892, Note_on_c, 1, 62, 0
1, 29892, Note_on_c, 1, 60, 60
1, 29902, Note_on_c, 1, 60, 0
1, 29902, Note_on_c, 1, 62, 60
1, 29904, Note_on_c, 0, 70, 84
1, 29912, Note_on_c, 1, 62, 0
1, 29912, Note_on_c, 1, 60, 60
1, 29916, Note_on_c, 0, 70, 0
1, 29916, Note_on_c, 0, 67, 84
1, 29922, Note_on_c, 1, 60, 0
1, 29922, Note_on_c, 1, 62, 60
1, 29928, Note_on_c, 0, 67, 0
1, 29928, Note_on_c, 0, 70, 84
1, 29932, Note_on_c, 1, 62, 0
1, 29932, Note_on_c, 1, 60, 60
1, 29940, Note_on_c, 0, 70, 0
1, 29940, Note_on_c, 0, 67, 84
1, 29942, Note_on_c, 1, 60, 0
1, 29942, Note_on_c, 1, 62, 60
1, 29952, Note_on_c, 0, 67, 0
1, 29952, Note_on_c, 0, 64, 84
1, 29952, Note_on_c, 1, 62, 0
1, 29952, Note_on_c, 1, 60, 60
1, 29963, Note_on_c, 1, 60, 0
1, 29963, Note_on_c, 1, 62, 60
1, 29974, Note_on_c, 1, 62, 0
1, 29974, Note_on_c, 1, 60, 60
1, 29984, Note_on_c, 1, 60, 0
1, 29984, Note_on_c, 1, 62, 60
1, 29994, Note_on_c, 1, 62, 0
1, 29994, Note_on_c, 1, 60, 60
1, 29997, Note_on_c, 0, 64, 0
1, 30000, Note_on_c, 0, 76, 84
1, 30000, Note_on_c, 0, 70, 84
1, 30004, Note_on_c, 1, 60, 0
1, 30004, Note_on_c, 1, 62, 60
1, 30014, Note_on_c, 1, 62, 0
1, 30014, Note_on_c, 1, 60, 60
1, 30020, Note_on_c, 0, 76, 0
1, 30020, Note_on_c, 0, 70, 0
1, 30024, Note_on_c, 1, 60, 0
1, 30024, Note_on_c, 1, 62, 60
1, 30034, Note_on_c, 1, 62, 0
1, 30034, Note_on_c, 1, 60, 60
1, 30044, Note_on_c, 1, 60, 0
1, 30044, Note_on_c, 1, 62, 60
1, 30048, Note_on_c, 0, 79, 84
1, 30048, Note_on_c, 0, 76, 84
1, 30054, Note_on_c, 1, 62, 0
1, 30054, Note_on_c, 1, 60, 60
1, 30064, Note_on_c, 1, 60, 0
1, 30064, Note_on_c, 1, 62, 60
1, 30068, Note_on_c, 0, 79, 0
1, 30068, Note_on_c, 0, 76, 0
1, 30074, Note_on_c, 1, 62, 0
1, 30074, Note_on_c, 1, 60, 60
1, 30084, Note_on_c, 1, 60, 0
1, 30084, Note_on_c, 1, 62, 60
1, 30094, Note_on_c, 1, 62, 0
1, 30094, Note_on_c, 1, 60, 60
1, 30096, Note_on_c, 0, 82, 84
1, 30096, Note_on_c, 0, 79, 84
1, 30104, Note_on_c, 1, 60, 0
1, 30104, Note_on_c, 1, 62, 60
1, 30114, Note_on_c, 1, 62, 0
1, 30114, Note_on_c, 1, 60, 60
1, 30116, Note_on_c, 0, 82, 0
1, 30116, Note_on_c, 0, 79, 0
1, 30124, Note_on_c, 1, 60, 0
1, 30124, Note_on_c, 1, 58, 60
1, 30134, Note_on_c, 1, 58, 0
1, 30134, Note_on_c, 1, 60, 60
1, 30144, Note_on_c, 0, 81, 84
1, 30144, Note_on_c, 1, 60, 0
1, 30144, Note_on_c, 1, 65, 75
1, 30156, Note_on_c, 0, 81, 0
1, 30156, Note_on_c, 0, 82, 84
1, 30168, Note_on_c, 0, 82, 0
1, 30168, Note_on_c, 0, 84, 84
1, 30180, Note_on_c, 0, 84, 0
1, 30180, Note_on_c, 0, 82, 84
1, 30189, Note_on_c, 1, 65, 0
1, 30192, Note_on_c, 0, 82, 0
1, 30192, Note_on_c, 0, 81, 84
1, 30192, Note_on_c, 1, 67, 75
1, 30204, Note_on_c, 0, 81, 0
1, 30204, Note_on_c, 0, 79, 84
1, 30216, Note_on_c, 0, 79, 0
1, 30216, Note_on_c, 0, 77, 84
1, 30228, Note_on_c, 0, 77, 0
1, 30228, Note_on_c, 0, 76, 84
1, 30237, Note_on_c, 1, 67, 0
1, 30240, Note_on_c, 0, 76, 0
1, 30240, Note_on_c, 0, 77, 84
1, 30240, Note_on_c, 1, 69, 75
1, 30252, Note_on_c, 0, 77, 0
1, 30252, Note_on_c, 0, 79, 84
1, 30264, Note_on_c, 0, 79, 0
1, 30264, Note_on_c, 0, 81, 84
1, 30276, Note_on_c, 0, 81, 0
1, 30276, Note_on_c, 0, 79, 84
1, 30285, Note_on_c, 1, 69, 0
1, 30288, Note_on_c, 0, 79, 0
1, 30288, Note_on_c, 0, 77, 84
1, 30288, Note_on_c, 1, 57, 75
1, 30300, Note_on_c, 0, 77, 0
1, 30300, Note_on_c, 0, 76, 84
1, 30312, Note_on_c, 0, 76, 0
1, 30312, Note_on_c, 0, 74, 84
1, 30324, Note_on_c, 0, 74, 0
1, 30324, Note_on_c, 0, 73, 84
1, 30333, Note_on_c, 1, 57, 0
1, 30336, Note_on_c, 0, 73, 0
1, 30336, Note_on_c, 0, 74, 84
1, 30336, Note_on_c, 1, 58, 75
1, 30348, Note_on_c, 0, 74, 0
1, 30348, Note_on_c, 0, 76, 84
1, 30360, Note_on_c, 0, 76, 0
1, 30360, Note_on_c, 0, 77, 84
1, 30372, Note_on_c, 0, 77, 0
1, 30372, Note_on_c, 0, 76, 84
1, 30381, Note_on_c, 1, 58, 0
1, 30384, Note_on_c, 0, 76, 0
1, 30384, Note_on_c, 0, 74, 84
1, 30384, Note_on_c, 1, 60, 75
1, 30396, Note_on_c, 0, 74, 0
1, 30396, Note_on_c, 0, 72, 84
1, 30408, Note_on_c, 0, 72, 0
1, 30408, Note_on_c, 0, 70, 84
1, 30420, Note_on_c, 0, 70, 0
1, 30420, Note_on_c, 0, 69, 84
1, 30429, Note_on_c, 1, 60, 0
1, 30432, Note_on_c, 0, 69, 0
1, 30432, Note_on_c, 0, 70, 84
1, 30432, Note_on_c, 1, 62, 75
1, 30444, Note_on_c, 0, 70, 0
1, 30444, Note_on_c, 0, 72, 84
1, 30456, Note_on_c, 0, 72, 0
1, 30456, Note_on_c, 0, 74, 84
1, 30468, Note_on_c, 0, 74, 0
1, 30468, Note_on_c, 0, 72, 84
1, 30477, Note_on_c, 1, 62, 0
1, 30480, Note_on_c, 0, 72, 0
1, 30480, Note_on_c, 0, 70, 84
1, 30492, Note_on_c, 0, 70, 0
1, 30492, Note_on_c, 0, 69, 84
1, 30504, Note_on_c, 0, 69, 0
1, 30504, Note_on_c, 0, 67, 84
1, 30504, Note_on_c, 1, 45, 84
1, 30516, Note_on_c, 0, 67, 0
1, 30516, Note_on_c, 0, 66, 84
1, 30527, Note_on_c, 1, 45, 0
1, 30528, Note_on_c, 0, 66, 0
1, 30528, Note_on_c, 0, 67, 84
1, 30528, Note_on_c, 1, 46, 84
1, 30540, Note_on_c, 0, 67, 0
1, 30540, Note_on_c, 0, 70, 84
1, 30552, Note_on_c, 0, 70, 0
1, 30552, Note_on_c, 0, 74, 84
1, 30564, Note_on_c, 0, 74, 0
1, 30564, Note_on_c, 0, 72, 84
1, 30576, Note_on_c, 0, 72, 0
1, 30576, Note_on_c, 0, 70, 84
1, 30588, Note_on_c, 0, 70, 0
1, 30588, Note_on_c, 0, 69, 84
1, 30595, Note_on_c, 1, 46, 0
1, 30600, Note_on_c, 0, 69, 0
1, 30600, Note_on_c, 0, 67, 84
1, 30600, Note_on_c, 1, 47, 84
1, 30612, Note_on_c, 0, 67, 0
1, 30612, Note_on_c, 0, 65, 84
1, 30623, Note_on_c, 1, 47, 0
1, 30624, Note_on_c, 0, 65, 0
1, 30624, Note_on_c, 0, 64, 84
1, 30624, Note_on_c, 1, 48, 84
1, 30636, Note_on_c, 0, 64, 0
1, 30636, Note_on_c, 0, 65, 84
1, 30648, Note_on_c, 0, 65, 0
1, 30648, Note_on_c, 0, 67, 84
1, 30660, Note_on_c, 0, 67, 0
1, 30660, Note_on_c, 0, 65, 84
1, 30669, Note_on_c, 1, 48, 0
1, 30672, Note_on_c, 0, 65, 0
1, 30672, Note_on_c, 0, 64, 84
1, 30672, Note_on_c, 1, 52, 84
1, 30684, Note_on_c, 0, 64, 0
1, 30684, Note_on_c, 0, 62, 84
1, 30696, Note_on_c, 0, 62, 0
1, 30696, Note_on_c, 0, 60, 84
1, 30708, Note_on_c, 0, 60, 0
1, 30708, Note_on_c, 0, 58, 84
1, 30717, Note_on_c, 1, 52, 0
1, 30720, Note_on_c, 0, 58, 0
1, 30720, Note_on_c, 0, 57, 84
1, 30720, Note_on_c, 1, 53, 84
1, 30720, Note_on_c, 1, 41, 84
1, 30732, Note_on_c, 0, 57, 0
1, 30732, Note_on_c, 0, 65, 84
1, 30744, Note_on_c, 0, 65, 0
1, 30744, Note_on_c, 0, 64, 84
1, 30756, Note_on_c, 0, 64, 0
1, 30756, Note_on_c, 0, 65, 84
1, 30768, Note_on_c, 0, 65, 0
1, 30768, Note_on_c, 0, 69, 84
1, 30780, Note_on_c, 0, 69, 0
1, 30780, Note_on_c, 0, 65, 84
1, 30792, Note_on_c, 0, 65, 0
1, 30792, Note_on_c, 0, 64, 84
1, 30804, Note_on_c, 0, 64, 0
1, 30804, Note_on_c, 0, 65, 84
1, 30809, Note_on_c, 1, 53, 0
1, 30809, Note_on_c, 1, 41, 0
1, 30816, Note_on_c, 0, 65, 0
1, 30816, Note_on_c, 0, 60, 84
1, 30816, Note_on_c, 1, 57, 84
1, 30828, Note_on_c, 0, 60, 0
1, 30828, Note_on_c, 0, 65, 84
1, 30836, Note_on_c, 1, 57, 0
1, 30840, Note_on_c, 0, 65, 0
1, 30840, Note_on_c, 0, 64, 84
1, 30852, Note_on_c, 0, 64, 0
1, 30852, Note_on_c, 0, 65, 84
1, 30864, Note_on_c, 0, 65, 0
1, 30864, Note_on_c, 0, 62, 84
1, 30864, Note_on_c, 1, 58, 84
1, 30876, Note_on_c, 0, 62, 0
1, 30876, Note_on_c, 0, 65, 84
1, 30884, Note_on_c, 1, 58, 0
1, 30888, Note_on_c, 0, 65, 0
1, 30888, Note_on_c, 0, 64, 84
1, 30900, Note_on_c, 0, 64, 0
1, 30900, Note_on_c, 0, 65, 84
1, 30912, Note_on_c, 0, 65, 0
1, 30912, Note_on_c, 0, 60, 84
1, 30912, Note_on_c, 1, 57, 84
1, 30924, Note_on_c, 0, 60, 0
1, 30924, Note_on_c, 0, 65, 84
1, 30936, Note_on_c, 0, 65, 0
1, 30936, Note_on_c, 0, 64, 84
1, 30948, Note_on_c, 0, 64, 0
1, 30948, Note_on_c, 0, 65, 84
1, 30957, Note_on_c, 1, 57, 0
1, 30960, Note_on_c, 0, 65, 0
1, 30960, Note_on_c, 0, 69, 84
1, 30972, Note_on_c, 0, 69, 0
1, 30972, Note_on_c, 0, 65, 84
1, 30984, Note_on_c, 0, 65, 0
1, 30984, Note_on_c, 0, 64, 84
1, 30996, Note_on_c, 0, 64, 0
1, 30996, Note_on_c, 0, 65, 84
1, 31008, Note_on_c, 0, 65, 0
1, 31008, Note_on_c, 0, 72, 84
1, 31008, Note_on_c, 1, 57, 68
1, 31020, Note_on_c, 0, 72, 0
1, 31020, Note_on_c, 0, 65, 84
1, 31028, Note_on_c, 1, 57, 0
1, 31032, Note_on_c, 0, 65, 0
1, 31032, Note_on_c, 0, 64, 84
1, 31044, Note_on_c, 0, 64, 0
1, 31044, Note_on_c, 0, 65, 84
1, 31056, Note_on_c, 0, 65, 0
1, 31056, Note_on_c, 0, 74, 84
1, 31056, Note_on_c, 1, 58, 68
1, 31068, Note_on_c, 0, 74, 0
1, 31068, Note_on_c, 0, 65, 84
1, 31076, Note_on_c, 1, 58, 0
1, 31080, Note_on_c, 0, 65, 0
1, 31080, Note_on_c, 0, 64, 84
1, 31092, Note_on_c, 0, 64, 0
1, 31092, Note_on_c, 0, 65, 84
1, 31104, Note_on_c, 0, 65, 0
1, 31104, Note_on_c, 0, 72, 84
1, 31104, Note_on_c, 1, 57, 68
1, 31116, Note_on_c, 0, 72, 0
1, 31116, Note_on_c, 0, 65, 84
1, 31128, Note_on_c, 0, 65, 0
1, 31128, Note_on_c, 0, 64, 84
1, 31140, Note_on_c, 0, 64, 0
1, 31140, Note_on_c, 0, 65, 84
1, 31149, Note_on_c, 1, 57, 0
1, 31152, Note_on_c, 0, 65, 0
1, 31152, Note_on_c, 0, 69, 84
1, 31164, Note_on_c, 0, 69, 0
1, 31164, Note_on_c, 0, 65, 84
1, 31176, Note_on_c, 0, 65, 0
1, 31176, Note_on_c, 0, 64, 84
1, 31188, Note_on_c, 0, 64, 0
1, 31188, Note_on_c, 0, 65, 84
1, 31200, Note_on_c, 0, 65, 0
1, 31200, Note_on_c, 0, 60, 84
1, 31200, Note_on_c, 1, 57, 75
1, 31212, Note_on_c, 0, 60, 0
1, 31212, Note_on_c, 0, 65, 84
1, 31220, Note_on_c, 1, 57, 0
1, 31224, Note_on_c, 0, 65, 0
1, 31224, Note_on_c, 0, 64, 84
1, 31236, Note_on_c, 0, 64, 0
1, 31236, Note_on_c, 0, 65, 84
1, 31248, Note_on_c, 0, 65, 0
1, 31248, Note_on_c, 0, 62, 84
1, 31248, Note_on_c, 1, 58, 75
1, 31260, Note_on_c, 0, 62, 0
1, 31260, Note_on_c, 0, 65, 84
1, 31268, Note_on_c, 1, 58, 0
1, 31272, Note_on_c, 0, 65, 0
1, 31272, Note_on_c, 0, 64, 84
1, 31284, Note_on_c, 0, 64, 0
1, 31284, Note_on_c, 0, 65, 84
1, 31296, Note_on_c, 0, 65, 0
1, 31296, Note_on_c, 0, 60, 84
1, 31296, Note_on_c, 1, 57, 75
1, 31308, Note_on_c, 0, 60, 0
1, 31308, Note_on_c, 0, 65, 84
1, 31320, Note_on_c, 0, 65, 0
1, 31320, Note_on_c, 0, 64, 84
1, 31332, Note_on_c, 0, 64, 0
1, 31332, Note_on_c, 0, 65, 84
1, 31341, Note_on_c, 1, 57, 0
1, 31344, Note_on_c, 0, 65, 0
1, 31344, Note_on_c, 0, 69, 84
1, 31356, Note_on_c, 0, 69, 0
1, 31356, Note_on_c, 0, 65, 84
1, 31368, Note_on_c, 0, 65, 0
1, 31368, Note_on_c, 0, 64, 84
1, 31380, Note_on_c, 0, 64, 0
1, 31380, Note_on_c, 0, 65, 84
1, 31392, Note_on_c, 0, 65, 0
1, 31392, Note_on_c, 0, 72, 84
1, 31392, Note_on_c, 1, 57, 68
1, 31404, Note_on_c, 0, 72, 0
1, 31404, Note_on_c, 0, 65, 84
1, 31412, Note_on_c, 1, 57, 0
1, 31416, Note_on_c, 0, 65, 0
1, 31416, Note_on_c, 0, 64, 84
1, 31428, Note_on_c, 0, 64, 0
1, 31428, Note_on_c, 0, 65, 84
1, 31440, Note_on_c, 0, 65, 0
1, 31440, Note_on_c, 0, 74, 84
1, 31440, Note_on_c, 1, 58, 68
1, 31452, Note_on_c, 0, 74, 0
1, 31452, Note_on_c, 0, 65, 84
1, 31460, Note_on_c, 1, 58, 0
1, 31464, Note_on_c, 0, 65, 0
1, 31464, Note_on_c, 0, 64, 84
1, 31476, Note_on_c, 0, 64, 0
1, 31476, Note_on_c, 0, 65, 84
1, 31488, Note_on_c, 0, 65, 0
1, 31488, Note_on_c, 0, 72, 84
1, 31488, Note_on_c, 1, 57, 68
1, 31500, Note_on_c, 0, 72, 0
1, 31500, Note_on_c, 0, 65, 84
1, 31508, Note_on_c, 1, 57, 0
1, 31512, Note_on_c, 0, 65, 0
1, 31512, Note_on_c, 0, 64, 84
1, 31524, Note_on_c, 0, 64, 0
1, 31524, Note_on_c, 0, 65, 84
1, 31536, Note_on_c, 0, 65, 0
1, 31536, Note_on_c, 0, 74, 84
1, 31536, Note_on_c, 1, 58, 68
1, 31548, Note_on_c, 0, 74, 0
1, 31548, Note_on_c, 0, 65, 84
1, 31556, Note_on_c, 1, 58, 0
1, 31560, Note_on_c, 0, 65, 0
1, 31560, Note_on_c, 0, 64, 84
1, 31572, Note_on_c, 0, 64, 0
1, 31572, Note_on_c, 0, 65, 84
1, 31584, Note_on_c, 0, 65, 0
1, 31584, Note_on_c, 0, 72, 84
1, 31584, Note_on_c, 1, 57, 68
1, 31596, Note_on_c, 0, 72, 0
1, 31596, Note_on_c, 0, 65, 84
1, 31604, Note_on_c, 1, 57, 0
1, 31608, Note_on_c, 0, 65, 0
1, 31608, Note_on_c, 0, 64, 84
1, 31620, Note_on_c, 0, 64, 0
1, 31620, Note_on_c, 0, 65, 84
1, 31632, Note_on_c, 0, 65, 0
1, 31632, Note_on_c, 0, 74, 84
1, 31632, Note_on_c, 1, 58, 68
1, 31644, Note_on_c, 0, 74, 0
1, 31644, Note_on_c, 0, 65, 84
1, 31652, Note_on_c, 1, 58, 0
1, 31656, Note_on_c, 0, 65, 0
1, 31656, Note_on_c, 0, 64, 84
1, 31668, Note_on_c, 0, 64, 0
1, 31668, Note_on_c, 0, 65, 84
1, 31680, Note_on_c, 0, 65, 0
1, 31680, Note_on_c, 0, 72, 84
1, 31680, Note_on_c, 1, 57, 75
1, 31692, Note_on_c, 0, 72, 0
1, 31692, Note_on_c, 0, 65, 84
1, 31704, Note_on_c, 0, 65, 0
1, 31704, Note_on_c, 0, 64, 84
1, 31716, Note_on_c, 0, 64, 0
1, 31716, Note_on_c, 0, 65, 84
1, 31728, Note_on_c, 0, 65, 0
1, 31728, Note_on_c, 0, 72, 84
1, 31740, Note_on_c, 0, 72, 0
1, 31740, Note_on_c, 0, 65, 84
1, 31752, Note_on_c, 0, 65, 0
1, 31752, Note_on_c, 0, 64, 84
1, 31764, Note_on_c, 0, 64, 0
1, 31764, Note_on_c, 0, 65, 84
1, 31774, Note_on_c, 1, 57, 0
1, 31776, Note_on_c, 0, 65, 0
1, 31776, Note_on_c, 0, 72, 84
1, 31776, Note_on_c, 1, 60, 75
1, 31776, Note_on_c, 1, 56, 75
1, 31788, Note_on_c, 0, 72, 0
1, 31788, Note_on_c, 0, 65, 84
1, 31800, Note_on_c, 0, 65, 0
1, 31800, Note_on_c, 0, 64, 84
1, 31812, Note_on_c, 0, 64, 0
1, 31812, Note_on_c, 0, 65, 84
1, 31824, Note_on_c, 0, 65, 0
1, 31824, Note_on_c, 0, 72, 84
1, 31836, Note_on_c, 0, 72, 0
1, 31836, Note_on_c, 0, 65, 84
1, 31848, Note_on_c, 0, 65, 0
1, 31848, Note_on_c, 0, 64, 84
1, 31860, Note_on_c, 0, 64, 0
1, 31860, Note_on_c, 0, 65, 84
1, 31870, Note_on_c, 1, 60, 0
1, 31870, Note_on_c, 1, 56, 0
1, 31872, Note_on_c, 0, 65, 0
1, 31872, Note_on_c, 0, 71, 84
1, 31872, Note_on_c, 1, 62, 75
1, 31872, Note_on_c, 1, 55, 75
1, 31884, Note_on_c, 0, 71, 0
1, 31884, Note_on_c, 0, 65, 84
1, 31896, Note_on_c, 0, 65, 0
1, 31896, Note_on_c, 0, 64, 84
1, 31908, Note_on_c, 0, 64, 0
1, 31908, Note_on_c, 0, 65, 84
1, 31920, Note_on_c, 0, 65, 0
1, 31920, Note_on_c, 0, 71, 84
1, 31932, Note_on_c, 0, 71, 0
1, 31932, Note_on_c, 0, 65, 84
1, 31944, Note_on_c, 0, 65, 0
1, 31944, Note_on_c, 0, 64, 84
1, 31956, Note_on_c, 0, 64, 0
1, 31956, Note_on_c, 0, 65, 84
1, 31966, Note_on_c, 1, 62, 0
1, 31966, Note_on_c, 1, 55, 0
1, 31968, Note_on_c, 0, 65, 0
1, 31968, Note_on_c, 0, 70, 84
1, 31968, Note_on_c, 1, 60, 75
1, 31968, Note_on_c, 1, 52, 75
1, 31980, Note_on_c, 0, 70, 0
1, 31980, Note_on_c, 0, 67, 84
1, 31992, Note_on_c, 0, 67, 0
1, 31992, Note_on_c, 0, 66, 84
1, 32004, Note_on_c, 0, 66, 0
1, 32004, Note_on_c, 0, 67, 84
1, 32016, Note_on_c, 0, 67, 0
1, 32016, Note_on_c, 0, 70, 84
1, 32028, Note_on_c, 0, 70, 0
1, 32028, Note_on_c, 0, 67, 84
1, 32040, Note_on_c, 0, 67, 0
1, 32040, Note_on_c, 0, 66, 84
1, 32052, Note_on_c, 0, 66, 0
1, 32052, Note_on_c, 0, 67, 84
1, 32062, Note_on_c, 1, 60, 0
1, 32062, Note_on_c, 1, 52, 0
1, 32064, Note_on_c, 0, 67, 0
1, 32064, Note_on_c, 0, 69, 84
1, 32064, Note_on_c, 1, 60, 75
1, 32064, Note_on_c, 1, 53, 75
1, 32087, Note_on_c, 0, 69, 0
1, 32088, Note_on_c, 0, 77, 84
1, 32111, Note_on_c, 0, 77, 0
1, 32112, Note_on_c, 0, 79, 84
1, 32124, Note_on_c, 0, 79, 0
1, 32124, Note_on_c, 0, 77, 84
1, 32136, Note_on_c, 0, 77, 0
1, 32136, Note_on_c, 0, 76, 84
1, 32148, Note_on_c, 0, 76, 0
1, 32148, Note_on_c, 0, 74, 84
1, 32158, Note_on_c, 1, 60, 0
1, 32158, Note_on_c, 1, 53, 0
1, 32160, Note_on_c, 0, 74, 0
1, 32160, Note_on_c, 0, 74, 84
1, 32172, Note_on_c, 0, 74, 0
1, 32172, Note_on_c, 0, 72, 84
1, 32184, Note_on_c, 0, 72, 0
1, 32184, Note_on_c, 0, 70, 84
1, 32196, Note_on_c, 0, 70, 0
1, 32196, Note_on_c, 0, 69, 84
1, 32208, Note_on_c, 0, 69, 0
1, 32208, Note_on_c, 0, 69, 84
1, 32208, Note_on_c, 1, 53, 75
1, 32208, Note_on_c, 1, 45, 75
1, 32220, Note_on_c, 0, 69, 0
1, 32220, Note_on_c, 0, 67, 84
1, 32232, Note_on_c, 0, 67, 0
1, 32232, Note_on_c, 0, 65, 84
1, 32244, Note_on_c, 0, 65, 0
1, 32244, Note_on_c, 0, 64, 84
1, 32256, Note_on_c, 0, 64, 0
1, 32256, Note_on_c, 0, 62, 84
1, 32256, Note_on_c, 1, 45, 0
1, 32256, Note_on_c, 1, 46, 60
1, 32279, Note_on_c, 0, 62, 0
1, 32280, Note_on_c, 0, 73, 87
1, 32292, Note_on_c, 0, 73, 0
1, 32292, Note_on_c, 0, 74, 88
1, 32301, Note_on_c, 1, 53, 0
1, 32304, Note_on_c, 0, 74, 0
1, 32304, Note_on_c, 0, 72, 90
1, 32304, Note_on_c, 1, 58, 75
1, 32316, Note_on_c, 0, 72, 0
1, 32316, Note_on_c, 0, 70, 88
1, 32328, Note_on_c, 0, 70, 0
1, 32328, Note_on_c, 0, 69, 87
1, 32340, Note_on_c, 0, 69, 0
1, 32340, Note_on_c, 0, 67, 85
1, 32345, Note_on_c, 1, 46, 0
1, 32349, Note_on_c, 1, 58, 0
1, 32352, Note_on_c, 0, 67, 0
1, 32352, Note_on_c, 0, 65, 84
1, 32352, Note_on_c, 1, 57, 75
1, 32352, Note_on_c, 1, 48, 60
1, 32397, Note_on_c, 0, 65, 0
1, 32397, Note_on_c, 1, 57, 0
1, 32400, Note_on_c, 0, 64, 84
1, 32400, Note_on_c, 1, 55, 75
1, 32410, Note_on_c, 0, 64, 0
1, 32410, Note_on_c, 0, 65, 84
1, 32420, Note_on_c, 0, 65, 0
1, 32420, Note_on_c, 0, 64, 84
1, 32430, Note_on_c, 0, 64, 0
1, 32430, Note_on_c, 0, 62, 84
1, 32439, Note_on_c, 0, 62, 0
1, 32439, Note_on_c, 0, 64, 84
1, 32441, Note_on_c, 1, 48, 0
1, 32445, Note_on_c, 1, 55, 0
1, 32448, Note_on_c, 0, 64, 0
1, 32448, Note_on_c, 0, 65, 84
1, 32448, Note_on_c, 1, 57, 75
1, 32448, Note_on_c, 1, 53, 75
1, 32460, Note_on_c, 0, 65, 0
1, 32460, Note_on_c, 0, 77, 84
1, 32472, Note_on_c, 0, 77, 0
1, 32472, Note_on_c, 0, 76, 84
1, 32484, Note_on_c, 0, 76, 0
1, 32484, Note_on_c, 0, 77, 84
1, 32496, Note_on_c, 0, 77, 0
1, 32496, Note_on_c, 0, 79, 84
1, 32508, Note_on_c, 0, 79, 0
1, 32508, Note_on_c, 0, 77, 84
1, 32520, Note_on_c, 0, 77, 0
1, 32520, Note_on_c, 0, 76, 84
1, 32532, Note_on_c, 0, 76, 0
1, 32532, Note_on_c, 0, 74, 84
1, 32537, Note_on_c, 1, 57, 0
1, 32537, Note_on_c, 1, 53, 0
1, 32544, Note_on_c, 0, 74, 0
1, 32544, Note_on_c, 0, 74, 84
1, 32556, Note_on_c, 0, 74, 0
1, 32556, Note_on_c, 0, 72, 84
1, 32568, Note_on_c, 0, 72, 0
1, 32568, Note_on_c, 0, 70, 84
1, 32580, Note_on_c, 0, 70, 0
1, 32580, Note_on_c, 0, 69, 84
1, 32592, Note_on_c, 0, 69, 0
1, 32592, Note_on_c, 0, 69, 84
1, 32592, Note_on_c, 1, 53, 75
1, 32592, Note_on_c, 1, 45, 75
1, 32604, Note_on_c, 0, 69, 0
1, 32604, Note_on_c, 0, 67, 84
1, 32616, Note_on_c, 0, 67, 0
1, 32616, Note_on_c, 0, 65, 84
1, 32628, Note_on_c, 0, 65, 0
1, 32628, Note_on_c, 0, 64, 84
1, 32640, Note_on_c, 0, 64, 0
1, 32640, Note_on_c, 0, 62, 84
1, 32640, Note_on_c, 1, 45, 0
1, 32640, Note_on_c, 1, 46, 60
1, 32663, Note_on_c, 0, 62, 0
1, 32664, Note_on_c, 0, 73, 87
1, 32676, Note_on_c, 0, 73, 0
1, 32676, Note_on_c, 0, 74, 88
1, 32685, Note_on_c, 1, 53, 0
1, 32688, Note_on_c, 0, 74, 0
1, 32688, Note_on_c, 0, 72, 90
1, 32688, Note_on_c, 1, 58, 75
1, 32700, Note_on_c, 0, 72, 0
1, 32700, Note_on_c, 0, 70, 88
1, 32712, Note_on_c, 0, 70, 0
1, 32712, Note_on_c, 0, 69, 87
1, 32724, Note_on_c, 0, 69, 0
1, 32724, Note_on_c, 0, 67, 85
1, 32729, Note_on_c, 1, 46, 0
1, 32733, Note_on_c, 1, 58, 0
1, 32736, Note_on_c, 0, 67, 0
1, 32736, Note_on_c, 0, 65, 84
1, 32736, Note_on_c, 1, 57, 75
1, 32736, Note_on_c, 1, 48, 60
1, 32781, Note_on_c, 0, 65, 0
1, 32781, Note_on_c, 1, 57, 0
1, 32784, Note_on_c, 0, 64, 84
1, 32784, Note_on_c, 1, 55, 75
1, 32794, Note_on_c, 0, 64, 0
1, 32794, Note_on_c, 0, 65, 84
1, 32804, Note_on_c, 0, 65, 0
1, 32804, Note_on_c, 0, 64, 84
1, 32814, Note_on_c, 0, 64, 0
1, 32814, Note_on_c, 0, 62, 84
1, 32823, Note_on_c, 0, 62, 0
1, 32823, Note_on_c, 0, 64, 84
1, 32825, Note_on_c, 1, 48, 0
1, 32829, Note_on_c, 1, 55, 0
1, 32832, Note_on_c, 0, 64, 0
1, 32832, Note_on_c, 0, 65, 84
1, 32832, Note_on_c, 1, 41, 75
1, 32844, Note_on_c, 1, 41, 0
1, 32844, Note_on_c, 1, 53, 75
1, 32852, Note_on_c, 0, 65, 0
1, 32856, Note_on_c, 1, 53, 0
1, 32856, Note_on_c, 1, 52, 75
1, 32868, Note_on_c, 1, 52, 0
1, 32868, Note_on_c, 1, 53, 75
1, 32880, Note_on_c, 0, 62, 84
1, 32880, Note_on_c, 0, 58, 84
1, 32880, Note_on_c, 1, 53, 0
1, 32880, Note_on_c, 1, 41, 75
1, 32892, Note_on_c, 1, 41, 0
1, 32892, Note_on_c, 1, 53, 75
1, 32900, Note_on_c, 0, 62, 0
1, 32900, Note_on_c, 0, 58, 0
1, 32904, Note_on_c, 1, 53, 0
1, 32904, Note_on_c, 1, 52, 75
1, 32916, Note_on_c, 1, 52, 0
1, 32916, Note_on_c, 1, 53, 75
1, 32928, Note_on_c, 0, 60, 84
1, 32928, Note_on_c, 0, 57, 84
1, 32928, Note_on_c, 1, 53, 0
1, 32928, Note_on_c, 1, 41, 75
1, 32940, Note_on_c, 1, 41, 0
1, 32940, Note_on_c, 1, 53, 75
1, 32948, Note_on_c, 0, 60, 0
1, 32948, Note_on_c, 0, 57, 0
1, 32952, Note_on_c, 1, 53, 0
1, 32952, Note_on_c, 1, 52, 75
1, 32964, Note_on_c, 1, 52, 0
1, 32964, Note_on_c, 1, 53, 75
1, 32976, Note_on_c, 0, 64, 84
1, 32976, Note_on_c, 0, 58, 84
1, 32976, Note_on_c, 0, 55, 84
1, 32976, Note_on_c, 1, 53, 0
1, 32976, Note_on_c, 1, 41, 75
1, 32988, Note_on_c, 1, 41, 0
1, 32988, Note_on_c, 1, 53, 75
1, 32996, Note_on_c, 0, 64, 0
1, 32996, Note_on_c, 0, 58, 0
1, 32996, Note_on_c, 0, 55, 0
1, 33000, Note_on_c, 1, 53, 0
1, 33000, Note_on_c, 1, 52, 75
1, 33012, Note_on_c, 1, 52, 0
1, 33012, Note_on_c, 1, 53, 75
1, 33024, Note_on_c, 0, 65, 84
1, 33024, Note_on_c, 0, 60, 84
1, 33024, Note_on_c, 0, 57, 84
1, 33024, Note_on_c, 1, 53, 0
1, 33024, Note_on_c, 1, 41, 75
1, 33036, Note_on_c, 1, 41, 0
1, 33036, Note_on_c, 1, 53, 75
1, 33044, Note_on_c, 0, 65, 0
1, 33044, Note_on_c, 0, 60, 0
1, 33044, Note_on_c, 0, 57, 0
1, 33048, Note_on_c, 1, 53, 0
1, 33048, Note_on_c, 1, 52, 75
1, 33060, Note_on_c, 1, 52, 0
1, 33060, Note_on_c, 1, 53, 75
1, 33072, Note_on_c, 0, 74, 84
1, 33072, Note_on_c, 0, 70, 84
1, 33072, Note_on_c, 1, 53, 0
1, 33072, Note_on_c, 1, 41, 75
1, 33084, Note_on_c, 1, 41, 0
1, 33084, Note_on_c, 1, 53, 75
1, 33092, Note_on_c, 0, 74, 0
1, 33092, Note_on_c, 0, 70, 0
1, 33096, Note_on_c, 1, 53, 0
1, 33096, Note_on_c, 1, 52, 75
1, 33108, Note_on_c, 1, 52, 0
1, 33108, Note_on_c, 1, 53, 75
1, 33120, Note_on_c, 0, 72, 84
1, 33120, Note_on_c, 0, 69, 84
1, 33120, Note_on_c, 1, 53, 0
1, 33120, Note_on_c, 1, 41, 75
1, 33132, Note_on_c, 1, 41, 0
1, 33132, Note_on_c, 1, 53, 75
1, 33140, Note_on_c, 0, 72, 0
1, 33140, Note_on_c, 0, 69, 0
1, 33144, Note_on_c, 1, 53, 0
1, 33144, Note_on_c, 1, 52, 75
1, 33156, Note_on_c, 1, 52, 0
1, 33156, Note_on_c, 1, 53, 75
1, 33168, Note_on_c, 0, 76, 84
1, 33168, Note_on_c, 0, 70, 84
1, 33168, Note_on_c, 0, 67, 84
1, 33168, Note_on_c, 1, 53, 0
1, 33168, Note_on_c, 1, 41, 75
1, 33180, Note_on_c, 1, 41, 0
1, 33180, Note_on_c, 1, 53, 75
1, 33188, Note_on_c, 0, 76, 0
1, 33188, Note_on_c, 0, 70, 0
1, 33188, Note_on_c, 0, 67, 0
1, 33192, Note_on_c, 1, 53, 0
1, 33192, Note_on_c, 1, 52, 75
1, 33204, Note_on_c, 1, 52, 0
1, 33204, Note_on_c, 1, 53, 75
1, 33216, Note_on_c, 0, 77, 84
1, 33216, Note_on_c, 0, 72, 84
1, 33216, Note_on_c, 0, 69, 84
1, 33216, Note_on_c, 1, 53, 0
1, 33216, Note_on_c, 1, 41, 75
1, 33305, Note_on_c, 0, 77, 0
1, 33305, Note_on_c, 0, 72, 0
1, 33305, Note_on_c, 0, 69, 0
1, 33305, Note_on_c, 1, 41, 0
1, 33360, Note_on_c, 0, 67, 75
1, 33394, Note_on_c, 0, 67, 0
1, 33396, Note_on_c, 0, 64, 75
1, 33408, Note_on_c, 0, 64, 0
1, 33408, Note_on_c, 0, 60, 75
1, 33408, Note_on_c, 1, 52, 75
1, 33408, Note_on_c, 1, 48, 75
1, 33428, Note_on_c, 0, 60, 0
1, 33453, Note_on_c, 1, 52, 0
1, 33453, Note_on_c, 1, 48, 0
1, 33456, Note_on_c, 0, 64, 75
1, 33490, Note_on_c, 0, 64, 0
1, 33492, Note_on_c, 0, 60, 75
1, 33504, Note_on_c, 0, 60, 0
1, 33504, Note_on_c, 0, 59, 75
1, 33504, Note_on_c, 1, 53, 75
1, 33504, Note_on_c, 1, 43, 75
1, 33524, Note_on_c, 0, 59, 0
1, 33549, Note_on_c, 1, 53, 0
1, 33549, Note_on_c, 1, 43, 0
1, 33552, Note_on_c, 0, 62, 75
1, 33586, Note_on_c, 0, 62, 0
1, 33588, Note_on_c, 0, 59, 75
1, 33600, Note_on_c, 0, 59, 0
1, 33600, Note_on_c, 0, 60, 75
1, 33600, Note_on_c, 1, 52, 75
1, 33600, Note_on_c, 1, 48, 75
1, 33645, Note_on_c, 0, 60, 0
1, 33645, Note_on_c, 1, 52, 0
1, 33645, Note_on_c, 1, 48, 0
1, 33648, Note_on_c, 0, 69, 75
1, 33648, Note_on_c, 0, 65, 75
1, 33696, Note_on_c, 0, 69, 0
1, 33696, Note_on_c, 0, 65, 0
1, 33696, Note_on_c, 0, 67, 75
1, 33696, Note_on_c, 0, 64, 75
1, 33716, Note_on_c, 0, 67, 0
1, 33716, Note_on_c, 0, 64, 0
1, 33744, Note_on_c, 0, 74, 75
1, 33756, Note_on_c, 0, 74, 0
1, 33756, Note_on_c, 0, 72, 75
1, 33768, Note_on_c, 0, 72, 0
1, 33768, Note_on_c, 0, 71, 75
1, 33780, Note_on_c, 0, 71, 0
1, 33780, Note_on_c, 0, 69, 75
1, 33792, Note_on_c, 0, 69, 0
1, 33792, Note_on_c, 0, 67, 75
1, 33837, Note_on_c, 0, 67, 0
1, 33840, Note_on_c, 0, 76, 75
1, 33840, Note_on_c, 1, 60, 75
1, 33855, Note_on_c, 0, 76, 0
1, 33856, Note_on_c, 0, 64, 75
1, 33871, Note_on_c, 0, 64, 0
1, 33872, Note_on_c, 0, 69, 75
1, 33885, Note_on_c, 1, 60, 0
1, 33887, Note_on_c, 0, 69, 0
1, 33888, Note_on_c, 0, 67, 75
1, 33888, Note_on_c, 1, 62, 75
1, 33933, Note_on_c, 0, 67, 0
1, 33933, Note_on_c, 1, 62, 0
1, 33936, Note_on_c, 0, 65, 75
1, 33936, Note_on_c, 1, 55, 75
1, 33946, Note_on_c, 0, 65, 0
1, 33946, Note_on_c, 0, 67, 75
1, 33956, Note_on_c, 0, 67, 0
1, 33956, Note_on_c, 0, 65, 75
1, 33966, Note_on_c, 0, 65, 0
1, 33966, Note_on_c, 0, 64, 75
1, 33975, Note_on_c, 0, 64, 0
1, 33975, Note_on_c, 0, 65, 75
1, 33981, Note_on_c, 1, 55, 0
1, 33984, Note_on_c, 0, 65, 0
1, 33984, Note_on_c, 0, 65, 75
1, 33984, Note_on_c, 1, 60, 75
1, 34029, Note_on_c, 1, 60, 0
1, 34032, Note_on_c, 1, 55, 75
1, 34077, Note_on_c, 1, 55, 0
1, 34080, Note_on_c, 0, 65, 0
1, 34080, Note_on_c, 0, 64, 75
1, 34080, Note_on_c, 1, 48, 75
1, 34100, Note_on_c, 0, 64, 0
1, 34125, Note_on_c, 1, 48, 0
1, 34128, Note_on_c, 0, 67, 75
1, 34140, Note_on_c, 0, 67, 0
1, 34140, Note_on_c, 0, 64, 75
1, 34152, Note_on_c, 0, 64, 0
1, 34152, Note_on_c, 0, 67, 75
1, 34164, Note_on_c, 0, 67, 0
1, 34164, Note_on_c, 0, 64, 75
1, 34176, Note_on_c, 0, 64, 0
1, 34176, Note_on_c, 0, 60, 75
1, 34221, Note_on_c, 0, 60, 0
1, 34224, Note_on_c, 0, 79, 75
1, 34224, Note_on_c, 1, 58, 75
1, 34236, Note_on_c, 1, 58, 0
1, 34236, Note_on_c, 1, 55, 75
1, 34248, Note_on_c, 1, 55, 0
1, 34248, Note_on_c, 1, 58, 75
1, 34260, Note_on_c, 1, 58, 0
1, 34260, Note_on_c, 1, 55, 75
1, 34269, Note_on_c, 0, 79, 0
1, 34272, Note_on_c, 1, 55, 0
1, 34272, Note_on_c, 1, 52, 75
1, 34317, Note_on_c, 1, 52, 0
1, 34320, Note_on_c, 0, 77, 75
1, 34320, Note_on_c, 1, 70, 75
1, 34332, Note_on_c, 0, 77, 0
1, 34332, Note_on_c, 0, 76, 75
1, 34344, Note_on_c, 0, 76, 0
1, 34344, Note_on_c, 0, 74, 75
1, 34356, Note_on_c, 0, 74, 0
1, 34356, Note_on_c, 0, 72, 75
1, 34365, Note_on_c, 1, 70, 0
1, 34368, Note_on_c, 0, 72, 0
1, 34368, Note_on_c, 0, 77, 75
1, 34368, Note_on_c, 1, 69, 75
1, 34413, Note_on_c, 0, 77, 0
1, 34413, Note_on_c, 1, 69, 0
1, 34416, Note_on_c, 1, 48, 75
1, 34428, Note_on_c, 1, 48, 0
1, 34428, Note_on_c, 1, 45, 75
1, 34440, Note_on_c, 1, 45, 0
1, 34440, Note_on_c, 1, 48, 75
1, 34452, Note_on_c, 1, 48, 0
1, 34452, Note_on_c, 1, 45, 75
1, 34464, Note_on_c, 1, 45, 0
1, 34464, Note_on_c, 1, 41, 75
1, 34509, Note_on_c, 1, 41, 0
1, 34512, Note_on_c, 0, 72, 75
1, 34524, Note_on_c, 0, 72, 0
1, 34524, Note_on_c, 0, 69, 75
1, 34536, Note_on_c, 0, 69, 0
1, 34536, Note_on_c, 0, 72, 75
1, 34548, Note_on_c, 0, 72, 0
1, 34548, Note_on_c, 0, 69, 75
1, 34560, Note_on_c, 0, 69, 0
1, 34560, Note_on_c, 0, 65, 75
1, 34605, Note_on_c, 0, 65, 0
1, 34608, Note_on_c, 0, 84, 75
1, 34608, Note_on_c, 1, 63, 75
1, 34620, Note_on_c, 1, 63, 0
1, 34620, Note_on_c, 1, 60, 75
1, 34632, Note_on_c, 1, 60, 0
1, 34632, Note_on_c, 1, 63, 75
1, 34644, Note_on_c, 1, 63, 0
1, 34644, Note_on_c, 1, 60, 75
1, 34653, Note_on_c, 0, 84, 0
1, 34656, Note_on_c, 1, 60, 0
1, 34656, Note_on_c, 1, 57, 75
1, 34701, Note_on_c, 1, 57, 0
1, 34704, Note_on_c, 0, 82, 75
1, 34704, Note_on_c, 1, 75, 75
1, 34716, Note_on_c, 0, 82, 0
1, 34716, Note_on_c, 0, 81, 75
1, 34728, Note_on_c, 0, 81, 0
1, 34728, Note_on_c, 0, 79, 75
1, 34740, Note_on_c, 0, 79, 0
1, 34740, Note_on_c, 0, 77, 75
1, 34749, Note_on_c, 1, 75, 0
1, 34752, Note_on_c, 0, 77, 0
1, 34752, Note_on_c, 0, 82, 75
1, 34752, Note_on_c, 1, 74, 75
1, 34775, Note_on_c, 0, 82, 0
1, 34776, Note_on_c, 0, 86, 75
1, 34788, Note_on_c, 0, 86, 0
1, 34788, Note_on_c, 0, 84, 75
1, 34797, Note_on_c, 1, 74, 0
1, 34800, Note_on_c, 0, 84, 0
1, 34800, Note_on_c, 0, 82, 75
1, 34812, Note_on_c, 0, 82, 0
1, 34812, Note_on_c, 0, 81, 75
1, 34824, Note_on_c, 0, 81, 0
1, 34824, Note_on_c, 0, 79, 75
1, 34824, Note_on_c, 1, 70, 75
1, 34836, Note_on_c, 0, 79, 0
1, 34836, Note_on_c, 0, 77, 75
1, 34847, Note_on_c, 1, 70, 0
1, 34848, Note_on_c, 0, 77, 0
1, 34848, Note_on_c, 0, 75, 75
1, 34848, Note_on_c, 1, 72, 75
1, 34858, Note_on_c, 0, 75, 0
1, 34872, Note_on_c, 0, 84, 75
1, 34882, Note_on_c, 0, 84, 0
1, 34893, Note_on_c, 1, 72, 0
1, 34896, Note_on_c, 1, 69, 75
1, 34920, Note_on_c, 0, 75, 75
1, 34941, Note_on_c, 1, 69, 0
1, 34943, Note_on_c, 0, 75, 0
1, 34944, Note_on_c, 0, 74, 75
1, 34944, Note_on_c, 1, 70, 75
1, 34967, Note_on_c, 0, 74, 0
1, 34968, Note_on_c, 0, 82, 75
1, 34980, Note_on_c, 0, 82, 0
1, 34980, Note_on_c, 0, 81, 75
1, 34989, Note_on_c, 1, 70, 0
1, 34992, Note_on_c, 0, 81, 0
1, 34992, Note_on_c, 0, 79, 75
1, 35004, Note_on_c, 0, 79, 0
1, 35004, Note_on_c, 0, 77, 75
1, 35016, Note_on_c, 0, 77, 0
1, 35016, Note_on_c, 0, 75, 75
1, 35016, Note_on_c, 1, 67, 75
1, 35028, Note_on_c, 0, 75, 0
1, 35028, Note_on_c, 0, 74, 75
1, 35039, Note_on_c, 1, 67, 0
1, 35040, Note_on_c, 0, 74, 0
1, 35040, Note_on_c, 0, 72, 75
1, 35040, Note_on_c, 1, 69, 75
1, 35050, Note_on_c, 0, 72, 0
1, 35064, Note_on_c, 0, 81, 75
1, 35074, Note_on_c, 0, 81, 0
1, 35085, Note_on_c, 1, 69, 0
1, 35088, Note_on_c, 1, 66, 75
1, 35112, Note_on_c, 0, 72, 75
1, 35133, Note_on_c, 1, 66, 0
1, 35135, Note_on_c, 0, 72, 0
1, 35136, Note_on_c, 0, 70, 75
1, 35136, Note_on_c, 1, 67, 75
1, 35159, Note_on_c, 0, 70, 0
1, 35160, Note_on_c, 0, 79, 75
1, 35172, Note_on_c, 0, 79, 0
1, 35172, Note_on_c, 0, 77, 75
1, 35181, Note_on_c, 1, 67, 0
1, 35184, Note_on_c, 0, 77, 0
1, 35184, Note_on_c, 0, 76, 75
1, 35196, Note_on_c, 0, 76, 0
1, 35196, Note_on_c, 0, 74, 75
1, 35208, Note_on_c, 0, 74, 0
1, 35208, Note_on_c, 0, 72, 75
1, 35208, Note_on_c, 1, 64, 75
1, 35220, Note_on_c, 0, 72, 0
1, 35220, Note_on_c, 0, 70, 75
1, 35231, Note_on_c, 1, 64, 0
1, 35232, Note_on_c, 0, 70, 0
1, 35232, Note_on_c, 0, 69, 75
1, 35232, Note_on_c, 1, 65, 75
1, 35242, Note_on_c, 0, 69, 0
1, 35256, Note_on_c, 0, 77, 75
1, 35266, Note_on_c, 0, 77, 0
1, 35277, Note_on_c, 1, 65, 0
1, 35280, Note_on_c, 1, 62, 75
1, 35304, Note_on_c, 0, 69, 75
1, 35325, Note_on_c, 1, 62, 0
1, 35327, Note_on_c, 0, 69, 0
1, 35328, Note_on_c, 0, 67, 75
1, 35328, Note_on_c, 1, 64, 75
1, 35351, Note_on_c, 0, 67, 0
1, 35352, Note_on_c, 0, 76, 76
1, 35364, Note_on_c, 0, 76, 0
1, 35364, Note_on_c, 0, 74, 76
1, 35373, Note_on_c, 1, 64, 0
1, 35376, Note_on_c, 0, 74, 0
1, 35376, Note_on_c, 0, 73, 77
1, 35388, Note_on_c, 0, 73, 0
1, 35388, Note_on_c, 0, 71, 77
1, 35400, Note_on_c, 0, 71, 0
1, 35400, Note_on_c, 0, 69, 78
1, 35400, Note_on_c, 1, 61, 78
1, 35412, Note_on_c, 0, 69, 0
1, 35412, Note_on_c, 0, 67, 78
1, 35423, Note_on_c, 1, 61, 0
1, 35424, Note_on_c, 0, 67, 0
1, 35424, Note_on_c, 0, 65, 79
1, 35424, Note_on_c, 1, 62, 79
1, 35434, Note_on_c, 0, 65, 0
1, 35448, Note_on_c, 0, 74, 80
1, 35458, Note_on_c, 0, 74, 0
1, 35469, Note_on_c, 1, 62, 0
1, 35472, Note_on_c, 1, 56, 81
1, 35496, Note_on_c, 0, 65, 82
1, 35496, Note_on_c, 0, 62, 82
1, 35517, Note_on_c, 1, 56, 0
1, 35519, Note_on_c, 0, 65, 0
1, 35519, Note_on_c, 0, 62, 0
1, 35520, Note_on_c, 0, 64, 84
1, 35520, Note_on_c, 0, 61, 84
1, 35520, Note_on_c, 1, 45, 84
1, 35532, Note_on_c, 1, 45, 0
1, 35532, Note_on_c, 1, 57, 84
1, 35540, Note_on_c, 0, 64, 0
1, 35540, Note_on_c, 0, 61, 0
1, 35544, Note_on_c, 1, 57, 0
1, 35544, Note_on_c, 1, 56, 84
1, 35556, Note_on_c, 1, 56, 0
1, 35556, Note_on_c, 1, 57, 84
1, 35568, Note_on_c, 0, 69, 84
1, 35568, Note_on_c, 0, 65, 84
1, 35568, Note_on_c, 1, 57, 0
1, 35568, Note_on_c, 1, 45, 84
1, 35580, Note_on_c, 1, 45, 0
1, 35580, Note_on_c, 1, 57, 84
1, 35588, Note_on_c, 0, 69, 0
1, 35588, Note_on_c, 0, 65, 0
1, 35592, Note_on_c, 1, 57, 0
1, 35592, Note_on_c, 1, 56, 84
1, 35604, Note_on_c, 1, 56, 0
1, 35604, Note_on_c, 1, 57, 84
1, 35616, Note_on_c, 0, 67, 84
1, 35616, Note_on_c, 0, 64, 84
1, 35616, Note_on_c, 1, 57, 0
1, 35616, Note_on_c, 1, 45, 84
1, 35628, Note_on_c, 1, 45, 0
1, 35628, Note_on_c, 1, 57, 84
1, 35636, Note_on_c, 0, 67, 0
1, 35636, Note_on_c, 0, 64, 0
1, 35640, Note_on_c, 1, 57, 0
1, 35640, Note_on_c, 1, 56, 84
1, 35652, Note_on_c, 1, 56, 0
1, 35652, Note_on_c, 1, 57, 84
1, 35664, Note_on_c, 0, 65, 84
1, 35664, Note_on_c, 0, 62, 84
1, 35664, Note_on_c, 1, 57, 0
1, 35664, Note_on_c, 1, 45, 84
1, 35676, Note_on_c, 1, 45, 0
1, 35676, Note_on_c, 1, 57, 84
1, 35684, Note_on_c, 0, 65, 0
1, 35684, Note_on_c, 0, 62, 0
1, 35688, Note_on_c, 1, 57, 0
1, 35688, Note_on_c, 1, 56, 84
1, 35700, Note_on_c, 1, 56, 0
1, 35700, Note_on_c, 1, 57, 84
1, 35712, Note_on_c, 0, 64, 84
1, 35712, Note_on_c, 0, 61, 84
1, 35712, Note_on_c, 1, 57, 0
1, 35712, Note_on_c, 1, 45, 84
1, 35732, Note_on_c, 0, 64, 0
1, 35732, Note_on_c, 0, 61, 0
1, 35757, Note_on_c, 1, 45, 0
1, 35760, Note_on_c, 0, 81, 84
1, 35760, Note_on_c, 1, 65, 84
1, 35760, Note_on_c, 1, 57, 90
1, 35772, Note_on_c, 0, 81, 0
1, 35772, Note_on_c, 0, 69, 84
1, 35784, Note_on_c, 0, 69, 0
1, 35784, Note_on_c, 0, 68, 85
1, 35796, Note_on_c, 0, 68, 0
1, 35796, Note_on_c, 0, 69, 86
1, 35805, Note_on_c, 1, 65, 0
1, 35808, Note_on_c, 0, 69, 0
1, 35808, Note_on_c, 0, 79, 87
1, 35808, Note_on_c, 1, 64, 87
1, 35820, Note_on_c, 0, 79, 0
1, 35820, Note_on_c, 0, 69, 87
1, 35832, Note_on_c, 0, 69, 0
1, 35832, Note_on_c, 0, 68, 88
1, 35844, Note_on_c, 0, 68, 0
1, 35844, Note_on_c, 0, 69, 89
1, 35853, Note_on_c, 1, 64, 0
1, 35856, Note_on_c, 0, 69, 0
1, 35856, Note_on_c, 0, 77, 90
1, 35856, Note_on_c, 1, 62, 90
1, 35868, Note_on_c, 0, 77, 0
1, 35868, Note_on_c, 0, 69, 90
1, 35880, Note_on_c, 0, 69, 0
1, 35880, Note_on_c, 0, 68, 90
1, 35892, Note_on_c, 0, 68, 0
1, 35892, Note_on_c, 0, 69, 90
1, 35901, Note_on_c, 1, 62, 0
1, 35904, Note_on_c, 0, 69, 0
1, 35904, Note_on_c, 0, 76, 90
1, 35904, Note_on_c, 1, 61, 90
1, 35943, Note_on_c, 0, 76, 0
1, 35993, Note_on_c, 1, 61, 0
1, 35993, Note_on_c, 1, 57, 0
1, 36048, Note_on_c, 0, 69, 68
1, 36060, Note_on_c, 0, 69, 0
1, 36060, Note_on_c, 0, 65, 68
1, 36072, Note_on_c, 0, 65, 0
1, 36072, Note_on_c, 0, 69, 68
1, 36084, Note_on_c, 0, 69, 0
1, 36084, Note_on_c, 0, 65, 68
1, 36096, Note_on_c, 0, 65, 0
1, 36096, Note_on_c, 0, 62, 68
1, 36096, Note_on_c, 1, 50, 60
1, 36119, Note_on_c, 1, 50, 0
1, 36120, Note_on_c, 1, 53, 60
1, 36141, Note_on_c, 0, 62, 0
1, 36143, Note_on_c, 1, 53, 0
1, 36144, Note_on_c, 1, 50, 60
1, 36167, Note_on_c, 1, 50, 0
1, 36168, Note_on_c, 0, 81, 68
1, 36168, Note_on_c, 1, 53, 60
1, 36178, Note_on_c, 0, 81, 0
1, 36191, Note_on_c, 1, 53, 0
1, 36192, Note_on_c, 0, 79, 68
1, 36192, Note_on_c, 1, 50, 60
1, 36202, Note_on_c, 0, 79, 0
1, 36215, Note_on_c, 1, 50, 0
1, 36216, Note_on_c, 0, 77, 68
1, 36216, Note_on_c, 1, 53, 60
1, 36226, Note_on_c, 0, 77, 0
1, 36239, Note_on_c, 1, 53, 0
1, 36240, Note_on_c, 0, 76, 68
1, 36240, Note_on_c, 1, 50, 60
1, 36250, Note_on_c, 0, 76, 0
1, 36263, Note_on_c, 1, 50, 0
1, 36264, Note_on_c, 0, 74, 68
1, 36264, Note_on_c, 1, 53, 60
1, 36274, Note_on_c, 0, 74, 0
1, 36287, Note_on_c, 1, 53, 0
1, 36288, Note_on_c, 0, 74, 84
1, 36288, Note_on_c, 1, 52, 60
1, 36311, Note_on_c, 1, 52, 0
1, 36312, Note_on_c, 1, 55, 60
1, 36335, Note_on_c, 1, 55, 0
1, 36336, Note_on_c, 1, 52, 60
1, 36359, Note_on_c, 1, 52, 0
1, 36360, Note_on_c, 0, 74, 0
1, 36360, Note_on_c, 0, 76, 75
1, 36360, Note_on_c, 1, 55, 60
1, 36372, Note_on_c, 0, 76, 0
1, 36372, Note_on_c, 0, 74, 71
1, 36383, Note_on_c, 1, 55, 0
1, 36384, Note_on_c, 0, 74, 0
1, 36384, Note_on_c, 0, 73, 68
1, 36384, Note_on_c, 1, 52, 60
1, 36404, Note_on_c, 0, 73, 0
1, 36407, Note_on_c, 1, 52, 0
1, 36408, Note_on_c, 1, 55, 60
1, 36431, Note_on_c, 1, 55, 0
1, 36432, Note_on_c, 0, 70, 68
1, 36432, Note_on_c, 1, 52, 60
1, 36444, Note_on_c, 0, 70, 0
1, 36444, Note_on_c, 0, 67, 68
1, 36455, Note_on_c, 1, 52, 0
1, 36456, Note_on_c, 0, 67, 0
1, 36456, Note_on_c, 0, 70, 68
1, 36456, Note_on_c, 1, 55, 60
1, 36468, Note_on_c, 0, 70, 0
1, 36468, Note_on_c, 0, 67, 68
1, 36479, Note_on_c, 1, 55, 0
1, 36480, Note_on_c, 0, 67, 0
1, 36480, Note_on_c, 0, 61, 68
1, 36480, Note_on_c, 1, 52, 60
1, 36503, Note_on_c, 1, 52, 0
1, 36504, Note_on_c, 1, 55, 60
1, 36525, Note_on_c, 0, 61, 0
1, 36527, Note_on_c, 1, 55, 0
1, 36528, Note_on_c, 1, 52, 60
1, 36551, Note_on_c, 1, 52, 0
1, 36552, Note_on_c, 0, 82, 68
1, 36552, Note_on_c, 1, 55, 60
1, 36562, Note_on_c, 0, 82, 0
1, 36575, Note_on_c, 1, 55, 0
1, 36576, Note_on_c, 0, 81, 68
1, 36576, Note_on_c, 1, 52, 60
1, 36586, Note_on_c, 0, 81, 0
1, 36599, Note_on_c, 1, 52, 0
1, 36600, Note_on_c, 0, 79, 68
1, 36600, Note_on_c, 1, 55, 60
1, 36610, Note_on_c, 0, 79, 0
1, 36623, Note_on_c, 1, 55, 0
1, 36624, Note_on_c, 0, 77, 68
1, 36624, Note_on_c, 1, 52, 60
1, 36634, Note_on_c, 0, 77, 0
1, 36647, Note_on_c, 1, 52, 0
1, 36648, Note_on_c, 0, 76, 68
1, 36648, Note_on_c, 1, 55, 60
1, 36658, Note_on_c, 0, 76, 0
1, 36671, Note_on_c, 1, 55, 0
1, 36672, Note_on_c, 0, 76, 84
1, 36672, Note_on_c, 1, 53, 60
1, 36695, Note_on_c, 1, 53, 0
1, 36696, Note_on_c, 1, 57, 60
1, 36719, Note_on_c, 1, 57, 0
1, 36720, Note_on_c, 1, 53, 60
1, 36743, Note_on_c, 1, 53, 0
1, 36744, Note_on_c, 0, 76, 0
1, 36744, Note_on_c, 0, 77, 75
1, 36744, Note_on_c, 1, 57, 60
1, 36756, Note_on_c, 0, 77, 0
1, 36756, Note_on_c, 0, 76, 71
1, 36767, Note_on_c, 1, 57, 0
1, 36768, Note_on_c, 0, 76, 0
1, 36768, Note_on_c, 0, 74, 68
1, 36768, Note_on_c, 1, 53, 60
1, 36788, Note_on_c, 0, 74, 0
1, 36791, Note_on_c, 1, 53, 0
1, 36792, Note_on_c, 1, 57, 60
1, 36815, Note_on_c, 1, 57, 0
1, 36816, Note_on_c, 0, 74, 68
1, 36816, Note_on_c, 1, 53, 60
1, 36828, Note_on_c, 0, 74, 0
1, 36828, Note_on_c, 0, 69, 68
1, 36839, Note_on_c, 1, 53, 0
1, 36840, Note_on_c, 0, 69, 0
1, 36840, Note_on_c, 0, 74, 68
1, 36840, Note_on_c, 1, 57, 60
1, 36852, Note_on_c, 0, 74, 0
1, 36852, Note_on_c, 0, 69, 68
1, 36863, Note_on_c, 1, 57, 0
1, 36864, Note_on_c, 0, 69, 0
1, 36864, Note_on_c, 0, 62, 68
1, 36864, Note_on_c, 1, 53, 60
1, 36887, Note_on_c, 1, 53, 0
1, 36888, Note_on_c, 1, 57, 60
1, 36909, Note_on_c, 0, 62, 0
1, 36911, Note_on_c, 1, 57, 0
1, 36912, Note_on_c, 1, 53, 61
1, 36935, Note_on_c, 1, 53, 0
1, 36936, Note_on_c, 0, 75, 69
1, 36936, Note_on_c, 1, 57, 62
1, 36946, Note_on_c, 0, 75, 0
1, 36959, Note_on_c, 1, 57, 0
1, 36960, Note_on_c, 0, 74, 70
1, 36960, Note_on_c, 1, 54, 63
1, 36970, Note_on_c, 0, 74, 0
1, 36983, Note_on_c, 1, 54, 0
1, 36984, Note_on_c, 0, 72, 71
1, 36984, Note_on_c, 1, 62, 63
1, 36994, Note_on_c, 0, 72, 0
1, 37007, Note_on_c, 1, 62, 0
1, 37008, Note_on_c, 0, 70, 71
1, 37008, Note_on_c, 1, 54, 64
1, 37018, Note_on_c, 0, 70, 0
1, 37031, Note_on_c, 1, 54, 0
1, 37032, Note_on_c, 0, 69, 72
1, 37032, Note_on_c, 1, 62, 65
1, 37042, Note_on_c, 0, 69, 0
1, 37055, Note_on_c, 1, 62, 0
1, 37056, Note_on_c, 0, 72, 73
1, 37056, Note_on_c, 1, 55, 66
1, 37079, Note_on_c, 1, 55, 0
1, 37080, Note_on_c, 0, 72, 0
1, 37080, Note_on_c, 0, 70, 73
1, 37080, Note_on_c, 1, 62, 66
1, 37103, Note_on_c, 0, 70, 0
1, 37103, Note_on_c, 1, 62, 0
1, 37104, Note_on_c, 1, 55, 67
1, 37127, Note_on_c, 1, 55, 0
1, 37128, Note_on_c, 0, 77, 75
1, 37128, Note_on_c, 1, 62, 68
1, 37138, Note_on_c, 0, 77, 0
1, 37151, Note_on_c, 1, 62, 0
1, 37152, Note_on_c, 0, 76, 75
1, 37152, Note_on_c, 1, 56, 69
1, 37162, Note_on_c, 0, 76, 0
1, 37175, Note_on_c, 1, 56, 0
1, 37176, Note_on_c, 0, 74, 76
1, 37176, Note_on_c, 1, 64, 69
1, 37186, Note_on_c, 0, 74, 0
1, 37199, Note_on_c, 1, 64, 0
1, 37200, Note_on_c, 0, 73, 77
1, 37200, Note_on_c, 1, 56, 70
1, 37210, Note_on_c, 0, 73, 0
1, 37223, Note_on_c, 1, 56, 0
1, 37224, Note_on_c, 0, 71, 77
1, 37224, Note_on_c, 1, 64, 71
1, 37234, Note_on_c, 0, 71, 0
1, 37247, Note_on_c, 1, 64, 0
1, 37248, Note_on_c, 0, 74, 78
1, 37248, Note_on_c, 1, 57, 72
1, 37271, Note_on_c, 1, 57, 0
1, 37272, Note_on_c, 0, 74, 0
1, 37272, Note_on_c, 0, 73, 79
1, 37272, Note_on_c, 1, 64, 72
1, 37295, Note_on_c, 0, 73, 0
1, 37295, Note_on_c, 1, 64, 0
1, 37296, Note_on_c, 1, 57, 73
1, 37319, Note_on_c, 1, 57, 0
1, 37320, Note_on_c, 0, 82, 80
1, 37320, Note_on_c, 1, 64, 74
1, 37330, Note_on_c, 0, 82, 0
1, 37343, Note_on_c, 1, 64, 0
1, 37344, Note_on_c, 0, 81, 81
1, 37344, Note_on_c, 1, 61, 75
1, 37354, Note_on_c, 0, 81, 0
1, 37367, Note_on_c, 1, 61, 0
1, 37368, Note_on_c, 0, 79, 81
1, 37368, Note_on_c, 1, 69, 75
1, 37378, Note_on_c, 0, 79, 0
1, 37391, Note_on_c, 1, 69, 0
1, 37392, Note_on_c, 0, 77, 82
1, 37392, Note_on_c, 1, 61, 76
1, 37402, Note_on_c, 0, 77, 0
1, 37415, Note_on_c, 1, 61, 0
1, 37416, Note_on_c, 0, 76, 83
1, 37416, Note_on_c, 1, 69, 77
1, 37426, Note_on_c, 0, 76, 0
1, 37439, Note_on_c, 1, 69, 0
1, 37440, Note_on_c, 0, 77, 83
1, 37452, Note_on_c, 0, 77, 0
1, 37452, Note_on_c, 0, 74, 84
1, 37464, Note_on_c, 0, 74, 0
1, 37464, Note_on_c, 0, 69, 84
1, 37476, Note_on_c, 0, 69, 0
1, 37476, Note_on_c, 0, 65, 84
1, 37488, Note_on_c, 0, 65, 0
1, 37488, Note_on_c, 0, 62, 84
1, 37500, Note_on_c, 0, 62, 0
1, 37500, Note_on_c, 0, 77, 84
1, 37512, Note_on_c, 0, 77, 0
1, 37512, Note_on_c, 0, 74, 84
1, 37524, Note_on_c, 0, 74, 0
1, 37524, Note_on_c, 0, 69, 84
1, 37536, Note_on_c, 0, 69, 0
1, 37536, Note_on_c, 0, 79, 84
1, 37548, Note_on_c, 0, 79, 0
1, 37548, Note_on_c, 0, 76, 84
1, 37560, Note_on_c, 0, 76, 0
1, 37560, Note_on_c, 0, 73, 84
1, 37572, Note_on_c, 0, 73, 0
1, 37572, Note_on_c, 0, 67, 84
1, 37584, Note_on_c, 0, 67, 0
1, 37584, Note_on_c, 0, 64, 84
1, 37596, Note_on_c, 0, 64, 0
1, 37596, Note_on_c, 0, 79, 84
1, 37608, Note_on_c, 0, 79, 0
1, 37608, Note_on_c, 0, 76, 84
1, 37620, Note_on_c, 0, 76, 0
1, 37620, Note_on_c, 0, 73, 84
1, 37632, Note_on_c, 0, 73, 0
1, 37632, Note_on_c, 0, 81, 84
1, 37644, Note_on_c, 0, 81, 0
1, 37644, Note_on_c, 0, 77, 84
1, 37656, Note_on_c, 0, 77, 0
1, 37656, Note_on_c, 0, 74, 84
1, 37668, Note_on_c, 0, 74, 0
1, 37668, Note_on_c, 0, 69, 84
1, 37680, Note_on_c, 0, 69, 0
1, 37680, Note_on_c, 0, 65, 84
1, 37692, Note_on_c, 0, 65, 0
1, 37692, Note_on_c, 0, 81, 84
1, 37704, Note_on_c, 0, 81, 0
1, 37704, Note_on_c, 0, 77, 84
1, 37716, Note_on_c, 0, 77, 0
1, 37716, Note_on_c, 0, 74, 84
1, 37728, Note_on_c, 0, 74, 0
1, 37728, Note_on_c, 0, 82, 84
1, 37740, Note_on_c, 0, 82, 0
1, 37740, Note_on_c, 0, 79, 84
1, 37752, Note_on_c, 0, 79, 0
1, 37752, Note_on_c, 0, 74, 84
1, 37764, Note_on_c, 0, 74, 0
1, 37764, Note_on_c, 0, 70, 84
1, 37776, Note_on_c, 0, 70, 0
1, 37776, Note_on_c, 0, 67, 84
1, 37788, Note_on_c, 0, 67, 0
1, 37788, Note_on_c, 0, 82, 84
1, 37800, Note_on_c, 0, 82, 0
1, 37800, Note_on_c, 0, 79, 84
1, 37812, Note_on_c, 0, 79, 0
1, 37812, Note_on_c, 0, 74, 84
1, 37824, Note_on_c, 0, 74, 0
1, 37824, Note_on_c, 0, 81, 84
1, 37836, Note_on_c, 0, 81, 0
1, 37836, Note_on_c, 0, 77, 84
1, 37848, Note_on_c, 0, 77, 0
1, 37848, Note_on_c, 0, 74, 84
1, 37860, Note_on_c, 0, 74, 0
1, 37860, Note_on_c, 0, 69, 84
1, 37872, Note_on_c, 0, 69, 0
1, 37872, Note_on_c, 0, 65, 84
1, 37884, Note_on_c, 0, 65, 0
1, 37884, Note_on_c, 0, 81, 84
1, 37896, Note_on_c, 0, 81, 0
1, 37896, Note_on_c, 0, 77, 84
1, 37908, Note_on_c, 0, 77, 0
1, 37908, Note_on_c, 0, 74, 84
1, 37920, Note_on_c, 0, 74, 0
1, 37920, Note_on_c, 0, 83, 84
1, 37932, Note_on_c, 0, 83, 0
1, 37932, Note_on_c, 0, 77, 84
1, 37944, Note_on_c, 0, 77, 0
1, 37944, Note_on_c, 0, 74, 84
1, 37956, Note_on_c, 0, 74, 0
1, 37956, Note_on_c, 0, 71, 84
1, 37968, Note_on_c, 0, 71, 0
1, 37968, Note_on_c, 0, 68, 84
1, 37980, Note_on_c, 0, 68, 0
1, 37980, Note_on_c, 0, 86, 84
1, 37992, Note_on_c, 0, 86, 0
1, 37992, Note_on_c, 0, 83, 84
1, 38004, Note_on_c, 0, 83, 0
1, 38004, Note_on_c, 0, 77, 84
1, 38016, Note_on_c, 0, 77, 0
1, 38016, Note_on_c, 0, 85, 84
1, 38028, Note_on_c, 0, 85, 0
1, 38028, Note_on_c, 0, 81, 84
1, 38040, Note_on_c, 0, 81, 0
1, 38040, Note_on_c, 0, 76, 84
1, 38052, Note_on_c, 0, 76, 0
1, 38052, Note_on_c, 0, 73, 84
1, 38064, Note_on_c, 0, 73, 0
1, 38064, Note_on_c, 0, 69, 84
1, 38076, Note_on_c, 0, 69, 0
1, 38076, Note_on_c, 0, 85, 84
1, 38088, Note_on_c, 0, 85, 0
1, 38088, Note_on_c, 0, 81, 84
1, 38100, Note_on_c, 0, 81, 0
1, 38100, Note_on_c, 0, 76, 84
1, 38112, Note_on_c, 0, 76, 0
1, 38112, Note_on_c, 0, 86, 84
1, 38124, Note_on_c, 0, 86, 0
1, 38124, Note_on_c, 0, 80, 84
1, 38136, Note_on_c, 0, 80, 0
1, 38136, Note_on_c, 0, 77, 84
1, 38148, Note_on_c, 0, 77, 0
1, 38148, Note_on_c, 0, 74, 84
1, 38160, Note_on_c, 0, 74, 0
1, 38160, Note_on_c, 0, 71, 84
1, 38172, Note_on_c, 0, 71, 0
1, 38172, Note_on_c, 0, 86, 84
1, 38184, Note_on_c, 0, 86, 0
1, 38184, Note_on_c, 0, 80, 84
1, 38196, Note_on_c, 0, 80, 0
1, 38196, Note_on_c, 0, 77, 84
1, 38208, Note_on_c, 0, 77, 0
1, 38208, Note_on_c, 0, 85, 84
1, 38220, Note_on_c, 0, 85, 0
1, 38220, Note_on_c, 0, 81, 84
1, 38232, Note_on_c, 0, 81, 0
1, 38232, Note_on_c, 0, 76, 84
1, 38244, Note_on_c, 0, 76, 0
1, 38244, Note_on_c, 0, 73, 84
1, 38256, Note_on_c, 0, 73, 0
1, 38256, Note_on_c, 0, 69, 84
1, 38268, Note_on_c, 0, 69, 0
1, 38268, Note_on_c, 0, 88, 84
1, 38280, Note_on_c, 0, 88, 0
1, 38280, Note_on_c, 0, 85, 84
1, 38292, Note_on_c, 0, 85, 0
1, 38292, Note_on_c, 0, 81, 84
1, 38304, Note_on_c, 0, 81, 0
1, 38304, Note_on_c, 0, 85, 84
1, 38316, Note_on_c, 0, 85, 0
1, 38316, Note_on_c, 0, 81, 84
1, 38328, Note_on_c, 0, 81, 0
1, 38328, Note_on_c, 0, 76, 84
1, 38340, Note_on_c, 0, 76, 0
1, 38340, Note_on_c, 0, 73, 84
1, 38352, Note_on_c, 0, 73, 0
1, 38352, Note_on_c, 0, 69, 84
1, 38364, Note_on_c, 0, 69, 0
1, 38364, Note_on_c, 0, 85, 84
1, 38376, Note_on_c, 0, 85, 0
1, 38376, Note_on_c, 0, 81, 84
1, 38388, Note_on_c, 0, 81, 0
1, 38388, Note_on_c, 0, 76, 84
1, 38400, Note_on_c, 0, 76, 0
1, 38400, Note_on_c, 0, 82, 84
1, 38412, Note_on_c, 0, 82, 0
1, 38412, Note_on_c, 0, 79, 84
1, 38424, Note_on_c, 0, 79, 0
1, 38424, Note_on_c, 0, 76, 84
1, 38436, Note_on_c, 0, 76, 0
1, 38436, Note_on_c, 0, 73, 84
1, 38448, Note_on_c, 0, 73, 0
1, 38448, Note_on_c, 0, 81, 84
1, 38460, Note_on_c, 0, 81, 0
1, 38460, Note_on_c, 0, 78, 84
1, 38472, Note_on_c, 0, 78, 0
1, 38472, Note_on_c, 0, 75, 84
1, 38484, Note_on_c, 0, 75, 0
1, 38484, Note_on_c, 0, 72, 84
1, 38496, Note_on_c, 0, 72, 0
1, 38496, Note_on_c, 0, 80, 84
1, 38508, Note_on_c, 0, 80, 0
1, 38508, Note_on_c, 0, 77, 84
1, 38520, Note_on_c, 0, 77, 0
1, 38520, Note_on_c, 0, 74, 84
1, 38532, Note_on_c, 0, 74, 0
1, 38532, Note_on_c, 0, 71, 84
1, 38544, Note_on_c, 0, 71, 0
1, 38544, Note_on_c, 0, 79, 84
1, 38556, Note_on_c, 0, 79, 0
1, 38556, Note_on_c, 0, 76, 84
1, 38568, Note_on_c, 0, 76, 0
1, 38568, Note_on_c, 0, 73, 84
1, 38580, Note_on_c, 0, 73, 0
1, 38580, Note_on_c, 0, 70, 84
1, 38592, Note_on_c, 0, 70, 0
1, 38592, Note_on_c, 0, 77, 84
1, 38604, Note_on_c, 0, 77, 0
1, 38604, Note_on_c, 0, 74, 84
1, 38616, Note_on_c, 0, 74, 0
1, 38616, Note_on_c, 0, 71, 84
1, 38628, Note_on_c, 0, 71, 0
1, 38628, Note_on_c, 0, 68, 84
1, 38640, Note_on_c, 0, 68, 0
1, 38640, Note_on_c, 0, 56, 84
1, 38652, Note_on_c, 0, 56, 0
1, 38652, Note_on_c, 0, 71, 84
1, 38664, Note_on_c, 0, 71, 0
1, 38664, Note_on_c, 0, 74, 84
1, 38676, Note_on_c, 0, 74, 0
1, 38676, Note_on_c, 0, 77, 84
1, 38688, Note_on_c, 0, 77, 0
1, 38688, Note_on_c, 0, 62, 64
1, 38688, Note_on_c, 0, 57, 64
1, 38700, Note_on_c, 0, 69, 84
1, 38712, Note_on_c, 0, 69, 0
1, 38712, Note_on_c, 0, 74, 84
1, 38724, Note_on_c, 0, 74, 0
1, 38724, Note_on_c, 0, 77, 84
1, 38733, Note_on_c, 0, 62, 0
1, 38733, Note_on_c, 0, 57, 0
1, 38736, Note_on_c, 0, 77, 0
1, 38736, Note_on_c, 0, 61, 64
1, 38736, Note_on_c, 0, 57, 64
1, 38748, Note_on_c, 0, 67, 84
1, 38760, Note_on_c, 0, 67, 0
1, 38760, Note_on_c, 0, 73, 84
1, 38772, Note_on_c, 0, 73, 0
1, 38772, Note_on_c, 0, 76, 84
1, 38781, Note_on_c, 0, 61, 0
1, 38781, Note_on_c, 0, 57, 0
1, 38784, Note_on_c, 0, 76, 0
1, 38784, Note_on_c, 0, 73, 84
1, 38796, Note_on_c, 0, 73, 0
1, 38796, Note_on_c, 0, 76, 84
1, 38808, Note_on_c, 0, 76, 0
1, 38808, Note_on_c, 0, 79, 84
1, 38820, Note_on_c, 0, 79, 0
1, 38820, Note_on_c, 0, 82, 84
1, 38832, Note_on_c, 0, 82, 0
1, 38832, Note_on_c, 0, 72, 84
1, 38844, Note_on_c, 0, 72, 0
1, 38844, Note_on_c, 0, 75, 84
1, 38856, Note_on_c, 0, 75, 0
1, 38856, Note_on_c, 0, 78, 84
1, 38868, Note_on_c, 0, 78, 0
1, 38868, Note_on_c, 0, 81, 84
1, 38880, Note_on_c, 0, 81, 0
1, 38880, Note_on_c, 0, 71, 84
1, 38892, Note_on_c, 0, 71, 0
1, 38892, Note_on_c, 0, 74, 84
1, 38904, Note_on_c, 0, 74, 0
1, 38904, Note_on_c, 0, 77, 84
1, 38916, Note_on_c, 0, 77, 0
1, 38916, Note_on_c, 0, 80, 84
1, 38928, Note_on_c, 0, 80, 0
1, 38928, Note_on_c, 0, 70, 84
1, 38940, Note_on_c, 0, 70, 0
1, 38940, Note_on_c, 0, 73, 84
1, 38952, Note_on_c, 0, 73, 0
1, 38952, Note_on_c, 0, 76, 84
1, 38964, Note_on_c, 0, 76, 0
1, 38964, Note_on_c, 0, 79, 84
1, 38976, Note_on_c, 0, 79, 0
1, 38976, Note_on_c, 0, 68, 84
1, 38988, Note_on_c, 0, 68, 0
1, 38988, Note_on_c, 0, 71, 84
1, 39000, Note_on_c, 0, 71, 0
1, 39000, Note_on_c, 0, 74, 84
1, 39012, Note_on_c, 0, 74, 0
1, 39012, Note_on_c, 0, 77, 84
1, 39024, Note_on_c, 0, 77, 0
1, 39024, Note_on_c, 0, 56, 84
1, 39036, Note_on_c, 0, 56, 0
1, 39036, Note_on_c, 0, 71, 84
1, 39048, Note_on_c, 0, 71, 0
1, 39048, Note_on_c, 0, 74, 84
1, 39060, Note_on_c, 0, 74, 0
1, 39060, Note_on_c, 0, 77, 84
1, 39072, Note_on_c, 0, 77, 0
1, 39072, Note_on_c, 0, 62, 64
1, 39072, Note_on_c, 0, 57, 64
1, 39084, Note_on_c, 0, 69, 84
1, 39096, Note_on_c, 0, 69, 0
1, 39096, Note_on_c, 0, 74, 84
1, 39108, Note_on_c, 0, 74, 0
1, 39108, Note_on_c, 0, 77, 84
1, 39117, Note_on_c, 0, 62, 0
1, 39117, Note_on_c, 0, 57, 0
1, 39120, Note_on_c, 0, 77, 0
1, 39120, Note_on_c, 0, 61, 64
1, 39120, Note_on_c, 0, 57, 64
1, 39132, Note_on_c, 0, 67, 84
1, 39144, Note_on_c, 0, 67, 0
1, 39144, Note_on_c, 0, 73, 84
1, 39156, Note_on_c, 0, 73, 0
1, 39156, Note_on_c, 0, 76, 84
1, 39165, Note_on_c, 0, 61, 0
1, 39165, Note_on_c, 0, 57, 0
1, 39168, Note_on_c, 0, 76, 0
1, 39168, Note_on_c, 0, 74, 90
1, 39168, Note_on_c, 1, 50, 90
1, 39180, Note_on_c, 1, 50, 0
1, 39180, Note_on_c, 1, 62, 90
1, 39192, Note_on_c, 1, 62, 0
1, 39192, Note_on_c, 1, 61, 90
1, 39204, Note_on_c, 1, 61, 0
1, 39204, Note_on_c, 1, 62, 90
1, 39213, Note_on_c, 0, 74, 0
1, 39216, Note_on_c, 1, 62, 0
1, 39216, Note_on_c, 1, 50, 90
1, 39228, Note_on_c, 1, 50, 0
1, 39228, Note_on_c, 1, 62, 90
1, 39240, Note_on_c, 1, 62, 0
1, 39240, Note_on_c, 1, 61, 90
1, 39252, Note_on_c, 1, 61, 0
1, 39252, Note_on_c, 1, 62, 90
1, 39264, Note_on_c, 0, 75, 106
1, 39264, Note_on_c, 0, 72, 106
1, 39264, Note_on_c, 0, 66, 106
1, 39264, Note_on_c, 1, 62, 0
1, 39264, Note_on_c, 1, 50, 90
1, 39276, Note_on_c, 1, 50, 0
1, 39276, Note_on_c, 1, 62, 90
1, 39288, Note_on_c, 1, 62, 0
1, 39288, Note_on_c, 1, 61, 90
1, 39300, Note_on_c, 1, 61, 0
1, 39300, Note_on_c, 1, 62, 90
1, 39312, Note_on_c, 1, 62, 0
1, 39312, Note_on_c, 1, 50, 90
1, 39324, Note_on_c, 1, 50, 0
1, 39324, Note_on_c, 1, 62, 90
1, 39336, Note_on_c, 1, 62, 0
1, 39336, Note_on_c, 1, 61, 90
1, 39348, Note_on_c, 1, 61, 0
1, 39348, Note_on_c, 1, 62, 90
1, 39360, Note_on_c, 0, 75, 0
1, 39360, Note_on_c, 0, 72, 0
1, 39360, Note_on_c, 0, 66, 0
1, 39360, Note_on_c, 0, 74, 90
1, 39360, Note_on_c, 0, 70, 90
1, 39360, Note_on_c, 0, 67, 90
1, 39360, Note_on_c, 1, 62, 0
1, 39360, Note_on_c, 1, 50, 90
1, 39372, Note_on_c, 1, 50, 0
1, 39372, Note_on_c, 1, 62, 90
1, 39380, Note_on_c, 0, 74, 0
1, 39380, Note_on_c, 0, 70, 0
1, 39380, Note_on_c, 0, 67, 0
1, 39384, Note_on_c, 1, 62, 0
1, 39384, Note_on_c, 1, 61, 90
1, 39396, Note_on_c, 1, 61, 0
1, 39396, Note_on_c, 1, 62, 90
1, 39408, Note_on_c, 0, 82, 90
1, 39408, Note_on_c, 0, 79, 90
1, 39408, Note_on_c, 1, 62, 0
1, 39408, Note_on_c, 1, 50, 90
1, 39420, Note_on_c, 1, 50, 0
1, 39420, Note_on_c, 1, 62, 90
1, 39428, Note_on_c, 0, 82, 0
1, 39428, Note_on_c, 0, 79, 0
1, 39432, Note_on_c, 1, 62, 0
1, 39432, Note_on_c, 1, 61, 90
1, 39444, Note_on_c, 1, 61, 0
1, 39444, Note_on_c, 1, 62, 90
1, 39456, Note_on_c, 0, 72, 106
1, 39456, Note_on_c, 0, 69, 106
1, 39456, Note_on_c, 0, 66, 106
1, 39456, Note_on_c, 1, 62, 0
1, 39456, Note_on_c, 1, 50, 90
1, 39468, Note_on_c, 1, 50, 0
1, 39468, Note_on_c, 1, 62, 90
1, 39480, Note_on_c, 1, 62, 0
1, 39480, Note_on_c, 1, 61, 90
1, 39492, Note_on_c, 1, 61, 0
1, 39492, Note_on_c, 1, 62, 90
1, 39504, Note_on_c, 1, 62, 0
1, 39504, Note_on_c, 1, 50, 90
1, 39516, Note_on_c, 1, 50, 0
1, 39516, Note_on_c, 1, 62, 90
1, 39528, Note_on_c, 1, 62, 0
1, 39528, Note_on_c, 1, 61, 90
1, 39540, Note_on_c, 1, 61, 0
1, 39540, Note_on_c, 1, 62, 90
1, 39552, Note_on_c, 0, 72, 0
1, 39552, Note_on_c, 0, 69, 0
1, 39552, Note_on_c, 0, 66, 0
1, 39552, Note_on_c, 0, 70, 90
1, 39552, Note_on_c, 1, 62, 0
1, 39552, Note_on_c, 1, 55, 90
1, 39564, Note_on_c, 0, 70, 0
1, 39564, Note_on_c, 0, 67, 90
1, 39576, Note_on_c, 0, 67, 0
1, 39576, Note_on_c, 0, 69, 90
1, 39588, Note_on_c, 0, 69, 0
1, 39588, Note_on_c, 0, 70, 90
1, 39600, Note_on_c, 0, 70, 0
1, 39600, Note_on_c, 0, 72, 90
1, 39612, Note_on_c, 0, 72, 0
1, 39612, Note_on_c, 0, 74, 90
1, 39624, Note_on_c, 0, 74, 0
1, 39624, Note_on_c, 0, 76, 90
1, 39636, Note_on_c, 0, 76, 0
1, 39636, Note_on_c, 0, 78, 90
1, 39641, Note_on_c, 1, 55, 0
1, 39648, Note_on_c, 0, 78, 0
1, 39648, Note_on_c, 0, 79, 90
1, 39660, Note_on_c, 0, 79, 0
1, 39660, Note_on_c, 0, 81, 90
1, 39672, Note_on_c, 0, 81, 0
1, 39672, Note_on_c, 0, 82, 90
1, 39684, Note_on_c, 0, 82, 0
1, 39684, Note_on_c, 0, 81, 90
1, 39696, Note_on_c, 0, 81, 0
1, 39696, Note_on_c, 0, 79, 90
1, 39708, Note_on_c, 0, 79, 0
1, 39708, Note_on_c, 0, 77, 90
1, 39720, Note_on_c, 0, 77, 0
1, 39720, Note_on_c, 0, 76, 90
1, 39732, Note_on_c, 0, 76, 0
1, 39732, Note_on_c, 0, 74, 90
1, 39744, Note_on_c, 0, 74, 0
1, 39744, Note_on_c, 0, 72, 90
1, 39744, Note_on_c, 1, 48, 90
1, 39756, Note_on_c, 1, 48, 0
1, 39756, Note_on_c, 1, 60, 90
1, 39768, Note_on_c, 1, 60, 0
1, 39768, Note_on_c, 1, 59, 90
1, 39780, Note_on_c, 1, 59, 0
1, 39780, Note_on_c, 1, 60, 90
1, 39789, Note_on_c, 0, 72, 0
1, 39792, Note_on_c, 1, 60, 0
1, 39792, Note_on_c, 1, 48, 90
1, 39804, Note_on_c, 1, 48, 0
1, 39804, Note_on_c, 1, 60, 90
1, 39816, Note_on_c, 1, 60, 0
1, 39816, Note_on_c, 1, 59, 90
1, 39828, Note_on_c, 1, 59, 0
1, 39828, Note_on_c, 1, 60, 90
1, 39840, Note_on_c, 0, 73, 106
1, 39840, Note_on_c, 0, 70, 106
1, 39840, Note_on_c, 0, 64, 106
1, 39840, Note_on_c, 1, 60, 0
1, 39840, Note_on_c, 1, 48, 90
1, 39852, Note_on_c, 1, 48, 0
1, 39852, Note_on_c, 1, 60, 90
1, 39864, Note_on_c, 1, 60, 0
1, 39864, Note_on_c, 1, 59, 90
1, 39876, Note_on_c, 1, 59, 0
1, 39876, Note_on_c, 1, 60, 90
1, 39888, Note_on_c, 1, 60, 0
1, 39888, Note_on_c, 1, 48, 90
1, 39900, Note_on_c, 1, 48, 0
1, 39900, Note_on_c, 1, 60, 90
1, 39912, Note_on_c, 1, 60, 0
1, 39912, Note_on_c, 1, 59, 90
1, 39924, Note_on_c, 1, 59, 0
1, 39924, Note_on_c, 1, 60, 90
1, 39936, Note_on_c, 0, 73, 0
1, 39936, Note_on_c, 0, 70, 0
1, 39936, Note_on_c, 0, 64, 0
1, 39936, Note_on_c, 0, 72, 90
1, 39936, Note_on_c, 0, 69, 90
1, 39936, Note_on_c, 0, 65, 90
1, 39936, Note_on_c, 1, 60, 0
1, 39936, Note_on_c, 1, 48, 90
1, 39948, Note_on_c, 1, 48, 0
1, 39948, Note_on_c, 1, 60, 90
1, 39956, Note_on_c, 0, 72, 0
1, 39956, Note_on_c, 0, 69, 0
1, 39956, Note_on_c, 0, 65, 0
1, 39960, Note_on_c, 1, 60, 0
1, 39960, Note_on_c, 1, 59, 90
1, 39972, Note_on_c, 1, 59, 0
1, 39972, Note_on_c, 1, 60, 90
1, 39984, Note_on_c, 0, 81, 90
1, 39984, Note_on_c, 0, 77, 90
1, 39984, Note_on_c, 1, 60, 0
1, 39984, Note_on_c, 1, 48, 90
1, 39996, Note_on_c, 1, 48, 0
1, 39996, Note_on_c, 1, 60, 90
1, 40004, Note_on_c, 0, 81, 0
1, 40004, Note_on_c, 0, 77, 0
1, 40008, Note_on_c, 1, 60, 0
1, 40008, Note_on_c, 1, 59, 90
1, 40020, Note_on_c, 1, 59, 0
1, 40020, Note_on_c, 1, 60, 90
1, 40032, Note_on_c, 0, 70, 106
1, 40032, Note_on_c, 0, 67, 106
1, 40032, Note_on_c, 0, 64, 106
1, 40032, Note_on_c, 1, 60, 0
1, 40032, Note_on_c, 1, 48, 90
1, 40044, Note_on_c, 1, 48, 0
1, 40044, Note_on_c, 1, 60, 90
1, 40056, Note_on_c, 1, 60, 0
1, 40056, Note_on_c, 1, 59, 90
1, 40068, Note_on_c, 1, 59, 0
1, 40068, Note_on_c, 1, 60, 90
1, 40080, Note_on_c, 1, 60, 0
1, 40080, Note_on_c, 1, 48, 90
1, 40092, Note_on_c, 1, 48, 0
1, 40092, Note_on_c, 1, 60, 90
1, 40104, Note_on_c, 1, 60, 0
1, 40104, Note_on_c, 1, 59, 90
1, 40116, Note_on_c, 1, 59, 0
1, 40116, Note_on_c, 1, 60, 90
1, 40128, Note_on_c, 0, 70, 0
1, 40128, Note_on_c, 0, 67, 0
1, 40128, Note_on_c, 0, 64, 0
1, 40128, Note_on_c, 0, 69, 90
1, 40128, Note_on_c, 0, 65, 90
1, 40128, Note_on_c, 1, 60, 0
1, 40128, Note_on_c, 1, 48, 90
1, 40140, Note_on_c, 1, 48, 0
1, 40140, Note_on_c, 1, 60, 90
1, 40148, Note_on_c, 0, 69, 0
1, 40148, Note_on_c, 0, 65, 0
1, 40152, Note_on_c, 1, 60, 0
1, 40152, Note_on_c, 1, 59, 90
1, 40164, Note_on_c, 1, 59, 0
1, 40164, Note_on_c, 1, 60, 90
1, 40176, Note_on_c, 0, 77, 90
1, 40176, Note_on_c, 1, 60, 0
1, 40176, Note_on_c, 1, 48, 90
1, 40188, Note_on_c, 1, 48, 0
1, 40188, Note_on_c, 1, 60, 90
1, 40196, Note_on_c, 0, 77, 0
1, 40200, Note_on_c, 1, 60, 0
1, 40200, Note_on_c, 1, 59, 90
1, 40212, Note_on_c, 1, 59, 0
1, 40212, Note_on_c, 1, 60, 90
1, 40224, Note_on_c, 0, 71, 106
1, 40224, Note_on_c, 0, 65, 106
1, 40224, Note_on_c, 0, 62, 106
1, 40224, Note_on_c, 1, 60, 0
1, 40224, Note_on_c, 1, 48, 90
1, 40236, Note_on_c, 1, 48, 0
1, 40236, Note_on_c, 1, 60, 90
1, 40248, Note_on_c, 1, 60, 0
1, 40248, Note_on_c, 1, 59, 90
1, 40260, Note_on_c, 1, 59, 0
1, 40260, Note_on_c, 1, 60, 90
1, 40272, Note_on_c, 1, 60, 0
1, 40272, Note_on_c, 1, 48, 90
1, 40284, Note_on_c, 1, 48, 0
1, 40284, Note_on_c, 1, 60, 90
1, 40296, Note_on_c, 1, 60, 0
1, 40296, Note_on_c, 1, 59, 90
1, 40308, Note_on_c, 1, 59, 0
1, 40308, Note_on_c, 1, 60, 90
1, 40320, Note_on_c, 0, 71, 0
1, 40320, Note_on_c, 0, 65, 0
1, 40320, Note_on_c, 0, 62, 0
1, 40320, Note_on_c, 0, 72, 90
1, 40320, Note_on_c, 0, 67, 90
1, 40320, Note_on_c, 0, 64, 90
1, 40320, Note_on_c, 1, 60, 0
1, 40320, Note_on_c, 1, 48, 90
1, 40340, Note_on_c, 0, 72, 0
1, 40340, Note_on_c, 0, 67, 0
1, 40340, Note_on_c, 0, 64, 0
1, 40365, Note_on_c, 1, 48, 0
1, 40392, Note_on_c, 0, 60, 75
1, 40404, Note_on_c, 0, 60, 0
1, 40404, Note_on_c, 0, 64, 75
1, 40416, Note_on_c, 0, 64, 0
1, 40416, Note_on_c, 0, 67, 75
1, 40426, Note_on_c, 0, 67, 0
1, 40440, Note_on_c, 0, 64, 75
1, 40452, Note_on_c, 0, 64, 0
1, 40452, Note_on_c, 0, 67, 75
1, 40464, Note_on_c, 0, 67, 0
1, 40464, Note_on_c, 0, 70, 75
1, 40474, Note_on_c, 0, 70, 0
1, 40488, Note_on_c, 0, 67, 75
1, 40500, Note_on_c, 0, 67, 0
1, 40500, Note_on_c, 0, 70, 75
1, 40512, Note_on_c, 0, 70, 0
1, 40512, Note_on_c, 0, 76, 75
1, 40512, Note_on_c, 1, 48, 75
1, 40512, Note_on_c, 1, 36, 75
1, 40532, Note_on_c, 0, 76, 0
1, 40532, Note_on_c, 1, 48, 0
1, 40532, Note_on_c, 1, 36, 0
1, 40584, Note_on_c, 0, 86, 60
1, 40584, Note_on_c, 1, 58, 60
1, 40596, Note_on_c, 0, 86, 0
1, 40596, Note_on_c, 0, 82, 60
1, 40596, Note_on_c, 1, 58, 0
1, 40596, Note_on_c, 1, 60, 60
1, 40608, Note_on_c, 0, 82, 0
1, 40608, Note_on_c, 0, 79, 60
1, 40608, Note_on_c, 1, 60, 0
1, 40608, Note_on_c, 1, 64, 60
1, 40618, Note_on_c, 0, 79, 0
1, 40618, Note_on_c, 1, 64, 0
1, 40632, Note_on_c, 0, 82, 60
1, 40632, Note_on_c, 1, 60, 60
1, 40644, Note_on_c, 0, 82, 0
1, 40644, Note_on_c, 0, 79, 60
1, 40644, Note_on_c, 1, 60, 0
1, 40644, Note_on_c, 1, 64, 60
1, 40656, Note_on_c, 0, 79, 0
1, 40656, Note_on_c, 0, 76, 60
1, 40656, Note_on_c, 1, 64, 0
1, 40656, Note_on_c, 1, 67, 60
1, 40666, Note_on_c, 0, 76, 0
1, 40666, Note_on_c, 1, 67, 0
1, 40680, Note_on_c, 0, 79, 60
1, 40680, Note_on_c, 1, 64, 60
1, 40692, Note_on_c, 0, 79, 0
1, 40692, Note_on_c, 0, 76, 60
1, 40692, Note_on_c, 1, 64, 0
1, 40692, Note_on_c, 1, 67, 60
1, 40704, Note_on_c, 0, 76, 0
1, 40704, Note_on_c, 0, 72, 60
1, 40704, Note_on_c, 1, 67, 0
1, 40704, Note_on_c, 1, 70, 60
1, 40724, Note_on_c, 0, 72, 0
1, 40724, Note_on_c, 1, 70, 0
1, 40848, Note_on_c, 0, 72, 75
1, 40882, Note_on_c, 0, 72, 0
1, 40884, Note_on_c, 0, 69, 75
1, 40896, Note_on_c, 0, 69, 0
1, 40896, Note_on_c, 0, 65, 75
1, 40896, Note_on_c, 1, 57, 75
1, 40896, Note_on_c, 1, 53, 75
1, 40916, Note_on_c, 0, 65, 0
1, 40941, Note_on_c, 1, 57, 0
1, 40941, Note_on_c, 1, 53, 0
1, 40944, Note_on_c, 0, 69, 75
1, 40978, Note_on_c, 0, 69, 0
1, 40980, Note_on_c, 0, 65, 75
1, 40992, Note_on_c, 0, 65, 0
1, 40992, Note_on_c, 0, 64, 75
1, 40992, Note_on_c, 1, 58, 75
1, 40992, Note_on_c, 1, 48, 75
1, 41012, Note_on_c, 0, 64, 0
1, 41037, Note_on_c, 1, 58, 0
1, 41037, Note_on_c, 1, 48, 0
1, 41040, Note_on_c, 0, 67, 75
1, 41074, Note_on_c, 0, 67, 0
1, 41076, Note_on_c, 0, 64, 75
1, 41088, Note_on_c, 0, 64, 0
1, 41088, Note_on_c, 0, 65, 75
1, 41088, Note_on_c, 1, 57, 75
1, 41088, Note_on_c, 1, 53, 75
1, 41133, Note_on_c, 0, 65, 0
1, 41133, Note_on_c, 1, 57, 0
1, 41133, Note_on_c, 1, 53, 0
1, 41136, Note_on_c, 0, 74, 75
1, 41136, Note_on_c, 0, 70, 75
1, 41184, Note_on_c, 0, 74, 0
1, 41184, Note_on_c, 0, 70, 0
1, 41184, Note_on_c, 0, 72, 75
1, 41184, Note_on_c, 0, 69, 75
1, 41204, Note_on_c, 0, 72, 0
1, 41204, Note_on_c, 0, 69, 0
1, 41232, Note_on_c, 0, 79, 75
1, 41244, Note_on_c, 0, 79, 0
1, 41244, Note_on_c, 0, 77, 75
1, 41256, Note_on_c, 0, 77, 0
1, 41256, Note_on_c, 0, 76, 75
1, 41268, Note_on_c, 0, 76, 0
1, 41268, Note_on_c, 0, 74, 75
1, 41280, Note_on_c, 0, 74, 0
1, 41280, Note_on_c, 0, 72, 75
1, 41325, Note_on_c, 0, 72, 0
1, 41328, Note_on_c, 0, 81, 75
1, 41328, Note_on_c, 1, 65, 75
1, 41343, Note_on_c, 0, 81, 0
1, 41344, Note_on_c, 0, 69, 75
1, 41359, Note_on_c, 0, 69, 0
1, 41360, Note_on_c, 0, 74, 75
1, 41373, Note_on_c, 1, 65, 0
1, 41375, Note_on_c, 0, 74, 0
1, 41376, Note_on_c, 0, 72, 75
1, 41376, Note_on_c, 1, 67, 75
1, 41421, Note_on_c, 0, 72, 0
1, 41421, Note_on_c, 1, 67, 0
1, 41424, Note_on_c, 0, 70, 75
1, 41424, Note_on_c, 1, 60, 75
1, 41434, Note_on_c, 0, 70, 0
1, 41434, Note_on_c, 0, 72, 75
1, 41444, Note_on_c, 0, 72, 0
1, 41444, Note_on_c, 0, 70, 75
1, 41454, Note_on_c, 0, 70, 0
1, 41454, Note_on_c, 0, 69, 75
1, 41463, Note_on_c, 0, 69, 0
1, 41463, Note_on_c, 0, 70, 75
1, 41469, Note_on_c, 1, 60, 0
1, 41472, Note_on_c, 0, 70, 0
1, 41472, Note_on_c, 0, 70, 75
1, 41472, Note_on_c, 1, 65, 75
1, 41517, Note_on_c, 1, 65, 0
1, 41520, Note_on_c, 1, 60, 75
1, 41565, Note_on_c, 1, 60, 0
1, 41568, Note_on_c, 0, 70, 0
1, 41568, Note_on_c, 0, 69, 75
1, 41568, Note_on_c, 1, 53, 75
1, 41613, Note_on_c, 0, 69, 0
1, 41613, Note_on_c, 1, 53, 0
1, 41616, Note_on_c, 0, 72, 75
1, 41628, Note_on_c, 0, 72, 0
1, 41628, Note_on_c, 0, 69, 75
1, 41640, Note_on_c, 0, 69, 0
1, 41640, Note_on_c, 0, 72, 75
1, 41652, Note_on_c, 0, 72, 0
1, 41652, Note_on_c, 0, 69, 75
1, 41664, Note_on_c, 0, 69, 0
1, 41664, Note_on_c, 0, 65, 75
1, 41664, Note_on_c, 1, 57, 75
1, 41664, Note_on_c, 1, 53, 75
1, 41684, Note_on_c, 0, 65, 0
1, 41709, Note_on_c, 1, 57, 0
1, 41709, Note_on_c, 1, 53, 0
1, 41712, Note_on_c, 0, 70, 75
1, 41724, Note_on_c, 0, 70, 0
1, 41724, Note_on_c, 0, 69, 75
1, 41736, Note_on_c, 0, 69, 0
1, 41736, Note_on_c, 0, 67, 75
1, 41748, Note_on_c, 0, 67, 0
1, 41748, Note_on_c, 0, 65, 75
1, 41760, Note_on_c, 0, 65, 0
1, 41760, Note_on_c, 0, 64, 75
1, 41760, Note_on_c, 1, 58, 75
1, 41760, Note_on_c, 1, 48, 75
1, 41780, Note_on_c, 0, 64, 0
1, 41805, Note_on_c, 1, 58, 0
1, 41805, Note_on_c, 1, 48, 0
1, 41808, Note_on_c, 0, 69, 75
1, 41820, Note_on_c, 0, 69, 0
1, 41820, Note_on_c, 0, 67, 75
1, 41832, Note_on_c, 0, 67, 0
1, 41832, Note_on_c, 0, 65, 75
1, 41844, Note_on_c, 0, 65, 0
1, 41844, Note_on_c, 0, 64, 75
1, 41856, Note_on_c, 0, 64, 0
1, 41856, Note_on_c, 0, 65, 75
1, 41856, Note_on_c, 1, 57, 75
1, 41856, Note_on_c, 1, 53, 75
1, 41866, Note_on_c, 0, 65, 0
1, 41880, Note_on_c, 0, 74, 75
1, 41892, Note_on_c, 0, 74, 0
1, 41892, Note_on_c, 0, 76, 75
1, 41901, Note_on_c, 1, 57, 0
1, 41901, Note_on_c, 1, 53, 0
1, 41904, Note_on_c, 0, 76, 0
1, 41904, Note_on_c, 0, 79, 75
1, 41904, Note_on_c, 1, 70, 75
1, 41916, Note_on_c, 0, 79, 0
1, 41916, Note_on_c, 0, 77, 75
1, 41928, Note_on_c, 0, 77, 0
1, 41928, Note_on_c, 0, 76, 75
1, 41940, Note_on_c, 0, 76, 0
1, 41940, Note_on_c, 0, 74, 75
1, 41949, Note_on_c, 1, 70, 0
1, 41952, Note_on_c, 0, 74, 0
1, 41952, Note_on_c, 0, 72, 75
1, 41952, Note_on_c, 1, 69, 75
1, 41972, Note_on_c, 0, 72, 0
1, 41997, Note_on_c, 1, 69, 0
1, 42000, Note_on_c, 0, 84, 75
1, 42012, Note_on_c, 0, 84, 0
1, 42012, Note_on_c, 0, 81, 75
1, 42024, Note_on_c, 0, 81, 0
1, 42024, Note_on_c, 0, 77, 75
1, 42036, Note_on_c, 0, 77, 0
1, 42036, Note_on_c, 0, 72, 75
1, 42048, Note_on_c, 0, 72, 0
1, 42048, Note_on_c, 0, 69, 75
1, 42096, Note_on_c, 1, 65, 75
1, 42096, Note_on_c, 1, 60, 60
1, 42144, Note_on_c, 0, 69, 0
1, 42144, Note_on_c, 0, 70, 75
1, 42144, Note_on_c, 1, 65, 0
1, 42144, Note_on_c, 1, 67, 75
1, 42164, Note_on_c, 0, 70, 0
1, 42190, Note_on_c, 1, 60, 0
1, 42191, Note_on_c, 1, 67, 0
1, 42192, Note_on_c, 0, 82, 75
1, 42204, Note_on_c, 0, 82, 0
1, 42204, Note_on_c, 0, 79, 75
1, 42216, Note_on_c, 0, 79, 0
1, 42216, Note_on_c, 0, 76, 75
1, 42228, Note_on_c, 0, 76, 0
1, 42228, Note_on_c, 0, 72, 75
1, 42240, Note_on_c, 0, 72, 0
1, 42240, Note_on_c, 0, 70, 75
1, 42288, Note_on_c, 1, 64, 70
1, 42288, Note_on_c, 1, 60, 70
1, 42336, Note_on_c, 0, 70, 0
1, 42336, Note_on_c, 0, 69, 65
1, 42336, Note_on_c, 1, 64, 0
1, 42336, Note_on_c, 1, 60, 0
1, 42336, Note_on_c, 1, 65, 65
1, 42336, Note_on_c, 1, 62, 65
1, 42356, Note_on_c, 0, 69, 0
1, 42383, Note_on_c, 1, 65, 0
1, 42383, Note_on_c, 1, 62, 0
1, 42384, Note_on_c, 0, 77, 60
1, 42396, Note_on_c, 0, 77, 0
1, 42396, Note_on_c, 0, 72, 58
1, 42408, Note_on_c, 0, 72, 0
1, 42408, Note_on_c, 0, 69, 56
1, 42420, Note_on_c, 0, 69, 0
1, 42420, Note_on_c, 0, 65, 54
1, 42432, Note_on_c, 0, 65, 0
1, 42432, Note_on_c, 0, 63, 68
1, 42480, Note_on_c, 1, 57, 60
1, 42480, Note_on_c, 1, 53, 60
1, 42525, Note_on_c, 1, 57, 0
1, 42525, Note_on_c, 1, 53, 0
1, 42528, Note_on_c, 1, 58, 60
1, 42528, Note_on_c, 1, 55, 60
1, 42573, Note_on_c, 1, 58, 0
1, 42573, Note_on_c, 1, 55, 0
1, 42576, Note_on_c, 1, 60, 60
1, 42576, Note_on_c, 1, 57, 60
1, 42621, Note_on_c, 1, 60, 0
1, 42621, Note_on_c, 1, 57, 0
1, 42624, Note_on_c, 1, 58, 60
1, 42647, Note_on_c, 0, 63, 0
1, 42648, Note_on_c, 0, 61, 52
1, 42672, Note_on_c, 0, 61, 0
1, 42672, Note_on_c, 0, 62, 53
1, 42682, Note_on_c, 0, 62, 0
1, 42696, Note_on_c, 0, 66, 54
1, 42713, Note_on_c, 1, 58, 0
1, 42720, Note_on_c, 0, 66, 0
1, 42720, Note_on_c, 0, 67, 55
1, 42730, Note_on_c, 0, 67, 0
1, 42744, Note_on_c, 0, 69, 56
1, 42768, Note_on_c, 0, 69, 0
1, 42768, Note_on_c, 0, 70, 57
1, 42778, Note_on_c, 0, 70, 0
1, 42792, Note_on_c, 0, 74, 58
1, 42792, Note_on_c, 1, 46, 75
1, 42815, Note_on_c, 0, 74, 0
1, 42815, Note_on_c, 1, 46, 0
1, 42816, Note_on_c, 0, 69, 76
1, 42816, Note_on_c, 0, 65, 76
1, 42816, Note_on_c, 1, 48, 75
1, 42864, Note_on_c, 0, 69, 0
1, 42864, Note_on_c, 0, 65, 0
1, 42864, Note_on_c, 0, 67, 56
1, 42864, Note_on_c, 0, 64, 56
1, 42883, Note_on_c, 1, 48, 0
1, 42888, Note_on_c, 1, 55, 75
1, 42900, Note_on_c, 1, 55, 0
1, 42900, Note_on_c, 1, 52, 75
1, 42909, Note_on_c, 0, 67, 0
1, 42909, Note_on_c, 0, 64, 0
1, 42912, Note_on_c, 1, 52, 0
1, 42912, Note_on_c, 1, 48, 75
1, 42935, Note_on_c, 1, 48, 0
1, 42936, Note_on_c, 1, 62, 75
1, 42936, Note_on_c, 1, 58, 75
1, 42959, Note_on_c, 1, 62, 0
1, 42959, Note_on_c, 1, 58, 0
1, 42960, Note_on_c, 1, 60, 75
1, 42960, Note_on_c, 1, 57, 75
1, 42983, Note_on_c, 1, 60, 0
1, 42983, Note_on_c, 1, 57, 0
1, 42984, Note_on_c, 1, 58, 75
1, 42984, Note_on_c, 1, 55, 75
1, 43007, Note_on_c, 1, 58, 0
1, 43007, Note_on_c, 1, 55, 0
1, 43008, Note_on_c, 1, 57, 75
1, 43008, Note_on_c, 1, 53, 75
1, 43020, Note_on_c, 0, 72, 84
1, 43032, Note_on_c, 0, 72, 0
1, 43032, Note_on_c, 0, 74, 84
1, 43044, Note_on_c, 0, 74, 0
1, 43044, Note_on_c, 0, 72, 84
1, 43056, Note_on_c, 0, 72, 0
1, 43056, Note_on_c, 0, 77, 84
1, 43068, Note_on_c, 0, 77, 0
1, 43068, Note_on_c, 0, 76, 84
1, 43080, Note_on_c, 0, 76, 0
1, 43080, Note_on_c, 0, 74, 84
1, 43092, Note_on_c, 0, 74, 0
1, 43092, Note_on_c, 0, 72, 84
1, 43097, Note_on_c, 1, 57, 0
1, 43097, Note_on_c, 1, 53, 0
1, 43104, Note_on_c, 0, 72, 0
1, 43104, Note_on_c, 0, 70, 84
1, 43116, Note_on_c, 0, 70, 0
1, 43116, Note_on_c, 0, 69, 84
1, 43128, Note_on_c, 0, 69, 0
1, 43128, Note_on_c, 0, 67, 84
1, 43140, Note_on_c, 0, 67, 0
1, 43140, Note_on_c, 0, 65, 84
1, 43152, Note_on_c, 0, 65, 0
1, 43152, Note_on_c, 0, 64, 84
1, 43152, Note_on_c, 1, 57, 75
1, 43164, Note_on_c, 0, 64, 0
1, 43164, Note_on_c, 0, 65, 84
1, 43176, Note_on_c, 0, 65, 0
1, 43176, Note_on_c, 0, 67, 84
1, 43188, Note_on_c, 0, 67, 0
1, 43188, Note_on_c, 0, 65, 84
1, 43197, Note_on_c, 1, 57, 0
1, 43200, Note_on_c, 0, 65, 0
1, 43200, Note_on_c, 0, 62, 84
1, 43200, Note_on_c, 1, 58, 75
1, 43212, Note_on_c, 0, 62, 0
1, 43212, Note_on_c, 0, 65, 84
1, 43220, Note_on_c, 1, 58, 0
1, 43224, Note_on_c, 0, 65, 0
1, 43224, Note_on_c, 0, 67, 84
1, 43236, Note_on_c, 0, 67, 0
1, 43236, Note_on_c, 0, 65, 84
1, 43248, Note_on_c, 0, 65, 0
1, 43248, Note_on_c, 0, 60, 84
1, 43248, Note_on_c, 1, 57, 75
1, 43260, Note_on_c, 0, 60, 0
1, 43260, Note_on_c, 0, 65, 84
1, 43268, Note_on_c, 1, 57, 0
1, 43272, Note_on_c, 0, 65, 0
1, 43272, Note_on_c, 0, 67, 84
1, 43284, Note_on_c, 0, 67, 0
1, 43284, Note_on_c, 0, 65, 84
1, 43296, Note_on_c, 0, 65, 0
1, 43296, Note_on_c, 0, 58, 84
1, 43296, Note_on_c, 1, 55, 75
1, 43306, Note_on_c, 0, 58, 0
1, 43320, Note_on_c, 0, 70, 84
1, 43330, Note_on_c, 0, 70, 0
1, 43344, Note_on_c, 1, 55, 0
1, 43344, Note_on_c, 1, 48, 75
1, 43368, Note_on_c, 0, 70, 84
1, 43378, Note_on_c, 0, 70, 0
1, 43389, Note_on_c, 1, 48, 0
1, 43392, Note_on_c, 0, 69, 84
1, 43392, Note_on_c, 1, 53, 75
1, 43404, Note_on_c, 0, 69, 0
1, 43404, Note_on_c, 0, 72, 84
1, 43416, Note_on_c, 0, 72, 0
1, 43416, Note_on_c, 0, 74, 84
1, 43428, Note_on_c, 0, 74, 0
1, 43428, Note_on_c, 0, 72, 84
1, 43440, Note_on_c, 0, 72, 0
1, 43440, Note_on_c, 0, 77, 84
1, 43440, Note_on_c, 1, 53, 0
1, 43440, Note_on_c, 1, 57, 75
1, 43452, Note_on_c, 0, 77, 0
1, 43452, Note_on_c, 0, 76, 84
1, 43464, Note_on_c, 0, 76, 0
1, 43464, Note_on_c, 0, 74, 84
1, 43476, Note_on_c, 0, 74, 0
1, 43476, Note_on_c, 0, 72, 84
1, 43485, Note_on_c, 1, 57, 0
1, 43488, Note_on_c, 0, 72, 0
1, 43488, Note_on_c, 0, 70, 84
1, 43500, Note_on_c, 0, 70, 0
1, 43500, Note_on_c, 0, 69, 84
1, 43512, Note_on_c, 0, 69, 0
1, 43512, Note_on_c, 0, 67, 84
1, 43524, Note_on_c, 0, 67, 0
1, 43524, Note_on_c, 0, 65, 84
1, 43536, Note_on_c, 0, 65, 0
1, 43536, Note_on_c, 0, 64, 84
1, 43536, Note_on_c, 1, 57, 75
1, 43548, Note_on_c, 0, 64, 0
1, 43548, Note_on_c, 0, 65, 84
1, 43560, Note_on_c, 0, 65, 0
1, 43560, Note_on_c, 0, 67, 84
1, 43572, Note_on_c, 0, 67, 0
1, 43572, Note_on_c, 0, 65, 84
1, 43581, Note_on_c, 1, 57, 0
1, 43584, Note_on_c, 0, 65, 0
1, 43584, Note_on_c, 0, 62, 84
1, 43584, Note_on_c, 1, 58, 75
1, 43596, Note_on_c, 0, 62, 0
1, 43596, Note_on_c, 0, 65, 84
1, 43604, Note_on_c, 1, 58, 0
1, 43608, Note_on_c, 0, 65, 0
1, 43608, Note_on_c, 0, 67, 84
1, 43620, Note_on_c, 0, 67, 0
1, 43620, Note_on_c, 0, 65, 84
1, 43632, Note_on_c, 0, 65, 0
1, 43632, Note_on_c, 0, 60, 84
1, 43632, Note_on_c, 1, 57, 75
1, 43644, Note_on_c, 0, 60, 0
1, 43644, Note_on_c, 0, 65, 84
1, 43652, Note_on_c, 1, 57, 0
1, 43656, Note_on_c, 0, 65, 0
1, 43656, Note_on_c, 0, 67, 84
1, 43668, Note_on_c, 0, 67, 0
1, 43668, Note_on_c, 0, 65, 84
1, 43680, Note_on_c, 0, 65, 0
1, 43680, Note_on_c, 0, 58, 84
1, 43680, Note_on_c, 1, 55, 75
1, 43690, Note_on_c, 0, 58, 0
1, 43704, Note_on_c, 0, 70, 84
1, 43714, Note_on_c, 0, 70, 0
1, 43728, Note_on_c, 1, 55, 0
1, 43728, Note_on_c, 1, 48, 75
1, 43752, Note_on_c, 0, 70, 84
1, 43762, Note_on_c, 0, 70, 0
1, 43773, Note_on_c, 1, 48, 0
1, 43776, Note_on_c, 0, 69, 84
1, 43776, Note_on_c, 1, 53, 75
1, 43788, Note_on_c, 0, 69, 0
1, 43788, Note_on_c, 0, 74, 84
1, 43800, Note_on_c, 0, 74, 0
1, 43800, Note_on_c, 0, 76, 84
1, 43812, Note_on_c, 0, 76, 0
1, 43812, Note_on_c, 0, 74, 84
1, 43821, Note_on_c, 1, 53, 0
1, 43824, Note_on_c, 0, 74, 0
1, 43824, Note_on_c, 0, 81, 84
1, 43824, Note_on_c, 1, 65, 75
1, 43836, Note_on_c, 0, 81, 0
1, 43836, Note_on_c, 0, 77, 84
1, 43848, Note_on_c, 0, 77, 0
1, 43848, Note_on_c, 0, 76, 84
1, 43860, Note_on_c, 0, 76, 0
1, 43860, Note_on_c, 0, 74, 84
1, 43869, Note_on_c, 1, 65, 0
1, 43872, Note_on_c, 0, 74, 0
1, 43872, Note_on_c, 0, 79, 84
1, 43872, Note_on_c, 1, 64, 75
1, 43884, Note_on_c, 0, 79, 0
1, 43884, Note_on_c, 0, 76, 84
1, 43896, Note_on_c, 0, 76, 0
1, 43896, Note_on_c, 0, 74, 84
1, 43908, Note_on_c, 0, 74, 0
1, 43908, Note_on_c, 0, 72, 84
1, 43917, Note_on_c, 1, 64, 0
1, 43920, Note_on_c, 0, 72, 0
1, 43920, Note_on_c, 0, 71, 84
1, 43920, Note_on_c, 1, 52, 75
1, 43932, Note_on_c, 0, 71, 0
1, 43932, Note_on_c, 0, 72, 84
1, 43944, Note_on_c, 0, 72, 0
1, 43944, Note_on_c, 0, 71, 84
1, 43956, Note_on_c, 0, 71, 0
1, 43956, Note_on_c, 0, 72, 84
1, 43965, Note_on_c, 1, 52, 0
1, 43968, Note_on_c, 0, 72, 0
1, 43968, Note_on_c, 0, 65, 84
1, 43968, Note_on_c, 1, 50, 75
1, 43980, Note_on_c, 0, 65, 0
1, 43980, Note_on_c, 0, 70, 84
1, 43992, Note_on_c, 0, 70, 0
1, 43992, Note_on_c, 0, 72, 84
1, 44004, Note_on_c, 0, 72, 0
1, 44004, Note_on_c, 0, 70, 84
1, 44013, Note_on_c, 1, 50, 0
1, 44016, Note_on_c, 0, 70, 0
1, 44016, Note_on_c, 0, 77, 84
1, 44016, Note_on_c, 1, 62, 75
1, 44028, Note_on_c, 0, 77, 0
1, 44028, Note_on_c, 0, 74, 84
1, 44040, Note_on_c, 0, 74, 0
1, 44040, Note_on_c, 0, 72, 84
1, 44052, Note_on_c, 0, 72, 0
1, 44052, Note_on_c, 0, 70, 84
1, 44061, Note_on_c, 1, 62, 0
1, 44064, Note_on_c, 0, 70, 0
1, 44064, Note_on_c, 0, 76, 84
1, 44064, Note_on_c, 1, 60, 75
1, 44076, Note_on_c, 0, 76, 0
1, 44076, Note_on_c, 0, 72, 84
1, 44088, Note_on_c, 0, 72, 0
1, 44088, Note_on_c, 0, 70, 84
1, 44100, Note_on_c, 0, 70, 0
1, 44100, Note_on_c, 0, 69, 84
1, 44109, Note_on_c, 1, 60, 0
1, 44112, Note_on_c, 0, 69, 0
1, 44112, Note_on_c, 0, 68, 84
1, 44112, Note_on_c, 1, 48, 75
1, 44124, Note_on_c, 0, 68, 0
1, 44124, Note_on_c, 0, 69, 84
1, 44136, Note_on_c, 0, 69, 0
1, 44136, Note_on_c, 0, 68, 84
1, 44148, Note_on_c, 0, 68, 0
1, 44148, Note_on_c, 0, 69, 84
1, 44157, Note_on_c, 1, 48, 0
1, 44160, Note_on_c, 0, 69, 0
1, 44160, Note_on_c, 0, 62, 84
1, 44160, Note_on_c, 1, 46, 75
1, 44172, Note_on_c, 0, 62, 0
1, 44172, Note_on_c, 0, 67, 84
1, 44184, Note_on_c, 0, 67, 0
1, 44184, Note_on_c, 0, 69, 84
1, 44196, Note_on_c, 0, 69, 0
1, 44196, Note_on_c, 0, 67, 84
1, 44205, Note_on_c, 1, 46, 0
1, 44208, Note_on_c, 0, 67, 0
1, 44208, Note_on_c, 0, 74, 84
1, 44208, Note_on_c, 1, 58, 75
1, 44220, Note_on_c, 0, 74, 0
1, 44220, Note_on_c, 0, 70, 84
1, 44232, Note_on_c, 0, 70, 0
1, 44232, Note_on_c, 0, 69, 84
1, 44244, Note_on_c, 0, 69, 0
1, 44244, Note_on_c, 0, 67, 84
1, 44253, Note_on_c, 1, 58, 0
1, 44256, Note_on_c, 0, 67, 0
1, 44256, Note_on_c, 0, 72, 84
1, 44256, Note_on_c, 1, 57, 75
1, 44268, Note_on_c, 0, 72, 0
1, 44268, Note_on_c, 0, 69, 84
1, 44280, Note_on_c, 0, 69, 0
1, 44280, Note_on_c, 0, 67, 84
1, 44292, Note_on_c, 0, 67, 0
1, 44292, Note_on_c, 0, 65, 84
1, 44301, Note_on_c, 1, 57, 0
1, 44304, Note_on_c, 0, 65, 0
1, 44304, Note_on_c, 0, 64, 84
1, 44304, Note_on_c, 1, 45, 75
1, 44316, Note_on_c, 0, 64, 0
1, 44316, Note_on_c, 0, 65, 84
1, 44328, Note_on_c, 0, 65, 0
1, 44328, Note_on_c, 0, 64, 84
1, 44340, Note_on_c, 0, 64, 0
1, 44340, Note_on_c, 0, 65, 84
1, 44349, Note_on_c, 1, 45, 0
1, 44352, Note_on_c, 0, 65, 0
1, 44352, Note_on_c, 0, 55, 75
1, 44364, Note_on_c, 0, 55, 0
1, 44364, Note_on_c, 0, 59, 75
1, 44376, Note_on_c, 0, 59, 0
1, 44376, Note_on_c, 0, 62, 75
1, 44388, Note_on_c, 0, 62, 0
1, 44388, Note_on_c, 0, 65, 75
1, 44400, Note_on_c, 0, 65, 0
1, 44400, Note_on_c, 0, 71, 75
1, 44412, Note_on_c, 0, 71, 0
1, 44412, Note_on_c, 0, 65, 75
1, 44424, Note_on_c, 0, 65, 0
1, 44424, Note_on_c, 0, 62, 75
1, 44436, Note_on_c, 0, 62, 0
1, 44436, Note_on_c, 0, 59, 75
1, 44448, Note_on_c, 0, 59, 0
1, 44448, Note_on_c, 0, 55, 75
1, 44460, Note_on_c, 0, 55, 0
1, 44460, Note_on_c, 0, 59, 75
1, 44472, Note_on_c, 0, 59, 0
1, 44472, Note_on_c, 0, 62, 75
1, 44484, Note_on_c, 0, 62, 0
1, 44484, Note_on_c, 0, 65, 75
1, 44496, Note_on_c, 0, 65, 0
1, 44496, Note_on_c, 0, 71, 75
1, 44508, Note_on_c, 0, 71, 0
1, 44508, Note_on_c, 0, 65, 75
1, 44520, Note_on_c, 0, 65, 0
1, 44520, Note_on_c, 0, 62, 75
1, 44532, Note_on_c, 0, 62, 0
1, 44532, Note_on_c, 0, 55, 75
1, 44544, Note_on_c, 0, 55, 0
1, 44544, Note_on_c, 1, 60, 75
1, 44566, Note_on_c, 1, 60, 0
1, 44566, Note_on_c, 1, 62, 73
1, 44576, Note_on_c, 1, 62, 0
1, 44576, Note_on_c, 1, 60, 73
1, 44586, Note_on_c, 1, 60, 0
1, 44586, Note_on_c, 1, 62, 72
1, 44596, Note_on_c, 1, 62, 0
1, 44596, Note_on_c, 1, 60, 72
1, 44606, Note_on_c, 1, 60, 0
1, 44606, Note_on_c, 1, 62, 71
1, 44616, Note_on_c, 1, 62, 0
1, 44616, Note_on_c, 1, 60, 70
1, 44626, Note_on_c, 1, 60, 0
1, 44626, Note_on_c, 1, 62, 70
1, 44636, Note_on_c, 1, 62, 0
1, 44636, Note_on_c, 1, 60, 69
1, 44646, Note_on_c, 1, 60, 0
1, 44646, Note_on_c, 1, 62, 69
1, 44656, Note_on_c, 1, 62, 0
1, 44656, Note_on_c, 1, 60, 68
1, 44666, Note_on_c, 1, 60, 0
1, 44666, Note_on_c, 1, 62, 67
1, 44676, Note_on_c, 1, 62, 0
1, 44676, Note_on_c, 1, 60, 67
1, 44686, Note_on_c, 1, 60, 0
1, 44686, Note_on_c, 1, 62, 66
1, 44688, Note_on_c, 0, 70, 84
1, 44696, Note_on_c, 1, 62, 0
1, 44696, Note_on_c, 1, 60, 60
1, 44700, Note_on_c, 0, 70, 0
1, 44700, Note_on_c, 0, 67, 84
1, 44706, Note_on_c, 1, 60, 0
1, 44706, Note_on_c, 1, 62, 60
1, 44712, Note_on_c, 0, 67, 0
1, 44712, Note_on_c, 0, 70, 84
1, 44716, Note_on_c, 1, 62, 0
1, 44716, Note_on_c, 1, 60, 60
1, 44724, Note_on_c, 0, 70, 0
1, 44724, Note_on_c, 0, 67, 84
1, 44726, Note_on_c, 1, 60, 0
1, 44726, Note_on_c, 1, 62, 60
1, 44736, Note_on_c, 0, 67, 0
1, 44736, Note_on_c, 0, 64, 84
1, 44736, Note_on_c, 1, 62, 0
1, 44736, Note_on_c, 1, 60, 60
1, 44747, Note_on_c, 1, 60, 0
1, 44747, Note_on_c, 1, 62, 60
1, 44758, Note_on_c, 1, 62, 0
1, 44758, Note_on_c, 1, 60, 60
1, 44768, Note_on_c, 1, 60, 0
1, 44768, Note_on_c, 1, 62, 60
1, 44778, Note_on_c, 1, 62, 0
1, 44778, Note_on_c, 1, 60, 60
1, 44781, Note_on_c, 0, 64, 0
1, 44784, Note_on_c, 0, 76, 84
1, 44784, Note_on_c, 0, 70, 84
1, 44788, Note_on_c, 1, 60, 0
1, 44788, Note_on_c, 1, 62, 60
1, 44798, Note_on_c, 1, 62, 0
1, 44798, Note_on_c, 1, 60, 60
1, 44804, Note_on_c, 0, 76, 0
1, 44804, Note_on_c, 0, 70, 0
1, 44808, Note_on_c, 1, 60, 0
1, 44808, Note_on_c, 1, 62, 60
1, 44818, Note_on_c, 1, 62, 0
1, 44818, Note_on_c, 1, 60, 60
1, 44828, Note_on_c, 1, 60, 0
1, 44828, Note_on_c, 1, 62, 60
1, 44832, Note_on_c, 0, 79, 84
1, 44832, Note_on_c, 0, 76, 84
1, 44838, Note_on_c, 1, 62, 0
1, 44838, Note_on_c, 1, 60, 60
1, 44848, Note_on_c, 1, 60, 0
1, 44848, Note_on_c, 1, 62, 60
1, 44852, Note_on_c, 0, 79, 0
1, 44852, Note_on_c, 0, 76, 0
1, 44858, Note_on_c, 1, 62, 0
1, 44858, Note_on_c, 1, 60, 60
1, 44868, Note_on_c, 1, 60, 0
1, 44868, Note_on_c, 1, 62, 60
1, 44878, Note_on_c, 1, 62, 0
1, 44878, Note_on_c, 1, 60, 60
1, 44880, Note_on_c, 0, 82, 84
1, 44880, Note_on_c, 0, 79, 84
1, 44888, Note_on_c, 1, 60, 0
1, 44888, Note_on_c, 1, 62, 60
1, 44898, Note_on_c, 1, 62, 0
1, 44898, Note_on_c, 1, 60, 60
1, 44900, Note_on_c, 0, 82, 0
1, 44900, Note_on_c, 0, 79, 0
1, 44908, Note_on_c, 1, 60, 0
1, 44908, Note_on_c, 1, 62, 60
1, 44918, Note_on_c, 1, 62, 0
1, 44918, Note_on_c, 1, 60, 60
1, 44928, Note_on_c, 0, 81, 84
1, 44928, Note_on_c, 0, 77, 84
1, 44928, Note_on_c, 1, 60, 0
1, 44928, Note_on_c, 1, 62, 60
1, 44939, Note_on_c, 1, 62, 0
1, 44939, Note_on_c, 1, 60, 60
1, 44950, Note_on_c, 1, 60, 0
1, 44950, Note_on_c, 1, 62, 60
1, 44960, Note_on_c, 1, 62, 0
1, 44960, Note_on_c, 1, 60, 60
1, 44967, Note_on_c, 0, 81, 0
1, 44967, Note_on_c, 0, 77, 0
1, 44970, Note_on_c, 1, 60, 0
1, 44970, Note_on_c, 1, 62, 60
1, 44980, Note_on_c, 1, 62, 0
1, 44980, Note_on_c, 1, 60, 60
1, 44990, Note_on_c, 1, 60, 0
1, 44990, Note_on_c, 1, 62, 60
1, 45000, Note_on_c, 1, 62, 0
1, 45000, Note_on_c, 1, 60, 60
1, 45010, Note_on_c, 1, 60, 0
1, 45010, Note_on_c, 1, 62, 60
1, 45020, Note_on_c, 1, 62, 0
1, 45020, Note_on_c, 1, 60, 60
1, 45030, Note_on_c, 1, 60, 0
1, 45030, Note_on_c, 1, 62, 60
1, 45040, Note_on_c, 1, 62, 0
1, 45040, Note_on_c, 1, 60, 60
1, 45050, Note_on_c, 1, 60, 0
1, 45050, Note_on_c, 1, 62, 60
1, 45060, Note_on_c, 1, 62, 0
1, 45060, Note_on_c, 1, 60, 60
1, 45070, Note_on_c, 1, 60, 0
1, 45070, Note_on_c, 1, 62, 60
1, 45072, Note_on_c, 0, 72, 84
1, 45080, Note_on_c, 1, 62, 0
1, 45080, Note_on_c, 1, 60, 60
1, 45084, Note_on_c, 0, 72, 0
1, 45084, Note_on_c, 0, 69, 84
1, 45090, Note_on_c, 1, 60, 0
1, 45090, Note_on_c, 1, 62, 60
1, 45096, Note_on_c, 0, 69, 0
1, 45096, Note_on_c, 0, 72, 84
1, 45100, Note_on_c, 1, 62, 0
1, 45100, Note_on_c, 1, 60, 60
1, 45108, Note_on_c, 0, 72, 0
1, 45108, Note_on_c, 0, 69, 84
1, 45110, Note_on_c, 1, 60, 0
1, 45110, Note_on_c, 1, 62, 60
1, 45120, Note_on_c, 0, 69, 0
1, 45120, Note_on_c, 0, 65, 84
1, 45120, Note_on_c, 1, 62, 0
1, 45120, Note_on_c, 1, 60, 60
1, 45131, Note_on_c, 1, 60, 0
1, 45131, Note_on_c, 1, 62, 60
1, 45142, Note_on_c, 1, 62, 0
1, 45142, Note_on_c, 1, 60, 60
1, 45152, Note_on_c, 1, 60, 0
1, 45152, Note_on_c, 1, 62, 60
1, 45162, Note_on_c, 1, 62, 0
1, 45162, Note_on_c, 1, 60, 60
1, 45165, Note_on_c, 0, 65, 0
1, 45168, Note_on_c, 0, 77, 84
1, 45168, Note_on_c, 0, 69, 84
1, 45172, Note_on_c, 1, 60, 0
1, 45172, Note_on_c, 1, 62, 60
1, 45182, Note_on_c, 1, 62, 0
1, 45182, Note_on_c, 1, 60, 60
1, 45188, Note_on_c, 0, 77, 0
1, 45188, Note_on_c, 0, 69, 0
1, 45192, Note_on_c, 1, 60, 0
1, 45192, Note_on_c, 1, 62, 60
1, 45202, Note_on_c, 1, 62, 0
1, 45202, Note_on_c, 1, 60, 60
1, 45212, Note_on_c, 1, 60, 0
1, 45212, Note_on_c, 1, 62, 60
1, 45216, Note_on_c, 0, 81, 84
1, 45216, Note_on_c, 0, 77, 84
1, 45222, Note_on_c, 1, 62, 0
1, 45222, Note_on_c, 1, 60, 60
1, 45232, Note_on_c, 1, 60, 0
1, 45232, Note_on_c, 1, 62, 60
1, 45236, Note_on_c, 0, 81, 0
1, 45236, Note_on_c, 0, 77, 0
1, 45242, Note_on_c, 1, 62, 0
1, 45242, Note_on_c, 1, 60, 60
1, 45252, Note_on_c, 1, 60, 0
1, 45252, Note_on_c, 1, 62, 60
1, 45262, Note_on_c, 1, 62, 0
1, 45262, Note_on_c, 1, 60, 60
1, 45264, Note_on_c, 0, 84, 84
1, 45264, Note_on_c, 0, 81, 84
1, 45272, Note_on_c, 1, 60, 0
1, 45272, Note_on_c, 1, 62, 60
1, 45282, Note_on_c, 1, 62, 0
1, 45282, Note_on_c, 1, 60, 60
1, 45284, Note_on_c, 0, 84, 0
1, 45284, Note_on_c, 0, 81, 0
1, 45292, Note_on_c, 1, 60, 0
1, 45292, Note_on_c, 1, 62, 60
1, 45302, Note_on_c, 1, 62, 0
1, 45302, Note_on_c, 1, 60, 60
1, 45312, Note_on_c, 0, 82, 84
1, 45312, Note_on_c, 0, 79, 84
1, 45312, Note_on_c, 1, 60, 0
1, 45312, Note_on_c, 1, 62, 60
1, 45323, Note_on_c, 1, 62, 0
1, 45323, Note_on_c, 1, 60, 60
1, 45334, Note_on_c, 1, 60, 0
1, 45334, Note_on_c, 1, 62, 60
1, 45344, Note_on_c, 1, 62, 0
1, 45344, Note_on_c, 1, 60, 60
1, 45351, Note_on_c, 0, 82, 0
1, 45351, Note_on_c, 0, 79, 0
1, 45354, Note_on_c, 1, 60, 0
1, 45354, Note_on_c, 1, 62, 60
1, 45364, Note_on_c, 1, 62, 0
1, 45364, Note_on_c, 1, 60, 60
1, 45374, Note_on_c, 1, 60, 0
1, 45374, Note_on_c, 1, 62, 60
1, 45384, Note_on_c, 1, 62, 0
1, 45384, Note_on_c, 1, 60, 60
1, 45394, Note_on_c, 1, 60, 0
1, 45394, Note_on_c, 1, 62, 60
1, 45404, Note_on_c, 1, 62, 0
1, 45404, Note_on_c, 1, 60, 60
1, 45414, Note_on_c, 1, 60, 0
1, 45414, Note_on_c, 1, 62, 60
1, 45424, Note_on_c, 1, 62, 0
1, 45424, Note_on_c, 1, 60, 60
1, 45434, Note_on_c, 1, 60, 0
1, 45434, Note_on_c, 1, 62, 60
1, 45444, Note_on_c, 1, 62, 0
1, 45444, Note_on_c, 1, 60, 60
1, 45454, Note_on_c, 1, 60, 0
1, 45454, Note_on_c, 1, 62, 60
1, 45456, Note_on_c, 0, 70, 84
1, 45464, Note_on_c, 1, 62, 0
1, 45464, Note_on_c, 1, 60, 60
1, 45468, Note_on_c, 0, 70, 0
1, 45468, Note_on_c, 0, 67, 84
1, 45474, Note_on_c, 1, 60, 0
1, 45474, Note_on_c, 1, 62, 60
1, 45480, Note_on_c, 0, 67, 0
1, 45480, Note_on_c, 0, 70, 84
1, 45484, Note_on_c, 1, 62, 0
1, 45484, Note_on_c, 1, 60, 60
1, 45492, Note_on_c, 0, 70, 0
1, 45492, Note_on_c, 0, 67, 84
1, 45494, Note_on_c, 1, 60, 0
1, 45494, Note_on_c, 1, 62, 60
1, 45504, Note_on_c, 0, 67, 0
1, 45504, Note_on_c, 0, 64, 84
1, 45504, Note_on_c, 1, 62, 0
1, 45504, Note_on_c, 1, 60, 60
1, 45515, Note_on_c, 1, 60, 0
1, 45515, Note_on_c, 1, 62, 60
1, 45526, Note_on_c, 1, 62, 0
1, 45526, Note_on_c, 1, 60, 60
1, 45536, Note_on_c, 1, 60, 0
1, 45536, Note_on_c, 1, 62, 60
1, 45546, Note_on_c, 1, 62, 0
1, 45546, Note_on_c, 1, 60, 60
1, 45549, Note_on_c, 0, 64, 0
1, 45552, Note_on_c, 0, 76, 84
1, 45552, Note_on_c, 0, 70, 84
1, 45556, Note_on_c, 1, 60, 0
1, 45556, Note_on_c, 1, 62, 60
1, 45566, Note_on_c, 1, 62, 0
1, 45566, Note_on_c, 1, 60, 60
1, 45572, Note_on_c, 0, 76, 0
1, 45572, Note_on_c, 0, 70, 0
1, 45576, Note_on_c, 1, 60, 0
1, 45576, Note_on_c, 1, 62, 60
1, 45586, Note_on_c, 1, 62, 0
1, 45586, Note_on_c, 1, 60, 60
1, 45596, Note_on_c, 1, 60, 0
1, 45596, Note_on_c, 1, 62, 60
1, 45600, Note_on_c, 0, 79, 84
1, 45600, Note_on_c, 0, 76, 84
1, 45606, Note_on_c, 1, 62, 0
1, 45606, Note_on_c, 1, 60, 60
1, 45616, Note_on_c, 1, 60, 0
1, 45616, Note_on_c, 1, 62, 60
1, 45620, Note_on_c, 0, 79, 0
1, 45620, Note_on_c, 0, 76, 0
1, 45626, Note_on_c, 1, 62, 0
1, 45626, Note_on_c, 1, 60, 60
1, 45636, Note_on_c, 1, 60, 0
1, 45636, Note_on_c, 1, 62, 60
1, 45646, Note_on_c, 1, 62, 0
1, 45646, Note_on_c, 1, 60, 60
1, 45648, Note_on_c, 0, 82, 84
1, 45648, Note_on_c, 0, 79, 84
1, 45656, Note_on_c, 1, 60, 0
1, 45656, Note_on_c, 1, 62, 60
1, 45666, Note_on_c, 1, 62, 0
1, 45666, Note_on_c, 1, 60, 60
1, 45668, Note_on_c, 0, 82, 0
1, 45668, Note_on_c, 0, 79, 0
1, 45676, Note_on_c, 1, 60, 0
1, 45676, Note_on_c, 1, 58, 60
1, 45686, Note_on_c, 1, 58, 0
1, 45686, Note_on_c, 1, 60, 60
1, 45696, Note_on_c, 0, 81, 84
1, 45696, Note_on_c, 1, 60, 0
1, 45696, Note_on_c, 1, 65, 75
1, 45708, Note_on_c, 0, 81, 0
1, 45708, Note_on_c, 0, 82, 84
1, 45720, Note_on_c, 0, 82, 0
1, 45720, Note_on_c, 0, 84, 84
1, 45732, Note_on_c, 0, 84, 0
1, 45732, Note_on_c, 0, 82, 84
1, 45741, Note_on_c, 1, 65, 0
1, 45744, Note_on_c, 0, 82, 0
1, 45744, Note_on_c, 0, 81, 84
1, 45744, Note_on_c, 1, 67, 75
1, 45756, Note_on_c, 0, 81, 0
1, 45756, Note_on_c, 0, 79, 84
1, 45768, Note_on_c, 0, 79, 0
1, 45768, Note_on_c, 0, 77, 84
1, 45780, Note_on_c, 0, 77, 0
1, 45780, Note_on_c, 0, 76, 84
1, 45789, Note_on_c, 1, 67, 0
1, 45792, Note_on_c, 0, 76, 0
1, 45792, Note_on_c, 0, 77, 84
1, 45792, Note_on_c, 1, 69, 75
1, 45804, Note_on_c, 0, 77, 0
1, 45804, Note_on_c, 0, 79, 84
1, 45816, Note_on_c, 0, 79, 0
1, 45816, Note_on_c, 0, 81, 84
1, 45828, Note_on_c, 0, 81, 0
1, 45828, Note_on_c, 0, 79, 84
1, 45837, Note_on_c, 1, 69, 0
1, 45840, Note_on_c, 0, 79, 0
1, 45840, Note_on_c, 0, 77, 84
1, 45840, Note_on_c, 1, 57, 75
1, 45852, Note_on_c, 0, 77, 0
1, 45852, Note_on_c, 0, 76, 84
1, 45864, Note_on_c, 0, 76, 0
1, 45864, Note_on_c, 0, 74, 84
1, 45876, Note_on_c, 0, 74, 0
1, 45876, Note_on_c, 0, 73, 84
1, 45885, Note_on_c, 1, 57, 0
1, 45888, Note_on_c, 0, 73, 0
1, 45888, Note_on_c, 0, 74, 84
1, 45888, Note_on_c, 1, 58, 75
1, 45900, Note_on_c, 0, 74, 0
1, 45900, Note_on_c, 0, 76, 84
1, 45912, Note_on_c, 0, 76, 0
1, 45912, Note_on_c, 0, 77, 84
1, 45924, Note_on_c, 0, 77, 0
1, 45924, Note_on_c, 0, 76, 84
1, 45933, Note_on_c, 1, 58, 0
1, 45936, Note_on_c, 0, 76, 0
1, 45936, Note_on_c, 0, 74, 84
1, 45936, Note_on_c, 1, 60, 75
1, 45948, Note_on_c, 0, 74, 0
1, 45948, Note_on_c, 0, 72, 84
1, 45960, Note_on_c, 0, 72, 0
1, 45960, Note_on_c, 0, 70, 84
1, 45972, Note_on_c, 0, 70, 0
1, 45972, Note_on_c, 0, 69, 84
1, 45981, Note_on_c, 1, 60, 0
1, 45984, Note_on_c, 0, 69, 0
1, 45984, Note_on_c, 0, 70, 84
1, 45984, Note_on_c, 1, 62, 75
1, 45996, Note_on_c, 0, 70, 0
1, 45996, Note_on_c, 0, 72, 84
1, 46008, Note_on_c, 0, 72, 0
1, 46008, Note_on_c, 0, 74, 84
1, 46020, Note_on_c, 0, 74, 0
1, 46020, Note_on_c, 0, 72, 84
1, 46029, Note_on_c, 1, 62, 0
1, 46032, Note_on_c, 0, 72, 0
1, 46032, Note_on_c, 0, 70, 84
1, 46044, Note_on_c, 0, 70, 0
1, 46044, Note_on_c, 0, 69, 84
1, 46056, Note_on_c, 0, 69, 0
1, 46056, Note_on_c, 0, 67, 84
1, 46056, Note_on_c, 1, 45, 84
1, 46068, Note_on_c, 0, 67, 0
1, 46068, Note_on_c, 0, 66, 84
1, 46079, Note_on_c, 1, 45, 0
1, 46080, Note_on_c, 0, 66, 0
1, 46080, Note_on_c, 0, 67, 84
1, 46080, Note_on_c, 1, 46, 84
1, 46092, Note_on_c, 0, 67, 0
1, 46092, Note_on_c, 0, 70, 84
1, 46104, Note_on_c, 0, 70, 0
1, 46104, Note_on_c, 0, 74, 84
1, 46116, Note_on_c, 0, 74, 0
1, 46116, Note_on_c, 0, 72, 84
1, 46128, Note_on_c, 0, 72, 0
1, 46128, Note_on_c, 0, 70, 84
1, 46140, Note_on_c, 0, 70, 0
1, 46140, Note_on_c, 0, 69, 84
1, 46147, Note_on_c, 1, 46, 0
1, 46152, Note_on_c, 0, 69, 0
1, 46152, Note_on_c, 0, 67, 84
1, 46152, Note_on_c, 1, 47, 84
1, 46164, Note_on_c, 0, 67, 0
1, 46164, Note_on_c, 0, 65, 84
1, 46175, Note_on_c, 1, 47, 0
1, 46176, Note_on_c, 0, 65, 0
1, 46176, Note_on_c, 0, 64, 84
1, 46176, Note_on_c, 1, 48, 84
1, 46188, Note_on_c, 0, 64, 0
1, 46188, Note_on_c, 0, 65, 84
1, 46200, Note_on_c, 0, 65, 0
1, 46200, Note_on_c, 0, 67, 84
1, 46212, Note_on_c, 0, 67, 0
1, 46212, Note_on_c, 0, 65, 84
1, 46221, Note_on_c, 1, 48, 0
1, 46224, Note_on_c, 0, 65, 0
1, 46224, Note_on_c, 0, 64, 84
1, 46224, Note_on_c, 1, 52, 84
1, 46236, Note_on_c, 0, 64, 0
1, 46236, Note_on_c, 0, 62, 84
1, 46248, Note_on_c, 0, 62, 0
1, 46248, Note_on_c, 0, 60, 84
1, 46260, Note_on_c, 0, 60, 0
1, 46260, Note_on_c, 0, 58, 84
1, 46269, Note_on_c, 1, 52, 0
1, 46272, Note_on_c, 0, 58, 0
1, 46272, Note_on_c, 0, 57, 84
1, 46272, Note_on_c, 1, 53, 84
1, 46272, Note_on_c, 1, 41, 84
1, 46284, Note_on_c, 0, 57, 0
1, 46284, Note_on_c, 0, 65, 84
1, 46296, Note_on_c, 0, 65, 0
1, 46296, Note_on_c, 0, 64, 84
1, 46308, Note_on_c, 0, 64, 0
1, 46308, Note_on_c, 0, 65, 84
1, 46320, Note_on_c, 0, 65, 0
1, 46320, Note_on_c, 0, 69, 84
1, 46332, Note_on_c, 0, 69, 0
1, 46332, Note_on_c, 0, 65, 84
1, 46344, Note_on_c, 0, 65, 0
1, 46344, Note_on_c, 0, 64, 84
1, 46356, Note_on_c, 0, 64, 0
1, 46356, Note_on_c, 0, 65, 84
1, 46361, Note_on_c, 1, 53, 0
1, 46361, Note_on_c, 1, 41, 0
1, 46368, Note_on_c, 0, 65, 0
1, 46368, Note_on_c, 0, 60, 84
1, 46368, Note_on_c, 1, 57, 84
1, 46380, Note_on_c, 0, 60, 0
1, 46380, Note_on_c, 0, 65, 84
1, 46388, Note_on_c, 1, 57, 0
1, 46392, Note_on_c, 0, 65, 0
1, 46392, Note_on_c, 0, 64, 84
1, 46404, Note_on_c, 0, 64, 0
1, 46404, Note_on_c, 0, 65, 84
1, 46416, Note_on_c, 0, 65, 0
1, 46416, Note_on_c, 0, 62, 84
1, 46416, Note_on_c, 1, 58, 84
1, 46428, Note_on_c, 0, 62, 0
1, 46428, Note_on_c, 0, 65, 84
1, 46436, Note_on_c, 1, 58, 0
1, 46440, Note_on_c, 0, 65, 0
1, 46440, Note_on_c, 0, 64, 84
1, 46452, Note_on_c, 0, 64, 0
1, 46452, Note_on_c, 0, 65, 84
1, 46464, Note_on_c, 0, 65, 0
1, 46464, Note_on_c, 0, 60, 84
1, 46464, Note_on_c, 1, 57, 84
1, 46476, Note_on_c, 0, 60, 0
1, 46476, Note_on_c, 0, 65, 84
1, 46488, Note_on_c, 0, 65, 0
1, 46488, Note_on_c, 0, 64, 84
1, 46500, Note_on_c, 0, 64, 0
1, 46500, Note_on_c, 0, 65, 84
1, 46509, Note_on_c, 1, 57, 0
1, 46512, Note_on_c, 0, 65, 0
1, 46512, Note_on_c, 0, 69, 84
1, 46524, Note_on_c, 0, 69, 0
1, 46524, Note_on_c, 0, 65, 84
1, 46536, Note_on_c, 0, 65, 0
1, 46536, Note_on_c, 0, 64, 84
1, 46548, Note_on_c, 0, 64, 0
1, 46548, Note_on_c, 0, 65, 84
1, 46560, Note_on_c, 0, 65, 0
1, 46560, Note_on_c, 0, 72, 84
1, 46560, Note_on_c, 1, 57, 68
1, 46572, Note_on_c, 0, 72, 0
1, 46572, Note_on_c, 0, 65, 84
1, 46580, Note_on_c, 1, 57, 0
1, 46584, Note_on_c, 0, 65, 0
1, 46584, Note_on_c, 0, 64, 84
1, 46596, Note_on_c, 0, 64, 0
1, 46596, Note_on_c, 0, 65, 84
1, 46608, Note_on_c, 0, 65, 0
1, 46608, Note_on_c, 0, 74, 84
1, 46608, Note_on_c, 1, 58, 68
1, 46620, Note_on_c, 0, 74, 0
1, 46620, Note_on_c, 0, 65, 84
1, 46628, Note_on_c, 1, 58, 0
1, 46632, Note_on_c, 0, 65, 0
1, 46632, Note_on_c, 0, 64, 84
1, 46644, Note_on_c, 0, 64, 0
1, 46644, Note_on_c, 0, 65, 84
1, 46656, Note_on_c, 0, 65, 0
1, 46656, Note_on_c, 0, 72, 84
1, 46656, Note_on_c, 1, 57, 68
1, 46668, Note_on_c, 0, 72, 0
1, 46668, Note_on_c, 0, 65, 84
1, 46680, Note_on_c, 0, 65, 0
1, 46680, Note_on_c, 0, 64, 84
1, 46692, Note_on_c, 0, 64, 0
1, 46692, Note_on_c, 0, 65, 84
1, 46701, Note_on_c, 1, 57, 0
1, 46704, Note_on_c, 0, 65, 0
1, 46704, Note_on_c, 0, 69, 84
1, 46716, Note_on_c, 0, 69, 0
1, 46716, Note_on_c, 0, 65, 84
1, 46728, Note_on_c, 0, 65, 0
1, 46728, Note_on_c, 0, 64, 84
1, 46740, Note_on_c, 0, 64, 0
1, 46740, Note_on_c, 0, 65, 84
1, 46752, Note_on_c, 0, 65, 0
1, 46752, Note_on_c, 0, 60, 84
1, 46752, Note_on_c, 1, 57, 75
1, 46764, Note_on_c, 0, 60, 0
1, 46764, Note_on_c, 0, 65, 84
1, 46772, Note_on_c, 1, 57, 0
1, 46776, Note_on_c, 0, 65, 0
1, 46776, Note_on_c, 0, 64, 84
1, 46788, Note_on_c, 0, 64, 0
1, 46788, Note_on_c, 0, 65, 84
1, 46800, Note_on_c, 0, 65, 0
1, 46800, Note_on_c, 0, 62, 84
1, 46800, Note_on_c, 1, 58, 75
1, 46812, Note_on_c, 0, 62, 0
1, 46812, Note_on_c, 0, 65, 84
1, 46820, Note_on_c, 1, 58, 0
1, 46824, Note_on_c, 0, 65, 0
1, 46824, Note_on_c, 0, 64, 84
1, 46836, Note_on_c, 0, 64, 0
1, 46836, Note_on_c, 0, 65, 84
1, 46848, Note_on_c, 0, 65, 0
1, 46848, Note_on_c, 0, 60, 84
1, 46848, Note_on_c, 1, 57, 75
1, 46860, Note_on_c, 0, 60, 0
1, 46860, Note_on_c, 0, 65, 84
1, 46872, Note_on_c, 0, 65, 0
1, 46872, Note_on_c, 0, 64, 84
1, 46884, Note_on_c, 0, 64, 0
1, 46884, Note_on_c, 0, 65, 84
1, 46893, Note_on_c, 1, 57, 0
1, 46896, Note_on_c, 0, 65, 0
1, 46896, Note_on_c, 0, 69, 84
1, 46908, Note_on_c, 0, 69, 0
1, 46908, Note_on_c, 0, 65, 84
1, 46920, Note_on_c, 0, 65, 0
1, 46920, Note_on_c, 0, 64, 84
1, 46932, Note_on_c, 0, 64, 0
1, 46932, Note_on_c, 0, 65, 84
1, 46944, Note_on_c, 0, 65, 0
1, 46944, Note_on_c, 0, 72, 84
1, 46944, Note_on_c, 1, 57, 68
1, 46956, Note_on_c, 0, 72, 0
1, 46956, Note_on_c, 0, 65, 84
1, 46964, Note_on_c, 1, 57, 0
1, 46968, Note_on_c, 0, 65, 0
1, 46968, Note_on_c, 0, 64, 84
1, 46980, Note_on_c, 0, 64, 0
1, 46980, Note_on_c, 0, 65, 84
1, 46992, Note_on_c, 0, 65, 0
1, 46992, Note_on_c, 0, 74, 84
1, 46992, Note_on_c, 1, 58, 68
1, 47004, Note_on_c, 0, 74, 0
1, 47004, Note_on_c, 0, 65, 84
1, 47012, Note_on_c, 1, 58, 0
1, 47016, Note_on_c, 0, 65, 0
1, 47016, Note_on_c, 0, 64, 84
1, 47028, Note_on_c, 0, 64, 0
1, 47028, Note_on_c, 0, 65, 84
1, 47040, Note_on_c, 0, 65, 0
1, 47040, Note_on_c, 0, 72, 84
1, 47040, Note_on_c, 1, 57, 68
1, 47052, Note_on_c, 0, 72, 0
1, 47052, Note_on_c, 0, 65, 84
1, 47060, Note_on_c, 1, 57, 0
1, 47064, Note_on_c, 0, 65, 0
1, 47064, Note_on_c, 0, 64, 84
1, 47076, Note_on_c, 0, 64, 0
1, 47076, Note_on_c, 0, 65, 84
1, 47088, Note_on_c, 0, 65, 0
1, 47088, Note_on_c, 0, 74, 84
1, 47088, Note_on_c, 1, 58, 68
1, 47100, Note_on_c, 0, 74, 0
1, 47100, Note_on_c, 0, 65, 84
1, 47108, Note_on_c, 1, 58, 0
1, 47112, Note_on_c, 0, 65, 0
1, 47112, Note_on_c, 0, 64, 84
1, 47124, Note_on_c, 0, 64, 0
1, 47124, Note_on_c, 0, 65, 84
1, 47136, Note_on_c, 0, 65, 0
1, 47136, Note_on_c, 0, 72, 84
1, 47136, Note_on_c, 1, 57, 68
1, 47148, Note_on_c, 0, 72, 0
1, 47148, Note_on_c, 0, 65, 84
1, 47156, Note_on_c, 1, 57, 0
1, 47160, Note_on_c, 0, 65, 0
1, 47160, Note_on_c, 0, 64, 84
1, 47172, Note_on_c, 0, 64, 0
1, 47172, Note_on_c, 0, 65, 84
1, 47184, Note_on_c, 0, 65, 0
1, 47184, Note_on_c, 0, 74, 84
1, 47184, Note_on_c, 1, 58, 68
1, 47196, Note_on_c, 0, 74, 0
1, 47196, Note_on_c, 0, 65, 84
1, 47204, Note_on_c, 1, 58, 0
1, 47208, Note_on_c, 0, 65, 0
1, 47208, Note_on_c, 0, 64, 84
1, 47220, Note_on_c, 0, 64, 0
1, 47220, Note_on_c, 0, 65, 84
1, 47232, Note_on_c, 0, 65, 0
1, 47232, Note_on_c, 0, 72, 84
1, 47232, Note_on_c, 1, 57, 75
1, 47244, Note_on_c, 0, 72, 0
1, 47244, Note_on_c, 0, 65, 84
1, 47256, Note_on_c, 0, 65, 0
1, 47256, Note_on_c, 0, 64, 84
1, 47268, Note_on_c, 0, 64, 0
1, 47268, Note_on_c, 0, 65, 84
1, 47280, Note_on_c, 0, 65, 0
1, 47280, Note_on_c, 0, 72, 84
1, 47292, Note_on_c, 0, 72, 0
1, 47292, Note_on_c, 0, 65, 84
1, 47304, Note_on_c, 0, 65, 0
1, 47304, Note_on_c, 0, 64, 84
1, 47316, Note_on_c, 0, 64, 0
1, 47316, Note_on_c, 0, 65, 84
1, 47326, Note_on_c, 1, 57, 0
1, 47328, Note_on_c, 0, 65, 0
1, 47328, Note_on_c, 0, 72, 84
1, 47328, Note_on_c, 1, 60, 75
1, 47328, Note_on_c, 1, 56, 75
1, 47340, Note_on_c, 0, 72, 0
1, 47340, Note_on_c, 0, 65, 84
1, 47352, Note_on_c, 0, 65, 0
1, 47352, Note_on_c, 0, 64, 84
1, 47364, Note_on_c, 0, 64, 0
1, 47364, Note_on_c, 0, 65, 84
1, 47376, Note_on_c, 0, 65, 0
1, 47376, Note_on_c, 0, 72, 84
1, 47388, Note_on_c, 0, 72, 0
1, 47388, Note_on_c, 0, 65, 84
1, 47400, Note_on_c, 0, 65, 0
1, 47400, Note_on_c, 0, 64, 84
1, 47412, Note_on_c, 0, 64, 0
1, 47412, Note_on_c, 0, 65, 84
1, 47422, Note_on_c, 1, 60, 0
1, 47422, Note_on_c, 1, 56, 0
1, 47424, Note_on_c, 0, 65, 0
1, 47424, Note_on_c, 0, 71, 84
1, 47424, Note_on_c, 1, 62, 75
1, 47424, Note_on_c, 1, 55, 75
1, 47436, Note_on_c, 0, 71, 0
1, 47436, Note_on_c, 0, 65, 84
1, 47448, Note_on_c, 0, 65, 0
1, 47448, Note_on_c, 0, 64, 84
1, 47460, Note_on_c, 0, 64, 0
1, 47460, Note_on_c, 0, 65, 84
1, 47472, Note_on_c, 0, 65, 0
1, 47472, Note_on_c, 0, 71, 84
1, 47484, Note_on_c, 0, 71, 0
1, 47484, Note_on_c, 0, 65, 84
1, 47496, Note_on_c, 0, 65, 0
1, 47496, Note_on_c, 0, 64, 84
1, 47508, Note_on_c, 0, 64, 0
1, 47508, Note_on_c, 0, 65, 84
1, 47518, Note_on_c, 1, 62, 0
1, 47518, Note_on_c, 1, 55, 0
1, 47520, Note_on_c, 0, 65, 0
1, 47520, Note_on_c, 0, 70, 84
1, 47520, Note_on_c, 1, 60, 75
1, 47520, Note_on_c, 1, 52, 75
1, 47532, Note_on_c, 0, 70, 0
1, 47532, Note_on_c, 0, 67, 84
1, 47544, Note_on_c, 0, 67, 0
1, 47544, Note_on_c, 0, 66, 84
1, 47556, Note_on_c, 0, 66, 0
1, 47556, Note_on_c, 0, 67, 84
1, 47568, Note_on_c, 0, 67, 0
1, 47568, Note_on_c, 0, 70, 84
1, 47580, Note_on_c, 0, 70, 0
1, 47580, Note_on_c, 0, 67, 84
1, 47592, Note_on_c, 0, 67, 0
1, 47592, Note_on_c, 0, 66, 84
1, 47604, Note_on_c, 0, 66, 0
1, 47604, Note_on_c, 0, 67, 84
1, 47614, Note_on_c, 1, 60, 0
1, 47614, Note_on_c, 1, 52, 0
1, 47616, Note_on_c, 0, 67, 0
1, 47616, Note_on_c, 0, 69, 84
1, 47616, Note_on_c, 1, 60, 75
1, 47616, Note_on_c, 1, 53, 75
1, 47639, Note_on_c, 0, 69, 0
1, 47640, Note_on_c, 0, 77, 84
1, 47663, Note_on_c, 0, 77, 0
1, 47664, Note_on_c, 0, 79, 84
1, 47676, Note_on_c, 0, 79, 0
1, 47676, Note_on_c, 0, 77, 84
1, 47688, Note_on_c, 0, 77, 0
1, 47688, Note_on_c, 0, 76, 84
1, 47700, Note_on_c, 0, 76, 0
1, 47700, Note_on_c, 0, 74, 84
1, 47710, Note_on_c, 1, 60, 0
1, 47710, Note_on_c, 1, 53, 0
1, 47712, Note_on_c, 0, 74, 0
1, 47712, Note_on_c, 0, 74, 84
1, 47724, Note_on_c, 0, 74, 0
1, 47724, Note_on_c, 0, 72, 84
1, 47736, Note_on_c, 0, 72, 0
1, 47736, Note_on_c, 0, 70, 84
1, 47748, Note_on_c, 0, 70, 0
1, 47748, Note_on_c, 0, 69, 84
1, 47760, Note_on_c, 0, 69, 0
1, 47760, Note_on_c, 0, 69, 84
1, 47760, Note_on_c, 1, 53, 75
1, 47760, Note_on_c, 1, 45, 75
1, 47772, Note_on_c, 0, 69, 0
1, 47772, Note_on_c, 0, 67, 84
1, 47784, Note_on_c, 0, 67, 0
1, 47784, Note_on_c, 0, 65, 84
1, 47796, Note_on_c, 0, 65, 0
1, 47796, Note_on_c, 0, 64, 84
1, 47808, Note_on_c, 0, 64, 0
1, 47808, Note_on_c, 0, 62, 84
1, 47808, Note_on_c, 1, 45, 0
1, 47808, Note_on_c, 1, 46, 60
1, 47831, Note_on_c, 0, 62, 0
1, 47832, Note_on_c, 0, 73, 87
1, 47844, Note_on_c, 0, 73, 0
1, 47844, Note_on_c, 0, 74, 88
1, 47853, Note_on_c, 1, 53, 0
1, 47856, Note_on_c, 0, 74, 0
1, 47856, Note_on_c, 0, 72, 90
1, 47856, Note_on_c, 1, 58, 75
1, 47868, Note_on_c, 0, 72, 0
1, 47868, Note_on_c, 0, 70, 88
1, 47880, Note_on_c, 0, 70, 0
1, 47880, Note_on_c, 0, 69, 87
1, 47892, Note_on_c, 0, 69, 0
1, 47892, Note_on_c, 0, 67, 85
1, 47897, Note_on_c, 1, 46, 0
1, 47901, Note_on_c, 1, 58, 0
1, 47904, Note_on_c, 0, 67, 0
1, 47904, Note_on_c, 0, 65, 84
1, 47904, Note_on_c, 1, 57, 75
1, 47904, Note_on_c, 1, 48, 60
1, 47949, Note_on_c, 0, 65, 0
1, 47949, Note_on_c, 1, 57, 0
1, 47952, Note_on_c, 0, 64, 84
1, 47952, Note_on_c, 1, 55, 75
1, 47962, Note_on_c, 0, 64, 0
1, 47962, Note_on_c, 0, 65, 84
1, 47972, Note_on_c, 0, 65, 0
1, 47972, Note_on_c, 0, 64, 84
1, 47982, Note_on_c, 0, 64, 0
1, 47982, Note_on_c, 0, 62, 84
1, 47991, Note_on_c, 0, 62, 0
1, 47991, Note_on_c, 0, 64, 84
1, 47993, Note_on_c, 1, 48, 0
1, 47997, Note_on_c, 1, 55, 0
1, 48000, Note_on_c, 0, 64, 0
1, 48000, Note_on_c, 0, 65, 84
1, 48000, Note_on_c, 1, 57, 75
1, 48000, Note_on_c, 1, 53, 75
1, 48012, Note_on_c, 0, 65, 0
1, 48012, Note_on_c, 0, 77, 84
1, 48024, Note_on_c, 0, 77, 0
1, 48024, Note_on_c, 0, 76, 84
1, 48036, Note_on_c, 0, 76, 0
1, 48036, Note_on_c, 0, 77, 84
1, 48048, Note_on_c, 0, 77, 0
1, 48048, Note_on_c, 0, 79, 84
1, 48060, Note_on_c, 0, 79, 0
1, 48060, Note_on_c, 0, 77, 84
1, 48072, Note_on_c, 0, 77, 0
1, 48072, Note_on_c, 0, 76, 84
1, 48084, Note_on_c, 0, 76, 0
1, 48084, Note_on_c, 0, 74, 84
1, 48089, Note_on_c, 1, 57, 0
1, 48089, Note_on_c, 1, 53, 0
1, 48096, Note_on_c, 0, 74, 0
1, 48096, Note_on_c, 0, 74, 84
1, 48108, Note_on_c, 0, 74, 0
1, 48108, Note_on_c, 0, 72, 84
1, 48120, Note_on_c, 0, 72, 0
1, 48120, Note_on_c, 0, 70, 84
1, 48132, Note_on_c, 0, 70, 0
1, 48132, Note_on_c, 0, 69, 84
1, 48144, Note_on_c, 0, 69, 0
1, 48144, Note_on_c, 0, 69, 84
1, 48144, Note_on_c, 1, 53, 75
1, 48144, Note_on_c, 1, 45, 75
1, 48156, Note_on_c, 0, 69, 0
1, 48156, Note_on_c, 0, 67, 84
1, 48168, Note_on_c, 0, 67, 0
1, 48168, Note_on_c, 0, 65, 84
1, 48180, Note_on_c, 0, 65, 0
1, 48180, Note_on_c, 0, 64, 84
1, 48192, Note_on_c, 0, 64, 0
1, 48192, Note_on_c, 0, 62, 84
1, 48192, Note_on_c, 1, 45, 0
1, 48192, Note_on_c, 1, 46, 60
1, 48215, Note_on_c, 0, 62, 0
1, 48216, Note_on_c, 0, 73, 87
1, 48228, Note_on_c, 0, 73, 0
1, 48228, Note_on_c, 0, 74, 88
1, 48237, Note_on_c, 1, 53, 0
1, 48240, Note_on_c, 0, 74, 0
1, 48240, Note_on_c, 0, 72, 90
1, 48240, Note_on_c, 1, 58, 75
1, 48252, Note_on_c, 0, 72, 0
1, 48252, Note_on_c, 0, 70, 88
1, 48264, Note_on_c, 0, 70, 0
1, 48264, Note_on_c, 0, 69, 87
1, 48276, Note_on_c, 0, 69, 0
1, 48276, Note_on_c, 0, 67, 85
1, 48281, Note_on_c, 1, 46, 0
1, 48285, Note_on_c, 1, 58, 0
1, 48288, Note_on_c, 0, 67, 0
1, 48288, Note_on_c, 0, 65, 84
1, 48288, Note_on_c, 1, 57, 75
1, 48288, Note_on_c, 1, 48, 60
1, 48333, Note_on_c, 0, 65, 0
1, 48333, Note_on_c, 1, 57, 0
1, 48336, Note_on_c, 0, 64, 84
1, 48336, Note_on_c, 1, 55, 75
1, 48346, Note_on_c, 0, 64, 0
1, 48346, Note_on_c, 0, 65, 84
1, 48356, Note_on_c, 0, 65, 0
1, 48356, Note_on_c, 0, 64, 84
1, 48366, Note_on_c, 0, 64, 0
1, 48366, Note_on_c, 0, 62, 84
1, 48375, Note_on_c, 0, 62, 0
1, 48375, Note_on_c, 0, 64, 84
1, 48377, Note_on_c, 1, 48, 0
1, 48381, Note_on_c, 1, 55, 0
1, 48384, Note_on_c, 0, 64, 0
1, 48384, Note_on_c, 0, 65, 84
1, 48384, Note_on_c, 1, 41, 75
1, 48396, Note_on_c, 1, 41, 0
1, 48396, Note_on_c, 1, 53, 75
1, 48404, Note_on_c, 0, 65, 0
1, 48408, Note_on_c, 1, 53, 0
1, 48408, Note_on_c, 1, 52, 75
1, 48420, Note_on_c, 1, 52, 0
1, 48420, Note_on_c, 1, 53, 75
1, 48432, Note_on_c, 0, 62, 84
1, 48432, Note_on_c, 0, 58, 84
1, 48432, Note_on_c, 1, 53, 0
1, 48432, Note_on_c, 1, 41, 75
1, 48444, Note_on_c, 1, 41, 0
1, 48444, Note_on_c, 1, 53, 75
1, 48452, Note_on_c, 0, 62, 0
1, 48452, Note_on_c, 0, 58, 0
1, 48456, Note_on_c, 1, 53, 0
1, 48456, Note_on_c, 1, 52, 75
1, 48468, Note_on_c, 1, 52, 0
1, 48468, Note_on_c, 1, 53, 75
1, 48480, Note_on_c, 0, 60, 84
1, 48480, Note_on_c, 0, 57, 84
1, 48480, Note_on_c, 1, 53, 0
1, 48480, Note_on_c, 1, 41, 75
1, 48492, Note_on_c, 1, 41, 0
1, 48492, Note_on_c, 1, 53, 75
1, 48500, Note_on_c, 0, 60, 0
1, 48500, Note_on_c, 0, 57, 0
1, 48504, Note_on_c, 1, 53, 0
1, 48504, Note_on_c, 1, 52, 75
1, 48516, Note_on_c, 1, 52, 0
1, 48516, Note_on_c, 1, 53, 75
1, 48528, Note_on_c, 0, 64, 84
1, 48528, Note_on_c, 0, 58, 84
1, 48528, Note_on_c, 0, 55, 84
1, 48528, Note_on_c, 1, 53, 0
1, 48528, Note_on_c, 1, 41, 75
1, 48540, Note_on_c, 1, 41, 0
1, 48540, Note_on_c, 1, 53, 75
1, 48548, Note_on_c, 0, 64, 0
1, 48548, Note_on_c, 0, 58, 0
1, 48548, Note_on_c, 0, 55, 0
1, 48552, Note_on_c, 1, 53, 0
1, 48552, Note_on_c, 1, 52, 75
1, 48564, Note_on_c, 1, 52, 0
1, 48564, Note_on_c, 1, 53, 75
1, 48576, Note_on_c, 0, 65, 84
1, 48576, Note_on_c, 0, 60, 84
1, 48576, Note_on_c, 0, 57, 84
1, 48576, Note_on_c, 1, 53, 0
1, 48576, Note_on_c, 1, 41, 75
1, 48588, Note_on_c, 1, 41, 0
1, 48588, Note_on_c, 1, 53, 75
1, 48596, Note_on_c, 0, 65, 0
1, 48596, Note_on_c, 0, 60, 0
1, 48596, Note_on_c, 0, 57, 0
1, 48600, Note_on_c, 1, 53, 0
1, 48600, Note_on_c, 1, 52, 75
1, 48612, Note_on_c, 1, 52, 0
1, 48612, Note_on_c, 1, 53, 75
1, 48624, Note_on_c, 0, 74, 84
1, 48624, Note_on_c, 0, 70, 84
1, 48624, Note_on_c, 1, 53, 0
1, 48624, Note_on_c, 1, 41, 75
1, 48636, Note_on_c, 1, 41, 0
1, 48636, Note_on_c, 1, 53, 75
1, 48644, Note_on_c, 0, 74, 0
1, 48644, Note_on_c, 0, 70, 0
1, 48648, Note_on_c, 1, 53, 0
1, 48648, Note_on_c, 1, 52, 75
1, 48660, Note_on_c, 1, 52, 0
1, 48660, Note_on_c, 1, 53, 75
1, 48672, Note_on_c, 0, 72, 84
1, 48672, Note_on_c, 0, 69, 84
1, 48672, Note_on_c, 1, 53, 0
1, 48672, Note_on_c, 1, 41, 75
1, 48684, Note_on_c, 1, 41, 0
1, 48684, Note_on_c, 1, 53, 75
1, 48692, Note_on_c, 0, 72, 0
1, 48692, Note_on_c, 0, 69, 0
1, 48696, Note_on_c, 1, 53, 0
1, 48696, Note_on_c, 1, 52, 75
1, 48708, Note_on_c, 1, 52, 0
1, 48708, Note_on_c, 1, 53, 75
1, 48720, Note_on_c, 0, 76, 84
1, 48720, Note_on_c, 0, 70, 84
1, 48720, Note_on_c, 0, 67, 84
1, 48720, Note_on_c, 1, 53, 0
1, 48720, Note_on_c, 1, 41, 75
1, 48732, Note_on_c, 1, 41, 0
1, 48732, Note_on_c, 1, 53, 75
1, 48740, Note_on_c, 0, 76, 0
1, 48740, Note_on_c, 0, 70, 0
1, 48740, Note_on_c, 0, 67, 0
1, 48744, Note_on_c, 1, 53, 0
1, 48744, Note_on_c, 1, 52, 75
1, 48756, Note_on_c, 1, 52, 0
1, 48756, Note_on_c, 1, 53, 75
1, 48768, Note_on_c, 0, 69, 84
1, 48768, Note_on_c, 1, 53, 0
1, 48768, Note_on_c, 1, 41, 75
1, 48776, Note_on_c, 0, 72, 84
1, 48784, Note_on_c, 0, 77, 84
1, 48857, Note_on_c, 1, 41, 0
1, 48861, Note_on_c, 0, 77, 0
1, 48861, Note_on_c, 0, 72, 0
1, 48861, Note_on_c, 0, 69, 0
1, 48960, Note_on_c, 1, 41, 0
1, 49049, Note_on_c, 1, 41, 0
1, 49059, End_track
0, 0, End_of_file