0, 0, Header, 0, 1, 1024
1, 0, Start_track
1, 0, Tempo, 500000
1, 4096, Note_on_c, 0, 72, 45
1, 4096, Note_on_c, 1, 60, 37
1, 4608, Note_on_c, 1, 67, 39
1, 5120, Note_on_c, 1, 67, 0
1, 5120, Note_on_c, 1, 64, 40
1, 5120, Note_on_c, 1, 60, 0
1, 5632, Note_on_c, 1, 64, 0
1, 5632, Note_on_c, 1, 67, 41
1, 6144, Note_on_c, 0, 72, 0
1, 6144, Note_on_c, 0, 76, 51
1, 6144, Note_on_c, 1, 67, 0
1, 6144, Note_on_c, 1, 60, 47
1, 6656, Note_on_c, 1, 67, 44
1, 7168, Note_on_c, 0, 76, 0
1, 7168, Note_on_c, 0, 79, 55
1, 7168, Note_on_c, 1, 67, 0
1, 7168, Note_on_c, 1, 64, 48
1, 7168, Note_on_c, 1, 60, 0
1, 7680, Note_on_c, 1, 64, 0
1, 7680, Note_on_c, 1, 67, 48
1, 8192, Note_on_c, 0, 79, 0
1, 8192, Note_on_c, 0, 71, 57
1, 8192, Note_on_c, 1, 67, 0
1, 8192, Note_on_c, 1, 59, 52
1, 8704, Note_on_c, 1, 67, 48
1, 9216, Note_on_c, 1, 67, 0
1, 9216, Note_on_c, 1, 65, 47
1, 9216, Note_on_c, 1, 59, 0
1, 9728, Note_on_c, 0, 71, 0
1, 9728, Note_on_c, 0, 72, 50
1, 9728, Note_on_c, 1, 65, 0
1, 9728, Note_on_c, 1, 67, 43
1, 9984, Note_on_c, 0, 72, 0
1, 9984, Note_on_c, 0, 74, 49
1, 10240, Note_on_c, 0, 74, 0
1, 10240, Note_on_c, 0, 72, 48
1, 10240, Note_on_c, 1, 67, 0
1, 10240, Note_on_c, 1, 60, 39
1, 10752, Note_on_c, 1, 67, 40
1, 11264, Note_on_c, 0, 72, 0
1, 11264, Note_on_c, 1, 67, 0
1, 11264, Note_on_c, 1, 64, 39
1, 11264, Note_on_c, 1, 60, 0
1, 11776, Note_on_c, 1, 64, 0
1, 11776, Note_on_c, 1, 67, 37
1, 12288, Note_on_c, 0, 81, 62
1, 12288, Note_on_c, 1, 67, 0
1, 12288, Note_on_c, 1, 60, 40
1, 12800, Note_on_c, 1, 69, 40
1, 13312, Note_on_c, 1, 69, 0
1, 13312, Note_on_c, 1, 65, 41
1, 13312, Note_on_c, 1, 60, 0
1, 13824, Note_on_c, 1, 65, 0
1, 13824, Note_on_c, 1, 69, 43
1, 14336, Note_on_c, 0, 81, 0
1, 14336, Note_on_c, 0, 79, 63
1, 14336, Note_on_c, 1, 69, 0
1, 14336, Note_on_c, 1, 60, 48
1, 14848, Note_on_c, 1, 67, 45
1, 15360, Note_on_c, 0, 79, 0
1, 15360, Note_on_c, 0, 84, 67
1, 15360, Note_on_c, 1, 67, 0
1, 15360, Note_on_c, 1, 64, 48
1, 15360, Note_on_c, 1, 60, 0
1, 15872, Note_on_c, 1, 64, 0
1, 15872, Note_on_c, 1, 67, 48
1, 16384, Note_on_c, 0, 84, 0
1, 16384, Note_on_c, 0, 79, 69
1, 16384, Note_on_c, 1, 67, 0
1, 16384, Note_on_c, 1, 59, 48
1, 16896, Note_on_c, 1, 67, 40
1, 17408, Note_on_c, 0, 79, 0
1, 17408, Note_on_c, 0, 77, 65
1, 17408, Note_on_c, 1, 67, 0
1, 17408, Note_on_c, 1, 62, 41
1, 17408, Note_on_c, 1, 59, 0
1, 17579, Note_on_c, 0, 77, 0
1, 17579, Note_on_c, 0, 79, 65
1, 17749, Note_on_c, 0, 79, 0
1, 17749, Note_on_c, 0, 77, 64
1, 17920, Note_on_c, 0, 77, 0
1, 17920, Note_on_c, 0, 76, 63
1, 17920, Note_on_c, 1, 62, 0
1, 17920, Note_on_c, 1, 67, 43
1, 18176, Note_on_c, 0, 76, 0
1, 18176, Note_on_c, 0, 77, 63
1, 18432, Note_on_c, 0, 77, 0
1, 18432, Note_on_c, 0, 76, 61
1, 18432, Note_on_c, 1, 67, 0
1, 18432, Note_on_c, 1, 60, 43
1, 18944, Note_on_c, 1, 67, 45
1, 19456, Note_on_c, 0, 76, 0
1, 19456, Note_on_c, 1, 67, 0
1, 19456, Note_on_c, 1, 64, 48
1, 19456, Note_on_c, 1, 60, 0
1, 19968, Note_on_c, 1, 64, 0
1, 19968, Note_on_c, 1, 67, 48
1, 20480, Note_on_c, 0, 69, 57
1, 20480, Note_on_c, 1, 67, 0
1, 20480, Note_on_c, 1, 65, 63
1, 20992, Note_on_c, 0, 69, 0
1, 20992, Note_on_c, 0, 71, 63
1, 21248, Note_on_c, 0, 71, 0
1, 21248, Note_on_c, 0, 72, 63
1, 21504, Note_on_c, 0, 72, 0
1, 21504, Note_on_c, 0, 74, 65
1, 21504, Note_on_c, 1, 65, 0
1, 21760, Note_on_c, 0, 74, 0
1, 21760, Note_on_c, 0, 76, 67
1, 22016, Note_on_c, 0, 76, 0
1, 22016, Note_on_c, 0, 77, 70
1, 22272, Note_on_c, 0, 77, 0
1, 22272, Note_on_c, 0, 79, 70
1, 22528, Note_on_c, 0, 79, 0
1, 22528, Note_on_c, 0, 81, 74
1, 22784, Note_on_c, 0, 81, 0
1, 22784, Note_on_c, 0, 79, 72
1, 23040, Note_on_c, 0, 79, 0
1, 23040, Note_on_c, 0, 77, 71
1, 23296, Note_on_c, 0, 77, 0
1, 23296, Note_on_c, 0, 76, 69
1, 23552, Note_on_c, 0, 76, 0
1, 23552, Note_on_c, 0, 74, 67
1, 23552, Note_on_c, 1, 53, 70
1, 23552, Note_on_c, 1, 60, 70
1, 23808, Note_on_c, 0, 74, 0
1, 23808, Note_on_c, 0, 72, 66
1, 24064, Note_on_c, 0, 72, 0
1, 24064, Note_on_c, 0, 71, 64
1, 24320, Note_on_c, 0, 71, 0
1, 24320, Note_on_c, 0, 69, 62
1, 24576, Note_on_c, 0, 69, 0
1, 24576, Note_on_c, 0, 67, 62
1, 24576, Note_on_c, 1, 53, 0
1, 24576, Note_on_c, 1, 60, 0
1, 24576, Note_on_c, 1, 52, 63
1, 24576, Note_on_c, 1, 60, 63
1, 25088, Note_on_c, 0, 67, 0
1, 25088, Note_on_c, 0, 69, 66
1, 25344, Note_on_c, 0, 69, 0
1, 25344, Note_on_c, 0, 71, 66
1, 25600, Note_on_c, 0, 71, 0
1, 25600, Note_on_c, 0, 72, 69
1, 25600, Note_on_c, 1, 52, 0
1, 25600, Note_on_c, 1, 60, 0
1, 25856, Note_on_c, 0, 72, 0
1, 25856, Note_on_c, 0, 74, 70
1, 26112, Note_on_c, 0, 74, 0
1, 26112, Note_on_c, 0, 76, 73
1, 26368, Note_on_c, 0, 76, 0
1, 26368, Note_on_c, 0, 77, 73
1, 26624, Note_on_c, 0, 77, 0
1, 26624, Note_on_c, 0, 79, 75
1, 26880, Note_on_c, 0, 79, 0
1, 26880, Note_on_c, 0, 77, 73
1, 27136, Note_on_c, 0, 77, 0
1, 27136, Note_on_c, 0, 76, 71
1, 27392, Note_on_c, 0, 76, 0
1, 27392, Note_on_c, 0, 74, 70
1, 27648, Note_on_c, 0, 74, 0
1, 27648, Note_on_c, 0, 72, 66
1, 27648, Note_on_c, 1, 52, 70
1, 27648, Note_on_c, 1, 60, 70
1, 27904, Note_on_c, 0, 72, 0
1, 27904, Note_on_c, 0, 71, 67
1, 28160, Note_on_c, 0, 71, 0
1, 28160, Note_on_c, 0, 69, 65
1, 28416, Note_on_c, 0, 69, 0
1, 28416, Note_on_c, 0, 67, 63
1, 28672, Note_on_c, 0, 67, 0
1, 28672, Note_on_c, 0, 65, 63
1, 28672, Note_on_c, 1, 52, 0
1, 28672, Note_on_c, 1, 60, 0
1, 28672, Note_on_c, 1, 50, 63
1, 28672, Note_on_c, 1, 60, 63
1, 29184, Note_on_c, 0, 65, 0
1, 29184, Note_on_c, 0, 67, 67
1, 29440, Note_on_c, 0, 67, 0
1, 29440, Note_on_c, 0, 69, 67
1, 29696, Note_on_c, 0, 69, 0
1, 29696, Note_on_c, 0, 71, 69
1, 29696, Note_on_c, 1, 50, 0
1, 29696, Note_on_c, 1, 60, 0
1, 29952, Note_on_c, 0, 71, 0
1, 29952, Note_on_c, 0, 72, 70
1, 30208, Note_on_c, 0, 72, 0
1, 30208, Note_on_c, 0, 74, 73
1, 30464, Note_on_c, 0, 74, 0
1, 30464, Note_on_c, 0, 76, 73
1, 30720, Note_on_c, 0, 76, 0
1, 30720, Note_on_c, 0, 77, 76
1, 30976, Note_on_c, 0, 77, 0
1, 30976, Note_on_c, 0, 76, 74
1, 31232, Note_on_c, 0, 76, 0
1, 31232, Note_on_c, 0, 74, 72
1, 31488, Note_on_c, 0, 74, 0
1, 31488, Note_on_c, 0, 72, 70
1, 31744, Note_on_c, 0, 72, 0
1, 31744, Note_on_c, 0, 71, 68
1, 31744, Note_on_c, 1, 50, 67
1, 31744, Note_on_c, 1, 59, 67
1, 32000, Note_on_c, 0, 71, 0
1, 32000, Note_on_c, 0, 69, 67
1, 32256, Note_on_c, 0, 69, 0
1, 32256, Note_on_c, 0, 67, 65
1, 32512, Note_on_c, 0, 67, 0
1, 32512, Note_on_c, 0, 65, 64
1, 32768, Note_on_c, 0, 65, 0
1, 32768, Note_on_c, 0, 64, 64
1, 32768, Note_on_c, 1, 50, 0
1, 32768, Note_on_c, 1, 59, 0
1, 32768, Note_on_c, 1, 48, 63
1, 32768, Note_on_c, 1, 60, 63
1, 33280, Note_on_c, 0, 64, 0
1, 33280, Note_on_c, 0, 65, 67
1, 33536, Note_on_c, 0, 65, 0
1, 33536, Note_on_c, 0, 67, 67
1, 33792, Note_on_c, 0, 67, 0
1, 33792, Note_on_c, 0, 69, 70
1, 33792, Note_on_c, 1, 48, 0
1, 33792, Note_on_c, 1, 60, 0
1, 34048, Note_on_c, 0, 69, 0
1, 34048, Note_on_c, 0, 71, 71
1, 34304, Note_on_c, 0, 71, 0
1, 34304, Note_on_c, 0, 72, 74
1, 34560, Note_on_c, 0, 72, 0
1, 34560, Note_on_c, 0, 74, 74
1, 34816, Note_on_c, 0, 74, 0
1, 34816, Note_on_c, 0, 76, 78
1, 35072, Note_on_c, 0, 76, 0
1, 35072, Note_on_c, 0, 74, 76
1, 35328, Note_on_c, 0, 74, 0
1, 35328, Note_on_c, 0, 72, 74
1, 35584, Note_on_c, 0, 72, 0
1, 35584, Note_on_c, 0, 71, 72
1, 35840, Note_on_c, 0, 71, 0
1, 35840, Note_on_c, 0, 69, 69
1, 35840, Note_on_c, 1, 48, 60
1, 35840, Note_on_c, 1, 52, 60
1, 36096, Note_on_c, 0, 69, 0
1, 36096, Note_on_c, 0, 67, 68
1, 36352, Note_on_c, 0, 67, 0
1, 36352, Note_on_c, 0, 65, 66
1, 36608, Note_on_c, 0, 65, 0
1, 36608, Note_on_c, 0, 64, 64
1, 36864, Note_on_c, 0, 64, 0
1, 36864, Note_on_c, 0, 62, 65
1, 36864, Note_on_c, 1, 48, 0
1, 36864, Note_on_c, 1, 52, 0
1, 36864, Note_on_c, 1, 53, 65
1, 36864, Note_on_c, 1, 57, 65
1, 37376, Note_on_c, 0, 62, 0
1, 37376, Note_on_c, 0, 64, 66
1, 37632, Note_on_c, 0, 64, 0
1, 37632, Note_on_c, 0, 65, 66
1, 37888, Note_on_c, 0, 65, 0
1, 37888, Note_on_c, 0, 67, 68
1, 38144, Note_on_c, 0, 67, 0
1, 38144, Note_on_c, 0, 69, 68
1, 38400, Note_on_c, 0, 69, 0
1, 38400, Note_on_c, 0, 71, 69
1, 38656, Note_on_c, 0, 71, 0
1, 38656, Note_on_c, 0, 73, 69
1, 38912, Note_on_c, 0, 73, 0
1, 38912, Note_on_c, 0, 74, 69
1, 39168, Note_on_c, 0, 74, 0
1, 39168, Note_on_c, 0, 69, 69
1, 39424, Note_on_c, 0, 69, 0
1, 39424, Note_on_c, 0, 71, 69
1, 39680, Note_on_c, 0, 71, 0
1, 39680, Note_on_c, 0, 73, 70
1, 39936, Note_on_c, 0, 73, 0
1, 39936, Note_on_c, 0, 74, 70
1, 40192, Note_on_c, 0, 74, 0
1, 40192, Note_on_c, 0, 76, 70
1, 40448, Note_on_c, 0, 76, 0
1, 40448, Note_on_c, 0, 77, 71
1, 40704, Note_on_c, 0, 77, 0
1, 40704, Note_on_c, 0, 79, 71
1, 40960, Note_on_c, 0, 79, 0
1, 40960, Note_on_c, 0, 81, 72
1, 40960, Note_on_c, 1, 53, 0
1, 40960, Note_on_c, 1, 57, 0
1, 40960, Note_on_c, 1, 53, 71
1, 41216, Note_on_c, 0, 81, 0
1, 41216, Note_on_c, 0, 83, 72
1, 41472, Note_on_c, 0, 83, 0
1, 41472, Note_on_c, 0, 84, 72
1, 41728, Note_on_c, 0, 84, 0
1, 41728, Note_on_c, 0, 83, 73
1, 41984, Note_on_c, 0, 83, 0
1, 41984, Note_on_c, 0, 81, 74
1, 42240, Note_on_c, 0, 81, 0
1, 42240, Note_on_c, 0, 79, 74
1, 42496, Note_on_c, 0, 79, 0
1, 42496, Note_on_c, 0, 77, 74
1, 42496, Note_on_c, 1, 53, 0
1, 42496, Note_on_c, 1, 55, 74
1, 42752, Note_on_c, 0, 77, 0
1, 42752, Note_on_c, 0, 76, 75
1, 43008, Note_on_c, 0, 76, 0
1, 43008, Note_on_c, 0, 77, 76
1, 43008, Note_on_c, 1, 55, 0
1, 43008, Note_on_c, 1, 57, 76
1, 43264, Note_on_c, 0, 77, 0
1, 43264, Note_on_c, 0, 79, 76
1, 43520, Note_on_c, 0, 79, 0
1, 43520, Note_on_c, 0, 81, 76
1, 43776, Note_on_c, 0, 81, 0
1, 43776, Note_on_c, 0, 79, 77
1, 44032, Note_on_c, 0, 79, 0
1, 44032, Note_on_c, 0, 77, 78
1, 44288, Note_on_c, 0, 77, 0
1, 44288, Note_on_c, 0, 76, 78
1, 44544, Note_on_c, 0, 76, 0
1, 44544, Note_on_c, 0, 74, 78
1, 44544, Note_on_c, 1, 57, 0
1, 44544, Note_on_c, 1, 54, 76
1, 44800, Note_on_c, 0, 74, 0
1, 44800, Note_on_c, 0, 72, 78
1, 45056, Note_on_c, 0, 72, 0
1, 45056, Note_on_c, 0, 71, 79
1, 45056, Note_on_c, 1, 54, 0
1, 45056, Note_on_c, 1, 43, 72
1, 45312, Note_on_c, 1, 47, 72
1, 45568, Note_on_c, 0, 71, 0
1, 45568, Note_on_c, 0, 79, 80
1, 45568, Note_on_c, 1, 47, 0
1, 45568, Note_on_c, 1, 50, 72
1, 45824, Note_on_c, 1, 50, 0
1, 45824, Note_on_c, 1, 55, 73
1, 46080, Note_on_c, 0, 79, 0
1, 46080, Note_on_c, 0, 76, 81
1, 46080, Note_on_c, 1, 55, 0
1, 46080, Note_on_c, 1, 43, 0
1, 46080, Note_on_c, 1, 43, 72
1, 46336, Note_on_c, 1, 48, 76
1, 46592, Note_on_c, 0, 76, 0
1, 46592, Note_on_c, 0, 72, 83
1, 46592, Note_on_c, 1, 48, 0
1, 46592, Note_on_c, 1, 52, 77
1, 46848, Note_on_c, 1, 52, 0
1, 46848, Note_on_c, 1, 55, 78
1, 47104, Note_on_c, 0, 72, 0
1, 47104, Note_on_c, 0, 74, 83
1, 47104, Note_on_c, 1, 55, 0
1, 47104, Note_on_c, 1, 43, 0
1, 47104, Note_on_c, 1, 43, 73
1, 47360, Note_on_c, 1, 47, 80
1, 47616, Note_on_c, 0, 74, 0
1, 47616, Note_on_c, 0, 79, 84
1, 47616, Note_on_c, 1, 47, 0
1, 47616, Note_on_c, 1, 50, 80
1, 47872, Note_on_c, 1, 50, 0
1, 47872, Note_on_c, 1, 55, 81
1, 48128, Note_on_c, 0, 79, 0
1, 48128, Note_on_c, 0, 76, 85
1, 48128, Note_on_c, 1, 55, 0
1, 48128, Note_on_c, 1, 43, 0
1, 48128, Note_on_c, 1, 43, 73
1, 48384, Note_on_c, 1, 48, 84
1, 48640, Note_on_c, 0, 76, 0
1, 48640, Note_on_c, 0, 72, 86
1, 48640, Note_on_c, 1, 48, 0
1, 48640, Note_on_c, 1, 52, 84
1, 48896, Note_on_c, 1, 52, 0
1, 48896, Note_on_c, 1, 55, 85
1, 49152, Note_on_c, 0, 72, 0
1, 49152, Note_on_c, 0, 74, 103
1, 49152, Note_on_c, 1, 55, 0
1, 49152, Note_on_c, 1, 43, 0
1, 49152, Note_on_c, 1, 43, 91
1, 50176, Note_on_c, 0, 74, 0
1, 50176, Note_on_c, 0, 71, 88
1, 50176, Note_on_c, 0, 74, 88
1, 50176, Note_on_c, 0, 79, 88
1, 50176, Note_on_c, 1, 43, 0
1, 50176, Note_on_c, 1, 55, 75
1, 50278, Note_on_c, 0, 71, 0
1, 50381, Note_on_c, 0, 74, 0
1, 50483, Note_on_c, 0, 79, 0
1, 50483, Note_on_c, 1, 55, 0
1, 51200, Note_on_c, 0, 67, 84
1, 51200, Note_on_c, 1, 43, 73
1, 51507, Note_on_c, 0, 67, 0
1, 51507, Note_on_c, 1, 43, 0
1, 53248, Note_on_c, 1, 61, 70
1, 53504, Note_on_c, 1, 61, 0
1, 53504, Note_on_c, 1, 62, 55
1, 53760, Note_on_c, 1, 62, 0
1, 53760, Note_on_c, 1, 61, 54
1, 54016, Note_on_c, 1, 61, 0
1, 54016, Note_on_c, 1, 62, 51
1, 54272, Note_on_c, 1, 62, 0
1, 54272, Note_on_c, 1, 61, 50
1, 54528, Note_on_c, 1, 61, 0
1, 54528, Note_on_c, 1, 62, 48
1, 54784, Note_on_c, 1, 62, 0
1, 54784, Note_on_c, 1, 61, 46
1, 55040, Note_on_c, 1, 61, 0
1, 55040, Note_on_c, 1, 62, 44
1, 55296, Note_on_c, 1, 62, 0
1, 55296, Note_on_c, 1, 60, 43
1, 55552, Note_on_c, 1, 60, 0
1, 55552, Note_on_c, 1, 62, 43
1, 55808, Note_on_c, 1, 62, 0
1, 55808, Note_on_c, 1, 60, 45
1, 56064, Note_on_c, 1, 60, 0
1, 56064, Note_on_c, 1, 62, 46
1, 56320, Note_on_c, 1, 62, 0
1, 56320, Note_on_c, 1, 60, 49
1, 56576, Note_on_c, 1, 60, 0
1, 56576, Note_on_c, 1, 62, 51
1, 56832, Note_on_c, 1, 62, 0
1, 56832, Note_on_c, 1, 60, 53
1, 57088, Note_on_c, 1, 60, 0
1, 57088, Note_on_c, 1, 62, 55
1, 57344, Note_on_c, 0, 86, 74
1, 57344, Note_on_c, 1, 62, 0
1, 57344, Note_on_c, 1, 59, 57
1, 57600, Note_on_c, 1, 62, 55
1, 57856, Note_on_c, 0, 86, 0
1, 57856, Note_on_c, 0, 83, 64
1, 57856, Note_on_c, 1, 59, 0
1, 57856, Note_on_c, 1, 62, 0
1, 57856, Note_on_c, 1, 59, 53
1, 58112, Note_on_c, 1, 59, 0
1, 58112, Note_on_c, 1, 62, 51
1, 58368, Note_on_c, 0, 83, 0
1, 58368, Note_on_c, 0, 79, 58
1, 58368, Note_on_c, 1, 62, 0
1, 58368, Note_on_c, 1, 59, 49
1, 58624, Note_on_c, 1, 59, 0
1, 58624, Note_on_c, 1, 62, 46
1, 58880, Note_on_c, 1, 62, 0
1, 58880, Note_on_c, 1, 59, 45
1, 59136, Note_on_c, 1, 59, 0
1, 59136, Note_on_c, 1, 62, 43
1, 59392, Note_on_c, 1, 62, 0
1, 59392, Note_on_c, 1, 59, 42
1, 59648, Note_on_c, 1, 59, 0
1, 59648, Note_on_c, 1, 62, 43
1, 59904, Note_on_c, 0, 79, 0
1, 59904, Note_on_c, 0, 81, 59
1, 59904, Note_on_c, 1, 62, 0
1, 59904, Note_on_c, 1, 59, 45
1, 60160, Note_on_c, 0, 81, 0
1, 60160, Note_on_c, 0, 83, 60
1, 60160, Note_on_c, 1, 59, 0
1, 60160, Note_on_c, 1, 62, 46
1, 60416, Note_on_c, 0, 83, 0
1, 60416, Note_on_c, 0, 81, 60
1, 60416, Note_on_c, 1, 62, 0
1, 60416, Note_on_c, 1, 59, 49
1, 60672, Note_on_c, 1, 59, 0
1, 60672, Note_on_c, 1, 62, 51
1, 60928, Note_on_c, 0, 81, 0
1, 60928, Note_on_c, 0, 79, 63
1, 60928, Note_on_c, 1, 62, 0
1, 60928, Note_on_c, 1, 59, 53
1, 61184, Note_on_c, 1, 59, 0
1, 61184, Note_on_c, 1, 62, 55
1, 61440, Note_on_c, 0, 79, 0
1, 61440, Note_on_c, 0, 79, 68
1, 61440, Note_on_c, 1, 62, 0
1, 61440, Note_on_c, 1, 60, 52
1, 61594, Note_on_c, 0, 79, 0
1, 61594, Note_on_c, 0, 81, 59
1, 61696, Note_on_c, 1, 62, 55
1, 61747, Note_on_c, 0, 81, 0
1, 61747, Note_on_c, 0, 79, 58
1, 61901, Note_on_c, 0, 79, 0
1, 61901, Note_on_c, 0, 81, 56
1, 61952, Note_on_c, 1, 62, 0
1, 61952, Note_on_c, 1, 59, 54
1, 61952, Note_on_c, 1, 60, 0
1, 62054, Note_on_c, 0, 81, 0
1, 62054, Note_on_c, 0, 79, 54
1, 62208, Note_on_c, 0, 79, 0
1, 62208, Note_on_c, 0, 78, 59
1, 62208, Note_on_c, 1, 59, 0
1, 62208, Note_on_c, 1, 62, 51
1, 62464, Note_on_c, 0, 78, 0
1, 62464, Note_on_c, 0, 78, 60
1, 62464, Note_on_c, 1, 62, 0
1, 62464, Note_on_c, 1, 57, 49
1, 62720, Note_on_c, 1, 62, 48
1, 62976, Note_on_c, 1, 62, 0
1, 62976, Note_on_c, 1, 59, 46
1, 62976, Note_on_c, 1, 57, 0
1, 63232, Note_on_c, 1, 59, 0
1, 63232, Note_on_c, 1, 62, 44
1, 63488, Note_on_c, 0, 78, 0
1, 63488, Note_on_c, 1, 62, 0
1, 63488, Note_on_c, 1, 60, 43
1, 63744, Note_on_c, 1, 60, 0
1, 63744, Note_on_c, 1, 62, 43
1, 64000, Note_on_c, 1, 62, 0
1, 64000, Note_on_c, 1, 59, 45
1, 64256, Note_on_c, 1, 59, 0
1, 64256, Note_on_c, 1, 62, 45
1, 64512, Note_on_c, 1, 62, 0
1, 64512, Note_on_c, 1, 60, 48
1, 64768, Note_on_c, 1, 60, 0
1, 64768, Note_on_c, 1, 62, 49
1, 65024, Note_on_c, 1, 62, 0
1, 65024, Note_on_c, 1, 57, 51
1, 65280, Note_on_c, 1, 57, 0
1, 65280, Note_on_c, 1, 62, 52
1, 65536, Note_on_c, 0, 86, 78
1, 65536, Note_on_c, 1, 62, 0
1, 65536, Note_on_c, 1, 59, 58
1, 65792, Note_on_c, 1, 62, 55
1, 66048, Note_on_c, 0, 86, 0
1, 66048, Note_on_c, 0, 83, 66
1, 66048, Note_on_c, 1, 59, 0
1, 66048, Note_on_c, 1, 62, 0
1, 66048, Note_on_c, 1, 59, 53
1, 66304, Note_on_c, 1, 59, 0
1, 66304, Note_on_c, 1, 62, 51
1, 66560, Note_on_c, 0, 83, 0
1, 66560, Note_on_c, 0, 79, 58
1, 66560, Note_on_c, 1, 62, 0
1, 66560, Note_on_c, 1, 59, 49
1, 66816, Note_on_c, 1, 59, 0
1, 66816, Note_on_c, 1, 62, 46
1, 67072, Note_on_c, 1, 62, 0
1, 67072, Note_on_c, 1, 59, 45
1, 67328, Note_on_c, 1, 59, 0
1, 67328, Note_on_c, 1, 62, 43
1, 67584, Note_on_c, 1, 62, 0
1, 67584, Note_on_c, 1, 59, 42
1, 67840, Note_on_c, 1, 59, 0
1, 67840, Note_on_c, 1, 62, 43
1, 68096, Note_on_c, 0, 79, 0
1, 68096, Note_on_c, 0, 81, 59
1, 68096, Note_on_c, 1, 62, 0
1, 68096, Note_on_c, 1, 59, 45
1, 68352, Note_on_c, 0, 81, 0
1, 68352, Note_on_c, 0, 83, 59
1, 68352, Note_on_c, 1, 59, 0
1, 68352, Note_on_c, 1, 62, 46
1, 68608, Note_on_c, 0, 83, 0
1, 68608, Note_on_c, 0, 81, 60
1, 68608, Note_on_c, 1, 62, 0
1, 68608, Note_on_c, 1, 59, 49
1, 68864, Note_on_c, 1, 59, 0
1, 68864, Note_on_c, 1, 62, 51
1, 69120, Note_on_c, 0, 81, 0
1, 69120, Note_on_c, 0, 79, 63
1, 69120, Note_on_c, 1, 62, 0
1, 69120, Note_on_c, 1, 59, 53
1, 69376, Note_on_c, 1, 59, 0
1, 69376, Note_on_c, 1, 62, 55
1, 69632, Note_on_c, 0, 79, 0
1, 69632, Note_on_c, 0, 79, 67
1, 69632, Note_on_c, 1, 62, 0
1, 69632, Note_on_c, 1, 60, 52
1, 69786, Note_on_c, 0, 79, 0
1, 69786, Note_on_c, 0, 81, 59
1, 69888, Note_on_c, 1, 62, 55
1, 69939, Note_on_c, 0, 81, 0
1, 69939, Note_on_c, 0, 79, 58
1, 70093, Note_on_c, 0, 79, 0
1, 70093, Note_on_c, 0, 81, 56
1, 70144, Note_on_c, 1, 62, 0
1, 70144, Note_on_c, 1, 59, 54
1, 70144, Note_on_c, 1, 60, 0
1, 70246, Note_on_c, 0, 81, 0
1, 70246, Note_on_c, 0, 79, 54
1, 70400, Note_on_c, 0, 79, 0
1, 70400, Note_on_c, 0, 78, 58
1, 70400, Note_on_c, 1, 59, 0
1, 70400, Note_on_c, 1, 62, 51
1, 70656, Note_on_c, 0, 78, 0
1, 70656, Note_on_c, 0, 78, 59
1, 70656, Note_on_c, 1, 62, 0
1, 70656, Note_on_c, 1, 57, 49
1, 70912, Note_on_c, 1, 62, 48
1, 71168, Note_on_c, 1, 62, 0
1, 71168, Note_on_c, 1, 59, 46
1, 71168, Note_on_c, 1, 57, 0
1, 71424, Note_on_c, 1, 59, 0
1, 71424, Note_on_c, 1, 62, 44
1, 71680, Note_on_c, 0, 78, 0
1, 71680, Note_on_c, 1, 62, 0
1, 71680, Note_on_c, 1, 60, 46
1, 71936, Note_on_c, 1, 60, 0
1, 71936, Note_on_c, 1, 62, 47
1, 72192, Note_on_c, 1, 62, 0
1, 72192, Note_on_c, 1, 57, 49
1, 72448, Note_on_c, 1, 57, 0
1, 72448, Note_on_c, 1, 60, 50
1, 72704, Note_on_c, 1, 60, 0
1, 72704, Note_on_c, 1, 62, 52
1, 72960, Note_on_c, 1, 62, 0
1, 72960, Note_on_c, 1, 57, 53
1, 73216, Note_on_c, 1, 57, 0
1, 73216, Note_on_c, 1, 62, 55
1, 73472, Note_on_c, 1, 62, 0
1, 73728, Note_on_c, 0, 86, 87
1, 73984, Note_on_c, 1, 59, 85
1, 74240, Note_on_c, 1, 59, 0
1, 74240, Note_on_c, 1, 62, 83
1, 74496, Note_on_c, 1, 62, 0
1, 74496, Note_on_c, 1, 67, 81
1, 74752, Note_on_c, 0, 86, 0
1, 74752, Note_on_c, 1, 67, 0
1, 74752, Note_on_c, 1, 71, 79
1, 75008, Note_on_c, 0, 86, 77
1, 75264, Note_on_c, 0, 86, 0
1, 75264, Note_on_c, 0, 83, 75
1, 75520, Note_on_c, 0, 83, 0
1, 75520, Note_on_c, 0, 79, 74
1, 75776, Note_on_c, 0, 79, 0
1, 75776, Note_on_c, 0, 76, 72
1, 75776, Note_on_c, 1, 71, 0
1, 76032, Note_on_c, 1, 60, 71
1, 76288, Note_on_c, 1, 60, 0
1, 76288, Note_on_c, 1, 64, 70
1, 76544, Note_on_c, 1, 64, 0
1, 76544, Note_on_c, 1, 67, 68
1, 76800, Note_on_c, 0, 76, 0
1, 76800, Note_on_c, 1, 67, 0
1, 76800, Note_on_c, 1, 72, 67
1, 77056, Note_on_c, 0, 76, 67
1, 77312, Note_on_c, 0, 76, 0
1, 77312, Note_on_c, 0, 79, 70
1, 77568, Note_on_c, 0, 79, 0
1, 77568, Note_on_c, 0, 76, 73
1, 77824, Note_on_c, 0, 76, 0
1, 77824, Note_on_c, 0, 84, 87
1, 77824, Note_on_c, 1, 72, 0
1, 78080, Note_on_c, 1, 57, 86
1, 78336, Note_on_c, 1, 57, 0
1, 78336, Note_on_c, 1, 60, 84
1, 78592, Note_on_c, 1, 60, 0
1, 78592, Note_on_c, 1, 66, 82
1, 78848, Note_on_c, 0, 84, 0
1, 78848, Note_on_c, 1, 66, 0
1, 78848, Note_on_c, 1, 69, 80
1, 79104, Note_on_c, 0, 84, 78
1, 79360, Note_on_c, 0, 84, 0
1, 79360, Note_on_c, 0, 81, 76
1, 79616, Note_on_c, 0, 81, 0
1, 79616, Note_on_c, 0, 78, 75
1, 79872, Note_on_c, 0, 78, 0
1, 79872, Note_on_c, 0, 74, 73
1, 79872, Note_on_c, 1, 69, 0
1, 80128, Note_on_c, 1, 59, 72
1, 80384, Note_on_c, 1, 59, 0
1, 80384, Note_on_c, 1, 62, 71
1, 80640, Note_on_c, 1, 62, 0
1, 80640, Note_on_c, 1, 66, 69
1, 80896, Note_on_c, 0, 74, 0
1, 80896, Note_on_c, 1, 66, 0
1, 80896, Note_on_c, 1, 71, 68
1, 81152, Note_on_c, 0, 74, 67
1, 81408, Note_on_c, 0, 74, 0
1, 81408, Note_on_c, 0, 78, 70
1, 81664, Note_on_c, 0, 78, 0
1, 81664, Note_on_c, 0, 74, 73
1, 81920, Note_on_c, 0, 74, 0
1, 81920, Note_on_c, 0, 83, 87
1, 81920, Note_on_c, 1, 71, 0
1, 82176, Note_on_c, 1, 55, 85
1, 82432, Note_on_c, 1, 55, 0
1, 82432, Note_on_c, 1, 59, 83
1, 82688, Note_on_c, 1, 59, 0
1, 82688, Note_on_c, 1, 64, 81
1, 82944, Note_on_c, 0, 83, 0
1, 82944, Note_on_c, 1, 64, 0
1, 82944, Note_on_c, 1, 67, 79
1, 83200, Note_on_c, 0, 83, 77
1, 83456, Note_on_c, 0, 83, 0
1, 83456, Note_on_c, 0, 79, 75
1, 83712, Note_on_c, 0, 79, 0
1, 83712, Note_on_c, 0, 76, 72
1, 83968, Note_on_c, 0, 76, 0
1, 83968, Note_on_c, 0, 72, 70
1, 83968, Note_on_c, 1, 67, 0
1, 84224, Note_on_c, 1, 57, 72
1, 84480, Note_on_c, 1, 57, 0
1, 84480, Note_on_c, 1, 60, 70
1, 84736, Note_on_c, 1, 60, 0
1, 84736, Note_on_c, 1, 64, 68
1, 84992, Note_on_c, 0, 72, 0
1, 84992, Note_on_c, 1, 64, 0
1, 84992, Note_on_c, 1, 69, 66
1, 85248, Note_on_c, 0, 72, 66
1, 85504, Note_on_c, 0, 72, 0
1, 85504, Note_on_c, 0, 76, 70
1, 85760, Note_on_c, 0, 76, 0
1, 85760, Note_on_c, 0, 72, 73
1, 86016, Note_on_c, 0, 72, 0
1, 86016, Note_on_c, 0, 81, 87
1, 86016, Note_on_c, 1, 69, 0
1, 86272, Note_on_c, 1, 54, 85
1, 86528, Note_on_c, 1, 54, 0
1, 86528, Note_on_c, 1, 57, 83
1, 86784, Note_on_c, 1, 57, 0
1, 86784, Note_on_c, 1, 62, 81
1, 87040, Note_on_c, 0, 81, 0
1, 87040, Note_on_c, 1, 62, 0
1, 87040, Note_on_c, 1, 66, 79
1, 87296, Note_on_c, 0, 81, 77
1, 87552, Note_on_c, 0, 81, 0
1, 87552, Note_on_c, 0, 78, 75
1, 87808, Note_on_c, 0, 78, 0
1, 87808, Note_on_c, 0, 74, 74
1, 88064, Note_on_c, 0, 74, 0
1, 88064, Note_on_c, 0, 71, 72
1, 88064, Note_on_c, 1, 66, 0
1, 88320, Note_on_c, 1, 55, 71
1, 88576, Note_on_c, 1, 55, 0
1, 88576, Note_on_c, 1, 59, 69
1, 88832, Note_on_c, 1, 59, 0
1, 88832, Note_on_c, 1, 62, 67
1, 89088, Note_on_c, 0, 71, 0
1, 89088, Note_on_c, 1, 62, 0
1, 89088, Note_on_c, 1, 67, 65
1, 89344, Note_on_c, 0, 79, 76
1, 89600, Note_on_c, 0, 79, 0
1, 89600, Note_on_c, 0, 74, 77
1, 89856, Note_on_c, 0, 74, 0
1, 89856, Note_on_c, 0, 71, 78
1, 90112, Note_on_c, 0, 71, 0
1, 90112, Note_on_c, 0, 69, 79
1, 90112, Note_on_c, 1, 67, 0
1, 90112, Note_on_c, 1, 60, 60
1, 90112, Note_on_c, 1, 64, 60
1, 90624, Note_on_c, 1, 60, 0
1, 90624, Note_on_c, 1, 64, 0
1, 90624, Note_on_c, 1, 60, 62
1, 90624, Note_on_c, 1, 64, 62
1, 91136, Note_on_c, 1, 60, 0
1, 91136, Note_on_c, 1, 64, 0
1, 91136, Note_on_c, 1, 60, 62
1, 91136, Note_on_c, 1, 64, 62
1, 91648, Note_on_c, 1, 60, 0
1, 91648, Note_on_c, 1, 64, 0
1, 91648, Note_on_c, 1, 60, 64
1, 91648, Note_on_c, 1, 64, 64
1, 92080, Note_on_c, 0, 71, 80
1, 92160, Note_on_c, 0, 69, 0
1, 92160, Note_on_c, 0, 71, 0
1, 92160, Note_on_c, 0, 72, 80
1, 92160, Note_on_c, 1, 60, 0
1, 92160, Note_on_c, 1, 64, 0
1, 92160, Note_on_c, 1, 60, 66
1, 92160, Note_on_c, 1, 64, 66
1, 92672, Note_on_c, 1, 60, 0
1, 92672, Note_on_c, 1, 64, 0
1, 92672, Note_on_c, 1, 60, 65
1, 92672, Note_on_c, 1, 64, 65
1, 93104, Note_on_c, 0, 75, 82
1, 93184, Note_on_c, 0, 72, 0
1, 93184, Note_on_c, 0, 75, 0
1, 93184, Note_on_c, 0, 76, 82
1, 93184, Note_on_c, 1, 60, 0
1, 93184, Note_on_c, 1, 64, 0
1, 93184, Note_on_c, 1, 60, 67
1, 93184, Note_on_c, 1, 64, 67
1, 93696, Note_on_c, 1, 60, 0
1, 93696, Note_on_c, 1, 64, 0
1, 93696, Note_on_c, 1, 60, 68
1, 93696, Note_on_c, 1, 64, 68
1, 94128, Note_on_c, 0, 80, 84
1, 94208, Note_on_c, 0, 76, 0
1, 94208, Note_on_c, 0, 80, 0
1, 94208, Note_on_c, 0, 81, 84
1, 94208, Note_on_c, 1, 60, 0
1, 94208, Note_on_c, 1, 64, 0
1, 94208, Note_on_c, 1, 60, 68
1, 94208, Note_on_c, 1, 64, 68
1, 94720, Note_on_c, 1, 60, 0
1, 94720, Note_on_c, 1, 64, 0
1, 94720, Note_on_c, 1, 60, 70
1, 94720, Note_on_c, 1, 64, 70
1, 95232, Note_on_c, 1, 60, 0
1, 95232, Note_on_c, 1, 64, 0
1, 95232, Note_on_c, 1, 60, 71
1, 95232, Note_on_c, 1, 64, 71
1, 95744, Note_on_c, 0, 81, 0
1, 95744, Note_on_c, 0, 83, 85
1, 95744, Note_on_c, 1, 60, 0
1, 95744, Note_on_c, 1, 64, 0
1, 95744, Note_on_c, 1, 60, 73
1, 95744, Note_on_c, 1, 64, 73
1, 95872, Note_on_c, 0, 83, 0
1, 95872, Note_on_c, 0, 81, 85
1, 96000, Note_on_c, 0, 81, 0
1, 96000, Note_on_c, 0, 80, 86
1, 96128, Note_on_c, 0, 80, 0
1, 96128, Note_on_c, 0, 81, 86
1, 96256, Note_on_c, 0, 81, 0
1, 96256, Note_on_c, 0, 84, 86
1, 96256, Note_on_c, 1, 60, 0
1, 96256, Note_on_c, 1, 64, 0
1, 96256, Note_on_c, 1, 60, 74
1, 96256, Note_on_c, 1, 64, 74
1, 96768, Note_on_c, 0, 84, 0
1, 96768, Note_on_c, 0, 81, 87
1, 96768, Note_on_c, 1, 60, 0
1, 96768, Note_on_c, 1, 64, 0
1, 96768, Note_on_c, 1, 60, 76
1, 96768, Note_on_c, 1, 64, 76
1, 97280, Note_on_c, 0, 81, 0
1, 97280, Note_on_c, 0, 84, 88
1, 97280, Note_on_c, 1, 60, 0
1, 97280, Note_on_c, 1, 64, 0
1, 97280, Note_on_c, 1, 60, 77
1, 97280, Note_on_c, 1, 64, 77
1, 97792, Note_on_c, 0, 84, 0
1, 97792, Note_on_c, 0, 81, 89
1, 97792, Note_on_c, 1, 60, 0
1, 97792, Note_on_c, 1, 64, 0
1, 97792, Note_on_c, 1, 60, 79
1, 97792, Note_on_c, 1, 64, 79
1, 98304, Note_on_c, 0, 81, 0
1, 98304, Note_on_c, 0, 83, 91
1, 98304, Note_on_c, 1, 60, 0
1, 98304, Note_on_c, 1, 64, 0
1, 98304, Note_on_c, 1, 62, 81
1, 98560, Note_on_c, 1, 71, 80
1, 98816, Note_on_c, 0, 83, 0
1, 98816, Note_on_c, 0, 79, 93
1, 98816, Note_on_c, 1, 71, 0
1, 98816, Note_on_c, 1, 67, 82
1, 99072, Note_on_c, 1, 67, 0
1, 99072, Note_on_c, 1, 71, 84
1, 99328, Note_on_c, 0, 79, 0
1, 99328, Note_on_c, 0, 86, 114
1, 99328, Note_on_c, 1, 71, 0
1, 99328, Note_on_c, 1, 62, 0
1, 99328, Note_on_c, 1, 62, 99
1, 99584, Note_on_c, 1, 71, 88
1, 99840, Note_on_c, 1, 71, 0
1, 99840, Note_on_c, 1, 67, 87
1, 100096, Note_on_c, 1, 67, 0
1, 100096, Note_on_c, 1, 71, 86
1, 100352, Note_on_c, 1, 71, 0
1, 100352, Note_on_c, 1, 62, 0
1, 100352, Note_on_c, 1, 62, 84
1, 100608, Note_on_c, 1, 71, 84
1, 100864, Note_on_c, 1, 71, 0
1, 100864, Note_on_c, 1, 67, 84
1, 101120, Note_on_c, 1, 67, 0
1, 101120, Note_on_c, 1, 71, 83
1, 101376, Note_on_c, 0, 86, 0
1, 101376, Note_on_c, 0, 84, 101
1, 101376, Note_on_c, 1, 71, 0
1, 101376, Note_on_c, 1, 62, 0
1, 101376, Note_on_c, 1, 62, 81
1, 101632, Note_on_c, 0, 84, 0
1, 101632, Note_on_c, 0, 83, 93
1, 101632, Note_on_c, 1, 71, 81
1, 101888, Note_on_c, 0, 83, 0
1, 101888, Note_on_c, 0, 81, 91
1, 101888, Note_on_c, 1, 71, 0
1, 101888, Note_on_c, 1, 67, 80
1, 102144, Note_on_c, 0, 81, 0
1, 102144, Note_on_c, 0, 79, 90
1, 102144, Note_on_c, 1, 67, 0
1, 102144, Note_on_c, 1, 71, 79
1, 102400, Note_on_c, 0, 79, 0
1, 102400, Note_on_c, 0, 81, 90
1, 102400, Note_on_c, 1, 71, 0
1, 102400, Note_on_c, 1, 62, 0
1, 102400, Note_on_c, 1, 62, 76
1, 102656, Note_on_c, 0, 81, 0
1, 102656, Note_on_c, 0, 83, 89
1, 102656, Note_on_c, 1, 72, 77
1, 102784, Note_on_c, 0, 83, 0
1, 102784, Note_on_c, 0, 81, 88
1, 102912, Note_on_c, 0, 81, 0
1, 102912, Note_on_c, 0, 83, 86
1, 102912, Note_on_c, 1, 72, 0
1, 102912, Note_on_c, 1, 66, 75
1, 103040, Note_on_c, 0, 83, 0
1, 103040, Note_on_c, 0, 81, 86
1, 103168, Note_on_c, 0, 81, 0
1, 103168, Note_on_c, 0, 83, 85
1, 103168, Note_on_c, 1, 66, 0
1, 103168, Note_on_c, 1, 72, 75
1, 103296, Note_on_c, 0, 83, 0
1, 103296, Note_on_c, 0, 81, 85
1, 103424, Note_on_c, 0, 81, 0
1, 103424, Note_on_c, 0, 83, 84
1, 103424, Note_on_c, 1, 72, 0
1, 103424, Note_on_c, 1, 62, 0
1, 103424, Note_on_c, 1, 62, 72
1, 103552, Note_on_c, 0, 83, 0
1, 103552, Note_on_c, 0, 81, 84
1, 103680, Note_on_c, 0, 81, 0
1, 103680, Note_on_c, 0, 83, 81
1, 103680, Note_on_c, 1, 72, 73
1, 103808, Note_on_c, 0, 83, 0
1, 103808, Note_on_c, 0, 81, 81
1, 103936, Note_on_c, 0, 81, 0
1, 103936, Note_on_c, 0, 83, 78
1, 103936, Note_on_c, 1, 72, 0
1, 103936, Note_on_c, 1, 66, 72
1, 104064, Note_on_c, 0, 83, 0
1, 104064, Note_on_c, 0, 81, 77
1, 104192, Note_on_c, 0, 81, 0
1, 104192, Note_on_c, 0, 83, 77
1, 104192, Note_on_c, 1, 66, 0
1, 104192, Note_on_c, 1, 72, 71
1, 104320, Note_on_c, 0, 83, 0
1, 104320, Note_on_c, 0, 81, 77
1, 104448, Note_on_c, 0, 81, 0
1, 104448, Note_on_c, 0, 83, 76
1, 104448, Note_on_c, 1, 72, 0
1, 104448, Note_on_c, 1, 62, 0
1, 104448, Note_on_c, 1, 62, 68
1, 104576, Note_on_c, 0, 83, 0
1, 104576, Note_on_c, 0, 81, 75
1, 104704, Note_on_c, 0, 81, 0
1, 104704, Note_on_c, 0, 83, 73
1, 104704, Note_on_c, 1, 72, 68
1, 104832, Note_on_c, 0, 83, 0
1, 104832, Note_on_c, 0, 81, 73
1, 104960, Note_on_c, 0, 81, 0
1, 104960, Note_on_c, 0, 83, 73
1, 104960, Note_on_c, 1, 72, 0
1, 104960, Note_on_c, 1, 66, 68
1, 105088, Note_on_c, 0, 83, 0
1, 105088, Note_on_c, 0, 81, 73
1, 105216, Note_on_c, 0, 81, 0
1, 105216, Note_on_c, 0, 83, 72
1, 105216, Note_on_c, 1, 66, 0
1, 105216, Note_on_c, 1, 72, 67
1, 105344, Note_on_c, 0, 83, 0
1, 105344, Note_on_c, 0, 81, 72
1, 105472, Note_on_c, 0, 81, 0
1, 105472, Note_on_c, 0, 83, 70
1, 105472, Note_on_c, 1, 72, 0
1, 105472, Note_on_c, 1, 62, 0
1, 105472, Note_on_c, 1, 62, 64
1, 105600, Note_on_c, 0, 83, 0
1, 105600, Note_on_c, 0, 81, 70
1, 105728, Note_on_c, 0, 81, 0
1, 105728, Note_on_c, 0, 83, 70
1, 105728, Note_on_c, 1, 72, 65
1, 105856, Note_on_c, 0, 83, 0
1, 105856, Note_on_c, 0, 81, 70
1, 105984, Note_on_c, 0, 81, 0
1, 105984, Note_on_c, 0, 83, 68
1, 105984, Note_on_c, 1, 72, 0
1, 105984, Note_on_c, 1, 66, 64
1, 106112, Note_on_c, 0, 83, 0
1, 106112, Note_on_c, 0, 81, 67
1, 106240, Note_on_c, 0, 81, 0
1, 106240, Note_on_c, 0, 79, 66
1, 106240, Note_on_c, 1, 66, 0
1, 106240, Note_on_c, 1, 72, 63
1, 106368, Note_on_c, 0, 79, 0
1, 106368, Note_on_c, 0, 81, 65
1, 106496, Note_on_c, 0, 81, 0
1, 106496, Note_on_c, 0, 79, 65
1, 106496, Note_on_c, 1, 72, 0
1, 106496, Note_on_c, 1, 62, 0
1, 106496, Note_on_c, 1, 67, 64
1, 106496, Note_on_c, 1, 71, 64
1, 107520, Note_on_c, 0, 79, 0
1, 107520, Note_on_c, 0, 79, 63
1, 107520, Note_on_c, 1, 67, 0
1, 107520, Note_on_c, 1, 71, 0
1, 107776, Note_on_c, 0, 79, 0
1, 107776, Note_on_c, 0, 74, 64
1, 108032, Note_on_c, 0, 74, 0
1, 108032, Note_on_c, 0, 79, 65
1, 108288, Note_on_c, 0, 79, 0
1, 108288, Note_on_c, 0, 83, 68
1, 108544, Note_on_c, 0, 83, 0
1, 108544, Note_on_c, 0, 86, 70
1, 108800, Note_on_c, 0, 86, 0
1, 108800, Note_on_c, 0, 83, 73
1, 109056, Note_on_c, 0, 83, 0
1, 109056, Note_on_c, 0, 79, 75
1, 109312, Note_on_c, 0, 79, 0
1, 109312, Note_on_c, 0, 83, 77
1, 109568, Note_on_c, 0, 83, 0
1, 109568, Note_on_c, 0, 84, 79
1, 109568, Note_on_c, 1, 62, 79
1, 109568, Note_on_c, 1, 67, 79
1, 109568, Note_on_c, 1, 71, 79
1, 109824, Note_on_c, 0, 84, 0
1, 109824, Note_on_c, 0, 81, 82
1, 110080, Note_on_c, 0, 81, 0
1, 110080, Note_on_c, 0, 78, 78
1, 110336, Note_on_c, 0, 78, 0
1, 110336, Note_on_c, 0, 81, 75
1, 110592, Note_on_c, 0, 81, 0
1, 110592, Note_on_c, 0, 79, 75
1, 110592, Note_on_c, 1, 62, 0
1, 110592, Note_on_c, 1, 67, 0
1, 110592, Note_on_c, 1, 71, 0
1, 110592, Note_on_c, 1, 67, 68
1, 110592, Note_on_c, 1, 71, 68
1, 111616, Note_on_c, 0, 79, 0
1, 111616, Note_on_c, 0, 67, 60
1, 111616, Note_on_c, 1, 67, 0
1, 111616, Note_on_c, 1, 71, 0
1, 111872, Note_on_c, 0, 67, 0
1, 111872, Note_on_c, 0, 62, 62
1, 112128, Note_on_c, 0, 62, 0
1, 112128, Note_on_c, 0, 67, 66
1, 112384, Note_on_c, 0, 67, 0
1, 112384, Note_on_c, 0, 71, 67
1, 112640, Note_on_c, 0, 71, 0
1, 112640, Note_on_c, 0, 74, 70
1, 112896, Note_on_c, 0, 74, 0
1, 112896, Note_on_c, 0, 71, 73
1, 113152, Note_on_c, 0, 71, 0
1, 113152, Note_on_c, 0, 67, 75
1, 113408, Note_on_c, 0, 67, 0
1, 113408, Note_on_c, 0, 71, 76
1, 113664, Note_on_c, 0, 71, 0
1, 113664, Note_on_c, 0, 72, 79
1, 113664, Note_on_c, 1, 50, 74
1, 113664, Note_on_c, 1, 57, 74
1, 113664, Note_on_c, 1, 60, 74
1, 113920, Note_on_c, 0, 72, 0
1, 113920, Note_on_c, 0, 69, 79
1, 114176, Note_on_c, 0, 69, 0
1, 114176, Note_on_c, 0, 66, 76
1, 114432, Note_on_c, 0, 66, 0
1, 114432, Note_on_c, 0, 69, 74
1, 114688, Note_on_c, 0, 69, 0
1, 114688, Note_on_c, 0, 67, 71
1, 114688, Note_on_c, 1, 50, 0
1, 114688, Note_on_c, 1, 57, 0
1, 114688, Note_on_c, 1, 60, 0
1, 114688, Note_on_c, 1, 55, 62
1, 114688, Note_on_c, 1, 59, 62
1, 115712, Note_on_c, 0, 67, 0
1, 115712, Note_on_c, 0, 74, 91
1, 115712, Note_on_c, 0, 83, 91
1, 115712, Note_on_c, 1, 55, 0
1, 115712, Note_on_c, 1, 59, 0
1, 115712, Note_on_c, 1, 43, 78
1, 115712, Note_on_c, 1, 55, 78
1, 115866, Note_on_c, 0, 74, 0
1, 115866, Note_on_c, 1, 43, 0
1, 116019, Note_on_c, 0, 83, 0
1, 116019, Note_on_c, 1, 55, 0
1, 116736, Note_on_c, 0, 71, 86
1, 116736, Note_on_c, 0, 79, 86
1, 116736, Note_on_c, 1, 43, 73
1, 116736, Note_on_c, 1, 55, 73
1, 116890, Note_on_c, 0, 71, 0
1, 116890, Note_on_c, 1, 43, 0
1, 117043, Note_on_c, 0, 79, 0
1, 117043, Note_on_c, 1, 55, 0
1, 118784, Note_on_c, 0, 72, 45
1, 118784, Note_on_c, 1, 60, 37
1, 119296, Note_on_c, 1, 67, 39
1, 119808, Note_on_c, 1, 67, 0
1, 119808, Note_on_c, 1, 64, 40
1, 119808, Note_on_c, 1, 60, 0
1, 120320, Note_on_c, 1, 64, 0
1, 120320, Note_on_c, 1, 67, 41
1, 120832, Note_on_c, 0, 72, 0
1, 120832, Note_on_c, 0, 76, 51
1, 120832, Note_on_c, 1, 67, 0
1, 120832, Note_on_c, 1, 60, 47
1, 121344, Note_on_c, 1, 67, 44
1, 121856, Note_on_c, 0, 76, 0
1, 121856, Note_on_c, 0, 79, 55
1, 121856, Note_on_c, 1, 67, 0
1, 121856, Note_on_c, 1, 64, 48
1, 121856, Note_on_c, 1, 60, 0
1, 122368, Note_on_c, 1, 64, 0
1, 122368, Note_on_c, 1, 67, 48
1, 122880, Note_on_c, 0, 79, 0
1, 122880, Note_on_c, 0, 71, 57
1, 122880, Note_on_c, 1, 67, 0
1, 122880, Note_on_c, 1, 59, 52
1, 123392, Note_on_c, 1, 67, 48
1, 123904, Note_on_c, 1, 67, 0
1, 123904, Note_on_c, 1, 65, 47
1, 123904, Note_on_c, 1, 59, 0
1, 124416, Note_on_c, 0, 71, 0
1, 124416, Note_on_c, 0, 72, 50
1, 124416, Note_on_c, 1, 65, 0
1, 124416, Note_on_c, 1, 67, 43
1, 124672, Note_on_c, 0, 72, 0
1, 124672, Note_on_c, 0, 74, 49
1, 124928, Note_on_c, 0, 74, 0
1, 124928, Note_on_c, 0, 72, 48
1, 124928, Note_on_c, 1, 67, 0
1, 124928, Note_on_c, 1, 60, 39
1, 125440, Note_on_c, 1, 67, 40
1, 125952, Note_on_c, 0, 72, 0
1, 125952, Note_on_c, 1, 67, 0
1, 125952, Note_on_c, 1, 64, 39
1, 125952, Note_on_c, 1, 60, 0
1, 126464, Note_on_c, 1, 64, 0
1, 126464, Note_on_c, 1, 67, 37
1, 126976, Note_on_c, 0, 81, 62
1, 126976, Note_on_c, 1, 67, 0
1, 126976, Note_on_c, 1, 60, 40
1, 127488, Note_on_c, 1, 69, 40
1, 128000, Note_on_c, 1, 69, 0
1, 128000, Note_on_c, 1, 65, 41
1, 128000, Note_on_c, 1, 60, 0
1, 128512, Note_on_c, 1, 65, 0
1, 128512, Note_on_c, 1, 69, 43
1, 129024, Note_on_c, 0, 81, 0
1, 129024, Note_on_c, 0, 79, 63
1, 129024, Note_on_c, 1, 69, 0
1, 129024, Note_on_c, 1, 60, 48
1, 129536, Note_on_c, 1, 67, 45
1, 130048, Note_on_c, 0, 79, 0
1, 130048, Note_on_c, 0, 84, 67
1, 130048, Note_on_c, 1, 67, 0
1, 130048, Note_on_c, 1, 64, 48
1, 130048, Note_on_c, 1, 60, 0
1, 130560, Note_on_c, 1, 64, 0
1, 130560, Note_on_c, 1, 67, 48
1, 131072, Note_on_c, 0, 84, 0
1, 131072, Note_on_c, 0, 79, 69
1, 131072, Note_on_c, 1, 67, 0
1, 131072, Note_on_c, 1, 59, 48
1, 131584, Note_on_c, 1, 67, 40
1, 132096, Note_on_c, 0, 79, 0
1, 132096, Note_on_c, 0, 77, 65
1, 132096, Note_on_c, 1, 67, 0
1, 132096, Note_on_c, 1, 62, 41
1, 132096, Note_on_c, 1, 59, 0
1, 132267, Note_on_c, 0, 77, 0
1, 132267, Note_on_c, 0, 79, 65
1, 132437, Note_on_c, 0, 79, 0
1, 132437, Note_on_c, 0, 77, 64
1, 132608, Note_on_c, 0, 77, 0
1, 132608, Note_on_c, 0, 76, 63
1, 132608, Note_on_c, 1, 62, 0
1, 132608, Note_on_c, 1, 67, 43
1, 132864, Note_on_c, 0, 76, 0
1, 132864, Note_on_c, 0, 77, 63
1, 133120, Note_on_c, 0, 77, 0
1, 133120, Note_on_c, 0, 76, 61
1, 133120, Note_on_c, 1, 67, 0
1, 133120, Note_on_c, 1, 60, 43
1, 133632, Note_on_c, 1, 67, 45
1, 134144, Note_on_c, 0, 76, 0
1, 134144, Note_on_c, 1, 67, 0
1, 134144, Note_on_c, 1, 64, 48
1, 134144, Note_on_c, 1, 60, 0
1, 134656, Note_on_c, 1, 64, 0
1, 134656, Note_on_c, 1, 67, 48
1, 135168, Note_on_c, 0, 69, 57
1, 135168, Note_on_c, 1, 67, 0
1, 135168, Note_on_c, 1, 65, 63
1, 135680, Note_on_c, 0, 69, 0
1, 135680, Note_on_c, 0, 71, 63
1, 135936, Note_on_c, 0, 71, 0
1, 135936, Note_on_c, 0, 72, 63
1, 136192, Note_on_c, 0, 72, 0
1, 136192, Note_on_c, 0, 74, 65
1, 136192, Note_on_c, 1, 65, 0
1, 136448, Note_on_c, 0, 74, 0
1, 136448, Note_on_c, 0, 76, 67
1, 136704, Note_on_c, 0, 76, 0
1, 136704, Note_on_c, 0, 77, 70
1, 136960, Note_on_c, 0, 77, 0
1, 136960, Note_on_c, 0, 79, 70
1, 137216, Note_on_c, 0, 79, 0
1, 137216, Note_on_c, 0, 81, 74
1, 137472, Note_on_c, 0, 81, 0
1, 137472, Note_on_c, 0, 79, 72
1, 137728, Note_on_c, 0, 79, 0
1, 137728, Note_on_c, 0, 77, 71
1, 137984, Note_on_c, 0, 77, 0
1, 137984, Note_on_c, 0, 76, 69
1, 138240, Note_on_c, 0, 76, 0
1, 138240, Note_on_c, 0, 74, 67
1, 138240, Note_on_c, 1, 53, 70
1, 138240, Note_on_c, 1, 60, 70
1, 138496, Note_on_c, 0, 74, 0
1, 138496, Note_on_c, 0, 72, 66
1, 138752, Note_on_c, 0, 72, 0
1, 138752, Note_on_c, 0, 71, 64
1, 139008, Note_on_c, 0, 71, 0
1, 139008, Note_on_c, 0, 69, 62
1, 139264, Note_on_c, 0, 69, 0
1, 139264, Note_on_c, 0, 67, 62
1, 139264, Note_on_c, 1, 53, 0
1, 139264, Note_on_c, 1, 60, 0
1, 139264, Note_on_c, 1, 52, 63
1, 139264, Note_on_c, 1, 60, 63
1, 139776, Note_on_c, 0, 67, 0
1, 139776, Note_on_c, 0, 69, 66
1, 140032, Note_on_c, 0, 69, 0
1, 140032, Note_on_c, 0, 71, 66
1, 140288, Note_on_c, 0, 71, 0
1, 140288, Note_on_c, 0, 72, 69
1, 140288, Note_on_c, 1, 52, 0
1, 140288, Note_on_c, 1, 60, 0
1, 140544, Note_on_c, 0, 72, 0
1, 140544, Note_on_c, 0, 74, 70
1, 140800, Note_on_c, 0, 74, 0
1, 140800, Note_on_c, 0, 76, 73
1, 141056, Note_on_c, 0, 76, 0
1, 141056, Note_on_c, 0, 77, 73
1, 141312, Note_on_c, 0, 77, 0
1, 141312, Note_on_c, 0, 79, 75
1, 141568, Note_on_c, 0, 79, 0
1, 141568, Note_on_c, 0, 77, 73
1, 141824, Note_on_c, 0, 77, 0
1, 141824, Note_on_c, 0, 76, 71
1, 142080, Note_on_c, 0, 76, 0
1, 142080, Note_on_c, 0, 74, 70
1, 142336, Note_on_c, 0, 74, 0
1, 142336, Note_on_c, 0, 72, 66
1, 142336, Note_on_c, 1, 52, 70
1, 142336, Note_on_c, 1, 60, 70
1, 142592, Note_on_c, 0, 72, 0
1, 142592, Note_on_c, 0, 71, 67
1, 142848, Note_on_c, 0, 71, 0
1, 142848, Note_on_c, 0, 69, 65
1, 143104, Note_on_c, 0, 69, 0
1, 143104, Note_on_c, 0, 67, 63
1, 143360, Note_on_c, 0, 67, 0
1, 143360, Note_on_c, 0, 65, 63
1, 143360, Note_on_c, 1, 52, 0
1, 143360, Note_on_c, 1, 60, 0
1, 143360, Note_on_c, 1, 50, 63
1, 143360, Note_on_c, 1, 60, 63
1, 143872, Note_on_c, 0, 65, 0
1, 143872, Note_on_c, 0, 67, 67
1, 144128, Note_on_c, 0, 67, 0
1, 144128, Note_on_c, 0, 69, 67
1, 144384, Note_on_c, 0, 69, 0
1, 144384, Note_on_c, 0, 71, 69
1, 144384, Note_on_c, 1, 50, 0
1, 144384, Note_on_c, 1, 60, 0
1, 144640, Note_on_c, 0, 71, 0
1, 144640, Note_on_c, 0, 72, 70
1, 144896, Note_on_c, 0, 72, 0
1, 144896, Note_on_c, 0, 74, 73
1, 145152, Note_on_c, 0, 74, 0
1, 145152, Note_on_c, 0, 76, 73
1, 145408, Note_on_c, 0, 76, 0
1, 145408, Note_on_c, 0, 77, 76
1, 145664, Note_on_c, 0, 77, 0
1, 145664, Note_on_c, 0, 76, 74
1, 145920, Note_on_c, 0, 76, 0
1, 145920, Note_on_c, 0, 74, 72
1, 146176, Note_on_c, 0, 74, 0
1, 146176, Note_on_c, 0, 72, 70
1, 146432, Note_on_c, 0, 72, 0
1, 146432, Note_on_c, 0, 71, 68
1, 146432, Note_on_c, 1, 50, 67
1, 146432, Note_on_c, 1, 59, 67
1, 146688, Note_on_c, 0, 71, 0
1, 146688, Note_on_c, 0, 69, 67
1, 146944, Note_on_c, 0, 69, 0
1, 146944, Note_on_c, 0, 67, 65
1, 147200, Note_on_c, 0, 67, 0
1, 147200, Note_on_c, 0, 65, 64
1, 147456, Note_on_c, 0, 65, 0
1, 147456, Note_on_c, 0, 64, 64
1, 147456, Note_on_c, 1, 50, 0
1, 147456, Note_on_c, 1, 59, 0
1, 147456, Note_on_c, 1, 48, 63
1, 147456, Note_on_c, 1, 60, 63
1, 147968, Note_on_c, 0, 64, 0
1, 147968, Note_on_c, 0, 65, 67
1, 148224, Note_on_c, 0, 65, 0
1, 148224, Note_on_c, 0, 67, 67
1, 148480, Note_on_c, 0, 67, 0
1, 148480, Note_on_c, 0, 69, 70
1, 148480, Note_on_c, 1, 48, 0
1, 148480, Note_on_c, 1, 60, 0
1, 148736, Note_on_c, 0, 69, 0
1, 148736, Note_on_c, 0, 71, 71
1, 148992, Note_on_c, 0, 71, 0
1, 148992, Note_on_c, 0, 72, 74
1, 149248, Note_on_c, 0, 72, 0
1, 149248, Note_on_c, 0, 74, 74
1, 149504, Note_on_c, 0, 74, 0
1, 149504, Note_on_c, 0, 76, 78
1, 149760, Note_on_c, 0, 76, 0
1, 149760, Note_on_c, 0, 74, 76
1, 150016, Note_on_c, 0, 74, 0
1, 150016, Note_on_c, 0, 72, 74
1, 150272, Note_on_c, 0, 72, 0
1, 150272, Note_on_c, 0, 71, 72
1, 150528, Note_on_c, 0, 71, 0
1, 150528, Note_on_c, 0, 69, 69
1, 150528, Note_on_c, 1, 48, 60
1, 150528, Note_on_c, 1, 52, 60
1, 150784, Note_on_c, 0, 69, 0
1, 150784, Note_on_c, 0, 67, 68
1, 151040, Note_on_c, 0, 67, 0
1, 151040, Note_on_c, 0, 65, 66
1, 151296, Note_on_c, 0, 65, 0
1, 151296, Note_on_c, 0, 64, 64
1, 151552, Note_on_c, 0, 64, 0
1, 151552, Note_on_c, 0, 62, 65
1, 151552, Note_on_c, 1, 48, 0
1, 151552, Note_on_c, 1, 52, 0
1, 151552, Note_on_c, 1, 53, 65
1, 151552, Note_on_c, 1, 57, 65
1, 152064, Note_on_c, 0, 62, 0
1, 152064, Note_on_c, 0, 64, 66
1, 152320, Note_on_c, 0, 64, 0
1, 152320, Note_on_c, 0, 65, 66
1, 152576, Note_on_c, 0, 65, 0
1, 152576, Note_on_c, 0, 67, 68
1, 152832, Note_on_c, 0, 67, 0
1, 152832, Note_on_c, 0, 69, 68
1, 153088, Note_on_c, 0, 69, 0
1, 153088, Note_on_c, 0, 71, 69
1, 153344, Note_on_c, 0, 71, 0
1, 153344, Note_on_c, 0, 73, 69
1, 153600, Note_on_c, 0, 73, 0
1, 153600, Note_on_c, 0, 74, 69
1, 153856, Note_on_c, 0, 74, 0
1, 153856, Note_on_c, 0, 69, 69
1, 154112, Note_on_c, 0, 69, 0
1, 154112, Note_on_c, 0, 71, 69
1, 154368, Note_on_c, 0, 71, 0
1, 154368, Note_on_c, 0, 73, 70
1, 154624, Note_on_c, 0, 73, 0
1, 154624, Note_on_c, 0, 74, 70
1, 154880, Note_on_c, 0, 74, 0
1, 154880, Note_on_c, 0, 76, 70
1, 155136, Note_on_c, 0, 76, 0
1, 155136, Note_on_c, 0, 77, 71
1, 155392, Note_on_c, 0, 77, 0
1, 155392, Note_on_c, 0, 79, 71
1, 155648, Note_on_c, 0, 79, 0
1, 155648, Note_on_c, 0, 81, 72
1, 155648, Note_on_c, 1, 53, 0
1, 155648, Note_on_c, 1, 57, 0
1, 155648, Note_on_c, 1, 53, 71
1, 155904, Note_on_c, 0, 81, 0
1, 155904, Note_on_c, 0, 83, 72
1, 156160, Note_on_c, 0, 83, 0
1, 156160, Note_on_c, 0, 84, 72
1, 156416, Note_on_c, 0, 84, 0
1, 156416, Note_on_c, 0, 83, 73
1, 156672, Note_on_c, 0, 83, 0
1, 156672, Note_on_c, 0, 81, 74
1, 156928, Note_on_c, 0, 81, 0
1, 156928, Note_on_c, 0, 79, 74
1, 157184, Note_on_c, 0, 79, 0
1, 157184, Note_on_c, 0, 77, 74
1, 157184, Note_on_c, 1, 53, 0
1, 157184, Note_on_c, 1, 55, 74
1, 157440, Note_on_c, 0, 77, 0
1, 157440, Note_on_c, 0, 76, 75
1, 157696, Note_on_c, 0, 76, 0
1, 157696, Note_on_c, 0, 77, 76
1, 157696, Note_on_c, 1, 55, 0
1, 157696, Note_on_c, 1, 57, 76
1, 157952, Note_on_c, 0, 77, 0
1, 157952, Note_on_c, 0, 79, 76
1, 158208, Note_on_c, 0, 79, 0
1, 158208, Note_on_c, 0, 81, 76
1, 158464, Note_on_c, 0, 81, 0
1, 158464, Note_on_c, 0, 79, 77
1, 158720, Note_on_c, 0, 79, 0
1, 158720, Note_on_c, 0, 77, 78
1, 158976, Note_on_c, 0, 77, 0
1, 158976, Note_on_c, 0, 76, 78
1, 159232, Note_on_c, 0, 76, 0
1, 159232, Note_on_c, 0, 74, 78
1, 159232, Note_on_c, 1, 57, 0
1, 159232, Note_on_c, 1, 54, 76
1, 159488, Note_on_c, 0, 74, 0
1, 159488, Note_on_c, 0, 72, 78
1, 159744, Note_on_c, 0, 72, 0
1, 159744, Note_on_c, 0, 71, 79
1, 159744, Note_on_c, 1, 54, 0
1, 159744, Note_on_c, 1, 43, 72
1, 160000, Note_on_c, 1, 47, 72
1, 160256, Note_on_c, 0, 71, 0
1, 160256, Note_on_c, 0, 79, 80
1, 160256, Note_on_c, 1, 47, 0
1, 160256, Note_on_c, 1, 50, 72
1, 160512, Note_on_c, 1, 50, 0
1, 160512, Note_on_c, 1, 55, 73
1, 160768, Note_on_c, 0, 79, 0
1, 160768, Note_on_c, 0, 76, 81
1, 160768, Note_on_c, 1, 55, 0
1, 160768, Note_on_c, 1, 43, 0
1, 160768, Note_on_c, 1, 43, 72
1, 161024, Note_on_c, 1, 48, 76
1, 161280, Note_on_c, 0, 76, 0
1, 161280, Note_on_c, 0, 72, 83
1, 161280, Note_on_c, 1, 48, 0
1, 161280, Note_on_c, 1, 52, 77
1, 161536, Note_on_c, 1, 52, 0
1, 161536, Note_on_c, 1, 55, 78
1, 161792, Note_on_c, 0, 72, 0
1, 161792, Note_on_c, 0, 74, 83
1, 161792, Note_on_c, 1, 55, 0
1, 161792, Note_on_c, 1, 43, 0
1, 161792, Note_on_c, 1, 43, 73
1, 162048, Note_on_c, 1, 47, 80
1, 162304, Note_on_c, 0, 74, 0
1, 162304, Note_on_c, 0, 79, 84
1, 162304, Note_on_c, 1, 47, 0
1, 162304, Note_on_c, 1, 50, 80
1, 162560, Note_on_c, 1, 50, 0
1, 162560, Note_on_c, 1, 55, 81
1, 162816, Note_on_c, 0, 79, 0
1, 162816, Note_on_c, 0, 76, 85
1, 162816, Note_on_c, 1, 55, 0
1, 162816, Note_on_c, 1, 43, 0
1, 162816, Note_on_c, 1, 43, 73
1, 163072, Note_on_c, 1, 48, 84
1, 163328, Note_on_c, 0, 76, 0
1, 163328, Note_on_c, 0, 72, 86
1, 163328, Note_on_c, 1, 48, 0
1, 163328, Note_on_c, 1, 52, 84
1, 163584, Note_on_c, 1, 52, 0
1, 163584, Note_on_c, 1, 55, 85
1, 163840, Note_on_c, 0, 72, 0
1, 163840, Note_on_c, 0, 74, 103
1, 163840, Note_on_c, 1, 55, 0
1, 163840, Note_on_c, 1, 43, 0
1, 163840, Note_on_c, 1, 43, 91
1, 164864, Note_on_c, 0, 74, 0
1, 164864, Note_on_c, 0, 71, 88
1, 164864, Note_on_c, 0, 74, 88
1, 164864, Note_on_c, 0, 79, 88
1, 164864, Note_on_c, 1, 43, 0
1, 164864, Note_on_c, 1, 55, 75
1, 164966, Note_on_c, 0, 71, 0
1, 165069, Note_on_c, 0, 74, 0
1, 165171, Note_on_c, 0, 79, 0
1, 165171, Note_on_c, 1, 55, 0
1, 165888, Note_on_c, 0, 67, 84
1, 165888, Note_on_c, 1, 43, 73
1, 166195, Note_on_c, 0, 67, 0
1, 166195, Note_on_c, 1, 43, 0
1, 167936, Note_on_c, 1, 61, 70
1, 168192, Note_on_c, 1, 61, 0
1, 168192, Note_on_c, 1, 62, 55
1, 168448, Note_on_c, 1, 62, 0
1, 168448, Note_on_c, 1, 61, 54
1, 168704, Note_on_c, 1, 61, 0
1, 168704, Note_on_c, 1, 62, 51
1, 168960, Note_on_c, 1, 62, 0
1, 168960, Note_on_c, 1, 61, 50
1, 169216, Note_on_c, 1, 61, 0
1, 169216, Note_on_c, 1, 62, 48
1, 169472, Note_on_c, 1, 62, 0
1, 169472, Note_on_c, 1, 61, 46
1, 169728, Note_on_c, 1, 61, 0
1, 169728, Note_on_c, 1, 62, 44
1, 169984, Note_on_c, 1, 62, 0
1, 169984, Note_on_c, 1, 60, 43
1, 170240, Note_on_c, 1, 60, 0
1, 170240, Note_on_c, 1, 62, 43
1, 170496, Note_on_c, 1, 62, 0
1, 170496, Note_on_c, 1, 60, 45
1, 170752, Note_on_c, 1, 60, 0
1, 170752, Note_on_c, 1, 62, 46
1, 171008, Note_on_c, 1, 62, 0
1, 171008, Note_on_c, 1, 60, 49
1, 171264, Note_on_c, 1, 60, 0
1, 171264, Note_on_c, 1, 62, 51
1, 171520, Note_on_c, 1, 62, 0
1, 171520, Note_on_c, 1, 60, 53
1, 171776, Note_on_c, 1, 60, 0
1, 171776, Note_on_c, 1, 62, 55
1, 172032, Note_on_c, 0, 86, 74
1, 172032, Note_on_c, 1, 62, 0
1, 172032, Note_on_c, 1, 59, 57
1, 172288, Note_on_c, 1, 62, 55
1, 172544, Note_on_c, 0, 86, 0
1, 172544, Note_on_c, 0, 83, 64
1, 172544, Note_on_c, 1, 59, 0
1, 172544, Note_on_c, 1, 62, 0
1, 172544, Note_on_c, 1, 59, 53
1, 172800, Note_on_c, 1, 59, 0
1, 172800, Note_on_c, 1, 62, 51
1, 173056, Note_on_c, 0, 83, 0
1, 173056, Note_on_c, 0, 79, 58
1, 173056, Note_on_c, 1, 62, 0
1, 173056, Note_on_c, 1, 59, 49
1, 173312, Note_on_c, 1, 59, 0
1, 173312, Note_on_c, 1, 62, 46
1, 173568, Note_on_c, 1, 62, 0
1, 173568, Note_on_c, 1, 59, 45
1, 173824, Note_on_c, 1, 59, 0
1, 173824, Note_on_c, 1, 62, 43
1, 174080, Note_on_c, 1, 62, 0
1, 174080, Note_on_c, 1, 59, 42
1, 174336, Note_on_c, 1, 59, 0
1, 174336, Note_on_c, 1, 62, 43
1, 174592, Note_on_c, 0, 79, 0
1, 174592, Note_on_c, 0, 81, 59
1, 174592, Note_on_c, 1, 62, 0
1, 174592, Note_on_c, 1, 59, 45
1, 174848, Note_on_c, 0, 81, 0
1, 174848, Note_on_c, 0, 83, 60
1, 174848, Note_on_c, 1, 59, 0
1, 174848, Note_on_c, 1, 62, 46
1, 175104, Note_on_c, 0, 83, 0
1, 175104, Note_on_c, 0, 81, 60
1, 175104, Note_on_c, 1, 62, 0
1, 175104, Note_on_c, 1, 59, 49
1, 175360, Note_on_c, 1, 59, 0
1, 175360, Note_on_c, 1, 62, 51
1, 175616, Note_on_c, 0, 81, 0
1, 175616, Note_on_c, 0, 79, 63
1, 175616, Note_on_c, 1, 62, 0
1, 175616, Note_on_c, 1, 59, 53
1, 175872, Note_on_c, 1, 59, 0
1, 175872, Note_on_c, 1, 62, 55
1, 176128, Note_on_c, 0, 79, 0
1, 176128, Note_on_c, 0, 79, 68
1, 176128, Note_on_c, 1, 62, 0
1, 176128, Note_on_c, 1, 60, 52
1, 176282, Note_on_c, 0, 79, 0
1, 176282, Note_on_c, 0, 81, 59
1, 176384, Note_on_c, 1, 62, 55
1, 176435, Note_on_c, 0, 81, 0
1, 176435, Note_on_c, 0, 79, 58
1, 176589, Note_on_c, 0, 79, 0
1, 176589, Note_on_c, 0, 81, 56
1, 176640, Note_on_c, 1, 62, 0
1, 176640, Note_on_c, 1, 59, 54
1, 176640, Note_on_c, 1, 60, 0
1, 176742, Note_on_c, 0, 81, 0
1, 176742, Note_on_c, 0, 79, 54
1, 176896, Note_on_c, 0, 79, 0
1, 176896, Note_on_c, 0, 78, 59
1, 176896, Note_on_c, 1, 59, 0
1, 176896, Note_on_c, 1, 62, 51
1, 177152, Note_on_c, 0, 78, 0
1, 177152, Note_on_c, 0, 78, 60
1, 177152, Note_on_c, 1, 62, 0
1, 177152, Note_on_c, 1, 57, 49
1, 177408, Note_on_c, 1, 62, 48
1, 177664, Note_on_c, 1, 62, 0
1, 177664, Note_on_c, 1, 59, 46
1, 177664, Note_on_c, 1, 57, 0
1, 177920, Note_on_c, 1, 59, 0
1, 177920, Note_on_c, 1, 62, 44
1, 178176, Note_on_c, 0, 78, 0
1, 178176, Note_on_c, 1, 62, 0
1, 178176, Note_on_c, 1, 60, 43
1, 178432, Note_on_c, 1, 60, 0
1, 178432, Note_on_c, 1, 62, 43
1, 178688, Note_on_c, 1, 62, 0
1, 178688, Note_on_c, 1, 59, 45
1, 178944, Note_on_c, 1, 59, 0
1, 178944, Note_on_c, 1, 62, 45
1, 179200, Note_on_c, 1, 62, 0
1, 179200, Note_on_c, 1, 60, 48
1, 179456, Note_on_c, 1, 60, 0
1, 179456, Note_on_c, 1, 62, 49
1, 179712, Note_on_c, 1, 62, 0
1, 179712, Note_on_c, 1, 57, 51
1, 179968, Note_on_c, 1, 57, 0
1, 179968, Note_on_c, 1, 62, 52
1, 180224, Note_on_c, 0, 86, 78
1, 180224, Note_on_c, 1, 62, 0
1, 180224, Note_on_c, 1, 59, 58
1, 180480, Note_on_c, 1, 62, 55
1, 180736, Note_on_c, 0, 86, 0
1, 180736, Note_on_c, 0, 83, 66
1, 180736, Note_on_c, 1, 59, 0
1, 180736, Note_on_c, 1, 62, 0
1, 180736, Note_on_c, 1, 59, 53
1, 180992, Note_on_c, 1, 59, 0
1, 180992, Note_on_c, 1, 62, 51
1, 181248, Note_on_c, 0, 83, 0
1, 181248, Note_on_c, 0, 79, 58
1, 181248, Note_on_c, 1, 62, 0
1, 181248, Note_on_c, 1, 59, 49
1, 181504, Note_on_c, 1, 59, 0
1, 181504, Note_on_c, 1, 62, 46
1, 181760, Note_on_c, 1, 62, 0
1, 181760, Note_on_c, 1, 59, 45
1, 182016, Note_on_c, 1, 59, 0
1, 182016, Note_on_c, 1, 62, 43
1, 182272, Note_on_c, 1, 62, 0
1, 182272, Note_on_c, 1, 59, 42
1, 182528, Note_on_c, 1, 59, 0
1, 182528, Note_on_c, 1, 62, 43
1, 182784, Note_on_c, 0, 79, 0
1, 182784, Note_on_c, 0, 81, 59
1, 182784, Note_on_c, 1, 62, 0
1, 182784, Note_on_c, 1, 59, 45
1, 183040, Note_on_c, 0, 81, 0
1, 183040, Note_on_c, 0, 83, 59
1, 183040, Note_on_c, 1, 59, 0
1, 183040, Note_on_c, 1, 62, 46
1, 183296, Note_on_c, 0, 83, 0
1, 183296, Note_on_c, 0, 81, 60
1, 183296, Note_on_c, 1, 62, 0
1, 183296, Note_on_c, 1, 59, 49
1, 183552, Note_on_c, 1, 59, 0
1, 183552, Note_on_c, 1, 62, 51
1, 183808, Note_on_c, 0, 81, 0
1, 183808, Note_on_c, 0, 79, 63
1, 183808, Note_on_c, 1, 62, 0
1, 183808, Note_on_c, 1, 59, 53
1, 184064, Note_on_c, 1, 59, 0
1, 184064, Note_on_c, 1, 62, 55
1, 184320, Note_on_c, 0, 79, 0
1, 184320, Note_on_c, 0, 79, 67
1, 184320, Note_on_c, 1, 62, 0
1, 184320, Note_on_c, 1, 60, 52
1, 184474, Note_on_c, 0, 79, 0
1, 184474, Note_on_c, 0, 81, 59
1, 184576, Note_on_c, 1, 62, 55
1, 184627, Note_on_c, 0, 81, 0
1, 184627, Note_on_c, 0, 79, 58
1, 184781, Note_on_c, 0, 79, 0
1, 184781, Note_on_c, 0, 81, 56
1, 184832, Note_on_c, 1, 62, 0
1, 184832, Note_on_c, 1, 59, 54
1, 184832, Note_on_c, 1, 60, 0
1, 184934, Note_on_c, 0, 81, 0
1, 184934, Note_on_c, 0, 79, 54
1, 185088, Note_on_c, 0, 79, 0
1, 185088, Note_on_c, 0, 78, 58
1, 185088, Note_on_c, 1, 59, 0
1, 185088, Note_on_c, 1, 62, 51
1, 185344, Note_on_c, 0, 78, 0
1, 185344, Note_on_c, 0, 78, 59
1, 185344, Note_on_c, 1, 62, 0
1, 185344, Note_on_c, 1, 57, 49
1, 185600, Note_on_c, 1, 62, 48
1, 185856, Note_on_c, 1, 62, 0
1, 185856, Note_on_c, 1, 59, 46
1, 185856, Note_on_c, 1, 57, 0
1, 186112, Note_on_c, 1, 59, 0
1, 186112, Note_on_c, 1, 62, 44
1, 186368, Note_on_c, 0, 78, 0
1, 186368, Note_on_c, 1, 62, 0
1, 186368, Note_on_c, 1, 60, 46
1, 186624, Note_on_c, 1, 60, 0
1, 186624, Note_on_c, 1, 62, 47
1, 186880, Note_on_c, 1, 62, 0
1, 186880, Note_on_c, 1, 57, 49
1, 187136, Note_on_c, 1, 57, 0
1, 187136, Note_on_c, 1, 60, 50
1, 187392, Note_on_c, 1, 60, 0
1, 187392, Note_on_c, 1, 62, 52
1, 187648, Note_on_c, 1, 62, 0
1, 187648, Note_on_c, 1, 57, 53
1, 187904, Note_on_c, 1, 57, 0
1, 187904, Note_on_c, 1, 62, 55
1, 188160, Note_on_c, 1, 62, 0
1, 188416, Note_on_c, 0, 86, 87
1, 188672, Note_on_c, 1, 59, 85
1, 188928, Note_on_c, 1, 59, 0
1, 188928, Note_on_c, 1, 62, 83
1, 189184, Note_on_c, 1, 62, 0
1, 189184, Note_on_c, 1, 67, 81
1, 189440, Note_on_c, 0, 86, 0
1, 189440, Note_on_c, 1, 67, 0
1, 189440, Note_on_c, 1, 71, 79
1, 189696, Note_on_c, 0, 86, 77
1, 189952, Note_on_c, 0, 86, 0
1, 189952, Note_on_c, 0, 83, 75
1, 190208, Note_on_c, 0, 83, 0
1, 190208, Note_on_c, 0, 79, 74
1, 190464, Note_on_c, 0, 79, 0
1, 190464, Note_on_c, 0, 76, 72
1, 190464, Note_on_c, 1, 71, 0
1, 190720, Note_on_c, 1, 60, 71
1, 190976, Note_on_c, 1, 60, 0
1, 190976, Note_on_c, 1, 64, 70
1, 191232, Note_on_c, 1, 64, 0
1, 191232, Note_on_c, 1, 67, 68
1, 191488, Note_on_c, 0, 76, 0
1, 191488, Note_on_c, 1, 67, 0
1, 191488, Note_on_c, 1, 72, 67
1, 191744, Note_on_c, 0, 76, 67
1, 192000, Note_on_c, 0, 76, 0
1, 192000, Note_on_c, 0, 79, 70
1, 192256, Note_on_c, 0, 79, 0
1, 192256, Note_on_c, 0, 76, 73
1, 192512, Note_on_c, 0, 76, 0
1, 192512, Note_on_c, 0, 84, 87
1, 192512, Note_on_c, 1, 72, 0
1, 192768, Note_on_c, 1, 57, 86
1, 193024, Note_on_c, 1, 57, 0
1, 193024, Note_on_c, 1, 60, 84
1, 193280, Note_on_c, 1, 60, 0
1, 193280, Note_on_c, 1, 66, 82
1, 193536, Note_on_c, 0, 84, 0
1, 193536, Note_on_c, 1, 66, 0
1, 193536, Note_on_c, 1, 69, 80
1, 193792, Note_on_c, 0, 84, 78
1, 194048, Note_on_c, 0, 84, 0
1, 194048, Note_on_c, 0, 81, 76
1, 194304, Note_on_c, 0, 81, 0
1, 194304, Note_on_c, 0, 78, 75
1, 194560, Note_on_c, 0, 78, 0
1, 194560, Note_on_c, 0, 74, 73
1, 194560, Note_on_c, 1, 69, 0
1, 194816, Note_on_c, 1, 59, 72
1, 195072, Note_on_c, 1, 59, 0
1, 195072, Note_on_c, 1, 62, 71
1, 195328, Note_on_c, 1, 62, 0
1, 195328, Note_on_c, 1, 66, 69
1, 195584, Note_on_c, 0, 74, 0
1, 195584, Note_on_c, 1, 66, 0
1, 195584, Note_on_c, 1, 71, 68
1, 195840, Note_on_c, 0, 74, 67
1, 196096, Note_on_c, 0, 74, 0
1, 196096, Note_on_c, 0, 78, 70
1, 196352, Note_on_c, 0, 78, 0
1, 196352, Note_on_c, 0, 74, 73
1, 196608, Note_on_c, 0, 74, 0
1, 196608, Note_on_c, 0, 83, 87
1, 196608, Note_on_c, 1, 71, 0
1, 196864, Note_on_c, 1, 55, 85
1, 197120, Note_on_c, 1, 55, 0
1, 197120, Note_on_c, 1, 59, 83
1, 197376, Note_on_c, 1, 59, 0
1, 197376, Note_on_c, 1, 64, 81
1, 197632, Note_on_c, 0, 83, 0
1, 197632, Note_on_c, 1, 64, 0
1, 197632, Note_on_c, 1, 67, 79
1, 197888, Note_on_c, 0, 83, 77
1, 198144, Note_on_c, 0, 83, 0
1, 198144, Note_on_c, 0, 79, 75
1, 198400, Note_on_c, 0, 79, 0
1, 198400, Note_on_c, 0, 76, 72
1, 198656, Note_on_c, 0, 76, 0
1, 198656, Note_on_c, 0, 72, 70
1, 198656, Note_on_c, 1, 67, 0
1, 198912, Note_on_c, 1, 57, 72
1, 199168, Note_on_c, 1, 57, 0
1, 199168, Note_on_c, 1, 60, 70
1, 199424, Note_on_c, 1, 60, 0
1, 199424, Note_on_c, 1, 64, 68
1, 199680, Note_on_c, 0, 72, 0
1, 199680, Note_on_c, 1, 64, 0
1, 199680, Note_on_c, 1, 69, 66
1, 199936, Note_on_c, 0, 72, 66
1, 200192, Note_on_c, 0, 72, 0
1, 200192, Note_on_c, 0, 76, 70
1, 200448, Note_on_c, 0, 76, 0
1, 200448, Note_on_c, 0, 72, 73
1, 200704, Note_on_c, 0, 72, 0
1, 200704, Note_on_c, 0, 81, 87
1, 200704, Note_on_c, 1, 69, 0
1, 200960, Note_on_c, 1, 54, 85
1, 201216, Note_on_c, 1, 54, 0
1, 201216, Note_on_c, 1, 57, 83
1, 201472, Note_on_c, 1, 57, 0
1, 201472, Note_on_c, 1, 62, 81
1, 201728, Note_on_c, 0, 81, 0
1, 201728, Note_on_c, 1, 62, 0
1, 201728, Note_on_c, 1, 66, 79
1, 201984, Note_on_c, 0, 81, 77
1, 202240, Note_on_c, 0, 81, 0
1, 202240, Note_on_c, 0, 78, 75
1, 202496, Note_on_c, 0, 78, 0
1, 202496, Note_on_c, 0, 74, 74
1, 202752, Note_on_c, 0, 74, 0
1, 202752, Note_on_c, 0, 71, 72
1, 202752, Note_on_c, 1, 66, 0
1, 203008, Note_on_c, 1, 55, 71
1, 203264, Note_on_c, 1, 55, 0
1, 203264, Note_on_c, 1, 59, 69
1, 203520, Note_on_c, 1, 59, 0
1, 203520, Note_on_c, 1, 62, 67
1, 203776, Note_on_c, 0, 71, 0
1, 203776, Note_on_c, 1, 62, 0
1, 203776, Note_on_c, 1, 67, 65
1, 204032, Note_on_c, 0, 79, 76
1, 204288, Note_on_c, 0, 79, 0
1, 204288, Note_on_c, 0, 74, 77
1, 204544, Note_on_c, 0, 74, 0
1, 204544, Note_on_c, 0, 71, 78
1, 204800, Note_on_c, 0, 71, 0
1, 204800, Note_on_c, 0, 69, 79
1, 204800, Note_on_c, 1, 67, 0
1, 204800, Note_on_c, 1, 60, 60
1, 204800, Note_on_c, 1, 64, 60
1, 205312, Note_on_c, 1, 60, 0
1, 205312, Note_on_c, 1, 64, 0
1, 205312, Note_on_c, 1, 60, 62
1, 205312, Note_on_c, 1, 64, 62
1, 205824, Note_on_c, 1, 60, 0
1, 205824, Note_on_c, 1, 64, 0
1, 205824, Note_on_c, 1, 60, 62
1, 205824, Note_on_c, 1, 64, 62
1, 206336, Note_on_c, 1, 60, 0
1, 206336, Note_on_c, 1, 64, 0
1, 206336, Note_on_c, 1, 60, 64
1, 206336, Note_on_c, 1, 64, 64
1, 206768, Note_on_c, 0, 71, 80
1, 206848, Note_on_c, 0, 69, 0
1, 206848, Note_on_c, 0, 71, 0
1, 206848, Note_on_c, 0, 72, 80
1, 206848, Note_on_c, 1, 60, 0
1, 206848, Note_on_c, 1, 64, 0
1, 206848, Note_on_c, 1, 60, 66
1, 206848, Note_on_c, 1, 64, 66
1, 207360, Note_on_c, 1, 60, 0
1, 207360, Note_on_c, 1, 64, 0
1, 207360, Note_on_c, 1, 60, 65
1, 207360, Note_on_c, 1, 64, 65
1, 207792, Note_on_c, 0, 75, 82
1, 207872, Note_on_c, 0, 72, 0
1, 207872, Note_on_c, 0, 75, 0
1, 207872, Note_on_c, 0, 76, 82
1, 207872, Note_on_c, 1, 60, 0
1, 207872, Note_on_c, 1, 64, 0
1, 207872, Note_on_c, 1, 60, 67
1, 207872, Note_on_c, 1, 64, 67
1, 208384, Note_on_c, 1, 60, 0
1, 208384, Note_on_c, 1, 64, 0
1, 208384, Note_on_c, 1, 60, 68
1, 208384, Note_on_c, 1, 64, 68
1, 208816, Note_on_c, 0, 80, 84
1, 208896, Note_on_c, 0, 76, 0
1, 208896, Note_on_c, 0, 80, 0
1, 208896, Note_on_c, 0, 81, 84
1, 208896, Note_on_c, 1, 60, 0
1, 208896, Note_on_c, 1, 64, 0
1, 208896, Note_on_c, 1, 60, 68
1, 208896, Note_on_c, 1, 64, 68
1, 209408, Note_on_c, 1, 60, 0
1, 209408, Note_on_c, 1, 64, 0
1, 209408, Note_on_c, 1, 60, 70
1, 209408, Note_on_c, 1, 64, 70
1, 209920, Note_on_c, 1, 60, 0
1, 209920, Note_on_c, 1, 64, 0
1, 209920, Note_on_c, 1, 60, 71
1, 209920, Note_on_c, 1, 64, 71
1, 210432, Note_on_c, 0, 81, 0
1, 210432, Note_on_c, 0, 83, 85
1, 210432, Note_on_c, 1, 60, 0
1, 210432, Note_on_c, 1, 64, 0
1, 210432, Note_on_c, 1, 60, 73
1, 210432, Note_on_c, 1, 64, 73
1, 210560, Note_on_c, 0, 83, 0
1, 210560, Note_on_c, 0, 81, 85
1, 210688, Note_on_c, 0, 81, 0
1, 210688, Note_on_c, 0, 80, 86
1, 210816, Note_on_c, 0, 80, 0
1, 210816, Note_on_c, 0, 81, 86
1, 210944, Note_on_c, 0, 81, 0
1, 210944, Note_on_c, 0, 84, 86
1, 210944, Note_on_c, 1, 60, 0
1, 210944, Note_on_c, 1, 64, 0
1, 210944, Note_on_c, 1, 60, 74
1, 210944, Note_on_c, 1, 64, 74
1, 211456, Note_on_c, 0, 84, 0
1, 211456, Note_on_c, 0, 81, 87
1, 211456, Note_on_c, 1, 60, 0
1, 211456, Note_on_c, 1, 64, 0
1, 211456, Note_on_c, 1, 60, 76
1, 211456, Note_on_c, 1, 64, 76
1, 211968, Note_on_c, 0, 81, 0
1, 211968, Note_on_c, 0, 84, 88
1, 211968, Note_on_c, 1, 60, 0
1, 211968, Note_on_c, 1, 64, 0
1, 211968, Note_on_c, 1, 60, 77
1, 211968, Note_on_c, 1, 64, 77
1, 212480, Note_on_c, 0, 84, 0
1, 212480, Note_on_c, 0, 81, 89
1, 212480, Note_on_c, 1, 60, 0
1, 212480, Note_on_c, 1, 64, 0
1, 212480, Note_on_c, 1, 60, 79
1, 212480, Note_on_c, 1, 64, 79
1, 212992, Note_on_c, 0, 81, 0
1, 212992, Note_on_c, 0, 83, 91
1, 212992, Note_on_c, 1, 60, 0
1, 212992, Note_on_c, 1, 64, 0
1, 212992, Note_on_c, 1, 62, 81
1, 213248, Note_on_c, 1, 71, 80
1, 213504, Note_on_c, 0, 83, 0
1, 213504, Note_on_c, 0, 79, 93
1, 213504, Note_on_c, 1, 71, 0
1, 213504, Note_on_c, 1, 67, 82
1, 213760, Note_on_c, 1, 67, 0
1, 213760, Note_on_c, 1, 71, 84
1, 214016, Note_on_c, 0, 79, 0
1, 214016, Note_on_c, 0, 86, 114
1, 214016, Note_on_c, 1, 71, 0
1, 214016, Note_on_c, 1, 62, 0
1, 214016, Note_on_c, 1, 62, 99
1, 214272, Note_on_c, 1, 71, 88
1, 214528, Note_on_c, 1, 71, 0
1, 214528, Note_on_c, 1, 67, 87
1, 214784, Note_on_c, 1, 67, 0
1, 214784, Note_on_c, 1, 71, 86
1, 215040, Note_on_c, 1, 71, 0
1, 215040, Note_on_c, 1, 62, 0
1, 215040, Note_on_c, 1, 62, 84
1, 215296, Note_on_c, 1, 71, 84
1, 215552, Note_on_c, 1, 71, 0
1, 215552, Note_on_c, 1, 67, 84
1, 215808, Note_on_c, 1, 67, 0
1, 215808, Note_on_c, 1, 71, 83
1, 216064, Note_on_c, 0, 86, 0
1, 216064, Note_on_c, 0, 84, 101
1, 216064, Note_on_c, 1, 71, 0
1, 216064, Note_on_c, 1, 62, 0
1, 216064, Note_on_c, 1, 62, 81
1, 216320, Note_on_c, 0, 84, 0
1, 216320, Note_on_c, 0, 83, 93
1, 216320, Note_on_c, 1, 71, 81
1, 216576, Note_on_c, 0, 83, 0
1, 216576, Note_on_c, 0, 81, 91
1, 216576, Note_on_c, 1, 71, 0
1, 216576, Note_on_c, 1, 67, 80
1, 216832, Note_on_c, 0, 81, 0
1, 216832, Note_on_c, 0, 79, 90
1, 216832, Note_on_c, 1, 67, 0
1, 216832, Note_on_c, 1, 71, 79
1, 217088, Note_on_c, 0, 79, 0
1, 217088, Note_on_c, 0, 81, 90
1, 217088, Note_on_c, 1, 71, 0
1, 217088, Note_on_c, 1, 62, 0
1, 217088, Note_on_c, 1, 62, 76
1, 217344, Note_on_c, 0, 81, 0
1, 217344, Note_on_c, 0, 83, 89
1, 217344, Note_on_c, 1, 72, 77
1, 217472, Note_on_c, 0, 83, 0
1, 217472, Note_on_c, 0, 81, 88
1, 217600, Note_on_c, 0, 81, 0
1, 217600, Note_on_c, 0, 83, 86
1, 217600, Note_on_c, 1, 72, 0
1, 217600, Note_on_c, 1, 66, 75
1, 217728, Note_on_c, 0, 83, 0
1, 217728, Note_on_c, 0, 81, 86
1, 217856, Note_on_c, 0, 81, 0
1, 217856, Note_on_c, 0, 83, 85
1, 217856, Note_on_c, 1, 66, 0
1, 217856, Note_on_c, 1, 72, 75
1, 217984, Note_on_c, 0, 83, 0
1, 217984, Note_on_c, 0, 81, 85
1, 218112, Note_on_c, 0, 81, 0
1, 218112, Note_on_c, 0, 83, 84
1, 218112, Note_on_c, 1, 72, 0
1, 218112, Note_on_c, 1, 62, 0
1, 218112, Note_on_c, 1, 62, 72
1, 218240, Note_on_c, 0, 83, 0
1, 218240, Note_on_c, 0, 81, 84
1, 218368, Note_on_c, 0, 81, 0
1, 218368, Note_on_c, 0, 83, 81
1, 218368, Note_on_c, 1, 72, 73
1, 218496, Note_on_c, 0, 83, 0
1, 218496, Note_on_c, 0, 81, 81
1, 218624, Note_on_c, 0, 81, 0
1, 218624, Note_on_c, 0, 83, 78
1, 218624, Note_on_c, 1, 72, 0
1, 218624, Note_on_c, 1, 66, 72
1, 218752, Note_on_c, 0, 83, 0
1, 218752, Note_on_c, 0, 81, 77
1, 218880, Note_on_c, 0, 81, 0
1, 218880, Note_on_c, 0, 83, 77
1, 218880, Note_on_c, 1, 66, 0
1, 218880, Note_on_c, 1, 72, 71
1, 219008, Note_on_c, 0, 83, 0
1, 219008, Note_on_c, 0, 81, 77
1, 219136, Note_on_c, 0, 81, 0
1, 219136, Note_on_c, 0, 83, 76
1, 219136, Note_on_c, 1, 72, 0
1, 219136, Note_on_c, 1, 62, 0
1, 219136, Note_on_c, 1, 62, 68
1, 219264, Note_on_c, 0, 83, 0
1, 219264, Note_on_c, 0, 81, 75
1, 219392, Note_on_c, 0, 81, 0
1, 219392, Note_on_c, 0, 83, 73
1, 219392, Note_on_c, 1, 72, 68
1, 219520, Note_on_c, 0, 83, 0
1, 219520, Note_on_c, 0, 81, 73
1, 219648, Note_on_c, 0, 81, 0
1, 219648, Note_on_c, 0, 83, 73
1, 219648, Note_on_c, 1, 72, 0
1, 219648, Note_on_c, 1, 66, 68
1, 219776, Note_on_c, 0, 83, 0
1, 219776, Note_on_c, 0, 81, 73
1, 219904, Note_on_c, 0, 81, 0
1, 219904, Note_on_c, 0, 83, 72
1, 219904, Note_on_c, 1, 66, 0
1, 219904, Note_on_c, 1, 72, 67
1, 220032, Note_on_c, 0, 83, 0
1, 220032, Note_on_c, 0, 81, 72
1, 220160, Note_on_c, 0, 81, 0
1, 220160, Note_on_c, 0, 83, 70
1, 220160, Note_on_c, 1, 72, 0
1, 220160, Note_on_c, 1, 62, 0
1, 220160, Note_on_c, 1, 62, 64
1, 220288, Note_on_c, 0, 83, 0
1, 220288, Note_on_c, 0, 81, 70
1, 220416, Note_on_c, 0, 81, 0
1, 220416, Note_on_c, 0, 83, 70
1, 220416, Note_on_c, 1, 72, 65
1, 220544, Note_on_c, 0, 83, 0
1, 220544, Note_on_c, 0, 81, 70
1, 220672, Note_on_c, 0, 81, 0
1, 220672, Note_on_c, 0, 83, 68
1, 220672, Note_on_c, 1, 72, 0
1, 220672, Note_on_c, 1, 66, 64
1, 220800, Note_on_c, 0, 83, 0
1, 220800, Note_on_c, 0, 81, 67
1, 220928, Note_on_c, 0, 81, 0
1, 220928, Note_on_c, 0, 79, 66
1, 220928, Note_on_c, 1, 66, 0
1, 220928, Note_on_c, 1, 72, 63
1, 221056, Note_on_c, 0, 79, 0
1, 221056, Note_on_c, 0, 81, 65
1, 221184, Note_on_c, 0, 81, 0
1, 221184, Note_on_c, 0, 79, 65
1, 221184, Note_on_c, 1, 72, 0
1, 221184, Note_on_c, 1, 62, 0
1, 221184, Note_on_c, 1, 67, 64
1, 221184, Note_on_c, 1, 71, 64
1, 222208, Note_on_c, 0, 79, 0
1, 222208, Note_on_c, 0, 79, 63
1, 222208, Note_on_c, 1, 67, 0
1, 222208, Note_on_c, 1, 71, 0
1, 222464, Note_on_c, 0, 79, 0
1, 222464, Note_on_c, 0, 74, 64
1, 222720, Note_on_c, 0, 74, 0
1, 222720, Note_on_c, 0, 79, 65
1, 222976, Note_on_c, 0, 79, 0
1, 222976, Note_on_c, 0, 83, 68
1, 223232, Note_on_c, 0, 83, 0
1, 223232, Note_on_c, 0, 86, 70
1, 223488, Note_on_c, 0, 86, 0
1, 223488, Note_on_c, 0, 83, 73
1, 223744, Note_on_c, 0, 83, 0
1, 223744, Note_on_c, 0, 79, 75
1, 224000, Note_on_c, 0, 79, 0
1, 224000, Note_on_c, 0, 83, 77
1, 224256, Note_on_c, 0, 83, 0
1, 224256, Note_on_c, 0, 84, 79
1, 224256, Note_on_c, 1, 62, 79
1, 224256, Note_on_c, 1, 67, 79
1, 224256, Note_on_c, 1, 71, 79
1, 224512, Note_on_c, 0, 84, 0
1, 224512, Note_on_c, 0, 81, 82
1, 224768, Note_on_c, 0, 81, 0
1, 224768, Note_on_c, 0, 78, 78
1, 225024, Note_on_c, 0, 78, 0
1, 225024, Note_on_c, 0, 81, 75
1, 225280, Note_on_c, 0, 81, 0
1, 225280, Note_on_c, 0, 79, 75
1, 225280, Note_on_c, 1, 62, 0
1, 225280, Note_on_c, 1, 67, 0
1, 225280, Note_on_c, 1, 71, 0
1, 225280, Note_on_c, 1, 67, 68
1, 225280, Note_on_c, 1, 71, 68
1, 226304, Note_on_c, 0, 79, 0
1, 226304, Note_on_c, 0, 67, 60
1, 226304, Note_on_c, 1, 67, 0
1, 226304, Note_on_c, 1, 71, 0
1, 226560, Note_on_c, 0, 67, 0
1, 226560, Note_on_c, 0, 62, 62
1, 226816, Note_on_c, 0, 62, 0
1, 226816, Note_on_c, 0, 67, 66
1, 227072, Note_on_c, 0, 67, 0
1, 227072, Note_on_c, 0, 71, 67
1, 227328, Note_on_c, 0, 71, 0
1, 227328, Note_on_c, 0, 74, 70
1, 227584, Note_on_c, 0, 74, 0
1, 227584, Note_on_c, 0, 71, 73
1, 227840, Note_on_c, 0, 71, 0
1, 227840, Note_on_c, 0, 67, 75
1, 228096, Note_on_c, 0, 67, 0
1, 228096, Note_on_c, 0, 71, 76
1, 228352, Note_on_c, 0, 71, 0
1, 228352, Note_on_c, 0, 72, 79
1, 228352, Note_on_c, 1, 50, 74
1, 228352, Note_on_c, 1, 57, 74
1, 228352, Note_on_c, 1, 60, 74
1, 228608, Note_on_c, 0, 72, 0
1, 228608, Note_on_c, 0, 69, 79
1, 228864, Note_on_c, 0, 69, 0
1, 228864, Note_on_c, 0, 66, 76
1, 229120, Note_on_c, 0, 66, 0
1, 229120, Note_on_c, 0, 69, 74
1, 229376, Note_on_c, 0, 69, 0
1, 229376, Note_on_c, 0, 67, 71
1, 229376, Note_on_c, 1, 50, 0
1, 229376, Note_on_c, 1, 57, 0
1, 229376, Note_on_c, 1, 60, 0
1, 229376, Note_on_c, 1, 55, 62
1, 229376, Note_on_c, 1, 59, 62
1, 230400, Note_on_c, 0, 67, 0
1, 230400, Note_on_c, 0, 74, 91
1, 230400, Note_on_c, 0, 83, 91
1, 230400, Note_on_c, 1, 55, 0
1, 230400, Note_on_c, 1, 59, 0
1, 230400, Note_on_c, 1, 43, 78
1, 230400, Note_on_c, 1, 55, 78
1, 230554, Note_on_c, 0, 74, 0
1, 230554, Note_on_c, 1, 43, 0
1, 230707, Note_on_c, 0, 83, 0
1, 230707, Note_on_c, 1, 55, 0
1, 231424, Note_on_c, 0, 71, 86
1, 231424, Note_on_c, 0, 79, 86
1, 231424, Note_on_c, 1, 43, 73
1, 231424, Note_on_c, 1, 55, 73
1, 231578, Note_on_c, 0, 71, 0
1, 231578, Note_on_c, 1, 43, 0
1, 231731, Note_on_c, 0, 79, 0
1, 231731, Note_on_c, 1, 55, 0
1, 233472, Note_on_c, 0, 67, 83
1, 233472, Note_on_c, 1, 43, 83
1, 233472, Note_on_c, 1, 55, 83
1, 234496, Note_on_c, 0, 67, 0
1, 234496, Note_on_c, 0, 79, 57
1, 234496, Note_on_c, 1, 43, 0
1, 234496, Note_on_c, 1, 55, 0
1, 234752, Note_on_c, 0, 79, 0
1, 234752, Note_on_c, 0, 76, 58
1, 235008, Note_on_c, 0, 76, 0
1, 235008, Note_on_c, 0, 79, 60
1, 235264, Note_on_c, 0, 79, 0
1, 235264, Note_on_c, 0, 82, 61
1, 235520, Note_on_c, 0, 82, 0
1, 235520, Note_on_c, 0, 86, 63
1, 235776, Note_on_c, 0, 86, 0
1, 235776, Note_on_c, 0, 82, 64
1, 236032, Note_on_c, 0, 82, 0
1, 236032, Note_on_c, 0, 79, 65
1, 236288, Note_on_c, 0, 79, 0
1, 236288, Note_on_c, 0, 82, 67
1, 236544, Note_on_c, 0, 82, 0
1, 236544, Note_on_c, 0, 84, 67
1, 236544, Note_on_c, 1, 62, 57
1, 236544, Note_on_c, 1, 69, 57
1, 236544, Note_on_c, 1, 72, 57
1, 236800, Note_on_c, 0, 84, 0
1, 236800, Note_on_c, 0, 81, 64
1, 237056, Note_on_c, 0, 81, 0
1, 237056, Note_on_c, 0, 78, 61
1, 237312, Note_on_c, 0, 78, 0
1, 237312, Note_on_c, 0, 81, 60
1, 237568, Note_on_c, 0, 81, 0
1, 237568, Note_on_c, 0, 79, 57
1, 237568, Note_on_c, 1, 62, 0
1, 237568, Note_on_c, 1, 69, 0
1, 237568, Note_on_c, 1, 72, 0
1, 237568, Note_on_c, 1, 67, 47
1, 237568, Note_on_c, 1, 70, 47
1, 237875, Note_on_c, 0, 79, 0
1, 238592, Note_on_c, 0, 67, 57
1, 238592, Note_on_c, 1, 67, 0
1, 238592, Note_on_c, 1, 70, 0
1, 238848, Note_on_c, 0, 67, 0
1, 238848, Note_on_c, 0, 62, 58
1, 239104, Note_on_c, 0, 62, 0
1, 239104, Note_on_c, 0, 67, 60
1, 239360, Note_on_c, 0, 67, 0
1, 239360, Note_on_c, 0, 70, 61
1, 239616, Note_on_c, 0, 70, 0
1, 239616, Note_on_c, 0, 74, 63
1, 239872, Note_on_c, 0, 74, 0
1, 239872, Note_on_c, 0, 70, 64
1, 240128, Note_on_c, 0, 70, 0
1, 240128, Note_on_c, 0, 67, 65
1, 240384, Note_on_c, 0, 67, 0
1, 240384, Note_on_c, 0, 70, 67
1, 240640, Note_on_c, 0, 70, 0
1, 240640, Note_on_c, 0, 72, 67
1, 240640, Note_on_c, 1, 50, 57
1, 240640, Note_on_c, 1, 57, 57
1, 240640, Note_on_c, 1, 60, 57
1, 240896, Note_on_c, 0, 72, 0
1, 240896, Note_on_c, 0, 69, 64
1, 241152, Note_on_c, 0, 69, 0
1, 241152, Note_on_c, 0, 66, 61
1, 241408, Note_on_c, 0, 66, 0
1, 241408, Note_on_c, 0, 69, 60
1, 241664, Note_on_c, 0, 69, 0
1, 241664, Note_on_c, 0, 67, 57
1, 241664, Note_on_c, 1, 50, 0
1, 241664, Note_on_c, 1, 57, 0
1, 241664, Note_on_c, 1, 60, 0
1, 241920, Note_on_c, 1, 43, 47
1, 242176, Note_on_c, 1, 43, 0
1, 242176, Note_on_c, 1, 45, 48
1, 242432, Note_on_c, 1, 45, 0
1, 242432, Note_on_c, 1, 46, 49
1, 242688, Note_on_c, 0, 67, 0
1, 242688, Note_on_c, 1, 46, 0
1, 242688, Note_on_c, 1, 48, 50
1, 242944, Note_on_c, 1, 48, 0
1, 242944, Note_on_c, 1, 50, 51
1, 243200, Note_on_c, 1, 50, 0
1, 243200, Note_on_c, 1, 52, 52
1, 243456, Note_on_c, 1, 52, 0
1, 243456, Note_on_c, 1, 54, 53
1, 243712, Note_on_c, 1, 54, 0
1, 243712, Note_on_c, 1, 55, 54
1, 243968, Note_on_c, 0, 79, 54
1, 244224, Note_on_c, 0, 79, 0
1, 244224, Note_on_c, 0, 82, 54
1, 244480, Note_on_c, 0, 82, 0
1, 244480, Note_on_c, 0, 81, 56
1, 244736, Note_on_c, 0, 81, 0
1, 244736, Note_on_c, 0, 79, 56
1, 244736, Note_on_c, 1, 55, 0
1, 244992, Note_on_c, 0, 79, 0
1, 244992, Note_on_c, 0, 77, 58
1, 245248, Note_on_c, 0, 77, 0
1, 245248, Note_on_c, 0, 76, 58
1, 245504, Note_on_c, 0, 76, 0
1, 245504, Note_on_c, 0, 74, 60
1, 245760, Note_on_c, 0, 74, 0
1, 245760, Note_on_c, 0, 73, 60
1, 246016, Note_on_c, 1, 45, 60
1, 246272, Note_on_c, 1, 45, 0
1, 246272, Note_on_c, 1, 47, 61
1, 246528, Note_on_c, 1, 47, 0
1, 246528, Note_on_c, 1, 49, 62
1, 246784, Note_on_c, 0, 73, 0
1, 246784, Note_on_c, 1, 49, 0
1, 246784, Note_on_c, 1, 50, 63
1, 247040, Note_on_c, 1, 50, 0
1, 247040, Note_on_c, 1, 52, 64
1, 247296, Note_on_c, 1, 52, 0
1, 247296, Note_on_c, 1, 54, 65
1, 247552, Note_on_c, 1, 54, 0
1, 247552, Note_on_c, 1, 56, 66
1, 247808, Note_on_c, 1, 56, 0
1, 247808, Note_on_c, 1, 57, 67
1, 248064, Note_on_c, 0, 85, 67
1, 248320, Note_on_c, 0, 85, 0
1, 248320, Note_on_c, 0, 88, 65
1, 248576, Note_on_c, 0, 88, 0
1, 248576, Note_on_c, 0, 86, 64
1, 248832, Note_on_c, 0, 86, 0
1, 248832, Note_on_c, 0, 85, 63
1, 248832, Note_on_c, 1, 57, 0
1, 249088, Note_on_c, 0, 85, 0
1, 249088, Note_on_c, 0, 82, 61
1, 249344, Note_on_c, 0, 82, 0
1, 249344, Note_on_c, 0, 81, 60
1, 249600, Note_on_c, 0, 81, 0
1, 249600, Note_on_c, 0, 79, 58
1, 249856, Note_on_c, 0, 79, 0
1, 249856, Note_on_c, 0, 77, 57
1, 249856, Note_on_c, 1, 38, 57
1, 249856, Note_on_c, 1, 50, 57
1, 250880, Note_on_c, 0, 77, 0
1, 250880, Note_on_c, 0, 74, 57
1, 250880, Note_on_c, 1, 38, 0
1, 250880, Note_on_c, 1, 50, 0
1, 251136, Note_on_c, 0, 74, 0
1, 251136, Note_on_c, 0, 69, 58
1, 251392, Note_on_c, 0, 69, 0
1, 251392, Note_on_c, 0, 74, 60
1, 251648, Note_on_c, 0, 74, 0
1, 251648, Note_on_c, 0, 77, 61
1, 251904, Note_on_c, 0, 77, 0
1, 251904, Note_on_c, 0, 81, 63
1, 252160, Note_on_c, 0, 81, 0
1, 252160, Note_on_c, 0, 77, 64
1, 252416, Note_on_c, 0, 77, 0
1, 252416, Note_on_c, 0, 74, 65
1, 252672, Note_on_c, 0, 74, 0
1, 252672, Note_on_c, 0, 77, 67
1, 252928, Note_on_c, 0, 77, 0
1, 252928, Note_on_c, 0, 79, 67
1, 252928, Note_on_c, 1, 57, 64
1, 252928, Note_on_c, 1, 64, 64
1, 252928, Note_on_c, 1, 67, 64
1, 253184, Note_on_c, 0, 79, 0
1, 253184, Note_on_c, 0, 76, 64
1, 253440, Note_on_c, 0, 76, 0
1, 253440, Note_on_c, 0, 73, 61
1, 253696, Note_on_c, 0, 73, 0
1, 253696, Note_on_c, 0, 76, 60
1, 253952, Note_on_c, 0, 76, 0
1, 253952, Note_on_c, 0, 74, 57
1, 253952, Note_on_c, 1, 57, 0
1, 253952, Note_on_c, 1, 64, 0
1, 253952, Note_on_c, 1, 67, 0
1, 253952, Note_on_c, 1, 62, 54
1, 253952, Note_on_c, 1, 65, 54
1, 254259, Note_on_c, 0, 74, 0
1, 254976, Note_on_c, 0, 62, 57
1, 254976, Note_on_c, 1, 62, 0
1, 254976, Note_on_c, 1, 65, 0
1, 255232, Note_on_c, 0, 62, 0
1, 255232, Note_on_c, 0, 57, 58
1, 255488, Note_on_c, 0, 57, 0
1, 255488, Note_on_c, 0, 62, 60
1, 255744, Note_on_c, 0, 62, 0
1, 255744, Note_on_c, 0, 65, 61
1, 256000, Note_on_c, 0, 65, 0
1, 256000, Note_on_c, 0, 69, 63
1, 256256, Note_on_c, 0, 69, 0
1, 256256, Note_on_c, 0, 65, 64
1, 256512, Note_on_c, 0, 65, 0
1, 256512, Note_on_c, 0, 62, 65
1, 256768, Note_on_c, 0, 62, 0
1, 256768, Note_on_c, 0, 65, 67
1, 257024, Note_on_c, 0, 65, 0
1, 257024, Note_on_c, 0, 67, 67
1, 257024, Note_on_c, 1, 45, 64
1, 257024, Note_on_c, 1, 52, 64
1, 257024, Note_on_c, 1, 55, 64
1, 257280, Note_on_c, 0, 67, 0
1, 257280, Note_on_c, 0, 64, 63
1, 257536, Note_on_c, 0, 64, 0
1, 257536, Note_on_c, 0, 61, 61
1, 257792, Note_on_c, 0, 61, 0
1, 257792, Note_on_c, 0, 64, 58
1, 258048, Note_on_c, 0, 64, 0
1, 258048, Note_on_c, 1, 45, 0
1, 258048, Note_on_c, 1, 52, 0
1, 258048, Note_on_c, 1, 55, 0
1, 258048, Note_on_c, 1, 50, 54
1, 258048, Note_on_c, 1, 53, 54
1, 258304, Note_on_c, 0, 62, 54
1, 258560, Note_on_c, 0, 62, 0
1, 258560, Note_on_c, 0, 64, 54
1, 258816, Note_on_c, 0, 64, 0
1, 258816, Note_on_c, 0, 65, 56
1, 259072, Note_on_c, 0, 65, 0
1, 259072, Note_on_c, 0, 67, 56
1, 259072, Note_on_c, 1, 50, 0
1, 259072, Note_on_c, 1, 53, 0
1, 259328, Note_on_c, 0, 67, 0
1, 259328, Note_on_c, 0, 69, 58
1, 259584, Note_on_c, 0, 69, 0
1, 259584, Note_on_c, 0, 71, 58
1, 259840, Note_on_c, 0, 71, 0
1, 259840, Note_on_c, 0, 73, 60
1, 260096, Note_on_c, 0, 73, 0
1, 260096, Note_on_c, 0, 74, 60
1, 260352, Note_on_c, 1, 62, 60
1, 260608, Note_on_c, 1, 62, 0
1, 260608, Note_on_c, 1, 65, 61
1, 260864, Note_on_c, 1, 65, 0
1, 260864, Note_on_c, 1, 64, 61
1, 261120, Note_on_c, 0, 74, 0
1, 261120, Note_on_c, 1, 64, 0
1, 261120, Note_on_c, 1, 62, 61
1, 261376, Note_on_c, 1, 62, 0
1, 261376, Note_on_c, 1, 60, 62
1, 261632, Note_on_c, 1, 60, 0
1, 261632, Note_on_c, 1, 59, 63
1, 261888, Note_on_c, 1, 59, 0
1, 261888, Note_on_c, 1, 57, 63
1, 262144, Note_on_c, 1, 57, 0
1, 262144, Note_on_c, 1, 56, 63
1, 262400, Note_on_c, 0, 71, 63
1, 262656, Note_on_c, 0, 71, 0
1, 262656, Note_on_c, 0, 72, 64
1, 262912, Note_on_c, 0, 72, 0
1, 262912, Note_on_c, 0, 74, 64
1, 263168, Note_on_c, 0, 74, 0
1, 263168, Note_on_c, 0, 76, 65
1, 263168, Note_on_c, 1, 56, 0
1, 263424, Note_on_c, 0, 76, 0
1, 263424, Note_on_c, 0, 78, 65
1, 263680, Note_on_c, 0, 78, 0
1, 263680, Note_on_c, 0, 80, 66
1, 263936, Note_on_c, 0, 80, 0
1, 263936, Note_on_c, 0, 81, 66
1, 264192, Note_on_c, 0, 81, 0
1, 264192, Note_on_c, 0, 83, 67
1, 264448, Note_on_c, 1, 56, 67
1, 264704, Note_on_c, 1, 56, 0
1, 264704, Note_on_c, 1, 59, 65
1, 264960, Note_on_c, 1, 59, 0
1, 264960, Note_on_c, 1, 58, 64
1, 265216, Note_on_c, 0, 83, 0
1, 265216, Note_on_c, 1, 58, 0
1, 265216, Note_on_c, 1, 56, 63
1, 265472, Note_on_c, 1, 56, 0
1, 265472, Note_on_c, 1, 53, 61
1, 265728, Note_on_c, 1, 53, 0
1, 265728, Note_on_c, 1, 52, 60
1, 265984, Note_on_c, 1, 52, 0
1, 265984, Note_on_c, 1, 50, 58
1, 266240, Note_on_c, 1, 50, 0
1, 266240, Note_on_c, 1, 48, 57
1, 266496, Note_on_c, 0, 81, 54
1, 266752, Note_on_c, 0, 81, 0
1, 266752, Note_on_c, 0, 88, 54
1, 267008, Note_on_c, 0, 88, 0
1, 267008, Note_on_c, 0, 86, 56
1, 267264, Note_on_c, 0, 86, 0
1, 267264, Note_on_c, 0, 84, 56
1, 267264, Note_on_c, 1, 48, 0
1, 267520, Note_on_c, 0, 84, 0
1, 267520, Note_on_c, 0, 83, 58
1, 267776, Note_on_c, 0, 83, 0
1, 267776, Note_on_c, 0, 81, 58
1, 268032, Note_on_c, 0, 81, 0
1, 268032, Note_on_c, 0, 79, 60
1, 268288, Note_on_c, 0, 79, 0
1, 268288, Note_on_c, 0, 77, 60
1, 268544, Note_on_c, 1, 62, 60
1, 268800, Note_on_c, 1, 62, 0
1, 268800, Note_on_c, 1, 69, 61
1, 269056, Note_on_c, 1, 69, 0
1, 269056, Note_on_c, 1, 67, 62
1, 269312, Note_on_c, 0, 77, 0
1, 269312, Note_on_c, 1, 67, 0
1, 269312, Note_on_c, 1, 65, 63
1, 269568, Note_on_c, 1, 65, 0
1, 269568, Note_on_c, 1, 64, 64
1, 269824, Note_on_c, 1, 64, 0
1, 269824, Note_on_c, 1, 62, 65
1, 270080, Note_on_c, 1, 62, 0
1, 270080, Note_on_c, 1, 60, 66
1, 270336, Note_on_c, 1, 60, 0
1, 270336, Note_on_c, 1, 59, 67
1, 270592, Note_on_c, 0, 79, 67
1, 270848, Note_on_c, 0, 79, 0
1, 270848, Note_on_c, 0, 86, 66
1, 271104, Note_on_c, 0, 86, 0
1, 271104, Note_on_c, 0, 84, 65
1, 271360, Note_on_c, 0, 84, 0
1, 271360, Note_on_c, 0, 83, 64
1, 271360, Note_on_c, 1, 59, 0
1, 271616, Note_on_c, 0, 83, 0
1, 271616, Note_on_c, 0, 81, 63
1, 271872, Note_on_c, 0, 81, 0
1, 271872, Note_on_c, 0, 79, 62
1, 272128, Note_on_c, 0, 79, 0
1, 272128, Note_on_c, 0, 77, 61
1, 272384, Note_on_c, 0, 77, 0
1, 272384, Note_on_c, 0, 76, 60
1, 272640, Note_on_c, 1, 60, 60
1, 272896, Note_on_c, 1, 60, 0
1, 272896, Note_on_c, 1, 67, 60
1, 273152, Note_on_c, 1, 67, 0
1, 273152, Note_on_c, 1, 65, 58
1, 273408, Note_on_c, 0, 76, 0
1, 273408, Note_on_c, 1, 65, 0
1, 273408, Note_on_c, 1, 64, 58
1, 273664, Note_on_c, 1, 64, 0
1, 273664, Note_on_c, 1, 62, 56
1, 273920, Note_on_c, 1, 62, 0
1, 273920, Note_on_c, 1, 60, 56
1, 274176, Note_on_c, 1, 60, 0
1, 274176, Note_on_c, 1, 59, 54
1, 274432, Note_on_c, 1, 59, 0
1, 274432, Note_on_c, 1, 57, 54
1, 274688, Note_on_c, 0, 77, 54
1, 274944, Note_on_c, 0, 77, 0
1, 274944, Note_on_c, 0, 84, 54
1, 275200, Note_on_c, 0, 84, 0
1, 275200, Note_on_c, 0, 83, 56
1, 275456, Note_on_c, 0, 83, 0
1, 275456, Note_on_c, 0, 81, 56
1, 275456, Note_on_c, 1, 57, 0
1, 275712, Note_on_c, 0, 81, 0
1, 275712, Note_on_c, 0, 79, 58
1, 275968, Note_on_c, 0, 79, 0
1, 275968, Note_on_c, 0, 77, 58
1, 276224, Note_on_c, 0, 77, 0
1, 276224, Note_on_c, 0, 76, 60
1, 276480, Note_on_c, 0, 76, 0
1, 276480, Note_on_c, 0, 74, 60
1, 276736, Note_on_c, 1, 59, 60
1, 276992, Note_on_c, 1, 59, 0
1, 276992, Note_on_c, 1, 65, 61
1, 277248, Note_on_c, 1, 65, 0
1, 277248, Note_on_c, 1, 64, 62
1, 277504, Note_on_c, 0, 74, 0
1, 277504, Note_on_c, 1, 64, 0
1, 277504, Note_on_c, 1, 62, 63
1, 277760, Note_on_c, 1, 62, 0
1, 277760, Note_on_c, 1, 60, 64
1, 278016, Note_on_c, 1, 60, 0
1, 278016, Note_on_c, 1, 59, 65
1, 278272, Note_on_c, 1, 59, 0
1, 278272, Note_on_c, 1, 57, 66
1, 278528, Note_on_c, 1, 57, 0
1, 278528, Note_on_c, 1, 56, 67
1, 278784, Note_on_c, 0, 76, 67
1, 279040, Note_on_c, 0, 76, 0
1, 279040, Note_on_c, 0, 83, 66
1, 279296, Note_on_c, 0, 83, 0
1, 279296, Note_on_c, 0, 81, 65
1, 279552, Note_on_c, 0, 81, 0
1, 279552, Note_on_c, 0, 80, 64
1, 279552, Note_on_c, 1, 56, 0
1, 279808, Note_on_c, 0, 80, 0
1, 279808, Note_on_c, 0, 77, 63
1, 280064, Note_on_c, 0, 77, 0
1, 280064, Note_on_c, 0, 76, 62
1, 280320, Note_on_c, 0, 76, 0
1, 280320, Note_on_c, 0, 74, 61
1, 280576, Note_on_c, 0, 74, 0
1, 280576, Note_on_c, 0, 72, 60
1, 280832, Note_on_c, 1, 57, 60
1, 281088, Note_on_c, 1, 57, 0
1, 281088, Note_on_c, 1, 60, 60
1, 281344, Note_on_c, 1, 60, 0
1, 281344, Note_on_c, 1, 59, 58
1, 281600, Note_on_c, 0, 72, 0
1, 281600, Note_on_c, 1, 59, 0
1, 281600, Note_on_c, 1, 57, 58
1, 281856, Note_on_c, 1, 57, 0
1, 281856, Note_on_c, 1, 55, 56
1, 282112, Note_on_c, 1, 55, 0
1, 282112, Note_on_c, 1, 53, 56
1, 282368, Note_on_c, 1, 53, 0
1, 282368, Note_on_c, 1, 52, 54
1, 282624, Note_on_c, 1, 52, 0
1, 282624, Note_on_c, 1, 50, 54
1, 282880, Note_on_c, 0, 70, 57
1, 283136, Note_on_c, 0, 70, 0
1, 283136, Note_on_c, 0, 74, 58
1, 283392, Note_on_c, 0, 74, 0
1, 283392, Note_on_c, 0, 72, 58
1, 283648, Note_on_c, 0, 72, 0
1, 283648, Note_on_c, 0, 70, 59
1, 283904, Note_on_c, 0, 70, 0
1, 283904, Note_on_c, 0, 69, 60
1, 284160, Note_on_c, 0, 69, 0
1, 284160, Note_on_c, 0, 67, 60
1, 284416, Note_on_c, 0, 67, 0
1, 284416, Note_on_c, 0, 65, 61
1, 284672, Note_on_c, 0, 65, 0
1, 284672, Note_on_c, 0, 64, 61
1, 284672, Note_on_c, 1, 50, 0
1, 284672, Note_on_c, 1, 48, 57
1, 284672, Note_on_c, 1, 55, 57
1, 284672, Note_on_c, 1, 58, 57
1, 284928, Note_on_c, 0, 64, 0
1, 284928, Note_on_c, 0, 65, 62
1, 285184, Note_on_c, 0, 65, 0
1, 285184, Note_on_c, 0, 67, 63
1, 285440, Note_on_c, 0, 67, 0
1, 285440, Note_on_c, 0, 69, 63
1, 285696, Note_on_c, 0, 69, 0
1, 285696, Note_on_c, 0, 70, 64
1, 285952, Note_on_c, 0, 70, 0
1, 285952, Note_on_c, 0, 72, 65
1, 286208, Note_on_c, 0, 72, 0
1, 286208, Note_on_c, 0, 74, 65
1, 286464, Note_on_c, 0, 74, 0
1, 286464, Note_on_c, 0, 76, 66
1, 286720, Note_on_c, 0, 76, 0
1, 286720, Note_on_c, 0, 77, 64
1, 286720, Note_on_c, 1, 48, 0
1, 286720, Note_on_c, 1, 55, 0
1, 286720, Note_on_c, 1, 58, 0
1, 286720, Note_on_c, 1, 65, 47
1, 287232, Note_on_c, 1, 72, 48
1, 287744, Note_on_c, 1, 72, 0
1, 287744, Note_on_c, 1, 69, 49
1, 287744, Note_on_c, 1, 65, 0
1, 288256, Note_on_c, 1, 69, 0
1, 288256, Note_on_c, 1, 72, 51
1, 288768, Note_on_c, 0, 77, 0
1, 288768, Note_on_c, 0, 81, 66
1, 288768, Note_on_c, 1, 72, 0
1, 288768, Note_on_c, 1, 65, 51
1, 289280, Note_on_c, 1, 72, 53
1, 289792, Note_on_c, 0, 81, 0
1, 289792, Note_on_c, 0, 84, 68
1, 289792, Note_on_c, 1, 72, 0
1, 289792, Note_on_c, 1, 69, 55
1, 289792, Note_on_c, 1, 65, 0
1, 290304, Note_on_c, 1, 69, 0
1, 290304, Note_on_c, 1, 72, 57
1, 290816, Note_on_c, 0, 84, 0
1, 290816, Note_on_c, 0, 76, 68
1, 290816, Note_on_c, 1, 72, 0
1, 290816, Note_on_c, 1, 67, 57
1, 291328, Note_on_c, 1, 72, 57
1, 291840, Note_on_c, 1, 72, 0
1, 291840, Note_on_c, 1, 70, 54
1, 291840, Note_on_c, 1, 67, 0
1, 292352, Note_on_c, 0, 76, 0
1, 292352, Note_on_c, 0, 77, 65
1, 292352, Note_on_c, 1, 70, 0
1, 292352, Note_on_c, 1, 72, 53
1, 292608, Note_on_c, 0, 77, 0
1, 292608, Note_on_c, 0, 79, 64
1, 292864, Note_on_c, 0, 79, 0
1, 292864, Note_on_c, 0, 77, 64
1, 292864, Note_on_c, 1, 72, 0
1, 292864, Note_on_c, 1, 65, 51
1, 293376, Note_on_c, 1, 72, 51
1, 293888, Note_on_c, 0, 77, 0
1, 293888, Note_on_c, 1, 72, 0
1, 293888, Note_on_c, 1, 69, 49
1, 293888, Note_on_c, 1, 65, 0
1, 294400, Note_on_c, 1, 69, 0
1, 294400, Note_on_c, 1, 72, 48
1, 294912, Note_on_c, 0, 86, 70
1, 294912, Note_on_c, 1, 72, 0
1, 294912, Note_on_c, 1, 65, 49
1, 295424, Note_on_c, 1, 74, 51
1, 295936, Note_on_c, 1, 74, 0
1, 295936, Note_on_c, 1, 70, 52
1, 295936, Note_on_c, 1, 65, 0
1, 296448, Note_on_c, 1, 70, 0
1, 296448, Note_on_c, 1, 74, 53
1, 296960, Note_on_c, 0, 86, 0
1, 296960, Note_on_c, 0, 84, 72
1, 296960, Note_on_c, 1, 74, 0
1, 296960, Note_on_c, 1, 65, 54
1, 297472, Note_on_c, 1, 72, 55
1, 297984, Note_on_c, 0, 84, 0
1, 297984, Note_on_c, 0, 89, 76
1, 297984, Note_on_c, 1, 72, 0
1, 297984, Note_on_c, 1, 69, 56
1, 297984, Note_on_c, 1, 65, 0
1, 298496, Note_on_c, 1, 69, 0
1, 298496, Note_on_c, 1, 72, 56
1, 299008, Note_on_c, 0, 89, 0
1, 299008, Note_on_c, 0, 84, 74
1, 299008, Note_on_c, 1, 72, 0
1, 299008, Note_on_c, 1, 64, 58
1, 299520, Note_on_c, 1, 72, 56
1, 300032, Note_on_c, 0, 84, 0
1, 300032, Note_on_c, 0, 82, 69
1, 300032, Note_on_c, 1, 72, 0
1, 300032, Note_on_c, 1, 67, 55
1, 300032, Note_on_c, 1, 64, 0
1, 300203, Note_on_c, 0, 82, 0
1, 300203, Note_on_c, 0, 84, 68
1, 300373, Note_on_c, 0, 84, 0
1, 300373, Note_on_c, 0, 82, 67
1, 300544, Note_on_c, 0, 82, 0
1, 300544, Note_on_c, 0, 81, 67
1, 300544, Note_on_c, 1, 67, 0
1, 300544, Note_on_c, 1, 72, 55
1, 300800, Note_on_c, 0, 81, 0
1, 300800, Note_on_c, 0, 82, 65
1, 301056, Note_on_c, 0, 82, 0
1, 301056, Note_on_c, 0, 81, 64
1, 301056, Note_on_c, 1, 72, 0
1, 301056, Note_on_c, 1, 65, 53
1, 301568, Note_on_c, 1, 72, 53
1, 302080, Note_on_c, 0, 81, 0
1, 302080, Note_on_c, 1, 72, 0
1, 302080, Note_on_c, 1, 69, 51
1, 302080, Note_on_c, 1, 65, 0
1, 302592, Note_on_c, 1, 69, 0
1, 302592, Note_on_c, 1, 72, 51
1, 303104, Note_on_c, 0, 74, 73
1, 303104, Note_on_c, 1, 72, 0
1, 303104, Note_on_c, 1, 70, 71
1, 303616, Note_on_c, 0, 74, 0
1, 303616, Note_on_c, 0, 76, 75
1, 303872, Note_on_c, 0, 76, 0
1, 303872, Note_on_c, 0, 77, 77
1, 304128, Note_on_c, 0, 77, 0
1, 304128, Note_on_c, 0, 79, 78
1, 304128, Note_on_c, 1, 70, 0
1, 304384, Note_on_c, 0, 79, 0
1, 304384, Note_on_c, 0, 81, 79
1, 304640, Note_on_c, 0, 81, 0
1, 304640, Note_on_c, 0, 82, 80
1, 304896, Note_on_c, 0, 82, 0
1, 304896, Note_on_c, 0, 84, 81
1, 305152, Note_on_c, 0, 84, 0
1, 305152, Note_on_c, 0, 86, 82
1, 305408, Note_on_c, 0, 86, 0
1, 305408, Note_on_c, 0, 84, 82
1, 305664, Note_on_c, 0, 84, 0
1, 305664, Note_on_c, 0, 82, 80
1, 305920, Note_on_c, 0, 82, 0
1, 305920, Note_on_c, 0, 81, 79
1, 306176, Note_on_c, 0, 81, 0
1, 306176, Note_on_c, 0, 79, 77
1, 306176, Note_on_c, 1, 58, 77
1, 306176, Note_on_c, 1, 65, 77
1, 306432, Note_on_c, 0, 79, 0
1, 306432, Note_on_c, 0, 77, 76
1, 306688, Note_on_c, 0, 77, 0
1, 306688, Note_on_c, 0, 76, 74
1, 306944, Note_on_c, 0, 76, 0
1, 306944, Note_on_c, 0, 74, 73
1, 307200, Note_on_c, 0, 74, 0
1, 307200, Note_on_c, 0, 72, 73
1, 307200, Note_on_c, 1, 58, 0
1, 307200, Note_on_c, 1, 65, 0
1, 307200, Note_on_c, 1, 57, 68
1, 307200, Note_on_c, 1, 65, 68
1, 307712, Note_on_c, 0, 72, 0
1, 307712, Note_on_c, 0, 74, 75
1, 307968, Note_on_c, 0, 74, 0
1, 307968, Note_on_c, 0, 76, 77
1, 308224, Note_on_c, 0, 76, 0
1, 308224, Note_on_c, 0, 77, 78
1, 308224, Note_on_c, 1, 57, 0
1, 308224, Note_on_c, 1, 65, 0
1, 308480, Note_on_c, 0, 77, 0
1, 308480, Note_on_c, 0, 79, 79
1, 308736, Note_on_c, 0, 79, 0
1, 308736, Note_on_c, 0, 81, 80
1, 308992, Note_on_c, 0, 81, 0
1, 308992, Note_on_c, 0, 82, 81
1, 309248, Note_on_c, 0, 82, 0
1, 309248, Note_on_c, 0, 84, 82
1, 309504, Note_on_c, 0, 84, 0
1, 309504, Note_on_c, 0, 82, 82
1, 309760, Note_on_c, 0, 82, 0
1, 309760, Note_on_c, 0, 81, 80
1, 310016, Note_on_c, 0, 81, 0
1, 310016, Note_on_c, 0, 79, 79
1, 310272, Note_on_c, 0, 79, 0
1, 310272, Note_on_c, 0, 77, 77
1, 310272, Note_on_c, 1, 57, 77
1, 310272, Note_on_c, 1, 65, 77
1, 310528, Note_on_c, 0, 77, 0
1, 310528, Note_on_c, 0, 76, 76
1, 310784, Note_on_c, 0, 76, 0
1, 310784, Note_on_c, 0, 74, 74
1, 311040, Note_on_c, 0, 74, 0
1, 311040, Note_on_c, 0, 72, 73
1, 311296, Note_on_c, 0, 72, 0
1, 311296, Note_on_c, 0, 70, 73
1, 311296, Note_on_c, 1, 57, 0
1, 311296, Note_on_c, 1, 65, 0
1, 311296, Note_on_c, 1, 55, 67
1, 311296, Note_on_c, 1, 65, 67
1, 311808, Note_on_c, 0, 70, 0
1, 311808, Note_on_c, 0, 72, 75
1, 312064, Note_on_c, 0, 72, 0
1, 312064, Note_on_c, 0, 74, 77
1, 312320, Note_on_c, 0, 74, 0
1, 312320, Note_on_c, 0, 76, 78
1, 312320, Note_on_c, 1, 55, 0
1, 312320, Note_on_c, 1, 65, 0
1, 312576, Note_on_c, 0, 76, 0
1, 312576, Note_on_c, 0, 77, 79
1, 312832, Note_on_c, 0, 77, 0
1, 312832, Note_on_c, 0, 79, 80
1, 313088, Note_on_c, 0, 79, 0
1, 313088, Note_on_c, 0, 81, 81
1, 313344, Note_on_c, 0, 81, 0
1, 313344, Note_on_c, 0, 82, 82
1, 313600, Note_on_c, 0, 82, 0
1, 313600, Note_on_c, 0, 81, 82
1, 313856, Note_on_c, 0, 81, 0
1, 313856, Note_on_c, 0, 79, 80
1, 314112, Note_on_c, 0, 79, 0
1, 314112, Note_on_c, 0, 77, 79
1, 314368, Note_on_c, 0, 77, 0
1, 314368, Note_on_c, 0, 76, 77
1, 314368, Note_on_c, 1, 55, 77
1, 314368, Note_on_c, 1, 64, 77
1, 314624, Note_on_c, 0, 76, 0
1, 314624, Note_on_c, 0, 74, 76
1, 314880, Note_on_c, 0, 74, 0
1, 314880, Note_on_c, 0, 72, 74
1, 315136, Note_on_c, 0, 72, 0
1, 315136, Note_on_c, 0, 70, 73
1, 315392, Note_on_c, 0, 70, 0
1, 315392, Note_on_c, 0, 69, 73
1, 315392, Note_on_c, 1, 55, 0
1, 315392, Note_on_c, 1, 64, 0
1, 315392, Note_on_c, 1, 53, 67
1, 315392, Note_on_c, 1, 65, 67
1, 315904, Note_on_c, 0, 69, 0
1, 315904, Note_on_c, 0, 70, 75
1, 316160, Note_on_c, 0, 70, 0
1, 316160, Note_on_c, 0, 72, 77
1, 316416, Note_on_c, 0, 72, 0
1, 316416, Note_on_c, 0, 74, 78
1, 316416, Note_on_c, 1, 53, 0
1, 316416, Note_on_c, 1, 65, 0
1, 316672, Note_on_c, 0, 74, 0
1, 316672, Note_on_c, 0, 76, 79
1, 316928, Note_on_c, 0, 76, 0
1, 316928, Note_on_c, 0, 77, 80
1, 317184, Note_on_c, 0, 77, 0
1, 317184, Note_on_c, 0, 79, 81
1, 317440, Note_on_c, 0, 79, 0
1, 317440, Note_on_c, 0, 81, 82
1, 317696, Note_on_c, 0, 81, 0
1, 317696, Note_on_c, 0, 79, 82
1, 317952, Note_on_c, 0, 79, 0
1, 317952, Note_on_c, 0, 77, 80
1, 318208, Note_on_c, 0, 77, 0
1, 318208, Note_on_c, 0, 76, 79
1, 318464, Note_on_c, 0, 76, 0
1, 318464, Note_on_c, 0, 74, 77
1, 318720, Note_on_c, 0, 74, 0
1, 318720, Note_on_c, 0, 72, 76
1, 318976, Note_on_c, 0, 72, 0
1, 318976, Note_on_c, 0, 70, 74
1, 319232, Note_on_c, 0, 70, 0
1, 319232, Note_on_c, 0, 69, 73
1, 319488, Note_on_c, 0, 69, 0
1, 319488, Note_on_c, 0, 81, 83
1, 319488, Note_on_c, 1, 53, 69
1, 320000, Note_on_c, 1, 53, 0
1, 320000, Note_on_c, 1, 55, 71
1, 320256, Note_on_c, 1, 55, 0
1, 320256, Note_on_c, 1, 57, 72
1, 320512, Note_on_c, 0, 81, 0
1, 320512, Note_on_c, 1, 57, 0
1, 320512, Note_on_c, 1, 58, 74
1, 320768, Note_on_c, 1, 58, 0
1, 320768, Note_on_c, 1, 60, 74
1, 321024, Note_on_c, 1, 60, 0
1, 321024, Note_on_c, 1, 62, 76
1, 321280, Note_on_c, 1, 62, 0
1, 321280, Note_on_c, 1, 64, 77
1, 321536, Note_on_c, 1, 64, 0
1, 321536, Note_on_c, 1, 65, 78
1, 321792, Note_on_c, 1, 65, 0
1, 321792, Note_on_c, 1, 64, 78
1, 322048, Note_on_c, 1, 64, 0
1, 322048, Note_on_c, 1, 62, 76
1, 322304, Note_on_c, 1, 62, 0
1, 322304, Note_on_c, 1, 60, 75
1, 322560, Note_on_c, 0, 72, 83
1, 322560, Note_on_c, 0, 81, 83
1, 322560, Note_on_c, 1, 60, 0
1, 322560, Note_on_c, 1, 58, 73
1, 322816, Note_on_c, 1, 58, 0
1, 322816, Note_on_c, 1, 57, 72
1, 323072, Note_on_c, 1, 57, 0
1, 323072, Note_on_c, 1, 55, 70
1, 323328, Note_on_c, 1, 55, 0
1, 323328, Note_on_c, 1, 53, 69
1, 323584, Note_on_c, 0, 72, 0
1, 323584, Note_on_c, 0, 81, 0
1, 323584, Note_on_c, 0, 72, 81
1, 323584, Note_on_c, 0, 79, 81
1, 323584, Note_on_c, 1, 53, 0
1, 323584, Note_on_c, 1, 52, 69
1, 324096, Note_on_c, 1, 52, 0
1, 324096, Note_on_c, 1, 53, 71
1, 324352, Note_on_c, 1, 53, 0
1, 324352, Note_on_c, 1, 55, 72
1, 324608, Note_on_c, 0, 72, 0
1, 324608, Note_on_c, 0, 79, 0
1, 324608, Note_on_c, 1, 55, 0
1, 324608, Note_on_c, 1, 57, 74
1, 324864, Note_on_c, 1, 57, 0
1, 324864, Note_on_c, 1, 59, 74
1, 325120, Note_on_c, 1, 59, 0
1, 325120, Note_on_c, 1, 60, 76
1, 325376, Note_on_c, 1, 60, 0
1, 325376, Note_on_c, 1, 62, 77
1, 325632, Note_on_c, 1, 62, 0
1, 325632, Note_on_c, 1, 64, 78
1, 325888, Note_on_c, 1, 64, 0
1, 325888, Note_on_c, 1, 62, 78
1, 326144, Note_on_c, 1, 62, 0
1, 326144, Note_on_c, 1, 60, 76
1, 326400, Note_on_c, 1, 60, 0
1, 326400, Note_on_c, 1, 59, 75
1, 326656, Note_on_c, 0, 72, 83
1, 326656, Note_on_c, 0, 79, 83
1, 326656, Note_on_c, 1, 59, 0
1, 326656, Note_on_c, 1, 57, 73
1, 326912, Note_on_c, 1, 57, 0
1, 326912, Note_on_c, 1, 55, 72
1, 327168, Note_on_c, 1, 55, 0
1, 327168, Note_on_c, 1, 53, 70
1, 327424, Note_on_c, 1, 53, 0
1, 327424, Note_on_c, 1, 52, 69
1, 327680, Note_on_c, 0, 72, 0
1, 327680, Note_on_c, 0, 79, 0
1, 327680, Note_on_c, 0, 72, 80
1, 327680, Note_on_c, 0, 77, 80
1, 327680, Note_on_c, 1, 52, 0
1, 327680, Note_on_c, 1, 50, 69
1, 328192, Note_on_c, 1, 50, 0
1, 328192, Note_on_c, 1, 52, 71
1, 328448, Note_on_c, 1, 52, 0
1, 328448, Note_on_c, 1, 53, 72
1, 328704, Note_on_c, 0, 72, 0
1, 328704, Note_on_c, 0, 77, 0
1, 328704, Note_on_c, 1, 53, 0
1, 328704, Note_on_c, 1, 55, 74
1, 328960, Note_on_c, 1, 55, 0
1, 328960, Note_on_c, 1, 57, 74
1, 329216, Note_on_c, 1, 57, 0
1, 329216, Note_on_c, 1, 59, 76
1, 329472, Note_on_c, 1, 59, 0
1, 329472, Note_on_c, 1, 60, 77
1, 329728, Note_on_c, 1, 60, 0
1, 329728, Note_on_c, 1, 62, 78
1, 329984, Note_on_c, 1, 62, 0
1, 329984, Note_on_c, 1, 60, 78
1, 330240, Note_on_c, 1, 60, 0
1, 330240, Note_on_c, 1, 59, 76
1, 330496, Note_on_c, 1, 59, 0
1, 330496, Note_on_c, 1, 57, 75
1, 330752, Note_on_c, 0, 71, 83
1, 330752, Note_on_c, 0, 77, 83
1, 330752, Note_on_c, 1, 57, 0
1, 330752, Note_on_c, 1, 55, 73
1, 331008, Note_on_c, 1, 55, 0
1, 331008, Note_on_c, 1, 53, 72
1, 331264, Note_on_c, 1, 53, 0
1, 331264, Note_on_c, 1, 52, 70
1, 331520, Note_on_c, 1, 52, 0
1, 331520, Note_on_c, 1, 50, 69
1, 331776, Note_on_c, 0, 71, 0
1, 331776, Note_on_c, 0, 77, 0
1, 331776, Note_on_c, 0, 72, 80
1, 331776, Note_on_c, 0, 76, 80
1, 331776, Note_on_c, 1, 50, 0
1, 331776, Note_on_c, 1, 48, 69
1, 332288, Note_on_c, 1, 48, 0
1, 332288, Note_on_c, 1, 50, 71
1, 332544, Note_on_c, 1, 50, 0
1, 332544, Note_on_c, 1, 52, 72
1, 332800, Note_on_c, 0, 72, 0
1, 332800, Note_on_c, 0, 76, 0
1, 332800, Note_on_c, 1, 52, 0
1, 332800, Note_on_c, 1, 53, 74
1, 333056, Note_on_c, 1, 53, 0
1, 333056, Note_on_c, 1, 55, 74
1, 333312, Note_on_c, 1, 55, 0
1, 333312, Note_on_c, 1, 57, 76
1, 333568, Note_on_c, 1, 57, 0
1, 333568, Note_on_c, 1, 59, 77
1, 333824, Note_on_c, 1, 59, 0
1, 333824, Note_on_c, 1, 60, 78
1, 334080, Note_on_c, 1, 60, 0
1, 334080, Note_on_c, 1, 59, 78
1, 334336, Note_on_c, 1, 59, 0
1, 334336, Note_on_c, 1, 57, 76
1, 334592, Note_on_c, 1, 57, 0
1, 334592, Note_on_c, 1, 55, 75
1, 334848, Note_on_c, 0, 72, 78
1, 334848, Note_on_c, 0, 76, 78
1, 334848, Note_on_c, 1, 55, 0
1, 334848, Note_on_c, 1, 53, 73
1, 335104, Note_on_c, 1, 53, 0
1, 335104, Note_on_c, 1, 52, 72
1, 335360, Note_on_c, 1, 52, 0
1, 335360, Note_on_c, 1, 50, 70
1, 335616, Note_on_c, 1, 50, 0
1, 335616, Note_on_c, 1, 48, 69
1, 335872, Note_on_c, 0, 72, 0
1, 335872, Note_on_c, 0, 76, 0
1, 335872, Note_on_c, 0, 74, 77
1, 335872, Note_on_c, 1, 48, 0
1, 335872, Note_on_c, 1, 53, 71
1, 335872, Note_on_c, 1, 57, 71
1, 336128, Note_on_c, 0, 74, 0
1, 336128, Note_on_c, 0, 62, 77
1, 336384, Note_on_c, 0, 62, 0
1, 336384, Note_on_c, 0, 64, 77
1, 336640, Note_on_c, 0, 64, 0
1, 336640, Note_on_c, 0, 65, 77
1, 336896, Note_on_c, 0, 65, 0
1, 336896, Note_on_c, 0, 67, 78
1, 337152, Note_on_c, 0, 67, 0
1, 337152, Note_on_c, 0, 69, 78
1, 337408, Note_on_c, 0, 69, 0
1, 337408, Note_on_c, 0, 71, 79
1, 337664, Note_on_c, 0, 71, 0
1, 337664, Note_on_c, 0, 73, 79
1, 337920, Note_on_c, 0, 73, 0
1, 337920, Note_on_c, 0, 74, 79
1, 338176, Note_on_c, 0, 74, 0
1, 338176, Note_on_c, 0, 69, 79
1, 338432, Note_on_c, 0, 69, 0
1, 338432, Note_on_c, 0, 71, 79
1, 338688, Note_on_c, 0, 71, 0
1, 338688, Note_on_c, 0, 73, 80
1, 338944, Note_on_c, 0, 73, 0
1, 338944, Note_on_c, 0, 74, 80
1, 339200, Note_on_c, 0, 74, 0
1, 339200, Note_on_c, 0, 76, 80
1, 339456, Note_on_c, 0, 76, 0
1, 339456, Note_on_c, 0, 77, 80
1, 339712, Note_on_c, 0, 77, 0
1, 339712, Note_on_c, 0, 79, 80
1, 339968, Note_on_c, 0, 79, 0
1, 339968, Note_on_c, 0, 81, 81
1, 339968, Note_on_c, 1, 53, 0
1, 339968, Note_on_c, 1, 57, 0
1, 339968, Note_on_c, 1, 53, 75
1, 340224, Note_on_c, 0, 81, 0
1, 340224, Note_on_c, 0, 83, 81
1, 340480, Note_on_c, 0, 83, 0
1, 340480, Note_on_c, 0, 84, 82
1, 340736, Note_on_c, 0, 84, 0
1, 340736, Note_on_c, 0, 83, 82
1, 340992, Note_on_c, 0, 83, 0
1, 340992, Note_on_c, 0, 81, 82
1, 341248, Note_on_c, 0, 81, 0
1, 341248, Note_on_c, 0, 79, 82
1, 341504, Note_on_c, 0, 79, 0
1, 341504, Note_on_c, 0, 77, 82
1, 341504, Note_on_c, 1, 53, 0
1, 341504, Note_on_c, 1, 55, 76
1, 341760, Note_on_c, 0, 77, 0
1, 341760, Note_on_c, 0, 76, 83
1, 342016, Note_on_c, 0, 76, 0
1, 342016, Note_on_c, 0, 77, 83
1, 342016, Note_on_c, 1, 55, 0
1, 342016, Note_on_c, 1, 57, 77
1, 342272, Note_on_c, 0, 77, 0
1, 342272, Note_on_c, 0, 79, 83
1, 342528, Note_on_c, 0, 79, 0
1, 342528, Note_on_c, 0, 81, 84
1, 342784, Note_on_c, 0, 81, 0
1, 342784, Note_on_c, 0, 79, 84
1, 343040, Note_on_c, 0, 79, 0
1, 343040, Note_on_c, 0, 77, 84
1, 343296, Note_on_c, 0, 77, 0
1, 343296, Note_on_c, 0, 76, 84
1, 343552, Note_on_c, 0, 76, 0
1, 343552, Note_on_c, 0, 74, 85
1, 343552, Note_on_c, 1, 57, 0
1, 343552, Note_on_c, 1, 54, 78
1, 343808, Note_on_c, 0, 74, 0
1, 343808, Note_on_c, 0, 72, 85
1, 344064, Note_on_c, 0, 72, 0
1, 344064, Note_on_c, 0, 71, 85
1, 344064, Note_on_c, 1, 54, 0
1, 344064, Note_on_c, 1, 43, 78
1, 344320, Note_on_c, 1, 47, 79
1, 344576, Note_on_c, 0, 71, 0
1, 344576, Note_on_c, 0, 79, 86
1, 344576, Note_on_c, 1, 47, 0
1, 344576, Note_on_c, 1, 50, 79
1, 344832, Note_on_c, 1, 50, 0
1, 344832, Note_on_c, 1, 55, 79
1, 345088, Note_on_c, 0, 79, 0
1, 345088, Note_on_c, 0, 76, 86
1, 345088, Note_on_c, 1, 55, 0
1, 345088, Note_on_c, 1, 43, 0
1, 345088, Note_on_c, 1, 43, 79
1, 345344, Note_on_c, 1, 48, 79
1, 345600, Note_on_c, 0, 76, 0
1, 345600, Note_on_c, 0, 72, 87
1, 345600, Note_on_c, 1, 48, 0
1, 345600, Note_on_c, 1, 52, 80
1, 345856, Note_on_c, 1, 52, 0
1, 345856, Note_on_c, 1, 52, 80
1, 346112, Note_on_c, 0, 72, 0
1, 346112, Note_on_c, 0, 74, 87
1, 346112, Note_on_c, 1, 52, 0
1, 346112, Note_on_c, 1, 43, 0
1, 346112, Note_on_c, 1, 43, 80
1, 346368, Note_on_c, 1, 47, 80
1, 346624, Note_on_c, 0, 74, 0
1, 346624, Note_on_c, 0, 79, 88
1, 346624, Note_on_c, 1, 47, 0
1, 346624, Note_on_c, 1, 50, 81
1, 346880, Note_on_c, 1, 50, 0
1, 346880, Note_on_c, 1, 55, 81
1, 347136, Note_on_c, 0, 79, 0
1, 347136, Note_on_c, 0, 76, 88
1, 347136, Note_on_c, 1, 55, 0
1, 347136, Note_on_c, 1, 43, 0
1, 347136, Note_on_c, 1, 43, 81
1, 347392, Note_on_c, 1, 48, 82
1, 347648, Note_on_c, 0, 76, 0
1, 347648, Note_on_c, 0, 72, 89
1, 347648, Note_on_c, 1, 48, 0
1, 347648, Note_on_c, 1, 52, 82
1, 347904, Note_on_c, 1, 52, 0
1, 347904, Note_on_c, 1, 55, 82
1, 348160, Note_on_c, 0, 72, 0
1, 348160, Note_on_c, 0, 74, 103
1, 348160, Note_on_c, 1, 55, 0
1, 348160, Note_on_c, 1, 43, 0
1, 348160, Note_on_c, 1, 43, 84
1, 349184, Note_on_c, 0, 74, 0
1, 349184, Note_on_c, 0, 71, 88
1, 349184, Note_on_c, 0, 74, 88
1, 349184, Note_on_c, 0, 79, 88
1, 349184, Note_on_c, 1, 43, 0
1, 349184, Note_on_c, 1, 55, 69
1, 349286, Note_on_c, 0, 71, 0
1, 349389, Note_on_c, 0, 74, 0
1, 349491, Note_on_c, 0, 79, 0
1, 349491, Note_on_c, 1, 55, 0
1, 350208, Note_on_c, 0, 67, 84
1, 350208, Note_on_c, 1, 43, 68
1, 350515, Note_on_c, 0, 67, 0
1, 350515, Note_on_c, 1, 43, 0
1, 352256, Note_on_c, 1, 66, 64
1, 352512, Note_on_c, 1, 66, 0
1, 352512, Note_on_c, 1, 67, 48
1, 352768, Note_on_c, 1, 67, 0
1, 352768, Note_on_c, 1, 66, 47
1, 353024, Note_on_c, 1, 66, 0
1, 353024, Note_on_c, 1, 67, 44
1, 353280, Note_on_c, 1, 67, 0
1, 353280, Note_on_c, 1, 66, 44
1, 353536, Note_on_c, 1, 66, 0
1, 353536, Note_on_c, 1, 67, 42
1, 353792, Note_on_c, 1, 67, 0
1, 353792, Note_on_c, 1, 66, 40
1, 354048, Note_on_c, 1, 66, 0
1, 354048, Note_on_c, 1, 67, 38
1, 354304, Note_on_c, 1, 67, 0
1, 354304, Note_on_c, 1, 65, 37
1, 354560, Note_on_c, 1, 65, 0
1, 354560, Note_on_c, 1, 67, 37
1, 354816, Note_on_c, 1, 67, 0
1, 354816, Note_on_c, 1, 65, 39
1, 355072, Note_on_c, 1, 65, 0
1, 355072, Note_on_c, 1, 67, 40
1, 355328, Note_on_c, 1, 67, 0
1, 355328, Note_on_c, 1, 65, 43
1, 355584, Note_on_c, 1, 65, 0
1, 355584, Note_on_c, 1, 67, 44
1, 355840, Note_on_c, 1, 67, 0
1, 355840, Note_on_c, 1, 65, 46
1, 356096, Note_on_c, 1, 65, 0
1, 356096, Note_on_c, 1, 67, 48
1, 356352, Note_on_c, 0, 79, 72
1, 356352, Note_on_c, 1, 67, 0
1, 356352, Note_on_c, 1, 64, 51
1, 356608, Note_on_c, 1, 67, 48
1, 356864, Note_on_c, 0, 79, 0
1, 356864, Note_on_c, 0, 76, 62
1, 356864, Note_on_c, 1, 64, 0
1, 356864, Note_on_c, 1, 67, 0
1, 356864, Note_on_c, 1, 64, 46
1, 357120, Note_on_c, 1, 64, 0
1, 357120, Note_on_c, 1, 67, 44
1, 357376, Note_on_c, 0, 76, 0
1, 357376, Note_on_c, 0, 72, 56
1, 357376, Note_on_c, 1, 67, 0
1, 357376, Note_on_c, 1, 64, 43
1, 357632, Note_on_c, 1, 64, 0
1, 357632, Note_on_c, 1, 67, 40
1, 357888, Note_on_c, 1, 67, 0
1, 357888, Note_on_c, 1, 64, 39
1, 358144, Note_on_c, 1, 64, 0
1, 358144, Note_on_c, 1, 67, 37
1, 358400, Note_on_c, 1, 67, 0
1, 358400, Note_on_c, 1, 64, 41
1, 358656, Note_on_c, 1, 64, 0
1, 358656, Note_on_c, 1, 67, 37
1, 358912, Note_on_c, 0, 72, 0
1, 358912, Note_on_c, 0, 74, 57
1, 358912, Note_on_c, 1, 67, 0
1, 358912, Note_on_c, 1, 64, 39
1, 359168, Note_on_c, 0, 74, 0
1, 359168, Note_on_c, 0, 76, 58
1, 359168, Note_on_c, 1, 64, 0
1, 359168, Note_on_c, 1, 67, 40
1, 359424, Note_on_c, 0, 76, 0
1, 359424, Note_on_c, 0, 74, 58
1, 359424, Note_on_c, 1, 67, 0
1, 359424, Note_on_c, 1, 64, 43
1, 359680, Note_on_c, 1, 64, 0
1, 359680, Note_on_c, 1, 67, 44
1, 359936, Note_on_c, 0, 74, 0
1, 359936, Note_on_c, 0, 72, 61
1, 359936, Note_on_c, 1, 67, 0
1, 359936, Note_on_c, 1, 64, 46
1, 360192, Note_on_c, 1, 64, 0
1, 360192, Note_on_c, 1, 67, 48
1, 360448, Note_on_c, 0, 72, 0
1, 360448, Note_on_c, 0, 72, 70
1, 360448, Note_on_c, 1, 67, 0
1, 360448, Note_on_c, 1, 65, 45
1, 360602, Note_on_c, 0, 72, 0
1, 360602, Note_on_c, 0, 74, 60
1, 360704, Note_on_c, 1, 67, 48
1, 360755, Note_on_c, 0, 74, 0
1, 360755, Note_on_c, 0, 72, 59
1, 360909, Note_on_c, 0, 72, 0
1, 360909, Note_on_c, 0, 74, 58
1, 360960, Note_on_c, 1, 67, 0
1, 360960, Note_on_c, 1, 64, 47
1, 360960, Note_on_c, 1, 65, 0
1, 361062, Note_on_c, 0, 74, 0
1, 361062, Note_on_c, 0, 72, 57
1, 361216, Note_on_c, 0, 72, 0
1, 361216, Note_on_c, 0, 71, 60
1, 361216, Note_on_c, 1, 64, 0
1, 361216, Note_on_c, 1, 67, 44
1, 361472, Note_on_c, 0, 71, 0
1, 361472, Note_on_c, 0, 71, 61
1, 361472, Note_on_c, 1, 67, 0
1, 361472, Note_on_c, 1, 62, 43
1, 361728, Note_on_c, 1, 67, 42
1, 361984, Note_on_c, 1, 67, 0
1, 361984, Note_on_c, 1, 64, 40
1, 361984, Note_on_c, 1, 62, 0
1, 362240, Note_on_c, 1, 64, 0
1, 362240, Note_on_c, 1, 67, 38
1, 362496, Note_on_c, 0, 71, 0
1, 362496, Note_on_c, 1, 67, 0
1, 362496, Note_on_c, 1, 65, 37
1, 362752, Note_on_c, 1, 65, 0
1, 362752, Note_on_c, 1, 67, 37
1, 363008, Note_on_c, 1, 67, 0
1, 363008, Note_on_c, 1, 64, 39
1, 363264, Note_on_c, 1, 64, 0
1, 363264, Note_on_c, 1, 67, 39
1, 363520, Note_on_c, 1, 67, 0
1, 363520, Note_on_c, 1, 65, 42
1, 363776, Note_on_c, 1, 65, 0
1, 363776, Note_on_c, 1, 67, 43
1, 364032, Note_on_c, 1, 67, 0
1, 364032, Note_on_c, 1, 62, 44
1, 364288, Note_on_c, 1, 62, 0
1, 364288, Note_on_c, 1, 67, 45
1, 364544, Note_on_c, 0, 79, 72
1, 364544, Note_on_c, 1, 67, 0
1, 364544, Note_on_c, 1, 64, 51
1, 364800, Note_on_c, 1, 67, 48
1, 365056, Note_on_c, 0, 79, 0
1, 365056, Note_on_c, 0, 76, 62
1, 365056, Note_on_c, 1, 64, 0
1, 365056, Note_on_c, 1, 67, 0
1, 365056, Note_on_c, 1, 64, 46
1, 365312, Note_on_c, 1, 64, 0
1, 365312, Note_on_c, 1, 67, 44
1, 365568, Note_on_c, 0, 76, 0
1, 365568, Note_on_c, 0, 72, 56
1, 365568, Note_on_c, 1, 67, 0
1, 365568, Note_on_c, 1, 64, 43
1, 365824, Note_on_c, 1, 64, 0
1, 365824, Note_on_c, 1, 67, 40
1, 366080, Note_on_c, 1, 67, 0
1, 366080, Note_on_c, 1, 64, 39
1, 366336, Note_on_c, 1, 64, 0
1, 366336, Note_on_c, 1, 67, 37
1, 366592, Note_on_c, 1, 67, 0
1, 366592, Note_on_c, 1, 64, 41
1, 366848, Note_on_c, 1, 64, 0
1, 366848, Note_on_c, 1, 67, 37
1, 367104, Note_on_c, 0, 72, 0
1, 367104, Note_on_c, 0, 74, 57
1, 367104, Note_on_c, 1, 67, 0
1, 367104, Note_on_c, 1, 64, 39
1, 367360, Note_on_c, 0, 74, 0
1, 367360, Note_on_c, 0, 76, 58
1, 367360, Note_on_c, 1, 64, 0
1, 367360, Note_on_c, 1, 67, 40
1, 367616, Note_on_c, 0, 76, 0
1, 367616, Note_on_c, 0, 74, 58
1, 367616, Note_on_c, 1, 67, 0
1, 367616, Note_on_c, 1, 64, 43
1, 367872, Note_on_c, 1, 64, 0
1, 367872, Note_on_c, 1, 67, 44
1, 368128, Note_on_c, 0, 74, 0
1, 368128, Note_on_c, 0, 72, 61
1, 368128, Note_on_c, 1, 67, 0
1, 368128, Note_on_c, 1, 64, 46
1, 368384, Note_on_c, 1, 64, 0
1, 368384, Note_on_c, 1, 67, 48
1, 368640, Note_on_c, 0, 72, 0
1, 368640, Note_on_c, 0, 72, 70
1, 368640, Note_on_c, 1, 67, 0
1, 368640, Note_on_c, 1, 65, 45
1, 368794, Note_on_c, 0, 72, 0
1, 368794, Note_on_c, 0, 74, 60
1, 368896, Note_on_c, 1, 67, 48
1, 368947, Note_on_c, 0, 74, 0
1, 368947, Note_on_c, 0, 72, 59
1, 369101, Note_on_c, 0, 72, 0
1, 369101, Note_on_c, 0, 74, 58
1, 369152, Note_on_c, 1, 67, 0
1, 369152, Note_on_c, 1, 64, 47
1, 369152, Note_on_c, 1, 65, 0
1, 369254, Note_on_c, 0, 74, 0
1, 369254, Note_on_c, 0, 72, 57
1, 369408, Note_on_c, 0, 72, 0
1, 369408, Note_on_c, 0, 71, 60
1, 369408, Note_on_c, 1, 64, 0
1, 369408, Note_on_c, 1, 67, 44
1, 369664, Note_on_c, 0, 71, 0
1, 369664, Note_on_c, 0, 71, 61
1, 369664, Note_on_c, 1, 67, 0
1, 369664, Note_on_c, 1, 62, 47
1, 369920, Note_on_c, 1, 67, 42
1, 370176, Note_on_c, 1, 67, 0
1, 370176, Note_on_c, 1, 64, 40
1, 370176, Note_on_c, 1, 62, 0
1, 370432, Note_on_c, 1, 64, 0
1, 370432, Note_on_c, 1, 67, 38
1, 370688, Note_on_c, 0, 71, 0
1, 370688, Note_on_c, 1, 67, 0
1, 370688, Note_on_c, 1, 65, 40
1, 370944, Note_on_c, 1, 65, 0
1, 370944, Note_on_c, 1, 67, 41
1, 371200, Note_on_c, 1, 67, 0
1, 371200, Note_on_c, 1, 64, 43
1, 371456, Note_on_c, 1, 64, 0
1, 371456, Note_on_c, 1, 67, 44
1, 371712, Note_on_c, 1, 67, 0
1, 371712, Note_on_c, 1, 65, 45
1, 371968, Note_on_c, 1, 65, 0
1, 371968, Note_on_c, 1, 67, 46
1, 372224, Note_on_c, 1, 67, 0
1, 372224, Note_on_c, 1, 62, 48
1, 372480, Note_on_c, 1, 62, 0
1, 372480, Note_on_c, 1, 67, 43
1, 372736, Note_on_c, 0, 79, 87
1, 372736, Note_on_c, 1, 67, 0
1, 372992, Note_on_c, 1, 52, 78
1, 373248, Note_on_c, 1, 52, 0
1, 373248, Note_on_c, 1, 55, 77
1, 373504, Note_on_c, 1, 55, 0
1, 373504, Note_on_c, 1, 60, 75
1, 373760, Note_on_c, 0, 79, 0
1, 373760, Note_on_c, 1, 60, 0
1, 373760, Note_on_c, 1, 64, 73
1, 374016, Note_on_c, 0, 79, 77
1, 374272, Note_on_c, 0, 79, 0
1, 374272, Note_on_c, 0, 76, 75
1, 374528, Note_on_c, 0, 76, 0
1, 374528, Note_on_c, 0, 72, 74
1, 374784, Note_on_c, 0, 72, 0
1, 374784, Note_on_c, 0, 69, 72
1, 374784, Note_on_c, 1, 64, 0
1, 375040, Note_on_c, 1, 53, 66
1, 375296, Note_on_c, 1, 53, 0
1, 375296, Note_on_c, 1, 53, 65
1, 375296, Note_on_c, 1, 57, 65
1, 375552, Note_on_c, 1, 53, 0
1, 375552, Note_on_c, 1, 57, 0
1, 375552, Note_on_c, 1, 60, 63
1, 375808, Note_on_c, 0, 69, 0
1, 375808, Note_on_c, 1, 60, 0
1, 375808, Note_on_c, 1, 65, 62
1, 376064, Note_on_c, 0, 69, 67
1, 376320, Note_on_c, 0, 69, 0
1, 376320, Note_on_c, 0, 72, 70
1, 376576, Note_on_c, 0, 72, 0
1, 376576, Note_on_c, 0, 69, 73
1, 376832, Note_on_c, 0, 69, 0
1, 376832, Note_on_c, 0, 77, 87
1, 376832, Note_on_c, 1, 65, 0
1, 377088, Note_on_c, 1, 50, 79
1, 377344, Note_on_c, 1, 50, 0
1, 377344, Note_on_c, 1, 53, 78
1, 377600, Note_on_c, 1, 53, 0
1, 377600, Note_on_c, 1, 59, 76
1, 377856, Note_on_c, 0, 77, 0
1, 377856, Note_on_c, 1, 59, 0
1, 377856, Note_on_c, 1, 62, 74
1, 378112, Note_on_c, 0, 77, 78
1, 378368, Note_on_c, 0, 77, 0
1, 378368, Note_on_c, 0, 74, 76
1, 378624, Note_on_c, 0, 74, 0
1, 378624, Note_on_c, 0, 71, 75
1, 378880, Note_on_c, 0, 71, 0
1, 378880, Note_on_c, 0, 67, 73
1, 378880, Note_on_c, 1, 62, 0
1, 379136, Note_on_c, 1, 52, 67
1, 379392, Note_on_c, 1, 52, 0
1, 379392, Note_on_c, 1, 55, 66
1, 379648, Note_on_c, 1, 55, 0
1, 379648, Note_on_c, 1, 59, 64
1, 379904, Note_on_c, 0, 67, 0
1, 379904, Note_on_c, 1, 59, 0
1, 379904, Note_on_c, 1, 64, 63
1, 380160, Note_on_c, 0, 79, 67
1, 380416, Note_on_c, 0, 79, 0
1, 380416, Note_on_c, 0, 83, 70
1, 380672, Note_on_c, 0, 83, 0
1, 380672, Note_on_c, 0, 79, 73
1, 380928, Note_on_c, 0, 79, 0
1, 380928, Note_on_c, 0, 88, 96
1, 380928, Note_on_c, 1, 64, 0
1, 381184, Note_on_c, 1, 60, 78
1, 381440, Note_on_c, 1, 60, 0
1, 381440, Note_on_c, 1, 64, 77
1, 381696, Note_on_c, 1, 64, 0
1, 381696, Note_on_c, 1, 67, 75
1, 381952, Note_on_c, 0, 88, 0
1, 381952, Note_on_c, 1, 67, 0
1, 381952, Note_on_c, 1, 72, 73
1, 382208, Note_on_c, 0, 88, 77
1, 382464, Note_on_c, 0, 88, 0
1, 382464, Note_on_c, 0, 84, 75
1, 382720, Note_on_c, 0, 84, 0
1, 382720, Note_on_c, 0, 81, 72
1, 382976, Note_on_c, 0, 81, 0
1, 382976, Note_on_c, 0, 77, 70
1, 382976, Note_on_c, 1, 72, 0
1, 383232, Note_on_c, 1, 62, 67
1, 383488, Note_on_c, 1, 62, 0
1, 383488, Note_on_c, 1, 65, 65
1, 383744, Note_on_c, 1, 65, 0
1, 383744, Note_on_c, 1, 69, 63
1, 384000, Note_on_c, 0, 77, 0
1, 384000, Note_on_c, 1, 69, 0
1, 384000, Note_on_c, 1, 74, 61
1, 384256, Note_on_c, 0, 77, 66
1, 384512, Note_on_c, 0, 77, 0
1, 384512, Note_on_c, 0, 81, 70
1, 384768, Note_on_c, 0, 81, 0
1, 384768, Note_on_c, 0, 77, 73
1, 385024, Note_on_c, 0, 77, 0
1, 385024, Note_on_c, 0, 86, 92
1, 385024, Note_on_c, 1, 74, 0
1, 385280, Note_on_c, 1, 59, 78
1, 385536, Note_on_c, 1, 59, 0
1, 385536, Note_on_c, 1, 62, 77
1, 385792, Note_on_c, 1, 62, 0
1, 385792, Note_on_c, 1, 67, 75
1, 386048, Note_on_c, 0, 86, 0
1, 386048, Note_on_c, 1, 67, 0
1, 386048, Note_on_c, 1, 71, 73
1, 386304, Note_on_c, 0, 86, 77
1, 386560, Note_on_c, 0, 86, 0
1, 386560, Note_on_c, 0, 83, 75
1, 386816, Note_on_c, 0, 83, 0
1, 386816, Note_on_c, 0, 79, 74
1, 387072, Note_on_c, 0, 79, 0
1, 387072, Note_on_c, 0, 76, 72
1, 387072, Note_on_c, 1, 71, 0
1, 387328, Note_on_c, 1, 60, 66
1, 387584, Note_on_c, 1, 60, 0
1, 387584, Note_on_c, 1, 64, 64
1, 387840, Note_on_c, 1, 64, 0
1, 387840, Note_on_c, 1, 67, 62
1, 388096, Note_on_c, 0, 76, 0
1, 388096, Note_on_c, 1, 67, 0
1, 388096, Note_on_c, 1, 72, 60
1, 388352, Note_on_c, 0, 84, 76
1, 388608, Note_on_c, 0, 84, 0
1, 388608, Note_on_c, 0, 79, 77
1, 388864, Note_on_c, 0, 79, 0
1, 388864, Note_on_c, 0, 76, 78
1, 389120, Note_on_c, 0, 76, 0
1, 389120, Note_on_c, 0, 74, 79
1, 389120, Note_on_c, 1, 72, 0
1, 389632, Note_on_c, 1, 65, 58
1, 389632, Note_on_c, 1, 69, 58
1, 390144, Note_on_c, 1, 65, 0
1, 390144, Note_on_c, 1, 69, 0
1, 390144, Note_on_c, 1, 65, 58
1, 390144, Note_on_c, 1, 69, 58
1, 390656, Note_on_c, 1, 65, 0
1, 390656, Note_on_c, 1, 69, 0
1, 390656, Note_on_c, 1, 65, 60
1, 390656, Note_on_c, 1, 69, 60
1, 391088, Note_on_c, 0, 73, 80
1, 391168, Note_on_c, 0, 74, 0
1, 391168, Note_on_c, 0, 73, 0
1, 391168, Note_on_c, 0, 74, 80
1, 391168, Note_on_c, 1, 65, 0
1, 391168, Note_on_c, 1, 69, 0
1, 391168, Note_on_c, 1, 65, 61
1, 391168, Note_on_c, 1, 69, 61
1, 391680, Note_on_c, 1, 65, 0
1, 391680, Note_on_c, 1, 69, 0
1, 391680, Note_on_c, 1, 65, 60
1, 391680, Note_on_c, 1, 69, 60
1, 392112, Note_on_c, 0, 73, 82
1, 392192, Note_on_c, 0, 74, 0
1, 392192, Note_on_c, 0, 73, 0
1, 392192, Note_on_c, 0, 74, 82
1, 392192, Note_on_c, 1, 65, 0
1, 392192, Note_on_c, 1, 69, 0
1, 392192, Note_on_c, 1, 65, 62
1, 392192, Note_on_c, 1, 69, 62
1, 392704, Note_on_c, 1, 65, 0
1, 392704, Note_on_c, 1, 69, 0
1, 392704, Note_on_c, 1, 65, 63
1, 392704, Note_on_c, 1, 69, 63
1, 393216, Note_on_c, 0, 74, 0
1, 393216, Note_on_c, 0, 81, 84
1, 393216, Note_on_c, 1, 65, 0
1, 393216, Note_on_c, 1, 69, 0
1, 393728, Note_on_c, 1, 54, 65
1, 393728, Note_on_c, 1, 60, 65
1, 393728, Note_on_c, 1, 63, 65
1, 394240, Note_on_c, 1, 54, 0
1, 394240, Note_on_c, 1, 60, 0
1, 394240, Note_on_c, 1, 63, 0
1, 394240, Note_on_c, 1, 54, 66
1, 394240, Note_on_c, 1, 60, 66
1, 394240, Note_on_c, 1, 63, 66
1, 394752, Note_on_c, 1, 54, 0
1, 394752, Note_on_c, 1, 60, 0
1, 394752, Note_on_c, 1, 63, 0
1, 394752, Note_on_c, 1, 54, 68
1, 394752, Note_on_c, 1, 60, 68
1, 394752, Note_on_c, 1, 63, 68
1, 395184, Note_on_c, 0, 80, 83
1, 395264, Note_on_c, 0, 81, 0
1, 395264, Note_on_c, 0, 80, 0
1, 395264, Note_on_c, 0, 81, 86
1, 395264, Note_on_c, 1, 54, 0
1, 395264, Note_on_c, 1, 60, 0
1, 395264, Note_on_c, 1, 63, 0
1, 395264, Note_on_c, 1, 54, 69
1, 395264, Note_on_c, 1, 60, 69
1, 395264, Note_on_c, 1, 63, 69
1, 395776, Note_on_c, 1, 54, 0
1, 395776, Note_on_c, 1, 60, 0
1, 395776, Note_on_c, 1, 63, 0
1, 395776, Note_on_c, 1, 54, 70
1, 395776, Note_on_c, 1, 60, 70
1, 395776, Note_on_c, 1, 63, 70
1, 396208, Note_on_c, 0, 80, 83
1, 396288, Note_on_c, 0, 81, 0
1, 396288, Note_on_c, 0, 80, 0
1, 396288, Note_on_c, 0, 81, 88
1, 396288, Note_on_c, 1, 54, 0
1, 396288, Note_on_c, 1, 60, 0
1, 396288, Note_on_c, 1, 63, 0
1, 396288, Note_on_c, 1, 54, 71
1, 396288, Note_on_c, 1, 60, 71
1, 396288, Note_on_c, 1, 63, 71
1, 396800, Note_on_c, 1, 54, 0
1, 396800, Note_on_c, 1, 60, 0
1, 396800, Note_on_c, 1, 63, 0
1, 396800, Note_on_c, 1, 54, 73
1, 396800, Note_on_c, 1, 60, 73
1, 396800, Note_on_c, 1, 63, 73
1, 397312, Note_on_c, 0, 81, 0
1, 397312, Note_on_c, 0, 79, 89
1, 397312, Note_on_c, 1, 54, 0
1, 397312, Note_on_c, 1, 60, 0
1, 397312, Note_on_c, 1, 63, 0
1, 397312, Note_on_c, 1, 55, 77
1, 397568, Note_on_c, 1, 64, 77
1, 397824, Note_on_c, 0, 79, 0
1, 397824, Note_on_c, 0, 81, 92
1, 397824, Note_on_c, 1, 64, 0
1, 397824, Note_on_c, 1, 60, 78
1, 398080, Note_on_c, 0, 81, 0
1, 398080, Note_on_c, 0, 83, 93
1, 398080, Note_on_c, 1, 60, 0
1, 398080, Note_on_c, 1, 64, 79
1, 398336, Note_on_c, 0, 83, 0
1, 398336, Note_on_c, 0, 84, 96
1, 398336, Note_on_c, 1, 55, 0
1, 398336, Note_on_c, 1, 55, 79
1, 398336, Note_on_c, 1, 64, 0
1, 398592, Note_on_c, 0, 84, 0
1, 398592, Note_on_c, 0, 86, 97
1, 398592, Note_on_c, 1, 64, 82
1, 398848, Note_on_c, 0, 86, 0
1, 398848, Note_on_c, 0, 88, 97
1, 398848, Note_on_c, 1, 64, 0
1, 398848, Note_on_c, 1, 60, 84
1, 399104, Note_on_c, 0, 88, 0
1, 399104, Note_on_c, 0, 86, 98
1, 399104, Note_on_c, 1, 60, 0
1, 399104, Note_on_c, 1, 64, 86
1, 399360, Note_on_c, 0, 86, 0
1, 399360, Note_on_c, 0, 84, 99
1, 399360, Note_on_c, 1, 55, 0
1, 399360, Note_on_c, 1, 55, 79
1, 399360, Note_on_c, 1, 64, 0
1, 399616, Note_on_c, 0, 84, 0
1, 399616, Note_on_c, 0, 83, 98
1, 399616, Note_on_c, 1, 64, 86
1, 399872, Note_on_c, 0, 83, 0
1, 399872, Note_on_c, 0, 81, 98
1, 399872, Note_on_c, 1, 64, 0
1, 399872, Note_on_c, 1, 60, 84
1, 400128, Note_on_c, 0, 81, 0
1, 400128, Note_on_c, 0, 79, 97
1, 400128, Note_on_c, 1, 60, 0
1, 400128, Note_on_c, 1, 64, 82
1, 400384, Note_on_c, 0, 79, 0
1, 400384, Note_on_c, 0, 77, 95
1, 400384, Note_on_c, 1, 55, 0
1, 400384, Note_on_c, 1, 55, 77
1, 400384, Note_on_c, 1, 64, 0
1, 400640, Note_on_c, 0, 77, 0
1, 400640, Note_on_c, 0, 76, 94
1, 400640, Note_on_c, 1, 64, 79
1, 400896, Note_on_c, 0, 76, 0
1, 400896, Note_on_c, 0, 74, 94
1, 400896, Note_on_c, 1, 64, 0
1, 400896, Note_on_c, 1, 60, 78
1, 401152, Note_on_c, 0, 74, 0
1, 401152, Note_on_c, 0, 72, 92
1, 401152, Note_on_c, 1, 60, 0
1, 401152, Note_on_c, 1, 64, 77
1, 401408, Note_on_c, 0, 72, 0
1, 401408, Note_on_c, 0, 74, 90
1, 401408, Note_on_c, 1, 55, 0
1, 401408, Note_on_c, 1, 64, 0
1, 401408, Note_on_c, 1, 55, 77
1, 401664, Note_on_c, 0, 74, 0
1, 401664, Note_on_c, 0, 76, 89
1, 401664, Note_on_c, 1, 65, 77
1, 401792, Note_on_c, 0, 76, 0
1, 401792, Note_on_c, 0, 74, 88
1, 401920, Note_on_c, 0, 74, 0
1, 401920, Note_on_c, 0, 76, 86
1, 401920, Note_on_c, 1, 65, 0
1, 401920, Note_on_c, 1, 59, 75
1, 402048, Note_on_c, 0, 76, 0
1, 402048, Note_on_c, 0, 74, 86
1, 402176, Note_on_c, 0, 74, 0
1, 402176, Note_on_c, 0, 76, 85
1, 402176, Note_on_c, 1, 59, 0
1, 402176, Note_on_c, 1, 65, 74
1, 402304, Note_on_c, 0, 76, 0
1, 402304, Note_on_c, 0, 74, 85
1, 402432, Note_on_c, 0, 74, 0
1, 402432, Note_on_c, 0, 76, 84
1, 402432, Note_on_c, 1, 55, 0
1, 402432, Note_on_c, 1, 55, 72
1, 402432, Note_on_c, 1, 65, 0
1, 402560, Note_on_c, 0, 76, 0
1, 402560, Note_on_c, 0, 74, 84
1, 402688, Note_on_c, 0, 74, 0
1, 402688, Note_on_c, 0, 76, 81
1, 402688, Note_on_c, 1, 65, 72
1, 402816, Note_on_c, 0, 76, 0
1, 402816, Note_on_c, 0, 74, 81
1, 402944, Note_on_c, 0, 74, 0
1, 402944, Note_on_c, 0, 76, 78
1, 402944, Note_on_c, 1, 65, 0
1, 402944, Note_on_c, 1, 59, 72
1, 403072, Note_on_c, 0, 76, 0
1, 403072, Note_on_c, 0, 74, 77
1, 403200, Note_on_c, 0, 74, 0
1, 403200, Note_on_c, 0, 76, 77
1, 403200, Note_on_c, 1, 59, 0
1, 403200, Note_on_c, 1, 65, 70
1, 403328, Note_on_c, 0, 76, 0
1, 403328, Note_on_c, 0, 74, 77
1, 403456, Note_on_c, 0, 74, 0
1, 403456, Note_on_c, 0, 76, 76
1, 403456, Note_on_c, 1, 55, 0
1, 403456, Note_on_c, 1, 55, 68
1, 403456, Note_on_c, 1, 65, 0
1, 403584, Note_on_c, 0, 76, 0
1, 403584, Note_on_c, 0, 74, 75
1, 403712, Note_on_c, 0, 74, 0
1, 403712, Note_on_c, 0, 76, 73
1, 403712, Note_on_c, 1, 65, 69
1, 403840, Note_on_c, 0, 76, 0
1, 403840, Note_on_c, 0, 74, 73
1, 403968, Note_on_c, 0, 74, 0
1, 403968, Note_on_c, 0, 76, 73
1, 403968, Note_on_c, 1, 65, 0
1, 403968, Note_on_c, 1, 59, 68
1, 404096, Note_on_c, 0, 76, 0
1, 404096, Note_on_c, 0, 74, 73
1, 404224, Note_on_c, 0, 74, 0
1, 404224, Note_on_c, 0, 76, 72
1, 404224, Note_on_c, 1, 59, 0
1, 404224, Note_on_c, 1, 65, 67
1, 404352, Note_on_c, 0, 76, 0
1, 404352, Note_on_c, 0, 74, 72
1, 404480, Note_on_c, 0, 74, 0
1, 404480, Note_on_c, 0, 76, 70
1, 404480, Note_on_c, 1, 55, 0
1, 404480, Note_on_c, 1, 55, 63
1, 404480, Note_on_c, 1, 65, 0
1, 404608, Note_on_c, 0, 76, 0
1, 404608, Note_on_c, 0, 74, 70
1, 404736, Note_on_c, 0, 74, 0
1, 404736, Note_on_c, 0, 76, 70
1, 404736, Note_on_c, 1, 65, 65
1, 404864, Note_on_c, 0, 76, 0
1, 404864, Note_on_c, 0, 74, 70
1, 404992, Note_on_c, 0, 74, 0
1, 404992, Note_on_c, 0, 76, 68
1, 404992, Note_on_c, 1, 65, 0
1, 404992, Note_on_c, 1, 59, 64
1, 405120, Note_on_c, 0, 76, 0
1, 405120, Note_on_c, 0, 74, 67
1, 405248, Note_on_c, 0, 74, 0
1, 405248, Note_on_c, 0, 72, 66
1, 405248, Note_on_c, 1, 59, 0
1, 405248, Note_on_c, 1, 65, 62
1, 405376, Note_on_c, 0, 72, 0
1, 405376, Note_on_c, 0, 74, 65
1, 405504, Note_on_c, 0, 74, 0
1, 405504, Note_on_c, 0, 72, 65
1, 405504, Note_on_c, 1, 55, 0
1, 405504, Note_on_c, 1, 65, 0
1, 405504, Note_on_c, 1, 60, 60
1, 405504, Note_on_c, 1, 64, 60
1, 406528, Note_on_c, 0, 72, 0
1, 406528, Note_on_c, 0, 72, 63
1, 406528, Note_on_c, 1, 60, 0
1, 406528, Note_on_c, 1, 64, 0
1, 406784, Note_on_c, 0, 72, 0
1, 406784, Note_on_c, 0, 67, 64
1, 407040, Note_on_c, 0, 67, 0
1, 407040, Note_on_c, 0, 72, 65
1, 407296, Note_on_c, 0, 72, 0
1, 407296, Note_on_c, 0, 76, 68
1, 407552, Note_on_c, 0, 76, 0
1, 407552, Note_on_c, 0, 79, 70
1, 407808, Note_on_c, 0, 79, 0
1, 407808, Note_on_c, 0, 76, 73
1, 408064, Note_on_c, 0, 76, 0
1, 408064, Note_on_c, 0, 72, 75
1, 408320, Note_on_c, 0, 72, 0
1, 408320, Note_on_c, 0, 76, 77
1, 408576, Note_on_c, 0, 76, 0
1, 408576, Note_on_c, 0, 77, 79
1, 408576, Note_on_c, 1, 55, 73
1, 408576, Note_on_c, 1, 62, 73
1, 408576, Note_on_c, 1, 65, 73
1, 408832, Note_on_c, 0, 77, 0
1, 408832, Note_on_c, 0, 74, 82
1, 409088, Note_on_c, 0, 74, 0
1, 409088, Note_on_c, 0, 71, 78
1, 409344, Note_on_c, 0, 71, 0
1, 409344, Note_on_c, 0, 74, 75
1, 409600, Note_on_c, 0, 74, 0
1, 409600, Note_on_c, 0, 72, 75
1, 409600, Note_on_c, 1, 55, 0
1, 409600, Note_on_c, 1, 62, 0
1, 409600, Note_on_c, 1, 65, 0
1, 409600, Note_on_c, 1, 60, 63
1, 409600, Note_on_c, 1, 64, 63
1, 410624, Note_on_c, 0, 72, 0
1, 410624, Note_on_c, 0, 60, 60
1, 410624, Note_on_c, 1, 60, 0
1, 410624, Note_on_c, 1, 64, 0
1, 410880, Note_on_c, 0, 60, 0
1, 410880, Note_on_c, 0, 55, 62
1, 411136, Note_on_c, 0, 55, 0
1, 411136, Note_on_c, 0, 60, 66
1, 411392, Note_on_c, 0, 60, 0
1, 411392, Note_on_c, 0, 64, 67
1, 411648, Note_on_c, 0, 64, 0
1, 411648, Note_on_c, 0, 67, 70
1, 411904, Note_on_c, 0, 67, 0
1, 411904, Note_on_c, 0, 64, 73
1, 412160, Note_on_c, 0, 64, 0
1, 412160, Note_on_c, 0, 60, 75
1, 412416, Note_on_c, 0, 60, 0
1, 412416, Note_on_c, 0, 64, 76
1, 412672, Note_on_c, 0, 64, 0
1, 412672, Note_on_c, 0, 65, 79
1, 412672, Note_on_c, 1, 43, 69
1, 412672, Note_on_c, 1, 50, 69
1, 412672, Note_on_c, 1, 53, 69
1, 412928, Note_on_c, 0, 65, 0
1, 412928, Note_on_c, 0, 62, 79
1, 413184, Note_on_c, 0, 62, 0
1, 413184, Note_on_c, 0, 59, 76
1, 413440, Note_on_c, 0, 59, 0
1, 413440, Note_on_c, 0, 62, 74
1, 413696, Note_on_c, 0, 62, 0
1, 413696, Note_on_c, 0, 60, 71
1, 413696, Note_on_c, 1, 43, 0
1, 413696, Note_on_c, 1, 50, 0
1, 413696, Note_on_c, 1, 53, 0
1, 413696, Note_on_c, 1, 48, 58
1, 413696, Note_on_c, 1, 52, 58
1, 414720, Note_on_c, 0, 60, 0
1, 414720, Note_on_c, 0, 76, 94
1, 414720, Note_on_c, 0, 79, 94
1, 414720, Note_on_c, 0, 84, 94
1, 414720, Note_on_c, 1, 48, 0
1, 414720, Note_on_c, 1, 52, 0
1, 414720, Note_on_c, 1, 60, 72
1, 414822, Note_on_c, 0, 76, 0
1, 414925, Note_on_c, 0, 79, 0
1, 415027, Note_on_c, 0, 84, 0
1, 415027, Note_on_c, 1, 60, 0
1, 415744, Note_on_c, 0, 72, 86
1, 415744, Note_on_c, 1, 36, 68
1, 415744, Note_on_c, 1, 48, 68
1, 415898, Note_on_c, 1, 36, 0
1, 416051, Note_on_c, 0, 72, 0
1, 416051, Note_on_c, 1, 48, 0
1, 417792, Note_on_c, 0, 67, 83
1, 417792, Note_on_c, 1, 43, 83
1, 417792, Note_on_c, 1, 55, 83
1, 418816, Note_on_c, 0, 67, 0
1, 418816, Note_on_c, 0, 79, 57
1, 418816, Note_on_c, 1, 43, 0
1, 418816, Note_on_c, 1, 55, 0
1, 419072, Note_on_c, 0, 79, 0
1, 419072, Note_on_c, 0, 76, 58
1, 419328, Note_on_c, 0, 76, 0
1, 419328, Note_on_c, 0, 79, 60
1, 419584, Note_on_c, 0, 79, 0
1, 419584, Note_on_c, 0, 82, 61
1, 419840, Note_on_c, 0, 82, 0
1, 419840, Note_on_c, 0, 86, 63
1, 420096, Note_on_c, 0, 86, 0
1, 420096, Note_on_c, 0, 82, 64
1, 420352, Note_on_c, 0, 82, 0
1, 420352, Note_on_c, 0, 79, 65
1, 420608, Note_on_c, 0, 79, 0
1, 420608, Note_on_c, 0, 82, 67
1, 420864, Note_on_c, 0, 82, 0
1, 420864, Note_on_c, 0, 84, 67
1, 420864, Note_on_c, 1, 62, 57
1, 420864, Note_on_c, 1, 69, 57
1, 420864, Note_on_c, 1, 72, 57
1, 421120, Note_on_c, 0, 84, 0
1, 421120, Note_on_c, 0, 81, 64
1, 421376, Note_on_c, 0, 81, 0
1, 421376, Note_on_c, 0, 78, 61
1, 421632, Note_on_c, 0, 78, 0
1, 421632, Note_on_c, 0, 81, 60
1, 421888, Note_on_c, 0, 81, 0
1, 421888, Note_on_c, 0, 79, 57
1, 421888, Note_on_c, 1, 62, 0
1, 421888, Note_on_c, 1, 69, 0
1, 421888, Note_on_c, 1, 72, 0
1, 421888, Note_on_c, 1, 67, 47
1, 421888, Note_on_c, 1, 70, 47
1, 422195, Note_on_c, 0, 79, 0
1, 422912, Note_on_c, 0, 67, 57
1, 422912, Note_on_c, 1, 67, 0
1, 422912, Note_on_c, 1, 70, 0
1, 423168, Note_on_c, 0, 67, 0
1, 423168, Note_on_c, 0, 62, 58
1, 423424, Note_on_c, 0, 62, 0
1, 423424, Note_on_c, 0, 67, 60
1, 423680, Note_on_c, 0, 67, 0
1, 423680, Note_on_c, 0, 70, 61
1, 423936, Note_on_c, 0, 70, 0
1, 423936, Note_on_c, 0, 74, 63
1, 424192, Note_on_c, 0, 74, 0
1, 424192, Note_on_c, 0, 70, 64
1, 424448, Note_on_c, 0, 70, 0
1, 424448, Note_on_c, 0, 67, 65
1, 424704, Note_on_c, 0, 67, 0
1, 424704, Note_on_c, 0, 70, 67
1, 424960, Note_on_c, 0, 70, 0
1, 424960, Note_on_c, 0, 72, 67
1, 424960, Note_on_c, 1, 50, 57
1, 424960, Note_on_c, 1, 57, 57
1, 424960, Note_on_c, 1, 60, 57
1, 425216, Note_on_c, 0, 72, 0
1, 425216, Note_on_c, 0, 69, 64
1, 425472, Note_on_c, 0, 69, 0
1, 425472, Note_on_c, 0, 66, 61
1, 425728, Note_on_c, 0, 66, 0
1, 425728, Note_on_c, 0, 69, 60
1, 425984, Note_on_c, 0, 69, 0
1, 425984, Note_on_c, 0, 67, 57
1, 425984, Note_on_c, 1, 50, 0
1, 425984, Note_on_c, 1, 57, 0
1, 425984, Note_on_c, 1, 60, 0
1, 426240, Note_on_c, 1, 43, 47
1, 426496, Note_on_c, 1, 43, 0
1, 426496, Note_on_c, 1, 45, 48
1, 426752, Note_on_c, 1, 45, 0
1, 426752, Note_on_c, 1, 46, 49
1, 427008, Note_on_c, 0, 67, 0
1, 427008, Note_on_c, 1, 46, 0
1, 427008, Note_on_c, 1, 48, 50
1, 427264, Note_on_c, 1, 48, 0
1, 427264, Note_on_c, 1, 50, 51
1, 427520, Note_on_c, 1, 50, 0
1, 427520, Note_on_c, 1, 52, 52
1, 427776, Note_on_c, 1, 52, 0
1, 427776, Note_on_c, 1, 54, 53
1, 428032, Note_on_c, 1, 54, 0
1, 428032, Note_on_c, 1, 55, 54
1, 428288, Note_on_c, 0, 79, 54
1, 428544, Note_on_c, 0, 79, 0
1, 428544, Note_on_c, 0, 82, 54
1, 428800, Note_on_c, 0, 82, 0
1, 428800, Note_on_c, 0, 81, 56
1, 429056, Note_on_c, 0, 81, 0
1, 429056, Note_on_c, 0, 79, 56
1, 429056, Note_on_c, 1, 55, 0
1, 429312, Note_on_c, 0, 79, 0
1, 429312, Note_on_c, 0, 77, 58
1, 429568, Note_on_c, 0, 77, 0
1, 429568, Note_on_c, 0, 76, 58
1, 429824, Note_on_c, 0, 76, 0
1, 429824, Note_on_c, 0, 74, 60
1, 430080, Note_on_c, 0, 74, 0
1, 430080, Note_on_c, 0, 73, 60
1, 430336, Note_on_c, 1, 45, 60
1, 430592, Note_on_c, 1, 45, 0
1, 430592, Note_on_c, 1, 47, 61
1, 430848, Note_on_c, 1, 47, 0
1, 430848, Note_on_c, 1, 49, 62
1, 431104, Note_on_c, 0, 73, 0
1, 431104, Note_on_c, 1, 49, 0
1, 431104, Note_on_c, 1, 50, 63
1, 431360, Note_on_c, 1, 50, 0
1, 431360, Note_on_c, 1, 52, 64
1, 431616, Note_on_c, 1, 52, 0
1, 431616, Note_on_c, 1, 54, 65
1, 431872, Note_on_c, 1, 54, 0
1, 431872, Note_on_c, 1, 56, 66
1, 432128, Note_on_c, 1, 56, 0
1, 432128, Note_on_c, 1, 57, 67
1, 432384, Note_on_c, 0, 85, 67
1, 432640, Note_on_c, 0, 85, 0
1, 432640, Note_on_c, 0, 88, 65
1, 432896, Note_on_c, 0, 88, 0
1, 432896, Note_on_c, 0, 86, 64
1, 433152, Note_on_c, 0, 86, 0
1, 433152, Note_on_c, 0, 85, 63
1, 433152, Note_on_c, 1, 57, 0
1, 433408, Note_on_c, 0, 85, 0
1, 433408, Note_on_c, 0, 82, 61
1, 433664, Note_on_c, 0, 82, 0
1, 433664, Note_on_c, 0, 81, 60
1, 433920, Note_on_c, 0, 81, 0
1, 433920, Note_on_c, 0, 79, 58
1, 434176, Note_on_c, 0, 79, 0
1, 434176, Note_on_c, 0, 77, 57
1, 434176, Note_on_c, 1, 38, 57
1, 434176, Note_on_c, 1, 50, 57
1, 435200, Note_on_c, 0, 77, 0
1, 435200, Note_on_c, 0, 74, 57
1, 435200, Note_on_c, 1, 38, 0
1, 435200, Note_on_c, 1, 50, 0
1, 435456, Note_on_c, 0, 74, 0
1, 435456, Note_on_c, 0, 69, 58
1, 435712, Note_on_c, 0, 69, 0
1, 435712, Note_on_c, 0, 74, 60
1, 435968, Note_on_c, 0, 74, 0
1, 435968, Note_on_c, 0, 77, 61
1, 436224, Note_on_c, 0, 77, 0
1, 436224, Note_on_c, 0, 81, 63
1, 436480, Note_on_c, 0, 81, 0
1, 436480, Note_on_c, 0, 77, 64
1, 436736, Note_on_c, 0, 77, 0
1, 436736, Note_on_c, 0, 74, 65
1, 436992, Note_on_c, 0, 74, 0
1, 436992, Note_on_c, 0, 77, 67
1, 437248, Note_on_c, 0, 77, 0
1, 437248, Note_on_c, 0, 79, 67
1, 437248, Note_on_c, 1, 57, 64
1, 437248, Note_on_c, 1, 64, 64
1, 437248, Note_on_c, 1, 67, 64
1, 437504, Note_on_c, 0, 79, 0
1, 437504, Note_on_c, 0, 76, 64
1, 437760, Note_on_c, 0, 76, 0
1, 437760, Note_on_c, 0, 73, 61
1, 438016, Note_on_c, 0, 73, 0
1, 438016, Note_on_c, 0, 76, 60
1, 438272, Note_on_c, 0, 76, 0
1, 438272, Note_on_c, 0, 74, 57
1, 438272, Note_on_c, 1, 57, 0
1, 438272, Note_on_c, 1, 64, 0
1, 438272, Note_on_c, 1, 67, 0
1, 438272, Note_on_c, 1, 62, 54
1, 438272, Note_on_c, 1, 65, 54
1, 438579, Note_on_c, 0, 74, 0
1, 439296, Note_on_c, 0, 62, 57
1, 439296, Note_on_c, 1, 62, 0
1, 439296, Note_on_c, 1, 65, 0
1, 439552, Note_on_c, 0, 62, 0
1, 439552, Note_on_c, 0, 57, 58
1, 439808, Note_on_c, 0, 57, 0
1, 439808, Note_on_c, 0, 62, 60
1, 440064, Note_on_c, 0, 62, 0
1, 440064, Note_on_c, 0, 65, 61
1, 440320, Note_on_c, 0, 65, 0
1, 440320, Note_on_c, 0, 69, 63
1, 440576, Note_on_c, 0, 69, 0
1, 440576, Note_on_c, 0, 65, 64
1, 440832, Note_on_c, 0, 65, 0
1, 440832, Note_on_c, 0, 62, 65
1, 441088, Note_on_c, 0, 62, 0
1, 441088, Note_on_c, 0, 65, 67
1, 441344, Note_on_c, 0, 65, 0
1, 441344, Note_on_c, 0, 67, 67
1, 441344, Note_on_c, 1, 45, 64
1, 441344, Note_on_c, 1, 52, 64
1, 441344, Note_on_c, 1, 55, 64
1, 441600, Note_on_c, 0, 67, 0
1, 441600, Note_on_c, 0, 64, 63
1, 441856, Note_on_c, 0, 64, 0
1, 441856, Note_on_c, 0, 61, 61
1, 442112, Note_on_c, 0, 61, 0
1, 442112, Note_on_c, 0, 64, 58
1, 442368, Note_on_c, 0, 64, 0
1, 442368, Note_on_c, 1, 45, 0
1, 442368, Note_on_c, 1, 52, 0
1, 442368, Note_on_c, 1, 55, 0
1, 442368, Note_on_c, 1, 50, 54
1, 442368, Note_on_c, 1, 53, 54
1, 442624, Note_on_c, 0, 62, 54
1, 442880, Note_on_c, 0, 62, 0
1, 442880, Note_on_c, 0, 64, 54
1, 443136, Note_on_c, 0, 64, 0
1, 443136, Note_on_c, 0, 65, 56
1, 443392, Note_on_c, 0, 65, 0
1, 443392, Note_on_c, 0, 67, 56
1, 443392, Note_on_c, 1, 50, 0
1, 443392, Note_on_c, 1, 53, 0
1, 443648, Note_on_c, 0, 67, 0
1, 443648, Note_on_c, 0, 69, 58
1, 443904, Note_on_c, 0, 69, 0
1, 443904, Note_on_c, 0, 71, 58
1, 444160, Note_on_c, 0, 71, 0
1, 444160, Note_on_c, 0, 73, 60
1, 444416, Note_on_c, 0, 73, 0
1, 444416, Note_on_c, 0, 74, 60
1, 444672, Note_on_c, 1, 62, 60
1, 444928, Note_on_c, 1, 62, 0
1, 444928, Note_on_c, 1, 65, 61
1, 445184, Note_on_c, 1, 65, 0
1, 445184, Note_on_c, 1, 64, 61
1, 445440, Note_on_c, 0, 74, 0
1, 445440, Note_on_c, 1, 64, 0
1, 445440, Note_on_c, 1, 62, 61
1, 445696, Note_on_c, 1, 62, 0
1, 445696, Note_on_c, 1, 60, 62
1, 445952, Note_on_c, 1, 60, 0
1, 445952, Note_on_c, 1, 59, 63
1, 446208, Note_on_c, 1, 59, 0
1, 446208, Note_on_c, 1, 57, 63
1, 446464, Note_on_c, 1, 57, 0
1, 446464, Note_on_c, 1, 56, 63
1, 446720, Note_on_c, 0, 71, 63
1, 446976, Note_on_c, 0, 71, 0
1, 446976, Note_on_c, 0, 72, 64
1, 447232, Note_on_c, 0, 72, 0
1, 447232, Note_on_c, 0, 74, 64
1, 447488, Note_on_c, 0, 74, 0
1, 447488, Note_on_c, 0, 76, 65
1, 447488, Note_on_c, 1, 56, 0
1, 447744, Note_on_c, 0, 76, 0
1, 447744, Note_on_c, 0, 78, 65
1, 448000, Note_on_c, 0, 78, 0
1, 448000, Note_on_c, 0, 80, 66
1, 448256, Note_on_c, 0, 80, 0
1, 448256, Note_on_c, 0, 81, 66
1, 448512, Note_on_c, 0, 81, 0
1, 448512, Note_on_c, 0, 83, 67
1, 448768, Note_on_c, 1, 56, 67
1, 449024, Note_on_c, 1, 56, 0
1, 449024, Note_on_c, 1, 59, 65
1, 449280, Note_on_c, 1, 59, 0
1, 449280, Note_on_c, 1, 58, 64
1, 449536, Note_on_c, 0, 83, 0
1, 449536, Note_on_c, 1, 58, 0
1, 449536, Note_on_c, 1, 56, 63
1, 449792, Note_on_c, 1, 56, 0
1, 449792, Note_on_c, 1, 53, 61
1, 450048, Note_on_c, 1, 53, 0
1, 450048, Note_on_c, 1, 52, 60
1, 450304, Note_on_c, 1, 52, 0
1, 450304, Note_on_c, 1, 50, 58
1, 450560, Note_on_c, 1, 50, 0
1, 450560, Note_on_c, 1, 48, 57
1, 450816, Note_on_c, 0, 81, 54
1, 451072, Note_on_c, 0, 81, 0
1, 451072, Note_on_c, 0, 88, 54
1, 451328, Note_on_c, 0, 88, 0
1, 451328, Note_on_c, 0, 86, 56
1, 451584, Note_on_c, 0, 86, 0
1, 451584, Note_on_c, 0, 84, 56
1, 451584, Note_on_c, 1, 48, 0
1, 451840, Note_on_c, 0, 84, 0
1, 451840, Note_on_c, 0, 83, 58
1, 452096, Note_on_c, 0, 83, 0
1, 452096, Note_on_c, 0, 81, 58
1, 452352, Note_on_c, 0, 81, 0
1, 452352, Note_on_c, 0, 79, 60
1, 452608, Note_on_c, 0, 79, 0
1, 452608, Note_on_c, 0, 77, 60
1, 452864, Note_on_c, 1, 62, 60
1, 453120, Note_on_c, 1, 62, 0
1, 453120, Note_on_c, 1, 69, 61
1, 453376, Note_on_c, 1, 69, 0
1, 453376, Note_on_c, 1, 67, 62
1, 453632, Note_on_c, 0, 77, 0
1, 453632, Note_on_c, 1, 67, 0
1, 453632, Note_on_c, 1, 65, 63
1, 453888, Note_on_c, 1, 65, 0
1, 453888, Note_on_c, 1, 64, 64
1, 454144, Note_on_c, 1, 64, 0
1, 454144, Note_on_c, 1, 62, 65
1, 454400, Note_on_c, 1, 62, 0
1, 454400, Note_on_c, 1, 60, 66
1, 454656, Note_on_c, 1, 60, 0
1, 454656, Note_on_c, 1, 59, 67
1, 454912, Note_on_c, 0, 79, 67
1, 455168, Note_on_c, 0, 79, 0
1, 455168, Note_on_c, 0, 86, 66
1, 455424, Note_on_c, 0, 86, 0
1, 455424, Note_on_c, 0, 84, 65
1, 455680, Note_on_c, 0, 84, 0
1, 455680, Note_on_c, 0, 83, 64
1, 455680, Note_on_c, 1, 59, 0
1, 455936, Note_on_c, 0, 83, 0
1, 455936, Note_on_c, 0, 81, 63
1, 456192, Note_on_c, 0, 81, 0
1, 456192, Note_on_c, 0, 79, 62
1, 456448, Note_on_c, 0, 79, 0
1, 456448, Note_on_c, 0, 77, 61
1, 456704, Note_on_c, 0, 77, 0
1, 456704, Note_on_c, 0, 76, 60
1, 456960, Note_on_c, 1, 60, 60
1, 457216, Note_on_c, 1, 60, 0
1, 457216, Note_on_c, 1, 67, 60
1, 457472, Note_on_c, 1, 67, 0
1, 457472, Note_on_c, 1, 65, 58
1, 457728, Note_on_c, 0, 76, 0
1, 457728, Note_on_c, 1, 65, 0
1, 457728, Note_on_c, 1, 64, 58
1, 457984, Note_on_c, 1, 64, 0
1, 457984, Note_on_c, 1, 62, 56
1, 458240, Note_on_c, 1, 62, 0
1, 458240, Note_on_c, 1, 60, 56
1, 458496, Note_on_c, 1, 60, 0
1, 458496, Note_on_c, 1, 59, 54
1, 458752, Note_on_c, 1, 59, 0
1, 458752, Note_on_c, 1, 57, 54
1, 459008, Note_on_c, 0, 77, 54
1, 459264, Note_on_c, 0, 77, 0
1, 459264, Note_on_c, 0, 84, 54
1, 459520, Note_on_c, 0, 84, 0
1, 459520, Note_on_c, 0, 83, 56
1, 459776, Note_on_c, 0, 83, 0
1, 459776, Note_on_c, 0, 81, 56
1, 459776, Note_on_c, 1, 57, 0
1, 460032, Note_on_c, 0, 81, 0
1, 460032, Note_on_c, 0, 79, 58
1, 460288, Note_on_c, 0, 79, 0
1, 460288, Note_on_c, 0, 77, 58
1, 460544, Note_on_c, 0, 77, 0
1, 460544, Note_on_c, 0, 76, 60
1, 460800, Note_on_c, 0, 76, 0
1, 460800, Note_on_c, 0, 74, 60
1, 461056, Note_on_c, 1, 59, 60
1, 461312, Note_on_c, 1, 59, 0
1, 461312, Note_on_c, 1, 65, 61
1, 461568, Note_on_c, 1, 65, 0
1, 461568, Note_on_c, 1, 64, 62
1, 461824, Note_on_c, 0, 74, 0
1, 461824, Note_on_c, 1, 64, 0
1, 461824, Note_on_c, 1, 62, 63
1, 462080, Note_on_c, 1, 62, 0
1, 462080, Note_on_c, 1, 60, 64
1, 462336, Note_on_c, 1, 60, 0
1, 462336, Note_on_c, 1, 59, 65
1, 462592, Note_on_c, 1, 59, 0
1, 462592, Note_on_c, 1, 57, 66
1, 462848, Note_on_c, 1, 57, 0
1, 462848, Note_on_c, 1, 56, 67
1, 463104, Note_on_c, 0, 76, 67
1, 463360, Note_on_c, 0, 76, 0
1, 463360, Note_on_c, 0, 83, 66
1, 463616, Note_on_c, 0, 83, 0
1, 463616, Note_on_c, 0, 81, 65
1, 463872, Note_on_c, 0, 81, 0
1, 463872, Note_on_c, 0, 80, 64
1, 463872, Note_on_c, 1, 56, 0
1, 464128, Note_on_c, 0, 80, 0
1, 464128, Note_on_c, 0, 77, 63
1, 464384, Note_on_c, 0, 77, 0
1, 464384, Note_on_c, 0, 76, 62
1, 464640, Note_on_c, 0, 76, 0
1, 464640, Note_on_c, 0, 74, 61
1, 464896, Note_on_c, 0, 74, 0
1, 464896, Note_on_c, 0, 72, 60
1, 465152, Note_on_c, 1, 57, 60
1, 465408, Note_on_c, 1, 57, 0
1, 465408, Note_on_c, 1, 60, 60
1, 465664, Note_on_c, 1, 60, 0
1, 465664, Note_on_c, 1, 59, 58
1, 465920, Note_on_c, 0, 72, 0
1, 465920, Note_on_c, 1, 59, 0
1, 465920, Note_on_c, 1, 57, 58
1, 466176, Note_on_c, 1, 57, 0
1, 466176, Note_on_c, 1, 55, 56
1, 466432, Note_on_c, 1, 55, 0
1, 466432, Note_on_c, 1, 53, 56
1, 466688, Note_on_c, 1, 53, 0
1, 466688, Note_on_c, 1, 52, 54
1, 466944, Note_on_c, 1, 52, 0
1, 466944, Note_on_c, 1, 50, 54
1, 467200, Note_on_c, 0, 70, 57
1, 467456, Note_on_c, 0, 70, 0
1, 467456, Note_on_c, 0, 74, 58
1, 467712, Note_on_c, 0, 74, 0
1, 467712, Note_on_c, 0, 72, 58
1, 467968, Note_on_c, 0, 72, 0
1, 467968, Note_on_c, 0, 70, 59
1, 468224, Note_on_c, 0, 70, 0
1, 468224, Note_on_c, 0, 69, 60
1, 468480, Note_on_c, 0, 69, 0
1, 468480, Note_on_c, 0, 67, 60
1, 468736, Note_on_c, 0, 67, 0
1, 468736, Note_on_c, 0, 65, 61
1, 468992, Note_on_c, 0, 65, 0
1, 468992, Note_on_c, 0, 64, 61
1, 468992, Note_on_c, 1, 50, 0
1, 468992, Note_on_c, 1, 48, 57
1, 468992, Note_on_c, 1, 55, 57
1, 468992, Note_on_c, 1, 58, 57
1, 469248, Note_on_c, 0, 64, 0
1, 469248, Note_on_c, 0, 65, 62
1, 469504, Note_on_c, 0, 65, 0
1, 469504, Note_on_c, 0, 67, 63
1, 469760, Note_on_c, 0, 67, 0
1, 469760, Note_on_c, 0, 69, 63
1, 470016, Note_on_c, 0, 69, 0
1, 470016, Note_on_c, 0, 70, 64
1, 470272, Note_on_c, 0, 70, 0
1, 470272, Note_on_c, 0, 72, 65
1, 470528, Note_on_c, 0, 72, 0
1, 470528, Note_on_c, 0, 74, 65
1, 470784, Note_on_c, 0, 74, 0
1, 470784, Note_on_c, 0, 76, 66
1, 471040, Note_on_c, 0, 76, 0
1, 471040, Note_on_c, 0, 77, 64
1, 471040, Note_on_c, 1, 48, 0
1, 471040, Note_on_c, 1, 55, 0
1, 471040, Note_on_c, 1, 58, 0
1, 471040, Note_on_c, 1, 65, 47
1, 471552, Note_on_c, 1, 72, 48
1, 472064, Note_on_c, 1, 72, 0
1, 472064, Note_on_c, 1, 69, 49
1, 472064, Note_on_c, 1, 65, 0
1, 472576, Note_on_c, 1, 69, 0
1, 472576, Note_on_c, 1, 72, 51
1, 473088, Note_on_c, 0, 77, 0
1, 473088, Note_on_c, 0, 81, 66
1, 473088, Note_on_c, 1, 72, 0
1, 473088, Note_on_c, 1, 65, 51
1, 473600, Note_on_c, 1, 72, 53
1, 474112, Note_on_c, 0, 81, 0
1, 474112, Note_on_c, 0, 84, 68
1, 474112, Note_on_c, 1, 72, 0
1, 474112, Note_on_c, 1, 69, 55
1, 474112, Note_on_c, 1, 65, 0
1, 474624, Note_on_c, 1, 69, 0
1, 474624, Note_on_c, 1, 72, 57
1, 475136, Note_on_c, 0, 84, 0
1, 475136, Note_on_c, 0, 76, 68
1, 475136, Note_on_c, 1, 72, 0
1, 475136, Note_on_c, 1, 67, 57
1, 475648, Note_on_c, 1, 72, 57
1, 476160, Note_on_c, 1, 72, 0
1, 476160, Note_on_c, 1, 70, 54
1, 476160, Note_on_c, 1, 67, 0
1, 476672, Note_on_c, 0, 76, 0
1, 476672, Note_on_c, 0, 77, 65
1, 476672, Note_on_c, 1, 70, 0
1, 476672, Note_on_c, 1, 72, 53
1, 476928, Note_on_c, 0, 77, 0
1, 476928, Note_on_c, 0, 79, 64
1, 477184, Note_on_c, 0, 79, 0
1, 477184, Note_on_c, 0, 77, 64
1, 477184, Note_on_c, 1, 72, 0
1, 477184, Note_on_c, 1, 65, 51
1, 477696, Note_on_c, 1, 72, 51
1, 478208, Note_on_c, 0, 77, 0
1, 478208, Note_on_c, 1, 72, 0
1, 478208, Note_on_c, 1, 69, 49
1, 478208, Note_on_c, 1, 65, 0
1, 478720, Note_on_c, 1, 69, 0
1, 478720, Note_on_c, 1, 72, 48
1, 479232, Note_on_c, 0, 86, 70
1, 479232, Note_on_c, 1, 72, 0
1, 479232, Note_on_c, 1, 65, 49
1, 479744, Note_on_c, 1, 74, 51
1, 480256, Note_on_c, 1, 74, 0
1, 480256, Note_on_c, 1, 70, 52
1, 480256, Note_on_c, 1, 65, 0
1, 480768, Note_on_c, 1, 70, 0
1, 480768, Note_on_c, 1, 74, 53
1, 481280, Note_on_c, 0, 86, 0
1, 481280, Note_on_c, 0, 84, 72
1, 481280, Note_on_c, 1, 74, 0
1, 481280, Note_on_c, 1, 65, 54
1, 481792, Note_on_c, 1, 72, 55
1, 482304, Note_on_c, 0, 84, 0
1, 482304, Note_on_c, 0, 89, 76
1, 482304, Note_on_c, 1, 72, 0
1, 482304, Note_on_c, 1, 69, 56
1, 482304, Note_on_c, 1, 65, 0
1, 482816, Note_on_c, 1, 69, 0
1, 482816, Note_on_c, 1, 72, 56
1, 483328, Note_on_c, 0, 89, 0
1, 483328, Note_on_c, 0, 84, 74
1, 483328, Note_on_c, 1, 72, 0
1, 483328, Note_on_c, 1, 64, 58
1, 483840, Note_on_c, 1, 72, 56
1, 484352, Note_on_c, 0, 84, 0
1, 484352, Note_on_c, 0, 82, 69
1, 484352, Note_on_c, 1, 72, 0
1, 484352, Note_on_c, 1, 67, 55
1, 484352, Note_on_c, 1, 64, 0
1, 484523, Note_on_c, 0, 82, 0
1, 484523, Note_on_c, 0, 84, 68
1, 484693, Note_on_c, 0, 84, 0
1, 484693, Note_on_c, 0, 82, 67
1, 484864, Note_on_c, 0, 82, 0
1, 484864, Note_on_c, 0, 81, 67
1, 484864, Note_on_c, 1, 67, 0
1, 484864, Note_on_c, 1, 72, 55
1, 485120, Note_on_c, 0, 81, 0
1, 485120, Note_on_c, 0, 82, 65
1, 485376, Note_on_c, 0, 82, 0
1, 485376, Note_on_c, 0, 81, 64
1, 485376, Note_on_c, 1, 72, 0
1, 485376, Note_on_c, 1, 65, 53
1, 485888, Note_on_c, 1, 72, 53
1, 486400, Note_on_c, 0, 81, 0
1, 486400, Note_on_c, 1, 72, 0
1, 486400, Note_on_c, 1, 69, 51
1, 486400, Note_on_c, 1, 65, 0
1, 486912, Note_on_c, 1, 69, 0
1, 486912, Note_on_c, 1, 72, 51
1, 487424, Note_on_c, 0, 74, 73
1, 487424, Note_on_c, 1, 72, 0
1, 487424, Note_on_c, 1, 70, 71
1, 487936, Note_on_c, 0, 74, 0
1, 487936, Note_on_c, 0, 76, 75
1, 488192, Note_on_c, 0, 76, 0
1, 488192, Note_on_c, 0, 77, 77
1, 488448, Note_on_c, 0, 77, 0
1, 488448, Note_on_c, 0, 79, 78
1, 488448, Note_on_c, 1, 70, 0
1, 488704, Note_on_c, 0, 79, 0
1, 488704, Note_on_c, 0, 81, 79
1, 488960, Note_on_c, 0, 81, 0
1, 488960, Note_on_c, 0, 82, 80
1, 489216, Note_on_c, 0, 82, 0
1, 489216, Note_on_c, 0, 84, 81
1, 489472, Note_on_c, 0, 84, 0
1, 489472, Note_on_c, 0, 86, 82
1, 489728, Note_on_c, 0, 86, 0
1, 489728, Note_on_c, 0, 84, 82
1, 489984, Note_on_c, 0, 84, 0
1, 489984, Note_on_c, 0, 82, 80
1, 490240, Note_on_c, 0, 82, 0
1, 490240, Note_on_c, 0, 81, 79
1, 490496, Note_on_c, 0, 81, 0
1, 490496, Note_on_c, 0, 79, 77
1, 490496, Note_on_c, 1, 58, 77
1, 490496, Note_on_c, 1, 65, 77
1, 490752, Note_on_c, 0, 79, 0
1, 490752, Note_on_c, 0, 77, 76
1, 491008, Note_on_c, 0, 77, 0
1, 491008, Note_on_c, 0, 76, 74
1, 491264, Note_on_c, 0, 76, 0
1, 491264, Note_on_c, 0, 74, 73
1, 491520, Note_on_c, 0, 74, 0
1, 491520, Note_on_c, 0, 72, 73
1, 491520, Note_on_c, 1, 58, 0
1, 491520, Note_on_c, 1, 65, 0
1, 491520, Note_on_c, 1, 57, 68
1, 491520, Note_on_c, 1, 65, 68
1, 492032, Note_on_c, 0, 72, 0
1, 492032, Note_on_c, 0, 74, 75
1, 492288, Note_on_c, 0, 74, 0
1, 492288, Note_on_c, 0, 76, 77
1, 492544, Note_on_c, 0, 76, 0
1, 492544, Note_on_c, 0, 77, 78
1, 492544, Note_on_c, 1, 57, 0
1, 492544, Note_on_c, 1, 65, 0
1, 492800, Note_on_c, 0, 77, 0
1, 492800, Note_on_c, 0, 79, 79
1, 493056, Note_on_c, 0, 79, 0
1, 493056, Note_on_c, 0, 81, 80
1, 493312, Note_on_c, 0, 81, 0
1, 493312, Note_on_c, 0, 82, 81
1, 493568, Note_on_c, 0, 82, 0
1, 493568, Note_on_c, 0, 84, 82
1, 493824, Note_on_c, 0, 84, 0
1, 493824, Note_on_c, 0, 82, 82
1, 494080, Note_on_c, 0, 82, 0
1, 494080, Note_on_c, 0, 81, 80
1, 494336, Note_on_c, 0, 81, 0
1, 494336, Note_on_c, 0, 79, 79
1, 494592, Note_on_c, 0, 79, 0
1, 494592, Note_on_c, 0, 77, 77
1, 494592, Note_on_c, 1, 57, 77
1, 494592, Note_on_c, 1, 65, 77
1, 494848, Note_on_c, 0, 77, 0
1, 494848, Note_on_c, 0, 76, 76
1, 495104, Note_on_c, 0, 76, 0
1, 495104, Note_on_c, 0, 74, 74
1, 495360, Note_on_c, 0, 74, 0
1, 495360, Note_on_c, 0, 72, 73
1, 495616, Note_on_c, 0, 72, 0
1, 495616, Note_on_c, 0, 70, 73
1, 495616, Note_on_c, 1, 57, 0
1, 495616, Note_on_c, 1, 65, 0
1, 495616, Note_on_c, 1, 55, 67
1, 495616, Note_on_c, 1, 65, 67
1, 496128, Note_on_c, 0, 70, 0
1, 496128, Note_on_c, 0, 72, 75
1, 496384, Note_on_c, 0, 72, 0
1, 496384, Note_on_c, 0, 74, 77
1, 496640, Note_on_c, 0, 74, 0
1, 496640, Note_on_c, 0, 76, 78
1, 496640, Note_on_c, 1, 55, 0
1, 496640, Note_on_c, 1, 65, 0
1, 496896, Note_on_c, 0, 76, 0
1, 496896, Note_on_c, 0, 77, 79
1, 497152, Note_on_c, 0, 77, 0
1, 497152, Note_on_c, 0, 79, 80
1, 497408, Note_on_c, 0, 79, 0
1, 497408, Note_on_c, 0, 81, 81
1, 497664, Note_on_c, 0, 81, 0
1, 497664, Note_on_c, 0, 82, 82
1, 497920, Note_on_c, 0, 82, 0
1, 497920, Note_on_c, 0, 81, 82
1, 498176, Note_on_c, 0, 81, 0
1, 498176, Note_on_c, 0, 79, 80
1, 498432, Note_on_c, 0, 79, 0
1, 498432, Note_on_c, 0, 77, 79
1, 498688, Note_on_c, 0, 77, 0
1, 498688, Note_on_c, 0, 76, 77
1, 498688, Note_on_c, 1, 55, 77
1, 498688, Note_on_c, 1, 64, 77
1, 498944, Note_on_c, 0, 76, 0
1, 498944, Note_on_c, 0, 74, 76
1, 499200, Note_on_c, 0, 74, 0
1, 499200, Note_on_c, 0, 72, 74
1, 499456, Note_on_c, 0, 72, 0
1, 499456, Note_on_c, 0, 70, 73
1, 499712, Note_on_c, 0, 70, 0
1, 499712, Note_on_c, 0, 69, 73
1, 499712, Note_on_c, 1, 55, 0
1, 499712, Note_on_c, 1, 64, 0
1, 499712, Note_on_c, 1, 53, 67
1, 499712, Note_on_c, 1, 65, 67
1, 500224, Note_on_c, 0, 69, 0
1, 500224, Note_on_c, 0, 70, 75
1, 500480, Note_on_c, 0, 70, 0
1, 500480, Note_on_c, 0, 72, 77
1, 500736, Note_on_c, 0, 72, 0
1, 500736, Note_on_c, 0, 74, 78
1, 500736, Note_on_c, 1, 53, 0
1, 500736, Note_on_c, 1, 65, 0
1, 500992, Note_on_c, 0, 74, 0
1, 500992, Note_on_c, 0, 76, 79
1, 501248, Note_on_c, 0, 76, 0
1, 501248, Note_on_c, 0, 77, 80
1, 501504, Note_on_c, 0, 77, 0
1, 501504, Note_on_c, 0, 79, 81
1, 501760, Note_on_c, 0, 79, 0
1, 501760, Note_on_c, 0, 81, 82
1, 502016, Note_on_c, 0, 81, 0
1, 502016, Note_on_c, 0, 79, 82
1, 502272, Note_on_c, 0, 79, 0
1, 502272, Note_on_c, 0, 77, 80
1, 502528, Note_on_c, 0, 77, 0
1, 502528, Note_on_c, 0, 76, 79
1, 502784, Note_on_c, 0, 76, 0
1, 502784, Note_on_c, 0, 74, 77
1, 503040, Note_on_c, 0, 74, 0
1, 503040, Note_on_c, 0, 72, 76
1, 503296, Note_on_c, 0, 72, 0
1, 503296, Note_on_c, 0, 70, 74
1, 503552, Note_on_c, 0, 70, 0
1, 503552, Note_on_c, 0, 69, 73
1, 503808, Note_on_c, 0, 69, 0
1, 503808, Note_on_c, 0, 81, 83
1, 503808, Note_on_c, 1, 53, 69
1, 504320, Note_on_c, 1, 53, 0
1, 504320, Note_on_c, 1, 55, 71
1, 504576, Note_on_c, 1, 55, 0
1, 504576, Note_on_c, 1, 57, 72
1, 504832, Note_on_c, 0, 81, 0
1, 504832, Note_on_c, 1, 57, 0
1, 504832, Note_on_c, 1, 58, 74
1, 505088, Note_on_c, 1, 58, 0
1, 505088, Note_on_c, 1, 60, 74
1, 505344, Note_on_c, 1, 60, 0
1, 505344, Note_on_c, 1, 62, 76
1, 505600, Note_on_c, 1, 62, 0
1, 505600, Note_on_c, 1, 64, 77
1, 505856, Note_on_c, 1, 64, 0
1, 505856, Note_on_c, 1, 65, 78
1, 506112, Note_on_c, 1, 65, 0
1, 506112, Note_on_c, 1, 64, 78
1, 506368, Note_on_c, 1, 64, 0
1, 506368, Note_on_c, 1, 62, 76
1, 506624, Note_on_c, 1, 62, 0
1, 506624, Note_on_c, 1, 60, 75
1, 506880, Note_on_c, 0, 72, 83
1, 506880, Note_on_c, 0, 81, 83
1, 506880, Note_on_c, 1, 60, 0
1, 506880, Note_on_c, 1, 58, 73
1, 507136, Note_on_c, 1, 58, 0
1, 507136, Note_on_c, 1, 57, 72
1, 507392, Note_on_c, 1, 57, 0
1, 507392, Note_on_c, 1, 55, 70
1, 507648, Note_on_c, 1, 55, 0
1, 507648, Note_on_c, 1, 53, 69
1, 507904, Note_on_c, 0, 72, 0
1, 507904, Note_on_c, 0, 81, 0
1, 507904, Note_on_c, 0, 72, 81
1, 507904, Note_on_c, 0, 79, 81
1, 507904, Note_on_c, 1, 53, 0
1, 507904, Note_on_c, 1, 52, 69
1, 508416, Note_on_c, 1, 52, 0
1, 508416, Note_on_c, 1, 53, 71
1, 508672, Note_on_c, 1, 53, 0
1, 508672, Note_on_c, 1, 55, 72
1, 508928, Note_on_c, 0, 72, 0
1, 508928, Note_on_c, 0, 79, 0
1, 508928, Note_on_c, 1, 55, 0
1, 508928, Note_on_c, 1, 57, 74
1, 509184, Note_on_c, 1, 57, 0
1, 509184, Note_on_c, 1, 59, 74
1, 509440, Note_on_c, 1, 59, 0
1, 509440, Note_on_c, 1, 60, 76
1, 509696, Note_on_c, 1, 60, 0
1, 509696, Note_on_c, 1, 62, 77
1, 509952, Note_on_c, 1, 62, 0
1, 509952, Note_on_c, 1, 64, 78
1, 510208, Note_on_c, 1, 64, 0
1, 510208, Note_on_c, 1, 62, 78
1, 510464, Note_on_c, 1, 62, 0
1, 510464, Note_on_c, 1, 60, 76
1, 510720, Note_on_c, 1, 60, 0
1, 510720, Note_on_c, 1, 59, 75
1, 510976, Note_on_c, 0, 72, 83
1, 510976, Note_on_c, 0, 79, 83
1, 510976, Note_on_c, 1, 59, 0
1, 510976, Note_on_c, 1, 57, 73
1, 511232, Note_on_c, 1, 57, 0
1, 511232, Note_on_c, 1, 55, 72
1, 511488, Note_on_c, 1, 55, 0
1, 511488, Note_on_c, 1, 53, 70
1, 511744, Note_on_c, 1, 53, 0
1, 511744, Note_on_c, 1, 52, 69
1, 512000, Note_on_c, 0, 72, 0
1, 512000, Note_on_c, 0, 79, 0
1, 512000, Note_on_c, 0, 72, 80
1, 512000, Note_on_c, 0, 77, 80
1, 512000, Note_on_c, 1, 52, 0
1, 512000, Note_on_c, 1, 50, 69
1, 512512, Note_on_c, 1, 50, 0
1, 512512, Note_on_c, 1, 52, 71
1, 512768, Note_on_c, 1, 52, 0
1, 512768, Note_on_c, 1, 53, 72
1, 513024, Note_on_c, 0, 72, 0
1, 513024, Note_on_c, 0, 77, 0
1, 513024, Note_on_c, 1, 53, 0
1, 513024, Note_on_c, 1, 55, 74
1, 513280, Note_on_c, 1, 55, 0
1, 513280, Note_on_c, 1, 57, 74
1, 513536, Note_on_c, 1, 57, 0
1, 513536, Note_on_c, 1, 59, 76
1, 513792, Note_on_c, 1, 59, 0
1, 513792, Note_on_c, 1, 60, 77
1, 514048, Note_on_c, 1, 60, 0
1, 514048, Note_on_c, 1, 62, 78
1, 514304, Note_on_c, 1, 62, 0
1, 514304, Note_on_c, 1, 60, 78
1, 514560, Note_on_c, 1, 60, 0
1, 514560, Note_on_c, 1, 59, 76
1, 514816, Note_on_c, 1, 59, 0
1, 514816, Note_on_c, 1, 57, 75
1, 515072, Note_on_c, 0, 71, 83
1, 515072, Note_on_c, 0, 77, 83
1, 515072, Note_on_c, 1, 57, 0
1, 515072, Note_on_c, 1, 55, 73
1, 515328, Note_on_c, 1, 55, 0
1, 515328, Note_on_c, 1, 53, 72
1, 515584, Note_on_c, 1, 53, 0
1, 515584, Note_on_c, 1, 52, 70
1, 515840, Note_on_c, 1, 52, 0
1, 515840, Note_on_c, 1, 50, 69
1, 516096, Note_on_c, 0, 71, 0
1, 516096, Note_on_c, 0, 77, 0
1, 516096, Note_on_c, 0, 72, 80
1, 516096, Note_on_c, 0, 76, 80
1, 516096, Note_on_c, 1, 50, 0
1, 516096, Note_on_c, 1, 48, 69
1, 516608, Note_on_c, 1, 48, 0
1, 516608, Note_on_c, 1, 50, 71
1, 516864, Note_on_c, 1, 50, 0
1, 516864, Note_on_c, 1, 52, 72
1, 517120, Note_on_c, 0, 72, 0
1, 517120, Note_on_c, 0, 76, 0
1, 517120, Note_on_c, 1, 52, 0
1, 517120, Note_on_c, 1, 53, 74
1, 517376, Note_on_c, 1, 53, 0
1, 517376, Note_on_c, 1, 55, 74
1, 517632, Note_on_c, 1, 55, 0
1, 517632, Note_on_c, 1, 57, 76
1, 517888, Note_on_c, 1, 57, 0
1, 517888, Note_on_c, 1, 59, 77
1, 518144, Note_on_c, 1, 59, 0
1, 518144, Note_on_c, 1, 60, 78
1, 518400, Note_on_c, 1, 60, 0
1, 518400, Note_on_c, 1, 59, 78
1, 518656, Note_on_c, 1, 59, 0
1, 518656, Note_on_c, 1, 57, 76
1, 518912, Note_on_c, 1, 57, 0
1, 518912, Note_on_c, 1, 55, 75
1, 519168, Note_on_c, 0, 72, 78
1, 519168, Note_on_c, 0, 76, 78
1, 519168, Note_on_c, 1, 55, 0
1, 519168, Note_on_c, 1, 53, 73
1, 519424, Note_on_c, 1, 53, 0
1, 519424, Note_on_c, 1, 52, 72
1, 519680, Note_on_c, 1, 52, 0
1, 519680, Note_on_c, 1, 50, 70
1, 519936, Note_on_c, 1, 50, 0
1, 519936, Note_on_c, 1, 48, 69
1, 520192, Note_on_c, 0, 72, 0
1, 520192, Note_on_c, 0, 76, 0
1, 520192, Note_on_c, 0, 74, 77
1, 520192, Note_on_c, 1, 48, 0
1, 520192, Note_on_c, 1, 53, 71
1, 520192, Note_on_c, 1, 57, 71
1, 520448, Note_on_c, 0, 74, 0
1, 520448, Note_on_c, 0, 62, 77
1, 520704, Note_on_c, 0, 62, 0
1, 520704, Note_on_c, 0, 64, 77
1, 520960, Note_on_c, 0, 64, 0
1, 520960, Note_on_c, 0, 65, 77
1, 521216, Note_on_c, 0, 65, 0
1, 521216, Note_on_c, 0, 67, 78
1, 521472, Note_on_c, 0, 67, 0
1, 521472, Note_on_c, 0, 69, 78
1, 521728, Note_on_c, 0, 69, 0
1, 521728, Note_on_c, 0, 71, 79
1, 521984, Note_on_c, 0, 71, 0
1, 521984, Note_on_c, 0, 73, 79
1, 522240, Note_on_c, 0, 73, 0
1, 522240, Note_on_c, 0, 74, 79
1, 522496, Note_on_c, 0, 74, 0
1, 522496, Note_on_c, 0, 69, 79
1, 522752, Note_on_c, 0, 69, 0
1, 522752, Note_on_c, 0, 71, 79
1, 523008, Note_on_c, 0, 71, 0
1, 523008, Note_on_c, 0, 73, 80
1, 523264, Note_on_c, 0, 73, 0
1, 523264, Note_on_c, 0, 74, 80
1, 523520, Note_on_c, 0, 74, 0
1, 523520, Note_on_c, 0, 76, 80
1, 523776, Note_on_c, 0, 76, 0
1, 523776, Note_on_c, 0, 77, 80
1, 524032, Note_on_c, 0, 77, 0
1, 524032, Note_on_c, 0, 79, 80
1, 524288, Note_on_c, 0, 79, 0
1, 524288, Note_on_c, 0, 81, 81
1, 524288, Note_on_c, 1, 53, 0
1, 524288, Note_on_c, 1, 57, 0
1, 524288, Note_on_c, 1, 53, 75
1, 524544, Note_on_c, 0, 81, 0
1, 524544, Note_on_c, 0, 83, 81
1, 524800, Note_on_c, 0, 83, 0
1, 524800, Note_on_c, 0, 84, 82
1, 525056, Note_on_c, 0, 84, 0
1, 525056, Note_on_c, 0, 83, 82
1, 525312, Note_on_c, 0, 83, 0
1, 525312, Note_on_c, 0, 81, 82
1, 525568, Note_on_c, 0, 81, 0
1, 525568, Note_on_c, 0, 79, 82
1, 525824, Note_on_c, 0, 79, 0
1, 525824, Note_on_c, 0, 77, 82
1, 525824, Note_on_c, 1, 53, 0
1, 525824, Note_on_c, 1, 55, 76
1, 526080, Note_on_c, 0, 77, 0
1, 526080, Note_on_c, 0, 76, 83
1, 526336, Note_on_c, 0, 76, 0
1, 526336, Note_on_c, 0, 77, 83
1, 526336, Note_on_c, 1, 55, 0
1, 526336, Note_on_c, 1, 57, 77
1, 526592, Note_on_c, 0, 77, 0
1, 526592, Note_on_c, 0, 79, 83
1, 526848, Note_on_c, 0, 79, 0
1, 526848, Note_on_c, 0, 81, 84
1, 527104, Note_on_c, 0, 81, 0
1, 527104, Note_on_c, 0, 79, 84
1, 527360, Note_on_c, 0, 79, 0
1, 527360, Note_on_c, 0, 77, 84
1, 527616, Note_on_c, 0, 77, 0
1, 527616, Note_on_c, 0, 76, 84
1, 527872, Note_on_c, 0, 76, 0
1, 527872, Note_on_c, 0, 74, 85
1, 527872, Note_on_c, 1, 57, 0
1, 527872, Note_on_c, 1, 54, 78
1, 528128, Note_on_c, 0, 74, 0
1, 528128, Note_on_c, 0, 72, 85
1, 528384, Note_on_c, 0, 72, 0
1, 528384, Note_on_c, 0, 71, 85
1, 528384, Note_on_c, 1, 54, 0
1, 528384, Note_on_c, 1, 43, 78
1, 528640, Note_on_c, 1, 47, 79
1, 528896, Note_on_c, 0, 71, 0
1, 528896, Note_on_c, 0, 79, 86
1, 528896, Note_on_c, 1, 47, 0
1, 528896, Note_on_c, 1, 50, 79
1, 529152, Note_on_c, 1, 50, 0
1, 529152, Note_on_c, 1, 55, 79
1, 529408, Note_on_c, 0, 79, 0
1, 529408, Note_on_c, 0, 76, 86
1, 529408, Note_on_c, 1, 55, 0
1, 529408, Note_on_c, 1, 43, 0
1, 529408, Note_on_c, 1, 43, 79
1, 529664, Note_on_c, 1, 48, 79
1, 529920, Note_on_c, 0, 76, 0
1, 529920, Note_on_c, 0, 72, 87
1, 529920, Note_on_c, 1, 48, 0
1, 529920, Note_on_c, 1, 52, 80
1, 530176, Note_on_c, 1, 52, 0
1, 530176, Note_on_c, 1, 52, 80
1, 530432, Note_on_c, 0, 72, 0
1, 530432, Note_on_c, 0, 74, 87
1, 530432, Note_on_c, 1, 52, 0
1, 530432, Note_on_c, 1, 43, 0
1, 530432, Note_on_c, 1, 43, 80
1, 530688, Note_on_c, 1, 47, 80
1, 530944, Note_on_c, 0, 74, 0
1, 530944, Note_on_c, 0, 79, 88
1, 530944, Note_on_c, 1, 47, 0
1, 530944, Note_on_c, 1, 50, 81
1, 531200, Note_on_c, 1, 50, 0
1, 531200, Note_on_c, 1, 55, 81
1, 531456, Note_on_c, 0, 79, 0
1, 531456, Note_on_c, 0, 76, 88
1, 531456, Note_on_c, 1, 55, 0
1, 531456, Note_on_c, 1, 43, 0
1, 531456, Note_on_c, 1, 43, 81
1, 531712, Note_on_c, 1, 48, 82
1, 531968, Note_on_c, 0, 76, 0
1, 531968, Note_on_c, 0, 72, 89
1, 531968, Note_on_c, 1, 48, 0
1, 531968, Note_on_c, 1, 52, 82
1, 532224, Note_on_c, 1, 52, 0
1, 532224, Note_on_c, 1, 55, 82
1, 532480, Note_on_c, 0, 72, 0
1, 532480, Note_on_c, 0, 74, 103
1, 532480, Note_on_c, 1, 55, 0
1, 532480, Note_on_c, 1, 43, 0
1, 532480, Note_on_c, 1, 43, 84
1, 533504, Note_on_c, 0, 74, 0
1, 533504, Note_on_c, 0, 71, 88
1, 533504, Note_on_c, 0, 74, 88
1, 533504, Note_on_c, 0, 79, 88
1, 533504, Note_on_c, 1, 43, 0
1, 533504, Note_on_c, 1, 55, 69
1, 533606, Note_on_c, 0, 71, 0
1, 533709, Note_on_c, 0, 74, 0
1, 533811, Note_on_c, 0, 79, 0
1, 533811, Note_on_c, 1, 55, 0
1, 534528, Note_on_c, 0, 67, 84
1, 534528, Note_on_c, 1, 43, 68
1, 534835, Note_on_c, 0, 67, 0
1, 534835, Note_on_c, 1, 43, 0
1, 536576, Note_on_c, 1, 66, 64
1, 536832, Note_on_c, 1, 66, 0
1, 536832, Note_on_c, 1, 67, 48
1, 537088, Note_on_c, 1, 67, 0
1, 537088, Note_on_c, 1, 66, 47
1, 537344, Note_on_c, 1, 66, 0
1, 537344, Note_on_c, 1, 67, 44
1, 537600, Note_on_c, 1, 67, 0
1, 537600, Note_on_c, 1, 66, 44
1, 537856, Note_on_c, 1, 66, 0
1, 537856, Note_on_c, 1, 67, 42
1, 538112, Note_on_c, 1, 67, 0
1, 538112, Note_on_c, 1, 66, 40
1, 538368, Note_on_c, 1, 66, 0
1, 538368, Note_on_c, 1, 67, 38
1, 538624, Note_on_c, 1, 67, 0
1, 538624, Note_on_c, 1, 65, 37
1, 538880, Note_on_c, 1, 65, 0
1, 538880, Note_on_c, 1, 67, 37
1, 539136, Note_on_c, 1, 67, 0
1, 539136, Note_on_c, 1, 65, 39
1, 539392, Note_on_c, 1, 65, 0
1, 539392, Note_on_c, 1, 67, 40
1, 539648, Note_on_c, 1, 67, 0
1, 539648, Note_on_c, 1, 65, 43
1, 539904, Note_on_c, 1, 65, 0
1, 539904, Note_on_c, 1, 67, 44
1, 540160, Note_on_c, 1, 67, 0
1, 540160, Note_on_c, 1, 65, 46
1, 540416, Note_on_c, 1, 65, 0
1, 540416, Note_on_c, 1, 67, 48
1, 540672, Note_on_c, 0, 79, 72
1, 540672, Note_on_c, 1, 67, 0
1, 540672, Note_on_c, 1, 64, 51
1, 540928, Note_on_c, 1, 67, 48
1, 541184, Note_on_c, 0, 79, 0
1, 541184, Note_on_c, 0, 76, 62
1, 541184, Note_on_c, 1, 64, 0
1, 541184, Note_on_c, 1, 67, 0
1, 541184, Note_on_c, 1, 64, 46
1, 541440, Note_on_c, 1, 64, 0
1, 541440, Note_on_c, 1, 67, 44
1, 541696, Note_on_c, 0, 76, 0
1, 541696, Note_on_c, 0, 72, 56
1, 541696, Note_on_c, 1, 67, 0
1, 541696, Note_on_c, 1, 64, 43
1, 541952, Note_on_c, 1, 64, 0
1, 541952, Note_on_c, 1, 67, 40
1, 542208, Note_on_c, 1, 67, 0
1, 542208, Note_on_c, 1, 64, 39
1, 542464, Note_on_c, 1, 64, 0
1, 542464, Note_on_c, 1, 67, 37
1, 542720, Note_on_c, 1, 67, 0
1, 542720, Note_on_c, 1, 64, 41
1, 542976, Note_on_c, 1, 64, 0
1, 542976, Note_on_c, 1, 67, 37
1, 543232, Note_on_c, 0, 72, 0
1, 543232, Note_on_c, 0, 74, 57
1, 543232, Note_on_c, 1, 67, 0
1, 543232, Note_on_c, 1, 64, 39
1, 543488, Note_on_c, 0, 74, 0
1, 543488, Note_on_c, 0, 76, 58
1, 543488, Note_on_c, 1, 64, 0
1, 543488, Note_on_c, 1, 67, 40
1, 543744, Note_on_c, 0, 76, 0
1, 543744, Note_on_c, 0, 74, 58
1, 543744, Note_on_c, 1, 67, 0
1, 543744, Note_on_c, 1, 64, 43
1, 544000, Note_on_c, 1, 64, 0
1, 544000, Note_on_c, 1, 67, 44
1, 544256, Note_on_c, 0, 74, 0
1, 544256, Note_on_c, 0, 72, 61
1, 544256, Note_on_c, 1, 67, 0
1, 544256, Note_on_c, 1, 64, 46
1, 544512, Note_on_c, 1, 64, 0
1, 544512, Note_on_c, 1, 67, 48
1, 544768, Note_on_c, 0, 72, 0
1, 544768, Note_on_c, 0, 72, 70
1, 544768, Note_on_c, 1, 67, 0
1, 544768, Note_on_c, 1, 65, 45
1, 544922, Note_on_c, 0, 72, 0
1, 544922, Note_on_c, 0, 74, 60
1, 545024, Note_on_c, 1, 67, 48
1, 545075, Note_on_c, 0, 74, 0
1, 545075, Note_on_c, 0, 72, 59
1, 545229, Note_on_c, 0, 72, 0
1, 545229, Note_on_c, 0, 74, 58
1, 545280, Note_on_c, 1, 67, 0
1, 545280, Note_on_c, 1, 64, 47
1, 545280, Note_on_c, 1, 65, 0
1, 545382, Note_on_c, 0, 74, 0
1, 545382, Note_on_c, 0, 72, 57
1, 545536, Note_on_c, 0, 72, 0
1, 545536, Note_on_c, 0, 71, 60
1, 545536, Note_on_c, 1, 64, 0
1, 545536, Note_on_c, 1, 67, 44
1, 545792, Note_on_c, 0, 71, 0
1, 545792, Note_on_c, 0, 71, 61
1, 545792, Note_on_c, 1, 67, 0
1, 545792, Note_on_c, 1, 62, 43
1, 546048, Note_on_c, 1, 67, 42
1, 546304, Note_on_c, 1, 67, 0
1, 546304, Note_on_c, 1, 64, 40
1, 546304, Note_on_c, 1, 62, 0
1, 546560, Note_on_c, 1, 64, 0
1, 546560, Note_on_c, 1, 67, 38
1, 546816, Note_on_c, 0, 71, 0
1, 546816, Note_on_c, 1, 67, 0
1, 546816, Note_on_c, 1, 65, 37
1, 547072, Note_on_c, 1, 65, 0
1, 547072, Note_on_c, 1, 67, 37
1, 547328, Note_on_c, 1, 67, 0
1, 547328, Note_on_c, 1, 64, 39
1, 547584, Note_on_c, 1, 64, 0
1, 547584, Note_on_c, 1, 67, 39
1, 547840, Note_on_c, 1, 67, 0
1, 547840, Note_on_c, 1, 65, 42
1, 548096, Note_on_c, 1, 65, 0
1, 548096, Note_on_c, 1, 67, 43
1, 548352, Note_on_c, 1, 67, 0
1, 548352, Note_on_c, 1, 62, 44
1, 548608, Note_on_c, 1, 62, 0
1, 548608, Note_on_c, 1, 67, 45
1, 548864, Note_on_c, 0, 79, 72
1, 548864, Note_on_c, 1, 67, 0
1, 548864, Note_on_c, 1, 64, 51
1, 549120, Note_on_c, 1, 67, 48
1, 549376, Note_on_c, 0, 79, 0
1, 549376, Note_on_c, 0, 76, 62
1, 549376, Note_on_c, 1, 64, 0
1, 549376, Note_on_c, 1, 67, 0
1, 549376, Note_on_c, 1, 64, 46
1, 549632, Note_on_c, 1, 64, 0
1, 549632, Note_on_c, 1, 67, 44
1, 549888, Note_on_c, 0, 76, 0
1, 549888, Note_on_c, 0, 72, 56
1, 549888, Note_on_c, 1, 67, 0
1, 549888, Note_on_c, 1, 64, 43
1, 550144, Note_on_c, 1, 64, 0
1, 550144, Note_on_c, 1, 67, 40
1, 550400, Note_on_c, 1, 67, 0
1, 550400, Note_on_c, 1, 64, 39
1, 550656, Note_on_c, 1, 64, 0
1, 550656, Note_on_c, 1, 67, 37
1, 550912, Note_on_c, 1, 67, 0
1, 550912, Note_on_c, 1, 64, 41
1, 551168, Note_on_c, 1, 64, 0
1, 551168, Note_on_c, 1, 67, 37
1, 551424, Note_on_c, 0, 72, 0
1, 551424, Note_on_c, 0, 74, 57
1, 551424, Note_on_c, 1, 67, 0
1, 551424, Note_on_c, 1, 64, 39
1, 551680, Note_on_c, 0, 74, 0
1, 551680, Note_on_c, 0, 76, 58
1, 551680, Note_on_c, 1, 64, 0
1, 551680, Note_on_c, 1, 67, 40
1, 551936, Note_on_c, 0, 76, 0
1, 551936, Note_on_c, 0, 74, 58
1, 551936, Note_on_c, 1, 67, 0
1, 551936, Note_on_c, 1, 64, 43
1, 552192, Note_on_c, 1, 64, 0
1, 552192, Note_on_c, 1, 67, 44
1, 552448, Note_on_c, 0, 74, 0
1, 552448, Note_on_c, 0, 72, 61
1, 552448, Note_on_c, 1, 67, 0
1, 552448, Note_on_c, 1, 64, 46
1, 552704, Note_on_c, 1, 64, 0
1, 552704, Note_on_c, 1, 67, 48
1, 552960, Note_on_c, 0, 72, 0
1, 552960, Note_on_c, 0, 72, 70
1, 552960, Note_on_c, 1, 67, 0
1, 552960, Note_on_c, 1, 65, 45
1, 553114, Note_on_c, 0, 72, 0
1, 553114, Note_on_c, 0, 74, 60
1, 553216, Note_on_c, 1, 67, 48
1, 553267, Note_on_c, 0, 74, 0
1, 553267, Note_on_c, 0, 72, 59
1, 553421, Note_on_c, 0, 72, 0
1, 553421, Note_on_c, 0, 74, 58
1, 553472, Note_on_c, 1, 67, 0
1, 553472, Note_on_c, 1, 64, 47
1, 553472, Note_on_c, 1, 65, 0
1, 553574, Note_on_c, 0, 74, 0
1, 553574, Note_on_c, 0, 72, 57
1, 553728, Note_on_c, 0, 72, 0
1, 553728, Note_on_c, 0, 71, 60
1, 553728, Note_on_c, 1, 64, 0
1, 553728, Note_on_c, 1, 67, 44
1, 553984, Note_on_c, 0, 71, 0
1, 553984, Note_on_c, 0, 71, 61
1, 553984, Note_on_c, 1, 67, 0
1, 553984, Note_on_c, 1, 62, 47
1, 554240, Note_on_c, 1, 67, 42
1, 554496, Note_on_c, 1, 67, 0
1, 554496, Note_on_c, 1, 64, 40
1, 554496, Note_on_c, 1, 62, 0
1, 554752, Note_on_c, 1, 64, 0
1, 554752, Note_on_c, 1, 67, 38
1, 555008, Note_on_c, 0, 71, 0
1, 555008, Note_on_c, 1, 67, 0
1, 555008, Note_on_c, 1, 65, 40
1, 555264, Note_on_c, 1, 65, 0
1, 555264, Note_on_c, 1, 67, 41
1, 555520, Note_on_c, 1, 67, 0
1, 555520, Note_on_c, 1, 64, 43
1, 555776, Note_on_c, 1, 64, 0
1, 555776, Note_on_c, 1, 67, 44
1, 556032, Note_on_c, 1, 67, 0
1, 556032, Note_on_c, 1, 65, 45
1, 556288, Note_on_c, 1, 65, 0
1, 556288, Note_on_c, 1, 67, 46
1, 556544, Note_on_c, 1, 67, 0
1, 556544, Note_on_c, 1, 62, 48
1, 556800, Note_on_c, 1, 62, 0
1, 556800, Note_on_c, 1, 67, 43
1, 557056, Note_on_c, 0, 79, 87
1, 557056, Note_on_c, 1, 67, 0
1, 557312, Note_on_c, 1, 52, 78
1, 557568, Note_on_c, 1, 52, 0
1, 557568, Note_on_c, 1, 55, 77
1, 557824, Note_on_c, 1, 55, 0
1, 557824, Note_on_c, 1, 60, 75
1, 558080, Note_on_c, 0, 79, 0
1, 558080, Note_on_c, 1, 60, 0
1, 558080, Note_on_c, 1, 64, 73
1, 558336, Note_on_c, 0, 79, 77
1, 558592, Note_on_c, 0, 79, 0
1, 558592, Note_on_c, 0, 76, 75
1, 558848, Note_on_c, 0, 76, 0
1, 558848, Note_on_c, 0, 72, 74
1, 559104, Note_on_c, 0, 72, 0
1, 559104, Note_on_c, 0, 69, 72
1, 559104, Note_on_c, 1, 64, 0
1, 559360, Note_on_c, 1, 53, 66
1, 559616, Note_on_c, 1, 53, 0
1, 559616, Note_on_c, 1, 53, 65
1, 559616, Note_on_c, 1, 57, 65
1, 559872, Note_on_c, 1, 53, 0
1, 559872, Note_on_c, 1, 57, 0
1, 559872, Note_on_c, 1, 60, 63
1, 560128, Note_on_c, 0, 69, 0
1, 560128, Note_on_c, 1, 60, 0
1, 560128, Note_on_c, 1, 65, 62
1, 560384, Note_on_c, 0, 69, 67
1, 560640, Note_on_c, 0, 69, 0
1, 560640, Note_on_c, 0, 72, 70
1, 560896, Note_on_c, 0, 72, 0
1, 560896, Note_on_c, 0, 69, 73
1, 561152, Note_on_c, 0, 69, 0
1, 561152, Note_on_c, 0, 77, 87
1, 561152, Note_on_c, 1, 65, 0
1, 561408, Note_on_c, 1, 50, 79
1, 561664, Note_on_c, 1, 50, 0
1, 561664, Note_on_c, 1, 53, 78
1, 561920, Note_on_c, 1, 53, 0
1, 561920, Note_on_c, 1, 59, 76
1, 562176, Note_on_c, 0, 77, 0
1, 562176, Note_on_c, 1, 59, 0
1, 562176, Note_on_c, 1, 62, 74
1, 562432, Note_on_c, 0, 77, 78
1, 562688, Note_on_c, 0, 77, 0
1, 562688, Note_on_c, 0, 74, 76
1, 562944, Note_on_c, 0, 74, 0
1, 562944, Note_on_c, 0, 71, 75
1, 563200, Note_on_c, 0, 71, 0
1, 563200, Note_on_c, 0, 67, 73
1, 563200, Note_on_c, 1, 62, 0
1, 563456, Note_on_c, 1, 52, 67
1, 563712, Note_on_c, 1, 52, 0
1, 563712, Note_on_c, 1, 55, 66
1, 563968, Note_on_c, 1, 55, 0
1, 563968, Note_on_c, 1, 59, 64
1, 564224, Note_on_c, 0, 67, 0
1, 564224, Note_on_c, 1, 59, 0
1, 564224, Note_on_c, 1, 64, 63
1, 564480, Note_on_c, 0, 79, 67
1, 564736, Note_on_c, 0, 79, 0
1, 564736, Note_on_c, 0, 83, 70
1, 564992, Note_on_c, 0, 83, 0
1, 564992, Note_on_c, 0, 79, 73
1, 565248, Note_on_c, 0, 79, 0
1, 565248, Note_on_c, 0, 88, 96
1, 565248, Note_on_c, 1, 64, 0
1, 565504, Note_on_c, 1, 60, 78
1, 565760, Note_on_c, 1, 60, 0
1, 565760, Note_on_c, 1, 64, 77
1, 566016, Note_on_c, 1, 64, 0
1, 566016, Note_on_c, 1, 67, 75
1, 566272, Note_on_c, 0, 88, 0
1, 566272, Note_on_c, 1, 67, 0
1, 566272, Note_on_c, 1, 72, 73
1, 566528, Note_on_c, 0, 88, 77
1, 566784, Note_on_c, 0, 88, 0
1, 566784, Note_on_c, 0, 84, 75
1, 567040, Note_on_c, 0, 84, 0
1, 567040, Note_on_c, 0, 81, 72
1, 567296, Note_on_c, 0, 81, 0
1, 567296, Note_on_c, 0, 77, 70
1, 567296, Note_on_c, 1, 72, 0
1, 567552, Note_on_c, 1, 62, 67
1, 567808, Note_on_c, 1, 62, 0
1, 567808, Note_on_c, 1, 65, 65
1, 568064, Note_on_c, 1, 65, 0
1, 568064, Note_on_c, 1, 69, 63
1, 568320, Note_on_c, 0, 77, 0
1, 568320, Note_on_c, 1, 69, 0
1, 568320, Note_on_c, 1, 74, 61
1, 568576, Note_on_c, 0, 77, 66
1, 568832, Note_on_c, 0, 77, 0
1, 568832, Note_on_c, 0, 81, 70
1, 569088, Note_on_c, 0, 81, 0
1, 569088, Note_on_c, 0, 77, 73
1, 569344, Note_on_c, 0, 77, 0
1, 569344, Note_on_c, 0, 86, 92
1, 569344, Note_on_c, 1, 74, 0
1, 569600, Note_on_c, 1, 59, 78
1, 569856, Note_on_c, 1, 59, 0
1, 569856, Note_on_c, 1, 62, 77
1, 570112, Note_on_c, 1, 62, 0
1, 570112, Note_on_c, 1, 67, 75
1, 570368, Note_on_c, 0, 86, 0
1, 570368, Note_on_c, 1, 67, 0
1, 570368, Note_on_c, 1, 71, 73
1, 570624, Note_on_c, 0, 86, 77
1, 570880, Note_on_c, 0, 86, 0
1, 570880, Note_on_c, 0, 83, 75
1, 571136, Note_on_c, 0, 83, 0
1, 571136, Note_on_c, 0, 79, 74
1, 571392, Note_on_c, 0, 79, 0
1, 571392, Note_on_c, 0, 76, 72
1, 571392, Note_on_c, 1, 71, 0
1, 571648, Note_on_c, 1, 60, 66
1, 571904, Note_on_c, 1, 60, 0
1, 571904, Note_on_c, 1, 64, 64
1, 572160, Note_on_c, 1, 64, 0
1, 572160, Note_on_c, 1, 67, 62
1, 572416, Note_on_c, 0, 76, 0
1, 572416, Note_on_c, 1, 67, 0
1, 572416, Note_on_c, 1, 72, 60
1, 572672, Note_on_c, 0, 84, 76
1, 572928, Note_on_c, 0, 84, 0
1, 572928, Note_on_c, 0, 79, 77
1, 573184, Note_on_c, 0, 79, 0
1, 573184, Note_on_c, 0, 76, 78
1, 573440, Note_on_c, 0, 76, 0
1, 573440, Note_on_c, 0, 74, 79
1, 573440, Note_on_c, 1, 72, 0
1, 573952, Note_on_c, 1, 65, 58
1, 573952, Note_on_c, 1, 69, 58
1, 574464, Note_on_c, 1, 65, 0
1, 574464, Note_on_c, 1, 69, 0
1, 574464, Note_on_c, 1, 65, 58
1, 574464, Note_on_c, 1, 69, 58
1, 574976, Note_on_c, 1, 65, 0
1, 574976, Note_on_c, 1, 69, 0
1, 574976, Note_on_c, 1, 65, 60
1, 574976, Note_on_c, 1, 69, 60
1, 575408, Note_on_c, 0, 73, 80
1, 575488, Note_on_c, 0, 74, 0
1, 575488, Note_on_c, 0, 73, 0
1, 575488, Note_on_c, 0, 74, 80
1, 575488, Note_on_c, 1, 65, 0
1, 575488, Note_on_c, 1, 69, 0
1, 575488, Note_on_c, 1, 65, 61
1, 575488, Note_on_c, 1, 69, 61
1, 576000, Note_on_c, 1, 65, 0
1, 576000, Note_on_c, 1, 69, 0
1, 576000, Note_on_c, 1, 65, 60
1, 576000, Note_on_c, 1, 69, 60
1, 576432, Note_on_c, 0, 73, 82
1, 576512, Note_on_c, 0, 74, 0
1, 576512, Note_on_c, 0, 73, 0
1, 576512, Note_on_c, 0, 74, 82
1, 576512, Note_on_c, 1, 65, 0
1, 576512, Note_on_c, 1, 69, 0
1, 576512, Note_on_c, 1, 65, 62
1, 576512, Note_on_c, 1, 69, 62
1, 577024, Note_on_c, 1, 65, 0
1, 577024, Note_on_c, 1, 69, 0
1, 577024, Note_on_c, 1, 65, 63
1, 577024, Note_on_c, 1, 69, 63
1, 577536, Note_on_c, 0, 74, 0
1, 577536, Note_on_c, 0, 81, 84
1, 577536, Note_on_c, 1, 65, 0
1, 577536, Note_on_c, 1, 69, 0
1, 578048, Note_on_c, 1, 54, 65
1, 578048, Note_on_c, 1, 60, 65
1, 578048, Note_on_c, 1, 63, 65
1, 578560, Note_on_c, 1, 54, 0
1, 578560, Note_on_c, 1, 60, 0
1, 578560, Note_on_c, 1, 63, 0
1, 578560, Note_on_c, 1, 54, 66
1, 578560, Note_on_c, 1, 60, 66
1, 578560, Note_on_c, 1, 63, 66
1, 579072, Note_on_c, 1, 54, 0
1, 579072, Note_on_c, 1, 60, 0
1, 579072, Note_on_c, 1, 63, 0
1, 579072, Note_on_c, 1, 54, 68
1, 579072, Note_on_c, 1, 60, 68
1, 579072, Note_on_c, 1, 63, 68
1, 579504, Note_on_c, 0, 80, 83
1, 579584, Note_on_c, 0, 81, 0
1, 579584, Note_on_c, 0, 80, 0
1, 579584, Note_on_c, 0, 81, 86
1, 579584, Note_on_c, 1, 54, 0
1, 579584, Note_on_c, 1, 60, 0
1, 579584, Note_on_c, 1, 63, 0
1, 579584, Note_on_c, 1, 54, 69
1, 579584, Note_on_c, 1, 60, 69
1, 579584, Note_on_c, 1, 63, 69
1, 580096, Note_on_c, 1, 54, 0
1, 580096, Note_on_c, 1, 60, 0
1, 580096, Note_on_c, 1, 63, 0
1, 580096, Note_on_c, 1, 54, 70
1, 580096, Note_on_c, 1, 60, 70
1, 580096, Note_on_c, 1, 63, 70
1, 580528, Note_on_c, 0, 80, 83
1, 580608, Note_on_c, 0, 81, 0
1, 580608, Note_on_c, 0, 80, 0
1, 580608, Note_on_c, 0, 81, 88
1, 580608, Note_on_c, 1, 54, 0
1, 580608, Note_on_c, 1, 60, 0
1, 580608, Note_on_c, 1, 63, 0
1, 580608, Note_on_c, 1, 54, 71
1, 580608, Note_on_c, 1, 60, 71
1, 580608, Note_on_c, 1, 63, 71
1, 581120, Note_on_c, 1, 54, 0
1, 581120, Note_on_c, 1, 60, 0
1, 581120, Note_on_c, 1, 63, 0
1, 581120, Note_on_c, 1, 54, 73
1, 581120, Note_on_c, 1, 60, 73
1, 581120, Note_on_c, 1, 63, 73
1, 581632, Note_on_c, 0, 81, 0
1, 581632, Note_on_c, 0, 79, 89
1, 581632, Note_on_c, 1, 54, 0
1, 581632, Note_on_c, 1, 60, 0
1, 581632, Note_on_c, 1, 63, 0
1, 581632, Note_on_c, 1, 55, 77
1, 581888, Note_on_c, 1, 64, 77
1, 582144, Note_on_c, 0, 79, 0
1, 582144, Note_on_c, 0, 81, 92
1, 582144, Note_on_c, 1, 64, 0
1, 582144, Note_on_c, 1, 60, 78
1, 582400, Note_on_c, 0, 81, 0
1, 582400, Note_on_c, 0, 83, 93
1, 582400, Note_on_c, 1, 60, 0
1, 582400, Note_on_c, 1, 64, 79
1, 582656, Note_on_c, 0, 83, 0
1, 582656, Note_on_c, 0, 84, 96
1, 582656, Note_on_c, 1, 55, 0
1, 582656, Note_on_c, 1, 55, 79
1, 582656, Note_on_c, 1, 64, 0
1, 582912, Note_on_c, 0, 84, 0
1, 582912, Note_on_c, 0, 86, 97
1, 582912, Note_on_c, 1, 64, 82
1, 583168, Note_on_c, 0, 86, 0
1, 583168, Note_on_c, 0, 88, 97
1, 583168, Note_on_c, 1, 64, 0
1, 583168, Note_on_c, 1, 60, 84
1, 583424, Note_on_c, 0, 88, 0
1, 583424, Note_on_c, 0, 86, 98
1, 583424, Note_on_c, 1, 60, 0
1, 583424, Note_on_c, 1, 64, 86
1, 583680, Note_on_c, 0, 86, 0
1, 583680, Note_on_c, 0, 84, 99
1, 583680, Note_on_c, 1, 55, 0
1, 583680, Note_on_c, 1, 55, 79
1, 583680, Note_on_c, 1, 64, 0
1, 583936, Note_on_c, 0, 84, 0
1, 583936, Note_on_c, 0, 83, 98
1, 583936, Note_on_c, 1, 64, 86
1, 584192, Note_on_c, 0, 83, 0
1, 584192, Note_on_c, 0, 81, 98
1, 584192, Note_on_c, 1, 64, 0
1, 584192, Note_on_c, 1, 60, 84
1, 584448, Note_on_c, 0, 81, 0
1, 584448, Note_on_c, 0, 79, 97
1, 584448, Note_on_c, 1, 60, 0
1, 584448, Note_on_c, 1, 64, 82
1, 584704, Note_on_c, 0, 79, 0
1, 584704, Note_on_c, 0, 77, 95
1, 584704, Note_on_c, 1, 55, 0
1, 584704, Note_on_c, 1, 55, 77
1, 584704, Note_on_c, 1, 64, 0
1, 584960, Note_on_c, 0, 77, 0
1, 584960, Note_on_c, 0, 76, 94
1, 584960, Note_on_c, 1, 64, 79
1, 585216, Note_on_c, 0, 76, 0
1, 585216, Note_on_c, 0, 74, 94
1, 585216, Note_on_c, 1, 64, 0
1, 585216, Note_on_c, 1, 60, 78
1, 585472, Note_on_c, 0, 74, 0
1, 585472, Note_on_c, 0, 72, 92
1, 585472, Note_on_c, 1, 60, 0
1, 585472, Note_on_c, 1, 64, 77
1, 585728, Note_on_c, 0, 72, 0
1, 585728, Note_on_c, 0, 74, 90
1, 585728, Note_on_c, 1, 55, 0
1, 585728, Note_on_c, 1, 64, 0
1, 585728, Note_on_c, 1, 55, 77
1, 585984, Note_on_c, 0, 74, 0
1, 585984, Note_on_c, 0, 76, 89
1, 585984, Note_on_c, 1, 65, 77
1, 586112, Note_on_c, 0, 76, 0
1, 586112, Note_on_c, 0, 74, 88
1, 586240, Note_on_c, 0, 74, 0
1, 586240, Note_on_c, 0, 76, 86
1, 586240, Note_on_c, 1, 65, 0
1, 586240, Note_on_c, 1, 59, 75
1, 586368, Note_on_c, 0, 76, 0
1, 586368, Note_on_c, 0, 74, 86
1, 586496, Note_on_c, 0, 74, 0
1, 586496, Note_on_c, 0, 76, 85
1, 586496, Note_on_c, 1, 59, 0
1, 586496, Note_on_c, 1, 65, 74
1, 586624, Note_on_c, 0, 76, 0
1, 586624, Note_on_c, 0, 74, 85
1, 586752, Note_on_c, 0, 74, 0
1, 586752, Note_on_c, 0, 76, 84
1, 586752, Note_on_c, 1, 55, 0
1, 586752, Note_on_c, 1, 55, 72
1, 586752, Note_on_c, 1, 65, 0
1, 586880, Note_on_c, 0, 76, 0
1, 586880, Note_on_c, 0, 74, 84
1, 587008, Note_on_c, 0, 74, 0
1, 587008, Note_on_c, 0, 76, 81
1, 587008, Note_on_c, 1, 65, 72
1, 587136, Note_on_c, 0, 76, 0
1, 587136, Note_on_c, 0, 74, 81
1, 587264, Note_on_c, 0, 74, 0
1, 587264, Note_on_c, 0, 76, 78
1, 587264, Note_on_c, 1, 65, 0
1, 587264, Note_on_c, 1, 59, 72
1, 587392, Note_on_c, 0, 76, 0
1, 587392, Note_on_c, 0, 74, 77
1, 587520, Note_on_c, 0, 74, 0
1, 587520, Note_on_c, 0, 76, 77
1, 587520, Note_on_c, 1, 59, 0
1, 587520, Note_on_c, 1, 65, 70
1, 587648, Note_on_c, 0, 76, 0
1, 587648, Note_on_c, 0, 74, 77
1, 587776, Note_on_c, 0, 74, 0
1, 587776, Note_on_c, 0, 76, 76
1, 587776, Note_on_c, 1, 55, 0
1, 587776, Note_on_c, 1, 55, 68
1, 587776, Note_on_c, 1, 65, 0
1, 587904, Note_on_c, 0, 76, 0
1, 587904, Note_on_c, 0, 74, 75
1, 588032, Note_on_c, 0, 74, 0
1, 588032, Note_on_c, 0, 76, 73
1, 588032, Note_on_c, 1, 65, 69
1, 588160, Note_on_c, 0, 76, 0
1, 588160, Note_on_c, 0, 74, 73
1, 588288, Note_on_c, 0, 74, 0
1, 588288, Note_on_c, 0, 76, 73
1, 588288, Note_on_c, 1, 65, 0
1, 588288, Note_on_c, 1, 59, 68
1, 588416, Note_on_c, 0, 76, 0
1, 588416, Note_on_c, 0, 74, 73
1, 588544, Note_on_c, 0, 74, 0
1, 588544, Note_on_c, 0, 76, 72
1, 588544, Note_on_c, 1, 59, 0
1, 588544, Note_on_c, 1, 65, 67
1, 588672, Note_on_c, 0, 76, 0
1, 588672, Note_on_c, 0, 74, 72
1, 588800, Note_on_c, 0, 74, 0
1, 588800, Note_on_c, 0, 76, 70
1, 588800, Note_on_c, 1, 55, 0
1, 588800, Note_on_c, 1, 55, 63
1, 588800, Note_on_c, 1, 65, 0
1, 588928, Note_on_c, 0, 76, 0
1, 588928, Note_on_c, 0, 74, 70
1, 589056, Note_on_c, 0, 74, 0
1, 589056, Note_on_c, 0, 76, 70
1, 589056, Note_on_c, 1, 65, 65
1, 589184, Note_on_c, 0, 76, 0
1, 589184, Note_on_c, 0, 74, 70
1, 589312, Note_on_c, 0, 74, 0
1, 589312, Note_on_c, 0, 76, 68
1, 589312, Note_on_c, 1, 65, 0
1, 589312, Note_on_c, 1, 59, 64
1, 589440, Note_on_c, 0, 76, 0
1, 589440, Note_on_c, 0, 74, 67
1, 589568, Note_on_c, 0, 74, 0
1, 589568, Note_on_c, 0, 72, 66
1, 589568, Note_on_c, 1, 59, 0
1, 589568, Note_on_c, 1, 65, 62
1, 589696, Note_on_c, 0, 72, 0
1, 589696, Note_on_c, 0, 74, 65
1, 589824, Note_on_c, 0, 74, 0
1, 589824, Note_on_c, 0, 72, 65
1, 589824, Note_on_c, 1, 55, 0
1, 589824, Note_on_c, 1, 65, 0
1, 589824, Note_on_c, 1, 60, 60
1, 589824, Note_on_c, 1, 64, 60
1, 590848, Note_on_c, 0, 72, 0
1, 590848, Note_on_c, 0, 72, 63
1, 590848, Note_on_c, 1, 60, 0
1, 590848, Note_on_c, 1, 64, 0
1, 591104, Note_on_c, 0, 72, 0
1, 591104, Note_on_c, 0, 67, 64
1, 591360, Note_on_c, 0, 67, 0
1, 591360, Note_on_c, 0, 72, 65
1, 591616, Note_on_c, 0, 72, 0
1, 591616, Note_on_c, 0, 76, 68
1, 591872, Note_on_c, 0, 76, 0
1, 591872, Note_on_c, 0, 79, 70
1, 592128, Note_on_c, 0, 79, 0
1, 592128, Note_on_c, 0, 76, 73
1, 592384, Note_on_c, 0, 76, 0
1, 592384, Note_on_c, 0, 72, 75
1, 592640, Note_on_c, 0, 72, 0
1, 592640, Note_on_c, 0, 76, 77
1, 592896, Note_on_c, 0, 76, 0
1, 592896, Note_on_c, 0, 77, 79
1, 592896, Note_on_c, 1, 55, 73
1, 592896, Note_on_c, 1, 62, 73
1, 592896, Note_on_c, 1, 65, 73
1, 593152, Note_on_c, 0, 77, 0
1, 593152, Note_on_c, 0, 74, 82
1, 593408, Note_on_c, 0, 74, 0
1, 593408, Note_on_c, 0, 71, 78
1, 593664, Note_on_c, 0, 71, 0
1, 593664, Note_on_c, 0, 74, 75
1, 593920, Note_on_c, 0, 74, 0
1, 593920, Note_on_c, 0, 72, 75
1, 593920, Note_on_c, 1, 55, 0
1, 593920, Note_on_c, 1, 62, 0
1, 593920, Note_on_c, 1, 65, 0
1, 593920, Note_on_c, 1, 60, 63
1, 593920, Note_on_c, 1, 64, 63
1, 594944, Note_on_c, 0, 72, 0
1, 594944, Note_on_c, 0, 60, 60
1, 594944, Note_on_c, 1, 60, 0
1, 594944, Note_on_c, 1, 64, 0
1, 595200, Note_on_c, 0, 60, 0
1, 595200, Note_on_c, 0, 55, 62
1, 595456, Note_on_c, 0, 55, 0
1, 595456, Note_on_c, 0, 60, 66
1, 595712, Note_on_c, 0, 60, 0
1, 595712, Note_on_c, 0, 64, 67
1, 595968, Note_on_c, 0, 64, 0
1, 595968, Note_on_c, 0, 67, 70
1, 596224, Note_on_c, 0, 67, 0
1, 596224, Note_on_c, 0, 64, 73
1, 596480, Note_on_c, 0, 64, 0
1, 596480, Note_on_c, 0, 60, 75
1, 596736, Note_on_c, 0, 60, 0
1, 596736, Note_on_c, 0, 64, 76
1, 596992, Note_on_c, 0, 64, 0
1, 596992, Note_on_c, 0, 65, 79
1, 596992, Note_on_c, 1, 43, 69
1, 596992, Note_on_c, 1, 50, 69
1, 596992, Note_on_c, 1, 53, 69
1, 597248, Note_on_c, 0, 65, 0
1, 597248, Note_on_c, 0, 62, 79
1, 597504, Note_on_c, 0, 62, 0
1, 597504, Note_on_c, 0, 59, 76
1, 597760, Note_on_c, 0, 59, 0
1, 597760, Note_on_c, 0, 62, 74
1, 598016, Note_on_c, 0, 62, 0
1, 598016, Note_on_c, 0, 60, 71
1, 598016, Note_on_c, 1, 43, 0
1, 598016, Note_on_c, 1, 50, 0
1, 598016, Note_on_c, 1, 53, 0
1, 598016, Note_on_c, 1, 48, 58
1, 598016, Note_on_c, 1, 52, 58
1, 599040, Note_on_c, 0, 60, 0
1, 599040, Note_on_c, 0, 76, 94
1, 599040, Note_on_c, 0, 79, 94
1, 599040, Note_on_c, 0, 84, 94
1, 599040, Note_on_c, 1, 48, 0
1, 599040, Note_on_c, 1, 52, 0
1, 599040, Note_on_c, 1, 60, 72
1, 599142, Note_on_c, 0, 76, 0
1, 599245, Note_on_c, 0, 79, 0
1, 599347, Note_on_c, 0, 84, 0
1, 599347, Note_on_c, 1, 60, 0
1, 600064, Note_on_c, 0, 72, 86
1, 600064, Note_on_c, 1, 36, 68
1, 600064, Note_on_c, 1, 48, 68
1, 600218, Note_on_c, 1, 36, 0
1, 600371, Note_on_c, 0, 72, 0
1, 600371, Note_on_c, 1, 48, 0
1, 610304, Note_on_c, 0, 71, 54
1, 610304, Note_on_c, 1, 55, 44
1, 610560, Note_on_c, 1, 55, 0
1, 610560, Note_on_c, 1, 62, 44
1, 610816, Note_on_c, 1, 62, 0
1, 610816, Note_on_c, 1, 59, 44
1, 611072, Note_on_c, 1, 59, 0
1, 611072, Note_on_c, 1, 62, 45
1, 611328, Note_on_c, 1, 62, 0
1, 611328, Note_on_c, 1, 55, 45
1, 611584, Note_on_c, 1, 55, 0
1, 611584, Note_on_c, 1, 62, 46
1, 611840, Note_on_c, 1, 62, 0
1, 611840, Note_on_c, 1, 59, 46
1, 612096, Note_on_c, 1, 59, 0
1, 612096, Note_on_c, 1, 62, 47
1, 612352, Note_on_c, 0, 71, 0
1, 612352, Note_on_c, 0, 72, 66
1, 612352, Note_on_c, 1, 62, 0
1, 612352, Note_on_c, 1, 57, 47
1, 612608, Note_on_c, 0, 72, 0
1, 612608, Note_on_c, 0, 71, 61
1, 612608, Note_on_c, 1, 57, 0
1, 612608, Note_on_c, 1, 62, 48
1, 612864, Note_on_c, 0, 71, 0
1, 612864, Note_on_c, 0, 69, 63
1, 612864, Note_on_c, 1, 62, 0
1, 612864, Note_on_c, 1, 60, 48
1, 613120, Note_on_c, 0, 69, 0
1, 613120, Note_on_c, 0, 71, 63
1, 613120, Note_on_c, 1, 60, 0
1, 613120, Note_on_c, 1, 62, 48
1, 613376, Note_on_c, 0, 71, 0
1, 613376, Note_on_c, 0, 72, 64
1, 613376, Note_on_c, 1, 62, 0
1, 613376, Note_on_c, 1, 55, 49
1, 613632, Note_on_c, 1, 55, 0
1, 613632, Note_on_c, 1, 62, 48
1, 613888, Note_on_c, 1, 62, 0
1, 613888, Note_on_c, 1, 59, 46
1, 614144, Note_on_c, 0, 72, 0
1, 614144, Note_on_c, 0, 71, 57
1, 614144, Note_on_c, 1, 59, 0
1, 614144, Note_on_c, 1, 62, 45
1, 614400, Note_on_c, 0, 71, 0
1, 614400, Note_on_c, 0, 67, 54
1, 614400, Note_on_c, 1, 62, 0
1, 614400, Note_on_c, 1, 55, 44
1, 614656, Note_on_c, 1, 55, 0
1, 614656, Note_on_c, 1, 62, 44
1, 614912, Note_on_c, 1, 62, 0
1, 614912, Note_on_c, 1, 59, 44
1, 615168, Note_on_c, 1, 59, 0
1, 615168, Note_on_c, 1, 62, 45
1, 615424, Note_on_c, 0, 67, 0
1, 615424, Note_on_c, 1, 62, 0
1, 615424, Note_on_c, 1, 55, 46
1, 615680, Note_on_c, 1, 55, 0
1, 615680, Note_on_c, 1, 62, 47
1, 615936, Note_on_c, 1, 62, 0
1, 615936, Note_on_c, 1, 59, 47
1, 616192, Note_on_c, 1, 59, 0
1, 616192, Note_on_c, 1, 62, 48
1, 616448, Note_on_c, 0, 79, 67
1, 616448, Note_on_c, 1, 62, 0
1, 616448, Note_on_c, 1, 55, 51
1, 616704, Note_on_c, 1, 55, 0
1, 616704, Note_on_c, 1, 64, 50
1, 616960, Note_on_c, 1, 64, 0
1, 616960, Note_on_c, 1, 60, 50
1, 617216, Note_on_c, 1, 60, 0
1, 617216, Note_on_c, 1, 64, 50
1, 617472, Note_on_c, 1, 64, 0
1, 617472, Note_on_c, 1, 55, 50
1, 617728, Note_on_c, 1, 55, 0
1, 617728, Note_on_c, 1, 64, 50
1, 617984, Note_on_c, 0, 79, 0
1, 617984, Note_on_c, 0, 81, 69
1, 617984, Note_on_c, 1, 64, 0
1, 617984, Note_on_c, 1, 60, 49
1, 618240, Note_on_c, 0, 81, 0
1, 618240, Note_on_c, 0, 79, 63
1, 618240, Note_on_c, 1, 60, 0
1, 618240, Note_on_c, 1, 64, 49
1, 618496, Note_on_c, 0, 79, 0
1, 618496, Note_on_c, 0, 78, 68
1, 618496, Note_on_c, 1, 64, 0
1, 618496, Note_on_c, 1, 55, 48
1, 618752, Note_on_c, 0, 78, 0
1, 618752, Note_on_c, 0, 76, 62
1, 618752, Note_on_c, 1, 55, 0
1, 618752, Note_on_c, 1, 61, 47
1, 619008, Note_on_c, 0, 76, 0
1, 619008, Note_on_c, 0, 74, 62
1, 619008, Note_on_c, 1, 61, 0
1, 619008, Note_on_c, 1, 58, 47
1, 619264, Note_on_c, 0, 74, 0
1, 619264, Note_on_c, 0, 73, 61
1, 619264, Note_on_c, 1, 58, 0
1, 619264, Note_on_c, 1, 61, 46
1, 619520, Note_on_c, 0, 73, 0
1, 619520, Note_on_c, 0, 74, 61
1, 619520, Note_on_c, 1, 61, 0
1, 619520, Note_on_c, 1, 55, 45
1, 619776, Note_on_c, 1, 55, 0
1, 619776, Note_on_c, 1, 62, 45
1, 620032, Note_on_c, 1, 62, 0
1, 620032, Note_on_c, 1, 59, 44
1, 620288, Note_on_c, 0, 74, 0
1, 620288, Note_on_c, 0, 71, 59
1, 620288, Note_on_c, 1, 59, 0
1, 620288, Note_on_c, 1, 62, 44
1, 620544, Note_on_c, 0, 71, 0
1, 620544, Note_on_c, 0, 67, 59
1, 620544, Note_on_c, 1, 62, 0
1, 620544, Note_on_c, 1, 55, 44
1, 620800, Note_on_c, 1, 55, 0
1, 620800, Note_on_c, 1, 62, 43
1, 621056, Note_on_c, 1, 62, 0
1, 621056, Note_on_c, 1, 59, 43
1, 621312, Note_on_c, 1, 59, 0
1, 621312, Note_on_c, 1, 62, 44
1, 621568, Note_on_c, 0, 67, 0
1, 621568, Note_on_c, 1, 62, 0
1, 621568, Note_on_c, 1, 55, 46
1, 621824, Note_on_c, 1, 55, 0
1, 621824, Note_on_c, 1, 62, 48
1, 622080, Note_on_c, 1, 62, 0
1, 622080, Note_on_c, 1, 59, 49
1, 622336, Note_on_c, 1, 59, 0
1, 622336, Note_on_c, 1, 62, 50
1, 622592, Note_on_c, 0, 72, 70
1, 622592, Note_on_c, 1, 62, 0
1, 622592, Note_on_c, 1, 57, 56
1, 622848, Note_on_c, 1, 57, 0
1, 622848, Note_on_c, 1, 62, 35
1, 623104, Note_on_c, 1, 62, 0
1, 623104, Note_on_c, 1, 60, 34
1, 623360, Note_on_c, 0, 72, 0
1, 623360, Note_on_c, 0, 69, 47
1, 623360, Note_on_c, 1, 60, 0
1, 623360, Note_on_c, 1, 62, 32
1, 623616, Note_on_c, 0, 69, 0
1, 623616, Note_on_c, 0, 66, 45
1, 623616, Note_on_c, 1, 62, 0
1, 623616, Note_on_c, 1, 57, 30
1, 623770, Note_on_c, 0, 66, 0
1, 623872, Note_on_c, 1, 57, 0
1, 623872, Note_on_c, 1, 62, 30
1, 624128, Note_on_c, 0, 69, 45
1, 624128, Note_on_c, 1, 62, 0
1, 624128, Note_on_c, 1, 60, 31
1, 624282, Note_on_c, 0, 69, 0
1, 624384, Note_on_c, 1, 60, 0
1, 624384, Note_on_c, 1, 62, 32
1, 624640, Note_on_c, 0, 71, 47
1, 624640, Note_on_c, 1, 62, 0
1, 624640, Note_on_c, 1, 57, 33
1, 624794, Note_on_c, 0, 71, 0
1, 624896, Note_on_c, 1, 57, 0
1, 624896, Note_on_c, 1, 62, 34
1, 625152, Note_on_c, 0, 72, 50
1, 625152, Note_on_c, 1, 62, 0
1, 625152, Note_on_c, 1, 60, 35
1, 625306, Note_on_c, 0, 72, 0
1, 625408, Note_on_c, 1, 60, 0
1, 625408, Note_on_c, 1, 62, 35
1, 625664, Note_on_c, 0, 74, 50
1, 625664, Note_on_c, 1, 62, 0
1, 625664, Note_on_c, 1, 55, 42
1, 625920, Note_on_c, 1, 62, 41
1, 626176, Note_on_c, 1, 62, 0
1, 626176, Note_on_c, 1, 59, 41
1, 626432, Note_on_c, 0, 74, 0
1, 626432, Note_on_c, 0, 71, 54
1, 626432, Note_on_c, 1, 59, 0
1, 626432, Note_on_c, 1, 62, 41
1, 626688, Note_on_c, 0, 71, 0
1, 626688, Note_on_c, 0, 79, 55
1, 626688, Note_on_c, 1, 55, 0
1, 626688, Note_on_c, 1, 52, 45
1, 626688, Note_on_c, 1, 62, 0
1, 626944, Note_on_c, 1, 59, 41
1, 627200, Note_on_c, 1, 59, 0
1, 627200, Note_on_c, 1, 55, 41
1, 627456, Note_on_c, 1, 55, 0
1, 627456, Note_on_c, 1, 59, 41
1, 627712, Note_on_c, 0, 79, 0
1, 627712, Note_on_c, 1, 52, 0
1, 627712, Note_on_c, 1, 47, 48
1, 627712, Note_on_c, 1, 59, 0
1, 627968, Note_on_c, 1, 55, 41
1, 628224, Note_on_c, 1, 55, 0
1, 628224, Note_on_c, 1, 50, 41
1, 628480, Note_on_c, 1, 50, 0
1, 628480, Note_on_c, 1, 55, 41
1, 628736, Note_on_c, 0, 81, 92
1, 628736, Note_on_c, 1, 47, 0
1, 628736, Note_on_c, 1, 55, 0
1, 628736, Note_on_c, 1, 52, 64
1, 628736, Note_on_c, 1, 48, 60
1, 628992, Note_on_c, 0, 81, 0
1, 628992, Note_on_c, 0, 79, 69
1, 629248, Note_on_c, 0, 79, 0
1, 629248, Note_on_c, 0, 78, 60
1, 629504, Note_on_c, 0, 78, 0
1, 629504, Note_on_c, 0, 79, 59
1, 629760, Note_on_c, 0, 79, 0
1, 629760, Note_on_c, 0, 78, 59
1, 629760, Note_on_c, 1, 52, 0
1, 629760, Note_on_c, 1, 55, 52
1, 630016, Note_on_c, 0, 78, 0
1, 630016, Note_on_c, 0, 76, 58
1, 630272, Note_on_c, 0, 76, 0
1, 630272, Note_on_c, 0, 75, 57
1, 630528, Note_on_c, 0, 75, 0
1, 630528, Note_on_c, 0, 76, 56
1, 630784, Note_on_c, 0, 76, 0
1, 630784, Note_on_c, 0, 74, 55
1, 630784, Note_on_c, 1, 48, 0
1, 630784, Note_on_c, 1, 52, 48
1, 631040, Note_on_c, 0, 74, 0
1, 631040, Note_on_c, 0, 72, 55
1, 631296, Note_on_c, 0, 72, 0
1, 631296, Note_on_c, 0, 71, 53
1, 631552, Note_on_c, 0, 71, 0
1, 631552, Note_on_c, 0, 72, 53
1, 631808, Note_on_c, 0, 72, 0
1, 631808, Note_on_c, 0, 71, 52
1, 631808, Note_on_c, 1, 55, 0
1, 631808, Note_on_c, 1, 52, 0
1, 631808, Note_on_c, 1, 55, 45
1, 631808, Note_on_c, 1, 50, 44
1, 632576, Note_on_c, 0, 71, 0
1, 632576, Note_on_c, 0, 72, 50
1, 632704, Note_on_c, 0, 72, 0
1, 632704, Note_on_c, 0, 71, 50
1, 632832, Note_on_c, 0, 71, 0
1, 632832, Note_on_c, 0, 69, 49
1, 632832, Note_on_c, 1, 55, 0
1, 632832, Note_on_c, 1, 54, 44
1, 633344, Note_on_c, 0, 69, 0
1, 633344, Note_on_c, 0, 74, 59
1, 633498, Note_on_c, 0, 74, 0
1, 633856, Note_on_c, 0, 73, 65
1, 633856, Note_on_c, 1, 54, 0
1, 633856, Note_on_c, 1, 50, 0
1, 634010, Note_on_c, 0, 73, 0
1, 634368, Note_on_c, 0, 72, 70
1, 634522, Note_on_c, 0, 72, 0
1, 634880, Note_on_c, 0, 71, 77
1, 634880, Note_on_c, 1, 55, 55
1, 635136, Note_on_c, 1, 55, 0
1, 635136, Note_on_c, 1, 62, 55
1, 635392, Note_on_c, 1, 62, 0
1, 635392, Note_on_c, 1, 59, 56
1, 635648, Note_on_c, 1, 59, 0
1, 635648, Note_on_c, 1, 62, 57
1, 635904, Note_on_c, 1, 62, 0
1, 635904, Note_on_c, 1, 55, 57
1, 636160, Note_on_c, 0, 71, 0
1, 636160, Note_on_c, 0, 67, 79
1, 636160, Note_on_c, 1, 55, 0
1, 636160, Note_on_c, 1, 62, 59
1, 636416, Note_on_c, 0, 67, 0
1, 636416, Note_on_c, 0, 71, 80
1, 636416, Note_on_c, 1, 62, 0
1, 636416, Note_on_c, 1, 59, 59
1, 636672, Note_on_c, 0, 71, 0
1, 636672, Note_on_c, 0, 74, 80
1, 636672, Note_on_c, 1, 59, 0
1, 636672, Note_on_c, 1, 62, 60
1, 636928, Note_on_c, 0, 74, 0
1, 636928, Note_on_c, 0, 72, 81
1, 636928, Note_on_c, 1, 62, 0
1, 636928, Note_on_c, 1, 57, 60
1, 637184, Note_on_c, 0, 72, 0
1, 637184, Note_on_c, 0, 69, 82
1, 637184, Note_on_c, 1, 57, 0
1, 637184, Note_on_c, 1, 62, 60
1, 637440, Note_on_c, 0, 69, 0
1, 637440, Note_on_c, 0, 72, 82
1, 637440, Note_on_c, 1, 62, 0
1, 637440, Note_on_c, 1, 60, 61
1, 637696, Note_on_c, 0, 72, 0
1, 637696, Note_on_c, 0, 76, 82
1, 637696, Note_on_c, 1, 60, 0
1, 637696, Note_on_c, 1, 62, 61
1, 637952, Note_on_c, 0, 76, 0
1, 637952, Note_on_c, 0, 74, 83
1, 637952, Note_on_c, 1, 62, 0
1, 637952, Note_on_c, 1, 55, 62
1, 638208, Note_on_c, 1, 55, 0
1, 638208, Note_on_c, 1, 62, 60
1, 638464, Note_on_c, 1, 62, 0
1, 638464, Note_on_c, 1, 59, 59
1, 638720, Note_on_c, 0, 74, 0
1, 638720, Note_on_c, 0, 71, 72
1, 638720, Note_on_c, 1, 59, 0
1, 638720, Note_on_c, 1, 62, 57
1, 638976, Note_on_c, 0, 71, 0
1, 638976, Note_on_c, 0, 67, 71
1, 638976, Note_on_c, 1, 62, 0
1, 638976, Note_on_c, 1, 55, 56
1, 639053, Note_on_c, 0, 67, 0
1, 639232, Note_on_c, 0, 67, 72
1, 639232, Note_on_c, 1, 55, 0
1, 639232, Note_on_c, 1, 62, 56
1, 639309, Note_on_c, 0, 67, 0
1, 639488, Note_on_c, 0, 69, 73
1, 639488, Note_on_c, 1, 62, 0
1, 639488, Note_on_c, 1, 59, 57
1, 639565, Note_on_c, 0, 69, 0
1, 639744, Note_on_c, 0, 71, 75
1, 639744, Note_on_c, 1, 59, 0
1, 639744, Note_on_c, 1, 62, 57
1, 639821, Note_on_c, 0, 71, 0
1, 640000, Note_on_c, 0, 72, 76
1, 640000, Note_on_c, 1, 62, 0
1, 640000, Note_on_c, 1, 55, 58
1, 640077, Note_on_c, 0, 72, 0
1, 640256, Note_on_c, 0, 74, 77
1, 640256, Note_on_c, 1, 55, 0
1, 640256, Note_on_c, 1, 62, 59
1, 640333, Note_on_c, 0, 74, 0
1, 640512, Note_on_c, 0, 76, 79
1, 640512, Note_on_c, 1, 62, 0
1, 640512, Note_on_c, 1, 59, 60
1, 640589, Note_on_c, 0, 76, 0
1, 640768, Note_on_c, 0, 78, 79
1, 640768, Note_on_c, 1, 59, 0
1, 640768, Note_on_c, 1, 62, 60
1, 640845, Note_on_c, 0, 78, 0
1, 641024, Note_on_c, 0, 79, 82
1, 641024, Note_on_c, 1, 62, 0
1, 641024, Note_on_c, 1, 55, 62
1, 641280, Note_on_c, 0, 79, 0
1, 641280, Note_on_c, 0, 78, 83
1, 641280, Note_on_c, 1, 55, 0
1, 641280, Note_on_c, 1, 64, 62
1, 641536, Note_on_c, 0, 78, 0
1, 641536, Note_on_c, 0, 79, 84
1, 641536, Note_on_c, 1, 64, 0
1, 641536, Note_on_c, 1, 60, 63
1, 641792, Note_on_c, 0, 79, 0
1, 641792, Note_on_c, 0, 78, 85
1, 641792, Note_on_c, 1, 60, 0
1, 641792, Note_on_c, 1, 64, 63
1, 642048, Note_on_c, 0, 78, 0
1, 642048, Note_on_c, 0, 81, 90
1, 642048, Note_on_c, 1, 64, 0
1, 642048, Note_on_c, 1, 55, 63
1, 642304, Note_on_c, 0, 81, 0
1, 642304, Note_on_c, 0, 79, 85
1, 642304, Note_on_c, 1, 55, 0
1, 642304, Note_on_c, 1, 64, 62
1, 642560, Note_on_c, 0, 79, 0
1, 642560, Note_on_c, 0, 78, 82
1, 642560, Note_on_c, 1, 64, 0
1, 642560, Note_on_c, 1, 60, 60
1, 642816, Note_on_c, 0, 78, 0
1, 642816, Note_on_c, 0, 79, 82
1, 642816, Note_on_c, 1, 60, 0
1, 642816, Note_on_c, 1, 64, 60
1, 643072, Note_on_c, 0, 79, 0
1, 643072, Note_on_c, 0, 78, 86
1, 643072, Note_on_c, 1, 64, 0
1, 643072, Note_on_c, 1, 55, 60
1, 643328, Note_on_c, 0, 78, 0
1, 643328, Note_on_c, 0, 76, 79
1, 643328, Note_on_c, 1, 55, 0
1, 643328, Note_on_c, 1, 61, 60
1, 643584, Note_on_c, 0, 76, 0
1, 643584, Note_on_c, 0, 74, 79
1, 643584, Note_on_c, 1, 61, 0
1, 643584, Note_on_c, 1, 58, 59
1, 643840, Note_on_c, 0, 74, 0
1, 643840, Note_on_c, 0, 73, 77
1, 643840, Note_on_c, 1, 58, 0
1, 643840, Note_on_c, 1, 61, 58
1, 644096, Note_on_c, 0, 73, 0
1, 644096, Note_on_c, 0, 74, 77
1, 644096, Note_on_c, 1, 61, 0
1, 644096, Note_on_c, 1, 55, 57
1, 644352, Note_on_c, 0, 74, 0
1, 644352, Note_on_c, 0, 71, 76
1, 644352, Note_on_c, 1, 55, 0
1, 644352, Note_on_c, 1, 62, 56
1, 644608, Note_on_c, 0, 71, 0
1, 644608, Note_on_c, 0, 74, 74
1, 644608, Note_on_c, 1, 62, 0
1, 644608, Note_on_c, 1, 59, 54
1, 644864, Note_on_c, 0, 74, 0
1, 644864, Note_on_c, 0, 71, 74
1, 644864, Note_on_c, 1, 59, 0
1, 644864, Note_on_c, 1, 62, 54
1, 645120, Note_on_c, 0, 71, 0
1, 645120, Note_on_c, 0, 67, 73
1, 645120, Note_on_c, 1, 62, 0
1, 645120, Note_on_c, 1, 55, 54
1, 645376, Note_on_c, 1, 55, 0
1, 645376, Note_on_c, 1, 62, 54
1, 645632, Note_on_c, 1, 62, 0
1, 645632, Note_on_c, 1, 59, 55
1, 645888, Note_on_c, 1, 59, 0
1, 645888, Note_on_c, 1, 62, 56
1, 646144, Note_on_c, 0, 67, 0
1, 646144, Note_on_c, 1, 62, 0
1, 646144, Note_on_c, 1, 55, 58
1, 646400, Note_on_c, 1, 55, 0
1, 646400, Note_on_c, 1, 62, 58
1, 646656, Note_on_c, 1, 62, 0
1, 646656, Note_on_c, 1, 59, 59
1, 646912, Note_on_c, 1, 59, 0
1, 646912, Note_on_c, 1, 62, 60
1, 647168, Note_on_c, 0, 72, 83
1, 647168, Note_on_c, 1, 62, 0
1, 647168, Note_on_c, 1, 57, 60
1, 647424, Note_on_c, 0, 72, 0
1, 647424, Note_on_c, 0, 69, 79
1, 647424, Note_on_c, 1, 57, 0
1, 647424, Note_on_c, 1, 62, 59
1, 647680, Note_on_c, 0, 69, 0
1, 647680, Note_on_c, 0, 72, 76
1, 647680, Note_on_c, 1, 62, 0
1, 647680, Note_on_c, 1, 60, 57
1, 647936, Note_on_c, 0, 72, 0
1, 647936, Note_on_c, 0, 69, 72
1, 647936, Note_on_c, 1, 60, 0
1, 647936, Note_on_c, 1, 62, 56
1, 648192, Note_on_c, 0, 69, 0
1, 648192, Note_on_c, 0, 66, 71
1, 648192, Note_on_c, 1, 62, 0
1, 648192, Note_on_c, 1, 57, 56
1, 648269, Note_on_c, 0, 66, 0
1, 648448, Note_on_c, 0, 69, 72
1, 648448, Note_on_c, 1, 57, 0
1, 648448, Note_on_c, 1, 62, 57
1, 648704, Note_on_c, 0, 69, 0
1, 648704, Note_on_c, 0, 68, 74
1, 648704, Note_on_c, 1, 62, 0
1, 648704, Note_on_c, 1, 60, 60
1, 648960, Note_on_c, 0, 68, 0
1, 648960, Note_on_c, 0, 69, 74
1, 648960, Note_on_c, 1, 60, 0
1, 648960, Note_on_c, 1, 62, 61
1, 649216, Note_on_c, 0, 69, 0
1, 649216, Note_on_c, 0, 70, 76
1, 649216, Note_on_c, 1, 62, 0
1, 649216, Note_on_c, 1, 57, 63
1, 649472, Note_on_c, 0, 70, 0
1, 649472, Note_on_c, 0, 71, 77
1, 649472, Note_on_c, 1, 57, 0
1, 649472, Note_on_c, 1, 62, 64
1, 649728, Note_on_c, 0, 71, 0
1, 649728, Note_on_c, 0, 72, 79
1, 649728, Note_on_c, 1, 62, 0
1, 649728, Note_on_c, 1, 60, 67
1, 649984, Note_on_c, 0, 72, 0
1, 649984, Note_on_c, 0, 73, 79
1, 649984, Note_on_c, 1, 60, 0
1, 649984, Note_on_c, 1, 62, 68
1, 650240, Note_on_c, 0, 73, 0
1, 650240, Note_on_c, 0, 74, 79
1, 650240, Note_on_c, 1, 62, 0
1, 650240, Note_on_c, 1, 55, 68
1, 650496, Note_on_c, 0, 74, 0
1, 650496, Note_on_c, 0, 71, 82
1, 650496, Note_on_c, 1, 62, 70
1, 650752, Note_on_c, 0, 71, 0
1, 650752, Note_on_c, 0, 74, 84
1, 650752, Note_on_c, 1, 62, 0
1, 650752, Note_on_c, 1, 59, 71
1, 651008, Note_on_c, 0, 74, 0
1, 651008, Note_on_c, 0, 71, 85
1, 651008, Note_on_c, 1, 59, 0
1, 651008, Note_on_c, 1, 62, 71
1, 651264, Note_on_c, 0, 71, 0
1, 651264, Note_on_c, 0, 79, 86
1, 651264, Note_on_c, 1, 55, 0
1, 651264, Note_on_c, 1, 52, 70
1, 651264, Note_on_c, 1, 62, 0
1, 651520, Note_on_c, 1, 59, 72
1, 651776, Note_on_c, 1, 59, 0
1, 651776, Note_on_c, 1, 55, 73
1, 652032, Note_on_c, 1, 55, 0
1, 652032, Note_on_c, 1, 59, 73
1, 652288, Note_on_c, 0, 79, 0
1, 652288, Note_on_c, 1, 52, 0
1, 652288, Note_on_c, 1, 47, 73
1, 652288, Note_on_c, 1, 59, 0
1, 652544, Note_on_c, 0, 83, 91
1, 652544, Note_on_c, 1, 55, 74
1, 652800, Note_on_c, 0, 83, 0
1, 652800, Note_on_c, 0, 78, 92
1, 652800, Note_on_c, 1, 55, 0
1, 652800, Note_on_c, 1, 50, 75
1, 653056, Note_on_c, 0, 78, 0
1, 653056, Note_on_c, 0, 79, 93
1, 653056, Note_on_c, 1, 50, 0
1, 653056, Note_on_c, 1, 55, 75
1, 653312, Note_on_c, 0, 79, 0
1, 653312, Note_on_c, 0, 75, 98
1, 653312, Note_on_c, 1, 47, 0
1, 653312, Note_on_c, 1, 55, 0
1, 653312, Note_on_c, 1, 48, 74
1, 653568, Note_on_c, 0, 75, 0
1, 653568, Note_on_c, 0, 76, 92
1, 653568, Note_on_c, 1, 57, 75
1, 653824, Note_on_c, 0, 76, 0
1, 653824, Note_on_c, 0, 72, 91
1, 653824, Note_on_c, 1, 57, 0
1, 653824, Note_on_c, 1, 52, 74
1, 654080, Note_on_c, 0, 72, 0
1, 654080, Note_on_c, 0, 69, 89
1, 654080, Note_on_c, 1, 52, 0
1, 654080, Note_on_c, 1, 57, 73
1, 654336, Note_on_c, 0, 69, 0
1, 654336, Note_on_c, 0, 67, 89
1, 654336, Note_on_c, 1, 48, 0
1, 654336, Note_on_c, 1, 50, 70
1, 654336, Note_on_c, 1, 57, 0
1, 654592, Note_on_c, 1, 59, 72
1, 654848, Note_on_c, 1, 59, 0
1, 654848, Note_on_c, 1, 55, 72
1, 655104, Note_on_c, 0, 67, 0
1, 655104, Note_on_c, 0, 67, 86
1, 655104, Note_on_c, 1, 55, 0
1, 655104, Note_on_c, 1, 59, 70
1, 655360, Note_on_c, 0, 67, 0
1, 655360, Note_on_c, 0, 71, 90
1, 655360, Note_on_c, 0, 66, 87
1, 655360, Note_on_c, 1, 50, 0
1, 655360, Note_on_c, 1, 50, 68
1, 655360, Note_on_c, 1, 59, 0
1, 655616, Note_on_c, 0, 71, 0
1, 655616, Note_on_c, 0, 69, 83
1, 655616, Note_on_c, 1, 60, 69
1, 655872, Note_on_c, 0, 69, 0
1, 655872, Note_on_c, 0, 67, 83
1, 655872, Note_on_c, 1, 60, 0
1, 655872, Note_on_c, 1, 57, 69
1, 656128, Note_on_c, 0, 67, 0
1, 656128, Note_on_c, 0, 69, 82
1, 656128, Note_on_c, 1, 57, 0
1, 656128, Note_on_c, 1, 60, 69
1, 656384, Note_on_c, 0, 69, 0
1, 656384, Note_on_c, 0, 66, 0
1, 656384, Note_on_c, 0, 66, 78
1, 656384, Note_on_c, 0, 69, 78
1, 656384, Note_on_c, 1, 50, 0
1, 656384, Note_on_c, 1, 60, 0
1, 656384, Note_on_c, 1, 60, 67
1, 656384, Note_on_c, 1, 55, 64
1, 657408, Note_on_c, 0, 66, 0
1, 657408, Note_on_c, 0, 69, 0
1, 657408, Note_on_c, 0, 67, 72
1, 657408, Note_on_c, 1, 60, 0
1, 657408, Note_on_c, 1, 59, 62
1, 658432, Note_on_c, 0, 67, 0
1, 658432, Note_on_c, 1, 59, 0
1, 658432, Note_on_c, 1, 55, 0
1, 659456, Note_on_c, 0, 71, 54
1, 659456, Note_on_c, 1, 55, 44
1, 659712, Note_on_c, 1, 55, 0
1, 659712, Note_on_c, 1, 62, 44
1, 659968, Note_on_c, 1, 62, 0
1, 659968, Note_on_c, 1, 59, 44
1, 660224, Note_on_c, 1, 59, 0
1, 660224, Note_on_c, 1, 62, 45
1, 660480, Note_on_c, 1, 62, 0
1, 660480, Note_on_c, 1, 55, 45
1, 660736, Note_on_c, 1, 55, 0
1, 660736, Note_on_c, 1, 62, 46
1, 660992, Note_on_c, 1, 62, 0
1, 660992, Note_on_c, 1, 59, 46
1, 661248, Note_on_c, 1, 59, 0
1, 661248, Note_on_c, 1, 62, 47
1, 661504, Note_on_c, 0, 71, 0
1, 661504, Note_on_c, 0, 72, 66
1, 661504, Note_on_c, 1, 62, 0
1, 661504, Note_on_c, 1, 57, 47
1, 661760, Note_on_c, 0, 72, 0
1, 661760, Note_on_c, 0, 71, 61
1, 661760, Note_on_c, 1, 57, 0
1, 661760, Note_on_c, 1, 62, 48
1, 662016, Note_on_c, 0, 71, 0
1, 662016, Note_on_c, 0, 69, 63
1, 662016, Note_on_c, 1, 62, 0
1, 662016, Note_on_c, 1, 60, 48
1, 662272, Note_on_c, 0, 69, 0
1, 662272, Note_on_c, 0, 71, 63
1, 662272, Note_on_c, 1, 60, 0
1, 662272, Note_on_c, 1, 62, 48
1, 662528, Note_on_c, 0, 71, 0
1, 662528, Note_on_c, 0, 72, 64
1, 662528, Note_on_c, 1, 62, 0
1, 662528, Note_on_c, 1, 55, 49
1, 662784, Note_on_c, 1, 55, 0
1, 662784, Note_on_c, 1, 62, 48
1, 663040, Note_on_c, 1, 62, 0
1, 663040, Note_on_c, 1, 59, 46
1, 663296, Note_on_c, 0, 72, 0
1, 663296, Note_on_c, 0, 71, 57
1, 663296, Note_on_c, 1, 59, 0
1, 663296, Note_on_c, 1, 62, 45
1, 663552, Note_on_c, 0, 71, 0
1, 663552, Note_on_c, 0, 67, 54
1, 663552, Note_on_c, 1, 62, 0
1, 663552, Note_on_c, 1, 55, 44
1, 663808, Note_on_c, 1, 55, 0
1, 663808, Note_on_c, 1, 62, 44
1, 664064, Note_on_c, 1, 62, 0
1, 664064, Note_on_c, 1, 59, 44
1, 664320, Note_on_c, 1, 59, 0
1, 664320, Note_on_c, 1, 62, 45
1, 664576, Note_on_c, 0, 67, 0
1, 664576, Note_on_c, 1, 62, 0
1, 664576, Note_on_c, 1, 55, 46
1, 664832, Note_on_c, 1, 55, 0
1, 664832, Note_on_c, 1, 62, 47
1, 665088, Note_on_c, 1, 62, 0
1, 665088, Note_on_c, 1, 59, 47
1, 665344, Note_on_c, 1, 59, 0
1, 665344, Note_on_c, 1, 62, 48
1, 665600, Note_on_c, 0, 79, 67
1, 665600, Note_on_c, 1, 62, 0
1, 665600, Note_on_c, 1, 55, 51
1, 665856, Note_on_c, 1, 55, 0
1, 665856, Note_on_c, 1, 64, 50
1, 666112, Note_on_c, 1, 64, 0
1, 666112, Note_on_c, 1, 60, 50
1, 666368, Note_on_c, 1, 60, 0
1, 666368, Note_on_c, 1, 64, 50
1, 666624, Note_on_c, 1, 64, 0
1, 666624, Note_on_c, 1, 55, 50
1, 666880, Note_on_c, 1, 55, 0
1, 666880, Note_on_c, 1, 64, 50
1, 667136, Note_on_c, 0, 79, 0
1, 667136, Note_on_c, 0, 81, 69
1, 667136, Note_on_c, 1, 64, 0
1, 667136, Note_on_c, 1, 60, 49
1, 667392, Note_on_c, 0, 81, 0
1, 667392, Note_on_c, 0, 79, 63
1, 667392, Note_on_c, 1, 60, 0
1, 667392, Note_on_c, 1, 64, 49
1, 667648, Note_on_c, 0, 79, 0
1, 667648, Note_on_c, 0, 78, 68
1, 667648, Note_on_c, 1, 64, 0
1, 667648, Note_on_c, 1, 55, 48
1, 667904, Note_on_c, 0, 78, 0
1, 667904, Note_on_c, 0, 76, 62
1, 667904, Note_on_c, 1, 55, 0
1, 667904, Note_on_c, 1, 61, 47
1, 668160, Note_on_c, 0, 76, 0
1, 668160, Note_on_c, 0, 74, 62
1, 668160, Note_on_c, 1, 61, 0
1, 668160, Note_on_c, 1, 58, 47
1, 668416, Note_on_c, 0, 74, 0
1, 668416, Note_on_c, 0, 73, 61
1, 668416, Note_on_c, 1, 58, 0
1, 668416, Note_on_c, 1, 61, 46
1, 668672, Note_on_c, 0, 73, 0
1, 668672, Note_on_c, 0, 74, 61
1, 668672, Note_on_c, 1, 61, 0
1, 668672, Note_on_c, 1, 55, 45
1, 668928, Note_on_c, 1, 55, 0
1, 668928, Note_on_c, 1, 62, 45
1, 669184, Note_on_c, 1, 62, 0
1, 669184, Note_on_c, 1, 59, 44
1, 669440, Note_on_c, 0, 74, 0
1, 669440, Note_on_c, 0, 71, 59
1, 669440, Note_on_c, 1, 59, 0
1, 669440, Note_on_c, 1, 62, 44
1, 669696, Note_on_c, 0, 71, 0
1, 669696, Note_on_c, 0, 67, 59
1, 669696, Note_on_c, 1, 62, 0
1, 669696, Note_on_c, 1, 55, 44
1, 669952, Note_on_c, 1, 55, 0
1, 669952, Note_on_c, 1, 62, 43
1, 670208, Note_on_c, 1, 62, 0
1, 670208, Note_on_c, 1, 59, 43
1, 670464, Note_on_c, 1, 59, 0
1, 670464, Note_on_c, 1, 62, 44
1, 670720, Note_on_c, 0, 67, 0
1, 670720, Note_on_c, 1, 62, 0
1, 670720, Note_on_c, 1, 55, 46
1, 670976, Note_on_c, 1, 55, 0
1, 670976, Note_on_c, 1, 62, 48
1, 671232, Note_on_c, 1, 62, 0
1, 671232, Note_on_c, 1, 59, 49
1, 671488, Note_on_c, 1, 59, 0
1, 671488, Note_on_c, 1, 62, 50
1, 671744, Note_on_c, 0, 72, 70
1, 671744, Note_on_c, 1, 62, 0
1, 671744, Note_on_c, 1, 57, 56
1, 672000, Note_on_c, 1, 57, 0
1, 672000, Note_on_c, 1, 62, 35
1, 672256, Note_on_c, 1, 62, 0
1, 672256, Note_on_c, 1, 60, 34
1, 672512, Note_on_c, 0, 72, 0
1, 672512, Note_on_c, 0, 69, 47
1, 672512, Note_on_c, 1, 60, 0
1, 672512, Note_on_c, 1, 62, 32
1, 672768, Note_on_c, 0, 69, 0
1, 672768, Note_on_c, 0, 66, 45
1, 672768, Note_on_c, 1, 62, 0
1, 672768, Note_on_c, 1, 57, 30
1, 672922, Note_on_c, 0, 66, 0
1, 673024, Note_on_c, 1, 57, 0
1, 673024, Note_on_c, 1, 62, 30
1, 673280, Note_on_c, 0, 69, 45
1, 673280, Note_on_c, 1, 62, 0
1, 673280, Note_on_c, 1, 60, 31
1, 673434, Note_on_c, 0, 69, 0
1, 673536, Note_on_c, 1, 60, 0
1, 673536, Note_on_c, 1, 62, 32
1, 673792, Note_on_c, 0, 71, 47
1, 673792, Note_on_c, 1, 62, 0
1, 673792, Note_on_c, 1, 57, 33
1, 673946, Note_on_c, 0, 71, 0
1, 674048, Note_on_c, 1, 57, 0
1, 674048, Note_on_c, 1, 62, 34
1, 674304, Note_on_c, 0, 72, 50
1, 674304, Note_on_c, 1, 62, 0
1, 674304, Note_on_c, 1, 60, 35
1, 674458, Note_on_c, 0, 72, 0
1, 674560, Note_on_c, 1, 60, 0
1, 674560, Note_on_c, 1, 62, 35
1, 674816, Note_on_c, 0, 74, 50
1, 674816, Note_on_c, 1, 62, 0
1, 674816, Note_on_c, 1, 55, 42
1, 675072, Note_on_c, 1, 62, 41
1, 675328, Note_on_c, 1, 62, 0
1, 675328, Note_on_c, 1, 59, 41
1, 675584, Note_on_c, 0, 74, 0
1, 675584, Note_on_c, 0, 71, 54
1, 675584, Note_on_c, 1, 59, 0
1, 675584, Note_on_c, 1, 62, 41
1, 675840, Note_on_c, 0, 71, 0
1, 675840, Note_on_c, 0, 79, 55
1, 675840, Note_on_c, 1, 55, 0
1, 675840, Note_on_c, 1, 52, 45
1, 675840, Note_on_c, 1, 62, 0
1, 676096, Note_on_c, 1, 59, 41
1, 676352, Note_on_c, 1, 59, 0
1, 676352, Note_on_c, 1, 55, 41
1, 676608, Note_on_c, 1, 55, 0
1, 676608, Note_on_c, 1, 59, 41
1, 676864, Note_on_c, 0, 79, 0
1, 676864, Note_on_c, 1, 52, 0
1, 676864, Note_on_c, 1, 47, 48
1, 676864, Note_on_c, 1, 59, 0
1, 677120, Note_on_c, 1, 55, 41
1, 677376, Note_on_c, 1, 55, 0
1, 677376, Note_on_c, 1, 50, 41
1, 677632, Note_on_c, 1, 50, 0
1, 677632, Note_on_c, 1, 55, 41
1, 677888, Note_on_c, 0, 81, 92
1, 677888, Note_on_c, 1, 47, 0
1, 677888, Note_on_c, 1, 55, 0
1, 677888, Note_on_c, 1, 52, 64
1, 677888, Note_on_c, 1, 48, 60
1, 678144, Note_on_c, 0, 81, 0
1, 678144, Note_on_c, 0, 79, 69
1, 678400, Note_on_c, 0, 79, 0
1, 678400, Note_on_c, 0, 78, 60
1, 678656, Note_on_c, 0, 78, 0
1, 678656, Note_on_c, 0, 79, 59
1, 678912, Note_on_c, 0, 79, 0
1, 678912, Note_on_c, 0, 78, 59
1, 678912, Note_on_c, 1, 52, 0
1, 678912, Note_on_c, 1, 55, 52
1, 679168, Note_on_c, 0, 78, 0
1, 679168, Note_on_c, 0, 76, 58
1, 679424, Note_on_c, 0, 76, 0
1, 679424, Note_on_c, 0, 75, 57
1, 679680, Note_on_c, 0, 75, 0
1, 679680, Note_on_c, 0, 76, 56
1, 679936, Note_on_c, 0, 76, 0
1, 679936, Note_on_c, 0, 74, 55
1, 679936, Note_on_c, 1, 48, 0
1, 679936, Note_on_c, 1, 52, 48
1, 680192, Note_on_c, 0, 74, 0
1, 680192, Note_on_c, 0, 72, 55
1, 680448, Note_on_c, 0, 72, 0
1, 680448, Note_on_c, 0, 71, 53
1, 680704, Note_on_c, 0, 71, 0
1, 680704, Note_on_c, 0, 72, 53
1, 680960, Note_on_c, 0, 72, 0
1, 680960, Note_on_c, 0, 71, 52
1, 680960, Note_on_c, 1, 55, 0
1, 680960, Note_on_c, 1, 52, 0
1, 680960, Note_on_c, 1, 55, 45
1, 680960, Note_on_c, 1, 50, 44
1, 681728, Note_on_c, 0, 71, 0
1, 681728, Note_on_c, 0, 72, 50
1, 681856, Note_on_c, 0, 72, 0
1, 681856, Note_on_c, 0, 71, 50
1, 681984, Note_on_c, 0, 71, 0
1, 681984, Note_on_c, 0, 69, 49
1, 681984, Note_on_c, 1, 55, 0
1, 681984, Note_on_c, 1, 54, 44
1, 682496, Note_on_c, 0, 69, 0
1, 682496, Note_on_c, 0, 74, 59
1, 682650, Note_on_c, 0, 74, 0
1, 683008, Note_on_c, 0, 73, 65
1, 683008, Note_on_c, 1, 54, 0
1, 683008, Note_on_c, 1, 50, 0
1, 683162, Note_on_c, 0, 73, 0
1, 683520, Note_on_c, 0, 72, 70
1, 683674, Note_on_c, 0, 72, 0
1, 684032, Note_on_c, 0, 71, 77
1, 684032, Note_on_c, 1, 55, 55
1, 684288, Note_on_c, 1, 55, 0
1, 684288, Note_on_c, 1, 62, 55
1, 684544, Note_on_c, 1, 62, 0
1, 684544, Note_on_c, 1, 59, 56
1, 684800, Note_on_c, 1, 59, 0
1, 684800, Note_on_c, 1, 62, 57
1, 685056, Note_on_c, 1, 62, 0
1, 685056, Note_on_c, 1, 55, 57
1, 685312, Note_on_c, 0, 71, 0
1, 685312, Note_on_c, 0, 67, 79
1, 685312, Note_on_c, 1, 55, 0
1, 685312, Note_on_c, 1, 62, 59
1, 685568, Note_on_c, 0, 67, 0
1, 685568, Note_on_c, 0, 71, 80
1, 685568, Note_on_c, 1, 62, 0
1, 685568, Note_on_c, 1, 59, 59
1, 685824, Note_on_c, 0, 71, 0
1, 685824, Note_on_c, 0, 74, 80
1, 685824, Note_on_c, 1, 59, 0
1, 685824, Note_on_c, 1, 62, 60
1, 686080, Note_on_c, 0, 74, 0
1, 686080, Note_on_c, 0, 72, 81
1, 686080, Note_on_c, 1, 62, 0
1, 686080, Note_on_c, 1, 57, 60
1, 686336, Note_on_c, 0, 72, 0
1, 686336, Note_on_c, 0, 69, 82
1, 686336, Note_on_c, 1, 57, 0
1, 686336, Note_on_c, 1, 62, 60
1, 686592, Note_on_c, 0, 69, 0
1, 686592, Note_on_c, 0, 72, 82
1, 686592, Note_on_c, 1, 62, 0
1, 686592, Note_on_c, 1, 60, 61
1, 686848, Note_on_c, 0, 72, 0
1, 686848, Note_on_c, 0, 76, 82
1, 686848, Note_on_c, 1, 60, 0
1, 686848, Note_on_c, 1, 62, 61
1, 687104, Note_on_c, 0, 76, 0
1, 687104, Note_on_c, 0, 74, 83
1, 687104, Note_on_c, 1, 62, 0
1, 687104, Note_on_c, 1, 55, 62
1, 687360, Note_on_c, 1, 55, 0
1, 687360, Note_on_c, 1, 62, 60
1, 687616, Note_on_c, 1, 62, 0
1, 687616, Note_on_c, 1, 59, 59
1, 687872, Note_on_c, 0, 74, 0
1, 687872, Note_on_c, 0, 71, 72
1, 687872, Note_on_c, 1, 59, 0
1, 687872, Note_on_c, 1, 62, 57
1, 688128, Note_on_c, 0, 71, 0
1, 688128, Note_on_c, 0, 67, 71
1, 688128, Note_on_c, 1, 62, 0
1, 688128, Note_on_c, 1, 55, 56
1, 688205, Note_on_c, 0, 67, 0
1, 688384, Note_on_c, 0, 67, 72
1, 688384, Note_on_c, 1, 55, 0
1, 688384, Note_on_c, 1, 62, 56
1, 688461, Note_on_c, 0, 67, 0
1, 688640, Note_on_c, 0, 69, 73
1, 688640, Note_on_c, 1, 62, 0
1, 688640, Note_on_c, 1, 59, 57
1, 688717, Note_on_c, 0, 69, 0
1, 688896, Note_on_c, 0, 71, 75
1, 688896, Note_on_c, 1, 59, 0
1, 688896, Note_on_c, 1, 62, 57
1, 688973, Note_on_c, 0, 71, 0
1, 689152, Note_on_c, 0, 72, 76
1, 689152, Note_on_c, 1, 62, 0
1, 689152, Note_on_c, 1, 55, 58
1, 689229, Note_on_c, 0, 72, 0
1, 689408, Note_on_c, 0, 74, 77
1, 689408, Note_on_c, 1, 55, 0
1, 689408, Note_on_c, 1, 62, 59
1, 689485, Note_on_c, 0, 74, 0
1, 689664, Note_on_c, 0, 76, 79
1, 689664, Note_on_c, 1, 62, 0
1, 689664, Note_on_c, 1, 59, 60
1, 689741, Note_on_c, 0, 76, 0
1, 689920, Note_on_c, 0, 78, 79
1, 689920, Note_on_c, 1, 59, 0
1, 689920, Note_on_c, 1, 62, 60
1, 689997, Note_on_c, 0, 78, 0
1, 690176, Note_on_c, 0, 79, 82
1, 690176, Note_on_c, 1, 62, 0
1, 690176, Note_on_c, 1, 55, 62
1, 690432, Note_on_c, 0, 79, 0
1, 690432, Note_on_c, 0, 78, 83
1, 690432, Note_on_c, 1, 55, 0
1, 690432, Note_on_c, 1, 64, 62
1, 690688, Note_on_c, 0, 78, 0
1, 690688, Note_on_c, 0, 79, 84
1, 690688, Note_on_c, 1, 64, 0
1, 690688, Note_on_c, 1, 60, 63
1, 690944, Note_on_c, 0, 79, 0
1, 690944, Note_on_c, 0, 78, 85
1, 690944, Note_on_c, 1, 60, 0
1, 690944, Note_on_c, 1, 64, 63
1, 691200, Note_on_c, 0, 78, 0
1, 691200, Note_on_c, 0, 81, 90
1, 691200, Note_on_c, 1, 64, 0
1, 691200, Note_on_c, 1, 55, 63
1, 691456, Note_on_c, 0, 81, 0
1, 691456, Note_on_c, 0, 79, 85
1, 691456, Note_on_c, 1, 55, 0
1, 691456, Note_on_c, 1, 64, 62
1, 691712, Note_on_c, 0, 79, 0
1, 691712, Note_on_c, 0, 78, 82
1, 691712, Note_on_c, 1, 64, 0
1, 691712, Note_on_c, 1, 60, 60
1, 691968, Note_on_c, 0, 78, 0
1, 691968, Note_on_c, 0, 79, 82
1, 691968, Note_on_c, 1, 60, 0
1, 691968, Note_on_c, 1, 64, 60
1, 692224, Note_on_c, 0, 79, 0
1, 692224, Note_on_c, 0, 78, 86
1, 692224, Note_on_c, 1, 64, 0
1, 692224, Note_on_c, 1, 55, 60
1, 692480, Note_on_c, 0, 78, 0
1, 692480, Note_on_c, 0, 76, 79
1, 692480, Note_on_c, 1, 55, 0
1, 692480, Note_on_c, 1, 61, 60
1, 692736, Note_on_c, 0, 76, 0
1, 692736, Note_on_c, 0, 74, 79
1, 692736, Note_on_c, 1, 61, 0
1, 692736, Note_on_c, 1, 58, 59
1, 692992, Note_on_c, 0, 74, 0
1, 692992, Note_on_c, 0, 73, 77
1, 692992, Note_on_c, 1, 58, 0
1, 692992, Note_on_c, 1, 61, 58
1, 693248, Note_on_c, 0, 73, 0
1, 693248, Note_on_c, 0, 74, 77
1, 693248, Note_on_c, 1, 61, 0
1, 693248, Note_on_c, 1, 55, 57
1, 693504, Note_on_c, 0, 74, 0
1, 693504, Note_on_c, 0, 71, 76
1, 693504, Note_on_c, 1, 55, 0
1, 693504, Note_on_c, 1, 62, 56
1, 693760, Note_on_c, 0, 71, 0
1, 693760, Note_on_c, 0, 74, 74
1, 693760, Note_on_c, 1, 62, 0
1, 693760, Note_on_c, 1, 59, 54
1, 694016, Note_on_c, 0, 74, 0
1, 694016, Note_on_c, 0, 71, 74
1, 694016, Note_on_c, 1, 59, 0
1, 694016, Note_on_c, 1, 62, 54
1, 694272, Note_on_c, 0, 71, 0
1, 694272, Note_on_c, 0, 67, 73
1, 694272, Note_on_c, 1, 62, 0
1, 694272, Note_on_c, 1, 55, 54
1, 694528, Note_on_c, 1, 55, 0
1, 694528, Note_on_c, 1, 62, 54
1, 694784, Note_on_c, 1, 62, 0
1, 694784, Note_on_c, 1, 59, 55
1, 695040, Note_on_c, 1, 59, 0
1, 695040, Note_on_c, 1, 62, 56
1, 695296, Note_on_c, 0, 67, 0
1, 695296, Note_on_c, 1, 62, 0
1, 695296, Note_on_c, 1, 55, 58
1, 695552, Note_on_c, 1, 55, 0
1, 695552, Note_on_c, 1, 62, 58
1, 695808, Note_on_c, 1, 62, 0
1, 695808, Note_on_c, 1, 59, 59
1, 696064, Note_on_c, 1, 59, 0
1, 696064, Note_on_c, 1, 62, 60
1, 696320, Note_on_c, 0, 72, 83
1, 696320, Note_on_c, 1, 62, 0
1, 696320, Note_on_c, 1, 57, 60
1, 696576, Note_on_c, 0, 72, 0
1, 696576, Note_on_c, 0, 69, 79
1, 696576, Note_on_c, 1, 57, 0
1, 696576, Note_on_c, 1, 62, 59
1, 696832, Note_on_c, 0, 69, 0
1, 696832, Note_on_c, 0, 72, 76
1, 696832, Note_on_c, 1, 62, 0
1, 696832, Note_on_c, 1, 60, 57
1, 697088, Note_on_c, 0, 72, 0
1, 697088, Note_on_c, 0, 69, 72
1, 697088, Note_on_c, 1, 60, 0
1, 697088, Note_on_c, 1, 62, 56
1, 697344, Note_on_c, 0, 69, 0
1, 697344, Note_on_c, 0, 66, 71
1, 697344, Note_on_c, 1, 62, 0
1, 697344, Note_on_c, 1, 57, 56
1, 697421, Note_on_c, 0, 66, 0
1, 697600, Note_on_c, 0, 69, 72
1, 697600, Note_on_c, 1, 57, 0
1, 697600, Note_on_c, 1, 62, 57
1, 697856, Note_on_c, 0, 69, 0
1, 697856, Note_on_c, 0, 68, 74
1, 697856, Note_on_c, 1, 62, 0
1, 697856, Note_on_c, 1, 60, 60
1, 698112, Note_on_c, 0, 68, 0
1, 698112, Note_on_c, 0, 69, 74
1, 698112, Note_on_c, 1, 60, 0
1, 698112, Note_on_c, 1, 62, 61
1, 698368, Note_on_c, 0, 69, 0
1, 698368, Note_on_c, 0, 70, 76
1, 698368, Note_on_c, 1, 62, 0
1, 698368, Note_on_c, 1, 57, 63
1, 698624, Note_on_c, 0, 70, 0
1, 698624, Note_on_c, 0, 71, 77
1, 698624, Note_on_c, 1, 57, 0
1, 698624, Note_on_c, 1, 62, 64
1, 698880, Note_on_c, 0, 71, 0
1, 698880, Note_on_c, 0, 72, 79
1, 698880, Note_on_c, 1, 62, 0
1, 698880, Note_on_c, 1, 60, 67
1, 699136, Note_on_c, 0, 72, 0
1, 699136, Note_on_c, 0, 73, 79
1, 699136, Note_on_c, 1, 60, 0
1, 699136, Note_on_c, 1, 62, 68
1, 699392, Note_on_c, 0, 73, 0
1, 699392, Note_on_c, 0, 74, 79
1, 699392, Note_on_c, 1, 62, 0
1, 699392, Note_on_c, 1, 55, 68
1, 699648, Note_on_c, 0, 74, 0
1, 699648, Note_on_c, 0, 71, 82
1, 699648, Note_on_c, 1, 62, 70
1, 699904, Note_on_c, 0, 71, 0
1, 699904, Note_on_c, 0, 74, 84
1, 699904, Note_on_c, 1, 62, 0
1, 699904, Note_on_c, 1, 59, 71
1, 700160, Note_on_c, 0, 74, 0
1, 700160, Note_on_c, 0, 71, 85
1, 700160, Note_on_c, 1, 59, 0
1, 700160, Note_on_c, 1, 62, 71
1, 700416, Note_on_c, 0, 71, 0
1, 700416, Note_on_c, 0, 79, 86
1, 700416, Note_on_c, 1, 55, 0
1, 700416, Note_on_c, 1, 52, 70
1, 700416, Note_on_c, 1, 62, 0
1, 700672, Note_on_c, 1, 59, 72
1, 700928, Note_on_c, 1, 59, 0
1, 700928, Note_on_c, 1, 55, 73
1, 701184, Note_on_c, 1, 55, 0
1, 701184, Note_on_c, 1, 59, 73
1, 701440, Note_on_c, 0, 79, 0
1, 701440, Note_on_c, 1, 52, 0
1, 701440, Note_on_c, 1, 47, 73
1, 701440, Note_on_c, 1, 59, 0
1, 701696, Note_on_c, 0, 83, 91
1, 701696, Note_on_c, 1, 55, 74
1, 701952, Note_on_c, 0, 83, 0
1, 701952, Note_on_c, 0, 78, 92
1, 701952, Note_on_c, 1, 55, 0
1, 701952, Note_on_c, 1, 50, 75
1, 702208, Note_on_c, 0, 78, 0
1, 702208, Note_on_c, 0, 79, 93
1, 702208, Note_on_c, 1, 50, 0
1, 702208, Note_on_c, 1, 55, 75
1, 702464, Note_on_c, 0, 79, 0
1, 702464, Note_on_c, 0, 75, 98
1, 702464, Note_on_c, 1, 47, 0
1, 702464, Note_on_c, 1, 55, 0
1, 702464, Note_on_c, 1, 48, 74
1, 702720, Note_on_c, 0, 75, 0
1, 702720, Note_on_c, 0, 76, 92
1, 702720, Note_on_c, 1, 57, 75
1, 702976, Note_on_c, 0, 76, 0
1, 702976, Note_on_c, 0, 72, 91
1, 702976, Note_on_c, 1, 57, 0
1, 702976, Note_on_c, 1, 52, 74
1, 703232, Note_on_c, 0, 72, 0
1, 703232, Note_on_c, 0, 69, 89
1, 703232, Note_on_c, 1, 52, 0
1, 703232, Note_on_c, 1, 57, 73
1, 703488, Note_on_c, 0, 69, 0
1, 703488, Note_on_c, 0, 67, 89
1, 703488, Note_on_c, 1, 48, 0
1, 703488, Note_on_c, 1, 50, 70
1, 703488, Note_on_c, 1, 57, 0
1, 703744, Note_on_c, 1, 59, 72
1, 704000, Note_on_c, 1, 59, 0
1, 704000, Note_on_c, 1, 55, 72
1, 704256, Note_on_c, 0, 67, 0
1, 704256, Note_on_c, 0, 67, 86
1, 704256, Note_on_c, 1, 55, 0
1, 704256, Note_on_c, 1, 59, 70
1, 704512, Note_on_c, 0, 67, 0
1, 704512, Note_on_c, 0, 71, 90
1, 704512, Note_on_c, 0, 66, 87
1, 704512, Note_on_c, 1, 50, 0
1, 704512, Note_on_c, 1, 50, 68
1, 704512, Note_on_c, 1, 59, 0
1, 704768, Note_on_c, 0, 71, 0
1, 704768, Note_on_c, 0, 69, 83
1, 704768, Note_on_c, 1, 60, 69
1, 705024, Note_on_c, 0, 69, 0
1, 705024, Note_on_c, 0, 67, 83
1, 705024, Note_on_c, 1, 60, 0
1, 705024, Note_on_c, 1, 57, 69
1, 705280, Note_on_c, 0, 67, 0
1, 705280, Note_on_c, 0, 69, 82
1, 705280, Note_on_c, 1, 57, 0
1, 705280, Note_on_c, 1, 60, 69
1, 705536, Note_on_c, 0, 69, 0
1, 705536, Note_on_c, 0, 66, 0
1, 705536, Note_on_c, 0, 66, 78
1, 705536, Note_on_c, 0, 69, 78
1, 705536, Note_on_c, 1, 50, 0
1, 705536, Note_on_c, 1, 60, 0
1, 705536, Note_on_c, 1, 60, 67
1, 705536, Note_on_c, 1, 55, 64
1, 706560, Note_on_c, 0, 66, 0
1, 706560, Note_on_c, 0, 69, 0
1, 706560, Note_on_c, 0, 67, 72
1, 706560, Note_on_c, 1, 60, 0
1, 706560, Note_on_c, 1, 59, 62
1, 707584, Note_on_c, 0, 67, 0
1, 707584, Note_on_c, 1, 59, 0
1, 707584, Note_on_c, 1, 55, 0
1, 708608, Note_on_c, 0, 74, 54
1, 708608, Note_on_c, 1, 62, 44
1, 708864, Note_on_c, 1, 62, 0
1, 708864, Note_on_c, 1, 69, 45
1, 709120, Note_on_c, 1, 69, 0
1, 709120, Note_on_c, 1, 66, 46
1, 709376, Note_on_c, 1, 66, 0
1, 709376, Note_on_c, 1, 69, 47
1, 709632, Note_on_c, 1, 69, 0
1, 709632, Note_on_c, 1, 62, 47
1, 709888, Note_on_c, 0, 74, 0
1, 709888, Note_on_c, 0, 73, 58
1, 709888, Note_on_c, 1, 62, 0
1, 709888, Note_on_c, 1, 69, 48
1, 710144, Note_on_c, 0, 73, 0
1, 710144, Note_on_c, 0, 76, 60
1, 710144, Note_on_c, 1, 69, 0
1, 710144, Note_on_c, 1, 66, 49
1, 710400, Note_on_c, 0, 76, 0
1, 710400, Note_on_c, 0, 74, 60
1, 710400, Note_on_c, 1, 66, 0
1, 710400, Note_on_c, 1, 69, 50
1, 710656, Note_on_c, 0, 74, 0
1, 710656, Note_on_c, 0, 79, 66
1, 710656, Note_on_c, 1, 69, 0
1, 710656, Note_on_c, 1, 62, 50
1, 710912, Note_on_c, 0, 79, 0
1, 710912, Note_on_c, 0, 78, 61
1, 710912, Note_on_c, 1, 62, 0
1, 710912, Note_on_c, 1, 69, 50
1, 711168, Note_on_c, 0, 78, 0
1, 711168, Note_on_c, 0, 76, 63
1, 711168, Note_on_c, 1, 69, 0
1, 711168, Note_on_c, 1, 66, 51
1, 711424, Note_on_c, 0, 76, 0
1, 711424, Note_on_c, 0, 74, 63
1, 711424, Note_on_c, 1, 66, 0
1, 711424, Note_on_c, 1, 69, 51
1, 711680, Note_on_c, 0, 74, 0
1, 711680, Note_on_c, 0, 73, 64
1, 711680, Note_on_c, 1, 69, 0
1, 711680, Note_on_c, 1, 64, 52
1, 711936, Note_on_c, 1, 64, 0
1, 711936, Note_on_c, 1, 69, 50
1, 712192, Note_on_c, 1, 69, 0
1, 712192, Note_on_c, 1, 67, 47
1, 712448, Note_on_c, 0, 73, 0
1, 712448, Note_on_c, 0, 74, 57
1, 712448, Note_on_c, 1, 67, 0
1, 712448, Note_on_c, 1, 69, 44
1, 712704, Note_on_c, 0, 74, 0
1, 712704, Note_on_c, 0, 76, 54
1, 712704, Note_on_c, 1, 69, 0
1, 712704, Note_on_c, 1, 64, 44
1, 712960, Note_on_c, 1, 64, 0
1, 712960, Note_on_c, 1, 69, 45
1, 713216, Note_on_c, 1, 69, 0
1, 713216, Note_on_c, 1, 67, 45
1, 713472, Note_on_c, 1, 67, 0
1, 713472, Note_on_c, 1, 69, 45
1, 713728, Note_on_c, 0, 76, 0
1, 713728, Note_on_c, 1, 69, 0
1, 713728, Note_on_c, 1, 64, 46
1, 713984, Note_on_c, 1, 64, 0
1, 713984, Note_on_c, 1, 69, 47
1, 714240, Note_on_c, 1, 69, 0
1, 714240, Note_on_c, 1, 67, 47
1, 714496, Note_on_c, 1, 67, 0
1, 714496, Note_on_c, 1, 69, 48
1, 714752, Note_on_c, 0, 76, 61
1, 714752, Note_on_c, 1, 69, 0
1, 714752, Note_on_c, 1, 61, 53
1, 715008, Note_on_c, 1, 61, 0
1, 715008, Note_on_c, 1, 69, 53
1, 715264, Note_on_c, 1, 69, 0
1, 715264, Note_on_c, 1, 67, 54
1, 715520, Note_on_c, 1, 67, 0
1, 715520, Note_on_c, 1, 69, 55
1, 715776, Note_on_c, 1, 69, 0
1, 715776, Note_on_c, 1, 61, 55
1, 716032, Note_on_c, 0, 76, 0
1, 716032, Note_on_c, 0, 75, 63
1, 716032, Note_on_c, 1, 61, 0
1, 716032, Note_on_c, 1, 69, 55
1, 716288, Note_on_c, 0, 75, 0
1, 716288, Note_on_c, 0, 78, 64
1, 716288, Note_on_c, 1, 69, 0
1, 716288, Note_on_c, 1, 67, 56
1, 716544, Note_on_c, 0, 78, 0
1, 716544, Note_on_c, 0, 76, 64
1, 716544, Note_on_c, 1, 67, 0
1, 716544, Note_on_c, 1, 69, 56
1, 716800, Note_on_c, 0, 76, 0
1, 716800, Note_on_c, 0, 81, 70
1, 716800, Note_on_c, 1, 69, 0
1, 716800, Note_on_c, 1, 61, 57
1, 717056, Note_on_c, 0, 81, 0
1, 717056, Note_on_c, 0, 79, 66
1, 717056, Note_on_c, 1, 61, 0
1, 717056, Note_on_c, 1, 69, 57
1, 717312, Note_on_c, 0, 79, 0
1, 717312, Note_on_c, 0, 78, 66
1, 717312, Note_on_c, 1, 69, 0
1, 717312, Note_on_c, 1, 67, 57
1, 717568, Note_on_c, 0, 78, 0
1, 717568, Note_on_c, 0, 76, 66
1, 717568, Note_on_c, 1, 67, 0
1, 717568, Note_on_c, 1, 69, 58
1, 717824, Note_on_c, 0, 76, 0
1, 717824, Note_on_c, 0, 74, 67
1, 717824, Note_on_c, 1, 69, 0
1, 717824, Note_on_c, 1, 62, 58
1, 718080, Note_on_c, 1, 62, 0
1, 718080, Note_on_c, 1, 69, 55
1, 718336, Note_on_c, 1, 69, 0
1, 718336, Note_on_c, 1, 66, 52
1, 718592, Note_on_c, 0, 74, 0
1, 718592, Note_on_c, 0, 76, 60
1, 718592, Note_on_c, 1, 66, 0
1, 718592, Note_on_c, 1, 69, 49
1, 718848, Note_on_c, 0, 76, 0
1, 718848, Note_on_c, 0, 78, 57
1, 718848, Note_on_c, 1, 69, 0
1, 718848, Note_on_c, 1, 61, 59
1, 719104, Note_on_c, 1, 61, 0
1, 719104, Note_on_c, 1, 69, 52
1, 719360, Note_on_c, 1, 69, 0
1, 719360, Note_on_c, 1, 62, 53
1, 719616, Note_on_c, 1, 62, 0
1, 719616, Note_on_c, 1, 69, 56
1, 719872, Note_on_c, 0, 78, 0
1, 719872, Note_on_c, 1, 69, 0
1, 719872, Note_on_c, 1, 59, 57
1, 720128, Note_on_c, 1, 59, 0
1, 720128, Note_on_c, 1, 67, 60
1, 720384, Note_on_c, 1, 67, 0
1, 720384, Note_on_c, 1, 62, 61
1, 720640, Note_on_c, 1, 62, 0
1, 720640, Note_on_c, 1, 67, 64
1, 720896, Note_on_c, 0, 78, 83
1, 720896, Note_on_c, 1, 67, 0
1, 720896, Note_on_c, 1, 57, 48
1, 721152, Note_on_c, 1, 57, 0
1, 721152, Note_on_c, 1, 66, 50
1, 721408, Note_on_c, 1, 66, 0
1, 721408, Note_on_c, 1, 62, 50
1, 721664, Note_on_c, 1, 62, 0
1, 721664, Note_on_c, 1, 66, 50
1, 721920, Note_on_c, 1, 66, 0
1, 721920, Note_on_c, 1, 55, 51
1, 722176, Note_on_c, 0, 78, 0
1, 722176, Note_on_c, 0, 76, 56
1, 722176, Note_on_c, 1, 55, 0
1, 722176, Note_on_c, 1, 64, 51
1, 722432, Note_on_c, 0, 76, 0
1, 722432, Note_on_c, 0, 79, 57
1, 722432, Note_on_c, 1, 64, 0
1, 722432, Note_on_c, 1, 61, 52
1, 722688, Note_on_c, 0, 79, 0
1, 722688, Note_on_c, 0, 78, 57
1, 722688, Note_on_c, 1, 61, 0
1, 722688, Note_on_c, 1, 64, 52
1, 722944, Note_on_c, 0, 78, 0
1, 722944, Note_on_c, 0, 83, 63
1, 722944, Note_on_c, 1, 64, 0
1, 722944, Note_on_c, 1, 54, 52
1, 723200, Note_on_c, 0, 83, 0
1, 723200, Note_on_c, 0, 81, 58
1, 723200, Note_on_c, 1, 54, 0
1, 723200, Note_on_c, 1, 62, 53
1, 723456, Note_on_c, 0, 81, 0
1, 723456, Note_on_c, 0, 79, 58
1, 723456, Note_on_c, 1, 62, 0
1, 723456, Note_on_c, 1, 57, 53
1, 723712, Note_on_c, 0, 79, 0
1, 723712, Note_on_c, 0, 78, 59
1, 723712, Note_on_c, 1, 57, 0
1, 723712, Note_on_c, 1, 62, 53
1, 723968, Note_on_c, 0, 78, 0
1, 723968, Note_on_c, 0, 76, 89
1, 723968, Note_on_c, 1, 62, 0
1, 723968, Note_on_c, 1, 59, 51
1, 724224, Note_on_c, 1, 59, 0
1, 724224, Note_on_c, 1, 67, 54
1, 724480, Note_on_c, 1, 67, 0
1, 724480, Note_on_c, 1, 64, 55
1, 724736, Note_on_c, 1, 64, 0
1, 724736, Note_on_c, 1, 67, 55
1, 724992, Note_on_c, 1, 67, 0
1, 724992, Note_on_c, 1, 57, 55
1, 725248, Note_on_c, 0, 76, 0
1, 725248, Note_on_c, 0, 75, 61
1, 725248, Note_on_c, 1, 57, 0
1, 725248, Note_on_c, 1, 66, 56
1, 725504, Note_on_c, 0, 75, 0
1, 725504, Note_on_c, 0, 78, 61
1, 725504, Note_on_c, 1, 66, 0
1, 725504, Note_on_c, 1, 63, 56
1, 725760, Note_on_c, 0, 78, 0
1, 725760, Note_on_c, 0, 76, 62
1, 725760, Note_on_c, 1, 63, 0
1, 725760, Note_on_c, 1, 66, 56
1, 726016, Note_on_c, 0, 76, 0
1, 726016, Note_on_c, 0, 81, 68
1, 726016, Note_on_c, 1, 66, 0
1, 726016, Note_on_c, 1, 55, 57
1, 726272, Note_on_c, 0, 81, 0
1, 726272, Note_on_c, 0, 79, 63
1, 726272, Note_on_c, 1, 55, 0
1, 726272, Note_on_c, 1, 64, 57
1, 726528, Note_on_c, 0, 79, 0
1, 726528, Note_on_c, 0, 78, 63
1, 726528, Note_on_c, 1, 64, 0
1, 726528, Note_on_c, 1, 59, 57
1, 726784, Note_on_c, 0, 78, 0
1, 726784, Note_on_c, 0, 76, 63
1, 726784, Note_on_c, 1, 59, 0
1, 726784, Note_on_c, 1, 64, 57
1, 727040, Note_on_c, 0, 76, 0
1, 727040, Note_on_c, 0, 76, 69
1, 727040, Note_on_c, 1, 64, 0
1, 727040, Note_on_c, 1, 57, 58
1, 727296, Note_on_c, 0, 76, 0
1, 727296, Note_on_c, 0, 74, 63
1, 727296, Note_on_c, 1, 57, 0
1, 727296, Note_on_c, 1, 66, 57
1, 727552, Note_on_c, 0, 74, 0
1, 727552, Note_on_c, 0, 74, 77
1, 727552, Note_on_c, 1, 66, 0
1, 727552, Note_on_c, 1, 62, 57
1, 727808, Note_on_c, 1, 62, 0
1, 727808, Note_on_c, 1, 66, 56
1, 728064, Note_on_c, 1, 66, 0
1, 728064, Note_on_c, 1, 57, 56
1, 728320, Note_on_c, 0, 74, 0
1, 728320, Note_on_c, 0, 69, 61
1, 728320, Note_on_c, 1, 57, 0
1, 728320, Note_on_c, 1, 66, 55
1, 728576, Note_on_c, 0, 69, 0
1, 728576, Note_on_c, 0, 74, 60
1, 728576, Note_on_c, 1, 66, 0
1, 728576, Note_on_c, 1, 62, 55
1, 728832, Note_on_c, 0, 74, 0
1, 728832, Note_on_c, 0, 78, 60
1, 728832, Note_on_c, 1, 62, 0
1, 728832, Note_on_c, 1, 66, 54
1, 729088, Note_on_c, 0, 78, 0
1, 729088, Note_on_c, 0, 78, 64
1, 729088, Note_on_c, 0, 73, 58
1, 729088, Note_on_c, 1, 66, 0
1, 729088, Note_on_c, 1, 57, 53
1, 729344, Note_on_c, 0, 78, 0
1, 729344, Note_on_c, 0, 76, 59
1, 729344, Note_on_c, 1, 57, 0
1, 729344, Note_on_c, 1, 67, 53
1, 729600, Note_on_c, 0, 76, 0
1, 729600, Note_on_c, 0, 74, 58
1, 729600, Note_on_c, 1, 67, 0
1, 729600, Note_on_c, 1, 64, 53
1, 729856, Note_on_c, 0, 74, 0
1, 729856, Note_on_c, 0, 76, 58
1, 729856, Note_on_c, 1, 64, 0
1, 729856, Note_on_c, 1, 67, 52
1, 730112, Note_on_c, 0, 76, 0
1, 730112, Note_on_c, 0, 73, 0
1, 730112, Note_on_c, 0, 73, 57
1, 730112, Note_on_c, 0, 76, 57
1, 730112, Note_on_c, 1, 67, 0
1, 730112, Note_on_c, 1, 67, 52
1, 730112, Note_on_c, 1, 62, 50
1, 731136, Note_on_c, 0, 73, 0
1, 731136, Note_on_c, 0, 76, 0
1, 731136, Note_on_c, 0, 74, 54
1, 731136, Note_on_c, 1, 67, 0
1, 731136, Note_on_c, 1, 66, 49
1, 731213, Note_on_c, 0, 74, 0
1, 731392, Note_on_c, 0, 75, 54
1, 731469, Note_on_c, 0, 75, 0
1, 731648, Note_on_c, 0, 76, 58
1, 731725, Note_on_c, 0, 76, 0
1, 731904, Note_on_c, 0, 75, 62
1, 731981, Note_on_c, 0, 75, 0
1, 732160, Note_on_c, 0, 78, 66
1, 732160, Note_on_c, 1, 66, 0
1, 732160, Note_on_c, 1, 62, 0
1, 732237, Note_on_c, 0, 78, 0
1, 732416, Note_on_c, 0, 76, 69
1, 732493, Note_on_c, 0, 76, 0
1, 732672, Note_on_c, 0, 74, 73
1, 732749, Note_on_c, 0, 74, 0
1, 732928, Note_on_c, 0, 72, 77
1, 733005, Note_on_c, 0, 72, 0
1, 733184, Note_on_c, 0, 74, 73
1, 733184, Note_on_c, 1, 55, 59
1, 733440, Note_on_c, 1, 55, 0
1, 733440, Note_on_c, 1, 62, 60
1, 733696, Note_on_c, 1, 62, 0
1, 733696, Note_on_c, 1, 59, 61
1, 733952, Note_on_c, 1, 59, 0
1, 733952, Note_on_c, 1, 62, 62
1, 734208, Note_on_c, 1, 62, 0
1, 734208, Note_on_c, 1, 55, 62
1, 734464, Note_on_c, 0, 74, 0
1, 734464, Note_on_c, 0, 67, 77
1, 734464, Note_on_c, 1, 55, 0
1, 734464, Note_on_c, 1, 62, 63
1, 734720, Note_on_c, 0, 67, 0
1, 734720, Note_on_c, 0, 71, 79
1, 734720, Note_on_c, 1, 62, 0
1, 734720, Note_on_c, 1, 59, 64
1, 734976, Note_on_c, 0, 71, 0
1, 734976, Note_on_c, 0, 74, 79
1, 734976, Note_on_c, 1, 59, 0
1, 734976, Note_on_c, 1, 62, 65
1, 735232, Note_on_c, 0, 74, 0
1, 735232, Note_on_c, 0, 72, 80
1, 735232, Note_on_c, 1, 62, 0
1, 735232, Note_on_c, 1, 57, 65
1, 735488, Note_on_c, 0, 72, 0
1, 735488, Note_on_c, 0, 69, 80
1, 735488, Note_on_c, 1, 57, 0
1, 735488, Note_on_c, 1, 62, 65
1, 735744, Note_on_c, 0, 69, 0
1, 735744, Note_on_c, 0, 72, 82
1, 735744, Note_on_c, 1, 62, 0
1, 735744, Note_on_c, 1, 60, 66
1, 736000, Note_on_c, 0, 72, 0
1, 736000, Note_on_c, 0, 76, 82
1, 736000, Note_on_c, 1, 60, 0
1, 736000, Note_on_c, 1, 62, 66
1, 736256, Note_on_c, 0, 76, 0
1, 736256, Note_on_c, 0, 74, 83
1, 736256, Note_on_c, 1, 62, 0
1, 736256, Note_on_c, 1, 55, 67
1, 736512, Note_on_c, 1, 55, 0
1, 736512, Note_on_c, 1, 62, 65
1, 736768, Note_on_c, 1, 62, 0
1, 736768, Note_on_c, 1, 59, 63
1, 737024, Note_on_c, 0, 74, 0
1, 737024, Note_on_c, 0, 71, 74
1, 737024, Note_on_c, 1, 59, 0
1, 737024, Note_on_c, 1, 62, 62
1, 737280, Note_on_c, 0, 71, 0
1, 737280, Note_on_c, 0, 67, 70
1, 737280, Note_on_c, 1, 62, 0
1, 737280, Note_on_c, 1, 55, 63
1, 737357, Note_on_c, 0, 67, 0
1, 737536, Note_on_c, 0, 67, 70
1, 737536, Note_on_c, 1, 55, 0
1, 737536, Note_on_c, 1, 62, 63
1, 737613, Note_on_c, 0, 67, 0
1, 737792, Note_on_c, 0, 69, 72
1, 737792, Note_on_c, 1, 62, 0
1, 737792, Note_on_c, 1, 59, 64
1, 737869, Note_on_c, 0, 69, 0
1, 738048, Note_on_c, 0, 71, 73
1, 738048, Note_on_c, 1, 59, 0
1, 738048, Note_on_c, 1, 62, 65
1, 738125, Note_on_c, 0, 71, 0
1, 738304, Note_on_c, 0, 72, 74
1, 738304, Note_on_c, 1, 62, 0
1, 738304, Note_on_c, 1, 55, 66
1, 738381, Note_on_c, 0, 72, 0
1, 738560, Note_on_c, 0, 74, 75
1, 738560, Note_on_c, 1, 55, 0
1, 738560, Note_on_c, 1, 62, 67
1, 738637, Note_on_c, 0, 74, 0
1, 738816, Note_on_c, 0, 76, 77
1, 738816, Note_on_c, 1, 62, 0
1, 738816, Note_on_c, 1, 59, 68
1, 738893, Note_on_c, 0, 76, 0
1, 739072, Note_on_c, 0, 78, 78
1, 739072, Note_on_c, 1, 59, 0
1, 739072, Note_on_c, 1, 62, 69
1, 739149, Note_on_c, 0, 78, 0
1, 739328, Note_on_c, 0, 79, 79
1, 739328, Note_on_c, 1, 62, 0
1, 739328, Note_on_c, 1, 55, 69
1, 739584, Note_on_c, 0, 79, 0
1, 739584, Note_on_c, 0, 78, 79
1, 739584, Note_on_c, 1, 55, 0
1, 739584, Note_on_c, 1, 64, 69
1, 739840, Note_on_c, 0, 78, 0
1, 739840, Note_on_c, 0, 79, 81
1, 739840, Note_on_c, 1, 64, 0
1, 739840, Note_on_c, 1, 60, 70
1, 740096, Note_on_c, 0, 79, 0
1, 740096, Note_on_c, 0, 78, 82
1, 740096, Note_on_c, 1, 60, 0
1, 740096, Note_on_c, 1, 64, 71
1, 740352, Note_on_c, 0, 78, 0
1, 740352, Note_on_c, 0, 81, 89
1, 740352, Note_on_c, 1, 64, 0
1, 740352, Note_on_c, 1, 55, 71
1, 740608, Note_on_c, 0, 81, 0
1, 740608, Note_on_c, 0, 79, 83
1, 740608, Note_on_c, 1, 55, 0
1, 740608, Note_on_c, 1, 64, 69
1, 740864, Note_on_c, 0, 79, 0
1, 740864, Note_on_c, 0, 78, 82
1, 740864, Note_on_c, 1, 64, 0
1, 740864, Note_on_c, 1, 60, 68
1, 741120, Note_on_c, 0, 78, 0
1, 741120, Note_on_c, 0, 79, 81
1, 741120, Note_on_c, 1, 60, 0
1, 741120, Note_on_c, 1, 64, 68
1, 741376, Note_on_c, 0, 79, 0
1, 741376, Note_on_c, 0, 78, 85
1, 741376, Note_on_c, 1, 64, 0
1, 741376, Note_on_c, 1, 55, 66
1, 741632, Note_on_c, 0, 78, 0
1, 741632, Note_on_c, 0, 76, 80
1, 741632, Note_on_c, 1, 55, 0
1, 741632, Note_on_c, 1, 61, 64
1, 741888, Note_on_c, 0, 76, 0
1, 741888, Note_on_c, 0, 74, 79
1, 741888, Note_on_c, 1, 61, 0
1, 741888, Note_on_c, 1, 58, 62
1, 742144, Note_on_c, 0, 74, 0
1, 742144, Note_on_c, 0, 73, 78
1, 742144, Note_on_c, 1, 58, 0
1, 742144, Note_on_c, 1, 61, 61
1, 742400, Note_on_c, 0, 73, 0
1, 742400, Note_on_c, 0, 74, 77
1, 742400, Note_on_c, 1, 61, 0
1, 742400, Note_on_c, 1, 55, 61
1, 742656, Note_on_c, 0, 74, 0
1, 742656, Note_on_c, 0, 71, 76
1, 742656, Note_on_c, 1, 55, 0
1, 742656, Note_on_c, 1, 62, 60
1, 742912, Note_on_c, 0, 71, 0
1, 742912, Note_on_c, 0, 74, 75
1, 742912, Note_on_c, 1, 62, 0
1, 742912, Note_on_c, 1, 59, 60
1, 743168, Note_on_c, 0, 74, 0
1, 743168, Note_on_c, 0, 71, 74
1, 743168, Note_on_c, 1, 59, 0
1, 743168, Note_on_c, 1, 62, 59
1, 743424, Note_on_c, 0, 71, 0
1, 743424, Note_on_c, 0, 67, 73
1, 743424, Note_on_c, 1, 62, 0
1, 743424, Note_on_c, 1, 55, 59
1, 743680, Note_on_c, 1, 55, 0
1, 743680, Note_on_c, 1, 62, 56
1, 743936, Note_on_c, 1, 62, 0
1, 743936, Note_on_c, 1, 59, 57
1, 744192, Note_on_c, 1, 59, 0
1, 744192, Note_on_c, 1, 62, 58
1, 744448, Note_on_c, 0, 67, 0
1, 744448, Note_on_c, 1, 62, 0
1, 744448, Note_on_c, 1, 55, 60
1, 744704, Note_on_c, 1, 55, 0
1, 744704, Note_on_c, 1, 62, 60
1, 744960, Note_on_c, 1, 62, 0
1, 744960, Note_on_c, 1, 59, 60
1, 745216, Note_on_c, 1, 59, 0
1, 745216, Note_on_c, 1, 62, 61
1, 745472, Note_on_c, 0, 72, 83
1, 745472, Note_on_c, 1, 62, 0
1, 745472, Note_on_c, 1, 57, 61
1, 745728, Note_on_c, 0, 72, 0
1, 745728, Note_on_c, 0, 69, 79
1, 745728, Note_on_c, 1, 57, 0
1, 745728, Note_on_c, 1, 62, 60
1, 745984, Note_on_c, 0, 69, 0
1, 745984, Note_on_c, 0, 72, 75
1, 745984, Note_on_c, 1, 62, 0
1, 745984, Note_on_c, 1, 60, 58
1, 746240, Note_on_c, 0, 72, 0
1, 746240, Note_on_c, 0, 69, 71
1, 746240, Note_on_c, 1, 60, 0
1, 746240, Note_on_c, 1, 62, 57
1, 746496, Note_on_c, 0, 69, 0
1, 746496, Note_on_c, 0, 66, 70
1, 746496, Note_on_c, 1, 62, 0
1, 746496, Note_on_c, 1, 57, 59
1, 746573, Note_on_c, 0, 66, 0
1, 746752, Note_on_c, 0, 69, 71
1, 746752, Note_on_c, 1, 57, 0
1, 746752, Note_on_c, 1, 62, 60
1, 747008, Note_on_c, 0, 69, 0
1, 747008, Note_on_c, 0, 68, 71
1, 747008, Note_on_c, 1, 62, 0
1, 747008, Note_on_c, 1, 60, 61
1, 747264, Note_on_c, 0, 68, 0
1, 747264, Note_on_c, 0, 69, 73
1, 747264, Note_on_c, 1, 60, 0
1, 747264, Note_on_c, 1, 62, 61
1, 747520, Note_on_c, 0, 69, 0
1, 747520, Note_on_c, 0, 70, 73
1, 747520, Note_on_c, 1, 62, 0
1, 747520, Note_on_c, 1, 57, 63
1, 747776, Note_on_c, 0, 70, 0
1, 747776, Note_on_c, 0, 71, 74
1, 747776, Note_on_c, 1, 57, 0
1, 747776, Note_on_c, 1, 62, 63
1, 748032, Note_on_c, 0, 71, 0
1, 748032, Note_on_c, 0, 72, 74
1, 748032, Note_on_c, 1, 62, 0
1, 748032, Note_on_c, 1, 60, 65
1, 748288, Note_on_c, 0, 72, 0
1, 748288, Note_on_c, 0, 73, 76
1, 748288, Note_on_c, 1, 60, 0
1, 748288, Note_on_c, 1, 62, 66
1, 748544, Note_on_c, 0, 73, 0
1, 748544, Note_on_c, 0, 74, 76
1, 748544, Note_on_c, 1, 62, 0
1, 748544, Note_on_c, 1, 55, 66
1, 748800, Note_on_c, 0, 74, 0
1, 748800, Note_on_c, 0, 71, 76
1, 748800, Note_on_c, 1, 62, 67
1, 749056, Note_on_c, 0, 71, 0
1, 749056, Note_on_c, 0, 74, 77
1, 749056, Note_on_c, 1, 62, 0
1, 749056, Note_on_c, 1, 59, 67
1, 749312, Note_on_c, 0, 74, 0
1, 749312, Note_on_c, 0, 71, 79
1, 749312, Note_on_c, 1, 59, 0
1, 749312, Note_on_c, 1, 62, 68
1, 749568, Note_on_c, 0, 71, 0
1, 749568, Note_on_c, 0, 79, 79
1, 749568, Note_on_c, 1, 55, 0
1, 749568, Note_on_c, 1, 52, 68
1, 749568, Note_on_c, 1, 62, 0
1, 749824, Note_on_c, 1, 59, 69
1, 750080, Note_on_c, 1, 59, 0
1, 750080, Note_on_c, 1, 55, 69
1, 750336, Note_on_c, 1, 55, 0
1, 750336, Note_on_c, 1, 59, 69
1, 750592, Note_on_c, 0, 79, 0
1, 750592, Note_on_c, 1, 52, 0
1, 750592, Note_on_c, 1, 47, 69
1, 750592, Note_on_c, 1, 59, 0
1, 750848, Note_on_c, 0, 83, 82
1, 750848, Note_on_c, 1, 55, 70
1, 751104, Note_on_c, 0, 83, 0
1, 751104, Note_on_c, 0, 78, 82
1, 751104, Note_on_c, 1, 55, 0
1, 751104, Note_on_c, 1, 50, 70
1, 751360, Note_on_c, 0, 78, 0
1, 751360, Note_on_c, 0, 79, 82
1, 751360, Note_on_c, 1, 50, 0
1, 751360, Note_on_c, 1, 55, 70
1, 751616, Note_on_c, 0, 79, 0
1, 751616, Note_on_c, 0, 75, 88
1, 751616, Note_on_c, 1, 47, 0
1, 751616, Note_on_c, 1, 55, 0
1, 751616, Note_on_c, 1, 48, 71
1, 751872, Note_on_c, 0, 75, 0
1, 751872, Note_on_c, 0, 76, 82
1, 751872, Note_on_c, 1, 57, 70
1, 752128, Note_on_c, 0, 76, 0
1, 752128, Note_on_c, 0, 72, 82
1, 752128, Note_on_c, 1, 57, 0
1, 752128, Note_on_c, 1, 52, 70
1, 752384, Note_on_c, 0, 72, 0
1, 752384, Note_on_c, 0, 69, 82
1, 752384, Note_on_c, 1, 52, 0
1, 752384, Note_on_c, 1, 57, 70
1, 752640, Note_on_c, 0, 69, 0
1, 752640, Note_on_c, 0, 67, 81
1, 752640, Note_on_c, 1, 48, 0
1, 752640, Note_on_c, 1, 50, 69
1, 752640, Note_on_c, 1, 57, 0
1, 752896, Note_on_c, 1, 59, 69
1, 753152, Note_on_c, 1, 59, 0
1, 753152, Note_on_c, 1, 55, 69
1, 753408, Note_on_c, 0, 67, 0
1, 753408, Note_on_c, 0, 67, 80
1, 753408, Note_on_c, 1, 55, 0
1, 753408, Note_on_c, 1, 59, 69
1, 753664, Note_on_c, 0, 67, 0
1, 753664, Note_on_c, 0, 71, 85
1, 753664, Note_on_c, 1, 50, 0
1, 753664, Note_on_c, 1, 50, 69
1, 753664, Note_on_c, 1, 59, 0
1, 753920, Note_on_c, 0, 71, 0
1, 753920, Note_on_c, 0, 69, 79
1, 753920, Note_on_c, 1, 60, 69
1, 754176, Note_on_c, 0, 69, 0
1, 754176, Note_on_c, 0, 67, 79
1, 754176, Note_on_c, 1, 60, 0
1, 754176, Note_on_c, 1, 57, 69
1, 754432, Note_on_c, 0, 67, 0
1, 754432, Note_on_c, 0, 69, 79
1, 754432, Note_on_c, 1, 57, 0
1, 754432, Note_on_c, 1, 60, 68
1, 754688, Note_on_c, 0, 69, 0
1, 754688, Note_on_c, 0, 66, 75
1, 754688, Note_on_c, 0, 69, 75
1, 754688, Note_on_c, 1, 50, 0
1, 754688, Note_on_c, 1, 60, 0
1, 754688, Note_on_c, 1, 60, 67
1, 754688, Note_on_c, 1, 55, 72
1, 755712, Note_on_c, 0, 66, 0
1, 755712, Note_on_c, 0, 69, 0
1, 755712, Note_on_c, 0, 67, 62
1, 755712, Note_on_c, 1, 60, 0
1, 755712, Note_on_c, 1, 59, 57
1, 756736, Note_on_c, 0, 67, 0
1, 756736, Note_on_c, 1, 59, 0
1, 756736, Note_on_c, 1, 55, 0
1, 757760, Note_on_c, 0, 74, 54
1, 757760, Note_on_c, 1, 62, 44
1, 758016, Note_on_c, 1, 62, 0
1, 758016, Note_on_c, 1, 69, 45
1, 758272, Note_on_c, 1, 69, 0
1, 758272, Note_on_c, 1, 66, 46
1, 758528, Note_on_c, 1, 66, 0
1, 758528, Note_on_c, 1, 69, 47
1, 758784, Note_on_c, 1, 69, 0
1, 758784, Note_on_c, 1, 62, 47
1, 759040, Note_on_c, 0, 74, 0
1, 759040, Note_on_c, 0, 73, 58
1, 759040, Note_on_c, 1, 62, 0
1, 759040, Note_on_c, 1, 69, 48
1, 759296, Note_on_c, 0, 73, 0
1, 759296, Note_on_c, 0, 76, 60
1, 759296, Note_on_c, 1, 69, 0
1, 759296, Note_on_c, 1, 66, 49
1, 759552, Note_on_c, 0, 76, 0
1, 759552, Note_on_c, 0, 74, 60
1, 759552, Note_on_c, 1, 66, 0
1, 759552, Note_on_c, 1, 69, 50
1, 759808, Note_on_c, 0, 74, 0
1, 759808, Note_on_c, 0, 79, 66
1, 759808, Note_on_c, 1, 69, 0
1, 759808, Note_on_c, 1, 62, 50
1, 760064, Note_on_c, 0, 79, 0
1, 760064, Note_on_c, 0, 78, 61
1, 760064, Note_on_c, 1, 62, 0
1, 760064, Note_on_c, 1, 69, 50
1, 760320, Note_on_c, 0, 78, 0
1, 760320, Note_on_c, 0, 76, 63
1, 760320, Note_on_c, 1, 69, 0
1, 760320, Note_on_c, 1, 66, 51
1, 760576, Note_on_c, 0, 76, 0
1, 760576, Note_on_c, 0, 74, 63
1, 760576, Note_on_c, 1, 66, 0
1, 760576, Note_on_c, 1, 69, 51
1, 760832, Note_on_c, 0, 74, 0
1, 760832, Note_on_c, 0, 73, 64
1, 760832, Note_on_c, 1, 69, 0
1, 760832, Note_on_c, 1, 64, 52
1, 761088, Note_on_c, 1, 64, 0
1, 761088, Note_on_c, 1, 69, 50
1, 761344, Note_on_c, 1, 69, 0
1, 761344, Note_on_c, 1, 67, 47
1, 761600, Note_on_c, 0, 73, 0
1, 761600, Note_on_c, 0, 74, 57
1, 761600, Note_on_c, 1, 67, 0
1, 761600, Note_on_c, 1, 69, 44
1, 761856, Note_on_c, 0, 74, 0
1, 761856, Note_on_c, 0, 76, 54
1, 761856, Note_on_c, 1, 69, 0
1, 761856, Note_on_c, 1, 64, 44
1, 762112, Note_on_c, 1, 64, 0
1, 762112, Note_on_c, 1, 69, 45
1, 762368, Note_on_c, 1, 69, 0
1, 762368, Note_on_c, 1, 67, 45
1, 762624, Note_on_c, 1, 67, 0
1, 762624, Note_on_c, 1, 69, 45
1, 762880, Note_on_c, 0, 76, 0
1, 762880, Note_on_c, 1, 69, 0
1, 762880, Note_on_c, 1, 64, 46
1, 763136, Note_on_c, 1, 64, 0
1, 763136, Note_on_c, 1, 69, 47
1, 763392, Note_on_c, 1, 69, 0
1, 763392, Note_on_c, 1, 67, 47
1, 763648, Note_on_c, 1, 67, 0
1, 763648, Note_on_c, 1, 69, 48
1, 763904, Note_on_c, 0, 76, 61
1, 763904, Note_on_c, 1, 69, 0
1, 763904, Note_on_c, 1, 61, 53
1, 764160, Note_on_c, 1, 61, 0
1, 764160, Note_on_c, 1, 69, 53
1, 764416, Note_on_c, 1, 69, 0
1, 764416, Note_on_c, 1, 67, 54
1, 764672, Note_on_c, 1, 67, 0
1, 764672, Note_on_c, 1, 69, 55
1, 764928, Note_on_c, 1, 69, 0
1, 764928, Note_on_c, 1, 61, 55
1, 765184, Note_on_c, 0, 76, 0
1, 765184, Note_on_c, 0, 75, 63
1, 765184, Note_on_c, 1, 61, 0
1, 765184, Note_on_c, 1, 69, 55
1, 765440, Note_on_c, 0, 75, 0
1, 765440, Note_on_c, 0, 78, 64
1, 765440, Note_on_c, 1, 69, 0
1, 765440, Note_on_c, 1, 67, 56
1, 765696, Note_on_c, 0, 78, 0
1, 765696, Note_on_c, 0, 76, 64
1, 765696, Note_on_c, 1, 67, 0
1, 765696, Note_on_c, 1, 69, 56
1, 765952, Note_on_c, 0, 76, 0
1, 765952, Note_on_c, 0, 81, 70
1, 765952, Note_on_c, 1, 69, 0
1, 765952, Note_on_c, 1, 61, 57
1, 766208, Note_on_c, 0, 81, 0
1, 766208, Note_on_c, 0, 79, 66
1, 766208, Note_on_c, 1, 61, 0
1, 766208, Note_on_c, 1, 69, 57
1, 766464, Note_on_c, 0, 79, 0
1, 766464, Note_on_c, 0, 78, 66
1, 766464, Note_on_c, 1, 69, 0
1, 766464, Note_on_c, 1, 67, 57
1, 766720, Note_on_c, 0, 78, 0
1, 766720, Note_on_c, 0, 76, 66
1, 766720, Note_on_c, 1, 67, 0
1, 766720, Note_on_c, 1, 69, 58
1, 766976, Note_on_c, 0, 76, 0
1, 766976, Note_on_c, 0, 74, 67
1, 766976, Note_on_c, 1, 69, 0
1, 766976, Note_on_c, 1, 62, 58
1, 767232, Note_on_c, 1, 62, 0
1, 767232, Note_on_c, 1, 69, 55
1, 767488, Note_on_c, 1, 69, 0
1, 767488, Note_on_c, 1, 66, 52
1, 767744, Note_on_c, 0, 74, 0
1, 767744, Note_on_c, 0, 76, 60
1, 767744, Note_on_c, 1, 66, 0
1, 767744, Note_on_c, 1, 69, 49
1, 768000, Note_on_c, 0, 76, 0
1, 768000, Note_on_c, 0, 78, 57
1, 768000, Note_on_c, 1, 69, 0
1, 768000, Note_on_c, 1, 61, 59
1, 768256, Note_on_c, 1, 61, 0
1, 768256, Note_on_c, 1, 69, 52
1, 768512, Note_on_c, 1, 69, 0
1, 768512, Note_on_c, 1, 62, 53
1, 768768, Note_on_c, 1, 62, 0
1, 768768, Note_on_c, 1, 69, 56
1, 769024, Note_on_c, 0, 78, 0
1, 769024, Note_on_c, 1, 69, 0
1, 769024, Note_on_c, 1, 59, 57
1, 769280, Note_on_c, 1, 59, 0
1, 769280, Note_on_c, 1, 67, 60
1, 769536, Note_on_c, 1, 67, 0
1, 769536, Note_on_c, 1, 62, 61
1, 769792, Note_on_c, 1, 62, 0
1, 769792, Note_on_c, 1, 67, 64
1, 770048, Note_on_c, 0, 78, 83
1, 770048, Note_on_c, 1, 67, 0
1, 770048, Note_on_c, 1, 57, 48
1, 770304, Note_on_c, 1, 57, 0
1, 770304, Note_on_c, 1, 66, 50
1, 770560, Note_on_c, 1, 66, 0
1, 770560, Note_on_c, 1, 62, 50
1, 770816, Note_on_c, 1, 62, 0
1, 770816, Note_on_c, 1, 66, 50
1, 771072, Note_on_c, 1, 66, 0
1, 771072, Note_on_c, 1, 55, 51
1, 771328, Note_on_c, 0, 78, 0
1, 771328, Note_on_c, 0, 76, 56
1, 771328, Note_on_c, 1, 55, 0
1, 771328, Note_on_c, 1, 64, 51
1, 771584, Note_on_c, 0, 76, 0
1, 771584, Note_on_c, 0, 79, 57
1, 771584, Note_on_c, 1, 64, 0
1, 771584, Note_on_c, 1, 61, 52
1, 771840, Note_on_c, 0, 79, 0
1, 771840, Note_on_c, 0, 78, 57
1, 771840, Note_on_c, 1, 61, 0
1, 771840, Note_on_c, 1, 64, 52
1, 772096, Note_on_c, 0, 78, 0
1, 772096, Note_on_c, 0, 83, 63
1, 772096, Note_on_c, 1, 64, 0
1, 772096, Note_on_c, 1, 54, 52
1, 772352, Note_on_c, 0, 83, 0
1, 772352, Note_on_c, 0, 81, 58
1, 772352, Note_on_c, 1, 54, 0
1, 772352, Note_on_c, 1, 62, 53
1, 772608, Note_on_c, 0, 81, 0
1, 772608, Note_on_c, 0, 79, 58
1, 772608, Note_on_c, 1, 62, 0
1, 772608, Note_on_c, 1, 57, 53
1, 772864, Note_on_c, 0, 79, 0
1, 772864, Note_on_c, 0, 78, 59
1, 772864, Note_on_c, 1, 57, 0
1, 772864, Note_on_c, 1, 62, 53
1, 773120, Note_on_c, 0, 78, 0
1, 773120, Note_on_c, 0, 76, 89
1, 773120, Note_on_c, 1, 62, 0
1, 773120, Note_on_c, 1, 59, 51
1, 773376, Note_on_c, 1, 59, 0
1, 773376, Note_on_c, 1, 67, 54
1, 773632, Note_on_c, 1, 67, 0
1, 773632, Note_on_c, 1, 64, 55
1, 773888, Note_on_c, 1, 64, 0
1, 773888, Note_on_c, 1, 67, 55
1, 774144, Note_on_c, 1, 67, 0
1, 774144, Note_on_c, 1, 57, 55
1, 774400, Note_on_c, 0, 76, 0
1, 774400, Note_on_c, 0, 75, 61
1, 774400, Note_on_c, 1, 57, 0
1, 774400, Note_on_c, 1, 66, 56
1, 774656, Note_on_c, 0, 75, 0
1, 774656, Note_on_c, 0, 78, 61
1, 774656, Note_on_c, 1, 66, 0
1, 774656, Note_on_c, 1, 63, 56
1, 774912, Note_on_c, 0, 78, 0
1, 774912, Note_on_c, 0, 76, 62
1, 774912, Note_on_c, 1, 63, 0
1, 774912, Note_on_c, 1, 66, 56
1, 775168, Note_on_c, 0, 76, 0
1, 775168, Note_on_c, 0, 81, 68
1, 775168, Note_on_c, 1, 66, 0
1, 775168, Note_on_c, 1, 55, 57
1, 775424, Note_on_c, 0, 81, 0
1, 775424, Note_on_c, 0, 79, 63
1, 775424, Note_on_c, 1, 55, 0
1, 775424, Note_on_c, 1, 64, 57
1, 775680, Note_on_c, 0, 79, 0
1, 775680, Note_on_c, 0, 78, 63
1, 775680, Note_on_c, 1, 64, 0
1, 775680, Note_on_c, 1, 59, 57
1, 775936, Note_on_c, 0, 78, 0
1, 775936, Note_on_c, 0, 76, 63
1, 775936, Note_on_c, 1, 59, 0
1, 775936, Note_on_c, 1, 64, 57
1, 776192, Note_on_c, 0, 76, 0
1, 776192, Note_on_c, 0, 76, 69
1, 776192, Note_on_c, 1, 64, 0
1, 776192, Note_on_c, 1, 57, 58
1, 776448, Note_on_c, 0, 76, 0
1, 776448, Note_on_c, 0, 74, 63
1, 776448, Note_on_c, 1, 57, 0
1, 776448, Note_on_c, 1, 66, 57
1, 776704, Note_on_c, 0, 74, 0
1, 776704, Note_on_c, 0, 74, 77
1, 776704, Note_on_c, 1, 66, 0
1, 776704, Note_on_c, 1, 62, 57
1, 776960, Note_on_c, 1, 62, 0
1, 776960, Note_on_c, 1, 66, 56
1, 777216, Note_on_c, 1, 66, 0
1, 777216, Note_on_c, 1, 57, 56
1, 777472, Note_on_c, 0, 74, 0
1, 777472, Note_on_c, 0, 69, 61
1, 777472, Note_on_c, 1, 57, 0
1, 777472, Note_on_c, 1, 66, 55
1, 777728, Note_on_c, 0, 69, 0
1, 777728, Note_on_c, 0, 74, 60
1, 777728, Note_on_c, 1, 66, 0
1, 777728, Note_on_c, 1, 62, 55
1, 777984, Note_on_c, 0, 74, 0
1, 777984, Note_on_c, 0, 78, 60
1, 777984, Note_on_c, 1, 62, 0
1, 777984, Note_on_c, 1, 66, 54
1, 778240, Note_on_c, 0, 78, 0
1, 778240, Note_on_c, 0, 78, 64
1, 778240, Note_on_c, 0, 73, 58
1, 778240, Note_on_c, 1, 66, 0
1, 778240, Note_on_c, 1, 57, 53
1, 778496, Note_on_c, 0, 78, 0
1, 778496, Note_on_c, 0, 76, 59
1, 778496, Note_on_c, 1, 57, 0
1, 778496, Note_on_c, 1, 67, 53
1, 778752, Note_on_c, 0, 76, 0
1, 778752, Note_on_c, 0, 74, 58
1, 778752, Note_on_c, 1, 67, 0
1, 778752, Note_on_c, 1, 64, 53
1, 779008, Note_on_c, 0, 74, 0
1, 779008, Note_on_c, 0, 76, 58
1, 779008, Note_on_c, 1, 64, 0
1, 779008, Note_on_c, 1, 67, 52
1, 779264, Note_on_c, 0, 76, 0
1, 779264, Note_on_c, 0, 73, 0
1, 779264, Note_on_c, 0, 73, 57
1, 779264, Note_on_c, 0, 76, 57
1, 779264, Note_on_c, 1, 67, 0
1, 779264, Note_on_c, 1, 67, 52
1, 779264, Note_on_c, 1, 62, 50
1, 780288, Note_on_c, 0, 73, 0
1, 780288, Note_on_c, 0, 76, 0
1, 780288, Note_on_c, 0, 74, 54
1, 780288, Note_on_c, 1, 67, 0
1, 780288, Note_on_c, 1, 66, 49
1, 780365, Note_on_c, 0, 74, 0
1, 780544, Note_on_c, 0, 75, 54
1, 780621, Note_on_c, 0, 75, 0
1, 780800, Note_on_c, 0, 76, 58
1, 780877, Note_on_c, 0, 76, 0
1, 781056, Note_on_c, 0, 75, 62
1, 781133, Note_on_c, 0, 75, 0
1, 781312, Note_on_c, 0, 78, 66
1, 781312, Note_on_c, 1, 66, 0
1, 781312, Note_on_c, 1, 62, 0
1, 781389, Note_on_c, 0, 78, 0
1, 781568, Note_on_c, 0, 76, 69
1, 781645, Note_on_c, 0, 76, 0
1, 781824, Note_on_c, 0, 74, 73
1, 781901, Note_on_c, 0, 74, 0
1, 782080, Note_on_c, 0, 72, 77
1, 782157, Note_on_c, 0, 72, 0
1, 782336, Note_on_c, 0, 74, 73
1, 782336, Note_on_c, 1, 55, 59
1, 782592, Note_on_c, 1, 55, 0
1, 782592, Note_on_c, 1, 62, 60
1, 782848, Note_on_c, 1, 62, 0
1, 782848, Note_on_c, 1, 59, 61
1, 783104, Note_on_c, 1, 59, 0
1, 783104, Note_on_c, 1, 62, 62
1, 783360, Note_on_c, 1, 62, 0
1, 783360, Note_on_c, 1, 55, 62
1, 783616, Note_on_c, 0, 74, 0
1, 783616, Note_on_c, 0, 67, 77
1, 783616, Note_on_c, 1, 55, 0
1, 783616, Note_on_c, 1, 62, 63
1, 783872, Note_on_c, 0, 67, 0
1, 783872, Note_on_c, 0, 71, 79
1, 783872, Note_on_c, 1, 62, 0
1, 783872, Note_on_c, 1, 59, 64
1, 784128, Note_on_c, 0, 71, 0
1, 784128, Note_on_c, 0, 74, 79
1, 784128, Note_on_c, 1, 59, 0
1, 784128, Note_on_c, 1, 62, 65
1, 784384, Note_on_c, 0, 74, 0
1, 784384, Note_on_c, 0, 72, 80
1, 784384, Note_on_c, 1, 62, 0
1, 784384, Note_on_c, 1, 57, 65
1, 784640, Note_on_c, 0, 72, 0
1, 784640, Note_on_c, 0, 69, 80
1, 784640, Note_on_c, 1, 57, 0
1, 784640, Note_on_c, 1, 62, 65
1, 784896, Note_on_c, 0, 69, 0
1, 784896, Note_on_c, 0, 72, 82
1, 784896, Note_on_c, 1, 62, 0
1, 784896, Note_on_c, 1, 60, 66
1, 785152, Note_on_c, 0, 72, 0
1, 785152, Note_on_c, 0, 76, 82
1, 785152, Note_on_c, 1, 60, 0
1, 785152, Note_on_c, 1, 62, 66
1, 785408, Note_on_c, 0, 76, 0
1, 785408, Note_on_c, 0, 74, 83
1, 785408, Note_on_c, 1, 62, 0
1, 785408, Note_on_c, 1, 55, 67
1, 785664, Note_on_c, 1, 55, 0
1, 785664, Note_on_c, 1, 62, 65
1, 785920, Note_on_c, 1, 62, 0
1, 785920, Note_on_c, 1, 59, 63
1, 786176, Note_on_c, 0, 74, 0
1, 786176, Note_on_c, 0, 71, 74
1, 786176, Note_on_c, 1, 59, 0
1, 786176, Note_on_c, 1, 62, 62
1, 786432, Note_on_c, 0, 71, 0
1, 786432, Note_on_c, 0, 67, 70
1, 786432, Note_on_c, 1, 62, 0
1, 786432, Note_on_c, 1, 55, 63
1, 786509, Note_on_c, 0, 67, 0
1, 786688, Note_on_c, 0, 67, 70
1, 786688, Note_on_c, 1, 55, 0
1, 786688, Note_on_c, 1, 62, 63
1, 786765, Note_on_c, 0, 67, 0
1, 786944, Note_on_c, 0, 69, 72
1, 786944, Note_on_c, 1, 62, 0
1, 786944, Note_on_c, 1, 59, 64
1, 787021, Note_on_c, 0, 69, 0
1, 787200, Note_on_c, 0, 71, 73
1, 787200, Note_on_c, 1, 59, 0
1, 787200, Note_on_c, 1, 62, 65
1, 787277, Note_on_c, 0, 71, 0
1, 787456, Note_on_c, 0, 72, 74
1, 787456, Note_on_c, 1, 62, 0
1, 787456, Note_on_c, 1, 55, 66
1, 787533, Note_on_c, 0, 72, 0
1, 787712, Note_on_c, 0, 74, 75
1, 787712, Note_on_c, 1, 55, 0
1, 787712, Note_on_c, 1, 62, 67
1, 787789, Note_on_c, 0, 74, 0
1, 787968, Note_on_c, 0, 76, 77
1, 787968, Note_on_c, 1, 62, 0
1, 787968, Note_on_c, 1, 59, 68
1, 788045, Note_on_c, 0, 76, 0
1, 788224, Note_on_c, 0, 78, 78
1, 788224, Note_on_c, 1, 59, 0
1, 788224, Note_on_c, 1, 62, 69
1, 788301, Note_on_c, 0, 78, 0
1, 788480, Note_on_c, 0, 79, 79
1, 788480, Note_on_c, 1, 62, 0
1, 788480, Note_on_c, 1, 55, 69
1, 788736, Note_on_c, 0, 79, 0
1, 788736, Note_on_c, 0, 78, 79
1, 788736, Note_on_c, 1, 55, 0
1, 788736, Note_on_c, 1, 64, 69
1, 788992, Note_on_c, 0, 78, 0
1, 788992, Note_on_c, 0, 79, 81
1, 788992, Note_on_c, 1, 64, 0
1, 788992, Note_on_c, 1, 60, 70
1, 789248, Note_on_c, 0, 79, 0
1, 789248, Note_on_c, 0, 78, 82
1, 789248, Note_on_c, 1, 60, 0
1, 789248, Note_on_c, 1, 64, 71
1, 789504, Note_on_c, 0, 78, 0
1, 789504, Note_on_c, 0, 81, 89
1, 789504, Note_on_c, 1, 64, 0
1, 789504, Note_on_c, 1, 55, 71
1, 789760, Note_on_c, 0, 81, 0
1, 789760, Note_on_c, 0, 79, 83
1, 789760, Note_on_c, 1, 55, 0
1, 789760, Note_on_c, 1, 64, 69
1, 790016, Note_on_c, 0, 79, 0
1, 790016, Note_on_c, 0, 78, 82
1, 790016, Note_on_c, 1, 64, 0
1, 790016, Note_on_c, 1, 60, 68
1, 790272, Note_on_c, 0, 78, 0
1, 790272, Note_on_c, 0, 79, 81
1, 790272, Note_on_c, 1, 60, 0
1, 790272, Note_on_c, 1, 64, 68
1, 790528, Note_on_c, 0, 79, 0
1, 790528, Note_on_c, 0, 78, 85
1, 790528, Note_on_c, 1, 64, 0
1, 790528, Note_on_c, 1, 55, 66
1, 790784, Note_on_c, 0, 78, 0
1, 790784, Note_on_c, 0, 76, 80
1, 790784, Note_on_c, 1, 55, 0
1, 790784, Note_on_c, 1, 61, 64
1, 791040, Note_on_c, 0, 76, 0
1, 791040, Note_on_c, 0, 74, 79
1, 791040, Note_on_c, 1, 61, 0
1, 791040, Note_on_c, 1, 58, 62
1, 791296, Note_on_c, 0, 74, 0
1, 791296, Note_on_c, 0, 73, 78
1, 791296, Note_on_c, 1, 58, 0
1, 791296, Note_on_c, 1, 61, 61
1, 791552, Note_on_c, 0, 73, 0
1, 791552, Note_on_c, 0, 74, 77
1, 791552, Note_on_c, 1, 61, 0
1, 791552, Note_on_c, 1, 55, 61
1, 791808, Note_on_c, 0, 74, 0
1, 791808, Note_on_c, 0, 71, 76
1, 791808, Note_on_c, 1, 55, 0
1, 791808, Note_on_c, 1, 62, 60
1, 792064, Note_on_c, 0, 71, 0
1, 792064, Note_on_c, 0, 74, 75
1, 792064, Note_on_c, 1, 62, 0
1, 792064, Note_on_c, 1, 59, 60
1, 792320, Note_on_c, 0, 74, 0
1, 792320, Note_on_c, 0, 71, 74
1, 792320, Note_on_c, 1, 59, 0
1, 792320, Note_on_c, 1, 62, 59
1, 792576, Note_on_c, 0, 71, 0
1, 792576, Note_on_c, 0, 67, 73
1, 792576, Note_on_c, 1, 62, 0
1, 792576, Note_on_c, 1, 55, 59
1, 792832, Note_on_c, 1, 55, 0
1, 792832, Note_on_c, 1, 62, 56
1, 793088, Note_on_c, 1, 62, 0
1, 793088, Note_on_c, 1, 59, 57
1, 793344, Note_on_c, 1, 59, 0
1, 793344, Note_on_c, 1, 62, 58
1, 793600, Note_on_c, 0, 67, 0
1, 793600, Note_on_c, 1, 62, 0
1, 793600, Note_on_c, 1, 55, 60
1, 793856, Note_on_c, 1, 55, 0
1, 793856, Note_on_c, 1, 62, 60
1, 794112, Note_on_c, 1, 62, 0
1, 794112, Note_on_c, 1, 59, 60
1, 794368, Note_on_c, 1, 59, 0
1, 794368, Note_on_c, 1, 62, 61
1, 794624, Note_on_c, 0, 72, 83
1, 794624, Note_on_c, 1, 62, 0
1, 794624, Note_on_c, 1, 57, 61
1, 794880, Note_on_c, 0, 72, 0
1, 794880, Note_on_c, 0, 69, 79
1, 794880, Note_on_c, 1, 57, 0
1, 794880, Note_on_c, 1, 62, 60
1, 795136, Note_on_c, 0, 69, 0
1, 795136, Note_on_c, 0, 72, 75
1, 795136, Note_on_c, 1, 62, 0
1, 795136, Note_on_c, 1, 60, 58
1, 795392, Note_on_c, 0, 72, 0
1, 795392, Note_on_c, 0, 69, 71
1, 795392, Note_on_c, 1, 60, 0
1, 795392, Note_on_c, 1, 62, 57
1, 795648, Note_on_c, 0, 69, 0
1, 795648, Note_on_c, 0, 66, 70
1, 795648, Note_on_c, 1, 62, 0
1, 795648, Note_on_c, 1, 57, 59
1, 795725, Note_on_c, 0, 66, 0
1, 795904, Note_on_c, 0, 69, 71
1, 795904, Note_on_c, 1, 57, 0
1, 795904, Note_on_c, 1, 62, 60
1, 796160, Note_on_c, 0, 69, 0
1, 796160, Note_on_c, 0, 68, 71
1, 796160, Note_on_c, 1, 62, 0
1, 796160, Note_on_c, 1, 60, 61
1, 796416, Note_on_c, 0, 68, 0
1, 796416, Note_on_c, 0, 69, 73
1, 796416, Note_on_c, 1, 60, 0
1, 796416, Note_on_c, 1, 62, 61
1, 796672, Note_on_c, 0, 69, 0
1, 796672, Note_on_c, 0, 70, 73
1, 796672, Note_on_c, 1, 62, 0
1, 796672, Note_on_c, 1, 57, 63
1, 796928, Note_on_c, 0, 70, 0
1, 796928, Note_on_c, 0, 71, 74
1, 796928, Note_on_c, 1, 57, 0
1, 796928, Note_on_c, 1, 62, 63
1, 797184, Note_on_c, 0, 71, 0
1, 797184, Note_on_c, 0, 72, 74
1, 797184, Note_on_c, 1, 62, 0
1, 797184, Note_on_c, 1, 60, 65
1, 797440, Note_on_c, 0, 72, 0
1, 797440, Note_on_c, 0, 73, 76
1, 797440, Note_on_c, 1, 60, 0
1, 797440, Note_on_c, 1, 62, 66
1, 797696, Note_on_c, 0, 73, 0
1, 797696, Note_on_c, 0, 74, 76
1, 797696, Note_on_c, 1, 62, 0
1, 797696, Note_on_c, 1, 55, 66
1, 797952, Note_on_c, 0, 74, 0
1, 797952, Note_on_c, 0, 71, 76
1, 797952, Note_on_c, 1, 62, 67
1, 798208, Note_on_c, 0, 71, 0
1, 798208, Note_on_c, 0, 74, 77
1, 798208, Note_on_c, 1, 62, 0
1, 798208, Note_on_c, 1, 59, 67
1, 798464, Note_on_c, 0, 74, 0
1, 798464, Note_on_c, 0, 71, 79
1, 798464, Note_on_c, 1, 59, 0
1, 798464, Note_on_c, 1, 62, 68
1, 798720, Note_on_c, 0, 71, 0
1, 798720, Note_on_c, 0, 79, 79
1, 798720, Note_on_c, 1, 55, 0
1, 798720, Note_on_c, 1, 52, 68
1, 798720, Note_on_c, 1, 62, 0
1, 798976, Note_on_c, 1, 59, 69
1, 799232, Note_on_c, 1, 59, 0
1, 799232, Note_on_c, 1, 55, 69
1, 799488, Note_on_c, 1, 55, 0
1, 799488, Note_on_c, 1, 59, 69
1, 799744, Note_on_c, 0, 79, 0
1, 799744, Note_on_c, 1, 52, 0
1, 799744, Note_on_c, 1, 47, 69
1, 799744, Note_on_c, 1, 59, 0
1, 800000, Note_on_c, 0, 83, 82
1, 800000, Note_on_c, 1, 55, 70
1, 800256, Note_on_c, 0, 83, 0
1, 800256, Note_on_c, 0, 78, 82
1, 800256, Note_on_c, 1, 55, 0
1, 800256, Note_on_c, 1, 50, 70
1, 800512, Note_on_c, 0, 78, 0
1, 800512, Note_on_c, 0, 79, 82
1, 800512, Note_on_c, 1, 50, 0
1, 800512, Note_on_c, 1, 55, 70
1, 800768, Note_on_c, 0, 79, 0
1, 800768, Note_on_c, 0, 75, 88
1, 800768, Note_on_c, 1, 47, 0
1, 800768, Note_on_c, 1, 55, 0
1, 800768, Note_on_c, 1, 48, 71
1, 801024, Note_on_c, 0, 75, 0
1, 801024, Note_on_c, 0, 76, 82
1, 801024, Note_on_c, 1, 57, 70
1, 801280, Note_on_c, 0, 76, 0
1, 801280, Note_on_c, 0, 72, 82
1, 801280, Note_on_c, 1, 57, 0
1, 801280, Note_on_c, 1, 52, 70
1, 801536, Note_on_c, 0, 72, 0
1, 801536, Note_on_c, 0, 69, 82
1, 801536, Note_on_c, 1, 52, 0
1, 801536, Note_on_c, 1, 57, 70
1, 801792, Note_on_c, 0, 69, 0
1, 801792, Note_on_c, 0, 67, 81
1, 801792, Note_on_c, 1, 48, 0
1, 801792, Note_on_c, 1, 50, 69
1, 801792, Note_on_c, 1, 57, 0
1, 802048, Note_on_c, 1, 59, 69
1, 802304, Note_on_c, 1, 59, 0
1, 802304, Note_on_c, 1, 55, 69
1, 802560, Note_on_c, 0, 67, 0
1, 802560, Note_on_c, 0, 67, 80
1, 802560, Note_on_c, 1, 55, 0
1, 802560, Note_on_c, 1, 59, 69
1, 802816, Note_on_c, 0, 67, 0
1, 802816, Note_on_c, 0, 71, 85
1, 802816, Note_on_c, 1, 50, 0
1, 802816, Note_on_c, 1, 50, 69
1, 802816, Note_on_c, 1, 59, 0
1, 803072, Note_on_c, 0, 71, 0
1, 803072, Note_on_c, 0, 69, 79
1, 803072, Note_on_c, 1, 60, 69
1, 803328, Note_on_c, 0, 69, 0
1, 803328, Note_on_c, 0, 67, 79
1, 803328, Note_on_c, 1, 60, 0
1, 803328, Note_on_c, 1, 57, 69
1, 803584, Note_on_c, 0, 67, 0
1, 803584, Note_on_c, 0, 69, 79
1, 803584, Note_on_c, 1, 57, 0
1, 803584, Note_on_c, 1, 60, 68
1, 803840, Note_on_c, 0, 69, 0
1, 803840, Note_on_c, 0, 66, 75
1, 803840, Note_on_c, 0, 69, 75
1, 803840, Note_on_c, 1, 50, 0
1, 803840, Note_on_c, 1, 60, 0
1, 803840, Note_on_c, 1, 60, 67
1, 803840, Note_on_c, 1, 55, 72
1, 804864, Note_on_c, 0, 66, 0
1, 804864, Note_on_c, 0, 69, 0
1, 804864, Note_on_c, 0, 67, 62
1, 804864, Note_on_c, 1, 60, 0
1, 804864, Note_on_c, 1, 59, 57
1, 805888, Note_on_c, 0, 67, 0
1, 805888, Note_on_c, 1, 59, 0
1, 805888, Note_on_c, 1, 55, 0
1, 806912, Note_on_c, 0, 70, 46
1, 806912, Note_on_c, 1, 55, 46
1, 807168, Note_on_c, 1, 55, 0
1, 807168, Note_on_c, 1, 62, 46
1, 807424, Note_on_c, 1, 62, 0
1, 807424, Note_on_c, 1, 58, 48
1, 807680, Note_on_c, 1, 58, 0
1, 807680, Note_on_c, 1, 62, 48
1, 807936, Note_on_c, 1, 62, 0
1, 807936, Note_on_c, 1, 55, 49
1, 808192, Note_on_c, 0, 70, 0
1, 808192, Note_on_c, 0, 69, 50
1, 808192, Note_on_c, 1, 55, 0
1, 808192, Note_on_c, 1, 62, 50
1, 808448, Note_on_c, 0, 69, 0
1, 808448, Note_on_c, 0, 72, 51
1, 808448, Note_on_c, 1, 62, 0
1, 808448, Note_on_c, 1, 58, 51
1, 808704, Note_on_c, 0, 72, 0
1, 808704, Note_on_c, 0, 70, 52
1, 808704, Note_on_c, 1, 58, 0
1, 808704, Note_on_c, 1, 62, 52
1, 808960, Note_on_c, 0, 70, 0
1, 808960, Note_on_c, 0, 70, 56
1, 808960, Note_on_c, 1, 62, 0
1, 808960, Note_on_c, 1, 57, 52
1, 809216, Note_on_c, 0, 70, 0
1, 809216, Note_on_c, 0, 69, 53
1, 809216, Note_on_c, 1, 57, 0
1, 809216, Note_on_c, 1, 62, 53
1, 809472, Note_on_c, 0, 69, 0
1, 809472, Note_on_c, 0, 67, 54
1, 809472, Note_on_c, 1, 62, 0
1, 809472, Note_on_c, 1, 60, 54
1, 809728, Note_on_c, 0, 67, 0
1, 809728, Note_on_c, 0, 66, 55
1, 809728, Note_on_c, 1, 60, 0
1, 809728, Note_on_c, 1, 62, 55
1, 809984, Note_on_c, 0, 66, 0
1, 809984, Note_on_c, 0, 67, 55
1, 809984, Note_on_c, 1, 62, 0
1, 809984, Note_on_c, 1, 55, 52
1, 810240, Note_on_c, 1, 55, 0
1, 810240, Note_on_c, 1, 62, 49
1, 810496, Note_on_c, 1, 62, 0
1, 810496, Note_on_c, 1, 58, 47
1, 810752, Note_on_c, 0, 67, 0
1, 810752, Note_on_c, 0, 70, 48
1, 810752, Note_on_c, 1, 58, 0
1, 810752, Note_on_c, 1, 62, 45
1, 811008, Note_on_c, 0, 70, 0
1, 811008, Note_on_c, 0, 74, 46
1, 811008, Note_on_c, 1, 62, 0
1, 811008, Note_on_c, 1, 55, 43
1, 811264, Note_on_c, 1, 55, 0
1, 811264, Note_on_c, 1, 62, 40
1, 811520, Note_on_c, 1, 62, 0
1, 811520, Note_on_c, 1, 58, 41
1, 811776, Note_on_c, 1, 58, 0
1, 811776, Note_on_c, 1, 62, 41
1, 812032, Note_on_c, 0, 74, 0
1, 812032, Note_on_c, 1, 62, 0
1, 812032, Note_on_c, 1, 55, 42
1, 812288, Note_on_c, 1, 55, 0
1, 812288, Note_on_c, 1, 62, 42
1, 812544, Note_on_c, 1, 62, 0
1, 812544, Note_on_c, 1, 58, 42
1, 812800, Note_on_c, 1, 58, 0
1, 812800, Note_on_c, 1, 62, 43
1, 813056, Note_on_c, 0, 74, 60
1, 813056, Note_on_c, 1, 62, 0
1, 813056, Note_on_c, 1, 54, 44
1, 813312, Note_on_c, 1, 54, 0
1, 813312, Note_on_c, 1, 62, 44
1, 813568, Note_on_c, 1, 62, 0
1, 813568, Note_on_c, 1, 57, 45
1, 813824, Note_on_c, 1, 57, 0
1, 813824, Note_on_c, 1, 62, 45
1, 814080, Note_on_c, 1, 62, 0
1, 814080, Note_on_c, 1, 54, 45
1, 814336, Note_on_c, 0, 74, 0
1, 814336, Note_on_c, 0, 73, 64
1, 814336, Note_on_c, 1, 54, 0
1, 814336, Note_on_c, 1, 62, 46
1, 814592, Note_on_c, 0, 73, 0
1, 814592, Note_on_c, 0, 75, 65
1, 814592, Note_on_c, 1, 62, 0
1, 814592, Note_on_c, 1, 57, 46
1, 814848, Note_on_c, 0, 75, 0
1, 814848, Note_on_c, 0, 74, 66
1, 814848, Note_on_c, 1, 57, 0
1, 814848, Note_on_c, 1, 62, 47
1, 815104, Note_on_c, 0, 74, 0
1, 815104, Note_on_c, 0, 74, 71
1, 815104, Note_on_c, 1, 62, 0
1, 815104, Note_on_c, 1, 50, 48
1, 815360, Note_on_c, 0, 74, 0
1, 815360, Note_on_c, 0, 72, 67
1, 815360, Note_on_c, 1, 50, 0
1, 815360, Note_on_c, 1, 62, 48
1, 815616, Note_on_c, 0, 72, 0
1, 815616, Note_on_c, 0, 70, 69
1, 815616, Note_on_c, 1, 62, 0
1, 815616, Note_on_c, 1, 54, 48
1, 815872, Note_on_c, 0, 70, 0
1, 815872, Note_on_c, 0, 69, 69
1, 815872, Note_on_c, 1, 54, 0
1, 815872, Note_on_c, 1, 62, 49
1, 816128, Note_on_c, 0, 69, 0
1, 816128, Note_on_c, 0, 70, 69
1, 816128, Note_on_c, 1, 62, 0
1, 816128, Note_on_c, 1, 55, 46
1, 816384, Note_on_c, 1, 55, 0
1, 816384, Note_on_c, 1, 62, 44
1, 816640, Note_on_c, 1, 62, 0
1, 816640, Note_on_c, 1, 58, 41
1, 816896, Note_on_c, 0, 70, 0
1, 816896, Note_on_c, 0, 74, 62
1, 816896, Note_on_c, 1, 58, 0
1, 816896, Note_on_c, 1, 62, 40
1, 817152, Note_on_c, 0, 74, 0
1, 817152, Note_on_c, 0, 79, 60
1, 817152, Note_on_c, 1, 62, 0
1, 817152, Note_on_c, 1, 55, 37
1, 817408, Note_on_c, 1, 55, 0
1, 817408, Note_on_c, 1, 62, 37
1, 817664, Note_on_c, 1, 62, 0
1, 817664, Note_on_c, 1, 58, 40
1, 817920, Note_on_c, 1, 58, 0
1, 817920, Note_on_c, 1, 62, 43
1, 818176, Note_on_c, 0, 79, 0
1, 818176, Note_on_c, 1, 62, 0
1, 818176, Note_on_c, 1, 55, 46
1, 818432, Note_on_c, 1, 55, 0
1, 818432, Note_on_c, 1, 63, 49
1, 818688, Note_on_c, 1, 63, 0
1, 818688, Note_on_c, 1, 58, 52
1, 818944, Note_on_c, 1, 58, 0
1, 818944, Note_on_c, 1, 63, 55
1, 819200, Note_on_c, 0, 77, 83
1, 819200, Note_on_c, 1, 63, 0
1, 819200, Note_on_c, 1, 57, 83
1, 819456, Note_on_c, 1, 57, 0
1, 819456, Note_on_c, 1, 65, 80
1, 819712, Note_on_c, 1, 65, 0
1, 819712, Note_on_c, 1, 60, 77
1, 819968, Note_on_c, 1, 60, 0
1, 819968, Note_on_c, 1, 65, 73
1, 820224, Note_on_c, 1, 65, 0
1, 820224, Note_on_c, 1, 57, 73
1, 820480, Note_on_c, 0, 77, 0
1, 820480, Note_on_c, 0, 81, 73
1, 820480, Note_on_c, 1, 57, 0
1, 820480, Note_on_c, 1, 65, 75
1, 820736, Note_on_c, 0, 81, 0
1, 820736, Note_on_c, 0, 84, 75
1, 820736, Note_on_c, 1, 65, 0
1, 820736, Note_on_c, 1, 60, 76
1, 820992, Note_on_c, 0, 84, 0
1, 820992, Note_on_c, 0, 82, 77
1, 820992, Note_on_c, 1, 60, 0
1, 820992, Note_on_c, 1, 65, 77
1, 821248, Note_on_c, 0, 82, 0
1, 821248, Note_on_c, 0, 81, 79
1, 821248, Note_on_c, 1, 65, 0
1, 821248, Note_on_c, 1, 57, 79
1, 821504, Note_on_c, 0, 81, 0
1, 821504, Note_on_c, 0, 79, 80
1, 821504, Note_on_c, 1, 57, 0
1, 821504, Note_on_c, 1, 65, 80
1, 821760, Note_on_c, 0, 79, 0
1, 821760, Note_on_c, 0, 77, 82
1, 821760, Note_on_c, 1, 65, 0
1, 821760, Note_on_c, 1, 60, 82
1, 822016, Note_on_c, 0, 77, 0
1, 822016, Note_on_c, 0, 75, 83
1, 822016, Note_on_c, 1, 60, 0
1, 822016, Note_on_c, 1, 65, 83
1, 822272, Note_on_c, 0, 75, 0
1, 822272, Note_on_c, 0, 74, 83
1, 822272, Note_on_c, 1, 65, 0
1, 822272, Note_on_c, 1, 58, 83
1, 822528, Note_on_c, 1, 58, 0
1, 822528, Note_on_c, 1, 65, 80
1, 822784, Note_on_c, 1, 65, 0
1, 822784, Note_on_c, 1, 62, 77
1, 823040, Note_on_c, 1, 62, 0
1, 823040, Note_on_c, 1, 65, 73
1, 823296, Note_on_c, 1, 65, 0
1, 823296, Note_on_c, 1, 55, 73
1, 823552, Note_on_c, 0, 74, 0
1, 823552, Note_on_c, 0, 79, 73
1, 823552, Note_on_c, 1, 55, 0
1, 823552, Note_on_c, 1, 62, 75
1, 823808, Note_on_c, 0, 79, 0
1, 823808, Note_on_c, 0, 82, 75
1, 823808, Note_on_c, 1, 62, 0
1, 823808, Note_on_c, 1, 58, 76
1, 824064, Note_on_c, 0, 82, 0
1, 824064, Note_on_c, 0, 81, 77
1, 824064, Note_on_c, 1, 58, 0
1, 824064, Note_on_c, 1, 62, 77
1, 824320, Note_on_c, 0, 81, 0
1, 824320, Note_on_c, 0, 79, 83
1, 824320, Note_on_c, 1, 62, 0
1, 824320, Note_on_c, 1, 50, 79
1, 824576, Note_on_c, 0, 79, 0
1, 824576, Note_on_c, 0, 77, 80
1, 824576, Note_on_c, 1, 50, 0
1, 824576, Note_on_c, 1, 58, 80
1, 824832, Note_on_c, 0, 77, 0
1, 824832, Note_on_c, 0, 75, 82
1, 824832, Note_on_c, 1, 58, 0
1, 824832, Note_on_c, 1, 53, 82
1, 825088, Note_on_c, 0, 75, 0
1, 825088, Note_on_c, 0, 74, 83
1, 825088, Note_on_c, 1, 53, 0
1, 825088, Note_on_c, 1, 58, 83
1, 825344, Note_on_c, 0, 74, 0
1, 825344, Note_on_c, 0, 71, 87
1, 825344, Note_on_c, 1, 58, 0
1, 825344, Note_on_c, 1, 51, 83
1, 825600, Note_on_c, 0, 71, 0
1, 825600, Note_on_c, 0, 72, 82
1, 825600, Note_on_c, 1, 51, 0
1, 825600, Note_on_c, 1, 60, 82
1, 825856, Note_on_c, 0, 72, 0
1, 825856, Note_on_c, 0, 75, 81
1, 825856, Note_on_c, 1, 60, 0
1, 825856, Note_on_c, 1, 55, 81
1, 826112, Note_on_c, 0, 75, 0
1, 826112, Note_on_c, 0, 79, 80
1, 826112, Note_on_c, 1, 55, 0
1, 826112, Note_on_c, 1, 60, 80
1, 826368, Note_on_c, 0, 79, 0
1, 826368, Note_on_c, 0, 70, 80
1, 826368, Note_on_c, 1, 60, 0
1, 826368, Note_on_c, 1, 53, 80
1, 826624, Note_on_c, 1, 53, 0
1, 826624, Note_on_c, 1, 62, 79
1, 826880, Note_on_c, 1, 62, 0
1, 826880, Note_on_c, 1, 58, 78
1, 827136, Note_on_c, 0, 70, 0
1, 827136, Note_on_c, 0, 70, 77
1, 827136, Note_on_c, 1, 58, 0
1, 827136, Note_on_c, 1, 62, 77
1, 827392, Note_on_c, 0, 70, 0
1, 827392, Note_on_c, 0, 74, 80
1, 827392, Note_on_c, 1, 62, 0
1, 827392, Note_on_c, 1, 54, 76
1, 827648, Note_on_c, 0, 74, 0
1, 827648, Note_on_c, 0, 72, 75
1, 827648, Note_on_c, 1, 54, 0
1, 827648, Note_on_c, 1, 63, 75
1, 827904, Note_on_c, 0, 72, 0
1, 827904, Note_on_c, 0, 70, 74
1, 827904, Note_on_c, 1, 63, 0
1, 827904, Note_on_c, 1, 60, 74
1, 828160, Note_on_c, 0, 70, 0
1, 828160, Note_on_c, 0, 72, 73
1, 828160, Note_on_c, 1, 60, 0
1, 828160, Note_on_c, 1, 63, 73
1, 828416, Note_on_c, 0, 72, 0
1, 828416, Note_on_c, 0, 69, 73
1, 828416, Note_on_c, 0, 72, 73
1, 828416, Note_on_c, 1, 63, 0
1, 828416, Note_on_c, 1, 63, 68
1, 828416, Note_on_c, 1, 58, 77
1, 829440, Note_on_c, 0, 69, 0
1, 829440, Note_on_c, 0, 72, 0
1, 829440, Note_on_c, 0, 70, 70
1, 829440, Note_on_c, 1, 63, 0
1, 829440, Note_on_c, 1, 62, 65
1, 829696, Note_on_c, 0, 70, 0
1, 829696, Note_on_c, 0, 69, 49
1, 829952, Note_on_c, 0, 69, 0
1, 829952, Note_on_c, 0, 72, 51
1, 830208, Note_on_c, 0, 72, 0
1, 830208, Note_on_c, 0, 70, 52
1, 830464, Note_on_c, 0, 70, 0
1, 830464, Note_on_c, 0, 74, 54
1, 830464, Note_on_c, 1, 62, 0
1, 830464, Note_on_c, 1, 58, 0
1, 830720, Note_on_c, 0, 74, 0
1, 830720, Note_on_c, 0, 72, 55
1, 830976, Note_on_c, 0, 72, 0
1, 830976, Note_on_c, 0, 75, 57
1, 831232, Note_on_c, 0, 75, 0
1, 831232, Note_on_c, 0, 74, 59
1, 831488, Note_on_c, 0, 74, 0
1, 831488, Note_on_c, 0, 77, 59
1, 831488, Note_on_c, 1, 56, 43
1, 831744, Note_on_c, 1, 56, 0
1, 831744, Note_on_c, 1, 65, 40
1, 832000, Note_on_c, 1, 65, 0
1, 832000, Note_on_c, 1, 60, 37
1, 832256, Note_on_c, 1, 60, 0
1, 832256, Note_on_c, 1, 65, 34
1, 832512, Note_on_c, 1, 65, 0
1, 832512, Note_on_c, 1, 55, 34
1, 832768, Note_on_c, 0, 77, 0
1, 832768, Note_on_c, 0, 80, 55
1, 832768, Note_on_c, 1, 55, 0
1, 832768, Note_on_c, 1, 62, 36
1, 833024, Note_on_c, 0, 80, 0
1, 833024, Note_on_c, 0, 79, 58
1, 833024, Note_on_c, 1, 62, 0
1, 833024, Note_on_c, 1, 59, 38
1, 833280, Note_on_c, 0, 79, 0
1, 833280, Note_on_c, 0, 77, 59
1, 833280, Note_on_c, 1, 59, 0
1, 833280, Note_on_c, 1, 62, 39
1, 833536, Note_on_c, 0, 77, 0
1, 833536, Note_on_c, 0, 75, 61
1, 833536, Note_on_c, 1, 62, 0
1, 833536, Note_on_c, 1, 53, 40
1, 833792, Note_on_c, 0, 75, 0
1, 833792, Note_on_c, 0, 74, 64
1, 833792, Note_on_c, 1, 53, 0
1, 833792, Note_on_c, 1, 62, 43
1, 834048, Note_on_c, 0, 74, 0
1, 834048, Note_on_c, 0, 72, 67
1, 834048, Note_on_c, 1, 62, 0
1, 834048, Note_on_c, 1, 55, 44
1, 834304, Note_on_c, 0, 72, 0
1, 834304, Note_on_c, 0, 71, 67
1, 834304, Note_on_c, 1, 55, 0
1, 834304, Note_on_c, 1, 62, 45
1, 834560, Note_on_c, 0, 71, 0
1, 834560, Note_on_c, 0, 72, 68
1, 834560, Note_on_c, 1, 62, 0
1, 834560, Note_on_c, 1, 51, 46
1, 834816, Note_on_c, 1, 51, 0
1, 834816, Note_on_c, 1, 60, 48
1, 835072, Note_on_c, 1, 60, 0
1, 835072, Note_on_c, 1, 55, 49
1, 835328, Note_on_c, 0, 72, 0
1, 835328, Note_on_c, 0, 75, 75
1, 835328, Note_on_c, 1, 55, 0
1, 835328, Note_on_c, 1, 60, 52
1, 835584, Note_on_c, 0, 75, 0
1, 835584, Note_on_c, 0, 79, 79
1, 835584, Note_on_c, 1, 60, 0
1, 835584, Note_on_c, 1, 50, 53
1, 835840, Note_on_c, 1, 50, 0
1, 835840, Note_on_c, 1, 59, 55
1, 836096, Note_on_c, 1, 59, 0
1, 836096, Note_on_c, 1, 53, 56
1, 836352, Note_on_c, 1, 53, 0
1, 836352, Note_on_c, 1, 59, 58
1, 836608, Note_on_c, 0, 79, 0
1, 836608, Note_on_c, 1, 59, 0
1, 836608, Note_on_c, 1, 48, 60
1, 836864, Note_on_c, 1, 48, 0
1, 836864, Note_on_c, 1, 60, 61
1, 837120, Note_on_c, 1, 60, 0
1, 837120, Note_on_c, 1, 51, 62
1, 837376, Note_on_c, 1, 51, 0
1, 837376, Note_on_c, 1, 60, 65
1, 837632, Note_on_c, 0, 79, 83
1, 837632, Note_on_c, 1, 60, 0
1, 837632, Note_on_c, 1, 49, 77
1, 837888, Note_on_c, 1, 49, 0
1, 837888, Note_on_c, 1, 58, 74
1, 838144, Note_on_c, 1, 58, 0
1, 838144, Note_on_c, 1, 52, 71
1, 838400, Note_on_c, 1, 52, 0
1, 838400, Note_on_c, 1, 58, 68
1, 838656, Note_on_c, 1, 58, 0
1, 838656, Note_on_c, 1, 50, 67
1, 838912, Note_on_c, 0, 79, 0
1, 838912, Note_on_c, 0, 78, 73
1, 838912, Note_on_c, 1, 50, 0
1, 838912, Note_on_c, 1, 58, 68
1, 839168, Note_on_c, 0, 78, 0
1, 839168, Note_on_c, 0, 81, 75
1, 839168, Note_on_c, 1, 58, 0
1, 839168, Note_on_c, 1, 55, 69
1, 839424, Note_on_c, 0, 81, 0
1, 839424, Note_on_c, 0, 79, 77
1, 839424, Note_on_c, 1, 55, 0
1, 839424, Note_on_c, 1, 58, 69
1, 839680, Note_on_c, 0, 79, 0
1, 839680, Note_on_c, 0, 82, 79
1, 839680, Note_on_c, 1, 58, 0
1, 839680, Note_on_c, 1, 51, 69
1, 839936, Note_on_c, 0, 82, 0
1, 839936, Note_on_c, 0, 73, 80
1, 839936, Note_on_c, 1, 51, 0
1, 839936, Note_on_c, 1, 58, 70
1, 840192, Note_on_c, 0, 73, 0
1, 840192, Note_on_c, 0, 82, 82
1, 840192, Note_on_c, 1, 58, 0
1, 840192, Note_on_c, 1, 55, 71
1, 840448, Note_on_c, 0, 82, 0
1, 840448, Note_on_c, 0, 73, 83
1, 840448, Note_on_c, 1, 55, 0
1, 840448, Note_on_c, 1, 58, 71
1, 840704, Note_on_c, 0, 73, 0
1, 840704, Note_on_c, 0, 73, 87
1, 840704, Note_on_c, 1, 58, 0
1, 840704, Note_on_c, 1, 50, 71
1, 840960, Note_on_c, 1, 50, 0
1, 840960, Note_on_c, 1, 58, 72
1, 841216, Note_on_c, 1, 58, 0
1, 841216, Note_on_c, 1, 55, 73
1, 841472, Note_on_c, 1, 55, 0
1, 841472, Note_on_c, 1, 58, 73
1, 841728, Note_on_c, 0, 73, 0
1, 841728, Note_on_c, 0, 74, 83
1, 841728, Note_on_c, 1, 58, 0
1, 841728, Note_on_c, 1, 50, 73
1, 841984, Note_on_c, 1, 50, 0
1, 841984, Note_on_c, 1, 57, 74
1, 842240, Note_on_c, 1, 57, 0
1, 842240, Note_on_c, 1, 54, 74
1, 842496, Note_on_c, 1, 54, 0
1, 842496, Note_on_c, 1, 57, 75
1, 842752, Note_on_c, 0, 74, 0
1, 842752, Note_on_c, 1, 57, 0
1, 842752, Note_on_c, 1, 50, 76
1, 843008, Note_on_c, 1, 50, 0
1, 843008, Note_on_c, 1, 57, 76
1, 843264, Note_on_c, 1, 57, 0
1, 843264, Note_on_c, 1, 54, 76
1, 843520, Note_on_c, 1, 54, 0
1, 843520, Note_on_c, 1, 57, 77
1, 843776, Note_on_c, 0, 75, 83
1, 843776, Note_on_c, 1, 57, 0
1, 843776, Note_on_c, 1, 48, 77
1, 844032, Note_on_c, 1, 48, 0
1, 844032, Note_on_c, 1, 57, 74
1, 844288, Note_on_c, 1, 57, 0
1, 844288, Note_on_c, 1, 54, 71
1, 844544, Note_on_c, 1, 54, 0
1, 844544, Note_on_c, 1, 57, 68
1, 844800, Note_on_c, 1, 57, 0
1, 844800, Note_on_c, 1, 48, 68
1, 845056, Note_on_c, 0, 75, 0
1, 845056, Note_on_c, 0, 72, 73
1, 845056, Note_on_c, 1, 48, 0
1, 845056, Note_on_c, 1, 57, 69
1, 845312, Note_on_c, 0, 72, 0
1, 845312, Note_on_c, 0, 81, 75
1, 845312, Note_on_c, 1, 57, 0
1, 845312, Note_on_c, 1, 54, 71
1, 845568, Note_on_c, 0, 81, 0
1, 845568, Note_on_c, 0, 78, 77
1, 845568, Note_on_c, 1, 54, 0
1, 845568, Note_on_c, 1, 57, 72
1, 845824, Note_on_c, 0, 78, 0
1, 845824, Note_on_c, 0, 84, 79
1, 845824, Note_on_c, 1, 57, 0
1, 845824, Note_on_c, 1, 48, 74
1, 846080, Note_on_c, 0, 84, 0
1, 846080, Note_on_c, 0, 81, 80
1, 846080, Note_on_c, 1, 48, 0
1, 846080, Note_on_c, 1, 57, 75
1, 846336, Note_on_c, 0, 81, 0
1, 846336, Note_on_c, 0, 87, 82
1, 846336, Note_on_c, 1, 57, 0
1, 846336, Note_on_c, 1, 54, 76
1, 846592, Note_on_c, 0, 87, 0
1, 846592, Note_on_c, 0, 78, 83
1, 846592, Note_on_c, 1, 54, 0
1, 846592, Note_on_c, 1, 57, 77
1, 846848, Note_on_c, 0, 78, 0
1, 846848, Note_on_c, 0, 86, 83
1, 846848, Note_on_c, 1, 57, 0
1, 846848, Note_on_c, 1, 46, 77
1, 847104, Note_on_c, 1, 46, 0
1, 847104, Note_on_c, 1, 55, 74
1, 847360, Note_on_c, 1, 55, 0
1, 847360, Note_on_c, 1, 50, 71
1, 847616, Note_on_c, 1, 50, 0
1, 847616, Note_on_c, 1, 55, 68
1, 847872, Note_on_c, 1, 55, 0
1, 847872, Note_on_c, 1, 46, 68
1, 848128, Note_on_c, 0, 86, 0
1, 848128, Note_on_c, 0, 81, 73
1, 848128, Note_on_c, 1, 46, 0
1, 848128, Note_on_c, 1, 55, 69
1, 848384, Note_on_c, 0, 81, 0
1, 848384, Note_on_c, 0, 82, 75
1, 848384, Note_on_c, 1, 55, 0
1, 848384, Note_on_c, 1, 50, 71
1, 848640, Note_on_c, 0, 82, 0
1, 848640, Note_on_c, 0, 78, 77
1, 848640, Note_on_c, 1, 50, 0
1, 848640, Note_on_c, 1, 55, 72
1, 848896, Note_on_c, 0, 78, 0
1, 848896, Note_on_c, 0, 79, 79
1, 848896, Note_on_c, 1, 55, 0
1, 848896, Note_on_c, 1, 46, 74
1, 849152, Note_on_c, 0, 79, 0
1, 849152, Note_on_c, 0, 73, 80
1, 849152, Note_on_c, 1, 46, 0
1, 849152, Note_on_c, 1, 55, 75
1, 849408, Note_on_c, 0, 73, 0
1, 849408, Note_on_c, 0, 74, 82
1, 849408, Note_on_c, 1, 55, 0
1, 849408, Note_on_c, 1, 50, 76
1, 849664, Note_on_c, 0, 74, 0
1, 849664, Note_on_c, 0, 70, 83
1, 849664, Note_on_c, 1, 50, 0
1, 849664, Note_on_c, 1, 55, 77
1, 849920, Note_on_c, 0, 70, 0
1, 849920, Note_on_c, 0, 70, 83
1, 849920, Note_on_c, 1, 55, 0
1, 849920, Note_on_c, 1, 48, 77
1, 850176, Note_on_c, 0, 70, 0
1, 850176, Note_on_c, 0, 69, 82
1, 850176, Note_on_c, 1, 48, 0
1, 850176, Note_on_c, 1, 57, 76
1, 850432, Note_on_c, 0, 69, 0
1, 850432, Note_on_c, 0, 72, 80
1, 850432, Note_on_c, 1, 57, 0
1, 850432, Note_on_c, 1, 51, 74
1, 850688, Note_on_c, 0, 72, 0
1, 850688, Note_on_c, 0, 75, 79
1, 850688, Note_on_c, 1, 51, 0
1, 850688, Note_on_c, 1, 57, 74
1, 850944, Note_on_c, 0, 75, 0
1, 850944, Note_on_c, 0, 67, 78
1, 850944, Note_on_c, 1, 57, 0
1, 850944, Note_on_c, 1, 50, 73
1, 851200, Note_on_c, 1, 50, 0
1, 851200, Note_on_c, 1, 58, 73
1, 851456, Note_on_c, 1, 58, 0
1, 851456, Note_on_c, 1, 55, 71
1, 851712, Note_on_c, 0, 67, 0
1, 851712, Note_on_c, 0, 67, 74
1, 851712, Note_on_c, 1, 55, 0
1, 851712, Note_on_c, 1, 58, 71
1, 851968, Note_on_c, 0, 67, 0
1, 851968, Note_on_c, 0, 70, 73
1, 851968, Note_on_c, 1, 58, 0
1, 851968, Note_on_c, 1, 48, 69
1, 852224, Note_on_c, 0, 70, 0
1, 852224, Note_on_c, 0, 69, 71
1, 852224, Note_on_c, 1, 48, 0
1, 852224, Note_on_c, 1, 60, 69
1, 852480, Note_on_c, 0, 69, 0
1, 852480, Note_on_c, 0, 67, 70
1, 852480, Note_on_c, 1, 60, 0
1, 852480, Note_on_c, 1, 57, 68
1, 852736, Note_on_c, 0, 67, 0
1, 852736, Note_on_c, 0, 69, 69
1, 852736, Note_on_c, 1, 57, 0
1, 852736, Note_on_c, 1, 60, 68
1, 852992, Note_on_c, 0, 69, 0
1, 852992, Note_on_c, 0, 66, 65
1, 852992, Note_on_c, 0, 69, 65
1, 852992, Note_on_c, 1, 60, 0
1, 852992, Note_on_c, 1, 60, 64
1, 852992, Note_on_c, 1, 55, 77
1, 854016, Note_on_c, 0, 66, 0
1, 854016, Note_on_c, 0, 69, 0
1, 854016, Note_on_c, 0, 67, 64
1, 854016, Note_on_c, 1, 60, 0
1, 854016, Note_on_c, 1, 58, 60
1, 854272, Note_on_c, 0, 67, 0
1, 854272, Note_on_c, 0, 66, 50
1, 854528, Note_on_c, 0, 66, 0
1, 854528, Note_on_c, 0, 67, 51
1, 854784, Note_on_c, 0, 67, 0
1, 854784, Note_on_c, 0, 68, 52
1, 855040, Note_on_c, 0, 68, 0
1, 855040, Note_on_c, 0, 69, 53
1, 855040, Note_on_c, 1, 58, 0
1, 855040, Note_on_c, 1, 55, 0
1, 855296, Note_on_c, 0, 69, 0
1, 855296, Note_on_c, 0, 68, 54
1, 855552, Note_on_c, 0, 68, 0
1, 855552, Note_on_c, 0, 69, 55
1, 855808, Note_on_c, 0, 69, 0
1, 855808, Note_on_c, 0, 70, 56
1, 856064, Note_on_c, 0, 70, 0
1, 856064, Note_on_c, 0, 71, 57
1, 856064, Note_on_c, 1, 55, 37
1, 856320, Note_on_c, 1, 55, 0
1, 856320, Note_on_c, 1, 62, 38
1, 856576, Note_on_c, 1, 62, 0
1, 856576, Note_on_c, 1, 59, 39
1, 856832, Note_on_c, 1, 59, 0
1, 856832, Note_on_c, 1, 62, 40
1, 857088, Note_on_c, 1, 62, 0
1, 857088, Note_on_c, 1, 55, 40
1, 857344, Note_on_c, 1, 55, 0
1, 857344, Note_on_c, 1, 62, 41
1, 857600, Note_on_c, 1, 62, 0
1, 857600, Note_on_c, 1, 59, 42
1, 857856, Note_on_c, 1, 59, 0
1, 857856, Note_on_c, 1, 62, 43
1, 858112, Note_on_c, 0, 71, 0
1, 858112, Note_on_c, 0, 74, 59
1, 858112, Note_on_c, 1, 62, 0
1, 858112, Note_on_c, 1, 57, 44
1, 858368, Note_on_c, 0, 74, 0
1, 858368, Note_on_c, 0, 72, 54
1, 858368, Note_on_c, 1, 57, 0
1, 858368, Note_on_c, 1, 62, 44
1, 858624, Note_on_c, 0, 72, 0
1, 858624, Note_on_c, 0, 71, 55
1, 858624, Note_on_c, 1, 62, 0
1, 858624, Note_on_c, 1, 60, 45
1, 858880, Note_on_c, 0, 71, 0
1, 858880, Note_on_c, 0, 72, 55
1, 858880, Note_on_c, 1, 60, 0
1, 858880, Note_on_c, 1, 62, 46
1, 859136, Note_on_c, 0, 72, 0
1, 859136, Note_on_c, 0, 74, 49
1, 859136, Note_on_c, 1, 62, 0
1, 859136, Note_on_c, 1, 55, 44
1, 859392, Note_on_c, 1, 55, 0
1, 859392, Note_on_c, 1, 62, 41
1, 859648, Note_on_c, 1, 62, 0
1, 859648, Note_on_c, 1, 59, 38
1, 859904, Note_on_c, 0, 74, 0
1, 859904, Note_on_c, 0, 71, 49
1, 859904, Note_on_c, 1, 59, 0
1, 859904, Note_on_c, 1, 62, 34
1, 860160, Note_on_c, 0, 71, 0
1, 860160, Note_on_c, 0, 67, 49
1, 860160, Note_on_c, 1, 62, 0
1, 860160, Note_on_c, 1, 55, 34
1, 860416, Note_on_c, 1, 55, 0
1, 860416, Note_on_c, 1, 62, 35
1, 860672, Note_on_c, 1, 62, 0
1, 860672, Note_on_c, 1, 59, 37
1, 860928, Note_on_c, 1, 59, 0
1, 860928, Note_on_c, 1, 62, 38
1, 861184, Note_on_c, 0, 67, 0
1, 861184, Note_on_c, 1, 62, 0
1, 861184, Note_on_c, 1, 55, 40
1, 861440, Note_on_c, 1, 55, 0
1, 861440, Note_on_c, 1, 62, 41
1, 861696, Note_on_c, 1, 62, 0
1, 861696, Note_on_c, 1, 59, 42
1, 861952, Note_on_c, 1, 59, 0
1, 861952, Note_on_c, 1, 62, 43
1, 862208, Note_on_c, 0, 79, 68
1, 862208, Note_on_c, 1, 62, 0
1, 862208, Note_on_c, 1, 55, 43
1, 862464, Note_on_c, 1, 55, 0
1, 862464, Note_on_c, 1, 64, 43
1, 862720, Note_on_c, 1, 64, 0
1, 862720, Note_on_c, 1, 60, 43
1, 862976, Note_on_c, 1, 60, 0
1, 862976, Note_on_c, 1, 64, 43
1, 863232, Note_on_c, 1, 64, 0
1, 863232, Note_on_c, 1, 55, 43
1, 863488, Note_on_c, 1, 55, 0
1, 863488, Note_on_c, 1, 64, 43
1, 863744, Note_on_c, 0, 79, 0
1, 863744, Note_on_c, 0, 81, 67
1, 863744, Note_on_c, 1, 64, 0
1, 863744, Note_on_c, 1, 60, 43
1, 864000, Note_on_c, 0, 81, 0
1, 864000, Note_on_c, 0, 79, 62
1, 864000, Note_on_c, 1, 60, 0
1, 864000, Note_on_c, 1, 64, 43
1, 864256, Note_on_c, 0, 79, 0
1, 864256, Note_on_c, 0, 78, 66
1, 864256, Note_on_c, 1, 64, 0
1, 864256, Note_on_c, 1, 55, 43
1, 864512, Note_on_c, 0, 78, 0
1, 864512, Note_on_c, 0, 76, 61
1, 864512, Note_on_c, 1, 55, 0
1, 864512, Note_on_c, 1, 61, 43
1, 864768, Note_on_c, 0, 76, 0
1, 864768, Note_on_c, 0, 74, 60
1, 864768, Note_on_c, 1, 61, 0
1, 864768, Note_on_c, 1, 58, 43
1, 865024, Note_on_c, 0, 74, 0
1, 865024, Note_on_c, 0, 73, 59
1, 865024, Note_on_c, 1, 58, 0
1, 865024, Note_on_c, 1, 61, 43
1, 865280, Note_on_c, 0, 73, 0
1, 865280, Note_on_c, 0, 74, 59
1, 865280, Note_on_c, 1, 61, 0
1, 865280, Note_on_c, 1, 55, 43
1, 865536, Note_on_c, 1, 55, 0
1, 865536, Note_on_c, 1, 62, 43
1, 865792, Note_on_c, 1, 62, 0
1, 865792, Note_on_c, 1, 59, 43
1, 866048, Note_on_c, 0, 74, 0
1, 866048, Note_on_c, 0, 71, 56
1, 866048, Note_on_c, 1, 59, 0
1, 866048, Note_on_c, 1, 62, 43
1, 866304, Note_on_c, 0, 71, 0
1, 866304, Note_on_c, 0, 67, 55
1, 866304, Note_on_c, 1, 62, 0
1, 866304, Note_on_c, 1, 55, 43
1, 866560, Note_on_c, 1, 55, 0
1, 866560, Note_on_c, 1, 62, 43
1, 866816, Note_on_c, 1, 62, 0
1, 866816, Note_on_c, 1, 59, 43
1, 867072, Note_on_c, 1, 59, 0
1, 867072, Note_on_c, 1, 62, 45
1, 867328, Note_on_c, 0, 67, 0
1, 867328, Note_on_c, 1, 62, 0
1, 867328, Note_on_c, 1, 55, 45
1, 867584, Note_on_c, 1, 55, 0
1, 867584, Note_on_c, 1, 62, 47
1, 867840, Note_on_c, 1, 62, 0
1, 867840, Note_on_c, 1, 59, 47
1, 868096, Note_on_c, 1, 59, 0
1, 868096, Note_on_c, 1, 62, 49
1, 868352, Note_on_c, 0, 72, 70
1, 868352, Note_on_c, 1, 62, 0
1, 868352, Note_on_c, 1, 57, 64
1, 868608, Note_on_c, 1, 57, 0
1, 868608, Note_on_c, 1, 62, 43
1, 868864, Note_on_c, 1, 62, 0
1, 868864, Note_on_c, 1, 60, 44
1, 869120, Note_on_c, 0, 72, 0
1, 869120, Note_on_c, 0, 69, 52
1, 869120, Note_on_c, 1, 60, 0
1, 869120, Note_on_c, 1, 62, 44
1, 869376, Note_on_c, 0, 69, 0
1, 869376, Note_on_c, 0, 66, 53
1, 869376, Note_on_c, 1, 62, 0
1, 869376, Note_on_c, 1, 57, 44
1, 869530, Note_on_c, 0, 66, 0
1, 869632, Note_on_c, 1, 57, 0
1, 869632, Note_on_c, 1, 62, 44
1, 869888, Note_on_c, 0, 69, 55
1, 869888, Note_on_c, 1, 62, 0
1, 869888, Note_on_c, 1, 60, 45
1, 870042, Note_on_c, 0, 69, 0
1, 870144, Note_on_c, 1, 60, 0
1, 870144, Note_on_c, 1, 62, 45
1, 870400, Note_on_c, 0, 71, 56
1, 870400, Note_on_c, 1, 62, 0
1, 870400, Note_on_c, 1, 57, 45
1, 870554, Note_on_c, 0, 71, 0
1, 870656, Note_on_c, 1, 57, 0
1, 870656, Note_on_c, 1, 62, 45
1, 870912, Note_on_c, 0, 72, 58
1, 870912, Note_on_c, 1, 62, 0
1, 870912, Note_on_c, 1, 60, 45
1, 871066, Note_on_c, 0, 72, 0
1, 871168, Note_on_c, 1, 60, 0
1, 871168, Note_on_c, 1, 62, 46
1, 871424, Note_on_c, 0, 74, 61
1, 871424, Note_on_c, 1, 62, 0
1, 871424, Note_on_c, 1, 55, 46
1, 871680, Note_on_c, 1, 62, 46
1, 871936, Note_on_c, 1, 62, 0
1, 871936, Note_on_c, 1, 59, 46
1, 872192, Note_on_c, 0, 74, 0
1, 872192, Note_on_c, 0, 71, 62
1, 872192, Note_on_c, 1, 59, 0
1, 872192, Note_on_c, 1, 62, 46
1, 872448, Note_on_c, 0, 71, 0
1, 872448, Note_on_c, 0, 79, 63
1, 872448, Note_on_c, 1, 55, 0
1, 872448, Note_on_c, 1, 52, 47
1, 872448, Note_on_c, 1, 62, 0
1, 872704, Note_on_c, 1, 59, 47
1, 872960, Note_on_c, 1, 59, 0
1, 872960, Note_on_c, 1, 55, 48
1, 873216, Note_on_c, 1, 55, 0
1, 873216, Note_on_c, 1, 59, 48
1, 873472, Note_on_c, 0, 79, 0
1, 873472, Note_on_c, 1, 52, 0
1, 873472, Note_on_c, 1, 47, 48
1, 873472, Note_on_c, 1, 59, 0
1, 873728, Note_on_c, 1, 55, 48
1, 873984, Note_on_c, 1, 55, 0
1, 873984, Note_on_c, 1, 50, 48
1, 874240, Note_on_c, 1, 50, 0
1, 874240, Note_on_c, 1, 55, 49
1, 874496, Note_on_c, 0, 81, 77
1, 874496, Note_on_c, 1, 47, 0
1, 874496, Note_on_c, 1, 55, 0
1, 874496, Note_on_c, 1, 52, 61
1, 874496, Note_on_c, 1, 48, 61
1, 874752, Note_on_c, 0, 81, 0
1, 874752, Note_on_c, 0, 79, 68
1, 875008, Note_on_c, 0, 79, 0
1, 875008, Note_on_c, 0, 78, 67
1, 875264, Note_on_c, 0, 78, 0
1, 875264, Note_on_c, 0, 79, 65
1, 875520, Note_on_c, 0, 79, 0
1, 875520, Note_on_c, 0, 78, 68
1, 875520, Note_on_c, 1, 52, 0
1, 875520, Note_on_c, 1, 55, 58
1, 875776, Note_on_c, 0, 78, 0
1, 875776, Note_on_c, 0, 76, 62
1, 876032, Note_on_c, 0, 76, 0
1, 876032, Note_on_c, 0, 75, 60
1, 876288, Note_on_c, 0, 75, 0
1, 876288, Note_on_c, 0, 76, 59
1, 876544, Note_on_c, 0, 76, 0
1, 876544, Note_on_c, 0, 74, 61
1, 876544, Note_on_c, 1, 48, 0
1, 876544, Note_on_c, 1, 52, 54
1, 876800, Note_on_c, 0, 74, 0
1, 876800, Note_on_c, 0, 72, 55
1, 877056, Note_on_c, 0, 72, 0
1, 877056, Note_on_c, 0, 71, 55
1, 877312, Note_on_c, 0, 71, 0
1, 877312, Note_on_c, 0, 72, 54
1, 877568, Note_on_c, 0, 72, 0
1, 877568, Note_on_c, 0, 71, 52
1, 877568, Note_on_c, 1, 55, 0
1, 877568, Note_on_c, 1, 52, 0
1, 877568, Note_on_c, 1, 55, 51
1, 877568, Note_on_c, 1, 50, 51
1, 878336, Note_on_c, 0, 71, 0
1, 878336, Note_on_c, 0, 72, 52
1, 878464, Note_on_c, 0, 72, 0
1, 878464, Note_on_c, 0, 71, 52
1, 878592, Note_on_c, 0, 71, 0
1, 878592, Note_on_c, 0, 69, 51
1, 878592, Note_on_c, 1, 55, 0
1, 878592, Note_on_c, 1, 54, 50
1, 878746, Note_on_c, 0, 69, 0
1, 879104, Note_on_c, 0, 74, 50
1, 879258, Note_on_c, 0, 74, 0
1, 879616, Note_on_c, 0, 73, 57
1, 879616, Note_on_c, 1, 54, 0
1, 879616, Note_on_c, 1, 50, 0
1, 879770, Note_on_c, 0, 73, 0
1, 880128, Note_on_c, 0, 72, 63
1, 880282, Note_on_c, 0, 72, 0
1, 880640, Note_on_c, 0, 71, 73
1, 880640, Note_on_c, 1, 55, 68
1, 880896, Note_on_c, 1, 55, 0
1, 880896, Note_on_c, 1, 62, 69
1, 881152, Note_on_c, 1, 62, 0
1, 881152, Note_on_c, 1, 59, 70
1, 881408, Note_on_c, 1, 59, 0
1, 881408, Note_on_c, 1, 62, 71
1, 881664, Note_on_c, 1, 62, 0
1, 881664, Note_on_c, 1, 55, 71
1, 881920, Note_on_c, 0, 71, 0
1, 881920, Note_on_c, 0, 67, 77
1, 881920, Note_on_c, 1, 55, 0
1, 881920, Note_on_c, 1, 62, 72
1, 882176, Note_on_c, 0, 67, 0
1, 882176, Note_on_c, 0, 71, 79
1, 882176, Note_on_c, 1, 62, 0
1, 882176, Note_on_c, 1, 59, 73
1, 882432, Note_on_c, 0, 71, 0
1, 882432, Note_on_c, 0, 74, 79
1, 882432, Note_on_c, 1, 59, 0
1, 882432, Note_on_c, 1, 62, 74
1, 882688, Note_on_c, 0, 74, 0
1, 882688, Note_on_c, 0, 72, 80
1, 882688, Note_on_c, 1, 62, 0
1, 882688, Note_on_c, 1, 57, 74
1, 882944, Note_on_c, 0, 72, 0
1, 882944, Note_on_c, 0, 69, 80
1, 882944, Note_on_c, 1, 57, 0
1, 882944, Note_on_c, 1, 62, 75
1, 883200, Note_on_c, 0, 69, 0
1, 883200, Note_on_c, 0, 72, 82
1, 883200, Note_on_c, 1, 62, 0
1, 883200, Note_on_c, 1, 60, 76
1, 883456, Note_on_c, 0, 72, 0
1, 883456, Note_on_c, 0, 76, 82
1, 883456, Note_on_c, 1, 60, 0
1, 883456, Note_on_c, 1, 62, 76
1, 883712, Note_on_c, 0, 76, 0
1, 883712, Note_on_c, 0, 74, 83
1, 883712, Note_on_c, 1, 62, 0
1, 883712, Note_on_c, 1, 55, 77
1, 883968, Note_on_c, 1, 55, 0
1, 883968, Note_on_c, 1, 62, 74
1, 884224, Note_on_c, 1, 62, 0
1, 884224, Note_on_c, 1, 59, 71
1, 884480, Note_on_c, 0, 74, 0
1, 884480, Note_on_c, 0, 71, 73
1, 884480, Note_on_c, 1, 59, 0
1, 884480, Note_on_c, 1, 62, 68
1, 884736, Note_on_c, 0, 71, 0
1, 884736, Note_on_c, 0, 67, 73
1, 884736, Note_on_c, 1, 62, 0
1, 884736, Note_on_c, 1, 55, 68
1, 884813, Note_on_c, 0, 67, 0
1, 884992, Note_on_c, 0, 67, 74
1, 884992, Note_on_c, 1, 55, 0
1, 884992, Note_on_c, 1, 62, 69
1, 885069, Note_on_c, 0, 67, 0
1, 885248, Note_on_c, 0, 69, 75
1, 885248, Note_on_c, 1, 62, 0
1, 885248, Note_on_c, 1, 59, 70
1, 885325, Note_on_c, 0, 69, 0
1, 885504, Note_on_c, 0, 71, 76
1, 885504, Note_on_c, 1, 59, 0
1, 885504, Note_on_c, 1, 62, 71
1, 885581, Note_on_c, 0, 71, 0
1, 885760, Note_on_c, 0, 72, 77
1, 885760, Note_on_c, 1, 62, 0
1, 885760, Note_on_c, 1, 55, 71
1, 885837, Note_on_c, 0, 72, 0
1, 886016, Note_on_c, 0, 74, 78
1, 886016, Note_on_c, 1, 55, 0
1, 886016, Note_on_c, 1, 62, 72
1, 886093, Note_on_c, 0, 74, 0
1, 886272, Note_on_c, 0, 76, 79
1, 886272, Note_on_c, 1, 62, 0
1, 886272, Note_on_c, 1, 59, 73
1, 886349, Note_on_c, 0, 76, 0
1, 886528, Note_on_c, 0, 78, 80
1, 886528, Note_on_c, 1, 59, 0
1, 886528, Note_on_c, 1, 62, 74
1, 886605, Note_on_c, 0, 78, 0
1, 886784, Note_on_c, 0, 79, 80
1, 886784, Note_on_c, 1, 62, 0
1, 886784, Note_on_c, 1, 55, 75
1, 887040, Note_on_c, 0, 79, 0
1, 887040, Note_on_c, 0, 78, 81
1, 887040, Note_on_c, 1, 55, 0
1, 887040, Note_on_c, 1, 64, 75
1, 887296, Note_on_c, 0, 78, 0
1, 887296, Note_on_c, 0, 79, 82
1, 887296, Note_on_c, 1, 64, 0
1, 887296, Note_on_c, 1, 60, 76
1, 887552, Note_on_c, 0, 79, 0
1, 887552, Note_on_c, 0, 78, 83
1, 887552, Note_on_c, 1, 60, 0
1, 887552, Note_on_c, 1, 64, 77
1, 887808, Note_on_c, 0, 78, 0
1, 887808, Note_on_c, 0, 81, 87
1, 887808, Note_on_c, 1, 64, 0
1, 887808, Note_on_c, 1, 55, 77
1, 888064, Note_on_c, 0, 81, 0
1, 888064, Note_on_c, 0, 79, 82
1, 888064, Note_on_c, 1, 55, 0
1, 888064, Note_on_c, 1, 64, 77
1, 888320, Note_on_c, 0, 79, 0
1, 888320, Note_on_c, 0, 78, 81
1, 888320, Note_on_c, 1, 64, 0
1, 888320, Note_on_c, 1, 60, 75
1, 888576, Note_on_c, 0, 78, 0
1, 888576, Note_on_c, 0, 79, 80
1, 888576, Note_on_c, 1, 60, 0
1, 888576, Note_on_c, 1, 64, 74
1, 888832, Note_on_c, 0, 79, 0
1, 888832, Note_on_c, 0, 78, 84
1, 888832, Note_on_c, 1, 64, 0
1, 888832, Note_on_c, 1, 55, 73
1, 889088, Note_on_c, 0, 78, 0
1, 889088, Note_on_c, 0, 76, 79
1, 889088, Note_on_c, 1, 55, 0
1, 889088, Note_on_c, 1, 61, 72
1, 889344, Note_on_c, 0, 76, 0
1, 889344, Note_on_c, 0, 74, 78
1, 889344, Note_on_c, 1, 61, 0
1, 889344, Note_on_c, 1, 58, 70
1, 889600, Note_on_c, 0, 74, 0
1, 889600, Note_on_c, 0, 73, 77
1, 889600, Note_on_c, 1, 58, 0
1, 889600, Note_on_c, 1, 61, 69
1, 889856, Note_on_c, 0, 73, 0
1, 889856, Note_on_c, 0, 74, 77
1, 889856, Note_on_c, 1, 61, 0
1, 889856, Note_on_c, 1, 55, 68
1, 890112, Note_on_c, 0, 74, 0
1, 890112, Note_on_c, 0, 71, 76
1, 890112, Note_on_c, 1, 55, 0
1, 890112, Note_on_c, 1, 62, 67
1, 890368, Note_on_c, 0, 71, 0
1, 890368, Note_on_c, 0, 74, 75
1, 890368, Note_on_c, 1, 62, 0
1, 890368, Note_on_c, 1, 59, 66
1, 890624, Note_on_c, 0, 74, 0
1, 890624, Note_on_c, 0, 71, 74
1, 890624, Note_on_c, 1, 59, 0
1, 890624, Note_on_c, 1, 62, 65
1, 890880, Note_on_c, 0, 71, 0
1, 890880, Note_on_c, 0, 67, 73
1, 890880, Note_on_c, 1, 62, 0
1, 890880, Note_on_c, 1, 55, 63
1, 891136, Note_on_c, 1, 55, 0
1, 891136, Note_on_c, 1, 62, 63
1, 891392, Note_on_c, 1, 62, 0
1, 891392, Note_on_c, 1, 59, 65
1, 891648, Note_on_c, 1, 59, 0
1, 891648, Note_on_c, 1, 62, 65
1, 891904, Note_on_c, 0, 67, 0
1, 891904, Note_on_c, 1, 62, 0
1, 891904, Note_on_c, 1, 55, 67
1, 892160, Note_on_c, 1, 55, 0
1, 892160, Note_on_c, 1, 62, 68
1, 892416, Note_on_c, 1, 62, 0
1, 892416, Note_on_c, 1, 59, 70
1, 892672, Note_on_c, 1, 59, 0
1, 892672, Note_on_c, 1, 62, 71
1, 892928, Note_on_c, 0, 72, 83
1, 892928, Note_on_c, 1, 62, 0
1, 892928, Note_on_c, 1, 57, 71
1, 893184, Note_on_c, 0, 72, 0
1, 893184, Note_on_c, 0, 69, 80
1, 893184, Note_on_c, 1, 57, 0
1, 893184, Note_on_c, 1, 62, 69
1, 893440, Note_on_c, 0, 69, 0
1, 893440, Note_on_c, 0, 72, 77
1, 893440, Note_on_c, 1, 62, 0
1, 893440, Note_on_c, 1, 60, 66
1, 893696, Note_on_c, 0, 72, 0
1, 893696, Note_on_c, 0, 69, 73
1, 893696, Note_on_c, 1, 60, 0
1, 893696, Note_on_c, 1, 62, 63
1, 893952, Note_on_c, 0, 69, 0
1, 893952, Note_on_c, 0, 66, 73
1, 893952, Note_on_c, 1, 62, 0
1, 893952, Note_on_c, 1, 57, 63
1, 894029, Note_on_c, 0, 66, 0
1, 894208, Note_on_c, 0, 69, 74
1, 894208, Note_on_c, 1, 57, 0
1, 894208, Note_on_c, 1, 62, 65
1, 894464, Note_on_c, 0, 69, 0
1, 894464, Note_on_c, 0, 68, 75
1, 894464, Note_on_c, 1, 62, 0
1, 894464, Note_on_c, 1, 60, 66
1, 894720, Note_on_c, 0, 68, 0
1, 894720, Note_on_c, 0, 69, 75
1, 894720, Note_on_c, 1, 60, 0
1, 894720, Note_on_c, 1, 62, 67
1, 894976, Note_on_c, 0, 69, 0
1, 894976, Note_on_c, 0, 70, 76
1, 894976, Note_on_c, 1, 62, 0
1, 894976, Note_on_c, 1, 57, 68
1, 895232, Note_on_c, 0, 70, 0
1, 895232, Note_on_c, 0, 71, 77
1, 895232, Note_on_c, 1, 57, 0
1, 895232, Note_on_c, 1, 62, 70
1, 895488, Note_on_c, 0, 71, 0
1, 895488, Note_on_c, 0, 72, 77
1, 895488, Note_on_c, 1, 62, 0
1, 895488, Note_on_c, 1, 60, 71
1, 895744, Note_on_c, 0, 72, 0
1, 895744, Note_on_c, 0, 73, 78
1, 895744, Note_on_c, 1, 60, 0
1, 895744, Note_on_c, 1, 62, 72
1, 896000, Note_on_c, 0, 73, 0
1, 896000, Note_on_c, 0, 74, 79
1, 896000, Note_on_c, 1, 62, 0
1, 896000, Note_on_c, 1, 55, 74
1, 896256, Note_on_c, 0, 74, 0
1, 896256, Note_on_c, 0, 71, 79
1, 896256, Note_on_c, 1, 62, 77
1, 896512, Note_on_c, 0, 71, 0
1, 896512, Note_on_c, 0, 74, 80
1, 896512, Note_on_c, 1, 62, 0
1, 896512, Note_on_c, 1, 59, 77
1, 896768, Note_on_c, 0, 74, 0
1, 896768, Note_on_c, 0, 71, 81
1, 896768, Note_on_c, 1, 59, 0
1, 896768, Note_on_c, 1, 62, 77
1, 897024, Note_on_c, 0, 71, 0
1, 897024, Note_on_c, 0, 79, 82
1, 897024, Note_on_c, 1, 55, 0
1, 897024, Note_on_c, 1, 52, 76
1, 897024, Note_on_c, 1, 62, 0
1, 897280, Note_on_c, 1, 59, 77
1, 897536, Note_on_c, 1, 59, 0
1, 897536, Note_on_c, 1, 55, 77
1, 897792, Note_on_c, 1, 55, 0
1, 897792, Note_on_c, 1, 59, 77
1, 898048, Note_on_c, 0, 79, 0
1, 898048, Note_on_c, 1, 52, 0
1, 898048, Note_on_c, 1, 47, 79
1, 898048, Note_on_c, 1, 59, 0
1, 898304, Note_on_c, 0, 83, 85
1, 898304, Note_on_c, 1, 55, 77
1, 898560, Note_on_c, 0, 83, 0
1, 898560, Note_on_c, 0, 78, 86
1, 898560, Note_on_c, 1, 55, 0
1, 898560, Note_on_c, 1, 50, 77
1, 898816, Note_on_c, 0, 78, 0
1, 898816, Note_on_c, 0, 79, 86
1, 898816, Note_on_c, 1, 50, 0
1, 898816, Note_on_c, 1, 55, 77
1, 899072, Note_on_c, 0, 79, 0
1, 899072, Note_on_c, 0, 75, 86
1, 899072, Note_on_c, 1, 47, 0
1, 899072, Note_on_c, 1, 55, 0
1, 899072, Note_on_c, 1, 48, 77
1, 899328, Note_on_c, 0, 75, 0
1, 899328, Note_on_c, 0, 76, 84
1, 899328, Note_on_c, 1, 57, 77
1, 899584, Note_on_c, 0, 76, 0
1, 899584, Note_on_c, 0, 72, 83
1, 899584, Note_on_c, 1, 57, 0
1, 899584, Note_on_c, 1, 52, 77
1, 899840, Note_on_c, 0, 72, 0
1, 899840, Note_on_c, 0, 69, 80
1, 899840, Note_on_c, 1, 52, 0
1, 899840, Note_on_c, 1, 57, 77
1, 900096, Note_on_c, 0, 69, 0
1, 900096, Note_on_c, 0, 67, 79
1, 900096, Note_on_c, 1, 48, 0
1, 900096, Note_on_c, 1, 50, 70
1, 900096, Note_on_c, 1, 57, 0
1, 900352, Note_on_c, 1, 59, 77
1, 900608, Note_on_c, 1, 59, 0
1, 900608, Note_on_c, 1, 55, 77
1, 900864, Note_on_c, 0, 67, 0
1, 900864, Note_on_c, 0, 67, 74
1, 900864, Note_on_c, 1, 55, 0
1, 900864, Note_on_c, 1, 59, 77
1, 901120, Note_on_c, 0, 67, 0
1, 901120, Note_on_c, 0, 71, 71
1, 901120, Note_on_c, 0, 66, 83
1, 901120, Note_on_c, 1, 50, 0
1, 901120, Note_on_c, 1, 50, 64
1, 901120, Note_on_c, 1, 59, 0
1, 901376, Note_on_c, 0, 71, 0
1, 901376, Note_on_c, 0, 69, 70
1, 901376, Note_on_c, 1, 60, 77
1, 901632, Note_on_c, 0, 69, 0
1, 901632, Note_on_c, 0, 67, 69
1, 901632, Note_on_c, 1, 60, 0
1, 901632, Note_on_c, 1, 57, 77
1, 901888, Note_on_c, 0, 67, 0
1, 901888, Note_on_c, 0, 69, 66
1, 901888, Note_on_c, 1, 57, 0
1, 901888, Note_on_c, 1, 60, 77
1, 902144, Note_on_c, 0, 69, 0
1, 902144, Note_on_c, 0, 66, 0
1, 902144, Note_on_c, 0, 67, 61
1, 902144, Note_on_c, 1, 50, 0
1, 902144, Note_on_c, 1, 60, 0
1, 902144, Note_on_c, 1, 55, 54
1, 902144, Note_on_c, 1, 59, 54
1, 902400, Note_on_c, 0, 67, 0
1, 902400, Note_on_c, 0, 66, 46
1, 902656, Note_on_c, 0, 66, 0
1, 902656, Note_on_c, 0, 69, 47
1, 902912, Note_on_c, 0, 69, 0
1, 902912, Note_on_c, 0, 67, 48
1, 903168, Note_on_c, 0, 67, 0
1, 903168, Note_on_c, 0, 71, 50
1, 903168, Note_on_c, 1, 55, 0
1, 903168, Note_on_c, 1, 59, 0
1, 903424, Note_on_c, 0, 71, 0
1, 903424, Note_on_c, 0, 69, 51
1, 903680, Note_on_c, 0, 69, 0
1, 903680, Note_on_c, 0, 72, 52
1, 903936, Note_on_c, 0, 72, 0
1, 903936, Note_on_c, 0, 71, 54
1, 904192, Note_on_c, 0, 71, 0
1, 904192, Note_on_c, 0, 74, 54
1, 904448, Note_on_c, 0, 74, 0
1, 904448, Note_on_c, 0, 72, 56
1, 904704, Note_on_c, 0, 72, 0
1, 904704, Note_on_c, 0, 76, 58
1, 904960, Note_on_c, 0, 76, 0
1, 904960, Note_on_c, 0, 74, 59
1, 905216, Note_on_c, 0, 74, 0
1, 905216, Note_on_c, 0, 77, 80
1, 905216, Note_on_c, 1, 57, 55
1, 905472, Note_on_c, 1, 57, 0
1, 905472, Note_on_c, 1, 65, 42
1, 905728, Note_on_c, 1, 65, 0
1, 905728, Note_on_c, 1, 60, 42
1, 905984, Note_on_c, 1, 60, 0
1, 905984, Note_on_c, 1, 65, 44
1, 906240, Note_on_c, 1, 65, 0
1, 906240, Note_on_c, 1, 57, 44
1, 906496, Note_on_c, 1, 57, 0
1, 906496, Note_on_c, 1, 65, 44
1, 906752, Note_on_c, 0, 77, 0
1, 906752, Note_on_c, 0, 79, 52
1, 906752, Note_on_c, 1, 65, 0
1, 906752, Note_on_c, 1, 60, 46
1, 907008, Note_on_c, 0, 79, 0
1, 907008, Note_on_c, 0, 81, 54
1, 907008, Note_on_c, 1, 60, 0
1, 907008, Note_on_c, 1, 65, 48
1, 907264, Note_on_c, 0, 81, 0
1, 907264, Note_on_c, 0, 79, 59
1, 907264, Note_on_c, 1, 65, 0
1, 907264, Note_on_c, 1, 59, 48
1, 907520, Note_on_c, 0, 79, 0
1, 907520, Note_on_c, 0, 77, 56
1, 907520, Note_on_c, 1, 59, 0
1, 907520, Note_on_c, 1, 67, 50
1, 907776, Note_on_c, 0, 77, 0
1, 907776, Note_on_c, 0, 76, 56
1, 907776, Note_on_c, 1, 67, 0
1, 907776, Note_on_c, 1, 62, 50
1, 908032, Note_on_c, 0, 76, 0
1, 908032, Note_on_c, 0, 74, 58
1, 908032, Note_on_c, 1, 62, 0
1, 908032, Note_on_c, 1, 67, 50
1, 908288, Note_on_c, 0, 74, 0
1, 908288, Note_on_c, 0, 75, 62
1, 908288, Note_on_c, 1, 67, 0
1, 908288, Note_on_c, 1, 60, 49
1, 908544, Note_on_c, 1, 60, 0
1, 908544, Note_on_c, 1, 67, 46
1, 908800, Note_on_c, 1, 67, 0
1, 908800, Note_on_c, 1, 64, 43
1, 909056, Note_on_c, 1, 64, 0
1, 909056, Note_on_c, 1, 67, 40
1, 909312, Note_on_c, 0, 75, 0
1, 909312, Note_on_c, 0, 76, 52
1, 909312, Note_on_c, 1, 67, 0
1, 909312, Note_on_c, 1, 60, 37
1, 909568, Note_on_c, 1, 60, 0
1, 909568, Note_on_c, 1, 67, 37
1, 909824, Note_on_c, 1, 67, 0
1, 909824, Note_on_c, 1, 64, 39
1, 910080, Note_on_c, 1, 64, 0
1, 910080, Note_on_c, 1, 67, 40
1, 910336, Note_on_c, 0, 76, 0
1, 910336, Note_on_c, 1, 67, 0
1, 910336, Note_on_c, 1, 60, 42
1, 910592, Note_on_c, 0, 79, 58
1, 910592, Note_on_c, 1, 60, 0
1, 910592, Note_on_c, 1, 67, 43
1, 910848, Note_on_c, 0, 79, 0
1, 910848, Note_on_c, 0, 78, 61
1, 910848, Note_on_c, 1, 67, 0
1, 910848, Note_on_c, 1, 64, 45
1, 911104, Note_on_c, 0, 78, 0
1, 911104, Note_on_c, 0, 76, 62
1, 911104, Note_on_c, 1, 64, 0
1, 911104, Note_on_c, 1, 67, 46
1, 911360, Note_on_c, 0, 76, 0
1, 911360, Note_on_c, 0, 74, 62
1, 911360, Note_on_c, 1, 67, 0
1, 911360, Note_on_c, 1, 59, 46
1, 911616, Note_on_c, 0, 74, 0
1, 911616, Note_on_c, 0, 71, 61
1, 911616, Note_on_c, 1, 59, 0
1, 911616, Note_on_c, 1, 62, 45
1, 911872, Note_on_c, 0, 71, 0
1, 911872, Note_on_c, 0, 69, 60
1, 911872, Note_on_c, 1, 62, 0
1, 911872, Note_on_c, 1, 60, 44
1, 912128, Note_on_c, 0, 69, 0
1, 912128, Note_on_c, 0, 76, 59
1, 912128, Note_on_c, 1, 60, 0
1, 912128, Note_on_c, 1, 64, 44
1, 912384, Note_on_c, 0, 76, 0
1, 912384, Note_on_c, 0, 67, 57
1, 912384, Note_on_c, 1, 64, 0
1, 912384, Note_on_c, 1, 50, 43
1, 912640, Note_on_c, 1, 50, 0
1, 912640, Note_on_c, 1, 59, 42
1, 912896, Note_on_c, 1, 59, 0
1, 912896, Note_on_c, 1, 55, 41
1, 913152, Note_on_c, 0, 67, 0
1, 913152, Note_on_c, 0, 67, 54
1, 913152, Note_on_c, 1, 55, 0
1, 913152, Note_on_c, 1, 59, 41
1, 913408, Note_on_c, 0, 67, 0
1, 913408, Note_on_c, 0, 71, 57
1, 913408, Note_on_c, 0, 66, 49
1, 913408, Note_on_c, 1, 59, 0
1, 913408, Note_on_c, 1, 50, 40
1, 913664, Note_on_c, 0, 71, 0
1, 913664, Note_on_c, 0, 69, 52
1, 913664, Note_on_c, 1, 50, 0
1, 913664, Note_on_c, 1, 60, 40
1, 913920, Note_on_c, 0, 69, 0
1, 913920, Note_on_c, 0, 67, 51
1, 913920, Note_on_c, 1, 60, 0
1, 913920, Note_on_c, 1, 57, 38
1, 914176, Note_on_c, 0, 67, 0
1, 914176, Note_on_c, 0, 69, 50
1, 914176, Note_on_c, 1, 57, 0
1, 914176, Note_on_c, 1, 60, 38
1, 914432, Note_on_c, 0, 69, 0
1, 914432, Note_on_c, 0, 66, 0
1, 914432, Note_on_c, 0, 67, 49
1, 914432, Note_on_c, 1, 60, 0
1, 914432, Note_on_c, 1, 55, 37
1, 914432, Note_on_c, 1, 59, 37
1, 914688, Note_on_c, 0, 67, 0
1, 914688, Note_on_c, 0, 66, 49
1, 914944, Note_on_c, 0, 66, 0
1, 914944, Note_on_c, 0, 69, 50
1, 915200, Note_on_c, 0, 69, 0
1, 915200, Note_on_c, 0, 67, 52
1, 915456, Note_on_c, 0, 67, 0
1, 915456, Note_on_c, 0, 71, 53
1, 915456, Note_on_c, 1, 55, 0
1, 915456, Note_on_c, 1, 59, 0
1, 915712, Note_on_c, 0, 71, 0
1, 915712, Note_on_c, 0, 69, 54
1, 915968, Note_on_c, 0, 69, 0
1, 915968, Note_on_c, 0, 72, 55
1, 916224, Note_on_c, 0, 72, 0
1, 916224, Note_on_c, 0, 71, 57
1, 916480, Note_on_c, 0, 71, 0
1, 916480, Note_on_c, 0, 74, 58
1, 916736, Note_on_c, 0, 74, 0
1, 916736, Note_on_c, 0, 72, 59
1, 916992, Note_on_c, 0, 72, 0
1, 916992, Note_on_c, 0, 76, 61
1, 917248, Note_on_c, 0, 76, 0
1, 917248, Note_on_c, 0, 74, 62
1, 917504, Note_on_c, 0, 74, 0
1, 917504, Note_on_c, 0, 77, 83
1, 917504, Note_on_c, 1, 45, 71
1, 917760, Note_on_c, 1, 45, 0
1, 917760, Note_on_c, 1, 53, 71
1, 918016, Note_on_c, 1, 53, 0
1, 918016, Note_on_c, 1, 48, 71
1, 918272, Note_on_c, 1, 48, 0
1, 918272, Note_on_c, 1, 53, 71
1, 918528, Note_on_c, 1, 53, 0
1, 918528, Note_on_c, 1, 47, 71
1, 918784, Note_on_c, 1, 47, 0
1, 918784, Note_on_c, 1, 53, 71
1, 919040, Note_on_c, 0, 77, 0
1, 919040, Note_on_c, 0, 79, 83
1, 919040, Note_on_c, 1, 53, 0
1, 919040, Note_on_c, 1, 50, 71
1, 919296, Note_on_c, 0, 79, 0
1, 919296, Note_on_c, 0, 81, 83
1, 919296, Note_on_c, 1, 50, 0
1, 919296, Note_on_c, 1, 53, 71
1, 919552, Note_on_c, 0, 81, 0
1, 919552, Note_on_c, 0, 79, 87
1, 919552, Note_on_c, 1, 53, 0
1, 919552, Note_on_c, 1, 43, 71
1, 919808, Note_on_c, 0, 79, 0
1, 919808, Note_on_c, 0, 77, 83
1, 919808, Note_on_c, 1, 43, 0
1, 919808, Note_on_c, 1, 53, 71
1, 920064, Note_on_c, 0, 77, 0
1, 920064, Note_on_c, 0, 76, 83
1, 920064, Note_on_c, 1, 53, 0
1, 920064, Note_on_c, 1, 47, 71
1, 920320, Note_on_c, 0, 76, 0
1, 920320, Note_on_c, 0, 74, 83
1, 920320, Note_on_c, 1, 47, 0
1, 920320, Note_on_c, 1, 53, 71
1, 920576, Note_on_c, 0, 74, 0
1, 920576, Note_on_c, 0, 76, 83
1, 920576, Note_on_c, 1, 53, 0
1, 920576, Note_on_c, 1, 48, 71
1, 920832, Note_on_c, 1, 48, 0
1, 920832, Note_on_c, 1, 55, 72
1, 921088, Note_on_c, 1, 55, 0
1, 921088, Note_on_c, 1, 52, 73
1, 921344, Note_on_c, 1, 52, 0
1, 921344, Note_on_c, 1, 55, 74
1, 921600, Note_on_c, 0, 76, 0
1, 921600, Note_on_c, 0, 78, 93
1, 921600, Note_on_c, 1, 55, 0
1, 921600, Note_on_c, 1, 48, 75
1, 921856, Note_on_c, 1, 48, 0
1, 921856, Note_on_c, 1, 57, 76
1, 922112, Note_on_c, 1, 57, 0
1, 922112, Note_on_c, 1, 51, 77
1, 922368, Note_on_c, 1, 51, 0
1, 922368, Note_on_c, 1, 57, 78
1, 922624, Note_on_c, 0, 78, 0
1, 922624, Note_on_c, 0, 79, 98
1, 922624, Note_on_c, 1, 57, 0
1, 922624, Note_on_c, 1, 49, 79
1, 922880, Note_on_c, 1, 49, 0
1, 922880, Note_on_c, 1, 58, 79
1, 923136, Note_on_c, 1, 58, 0
1, 923136, Note_on_c, 1, 52, 80
1, 923392, Note_on_c, 1, 52, 0
1, 923392, Note_on_c, 1, 58, 82
1, 923648, Note_on_c, 0, 79, 0
1, 923648, Note_on_c, 0, 67, 100
1, 923648, Note_on_c, 1, 58, 0
1, 923648, Note_on_c, 1, 50, 79
1, 923904, Note_on_c, 1, 50, 0
1, 923904, Note_on_c, 1, 59, 74
1, 924160, Note_on_c, 1, 59, 0
1, 924160, Note_on_c, 1, 55, 74
1, 924416, Note_on_c, 1, 55, 0
1, 924416, Note_on_c, 1, 59, 69
1, 924672, Note_on_c, 1, 59, 0
1, 924672, Note_on_c, 1, 50, 68
1, 924928, Note_on_c, 1, 50, 0
1, 924928, Note_on_c, 1, 59, 66
1, 925184, Note_on_c, 0, 67, 0
1, 925184, Note_on_c, 0, 69, 86
1, 925184, Note_on_c, 1, 59, 0
1, 925184, Note_on_c, 1, 55, 65
1, 925312, Note_on_c, 0, 69, 0
1, 925312, Note_on_c, 0, 67, 83
1, 925440, Note_on_c, 0, 67, 0
1, 925440, Note_on_c, 0, 66, 77
1, 925440, Note_on_c, 1, 55, 0
1, 925440, Note_on_c, 1, 59, 62
1, 925568, Note_on_c, 0, 66, 0
1, 925568, Note_on_c, 0, 67, 74
1, 925696, Note_on_c, 0, 67, 0
1, 925696, Note_on_c, 0, 71, 72
1, 925696, Note_on_c, 0, 66, 65
1, 925696, Note_on_c, 1, 59, 0
1, 925696, Note_on_c, 1, 50, 59
1, 925952, Note_on_c, 1, 50, 0
1, 925952, Note_on_c, 1, 60, 57
1, 926208, Note_on_c, 0, 71, 0
1, 926208, Note_on_c, 0, 69, 69
1, 926208, Note_on_c, 1, 60, 0
1, 926208, Note_on_c, 1, 57, 56
1, 926464, Note_on_c, 1, 57, 0
1, 926464, Note_on_c, 1, 60, 54
1, 926720, Note_on_c, 0, 69, 0
1, 926720, Note_on_c, 0, 66, 0
1, 926720, Note_on_c, 0, 67, 67
1, 926720, Note_on_c, 1, 60, 0
1, 926720, Note_on_c, 1, 55, 54
1, 926720, Note_on_c, 1, 59, 54
1, 926976, Note_on_c, 0, 67, 0
1, 926976, Note_on_c, 0, 62, 58
1, 927232, Note_on_c, 0, 62, 0
1, 927232, Note_on_c, 0, 71, 56
1, 927309, Note_on_c, 0, 71, 0
1, 927488, Note_on_c, 0, 71, 57
1, 927565, Note_on_c, 0, 71, 0
1, 927744, Note_on_c, 0, 71, 62
1, 927744, Note_on_c, 1, 55, 0
1, 927744, Note_on_c, 1, 59, 0
1, 928000, Note_on_c, 0, 71, 0
1, 928000, Note_on_c, 0, 67, 57
1, 928256, Note_on_c, 0, 67, 0
1, 928256, Note_on_c, 0, 74, 57
1, 928333, Note_on_c, 0, 74, 0
1, 928512, Note_on_c, 0, 74, 59
1, 928589, Note_on_c, 0, 74, 0
1, 928768, Note_on_c, 0, 74, 63
1, 929024, Note_on_c, 0, 74, 0
1, 929024, Note_on_c, 0, 71, 57
1, 929280, Note_on_c, 0, 71, 0
1, 929280, Note_on_c, 0, 69, 55
1, 929280, Note_on_c, 1, 50, 43
1, 929280, Note_on_c, 1, 60, 43
1, 929536, Note_on_c, 0, 69, 0
1, 929536, Note_on_c, 0, 71, 53
1, 929792, Note_on_c, 0, 71, 0
1, 929792, Note_on_c, 0, 67, 52
1, 929792, Note_on_c, 1, 50, 0
1, 929792, Note_on_c, 1, 60, 0
1, 929792, Note_on_c, 1, 55, 33
1, 929792, Note_on_c, 1, 59, 33
1, 930048, Note_on_c, 0, 67, 0
1, 930048, Note_on_c, 0, 62, 49
1, 930304, Note_on_c, 0, 62, 0
1, 930304, Note_on_c, 0, 71, 47
1, 930381, Note_on_c, 0, 71, 0
1, 930560, Note_on_c, 0, 71, 48
1, 930637, Note_on_c, 0, 71, 0
1, 930816, Note_on_c, 0, 71, 53
1, 930816, Note_on_c, 1, 55, 0
1, 930816, Note_on_c, 1, 59, 0
1, 931072, Note_on_c, 0, 71, 0
1, 931072, Note_on_c, 0, 67, 50
1, 931328, Note_on_c, 0, 67, 0
1, 931328, Note_on_c, 0, 74, 51
1, 931405, Note_on_c, 0, 74, 0
1, 931584, Note_on_c, 0, 74, 52
1, 931661, Note_on_c, 0, 74, 0
1, 931840, Note_on_c, 0, 74, 56
1, 932096, Note_on_c, 0, 74, 0
1, 932096, Note_on_c, 0, 71, 50
1, 932352, Note_on_c, 0, 71, 0
1, 932352, Note_on_c, 0, 69, 49
1, 932352, Note_on_c, 1, 50, 43
1, 932352, Note_on_c, 1, 60, 43
1, 932608, Note_on_c, 0, 69, 0
1, 932608, Note_on_c, 0, 71, 47
1, 932864, Note_on_c, 0, 71, 0
1, 932864, Note_on_c, 0, 67, 46
1, 932864, Note_on_c, 1, 50, 0
1, 932864, Note_on_c, 1, 60, 0
1, 932864, Note_on_c, 1, 55, 38
1, 932864, Note_on_c, 1, 59, 38
1, 933376, Note_on_c, 0, 67, 0
1, 933376, Note_on_c, 1, 55, 0
1, 933376, Note_on_c, 1, 59, 0
1, 933888, Note_on_c, 0, 59, 57
1, 933888, Note_on_c, 0, 67, 57
1, 933888, Note_on_c, 1, 43, 46
1, 934400, Note_on_c, 0, 59, 0
1, 934400, Note_on_c, 0, 67, 0
1, 934400, Note_on_c, 1, 43, 0
1, 935936, Note_on_c, 0, 70, 46
1, 935936, Note_on_c, 1, 55, 46
1, 936192, Note_on_c, 1, 55, 0
1, 936192, Note_on_c, 1, 62, 46
1, 936448, Note_on_c, 1, 62, 0
1, 936448, Note_on_c, 1, 58, 48
1, 936704, Note_on_c, 1, 58, 0
1, 936704, Note_on_c, 1, 62, 48
1, 936960, Note_on_c, 1, 62, 0
1, 936960, Note_on_c, 1, 55, 49
1, 937216, Note_on_c, 0, 70, 0
1, 937216, Note_on_c, 0, 69, 50
1, 937216, Note_on_c, 1, 55, 0
1, 937216, Note_on_c, 1, 62, 50
1, 937472, Note_on_c, 0, 69, 0
1, 937472, Note_on_c, 0, 72, 51
1, 937472, Note_on_c, 1, 62, 0
1, 937472, Note_on_c, 1, 58, 51
1, 937728, Note_on_c, 0, 72, 0
1, 937728, Note_on_c, 0, 70, 52
1, 937728, Note_on_c, 1, 58, 0
1, 937728, Note_on_c, 1, 62, 52
1, 937984, Note_on_c, 0, 70, 0
1, 937984, Note_on_c, 0, 70, 56
1, 937984, Note_on_c, 1, 62, 0
1, 937984, Note_on_c, 1, 57, 52
1, 938240, Note_on_c, 0, 70, 0
1, 938240, Note_on_c, 0, 69, 53
1, 938240, Note_on_c, 1, 57, 0
1, 938240, Note_on_c, 1, 62, 53
1, 938496, Note_on_c, 0, 69, 0
1, 938496, Note_on_c, 0, 67, 54
1, 938496, Note_on_c, 1, 62, 0
1, 938496, Note_on_c, 1, 60, 54
1, 938752, Note_on_c, 0, 67, 0
1, 938752, Note_on_c, 0, 66, 55
1, 938752, Note_on_c, 1, 60, 0
1, 938752, Note_on_c, 1, 62, 55
1, 939008, Note_on_c, 0, 66, 0
1, 939008, Note_on_c, 0, 67, 55
1, 939008, Note_on_c, 1, 62, 0
1, 939008, Note_on_c, 1, 55, 52
1, 939264, Note_on_c, 1, 55, 0
1, 939264, Note_on_c, 1, 62, 49
1, 939520, Note_on_c, 1, 62, 0
1, 939520, Note_on_c, 1, 58, 47
1, 939776, Note_on_c, 0, 67, 0
1, 939776, Note_on_c, 0, 70, 48
1, 939776, Note_on_c, 1, 58, 0
1, 939776, Note_on_c, 1, 62, 45
1, 940032, Note_on_c, 0, 70, 0
1, 940032, Note_on_c, 0, 74, 46
1, 940032, Note_on_c, 1, 62, 0
1, 940032, Note_on_c, 1, 55, 43
1, 940288, Note_on_c, 1, 55, 0
1, 940288, Note_on_c, 1, 62, 40
1, 940544, Note_on_c, 1, 62, 0
1, 940544, Note_on_c, 1, 58, 41
1, 940800, Note_on_c, 1, 58, 0
1, 940800, Note_on_c, 1, 62, 41
1, 941056, Note_on_c, 0, 74, 0
1, 941056, Note_on_c, 1, 62, 0
1, 941056, Note_on_c, 1, 55, 42
1, 941312, Note_on_c, 1, 55, 0
1, 941312, Note_on_c, 1, 62, 42
1, 941568, Note_on_c, 1, 62, 0
1, 941568, Note_on_c, 1, 58, 42
1, 941824, Note_on_c, 1, 58, 0
1, 941824, Note_on_c, 1, 62, 43
1, 942080, Note_on_c, 0, 74, 60
1, 942080, Note_on_c, 1, 62, 0
1, 942080, Note_on_c, 1, 54, 44
1, 942336, Note_on_c, 1, 54, 0
1, 942336, Note_on_c, 1, 62, 44
1, 942592, Note_on_c, 1, 62, 0
1, 942592, Note_on_c, 1, 57, 45
1, 942848, Note_on_c, 1, 57, 0
1, 942848, Note_on_c, 1, 62, 45
1, 943104, Note_on_c, 1, 62, 0
1, 943104, Note_on_c, 1, 54, 45
1, 943360, Note_on_c, 0, 74, 0
1, 943360, Note_on_c, 0, 73, 64
1, 943360, Note_on_c, 1, 54, 0
1, 943360, Note_on_c, 1, 62, 46
1, 943616, Note_on_c, 0, 73, 0
1, 943616, Note_on_c, 0, 75, 65
1, 943616, Note_on_c, 1, 62, 0
1, 943616, Note_on_c, 1, 57, 46
1, 943872, Note_on_c, 0, 75, 0
1, 943872, Note_on_c, 0, 74, 66
1, 943872, Note_on_c, 1, 57, 0
1, 943872, Note_on_c, 1, 62, 47
1, 944128, Note_on_c, 0, 74, 0
1, 944128, Note_on_c, 0, 74, 71
1, 944128, Note_on_c, 1, 62, 0
1, 944128, Note_on_c, 1, 50, 48
1, 944384, Note_on_c, 0, 74, 0
1, 944384, Note_on_c, 0, 72, 67
1, 944384, Note_on_c, 1, 50, 0
1, 944384, Note_on_c, 1, 62, 48
1, 944640, Note_on_c, 0, 72, 0
1, 944640, Note_on_c, 0, 70, 69
1, 944640, Note_on_c, 1, 62, 0
1, 944640, Note_on_c, 1, 54, 48
1, 944896, Note_on_c, 0, 70, 0
1, 944896, Note_on_c, 0, 69, 69
1, 944896, Note_on_c, 1, 54, 0
1, 944896, Note_on_c, 1, 62, 49
1, 945152, Note_on_c, 0, 69, 0
1, 945152, Note_on_c, 0, 70, 69
1, 945152, Note_on_c, 1, 62, 0
1, 945152, Note_on_c, 1, 55, 46
1, 945408, Note_on_c, 1, 55, 0
1, 945408, Note_on_c, 1, 62, 44
1, 945664, Note_on_c, 1, 62, 0
1, 945664, Note_on_c, 1, 58, 41
1, 945920, Note_on_c, 0, 70, 0
1, 945920, Note_on_c, 0, 74, 62
1, 945920, Note_on_c, 1, 58, 0
1, 945920, Note_on_c, 1, 62, 40
1, 946176, Note_on_c, 0, 74, 0
1, 946176, Note_on_c, 0, 79, 60
1, 946176, Note_on_c, 1, 62, 0
1, 946176, Note_on_c, 1, 55, 37
1, 946432, Note_on_c, 1, 55, 0
1, 946432, Note_on_c, 1, 62, 37
1, 946688, Note_on_c, 1, 62, 0
1, 946688, Note_on_c, 1, 58, 40
1, 946944, Note_on_c, 1, 58, 0
1, 946944, Note_on_c, 1, 62, 43
1, 947200, Note_on_c, 0, 79, 0
1, 947200, Note_on_c, 1, 62, 0
1, 947200, Note_on_c, 1, 55, 46
1, 947456, Note_on_c, 1, 55, 0
1, 947456, Note_on_c, 1, 63, 49
1, 947712, Note_on_c, 1, 63, 0
1, 947712, Note_on_c, 1, 58, 52
1, 947968, Note_on_c, 1, 58, 0
1, 947968, Note_on_c, 1, 63, 55
1, 948224, Note_on_c, 0, 77, 83
1, 948224, Note_on_c, 1, 63, 0
1, 948224, Note_on_c, 1, 57, 83
1, 948480, Note_on_c, 1, 57, 0
1, 948480, Note_on_c, 1, 65, 80
1, 948736, Note_on_c, 1, 65, 0
1, 948736, Note_on_c, 1, 60, 77
1, 948992, Note_on_c, 1, 60, 0
1, 948992, Note_on_c, 1, 65, 73
1, 949248, Note_on_c, 1, 65, 0
1, 949248, Note_on_c, 1, 57, 73
1, 949504, Note_on_c, 0, 77, 0
1, 949504, Note_on_c, 0, 81, 73
1, 949504, Note_on_c, 1, 57, 0
1, 949504, Note_on_c, 1, 65, 75
1, 949760, Note_on_c, 0, 81, 0
1, 949760, Note_on_c, 0, 84, 75
1, 949760, Note_on_c, 1, 65, 0
1, 949760, Note_on_c, 1, 60, 76
1, 950016, Note_on_c, 0, 84, 0
1, 950016, Note_on_c, 0, 82, 77
1, 950016, Note_on_c, 1, 60, 0
1, 950016, Note_on_c, 1, 65, 77
1, 950272, Note_on_c, 0, 82, 0
1, 950272, Note_on_c, 0, 81, 79
1, 950272, Note_on_c, 1, 65, 0
1, 950272, Note_on_c, 1, 57, 79
1, 950528, Note_on_c, 0, 81, 0
1, 950528, Note_on_c, 0, 79, 80
1, 950528, Note_on_c, 1, 57, 0
1, 950528, Note_on_c, 1, 65, 80
1, 950784, Note_on_c, 0, 79, 0
1, 950784, Note_on_c, 0, 77, 82
1, 950784, Note_on_c, 1, 65, 0
1, 950784, Note_on_c, 1, 60, 82
1, 951040, Note_on_c, 0, 77, 0
1, 951040, Note_on_c, 0, 75, 83
1, 951040, Note_on_c, 1, 60, 0
1, 951040, Note_on_c, 1, 65, 83
1, 951296, Note_on_c, 0, 75, 0
1, 951296, Note_on_c, 0, 74, 83
1, 951296, Note_on_c, 1, 65, 0
1, 951296, Note_on_c, 1, 58, 83
1, 951552, Note_on_c, 1, 58, 0
1, 951552, Note_on_c, 1, 65, 80
1, 951808, Note_on_c, 1, 65, 0
1, 951808, Note_on_c, 1, 62, 77
1, 952064, Note_on_c, 1, 62, 0
1, 952064, Note_on_c, 1, 65, 73
1, 952320, Note_on_c, 1, 65, 0
1, 952320, Note_on_c, 1, 55, 73
1, 952576, Note_on_c, 0, 74, 0
1, 952576, Note_on_c, 0, 79, 73
1, 952576, Note_on_c, 1, 55, 0
1, 952576, Note_on_c, 1, 62, 75
1, 952832, Note_on_c, 0, 79, 0
1, 952832, Note_on_c, 0, 82, 75
1, 952832, Note_on_c, 1, 62, 0
1, 952832, Note_on_c, 1, 58, 76
1, 953088, Note_on_c, 0, 82, 0
1, 953088, Note_on_c, 0, 81, 77
1, 953088, Note_on_c, 1, 58, 0
1, 953088, Note_on_c, 1, 62, 77
1, 953344, Note_on_c, 0, 81, 0
1, 953344, Note_on_c, 0, 79, 83
1, 953344, Note_on_c, 1, 62, 0
1, 953344, Note_on_c, 1, 50, 79
1, 953600, Note_on_c, 0, 79, 0
1, 953600, Note_on_c, 0, 77, 80
1, 953600, Note_on_c, 1, 50, 0
1, 953600, Note_on_c, 1, 58, 80
1, 953856, Note_on_c, 0, 77, 0
1, 953856, Note_on_c, 0, 75, 82
1, 953856, Note_on_c, 1, 58, 0
1, 953856, Note_on_c, 1, 53, 82
1, 954112, Note_on_c, 0, 75, 0
1, 954112, Note_on_c, 0, 74, 83
1, 954112, Note_on_c, 1, 53, 0
1, 954112, Note_on_c, 1, 58, 83
1, 954368, Note_on_c, 0, 74, 0
1, 954368, Note_on_c, 0, 71, 87
1, 954368, Note_on_c, 1, 58, 0
1, 954368, Note_on_c, 1, 51, 83
1, 954624, Note_on_c, 0, 71, 0
1, 954624, Note_on_c, 0, 72, 82
1, 954624, Note_on_c, 1, 51, 0
1, 954624, Note_on_c, 1, 60, 82
1, 954880, Note_on_c, 0, 72, 0
1, 954880, Note_on_c, 0, 75, 81
1, 954880, Note_on_c, 1, 60, 0
1, 954880, Note_on_c, 1, 55, 81
1, 955136, Note_on_c, 0, 75, 0
1, 955136, Note_on_c, 0, 79, 80
1, 955136, Note_on_c, 1, 55, 0
1, 955136, Note_on_c, 1, 60, 80
1, 955392, Note_on_c, 0, 79, 0
1, 955392, Note_on_c, 0, 70, 80
1, 955392, Note_on_c, 1, 60, 0
1, 955392, Note_on_c, 1, 53, 80
1, 955648, Note_on_c, 1, 53, 0
1, 955648, Note_on_c, 1, 62, 79
1, 955904, Note_on_c, 1, 62, 0
1, 955904, Note_on_c, 1, 58, 78
1, 956160, Note_on_c, 0, 70, 0
1, 956160, Note_on_c, 0, 70, 77
1, 956160, Note_on_c, 1, 58, 0
1, 956160, Note_on_c, 1, 62, 77
1, 956416, Note_on_c, 0, 70, 0
1, 956416, Note_on_c, 0, 74, 80
1, 956416, Note_on_c, 1, 62, 0
1, 956416, Note_on_c, 1, 54, 76
1, 956672, Note_on_c, 0, 74, 0
1, 956672, Note_on_c, 0, 72, 75
1, 956672, Note_on_c, 1, 54, 0
1, 956672, Note_on_c, 1, 63, 75
1, 956928, Note_on_c, 0, 72, 0
1, 956928, Note_on_c, 0, 70, 74
1, 956928, Note_on_c, 1, 63, 0
1, 956928, Note_on_c, 1, 60, 74
1, 957184, Note_on_c, 0, 70, 0
1, 957184, Note_on_c, 0, 72, 73
1, 957184, Note_on_c, 1, 60, 0
1, 957184, Note_on_c, 1, 63, 73
1, 957440, Note_on_c, 0, 72, 0
1, 957440, Note_on_c, 0, 69, 73
1, 957440, Note_on_c, 0, 72, 73
1, 957440, Note_on_c, 1, 63, 0
1, 957440, Note_on_c, 1, 63, 68
1, 957440, Note_on_c, 1, 58, 77
1, 958464, Note_on_c, 0, 69, 0
1, 958464, Note_on_c, 0, 72, 0
1, 958464, Note_on_c, 0, 70, 70
1, 958464, Note_on_c, 1, 63, 0
1, 958464, Note_on_c, 1, 62, 65
1, 958720, Note_on_c, 0, 70, 0
1, 958720, Note_on_c, 0, 69, 49
1, 958976, Note_on_c, 0, 69, 0
1, 958976, Note_on_c, 0, 72, 51
1, 959232, Note_on_c, 0, 72, 0
1, 959232, Note_on_c, 0, 70, 52
1, 959488, Note_on_c, 0, 70, 0
1, 959488, Note_on_c, 0, 74, 54
1, 959488, Note_on_c, 1, 62, 0
1, 959488, Note_on_c, 1, 58, 0
1, 959744, Note_on_c, 0, 74, 0
1, 959744, Note_on_c, 0, 72, 55
1, 960000, Note_on_c, 0, 72, 0
1, 960000, Note_on_c, 0, 75, 57
1, 960256, Note_on_c, 0, 75, 0
1, 960256, Note_on_c, 0, 74, 59
1, 960512, Note_on_c, 0, 74, 0
1, 960512, Note_on_c, 0, 77, 59
1, 960512, Note_on_c, 1, 56, 43
1, 960768, Note_on_c, 1, 56, 0
1, 960768, Note_on_c, 1, 65, 40
1, 961024, Note_on_c, 1, 65, 0
1, 961024, Note_on_c, 1, 60, 37
1, 961280, Note_on_c, 1, 60, 0
1, 961280, Note_on_c, 1, 65, 34
1, 961536, Note_on_c, 1, 65, 0
1, 961536, Note_on_c, 1, 55, 34
1, 961792, Note_on_c, 0, 77, 0
1, 961792, Note_on_c, 0, 80, 55
1, 961792, Note_on_c, 1, 55, 0
1, 961792, Note_on_c, 1, 62, 36
1, 962048, Note_on_c, 0, 80, 0
1, 962048, Note_on_c, 0, 79, 58
1, 962048, Note_on_c, 1, 62, 0
1, 962048, Note_on_c, 1, 59, 38
1, 962304, Note_on_c, 0, 79, 0
1, 962304, Note_on_c, 0, 77, 59
1, 962304, Note_on_c, 1, 59, 0
1, 962304, Note_on_c, 1, 62, 39
1, 962560, Note_on_c, 0, 77, 0
1, 962560, Note_on_c, 0, 75, 61
1, 962560, Note_on_c, 1, 62, 0
1, 962560, Note_on_c, 1, 53, 40
1, 962816, Note_on_c, 0, 75, 0
1, 962816, Note_on_c, 0, 74, 64
1, 962816, Note_on_c, 1, 53, 0
1, 962816, Note_on_c, 1, 62, 43
1, 963072, Note_on_c, 0, 74, 0
1, 963072, Note_on_c, 0, 72, 67
1, 963072, Note_on_c, 1, 62, 0
1, 963072, Note_on_c, 1, 55, 44
1, 963328, Note_on_c, 0, 72, 0
1, 963328, Note_on_c, 0, 71, 67
1, 963328, Note_on_c, 1, 55, 0
1, 963328, Note_on_c, 1, 62, 45
1, 963584, Note_on_c, 0, 71, 0
1, 963584, Note_on_c, 0, 72, 68
1, 963584, Note_on_c, 1, 62, 0
1, 963584, Note_on_c, 1, 51, 46
1, 963840, Note_on_c, 1, 51, 0
1, 963840, Note_on_c, 1, 60, 48
1, 964096, Note_on_c, 1, 60, 0
1, 964096, Note_on_c, 1, 55, 49
1, 964352, Note_on_c, 0, 72, 0
1, 964352, Note_on_c, 0, 75, 75
1, 964352, Note_on_c, 1, 55, 0
1, 964352, Note_on_c, 1, 60, 52
1, 964608, Note_on_c, 0, 75, 0
1, 964608, Note_on_c, 0, 79, 79
1, 964608, Note_on_c, 1, 60, 0
1, 964608, Note_on_c, 1, 50, 53
1, 964864, Note_on_c, 1, 50, 0
1, 964864, Note_on_c, 1, 59, 55
1, 965120, Note_on_c, 1, 59, 0
1, 965120, Note_on_c, 1, 53, 56
1, 965376, Note_on_c, 1, 53, 0
1, 965376, Note_on_c, 1, 59, 58
1, 965632, Note_on_c, 0, 79, 0
1, 965632, Note_on_c, 1, 59, 0
1, 965632, Note_on_c, 1, 48, 60
1, 965888, Note_on_c, 1, 48, 0
1, 965888, Note_on_c, 1, 60, 61
1, 966144, Note_on_c, 1, 60, 0
1, 966144, Note_on_c, 1, 51, 62
1, 966400, Note_on_c, 1, 51, 0
1, 966400, Note_on_c, 1, 60, 65
1, 966656, Note_on_c, 0, 79, 83
1, 966656, Note_on_c, 1, 60, 0
1, 966656, Note_on_c, 1, 49, 77
1, 966912, Note_on_c, 1, 49, 0
1, 966912, Note_on_c, 1, 58, 74
1, 967168, Note_on_c, 1, 58, 0
1, 967168, Note_on_c, 1, 52, 71
1, 967424, Note_on_c, 1, 52, 0
1, 967424, Note_on_c, 1, 58, 68
1, 967680, Note_on_c, 1, 58, 0
1, 967680, Note_on_c, 1, 50, 67
1, 967936, Note_on_c, 0, 79, 0
1, 967936, Note_on_c, 0, 78, 73
1, 967936, Note_on_c, 1, 50, 0
1, 967936, Note_on_c, 1, 58, 68
1, 968192, Note_on_c, 0, 78, 0
1, 968192, Note_on_c, 0, 81, 75
1, 968192, Note_on_c, 1, 58, 0
1, 968192, Note_on_c, 1, 55, 69
1, 968448, Note_on_c, 0, 81, 0
1, 968448, Note_on_c, 0, 79, 77
1, 968448, Note_on_c, 1, 55, 0
1, 968448, Note_on_c, 1, 58, 69
1, 968704, Note_on_c, 0, 79, 0
1, 968704, Note_on_c, 0, 82, 79
1, 968704, Note_on_c, 1, 58, 0
1, 968704, Note_on_c, 1, 51, 69
1, 968960, Note_on_c, 0, 82, 0
1, 968960, Note_on_c, 0, 73, 80
1, 968960, Note_on_c, 1, 51, 0
1, 968960, Note_on_c, 1, 58, 70
1, 969216, Note_on_c, 0, 73, 0
1, 969216, Note_on_c, 0, 82, 82
1, 969216, Note_on_c, 1, 58, 0
1, 969216, Note_on_c, 1, 55, 71
1, 969472, Note_on_c, 0, 82, 0
1, 969472, Note_on_c, 0, 73, 83
1, 969472, Note_on_c, 1, 55, 0
1, 969472, Note_on_c, 1, 58, 71
1, 969728, Note_on_c, 0, 73, 0
1, 969728, Note_on_c, 0, 73, 87
1, 969728, Note_on_c, 1, 58, 0
1, 969728, Note_on_c, 1, 50, 71
1, 969984, Note_on_c, 1, 50, 0
1, 969984, Note_on_c, 1, 58, 72
1, 970240, Note_on_c, 1, 58, 0
1, 970240, Note_on_c, 1, 55, 73
1, 970496, Note_on_c, 1, 55, 0
1, 970496, Note_on_c, 1, 58, 73
1, 970752, Note_on_c, 0, 73, 0
1, 970752, Note_on_c, 0, 74, 83
1, 970752, Note_on_c, 1, 58, 0
1, 970752, Note_on_c, 1, 50, 73
1, 971008, Note_on_c, 1, 50, 0
1, 971008, Note_on_c, 1, 57, 74
1, 971264, Note_on_c, 1, 57, 0
1, 971264, Note_on_c, 1, 54, 74
1, 971520, Note_on_c, 1, 54, 0
1, 971520, Note_on_c, 1, 57, 75
1, 971776, Note_on_c, 0, 74, 0
1, 971776, Note_on_c, 1, 57, 0
1, 971776, Note_on_c, 1, 50, 76
1, 972032, Note_on_c, 1, 50, 0
1, 972032, Note_on_c, 1, 57, 76
1, 972288, Note_on_c, 1, 57, 0
1, 972288, Note_on_c, 1, 54, 76
1, 972544, Note_on_c, 1, 54, 0
1, 972544, Note_on_c, 1, 57, 77
1, 972800, Note_on_c, 0, 75, 83
1, 972800, Note_on_c, 1, 57, 0
1, 972800, Note_on_c, 1, 48, 77
1, 973056, Note_on_c, 1, 48, 0
1, 973056, Note_on_c, 1, 57, 74
1, 973312, Note_on_c, 1, 57, 0
1, 973312, Note_on_c, 1, 54, 71
1, 973568, Note_on_c, 1, 54, 0
1, 973568, Note_on_c, 1, 57, 68
1, 973824, Note_on_c, 1, 57, 0
1, 973824, Note_on_c, 1, 48, 68
1, 974080, Note_on_c, 0, 75, 0
1, 974080, Note_on_c, 0, 72, 73
1, 974080, Note_on_c, 1, 48, 0
1, 974080, Note_on_c, 1, 57, 69
1, 974336, Note_on_c, 0, 72, 0
1, 974336, Note_on_c, 0, 81, 75
1, 974336, Note_on_c, 1, 57, 0
1, 974336, Note_on_c, 1, 54, 71
1, 974592, Note_on_c, 0, 81, 0
1, 974592, Note_on_c, 0, 78, 77
1, 974592, Note_on_c, 1, 54, 0
1, 974592, Note_on_c, 1, 57, 72
1, 974848, Note_on_c, 0, 78, 0
1, 974848, Note_on_c, 0, 84, 79
1, 974848, Note_on_c, 1, 57, 0
1, 974848, Note_on_c, 1, 48, 74
1, 975104, Note_on_c, 0, 84, 0
1, 975104, Note_on_c, 0, 81, 80
1, 975104, Note_on_c, 1, 48, 0
1, 975104, Note_on_c, 1, 57, 75
1, 975360, Note_on_c, 0, 81, 0
1, 975360, Note_on_c, 0, 87, 82
1, 975360, Note_on_c, 1, 57, 0
1, 975360, Note_on_c, 1, 54, 76
1, 975616, Note_on_c, 0, 87, 0
1, 975616, Note_on_c, 0, 78, 83
1, 975616, Note_on_c, 1, 54, 0
1, 975616, Note_on_c, 1, 57, 77
1, 975872, Note_on_c, 0, 78, 0
1, 975872, Note_on_c, 0, 86, 83
1, 975872, Note_on_c, 1, 57, 0
1, 975872, Note_on_c, 1, 46, 77
1, 976128, Note_on_c, 1, 46, 0
1, 976128, Note_on_c, 1, 55, 74
1, 976384, Note_on_c, 1, 55, 0
1, 976384, Note_on_c, 1, 50, 71
1, 976640, Note_on_c, 1, 50, 0
1, 976640, Note_on_c, 1, 55, 68
1, 976896, Note_on_c, 1, 55, 0
1, 976896, Note_on_c, 1, 46, 68
1, 977152, Note_on_c, 0, 86, 0
1, 977152, Note_on_c, 0, 81, 73
1, 977152, Note_on_c, 1, 46, 0
1, 977152, Note_on_c, 1, 55, 69
1, 977408, Note_on_c, 0, 81, 0
1, 977408, Note_on_c, 0, 82, 75
1, 977408, Note_on_c, 1, 55, 0
1, 977408, Note_on_c, 1, 50, 71
1, 977664, Note_on_c, 0, 82, 0
1, 977664, Note_on_c, 0, 78, 77
1, 977664, Note_on_c, 1, 50, 0
1, 977664, Note_on_c, 1, 55, 72
1, 977920, Note_on_c, 0, 78, 0
1, 977920, Note_on_c, 0, 79, 79
1, 977920, Note_on_c, 1, 55, 0
1, 977920, Note_on_c, 1, 46, 74
1, 978176, Note_on_c, 0, 79, 0
1, 978176, Note_on_c, 0, 73, 80
1, 978176, Note_on_c, 1, 46, 0
1, 978176, Note_on_c, 1, 55, 75
1, 978432, Note_on_c, 0, 73, 0
1, 978432, Note_on_c, 0, 74, 82
1, 978432, Note_on_c, 1, 55, 0
1, 978432, Note_on_c, 1, 50, 76
1, 978688, Note_on_c, 0, 74, 0
1, 978688, Note_on_c, 0, 70, 83
1, 978688, Note_on_c, 1, 50, 0
1, 978688, Note_on_c, 1, 55, 77
1, 978944, Note_on_c, 0, 70, 0
1, 978944, Note_on_c, 0, 70, 83
1, 978944, Note_on_c, 1, 55, 0
1, 978944, Note_on_c, 1, 48, 77
1, 979200, Note_on_c, 0, 70, 0
1, 979200, Note_on_c, 0, 69, 82
1, 979200, Note_on_c, 1, 48, 0
1, 979200, Note_on_c, 1, 57, 76
1, 979456, Note_on_c, 0, 69, 0
1, 979456, Note_on_c, 0, 72, 80
1, 979456, Note_on_c, 1, 57, 0
1, 979456, Note_on_c, 1, 51, 74
1, 979712, Note_on_c, 0, 72, 0
1, 979712, Note_on_c, 0, 75, 79
1, 979712, Note_on_c, 1, 51, 0
1, 979712, Note_on_c, 1, 57, 74
1, 979968, Note_on_c, 0, 75, 0
1, 979968, Note_on_c, 0, 67, 78
1, 979968, Note_on_c, 1, 57, 0
1, 979968, Note_on_c, 1, 50, 73
1, 980224, Note_on_c, 1, 50, 0
1, 980224, Note_on_c, 1, 58, 73
1, 980480, Note_on_c, 1, 58, 0
1, 980480, Note_on_c, 1, 55, 71
1, 980736, Note_on_c, 0, 67, 0
1, 980736, Note_on_c, 0, 67, 74
1, 980736, Note_on_c, 1, 55, 0
1, 980736, Note_on_c, 1, 58, 71
1, 980992, Note_on_c, 0, 67, 0
1, 980992, Note_on_c, 0, 70, 73
1, 980992, Note_on_c, 1, 58, 0
1, 980992, Note_on_c, 1, 48, 69
1, 981248, Note_on_c, 0, 70, 0
1, 981248, Note_on_c, 0, 69, 71
1, 981248, Note_on_c, 1, 48, 0
1, 981248, Note_on_c, 1, 60, 69
1, 981504, Note_on_c, 0, 69, 0
1, 981504, Note_on_c, 0, 67, 70
1, 981504, Note_on_c, 1, 60, 0
1, 981504, Note_on_c, 1, 57, 68
1, 981760, Note_on_c, 0, 67, 0
1, 981760, Note_on_c, 0, 69, 69
1, 981760, Note_on_c, 1, 57, 0
1, 981760, Note_on_c, 1, 60, 68
1, 982016, Note_on_c, 0, 69, 0
1, 982016, Note_on_c, 0, 66, 65
1, 982016, Note_on_c, 0, 69, 65
1, 982016, Note_on_c, 1, 60, 0
1, 982016, Note_on_c, 1, 60, 64
1, 982016, Note_on_c, 1, 55, 77
1, 983040, Note_on_c, 0, 66, 0
1, 983040, Note_on_c, 0, 69, 0
1, 983040, Note_on_c, 0, 67, 64
1, 983040, Note_on_c, 1, 60, 0
1, 983040, Note_on_c, 1, 58, 60
1, 983296, Note_on_c, 0, 67, 0
1, 983296, Note_on_c, 0, 66, 50
1, 983552, Note_on_c, 0, 66, 0
1, 983552, Note_on_c, 0, 67, 51
1, 983808, Note_on_c, 0, 67, 0
1, 983808, Note_on_c, 0, 68, 52
1, 984064, Note_on_c, 0, 68, 0
1, 984064, Note_on_c, 0, 69, 53
1, 984064, Note_on_c, 1, 58, 0
1, 984064, Note_on_c, 1, 55, 0
1, 984320, Note_on_c, 0, 69, 0
1, 984320, Note_on_c, 0, 68, 54
1, 984576, Note_on_c, 0, 68, 0
1, 984576, Note_on_c, 0, 69, 55
1, 984832, Note_on_c, 0, 69, 0
1, 984832, Note_on_c, 0, 70, 56
1, 985088, Note_on_c, 0, 70, 0
1, 985088, Note_on_c, 0, 71, 57
1, 985088, Note_on_c, 1, 55, 37
1, 985344, Note_on_c, 1, 55, 0
1, 985344, Note_on_c, 1, 62, 38
1, 985600, Note_on_c, 1, 62, 0
1, 985600, Note_on_c, 1, 59, 39
1, 985856, Note_on_c, 1, 59, 0
1, 985856, Note_on_c, 1, 62, 40
1, 986112, Note_on_c, 1, 62, 0
1, 986112, Note_on_c, 1, 55, 40
1, 986368, Note_on_c, 1, 55, 0
1, 986368, Note_on_c, 1, 62, 41
1, 986624, Note_on_c, 1, 62, 0
1, 986624, Note_on_c, 1, 59, 42
1, 986880, Note_on_c, 1, 59, 0
1, 986880, Note_on_c, 1, 62, 43
1, 987136, Note_on_c, 0, 71, 0
1, 987136, Note_on_c, 0, 74, 59
1, 987136, Note_on_c, 1, 62, 0
1, 987136, Note_on_c, 1, 57, 44
1, 987392, Note_on_c, 0, 74, 0
1, 987392, Note_on_c, 0, 72, 54
1, 987392, Note_on_c, 1, 57, 0
1, 987392, Note_on_c, 1, 62, 44
1, 987648, Note_on_c, 0, 72, 0
1, 987648, Note_on_c, 0, 71, 55
1, 987648, Note_on_c, 1, 62, 0
1, 987648, Note_on_c, 1, 60, 45
1, 987904, Note_on_c, 0, 71, 0
1, 987904, Note_on_c, 0, 72, 55
1, 987904, Note_on_c, 1, 60, 0
1, 987904, Note_on_c, 1, 62, 46
1, 988160, Note_on_c, 0, 72, 0
1, 988160, Note_on_c, 0, 74, 49
1, 988160, Note_on_c, 1, 62, 0
1, 988160, Note_on_c, 1, 55, 44
1, 988416, Note_on_c, 1, 55, 0
1, 988416, Note_on_c, 1, 62, 41
1, 988672, Note_on_c, 1, 62, 0
1, 988672, Note_on_c, 1, 59, 38
1, 988928, Note_on_c, 0, 74, 0
1, 988928, Note_on_c, 0, 71, 49
1, 988928, Note_on_c, 1, 59, 0
1, 988928, Note_on_c, 1, 62, 34
1, 989184, Note_on_c, 0, 71, 0
1, 989184, Note_on_c, 0, 67, 49
1, 989184, Note_on_c, 1, 62, 0
1, 989184, Note_on_c, 1, 55, 34
1, 989440, Note_on_c, 1, 55, 0
1, 989440, Note_on_c, 1, 62, 35
1, 989696, Note_on_c, 1, 62, 0
1, 989696, Note_on_c, 1, 59, 37
1, 989952, Note_on_c, 1, 59, 0
1, 989952, Note_on_c, 1, 62, 38
1, 990208, Note_on_c, 0, 67, 0
1, 990208, Note_on_c, 1, 62, 0
1, 990208, Note_on_c, 1, 55, 40
1, 990464, Note_on_c, 1, 55, 0
1, 990464, Note_on_c, 1, 62, 41
1, 990720, Note_on_c, 1, 62, 0
1, 990720, Note_on_c, 1, 59, 42
1, 990976, Note_on_c, 1, 59, 0
1, 990976, Note_on_c, 1, 62, 43
1, 991232, Note_on_c, 0, 79, 68
1, 991232, Note_on_c, 1, 62, 0
1, 991232, Note_on_c, 1, 55, 43
1, 991488, Note_on_c, 1, 55, 0
1, 991488, Note_on_c, 1, 64, 43
1, 991744, Note_on_c, 1, 64, 0
1, 991744, Note_on_c, 1, 60, 43
1, 992000, Note_on_c, 1, 60, 0
1, 992000, Note_on_c, 1, 64, 43
1, 992256, Note_on_c, 1, 64, 0
1, 992256, Note_on_c, 1, 55, 43
1, 992512, Note_on_c, 1, 55, 0
1, 992512, Note_on_c, 1, 64, 43
1, 992768, Note_on_c, 0, 79, 0
1, 992768, Note_on_c, 0, 81, 67
1, 992768, Note_on_c, 1, 64, 0
1, 992768, Note_on_c, 1, 60, 43
1, 993024, Note_on_c, 0, 81, 0
1, 993024, Note_on_c, 0, 79, 62
1, 993024, Note_on_c, 1, 60, 0
1, 993024, Note_on_c, 1, 64, 43
1, 993280, Note_on_c, 0, 79, 0
1, 993280, Note_on_c, 0, 78, 66
1, 993280, Note_on_c, 1, 64, 0
1, 993280, Note_on_c, 1, 55, 43
1, 993536, Note_on_c, 0, 78, 0
1, 993536, Note_on_c, 0, 76, 61
1, 993536, Note_on_c, 1, 55, 0
1, 993536, Note_on_c, 1, 61, 43
1, 993792, Note_on_c, 0, 76, 0
1, 993792, Note_on_c, 0, 74, 60
1, 993792, Note_on_c, 1, 61, 0
1, 993792, Note_on_c, 1, 58, 43
1, 994048, Note_on_c, 0, 74, 0
1, 994048, Note_on_c, 0, 73, 59
1, 994048, Note_on_c, 1, 58, 0
1, 994048, Note_on_c, 1, 61, 43
1, 994304, Note_on_c, 0, 73, 0
1, 994304, Note_on_c, 0, 74, 59
1, 994304, Note_on_c, 1, 61, 0
1, 994304, Note_on_c, 1, 55, 43
1, 994560, Note_on_c, 1, 55, 0
1, 994560, Note_on_c, 1, 62, 43
1, 994816, Note_on_c, 1, 62, 0
1, 994816, Note_on_c, 1, 59, 43
1, 995072, Note_on_c, 0, 74, 0
1, 995072, Note_on_c, 0, 71, 56
1, 995072, Note_on_c, 1, 59, 0
1, 995072, Note_on_c, 1, 62, 43
1, 995328, Note_on_c, 0, 71, 0
1, 995328, Note_on_c, 0, 67, 55
1, 995328, Note_on_c, 1, 62, 0
1, 995328, Note_on_c, 1, 55, 43
1, 995584, Note_on_c, 1, 55, 0
1, 995584, Note_on_c, 1, 62, 43
1, 995840, Note_on_c, 1, 62, 0
1, 995840, Note_on_c, 1, 59, 43
1, 996096, Note_on_c, 1, 59, 0
1, 996096, Note_on_c, 1, 62, 45
1, 996352, Note_on_c, 0, 67, 0
1, 996352, Note_on_c, 1, 62, 0
1, 996352, Note_on_c, 1, 55, 45
1, 996608, Note_on_c, 1, 55, 0
1, 996608, Note_on_c, 1, 62, 47
1, 996864, Note_on_c, 1, 62, 0
1, 996864, Note_on_c, 1, 59, 47
1, 997120, Note_on_c, 1, 59, 0
1, 997120, Note_on_c, 1, 62, 49
1, 997376, Note_on_c, 0, 72, 70
1, 997376, Note_on_c, 1, 62, 0
1, 997376, Note_on_c, 1, 57, 64
1, 997632, Note_on_c, 1, 57, 0
1, 997632, Note_on_c, 1, 62, 43
1, 997888, Note_on_c, 1, 62, 0
1, 997888, Note_on_c, 1, 60, 44
1, 998144, Note_on_c, 0, 72, 0
1, 998144, Note_on_c, 0, 69, 52
1, 998144, Note_on_c, 1, 60, 0
1, 998144, Note_on_c, 1, 62, 44
1, 998400, Note_on_c, 0, 69, 0
1, 998400, Note_on_c, 0, 66, 53
1, 998400, Note_on_c, 1, 62, 0
1, 998400, Note_on_c, 1, 57, 44
1, 998554, Note_on_c, 0, 66, 0
1, 998656, Note_on_c, 1, 57, 0
1, 998656, Note_on_c, 1, 62, 44
1, 998912, Note_on_c, 0, 69, 55
1, 998912, Note_on_c, 1, 62, 0
1, 998912, Note_on_c, 1, 60, 45
1, 999066, Note_on_c, 0, 69, 0
1, 999168, Note_on_c, 1, 60, 0
1, 999168, Note_on_c, 1, 62, 45
1, 999424, Note_on_c, 0, 71, 56
1, 999424, Note_on_c, 1, 62, 0
1, 999424, Note_on_c, 1, 57, 45
1, 999578, Note_on_c, 0, 71, 0
1, 999680, Note_on_c, 1, 57, 0
1, 999680, Note_on_c, 1, 62, 45
1, 999936, Note_on_c, 0, 72, 58
1, 999936, Note_on_c, 1, 62, 0
1, 999936, Note_on_c, 1, 60, 45
1, 1000090, Note_on_c, 0, 72, 0
1, 1000192, Note_on_c, 1, 60, 0
1, 1000192, Note_on_c, 1, 62, 46
1, 1000448, Note_on_c, 0, 74, 61
1, 1000448, Note_on_c, 1, 62, 0
1, 1000448, Note_on_c, 1, 55, 46
1, 1000704, Note_on_c, 1, 62, 46
1, 1000960, Note_on_c, 1, 62, 0
1, 1000960, Note_on_c, 1, 59, 46
1, 1001216, Note_on_c, 0, 74, 0
1, 1001216, Note_on_c, 0, 71, 62
1, 1001216, Note_on_c, 1, 59, 0
1, 1001216, Note_on_c, 1, 62, 46
1, 1001472, Note_on_c, 0, 71, 0
1, 1001472, Note_on_c, 0, 79, 63
1, 1001472, Note_on_c, 1, 55, 0
1, 1001472, Note_on_c, 1, 52, 47
1, 1001472, Note_on_c, 1, 62, 0
1, 1001728, Note_on_c, 1, 59, 47
1, 1001984, Note_on_c, 1, 59, 0
1, 1001984, Note_on_c, 1, 55, 48
1, 1002240, Note_on_c, 1, 55, 0
1, 1002240, Note_on_c, 1, 59, 48
1, 1002496, Note_on_c, 0, 79, 0
1, 1002496, Note_on_c, 1, 52, 0
1, 1002496, Note_on_c, 1, 47, 48
1, 1002496, Note_on_c, 1, 59, 0
1, 1002752, Note_on_c, 1, 55, 48
1, 1003008, Note_on_c, 1, 55, 0
1, 1003008, Note_on_c, 1, 50, 48
1, 1003264, Note_on_c, 1, 50, 0
1, 1003264, Note_on_c, 1, 55, 49
1, 1003520, Note_on_c, 0, 81, 77
1, 1003520, Note_on_c, 1, 47, 0
1, 1003520, Note_on_c, 1, 55, 0
1, 1003520, Note_on_c, 1, 52, 61
1, 1003520, Note_on_c, 1, 48, 61
1, 1003776, Note_on_c, 0, 81, 0
1, 1003776, Note_on_c, 0, 79, 68
1, 1004032, Note_on_c, 0, 79, 0
1, 1004032, Note_on_c, 0, 78, 67
1, 1004288, Note_on_c, 0, 78, 0
1, 1004288, Note_on_c, 0, 79, 65
1, 1004544, Note_on_c, 0, 79, 0
1, 1004544, Note_on_c, 0, 78, 68
1, 1004544, Note_on_c, 1, 52, 0
1, 1004544, Note_on_c, 1, 55, 58
1, 1004800, Note_on_c, 0, 78, 0
1, 1004800, Note_on_c, 0, 76, 62
1, 1005056, Note_on_c, 0, 76, 0
1, 1005056, Note_on_c, 0, 75, 60
1, 1005312, Note_on_c, 0, 75, 0
1, 1005312, Note_on_c, 0, 76, 59
1, 1005568, Note_on_c, 0, 76, 0
1, 1005568, Note_on_c, 0, 74, 61
1, 1005568, Note_on_c, 1, 48, 0
1, 1005568, Note_on_c, 1, 52, 54
1, 1005824, Note_on_c, 0, 74, 0
1, 1005824, Note_on_c, 0, 72, 55
1, 1006080, Note_on_c, 0, 72, 0
1, 1006080, Note_on_c, 0, 71, 55
1, 1006336, Note_on_c, 0, 71, 0
1, 1006336, Note_on_c, 0, 72, 54
1, 1006592, Note_on_c, 0, 72, 0
1, 1006592, Note_on_c, 0, 71, 52
1, 1006592, Note_on_c, 1, 55, 0
1, 1006592, Note_on_c, 1, 52, 0
1, 1006592, Note_on_c, 1, 55, 51
1, 1006592, Note_on_c, 1, 50, 51
1, 1007360, Note_on_c, 0, 71, 0
1, 1007360, Note_on_c, 0, 72, 52
1, 1007488, Note_on_c, 0, 72, 0
1, 1007488, Note_on_c, 0, 71, 52
1, 1007616, Note_on_c, 0, 71, 0
1, 1007616, Note_on_c, 0, 69, 51
1, 1007616, Note_on_c, 1, 55, 0
1, 1007616, Note_on_c, 1, 54, 50
1, 1007770, Note_on_c, 0, 69, 0
1, 1008128, Note_on_c, 0, 74, 50
1, 1008282, Note_on_c, 0, 74, 0
1, 1008640, Note_on_c, 0, 73, 57
1, 1008640, Note_on_c, 1, 54, 0
1, 1008640, Note_on_c, 1, 50, 0
1, 1008794, Note_on_c, 0, 73, 0
1, 1009152, Note_on_c, 0, 72, 63
1, 1009306, Note_on_c, 0, 72, 0
1, 1009664, Note_on_c, 0, 71, 73
1, 1009664, Note_on_c, 1, 55, 68
1, 1009920, Note_on_c, 1, 55, 0
1, 1009920, Note_on_c, 1, 62, 69
1, 1010176, Note_on_c, 1, 62, 0
1, 1010176, Note_on_c, 1, 59, 70
1, 1010432, Note_on_c, 1, 59, 0
1, 1010432, Note_on_c, 1, 62, 71
1, 1010688, Note_on_c, 1, 62, 0
1, 1010688, Note_on_c, 1, 55, 71
1, 1010944, Note_on_c, 0, 71, 0
1, 1010944, Note_on_c, 0, 67, 77
1, 1010944, Note_on_c, 1, 55, 0
1, 1010944, Note_on_c, 1, 62, 72
1, 1011200, Note_on_c, 0, 67, 0
1, 1011200, Note_on_c, 0, 71, 79
1, 1011200, Note_on_c, 1, 62, 0
1, 1011200, Note_on_c, 1, 59, 73
1, 1011456, Note_on_c, 0, 71, 0
1, 1011456, Note_on_c, 0, 74, 79
1, 1011456, Note_on_c, 1, 59, 0
1, 1011456, Note_on_c, 1, 62, 74
1, 1011712, Note_on_c, 0, 74, 0
1, 1011712, Note_on_c, 0, 72, 80
1, 1011712, Note_on_c, 1, 62, 0
1, 1011712, Note_on_c, 1, 57, 74
1, 1011968, Note_on_c, 0, 72, 0
1, 1011968, Note_on_c, 0, 69, 80
1, 1011968, Note_on_c, 1, 57, 0
1, 1011968, Note_on_c, 1, 62, 75
1, 1012224, Note_on_c, 0, 69, 0
1, 1012224, Note_on_c, 0, 72, 82
1, 1012224, Note_on_c, 1, 62, 0
1, 1012224, Note_on_c, 1, 60, 76
1, 1012480, Note_on_c, 0, 72, 0
1, 1012480, Note_on_c, 0, 76, 82
1, 1012480, Note_on_c, 1, 60, 0
1, 1012480, Note_on_c, 1, 62, 76
1, 1012736, Note_on_c, 0, 76, 0
1, 1012736, Note_on_c, 0, 74, 83
1, 1012736, Note_on_c, 1, 62, 0
1, 1012736, Note_on_c, 1, 55, 77
1, 1012992, Note_on_c, 1, 55, 0
1, 1012992, Note_on_c, 1, 62, 74
1, 1013248, Note_on_c, 1, 62, 0
1, 1013248, Note_on_c, 1, 59, 71
1, 1013504, Note_on_c, 0, 74, 0
1, 1013504, Note_on_c, 0, 71, 73
1, 1013504, Note_on_c, 1, 59, 0
1, 1013504, Note_on_c, 1, 62, 68
1, 1013760, Note_on_c, 0, 71, 0
1, 1013760, Note_on_c, 0, 67, 73
1, 1013760, Note_on_c, 1, 62, 0
1, 1013760, Note_on_c, 1, 55, 68
1, 1013837, Note_on_c, 0, 67, 0
1, 1014016, Note_on_c, 0, 67, 74
1, 1014016, Note_on_c, 1, 55, 0
1, 1014016, Note_on_c, 1, 62, 69
1, 1014093, Note_on_c, 0, 67, 0
1, 1014272, Note_on_c, 0, 69, 75
1, 1014272, Note_on_c, 1, 62, 0
1, 1014272, Note_on_c, 1, 59, 70
1, 1014349, Note_on_c, 0, 69, 0
1, 1014528, Note_on_c, 0, 71, 76
1, 1014528, Note_on_c, 1, 59, 0
1, 1014528, Note_on_c, 1, 62, 71
1, 1014605, Note_on_c, 0, 71, 0
1, 1014784, Note_on_c, 0, 72, 77
1, 1014784, Note_on_c, 1, 62, 0
1, 1014784, Note_on_c, 1, 55, 71
1, 1014861, Note_on_c, 0, 72, 0
1, 1015040, Note_on_c, 0, 74, 78
1, 1015040, Note_on_c, 1, 55, 0
1, 1015040, Note_on_c, 1, 62, 72
1, 1015117, Note_on_c, 0, 74, 0
1, 1015296, Note_on_c, 0, 76, 79
1, 1015296, Note_on_c, 1, 62, 0
1, 1015296, Note_on_c, 1, 59, 73
1, 1015373, Note_on_c, 0, 76, 0
1, 1015552, Note_on_c, 0, 78, 80
1, 1015552, Note_on_c, 1, 59, 0
1, 1015552, Note_on_c, 1, 62, 74
1, 1015629, Note_on_c, 0, 78, 0
1, 1015808, Note_on_c, 0, 79, 80
1, 1015808, Note_on_c, 1, 62, 0
1, 1015808, Note_on_c, 1, 55, 75
1, 1016064, Note_on_c, 0, 79, 0
1, 1016064, Note_on_c, 0, 78, 81
1, 1016064, Note_on_c, 1, 55, 0
1, 1016064, Note_on_c, 1, 64, 75
1, 1016320, Note_on_c, 0, 78, 0
1, 1016320, Note_on_c, 0, 79, 82
1, 1016320, Note_on_c, 1, 64, 0
1, 1016320, Note_on_c, 1, 60, 76
1, 1016576, Note_on_c, 0, 79, 0
1, 1016576, Note_on_c, 0, 78, 83
1, 1016576, Note_on_c, 1, 60, 0
1, 1016576, Note_on_c, 1, 64, 77
1, 1016832, Note_on_c, 0, 78, 0
1, 1016832, Note_on_c, 0, 81, 87
1, 1016832, Note_on_c, 1, 64, 0
1, 1016832, Note_on_c, 1, 55, 77
1, 1017088, Note_on_c, 0, 81, 0
1, 1017088, Note_on_c, 0, 79, 82
1, 1017088, Note_on_c, 1, 55, 0
1, 1017088, Note_on_c, 1, 64, 77
1, 1017344, Note_on_c, 0, 79, 0
1, 1017344, Note_on_c, 0, 78, 81
1, 1017344, Note_on_c, 1, 64, 0
1, 1017344, Note_on_c, 1, 60, 75
1, 1017600, Note_on_c, 0, 78, 0
1, 1017600, Note_on_c, 0, 79, 80
1, 1017600, Note_on_c, 1, 60, 0
1, 1017600, Note_on_c, 1, 64, 74
1, 1017856, Note_on_c, 0, 79, 0
1, 1017856, Note_on_c, 0, 78, 84
1, 1017856, Note_on_c, 1, 64, 0
1, 1017856, Note_on_c, 1, 55, 73
1, 1018112, Note_on_c, 0, 78, 0
1, 1018112, Note_on_c, 0, 76, 79
1, 1018112, Note_on_c, 1, 55, 0
1, 1018112, Note_on_c, 1, 61, 72
1, 1018368, Note_on_c, 0, 76, 0
1, 1018368, Note_on_c, 0, 74, 78
1, 1018368, Note_on_c, 1, 61, 0
1, 1018368, Note_on_c, 1, 58, 70
1, 1018624, Note_on_c, 0, 74, 0
1, 1018624, Note_on_c, 0, 73, 77
1, 1018624, Note_on_c, 1, 58, 0
1, 1018624, Note_on_c, 1, 61, 69
1, 1018880, Note_on_c, 0, 73, 0
1, 1018880, Note_on_c, 0, 74, 77
1, 1018880, Note_on_c, 1, 61, 0
1, 1018880, Note_on_c, 1, 55, 68
1, 1019136, Note_on_c, 0, 74, 0
1, 1019136, Note_on_c, 0, 71, 76
1, 1019136, Note_on_c, 1, 55, 0
1, 1019136, Note_on_c, 1, 62, 67
1, 1019392, Note_on_c, 0, 71, 0
1, 1019392, Note_on_c, 0, 74, 75
1, 1019392, Note_on_c, 1, 62, 0
1, 1019392, Note_on_c, 1, 59, 66
1, 1019648, Note_on_c, 0, 74, 0
1, 1019648, Note_on_c, 0, 71, 74
1, 1019648, Note_on_c, 1, 59, 0
1, 1019648, Note_on_c, 1, 62, 65
1, 1019904, Note_on_c, 0, 71, 0
1, 1019904, Note_on_c, 0, 67, 73
1, 1019904, Note_on_c, 1, 62, 0
1, 1019904, Note_on_c, 1, 55, 63
1, 1020160, Note_on_c, 1, 55, 0
1, 1020160, Note_on_c, 1, 62, 63
1, 1020416, Note_on_c, 1, 62, 0
1, 1020416, Note_on_c, 1, 59, 65
1, 1020672, Note_on_c, 1, 59, 0
1, 1020672, Note_on_c, 1, 62, 65
1, 1020928, Note_on_c, 0, 67, 0
1, 1020928, Note_on_c, 1, 62, 0
1, 1020928, Note_on_c, 1, 55, 67
1, 1021184, Note_on_c, 1, 55, 0
1, 1021184, Note_on_c, 1, 62, 68
1, 1021440, Note_on_c, 1, 62, 0
1, 1021440, Note_on_c, 1, 59, 70
1, 1021696, Note_on_c, 1, 59, 0
1, 1021696, Note_on_c, 1, 62, 71
1, 1021952, Note_on_c, 0, 72, 83
1, 1021952, Note_on_c, 1, 62, 0
1, 1021952, Note_on_c, 1, 57, 71
1, 1022208, Note_on_c, 0, 72, 0
1, 1022208, Note_on_c, 0, 69, 80
1, 1022208, Note_on_c, 1, 57, 0
1, 1022208, Note_on_c, 1, 62, 69
1, 1022464, Note_on_c, 0, 69, 0
1, 1022464, Note_on_c, 0, 72, 77
1, 1022464, Note_on_c, 1, 62, 0
1, 1022464, Note_on_c, 1, 60, 66
1, 1022720, Note_on_c, 0, 72, 0
1, 1022720, Note_on_c, 0, 69, 73
1, 1022720, Note_on_c, 1, 60, 0
1, 1022720, Note_on_c, 1, 62, 63
1, 1022976, Note_on_c, 0, 69, 0
1, 1022976, Note_on_c, 0, 66, 73
1, 1022976, Note_on_c, 1, 62, 0
1, 1022976, Note_on_c, 1, 57, 63
1, 1023053, Note_on_c, 0, 66, 0
1, 1023232, Note_on_c, 0, 69, 74
1, 1023232, Note_on_c, 1, 57, 0
1, 1023232, Note_on_c, 1, 62, 65
1, 1023488, Note_on_c, 0, 69, 0
1, 1023488, Note_on_c, 0, 68, 75
1, 1023488, Note_on_c, 1, 62, 0
1, 1023488, Note_on_c, 1, 60, 66
1, 1023744, Note_on_c, 0, 68, 0
1, 1023744, Note_on_c, 0, 69, 75
1, 1023744, Note_on_c, 1, 60, 0
1, 1023744, Note_on_c, 1, 62, 67
1, 1024000, Note_on_c, 0, 69, 0
1, 1024000, Note_on_c, 0, 70, 76
1, 1024000, Note_on_c, 1, 62, 0
1, 1024000, Note_on_c, 1, 57, 68
1, 1024256, Note_on_c, 0, 70, 0
1, 1024256, Note_on_c, 0, 71, 77
1, 1024256, Note_on_c, 1, 57, 0
1, 1024256, Note_on_c, 1, 62, 70
1, 1024512, Note_on_c, 0, 71, 0
1, 1024512, Note_on_c, 0, 72, 77
1, 1024512, Note_on_c, 1, 62, 0
1, 1024512, Note_on_c, 1, 60, 71
1, 1024768, Note_on_c, 0, 72, 0
1, 1024768, Note_on_c, 0, 73, 78
1, 1024768, Note_on_c, 1, 60, 0
1, 1024768, Note_on_c, 1, 62, 72
1, 1025024, Note_on_c, 0, 73, 0
1, 1025024, Note_on_c, 0, 74, 79
1, 1025024, Note_on_c, 1, 62, 0
1, 1025024, Note_on_c, 1, 55, 74
1, 1025280, Note_on_c, 0, 74, 0
1, 1025280, Note_on_c, 0, 71, 79
1, 1025280, Note_on_c, 1, 62, 77
1, 1025536, Note_on_c, 0, 71, 0
1, 1025536, Note_on_c, 0, 74, 80
1, 1025536, Note_on_c, 1, 62, 0
1, 1025536, Note_on_c, 1, 59, 77
1, 1025792, Note_on_c, 0, 74, 0
1, 1025792, Note_on_c, 0, 71, 81
1, 1025792, Note_on_c, 1, 59, 0
1, 1025792, Note_on_c, 1, 62, 77
1, 1026048, Note_on_c, 0, 71, 0
1, 1026048, Note_on_c, 0, 79, 82
1, 1026048, Note_on_c, 1, 55, 0
1, 1026048, Note_on_c, 1, 52, 76
1, 1026048, Note_on_c, 1, 62, 0
1, 1026304, Note_on_c, 1, 59, 77
1, 1026560, Note_on_c, 1, 59, 0
1, 1026560, Note_on_c, 1, 55, 77
1, 1026816, Note_on_c, 1, 55, 0
1, 1026816, Note_on_c, 1, 59, 77
1, 1027072, Note_on_c, 0, 79, 0
1, 1027072, Note_on_c, 1, 52, 0
1, 1027072, Note_on_c, 1, 47, 79
1, 1027072, Note_on_c, 1, 59, 0
1, 1027328, Note_on_c, 0, 83, 85
1, 1027328, Note_on_c, 1, 55, 77
1, 1027584, Note_on_c, 0, 83, 0
1, 1027584, Note_on_c, 0, 78, 86
1, 1027584, Note_on_c, 1, 55, 0
1, 1027584, Note_on_c, 1, 50, 77
1, 1027840, Note_on_c, 0, 78, 0
1, 1027840, Note_on_c, 0, 79, 86
1, 1027840, Note_on_c, 1, 50, 0
1, 1027840, Note_on_c, 1, 55, 77
1, 1028096, Note_on_c, 0, 79, 0
1, 1028096, Note_on_c, 0, 75, 86
1, 1028096, Note_on_c, 1, 47, 0
1, 1028096, Note_on_c, 1, 55, 0
1, 1028096, Note_on_c, 1, 48, 77
1, 1028352, Note_on_c, 0, 75, 0
1, 1028352, Note_on_c, 0, 76, 84
1, 1028352, Note_on_c, 1, 57, 77
1, 1028608, Note_on_c, 0, 76, 0
1, 1028608, Note_on_c, 0, 72, 83
1, 1028608, Note_on_c, 1, 57, 0
1, 1028608, Note_on_c, 1, 52, 77
1, 1028864, Note_on_c, 0, 72, 0
1, 1028864, Note_on_c, 0, 69, 80
1, 1028864, Note_on_c, 1, 52, 0
1, 1028864, Note_on_c, 1, 57, 77
1, 1029120, Note_on_c, 0, 69, 0
1, 1029120, Note_on_c, 0, 67, 79
1, 1029120, Note_on_c, 1, 48, 0
1, 1029120, Note_on_c, 1, 50, 70
1, 1029120, Note_on_c, 1, 57, 0
1, 1029376, Note_on_c, 1, 59, 77
1, 1029632, Note_on_c, 1, 59, 0
1, 1029632, Note_on_c, 1, 55, 77
1, 1029888, Note_on_c, 0, 67, 0
1, 1029888, Note_on_c, 0, 67, 74
1, 1029888, Note_on_c, 1, 55, 0
1, 1029888, Note_on_c, 1, 59, 77
1, 1030144, Note_on_c, 0, 67, 0
1, 1030144, Note_on_c, 0, 71, 71
1, 1030144, Note_on_c, 0, 66, 83
1, 1030144, Note_on_c, 1, 50, 0
1, 1030144, Note_on_c, 1, 50, 64
1, 1030144, Note_on_c, 1, 59, 0
1, 1030400, Note_on_c, 0, 71, 0
1, 1030400, Note_on_c, 0, 69, 70
1, 1030400, Note_on_c, 1, 60, 77
1, 1030656, Note_on_c, 0, 69, 0
1, 1030656, Note_on_c, 0, 67, 69
1, 1030656, Note_on_c, 1, 60, 0
1, 1030656, Note_on_c, 1, 57, 77
1, 1030912, Note_on_c, 0, 67, 0
1, 1030912, Note_on_c, 0, 69, 66
1, 1030912, Note_on_c, 1, 57, 0
1, 1030912, Note_on_c, 1, 60, 77
1, 1031168, Note_on_c, 0, 69, 0
1, 1031168, Note_on_c, 0, 66, 0
1, 1031168, Note_on_c, 0, 67, 61
1, 1031168, Note_on_c, 1, 50, 0
1, 1031168, Note_on_c, 1, 60, 0
1, 1031168, Note_on_c, 1, 55, 54
1, 1031168, Note_on_c, 1, 59, 54
1, 1031424, Note_on_c, 0, 67, 0
1, 1031424, Note_on_c, 0, 66, 46
1, 1031680, Note_on_c, 0, 66, 0
1, 1031680, Note_on_c, 0, 69, 47
1, 1031936, Note_on_c, 0, 69, 0
1, 1031936, Note_on_c, 0, 67, 48
1, 1032192, Note_on_c, 0, 67, 0
1, 1032192, Note_on_c, 0, 71, 50
1, 1032192, Note_on_c, 1, 55, 0
1, 1032192, Note_on_c, 1, 59, 0
1, 1032448, Note_on_c, 0, 71, 0
1, 1032448, Note_on_c, 0, 69, 51
1, 1032704, Note_on_c, 0, 69, 0
1, 1032704, Note_on_c, 0, 72, 52
1, 1032960, Note_on_c, 0, 72, 0
1, 1032960, Note_on_c, 0, 71, 54
1, 1033216, Note_on_c, 0, 71, 0
1, 1033216, Note_on_c, 0, 74, 54
1, 1033472, Note_on_c, 0, 74, 0
1, 1033472, Note_on_c, 0, 72, 56
1, 1033728, Note_on_c, 0, 72, 0
1, 1033728, Note_on_c, 0, 76, 58
1, 1033984, Note_on_c, 0, 76, 0
1, 1033984, Note_on_c, 0, 74, 59
1, 1034240, Note_on_c, 0, 74, 0
1, 1034240, Note_on_c, 0, 77, 80
1, 1034240, Note_on_c, 1, 57, 55
1, 1034496, Note_on_c, 1, 57, 0
1, 1034496, Note_on_c, 1, 65, 42
1, 1034752, Note_on_c, 1, 65, 0
1, 1034752, Note_on_c, 1, 60, 42
1, 1035008, Note_on_c, 1, 60, 0
1, 1035008, Note_on_c, 1, 65, 44
1, 1035264, Note_on_c, 1, 65, 0
1, 1035264, Note_on_c, 1, 57, 44
1, 1035520, Note_on_c, 1, 57, 0
1, 1035520, Note_on_c, 1, 65, 44
1, 1035776, Note_on_c, 0, 77, 0
1, 1035776, Note_on_c, 0, 79, 52
1, 1035776, Note_on_c, 1, 65, 0
1, 1035776, Note_on_c, 1, 60, 46
1, 1036032, Note_on_c, 0, 79, 0
1, 1036032, Note_on_c, 0, 81, 54
1, 1036032, Note_on_c, 1, 60, 0
1, 1036032, Note_on_c, 1, 65, 48
1, 1036288, Note_on_c, 0, 81, 0
1, 1036288, Note_on_c, 0, 79, 59
1, 1036288, Note_on_c, 1, 65, 0
1, 1036288, Note_on_c, 1, 59, 48
1, 1036544, Note_on_c, 0, 79, 0
1, 1036544, Note_on_c, 0, 77, 56
1, 1036544, Note_on_c, 1, 59, 0
1, 1036544, Note_on_c, 1, 67, 50
1, 1036800, Note_on_c, 0, 77, 0
1, 1036800, Note_on_c, 0, 76, 56
1, 1036800, Note_on_c, 1, 67, 0
1, 1036800, Note_on_c, 1, 62, 50
1, 1037056, Note_on_c, 0, 76, 0
1, 1037056, Note_on_c, 0, 74, 58
1, 1037056, Note_on_c, 1, 62, 0
1, 1037056, Note_on_c, 1, 67, 50
1, 1037312, Note_on_c, 0, 74, 0
1, 1037312, Note_on_c, 0, 75, 62
1, 1037312, Note_on_c, 1, 67, 0
1, 1037312, Note_on_c, 1, 60, 49
1, 1037568, Note_on_c, 1, 60, 0
1, 1037568, Note_on_c, 1, 67, 46
1, 1037824, Note_on_c, 1, 67, 0
1, 1037824, Note_on_c, 1, 64, 43
1, 1038080, Note_on_c, 1, 64, 0
1, 1038080, Note_on_c, 1, 67, 40
1, 1038336, Note_on_c, 0, 75, 0
1, 1038336, Note_on_c, 0, 76, 52
1, 1038336, Note_on_c, 1, 67, 0
1, 1038336, Note_on_c, 1, 60, 37
1, 1038592, Note_on_c, 1, 60, 0
1, 1038592, Note_on_c, 1, 67, 37
1, 1038848, Note_on_c, 1, 67, 0
1, 1038848, Note_on_c, 1, 64, 39
1, 1039104, Note_on_c, 1, 64, 0
1, 1039104, Note_on_c, 1, 67, 40
1, 1039360, Note_on_c, 0, 76, 0
1, 1039360, Note_on_c, 1, 67, 0
1, 1039360, Note_on_c, 1, 60, 42
1, 1039616, Note_on_c, 0, 79, 58
1, 1039616, Note_on_c, 1, 60, 0
1, 1039616, Note_on_c, 1, 67, 43
1, 1039872, Note_on_c, 0, 79, 0
1, 1039872, Note_on_c, 0, 78, 61
1, 1039872, Note_on_c, 1, 67, 0
1, 1039872, Note_on_c, 1, 64, 45
1, 1040128, Note_on_c, 0, 78, 0
1, 1040128, Note_on_c, 0, 76, 62
1, 1040128, Note_on_c, 1, 64, 0
1, 1040128, Note_on_c, 1, 67, 46
1, 1040384, Note_on_c, 0, 76, 0
1, 1040384, Note_on_c, 0, 74, 62
1, 1040384, Note_on_c, 1, 67, 0
1, 1040384, Note_on_c, 1, 59, 46
1, 1040640, Note_on_c, 0, 74, 0
1, 1040640, Note_on_c, 0, 71, 61
1, 1040640, Note_on_c, 1, 59, 0
1, 1040640, Note_on_c, 1, 62, 45
1, 1040896, Note_on_c, 0, 71, 0
1, 1040896, Note_on_c, 0, 69, 60
1, 1040896, Note_on_c, 1, 62, 0
1, 1040896, Note_on_c, 1, 60, 44
1, 1041152, Note_on_c, 0, 69, 0
1, 1041152, Note_on_c, 0, 76, 59
1, 1041152, Note_on_c, 1, 60, 0
1, 1041152, Note_on_c, 1, 64, 44
1, 1041408, Note_on_c, 0, 76, 0
1, 1041408, Note_on_c, 0, 67, 57
1, 1041408, Note_on_c, 1, 64, 0
1, 1041408, Note_on_c, 1, 50, 43
1, 1041664, Note_on_c, 1, 50, 0
1, 1041664, Note_on_c, 1, 59, 42
1, 1041920, Note_on_c, 1, 59, 0
1, 1041920, Note_on_c, 1, 55, 41
1, 1042176, Note_on_c, 0, 67, 0
1, 1042176, Note_on_c, 0, 67, 54
1, 1042176, Note_on_c, 1, 55, 0
1, 1042176, Note_on_c, 1, 59, 41
1, 1042432, Note_on_c, 0, 67, 0
1, 1042432, Note_on_c, 0, 71, 57
1, 1042432, Note_on_c, 0, 66, 49
1, 1042432, Note_on_c, 1, 59, 0
1, 1042432, Note_on_c, 1, 50, 40
1, 1042688, Note_on_c, 0, 71, 0
1, 1042688, Note_on_c, 0, 69, 52
1, 1042688, Note_on_c, 1, 50, 0
1, 1042688, Note_on_c, 1, 60, 40
1, 1042944, Note_on_c, 0, 69, 0
1, 1042944, Note_on_c, 0, 67, 51
1, 1042944, Note_on_c, 1, 60, 0
1, 1042944, Note_on_c, 1, 57, 38
1, 1043200, Note_on_c, 0, 67, 0
1, 1043200, Note_on_c, 0, 69, 50
1, 1043200, Note_on_c, 1, 57, 0
1, 1043200, Note_on_c, 1, 60, 38
1, 1043456, Note_on_c, 0, 69, 0
1, 1043456, Note_on_c, 0, 66, 0
1, 1043456, Note_on_c, 0, 67, 49
1, 1043456, Note_on_c, 1, 60, 0
1, 1043456, Note_on_c, 1, 55, 37
1, 1043456, Note_on_c, 1, 59, 37
1, 1043712, Note_on_c, 0, 67, 0
1, 1043712, Note_on_c, 0, 66, 49
1, 1043968, Note_on_c, 0, 66, 0
1, 1043968, Note_on_c, 0, 69, 50
1, 1044224, Note_on_c, 0, 69, 0
1, 1044224, Note_on_c, 0, 67, 52
1, 1044480, Note_on_c, 0, 67, 0
1, 1044480, Note_on_c, 0, 71, 53
1, 1044480, Note_on_c, 1, 55, 0
1, 1044480, Note_on_c, 1, 59, 0
1, 1044736, Note_on_c, 0, 71, 0
1, 1044736, Note_on_c, 0, 69, 54
1, 1044992, Note_on_c, 0, 69, 0
1, 1044992, Note_on_c, 0, 72, 55
1, 1045248, Note_on_c, 0, 72, 0
1, 1045248, Note_on_c, 0, 71, 57
1, 1045504, Note_on_c, 0, 71, 0
1, 1045504, Note_on_c, 0, 74, 58
1, 1045760, Note_on_c, 0, 74, 0
1, 1045760, Note_on_c, 0, 72, 59
1, 1046016, Note_on_c, 0, 72, 0
1, 1046016, Note_on_c, 0, 76, 61
1, 1046272, Note_on_c, 0, 76, 0
1, 1046272, Note_on_c, 0, 74, 62
1, 1046528, Note_on_c, 0, 74, 0
1, 1046528, Note_on_c, 0, 77, 83
1, 1046528, Note_on_c, 1, 45, 71
1, 1046784, Note_on_c, 1, 45, 0
1, 1046784, Note_on_c, 1, 53, 71
1, 1047040, Note_on_c, 1, 53, 0
1, 1047040, Note_on_c, 1, 48, 71
1, 1047296, Note_on_c, 1, 48, 0
1, 1047296, Note_on_c, 1, 53, 71
1, 1047552, Note_on_c, 1, 53, 0
1, 1047552, Note_on_c, 1, 47, 71
1, 1047808, Note_on_c, 1, 47, 0
1, 1047808, Note_on_c, 1, 53, 71
1, 1048064, Note_on_c, 0, 77, 0
1, 1048064, Note_on_c, 0, 79, 83
1, 1048064, Note_on_c, 1, 53, 0
1, 1048064, Note_on_c, 1, 50, 71
1, 1048320, Note_on_c, 0, 79, 0
1, 1048320, Note_on_c, 0, 81, 83
1, 1048320, Note_on_c, 1, 50, 0
1, 1048320, Note_on_c, 1, 53, 71
1, 1048576, Note_on_c, 0, 81, 0
1, 1048576, Note_on_c, 0, 79, 87
1, 1048576, Note_on_c, 1, 53, 0
1, 1048576, Note_on_c, 1, 43, 71
1, 1048832, Note_on_c, 0, 79, 0
1, 1048832, Note_on_c, 0, 77, 83
1, 1048832, Note_on_c, 1, 43, 0
1, 1048832, Note_on_c, 1, 53, 71
1, 1049088, Note_on_c, 0, 77, 0
1, 1049088, Note_on_c, 0, 76, 83
1, 1049088, Note_on_c, 1, 53, 0
1, 1049088, Note_on_c, 1, 47, 71
1, 1049344, Note_on_c, 0, 76, 0
1, 1049344, Note_on_c, 0, 74, 83
1, 1049344, Note_on_c, 1, 47, 0
1, 1049344, Note_on_c, 1, 53, 71
1, 1049600, Note_on_c, 0, 74, 0
1, 1049600, Note_on_c, 0, 76, 83
1, 1049600, Note_on_c, 1, 53, 0
1, 1049600, Note_on_c, 1, 48, 71
1, 1049856, Note_on_c, 1, 48, 0
1, 1049856, Note_on_c, 1, 55, 72
1, 1050112, Note_on_c, 1, 55, 0
1, 1050112, Note_on_c, 1, 52, 73
1, 1050368, Note_on_c, 1, 52, 0
1, 1050368, Note_on_c, 1, 55, 74
1, 1050624, Note_on_c, 0, 76, 0
1, 1050624, Note_on_c, 0, 78, 93
1, 1050624, Note_on_c, 1, 55, 0
1, 1050624, Note_on_c, 1, 48, 75
1, 1050880, Note_on_c, 1, 48, 0
1, 1050880, Note_on_c, 1, 57, 76
1, 1051136, Note_on_c, 1, 57, 0
1, 1051136, Note_on_c, 1, 51, 77
1, 1051392, Note_on_c, 1, 51, 0
1, 1051392, Note_on_c, 1, 57, 78
1, 1051648, Note_on_c, 0, 78, 0
1, 1051648, Note_on_c, 0, 79, 98
1, 1051648, Note_on_c, 1, 57, 0
1, 1051648, Note_on_c, 1, 49, 79
1, 1051904, Note_on_c, 1, 49, 0
1, 1051904, Note_on_c, 1, 58, 79
1, 1052160, Note_on_c, 1, 58, 0
1, 1052160, Note_on_c, 1, 52, 80
1, 1052416, Note_on_c, 1, 52, 0
1, 1052416, Note_on_c, 1, 58, 82
1, 1052672, Note_on_c, 0, 79, 0
1, 1052672, Note_on_c, 0, 67, 100
1, 1052672, Note_on_c, 1, 58, 0
1, 1052672, Note_on_c, 1, 50, 79
1, 1052928, Note_on_c, 1, 50, 0
1, 1052928, Note_on_c, 1, 59, 74
1, 1053184, Note_on_c, 1, 59, 0
1, 1053184, Note_on_c, 1, 55, 74
1, 1053440, Note_on_c, 1, 55, 0
1, 1053440, Note_on_c, 1, 59, 69
1, 1053696, Note_on_c, 1, 59, 0
1, 1053696, Note_on_c, 1, 50, 68
1, 1053952, Note_on_c, 1, 50, 0
1, 1053952, Note_on_c, 1, 59, 66
1, 1054208, Note_on_c, 0, 67, 0
1, 1054208, Note_on_c, 0, 69, 86
1, 1054208, Note_on_c, 1, 59, 0
1, 1054208, Note_on_c, 1, 55, 65
1, 1054336, Note_on_c, 0, 69, 0
1, 1054336, Note_on_c, 0, 67, 83
1, 1054464, Note_on_c, 0, 67, 0
1, 1054464, Note_on_c, 0, 66, 77
1, 1054464, Note_on_c, 1, 55, 0
1, 1054464, Note_on_c, 1, 59, 62
1, 1054592, Note_on_c, 0, 66, 0
1, 1054592, Note_on_c, 0, 67, 74
1, 1054720, Note_on_c, 0, 67, 0
1, 1054720, Note_on_c, 0, 71, 72
1, 1054720, Note_on_c, 0, 66, 65
1, 1054720, Note_on_c, 1, 59, 0
1, 1054720, Note_on_c, 1, 50, 59
1, 1054976, Note_on_c, 1, 50, 0
1, 1054976, Note_on_c, 1, 60, 57
1, 1055232, Note_on_c, 0, 71, 0
1, 1055232, Note_on_c, 0, 69, 69
1, 1055232, Note_on_c, 1, 60, 0
1, 1055232, Note_on_c, 1, 57, 56
1, 1055488, Note_on_c, 1, 57, 0
1, 1055488, Note_on_c, 1, 60, 54
1, 1055744, Note_on_c, 0, 69, 0
1, 1055744, Note_on_c, 0, 66, 0
1, 1055744, Note_on_c, 0, 67, 67
1, 1055744, Note_on_c, 1, 60, 0
1, 1055744, Note_on_c, 1, 55, 54
1, 1055744, Note_on_c, 1, 59, 54
1, 1056000, Note_on_c, 0, 67, 0
1, 1056000, Note_on_c, 0, 62, 58
1, 1056256, Note_on_c, 0, 62, 0
1, 1056256, Note_on_c, 0, 71, 56
1, 1056333, Note_on_c, 0, 71, 0
1, 1056512, Note_on_c, 0, 71, 57
1, 1056589, Note_on_c, 0, 71, 0
1, 1056768, Note_on_c, 0, 71, 62
1, 1056768, Note_on_c, 1, 55, 0
1, 1056768, Note_on_c, 1, 59, 0
1, 1057024, Note_on_c, 0, 71, 0
1, 1057024, Note_on_c, 0, 67, 57
1, 1057280, Note_on_c, 0, 67, 0
1, 1057280, Note_on_c, 0, 74, 57
1, 1057357, Note_on_c, 0, 74, 0
1, 1057536, Note_on_c, 0, 74, 59
1, 1057613, Note_on_c, 0, 74, 0
1, 1057792, Note_on_c, 0, 74, 63
1, 1058048, Note_on_c, 0, 74, 0
1, 1058048, Note_on_c, 0, 71, 57
1, 1058304, Note_on_c, 0, 71, 0
1, 1058304, Note_on_c, 0, 69, 55
1, 1058304, Note_on_c, 1, 50, 43
1, 1058304, Note_on_c, 1, 60, 43
1, 1058560, Note_on_c, 0, 69, 0
1, 1058560, Note_on_c, 0, 71, 53
1, 1058816, Note_on_c, 0, 71, 0
1, 1058816, Note_on_c, 0, 67, 52
1, 1058816, Note_on_c, 1, 50, 0
1, 1058816, Note_on_c, 1, 60, 0
1, 1058816, Note_on_c, 1, 55, 33
1, 1058816, Note_on_c, 1, 59, 33
1, 1059072, Note_on_c, 0, 67, 0
1, 1059072, Note_on_c, 0, 62, 49
1, 1059328, Note_on_c, 0, 62, 0
1, 1059328, Note_on_c, 0, 71, 47
1, 1059405, Note_on_c, 0, 71, 0
1, 1059584, Note_on_c, 0, 71, 48
1, 1059661, Note_on_c, 0, 71, 0
1, 1059840, Note_on_c, 0, 71, 53
1, 1059840, Note_on_c, 1, 55, 0
1, 1059840, Note_on_c, 1, 59, 0
1, 1060096, Note_on_c, 0, 71, 0
1, 1060096, Note_on_c, 0, 67, 50
1, 1060352, Note_on_c, 0, 67, 0
1, 1060352, Note_on_c, 0, 74, 51
1, 1060429, Note_on_c, 0, 74, 0
1, 1060608, Note_on_c, 0, 74, 52
1, 1060685, Note_on_c, 0, 74, 0
1, 1060864, Note_on_c, 0, 74, 56
1, 1061120, Note_on_c, 0, 74, 0
1, 1061120, Note_on_c, 0, 71, 50
1, 1061376, Note_on_c, 0, 71, 0
1, 1061376, Note_on_c, 0, 69, 49
1, 1061376, Note_on_c, 1, 50, 43
1, 1061376, Note_on_c, 1, 60, 43
1, 1061632, Note_on_c, 0, 69, 0
1, 1061632, Note_on_c, 0, 71, 47
1, 1061888, Note_on_c, 0, 71, 0
1, 1061888, Note_on_c, 0, 67, 46
1, 1061888, Note_on_c, 1, 50, 0
1, 1061888, Note_on_c, 1, 60, 0
1, 1061888, Note_on_c, 1, 55, 38
1, 1061888, Note_on_c, 1, 59, 38
1, 1062400, Note_on_c, 0, 67, 0
1, 1062400, Note_on_c, 1, 55, 0
1, 1062400, Note_on_c, 1, 59, 0
1, 1062912, Note_on_c, 0, 59, 57
1, 1062912, Note_on_c, 0, 67, 57
1, 1062912, Note_on_c, 1, 43, 46
1, 1063424, Note_on_c, 0, 59, 0
1, 1063424, Note_on_c, 0, 67, 0
1, 1063424, Note_on_c, 1, 43, 0
1, 1072128, Note_on_c, 0, 76, 63
1, 1072128, Note_on_c, 0, 79, 63
1, 1072205, Note_on_c, 0, 76, 0
1, 1072282, Note_on_c, 0, 79, 0
1, 1072640, Note_on_c, 0, 76, 64
1, 1072640, Note_on_c, 0, 79, 64
1, 1072717, Note_on_c, 0, 76, 0
1, 1072794, Note_on_c, 0, 79, 0
1, 1073152, Note_on_c, 0, 72, 66
1, 1073152, Note_on_c, 0, 76, 66
1, 1073152, Note_on_c, 1, 57, 60
1, 1073152, Note_on_c, 1, 60, 60
1, 1073229, Note_on_c, 0, 72, 0
1, 1073229, Note_on_c, 1, 57, 0
1, 1073306, Note_on_c, 0, 76, 0
1, 1073306, Note_on_c, 1, 60, 0
1, 1073664, Note_on_c, 1, 57, 61
1, 1073664, Note_on_c, 1, 60, 61
1, 1073741, Note_on_c, 1, 57, 0
1, 1073818, Note_on_c, 1, 60, 0
1, 1074176, Note_on_c, 0, 77, 67
1, 1074176, Note_on_c, 0, 81, 67
1, 1074176, Note_on_c, 1, 53, 62
1, 1074176, Note_on_c, 1, 57, 62
1, 1074253, Note_on_c, 0, 77, 0
1, 1074253, Note_on_c, 1, 53, 0
1, 1074330, Note_on_c, 0, 81, 0
1, 1074330, Note_on_c, 1, 57, 0
1, 1074688, Note_on_c, 0, 77, 69
1, 1074688, Note_on_c, 0, 81, 69
1, 1074765, Note_on_c, 0, 77, 0
1, 1074842, Note_on_c, 0, 81, 0
1, 1075200, Note_on_c, 0, 71, 70
1, 1075200, Note_on_c, 0, 74, 70
1, 1075200, Note_on_c, 1, 55, 64
1, 1075200, Note_on_c, 1, 59, 64
1, 1075277, Note_on_c, 0, 71, 0
1, 1075277, Note_on_c, 1, 55, 0
1, 1075354, Note_on_c, 0, 74, 0
1, 1075354, Note_on_c, 1, 59, 0
1, 1075712, Note_on_c, 1, 55, 55
1, 1075712, Note_on_c, 1, 59, 55
1, 1075789, Note_on_c, 1, 55, 0
1, 1075866, Note_on_c, 1, 59, 0
1, 1076224, Note_on_c, 0, 72, 60
1, 1076224, Note_on_c, 1, 52, 55
1, 1076224, Note_on_c, 1, 55, 55
1, 1076301, Note_on_c, 1, 52, 0
1, 1076378, Note_on_c, 1, 55, 0
1, 1076480, Note_on_c, 0, 72, 0
1, 1076480, Note_on_c, 0, 74, 62
1, 1076736, Note_on_c, 0, 74, 0
1, 1076736, Note_on_c, 0, 76, 63
1, 1076992, Note_on_c, 0, 76, 0
1, 1076992, Note_on_c, 0, 72, 65
1, 1077248, Note_on_c, 0, 72, 0
1, 1077248, Note_on_c, 0, 69, 66
1, 1077248, Note_on_c, 1, 53, 58
1, 1077504, Note_on_c, 0, 69, 0
1, 1077504, Note_on_c, 0, 71, 67
1, 1077760, Note_on_c, 0, 71, 0
1, 1077760, Note_on_c, 0, 72, 69
1, 1078016, Note_on_c, 0, 72, 0
1, 1078016, Note_on_c, 0, 73, 70
1, 1078272, Note_on_c, 0, 73, 0
1, 1078272, Note_on_c, 0, 74, 72
1, 1078528, Note_on_c, 0, 74, 0
1, 1078528, Note_on_c, 0, 76, 73
1, 1078784, Note_on_c, 0, 76, 0
1, 1078784, Note_on_c, 0, 77, 74
1, 1078784, Note_on_c, 1, 53, 0
1, 1078784, Note_on_c, 1, 50, 63
1, 1079040, Note_on_c, 0, 77, 0
1, 1079040, Note_on_c, 0, 74, 75
1, 1079296, Note_on_c, 0, 74, 0
1, 1079296, Note_on_c, 0, 72, 77
1, 1079296, Note_on_c, 1, 50, 0
1, 1079296, Note_on_c, 1, 55, 64
1, 1079552, Note_on_c, 0, 72, 0
1, 1079552, Note_on_c, 0, 71, 72
1, 1079808, Note_on_c, 0, 71, 0
1, 1079808, Note_on_c, 0, 69, 70
1, 1079808, Note_on_c, 1, 55, 0
1, 1080064, Note_on_c, 0, 69, 0
1, 1080064, Note_on_c, 0, 67, 69
1, 1080320, Note_on_c, 0, 67, 0
1, 1080320, Note_on_c, 0, 76, 67
1, 1080320, Note_on_c, 0, 79, 67
1, 1080397, Note_on_c, 0, 76, 0
1, 1080474, Note_on_c, 0, 79, 0
1, 1080832, Note_on_c, 0, 76, 69
1, 1080832, Note_on_c, 0, 79, 69
1, 1080909, Note_on_c, 0, 76, 0
1, 1080986, Note_on_c, 0, 79, 0
1, 1081344, Note_on_c, 0, 72, 70
1, 1081344, Note_on_c, 0, 76, 70
1, 1081344, Note_on_c, 1, 57, 64
1, 1081344, Note_on_c, 1, 60, 64
1, 1081421, Note_on_c, 0, 72, 0
1, 1081421, Note_on_c, 1, 57, 0
1, 1081498, Note_on_c, 0, 76, 0
1, 1081498, Note_on_c, 1, 60, 0
1, 1081856, Note_on_c, 1, 57, 67
1, 1081856, Note_on_c, 1, 60, 67
1, 1081933, Note_on_c, 1, 57, 0
1, 1082010, Note_on_c, 1, 60, 0
1, 1082368, Note_on_c, 0, 77, 74
1, 1082368, Note_on_c, 0, 81, 74
1, 1082368, Note_on_c, 1, 50, 69
1, 1082368, Note_on_c, 1, 53, 69
1, 1082445, Note_on_c, 0, 77, 0
1, 1082445, Note_on_c, 1, 50, 0
1, 1082522, Note_on_c, 0, 81, 0
1, 1082522, Note_on_c, 1, 53, 0
1, 1082880, Note_on_c, 0, 77, 76
1, 1082880, Note_on_c, 0, 81, 76
1, 1082957, Note_on_c, 0, 77, 0
1, 1083034, Note_on_c, 0, 81, 0
1, 1083392, Note_on_c, 0, 71, 76
1, 1083392, Note_on_c, 0, 74, 76
1, 1083392, Note_on_c, 1, 55, 71
1, 1083392, Note_on_c, 1, 59, 71
1, 1083469, Note_on_c, 0, 71, 0
1, 1083469, Note_on_c, 1, 55, 0
1, 1083546, Note_on_c, 0, 74, 0
1, 1083546, Note_on_c, 1, 59, 0
1, 1083904, Note_on_c, 1, 55, 59
1, 1083904, Note_on_c, 1, 59, 59
1, 1083981, Note_on_c, 1, 55, 0
1, 1084058, Note_on_c, 1, 59, 0
1, 1084416, Note_on_c, 0, 81, 70
1, 1084416, Note_on_c, 1, 48, 59
1, 1084416, Note_on_c, 1, 52, 59
1, 1084493, Note_on_c, 1, 48, 0
1, 1084570, Note_on_c, 1, 52, 0
1, 1084672, Note_on_c, 0, 81, 0
1, 1084672, Note_on_c, 0, 79, 69
1, 1084928, Note_on_c, 0, 79, 0
1, 1084928, Note_on_c, 0, 77, 76
1, 1085184, Note_on_c, 0, 77, 0
1, 1085184, Note_on_c, 0, 76, 83
1, 1085440, Note_on_c, 0, 76, 0
1, 1085440, Note_on_c, 0, 73, 87
1, 1085440, Note_on_c, 1, 53, 71
1, 1085440, Note_on_c, 1, 57, 71
1, 1085696, Note_on_c, 0, 73, 0
1, 1085696, Note_on_c, 0, 74, 81
1, 1085952, Note_on_c, 0, 74, 0
1, 1085952, Note_on_c, 0, 76, 79
1, 1086208, Note_on_c, 0, 76, 0
1, 1086208, Note_on_c, 0, 77, 78
1, 1086464, Note_on_c, 0, 77, 0
1, 1086464, Note_on_c, 0, 69, 76
1, 1086720, Note_on_c, 0, 69, 0
1, 1086720, Note_on_c, 0, 72, 75
1, 1086976, Note_on_c, 0, 72, 0
1, 1086976, Note_on_c, 0, 71, 73
1, 1086976, Note_on_c, 1, 53, 0
1, 1086976, Note_on_c, 1, 57, 0
1, 1086976, Note_on_c, 1, 55, 62
1, 1086976, Note_on_c, 1, 67, 62
1, 1087232, Note_on_c, 0, 71, 0
1, 1087232, Note_on_c, 0, 74, 71
1, 1087488, Note_on_c, 0, 74, 0
1, 1087488, Note_on_c, 0, 72, 68
1, 1087488, Note_on_c, 1, 55, 0
1, 1087488, Note_on_c, 1, 67, 0
1, 1087488, Note_on_c, 1, 60, 60
1, 1087488, Note_on_c, 1, 64, 60
1, 1087565, Note_on_c, 1, 60, 0
1, 1087642, Note_on_c, 1, 64, 0
1, 1088000, Note_on_c, 0, 72, 0
1, 1088000, Note_on_c, 1, 48, 59
1, 1088154, Note_on_c, 1, 48, 0
1, 1088512, Note_on_c, 0, 76, 64
1, 1088512, Note_on_c, 0, 79, 64
1, 1088589, Note_on_c, 0, 76, 0
1, 1088666, Note_on_c, 0, 79, 0
1, 1089024, Note_on_c, 0, 76, 64
1, 1089024, Note_on_c, 0, 79, 64
1, 1089101, Note_on_c, 0, 76, 0
1, 1089178, Note_on_c, 0, 79, 0
1, 1089536, Note_on_c, 0, 72, 66
1, 1089536, Note_on_c, 0, 76, 66
1, 1089536, Note_on_c, 1, 57, 60
1, 1089536, Note_on_c, 1, 60, 60
1, 1089613, Note_on_c, 0, 72, 0
1, 1089613, Note_on_c, 1, 57, 0
1, 1089690, Note_on_c, 0, 76, 0
1, 1089690, Note_on_c, 1, 60, 0
1, 1090048, Note_on_c, 1, 57, 61
1, 1090048, Note_on_c, 1, 60, 61
1, 1090125, Note_on_c, 1, 57, 0
1, 1090202, Note_on_c, 1, 60, 0
1, 1090560, Note_on_c, 0, 77, 67
1, 1090560, Note_on_c, 0, 81, 67
1, 1090560, Note_on_c, 1, 53, 62
1, 1090560, Note_on_c, 1, 57, 62
1, 1090637, Note_on_c, 0, 77, 0
1, 1090637, Note_on_c, 1, 53, 0
1, 1090714, Note_on_c, 0, 81, 0
1, 1090714, Note_on_c, 1, 57, 0
1, 1091072, Note_on_c, 0, 77, 69
1, 1091072, Note_on_c, 0, 81, 69
1, 1091149, Note_on_c, 0, 77, 0
1, 1091226, Note_on_c, 0, 81, 0
1, 1091584, Note_on_c, 0, 71, 70
1, 1091584, Note_on_c, 0, 74, 70
1, 1091584, Note_on_c, 1, 55, 64
1, 1091584, Note_on_c, 1, 59, 64
1, 1091661, Note_on_c, 0, 71, 0
1, 1091661, Note_on_c, 1, 55, 0
1, 1091738, Note_on_c, 0, 74, 0
1, 1091738, Note_on_c, 1, 59, 0
1, 1092096, Note_on_c, 1, 55, 55
1, 1092096, Note_on_c, 1, 59, 55
1, 1092173, Note_on_c, 1, 55, 0
1, 1092250, Note_on_c, 1, 59, 0
1, 1092608, Note_on_c, 0, 72, 60
1, 1092608, Note_on_c, 1, 52, 55
1, 1092608, Note_on_c, 1, 55, 55
1, 1092685, Note_on_c, 1, 52, 0
1, 1092762, Note_on_c, 1, 55, 0
1, 1092864, Note_on_c, 0, 72, 0
1, 1092864, Note_on_c, 0, 74, 62
1, 1093120, Note_on_c, 0, 74, 0
1, 1093120, Note_on_c, 0, 76, 63
1, 1093376, Note_on_c, 0, 76, 0
1, 1093376, Note_on_c, 0, 72, 65
1, 1093632, Note_on_c, 0, 72, 0
1, 1093632, Note_on_c, 0, 69, 66
1, 1093632, Note_on_c, 1, 53, 58
1, 1093888, Note_on_c, 0, 69, 0
1, 1093888, Note_on_c, 0, 71, 67
1, 1094144, Note_on_c, 0, 71, 0
1, 1094144, Note_on_c, 0, 72, 69
1, 1094400, Note_on_c, 0, 72, 0
1, 1094400, Note_on_c, 0, 73, 70
1, 1094656, Note_on_c, 0, 73, 0
1, 1094656, Note_on_c, 0, 74, 72
1, 1094912, Note_on_c, 0, 74, 0
1, 1094912, Note_on_c, 0, 76, 73
1, 1095168, Note_on_c, 0, 76, 0
1, 1095168, Note_on_c, 0, 77, 74
1, 1095168, Note_on_c, 1, 53, 0
1, 1095168, Note_on_c, 1, 50, 63
1, 1095424, Note_on_c, 0, 77, 0
1, 1095424, Note_on_c, 0, 74, 75
1, 1095680, Note_on_c, 0, 74, 0
1, 1095680, Note_on_c, 0, 72, 77
1, 1095680, Note_on_c, 1, 50, 0
1, 1095680, Note_on_c, 1, 55, 64
1, 1095936, Note_on_c, 0, 72, 0
1, 1095936, Note_on_c, 0, 71, 72
1, 1096192, Note_on_c, 0, 71, 0
1, 1096192, Note_on_c, 0, 69, 70
1, 1096192, Note_on_c, 1, 55, 0
1, 1096448, Note_on_c, 0, 69, 0
1, 1096448, Note_on_c, 0, 67, 69
1, 1096704, Note_on_c, 0, 67, 0
1, 1096704, Note_on_c, 0, 76, 67
1, 1096704, Note_on_c, 0, 79, 67
1, 1096781, Note_on_c, 0, 76, 0
1, 1096858, Note_on_c, 0, 79, 0
1, 1097216, Note_on_c, 0, 76, 69
1, 1097216, Note_on_c, 0, 79, 69
1, 1097293, Note_on_c, 0, 76, 0
1, 1097370, Note_on_c, 0, 79, 0
1, 1097728, Note_on_c, 0, 72, 70
1, 1097728, Note_on_c, 0, 76, 70
1, 1097728, Note_on_c, 1, 57, 64
1, 1097728, Note_on_c, 1, 60, 64
1, 1097805, Note_on_c, 0, 72, 0
1, 1097805, Note_on_c, 1, 57, 0
1, 1097882, Note_on_c, 0, 76, 0
1, 1097882, Note_on_c, 1, 60, 0
1, 1098240, Note_on_c, 1, 57, 67
1, 1098240, Note_on_c, 1, 60, 67
1, 1098317, Note_on_c, 1, 57, 0
1, 1098394, Note_on_c, 1, 60, 0
1, 1098752, Note_on_c, 0, 77, 74
1, 1098752, Note_on_c, 0, 81, 74
1, 1098752, Note_on_c, 1, 50, 69
1, 1098752, Note_on_c, 1, 53, 69
1, 1098829, Note_on_c, 0, 77, 0
1, 1098829, Note_on_c, 1, 50, 0
1, 1098906, Note_on_c, 0, 81, 0
1, 1098906, Note_on_c, 1, 53, 0
1, 1099264, Note_on_c, 0, 77, 76
1, 1099264, Note_on_c, 0, 81, 76
1, 1099341, Note_on_c, 0, 77, 0
1, 1099418, Note_on_c, 0, 81, 0
1, 1099776, Note_on_c, 0, 71, 76
1, 1099776, Note_on_c, 0, 74, 76
1, 1099776, Note_on_c, 1, 55, 71
1, 1099776, Note_on_c, 1, 59, 71
1, 1099853, Note_on_c, 0, 71, 0
1, 1099853, Note_on_c, 1, 55, 0
1, 1099930, Note_on_c, 0, 74, 0
1, 1099930, Note_on_c, 1, 59, 0
1, 1100288, Note_on_c, 1, 55, 59
1, 1100288, Note_on_c, 1, 59, 59
1, 1100365, Note_on_c, 1, 55, 0
1, 1100442, Note_on_c, 1, 59, 0
1, 1100800, Note_on_c, 0, 81, 70
1, 1100800, Note_on_c, 1, 48, 59
1, 1100800, Note_on_c, 1, 52, 59
1, 1100877, Note_on_c, 1, 48, 0
1, 1100954, Note_on_c, 1, 52, 0
1, 1101056, Note_on_c, 0, 81, 0
1, 1101056, Note_on_c, 0, 79, 69
1, 1101312, Note_on_c, 0, 79, 0
1, 1101312, Note_on_c, 0, 77, 76
1, 1101568, Note_on_c, 0, 77, 0
1, 1101568, Note_on_c, 0, 76, 83
1, 1101824, Note_on_c, 0, 76, 0
1, 1101824, Note_on_c, 0, 73, 87
1, 1101824, Note_on_c, 1, 53, 71
1, 1101824, Note_on_c, 1, 57, 71
1, 1102080, Note_on_c, 0, 73, 0
1, 1102080, Note_on_c, 0, 74, 81
1, 1102336, Note_on_c, 0, 74, 0
1, 1102336, Note_on_c, 0, 76, 79
1, 1102592, Note_on_c, 0, 76, 0
1, 1102592, Note_on_c, 0, 77, 78
1, 1102848, Note_on_c, 0, 77, 0
1, 1102848, Note_on_c, 0, 69, 76
1, 1103104, Note_on_c, 0, 69, 0
1, 1103104, Note_on_c, 0, 72, 75
1, 1103360, Note_on_c, 0, 72, 0
1, 1103360, Note_on_c, 0, 71, 73
1, 1103360, Note_on_c, 1, 53, 0
1, 1103360, Note_on_c, 1, 57, 0
1, 1103360, Note_on_c, 1, 55, 62
1, 1103360, Note_on_c, 1, 67, 62
1, 1103616, Note_on_c, 0, 71, 0
1, 1103616, Note_on_c, 0, 74, 71
1, 1103872, Note_on_c, 0, 74, 0
1, 1103872, Note_on_c, 0, 72, 83
1, 1103872, Note_on_c, 1, 55, 0
1, 1103872, Note_on_c, 1, 67, 0
1, 1103872, Note_on_c, 1, 60, 65
1, 1103872, Note_on_c, 1, 64, 65
1, 1103949, Note_on_c, 1, 60, 0
1, 1104026, Note_on_c, 1, 64, 0
1, 1104384, Note_on_c, 0, 72, 0
1, 1104384, Note_on_c, 1, 48, 60
1, 1104538, Note_on_c, 1, 48, 0
1, 1104896, Note_on_c, 0, 76, 64
1, 1104896, Note_on_c, 1, 60, 58
1, 1105152, Note_on_c, 0, 76, 0
1, 1105152, Note_on_c, 0, 78, 66
1, 1105152, Note_on_c, 1, 67, 60
1, 1105408, Note_on_c, 0, 78, 0
1, 1105408, Note_on_c, 0, 79, 68
1, 1105408, Note_on_c, 1, 67, 0
1, 1105408, Note_on_c, 1, 64, 62
1, 1105408, Note_on_c, 1, 60, 0
1, 1105664, Note_on_c, 0, 79, 0
1, 1105664, Note_on_c, 0, 79, 70
1, 1105664, Note_on_c, 1, 64, 0
1, 1105664, Note_on_c, 1, 67, 64
1, 1105920, Note_on_c, 0, 79, 0
1, 1105920, Note_on_c, 0, 81, 74
1, 1105920, Note_on_c, 1, 67, 0
1, 1105920, Note_on_c, 1, 59, 64
1, 1106176, Note_on_c, 0, 81, 0
1, 1106176, Note_on_c, 0, 79, 68
1, 1106176, Note_on_c, 1, 67, 64
1, 1106432, Note_on_c, 0, 79, 0
1, 1106432, Note_on_c, 0, 78, 66
1, 1106432, Note_on_c, 1, 67, 0
1, 1106432, Note_on_c, 1, 62, 61
1, 1106432, Note_on_c, 1, 59, 0
1, 1106688, Note_on_c, 0, 78, 0
1, 1106688, Note_on_c, 0, 76, 64
1, 1106688, Note_on_c, 1, 62, 0
1, 1106688, Note_on_c, 1, 67, 58
1, 1106944, Note_on_c, 0, 76, 0
1, 1106944, Note_on_c, 0, 74, 70
1, 1106944, Note_on_c, 1, 67, 0
1, 1106944, Note_on_c, 1, 54, 64
1, 1107021, Note_on_c, 0, 74, 0
1, 1107200, Note_on_c, 0, 74, 72
1, 1107200, Note_on_c, 1, 62, 70
1, 1107277, Note_on_c, 0, 74, 0
1, 1107456, Note_on_c, 0, 74, 74
1, 1107456, Note_on_c, 1, 62, 0
1, 1107456, Note_on_c, 1, 57, 73
1, 1107456, Note_on_c, 1, 54, 0
1, 1107533, Note_on_c, 0, 74, 0
1, 1107712, Note_on_c, 0, 74, 76
1, 1107712, Note_on_c, 1, 57, 0
1, 1107712, Note_on_c, 1, 62, 76
1, 1107789, Note_on_c, 0, 74, 0
1, 1107968, Note_on_c, 0, 76, 76
1, 1107968, Note_on_c, 1, 62, 0
1, 1107968, Note_on_c, 1, 55, 70
1, 1108224, Note_on_c, 0, 76, 0
1, 1108224, Note_on_c, 0, 74, 74
1, 1108224, Note_on_c, 1, 62, 68
1, 1108480, Note_on_c, 0, 74, 0
1, 1108480, Note_on_c, 0, 72, 72
1, 1108480, Note_on_c, 1, 62, 0
1, 1108480, Note_on_c, 1, 59, 66
1, 1108480, Note_on_c, 1, 55, 0
1, 1108736, Note_on_c, 0, 72, 0
1, 1108736, Note_on_c, 0, 71, 70
1, 1108736, Note_on_c, 1, 59, 0
1, 1108736, Note_on_c, 1, 62, 64
1, 1108992, Note_on_c, 0, 71, 0
1, 1108992, Note_on_c, 0, 88, 84
1, 1108992, Note_on_c, 1, 62, 0
1, 1108992, Note_on_c, 1, 47, 69
1, 1109248, Note_on_c, 0, 88, 0
1, 1109248, Note_on_c, 0, 86, 80
1, 1109248, Note_on_c, 1, 55, 69
1, 1109504, Note_on_c, 0, 86, 0
1, 1109504, Note_on_c, 0, 84, 81
1, 1109504, Note_on_c, 1, 55, 0
1, 1109504, Note_on_c, 1, 50, 72
1, 1109504, Note_on_c, 1, 47, 0
1, 1109760, Note_on_c, 0, 84, 0
1, 1109760, Note_on_c, 0, 83, 82
1, 1109760, Note_on_c, 1, 50, 0
1, 1109760, Note_on_c, 1, 55, 74
1, 1110016, Note_on_c, 0, 83, 0
1, 1110016, Note_on_c, 0, 80, 86
1, 1110016, Note_on_c, 1, 55, 0
1, 1110016, Note_on_c, 1, 48, 71
1, 1110272, Note_on_c, 0, 80, 0
1, 1110272, Note_on_c, 0, 81, 83
1, 1110272, Note_on_c, 1, 57, 73
1, 1110528, Note_on_c, 0, 81, 0
1, 1110528, Note_on_c, 0, 83, 83
1, 1110528, Note_on_c, 1, 57, 0
1, 1110528, Note_on_c, 1, 52, 72
1, 1110528, Note_on_c, 1, 48, 0
1, 1110784, Note_on_c, 0, 83, 0
1, 1110784, Note_on_c, 0, 84, 84
1, 1110784, Note_on_c, 1, 52, 0
1, 1110784, Note_on_c, 1, 57, 71
1, 1111040, Note_on_c, 0, 84, 0
1, 1111040, Note_on_c, 0, 76, 84
1, 1111040, Note_on_c, 1, 57, 0
1, 1111040, Note_on_c, 1, 49, 69
1, 1111296, Note_on_c, 0, 76, 0
1, 1111296, Note_on_c, 0, 78, 85
1, 1111296, Note_on_c, 1, 57, 71
1, 1111552, Note_on_c, 0, 78, 0
1, 1111552, Note_on_c, 0, 79, 86
1, 1111552, Note_on_c, 1, 57, 0
1, 1111552, Note_on_c, 1, 52, 70
1, 1111552, Note_on_c, 1, 49, 0
1, 1111808, Note_on_c, 0, 79, 0
1, 1111808, Note_on_c, 0, 81, 86
1, 1111808, Note_on_c, 1, 52, 0
1, 1111808, Note_on_c, 1, 57, 69
1, 1112064, Note_on_c, 0, 81, 0
1, 1112064, Note_on_c, 0, 79, 90
1, 1112064, Note_on_c, 1, 57, 0
1, 1112064, Note_on_c, 1, 50, 69
1, 1112320, Note_on_c, 0, 79, 0
1, 1112320, Note_on_c, 0, 78, 83
1, 1112576, Note_on_c, 0, 78, 0
1, 1112576, Note_on_c, 0, 76, 79
1, 1112576, Note_on_c, 1, 50, 0
1, 1112832, Note_on_c, 0, 76, 0
1, 1112832, Note_on_c, 0, 74, 77
1, 1113088, Note_on_c, 0, 74, 0
1, 1113088, Note_on_c, 0, 83, 45
1, 1113088, Note_on_c, 0, 86, 45
1, 1113165, Note_on_c, 0, 83, 0
1, 1113242, Note_on_c, 0, 86, 0
1, 1113600, Note_on_c, 0, 83, 48
1, 1113600, Note_on_c, 0, 86, 48
1, 1113677, Note_on_c, 0, 83, 0
1, 1113754, Note_on_c, 0, 86, 0
1, 1114112, Note_on_c, 0, 79, 51
1, 1114112, Note_on_c, 0, 83, 51
1, 1114112, Note_on_c, 1, 64, 44
1, 1114112, Note_on_c, 1, 67, 44
1, 1114189, Note_on_c, 0, 79, 0
1, 1114189, Note_on_c, 1, 64, 0
1, 1114266, Note_on_c, 0, 83, 0
1, 1114266, Note_on_c, 1, 67, 0
1, 1114624, Note_on_c, 1, 64, 45
1, 1114624, Note_on_c, 1, 67, 45
1, 1114701, Note_on_c, 1, 64, 0
1, 1114778, Note_on_c, 1, 67, 0
1, 1115136, Note_on_c, 0, 81, 55
1, 1115136, Note_on_c, 0, 84, 55
1, 1115136, Note_on_c, 1, 60, 46
1, 1115136, Note_on_c, 1, 64, 46
1, 1115213, Note_on_c, 0, 81, 0
1, 1115213, Note_on_c, 1, 60, 0
1, 1115290, Note_on_c, 0, 84, 0
1, 1115290, Note_on_c, 1, 64, 0
1, 1115648, Note_on_c, 0, 81, 58
1, 1115648, Note_on_c, 0, 84, 58
1, 1115725, Note_on_c, 0, 81, 0
1, 1115802, Note_on_c, 0, 84, 0
1, 1116160, Note_on_c, 0, 78, 55
1, 1116160, Note_on_c, 0, 81, 55
1, 1116160, Note_on_c, 1, 62, 49
1, 1116160, Note_on_c, 1, 66, 49
1, 1116237, Note_on_c, 0, 78, 0
1, 1116237, Note_on_c, 1, 62, 0
1, 1116314, Note_on_c, 0, 81, 0
1, 1116314, Note_on_c, 1, 66, 0
1, 1116672, Note_on_c, 1, 62, 43
1, 1116672, Note_on_c, 1, 66, 43
1, 1116749, Note_on_c, 1, 62, 0
1, 1116826, Note_on_c, 1, 66, 0
1, 1117184, Note_on_c, 0, 79, 77
1, 1117184, Note_on_c, 1, 59, 68
1, 1117184, Note_on_c, 1, 62, 68
1, 1117261, Note_on_c, 1, 59, 0
1, 1117338, Note_on_c, 1, 62, 0
1, 1117440, Note_on_c, 0, 79, 0
1, 1117440, Note_on_c, 0, 81, 79
1, 1117696, Note_on_c, 0, 81, 0
1, 1117696, Note_on_c, 0, 83, 81
1, 1117952, Note_on_c, 0, 83, 0
1, 1117952, Note_on_c, 0, 79, 83
1, 1118208, Note_on_c, 0, 79, 0
1, 1118208, Note_on_c, 0, 75, 87
1, 1118208, Note_on_c, 1, 55, 71
1, 1118208, Note_on_c, 1, 48, 71
1, 1118464, Note_on_c, 0, 75, 0
1, 1118464, Note_on_c, 0, 76, 82
1, 1118720, Note_on_c, 0, 76, 0
1, 1118720, Note_on_c, 0, 79, 80
1, 1118976, Note_on_c, 0, 79, 0
1, 1118976, Note_on_c, 0, 76, 79
1, 1119232, Note_on_c, 0, 76, 0
1, 1119232, Note_on_c, 0, 74, 78
1, 1119232, Note_on_c, 1, 48, 0
1, 1119232, Note_on_c, 1, 50, 71
1, 1119488, Note_on_c, 0, 74, 0
1, 1119488, Note_on_c, 0, 71, 77
1, 1119744, Note_on_c, 0, 71, 0
1, 1119744, Note_on_c, 0, 72, 76
1, 1119744, Note_on_c, 1, 55, 0
1, 1119744, Note_on_c, 1, 54, 67
1, 1120000, Note_on_c, 0, 72, 0
1, 1120000, Note_on_c, 0, 69, 75
1, 1120256, Note_on_c, 0, 69, 0
1, 1120256, Note_on_c, 0, 67, 73
1, 1120256, Note_on_c, 1, 54, 0
1, 1120256, Note_on_c, 1, 50, 0
1, 1120256, Note_on_c, 1, 55, 65
1, 1120410, Note_on_c, 1, 55, 0
1, 1120768, Note_on_c, 0, 67, 0
1, 1120768, Note_on_c, 1, 43, 61
1, 1120922, Note_on_c, 1, 43, 0
1, 1121280, Note_on_c, 0, 67, 49
1, 1121536, Note_on_c, 0, 67, 0
1, 1121536, Note_on_c, 0, 69, 51
1, 1121792, Note_on_c, 0, 69, 0
1, 1121792, Note_on_c, 0, 71, 53
1, 1122048, Note_on_c, 0, 71, 0
1, 1122048, Note_on_c, 0, 72, 55
1, 1122304, Note_on_c, 0, 72, 0
1, 1122304, Note_on_c, 0, 74, 55
1, 1122304, Note_on_c, 1, 55, 49
1, 1122304, Note_on_c, 1, 59, 49
1, 1122381, Note_on_c, 1, 55, 0
1, 1122458, Note_on_c, 1, 59, 0
1, 1122816, Note_on_c, 0, 74, 0
1, 1122816, Note_on_c, 1, 43, 43
1, 1122970, Note_on_c, 1, 43, 0
1, 1123328, Note_on_c, 0, 71, 53
1, 1123584, Note_on_c, 0, 71, 0
1, 1123584, Note_on_c, 0, 72, 55
1, 1123840, Note_on_c, 0, 72, 0
1, 1123840, Note_on_c, 0, 74, 57
1, 1124096, Note_on_c, 0, 74, 0
1, 1124096, Note_on_c, 0, 76, 59
1, 1124352, Note_on_c, 0, 76, 0
1, 1124352, Note_on_c, 0, 77, 59
1, 1124352, Note_on_c, 1, 55, 56
1, 1124352, Note_on_c, 1, 59, 56
1, 1124429, Note_on_c, 1, 55, 0
1, 1124506, Note_on_c, 1, 59, 0
1, 1124864, Note_on_c, 0, 77, 0
1, 1124864, Note_on_c, 1, 43, 50
1, 1125018, Note_on_c, 1, 43, 0
1, 1125376, Note_on_c, 0, 74, 57
1, 1125632, Note_on_c, 0, 74, 0
1, 1125632, Note_on_c, 0, 76, 59
1, 1125888, Note_on_c, 0, 76, 0
1, 1125888, Note_on_c, 0, 77, 61
1, 1126144, Note_on_c, 0, 77, 0
1, 1126144, Note_on_c, 0, 79, 63
1, 1126400, Note_on_c, 0, 79, 0
1, 1126400, Note_on_c, 0, 81, 63
1, 1126554, Note_on_c, 0, 81, 0
1, 1126912, Note_on_c, 0, 80, 56
1, 1127066, Note_on_c, 0, 80, 0
1, 1127424, Note_on_c, 0, 79, 54
1, 1127578, Note_on_c, 0, 79, 0
1, 1127936, Note_on_c, 0, 78, 51
1, 1128090, Note_on_c, 0, 78, 0
1, 1128448, Note_on_c, 0, 77, 49
1, 1128960, Note_on_c, 0, 77, 0
1, 1129472, Note_on_c, 0, 76, 61
1, 1129472, Note_on_c, 0, 79, 61
1, 1129549, Note_on_c, 0, 76, 0
1, 1129626, Note_on_c, 0, 79, 0
1, 1129984, Note_on_c, 0, 76, 65
1, 1129984, Note_on_c, 0, 79, 65
1, 1130061, Note_on_c, 0, 76, 0
1, 1130138, Note_on_c, 0, 79, 0
1, 1130496, Note_on_c, 0, 72, 69
1, 1130496, Note_on_c, 0, 76, 69
1, 1130496, Note_on_c, 1, 57, 57
1, 1130496, Note_on_c, 1, 60, 57
1, 1130573, Note_on_c, 0, 72, 0
1, 1130573, Note_on_c, 1, 57, 0
1, 1130650, Note_on_c, 0, 76, 0
1, 1130650, Note_on_c, 1, 60, 0
1, 1131008, Note_on_c, 1, 57, 59
1, 1131008, Note_on_c, 1, 60, 59
1, 1131085, Note_on_c, 1, 57, 0
1, 1131162, Note_on_c, 1, 60, 0
1, 1131520, Note_on_c, 0, 74, 73
1, 1131520, Note_on_c, 0, 77, 73
1, 1131520, Note_on_c, 1, 53, 60
1, 1131520, Note_on_c, 1, 57, 60
1, 1131597, Note_on_c, 0, 74, 0
1, 1131597, Note_on_c, 1, 53, 0
1, 1131674, Note_on_c, 0, 77, 0
1, 1131674, Note_on_c, 1, 57, 0
1, 1132032, Note_on_c, 0, 74, 76
1, 1132032, Note_on_c, 0, 77, 76
1, 1132109, Note_on_c, 0, 74, 0
1, 1132186, Note_on_c, 0, 77, 0
1, 1132544, Note_on_c, 0, 71, 76
1, 1132544, Note_on_c, 0, 74, 76
1, 1132544, Note_on_c, 1, 55, 61
1, 1132544, Note_on_c, 1, 59, 61
1, 1132621, Note_on_c, 0, 71, 0
1, 1132621, Note_on_c, 1, 55, 0
1, 1132698, Note_on_c, 0, 74, 0
1, 1132698, Note_on_c, 1, 59, 0
1, 1133056, Note_on_c, 1, 55, 55
1, 1133056, Note_on_c, 1, 59, 55
1, 1133133, Note_on_c, 1, 55, 0
1, 1133210, Note_on_c, 1, 59, 0
1, 1133568, Note_on_c, 0, 72, 64
1, 1133568, Note_on_c, 1, 52, 55
1, 1133568, Note_on_c, 1, 55, 55
1, 1133645, Note_on_c, 1, 52, 0
1, 1133722, Note_on_c, 1, 55, 0
1, 1133824, Note_on_c, 0, 72, 0
1, 1133824, Note_on_c, 0, 74, 66
1, 1134080, Note_on_c, 0, 74, 0
1, 1134080, Note_on_c, 0, 76, 68
1, 1134336, Note_on_c, 0, 76, 0
1, 1134336, Note_on_c, 0, 72, 70
1, 1134592, Note_on_c, 0, 72, 0
1, 1134592, Note_on_c, 0, 69, 70
1, 1134592, Note_on_c, 1, 53, 61
1, 1134848, Note_on_c, 0, 69, 0
1, 1134848, Note_on_c, 0, 71, 71
1, 1135104, Note_on_c, 0, 71, 0
1, 1135104, Note_on_c, 0, 72, 72
1, 1135360, Note_on_c, 0, 72, 0
1, 1135360, Note_on_c, 0, 73, 73
1, 1135616, Note_on_c, 0, 73, 0
1, 1135616, Note_on_c, 0, 74, 74
1, 1135872, Note_on_c, 0, 74, 0
1, 1135872, Note_on_c, 0, 76, 74
1, 1136128, Note_on_c, 0, 76, 0
1, 1136128, Note_on_c, 0, 77, 76
1, 1136128, Note_on_c, 1, 53, 0
1, 1136128, Note_on_c, 1, 50, 61
1, 1136384, Note_on_c, 0, 77, 0
1, 1136384, Note_on_c, 0, 74, 76
1, 1136640, Note_on_c, 0, 74, 0
1, 1136640, Note_on_c, 0, 72, 81
1, 1136640, Note_on_c, 1, 50, 0
1, 1136640, Note_on_c, 1, 55, 61
1, 1136896, Note_on_c, 0, 72, 0
1, 1136896, Note_on_c, 0, 71, 75
1, 1137152, Note_on_c, 0, 71, 0
1, 1137152, Note_on_c, 0, 69, 74
1, 1137152, Note_on_c, 1, 55, 0
1, 1137408, Note_on_c, 0, 69, 0
1, 1137408, Note_on_c, 0, 67, 73
1, 1137664, Note_on_c, 0, 67, 0
1, 1137664, Note_on_c, 0, 76, 77
1, 1137664, Note_on_c, 0, 79, 77
1, 1137741, Note_on_c, 0, 76, 0
1, 1137818, Note_on_c, 0, 79, 0
1, 1138176, Note_on_c, 0, 76, 78
1, 1138176, Note_on_c, 0, 79, 78
1, 1138253, Note_on_c, 0, 76, 0
1, 1138330, Note_on_c, 0, 79, 0
1, 1138688, Note_on_c, 0, 72, 79
1, 1138688, Note_on_c, 0, 76, 79
1, 1138688, Note_on_c, 1, 57, 71
1, 1138688, Note_on_c, 1, 60, 71
1, 1138765, Note_on_c, 0, 72, 0
1, 1138765, Note_on_c, 1, 57, 0
1, 1138842, Note_on_c, 0, 76, 0
1, 1138842, Note_on_c, 1, 60, 0
1, 1139200, Note_on_c, 1, 57, 71
1, 1139200, Note_on_c, 1, 60, 71
1, 1139277, Note_on_c, 1, 57, 0
1, 1139354, Note_on_c, 1, 60, 0
1, 1139712, Note_on_c, 0, 77, 82
1, 1139712, Note_on_c, 0, 81, 82
1, 1139712, Note_on_c, 1, 50, 71
1, 1139712, Note_on_c, 1, 53, 71
1, 1139789, Note_on_c, 0, 77, 0
1, 1139789, Note_on_c, 1, 50, 0
1, 1139866, Note_on_c, 0, 81, 0
1, 1139866, Note_on_c, 1, 53, 0
1, 1140224, Note_on_c, 0, 77, 83
1, 1140224, Note_on_c, 0, 81, 83
1, 1140301, Note_on_c, 0, 77, 0
1, 1140378, Note_on_c, 0, 81, 0
1, 1140736, Note_on_c, 0, 71, 83
1, 1140736, Note_on_c, 0, 74, 83
1, 1140736, Note_on_c, 1, 55, 71
1, 1140736, Note_on_c, 1, 59, 71
1, 1140813, Note_on_c, 0, 71, 0
1, 1140813, Note_on_c, 1, 55, 0
1, 1140890, Note_on_c, 0, 74, 0
1, 1140890, Note_on_c, 1, 59, 0
1, 1141248, Note_on_c, 1, 55, 66
1, 1141248, Note_on_c, 1, 59, 66
1, 1141325, Note_on_c, 1, 55, 0
1, 1141402, Note_on_c, 1, 59, 0
1, 1141760, Note_on_c, 0, 81, 83
1, 1141760, Note_on_c, 1, 48, 66
1, 1141760, Note_on_c, 1, 52, 66
1, 1141837, Note_on_c, 1, 48, 0
1, 1141914, Note_on_c, 1, 52, 0
1, 1142016, Note_on_c, 0, 81, 0
1, 1142016, Note_on_c, 0, 79, 83
1, 1142272, Note_on_c, 0, 79, 0
1, 1142272, Note_on_c, 0, 77, 83
1, 1142528, Note_on_c, 0, 77, 0
1, 1142528, Note_on_c, 0, 76, 83
1, 1142784, Note_on_c, 0, 76, 0
1, 1142784, Note_on_c, 0, 73, 83
1, 1142784, Note_on_c, 1, 53, 71
1, 1142784, Note_on_c, 1, 57, 71
1, 1143040, Note_on_c, 0, 73, 0
1, 1143040, Note_on_c, 0, 74, 83
1, 1143296, Note_on_c, 0, 74, 0
1, 1143296, Note_on_c, 0, 76, 83
1, 1143552, Note_on_c, 0, 76, 0
1, 1143552, Note_on_c, 0, 77, 83
1, 1143808, Note_on_c, 0, 77, 0
1, 1143808, Note_on_c, 0, 69, 83
1, 1144064, Note_on_c, 0, 69, 0
1, 1144064, Note_on_c, 0, 72, 83
1, 1144320, Note_on_c, 0, 72, 0
1, 1144320, Note_on_c, 0, 71, 83
1, 1144320, Note_on_c, 1, 53, 0
1, 1144320, Note_on_c, 1, 57, 0
1, 1144320, Note_on_c, 1, 55, 71
1, 1144320, Note_on_c, 1, 65, 71
1, 1144576, Note_on_c, 0, 71, 0
1, 1144576, Note_on_c, 0, 74, 83
1, 1144832, Note_on_c, 0, 74, 0
1, 1144832, Note_on_c, 0, 72, 83
1, 1144832, Note_on_c, 1, 55, 0
1, 1144832, Note_on_c, 1, 65, 0
1, 1144832, Note_on_c, 1, 60, 71
1, 1144832, Note_on_c, 1, 64, 71
1, 1144909, Note_on_c, 1, 60, 0
1, 1144986, Note_on_c, 1, 64, 0
1, 1145344, Note_on_c, 0, 72, 0
1, 1145344, Note_on_c, 1, 48, 63
1, 1145498, Note_on_c, 1, 48, 0
1, 1145856, Note_on_c, 1, 60, 37
1, 1145856, Note_on_c, 1, 64, 37
1, 1145933, Note_on_c, 1, 60, 0
1, 1146010, Note_on_c, 1, 64, 0
1, 1146368, Note_on_c, 1, 60, 40
1, 1146368, Note_on_c, 1, 64, 40
1, 1146445, Note_on_c, 1, 60, 0
1, 1146522, Note_on_c, 1, 64, 0
1, 1146880, Note_on_c, 0, 76, 49
1, 1146880, Note_on_c, 1, 57, 43
1, 1146880, Note_on_c, 1, 60, 43
1, 1146957, Note_on_c, 1, 57, 0
1, 1147034, Note_on_c, 1, 60, 0
1, 1147136, Note_on_c, 0, 76, 0
1, 1147136, Note_on_c, 0, 75, 49
1, 1147392, Note_on_c, 0, 75, 0
1, 1147392, Note_on_c, 0, 77, 49
1, 1147648, Note_on_c, 0, 77, 0
1, 1147648, Note_on_c, 0, 76, 49
1, 1147904, Note_on_c, 0, 76, 0
1, 1147904, Note_on_c, 1, 59, 37
1, 1147904, Note_on_c, 1, 62, 37
1, 1147981, Note_on_c, 1, 59, 0
1, 1148058, Note_on_c, 1, 62, 0
1, 1148416, Note_on_c, 1, 59, 43
1, 1148416, Note_on_c, 1, 62, 43
1, 1148493, Note_on_c, 1, 59, 0
1, 1148570, Note_on_c, 1, 62, 0
1, 1148928, Note_on_c, 0, 76, 49
1, 1148928, Note_on_c, 1, 56, 43
1, 1148928, Note_on_c, 1, 59, 43
1, 1149005, Note_on_c, 1, 56, 0
1, 1149082, Note_on_c, 1, 59, 0
1, 1149184, Note_on_c, 0, 76, 0
1, 1149184, Note_on_c, 0, 75, 49
1, 1149440, Note_on_c, 0, 75, 0
1, 1149440, Note_on_c, 0, 77, 49
1, 1149696, Note_on_c, 0, 77, 0
1, 1149696, Note_on_c, 0, 76, 49
1, 1149952, Note_on_c, 0, 76, 0
1, 1149952, Note_on_c, 0, 76, 49
1, 1149952, Note_on_c, 0, 84, 49
1, 1150029, Note_on_c, 0, 76, 0
1, 1150106, Note_on_c, 0, 84, 0
1, 1150464, Note_on_c, 0, 76, 49
1, 1150464, Note_on_c, 0, 84, 49
1, 1150541, Note_on_c, 0, 76, 0
1, 1150618, Note_on_c, 0, 84, 0
1, 1150976, Note_on_c, 0, 72, 49
1, 1150976, Note_on_c, 0, 81, 49
1, 1150976, Note_on_c, 1, 64, 43
1, 1151053, Note_on_c, 0, 72, 0
1, 1151130, Note_on_c, 0, 81, 0
1, 1151232, Note_on_c, 1, 64, 0
1, 1151232, Note_on_c, 1, 63, 40
1, 1151488, Note_on_c, 1, 63, 0
1, 1151488, Note_on_c, 1, 65, 37
1, 1151744, Note_on_c, 1, 65, 0
1, 1151744, Note_on_c, 1, 64, 34
1, 1152000, Note_on_c, 0, 74, 49
1, 1152000, Note_on_c, 0, 83, 49
1, 1152000, Note_on_c, 1, 64, 0
1, 1152077, Note_on_c, 0, 74, 0
1, 1152154, Note_on_c, 0, 83, 0
1, 1152512, Note_on_c, 0, 74, 49
1, 1152512, Note_on_c, 0, 83, 49
1, 1152589, Note_on_c, 0, 74, 0
1, 1152666, Note_on_c, 0, 83, 0
1, 1153024, Note_on_c, 0, 71, 49
1, 1153024, Note_on_c, 0, 80, 49
1, 1153024, Note_on_c, 1, 64, 43
1, 1153101, Note_on_c, 0, 71, 0
1, 1153178, Note_on_c, 0, 80, 0
1, 1153280, Note_on_c, 1, 64, 0
1, 1153280, Note_on_c, 1, 63, 41
1, 1153536, Note_on_c, 1, 63, 0
1, 1153536, Note_on_c, 1, 65, 39
1, 1153792, Note_on_c, 1, 65, 0
1, 1153792, Note_on_c, 1, 64, 37
1, 1154048, Note_on_c, 0, 81, 70
1, 1154048, Note_on_c, 1, 64, 0
1, 1154048, Note_on_c, 1, 60, 56
1, 1154048, Note_on_c, 1, 64, 56
1, 1154304, Note_on_c, 0, 81, 0
1, 1154304, Note_on_c, 0, 76, 70
1, 1154560, Note_on_c, 0, 76, 0
1, 1154560, Note_on_c, 0, 72, 70
1, 1154816, Note_on_c, 0, 72, 0
1, 1154816, Note_on_c, 0, 69, 70
1, 1155072, Note_on_c, 0, 69, 0
1, 1155072, Note_on_c, 0, 72, 74
1, 1155072, Note_on_c, 1, 60, 0
1, 1155072, Note_on_c, 1, 64, 0
1, 1155072, Note_on_c, 1, 62, 58
1, 1155072, Note_on_c, 1, 65, 58
1, 1155328, Note_on_c, 0, 72, 0
1, 1155328, Note_on_c, 0, 70, 70
1, 1155584, Note_on_c, 0, 70, 0
1, 1155584, Note_on_c, 0, 70, 70
1, 1155661, Note_on_c, 0, 70, 0
1, 1155840, Note_on_c, 0, 70, 70
1, 1155917, Note_on_c, 0, 70, 0
1, 1156096, Note_on_c, 0, 74, 74
1, 1156096, Note_on_c, 1, 62, 0
1, 1156096, Note_on_c, 1, 65, 0
1, 1156096, Note_on_c, 1, 64, 61
1, 1156096, Note_on_c, 1, 67, 61
1, 1156352, Note_on_c, 0, 74, 0
1, 1156352, Note_on_c, 0, 73, 70
1, 1156608, Note_on_c, 0, 73, 0
1, 1156608, Note_on_c, 0, 73, 70
1, 1156685, Note_on_c, 0, 73, 0
1, 1156864, Note_on_c, 0, 73, 70
1, 1156941, Note_on_c, 0, 73, 0
1, 1157120, Note_on_c, 0, 76, 76
1, 1157120, Note_on_c, 1, 64, 0
1, 1157120, Note_on_c, 1, 67, 0
1, 1157120, Note_on_c, 1, 69, 61
1, 1157120, Note_on_c, 1, 65, 61
1, 1157376, Note_on_c, 0, 76, 0
1, 1157376, Note_on_c, 0, 74, 70
1, 1157632, Note_on_c, 0, 74, 0
1, 1157632, Note_on_c, 0, 77, 76
1, 1157632, Note_on_c, 1, 65, 0
1, 1157632, Note_on_c, 1, 61, 61
1, 1157888, Note_on_c, 0, 77, 0
1, 1157888, Note_on_c, 0, 76, 70
1, 1158144, Note_on_c, 0, 76, 0
1, 1158144, Note_on_c, 0, 79, 76
1, 1158144, Note_on_c, 1, 61, 0
1, 1158144, Note_on_c, 1, 62, 61
1, 1158400, Note_on_c, 0, 79, 0
1, 1158400, Note_on_c, 0, 77, 70
1, 1158656, Note_on_c, 0, 77, 0
1, 1158656, Note_on_c, 0, 77, 76
1, 1158656, Note_on_c, 1, 62, 0
1, 1158656, Note_on_c, 1, 65, 61
1, 1158912, Note_on_c, 0, 77, 0
1, 1158912, Note_on_c, 0, 76, 70
1, 1159168, Note_on_c, 0, 76, 0
1, 1159168, Note_on_c, 0, 76, 75
1, 1159168, Note_on_c, 1, 69, 0
1, 1159168, Note_on_c, 1, 65, 0
1, 1159168, Note_on_c, 1, 65, 61
1, 1159168, Note_on_c, 1, 69, 61
1, 1159424, Note_on_c, 0, 76, 0
1, 1159424, Note_on_c, 0, 75, 70
1, 1159680, Note_on_c, 0, 75, 0
1, 1159680, Note_on_c, 0, 84, 83
1, 1159680, Note_on_c, 1, 65, 0
1, 1159680, Note_on_c, 1, 69, 0
1, 1160192, Note_on_c, 1, 65, 61
1, 1160192, Note_on_c, 1, 69, 61
1, 1160704, Note_on_c, 0, 84, 0
1, 1160704, Note_on_c, 0, 75, 70
1, 1160704, Note_on_c, 1, 65, 0
1, 1160704, Note_on_c, 1, 69, 0
1, 1161216, Note_on_c, 0, 75, 0
1, 1161216, Note_on_c, 0, 76, 70
1, 1161216, Note_on_c, 1, 52, 64
1, 1161472, Note_on_c, 1, 64, 66
1, 1161728, Note_on_c, 0, 76, 0
1, 1161728, Note_on_c, 1, 52, 0
1, 1161728, Note_on_c, 1, 64, 0
1, 1161728, Note_on_c, 1, 56, 66
1, 1161984, Note_on_c, 1, 56, 0
1, 1161984, Note_on_c, 1, 64, 67
1, 1162240, Note_on_c, 0, 83, 77
1, 1162240, Note_on_c, 1, 64, 0
1, 1162240, Note_on_c, 1, 59, 67
1, 1162496, Note_on_c, 0, 83, 0
1, 1162496, Note_on_c, 0, 82, 79
1, 1162496, Note_on_c, 1, 59, 0
1, 1162496, Note_on_c, 1, 64, 67
1, 1162752, Note_on_c, 0, 82, 0
1, 1162752, Note_on_c, 0, 76, 80
1, 1162752, Note_on_c, 1, 64, 0
1, 1162752, Note_on_c, 1, 56, 68
1, 1163008, Note_on_c, 0, 76, 0
1, 1163008, Note_on_c, 0, 74, 82
1, 1163008, Note_on_c, 1, 56, 0
1, 1163008, Note_on_c, 1, 64, 68
1, 1163264, Note_on_c, 0, 74, 0
1, 1163264, Note_on_c, 0, 72, 83
1, 1163264, Note_on_c, 1, 64, 0
1, 1163264, Note_on_c, 1, 52, 68
1, 1163520, Note_on_c, 0, 72, 0
1, 1163520, Note_on_c, 0, 76, 77
1, 1163520, Note_on_c, 1, 64, 69
1, 1163776, Note_on_c, 0, 76, 0
1, 1163776, Note_on_c, 0, 81, 79
1, 1163776, Note_on_c, 1, 52, 0
1, 1163776, Note_on_c, 1, 64, 0
1, 1163776, Note_on_c, 1, 57, 69
1, 1164032, Note_on_c, 0, 81, 0
1, 1164032, Note_on_c, 0, 80, 79
1, 1164032, Note_on_c, 1, 57, 0
1, 1164032, Note_on_c, 1, 64, 69
1, 1164288, Note_on_c, 0, 80, 0
1, 1164288, Note_on_c, 0, 81, 80
1, 1164288, Note_on_c, 1, 64, 0
1, 1164288, Note_on_c, 1, 60, 70
1, 1164544, Note_on_c, 0, 81, 0
1, 1164544, Note_on_c, 0, 76, 81
1, 1164544, Note_on_c, 1, 60, 0
1, 1164544, Note_on_c, 1, 64, 70
1, 1164800, Note_on_c, 0, 76, 0
1, 1164800, Note_on_c, 0, 72, 82
1, 1164800, Note_on_c, 1, 64, 0
1, 1164800, Note_on_c, 1, 57, 70
1, 1165056, Note_on_c, 0, 72, 0
1, 1165056, Note_on_c, 0, 69, 83
1, 1165056, Note_on_c, 1, 57, 0
1, 1165056, Note_on_c, 1, 64, 70
1, 1165312, Note_on_c, 0, 69, 0
1, 1165312, Note_on_c, 0, 68, 86
1, 1165312, Note_on_c, 1, 64, 0
1, 1165312, Note_on_c, 1, 52, 71
1, 1165568, Note_on_c, 0, 68, 0
1, 1165568, Note_on_c, 0, 71, 77
1, 1165568, Note_on_c, 1, 64, 71
1, 1165824, Note_on_c, 0, 71, 0
1, 1165824, Note_on_c, 0, 72, 79
1, 1165824, Note_on_c, 1, 52, 0
1, 1165824, Note_on_c, 1, 64, 0
1, 1165824, Note_on_c, 1, 56, 71
1, 1166080, Note_on_c, 0, 72, 0
1, 1166080, Note_on_c, 0, 80, 79
1, 1166080, Note_on_c, 1, 56, 0
1, 1166080, Note_on_c, 1, 64, 71
1, 1166336, Note_on_c, 0, 80, 0
1, 1166336, Note_on_c, 0, 83, 80
1, 1166336, Note_on_c, 1, 64, 0
1, 1166336, Note_on_c, 1, 59, 71
1, 1166592, Note_on_c, 0, 83, 0
1, 1166592, Note_on_c, 0, 80, 81
1, 1166592, Note_on_c, 1, 59, 0
1, 1166592, Note_on_c, 1, 64, 71
1, 1166848, Note_on_c, 0, 80, 0
1, 1166848, Note_on_c, 0, 76, 82
1, 1166848, Note_on_c, 1, 64, 0
1, 1166848, Note_on_c, 1, 56, 71
1, 1167104, Note_on_c, 0, 76, 0
1, 1167104, Note_on_c, 0, 74, 83
1, 1167104, Note_on_c, 1, 56, 0
1, 1167104, Note_on_c, 1, 64, 71
1, 1167360, Note_on_c, 0, 74, 0
1, 1167360, Note_on_c, 0, 72, 86
1, 1167360, Note_on_c, 1, 64, 0
1, 1167360, Note_on_c, 1, 52, 71
1, 1167616, Note_on_c, 0, 72, 0
1, 1167616, Note_on_c, 0, 76, 77
1, 1167616, Note_on_c, 1, 64, 71
1, 1167872, Note_on_c, 0, 76, 0
1, 1167872, Note_on_c, 0, 81, 79
1, 1167872, Note_on_c, 1, 52, 0
1, 1167872, Note_on_c, 1, 64, 0
1, 1167872, Note_on_c, 1, 57, 71
1, 1168128, Note_on_c, 0, 81, 0
1, 1168128, Note_on_c, 0, 80, 79
1, 1168128, Note_on_c, 1, 57, 0
1, 1168128, Note_on_c, 1, 64, 71
1, 1168384, Note_on_c, 0, 80, 0
1, 1168384, Note_on_c, 0, 81, 80
1, 1168384, Note_on_c, 1, 64, 0
1, 1168384, Note_on_c, 1, 60, 71
1, 1168640, Note_on_c, 0, 81, 0
1, 1168640, Note_on_c, 0, 76, 81
1, 1168640, Note_on_c, 1, 60, 0
1, 1168640, Note_on_c, 1, 64, 71
1, 1168896, Note_on_c, 0, 76, 0
1, 1168896, Note_on_c, 0, 72, 82
1, 1168896, Note_on_c, 1, 64, 0
1, 1168896, Note_on_c, 1, 57, 71
1, 1169152, Note_on_c, 0, 72, 0
1, 1169152, Note_on_c, 0, 69, 83
1, 1169152, Note_on_c, 1, 57, 0
1, 1169152, Note_on_c, 1, 64, 71
1, 1169408, Note_on_c, 0, 69, 0
1, 1169408, Note_on_c, 0, 64, 93
1, 1169408, Note_on_c, 1, 64, 0
1, 1169408, Note_on_c, 1, 52, 71
1, 1169920, Note_on_c, 0, 64, 0
1, 1169920, Note_on_c, 1, 52, 0
1, 1170432, Note_on_c, 0, 72, 49
1, 1170432, Note_on_c, 0, 76, 49
1, 1170509, Note_on_c, 0, 72, 0
1, 1170586, Note_on_c, 0, 76, 0
1, 1170944, Note_on_c, 0, 72, 49
1, 1170944, Note_on_c, 0, 76, 49
1, 1171021, Note_on_c, 0, 72, 0
1, 1171098, Note_on_c, 0, 76, 0
1, 1171456, Note_on_c, 0, 69, 49
1, 1171456, Note_on_c, 0, 72, 49
1, 1171456, Note_on_c, 1, 64, 43
1, 1171533, Note_on_c, 0, 69, 0
1, 1171610, Note_on_c, 0, 72, 0
1, 1171712, Note_on_c, 1, 64, 0
1, 1171712, Note_on_c, 1, 63, 43
1, 1171968, Note_on_c, 1, 63, 0
1, 1171968, Note_on_c, 1, 65, 43
1, 1172224, Note_on_c, 1, 65, 0
1, 1172224, Note_on_c, 1, 64, 43
1, 1172480, Note_on_c, 0, 71, 49
1, 1172480, Note_on_c, 0, 74, 49
1, 1172480, Note_on_c, 1, 64, 0
1, 1172557, Note_on_c, 0, 71, 0
1, 1172634, Note_on_c, 0, 74, 0
1, 1172992, Note_on_c, 0, 71, 49
1, 1172992, Note_on_c, 0, 74, 49
1, 1173069, Note_on_c, 0, 71, 0
1, 1173146, Note_on_c, 0, 74, 0
1, 1173504, Note_on_c, 0, 68, 49
1, 1173504, Note_on_c, 0, 71, 49
1, 1173504, Note_on_c, 1, 64, 43
1, 1173581, Note_on_c, 0, 68, 0
1, 1173658, Note_on_c, 0, 71, 0
1, 1173760, Note_on_c, 1, 64, 0
1, 1173760, Note_on_c, 1, 63, 43
1, 1174016, Note_on_c, 1, 63, 0
1, 1174016, Note_on_c, 1, 65, 43
1, 1174272, Note_on_c, 1, 65, 0
1, 1174272, Note_on_c, 1, 64, 43
1, 1174528, Note_on_c, 1, 64, 0
1, 1174528, Note_on_c, 1, 52, 43
1, 1174528, Note_on_c, 1, 60, 43
1, 1174605, Note_on_c, 1, 52, 0
1, 1174682, Note_on_c, 1, 60, 0
1, 1175040, Note_on_c, 1, 52, 43
1, 1175040, Note_on_c, 1, 60, 43
1, 1175117, Note_on_c, 1, 52, 0
1, 1175194, Note_on_c, 1, 60, 0
1, 1175552, Note_on_c, 0, 64, 49
1, 1175552, Note_on_c, 1, 48, 43
1, 1175552, Note_on_c, 1, 57, 43
1, 1175629, Note_on_c, 1, 48, 0
1, 1175706, Note_on_c, 1, 57, 0
1, 1175808, Note_on_c, 0, 64, 0
1, 1175808, Note_on_c, 0, 63, 49
1, 1176064, Note_on_c, 0, 63, 0
1, 1176064, Note_on_c, 0, 65, 49
1, 1176320, Note_on_c, 0, 65, 0
1, 1176320, Note_on_c, 0, 64, 49
1, 1176576, Note_on_c, 0, 64, 0
1, 1176576, Note_on_c, 1, 50, 46
1, 1176576, Note_on_c, 1, 59, 46
1, 1176653, Note_on_c, 1, 50, 0
1, 1176730, Note_on_c, 1, 59, 0
1, 1177088, Note_on_c, 1, 50, 46
1, 1177088, Note_on_c, 1, 59, 46
1, 1177165, Note_on_c, 1, 50, 0
1, 1177242, Note_on_c, 1, 59, 0
1, 1177600, Note_on_c, 0, 88, 49
1, 1177600, Note_on_c, 1, 47, 46
1, 1177600, Note_on_c, 1, 56, 46
1, 1177677, Note_on_c, 1, 47, 0
1, 1177754, Note_on_c, 1, 56, 0
1, 1177856, Note_on_c, 0, 88, 0
1, 1177856, Note_on_c, 0, 87, 47
1, 1178112, Note_on_c, 0, 87, 0
1, 1178112, Note_on_c, 0, 89, 45
1, 1178368, Note_on_c, 0, 89, 0
1, 1178368, Note_on_c, 0, 88, 43
1, 1178624, Note_on_c, 0, 88, 0
1, 1178624, Note_on_c, 0, 86, 47
1, 1178624, Note_on_c, 1, 56, 43
1, 1178624, Note_on_c, 1, 59, 43
1, 1178880, Note_on_c, 0, 86, 0
1, 1178880, Note_on_c, 0, 85, 48
1, 1179136, Note_on_c, 0, 85, 0
1, 1179136, Note_on_c, 0, 88, 49
1, 1179392, Note_on_c, 0, 88, 0
1, 1179392, Note_on_c, 0, 86, 50
1, 1179648, Note_on_c, 0, 86, 0
1, 1179648, Note_on_c, 0, 86, 50
1, 1179648, Note_on_c, 1, 56, 0
1, 1179648, Note_on_c, 1, 59, 0
1, 1179648, Note_on_c, 1, 57, 43
1, 1179648, Note_on_c, 1, 60, 43
1, 1179904, Note_on_c, 0, 86, 0
1, 1179904, Note_on_c, 0, 84, 52
1, 1180160, Note_on_c, 0, 84, 0
1, 1180160, Note_on_c, 0, 84, 52
1, 1180160, Note_on_c, 1, 57, 0
1, 1180160, Note_on_c, 1, 60, 0
1, 1180160, Note_on_c, 1, 62, 43
1, 1180160, Note_on_c, 1, 65, 43
1, 1180416, Note_on_c, 0, 84, 0
1, 1180416, Note_on_c, 0, 83, 53
1, 1180672, Note_on_c, 0, 83, 0
1, 1180672, Note_on_c, 0, 83, 55
1, 1180672, Note_on_c, 1, 62, 0
1, 1180672, Note_on_c, 1, 65, 0
1, 1180672, Note_on_c, 1, 64, 43
1, 1180672, Note_on_c, 1, 60, 43
1, 1180928, Note_on_c, 0, 83, 0
1, 1180928, Note_on_c, 0, 81, 55
1, 1181184, Note_on_c, 0, 81, 0
1, 1181184, Note_on_c, 0, 81, 57
1, 1181184, Note_on_c, 1, 60, 0
1, 1181184, Note_on_c, 1, 61, 43
1, 1181440, Note_on_c, 0, 81, 0
1, 1181440, Note_on_c, 0, 79, 58
1, 1181696, Note_on_c, 0, 79, 0
1, 1181696, Note_on_c, 0, 79, 59
1, 1181696, Note_on_c, 1, 64, 0
1, 1181696, Note_on_c, 1, 61, 0
1, 1181696, Note_on_c, 1, 69, 43
1, 1181696, Note_on_c, 1, 62, 43
1, 1181952, Note_on_c, 0, 79, 0
1, 1181952, Note_on_c, 0, 77, 61
1, 1182208, Note_on_c, 0, 77, 0
1, 1182208, Note_on_c, 0, 77, 61
1, 1182208, Note_on_c, 1, 62, 0
1, 1182208, Note_on_c, 1, 64, 43
1, 1182464, Note_on_c, 0, 77, 0
1, 1182464, Note_on_c, 0, 76, 62
1, 1182720, Note_on_c, 0, 76, 0
1, 1182720, Note_on_c, 0, 76, 62
1, 1182720, Note_on_c, 1, 64, 0
1, 1182720, Note_on_c, 1, 65, 43
1, 1182976, Note_on_c, 0, 76, 0
1, 1182976, Note_on_c, 0, 74, 64
1, 1183232, Note_on_c, 0, 74, 0
1, 1183232, Note_on_c, 0, 74, 65
1, 1183232, Note_on_c, 1, 65, 0
1, 1183232, Note_on_c, 1, 64, 43
1, 1183488, Note_on_c, 0, 74, 0
1, 1183488, Note_on_c, 0, 72, 66
1, 1183744, Note_on_c, 0, 72, 0
1, 1183744, Note_on_c, 0, 70, 83
1, 1183744, Note_on_c, 1, 69, 0
1, 1183744, Note_on_c, 1, 64, 0
1, 1183744, Note_on_c, 1, 65, 71
1, 1183744, Note_on_c, 1, 62, 71
1, 1184000, Note_on_c, 0, 70, 0
1, 1184000, Note_on_c, 0, 77, 82
1, 1184256, Note_on_c, 0, 77, 0
1, 1184256, Note_on_c, 0, 74, 80
1, 1184512, Note_on_c, 0, 74, 0
1, 1184512, Note_on_c, 0, 70, 79
1, 1184768, Note_on_c, 0, 70, 0
1, 1184768, Note_on_c, 0, 69, 78
1, 1184768, Note_on_c, 1, 65, 0
1, 1184768, Note_on_c, 1, 60, 67
1, 1184768, Note_on_c, 1, 62, 0
1, 1184768, Note_on_c, 1, 52, 67
1, 1185280, Note_on_c, 0, 69, 0
1, 1185280, Note_on_c, 0, 68, 76
1, 1185280, Note_on_c, 1, 60, 0
1, 1185280, Note_on_c, 1, 59, 66
1, 1185792, Note_on_c, 0, 68, 0
1, 1185792, Note_on_c, 0, 69, 77
1, 1185792, Note_on_c, 1, 59, 0
1, 1185792, Note_on_c, 1, 52, 0
1, 1185792, Note_on_c, 1, 57, 66
1, 1186048, Note_on_c, 1, 60, 71
1, 1186304, Note_on_c, 0, 69, 0
1, 1186304, Note_on_c, 1, 57, 0
1, 1186304, Note_on_c, 1, 60, 0
1, 1186304, Note_on_c, 1, 64, 71
1, 1186560, Note_on_c, 1, 64, 0
1, 1186560, Note_on_c, 1, 60, 71
1, 1186816, Note_on_c, 0, 68, 83
1, 1186816, Note_on_c, 1, 52, 71
1, 1186816, Note_on_c, 1, 60, 0
1, 1187072, Note_on_c, 0, 68, 0
1, 1187072, Note_on_c, 0, 74, 83
1, 1187072, Note_on_c, 1, 62, 71
1, 1187328, Note_on_c, 0, 74, 0
1, 1187328, Note_on_c, 0, 71, 83
1, 1187328, Note_on_c, 1, 52, 0
1, 1187328, Note_on_c, 1, 62, 0
1, 1187328, Note_on_c, 1, 65, 71
1, 1187584, Note_on_c, 0, 71, 0
1, 1187584, Note_on_c, 0, 68, 83
1, 1187584, Note_on_c, 1, 65, 0
1, 1187584, Note_on_c, 1, 62, 71
1, 1187840, Note_on_c, 0, 68, 0
1, 1187840, Note_on_c, 0, 69, 83
1, 1187840, Note_on_c, 1, 62, 0
1, 1187840, Note_on_c, 1, 57, 71
1, 1188096, Note_on_c, 1, 60, 71
1, 1188352, Note_on_c, 0, 69, 0
1, 1188352, Note_on_c, 1, 57, 0
1, 1188352, Note_on_c, 1, 60, 0
1, 1188352, Note_on_c, 1, 64, 71
1, 1188608, Note_on_c, 1, 64, 0
1, 1188608, Note_on_c, 1, 60, 71
1, 1188864, Note_on_c, 0, 68, 83
1, 1188864, Note_on_c, 1, 52, 71
1, 1188864, Note_on_c, 1, 60, 0
1, 1189120, Note_on_c, 0, 68, 0
1, 1189120, Note_on_c, 0, 74, 83
1, 1189120, Note_on_c, 1, 59, 71
1, 1189376, Note_on_c, 0, 74, 0
1, 1189376, Note_on_c, 0, 71, 83
1, 1189376, Note_on_c, 1, 52, 0
1, 1189376, Note_on_c, 1, 59, 0
1, 1189376, Note_on_c, 1, 62, 71
1, 1189632, Note_on_c, 0, 71, 0
1, 1189632, Note_on_c, 0, 68, 83
1, 1189632, Note_on_c, 1, 62, 0
1, 1189632, Note_on_c, 1, 59, 71
1, 1189888, Note_on_c, 0, 68, 0
1, 1189888, Note_on_c, 0, 69, 83
1, 1189888, Note_on_c, 1, 59, 0
1, 1189888, Note_on_c, 1, 57, 71
1, 1190144, Note_on_c, 1, 60, 71
1, 1190400, Note_on_c, 0, 69, 0
1, 1190400, Note_on_c, 1, 57, 0
1, 1190400, Note_on_c, 1, 60, 0
1, 1190400, Note_on_c, 1, 64, 71
1, 1190656, Note_on_c, 1, 64, 0
1, 1190656, Note_on_c, 1, 60, 71
1, 1190912, Note_on_c, 0, 68, 83
1, 1190912, Note_on_c, 1, 52, 71
1, 1190912, Note_on_c, 1, 60, 0
1, 1191168, Note_on_c, 0, 68, 0
1, 1191168, Note_on_c, 0, 74, 83
1, 1191168, Note_on_c, 1, 59, 71
1, 1191424, Note_on_c, 0, 74, 0
1, 1191424, Note_on_c, 0, 71, 83
1, 1191424, Note_on_c, 1, 52, 0
1, 1191424, Note_on_c, 1, 59, 0
1, 1191424, Note_on_c, 1, 62, 71
1, 1191680, Note_on_c, 0, 71, 0
1, 1191680, Note_on_c, 0, 68, 83
1, 1191680, Note_on_c, 1, 62, 0
1, 1191680, Note_on_c, 1, 59, 71
1, 1191936, Note_on_c, 0, 68, 0
1, 1191936, Note_on_c, 0, 69, 83
1, 1191936, Note_on_c, 1, 59, 0
1, 1191936, Note_on_c, 1, 57, 71
1, 1192192, Note_on_c, 0, 69, 0
1, 1192192, Note_on_c, 0, 76, 83
1, 1192192, Note_on_c, 1, 60, 71
1, 1192448, Note_on_c, 0, 76, 0
1, 1192448, Note_on_c, 0, 72, 83
1, 1192448, Note_on_c, 1, 57, 0
1, 1192448, Note_on_c, 1, 60, 0
1, 1192448, Note_on_c, 1, 64, 71
1, 1192704, Note_on_c, 0, 72, 0
1, 1192704, Note_on_c, 0, 69, 83
1, 1192704, Note_on_c, 1, 64, 0
1, 1192704, Note_on_c, 1, 60, 71
1, 1192960, Note_on_c, 0, 69, 0
1, 1192960, Note_on_c, 0, 71, 83
1, 1192960, Note_on_c, 1, 55, 71
1, 1192960, Note_on_c, 1, 60, 0
1, 1193216, Note_on_c, 0, 71, 0
1, 1193216, Note_on_c, 0, 77, 83
1, 1193216, Note_on_c, 1, 62, 71
1, 1193472, Note_on_c, 0, 77, 0
1, 1193472, Note_on_c, 0, 74, 83
1, 1193472, Note_on_c, 1, 55, 0
1, 1193472, Note_on_c, 1, 62, 0
1, 1193472, Note_on_c, 1, 65, 71
1, 1193728, Note_on_c, 0, 74, 0
1, 1193728, Note_on_c, 0, 71, 83
1, 1193728, Note_on_c, 1, 65, 0
1, 1193728, Note_on_c, 1, 62, 71
1, 1193984, Note_on_c, 0, 71, 0
1, 1193984, Note_on_c, 1, 62, 0
1, 1195008, Note_on_c, 0, 76, 63
1, 1195008, Note_on_c, 0, 79, 63
1, 1195085, Note_on_c, 0, 76, 0
1, 1195162, Note_on_c, 0, 79, 0
1, 1195520, Note_on_c, 0, 76, 69
1, 1195520, Note_on_c, 0, 79, 69
1, 1195597, Note_on_c, 0, 76, 0
1, 1195674, Note_on_c, 0, 79, 0
1, 1196032, Note_on_c, 0, 72, 76
1, 1196032, Note_on_c, 0, 76, 76
1, 1196032, Note_on_c, 1, 57, 65
1, 1196032, Note_on_c, 1, 60, 65
1, 1196109, Note_on_c, 0, 72, 0
1, 1196109, Note_on_c, 1, 57, 0
1, 1196186, Note_on_c, 0, 76, 0
1, 1196186, Note_on_c, 1, 60, 0
1, 1196544, Note_on_c, 1, 57, 65
1, 1196544, Note_on_c, 1, 60, 65
1, 1196621, Note_on_c, 1, 57, 0
1, 1196698, Note_on_c, 1, 60, 0
1, 1197056, Note_on_c, 0, 74, 78
1, 1197056, Note_on_c, 0, 77, 78
1, 1197056, Note_on_c, 1, 53, 67
1, 1197056, Note_on_c, 1, 57, 67
1, 1197133, Note_on_c, 0, 74, 0
1, 1197133, Note_on_c, 1, 53, 0
1, 1197210, Note_on_c, 0, 77, 0
1, 1197210, Note_on_c, 1, 57, 0
1, 1197568, Note_on_c, 0, 74, 78
1, 1197568, Note_on_c, 0, 77, 78
1, 1197645, Note_on_c, 0, 74, 0
1, 1197722, Note_on_c, 0, 77, 0
1, 1198080, Note_on_c, 0, 71, 83
1, 1198080, Note_on_c, 0, 74, 83
1, 1198080, Note_on_c, 1, 55, 71
1, 1198080, Note_on_c, 1, 59, 71
1, 1198157, Note_on_c, 0, 71, 0
1, 1198157, Note_on_c, 1, 55, 0
1, 1198234, Note_on_c, 0, 74, 0
1, 1198234, Note_on_c, 1, 59, 0
1, 1198592, Note_on_c, 1, 55, 71
1, 1198592, Note_on_c, 1, 59, 71
1, 1198669, Note_on_c, 1, 55, 0
1, 1198746, Note_on_c, 1, 59, 0
1, 1199104, Note_on_c, 0, 72, 71
1, 1199104, Note_on_c, 1, 52, 71
1, 1199104, Note_on_c, 1, 55, 71
1, 1199181, Note_on_c, 1, 52, 0
1, 1199258, Note_on_c, 1, 55, 0
1, 1199360, Note_on_c, 0, 72, 0
1, 1199360, Note_on_c, 0, 74, 74
1, 1199616, Note_on_c, 0, 74, 0
1, 1199616, Note_on_c, 0, 76, 77
1, 1199872, Note_on_c, 0, 76, 0
1, 1199872, Note_on_c, 0, 72, 79
1, 1200128, Note_on_c, 0, 72, 0
1, 1200128, Note_on_c, 0, 69, 80
1, 1200128, Note_on_c, 1, 53, 71
1, 1200384, Note_on_c, 0, 69, 0
1, 1200384, Note_on_c, 0, 71, 81
1, 1200640, Note_on_c, 0, 71, 0
1, 1200640, Note_on_c, 0, 72, 82
1, 1200896, Note_on_c, 0, 72, 0
1, 1200896, Note_on_c, 0, 73, 83
1, 1201152, Note_on_c, 0, 73, 0
1, 1201152, Note_on_c, 0, 74, 84
1, 1201408, Note_on_c, 0, 74, 0
1, 1201408, Note_on_c, 0, 76, 84
1, 1201664, Note_on_c, 0, 76, 0
1, 1201664, Note_on_c, 0, 77, 86
1, 1201664, Note_on_c, 1, 53, 0
1, 1201664, Note_on_c, 1, 50, 71
1, 1201920, Note_on_c, 0, 77, 0
1, 1201920, Note_on_c, 0, 74, 86
1, 1202176, Note_on_c, 0, 74, 0
1, 1202176, Note_on_c, 0, 72, 86
1, 1202176, Note_on_c, 1, 50, 0
1, 1202176, Note_on_c, 1, 55, 71
1, 1202432, Note_on_c, 0, 72, 0
1, 1202432, Note_on_c, 0, 71, 83
1, 1202688, Note_on_c, 0, 71, 0
1, 1202688, Note_on_c, 0, 69, 80
1, 1202688, Note_on_c, 1, 55, 0
1, 1202944, Note_on_c, 0, 69, 0
1, 1202944, Note_on_c, 0, 67, 77
1, 1203200, Note_on_c, 0, 67, 0
1, 1203200, Note_on_c, 0, 76, 77
1, 1203200, Note_on_c, 0, 79, 77
1, 1203277, Note_on_c, 0, 76, 0
1, 1203354, Note_on_c, 0, 79, 0
1, 1203712, Note_on_c, 0, 76, 80
1, 1203712, Note_on_c, 0, 79, 80
1, 1203789, Note_on_c, 0, 76, 0
1, 1203866, Note_on_c, 0, 79, 0
1, 1204224, Note_on_c, 0, 72, 83
1, 1204224, Note_on_c, 0, 76, 83
1, 1204224, Note_on_c, 1, 57, 71
1, 1204224, Note_on_c, 1, 60, 71
1, 1204301, Note_on_c, 0, 72, 0
1, 1204301, Note_on_c, 1, 57, 0
1, 1204378, Note_on_c, 0, 76, 0
1, 1204378, Note_on_c, 1, 60, 0
1, 1204736, Note_on_c, 1, 57, 71
1, 1204736, Note_on_c, 1, 60, 71
1, 1204813, Note_on_c, 1, 57, 0
1, 1204890, Note_on_c, 1, 60, 0
1, 1205248, Note_on_c, 0, 77, 85
1, 1205248, Note_on_c, 0, 81, 85
1, 1205248, Note_on_c, 1, 50, 71
1, 1205248, Note_on_c, 1, 53, 71
1, 1205325, Note_on_c, 0, 77, 0
1, 1205325, Note_on_c, 1, 50, 0
1, 1205402, Note_on_c, 0, 81, 0
1, 1205402, Note_on_c, 1, 53, 0
1, 1205760, Note_on_c, 0, 77, 87
1, 1205760, Note_on_c, 0, 81, 87
1, 1205837, Note_on_c, 0, 77, 0
1, 1205914, Note_on_c, 0, 81, 0
1, 1206272, Note_on_c, 0, 71, 87
1, 1206272, Note_on_c, 0, 74, 87
1, 1206272, Note_on_c, 1, 55, 71
1, 1206272, Note_on_c, 1, 59, 71
1, 1206349, Note_on_c, 0, 71, 0
1, 1206349, Note_on_c, 1, 55, 0
1, 1206426, Note_on_c, 0, 74, 0
1, 1206426, Note_on_c, 1, 59, 0
1, 1206784, Note_on_c, 1, 55, 71
1, 1206784, Note_on_c, 1, 59, 71
1, 1206861, Note_on_c, 1, 55, 0
1, 1206938, Note_on_c, 1, 59, 0
1, 1207296, Note_on_c, 0, 81, 85
1, 1207296, Note_on_c, 1, 48, 71
1, 1207296, Note_on_c, 1, 52, 71
1, 1207373, Note_on_c, 1, 48, 0
1, 1207450, Note_on_c, 1, 52, 0
1, 1207552, Note_on_c, 0, 81, 0
1, 1207552, Note_on_c, 0, 79, 82
1, 1207808, Note_on_c, 0, 79, 0
1, 1207808, Note_on_c, 0, 77, 84
1, 1208064, Note_on_c, 0, 77, 0
1, 1208064, Note_on_c, 0, 76, 86
1, 1208320, Note_on_c, 0, 76, 0
1, 1208320, Note_on_c, 0, 73, 91
1, 1208320, Note_on_c, 1, 53, 71
1, 1208320, Note_on_c, 1, 57, 71
1, 1208576, Note_on_c, 0, 73, 0
1, 1208576, Note_on_c, 0, 74, 84
1, 1208832, Note_on_c, 0, 74, 0
1, 1208832, Note_on_c, 0, 76, 83
1, 1209088, Note_on_c, 0, 76, 0
1, 1209088, Note_on_c, 0, 77, 81
1, 1209344, Note_on_c, 0, 77, 0
1, 1209344, Note_on_c, 0, 69, 80
1, 1209600, Note_on_c, 0, 69, 0
1, 1209600, Note_on_c, 0, 72, 78
1, 1209856, Note_on_c, 0, 72, 0
1, 1209856, Note_on_c, 0, 71, 77
1, 1209856, Note_on_c, 1, 53, 0
1, 1209856, Note_on_c, 1, 57, 0
1, 1209856, Note_on_c, 1, 55, 71
1, 1209856, Note_on_c, 1, 65, 71
1, 1210112, Note_on_c, 0, 71, 0
1, 1210112, Note_on_c, 0, 74, 75
1, 1210368, Note_on_c, 0, 74, 0
1, 1210368, Note_on_c, 0, 72, 73
1, 1210368, Note_on_c, 1, 55, 0
1, 1210368, Note_on_c, 1, 65, 0
1, 1210368, Note_on_c, 1, 60, 71
1, 1210368, Note_on_c, 1, 64, 71
1, 1210445, Note_on_c, 1, 60, 0
1, 1210522, Note_on_c, 1, 64, 0
1, 1210880, Note_on_c, 0, 72, 0
1, 1210880, Note_on_c, 1, 48, 71
1, 1211034, Note_on_c, 1, 48, 0
1, 1211392, Note_on_c, 0, 71, 76
1, 1211392, Note_on_c, 1, 53, 61
1, 1211648, Note_on_c, 0, 71, 0
1, 1211648, Note_on_c, 0, 77, 75
1, 1211648, Note_on_c, 1, 59, 61
1, 1211904, Note_on_c, 0, 77, 0
1, 1211904, Note_on_c, 0, 74, 74
1, 1211904, Note_on_c, 1, 53, 0
1, 1211904, Note_on_c, 1, 59, 0
1, 1211904, Note_on_c, 1, 55, 61
1, 1212160, Note_on_c, 0, 74, 0
1, 1212160, Note_on_c, 0, 71, 73
1, 1212160, Note_on_c, 1, 55, 0
1, 1212160, Note_on_c, 1, 59, 61
1, 1212416, Note_on_c, 0, 71, 0
1, 1212416, Note_on_c, 0, 81, 76
1, 1212416, Note_on_c, 1, 59, 0
1, 1212416, Note_on_c, 1, 52, 61
1, 1212672, Note_on_c, 0, 81, 0
1, 1212672, Note_on_c, 0, 79, 69
1, 1212672, Note_on_c, 1, 60, 61
1, 1212928, Note_on_c, 0, 79, 0
1, 1212928, Note_on_c, 0, 77, 68
1, 1212928, Note_on_c, 1, 52, 0
1, 1212928, Note_on_c, 1, 60, 0
1, 1212928, Note_on_c, 1, 55, 61
1, 1213184, Note_on_c, 0, 77, 0
1, 1213184, Note_on_c, 0, 76, 67
1, 1213184, Note_on_c, 1, 55, 0
1, 1213184, Note_on_c, 1, 60, 61
1, 1213440, Note_on_c, 0, 76, 0
1, 1213440, Note_on_c, 0, 74, 83
1, 1213440, Note_on_c, 1, 53, 74
1, 1213440, Note_on_c, 1, 60, 0
1, 1213696, Note_on_c, 0, 74, 0
1, 1213696, Note_on_c, 0, 77, 73
1, 1213696, Note_on_c, 1, 59, 61
1, 1213952, Note_on_c, 0, 77, 0
1, 1213952, Note_on_c, 0, 74, 71
1, 1213952, Note_on_c, 1, 53, 0
1, 1213952, Note_on_c, 1, 59, 0
1, 1213952, Note_on_c, 1, 55, 61
1, 1214208, Note_on_c, 0, 74, 0
1, 1214208, Note_on_c, 0, 71, 69
1, 1214208, Note_on_c, 1, 55, 0
1, 1214208, Note_on_c, 1, 59, 61
1, 1214464, Note_on_c, 0, 71, 0
1, 1214464, Note_on_c, 0, 81, 72
1, 1214464, Note_on_c, 1, 59, 0
1, 1214464, Note_on_c, 1, 52, 61
1, 1214720, Note_on_c, 0, 81, 0
1, 1214720, Note_on_c, 0, 79, 66
1, 1214720, Note_on_c, 1, 60, 61
1, 1214976, Note_on_c, 0, 79, 0
1, 1214976, Note_on_c, 0, 77, 64
1, 1214976, Note_on_c, 1, 52, 0
1, 1214976, Note_on_c, 1, 60, 0
1, 1214976, Note_on_c, 1, 55, 61
1, 1215232, Note_on_c, 0, 77, 0
1, 1215232, Note_on_c, 0, 76, 62
1, 1215232, Note_on_c, 1, 55, 0
1, 1215232, Note_on_c, 1, 60, 61
1, 1215488, Note_on_c, 0, 76, 0
1, 1215488, Note_on_c, 0, 86, 76
1, 1215488, Note_on_c, 1, 53, 71
1, 1215488, Note_on_c, 1, 60, 0
1, 1215744, Note_on_c, 0, 86, 0
1, 1215744, Note_on_c, 0, 84, 72
1, 1215744, Note_on_c, 1, 62, 71
1, 1216000, Note_on_c, 0, 84, 0
1, 1216000, Note_on_c, 0, 83, 75
1, 1216000, Note_on_c, 1, 53, 0
1, 1216000, Note_on_c, 1, 62, 0
1, 1216000, Note_on_c, 1, 57, 71
1, 1216256, Note_on_c, 0, 83, 0
1, 1216256, Note_on_c, 0, 81, 77
1, 1216256, Note_on_c, 1, 57, 0
1, 1216256, Note_on_c, 1, 62, 71
1, 1216512, Note_on_c, 0, 81, 0
1, 1216512, Note_on_c, 0, 81, 84
1, 1216512, Note_on_c, 1, 62, 0
1, 1216512, Note_on_c, 1, 55, 71
1, 1216768, Note_on_c, 0, 81, 0
1, 1216768, Note_on_c, 0, 79, 82
1, 1216768, Note_on_c, 1, 64, 71
1, 1217024, Note_on_c, 0, 79, 0
1, 1217024, Note_on_c, 0, 77, 84
1, 1217024, Note_on_c, 1, 55, 0
1, 1217024, Note_on_c, 1, 64, 0
1, 1217024, Note_on_c, 1, 60, 71
1, 1217101, Note_on_c, 0, 77, 0
1, 1217280, Note_on_c, 0, 76, 86
1, 1217280, Note_on_c, 1, 60, 0
1, 1217280, Note_on_c, 1, 64, 71
1, 1217357, Note_on_c, 0, 76, 0
1, 1217536, Note_on_c, 0, 76, 90
1, 1217536, Note_on_c, 1, 55, 71
1, 1217536, Note_on_c, 1, 64, 0
1, 1217792, Note_on_c, 0, 76, 0
1, 1217792, Note_on_c, 0, 74, 84
1, 1217792, Note_on_c, 1, 65, 71
1, 1218048, Note_on_c, 0, 74, 0
1, 1218048, Note_on_c, 0, 72, 82
1, 1218048, Note_on_c, 1, 55, 0
1, 1218048, Note_on_c, 1, 65, 0
1, 1218048, Note_on_c, 1, 62, 71
1, 1218125, Note_on_c, 0, 72, 0
1, 1218304, Note_on_c, 0, 71, 80
1, 1218304, Note_on_c, 1, 62, 0
1, 1218304, Note_on_c, 1, 65, 71
1, 1218381, Note_on_c, 0, 71, 0
1, 1218560, Note_on_c, 0, 74, 82
1, 1218560, Note_on_c, 1, 65, 0
1, 1218560, Note_on_c, 1, 60, 71
1, 1218816, Note_on_c, 1, 67, 71
1, 1219072, Note_on_c, 0, 74, 0
1, 1219072, Note_on_c, 0, 72, 75
1, 1219072, Note_on_c, 1, 60, 0
1, 1219072, Note_on_c, 1, 67, 0
1, 1219072, Note_on_c, 1, 64, 71
1, 1219328, Note_on_c, 1, 64, 0
1, 1219328, Note_on_c, 1, 67, 71
1, 1219584, Note_on_c, 0, 72, 0
1, 1219584, Note_on_c, 0, 71, 73
1, 1219584, Note_on_c, 1, 53, 61
1, 1219584, Note_on_c, 1, 67, 0
1, 1219840, Note_on_c, 0, 71, 0
1, 1219840, Note_on_c, 0, 77, 72
1, 1219840, Note_on_c, 1, 59, 61
1, 1220096, Note_on_c, 0, 77, 0
1, 1220096, Note_on_c, 0, 74, 71
1, 1220096, Note_on_c, 1, 53, 0
1, 1220096, Note_on_c, 1, 59, 0
1, 1220096, Note_on_c, 1, 55, 61
1, 1220352, Note_on_c, 0, 74, 0
1, 1220352, Note_on_c, 0, 71, 69
1, 1220352, Note_on_c, 1, 55, 0
1, 1220352, Note_on_c, 1, 59, 61
1, 1220608, Note_on_c, 0, 71, 0
1, 1220608, Note_on_c, 0, 81, 72
1, 1220608, Note_on_c, 1, 59, 0
1, 1220608, Note_on_c, 1, 52, 61
1, 1220864, Note_on_c, 0, 81, 0
1, 1220864, Note_on_c, 0, 79, 66
1, 1220864, Note_on_c, 1, 60, 61
1, 1221120, Note_on_c, 0, 79, 0
1, 1221120, Note_on_c, 0, 77, 65
1, 1221120, Note_on_c, 1, 52, 0
1, 1221120, Note_on_c, 1, 60, 0
1, 1221120, Note_on_c, 1, 55, 61
1, 1221376, Note_on_c, 0, 77, 0
1, 1221376, Note_on_c, 0, 76, 64
1, 1221376, Note_on_c, 1, 55, 0
1, 1221376, Note_on_c, 1, 60, 61
1, 1221632, Note_on_c, 0, 76, 0
1, 1221632, Note_on_c, 0, 74, 83
1, 1221632, Note_on_c, 1, 53, 72
1, 1221632, Note_on_c, 1, 60, 0
1, 1221888, Note_on_c, 0, 74, 0
1, 1221888, Note_on_c, 0, 77, 73
1, 1221888, Note_on_c, 1, 59, 61
1, 1222144, Note_on_c, 0, 77, 0
1, 1222144, Note_on_c, 0, 74, 71
1, 1222144, Note_on_c, 1, 53, 0
1, 1222144, Note_on_c, 1, 59, 0
1, 1222144, Note_on_c, 1, 55, 61
1, 1222400, Note_on_c, 0, 74, 0
1, 1222400, Note_on_c, 0, 71, 69
1, 1222400, Note_on_c, 1, 55, 0
1, 1222400, Note_on_c, 1, 59, 61
1, 1222656, Note_on_c, 0, 71, 0
1, 1222656, Note_on_c, 0, 81, 67
1, 1222656, Note_on_c, 1, 59, 0
1, 1222656, Note_on_c, 1, 52, 61
1, 1222912, Note_on_c, 0, 81, 0
1, 1222912, Note_on_c, 0, 79, 66
1, 1222912, Note_on_c, 1, 60, 61
1, 1223168, Note_on_c, 0, 79, 0
1, 1223168, Note_on_c, 0, 77, 64
1, 1223168, Note_on_c, 1, 52, 0
1, 1223168, Note_on_c, 1, 60, 0
1, 1223168, Note_on_c, 1, 55, 61
1, 1223424, Note_on_c, 0, 77, 0
1, 1223424, Note_on_c, 0, 76, 65
1, 1223424, Note_on_c, 1, 55, 0
1, 1223424, Note_on_c, 1, 60, 61
1, 1223680, Note_on_c, 0, 76, 0
1, 1223680, Note_on_c, 0, 86, 77
1, 1223680, Note_on_c, 1, 53, 71
1, 1223680, Note_on_c, 1, 60, 0
1, 1223936, Note_on_c, 0, 86, 0
1, 1223936, Note_on_c, 0, 84, 78
1, 1223936, Note_on_c, 1, 62, 71
1, 1224192, Note_on_c, 0, 84, 0
1, 1224192, Note_on_c, 0, 83, 79
1, 1224192, Note_on_c, 1, 53, 0
1, 1224192, Note_on_c, 1, 62, 0
1, 1224192, Note_on_c, 1, 57, 71
1, 1224448, Note_on_c, 0, 83, 0
1, 1224448, Note_on_c, 0, 81, 80
1, 1224448, Note_on_c, 1, 57, 0
1, 1224448, Note_on_c, 1, 62, 71
1, 1224704, Note_on_c, 0, 81, 0
1, 1224704, Note_on_c, 0, 81, 87
1, 1224704, Note_on_c, 1, 62, 0
1, 1224704, Note_on_c, 1, 55, 71
1, 1224960, Note_on_c, 0, 81, 0
1, 1224960, Note_on_c, 0, 79, 84
1, 1224960, Note_on_c, 1, 64, 71
1, 1225216, Note_on_c, 0, 79, 0
1, 1225216, Note_on_c, 0, 77, 85
1, 1225216, Note_on_c, 1, 55, 0
1, 1225216, Note_on_c, 1, 64, 0
1, 1225216, Note_on_c, 1, 60, 71
1, 1225293, Note_on_c, 0, 77, 0
1, 1225472, Note_on_c, 0, 76, 86
1, 1225472, Note_on_c, 1, 60, 0
1, 1225472, Note_on_c, 1, 64, 71
1, 1225549, Note_on_c, 0, 76, 0
1, 1225728, Note_on_c, 0, 76, 91
1, 1225728, Note_on_c, 1, 55, 71
1, 1225728, Note_on_c, 1, 64, 0
1, 1225984, Note_on_c, 0, 76, 0
1, 1225984, Note_on_c, 0, 74, 84
1, 1225984, Note_on_c, 1, 65, 71
1, 1226240, Note_on_c, 0, 74, 0
1, 1226240, Note_on_c, 0, 72, 81
1, 1226240, Note_on_c, 1, 55, 0
1, 1226240, Note_on_c, 1, 65, 0
1, 1226240, Note_on_c, 1, 62, 71
1, 1226317, Note_on_c, 0, 72, 0
1, 1226496, Note_on_c, 0, 71, 79
1, 1226496, Note_on_c, 1, 62, 0
1, 1226496, Note_on_c, 1, 65, 71
1, 1226573, Note_on_c, 0, 71, 0
1, 1226752, Note_on_c, 0, 72, 77
1, 1226752, Note_on_c, 1, 65, 0
1, 1226752, Note_on_c, 1, 60, 77
1, 1226829, Note_on_c, 0, 72, 0
1, 1226829, Note_on_c, 1, 60, 0
1, 1227008, Note_on_c, 0, 76, 89
1, 1227008, Note_on_c, 1, 64, 89
1, 1227085, Note_on_c, 0, 76, 0
1, 1227085, Note_on_c, 1, 64, 0
1, 1227264, Note_on_c, 0, 67, 90
1, 1227264, Note_on_c, 1, 55, 89
1, 1227341, Note_on_c, 0, 67, 0
1, 1227341, Note_on_c, 1, 55, 0
1, 1227520, Note_on_c, 0, 76, 91
1, 1227520, Note_on_c, 1, 60, 89
1, 1227597, Note_on_c, 0, 76, 0
1, 1227597, Note_on_c, 1, 60, 0
1, 1227776, Note_on_c, 0, 64, 92
1, 1227776, Note_on_c, 1, 52, 89
1, 1227853, Note_on_c, 0, 64, 0
1, 1227853, Note_on_c, 1, 52, 0
1, 1228032, Note_on_c, 0, 67, 94
1, 1228032, Note_on_c, 1, 55, 89
1, 1228109, Note_on_c, 0, 67, 0
1, 1228109, Note_on_c, 1, 55, 0
1, 1228288, Note_on_c, 0, 60, 96
1, 1228288, Note_on_c, 1, 48, 89
1, 1228365, Note_on_c, 0, 60, 0
1, 1228365, Note_on_c, 1, 48, 0
1, 1228544, Note_on_c, 0, 64, 97
1, 1228544, Note_on_c, 1, 52, 89
1, 1228621, Note_on_c, 0, 64, 0
1, 1228621, Note_on_c, 1, 52, 0
1, 1228800, Note_on_c, 0, 67, 98
1, 1228800, Note_on_c, 1, 55, 89
1, 1229056, Note_on_c, 0, 72, 98
1, 1229312, Note_on_c, 0, 67, 0
1, 1229312, Note_on_c, 0, 72, 0
1, 1229312, Note_on_c, 0, 72, 96
1, 1229312, Note_on_c, 0, 76, 96
1, 1229312, Note_on_c, 1, 55, 0
1, 1229568, Note_on_c, 0, 72, 0
1, 1229568, Note_on_c, 0, 76, 0
1, 1229568, Note_on_c, 0, 76, 95
1, 1229568, Note_on_c, 0, 79, 95
1, 1229824, Note_on_c, 0, 76, 0
1, 1229824, Note_on_c, 0, 79, 0
1, 1229824, Note_on_c, 0, 76, 97
1, 1229824, Note_on_c, 0, 79, 97
1, 1229824, Note_on_c, 1, 43, 89
1, 1230080, Note_on_c, 0, 76, 0
1, 1230080, Note_on_c, 0, 79, 0
1, 1230080, Note_on_c, 0, 74, 92
1, 1230080, Note_on_c, 0, 77, 92
1, 1230336, Note_on_c, 0, 74, 0
1, 1230336, Note_on_c, 0, 77, 0
1, 1230336, Note_on_c, 0, 72, 90
1, 1230336, Note_on_c, 0, 76, 90
1, 1230336, Note_on_c, 1, 43, 0
1, 1230374, Note_on_c, 0, 72, 0
1, 1230413, Note_on_c, 0, 76, 0
1, 1230592, Note_on_c, 0, 71, 89
1, 1230592, Note_on_c, 0, 74, 89
1, 1230630, Note_on_c, 0, 71, 0
1, 1230669, Note_on_c, 0, 74, 0
1, 1230848, Note_on_c, 0, 72, 89
1, 1230848, Note_on_c, 1, 60, 89
1, 1230925, Note_on_c, 0, 72, 0
1, 1230925, Note_on_c, 1, 60, 0
1, 1231104, Note_on_c, 0, 76, 89
1, 1231104, Note_on_c, 1, 64, 89
1, 1231181, Note_on_c, 0, 76, 0
1, 1231181, Note_on_c, 1, 64, 0
1, 1231360, Note_on_c, 0, 67, 91
1, 1231360, Note_on_c, 1, 55, 89
1, 1231437, Note_on_c, 0, 67, 0
1, 1231437, Note_on_c, 1, 55, 0
1, 1231616, Note_on_c, 0, 76, 92
1, 1231616, Note_on_c, 1, 60, 89
1, 1231693, Note_on_c, 0, 76, 0
1, 1231693, Note_on_c, 1, 60, 0
1, 1231872, Note_on_c, 0, 64, 94
1, 1231872, Note_on_c, 1, 52, 89
1, 1231949, Note_on_c, 0, 64, 0
1, 1231949, Note_on_c, 1, 52, 0
1, 1232128, Note_on_c, 0, 67, 95
1, 1232128, Note_on_c, 1, 55, 89
1, 1232205, Note_on_c, 0, 67, 0
1, 1232205, Note_on_c, 1, 55, 0
1, 1232384, Note_on_c, 0, 60, 97
1, 1232384, Note_on_c, 1, 48, 89
1, 1232461, Note_on_c, 0, 60, 0
1, 1232461, Note_on_c, 1, 48, 0
1, 1232640, Note_on_c, 0, 64, 98
1, 1232640, Note_on_c, 1, 52, 89
1, 1232717, Note_on_c, 0, 64, 0
1, 1232717, Note_on_c, 1, 52, 0
1, 1232896, Note_on_c, 0, 67, 95
1, 1232896, Note_on_c, 1, 55, 89
1, 1233152, Note_on_c, 0, 72, 98
1, 1233408, Note_on_c, 0, 67, 0
1, 1233408, Note_on_c, 0, 72, 0
1, 1233408, Note_on_c, 0, 72, 96
1, 1233408, Note_on_c, 0, 76, 96
1, 1233408, Note_on_c, 1, 55, 0
1, 1233446, Note_on_c, 0, 72, 0
1, 1233485, Note_on_c, 0, 76, 0
1, 1233664, Note_on_c, 0, 76, 95
1, 1233664, Note_on_c, 0, 79, 95
1, 1233702, Note_on_c, 0, 76, 0
1, 1233741, Note_on_c, 0, 79, 0
1, 1233920, Note_on_c, 0, 76, 97
1, 1233920, Note_on_c, 0, 79, 97
1, 1233920, Note_on_c, 1, 43, 89
1, 1234176, Note_on_c, 0, 76, 0
1, 1234176, Note_on_c, 0, 79, 0
1, 1234176, Note_on_c, 0, 74, 92
1, 1234176, Note_on_c, 0, 77, 92
1, 1234432, Note_on_c, 0, 74, 0
1, 1234432, Note_on_c, 0, 77, 0
1, 1234432, Note_on_c, 0, 72, 90
1, 1234432, Note_on_c, 0, 76, 90
1, 1234432, Note_on_c, 1, 43, 0
1, 1234470, Note_on_c, 0, 72, 0
1, 1234509, Note_on_c, 0, 76, 0
1, 1234688, Note_on_c, 0, 71, 89
1, 1234688, Note_on_c, 0, 74, 89
1, 1234726, Note_on_c, 0, 71, 0
1, 1234765, Note_on_c, 0, 74, 0
1, 1234944, Note_on_c, 0, 72, 89
1, 1234944, Note_on_c, 1, 36, 83
1, 1234944, Note_on_c, 1, 48, 83
1, 1235021, Note_on_c, 1, 36, 0
1, 1235098, Note_on_c, 0, 72, 0
1, 1235098, Note_on_c, 1, 48, 0
1, 1235456, Note_on_c, 0, 76, 94
1, 1235456, Note_on_c, 0, 79, 94
1, 1235456, Note_on_c, 0, 84, 94
1, 1235456, Note_on_c, 1, 40, 83
1, 1235456, Note_on_c, 1, 52, 83
1, 1235507, Note_on_c, 0, 76, 0
1, 1235533, Note_on_c, 1, 40, 0
1, 1235558, Note_on_c, 0, 79, 0
1, 1235610, Note_on_c, 0, 84, 0
1, 1235610, Note_on_c, 1, 52, 0
1, 1235968, Note_on_c, 0, 64, 94
1, 1235968, Note_on_c, 0, 72, 94
1, 1235968, Note_on_c, 1, 43, 88
1, 1235968, Note_on_c, 1, 55, 88
1, 1236045, Note_on_c, 0, 64, 0
1, 1236045, Note_on_c, 1, 43, 0
1, 1236122, Note_on_c, 0, 72, 0
1, 1236122, Note_on_c, 1, 55, 0
1, 1236480, Note_on_c, 0, 64, 98
1, 1236480, Note_on_c, 0, 72, 98
1, 1236480, Note_on_c, 1, 40, 92
1, 1236480, Note_on_c, 1, 52, 92
1, 1236557, Note_on_c, 0, 64, 0
1, 1236557, Note_on_c, 1, 40, 0
1, 1236634, Note_on_c, 0, 72, 0
1, 1236634, Note_on_c, 1, 52, 0
1, 1236992, Note_on_c, 0, 64, 103
1, 1236992, Note_on_c, 0, 72, 103
1, 1236992, Note_on_c, 1, 36, 97
1, 1236992, Note_on_c, 1, 48, 97
1, 1238016, Note_on_c, 0, 64, 0
1, 1238016, Note_on_c, 0, 72, 0
1, 1238016, Note_on_c, 1, 36, 0
1, 1238016, Note_on_c, 1, 48, 0
1, 1238026, End_track
0, 0, End_of_file