0, 0, Header, 0, 1, 96
1, 0, Start_track
1, 0, Tempo, 722891
1, 0, Note_on_c, 0, 59, 64
1, 12, Note_on_c, 0, 59, 0
1, 12, Note_on_c, 0, 58, 64
1, 24, Note_on_c, 0, 58, 0
1, 24, Note_on_c, 0, 59, 64
1, 48, Note_on_c, 1, 47, 64
1, 68, Note_on_c, 1, 47, 0
1, 96, Note_on_c, 1, 50, 64
1, 116, Note_on_c, 1, 50, 0
1, 144, Note_on_c, 1, 47, 64
1, 164, Note_on_c, 1, 47, 0
1, 179, Note_on_c, 0, 59, 0
1, 192, Note_on_c, 0, 66, 64
1, 204, Note_on_c, 0, 66, 0
1, 204, Note_on_c, 0, 65, 64
1, 216, Note_on_c, 0, 65, 0
1, 216, Note_on_c, 0, 66, 64
1, 240, Note_on_c, 1, 46, 64
1, 260, Note_on_c, 1, 46, 0
1, 288, Note_on_c, 1, 49, 64
1, 308, Note_on_c, 1, 49, 0
1, 336, Note_on_c, 1, 42, 64
1, 356, Note_on_c, 1, 42, 0
1, 371, Note_on_c, 0, 66, 0
1, 384, Note_on_c, 0, 71, 64
1, 396, Note_on_c, 0, 71, 0
1, 396, Note_on_c, 0, 70, 64
1, 408, Note_on_c, 0, 70, 0
1, 408, Note_on_c, 0, 71, 64
1, 432, Note_on_c, 1, 43, 64
1, 452, Note_on_c, 1, 43, 0
1, 480, Note_on_c, 1, 42, 64
1, 500, Note_on_c, 1, 42, 0
1, 521, Note_on_c, 0, 71, 0
1, 528, Note_on_c, 0, 73, 64
1, 528, Note_on_c, 1, 40, 64
1, 548, Note_on_c, 1, 40, 0
1, 562, Note_on_c, 0, 73, 0
1, 564, Note_on_c, 0, 74, 64
1, 576, Note_on_c, 0, 74, 0
1, 576, Note_on_c, 0, 71, 64
1, 576, Note_on_c, 1, 38, 64
1, 615, Note_on_c, 1, 38, 0
1, 621, Note_on_c, 0, 71, 0
1, 624, Note_on_c, 0, 78, 64
1, 644, Note_on_c, 0, 78, 0
1, 672, Note_on_c, 0, 78, 64
1, 692, Note_on_c, 0, 78, 0
1, 720, Note_on_c, 0, 78, 64
1, 740, Note_on_c, 0, 78, 0
1, 768, Note_on_c, 0, 78, 64
1, 816, Note_on_c, 1, 61, 64
1, 816, Note_on_c, 1, 58, 64
1, 861, Note_on_c, 1, 61, 0
1, 861, Note_on_c, 1, 58, 0
1, 864, Note_on_c, 1, 61, 64
1, 864, Note_on_c, 1, 58, 64
1, 887, Note_on_c, 0, 78, 0
1, 888, Note_on_c, 0, 79, 64
1, 894, Note_on_c, 0, 79, 0
1, 894, Note_on_c, 0, 78, 64
1, 900, Note_on_c, 0, 78, 0
1, 900, Note_on_c, 0, 76, 64
1, 906, Note_on_c, 0, 76, 0
1, 906, Note_on_c, 0, 78, 64
1, 909, Note_on_c, 1, 61, 0
1, 909, Note_on_c, 1, 58, 0
1, 912, Note_on_c, 0, 78, 0
1, 912, Note_on_c, 0, 79, 64
1, 912, Note_on_c, 1, 61, 64
1, 912, Note_on_c, 1, 58, 64
1, 946, Note_on_c, 0, 79, 0
1, 948, Note_on_c, 0, 76, 64
1, 957, Note_on_c, 1, 61, 0
1, 957, Note_on_c, 1, 58, 0
1, 960, Note_on_c, 0, 76, 0
1, 960, Note_on_c, 0, 76, 64
1, 1008, Note_on_c, 1, 66, 64
1, 1008, Note_on_c, 1, 59, 64
1, 1053, Note_on_c, 1, 66, 0
1, 1053, Note_on_c, 1, 59, 0
1, 1056, Note_on_c, 0, 76, 0
1, 1056, Note_on_c, 0, 74, 64
1, 1056, Note_on_c, 1, 66, 64
1, 1056, Note_on_c, 1, 59, 64
1, 1068, Note_on_c, 0, 74, 0
1, 1068, Note_on_c, 0, 76, 64
1, 1080, Note_on_c, 0, 76, 0
1, 1080, Note_on_c, 0, 74, 64
1, 1101, Note_on_c, 0, 74, 0
1, 1101, Note_on_c, 1, 66, 0
1, 1101, Note_on_c, 1, 59, 0
1, 1104, Note_on_c, 0, 78, 64
1, 1104, Note_on_c, 1, 62, 64
1, 1138, Note_on_c, 0, 78, 0
1, 1140, Note_on_c, 0, 71, 64
1, 1149, Note_on_c, 1, 62, 0
1, 1152, Note_on_c, 0, 71, 0
1, 1152, Note_on_c, 0, 74, 64
1, 1152, Note_on_c, 1, 64, 64
1, 1164, Note_on_c, 0, 74, 0
1, 1164, Note_on_c, 0, 73, 64
1, 1176, Note_on_c, 0, 73, 0
1, 1176, Note_on_c, 0, 71, 64
1, 1188, Note_on_c, 0, 71, 0
1, 1188, Note_on_c, 0, 73, 64
1, 1197, Note_on_c, 1, 64, 0
1, 1200, Note_on_c, 0, 73, 0
1, 1200, Note_on_c, 0, 71, 64
1, 1200, Note_on_c, 1, 62, 64
1, 1245, Note_on_c, 0, 71, 0
1, 1245, Note_on_c, 1, 62, 0
1, 1248, Note_on_c, 0, 74, 64
1, 1248, Note_on_c, 1, 64, 64
1, 1271, Note_on_c, 0, 74, 0
1, 1272, Note_on_c, 0, 73, 64
1, 1293, Note_on_c, 1, 64, 0
1, 1295, Note_on_c, 0, 73, 0
1, 1296, Note_on_c, 0, 71, 64
1, 1296, Note_on_c, 1, 66, 64
1, 1319, Note_on_c, 0, 71, 0
1, 1320, Note_on_c, 0, 70, 64
1, 1341, Note_on_c, 1, 66, 0
1, 1343, Note_on_c, 0, 70, 0
1, 1344, Note_on_c, 0, 71, 64
1, 1344, Note_on_c, 1, 67, 64
1, 1433, Note_on_c, 0, 71, 0
1, 1433, Note_on_c, 1, 67, 0
1, 1488, Note_on_c, 0, 83, 64
1, 1512, Note_on_c, 0, 83, 0
1, 1512, Note_on_c, 0, 79, 64
1, 1535, Note_on_c, 0, 79, 0
1, 1536, Note_on_c, 0, 78, 64
1, 1559, Note_on_c, 0, 78, 0
1, 1560, Note_on_c, 0, 76, 64
1, 1583, Note_on_c, 0, 76, 0
1, 1584, Note_on_c, 0, 75, 64
1, 1607, Note_on_c, 0, 75, 0
1, 1608, Note_on_c, 0, 76, 64
1, 1631, Note_on_c, 0, 76, 0
1, 1632, Note_on_c, 0, 78, 64
1, 1656, Note_on_c, 0, 78, 0
1, 1656, Note_on_c, 0, 76, 64
1, 1679, Note_on_c, 0, 76, 0
1, 1680, Note_on_c, 0, 79, 64
1, 1704, Note_on_c, 0, 79, 0
1, 1704, Note_on_c, 0, 76, 64
1, 1727, Note_on_c, 0, 76, 0
1, 1728, Note_on_c, 0, 70, 64
1, 1728, Note_on_c, 1, 67, 64
1, 1728, Note_on_c, 1, 64, 64
1, 1824, Note_on_c, 0, 70, 0
1, 1824, Note_on_c, 0, 71, 64
1, 1824, Note_on_c, 1, 67, 0
1, 1824, Note_on_c, 1, 64, 0
1, 1824, Note_on_c, 1, 66, 64
1, 1824, Note_on_c, 1, 62, 64
1, 1844, Note_on_c, 0, 71, 0
1, 1869, Note_on_c, 1, 66, 0
1, 1869, Note_on_c, 1, 62, 0
1, 1872, Note_on_c, 0, 83, 64
1, 1896, Note_on_c, 0, 83, 0
1, 1896, Note_on_c, 0, 79, 64
1, 1919, Note_on_c, 0, 79, 0
1, 1920, Note_on_c, 0, 78, 64
1, 1943, Note_on_c, 0, 78, 0
1, 1944, Note_on_c, 0, 76, 64
1, 1967, Note_on_c, 0, 76, 0
1, 1968, Note_on_c, 0, 75, 64
1, 1991, Note_on_c, 0, 75, 0
1, 1992, Note_on_c, 0, 76, 64
1, 2015, Note_on_c, 0, 76, 0
1, 2016, Note_on_c, 0, 78, 64
1, 2040, Note_on_c, 0, 78, 0
1, 2040, Note_on_c, 0, 76, 64
1, 2063, Note_on_c, 0, 76, 0
1, 2064, Note_on_c, 0, 79, 64
1, 2088, Note_on_c, 0, 79, 0
1, 2088, Note_on_c, 0, 76, 64
1, 2111, Note_on_c, 0, 76, 0
1, 2112, Note_on_c, 0, 70, 64
1, 2112, Note_on_c, 1, 67, 64
1, 2112, Note_on_c, 1, 64, 64
1, 2208, Note_on_c, 0, 70, 0
1, 2208, Note_on_c, 0, 71, 64
1, 2208, Note_on_c, 1, 67, 0
1, 2208, Note_on_c, 1, 64, 0
1, 2208, Note_on_c, 1, 66, 64
1, 2208, Note_on_c, 1, 62, 64
1, 2228, Note_on_c, 0, 71, 0
1, 2253, Note_on_c, 1, 66, 0
1, 2253, Note_on_c, 1, 62, 0
1, 2256, Note_on_c, 0, 83, 64
1, 2280, Note_on_c, 0, 83, 0
1, 2280, Note_on_c, 0, 79, 64
1, 2303, Note_on_c, 0, 79, 0
1, 2304, Note_on_c, 0, 78, 64
1, 2327, Note_on_c, 0, 78, 0
1, 2328, Note_on_c, 0, 76, 64
1, 2351, Note_on_c, 0, 76, 0
1, 2352, Note_on_c, 0, 75, 64
1, 2375, Note_on_c, 0, 75, 0
1, 2376, Note_on_c, 0, 76, 64
1, 2399, Note_on_c, 0, 76, 0
1, 2400, Note_on_c, 0, 78, 64
1, 2424, Note_on_c, 0, 78, 0
1, 2424, Note_on_c, 0, 76, 64
1, 2447, Note_on_c, 0, 76, 0
1, 2448, Note_on_c, 0, 79, 64
1, 2472, Note_on_c, 0, 79, 0
1, 2472, Note_on_c, 0, 76, 64
1, 2495, Note_on_c, 0, 76, 0
1, 2496, Note_on_c, 0, 82, 64
1, 2496, Note_on_c, 0, 73, 64
1, 2496, Note_on_c, 1, 67, 64
1, 2496, Note_on_c, 1, 64, 64
1, 2592, Note_on_c, 0, 82, 0
1, 2592, Note_on_c, 0, 73, 0
1, 2592, Note_on_c, 0, 83, 64
1, 2592, Note_on_c, 0, 74, 64
1, 2592, Note_on_c, 1, 67, 0
1, 2592, Note_on_c, 1, 64, 0
1, 2592, Note_on_c, 1, 66, 64
1, 2592, Note_on_c, 1, 62, 64
1, 2612, Note_on_c, 0, 83, 0
1, 2612, Note_on_c, 0, 74, 0
1, 2637, Note_on_c, 1, 66, 0
1, 2637, Note_on_c, 1, 62, 0
1, 2640, Note_on_c, 0, 79, 64
1, 2640, Note_on_c, 0, 76, 64
1, 2640, Note_on_c, 1, 64, 64
1, 2652, Note_on_c, 0, 79, 0
1, 2652, Note_on_c, 0, 78, 64
1, 2664, Note_on_c, 0, 78, 0
1, 2664, Note_on_c, 0, 79, 64
1, 2685, Note_on_c, 0, 79, 0
1, 2685, Note_on_c, 0, 76, 0
1, 2685, Note_on_c, 1, 64, 0
1, 2688, Note_on_c, 0, 78, 64
1, 2688, Note_on_c, 0, 74, 64
1, 2688, Note_on_c, 1, 66, 64
1, 2733, Note_on_c, 0, 78, 0
1, 2733, Note_on_c, 0, 74, 0
1, 2736, Note_on_c, 0, 76, 64
1, 2736, Note_on_c, 0, 73, 64
1, 2777, Note_on_c, 1, 66, 0
1, 2781, Note_on_c, 0, 76, 0
1, 2781, Note_on_c, 0, 73, 0
1, 2784, Note_on_c, 0, 74, 64
1, 2784, Note_on_c, 0, 71, 64
1, 2784, Note_on_c, 1, 54, 64
1, 2796, Note_on_c, 0, 74, 0
1, 2796, Note_on_c, 0, 76, 64
1, 2808, Note_on_c, 0, 76, 0
1, 2808, Note_on_c, 0, 74, 64
1, 2829, Note_on_c, 0, 74, 0
1, 2829, Note_on_c, 0, 71, 0
1, 2832, Note_on_c, 0, 73, 64
1, 2832, Note_on_c, 0, 70, 64
1, 2873, Note_on_c, 1, 54, 0
1, 2877, Note_on_c, 0, 73, 0
1, 2877, Note_on_c, 0, 70, 0
1, 2880, Note_on_c, 0, 71, 64
1, 2880, Note_on_c, 1, 59, 64
1, 2880, Note_on_c, 1, 47, 64
1, 2892, Note_on_c, 0, 71, 0
1, 2892, Note_on_c, 0, 73, 64
1, 2904, Note_on_c, 0, 73, 0
1, 2904, Note_on_c, 0, 71, 64
1, 2969, Note_on_c, 0, 71, 0
1, 2969, Note_on_c, 1, 59, 0
1, 2969, Note_on_c, 1, 47, 0
1, 3072, Note_on_c, 0, 59, 64
1, 3084, Note_on_c, 0, 59, 0
1, 3084, Note_on_c, 0, 58, 64
1, 3096, Note_on_c, 0, 58, 0
1, 3096, Note_on_c, 0, 59, 64
1, 3120, Note_on_c, 1, 47, 64
1, 3140, Note_on_c, 1, 47, 0
1, 3168, Note_on_c, 1, 50, 64
1, 3188, Note_on_c, 1, 50, 0
1, 3216, Note_on_c, 1, 47, 64
1, 3236, Note_on_c, 1, 47, 0
1, 3251, Note_on_c, 0, 59, 0
1, 3264, Note_on_c, 0, 66, 64
1, 3276, Note_on_c, 0, 66, 0
1, 3276, Note_on_c, 0, 65, 64
1, 3288, Note_on_c, 0, 65, 0
1, 3288, Note_on_c, 0, 66, 64
1, 3312, Note_on_c, 1, 46, 64
1, 3332, Note_on_c, 1, 46, 0
1, 3360, Note_on_c, 1, 49, 64
1, 3380, Note_on_c, 1, 49, 0
1, 3408, Note_on_c, 1, 42, 64
1, 3428, Note_on_c, 1, 42, 0
1, 3443, Note_on_c, 0, 66, 0
1, 3456, Note_on_c, 0, 71, 64
1, 3504, Note_on_c, 1, 43, 64
1, 3524, Note_on_c, 1, 43, 0
1, 3552, Note_on_c, 1, 42, 64
1, 3572, Note_on_c, 1, 42, 0
1, 3589, Note_on_c, 0, 71, 0
1, 3600, Note_on_c, 0, 73, 64
1, 3600, Note_on_c, 1, 40, 64
1, 3620, Note_on_c, 1, 40, 0
1, 3634, Note_on_c, 0, 73, 0
1, 3636, Note_on_c, 0, 74, 64
1, 3648, Note_on_c, 0, 74, 0
1, 3648, Note_on_c, 0, 71, 64
1, 3648, Note_on_c, 1, 38, 64
1, 3668, Note_on_c, 0, 71, 0
1, 3687, Note_on_c, 1, 38, 0
1, 3696, Note_on_c, 0, 73, 64
1, 3730, Note_on_c, 0, 73, 0
1, 3732, Note_on_c, 0, 74, 64
1, 3744, Note_on_c, 0, 74, 0
1, 3744, Note_on_c, 0, 71, 64
1, 3764, Note_on_c, 0, 71, 0
1, 3792, Note_on_c, 0, 73, 64
1, 3826, Note_on_c, 0, 73, 0
1, 3828, Note_on_c, 0, 74, 64
1, 3840, Note_on_c, 0, 74, 0
1, 3840, Note_on_c, 0, 71, 64
1, 3888, Note_on_c, 1, 55, 64
1, 3936, Note_on_c, 1, 55, 0
1, 3936, Note_on_c, 1, 67, 64
1, 3973, Note_on_c, 0, 71, 0
1, 3981, Note_on_c, 1, 67, 0
1, 3984, Note_on_c, 0, 73, 64
1, 4018, Note_on_c, 0, 73, 0
1, 4020, Note_on_c, 0, 74, 64
1, 4032, Note_on_c, 0, 74, 0
1, 4032, Note_on_c, 0, 69, 64
1, 4080, Note_on_c, 1, 54, 64
1, 4125, Note_on_c, 1, 54, 0
1, 4128, Note_on_c, 1, 66, 64
1, 4162, Note_on_c, 0, 69, 0
1, 4164, Note_on_c, 0, 74, 64
1, 4176, Note_on_c, 0, 74, 0
1, 4176, Note_on_c, 0, 78, 64
1, 4210, Note_on_c, 0, 78, 0
1, 4212, Note_on_c, 0, 81, 64
1, 4224, Note_on_c, 0, 81, 0
1, 4224, Note_on_c, 0, 79, 64
1, 4224, Note_on_c, 1, 66, 0
1, 4224, Note_on_c, 1, 64, 64
1, 4258, Note_on_c, 0, 79, 0
1, 4260, Note_on_c, 0, 83, 64
1, 4269, Note_on_c, 1, 64, 0
1, 4272, Note_on_c, 0, 83, 0
1, 4272, Note_on_c, 0, 76, 64
1, 4272, Note_on_c, 1, 61, 64
1, 4306, Note_on_c, 0, 76, 0
1, 4308, Note_on_c, 0, 79, 64
1, 4317, Note_on_c, 1, 61, 0
1, 4320, Note_on_c, 0, 79, 0
1, 4320, Note_on_c, 0, 78, 64
1, 4320, Note_on_c, 1, 62, 64
1, 4320, Note_on_c, 1, 62, 64
1, 4354, Note_on_c, 0, 78, 0
1, 4356, Note_on_c, 0, 74, 64
1, 4365, Note_on_c, 1, 62, 0
1, 4368, Note_on_c, 0, 74, 0
1, 4368, Note_on_c, 0, 86, 64
1, 4368, Note_on_c, 1, 56, 64
1, 4402, Note_on_c, 0, 86, 0
1, 4404, Note_on_c, 0, 78, 64
1, 4413, Note_on_c, 1, 56, 0
1, 4416, Note_on_c, 0, 78, 0
1, 4416, Note_on_c, 0, 79, 64
1, 4416, Note_on_c, 1, 57, 64
1, 4424, Note_on_c, 0, 79, 0
1, 4424, Note_on_c, 0, 78, 64
1, 4432, Note_on_c, 0, 78, 0
1, 4432, Note_on_c, 0, 79, 64
1, 4440, Note_on_c, 0, 79, 0
1, 4440, Note_on_c, 0, 78, 64
1, 4448, Note_on_c, 0, 78, 0
1, 4448, Note_on_c, 0, 76, 64
1, 4456, Note_on_c, 0, 76, 0
1, 4456, Note_on_c, 0, 78, 64
1, 4461, Note_on_c, 1, 62, 0
1, 4464, Note_on_c, 0, 78, 0
1, 4464, Note_on_c, 0, 76, 64
1, 4464, Note_on_c, 1, 61, 64
1, 4505, Note_on_c, 1, 57, 0
1, 4509, Note_on_c, 0, 76, 0
1, 4509, Note_on_c, 1, 61, 0
1, 4608, Note_on_c, 1, 38, 84
1, 4608, Note_on_c, 1, 50, 64
1, 4614, Note_on_c, 1, 42, 84
1, 4620, Note_on_c, 1, 45, 84
1, 4626, Note_on_c, 1, 50, 84
1, 4655, Note_on_c, 1, 50, 0
1, 4655, Note_on_c, 1, 45, 0
1, 4655, Note_on_c, 1, 42, 0
1, 4655, Note_on_c, 1, 38, 0
1, 4656, Note_on_c, 0, 74, 64
1, 4656, Note_on_c, 1, 50, 84
1, 4680, Note_on_c, 0, 74, 0
1, 4680, Note_on_c, 0, 62, 64
1, 4701, Note_on_c, 1, 50, 0
1, 4703, Note_on_c, 0, 62, 0
1, 4704, Note_on_c, 0, 73, 64
1, 4704, Note_on_c, 1, 52, 84
1, 4728, Note_on_c, 0, 73, 0
1, 4728, Note_on_c, 0, 62, 64
1, 4749, Note_on_c, 1, 52, 0
1, 4751, Note_on_c, 0, 62, 0
1, 4752, Note_on_c, 0, 72, 64
1, 4752, Note_on_c, 1, 54, 84
1, 4776, Note_on_c, 0, 72, 0
1, 4776, Note_on_c, 0, 62, 64
1, 4797, Note_on_c, 1, 54, 0
1, 4799, Note_on_c, 0, 62, 0
1, 4800, Note_on_c, 0, 71, 64
1, 4800, Note_on_c, 1, 55, 84
1, 4824, Note_on_c, 0, 71, 0
1, 4824, Note_on_c, 0, 62, 64
1, 4845, Note_on_c, 1, 55, 0
1, 4847, Note_on_c, 0, 62, 0
1, 4848, Note_on_c, 0, 70, 64
1, 4848, Note_on_c, 1, 54, 84
1, 4872, Note_on_c, 0, 70, 0
1, 4872, Note_on_c, 0, 62, 64
1, 4893, Note_on_c, 1, 54, 0
1, 4895, Note_on_c, 0, 62, 0
1, 4896, Note_on_c, 0, 71, 64
1, 4896, Note_on_c, 1, 55, 84
1, 4920, Note_on_c, 0, 71, 0
1, 4920, Note_on_c, 0, 62, 64
1, 4941, Note_on_c, 1, 55, 0
1, 4943, Note_on_c, 0, 62, 0
1, 4944, Note_on_c, 0, 67, 64
1, 4944, Note_on_c, 1, 59, 84
1, 4962, Note_on_c, 1, 50, 0
1, 4968, Note_on_c, 0, 67, 0
1, 4968, Note_on_c, 0, 62, 64
1, 4989, Note_on_c, 1, 59, 0
1, 4991, Note_on_c, 0, 62, 0
1, 4992, Note_on_c, 0, 66, 64
1, 4992, Note_on_c, 1, 38, 84
1, 4992, Note_on_c, 1, 50, 64
1, 4998, Note_on_c, 1, 42, 84
1, 5004, Note_on_c, 1, 45, 84
1, 5010, Note_on_c, 1, 50, 84
1, 5016, Note_on_c, 0, 66, 0
1, 5016, Note_on_c, 0, 62, 64
1, 5039, Note_on_c, 0, 62, 0
1, 5039, Note_on_c, 1, 50, 0
1, 5039, Note_on_c, 1, 45, 0
1, 5039, Note_on_c, 1, 42, 0
1, 5039, Note_on_c, 1, 38, 0
1, 5040, Note_on_c, 0, 74, 64
1, 5040, Note_on_c, 1, 50, 84
1, 5064, Note_on_c, 0, 74, 0
1, 5064, Note_on_c, 0, 62, 64
1, 5085, Note_on_c, 1, 50, 0
1, 5087, Note_on_c, 0, 62, 0
1, 5088, Note_on_c, 0, 73, 64
1, 5088, Note_on_c, 1, 52, 84
1, 5112, Note_on_c, 0, 73, 0
1, 5112, Note_on_c, 0, 62, 64
1, 5133, Note_on_c, 1, 52, 0
1, 5135, Note_on_c, 0, 62, 0
1, 5136, Note_on_c, 0, 72, 64
1, 5136, Note_on_c, 1, 54, 84
1, 5160, Note_on_c, 0, 72, 0
1, 5160, Note_on_c, 0, 62, 64
1, 5181, Note_on_c, 1, 54, 0
1, 5183, Note_on_c, 0, 62, 0
1, 5184, Note_on_c, 0, 71, 64
1, 5184, Note_on_c, 1, 55, 84
1, 5208, Note_on_c, 0, 71, 0
1, 5208, Note_on_c, 0, 62, 64
1, 5229, Note_on_c, 1, 55, 0
1, 5231, Note_on_c, 0, 62, 0
1, 5232, Note_on_c, 0, 70, 64
1, 5232, Note_on_c, 1, 54, 84
1, 5256, Note_on_c, 0, 70, 0
1, 5256, Note_on_c, 0, 62, 64
1, 5277, Note_on_c, 1, 54, 0
1, 5279, Note_on_c, 0, 62, 0
1, 5280, Note_on_c, 0, 71, 64
1, 5280, Note_on_c, 1, 55, 84
1, 5304, Note_on_c, 0, 71, 0
1, 5304, Note_on_c, 0, 62, 64
1, 5325, Note_on_c, 1, 55, 0
1, 5327, Note_on_c, 0, 62, 0
1, 5328, Note_on_c, 0, 67, 64
1, 5328, Note_on_c, 1, 59, 84
1, 5346, Note_on_c, 1, 50, 0
1, 5352, Note_on_c, 0, 67, 0
1, 5352, Note_on_c, 0, 62, 64
1, 5373, Note_on_c, 1, 59, 0
1, 5375, Note_on_c, 0, 62, 0
1, 5376, Note_on_c, 0, 66, 64
1, 5376, Note_on_c, 1, 38, 84
1, 5376, Note_on_c, 1, 50, 64
1, 5382, Note_on_c, 1, 42, 84
1, 5388, Note_on_c, 1, 45, 84
1, 5394, Note_on_c, 1, 50, 84
1, 5400, Note_on_c, 0, 66, 0
1, 5400, Note_on_c, 0, 62, 64
1, 5423, Note_on_c, 0, 62, 0
1, 5423, Note_on_c, 1, 50, 0
1, 5423, Note_on_c, 1, 45, 0
1, 5423, Note_on_c, 1, 42, 0
1, 5423, Note_on_c, 1, 38, 0
1, 5424, Note_on_c, 0, 74, 64
1, 5424, Note_on_c, 1, 50, 78
1, 5448, Note_on_c, 0, 74, 0
1, 5448, Note_on_c, 0, 62, 64
1, 5469, Note_on_c, 1, 50, 0
1, 5471, Note_on_c, 0, 62, 0
1, 5472, Note_on_c, 0, 73, 64
1, 5472, Note_on_c, 1, 52, 78
1, 5496, Note_on_c, 0, 73, 0
1, 5496, Note_on_c, 0, 62, 64
1, 5517, Note_on_c, 1, 52, 0
1, 5519, Note_on_c, 0, 62, 0
1, 5520, Note_on_c, 0, 72, 64
1, 5520, Note_on_c, 1, 54, 78
1, 5544, Note_on_c, 0, 72, 0
1, 5544, Note_on_c, 0, 62, 64
1, 5565, Note_on_c, 1, 54, 0
1, 5567, Note_on_c, 0, 62, 0
1, 5568, Note_on_c, 0, 71, 64
1, 5568, Note_on_c, 1, 55, 78
1, 5592, Note_on_c, 0, 71, 0
1, 5592, Note_on_c, 0, 62, 64
1, 5613, Note_on_c, 1, 55, 0
1, 5615, Note_on_c, 0, 62, 0
1, 5616, Note_on_c, 0, 70, 64
1, 5616, Note_on_c, 1, 54, 78
1, 5640, Note_on_c, 0, 70, 0
1, 5640, Note_on_c, 0, 62, 64
1, 5661, Note_on_c, 1, 54, 0
1, 5663, Note_on_c, 0, 62, 0
1, 5664, Note_on_c, 0, 71, 64
1, 5664, Note_on_c, 1, 55, 78
1, 5688, Note_on_c, 0, 71, 0
1, 5688, Note_on_c, 0, 62, 64
1, 5709, Note_on_c, 1, 55, 0
1, 5711, Note_on_c, 0, 62, 0
1, 5712, Note_on_c, 0, 74, 64
1, 5712, Note_on_c, 1, 59, 78
1, 5736, Note_on_c, 0, 74, 0
1, 5736, Note_on_c, 0, 62, 64
1, 5757, Note_on_c, 1, 59, 0
1, 5759, Note_on_c, 0, 62, 0
1, 5760, Note_on_c, 0, 69, 64
1, 5760, Note_on_c, 1, 54, 78
1, 5784, Note_on_c, 0, 69, 0
1, 5784, Note_on_c, 0, 62, 64
1, 5805, Note_on_c, 1, 54, 0
1, 5807, Note_on_c, 0, 62, 0
1, 5808, Note_on_c, 0, 68, 64
1, 5808, Note_on_c, 1, 53, 78
1, 5832, Note_on_c, 0, 68, 0
1, 5832, Note_on_c, 0, 62, 64
1, 5853, Note_on_c, 1, 53, 0
1, 5855, Note_on_c, 0, 62, 0
1, 5856, Note_on_c, 0, 69, 64
1, 5856, Note_on_c, 1, 54, 78
1, 5880, Note_on_c, 0, 69, 0
1, 5880, Note_on_c, 0, 62, 64
1, 5901, Note_on_c, 1, 54, 0
1, 5903, Note_on_c, 0, 62, 0
1, 5904, Note_on_c, 0, 72, 64
1, 5904, Note_on_c, 1, 57, 78
1, 5928, Note_on_c, 0, 72, 0
1, 5928, Note_on_c, 0, 62, 64
1, 5949, Note_on_c, 1, 57, 0
1, 5951, Note_on_c, 0, 62, 0
1, 5952, Note_on_c, 0, 71, 64
1, 5952, Note_on_c, 1, 55, 78
1, 5976, Note_on_c, 0, 71, 0
1, 5976, Note_on_c, 0, 62, 64
1, 5997, Note_on_c, 1, 55, 0
1, 5999, Note_on_c, 0, 62, 0
1, 6000, Note_on_c, 0, 70, 64
1, 6000, Note_on_c, 1, 54, 78
1, 6024, Note_on_c, 0, 70, 0
1, 6024, Note_on_c, 0, 62, 64
1, 6045, Note_on_c, 1, 54, 0
1, 6047, Note_on_c, 0, 62, 0
1, 6048, Note_on_c, 0, 71, 64
1, 6048, Note_on_c, 1, 55, 78
1, 6072, Note_on_c, 0, 71, 0
1, 6072, Note_on_c, 0, 62, 64
1, 6093, Note_on_c, 1, 55, 0
1, 6095, Note_on_c, 0, 62, 0
1, 6096, Note_on_c, 0, 74, 64
1, 6096, Note_on_c, 1, 59, 78
1, 6114, Note_on_c, 1, 50, 0
1, 6120, Note_on_c, 0, 74, 0
1, 6120, Note_on_c, 0, 62, 64
1, 6141, Note_on_c, 1, 59, 0
1, 6143, Note_on_c, 0, 62, 0
1, 6144, Note_on_c, 0, 69, 64
1, 6144, Note_on_c, 1, 54, 78
1, 6144, Note_on_c, 1, 50, 64
1, 6168, Note_on_c, 0, 69, 0
1, 6168, Note_on_c, 0, 62, 64
1, 6189, Note_on_c, 1, 54, 0
1, 6191, Note_on_c, 0, 62, 0
1, 6192, Note_on_c, 0, 68, 64
1, 6192, Note_on_c, 1, 53, 78
1, 6216, Note_on_c, 0, 68, 0
1, 6216, Note_on_c, 0, 62, 64
1, 6237, Note_on_c, 1, 53, 0
1, 6239, Note_on_c, 0, 62, 0
1, 6240, Note_on_c, 0, 69, 64
1, 6240, Note_on_c, 1, 54, 78
1, 6264, Note_on_c, 0, 69, 0
1, 6264, Note_on_c, 0, 62, 64
1, 6285, Note_on_c, 1, 54, 0
1, 6287, Note_on_c, 0, 62, 0
1, 6288, Note_on_c, 0, 72, 64
1, 6288, Note_on_c, 1, 57, 78
1, 6312, Note_on_c, 0, 72, 0
1, 6312, Note_on_c, 0, 62, 64
1, 6321, Note_on_c, 1, 50, 0
1, 6333, Note_on_c, 1, 57, 0
1, 6335, Note_on_c, 0, 62, 0
1, 6336, Note_on_c, 0, 71, 64
1, 6336, Note_on_c, 1, 55, 78
1, 6359, Note_on_c, 1, 55, 0
1, 6360, Note_on_c, 0, 71, 0
1, 6360, Note_on_c, 0, 62, 64
1, 6360, Note_on_c, 1, 59, 78
1, 6383, Note_on_c, 0, 62, 0
1, 6383, Note_on_c, 1, 59, 0
1, 6384, Note_on_c, 0, 71, 64
1, 6384, Note_on_c, 1, 55, 78
1, 6407, Note_on_c, 1, 55, 0
1, 6408, Note_on_c, 0, 71, 0
1, 6408, Note_on_c, 0, 62, 64
1, 6408, Note_on_c, 1, 59, 78
1, 6431, Note_on_c, 0, 62, 0
1, 6431, Note_on_c, 1, 59, 0
1, 6432, Note_on_c, 0, 69, 64
1, 6432, Note_on_c, 1, 54, 78
1, 6455, Note_on_c, 1, 54, 0
1, 6456, Note_on_c, 0, 69, 0
1, 6456, Note_on_c, 0, 63, 64
1, 6456, Note_on_c, 1, 60, 78
1, 6479, Note_on_c, 0, 63, 0
1, 6479, Note_on_c, 1, 60, 0
1, 6480, Note_on_c, 0, 69, 64
1, 6480, Note_on_c, 1, 54, 78
1, 6503, Note_on_c, 1, 54, 0
1, 6504, Note_on_c, 0, 69, 0
1, 6504, Note_on_c, 0, 63, 64
1, 6504, Note_on_c, 1, 60, 78
1, 6527, Note_on_c, 0, 63, 0
1, 6527, Note_on_c, 1, 60, 0
1, 6528, Note_on_c, 0, 67, 64
1, 6528, Note_on_c, 1, 55, 78
1, 6551, Note_on_c, 0, 67, 0
1, 6551, Note_on_c, 1, 55, 0
1, 6552, Note_on_c, 0, 64, 64
1, 6552, Note_on_c, 1, 59, 78
1, 6575, Note_on_c, 0, 64, 0
1, 6575, Note_on_c, 1, 59, 0
1, 6576, Note_on_c, 0, 67, 64
1, 6576, Note_on_c, 1, 55, 78
1, 6599, Note_on_c, 0, 67, 0
1, 6599, Note_on_c, 1, 55, 0
1, 6600, Note_on_c, 0, 64, 64
1, 6600, Note_on_c, 1, 59, 78
1, 6623, Note_on_c, 0, 64, 0
1, 6623, Note_on_c, 1, 59, 0
1, 6624, Note_on_c, 0, 66, 64
1, 6624, Note_on_c, 1, 57, 78
1, 6647, Note_on_c, 0, 66, 0
1, 6647, Note_on_c, 1, 57, 0
1, 6648, Note_on_c, 0, 63, 64
1, 6648, Note_on_c, 1, 60, 78
1, 6671, Note_on_c, 0, 63, 0
1, 6671, Note_on_c, 1, 60, 0
1, 6672, Note_on_c, 0, 66, 64
1, 6672, Note_on_c, 1, 57, 78
1, 6695, Note_on_c, 0, 66, 0
1, 6695, Note_on_c, 1, 57, 0
1, 6696, Note_on_c, 0, 63, 64
1, 6696, Note_on_c, 1, 60, 78
1, 6719, Note_on_c, 0, 63, 0
1, 6719, Note_on_c, 1, 60, 0
1, 6720, Note_on_c, 0, 67, 64
1, 6720, Note_on_c, 1, 55, 78
1, 6743, Note_on_c, 0, 67, 0
1, 6743, Note_on_c, 1, 55, 0
1, 6744, Note_on_c, 0, 64, 64
1, 6744, Note_on_c, 1, 59, 78
1, 6767, Note_on_c, 0, 64, 0
1, 6767, Note_on_c, 1, 59, 0
1, 6768, Note_on_c, 0, 67, 64
1, 6768, Note_on_c, 1, 55, 78
1, 6791, Note_on_c, 0, 67, 0
1, 6791, Note_on_c, 1, 55, 0
1, 6792, Note_on_c, 0, 64, 64
1, 6792, Note_on_c, 1, 59, 78
1, 6815, Note_on_c, 0, 64, 0
1, 6815, Note_on_c, 1, 59, 0
1, 6816, Note_on_c, 0, 66, 64
1, 6816, Note_on_c, 1, 56, 78
1, 6839, Note_on_c, 0, 66, 0
1, 6839, Note_on_c, 1, 56, 0
1, 6840, Note_on_c, 0, 62, 64
1, 6840, Note_on_c, 1, 59, 78
1, 6863, Note_on_c, 0, 62, 0
1, 6863, Note_on_c, 1, 59, 0
1, 6864, Note_on_c, 0, 66, 64
1, 6864, Note_on_c, 1, 56, 78
1, 6887, Note_on_c, 0, 66, 0
1, 6887, Note_on_c, 1, 56, 0
1, 6888, Note_on_c, 0, 62, 64
1, 6888, Note_on_c, 1, 59, 78
1, 6911, Note_on_c, 0, 62, 0
1, 6911, Note_on_c, 1, 59, 0
1, 6912, Note_on_c, 0, 61, 64
1, 6912, Note_on_c, 1, 45, 78
1, 6935, Note_on_c, 1, 45, 0
1, 6936, Note_on_c, 1, 57, 78
1, 6957, Note_on_c, 0, 61, 0
1, 6959, Note_on_c, 1, 57, 0
1, 6960, Note_on_c, 0, 62, 64
1, 6960, Note_on_c, 1, 47, 78
1, 6983, Note_on_c, 1, 47, 0
1, 6984, Note_on_c, 1, 57, 78
1, 7005, Note_on_c, 0, 62, 0
1, 7007, Note_on_c, 1, 57, 0
1, 7008, Note_on_c, 0, 64, 64
1, 7008, Note_on_c, 1, 49, 78
1, 7031, Note_on_c, 1, 49, 0
1, 7032, Note_on_c, 1, 57, 78
1, 7053, Note_on_c, 0, 64, 0
1, 7055, Note_on_c, 1, 57, 0
1, 7056, Note_on_c, 0, 67, 64
1, 7056, Note_on_c, 1, 50, 78
1, 7068, Note_on_c, 0, 67, 0
1, 7068, Note_on_c, 0, 66, 64
1, 7079, Note_on_c, 1, 50, 0
1, 7080, Note_on_c, 0, 66, 0
1, 7080, Note_on_c, 0, 64, 64
1, 7080, Note_on_c, 1, 57, 78
1, 7092, Note_on_c, 0, 64, 0
1, 7092, Note_on_c, 0, 66, 64
1, 7103, Note_on_c, 1, 57, 0
1, 7104, Note_on_c, 0, 66, 0
1, 7104, Note_on_c, 0, 67, 64
1, 7104, Note_on_c, 1, 52, 78
1, 7127, Note_on_c, 1, 52, 0
1, 7128, Note_on_c, 1, 57, 78
1, 7149, Note_on_c, 0, 67, 0
1, 7151, Note_on_c, 1, 57, 0
1, 7152, Note_on_c, 0, 66, 64
1, 7152, Note_on_c, 1, 51, 78
1, 7175, Note_on_c, 1, 51, 0
1, 7176, Note_on_c, 1, 57, 78
1, 7197, Note_on_c, 0, 66, 0
1, 7199, Note_on_c, 1, 57, 0
1, 7200, Note_on_c, 0, 67, 64
1, 7200, Note_on_c, 1, 52, 78
1, 7223, Note_on_c, 1, 52, 0
1, 7224, Note_on_c, 1, 57, 78
1, 7245, Note_on_c, 0, 67, 0
1, 7247, Note_on_c, 1, 57, 0
1, 7248, Note_on_c, 0, 64, 64
1, 7248, Note_on_c, 1, 49, 78
1, 7271, Note_on_c, 1, 49, 0
1, 7272, Note_on_c, 1, 57, 78
1, 7293, Note_on_c, 0, 64, 0
1, 7295, Note_on_c, 1, 57, 0
1, 7296, Note_on_c, 0, 66, 64
1, 7296, Note_on_c, 1, 50, 78
1, 7319, Note_on_c, 0, 66, 0
1, 7320, Note_on_c, 0, 62, 64
1, 7341, Note_on_c, 1, 50, 0
1, 7343, Note_on_c, 0, 62, 0
1, 7344, Note_on_c, 0, 67, 64
1, 7344, Note_on_c, 1, 52, 78
1, 7367, Note_on_c, 0, 67, 0
1, 7368, Note_on_c, 0, 62, 64
1, 7389, Note_on_c, 1, 52, 0
1, 7391, Note_on_c, 0, 62, 0
1, 7392, Note_on_c, 0, 69, 64
1, 7392, Note_on_c, 1, 54, 78
1, 7415, Note_on_c, 0, 69, 0
1, 7416, Note_on_c, 0, 62, 64
1, 7437, Note_on_c, 1, 54, 0
1, 7439, Note_on_c, 0, 62, 0
1, 7440, Note_on_c, 0, 72, 64
1, 7440, Note_on_c, 1, 55, 78
1, 7452, Note_on_c, 0, 72, 0
1, 7452, Note_on_c, 0, 71, 64
1, 7464, Note_on_c, 0, 71, 0
1, 7464, Note_on_c, 0, 69, 64
1, 7464, Note_on_c, 0, 62, 64
1, 7476, Note_on_c, 0, 69, 0
1, 7476, Note_on_c, 0, 71, 64
1, 7485, Note_on_c, 1, 55, 0
1, 7487, Note_on_c, 0, 62, 0
1, 7488, Note_on_c, 0, 71, 0
1, 7488, Note_on_c, 0, 72, 64
1, 7488, Note_on_c, 1, 57, 78
1, 7511, Note_on_c, 0, 72, 0
1, 7512, Note_on_c, 0, 62, 64
1, 7533, Note_on_c, 1, 57, 0
1, 7535, Note_on_c, 0, 62, 0
1, 7536, Note_on_c, 0, 71, 64
1, 7536, Note_on_c, 1, 56, 78
1, 7559, Note_on_c, 0, 71, 0
1, 7560, Note_on_c, 0, 62, 64
1, 7581, Note_on_c, 1, 56, 0
1, 7583, Note_on_c, 0, 62, 0
1, 7584, Note_on_c, 0, 72, 64
1, 7584, Note_on_c, 1, 57, 78
1, 7607, Note_on_c, 0, 72, 0
1, 7608, Note_on_c, 0, 62, 64
1, 7629, Note_on_c, 1, 57, 0
1, 7631, Note_on_c, 0, 62, 0
1, 7632, Note_on_c, 0, 69, 64
1, 7632, Note_on_c, 1, 54, 78
1, 7655, Note_on_c, 0, 69, 0
1, 7656, Note_on_c, 0, 62, 64
1, 7677, Note_on_c, 1, 54, 0
1, 7679, Note_on_c, 0, 62, 0
1, 7680, Note_on_c, 0, 71, 64
1, 7680, Note_on_c, 1, 55, 78
1, 7703, Note_on_c, 0, 71, 0
1, 7704, Note_on_c, 0, 62, 64
1, 7725, Note_on_c, 1, 55, 0
1, 7727, Note_on_c, 0, 62, 0
1, 7728, Note_on_c, 0, 70, 64
1, 7728, Note_on_c, 1, 54, 78
1, 7751, Note_on_c, 0, 70, 0
1, 7752, Note_on_c, 0, 62, 64
1, 7773, Note_on_c, 1, 54, 0
1, 7775, Note_on_c, 0, 62, 0
1, 7776, Note_on_c, 0, 71, 64
1, 7776, Note_on_c, 1, 55, 78
1, 7799, Note_on_c, 0, 71, 0
1, 7800, Note_on_c, 0, 62, 64
1, 7821, Note_on_c, 1, 55, 0
1, 7823, Note_on_c, 0, 62, 0
1, 7824, Note_on_c, 0, 74, 64
1, 7824, Note_on_c, 1, 67, 78
1, 7836, Note_on_c, 0, 74, 0
1, 7836, Note_on_c, 0, 73, 64
1, 7848, Note_on_c, 0, 73, 0
1, 7848, Note_on_c, 0, 71, 64
1, 7848, Note_on_c, 0, 64, 64
1, 7860, Note_on_c, 0, 71, 0
1, 7860, Note_on_c, 0, 73, 64
1, 7869, Note_on_c, 1, 67, 0
1, 7871, Note_on_c, 0, 64, 0
1, 7872, Note_on_c, 0, 73, 0
1, 7872, Note_on_c, 0, 74, 64
1, 7872, Note_on_c, 1, 66, 78
1, 7895, Note_on_c, 0, 74, 0
1, 7896, Note_on_c, 0, 62, 64
1, 7917, Note_on_c, 1, 66, 0
1, 7919, Note_on_c, 0, 62, 0
1, 7920, Note_on_c, 0, 76, 64
1, 7920, Note_on_c, 1, 61, 78
1, 7943, Note_on_c, 0, 76, 0
1, 7944, Note_on_c, 0, 69, 64
1, 7965, Note_on_c, 1, 61, 0
1, 7967, Note_on_c, 0, 69, 0
1, 7968, Note_on_c, 0, 78, 64
1, 7968, Note_on_c, 1, 62, 78
1, 7991, Note_on_c, 0, 78, 0
1, 7992, Note_on_c, 0, 69, 64
1, 8013, Note_on_c, 1, 62, 0
1, 8015, Note_on_c, 0, 69, 0
1, 8016, Note_on_c, 0, 81, 64
1, 8016, Note_on_c, 1, 64, 78
1, 8028, Note_on_c, 0, 81, 0
1, 8028, Note_on_c, 0, 79, 64
1, 8040, Note_on_c, 0, 79, 0
1, 8040, Note_on_c, 0, 78, 64
1, 8040, Note_on_c, 0, 64, 64
1, 8052, Note_on_c, 0, 78, 0
1, 8052, Note_on_c, 0, 79, 64
1, 8061, Note_on_c, 1, 64, 0
1, 8063, Note_on_c, 0, 64, 0
1, 8064, Note_on_c, 0, 79, 0
1, 8064, Note_on_c, 0, 81, 64
1, 8064, Note_on_c, 1, 66, 78
1, 8084, Note_on_c, 0, 81, 0
1, 8112, Note_on_c, 0, 86, 64
1, 8127, Note_on_c, 0, 86, 0
1, 8128, Note_on_c, 0, 85, 64
1, 8143, Note_on_c, 0, 85, 0
1, 8144, Note_on_c, 0, 83, 64
1, 8153, Note_on_c, 1, 66, 0
1, 8159, Note_on_c, 0, 83, 0
1, 8160, Note_on_c, 0, 81, 64
1, 8175, Note_on_c, 0, 81, 0
1, 8176, Note_on_c, 0, 79, 64
1, 8191, Note_on_c, 0, 79, 0
1, 8192, Note_on_c, 0, 78, 64
1, 8207, Note_on_c, 0, 78, 0
1, 8208, Note_on_c, 0, 76, 64
1, 8223, Note_on_c, 0, 76, 0
1, 8224, Note_on_c, 0, 74, 64
1, 8239, Note_on_c, 0, 74, 0
1, 8240, Note_on_c, 0, 73, 64
1, 8255, Note_on_c, 0, 73, 0
1, 8256, Note_on_c, 0, 71, 64
1, 8256, Note_on_c, 1, 55, 78
1, 8276, Note_on_c, 0, 71, 0
1, 8304, Note_on_c, 0, 66, 64
1, 8319, Note_on_c, 0, 66, 0
1, 8320, Note_on_c, 0, 67, 64
1, 8335, Note_on_c, 0, 67, 0
1, 8336, Note_on_c, 0, 69, 64
1, 8345, Note_on_c, 1, 55, 0
1, 8351, Note_on_c, 0, 69, 0
1, 8352, Note_on_c, 0, 71, 64
1, 8367, Note_on_c, 0, 71, 0
1, 8368, Note_on_c, 0, 73, 64
1, 8383, Note_on_c, 0, 73, 0
1, 8384, Note_on_c, 0, 74, 64
1, 8399, Note_on_c, 0, 74, 0
1, 8400, Note_on_c, 0, 76, 64
1, 8415, Note_on_c, 0, 76, 0
1, 8416, Note_on_c, 0, 78, 64
1, 8431, Note_on_c, 0, 78, 0
1, 8432, Note_on_c, 0, 79, 64
1, 8447, Note_on_c, 0, 79, 0
1, 8448, Note_on_c, 0, 81, 64
1, 8493, Note_on_c, 0, 81, 0
1, 8496, Note_on_c, 0, 78, 64
1, 8496, Note_on_c, 1, 54, 78
1, 8511, Note_on_c, 0, 78, 0
1, 8512, Note_on_c, 0, 76, 64
1, 8527, Note_on_c, 0, 76, 0
1, 8528, Note_on_c, 0, 74, 64
1, 8541, Note_on_c, 1, 54, 0
1, 8543, Note_on_c, 0, 74, 0
1, 8544, Note_on_c, 0, 78, 64
1, 8544, Note_on_c, 1, 55, 78
1, 8552, Note_on_c, 0, 78, 0
1, 8552, Note_on_c, 0, 76, 64
1, 8560, Note_on_c, 0, 76, 0
1, 8560, Note_on_c, 0, 78, 64
1, 8568, Note_on_c, 0, 78, 0
1, 8568, Note_on_c, 0, 76, 64
1, 8576, Note_on_c, 0, 76, 0
1, 8576, Note_on_c, 0, 78, 64
1, 8584, Note_on_c, 0, 78, 0
1, 8584, Note_on_c, 0, 76, 64
1, 8589, Note_on_c, 1, 55, 0
1, 8592, Note_on_c, 0, 76, 0
1, 8592, Note_on_c, 0, 78, 64
1, 8592, Note_on_c, 1, 57, 78
1, 8600, Note_on_c, 0, 78, 0
1, 8600, Note_on_c, 0, 76, 64
1, 8608, Note_on_c, 0, 76, 0
1, 8608, Note_on_c, 0, 78, 64
1, 8616, Note_on_c, 0, 78, 0
1, 8616, Note_on_c, 0, 76, 64
1, 8624, Note_on_c, 0, 76, 0
1, 8624, Note_on_c, 0, 74, 64
1, 8632, Note_on_c, 0, 74, 0
1, 8632, Note_on_c, 0, 76, 64
1, 8637, Note_on_c, 1, 57, 0
1, 8640, Note_on_c, 0, 76, 0
1, 8640, Note_on_c, 0, 74, 64
1, 8640, Note_on_c, 1, 50, 78
1, 8660, Note_on_c, 0, 74, 0
1, 8688, Note_on_c, 0, 86, 64
1, 8703, Note_on_c, 0, 86, 0
1, 8704, Note_on_c, 0, 85, 64
1, 8719, Note_on_c, 0, 85, 0
1, 8720, Note_on_c, 0, 83, 64
1, 8729, Note_on_c, 1, 50, 0
1, 8735, Note_on_c, 0, 83, 0
1, 8736, Note_on_c, 0, 81, 64
1, 8751, Note_on_c, 0, 81, 0
1, 8752, Note_on_c, 0, 79, 64
1, 8767, Note_on_c, 0, 79, 0
1, 8768, Note_on_c, 0, 78, 64
1, 8783, Note_on_c, 0, 78, 0
1, 8784, Note_on_c, 0, 76, 64
1, 8799, Note_on_c, 0, 76, 0
1, 8800, Note_on_c, 0, 74, 64
1, 8815, Note_on_c, 0, 74, 0
1, 8816, Note_on_c, 0, 73, 64
1, 8831, Note_on_c, 0, 73, 0
1, 8832, Note_on_c, 0, 71, 64
1, 8832, Note_on_c, 1, 55, 78
1, 8852, Note_on_c, 0, 71, 0
1, 8880, Note_on_c, 0, 66, 64
1, 8895, Note_on_c, 0, 66, 0
1, 8896, Note_on_c, 0, 67, 64
1, 8911, Note_on_c, 0, 67, 0
1, 8912, Note_on_c, 0, 69, 64
1, 8921, Note_on_c, 1, 55, 0
1, 8927, Note_on_c, 0, 69, 0
1, 8928, Note_on_c, 0, 71, 64
1, 8943, Note_on_c, 0, 71, 0
1, 8944, Note_on_c, 0, 73, 64
1, 8959, Note_on_c, 0, 73, 0
1, 8960, Note_on_c, 0, 74, 64
1, 8975, Note_on_c, 0, 74, 0
1, 8976, Note_on_c, 0, 76, 64
1, 8991, Note_on_c, 0, 76, 0
1, 8992, Note_on_c, 0, 78, 64
1, 9007, Note_on_c, 0, 78, 0
1, 9008, Note_on_c, 0, 79, 64
1, 9023, Note_on_c, 0, 79, 0
1, 9024, Note_on_c, 0, 81, 64
1, 9044, Note_on_c, 0, 81, 0
1, 9072, Note_on_c, 0, 78, 64
1, 9072, Note_on_c, 1, 54, 78
1, 9087, Note_on_c, 0, 78, 0
1, 9088, Note_on_c, 0, 76, 64
1, 9103, Note_on_c, 0, 76, 0
1, 9104, Note_on_c, 0, 74, 64
1, 9117, Note_on_c, 1, 54, 0
1, 9119, Note_on_c, 0, 74, 0
1, 9120, Note_on_c, 0, 78, 64
1, 9120, Note_on_c, 1, 55, 78
1, 9128, Note_on_c, 0, 78, 0
1, 9128, Note_on_c, 0, 76, 64
1, 9136, Note_on_c, 0, 76, 0
1, 9136, Note_on_c, 0, 78, 64
1, 9144, Note_on_c, 0, 78, 0
1, 9144, Note_on_c, 0, 76, 64
1, 9152, Note_on_c, 0, 76, 0
1, 9152, Note_on_c, 0, 78, 64
1, 9160, Note_on_c, 0, 78, 0
1, 9160, Note_on_c, 0, 76, 64
1, 9165, Note_on_c, 1, 55, 0
1, 9168, Note_on_c, 0, 76, 0
1, 9168, Note_on_c, 0, 78, 64
1, 9168, Note_on_c, 1, 57, 78
1, 9176, Note_on_c, 0, 78, 0
1, 9176, Note_on_c, 0, 76, 64
1, 9184, Note_on_c, 0, 76, 0
1, 9184, Note_on_c, 0, 78, 64
1, 9192, Note_on_c, 0, 78, 0
1, 9192, Note_on_c, 0, 76, 64
1, 9200, Note_on_c, 0, 76, 0
1, 9200, Note_on_c, 0, 74, 64
1, 9208, Note_on_c, 0, 74, 0
1, 9208, Note_on_c, 0, 76, 64
1, 9213, Note_on_c, 1, 57, 0
1, 9216, Note_on_c, 0, 76, 0
1, 9216, Note_on_c, 0, 74, 64
1, 9216, Note_on_c, 1, 50, 78
1, 9236, Note_on_c, 0, 74, 0
1, 9261, Note_on_c, 1, 50, 0
1, 9264, Note_on_c, 0, 66, 64
1, 9264, Note_on_c, 1, 62, 78
1, 9287, Note_on_c, 0, 66, 0
1, 9288, Note_on_c, 0, 74, 64
1, 9309, Note_on_c, 1, 62, 0
1, 9311, Note_on_c, 0, 74, 0
1, 9312, Note_on_c, 0, 67, 64
1, 9312, Note_on_c, 1, 64, 78
1, 9335, Note_on_c, 0, 67, 0
1, 9336, Note_on_c, 0, 74, 64
1, 9357, Note_on_c, 1, 64, 0
1, 9359, Note_on_c, 0, 74, 0
1, 9360, Note_on_c, 0, 69, 64
1, 9360, Note_on_c, 1, 66, 78
1, 9383, Note_on_c, 0, 69, 0
1, 9384, Note_on_c, 0, 74, 64
1, 9405, Note_on_c, 1, 66, 0
1, 9407, Note_on_c, 0, 74, 0
1, 9408, Note_on_c, 0, 71, 64
1, 9408, Note_on_c, 1, 67, 78
1, 9431, Note_on_c, 0, 71, 0
1, 9432, Note_on_c, 0, 74, 64
1, 9453, Note_on_c, 1, 67, 0
1, 9455, Note_on_c, 0, 74, 0
1, 9456, Note_on_c, 0, 70, 64
1, 9456, Note_on_c, 1, 66, 78
1, 9479, Note_on_c, 0, 70, 0
1, 9480, Note_on_c, 0, 74, 64
1, 9501, Note_on_c, 1, 66, 0
1, 9503, Note_on_c, 0, 74, 0
1, 9504, Note_on_c, 0, 71, 64
1, 9504, Note_on_c, 1, 67, 78
1, 9527, Note_on_c, 0, 71, 0
1, 9528, Note_on_c, 0, 74, 64
1, 9549, Note_on_c, 1, 67, 0
1, 9551, Note_on_c, 0, 74, 0
1, 9552, Note_on_c, 0, 73, 64
1, 9552, Note_on_c, 1, 69, 78
1, 9575, Note_on_c, 0, 73, 0
1, 9576, Note_on_c, 0, 79, 64
1, 9597, Note_on_c, 1, 69, 0
1, 9599, Note_on_c, 0, 79, 0
1, 9600, Note_on_c, 0, 78, 64
1, 9600, Note_on_c, 1, 71, 78
1, 9623, Note_on_c, 0, 78, 0
1, 9624, Note_on_c, 0, 74, 64
1, 9645, Note_on_c, 1, 71, 0
1, 9647, Note_on_c, 0, 74, 0
1, 9648, Note_on_c, 0, 67, 64
1, 9648, Note_on_c, 1, 55, 78
1, 9671, Note_on_c, 0, 67, 0
1, 9672, Note_on_c, 0, 76, 64
1, 9693, Note_on_c, 1, 55, 0
1, 9695, Note_on_c, 0, 76, 0
1, 9696, Note_on_c, 0, 66, 64
1, 9696, Note_on_c, 1, 57, 78
1, 9719, Note_on_c, 0, 66, 0
1, 9720, Note_on_c, 0, 74, 64
1, 9741, Note_on_c, 1, 57, 0
1, 9743, Note_on_c, 0, 74, 0
1, 9744, Note_on_c, 0, 64, 64
1, 9744, Note_on_c, 1, 45, 78
1, 9767, Note_on_c, 0, 64, 0
1, 9768, Note_on_c, 0, 73, 64
1, 9789, Note_on_c, 1, 45, 0
1, 9791, Note_on_c, 0, 73, 0
1, 9792, Note_on_c, 0, 74, 64
1, 9792, Note_on_c, 0, 66, 64
1, 9792, Note_on_c, 1, 50, 78
1, 9837, Note_on_c, 0, 74, 0
1, 9837, Note_on_c, 0, 66, 0
1, 9837, Note_on_c, 1, 50, 0
1, 9840, Note_on_c, 0, 66, 64
1, 9840, Note_on_c, 1, 38, 78
1, 9863, Note_on_c, 0, 66, 0
1, 9863, Note_on_c, 1, 38, 0
1, 9864, Note_on_c, 0, 74, 64
1, 9864, Note_on_c, 1, 50, 78
1, 9887, Note_on_c, 0, 74, 0
1, 9887, Note_on_c, 1, 50, 0
1, 9888, Note_on_c, 0, 67, 64
1, 9888, Note_on_c, 1, 40, 78
1, 9911, Note_on_c, 0, 67, 0
1, 9911, Note_on_c, 1, 40, 0
1, 9912, Note_on_c, 0, 74, 64
1, 9912, Note_on_c, 1, 50, 78
1, 9935, Note_on_c, 0, 74, 0
1, 9935, Note_on_c, 1, 50, 0
1, 9936, Note_on_c, 0, 69, 64
1, 9936, Note_on_c, 1, 42, 78
1, 9959, Note_on_c, 0, 69, 0
1, 9959, Note_on_c, 1, 42, 0
1, 9960, Note_on_c, 0, 74, 64
1, 9960, Note_on_c, 1, 50, 78
1, 9983, Note_on_c, 0, 74, 0
1, 9983, Note_on_c, 1, 50, 0
1, 9984, Note_on_c, 0, 71, 64
1, 9984, Note_on_c, 1, 43, 78
1, 10007, Note_on_c, 0, 71, 0
1, 10007, Note_on_c, 1, 43, 0
1, 10008, Note_on_c, 0, 74, 64
1, 10008, Note_on_c, 1, 50, 78
1, 10031, Note_on_c, 0, 74, 0
1, 10031, Note_on_c, 1, 50, 0
1, 10032, Note_on_c, 0, 70, 64
1, 10032, Note_on_c, 1, 42, 78
1, 10055, Note_on_c, 0, 70, 0
1, 10055, Note_on_c, 1, 42, 0
1, 10056, Note_on_c, 0, 74, 64
1, 10056, Note_on_c, 1, 50, 78
1, 10079, Note_on_c, 0, 74, 0
1, 10079, Note_on_c, 1, 50, 0
1, 10080, Note_on_c, 0, 71, 64
1, 10080, Note_on_c, 1, 43, 78
1, 10103, Note_on_c, 0, 71, 0
1, 10103, Note_on_c, 1, 43, 0
1, 10104, Note_on_c, 0, 74, 64
1, 10104, Note_on_c, 1, 50, 78
1, 10127, Note_on_c, 0, 74, 0
1, 10127, Note_on_c, 1, 50, 0
1, 10128, Note_on_c, 0, 73, 64
1, 10128, Note_on_c, 1, 45, 78
1, 10151, Note_on_c, 0, 73, 0
1, 10151, Note_on_c, 1, 45, 0
1, 10152, Note_on_c, 0, 79, 64
1, 10152, Note_on_c, 1, 57, 78
1, 10175, Note_on_c, 0, 79, 0
1, 10175, Note_on_c, 1, 57, 0
1, 10176, Note_on_c, 0, 78, 64
1, 10176, Note_on_c, 1, 47, 78
1, 10199, Note_on_c, 0, 78, 0
1, 10199, Note_on_c, 1, 47, 0
1, 10200, Note_on_c, 0, 74, 64
1, 10200, Note_on_c, 1, 59, 78
1, 10223, Note_on_c, 0, 74, 0
1, 10223, Note_on_c, 1, 59, 0
1, 10224, Note_on_c, 0, 67, 64
1, 10224, Note_on_c, 1, 55, 78
1, 10247, Note_on_c, 0, 67, 0
1, 10248, Note_on_c, 0, 76, 64
1, 10269, Note_on_c, 1, 55, 0
1, 10271, Note_on_c, 0, 76, 0
1, 10272, Note_on_c, 0, 66, 64
1, 10272, Note_on_c, 1, 57, 78
1, 10295, Note_on_c, 0, 66, 0
1, 10296, Note_on_c, 0, 74, 64
1, 10317, Note_on_c, 1, 57, 0
1, 10319, Note_on_c, 0, 74, 0
1, 10320, Note_on_c, 0, 64, 64
1, 10320, Note_on_c, 1, 45, 78
1, 10343, Note_on_c, 0, 64, 0
1, 10344, Note_on_c, 0, 73, 64
1, 10365, Note_on_c, 1, 45, 0
1, 10367, Note_on_c, 0, 73, 0
1, 10368, Note_on_c, 0, 74, 64
1, 10368, Note_on_c, 0, 66, 64
1, 10368, Note_on_c, 1, 50, 78
1, 10388, Note_on_c, 0, 74, 0
1, 10388, Note_on_c, 0, 66, 0
1, 10416, Note_on_c, 0, 79, 64
1, 10416, Note_on_c, 0, 74, 64
1, 10428, Note_on_c, 0, 79, 0
1, 10428, Note_on_c, 0, 78, 64
1, 10436, Note_on_c, 0, 74, 0
1, 10440, Note_on_c, 0, 78, 0
1, 10440, Note_on_c, 0, 76, 64
1, 10452, Note_on_c, 0, 76, 0
1, 10452, Note_on_c, 0, 78, 64
1, 10457, Note_on_c, 1, 50, 0
1, 10464, Note_on_c, 0, 78, 0
1, 10464, Note_on_c, 0, 81, 64
1, 10464, Note_on_c, 0, 78, 64
1, 10484, Note_on_c, 0, 81, 0
1, 10484, Note_on_c, 0, 78, 0
1, 10512, Note_on_c, 0, 78, 64
1, 10512, Note_on_c, 0, 74, 64
1, 10532, Note_on_c, 0, 78, 0
1, 10532, Note_on_c, 0, 74, 0
1, 10560, Note_on_c, 0, 86, 64
1, 10560, Note_on_c, 0, 81, 64
1, 10560, Note_on_c, 0, 78, 64
1, 10560, Note_on_c, 0, 74, 64
1, 10560, Note_on_c, 1, 50, 78
1, 10560, Note_on_c, 1, 45, 78
1, 10560, Note_on_c, 1, 42, 78
1, 10560, Note_on_c, 1, 38, 78
1, 10649, Note_on_c, 0, 86, 0
1, 10649, Note_on_c, 0, 81, 0
1, 10649, Note_on_c, 0, 78, 0
1, 10649, Note_on_c, 0, 74, 0
1, 10649, Note_on_c, 1, 50, 0
1, 10649, Note_on_c, 1, 45, 0
1, 10649, Note_on_c, 1, 42, 0
1, 10649, Note_on_c, 1, 38, 0
1, 10752, Note_on_c, 0, 59, 64
1, 10764, Note_on_c, 0, 59, 0
1, 10764, Note_on_c, 0, 58, 64
1, 10776, Note_on_c, 0, 58, 0
1, 10776, Note_on_c, 0, 59, 64
1, 10800, Note_on_c, 1, 47, 64
1, 10820, Note_on_c, 1, 47, 0
1, 10848, Note_on_c, 1, 50, 64
1, 10868, Note_on_c, 1, 50, 0
1, 10896, Note_on_c, 1, 47, 64
1, 10916, Note_on_c, 1, 47, 0
1, 10931, Note_on_c, 0, 59, 0
1, 10944, Note_on_c, 0, 66, 64
1, 10956, Note_on_c, 0, 66, 0
1, 10956, Note_on_c, 0, 65, 64
1, 10968, Note_on_c, 0, 65, 0
1, 10968, Note_on_c, 0, 66, 64
1, 10992, Note_on_c, 1, 46, 64
1, 11012, Note_on_c, 1, 46, 0
1, 11040, Note_on_c, 1, 49, 64
1, 11060, Note_on_c, 1, 49, 0
1, 11088, Note_on_c, 1, 42, 64
1, 11108, Note_on_c, 1, 42, 0
1, 11123, Note_on_c, 0, 66, 0
1, 11136, Note_on_c, 0, 71, 64
1, 11148, Note_on_c, 0, 71, 0
1, 11148, Note_on_c, 0, 70, 64
1, 11160, Note_on_c, 0, 70, 0
1, 11160, Note_on_c, 0, 71, 64
1, 11184, Note_on_c, 1, 43, 64
1, 11204, Note_on_c, 1, 43, 0
1, 11232, Note_on_c, 1, 42, 64
1, 11252, Note_on_c, 1, 42, 0
1, 11273, Note_on_c, 0, 71, 0
1, 11280, Note_on_c, 0, 73, 64
1, 11280, Note_on_c, 1, 40, 64
1, 11300, Note_on_c, 1, 40, 0
1, 11314, Note_on_c, 0, 73, 0
1, 11316, Note_on_c, 0, 74, 64
1, 11328, Note_on_c, 0, 74, 0
1, 11328, Note_on_c, 0, 71, 64
1, 11328, Note_on_c, 1, 38, 64
1, 11367, Note_on_c, 1, 38, 0
1, 11373, Note_on_c, 0, 71, 0
1, 11376, Note_on_c, 0, 78, 64
1, 11396, Note_on_c, 0, 78, 0
1, 11424, Note_on_c, 0, 78, 64
1, 11444, Note_on_c, 0, 78, 0
1, 11472, Note_on_c, 0, 78, 64
1, 11492, Note_on_c, 0, 78, 0
1, 11520, Note_on_c, 0, 78, 64
1, 11568, Note_on_c, 1, 61, 64
1, 11568, Note_on_c, 1, 58, 64
1, 11613, Note_on_c, 1, 61, 0
1, 11613, Note_on_c, 1, 58, 0
1, 11616, Note_on_c, 1, 61, 64
1, 11616, Note_on_c, 1, 58, 64
1, 11639, Note_on_c, 0, 78, 0
1, 11640, Note_on_c, 0, 79, 64
1, 11646, Note_on_c, 0, 79, 0
1, 11646, Note_on_c, 0, 78, 64
1, 11652, Note_on_c, 0, 78, 0
1, 11652, Note_on_c, 0, 76, 64
1, 11658, Note_on_c, 0, 76, 0
1, 11658, Note_on_c, 0, 78, 64
1, 11661, Note_on_c, 1, 61, 0
1, 11661, Note_on_c, 1, 58, 0
1, 11664, Note_on_c, 0, 78, 0
1, 11664, Note_on_c, 0, 79, 64
1, 11664, Note_on_c, 1, 61, 64
1, 11664, Note_on_c, 1, 58, 64
1, 11698, Note_on_c, 0, 79, 0
1, 11700, Note_on_c, 0, 76, 64
1, 11709, Note_on_c, 1, 61, 0
1, 11709, Note_on_c, 1, 58, 0
1, 11712, Note_on_c, 0, 76, 0
1, 11712, Note_on_c, 0, 76, 64
1, 11760, Note_on_c, 1, 66, 64
1, 11760, Note_on_c, 1, 59, 64
1, 11805, Note_on_c, 1, 66, 0
1, 11805, Note_on_c, 1, 59, 0
1, 11808, Note_on_c, 0, 76, 0
1, 11808, Note_on_c, 0, 74, 64
1, 11808, Note_on_c, 1, 66, 64
1, 11808, Note_on_c, 1, 59, 64
1, 11820, Note_on_c, 0, 74, 0
1, 11820, Note_on_c, 0, 76, 64
1, 11832, Note_on_c, 0, 76, 0
1, 11832, Note_on_c, 0, 74, 64
1, 11853, Note_on_c, 0, 74, 0
1, 11853, Note_on_c, 1, 66, 0
1, 11853, Note_on_c, 1, 59, 0
1, 11856, Note_on_c, 0, 78, 64
1, 11856, Note_on_c, 1, 62, 64
1, 11890, Note_on_c, 0, 78, 0
1, 11892, Note_on_c, 0, 71, 64
1, 11901, Note_on_c, 1, 62, 0
1, 11904, Note_on_c, 0, 71, 0
1, 11904, Note_on_c, 0, 74, 64
1, 11904, Note_on_c, 1, 64, 64
1, 11916, Note_on_c, 0, 74, 0
1, 11916, Note_on_c, 0, 73, 64
1, 11928, Note_on_c, 0, 73, 0
1, 11928, Note_on_c, 0, 71, 64
1, 11940, Note_on_c, 0, 71, 0
1, 11940, Note_on_c, 0, 73, 64
1, 11949, Note_on_c, 1, 64, 0
1, 11952, Note_on_c, 0, 73, 0
1, 11952, Note_on_c, 0, 71, 64
1, 11952, Note_on_c, 1, 62, 64
1, 11997, Note_on_c, 0, 71, 0
1, 11997, Note_on_c, 1, 62, 0
1, 12000, Note_on_c, 0, 74, 64
1, 12000, Note_on_c, 1, 64, 64
1, 12023, Note_on_c, 0, 74, 0
1, 12024, Note_on_c, 0, 73, 64
1, 12045, Note_on_c, 1, 64, 0
1, 12047, Note_on_c, 0, 73, 0
1, 12048, Note_on_c, 0, 71, 64
1, 12048, Note_on_c, 1, 66, 64
1, 12071, Note_on_c, 0, 71, 0
1, 12072, Note_on_c, 0, 70, 64
1, 12093, Note_on_c, 1, 66, 0
1, 12095, Note_on_c, 0, 70, 0
1, 12096, Note_on_c, 0, 71, 64
1, 12096, Note_on_c, 1, 67, 64
1, 12185, Note_on_c, 0, 71, 0
1, 12185, Note_on_c, 1, 67, 0
1, 12240, Note_on_c, 0, 83, 64
1, 12264, Note_on_c, 0, 83, 0
1, 12264, Note_on_c, 0, 79, 64
1, 12287, Note_on_c, 0, 79, 0
1, 12288, Note_on_c, 0, 78, 64
1, 12311, Note_on_c, 0, 78, 0
1, 12312, Note_on_c, 0, 76, 64
1, 12335, Note_on_c, 0, 76, 0
1, 12336, Note_on_c, 0, 75, 64
1, 12359, Note_on_c, 0, 75, 0
1, 12360, Note_on_c, 0, 76, 64
1, 12383, Note_on_c, 0, 76, 0
1, 12384, Note_on_c, 0, 78, 64
1, 12408, Note_on_c, 0, 78, 0
1, 12408, Note_on_c, 0, 76, 64
1, 12431, Note_on_c, 0, 76, 0
1, 12432, Note_on_c, 0, 79, 64
1, 12456, Note_on_c, 0, 79, 0
1, 12456, Note_on_c, 0, 76, 64
1, 12479, Note_on_c, 0, 76, 0
1, 12480, Note_on_c, 0, 70, 64
1, 12480, Note_on_c, 1, 67, 64
1, 12480, Note_on_c, 1, 64, 64
1, 12576, Note_on_c, 0, 70, 0
1, 12576, Note_on_c, 0, 71, 64
1, 12576, Note_on_c, 1, 67, 0
1, 12576, Note_on_c, 1, 64, 0
1, 12576, Note_on_c, 1, 66, 64
1, 12576, Note_on_c, 1, 62, 64
1, 12596, Note_on_c, 0, 71, 0
1, 12621, Note_on_c, 1, 66, 0
1, 12621, Note_on_c, 1, 62, 0
1, 12624, Note_on_c, 0, 83, 64
1, 12648, Note_on_c, 0, 83, 0
1, 12648, Note_on_c, 0, 79, 64
1, 12671, Note_on_c, 0, 79, 0
1, 12672, Note_on_c, 0, 78, 64
1, 12695, Note_on_c, 0, 78, 0
1, 12696, Note_on_c, 0, 76, 64
1, 12719, Note_on_c, 0, 76, 0
1, 12720, Note_on_c, 0, 75, 64
1, 12743, Note_on_c, 0, 75, 0
1, 12744, Note_on_c, 0, 76, 64
1, 12767, Note_on_c, 0, 76, 0
1, 12768, Note_on_c, 0, 78, 64
1, 12792, Note_on_c, 0, 78, 0
1, 12792, Note_on_c, 0, 76, 64
1, 12815, Note_on_c, 0, 76, 0
1, 12816, Note_on_c, 0, 79, 64
1, 12840, Note_on_c, 0, 79, 0
1, 12840, Note_on_c, 0, 76, 64
1, 12863, Note_on_c, 0, 76, 0
1, 12864, Note_on_c, 0, 70, 64
1, 12864, Note_on_c, 1, 67, 64
1, 12864, Note_on_c, 1, 64, 64
1, 12960, Note_on_c, 0, 70, 0
1, 12960, Note_on_c, 0, 71, 64
1, 12960, Note_on_c, 1, 67, 0
1, 12960, Note_on_c, 1, 64, 0
1, 12960, Note_on_c, 1, 66, 64
1, 12960, Note_on_c, 1, 62, 64
1, 12980, Note_on_c, 0, 71, 0
1, 13005, Note_on_c, 1, 66, 0
1, 13005, Note_on_c, 1, 62, 0
1, 13008, Note_on_c, 0, 83, 64
1, 13032, Note_on_c, 0, 83, 0
1, 13032, Note_on_c, 0, 79, 64
1, 13055, Note_on_c, 0, 79, 0
1, 13056, Note_on_c, 0, 78, 64
1, 13079, Note_on_c, 0, 78, 0
1, 13080, Note_on_c, 0, 76, 64
1, 13103, Note_on_c, 0, 76, 0
1, 13104, Note_on_c, 0, 75, 64
1, 13127, Note_on_c, 0, 75, 0
1, 13128, Note_on_c, 0, 76, 64
1, 13151, Note_on_c, 0, 76, 0
1, 13152, Note_on_c, 0, 78, 64
1, 13176, Note_on_c, 0, 78, 0
1, 13176, Note_on_c, 0, 76, 64
1, 13199, Note_on_c, 0, 76, 0
1, 13200, Note_on_c, 0, 79, 64
1, 13224, Note_on_c, 0, 79, 0
1, 13224, Note_on_c, 0, 76, 64
1, 13247, Note_on_c, 0, 76, 0
1, 13248, Note_on_c, 0, 82, 64
1, 13248, Note_on_c, 0, 73, 64
1, 13248, Note_on_c, 1, 67, 64
1, 13248, Note_on_c, 1, 64, 64
1, 13344, Note_on_c, 0, 82, 0
1, 13344, Note_on_c, 0, 73, 0
1, 13344, Note_on_c, 0, 83, 64
1, 13344, Note_on_c, 0, 74, 64
1, 13344, Note_on_c, 1, 67, 0
1, 13344, Note_on_c, 1, 64, 0
1, 13344, Note_on_c, 1, 66, 64
1, 13344, Note_on_c, 1, 62, 64
1, 13364, Note_on_c, 0, 83, 0
1, 13364, Note_on_c, 0, 74, 0
1, 13389, Note_on_c, 1, 66, 0
1, 13389, Note_on_c, 1, 62, 0
1, 13392, Note_on_c, 0, 79, 64
1, 13392, Note_on_c, 0, 76, 64
1, 13392, Note_on_c, 1, 64, 64
1, 13404, Note_on_c, 0, 79, 0
1, 13404, Note_on_c, 0, 78, 64
1, 13416, Note_on_c, 0, 78, 0
1, 13416, Note_on_c, 0, 79, 64
1, 13437, Note_on_c, 0, 79, 0
1, 13437, Note_on_c, 0, 76, 0
1, 13437, Note_on_c, 1, 64, 0
1, 13440, Note_on_c, 0, 78, 64
1, 13440, Note_on_c, 0, 74, 64
1, 13440, Note_on_c, 1, 66, 64
1, 13485, Note_on_c, 0, 78, 0
1, 13485, Note_on_c, 0, 74, 0
1, 13488, Note_on_c, 0, 76, 64
1, 13488, Note_on_c, 0, 73, 64
1, 13529, Note_on_c, 1, 66, 0
1, 13533, Note_on_c, 0, 76, 0
1, 13533, Note_on_c, 0, 73, 0
1, 13536, Note_on_c, 0, 74, 64
1, 13536, Note_on_c, 0, 71, 64
1, 13536, Note_on_c, 1, 54, 64
1, 13548, Note_on_c, 0, 74, 0
1, 13548, Note_on_c, 0, 76, 64
1, 13560, Note_on_c, 0, 76, 0
1, 13560, Note_on_c, 0, 74, 64
1, 13581, Note_on_c, 0, 74, 0
1, 13581, Note_on_c, 0, 71, 0
1, 13584, Note_on_c, 0, 73, 64
1, 13584, Note_on_c, 0, 70, 64
1, 13625, Note_on_c, 1, 54, 0
1, 13629, Note_on_c, 0, 73, 0
1, 13629, Note_on_c, 0, 70, 0
1, 13632, Note_on_c, 0, 71, 64
1, 13632, Note_on_c, 1, 59, 64
1, 13632, Note_on_c, 1, 47, 64
1, 13644, Note_on_c, 0, 71, 0
1, 13644, Note_on_c, 0, 73, 64
1, 13656, Note_on_c, 0, 73, 0
1, 13656, Note_on_c, 0, 71, 64
1, 13721, Note_on_c, 0, 71, 0
1, 13721, Note_on_c, 1, 59, 0
1, 13721, Note_on_c, 1, 47, 0
1, 13824, Note_on_c, 0, 59, 64
1, 13836, Note_on_c, 0, 59, 0
1, 13836, Note_on_c, 0, 58, 64
1, 13848, Note_on_c, 0, 58, 0
1, 13848, Note_on_c, 0, 59, 64
1, 13872, Note_on_c, 1, 47, 64
1, 13892, Note_on_c, 1, 47, 0
1, 13920, Note_on_c, 1, 50, 64
1, 13940, Note_on_c, 1, 50, 0
1, 13968, Note_on_c, 1, 47, 64
1, 13988, Note_on_c, 1, 47, 0
1, 14003, Note_on_c, 0, 59, 0
1, 14016, Note_on_c, 0, 66, 64
1, 14028, Note_on_c, 0, 66, 0
1, 14028, Note_on_c, 0, 65, 64
1, 14040, Note_on_c, 0, 65, 0
1, 14040, Note_on_c, 0, 66, 64
1, 14064, Note_on_c, 1, 46, 64
1, 14084, Note_on_c, 1, 46, 0
1, 14112, Note_on_c, 1, 49, 64
1, 14132, Note_on_c, 1, 49, 0
1, 14160, Note_on_c, 1, 42, 64
1, 14180, Note_on_c, 1, 42, 0
1, 14195, Note_on_c, 0, 66, 0
1, 14208, Note_on_c, 0, 71, 64
1, 14256, Note_on_c, 1, 43, 64
1, 14276, Note_on_c, 1, 43, 0
1, 14304, Note_on_c, 1, 42, 64
1, 14324, Note_on_c, 1, 42, 0
1, 14341, Note_on_c, 0, 71, 0
1, 14352, Note_on_c, 0, 73, 64
1, 14352, Note_on_c, 1, 40, 64
1, 14372, Note_on_c, 1, 40, 0
1, 14386, Note_on_c, 0, 73, 0
1, 14388, Note_on_c, 0, 74, 64
1, 14400, Note_on_c, 0, 74, 0
1, 14400, Note_on_c, 0, 71, 64
1, 14400, Note_on_c, 1, 38, 64
1, 14420, Note_on_c, 0, 71, 0
1, 14439, Note_on_c, 1, 38, 0
1, 14448, Note_on_c, 0, 73, 64
1, 14482, Note_on_c, 0, 73, 0
1, 14484, Note_on_c, 0, 74, 64
1, 14496, Note_on_c, 0, 74, 0
1, 14496, Note_on_c, 0, 71, 64
1, 14516, Note_on_c, 0, 71, 0
1, 14544, Note_on_c, 0, 73, 64
1, 14578, Note_on_c, 0, 73, 0
1, 14580, Note_on_c, 0, 74, 64
1, 14592, Note_on_c, 0, 74, 0
1, 14592, Note_on_c, 0, 71, 64
1, 14640, Note_on_c, 1, 55, 64
1, 14688, Note_on_c, 1, 55, 0
1, 14688, Note_on_c, 1, 67, 64
1, 14725, Note_on_c, 0, 71, 0
1, 14733, Note_on_c, 1, 67, 0
1, 14736, Note_on_c, 0, 73, 64
1, 14770, Note_on_c, 0, 73, 0
1, 14772, Note_on_c, 0, 74, 64
1, 14784, Note_on_c, 0, 74, 0
1, 14784, Note_on_c, 0, 69, 64
1, 14832, Note_on_c, 1, 54, 64
1, 14877, Note_on_c, 1, 54, 0
1, 14880, Note_on_c, 1, 66, 64
1, 14914, Note_on_c, 0, 69, 0
1, 14916, Note_on_c, 0, 74, 64
1, 14928, Note_on_c, 0, 74, 0
1, 14928, Note_on_c, 0, 78, 64
1, 14962, Note_on_c, 0, 78, 0
1, 14964, Note_on_c, 0, 81, 64
1, 14976, Note_on_c, 0, 81, 0
1, 14976, Note_on_c, 0, 79, 64
1, 14976, Note_on_c, 1, 66, 0
1, 14976, Note_on_c, 1, 64, 64
1, 15010, Note_on_c, 0, 79, 0
1, 15012, Note_on_c, 0, 83, 64
1, 15021, Note_on_c, 1, 64, 0
1, 15024, Note_on_c, 0, 83, 0
1, 15024, Note_on_c, 0, 76, 64
1, 15024, Note_on_c, 1, 61, 64
1, 15058, Note_on_c, 0, 76, 0
1, 15060, Note_on_c, 0, 79, 64
1, 15069, Note_on_c, 1, 61, 0
1, 15072, Note_on_c, 0, 79, 0
1, 15072, Note_on_c, 0, 78, 64
1, 15072, Note_on_c, 1, 62, 64
1, 15072, Note_on_c, 1, 62, 64
1, 15106, Note_on_c, 0, 78, 0
1, 15108, Note_on_c, 0, 74, 64
1, 15117, Note_on_c, 1, 62, 0
1, 15120, Note_on_c, 0, 74, 0
1, 15120, Note_on_c, 0, 86, 64
1, 15120, Note_on_c, 1, 56, 64
1, 15154, Note_on_c, 0, 86, 0
1, 15156, Note_on_c, 0, 78, 64
1, 15165, Note_on_c, 1, 56, 0
1, 15168, Note_on_c, 0, 78, 0
1, 15168, Note_on_c, 0, 79, 64
1, 15168, Note_on_c, 1, 57, 64
1, 15176, Note_on_c, 0, 79, 0
1, 15176, Note_on_c, 0, 78, 64
1, 15184, Note_on_c, 0, 78, 0
1, 15184, Note_on_c, 0, 79, 64
1, 15192, Note_on_c, 0, 79, 0
1, 15192, Note_on_c, 0, 78, 64
1, 15200, Note_on_c, 0, 78, 0
1, 15200, Note_on_c, 0, 76, 64
1, 15208, Note_on_c, 0, 76, 0
1, 15208, Note_on_c, 0, 78, 64
1, 15213, Note_on_c, 1, 62, 0
1, 15216, Note_on_c, 0, 78, 0
1, 15216, Note_on_c, 0, 76, 64
1, 15216, Note_on_c, 1, 61, 64
1, 15257, Note_on_c, 1, 57, 0
1, 15261, Note_on_c, 0, 76, 0
1, 15261, Note_on_c, 1, 61, 0
1, 15360, Note_on_c, 1, 38, 84
1, 15360, Note_on_c, 1, 50, 64
1, 15366, Note_on_c, 1, 42, 84
1, 15372, Note_on_c, 1, 45, 84
1, 15378, Note_on_c, 1, 50, 84
1, 15407, Note_on_c, 1, 50, 0
1, 15407, Note_on_c, 1, 45, 0
1, 15407, Note_on_c, 1, 42, 0
1, 15407, Note_on_c, 1, 38, 0
1, 15408, Note_on_c, 0, 74, 64
1, 15408, Note_on_c, 1, 50, 84
1, 15432, Note_on_c, 0, 74, 0
1, 15432, Note_on_c, 0, 62, 64
1, 15453, Note_on_c, 1, 50, 0
1, 15455, Note_on_c, 0, 62, 0
1, 15456, Note_on_c, 0, 73, 64
1, 15456, Note_on_c, 1, 52, 84
1, 15480, Note_on_c, 0, 73, 0
1, 15480, Note_on_c, 0, 62, 64
1, 15501, Note_on_c, 1, 52, 0
1, 15503, Note_on_c, 0, 62, 0
1, 15504, Note_on_c, 0, 72, 64
1, 15504, Note_on_c, 1, 54, 84
1, 15528, Note_on_c, 0, 72, 0
1, 15528, Note_on_c, 0, 62, 64
1, 15549, Note_on_c, 1, 54, 0
1, 15551, Note_on_c, 0, 62, 0
1, 15552, Note_on_c, 0, 71, 64
1, 15552, Note_on_c, 1, 55, 84
1, 15576, Note_on_c, 0, 71, 0
1, 15576, Note_on_c, 0, 62, 64
1, 15597, Note_on_c, 1, 55, 0
1, 15599, Note_on_c, 0, 62, 0
1, 15600, Note_on_c, 0, 70, 64
1, 15600, Note_on_c, 1, 54, 84
1, 15624, Note_on_c, 0, 70, 0
1, 15624, Note_on_c, 0, 62, 64
1, 15645, Note_on_c, 1, 54, 0
1, 15647, Note_on_c, 0, 62, 0
1, 15648, Note_on_c, 0, 71, 64
1, 15648, Note_on_c, 1, 55, 84
1, 15672, Note_on_c, 0, 71, 0
1, 15672, Note_on_c, 0, 62, 64
1, 15693, Note_on_c, 1, 55, 0
1, 15695, Note_on_c, 0, 62, 0
1, 15696, Note_on_c, 0, 67, 64
1, 15696, Note_on_c, 1, 59, 84
1, 15714, Note_on_c, 1, 50, 0
1, 15720, Note_on_c, 0, 67, 0
1, 15720, Note_on_c, 0, 62, 64
1, 15741, Note_on_c, 1, 59, 0
1, 15743, Note_on_c, 0, 62, 0
1, 15744, Note_on_c, 0, 66, 64
1, 15744, Note_on_c, 1, 38, 84
1, 15744, Note_on_c, 1, 50, 64
1, 15750, Note_on_c, 1, 42, 84
1, 15756, Note_on_c, 1, 45, 84
1, 15762, Note_on_c, 1, 50, 84
1, 15768, Note_on_c, 0, 66, 0
1, 15768, Note_on_c, 0, 62, 64
1, 15791, Note_on_c, 0, 62, 0
1, 15791, Note_on_c, 1, 50, 0
1, 15791, Note_on_c, 1, 45, 0
1, 15791, Note_on_c, 1, 42, 0
1, 15791, Note_on_c, 1, 38, 0
1, 15792, Note_on_c, 0, 74, 64
1, 15792, Note_on_c, 1, 50, 84
1, 15816, Note_on_c, 0, 74, 0
1, 15816, Note_on_c, 0, 62, 64
1, 15837, Note_on_c, 1, 50, 0
1, 15839, Note_on_c, 0, 62, 0
1, 15840, Note_on_c, 0, 73, 64
1, 15840, Note_on_c, 1, 52, 84
1, 15864, Note_on_c, 0, 73, 0
1, 15864, Note_on_c, 0, 62, 64
1, 15885, Note_on_c, 1, 52, 0
1, 15887, Note_on_c, 0, 62, 0
1, 15888, Note_on_c, 0, 72, 64
1, 15888, Note_on_c, 1, 54, 84
1, 15912, Note_on_c, 0, 72, 0
1, 15912, Note_on_c, 0, 62, 64
1, 15933, Note_on_c, 1, 54, 0
1, 15935, Note_on_c, 0, 62, 0
1, 15936, Note_on_c, 0, 71, 64
1, 15936, Note_on_c, 1, 55, 84
1, 15960, Note_on_c, 0, 71, 0
1, 15960, Note_on_c, 0, 62, 64
1, 15981, Note_on_c, 1, 55, 0
1, 15983, Note_on_c, 0, 62, 0
1, 15984, Note_on_c, 0, 70, 64
1, 15984, Note_on_c, 1, 54, 84
1, 16008, Note_on_c, 0, 70, 0
1, 16008, Note_on_c, 0, 62, 64
1, 16029, Note_on_c, 1, 54, 0
1, 16031, Note_on_c, 0, 62, 0
1, 16032, Note_on_c, 0, 71, 64
1, 16032, Note_on_c, 1, 55, 84
1, 16056, Note_on_c, 0, 71, 0
1, 16056, Note_on_c, 0, 62, 64
1, 16077, Note_on_c, 1, 55, 0
1, 16079, Note_on_c, 0, 62, 0
1, 16080, Note_on_c, 0, 67, 64
1, 16080, Note_on_c, 1, 59, 84
1, 16098, Note_on_c, 1, 50, 0
1, 16104, Note_on_c, 0, 67, 0
1, 16104, Note_on_c, 0, 62, 64
1, 16125, Note_on_c, 1, 59, 0
1, 16127, Note_on_c, 0, 62, 0
1, 16128, Note_on_c, 0, 66, 64
1, 16128, Note_on_c, 1, 38, 84
1, 16128, Note_on_c, 1, 50, 64
1, 16134, Note_on_c, 1, 42, 84
1, 16140, Note_on_c, 1, 45, 84
1, 16146, Note_on_c, 1, 50, 84
1, 16152, Note_on_c, 0, 66, 0
1, 16152, Note_on_c, 0, 62, 64
1, 16175, Note_on_c, 0, 62, 0
1, 16175, Note_on_c, 1, 50, 0
1, 16175, Note_on_c, 1, 45, 0
1, 16175, Note_on_c, 1, 42, 0
1, 16175, Note_on_c, 1, 38, 0
1, 16176, Note_on_c, 0, 74, 64
1, 16176, Note_on_c, 1, 50, 78
1, 16200, Note_on_c, 0, 74, 0
1, 16200, Note_on_c, 0, 62, 64
1, 16221, Note_on_c, 1, 50, 0
1, 16223, Note_on_c, 0, 62, 0
1, 16224, Note_on_c, 0, 73, 64
1, 16224, Note_on_c, 1, 52, 78
1, 16248, Note_on_c, 0, 73, 0
1, 16248, Note_on_c, 0, 62, 64
1, 16269, Note_on_c, 1, 52, 0
1, 16271, Note_on_c, 0, 62, 0
1, 16272, Note_on_c, 0, 72, 64
1, 16272, Note_on_c, 1, 54, 78
1, 16296, Note_on_c, 0, 72, 0
1, 16296, Note_on_c, 0, 62, 64
1, 16317, Note_on_c, 1, 54, 0
1, 16319, Note_on_c, 0, 62, 0
1, 16320, Note_on_c, 0, 71, 64
1, 16320, Note_on_c, 1, 55, 78
1, 16344, Note_on_c, 0, 71, 0
1, 16344, Note_on_c, 0, 62, 64
1, 16365, Note_on_c, 1, 55, 0
1, 16367, Note_on_c, 0, 62, 0
1, 16368, Note_on_c, 0, 70, 64
1, 16368, Note_on_c, 1, 54, 78
1, 16392, Note_on_c, 0, 70, 0
1, 16392, Note_on_c, 0, 62, 64
1, 16413, Note_on_c, 1, 54, 0
1, 16415, Note_on_c, 0, 62, 0
1, 16416, Note_on_c, 0, 71, 64
1, 16416, Note_on_c, 1, 55, 78
1, 16440, Note_on_c, 0, 71, 0
1, 16440, Note_on_c, 0, 62, 64
1, 16461, Note_on_c, 1, 55, 0
1, 16463, Note_on_c, 0, 62, 0
1, 16464, Note_on_c, 0, 74, 64
1, 16464, Note_on_c, 1, 59, 78
1, 16488, Note_on_c, 0, 74, 0
1, 16488, Note_on_c, 0, 62, 64
1, 16509, Note_on_c, 1, 59, 0
1, 16511, Note_on_c, 0, 62, 0
1, 16512, Note_on_c, 0, 69, 64
1, 16512, Note_on_c, 1, 54, 78
1, 16536, Note_on_c, 0, 69, 0
1, 16536, Note_on_c, 0, 62, 64
1, 16557, Note_on_c, 1, 54, 0
1, 16559, Note_on_c, 0, 62, 0
1, 16560, Note_on_c, 0, 68, 64
1, 16560, Note_on_c, 1, 53, 78
1, 16584, Note_on_c, 0, 68, 0
1, 16584, Note_on_c, 0, 62, 64
1, 16605, Note_on_c, 1, 53, 0
1, 16607, Note_on_c, 0, 62, 0
1, 16608, Note_on_c, 0, 69, 64
1, 16608, Note_on_c, 1, 54, 78
1, 16632, Note_on_c, 0, 69, 0
1, 16632, Note_on_c, 0, 62, 64
1, 16653, Note_on_c, 1, 54, 0
1, 16655, Note_on_c, 0, 62, 0
1, 16656, Note_on_c, 0, 72, 64
1, 16656, Note_on_c, 1, 57, 78
1, 16680, Note_on_c, 0, 72, 0
1, 16680, Note_on_c, 0, 62, 64
1, 16701, Note_on_c, 1, 57, 0
1, 16703, Note_on_c, 0, 62, 0
1, 16704, Note_on_c, 0, 71, 64
1, 16704, Note_on_c, 1, 55, 78
1, 16728, Note_on_c, 0, 71, 0
1, 16728, Note_on_c, 0, 62, 64
1, 16749, Note_on_c, 1, 55, 0
1, 16751, Note_on_c, 0, 62, 0
1, 16752, Note_on_c, 0, 70, 64
1, 16752, Note_on_c, 1, 54, 78
1, 16776, Note_on_c, 0, 70, 0
1, 16776, Note_on_c, 0, 62, 64
1, 16797, Note_on_c, 1, 54, 0
1, 16799, Note_on_c, 0, 62, 0
1, 16800, Note_on_c, 0, 71, 64
1, 16800, Note_on_c, 1, 55, 78
1, 16824, Note_on_c, 0, 71, 0
1, 16824, Note_on_c, 0, 62, 64
1, 16845, Note_on_c, 1, 55, 0
1, 16847, Note_on_c, 0, 62, 0
1, 16848, Note_on_c, 0, 74, 64
1, 16848, Note_on_c, 1, 59, 78
1, 16866, Note_on_c, 1, 50, 0
1, 16872, Note_on_c, 0, 74, 0
1, 16872, Note_on_c, 0, 62, 64
1, 16893, Note_on_c, 1, 59, 0
1, 16895, Note_on_c, 0, 62, 0
1, 16896, Note_on_c, 0, 69, 64
1, 16896, Note_on_c, 1, 54, 78
1, 16896, Note_on_c, 1, 50, 64
1, 16920, Note_on_c, 0, 69, 0
1, 16920, Note_on_c, 0, 62, 64
1, 16941, Note_on_c, 1, 54, 0
1, 16943, Note_on_c, 0, 62, 0
1, 16944, Note_on_c, 0, 68, 64
1, 16944, Note_on_c, 1, 53, 78
1, 16968, Note_on_c, 0, 68, 0
1, 16968, Note_on_c, 0, 62, 64
1, 16989, Note_on_c, 1, 53, 0
1, 16991, Note_on_c, 0, 62, 0
1, 16992, Note_on_c, 0, 69, 64
1, 16992, Note_on_c, 1, 54, 78
1, 17016, Note_on_c, 0, 69, 0
1, 17016, Note_on_c, 0, 62, 64
1, 17037, Note_on_c, 1, 54, 0
1, 17039, Note_on_c, 0, 62, 0
1, 17040, Note_on_c, 0, 72, 64
1, 17040, Note_on_c, 1, 57, 78
1, 17064, Note_on_c, 0, 72, 0
1, 17064, Note_on_c, 0, 62, 64
1, 17073, Note_on_c, 1, 50, 0
1, 17085, Note_on_c, 1, 57, 0
1, 17087, Note_on_c, 0, 62, 0
1, 17088, Note_on_c, 0, 71, 64
1, 17088, Note_on_c, 1, 55, 78
1, 17111, Note_on_c, 1, 55, 0
1, 17112, Note_on_c, 0, 71, 0
1, 17112, Note_on_c, 0, 62, 64
1, 17112, Note_on_c, 1, 59, 78
1, 17135, Note_on_c, 0, 62, 0
1, 17135, Note_on_c, 1, 59, 0
1, 17136, Note_on_c, 0, 71, 64
1, 17136, Note_on_c, 1, 55, 78
1, 17159, Note_on_c, 1, 55, 0
1, 17160, Note_on_c, 0, 71, 0
1, 17160, Note_on_c, 0, 62, 64
1, 17160, Note_on_c, 1, 59, 78
1, 17183, Note_on_c, 0, 62, 0
1, 17183, Note_on_c, 1, 59, 0
1, 17184, Note_on_c, 0, 69, 64
1, 17184, Note_on_c, 1, 54, 78
1, 17207, Note_on_c, 1, 54, 0
1, 17208, Note_on_c, 0, 69, 0
1, 17208, Note_on_c, 0, 63, 64
1, 17208, Note_on_c, 1, 60, 78
1, 17231, Note_on_c, 0, 63, 0
1, 17231, Note_on_c, 1, 60, 0
1, 17232, Note_on_c, 0, 69, 64
1, 17232, Note_on_c, 1, 54, 78
1, 17255, Note_on_c, 1, 54, 0
1, 17256, Note_on_c, 0, 69, 0
1, 17256, Note_on_c, 0, 63, 64
1, 17256, Note_on_c, 1, 60, 78
1, 17279, Note_on_c, 0, 63, 0
1, 17279, Note_on_c, 1, 60, 0
1, 17280, Note_on_c, 0, 67, 64
1, 17280, Note_on_c, 1, 55, 78
1, 17303, Note_on_c, 0, 67, 0
1, 17303, Note_on_c, 1, 55, 0
1, 17304, Note_on_c, 0, 64, 64
1, 17304, Note_on_c, 1, 59, 78
1, 17327, Note_on_c, 0, 64, 0
1, 17327, Note_on_c, 1, 59, 0
1, 17328, Note_on_c, 0, 67, 64
1, 17328, Note_on_c, 1, 55, 78
1, 17351, Note_on_c, 0, 67, 0
1, 17351, Note_on_c, 1, 55, 0
1, 17352, Note_on_c, 0, 64, 64
1, 17352, Note_on_c, 1, 59, 78
1, 17375, Note_on_c, 0, 64, 0
1, 17375, Note_on_c, 1, 59, 0
1, 17376, Note_on_c, 0, 66, 64
1, 17376, Note_on_c, 1, 57, 78
1, 17399, Note_on_c, 0, 66, 0
1, 17399, Note_on_c, 1, 57, 0
1, 17400, Note_on_c, 0, 63, 64
1, 17400, Note_on_c, 1, 60, 78
1, 17423, Note_on_c, 0, 63, 0
1, 17423, Note_on_c, 1, 60, 0
1, 17424, Note_on_c, 0, 66, 64
1, 17424, Note_on_c, 1, 57, 78
1, 17447, Note_on_c, 0, 66, 0
1, 17447, Note_on_c, 1, 57, 0
1, 17448, Note_on_c, 0, 63, 64
1, 17448, Note_on_c, 1, 60, 78
1, 17471, Note_on_c, 0, 63, 0
1, 17471, Note_on_c, 1, 60, 0
1, 17472, Note_on_c, 0, 67, 64
1, 17472, Note_on_c, 1, 55, 78
1, 17495, Note_on_c, 0, 67, 0
1, 17495, Note_on_c, 1, 55, 0
1, 17496, Note_on_c, 0, 64, 64
1, 17496, Note_on_c, 1, 59, 78
1, 17519, Note_on_c, 0, 64, 0
1, 17519, Note_on_c, 1, 59, 0
1, 17520, Note_on_c, 0, 67, 64
1, 17520, Note_on_c, 1, 55, 78
1, 17543, Note_on_c, 0, 67, 0
1, 17543, Note_on_c, 1, 55, 0
1, 17544, Note_on_c, 0, 64, 64
1, 17544, Note_on_c, 1, 59, 78
1, 17567, Note_on_c, 0, 64, 0
1, 17567, Note_on_c, 1, 59, 0
1, 17568, Note_on_c, 0, 66, 64
1, 17568, Note_on_c, 1, 56, 78
1, 17591, Note_on_c, 0, 66, 0
1, 17591, Note_on_c, 1, 56, 0
1, 17592, Note_on_c, 0, 62, 64
1, 17592, Note_on_c, 1, 59, 78
1, 17615, Note_on_c, 0, 62, 0
1, 17615, Note_on_c, 1, 59, 0
1, 17616, Note_on_c, 0, 66, 64
1, 17616, Note_on_c, 1, 56, 78
1, 17639, Note_on_c, 0, 66, 0
1, 17639, Note_on_c, 1, 56, 0
1, 17640, Note_on_c, 0, 62, 64
1, 17640, Note_on_c, 1, 59, 78
1, 17663, Note_on_c, 0, 62, 0
1, 17663, Note_on_c, 1, 59, 0
1, 17664, Note_on_c, 0, 61, 64
1, 17664, Note_on_c, 1, 45, 78
1, 17687, Note_on_c, 1, 45, 0
1, 17688, Note_on_c, 1, 57, 78
1, 17709, Note_on_c, 0, 61, 0
1, 17711, Note_on_c, 1, 57, 0
1, 17712, Note_on_c, 0, 62, 64
1, 17712, Note_on_c, 1, 47, 78
1, 17735, Note_on_c, 1, 47, 0
1, 17736, Note_on_c, 1, 57, 78
1, 17757, Note_on_c, 0, 62, 0
1, 17759, Note_on_c, 1, 57, 0
1, 17760, Note_on_c, 0, 64, 64
1, 17760, Note_on_c, 1, 49, 78
1, 17783, Note_on_c, 1, 49, 0
1, 17784, Note_on_c, 1, 57, 78
1, 17805, Note_on_c, 0, 64, 0
1, 17807, Note_on_c, 1, 57, 0
1, 17808, Note_on_c, 0, 67, 64
1, 17808, Note_on_c, 1, 50, 78
1, 17820, Note_on_c, 0, 67, 0
1, 17820, Note_on_c, 0, 66, 64
1, 17831, Note_on_c, 1, 50, 0
1, 17832, Note_on_c, 0, 66, 0
1, 17832, Note_on_c, 0, 64, 64
1, 17832, Note_on_c, 1, 57, 78
1, 17844, Note_on_c, 0, 64, 0
1, 17844, Note_on_c, 0, 66, 64
1, 17855, Note_on_c, 1, 57, 0
1, 17856, Note_on_c, 0, 66, 0
1, 17856, Note_on_c, 0, 67, 64
1, 17856, Note_on_c, 1, 52, 78
1, 17879, Note_on_c, 1, 52, 0
1, 17880, Note_on_c, 1, 57, 78
1, 17901, Note_on_c, 0, 67, 0
1, 17903, Note_on_c, 1, 57, 0
1, 17904, Note_on_c, 0, 66, 64
1, 17904, Note_on_c, 1, 51, 78
1, 17927, Note_on_c, 1, 51, 0
1, 17928, Note_on_c, 1, 57, 78
1, 17949, Note_on_c, 0, 66, 0
1, 17951, Note_on_c, 1, 57, 0
1, 17952, Note_on_c, 0, 67, 64
1, 17952, Note_on_c, 1, 52, 78
1, 17975, Note_on_c, 1, 52, 0
1, 17976, Note_on_c, 1, 57, 78
1, 17997, Note_on_c, 0, 67, 0
1, 17999, Note_on_c, 1, 57, 0
1, 18000, Note_on_c, 0, 64, 64
1, 18000, Note_on_c, 1, 49, 78
1, 18023, Note_on_c, 1, 49, 0
1, 18024, Note_on_c, 1, 57, 78
1, 18045, Note_on_c, 0, 64, 0
1, 18047, Note_on_c, 1, 57, 0
1, 18048, Note_on_c, 0, 66, 64
1, 18048, Note_on_c, 1, 50, 78
1, 18071, Note_on_c, 0, 66, 0
1, 18072, Note_on_c, 0, 62, 64
1, 18093, Note_on_c, 1, 50, 0
1, 18095, Note_on_c, 0, 62, 0
1, 18096, Note_on_c, 0, 67, 64
1, 18096, Note_on_c, 1, 52, 78
1, 18119, Note_on_c, 0, 67, 0
1, 18120, Note_on_c, 0, 62, 64
1, 18141, Note_on_c, 1, 52, 0
1, 18143, Note_on_c, 0, 62, 0
1, 18144, Note_on_c, 0, 69, 64
1, 18144, Note_on_c, 1, 54, 78
1, 18167, Note_on_c, 0, 69, 0
1, 18168, Note_on_c, 0, 62, 64
1, 18189, Note_on_c, 1, 54, 0
1, 18191, Note_on_c, 0, 62, 0
1, 18192, Note_on_c, 0, 72, 64
1, 18192, Note_on_c, 1, 55, 78
1, 18204, Note_on_c, 0, 72, 0
1, 18204, Note_on_c, 0, 71, 64
1, 18216, Note_on_c, 0, 71, 0
1, 18216, Note_on_c, 0, 69, 64
1, 18216, Note_on_c, 0, 62, 64
1, 18228, Note_on_c, 0, 69, 0
1, 18228, Note_on_c, 0, 71, 64
1, 18237, Note_on_c, 1, 55, 0
1, 18239, Note_on_c, 0, 62, 0
1, 18240, Note_on_c, 0, 71, 0
1, 18240, Note_on_c, 0, 72, 64
1, 18240, Note_on_c, 1, 57, 78
1, 18263, Note_on_c, 0, 72, 0
1, 18264, Note_on_c, 0, 62, 64
1, 18285, Note_on_c, 1, 57, 0
1, 18287, Note_on_c, 0, 62, 0
1, 18288, Note_on_c, 0, 71, 64
1, 18288, Note_on_c, 1, 56, 78
1, 18311, Note_on_c, 0, 71, 0
1, 18312, Note_on_c, 0, 62, 64
1, 18333, Note_on_c, 1, 56, 0
1, 18335, Note_on_c, 0, 62, 0
1, 18336, Note_on_c, 0, 72, 64
1, 18336, Note_on_c, 1, 57, 78
1, 18359, Note_on_c, 0, 72, 0
1, 18360, Note_on_c, 0, 62, 64
1, 18381, Note_on_c, 1, 57, 0
1, 18383, Note_on_c, 0, 62, 0
1, 18384, Note_on_c, 0, 69, 64
1, 18384, Note_on_c, 1, 54, 78
1, 18407, Note_on_c, 0, 69, 0
1, 18408, Note_on_c, 0, 62, 64
1, 18429, Note_on_c, 1, 54, 0
1, 18431, Note_on_c, 0, 62, 0
1, 18432, Note_on_c, 0, 71, 64
1, 18432, Note_on_c, 1, 55, 78
1, 18455, Note_on_c, 0, 71, 0
1, 18456, Note_on_c, 0, 62, 64
1, 18477, Note_on_c, 1, 55, 0
1, 18479, Note_on_c, 0, 62, 0
1, 18480, Note_on_c, 0, 70, 64
1, 18480, Note_on_c, 1, 54, 78
1, 18503, Note_on_c, 0, 70, 0
1, 18504, Note_on_c, 0, 62, 64
1, 18525, Note_on_c, 1, 54, 0
1, 18527, Note_on_c, 0, 62, 0
1, 18528, Note_on_c, 0, 71, 64
1, 18528, Note_on_c, 1, 55, 78
1, 18551, Note_on_c, 0, 71, 0
1, 18552, Note_on_c, 0, 62, 64
1, 18573, Note_on_c, 1, 55, 0
1, 18575, Note_on_c, 0, 62, 0
1, 18576, Note_on_c, 0, 74, 64
1, 18576, Note_on_c, 1, 67, 78
1, 18588, Note_on_c, 0, 74, 0
1, 18588, Note_on_c, 0, 73, 64
1, 18600, Note_on_c, 0, 73, 0
1, 18600, Note_on_c, 0, 71, 64
1, 18600, Note_on_c, 0, 64, 64
1, 18612, Note_on_c, 0, 71, 0
1, 18612, Note_on_c, 0, 73, 64
1, 18621, Note_on_c, 1, 67, 0
1, 18623, Note_on_c, 0, 64, 0
1, 18624, Note_on_c, 0, 73, 0
1, 18624, Note_on_c, 0, 74, 64
1, 18624, Note_on_c, 1, 66, 78
1, 18647, Note_on_c, 0, 74, 0
1, 18648, Note_on_c, 0, 62, 64
1, 18669, Note_on_c, 1, 66, 0
1, 18671, Note_on_c, 0, 62, 0
1, 18672, Note_on_c, 0, 76, 64
1, 18672, Note_on_c, 1, 61, 78
1, 18695, Note_on_c, 0, 76, 0
1, 18696, Note_on_c, 0, 69, 64
1, 18717, Note_on_c, 1, 61, 0
1, 18719, Note_on_c, 0, 69, 0
1, 18720, Note_on_c, 0, 78, 64
1, 18720, Note_on_c, 1, 62, 78
1, 18743, Note_on_c, 0, 78, 0
1, 18744, Note_on_c, 0, 69, 64
1, 18765, Note_on_c, 1, 62, 0
1, 18767, Note_on_c, 0, 69, 0
1, 18768, Note_on_c, 0, 81, 64
1, 18768, Note_on_c, 1, 64, 78
1, 18780, Note_on_c, 0, 81, 0
1, 18780, Note_on_c, 0, 79, 64
1, 18792, Note_on_c, 0, 79, 0
1, 18792, Note_on_c, 0, 78, 64
1, 18792, Note_on_c, 0, 64, 64
1, 18804, Note_on_c, 0, 78, 0
1, 18804, Note_on_c, 0, 79, 64
1, 18813, Note_on_c, 1, 64, 0
1, 18815, Note_on_c, 0, 64, 0
1, 18816, Note_on_c, 0, 79, 0
1, 18816, Note_on_c, 0, 81, 64
1, 18816, Note_on_c, 1, 66, 78
1, 18836, Note_on_c, 0, 81, 0
1, 18864, Note_on_c, 0, 86, 64
1, 18879, Note_on_c, 0, 86, 0
1, 18880, Note_on_c, 0, 85, 64
1, 18895, Note_on_c, 0, 85, 0
1, 18896, Note_on_c, 0, 83, 64
1, 18905, Note_on_c, 1, 66, 0
1, 18911, Note_on_c, 0, 83, 0
1, 18912, Note_on_c, 0, 81, 64
1, 18927, Note_on_c, 0, 81, 0
1, 18928, Note_on_c, 0, 79, 64
1, 18943, Note_on_c, 0, 79, 0
1, 18944, Note_on_c, 0, 78, 64
1, 18959, Note_on_c, 0, 78, 0
1, 18960, Note_on_c, 0, 76, 64
1, 18975, Note_on_c, 0, 76, 0
1, 18976, Note_on_c, 0, 74, 64
1, 18991, Note_on_c, 0, 74, 0
1, 18992, Note_on_c, 0, 73, 64
1, 19007, Note_on_c, 0, 73, 0
1, 19008, Note_on_c, 0, 71, 64
1, 19008, Note_on_c, 1, 55, 78
1, 19028, Note_on_c, 0, 71, 0
1, 19056, Note_on_c, 0, 66, 64
1, 19071, Note_on_c, 0, 66, 0
1, 19072, Note_on_c, 0, 67, 64
1, 19087, Note_on_c, 0, 67, 0
1, 19088, Note_on_c, 0, 69, 64
1, 19097, Note_on_c, 1, 55, 0
1, 19103, Note_on_c, 0, 69, 0
1, 19104, Note_on_c, 0, 71, 64
1, 19119, Note_on_c, 0, 71, 0
1, 19120, Note_on_c, 0, 73, 64
1, 19135, Note_on_c, 0, 73, 0
1, 19136, Note_on_c, 0, 74, 64
1, 19151, Note_on_c, 0, 74, 0
1, 19152, Note_on_c, 0, 76, 64
1, 19167, Note_on_c, 0, 76, 0
1, 19168, Note_on_c, 0, 78, 64
1, 19183, Note_on_c, 0, 78, 0
1, 19184, Note_on_c, 0, 79, 64
1, 19199, Note_on_c, 0, 79, 0
1, 19200, Note_on_c, 0, 81, 64
1, 19245, Note_on_c, 0, 81, 0
1, 19248, Note_on_c, 0, 78, 64
1, 19248, Note_on_c, 1, 54, 78
1, 19263, Note_on_c, 0, 78, 0
1, 19264, Note_on_c, 0, 76, 64
1, 19279, Note_on_c, 0, 76, 0
1, 19280, Note_on_c, 0, 74, 64
1, 19293, Note_on_c, 1, 54, 0
1, 19295, Note_on_c, 0, 74, 0
1, 19296, Note_on_c, 0, 78, 64
1, 19296, Note_on_c, 1, 55, 78
1, 19304, Note_on_c, 0, 78, 0
1, 19304, Note_on_c, 0, 76, 64
1, 19312, Note_on_c, 0, 76, 0
1, 19312, Note_on_c, 0, 78, 64
1, 19320, Note_on_c, 0, 78, 0
1, 19320, Note_on_c, 0, 76, 64
1, 19328, Note_on_c, 0, 76, 0
1, 19328, Note_on_c, 0, 78, 64
1, 19336, Note_on_c, 0, 78, 0
1, 19336, Note_on_c, 0, 76, 64
1, 19341, Note_on_c, 1, 55, 0
1, 19344, Note_on_c, 0, 76, 0
1, 19344, Note_on_c, 0, 78, 64
1, 19344, Note_on_c, 1, 57, 78
1, 19352, Note_on_c, 0, 78, 0
1, 19352, Note_on_c, 0, 76, 64
1, 19360, Note_on_c, 0, 76, 0
1, 19360, Note_on_c, 0, 78, 64
1, 19368, Note_on_c, 0, 78, 0
1, 19368, Note_on_c, 0, 76, 64
1, 19376, Note_on_c, 0, 76, 0
1, 19376, Note_on_c, 0, 74, 64
1, 19384, Note_on_c, 0, 74, 0
1, 19384, Note_on_c, 0, 76, 64
1, 19389, Note_on_c, 1, 57, 0
1, 19392, Note_on_c, 0, 76, 0
1, 19392, Note_on_c, 0, 74, 64
1, 19392, Note_on_c, 1, 50, 78
1, 19412, Note_on_c, 0, 74, 0
1, 19440, Note_on_c, 0, 86, 64
1, 19455, Note_on_c, 0, 86, 0
1, 19456, Note_on_c, 0, 85, 64
1, 19471, Note_on_c, 0, 85, 0
1, 19472, Note_on_c, 0, 83, 64
1, 19481, Note_on_c, 1, 50, 0
1, 19487, Note_on_c, 0, 83, 0
1, 19488, Note_on_c, 0, 81, 64
1, 19503, Note_on_c, 0, 81, 0
1, 19504, Note_on_c, 0, 79, 64
1, 19519, Note_on_c, 0, 79, 0
1, 19520, Note_on_c, 0, 78, 64
1, 19535, Note_on_c, 0, 78, 0
1, 19536, Note_on_c, 0, 76, 64
1, 19551, Note_on_c, 0, 76, 0
1, 19552, Note_on_c, 0, 74, 64
1, 19567, Note_on_c, 0, 74, 0
1, 19568, Note_on_c, 0, 73, 64
1, 19583, Note_on_c, 0, 73, 0
1, 19584, Note_on_c, 0, 71, 64
1, 19584, Note_on_c, 1, 55, 78
1, 19604, Note_on_c, 0, 71, 0
1, 19632, Note_on_c, 0, 66, 64
1, 19647, Note_on_c, 0, 66, 0
1, 19648, Note_on_c, 0, 67, 64
1, 19663, Note_on_c, 0, 67, 0
1, 19664, Note_on_c, 0, 69, 64
1, 19673, Note_on_c, 1, 55, 0
1, 19679, Note_on_c, 0, 69, 0
1, 19680, Note_on_c, 0, 71, 64
1, 19695, Note_on_c, 0, 71, 0
1, 19696, Note_on_c, 0, 73, 64
1, 19711, Note_on_c, 0, 73, 0
1, 19712, Note_on_c, 0, 74, 64
1, 19727, Note_on_c, 0, 74, 0
1, 19728, Note_on_c, 0, 76, 64
1, 19743, Note_on_c, 0, 76, 0
1, 19744, Note_on_c, 0, 78, 64
1, 19759, Note_on_c, 0, 78, 0
1, 19760, Note_on_c, 0, 79, 64
1, 19775, Note_on_c, 0, 79, 0
1, 19776, Note_on_c, 0, 81, 64
1, 19796, Note_on_c, 0, 81, 0
1, 19824, Note_on_c, 0, 78, 64
1, 19824, Note_on_c, 1, 54, 78
1, 19839, Note_on_c, 0, 78, 0
1, 19840, Note_on_c, 0, 76, 64
1, 19855, Note_on_c, 0, 76, 0
1, 19856, Note_on_c, 0, 74, 64
1, 19869, Note_on_c, 1, 54, 0
1, 19871, Note_on_c, 0, 74, 0
1, 19872, Note_on_c, 0, 78, 64
1, 19872, Note_on_c, 1, 55, 78
1, 19880, Note_on_c, 0, 78, 0
1, 19880, Note_on_c, 0, 76, 64
1, 19888, Note_on_c, 0, 76, 0
1, 19888, Note_on_c, 0, 78, 64
1, 19896, Note_on_c, 0, 78, 0
1, 19896, Note_on_c, 0, 76, 64
1, 19904, Note_on_c, 0, 76, 0
1, 19904, Note_on_c, 0, 78, 64
1, 19912, Note_on_c, 0, 78, 0
1, 19912, Note_on_c, 0, 76, 64
1, 19917, Note_on_c, 1, 55, 0
1, 19920, Note_on_c, 0, 76, 0
1, 19920, Note_on_c, 0, 78, 64
1, 19920, Note_on_c, 1, 57, 78
1, 19928, Note_on_c, 0, 78, 0
1, 19928, Note_on_c, 0, 76, 64
1, 19936, Note_on_c, 0, 76, 0
1, 19936, Note_on_c, 0, 78, 64
1, 19944, Note_on_c, 0, 78, 0
1, 19944, Note_on_c, 0, 76, 64
1, 19952, Note_on_c, 0, 76, 0
1, 19952, Note_on_c, 0, 74, 64
1, 19960, Note_on_c, 0, 74, 0
1, 19960, Note_on_c, 0, 76, 64
1, 19965, Note_on_c, 1, 57, 0
1, 19968, Note_on_c, 0, 76, 0
1, 19968, Note_on_c, 0, 74, 64
1, 19968, Note_on_c, 1, 50, 78
1, 19988, Note_on_c, 0, 74, 0
1, 20013, Note_on_c, 1, 50, 0
1, 20016, Note_on_c, 0, 66, 64
1, 20016, Note_on_c, 1, 62, 78
1, 20039, Note_on_c, 0, 66, 0
1, 20040, Note_on_c, 0, 74, 64
1, 20061, Note_on_c, 1, 62, 0
1, 20063, Note_on_c, 0, 74, 0
1, 20064, Note_on_c, 0, 67, 64
1, 20064, Note_on_c, 1, 64, 78
1, 20087, Note_on_c, 0, 67, 0
1, 20088, Note_on_c, 0, 74, 64
1, 20109, Note_on_c, 1, 64, 0
1, 20111, Note_on_c, 0, 74, 0
1, 20112, Note_on_c, 0, 69, 64
1, 20112, Note_on_c, 1, 66, 78
1, 20135, Note_on_c, 0, 69, 0
1, 20136, Note_on_c, 0, 74, 64
1, 20157, Note_on_c, 1, 66, 0
1, 20159, Note_on_c, 0, 74, 0
1, 20160, Note_on_c, 0, 71, 64
1, 20160, Note_on_c, 1, 67, 78
1, 20183, Note_on_c, 0, 71, 0
1, 20184, Note_on_c, 0, 74, 64
1, 20205, Note_on_c, 1, 67, 0
1, 20207, Note_on_c, 0, 74, 0
1, 20208, Note_on_c, 0, 70, 64
1, 20208, Note_on_c, 1, 66, 78
1, 20231, Note_on_c, 0, 70, 0
1, 20232, Note_on_c, 0, 74, 64
1, 20253, Note_on_c, 1, 66, 0
1, 20255, Note_on_c, 0, 74, 0
1, 20256, Note_on_c, 0, 71, 64
1, 20256, Note_on_c, 1, 67, 78
1, 20279, Note_on_c, 0, 71, 0
1, 20280, Note_on_c, 0, 74, 64
1, 20301, Note_on_c, 1, 67, 0
1, 20303, Note_on_c, 0, 74, 0
1, 20304, Note_on_c, 0, 73, 64
1, 20304, Note_on_c, 1, 69, 78
1, 20327, Note_on_c, 0, 73, 0
1, 20328, Note_on_c, 0, 79, 64
1, 20349, Note_on_c, 1, 69, 0
1, 20351, Note_on_c, 0, 79, 0
1, 20352, Note_on_c, 0, 78, 64
1, 20352, Note_on_c, 1, 71, 78
1, 20375, Note_on_c, 0, 78, 0
1, 20376, Note_on_c, 0, 74, 64
1, 20397, Note_on_c, 1, 71, 0
1, 20399, Note_on_c, 0, 74, 0
1, 20400, Note_on_c, 0, 67, 64
1, 20400, Note_on_c, 1, 55, 78
1, 20423, Note_on_c, 0, 67, 0
1, 20424, Note_on_c, 0, 76, 64
1, 20445, Note_on_c, 1, 55, 0
1, 20447, Note_on_c, 0, 76, 0
1, 20448, Note_on_c, 0, 66, 64
1, 20448, Note_on_c, 1, 57, 78
1, 20471, Note_on_c, 0, 66, 0
1, 20472, Note_on_c, 0, 74, 64
1, 20493, Note_on_c, 1, 57, 0
1, 20495, Note_on_c, 0, 74, 0
1, 20496, Note_on_c, 0, 64, 64
1, 20496, Note_on_c, 1, 45, 78
1, 20519, Note_on_c, 0, 64, 0
1, 20520, Note_on_c, 0, 73, 64
1, 20541, Note_on_c, 1, 45, 0
1, 20543, Note_on_c, 0, 73, 0
1, 20544, Note_on_c, 0, 74, 64
1, 20544, Note_on_c, 0, 66, 64
1, 20544, Note_on_c, 1, 50, 78
1, 20589, Note_on_c, 0, 74, 0
1, 20589, Note_on_c, 0, 66, 0
1, 20589, Note_on_c, 1, 50, 0
1, 20592, Note_on_c, 0, 66, 64
1, 20592, Note_on_c, 1, 38, 78
1, 20615, Note_on_c, 0, 66, 0
1, 20615, Note_on_c, 1, 38, 0
1, 20616, Note_on_c, 0, 74, 64
1, 20616, Note_on_c, 1, 50, 78
1, 20639, Note_on_c, 0, 74, 0
1, 20639, Note_on_c, 1, 50, 0
1, 20640, Note_on_c, 0, 67, 64
1, 20640, Note_on_c, 1, 40, 78
1, 20663, Note_on_c, 0, 67, 0
1, 20663, Note_on_c, 1, 40, 0
1, 20664, Note_on_c, 0, 74, 64
1, 20664, Note_on_c, 1, 50, 78
1, 20687, Note_on_c, 0, 74, 0
1, 20687, Note_on_c, 1, 50, 0
1, 20688, Note_on_c, 0, 69, 64
1, 20688, Note_on_c, 1, 42, 78
1, 20711, Note_on_c, 0, 69, 0
1, 20711, Note_on_c, 1, 42, 0
1, 20712, Note_on_c, 0, 74, 64
1, 20712, Note_on_c, 1, 50, 78
1, 20735, Note_on_c, 0, 74, 0
1, 20735, Note_on_c, 1, 50, 0
1, 20736, Note_on_c, 0, 71, 64
1, 20736, Note_on_c, 1, 43, 78
1, 20759, Note_on_c, 0, 71, 0
1, 20759, Note_on_c, 1, 43, 0
1, 20760, Note_on_c, 0, 74, 64
1, 20760, Note_on_c, 1, 50, 78
1, 20783, Note_on_c, 0, 74, 0
1, 20783, Note_on_c, 1, 50, 0
1, 20784, Note_on_c, 0, 70, 64
1, 20784, Note_on_c, 1, 42, 78
1, 20807, Note_on_c, 0, 70, 0
1, 20807, Note_on_c, 1, 42, 0
1, 20808, Note_on_c, 0, 74, 64
1, 20808, Note_on_c, 1, 50, 78
1, 20831, Note_on_c, 0, 74, 0
1, 20831, Note_on_c, 1, 50, 0
1, 20832, Note_on_c, 0, 71, 64
1, 20832, Note_on_c, 1, 43, 78
1, 20855, Note_on_c, 0, 71, 0
1, 20855, Note_on_c, 1, 43, 0
1, 20856, Note_on_c, 0, 74, 64
1, 20856, Note_on_c, 1, 50, 78
1, 20879, Note_on_c, 0, 74, 0
1, 20879, Note_on_c, 1, 50, 0
1, 20880, Note_on_c, 0, 73, 64
1, 20880, Note_on_c, 1, 45, 78
1, 20903, Note_on_c, 0, 73, 0
1, 20903, Note_on_c, 1, 45, 0
1, 20904, Note_on_c, 0, 79, 64
1, 20904, Note_on_c, 1, 57, 78
1, 20927, Note_on_c, 0, 79, 0
1, 20927, Note_on_c, 1, 57, 0
1, 20928, Note_on_c, 0, 78, 64
1, 20928, Note_on_c, 1, 47, 78
1, 20951, Note_on_c, 0, 78, 0
1, 20951, Note_on_c, 1, 47, 0
1, 20952, Note_on_c, 0, 74, 64
1, 20952, Note_on_c, 1, 59, 78
1, 20975, Note_on_c, 0, 74, 0
1, 20975, Note_on_c, 1, 59, 0
1, 20976, Note_on_c, 0, 67, 64
1, 20976, Note_on_c, 1, 55, 78
1, 20999, Note_on_c, 0, 67, 0
1, 21000, Note_on_c, 0, 76, 64
1, 21021, Note_on_c, 1, 55, 0
1, 21023, Note_on_c, 0, 76, 0
1, 21024, Note_on_c, 0, 66, 64
1, 21024, Note_on_c, 1, 57, 78
1, 21047, Note_on_c, 0, 66, 0
1, 21048, Note_on_c, 0, 74, 64
1, 21069, Note_on_c, 1, 57, 0
1, 21071, Note_on_c, 0, 74, 0
1, 21072, Note_on_c, 0, 64, 64
1, 21072, Note_on_c, 1, 45, 78
1, 21095, Note_on_c, 0, 64, 0
1, 21096, Note_on_c, 0, 73, 64
1, 21117, Note_on_c, 1, 45, 0
1, 21119, Note_on_c, 0, 73, 0
1, 21120, Note_on_c, 0, 74, 64
1, 21120, Note_on_c, 0, 66, 64
1, 21120, Note_on_c, 1, 50, 78
1, 21140, Note_on_c, 0, 74, 0
1, 21140, Note_on_c, 0, 66, 0
1, 21168, Note_on_c, 0, 79, 64
1, 21168, Note_on_c, 0, 74, 64
1, 21180, Note_on_c, 0, 79, 0
1, 21180, Note_on_c, 0, 78, 64
1, 21188, Note_on_c, 0, 74, 0
1, 21192, Note_on_c, 0, 78, 0
1, 21192, Note_on_c, 0, 76, 64
1, 21204, Note_on_c, 0, 76, 0
1, 21204, Note_on_c, 0, 78, 64
1, 21209, Note_on_c, 1, 50, 0
1, 21216, Note_on_c, 0, 78, 0
1, 21216, Note_on_c, 0, 81, 64
1, 21216, Note_on_c, 0, 78, 64
1, 21236, Note_on_c, 0, 81, 0
1, 21236, Note_on_c, 0, 78, 0
1, 21264, Note_on_c, 0, 78, 64
1, 21264, Note_on_c, 0, 74, 64
1, 21284, Note_on_c, 0, 78, 0
1, 21284, Note_on_c, 0, 74, 0
1, 21312, Note_on_c, 0, 86, 64
1, 21312, Note_on_c, 0, 81, 64
1, 21312, Note_on_c, 0, 78, 64
1, 21312, Note_on_c, 0, 74, 64
1, 21312, Note_on_c, 1, 50, 78
1, 21312, Note_on_c, 1, 45, 78
1, 21312, Note_on_c, 1, 42, 78
1, 21312, Note_on_c, 1, 38, 78
1, 21401, Note_on_c, 0, 86, 0
1, 21401, Note_on_c, 0, 81, 0
1, 21401, Note_on_c, 0, 78, 0
1, 21401, Note_on_c, 0, 74, 0
1, 21401, Note_on_c, 1, 50, 0
1, 21401, Note_on_c, 1, 45, 0
1, 21401, Note_on_c, 1, 42, 0
1, 21401, Note_on_c, 1, 38, 0
1, 21504, Note_on_c, 0, 60, 64
1, 21516, Note_on_c, 0, 60, 0
1, 21516, Note_on_c, 0, 59, 64
1, 21528, Note_on_c, 0, 59, 0
1, 21528, Note_on_c, 0, 60, 64
1, 21552, Note_on_c, 1, 50, 78
1, 21572, Note_on_c, 1, 50, 0
1, 21600, Note_on_c, 1, 54, 78
1, 21620, Note_on_c, 1, 54, 0
1, 21648, Note_on_c, 1, 50, 78
1, 21668, Note_on_c, 1, 50, 0
1, 21683, Note_on_c, 0, 60, 0
1, 21696, Note_on_c, 0, 69, 64
1, 21708, Note_on_c, 0, 69, 0
1, 21708, Note_on_c, 0, 68, 64
1, 21720, Note_on_c, 0, 68, 0
1, 21720, Note_on_c, 0, 69, 64
1, 21744, Note_on_c, 1, 48, 78
1, 21764, Note_on_c, 1, 48, 0
1, 21792, Note_on_c, 1, 54, 78
1, 21812, Note_on_c, 1, 54, 0
1, 21840, Note_on_c, 1, 48, 78
1, 21860, Note_on_c, 1, 48, 0
1, 21875, Note_on_c, 0, 69, 0
1, 21888, Note_on_c, 0, 78, 64
1, 21900, Note_on_c, 0, 78, 0
1, 21900, Note_on_c, 0, 77, 64
1, 21912, Note_on_c, 0, 77, 0
1, 21912, Note_on_c, 0, 78, 64
1, 21936, Note_on_c, 1, 45, 78
1, 21956, Note_on_c, 1, 45, 0
1, 21984, Note_on_c, 1, 51, 78
1, 22004, Note_on_c, 1, 51, 0
1, 22032, Note_on_c, 1, 45, 78
1, 22052, Note_on_c, 1, 45, 0
1, 22067, Note_on_c, 0, 78, 0
1, 22080, Note_on_c, 0, 84, 64
1, 22128, Note_on_c, 1, 42, 78
1, 22148, Note_on_c, 1, 42, 0
1, 22176, Note_on_c, 1, 51, 78
1, 22196, Note_on_c, 1, 51, 0
1, 22213, Note_on_c, 0, 84, 0
1, 22224, Note_on_c, 0, 63, 64
1, 22224, Note_on_c, 1, 57, 78
1, 22244, Note_on_c, 1, 57, 0
1, 22269, Note_on_c, 0, 63, 0
1, 22272, Note_on_c, 0, 64, 64
1, 22284, Note_on_c, 0, 64, 0
1, 22284, Note_on_c, 0, 63, 64
1, 22296, Note_on_c, 0, 63, 0
1, 22296, Note_on_c, 0, 64, 64
1, 22320, Note_on_c, 1, 52, 78
1, 22340, Note_on_c, 1, 52, 0
1, 22368, Note_on_c, 1, 55, 78
1, 22388, Note_on_c, 1, 55, 0
1, 22416, Note_on_c, 1, 52, 78
1, 22436, Note_on_c, 1, 52, 0
1, 22451, Note_on_c, 0, 64, 0
1, 22464, Note_on_c, 0, 71, 64
1, 22476, Note_on_c, 0, 71, 0
1, 22476, Note_on_c, 0, 70, 64
1, 22488, Note_on_c, 0, 70, 0
1, 22488, Note_on_c, 0, 71, 64
1, 22512, Note_on_c, 1, 51, 78
1, 22532, Note_on_c, 1, 51, 0
1, 22560, Note_on_c, 1, 54, 78
1, 22580, Note_on_c, 1, 54, 0
1, 22608, Note_on_c, 1, 47, 78
1, 22628, Note_on_c, 1, 47, 0
1, 22641, Note_on_c, 0, 71, 0
1, 22656, Note_on_c, 0, 76, 64
1, 22704, Note_on_c, 1, 48, 78
1, 22724, Note_on_c, 1, 48, 0
1, 22752, Note_on_c, 1, 47, 78
1, 22772, Note_on_c, 1, 47, 0
1, 22789, Note_on_c, 0, 76, 0
1, 22800, Note_on_c, 0, 78, 64
1, 22800, Note_on_c, 1, 45, 78
1, 22820, Note_on_c, 1, 45, 0
1, 22834, Note_on_c, 0, 78, 0
1, 22836, Note_on_c, 0, 79, 64
1, 22848, Note_on_c, 0, 79, 0
1, 22848, Note_on_c, 0, 76, 64
1, 22848, Note_on_c, 1, 43, 78
1, 22893, Note_on_c, 0, 76, 0
1, 22896, Note_on_c, 0, 83, 64
1, 22916, Note_on_c, 0, 83, 0
1, 22937, Note_on_c, 1, 43, 0
1, 22944, Note_on_c, 0, 83, 64
1, 22964, Note_on_c, 0, 83, 0
1, 22992, Note_on_c, 0, 83, 64
1, 23012, Note_on_c, 0, 83, 0
1, 23040, Note_on_c, 0, 83, 64
1, 23088, Note_on_c, 1, 66, 78
1, 23088, Note_on_c, 1, 63, 78
1, 23133, Note_on_c, 1, 66, 0
1, 23133, Note_on_c, 1, 63, 0
1, 23136, Note_on_c, 1, 66, 78
1, 23136, Note_on_c, 1, 63, 78
1, 23159, Note_on_c, 0, 83, 0
1, 23160, Note_on_c, 0, 84, 64
1, 23166, Note_on_c, 0, 84, 0
1, 23166, Note_on_c, 0, 83, 64
1, 23172, Note_on_c, 0, 83, 0
1, 23172, Note_on_c, 0, 81, 64
1, 23178, Note_on_c, 0, 81, 0
1, 23178, Note_on_c, 0, 83, 64
1, 23181, Note_on_c, 1, 66, 0
1, 23181, Note_on_c, 1, 63, 0
1, 23184, Note_on_c, 0, 83, 0
1, 23184, Note_on_c, 0, 84, 64
1, 23184, Note_on_c, 1, 66, 78
1, 23184, Note_on_c, 1, 63, 78
1, 23218, Note_on_c, 0, 84, 0
1, 23220, Note_on_c, 0, 81, 64
1, 23229, Note_on_c, 1, 66, 0
1, 23229, Note_on_c, 1, 63, 0
1, 23232, Note_on_c, 0, 81, 0
1, 23232, Note_on_c, 0, 81, 64
1, 23280, Note_on_c, 1, 71, 78
1, 23280, Note_on_c, 1, 64, 78
1, 23325, Note_on_c, 1, 71, 0
1, 23325, Note_on_c, 1, 64, 0
1, 23328, Note_on_c, 0, 81, 0
1, 23328, Note_on_c, 0, 79, 64
1, 23328, Note_on_c, 1, 71, 78
1, 23328, Note_on_c, 1, 64, 78
1, 23340, Note_on_c, 0, 79, 0
1, 23340, Note_on_c, 0, 81, 64
1, 23352, Note_on_c, 0, 81, 0
1, 23352, Note_on_c, 0, 79, 64
1, 23373, Note_on_c, 0, 79, 0
1, 23373, Note_on_c, 1, 71, 0
1, 23373, Note_on_c, 1, 64, 0
1, 23376, Note_on_c, 0, 83, 64
1, 23376, Note_on_c, 1, 67, 78
1, 23410, Note_on_c, 0, 83, 0
1, 23412, Note_on_c, 0, 76, 64
1, 23421, Note_on_c, 1, 67, 0
1, 23424, Note_on_c, 0, 76, 0
1, 23424, Note_on_c, 0, 79, 64
1, 23424, Note_on_c, 1, 69, 78
1, 23430, Note_on_c, 0, 79, 0
1, 23430, Note_on_c, 0, 78, 64
1, 23469, Note_on_c, 0, 78, 0
1, 23469, Note_on_c, 1, 69, 0
1, 23472, Note_on_c, 0, 76, 64
1, 23472, Note_on_c, 1, 67, 78
1, 23517, Note_on_c, 0, 76, 0
1, 23517, Note_on_c, 1, 67, 0
1, 23520, Note_on_c, 0, 79, 64
1, 23520, Note_on_c, 1, 69, 78
1, 23543, Note_on_c, 0, 79, 0
1, 23544, Note_on_c, 0, 78, 64
1, 23565, Note_on_c, 1, 69, 0
1, 23567, Note_on_c, 0, 78, 0
1, 23568, Note_on_c, 0, 76, 64
1, 23568, Note_on_c, 1, 71, 78
1, 23591, Note_on_c, 0, 76, 0
1, 23592, Note_on_c, 0, 75, 64
1, 23613, Note_on_c, 1, 71, 0
1, 23615, Note_on_c, 0, 75, 0
1, 23616, Note_on_c, 0, 76, 64
1, 23616, Note_on_c, 1, 68, 63
1, 23639, Note_on_c, 1, 68, 0
1, 23640, Note_on_c, 1, 71, 63
1, 23661, Note_on_c, 0, 76, 0
1, 23663, Note_on_c, 1, 71, 0
1, 23664, Note_on_c, 0, 74, 64
1, 23664, Note_on_c, 1, 68, 63
1, 23687, Note_on_c, 1, 68, 0
1, 23688, Note_on_c, 1, 71, 63
1, 23709, Note_on_c, 0, 74, 0
1, 23711, Note_on_c, 1, 71, 0
1, 23712, Note_on_c, 0, 83, 64
1, 23712, Note_on_c, 1, 68, 63
1, 23735, Note_on_c, 1, 68, 0
1, 23736, Note_on_c, 1, 71, 63
1, 23759, Note_on_c, 1, 71, 0
1, 23760, Note_on_c, 1, 68, 63
1, 23783, Note_on_c, 1, 68, 0
1, 23784, Note_on_c, 1, 71, 63
1, 23807, Note_on_c, 1, 71, 0
1, 23808, Note_on_c, 1, 68, 63
1, 23831, Note_on_c, 0, 83, 0
1, 23831, Note_on_c, 1, 68, 0
1, 23832, Note_on_c, 0, 81, 64
1, 23832, Note_on_c, 1, 71, 63
1, 23855, Note_on_c, 0, 81, 0
1, 23855, Note_on_c, 1, 71, 0
1, 23856, Note_on_c, 0, 80, 64
1, 23856, Note_on_c, 1, 68, 63
1, 23879, Note_on_c, 0, 80, 0
1, 23879, Note_on_c, 1, 68, 0
1, 23880, Note_on_c, 0, 81, 64
1, 23880, Note_on_c, 1, 71, 63
1, 23903, Note_on_c, 0, 81, 0
1, 23903, Note_on_c, 1, 71, 0
1, 23904, Note_on_c, 0, 80, 64
1, 23904, Note_on_c, 1, 68, 63
1, 23927, Note_on_c, 0, 80, 0
1, 23927, Note_on_c, 1, 68, 0
1, 23928, Note_on_c, 0, 78, 64
1, 23928, Note_on_c, 1, 71, 63
1, 23951, Note_on_c, 0, 78, 0
1, 23951, Note_on_c, 1, 71, 0
1, 23952, Note_on_c, 0, 76, 64
1, 23952, Note_on_c, 1, 68, 63
1, 23975, Note_on_c, 0, 76, 0
1, 23975, Note_on_c, 1, 68, 0
1, 23976, Note_on_c, 0, 74, 64
1, 23976, Note_on_c, 1, 71, 63
1, 23999, Note_on_c, 0, 74, 0
1, 23999, Note_on_c, 1, 71, 0
1, 24000, Note_on_c, 0, 76, 64
1, 24000, Note_on_c, 1, 65, 63
1, 24006, Note_on_c, 0, 76, 0
1, 24006, Note_on_c, 0, 74, 64
1, 24023, Note_on_c, 1, 65, 0
1, 24024, Note_on_c, 1, 68, 63
1, 24045, Note_on_c, 0, 74, 0
1, 24047, Note_on_c, 1, 68, 0
1, 24048, Note_on_c, 0, 73, 64
1, 24048, Note_on_c, 1, 65, 63
1, 24071, Note_on_c, 1, 65, 0
1, 24072, Note_on_c, 1, 68, 63
1, 24093, Note_on_c, 0, 73, 0
1, 24095, Note_on_c, 1, 68, 0
1, 24096, Note_on_c, 0, 80, 64
1, 24096, Note_on_c, 1, 65, 63
1, 24119, Note_on_c, 1, 65, 0
1, 24120, Note_on_c, 1, 68, 63
1, 24143, Note_on_c, 1, 68, 0
1, 24144, Note_on_c, 1, 65, 63
1, 24167, Note_on_c, 1, 65, 0
1, 24168, Note_on_c, 1, 68, 63
1, 24191, Note_on_c, 1, 68, 0
1, 24192, Note_on_c, 1, 65, 63
1, 24215, Note_on_c, 0, 80, 0
1, 24215, Note_on_c, 1, 65, 0
1, 24216, Note_on_c, 0, 78, 64
1, 24216, Note_on_c, 1, 68, 63
1, 24239, Note_on_c, 0, 78, 0
1, 24239, Note_on_c, 1, 68, 0
1, 24240, Note_on_c, 0, 77, 64
1, 24240, Note_on_c, 1, 65, 63
1, 24263, Note_on_c, 0, 77, 0
1, 24263, Note_on_c, 1, 65, 0
1, 24264, Note_on_c, 0, 78, 64
1, 24264, Note_on_c, 1, 68, 63
1, 24287, Note_on_c, 0, 78, 0
1, 24287, Note_on_c, 1, 68, 0
1, 24288, Note_on_c, 0, 77, 64
1, 24288, Note_on_c, 1, 65, 63
1, 24311, Note_on_c, 0, 77, 0
1, 24311, Note_on_c, 1, 65, 0
1, 24312, Note_on_c, 0, 74, 64
1, 24312, Note_on_c, 1, 68, 63
1, 24335, Note_on_c, 0, 74, 0
1, 24335, Note_on_c, 1, 68, 0
1, 24336, Note_on_c, 0, 73, 64
1, 24336, Note_on_c, 1, 65, 63
1, 24359, Note_on_c, 0, 73, 0
1, 24359, Note_on_c, 1, 65, 0
1, 24360, Note_on_c, 0, 71, 64
1, 24360, Note_on_c, 1, 68, 63
1, 24383, Note_on_c, 0, 71, 0
1, 24383, Note_on_c, 1, 68, 0
1, 24384, Note_on_c, 0, 69, 64
1, 24384, Note_on_c, 1, 66, 63
1, 24407, Note_on_c, 1, 66, 0
1, 24408, Note_on_c, 1, 69, 63
1, 24418, Note_on_c, 0, 69, 0
1, 24420, Note_on_c, 0, 73, 64
1, 24431, Note_on_c, 1, 69, 0
1, 24432, Note_on_c, 0, 73, 0
1, 24432, Note_on_c, 0, 74, 64
1, 24432, Note_on_c, 1, 66, 63
1, 24440, Note_on_c, 0, 74, 0
1, 24440, Note_on_c, 0, 73, 64
1, 24448, Note_on_c, 0, 73, 0
1, 24448, Note_on_c, 0, 74, 64
1, 24455, Note_on_c, 1, 66, 0
1, 24456, Note_on_c, 0, 74, 0
1, 24456, Note_on_c, 0, 73, 64
1, 24456, Note_on_c, 1, 69, 63
1, 24464, Note_on_c, 0, 73, 0
1, 24464, Note_on_c, 0, 71, 64
1, 24472, Note_on_c, 0, 71, 0
1, 24472, Note_on_c, 0, 73, 64
1, 24479, Note_on_c, 1, 69, 0
1, 24480, Note_on_c, 0, 73, 0
1, 24480, Note_on_c, 0, 81, 64
1, 24480, Note_on_c, 1, 66, 63
1, 24503, Note_on_c, 1, 66, 0
1, 24504, Note_on_c, 1, 69, 63
1, 24527, Note_on_c, 1, 69, 0
1, 24528, Note_on_c, 1, 66, 63
1, 24551, Note_on_c, 1, 66, 0
1, 24552, Note_on_c, 1, 69, 63
1, 24575, Note_on_c, 1, 69, 0
1, 24576, Note_on_c, 1, 62, 63
1, 24599, Note_on_c, 1, 62, 0
1, 24600, Note_on_c, 1, 66, 63
1, 24621, Note_on_c, 0, 81, 0
1, 24623, Note_on_c, 1, 66, 0
1, 24624, Note_on_c, 0, 80, 64
1, 24624, Note_on_c, 1, 62, 63
1, 24647, Note_on_c, 0, 80, 0
1, 24647, Note_on_c, 1, 62, 0
1, 24648, Note_on_c, 0, 78, 64
1, 24648, Note_on_c, 1, 66, 63
1, 24671, Note_on_c, 0, 78, 0
1, 24671, Note_on_c, 1, 66, 0
1, 24672, Note_on_c, 0, 76, 64
1, 24672, Note_on_c, 1, 62, 63
1, 24695, Note_on_c, 0, 76, 0
1, 24695, Note_on_c, 1, 62, 0
1, 24696, Note_on_c, 0, 74, 64
1, 24696, Note_on_c, 1, 66, 63
1, 24719, Note_on_c, 0, 74, 0
1, 24719, Note_on_c, 1, 66, 0
1, 24720, Note_on_c, 0, 73, 64
1, 24720, Note_on_c, 1, 62, 63
1, 24743, Note_on_c, 0, 73, 0
1, 24743, Note_on_c, 1, 62, 0
1, 24744, Note_on_c, 0, 72, 64
1, 24744, Note_on_c, 1, 66, 63
1, 24767, Note_on_c, 0, 72, 0
1, 24767, Note_on_c, 1, 66, 0
1, 24768, Note_on_c, 0, 72, 64
1, 24768, Note_on_c, 1, 66, 63
1, 24768, Note_on_c, 1, 61, 63
1, 24864, Note_on_c, 0, 72, 0
1, 24864, Note_on_c, 0, 73, 64
1, 24864, Note_on_c, 1, 66, 0
1, 24864, Note_on_c, 1, 65, 63
1, 24909, Note_on_c, 0, 73, 0
1, 24909, Note_on_c, 1, 65, 0
1, 24909, Note_on_c, 1, 61, 0
1, 24960, Note_on_c, 0, 66, 64
1, 24972, Note_on_c, 0, 66, 0
1, 24972, Note_on_c, 0, 65, 64
1, 24984, Note_on_c, 0, 65, 0
1, 24984, Note_on_c, 0, 66, 64
1, 25008, Note_on_c, 1, 54, 78
1, 25008, Note_on_c, 1, 42, 78
1, 25028, Note_on_c, 1, 54, 0
1, 25028, Note_on_c, 1, 42, 0
1, 25056, Note_on_c, 1, 57, 78
1, 25056, Note_on_c, 1, 45, 78
1, 25076, Note_on_c, 1, 57, 0
1, 25076, Note_on_c, 1, 45, 0
1, 25104, Note_on_c, 1, 54, 78
1, 25104, Note_on_c, 1, 42, 78
1, 25124, Note_on_c, 1, 54, 0
1, 25124, Note_on_c, 1, 42, 0
1, 25139, Note_on_c, 0, 66, 0
1, 25152, Note_on_c, 0, 73, 64
1, 25164, Note_on_c, 0, 73, 0
1, 25164, Note_on_c, 0, 72, 64
1, 25176, Note_on_c, 0, 72, 0
1, 25176, Note_on_c, 0, 73, 64
1, 25200, Note_on_c, 1, 53, 78
1, 25200, Note_on_c, 1, 41, 78
1, 25220, Note_on_c, 1, 53, 0
1, 25220, Note_on_c, 1, 41, 0
1, 25248, Note_on_c, 1, 56, 78
1, 25248, Note_on_c, 1, 44, 78
1, 25268, Note_on_c, 1, 56, 0
1, 25268, Note_on_c, 1, 44, 0
1, 25296, Note_on_c, 1, 49, 78
1, 25296, Note_on_c, 1, 37, 78
1, 25316, Note_on_c, 1, 49, 0
1, 25316, Note_on_c, 1, 37, 0
1, 25331, Note_on_c, 0, 73, 0
1, 25344, Note_on_c, 0, 78, 64
1, 25392, Note_on_c, 1, 50, 78
1, 25392, Note_on_c, 1, 38, 78
1, 25412, Note_on_c, 1, 50, 0
1, 25412, Note_on_c, 1, 38, 0
1, 25440, Note_on_c, 1, 49, 78
1, 25440, Note_on_c, 1, 37, 78
1, 25460, Note_on_c, 1, 49, 0
1, 25460, Note_on_c, 1, 37, 0
1, 25477, Note_on_c, 0, 78, 0
1, 25488, Note_on_c, 0, 80, 64
1, 25488, Note_on_c, 1, 47, 78
1, 25488, Note_on_c, 1, 35, 78
1, 25508, Note_on_c, 1, 47, 0
1, 25508, Note_on_c, 1, 35, 0
1, 25522, Note_on_c, 0, 80, 0
1, 25524, Note_on_c, 0, 81, 64
1, 25536, Note_on_c, 0, 81, 0
1, 25536, Note_on_c, 0, 78, 64
1, 25536, Note_on_c, 1, 45, 78
1, 25536, Note_on_c, 1, 33, 78
1, 25556, Note_on_c, 0, 78, 0
1, 25584, Note_on_c, 0, 80, 64
1, 25618, Note_on_c, 0, 80, 0
1, 25620, Note_on_c, 0, 81, 64
1, 25625, Note_on_c, 1, 45, 0
1, 25625, Note_on_c, 1, 33, 0
1, 25632, Note_on_c, 0, 81, 0
1, 25632, Note_on_c, 0, 78, 64
1, 25652, Note_on_c, 0, 78, 0
1, 25680, Note_on_c, 0, 80, 64
1, 25714, Note_on_c, 0, 80, 0
1, 25716, Note_on_c, 0, 81, 64
1, 25728, Note_on_c, 0, 81, 0
1, 25728, Note_on_c, 0, 78, 64
1, 25776, Note_on_c, 1, 57, 78
1, 25824, Note_on_c, 1, 57, 0
1, 25824, Note_on_c, 1, 69, 78
1, 25861, Note_on_c, 0, 78, 0
1, 25869, Note_on_c, 1, 69, 0
1, 25872, Note_on_c, 0, 80, 64
1, 25906, Note_on_c, 0, 80, 0
1, 25908, Note_on_c, 0, 81, 64
1, 25920, Note_on_c, 0, 81, 0
1, 25920, Note_on_c, 0, 78, 64
1, 25968, Note_on_c, 1, 62, 78
1, 26016, Note_on_c, 1, 62, 0
1, 26016, Note_on_c, 1, 74, 78
1, 26053, Note_on_c, 0, 78, 0
1, 26061, Note_on_c, 1, 74, 0
1, 26064, Note_on_c, 0, 80, 64
1, 26098, Note_on_c, 0, 80, 0
1, 26100, Note_on_c, 0, 81, 64
1, 26112, Note_on_c, 0, 81, 0
1, 26112, Note_on_c, 0, 76, 64
1, 26112, Note_on_c, 1, 73, 78
1, 26157, Note_on_c, 0, 76, 0
1, 26160, Note_on_c, 0, 80, 64
1, 26194, Note_on_c, 0, 80, 0
1, 26196, Note_on_c, 0, 81, 64
1, 26201, Note_on_c, 1, 73, 0
1, 26208, Note_on_c, 0, 81, 0
1, 26208, Note_on_c, 0, 74, 64
1, 26208, Note_on_c, 1, 71, 78
1, 26253, Note_on_c, 0, 74, 0
1, 26256, Note_on_c, 0, 80, 64
1, 26290, Note_on_c, 0, 80, 0
1, 26292, Note_on_c, 0, 81, 64
1, 26297, Note_on_c, 1, 71, 0
1, 26304, Note_on_c, 0, 81, 0
1, 26304, Note_on_c, 0, 73, 64
1, 26304, Note_on_c, 1, 69, 78
1, 26349, Note_on_c, 0, 73, 0
1, 26352, Note_on_c, 0, 80, 64
1, 26386, Note_on_c, 0, 80, 0
1, 26388, Note_on_c, 0, 81, 64
1, 26393, Note_on_c, 1, 69, 0
1, 26400, Note_on_c, 0, 81, 0
1, 26400, Note_on_c, 0, 71, 64
1, 26400, Note_on_c, 1, 68, 78
1, 26445, Note_on_c, 0, 71, 0
1, 26448, Note_on_c, 0, 80, 64
1, 26482, Note_on_c, 0, 80, 0
1, 26484, Note_on_c, 0, 81, 64
1, 26489, Note_on_c, 1, 68, 0
1, 26496, Note_on_c, 0, 81, 0
1, 26496, Note_on_c, 0, 69, 64
1, 26496, Note_on_c, 1, 66, 78
1, 26541, Note_on_c, 0, 69, 0
1, 26544, Note_on_c, 0, 80, 64
1, 26578, Note_on_c, 0, 80, 0
1, 26580, Note_on_c, 0, 81, 64
1, 26592, Note_on_c, 0, 81, 0
1, 26592, Note_on_c, 0, 72, 64
1, 26637, Note_on_c, 0, 72, 0
1, 26640, Note_on_c, 0, 78, 64
1, 26673, Note_on_c, 1, 66, 0
1, 26674, Note_on_c, 0, 78, 0
1, 26676, Note_on_c, 0, 81, 64
1, 26688, Note_on_c, 0, 81, 0
1, 26688, Note_on_c, 0, 73, 64
1, 26688, Note_on_c, 1, 64, 78
1, 26733, Note_on_c, 0, 73, 0
1, 26736, Note_on_c, 0, 76, 64
1, 26770, Note_on_c, 0, 76, 0
1, 26772, Note_on_c, 0, 80, 64
1, 26777, Note_on_c, 1, 64, 0
1, 26784, Note_on_c, 0, 80, 0
1, 26784, Note_on_c, 0, 68, 64
1, 26784, Note_on_c, 1, 60, 78
1, 26829, Note_on_c, 0, 68, 0
1, 26832, Note_on_c, 0, 75, 64
1, 26866, Note_on_c, 0, 75, 0
1, 26868, Note_on_c, 0, 78, 64
1, 26873, Note_on_c, 1, 60, 0
1, 26880, Note_on_c, 0, 78, 0
1, 26880, Note_on_c, 0, 68, 64
1, 26880, Note_on_c, 1, 61, 78
1, 26925, Note_on_c, 0, 68, 0
1, 26928, Note_on_c, 0, 73, 64
1, 26962, Note_on_c, 0, 73, 0
1, 26964, Note_on_c, 0, 76, 64
1, 26969, Note_on_c, 1, 61, 0
1, 26976, Note_on_c, 0, 76, 0
1, 26976, Note_on_c, 0, 69, 64
1, 26976, Note_on_c, 1, 57, 78
1, 27021, Note_on_c, 0, 69, 0
1, 27021, Note_on_c, 1, 57, 0
1, 27024, Note_on_c, 0, 73, 64
1, 27024, Note_on_c, 1, 61, 78
1, 27058, Note_on_c, 0, 73, 0
1, 27058, Note_on_c, 1, 61, 0
1, 27060, Note_on_c, 0, 76, 64
1, 27060, Note_on_c, 1, 64, 78
1, 27072, Note_on_c, 0, 76, 0
1, 27072, Note_on_c, 0, 68, 64
1, 27072, Note_on_c, 1, 64, 0
1, 27072, Note_on_c, 1, 56, 78
1, 27117, Note_on_c, 0, 68, 0
1, 27117, Note_on_c, 1, 56, 0
1, 27120, Note_on_c, 0, 73, 64
1, 27120, Note_on_c, 1, 61, 78
1, 27154, Note_on_c, 0, 73, 0
1, 27154, Note_on_c, 1, 61, 0
1, 27156, Note_on_c, 0, 76, 64
1, 27156, Note_on_c, 1, 64, 78
1, 27168, Note_on_c, 0, 76, 0
1, 27168, Note_on_c, 0, 67, 64
1, 27168, Note_on_c, 1, 64, 0
1, 27168, Note_on_c, 1, 55, 78
1, 27213, Note_on_c, 0, 67, 0
1, 27213, Note_on_c, 1, 55, 0
1, 27216, Note_on_c, 0, 73, 64
1, 27216, Note_on_c, 1, 61, 78
1, 27250, Note_on_c, 0, 73, 0
1, 27250, Note_on_c, 1, 61, 0
1, 27252, Note_on_c, 0, 76, 64
1, 27252, Note_on_c, 1, 64, 78
1, 27264, Note_on_c, 0, 76, 0
1, 27264, Note_on_c, 0, 66, 64
1, 27264, Note_on_c, 1, 64, 0
1, 27264, Note_on_c, 1, 54, 78
1, 27309, Note_on_c, 0, 66, 0
1, 27309, Note_on_c, 1, 54, 0
1, 27312, Note_on_c, 0, 73, 64
1, 27312, Note_on_c, 1, 61, 78
1, 27346, Note_on_c, 0, 73, 0
1, 27346, Note_on_c, 1, 61, 0
1, 27348, Note_on_c, 0, 76, 64
1, 27348, Note_on_c, 1, 64, 78
1, 27360, Note_on_c, 0, 76, 0
1, 27360, Note_on_c, 0, 66, 64
1, 27360, Note_on_c, 1, 64, 0
1, 27360, Note_on_c, 1, 54, 78
1, 27405, Note_on_c, 0, 66, 0
1, 27405, Note_on_c, 1, 54, 0
1, 27408, Note_on_c, 0, 70, 64
1, 27408, Note_on_c, 1, 61, 78
1, 27442, Note_on_c, 0, 70, 0
1, 27442, Note_on_c, 1, 61, 0
1, 27444, Note_on_c, 0, 73, 64
1, 27444, Note_on_c, 1, 64, 78
1, 27456, Note_on_c, 0, 73, 0
1, 27456, Note_on_c, 0, 66, 64
1, 27456, Note_on_c, 1, 64, 0
1, 27456, Note_on_c, 1, 54, 78
1, 27501, Note_on_c, 0, 66, 0
1, 27501, Note_on_c, 1, 54, 0
1, 27504, Note_on_c, 0, 71, 64
1, 27504, Note_on_c, 1, 59, 78
1, 27538, Note_on_c, 0, 71, 0
1, 27538, Note_on_c, 1, 59, 0
1, 27540, Note_on_c, 0, 74, 64
1, 27540, Note_on_c, 1, 62, 78
1, 27552, Note_on_c, 0, 74, 0
1, 27552, Note_on_c, 0, 66, 64
1, 27552, Note_on_c, 1, 62, 0
1, 27552, Note_on_c, 1, 54, 78
1, 27597, Note_on_c, 0, 66, 0
1, 27597, Note_on_c, 1, 54, 0
1, 27600, Note_on_c, 0, 73, 64
1, 27600, Note_on_c, 1, 58, 78
1, 27634, Note_on_c, 0, 73, 0
1, 27634, Note_on_c, 1, 58, 0
1, 27636, Note_on_c, 0, 76, 64
1, 27636, Note_on_c, 1, 61, 78
1, 27648, Note_on_c, 0, 76, 0
1, 27648, Note_on_c, 0, 66, 64
1, 27648, Note_on_c, 1, 61, 0
1, 27648, Note_on_c, 1, 54, 78
1, 27693, Note_on_c, 0, 66, 0
1, 27693, Note_on_c, 1, 54, 0
1, 27696, Note_on_c, 0, 74, 64
1, 27696, Note_on_c, 1, 59, 78
1, 27730, Note_on_c, 0, 74, 0
1, 27730, Note_on_c, 1, 59, 0
1, 27732, Note_on_c, 0, 78, 64
1, 27732, Note_on_c, 1, 62, 78
1, 27744, Note_on_c, 0, 78, 0
1, 27744, Note_on_c, 0, 66, 64
1, 27744, Note_on_c, 1, 62, 0
1, 27744, Note_on_c, 1, 54, 78
1, 27789, Note_on_c, 0, 66, 0
1, 27789, Note_on_c, 1, 54, 0
1, 27792, Note_on_c, 0, 70, 64
1, 27792, Note_on_c, 1, 61, 78
1, 27826, Note_on_c, 0, 70, 0
1, 27826, Note_on_c, 1, 61, 0
1, 27828, Note_on_c, 0, 73, 64
1, 27828, Note_on_c, 1, 64, 78
1, 27840, Note_on_c, 0, 73, 0
1, 27840, Note_on_c, 0, 66, 64
1, 27840, Note_on_c, 1, 64, 0
1, 27840, Note_on_c, 1, 54, 78
1, 27885, Note_on_c, 0, 66, 0
1, 27885, Note_on_c, 1, 54, 0
1, 27888, Note_on_c, 0, 71, 64
1, 27888, Note_on_c, 1, 59, 78
1, 27922, Note_on_c, 0, 71, 0
1, 27922, Note_on_c, 1, 59, 0
1, 27924, Note_on_c, 0, 74, 64
1, 27924, Note_on_c, 1, 62, 78
1, 27936, Note_on_c, 0, 74, 0
1, 27936, Note_on_c, 0, 65, 64
1, 27936, Note_on_c, 1, 62, 0
1, 27936, Note_on_c, 1, 54, 78
1, 27981, Note_on_c, 0, 65, 0
1, 27981, Note_on_c, 1, 54, 0
1, 27984, Note_on_c, 0, 71, 64
1, 27984, Note_on_c, 1, 56, 78
1, 28018, Note_on_c, 0, 71, 0
1, 28018, Note_on_c, 1, 56, 0
1, 28020, Note_on_c, 0, 74, 64
1, 28020, Note_on_c, 1, 59, 78
1, 28032, Note_on_c, 0, 74, 0
1, 28032, Note_on_c, 0, 66, 64
1, 28032, Note_on_c, 1, 59, 0
1, 28032, Note_on_c, 1, 54, 78
1, 28077, Note_on_c, 0, 66, 0
1, 28080, Note_on_c, 0, 70, 64
1, 28114, Note_on_c, 0, 70, 0
1, 28116, Note_on_c, 0, 73, 64
1, 28128, Note_on_c, 0, 73, 0
1, 28128, Note_on_c, 0, 64, 64
1, 28173, Note_on_c, 0, 64, 0
1, 28176, Note_on_c, 0, 70, 64
1, 28210, Note_on_c, 0, 70, 0
1, 28212, Note_on_c, 0, 73, 64
1, 28224, Note_on_c, 0, 73, 0
1, 28224, Note_on_c, 0, 62, 64
1, 28269, Note_on_c, 0, 62, 0
1, 28272, Note_on_c, 0, 66, 64
1, 28306, Note_on_c, 0, 66, 0
1, 28308, Note_on_c, 0, 71, 64
1, 28320, Note_on_c, 0, 71, 0
1, 28320, Note_on_c, 0, 59, 64
1, 28365, Note_on_c, 0, 59, 0
1, 28368, Note_on_c, 0, 62, 64
1, 28386, Note_on_c, 1, 54, 0
1, 28402, Note_on_c, 0, 62, 0
1, 28404, Note_on_c, 0, 65, 64
1, 28416, Note_on_c, 0, 65, 0
1, 28416, Note_on_c, 0, 58, 64
1, 28416, Note_on_c, 1, 42, 78
1, 28461, Note_on_c, 0, 58, 0
1, 28464, Note_on_c, 0, 61, 64
1, 28498, Note_on_c, 0, 61, 0
1, 28500, Note_on_c, 0, 66, 64
1, 28512, Note_on_c, 0, 66, 0
1, 28512, Note_on_c, 0, 55, 64
1, 28557, Note_on_c, 0, 55, 0
1, 28560, Note_on_c, 0, 58, 64
1, 28594, Note_on_c, 0, 58, 0
1, 28596, Note_on_c, 0, 61, 64
1, 28608, Note_on_c, 0, 61, 0
1, 28608, Note_on_c, 0, 54, 64
1, 28608, Note_on_c, 1, 30, 78
1, 28653, Note_on_c, 0, 54, 0
1, 28656, Note_on_c, 0, 58, 64
1, 28690, Note_on_c, 0, 58, 0
1, 28692, Note_on_c, 0, 61, 64
1, 28704, Note_on_c, 0, 61, 0
1, 28704, Note_on_c, 0, 52, 64
1, 28749, Note_on_c, 0, 52, 0
1, 28752, Note_on_c, 0, 58, 64
1, 28785, Note_on_c, 1, 42, 0
1, 28785, Note_on_c, 1, 30, 0
1, 28786, Note_on_c, 0, 58, 0
1, 28788, Note_on_c, 0, 61, 64
1, 28800, Note_on_c, 0, 61, 0
1, 28800, Note_on_c, 0, 59, 64
1, 28800, Note_on_c, 1, 35, 78
1, 28845, Note_on_c, 1, 35, 0
1, 28848, Note_on_c, 1, 47, 78
1, 28868, Note_on_c, 1, 47, 0
1, 28896, Note_on_c, 1, 50, 78
1, 28916, Note_on_c, 1, 50, 0
1, 28944, Note_on_c, 1, 47, 78
1, 28964, Note_on_c, 1, 47, 0
1, 28977, Note_on_c, 0, 59, 0
1, 28992, Note_on_c, 0, 66, 64
1, 29004, Note_on_c, 0, 66, 0
1, 29004, Note_on_c, 0, 65, 64
1, 29016, Note_on_c, 0, 65, 0
1, 29016, Note_on_c, 0, 66, 64
1, 29040, Note_on_c, 1, 46, 78
1, 29060, Note_on_c, 1, 46, 0
1, 29088, Note_on_c, 1, 49, 78
1, 29108, Note_on_c, 1, 49, 0
1, 29136, Note_on_c, 1, 42, 78
1, 29156, Note_on_c, 1, 42, 0
1, 29171, Note_on_c, 0, 66, 0
1, 29184, Note_on_c, 0, 71, 64
1, 29196, Note_on_c, 0, 71, 0
1, 29196, Note_on_c, 0, 70, 64
1, 29208, Note_on_c, 0, 70, 0
1, 29208, Note_on_c, 0, 71, 64
1, 29232, Note_on_c, 1, 43, 78
1, 29252, Note_on_c, 1, 43, 0
1, 29280, Note_on_c, 1, 42, 78
1, 29300, Note_on_c, 1, 42, 0
1, 29321, Note_on_c, 0, 71, 0
1, 29328, Note_on_c, 0, 73, 64
1, 29328, Note_on_c, 1, 40, 78
1, 29348, Note_on_c, 1, 40, 0
1, 29362, Note_on_c, 0, 73, 0
1, 29364, Note_on_c, 0, 74, 64
1, 29376, Note_on_c, 0, 74, 0
1, 29376, Note_on_c, 0, 71, 64
1, 29376, Note_on_c, 1, 38, 78
1, 29415, Note_on_c, 1, 38, 0
1, 29421, Note_on_c, 0, 71, 0
1, 29424, Note_on_c, 0, 78, 64
1, 29444, Note_on_c, 0, 78, 0
1, 29472, Note_on_c, 0, 78, 64
1, 29492, Note_on_c, 0, 78, 0
1, 29520, Note_on_c, 0, 78, 64
1, 29540, Note_on_c, 0, 78, 0
1, 29568, Note_on_c, 0, 78, 64
1, 29616, Note_on_c, 1, 61, 78
1, 29616, Note_on_c, 1, 58, 78
1, 29661, Note_on_c, 1, 61, 0
1, 29661, Note_on_c, 1, 58, 0
1, 29664, Note_on_c, 1, 61, 78
1, 29664, Note_on_c, 1, 58, 78
1, 29687, Note_on_c, 0, 78, 0
1, 29688, Note_on_c, 0, 79, 64
1, 29694, Note_on_c, 0, 79, 0
1, 29694, Note_on_c, 0, 78, 64
1, 29700, Note_on_c, 0, 78, 0
1, 29700, Note_on_c, 0, 76, 64
1, 29706, Note_on_c, 0, 76, 0
1, 29706, Note_on_c, 0, 78, 64
1, 29709, Note_on_c, 1, 61, 0
1, 29709, Note_on_c, 1, 58, 0
1, 29712, Note_on_c, 0, 78, 0
1, 29712, Note_on_c, 0, 79, 64
1, 29712, Note_on_c, 1, 61, 78
1, 29712, Note_on_c, 1, 58, 78
1, 29746, Note_on_c, 0, 79, 0
1, 29748, Note_on_c, 0, 76, 64
1, 29757, Note_on_c, 1, 61, 0
1, 29757, Note_on_c, 1, 58, 0
1, 29760, Note_on_c, 0, 76, 0
1, 29760, Note_on_c, 0, 76, 64
1, 29808, Note_on_c, 1, 66, 78
1, 29808, Note_on_c, 1, 59, 78
1, 29853, Note_on_c, 1, 66, 0
1, 29853, Note_on_c, 1, 59, 0
1, 29856, Note_on_c, 0, 76, 0
1, 29856, Note_on_c, 0, 74, 64
1, 29856, Note_on_c, 1, 66, 78
1, 29856, Note_on_c, 1, 59, 78
1, 29868, Note_on_c, 0, 74, 0
1, 29868, Note_on_c, 0, 76, 64
1, 29880, Note_on_c, 0, 76, 0
1, 29880, Note_on_c, 0, 74, 64
1, 29901, Note_on_c, 0, 74, 0
1, 29901, Note_on_c, 1, 66, 0
1, 29901, Note_on_c, 1, 59, 0
1, 29904, Note_on_c, 0, 78, 64
1, 29904, Note_on_c, 1, 62, 78
1, 29938, Note_on_c, 0, 78, 0
1, 29940, Note_on_c, 0, 71, 64
1, 29949, Note_on_c, 1, 62, 0
1, 29952, Note_on_c, 0, 71, 0
1, 29952, Note_on_c, 0, 73, 64
1, 29952, Note_on_c, 1, 64, 78
1, 29964, Note_on_c, 0, 73, 0
1, 29964, Note_on_c, 0, 74, 64
1, 29976, Note_on_c, 0, 74, 0
1, 29976, Note_on_c, 0, 73, 64
1, 29997, Note_on_c, 0, 73, 0
1, 29997, Note_on_c, 1, 64, 0
1, 30000, Note_on_c, 0, 71, 64
1, 30000, Note_on_c, 1, 62, 78
1, 30045, Note_on_c, 0, 71, 0
1, 30045, Note_on_c, 1, 62, 0
1, 30048, Note_on_c, 0, 74, 64
1, 30048, Note_on_c, 1, 64, 78
1, 30071, Note_on_c, 0, 74, 0
1, 30072, Note_on_c, 0, 73, 64
1, 30093, Note_on_c, 1, 64, 0
1, 30095, Note_on_c, 0, 73, 0
1, 30096, Note_on_c, 0, 71, 64
1, 30096, Note_on_c, 1, 66, 78
1, 30119, Note_on_c, 0, 71, 0
1, 30120, Note_on_c, 0, 70, 64
1, 30141, Note_on_c, 1, 66, 0
1, 30143, Note_on_c, 0, 70, 0
1, 30144, Note_on_c, 0, 71, 64
1, 30144, Note_on_c, 1, 67, 78
1, 30233, Note_on_c, 0, 71, 0
1, 30233, Note_on_c, 1, 67, 0
1, 30288, Note_on_c, 0, 83, 64
1, 30312, Note_on_c, 0, 83, 0
1, 30312, Note_on_c, 0, 79, 64
1, 30335, Note_on_c, 0, 79, 0
1, 30336, Note_on_c, 0, 78, 64
1, 30359, Note_on_c, 0, 78, 0
1, 30360, Note_on_c, 0, 76, 64
1, 30383, Note_on_c, 0, 76, 0
1, 30384, Note_on_c, 0, 75, 64
1, 30407, Note_on_c, 0, 75, 0
1, 30408, Note_on_c, 0, 76, 64
1, 30431, Note_on_c, 0, 76, 0
1, 30432, Note_on_c, 0, 78, 64
1, 30456, Note_on_c, 0, 78, 0
1, 30456, Note_on_c, 0, 76, 64
1, 30479, Note_on_c, 0, 76, 0
1, 30480, Note_on_c, 0, 79, 64
1, 30504, Note_on_c, 0, 79, 0
1, 30504, Note_on_c, 0, 76, 64
1, 30527, Note_on_c, 0, 76, 0
1, 30528, Note_on_c, 0, 70, 64
1, 30528, Note_on_c, 1, 67, 78
1, 30528, Note_on_c, 1, 64, 78
1, 30624, Note_on_c, 0, 70, 0
1, 30624, Note_on_c, 0, 71, 64
1, 30624, Note_on_c, 1, 67, 0
1, 30624, Note_on_c, 1, 64, 0
1, 30624, Note_on_c, 1, 66, 78
1, 30624, Note_on_c, 1, 62, 78
1, 30644, Note_on_c, 0, 71, 0
1, 30669, Note_on_c, 1, 66, 0
1, 30669, Note_on_c, 1, 62, 0
1, 30672, Note_on_c, 0, 78, 64
1, 30696, Note_on_c, 0, 78, 0
1, 30696, Note_on_c, 0, 74, 64
1, 30719, Note_on_c, 0, 74, 0
1, 30720, Note_on_c, 0, 73, 64
1, 30743, Note_on_c, 0, 73, 0
1, 30744, Note_on_c, 0, 71, 64
1, 30767, Note_on_c, 0, 71, 0
1, 30768, Note_on_c, 0, 70, 64
1, 30791, Note_on_c, 0, 70, 0
1, 30792, Note_on_c, 0, 71, 64
1, 30815, Note_on_c, 0, 71, 0
1, 30816, Note_on_c, 0, 73, 64
1, 30840, Note_on_c, 0, 73, 0
1, 30840, Note_on_c, 0, 71, 64
1, 30863, Note_on_c, 0, 71, 0
1, 30864, Note_on_c, 0, 74, 64
1, 30888, Note_on_c, 0, 74, 0
1, 30888, Note_on_c, 0, 71, 64
1, 30911, Note_on_c, 0, 71, 0
1, 30912, Note_on_c, 0, 65, 64
1, 30912, Note_on_c, 1, 62, 78
1, 30912, Note_on_c, 1, 59, 78
1, 31008, Note_on_c, 0, 65, 0
1, 31008, Note_on_c, 0, 66, 64
1, 31008, Note_on_c, 1, 62, 0
1, 31008, Note_on_c, 1, 59, 0
1, 31008, Note_on_c, 1, 61, 78
1, 31008, Note_on_c, 1, 58, 78
1, 31053, Note_on_c, 0, 66, 0
1, 31053, Note_on_c, 1, 61, 0
1, 31053, Note_on_c, 1, 58, 0
1, 31056, Note_on_c, 0, 73, 64
1, 31056, Note_on_c, 1, 61, 78
1, 31079, Note_on_c, 0, 73, 0
1, 31079, Note_on_c, 1, 61, 0
1, 31080, Note_on_c, 0, 64, 64
1, 31080, Note_on_c, 1, 52, 78
1, 31103, Note_on_c, 0, 64, 0
1, 31103, Note_on_c, 1, 52, 0
1, 31104, Note_on_c, 0, 64, 64
1, 31104, Note_on_c, 1, 52, 78
1, 31127, Note_on_c, 0, 64, 0
1, 31127, Note_on_c, 1, 52, 0
1, 31128, Note_on_c, 0, 62, 64
1, 31128, Note_on_c, 1, 50, 78
1, 31151, Note_on_c, 0, 62, 0
1, 31151, Note_on_c, 1, 50, 0
1, 31152, Note_on_c, 0, 61, 64
1, 31152, Note_on_c, 1, 49, 78
1, 31175, Note_on_c, 0, 61, 0
1, 31175, Note_on_c, 1, 49, 0
1, 31176, Note_on_c, 0, 62, 64
1, 31176, Note_on_c, 1, 50, 78
1, 31199, Note_on_c, 0, 62, 0
1, 31199, Note_on_c, 1, 50, 0
1, 31200, Note_on_c, 0, 61, 64
1, 31200, Note_on_c, 1, 49, 78
1, 31223, Note_on_c, 0, 61, 0
1, 31223, Note_on_c, 1, 49, 0
1, 31224, Note_on_c, 0, 59, 64
1, 31224, Note_on_c, 1, 47, 78
1, 31247, Note_on_c, 0, 59, 0
1, 31247, Note_on_c, 1, 47, 0
1, 31248, Note_on_c, 0, 58, 64
1, 31248, Note_on_c, 1, 46, 78
1, 31271, Note_on_c, 0, 58, 0
1, 31271, Note_on_c, 1, 46, 0
1, 31272, Note_on_c, 0, 59, 64
1, 31272, Note_on_c, 1, 47, 78
1, 31295, Note_on_c, 0, 59, 0
1, 31295, Note_on_c, 1, 47, 0
1, 31296, Note_on_c, 0, 66, 64
1, 31296, Note_on_c, 1, 42, 78
1, 31385, Note_on_c, 0, 66, 0
1, 31385, Note_on_c, 1, 42, 0
1, 31488, Note_on_c, 1, 47, 84
1, 31488, Note_on_c, 1, 59, 64
1, 31494, Note_on_c, 0, 62, 64
1, 31494, Note_on_c, 1, 50, 84
1, 31500, Note_on_c, 0, 66, 64
1, 31500, Note_on_c, 1, 54, 84
1, 31506, Note_on_c, 0, 71, 64
1, 31506, Note_on_c, 0, 59, 64
1, 31506, Note_on_c, 1, 59, 84
1, 31536, Note_on_c, 0, 83, 64
1, 31536, Note_on_c, 1, 54, 0
1, 31536, Note_on_c, 1, 50, 0
1, 31536, Note_on_c, 1, 47, 0
1, 31559, Note_on_c, 0, 83, 0
1, 31559, Note_on_c, 0, 71, 0
1, 31559, Note_on_c, 0, 66, 0
1, 31559, Note_on_c, 0, 62, 0
1, 31560, Note_on_c, 0, 71, 64
1, 31581, Note_on_c, 1, 59, 0
1, 31583, Note_on_c, 0, 71, 0
1, 31584, Note_on_c, 0, 82, 64
1, 31584, Note_on_c, 1, 61, 84
1, 31607, Note_on_c, 0, 82, 0
1, 31608, Note_on_c, 0, 71, 64
1, 31629, Note_on_c, 1, 61, 0
1, 31631, Note_on_c, 0, 71, 0
1, 31632, Note_on_c, 0, 81, 64
1, 31632, Note_on_c, 1, 63, 84
1, 31655, Note_on_c, 0, 81, 0
1, 31656, Note_on_c, 0, 71, 64
1, 31677, Note_on_c, 1, 63, 0
1, 31679, Note_on_c, 0, 71, 0
1, 31680, Note_on_c, 0, 79, 64
1, 31680, Note_on_c, 1, 64, 84
1, 31703, Note_on_c, 0, 79, 0
1, 31704, Note_on_c, 0, 71, 64
1, 31725, Note_on_c, 1, 64, 0
1, 31727, Note_on_c, 0, 71, 0
1, 31728, Note_on_c, 0, 78, 64
1, 31728, Note_on_c, 1, 63, 84
1, 31751, Note_on_c, 0, 78, 0
1, 31752, Note_on_c, 0, 71, 64
1, 31773, Note_on_c, 1, 63, 0
1, 31775, Note_on_c, 0, 71, 0
1, 31776, Note_on_c, 0, 79, 64
1, 31776, Note_on_c, 1, 64, 84
1, 31799, Note_on_c, 0, 79, 0
1, 31800, Note_on_c, 0, 71, 64
1, 31816, Note_on_c, 0, 59, 0
1, 31821, Note_on_c, 1, 64, 0
1, 31823, Note_on_c, 0, 71, 0
1, 31824, Note_on_c, 0, 76, 64
1, 31824, Note_on_c, 1, 67, 84
1, 31842, Note_on_c, 1, 59, 0
1, 31847, Note_on_c, 0, 76, 0
1, 31848, Note_on_c, 0, 70, 64
1, 31869, Note_on_c, 1, 67, 0
1, 31871, Note_on_c, 0, 70, 0
1, 31872, Note_on_c, 1, 47, 84
1, 31872, Note_on_c, 1, 59, 64
1, 31878, Note_on_c, 0, 62, 64
1, 31878, Note_on_c, 1, 50, 84
1, 31884, Note_on_c, 0, 66, 64
1, 31884, Note_on_c, 1, 54, 84
1, 31890, Note_on_c, 0, 71, 64
1, 31890, Note_on_c, 0, 59, 64
1, 31890, Note_on_c, 1, 59, 84
1, 31920, Note_on_c, 0, 83, 64
1, 31920, Note_on_c, 1, 54, 0
1, 31920, Note_on_c, 1, 50, 0
1, 31920, Note_on_c, 1, 47, 0
1, 31943, Note_on_c, 0, 83, 0
1, 31943, Note_on_c, 0, 71, 0
1, 31943, Note_on_c, 0, 66, 0
1, 31943, Note_on_c, 0, 62, 0
1, 31944, Note_on_c, 0, 71, 64
1, 31965, Note_on_c, 1, 59, 0
1, 31967, Note_on_c, 0, 71, 0
1, 31968, Note_on_c, 0, 82, 64
1, 31968, Note_on_c, 1, 61, 84
1, 31991, Note_on_c, 0, 82, 0
1, 31992, Note_on_c, 0, 71, 64
1, 32013, Note_on_c, 1, 61, 0
1, 32015, Note_on_c, 0, 71, 0
1, 32016, Note_on_c, 0, 81, 64
1, 32016, Note_on_c, 1, 63, 84
1, 32039, Note_on_c, 0, 81, 0
1, 32040, Note_on_c, 0, 71, 64
1, 32061, Note_on_c, 1, 63, 0
1, 32063, Note_on_c, 0, 71, 0
1, 32064, Note_on_c, 0, 79, 64
1, 32064, Note_on_c, 1, 64, 84
1, 32087, Note_on_c, 0, 79, 0
1, 32088, Note_on_c, 0, 71, 64
1, 32109, Note_on_c, 1, 64, 0
1, 32111, Note_on_c, 0, 71, 0
1, 32112, Note_on_c, 0, 78, 64
1, 32112, Note_on_c, 1, 63, 84
1, 32135, Note_on_c, 0, 78, 0
1, 32136, Note_on_c, 0, 71, 64
1, 32157, Note_on_c, 1, 63, 0
1, 32159, Note_on_c, 0, 71, 0
1, 32160, Note_on_c, 0, 79, 64
1, 32160, Note_on_c, 1, 64, 84
1, 32183, Note_on_c, 0, 79, 0
1, 32184, Note_on_c, 0, 71, 64
1, 32200, Note_on_c, 0, 59, 0
1, 32205, Note_on_c, 1, 64, 0
1, 32207, Note_on_c, 0, 71, 0
1, 32208, Note_on_c, 0, 76, 64
1, 32208, Note_on_c, 1, 67, 84
1, 32226, Note_on_c, 1, 59, 0
1, 32231, Note_on_c, 0, 76, 0
1, 32232, Note_on_c, 0, 70, 64
1, 32253, Note_on_c, 1, 67, 0
1, 32255, Note_on_c, 0, 70, 0
1, 32256, Note_on_c, 1, 47, 84
1, 32256, Note_on_c, 1, 59, 64
1, 32262, Note_on_c, 0, 62, 64
1, 32262, Note_on_c, 1, 50, 84
1, 32268, Note_on_c, 0, 66, 64
1, 32268, Note_on_c, 1, 54, 84
1, 32274, Note_on_c, 0, 71, 64
1, 32274, Note_on_c, 0, 59, 64
1, 32274, Note_on_c, 1, 59, 84
1, 32304, Note_on_c, 0, 83, 64
1, 32304, Note_on_c, 1, 54, 0
1, 32304, Note_on_c, 1, 50, 0
1, 32304, Note_on_c, 1, 47, 0
1, 32327, Note_on_c, 0, 83, 0
1, 32327, Note_on_c, 0, 71, 0
1, 32327, Note_on_c, 0, 66, 0
1, 32327, Note_on_c, 0, 62, 0
1, 32328, Note_on_c, 0, 71, 64
1, 32349, Note_on_c, 1, 59, 0
1, 32351, Note_on_c, 0, 71, 0
1, 32352, Note_on_c, 0, 82, 64
1, 32352, Note_on_c, 1, 61, 78
1, 32375, Note_on_c, 0, 82, 0
1, 32376, Note_on_c, 0, 71, 64
1, 32397, Note_on_c, 1, 61, 0
1, 32399, Note_on_c, 0, 71, 0
1, 32400, Note_on_c, 0, 81, 64
1, 32400, Note_on_c, 1, 63, 78
1, 32423, Note_on_c, 0, 81, 0
1, 32424, Note_on_c, 0, 71, 64
1, 32445, Note_on_c, 1, 63, 0
1, 32447, Note_on_c, 0, 71, 0
1, 32448, Note_on_c, 0, 79, 64
1, 32448, Note_on_c, 1, 64, 78
1, 32471, Note_on_c, 0, 79, 0
1, 32472, Note_on_c, 0, 71, 64
1, 32493, Note_on_c, 1, 64, 0
1, 32495, Note_on_c, 0, 71, 0
1, 32496, Note_on_c, 0, 78, 64
1, 32496, Note_on_c, 1, 63, 78
1, 32519, Note_on_c, 0, 78, 0
1, 32520, Note_on_c, 0, 71, 64
1, 32541, Note_on_c, 1, 63, 0
1, 32543, Note_on_c, 0, 71, 0
1, 32544, Note_on_c, 0, 79, 64
1, 32544, Note_on_c, 1, 64, 78
1, 32567, Note_on_c, 0, 79, 0
1, 32568, Note_on_c, 0, 71, 64
1, 32584, Note_on_c, 0, 59, 0
1, 32589, Note_on_c, 1, 64, 0
1, 32591, Note_on_c, 0, 71, 0
1, 32592, Note_on_c, 0, 83, 64
1, 32592, Note_on_c, 1, 67, 78
1, 32615, Note_on_c, 0, 83, 0
1, 32616, Note_on_c, 0, 71, 64
1, 32637, Note_on_c, 1, 67, 0
1, 32639, Note_on_c, 0, 71, 0
1, 32640, Note_on_c, 0, 78, 64
1, 32640, Note_on_c, 1, 62, 78
1, 32663, Note_on_c, 0, 78, 0
1, 32664, Note_on_c, 0, 71, 64
1, 32685, Note_on_c, 1, 62, 0
1, 32687, Note_on_c, 0, 71, 0
1, 32688, Note_on_c, 0, 76, 64
1, 32688, Note_on_c, 1, 61, 78
1, 32711, Note_on_c, 0, 76, 0
1, 32712, Note_on_c, 0, 71, 64
1, 32733, Note_on_c, 1, 61, 0
1, 32735, Note_on_c, 0, 71, 0
1, 32736, Note_on_c, 0, 78, 64
1, 32736, Note_on_c, 1, 62, 78
1, 32759, Note_on_c, 0, 78, 0
1, 32760, Note_on_c, 0, 71, 64
1, 32781, Note_on_c, 1, 62, 0
1, 32783, Note_on_c, 0, 71, 0
1, 32784, Note_on_c, 0, 74, 64
1, 32784, Note_on_c, 1, 66, 78
1, 32807, Note_on_c, 0, 74, 0
1, 32808, Note_on_c, 0, 71, 64
1, 32829, Note_on_c, 1, 66, 0
1, 32831, Note_on_c, 0, 71, 0
1, 32832, Note_on_c, 0, 76, 64
1, 32832, Note_on_c, 1, 67, 78
1, 32855, Note_on_c, 0, 76, 0
1, 32856, Note_on_c, 0, 71, 64
1, 32877, Note_on_c, 1, 67, 0
1, 32879, Note_on_c, 0, 71, 0
1, 32880, Note_on_c, 0, 74, 64
1, 32880, Note_on_c, 1, 66, 78
1, 32903, Note_on_c, 0, 74, 0
1, 32904, Note_on_c, 0, 71, 64
1, 32925, Note_on_c, 1, 66, 0
1, 32927, Note_on_c, 0, 71, 0
1, 32928, Note_on_c, 0, 76, 64
1, 32928, Note_on_c, 1, 67, 78
1, 32951, Note_on_c, 0, 76, 0
1, 32952, Note_on_c, 0, 71, 64
1, 32973, Note_on_c, 1, 67, 0
1, 32975, Note_on_c, 0, 71, 0
1, 32976, Note_on_c, 0, 73, 64
1, 32976, Note_on_c, 1, 64, 78
1, 32994, Note_on_c, 1, 59, 0
1, 32999, Note_on_c, 0, 73, 0
1, 33000, Note_on_c, 0, 71, 64
1, 33021, Note_on_c, 1, 64, 0
1, 33023, Note_on_c, 0, 71, 0
1, 33024, Note_on_c, 0, 74, 64
1, 33024, Note_on_c, 1, 66, 78
1, 33024, Note_on_c, 1, 59, 64
1, 33047, Note_on_c, 0, 74, 0
1, 33048, Note_on_c, 0, 71, 64
1, 33069, Note_on_c, 1, 66, 0
1, 33071, Note_on_c, 0, 71, 0
1, 33072, Note_on_c, 0, 73, 64
1, 33072, Note_on_c, 1, 64, 78
1, 33095, Note_on_c, 0, 73, 0
1, 33096, Note_on_c, 0, 71, 64
1, 33117, Note_on_c, 1, 64, 0
1, 33119, Note_on_c, 0, 71, 0
1, 33120, Note_on_c, 0, 74, 64
1, 33120, Note_on_c, 1, 66, 78
1, 33143, Note_on_c, 0, 74, 0
1, 33144, Note_on_c, 0, 71, 64
1, 33165, Note_on_c, 1, 66, 0
1, 33167, Note_on_c, 0, 71, 0
1, 33168, Note_on_c, 0, 78, 64
1, 33168, Note_on_c, 1, 62, 78
1, 33191, Note_on_c, 0, 78, 0
1, 33192, Note_on_c, 0, 71, 64
1, 33201, Note_on_c, 1, 59, 0
1, 33213, Note_on_c, 1, 62, 0
1, 33215, Note_on_c, 0, 71, 0
1, 33216, Note_on_c, 0, 77, 64
1, 33216, Note_on_c, 1, 61, 78
1, 33239, Note_on_c, 0, 77, 0
1, 33239, Note_on_c, 1, 61, 0
1, 33240, Note_on_c, 0, 71, 64
1, 33240, Note_on_c, 1, 68, 78
1, 33263, Note_on_c, 0, 71, 0
1, 33263, Note_on_c, 1, 68, 0
1, 33264, Note_on_c, 0, 77, 64
1, 33264, Note_on_c, 1, 61, 78
1, 33287, Note_on_c, 0, 77, 0
1, 33287, Note_on_c, 1, 61, 0
1, 33288, Note_on_c, 0, 71, 64
1, 33288, Note_on_c, 1, 68, 78
1, 33311, Note_on_c, 0, 71, 0
1, 33311, Note_on_c, 1, 68, 0
1, 33312, Note_on_c, 0, 76, 64
1, 33312, Note_on_c, 1, 61, 78
1, 33335, Note_on_c, 0, 76, 0
1, 33335, Note_on_c, 1, 61, 0
1, 33336, Note_on_c, 0, 70, 64
1, 33336, Note_on_c, 1, 67, 78
1, 33359, Note_on_c, 0, 70, 0
1, 33359, Note_on_c, 1, 67, 0
1, 33360, Note_on_c, 0, 76, 64
1, 33360, Note_on_c, 1, 61, 78
1, 33383, Note_on_c, 0, 76, 0
1, 33383, Note_on_c, 1, 61, 0
1, 33384, Note_on_c, 0, 70, 64
1, 33384, Note_on_c, 1, 67, 78
1, 33407, Note_on_c, 0, 70, 0
1, 33407, Note_on_c, 1, 67, 0
1, 33408, Note_on_c, 0, 74, 64
1, 33408, Note_on_c, 1, 62, 78
1, 33431, Note_on_c, 0, 74, 0
1, 33431, Note_on_c, 1, 62, 0
1, 33432, Note_on_c, 0, 71, 64
1, 33432, Note_on_c, 1, 66, 78
1, 33455, Note_on_c, 0, 71, 0
1, 33455, Note_on_c, 1, 66, 0
1, 33456, Note_on_c, 0, 74, 64
1, 33456, Note_on_c, 1, 62, 78
1, 33479, Note_on_c, 0, 74, 0
1, 33479, Note_on_c, 1, 62, 0
1, 33480, Note_on_c, 0, 71, 64
1, 33480, Note_on_c, 1, 66, 78
1, 33503, Note_on_c, 0, 71, 0
1, 33503, Note_on_c, 1, 66, 0
1, 33504, Note_on_c, 0, 78, 64
1, 33504, Note_on_c, 1, 63, 78
1, 33527, Note_on_c, 0, 78, 0
1, 33527, Note_on_c, 1, 63, 0
1, 33528, Note_on_c, 0, 69, 64
1, 33528, Note_on_c, 1, 72, 78
1, 33551, Note_on_c, 0, 69, 0
1, 33551, Note_on_c, 1, 72, 0
1, 33552, Note_on_c, 0, 78, 64
1, 33552, Note_on_c, 1, 63, 78
1, 33575, Note_on_c, 0, 78, 0
1, 33575, Note_on_c, 1, 63, 0
1, 33576, Note_on_c, 0, 69, 64
1, 33576, Note_on_c, 1, 72, 78
1, 33599, Note_on_c, 0, 69, 0
1, 33599, Note_on_c, 1, 72, 0
1, 33600, Note_on_c, 0, 76, 64
1, 33600, Note_on_c, 1, 64, 78
1, 33623, Note_on_c, 0, 76, 0
1, 33623, Note_on_c, 1, 64, 0
1, 33624, Note_on_c, 0, 67, 64
1, 33624, Note_on_c, 1, 71, 78
1, 33647, Note_on_c, 0, 67, 0
1, 33647, Note_on_c, 1, 71, 0
1, 33648, Note_on_c, 0, 76, 64
1, 33648, Note_on_c, 1, 64, 78
1, 33671, Note_on_c, 0, 76, 0
1, 33671, Note_on_c, 1, 64, 0
1, 33672, Note_on_c, 0, 67, 64
1, 33672, Note_on_c, 1, 71, 78
1, 33695, Note_on_c, 0, 67, 0
1, 33695, Note_on_c, 1, 71, 0
1, 33696, Note_on_c, 0, 74, 64
1, 33696, Note_on_c, 1, 65, 78
1, 33719, Note_on_c, 0, 74, 0
1, 33719, Note_on_c, 1, 65, 0
1, 33720, Note_on_c, 0, 71, 64
1, 33720, Note_on_c, 1, 68, 78
1, 33743, Note_on_c, 0, 71, 0
1, 33743, Note_on_c, 1, 68, 0
1, 33744, Note_on_c, 0, 74, 64
1, 33744, Note_on_c, 1, 65, 78
1, 33767, Note_on_c, 0, 74, 0
1, 33767, Note_on_c, 1, 65, 0
1, 33768, Note_on_c, 0, 71, 64
1, 33768, Note_on_c, 1, 68, 78
1, 33791, Note_on_c, 0, 71, 0
1, 33791, Note_on_c, 1, 68, 0
1, 33792, Note_on_c, 0, 70, 64
1, 33792, Note_on_c, 1, 54, 78
1, 33815, Note_on_c, 1, 54, 0
1, 33816, Note_on_c, 1, 66, 78
1, 33837, Note_on_c, 0, 70, 0
1, 33839, Note_on_c, 1, 66, 0
1, 33840, Note_on_c, 0, 71, 64
1, 33840, Note_on_c, 1, 56, 78
1, 33863, Note_on_c, 1, 56, 0
1, 33864, Note_on_c, 1, 66, 78
1, 33885, Note_on_c, 0, 71, 0
1, 33887, Note_on_c, 1, 66, 0
1, 33888, Note_on_c, 0, 73, 64
1, 33888, Note_on_c, 1, 58, 78
1, 33911, Note_on_c, 1, 58, 0
1, 33912, Note_on_c, 1, 66, 78
1, 33933, Note_on_c, 0, 73, 0
1, 33935, Note_on_c, 1, 66, 0
1, 33936, Note_on_c, 0, 76, 64
1, 33936, Note_on_c, 1, 59, 78
1, 33948, Note_on_c, 0, 76, 0
1, 33948, Note_on_c, 0, 74, 64
1, 33959, Note_on_c, 1, 59, 0
1, 33960, Note_on_c, 0, 74, 0
1, 33960, Note_on_c, 0, 73, 64
1, 33960, Note_on_c, 1, 66, 78
1, 33972, Note_on_c, 0, 73, 0
1, 33972, Note_on_c, 0, 74, 64
1, 33983, Note_on_c, 1, 66, 0
1, 33984, Note_on_c, 0, 74, 0
1, 33984, Note_on_c, 0, 76, 64
1, 33984, Note_on_c, 1, 61, 78
1, 34007, Note_on_c, 1, 61, 0
1, 34008, Note_on_c, 1, 66, 78
1, 34029, Note_on_c, 0, 76, 0
1, 34031, Note_on_c, 1, 66, 0
1, 34032, Note_on_c, 0, 74, 64
1, 34032, Note_on_c, 1, 59, 78
1, 34055, Note_on_c, 1, 59, 0
1, 34056, Note_on_c, 1, 66, 78
1, 34077, Note_on_c, 0, 74, 0
1, 34079, Note_on_c, 1, 66, 0
1, 34080, Note_on_c, 0, 76, 64
1, 34080, Note_on_c, 1, 61, 78
1, 34103, Note_on_c, 1, 61, 0
1, 34104, Note_on_c, 1, 66, 78
1, 34125, Note_on_c, 0, 76, 0
1, 34127, Note_on_c, 1, 66, 0
1, 34128, Note_on_c, 0, 73, 64
1, 34128, Note_on_c, 1, 58, 78
1, 34151, Note_on_c, 1, 58, 0
1, 34152, Note_on_c, 1, 66, 78
1, 34173, Note_on_c, 0, 73, 0
1, 34175, Note_on_c, 1, 66, 0
1, 34176, Note_on_c, 0, 74, 64
1, 34176, Note_on_c, 1, 59, 78
1, 34176, Note_on_c, 1, 59, 64
1, 34199, Note_on_c, 0, 74, 0
1, 34200, Note_on_c, 0, 71, 64
1, 34221, Note_on_c, 1, 59, 0
1, 34223, Note_on_c, 0, 71, 0
1, 34224, Note_on_c, 0, 76, 64
1, 34224, Note_on_c, 1, 61, 78
1, 34247, Note_on_c, 0, 76, 0
1, 34248, Note_on_c, 0, 71, 64
1, 34269, Note_on_c, 1, 61, 0
1, 34271, Note_on_c, 0, 71, 0
1, 34272, Note_on_c, 0, 78, 64
1, 34272, Note_on_c, 1, 62, 78
1, 34295, Note_on_c, 0, 78, 0
1, 34296, Note_on_c, 0, 71, 64
1, 34317, Note_on_c, 1, 62, 0
1, 34319, Note_on_c, 0, 71, 0
1, 34320, Note_on_c, 0, 81, 64
1, 34320, Note_on_c, 1, 64, 78
1, 34332, Note_on_c, 0, 81, 0
1, 34332, Note_on_c, 0, 79, 64
1, 34344, Note_on_c, 0, 79, 0
1, 34344, Note_on_c, 0, 78, 64
1, 34344, Note_on_c, 0, 71, 64
1, 34356, Note_on_c, 0, 78, 0
1, 34356, Note_on_c, 0, 79, 64
1, 34365, Note_on_c, 1, 64, 0
1, 34367, Note_on_c, 0, 71, 0
1, 34368, Note_on_c, 0, 79, 0
1, 34368, Note_on_c, 0, 81, 64
1, 34368, Note_on_c, 1, 66, 78
1, 34391, Note_on_c, 0, 81, 0
1, 34392, Note_on_c, 0, 71, 64
1, 34413, Note_on_c, 1, 66, 0
1, 34415, Note_on_c, 0, 71, 0
1, 34416, Note_on_c, 0, 79, 64
1, 34416, Note_on_c, 1, 64, 78
1, 34439, Note_on_c, 0, 79, 0
1, 34440, Note_on_c, 0, 71, 64
1, 34461, Note_on_c, 1, 64, 0
1, 34463, Note_on_c, 0, 71, 0
1, 34464, Note_on_c, 0, 81, 64
1, 34464, Note_on_c, 1, 66, 78
1, 34487, Note_on_c, 0, 81, 0
1, 34488, Note_on_c, 0, 71, 64
1, 34509, Note_on_c, 1, 66, 0
1, 34511, Note_on_c, 0, 71, 0
1, 34512, Note_on_c, 0, 78, 64
1, 34512, Note_on_c, 1, 63, 78
1, 34535, Note_on_c, 0, 78, 0
1, 34536, Note_on_c, 0, 71, 64
1, 34557, Note_on_c, 1, 63, 0
1, 34559, Note_on_c, 0, 71, 0
1, 34560, Note_on_c, 0, 79, 64
1, 34560, Note_on_c, 1, 64, 78
1, 34583, Note_on_c, 0, 79, 0
1, 34584, Note_on_c, 0, 71, 64
1, 34605, Note_on_c, 1, 64, 0
1, 34607, Note_on_c, 0, 71, 0
1, 34608, Note_on_c, 0, 78, 64
1, 34608, Note_on_c, 1, 63, 78
1, 34631, Note_on_c, 0, 78, 0
1, 34632, Note_on_c, 0, 71, 64
1, 34653, Note_on_c, 1, 63, 0
1, 34655, Note_on_c, 0, 71, 0
1, 34656, Note_on_c, 0, 79, 64
1, 34656, Note_on_c, 1, 64, 78
1, 34679, Note_on_c, 0, 79, 0
1, 34680, Note_on_c, 0, 71, 64
1, 34701, Note_on_c, 1, 64, 0
1, 34703, Note_on_c, 0, 71, 0
1, 34704, Note_on_c, 0, 82, 64
1, 34704, Note_on_c, 1, 61, 78
1, 34727, Note_on_c, 0, 82, 0
1, 34728, Note_on_c, 0, 73, 64
1, 34749, Note_on_c, 1, 61, 0
1, 34751, Note_on_c, 0, 73, 0
1, 34752, Note_on_c, 0, 83, 64
1, 34752, Note_on_c, 1, 66, 78
1, 34752, Note_on_c, 1, 62, 78
1, 34775, Note_on_c, 0, 83, 0
1, 34776, Note_on_c, 0, 71, 64
1, 34797, Note_on_c, 1, 66, 0
1, 34797, Note_on_c, 1, 62, 0
1, 34799, Note_on_c, 0, 71, 0
1, 34800, Note_on_c, 0, 82, 64
1, 34800, Note_on_c, 1, 67, 78
1, 34800, Note_on_c, 1, 64, 78
1, 34823, Note_on_c, 0, 82, 0
1, 34824, Note_on_c, 0, 73, 64
1, 34845, Note_on_c, 1, 67, 0
1, 34845, Note_on_c, 1, 64, 0
1, 34847, Note_on_c, 0, 73, 0
1, 34848, Note_on_c, 0, 83, 64
1, 34848, Note_on_c, 1, 66, 78
1, 34848, Note_on_c, 1, 62, 78
1, 34871, Note_on_c, 0, 83, 0
1, 34872, Note_on_c, 0, 71, 64
1, 34893, Note_on_c, 1, 66, 0
1, 34893, Note_on_c, 1, 62, 0
1, 34895, Note_on_c, 0, 71, 0
1, 34896, Note_on_c, 0, 82, 64
1, 34896, Note_on_c, 1, 67, 78
1, 34896, Note_on_c, 1, 64, 78
1, 34919, Note_on_c, 0, 82, 0
1, 34920, Note_on_c, 0, 73, 64
1, 34929, Note_on_c, 1, 59, 0
1, 34941, Note_on_c, 1, 67, 0
1, 34941, Note_on_c, 1, 64, 0
1, 34943, Note_on_c, 0, 73, 0
1, 34944, Note_on_c, 0, 83, 64
1, 34944, Note_on_c, 1, 66, 78
1, 34944, Note_on_c, 1, 62, 78
1, 34944, Note_on_c, 1, 59, 78
1, 34964, Note_on_c, 0, 83, 0
1, 34992, Note_on_c, 0, 86, 64
1, 35007, Note_on_c, 0, 86, 0
1, 35008, Note_on_c, 0, 85, 64
1, 35023, Note_on_c, 0, 85, 0
1, 35024, Note_on_c, 0, 83, 64
1, 35033, Note_on_c, 1, 66, 0
1, 35033, Note_on_c, 1, 62, 0
1, 35033, Note_on_c, 1, 59, 0
1, 35039, Note_on_c, 0, 83, 0
1, 35040, Note_on_c, 0, 81, 64
1, 35055, Note_on_c, 0, 81, 0
1, 35056, Note_on_c, 0, 79, 64
1, 35071, Note_on_c, 0, 79, 0
1, 35072, Note_on_c, 0, 78, 64
1, 35087, Note_on_c, 0, 78, 0
1, 35088, Note_on_c, 0, 76, 64
1, 35103, Note_on_c, 0, 76, 0
1, 35104, Note_on_c, 0, 74, 64
1, 35119, Note_on_c, 0, 74, 0
1, 35120, Note_on_c, 0, 73, 64
1, 35135, Note_on_c, 0, 73, 0
1, 35136, Note_on_c, 0, 71, 64
1, 35136, Note_on_c, 1, 67, 78
1, 35156, Note_on_c, 0, 71, 0
1, 35184, Note_on_c, 0, 75, 64
1, 35199, Note_on_c, 0, 75, 0
1, 35200, Note_on_c, 0, 76, 64
1, 35215, Note_on_c, 0, 76, 0
1, 35216, Note_on_c, 0, 78, 64
1, 35225, Note_on_c, 1, 67, 0
1, 35231, Note_on_c, 0, 78, 0
1, 35232, Note_on_c, 0, 79, 64
1, 35247, Note_on_c, 0, 79, 0
1, 35248, Note_on_c, 0, 78, 64
1, 35263, Note_on_c, 0, 78, 0
1, 35264, Note_on_c, 0, 76, 64
1, 35279, Note_on_c, 0, 76, 0
1, 35280, Note_on_c, 0, 88, 64
1, 35280, Note_on_c, 1, 64, 78
1, 35295, Note_on_c, 0, 88, 0
1, 35296, Note_on_c, 0, 85, 64
1, 35311, Note_on_c, 0, 85, 0
1, 35312, Note_on_c, 0, 82, 64
1, 35325, Note_on_c, 1, 64, 0
1, 35327, Note_on_c, 0, 82, 0
1, 35328, Note_on_c, 0, 83, 64
1, 35328, Note_on_c, 1, 62, 78
1, 35373, Note_on_c, 0, 83, 0
1, 35373, Note_on_c, 1, 62, 0
1, 35376, Note_on_c, 0, 81, 64
1, 35376, Note_on_c, 1, 64, 78
1, 35388, Note_on_c, 0, 81, 0
1, 35388, Note_on_c, 0, 79, 64
1, 35400, Note_on_c, 0, 79, 0
1, 35400, Note_on_c, 0, 78, 64
1, 35412, Note_on_c, 0, 78, 0
1, 35412, Note_on_c, 0, 76, 64
1, 35421, Note_on_c, 1, 64, 0
1, 35424, Note_on_c, 0, 76, 0
1, 35424, Note_on_c, 0, 74, 64
1, 35424, Note_on_c, 1, 66, 78
1, 35469, Note_on_c, 0, 74, 0
1, 35469, Note_on_c, 1, 66, 0
1, 35472, Note_on_c, 0, 74, 64
1, 35472, Note_on_c, 1, 54, 78
1, 35480, Note_on_c, 0, 74, 0
1, 35480, Note_on_c, 0, 73, 64
1, 35488, Note_on_c, 0, 73, 0
1, 35488, Note_on_c, 0, 74, 64
1, 35496, Note_on_c, 0, 74, 0
1, 35496, Note_on_c, 0, 73, 64
1, 35504, Note_on_c, 0, 73, 0
1, 35504, Note_on_c, 0, 71, 64
1, 35512, Note_on_c, 0, 71, 0
1, 35512, Note_on_c, 0, 73, 64
1, 35517, Note_on_c, 1, 54, 0
1, 35520, Note_on_c, 0, 73, 0
1, 35520, Note_on_c, 0, 71, 64
1, 35520, Note_on_c, 1, 59, 78
1, 35540, Note_on_c, 0, 71, 0
1, 35568, Note_on_c, 0, 74, 64
1, 35583, Note_on_c, 0, 74, 0
1, 35584, Note_on_c, 0, 73, 64
1, 35599, Note_on_c, 0, 73, 0
1, 35600, Note_on_c, 0, 71, 64
1, 35609, Note_on_c, 1, 59, 0
1, 35615, Note_on_c, 0, 71, 0
1, 35616, Note_on_c, 0, 69, 64
1, 35631, Note_on_c, 0, 69, 0
1, 35632, Note_on_c, 0, 67, 64
1, 35647, Note_on_c, 0, 67, 0
1, 35648, Note_on_c, 0, 66, 64
1, 35663, Note_on_c, 0, 66, 0
1, 35664, Note_on_c, 0, 64, 64
1, 35679, Note_on_c, 0, 64, 0
1, 35680, Note_on_c, 0, 62, 64
1, 35695, Note_on_c, 0, 62, 0
1, 35696, Note_on_c, 0, 61, 64
1, 35711, Note_on_c, 0, 61, 0
1, 35712, Note_on_c, 0, 59, 64
1, 35712, Note_on_c, 1, 55, 78
1, 35732, Note_on_c, 1, 55, 0
1, 35757, Note_on_c, 0, 59, 0
1, 35760, Note_on_c, 1, 58, 78
1, 35775, Note_on_c, 1, 58, 0
1, 35776, Note_on_c, 1, 61, 78
1, 35791, Note_on_c, 1, 61, 0
1, 35792, Note_on_c, 1, 64, 78
1, 35807, Note_on_c, 1, 64, 0
1, 35808, Note_on_c, 0, 67, 64
1, 35823, Note_on_c, 0, 67, 0
1, 35824, Note_on_c, 0, 70, 64
1, 35839, Note_on_c, 0, 70, 0
1, 35840, Note_on_c, 0, 73, 64
1, 35855, Note_on_c, 0, 73, 0
1, 35856, Note_on_c, 0, 76, 64
1, 35871, Note_on_c, 0, 76, 0
1, 35872, Note_on_c, 0, 79, 64
1, 35887, Note_on_c, 0, 79, 0
1, 35888, Note_on_c, 0, 82, 64
1, 35903, Note_on_c, 0, 82, 0
1, 35904, Note_on_c, 0, 83, 64
1, 35949, Note_on_c, 0, 83, 0
1, 35952, Note_on_c, 0, 81, 64
1, 35952, Note_on_c, 1, 64, 78
1, 35964, Note_on_c, 0, 81, 0
1, 35964, Note_on_c, 0, 79, 64
1, 35976, Note_on_c, 0, 79, 0
1, 35976, Note_on_c, 0, 78, 64
1, 35988, Note_on_c, 0, 78, 0
1, 35988, Note_on_c, 0, 76, 64
1, 35997, Note_on_c, 1, 64, 0
1, 36000, Note_on_c, 0, 76, 0
1, 36000, Note_on_c, 0, 74, 64
1, 36000, Note_on_c, 1, 66, 78
1, 36045, Note_on_c, 0, 74, 0
1, 36045, Note_on_c, 1, 66, 0
1, 36048, Note_on_c, 0, 74, 64
1, 36048, Note_on_c, 1, 54, 78
1, 36056, Note_on_c, 0, 74, 0
1, 36056, Note_on_c, 0, 73, 64
1, 36064, Note_on_c, 0, 73, 0
1, 36064, Note_on_c, 0, 74, 64
1, 36072, Note_on_c, 0, 74, 0
1, 36072, Note_on_c, 0, 73, 64
1, 36080, Note_on_c, 0, 73, 0
1, 36080, Note_on_c, 0, 71, 64
1, 36088, Note_on_c, 0, 71, 0
1, 36088, Note_on_c, 0, 73, 64
1, 36093, Note_on_c, 1, 54, 0
1, 36096, Note_on_c, 0, 73, 0
1, 36096, Note_on_c, 0, 71, 64
1, 36096, Note_on_c, 1, 59, 78
1, 36116, Note_on_c, 0, 71, 0
1, 36116, Note_on_c, 1, 59, 0
1, 36144, Note_on_c, 0, 74, 64
1, 36144, Note_on_c, 1, 59, 78
1, 36168, Note_on_c, 0, 74, 0
1, 36168, Note_on_c, 0, 83, 64
1, 36189, Note_on_c, 1, 59, 0
1, 36191, Note_on_c, 0, 83, 0
1, 36192, Note_on_c, 0, 76, 64
1, 36192, Note_on_c, 1, 61, 78
1, 36215, Note_on_c, 0, 76, 0
1, 36216, Note_on_c, 0, 83, 64
1, 36237, Note_on_c, 1, 61, 0
1, 36239, Note_on_c, 0, 83, 0
1, 36240, Note_on_c, 0, 78, 64
1, 36240, Note_on_c, 1, 62, 78
1, 36263, Note_on_c, 0, 78, 0
1, 36264, Note_on_c, 0, 83, 64
1, 36285, Note_on_c, 1, 62, 0
1, 36287, Note_on_c, 0, 83, 0
1, 36288, Note_on_c, 0, 79, 64
1, 36288, Note_on_c, 1, 64, 78
1, 36311, Note_on_c, 0, 79, 0
1, 36312, Note_on_c, 0, 83, 64
1, 36333, Note_on_c, 1, 64, 0
1, 36335, Note_on_c, 0, 83, 0
1, 36336, Note_on_c, 0, 78, 64
1, 36336, Note_on_c, 1, 62, 78
1, 36359, Note_on_c, 0, 78, 0
1, 36360, Note_on_c, 0, 83, 64
1, 36381, Note_on_c, 1, 62, 0
1, 36383, Note_on_c, 0, 83, 0
1, 36384, Note_on_c, 0, 79, 64
1, 36384, Note_on_c, 1, 64, 78
1, 36407, Note_on_c, 0, 79, 0
1, 36408, Note_on_c, 0, 83, 64
1, 36429, Note_on_c, 1, 64, 0
1, 36431, Note_on_c, 0, 83, 0
1, 36432, Note_on_c, 0, 82, 64
1, 36432, Note_on_c, 1, 66, 78
1, 36455, Note_on_c, 0, 82, 0
1, 36456, Note_on_c, 0, 88, 64
1, 36477, Note_on_c, 1, 66, 0
1, 36479, Note_on_c, 0, 88, 0
1, 36480, Note_on_c, 0, 86, 64
1, 36480, Note_on_c, 1, 67, 78
1, 36503, Note_on_c, 0, 86, 0
1, 36504, Note_on_c, 0, 83, 64
1, 36525, Note_on_c, 1, 67, 0
1, 36527, Note_on_c, 0, 83, 0
1, 36528, Note_on_c, 0, 76, 64
1, 36528, Note_on_c, 1, 64, 78
1, 36551, Note_on_c, 0, 76, 0
1, 36552, Note_on_c, 0, 85, 64
1, 36573, Note_on_c, 1, 64, 0
1, 36575, Note_on_c, 0, 85, 0
1, 36576, Note_on_c, 0, 74, 64
1, 36576, Note_on_c, 1, 66, 78
1, 36599, Note_on_c, 0, 74, 0
1, 36600, Note_on_c, 0, 83, 64
1, 36621, Note_on_c, 1, 66, 0
1, 36623, Note_on_c, 0, 83, 0
1, 36624, Note_on_c, 0, 73, 64
1, 36624, Note_on_c, 1, 54, 78
1, 36647, Note_on_c, 0, 73, 0
1, 36648, Note_on_c, 0, 82, 64
1, 36669, Note_on_c, 1, 54, 0
1, 36671, Note_on_c, 0, 82, 0
1, 36672, Note_on_c, 0, 83, 64
1, 36672, Note_on_c, 0, 74, 64
1, 36672, Note_on_c, 1, 59, 78
1, 36717, Note_on_c, 0, 83, 0
1, 36717, Note_on_c, 0, 74, 0
1, 36717, Note_on_c, 1, 59, 0
1, 36720, Note_on_c, 0, 62, 64
1, 36720, Note_on_c, 1, 35, 78
1, 36743, Note_on_c, 1, 35, 0
1, 36744, Note_on_c, 0, 62, 0
1, 36744, Note_on_c, 0, 71, 64
1, 36744, Note_on_c, 1, 47, 78
1, 36767, Note_on_c, 0, 71, 0
1, 36767, Note_on_c, 1, 47, 0
1, 36768, Note_on_c, 0, 64, 64
1, 36768, Note_on_c, 1, 37, 78
1, 36791, Note_on_c, 0, 64, 0
1, 36791, Note_on_c, 1, 37, 0
1, 36792, Note_on_c, 0, 71, 64
1, 36792, Note_on_c, 1, 49, 78
1, 36815, Note_on_c, 0, 71, 0
1, 36815, Note_on_c, 1, 49, 0
1, 36816, Note_on_c, 0, 66, 64
1, 36816, Note_on_c, 1, 38, 78
1, 36839, Note_on_c, 0, 66, 0
1, 36839, Note_on_c, 1, 38, 0
1, 36840, Note_on_c, 0, 71, 64
1, 36840, Note_on_c, 1, 50, 78
1, 36863, Note_on_c, 0, 71, 0
1, 36863, Note_on_c, 1, 50, 0
1, 36864, Note_on_c, 0, 67, 64
1, 36864, Note_on_c, 1, 40, 78
1, 36887, Note_on_c, 0, 67, 0
1, 36887, Note_on_c, 1, 40, 0
1, 36888, Note_on_c, 0, 71, 64
1, 36888, Note_on_c, 1, 52, 78
1, 36911, Note_on_c, 0, 71, 0
1, 36911, Note_on_c, 1, 52, 0
1, 36912, Note_on_c, 0, 66, 64
1, 36912, Note_on_c, 1, 38, 78
1, 36935, Note_on_c, 0, 66, 0
1, 36935, Note_on_c, 1, 38, 0
1, 36936, Note_on_c, 0, 71, 64
1, 36936, Note_on_c, 1, 50, 78
1, 36959, Note_on_c, 0, 71, 0
1, 36959, Note_on_c, 1, 50, 0
1, 36960, Note_on_c, 0, 67, 64
1, 36960, Note_on_c, 1, 40, 78
1, 36983, Note_on_c, 0, 67, 0
1, 36983, Note_on_c, 1, 40, 0
1, 36984, Note_on_c, 0, 71, 64
1, 36984, Note_on_c, 1, 52, 78
1, 37007, Note_on_c, 0, 71, 0
1, 37007, Note_on_c, 1, 52, 0
1, 37008, Note_on_c, 0, 70, 64
1, 37008, Note_on_c, 1, 42, 78
1, 37031, Note_on_c, 0, 70, 0
1, 37031, Note_on_c, 1, 42, 0
1, 37032, Note_on_c, 0, 76, 64
1, 37032, Note_on_c, 1, 54, 78
1, 37055, Note_on_c, 0, 76, 0
1, 37055, Note_on_c, 1, 54, 0
1, 37056, Note_on_c, 0, 74, 64
1, 37056, Note_on_c, 1, 43, 78
1, 37079, Note_on_c, 0, 74, 0
1, 37079, Note_on_c, 1, 43, 0
1, 37080, Note_on_c, 0, 71, 64
1, 37080, Note_on_c, 1, 55, 78
1, 37103, Note_on_c, 0, 71, 0
1, 37103, Note_on_c, 1, 55, 0
1, 37104, Note_on_c, 0, 64, 64
1, 37104, Note_on_c, 1, 52, 78
1, 37127, Note_on_c, 0, 64, 0
1, 37128, Note_on_c, 0, 73, 64
1, 37149, Note_on_c, 1, 52, 0
1, 37151, Note_on_c, 0, 73, 0
1, 37152, Note_on_c, 0, 62, 64
1, 37152, Note_on_c, 1, 54, 78
1, 37175, Note_on_c, 0, 62, 0
1, 37176, Note_on_c, 0, 71, 64
1, 37197, Note_on_c, 1, 54, 0
1, 37199, Note_on_c, 0, 71, 0
1, 37200, Note_on_c, 0, 61, 64
1, 37200, Note_on_c, 1, 42, 78
1, 37223, Note_on_c, 0, 61, 0
1, 37224, Note_on_c, 0, 70, 64
1, 37245, Note_on_c, 1, 42, 0
1, 37247, Note_on_c, 0, 70, 0
1, 37248, Note_on_c, 0, 71, 64
1, 37248, Note_on_c, 0, 62, 64
1, 37248, Note_on_c, 1, 47, 78
1, 37268, Note_on_c, 0, 71, 0
1, 37268, Note_on_c, 0, 62, 0
1, 37296, Note_on_c, 0, 76, 64
1, 37296, Note_on_c, 0, 71, 64
1, 37308, Note_on_c, 0, 76, 0
1, 37308, Note_on_c, 0, 74, 64
1, 37316, Note_on_c, 0, 71, 0
1, 37320, Note_on_c, 0, 74, 0
1, 37320, Note_on_c, 0, 73, 64
1, 37332, Note_on_c, 0, 73, 0
1, 37332, Note_on_c, 0, 74, 64
1, 37337, Note_on_c, 1, 47, 0
1, 37344, Note_on_c, 0, 74, 0
1, 37344, Note_on_c, 0, 78, 64
1, 37344, Note_on_c, 0, 74, 64
1, 37364, Note_on_c, 0, 78, 0
1, 37364, Note_on_c, 0, 74, 0
1, 37392, Note_on_c, 0, 74, 64
1, 37392, Note_on_c, 0, 71, 64
1, 37412, Note_on_c, 0, 74, 0
1, 37412, Note_on_c, 0, 71, 0
1, 37440, Note_on_c, 0, 83, 64
1, 37440, Note_on_c, 0, 78, 64
1, 37440, Note_on_c, 0, 74, 64
1, 37440, Note_on_c, 0, 71, 64
1, 37440, Note_on_c, 1, 47, 78
1, 37440, Note_on_c, 1, 42, 78
1, 37440, Note_on_c, 1, 38, 78
1, 37440, Note_on_c, 1, 35, 78
1, 37529, Note_on_c, 0, 83, 0
1, 37529, Note_on_c, 0, 78, 0
1, 37529, Note_on_c, 0, 74, 0
1, 37529, Note_on_c, 0, 71, 0
1, 37529, Note_on_c, 1, 47, 0
1, 37529, Note_on_c, 1, 42, 0
1, 37529, Note_on_c, 1, 38, 0
1, 37529, Note_on_c, 1, 35, 0
1, 37632, Note_on_c, 0, 60, 64
1, 37644, Note_on_c, 0, 60, 0
1, 37644, Note_on_c, 0, 59, 64
1, 37656, Note_on_c, 0, 59, 0
1, 37656, Note_on_c, 0, 60, 64
1, 37680, Note_on_c, 1, 50, 78
1, 37700, Note_on_c, 1, 50, 0
1, 37728, Note_on_c, 1, 54, 78
1, 37748, Note_on_c, 1, 54, 0
1, 37776, Note_on_c, 1, 50, 78
1, 37796, Note_on_c, 1, 50, 0
1, 37811, Note_on_c, 0, 60, 0
1, 37824, Note_on_c, 0, 69, 64
1, 37836, Note_on_c, 0, 69, 0
1, 37836, Note_on_c, 0, 68, 64
1, 37848, Note_on_c, 0, 68, 0
1, 37848, Note_on_c, 0, 69, 64
1, 37872, Note_on_c, 1, 48, 78
1, 37892, Note_on_c, 1, 48, 0
1, 37920, Note_on_c, 1, 54, 78
1, 37940, Note_on_c, 1, 54, 0
1, 37968, Note_on_c, 1, 48, 78
1, 37988, Note_on_c, 1, 48, 0
1, 38003, Note_on_c, 0, 69, 0
1, 38016, Note_on_c, 0, 78, 64
1, 38028, Note_on_c, 0, 78, 0
1, 38028, Note_on_c, 0, 77, 64
1, 38040, Note_on_c, 0, 77, 0
1, 38040, Note_on_c, 0, 78, 64
1, 38064, Note_on_c, 1, 45, 78
1, 38084, Note_on_c, 1, 45, 0
1, 38112, Note_on_c, 1, 51, 78
1, 38132, Note_on_c, 1, 51, 0
1, 38160, Note_on_c, 1, 45, 78
1, 38180, Note_on_c, 1, 45, 0
1, 38195, Note_on_c, 0, 78, 0
1, 38208, Note_on_c, 0, 84, 64
1, 38256, Note_on_c, 1, 42, 78
1, 38276, Note_on_c, 1, 42, 0
1, 38304, Note_on_c, 1, 51, 78
1, 38324, Note_on_c, 1, 51, 0
1, 38341, Note_on_c, 0, 84, 0
1, 38352, Note_on_c, 0, 63, 64
1, 38352, Note_on_c, 1, 57, 78
1, 38372, Note_on_c, 1, 57, 0
1, 38397, Note_on_c, 0, 63, 0
1, 38400, Note_on_c, 0, 64, 64
1, 38412, Note_on_c, 0, 64, 0
1, 38412, Note_on_c, 0, 63, 64
1, 38424, Note_on_c, 0, 63, 0
1, 38424, Note_on_c, 0, 64, 64
1, 38448, Note_on_c, 1, 52, 78
1, 38468, Note_on_c, 1, 52, 0
1, 38496, Note_on_c, 1, 55, 78
1, 38516, Note_on_c, 1, 55, 0
1, 38544, Note_on_c, 1, 52, 78
1, 38564, Note_on_c, 1, 52, 0
1, 38579, Note_on_c, 0, 64, 0
1, 38592, Note_on_c, 0, 71, 64
1, 38604, Note_on_c, 0, 71, 0
1, 38604, Note_on_c, 0, 70, 64
1, 38616, Note_on_c, 0, 70, 0
1, 38616, Note_on_c, 0, 71, 64
1, 38640, Note_on_c, 1, 51, 78
1, 38660, Note_on_c, 1, 51, 0
1, 38688, Note_on_c, 1, 54, 78
1, 38708, Note_on_c, 1, 54, 0
1, 38736, Note_on_c, 1, 47, 78
1, 38756, Note_on_c, 1, 47, 0
1, 38769, Note_on_c, 0, 71, 0
1, 38784, Note_on_c, 0, 76, 64
1, 38832, Note_on_c, 1, 48, 78
1, 38852, Note_on_c, 1, 48, 0
1, 38880, Note_on_c, 1, 47, 78
1, 38900, Note_on_c, 1, 47, 0
1, 38917, Note_on_c, 0, 76, 0
1, 38928, Note_on_c, 0, 78, 64
1, 38928, Note_on_c, 1, 45, 78
1, 38948, Note_on_c, 1, 45, 0
1, 38962, Note_on_c, 0, 78, 0
1, 38964, Note_on_c, 0, 79, 64
1, 38976, Note_on_c, 0, 79, 0
1, 38976, Note_on_c, 0, 76, 64
1, 38976, Note_on_c, 1, 43, 78
1, 39021, Note_on_c, 0, 76, 0
1, 39024, Note_on_c, 0, 83, 64
1, 39044, Note_on_c, 0, 83, 0
1, 39065, Note_on_c, 1, 43, 0
1, 39072, Note_on_c, 0, 83, 64
1, 39092, Note_on_c, 0, 83, 0
1, 39120, Note_on_c, 0, 83, 64
1, 39140, Note_on_c, 0, 83, 0
1, 39168, Note_on_c, 0, 83, 64
1, 39216, Note_on_c, 1, 66, 78
1, 39216, Note_on_c, 1, 63, 78
1, 39261, Note_on_c, 1, 66, 0
1, 39261, Note_on_c, 1, 63, 0
1, 39264, Note_on_c, 1, 66, 78
1, 39264, Note_on_c, 1, 63, 78
1, 39287, Note_on_c, 0, 83, 0
1, 39288, Note_on_c, 0, 84, 64
1, 39294, Note_on_c, 0, 84, 0
1, 39294, Note_on_c, 0, 83, 64
1, 39300, Note_on_c, 0, 83, 0
1, 39300, Note_on_c, 0, 81, 64
1, 39306, Note_on_c, 0, 81, 0
1, 39306, Note_on_c, 0, 83, 64
1, 39309, Note_on_c, 1, 66, 0
1, 39309, Note_on_c, 1, 63, 0
1, 39312, Note_on_c, 0, 83, 0
1, 39312, Note_on_c, 0, 84, 64
1, 39312, Note_on_c, 1, 66, 78
1, 39312, Note_on_c, 1, 63, 78
1, 39346, Note_on_c, 0, 84, 0
1, 39348, Note_on_c, 0, 81, 64
1, 39357, Note_on_c, 1, 66, 0
1, 39357, Note_on_c, 1, 63, 0
1, 39360, Note_on_c, 0, 81, 0
1, 39360, Note_on_c, 0, 81, 64
1, 39408, Note_on_c, 1, 71, 78
1, 39408, Note_on_c, 1, 64, 78
1, 39453, Note_on_c, 1, 71, 0
1, 39453, Note_on_c, 1, 64, 0
1, 39456, Note_on_c, 0, 81, 0
1, 39456, Note_on_c, 0, 79, 64
1, 39456, Note_on_c, 1, 71, 78
1, 39456, Note_on_c, 1, 64, 78
1, 39468, Note_on_c, 0, 79, 0
1, 39468, Note_on_c, 0, 81, 64
1, 39480, Note_on_c, 0, 81, 0
1, 39480, Note_on_c, 0, 79, 64
1, 39501, Note_on_c, 0, 79, 0
1, 39501, Note_on_c, 1, 71, 0
1, 39501, Note_on_c, 1, 64, 0
1, 39504, Note_on_c, 0, 83, 64
1, 39504, Note_on_c, 1, 67, 78
1, 39538, Note_on_c, 0, 83, 0
1, 39540, Note_on_c, 0, 76, 64
1, 39549, Note_on_c, 1, 67, 0
1, 39552, Note_on_c, 0, 76, 0
1, 39552, Note_on_c, 0, 79, 64
1, 39552, Note_on_c, 1, 69, 78
1, 39558, Note_on_c, 0, 79, 0
1, 39558, Note_on_c, 0, 78, 64
1, 39597, Note_on_c, 0, 78, 0
1, 39597, Note_on_c, 1, 69, 0
1, 39600, Note_on_c, 0, 76, 64
1, 39600, Note_on_c, 1, 67, 78
1, 39645, Note_on_c, 0, 76, 0
1, 39645, Note_on_c, 1, 67, 0
1, 39648, Note_on_c, 0, 79, 64
1, 39648, Note_on_c, 1, 69, 78
1, 39671, Note_on_c, 0, 79, 0
1, 39672, Note_on_c, 0, 78, 64
1, 39693, Note_on_c, 1, 69, 0
1, 39695, Note_on_c, 0, 78, 0
1, 39696, Note_on_c, 0, 76, 64
1, 39696, Note_on_c, 1, 71, 78
1, 39719, Note_on_c, 0, 76, 0
1, 39720, Note_on_c, 0, 75, 64
1, 39741, Note_on_c, 1, 71, 0
1, 39743, Note_on_c, 0, 75, 0
1, 39744, Note_on_c, 0, 76, 64
1, 39744, Note_on_c, 1, 68, 63
1, 39767, Note_on_c, 1, 68, 0
1, 39768, Note_on_c, 1, 71, 63
1, 39789, Note_on_c, 0, 76, 0
1, 39791, Note_on_c, 1, 71, 0
1, 39792, Note_on_c, 0, 74, 64
1, 39792, Note_on_c, 1, 68, 63
1, 39815, Note_on_c, 1, 68, 0
1, 39816, Note_on_c, 1, 71, 63
1, 39837, Note_on_c, 0, 74, 0
1, 39839, Note_on_c, 1, 71, 0
1, 39840, Note_on_c, 0, 83, 64
1, 39840, Note_on_c, 1, 68, 63
1, 39863, Note_on_c, 1, 68, 0
1, 39864, Note_on_c, 1, 71, 63
1, 39887, Note_on_c, 1, 71, 0
1, 39888, Note_on_c, 1, 68, 63
1, 39911, Note_on_c, 1, 68, 0
1, 39912, Note_on_c, 1, 71, 63
1, 39935, Note_on_c, 1, 71, 0
1, 39936, Note_on_c, 1, 68, 63
1, 39959, Note_on_c, 0, 83, 0
1, 39959, Note_on_c, 1, 68, 0
1, 39960, Note_on_c, 0, 81, 64
1, 39960, Note_on_c, 1, 71, 63
1, 39983, Note_on_c, 0, 81, 0
1, 39983, Note_on_c, 1, 71, 0
1, 39984, Note_on_c, 0, 80, 64
1, 39984, Note_on_c, 1, 68, 63
1, 40007, Note_on_c, 0, 80, 0
1, 40007, Note_on_c, 1, 68, 0
1, 40008, Note_on_c, 0, 81, 64
1, 40008, Note_on_c, 1, 71, 63
1, 40031, Note_on_c, 0, 81, 0
1, 40031, Note_on_c, 1, 71, 0
1, 40032, Note_on_c, 0, 80, 64
1, 40032, Note_on_c, 1, 68, 63
1, 40055, Note_on_c, 0, 80, 0
1, 40055, Note_on_c, 1, 68, 0
1, 40056, Note_on_c, 0, 78, 64
1, 40056, Note_on_c, 1, 71, 63
1, 40079, Note_on_c, 0, 78, 0
1, 40079, Note_on_c, 1, 71, 0
1, 40080, Note_on_c, 0, 76, 64
1, 40080, Note_on_c, 1, 68, 63
1, 40103, Note_on_c, 0, 76, 0
1, 40103, Note_on_c, 1, 68, 0
1, 40104, Note_on_c, 0, 74, 64
1, 40104, Note_on_c, 1, 71, 63
1, 40127, Note_on_c, 0, 74, 0
1, 40127, Note_on_c, 1, 71, 0
1, 40128, Note_on_c, 0, 76, 64
1, 40128, Note_on_c, 1, 65, 63
1, 40134, Note_on_c, 0, 76, 0
1, 40134, Note_on_c, 0, 74, 64
1, 40151, Note_on_c, 1, 65, 0
1, 40152, Note_on_c, 1, 68, 63
1, 40173, Note_on_c, 0, 74, 0
1, 40175, Note_on_c, 1, 68, 0
1, 40176, Note_on_c, 0, 73, 64
1, 40176, Note_on_c, 1, 65, 63
1, 40199, Note_on_c, 1, 65, 0
1, 40200, Note_on_c, 1, 68, 63
1, 40221, Note_on_c, 0, 73, 0
1, 40223, Note_on_c, 1, 68, 0
1, 40224, Note_on_c, 0, 80, 64
1, 40224, Note_on_c, 1, 65, 63
1, 40247, Note_on_c, 1, 65, 0
1, 40248, Note_on_c, 1, 68, 63
1, 40271, Note_on_c, 1, 68, 0
1, 40272, Note_on_c, 1, 65, 63
1, 40295, Note_on_c, 1, 65, 0
1, 40296, Note_on_c, 1, 68, 63
1, 40319, Note_on_c, 1, 68, 0
1, 40320, Note_on_c, 1, 65, 63
1, 40343, Note_on_c, 0, 80, 0
1, 40343, Note_on_c, 1, 65, 0
1, 40344, Note_on_c, 0, 78, 64
1, 40344, Note_on_c, 1, 68, 63
1, 40367, Note_on_c, 0, 78, 0
1, 40367, Note_on_c, 1, 68, 0
1, 40368, Note_on_c, 0, 77, 64
1, 40368, Note_on_c, 1, 65, 63
1, 40391, Note_on_c, 0, 77, 0
1, 40391, Note_on_c, 1, 65, 0
1, 40392, Note_on_c, 0, 78, 64
1, 40392, Note_on_c, 1, 68, 63
1, 40415, Note_on_c, 0, 78, 0
1, 40415, Note_on_c, 1, 68, 0
1, 40416, Note_on_c, 0, 77, 64
1, 40416, Note_on_c, 1, 65, 63
1, 40439, Note_on_c, 0, 77, 0
1, 40439, Note_on_c, 1, 65, 0
1, 40440, Note_on_c, 0, 74, 64
1, 40440, Note_on_c, 1, 68, 63
1, 40463, Note_on_c, 0, 74, 0
1, 40463, Note_on_c, 1, 68, 0
1, 40464, Note_on_c, 0, 73, 64
1, 40464, Note_on_c, 1, 65, 63
1, 40487, Note_on_c, 0, 73, 0
1, 40487, Note_on_c, 1, 65, 0
1, 40488, Note_on_c, 0, 71, 64
1, 40488, Note_on_c, 1, 68, 63
1, 40511, Note_on_c, 0, 71, 0
1, 40511, Note_on_c, 1, 68, 0
1, 40512, Note_on_c, 0, 69, 64
1, 40512, Note_on_c, 1, 66, 63
1, 40535, Note_on_c, 1, 66, 0
1, 40536, Note_on_c, 1, 69, 63
1, 40546, Note_on_c, 0, 69, 0
1, 40548, Note_on_c, 0, 73, 64
1, 40559, Note_on_c, 1, 69, 0
1, 40560, Note_on_c, 0, 73, 0
1, 40560, Note_on_c, 0, 74, 64
1, 40560, Note_on_c, 1, 66, 63
1, 40568, Note_on_c, 0, 74, 0
1, 40568, Note_on_c, 0, 73, 64
1, 40576, Note_on_c, 0, 73, 0
1, 40576, Note_on_c, 0, 74, 64
1, 40583, Note_on_c, 1, 66, 0
1, 40584, Note_on_c, 0, 74, 0
1, 40584, Note_on_c, 0, 73, 64
1, 40584, Note_on_c, 1, 69, 63
1, 40592, Note_on_c, 0, 73, 0
1, 40592, Note_on_c, 0, 71, 64
1, 40600, Note_on_c, 0, 71, 0
1, 40600, Note_on_c, 0, 73, 64
1, 40607, Note_on_c, 1, 69, 0
1, 40608, Note_on_c, 0, 73, 0
1, 40608, Note_on_c, 0, 81, 64
1, 40608, Note_on_c, 1, 66, 63
1, 40631, Note_on_c, 1, 66, 0
1, 40632, Note_on_c, 1, 69, 63
1, 40655, Note_on_c, 1, 69, 0
1, 40656, Note_on_c, 1, 66, 63
1, 40679, Note_on_c, 1, 66, 0
1, 40680, Note_on_c, 1, 69, 63
1, 40703, Note_on_c, 1, 69, 0
1, 40704, Note_on_c, 1, 62, 63
1, 40727, Note_on_c, 1, 62, 0
1, 40728, Note_on_c, 1, 66, 63
1, 40749, Note_on_c, 0, 81, 0
1, 40751, Note_on_c, 1, 66, 0
1, 40752, Note_on_c, 0, 80, 64
1, 40752, Note_on_c, 1, 62, 63
1, 40775, Note_on_c, 0, 80, 0
1, 40775, Note_on_c, 1, 62, 0
1, 40776, Note_on_c, 0, 78, 64
1, 40776, Note_on_c, 1, 66, 63
1, 40799, Note_on_c, 0, 78, 0
1, 40799, Note_on_c, 1, 66, 0
1, 40800, Note_on_c, 0, 76, 64
1, 40800, Note_on_c, 1, 62, 63
1, 40823, Note_on_c, 0, 76, 0
1, 40823, Note_on_c, 1, 62, 0
1, 40824, Note_on_c, 0, 74, 64
1, 40824, Note_on_c, 1, 66, 63
1, 40847, Note_on_c, 0, 74, 0
1, 40847, Note_on_c, 1, 66, 0
1, 40848, Note_on_c, 0, 73, 64
1, 40848, Note_on_c, 1, 62, 63
1, 40871, Note_on_c, 0, 73, 0
1, 40871, Note_on_c, 1, 62, 0
1, 40872, Note_on_c, 0, 72, 64
1, 40872, Note_on_c, 1, 66, 63
1, 40895, Note_on_c, 0, 72, 0
1, 40895, Note_on_c, 1, 66, 0
1, 40896, Note_on_c, 0, 72, 64
1, 40896, Note_on_c, 1, 66, 63
1, 40896, Note_on_c, 1, 61, 63
1, 40992, Note_on_c, 0, 72, 0
1, 40992, Note_on_c, 0, 73, 64
1, 40992, Note_on_c, 1, 66, 0
1, 40992, Note_on_c, 1, 65, 63
1, 41037, Note_on_c, 0, 73, 0
1, 41037, Note_on_c, 1, 65, 0
1, 41037, Note_on_c, 1, 61, 0
1, 41088, Note_on_c, 0, 66, 64
1, 41100, Note_on_c, 0, 66, 0
1, 41100, Note_on_c, 0, 65, 64
1, 41112, Note_on_c, 0, 65, 0
1, 41112, Note_on_c, 0, 66, 64
1, 41136, Note_on_c, 1, 54, 78
1, 41136, Note_on_c, 1, 42, 78
1, 41156, Note_on_c, 1, 54, 0
1, 41156, Note_on_c, 1, 42, 0
1, 41184, Note_on_c, 1, 57, 78
1, 41184, Note_on_c, 1, 45, 78
1, 41204, Note_on_c, 1, 57, 0
1, 41204, Note_on_c, 1, 45, 0
1, 41232, Note_on_c, 1, 54, 78
1, 41232, Note_on_c, 1, 42, 78
1, 41252, Note_on_c, 1, 54, 0
1, 41252, Note_on_c, 1, 42, 0
1, 41267, Note_on_c, 0, 66, 0
1, 41280, Note_on_c, 0, 73, 64
1, 41292, Note_on_c, 0, 73, 0
1, 41292, Note_on_c, 0, 72, 64
1, 41304, Note_on_c, 0, 72, 0
1, 41304, Note_on_c, 0, 73, 64
1, 41328, Note_on_c, 1, 53, 78
1, 41328, Note_on_c, 1, 41, 78
1, 41348, Note_on_c, 1, 53, 0
1, 41348, Note_on_c, 1, 41, 0
1, 41376, Note_on_c, 1, 56, 78
1, 41376, Note_on_c, 1, 44, 78
1, 41396, Note_on_c, 1, 56, 0
1, 41396, Note_on_c, 1, 44, 0
1, 41424, Note_on_c, 1, 49, 78
1, 41424, Note_on_c, 1, 37, 78
1, 41444, Note_on_c, 1, 49, 0
1, 41444, Note_on_c, 1, 37, 0
1, 41459, Note_on_c, 0, 73, 0
1, 41472, Note_on_c, 0, 78, 64
1, 41520, Note_on_c, 1, 50, 78
1, 41520, Note_on_c, 1, 38, 78
1, 41540, Note_on_c, 1, 50, 0
1, 41540, Note_on_c, 1, 38, 0
1, 41568, Note_on_c, 1, 49, 78
1, 41568, Note_on_c, 1, 37, 78
1, 41588, Note_on_c, 1, 49, 0
1, 41588, Note_on_c, 1, 37, 0
1, 41605, Note_on_c, 0, 78, 0
1, 41616, Note_on_c, 0, 80, 64
1, 41616, Note_on_c, 1, 47, 78
1, 41616, Note_on_c, 1, 35, 78
1, 41636, Note_on_c, 1, 47, 0
1, 41636, Note_on_c, 1, 35, 0
1, 41650, Note_on_c, 0, 80, 0
1, 41652, Note_on_c, 0, 81, 64
1, 41664, Note_on_c, 0, 81, 0
1, 41664, Note_on_c, 0, 78, 64
1, 41664, Note_on_c, 1, 45, 78
1, 41664, Note_on_c, 1, 33, 78
1, 41684, Note_on_c, 0, 78, 0
1, 41712, Note_on_c, 0, 80, 64
1, 41746, Note_on_c, 0, 80, 0
1, 41748, Note_on_c, 0, 81, 64
1, 41753, Note_on_c, 1, 45, 0
1, 41753, Note_on_c, 1, 33, 0
1, 41760, Note_on_c, 0, 81, 0
1, 41760, Note_on_c, 0, 78, 64
1, 41780, Note_on_c, 0, 78, 0
1, 41808, Note_on_c, 0, 80, 64
1, 41842, Note_on_c, 0, 80, 0
1, 41844, Note_on_c, 0, 81, 64
1, 41856, Note_on_c, 0, 81, 0
1, 41856, Note_on_c, 0, 78, 64
1, 41904, Note_on_c, 1, 57, 78
1, 41952, Note_on_c, 1, 57, 0
1, 41952, Note_on_c, 1, 69, 78
1, 41989, Note_on_c, 0, 78, 0
1, 41997, Note_on_c, 1, 69, 0
1, 42000, Note_on_c, 0, 80, 64
1, 42034, Note_on_c, 0, 80, 0
1, 42036, Note_on_c, 0, 81, 64
1, 42048, Note_on_c, 0, 81, 0
1, 42048, Note_on_c, 0, 78, 64
1, 42096, Note_on_c, 1, 62, 78
1, 42144, Note_on_c, 1, 62, 0
1, 42144, Note_on_c, 1, 74, 78
1, 42181, Note_on_c, 0, 78, 0
1, 42189, Note_on_c, 1, 74, 0
1, 42192, Note_on_c, 0, 80, 64
1, 42226, Note_on_c, 0, 80, 0
1, 42228, Note_on_c, 0, 81, 64
1, 42240, Note_on_c, 0, 81, 0
1, 42240, Note_on_c, 0, 76, 64
1, 42240, Note_on_c, 1, 73, 78
1, 42285, Note_on_c, 0, 76, 0
1, 42288, Note_on_c, 0, 80, 64
1, 42322, Note_on_c, 0, 80, 0
1, 42324, Note_on_c, 0, 81, 64
1, 42329, Note_on_c, 1, 73, 0
1, 42336, Note_on_c, 0, 81, 0
1, 42336, Note_on_c, 0, 74, 64
1, 42336, Note_on_c, 1, 71, 78
1, 42381, Note_on_c, 0, 74, 0
1, 42384, Note_on_c, 0, 80, 64
1, 42418, Note_on_c, 0, 80, 0
1, 42420, Note_on_c, 0, 81, 64
1, 42425, Note_on_c, 1, 71, 0
1, 42432, Note_on_c, 0, 81, 0
1, 42432, Note_on_c, 0, 73, 64
1, 42432, Note_on_c, 1, 69, 78
1, 42477, Note_on_c, 0, 73, 0
1, 42480, Note_on_c, 0, 80, 64
1, 42514, Note_on_c, 0, 80, 0
1, 42516, Note_on_c, 0, 81, 64
1, 42521, Note_on_c, 1, 69, 0
1, 42528, Note_on_c, 0, 81, 0
1, 42528, Note_on_c, 0, 71, 64
1, 42528, Note_on_c, 1, 68, 78
1, 42573, Note_on_c, 0, 71, 0
1, 42576, Note_on_c, 0, 80, 64
1, 42610, Note_on_c, 0, 80, 0
1, 42612, Note_on_c, 0, 81, 64
1, 42617, Note_on_c, 1, 68, 0
1, 42624, Note_on_c, 0, 81, 0
1, 42624, Note_on_c, 0, 69, 64
1, 42624, Note_on_c, 1, 66, 78
1, 42669, Note_on_c, 0, 69, 0
1, 42672, Note_on_c, 0, 80, 64
1, 42706, Note_on_c, 0, 80, 0
1, 42708, Note_on_c, 0, 81, 64
1, 42720, Note_on_c, 0, 81, 0
1, 42720, Note_on_c, 0, 72, 64
1, 42765, Note_on_c, 0, 72, 0
1, 42768, Note_on_c, 0, 78, 64
1, 42801, Note_on_c, 1, 66, 0
1, 42802, Note_on_c, 0, 78, 0
1, 42804, Note_on_c, 0, 81, 64
1, 42816, Note_on_c, 0, 81, 0
1, 42816, Note_on_c, 0, 73, 64
1, 42816, Note_on_c, 1, 64, 78
1, 42861, Note_on_c, 0, 73, 0
1, 42864, Note_on_c, 0, 76, 64
1, 42898, Note_on_c, 0, 76, 0
1, 42900, Note_on_c, 0, 80, 64
1, 42905, Note_on_c, 1, 64, 0
1, 42912, Note_on_c, 0, 80, 0
1, 42912, Note_on_c, 0, 68, 64
1, 42912, Note_on_c, 1, 60, 78
1, 42957, Note_on_c, 0, 68, 0
1, 42960, Note_on_c, 0, 75, 64
1, 42994, Note_on_c, 0, 75, 0
1, 42996, Note_on_c, 0, 78, 64
1, 43001, Note_on_c, 1, 60, 0
1, 43008, Note_on_c, 0, 78, 0
1, 43008, Note_on_c, 0, 68, 64
1, 43008, Note_on_c, 1, 61, 78
1, 43053, Note_on_c, 0, 68, 0
1, 43056, Note_on_c, 0, 73, 64
1, 43090, Note_on_c, 0, 73, 0
1, 43092, Note_on_c, 0, 76, 64
1, 43097, Note_on_c, 1, 61, 0
1, 43104, Note_on_c, 0, 76, 0
1, 43104, Note_on_c, 0, 69, 64
1, 43104, Note_on_c, 1, 57, 78
1, 43149, Note_on_c, 0, 69, 0
1, 43149, Note_on_c, 1, 57, 0
1, 43152, Note_on_c, 0, 73, 64
1, 43152, Note_on_c, 1, 61, 78
1, 43186, Note_on_c, 0, 73, 0
1, 43186, Note_on_c, 1, 61, 0
1, 43188, Note_on_c, 0, 76, 64
1, 43188, Note_on_c, 1, 64, 78
1, 43200, Note_on_c, 0, 76, 0
1, 43200, Note_on_c, 0, 68, 64
1, 43200, Note_on_c, 1, 64, 0
1, 43200, Note_on_c, 1, 56, 78
1, 43245, Note_on_c, 0, 68, 0
1, 43245, Note_on_c, 1, 56, 0
1, 43248, Note_on_c, 0, 73, 64
1, 43248, Note_on_c, 1, 61, 78
1, 43282, Note_on_c, 0, 73, 0
1, 43282, Note_on_c, 1, 61, 0
1, 43284, Note_on_c, 0, 76, 64
1, 43284, Note_on_c, 1, 64, 78
1, 43296, Note_on_c, 0, 76, 0
1, 43296, Note_on_c, 0, 67, 64
1, 43296, Note_on_c, 1, 64, 0
1, 43296, Note_on_c, 1, 55, 78
1, 43341, Note_on_c, 0, 67, 0
1, 43341, Note_on_c, 1, 55, 0
1, 43344, Note_on_c, 0, 73, 64
1, 43344, Note_on_c, 1, 61, 78
1, 43378, Note_on_c, 0, 73, 0
1, 43378, Note_on_c, 1, 61, 0
1, 43380, Note_on_c, 0, 76, 64
1, 43380, Note_on_c, 1, 64, 78
1, 43392, Note_on_c, 0, 76, 0
1, 43392, Note_on_c, 0, 66, 64
1, 43392, Note_on_c, 1, 64, 0
1, 43392, Note_on_c, 1, 54, 78
1, 43437, Note_on_c, 0, 66, 0
1, 43437, Note_on_c, 1, 54, 0
1, 43440, Note_on_c, 0, 73, 64
1, 43440, Note_on_c, 1, 61, 78
1, 43474, Note_on_c, 0, 73, 0
1, 43474, Note_on_c, 1, 61, 0
1, 43476, Note_on_c, 0, 76, 64
1, 43476, Note_on_c, 1, 64, 78
1, 43488, Note_on_c, 0, 76, 0
1, 43488, Note_on_c, 0, 66, 64
1, 43488, Note_on_c, 1, 64, 0
1, 43488, Note_on_c, 1, 54, 78
1, 43533, Note_on_c, 0, 66, 0
1, 43533, Note_on_c, 1, 54, 0
1, 43536, Note_on_c, 0, 70, 64
1, 43536, Note_on_c, 1, 61, 78
1, 43570, Note_on_c, 0, 70, 0
1, 43570, Note_on_c, 1, 61, 0
1, 43572, Note_on_c, 0, 73, 64
1, 43572, Note_on_c, 1, 64, 78
1, 43584, Note_on_c, 0, 73, 0
1, 43584, Note_on_c, 0, 66, 64
1, 43584, Note_on_c, 1, 64, 0
1, 43584, Note_on_c, 1, 54, 78
1, 43629, Note_on_c, 0, 66, 0
1, 43629, Note_on_c, 1, 54, 0
1, 43632, Note_on_c, 0, 71, 64
1, 43632, Note_on_c, 1, 59, 78
1, 43666, Note_on_c, 0, 71, 0
1, 43666, Note_on_c, 1, 59, 0
1, 43668, Note_on_c, 0, 74, 64
1, 43668, Note_on_c, 1, 62, 78
1, 43680, Note_on_c, 0, 74, 0
1, 43680, Note_on_c, 0, 66, 64
1, 43680, Note_on_c, 1, 62, 0
1, 43680, Note_on_c, 1, 54, 78
1, 43725, Note_on_c, 0, 66, 0
1, 43725, Note_on_c, 1, 54, 0
1, 43728, Note_on_c, 0, 73, 64
1, 43728, Note_on_c, 1, 58, 78
1, 43762, Note_on_c, 0, 73, 0
1, 43762, Note_on_c, 1, 58, 0
1, 43764, Note_on_c, 0, 76, 64
1, 43764, Note_on_c, 1, 61, 78
1, 43776, Note_on_c, 0, 76, 0
1, 43776, Note_on_c, 0, 66, 64
1, 43776, Note_on_c, 1, 61, 0
1, 43776, Note_on_c, 1, 54, 78
1, 43821, Note_on_c, 0, 66, 0
1, 43821, Note_on_c, 1, 54, 0
1, 43824, Note_on_c, 0, 74, 64
1, 43824, Note_on_c, 1, 59, 78
1, 43858, Note_on_c, 0, 74, 0
1, 43858, Note_on_c, 1, 59, 0
1, 43860, Note_on_c, 0, 78, 64
1, 43860, Note_on_c, 1, 62, 78
1, 43872, Note_on_c, 0, 78, 0
1, 43872, Note_on_c, 0, 66, 64
1, 43872, Note_on_c, 1, 62, 0
1, 43872, Note_on_c, 1, 54, 78
1, 43917, Note_on_c, 0, 66, 0
1, 43917, Note_on_c, 1, 54, 0
1, 43920, Note_on_c, 0, 70, 64
1, 43920, Note_on_c, 1, 61, 78
1, 43954, Note_on_c, 0, 70, 0
1, 43954, Note_on_c, 1, 61, 0
1, 43956, Note_on_c, 0, 73, 64
1, 43956, Note_on_c, 1, 64, 78
1, 43968, Note_on_c, 0, 73, 0
1, 43968, Note_on_c, 0, 66, 64
1, 43968, Note_on_c, 1, 64, 0
1, 43968, Note_on_c, 1, 54, 78
1, 44013, Note_on_c, 0, 66, 0
1, 44013, Note_on_c, 1, 54, 0
1, 44016, Note_on_c, 0, 71, 64
1, 44016, Note_on_c, 1, 59, 78
1, 44050, Note_on_c, 0, 71, 0
1, 44050, Note_on_c, 1, 59, 0
1, 44052, Note_on_c, 0, 74, 64
1, 44052, Note_on_c, 1, 62, 78
1, 44064, Note_on_c, 0, 74, 0
1, 44064, Note_on_c, 0, 65, 64
1, 44064, Note_on_c, 1, 62, 0
1, 44064, Note_on_c, 1, 54, 78
1, 44109, Note_on_c, 0, 65, 0
1, 44109, Note_on_c, 1, 54, 0
1, 44112, Note_on_c, 0, 71, 64
1, 44112, Note_on_c, 1, 56, 78
1, 44146, Note_on_c, 0, 71, 0
1, 44146, Note_on_c, 1, 56, 0
1, 44148, Note_on_c, 0, 74, 64
1, 44148, Note_on_c, 1, 59, 78
1, 44160, Note_on_c, 0, 74, 0
1, 44160, Note_on_c, 0, 66, 64
1, 44160, Note_on_c, 1, 59, 0
1, 44160, Note_on_c, 1, 54, 78
1, 44205, Note_on_c, 0, 66, 0
1, 44208, Note_on_c, 0, 70, 64
1, 44242, Note_on_c, 0, 70, 0
1, 44244, Note_on_c, 0, 73, 64
1, 44256, Note_on_c, 0, 73, 0
1, 44256, Note_on_c, 0, 64, 64
1, 44301, Note_on_c, 0, 64, 0
1, 44304, Note_on_c, 0, 70, 64
1, 44338, Note_on_c, 0, 70, 0
1, 44340, Note_on_c, 0, 73, 64
1, 44352, Note_on_c, 0, 73, 0
1, 44352, Note_on_c, 0, 62, 64
1, 44397, Note_on_c, 0, 62, 0
1, 44400, Note_on_c, 0, 66, 64
1, 44434, Note_on_c, 0, 66, 0
1, 44436, Note_on_c, 0, 71, 64
1, 44448, Note_on_c, 0, 71, 0
1, 44448, Note_on_c, 0, 59, 64
1, 44493, Note_on_c, 0, 59, 0
1, 44496, Note_on_c, 0, 62, 64
1, 44514, Note_on_c, 1, 54, 0
1, 44530, Note_on_c, 0, 62, 0
1, 44532, Note_on_c, 0, 65, 64
1, 44544, Note_on_c, 0, 65, 0
1, 44544, Note_on_c, 0, 58, 64
1, 44544, Note_on_c, 1, 42, 78
1, 44589, Note_on_c, 0, 58, 0
1, 44592, Note_on_c, 0, 61, 64
1, 44626, Note_on_c, 0, 61, 0
1, 44628, Note_on_c, 0, 66, 64
1, 44640, Note_on_c, 0, 66, 0
1, 44640, Note_on_c, 0, 55, 64
1, 44685, Note_on_c, 0, 55, 0
1, 44688, Note_on_c, 0, 58, 64
1, 44722, Note_on_c, 0, 58, 0
1, 44724, Note_on_c, 0, 61, 64
1, 44736, Note_on_c, 0, 61, 0
1, 44736, Note_on_c, 0, 54, 64
1, 44736, Note_on_c, 1, 30, 78
1, 44781, Note_on_c, 0, 54, 0
1, 44784, Note_on_c, 0, 58, 64
1, 44818, Note_on_c, 0, 58, 0
1, 44820, Note_on_c, 0, 61, 64
1, 44832, Note_on_c, 0, 61, 0
1, 44832, Note_on_c, 0, 52, 64
1, 44877, Note_on_c, 0, 52, 0
1, 44880, Note_on_c, 0, 58, 64
1, 44913, Note_on_c, 1, 42, 0
1, 44913, Note_on_c, 1, 30, 0
1, 44914, Note_on_c, 0, 58, 0
1, 44916, Note_on_c, 0, 61, 64
1, 44928, Note_on_c, 0, 61, 0
1, 44928, Note_on_c, 0, 59, 64
1, 44928, Note_on_c, 1, 35, 78
1, 44973, Note_on_c, 1, 35, 0
1, 44976, Note_on_c, 1, 47, 78
1, 44996, Note_on_c, 1, 47, 0
1, 45024, Note_on_c, 1, 50, 78
1, 45044, Note_on_c, 1, 50, 0
1, 45072, Note_on_c, 1, 47, 78
1, 45092, Note_on_c, 1, 47, 0
1, 45105, Note_on_c, 0, 59, 0
1, 45120, Note_on_c, 0, 66, 64
1, 45132, Note_on_c, 0, 66, 0
1, 45132, Note_on_c, 0, 65, 64
1, 45144, Note_on_c, 0, 65, 0
1, 45144, Note_on_c, 0, 66, 64
1, 45168, Note_on_c, 1, 46, 78
1, 45188, Note_on_c, 1, 46, 0
1, 45216, Note_on_c, 1, 49, 78
1, 45236, Note_on_c, 1, 49, 0
1, 45264, Note_on_c, 1, 42, 78
1, 45284, Note_on_c, 1, 42, 0
1, 45299, Note_on_c, 0, 66, 0
1, 45312, Note_on_c, 0, 71, 64
1, 45324, Note_on_c, 0, 71, 0
1, 45324, Note_on_c, 0, 70, 64
1, 45336, Note_on_c, 0, 70, 0
1, 45336, Note_on_c, 0, 71, 64
1, 45360, Note_on_c, 1, 43, 78
1, 45380, Note_on_c, 1, 43, 0
1, 45408, Note_on_c, 1, 42, 78
1, 45428, Note_on_c, 1, 42, 0
1, 45449, Note_on_c, 0, 71, 0
1, 45456, Note_on_c, 0, 73, 64
1, 45456, Note_on_c, 1, 40, 78
1, 45476, Note_on_c, 1, 40, 0
1, 45490, Note_on_c, 0, 73, 0
1, 45492, Note_on_c, 0, 74, 64
1, 45504, Note_on_c, 0, 74, 0
1, 45504, Note_on_c, 0, 71, 64
1, 45504, Note_on_c, 1, 38, 78
1, 45543, Note_on_c, 1, 38, 0
1, 45549, Note_on_c, 0, 71, 0
1, 45552, Note_on_c, 0, 78, 64
1, 45572, Note_on_c, 0, 78, 0
1, 45600, Note_on_c, 0, 78, 64
1, 45620, Note_on_c, 0, 78, 0
1, 45648, Note_on_c, 0, 78, 64
1, 45668, Note_on_c, 0, 78, 0
1, 45696, Note_on_c, 0, 78, 64
1, 45744, Note_on_c, 1, 61, 78
1, 45744, Note_on_c, 1, 58, 78
1, 45789, Note_on_c, 1, 61, 0
1, 45789, Note_on_c, 1, 58, 0
1, 45792, Note_on_c, 1, 61, 78
1, 45792, Note_on_c, 1, 58, 78
1, 45815, Note_on_c, 0, 78, 0
1, 45816, Note_on_c, 0, 79, 64
1, 45822, Note_on_c, 0, 79, 0
1, 45822, Note_on_c, 0, 78, 64
1, 45828, Note_on_c, 0, 78, 0
1, 45828, Note_on_c, 0, 76, 64
1, 45834, Note_on_c, 0, 76, 0
1, 45834, Note_on_c, 0, 78, 64
1, 45837, Note_on_c, 1, 61, 0
1, 45837, Note_on_c, 1, 58, 0
1, 45840, Note_on_c, 0, 78, 0
1, 45840, Note_on_c, 0, 79, 64
1, 45840, Note_on_c, 1, 61, 78
1, 45840, Note_on_c, 1, 58, 78
1, 45874, Note_on_c, 0, 79, 0
1, 45876, Note_on_c, 0, 76, 64
1, 45885, Note_on_c, 1, 61, 0
1, 45885, Note_on_c, 1, 58, 0
1, 45888, Note_on_c, 0, 76, 0
1, 45888, Note_on_c, 0, 76, 64
1, 45936, Note_on_c, 1, 66, 78
1, 45936, Note_on_c, 1, 59, 78
1, 45981, Note_on_c, 1, 66, 0
1, 45981, Note_on_c, 1, 59, 0
1, 45984, Note_on_c, 0, 76, 0
1, 45984, Note_on_c, 0, 74, 64
1, 45984, Note_on_c, 1, 66, 78
1, 45984, Note_on_c, 1, 59, 78
1, 45996, Note_on_c, 0, 74, 0
1, 45996, Note_on_c, 0, 76, 64
1, 46008, Note_on_c, 0, 76, 0
1, 46008, Note_on_c, 0, 74, 64
1, 46029, Note_on_c, 0, 74, 0
1, 46029, Note_on_c, 1, 66, 0
1, 46029, Note_on_c, 1, 59, 0
1, 46032, Note_on_c, 0, 78, 64
1, 46032, Note_on_c, 1, 62, 78
1, 46066, Note_on_c, 0, 78, 0
1, 46068, Note_on_c, 0, 71, 64
1, 46077, Note_on_c, 1, 62, 0
1, 46080, Note_on_c, 0, 71, 0
1, 46080, Note_on_c, 0, 73, 64
1, 46080, Note_on_c, 1, 64, 78
1, 46092, Note_on_c, 0, 73, 0
1, 46092, Note_on_c, 0, 74, 64
1, 46104, Note_on_c, 0, 74, 0
1, 46104, Note_on_c, 0, 73, 64
1, 46125, Note_on_c, 0, 73, 0
1, 46125, Note_on_c, 1, 64, 0
1, 46128, Note_on_c, 0, 71, 64
1, 46128, Note_on_c, 1, 62, 78
1, 46173, Note_on_c, 0, 71, 0
1, 46173, Note_on_c, 1, 62, 0
1, 46176, Note_on_c, 0, 74, 64
1, 46176, Note_on_c, 1, 64, 78
1, 46199, Note_on_c, 0, 74, 0
1, 46200, Note_on_c, 0, 73, 64
1, 46221, Note_on_c, 1, 64, 0
1, 46223, Note_on_c, 0, 73, 0
1, 46224, Note_on_c, 0, 71, 64
1, 46224, Note_on_c, 1, 66, 78
1, 46247, Note_on_c, 0, 71, 0
1, 46248, Note_on_c, 0, 70, 64
1, 46269, Note_on_c, 1, 66, 0
1, 46271, Note_on_c, 0, 70, 0
1, 46272, Note_on_c, 0, 71, 64
1, 46272, Note_on_c, 1, 67, 78
1, 46361, Note_on_c, 0, 71, 0
1, 46361, Note_on_c, 1, 67, 0
1, 46416, Note_on_c, 0, 83, 64
1, 46440, Note_on_c, 0, 83, 0
1, 46440, Note_on_c, 0, 79, 64
1, 46463, Note_on_c, 0, 79, 0
1, 46464, Note_on_c, 0, 78, 64
1, 46487, Note_on_c, 0, 78, 0
1, 46488, Note_on_c, 0, 76, 64
1, 46511, Note_on_c, 0, 76, 0
1, 46512, Note_on_c, 0, 75, 64
1, 46535, Note_on_c, 0, 75, 0
1, 46536, Note_on_c, 0, 76, 64
1, 46559, Note_on_c, 0, 76, 0
1, 46560, Note_on_c, 0, 78, 64
1, 46584, Note_on_c, 0, 78, 0
1, 46584, Note_on_c, 0, 76, 64
1, 46607, Note_on_c, 0, 76, 0
1, 46608, Note_on_c, 0, 79, 64
1, 46632, Note_on_c, 0, 79, 0
1, 46632, Note_on_c, 0, 76, 64
1, 46655, Note_on_c, 0, 76, 0
1, 46656, Note_on_c, 0, 70, 64
1, 46656, Note_on_c, 1, 67, 78
1, 46656, Note_on_c, 1, 64, 78
1, 46752, Note_on_c, 0, 70, 0
1, 46752, Note_on_c, 0, 71, 64
1, 46752, Note_on_c, 1, 67, 0
1, 46752, Note_on_c, 1, 64, 0
1, 46752, Note_on_c, 1, 66, 78
1, 46752, Note_on_c, 1, 62, 78
1, 46772, Note_on_c, 0, 71, 0
1, 46797, Note_on_c, 1, 66, 0
1, 46797, Note_on_c, 1, 62, 0
1, 46800, Note_on_c, 0, 78, 64
1, 46824, Note_on_c, 0, 78, 0
1, 46824, Note_on_c, 0, 74, 64
1, 46847, Note_on_c, 0, 74, 0
1, 46848, Note_on_c, 0, 73, 64
1, 46871, Note_on_c, 0, 73, 0
1, 46872, Note_on_c, 0, 71, 64
1, 46895, Note_on_c, 0, 71, 0
1, 46896, Note_on_c, 0, 70, 64
1, 46919, Note_on_c, 0, 70, 0
1, 46920, Note_on_c, 0, 71, 64
1, 46943, Note_on_c, 0, 71, 0
1, 46944, Note_on_c, 0, 73, 64
1, 46968, Note_on_c, 0, 73, 0
1, 46968, Note_on_c, 0, 71, 64
1, 46991, Note_on_c, 0, 71, 0
1, 46992, Note_on_c, 0, 74, 64
1, 47016, Note_on_c, 0, 74, 0
1, 47016, Note_on_c, 0, 71, 64
1, 47039, Note_on_c, 0, 71, 0
1, 47040, Note_on_c, 0, 65, 64
1, 47040, Note_on_c, 1, 62, 78
1, 47040, Note_on_c, 1, 59, 78
1, 47136, Note_on_c, 0, 65, 0
1, 47136, Note_on_c, 0, 66, 64
1, 47136, Note_on_c, 1, 62, 0
1, 47136, Note_on_c, 1, 59, 0
1, 47136, Note_on_c, 1, 61, 78
1, 47136, Note_on_c, 1, 58, 78
1, 47181, Note_on_c, 0, 66, 0
1, 47181, Note_on_c, 1, 61, 0
1, 47181, Note_on_c, 1, 58, 0
1, 47184, Note_on_c, 0, 73, 64
1, 47184, Note_on_c, 1, 61, 78
1, 47207, Note_on_c, 0, 73, 0
1, 47207, Note_on_c, 1, 61, 0
1, 47208, Note_on_c, 0, 64, 64
1, 47208, Note_on_c, 1, 52, 78
1, 47231, Note_on_c, 0, 64, 0
1, 47231, Note_on_c, 1, 52, 0
1, 47232, Note_on_c, 0, 64, 64
1, 47232, Note_on_c, 1, 52, 78
1, 47255, Note_on_c, 0, 64, 0
1, 47255, Note_on_c, 1, 52, 0
1, 47256, Note_on_c, 0, 62, 64
1, 47256, Note_on_c, 1, 50, 78
1, 47279, Note_on_c, 0, 62, 0
1, 47279, Note_on_c, 1, 50, 0
1, 47280, Note_on_c, 0, 61, 64
1, 47280, Note_on_c, 1, 49, 78
1, 47303, Note_on_c, 0, 61, 0
1, 47303, Note_on_c, 1, 49, 0
1, 47304, Note_on_c, 0, 62, 64
1, 47304, Note_on_c, 1, 50, 78
1, 47327, Note_on_c, 0, 62, 0
1, 47327, Note_on_c, 1, 50, 0
1, 47328, Note_on_c, 0, 61, 64
1, 47328, Note_on_c, 1, 49, 78
1, 47351, Note_on_c, 0, 61, 0
1, 47351, Note_on_c, 1, 49, 0
1, 47352, Note_on_c, 0, 59, 64
1, 47352, Note_on_c, 1, 47, 78
1, 47375, Note_on_c, 0, 59, 0
1, 47375, Note_on_c, 1, 47, 0
1, 47376, Note_on_c, 0, 58, 64
1, 47376, Note_on_c, 1, 46, 78
1, 47399, Note_on_c, 0, 58, 0
1, 47399, Note_on_c, 1, 46, 0
1, 47400, Note_on_c, 0, 59, 64
1, 47400, Note_on_c, 1, 47, 78
1, 47423, Note_on_c, 0, 59, 0
1, 47423, Note_on_c, 1, 47, 0
1, 47424, Note_on_c, 0, 66, 64
1, 47424, Note_on_c, 1, 42, 78
1, 47513, Note_on_c, 0, 66, 0
1, 47513, Note_on_c, 1, 42, 0
1, 47616, Note_on_c, 1, 47, 84
1, 47616, Note_on_c, 1, 59, 64
1, 47622, Note_on_c, 0, 62, 64
1, 47622, Note_on_c, 1, 50, 84
1, 47628, Note_on_c, 0, 66, 64
1, 47628, Note_on_c, 1, 54, 84
1, 47634, Note_on_c, 0, 71, 64
1, 47634, Note_on_c, 0, 59, 64
1, 47634, Note_on_c, 1, 59, 84
1, 47664, Note_on_c, 0, 83, 64
1, 47664, Note_on_c, 1, 54, 0
1, 47664, Note_on_c, 1, 50, 0
1, 47664, Note_on_c, 1, 47, 0
1, 47687, Note_on_c, 0, 83, 0
1, 47687, Note_on_c, 0, 71, 0
1, 47687, Note_on_c, 0, 66, 0
1, 47687, Note_on_c, 0, 62, 0
1, 47688, Note_on_c, 0, 71, 64
1, 47709, Note_on_c, 1, 59, 0
1, 47711, Note_on_c, 0, 71, 0
1, 47712, Note_on_c, 0, 82, 64
1, 47712, Note_on_c, 1, 61, 84
1, 47735, Note_on_c, 0, 82, 0
1, 47736, Note_on_c, 0, 71, 64
1, 47757, Note_on_c, 1, 61, 0
1, 47759, Note_on_c, 0, 71, 0
1, 47760, Note_on_c, 0, 81, 64
1, 47760, Note_on_c, 1, 63, 84
1, 47783, Note_on_c, 0, 81, 0
1, 47784, Note_on_c, 0, 71, 64
1, 47805, Note_on_c, 1, 63, 0
1, 47807, Note_on_c, 0, 71, 0
1, 47808, Note_on_c, 0, 79, 64
1, 47808, Note_on_c, 1, 64, 84
1, 47831, Note_on_c, 0, 79, 0
1, 47832, Note_on_c, 0, 71, 64
1, 47853, Note_on_c, 1, 64, 0
1, 47855, Note_on_c, 0, 71, 0
1, 47856, Note_on_c, 0, 78, 64
1, 47856, Note_on_c, 1, 63, 84
1, 47879, Note_on_c, 0, 78, 0
1, 47880, Note_on_c, 0, 71, 64
1, 47901, Note_on_c, 1, 63, 0
1, 47903, Note_on_c, 0, 71, 0
1, 47904, Note_on_c, 0, 79, 64
1, 47904, Note_on_c, 1, 64, 84
1, 47927, Note_on_c, 0, 79, 0
1, 47928, Note_on_c, 0, 71, 64
1, 47944, Note_on_c, 0, 59, 0
1, 47949, Note_on_c, 1, 64, 0
1, 47951, Note_on_c, 0, 71, 0
1, 47952, Note_on_c, 0, 76, 64
1, 47952, Note_on_c, 1, 67, 84
1, 47970, Note_on_c, 1, 59, 0
1, 47975, Note_on_c, 0, 76, 0
1, 47976, Note_on_c, 0, 70, 64
1, 47997, Note_on_c, 1, 67, 0
1, 47999, Note_on_c, 0, 70, 0
1, 48000, Note_on_c, 1, 47, 84
1, 48000, Note_on_c, 1, 59, 64
1, 48006, Note_on_c, 0, 62, 64
1, 48006, Note_on_c, 1, 50, 84
1, 48012, Note_on_c, 0, 66, 64
1, 48012, Note_on_c, 1, 54, 84
1, 48018, Note_on_c, 0, 71, 64
1, 48018, Note_on_c, 0, 59, 64
1, 48018, Note_on_c, 1, 59, 84
1, 48048, Note_on_c, 0, 83, 64
1, 48048, Note_on_c, 1, 54, 0
1, 48048, Note_on_c, 1, 50, 0
1, 48048, Note_on_c, 1, 47, 0
1, 48071, Note_on_c, 0, 83, 0
1, 48071, Note_on_c, 0, 71, 0
1, 48071, Note_on_c, 0, 66, 0
1, 48071, Note_on_c, 0, 62, 0
1, 48072, Note_on_c, 0, 71, 64
1, 48093, Note_on_c, 1, 59, 0
1, 48095, Note_on_c, 0, 71, 0
1, 48096, Note_on_c, 0, 82, 64
1, 48096, Note_on_c, 1, 61, 84
1, 48119, Note_on_c, 0, 82, 0
1, 48120, Note_on_c, 0, 71, 64
1, 48141, Note_on_c, 1, 61, 0
1, 48143, Note_on_c, 0, 71, 0
1, 48144, Note_on_c, 0, 81, 64
1, 48144, Note_on_c, 1, 63, 84
1, 48167, Note_on_c, 0, 81, 0
1, 48168, Note_on_c, 0, 71, 64
1, 48189, Note_on_c, 1, 63, 0
1, 48191, Note_on_c, 0, 71, 0
1, 48192, Note_on_c, 0, 79, 64
1, 48192, Note_on_c, 1, 64, 84
1, 48215, Note_on_c, 0, 79, 0
1, 48216, Note_on_c, 0, 71, 64
1, 48237, Note_on_c, 1, 64, 0
1, 48239, Note_on_c, 0, 71, 0
1, 48240, Note_on_c, 0, 78, 64
1, 48240, Note_on_c, 1, 63, 84
1, 48263, Note_on_c, 0, 78, 0
1, 48264, Note_on_c, 0, 71, 64
1, 48285, Note_on_c, 1, 63, 0
1, 48287, Note_on_c, 0, 71, 0
1, 48288, Note_on_c, 0, 79, 64
1, 48288, Note_on_c, 1, 64, 84
1, 48311, Note_on_c, 0, 79, 0
1, 48312, Note_on_c, 0, 71, 64
1, 48328, Note_on_c, 0, 59, 0
1, 48333, Note_on_c, 1, 64, 0
1, 48335, Note_on_c, 0, 71, 0
1, 48336, Note_on_c, 0, 76, 64
1, 48336, Note_on_c, 1, 67, 84
1, 48354, Note_on_c, 1, 59, 0
1, 48359, Note_on_c, 0, 76, 0
1, 48360, Note_on_c, 0, 70, 64
1, 48381, Note_on_c, 1, 67, 0
1, 48383, Note_on_c, 0, 70, 0
1, 48384, Note_on_c, 1, 47, 84
1, 48384, Note_on_c, 1, 59, 64
1, 48390, Note_on_c, 0, 62, 64
1, 48390, Note_on_c, 1, 50, 84
1, 48396, Note_on_c, 0, 66, 64
1, 48396, Note_on_c, 1, 54, 84
1, 48402, Note_on_c, 0, 71, 64
1, 48402, Note_on_c, 0, 59, 64
1, 48402, Note_on_c, 1, 59, 84
1, 48432, Note_on_c, 0, 83, 64
1, 48432, Note_on_c, 1, 54, 0
1, 48432, Note_on_c, 1, 50, 0
1, 48432, Note_on_c, 1, 47, 0
1, 48455, Note_on_c, 0, 83, 0
1, 48455, Note_on_c, 0, 71, 0
1, 48455, Note_on_c, 0, 66, 0
1, 48455, Note_on_c, 0, 62, 0
1, 48456, Note_on_c, 0, 71, 64
1, 48477, Note_on_c, 1, 59, 0
1, 48479, Note_on_c, 0, 71, 0
1, 48480, Note_on_c, 0, 82, 64
1, 48480, Note_on_c, 1, 61, 78
1, 48503, Note_on_c, 0, 82, 0
1, 48504, Note_on_c, 0, 71, 64
1, 48525, Note_on_c, 1, 61, 0
1, 48527, Note_on_c, 0, 71, 0
1, 48528, Note_on_c, 0, 81, 64
1, 48528, Note_on_c, 1, 63, 78
1, 48551, Note_on_c, 0, 81, 0
1, 48552, Note_on_c, 0, 71, 64
1, 48573, Note_on_c, 1, 63, 0
1, 48575, Note_on_c, 0, 71, 0
1, 48576, Note_on_c, 0, 79, 64
1, 48576, Note_on_c, 1, 64, 78
1, 48599, Note_on_c, 0, 79, 0
1, 48600, Note_on_c, 0, 71, 64
1, 48621, Note_on_c, 1, 64, 0
1, 48623, Note_on_c, 0, 71, 0
1, 48624, Note_on_c, 0, 78, 64
1, 48624, Note_on_c, 1, 63, 78
1, 48647, Note_on_c, 0, 78, 0
1, 48648, Note_on_c, 0, 71, 64
1, 48669, Note_on_c, 1, 63, 0
1, 48671, Note_on_c, 0, 71, 0
1, 48672, Note_on_c, 0, 79, 64
1, 48672, Note_on_c, 1, 64, 78
1, 48695, Note_on_c, 0, 79, 0
1, 48696, Note_on_c, 0, 71, 64
1, 48712, Note_on_c, 0, 59, 0
1, 48717, Note_on_c, 1, 64, 0
1, 48719, Note_on_c, 0, 71, 0
1, 48720, Note_on_c, 0, 83, 64
1, 48720, Note_on_c, 1, 67, 78
1, 48743, Note_on_c, 0, 83, 0
1, 48744, Note_on_c, 0, 71, 64
1, 48765, Note_on_c, 1, 67, 0
1, 48767, Note_on_c, 0, 71, 0
1, 48768, Note_on_c, 0, 78, 64
1, 48768, Note_on_c, 1, 62, 78
1, 48791, Note_on_c, 0, 78, 0
1, 48792, Note_on_c, 0, 71, 64
1, 48813, Note_on_c, 1, 62, 0
1, 48815, Note_on_c, 0, 71, 0
1, 48816, Note_on_c, 0, 76, 64
1, 48816, Note_on_c, 1, 61, 78
1, 48839, Note_on_c, 0, 76, 0
1, 48840, Note_on_c, 0, 71, 64
1, 48861, Note_on_c, 1, 61, 0
1, 48863, Note_on_c, 0, 71, 0
1, 48864, Note_on_c, 0, 78, 64
1, 48864, Note_on_c, 1, 62, 78
1, 48887, Note_on_c, 0, 78, 0
1, 48888, Note_on_c, 0, 71, 64
1, 48909, Note_on_c, 1, 62, 0
1, 48911, Note_on_c, 0, 71, 0
1, 48912, Note_on_c, 0, 74, 64
1, 48912, Note_on_c, 1, 66, 78
1, 48935, Note_on_c, 0, 74, 0
1, 48936, Note_on_c, 0, 71, 64
1, 48957, Note_on_c, 1, 66, 0
1, 48959, Note_on_c, 0, 71, 0
1, 48960, Note_on_c, 0, 76, 64
1, 48960, Note_on_c, 1, 67, 78
1, 48983, Note_on_c, 0, 76, 0
1, 48984, Note_on_c, 0, 71, 64
1, 49005, Note_on_c, 1, 67, 0
1, 49007, Note_on_c, 0, 71, 0
1, 49008, Note_on_c, 0, 74, 64
1, 49008, Note_on_c, 1, 66, 78
1, 49031, Note_on_c, 0, 74, 0
1, 49032, Note_on_c, 0, 71, 64
1, 49053, Note_on_c, 1, 66, 0
1, 49055, Note_on_c, 0, 71, 0
1, 49056, Note_on_c, 0, 76, 64
1, 49056, Note_on_c, 1, 67, 78
1, 49079, Note_on_c, 0, 76, 0
1, 49080, Note_on_c, 0, 71, 64
1, 49101, Note_on_c, 1, 67, 0
1, 49103, Note_on_c, 0, 71, 0
1, 49104, Note_on_c, 0, 73, 64
1, 49104, Note_on_c, 1, 64, 78
1, 49122, Note_on_c, 1, 59, 0
1, 49127, Note_on_c, 0, 73, 0
1, 49128, Note_on_c, 0, 71, 64
1, 49149, Note_on_c, 1, 64, 0
1, 49151, Note_on_c, 0, 71, 0
1, 49152, Note_on_c, 0, 74, 64
1, 49152, Note_on_c, 1, 66, 78
1, 49152, Note_on_c, 1, 59, 64
1, 49175, Note_on_c, 0, 74, 0
1, 49176, Note_on_c, 0, 71, 64
1, 49197, Note_on_c, 1, 66, 0
1, 49199, Note_on_c, 0, 71, 0
1, 49200, Note_on_c, 0, 73, 64
1, 49200, Note_on_c, 1, 64, 78
1, 49223, Note_on_c, 0, 73, 0
1, 49224, Note_on_c, 0, 71, 64
1, 49245, Note_on_c, 1, 64, 0
1, 49247, Note_on_c, 0, 71, 0
1, 49248, Note_on_c, 0, 74, 64
1, 49248, Note_on_c, 1, 66, 78
1, 49271, Note_on_c, 0, 74, 0
1, 49272, Note_on_c, 0, 71, 64
1, 49293, Note_on_c, 1, 66, 0
1, 49295, Note_on_c, 0, 71, 0
1, 49296, Note_on_c, 0, 78, 64
1, 49296, Note_on_c, 1, 62, 78
1, 49319, Note_on_c, 0, 78, 0
1, 49320, Note_on_c, 0, 71, 64
1, 49329, Note_on_c, 1, 59, 0
1, 49341, Note_on_c, 1, 62, 0
1, 49343, Note_on_c, 0, 71, 0
1, 49344, Note_on_c, 0, 77, 64
1, 49344, Note_on_c, 1, 61, 78
1, 49367, Note_on_c, 0, 77, 0
1, 49367, Note_on_c, 1, 61, 0
1, 49368, Note_on_c, 0, 71, 64
1, 49368, Note_on_c, 1, 68, 78
1, 49391, Note_on_c, 0, 71, 0
1, 49391, Note_on_c, 1, 68, 0
1, 49392, Note_on_c, 0, 77, 64
1, 49392, Note_on_c, 1, 61, 78
1, 49415, Note_on_c, 0, 77, 0
1, 49415, Note_on_c, 1, 61, 0
1, 49416, Note_on_c, 0, 71, 64
1, 49416, Note_on_c, 1, 68, 78
1, 49439, Note_on_c, 0, 71, 0
1, 49439, Note_on_c, 1, 68, 0
1, 49440, Note_on_c, 0, 76, 64
1, 49440, Note_on_c, 1, 61, 78
1, 49463, Note_on_c, 0, 76, 0
1, 49463, Note_on_c, 1, 61, 0
1, 49464, Note_on_c, 0, 70, 64
1, 49464, Note_on_c, 1, 67, 78
1, 49487, Note_on_c, 0, 70, 0
1, 49487, Note_on_c, 1, 67, 0
1, 49488, Note_on_c, 0, 76, 64
1, 49488, Note_on_c, 1, 61, 78
1, 49511, Note_on_c, 0, 76, 0
1, 49511, Note_on_c, 1, 61, 0
1, 49512, Note_on_c, 0, 70, 64
1, 49512, Note_on_c, 1, 67, 78
1, 49535, Note_on_c, 0, 70, 0
1, 49535, Note_on_c, 1, 67, 0
1, 49536, Note_on_c, 0, 74, 64
1, 49536, Note_on_c, 1, 62, 78
1, 49559, Note_on_c, 0, 74, 0
1, 49559, Note_on_c, 1, 62, 0
1, 49560, Note_on_c, 0, 71, 64
1, 49560, Note_on_c, 1, 66, 78
1, 49583, Note_on_c, 0, 71, 0
1, 49583, Note_on_c, 1, 66, 0
1, 49584, Note_on_c, 0, 74, 64
1, 49584, Note_on_c, 1, 62, 78
1, 49607, Note_on_c, 0, 74, 0
1, 49607, Note_on_c, 1, 62, 0
1, 49608, Note_on_c, 0, 71, 64
1, 49608, Note_on_c, 1, 66, 78
1, 49631, Note_on_c, 0, 71, 0
1, 49631, Note_on_c, 1, 66, 0
1, 49632, Note_on_c, 0, 78, 64
1, 49632, Note_on_c, 1, 63, 78
1, 49655, Note_on_c, 0, 78, 0
1, 49655, Note_on_c, 1, 63, 0
1, 49656, Note_on_c, 0, 69, 64
1, 49656, Note_on_c, 1, 72, 78
1, 49679, Note_on_c, 0, 69, 0
1, 49679, Note_on_c, 1, 72, 0
1, 49680, Note_on_c, 0, 78, 64
1, 49680, Note_on_c, 1, 63, 78
1, 49703, Note_on_c, 0, 78, 0
1, 49703, Note_on_c, 1, 63, 0
1, 49704, Note_on_c, 0, 69, 64
1, 49704, Note_on_c, 1, 72, 78
1, 49727, Note_on_c, 0, 69, 0
1, 49727, Note_on_c, 1, 72, 0
1, 49728, Note_on_c, 0, 76, 64
1, 49728, Note_on_c, 1, 64, 78
1, 49751, Note_on_c, 0, 76, 0
1, 49751, Note_on_c, 1, 64, 0
1, 49752, Note_on_c, 0, 67, 64
1, 49752, Note_on_c, 1, 71, 78
1, 49775, Note_on_c, 0, 67, 0
1, 49775, Note_on_c, 1, 71, 0
1, 49776, Note_on_c, 0, 76, 64
1, 49776, Note_on_c, 1, 64, 78
1, 49799, Note_on_c, 0, 76, 0
1, 49799, Note_on_c, 1, 64, 0
1, 49800, Note_on_c, 0, 67, 64
1, 49800, Note_on_c, 1, 71, 78
1, 49823, Note_on_c, 0, 67, 0
1, 49823, Note_on_c, 1, 71, 0
1, 49824, Note_on_c, 0, 74, 64
1, 49824, Note_on_c, 1, 65, 78
1, 49847, Note_on_c, 0, 74, 0
1, 49847, Note_on_c, 1, 65, 0
1, 49848, Note_on_c, 0, 71, 64
1, 49848, Note_on_c, 1, 68, 78
1, 49871, Note_on_c, 0, 71, 0
1, 49871, Note_on_c, 1, 68, 0
1, 49872, Note_on_c, 0, 74, 64
1, 49872, Note_on_c, 1, 65, 78
1, 49895, Note_on_c, 0, 74, 0
1, 49895, Note_on_c, 1, 65, 0
1, 49896, Note_on_c, 0, 71, 64
1, 49896, Note_on_c, 1, 68, 78
1, 49919, Note_on_c, 0, 71, 0
1, 49919, Note_on_c, 1, 68, 0
1, 49920, Note_on_c, 0, 70, 64
1, 49920, Note_on_c, 1, 54, 78
1, 49943, Note_on_c, 1, 54, 0
1, 49944, Note_on_c, 1, 66, 78
1, 49965, Note_on_c, 0, 70, 0
1, 49967, Note_on_c, 1, 66, 0
1, 49968, Note_on_c, 0, 71, 64
1, 49968, Note_on_c, 1, 56, 78
1, 49991, Note_on_c, 1, 56, 0
1, 49992, Note_on_c, 1, 66, 78
1, 50013, Note_on_c, 0, 71, 0
1, 50015, Note_on_c, 1, 66, 0
1, 50016, Note_on_c, 0, 73, 64
1, 50016, Note_on_c, 1, 58, 78
1, 50039, Note_on_c, 1, 58, 0
1, 50040, Note_on_c, 1, 66, 78
1, 50061, Note_on_c, 0, 73, 0
1, 50063, Note_on_c, 1, 66, 0
1, 50064, Note_on_c, 0, 76, 64
1, 50064, Note_on_c, 1, 59, 78
1, 50076, Note_on_c, 0, 76, 0
1, 50076, Note_on_c, 0, 74, 64
1, 50087, Note_on_c, 1, 59, 0
1, 50088, Note_on_c, 0, 74, 0
1, 50088, Note_on_c, 0, 73, 64
1, 50088, Note_on_c, 1, 66, 78
1, 50100, Note_on_c, 0, 73, 0
1, 50100, Note_on_c, 0, 74, 64
1, 50111, Note_on_c, 1, 66, 0
1, 50112, Note_on_c, 0, 74, 0
1, 50112, Note_on_c, 0, 76, 64
1, 50112, Note_on_c, 1, 61, 78
1, 50135, Note_on_c, 1, 61, 0
1, 50136, Note_on_c, 1, 66, 78
1, 50157, Note_on_c, 0, 76, 0
1, 50159, Note_on_c, 1, 66, 0
1, 50160, Note_on_c, 0, 74, 64
1, 50160, Note_on_c, 1, 59, 78
1, 50183, Note_on_c, 1, 59, 0
1, 50184, Note_on_c, 1, 66, 78
1, 50205, Note_on_c, 0, 74, 0
1, 50207, Note_on_c, 1, 66, 0
1, 50208, Note_on_c, 0, 76, 64
1, 50208, Note_on_c, 1, 61, 78
1, 50231, Note_on_c, 1, 61, 0
1, 50232, Note_on_c, 1, 66, 78
1, 50253, Note_on_c, 0, 76, 0
1, 50255, Note_on_c, 1, 66, 0
1, 50256, Note_on_c, 0, 73, 64
1, 50256, Note_on_c, 1, 58, 78
1, 50279, Note_on_c, 1, 58, 0
1, 50280, Note_on_c, 1, 66, 78
1, 50301, Note_on_c, 0, 73, 0
1, 50303, Note_on_c, 1, 66, 0
1, 50304, Note_on_c, 0, 74, 64
1, 50304, Note_on_c, 1, 59, 78
1, 50304, Note_on_c, 1, 59, 64
1, 50327, Note_on_c, 0, 74, 0
1, 50328, Note_on_c, 0, 71, 64
1, 50349, Note_on_c, 1, 59, 0
1, 50351, Note_on_c, 0, 71, 0
1, 50352, Note_on_c, 0, 76, 64
1, 50352, Note_on_c, 1, 61, 78
1, 50375, Note_on_c, 0, 76, 0
1, 50376, Note_on_c, 0, 71, 64
1, 50397, Note_on_c, 1, 61, 0
1, 50399, Note_on_c, 0, 71, 0
1, 50400, Note_on_c, 0, 78, 64
1, 50400, Note_on_c, 1, 62, 78
1, 50423, Note_on_c, 0, 78, 0
1, 50424, Note_on_c, 0, 71, 64
1, 50445, Note_on_c, 1, 62, 0
1, 50447, Note_on_c, 0, 71, 0
1, 50448, Note_on_c, 0, 81, 64
1, 50448, Note_on_c, 1, 64, 78
1, 50460, Note_on_c, 0, 81, 0
1, 50460, Note_on_c, 0, 79, 64
1, 50472, Note_on_c, 0, 79, 0
1, 50472, Note_on_c, 0, 78, 64
1, 50472, Note_on_c, 0, 71, 64
1, 50484, Note_on_c, 0, 78, 0
1, 50484, Note_on_c, 0, 79, 64
1, 50493, Note_on_c, 1, 64, 0
1, 50495, Note_on_c, 0, 71, 0
1, 50496, Note_on_c, 0, 79, 0
1, 50496, Note_on_c, 0, 81, 64
1, 50496, Note_on_c, 1, 66, 78
1, 50519, Note_on_c, 0, 81, 0
1, 50520, Note_on_c, 0, 71, 64
1, 50541, Note_on_c, 1, 66, 0
1, 50543, Note_on_c, 0, 71, 0
1, 50544, Note_on_c, 0, 79, 64
1, 50544, Note_on_c, 1, 64, 78
1, 50567, Note_on_c, 0, 79, 0
1, 50568, Note_on_c, 0, 71, 64
1, 50589, Note_on_c, 1, 64, 0
1, 50591, Note_on_c, 0, 71, 0
1, 50592, Note_on_c, 0, 81, 64
1, 50592, Note_on_c, 1, 66, 78
1, 50615, Note_on_c, 0, 81, 0
1, 50616, Note_on_c, 0, 71, 64
1, 50637, Note_on_c, 1, 66, 0
1, 50639, Note_on_c, 0, 71, 0
1, 50640, Note_on_c, 0, 78, 64
1, 50640, Note_on_c, 1, 63, 78
1, 50663, Note_on_c, 0, 78, 0
1, 50664, Note_on_c, 0, 71, 64
1, 50685, Note_on_c, 1, 63, 0
1, 50687, Note_on_c, 0, 71, 0
1, 50688, Note_on_c, 0, 79, 64
1, 50688, Note_on_c, 1, 64, 78
1, 50711, Note_on_c, 0, 79, 0
1, 50712, Note_on_c, 0, 71, 64
1, 50733, Note_on_c, 1, 64, 0
1, 50735, Note_on_c, 0, 71, 0
1, 50736, Note_on_c, 0, 78, 64
1, 50736, Note_on_c, 1, 63, 78
1, 50759, Note_on_c, 0, 78, 0
1, 50760, Note_on_c, 0, 71, 64
1, 50781, Note_on_c, 1, 63, 0
1, 50783, Note_on_c, 0, 71, 0
1, 50784, Note_on_c, 0, 79, 64
1, 50784, Note_on_c, 1, 64, 78
1, 50807, Note_on_c, 0, 79, 0
1, 50808, Note_on_c, 0, 71, 64
1, 50829, Note_on_c, 1, 64, 0
1, 50831, Note_on_c, 0, 71, 0
1, 50832, Note_on_c, 0, 82, 64
1, 50832, Note_on_c, 1, 61, 78
1, 50855, Note_on_c, 0, 82, 0
1, 50856, Note_on_c, 0, 73, 64
1, 50877, Note_on_c, 1, 61, 0
1, 50879, Note_on_c, 0, 73, 0
1, 50880, Note_on_c, 0, 83, 64
1, 50880, Note_on_c, 1, 66, 78
1, 50880, Note_on_c, 1, 62, 78
1, 50903, Note_on_c, 0, 83, 0
1, 50904, Note_on_c, 0, 71, 64
1, 50925, Note_on_c, 1, 66, 0
1, 50925, Note_on_c, 1, 62, 0
1, 50927, Note_on_c, 0, 71, 0
1, 50928, Note_on_c, 0, 82, 64
1, 50928, Note_on_c, 1, 67, 78
1, 50928, Note_on_c, 1, 64, 78
1, 50951, Note_on_c, 0, 82, 0
1, 50952, Note_on_c, 0, 73, 64
1, 50973, Note_on_c, 1, 67, 0
1, 50973, Note_on_c, 1, 64, 0
1, 50975, Note_on_c, 0, 73, 0
1, 50976, Note_on_c, 0, 83, 64
1, 50976, Note_on_c, 1, 66, 78
1, 50976, Note_on_c, 1, 62, 78
1, 50999, Note_on_c, 0, 83, 0
1, 51000, Note_on_c, 0, 71, 64
1, 51021, Note_on_c, 1, 66, 0
1, 51021, Note_on_c, 1, 62, 0
1, 51023, Note_on_c, 0, 71, 0
1, 51024, Note_on_c, 0, 82, 64
1, 51024, Note_on_c, 1, 67, 78
1, 51024, Note_on_c, 1, 64, 78
1, 51047, Note_on_c, 0, 82, 0
1, 51048, Note_on_c, 0, 73, 64
1, 51057, Note_on_c, 1, 59, 0
1, 51069, Note_on_c, 1, 67, 0
1, 51069, Note_on_c, 1, 64, 0
1, 51071, Note_on_c, 0, 73, 0
1, 51072, Note_on_c, 0, 83, 64
1, 51072, Note_on_c, 1, 66, 78
1, 51072, Note_on_c, 1, 62, 78
1, 51072, Note_on_c, 1, 59, 78
1, 51092, Note_on_c, 0, 83, 0
1, 51120, Note_on_c, 0, 86, 64
1, 51135, Note_on_c, 0, 86, 0
1, 51136, Note_on_c, 0, 85, 64
1, 51151, Note_on_c, 0, 85, 0
1, 51152, Note_on_c, 0, 83, 64
1, 51161, Note_on_c, 1, 66, 0
1, 51161, Note_on_c, 1, 62, 0
1, 51161, Note_on_c, 1, 59, 0
1, 51167, Note_on_c, 0, 83, 0
1, 51168, Note_on_c, 0, 81, 64
1, 51183, Note_on_c, 0, 81, 0
1, 51184, Note_on_c, 0, 79, 64
1, 51199, Note_on_c, 0, 79, 0
1, 51200, Note_on_c, 0, 78, 64
1, 51215, Note_on_c, 0, 78, 0
1, 51216, Note_on_c, 0, 76, 64
1, 51231, Note_on_c, 0, 76, 0
1, 51232, Note_on_c, 0, 74, 64
1, 51247, Note_on_c, 0, 74, 0
1, 51248, Note_on_c, 0, 73, 64
1, 51263, Note_on_c, 0, 73, 0
1, 51264, Note_on_c, 0, 71, 64
1, 51264, Note_on_c, 1, 67, 78
1, 51284, Note_on_c, 0, 71, 0
1, 51312, Note_on_c, 0, 75, 64
1, 51327, Note_on_c, 0, 75, 0
1, 51328, Note_on_c, 0, 76, 64
1, 51343, Note_on_c, 0, 76, 0
1, 51344, Note_on_c, 0, 78, 64
1, 51353, Note_on_c, 1, 67, 0
1, 51359, Note_on_c, 0, 78, 0
1, 51360, Note_on_c, 0, 79, 64
1, 51375, Note_on_c, 0, 79, 0
1, 51376, Note_on_c, 0, 78, 64
1, 51391, Note_on_c, 0, 78, 0
1, 51392, Note_on_c, 0, 76, 64
1, 51407, Note_on_c, 0, 76, 0
1, 51408, Note_on_c, 0, 88, 64
1, 51408, Note_on_c, 1, 64, 78
1, 51423, Note_on_c, 0, 88, 0
1, 51424, Note_on_c, 0, 85, 64
1, 51439, Note_on_c, 0, 85, 0
1, 51440, Note_on_c, 0, 82, 64
1, 51453, Note_on_c, 1, 64, 0
1, 51455, Note_on_c, 0, 82, 0
1, 51456, Note_on_c, 0, 83, 64
1, 51456, Note_on_c, 1, 62, 78
1, 51501, Note_on_c, 0, 83, 0
1, 51501, Note_on_c, 1, 62, 0
1, 51504, Note_on_c, 0, 81, 64
1, 51504, Note_on_c, 1, 64, 78
1, 51516, Note_on_c, 0, 81, 0
1, 51516, Note_on_c, 0, 79, 64
1, 51528, Note_on_c, 0, 79, 0
1, 51528, Note_on_c, 0, 78, 64
1, 51540, Note_on_c, 0, 78, 0
1, 51540, Note_on_c, 0, 76, 64
1, 51549, Note_on_c, 1, 64, 0
1, 51552, Note_on_c, 0, 76, 0
1, 51552, Note_on_c, 0, 74, 64
1, 51552, Note_on_c, 1, 66, 78
1, 51597, Note_on_c, 0, 74, 0
1, 51597, Note_on_c, 1, 66, 0
1, 51600, Note_on_c, 0, 74, 64
1, 51600, Note_on_c, 1, 54, 78
1, 51608, Note_on_c, 0, 74, 0
1, 51608, Note_on_c, 0, 73, 64
1, 51616, Note_on_c, 0, 73, 0
1, 51616, Note_on_c, 0, 74, 64
1, 51624, Note_on_c, 0, 74, 0
1, 51624, Note_on_c, 0, 73, 64
1, 51632, Note_on_c, 0, 73, 0
1, 51632, Note_on_c, 0, 71, 64
1, 51640, Note_on_c, 0, 71, 0
1, 51640, Note_on_c, 0, 73, 64
1, 51645, Note_on_c, 1, 54, 0
1, 51648, Note_on_c, 0, 73, 0
1, 51648, Note_on_c, 0, 71, 64
1, 51648, Note_on_c, 1, 59, 78
1, 51668, Note_on_c, 0, 71, 0
1, 51696, Note_on_c, 0, 74, 64
1, 51711, Note_on_c, 0, 74, 0
1, 51712, Note_on_c, 0, 73, 64
1, 51727, Note_on_c, 0, 73, 0
1, 51728, Note_on_c, 0, 71, 64
1, 51737, Note_on_c, 1, 59, 0
1, 51743, Note_on_c, 0, 71, 0
1, 51744, Note_on_c, 0, 69, 64
1, 51759, Note_on_c, 0, 69, 0
1, 51760, Note_on_c, 0, 67, 64
1, 51775, Note_on_c, 0, 67, 0
1, 51776, Note_on_c, 0, 66, 64
1, 51791, Note_on_c, 0, 66, 0
1, 51792, Note_on_c, 0, 64, 64
1, 51807, Note_on_c, 0, 64, 0
1, 51808, Note_on_c, 0, 62, 64
1, 51823, Note_on_c, 0, 62, 0
1, 51824, Note_on_c, 0, 61, 64
1, 51839, Note_on_c, 0, 61, 0
1, 51840, Note_on_c, 0, 59, 64
1, 51840, Note_on_c, 1, 55, 78
1, 51860, Note_on_c, 1, 55, 0
1, 51885, Note_on_c, 0, 59, 0
1, 51888, Note_on_c, 1, 58, 78
1, 51903, Note_on_c, 1, 58, 0
1, 51904, Note_on_c, 1, 61, 78
1, 51919, Note_on_c, 1, 61, 0
1, 51920, Note_on_c, 1, 64, 78
1, 51935, Note_on_c, 1, 64, 0
1, 51936, Note_on_c, 0, 67, 64
1, 51951, Note_on_c, 0, 67, 0
1, 51952, Note_on_c, 0, 70, 64
1, 51967, Note_on_c, 0, 70, 0
1, 51968, Note_on_c, 0, 73, 64
1, 51983, Note_on_c, 0, 73, 0
1, 51984, Note_on_c, 0, 76, 64
1, 51999, Note_on_c, 0, 76, 0
1, 52000, Note_on_c, 0, 79, 64
1, 52015, Note_on_c, 0, 79, 0
1, 52016, Note_on_c, 0, 82, 64
1, 52031, Note_on_c, 0, 82, 0
1, 52032, Note_on_c, 0, 83, 64
1, 52077, Note_on_c, 0, 83, 0
1, 52080, Note_on_c, 0, 81, 64
1, 52080, Note_on_c, 1, 64, 78
1, 52092, Note_on_c, 0, 81, 0
1, 52092, Note_on_c, 0, 79, 64
1, 52104, Note_on_c, 0, 79, 0
1, 52104, Note_on_c, 0, 78, 64
1, 52116, Note_on_c, 0, 78, 0
1, 52116, Note_on_c, 0, 76, 64
1, 52125, Note_on_c, 1, 64, 0
1, 52128, Note_on_c, 0, 76, 0
1, 52128, Note_on_c, 0, 74, 64
1, 52128, Note_on_c, 1, 66, 78
1, 52173, Note_on_c, 0, 74, 0
1, 52173, Note_on_c, 1, 66, 0
1, 52176, Note_on_c, 0, 74, 64
1, 52176, Note_on_c, 1, 54, 78
1, 52184, Note_on_c, 0, 74, 0
1, 52184, Note_on_c, 0, 73, 64
1, 52192, Note_on_c, 0, 73, 0
1, 52192, Note_on_c, 0, 74, 64
1, 52200, Note_on_c, 0, 74, 0
1, 52200, Note_on_c, 0, 73, 64
1, 52208, Note_on_c, 0, 73, 0
1, 52208, Note_on_c, 0, 71, 64
1, 52216, Note_on_c, 0, 71, 0
1, 52216, Note_on_c, 0, 73, 64
1, 52221, Note_on_c, 1, 54, 0
1, 52224, Note_on_c, 0, 73, 0
1, 52224, Note_on_c, 0, 71, 64
1, 52224, Note_on_c, 1, 59, 78
1, 52244, Note_on_c, 0, 71, 0
1, 52244, Note_on_c, 1, 59, 0
1, 52272, Note_on_c, 0, 74, 64
1, 52272, Note_on_c, 1, 59, 78
1, 52296, Note_on_c, 0, 74, 0
1, 52296, Note_on_c, 0, 83, 64
1, 52317, Note_on_c, 1, 59, 0
1, 52319, Note_on_c, 0, 83, 0
1, 52320, Note_on_c, 0, 76, 64
1, 52320, Note_on_c, 1, 61, 78
1, 52343, Note_on_c, 0, 76, 0
1, 52344, Note_on_c, 0, 83, 64
1, 52365, Note_on_c, 1, 61, 0
1, 52367, Note_on_c, 0, 83, 0
1, 52368, Note_on_c, 0, 78, 64
1, 52368, Note_on_c, 1, 62, 78
1, 52391, Note_on_c, 0, 78, 0
1, 52392, Note_on_c, 0, 83, 64
1, 52413, Note_on_c, 1, 62, 0
1, 52415, Note_on_c, 0, 83, 0
1, 52416, Note_on_c, 0, 79, 64
1, 52416, Note_on_c, 1, 64, 78
1, 52439, Note_on_c, 0, 79, 0
1, 52440, Note_on_c, 0, 83, 64
1, 52461, Note_on_c, 1, 64, 0
1, 52463, Note_on_c, 0, 83, 0
1, 52464, Note_on_c, 0, 78, 64
1, 52464, Note_on_c, 1, 62, 78
1, 52487, Note_on_c, 0, 78, 0
1, 52488, Note_on_c, 0, 83, 64
1, 52509, Note_on_c, 1, 62, 0
1, 52511, Note_on_c, 0, 83, 0
1, 52512, Note_on_c, 0, 79, 64
1, 52512, Note_on_c, 1, 64, 78
1, 52535, Note_on_c, 0, 79, 0
1, 52536, Note_on_c, 0, 83, 64
1, 52557, Note_on_c, 1, 64, 0
1, 52559, Note_on_c, 0, 83, 0
1, 52560, Note_on_c, 0, 82, 64
1, 52560, Note_on_c, 1, 66, 78
1, 52583, Note_on_c, 0, 82, 0
1, 52584, Note_on_c, 0, 88, 64
1, 52605, Note_on_c, 1, 66, 0
1, 52607, Note_on_c, 0, 88, 0
1, 52608, Note_on_c, 0, 86, 64
1, 52608, Note_on_c, 1, 67, 78
1, 52631, Note_on_c, 0, 86, 0
1, 52632, Note_on_c, 0, 83, 64
1, 52653, Note_on_c, 1, 67, 0
1, 52655, Note_on_c, 0, 83, 0
1, 52656, Note_on_c, 0, 76, 64
1, 52656, Note_on_c, 1, 64, 78
1, 52679, Note_on_c, 0, 76, 0
1, 52680, Note_on_c, 0, 85, 64
1, 52701, Note_on_c, 1, 64, 0
1, 52703, Note_on_c, 0, 85, 0
1, 52704, Note_on_c, 0, 74, 64
1, 52704, Note_on_c, 1, 66, 78
1, 52727, Note_on_c, 0, 74, 0
1, 52728, Note_on_c, 0, 83, 64
1, 52749, Note_on_c, 1, 66, 0
1, 52751, Note_on_c, 0, 83, 0
1, 52752, Note_on_c, 0, 73, 64
1, 52752, Note_on_c, 1, 54, 78
1, 52775, Note_on_c, 0, 73, 0
1, 52776, Note_on_c, 0, 82, 64
1, 52797, Note_on_c, 1, 54, 0
1, 52799, Note_on_c, 0, 82, 0
1, 52800, Note_on_c, 0, 83, 64
1, 52800, Note_on_c, 0, 74, 64
1, 52800, Note_on_c, 1, 59, 78
1, 52845, Note_on_c, 0, 83, 0
1, 52845, Note_on_c, 0, 74, 0
1, 52845, Note_on_c, 1, 59, 0
1, 52848, Note_on_c, 0, 62, 64
1, 52848, Note_on_c, 1, 35, 78
1, 52871, Note_on_c, 1, 35, 0
1, 52872, Note_on_c, 0, 62, 0
1, 52872, Note_on_c, 0, 71, 64
1, 52872, Note_on_c, 1, 47, 78
1, 52895, Note_on_c, 0, 71, 0
1, 52895, Note_on_c, 1, 47, 0
1, 52896, Note_on_c, 0, 64, 64
1, 52896, Note_on_c, 1, 37, 78
1, 52919, Note_on_c, 0, 64, 0
1, 52919, Note_on_c, 1, 37, 0
1, 52920, Note_on_c, 0, 71, 64
1, 52920, Note_on_c, 1, 49, 78
1, 52943, Note_on_c, 0, 71, 0
1, 52943, Note_on_c, 1, 49, 0
1, 52944, Note_on_c, 0, 66, 64
1, 52944, Note_on_c, 1, 38, 78
1, 52967, Note_on_c, 0, 66, 0
1, 52967, Note_on_c, 1, 38, 0
1, 52968, Note_on_c, 0, 71, 64
1, 52968, Note_on_c, 1, 50, 78
1, 52991, Note_on_c, 0, 71, 0
1, 52991, Note_on_c, 1, 50, 0
1, 52992, Note_on_c, 0, 67, 64
1, 52992, Note_on_c, 1, 40, 78
1, 53015, Note_on_c, 0, 67, 0
1, 53015, Note_on_c, 1, 40, 0
1, 53016, Note_on_c, 0, 71, 64
1, 53016, Note_on_c, 1, 52, 78
1, 53039, Note_on_c, 0, 71, 0
1, 53039, Note_on_c, 1, 52, 0
1, 53040, Note_on_c, 0, 66, 64
1, 53040, Note_on_c, 1, 38, 78
1, 53063, Note_on_c, 0, 66, 0
1, 53063, Note_on_c, 1, 38, 0
1, 53064, Note_on_c, 0, 71, 64
1, 53064, Note_on_c, 1, 50, 78
1, 53087, Note_on_c, 0, 71, 0
1, 53087, Note_on_c, 1, 50, 0
1, 53088, Note_on_c, 0, 67, 64
1, 53088, Note_on_c, 1, 40, 78
1, 53111, Note_on_c, 0, 67, 0
1, 53111, Note_on_c, 1, 40, 0
1, 53112, Note_on_c, 0, 71, 64
1, 53112, Note_on_c, 1, 52, 78
1, 53135, Note_on_c, 0, 71, 0
1, 53135, Note_on_c, 1, 52, 0
1, 53136, Note_on_c, 0, 70, 64
1, 53136, Note_on_c, 1, 42, 78
1, 53159, Note_on_c, 0, 70, 0
1, 53159, Note_on_c, 1, 42, 0
1, 53160, Note_on_c, 0, 76, 64
1, 53160, Note_on_c, 1, 54, 78
1, 53183, Note_on_c, 0, 76, 0
1, 53183, Note_on_c, 1, 54, 0
1, 53184, Note_on_c, 0, 74, 64
1, 53184, Note_on_c, 1, 43, 78
1, 53207, Note_on_c, 0, 74, 0
1, 53207, Note_on_c, 1, 43, 0
1, 53208, Note_on_c, 0, 71, 64
1, 53208, Note_on_c, 1, 55, 78
1, 53231, Note_on_c, 0, 71, 0
1, 53231, Note_on_c, 1, 55, 0
1, 53232, Note_on_c, 0, 64, 64
1, 53232, Note_on_c, 1, 52, 78
1, 53255, Note_on_c, 0, 64, 0
1, 53256, Note_on_c, 0, 73, 64
1, 53277, Note_on_c, 1, 52, 0
1, 53279, Note_on_c, 0, 73, 0
1, 53280, Note_on_c, 0, 62, 64
1, 53280, Note_on_c, 1, 54, 78
1, 53303, Note_on_c, 0, 62, 0
1, 53304, Note_on_c, 0, 71, 64
1, 53325, Note_on_c, 1, 54, 0
1, 53327, Note_on_c, 0, 71, 0
1, 53328, Note_on_c, 0, 61, 64
1, 53328, Note_on_c, 1, 42, 78
1, 53351, Note_on_c, 0, 61, 0
1, 53352, Note_on_c, 0, 70, 64
1, 53373, Note_on_c, 1, 42, 0
1, 53375, Note_on_c, 0, 70, 0
1, 53376, Note_on_c, 0, 71, 64
1, 53376, Note_on_c, 0, 62, 64
1, 53376, Note_on_c, 1, 47, 78
1, 53396, Note_on_c, 0, 71, 0
1, 53396, Note_on_c, 0, 62, 0
1, 53424, Note_on_c, 0, 76, 64
1, 53424, Note_on_c, 0, 71, 64
1, 53436, Note_on_c, 0, 76, 0
1, 53436, Note_on_c, 0, 74, 64
1, 53444, Note_on_c, 0, 71, 0
1, 53448, Note_on_c, 0, 74, 0
1, 53448, Note_on_c, 0, 73, 64
1, 53460, Note_on_c, 0, 73, 0
1, 53460, Note_on_c, 0, 74, 64
1, 53465, Note_on_c, 1, 47, 0
1, 53472, Note_on_c, 0, 74, 0
1, 53472, Note_on_c, 0, 78, 64
1, 53472, Note_on_c, 0, 74, 64
1, 53492, Note_on_c, 0, 78, 0
1, 53492, Note_on_c, 0, 74, 0
1, 53520, Note_on_c, 0, 74, 64
1, 53520, Note_on_c, 0, 71, 64
1, 53540, Note_on_c, 0, 74, 0
1, 53540, Note_on_c, 0, 71, 0
1, 53568, Note_on_c, 0, 83, 64
1, 53568, Note_on_c, 0, 78, 64
1, 53568, Note_on_c, 0, 74, 64
1, 53568, Note_on_c, 0, 71, 64
1, 53568, Note_on_c, 1, 47, 78
1, 53568, Note_on_c, 1, 42, 78
1, 53568, Note_on_c, 1, 38, 78
1, 53568, Note_on_c, 1, 35, 78
1, 53657, Note_on_c, 0, 83, 0
1, 53657, Note_on_c, 0, 78, 0
1, 53657, Note_on_c, 0, 74, 0
1, 53657, Note_on_c, 0, 71, 0
1, 53657, Note_on_c, 1, 47, 0
1, 53657, Note_on_c, 1, 42, 0
1, 53657, Note_on_c, 1, 38, 0
1, 53657, Note_on_c, 1, 35, 0
1, 53667, End_track
0, 0, End_of_file