0, 0, Header, 0, 1, 96
1, 0, Start_track
1, 0, Tempo, 480000
1, 0, Note_on_c, 0, 57, 96
1, 96, Note_on_c, 0, 57, 0
1, 96, Note_on_c, 0, 62, 80
1, 96, Note_on_c, 1, 54, 80
1, 185, Note_on_c, 1, 54, 0
1, 192, Note_on_c, 1, 50, 80
1, 259, Note_on_c, 0, 62, 0
1, 264, Note_on_c, 0, 66, 80
1, 281, Note_on_c, 1, 50, 0
1, 287, Note_on_c, 0, 66, 0
1, 288, Note_on_c, 0, 66, 80
1, 288, Note_on_c, 1, 52, 80
1, 355, Note_on_c, 0, 66, 0
1, 360, Note_on_c, 0, 67, 80
1, 377, Note_on_c, 1, 52, 0
1, 383, Note_on_c, 0, 67, 0
1, 384, Note_on_c, 0, 62, 80
1, 384, Note_on_c, 1, 57, 80
1, 473, Note_on_c, 1, 57, 0
1, 480, Note_on_c, 0, 62, 0
1, 480, Note_on_c, 0, 61, 80
1, 480, Note_on_c, 1, 55, 80
1, 569, Note_on_c, 0, 61, 0
1, 569, Note_on_c, 1, 55, 0
1, 576, Note_on_c, 1, 54, 80
1, 600, Note_on_c, 0, 62, 80
1, 623, Note_on_c, 0, 62, 0
1, 624, Note_on_c, 0, 64, 80
1, 647, Note_on_c, 0, 64, 0
1, 648, Note_on_c, 0, 66, 81
1, 671, Note_on_c, 0, 66, 0
1, 672, Note_on_c, 0, 67, 82
1, 695, Note_on_c, 0, 67, 0
1, 696, Note_on_c, 0, 69, 82
1, 719, Note_on_c, 0, 69, 0
1, 720, Note_on_c, 0, 71, 83
1, 743, Note_on_c, 0, 71, 0
1, 744, Note_on_c, 0, 73, 84
1, 753, Note_on_c, 1, 54, 0
1, 767, Note_on_c, 0, 73, 0
1, 768, Note_on_c, 0, 74, 84
1, 768, Note_on_c, 1, 50, 80
1, 791, Note_on_c, 0, 74, 0
1, 792, Note_on_c, 0, 76, 85
1, 815, Note_on_c, 0, 76, 0
1, 816, Note_on_c, 0, 78, 86
1, 839, Note_on_c, 0, 78, 0
1, 840, Note_on_c, 0, 74, 87
1, 857, Note_on_c, 1, 50, 0
1, 863, Note_on_c, 0, 74, 0
1, 864, Note_on_c, 0, 69, 86
1, 864, Note_on_c, 1, 52, 80
1, 953, Note_on_c, 0, 69, 0
1, 953, Note_on_c, 1, 52, 0
1, 960, Note_on_c, 0, 67, 84
1, 960, Note_on_c, 1, 61, 80
1, 973, Note_on_c, 0, 67, 0
1, 974, Note_on_c, 0, 69, 84
1, 987, Note_on_c, 0, 69, 0
1, 988, Note_on_c, 0, 67, 83
1, 1001, Note_on_c, 0, 67, 0
1, 1002, Note_on_c, 0, 69, 83
1, 1015, Note_on_c, 0, 69, 0
1, 1016, Note_on_c, 0, 67, 83
1, 1029, Note_on_c, 0, 67, 0
1, 1030, Note_on_c, 0, 66, 82
1, 1042, Note_on_c, 0, 66, 0
1, 1043, Note_on_c, 0, 67, 82
1, 1049, Note_on_c, 1, 61, 0
1, 1055, Note_on_c, 0, 67, 0
1, 1056, Note_on_c, 0, 66, 82
1, 1056, Note_on_c, 1, 62, 80
1, 1145, Note_on_c, 0, 66, 0
1, 1145, Note_on_c, 1, 62, 0
1, 1152, Note_on_c, 0, 74, 80
1, 1152, Note_on_c, 1, 54, 80
1, 1172, Note_on_c, 0, 74, 0
1, 1200, Note_on_c, 0, 74, 80
1, 1241, Note_on_c, 1, 54, 0
1, 1248, Note_on_c, 1, 56, 80
1, 1271, Note_on_c, 0, 74, 0
1, 1272, Note_on_c, 0, 78, 80
1, 1295, Note_on_c, 0, 78, 0
1, 1296, Note_on_c, 0, 76, 80
1, 1319, Note_on_c, 0, 76, 0
1, 1320, Note_on_c, 0, 74, 80
1, 1343, Note_on_c, 0, 74, 0
1, 1344, Note_on_c, 0, 74, 80
1, 1344, Note_on_c, 1, 56, 0
1, 1344, Note_on_c, 1, 57, 80
1, 1367, Note_on_c, 0, 74, 0
1, 1368, Note_on_c, 0, 73, 80
1, 1391, Note_on_c, 0, 73, 0
1, 1392, Note_on_c, 0, 71, 80
1, 1415, Note_on_c, 0, 71, 0
1, 1416, Note_on_c, 0, 69, 80
1, 1433, Note_on_c, 1, 57, 0
1, 1439, Note_on_c, 0, 69, 0
1, 1440, Note_on_c, 0, 74, 74
1, 1440, Note_on_c, 1, 54, 69
1, 1460, Note_on_c, 0, 74, 0
1, 1488, Note_on_c, 0, 74, 74
1, 1529, Note_on_c, 1, 54, 0
1, 1536, Note_on_c, 1, 56, 69
1, 1559, Note_on_c, 0, 74, 0
1, 1560, Note_on_c, 0, 78, 74
1, 1583, Note_on_c, 0, 78, 0
1, 1584, Note_on_c, 0, 76, 74
1, 1607, Note_on_c, 0, 76, 0
1, 1608, Note_on_c, 0, 74, 74
1, 1631, Note_on_c, 0, 74, 0
1, 1632, Note_on_c, 0, 74, 74
1, 1632, Note_on_c, 1, 56, 0
1, 1632, Note_on_c, 1, 57, 69
1, 1655, Note_on_c, 0, 74, 0
1, 1656, Note_on_c, 0, 73, 74
1, 1679, Note_on_c, 0, 73, 0
1, 1680, Note_on_c, 0, 71, 74
1, 1703, Note_on_c, 0, 71, 0
1, 1704, Note_on_c, 0, 69, 74
1, 1721, Note_on_c, 1, 57, 0
1, 1727, Note_on_c, 0, 69, 0
1, 1728, Note_on_c, 0, 68, 80
1, 1728, Note_on_c, 1, 50, 80
1, 1752, Note_on_c, 0, 68, 0
1, 1752, Note_on_c, 0, 69, 80
1, 1775, Note_on_c, 0, 69, 0
1, 1776, Note_on_c, 0, 66, 80
1, 1799, Note_on_c, 0, 66, 0
1, 1800, Note_on_c, 0, 62, 80
1, 1817, Note_on_c, 1, 50, 0
1, 1823, Note_on_c, 0, 62, 0
1, 1824, Note_on_c, 0, 61, 80
1, 1824, Note_on_c, 1, 52, 80
1, 1913, Note_on_c, 0, 61, 0
1, 1913, Note_on_c, 1, 52, 0
1, 1920, Note_on_c, 0, 59, 80
1, 1920, Note_on_c, 1, 40, 80
1, 1933, Note_on_c, 0, 59, 0
1, 1934, Note_on_c, 0, 61, 80
1, 1947, Note_on_c, 0, 61, 0
1, 1948, Note_on_c, 0, 59, 80
1, 1961, Note_on_c, 0, 59, 0
1, 1962, Note_on_c, 0, 61, 80
1, 1975, Note_on_c, 0, 61, 0
1, 1976, Note_on_c, 0, 59, 80
1, 1989, Note_on_c, 0, 59, 0
1, 1990, Note_on_c, 0, 57, 80
1, 2002, Note_on_c, 0, 57, 0
1, 2003, Note_on_c, 0, 59, 80
1, 2009, Note_on_c, 1, 40, 0
1, 2015, Note_on_c, 0, 59, 0
1, 2016, Note_on_c, 0, 57, 80
1, 2016, Note_on_c, 1, 45, 80
1, 2105, Note_on_c, 1, 45, 0
1, 2112, Note_on_c, 1, 40, 80
1, 2193, Note_on_c, 0, 57, 0
1, 2201, Note_on_c, 1, 40, 0
1, 2208, Note_on_c, 1, 33, 80
1, 2297, Note_on_c, 1, 33, 0
1, 2304, Note_on_c, 0, 57, 96
1, 2400, Note_on_c, 0, 57, 0
1, 2400, Note_on_c, 0, 62, 80
1, 2400, Note_on_c, 1, 54, 80
1, 2489, Note_on_c, 1, 54, 0
1, 2496, Note_on_c, 1, 50, 80
1, 2563, Note_on_c, 0, 62, 0
1, 2568, Note_on_c, 0, 66, 80
1, 2585, Note_on_c, 1, 50, 0
1, 2591, Note_on_c, 0, 66, 0
1, 2592, Note_on_c, 0, 66, 80
1, 2592, Note_on_c, 1, 52, 80
1, 2659, Note_on_c, 0, 66, 0
1, 2664, Note_on_c, 0, 67, 80
1, 2681, Note_on_c, 1, 52, 0
1, 2687, Note_on_c, 0, 67, 0
1, 2688, Note_on_c, 0, 62, 80
1, 2688, Note_on_c, 1, 57, 80
1, 2777, Note_on_c, 1, 57, 0
1, 2784, Note_on_c, 0, 62, 0
1, 2784, Note_on_c, 0, 61, 80
1, 2784, Note_on_c, 1, 55, 80
1, 2873, Note_on_c, 0, 61, 0
1, 2873, Note_on_c, 1, 55, 0
1, 2880, Note_on_c, 1, 54, 80
1, 2904, Note_on_c, 0, 62, 80
1, 2927, Note_on_c, 0, 62, 0
1, 2928, Note_on_c, 0, 64, 80
1, 2951, Note_on_c, 0, 64, 0
1, 2952, Note_on_c, 0, 66, 81
1, 2975, Note_on_c, 0, 66, 0
1, 2976, Note_on_c, 0, 67, 82
1, 2999, Note_on_c, 0, 67, 0
1, 3000, Note_on_c, 0, 69, 82
1, 3023, Note_on_c, 0, 69, 0
1, 3024, Note_on_c, 0, 71, 83
1, 3047, Note_on_c, 0, 71, 0
1, 3048, Note_on_c, 0, 73, 84
1, 3057, Note_on_c, 1, 54, 0
1, 3071, Note_on_c, 0, 73, 0
1, 3072, Note_on_c, 0, 74, 84
1, 3072, Note_on_c, 1, 50, 80
1, 3095, Note_on_c, 0, 74, 0
1, 3096, Note_on_c, 0, 76, 85
1, 3119, Note_on_c, 0, 76, 0
1, 3120, Note_on_c, 0, 78, 86
1, 3143, Note_on_c, 0, 78, 0
1, 3144, Note_on_c, 0, 74, 87
1, 3161, Note_on_c, 1, 50, 0
1, 3167, Note_on_c, 0, 74, 0
1, 3168, Note_on_c, 0, 69, 86
1, 3168, Note_on_c, 1, 52, 80
1, 3257, Note_on_c, 0, 69, 0
1, 3257, Note_on_c, 1, 52, 0
1, 3264, Note_on_c, 0, 67, 84
1, 3264, Note_on_c, 1, 61, 80
1, 3277, Note_on_c, 0, 67, 0
1, 3278, Note_on_c, 0, 69, 84
1, 3291, Note_on_c, 0, 69, 0
1, 3292, Note_on_c, 0, 67, 83
1, 3305, Note_on_c, 0, 67, 0
1, 3306, Note_on_c, 0, 69, 83
1, 3319, Note_on_c, 0, 69, 0
1, 3320, Note_on_c, 0, 67, 83
1, 3333, Note_on_c, 0, 67, 0
1, 3334, Note_on_c, 0, 66, 82
1, 3346, Note_on_c, 0, 66, 0
1, 3347, Note_on_c, 0, 67, 82
1, 3353, Note_on_c, 1, 61, 0
1, 3359, Note_on_c, 0, 67, 0
1, 3360, Note_on_c, 0, 66, 82
1, 3360, Note_on_c, 1, 62, 80
1, 3449, Note_on_c, 0, 66, 0
1, 3449, Note_on_c, 1, 62, 0
1, 3456, Note_on_c, 0, 74, 80
1, 3456, Note_on_c, 1, 54, 80
1, 3476, Note_on_c, 0, 74, 0
1, 3504, Note_on_c, 0, 74, 80
1, 3545, Note_on_c, 1, 54, 0
1, 3552, Note_on_c, 1, 56, 80
1, 3575, Note_on_c, 0, 74, 0
1, 3576, Note_on_c, 0, 78, 80
1, 3599, Note_on_c, 0, 78, 0
1, 3600, Note_on_c, 0, 76, 80
1, 3623, Note_on_c, 0, 76, 0
1, 3624, Note_on_c, 0, 74, 80
1, 3647, Note_on_c, 0, 74, 0
1, 3648, Note_on_c, 0, 74, 80
1, 3648, Note_on_c, 1, 56, 0
1, 3648, Note_on_c, 1, 57, 80
1, 3671, Note_on_c, 0, 74, 0
1, 3672, Note_on_c, 0, 73, 80
1, 3695, Note_on_c, 0, 73, 0
1, 3696, Note_on_c, 0, 71, 80
1, 3719, Note_on_c, 0, 71, 0
1, 3720, Note_on_c, 0, 69, 80
1, 3737, Note_on_c, 1, 57, 0
1, 3743, Note_on_c, 0, 69, 0
1, 3744, Note_on_c, 0, 74, 74
1, 3744, Note_on_c, 1, 54, 69
1, 3764, Note_on_c, 0, 74, 0
1, 3792, Note_on_c, 0, 74, 74
1, 3833, Note_on_c, 1, 54, 0
1, 3840, Note_on_c, 1, 56, 69
1, 3863, Note_on_c, 0, 74, 0
1, 3864, Note_on_c, 0, 78, 74
1, 3887, Note_on_c, 0, 78, 0
1, 3888, Note_on_c, 0, 76, 74
1, 3911, Note_on_c, 0, 76, 0
1, 3912, Note_on_c, 0, 74, 74
1, 3935, Note_on_c, 0, 74, 0
1, 3936, Note_on_c, 0, 74, 74
1, 3936, Note_on_c, 1, 56, 0
1, 3936, Note_on_c, 1, 57, 69
1, 3959, Note_on_c, 0, 74, 0
1, 3960, Note_on_c, 0, 73, 74
1, 3983, Note_on_c, 0, 73, 0
1, 3984, Note_on_c, 0, 71, 74
1, 4007, Note_on_c, 0, 71, 0
1, 4008, Note_on_c, 0, 69, 74
1, 4025, Note_on_c, 1, 57, 0
1, 4031, Note_on_c, 0, 69, 0
1, 4032, Note_on_c, 0, 68, 80
1, 4032, Note_on_c, 1, 50, 80
1, 4056, Note_on_c, 0, 68, 0
1, 4056, Note_on_c, 0, 69, 80
1, 4079, Note_on_c, 0, 69, 0
1, 4080, Note_on_c, 0, 66, 80
1, 4103, Note_on_c, 0, 66, 0
1, 4104, Note_on_c, 0, 62, 80
1, 4121, Note_on_c, 1, 50, 0
1, 4127, Note_on_c, 0, 62, 0
1, 4128, Note_on_c, 0, 61, 80
1, 4128, Note_on_c, 1, 52, 80
1, 4217, Note_on_c, 0, 61, 0
1, 4217, Note_on_c, 1, 52, 0
1, 4224, Note_on_c, 0, 59, 80
1, 4224, Note_on_c, 1, 40, 80
1, 4237, Note_on_c, 0, 59, 0
1, 4238, Note_on_c, 0, 61, 80
1, 4251, Note_on_c, 0, 61, 0
1, 4252, Note_on_c, 0, 59, 80
1, 4265, Note_on_c, 0, 59, 0
1, 4266, Note_on_c, 0, 61, 80
1, 4279, Note_on_c, 0, 61, 0
1, 4280, Note_on_c, 0, 59, 80
1, 4293, Note_on_c, 0, 59, 0
1, 4294, Note_on_c, 0, 57, 80
1, 4306, Note_on_c, 0, 57, 0
1, 4307, Note_on_c, 0, 59, 80
1, 4313, Note_on_c, 1, 40, 0
1, 4319, Note_on_c, 0, 59, 0
1, 4320, Note_on_c, 0, 57, 80
1, 4320, Note_on_c, 1, 45, 80
1, 4409, Note_on_c, 1, 45, 0
1, 4416, Note_on_c, 1, 40, 80
1, 4497, Note_on_c, 0, 57, 0
1, 4505, Note_on_c, 1, 40, 0
1, 4512, Note_on_c, 1, 33, 80
1, 4601, Note_on_c, 1, 33, 0
1, 4608, Note_on_c, 0, 83, 80
1, 4623, Note_on_c, 0, 83, 0
1, 4624, Note_on_c, 0, 81, 80
1, 4639, Note_on_c, 0, 81, 0
1, 4640, Note_on_c, 0, 83, 80
1, 4655, Note_on_c, 0, 83, 0
1, 4656, Note_on_c, 0, 81, 80
1, 4670, Note_on_c, 0, 81, 0
1, 4671, Note_on_c, 0, 83, 80
1, 4685, Note_on_c, 0, 83, 0
1, 4686, Note_on_c, 0, 81, 80
1, 4700, Note_on_c, 0, 81, 0
1, 4701, Note_on_c, 0, 83, 80
1, 4704, Note_on_c, 1, 57, 80
1, 4715, Note_on_c, 0, 83, 0
1, 4716, Note_on_c, 0, 81, 80
1, 4727, Note_on_c, 1, 57, 0
1, 4728, Note_on_c, 1, 61, 80
1, 4730, Note_on_c, 0, 81, 0
1, 4731, Note_on_c, 0, 83, 80
1, 4745, Note_on_c, 0, 83, 0
1, 4746, Note_on_c, 0, 81, 80
1, 4751, Note_on_c, 1, 61, 0
1, 4752, Note_on_c, 1, 64, 80
1, 4760, Note_on_c, 0, 81, 0
1, 4761, Note_on_c, 0, 83, 80
1, 4775, Note_on_c, 0, 83, 0
1, 4775, Note_on_c, 1, 64, 0
1, 4776, Note_on_c, 0, 81, 80
1, 4776, Note_on_c, 1, 69, 80
1, 4790, Note_on_c, 0, 81, 0
1, 4791, Note_on_c, 0, 83, 80
1, 4799, Note_on_c, 1, 69, 0
1, 4800, Note_on_c, 1, 59, 80
1, 4805, Note_on_c, 0, 83, 0
1, 4806, Note_on_c, 0, 81, 80
1, 4820, Note_on_c, 0, 81, 0
1, 4821, Note_on_c, 0, 83, 80
1, 4823, Note_on_c, 1, 59, 0
1, 4824, Note_on_c, 1, 62, 80
1, 4835, Note_on_c, 0, 83, 0
1, 4836, Note_on_c, 0, 81, 80
1, 4847, Note_on_c, 1, 62, 0
1, 4848, Note_on_c, 1, 64, 80
1, 4850, Note_on_c, 0, 81, 0
1, 4851, Note_on_c, 0, 83, 80
1, 4865, Note_on_c, 0, 83, 0
1, 4866, Note_on_c, 0, 81, 80
1, 4871, Note_on_c, 1, 64, 0
1, 4872, Note_on_c, 1, 69, 80
1, 4880, Note_on_c, 0, 81, 0
1, 4881, Note_on_c, 0, 83, 80
1, 4895, Note_on_c, 1, 69, 0
1, 4896, Note_on_c, 0, 83, 0
1, 4896, Note_on_c, 0, 81, 80
1, 4896, Note_on_c, 1, 61, 80
1, 4985, Note_on_c, 0, 81, 0
1, 4985, Note_on_c, 1, 61, 0
1, 4992, Note_on_c, 0, 69, 80
1, 5037, Note_on_c, 0, 69, 0
1, 5040, Note_on_c, 0, 71, 80
1, 5063, Note_on_c, 0, 71, 0
1, 5064, Note_on_c, 0, 73, 80
1, 5087, Note_on_c, 0, 73, 0
1, 5088, Note_on_c, 0, 74, 80
1, 5111, Note_on_c, 0, 74, 0
1, 5112, Note_on_c, 0, 76, 80
1, 5135, Note_on_c, 0, 76, 0
1, 5136, Note_on_c, 0, 78, 80
1, 5159, Note_on_c, 0, 78, 0
1, 5160, Note_on_c, 0, 80, 80
1, 5183, Note_on_c, 0, 80, 0
1, 5184, Note_on_c, 0, 83, 80
1, 5199, Note_on_c, 0, 83, 0
1, 5200, Note_on_c, 0, 81, 80
1, 5215, Note_on_c, 0, 81, 0
1, 5216, Note_on_c, 0, 83, 80
1, 5231, Note_on_c, 0, 83, 0
1, 5232, Note_on_c, 0, 81, 80
1, 5246, Note_on_c, 0, 81, 0
1, 5247, Note_on_c, 0, 83, 80
1, 5261, Note_on_c, 0, 83, 0
1, 5262, Note_on_c, 0, 81, 80
1, 5276, Note_on_c, 0, 81, 0
1, 5277, Note_on_c, 0, 83, 80
1, 5280, Note_on_c, 1, 57, 80
1, 5291, Note_on_c, 0, 83, 0
1, 5292, Note_on_c, 0, 81, 80
1, 5303, Note_on_c, 1, 57, 0
1, 5304, Note_on_c, 1, 61, 80
1, 5306, Note_on_c, 0, 81, 0
1, 5307, Note_on_c, 0, 83, 80
1, 5321, Note_on_c, 0, 83, 0
1, 5322, Note_on_c, 0, 81, 80
1, 5327, Note_on_c, 1, 61, 0
1, 5328, Note_on_c, 1, 64, 80
1, 5336, Note_on_c, 0, 81, 0
1, 5337, Note_on_c, 0, 83, 80
1, 5351, Note_on_c, 0, 83, 0
1, 5351, Note_on_c, 1, 64, 0
1, 5352, Note_on_c, 0, 81, 80
1, 5352, Note_on_c, 1, 69, 80
1, 5366, Note_on_c, 0, 81, 0
1, 5367, Note_on_c, 0, 83, 80
1, 5375, Note_on_c, 1, 69, 0
1, 5376, Note_on_c, 1, 59, 80
1, 5381, Note_on_c, 0, 83, 0
1, 5382, Note_on_c, 0, 81, 80
1, 5396, Note_on_c, 0, 81, 0
1, 5397, Note_on_c, 0, 83, 80
1, 5399, Note_on_c, 1, 59, 0
1, 5400, Note_on_c, 1, 62, 80
1, 5411, Note_on_c, 0, 83, 0
1, 5412, Note_on_c, 0, 81, 80
1, 5423, Note_on_c, 1, 62, 0
1, 5424, Note_on_c, 1, 64, 80
1, 5426, Note_on_c, 0, 81, 0
1, 5427, Note_on_c, 0, 83, 80
1, 5441, Note_on_c, 0, 83, 0
1, 5442, Note_on_c, 0, 81, 80
1, 5447, Note_on_c, 1, 64, 0
1, 5448, Note_on_c, 1, 69, 80
1, 5456, Note_on_c, 0, 81, 0
1, 5457, Note_on_c, 0, 83, 80
1, 5471, Note_on_c, 0, 83, 0
1, 5471, Note_on_c, 1, 69, 0
1, 5472, Note_on_c, 0, 81, 80
1, 5472, Note_on_c, 1, 61, 80
1, 5561, Note_on_c, 0, 81, 0
1, 5561, Note_on_c, 1, 61, 0
1, 5568, Note_on_c, 0, 69, 80
1, 5591, Note_on_c, 0, 69, 0
1, 5592, Note_on_c, 0, 71, 80
1, 5615, Note_on_c, 0, 71, 0
1, 5616, Note_on_c, 0, 73, 80
1, 5639, Note_on_c, 0, 73, 0
1, 5640, Note_on_c, 0, 74, 80
1, 5663, Note_on_c, 0, 74, 0
1, 5664, Note_on_c, 0, 76, 80
1, 5687, Note_on_c, 0, 76, 0
1, 5688, Note_on_c, 0, 78, 80
1, 5711, Note_on_c, 0, 78, 0
1, 5712, Note_on_c, 0, 79, 80
1, 5735, Note_on_c, 0, 79, 0
1, 5736, Note_on_c, 0, 81, 80
1, 5759, Note_on_c, 0, 81, 0
1, 5760, Note_on_c, 0, 78, 80
1, 5760, Note_on_c, 1, 62, 80
1, 5783, Note_on_c, 0, 78, 0
1, 5784, Note_on_c, 0, 74, 80
1, 5807, Note_on_c, 0, 74, 0
1, 5808, Note_on_c, 0, 73, 81
1, 5831, Note_on_c, 0, 73, 0
1, 5832, Note_on_c, 0, 74, 81
1, 5849, Note_on_c, 1, 62, 0
1, 5855, Note_on_c, 0, 74, 0
1, 5856, Note_on_c, 0, 81, 82
1, 5856, Note_on_c, 1, 66, 82
1, 5879, Note_on_c, 0, 81, 0
1, 5880, Note_on_c, 0, 78, 82
1, 5903, Note_on_c, 0, 78, 0
1, 5904, Note_on_c, 0, 76, 83
1, 5927, Note_on_c, 0, 76, 0
1, 5928, Note_on_c, 0, 74, 84
1, 5945, Note_on_c, 1, 66, 0
1, 5951, Note_on_c, 0, 74, 0
1, 5952, Note_on_c, 0, 83, 84
1, 5952, Note_on_c, 1, 67, 84
1, 5975, Note_on_c, 0, 83, 0
1, 5976, Note_on_c, 0, 79, 85
1, 5999, Note_on_c, 0, 79, 0
1, 6000, Note_on_c, 0, 78, 85
1, 6023, Note_on_c, 0, 78, 0
1, 6024, Note_on_c, 0, 76, 86
1, 6041, Note_on_c, 1, 67, 0
1, 6047, Note_on_c, 0, 76, 0
1, 6048, Note_on_c, 0, 74, 87
1, 6048, Note_on_c, 1, 69, 87
1, 6137, Note_on_c, 1, 69, 0
1, 6144, Note_on_c, 0, 74, 0
1, 6144, Note_on_c, 0, 73, 87
1, 6144, Note_on_c, 1, 64, 87
1, 6233, Note_on_c, 0, 73, 0
1, 6233, Note_on_c, 1, 64, 0
1, 6240, Note_on_c, 1, 57, 87
1, 6329, Note_on_c, 1, 57, 0
1, 6336, Note_on_c, 0, 57, 96
1, 6432, Note_on_c, 0, 57, 0
1, 6432, Note_on_c, 0, 62, 80
1, 6432, Note_on_c, 1, 54, 80
1, 6521, Note_on_c, 1, 54, 0
1, 6528, Note_on_c, 1, 50, 80
1, 6595, Note_on_c, 0, 62, 0
1, 6600, Note_on_c, 0, 66, 80
1, 6617, Note_on_c, 1, 50, 0
1, 6623, Note_on_c, 0, 66, 0
1, 6624, Note_on_c, 0, 66, 80
1, 6624, Note_on_c, 1, 52, 80
1, 6691, Note_on_c, 0, 66, 0
1, 6696, Note_on_c, 0, 67, 80
1, 6713, Note_on_c, 1, 52, 0
1, 6719, Note_on_c, 0, 67, 0
1, 6720, Note_on_c, 0, 62, 80
1, 6720, Note_on_c, 1, 57, 80
1, 6809, Note_on_c, 1, 57, 0
1, 6816, Note_on_c, 0, 62, 0
1, 6816, Note_on_c, 0, 61, 80
1, 6816, Note_on_c, 1, 55, 80
1, 6905, Note_on_c, 0, 61, 0
1, 6905, Note_on_c, 1, 55, 0
1, 6912, Note_on_c, 1, 54, 80
1, 6936, Note_on_c, 0, 62, 80
1, 6959, Note_on_c, 0, 62, 0
1, 6960, Note_on_c, 0, 64, 80
1, 6983, Note_on_c, 0, 64, 0
1, 6984, Note_on_c, 0, 66, 81
1, 7007, Note_on_c, 0, 66, 0
1, 7008, Note_on_c, 0, 67, 82
1, 7031, Note_on_c, 0, 67, 0
1, 7032, Note_on_c, 0, 69, 82
1, 7055, Note_on_c, 0, 69, 0
1, 7056, Note_on_c, 0, 71, 83
1, 7079, Note_on_c, 0, 71, 0
1, 7080, Note_on_c, 0, 73, 84
1, 7089, Note_on_c, 1, 54, 0
1, 7103, Note_on_c, 0, 73, 0
1, 7104, Note_on_c, 0, 74, 84
1, 7104, Note_on_c, 1, 50, 80
1, 7127, Note_on_c, 0, 74, 0
1, 7128, Note_on_c, 0, 76, 85
1, 7151, Note_on_c, 0, 76, 0
1, 7152, Note_on_c, 0, 78, 86
1, 7175, Note_on_c, 0, 78, 0
1, 7176, Note_on_c, 0, 74, 87
1, 7193, Note_on_c, 1, 50, 0
1, 7199, Note_on_c, 0, 74, 0
1, 7200, Note_on_c, 0, 69, 86
1, 7200, Note_on_c, 1, 52, 80
1, 7289, Note_on_c, 0, 69, 0
1, 7289, Note_on_c, 1, 52, 0
1, 7296, Note_on_c, 0, 67, 84
1, 7296, Note_on_c, 1, 61, 80
1, 7309, Note_on_c, 0, 67, 0
1, 7310, Note_on_c, 0, 69, 84
1, 7323, Note_on_c, 0, 69, 0
1, 7324, Note_on_c, 0, 67, 83
1, 7337, Note_on_c, 0, 67, 0
1, 7338, Note_on_c, 0, 69, 83
1, 7351, Note_on_c, 0, 69, 0
1, 7352, Note_on_c, 0, 67, 83
1, 7365, Note_on_c, 0, 67, 0
1, 7366, Note_on_c, 0, 66, 82
1, 7378, Note_on_c, 0, 66, 0
1, 7379, Note_on_c, 0, 67, 82
1, 7385, Note_on_c, 1, 61, 0
1, 7391, Note_on_c, 0, 67, 0
1, 7392, Note_on_c, 0, 66, 82
1, 7392, Note_on_c, 1, 62, 80
1, 7481, Note_on_c, 0, 66, 0
1, 7481, Note_on_c, 1, 62, 0
1, 7488, Note_on_c, 0, 79, 80
1, 7488, Note_on_c, 1, 59, 80
1, 7508, Note_on_c, 0, 79, 0
1, 7536, Note_on_c, 0, 79, 80
1, 7577, Note_on_c, 1, 59, 0
1, 7584, Note_on_c, 1, 61, 80
1, 7607, Note_on_c, 0, 79, 0
1, 7608, Note_on_c, 0, 83, 80
1, 7631, Note_on_c, 0, 83, 0
1, 7632, Note_on_c, 0, 81, 80
1, 7655, Note_on_c, 0, 81, 0
1, 7656, Note_on_c, 0, 79, 80
1, 7673, Note_on_c, 1, 61, 0
1, 7679, Note_on_c, 0, 79, 0
1, 7680, Note_on_c, 0, 79, 80
1, 7680, Note_on_c, 1, 62, 80
1, 7703, Note_on_c, 0, 79, 0
1, 7704, Note_on_c, 0, 78, 78
1, 7727, Note_on_c, 0, 78, 0
1, 7728, Note_on_c, 0, 76, 77
1, 7751, Note_on_c, 0, 76, 0
1, 7752, Note_on_c, 0, 74, 75
1, 7769, Note_on_c, 1, 62, 0
1, 7775, Note_on_c, 0, 74, 0
1, 7776, Note_on_c, 0, 79, 74
1, 7776, Note_on_c, 1, 59, 69
1, 7796, Note_on_c, 0, 79, 0
1, 7824, Note_on_c, 0, 79, 74
1, 7865, Note_on_c, 1, 59, 0
1, 7872, Note_on_c, 1, 61, 69
1, 7895, Note_on_c, 0, 79, 0
1, 7896, Note_on_c, 0, 83, 74
1, 7919, Note_on_c, 0, 83, 0
1, 7920, Note_on_c, 0, 81, 74
1, 7943, Note_on_c, 0, 81, 0
1, 7944, Note_on_c, 0, 79, 74
1, 7961, Note_on_c, 1, 61, 0
1, 7967, Note_on_c, 0, 79, 0
1, 7968, Note_on_c, 0, 79, 74
1, 7968, Note_on_c, 1, 62, 69
1, 7991, Note_on_c, 0, 79, 0
1, 7992, Note_on_c, 0, 78, 75
1, 8015, Note_on_c, 0, 78, 0
1, 8016, Note_on_c, 0, 76, 77
1, 8039, Note_on_c, 0, 76, 0
1, 8040, Note_on_c, 0, 74, 78
1, 8057, Note_on_c, 1, 62, 0
1, 8063, Note_on_c, 0, 74, 0
1, 8064, Note_on_c, 0, 73, 80
1, 8064, Note_on_c, 1, 55, 80
1, 8088, Note_on_c, 0, 73, 0
1, 8088, Note_on_c, 0, 74, 80
1, 8111, Note_on_c, 0, 74, 0
1, 8112, Note_on_c, 0, 71, 80
1, 8135, Note_on_c, 0, 71, 0
1, 8136, Note_on_c, 0, 67, 80
1, 8153, Note_on_c, 1, 55, 0
1, 8159, Note_on_c, 0, 67, 0
1, 8160, Note_on_c, 0, 66, 80
1, 8160, Note_on_c, 1, 57, 80
1, 8249, Note_on_c, 0, 66, 0
1, 8249, Note_on_c, 1, 57, 0
1, 8256, Note_on_c, 0, 64, 80
1, 8256, Note_on_c, 1, 45, 80
1, 8269, Note_on_c, 0, 64, 0
1, 8270, Note_on_c, 0, 66, 80
1, 8283, Note_on_c, 0, 66, 0
1, 8284, Note_on_c, 0, 64, 80
1, 8297, Note_on_c, 0, 64, 0
1, 8298, Note_on_c, 0, 66, 80
1, 8311, Note_on_c, 0, 66, 0
1, 8312, Note_on_c, 0, 64, 80
1, 8325, Note_on_c, 0, 64, 0
1, 8326, Note_on_c, 0, 62, 80
1, 8338, Note_on_c, 0, 62, 0
1, 8339, Note_on_c, 0, 64, 80
1, 8345, Note_on_c, 1, 45, 0
1, 8351, Note_on_c, 0, 64, 0
1, 8352, Note_on_c, 0, 62, 80
1, 8352, Note_on_c, 1, 50, 80
1, 8441, Note_on_c, 1, 50, 0
1, 8448, Note_on_c, 1, 45, 80
1, 8529, Note_on_c, 0, 62, 0
1, 8537, Note_on_c, 1, 45, 0
1, 8544, Note_on_c, 1, 38, 80
1, 8633, Note_on_c, 1, 38, 0
1, 8640, Note_on_c, 0, 83, 80
1, 8655, Note_on_c, 0, 83, 0
1, 8656, Note_on_c, 0, 81, 80
1, 8671, Note_on_c, 0, 81, 0
1, 8672, Note_on_c, 0, 83, 80
1, 8687, Note_on_c, 0, 83, 0
1, 8688, Note_on_c, 0, 81, 80
1, 8702, Note_on_c, 0, 81, 0
1, 8703, Note_on_c, 0, 83, 80
1, 8717, Note_on_c, 0, 83, 0
1, 8718, Note_on_c, 0, 81, 80
1, 8732, Note_on_c, 0, 81, 0
1, 8733, Note_on_c, 0, 83, 80
1, 8736, Note_on_c, 1, 57, 80
1, 8747, Note_on_c, 0, 83, 0
1, 8748, Note_on_c, 0, 81, 80
1, 8759, Note_on_c, 1, 57, 0
1, 8760, Note_on_c, 1, 61, 80
1, 8762, Note_on_c, 0, 81, 0
1, 8763, Note_on_c, 0, 83, 80
1, 8777, Note_on_c, 0, 83, 0
1, 8778, Note_on_c, 0, 81, 80
1, 8783, Note_on_c, 1, 61, 0
1, 8784, Note_on_c, 1, 64, 80
1, 8792, Note_on_c, 0, 81, 0
1, 8793, Note_on_c, 0, 83, 80
1, 8807, Note_on_c, 0, 83, 0
1, 8807, Note_on_c, 1, 64, 0
1, 8808, Note_on_c, 0, 81, 80
1, 8808, Note_on_c, 1, 69, 80
1, 8822, Note_on_c, 0, 81, 0
1, 8823, Note_on_c, 0, 83, 80
1, 8831, Note_on_c, 1, 69, 0
1, 8832, Note_on_c, 1, 59, 80
1, 8837, Note_on_c, 0, 83, 0
1, 8838, Note_on_c, 0, 81, 80
1, 8852, Note_on_c, 0, 81, 0
1, 8853, Note_on_c, 0, 83, 80
1, 8855, Note_on_c, 1, 59, 0
1, 8856, Note_on_c, 1, 62, 80
1, 8867, Note_on_c, 0, 83, 0
1, 8868, Note_on_c, 0, 81, 80
1, 8879, Note_on_c, 1, 62, 0
1, 8880, Note_on_c, 1, 64, 80
1, 8882, Note_on_c, 0, 81, 0
1, 8883, Note_on_c, 0, 83, 80
1, 8897, Note_on_c, 0, 83, 0
1, 8898, Note_on_c, 0, 81, 80
1, 8903, Note_on_c, 1, 64, 0
1, 8904, Note_on_c, 1, 69, 80
1, 8912, Note_on_c, 0, 81, 0
1, 8913, Note_on_c, 0, 83, 80
1, 8927, Note_on_c, 1, 69, 0
1, 8928, Note_on_c, 0, 83, 0
1, 8928, Note_on_c, 0, 81, 80
1, 8928, Note_on_c, 1, 61, 80
1, 9017, Note_on_c, 0, 81, 0
1, 9017, Note_on_c, 1, 61, 0
1, 9024, Note_on_c, 0, 69, 80
1, 9069, Note_on_c, 0, 69, 0
1, 9072, Note_on_c, 0, 71, 80
1, 9095, Note_on_c, 0, 71, 0
1, 9096, Note_on_c, 0, 73, 80
1, 9119, Note_on_c, 0, 73, 0
1, 9120, Note_on_c, 0, 74, 80
1, 9143, Note_on_c, 0, 74, 0
1, 9144, Note_on_c, 0, 76, 80
1, 9167, Note_on_c, 0, 76, 0
1, 9168, Note_on_c, 0, 78, 80
1, 9191, Note_on_c, 0, 78, 0
1, 9192, Note_on_c, 0, 80, 80
1, 9215, Note_on_c, 0, 80, 0
1, 9216, Note_on_c, 0, 83, 80
1, 9231, Note_on_c, 0, 83, 0
1, 9232, Note_on_c, 0, 81, 80
1, 9247, Note_on_c, 0, 81, 0
1, 9248, Note_on_c, 0, 83, 80
1, 9263, Note_on_c, 0, 83, 0
1, 9264, Note_on_c, 0, 81, 80
1, 9278, Note_on_c, 0, 81, 0
1, 9279, Note_on_c, 0, 83, 80
1, 9293, Note_on_c, 0, 83, 0
1, 9294, Note_on_c, 0, 81, 80
1, 9308, Note_on_c, 0, 81, 0
1, 9309, Note_on_c, 0, 83, 80
1, 9312, Note_on_c, 1, 57, 80
1, 9323, Note_on_c, 0, 83, 0
1, 9324, Note_on_c, 0, 81, 80
1, 9335, Note_on_c, 1, 57, 0
1, 9336, Note_on_c, 1, 61, 80
1, 9338, Note_on_c, 0, 81, 0
1, 9339, Note_on_c, 0, 83, 80
1, 9353, Note_on_c, 0, 83, 0
1, 9354, Note_on_c, 0, 81, 80
1, 9359, Note_on_c, 1, 61, 0
1, 9360, Note_on_c, 1, 64, 80
1, 9368, Note_on_c, 0, 81, 0
1, 9369, Note_on_c, 0, 83, 80
1, 9383, Note_on_c, 0, 83, 0
1, 9383, Note_on_c, 1, 64, 0
1, 9384, Note_on_c, 0, 81, 80
1, 9384, Note_on_c, 1, 69, 80
1, 9398, Note_on_c, 0, 81, 0
1, 9399, Note_on_c, 0, 83, 80
1, 9407, Note_on_c, 1, 69, 0
1, 9408, Note_on_c, 1, 59, 80
1, 9413, Note_on_c, 0, 83, 0
1, 9414, Note_on_c, 0, 81, 80
1, 9428, Note_on_c, 0, 81, 0
1, 9429, Note_on_c, 0, 83, 80
1, 9431, Note_on_c, 1, 59, 0
1, 9432, Note_on_c, 1, 62, 80
1, 9443, Note_on_c, 0, 83, 0
1, 9444, Note_on_c, 0, 81, 80
1, 9455, Note_on_c, 1, 62, 0
1, 9456, Note_on_c, 1, 64, 80
1, 9458, Note_on_c, 0, 81, 0
1, 9459, Note_on_c, 0, 83, 80
1, 9473, Note_on_c, 0, 83, 0
1, 9474, Note_on_c, 0, 81, 80
1, 9479, Note_on_c, 1, 64, 0
1, 9480, Note_on_c, 1, 69, 80
1, 9488, Note_on_c, 0, 81, 0
1, 9489, Note_on_c, 0, 83, 80
1, 9503, Note_on_c, 0, 83, 0
1, 9503, Note_on_c, 1, 69, 0
1, 9504, Note_on_c, 0, 81, 80
1, 9504, Note_on_c, 1, 61, 80
1, 9593, Note_on_c, 0, 81, 0
1, 9593, Note_on_c, 1, 61, 0
1, 9600, Note_on_c, 0, 69, 80
1, 9623, Note_on_c, 0, 69, 0
1, 9624, Note_on_c, 0, 71, 80
1, 9647, Note_on_c, 0, 71, 0
1, 9648, Note_on_c, 0, 73, 80
1, 9671, Note_on_c, 0, 73, 0
1, 9672, Note_on_c, 0, 74, 80
1, 9695, Note_on_c, 0, 74, 0
1, 9696, Note_on_c, 0, 76, 80
1, 9719, Note_on_c, 0, 76, 0
1, 9720, Note_on_c, 0, 78, 80
1, 9743, Note_on_c, 0, 78, 0
1, 9744, Note_on_c, 0, 79, 80
1, 9767, Note_on_c, 0, 79, 0
1, 9768, Note_on_c, 0, 81, 80
1, 9791, Note_on_c, 0, 81, 0
1, 9792, Note_on_c, 0, 78, 80
1, 9792, Note_on_c, 1, 62, 80
1, 9815, Note_on_c, 0, 78, 0
1, 9816, Note_on_c, 0, 74, 80
1, 9839, Note_on_c, 0, 74, 0
1, 9840, Note_on_c, 0, 73, 81
1, 9863, Note_on_c, 0, 73, 0
1, 9864, Note_on_c, 0, 74, 81
1, 9881, Note_on_c, 1, 62, 0
1, 9887, Note_on_c, 0, 74, 0
1, 9888, Note_on_c, 0, 81, 82
1, 9888, Note_on_c, 1, 66, 82
1, 9911, Note_on_c, 0, 81, 0
1, 9912, Note_on_c, 0, 78, 82
1, 9935, Note_on_c, 0, 78, 0
1, 9936, Note_on_c, 0, 76, 83
1, 9959, Note_on_c, 0, 76, 0
1, 9960, Note_on_c, 0, 74, 84
1, 9977, Note_on_c, 1, 66, 0
1, 9983, Note_on_c, 0, 74, 0
1, 9984, Note_on_c, 0, 83, 84
1, 9984, Note_on_c, 1, 67, 84
1, 10007, Note_on_c, 0, 83, 0
1, 10008, Note_on_c, 0, 79, 85
1, 10031, Note_on_c, 0, 79, 0
1, 10032, Note_on_c, 0, 78, 85
1, 10055, Note_on_c, 0, 78, 0
1, 10056, Note_on_c, 0, 76, 86
1, 10073, Note_on_c, 1, 67, 0
1, 10079, Note_on_c, 0, 76, 0
1, 10080, Note_on_c, 0, 74, 87
1, 10080, Note_on_c, 1, 69, 87
1, 10169, Note_on_c, 1, 69, 0
1, 10176, Note_on_c, 0, 74, 0
1, 10176, Note_on_c, 0, 73, 87
1, 10176, Note_on_c, 1, 64, 87
1, 10265, Note_on_c, 0, 73, 0
1, 10265, Note_on_c, 1, 64, 0
1, 10272, Note_on_c, 1, 57, 87
1, 10361, Note_on_c, 1, 57, 0
1, 10368, Note_on_c, 0, 57, 96
1, 10464, Note_on_c, 0, 57, 0
1, 10464, Note_on_c, 0, 62, 80
1, 10464, Note_on_c, 1, 54, 80
1, 10553, Note_on_c, 1, 54, 0
1, 10560, Note_on_c, 1, 50, 80
1, 10627, Note_on_c, 0, 62, 0
1, 10632, Note_on_c, 0, 66, 80
1, 10649, Note_on_c, 1, 50, 0
1, 10655, Note_on_c, 0, 66, 0
1, 10656, Note_on_c, 0, 66, 80
1, 10656, Note_on_c, 1, 52, 80
1, 10723, Note_on_c, 0, 66, 0
1, 10728, Note_on_c, 0, 67, 80
1, 10745, Note_on_c, 1, 52, 0
1, 10751, Note_on_c, 0, 67, 0
1, 10752, Note_on_c, 0, 62, 80
1, 10752, Note_on_c, 1, 57, 80
1, 10841, Note_on_c, 1, 57, 0
1, 10848, Note_on_c, 0, 62, 0
1, 10848, Note_on_c, 0, 61, 80
1, 10848, Note_on_c, 1, 55, 80
1, 10937, Note_on_c, 0, 61, 0
1, 10937, Note_on_c, 1, 55, 0
1, 10944, Note_on_c, 1, 54, 80
1, 10968, Note_on_c, 0, 62, 80
1, 10991, Note_on_c, 0, 62, 0
1, 10992, Note_on_c, 0, 64, 80
1, 11015, Note_on_c, 0, 64, 0
1, 11016, Note_on_c, 0, 66, 81
1, 11039, Note_on_c, 0, 66, 0
1, 11040, Note_on_c, 0, 67, 82
1, 11063, Note_on_c, 0, 67, 0
1, 11064, Note_on_c, 0, 69, 82
1, 11087, Note_on_c, 0, 69, 0
1, 11088, Note_on_c, 0, 71, 83
1, 11111, Note_on_c, 0, 71, 0
1, 11112, Note_on_c, 0, 73, 84
1, 11121, Note_on_c, 1, 54, 0
1, 11135, Note_on_c, 0, 73, 0
1, 11136, Note_on_c, 0, 74, 84
1, 11136, Note_on_c, 1, 50, 80
1, 11159, Note_on_c, 0, 74, 0
1, 11160, Note_on_c, 0, 76, 85
1, 11183, Note_on_c, 0, 76, 0
1, 11184, Note_on_c, 0, 78, 86
1, 11207, Note_on_c, 0, 78, 0
1, 11208, Note_on_c, 0, 74, 87
1, 11225, Note_on_c, 1, 50, 0
1, 11231, Note_on_c, 0, 74, 0
1, 11232, Note_on_c, 0, 69, 86
1, 11232, Note_on_c, 1, 52, 80
1, 11321, Note_on_c, 0, 69, 0
1, 11321, Note_on_c, 1, 52, 0
1, 11328, Note_on_c, 0, 67, 84
1, 11328, Note_on_c, 1, 61, 80
1, 11341, Note_on_c, 0, 67, 0
1, 11342, Note_on_c, 0, 69, 84
1, 11355, Note_on_c, 0, 69, 0
1, 11356, Note_on_c, 0, 67, 83
1, 11369, Note_on_c, 0, 67, 0
1, 11370, Note_on_c, 0, 69, 83
1, 11383, Note_on_c, 0, 69, 0
1, 11384, Note_on_c, 0, 67, 83
1, 11397, Note_on_c, 0, 67, 0
1, 11398, Note_on_c, 0, 66, 82
1, 11410, Note_on_c, 0, 66, 0
1, 11411, Note_on_c, 0, 67, 82
1, 11417, Note_on_c, 1, 61, 0
1, 11423, Note_on_c, 0, 67, 0
1, 11424, Note_on_c, 0, 66, 82
1, 11424, Note_on_c, 1, 62, 80
1, 11513, Note_on_c, 0, 66, 0
1, 11513, Note_on_c, 1, 62, 0
1, 11520, Note_on_c, 0, 79, 80
1, 11520, Note_on_c, 1, 59, 80
1, 11540, Note_on_c, 0, 79, 0
1, 11568, Note_on_c, 0, 79, 80
1, 11609, Note_on_c, 1, 59, 0
1, 11616, Note_on_c, 1, 61, 80
1, 11639, Note_on_c, 0, 79, 0
1, 11640, Note_on_c, 0, 83, 80
1, 11663, Note_on_c, 0, 83, 0
1, 11664, Note_on_c, 0, 81, 80
1, 11687, Note_on_c, 0, 81, 0
1, 11688, Note_on_c, 0, 79, 80
1, 11705, Note_on_c, 1, 61, 0
1, 11711, Note_on_c, 0, 79, 0
1, 11712, Note_on_c, 0, 79, 80
1, 11712, Note_on_c, 1, 62, 80
1, 11735, Note_on_c, 0, 79, 0
1, 11736, Note_on_c, 0, 78, 78
1, 11759, Note_on_c, 0, 78, 0
1, 11760, Note_on_c, 0, 76, 77
1, 11783, Note_on_c, 0, 76, 0
1, 11784, Note_on_c, 0, 74, 75
1, 11801, Note_on_c, 1, 62, 0
1, 11807, Note_on_c, 0, 74, 0
1, 11808, Note_on_c, 0, 79, 74
1, 11808, Note_on_c, 1, 59, 69
1, 11828, Note_on_c, 0, 79, 0
1, 11856, Note_on_c, 0, 79, 74
1, 11897, Note_on_c, 1, 59, 0
1, 11904, Note_on_c, 1, 61, 69
1, 11927, Note_on_c, 0, 79, 0
1, 11928, Note_on_c, 0, 83, 74
1, 11951, Note_on_c, 0, 83, 0
1, 11952, Note_on_c, 0, 81, 74
1, 11975, Note_on_c, 0, 81, 0
1, 11976, Note_on_c, 0, 79, 74
1, 11993, Note_on_c, 1, 61, 0
1, 11999, Note_on_c, 0, 79, 0
1, 12000, Note_on_c, 0, 79, 74
1, 12000, Note_on_c, 1, 62, 69
1, 12023, Note_on_c, 0, 79, 0
1, 12024, Note_on_c, 0, 78, 75
1, 12047, Note_on_c, 0, 78, 0
1, 12048, Note_on_c, 0, 76, 77
1, 12071, Note_on_c, 0, 76, 0
1, 12072, Note_on_c, 0, 74, 78
1, 12089, Note_on_c, 1, 62, 0
1, 12095, Note_on_c, 0, 74, 0
1, 12096, Note_on_c, 0, 73, 80
1, 12096, Note_on_c, 1, 55, 80
1, 12120, Note_on_c, 0, 73, 0
1, 12120, Note_on_c, 0, 74, 80
1, 12143, Note_on_c, 0, 74, 0
1, 12144, Note_on_c, 0, 71, 80
1, 12167, Note_on_c, 0, 71, 0
1, 12168, Note_on_c, 0, 67, 80
1, 12185, Note_on_c, 1, 55, 0
1, 12191, Note_on_c, 0, 67, 0
1, 12192, Note_on_c, 0, 66, 80
1, 12192, Note_on_c, 1, 57, 80
1, 12281, Note_on_c, 0, 66, 0
1, 12281, Note_on_c, 1, 57, 0
1, 12288, Note_on_c, 0, 64, 80
1, 12288, Note_on_c, 1, 45, 80
1, 12301, Note_on_c, 0, 64, 0
1, 12302, Note_on_c, 0, 66, 80
1, 12315, Note_on_c, 0, 66, 0
1, 12316, Note_on_c, 0, 64, 80
1, 12329, Note_on_c, 0, 64, 0
1, 12330, Note_on_c, 0, 66, 80
1, 12343, Note_on_c, 0, 66, 0
1, 12344, Note_on_c, 0, 64, 80
1, 12357, Note_on_c, 0, 64, 0
1, 12358, Note_on_c, 0, 62, 80
1, 12370, Note_on_c, 0, 62, 0
1, 12371, Note_on_c, 0, 64, 80
1, 12377, Note_on_c, 1, 45, 0
1, 12383, Note_on_c, 0, 64, 0
1, 12384, Note_on_c, 0, 62, 80
1, 12384, Note_on_c, 1, 50, 80
1, 12473, Note_on_c, 1, 50, 0
1, 12480, Note_on_c, 1, 45, 80
1, 12561, Note_on_c, 0, 62, 0
1, 12569, Note_on_c, 1, 45, 0
1, 12576, Note_on_c, 1, 38, 80
1, 12665, Note_on_c, 1, 38, 0
1, 12672, Note_on_c, 1, 62, 69
1, 12720, Note_on_c, 0, 74, 69
1, 12720, Note_on_c, 1, 65, 69
1, 12765, Note_on_c, 0, 74, 0
1, 12765, Note_on_c, 1, 65, 0
1, 12768, Note_on_c, 0, 77, 69
1, 12768, Note_on_c, 1, 69, 69
1, 12813, Note_on_c, 0, 77, 0
1, 12813, Note_on_c, 1, 69, 0
1, 12816, Note_on_c, 0, 76, 69
1, 12816, Note_on_c, 1, 67, 69
1, 12861, Note_on_c, 0, 76, 0
1, 12861, Note_on_c, 1, 67, 0
1, 12864, Note_on_c, 0, 74, 69
1, 12864, Note_on_c, 1, 65, 69
1, 12909, Note_on_c, 0, 74, 0
1, 12909, Note_on_c, 1, 65, 0
1, 12912, Note_on_c, 0, 73, 69
1, 12912, Note_on_c, 1, 64, 69
1, 12957, Note_on_c, 0, 73, 0
1, 12957, Note_on_c, 1, 64, 0
1, 12960, Note_on_c, 0, 74, 69
1, 12960, Note_on_c, 1, 65, 69
1, 13005, Note_on_c, 0, 74, 0
1, 13008, Note_on_c, 0, 69, 69
1, 13049, Note_on_c, 1, 65, 0
1, 13049, Note_on_c, 1, 62, 0
1, 13053, Note_on_c, 0, 69, 0
1, 13056, Note_on_c, 0, 70, 69
1, 13056, Note_on_c, 1, 67, 69
1, 13056, Note_on_c, 1, 62, 69
1, 13069, Note_on_c, 0, 70, 0
1, 13070, Note_on_c, 0, 72, 69
1, 13083, Note_on_c, 0, 72, 0
1, 13084, Note_on_c, 0, 70, 69
1, 13097, Note_on_c, 0, 70, 0
1, 13098, Note_on_c, 0, 72, 69
1, 13111, Note_on_c, 0, 72, 0
1, 13112, Note_on_c, 0, 70, 69
1, 13125, Note_on_c, 0, 70, 0
1, 13126, Note_on_c, 0, 69, 69
1, 13138, Note_on_c, 0, 69, 0
1, 13139, Note_on_c, 0, 70, 69
1, 13145, Note_on_c, 1, 67, 0
1, 13151, Note_on_c, 0, 70, 0
1, 13152, Note_on_c, 0, 69, 69
1, 13152, Note_on_c, 1, 65, 69
1, 13233, Note_on_c, 1, 62, 0
1, 13241, Note_on_c, 0, 69, 0
1, 13241, Note_on_c, 1, 65, 0
1, 13248, Note_on_c, 0, 76, 85
1, 13248, Note_on_c, 0, 67, 85
1, 13296, Note_on_c, 1, 62, 69
1, 13344, Note_on_c, 1, 62, 0
1, 13344, Note_on_c, 1, 64, 69
1, 13389, Note_on_c, 1, 64, 0
1, 13392, Note_on_c, 1, 62, 69
1, 13437, Note_on_c, 1, 62, 0
1, 13440, Note_on_c, 1, 61, 70
1, 13485, Note_on_c, 1, 61, 0
1, 13488, Note_on_c, 1, 57, 70
1, 13533, Note_on_c, 1, 57, 0
1, 13536, Note_on_c, 0, 76, 0
1, 13536, Note_on_c, 0, 67, 0
1, 13536, Note_on_c, 0, 74, 86
1, 13536, Note_on_c, 0, 65, 86
1, 13584, Note_on_c, 1, 61, 70
1, 13632, Note_on_c, 1, 61, 0
1, 13632, Note_on_c, 1, 62, 71
1, 13677, Note_on_c, 1, 62, 0
1, 13680, Note_on_c, 1, 60, 71
1, 13725, Note_on_c, 1, 60, 0
1, 13728, Note_on_c, 1, 58, 71
1, 13773, Note_on_c, 1, 58, 0
1, 13776, Note_on_c, 1, 57, 72
1, 13821, Note_on_c, 1, 57, 0
1, 13824, Note_on_c, 0, 74, 0
1, 13824, Note_on_c, 0, 65, 0
1, 13824, Note_on_c, 1, 55, 72
1, 13872, Note_on_c, 0, 79, 72
1, 13872, Note_on_c, 0, 76, 72
1, 13913, Note_on_c, 1, 55, 0
1, 13917, Note_on_c, 0, 79, 0
1, 13917, Note_on_c, 0, 76, 0
1, 13920, Note_on_c, 1, 57, 72
1, 13968, Note_on_c, 0, 77, 73
1, 13968, Note_on_c, 0, 74, 73
1, 14009, Note_on_c, 1, 57, 0
1, 14013, Note_on_c, 0, 77, 0
1, 14013, Note_on_c, 0, 74, 0
1, 14016, Note_on_c, 1, 45, 73
1, 14064, Note_on_c, 0, 73, 73
1, 14064, Note_on_c, 0, 64, 73
1, 14105, Note_on_c, 1, 45, 0
1, 14109, Note_on_c, 0, 73, 0
1, 14109, Note_on_c, 0, 64, 0
1, 14112, Note_on_c, 0, 73, 74
1, 14112, Note_on_c, 0, 64, 74
1, 14112, Note_on_c, 1, 50, 74
1, 14201, Note_on_c, 1, 50, 0
1, 14208, Note_on_c, 0, 73, 0
1, 14208, Note_on_c, 0, 64, 0
1, 14208, Note_on_c, 0, 74, 74
1, 14208, Note_on_c, 0, 65, 74
1, 14208, Note_on_c, 1, 45, 74
1, 14297, Note_on_c, 0, 74, 0
1, 14297, Note_on_c, 0, 65, 0
1, 14297, Note_on_c, 1, 45, 0
1, 14304, Note_on_c, 1, 38, 74
1, 14393, Note_on_c, 1, 38, 0
1, 14400, Note_on_c, 1, 65, 80
1, 14448, Note_on_c, 0, 77, 80
1, 14448, Note_on_c, 1, 69, 80
1, 14493, Note_on_c, 0, 77, 0
1, 14493, Note_on_c, 1, 69, 0
1, 14496, Note_on_c, 0, 79, 80
1, 14496, Note_on_c, 1, 70, 80
1, 14541, Note_on_c, 0, 79, 0
1, 14541, Note_on_c, 1, 70, 0
1, 14544, Note_on_c, 0, 77, 80
1, 14544, Note_on_c, 1, 69, 80
1, 14589, Note_on_c, 0, 77, 0
1, 14589, Note_on_c, 1, 69, 0
1, 14592, Note_on_c, 0, 76, 80
1, 14592, Note_on_c, 1, 67, 80
1, 14637, Note_on_c, 0, 76, 0
1, 14637, Note_on_c, 1, 67, 0
1, 14640, Note_on_c, 0, 77, 80
1, 14640, Note_on_c, 1, 69, 80
1, 14685, Note_on_c, 0, 77, 0
1, 14685, Note_on_c, 1, 69, 0
1, 14688, Note_on_c, 1, 74, 80
1, 14736, Note_on_c, 0, 82, 80
1, 14777, Note_on_c, 1, 74, 0
1, 14784, Note_on_c, 1, 70, 80
1, 14825, Note_on_c, 0, 82, 0
1, 14832, Note_on_c, 0, 79, 80
1, 14873, Note_on_c, 1, 70, 0
1, 14880, Note_on_c, 1, 67, 80
1, 14921, Note_on_c, 0, 79, 0
1, 14928, Note_on_c, 0, 76, 80
1, 14953, Note_on_c, 1, 65, 0
1, 14969, Note_on_c, 1, 67, 0
1, 14973, Note_on_c, 0, 76, 0
1, 14976, Note_on_c, 1, 65, 80
1, 15024, Note_on_c, 0, 77, 80
1, 15024, Note_on_c, 1, 69, 80
1, 15069, Note_on_c, 0, 77, 0
1, 15069, Note_on_c, 1, 69, 0
1, 15072, Note_on_c, 0, 79, 80
1, 15072, Note_on_c, 1, 70, 80
1, 15117, Note_on_c, 0, 79, 0
1, 15117, Note_on_c, 1, 70, 0
1, 15120, Note_on_c, 0, 77, 80
1, 15120, Note_on_c, 1, 69, 80
1, 15165, Note_on_c, 0, 77, 0
1, 15165, Note_on_c, 1, 69, 0
1, 15168, Note_on_c, 0, 76, 80
1, 15168, Note_on_c, 1, 67, 80
1, 15213, Note_on_c, 0, 76, 0
1, 15213, Note_on_c, 1, 67, 0
1, 15216, Note_on_c, 0, 77, 80
1, 15216, Note_on_c, 1, 69, 80
1, 15261, Note_on_c, 0, 77, 0
1, 15261, Note_on_c, 1, 69, 0
1, 15264, Note_on_c, 1, 74, 80
1, 15312, Note_on_c, 0, 82, 80
1, 15353, Note_on_c, 1, 74, 0
1, 15360, Note_on_c, 1, 70, 80
1, 15401, Note_on_c, 0, 82, 0
1, 15408, Note_on_c, 0, 79, 80
1, 15449, Note_on_c, 1, 70, 0
1, 15456, Note_on_c, 1, 67, 80
1, 15497, Note_on_c, 0, 79, 0
1, 15504, Note_on_c, 0, 76, 80
1, 15529, Note_on_c, 1, 65, 0
1, 15545, Note_on_c, 1, 67, 0
1, 15549, Note_on_c, 0, 76, 0
1, 15552, Note_on_c, 0, 77, 80
1, 15552, Note_on_c, 1, 69, 80
1, 15552, Note_on_c, 1, 65, 80
1, 15572, Note_on_c, 0, 77, 0
1, 15600, Note_on_c, 0, 84, 80
1, 15641, Note_on_c, 1, 69, 0
1, 15641, Note_on_c, 1, 65, 0
1, 15645, Note_on_c, 0, 84, 0
1, 15648, Note_on_c, 0, 77, 80
1, 15661, Note_on_c, 0, 77, 0
1, 15662, Note_on_c, 0, 75, 80
1, 15675, Note_on_c, 0, 75, 0
1, 15676, Note_on_c, 0, 77, 80
1, 15689, Note_on_c, 0, 77, 0
1, 15690, Note_on_c, 0, 75, 80
1, 15696, Note_on_c, 1, 57, 80
1, 15696, Note_on_c, 1, 53, 80
1, 15703, Note_on_c, 0, 75, 0
1, 15704, Note_on_c, 0, 77, 80
1, 15717, Note_on_c, 0, 77, 0
1, 15718, Note_on_c, 0, 75, 80
1, 15731, Note_on_c, 0, 75, 0
1, 15732, Note_on_c, 0, 77, 80
1, 15741, Note_on_c, 1, 57, 0
1, 15741, Note_on_c, 1, 53, 0
1, 15744, Note_on_c, 1, 58, 80
1, 15744, Note_on_c, 1, 55, 80
1, 15745, Note_on_c, 0, 77, 0
1, 15746, Note_on_c, 0, 75, 80
1, 15759, Note_on_c, 0, 75, 0
1, 15760, Note_on_c, 0, 77, 80
1, 15773, Note_on_c, 0, 77, 0
1, 15774, Note_on_c, 0, 75, 80
1, 15787, Note_on_c, 0, 75, 0
1, 15788, Note_on_c, 0, 77, 80
1, 15789, Note_on_c, 1, 58, 0
1, 15789, Note_on_c, 1, 55, 0
1, 15792, Note_on_c, 1, 60, 80
1, 15792, Note_on_c, 1, 57, 80
1, 15800, Note_on_c, 0, 77, 0
1, 15801, Note_on_c, 0, 75, 80
1, 15813, Note_on_c, 0, 75, 0
1, 15814, Note_on_c, 0, 74, 80
1, 15826, Note_on_c, 0, 74, 0
1, 15827, Note_on_c, 0, 75, 80
1, 15837, Note_on_c, 1, 60, 0
1, 15837, Note_on_c, 1, 57, 0
1, 15839, Note_on_c, 0, 75, 0
1, 15840, Note_on_c, 0, 74, 80
1, 15840, Note_on_c, 1, 62, 80
1, 15840, Note_on_c, 1, 58, 80
1, 15885, Note_on_c, 0, 74, 0
1, 15888, Note_on_c, 0, 86, 80
1, 15888, Note_on_c, 0, 82, 80
1, 15929, Note_on_c, 1, 62, 0
1, 15929, Note_on_c, 1, 58, 0
1, 15933, Note_on_c, 0, 86, 0
1, 15933, Note_on_c, 0, 82, 0
1, 15936, Note_on_c, 0, 84, 80
1, 15936, Note_on_c, 0, 81, 80
1, 15936, Note_on_c, 1, 60, 80
1, 15981, Note_on_c, 0, 84, 0
1, 15981, Note_on_c, 0, 81, 0
1, 15984, Note_on_c, 0, 82, 81
1, 15984, Note_on_c, 0, 79, 81
1, 16025, Note_on_c, 1, 60, 0
1, 16029, Note_on_c, 0, 82, 0
1, 16029, Note_on_c, 0, 79, 0
1, 16032, Note_on_c, 0, 81, 83
1, 16032, Note_on_c, 0, 77, 83
1, 16032, Note_on_c, 1, 48, 80
1, 16077, Note_on_c, 0, 81, 0
1, 16077, Note_on_c, 0, 77, 0
1, 16080, Note_on_c, 0, 79, 85
1, 16080, Note_on_c, 0, 76, 85
1, 16121, Note_on_c, 1, 48, 0
1, 16125, Note_on_c, 0, 79, 0
1, 16125, Note_on_c, 0, 76, 0
1, 16128, Note_on_c, 0, 77, 87
1, 16128, Note_on_c, 1, 53, 87
1, 16148, Note_on_c, 0, 77, 0
1, 16176, Note_on_c, 0, 84, 87
1, 16217, Note_on_c, 1, 53, 0
1, 16221, Note_on_c, 0, 84, 0
1, 16224, Note_on_c, 0, 77, 87
1, 16237, Note_on_c, 0, 77, 0
1, 16238, Note_on_c, 0, 75, 87
1, 16251, Note_on_c, 0, 75, 0
1, 16252, Note_on_c, 0, 77, 87
1, 16265, Note_on_c, 0, 77, 0
1, 16266, Note_on_c, 0, 75, 87
1, 16272, Note_on_c, 1, 57, 87
1, 16272, Note_on_c, 1, 53, 87
1, 16279, Note_on_c, 0, 75, 0
1, 16280, Note_on_c, 0, 77, 87
1, 16293, Note_on_c, 0, 77, 0
1, 16294, Note_on_c, 0, 75, 87
1, 16307, Note_on_c, 0, 75, 0
1, 16308, Note_on_c, 0, 77, 87
1, 16317, Note_on_c, 1, 57, 0
1, 16317, Note_on_c, 1, 53, 0
1, 16320, Note_on_c, 1, 58, 87
1, 16320, Note_on_c, 1, 55, 87
1, 16321, Note_on_c, 0, 77, 0
1, 16322, Note_on_c, 0, 75, 87
1, 16335, Note_on_c, 0, 75, 0
1, 16336, Note_on_c, 0, 77, 87
1, 16349, Note_on_c, 0, 77, 0
1, 16350, Note_on_c, 0, 75, 87
1, 16363, Note_on_c, 0, 75, 0
1, 16364, Note_on_c, 0, 77, 87
1, 16365, Note_on_c, 1, 58, 0
1, 16365, Note_on_c, 1, 55, 0
1, 16368, Note_on_c, 1, 60, 87
1, 16368, Note_on_c, 1, 57, 87
1, 16376, Note_on_c, 0, 77, 0
1, 16377, Note_on_c, 0, 75, 87
1, 16389, Note_on_c, 0, 75, 0
1, 16390, Note_on_c, 0, 74, 87
1, 16402, Note_on_c, 0, 74, 0
1, 16403, Note_on_c, 0, 75, 87
1, 16413, Note_on_c, 1, 60, 0
1, 16413, Note_on_c, 1, 57, 0
1, 16415, Note_on_c, 0, 75, 0
1, 16416, Note_on_c, 0, 74, 87
1, 16416, Note_on_c, 1, 62, 87
1, 16416, Note_on_c, 1, 58, 87
1, 16461, Note_on_c, 0, 74, 0
1, 16464, Note_on_c, 0, 86, 87
1, 16464, Note_on_c, 0, 82, 87
1, 16505, Note_on_c, 1, 62, 0
1, 16505, Note_on_c, 1, 58, 0
1, 16509, Note_on_c, 0, 86, 0
1, 16509, Note_on_c, 0, 82, 0
1, 16512, Note_on_c, 0, 84, 87
1, 16512, Note_on_c, 0, 81, 87
1, 16512, Note_on_c, 1, 60, 87
1, 16557, Note_on_c, 0, 84, 0
1, 16557, Note_on_c, 0, 81, 0
1, 16560, Note_on_c, 0, 82, 87
1, 16560, Note_on_c, 0, 79, 87
1, 16601, Note_on_c, 1, 60, 0
1, 16605, Note_on_c, 0, 82, 0
1, 16605, Note_on_c, 0, 79, 0
1, 16608, Note_on_c, 0, 81, 87
1, 16608, Note_on_c, 0, 77, 87
1, 16608, Note_on_c, 1, 48, 87
1, 16653, Note_on_c, 0, 81, 0
1, 16653, Note_on_c, 0, 77, 0
1, 16656, Note_on_c, 0, 79, 87
1, 16656, Note_on_c, 0, 76, 87
1, 16697, Note_on_c, 1, 48, 0
1, 16701, Note_on_c, 0, 79, 0
1, 16701, Note_on_c, 0, 76, 0
1, 16704, Note_on_c, 0, 79, 87
1, 16704, Note_on_c, 1, 53, 87
1, 16716, Note_on_c, 0, 79, 0
1, 16716, Note_on_c, 0, 77, 87
1, 16728, Note_on_c, 0, 77, 0
1, 16728, Note_on_c, 0, 76, 87
1, 16740, Note_on_c, 0, 76, 0
1, 16740, Note_on_c, 0, 77, 87
1, 16793, Note_on_c, 1, 53, 0
1, 16800, Note_on_c, 1, 48, 87
1, 16881, Note_on_c, 0, 77, 0
1, 16889, Note_on_c, 1, 48, 0
1, 16896, Note_on_c, 1, 41, 87
1, 16985, Note_on_c, 1, 41, 0
1, 16992, Note_on_c, 1, 62, 69
1, 17040, Note_on_c, 0, 74, 69
1, 17040, Note_on_c, 1, 65, 69
1, 17085, Note_on_c, 0, 74, 0
1, 17085, Note_on_c, 1, 65, 0
1, 17088, Note_on_c, 0, 77, 69
1, 17088, Note_on_c, 1, 69, 69
1, 17133, Note_on_c, 0, 77, 0
1, 17133, Note_on_c, 1, 69, 0
1, 17136, Note_on_c, 0, 76, 69
1, 17136, Note_on_c, 1, 67, 69
1, 17181, Note_on_c, 0, 76, 0
1, 17181, Note_on_c, 1, 67, 0
1, 17184, Note_on_c, 0, 74, 69
1, 17184, Note_on_c, 1, 65, 69
1, 17229, Note_on_c, 0, 74, 0
1, 17229, Note_on_c, 1, 65, 0
1, 17232, Note_on_c, 0, 73, 69
1, 17232, Note_on_c, 1, 64, 69
1, 17277, Note_on_c, 0, 73, 0
1, 17277, Note_on_c, 1, 64, 0
1, 17280, Note_on_c, 0, 74, 69
1, 17280, Note_on_c, 1, 65, 69
1, 17325, Note_on_c, 0, 74, 0
1, 17328, Note_on_c, 0, 69, 69
1, 17369, Note_on_c, 1, 65, 0
1, 17369, Note_on_c, 1, 62, 0
1, 17373, Note_on_c, 0, 69, 0
1, 17376, Note_on_c, 0, 70, 69
1, 17376, Note_on_c, 1, 67, 69
1, 17376, Note_on_c, 1, 62, 69
1, 17389, Note_on_c, 0, 70, 0
1, 17390, Note_on_c, 0, 72, 69
1, 17403, Note_on_c, 0, 72, 0
1, 17404, Note_on_c, 0, 70, 69
1, 17417, Note_on_c, 0, 70, 0
1, 17418, Note_on_c, 0, 72, 69
1, 17431, Note_on_c, 0, 72, 0
1, 17432, Note_on_c, 0, 70, 69
1, 17445, Note_on_c, 0, 70, 0
1, 17446, Note_on_c, 0, 69, 69
1, 17458, Note_on_c, 0, 69, 0
1, 17459, Note_on_c, 0, 70, 69
1, 17465, Note_on_c, 1, 67, 0
1, 17471, Note_on_c, 0, 70, 0
1, 17472, Note_on_c, 0, 69, 69
1, 17472, Note_on_c, 1, 65, 69
1, 17553, Note_on_c, 1, 62, 0
1, 17561, Note_on_c, 0, 69, 0
1, 17561, Note_on_c, 1, 65, 0
1, 17568, Note_on_c, 0, 76, 85
1, 17568, Note_on_c, 0, 67, 85
1, 17616, Note_on_c, 1, 62, 69
1, 17664, Note_on_c, 1, 62, 0
1, 17664, Note_on_c, 1, 64, 69
1, 17709, Note_on_c, 1, 64, 0
1, 17712, Note_on_c, 1, 62, 69
1, 17757, Note_on_c, 1, 62, 0
1, 17760, Note_on_c, 1, 61, 70
1, 17805, Note_on_c, 1, 61, 0
1, 17808, Note_on_c, 1, 57, 70
1, 17853, Note_on_c, 1, 57, 0
1, 17856, Note_on_c, 0, 76, 0
1, 17856, Note_on_c, 0, 67, 0
1, 17856, Note_on_c, 0, 74, 86
1, 17856, Note_on_c, 0, 65, 86
1, 17904, Note_on_c, 1, 61, 70
1, 17952, Note_on_c, 1, 61, 0
1, 17952, Note_on_c, 1, 62, 71
1, 17997, Note_on_c, 1, 62, 0
1, 18000, Note_on_c, 1, 60, 71
1, 18045, Note_on_c, 1, 60, 0
1, 18048, Note_on_c, 1, 58, 71
1, 18093, Note_on_c, 1, 58, 0
1, 18096, Note_on_c, 1, 57, 72
1, 18141, Note_on_c, 1, 57, 0
1, 18144, Note_on_c, 0, 74, 0
1, 18144, Note_on_c, 0, 65, 0
1, 18144, Note_on_c, 1, 55, 72
1, 18192, Note_on_c, 0, 79, 72
1, 18192, Note_on_c, 0, 76, 72
1, 18233, Note_on_c, 1, 55, 0
1, 18237, Note_on_c, 0, 79, 0
1, 18237, Note_on_c, 0, 76, 0
1, 18240, Note_on_c, 1, 57, 72
1, 18288, Note_on_c, 0, 77, 73
1, 18288, Note_on_c, 0, 74, 73
1, 18329, Note_on_c, 1, 57, 0
1, 18333, Note_on_c, 0, 77, 0
1, 18333, Note_on_c, 0, 74, 0
1, 18336, Note_on_c, 1, 45, 73
1, 18384, Note_on_c, 0, 73, 73
1, 18384, Note_on_c, 0, 64, 73
1, 18425, Note_on_c, 1, 45, 0
1, 18429, Note_on_c, 0, 73, 0
1, 18429, Note_on_c, 0, 64, 0
1, 18432, Note_on_c, 0, 73, 74
1, 18432, Note_on_c, 0, 64, 74
1, 18432, Note_on_c, 1, 50, 74
1, 18521, Note_on_c, 1, 50, 0
1, 18528, Note_on_c, 0, 73, 0
1, 18528, Note_on_c, 0, 64, 0
1, 18528, Note_on_c, 0, 74, 74
1, 18528, Note_on_c, 0, 65, 74
1, 18528, Note_on_c, 1, 45, 74
1, 18617, Note_on_c, 0, 74, 0
1, 18617, Note_on_c, 0, 65, 0
1, 18617, Note_on_c, 1, 45, 0
1, 18624, Note_on_c, 1, 38, 74
1, 18713, Note_on_c, 1, 38, 0
1, 18720, Note_on_c, 1, 65, 80
1, 18768, Note_on_c, 0, 77, 80
1, 18768, Note_on_c, 1, 69, 80
1, 18813, Note_on_c, 0, 77, 0
1, 18813, Note_on_c, 1, 69, 0
1, 18816, Note_on_c, 0, 79, 80
1, 18816, Note_on_c, 1, 70, 80
1, 18861, Note_on_c, 0, 79, 0
1, 18861, Note_on_c, 1, 70, 0
1, 18864, Note_on_c, 0, 77, 80
1, 18864, Note_on_c, 1, 69, 80
1, 18909, Note_on_c, 0, 77, 0
1, 18909, Note_on_c, 1, 69, 0
1, 18912, Note_on_c, 0, 76, 80
1, 18912, Note_on_c, 1, 67, 80
1, 18957, Note_on_c, 0, 76, 0
1, 18957, Note_on_c, 1, 67, 0
1, 18960, Note_on_c, 0, 77, 80
1, 18960, Note_on_c, 1, 69, 80
1, 19005, Note_on_c, 0, 77, 0
1, 19005, Note_on_c, 1, 69, 0
1, 19008, Note_on_c, 1, 74, 80
1, 19056, Note_on_c, 0, 82, 80
1, 19097, Note_on_c, 1, 74, 0
1, 19104, Note_on_c, 1, 70, 80
1, 19145, Note_on_c, 0, 82, 0
1, 19152, Note_on_c, 0, 79, 80
1, 19193, Note_on_c, 1, 70, 0
1, 19200, Note_on_c, 1, 67, 80
1, 19241, Note_on_c, 0, 79, 0
1, 19248, Note_on_c, 0, 76, 80
1, 19273, Note_on_c, 1, 65, 0
1, 19289, Note_on_c, 1, 67, 0
1, 19293, Note_on_c, 0, 76, 0
1, 19296, Note_on_c, 1, 65, 80
1, 19344, Note_on_c, 0, 77, 80
1, 19344, Note_on_c, 1, 69, 80
1, 19389, Note_on_c, 0, 77, 0
1, 19389, Note_on_c, 1, 69, 0
1, 19392, Note_on_c, 0, 79, 80
1, 19392, Note_on_c, 1, 70, 80
1, 19437, Note_on_c, 0, 79, 0
1, 19437, Note_on_c, 1, 70, 0
1, 19440, Note_on_c, 0, 77, 80
1, 19440, Note_on_c, 1, 69, 80
1, 19485, Note_on_c, 0, 77, 0
1, 19485, Note_on_c, 1, 69, 0
1, 19488, Note_on_c, 0, 76, 80
1, 19488, Note_on_c, 1, 67, 80
1, 19533, Note_on_c, 0, 76, 0
1, 19533, Note_on_c, 1, 67, 0
1, 19536, Note_on_c, 0, 77, 80
1, 19536, Note_on_c, 1, 69, 80
1, 19581, Note_on_c, 0, 77, 0
1, 19581, Note_on_c, 1, 69, 0
1, 19584, Note_on_c, 1, 74, 80
1, 19632, Note_on_c, 0, 82, 80
1, 19673, Note_on_c, 1, 74, 0
1, 19680, Note_on_c, 1, 70, 80
1, 19721, Note_on_c, 0, 82, 0
1, 19728, Note_on_c, 0, 79, 80
1, 19769, Note_on_c, 1, 70, 0
1, 19776, Note_on_c, 1, 67, 80
1, 19817, Note_on_c, 0, 79, 0
1, 19824, Note_on_c, 0, 76, 80
1, 19849, Note_on_c, 1, 65, 0
1, 19865, Note_on_c, 1, 67, 0
1, 19869, Note_on_c, 0, 76, 0
1, 19872, Note_on_c, 0, 77, 80
1, 19872, Note_on_c, 1, 69, 80
1, 19872, Note_on_c, 1, 65, 80
1, 19892, Note_on_c, 0, 77, 0
1, 19920, Note_on_c, 0, 84, 80
1, 19961, Note_on_c, 1, 69, 0
1, 19961, Note_on_c, 1, 65, 0
1, 19965, Note_on_c, 0, 84, 0
1, 19968, Note_on_c, 0, 77, 80
1, 19981, Note_on_c, 0, 77, 0
1, 19982, Note_on_c, 0, 75, 80
1, 19995, Note_on_c, 0, 75, 0
1, 19996, Note_on_c, 0, 77, 80
1, 20009, Note_on_c, 0, 77, 0
1, 20010, Note_on_c, 0, 75, 80
1, 20016, Note_on_c, 1, 57, 80
1, 20016, Note_on_c, 1, 53, 80
1, 20023, Note_on_c, 0, 75, 0
1, 20024, Note_on_c, 0, 77, 80
1, 20037, Note_on_c, 0, 77, 0
1, 20038, Note_on_c, 0, 75, 80
1, 20051, Note_on_c, 0, 75, 0
1, 20052, Note_on_c, 0, 77, 80
1, 20061, Note_on_c, 1, 57, 0
1, 20061, Note_on_c, 1, 53, 0
1, 20064, Note_on_c, 1, 58, 80
1, 20064, Note_on_c, 1, 55, 80
1, 20065, Note_on_c, 0, 77, 0
1, 20066, Note_on_c, 0, 75, 80
1, 20079, Note_on_c, 0, 75, 0
1, 20080, Note_on_c, 0, 77, 80
1, 20093, Note_on_c, 0, 77, 0
1, 20094, Note_on_c, 0, 75, 80
1, 20107, Note_on_c, 0, 75, 0
1, 20108, Note_on_c, 0, 77, 80
1, 20109, Note_on_c, 1, 58, 0
1, 20109, Note_on_c, 1, 55, 0
1, 20112, Note_on_c, 1, 60, 80
1, 20112, Note_on_c, 1, 57, 80
1, 20120, Note_on_c, 0, 77, 0
1, 20121, Note_on_c, 0, 75, 80
1, 20133, Note_on_c, 0, 75, 0
1, 20134, Note_on_c, 0, 74, 80
1, 20146, Note_on_c, 0, 74, 0
1, 20147, Note_on_c, 0, 75, 80
1, 20157, Note_on_c, 1, 60, 0
1, 20157, Note_on_c, 1, 57, 0
1, 20159, Note_on_c, 0, 75, 0
1, 20160, Note_on_c, 0, 74, 80
1, 20160, Note_on_c, 1, 62, 80
1, 20160, Note_on_c, 1, 58, 80
1, 20205, Note_on_c, 0, 74, 0
1, 20208, Note_on_c, 0, 86, 80
1, 20208, Note_on_c, 0, 82, 80
1, 20249, Note_on_c, 1, 62, 0
1, 20249, Note_on_c, 1, 58, 0
1, 20253, Note_on_c, 0, 86, 0
1, 20253, Note_on_c, 0, 82, 0
1, 20256, Note_on_c, 0, 84, 80
1, 20256, Note_on_c, 0, 81, 80
1, 20256, Note_on_c, 1, 60, 80
1, 20301, Note_on_c, 0, 84, 0
1, 20301, Note_on_c, 0, 81, 0
1, 20304, Note_on_c, 0, 82, 81
1, 20304, Note_on_c, 0, 79, 81
1, 20345, Note_on_c, 1, 60, 0
1, 20349, Note_on_c, 0, 82, 0
1, 20349, Note_on_c, 0, 79, 0
1, 20352, Note_on_c, 0, 81, 83
1, 20352, Note_on_c, 0, 77, 83
1, 20352, Note_on_c, 1, 48, 80
1, 20397, Note_on_c, 0, 81, 0
1, 20397, Note_on_c, 0, 77, 0
1, 20400, Note_on_c, 0, 79, 85
1, 20400, Note_on_c, 0, 76, 85
1, 20441, Note_on_c, 1, 48, 0
1, 20445, Note_on_c, 0, 79, 0
1, 20445, Note_on_c, 0, 76, 0
1, 20448, Note_on_c, 0, 77, 87
1, 20448, Note_on_c, 1, 53, 87
1, 20468, Note_on_c, 0, 77, 0
1, 20496, Note_on_c, 0, 84, 87
1, 20537, Note_on_c, 1, 53, 0
1, 20541, Note_on_c, 0, 84, 0
1, 20544, Note_on_c, 0, 77, 87
1, 20557, Note_on_c, 0, 77, 0
1, 20558, Note_on_c, 0, 75, 87
1, 20571, Note_on_c, 0, 75, 0
1, 20572, Note_on_c, 0, 77, 87
1, 20585, Note_on_c, 0, 77, 0
1, 20586, Note_on_c, 0, 75, 87
1, 20592, Note_on_c, 1, 57, 87
1, 20592, Note_on_c, 1, 53, 87
1, 20599, Note_on_c, 0, 75, 0
1, 20600, Note_on_c, 0, 77, 87
1, 20613, Note_on_c, 0, 77, 0
1, 20614, Note_on_c, 0, 75, 87
1, 20627, Note_on_c, 0, 75, 0
1, 20628, Note_on_c, 0, 77, 87
1, 20637, Note_on_c, 1, 57, 0
1, 20637, Note_on_c, 1, 53, 0
1, 20640, Note_on_c, 1, 58, 87
1, 20640, Note_on_c, 1, 55, 87
1, 20641, Note_on_c, 0, 77, 0
1, 20642, Note_on_c, 0, 75, 87
1, 20655, Note_on_c, 0, 75, 0
1, 20656, Note_on_c, 0, 77, 87
1, 20669, Note_on_c, 0, 77, 0
1, 20670, Note_on_c, 0, 75, 87
1, 20683, Note_on_c, 0, 75, 0
1, 20684, Note_on_c, 0, 77, 87
1, 20685, Note_on_c, 1, 58, 0
1, 20685, Note_on_c, 1, 55, 0
1, 20688, Note_on_c, 1, 60, 87
1, 20688, Note_on_c, 1, 57, 87
1, 20696, Note_on_c, 0, 77, 0
1, 20697, Note_on_c, 0, 75, 87
1, 20709, Note_on_c, 0, 75, 0
1, 20710, Note_on_c, 0, 74, 87
1, 20722, Note_on_c, 0, 74, 0
1, 20723, Note_on_c, 0, 75, 87
1, 20733, Note_on_c, 1, 60, 0
1, 20733, Note_on_c, 1, 57, 0
1, 20735, Note_on_c, 0, 75, 0
1, 20736, Note_on_c, 0, 74, 87
1, 20736, Note_on_c, 1, 62, 87
1, 20736, Note_on_c, 1, 58, 87
1, 20781, Note_on_c, 0, 74, 0
1, 20784, Note_on_c, 0, 86, 87
1, 20784, Note_on_c, 0, 82, 87
1, 20825, Note_on_c, 1, 62, 0
1, 20825, Note_on_c, 1, 58, 0
1, 20829, Note_on_c, 0, 86, 0
1, 20829, Note_on_c, 0, 82, 0
1, 20832, Note_on_c, 0, 84, 87
1, 20832, Note_on_c, 0, 81, 87
1, 20832, Note_on_c, 1, 60, 87
1, 20877, Note_on_c, 0, 84, 0
1, 20877, Note_on_c, 0, 81, 0
1, 20880, Note_on_c, 0, 82, 87
1, 20880, Note_on_c, 0, 79, 87
1, 20921, Note_on_c, 1, 60, 0
1, 20925, Note_on_c, 0, 82, 0
1, 20925, Note_on_c, 0, 79, 0
1, 20928, Note_on_c, 0, 81, 87
1, 20928, Note_on_c, 0, 77, 87
1, 20928, Note_on_c, 1, 48, 87
1, 20973, Note_on_c, 0, 81, 0
1, 20973, Note_on_c, 0, 77, 0
1, 20976, Note_on_c, 0, 79, 87
1, 20976, Note_on_c, 0, 76, 87
1, 21017, Note_on_c, 1, 48, 0
1, 21021, Note_on_c, 0, 79, 0
1, 21021, Note_on_c, 0, 76, 0
1, 21024, Note_on_c, 0, 79, 87
1, 21024, Note_on_c, 1, 53, 87
1, 21036, Note_on_c, 0, 79, 0
1, 21036, Note_on_c, 0, 77, 87
1, 21048, Note_on_c, 0, 77, 0
1, 21048, Note_on_c, 0, 76, 87
1, 21060, Note_on_c, 0, 76, 0
1, 21060, Note_on_c, 0, 77, 87
1, 21113, Note_on_c, 1, 53, 0
1, 21120, Note_on_c, 1, 48, 87
1, 21201, Note_on_c, 0, 77, 0
1, 21209, Note_on_c, 1, 48, 0
1, 21216, Note_on_c, 1, 41, 87
1, 21305, Note_on_c, 1, 41, 0
1, 21312, Note_on_c, 1, 53, 80
1, 21360, Note_on_c, 0, 65, 80
1, 21360, Note_on_c, 1, 57, 80
1, 21405, Note_on_c, 0, 65, 0
1, 21405, Note_on_c, 1, 57, 0
1, 21408, Note_on_c, 0, 69, 80
1, 21408, Note_on_c, 1, 60, 80
1, 21453, Note_on_c, 0, 69, 0
1, 21453, Note_on_c, 1, 60, 0
1, 21456, Note_on_c, 0, 67, 80
1, 21456, Note_on_c, 1, 58, 80
1, 21501, Note_on_c, 0, 67, 0
1, 21501, Note_on_c, 1, 58, 0
1, 21504, Note_on_c, 0, 65, 80
1, 21504, Note_on_c, 1, 57, 80
1, 21549, Note_on_c, 0, 65, 0
1, 21549, Note_on_c, 1, 57, 0
1, 21552, Note_on_c, 0, 64, 80
1, 21552, Note_on_c, 1, 55, 80
1, 21597, Note_on_c, 0, 64, 0
1, 21597, Note_on_c, 1, 55, 0
1, 21600, Note_on_c, 0, 65, 80
1, 21600, Note_on_c, 1, 57, 80
1, 21620, Note_on_c, 0, 65, 0
1, 21648, Note_on_c, 0, 60, 80
1, 21689, Note_on_c, 1, 57, 0
1, 21689, Note_on_c, 1, 53, 0
1, 21693, Note_on_c, 0, 60, 0
1, 21696, Note_on_c, 0, 63, 80
1, 21696, Note_on_c, 1, 60, 80
1, 21696, Note_on_c, 1, 54, 80
1, 21709, Note_on_c, 0, 63, 0
1, 21710, Note_on_c, 0, 65, 80
1, 21723, Note_on_c, 0, 65, 0
1, 21724, Note_on_c, 0, 63, 80
1, 21737, Note_on_c, 0, 63, 0
1, 21738, Note_on_c, 0, 65, 80
1, 21751, Note_on_c, 0, 65, 0
1, 21752, Note_on_c, 0, 63, 80
1, 21765, Note_on_c, 0, 63, 0
1, 21766, Note_on_c, 0, 62, 80
1, 21778, Note_on_c, 0, 62, 0
1, 21779, Note_on_c, 0, 63, 80
1, 21791, Note_on_c, 0, 63, 0
1, 21792, Note_on_c, 0, 62, 80
1, 21792, Note_on_c, 1, 60, 0
1, 21792, Note_on_c, 1, 58, 80
1, 21792, Note_on_c, 1, 54, 0
1, 21792, Note_on_c, 1, 55, 80
1, 21881, Note_on_c, 0, 62, 0
1, 21881, Note_on_c, 1, 58, 0
1, 21881, Note_on_c, 1, 55, 0
1, 21888, Note_on_c, 1, 55, 87
1, 21936, Note_on_c, 0, 67, 87
1, 21936, Note_on_c, 1, 58, 87
1, 21981, Note_on_c, 0, 67, 0
1, 21981, Note_on_c, 1, 58, 0
1, 21984, Note_on_c, 0, 70, 87
1, 21984, Note_on_c, 1, 62, 87
1, 22029, Note_on_c, 0, 70, 0
1, 22029, Note_on_c, 1, 62, 0
1, 22032, Note_on_c, 0, 69, 87
1, 22032, Note_on_c, 1, 60, 87
1, 22077, Note_on_c, 0, 69, 0
1, 22077, Note_on_c, 1, 60, 0
1, 22080, Note_on_c, 0, 67, 87
1, 22080, Note_on_c, 1, 58, 87
1, 22125, Note_on_c, 0, 67, 0
1, 22125, Note_on_c, 1, 58, 0
1, 22128, Note_on_c, 0, 66, 87
1, 22128, Note_on_c, 1, 57, 87
1, 22173, Note_on_c, 0, 66, 0
1, 22173, Note_on_c, 1, 57, 0
1, 22176, Note_on_c, 0, 67, 87
1, 22176, Note_on_c, 1, 58, 87
1, 22196, Note_on_c, 0, 67, 0
1, 22224, Note_on_c, 0, 62, 87
1, 22265, Note_on_c, 1, 58, 0
1, 22265, Note_on_c, 1, 55, 0
1, 22269, Note_on_c, 0, 62, 0
1, 22272, Note_on_c, 0, 65, 87
1, 22272, Note_on_c, 1, 62, 87
1, 22272, Note_on_c, 1, 56, 87
1, 22285, Note_on_c, 0, 65, 0
1, 22286, Note_on_c, 0, 67, 87
1, 22299, Note_on_c, 0, 67, 0
1, 22300, Note_on_c, 0, 65, 87
1, 22313, Note_on_c, 0, 65, 0
1, 22314, Note_on_c, 0, 67, 87
1, 22327, Note_on_c, 0, 67, 0
1, 22328, Note_on_c, 0, 65, 87
1, 22341, Note_on_c, 0, 65, 0
1, 22342, Note_on_c, 0, 64, 87
1, 22354, Note_on_c, 0, 64, 0
1, 22355, Note_on_c, 0, 65, 87
1, 22367, Note_on_c, 0, 65, 0
1, 22368, Note_on_c, 0, 64, 87
1, 22368, Note_on_c, 1, 62, 0
1, 22368, Note_on_c, 1, 61, 87
1, 22368, Note_on_c, 1, 56, 0
1, 22368, Note_on_c, 1, 57, 87
1, 22457, Note_on_c, 0, 64, 0
1, 22457, Note_on_c, 1, 61, 0
1, 22457, Note_on_c, 1, 57, 0
1, 22464, Note_on_c, 1, 57, 103
1, 22512, Note_on_c, 0, 81, 93
1, 22512, Note_on_c, 1, 65, 93
1, 22557, Note_on_c, 0, 81, 0
1, 22557, Note_on_c, 1, 65, 0
1, 22560, Note_on_c, 0, 82, 91
1, 22560, Note_on_c, 1, 67, 91
1, 22605, Note_on_c, 0, 82, 0
1, 22605, Note_on_c, 1, 67, 0
1, 22608, Note_on_c, 0, 81, 90
1, 22608, Note_on_c, 1, 65, 90
1, 22653, Note_on_c, 0, 81, 0
1, 22653, Note_on_c, 1, 65, 0
1, 22656, Note_on_c, 0, 80, 89
1, 22656, Note_on_c, 1, 64, 89
1, 22701, Note_on_c, 0, 80, 0
1, 22701, Note_on_c, 1, 64, 0
1, 22704, Note_on_c, 0, 81, 88
1, 22704, Note_on_c, 1, 65, 88
1, 22749, Note_on_c, 0, 81, 0
1, 22749, Note_on_c, 1, 65, 0
1, 22752, Note_on_c, 1, 57, 0
1, 22752, Note_on_c, 1, 57, 109
1, 22800, Note_on_c, 0, 79, 86
1, 22800, Note_on_c, 1, 64, 86
1, 22845, Note_on_c, 0, 79, 0
1, 22845, Note_on_c, 1, 64, 0
1, 22848, Note_on_c, 0, 81, 85
1, 22848, Note_on_c, 1, 65, 85
1, 22893, Note_on_c, 0, 81, 0
1, 22893, Note_on_c, 1, 65, 0
1, 22896, Note_on_c, 0, 79, 84
1, 22896, Note_on_c, 1, 64, 84
1, 22941, Note_on_c, 0, 79, 0
1, 22941, Note_on_c, 1, 64, 0
1, 22944, Note_on_c, 0, 78, 82
1, 22944, Note_on_c, 1, 63, 82
1, 22989, Note_on_c, 0, 78, 0
1, 22989, Note_on_c, 1, 63, 0
1, 22992, Note_on_c, 0, 79, 81
1, 22992, Note_on_c, 1, 64, 81
1, 23037, Note_on_c, 0, 79, 0
1, 23037, Note_on_c, 1, 64, 0
1, 23040, Note_on_c, 1, 62, 80
1, 23040, Note_on_c, 1, 57, 0
1, 23040, Note_on_c, 1, 58, 85
1, 23088, Note_on_c, 0, 77, 79
1, 23129, Note_on_c, 1, 62, 0
1, 23133, Note_on_c, 0, 77, 0
1, 23136, Note_on_c, 0, 76, 78
1, 23136, Note_on_c, 1, 68, 78
1, 23181, Note_on_c, 0, 76, 0
1, 23184, Note_on_c, 0, 74, 77
1, 23229, Note_on_c, 0, 74, 0
1, 23232, Note_on_c, 0, 73, 76
1, 23277, Note_on_c, 0, 73, 0
1, 23280, Note_on_c, 0, 74, 75
1, 23305, Note_on_c, 1, 58, 0
1, 23313, Note_on_c, 1, 68, 0
1, 23325, Note_on_c, 0, 74, 0
1, 23328, Note_on_c, 0, 73, 74
1, 23328, Note_on_c, 1, 69, 74
1, 23373, Note_on_c, 1, 69, 0
1, 23376, Note_on_c, 1, 57, 74
1, 23417, Note_on_c, 0, 73, 0
1, 23421, Note_on_c, 1, 57, 0
1, 23424, Note_on_c, 1, 69, 77
1, 23469, Note_on_c, 1, 69, 0
1, 23472, Note_on_c, 1, 67, 80
1, 23517, Note_on_c, 1, 67, 0
1, 23520, Note_on_c, 1, 65, 76
1, 23565, Note_on_c, 1, 65, 0
1, 23568, Note_on_c, 1, 64, 72
1, 23613, Note_on_c, 1, 64, 0
1, 23616, Note_on_c, 1, 62, 69
1, 23664, Note_on_c, 0, 74, 69
1, 23664, Note_on_c, 1, 65, 69
1, 23709, Note_on_c, 0, 74, 0
1, 23709, Note_on_c, 1, 65, 0
1, 23712, Note_on_c, 0, 77, 69
1, 23712, Note_on_c, 1, 69, 69
1, 23757, Note_on_c, 0, 77, 0
1, 23757, Note_on_c, 1, 69, 0
1, 23760, Note_on_c, 0, 76, 69
1, 23760, Note_on_c, 1, 67, 69
1, 23805, Note_on_c, 0, 76, 0
1, 23805, Note_on_c, 1, 67, 0
1, 23808, Note_on_c, 0, 74, 69
1, 23808, Note_on_c, 1, 65, 69
1, 23853, Note_on_c, 0, 74, 0
1, 23853, Note_on_c, 1, 65, 0
1, 23856, Note_on_c, 0, 73, 69
1, 23856, Note_on_c, 1, 64, 69
1, 23901, Note_on_c, 0, 73, 0
1, 23901, Note_on_c, 1, 64, 0
1, 23904, Note_on_c, 0, 74, 69
1, 23904, Note_on_c, 1, 65, 69
1, 23949, Note_on_c, 0, 74, 0
1, 23952, Note_on_c, 0, 69, 69
1, 23993, Note_on_c, 1, 65, 0
1, 23993, Note_on_c, 1, 62, 0
1, 23997, Note_on_c, 0, 69, 0
1, 24000, Note_on_c, 0, 70, 69
1, 24000, Note_on_c, 1, 67, 69
1, 24013, Note_on_c, 0, 70, 0
1, 24014, Note_on_c, 0, 72, 69
1, 24027, Note_on_c, 0, 72, 0
1, 24028, Note_on_c, 0, 70, 69
1, 24041, Note_on_c, 0, 70, 0
1, 24042, Note_on_c, 0, 72, 69
1, 24055, Note_on_c, 0, 72, 0
1, 24056, Note_on_c, 0, 70, 69
1, 24069, Note_on_c, 0, 70, 0
1, 24070, Note_on_c, 0, 69, 69
1, 24082, Note_on_c, 0, 69, 0
1, 24083, Note_on_c, 0, 70, 69
1, 24089, Note_on_c, 1, 67, 0
1, 24095, Note_on_c, 0, 70, 0
1, 24096, Note_on_c, 0, 69, 69
1, 24096, Note_on_c, 1, 65, 69
1, 24185, Note_on_c, 0, 69, 0
1, 24185, Note_on_c, 1, 65, 0
1, 24192, Note_on_c, 0, 76, 85
1, 24192, Note_on_c, 0, 67, 85
1, 24240, Note_on_c, 1, 62, 69
1, 24285, Note_on_c, 1, 62, 0
1, 24288, Note_on_c, 1, 64, 70
1, 24333, Note_on_c, 1, 64, 0
1, 24336, Note_on_c, 1, 62, 70
1, 24381, Note_on_c, 1, 62, 0
1, 24384, Note_on_c, 1, 61, 71
1, 24429, Note_on_c, 1, 61, 0
1, 24432, Note_on_c, 1, 57, 72
1, 24477, Note_on_c, 1, 57, 0
1, 24480, Note_on_c, 0, 76, 0
1, 24480, Note_on_c, 0, 67, 0
1, 24480, Note_on_c, 0, 74, 88
1, 24480, Note_on_c, 0, 65, 88
1, 24528, Note_on_c, 1, 61, 73
1, 24573, Note_on_c, 1, 61, 0
1, 24576, Note_on_c, 1, 62, 73
1, 24621, Note_on_c, 1, 62, 0
1, 24624, Note_on_c, 1, 60, 74
1, 24669, Note_on_c, 1, 60, 0
1, 24672, Note_on_c, 1, 58, 75
1, 24717, Note_on_c, 1, 58, 0
1, 24720, Note_on_c, 1, 57, 75
1, 24765, Note_on_c, 1, 57, 0
1, 24768, Note_on_c, 0, 74, 0
1, 24768, Note_on_c, 0, 65, 0
1, 24768, Note_on_c, 1, 55, 76
1, 24816, Note_on_c, 0, 79, 76
1, 24816, Note_on_c, 0, 76, 76
1, 24857, Note_on_c, 1, 55, 0
1, 24861, Note_on_c, 0, 79, 0
1, 24861, Note_on_c, 0, 76, 0
1, 24864, Note_on_c, 1, 57, 77
1, 24912, Note_on_c, 0, 77, 78
1, 24912, Note_on_c, 0, 74, 78
1, 24953, Note_on_c, 1, 57, 0
1, 24957, Note_on_c, 0, 77, 0
1, 24957, Note_on_c, 0, 74, 0
1, 24960, Note_on_c, 1, 45, 78
1, 25008, Note_on_c, 0, 73, 79
1, 25008, Note_on_c, 0, 64, 79
1, 25049, Note_on_c, 1, 45, 0
1, 25053, Note_on_c, 0, 73, 0
1, 25053, Note_on_c, 0, 64, 0
1, 25056, Note_on_c, 0, 74, 80
1, 25056, Note_on_c, 1, 50, 80
1, 25101, Note_on_c, 0, 74, 0
1, 25104, Note_on_c, 0, 81, 80
1, 25145, Note_on_c, 1, 50, 0
1, 25149, Note_on_c, 0, 81, 0
1, 25152, Note_on_c, 0, 74, 80
1, 25165, Note_on_c, 0, 74, 0
1, 25166, Note_on_c, 0, 72, 80
1, 25179, Note_on_c, 0, 72, 0
1, 25180, Note_on_c, 0, 74, 80
1, 25193, Note_on_c, 0, 74, 0
1, 25194, Note_on_c, 0, 72, 80
1, 25200, Note_on_c, 1, 54, 80
1, 25200, Note_on_c, 1, 50, 80
1, 25207, Note_on_c, 0, 72, 0
1, 25208, Note_on_c, 0, 74, 80
1, 25221, Note_on_c, 0, 74, 0
1, 25222, Note_on_c, 0, 72, 80
1, 25235, Note_on_c, 0, 72, 0
1, 25236, Note_on_c, 0, 74, 80
1, 25245, Note_on_c, 1, 54, 0
1, 25245, Note_on_c, 1, 50, 0
1, 25248, Note_on_c, 1, 55, 80
1, 25248, Note_on_c, 1, 52, 80
1, 25249, Note_on_c, 0, 74, 0
1, 25250, Note_on_c, 0, 72, 80
1, 25263, Note_on_c, 0, 72, 0
1, 25264, Note_on_c, 0, 74, 80
1, 25277, Note_on_c, 0, 74, 0
1, 25278, Note_on_c, 0, 72, 80
1, 25291, Note_on_c, 0, 72, 0
1, 25292, Note_on_c, 0, 74, 80
1, 25293, Note_on_c, 1, 55, 0
1, 25293, Note_on_c, 1, 52, 0
1, 25296, Note_on_c, 1, 57, 80
1, 25296, Note_on_c, 1, 54, 80
1, 25304, Note_on_c, 0, 74, 0
1, 25305, Note_on_c, 0, 72, 80
1, 25317, Note_on_c, 0, 72, 0
1, 25318, Note_on_c, 0, 71, 80
1, 25330, Note_on_c, 0, 71, 0
1, 25331, Note_on_c, 0, 72, 80
1, 25341, Note_on_c, 1, 57, 0
1, 25341, Note_on_c, 1, 54, 0
1, 25343, Note_on_c, 0, 72, 0
1, 25344, Note_on_c, 0, 70, 80
1, 25344, Note_on_c, 1, 55, 80
1, 25389, Note_on_c, 0, 70, 0
1, 25392, Note_on_c, 0, 82, 80
1, 25392, Note_on_c, 0, 79, 80
1, 25433, Note_on_c, 1, 55, 0
1, 25437, Note_on_c, 0, 82, 0
1, 25437, Note_on_c, 0, 79, 0
1, 25440, Note_on_c, 0, 81, 80
1, 25440, Note_on_c, 0, 77, 80
1, 25440, Note_on_c, 1, 57, 80
1, 25485, Note_on_c, 0, 81, 0
1, 25485, Note_on_c, 0, 77, 0
1, 25488, Note_on_c, 0, 79, 78
1, 25488, Note_on_c, 0, 76, 78
1, 25529, Note_on_c, 1, 57, 0
1, 25533, Note_on_c, 0, 79, 0
1, 25533, Note_on_c, 0, 76, 0
1, 25536, Note_on_c, 0, 77, 77
1, 25536, Note_on_c, 0, 74, 77
1, 25536, Note_on_c, 1, 45, 80
1, 25581, Note_on_c, 0, 77, 0
1, 25581, Note_on_c, 0, 74, 0
1, 25584, Note_on_c, 0, 76, 75
1, 25584, Note_on_c, 0, 73, 75
1, 25625, Note_on_c, 1, 45, 0
1, 25629, Note_on_c, 0, 76, 0
1, 25629, Note_on_c, 0, 73, 0
1, 25632, Note_on_c, 0, 74, 74
1, 25632, Note_on_c, 1, 50, 74
1, 25677, Note_on_c, 0, 74, 0
1, 25680, Note_on_c, 0, 81, 74
1, 25721, Note_on_c, 1, 50, 0
1, 25725, Note_on_c, 0, 81, 0
1, 25728, Note_on_c, 0, 74, 74
1, 25741, Note_on_c, 0, 74, 0
1, 25742, Note_on_c, 0, 72, 74
1, 25755, Note_on_c, 0, 72, 0
1, 25756, Note_on_c, 0, 74, 74
1, 25769, Note_on_c, 0, 74, 0
1, 25770, Note_on_c, 0, 72, 74
1, 25776, Note_on_c, 1, 54, 74
1, 25776, Note_on_c, 1, 50, 74
1, 25783, Note_on_c, 0, 72, 0
1, 25784, Note_on_c, 0, 74, 74
1, 25797, Note_on_c, 0, 74, 0
1, 25798, Note_on_c, 0, 72, 74
1, 25811, Note_on_c, 0, 72, 0
1, 25812, Note_on_c, 0, 74, 74
1, 25821, Note_on_c, 1, 54, 0
1, 25821, Note_on_c, 1, 50, 0
1, 25824, Note_on_c, 1, 55, 74
1, 25824, Note_on_c, 1, 52, 74
1, 25825, Note_on_c, 0, 74, 0
1, 25826, Note_on_c, 0, 72, 74
1, 25839, Note_on_c, 0, 72, 0
1, 25840, Note_on_c, 0, 74, 74
1, 25853, Note_on_c, 0, 74, 0
1, 25854, Note_on_c, 0, 72, 74
1, 25867, Note_on_c, 0, 72, 0
1, 25868, Note_on_c, 0, 74, 74
1, 25869, Note_on_c, 1, 55, 0
1, 25869, Note_on_c, 1, 52, 0
1, 25872, Note_on_c, 1, 57, 74
1, 25872, Note_on_c, 1, 54, 74
1, 25880, Note_on_c, 0, 74, 0
1, 25881, Note_on_c, 0, 72, 74
1, 25893, Note_on_c, 0, 72, 0
1, 25894, Note_on_c, 0, 71, 74
1, 25906, Note_on_c, 0, 71, 0
1, 25907, Note_on_c, 0, 72, 74
1, 25917, Note_on_c, 1, 57, 0
1, 25917, Note_on_c, 1, 54, 0
1, 25919, Note_on_c, 0, 72, 0
1, 25920, Note_on_c, 0, 70, 74
1, 25920, Note_on_c, 1, 55, 74
1, 25965, Note_on_c, 0, 70, 0
1, 25968, Note_on_c, 0, 82, 74
1, 25968, Note_on_c, 0, 79, 74
1, 26009, Note_on_c, 1, 55, 0
1, 26013, Note_on_c, 0, 82, 0
1, 26013, Note_on_c, 0, 79, 0
1, 26016, Note_on_c, 0, 81, 74
1, 26016, Note_on_c, 0, 77, 74
1, 26016, Note_on_c, 1, 57, 74
1, 26061, Note_on_c, 0, 81, 0
1, 26061, Note_on_c, 0, 77, 0
1, 26064, Note_on_c, 0, 79, 72
1, 26064, Note_on_c, 0, 76, 72
1, 26105, Note_on_c, 1, 57, 0
1, 26109, Note_on_c, 0, 79, 0
1, 26109, Note_on_c, 0, 76, 0
1, 26112, Note_on_c, 0, 77, 71
1, 26112, Note_on_c, 0, 74, 71
1, 26112, Note_on_c, 1, 45, 74
1, 26157, Note_on_c, 0, 77, 0
1, 26157, Note_on_c, 0, 74, 0
1, 26160, Note_on_c, 0, 76, 70
1, 26160, Note_on_c, 0, 73, 70
1, 26201, Note_on_c, 1, 45, 0
1, 26205, Note_on_c, 0, 76, 0
1, 26205, Note_on_c, 0, 73, 0
1, 26208, Note_on_c, 0, 76, 69
1, 26208, Note_on_c, 1, 50, 69
1, 26220, Note_on_c, 0, 76, 0
1, 26220, Note_on_c, 0, 74, 69
1, 26232, Note_on_c, 0, 74, 0
1, 26232, Note_on_c, 0, 73, 69
1, 26244, Note_on_c, 0, 73, 0
1, 26244, Note_on_c, 0, 74, 69
1, 26297, Note_on_c, 1, 50, 0
1, 26304, Note_on_c, 1, 45, 69
1, 26385, Note_on_c, 0, 74, 0
1, 26393, Note_on_c, 1, 45, 0
1, 26400, Note_on_c, 1, 38, 69
1, 26489, Note_on_c, 1, 38, 0
1, 26496, Note_on_c, 1, 53, 80
1, 26544, Note_on_c, 0, 65, 80
1, 26544, Note_on_c, 1, 57, 80
1, 26589, Note_on_c, 0, 65, 0
1, 26589, Note_on_c, 1, 57, 0
1, 26592, Note_on_c, 0, 69, 80
1, 26592, Note_on_c, 1, 60, 80
1, 26637, Note_on_c, 0, 69, 0
1, 26637, Note_on_c, 1, 60, 0
1, 26640, Note_on_c, 0, 67, 80
1, 26640, Note_on_c, 1, 58, 80
1, 26685, Note_on_c, 0, 67, 0
1, 26685, Note_on_c, 1, 58, 0
1, 26688, Note_on_c, 0, 65, 80
1, 26688, Note_on_c, 1, 57, 80
1, 26733, Note_on_c, 0, 65, 0
1, 26733, Note_on_c, 1, 57, 0
1, 26736, Note_on_c, 0, 64, 80
1, 26736, Note_on_c, 1, 55, 80
1, 26781, Note_on_c, 0, 64, 0
1, 26781, Note_on_c, 1, 55, 0
1, 26784, Note_on_c, 0, 65, 80
1, 26784, Note_on_c, 1, 57, 80
1, 26804, Note_on_c, 0, 65, 0
1, 26832, Note_on_c, 0, 60, 80
1, 26873, Note_on_c, 1, 57, 0
1, 26873, Note_on_c, 1, 53, 0
1, 26877, Note_on_c, 0, 60, 0
1, 26880, Note_on_c, 0, 63, 80
1, 26880, Note_on_c, 1, 60, 80
1, 26880, Note_on_c, 1, 54, 80
1, 26893, Note_on_c, 0, 63, 0
1, 26894, Note_on_c, 0, 65, 80
1, 26907, Note_on_c, 0, 65, 0
1, 26908, Note_on_c, 0, 63, 80
1, 26921, Note_on_c, 0, 63, 0
1, 26922, Note_on_c, 0, 65, 80
1, 26935, Note_on_c, 0, 65, 0
1, 26936, Note_on_c, 0, 63, 80
1, 26949, Note_on_c, 0, 63, 0
1, 26950, Note_on_c, 0, 62, 80
1, 26962, Note_on_c, 0, 62, 0
1, 26963, Note_on_c, 0, 63, 80
1, 26975, Note_on_c, 0, 63, 0
1, 26976, Note_on_c, 0, 62, 80
1, 26976, Note_on_c, 1, 60, 0
1, 26976, Note_on_c, 1, 58, 80
1, 26976, Note_on_c, 1, 54, 0
1, 26976, Note_on_c, 1, 55, 80
1, 27065, Note_on_c, 0, 62, 0
1, 27065, Note_on_c, 1, 58, 0
1, 27065, Note_on_c, 1, 55, 0
1, 27072, Note_on_c, 1, 55, 87
1, 27120, Note_on_c, 0, 67, 87
1, 27120, Note_on_c, 1, 58, 87
1, 27165, Note_on_c, 0, 67, 0
1, 27165, Note_on_c, 1, 58, 0
1, 27168, Note_on_c, 0, 70, 87
1, 27168, Note_on_c, 1, 62, 87
1, 27213, Note_on_c, 0, 70, 0
1, 27213, Note_on_c, 1, 62, 0
1, 27216, Note_on_c, 0, 69, 87
1, 27216, Note_on_c, 1, 60, 87
1, 27261, Note_on_c, 0, 69, 0
1, 27261, Note_on_c, 1, 60, 0
1, 27264, Note_on_c, 0, 67, 87
1, 27264, Note_on_c, 1, 58, 87
1, 27309, Note_on_c, 0, 67, 0
1, 27309, Note_on_c, 1, 58, 0
1, 27312, Note_on_c, 0, 66, 87
1, 27312, Note_on_c, 1, 57, 87
1, 27357, Note_on_c, 0, 66, 0
1, 27357, Note_on_c, 1, 57, 0
1, 27360, Note_on_c, 0, 67, 87
1, 27360, Note_on_c, 1, 58, 87
1, 27380, Note_on_c, 0, 67, 0
1, 27408, Note_on_c, 0, 62, 87
1, 27449, Note_on_c, 1, 58, 0
1, 27449, Note_on_c, 1, 55, 0
1, 27453, Note_on_c, 0, 62, 0
1, 27456, Note_on_c, 0, 65, 87
1, 27456, Note_on_c, 1, 62, 87
1, 27456, Note_on_c, 1, 56, 87
1, 27469, Note_on_c, 0, 65, 0
1, 27470, Note_on_c, 0, 67, 87
1, 27483, Note_on_c, 0, 67, 0
1, 27484, Note_on_c, 0, 65, 87
1, 27497, Note_on_c, 0, 65, 0
1, 27498, Note_on_c, 0, 67, 87
1, 27511, Note_on_c, 0, 67, 0
1, 27512, Note_on_c, 0, 65, 87
1, 27525, Note_on_c, 0, 65, 0
1, 27526, Note_on_c, 0, 64, 87
1, 27538, Note_on_c, 0, 64, 0
1, 27539, Note_on_c, 0, 65, 87
1, 27551, Note_on_c, 0, 65, 0
1, 27552, Note_on_c, 0, 64, 87
1, 27552, Note_on_c, 1, 62, 0
1, 27552, Note_on_c, 1, 61, 87
1, 27552, Note_on_c, 1, 56, 0
1, 27552, Note_on_c, 1, 57, 87
1, 27641, Note_on_c, 0, 64, 0
1, 27641, Note_on_c, 1, 61, 0
1, 27641, Note_on_c, 1, 57, 0
1, 27648, Note_on_c, 1, 57, 103
1, 27696, Note_on_c, 0, 81, 93
1, 27696, Note_on_c, 1, 65, 93
1, 27741, Note_on_c, 0, 81, 0
1, 27741, Note_on_c, 1, 65, 0
1, 27744, Note_on_c, 0, 82, 91
1, 27744, Note_on_c, 1, 67, 91
1, 27789, Note_on_c, 0, 82, 0
1, 27789, Note_on_c, 1, 67, 0
1, 27792, Note_on_c, 0, 81, 90
1, 27792, Note_on_c, 1, 65, 90
1, 27837, Note_on_c, 0, 81, 0
1, 27837, Note_on_c, 1, 65, 0
1, 27840, Note_on_c, 0, 80, 89
1, 27840, Note_on_c, 1, 64, 89
1, 27885, Note_on_c, 0, 80, 0
1, 27885, Note_on_c, 1, 64, 0
1, 27888, Note_on_c, 0, 81, 88
1, 27888, Note_on_c, 1, 65, 88
1, 27933, Note_on_c, 0, 81, 0
1, 27933, Note_on_c, 1, 65, 0
1, 27936, Note_on_c, 1, 57, 0
1, 27936, Note_on_c, 1, 57, 109
1, 27984, Note_on_c, 0, 79, 86
1, 27984, Note_on_c, 1, 64, 86
1, 28029, Note_on_c, 0, 79, 0
1, 28029, Note_on_c, 1, 64, 0
1, 28032, Note_on_c, 0, 81, 85
1, 28032, Note_on_c, 1, 65, 85
1, 28077, Note_on_c, 0, 81, 0
1, 28077, Note_on_c, 1, 65, 0
1, 28080, Note_on_c, 0, 79, 84
1, 28080, Note_on_c, 1, 64, 84
1, 28125, Note_on_c, 0, 79, 0
1, 28125, Note_on_c, 1, 64, 0
1, 28128, Note_on_c, 0, 78, 82
1, 28128, Note_on_c, 1, 63, 82
1, 28173, Note_on_c, 0, 78, 0
1, 28173, Note_on_c, 1, 63, 0
1, 28176, Note_on_c, 0, 79, 81
1, 28176, Note_on_c, 1, 64, 81
1, 28221, Note_on_c, 0, 79, 0
1, 28221, Note_on_c, 1, 64, 0
1, 28224, Note_on_c, 1, 62, 80
1, 28224, Note_on_c, 1, 57, 0
1, 28224, Note_on_c, 1, 58, 85
1, 28272, Note_on_c, 0, 77, 79
1, 28313, Note_on_c, 1, 62, 0
1, 28317, Note_on_c, 0, 77, 0
1, 28320, Note_on_c, 0, 76, 78
1, 28320, Note_on_c, 1, 68, 78
1, 28365, Note_on_c, 0, 76, 0
1, 28368, Note_on_c, 0, 74, 77
1, 28413, Note_on_c, 0, 74, 0
1, 28416, Note_on_c, 0, 73, 76
1, 28461, Note_on_c, 0, 73, 0
1, 28464, Note_on_c, 0, 74, 75
1, 28489, Note_on_c, 1, 58, 0
1, 28497, Note_on_c, 1, 68, 0
1, 28509, Note_on_c, 0, 74, 0
1, 28512, Note_on_c, 0, 73, 74
1, 28512, Note_on_c, 1, 69, 74
1, 28557, Note_on_c, 1, 69, 0
1, 28560, Note_on_c, 1, 57, 74
1, 28601, Note_on_c, 0, 73, 0
1, 28605, Note_on_c, 1, 57, 0
1, 28608, Note_on_c, 1, 69, 77
1, 28653, Note_on_c, 1, 69, 0
1, 28656, Note_on_c, 1, 67, 80
1, 28701, Note_on_c, 1, 67, 0
1, 28704, Note_on_c, 1, 65, 76
1, 28749, Note_on_c, 1, 65, 0
1, 28752, Note_on_c, 1, 64, 72
1, 28797, Note_on_c, 1, 64, 0
1, 28800, Note_on_c, 1, 62, 69
1, 28848, Note_on_c, 0, 74, 69
1, 28848, Note_on_c, 1, 65, 69
1, 28893, Note_on_c, 0, 74, 0
1, 28893, Note_on_c, 1, 65, 0
1, 28896, Note_on_c, 0, 77, 69
1, 28896, Note_on_c, 1, 69, 69
1, 28941, Note_on_c, 0, 77, 0
1, 28941, Note_on_c, 1, 69, 0
1, 28944, Note_on_c, 0, 76, 69
1, 28944, Note_on_c, 1, 67, 69
1, 28989, Note_on_c, 0, 76, 0
1, 28989, Note_on_c, 1, 67, 0
1, 28992, Note_on_c, 0, 74, 69
1, 28992, Note_on_c, 1, 65, 69
1, 29037, Note_on_c, 0, 74, 0
1, 29037, Note_on_c, 1, 65, 0
1, 29040, Note_on_c, 0, 73, 69
1, 29040, Note_on_c, 1, 64, 69
1, 29085, Note_on_c, 0, 73, 0
1, 29085, Note_on_c, 1, 64, 0
1, 29088, Note_on_c, 0, 74, 69
1, 29088, Note_on_c, 1, 65, 69
1, 29133, Note_on_c, 0, 74, 0
1, 29136, Note_on_c, 0, 69, 69
1, 29177, Note_on_c, 1, 65, 0
1, 29177, Note_on_c, 1, 62, 0
1, 29181, Note_on_c, 0, 69, 0
1, 29184, Note_on_c, 0, 70, 69
1, 29184, Note_on_c, 1, 67, 69
1, 29197, Note_on_c, 0, 70, 0
1, 29198, Note_on_c, 0, 72, 69
1, 29211, Note_on_c, 0, 72, 0
1, 29212, Note_on_c, 0, 70, 69
1, 29225, Note_on_c, 0, 70, 0
1, 29226, Note_on_c, 0, 72, 69
1, 29239, Note_on_c, 0, 72, 0
1, 29240, Note_on_c, 0, 70, 69
1, 29253, Note_on_c, 0, 70, 0
1, 29254, Note_on_c, 0, 69, 69
1, 29266, Note_on_c, 0, 69, 0
1, 29267, Note_on_c, 0, 70, 69
1, 29273, Note_on_c, 1, 67, 0
1, 29279, Note_on_c, 0, 70, 0
1, 29280, Note_on_c, 0, 69, 69
1, 29280, Note_on_c, 1, 65, 69
1, 29369, Note_on_c, 0, 69, 0
1, 29369, Note_on_c, 1, 65, 0
1, 29376, Note_on_c, 0, 76, 85
1, 29376, Note_on_c, 0, 67, 85
1, 29424, Note_on_c, 1, 62, 69
1, 29469, Note_on_c, 1, 62, 0
1, 29472, Note_on_c, 1, 64, 70
1, 29517, Note_on_c, 1, 64, 0
1, 29520, Note_on_c, 1, 62, 70
1, 29565, Note_on_c, 1, 62, 0
1, 29568, Note_on_c, 1, 61, 71
1, 29613, Note_on_c, 1, 61, 0
1, 29616, Note_on_c, 1, 57, 72
1, 29661, Note_on_c, 1, 57, 0
1, 29664, Note_on_c, 0, 76, 0
1, 29664, Note_on_c, 0, 67, 0
1, 29664, Note_on_c, 0, 74, 88
1, 29664, Note_on_c, 0, 65, 88
1, 29712, Note_on_c, 1, 61, 73
1, 29757, Note_on_c, 1, 61, 0
1, 29760, Note_on_c, 1, 62, 73
1, 29805, Note_on_c, 1, 62, 0
1, 29808, Note_on_c, 1, 60, 74
1, 29853, Note_on_c, 1, 60, 0
1, 29856, Note_on_c, 1, 58, 75
1, 29901, Note_on_c, 1, 58, 0
1, 29904, Note_on_c, 1, 57, 75
1, 29949, Note_on_c, 1, 57, 0
1, 29952, Note_on_c, 0, 74, 0
1, 29952, Note_on_c, 0, 65, 0
1, 29952, Note_on_c, 1, 55, 76
1, 30000, Note_on_c, 0, 79, 76
1, 30000, Note_on_c, 0, 76, 76
1, 30041, Note_on_c, 1, 55, 0
1, 30045, Note_on_c, 0, 79, 0
1, 30045, Note_on_c, 0, 76, 0
1, 30048, Note_on_c, 1, 57, 77
1, 30096, Note_on_c, 0, 77, 78
1, 30096, Note_on_c, 0, 74, 78
1, 30137, Note_on_c, 1, 57, 0
1, 30141, Note_on_c, 0, 77, 0
1, 30141, Note_on_c, 0, 74, 0
1, 30144, Note_on_c, 1, 45, 78
1, 30192, Note_on_c, 0, 73, 79
1, 30192, Note_on_c, 0, 64, 79
1, 30233, Note_on_c, 1, 45, 0
1, 30237, Note_on_c, 0, 73, 0
1, 30237, Note_on_c, 0, 64, 0
1, 30240, Note_on_c, 0, 74, 80
1, 30240, Note_on_c, 1, 50, 80
1, 30285, Note_on_c, 0, 74, 0
1, 30288, Note_on_c, 0, 81, 80
1, 30329, Note_on_c, 1, 50, 0
1, 30333, Note_on_c, 0, 81, 0
1, 30336, Note_on_c, 0, 74, 80
1, 30349, Note_on_c, 0, 74, 0
1, 30350, Note_on_c, 0, 72, 80
1, 30363, Note_on_c, 0, 72, 0
1, 30364, Note_on_c, 0, 74, 80
1, 30377, Note_on_c, 0, 74, 0
1, 30378, Note_on_c, 0, 72, 80
1, 30384, Note_on_c, 1, 54, 80
1, 30384, Note_on_c, 1, 50, 80
1, 30391, Note_on_c, 0, 72, 0
1, 30392, Note_on_c, 0, 74, 80
1, 30405, Note_on_c, 0, 74, 0
1, 30406, Note_on_c, 0, 72, 80
1, 30419, Note_on_c, 0, 72, 0
1, 30420, Note_on_c, 0, 74, 80
1, 30429, Note_on_c, 1, 54, 0
1, 30429, Note_on_c, 1, 50, 0
1, 30432, Note_on_c, 1, 55, 80
1, 30432, Note_on_c, 1, 52, 80
1, 30433, Note_on_c, 0, 74, 0
1, 30434, Note_on_c, 0, 72, 80
1, 30447, Note_on_c, 0, 72, 0
1, 30448, Note_on_c, 0, 74, 80
1, 30461, Note_on_c, 0, 74, 0
1, 30462, Note_on_c, 0, 72, 80
1, 30475, Note_on_c, 0, 72, 0
1, 30476, Note_on_c, 0, 74, 80
1, 30477, Note_on_c, 1, 55, 0
1, 30477, Note_on_c, 1, 52, 0
1, 30480, Note_on_c, 1, 57, 80
1, 30480, Note_on_c, 1, 54, 80
1, 30488, Note_on_c, 0, 74, 0
1, 30489, Note_on_c, 0, 72, 80
1, 30501, Note_on_c, 0, 72, 0
1, 30502, Note_on_c, 0, 71, 80
1, 30514, Note_on_c, 0, 71, 0
1, 30515, Note_on_c, 0, 72, 80
1, 30525, Note_on_c, 1, 57, 0
1, 30525, Note_on_c, 1, 54, 0
1, 30527, Note_on_c, 0, 72, 0
1, 30528, Note_on_c, 0, 70, 80
1, 30528, Note_on_c, 1, 55, 80
1, 30573, Note_on_c, 0, 70, 0
1, 30576, Note_on_c, 0, 82, 80
1, 30576, Note_on_c, 0, 79, 80
1, 30617, Note_on_c, 1, 55, 0
1, 30621, Note_on_c, 0, 82, 0
1, 30621, Note_on_c, 0, 79, 0
1, 30624, Note_on_c, 0, 81, 80
1, 30624, Note_on_c, 0, 77, 80
1, 30624, Note_on_c, 1, 57, 80
1, 30669, Note_on_c, 0, 81, 0
1, 30669, Note_on_c, 0, 77, 0
1, 30672, Note_on_c, 0, 79, 78
1, 30672, Note_on_c, 0, 76, 78
1, 30713, Note_on_c, 1, 57, 0
1, 30717, Note_on_c, 0, 79, 0
1, 30717, Note_on_c, 0, 76, 0
1, 30720, Note_on_c, 0, 77, 77
1, 30720, Note_on_c, 0, 74, 77
1, 30720, Note_on_c, 1, 45, 80
1, 30765, Note_on_c, 0, 77, 0
1, 30765, Note_on_c, 0, 74, 0
1, 30768, Note_on_c, 0, 76, 75
1, 30768, Note_on_c, 0, 73, 75
1, 30809, Note_on_c, 1, 45, 0
1, 30813, Note_on_c, 0, 76, 0
1, 30813, Note_on_c, 0, 73, 0
1, 30816, Note_on_c, 0, 74, 74
1, 30816, Note_on_c, 1, 50, 74
1, 30861, Note_on_c, 0, 74, 0
1, 30864, Note_on_c, 0, 81, 74
1, 30905, Note_on_c, 1, 50, 0
1, 30909, Note_on_c, 0, 81, 0
1, 30912, Note_on_c, 0, 74, 74
1, 30925, Note_on_c, 0, 74, 0
1, 30926, Note_on_c, 0, 72, 74
1, 30939, Note_on_c, 0, 72, 0
1, 30940, Note_on_c, 0, 74, 74
1, 30953, Note_on_c, 0, 74, 0
1, 30954, Note_on_c, 0, 72, 74
1, 30960, Note_on_c, 1, 54, 74
1, 30960, Note_on_c, 1, 50, 74
1, 30967, Note_on_c, 0, 72, 0
1, 30968, Note_on_c, 0, 74, 74
1, 30981, Note_on_c, 0, 74, 0
1, 30982, Note_on_c, 0, 72, 74
1, 30995, Note_on_c, 0, 72, 0
1, 30996, Note_on_c, 0, 74, 74
1, 31005, Note_on_c, 1, 54, 0
1, 31005, Note_on_c, 1, 50, 0
1, 31008, Note_on_c, 1, 55, 74
1, 31008, Note_on_c, 1, 52, 74
1, 31009, Note_on_c, 0, 74, 0
1, 31010, Note_on_c, 0, 72, 74
1, 31023, Note_on_c, 0, 72, 0
1, 31024, Note_on_c, 0, 74, 74
1, 31037, Note_on_c, 0, 74, 0
1, 31038, Note_on_c, 0, 72, 74
1, 31051, Note_on_c, 0, 72, 0
1, 31052, Note_on_c, 0, 74, 74
1, 31053, Note_on_c, 1, 55, 0
1, 31053, Note_on_c, 1, 52, 0
1, 31056, Note_on_c, 1, 57, 74
1, 31056, Note_on_c, 1, 54, 74
1, 31064, Note_on_c, 0, 74, 0
1, 31065, Note_on_c, 0, 72, 74
1, 31077, Note_on_c, 0, 72, 0
1, 31078, Note_on_c, 0, 71, 74
1, 31090, Note_on_c, 0, 71, 0
1, 31091, Note_on_c, 0, 72, 74
1, 31101, Note_on_c, 1, 57, 0
1, 31101, Note_on_c, 1, 54, 0
1, 31103, Note_on_c, 0, 72, 0
1, 31104, Note_on_c, 0, 70, 74
1, 31104, Note_on_c, 1, 55, 74
1, 31149, Note_on_c, 0, 70, 0
1, 31152, Note_on_c, 0, 82, 74
1, 31152, Note_on_c, 0, 79, 74
1, 31193, Note_on_c, 1, 55, 0
1, 31197, Note_on_c, 0, 82, 0
1, 31197, Note_on_c, 0, 79, 0
1, 31200, Note_on_c, 0, 81, 74
1, 31200, Note_on_c, 0, 77, 74
1, 31200, Note_on_c, 1, 57, 74
1, 31245, Note_on_c, 0, 81, 0
1, 31245, Note_on_c, 0, 77, 0
1, 31248, Note_on_c, 0, 79, 72
1, 31248, Note_on_c, 0, 76, 72
1, 31289, Note_on_c, 1, 57, 0
1, 31293, Note_on_c, 0, 79, 0
1, 31293, Note_on_c, 0, 76, 0
1, 31296, Note_on_c, 0, 77, 71
1, 31296, Note_on_c, 0, 74, 71
1, 31296, Note_on_c, 1, 45, 74
1, 31341, Note_on_c, 0, 77, 0
1, 31341, Note_on_c, 0, 74, 0
1, 31344, Note_on_c, 0, 76, 70
1, 31344, Note_on_c, 0, 73, 70
1, 31385, Note_on_c, 1, 45, 0
1, 31389, Note_on_c, 0, 76, 0
1, 31389, Note_on_c, 0, 73, 0
1, 31392, Note_on_c, 0, 76, 69
1, 31392, Note_on_c, 1, 50, 69
1, 31404, Note_on_c, 0, 76, 0
1, 31404, Note_on_c, 0, 74, 69
1, 31416, Note_on_c, 0, 74, 0
1, 31416, Note_on_c, 0, 73, 69
1, 31428, Note_on_c, 0, 73, 0
1, 31428, Note_on_c, 0, 74, 69
1, 31481, Note_on_c, 1, 50, 0
1, 31488, Note_on_c, 1, 45, 69
1, 31569, Note_on_c, 0, 74, 0
1, 31577, Note_on_c, 1, 45, 0
1, 31584, Note_on_c, 1, 38, 69
1, 31673, Note_on_c, 1, 38, 0
1, 31680, Note_on_c, 0, 57, 80
1, 31769, Note_on_c, 0, 57, 0
1, 31776, Note_on_c, 0, 62, 80
1, 31776, Note_on_c, 1, 54, 80
1, 31865, Note_on_c, 1, 54, 0
1, 31872, Note_on_c, 1, 50, 80
1, 31939, Note_on_c, 0, 62, 0
1, 31944, Note_on_c, 0, 66, 80
1, 31961, Note_on_c, 1, 50, 0
1, 31967, Note_on_c, 0, 66, 0
1, 31968, Note_on_c, 0, 66, 80
1, 31968, Note_on_c, 1, 52, 80
1, 32035, Note_on_c, 0, 66, 0
1, 32040, Note_on_c, 0, 67, 80
1, 32057, Note_on_c, 1, 52, 0
1, 32063, Note_on_c, 0, 67, 0
1, 32064, Note_on_c, 0, 62, 80
1, 32064, Note_on_c, 1, 57, 80
1, 32153, Note_on_c, 1, 57, 0
1, 32160, Note_on_c, 0, 62, 0
1, 32160, Note_on_c, 0, 61, 80
1, 32160, Note_on_c, 1, 55, 80
1, 32249, Note_on_c, 0, 61, 0
1, 32249, Note_on_c, 1, 55, 0
1, 32256, Note_on_c, 1, 54, 80
1, 32280, Note_on_c, 0, 62, 80
1, 32303, Note_on_c, 0, 62, 0
1, 32304, Note_on_c, 0, 64, 80
1, 32327, Note_on_c, 0, 64, 0
1, 32328, Note_on_c, 0, 66, 81
1, 32351, Note_on_c, 0, 66, 0
1, 32352, Note_on_c, 0, 67, 82
1, 32375, Note_on_c, 0, 67, 0
1, 32376, Note_on_c, 0, 69, 82
1, 32399, Note_on_c, 0, 69, 0
1, 32400, Note_on_c, 0, 71, 83
1, 32423, Note_on_c, 0, 71, 0
1, 32424, Note_on_c, 0, 73, 84
1, 32433, Note_on_c, 1, 54, 0
1, 32447, Note_on_c, 0, 73, 0
1, 32448, Note_on_c, 0, 74, 84
1, 32448, Note_on_c, 1, 50, 80
1, 32471, Note_on_c, 0, 74, 0
1, 32472, Note_on_c, 0, 76, 85
1, 32495, Note_on_c, 0, 76, 0
1, 32496, Note_on_c, 0, 78, 86
1, 32519, Note_on_c, 0, 78, 0
1, 32520, Note_on_c, 0, 74, 87
1, 32537, Note_on_c, 1, 50, 0
1, 32543, Note_on_c, 0, 74, 0
1, 32544, Note_on_c, 0, 69, 86
1, 32544, Note_on_c, 1, 52, 80
1, 32633, Note_on_c, 0, 69, 0
1, 32633, Note_on_c, 1, 52, 0
1, 32640, Note_on_c, 0, 67, 84
1, 32640, Note_on_c, 1, 61, 80
1, 32653, Note_on_c, 0, 67, 0
1, 32654, Note_on_c, 0, 69, 84
1, 32667, Note_on_c, 0, 69, 0
1, 32668, Note_on_c, 0, 67, 83
1, 32681, Note_on_c, 0, 67, 0
1, 32682, Note_on_c, 0, 69, 83
1, 32695, Note_on_c, 0, 69, 0
1, 32696, Note_on_c, 0, 67, 83
1, 32709, Note_on_c, 0, 67, 0
1, 32710, Note_on_c, 0, 66, 82
1, 32722, Note_on_c, 0, 66, 0
1, 32723, Note_on_c, 0, 67, 82
1, 32729, Note_on_c, 1, 61, 0
1, 32735, Note_on_c, 0, 67, 0
1, 32736, Note_on_c, 0, 66, 82
1, 32736, Note_on_c, 1, 62, 80
1, 32825, Note_on_c, 0, 66, 0
1, 32825, Note_on_c, 1, 62, 0
1, 32832, Note_on_c, 0, 74, 80
1, 32832, Note_on_c, 1, 54, 80
1, 32852, Note_on_c, 0, 74, 0
1, 32880, Note_on_c, 0, 74, 80
1, 32921, Note_on_c, 1, 54, 0
1, 32928, Note_on_c, 1, 56, 80
1, 32951, Note_on_c, 0, 74, 0
1, 32952, Note_on_c, 0, 78, 80
1, 32975, Note_on_c, 0, 78, 0
1, 32976, Note_on_c, 0, 76, 80
1, 32999, Note_on_c, 0, 76, 0
1, 33000, Note_on_c, 0, 74, 80
1, 33023, Note_on_c, 0, 74, 0
1, 33024, Note_on_c, 0, 74, 80
1, 33024, Note_on_c, 1, 56, 0
1, 33024, Note_on_c, 1, 57, 80
1, 33047, Note_on_c, 0, 74, 0
1, 33048, Note_on_c, 0, 73, 78
1, 33071, Note_on_c, 0, 73, 0
1, 33072, Note_on_c, 0, 71, 77
1, 33095, Note_on_c, 0, 71, 0
1, 33096, Note_on_c, 0, 69, 75
1, 33113, Note_on_c, 1, 57, 0
1, 33119, Note_on_c, 0, 69, 0
1, 33120, Note_on_c, 0, 74, 74
1, 33120, Note_on_c, 1, 54, 69
1, 33140, Note_on_c, 0, 74, 0
1, 33168, Note_on_c, 0, 74, 74
1, 33209, Note_on_c, 1, 54, 0
1, 33216, Note_on_c, 1, 56, 69
1, 33239, Note_on_c, 0, 74, 0
1, 33240, Note_on_c, 0, 78, 74
1, 33263, Note_on_c, 0, 78, 0
1, 33264, Note_on_c, 0, 76, 74
1, 33287, Note_on_c, 0, 76, 0
1, 33288, Note_on_c, 0, 74, 74
1, 33311, Note_on_c, 0, 74, 0
1, 33312, Note_on_c, 0, 74, 74
1, 33312, Note_on_c, 1, 56, 0
1, 33312, Note_on_c, 1, 57, 69
1, 33335, Note_on_c, 0, 74, 0
1, 33336, Note_on_c, 0, 73, 75
1, 33359, Note_on_c, 0, 73, 0
1, 33360, Note_on_c, 0, 71, 77
1, 33383, Note_on_c, 0, 71, 0
1, 33384, Note_on_c, 0, 69, 78
1, 33401, Note_on_c, 1, 57, 0
1, 33407, Note_on_c, 0, 69, 0
1, 33408, Note_on_c, 0, 68, 80
1, 33408, Note_on_c, 1, 50, 80
1, 33432, Note_on_c, 0, 68, 0
1, 33432, Note_on_c, 0, 69, 80
1, 33455, Note_on_c, 0, 69, 0
1, 33456, Note_on_c, 0, 66, 80
1, 33479, Note_on_c, 0, 66, 0
1, 33480, Note_on_c, 0, 62, 80
1, 33497, Note_on_c, 1, 50, 0
1, 33503, Note_on_c, 0, 62, 0
1, 33504, Note_on_c, 0, 61, 80
1, 33504, Note_on_c, 1, 52, 80
1, 33593, Note_on_c, 0, 61, 0
1, 33593, Note_on_c, 1, 52, 0
1, 33600, Note_on_c, 0, 59, 80
1, 33600, Note_on_c, 1, 40, 80
1, 33613, Note_on_c, 0, 59, 0
1, 33614, Note_on_c, 0, 61, 80
1, 33627, Note_on_c, 0, 61, 0
1, 33628, Note_on_c, 0, 59, 80
1, 33641, Note_on_c, 0, 59, 0
1, 33642, Note_on_c, 0, 61, 80
1, 33655, Note_on_c, 0, 61, 0
1, 33656, Note_on_c, 0, 59, 80
1, 33669, Note_on_c, 0, 59, 0
1, 33670, Note_on_c, 0, 57, 80
1, 33682, Note_on_c, 0, 57, 0
1, 33683, Note_on_c, 0, 59, 80
1, 33689, Note_on_c, 1, 40, 0
1, 33695, Note_on_c, 0, 59, 0
1, 33696, Note_on_c, 0, 57, 80
1, 33696, Note_on_c, 1, 45, 80
1, 33785, Note_on_c, 1, 45, 0
1, 33792, Note_on_c, 1, 40, 80
1, 33873, Note_on_c, 0, 57, 0
1, 33881, Note_on_c, 1, 40, 0
1, 33888, Note_on_c, 1, 33, 80
1, 33977, Note_on_c, 1, 33, 0
1, 33984, Note_on_c, 0, 57, 80
1, 34073, Note_on_c, 0, 57, 0
1, 34080, Note_on_c, 0, 62, 80
1, 34080, Note_on_c, 1, 54, 80
1, 34169, Note_on_c, 1, 54, 0
1, 34176, Note_on_c, 1, 50, 80
1, 34243, Note_on_c, 0, 62, 0
1, 34248, Note_on_c, 0, 66, 80
1, 34265, Note_on_c, 1, 50, 0
1, 34271, Note_on_c, 0, 66, 0
1, 34272, Note_on_c, 0, 66, 80
1, 34272, Note_on_c, 1, 52, 80
1, 34339, Note_on_c, 0, 66, 0
1, 34344, Note_on_c, 0, 67, 80
1, 34361, Note_on_c, 1, 52, 0
1, 34367, Note_on_c, 0, 67, 0
1, 34368, Note_on_c, 0, 62, 80
1, 34368, Note_on_c, 1, 57, 80
1, 34457, Note_on_c, 1, 57, 0
1, 34464, Note_on_c, 0, 62, 0
1, 34464, Note_on_c, 0, 61, 80
1, 34464, Note_on_c, 1, 55, 80
1, 34553, Note_on_c, 0, 61, 0
1, 34553, Note_on_c, 1, 55, 0
1, 34560, Note_on_c, 1, 54, 80
1, 34584, Note_on_c, 0, 62, 80
1, 34607, Note_on_c, 0, 62, 0
1, 34608, Note_on_c, 0, 64, 80
1, 34631, Note_on_c, 0, 64, 0
1, 34632, Note_on_c, 0, 66, 81
1, 34655, Note_on_c, 0, 66, 0
1, 34656, Note_on_c, 0, 67, 82
1, 34679, Note_on_c, 0, 67, 0
1, 34680, Note_on_c, 0, 69, 82
1, 34703, Note_on_c, 0, 69, 0
1, 34704, Note_on_c, 0, 71, 83
1, 34727, Note_on_c, 0, 71, 0
1, 34728, Note_on_c, 0, 73, 84
1, 34737, Note_on_c, 1, 54, 0
1, 34751, Note_on_c, 0, 73, 0
1, 34752, Note_on_c, 0, 74, 84
1, 34752, Note_on_c, 1, 50, 80
1, 34775, Note_on_c, 0, 74, 0
1, 34776, Note_on_c, 0, 76, 85
1, 34799, Note_on_c, 0, 76, 0
1, 34800, Note_on_c, 0, 78, 86
1, 34823, Note_on_c, 0, 78, 0
1, 34824, Note_on_c, 0, 74, 87
1, 34841, Note_on_c, 1, 50, 0
1, 34847, Note_on_c, 0, 74, 0
1, 34848, Note_on_c, 0, 69, 86
1, 34848, Note_on_c, 1, 52, 80
1, 34937, Note_on_c, 0, 69, 0
1, 34937, Note_on_c, 1, 52, 0
1, 34944, Note_on_c, 0, 67, 84
1, 34944, Note_on_c, 1, 61, 80
1, 34957, Note_on_c, 0, 67, 0
1, 34958, Note_on_c, 0, 69, 84
1, 34971, Note_on_c, 0, 69, 0
1, 34972, Note_on_c, 0, 67, 83
1, 34985, Note_on_c, 0, 67, 0
1, 34986, Note_on_c, 0, 69, 83
1, 34999, Note_on_c, 0, 69, 0
1, 35000, Note_on_c, 0, 67, 83
1, 35013, Note_on_c, 0, 67, 0
1, 35014, Note_on_c, 0, 66, 82
1, 35026, Note_on_c, 0, 66, 0
1, 35027, Note_on_c, 0, 67, 82
1, 35033, Note_on_c, 1, 61, 0
1, 35039, Note_on_c, 0, 67, 0
1, 35040, Note_on_c, 0, 66, 82
1, 35040, Note_on_c, 1, 62, 80
1, 35129, Note_on_c, 0, 66, 0
1, 35129, Note_on_c, 1, 62, 0
1, 35136, Note_on_c, 0, 74, 80
1, 35136, Note_on_c, 1, 54, 80
1, 35156, Note_on_c, 0, 74, 0
1, 35184, Note_on_c, 0, 74, 80
1, 35225, Note_on_c, 1, 54, 0
1, 35232, Note_on_c, 1, 56, 80
1, 35255, Note_on_c, 0, 74, 0
1, 35256, Note_on_c, 0, 78, 80
1, 35279, Note_on_c, 0, 78, 0
1, 35280, Note_on_c, 0, 76, 80
1, 35303, Note_on_c, 0, 76, 0
1, 35304, Note_on_c, 0, 74, 80
1, 35327, Note_on_c, 0, 74, 0
1, 35328, Note_on_c, 0, 74, 80
1, 35328, Note_on_c, 1, 56, 0
1, 35328, Note_on_c, 1, 57, 80
1, 35351, Note_on_c, 0, 74, 0
1, 35352, Note_on_c, 0, 73, 78
1, 35375, Note_on_c, 0, 73, 0
1, 35376, Note_on_c, 0, 71, 77
1, 35399, Note_on_c, 0, 71, 0
1, 35400, Note_on_c, 0, 69, 75
1, 35417, Note_on_c, 1, 57, 0
1, 35423, Note_on_c, 0, 69, 0
1, 35424, Note_on_c, 0, 74, 74
1, 35424, Note_on_c, 1, 54, 69
1, 35444, Note_on_c, 0, 74, 0
1, 35472, Note_on_c, 0, 74, 74
1, 35513, Note_on_c, 1, 54, 0
1, 35520, Note_on_c, 1, 56, 69
1, 35543, Note_on_c, 0, 74, 0
1, 35544, Note_on_c, 0, 78, 74
1, 35567, Note_on_c, 0, 78, 0
1, 35568, Note_on_c, 0, 76, 74
1, 35591, Note_on_c, 0, 76, 0
1, 35592, Note_on_c, 0, 74, 74
1, 35615, Note_on_c, 0, 74, 0
1, 35616, Note_on_c, 0, 74, 74
1, 35616, Note_on_c, 1, 56, 0
1, 35616, Note_on_c, 1, 57, 69
1, 35639, Note_on_c, 0, 74, 0
1, 35640, Note_on_c, 0, 73, 75
1, 35663, Note_on_c, 0, 73, 0
1, 35664, Note_on_c, 0, 71, 77
1, 35687, Note_on_c, 0, 71, 0
1, 35688, Note_on_c, 0, 69, 78
1, 35705, Note_on_c, 1, 57, 0
1, 35711, Note_on_c, 0, 69, 0
1, 35712, Note_on_c, 0, 68, 80
1, 35712, Note_on_c, 1, 50, 80
1, 35736, Note_on_c, 0, 68, 0
1, 35736, Note_on_c, 0, 69, 80
1, 35759, Note_on_c, 0, 69, 0
1, 35760, Note_on_c, 0, 66, 80
1, 35783, Note_on_c, 0, 66, 0
1, 35784, Note_on_c, 0, 62, 80
1, 35801, Note_on_c, 1, 50, 0
1, 35807, Note_on_c, 0, 62, 0
1, 35808, Note_on_c, 0, 61, 80
1, 35808, Note_on_c, 1, 52, 80
1, 35897, Note_on_c, 0, 61, 0
1, 35897, Note_on_c, 1, 52, 0
1, 35904, Note_on_c, 0, 59, 80
1, 35904, Note_on_c, 1, 40, 80
1, 35917, Note_on_c, 0, 59, 0
1, 35918, Note_on_c, 0, 61, 80
1, 35931, Note_on_c, 0, 61, 0
1, 35932, Note_on_c, 0, 59, 80
1, 35945, Note_on_c, 0, 59, 0
1, 35946, Note_on_c, 0, 61, 80
1, 35959, Note_on_c, 0, 61, 0
1, 35960, Note_on_c, 0, 59, 80
1, 35973, Note_on_c, 0, 59, 0
1, 35974, Note_on_c, 0, 57, 80
1, 35986, Note_on_c, 0, 57, 0
1, 35987, Note_on_c, 0, 59, 80
1, 35993, Note_on_c, 1, 40, 0
1, 35999, Note_on_c, 0, 59, 0
1, 36000, Note_on_c, 0, 57, 80
1, 36000, Note_on_c, 1, 45, 80
1, 36089, Note_on_c, 1, 45, 0
1, 36096, Note_on_c, 1, 40, 80
1, 36177, Note_on_c, 0, 57, 0
1, 36185, Note_on_c, 1, 40, 0
1, 36192, Note_on_c, 1, 33, 80
1, 36281, Note_on_c, 1, 33, 0
1, 36288, Note_on_c, 0, 83, 80
1, 36303, Note_on_c, 0, 83, 0
1, 36304, Note_on_c, 0, 81, 80
1, 36319, Note_on_c, 0, 81, 0
1, 36320, Note_on_c, 0, 83, 80
1, 36335, Note_on_c, 0, 83, 0
1, 36336, Note_on_c, 0, 81, 80
1, 36350, Note_on_c, 0, 81, 0
1, 36351, Note_on_c, 0, 83, 80
1, 36365, Note_on_c, 0, 83, 0
1, 36366, Note_on_c, 0, 81, 80
1, 36380, Note_on_c, 0, 81, 0
1, 36381, Note_on_c, 0, 83, 80
1, 36384, Note_on_c, 1, 57, 80
1, 36395, Note_on_c, 0, 83, 0
1, 36396, Note_on_c, 0, 81, 80
1, 36407, Note_on_c, 1, 57, 0
1, 36408, Note_on_c, 1, 61, 80
1, 36410, Note_on_c, 0, 81, 0
1, 36411, Note_on_c, 0, 83, 80
1, 36425, Note_on_c, 0, 83, 0
1, 36426, Note_on_c, 0, 81, 80
1, 36431, Note_on_c, 1, 61, 0
1, 36432, Note_on_c, 1, 64, 80
1, 36440, Note_on_c, 0, 81, 0
1, 36441, Note_on_c, 0, 83, 80
1, 36455, Note_on_c, 0, 83, 0
1, 36455, Note_on_c, 1, 64, 0
1, 36456, Note_on_c, 0, 81, 80
1, 36456, Note_on_c, 1, 69, 80
1, 36470, Note_on_c, 0, 81, 0
1, 36471, Note_on_c, 0, 83, 80
1, 36479, Note_on_c, 1, 69, 0
1, 36480, Note_on_c, 1, 59, 80
1, 36485, Note_on_c, 0, 83, 0
1, 36486, Note_on_c, 0, 81, 80
1, 36500, Note_on_c, 0, 81, 0
1, 36501, Note_on_c, 0, 83, 80
1, 36503, Note_on_c, 1, 59, 0
1, 36504, Note_on_c, 1, 62, 80
1, 36515, Note_on_c, 0, 83, 0
1, 36516, Note_on_c, 0, 81, 80
1, 36527, Note_on_c, 1, 62, 0
1, 36528, Note_on_c, 1, 64, 80
1, 36530, Note_on_c, 0, 81, 0
1, 36531, Note_on_c, 0, 83, 80
1, 36545, Note_on_c, 0, 83, 0
1, 36546, Note_on_c, 0, 81, 80
1, 36551, Note_on_c, 1, 64, 0
1, 36552, Note_on_c, 1, 69, 80
1, 36560, Note_on_c, 0, 81, 0
1, 36561, Note_on_c, 0, 83, 80
1, 36575, Note_on_c, 1, 69, 0
1, 36576, Note_on_c, 0, 83, 0
1, 36576, Note_on_c, 0, 81, 80
1, 36576, Note_on_c, 1, 61, 80
1, 36665, Note_on_c, 0, 81, 0
1, 36665, Note_on_c, 1, 61, 0
1, 36672, Note_on_c, 0, 69, 80
1, 36717, Note_on_c, 0, 69, 0
1, 36720, Note_on_c, 0, 71, 80
1, 36743, Note_on_c, 0, 71, 0
1, 36744, Note_on_c, 0, 73, 80
1, 36767, Note_on_c, 0, 73, 0
1, 36768, Note_on_c, 0, 74, 80
1, 36791, Note_on_c, 0, 74, 0
1, 36792, Note_on_c, 0, 76, 80
1, 36815, Note_on_c, 0, 76, 0
1, 36816, Note_on_c, 0, 78, 80
1, 36839, Note_on_c, 0, 78, 0
1, 36840, Note_on_c, 0, 80, 80
1, 36863, Note_on_c, 0, 80, 0
1, 36864, Note_on_c, 0, 83, 80
1, 36879, Note_on_c, 0, 83, 0
1, 36880, Note_on_c, 0, 81, 80
1, 36895, Note_on_c, 0, 81, 0
1, 36896, Note_on_c, 0, 83, 80
1, 36911, Note_on_c, 0, 83, 0
1, 36912, Note_on_c, 0, 81, 80
1, 36926, Note_on_c, 0, 81, 0
1, 36927, Note_on_c, 0, 83, 80
1, 36941, Note_on_c, 0, 83, 0
1, 36942, Note_on_c, 0, 81, 80
1, 36956, Note_on_c, 0, 81, 0
1, 36957, Note_on_c, 0, 83, 80
1, 36960, Note_on_c, 1, 57, 80
1, 36971, Note_on_c, 0, 83, 0
1, 36972, Note_on_c, 0, 81, 80
1, 36983, Note_on_c, 1, 57, 0
1, 36984, Note_on_c, 1, 61, 80
1, 36986, Note_on_c, 0, 81, 0
1, 36987, Note_on_c, 0, 83, 80
1, 37001, Note_on_c, 0, 83, 0
1, 37002, Note_on_c, 0, 81, 80
1, 37007, Note_on_c, 1, 61, 0
1, 37008, Note_on_c, 1, 64, 80
1, 37016, Note_on_c, 0, 81, 0
1, 37017, Note_on_c, 0, 83, 80
1, 37031, Note_on_c, 0, 83, 0
1, 37031, Note_on_c, 1, 64, 0
1, 37032, Note_on_c, 0, 81, 80
1, 37032, Note_on_c, 1, 69, 80
1, 37046, Note_on_c, 0, 81, 0
1, 37047, Note_on_c, 0, 83, 80
1, 37055, Note_on_c, 1, 69, 0
1, 37056, Note_on_c, 1, 59, 80
1, 37061, Note_on_c, 0, 83, 0
1, 37062, Note_on_c, 0, 81, 80
1, 37076, Note_on_c, 0, 81, 0
1, 37077, Note_on_c, 0, 83, 80
1, 37079, Note_on_c, 1, 59, 0
1, 37080, Note_on_c, 1, 62, 80
1, 37091, Note_on_c, 0, 83, 0
1, 37092, Note_on_c, 0, 81, 80
1, 37103, Note_on_c, 1, 62, 0
1, 37104, Note_on_c, 1, 64, 80
1, 37106, Note_on_c, 0, 81, 0
1, 37107, Note_on_c, 0, 83, 80
1, 37121, Note_on_c, 0, 83, 0
1, 37122, Note_on_c, 0, 81, 80
1, 37127, Note_on_c, 1, 64, 0
1, 37128, Note_on_c, 1, 69, 80
1, 37136, Note_on_c, 0, 81, 0
1, 37137, Note_on_c, 0, 83, 80
1, 37151, Note_on_c, 0, 83, 0
1, 37151, Note_on_c, 1, 69, 0
1, 37152, Note_on_c, 0, 81, 80
1, 37152, Note_on_c, 1, 61, 80
1, 37241, Note_on_c, 0, 81, 0
1, 37241, Note_on_c, 1, 61, 0
1, 37248, Note_on_c, 0, 69, 80
1, 37271, Note_on_c, 0, 69, 0
1, 37272, Note_on_c, 0, 71, 80
1, 37295, Note_on_c, 0, 71, 0
1, 37296, Note_on_c, 0, 73, 80
1, 37319, Note_on_c, 0, 73, 0
1, 37320, Note_on_c, 0, 74, 80
1, 37343, Note_on_c, 0, 74, 0
1, 37344, Note_on_c, 0, 76, 80
1, 37367, Note_on_c, 0, 76, 0
1, 37368, Note_on_c, 0, 78, 80
1, 37391, Note_on_c, 0, 78, 0
1, 37392, Note_on_c, 0, 79, 80
1, 37415, Note_on_c, 0, 79, 0
1, 37416, Note_on_c, 0, 81, 80
1, 37439, Note_on_c, 0, 81, 0
1, 37440, Note_on_c, 0, 78, 80
1, 37440, Note_on_c, 1, 62, 80
1, 37463, Note_on_c, 0, 78, 0
1, 37464, Note_on_c, 0, 74, 80
1, 37487, Note_on_c, 0, 74, 0
1, 37488, Note_on_c, 0, 73, 81
1, 37511, Note_on_c, 0, 73, 0
1, 37512, Note_on_c, 0, 74, 81
1, 37529, Note_on_c, 1, 62, 0
1, 37535, Note_on_c, 0, 74, 0
1, 37536, Note_on_c, 0, 81, 82
1, 37536, Note_on_c, 1, 66, 82
1, 37559, Note_on_c, 0, 81, 0
1, 37560, Note_on_c, 0, 78, 82
1, 37583, Note_on_c, 0, 78, 0
1, 37584, Note_on_c, 0, 76, 83
1, 37607, Note_on_c, 0, 76, 0
1, 37608, Note_on_c, 0, 74, 84
1, 37625, Note_on_c, 1, 66, 0
1, 37631, Note_on_c, 0, 74, 0
1, 37632, Note_on_c, 0, 83, 84
1, 37632, Note_on_c, 1, 67, 84
1, 37655, Note_on_c, 0, 83, 0
1, 37656, Note_on_c, 0, 79, 85
1, 37679, Note_on_c, 0, 79, 0
1, 37680, Note_on_c, 0, 78, 85
1, 37703, Note_on_c, 0, 78, 0
1, 37704, Note_on_c, 0, 76, 86
1, 37721, Note_on_c, 1, 67, 0
1, 37727, Note_on_c, 0, 76, 0
1, 37728, Note_on_c, 0, 74, 87
1, 37728, Note_on_c, 1, 69, 87
1, 37817, Note_on_c, 1, 69, 0
1, 37824, Note_on_c, 0, 74, 0
1, 37824, Note_on_c, 0, 73, 87
1, 37824, Note_on_c, 1, 64, 87
1, 37913, Note_on_c, 0, 73, 0
1, 37913, Note_on_c, 1, 64, 0
1, 37920, Note_on_c, 1, 57, 87
1, 38009, Note_on_c, 1, 57, 0
1, 38016, Note_on_c, 0, 57, 96
1, 38112, Note_on_c, 0, 57, 0
1, 38112, Note_on_c, 0, 62, 80
1, 38112, Note_on_c, 1, 54, 80
1, 38201, Note_on_c, 1, 54, 0
1, 38208, Note_on_c, 1, 50, 80
1, 38275, Note_on_c, 0, 62, 0
1, 38280, Note_on_c, 0, 66, 80
1, 38297, Note_on_c, 1, 50, 0
1, 38303, Note_on_c, 0, 66, 0
1, 38304, Note_on_c, 0, 66, 80
1, 38304, Note_on_c, 1, 52, 80
1, 38371, Note_on_c, 0, 66, 0
1, 38376, Note_on_c, 0, 67, 80
1, 38393, Note_on_c, 1, 52, 0
1, 38399, Note_on_c, 0, 67, 0
1, 38400, Note_on_c, 0, 62, 80
1, 38400, Note_on_c, 1, 57, 80
1, 38489, Note_on_c, 1, 57, 0
1, 38496, Note_on_c, 0, 62, 0
1, 38496, Note_on_c, 0, 61, 80
1, 38496, Note_on_c, 1, 55, 80
1, 38585, Note_on_c, 0, 61, 0
1, 38585, Note_on_c, 1, 55, 0
1, 38592, Note_on_c, 1, 54, 80
1, 38616, Note_on_c, 0, 62, 80
1, 38639, Note_on_c, 0, 62, 0
1, 38640, Note_on_c, 0, 64, 80
1, 38663, Note_on_c, 0, 64, 0
1, 38664, Note_on_c, 0, 66, 81
1, 38687, Note_on_c, 0, 66, 0
1, 38688, Note_on_c, 0, 67, 82
1, 38711, Note_on_c, 0, 67, 0
1, 38712, Note_on_c, 0, 69, 82
1, 38735, Note_on_c, 0, 69, 0
1, 38736, Note_on_c, 0, 71, 83
1, 38759, Note_on_c, 0, 71, 0
1, 38760, Note_on_c, 0, 73, 84
1, 38769, Note_on_c, 1, 54, 0
1, 38783, Note_on_c, 0, 73, 0
1, 38784, Note_on_c, 0, 74, 84
1, 38784, Note_on_c, 1, 50, 80
1, 38807, Note_on_c, 0, 74, 0
1, 38808, Note_on_c, 0, 76, 85
1, 38831, Note_on_c, 0, 76, 0
1, 38832, Note_on_c, 0, 78, 86
1, 38855, Note_on_c, 0, 78, 0
1, 38856, Note_on_c, 0, 74, 87
1, 38873, Note_on_c, 1, 50, 0
1, 38879, Note_on_c, 0, 74, 0
1, 38880, Note_on_c, 0, 69, 86
1, 38880, Note_on_c, 1, 52, 80
1, 38969, Note_on_c, 0, 69, 0
1, 38969, Note_on_c, 1, 52, 0
1, 38976, Note_on_c, 0, 67, 84
1, 38976, Note_on_c, 1, 61, 80
1, 38989, Note_on_c, 0, 67, 0
1, 38990, Note_on_c, 0, 69, 84
1, 39003, Note_on_c, 0, 69, 0
1, 39004, Note_on_c, 0, 67, 83
1, 39017, Note_on_c, 0, 67, 0
1, 39018, Note_on_c, 0, 69, 83
1, 39031, Note_on_c, 0, 69, 0
1, 39032, Note_on_c, 0, 67, 83
1, 39045, Note_on_c, 0, 67, 0
1, 39046, Note_on_c, 0, 66, 82
1, 39058, Note_on_c, 0, 66, 0
1, 39059, Note_on_c, 0, 67, 82
1, 39065, Note_on_c, 1, 61, 0
1, 39071, Note_on_c, 0, 67, 0
1, 39072, Note_on_c, 0, 66, 82
1, 39072, Note_on_c, 1, 62, 80
1, 39161, Note_on_c, 0, 66, 0
1, 39161, Note_on_c, 1, 62, 0
1, 39168, Note_on_c, 0, 79, 80
1, 39168, Note_on_c, 1, 59, 80
1, 39188, Note_on_c, 0, 79, 0
1, 39216, Note_on_c, 0, 79, 80
1, 39257, Note_on_c, 1, 59, 0
1, 39264, Note_on_c, 1, 61, 80
1, 39287, Note_on_c, 0, 79, 0
1, 39288, Note_on_c, 0, 83, 80
1, 39311, Note_on_c, 0, 83, 0
1, 39312, Note_on_c, 0, 81, 80
1, 39335, Note_on_c, 0, 81, 0
1, 39336, Note_on_c, 0, 79, 80
1, 39353, Note_on_c, 1, 61, 0
1, 39359, Note_on_c, 0, 79, 0
1, 39360, Note_on_c, 0, 79, 80
1, 39360, Note_on_c, 1, 62, 80
1, 39383, Note_on_c, 0, 79, 0
1, 39384, Note_on_c, 0, 78, 78
1, 39407, Note_on_c, 0, 78, 0
1, 39408, Note_on_c, 0, 76, 77
1, 39431, Note_on_c, 0, 76, 0
1, 39432, Note_on_c, 0, 74, 75
1, 39449, Note_on_c, 1, 62, 0
1, 39455, Note_on_c, 0, 74, 0
1, 39456, Note_on_c, 0, 79, 74
1, 39456, Note_on_c, 1, 59, 69
1, 39476, Note_on_c, 0, 79, 0
1, 39504, Note_on_c, 0, 79, 74
1, 39545, Note_on_c, 1, 59, 0
1, 39552, Note_on_c, 1, 61, 69
1, 39575, Note_on_c, 0, 79, 0
1, 39576, Note_on_c, 0, 83, 74
1, 39599, Note_on_c, 0, 83, 0
1, 39600, Note_on_c, 0, 81, 74
1, 39623, Note_on_c, 0, 81, 0
1, 39624, Note_on_c, 0, 79, 74
1, 39641, Note_on_c, 1, 61, 0
1, 39647, Note_on_c, 0, 79, 0
1, 39648, Note_on_c, 0, 79, 74
1, 39648, Note_on_c, 1, 62, 69
1, 39671, Note_on_c, 0, 79, 0
1, 39672, Note_on_c, 0, 78, 75
1, 39695, Note_on_c, 0, 78, 0
1, 39696, Note_on_c, 0, 76, 77
1, 39719, Note_on_c, 0, 76, 0
1, 39720, Note_on_c, 0, 74, 78
1, 39737, Note_on_c, 1, 62, 0
1, 39743, Note_on_c, 0, 74, 0
1, 39744, Note_on_c, 0, 73, 80
1, 39744, Note_on_c, 1, 55, 80
1, 39767, Note_on_c, 0, 73, 0
1, 39768, Note_on_c, 0, 74, 80
1, 39791, Note_on_c, 0, 74, 0
1, 39792, Note_on_c, 0, 71, 80
1, 39815, Note_on_c, 0, 71, 0
1, 39816, Note_on_c, 0, 67, 80
1, 39833, Note_on_c, 1, 55, 0
1, 39839, Note_on_c, 0, 67, 0
1, 39840, Note_on_c, 0, 66, 80
1, 39840, Note_on_c, 1, 57, 80
1, 39929, Note_on_c, 0, 66, 0
1, 39929, Note_on_c, 1, 57, 0
1, 39936, Note_on_c, 0, 64, 80
1, 39936, Note_on_c, 1, 45, 80
1, 39949, Note_on_c, 0, 64, 0
1, 39950, Note_on_c, 0, 66, 80
1, 39963, Note_on_c, 0, 66, 0
1, 39964, Note_on_c, 0, 64, 80
1, 39977, Note_on_c, 0, 64, 0
1, 39978, Note_on_c, 0, 66, 80
1, 39991, Note_on_c, 0, 66, 0
1, 39992, Note_on_c, 0, 64, 80
1, 40005, Note_on_c, 0, 64, 0
1, 40006, Note_on_c, 0, 62, 80
1, 40018, Note_on_c, 0, 62, 0
1, 40019, Note_on_c, 0, 64, 80
1, 40025, Note_on_c, 1, 45, 0
1, 40031, Note_on_c, 0, 64, 0
1, 40032, Note_on_c, 0, 62, 80
1, 40032, Note_on_c, 1, 50, 80
1, 40121, Note_on_c, 1, 50, 0
1, 40128, Note_on_c, 1, 45, 80
1, 40209, Note_on_c, 0, 62, 0
1, 40217, Note_on_c, 1, 45, 0
1, 40224, Note_on_c, 1, 38, 80
1, 40313, Note_on_c, 1, 38, 0
1, 40320, Note_on_c, 0, 83, 80
1, 40335, Note_on_c, 0, 83, 0
1, 40336, Note_on_c, 0, 81, 80
1, 40351, Note_on_c, 0, 81, 0
1, 40352, Note_on_c, 0, 83, 80
1, 40367, Note_on_c, 0, 83, 0
1, 40368, Note_on_c, 0, 81, 80
1, 40382, Note_on_c, 0, 81, 0
1, 40383, Note_on_c, 0, 83, 80
1, 40397, Note_on_c, 0, 83, 0
1, 40398, Note_on_c, 0, 81, 80
1, 40412, Note_on_c, 0, 81, 0
1, 40413, Note_on_c, 0, 83, 80
1, 40416, Note_on_c, 1, 57, 80
1, 40427, Note_on_c, 0, 83, 0
1, 40428, Note_on_c, 0, 81, 80
1, 40439, Note_on_c, 1, 57, 0
1, 40440, Note_on_c, 1, 61, 80
1, 40442, Note_on_c, 0, 81, 0
1, 40443, Note_on_c, 0, 83, 80
1, 40457, Note_on_c, 0, 83, 0
1, 40458, Note_on_c, 0, 81, 80
1, 40463, Note_on_c, 1, 61, 0
1, 40464, Note_on_c, 1, 64, 80
1, 40472, Note_on_c, 0, 81, 0
1, 40473, Note_on_c, 0, 83, 80
1, 40487, Note_on_c, 0, 83, 0
1, 40487, Note_on_c, 1, 64, 0
1, 40488, Note_on_c, 0, 81, 80
1, 40488, Note_on_c, 1, 69, 80
1, 40502, Note_on_c, 0, 81, 0
1, 40503, Note_on_c, 0, 83, 80
1, 40511, Note_on_c, 1, 69, 0
1, 40512, Note_on_c, 1, 59, 80
1, 40517, Note_on_c, 0, 83, 0
1, 40518, Note_on_c, 0, 81, 80
1, 40532, Note_on_c, 0, 81, 0
1, 40533, Note_on_c, 0, 83, 80
1, 40535, Note_on_c, 1, 59, 0
1, 40536, Note_on_c, 1, 62, 80
1, 40547, Note_on_c, 0, 83, 0
1, 40548, Note_on_c, 0, 81, 80
1, 40559, Note_on_c, 1, 62, 0
1, 40560, Note_on_c, 1, 64, 80
1, 40562, Note_on_c, 0, 81, 0
1, 40563, Note_on_c, 0, 83, 80
1, 40577, Note_on_c, 0, 83, 0
1, 40578, Note_on_c, 0, 81, 80
1, 40583, Note_on_c, 1, 64, 0
1, 40584, Note_on_c, 1, 69, 80
1, 40592, Note_on_c, 0, 81, 0
1, 40593, Note_on_c, 0, 83, 80
1, 40607, Note_on_c, 1, 69, 0
1, 40608, Note_on_c, 0, 83, 0
1, 40608, Note_on_c, 0, 81, 80
1, 40608, Note_on_c, 1, 61, 80
1, 40697, Note_on_c, 0, 81, 0
1, 40697, Note_on_c, 1, 61, 0
1, 40704, Note_on_c, 0, 69, 80
1, 40749, Note_on_c, 0, 69, 0
1, 40752, Note_on_c, 0, 71, 80
1, 40775, Note_on_c, 0, 71, 0
1, 40776, Note_on_c, 0, 73, 80
1, 40799, Note_on_c, 0, 73, 0
1, 40800, Note_on_c, 0, 74, 80
1, 40823, Note_on_c, 0, 74, 0
1, 40824, Note_on_c, 0, 76, 80
1, 40847, Note_on_c, 0, 76, 0
1, 40848, Note_on_c, 0, 78, 80
1, 40871, Note_on_c, 0, 78, 0
1, 40872, Note_on_c, 0, 80, 80
1, 40895, Note_on_c, 0, 80, 0
1, 40896, Note_on_c, 0, 83, 80
1, 40911, Note_on_c, 0, 83, 0
1, 40912, Note_on_c, 0, 81, 80
1, 40927, Note_on_c, 0, 81, 0
1, 40928, Note_on_c, 0, 83, 80
1, 40943, Note_on_c, 0, 83, 0
1, 40944, Note_on_c, 0, 81, 80
1, 40958, Note_on_c, 0, 81, 0
1, 40959, Note_on_c, 0, 83, 80
1, 40973, Note_on_c, 0, 83, 0
1, 40974, Note_on_c, 0, 81, 80
1, 40988, Note_on_c, 0, 81, 0
1, 40989, Note_on_c, 0, 83, 80
1, 40992, Note_on_c, 1, 57, 80
1, 41003, Note_on_c, 0, 83, 0
1, 41004, Note_on_c, 0, 81, 80
1, 41015, Note_on_c, 1, 57, 0
1, 41016, Note_on_c, 1, 61, 80
1, 41018, Note_on_c, 0, 81, 0
1, 41019, Note_on_c, 0, 83, 80
1, 41033, Note_on_c, 0, 83, 0
1, 41034, Note_on_c, 0, 81, 80
1, 41039, Note_on_c, 1, 61, 0
1, 41040, Note_on_c, 1, 64, 80
1, 41048, Note_on_c, 0, 81, 0
1, 41049, Note_on_c, 0, 83, 80
1, 41063, Note_on_c, 0, 83, 0
1, 41063, Note_on_c, 1, 64, 0
1, 41064, Note_on_c, 0, 81, 80
1, 41064, Note_on_c, 1, 69, 80
1, 41078, Note_on_c, 0, 81, 0
1, 41079, Note_on_c, 0, 83, 80
1, 41087, Note_on_c, 1, 69, 0
1, 41088, Note_on_c, 1, 59, 80
1, 41093, Note_on_c, 0, 83, 0
1, 41094, Note_on_c, 0, 81, 80
1, 41108, Note_on_c, 0, 81, 0
1, 41109, Note_on_c, 0, 83, 80
1, 41111, Note_on_c, 1, 59, 0
1, 41112, Note_on_c, 1, 62, 80
1, 41123, Note_on_c, 0, 83, 0
1, 41124, Note_on_c, 0, 81, 80
1, 41135, Note_on_c, 1, 62, 0
1, 41136, Note_on_c, 1, 64, 80
1, 41138, Note_on_c, 0, 81, 0
1, 41139, Note_on_c, 0, 83, 80
1, 41153, Note_on_c, 0, 83, 0
1, 41154, Note_on_c, 0, 81, 80
1, 41159, Note_on_c, 1, 64, 0
1, 41160, Note_on_c, 1, 69, 80
1, 41168, Note_on_c, 0, 81, 0
1, 41169, Note_on_c, 0, 83, 80
1, 41183, Note_on_c, 0, 83, 0
1, 41183, Note_on_c, 1, 69, 0
1, 41184, Note_on_c, 0, 81, 80
1, 41184, Note_on_c, 1, 61, 80
1, 41273, Note_on_c, 0, 81, 0
1, 41273, Note_on_c, 1, 61, 0
1, 41280, Note_on_c, 0, 69, 80
1, 41303, Note_on_c, 0, 69, 0
1, 41304, Note_on_c, 0, 71, 80
1, 41327, Note_on_c, 0, 71, 0
1, 41328, Note_on_c, 0, 73, 80
1, 41351, Note_on_c, 0, 73, 0
1, 41352, Note_on_c, 0, 74, 80
1, 41375, Note_on_c, 0, 74, 0
1, 41376, Note_on_c, 0, 76, 80
1, 41399, Note_on_c, 0, 76, 0
1, 41400, Note_on_c, 0, 78, 80
1, 41423, Note_on_c, 0, 78, 0
1, 41424, Note_on_c, 0, 79, 80
1, 41447, Note_on_c, 0, 79, 0
1, 41448, Note_on_c, 0, 81, 80
1, 41471, Note_on_c, 0, 81, 0
1, 41472, Note_on_c, 0, 78, 80
1, 41472, Note_on_c, 1, 62, 80
1, 41495, Note_on_c, 0, 78, 0
1, 41496, Note_on_c, 0, 74, 80
1, 41519, Note_on_c, 0, 74, 0
1, 41520, Note_on_c, 0, 73, 81
1, 41543, Note_on_c, 0, 73, 0
1, 41544, Note_on_c, 0, 74, 81
1, 41561, Note_on_c, 1, 62, 0
1, 41567, Note_on_c, 0, 74, 0
1, 41568, Note_on_c, 0, 81, 82
1, 41568, Note_on_c, 1, 66, 82
1, 41591, Note_on_c, 0, 81, 0
1, 41592, Note_on_c, 0, 78, 82
1, 41615, Note_on_c, 0, 78, 0
1, 41616, Note_on_c, 0, 76, 83
1, 41639, Note_on_c, 0, 76, 0
1, 41640, Note_on_c, 0, 74, 84
1, 41657, Note_on_c, 1, 66, 0
1, 41663, Note_on_c, 0, 74, 0
1, 41664, Note_on_c, 0, 83, 84
1, 41664, Note_on_c, 1, 67, 84
1, 41687, Note_on_c, 0, 83, 0
1, 41688, Note_on_c, 0, 79, 85
1, 41711, Note_on_c, 0, 79, 0
1, 41712, Note_on_c, 0, 78, 85
1, 41735, Note_on_c, 0, 78, 0
1, 41736, Note_on_c, 0, 76, 86
1, 41753, Note_on_c, 1, 67, 0
1, 41759, Note_on_c, 0, 76, 0
1, 41760, Note_on_c, 0, 74, 87
1, 41760, Note_on_c, 1, 69, 87
1, 41849, Note_on_c, 1, 69, 0
1, 41856, Note_on_c, 0, 74, 0
1, 41856, Note_on_c, 0, 73, 87
1, 41856, Note_on_c, 1, 64, 87
1, 41945, Note_on_c, 0, 73, 0
1, 41945, Note_on_c, 1, 64, 0
1, 41952, Note_on_c, 1, 57, 87
1, 42041, Note_on_c, 1, 57, 0
1, 42048, Note_on_c, 0, 57, 96
1, 42144, Note_on_c, 0, 57, 0
1, 42144, Note_on_c, 0, 62, 80
1, 42144, Note_on_c, 1, 54, 80
1, 42233, Note_on_c, 1, 54, 0
1, 42240, Note_on_c, 1, 50, 80
1, 42307, Note_on_c, 0, 62, 0
1, 42312, Note_on_c, 0, 66, 80
1, 42329, Note_on_c, 1, 50, 0
1, 42335, Note_on_c, 0, 66, 0
1, 42336, Note_on_c, 0, 66, 80
1, 42336, Note_on_c, 1, 52, 80
1, 42403, Note_on_c, 0, 66, 0
1, 42408, Note_on_c, 0, 67, 80
1, 42425, Note_on_c, 1, 52, 0
1, 42431, Note_on_c, 0, 67, 0
1, 42432, Note_on_c, 0, 62, 80
1, 42432, Note_on_c, 1, 57, 80
1, 42521, Note_on_c, 1, 57, 0
1, 42528, Note_on_c, 0, 62, 0
1, 42528, Note_on_c, 0, 61, 80
1, 42528, Note_on_c, 1, 55, 80
1, 42617, Note_on_c, 0, 61, 0
1, 42617, Note_on_c, 1, 55, 0
1, 42624, Note_on_c, 1, 54, 80
1, 42648, Note_on_c, 0, 62, 80
1, 42671, Note_on_c, 0, 62, 0
1, 42672, Note_on_c, 0, 64, 80
1, 42695, Note_on_c, 0, 64, 0
1, 42696, Note_on_c, 0, 66, 81
1, 42719, Note_on_c, 0, 66, 0
1, 42720, Note_on_c, 0, 67, 82
1, 42743, Note_on_c, 0, 67, 0
1, 42744, Note_on_c, 0, 69, 82
1, 42767, Note_on_c, 0, 69, 0
1, 42768, Note_on_c, 0, 71, 83
1, 42791, Note_on_c, 0, 71, 0
1, 42792, Note_on_c, 0, 73, 84
1, 42801, Note_on_c, 1, 54, 0
1, 42815, Note_on_c, 0, 73, 0
1, 42816, Note_on_c, 0, 74, 84
1, 42816, Note_on_c, 1, 50, 80
1, 42839, Note_on_c, 0, 74, 0
1, 42840, Note_on_c, 0, 76, 85
1, 42863, Note_on_c, 0, 76, 0
1, 42864, Note_on_c, 0, 78, 86
1, 42887, Note_on_c, 0, 78, 0
1, 42888, Note_on_c, 0, 74, 87
1, 42905, Note_on_c, 1, 50, 0
1, 42911, Note_on_c, 0, 74, 0
1, 42912, Note_on_c, 0, 69, 86
1, 42912, Note_on_c, 1, 52, 80
1, 43001, Note_on_c, 0, 69, 0
1, 43001, Note_on_c, 1, 52, 0
1, 43008, Note_on_c, 0, 67, 84
1, 43008, Note_on_c, 1, 61, 80
1, 43021, Note_on_c, 0, 67, 0
1, 43022, Note_on_c, 0, 69, 84
1, 43035, Note_on_c, 0, 69, 0
1, 43036, Note_on_c, 0, 67, 83
1, 43049, Note_on_c, 0, 67, 0
1, 43050, Note_on_c, 0, 69, 83
1, 43063, Note_on_c, 0, 69, 0
1, 43064, Note_on_c, 0, 67, 83
1, 43077, Note_on_c, 0, 67, 0
1, 43078, Note_on_c, 0, 66, 82
1, 43090, Note_on_c, 0, 66, 0
1, 43091, Note_on_c, 0, 67, 82
1, 43097, Note_on_c, 1, 61, 0
1, 43103, Note_on_c, 0, 67, 0
1, 43104, Note_on_c, 0, 66, 82
1, 43104, Note_on_c, 1, 62, 80
1, 43193, Note_on_c, 0, 66, 0
1, 43193, Note_on_c, 1, 62, 0
1, 43200, Note_on_c, 0, 79, 80
1, 43200, Note_on_c, 1, 59, 80
1, 43220, Note_on_c, 0, 79, 0
1, 43248, Note_on_c, 0, 79, 80
1, 43289, Note_on_c, 1, 59, 0
1, 43296, Note_on_c, 1, 61, 80
1, 43319, Note_on_c, 0, 79, 0
1, 43320, Note_on_c, 0, 83, 80
1, 43343, Note_on_c, 0, 83, 0
1, 43344, Note_on_c, 0, 81, 80
1, 43367, Note_on_c, 0, 81, 0
1, 43368, Note_on_c, 0, 79, 80
1, 43385, Note_on_c, 1, 61, 0
1, 43391, Note_on_c, 0, 79, 0
1, 43392, Note_on_c, 0, 79, 80
1, 43392, Note_on_c, 1, 62, 80
1, 43415, Note_on_c, 0, 79, 0
1, 43416, Note_on_c, 0, 78, 78
1, 43439, Note_on_c, 0, 78, 0
1, 43440, Note_on_c, 0, 76, 77
1, 43463, Note_on_c, 0, 76, 0
1, 43464, Note_on_c, 0, 74, 75
1, 43481, Note_on_c, 1, 62, 0
1, 43487, Note_on_c, 0, 74, 0
1, 43488, Note_on_c, 0, 79, 74
1, 43488, Note_on_c, 1, 59, 69
1, 43508, Note_on_c, 0, 79, 0
1, 43536, Note_on_c, 0, 79, 74
1, 43577, Note_on_c, 1, 59, 0
1, 43584, Note_on_c, 1, 61, 69
1, 43607, Note_on_c, 0, 79, 0
1, 43608, Note_on_c, 0, 83, 74
1, 43631, Note_on_c, 0, 83, 0
1, 43632, Note_on_c, 0, 81, 74
1, 43655, Note_on_c, 0, 81, 0
1, 43656, Note_on_c, 0, 79, 74
1, 43673, Note_on_c, 1, 61, 0
1, 43679, Note_on_c, 0, 79, 0
1, 43680, Note_on_c, 0, 79, 74
1, 43680, Note_on_c, 1, 62, 69
1, 43703, Note_on_c, 0, 79, 0
1, 43704, Note_on_c, 0, 78, 75
1, 43727, Note_on_c, 0, 78, 0
1, 43728, Note_on_c, 0, 76, 77
1, 43751, Note_on_c, 0, 76, 0
1, 43752, Note_on_c, 0, 74, 78
1, 43769, Note_on_c, 1, 62, 0
1, 43775, Note_on_c, 0, 74, 0
1, 43776, Note_on_c, 0, 73, 80
1, 43776, Note_on_c, 1, 55, 80
1, 43799, Note_on_c, 0, 73, 0
1, 43800, Note_on_c, 0, 74, 80
1, 43823, Note_on_c, 0, 74, 0
1, 43824, Note_on_c, 0, 71, 80
1, 43847, Note_on_c, 0, 71, 0
1, 43848, Note_on_c, 0, 67, 80
1, 43865, Note_on_c, 1, 55, 0
1, 43871, Note_on_c, 0, 67, 0
1, 43872, Note_on_c, 0, 66, 80
1, 43872, Note_on_c, 1, 57, 80
1, 43961, Note_on_c, 0, 66, 0
1, 43961, Note_on_c, 1, 57, 0
1, 43968, Note_on_c, 0, 64, 80
1, 43968, Note_on_c, 1, 45, 80
1, 43981, Note_on_c, 0, 64, 0
1, 43982, Note_on_c, 0, 66, 80
1, 43995, Note_on_c, 0, 66, 0
1, 43996, Note_on_c, 0, 64, 80
1, 44009, Note_on_c, 0, 64, 0
1, 44010, Note_on_c, 0, 66, 80
1, 44023, Note_on_c, 0, 66, 0
1, 44024, Note_on_c, 0, 64, 80
1, 44037, Note_on_c, 0, 64, 0
1, 44038, Note_on_c, 0, 62, 80
1, 44050, Note_on_c, 0, 62, 0
1, 44051, Note_on_c, 0, 64, 80
1, 44057, Note_on_c, 1, 45, 0
1, 44063, Note_on_c, 0, 64, 0
1, 44064, Note_on_c, 0, 62, 80
1, 44064, Note_on_c, 1, 50, 80
1, 44153, Note_on_c, 1, 50, 0
1, 44160, Note_on_c, 1, 45, 80
1, 44241, Note_on_c, 0, 62, 0
1, 44249, Note_on_c, 1, 45, 0
1, 44256, Note_on_c, 1, 38, 80
1, 44345, Note_on_c, 1, 38, 0
1, 44352, Note_on_c, 1, 38, 0
1, 44441, Note_on_c, 1, 38, 0
1, 44451, End_track
0, 0, End_of_file