0, 0, Header, 0, 1, 96
1, 0, Start_track
1, 0, Tempo, 461538
1, 0, Note_on_c, 0, 74, 80
1, 0, Note_on_c, 0, 71, 72
1, 0, Note_on_c, 0, 67, 72
1, 94, Note_on_c, 0, 71, 0
1, 94, Note_on_c, 0, 67, 0
1, 96, Note_on_c, 0, 71, 72
1, 96, Note_on_c, 0, 67, 72
1, 190, Note_on_c, 0, 71, 0
1, 190, Note_on_c, 0, 67, 0
1, 192, Note_on_c, 0, 74, 0
1, 192, Note_on_c, 0, 76, 64
1, 192, Note_on_c, 0, 72, 72
1, 192, Note_on_c, 0, 67, 72
1, 222, Note_on_c, 0, 76, 0
1, 224, Note_on_c, 0, 78, 64
1, 254, Note_on_c, 0, 78, 0
1, 256, Note_on_c, 0, 79, 64
1, 286, Note_on_c, 0, 79, 0
1, 286, Note_on_c, 0, 72, 0
1, 286, Note_on_c, 0, 67, 0
1, 288, Note_on_c, 0, 74, 80
1, 288, Note_on_c, 0, 71, 72
1, 288, Note_on_c, 0, 67, 72
1, 382, Note_on_c, 0, 71, 0
1, 382, Note_on_c, 0, 67, 0
1, 384, Note_on_c, 0, 74, 0
1, 384, Note_on_c, 0, 79, 64
1, 414, Note_on_c, 0, 79, 0
1, 416, Note_on_c, 0, 83, 64
1, 446, Note_on_c, 0, 83, 0
1, 448, Note_on_c, 0, 81, 64
1, 478, Note_on_c, 0, 81, 0
1, 480, Note_on_c, 0, 79, 64
1, 510, Note_on_c, 0, 79, 0
1, 512, Note_on_c, 0, 78, 64
1, 542, Note_on_c, 0, 78, 0
1, 544, Note_on_c, 0, 76, 64
1, 574, Note_on_c, 0, 76, 0
1, 576, Note_on_c, 0, 74, 80
1, 576, Note_on_c, 0, 71, 72
1, 576, Note_on_c, 0, 67, 72
1, 670, Note_on_c, 0, 71, 0
1, 670, Note_on_c, 0, 67, 0
1, 672, Note_on_c, 0, 71, 72
1, 672, Note_on_c, 0, 67, 72
1, 766, Note_on_c, 0, 71, 0
1, 766, Note_on_c, 0, 67, 0
1, 768, Note_on_c, 0, 74, 0
1, 768, Note_on_c, 0, 76, 64
1, 768, Note_on_c, 0, 72, 72
1, 768, Note_on_c, 0, 67, 72
1, 798, Note_on_c, 0, 76, 0
1, 800, Note_on_c, 0, 78, 64
1, 830, Note_on_c, 0, 78, 0
1, 832, Note_on_c, 0, 79, 64
1, 862, Note_on_c, 0, 79, 0
1, 862, Note_on_c, 0, 72, 0
1, 862, Note_on_c, 0, 67, 0
1, 864, Note_on_c, 0, 74, 64
1, 864, Note_on_c, 0, 71, 72
1, 864, Note_on_c, 0, 67, 72
1, 953, Note_on_c, 0, 74, 0
1, 958, Note_on_c, 0, 71, 0
1, 958, Note_on_c, 0, 67, 0
1, 1152, Note_on_c, 0, 54, 64
1, 1200, Note_on_c, 0, 72, 64
1, 1241, Note_on_c, 0, 54, 0
1, 1245, Note_on_c, 0, 72, 0
1, 1248, Note_on_c, 0, 76, 64
1, 1293, Note_on_c, 0, 76, 0
1, 1296, Note_on_c, 0, 72, 64
1, 1341, Note_on_c, 0, 72, 0
1, 1344, Note_on_c, 0, 71, 64
1, 1356, Note_on_c, 0, 71, 0
1, 1356, Note_on_c, 0, 72, 64
1, 1368, Note_on_c, 0, 72, 0
1, 1368, Note_on_c, 0, 71, 64
1, 1380, Note_on_c, 0, 71, 0
1, 1380, Note_on_c, 0, 72, 64
1, 1392, Note_on_c, 0, 72, 0
1, 1392, Note_on_c, 0, 69, 64
1, 1437, Note_on_c, 0, 69, 0
1, 1440, Note_on_c, 0, 55, 64
1, 1488, Note_on_c, 0, 71, 64
1, 1529, Note_on_c, 0, 55, 0
1, 1533, Note_on_c, 0, 71, 0
1, 1536, Note_on_c, 0, 74, 64
1, 1581, Note_on_c, 0, 74, 0
1, 1584, Note_on_c, 0, 71, 64
1, 1629, Note_on_c, 0, 71, 0
1, 1632, Note_on_c, 0, 69, 64
1, 1644, Note_on_c, 0, 69, 0
1, 1644, Note_on_c, 0, 71, 64
1, 1656, Note_on_c, 0, 71, 0
1, 1656, Note_on_c, 0, 69, 64
1, 1668, Note_on_c, 0, 69, 0
1, 1668, Note_on_c, 0, 71, 64
1, 1680, Note_on_c, 0, 71, 0
1, 1680, Note_on_c, 0, 67, 64
1, 1725, Note_on_c, 0, 67, 0
1, 1728, Note_on_c, 0, 71, 64
1, 1728, Note_on_c, 0, 60, 64
1, 1773, Note_on_c, 0, 71, 0
1, 1776, Note_on_c, 0, 69, 64
1, 1817, Note_on_c, 0, 60, 0
1, 1821, Note_on_c, 0, 69, 0
1, 1824, Note_on_c, 0, 67, 64
1, 1824, Note_on_c, 0, 62, 64
1, 1913, Note_on_c, 0, 67, 0
1, 1913, Note_on_c, 0, 62, 0
1, 1920, Note_on_c, 0, 66, 64
1, 1920, Note_on_c, 0, 50, 64
1, 1933, Note_on_c, 0, 66, 0
1, 1934, Note_on_c, 0, 67, 64
1, 1947, Note_on_c, 0, 67, 0
1, 1948, Note_on_c, 0, 66, 64
1, 1961, Note_on_c, 0, 66, 0
1, 1962, Note_on_c, 0, 67, 64
1, 1975, Note_on_c, 0, 67, 0
1, 1976, Note_on_c, 0, 66, 64
1, 1989, Note_on_c, 0, 66, 0
1, 1990, Note_on_c, 0, 64, 64
1, 2002, Note_on_c, 0, 64, 0
1, 2003, Note_on_c, 0, 66, 64
1, 2009, Note_on_c, 0, 50, 0
1, 2015, Note_on_c, 0, 66, 0
1, 2016, Note_on_c, 0, 67, 64
1, 2016, Note_on_c, 0, 55, 64
1, 2105, Note_on_c, 0, 55, 0
1, 2112, Note_on_c, 0, 50, 64
1, 2193, Note_on_c, 0, 67, 0
1, 2201, Note_on_c, 0, 50, 0
1, 2208, Note_on_c, 0, 43, 64
1, 2297, Note_on_c, 0, 43, 0
1, 2304, Note_on_c, 0, 74, 80
1, 2304, Note_on_c, 0, 71, 72
1, 2304, Note_on_c, 0, 67, 72
1, 2398, Note_on_c, 0, 71, 0
1, 2398, Note_on_c, 0, 67, 0
1, 2400, Note_on_c, 0, 71, 72
1, 2400, Note_on_c, 0, 67, 72
1, 2494, Note_on_c, 0, 71, 0
1, 2494, Note_on_c, 0, 67, 0
1, 2496, Note_on_c, 0, 74, 0
1, 2496, Note_on_c, 0, 76, 64
1, 2496, Note_on_c, 0, 72, 72
1, 2496, Note_on_c, 0, 67, 72
1, 2526, Note_on_c, 0, 76, 0
1, 2528, Note_on_c, 0, 78, 64
1, 2558, Note_on_c, 0, 78, 0
1, 2560, Note_on_c, 0, 79, 64
1, 2590, Note_on_c, 0, 79, 0
1, 2590, Note_on_c, 0, 72, 0
1, 2590, Note_on_c, 0, 67, 0
1, 2592, Note_on_c, 0, 74, 80
1, 2592, Note_on_c, 0, 71, 72
1, 2592, Note_on_c, 0, 67, 72
1, 2686, Note_on_c, 0, 71, 0
1, 2686, Note_on_c, 0, 67, 0
1, 2688, Note_on_c, 0, 74, 0
1, 2688, Note_on_c, 0, 79, 64
1, 2718, Note_on_c, 0, 79, 0
1, 2720, Note_on_c, 0, 83, 64
1, 2750, Note_on_c, 0, 83, 0
1, 2752, Note_on_c, 0, 81, 64
1, 2782, Note_on_c, 0, 81, 0
1, 2784, Note_on_c, 0, 79, 64
1, 2814, Note_on_c, 0, 79, 0
1, 2816, Note_on_c, 0, 78, 64
1, 2846, Note_on_c, 0, 78, 0
1, 2848, Note_on_c, 0, 76, 64
1, 2878, Note_on_c, 0, 76, 0
1, 2880, Note_on_c, 0, 74, 80
1, 2880, Note_on_c, 0, 71, 72
1, 2880, Note_on_c, 0, 67, 72
1, 2974, Note_on_c, 0, 71, 0
1, 2974, Note_on_c, 0, 67, 0
1, 2976, Note_on_c, 0, 71, 72
1, 2976, Note_on_c, 0, 67, 72
1, 3070, Note_on_c, 0, 71, 0
1, 3070, Note_on_c, 0, 67, 0
1, 3072, Note_on_c, 0, 74, 0
1, 3072, Note_on_c, 0, 76, 64
1, 3072, Note_on_c, 0, 72, 72
1, 3072, Note_on_c, 0, 67, 72
1, 3102, Note_on_c, 0, 76, 0
1, 3104, Note_on_c, 0, 78, 64
1, 3134, Note_on_c, 0, 78, 0
1, 3136, Note_on_c, 0, 79, 64
1, 3166, Note_on_c, 0, 79, 0
1, 3166, Note_on_c, 0, 72, 0
1, 3166, Note_on_c, 0, 67, 0
1, 3168, Note_on_c, 0, 74, 64
1, 3168, Note_on_c, 0, 71, 72
1, 3168, Note_on_c, 0, 67, 72
1, 3257, Note_on_c, 0, 74, 0
1, 3262, Note_on_c, 0, 71, 0
1, 3262, Note_on_c, 0, 67, 0
1, 3456, Note_on_c, 0, 54, 64
1, 3504, Note_on_c, 0, 72, 64
1, 3545, Note_on_c, 0, 54, 0
1, 3549, Note_on_c, 0, 72, 0
1, 3552, Note_on_c, 0, 76, 64
1, 3597, Note_on_c, 0, 76, 0
1, 3600, Note_on_c, 0, 72, 64
1, 3645, Note_on_c, 0, 72, 0
1, 3648, Note_on_c, 0, 71, 64
1, 3660, Note_on_c, 0, 71, 0
1, 3660, Note_on_c, 0, 72, 64
1, 3672, Note_on_c, 0, 72, 0
1, 3672, Note_on_c, 0, 71, 64
1, 3684, Note_on_c, 0, 71, 0
1, 3684, Note_on_c, 0, 72, 64
1, 3696, Note_on_c, 0, 72, 0
1, 3696, Note_on_c, 0, 69, 64
1, 3741, Note_on_c, 0, 69, 0
1, 3744, Note_on_c, 0, 55, 64
1, 3792, Note_on_c, 0, 71, 64
1, 3833, Note_on_c, 0, 55, 0
1, 3837, Note_on_c, 0, 71, 0
1, 3840, Note_on_c, 0, 74, 64
1, 3885, Note_on_c, 0, 74, 0
1, 3888, Note_on_c, 0, 71, 64
1, 3933, Note_on_c, 0, 71, 0
1, 3936, Note_on_c, 0, 69, 64
1, 3948, Note_on_c, 0, 69, 0
1, 3948, Note_on_c, 0, 71, 64
1, 3960, Note_on_c, 0, 71, 0
1, 3960, Note_on_c, 0, 69, 64
1, 3972, Note_on_c, 0, 69, 0
1, 3972, Note_on_c, 0, 71, 64
1, 3984, Note_on_c, 0, 71, 0
1, 3984, Note_on_c, 0, 67, 64
1, 4029, Note_on_c, 0, 67, 0
1, 4032, Note_on_c, 0, 71, 64
1, 4032, Note_on_c, 0, 60, 64
1, 4077, Note_on_c, 0, 71, 0
1, 4080, Note_on_c, 0, 69, 64
1, 4121, Note_on_c, 0, 60, 0
1, 4125, Note_on_c, 0, 69, 0
1, 4128, Note_on_c, 0, 67, 64
1, 4128, Note_on_c, 0, 62, 64
1, 4217, Note_on_c, 0, 67, 0
1, 4217, Note_on_c, 0, 62, 0
1, 4224, Note_on_c, 0, 66, 64
1, 4224, Note_on_c, 0, 50, 64
1, 4237, Note_on_c, 0, 66, 0
1, 4238, Note_on_c, 0, 67, 64
1, 4251, Note_on_c, 0, 67, 0
1, 4252, Note_on_c, 0, 66, 64
1, 4265, Note_on_c, 0, 66, 0
1, 4266, Note_on_c, 0, 67, 64
1, 4279, Note_on_c, 0, 67, 0
1, 4280, Note_on_c, 0, 66, 64
1, 4293, Note_on_c, 0, 66, 0
1, 4294, Note_on_c, 0, 64, 64
1, 4306, Note_on_c, 0, 64, 0
1, 4307, Note_on_c, 0, 66, 64
1, 4313, Note_on_c, 0, 50, 0
1, 4319, Note_on_c, 0, 66, 0
1, 4320, Note_on_c, 0, 67, 64
1, 4320, Note_on_c, 0, 55, 64
1, 4409, Note_on_c, 0, 55, 0
1, 4416, Note_on_c, 0, 50, 64
1, 4497, Note_on_c, 0, 67, 0
1, 4505, Note_on_c, 0, 50, 0
1, 4512, Note_on_c, 0, 43, 64
1, 4601, Note_on_c, 0, 43, 0
1, 4608, Note_on_c, 0, 69, 64
1, 4608, Note_on_c, 0, 66, 64
1, 4608, Note_on_c, 0, 38, 64
1, 4653, Note_on_c, 0, 38, 0
1, 4656, Note_on_c, 0, 50, 64
1, 4701, Note_on_c, 0, 50, 0
1, 4704, Note_on_c, 0, 38, 64
1, 4749, Note_on_c, 0, 38, 0
1, 4752, Note_on_c, 0, 50, 64
1, 4785, Note_on_c, 0, 69, 0
1, 4785, Note_on_c, 0, 66, 0
1, 4797, Note_on_c, 0, 50, 0
1, 4800, Note_on_c, 0, 71, 64
1, 4800, Note_on_c, 0, 67, 64
1, 4800, Note_on_c, 0, 38, 64
1, 4845, Note_on_c, 0, 38, 0
1, 4848, Note_on_c, 0, 50, 64
1, 4889, Note_on_c, 0, 71, 0
1, 4889, Note_on_c, 0, 67, 0
1, 4893, Note_on_c, 0, 50, 0
1, 4896, Note_on_c, 0, 72, 80
1, 4896, Note_on_c, 0, 69, 80
1, 4896, Note_on_c, 0, 38, 64
1, 4941, Note_on_c, 0, 38, 0
1, 4944, Note_on_c, 0, 50, 64
1, 4989, Note_on_c, 0, 50, 0
1, 4992, Note_on_c, 0, 72, 0
1, 4992, Note_on_c, 0, 69, 0
1, 4992, Note_on_c, 0, 69, 64
1, 4992, Note_on_c, 0, 66, 64
1, 4992, Note_on_c, 0, 38, 64
1, 5037, Note_on_c, 0, 38, 0
1, 5040, Note_on_c, 0, 50, 64
1, 5081, Note_on_c, 0, 69, 0
1, 5081, Note_on_c, 0, 66, 0
1, 5085, Note_on_c, 0, 50, 0
1, 5088, Note_on_c, 0, 38, 64
1, 5133, Note_on_c, 0, 38, 0
1, 5136, Note_on_c, 0, 50, 64
1, 5181, Note_on_c, 0, 50, 0
1, 5184, Note_on_c, 0, 71, 64
1, 5184, Note_on_c, 0, 67, 64
1, 5184, Note_on_c, 0, 38, 64
1, 5229, Note_on_c, 0, 38, 0
1, 5232, Note_on_c, 0, 50, 64
1, 5277, Note_on_c, 0, 50, 0
1, 5280, Note_on_c, 0, 38, 64
1, 5325, Note_on_c, 0, 38, 0
1, 5328, Note_on_c, 0, 50, 64
1, 5361, Note_on_c, 0, 71, 0
1, 5361, Note_on_c, 0, 67, 0
1, 5373, Note_on_c, 0, 50, 0
1, 5376, Note_on_c, 0, 72, 64
1, 5376, Note_on_c, 0, 69, 64
1, 5376, Note_on_c, 0, 38, 64
1, 5421, Note_on_c, 0, 38, 0
1, 5424, Note_on_c, 0, 50, 64
1, 5465, Note_on_c, 0, 72, 0
1, 5465, Note_on_c, 0, 69, 0
1, 5469, Note_on_c, 0, 50, 0
1, 5472, Note_on_c, 0, 74, 80
1, 5472, Note_on_c, 0, 71, 80
1, 5472, Note_on_c, 0, 38, 64
1, 5517, Note_on_c, 0, 38, 0
1, 5520, Note_on_c, 0, 50, 64
1, 5565, Note_on_c, 0, 50, 0
1, 5568, Note_on_c, 0, 74, 0
1, 5568, Note_on_c, 0, 71, 0
1, 5568, Note_on_c, 0, 71, 64
1, 5568, Note_on_c, 0, 67, 64
1, 5568, Note_on_c, 0, 38, 64
1, 5613, Note_on_c, 0, 38, 0
1, 5616, Note_on_c, 0, 50, 64
1, 5657, Note_on_c, 0, 71, 0
1, 5657, Note_on_c, 0, 67, 0
1, 5661, Note_on_c, 0, 50, 0
1, 5664, Note_on_c, 0, 38, 64
1, 5709, Note_on_c, 0, 38, 0
1, 5712, Note_on_c, 0, 50, 64
1, 5757, Note_on_c, 0, 50, 0
1, 5760, Note_on_c, 0, 69, 64
1, 5760, Note_on_c, 0, 66, 64
1, 5760, Note_on_c, 0, 38, 64
1, 5805, Note_on_c, 0, 38, 0
1, 5808, Note_on_c, 0, 50, 64
1, 5849, Note_on_c, 0, 69, 0
1, 5849, Note_on_c, 0, 66, 0
1, 5853, Note_on_c, 0, 50, 0
1, 5856, Note_on_c, 0, 72, 64
1, 5856, Note_on_c, 0, 69, 64
1, 5856, Note_on_c, 0, 38, 64
1, 5901, Note_on_c, 0, 38, 0
1, 5904, Note_on_c, 0, 50, 64
1, 5945, Note_on_c, 0, 72, 0
1, 5945, Note_on_c, 0, 69, 0
1, 5949, Note_on_c, 0, 50, 0
1, 5952, Note_on_c, 0, 71, 64
1, 5952, Note_on_c, 0, 67, 64
1, 5952, Note_on_c, 0, 38, 64
1, 5997, Note_on_c, 0, 38, 0
1, 6000, Note_on_c, 0, 50, 64
1, 6041, Note_on_c, 0, 71, 0
1, 6041, Note_on_c, 0, 67, 0
1, 6045, Note_on_c, 0, 50, 0
1, 6048, Note_on_c, 0, 69, 64
1, 6048, Note_on_c, 0, 66, 64
1, 6048, Note_on_c, 0, 38, 64
1, 6137, Note_on_c, 0, 69, 0
1, 6137, Note_on_c, 0, 66, 0
1, 6137, Note_on_c, 0, 38, 0
1, 6336, Note_on_c, 0, 74, 80
1, 6336, Note_on_c, 0, 71, 72
1, 6336, Note_on_c, 0, 67, 72
1, 6430, Note_on_c, 0, 71, 0
1, 6430, Note_on_c, 0, 67, 0
1, 6432, Note_on_c, 0, 71, 72
1, 6432, Note_on_c, 0, 67, 72
1, 6526, Note_on_c, 0, 71, 0
1, 6526, Note_on_c, 0, 67, 0
1, 6528, Note_on_c, 0, 74, 0
1, 6528, Note_on_c, 0, 76, 64
1, 6528, Note_on_c, 0, 72, 72
1, 6528, Note_on_c, 0, 67, 72
1, 6558, Note_on_c, 0, 76, 0
1, 6560, Note_on_c, 0, 78, 64
1, 6590, Note_on_c, 0, 78, 0
1, 6592, Note_on_c, 0, 79, 64
1, 6622, Note_on_c, 0, 79, 0
1, 6622, Note_on_c, 0, 72, 0
1, 6622, Note_on_c, 0, 67, 0
1, 6624, Note_on_c, 0, 74, 80
1, 6624, Note_on_c, 0, 71, 72
1, 6624, Note_on_c, 0, 67, 72
1, 6718, Note_on_c, 0, 71, 0
1, 6718, Note_on_c, 0, 67, 0
1, 6720, Note_on_c, 0, 74, 0
1, 6720, Note_on_c, 0, 79, 64
1, 6750, Note_on_c, 0, 79, 0
1, 6752, Note_on_c, 0, 83, 64
1, 6782, Note_on_c, 0, 83, 0
1, 6784, Note_on_c, 0, 81, 64
1, 6814, Note_on_c, 0, 81, 0
1, 6816, Note_on_c, 0, 79, 64
1, 6846, Note_on_c, 0, 79, 0
1, 6848, Note_on_c, 0, 78, 64
1, 6878, Note_on_c, 0, 78, 0
1, 6880, Note_on_c, 0, 76, 64
1, 6910, Note_on_c, 0, 76, 0
1, 6912, Note_on_c, 0, 74, 80
1, 6912, Note_on_c, 0, 71, 72
1, 6912, Note_on_c, 0, 67, 72
1, 7006, Note_on_c, 0, 71, 0
1, 7006, Note_on_c, 0, 67, 0
1, 7008, Note_on_c, 0, 71, 72
1, 7008, Note_on_c, 0, 67, 72
1, 7102, Note_on_c, 0, 71, 0
1, 7102, Note_on_c, 0, 67, 0
1, 7104, Note_on_c, 0, 74, 0
1, 7104, Note_on_c, 0, 76, 64
1, 7104, Note_on_c, 0, 72, 72
1, 7104, Note_on_c, 0, 67, 72
1, 7134, Note_on_c, 0, 76, 0
1, 7136, Note_on_c, 0, 78, 64
1, 7166, Note_on_c, 0, 78, 0
1, 7168, Note_on_c, 0, 79, 64
1, 7198, Note_on_c, 0, 79, 0
1, 7198, Note_on_c, 0, 72, 0
1, 7198, Note_on_c, 0, 67, 0
1, 7200, Note_on_c, 0, 74, 64
1, 7200, Note_on_c, 0, 71, 72
1, 7200, Note_on_c, 0, 67, 72
1, 7289, Note_on_c, 0, 74, 0
1, 7294, Note_on_c, 0, 71, 0
1, 7294, Note_on_c, 0, 67, 0
1, 7488, Note_on_c, 0, 54, 64
1, 7536, Note_on_c, 0, 72, 64
1, 7577, Note_on_c, 0, 54, 0
1, 7581, Note_on_c, 0, 72, 0
1, 7584, Note_on_c, 0, 76, 64
1, 7629, Note_on_c, 0, 76, 0
1, 7632, Note_on_c, 0, 72, 64
1, 7677, Note_on_c, 0, 72, 0
1, 7680, Note_on_c, 0, 71, 64
1, 7692, Note_on_c, 0, 71, 0
1, 7692, Note_on_c, 0, 72, 64
1, 7704, Note_on_c, 0, 72, 0
1, 7704, Note_on_c, 0, 71, 64
1, 7716, Note_on_c, 0, 71, 0
1, 7716, Note_on_c, 0, 72, 64
1, 7728, Note_on_c, 0, 72, 0
1, 7728, Note_on_c, 0, 69, 64
1, 7773, Note_on_c, 0, 69, 0
1, 7776, Note_on_c, 0, 55, 64
1, 7824, Note_on_c, 0, 71, 64
1, 7865, Note_on_c, 0, 55, 0
1, 7869, Note_on_c, 0, 71, 0
1, 7872, Note_on_c, 0, 74, 64
1, 7917, Note_on_c, 0, 74, 0
1, 7920, Note_on_c, 0, 71, 64
1, 7965, Note_on_c, 0, 71, 0
1, 7968, Note_on_c, 0, 69, 64
1, 7980, Note_on_c, 0, 69, 0
1, 7980, Note_on_c, 0, 71, 64
1, 7992, Note_on_c, 0, 71, 0
1, 7992, Note_on_c, 0, 69, 64
1, 8004, Note_on_c, 0, 69, 0
1, 8004, Note_on_c, 0, 71, 64
1, 8016, Note_on_c, 0, 71, 0
1, 8016, Note_on_c, 0, 67, 64
1, 8061, Note_on_c, 0, 67, 0
1, 8064, Note_on_c, 0, 71, 64
1, 8064, Note_on_c, 0, 60, 64
1, 8109, Note_on_c, 0, 71, 0
1, 8112, Note_on_c, 0, 69, 64
1, 8153, Note_on_c, 0, 60, 0
1, 8157, Note_on_c, 0, 69, 0
1, 8160, Note_on_c, 0, 67, 64
1, 8160, Note_on_c, 0, 62, 64
1, 8249, Note_on_c, 0, 67, 0
1, 8249, Note_on_c, 0, 62, 0
1, 8256, Note_on_c, 0, 66, 64
1, 8256, Note_on_c, 0, 50, 64
1, 8269, Note_on_c, 0, 66, 0
1, 8270, Note_on_c, 0, 67, 64
1, 8283, Note_on_c, 0, 67, 0
1, 8284, Note_on_c, 0, 66, 64
1, 8297, Note_on_c, 0, 66, 0
1, 8298, Note_on_c, 0, 67, 64
1, 8311, Note_on_c, 0, 67, 0
1, 8312, Note_on_c, 0, 66, 64
1, 8325, Note_on_c, 0, 66, 0
1, 8326, Note_on_c, 0, 64, 64
1, 8338, Note_on_c, 0, 64, 0
1, 8339, Note_on_c, 0, 66, 64
1, 8345, Note_on_c, 0, 50, 0
1, 8351, Note_on_c, 0, 66, 0
1, 8352, Note_on_c, 0, 67, 64
1, 8352, Note_on_c, 0, 55, 64
1, 8441, Note_on_c, 0, 55, 0
1, 8448, Note_on_c, 0, 50, 64
1, 8529, Note_on_c, 0, 67, 0
1, 8537, Note_on_c, 0, 50, 0
1, 8544, Note_on_c, 0, 43, 64
1, 8633, Note_on_c, 0, 43, 0
1, 8640, Note_on_c, 0, 69, 64
1, 8640, Note_on_c, 0, 66, 64
1, 8640, Note_on_c, 0, 38, 64
1, 8685, Note_on_c, 0, 38, 0
1, 8688, Note_on_c, 0, 50, 64
1, 8733, Note_on_c, 0, 50, 0
1, 8736, Note_on_c, 0, 38, 64
1, 8781, Note_on_c, 0, 38, 0
1, 8784, Note_on_c, 0, 50, 64
1, 8817, Note_on_c, 0, 69, 0
1, 8817, Note_on_c, 0, 66, 0
1, 8829, Note_on_c, 0, 50, 0
1, 8832, Note_on_c, 0, 71, 64
1, 8832, Note_on_c, 0, 67, 64
1, 8832, Note_on_c, 0, 38, 64
1, 8877, Note_on_c, 0, 38, 0
1, 8880, Note_on_c, 0, 50, 64
1, 8921, Note_on_c, 0, 71, 0
1, 8921, Note_on_c, 0, 67, 0
1, 8925, Note_on_c, 0, 50, 0
1, 8928, Note_on_c, 0, 72, 80
1, 8928, Note_on_c, 0, 69, 80
1, 8928, Note_on_c, 0, 38, 64
1, 8973, Note_on_c, 0, 38, 0
1, 8976, Note_on_c, 0, 50, 64
1, 9021, Note_on_c, 0, 50, 0
1, 9024, Note_on_c, 0, 72, 0
1, 9024, Note_on_c, 0, 69, 0
1, 9024, Note_on_c, 0, 69, 64
1, 9024, Note_on_c, 0, 66, 64
1, 9024, Note_on_c, 0, 38, 64
1, 9069, Note_on_c, 0, 38, 0
1, 9072, Note_on_c, 0, 50, 64
1, 9113, Note_on_c, 0, 69, 0
1, 9113, Note_on_c, 0, 66, 0
1, 9117, Note_on_c, 0, 50, 0
1, 9120, Note_on_c, 0, 38, 64
1, 9165, Note_on_c, 0, 38, 0
1, 9168, Note_on_c, 0, 50, 64
1, 9213, Note_on_c, 0, 50, 0
1, 9216, Note_on_c, 0, 71, 64
1, 9216, Note_on_c, 0, 67, 64
1, 9216, Note_on_c, 0, 38, 64
1, 9261, Note_on_c, 0, 38, 0
1, 9264, Note_on_c, 0, 50, 64
1, 9309, Note_on_c, 0, 50, 0
1, 9312, Note_on_c, 0, 38, 64
1, 9357, Note_on_c, 0, 38, 0
1, 9360, Note_on_c, 0, 50, 64
1, 9393, Note_on_c, 0, 71, 0
1, 9393, Note_on_c, 0, 67, 0
1, 9405, Note_on_c, 0, 50, 0
1, 9408, Note_on_c, 0, 72, 64
1, 9408, Note_on_c, 0, 69, 64
1, 9408, Note_on_c, 0, 38, 64
1, 9453, Note_on_c, 0, 38, 0
1, 9456, Note_on_c, 0, 50, 64
1, 9497, Note_on_c, 0, 72, 0
1, 9497, Note_on_c, 0, 69, 0
1, 9501, Note_on_c, 0, 50, 0
1, 9504, Note_on_c, 0, 74, 80
1, 9504, Note_on_c, 0, 71, 80
1, 9504, Note_on_c, 0, 38, 64
1, 9549, Note_on_c, 0, 38, 0
1, 9552, Note_on_c, 0, 50, 64
1, 9597, Note_on_c, 0, 50, 0
1, 9600, Note_on_c, 0, 74, 0
1, 9600, Note_on_c, 0, 71, 0
1, 9600, Note_on_c, 0, 71, 64
1, 9600, Note_on_c, 0, 67, 64
1, 9600, Note_on_c, 0, 38, 64
1, 9645, Note_on_c, 0, 38, 0
1, 9648, Note_on_c, 0, 50, 64
1, 9689, Note_on_c, 0, 71, 0
1, 9689, Note_on_c, 0, 67, 0
1, 9693, Note_on_c, 0, 50, 0
1, 9696, Note_on_c, 0, 38, 64
1, 9741, Note_on_c, 0, 38, 0
1, 9744, Note_on_c, 0, 50, 64
1, 9789, Note_on_c, 0, 50, 0
1, 9792, Note_on_c, 0, 69, 64
1, 9792, Note_on_c, 0, 66, 64
1, 9792, Note_on_c, 0, 38, 64
1, 9837, Note_on_c, 0, 38, 0
1, 9840, Note_on_c, 0, 50, 64
1, 9881, Note_on_c, 0, 69, 0
1, 9881, Note_on_c, 0, 66, 0
1, 9885, Note_on_c, 0, 50, 0
1, 9888, Note_on_c, 0, 72, 64
1, 9888, Note_on_c, 0, 69, 64
1, 9888, Note_on_c, 0, 38, 64
1, 9933, Note_on_c, 0, 38, 0
1, 9936, Note_on_c, 0, 50, 64
1, 9977, Note_on_c, 0, 72, 0
1, 9977, Note_on_c, 0, 69, 0
1, 9981, Note_on_c, 0, 50, 0
1, 9984, Note_on_c, 0, 71, 64
1, 9984, Note_on_c, 0, 67, 64
1, 9984, Note_on_c, 0, 38, 64
1, 10029, Note_on_c, 0, 38, 0
1, 10032, Note_on_c, 0, 50, 64
1, 10073, Note_on_c, 0, 71, 0
1, 10073, Note_on_c, 0, 67, 0
1, 10077, Note_on_c, 0, 50, 0
1, 10080, Note_on_c, 0, 69, 64
1, 10080, Note_on_c, 0, 66, 64
1, 10080, Note_on_c, 0, 38, 64
1, 10169, Note_on_c, 0, 69, 0
1, 10169, Note_on_c, 0, 66, 0
1, 10169, Note_on_c, 0, 38, 0
1, 10368, Note_on_c, 0, 74, 80
1, 10368, Note_on_c, 0, 71, 72
1, 10368, Note_on_c, 0, 67, 72
1, 10462, Note_on_c, 0, 71, 0
1, 10462, Note_on_c, 0, 67, 0
1, 10464, Note_on_c, 0, 71, 72
1, 10464, Note_on_c, 0, 67, 72
1, 10558, Note_on_c, 0, 71, 0
1, 10558, Note_on_c, 0, 67, 0
1, 10560, Note_on_c, 0, 74, 0
1, 10560, Note_on_c, 0, 76, 64
1, 10560, Note_on_c, 0, 72, 72
1, 10560, Note_on_c, 0, 67, 72
1, 10590, Note_on_c, 0, 76, 0
1, 10592, Note_on_c, 0, 78, 64
1, 10622, Note_on_c, 0, 78, 0
1, 10624, Note_on_c, 0, 79, 64
1, 10654, Note_on_c, 0, 79, 0
1, 10654, Note_on_c, 0, 72, 0
1, 10654, Note_on_c, 0, 67, 0
1, 10656, Note_on_c, 0, 74, 80
1, 10656, Note_on_c, 0, 71, 72
1, 10656, Note_on_c, 0, 67, 72
1, 10750, Note_on_c, 0, 71, 0
1, 10750, Note_on_c, 0, 67, 0
1, 10752, Note_on_c, 0, 74, 0
1, 10752, Note_on_c, 0, 79, 64
1, 10782, Note_on_c, 0, 79, 0
1, 10784, Note_on_c, 0, 83, 64
1, 10814, Note_on_c, 0, 83, 0
1, 10816, Note_on_c, 0, 81, 64
1, 10846, Note_on_c, 0, 81, 0
1, 10848, Note_on_c, 0, 79, 64
1, 10878, Note_on_c, 0, 79, 0
1, 10880, Note_on_c, 0, 78, 64
1, 10910, Note_on_c, 0, 78, 0
1, 10912, Note_on_c, 0, 76, 64
1, 10942, Note_on_c, 0, 76, 0
1, 10944, Note_on_c, 0, 74, 80
1, 10944, Note_on_c, 0, 71, 72
1, 10944, Note_on_c, 0, 67, 72
1, 11038, Note_on_c, 0, 71, 0
1, 11038, Note_on_c, 0, 67, 0
1, 11040, Note_on_c, 0, 71, 72
1, 11040, Note_on_c, 0, 67, 72
1, 11134, Note_on_c, 0, 71, 0
1, 11134, Note_on_c, 0, 67, 0
1, 11136, Note_on_c, 0, 74, 0
1, 11136, Note_on_c, 0, 76, 64
1, 11136, Note_on_c, 0, 72, 72
1, 11136, Note_on_c, 0, 67, 72
1, 11166, Note_on_c, 0, 76, 0
1, 11168, Note_on_c, 0, 78, 64
1, 11198, Note_on_c, 0, 78, 0
1, 11200, Note_on_c, 0, 79, 64
1, 11230, Note_on_c, 0, 79, 0
1, 11230, Note_on_c, 0, 72, 0
1, 11230, Note_on_c, 0, 67, 0
1, 11232, Note_on_c, 0, 74, 64
1, 11232, Note_on_c, 0, 71, 72
1, 11232, Note_on_c, 0, 67, 72
1, 11321, Note_on_c, 0, 74, 0
1, 11326, Note_on_c, 0, 71, 0
1, 11326, Note_on_c, 0, 67, 0
1, 11520, Note_on_c, 0, 54, 64
1, 11568, Note_on_c, 0, 72, 64
1, 11609, Note_on_c, 0, 54, 0
1, 11613, Note_on_c, 0, 72, 0
1, 11616, Note_on_c, 0, 76, 64
1, 11661, Note_on_c, 0, 76, 0
1, 11664, Note_on_c, 0, 72, 64
1, 11709, Note_on_c, 0, 72, 0
1, 11712, Note_on_c, 0, 71, 64
1, 11724, Note_on_c, 0, 71, 0
1, 11724, Note_on_c, 0, 72, 64
1, 11736, Note_on_c, 0, 72, 0
1, 11736, Note_on_c, 0, 71, 64
1, 11748, Note_on_c, 0, 71, 0
1, 11748, Note_on_c, 0, 72, 64
1, 11760, Note_on_c, 0, 72, 0
1, 11760, Note_on_c, 0, 69, 64
1, 11805, Note_on_c, 0, 69, 0
1, 11808, Note_on_c, 0, 55, 64
1, 11856, Note_on_c, 0, 71, 64
1, 11897, Note_on_c, 0, 55, 0
1, 11901, Note_on_c, 0, 71, 0
1, 11904, Note_on_c, 0, 74, 64
1, 11949, Note_on_c, 0, 74, 0
1, 11952, Note_on_c, 0, 71, 64
1, 11997, Note_on_c, 0, 71, 0
1, 12000, Note_on_c, 0, 69, 64
1, 12012, Note_on_c, 0, 69, 0
1, 12012, Note_on_c, 0, 71, 64
1, 12024, Note_on_c, 0, 71, 0
1, 12024, Note_on_c, 0, 69, 64
1, 12036, Note_on_c, 0, 69, 0
1, 12036, Note_on_c, 0, 71, 64
1, 12048, Note_on_c, 0, 71, 0
1, 12048, Note_on_c, 0, 67, 64
1, 12093, Note_on_c, 0, 67, 0
1, 12096, Note_on_c, 0, 71, 64
1, 12096, Note_on_c, 0, 60, 64
1, 12141, Note_on_c, 0, 71, 0
1, 12144, Note_on_c, 0, 69, 64
1, 12185, Note_on_c, 0, 60, 0
1, 12189, Note_on_c, 0, 69, 0
1, 12192, Note_on_c, 0, 67, 64
1, 12192, Note_on_c, 0, 62, 64
1, 12281, Note_on_c, 0, 67, 0
1, 12281, Note_on_c, 0, 62, 0
1, 12288, Note_on_c, 0, 66, 64
1, 12288, Note_on_c, 0, 50, 64
1, 12301, Note_on_c, 0, 66, 0
1, 12302, Note_on_c, 0, 67, 64
1, 12315, Note_on_c, 0, 67, 0
1, 12316, Note_on_c, 0, 66, 64
1, 12329, Note_on_c, 0, 66, 0
1, 12330, Note_on_c, 0, 67, 64
1, 12343, Note_on_c, 0, 67, 0
1, 12344, Note_on_c, 0, 66, 64
1, 12357, Note_on_c, 0, 66, 0
1, 12358, Note_on_c, 0, 64, 64
1, 12370, Note_on_c, 0, 64, 0
1, 12371, Note_on_c, 0, 66, 64
1, 12377, Note_on_c, 0, 50, 0
1, 12383, Note_on_c, 0, 66, 0
1, 12384, Note_on_c, 0, 67, 64
1, 12384, Note_on_c, 0, 55, 64
1, 12473, Note_on_c, 0, 55, 0
1, 12480, Note_on_c, 0, 50, 64
1, 12561, Note_on_c, 0, 67, 0
1, 12569, Note_on_c, 0, 50, 0
1, 12576, Note_on_c, 0, 43, 64
1, 12665, Note_on_c, 0, 43, 0
1, 12672, Note_on_c, 0, 48, 64
1, 12672, Note_on_c, 0, 36, 64
1, 12761, Note_on_c, 0, 48, 0
1, 12761, Note_on_c, 0, 36, 0
1, 12768, Note_on_c, 0, 72, 64
1, 12857, Note_on_c, 0, 72, 0
1, 12864, Note_on_c, 0, 72, 64
1, 12953, Note_on_c, 0, 72, 0
1, 12960, Note_on_c, 0, 74, 64
1, 12960, Note_on_c, 0, 64, 72
1, 12960, Note_on_c, 0, 60, 72
1, 12973, Note_on_c, 0, 74, 0
1, 12974, Note_on_c, 0, 72, 64
1, 12987, Note_on_c, 0, 72, 0
1, 12988, Note_on_c, 0, 74, 64
1, 13001, Note_on_c, 0, 74, 0
1, 13002, Note_on_c, 0, 72, 64
1, 13015, Note_on_c, 0, 72, 0
1, 13016, Note_on_c, 0, 74, 64
1, 13029, Note_on_c, 0, 74, 0
1, 13030, Note_on_c, 0, 72, 64
1, 13043, Note_on_c, 0, 72, 0
1, 13044, Note_on_c, 0, 74, 64
1, 13054, Note_on_c, 0, 64, 0
1, 13054, Note_on_c, 0, 60, 0
1, 13056, Note_on_c, 0, 64, 72
1, 13056, Note_on_c, 0, 60, 72
1, 13057, Note_on_c, 0, 74, 0
1, 13058, Note_on_c, 0, 72, 64
1, 13071, Note_on_c, 0, 72, 0
1, 13072, Note_on_c, 0, 74, 64
1, 13085, Note_on_c, 0, 74, 0
1, 13086, Note_on_c, 0, 72, 64
1, 13099, Note_on_c, 0, 72, 0
1, 13100, Note_on_c, 0, 71, 64
1, 13125, Note_on_c, 0, 71, 0
1, 13126, Note_on_c, 0, 72, 64
1, 13150, Note_on_c, 0, 64, 0
1, 13150, Note_on_c, 0, 60, 0
1, 13151, Note_on_c, 0, 72, 0
1, 13152, Note_on_c, 0, 67, 64
1, 13152, Note_on_c, 0, 64, 72
1, 13152, Note_on_c, 0, 60, 72
1, 13241, Note_on_c, 0, 67, 0
1, 13246, Note_on_c, 0, 64, 0
1, 13246, Note_on_c, 0, 60, 0
1, 13248, Note_on_c, 0, 69, 64
1, 13248, Note_on_c, 0, 65, 72
1, 13248, Note_on_c, 0, 60, 72
1, 13342, Note_on_c, 0, 65, 0
1, 13342, Note_on_c, 0, 60, 0
1, 13344, Note_on_c, 0, 65, 72
1, 13344, Note_on_c, 0, 60, 72
1, 13425, Note_on_c, 0, 69, 0
1, 13438, Note_on_c, 0, 65, 0
1, 13438, Note_on_c, 0, 60, 0
1, 13440, Note_on_c, 0, 72, 64
1, 13440, Note_on_c, 0, 65, 72
1, 13440, Note_on_c, 0, 60, 72
1, 13470, Note_on_c, 0, 72, 0
1, 13472, Note_on_c, 0, 71, 64
1, 13502, Note_on_c, 0, 71, 0
1, 13504, Note_on_c, 0, 69, 64
1, 13534, Note_on_c, 0, 69, 0
1, 13534, Note_on_c, 0, 65, 0
1, 13534, Note_on_c, 0, 60, 0
1, 13536, Note_on_c, 0, 67, 64
1, 13536, Note_on_c, 0, 64, 72
1, 13536, Note_on_c, 0, 60, 72
1, 13625, Note_on_c, 0, 67, 0
1, 13630, Note_on_c, 0, 64, 0
1, 13630, Note_on_c, 0, 60, 0
1, 13824, Note_on_c, 0, 79, 64
1, 13836, Note_on_c, 0, 79, 0
1, 13836, Note_on_c, 0, 77, 64
1, 13848, Note_on_c, 0, 77, 0
1, 13848, Note_on_c, 0, 76, 64
1, 13860, Note_on_c, 0, 76, 0
1, 13860, Note_on_c, 0, 77, 64
1, 13913, Note_on_c, 0, 77, 0
1, 13920, Note_on_c, 0, 67, 72
1, 13920, Note_on_c, 0, 59, 72
1, 13959, Note_on_c, 0, 67, 0
1, 13959, Note_on_c, 0, 59, 0
1, 14016, Note_on_c, 0, 67, 72
1, 14016, Note_on_c, 0, 59, 72
1, 14110, Note_on_c, 0, 67, 0
1, 14110, Note_on_c, 0, 59, 0
1, 14112, Note_on_c, 0, 77, 64
1, 14124, Note_on_c, 0, 77, 0
1, 14124, Note_on_c, 0, 76, 64
1, 14136, Note_on_c, 0, 76, 0
1, 14136, Note_on_c, 0, 74, 64
1, 14148, Note_on_c, 0, 74, 0
1, 14148, Note_on_c, 0, 76, 64
1, 14201, Note_on_c, 0, 76, 0
1, 14208, Note_on_c, 0, 67, 72
1, 14208, Note_on_c, 0, 60, 72
1, 14247, Note_on_c, 0, 67, 0
1, 14247, Note_on_c, 0, 60, 0
1, 14304, Note_on_c, 0, 67, 72
1, 14304, Note_on_c, 0, 60, 72
1, 14398, Note_on_c, 0, 67, 0
1, 14398, Note_on_c, 0, 60, 0
1, 14400, Note_on_c, 0, 76, 64
1, 14400, Note_on_c, 0, 65, 72
1, 14445, Note_on_c, 0, 76, 0
1, 14448, Note_on_c, 0, 74, 64
1, 14489, Note_on_c, 0, 65, 0
1, 14493, Note_on_c, 0, 74, 0
1, 14496, Note_on_c, 0, 72, 64
1, 14496, Note_on_c, 0, 67, 72
1, 14585, Note_on_c, 0, 72, 0
1, 14585, Note_on_c, 0, 67, 0
1, 14592, Note_on_c, 0, 71, 64
1, 14592, Note_on_c, 0, 55, 72
1, 14605, Note_on_c, 0, 71, 0
1, 14606, Note_on_c, 0, 72, 64
1, 14619, Note_on_c, 0, 72, 0
1, 14620, Note_on_c, 0, 71, 64
1, 14633, Note_on_c, 0, 71, 0
1, 14634, Note_on_c, 0, 72, 64
1, 14647, Note_on_c, 0, 72, 0
1, 14648, Note_on_c, 0, 71, 64
1, 14661, Note_on_c, 0, 71, 0
1, 14662, Note_on_c, 0, 69, 64
1, 14674, Note_on_c, 0, 69, 0
1, 14675, Note_on_c, 0, 71, 64
1, 14681, Note_on_c, 0, 55, 0
1, 14687, Note_on_c, 0, 71, 0
1, 14688, Note_on_c, 0, 72, 64
1, 14688, Note_on_c, 0, 60, 64
1, 14777, Note_on_c, 0, 60, 0
1, 14784, Note_on_c, 0, 55, 64
1, 14865, Note_on_c, 0, 72, 0
1, 14873, Note_on_c, 0, 55, 0
1, 14880, Note_on_c, 0, 48, 64
1, 14969, Note_on_c, 0, 48, 0
1, 14976, Note_on_c, 0, 48, 64
1, 14976, Note_on_c, 0, 36, 64
1, 15065, Note_on_c, 0, 48, 0
1, 15065, Note_on_c, 0, 36, 0
1, 15072, Note_on_c, 0, 72, 64
1, 15161, Note_on_c, 0, 72, 0
1, 15168, Note_on_c, 0, 72, 64
1, 15257, Note_on_c, 0, 72, 0
1, 15264, Note_on_c, 0, 74, 64
1, 15264, Note_on_c, 0, 64, 72
1, 15264, Note_on_c, 0, 60, 72
1, 15277, Note_on_c, 0, 74, 0
1, 15278, Note_on_c, 0, 72, 64
1, 15291, Note_on_c, 0, 72, 0
1, 15292, Note_on_c, 0, 74, 64
1, 15305, Note_on_c, 0, 74, 0
1, 15306, Note_on_c, 0, 72, 64
1, 15319, Note_on_c, 0, 72, 0
1, 15320, Note_on_c, 0, 74, 64
1, 15333, Note_on_c, 0, 74, 0
1, 15334, Note_on_c, 0, 72, 64
1, 15347, Note_on_c, 0, 72, 0
1, 15348, Note_on_c, 0, 74, 64
1, 15358, Note_on_c, 0, 64, 0
1, 15358, Note_on_c, 0, 60, 0
1, 15360, Note_on_c, 0, 64, 72
1, 15360, Note_on_c, 0, 60, 72
1, 15361, Note_on_c, 0, 74, 0
1, 15362, Note_on_c, 0, 72, 64
1, 15375, Note_on_c, 0, 72, 0
1, 15376, Note_on_c, 0, 74, 64
1, 15389, Note_on_c, 0, 74, 0
1, 15390, Note_on_c, 0, 72, 64
1, 15403, Note_on_c, 0, 72, 0
1, 15404, Note_on_c, 0, 71, 64
1, 15429, Note_on_c, 0, 71, 0
1, 15430, Note_on_c, 0, 72, 64
1, 15454, Note_on_c, 0, 64, 0
1, 15454, Note_on_c, 0, 60, 0
1, 15455, Note_on_c, 0, 72, 0
1, 15456, Note_on_c, 0, 67, 64
1, 15456, Note_on_c, 0, 64, 72
1, 15456, Note_on_c, 0, 60, 72
1, 15545, Note_on_c, 0, 67, 0
1, 15550, Note_on_c, 0, 64, 0
1, 15550, Note_on_c, 0, 60, 0
1, 15552, Note_on_c, 0, 69, 64
1, 15552, Note_on_c, 0, 65, 72
1, 15552, Note_on_c, 0, 60, 72
1, 15646, Note_on_c, 0, 65, 0
1, 15646, Note_on_c, 0, 60, 0
1, 15648, Note_on_c, 0, 65, 72
1, 15648, Note_on_c, 0, 60, 72
1, 15729, Note_on_c, 0, 69, 0
1, 15742, Note_on_c, 0, 65, 0
1, 15742, Note_on_c, 0, 60, 0
1, 15744, Note_on_c, 0, 72, 64
1, 15744, Note_on_c, 0, 65, 72
1, 15744, Note_on_c, 0, 60, 72
1, 15774, Note_on_c, 0, 72, 0
1, 15776, Note_on_c, 0, 71, 64
1, 15806, Note_on_c, 0, 71, 0
1, 15808, Note_on_c, 0, 69, 64
1, 15838, Note_on_c, 0, 69, 0
1, 15838, Note_on_c, 0, 65, 0
1, 15838, Note_on_c, 0, 60, 0
1, 15840, Note_on_c, 0, 67, 64
1, 15840, Note_on_c, 0, 64, 72
1, 15840, Note_on_c, 0, 60, 72
1, 15929, Note_on_c, 0, 67, 0
1, 15934, Note_on_c, 0, 64, 0
1, 15934, Note_on_c, 0, 60, 0
1, 16128, Note_on_c, 0, 79, 64
1, 16140, Note_on_c, 0, 79, 0
1, 16140, Note_on_c, 0, 77, 64
1, 16152, Note_on_c, 0, 77, 0
1, 16152, Note_on_c, 0, 76, 64
1, 16164, Note_on_c, 0, 76, 0
1, 16164, Note_on_c, 0, 77, 64
1, 16217, Note_on_c, 0, 77, 0
1, 16224, Note_on_c, 0, 67, 72
1, 16224, Note_on_c, 0, 59, 72
1, 16263, Note_on_c, 0, 67, 0
1, 16263, Note_on_c, 0, 59, 0
1, 16320, Note_on_c, 0, 67, 72
1, 16320, Note_on_c, 0, 59, 72
1, 16414, Note_on_c, 0, 67, 0
1, 16414, Note_on_c, 0, 59, 0
1, 16416, Note_on_c, 0, 77, 64
1, 16428, Note_on_c, 0, 77, 0
1, 16428, Note_on_c, 0, 76, 64
1, 16440, Note_on_c, 0, 76, 0
1, 16440, Note_on_c, 0, 74, 64
1, 16452, Note_on_c, 0, 74, 0
1, 16452, Note_on_c, 0, 76, 64
1, 16505, Note_on_c, 0, 76, 0
1, 16512, Note_on_c, 0, 67, 72
1, 16512, Note_on_c, 0, 60, 72
1, 16551, Note_on_c, 0, 67, 0
1, 16551, Note_on_c, 0, 60, 0
1, 16608, Note_on_c, 0, 67, 72
1, 16608, Note_on_c, 0, 60, 72
1, 16702, Note_on_c, 0, 67, 0
1, 16702, Note_on_c, 0, 60, 0
1, 16704, Note_on_c, 0, 76, 64
1, 16704, Note_on_c, 0, 65, 72
1, 16749, Note_on_c, 0, 76, 0
1, 16752, Note_on_c, 0, 74, 64
1, 16793, Note_on_c, 0, 65, 0
1, 16797, Note_on_c, 0, 74, 0
1, 16800, Note_on_c, 0, 72, 64
1, 16800, Note_on_c, 0, 67, 72
1, 16889, Note_on_c, 0, 72, 0
1, 16889, Note_on_c, 0, 67, 0
1, 16896, Note_on_c, 0, 71, 64
1, 16896, Note_on_c, 0, 55, 72
1, 16909, Note_on_c, 0, 71, 0
1, 16910, Note_on_c, 0, 72, 64
1, 16923, Note_on_c, 0, 72, 0
1, 16924, Note_on_c, 0, 71, 64
1, 16937, Note_on_c, 0, 71, 0
1, 16938, Note_on_c, 0, 72, 64
1, 16951, Note_on_c, 0, 72, 0
1, 16952, Note_on_c, 0, 71, 64
1, 16965, Note_on_c, 0, 71, 0
1, 16966, Note_on_c, 0, 69, 64
1, 16978, Note_on_c, 0, 69, 0
1, 16979, Note_on_c, 0, 71, 64
1, 16985, Note_on_c, 0, 55, 0
1, 16991, Note_on_c, 0, 71, 0
1, 16992, Note_on_c, 0, 72, 64
1, 16992, Note_on_c, 0, 60, 64
1, 17081, Note_on_c, 0, 60, 0
1, 17088, Note_on_c, 0, 55, 64
1, 17169, Note_on_c, 0, 72, 0
1, 17177, Note_on_c, 0, 55, 0
1, 17184, Note_on_c, 0, 48, 64
1, 17273, Note_on_c, 0, 48, 0
1, 17280, Note_on_c, 0, 59, 64
1, 17280, Note_on_c, 0, 55, 64
1, 17369, Note_on_c, 0, 59, 0
1, 17369, Note_on_c, 0, 55, 0
1, 17376, Note_on_c, 0, 79, 64
1, 17465, Note_on_c, 0, 79, 0
1, 17472, Note_on_c, 0, 79, 64
1, 17561, Note_on_c, 0, 79, 0
1, 17568, Note_on_c, 0, 79, 80
1, 17664, Note_on_c, 0, 60, 64
1, 17664, Note_on_c, 0, 57, 64
1, 17753, Note_on_c, 0, 60, 0
1, 17753, Note_on_c, 0, 57, 0
1, 17760, Note_on_c, 0, 79, 0
1, 17760, Note_on_c, 0, 78, 64
1, 17760, Note_on_c, 0, 60, 64
1, 17760, Note_on_c, 0, 57, 64
1, 17849, Note_on_c, 0, 78, 0
1, 17849, Note_on_c, 0, 60, 0
1, 17849, Note_on_c, 0, 57, 0
1, 17856, Note_on_c, 0, 62, 64
1, 17856, Note_on_c, 0, 59, 64
1, 17945, Note_on_c, 0, 62, 0
1, 17945, Note_on_c, 0, 59, 0
1, 17952, Note_on_c, 0, 77, 64
1, 18041, Note_on_c, 0, 77, 0
1, 18048, Note_on_c, 0, 77, 64
1, 18137, Note_on_c, 0, 77, 0
1, 18144, Note_on_c, 0, 77, 80
1, 18240, Note_on_c, 0, 67, 72
1, 18240, Note_on_c, 0, 60, 72
1, 18279, Note_on_c, 0, 67, 0
1, 18279, Note_on_c, 0, 60, 0
1, 18336, Note_on_c, 0, 77, 0
1, 18336, Note_on_c, 0, 76, 64
1, 18336, Note_on_c, 0, 67, 72
1, 18336, Note_on_c, 0, 60, 72
1, 18425, Note_on_c, 0, 76, 0
1, 18430, Note_on_c, 0, 67, 0
1, 18430, Note_on_c, 0, 60, 0
1, 18432, Note_on_c, 0, 65, 72
1, 18521, Note_on_c, 0, 65, 0
1, 18528, Note_on_c, 0, 74, 78
1, 18558, Note_on_c, 0, 74, 0
1, 18560, Note_on_c, 0, 76, 78
1, 18590, Note_on_c, 0, 76, 0
1, 18592, Note_on_c, 0, 77, 78
1, 18622, Note_on_c, 0, 77, 0
1, 18624, Note_on_c, 0, 77, 78
1, 18654, Note_on_c, 0, 77, 0
1, 18656, Note_on_c, 0, 79, 79
1, 18686, Note_on_c, 0, 79, 0
1, 18688, Note_on_c, 0, 81, 79
1, 18718, Note_on_c, 0, 81, 0
1, 18720, Note_on_c, 0, 65, 73
1, 18809, Note_on_c, 0, 65, 0
1, 18816, Note_on_c, 0, 74, 80
1, 18846, Note_on_c, 0, 74, 0
1, 18848, Note_on_c, 0, 76, 81
1, 18878, Note_on_c, 0, 76, 0
1, 18880, Note_on_c, 0, 77, 81
1, 18910, Note_on_c, 0, 77, 0
1, 18912, Note_on_c, 0, 77, 81
1, 18942, Note_on_c, 0, 77, 0
1, 18944, Note_on_c, 0, 79, 82
1, 18974, Note_on_c, 0, 79, 0
1, 18976, Note_on_c, 0, 81, 82
1, 19006, Note_on_c, 0, 81, 0
1, 19008, Note_on_c, 0, 65, 76
1, 19104, Note_on_c, 0, 81, 83
1, 19134, Note_on_c, 0, 81, 0
1, 19136, Note_on_c, 0, 79, 84
1, 19166, Note_on_c, 0, 79, 0
1, 19168, Note_on_c, 0, 77, 84
1, 19198, Note_on_c, 0, 77, 0
1, 19200, Note_on_c, 0, 76, 85
1, 19200, Note_on_c, 0, 65, 0
1, 19200, Note_on_c, 0, 66, 78
1, 19230, Note_on_c, 0, 76, 0
1, 19232, Note_on_c, 0, 74, 85
1, 19262, Note_on_c, 0, 74, 0
1, 19264, Note_on_c, 0, 72, 85
1, 19289, Note_on_c, 0, 66, 0
1, 19294, Note_on_c, 0, 72, 0
1, 19296, Note_on_c, 0, 72, 85
1, 19296, Note_on_c, 0, 67, 78
1, 19385, Note_on_c, 0, 67, 0
1, 19392, Note_on_c, 0, 62, 76
1, 19481, Note_on_c, 0, 62, 0
1, 19488, Note_on_c, 0, 72, 0
1, 19488, Note_on_c, 0, 71, 80
1, 19488, Note_on_c, 0, 55, 74
1, 19577, Note_on_c, 0, 71, 0
1, 19577, Note_on_c, 0, 55, 0
1, 19584, Note_on_c, 0, 48, 64
1, 19584, Note_on_c, 0, 36, 64
1, 19673, Note_on_c, 0, 48, 0
1, 19673, Note_on_c, 0, 36, 0
1, 19680, Note_on_c, 0, 72, 78
1, 19769, Note_on_c, 0, 72, 0
1, 19776, Note_on_c, 0, 72, 78
1, 19865, Note_on_c, 0, 72, 0
1, 19872, Note_on_c, 0, 74, 78
1, 19872, Note_on_c, 0, 64, 72
1, 19872, Note_on_c, 0, 60, 72
1, 19885, Note_on_c, 0, 74, 0
1, 19886, Note_on_c, 0, 72, 78
1, 19899, Note_on_c, 0, 72, 0
1, 19900, Note_on_c, 0, 74, 78
1, 19913, Note_on_c, 0, 74, 0
1, 19914, Note_on_c, 0, 72, 78
1, 19927, Note_on_c, 0, 72, 0
1, 19928, Note_on_c, 0, 74, 78
1, 19941, Note_on_c, 0, 74, 0
1, 19942, Note_on_c, 0, 72, 78
1, 19955, Note_on_c, 0, 72, 0
1, 19956, Note_on_c, 0, 74, 78
1, 19966, Note_on_c, 0, 64, 0
1, 19966, Note_on_c, 0, 60, 0
1, 19968, Note_on_c, 0, 64, 72
1, 19968, Note_on_c, 0, 60, 72
1, 19969, Note_on_c, 0, 74, 0
1, 19970, Note_on_c, 0, 72, 78
1, 19983, Note_on_c, 0, 72, 0
1, 19984, Note_on_c, 0, 74, 78
1, 19997, Note_on_c, 0, 74, 0
1, 19998, Note_on_c, 0, 72, 78
1, 20011, Note_on_c, 0, 72, 0
1, 20012, Note_on_c, 0, 71, 78
1, 20037, Note_on_c, 0, 71, 0
1, 20038, Note_on_c, 0, 72, 78
1, 20062, Note_on_c, 0, 64, 0
1, 20062, Note_on_c, 0, 60, 0
1, 20063, Note_on_c, 0, 72, 0
1, 20064, Note_on_c, 0, 67, 78
1, 20064, Note_on_c, 0, 64, 72
1, 20064, Note_on_c, 0, 60, 72
1, 20153, Note_on_c, 0, 67, 0
1, 20158, Note_on_c, 0, 64, 0
1, 20158, Note_on_c, 0, 60, 0
1, 20160, Note_on_c, 0, 69, 78
1, 20160, Note_on_c, 0, 65, 72
1, 20160, Note_on_c, 0, 60, 72
1, 20254, Note_on_c, 0, 65, 0
1, 20254, Note_on_c, 0, 60, 0
1, 20256, Note_on_c, 0, 65, 72
1, 20256, Note_on_c, 0, 60, 72
1, 20337, Note_on_c, 0, 69, 0
1, 20350, Note_on_c, 0, 65, 0
1, 20350, Note_on_c, 0, 60, 0
1, 20352, Note_on_c, 0, 72, 78
1, 20352, Note_on_c, 0, 65, 72
1, 20352, Note_on_c, 0, 60, 72
1, 20382, Note_on_c, 0, 72, 0
1, 20384, Note_on_c, 0, 71, 78
1, 20414, Note_on_c, 0, 71, 0
1, 20416, Note_on_c, 0, 69, 78
1, 20446, Note_on_c, 0, 69, 0
1, 20446, Note_on_c, 0, 65, 0
1, 20446, Note_on_c, 0, 60, 0
1, 20448, Note_on_c, 0, 67, 78
1, 20448, Note_on_c, 0, 64, 72
1, 20448, Note_on_c, 0, 60, 72
1, 20537, Note_on_c, 0, 67, 0
1, 20542, Note_on_c, 0, 64, 0
1, 20542, Note_on_c, 0, 60, 0
1, 20736, Note_on_c, 0, 79, 78
1, 20748, Note_on_c, 0, 79, 0
1, 20748, Note_on_c, 0, 77, 78
1, 20760, Note_on_c, 0, 77, 0
1, 20760, Note_on_c, 0, 76, 78
1, 20772, Note_on_c, 0, 76, 0
1, 20772, Note_on_c, 0, 77, 78
1, 20825, Note_on_c, 0, 77, 0
1, 20832, Note_on_c, 0, 67, 72
1, 20832, Note_on_c, 0, 59, 72
1, 20871, Note_on_c, 0, 67, 0
1, 20871, Note_on_c, 0, 59, 0
1, 20928, Note_on_c, 0, 67, 72
1, 20928, Note_on_c, 0, 59, 72
1, 21022, Note_on_c, 0, 67, 0
1, 21022, Note_on_c, 0, 59, 0
1, 21024, Note_on_c, 0, 77, 78
1, 21036, Note_on_c, 0, 77, 0
1, 21036, Note_on_c, 0, 76, 78
1, 21048, Note_on_c, 0, 76, 0
1, 21048, Note_on_c, 0, 74, 78
1, 21060, Note_on_c, 0, 74, 0
1, 21060, Note_on_c, 0, 76, 78
1, 21113, Note_on_c, 0, 76, 0
1, 21120, Note_on_c, 0, 67, 72
1, 21120, Note_on_c, 0, 60, 72
1, 21159, Note_on_c, 0, 67, 0
1, 21159, Note_on_c, 0, 60, 0
1, 21216, Note_on_c, 0, 67, 72
1, 21216, Note_on_c, 0, 60, 72
1, 21310, Note_on_c, 0, 67, 0
1, 21310, Note_on_c, 0, 60, 0
1, 21312, Note_on_c, 0, 76, 78
1, 21312, Note_on_c, 0, 65, 72
1, 21357, Note_on_c, 0, 76, 0
1, 21360, Note_on_c, 0, 74, 78
1, 21401, Note_on_c, 0, 65, 0
1, 21405, Note_on_c, 0, 74, 0
1, 21408, Note_on_c, 0, 72, 78
1, 21408, Note_on_c, 0, 67, 72
1, 21497, Note_on_c, 0, 72, 0
1, 21497, Note_on_c, 0, 67, 0
1, 21504, Note_on_c, 0, 71, 78
1, 21504, Note_on_c, 0, 55, 72
1, 21517, Note_on_c, 0, 71, 0
1, 21518, Note_on_c, 0, 72, 78
1, 21531, Note_on_c, 0, 72, 0
1, 21532, Note_on_c, 0, 71, 78
1, 21545, Note_on_c, 0, 71, 0
1, 21546, Note_on_c, 0, 72, 78
1, 21559, Note_on_c, 0, 72, 0
1, 21560, Note_on_c, 0, 71, 78
1, 21573, Note_on_c, 0, 71, 0
1, 21574, Note_on_c, 0, 69, 78
1, 21586, Note_on_c, 0, 69, 0
1, 21587, Note_on_c, 0, 71, 78
1, 21593, Note_on_c, 0, 55, 0
1, 21599, Note_on_c, 0, 71, 0
1, 21600, Note_on_c, 0, 72, 78
1, 21600, Note_on_c, 0, 60, 64
1, 21689, Note_on_c, 0, 60, 0
1, 21696, Note_on_c, 0, 55, 64
1, 21777, Note_on_c, 0, 72, 0
1, 21785, Note_on_c, 0, 55, 0
1, 21792, Note_on_c, 0, 48, 64
1, 21881, Note_on_c, 0, 48, 0
1, 21888, Note_on_c, 0, 59, 64
1, 21888, Note_on_c, 0, 55, 64
1, 21977, Note_on_c, 0, 59, 0
1, 21977, Note_on_c, 0, 55, 0
1, 21984, Note_on_c, 0, 79, 64
1, 22073, Note_on_c, 0, 79, 0
1, 22080, Note_on_c, 0, 79, 64
1, 22169, Note_on_c, 0, 79, 0
1, 22176, Note_on_c, 0, 79, 80
1, 22272, Note_on_c, 0, 60, 64
1, 22272, Note_on_c, 0, 57, 64
1, 22361, Note_on_c, 0, 60, 0
1, 22361, Note_on_c, 0, 57, 0
1, 22368, Note_on_c, 0, 79, 0
1, 22368, Note_on_c, 0, 78, 64
1, 22368, Note_on_c, 0, 60, 64
1, 22368, Note_on_c, 0, 57, 64
1, 22457, Note_on_c, 0, 78, 0
1, 22457, Note_on_c, 0, 60, 0
1, 22457, Note_on_c, 0, 57, 0
1, 22464, Note_on_c, 0, 62, 64
1, 22464, Note_on_c, 0, 59, 64
1, 22553, Note_on_c, 0, 62, 0
1, 22553, Note_on_c, 0, 59, 0
1, 22560, Note_on_c, 0, 77, 64
1, 22649, Note_on_c, 0, 77, 0
1, 22656, Note_on_c, 0, 77, 64
1, 22745, Note_on_c, 0, 77, 0
1, 22752, Note_on_c, 0, 77, 80
1, 22848, Note_on_c, 0, 67, 72
1, 22848, Note_on_c, 0, 60, 72
1, 22887, Note_on_c, 0, 67, 0
1, 22887, Note_on_c, 0, 60, 0
1, 22944, Note_on_c, 0, 77, 0
1, 22944, Note_on_c, 0, 76, 64
1, 22944, Note_on_c, 0, 67, 72
1, 22944, Note_on_c, 0, 60, 72
1, 23033, Note_on_c, 0, 76, 0
1, 23038, Note_on_c, 0, 67, 0
1, 23038, Note_on_c, 0, 60, 0
1, 23040, Note_on_c, 0, 65, 72
1, 23129, Note_on_c, 0, 65, 0
1, 23136, Note_on_c, 0, 74, 78
1, 23166, Note_on_c, 0, 74, 0
1, 23168, Note_on_c, 0, 76, 78
1, 23198, Note_on_c, 0, 76, 0
1, 23200, Note_on_c, 0, 77, 78
1, 23230, Note_on_c, 0, 77, 0
1, 23232, Note_on_c, 0, 77, 78
1, 23262, Note_on_c, 0, 77, 0
1, 23264, Note_on_c, 0, 79, 79
1, 23294, Note_on_c, 0, 79, 0
1, 23296, Note_on_c, 0, 81, 79
1, 23326, Note_on_c, 0, 81, 0
1, 23328, Note_on_c, 0, 65, 73
1, 23417, Note_on_c, 0, 65, 0
1, 23424, Note_on_c, 0, 74, 80
1, 23454, Note_on_c, 0, 74, 0
1, 23456, Note_on_c, 0, 76, 81
1, 23486, Note_on_c, 0, 76, 0
1, 23488, Note_on_c, 0, 77, 81
1, 23518, Note_on_c, 0, 77, 0
1, 23520, Note_on_c, 0, 77, 81
1, 23550, Note_on_c, 0, 77, 0
1, 23552, Note_on_c, 0, 79, 82
1, 23582, Note_on_c, 0, 79, 0
1, 23584, Note_on_c, 0, 81, 82
1, 23614, Note_on_c, 0, 81, 0
1, 23616, Note_on_c, 0, 65, 76
1, 23712, Note_on_c, 0, 81, 83
1, 23742, Note_on_c, 0, 81, 0
1, 23744, Note_on_c, 0, 79, 84
1, 23774, Note_on_c, 0, 79, 0
1, 23776, Note_on_c, 0, 77, 84
1, 23806, Note_on_c, 0, 77, 0
1, 23808, Note_on_c, 0, 76, 85
1, 23808, Note_on_c, 0, 65, 0
1, 23808, Note_on_c, 0, 66, 78
1, 23838, Note_on_c, 0, 76, 0
1, 23840, Note_on_c, 0, 74, 85
1, 23870, Note_on_c, 0, 74, 0
1, 23872, Note_on_c, 0, 72, 85
1, 23897, Note_on_c, 0, 66, 0
1, 23902, Note_on_c, 0, 72, 0
1, 23904, Note_on_c, 0, 72, 85
1, 23904, Note_on_c, 0, 67, 78
1, 23993, Note_on_c, 0, 67, 0
1, 24000, Note_on_c, 0, 62, 76
1, 24089, Note_on_c, 0, 62, 0
1, 24096, Note_on_c, 0, 72, 0
1, 24096, Note_on_c, 0, 71, 80
1, 24096, Note_on_c, 0, 55, 74
1, 24185, Note_on_c, 0, 71, 0
1, 24185, Note_on_c, 0, 55, 0
1, 24192, Note_on_c, 0, 48, 64
1, 24192, Note_on_c, 0, 36, 64
1, 24281, Note_on_c, 0, 48, 0
1, 24281, Note_on_c, 0, 36, 0
1, 24288, Note_on_c, 0, 72, 78
1, 24377, Note_on_c, 0, 72, 0
1, 24384, Note_on_c, 0, 72, 78
1, 24473, Note_on_c, 0, 72, 0
1, 24480, Note_on_c, 0, 74, 78
1, 24480, Note_on_c, 0, 64, 72
1, 24480, Note_on_c, 0, 60, 72
1, 24493, Note_on_c, 0, 74, 0
1, 24494, Note_on_c, 0, 72, 78
1, 24507, Note_on_c, 0, 72, 0
1, 24508, Note_on_c, 0, 74, 78
1, 24521, Note_on_c, 0, 74, 0
1, 24522, Note_on_c, 0, 72, 78
1, 24535, Note_on_c, 0, 72, 0
1, 24536, Note_on_c, 0, 74, 78
1, 24549, Note_on_c, 0, 74, 0
1, 24550, Note_on_c, 0, 72, 78
1, 24563, Note_on_c, 0, 72, 0
1, 24564, Note_on_c, 0, 74, 78
1, 24574, Note_on_c, 0, 64, 0
1, 24574, Note_on_c, 0, 60, 0
1, 24576, Note_on_c, 0, 64, 72
1, 24576, Note_on_c, 0, 60, 72
1, 24577, Note_on_c, 0, 74, 0
1, 24578, Note_on_c, 0, 72, 78
1, 24591, Note_on_c, 0, 72, 0
1, 24592, Note_on_c, 0, 74, 78
1, 24605, Note_on_c, 0, 74, 0
1, 24606, Note_on_c, 0, 72, 78
1, 24619, Note_on_c, 0, 72, 0
1, 24620, Note_on_c, 0, 71, 78
1, 24645, Note_on_c, 0, 71, 0
1, 24646, Note_on_c, 0, 72, 78
1, 24670, Note_on_c, 0, 64, 0
1, 24670, Note_on_c, 0, 60, 0
1, 24671, Note_on_c, 0, 72, 0
1, 24672, Note_on_c, 0, 67, 78
1, 24672, Note_on_c, 0, 64, 72
1, 24672, Note_on_c, 0, 60, 72
1, 24761, Note_on_c, 0, 67, 0
1, 24766, Note_on_c, 0, 64, 0
1, 24766, Note_on_c, 0, 60, 0
1, 24768, Note_on_c, 0, 69, 78
1, 24768, Note_on_c, 0, 65, 72
1, 24768, Note_on_c, 0, 60, 72
1, 24862, Note_on_c, 0, 65, 0
1, 24862, Note_on_c, 0, 60, 0
1, 24864, Note_on_c, 0, 65, 72
1, 24864, Note_on_c, 0, 60, 72
1, 24945, Note_on_c, 0, 69, 0
1, 24958, Note_on_c, 0, 65, 0
1, 24958, Note_on_c, 0, 60, 0
1, 24960, Note_on_c, 0, 72, 78
1, 24960, Note_on_c, 0, 65, 72
1, 24960, Note_on_c, 0, 60, 72
1, 24990, Note_on_c, 0, 72, 0
1, 24992, Note_on_c, 0, 71, 78
1, 25022, Note_on_c, 0, 71, 0
1, 25024, Note_on_c, 0, 69, 78
1, 25054, Note_on_c, 0, 69, 0
1, 25054, Note_on_c, 0, 65, 0
1, 25054, Note_on_c, 0, 60, 0
1, 25056, Note_on_c, 0, 67, 78
1, 25056, Note_on_c, 0, 64, 72
1, 25056, Note_on_c, 0, 60, 72
1, 25145, Note_on_c, 0, 67, 0
1, 25150, Note_on_c, 0, 64, 0
1, 25150, Note_on_c, 0, 60, 0
1, 25344, Note_on_c, 0, 79, 78
1, 25356, Note_on_c, 0, 79, 0
1, 25356, Note_on_c, 0, 77, 78
1, 25368, Note_on_c, 0, 77, 0
1, 25368, Note_on_c, 0, 76, 78
1, 25380, Note_on_c, 0, 76, 0
1, 25380, Note_on_c, 0, 77, 78
1, 25433, Note_on_c, 0, 77, 0
1, 25440, Note_on_c, 0, 67, 72
1, 25440, Note_on_c, 0, 59, 72
1, 25479, Note_on_c, 0, 67, 0
1, 25479, Note_on_c, 0, 59, 0
1, 25536, Note_on_c, 0, 67, 72
1, 25536, Note_on_c, 0, 59, 72
1, 25630, Note_on_c, 0, 67, 0
1, 25630, Note_on_c, 0, 59, 0
1, 25632, Note_on_c, 0, 77, 78
1, 25644, Note_on_c, 0, 77, 0
1, 25644, Note_on_c, 0, 76, 78
1, 25656, Note_on_c, 0, 76, 0
1, 25656, Note_on_c, 0, 74, 78
1, 25668, Note_on_c, 0, 74, 0
1, 25668, Note_on_c, 0, 76, 78
1, 25721, Note_on_c, 0, 76, 0
1, 25728, Note_on_c, 0, 67, 72
1, 25728, Note_on_c, 0, 60, 72
1, 25767, Note_on_c, 0, 67, 0
1, 25767, Note_on_c, 0, 60, 0
1, 25824, Note_on_c, 0, 67, 72
1, 25824, Note_on_c, 0, 60, 72
1, 25918, Note_on_c, 0, 67, 0
1, 25918, Note_on_c, 0, 60, 0
1, 25920, Note_on_c, 0, 76, 78
1, 25920, Note_on_c, 0, 65, 72
1, 25965, Note_on_c, 0, 76, 0
1, 25968, Note_on_c, 0, 74, 78
1, 26009, Note_on_c, 0, 65, 0
1, 26013, Note_on_c, 0, 74, 0
1, 26016, Note_on_c, 0, 72, 78
1, 26016, Note_on_c, 0, 67, 72
1, 26105, Note_on_c, 0, 72, 0
1, 26105, Note_on_c, 0, 67, 0
1, 26112, Note_on_c, 0, 71, 78
1, 26112, Note_on_c, 0, 55, 72
1, 26125, Note_on_c, 0, 71, 0
1, 26126, Note_on_c, 0, 72, 78
1, 26139, Note_on_c, 0, 72, 0
1, 26140, Note_on_c, 0, 71, 78
1, 26153, Note_on_c, 0, 71, 0
1, 26154, Note_on_c, 0, 72, 78
1, 26167, Note_on_c, 0, 72, 0
1, 26168, Note_on_c, 0, 71, 78
1, 26181, Note_on_c, 0, 71, 0
1, 26182, Note_on_c, 0, 69, 78
1, 26194, Note_on_c, 0, 69, 0
1, 26195, Note_on_c, 0, 71, 78
1, 26201, Note_on_c, 0, 55, 0
1, 26207, Note_on_c, 0, 71, 0
1, 26208, Note_on_c, 0, 72, 78
1, 26208, Note_on_c, 0, 60, 64
1, 26297, Note_on_c, 0, 60, 0
1, 26304, Note_on_c, 0, 55, 64
1, 26385, Note_on_c, 0, 72, 0
1, 26393, Note_on_c, 0, 55, 0
1, 26400, Note_on_c, 0, 48, 64
1, 26489, Note_on_c, 0, 48, 0
1, 26496, Note_on_c, 0, 74, 78
1, 26496, Note_on_c, 0, 71, 72
1, 26496, Note_on_c, 0, 67, 72
1, 26590, Note_on_c, 0, 71, 0
1, 26590, Note_on_c, 0, 67, 0
1, 26592, Note_on_c, 0, 71, 72
1, 26592, Note_on_c, 0, 67, 72
1, 26673, Note_on_c, 0, 74, 0
1, 26686, Note_on_c, 0, 71, 0
1, 26686, Note_on_c, 0, 67, 0
1, 26688, Note_on_c, 0, 76, 78
1, 26688, Note_on_c, 0, 72, 72
1, 26688, Note_on_c, 0, 67, 72
1, 26718, Note_on_c, 0, 76, 0
1, 26720, Note_on_c, 0, 78, 78
1, 26750, Note_on_c, 0, 78, 0
1, 26752, Note_on_c, 0, 79, 78
1, 26782, Note_on_c, 0, 79, 0
1, 26782, Note_on_c, 0, 72, 0
1, 26782, Note_on_c, 0, 67, 0
1, 26784, Note_on_c, 0, 74, 78
1, 26784, Note_on_c, 0, 71, 72
1, 26784, Note_on_c, 0, 67, 72
1, 26873, Note_on_c, 0, 74, 0
1, 26878, Note_on_c, 0, 71, 0
1, 26878, Note_on_c, 0, 67, 0
1, 26880, Note_on_c, 0, 79, 78
1, 26910, Note_on_c, 0, 79, 0
1, 26912, Note_on_c, 0, 83, 78
1, 26942, Note_on_c, 0, 83, 0
1, 26944, Note_on_c, 0, 81, 78
1, 26974, Note_on_c, 0, 81, 0
1, 26976, Note_on_c, 0, 79, 78
1, 27006, Note_on_c, 0, 79, 0
1, 27008, Note_on_c, 0, 78, 78
1, 27038, Note_on_c, 0, 78, 0
1, 27040, Note_on_c, 0, 76, 78
1, 27070, Note_on_c, 0, 76, 0
1, 27072, Note_on_c, 0, 74, 78
1, 27072, Note_on_c, 0, 71, 72
1, 27072, Note_on_c, 0, 67, 72
1, 27166, Note_on_c, 0, 71, 0
1, 27166, Note_on_c, 0, 67, 0
1, 27168, Note_on_c, 0, 71, 72
1, 27168, Note_on_c, 0, 67, 72
1, 27249, Note_on_c, 0, 74, 0
1, 27262, Note_on_c, 0, 71, 0
1, 27262, Note_on_c, 0, 67, 0
1, 27264, Note_on_c, 0, 76, 78
1, 27264, Note_on_c, 0, 72, 72
1, 27264, Note_on_c, 0, 67, 72
1, 27294, Note_on_c, 0, 76, 0
1, 27296, Note_on_c, 0, 78, 78
1, 27326, Note_on_c, 0, 78, 0
1, 27328, Note_on_c, 0, 79, 78
1, 27358, Note_on_c, 0, 79, 0
1, 27358, Note_on_c, 0, 72, 0
1, 27358, Note_on_c, 0, 67, 0
1, 27360, Note_on_c, 0, 74, 78
1, 27360, Note_on_c, 0, 71, 72
1, 27360, Note_on_c, 0, 67, 72
1, 27449, Note_on_c, 0, 74, 0
1, 27454, Note_on_c, 0, 71, 0
1, 27454, Note_on_c, 0, 67, 0
1, 27648, Note_on_c, 0, 54, 64
1, 27696, Note_on_c, 0, 72, 78
1, 27737, Note_on_c, 0, 54, 0
1, 27741, Note_on_c, 0, 72, 0
1, 27744, Note_on_c, 0, 76, 78
1, 27789, Note_on_c, 0, 76, 0
1, 27792, Note_on_c, 0, 72, 78
1, 27837, Note_on_c, 0, 72, 0
1, 27840, Note_on_c, 0, 71, 78
1, 27852, Note_on_c, 0, 71, 0
1, 27852, Note_on_c, 0, 72, 78
1, 27864, Note_on_c, 0, 72, 0
1, 27864, Note_on_c, 0, 71, 78
1, 27876, Note_on_c, 0, 71, 0
1, 27876, Note_on_c, 0, 72, 78
1, 27888, Note_on_c, 0, 72, 0
1, 27888, Note_on_c, 0, 69, 78
1, 27933, Note_on_c, 0, 69, 0
1, 27936, Note_on_c, 0, 55, 64
1, 27984, Note_on_c, 0, 71, 78
1, 28025, Note_on_c, 0, 55, 0
1, 28029, Note_on_c, 0, 71, 0
1, 28032, Note_on_c, 0, 74, 78
1, 28077, Note_on_c, 0, 74, 0
1, 28080, Note_on_c, 0, 71, 78
1, 28125, Note_on_c, 0, 71, 0
1, 28128, Note_on_c, 0, 69, 78
1, 28140, Note_on_c, 0, 69, 0
1, 28140, Note_on_c, 0, 71, 78
1, 28152, Note_on_c, 0, 71, 0
1, 28152, Note_on_c, 0, 69, 78
1, 28164, Note_on_c, 0, 69, 0
1, 28164, Note_on_c, 0, 71, 78
1, 28176, Note_on_c, 0, 71, 0
1, 28176, Note_on_c, 0, 67, 78
1, 28221, Note_on_c, 0, 67, 0
1, 28224, Note_on_c, 0, 71, 78
1, 28224, Note_on_c, 0, 60, 64
1, 28269, Note_on_c, 0, 71, 0
1, 28272, Note_on_c, 0, 69, 78
1, 28313, Note_on_c, 0, 60, 0
1, 28317, Note_on_c, 0, 69, 0
1, 28320, Note_on_c, 0, 67, 78
1, 28320, Note_on_c, 0, 62, 64
1, 28409, Note_on_c, 0, 67, 0
1, 28409, Note_on_c, 0, 62, 0
1, 28416, Note_on_c, 0, 66, 78
1, 28416, Note_on_c, 0, 50, 64
1, 28429, Note_on_c, 0, 66, 0
1, 28430, Note_on_c, 0, 67, 78
1, 28443, Note_on_c, 0, 67, 0
1, 28444, Note_on_c, 0, 66, 78
1, 28457, Note_on_c, 0, 66, 0
1, 28458, Note_on_c, 0, 67, 78
1, 28471, Note_on_c, 0, 67, 0
1, 28472, Note_on_c, 0, 66, 78
1, 28485, Note_on_c, 0, 66, 0
1, 28486, Note_on_c, 0, 64, 78
1, 28498, Note_on_c, 0, 64, 0
1, 28499, Note_on_c, 0, 66, 78
1, 28505, Note_on_c, 0, 50, 0
1, 28511, Note_on_c, 0, 66, 0
1, 28512, Note_on_c, 0, 67, 78
1, 28512, Note_on_c, 0, 55, 64
1, 28601, Note_on_c, 0, 55, 0
1, 28608, Note_on_c, 0, 50, 64
1, 28689, Note_on_c, 0, 67, 0
1, 28697, Note_on_c, 0, 50, 0
1, 28704, Note_on_c, 0, 43, 64
1, 28793, Note_on_c, 0, 43, 0
1, 28800, Note_on_c, 0, 74, 78
1, 28800, Note_on_c, 0, 71, 72
1, 28800, Note_on_c, 0, 67, 72
1, 28894, Note_on_c, 0, 71, 0
1, 28894, Note_on_c, 0, 67, 0
1, 28896, Note_on_c, 0, 71, 72
1, 28896, Note_on_c, 0, 67, 72
1, 28977, Note_on_c, 0, 74, 0
1, 28990, Note_on_c, 0, 71, 0
1, 28990, Note_on_c, 0, 67, 0
1, 28992, Note_on_c, 0, 76, 78
1, 28992, Note_on_c, 0, 72, 72
1, 28992, Note_on_c, 0, 67, 72
1, 29022, Note_on_c, 0, 76, 0
1, 29024, Note_on_c, 0, 78, 78
1, 29054, Note_on_c, 0, 78, 0
1, 29056, Note_on_c, 0, 79, 78
1, 29086, Note_on_c, 0, 79, 0
1, 29086, Note_on_c, 0, 72, 0
1, 29086, Note_on_c, 0, 67, 0
1, 29088, Note_on_c, 0, 74, 78
1, 29088, Note_on_c, 0, 71, 72
1, 29088, Note_on_c, 0, 67, 72
1, 29177, Note_on_c, 0, 74, 0
1, 29182, Note_on_c, 0, 71, 0
1, 29182, Note_on_c, 0, 67, 0
1, 29184, Note_on_c, 0, 79, 78
1, 29214, Note_on_c, 0, 79, 0
1, 29216, Note_on_c, 0, 83, 78
1, 29246, Note_on_c, 0, 83, 0
1, 29248, Note_on_c, 0, 81, 78
1, 29278, Note_on_c, 0, 81, 0
1, 29280, Note_on_c, 0, 79, 78
1, 29310, Note_on_c, 0, 79, 0
1, 29312, Note_on_c, 0, 78, 78
1, 29342, Note_on_c, 0, 78, 0
1, 29344, Note_on_c, 0, 76, 78
1, 29374, Note_on_c, 0, 76, 0
1, 29376, Note_on_c, 0, 74, 78
1, 29376, Note_on_c, 0, 71, 72
1, 29376, Note_on_c, 0, 67, 72
1, 29470, Note_on_c, 0, 71, 0
1, 29470, Note_on_c, 0, 67, 0
1, 29472, Note_on_c, 0, 71, 72
1, 29472, Note_on_c, 0, 67, 72
1, 29553, Note_on_c, 0, 74, 0
1, 29566, Note_on_c, 0, 71, 0
1, 29566, Note_on_c, 0, 67, 0
1, 29568, Note_on_c, 0, 76, 78
1, 29568, Note_on_c, 0, 72, 72
1, 29568, Note_on_c, 0, 67, 72
1, 29598, Note_on_c, 0, 76, 0
1, 29600, Note_on_c, 0, 78, 78
1, 29630, Note_on_c, 0, 78, 0
1, 29632, Note_on_c, 0, 79, 78
1, 29662, Note_on_c, 0, 79, 0
1, 29662, Note_on_c, 0, 72, 0
1, 29662, Note_on_c, 0, 67, 0
1, 29664, Note_on_c, 0, 74, 78
1, 29664, Note_on_c, 0, 71, 72
1, 29664, Note_on_c, 0, 67, 72
1, 29753, Note_on_c, 0, 74, 0
1, 29758, Note_on_c, 0, 71, 0
1, 29758, Note_on_c, 0, 67, 0
1, 29952, Note_on_c, 0, 54, 64
1, 30000, Note_on_c, 0, 72, 78
1, 30041, Note_on_c, 0, 54, 0
1, 30045, Note_on_c, 0, 72, 0
1, 30048, Note_on_c, 0, 76, 78
1, 30093, Note_on_c, 0, 76, 0
1, 30096, Note_on_c, 0, 72, 78
1, 30141, Note_on_c, 0, 72, 0
1, 30144, Note_on_c, 0, 71, 78
1, 30156, Note_on_c, 0, 71, 0
1, 30156, Note_on_c, 0, 72, 78
1, 30168, Note_on_c, 0, 72, 0
1, 30168, Note_on_c, 0, 71, 78
1, 30180, Note_on_c, 0, 71, 0
1, 30180, Note_on_c, 0, 72, 78
1, 30192, Note_on_c, 0, 72, 0
1, 30192, Note_on_c, 0, 69, 78
1, 30237, Note_on_c, 0, 69, 0
1, 30240, Note_on_c, 0, 55, 64
1, 30288, Note_on_c, 0, 71, 78
1, 30329, Note_on_c, 0, 55, 0
1, 30333, Note_on_c, 0, 71, 0
1, 30336, Note_on_c, 0, 74, 78
1, 30381, Note_on_c, 0, 74, 0
1, 30384, Note_on_c, 0, 71, 78
1, 30429, Note_on_c, 0, 71, 0
1, 30432, Note_on_c, 0, 69, 78
1, 30444, Note_on_c, 0, 69, 0
1, 30444, Note_on_c, 0, 71, 78
1, 30456, Note_on_c, 0, 71, 0
1, 30456, Note_on_c, 0, 69, 78
1, 30468, Note_on_c, 0, 69, 0
1, 30468, Note_on_c, 0, 71, 78
1, 30480, Note_on_c, 0, 71, 0
1, 30480, Note_on_c, 0, 67, 78
1, 30525, Note_on_c, 0, 67, 0
1, 30528, Note_on_c, 0, 71, 78
1, 30528, Note_on_c, 0, 60, 64
1, 30573, Note_on_c, 0, 71, 0
1, 30576, Note_on_c, 0, 69, 78
1, 30617, Note_on_c, 0, 60, 0
1, 30621, Note_on_c, 0, 69, 0
1, 30624, Note_on_c, 0, 67, 78
1, 30624, Note_on_c, 0, 62, 64
1, 30713, Note_on_c, 0, 67, 0
1, 30713, Note_on_c, 0, 62, 0
1, 30720, Note_on_c, 0, 66, 78
1, 30720, Note_on_c, 0, 50, 64
1, 30733, Note_on_c, 0, 66, 0
1, 30734, Note_on_c, 0, 67, 78
1, 30747, Note_on_c, 0, 67, 0
1, 30748, Note_on_c, 0, 66, 78
1, 30761, Note_on_c, 0, 66, 0
1, 30762, Note_on_c, 0, 67, 78
1, 30775, Note_on_c, 0, 67, 0
1, 30776, Note_on_c, 0, 66, 78
1, 30789, Note_on_c, 0, 66, 0
1, 30790, Note_on_c, 0, 64, 78
1, 30802, Note_on_c, 0, 64, 0
1, 30803, Note_on_c, 0, 66, 78
1, 30809, Note_on_c, 0, 50, 0
1, 30815, Note_on_c, 0, 66, 0
1, 30816, Note_on_c, 0, 67, 78
1, 30816, Note_on_c, 0, 55, 64
1, 30905, Note_on_c, 0, 55, 0
1, 30912, Note_on_c, 0, 50, 64
1, 30993, Note_on_c, 0, 67, 0
1, 31001, Note_on_c, 0, 50, 0
1, 31008, Note_on_c, 0, 43, 64
1, 31097, Note_on_c, 0, 43, 0
1, 31104, Note_on_c, 0, 69, 78
1, 31104, Note_on_c, 0, 66, 78
1, 31104, Note_on_c, 0, 38, 64
1, 31149, Note_on_c, 0, 38, 0
1, 31152, Note_on_c, 0, 50, 64
1, 31197, Note_on_c, 0, 50, 0
1, 31200, Note_on_c, 0, 38, 64
1, 31245, Note_on_c, 0, 38, 0
1, 31248, Note_on_c, 0, 50, 64
1, 31281, Note_on_c, 0, 69, 0
1, 31281, Note_on_c, 0, 66, 0
1, 31293, Note_on_c, 0, 50, 0
1, 31296, Note_on_c, 0, 71, 78
1, 31296, Note_on_c, 0, 67, 78
1, 31296, Note_on_c, 0, 38, 64
1, 31341, Note_on_c, 0, 38, 0
1, 31344, Note_on_c, 0, 50, 64
1, 31385, Note_on_c, 0, 71, 0
1, 31385, Note_on_c, 0, 67, 0
1, 31389, Note_on_c, 0, 50, 0
1, 31392, Note_on_c, 0, 72, 94
1, 31392, Note_on_c, 0, 69, 94
1, 31392, Note_on_c, 0, 38, 64
1, 31437, Note_on_c, 0, 38, 0
1, 31440, Note_on_c, 0, 50, 64
1, 31485, Note_on_c, 0, 50, 0
1, 31488, Note_on_c, 0, 72, 0
1, 31488, Note_on_c, 0, 69, 0
1, 31488, Note_on_c, 0, 69, 78
1, 31488, Note_on_c, 0, 66, 78
1, 31488, Note_on_c, 0, 38, 64
1, 31533, Note_on_c, 0, 38, 0
1, 31536, Note_on_c, 0, 50, 64
1, 31577, Note_on_c, 0, 69, 0
1, 31577, Note_on_c, 0, 66, 0
1, 31581, Note_on_c, 0, 50, 0
1, 31584, Note_on_c, 0, 38, 64
1, 31629, Note_on_c, 0, 38, 0
1, 31632, Note_on_c, 0, 50, 64
1, 31677, Note_on_c, 0, 50, 0
1, 31680, Note_on_c, 0, 71, 78
1, 31680, Note_on_c, 0, 67, 78
1, 31680, Note_on_c, 0, 38, 64
1, 31725, Note_on_c, 0, 38, 0
1, 31728, Note_on_c, 0, 50, 64
1, 31773, Note_on_c, 0, 50, 0
1, 31776, Note_on_c, 0, 38, 64
1, 31821, Note_on_c, 0, 38, 0
1, 31824, Note_on_c, 0, 50, 64
1, 31857, Note_on_c, 0, 71, 0
1, 31857, Note_on_c, 0, 67, 0
1, 31869, Note_on_c, 0, 50, 0
1, 31872, Note_on_c, 0, 72, 78
1, 31872, Note_on_c, 0, 69, 78
1, 31872, Note_on_c, 0, 38, 64
1, 31917, Note_on_c, 0, 38, 0
1, 31920, Note_on_c, 0, 50, 64
1, 31961, Note_on_c, 0, 72, 0
1, 31961, Note_on_c, 0, 69, 0
1, 31965, Note_on_c, 0, 50, 0
1, 31968, Note_on_c, 0, 74, 94
1, 31968, Note_on_c, 0, 71, 94
1, 31968, Note_on_c, 0, 38, 64
1, 32013, Note_on_c, 0, 38, 0
1, 32016, Note_on_c, 0, 50, 64
1, 32061, Note_on_c, 0, 50, 0
1, 32064, Note_on_c, 0, 74, 0
1, 32064, Note_on_c, 0, 71, 0
1, 32064, Note_on_c, 0, 71, 78
1, 32064, Note_on_c, 0, 67, 78
1, 32064, Note_on_c, 0, 38, 64
1, 32109, Note_on_c, 0, 38, 0
1, 32112, Note_on_c, 0, 50, 64
1, 32153, Note_on_c, 0, 71, 0
1, 32153, Note_on_c, 0, 67, 0
1, 32157, Note_on_c, 0, 50, 0
1, 32160, Note_on_c, 0, 38, 64
1, 32205, Note_on_c, 0, 38, 0
1, 32208, Note_on_c, 0, 50, 64
1, 32253, Note_on_c, 0, 50, 0
1, 32256, Note_on_c, 0, 69, 78
1, 32256, Note_on_c, 0, 66, 78
1, 32256, Note_on_c, 0, 38, 64
1, 32301, Note_on_c, 0, 38, 0
1, 32304, Note_on_c, 0, 50, 64
1, 32345, Note_on_c, 0, 69, 0
1, 32345, Note_on_c, 0, 66, 0
1, 32349, Note_on_c, 0, 50, 0
1, 32352, Note_on_c, 0, 72, 78
1, 32352, Note_on_c, 0, 69, 78
1, 32352, Note_on_c, 0, 38, 64
1, 32397, Note_on_c, 0, 38, 0
1, 32400, Note_on_c, 0, 50, 64
1, 32441, Note_on_c, 0, 72, 0
1, 32441, Note_on_c, 0, 69, 0
1, 32445, Note_on_c, 0, 50, 0
1, 32448, Note_on_c, 0, 71, 78
1, 32448, Note_on_c, 0, 67, 78
1, 32448, Note_on_c, 0, 38, 64
1, 32493, Note_on_c, 0, 38, 0
1, 32496, Note_on_c, 0, 50, 64
1, 32537, Note_on_c, 0, 71, 0
1, 32537, Note_on_c, 0, 67, 0
1, 32541, Note_on_c, 0, 50, 0
1, 32544, Note_on_c, 0, 69, 78
1, 32544, Note_on_c, 0, 66, 78
1, 32544, Note_on_c, 0, 38, 64
1, 32633, Note_on_c, 0, 69, 0
1, 32633, Note_on_c, 0, 66, 0
1, 32633, Note_on_c, 0, 38, 0
1, 32832, Note_on_c, 0, 74, 78
1, 32832, Note_on_c, 0, 71, 72
1, 32832, Note_on_c, 0, 67, 72
1, 32926, Note_on_c, 0, 71, 0
1, 32926, Note_on_c, 0, 67, 0
1, 32928, Note_on_c, 0, 71, 72
1, 32928, Note_on_c, 0, 67, 72
1, 33009, Note_on_c, 0, 74, 0
1, 33022, Note_on_c, 0, 71, 0
1, 33022, Note_on_c, 0, 67, 0
1, 33024, Note_on_c, 0, 76, 78
1, 33024, Note_on_c, 0, 72, 72
1, 33024, Note_on_c, 0, 67, 72
1, 33054, Note_on_c, 0, 76, 0
1, 33056, Note_on_c, 0, 78, 78
1, 33086, Note_on_c, 0, 78, 0
1, 33088, Note_on_c, 0, 79, 78
1, 33118, Note_on_c, 0, 79, 0
1, 33118, Note_on_c, 0, 72, 0
1, 33118, Note_on_c, 0, 67, 0
1, 33120, Note_on_c, 0, 74, 78
1, 33120, Note_on_c, 0, 71, 72
1, 33120, Note_on_c, 0, 67, 72
1, 33209, Note_on_c, 0, 74, 0
1, 33214, Note_on_c, 0, 71, 0
1, 33214, Note_on_c, 0, 67, 0
1, 33216, Note_on_c, 0, 79, 78
1, 33246, Note_on_c, 0, 79, 0
1, 33248, Note_on_c, 0, 83, 78
1, 33278, Note_on_c, 0, 83, 0
1, 33280, Note_on_c, 0, 81, 78
1, 33310, Note_on_c, 0, 81, 0
1, 33312, Note_on_c, 0, 79, 78
1, 33342, Note_on_c, 0, 79, 0
1, 33344, Note_on_c, 0, 78, 78
1, 33374, Note_on_c, 0, 78, 0
1, 33376, Note_on_c, 0, 76, 78
1, 33406, Note_on_c, 0, 76, 0
1, 33408, Note_on_c, 0, 74, 78
1, 33408, Note_on_c, 0, 71, 72
1, 33408, Note_on_c, 0, 67, 72
1, 33502, Note_on_c, 0, 71, 0
1, 33502, Note_on_c, 0, 67, 0
1, 33504, Note_on_c, 0, 71, 72
1, 33504, Note_on_c, 0, 67, 72
1, 33585, Note_on_c, 0, 74, 0
1, 33598, Note_on_c, 0, 71, 0
1, 33598, Note_on_c, 0, 67, 0
1, 33600, Note_on_c, 0, 76, 78
1, 33600, Note_on_c, 0, 72, 72
1, 33600, Note_on_c, 0, 67, 72
1, 33630, Note_on_c, 0, 76, 0
1, 33632, Note_on_c, 0, 78, 78
1, 33662, Note_on_c, 0, 78, 0
1, 33664, Note_on_c, 0, 79, 78
1, 33694, Note_on_c, 0, 79, 0
1, 33694, Note_on_c, 0, 72, 0
1, 33694, Note_on_c, 0, 67, 0
1, 33696, Note_on_c, 0, 74, 78
1, 33696, Note_on_c, 0, 71, 72
1, 33696, Note_on_c, 0, 67, 72
1, 33785, Note_on_c, 0, 74, 0
1, 33790, Note_on_c, 0, 71, 0
1, 33790, Note_on_c, 0, 67, 0
1, 33984, Note_on_c, 0, 54, 64
1, 34032, Note_on_c, 0, 72, 78
1, 34073, Note_on_c, 0, 54, 0
1, 34077, Note_on_c, 0, 72, 0
1, 34080, Note_on_c, 0, 76, 78
1, 34125, Note_on_c, 0, 76, 0
1, 34128, Note_on_c, 0, 72, 78
1, 34173, Note_on_c, 0, 72, 0
1, 34176, Note_on_c, 0, 71, 78
1, 34188, Note_on_c, 0, 71, 0
1, 34188, Note_on_c, 0, 72, 78
1, 34200, Note_on_c, 0, 72, 0
1, 34200, Note_on_c, 0, 71, 78
1, 34212, Note_on_c, 0, 71, 0
1, 34212, Note_on_c, 0, 72, 78
1, 34224, Note_on_c, 0, 72, 0
1, 34224, Note_on_c, 0, 69, 78
1, 34269, Note_on_c, 0, 69, 0
1, 34272, Note_on_c, 0, 55, 64
1, 34320, Note_on_c, 0, 71, 78
1, 34361, Note_on_c, 0, 55, 0
1, 34365, Note_on_c, 0, 71, 0
1, 34368, Note_on_c, 0, 74, 78
1, 34413, Note_on_c, 0, 74, 0
1, 34416, Note_on_c, 0, 71, 78
1, 34461, Note_on_c, 0, 71, 0
1, 34464, Note_on_c, 0, 69, 78
1, 34476, Note_on_c, 0, 69, 0
1, 34476, Note_on_c, 0, 71, 78
1, 34488, Note_on_c, 0, 71, 0
1, 34488, Note_on_c, 0, 69, 78
1, 34500, Note_on_c, 0, 69, 0
1, 34500, Note_on_c, 0, 71, 78
1, 34512, Note_on_c, 0, 71, 0
1, 34512, Note_on_c, 0, 67, 78
1, 34557, Note_on_c, 0, 67, 0
1, 34560, Note_on_c, 0, 71, 78
1, 34560, Note_on_c, 0, 60, 64
1, 34605, Note_on_c, 0, 71, 0
1, 34608, Note_on_c, 0, 69, 78
1, 34649, Note_on_c, 0, 60, 0
1, 34653, Note_on_c, 0, 69, 0
1, 34656, Note_on_c, 0, 67, 78
1, 34656, Note_on_c, 0, 62, 64
1, 34745, Note_on_c, 0, 67, 0
1, 34745, Note_on_c, 0, 62, 0
1, 34752, Note_on_c, 0, 66, 78
1, 34752, Note_on_c, 0, 50, 64
1, 34765, Note_on_c, 0, 66, 0
1, 34766, Note_on_c, 0, 67, 78
1, 34779, Note_on_c, 0, 67, 0
1, 34780, Note_on_c, 0, 66, 78
1, 34793, Note_on_c, 0, 66, 0
1, 34794, Note_on_c, 0, 67, 78
1, 34807, Note_on_c, 0, 67, 0
1, 34808, Note_on_c, 0, 66, 78
1, 34821, Note_on_c, 0, 66, 0
1, 34822, Note_on_c, 0, 64, 78
1, 34834, Note_on_c, 0, 64, 0
1, 34835, Note_on_c, 0, 66, 78
1, 34841, Note_on_c, 0, 50, 0
1, 34847, Note_on_c, 0, 66, 0
1, 34848, Note_on_c, 0, 67, 78
1, 34848, Note_on_c, 0, 55, 64
1, 34937, Note_on_c, 0, 55, 0
1, 34944, Note_on_c, 0, 50, 64
1, 35025, Note_on_c, 0, 67, 0
1, 35033, Note_on_c, 0, 50, 0
1, 35040, Note_on_c, 0, 43, 64
1, 35129, Note_on_c, 0, 43, 0
1, 35136, Note_on_c, 0, 69, 78
1, 35136, Note_on_c, 0, 66, 78
1, 35136, Note_on_c, 0, 38, 64
1, 35181, Note_on_c, 0, 38, 0
1, 35184, Note_on_c, 0, 50, 64
1, 35229, Note_on_c, 0, 50, 0
1, 35232, Note_on_c, 0, 38, 64
1, 35277, Note_on_c, 0, 38, 0
1, 35280, Note_on_c, 0, 50, 64
1, 35313, Note_on_c, 0, 69, 0
1, 35313, Note_on_c, 0, 66, 0
1, 35325, Note_on_c, 0, 50, 0
1, 35328, Note_on_c, 0, 71, 78
1, 35328, Note_on_c, 0, 67, 78
1, 35328, Note_on_c, 0, 38, 64
1, 35373, Note_on_c, 0, 38, 0
1, 35376, Note_on_c, 0, 50, 64
1, 35417, Note_on_c, 0, 71, 0
1, 35417, Note_on_c, 0, 67, 0
1, 35421, Note_on_c, 0, 50, 0
1, 35424, Note_on_c, 0, 72, 94
1, 35424, Note_on_c, 0, 69, 94
1, 35424, Note_on_c, 0, 38, 64
1, 35469, Note_on_c, 0, 38, 0
1, 35472, Note_on_c, 0, 50, 64
1, 35517, Note_on_c, 0, 50, 0
1, 35520, Note_on_c, 0, 72, 0
1, 35520, Note_on_c, 0, 69, 0
1, 35520, Note_on_c, 0, 69, 78
1, 35520, Note_on_c, 0, 66, 78
1, 35520, Note_on_c, 0, 38, 64
1, 35565, Note_on_c, 0, 38, 0
1, 35568, Note_on_c, 0, 50, 64
1, 35609, Note_on_c, 0, 69, 0
1, 35609, Note_on_c, 0, 66, 0
1, 35613, Note_on_c, 0, 50, 0
1, 35616, Note_on_c, 0, 38, 64
1, 35661, Note_on_c, 0, 38, 0
1, 35664, Note_on_c, 0, 50, 64
1, 35709, Note_on_c, 0, 50, 0
1, 35712, Note_on_c, 0, 71, 78
1, 35712, Note_on_c, 0, 67, 78
1, 35712, Note_on_c, 0, 38, 64
1, 35757, Note_on_c, 0, 38, 0
1, 35760, Note_on_c, 0, 50, 64
1, 35805, Note_on_c, 0, 50, 0
1, 35808, Note_on_c, 0, 38, 64
1, 35853, Note_on_c, 0, 38, 0
1, 35856, Note_on_c, 0, 50, 64
1, 35889, Note_on_c, 0, 71, 0
1, 35889, Note_on_c, 0, 67, 0
1, 35901, Note_on_c, 0, 50, 0
1, 35904, Note_on_c, 0, 72, 78
1, 35904, Note_on_c, 0, 69, 78
1, 35904, Note_on_c, 0, 38, 64
1, 35949, Note_on_c, 0, 38, 0
1, 35952, Note_on_c, 0, 50, 64
1, 35993, Note_on_c, 0, 72, 0
1, 35993, Note_on_c, 0, 69, 0
1, 35997, Note_on_c, 0, 50, 0
1, 36000, Note_on_c, 0, 74, 94
1, 36000, Note_on_c, 0, 71, 94
1, 36000, Note_on_c, 0, 38, 64
1, 36045, Note_on_c, 0, 38, 0
1, 36048, Note_on_c, 0, 50, 64
1, 36093, Note_on_c, 0, 50, 0
1, 36096, Note_on_c, 0, 74, 0
1, 36096, Note_on_c, 0, 71, 0
1, 36096, Note_on_c, 0, 71, 78
1, 36096, Note_on_c, 0, 67, 78
1, 36096, Note_on_c, 0, 38, 64
1, 36141, Note_on_c, 0, 38, 0
1, 36144, Note_on_c, 0, 50, 64
1, 36185, Note_on_c, 0, 71, 0
1, 36185, Note_on_c, 0, 67, 0
1, 36189, Note_on_c, 0, 50, 0
1, 36192, Note_on_c, 0, 38, 64
1, 36237, Note_on_c, 0, 38, 0
1, 36240, Note_on_c, 0, 50, 64
1, 36285, Note_on_c, 0, 50, 0
1, 36288, Note_on_c, 0, 69, 78
1, 36288, Note_on_c, 0, 66, 78
1, 36288, Note_on_c, 0, 38, 64
1, 36333, Note_on_c, 0, 38, 0
1, 36336, Note_on_c, 0, 50, 64
1, 36377, Note_on_c, 0, 69, 0
1, 36377, Note_on_c, 0, 66, 0
1, 36381, Note_on_c, 0, 50, 0
1, 36384, Note_on_c, 0, 72, 78
1, 36384, Note_on_c, 0, 69, 78
1, 36384, Note_on_c, 0, 38, 64
1, 36429, Note_on_c, 0, 38, 0
1, 36432, Note_on_c, 0, 50, 64
1, 36473, Note_on_c, 0, 72, 0
1, 36473, Note_on_c, 0, 69, 0
1, 36477, Note_on_c, 0, 50, 0
1, 36480, Note_on_c, 0, 71, 78
1, 36480, Note_on_c, 0, 67, 78
1, 36480, Note_on_c, 0, 38, 64
1, 36525, Note_on_c, 0, 38, 0
1, 36528, Note_on_c, 0, 50, 64
1, 36569, Note_on_c, 0, 71, 0
1, 36569, Note_on_c, 0, 67, 0
1, 36573, Note_on_c, 0, 50, 0
1, 36576, Note_on_c, 0, 69, 78
1, 36576, Note_on_c, 0, 66, 78
1, 36576, Note_on_c, 0, 38, 64
1, 36665, Note_on_c, 0, 69, 0
1, 36665, Note_on_c, 0, 66, 0
1, 36665, Note_on_c, 0, 38, 0
1, 36864, Note_on_c, 0, 74, 78
1, 36864, Note_on_c, 0, 71, 72
1, 36864, Note_on_c, 0, 67, 72
1, 36958, Note_on_c, 0, 71, 0
1, 36958, Note_on_c, 0, 67, 0
1, 36960, Note_on_c, 0, 71, 72
1, 36960, Note_on_c, 0, 67, 72
1, 37041, Note_on_c, 0, 74, 0
1, 37054, Note_on_c, 0, 71, 0
1, 37054, Note_on_c, 0, 67, 0
1, 37056, Note_on_c, 0, 76, 78
1, 37056, Note_on_c, 0, 72, 72
1, 37056, Note_on_c, 0, 67, 72
1, 37086, Note_on_c, 0, 76, 0
1, 37088, Note_on_c, 0, 78, 78
1, 37118, Note_on_c, 0, 78, 0
1, 37120, Note_on_c, 0, 79, 78
1, 37150, Note_on_c, 0, 79, 0
1, 37150, Note_on_c, 0, 72, 0
1, 37150, Note_on_c, 0, 67, 0
1, 37152, Note_on_c, 0, 74, 78
1, 37152, Note_on_c, 0, 71, 72
1, 37152, Note_on_c, 0, 67, 72
1, 37241, Note_on_c, 0, 74, 0
1, 37246, Note_on_c, 0, 71, 0
1, 37246, Note_on_c, 0, 67, 0
1, 37248, Note_on_c, 0, 79, 78
1, 37278, Note_on_c, 0, 79, 0
1, 37280, Note_on_c, 0, 83, 78
1, 37310, Note_on_c, 0, 83, 0
1, 37312, Note_on_c, 0, 81, 78
1, 37342, Note_on_c, 0, 81, 0
1, 37344, Note_on_c, 0, 79, 78
1, 37374, Note_on_c, 0, 79, 0
1, 37376, Note_on_c, 0, 78, 78
1, 37406, Note_on_c, 0, 78, 0
1, 37408, Note_on_c, 0, 76, 78
1, 37438, Note_on_c, 0, 76, 0
1, 37440, Note_on_c, 0, 74, 78
1, 37440, Note_on_c, 0, 71, 72
1, 37440, Note_on_c, 0, 67, 72
1, 37534, Note_on_c, 0, 71, 0
1, 37534, Note_on_c, 0, 67, 0
1, 37536, Note_on_c, 0, 71, 72
1, 37536, Note_on_c, 0, 67, 72
1, 37617, Note_on_c, 0, 74, 0
1, 37630, Note_on_c, 0, 71, 0
1, 37630, Note_on_c, 0, 67, 0
1, 37632, Note_on_c, 0, 76, 78
1, 37632, Note_on_c, 0, 72, 72
1, 37632, Note_on_c, 0, 67, 72
1, 37662, Note_on_c, 0, 76, 0
1, 37664, Note_on_c, 0, 78, 78
1, 37694, Note_on_c, 0, 78, 0
1, 37696, Note_on_c, 0, 79, 78
1, 37726, Note_on_c, 0, 79, 0
1, 37726, Note_on_c, 0, 72, 0
1, 37726, Note_on_c, 0, 67, 0
1, 37728, Note_on_c, 0, 74, 78
1, 37728, Note_on_c, 0, 71, 72
1, 37728, Note_on_c, 0, 67, 72
1, 37817, Note_on_c, 0, 74, 0
1, 37822, Note_on_c, 0, 71, 0
1, 37822, Note_on_c, 0, 67, 0
1, 38016, Note_on_c, 0, 54, 64
1, 38064, Note_on_c, 0, 72, 78
1, 38105, Note_on_c, 0, 54, 0
1, 38109, Note_on_c, 0, 72, 0
1, 38112, Note_on_c, 0, 76, 78
1, 38157, Note_on_c, 0, 76, 0
1, 38160, Note_on_c, 0, 72, 78
1, 38205, Note_on_c, 0, 72, 0
1, 38208, Note_on_c, 0, 71, 78
1, 38220, Note_on_c, 0, 71, 0
1, 38220, Note_on_c, 0, 72, 78
1, 38232, Note_on_c, 0, 72, 0
1, 38232, Note_on_c, 0, 71, 78
1, 38244, Note_on_c, 0, 71, 0
1, 38244, Note_on_c, 0, 72, 78
1, 38256, Note_on_c, 0, 72, 0
1, 38256, Note_on_c, 0, 69, 78
1, 38301, Note_on_c, 0, 69, 0
1, 38304, Note_on_c, 0, 55, 64
1, 38352, Note_on_c, 0, 71, 78
1, 38393, Note_on_c, 0, 55, 0
1, 38397, Note_on_c, 0, 71, 0
1, 38400, Note_on_c, 0, 74, 78
1, 38445, Note_on_c, 0, 74, 0
1, 38448, Note_on_c, 0, 71, 78
1, 38493, Note_on_c, 0, 71, 0
1, 38496, Note_on_c, 0, 69, 78
1, 38508, Note_on_c, 0, 69, 0
1, 38508, Note_on_c, 0, 71, 78
1, 38520, Note_on_c, 0, 71, 0
1, 38520, Note_on_c, 0, 69, 78
1, 38532, Note_on_c, 0, 69, 0
1, 38532, Note_on_c, 0, 71, 78
1, 38544, Note_on_c, 0, 71, 0
1, 38544, Note_on_c, 0, 67, 78
1, 38589, Note_on_c, 0, 67, 0
1, 38592, Note_on_c, 0, 71, 78
1, 38592, Note_on_c, 0, 60, 64
1, 38637, Note_on_c, 0, 71, 0
1, 38640, Note_on_c, 0, 69, 78
1, 38681, Note_on_c, 0, 60, 0
1, 38685, Note_on_c, 0, 69, 0
1, 38688, Note_on_c, 0, 67, 78
1, 38688, Note_on_c, 0, 62, 64
1, 38777, Note_on_c, 0, 67, 0
1, 38777, Note_on_c, 0, 62, 0
1, 38784, Note_on_c, 0, 66, 78
1, 38784, Note_on_c, 0, 50, 64
1, 38797, Note_on_c, 0, 66, 0
1, 38798, Note_on_c, 0, 67, 78
1, 38811, Note_on_c, 0, 67, 0
1, 38812, Note_on_c, 0, 66, 78
1, 38825, Note_on_c, 0, 66, 0
1, 38826, Note_on_c, 0, 67, 78
1, 38839, Note_on_c, 0, 67, 0
1, 38840, Note_on_c, 0, 66, 78
1, 38853, Note_on_c, 0, 66, 0
1, 38854, Note_on_c, 0, 64, 78
1, 38866, Note_on_c, 0, 64, 0
1, 38867, Note_on_c, 0, 66, 78
1, 38873, Note_on_c, 0, 50, 0
1, 38879, Note_on_c, 0, 66, 0
1, 38880, Note_on_c, 0, 67, 78
1, 38880, Note_on_c, 0, 55, 64
1, 38969, Note_on_c, 0, 55, 0
1, 38976, Note_on_c, 0, 50, 64
1, 39057, Note_on_c, 0, 67, 0
1, 39065, Note_on_c, 0, 50, 0
1, 39072, Note_on_c, 0, 43, 64
1, 39161, Note_on_c, 0, 43, 0
1, 39168, Note_on_c, 0, 43, 0
1, 39345, Note_on_c, 0, 43, 0
1, 39355, End_track
0, 0, End_of_file