0, 0, Header, 0, 1, 96
1, 0, Start_track
1, 0, Tempo, 500000
1, 192, Note_on_c, 0, 80, 64
1, 215, Note_on_c, 0, 80, 0
1, 216, Note_on_c, 0, 78, 64
1, 239, Note_on_c, 0, 78, 0
1, 240, Note_on_c, 0, 76, 64
1, 263, Note_on_c, 0, 76, 0
1, 264, Note_on_c, 0, 75, 64
1, 287, Note_on_c, 0, 75, 0
1, 288, Note_on_c, 0, 73, 64
1, 355, Note_on_c, 0, 73, 0
1, 360, Note_on_c, 0, 71, 64
1, 383, Note_on_c, 0, 71, 0
1, 384, Note_on_c, 0, 83, 64
1, 480, Note_on_c, 1, 71, 64
1, 480, Note_on_c, 1, 63, 64
1, 547, Note_on_c, 0, 83, 0
1, 552, Note_on_c, 0, 82, 64
1, 569, Note_on_c, 1, 71, 0
1, 569, Note_on_c, 1, 63, 0
1, 575, Note_on_c, 0, 82, 0
1, 576, Note_on_c, 0, 80, 64
1, 576, Note_on_c, 1, 71, 64
1, 576, Note_on_c, 1, 64, 64
1, 588, Note_on_c, 0, 80, 0
1, 588, Note_on_c, 0, 82, 64
1, 600, Note_on_c, 0, 82, 0
1, 600, Note_on_c, 0, 80, 64
1, 612, Note_on_c, 0, 80, 0
1, 612, Note_on_c, 0, 82, 64
1, 624, Note_on_c, 0, 82, 0
1, 624, Note_on_c, 0, 80, 64
1, 636, Note_on_c, 0, 80, 0
1, 636, Note_on_c, 0, 82, 64
1, 643, Note_on_c, 0, 82, 0
1, 648, Note_on_c, 0, 78, 64
1, 660, Note_on_c, 0, 78, 0
1, 660, Note_on_c, 0, 80, 64
1, 665, Note_on_c, 1, 71, 0
1, 665, Note_on_c, 1, 64, 0
1, 672, Note_on_c, 0, 80, 0
1, 672, Note_on_c, 0, 78, 64
1, 672, Note_on_c, 1, 71, 64
1, 672, Note_on_c, 1, 63, 64
1, 711, Note_on_c, 0, 78, 0
1, 761, Note_on_c, 1, 71, 0
1, 761, Note_on_c, 1, 63, 0
1, 768, Note_on_c, 0, 80, 64
1, 791, Note_on_c, 0, 80, 0
1, 792, Note_on_c, 0, 78, 64
1, 815, Note_on_c, 0, 78, 0
1, 816, Note_on_c, 0, 76, 64
1, 839, Note_on_c, 0, 76, 0
1, 840, Note_on_c, 0, 75, 64
1, 863, Note_on_c, 0, 75, 0
1, 864, Note_on_c, 0, 73, 64
1, 931, Note_on_c, 0, 73, 0
1, 936, Note_on_c, 0, 71, 64
1, 959, Note_on_c, 0, 71, 0
1, 960, Note_on_c, 0, 76, 64
1, 960, Note_on_c, 1, 68, 64
1, 1049, Note_on_c, 1, 68, 0
1, 1056, Note_on_c, 1, 66, 64
1, 1123, Note_on_c, 0, 76, 0
1, 1128, Note_on_c, 0, 75, 64
1, 1145, Note_on_c, 1, 66, 0
1, 1151, Note_on_c, 0, 75, 0
1, 1152, Note_on_c, 0, 73, 64
1, 1152, Note_on_c, 1, 64, 64
1, 1164, Note_on_c, 0, 73, 0
1, 1164, Note_on_c, 0, 75, 64
1, 1176, Note_on_c, 0, 75, 0
1, 1176, Note_on_c, 0, 73, 64
1, 1188, Note_on_c, 0, 73, 0
1, 1188, Note_on_c, 0, 75, 64
1, 1200, Note_on_c, 0, 75, 0
1, 1200, Note_on_c, 0, 73, 64
1, 1212, Note_on_c, 0, 73, 0
1, 1212, Note_on_c, 0, 75, 64
1, 1219, Note_on_c, 0, 75, 0
1, 1224, Note_on_c, 0, 71, 64
1, 1236, Note_on_c, 0, 71, 0
1, 1236, Note_on_c, 0, 73, 64
1, 1241, Note_on_c, 1, 64, 0
1, 1248, Note_on_c, 0, 73, 0
1, 1248, Note_on_c, 0, 71, 64
1, 1248, Note_on_c, 1, 63, 64
1, 1287, Note_on_c, 0, 71, 0
1, 1337, Note_on_c, 1, 63, 0
1, 1344, Note_on_c, 0, 68, 64
1, 1367, Note_on_c, 0, 68, 0
1, 1368, Note_on_c, 0, 66, 64
1, 1391, Note_on_c, 0, 66, 0
1, 1392, Note_on_c, 0, 64, 64
1, 1415, Note_on_c, 0, 64, 0
1, 1416, Note_on_c, 0, 63, 64
1, 1439, Note_on_c, 0, 63, 0
1, 1440, Note_on_c, 0, 61, 64
1, 1507, Note_on_c, 0, 61, 0
1, 1512, Note_on_c, 0, 59, 64
1, 1535, Note_on_c, 0, 59, 0
1, 1536, Note_on_c, 0, 75, 64
1, 1632, Note_on_c, 1, 65, 64
1, 1632, Note_on_c, 1, 59, 64
1, 1677, Note_on_c, 0, 75, 0
1, 1680, Note_on_c, 0, 75, 64
1, 1700, Note_on_c, 0, 75, 0
1, 1728, Note_on_c, 0, 75, 64
1, 1728, Note_on_c, 1, 65, 0
1, 1728, Note_on_c, 1, 59, 0
1, 1728, Note_on_c, 1, 66, 64
1, 1728, Note_on_c, 1, 58, 64
1, 1751, Note_on_c, 0, 75, 0
1, 1752, Note_on_c, 0, 73, 64
1, 1775, Note_on_c, 0, 73, 0
1, 1776, Note_on_c, 0, 72, 64
1, 1799, Note_on_c, 0, 72, 0
1, 1800, Note_on_c, 0, 73, 64
1, 1817, Note_on_c, 1, 66, 0
1, 1817, Note_on_c, 1, 58, 0
1, 1823, Note_on_c, 0, 73, 0
1, 1824, Note_on_c, 0, 78, 64
1, 1844, Note_on_c, 0, 78, 0
1, 1872, Note_on_c, 0, 78, 64
1, 1892, Note_on_c, 0, 78, 0
1, 1920, Note_on_c, 1, 65, 64
1, 1920, Note_on_c, 1, 59, 64
1, 1968, Note_on_c, 0, 75, 64
1, 2013, Note_on_c, 0, 75, 0
1, 2016, Note_on_c, 0, 75, 64
1, 2016, Note_on_c, 1, 65, 0
1, 2016, Note_on_c, 1, 59, 0
1, 2016, Note_on_c, 1, 66, 64
1, 2016, Note_on_c, 1, 58, 64
1, 2039, Note_on_c, 0, 75, 0
1, 2040, Note_on_c, 0, 73, 64
1, 2063, Note_on_c, 0, 73, 0
1, 2064, Note_on_c, 0, 72, 64
1, 2087, Note_on_c, 0, 72, 0
1, 2088, Note_on_c, 0, 73, 64
1, 2105, Note_on_c, 1, 66, 0
1, 2105, Note_on_c, 1, 58, 0
1, 2111, Note_on_c, 0, 73, 0
1, 2112, Note_on_c, 0, 78, 64
1, 2132, Note_on_c, 0, 78, 0
1, 2160, Note_on_c, 0, 78, 64
1, 2180, Note_on_c, 0, 78, 0
1, 2208, Note_on_c, 1, 65, 64
1, 2208, Note_on_c, 1, 59, 64
1, 2256, Note_on_c, 0, 75, 64
1, 2301, Note_on_c, 0, 75, 0
1, 2304, Note_on_c, 0, 75, 64
1, 2304, Note_on_c, 1, 65, 0
1, 2304, Note_on_c, 1, 59, 0
1, 2304, Note_on_c, 1, 66, 64
1, 2304, Note_on_c, 1, 58, 64
1, 2327, Note_on_c, 0, 75, 0
1, 2328, Note_on_c, 0, 73, 64
1, 2351, Note_on_c, 0, 73, 0
1, 2352, Note_on_c, 0, 72, 64
1, 2375, Note_on_c, 0, 72, 0
1, 2376, Note_on_c, 0, 73, 64
1, 2399, Note_on_c, 0, 73, 0
1, 2400, Note_on_c, 0, 75, 64
1, 2423, Note_on_c, 0, 75, 0
1, 2424, Note_on_c, 0, 77, 64
1, 2447, Note_on_c, 0, 77, 0
1, 2448, Note_on_c, 0, 78, 64
1, 2471, Note_on_c, 0, 78, 0
1, 2472, Note_on_c, 0, 80, 64
1, 2495, Note_on_c, 0, 80, 0
1, 2496, Note_on_c, 0, 82, 64
1, 2519, Note_on_c, 0, 82, 0
1, 2520, Note_on_c, 0, 78, 64
1, 2543, Note_on_c, 0, 78, 0
1, 2544, Note_on_c, 0, 77, 64
1, 2567, Note_on_c, 0, 77, 0
1, 2568, Note_on_c, 0, 78, 64
1, 2591, Note_on_c, 0, 78, 0
1, 2592, Note_on_c, 0, 77, 64
1, 2592, Note_on_c, 1, 58, 0
1, 2592, Note_on_c, 1, 59, 64
1, 2615, Note_on_c, 0, 77, 0
1, 2616, Note_on_c, 0, 75, 64
1, 2639, Note_on_c, 0, 75, 0
1, 2640, Note_on_c, 0, 73, 64
1, 2663, Note_on_c, 0, 73, 0
1, 2664, Note_on_c, 0, 71, 64
1, 2681, Note_on_c, 1, 66, 0
1, 2681, Note_on_c, 1, 59, 0
1, 2687, Note_on_c, 0, 71, 0
1, 2688, Note_on_c, 0, 70, 64
1, 2688, Note_on_c, 1, 66, 64
1, 2688, Note_on_c, 1, 61, 64
1, 2777, Note_on_c, 0, 70, 0
1, 2777, Note_on_c, 1, 66, 0
1, 2784, Note_on_c, 0, 68, 64
1, 2784, Note_on_c, 1, 65, 64
1, 2796, Note_on_c, 0, 68, 0
1, 2796, Note_on_c, 0, 70, 64
1, 2808, Note_on_c, 0, 70, 0
1, 2808, Note_on_c, 0, 68, 64
1, 2820, Note_on_c, 0, 68, 0
1, 2820, Note_on_c, 0, 70, 64
1, 2832, Note_on_c, 0, 70, 0
1, 2832, Note_on_c, 0, 68, 64
1, 2844, Note_on_c, 0, 68, 0
1, 2844, Note_on_c, 0, 70, 64
1, 2851, Note_on_c, 0, 70, 0
1, 2856, Note_on_c, 0, 66, 64
1, 2865, Note_on_c, 1, 61, 0
1, 2868, Note_on_c, 0, 66, 0
1, 2868, Note_on_c, 0, 68, 64
1, 2873, Note_on_c, 1, 65, 0
1, 2880, Note_on_c, 0, 68, 0
1, 2880, Note_on_c, 0, 66, 64
1, 2880, Note_on_c, 1, 54, 64
1, 2969, Note_on_c, 1, 54, 0
1, 2976, Note_on_c, 1, 42, 64
1, 3057, Note_on_c, 0, 66, 0
1, 3065, Note_on_c, 1, 42, 0
1, 3072, Note_on_c, 0, 80, 64
1, 3095, Note_on_c, 0, 80, 0
1, 3096, Note_on_c, 0, 78, 64
1, 3119, Note_on_c, 0, 78, 0
1, 3120, Note_on_c, 0, 76, 64
1, 3143, Note_on_c, 0, 76, 0
1, 3144, Note_on_c, 0, 75, 64
1, 3167, Note_on_c, 0, 75, 0
1, 3168, Note_on_c, 0, 73, 64
1, 3235, Note_on_c, 0, 73, 0
1, 3240, Note_on_c, 0, 71, 64
1, 3263, Note_on_c, 0, 71, 0
1, 3264, Note_on_c, 0, 83, 64
1, 3360, Note_on_c, 1, 71, 64
1, 3360, Note_on_c, 1, 63, 64
1, 3427, Note_on_c, 0, 83, 0
1, 3432, Note_on_c, 0, 82, 64
1, 3449, Note_on_c, 1, 71, 0
1, 3449, Note_on_c, 1, 63, 0
1, 3455, Note_on_c, 0, 82, 0
1, 3456, Note_on_c, 0, 80, 64
1, 3456, Note_on_c, 1, 71, 64
1, 3456, Note_on_c, 1, 64, 64
1, 3468, Note_on_c, 0, 80, 0
1, 3468, Note_on_c, 0, 82, 64
1, 3480, Note_on_c, 0, 82, 0
1, 3480, Note_on_c, 0, 80, 64
1, 3492, Note_on_c, 0, 80, 0
1, 3492, Note_on_c, 0, 82, 64
1, 3504, Note_on_c, 0, 82, 0
1, 3504, Note_on_c, 0, 80, 64
1, 3516, Note_on_c, 0, 80, 0
1, 3516, Note_on_c, 0, 82, 64
1, 3523, Note_on_c, 0, 82, 0
1, 3528, Note_on_c, 0, 78, 64
1, 3540, Note_on_c, 0, 78, 0
1, 3540, Note_on_c, 0, 80, 64
1, 3545, Note_on_c, 1, 71, 0
1, 3545, Note_on_c, 1, 64, 0
1, 3552, Note_on_c, 0, 80, 0
1, 3552, Note_on_c, 0, 78, 64
1, 3552, Note_on_c, 1, 71, 64
1, 3552, Note_on_c, 1, 63, 64
1, 3591, Note_on_c, 0, 78, 0
1, 3641, Note_on_c, 1, 71, 0
1, 3641, Note_on_c, 1, 63, 0
1, 3648, Note_on_c, 0, 80, 64
1, 3671, Note_on_c, 0, 80, 0
1, 3672, Note_on_c, 0, 78, 64
1, 3695, Note_on_c, 0, 78, 0
1, 3696, Note_on_c, 0, 76, 64
1, 3719, Note_on_c, 0, 76, 0
1, 3720, Note_on_c, 0, 75, 64
1, 3743, Note_on_c, 0, 75, 0
1, 3744, Note_on_c, 0, 73, 64
1, 3811, Note_on_c, 0, 73, 0
1, 3816, Note_on_c, 0, 71, 64
1, 3839, Note_on_c, 0, 71, 0
1, 3840, Note_on_c, 0, 76, 64
1, 3840, Note_on_c, 1, 68, 64
1, 3929, Note_on_c, 1, 68, 0
1, 3936, Note_on_c, 1, 66, 64
1, 4003, Note_on_c, 0, 76, 0
1, 4008, Note_on_c, 0, 75, 64
1, 4025, Note_on_c, 1, 66, 0
1, 4031, Note_on_c, 0, 75, 0
1, 4032, Note_on_c, 0, 73, 64
1, 4032, Note_on_c, 1, 64, 64
1, 4044, Note_on_c, 0, 73, 0
1, 4044, Note_on_c, 0, 75, 64
1, 4056, Note_on_c, 0, 75, 0
1, 4056, Note_on_c, 0, 73, 64
1, 4068, Note_on_c, 0, 73, 0
1, 4068, Note_on_c, 0, 75, 64
1, 4080, Note_on_c, 0, 75, 0
1, 4080, Note_on_c, 0, 73, 64
1, 4092, Note_on_c, 0, 73, 0
1, 4092, Note_on_c, 0, 75, 64
1, 4099, Note_on_c, 0, 75, 0
1, 4104, Note_on_c, 0, 71, 64
1, 4116, Note_on_c, 0, 71, 0
1, 4116, Note_on_c, 0, 73, 64
1, 4121, Note_on_c, 1, 64, 0
1, 4128, Note_on_c, 0, 73, 0
1, 4128, Note_on_c, 0, 71, 64
1, 4128, Note_on_c, 1, 63, 64
1, 4167, Note_on_c, 0, 71, 0
1, 4217, Note_on_c, 1, 63, 0
1, 4224, Note_on_c, 0, 68, 64
1, 4247, Note_on_c, 0, 68, 0
1, 4248, Note_on_c, 0, 66, 64
1, 4271, Note_on_c, 0, 66, 0
1, 4272, Note_on_c, 0, 64, 64
1, 4295, Note_on_c, 0, 64, 0
1, 4296, Note_on_c, 0, 63, 64
1, 4319, Note_on_c, 0, 63, 0
1, 4320, Note_on_c, 0, 61, 64
1, 4387, Note_on_c, 0, 61, 0
1, 4392, Note_on_c, 0, 59, 64
1, 4415, Note_on_c, 0, 59, 0
1, 4416, Note_on_c, 0, 75, 64
1, 4512, Note_on_c, 1, 65, 64
1, 4512, Note_on_c, 1, 59, 64
1, 4557, Note_on_c, 0, 75, 0
1, 4560, Note_on_c, 0, 75, 64
1, 4580, Note_on_c, 0, 75, 0
1, 4608, Note_on_c, 0, 75, 64
1, 4608, Note_on_c, 1, 65, 0
1, 4608, Note_on_c, 1, 59, 0
1, 4608, Note_on_c, 1, 66, 64
1, 4608, Note_on_c, 1, 58, 64
1, 4631, Note_on_c, 0, 75, 0
1, 4632, Note_on_c, 0, 73, 64
1, 4655, Note_on_c, 0, 73, 0
1, 4656, Note_on_c, 0, 72, 64
1, 4679, Note_on_c, 0, 72, 0
1, 4680, Note_on_c, 0, 73, 64
1, 4697, Note_on_c, 1, 66, 0
1, 4697, Note_on_c, 1, 58, 0
1, 4703, Note_on_c, 0, 73, 0
1, 4704, Note_on_c, 0, 78, 64
1, 4724, Note_on_c, 0, 78, 0
1, 4752, Note_on_c, 0, 78, 64
1, 4772, Note_on_c, 0, 78, 0
1, 4800, Note_on_c, 1, 65, 64
1, 4800, Note_on_c, 1, 59, 64
1, 4848, Note_on_c, 0, 75, 64
1, 4893, Note_on_c, 0, 75, 0
1, 4896, Note_on_c, 0, 75, 64
1, 4896, Note_on_c, 1, 65, 0
1, 4896, Note_on_c, 1, 59, 0
1, 4896, Note_on_c, 1, 66, 64
1, 4896, Note_on_c, 1, 58, 64
1, 4919, Note_on_c, 0, 75, 0
1, 4920, Note_on_c, 0, 73, 64
1, 4943, Note_on_c, 0, 73, 0
1, 4944, Note_on_c, 0, 72, 64
1, 4967, Note_on_c, 0, 72, 0
1, 4968, Note_on_c, 0, 73, 64
1, 4985, Note_on_c, 1, 66, 0
1, 4985, Note_on_c, 1, 58, 0
1, 4991, Note_on_c, 0, 73, 0
1, 4992, Note_on_c, 0, 78, 64
1, 5012, Note_on_c, 0, 78, 0
1, 5040, Note_on_c, 0, 78, 64
1, 5060, Note_on_c, 0, 78, 0
1, 5088, Note_on_c, 1, 65, 64
1, 5088, Note_on_c, 1, 59, 64
1, 5136, Note_on_c, 0, 75, 64
1, 5181, Note_on_c, 0, 75, 0
1, 5184, Note_on_c, 0, 75, 64
1, 5184, Note_on_c, 1, 65, 0
1, 5184, Note_on_c, 1, 59, 0
1, 5184, Note_on_c, 1, 66, 64
1, 5184, Note_on_c, 1, 58, 64
1, 5207, Note_on_c, 0, 75, 0
1, 5208, Note_on_c, 0, 73, 64
1, 5231, Note_on_c, 0, 73, 0
1, 5232, Note_on_c, 0, 72, 64
1, 5255, Note_on_c, 0, 72, 0
1, 5256, Note_on_c, 0, 73, 64
1, 5279, Note_on_c, 0, 73, 0
1, 5280, Note_on_c, 0, 75, 64
1, 5303, Note_on_c, 0, 75, 0
1, 5304, Note_on_c, 0, 77, 64
1, 5327, Note_on_c, 0, 77, 0
1, 5328, Note_on_c, 0, 78, 64
1, 5351, Note_on_c, 0, 78, 0
1, 5352, Note_on_c, 0, 80, 64
1, 5375, Note_on_c, 0, 80, 0
1, 5376, Note_on_c, 0, 82, 64
1, 5399, Note_on_c, 0, 82, 0
1, 5400, Note_on_c, 0, 78, 64
1, 5423, Note_on_c, 0, 78, 0
1, 5424, Note_on_c, 0, 77, 64
1, 5447, Note_on_c, 0, 77, 0
1, 5448, Note_on_c, 0, 78, 64
1, 5471, Note_on_c, 0, 78, 0
1, 5472, Note_on_c, 0, 77, 64
1, 5472, Note_on_c, 1, 58, 0
1, 5472, Note_on_c, 1, 59, 64
1, 5495, Note_on_c, 0, 77, 0
1, 5496, Note_on_c, 0, 75, 64
1, 5519, Note_on_c, 0, 75, 0
1, 5520, Note_on_c, 0, 73, 64
1, 5543, Note_on_c, 0, 73, 0
1, 5544, Note_on_c, 0, 71, 64
1, 5561, Note_on_c, 1, 66, 0
1, 5561, Note_on_c, 1, 59, 0
1, 5567, Note_on_c, 0, 71, 0
1, 5568, Note_on_c, 0, 70, 64
1, 5568, Note_on_c, 1, 66, 64
1, 5568, Note_on_c, 1, 61, 64
1, 5657, Note_on_c, 0, 70, 0
1, 5657, Note_on_c, 1, 66, 0
1, 5664, Note_on_c, 0, 68, 64
1, 5664, Note_on_c, 1, 65, 64
1, 5676, Note_on_c, 0, 68, 0
1, 5676, Note_on_c, 0, 70, 64
1, 5688, Note_on_c, 0, 70, 0
1, 5688, Note_on_c, 0, 68, 64
1, 5700, Note_on_c, 0, 68, 0
1, 5700, Note_on_c, 0, 70, 64
1, 5712, Note_on_c, 0, 70, 0
1, 5712, Note_on_c, 0, 68, 64
1, 5724, Note_on_c, 0, 68, 0
1, 5724, Note_on_c, 0, 70, 64
1, 5731, Note_on_c, 0, 70, 0
1, 5736, Note_on_c, 0, 66, 64
1, 5745, Note_on_c, 1, 61, 0
1, 5748, Note_on_c, 0, 66, 0
1, 5748, Note_on_c, 0, 68, 64
1, 5753, Note_on_c, 1, 65, 0
1, 5760, Note_on_c, 0, 68, 0
1, 5760, Note_on_c, 0, 66, 64
1, 5760, Note_on_c, 1, 54, 64
1, 5849, Note_on_c, 1, 54, 0
1, 5856, Note_on_c, 1, 42, 64
1, 5937, Note_on_c, 0, 66, 0
1, 5945, Note_on_c, 1, 42, 0
1, 5952, Note_on_c, 0, 68, 64
1, 5975, Note_on_c, 0, 68, 0
1, 5976, Note_on_c, 0, 66, 64
1, 5999, Note_on_c, 0, 66, 0
1, 6000, Note_on_c, 0, 64, 64
1, 6023, Note_on_c, 0, 64, 0
1, 6024, Note_on_c, 0, 63, 64
1, 6047, Note_on_c, 0, 63, 0
1, 6048, Note_on_c, 0, 61, 64
1, 6115, Note_on_c, 0, 61, 0
1, 6120, Note_on_c, 0, 60, 64
1, 6143, Note_on_c, 0, 60, 0
1, 6144, Note_on_c, 0, 69, 64
1, 6240, Note_on_c, 1, 54, 64
1, 6285, Note_on_c, 0, 69, 0
1, 6288, Note_on_c, 0, 60, 64
1, 6329, Note_on_c, 1, 54, 0
1, 6333, Note_on_c, 0, 60, 0
1, 6336, Note_on_c, 0, 61, 64
1, 6336, Note_on_c, 1, 52, 64
1, 6381, Note_on_c, 0, 61, 0
1, 6384, Note_on_c, 0, 64, 64
1, 6425, Note_on_c, 1, 52, 0
1, 6429, Note_on_c, 0, 64, 0
1, 6432, Note_on_c, 0, 68, 64
1, 6477, Note_on_c, 0, 68, 0
1, 6480, Note_on_c, 0, 73, 64
1, 6525, Note_on_c, 0, 73, 0
1, 6528, Note_on_c, 0, 78, 64
1, 6551, Note_on_c, 0, 78, 0
1, 6552, Note_on_c, 0, 76, 64
1, 6575, Note_on_c, 0, 76, 0
1, 6576, Note_on_c, 0, 75, 64
1, 6599, Note_on_c, 0, 75, 0
1, 6600, Note_on_c, 0, 73, 64
1, 6623, Note_on_c, 0, 73, 0
1, 6624, Note_on_c, 0, 71, 64
1, 6691, Note_on_c, 0, 71, 0
1, 6696, Note_on_c, 0, 70, 64
1, 6719, Note_on_c, 0, 70, 0
1, 6720, Note_on_c, 0, 80, 64
1, 6816, Note_on_c, 1, 64, 64
1, 6861, Note_on_c, 0, 80, 0
1, 6864, Note_on_c, 0, 70, 64
1, 6905, Note_on_c, 1, 64, 0
1, 6909, Note_on_c, 0, 70, 0
1, 6912, Note_on_c, 0, 71, 64
1, 6912, Note_on_c, 1, 63, 64
1, 6935, Note_on_c, 0, 71, 0
1, 6936, Note_on_c, 0, 73, 64
1, 6959, Note_on_c, 0, 73, 0
1, 6960, Note_on_c, 0, 75, 64
1, 6983, Note_on_c, 0, 75, 0
1, 6984, Note_on_c, 0, 76, 64
1, 7007, Note_on_c, 0, 76, 0
1, 7008, Note_on_c, 0, 78, 64
1, 7031, Note_on_c, 0, 78, 0
1, 7032, Note_on_c, 0, 80, 64
1, 7055, Note_on_c, 0, 80, 0
1, 7056, Note_on_c, 0, 82, 64
1, 7079, Note_on_c, 0, 82, 0
1, 7080, Note_on_c, 0, 83, 64
1, 7103, Note_on_c, 0, 83, 0
1, 7104, Note_on_c, 0, 82, 64
1, 7127, Note_on_c, 0, 82, 0
1, 7128, Note_on_c, 0, 83, 64
1, 7151, Note_on_c, 0, 83, 0
1, 7152, Note_on_c, 0, 82, 64
1, 7175, Note_on_c, 0, 82, 0
1, 7176, Note_on_c, 0, 83, 64
1, 7177, Note_on_c, 1, 63, 0
1, 7199, Note_on_c, 0, 83, 0
1, 7200, Note_on_c, 0, 82, 64
1, 7200, Note_on_c, 1, 64, 64
1, 7223, Note_on_c, 0, 82, 0
1, 7224, Note_on_c, 0, 80, 64
1, 7247, Note_on_c, 0, 80, 0
1, 7248, Note_on_c, 0, 78, 64
1, 7271, Note_on_c, 0, 78, 0
1, 7272, Note_on_c, 0, 80, 64
1, 7295, Note_on_c, 0, 80, 0
1, 7296, Note_on_c, 0, 78, 64
1, 7319, Note_on_c, 0, 78, 0
1, 7320, Note_on_c, 0, 76, 64
1, 7343, Note_on_c, 0, 76, 0
1, 7344, Note_on_c, 0, 75, 64
1, 7367, Note_on_c, 0, 75, 0
1, 7368, Note_on_c, 0, 76, 64
1, 7391, Note_on_c, 0, 76, 0
1, 7392, Note_on_c, 0, 75, 64
1, 7415, Note_on_c, 0, 75, 0
1, 7416, Note_on_c, 0, 73, 64
1, 7437, Note_on_c, 1, 64, 0
1, 7439, Note_on_c, 0, 73, 0
1, 7440, Note_on_c, 0, 72, 64
1, 7440, Note_on_c, 1, 65, 64
1, 7463, Note_on_c, 0, 72, 0
1, 7464, Note_on_c, 0, 73, 64
1, 7485, Note_on_c, 1, 65, 0
1, 7487, Note_on_c, 0, 73, 0
1, 7488, Note_on_c, 0, 71, 64
1, 7488, Note_on_c, 1, 66, 64
1, 7577, Note_on_c, 1, 66, 0
1, 7584, Note_on_c, 0, 71, 0
1, 7584, Note_on_c, 0, 70, 64
1, 7584, Note_on_c, 1, 54, 64
1, 7673, Note_on_c, 0, 70, 0
1, 7673, Note_on_c, 1, 54, 0
1, 7680, Note_on_c, 0, 66, 64
1, 7703, Note_on_c, 0, 66, 0
1, 7704, Note_on_c, 0, 64, 64
1, 7727, Note_on_c, 0, 64, 0
1, 7728, Note_on_c, 0, 63, 64
1, 7751, Note_on_c, 0, 63, 0
1, 7752, Note_on_c, 0, 61, 64
1, 7775, Note_on_c, 0, 61, 0
1, 7776, Note_on_c, 0, 59, 64
1, 7843, Note_on_c, 0, 59, 0
1, 7848, Note_on_c, 0, 58, 64
1, 7871, Note_on_c, 0, 58, 0
1, 7872, Note_on_c, 0, 80, 64
1, 7968, Note_on_c, 1, 70, 64
1, 7968, Note_on_c, 1, 64, 64
1, 8013, Note_on_c, 0, 80, 0
1, 8016, Note_on_c, 0, 80, 64
1, 8036, Note_on_c, 0, 80, 0
1, 8064, Note_on_c, 0, 80, 64
1, 8064, Note_on_c, 1, 70, 0
1, 8064, Note_on_c, 1, 64, 0
1, 8064, Note_on_c, 1, 71, 64
1, 8064, Note_on_c, 1, 63, 64
1, 8087, Note_on_c, 0, 80, 0
1, 8088, Note_on_c, 0, 78, 64
1, 8111, Note_on_c, 0, 78, 0
1, 8112, Note_on_c, 0, 77, 64
1, 8135, Note_on_c, 0, 77, 0
1, 8136, Note_on_c, 0, 78, 64
1, 8153, Note_on_c, 1, 71, 0
1, 8153, Note_on_c, 1, 63, 0
1, 8159, Note_on_c, 0, 78, 0
1, 8160, Note_on_c, 0, 83, 64
1, 8180, Note_on_c, 0, 83, 0
1, 8208, Note_on_c, 0, 83, 64
1, 8228, Note_on_c, 0, 83, 0
1, 8256, Note_on_c, 1, 70, 64
1, 8256, Note_on_c, 1, 64, 64
1, 8304, Note_on_c, 0, 80, 64
1, 8349, Note_on_c, 0, 80, 0
1, 8352, Note_on_c, 0, 80, 64
1, 8352, Note_on_c, 1, 70, 0
1, 8352, Note_on_c, 1, 64, 0
1, 8352, Note_on_c, 1, 71, 64
1, 8352, Note_on_c, 1, 63, 64
1, 8375, Note_on_c, 0, 80, 0
1, 8376, Note_on_c, 0, 78, 64
1, 8399, Note_on_c, 0, 78, 0
1, 8400, Note_on_c, 0, 77, 64
1, 8423, Note_on_c, 0, 77, 0
1, 8424, Note_on_c, 0, 78, 64
1, 8441, Note_on_c, 1, 71, 0
1, 8441, Note_on_c, 1, 63, 0
1, 8447, Note_on_c, 0, 78, 0
1, 8448, Note_on_c, 0, 83, 64
1, 8468, Note_on_c, 0, 83, 0
1, 8496, Note_on_c, 0, 83, 64
1, 8516, Note_on_c, 0, 83, 0
1, 8544, Note_on_c, 1, 58, 64
1, 8544, Note_on_c, 1, 52, 64
1, 8592, Note_on_c, 0, 80, 64
1, 8637, Note_on_c, 0, 80, 0
1, 8640, Note_on_c, 0, 80, 64
1, 8640, Note_on_c, 1, 58, 0
1, 8640, Note_on_c, 1, 52, 0
1, 8640, Note_on_c, 1, 59, 64
1, 8640, Note_on_c, 1, 51, 64
1, 8663, Note_on_c, 0, 80, 0
1, 8664, Note_on_c, 0, 78, 64
1, 8687, Note_on_c, 0, 78, 0
1, 8688, Note_on_c, 0, 77, 64
1, 8711, Note_on_c, 0, 77, 0
1, 8712, Note_on_c, 0, 78, 64
1, 8735, Note_on_c, 0, 78, 0
1, 8736, Note_on_c, 0, 83, 64
1, 8759, Note_on_c, 0, 83, 0
1, 8760, Note_on_c, 0, 82, 64
1, 8783, Note_on_c, 0, 82, 0
1, 8784, Note_on_c, 0, 80, 64
1, 8807, Note_on_c, 0, 80, 0
1, 8808, Note_on_c, 0, 78, 64
1, 8831, Note_on_c, 0, 78, 0
1, 8832, Note_on_c, 0, 76, 64
1, 8855, Note_on_c, 0, 76, 0
1, 8856, Note_on_c, 0, 75, 64
1, 8879, Note_on_c, 0, 75, 0
1, 8880, Note_on_c, 0, 73, 64
1, 8903, Note_on_c, 0, 73, 0
1, 8904, Note_on_c, 0, 71, 64
1, 8905, Note_on_c, 1, 59, 0
1, 8905, Note_on_c, 1, 51, 0
1, 8927, Note_on_c, 0, 71, 0
1, 8928, Note_on_c, 0, 75, 64
1, 8928, Note_on_c, 1, 52, 64
1, 8951, Note_on_c, 0, 75, 0
1, 8952, Note_on_c, 0, 73, 64
1, 8975, Note_on_c, 0, 73, 0
1, 8976, Note_on_c, 0, 76, 64
1, 8976, Note_on_c, 1, 64, 64
1, 8999, Note_on_c, 0, 76, 0
1, 9000, Note_on_c, 0, 73, 64
1, 9017, Note_on_c, 1, 52, 0
1, 9021, Note_on_c, 1, 64, 0
1, 9023, Note_on_c, 0, 73, 0
1, 9024, Note_on_c, 0, 71, 64
1, 9024, Note_on_c, 1, 63, 64
1, 9024, Note_on_c, 1, 54, 64
1, 9113, Note_on_c, 0, 71, 0
1, 9113, Note_on_c, 1, 63, 0
1, 9120, Note_on_c, 0, 70, 64
1, 9120, Note_on_c, 1, 61, 64
1, 9132, Note_on_c, 0, 70, 0
1, 9132, Note_on_c, 0, 71, 64
1, 9144, Note_on_c, 0, 71, 0
1, 9144, Note_on_c, 0, 70, 64
1, 9156, Note_on_c, 0, 70, 0
1, 9156, Note_on_c, 0, 71, 64
1, 9168, Note_on_c, 0, 71, 0
1, 9168, Note_on_c, 0, 70, 64
1, 9180, Note_on_c, 0, 70, 0
1, 9180, Note_on_c, 0, 71, 64
1, 9187, Note_on_c, 0, 71, 0
1, 9192, Note_on_c, 0, 68, 64
1, 9201, Note_on_c, 1, 54, 0
1, 9204, Note_on_c, 0, 68, 0
1, 9204, Note_on_c, 0, 70, 64
1, 9209, Note_on_c, 1, 61, 0
1, 9216, Note_on_c, 0, 70, 0
1, 9216, Note_on_c, 0, 71, 64
1, 9216, Note_on_c, 1, 59, 64
1, 9305, Note_on_c, 1, 59, 0
1, 9312, Note_on_c, 1, 47, 64
1, 9393, Note_on_c, 0, 71, 0
1, 9401, Note_on_c, 1, 47, 0
1, 9408, Note_on_c, 0, 68, 64
1, 9431, Note_on_c, 0, 68, 0
1, 9432, Note_on_c, 0, 66, 64
1, 9455, Note_on_c, 0, 66, 0
1, 9456, Note_on_c, 0, 64, 64
1, 9479, Note_on_c, 0, 64, 0
1, 9480, Note_on_c, 0, 63, 64
1, 9503, Note_on_c, 0, 63, 0
1, 9504, Note_on_c, 0, 61, 64
1, 9571, Note_on_c, 0, 61, 0
1, 9576, Note_on_c, 0, 60, 64
1, 9599, Note_on_c, 0, 60, 0
1, 9600, Note_on_c, 0, 69, 64
1, 9696, Note_on_c, 1, 54, 64
1, 9741, Note_on_c, 0, 69, 0
1, 9744, Note_on_c, 0, 60, 64
1, 9785, Note_on_c, 1, 54, 0
1, 9789, Note_on_c, 0, 60, 0
1, 9792, Note_on_c, 0, 61, 64
1, 9792, Note_on_c, 1, 52, 64
1, 9837, Note_on_c, 0, 61, 0
1, 9840, Note_on_c, 0, 64, 64
1, 9881, Note_on_c, 1, 52, 0
1, 9885, Note_on_c, 0, 64, 0
1, 9888, Note_on_c, 0, 68, 64
1, 9933, Note_on_c, 0, 68, 0
1, 9936, Note_on_c, 0, 73, 64
1, 9981, Note_on_c, 0, 73, 0
1, 9984, Note_on_c, 0, 78, 64
1, 10007, Note_on_c, 0, 78, 0
1, 10008, Note_on_c, 0, 76, 64
1, 10031, Note_on_c, 0, 76, 0
1, 10032, Note_on_c, 0, 75, 64
1, 10055, Note_on_c, 0, 75, 0
1, 10056, Note_on_c, 0, 73, 64
1, 10079, Note_on_c, 0, 73, 0
1, 10080, Note_on_c, 0, 71, 64
1, 10147, Note_on_c, 0, 71, 0
1, 10152, Note_on_c, 0, 70, 64
1, 10175, Note_on_c, 0, 70, 0
1, 10176, Note_on_c, 0, 80, 64
1, 10272, Note_on_c, 1, 64, 64
1, 10317, Note_on_c, 0, 80, 0
1, 10320, Note_on_c, 0, 70, 64
1, 10361, Note_on_c, 1, 64, 0
1, 10365, Note_on_c, 0, 70, 0
1, 10368, Note_on_c, 0, 71, 64
1, 10368, Note_on_c, 1, 63, 64
1, 10391, Note_on_c, 0, 71, 0
1, 10392, Note_on_c, 0, 73, 64
1, 10415, Note_on_c, 0, 73, 0
1, 10416, Note_on_c, 0, 75, 64
1, 10439, Note_on_c, 0, 75, 0
1, 10440, Note_on_c, 0, 76, 64
1, 10463, Note_on_c, 0, 76, 0
1, 10464, Note_on_c, 0, 78, 64
1, 10487, Note_on_c, 0, 78, 0
1, 10488, Note_on_c, 0, 80, 64
1, 10511, Note_on_c, 0, 80, 0
1, 10512, Note_on_c, 0, 82, 64
1, 10535, Note_on_c, 0, 82, 0
1, 10536, Note_on_c, 0, 83, 64
1, 10559, Note_on_c, 0, 83, 0
1, 10560, Note_on_c, 0, 82, 64
1, 10583, Note_on_c, 0, 82, 0
1, 10584, Note_on_c, 0, 83, 64
1, 10607, Note_on_c, 0, 83, 0
1, 10608, Note_on_c, 0, 82, 64
1, 10631, Note_on_c, 0, 82, 0
1, 10632, Note_on_c, 0, 83, 64
1, 10633, Note_on_c, 1, 63, 0
1, 10655, Note_on_c, 0, 83, 0
1, 10656, Note_on_c, 0, 82, 64
1, 10656, Note_on_c, 1, 64, 64
1, 10679, Note_on_c, 0, 82, 0
1, 10680, Note_on_c, 0, 80, 64
1, 10703, Note_on_c, 0, 80, 0
1, 10704, Note_on_c, 0, 78, 64
1, 10727, Note_on_c, 0, 78, 0
1, 10728, Note_on_c, 0, 80, 64
1, 10751, Note_on_c, 0, 80, 0
1, 10752, Note_on_c, 0, 78, 64
1, 10775, Note_on_c, 0, 78, 0
1, 10776, Note_on_c, 0, 76, 64
1, 10799, Note_on_c, 0, 76, 0
1, 10800, Note_on_c, 0, 75, 64
1, 10823, Note_on_c, 0, 75, 0
1, 10824, Note_on_c, 0, 76, 64
1, 10847, Note_on_c, 0, 76, 0
1, 10848, Note_on_c, 0, 75, 64
1, 10871, Note_on_c, 0, 75, 0
1, 10872, Note_on_c, 0, 73, 64
1, 10893, Note_on_c, 1, 64, 0
1, 10895, Note_on_c, 0, 73, 0
1, 10896, Note_on_c, 0, 72, 64
1, 10896, Note_on_c, 1, 65, 64
1, 10919, Note_on_c, 0, 72, 0
1, 10920, Note_on_c, 0, 73, 64
1, 10941, Note_on_c, 1, 65, 0
1, 10943, Note_on_c, 0, 73, 0
1, 10944, Note_on_c, 0, 71, 64
1, 10944, Note_on_c, 1, 66, 64
1, 11033, Note_on_c, 1, 66, 0
1, 11040, Note_on_c, 0, 71, 0
1, 11040, Note_on_c, 0, 70, 64
1, 11040, Note_on_c, 1, 54, 64
1, 11129, Note_on_c, 0, 70, 0
1, 11129, Note_on_c, 1, 54, 0
1, 11136, Note_on_c, 0, 66, 64
1, 11159, Note_on_c, 0, 66, 0
1, 11160, Note_on_c, 0, 64, 64
1, 11183, Note_on_c, 0, 64, 0
1, 11184, Note_on_c, 0, 63, 64
1, 11207, Note_on_c, 0, 63, 0
1, 11208, Note_on_c, 0, 61, 64
1, 11231, Note_on_c, 0, 61, 0
1, 11232, Note_on_c, 0, 59, 64
1, 11299, Note_on_c, 0, 59, 0
1, 11304, Note_on_c, 0, 58, 64
1, 11327, Note_on_c, 0, 58, 0
1, 11328, Note_on_c, 0, 80, 64
1, 11424, Note_on_c, 1, 70, 64
1, 11424, Note_on_c, 1, 64, 64
1, 11469, Note_on_c, 0, 80, 0
1, 11472, Note_on_c, 0, 80, 64
1, 11492, Note_on_c, 0, 80, 0
1, 11520, Note_on_c, 0, 80, 64
1, 11520, Note_on_c, 1, 70, 0
1, 11520, Note_on_c, 1, 64, 0
1, 11520, Note_on_c, 1, 71, 64
1, 11520, Note_on_c, 1, 63, 64
1, 11543, Note_on_c, 0, 80, 0
1, 11544, Note_on_c, 0, 78, 64
1, 11567, Note_on_c, 0, 78, 0
1, 11568, Note_on_c, 0, 77, 64
1, 11591, Note_on_c, 0, 77, 0
1, 11592, Note_on_c, 0, 78, 64
1, 11609, Note_on_c, 1, 71, 0
1, 11609, Note_on_c, 1, 63, 0
1, 11615, Note_on_c, 0, 78, 0
1, 11616, Note_on_c, 0, 83, 64
1, 11636, Note_on_c, 0, 83, 0
1, 11664, Note_on_c, 0, 83, 64
1, 11684, Note_on_c, 0, 83, 0
1, 11712, Note_on_c, 1, 70, 64
1, 11712, Note_on_c, 1, 64, 64
1, 11760, Note_on_c, 0, 80, 64
1, 11805, Note_on_c, 0, 80, 0
1, 11808, Note_on_c, 0, 80, 64
1, 11808, Note_on_c, 1, 70, 0
1, 11808, Note_on_c, 1, 64, 0
1, 11808, Note_on_c, 1, 71, 64
1, 11808, Note_on_c, 1, 63, 64
1, 11831, Note_on_c, 0, 80, 0
1, 11832, Note_on_c, 0, 78, 64
1, 11855, Note_on_c, 0, 78, 0
1, 11856, Note_on_c, 0, 77, 64
1, 11879, Note_on_c, 0, 77, 0
1, 11880, Note_on_c, 0, 78, 64
1, 11897, Note_on_c, 1, 71, 0
1, 11897, Note_on_c, 1, 63, 0
1, 11903, Note_on_c, 0, 78, 0
1, 11904, Note_on_c, 0, 83, 64
1, 11924, Note_on_c, 0, 83, 0
1, 11952, Note_on_c, 0, 83, 64
1, 11972, Note_on_c, 0, 83, 0
1, 12000, Note_on_c, 1, 58, 64
1, 12000, Note_on_c, 1, 52, 64
1, 12048, Note_on_c, 0, 80, 64
1, 12093, Note_on_c, 0, 80, 0
1, 12096, Note_on_c, 0, 80, 64
1, 12096, Note_on_c, 1, 58, 0
1, 12096, Note_on_c, 1, 52, 0
1, 12096, Note_on_c, 1, 59, 64
1, 12096, Note_on_c, 1, 51, 64
1, 12119, Note_on_c, 0, 80, 0
1, 12120, Note_on_c, 0, 78, 64
1, 12143, Note_on_c, 0, 78, 0
1, 12144, Note_on_c, 0, 77, 64
1, 12167, Note_on_c, 0, 77, 0
1, 12168, Note_on_c, 0, 78, 64
1, 12191, Note_on_c, 0, 78, 0
1, 12192, Note_on_c, 0, 83, 64
1, 12215, Note_on_c, 0, 83, 0
1, 12216, Note_on_c, 0, 82, 64
1, 12239, Note_on_c, 0, 82, 0
1, 12240, Note_on_c, 0, 80, 64
1, 12263, Note_on_c, 0, 80, 0
1, 12264, Note_on_c, 0, 78, 64
1, 12287, Note_on_c, 0, 78, 0
1, 12288, Note_on_c, 0, 76, 64
1, 12311, Note_on_c, 0, 76, 0
1, 12312, Note_on_c, 0, 75, 64
1, 12335, Note_on_c, 0, 75, 0
1, 12336, Note_on_c, 0, 73, 64
1, 12359, Note_on_c, 0, 73, 0
1, 12360, Note_on_c, 0, 71, 64
1, 12361, Note_on_c, 1, 59, 0
1, 12361, Note_on_c, 1, 51, 0
1, 12383, Note_on_c, 0, 71, 0
1, 12384, Note_on_c, 0, 75, 64
1, 12384, Note_on_c, 1, 52, 64
1, 12407, Note_on_c, 0, 75, 0
1, 12408, Note_on_c, 0, 73, 64
1, 12431, Note_on_c, 0, 73, 0
1, 12432, Note_on_c, 0, 76, 64
1, 12432, Note_on_c, 1, 64, 64
1, 12455, Note_on_c, 0, 76, 0
1, 12456, Note_on_c, 0, 73, 64
1, 12473, Note_on_c, 1, 52, 0
1, 12477, Note_on_c, 1, 64, 0
1, 12479, Note_on_c, 0, 73, 0
1, 12480, Note_on_c, 0, 71, 64
1, 12480, Note_on_c, 1, 63, 64
1, 12480, Note_on_c, 1, 54, 64
1, 12569, Note_on_c, 0, 71, 0
1, 12569, Note_on_c, 1, 63, 0
1, 12576, Note_on_c, 0, 70, 64
1, 12576, Note_on_c, 1, 61, 64
1, 12588, Note_on_c, 0, 70, 0
1, 12588, Note_on_c, 0, 71, 64
1, 12600, Note_on_c, 0, 71, 0
1, 12600, Note_on_c, 0, 70, 64
1, 12612, Note_on_c, 0, 70, 0
1, 12612, Note_on_c, 0, 71, 64
1, 12624, Note_on_c, 0, 71, 0
1, 12624, Note_on_c, 0, 70, 64
1, 12636, Note_on_c, 0, 70, 0
1, 12636, Note_on_c, 0, 71, 64
1, 12643, Note_on_c, 0, 71, 0
1, 12648, Note_on_c, 0, 68, 64
1, 12657, Note_on_c, 1, 54, 0
1, 12660, Note_on_c, 0, 68, 0
1, 12660, Note_on_c, 0, 70, 64
1, 12665, Note_on_c, 1, 61, 0
1, 12672, Note_on_c, 0, 70, 0
1, 12672, Note_on_c, 0, 71, 64
1, 12672, Note_on_c, 1, 59, 64
1, 12761, Note_on_c, 1, 59, 0
1, 12768, Note_on_c, 1, 47, 64
1, 12849, Note_on_c, 0, 71, 0
1, 12857, Note_on_c, 1, 47, 0
1, 12864, Note_on_c, 0, 59, 64
1, 12953, Note_on_c, 0, 59, 0
1, 12960, Note_on_c, 1, 62, 64
1, 12960, Note_on_c, 1, 47, 64
1, 12960, Note_on_c, 1, 35, 64
1, 12983, Note_on_c, 1, 62, 0
1, 12984, Note_on_c, 1, 54, 64
1, 13007, Note_on_c, 1, 54, 0
1, 13008, Note_on_c, 1, 53, 64
1, 13031, Note_on_c, 1, 53, 0
1, 13032, Note_on_c, 1, 54, 64
1, 13049, Note_on_c, 1, 47, 0
1, 13049, Note_on_c, 1, 35, 0
1, 13055, Note_on_c, 1, 54, 0
1, 13056, Note_on_c, 1, 59, 64
1, 13056, Note_on_c, 1, 50, 64
1, 13079, Note_on_c, 1, 59, 0
1, 13080, Note_on_c, 1, 54, 64
1, 13101, Note_on_c, 1, 50, 0
1, 13103, Note_on_c, 1, 54, 0
1, 13104, Note_on_c, 1, 58, 64
1, 13104, Note_on_c, 1, 49, 64
1, 13127, Note_on_c, 1, 58, 0
1, 13128, Note_on_c, 1, 54, 64
1, 13149, Note_on_c, 1, 49, 0
1, 13151, Note_on_c, 1, 54, 0
1, 13152, Note_on_c, 1, 59, 64
1, 13152, Note_on_c, 1, 50, 64
1, 13175, Note_on_c, 1, 59, 0
1, 13176, Note_on_c, 1, 54, 64
1, 13197, Note_on_c, 1, 50, 0
1, 13199, Note_on_c, 1, 54, 0
1, 13200, Note_on_c, 1, 61, 64
1, 13200, Note_on_c, 1, 46, 64
1, 13223, Note_on_c, 1, 61, 0
1, 13224, Note_on_c, 1, 54, 64
1, 13245, Note_on_c, 1, 46, 0
1, 13247, Note_on_c, 1, 54, 0
1, 13248, Note_on_c, 1, 62, 64
1, 13248, Note_on_c, 1, 47, 64
1, 13248, Note_on_c, 1, 35, 64
1, 13271, Note_on_c, 1, 62, 0
1, 13272, Note_on_c, 1, 54, 64
1, 13295, Note_on_c, 1, 54, 0
1, 13296, Note_on_c, 1, 53, 64
1, 13319, Note_on_c, 1, 53, 0
1, 13320, Note_on_c, 1, 54, 64
1, 13337, Note_on_c, 1, 47, 0
1, 13337, Note_on_c, 1, 35, 0
1, 13343, Note_on_c, 1, 54, 0
1, 13344, Note_on_c, 1, 59, 64
1, 13344, Note_on_c, 1, 50, 64
1, 13367, Note_on_c, 1, 59, 0
1, 13368, Note_on_c, 1, 54, 64
1, 13389, Note_on_c, 1, 50, 0
1, 13391, Note_on_c, 1, 54, 0
1, 13392, Note_on_c, 1, 58, 64
1, 13392, Note_on_c, 1, 49, 64
1, 13415, Note_on_c, 1, 58, 0
1, 13416, Note_on_c, 1, 54, 64
1, 13437, Note_on_c, 1, 49, 0
1, 13439, Note_on_c, 1, 54, 0
1, 13440, Note_on_c, 1, 59, 64
1, 13440, Note_on_c, 1, 50, 64
1, 13463, Note_on_c, 1, 59, 0
1, 13464, Note_on_c, 1, 54, 64
1, 13485, Note_on_c, 1, 50, 0
1, 13487, Note_on_c, 1, 54, 0
1, 13488, Note_on_c, 1, 61, 64
1, 13488, Note_on_c, 1, 46, 64
1, 13511, Note_on_c, 1, 61, 0
1, 13512, Note_on_c, 1, 54, 64
1, 13533, Note_on_c, 1, 46, 0
1, 13535, Note_on_c, 1, 54, 0
1, 13536, Note_on_c, 0, 62, 64
1, 13536, Note_on_c, 1, 47, 64
1, 13556, Note_on_c, 0, 62, 0
1, 13556, Note_on_c, 1, 47, 0
1, 13584, Note_on_c, 0, 58, 64
1, 13584, Note_on_c, 1, 49, 64
1, 13604, Note_on_c, 0, 58, 0
1, 13604, Note_on_c, 1, 49, 0
1, 13632, Note_on_c, 0, 59, 64
1, 13632, Note_on_c, 1, 50, 64
1, 13652, Note_on_c, 0, 59, 0
1, 13652, Note_on_c, 1, 50, 0
1, 13680, Note_on_c, 0, 61, 64
1, 13680, Note_on_c, 1, 46, 64
1, 13700, Note_on_c, 0, 61, 0
1, 13700, Note_on_c, 1, 46, 0
1, 13728, Note_on_c, 0, 62, 64
1, 13728, Note_on_c, 1, 47, 64
1, 13748, Note_on_c, 0, 62, 0
1, 13748, Note_on_c, 1, 47, 0
1, 13776, Note_on_c, 0, 64, 64
1, 13776, Note_on_c, 1, 49, 64
1, 13796, Note_on_c, 0, 64, 0
1, 13796, Note_on_c, 1, 49, 0
1, 13824, Note_on_c, 0, 66, 64
1, 13824, Note_on_c, 1, 50, 64
1, 13844, Note_on_c, 0, 66, 0
1, 13844, Note_on_c, 1, 50, 0
1, 13872, Note_on_c, 0, 64, 64
1, 13872, Note_on_c, 1, 49, 64
1, 13892, Note_on_c, 0, 64, 0
1, 13892, Note_on_c, 1, 49, 0
1, 13920, Note_on_c, 0, 66, 64
1, 13920, Note_on_c, 1, 50, 64
1, 13940, Note_on_c, 0, 66, 0
1, 13940, Note_on_c, 1, 50, 0
1, 13968, Note_on_c, 0, 62, 64
1, 13968, Note_on_c, 1, 47, 64
1, 13988, Note_on_c, 0, 62, 0
1, 13988, Note_on_c, 1, 47, 0
1, 14016, Note_on_c, 0, 64, 64
1, 14016, Note_on_c, 1, 49, 64
1, 14036, Note_on_c, 0, 64, 0
1, 14036, Note_on_c, 1, 49, 0
1, 14064, Note_on_c, 0, 66, 64
1, 14064, Note_on_c, 1, 50, 64
1, 14084, Note_on_c, 0, 66, 0
1, 14084, Note_on_c, 1, 50, 0
1, 14112, Note_on_c, 0, 67, 64
1, 14112, Note_on_c, 1, 52, 64
1, 14135, Note_on_c, 0, 67, 0
1, 14136, Note_on_c, 0, 59, 64
1, 14157, Note_on_c, 1, 52, 0
1, 14159, Note_on_c, 0, 59, 0
1, 14160, Note_on_c, 0, 61, 64
1, 14160, Note_on_c, 1, 55, 64
1, 14183, Note_on_c, 0, 61, 0
1, 14184, Note_on_c, 0, 59, 64
1, 14205, Note_on_c, 1, 55, 0
1, 14207, Note_on_c, 0, 59, 0
1, 14208, Note_on_c, 0, 67, 64
1, 14208, Note_on_c, 1, 52, 64
1, 14231, Note_on_c, 0, 67, 0
1, 14232, Note_on_c, 0, 55, 64
1, 14253, Note_on_c, 1, 52, 0
1, 14255, Note_on_c, 0, 55, 0
1, 14256, Note_on_c, 0, 66, 64
1, 14256, Note_on_c, 1, 50, 64
1, 14279, Note_on_c, 0, 66, 0
1, 14280, Note_on_c, 0, 55, 64
1, 14301, Note_on_c, 1, 50, 0
1, 14303, Note_on_c, 0, 55, 0
1, 14304, Note_on_c, 0, 64, 64
1, 14304, Note_on_c, 1, 49, 64
1, 14327, Note_on_c, 0, 64, 0
1, 14328, Note_on_c, 0, 55, 64
1, 14349, Note_on_c, 1, 49, 0
1, 14351, Note_on_c, 0, 55, 0
1, 14352, Note_on_c, 0, 62, 64
1, 14352, Note_on_c, 1, 47, 64
1, 14375, Note_on_c, 0, 62, 0
1, 14376, Note_on_c, 0, 55, 64
1, 14397, Note_on_c, 1, 47, 0
1, 14399, Note_on_c, 0, 55, 0
1, 14400, Note_on_c, 0, 61, 64
1, 14400, Note_on_c, 1, 45, 64
1, 14423, Note_on_c, 0, 61, 0
1, 14424, Note_on_c, 0, 55, 64
1, 14445, Note_on_c, 1, 45, 0
1, 14447, Note_on_c, 0, 55, 0
1, 14448, Note_on_c, 0, 62, 64
1, 14448, Note_on_c, 1, 47, 64
1, 14471, Note_on_c, 0, 62, 0
1, 14472, Note_on_c, 0, 55, 64
1, 14493, Note_on_c, 1, 47, 0
1, 14495, Note_on_c, 0, 55, 0
1, 14496, Note_on_c, 0, 64, 64
1, 14496, Note_on_c, 1, 49, 64
1, 14519, Note_on_c, 0, 64, 0
1, 14520, Note_on_c, 0, 55, 64
1, 14541, Note_on_c, 1, 49, 0
1, 14543, Note_on_c, 0, 55, 0
1, 14544, Note_on_c, 0, 62, 64
1, 14544, Note_on_c, 1, 47, 64
1, 14567, Note_on_c, 0, 62, 0
1, 14568, Note_on_c, 0, 55, 64
1, 14589, Note_on_c, 1, 47, 0
1, 14591, Note_on_c, 0, 55, 0
1, 14592, Note_on_c, 0, 64, 64
1, 14592, Note_on_c, 1, 49, 64
1, 14615, Note_on_c, 0, 64, 0
1, 14616, Note_on_c, 0, 55, 64
1, 14637, Note_on_c, 1, 49, 0
1, 14639, Note_on_c, 0, 55, 0
1, 14640, Note_on_c, 0, 61, 64
1, 14640, Note_on_c, 1, 45, 64
1, 14663, Note_on_c, 0, 61, 0
1, 14664, Note_on_c, 0, 55, 64
1, 14685, Note_on_c, 1, 45, 0
1, 14687, Note_on_c, 0, 55, 0
1, 14688, Note_on_c, 1, 62, 64
1, 14688, Note_on_c, 1, 42, 64
1, 14711, Note_on_c, 1, 62, 0
1, 14712, Note_on_c, 1, 57, 64
1, 14735, Note_on_c, 1, 57, 0
1, 14736, Note_on_c, 1, 59, 64
1, 14759, Note_on_c, 1, 59, 0
1, 14760, Note_on_c, 1, 57, 64
1, 14777, Note_on_c, 1, 42, 0
1, 14783, Note_on_c, 1, 57, 0
1, 14784, Note_on_c, 1, 59, 64
1, 14784, Note_on_c, 1, 43, 64
1, 14807, Note_on_c, 1, 59, 0
1, 14808, Note_on_c, 1, 52, 64
1, 14831, Note_on_c, 1, 52, 0
1, 14832, Note_on_c, 1, 54, 64
1, 14855, Note_on_c, 1, 54, 0
1, 14856, Note_on_c, 1, 52, 64
1, 14873, Note_on_c, 1, 43, 0
1, 14879, Note_on_c, 1, 52, 0
1, 14880, Note_on_c, 1, 55, 64
1, 14880, Note_on_c, 1, 45, 64
1, 14903, Note_on_c, 1, 55, 0
1, 14904, Note_on_c, 1, 49, 64
1, 14927, Note_on_c, 1, 49, 0
1, 14928, Note_on_c, 1, 50, 64
1, 14951, Note_on_c, 1, 50, 0
1, 14952, Note_on_c, 1, 49, 64
1, 14969, Note_on_c, 1, 45, 0
1, 14975, Note_on_c, 1, 49, 0
1, 14976, Note_on_c, 1, 50, 64
1, 14976, Note_on_c, 1, 38, 64
1, 15065, Note_on_c, 1, 50, 0
1, 15065, Note_on_c, 1, 38, 0
1, 15072, Note_on_c, 1, 50, 64
1, 15161, Note_on_c, 1, 50, 0
1, 15168, Note_on_c, 0, 59, 64
1, 15257, Note_on_c, 0, 59, 0
1, 15264, Note_on_c, 1, 62, 64
1, 15264, Note_on_c, 1, 47, 64
1, 15264, Note_on_c, 1, 35, 64
1, 15287, Note_on_c, 1, 62, 0
1, 15288, Note_on_c, 1, 54, 64
1, 15311, Note_on_c, 1, 54, 0
1, 15312, Note_on_c, 1, 53, 64
1, 15335, Note_on_c, 1, 53, 0
1, 15336, Note_on_c, 1, 54, 64
1, 15353, Note_on_c, 1, 47, 0
1, 15353, Note_on_c, 1, 35, 0
1, 15359, Note_on_c, 1, 54, 0
1, 15360, Note_on_c, 1, 59, 64
1, 15360, Note_on_c, 1, 50, 64
1, 15383, Note_on_c, 1, 59, 0
1, 15384, Note_on_c, 1, 54, 64
1, 15405, Note_on_c, 1, 50, 0
1, 15407, Note_on_c, 1, 54, 0
1, 15408, Note_on_c, 1, 58, 64
1, 15408, Note_on_c, 1, 49, 64
1, 15431, Note_on_c, 1, 58, 0
1, 15432, Note_on_c, 1, 54, 64
1, 15453, Note_on_c, 1, 49, 0
1, 15455, Note_on_c, 1, 54, 0
1, 15456, Note_on_c, 1, 59, 64
1, 15456, Note_on_c, 1, 50, 64
1, 15479, Note_on_c, 1, 59, 0
1, 15480, Note_on_c, 1, 54, 64
1, 15501, Note_on_c, 1, 50, 0
1, 15503, Note_on_c, 1, 54, 0
1, 15504, Note_on_c, 1, 61, 64
1, 15504, Note_on_c, 1, 46, 64
1, 15527, Note_on_c, 1, 61, 0
1, 15528, Note_on_c, 1, 54, 64
1, 15549, Note_on_c, 1, 46, 0
1, 15551, Note_on_c, 1, 54, 0
1, 15552, Note_on_c, 1, 62, 64
1, 15552, Note_on_c, 1, 47, 64
1, 15552, Note_on_c, 1, 35, 64
1, 15575, Note_on_c, 1, 62, 0
1, 15576, Note_on_c, 1, 54, 64
1, 15599, Note_on_c, 1, 54, 0
1, 15600, Note_on_c, 1, 53, 64
1, 15623, Note_on_c, 1, 53, 0
1, 15624, Note_on_c, 1, 54, 64
1, 15641, Note_on_c, 1, 47, 0
1, 15641, Note_on_c, 1, 35, 0
1, 15647, Note_on_c, 1, 54, 0
1, 15648, Note_on_c, 1, 59, 64
1, 15648, Note_on_c, 1, 50, 64
1, 15671, Note_on_c, 1, 59, 0
1, 15672, Note_on_c, 1, 54, 64
1, 15693, Note_on_c, 1, 50, 0
1, 15695, Note_on_c, 1, 54, 0
1, 15696, Note_on_c, 1, 58, 64
1, 15696, Note_on_c, 1, 49, 64
1, 15719, Note_on_c, 1, 58, 0
1, 15720, Note_on_c, 1, 54, 64
1, 15741, Note_on_c, 1, 49, 0
1, 15743, Note_on_c, 1, 54, 0
1, 15744, Note_on_c, 1, 59, 64
1, 15744, Note_on_c, 1, 50, 64
1, 15767, Note_on_c, 1, 59, 0
1, 15768, Note_on_c, 1, 54, 64
1, 15789, Note_on_c, 1, 50, 0
1, 15791, Note_on_c, 1, 54, 0
1, 15792, Note_on_c, 1, 61, 64
1, 15792, Note_on_c, 1, 46, 64
1, 15815, Note_on_c, 1, 61, 0
1, 15816, Note_on_c, 1, 54, 64
1, 15837, Note_on_c, 1, 46, 0
1, 15839, Note_on_c, 1, 54, 0
1, 15840, Note_on_c, 0, 62, 64
1, 15840, Note_on_c, 1, 47, 64
1, 15860, Note_on_c, 0, 62, 0
1, 15860, Note_on_c, 1, 47, 0
1, 15888, Note_on_c, 0, 58, 64
1, 15888, Note_on_c, 1, 49, 64
1, 15908, Note_on_c, 0, 58, 0
1, 15908, Note_on_c, 1, 49, 0
1, 15936, Note_on_c, 0, 59, 64
1, 15936, Note_on_c, 1, 50, 64
1, 15956, Note_on_c, 0, 59, 0
1, 15956, Note_on_c, 1, 50, 0
1, 15984, Note_on_c, 0, 61, 64
1, 15984, Note_on_c, 1, 46, 64
1, 16004, Note_on_c, 0, 61, 0
1, 16004, Note_on_c, 1, 46, 0
1, 16032, Note_on_c, 0, 62, 64
1, 16032, Note_on_c, 1, 47, 64
1, 16052, Note_on_c, 0, 62, 0
1, 16052, Note_on_c, 1, 47, 0
1, 16080, Note_on_c, 0, 64, 64
1, 16080, Note_on_c, 1, 49, 64
1, 16100, Note_on_c, 0, 64, 0
1, 16100, Note_on_c, 1, 49, 0
1, 16128, Note_on_c, 0, 66, 64
1, 16128, Note_on_c, 1, 50, 64
1, 16148, Note_on_c, 0, 66, 0
1, 16148, Note_on_c, 1, 50, 0
1, 16176, Note_on_c, 0, 64, 64
1, 16176, Note_on_c, 1, 49, 64
1, 16196, Note_on_c, 0, 64, 0
1, 16196, Note_on_c, 1, 49, 0
1, 16224, Note_on_c, 0, 66, 64
1, 16224, Note_on_c, 1, 50, 64
1, 16244, Note_on_c, 0, 66, 0
1, 16244, Note_on_c, 1, 50, 0
1, 16272, Note_on_c, 0, 62, 64
1, 16272, Note_on_c, 1, 47, 64
1, 16292, Note_on_c, 0, 62, 0
1, 16292, Note_on_c, 1, 47, 0
1, 16320, Note_on_c, 0, 64, 64
1, 16320, Note_on_c, 1, 49, 64
1, 16340, Note_on_c, 0, 64, 0
1, 16340, Note_on_c, 1, 49, 0
1, 16368, Note_on_c, 0, 66, 64
1, 16368, Note_on_c, 1, 50, 64
1, 16388, Note_on_c, 0, 66, 0
1, 16388, Note_on_c, 1, 50, 0
1, 16416, Note_on_c, 0, 67, 64
1, 16416, Note_on_c, 1, 52, 64
1, 16439, Note_on_c, 0, 67, 0
1, 16440, Note_on_c, 0, 59, 64
1, 16461, Note_on_c, 1, 52, 0
1, 16463, Note_on_c, 0, 59, 0
1, 16464, Note_on_c, 0, 61, 64
1, 16464, Note_on_c, 1, 55, 64
1, 16487, Note_on_c, 0, 61, 0
1, 16488, Note_on_c, 0, 59, 64
1, 16509, Note_on_c, 1, 55, 0
1, 16511, Note_on_c, 0, 59, 0
1, 16512, Note_on_c, 0, 67, 64
1, 16512, Note_on_c, 1, 52, 64
1, 16535, Note_on_c, 0, 67, 0
1, 16536, Note_on_c, 0, 55, 64
1, 16557, Note_on_c, 1, 52, 0
1, 16559, Note_on_c, 0, 55, 0
1, 16560, Note_on_c, 0, 66, 64
1, 16560, Note_on_c, 1, 50, 64
1, 16583, Note_on_c, 0, 66, 0
1, 16584, Note_on_c, 0, 55, 64
1, 16605, Note_on_c, 1, 50, 0
1, 16607, Note_on_c, 0, 55, 0
1, 16608, Note_on_c, 0, 64, 64
1, 16608, Note_on_c, 1, 49, 64
1, 16631, Note_on_c, 0, 64, 0
1, 16632, Note_on_c, 0, 55, 64
1, 16653, Note_on_c, 1, 49, 0
1, 16655, Note_on_c, 0, 55, 0
1, 16656, Note_on_c, 0, 62, 64
1, 16656, Note_on_c, 1, 47, 64
1, 16679, Note_on_c, 0, 62, 0
1, 16680, Note_on_c, 0, 55, 64
1, 16701, Note_on_c, 1, 47, 0
1, 16703, Note_on_c, 0, 55, 0
1, 16704, Note_on_c, 0, 61, 64
1, 16704, Note_on_c, 1, 45, 64
1, 16727, Note_on_c, 0, 61, 0
1, 16728, Note_on_c, 0, 55, 64
1, 16749, Note_on_c, 1, 45, 0
1, 16751, Note_on_c, 0, 55, 0
1, 16752, Note_on_c, 0, 62, 64
1, 16752, Note_on_c, 1, 47, 64
1, 16775, Note_on_c, 0, 62, 0
1, 16776, Note_on_c, 0, 55, 64
1, 16797, Note_on_c, 1, 47, 0
1, 16799, Note_on_c, 0, 55, 0
1, 16800, Note_on_c, 0, 64, 64
1, 16800, Note_on_c, 1, 49, 64
1, 16823, Note_on_c, 0, 64, 0
1, 16824, Note_on_c, 0, 55, 64
1, 16845, Note_on_c, 1, 49, 0
1, 16847, Note_on_c, 0, 55, 0
1, 16848, Note_on_c, 0, 62, 64
1, 16848, Note_on_c, 1, 47, 64
1, 16871, Note_on_c, 0, 62, 0
1, 16872, Note_on_c, 0, 55, 64
1, 16893, Note_on_c, 1, 47, 0
1, 16895, Note_on_c, 0, 55, 0
1, 16896, Note_on_c, 0, 64, 64
1, 16896, Note_on_c, 1, 49, 64
1, 16919, Note_on_c, 0, 64, 0
1, 16920, Note_on_c, 0, 55, 64
1, 16941, Note_on_c, 1, 49, 0
1, 16943, Note_on_c, 0, 55, 0
1, 16944, Note_on_c, 0, 61, 64
1, 16944, Note_on_c, 1, 45, 64
1, 16967, Note_on_c, 0, 61, 0
1, 16968, Note_on_c, 0, 55, 64
1, 16989, Note_on_c, 1, 45, 0
1, 16991, Note_on_c, 0, 55, 0
1, 16992, Note_on_c, 1, 62, 64
1, 16992, Note_on_c, 1, 42, 64
1, 17015, Note_on_c, 1, 62, 0
1, 17016, Note_on_c, 1, 57, 64
1, 17039, Note_on_c, 1, 57, 0
1, 17040, Note_on_c, 1, 59, 64
1, 17063, Note_on_c, 1, 59, 0
1, 17064, Note_on_c, 1, 57, 64
1, 17081, Note_on_c, 1, 42, 0
1, 17087, Note_on_c, 1, 57, 0
1, 17088, Note_on_c, 1, 59, 64
1, 17088, Note_on_c, 1, 43, 64
1, 17111, Note_on_c, 1, 59, 0
1, 17112, Note_on_c, 1, 52, 64
1, 17135, Note_on_c, 1, 52, 0
1, 17136, Note_on_c, 1, 54, 64
1, 17159, Note_on_c, 1, 54, 0
1, 17160, Note_on_c, 1, 52, 64
1, 17177, Note_on_c, 1, 43, 0
1, 17183, Note_on_c, 1, 52, 0
1, 17184, Note_on_c, 1, 55, 64
1, 17184, Note_on_c, 1, 45, 64
1, 17207, Note_on_c, 1, 55, 0
1, 17208, Note_on_c, 1, 49, 64
1, 17231, Note_on_c, 1, 49, 0
1, 17232, Note_on_c, 1, 50, 64
1, 17255, Note_on_c, 1, 50, 0
1, 17256, Note_on_c, 1, 49, 64
1, 17273, Note_on_c, 1, 45, 0
1, 17279, Note_on_c, 1, 49, 0
1, 17280, Note_on_c, 1, 50, 64
1, 17280, Note_on_c, 1, 38, 64
1, 17369, Note_on_c, 1, 50, 0
1, 17369, Note_on_c, 1, 38, 0
1, 17376, Note_on_c, 1, 50, 64
1, 17465, Note_on_c, 1, 50, 0
1, 17472, Note_on_c, 0, 66, 64
1, 17561, Note_on_c, 0, 66, 0
1, 17568, Note_on_c, 0, 65, 64
1, 17591, Note_on_c, 0, 65, 0
1, 17592, Note_on_c, 0, 66, 64
1, 17615, Note_on_c, 0, 66, 0
1, 17616, Note_on_c, 0, 67, 64
1, 17616, Note_on_c, 1, 54, 64
1, 17639, Note_on_c, 0, 67, 0
1, 17640, Note_on_c, 0, 66, 64
1, 17661, Note_on_c, 1, 54, 0
1, 17663, Note_on_c, 0, 66, 0
1, 17664, Note_on_c, 0, 65, 64
1, 17664, Note_on_c, 1, 58, 64
1, 17687, Note_on_c, 0, 65, 0
1, 17688, Note_on_c, 0, 66, 64
1, 17709, Note_on_c, 1, 58, 0
1, 17711, Note_on_c, 0, 66, 0
1, 17712, Note_on_c, 0, 67, 64
1, 17712, Note_on_c, 1, 61, 64
1, 17735, Note_on_c, 0, 67, 0
1, 17736, Note_on_c, 0, 66, 64
1, 17757, Note_on_c, 1, 61, 0
1, 17759, Note_on_c, 0, 66, 0
1, 17760, Note_on_c, 0, 65, 64
1, 17760, Note_on_c, 1, 64, 64
1, 17783, Note_on_c, 0, 65, 0
1, 17784, Note_on_c, 0, 66, 64
1, 17805, Note_on_c, 1, 64, 0
1, 17807, Note_on_c, 0, 66, 0
1, 17808, Note_on_c, 0, 67, 64
1, 17808, Note_on_c, 1, 61, 64
1, 17831, Note_on_c, 0, 67, 0
1, 17832, Note_on_c, 0, 66, 64
1, 17853, Note_on_c, 1, 61, 0
1, 17855, Note_on_c, 0, 66, 0
1, 17856, Note_on_c, 0, 65, 64
1, 17856, Note_on_c, 1, 62, 64
1, 17879, Note_on_c, 0, 65, 0
1, 17880, Note_on_c, 0, 66, 64
1, 17901, Note_on_c, 1, 62, 0
1, 17903, Note_on_c, 0, 66, 0
1, 17904, Note_on_c, 0, 67, 64
1, 17904, Note_on_c, 1, 54, 64
1, 17927, Note_on_c, 0, 67, 0
1, 17928, Note_on_c, 0, 66, 64
1, 17949, Note_on_c, 1, 54, 0
1, 17951, Note_on_c, 0, 66, 0
1, 17952, Note_on_c, 0, 65, 64
1, 17952, Note_on_c, 1, 59, 64
1, 17975, Note_on_c, 0, 65, 0
1, 17976, Note_on_c, 0, 66, 64
1, 17997, Note_on_c, 1, 59, 0
1, 17999, Note_on_c, 0, 66, 0
1, 18000, Note_on_c, 0, 67, 64
1, 18000, Note_on_c, 1, 50, 64
1, 18023, Note_on_c, 0, 67, 0
1, 18024, Note_on_c, 0, 66, 64
1, 18045, Note_on_c, 1, 50, 0
1, 18047, Note_on_c, 0, 66, 0
1, 18048, Note_on_c, 0, 65, 64
1, 18048, Note_on_c, 1, 54, 64
1, 18071, Note_on_c, 0, 65, 0
1, 18072, Note_on_c, 0, 66, 64
1, 18093, Note_on_c, 1, 54, 0
1, 18095, Note_on_c, 0, 66, 0
1, 18096, Note_on_c, 0, 67, 64
1, 18096, Note_on_c, 1, 47, 64
1, 18119, Note_on_c, 0, 67, 0
1, 18120, Note_on_c, 0, 66, 64
1, 18141, Note_on_c, 1, 47, 0
1, 18143, Note_on_c, 0, 66, 0
1, 18144, Note_on_c, 0, 65, 64
1, 18144, Note_on_c, 1, 46, 64
1, 18167, Note_on_c, 0, 65, 0
1, 18168, Note_on_c, 0, 66, 64
1, 18189, Note_on_c, 1, 46, 0
1, 18191, Note_on_c, 0, 66, 0
1, 18192, Note_on_c, 0, 67, 64
1, 18192, Note_on_c, 1, 49, 64
1, 18192, Note_on_c, 1, 37, 64
1, 18215, Note_on_c, 0, 67, 0
1, 18216, Note_on_c, 0, 66, 64
1, 18237, Note_on_c, 1, 49, 0
1, 18237, Note_on_c, 1, 37, 0
1, 18239, Note_on_c, 0, 66, 0
1, 18240, Note_on_c, 0, 65, 64
1, 18240, Note_on_c, 1, 52, 64
1, 18240, Note_on_c, 1, 40, 64
1, 18263, Note_on_c, 0, 65, 0
1, 18264, Note_on_c, 0, 66, 64
1, 18285, Note_on_c, 1, 52, 0
1, 18285, Note_on_c, 1, 40, 0
1, 18287, Note_on_c, 0, 66, 0
1, 18288, Note_on_c, 0, 67, 64
1, 18288, Note_on_c, 1, 49, 64
1, 18288, Note_on_c, 1, 37, 64
1, 18311, Note_on_c, 0, 67, 0
1, 18312, Note_on_c, 0, 66, 64
1, 18333, Note_on_c, 1, 49, 0
1, 18333, Note_on_c, 1, 37, 0
1, 18335, Note_on_c, 0, 66, 0
1, 18336, Note_on_c, 0, 65, 64
1, 18336, Note_on_c, 1, 50, 64
1, 18336, Note_on_c, 1, 38, 64
1, 18359, Note_on_c, 0, 65, 0
1, 18360, Note_on_c, 0, 66, 64
1, 18381, Note_on_c, 1, 50, 0
1, 18381, Note_on_c, 1, 38, 0
1, 18383, Note_on_c, 0, 66, 0
1, 18384, Note_on_c, 0, 67, 64
1, 18384, Note_on_c, 1, 47, 64
1, 18384, Note_on_c, 1, 35, 64
1, 18407, Note_on_c, 0, 67, 0
1, 18408, Note_on_c, 0, 66, 64
1, 18429, Note_on_c, 1, 47, 0
1, 18429, Note_on_c, 1, 35, 0
1, 18431, Note_on_c, 0, 66, 0
1, 18432, Note_on_c, 0, 65, 64
1, 18432, Note_on_c, 1, 42, 64
1, 18432, Note_on_c, 1, 30, 64
1, 18455, Note_on_c, 0, 65, 0
1, 18456, Note_on_c, 0, 66, 64
1, 18479, Note_on_c, 0, 66, 0
1, 18480, Note_on_c, 0, 67, 64
1, 18503, Note_on_c, 0, 67, 0
1, 18504, Note_on_c, 0, 66, 64
1, 18521, Note_on_c, 1, 42, 0
1, 18521, Note_on_c, 1, 30, 0
1, 18527, Note_on_c, 0, 66, 0
1, 18528, Note_on_c, 0, 64, 64
1, 18551, Note_on_c, 0, 64, 0
1, 18552, Note_on_c, 0, 67, 64
1, 18575, Note_on_c, 0, 67, 0
1, 18576, Note_on_c, 0, 66, 64
1, 18599, Note_on_c, 0, 66, 0
1, 18600, Note_on_c, 0, 64, 64
1, 18623, Note_on_c, 0, 64, 0
1, 18624, Note_on_c, 0, 62, 64
1, 18647, Note_on_c, 0, 62, 0
1, 18648, Note_on_c, 0, 61, 64
1, 18671, Note_on_c, 0, 61, 0
1, 18672, Note_on_c, 0, 59, 64
1, 18695, Note_on_c, 0, 59, 0
1, 18696, Note_on_c, 0, 58, 64
1, 18719, Note_on_c, 0, 58, 0
1, 18720, Note_on_c, 1, 62, 64
1, 18720, Note_on_c, 1, 47, 64
1, 18720, Note_on_c, 1, 35, 64
1, 18743, Note_on_c, 1, 62, 0
1, 18744, Note_on_c, 1, 54, 64
1, 18767, Note_on_c, 1, 54, 0
1, 18768, Note_on_c, 1, 53, 64
1, 18791, Note_on_c, 1, 53, 0
1, 18792, Note_on_c, 1, 54, 64
1, 18809, Note_on_c, 1, 47, 0
1, 18809, Note_on_c, 1, 35, 0
1, 18815, Note_on_c, 1, 54, 0
1, 18816, Note_on_c, 1, 59, 64
1, 18816, Note_on_c, 1, 50, 64
1, 18839, Note_on_c, 1, 59, 0
1, 18840, Note_on_c, 1, 54, 64
1, 18861, Note_on_c, 1, 50, 0
1, 18863, Note_on_c, 1, 54, 0
1, 18864, Note_on_c, 1, 58, 64
1, 18864, Note_on_c, 1, 49, 64
1, 18887, Note_on_c, 1, 58, 0
1, 18888, Note_on_c, 1, 54, 64
1, 18909, Note_on_c, 1, 49, 0
1, 18911, Note_on_c, 1, 54, 0
1, 18912, Note_on_c, 1, 59, 64
1, 18912, Note_on_c, 1, 50, 64
1, 18935, Note_on_c, 1, 59, 0
1, 18936, Note_on_c, 1, 54, 64
1, 18957, Note_on_c, 1, 50, 0
1, 18959, Note_on_c, 1, 54, 0
1, 18960, Note_on_c, 1, 61, 64
1, 18960, Note_on_c, 1, 46, 64
1, 18983, Note_on_c, 1, 61, 0
1, 18984, Note_on_c, 1, 54, 64
1, 19005, Note_on_c, 1, 46, 0
1, 19007, Note_on_c, 1, 54, 0
1, 19008, Note_on_c, 1, 62, 64
1, 19008, Note_on_c, 1, 47, 64
1, 19008, Note_on_c, 1, 35, 64
1, 19031, Note_on_c, 1, 62, 0
1, 19032, Note_on_c, 1, 54, 64
1, 19055, Note_on_c, 1, 54, 0
1, 19056, Note_on_c, 1, 53, 64
1, 19079, Note_on_c, 1, 53, 0
1, 19080, Note_on_c, 1, 54, 64
1, 19097, Note_on_c, 1, 47, 0
1, 19097, Note_on_c, 1, 35, 0
1, 19103, Note_on_c, 1, 54, 0
1, 19104, Note_on_c, 1, 59, 64
1, 19104, Note_on_c, 1, 50, 64
1, 19127, Note_on_c, 1, 59, 0
1, 19128, Note_on_c, 1, 54, 64
1, 19149, Note_on_c, 1, 50, 0
1, 19151, Note_on_c, 1, 54, 0
1, 19152, Note_on_c, 1, 58, 64
1, 19152, Note_on_c, 1, 49, 64
1, 19175, Note_on_c, 1, 58, 0
1, 19176, Note_on_c, 1, 54, 64
1, 19197, Note_on_c, 1, 49, 0
1, 19199, Note_on_c, 1, 54, 0
1, 19200, Note_on_c, 1, 59, 64
1, 19200, Note_on_c, 1, 50, 64
1, 19223, Note_on_c, 1, 59, 0
1, 19224, Note_on_c, 1, 54, 64
1, 19245, Note_on_c, 1, 50, 0
1, 19247, Note_on_c, 1, 54, 0
1, 19248, Note_on_c, 1, 61, 64
1, 19248, Note_on_c, 1, 46, 64
1, 19271, Note_on_c, 1, 61, 0
1, 19272, Note_on_c, 1, 54, 64
1, 19293, Note_on_c, 1, 46, 0
1, 19295, Note_on_c, 1, 54, 0
1, 19296, Note_on_c, 0, 62, 64
1, 19296, Note_on_c, 1, 47, 64
1, 19319, Note_on_c, 0, 62, 0
1, 19320, Note_on_c, 0, 55, 64
1, 19343, Note_on_c, 0, 55, 0
1, 19344, Note_on_c, 0, 57, 64
1, 19367, Note_on_c, 0, 57, 0
1, 19368, Note_on_c, 0, 55, 64
1, 19385, Note_on_c, 1, 47, 0
1, 19391, Note_on_c, 0, 55, 0
1, 19392, Note_on_c, 0, 64, 64
1, 19392, Note_on_c, 1, 49, 64
1, 19415, Note_on_c, 0, 64, 0
1, 19416, Note_on_c, 0, 58, 64
1, 19439, Note_on_c, 0, 58, 0
1, 19440, Note_on_c, 0, 59, 64
1, 19463, Note_on_c, 0, 59, 0
1, 19464, Note_on_c, 0, 58, 64
1, 19481, Note_on_c, 1, 49, 0
1, 19487, Note_on_c, 0, 58, 0
1, 19488, Note_on_c, 0, 66, 64
1, 19488, Note_on_c, 1, 50, 64
1, 19511, Note_on_c, 0, 66, 0
1, 19512, Note_on_c, 0, 59, 64
1, 19535, Note_on_c, 0, 59, 0
1, 19536, Note_on_c, 0, 61, 64
1, 19559, Note_on_c, 0, 61, 0
1, 19560, Note_on_c, 0, 59, 64
1, 19577, Note_on_c, 1, 50, 0
1, 19583, Note_on_c, 0, 59, 0
1, 19584, Note_on_c, 0, 67, 64
1, 19584, Note_on_c, 1, 52, 64
1, 19607, Note_on_c, 0, 67, 0
1, 19608, Note_on_c, 0, 61, 64
1, 19631, Note_on_c, 0, 61, 0
1, 19632, Note_on_c, 0, 62, 64
1, 19655, Note_on_c, 0, 62, 0
1, 19656, Note_on_c, 0, 61, 64
1, 19673, Note_on_c, 1, 52, 0
1, 19679, Note_on_c, 0, 61, 0
1, 19680, Note_on_c, 0, 66, 64
1, 19680, Note_on_c, 1, 50, 64
1, 19703, Note_on_c, 0, 66, 0
1, 19704, Note_on_c, 0, 59, 64
1, 19727, Note_on_c, 0, 59, 0
1, 19728, Note_on_c, 0, 61, 64
1, 19751, Note_on_c, 0, 61, 0
1, 19752, Note_on_c, 0, 59, 64
1, 19769, Note_on_c, 1, 50, 0
1, 19775, Note_on_c, 0, 59, 0
1, 19776, Note_on_c, 0, 64, 64
1, 19776, Note_on_c, 1, 49, 64
1, 19799, Note_on_c, 0, 64, 0
1, 19800, Note_on_c, 0, 58, 64
1, 19823, Note_on_c, 0, 58, 0
1, 19824, Note_on_c, 0, 59, 64
1, 19847, Note_on_c, 0, 59, 0
1, 19848, Note_on_c, 0, 58, 64
1, 19865, Note_on_c, 1, 49, 0
1, 19871, Note_on_c, 0, 58, 0
1, 19872, Note_on_c, 0, 62, 64
1, 19872, Note_on_c, 1, 47, 64
1, 19895, Note_on_c, 0, 62, 0
1, 19896, Note_on_c, 0, 59, 64
1, 19919, Note_on_c, 0, 59, 0
1, 19920, Note_on_c, 0, 58, 64
1, 19943, Note_on_c, 0, 58, 0
1, 19944, Note_on_c, 0, 59, 64
1, 19961, Note_on_c, 1, 47, 0
1, 19967, Note_on_c, 0, 59, 0
1, 19968, Note_on_c, 1, 40, 64
1, 20016, Note_on_c, 0, 61, 64
1, 20057, Note_on_c, 1, 40, 0
1, 20061, Note_on_c, 0, 61, 0
1, 20064, Note_on_c, 1, 42, 64
1, 20112, Note_on_c, 0, 58, 64
1, 20153, Note_on_c, 1, 42, 0
1, 20157, Note_on_c, 0, 58, 0
1, 20160, Note_on_c, 1, 35, 64
1, 20249, Note_on_c, 1, 35, 0
1, 20256, Note_on_c, 0, 59, 64
1, 20295, Note_on_c, 0, 59, 0
1, 20352, Note_on_c, 0, 66, 64
1, 20441, Note_on_c, 0, 66, 0
1, 20448, Note_on_c, 0, 65, 64
1, 20471, Note_on_c, 0, 65, 0
1, 20472, Note_on_c, 0, 66, 64
1, 20495, Note_on_c, 0, 66, 0
1, 20496, Note_on_c, 0, 67, 64
1, 20496, Note_on_c, 1, 54, 64
1, 20519, Note_on_c, 0, 67, 0
1, 20520, Note_on_c, 0, 66, 64
1, 20541, Note_on_c, 1, 54, 0
1, 20543, Note_on_c, 0, 66, 0
1, 20544, Note_on_c, 0, 65, 64
1, 20544, Note_on_c, 1, 58, 64
1, 20567, Note_on_c, 0, 65, 0
1, 20568, Note_on_c, 0, 66, 64
1, 20589, Note_on_c, 1, 58, 0
1, 20591, Note_on_c, 0, 66, 0
1, 20592, Note_on_c, 0, 67, 64
1, 20592, Note_on_c, 1, 61, 64
1, 20615, Note_on_c, 0, 67, 0
1, 20616, Note_on_c, 0, 66, 64
1, 20637, Note_on_c, 1, 61, 0
1, 20639, Note_on_c, 0, 66, 0
1, 20640, Note_on_c, 0, 65, 64
1, 20640, Note_on_c, 1, 64, 64
1, 20663, Note_on_c, 0, 65, 0
1, 20664, Note_on_c, 0, 66, 64
1, 20685, Note_on_c, 1, 64, 0
1, 20687, Note_on_c, 0, 66, 0
1, 20688, Note_on_c, 0, 67, 64
1, 20688, Note_on_c, 1, 61, 64
1, 20711, Note_on_c, 0, 67, 0
1, 20712, Note_on_c, 0, 66, 64
1, 20733, Note_on_c, 1, 61, 0
1, 20735, Note_on_c, 0, 66, 0
1, 20736, Note_on_c, 0, 65, 64
1, 20736, Note_on_c, 1, 62, 64
1, 20759, Note_on_c, 0, 65, 0
1, 20760, Note_on_c, 0, 66, 64
1, 20781, Note_on_c, 1, 62, 0
1, 20783, Note_on_c, 0, 66, 0
1, 20784, Note_on_c, 0, 67, 64
1, 20784, Note_on_c, 1, 54, 64
1, 20807, Note_on_c, 0, 67, 0
1, 20808, Note_on_c, 0, 66, 64
1, 20829, Note_on_c, 1, 54, 0
1, 20831, Note_on_c, 0, 66, 0
1, 20832, Note_on_c, 0, 65, 64
1, 20832, Note_on_c, 1, 59, 64
1, 20855, Note_on_c, 0, 65, 0
1, 20856, Note_on_c, 0, 66, 64
1, 20877, Note_on_c, 1, 59, 0
1, 20879, Note_on_c, 0, 66, 0
1, 20880, Note_on_c, 0, 67, 64
1, 20880, Note_on_c, 1, 50, 64
1, 20903, Note_on_c, 0, 67, 0
1, 20904, Note_on_c, 0, 66, 64
1, 20925, Note_on_c, 1, 50, 0
1, 20927, Note_on_c, 0, 66, 0
1, 20928, Note_on_c, 0, 65, 64
1, 20928, Note_on_c, 1, 54, 64
1, 20951, Note_on_c, 0, 65, 0
1, 20952, Note_on_c, 0, 66, 64
1, 20973, Note_on_c, 1, 54, 0
1, 20975, Note_on_c, 0, 66, 0
1, 20976, Note_on_c, 0, 67, 64
1, 20976, Note_on_c, 1, 47, 64
1, 20999, Note_on_c, 0, 67, 0
1, 21000, Note_on_c, 0, 66, 64
1, 21021, Note_on_c, 1, 47, 0
1, 21023, Note_on_c, 0, 66, 0
1, 21024, Note_on_c, 0, 65, 64
1, 21024, Note_on_c, 1, 46, 64
1, 21047, Note_on_c, 0, 65, 0
1, 21048, Note_on_c, 0, 66, 64
1, 21069, Note_on_c, 1, 46, 0
1, 21071, Note_on_c, 0, 66, 0
1, 21072, Note_on_c, 0, 67, 64
1, 21072, Note_on_c, 1, 49, 64
1, 21072, Note_on_c, 1, 37, 64
1, 21095, Note_on_c, 0, 67, 0
1, 21096, Note_on_c, 0, 66, 64
1, 21117, Note_on_c, 1, 49, 0
1, 21117, Note_on_c, 1, 37, 0
1, 21119, Note_on_c, 0, 66, 0
1, 21120, Note_on_c, 0, 65, 64
1, 21120, Note_on_c, 1, 52, 64
1, 21120, Note_on_c, 1, 40, 64
1, 21143, Note_on_c, 0, 65, 0
1, 21144, Note_on_c, 0, 66, 64
1, 21165, Note_on_c, 1, 52, 0
1, 21165, Note_on_c, 1, 40, 0
1, 21167, Note_on_c, 0, 66, 0
1, 21168, Note_on_c, 0, 67, 64
1, 21168, Note_on_c, 1, 49, 64
1, 21168, Note_on_c, 1, 37, 64
1, 21191, Note_on_c, 0, 67, 0
1, 21192, Note_on_c, 0, 66, 64
1, 21213, Note_on_c, 1, 49, 0
1, 21213, Note_on_c, 1, 37, 0
1, 21215, Note_on_c, 0, 66, 0
1, 21216, Note_on_c, 0, 65, 64
1, 21216, Note_on_c, 1, 50, 64
1, 21216, Note_on_c, 1, 38, 64
1, 21239, Note_on_c, 0, 65, 0
1, 21240, Note_on_c, 0, 66, 64
1, 21261, Note_on_c, 1, 50, 0
1, 21261, Note_on_c, 1, 38, 0
1, 21263, Note_on_c, 0, 66, 0
1, 21264, Note_on_c, 0, 67, 64
1, 21264, Note_on_c, 1, 47, 64
1, 21264, Note_on_c, 1, 35, 64
1, 21287, Note_on_c, 0, 67, 0
1, 21288, Note_on_c, 0, 66, 64
1, 21309, Note_on_c, 1, 47, 0
1, 21309, Note_on_c, 1, 35, 0
1, 21311, Note_on_c, 0, 66, 0
1, 21312, Note_on_c, 0, 65, 64
1, 21312, Note_on_c, 1, 42, 64
1, 21312, Note_on_c, 1, 30, 64
1, 21335, Note_on_c, 0, 65, 0
1, 21336, Note_on_c, 0, 66, 64
1, 21359, Note_on_c, 0, 66, 0
1, 21360, Note_on_c, 0, 67, 64
1, 21383, Note_on_c, 0, 67, 0
1, 21384, Note_on_c, 0, 66, 64
1, 21401, Note_on_c, 1, 42, 0
1, 21401, Note_on_c, 1, 30, 0
1, 21407, Note_on_c, 0, 66, 0
1, 21408, Note_on_c, 0, 64, 64
1, 21431, Note_on_c, 0, 64, 0
1, 21432, Note_on_c, 0, 67, 64
1, 21455, Note_on_c, 0, 67, 0
1, 21456, Note_on_c, 0, 66, 64
1, 21479, Note_on_c, 0, 66, 0
1, 21480, Note_on_c, 0, 64, 64
1, 21503, Note_on_c, 0, 64, 0
1, 21504, Note_on_c, 0, 62, 64
1, 21527, Note_on_c, 0, 62, 0
1, 21528, Note_on_c, 0, 61, 64
1, 21551, Note_on_c, 0, 61, 0
1, 21552, Note_on_c, 0, 59, 64
1, 21575, Note_on_c, 0, 59, 0
1, 21576, Note_on_c, 0, 58, 64
1, 21599, Note_on_c, 0, 58, 0
1, 21600, Note_on_c, 1, 62, 64
1, 21600, Note_on_c, 1, 47, 64
1, 21600, Note_on_c, 1, 35, 64
1, 21623, Note_on_c, 1, 62, 0
1, 21624, Note_on_c, 1, 54, 64
1, 21647, Note_on_c, 1, 54, 0
1, 21648, Note_on_c, 1, 53, 64
1, 21671, Note_on_c, 1, 53, 0
1, 21672, Note_on_c, 1, 54, 64
1, 21689, Note_on_c, 1, 47, 0
1, 21689, Note_on_c, 1, 35, 0
1, 21695, Note_on_c, 1, 54, 0
1, 21696, Note_on_c, 1, 59, 64
1, 21696, Note_on_c, 1, 50, 64
1, 21719, Note_on_c, 1, 59, 0
1, 21720, Note_on_c, 1, 54, 64
1, 21741, Note_on_c, 1, 50, 0
1, 21743, Note_on_c, 1, 54, 0
1, 21744, Note_on_c, 1, 58, 64
1, 21744, Note_on_c, 1, 49, 64
1, 21767, Note_on_c, 1, 58, 0
1, 21768, Note_on_c, 1, 54, 64
1, 21789, Note_on_c, 1, 49, 0
1, 21791, Note_on_c, 1, 54, 0
1, 21792, Note_on_c, 1, 59, 64
1, 21792, Note_on_c, 1, 50, 64
1, 21815, Note_on_c, 1, 59, 0
1, 21816, Note_on_c, 1, 54, 64
1, 21837, Note_on_c, 1, 50, 0
1, 21839, Note_on_c, 1, 54, 0
1, 21840, Note_on_c, 1, 61, 64
1, 21840, Note_on_c, 1, 46, 64
1, 21863, Note_on_c, 1, 61, 0
1, 21864, Note_on_c, 1, 54, 64
1, 21885, Note_on_c, 1, 46, 0
1, 21887, Note_on_c, 1, 54, 0
1, 21888, Note_on_c, 1, 62, 64
1, 21888, Note_on_c, 1, 47, 64
1, 21888, Note_on_c, 1, 35, 64
1, 21911, Note_on_c, 1, 62, 0
1, 21912, Note_on_c, 1, 54, 64
1, 21935, Note_on_c, 1, 54, 0
1, 21936, Note_on_c, 1, 53, 64
1, 21959, Note_on_c, 1, 53, 0
1, 21960, Note_on_c, 1, 54, 64
1, 21977, Note_on_c, 1, 47, 0
1, 21977, Note_on_c, 1, 35, 0
1, 21983, Note_on_c, 1, 54, 0
1, 21984, Note_on_c, 1, 59, 64
1, 21984, Note_on_c, 1, 50, 64
1, 22007, Note_on_c, 1, 59, 0
1, 22008, Note_on_c, 1, 54, 64
1, 22029, Note_on_c, 1, 50, 0
1, 22031, Note_on_c, 1, 54, 0
1, 22032, Note_on_c, 1, 58, 64
1, 22032, Note_on_c, 1, 49, 64
1, 22055, Note_on_c, 1, 58, 0
1, 22056, Note_on_c, 1, 54, 64
1, 22077, Note_on_c, 1, 49, 0
1, 22079, Note_on_c, 1, 54, 0
1, 22080, Note_on_c, 1, 59, 64
1, 22080, Note_on_c, 1, 50, 64
1, 22103, Note_on_c, 1, 59, 0
1, 22104, Note_on_c, 1, 54, 64
1, 22125, Note_on_c, 1, 50, 0
1, 22127, Note_on_c, 1, 54, 0
1, 22128, Note_on_c, 1, 61, 64
1, 22128, Note_on_c, 1, 46, 64
1, 22151, Note_on_c, 1, 61, 0
1, 22152, Note_on_c, 1, 54, 64
1, 22173, Note_on_c, 1, 46, 0
1, 22175, Note_on_c, 1, 54, 0
1, 22176, Note_on_c, 0, 62, 64
1, 22176, Note_on_c, 1, 47, 64
1, 22199, Note_on_c, 0, 62, 0
1, 22200, Note_on_c, 0, 55, 64
1, 22223, Note_on_c, 0, 55, 0
1, 22224, Note_on_c, 0, 57, 64
1, 22247, Note_on_c, 0, 57, 0
1, 22248, Note_on_c, 0, 55, 64
1, 22265, Note_on_c, 1, 47, 0
1, 22271, Note_on_c, 0, 55, 0
1, 22272, Note_on_c, 0, 64, 64
1, 22272, Note_on_c, 1, 49, 64
1, 22295, Note_on_c, 0, 64, 0
1, 22296, Note_on_c, 0, 58, 64
1, 22319, Note_on_c, 0, 58, 0
1, 22320, Note_on_c, 0, 59, 64
1, 22343, Note_on_c, 0, 59, 0
1, 22344, Note_on_c, 0, 58, 64
1, 22361, Note_on_c, 1, 49, 0
1, 22367, Note_on_c, 0, 58, 0
1, 22368, Note_on_c, 0, 66, 64
1, 22368, Note_on_c, 1, 50, 64
1, 22391, Note_on_c, 0, 66, 0
1, 22392, Note_on_c, 0, 59, 64
1, 22415, Note_on_c, 0, 59, 0
1, 22416, Note_on_c, 0, 61, 64
1, 22439, Note_on_c, 0, 61, 0
1, 22440, Note_on_c, 0, 59, 64
1, 22457, Note_on_c, 1, 50, 0
1, 22463, Note_on_c, 0, 59, 0
1, 22464, Note_on_c, 0, 67, 64
1, 22464, Note_on_c, 1, 52, 64
1, 22487, Note_on_c, 0, 67, 0
1, 22488, Note_on_c, 0, 61, 64
1, 22511, Note_on_c, 0, 61, 0
1, 22512, Note_on_c, 0, 62, 64
1, 22535, Note_on_c, 0, 62, 0
1, 22536, Note_on_c, 0, 61, 64
1, 22553, Note_on_c, 1, 52, 0
1, 22559, Note_on_c, 0, 61, 0
1, 22560, Note_on_c, 0, 66, 64
1, 22560, Note_on_c, 1, 50, 64
1, 22583, Note_on_c, 0, 66, 0
1, 22584, Note_on_c, 0, 59, 64
1, 22607, Note_on_c, 0, 59, 0
1, 22608, Note_on_c, 0, 61, 64
1, 22631, Note_on_c, 0, 61, 0
1, 22632, Note_on_c, 0, 59, 64
1, 22649, Note_on_c, 1, 50, 0
1, 22655, Note_on_c, 0, 59, 0
1, 22656, Note_on_c, 0, 64, 64
1, 22656, Note_on_c, 1, 49, 64
1, 22679, Note_on_c, 0, 64, 0
1, 22680, Note_on_c, 0, 58, 64
1, 22703, Note_on_c, 0, 58, 0
1, 22704, Note_on_c, 0, 59, 64
1, 22727, Note_on_c, 0, 59, 0
1, 22728, Note_on_c, 0, 58, 64
1, 22745, Note_on_c, 1, 49, 0
1, 22751, Note_on_c, 0, 58, 0
1, 22752, Note_on_c, 0, 62, 64
1, 22752, Note_on_c, 1, 47, 64
1, 22775, Note_on_c, 0, 62, 0
1, 22776, Note_on_c, 0, 59, 64
1, 22799, Note_on_c, 0, 59, 0
1, 22800, Note_on_c, 0, 58, 64
1, 22823, Note_on_c, 0, 58, 0
1, 22824, Note_on_c, 0, 59, 64
1, 22841, Note_on_c, 1, 47, 0
1, 22847, Note_on_c, 0, 59, 0
1, 22848, Note_on_c, 1, 40, 64
1, 22896, Note_on_c, 0, 61, 64
1, 22937, Note_on_c, 1, 40, 0
1, 22941, Note_on_c, 0, 61, 0
1, 22944, Note_on_c, 1, 42, 64
1, 22992, Note_on_c, 0, 58, 64
1, 23033, Note_on_c, 1, 42, 0
1, 23037, Note_on_c, 0, 58, 0
1, 23040, Note_on_c, 1, 35, 64
1, 23129, Note_on_c, 1, 35, 0
1, 23136, Note_on_c, 0, 59, 64
1, 23175, Note_on_c, 0, 59, 0
1, 23232, Note_on_c, 0, 80, 64
1, 23255, Note_on_c, 0, 80, 0
1, 23256, Note_on_c, 0, 78, 64
1, 23279, Note_on_c, 0, 78, 0
1, 23280, Note_on_c, 0, 76, 64
1, 23303, Note_on_c, 0, 76, 0
1, 23304, Note_on_c, 0, 75, 64
1, 23327, Note_on_c, 0, 75, 0
1, 23328, Note_on_c, 0, 73, 64
1, 23395, Note_on_c, 0, 73, 0
1, 23400, Note_on_c, 0, 71, 64
1, 23423, Note_on_c, 0, 71, 0
1, 23424, Note_on_c, 0, 83, 64
1, 23520, Note_on_c, 1, 71, 64
1, 23520, Note_on_c, 1, 63, 64
1, 23587, Note_on_c, 0, 83, 0
1, 23592, Note_on_c, 0, 82, 64
1, 23609, Note_on_c, 1, 71, 0
1, 23609, Note_on_c, 1, 63, 0
1, 23615, Note_on_c, 0, 82, 0
1, 23616, Note_on_c, 0, 80, 64
1, 23616, Note_on_c, 1, 71, 64
1, 23616, Note_on_c, 1, 64, 64
1, 23628, Note_on_c, 0, 80, 0
1, 23628, Note_on_c, 0, 82, 64
1, 23640, Note_on_c, 0, 82, 0
1, 23640, Note_on_c, 0, 80, 64
1, 23652, Note_on_c, 0, 80, 0
1, 23652, Note_on_c, 0, 82, 64
1, 23664, Note_on_c, 0, 82, 0
1, 23664, Note_on_c, 0, 80, 64
1, 23676, Note_on_c, 0, 80, 0
1, 23676, Note_on_c, 0, 82, 64
1, 23683, Note_on_c, 0, 82, 0
1, 23688, Note_on_c, 0, 78, 64
1, 23700, Note_on_c, 0, 78, 0
1, 23700, Note_on_c, 0, 80, 64
1, 23705, Note_on_c, 1, 71, 0
1, 23705, Note_on_c, 1, 64, 0
1, 23712, Note_on_c, 0, 80, 0
1, 23712, Note_on_c, 0, 78, 64
1, 23712, Note_on_c, 1, 71, 64
1, 23712, Note_on_c, 1, 63, 64
1, 23751, Note_on_c, 0, 78, 0
1, 23801, Note_on_c, 1, 71, 0
1, 23801, Note_on_c, 1, 63, 0
1, 23808, Note_on_c, 0, 80, 64
1, 23831, Note_on_c, 0, 80, 0
1, 23832, Note_on_c, 0, 78, 64
1, 23855, Note_on_c, 0, 78, 0
1, 23856, Note_on_c, 0, 76, 64
1, 23879, Note_on_c, 0, 76, 0
1, 23880, Note_on_c, 0, 75, 64
1, 23903, Note_on_c, 0, 75, 0
1, 23904, Note_on_c, 0, 73, 64
1, 23971, Note_on_c, 0, 73, 0
1, 23976, Note_on_c, 0, 71, 64
1, 23999, Note_on_c, 0, 71, 0
1, 24000, Note_on_c, 0, 76, 64
1, 24000, Note_on_c, 1, 68, 64
1, 24089, Note_on_c, 1, 68, 0
1, 24096, Note_on_c, 1, 66, 64
1, 24163, Note_on_c, 0, 76, 0
1, 24168, Note_on_c, 0, 75, 64
1, 24185, Note_on_c, 1, 66, 0
1, 24191, Note_on_c, 0, 75, 0
1, 24192, Note_on_c, 0, 73, 64
1, 24192, Note_on_c, 1, 64, 64
1, 24204, Note_on_c, 0, 73, 0
1, 24204, Note_on_c, 0, 75, 64
1, 24216, Note_on_c, 0, 75, 0
1, 24216, Note_on_c, 0, 73, 64
1, 24228, Note_on_c, 0, 73, 0
1, 24228, Note_on_c, 0, 75, 64
1, 24240, Note_on_c, 0, 75, 0
1, 24240, Note_on_c, 0, 73, 64
1, 24252, Note_on_c, 0, 73, 0
1, 24252, Note_on_c, 0, 75, 64
1, 24259, Note_on_c, 0, 75, 0
1, 24264, Note_on_c, 0, 71, 64
1, 24276, Note_on_c, 0, 71, 0
1, 24276, Note_on_c, 0, 73, 64
1, 24281, Note_on_c, 1, 64, 0
1, 24288, Note_on_c, 0, 73, 0
1, 24288, Note_on_c, 0, 71, 64
1, 24288, Note_on_c, 1, 63, 64
1, 24327, Note_on_c, 0, 71, 0
1, 24377, Note_on_c, 1, 63, 0
1, 24384, Note_on_c, 0, 68, 64
1, 24407, Note_on_c, 0, 68, 0
1, 24408, Note_on_c, 0, 66, 64
1, 24431, Note_on_c, 0, 66, 0
1, 24432, Note_on_c, 0, 64, 64
1, 24455, Note_on_c, 0, 64, 0
1, 24456, Note_on_c, 0, 63, 64
1, 24479, Note_on_c, 0, 63, 0
1, 24480, Note_on_c, 0, 61, 64
1, 24547, Note_on_c, 0, 61, 0
1, 24552, Note_on_c, 0, 59, 64
1, 24575, Note_on_c, 0, 59, 0
1, 24576, Note_on_c, 0, 75, 64
1, 24672, Note_on_c, 1, 65, 64
1, 24672, Note_on_c, 1, 59, 64
1, 24717, Note_on_c, 0, 75, 0
1, 24720, Note_on_c, 0, 75, 64
1, 24740, Note_on_c, 0, 75, 0
1, 24768, Note_on_c, 0, 75, 64
1, 24768, Note_on_c, 1, 65, 0
1, 24768, Note_on_c, 1, 59, 0
1, 24768, Note_on_c, 1, 66, 64
1, 24768, Note_on_c, 1, 58, 64
1, 24791, Note_on_c, 0, 75, 0
1, 24792, Note_on_c, 0, 73, 64
1, 24815, Note_on_c, 0, 73, 0
1, 24816, Note_on_c, 0, 72, 64
1, 24839, Note_on_c, 0, 72, 0
1, 24840, Note_on_c, 0, 73, 64
1, 24857, Note_on_c, 1, 66, 0
1, 24857, Note_on_c, 1, 58, 0
1, 24863, Note_on_c, 0, 73, 0
1, 24864, Note_on_c, 0, 78, 64
1, 24884, Note_on_c, 0, 78, 0
1, 24912, Note_on_c, 0, 78, 64
1, 24932, Note_on_c, 0, 78, 0
1, 24960, Note_on_c, 1, 65, 64
1, 24960, Note_on_c, 1, 59, 64
1, 25008, Note_on_c, 0, 75, 64
1, 25053, Note_on_c, 0, 75, 0
1, 25056, Note_on_c, 0, 75, 64
1, 25056, Note_on_c, 1, 65, 0
1, 25056, Note_on_c, 1, 59, 0
1, 25056, Note_on_c, 1, 66, 64
1, 25056, Note_on_c, 1, 58, 64
1, 25079, Note_on_c, 0, 75, 0
1, 25080, Note_on_c, 0, 73, 64
1, 25103, Note_on_c, 0, 73, 0
1, 25104, Note_on_c, 0, 72, 64
1, 25127, Note_on_c, 0, 72, 0
1, 25128, Note_on_c, 0, 73, 64
1, 25145, Note_on_c, 1, 66, 0
1, 25145, Note_on_c, 1, 58, 0
1, 25151, Note_on_c, 0, 73, 0
1, 25152, Note_on_c, 0, 78, 64
1, 25172, Note_on_c, 0, 78, 0
1, 25200, Note_on_c, 0, 78, 64
1, 25220, Note_on_c, 0, 78, 0
1, 25248, Note_on_c, 1, 65, 64
1, 25248, Note_on_c, 1, 59, 64
1, 25296, Note_on_c, 0, 75, 64
1, 25341, Note_on_c, 0, 75, 0
1, 25344, Note_on_c, 0, 75, 64
1, 25344, Note_on_c, 1, 65, 0
1, 25344, Note_on_c, 1, 59, 0
1, 25344, Note_on_c, 1, 66, 64
1, 25344, Note_on_c, 1, 58, 64
1, 25367, Note_on_c, 0, 75, 0
1, 25368, Note_on_c, 0, 73, 64
1, 25391, Note_on_c, 0, 73, 0
1, 25392, Note_on_c, 0, 72, 64
1, 25415, Note_on_c, 0, 72, 0
1, 25416, Note_on_c, 0, 73, 64
1, 25439, Note_on_c, 0, 73, 0
1, 25440, Note_on_c, 0, 75, 64
1, 25463, Note_on_c, 0, 75, 0
1, 25464, Note_on_c, 0, 77, 64
1, 25487, Note_on_c, 0, 77, 0
1, 25488, Note_on_c, 0, 78, 64
1, 25511, Note_on_c, 0, 78, 0
1, 25512, Note_on_c, 0, 80, 64
1, 25535, Note_on_c, 0, 80, 0
1, 25536, Note_on_c, 0, 82, 64
1, 25559, Note_on_c, 0, 82, 0
1, 25560, Note_on_c, 0, 78, 64
1, 25583, Note_on_c, 0, 78, 0
1, 25584, Note_on_c, 0, 77, 64
1, 25607, Note_on_c, 0, 77, 0
1, 25608, Note_on_c, 0, 78, 64
1, 25631, Note_on_c, 0, 78, 0
1, 25632, Note_on_c, 0, 77, 64
1, 25632, Note_on_c, 1, 58, 0
1, 25632, Note_on_c, 1, 59, 64
1, 25655, Note_on_c, 0, 77, 0
1, 25656, Note_on_c, 0, 75, 64
1, 25679, Note_on_c, 0, 75, 0
1, 25680, Note_on_c, 0, 73, 64
1, 25703, Note_on_c, 0, 73, 0
1, 25704, Note_on_c, 0, 71, 64
1, 25721, Note_on_c, 1, 66, 0
1, 25721, Note_on_c, 1, 59, 0
1, 25727, Note_on_c, 0, 71, 0
1, 25728, Note_on_c, 0, 70, 64
1, 25728, Note_on_c, 1, 66, 64
1, 25728, Note_on_c, 1, 61, 64
1, 25817, Note_on_c, 0, 70, 0
1, 25817, Note_on_c, 1, 66, 0
1, 25824, Note_on_c, 0, 68, 64
1, 25824, Note_on_c, 1, 65, 64
1, 25836, Note_on_c, 0, 68, 0
1, 25836, Note_on_c, 0, 70, 64
1, 25848, Note_on_c, 0, 70, 0
1, 25848, Note_on_c, 0, 68, 64
1, 25860, Note_on_c, 0, 68, 0
1, 25860, Note_on_c, 0, 70, 64
1, 25872, Note_on_c, 0, 70, 0
1, 25872, Note_on_c, 0, 68, 64
1, 25884, Note_on_c, 0, 68, 0
1, 25884, Note_on_c, 0, 70, 64
1, 25891, Note_on_c, 0, 70, 0
1, 25896, Note_on_c, 0, 66, 64
1, 25905, Note_on_c, 1, 61, 0
1, 25908, Note_on_c, 0, 66, 0
1, 25908, Note_on_c, 0, 68, 64
1, 25913, Note_on_c, 1, 65, 0
1, 25920, Note_on_c, 0, 68, 0
1, 25920, Note_on_c, 0, 66, 64
1, 25920, Note_on_c, 1, 54, 64
1, 26009, Note_on_c, 1, 54, 0
1, 26016, Note_on_c, 1, 42, 64
1, 26097, Note_on_c, 0, 66, 0
1, 26105, Note_on_c, 1, 42, 0
1, 26112, Note_on_c, 0, 80, 64
1, 26135, Note_on_c, 0, 80, 0
1, 26136, Note_on_c, 0, 78, 64
1, 26159, Note_on_c, 0, 78, 0
1, 26160, Note_on_c, 0, 76, 64
1, 26183, Note_on_c, 0, 76, 0
1, 26184, Note_on_c, 0, 75, 64
1, 26207, Note_on_c, 0, 75, 0
1, 26208, Note_on_c, 0, 73, 64
1, 26275, Note_on_c, 0, 73, 0
1, 26280, Note_on_c, 0, 71, 64
1, 26303, Note_on_c, 0, 71, 0
1, 26304, Note_on_c, 0, 83, 64
1, 26400, Note_on_c, 1, 71, 64
1, 26400, Note_on_c, 1, 63, 64
1, 26467, Note_on_c, 0, 83, 0
1, 26472, Note_on_c, 0, 82, 64
1, 26489, Note_on_c, 1, 71, 0
1, 26489, Note_on_c, 1, 63, 0
1, 26495, Note_on_c, 0, 82, 0
1, 26496, Note_on_c, 0, 80, 64
1, 26496, Note_on_c, 1, 71, 64
1, 26496, Note_on_c, 1, 64, 64
1, 26508, Note_on_c, 0, 80, 0
1, 26508, Note_on_c, 0, 82, 64
1, 26520, Note_on_c, 0, 82, 0
1, 26520, Note_on_c, 0, 80, 64
1, 26532, Note_on_c, 0, 80, 0
1, 26532, Note_on_c, 0, 82, 64
1, 26544, Note_on_c, 0, 82, 0
1, 26544, Note_on_c, 0, 80, 64
1, 26556, Note_on_c, 0, 80, 0
1, 26556, Note_on_c, 0, 82, 64
1, 26563, Note_on_c, 0, 82, 0
1, 26568, Note_on_c, 0, 78, 64
1, 26580, Note_on_c, 0, 78, 0
1, 26580, Note_on_c, 0, 80, 64
1, 26585, Note_on_c, 1, 71, 0
1, 26585, Note_on_c, 1, 64, 0
1, 26592, Note_on_c, 0, 80, 0
1, 26592, Note_on_c, 0, 78, 64
1, 26592, Note_on_c, 1, 71, 64
1, 26592, Note_on_c, 1, 63, 64
1, 26631, Note_on_c, 0, 78, 0
1, 26681, Note_on_c, 1, 71, 0
1, 26681, Note_on_c, 1, 63, 0
1, 26688, Note_on_c, 0, 80, 64
1, 26711, Note_on_c, 0, 80, 0
1, 26712, Note_on_c, 0, 78, 64
1, 26735, Note_on_c, 0, 78, 0
1, 26736, Note_on_c, 0, 76, 64
1, 26759, Note_on_c, 0, 76, 0
1, 26760, Note_on_c, 0, 75, 64
1, 26783, Note_on_c, 0, 75, 0
1, 26784, Note_on_c, 0, 73, 64
1, 26851, Note_on_c, 0, 73, 0
1, 26856, Note_on_c, 0, 71, 64
1, 26879, Note_on_c, 0, 71, 0
1, 26880, Note_on_c, 0, 76, 64
1, 26880, Note_on_c, 1, 68, 64
1, 26969, Note_on_c, 1, 68, 0
1, 26976, Note_on_c, 1, 66, 64
1, 27043, Note_on_c, 0, 76, 0
1, 27048, Note_on_c, 0, 75, 64
1, 27065, Note_on_c, 1, 66, 0
1, 27071, Note_on_c, 0, 75, 0
1, 27072, Note_on_c, 0, 73, 64
1, 27072, Note_on_c, 1, 64, 64
1, 27084, Note_on_c, 0, 73, 0
1, 27084, Note_on_c, 0, 75, 64
1, 27096, Note_on_c, 0, 75, 0
1, 27096, Note_on_c, 0, 73, 64
1, 27108, Note_on_c, 0, 73, 0
1, 27108, Note_on_c, 0, 75, 64
1, 27120, Note_on_c, 0, 75, 0
1, 27120, Note_on_c, 0, 73, 64
1, 27132, Note_on_c, 0, 73, 0
1, 27132, Note_on_c, 0, 75, 64
1, 27139, Note_on_c, 0, 75, 0
1, 27144, Note_on_c, 0, 71, 64
1, 27156, Note_on_c, 0, 71, 0
1, 27156, Note_on_c, 0, 73, 64
1, 27161, Note_on_c, 1, 64, 0
1, 27168, Note_on_c, 0, 73, 0
1, 27168, Note_on_c, 0, 71, 64
1, 27168, Note_on_c, 1, 63, 64
1, 27207, Note_on_c, 0, 71, 0
1, 27257, Note_on_c, 1, 63, 0
1, 27264, Note_on_c, 0, 68, 64
1, 27287, Note_on_c, 0, 68, 0
1, 27288, Note_on_c, 0, 66, 64
1, 27311, Note_on_c, 0, 66, 0
1, 27312, Note_on_c, 0, 64, 64
1, 27335, Note_on_c, 0, 64, 0
1, 27336, Note_on_c, 0, 63, 64
1, 27359, Note_on_c, 0, 63, 0
1, 27360, Note_on_c, 0, 61, 64
1, 27427, Note_on_c, 0, 61, 0
1, 27432, Note_on_c, 0, 59, 64
1, 27455, Note_on_c, 0, 59, 0
1, 27456, Note_on_c, 0, 75, 64
1, 27552, Note_on_c, 1, 65, 64
1, 27552, Note_on_c, 1, 59, 64
1, 27597, Note_on_c, 0, 75, 0
1, 27600, Note_on_c, 0, 75, 64
1, 27620, Note_on_c, 0, 75, 0
1, 27648, Note_on_c, 0, 75, 64
1, 27648, Note_on_c, 1, 65, 0
1, 27648, Note_on_c, 1, 59, 0
1, 27648, Note_on_c, 1, 66, 64
1, 27648, Note_on_c, 1, 58, 64
1, 27671, Note_on_c, 0, 75, 0
1, 27672, Note_on_c, 0, 73, 64
1, 27695, Note_on_c, 0, 73, 0
1, 27696, Note_on_c, 0, 72, 64
1, 27719, Note_on_c, 0, 72, 0
1, 27720, Note_on_c, 0, 73, 64
1, 27737, Note_on_c, 1, 66, 0
1, 27737, Note_on_c, 1, 58, 0
1, 27743, Note_on_c, 0, 73, 0
1, 27744, Note_on_c, 0, 78, 64
1, 27764, Note_on_c, 0, 78, 0
1, 27792, Note_on_c, 0, 78, 64
1, 27812, Note_on_c, 0, 78, 0
1, 27840, Note_on_c, 1, 65, 64
1, 27840, Note_on_c, 1, 59, 64
1, 27888, Note_on_c, 0, 75, 64
1, 27933, Note_on_c, 0, 75, 0
1, 27936, Note_on_c, 0, 75, 64
1, 27936, Note_on_c, 1, 65, 0
1, 27936, Note_on_c, 1, 59, 0
1, 27936, Note_on_c, 1, 66, 64
1, 27936, Note_on_c, 1, 58, 64
1, 27959, Note_on_c, 0, 75, 0
1, 27960, Note_on_c, 0, 73, 64
1, 27983, Note_on_c, 0, 73, 0
1, 27984, Note_on_c, 0, 72, 64
1, 28007, Note_on_c, 0, 72, 0
1, 28008, Note_on_c, 0, 73, 64
1, 28025, Note_on_c, 1, 66, 0
1, 28025, Note_on_c, 1, 58, 0
1, 28031, Note_on_c, 0, 73, 0
1, 28032, Note_on_c, 0, 78, 64
1, 28052, Note_on_c, 0, 78, 0
1, 28080, Note_on_c, 0, 78, 64
1, 28100, Note_on_c, 0, 78, 0
1, 28128, Note_on_c, 1, 65, 64
1, 28128, Note_on_c, 1, 59, 64
1, 28176, Note_on_c, 0, 75, 64
1, 28221, Note_on_c, 0, 75, 0
1, 28224, Note_on_c, 0, 75, 64
1, 28224, Note_on_c, 1, 65, 0
1, 28224, Note_on_c, 1, 59, 0
1, 28224, Note_on_c, 1, 66, 64
1, 28224, Note_on_c, 1, 58, 64
1, 28247, Note_on_c, 0, 75, 0
1, 28248, Note_on_c, 0, 73, 64
1, 28271, Note_on_c, 0, 73, 0
1, 28272, Note_on_c, 0, 72, 64
1, 28295, Note_on_c, 0, 72, 0
1, 28296, Note_on_c, 0, 73, 64
1, 28319, Note_on_c, 0, 73, 0
1, 28320, Note_on_c, 0, 75, 64
1, 28343, Note_on_c, 0, 75, 0
1, 28344, Note_on_c, 0, 77, 64
1, 28367, Note_on_c, 0, 77, 0
1, 28368, Note_on_c, 0, 78, 64
1, 28391, Note_on_c, 0, 78, 0
1, 28392, Note_on_c, 0, 80, 64
1, 28415, Note_on_c, 0, 80, 0
1, 28416, Note_on_c, 0, 82, 64
1, 28439, Note_on_c, 0, 82, 0
1, 28440, Note_on_c, 0, 78, 64
1, 28463, Note_on_c, 0, 78, 0
1, 28464, Note_on_c, 0, 77, 64
1, 28487, Note_on_c, 0, 77, 0
1, 28488, Note_on_c, 0, 78, 64
1, 28511, Note_on_c, 0, 78, 0
1, 28512, Note_on_c, 0, 77, 64
1, 28512, Note_on_c, 1, 58, 0
1, 28512, Note_on_c, 1, 59, 64
1, 28535, Note_on_c, 0, 77, 0
1, 28536, Note_on_c, 0, 75, 64
1, 28559, Note_on_c, 0, 75, 0
1, 28560, Note_on_c, 0, 73, 64
1, 28583, Note_on_c, 0, 73, 0
1, 28584, Note_on_c, 0, 71, 64
1, 28601, Note_on_c, 1, 66, 0
1, 28601, Note_on_c, 1, 59, 0
1, 28607, Note_on_c, 0, 71, 0
1, 28608, Note_on_c, 0, 70, 64
1, 28608, Note_on_c, 1, 66, 64
1, 28608, Note_on_c, 1, 61, 64
1, 28697, Note_on_c, 0, 70, 0
1, 28697, Note_on_c, 1, 66, 0
1, 28704, Note_on_c, 0, 68, 64
1, 28704, Note_on_c, 1, 65, 64
1, 28716, Note_on_c, 0, 68, 0
1, 28716, Note_on_c, 0, 70, 64
1, 28728, Note_on_c, 0, 70, 0
1, 28728, Note_on_c, 0, 68, 64
1, 28740, Note_on_c, 0, 68, 0
1, 28740, Note_on_c, 0, 70, 64
1, 28752, Note_on_c, 0, 70, 0
1, 28752, Note_on_c, 0, 68, 64
1, 28764, Note_on_c, 0, 68, 0
1, 28764, Note_on_c, 0, 70, 64
1, 28771, Note_on_c, 0, 70, 0
1, 28776, Note_on_c, 0, 66, 64
1, 28785, Note_on_c, 1, 61, 0
1, 28788, Note_on_c, 0, 66, 0
1, 28788, Note_on_c, 0, 68, 64
1, 28793, Note_on_c, 1, 65, 0
1, 28800, Note_on_c, 0, 68, 0
1, 28800, Note_on_c, 0, 66, 64
1, 28800, Note_on_c, 1, 54, 64
1, 28889, Note_on_c, 1, 54, 0
1, 28896, Note_on_c, 1, 42, 64
1, 28977, Note_on_c, 0, 66, 0
1, 28985, Note_on_c, 1, 42, 0
1, 28992, Note_on_c, 0, 68, 64
1, 29015, Note_on_c, 0, 68, 0
1, 29016, Note_on_c, 0, 66, 64
1, 29039, Note_on_c, 0, 66, 0
1, 29040, Note_on_c, 0, 64, 64
1, 29063, Note_on_c, 0, 64, 0
1, 29064, Note_on_c, 0, 63, 64
1, 29087, Note_on_c, 0, 63, 0
1, 29088, Note_on_c, 0, 61, 64
1, 29155, Note_on_c, 0, 61, 0
1, 29160, Note_on_c, 0, 60, 64
1, 29183, Note_on_c, 0, 60, 0
1, 29184, Note_on_c, 0, 69, 64
1, 29280, Note_on_c, 1, 54, 64
1, 29325, Note_on_c, 0, 69, 0
1, 29328, Note_on_c, 0, 60, 64
1, 29369, Note_on_c, 1, 54, 0
1, 29373, Note_on_c, 0, 60, 0
1, 29376, Note_on_c, 0, 61, 64
1, 29376, Note_on_c, 1, 52, 64
1, 29421, Note_on_c, 0, 61, 0
1, 29424, Note_on_c, 0, 64, 64
1, 29465, Note_on_c, 1, 52, 0
1, 29469, Note_on_c, 0, 64, 0
1, 29472, Note_on_c, 0, 68, 64
1, 29517, Note_on_c, 0, 68, 0
1, 29520, Note_on_c, 0, 73, 64
1, 29565, Note_on_c, 0, 73, 0
1, 29568, Note_on_c, 0, 78, 64
1, 29591, Note_on_c, 0, 78, 0
1, 29592, Note_on_c, 0, 76, 64
1, 29615, Note_on_c, 0, 76, 0
1, 29616, Note_on_c, 0, 75, 64
1, 29639, Note_on_c, 0, 75, 0
1, 29640, Note_on_c, 0, 73, 64
1, 29663, Note_on_c, 0, 73, 0
1, 29664, Note_on_c, 0, 71, 64
1, 29731, Note_on_c, 0, 71, 0
1, 29736, Note_on_c, 0, 70, 64
1, 29759, Note_on_c, 0, 70, 0
1, 29760, Note_on_c, 0, 80, 64
1, 29856, Note_on_c, 1, 64, 64
1, 29901, Note_on_c, 0, 80, 0
1, 29904, Note_on_c, 0, 70, 64
1, 29945, Note_on_c, 1, 64, 0
1, 29949, Note_on_c, 0, 70, 0
1, 29952, Note_on_c, 0, 71, 64
1, 29952, Note_on_c, 1, 63, 64
1, 29975, Note_on_c, 0, 71, 0
1, 29976, Note_on_c, 0, 73, 64
1, 29999, Note_on_c, 0, 73, 0
1, 30000, Note_on_c, 0, 75, 64
1, 30023, Note_on_c, 0, 75, 0
1, 30024, Note_on_c, 0, 76, 64
1, 30047, Note_on_c, 0, 76, 0
1, 30048, Note_on_c, 0, 78, 64
1, 30071, Note_on_c, 0, 78, 0
1, 30072, Note_on_c, 0, 80, 64
1, 30095, Note_on_c, 0, 80, 0
1, 30096, Note_on_c, 0, 82, 64
1, 30119, Note_on_c, 0, 82, 0
1, 30120, Note_on_c, 0, 83, 64
1, 30143, Note_on_c, 0, 83, 0
1, 30144, Note_on_c, 0, 82, 64
1, 30167, Note_on_c, 0, 82, 0
1, 30168, Note_on_c, 0, 83, 64
1, 30191, Note_on_c, 0, 83, 0
1, 30192, Note_on_c, 0, 82, 64
1, 30215, Note_on_c, 0, 82, 0
1, 30216, Note_on_c, 0, 83, 64
1, 30217, Note_on_c, 1, 63, 0
1, 30239, Note_on_c, 0, 83, 0
1, 30240, Note_on_c, 0, 82, 64
1, 30240, Note_on_c, 1, 64, 64
1, 30263, Note_on_c, 0, 82, 0
1, 30264, Note_on_c, 0, 80, 64
1, 30287, Note_on_c, 0, 80, 0
1, 30288, Note_on_c, 0, 78, 64
1, 30311, Note_on_c, 0, 78, 0
1, 30312, Note_on_c, 0, 80, 64
1, 30335, Note_on_c, 0, 80, 0
1, 30336, Note_on_c, 0, 78, 64
1, 30359, Note_on_c, 0, 78, 0
1, 30360, Note_on_c, 0, 76, 64
1, 30383, Note_on_c, 0, 76, 0
1, 30384, Note_on_c, 0, 75, 64
1, 30407, Note_on_c, 0, 75, 0
1, 30408, Note_on_c, 0, 76, 64
1, 30431, Note_on_c, 0, 76, 0
1, 30432, Note_on_c, 0, 75, 64
1, 30455, Note_on_c, 0, 75, 0
1, 30456, Note_on_c, 0, 73, 64
1, 30477, Note_on_c, 1, 64, 0
1, 30479, Note_on_c, 0, 73, 0
1, 30480, Note_on_c, 0, 72, 64
1, 30480, Note_on_c, 1, 65, 64
1, 30503, Note_on_c, 0, 72, 0
1, 30504, Note_on_c, 0, 73, 64
1, 30525, Note_on_c, 1, 65, 0
1, 30527, Note_on_c, 0, 73, 0
1, 30528, Note_on_c, 0, 71, 64
1, 30528, Note_on_c, 1, 66, 64
1, 30617, Note_on_c, 1, 66, 0
1, 30624, Note_on_c, 0, 71, 0
1, 30624, Note_on_c, 0, 70, 64
1, 30624, Note_on_c, 1, 54, 64
1, 30713, Note_on_c, 0, 70, 0
1, 30713, Note_on_c, 1, 54, 0
1, 30720, Note_on_c, 0, 66, 64
1, 30743, Note_on_c, 0, 66, 0
1, 30744, Note_on_c, 0, 64, 64
1, 30767, Note_on_c, 0, 64, 0
1, 30768, Note_on_c, 0, 63, 64
1, 30791, Note_on_c, 0, 63, 0
1, 30792, Note_on_c, 0, 61, 64
1, 30815, Note_on_c, 0, 61, 0
1, 30816, Note_on_c, 0, 59, 64
1, 30883, Note_on_c, 0, 59, 0
1, 30888, Note_on_c, 0, 58, 64
1, 30911, Note_on_c, 0, 58, 0
1, 30912, Note_on_c, 0, 80, 64
1, 31008, Note_on_c, 1, 70, 64
1, 31008, Note_on_c, 1, 64, 64
1, 31053, Note_on_c, 0, 80, 0
1, 31056, Note_on_c, 0, 80, 64
1, 31076, Note_on_c, 0, 80, 0
1, 31104, Note_on_c, 0, 80, 64
1, 31104, Note_on_c, 1, 70, 0
1, 31104, Note_on_c, 1, 64, 0
1, 31104, Note_on_c, 1, 71, 64
1, 31104, Note_on_c, 1, 63, 64
1, 31127, Note_on_c, 0, 80, 0
1, 31128, Note_on_c, 0, 78, 64
1, 31151, Note_on_c, 0, 78, 0
1, 31152, Note_on_c, 0, 77, 64
1, 31175, Note_on_c, 0, 77, 0
1, 31176, Note_on_c, 0, 78, 64
1, 31193, Note_on_c, 1, 71, 0
1, 31193, Note_on_c, 1, 63, 0
1, 31199, Note_on_c, 0, 78, 0
1, 31200, Note_on_c, 0, 83, 64
1, 31220, Note_on_c, 0, 83, 0
1, 31248, Note_on_c, 0, 83, 64
1, 31268, Note_on_c, 0, 83, 0
1, 31296, Note_on_c, 1, 70, 64
1, 31296, Note_on_c, 1, 64, 64
1, 31344, Note_on_c, 0, 80, 64
1, 31389, Note_on_c, 0, 80, 0
1, 31392, Note_on_c, 0, 80, 64
1, 31392, Note_on_c, 1, 70, 0
1, 31392, Note_on_c, 1, 64, 0
1, 31392, Note_on_c, 1, 71, 64
1, 31392, Note_on_c, 1, 63, 64
1, 31415, Note_on_c, 0, 80, 0
1, 31416, Note_on_c, 0, 78, 64
1, 31439, Note_on_c, 0, 78, 0
1, 31440, Note_on_c, 0, 77, 64
1, 31463, Note_on_c, 0, 77, 0
1, 31464, Note_on_c, 0, 78, 64
1, 31481, Note_on_c, 1, 71, 0
1, 31481, Note_on_c, 1, 63, 0
1, 31487, Note_on_c, 0, 78, 0
1, 31488, Note_on_c, 0, 83, 64
1, 31508, Note_on_c, 0, 83, 0
1, 31536, Note_on_c, 0, 83, 64
1, 31556, Note_on_c, 0, 83, 0
1, 31584, Note_on_c, 1, 58, 64
1, 31584, Note_on_c, 1, 52, 64
1, 31632, Note_on_c, 0, 80, 64
1, 31677, Note_on_c, 0, 80, 0
1, 31680, Note_on_c, 0, 80, 64
1, 31680, Note_on_c, 1, 58, 0
1, 31680, Note_on_c, 1, 52, 0
1, 31680, Note_on_c, 1, 59, 64
1, 31680, Note_on_c, 1, 51, 64
1, 31703, Note_on_c, 0, 80, 0
1, 31704, Note_on_c, 0, 78, 64
1, 31727, Note_on_c, 0, 78, 0
1, 31728, Note_on_c, 0, 77, 64
1, 31751, Note_on_c, 0, 77, 0
1, 31752, Note_on_c, 0, 78, 64
1, 31775, Note_on_c, 0, 78, 0
1, 31776, Note_on_c, 0, 83, 64
1, 31799, Note_on_c, 0, 83, 0
1, 31800, Note_on_c, 0, 82, 64
1, 31823, Note_on_c, 0, 82, 0
1, 31824, Note_on_c, 0, 80, 64
1, 31847, Note_on_c, 0, 80, 0
1, 31848, Note_on_c, 0, 78, 64
1, 31871, Note_on_c, 0, 78, 0
1, 31872, Note_on_c, 0, 76, 64
1, 31895, Note_on_c, 0, 76, 0
1, 31896, Note_on_c, 0, 75, 64
1, 31919, Note_on_c, 0, 75, 0
1, 31920, Note_on_c, 0, 73, 64
1, 31943, Note_on_c, 0, 73, 0
1, 31944, Note_on_c, 0, 71, 64
1, 31945, Note_on_c, 1, 59, 0
1, 31945, Note_on_c, 1, 51, 0
1, 31967, Note_on_c, 0, 71, 0
1, 31968, Note_on_c, 0, 75, 64
1, 31968, Note_on_c, 1, 52, 64
1, 31991, Note_on_c, 0, 75, 0
1, 31992, Note_on_c, 0, 73, 64
1, 32015, Note_on_c, 0, 73, 0
1, 32016, Note_on_c, 0, 76, 64
1, 32016, Note_on_c, 1, 64, 64
1, 32039, Note_on_c, 0, 76, 0
1, 32040, Note_on_c, 0, 73, 64
1, 32057, Note_on_c, 1, 52, 0
1, 32061, Note_on_c, 1, 64, 0
1, 32063, Note_on_c, 0, 73, 0
1, 32064, Note_on_c, 0, 71, 64
1, 32064, Note_on_c, 1, 63, 64
1, 32064, Note_on_c, 1, 54, 64
1, 32153, Note_on_c, 0, 71, 0
1, 32153, Note_on_c, 1, 63, 0
1, 32160, Note_on_c, 0, 70, 64
1, 32160, Note_on_c, 1, 61, 64
1, 32172, Note_on_c, 0, 70, 0
1, 32172, Note_on_c, 0, 71, 64
1, 32184, Note_on_c, 0, 71, 0
1, 32184, Note_on_c, 0, 70, 64
1, 32196, Note_on_c, 0, 70, 0
1, 32196, Note_on_c, 0, 71, 64
1, 32208, Note_on_c, 0, 71, 0
1, 32208, Note_on_c, 0, 70, 64
1, 32220, Note_on_c, 0, 70, 0
1, 32220, Note_on_c, 0, 71, 64
1, 32227, Note_on_c, 0, 71, 0
1, 32232, Note_on_c, 0, 68, 64
1, 32241, Note_on_c, 1, 54, 0
1, 32244, Note_on_c, 0, 68, 0
1, 32244, Note_on_c, 0, 70, 64
1, 32249, Note_on_c, 1, 61, 0
1, 32256, Note_on_c, 0, 70, 0
1, 32256, Note_on_c, 0, 71, 64
1, 32256, Note_on_c, 1, 59, 64
1, 32345, Note_on_c, 1, 59, 0
1, 32352, Note_on_c, 1, 47, 64
1, 32433, Note_on_c, 0, 71, 0
1, 32441, Note_on_c, 1, 47, 0
1, 32448, Note_on_c, 0, 68, 64
1, 32471, Note_on_c, 0, 68, 0
1, 32472, Note_on_c, 0, 66, 64
1, 32495, Note_on_c, 0, 66, 0
1, 32496, Note_on_c, 0, 64, 64
1, 32519, Note_on_c, 0, 64, 0
1, 32520, Note_on_c, 0, 63, 64
1, 32543, Note_on_c, 0, 63, 0
1, 32544, Note_on_c, 0, 61, 64
1, 32611, Note_on_c, 0, 61, 0
1, 32616, Note_on_c, 0, 60, 64
1, 32639, Note_on_c, 0, 60, 0
1, 32640, Note_on_c, 0, 69, 64
1, 32736, Note_on_c, 1, 54, 64
1, 32781, Note_on_c, 0, 69, 0
1, 32784, Note_on_c, 0, 60, 64
1, 32825, Note_on_c, 1, 54, 0
1, 32829, Note_on_c, 0, 60, 0
1, 32832, Note_on_c, 0, 61, 64
1, 32832, Note_on_c, 1, 52, 64
1, 32877, Note_on_c, 0, 61, 0
1, 32880, Note_on_c, 0, 64, 64
1, 32921, Note_on_c, 1, 52, 0
1, 32925, Note_on_c, 0, 64, 0
1, 32928, Note_on_c, 0, 68, 64
1, 32973, Note_on_c, 0, 68, 0
1, 32976, Note_on_c, 0, 73, 64
1, 33021, Note_on_c, 0, 73, 0
1, 33024, Note_on_c, 0, 78, 64
1, 33047, Note_on_c, 0, 78, 0
1, 33048, Note_on_c, 0, 76, 64
1, 33071, Note_on_c, 0, 76, 0
1, 33072, Note_on_c, 0, 75, 64
1, 33095, Note_on_c, 0, 75, 0
1, 33096, Note_on_c, 0, 73, 64
1, 33119, Note_on_c, 0, 73, 0
1, 33120, Note_on_c, 0, 71, 64
1, 33187, Note_on_c, 0, 71, 0
1, 33192, Note_on_c, 0, 70, 64
1, 33215, Note_on_c, 0, 70, 0
1, 33216, Note_on_c, 0, 80, 64
1, 33312, Note_on_c, 1, 64, 64
1, 33357, Note_on_c, 0, 80, 0
1, 33360, Note_on_c, 0, 70, 64
1, 33401, Note_on_c, 1, 64, 0
1, 33405, Note_on_c, 0, 70, 0
1, 33408, Note_on_c, 0, 71, 64
1, 33408, Note_on_c, 1, 63, 64
1, 33431, Note_on_c, 0, 71, 0
1, 33432, Note_on_c, 0, 73, 64
1, 33455, Note_on_c, 0, 73, 0
1, 33456, Note_on_c, 0, 75, 64
1, 33479, Note_on_c, 0, 75, 0
1, 33480, Note_on_c, 0, 76, 64
1, 33503, Note_on_c, 0, 76, 0
1, 33504, Note_on_c, 0, 78, 64
1, 33527, Note_on_c, 0, 78, 0
1, 33528, Note_on_c, 0, 80, 64
1, 33551, Note_on_c, 0, 80, 0
1, 33552, Note_on_c, 0, 82, 64
1, 33575, Note_on_c, 0, 82, 0
1, 33576, Note_on_c, 0, 83, 64
1, 33599, Note_on_c, 0, 83, 0
1, 33600, Note_on_c, 0, 82, 64
1, 33623, Note_on_c, 0, 82, 0
1, 33624, Note_on_c, 0, 83, 64
1, 33647, Note_on_c, 0, 83, 0
1, 33648, Note_on_c, 0, 82, 64
1, 33671, Note_on_c, 0, 82, 0
1, 33672, Note_on_c, 0, 83, 64
1, 33673, Note_on_c, 1, 63, 0
1, 33695, Note_on_c, 0, 83, 0
1, 33696, Note_on_c, 0, 82, 64
1, 33696, Note_on_c, 1, 64, 64
1, 33719, Note_on_c, 0, 82, 0
1, 33720, Note_on_c, 0, 80, 64
1, 33743, Note_on_c, 0, 80, 0
1, 33744, Note_on_c, 0, 78, 64
1, 33767, Note_on_c, 0, 78, 0
1, 33768, Note_on_c, 0, 80, 64
1, 33791, Note_on_c, 0, 80, 0
1, 33792, Note_on_c, 0, 78, 64
1, 33815, Note_on_c, 0, 78, 0
1, 33816, Note_on_c, 0, 76, 64
1, 33839, Note_on_c, 0, 76, 0
1, 33840, Note_on_c, 0, 75, 64
1, 33863, Note_on_c, 0, 75, 0
1, 33864, Note_on_c, 0, 76, 64
1, 33887, Note_on_c, 0, 76, 0
1, 33888, Note_on_c, 0, 75, 64
1, 33911, Note_on_c, 0, 75, 0
1, 33912, Note_on_c, 0, 73, 64
1, 33933, Note_on_c, 1, 64, 0
1, 33935, Note_on_c, 0, 73, 0
1, 33936, Note_on_c, 0, 72, 64
1, 33936, Note_on_c, 1, 65, 64
1, 33959, Note_on_c, 0, 72, 0
1, 33960, Note_on_c, 0, 73, 64
1, 33981, Note_on_c, 1, 65, 0
1, 33983, Note_on_c, 0, 73, 0
1, 33984, Note_on_c, 0, 71, 64
1, 33984, Note_on_c, 1, 66, 64
1, 34073, Note_on_c, 1, 66, 0
1, 34080, Note_on_c, 0, 71, 0
1, 34080, Note_on_c, 0, 70, 64
1, 34080, Note_on_c, 1, 54, 64
1, 34169, Note_on_c, 0, 70, 0
1, 34169, Note_on_c, 1, 54, 0
1, 34176, Note_on_c, 0, 66, 64
1, 34199, Note_on_c, 0, 66, 0
1, 34200, Note_on_c, 0, 64, 64
1, 34223, Note_on_c, 0, 64, 0
1, 34224, Note_on_c, 0, 63, 64
1, 34247, Note_on_c, 0, 63, 0
1, 34248, Note_on_c, 0, 61, 64
1, 34271, Note_on_c, 0, 61, 0
1, 34272, Note_on_c, 0, 59, 64
1, 34339, Note_on_c, 0, 59, 0
1, 34344, Note_on_c, 0, 58, 64
1, 34367, Note_on_c, 0, 58, 0
1, 34368, Note_on_c, 0, 80, 64
1, 34464, Note_on_c, 1, 70, 64
1, 34464, Note_on_c, 1, 64, 64
1, 34509, Note_on_c, 0, 80, 0
1, 34512, Note_on_c, 0, 80, 64
1, 34532, Note_on_c, 0, 80, 0
1, 34560, Note_on_c, 0, 80, 64
1, 34560, Note_on_c, 1, 70, 0
1, 34560, Note_on_c, 1, 64, 0
1, 34560, Note_on_c, 1, 71, 64
1, 34560, Note_on_c, 1, 63, 64
1, 34583, Note_on_c, 0, 80, 0
1, 34584, Note_on_c, 0, 78, 64
1, 34607, Note_on_c, 0, 78, 0
1, 34608, Note_on_c, 0, 77, 64
1, 34631, Note_on_c, 0, 77, 0
1, 34632, Note_on_c, 0, 78, 64
1, 34649, Note_on_c, 1, 71, 0
1, 34649, Note_on_c, 1, 63, 0
1, 34655, Note_on_c, 0, 78, 0
1, 34656, Note_on_c, 0, 83, 64
1, 34676, Note_on_c, 0, 83, 0
1, 34704, Note_on_c, 0, 83, 64
1, 34724, Note_on_c, 0, 83, 0
1, 34752, Note_on_c, 1, 70, 64
1, 34752, Note_on_c, 1, 64, 64
1, 34800, Note_on_c, 0, 80, 64
1, 34845, Note_on_c, 0, 80, 0
1, 34848, Note_on_c, 0, 80, 64
1, 34848, Note_on_c, 1, 70, 0
1, 34848, Note_on_c, 1, 64, 0
1, 34848, Note_on_c, 1, 71, 64
1, 34848, Note_on_c, 1, 63, 64
1, 34871, Note_on_c, 0, 80, 0
1, 34872, Note_on_c, 0, 78, 64
1, 34895, Note_on_c, 0, 78, 0
1, 34896, Note_on_c, 0, 77, 64
1, 34919, Note_on_c, 0, 77, 0
1, 34920, Note_on_c, 0, 78, 64
1, 34937, Note_on_c, 1, 71, 0
1, 34937, Note_on_c, 1, 63, 0
1, 34943, Note_on_c, 0, 78, 0
1, 34944, Note_on_c, 0, 83, 64
1, 34964, Note_on_c, 0, 83, 0
1, 34992, Note_on_c, 0, 83, 64
1, 35012, Note_on_c, 0, 83, 0
1, 35040, Note_on_c, 1, 58, 64
1, 35040, Note_on_c, 1, 52, 64
1, 35088, Note_on_c, 0, 80, 64
1, 35133, Note_on_c, 0, 80, 0
1, 35136, Note_on_c, 0, 80, 64
1, 35136, Note_on_c, 1, 58, 0
1, 35136, Note_on_c, 1, 52, 0
1, 35136, Note_on_c, 1, 59, 64
1, 35136, Note_on_c, 1, 51, 64
1, 35159, Note_on_c, 0, 80, 0
1, 35160, Note_on_c, 0, 78, 64
1, 35183, Note_on_c, 0, 78, 0
1, 35184, Note_on_c, 0, 77, 64
1, 35207, Note_on_c, 0, 77, 0
1, 35208, Note_on_c, 0, 78, 64
1, 35231, Note_on_c, 0, 78, 0
1, 35232, Note_on_c, 0, 83, 64
1, 35255, Note_on_c, 0, 83, 0
1, 35256, Note_on_c, 0, 82, 64
1, 35279, Note_on_c, 0, 82, 0
1, 35280, Note_on_c, 0, 80, 64
1, 35303, Note_on_c, 0, 80, 0
1, 35304, Note_on_c, 0, 78, 64
1, 35327, Note_on_c, 0, 78, 0
1, 35328, Note_on_c, 0, 76, 64
1, 35351, Note_on_c, 0, 76, 0
1, 35352, Note_on_c, 0, 75, 64
1, 35375, Note_on_c, 0, 75, 0
1, 35376, Note_on_c, 0, 73, 64
1, 35399, Note_on_c, 0, 73, 0
1, 35400, Note_on_c, 0, 71, 64
1, 35401, Note_on_c, 1, 59, 0
1, 35401, Note_on_c, 1, 51, 0
1, 35423, Note_on_c, 0, 71, 0
1, 35424, Note_on_c, 0, 75, 64
1, 35424, Note_on_c, 1, 52, 64
1, 35447, Note_on_c, 0, 75, 0
1, 35448, Note_on_c, 0, 73, 64
1, 35471, Note_on_c, 0, 73, 0
1, 35472, Note_on_c, 0, 76, 64
1, 35472, Note_on_c, 1, 64, 64
1, 35495, Note_on_c, 0, 76, 0
1, 35496, Note_on_c, 0, 73, 64
1, 35513, Note_on_c, 1, 52, 0
1, 35517, Note_on_c, 1, 64, 0
1, 35519, Note_on_c, 0, 73, 0
1, 35520, Note_on_c, 0, 71, 64
1, 35520, Note_on_c, 1, 63, 64
1, 35520, Note_on_c, 1, 54, 64
1, 35609, Note_on_c, 0, 71, 0
1, 35609, Note_on_c, 1, 63, 0
1, 35616, Note_on_c, 0, 70, 64
1, 35616, Note_on_c, 1, 61, 64
1, 35628, Note_on_c, 0, 70, 0
1, 35628, Note_on_c, 0, 71, 64
1, 35640, Note_on_c, 0, 71, 0
1, 35640, Note_on_c, 0, 70, 64
1, 35652, Note_on_c, 0, 70, 0
1, 35652, Note_on_c, 0, 71, 64
1, 35664, Note_on_c, 0, 71, 0
1, 35664, Note_on_c, 0, 70, 64
1, 35676, Note_on_c, 0, 70, 0
1, 35676, Note_on_c, 0, 71, 64
1, 35683, Note_on_c, 0, 71, 0
1, 35688, Note_on_c, 0, 68, 64
1, 35697, Note_on_c, 1, 54, 0
1, 35700, Note_on_c, 0, 68, 0
1, 35700, Note_on_c, 0, 70, 64
1, 35705, Note_on_c, 1, 61, 0
1, 35712, Note_on_c, 0, 70, 0
1, 35712, Note_on_c, 0, 71, 64
1, 35712, Note_on_c, 1, 59, 64
1, 35801, Note_on_c, 1, 59, 0
1, 35808, Note_on_c, 1, 47, 64
1, 35889, Note_on_c, 0, 71, 0
1, 35897, Note_on_c, 1, 47, 0
1, 35907, End_track
0, 0, End_of_file