0, 0, Header, 0, 1, 96
1, 0, Start_track
1, 0, Tempo, 500000
1, 144, Note_on_c, 0, 72, 78
1, 178, Note_on_c, 0, 72, 0
1, 180, Note_on_c, 0, 76, 78
1, 192, Note_on_c, 0, 76, 0
1, 192, Note_on_c, 0, 79, 78
1, 226, Note_on_c, 0, 79, 0
1, 228, Note_on_c, 0, 76, 80
1, 240, Note_on_c, 0, 76, 0
1, 240, Note_on_c, 0, 84, 97
1, 240, Note_on_c, 1, 48, 78
1, 285, Note_on_c, 1, 48, 0
1, 288, Note_on_c, 1, 60, 78
1, 322, Note_on_c, 0, 84, 0
1, 324, Note_on_c, 0, 83, 82
1, 333, Note_on_c, 1, 60, 0
1, 336, Note_on_c, 0, 83, 0
1, 336, Note_on_c, 0, 81, 81
1, 336, Note_on_c, 1, 64, 78
1, 370, Note_on_c, 0, 81, 0
1, 372, Note_on_c, 0, 79, 78
1, 381, Note_on_c, 1, 64, 0
1, 384, Note_on_c, 0, 79, 0
1, 384, Note_on_c, 0, 79, 78
1, 384, Note_on_c, 1, 62, 78
1, 429, Note_on_c, 1, 62, 0
1, 432, Note_on_c, 1, 50, 78
1, 473, Note_on_c, 0, 79, 0
1, 477, Note_on_c, 1, 50, 0
1, 480, Note_on_c, 0, 77, 78
1, 480, Note_on_c, 1, 62, 78
1, 486, Note_on_c, 0, 77, 0
1, 486, Note_on_c, 0, 79, 78
1, 492, Note_on_c, 0, 79, 0
1, 492, Note_on_c, 0, 77, 78
1, 514, Note_on_c, 0, 77, 0
1, 516, Note_on_c, 0, 76, 78
1, 525, Note_on_c, 1, 62, 0
1, 528, Note_on_c, 0, 76, 0
1, 528, Note_on_c, 0, 74, 78
1, 528, Note_on_c, 1, 65, 78
1, 534, Note_on_c, 0, 74, 0
1, 534, Note_on_c, 0, 76, 78
1, 540, Note_on_c, 0, 76, 0
1, 540, Note_on_c, 0, 74, 78
1, 562, Note_on_c, 0, 74, 0
1, 564, Note_on_c, 0, 72, 78
1, 573, Note_on_c, 1, 65, 0
1, 576, Note_on_c, 0, 72, 0
1, 576, Note_on_c, 0, 72, 78
1, 576, Note_on_c, 1, 67, 78
1, 621, Note_on_c, 1, 67, 0
1, 624, Note_on_c, 1, 55, 78
1, 669, Note_on_c, 1, 55, 0
1, 672, Note_on_c, 0, 72, 0
1, 672, Note_on_c, 0, 71, 78
1, 678, Note_on_c, 0, 71, 0
1, 678, Note_on_c, 0, 72, 78
1, 684, Note_on_c, 0, 72, 0
1, 684, Note_on_c, 0, 71, 78
1, 706, Note_on_c, 0, 71, 0
1, 708, Note_on_c, 0, 81, 78
1, 720, Note_on_c, 0, 81, 0
1, 720, Note_on_c, 0, 79, 78
1, 720, Note_on_c, 1, 59, 78
1, 754, Note_on_c, 0, 79, 0
1, 756, Note_on_c, 0, 77, 78
1, 765, Note_on_c, 1, 59, 0
1, 768, Note_on_c, 0, 77, 0
1, 768, Note_on_c, 0, 77, 78
1, 768, Note_on_c, 1, 60, 78
1, 813, Note_on_c, 1, 60, 0
1, 816, Note_on_c, 1, 48, 78
1, 857, Note_on_c, 0, 77, 0
1, 861, Note_on_c, 1, 48, 0
1, 864, Note_on_c, 0, 77, 78
1, 870, Note_on_c, 0, 77, 0
1, 870, Note_on_c, 0, 76, 78
1, 876, Note_on_c, 0, 76, 0
1, 876, Note_on_c, 0, 74, 78
1, 882, Note_on_c, 0, 74, 0
1, 882, Note_on_c, 0, 76, 78
1, 898, Note_on_c, 0, 76, 0
1, 900, Note_on_c, 0, 79, 78
1, 912, Note_on_c, 0, 79, 0
1, 912, Note_on_c, 0, 72, 78
1, 912, Note_on_c, 1, 52, 78
1, 946, Note_on_c, 0, 72, 0
1, 948, Note_on_c, 0, 76, 78
1, 957, Note_on_c, 1, 52, 0
1, 960, Note_on_c, 0, 76, 0
1, 960, Note_on_c, 0, 69, 78
1, 960, Note_on_c, 1, 53, 78
1, 994, Note_on_c, 0, 69, 0
1, 996, Note_on_c, 0, 73, 78
1, 1005, Note_on_c, 1, 53, 0
1, 1008, Note_on_c, 0, 73, 0
1, 1008, Note_on_c, 0, 74, 78
1, 1008, Note_on_c, 1, 41, 78
1, 1014, Note_on_c, 0, 74, 0
1, 1014, Note_on_c, 0, 73, 78
1, 1020, Note_on_c, 0, 73, 0
1, 1020, Note_on_c, 0, 74, 78
1, 1042, Note_on_c, 0, 74, 0
1, 1044, Note_on_c, 0, 77, 78
1, 1053, Note_on_c, 1, 41, 0
1, 1056, Note_on_c, 0, 77, 0
1, 1056, Note_on_c, 0, 76, 78
1, 1090, Note_on_c, 0, 76, 0
1, 1092, Note_on_c, 0, 79, 78
1, 1104, Note_on_c, 0, 79, 0
1, 1104, Note_on_c, 0, 71, 78
1, 1104, Note_on_c, 1, 65, 78
1, 1104, Note_on_c, 1, 55, 78
1, 1138, Note_on_c, 0, 71, 0
1, 1140, Note_on_c, 0, 74, 78
1, 1149, Note_on_c, 1, 65, 0
1, 1149, Note_on_c, 1, 55, 0
1, 1152, Note_on_c, 0, 74, 0
1, 1152, Note_on_c, 0, 72, 78
1, 1188, Note_on_c, 1, 48, 78
1, 1191, Note_on_c, 0, 72, 0
1, 1200, Note_on_c, 1, 48, 0
1, 1200, Note_on_c, 1, 52, 78
1, 1234, Note_on_c, 1, 52, 0
1, 1236, Note_on_c, 1, 55, 78
1, 1248, Note_on_c, 1, 55, 0
1, 1248, Note_on_c, 1, 60, 78
1, 1268, Note_on_c, 1, 60, 0
1, 1296, Note_on_c, 0, 60, 78
1, 1330, Note_on_c, 0, 60, 0
1, 1332, Note_on_c, 0, 64, 80
1, 1344, Note_on_c, 0, 64, 0
1, 1344, Note_on_c, 0, 67, 81
1, 1378, Note_on_c, 0, 67, 0
1, 1380, Note_on_c, 0, 64, 84
1, 1392, Note_on_c, 0, 64, 0
1, 1392, Note_on_c, 0, 72, 101
1, 1392, Note_on_c, 1, 36, 78
1, 1437, Note_on_c, 1, 36, 0
1, 1440, Note_on_c, 1, 48, 78
1, 1474, Note_on_c, 0, 72, 0
1, 1476, Note_on_c, 0, 71, 80
1, 1485, Note_on_c, 1, 48, 0
1, 1488, Note_on_c, 0, 71, 0
1, 1488, Note_on_c, 0, 69, 80
1, 1488, Note_on_c, 1, 52, 78
1, 1522, Note_on_c, 0, 69, 0
1, 1524, Note_on_c, 0, 67, 78
1, 1533, Note_on_c, 1, 52, 0
1, 1536, Note_on_c, 0, 67, 0
1, 1536, Note_on_c, 0, 67, 78
1, 1536, Note_on_c, 1, 50, 78
1, 1581, Note_on_c, 1, 50, 0
1, 1584, Note_on_c, 1, 38, 78
1, 1625, Note_on_c, 0, 67, 0
1, 1629, Note_on_c, 1, 38, 0
1, 1632, Note_on_c, 0, 65, 78
1, 1632, Note_on_c, 1, 50, 78
1, 1638, Note_on_c, 0, 65, 0
1, 1638, Note_on_c, 0, 67, 78
1, 1644, Note_on_c, 0, 67, 0
1, 1644, Note_on_c, 0, 65, 78
1, 1666, Note_on_c, 0, 65, 0
1, 1668, Note_on_c, 0, 64, 78
1, 1677, Note_on_c, 1, 50, 0
1, 1680, Note_on_c, 0, 64, 0
1, 1680, Note_on_c, 0, 62, 78
1, 1680, Note_on_c, 1, 53, 78
1, 1686, Note_on_c, 0, 62, 0
1, 1686, Note_on_c, 0, 64, 78
1, 1692, Note_on_c, 0, 64, 0
1, 1692, Note_on_c, 0, 62, 78
1, 1714, Note_on_c, 0, 62, 0
1, 1716, Note_on_c, 0, 60, 78
1, 1725, Note_on_c, 1, 53, 0
1, 1728, Note_on_c, 0, 60, 0
1, 1728, Note_on_c, 0, 60, 78
1, 1728, Note_on_c, 1, 55, 78
1, 1773, Note_on_c, 1, 55, 0
1, 1776, Note_on_c, 1, 43, 78
1, 1821, Note_on_c, 1, 43, 0
1, 1824, Note_on_c, 0, 60, 0
1, 1824, Note_on_c, 0, 59, 78
1, 1839, Note_on_c, 0, 59, 0
1, 1840, Note_on_c, 0, 62, 78
1, 1855, Note_on_c, 0, 62, 0
1, 1856, Note_on_c, 0, 65, 78
1, 1871, Note_on_c, 0, 65, 0
1, 1872, Note_on_c, 0, 69, 78
1, 1872, Note_on_c, 1, 47, 78
1, 1887, Note_on_c, 0, 69, 0
1, 1888, Note_on_c, 0, 67, 78
1, 1903, Note_on_c, 0, 67, 0
1, 1904, Note_on_c, 0, 65, 78
1, 1917, Note_on_c, 1, 47, 0
1, 1919, Note_on_c, 0, 65, 0
1, 1920, Note_on_c, 0, 65, 78
1, 1956, Note_on_c, 1, 36, 78
1, 1968, Note_on_c, 1, 36, 0
1, 1968, Note_on_c, 1, 48, 78
1, 2002, Note_on_c, 1, 48, 0
1, 2004, Note_on_c, 1, 47, 78
1, 2016, Note_on_c, 0, 65, 0
1, 2016, Note_on_c, 0, 64, 78
1, 2016, Note_on_c, 1, 47, 0
1, 2016, Note_on_c, 1, 48, 78
1, 2022, Note_on_c, 0, 64, 0
1, 2022, Note_on_c, 0, 65, 78
1, 2028, Note_on_c, 0, 65, 0
1, 2028, Note_on_c, 0, 64, 78
1, 2031, Note_on_c, 1, 48, 0
1, 2052, Note_on_c, 1, 48, 78
1, 2063, Note_on_c, 0, 64, 0
1, 2064, Note_on_c, 1, 48, 0
1, 2064, Note_on_c, 1, 52, 78
1, 2098, Note_on_c, 1, 52, 0
1, 2100, Note_on_c, 1, 55, 78
1, 2112, Note_on_c, 1, 55, 0
1, 2112, Note_on_c, 1, 58, 78
1, 2148, Note_on_c, 0, 60, 78
1, 2160, Note_on_c, 0, 60, 0
1, 2160, Note_on_c, 0, 64, 78
1, 2194, Note_on_c, 0, 64, 0
1, 2196, Note_on_c, 0, 67, 80
1, 2208, Note_on_c, 0, 67, 0
1, 2208, Note_on_c, 0, 72, 80
1, 2242, Note_on_c, 0, 72, 0
1, 2244, Note_on_c, 0, 67, 82
1, 2244, Note_on_c, 0, 64, 82
1, 2256, Note_on_c, 0, 67, 0
1, 2256, Note_on_c, 0, 64, 0
1, 2256, Note_on_c, 0, 67, 83
1, 2256, Note_on_c, 0, 64, 83
1, 2289, Note_on_c, 1, 58, 0
1, 2290, Note_on_c, 0, 67, 0
1, 2290, Note_on_c, 0, 64, 0
1, 2292, Note_on_c, 0, 67, 85
1, 2292, Note_on_c, 0, 64, 85
1, 2304, Note_on_c, 0, 67, 0
1, 2304, Note_on_c, 0, 64, 0
1, 2304, Note_on_c, 0, 67, 84
1, 2304, Note_on_c, 0, 64, 84
1, 2340, Note_on_c, 1, 36, 78
1, 2352, Note_on_c, 1, 36, 0
1, 2352, Note_on_c, 1, 48, 78
1, 2386, Note_on_c, 1, 48, 0
1, 2388, Note_on_c, 1, 47, 78
1, 2400, Note_on_c, 0, 67, 0
1, 2400, Note_on_c, 0, 64, 0
1, 2400, Note_on_c, 0, 69, 80
1, 2400, Note_on_c, 0, 65, 80
1, 2400, Note_on_c, 1, 47, 0
1, 2400, Note_on_c, 1, 48, 79
1, 2415, Note_on_c, 1, 48, 0
1, 2436, Note_on_c, 1, 48, 79
1, 2445, Note_on_c, 0, 69, 0
1, 2445, Note_on_c, 0, 65, 0
1, 2448, Note_on_c, 1, 48, 0
1, 2448, Note_on_c, 1, 53, 80
1, 2482, Note_on_c, 1, 53, 0
1, 2484, Note_on_c, 1, 57, 80
1, 2496, Note_on_c, 1, 57, 0
1, 2496, Note_on_c, 1, 60, 81
1, 2532, Note_on_c, 0, 65, 78
1, 2544, Note_on_c, 0, 65, 0
1, 2544, Note_on_c, 0, 77, 78
1, 2544, Note_on_c, 0, 69, 78
1, 2578, Note_on_c, 0, 77, 0
1, 2578, Note_on_c, 0, 69, 0
1, 2580, Note_on_c, 0, 77, 80
1, 2580, Note_on_c, 0, 69, 80
1, 2592, Note_on_c, 0, 77, 0
1, 2592, Note_on_c, 0, 69, 0
1, 2592, Note_on_c, 0, 77, 80
1, 2592, Note_on_c, 0, 69, 80
1, 2626, Note_on_c, 0, 77, 0
1, 2626, Note_on_c, 0, 69, 0
1, 2628, Note_on_c, 0, 72, 82
1, 2628, Note_on_c, 0, 69, 82
1, 2640, Note_on_c, 0, 72, 0
1, 2640, Note_on_c, 0, 69, 0
1, 2640, Note_on_c, 0, 70, 83
1, 2640, Note_on_c, 0, 67, 83
1, 2673, Note_on_c, 1, 60, 0
1, 2674, Note_on_c, 0, 70, 0
1, 2674, Note_on_c, 0, 67, 0
1, 2676, Note_on_c, 0, 69, 85
1, 2676, Note_on_c, 0, 65, 85
1, 2688, Note_on_c, 0, 69, 0
1, 2688, Note_on_c, 0, 65, 0
1, 2688, Note_on_c, 0, 69, 84
1, 2688, Note_on_c, 0, 65, 84
1, 2724, Note_on_c, 1, 36, 78
1, 2736, Note_on_c, 1, 36, 0
1, 2736, Note_on_c, 1, 48, 78
1, 2770, Note_on_c, 1, 48, 0
1, 2772, Note_on_c, 1, 47, 79
1, 2784, Note_on_c, 0, 69, 0
1, 2784, Note_on_c, 0, 65, 0
1, 2784, Note_on_c, 0, 67, 80
1, 2784, Note_on_c, 0, 64, 80
1, 2784, Note_on_c, 1, 47, 0
1, 2784, Note_on_c, 1, 48, 79
1, 2799, Note_on_c, 1, 48, 0
1, 2820, Note_on_c, 1, 48, 80
1, 2829, Note_on_c, 0, 67, 0
1, 2829, Note_on_c, 0, 64, 0
1, 2832, Note_on_c, 1, 48, 0
1, 2832, Note_on_c, 1, 52, 81
1, 2866, Note_on_c, 1, 52, 0
1, 2868, Note_on_c, 1, 55, 82
1, 2880, Note_on_c, 1, 55, 0
1, 2880, Note_on_c, 1, 60, 82
1, 2916, Note_on_c, 0, 67, 78
1, 2928, Note_on_c, 0, 67, 0
1, 2928, Note_on_c, 0, 76, 78
1, 2962, Note_on_c, 0, 76, 0
1, 2964, Note_on_c, 0, 74, 78
1, 2969, Note_on_c, 1, 60, 0
1, 2976, Note_on_c, 0, 74, 0
1, 2976, Note_on_c, 0, 72, 78
1, 3010, Note_on_c, 0, 72, 0
1, 3012, Note_on_c, 0, 71, 78
1, 3024, Note_on_c, 0, 71, 0
1, 3024, Note_on_c, 0, 69, 78
1, 3024, Note_on_c, 1, 60, 78
1, 3058, Note_on_c, 0, 69, 0
1, 3060, Note_on_c, 0, 67, 78
1, 3069, Note_on_c, 1, 60, 0
1, 3072, Note_on_c, 0, 67, 0
1, 3072, Note_on_c, 0, 67, 78
1, 3072, Note_on_c, 1, 62, 78
1, 3106, Note_on_c, 0, 67, 0
1, 3108, Note_on_c, 0, 66, 78
1, 3117, Note_on_c, 1, 62, 0
1, 3120, Note_on_c, 0, 66, 0
1, 3120, Note_on_c, 0, 74, 78
1, 3120, Note_on_c, 1, 59, 78
1, 3154, Note_on_c, 0, 74, 0
1, 3156, Note_on_c, 0, 65, 78
1, 3165, Note_on_c, 1, 59, 0
1, 3168, Note_on_c, 0, 65, 0
1, 3168, Note_on_c, 0, 65, 78
1, 3168, Note_on_c, 1, 60, 78
1, 3202, Note_on_c, 0, 65, 0
1, 3204, Note_on_c, 0, 64, 78
1, 3213, Note_on_c, 1, 60, 0
1, 3216, Note_on_c, 0, 64, 0
1, 3216, Note_on_c, 0, 72, 78
1, 3250, Note_on_c, 0, 72, 0
1, 3252, Note_on_c, 0, 61, 85
1, 3252, Note_on_c, 1, 49, 85
1, 3264, Note_on_c, 0, 61, 0
1, 3264, Note_on_c, 0, 62, 85
1, 3264, Note_on_c, 1, 49, 0
1, 3264, Note_on_c, 1, 50, 85
1, 3279, Note_on_c, 0, 62, 0
1, 3279, Note_on_c, 1, 50, 0
1, 3300, Note_on_c, 0, 64, 85
1, 3300, Note_on_c, 1, 52, 85
1, 3312, Note_on_c, 0, 64, 0
1, 3312, Note_on_c, 0, 65, 85
1, 3312, Note_on_c, 1, 52, 0
1, 3312, Note_on_c, 1, 53, 85
1, 3327, Note_on_c, 0, 65, 0
1, 3327, Note_on_c, 1, 53, 0
1, 3348, Note_on_c, 0, 66, 85
1, 3348, Note_on_c, 1, 54, 85
1, 3360, Note_on_c, 0, 66, 0
1, 3360, Note_on_c, 0, 67, 85
1, 3360, Note_on_c, 1, 54, 0
1, 3360, Note_on_c, 1, 55, 85
1, 3375, Note_on_c, 0, 67, 0
1, 3375, Note_on_c, 1, 55, 0
1, 3396, Note_on_c, 0, 68, 85
1, 3396, Note_on_c, 1, 56, 85
1, 3408, Note_on_c, 0, 68, 0
1, 3408, Note_on_c, 0, 69, 85
1, 3408, Note_on_c, 1, 56, 0
1, 3408, Note_on_c, 1, 57, 85
1, 3423, Note_on_c, 0, 69, 0
1, 3423, Note_on_c, 1, 57, 0
1, 3444, Note_on_c, 0, 65, 85
1, 3444, Note_on_c, 0, 62, 85
1, 3444, Note_on_c, 1, 53, 85
1, 3456, Note_on_c, 0, 65, 0
1, 3456, Note_on_c, 0, 62, 0
1, 3456, Note_on_c, 0, 64, 85
1, 3456, Note_on_c, 0, 60, 85
1, 3456, Note_on_c, 1, 53, 0
1, 3456, Note_on_c, 1, 55, 85
1, 3545, Note_on_c, 1, 55, 0
1, 3552, Note_on_c, 0, 64, 0
1, 3552, Note_on_c, 0, 60, 0
1, 3552, Note_on_c, 0, 62, 85
1, 3552, Note_on_c, 0, 59, 85
1, 3552, Note_on_c, 1, 43, 85
1, 3572, Note_on_c, 0, 62, 0
1, 3572, Note_on_c, 0, 59, 0
1, 3597, Note_on_c, 1, 43, 0
1, 3600, Note_on_c, 0, 71, 78
1, 3634, Note_on_c, 0, 71, 0
1, 3636, Note_on_c, 0, 74, 78
1, 3648, Note_on_c, 0, 74, 0
1, 3648, Note_on_c, 0, 79, 78
1, 3682, Note_on_c, 0, 79, 0
1, 3684, Note_on_c, 0, 74, 78
1, 3696, Note_on_c, 0, 74, 0
1, 3696, Note_on_c, 0, 83, 94
1, 3696, Note_on_c, 1, 59, 78
1, 3696, Note_on_c, 1, 55, 78
1, 3741, Note_on_c, 1, 59, 0
1, 3741, Note_on_c, 1, 55, 0
1, 3744, Note_on_c, 1, 71, 78
1, 3744, Note_on_c, 1, 67, 78
1, 3759, Note_on_c, 0, 83, 0
1, 3760, Note_on_c, 0, 78, 78
1, 3775, Note_on_c, 0, 78, 0
1, 3776, Note_on_c, 0, 79, 78
1, 3789, Note_on_c, 1, 71, 0
1, 3789, Note_on_c, 1, 67, 0
1, 3791, Note_on_c, 0, 79, 0
1, 3792, Note_on_c, 0, 83, 78
1, 3807, Note_on_c, 0, 83, 0
1, 3808, Note_on_c, 0, 79, 78
1, 3823, Note_on_c, 0, 79, 0
1, 3824, Note_on_c, 0, 76, 78
1, 3839, Note_on_c, 0, 76, 0
1, 3840, Note_on_c, 0, 74, 78
1, 3885, Note_on_c, 0, 74, 0
1, 3888, Note_on_c, 0, 72, 78
1, 3888, Note_on_c, 1, 60, 78
1, 3888, Note_on_c, 1, 57, 78
1, 3894, Note_on_c, 0, 72, 0
1, 3894, Note_on_c, 0, 74, 78
1, 3900, Note_on_c, 0, 74, 0
1, 3900, Note_on_c, 0, 72, 78
1, 3933, Note_on_c, 1, 60, 0
1, 3933, Note_on_c, 1, 57, 0
1, 3935, Note_on_c, 0, 72, 0
1, 3936, Note_on_c, 1, 72, 78
1, 3936, Note_on_c, 1, 69, 78
1, 3981, Note_on_c, 1, 72, 0
1, 3981, Note_on_c, 1, 69, 0
1, 3984, Note_on_c, 0, 72, 78
1, 4018, Note_on_c, 0, 72, 0
1, 4020, Note_on_c, 0, 78, 78
1, 4032, Note_on_c, 0, 78, 0
1, 4032, Note_on_c, 0, 81, 78
1, 4066, Note_on_c, 0, 81, 0
1, 4068, Note_on_c, 0, 78, 78
1, 4080, Note_on_c, 0, 78, 0
1, 4080, Note_on_c, 0, 84, 94
1, 4080, Note_on_c, 1, 57, 78
1, 4080, Note_on_c, 1, 54, 78
1, 4125, Note_on_c, 1, 57, 0
1, 4125, Note_on_c, 1, 54, 0
1, 4128, Note_on_c, 1, 69, 78
1, 4128, Note_on_c, 1, 66, 78
1, 4143, Note_on_c, 0, 84, 0
1, 4144, Note_on_c, 0, 81, 78
1, 4159, Note_on_c, 0, 81, 0
1, 4160, Note_on_c, 0, 78, 78
1, 4173, Note_on_c, 1, 69, 0
1, 4173, Note_on_c, 1, 66, 0
1, 4175, Note_on_c, 0, 78, 0
1, 4176, Note_on_c, 0, 81, 78
1, 4191, Note_on_c, 0, 81, 0
1, 4192, Note_on_c, 0, 78, 78
1, 4207, Note_on_c, 0, 78, 0
1, 4208, Note_on_c, 0, 74, 78
1, 4223, Note_on_c, 0, 74, 0
1, 4224, Note_on_c, 0, 72, 78
1, 4269, Note_on_c, 0, 72, 0
1, 4272, Note_on_c, 0, 71, 78
1, 4272, Note_on_c, 1, 59, 78
1, 4272, Note_on_c, 1, 55, 78
1, 4278, Note_on_c, 0, 71, 0
1, 4278, Note_on_c, 0, 72, 78
1, 4284, Note_on_c, 0, 72, 0
1, 4284, Note_on_c, 0, 71, 78
1, 4317, Note_on_c, 1, 59, 0
1, 4317, Note_on_c, 1, 55, 0
1, 4319, Note_on_c, 0, 71, 0
1, 4320, Note_on_c, 1, 71, 78
1, 4320, Note_on_c, 1, 67, 78
1, 4365, Note_on_c, 1, 71, 0
1, 4365, Note_on_c, 1, 67, 0
1, 4368, Note_on_c, 0, 74, 78
1, 4402, Note_on_c, 0, 74, 0
1, 4404, Note_on_c, 0, 79, 78
1, 4416, Note_on_c, 0, 79, 0
1, 4416, Note_on_c, 0, 83, 78
1, 4450, Note_on_c, 0, 83, 0
1, 4452, Note_on_c, 0, 79, 78
1, 4464, Note_on_c, 0, 79, 0
1, 4464, Note_on_c, 0, 86, 94
1, 4464, Note_on_c, 1, 59, 78
1, 4498, Note_on_c, 1, 59, 0
1, 4500, Note_on_c, 1, 62, 78
1, 4512, Note_on_c, 1, 62, 0
1, 4512, Note_on_c, 1, 67, 78
1, 4527, Note_on_c, 0, 86, 0
1, 4528, Note_on_c, 0, 84, 78
1, 4543, Note_on_c, 0, 84, 0
1, 4544, Note_on_c, 0, 83, 78
1, 4557, Note_on_c, 1, 67, 0
1, 4559, Note_on_c, 0, 83, 0
1, 4560, Note_on_c, 0, 81, 78
1, 4560, Note_on_c, 1, 71, 78
1, 4575, Note_on_c, 0, 81, 0
1, 4576, Note_on_c, 0, 79, 78
1, 4591, Note_on_c, 0, 79, 0
1, 4592, Note_on_c, 0, 78, 78
1, 4605, Note_on_c, 1, 71, 0
1, 4607, Note_on_c, 0, 78, 0
1, 4608, Note_on_c, 0, 76, 78
1, 4608, Note_on_c, 1, 72, 78
1, 4642, Note_on_c, 1, 72, 0
1, 4644, Note_on_c, 1, 60, 78
1, 4656, Note_on_c, 1, 60, 0
1, 4656, Note_on_c, 1, 64, 78
1, 4690, Note_on_c, 1, 64, 0
1, 4692, Note_on_c, 1, 68, 78
1, 4704, Note_on_c, 1, 68, 0
1, 4704, Note_on_c, 1, 69, 78
1, 4719, Note_on_c, 0, 76, 0
1, 4720, Note_on_c, 0, 84, 78
1, 4735, Note_on_c, 0, 84, 0
1, 4736, Note_on_c, 0, 83, 78
1, 4751, Note_on_c, 0, 83, 0
1, 4752, Note_on_c, 0, 81, 78
1, 4752, Note_on_c, 1, 60, 64
1, 4767, Note_on_c, 0, 81, 0
1, 4768, Note_on_c, 0, 79, 78
1, 4783, Note_on_c, 0, 79, 0
1, 4784, Note_on_c, 0, 78, 78
1, 4797, Note_on_c, 1, 60, 0
1, 4799, Note_on_c, 0, 78, 0
1, 4800, Note_on_c, 0, 76, 78
1, 4800, Note_on_c, 1, 59, 64
1, 4834, Note_on_c, 1, 69, 0
1, 4836, Note_on_c, 1, 62, 78
1, 4848, Note_on_c, 0, 76, 0
1, 4848, Note_on_c, 0, 74, 78
1, 4848, Note_on_c, 1, 62, 0
1, 4848, Note_on_c, 1, 64, 78
1, 4882, Note_on_c, 1, 64, 0
1, 4884, Note_on_c, 1, 66, 78
1, 4889, Note_on_c, 0, 74, 0
1, 4896, Note_on_c, 1, 66, 0
1, 4896, Note_on_c, 1, 67, 78
1, 4912, Note_on_c, 0, 83, 78
1, 4927, Note_on_c, 0, 83, 0
1, 4928, Note_on_c, 0, 81, 78
1, 4933, Note_on_c, 1, 59, 0
1, 4943, Note_on_c, 0, 81, 0
1, 4944, Note_on_c, 0, 79, 78
1, 4944, Note_on_c, 1, 59, 64
1, 4959, Note_on_c, 0, 79, 0
1, 4960, Note_on_c, 0, 78, 78
1, 4975, Note_on_c, 0, 78, 0
1, 4976, Note_on_c, 0, 76, 78
1, 4989, Note_on_c, 1, 59, 0
1, 4991, Note_on_c, 0, 76, 0
1, 4992, Note_on_c, 0, 74, 78
1, 4992, Note_on_c, 1, 57, 64
1, 5026, Note_on_c, 0, 74, 0
1, 5028, Note_on_c, 0, 72, 78
1, 5037, Note_on_c, 1, 67, 0
1, 5040, Note_on_c, 0, 72, 0
1, 5040, Note_on_c, 0, 81, 78
1, 5040, Note_on_c, 1, 66, 78
1, 5074, Note_on_c, 0, 81, 0
1, 5076, Note_on_c, 0, 72, 78
1, 5081, Note_on_c, 1, 57, 0
1, 5085, Note_on_c, 1, 66, 0
1, 5088, Note_on_c, 0, 72, 0
1, 5088, Note_on_c, 0, 72, 78
1, 5088, Note_on_c, 1, 67, 78
1, 5088, Note_on_c, 1, 55, 64
1, 5122, Note_on_c, 0, 72, 0
1, 5124, Note_on_c, 0, 71, 78
1, 5133, Note_on_c, 1, 67, 0
1, 5133, Note_on_c, 1, 55, 0
1, 5136, Note_on_c, 0, 71, 0
1, 5136, Note_on_c, 0, 79, 78
1, 5136, Note_on_c, 1, 61, 78
1, 5136, Note_on_c, 1, 61, 64
1, 5170, Note_on_c, 0, 79, 0
1, 5172, Note_on_c, 0, 71, 78
1, 5172, Note_on_c, 0, 67, 78
1, 5181, Note_on_c, 1, 61, 0
1, 5181, Note_on_c, 1, 61, 0
1, 5184, Note_on_c, 0, 71, 0
1, 5184, Note_on_c, 0, 67, 0
1, 5184, Note_on_c, 0, 69, 78
1, 5184, Note_on_c, 0, 66, 78
1, 5184, Note_on_c, 1, 50, 78
1, 5218, Note_on_c, 1, 50, 0
1, 5220, Note_on_c, 1, 62, 78
1, 5232, Note_on_c, 1, 62, 0
1, 5232, Note_on_c, 1, 61, 78
1, 5266, Note_on_c, 1, 61, 0
1, 5268, Note_on_c, 1, 62, 79
1, 5273, Note_on_c, 0, 69, 0
1, 5273, Note_on_c, 0, 66, 0
1, 5280, Note_on_c, 1, 62, 0
1, 5280, Note_on_c, 1, 60, 79
1, 5314, Note_on_c, 1, 60, 0
1, 5316, Note_on_c, 1, 62, 80
1, 5328, Note_on_c, 0, 66, 80
1, 5328, Note_on_c, 1, 62, 0
1, 5328, Note_on_c, 1, 57, 80
1, 5362, Note_on_c, 0, 66, 0
1, 5362, Note_on_c, 1, 57, 0
1, 5364, Note_on_c, 0, 78, 81
1, 5364, Note_on_c, 1, 62, 81
1, 5376, Note_on_c, 0, 78, 0
1, 5376, Note_on_c, 0, 67, 81
1, 5376, Note_on_c, 1, 62, 0
1, 5376, Note_on_c, 1, 59, 81
1, 5410, Note_on_c, 0, 67, 0
1, 5410, Note_on_c, 1, 59, 0
1, 5412, Note_on_c, 0, 79, 82
1, 5412, Note_on_c, 1, 62, 82
1, 5424, Note_on_c, 0, 79, 0
1, 5424, Note_on_c, 0, 69, 82
1, 5424, Note_on_c, 1, 62, 0
1, 5424, Note_on_c, 1, 54, 82
1, 5458, Note_on_c, 0, 69, 0
1, 5458, Note_on_c, 1, 54, 0
1, 5460, Note_on_c, 0, 81, 83
1, 5460, Note_on_c, 1, 62, 83
1, 5472, Note_on_c, 0, 81, 0
1, 5472, Note_on_c, 0, 71, 83
1, 5472, Note_on_c, 1, 62, 0
1, 5472, Note_on_c, 1, 55, 83
1, 5506, Note_on_c, 0, 71, 0
1, 5506, Note_on_c, 1, 55, 0
1, 5508, Note_on_c, 0, 83, 84
1, 5508, Note_on_c, 1, 62, 84
1, 5520, Note_on_c, 0, 83, 0
1, 5520, Note_on_c, 0, 73, 84
1, 5520, Note_on_c, 1, 62, 0
1, 5520, Note_on_c, 1, 52, 84
1, 5554, Note_on_c, 0, 73, 0
1, 5554, Note_on_c, 1, 52, 0
1, 5556, Note_on_c, 0, 85, 85
1, 5556, Note_on_c, 1, 62, 85
1, 5568, Note_on_c, 0, 85, 0
1, 5568, Note_on_c, 0, 74, 85
1, 5568, Note_on_c, 1, 62, 0
1, 5568, Note_on_c, 1, 50, 85
1, 5602, Note_on_c, 0, 74, 0
1, 5604, Note_on_c, 0, 86, 83
1, 5616, Note_on_c, 0, 86, 0
1, 5616, Note_on_c, 0, 85, 83
1, 5650, Note_on_c, 0, 85, 0
1, 5652, Note_on_c, 0, 86, 81
1, 5657, Note_on_c, 1, 50, 0
1, 5664, Note_on_c, 0, 86, 0
1, 5664, Note_on_c, 0, 84, 81
1, 5698, Note_on_c, 0, 84, 0
1, 5700, Note_on_c, 0, 86, 79
1, 5712, Note_on_c, 0, 86, 0
1, 5712, Note_on_c, 0, 81, 79
1, 5712, Note_on_c, 1, 66, 78
1, 5746, Note_on_c, 0, 81, 0
1, 5746, Note_on_c, 1, 66, 0
1, 5748, Note_on_c, 0, 84, 78
1, 5748, Note_on_c, 1, 69, 78
1, 5760, Note_on_c, 0, 84, 0
1, 5760, Note_on_c, 0, 83, 78
1, 5760, Note_on_c, 1, 69, 0
1, 5760, Note_on_c, 1, 67, 78
1, 5794, Note_on_c, 0, 83, 0
1, 5794, Note_on_c, 1, 67, 0
1, 5796, Note_on_c, 0, 86, 78
1, 5796, Note_on_c, 1, 71, 78
1, 5808, Note_on_c, 0, 86, 0
1, 5808, Note_on_c, 0, 78, 78
1, 5808, Note_on_c, 1, 71, 0
1, 5808, Note_on_c, 1, 69, 78
1, 5842, Note_on_c, 0, 78, 0
1, 5842, Note_on_c, 1, 69, 0
1, 5844, Note_on_c, 0, 81, 78
1, 5844, Note_on_c, 1, 72, 78
1, 5856, Note_on_c, 0, 81, 0
1, 5856, Note_on_c, 0, 79, 78
1, 5856, Note_on_c, 1, 72, 0
1, 5856, Note_on_c, 1, 71, 78
1, 5890, Note_on_c, 0, 79, 0
1, 5892, Note_on_c, 0, 83, 78
1, 5901, Note_on_c, 1, 71, 0
1, 5904, Note_on_c, 0, 83, 0
1, 5904, Note_on_c, 0, 73, 78
1, 5904, Note_on_c, 1, 64, 78
1, 5938, Note_on_c, 0, 73, 0
1, 5938, Note_on_c, 1, 64, 0
1, 5940, Note_on_c, 0, 76, 78
1, 5940, Note_on_c, 1, 67, 78
1, 5952, Note_on_c, 0, 76, 0
1, 5952, Note_on_c, 0, 74, 78
1, 5952, Note_on_c, 1, 67, 0
1, 5952, Note_on_c, 1, 66, 78
1, 5986, Note_on_c, 0, 74, 0
1, 5988, Note_on_c, 0, 81, 78
1, 6000, Note_on_c, 0, 81, 0
1, 6000, Note_on_c, 0, 78, 78
1, 6034, Note_on_c, 0, 78, 0
1, 6036, Note_on_c, 0, 74, 78
1, 6041, Note_on_c, 1, 66, 0
1, 6048, Note_on_c, 0, 74, 0
1, 6048, Note_on_c, 0, 74, 78
1, 6084, Note_on_c, 1, 62, 78
1, 6093, Note_on_c, 0, 74, 0
1, 6096, Note_on_c, 0, 74, 78
1, 6096, Note_on_c, 1, 62, 0
1, 6096, Note_on_c, 1, 64, 78
1, 6104, Note_on_c, 0, 74, 0
1, 6104, Note_on_c, 0, 72, 78
1, 6112, Note_on_c, 0, 72, 0
1, 6112, Note_on_c, 0, 74, 78
1, 6120, Note_on_c, 0, 74, 0
1, 6120, Note_on_c, 0, 72, 78
1, 6128, Note_on_c, 0, 72, 0
1, 6128, Note_on_c, 0, 71, 78
1, 6130, Note_on_c, 1, 64, 0
1, 6132, Note_on_c, 1, 66, 78
1, 6136, Note_on_c, 0, 71, 0
1, 6136, Note_on_c, 0, 72, 78
1, 6144, Note_on_c, 0, 72, 0
1, 6144, Note_on_c, 0, 71, 78
1, 6144, Note_on_c, 1, 66, 0
1, 6144, Note_on_c, 1, 67, 78
1, 6159, Note_on_c, 0, 71, 0
1, 6160, Note_on_c, 0, 82, 78
1, 6175, Note_on_c, 0, 82, 0
1, 6176, Note_on_c, 0, 83, 78
1, 6191, Note_on_c, 0, 83, 0
1, 6192, Note_on_c, 0, 78, 78
1, 6207, Note_on_c, 0, 78, 0
1, 6208, Note_on_c, 0, 79, 78
1, 6223, Note_on_c, 0, 79, 0
1, 6224, Note_on_c, 0, 76, 78
1, 6233, Note_on_c, 1, 67, 0
1, 6239, Note_on_c, 0, 76, 0
1, 6240, Note_on_c, 0, 74, 78
1, 6276, Note_on_c, 1, 62, 78
1, 6285, Note_on_c, 0, 74, 0
1, 6288, Note_on_c, 0, 74, 78
1, 6288, Note_on_c, 1, 62, 0
1, 6288, Note_on_c, 1, 64, 78
1, 6296, Note_on_c, 0, 74, 0
1, 6296, Note_on_c, 0, 72, 78
1, 6304, Note_on_c, 0, 72, 0
1, 6304, Note_on_c, 0, 74, 78
1, 6312, Note_on_c, 0, 74, 0
1, 6312, Note_on_c, 0, 72, 78
1, 6320, Note_on_c, 0, 72, 0
1, 6320, Note_on_c, 0, 71, 78
1, 6322, Note_on_c, 1, 64, 0
1, 6324, Note_on_c, 1, 66, 78
1, 6328, Note_on_c, 0, 71, 0
1, 6328, Note_on_c, 0, 72, 78
1, 6336, Note_on_c, 0, 72, 0
1, 6336, Note_on_c, 0, 71, 78
1, 6336, Note_on_c, 1, 66, 0
1, 6336, Note_on_c, 1, 67, 78
1, 6351, Note_on_c, 0, 71, 0
1, 6352, Note_on_c, 0, 82, 78
1, 6367, Note_on_c, 0, 82, 0
1, 6368, Note_on_c, 0, 83, 78
1, 6383, Note_on_c, 0, 83, 0
1, 6384, Note_on_c, 0, 78, 78
1, 6399, Note_on_c, 0, 78, 0
1, 6400, Note_on_c, 0, 79, 78
1, 6415, Note_on_c, 0, 79, 0
1, 6416, Note_on_c, 0, 76, 78
1, 6425, Note_on_c, 1, 67, 0
1, 6431, Note_on_c, 0, 76, 0
1, 6432, Note_on_c, 0, 74, 78
1, 6468, Note_on_c, 1, 62, 78
1, 6477, Note_on_c, 0, 74, 0
1, 6480, Note_on_c, 0, 74, 78
1, 6480, Note_on_c, 1, 62, 0
1, 6480, Note_on_c, 1, 64, 78
1, 6488, Note_on_c, 0, 74, 0
1, 6488, Note_on_c, 0, 72, 78
1, 6496, Note_on_c, 0, 72, 0
1, 6496, Note_on_c, 0, 74, 78
1, 6504, Note_on_c, 0, 74, 0
1, 6504, Note_on_c, 0, 72, 78
1, 6512, Note_on_c, 0, 72, 0
1, 6512, Note_on_c, 0, 71, 78
1, 6514, Note_on_c, 1, 64, 0
1, 6516, Note_on_c, 1, 66, 78
1, 6520, Note_on_c, 0, 71, 0
1, 6520, Note_on_c, 0, 72, 78
1, 6528, Note_on_c, 0, 72, 0
1, 6528, Note_on_c, 0, 71, 78
1, 6528, Note_on_c, 1, 66, 0
1, 6528, Note_on_c, 1, 67, 78
1, 6543, Note_on_c, 0, 71, 0
1, 6544, Note_on_c, 0, 82, 78
1, 6559, Note_on_c, 0, 82, 0
1, 6560, Note_on_c, 0, 83, 78
1, 6575, Note_on_c, 0, 83, 0
1, 6576, Note_on_c, 0, 78, 78
1, 6591, Note_on_c, 0, 78, 0
1, 6592, Note_on_c, 0, 79, 78
1, 6607, Note_on_c, 0, 79, 0
1, 6608, Note_on_c, 0, 75, 78
1, 6617, Note_on_c, 1, 67, 0
1, 6623, Note_on_c, 0, 75, 0
1, 6624, Note_on_c, 0, 76, 78
1, 6639, Note_on_c, 0, 76, 0
1, 6640, Note_on_c, 0, 79, 78
1, 6655, Note_on_c, 0, 79, 0
1, 6656, Note_on_c, 0, 71, 78
1, 6671, Note_on_c, 0, 71, 0
1, 6672, Note_on_c, 0, 72, 78
1, 6687, Note_on_c, 0, 72, 0
1, 6688, Note_on_c, 0, 76, 78
1, 6703, Note_on_c, 0, 76, 0
1, 6704, Note_on_c, 0, 69, 78
1, 6719, Note_on_c, 0, 69, 0
1, 6720, Note_on_c, 0, 67, 78
1, 6768, Note_on_c, 1, 47, 78
1, 6809, Note_on_c, 0, 67, 0
1, 6813, Note_on_c, 1, 47, 0
1, 6816, Note_on_c, 0, 67, 78
1, 6816, Note_on_c, 1, 48, 78
1, 6824, Note_on_c, 0, 67, 0
1, 6824, Note_on_c, 0, 69, 78
1, 6832, Note_on_c, 0, 69, 0
1, 6832, Note_on_c, 0, 71, 78
1, 6840, Note_on_c, 0, 71, 0
1, 6840, Note_on_c, 0, 69, 78
1, 6848, Note_on_c, 0, 69, 0
1, 6848, Note_on_c, 0, 71, 78
1, 6856, Note_on_c, 0, 71, 0
1, 6856, Note_on_c, 0, 69, 78
1, 6861, Note_on_c, 1, 48, 0
1, 6864, Note_on_c, 0, 69, 0
1, 6864, Note_on_c, 0, 71, 78
1, 6864, Note_on_c, 1, 50, 78
1, 6872, Note_on_c, 0, 71, 0
1, 6872, Note_on_c, 0, 69, 78
1, 6880, Note_on_c, 0, 69, 0
1, 6880, Note_on_c, 0, 71, 78
1, 6888, Note_on_c, 0, 71, 0
1, 6888, Note_on_c, 0, 69, 78
1, 6896, Note_on_c, 0, 69, 0
1, 6896, Note_on_c, 0, 67, 78
1, 6904, Note_on_c, 0, 67, 0
1, 6904, Note_on_c, 0, 69, 78
1, 6909, Note_on_c, 1, 50, 0
1, 6912, Note_on_c, 0, 69, 0
1, 6912, Note_on_c, 0, 67, 78
1, 6928, Note_on_c, 1, 43, 78
1, 6932, Note_on_c, 0, 67, 0
1, 6943, Note_on_c, 1, 43, 0
1, 6944, Note_on_c, 1, 46, 78
1, 6959, Note_on_c, 1, 46, 0
1, 6960, Note_on_c, 1, 50, 78
1, 6975, Note_on_c, 1, 50, 0
1, 6976, Note_on_c, 1, 55, 78
1, 6991, Note_on_c, 1, 55, 0
1, 6992, Note_on_c, 1, 57, 78
1, 7007, Note_on_c, 1, 57, 0
1, 7008, Note_on_c, 1, 58, 78
1, 7024, Note_on_c, 0, 62, 78
1, 7039, Note_on_c, 0, 62, 0
1, 7040, Note_on_c, 0, 66, 78
1, 7053, Note_on_c, 1, 58, 0
1, 7055, Note_on_c, 0, 66, 0
1, 7056, Note_on_c, 0, 67, 78
1, 7071, Note_on_c, 0, 67, 0
1, 7072, Note_on_c, 0, 69, 78
1, 7087, Note_on_c, 0, 69, 0
1, 7088, Note_on_c, 0, 70, 78
1, 7103, Note_on_c, 0, 70, 0
1, 7104, Note_on_c, 0, 69, 78
1, 7120, Note_on_c, 1, 50, 78
1, 7124, Note_on_c, 0, 69, 0
1, 7135, Note_on_c, 1, 50, 0
1, 7136, Note_on_c, 1, 54, 78
1, 7151, Note_on_c, 1, 54, 0
1, 7152, Note_on_c, 1, 57, 78
1, 7167, Note_on_c, 1, 57, 0
1, 7168, Note_on_c, 1, 60, 78
1, 7183, Note_on_c, 1, 60, 0
1, 7184, Note_on_c, 1, 62, 78
1, 7199, Note_on_c, 1, 62, 0
1, 7200, Note_on_c, 1, 63, 78
1, 7216, Note_on_c, 0, 66, 78
1, 7231, Note_on_c, 0, 66, 0
1, 7232, Note_on_c, 0, 69, 78
1, 7245, Note_on_c, 1, 63, 0
1, 7247, Note_on_c, 0, 69, 0
1, 7248, Note_on_c, 0, 72, 78
1, 7263, Note_on_c, 0, 72, 0
1, 7264, Note_on_c, 0, 74, 78
1, 7279, Note_on_c, 0, 74, 0
1, 7280, Note_on_c, 0, 75, 78
1, 7295, Note_on_c, 0, 75, 0
1, 7296, Note_on_c, 0, 74, 78
1, 7312, Note_on_c, 1, 55, 78
1, 7316, Note_on_c, 0, 74, 0
1, 7327, Note_on_c, 1, 55, 0
1, 7328, Note_on_c, 1, 58, 78
1, 7343, Note_on_c, 1, 58, 0
1, 7344, Note_on_c, 1, 62, 78
1, 7359, Note_on_c, 1, 62, 0
1, 7360, Note_on_c, 1, 67, 78
1, 7375, Note_on_c, 1, 67, 0
1, 7376, Note_on_c, 1, 69, 78
1, 7391, Note_on_c, 1, 69, 0
1, 7392, Note_on_c, 1, 70, 78
1, 7408, Note_on_c, 0, 74, 78
1, 7412, Note_on_c, 1, 70, 0
1, 7423, Note_on_c, 0, 74, 0
1, 7424, Note_on_c, 0, 78, 78
1, 7439, Note_on_c, 0, 78, 0
1, 7440, Note_on_c, 0, 79, 78
1, 7455, Note_on_c, 0, 79, 0
1, 7456, Note_on_c, 0, 81, 78
1, 7471, Note_on_c, 0, 81, 0
1, 7472, Note_on_c, 0, 82, 78
1, 7487, Note_on_c, 0, 82, 0
1, 7488, Note_on_c, 1, 69, 78
1, 7504, Note_on_c, 0, 72, 78
1, 7508, Note_on_c, 1, 69, 0
1, 7519, Note_on_c, 0, 72, 0
1, 7520, Note_on_c, 0, 78, 78
1, 7535, Note_on_c, 0, 78, 0
1, 7536, Note_on_c, 0, 81, 78
1, 7551, Note_on_c, 0, 81, 0
1, 7552, Note_on_c, 0, 82, 78
1, 7567, Note_on_c, 0, 82, 0
1, 7568, Note_on_c, 0, 84, 78
1, 7583, Note_on_c, 0, 84, 0
1, 7584, Note_on_c, 1, 67, 78
1, 7600, Note_on_c, 0, 70, 78
1, 7604, Note_on_c, 1, 67, 0
1, 7615, Note_on_c, 0, 70, 0
1, 7616, Note_on_c, 0, 82, 78
1, 7631, Note_on_c, 0, 82, 0
1, 7632, Note_on_c, 1, 65, 78
1, 7648, Note_on_c, 0, 69, 78
1, 7652, Note_on_c, 1, 65, 0
1, 7663, Note_on_c, 0, 69, 0
1, 7664, Note_on_c, 0, 81, 78
1, 7679, Note_on_c, 0, 81, 0
1, 7680, Note_on_c, 1, 63, 64
1, 7696, Note_on_c, 0, 78, 78
1, 7711, Note_on_c, 0, 78, 0
1, 7712, Note_on_c, 0, 79, 78
1, 7727, Note_on_c, 0, 79, 0
1, 7728, Note_on_c, 0, 82, 78
1, 7743, Note_on_c, 0, 82, 0
1, 7744, Note_on_c, 0, 79, 78
1, 7759, Note_on_c, 0, 79, 0
1, 7760, Note_on_c, 0, 75, 78
1, 7775, Note_on_c, 0, 75, 0
1, 7776, Note_on_c, 0, 74, 78
1, 7776, Note_on_c, 1, 67, 78
1, 7821, Note_on_c, 0, 74, 0
1, 7824, Note_on_c, 0, 74, 78
1, 7830, Note_on_c, 0, 74, 0
1, 7830, Note_on_c, 0, 73, 78
1, 7836, Note_on_c, 0, 73, 0
1, 7836, Note_on_c, 0, 71, 78
1, 7842, Note_on_c, 0, 71, 0
1, 7842, Note_on_c, 0, 73, 78
1, 7857, Note_on_c, 1, 63, 0
1, 7869, Note_on_c, 0, 73, 0
1, 7872, Note_on_c, 0, 74, 78
1, 7872, Note_on_c, 1, 62, 64
1, 7906, Note_on_c, 1, 67, 0
1, 7908, Note_on_c, 1, 64, 78
1, 7920, Note_on_c, 1, 64, 0
1, 7920, Note_on_c, 1, 66, 78
1, 7954, Note_on_c, 1, 66, 0
1, 7956, Note_on_c, 1, 67, 78
1, 7961, Note_on_c, 0, 74, 0
1, 7968, Note_on_c, 1, 67, 0
1, 7968, Note_on_c, 1, 69, 78
1, 7984, Note_on_c, 0, 72, 78
1, 7999, Note_on_c, 0, 72, 0
1, 8000, Note_on_c, 0, 78, 78
1, 8015, Note_on_c, 0, 78, 0
1, 8016, Note_on_c, 0, 81, 78
1, 8031, Note_on_c, 0, 81, 0
1, 8032, Note_on_c, 0, 78, 78
1, 8047, Note_on_c, 0, 78, 0
1, 8048, Note_on_c, 0, 72, 78
1, 8063, Note_on_c, 0, 72, 0
1, 8064, Note_on_c, 0, 71, 78
1, 8084, Note_on_c, 0, 71, 0
1, 8098, Note_on_c, 1, 69, 0
1, 8100, Note_on_c, 1, 66, 78
1, 8112, Note_on_c, 1, 66, 0
1, 8112, Note_on_c, 1, 67, 78
1, 8146, Note_on_c, 1, 67, 0
1, 8148, Note_on_c, 1, 69, 78
1, 8160, Note_on_c, 1, 69, 0
1, 8160, Note_on_c, 1, 71, 78
1, 8176, Note_on_c, 0, 74, 78
1, 8191, Note_on_c, 0, 74, 0
1, 8192, Note_on_c, 0, 79, 78
1, 8207, Note_on_c, 0, 79, 0
1, 8208, Note_on_c, 0, 83, 78
1, 8223, Note_on_c, 0, 83, 0
1, 8224, Note_on_c, 0, 79, 78
1, 8239, Note_on_c, 0, 79, 0
1, 8240, Note_on_c, 0, 74, 78
1, 8255, Note_on_c, 0, 74, 0
1, 8256, Note_on_c, 0, 72, 78
1, 8276, Note_on_c, 0, 72, 0
1, 8290, Note_on_c, 1, 71, 0
1, 8292, Note_on_c, 1, 68, 78
1, 8304, Note_on_c, 1, 68, 0
1, 8304, Note_on_c, 1, 69, 78
1, 8338, Note_on_c, 1, 69, 0
1, 8340, Note_on_c, 1, 71, 78
1, 8352, Note_on_c, 1, 71, 0
1, 8352, Note_on_c, 1, 72, 78
1, 8368, Note_on_c, 0, 88, 78
1, 8383, Note_on_c, 0, 88, 0
1, 8384, Note_on_c, 0, 86, 78
1, 8397, Note_on_c, 1, 72, 0
1, 8397, Note_on_c, 1, 62, 0
1, 8399, Note_on_c, 0, 86, 0
1, 8400, Note_on_c, 0, 84, 78
1, 8415, Note_on_c, 0, 84, 0
1, 8416, Note_on_c, 0, 83, 78
1, 8431, Note_on_c, 0, 83, 0
1, 8432, Note_on_c, 0, 81, 78
1, 8447, Note_on_c, 0, 81, 0
1, 8448, Note_on_c, 0, 79, 78
1, 8463, Note_on_c, 0, 79, 0
1, 8464, Note_on_c, 0, 78, 78
1, 8479, Note_on_c, 0, 78, 0
1, 8480, Note_on_c, 0, 84, 78
1, 8495, Note_on_c, 0, 84, 0
1, 8496, Note_on_c, 0, 81, 78
1, 8511, Note_on_c, 0, 81, 0
1, 8512, Note_on_c, 0, 78, 78
1, 8527, Note_on_c, 0, 78, 0
1, 8528, Note_on_c, 0, 72, 78
1, 8543, Note_on_c, 0, 72, 0
1, 8544, Note_on_c, 0, 69, 78
1, 8559, Note_on_c, 0, 69, 0
1, 8560, Note_on_c, 0, 66, 78
1, 8575, Note_on_c, 0, 66, 0
1, 8576, Note_on_c, 0, 62, 78
1, 8591, Note_on_c, 0, 62, 0
1, 8592, Note_on_c, 1, 60, 64
1, 8607, Note_on_c, 1, 60, 0
1, 8608, Note_on_c, 1, 57, 64
1, 8623, Note_on_c, 1, 57, 0
1, 8624, Note_on_c, 1, 54, 64
1, 8639, Note_on_c, 1, 54, 0
1, 8640, Note_on_c, 1, 48, 64
1, 8660, Note_on_c, 1, 48, 0
1, 8784, Note_on_c, 0, 62, 78
1, 8799, Note_on_c, 0, 62, 0
1, 8800, Note_on_c, 0, 67, 78
1, 8815, Note_on_c, 0, 67, 0
1, 8816, Note_on_c, 0, 71, 78
1, 8831, Note_on_c, 0, 71, 0
1, 8832, Note_on_c, 0, 62, 78
1, 8847, Note_on_c, 0, 62, 0
1, 8848, Note_on_c, 0, 61, 78
1, 8863, Note_on_c, 0, 61, 0
1, 8864, Note_on_c, 0, 60, 78
1, 8879, Note_on_c, 0, 60, 0
1, 8880, Note_on_c, 0, 69, 94
1, 8880, Note_on_c, 1, 50, 78
1, 8925, Note_on_c, 1, 50, 0
1, 8928, Note_on_c, 1, 52, 78
1, 8943, Note_on_c, 0, 69, 0
1, 8944, Note_on_c, 0, 67, 78
1, 8959, Note_on_c, 0, 67, 0
1, 8960, Note_on_c, 0, 66, 78
1, 8973, Note_on_c, 1, 52, 0
1, 8975, Note_on_c, 0, 66, 0
1, 8976, Note_on_c, 0, 64, 78
1, 8976, Note_on_c, 1, 54, 78
1, 8991, Note_on_c, 0, 64, 0
1, 8992, Note_on_c, 0, 62, 78
1, 9007, Note_on_c, 0, 62, 0
1, 9008, Note_on_c, 0, 60, 78
1, 9021, Note_on_c, 1, 54, 0
1, 9023, Note_on_c, 0, 60, 0
1, 9024, Note_on_c, 0, 59, 78
1, 9024, Note_on_c, 1, 55, 78
1, 9039, Note_on_c, 0, 59, 0
1, 9040, Note_on_c, 0, 62, 78
1, 9055, Note_on_c, 0, 62, 0
1, 9056, Note_on_c, 0, 67, 78
1, 9071, Note_on_c, 0, 67, 0
1, 9072, Note_on_c, 0, 62, 78
1, 9087, Note_on_c, 0, 62, 0
1, 9088, Note_on_c, 0, 67, 78
1, 9103, Note_on_c, 0, 67, 0
1, 9104, Note_on_c, 0, 71, 78
1, 9113, Note_on_c, 1, 55, 0
1, 9119, Note_on_c, 0, 71, 0
1, 9120, Note_on_c, 0, 74, 78
1, 9140, Note_on_c, 0, 74, 0
1, 9168, Note_on_c, 0, 62, 78
1, 9183, Note_on_c, 0, 62, 0
1, 9184, Note_on_c, 0, 67, 78
1, 9199, Note_on_c, 0, 67, 0
1, 9200, Note_on_c, 0, 71, 78
1, 9215, Note_on_c, 0, 71, 0
1, 9216, Note_on_c, 0, 62, 78
1, 9231, Note_on_c, 0, 62, 0
1, 9232, Note_on_c, 0, 61, 78
1, 9247, Note_on_c, 0, 61, 0
1, 9248, Note_on_c, 0, 60, 78
1, 9263, Note_on_c, 0, 60, 0
1, 9264, Note_on_c, 0, 69, 94
1, 9264, Note_on_c, 1, 50, 78
1, 9309, Note_on_c, 1, 50, 0
1, 9312, Note_on_c, 1, 52, 78
1, 9327, Note_on_c, 0, 69, 0
1, 9328, Note_on_c, 0, 67, 78
1, 9343, Note_on_c, 0, 67, 0
1, 9344, Note_on_c, 0, 66, 78
1, 9357, Note_on_c, 1, 52, 0
1, 9359, Note_on_c, 0, 66, 0
1, 9360, Note_on_c, 0, 64, 78
1, 9360, Note_on_c, 1, 54, 78
1, 9375, Note_on_c, 0, 64, 0
1, 9376, Note_on_c, 0, 62, 78
1, 9391, Note_on_c, 0, 62, 0
1, 9392, Note_on_c, 0, 60, 78
1, 9405, Note_on_c, 1, 54, 0
1, 9407, Note_on_c, 0, 60, 0
1, 9408, Note_on_c, 0, 59, 78
1, 9408, Note_on_c, 1, 55, 78
1, 9423, Note_on_c, 0, 59, 0
1, 9424, Note_on_c, 0, 62, 78
1, 9439, Note_on_c, 0, 62, 0
1, 9440, Note_on_c, 0, 67, 78
1, 9455, Note_on_c, 0, 67, 0
1, 9456, Note_on_c, 0, 62, 78
1, 9471, Note_on_c, 0, 62, 0
1, 9472, Note_on_c, 0, 67, 78
1, 9487, Note_on_c, 0, 67, 0
1, 9488, Note_on_c, 0, 71, 78
1, 9497, Note_on_c, 1, 55, 0
1, 9503, Note_on_c, 0, 71, 0
1, 9504, Note_on_c, 0, 74, 78
1, 9519, Note_on_c, 0, 74, 0
1, 9520, Note_on_c, 0, 72, 78
1, 9535, Note_on_c, 0, 72, 0
1, 9536, Note_on_c, 0, 71, 78
1, 9551, Note_on_c, 0, 71, 0
1, 9552, Note_on_c, 0, 69, 78
1, 9552, Note_on_c, 1, 47, 78
1, 9567, Note_on_c, 0, 69, 0
1, 9568, Note_on_c, 0, 67, 78
1, 9583, Note_on_c, 0, 67, 0
1, 9584, Note_on_c, 0, 66, 78
1, 9597, Note_on_c, 1, 47, 0
1, 9599, Note_on_c, 0, 66, 0
1, 9600, Note_on_c, 0, 64, 78
1, 9600, Note_on_c, 1, 48, 64
1, 9615, Note_on_c, 0, 64, 0
1, 9616, Note_on_c, 0, 75, 78
1, 9631, Note_on_c, 0, 75, 0
1, 9632, Note_on_c, 0, 76, 78
1, 9647, Note_on_c, 0, 76, 0
1, 9648, Note_on_c, 0, 74, 78
1, 9648, Note_on_c, 1, 60, 78
1, 9660, Note_on_c, 0, 74, 0
1, 9660, Note_on_c, 0, 72, 78
1, 9671, Note_on_c, 0, 72, 0
1, 9672, Note_on_c, 0, 71, 78
1, 9684, Note_on_c, 0, 71, 0
1, 9684, Note_on_c, 0, 69, 78
1, 9689, Note_on_c, 1, 48, 0
1, 9693, Note_on_c, 1, 60, 0
1, 9696, Note_on_c, 0, 69, 0
1, 9696, Note_on_c, 0, 67, 78
1, 9696, Note_on_c, 1, 59, 78
1, 9696, Note_on_c, 1, 50, 64
1, 9741, Note_on_c, 0, 67, 0
1, 9741, Note_on_c, 1, 59, 0
1, 9744, Note_on_c, 0, 66, 78
1, 9744, Note_on_c, 0, 62, 78
1, 9744, Note_on_c, 1, 57, 78
1, 9785, Note_on_c, 1, 50, 0
1, 9789, Note_on_c, 0, 66, 0
1, 9789, Note_on_c, 0, 62, 0
1, 9789, Note_on_c, 1, 57, 0
1, 9792, Note_on_c, 0, 66, 78
1, 9792, Note_on_c, 0, 60, 64
1, 9792, Note_on_c, 1, 57, 78
1, 9792, Note_on_c, 1, 52, 78
1, 9888, Note_on_c, 0, 66, 0
1, 9888, Note_on_c, 0, 67, 78
1, 9888, Note_on_c, 0, 60, 0
1, 9888, Note_on_c, 0, 59, 64
1, 9888, Note_on_c, 1, 57, 0
1, 9888, Note_on_c, 1, 55, 78
1, 9933, Note_on_c, 0, 59, 0
1, 9933, Note_on_c, 1, 55, 0
1, 9933, Note_on_c, 1, 52, 0
1, 9935, Note_on_c, 0, 67, 0
1, 9936, Note_on_c, 0, 74, 78
1, 9951, Note_on_c, 0, 74, 0
1, 9952, Note_on_c, 0, 79, 78
1, 9967, Note_on_c, 0, 79, 0
1, 9968, Note_on_c, 0, 83, 78
1, 9983, Note_on_c, 0, 83, 0
1, 9984, Note_on_c, 0, 74, 78
1, 9999, Note_on_c, 0, 74, 0
1, 10000, Note_on_c, 0, 73, 78
1, 10015, Note_on_c, 0, 73, 0
1, 10016, Note_on_c, 0, 72, 78
1, 10031, Note_on_c, 0, 72, 0
1, 10032, Note_on_c, 0, 81, 94
1, 10032, Note_on_c, 1, 62, 78
1, 10077, Note_on_c, 1, 62, 0
1, 10080, Note_on_c, 1, 64, 78
1, 10095, Note_on_c, 0, 81, 0
1, 10096, Note_on_c, 0, 79, 78
1, 10111, Note_on_c, 0, 79, 0
1, 10112, Note_on_c, 0, 78, 78
1, 10125, Note_on_c, 1, 64, 0
1, 10127, Note_on_c, 0, 78, 0
1, 10128, Note_on_c, 0, 76, 78
1, 10128, Note_on_c, 1, 66, 78
1, 10143, Note_on_c, 0, 76, 0
1, 10144, Note_on_c, 0, 74, 78
1, 10159, Note_on_c, 0, 74, 0
1, 10160, Note_on_c, 0, 72, 78
1, 10173, Note_on_c, 1, 66, 0
1, 10175, Note_on_c, 0, 72, 0
1, 10176, Note_on_c, 0, 71, 78
1, 10176, Note_on_c, 1, 67, 78
1, 10191, Note_on_c, 0, 71, 0
1, 10192, Note_on_c, 0, 74, 78
1, 10207, Note_on_c, 0, 74, 0
1, 10208, Note_on_c, 0, 79, 78
1, 10223, Note_on_c, 0, 79, 0
1, 10224, Note_on_c, 0, 74, 78
1, 10239, Note_on_c, 0, 74, 0
1, 10240, Note_on_c, 0, 79, 78
1, 10255, Note_on_c, 0, 79, 0
1, 10256, Note_on_c, 0, 83, 78
1, 10265, Note_on_c, 1, 67, 0
1, 10271, Note_on_c, 0, 83, 0
1, 10272, Note_on_c, 0, 86, 78
1, 10292, Note_on_c, 0, 86, 0
1, 10320, Note_on_c, 0, 74, 78
1, 10335, Note_on_c, 0, 74, 0
1, 10336, Note_on_c, 0, 79, 78
1, 10351, Note_on_c, 0, 79, 0
1, 10352, Note_on_c, 0, 83, 78
1, 10367, Note_on_c, 0, 83, 0
1, 10368, Note_on_c, 0, 74, 78
1, 10383, Note_on_c, 0, 74, 0
1, 10384, Note_on_c, 0, 73, 78
1, 10399, Note_on_c, 0, 73, 0
1, 10400, Note_on_c, 0, 72, 78
1, 10415, Note_on_c, 0, 72, 0
1, 10416, Note_on_c, 0, 81, 94
1, 10416, Note_on_c, 1, 62, 78
1, 10461, Note_on_c, 1, 62, 0
1, 10464, Note_on_c, 1, 64, 78
1, 10479, Note_on_c, 0, 81, 0
1, 10480, Note_on_c, 0, 79, 78
1, 10495, Note_on_c, 0, 79, 0
1, 10496, Note_on_c, 0, 78, 78
1, 10509, Note_on_c, 1, 64, 0
1, 10511, Note_on_c, 0, 78, 0
1, 10512, Note_on_c, 0, 76, 78
1, 10512, Note_on_c, 1, 66, 78
1, 10527, Note_on_c, 0, 76, 0
1, 10528, Note_on_c, 0, 74, 78
1, 10543, Note_on_c, 0, 74, 0
1, 10544, Note_on_c, 0, 72, 78
1, 10557, Note_on_c, 1, 66, 0
1, 10559, Note_on_c, 0, 72, 0
1, 10560, Note_on_c, 0, 71, 78
1, 10560, Note_on_c, 1, 67, 78
1, 10575, Note_on_c, 0, 71, 0
1, 10576, Note_on_c, 0, 78, 78
1, 10591, Note_on_c, 0, 78, 0
1, 10592, Note_on_c, 0, 79, 78
1, 10607, Note_on_c, 0, 79, 0
1, 10608, Note_on_c, 0, 75, 78
1, 10623, Note_on_c, 0, 75, 0
1, 10624, Note_on_c, 0, 76, 78
1, 10639, Note_on_c, 0, 76, 0
1, 10640, Note_on_c, 0, 73, 78
1, 10649, Note_on_c, 1, 67, 0
1, 10655, Note_on_c, 0, 73, 0
1, 10656, Note_on_c, 0, 74, 78
1, 10671, Note_on_c, 0, 74, 0
1, 10672, Note_on_c, 0, 71, 78
1, 10687, Note_on_c, 0, 71, 0
1, 10688, Note_on_c, 0, 72, 78
1, 10703, Note_on_c, 0, 72, 0
1, 10704, Note_on_c, 0, 76, 78
1, 10719, Note_on_c, 0, 76, 0
1, 10720, Note_on_c, 0, 72, 78
1, 10735, Note_on_c, 0, 72, 0
1, 10736, Note_on_c, 0, 69, 78
1, 10751, Note_on_c, 0, 69, 0
1, 10752, Note_on_c, 0, 67, 78
1, 10800, Note_on_c, 1, 47, 78
1, 10841, Note_on_c, 0, 67, 0
1, 10845, Note_on_c, 1, 47, 0
1, 10848, Note_on_c, 0, 67, 78
1, 10848, Note_on_c, 1, 48, 78
1, 10856, Note_on_c, 0, 67, 0
1, 10856, Note_on_c, 0, 69, 78
1, 10864, Note_on_c, 0, 69, 0
1, 10864, Note_on_c, 0, 71, 78
1, 10872, Note_on_c, 0, 71, 0
1, 10872, Note_on_c, 0, 69, 78
1, 10880, Note_on_c, 0, 69, 0
1, 10880, Note_on_c, 0, 71, 78
1, 10888, Note_on_c, 0, 71, 0
1, 10888, Note_on_c, 0, 69, 78
1, 10893, Note_on_c, 1, 48, 0
1, 10896, Note_on_c, 0, 69, 0
1, 10896, Note_on_c, 0, 71, 78
1, 10896, Note_on_c, 1, 50, 78
1, 10904, Note_on_c, 0, 71, 0
1, 10904, Note_on_c, 0, 69, 78
1, 10912, Note_on_c, 0, 69, 0
1, 10912, Note_on_c, 0, 71, 78
1, 10920, Note_on_c, 0, 71, 0
1, 10920, Note_on_c, 0, 69, 78
1, 10928, Note_on_c, 0, 69, 0
1, 10928, Note_on_c, 0, 67, 78
1, 10936, Note_on_c, 0, 67, 0
1, 10936, Note_on_c, 0, 69, 78
1, 10941, Note_on_c, 1, 50, 0
1, 10944, Note_on_c, 0, 69, 0
1, 10944, Note_on_c, 0, 67, 78
1, 10944, Note_on_c, 1, 43, 78
1, 10959, Note_on_c, 1, 43, 0
1, 10960, Note_on_c, 1, 47, 78
1, 10975, Note_on_c, 1, 47, 0
1, 10976, Note_on_c, 1, 50, 78
1, 10991, Note_on_c, 1, 50, 0
1, 10992, Note_on_c, 1, 55, 78
1, 11007, Note_on_c, 1, 55, 0
1, 11008, Note_on_c, 1, 59, 78
1, 11023, Note_on_c, 1, 59, 0
1, 11024, Note_on_c, 1, 55, 78
1, 11033, Note_on_c, 0, 67, 0
1, 11039, Note_on_c, 1, 55, 0
1, 11040, Note_on_c, 1, 43, 78
1, 11085, Note_on_c, 1, 43, 0
1, 11088, Note_on_c, 0, 72, 78
1, 11122, Note_on_c, 0, 72, 0
1, 11124, Note_on_c, 0, 76, 78
1, 11136, Note_on_c, 0, 76, 0
1, 11136, Note_on_c, 0, 79, 78
1, 11170, Note_on_c, 0, 79, 0
1, 11172, Note_on_c, 0, 76, 80
1, 11184, Note_on_c, 0, 76, 0
1, 11184, Note_on_c, 0, 84, 97
1, 11184, Note_on_c, 1, 48, 78
1, 11229, Note_on_c, 1, 48, 0
1, 11232, Note_on_c, 1, 60, 78
1, 11266, Note_on_c, 0, 84, 0
1, 11268, Note_on_c, 0, 83, 82
1, 11277, Note_on_c, 1, 60, 0
1, 11280, Note_on_c, 0, 83, 0
1, 11280, Note_on_c, 0, 81, 81
1, 11280, Note_on_c, 1, 64, 78
1, 11314, Note_on_c, 0, 81, 0
1, 11316, Note_on_c, 0, 79, 78
1, 11325, Note_on_c, 1, 64, 0
1, 11328, Note_on_c, 0, 79, 0
1, 11328, Note_on_c, 0, 79, 78
1, 11328, Note_on_c, 1, 62, 78
1, 11373, Note_on_c, 1, 62, 0
1, 11376, Note_on_c, 1, 50, 78
1, 11417, Note_on_c, 0, 79, 0
1, 11421, Note_on_c, 1, 50, 0
1, 11424, Note_on_c, 0, 77, 78
1, 11424, Note_on_c, 1, 62, 78
1, 11430, Note_on_c, 0, 77, 0
1, 11430, Note_on_c, 0, 79, 78
1, 11436, Note_on_c, 0, 79, 0
1, 11436, Note_on_c, 0, 77, 78
1, 11458, Note_on_c, 0, 77, 0
1, 11460, Note_on_c, 0, 76, 78
1, 11469, Note_on_c, 1, 62, 0
1, 11472, Note_on_c, 0, 76, 0
1, 11472, Note_on_c, 0, 74, 78
1, 11472, Note_on_c, 1, 65, 78
1, 11478, Note_on_c, 0, 74, 0
1, 11478, Note_on_c, 0, 76, 78
1, 11484, Note_on_c, 0, 76, 0
1, 11484, Note_on_c, 0, 74, 78
1, 11506, Note_on_c, 0, 74, 0
1, 11508, Note_on_c, 0, 72, 78
1, 11517, Note_on_c, 1, 65, 0
1, 11520, Note_on_c, 0, 72, 0
1, 11520, Note_on_c, 0, 72, 78
1, 11520, Note_on_c, 1, 67, 78
1, 11565, Note_on_c, 1, 67, 0
1, 11568, Note_on_c, 1, 55, 78
1, 11613, Note_on_c, 1, 55, 0
1, 11616, Note_on_c, 0, 72, 0
1, 11616, Note_on_c, 0, 71, 78
1, 11622, Note_on_c, 0, 71, 0
1, 11622, Note_on_c, 0, 72, 78
1, 11628, Note_on_c, 0, 72, 0
1, 11628, Note_on_c, 0, 71, 78
1, 11650, Note_on_c, 0, 71, 0
1, 11652, Note_on_c, 0, 81, 78
1, 11664, Note_on_c, 0, 81, 0
1, 11664, Note_on_c, 0, 79, 78
1, 11664, Note_on_c, 1, 59, 78
1, 11698, Note_on_c, 0, 79, 0
1, 11700, Note_on_c, 0, 77, 78
1, 11709, Note_on_c, 1, 59, 0
1, 11712, Note_on_c, 0, 77, 0
1, 11712, Note_on_c, 0, 77, 78
1, 11712, Note_on_c, 1, 60, 78
1, 11757, Note_on_c, 1, 60, 0
1, 11760, Note_on_c, 1, 48, 78
1, 11801, Note_on_c, 0, 77, 0
1, 11805, Note_on_c, 1, 48, 0
1, 11808, Note_on_c, 0, 77, 78
1, 11814, Note_on_c, 0, 77, 0
1, 11814, Note_on_c, 0, 76, 78
1, 11820, Note_on_c, 0, 76, 0
1, 11820, Note_on_c, 0, 74, 78
1, 11826, Note_on_c, 0, 74, 0
1, 11826, Note_on_c, 0, 76, 78
1, 11842, Note_on_c, 0, 76, 0
1, 11844, Note_on_c, 0, 79, 78
1, 11856, Note_on_c, 0, 79, 0
1, 11856, Note_on_c, 0, 72, 78
1, 11856, Note_on_c, 1, 52, 78
1, 11890, Note_on_c, 0, 72, 0
1, 11892, Note_on_c, 0, 76, 78
1, 11901, Note_on_c, 1, 52, 0
1, 11904, Note_on_c, 0, 76, 0
1, 11904, Note_on_c, 0, 69, 78
1, 11904, Note_on_c, 1, 53, 78
1, 11938, Note_on_c, 0, 69, 0
1, 11940, Note_on_c, 0, 73, 78
1, 11949, Note_on_c, 1, 53, 0
1, 11952, Note_on_c, 0, 73, 0
1, 11952, Note_on_c, 0, 74, 78
1, 11952, Note_on_c, 1, 41, 78
1, 11958, Note_on_c, 0, 74, 0
1, 11958, Note_on_c, 0, 73, 78
1, 11964, Note_on_c, 0, 73, 0
1, 11964, Note_on_c, 0, 74, 78
1, 11986, Note_on_c, 0, 74, 0
1, 11988, Note_on_c, 0, 77, 78
1, 11997, Note_on_c, 1, 41, 0
1, 12000, Note_on_c, 0, 77, 0
1, 12000, Note_on_c, 0, 76, 78
1, 12034, Note_on_c, 0, 76, 0
1, 12036, Note_on_c, 0, 79, 78
1, 12048, Note_on_c, 0, 79, 0
1, 12048, Note_on_c, 0, 71, 78
1, 12048, Note_on_c, 1, 65, 78
1, 12048, Note_on_c, 1, 55, 78
1, 12082, Note_on_c, 0, 71, 0
1, 12084, Note_on_c, 0, 74, 78
1, 12093, Note_on_c, 1, 65, 0
1, 12093, Note_on_c, 1, 55, 0
1, 12096, Note_on_c, 0, 74, 0
1, 12096, Note_on_c, 0, 72, 78
1, 12132, Note_on_c, 1, 48, 78
1, 12135, Note_on_c, 0, 72, 0
1, 12144, Note_on_c, 1, 48, 0
1, 12144, Note_on_c, 1, 52, 78
1, 12178, Note_on_c, 1, 52, 0
1, 12180, Note_on_c, 1, 55, 78
1, 12192, Note_on_c, 1, 55, 0
1, 12192, Note_on_c, 1, 60, 78
1, 12212, Note_on_c, 1, 60, 0
1, 12240, Note_on_c, 0, 60, 78
1, 12274, Note_on_c, 0, 60, 0
1, 12276, Note_on_c, 0, 64, 80
1, 12288, Note_on_c, 0, 64, 0
1, 12288, Note_on_c, 0, 67, 81
1, 12322, Note_on_c, 0, 67, 0
1, 12324, Note_on_c, 0, 64, 84
1, 12336, Note_on_c, 0, 64, 0
1, 12336, Note_on_c, 0, 72, 101
1, 12336, Note_on_c, 1, 36, 78
1, 12381, Note_on_c, 1, 36, 0
1, 12384, Note_on_c, 1, 48, 78
1, 12418, Note_on_c, 0, 72, 0
1, 12420, Note_on_c, 0, 71, 80
1, 12429, Note_on_c, 1, 48, 0
1, 12432, Note_on_c, 0, 71, 0
1, 12432, Note_on_c, 0, 69, 80
1, 12432, Note_on_c, 1, 52, 78
1, 12466, Note_on_c, 0, 69, 0
1, 12468, Note_on_c, 0, 67, 78
1, 12477, Note_on_c, 1, 52, 0
1, 12480, Note_on_c, 0, 67, 0
1, 12480, Note_on_c, 0, 67, 78
1, 12480, Note_on_c, 1, 50, 78
1, 12525, Note_on_c, 1, 50, 0
1, 12528, Note_on_c, 1, 38, 78
1, 12569, Note_on_c, 0, 67, 0
1, 12573, Note_on_c, 1, 38, 0
1, 12576, Note_on_c, 0, 65, 78
1, 12576, Note_on_c, 1, 50, 78
1, 12582, Note_on_c, 0, 65, 0
1, 12582, Note_on_c, 0, 67, 78
1, 12588, Note_on_c, 0, 67, 0
1, 12588, Note_on_c, 0, 65, 78
1, 12610, Note_on_c, 0, 65, 0
1, 12612, Note_on_c, 0, 64, 78
1, 12621, Note_on_c, 1, 50, 0
1, 12624, Note_on_c, 0, 64, 0
1, 12624, Note_on_c, 0, 62, 78
1, 12624, Note_on_c, 1, 53, 78
1, 12630, Note_on_c, 0, 62, 0
1, 12630, Note_on_c, 0, 64, 78
1, 12636, Note_on_c, 0, 64, 0
1, 12636, Note_on_c, 0, 62, 78
1, 12658, Note_on_c, 0, 62, 0
1, 12660, Note_on_c, 0, 60, 78
1, 12669, Note_on_c, 1, 53, 0
1, 12672, Note_on_c, 0, 60, 0
1, 12672, Note_on_c, 0, 60, 78
1, 12672, Note_on_c, 1, 55, 78
1, 12717, Note_on_c, 1, 55, 0
1, 12720, Note_on_c, 1, 43, 78
1, 12765, Note_on_c, 1, 43, 0
1, 12768, Note_on_c, 0, 60, 0
1, 12768, Note_on_c, 0, 59, 78
1, 12783, Note_on_c, 0, 59, 0
1, 12784, Note_on_c, 0, 62, 78
1, 12799, Note_on_c, 0, 62, 0
1, 12800, Note_on_c, 0, 65, 78
1, 12815, Note_on_c, 0, 65, 0
1, 12816, Note_on_c, 0, 69, 78
1, 12816, Note_on_c, 1, 47, 78
1, 12831, Note_on_c, 0, 69, 0
1, 12832, Note_on_c, 0, 67, 78
1, 12847, Note_on_c, 0, 67, 0
1, 12848, Note_on_c, 0, 65, 78
1, 12861, Note_on_c, 1, 47, 0
1, 12863, Note_on_c, 0, 65, 0
1, 12864, Note_on_c, 0, 65, 78
1, 12900, Note_on_c, 1, 36, 78
1, 12912, Note_on_c, 1, 36, 0
1, 12912, Note_on_c, 1, 48, 78
1, 12946, Note_on_c, 1, 48, 0
1, 12948, Note_on_c, 1, 47, 78
1, 12960, Note_on_c, 0, 65, 0
1, 12960, Note_on_c, 0, 64, 78
1, 12960, Note_on_c, 1, 47, 0
1, 12960, Note_on_c, 1, 48, 78
1, 12966, Note_on_c, 0, 64, 0
1, 12966, Note_on_c, 0, 65, 78
1, 12972, Note_on_c, 0, 65, 0
1, 12972, Note_on_c, 0, 64, 78
1, 12975, Note_on_c, 1, 48, 0
1, 12996, Note_on_c, 1, 48, 78
1, 13007, Note_on_c, 0, 64, 0
1, 13008, Note_on_c, 1, 48, 0
1, 13008, Note_on_c, 1, 52, 78
1, 13042, Note_on_c, 1, 52, 0
1, 13044, Note_on_c, 1, 55, 78
1, 13056, Note_on_c, 1, 55, 0
1, 13056, Note_on_c, 1, 58, 78
1, 13092, Note_on_c, 0, 60, 78
1, 13104, Note_on_c, 0, 60, 0
1, 13104, Note_on_c, 0, 64, 78
1, 13138, Note_on_c, 0, 64, 0
1, 13140, Note_on_c, 0, 67, 80
1, 13152, Note_on_c, 0, 67, 0
1, 13152, Note_on_c, 0, 72, 80
1, 13186, Note_on_c, 0, 72, 0
1, 13188, Note_on_c, 0, 67, 82
1, 13188, Note_on_c, 0, 64, 82
1, 13200, Note_on_c, 0, 67, 0
1, 13200, Note_on_c, 0, 64, 0
1, 13200, Note_on_c, 0, 67, 83
1, 13200, Note_on_c, 0, 64, 83
1, 13233, Note_on_c, 1, 58, 0
1, 13234, Note_on_c, 0, 67, 0
1, 13234, Note_on_c, 0, 64, 0
1, 13236, Note_on_c, 0, 67, 85
1, 13236, Note_on_c, 0, 64, 85
1, 13248, Note_on_c, 0, 67, 0
1, 13248, Note_on_c, 0, 64, 0
1, 13248, Note_on_c, 0, 67, 84
1, 13248, Note_on_c, 0, 64, 84
1, 13284, Note_on_c, 1, 36, 78
1, 13296, Note_on_c, 1, 36, 0
1, 13296, Note_on_c, 1, 48, 78
1, 13330, Note_on_c, 1, 48, 0
1, 13332, Note_on_c, 1, 47, 78
1, 13344, Note_on_c, 0, 67, 0
1, 13344, Note_on_c, 0, 64, 0
1, 13344, Note_on_c, 0, 69, 80
1, 13344, Note_on_c, 0, 65, 80
1, 13344, Note_on_c, 1, 47, 0
1, 13344, Note_on_c, 1, 48, 79
1, 13359, Note_on_c, 1, 48, 0
1, 13380, Note_on_c, 1, 48, 79
1, 13389, Note_on_c, 0, 69, 0
1, 13389, Note_on_c, 0, 65, 0
1, 13392, Note_on_c, 1, 48, 0
1, 13392, Note_on_c, 1, 53, 80
1, 13426, Note_on_c, 1, 53, 0
1, 13428, Note_on_c, 1, 57, 80
1, 13440, Note_on_c, 1, 57, 0
1, 13440, Note_on_c, 1, 60, 81
1, 13476, Note_on_c, 0, 65, 78
1, 13488, Note_on_c, 0, 65, 0
1, 13488, Note_on_c, 0, 77, 78
1, 13488, Note_on_c, 0, 69, 78
1, 13522, Note_on_c, 0, 77, 0
1, 13522, Note_on_c, 0, 69, 0
1, 13524, Note_on_c, 0, 77, 80
1, 13524, Note_on_c, 0, 69, 80
1, 13536, Note_on_c, 0, 77, 0
1, 13536, Note_on_c, 0, 69, 0
1, 13536, Note_on_c, 0, 77, 80
1, 13536, Note_on_c, 0, 69, 80
1, 13570, Note_on_c, 0, 77, 0
1, 13570, Note_on_c, 0, 69, 0
1, 13572, Note_on_c, 0, 72, 82
1, 13572, Note_on_c, 0, 69, 82
1, 13584, Note_on_c, 0, 72, 0
1, 13584, Note_on_c, 0, 69, 0
1, 13584, Note_on_c, 0, 70, 83
1, 13584, Note_on_c, 0, 67, 83
1, 13617, Note_on_c, 1, 60, 0
1, 13618, Note_on_c, 0, 70, 0
1, 13618, Note_on_c, 0, 67, 0
1, 13620, Note_on_c, 0, 69, 85
1, 13620, Note_on_c, 0, 65, 85
1, 13632, Note_on_c, 0, 69, 0
1, 13632, Note_on_c, 0, 65, 0
1, 13632, Note_on_c, 0, 69, 84
1, 13632, Note_on_c, 0, 65, 84
1, 13668, Note_on_c, 1, 36, 78
1, 13680, Note_on_c, 1, 36, 0
1, 13680, Note_on_c, 1, 48, 78
1, 13714, Note_on_c, 1, 48, 0
1, 13716, Note_on_c, 1, 47, 79
1, 13728, Note_on_c, 0, 69, 0
1, 13728, Note_on_c, 0, 65, 0
1, 13728, Note_on_c, 0, 67, 80
1, 13728, Note_on_c, 0, 64, 80
1, 13728, Note_on_c, 1, 47, 0
1, 13728, Note_on_c, 1, 48, 79
1, 13743, Note_on_c, 1, 48, 0
1, 13764, Note_on_c, 1, 48, 80
1, 13773, Note_on_c, 0, 67, 0
1, 13773, Note_on_c, 0, 64, 0
1, 13776, Note_on_c, 1, 48, 0
1, 13776, Note_on_c, 1, 52, 81
1, 13810, Note_on_c, 1, 52, 0
1, 13812, Note_on_c, 1, 55, 82
1, 13824, Note_on_c, 1, 55, 0
1, 13824, Note_on_c, 1, 60, 82
1, 13860, Note_on_c, 0, 67, 78
1, 13872, Note_on_c, 0, 67, 0
1, 13872, Note_on_c, 0, 76, 78
1, 13906, Note_on_c, 0, 76, 0
1, 13908, Note_on_c, 0, 74, 78
1, 13913, Note_on_c, 1, 60, 0
1, 13920, Note_on_c, 0, 74, 0
1, 13920, Note_on_c, 0, 72, 78
1, 13954, Note_on_c, 0, 72, 0
1, 13956, Note_on_c, 0, 71, 78
1, 13968, Note_on_c, 0, 71, 0
1, 13968, Note_on_c, 0, 69, 78
1, 13968, Note_on_c, 1, 60, 78
1, 14002, Note_on_c, 0, 69, 0
1, 14004, Note_on_c, 0, 67, 78
1, 14013, Note_on_c, 1, 60, 0
1, 14016, Note_on_c, 0, 67, 0
1, 14016, Note_on_c, 0, 67, 78
1, 14016, Note_on_c, 1, 62, 78
1, 14050, Note_on_c, 0, 67, 0
1, 14052, Note_on_c, 0, 66, 78
1, 14061, Note_on_c, 1, 62, 0
1, 14064, Note_on_c, 0, 66, 0
1, 14064, Note_on_c, 0, 74, 78
1, 14064, Note_on_c, 1, 59, 78
1, 14098, Note_on_c, 0, 74, 0
1, 14100, Note_on_c, 0, 65, 78
1, 14109, Note_on_c, 1, 59, 0
1, 14112, Note_on_c, 0, 65, 0
1, 14112, Note_on_c, 0, 65, 78
1, 14112, Note_on_c, 1, 60, 78
1, 14146, Note_on_c, 0, 65, 0
1, 14148, Note_on_c, 0, 64, 78
1, 14157, Note_on_c, 1, 60, 0
1, 14160, Note_on_c, 0, 64, 0
1, 14160, Note_on_c, 0, 72, 78
1, 14194, Note_on_c, 0, 72, 0
1, 14196, Note_on_c, 0, 61, 85
1, 14196, Note_on_c, 1, 49, 85
1, 14208, Note_on_c, 0, 61, 0
1, 14208, Note_on_c, 0, 62, 85
1, 14208, Note_on_c, 1, 49, 0
1, 14208, Note_on_c, 1, 50, 85
1, 14223, Note_on_c, 0, 62, 0
1, 14223, Note_on_c, 1, 50, 0
1, 14244, Note_on_c, 0, 64, 85
1, 14244, Note_on_c, 1, 52, 85
1, 14256, Note_on_c, 0, 64, 0
1, 14256, Note_on_c, 0, 65, 85
1, 14256, Note_on_c, 1, 52, 0
1, 14256, Note_on_c, 1, 53, 85
1, 14271, Note_on_c, 0, 65, 0
1, 14271, Note_on_c, 1, 53, 0
1, 14292, Note_on_c, 0, 66, 85
1, 14292, Note_on_c, 1, 54, 85
1, 14304, Note_on_c, 0, 66, 0
1, 14304, Note_on_c, 0, 67, 85
1, 14304, Note_on_c, 1, 54, 0
1, 14304, Note_on_c, 1, 55, 85
1, 14319, Note_on_c, 0, 67, 0
1, 14319, Note_on_c, 1, 55, 0
1, 14340, Note_on_c, 0, 68, 85
1, 14340, Note_on_c, 1, 56, 85
1, 14352, Note_on_c, 0, 68, 0
1, 14352, Note_on_c, 0, 69, 85
1, 14352, Note_on_c, 1, 56, 0
1, 14352, Note_on_c, 1, 57, 85
1, 14367, Note_on_c, 0, 69, 0
1, 14367, Note_on_c, 1, 57, 0
1, 14388, Note_on_c, 0, 65, 85
1, 14388, Note_on_c, 0, 62, 85
1, 14388, Note_on_c, 1, 53, 85
1, 14400, Note_on_c, 0, 65, 0
1, 14400, Note_on_c, 0, 62, 0
1, 14400, Note_on_c, 0, 64, 85
1, 14400, Note_on_c, 0, 60, 85
1, 14400, Note_on_c, 1, 53, 0
1, 14400, Note_on_c, 1, 55, 85
1, 14489, Note_on_c, 1, 55, 0
1, 14496, Note_on_c, 0, 64, 0
1, 14496, Note_on_c, 0, 60, 0
1, 14496, Note_on_c, 0, 62, 85
1, 14496, Note_on_c, 0, 59, 85
1, 14496, Note_on_c, 1, 43, 85
1, 14516, Note_on_c, 0, 62, 0
1, 14516, Note_on_c, 0, 59, 0
1, 14541, Note_on_c, 1, 43, 0
1, 14544, Note_on_c, 0, 71, 78
1, 14578, Note_on_c, 0, 71, 0
1, 14580, Note_on_c, 0, 74, 78
1, 14592, Note_on_c, 0, 74, 0
1, 14592, Note_on_c, 0, 79, 78
1, 14626, Note_on_c, 0, 79, 0
1, 14628, Note_on_c, 0, 74, 78
1, 14640, Note_on_c, 0, 74, 0
1, 14640, Note_on_c, 0, 83, 94
1, 14640, Note_on_c, 1, 59, 78
1, 14640, Note_on_c, 1, 55, 78
1, 14685, Note_on_c, 1, 59, 0
1, 14685, Note_on_c, 1, 55, 0
1, 14688, Note_on_c, 1, 71, 78
1, 14688, Note_on_c, 1, 67, 78
1, 14703, Note_on_c, 0, 83, 0
1, 14704, Note_on_c, 0, 78, 78
1, 14719, Note_on_c, 0, 78, 0
1, 14720, Note_on_c, 0, 79, 78
1, 14733, Note_on_c, 1, 71, 0
1, 14733, Note_on_c, 1, 67, 0
1, 14735, Note_on_c, 0, 79, 0
1, 14736, Note_on_c, 0, 83, 78
1, 14751, Note_on_c, 0, 83, 0
1, 14752, Note_on_c, 0, 79, 78
1, 14767, Note_on_c, 0, 79, 0
1, 14768, Note_on_c, 0, 76, 78
1, 14783, Note_on_c, 0, 76, 0
1, 14784, Note_on_c, 0, 74, 78
1, 14829, Note_on_c, 0, 74, 0
1, 14832, Note_on_c, 0, 72, 78
1, 14832, Note_on_c, 1, 60, 78
1, 14832, Note_on_c, 1, 57, 78
1, 14838, Note_on_c, 0, 72, 0
1, 14838, Note_on_c, 0, 74, 78
1, 14844, Note_on_c, 0, 74, 0
1, 14844, Note_on_c, 0, 72, 78
1, 14877, Note_on_c, 1, 60, 0
1, 14877, Note_on_c, 1, 57, 0
1, 14879, Note_on_c, 0, 72, 0
1, 14880, Note_on_c, 1, 72, 78
1, 14880, Note_on_c, 1, 69, 78
1, 14925, Note_on_c, 1, 72, 0
1, 14925, Note_on_c, 1, 69, 0
1, 14928, Note_on_c, 0, 72, 78
1, 14962, Note_on_c, 0, 72, 0
1, 14964, Note_on_c, 0, 78, 78
1, 14976, Note_on_c, 0, 78, 0
1, 14976, Note_on_c, 0, 81, 78
1, 15010, Note_on_c, 0, 81, 0
1, 15012, Note_on_c, 0, 78, 78
1, 15024, Note_on_c, 0, 78, 0
1, 15024, Note_on_c, 0, 84, 94
1, 15024, Note_on_c, 1, 57, 78
1, 15024, Note_on_c, 1, 54, 78
1, 15069, Note_on_c, 1, 57, 0
1, 15069, Note_on_c, 1, 54, 0
1, 15072, Note_on_c, 1, 69, 78
1, 15072, Note_on_c, 1, 66, 78
1, 15087, Note_on_c, 0, 84, 0
1, 15088, Note_on_c, 0, 81, 78
1, 15103, Note_on_c, 0, 81, 0
1, 15104, Note_on_c, 0, 78, 78
1, 15117, Note_on_c, 1, 69, 0
1, 15117, Note_on_c, 1, 66, 0
1, 15119, Note_on_c, 0, 78, 0
1, 15120, Note_on_c, 0, 81, 78
1, 15135, Note_on_c, 0, 81, 0
1, 15136, Note_on_c, 0, 78, 78
1, 15151, Note_on_c, 0, 78, 0
1, 15152, Note_on_c, 0, 74, 78
1, 15167, Note_on_c, 0, 74, 0
1, 15168, Note_on_c, 0, 72, 78
1, 15213, Note_on_c, 0, 72, 0
1, 15216, Note_on_c, 0, 71, 78
1, 15216, Note_on_c, 1, 59, 78
1, 15216, Note_on_c, 1, 55, 78
1, 15222, Note_on_c, 0, 71, 0
1, 15222, Note_on_c, 0, 72, 78
1, 15228, Note_on_c, 0, 72, 0
1, 15228, Note_on_c, 0, 71, 78
1, 15261, Note_on_c, 1, 59, 0
1, 15261, Note_on_c, 1, 55, 0
1, 15263, Note_on_c, 0, 71, 0
1, 15264, Note_on_c, 1, 71, 78
1, 15264, Note_on_c, 1, 67, 78
1, 15309, Note_on_c, 1, 71, 0
1, 15309, Note_on_c, 1, 67, 0
1, 15312, Note_on_c, 0, 74, 78
1, 15346, Note_on_c, 0, 74, 0
1, 15348, Note_on_c, 0, 79, 78
1, 15360, Note_on_c, 0, 79, 0
1, 15360, Note_on_c, 0, 83, 78
1, 15394, Note_on_c, 0, 83, 0
1, 15396, Note_on_c, 0, 79, 78
1, 15408, Note_on_c, 0, 79, 0
1, 15408, Note_on_c, 0, 86, 94
1, 15408, Note_on_c, 1, 59, 78
1, 15442, Note_on_c, 1, 59, 0
1, 15444, Note_on_c, 1, 62, 78
1, 15456, Note_on_c, 1, 62, 0
1, 15456, Note_on_c, 1, 67, 78
1, 15471, Note_on_c, 0, 86, 0
1, 15472, Note_on_c, 0, 84, 78
1, 15487, Note_on_c, 0, 84, 0
1, 15488, Note_on_c, 0, 83, 78
1, 15501, Note_on_c, 1, 67, 0
1, 15503, Note_on_c, 0, 83, 0
1, 15504, Note_on_c, 0, 81, 78
1, 15504, Note_on_c, 1, 71, 78
1, 15519, Note_on_c, 0, 81, 0
1, 15520, Note_on_c, 0, 79, 78
1, 15535, Note_on_c, 0, 79, 0
1, 15536, Note_on_c, 0, 78, 78
1, 15549, Note_on_c, 1, 71, 0
1, 15551, Note_on_c, 0, 78, 0
1, 15552, Note_on_c, 0, 76, 78
1, 15552, Note_on_c, 1, 72, 78
1, 15586, Note_on_c, 1, 72, 0
1, 15588, Note_on_c, 1, 60, 78
1, 15600, Note_on_c, 1, 60, 0
1, 15600, Note_on_c, 1, 64, 78
1, 15634, Note_on_c, 1, 64, 0
1, 15636, Note_on_c, 1, 68, 78
1, 15648, Note_on_c, 1, 68, 0
1, 15648, Note_on_c, 1, 69, 78
1, 15663, Note_on_c, 0, 76, 0
1, 15664, Note_on_c, 0, 84, 78
1, 15679, Note_on_c, 0, 84, 0
1, 15680, Note_on_c, 0, 83, 78
1, 15695, Note_on_c, 0, 83, 0
1, 15696, Note_on_c, 0, 81, 78
1, 15696, Note_on_c, 1, 60, 64
1, 15711, Note_on_c, 0, 81, 0
1, 15712, Note_on_c, 0, 79, 78
1, 15727, Note_on_c, 0, 79, 0
1, 15728, Note_on_c, 0, 78, 78
1, 15741, Note_on_c, 1, 60, 0
1, 15743, Note_on_c, 0, 78, 0
1, 15744, Note_on_c, 0, 76, 78
1, 15744, Note_on_c, 1, 59, 64
1, 15778, Note_on_c, 1, 69, 0
1, 15780, Note_on_c, 1, 62, 78
1, 15792, Note_on_c, 0, 76, 0
1, 15792, Note_on_c, 0, 74, 78
1, 15792, Note_on_c, 1, 62, 0
1, 15792, Note_on_c, 1, 64, 78
1, 15826, Note_on_c, 1, 64, 0
1, 15828, Note_on_c, 1, 66, 78
1, 15833, Note_on_c, 0, 74, 0
1, 15840, Note_on_c, 1, 66, 0
1, 15840, Note_on_c, 1, 67, 78
1, 15856, Note_on_c, 0, 83, 78
1, 15871, Note_on_c, 0, 83, 0
1, 15872, Note_on_c, 0, 81, 78
1, 15877, Note_on_c, 1, 59, 0
1, 15887, Note_on_c, 0, 81, 0
1, 15888, Note_on_c, 0, 79, 78
1, 15888, Note_on_c, 1, 59, 64
1, 15903, Note_on_c, 0, 79, 0
1, 15904, Note_on_c, 0, 78, 78
1, 15919, Note_on_c, 0, 78, 0
1, 15920, Note_on_c, 0, 76, 78
1, 15933, Note_on_c, 1, 59, 0
1, 15935, Note_on_c, 0, 76, 0
1, 15936, Note_on_c, 0, 74, 78
1, 15936, Note_on_c, 1, 57, 64
1, 15970, Note_on_c, 0, 74, 0
1, 15972, Note_on_c, 0, 72, 78
1, 15981, Note_on_c, 1, 67, 0
1, 15984, Note_on_c, 0, 72, 0
1, 15984, Note_on_c, 0, 81, 78
1, 15984, Note_on_c, 1, 66, 78
1, 16018, Note_on_c, 0, 81, 0
1, 16020, Note_on_c, 0, 72, 78
1, 16025, Note_on_c, 1, 57, 0
1, 16029, Note_on_c, 1, 66, 0
1, 16032, Note_on_c, 0, 72, 0
1, 16032, Note_on_c, 0, 72, 78
1, 16032, Note_on_c, 1, 67, 78
1, 16032, Note_on_c, 1, 55, 64
1, 16066, Note_on_c, 0, 72, 0
1, 16068, Note_on_c, 0, 71, 78
1, 16077, Note_on_c, 1, 67, 0
1, 16077, Note_on_c, 1, 55, 0
1, 16080, Note_on_c, 0, 71, 0
1, 16080, Note_on_c, 0, 79, 78
1, 16080, Note_on_c, 1, 61, 78
1, 16080, Note_on_c, 1, 61, 64
1, 16114, Note_on_c, 0, 79, 0
1, 16116, Note_on_c, 0, 71, 78
1, 16116, Note_on_c, 0, 67, 78
1, 16125, Note_on_c, 1, 61, 0
1, 16125, Note_on_c, 1, 61, 0
1, 16128, Note_on_c, 0, 71, 0
1, 16128, Note_on_c, 0, 67, 0
1, 16128, Note_on_c, 0, 69, 78
1, 16128, Note_on_c, 0, 66, 78
1, 16128, Note_on_c, 1, 50, 78
1, 16162, Note_on_c, 1, 50, 0
1, 16164, Note_on_c, 1, 62, 78
1, 16176, Note_on_c, 1, 62, 0
1, 16176, Note_on_c, 1, 61, 78
1, 16210, Note_on_c, 1, 61, 0
1, 16212, Note_on_c, 1, 62, 79
1, 16217, Note_on_c, 0, 69, 0
1, 16217, Note_on_c, 0, 66, 0
1, 16224, Note_on_c, 1, 62, 0
1, 16224, Note_on_c, 1, 60, 79
1, 16258, Note_on_c, 1, 60, 0
1, 16260, Note_on_c, 1, 62, 80
1, 16272, Note_on_c, 0, 66, 80
1, 16272, Note_on_c, 1, 62, 0
1, 16272, Note_on_c, 1, 57, 80
1, 16306, Note_on_c, 0, 66, 0
1, 16306, Note_on_c, 1, 57, 0
1, 16308, Note_on_c, 0, 78, 81
1, 16308, Note_on_c, 1, 62, 81
1, 16320, Note_on_c, 0, 78, 0
1, 16320, Note_on_c, 0, 67, 81
1, 16320, Note_on_c, 1, 62, 0
1, 16320, Note_on_c, 1, 59, 81
1, 16354, Note_on_c, 0, 67, 0
1, 16354, Note_on_c, 1, 59, 0
1, 16356, Note_on_c, 0, 79, 82
1, 16356, Note_on_c, 1, 62, 82
1, 16368, Note_on_c, 0, 79, 0
1, 16368, Note_on_c, 0, 69, 82
1, 16368, Note_on_c, 1, 62, 0
1, 16368, Note_on_c, 1, 54, 82
1, 16402, Note_on_c, 0, 69, 0
1, 16402, Note_on_c, 1, 54, 0
1, 16404, Note_on_c, 0, 81, 83
1, 16404, Note_on_c, 1, 62, 83
1, 16416, Note_on_c, 0, 81, 0
1, 16416, Note_on_c, 0, 71, 83
1, 16416, Note_on_c, 1, 62, 0
1, 16416, Note_on_c, 1, 55, 83
1, 16450, Note_on_c, 0, 71, 0
1, 16450, Note_on_c, 1, 55, 0
1, 16452, Note_on_c, 0, 83, 84
1, 16452, Note_on_c, 1, 62, 84
1, 16464, Note_on_c, 0, 83, 0
1, 16464, Note_on_c, 0, 73, 84
1, 16464, Note_on_c, 1, 62, 0
1, 16464, Note_on_c, 1, 52, 84
1, 16498, Note_on_c, 0, 73, 0
1, 16498, Note_on_c, 1, 52, 0
1, 16500, Note_on_c, 0, 85, 85
1, 16500, Note_on_c, 1, 62, 85
1, 16512, Note_on_c, 0, 85, 0
1, 16512, Note_on_c, 0, 74, 85
1, 16512, Note_on_c, 1, 62, 0
1, 16512, Note_on_c, 1, 50, 85
1, 16546, Note_on_c, 0, 74, 0
1, 16548, Note_on_c, 0, 86, 83
1, 16560, Note_on_c, 0, 86, 0
1, 16560, Note_on_c, 0, 85, 83
1, 16594, Note_on_c, 0, 85, 0
1, 16596, Note_on_c, 0, 86, 81
1, 16601, Note_on_c, 1, 50, 0
1, 16608, Note_on_c, 0, 86, 0
1, 16608, Note_on_c, 0, 84, 81
1, 16642, Note_on_c, 0, 84, 0
1, 16644, Note_on_c, 0, 86, 79
1, 16656, Note_on_c, 0, 86, 0
1, 16656, Note_on_c, 0, 81, 79
1, 16656, Note_on_c, 1, 66, 78
1, 16690, Note_on_c, 0, 81, 0
1, 16690, Note_on_c, 1, 66, 0
1, 16692, Note_on_c, 0, 84, 78
1, 16692, Note_on_c, 1, 69, 78
1, 16704, Note_on_c, 0, 84, 0
1, 16704, Note_on_c, 0, 83, 78
1, 16704, Note_on_c, 1, 69, 0
1, 16704, Note_on_c, 1, 67, 78
1, 16738, Note_on_c, 0, 83, 0
1, 16738, Note_on_c, 1, 67, 0
1, 16740, Note_on_c, 0, 86, 78
1, 16740, Note_on_c, 1, 71, 78
1, 16752, Note_on_c, 0, 86, 0
1, 16752, Note_on_c, 0, 78, 78
1, 16752, Note_on_c, 1, 71, 0
1, 16752, Note_on_c, 1, 69, 78
1, 16786, Note_on_c, 0, 78, 0
1, 16786, Note_on_c, 1, 69, 0
1, 16788, Note_on_c, 0, 81, 78
1, 16788, Note_on_c, 1, 72, 78
1, 16800, Note_on_c, 0, 81, 0
1, 16800, Note_on_c, 0, 79, 78
1, 16800, Note_on_c, 1, 72, 0
1, 16800, Note_on_c, 1, 71, 78
1, 16834, Note_on_c, 0, 79, 0
1, 16836, Note_on_c, 0, 83, 78
1, 16845, Note_on_c, 1, 71, 0
1, 16848, Note_on_c, 0, 83, 0
1, 16848, Note_on_c, 0, 73, 78
1, 16848, Note_on_c, 1, 64, 78
1, 16882, Note_on_c, 0, 73, 0
1, 16882, Note_on_c, 1, 64, 0
1, 16884, Note_on_c, 0, 76, 78
1, 16884, Note_on_c, 1, 67, 78
1, 16896, Note_on_c, 0, 76, 0
1, 16896, Note_on_c, 0, 74, 78
1, 16896, Note_on_c, 1, 67, 0
1, 16896, Note_on_c, 1, 66, 78
1, 16930, Note_on_c, 0, 74, 0
1, 16932, Note_on_c, 0, 81, 78
1, 16944, Note_on_c, 0, 81, 0
1, 16944, Note_on_c, 0, 78, 78
1, 16978, Note_on_c, 0, 78, 0
1, 16980, Note_on_c, 0, 74, 78
1, 16985, Note_on_c, 1, 66, 0
1, 16992, Note_on_c, 0, 74, 0
1, 16992, Note_on_c, 0, 74, 78
1, 17028, Note_on_c, 1, 62, 78
1, 17037, Note_on_c, 0, 74, 0
1, 17040, Note_on_c, 0, 74, 78
1, 17040, Note_on_c, 1, 62, 0
1, 17040, Note_on_c, 1, 64, 78
1, 17048, Note_on_c, 0, 74, 0
1, 17048, Note_on_c, 0, 72, 78
1, 17056, Note_on_c, 0, 72, 0
1, 17056, Note_on_c, 0, 74, 78
1, 17064, Note_on_c, 0, 74, 0
1, 17064, Note_on_c, 0, 72, 78
1, 17072, Note_on_c, 0, 72, 0
1, 17072, Note_on_c, 0, 71, 78
1, 17074, Note_on_c, 1, 64, 0
1, 17076, Note_on_c, 1, 66, 78
1, 17080, Note_on_c, 0, 71, 0
1, 17080, Note_on_c, 0, 72, 78
1, 17088, Note_on_c, 0, 72, 0
1, 17088, Note_on_c, 0, 71, 78
1, 17088, Note_on_c, 1, 66, 0
1, 17088, Note_on_c, 1, 67, 78
1, 17103, Note_on_c, 0, 71, 0
1, 17104, Note_on_c, 0, 82, 78
1, 17119, Note_on_c, 0, 82, 0
1, 17120, Note_on_c, 0, 83, 78
1, 17135, Note_on_c, 0, 83, 0
1, 17136, Note_on_c, 0, 78, 78
1, 17151, Note_on_c, 0, 78, 0
1, 17152, Note_on_c, 0, 79, 78
1, 17167, Note_on_c, 0, 79, 0
1, 17168, Note_on_c, 0, 76, 78
1, 17177, Note_on_c, 1, 67, 0
1, 17183, Note_on_c, 0, 76, 0
1, 17184, Note_on_c, 0, 74, 78
1, 17220, Note_on_c, 1, 62, 78
1, 17229, Note_on_c, 0, 74, 0
1, 17232, Note_on_c, 0, 74, 78
1, 17232, Note_on_c, 1, 62, 0
1, 17232, Note_on_c, 1, 64, 78
1, 17240, Note_on_c, 0, 74, 0
1, 17240, Note_on_c, 0, 72, 78
1, 17248, Note_on_c, 0, 72, 0
1, 17248, Note_on_c, 0, 74, 78
1, 17256, Note_on_c, 0, 74, 0
1, 17256, Note_on_c, 0, 72, 78
1, 17264, Note_on_c, 0, 72, 0
1, 17264, Note_on_c, 0, 71, 78
1, 17266, Note_on_c, 1, 64, 0
1, 17268, Note_on_c, 1, 66, 78
1, 17272, Note_on_c, 0, 71, 0
1, 17272, Note_on_c, 0, 72, 78
1, 17280, Note_on_c, 0, 72, 0
1, 17280, Note_on_c, 0, 71, 78
1, 17280, Note_on_c, 1, 66, 0
1, 17280, Note_on_c, 1, 67, 78
1, 17295, Note_on_c, 0, 71, 0
1, 17296, Note_on_c, 0, 82, 78
1, 17311, Note_on_c, 0, 82, 0
1, 17312, Note_on_c, 0, 83, 78
1, 17327, Note_on_c, 0, 83, 0
1, 17328, Note_on_c, 0, 78, 78
1, 17343, Note_on_c, 0, 78, 0
1, 17344, Note_on_c, 0, 79, 78
1, 17359, Note_on_c, 0, 79, 0
1, 17360, Note_on_c, 0, 76, 78
1, 17369, Note_on_c, 1, 67, 0
1, 17375, Note_on_c, 0, 76, 0
1, 17376, Note_on_c, 0, 74, 78
1, 17412, Note_on_c, 1, 62, 78
1, 17421, Note_on_c, 0, 74, 0
1, 17424, Note_on_c, 0, 74, 78
1, 17424, Note_on_c, 1, 62, 0
1, 17424, Note_on_c, 1, 64, 78
1, 17432, Note_on_c, 0, 74, 0
1, 17432, Note_on_c, 0, 72, 78
1, 17440, Note_on_c, 0, 72, 0
1, 17440, Note_on_c, 0, 74, 78
1, 17448, Note_on_c, 0, 74, 0
1, 17448, Note_on_c, 0, 72, 78
1, 17456, Note_on_c, 0, 72, 0
1, 17456, Note_on_c, 0, 71, 78
1, 17458, Note_on_c, 1, 64, 0
1, 17460, Note_on_c, 1, 66, 78
1, 17464, Note_on_c, 0, 71, 0
1, 17464, Note_on_c, 0, 72, 78
1, 17472, Note_on_c, 0, 72, 0
1, 17472, Note_on_c, 0, 71, 78
1, 17472, Note_on_c, 1, 66, 0
1, 17472, Note_on_c, 1, 67, 78
1, 17487, Note_on_c, 0, 71, 0
1, 17488, Note_on_c, 0, 82, 78
1, 17503, Note_on_c, 0, 82, 0
1, 17504, Note_on_c, 0, 83, 78
1, 17519, Note_on_c, 0, 83, 0
1, 17520, Note_on_c, 0, 78, 78
1, 17535, Note_on_c, 0, 78, 0
1, 17536, Note_on_c, 0, 79, 78
1, 17551, Note_on_c, 0, 79, 0
1, 17552, Note_on_c, 0, 75, 78
1, 17561, Note_on_c, 1, 67, 0
1, 17567, Note_on_c, 0, 75, 0
1, 17568, Note_on_c, 0, 76, 78
1, 17583, Note_on_c, 0, 76, 0
1, 17584, Note_on_c, 0, 79, 78
1, 17599, Note_on_c, 0, 79, 0
1, 17600, Note_on_c, 0, 71, 78
1, 17615, Note_on_c, 0, 71, 0
1, 17616, Note_on_c, 0, 72, 78
1, 17631, Note_on_c, 0, 72, 0
1, 17632, Note_on_c, 0, 76, 78
1, 17647, Note_on_c, 0, 76, 0
1, 17648, Note_on_c, 0, 69, 78
1, 17663, Note_on_c, 0, 69, 0
1, 17664, Note_on_c, 0, 67, 78
1, 17712, Note_on_c, 1, 47, 78
1, 17753, Note_on_c, 0, 67, 0
1, 17757, Note_on_c, 1, 47, 0
1, 17760, Note_on_c, 0, 67, 78
1, 17760, Note_on_c, 1, 48, 78
1, 17768, Note_on_c, 0, 67, 0
1, 17768, Note_on_c, 0, 69, 78
1, 17776, Note_on_c, 0, 69, 0
1, 17776, Note_on_c, 0, 71, 78
1, 17784, Note_on_c, 0, 71, 0
1, 17784, Note_on_c, 0, 69, 78
1, 17792, Note_on_c, 0, 69, 0
1, 17792, Note_on_c, 0, 71, 78
1, 17800, Note_on_c, 0, 71, 0
1, 17800, Note_on_c, 0, 69, 78
1, 17805, Note_on_c, 1, 48, 0
1, 17808, Note_on_c, 0, 69, 0
1, 17808, Note_on_c, 0, 71, 78
1, 17808, Note_on_c, 1, 50, 78
1, 17816, Note_on_c, 0, 71, 0
1, 17816, Note_on_c, 0, 69, 78
1, 17824, Note_on_c, 0, 69, 0
1, 17824, Note_on_c, 0, 71, 78
1, 17832, Note_on_c, 0, 71, 0
1, 17832, Note_on_c, 0, 69, 78
1, 17840, Note_on_c, 0, 69, 0
1, 17840, Note_on_c, 0, 67, 78
1, 17848, Note_on_c, 0, 67, 0
1, 17848, Note_on_c, 0, 69, 78
1, 17853, Note_on_c, 1, 50, 0
1, 17856, Note_on_c, 0, 69, 0
1, 17856, Note_on_c, 0, 67, 78
1, 17872, Note_on_c, 1, 43, 78
1, 17876, Note_on_c, 0, 67, 0
1, 17887, Note_on_c, 1, 43, 0
1, 17888, Note_on_c, 1, 46, 78
1, 17903, Note_on_c, 1, 46, 0
1, 17904, Note_on_c, 1, 50, 78
1, 17919, Note_on_c, 1, 50, 0
1, 17920, Note_on_c, 1, 55, 78
1, 17935, Note_on_c, 1, 55, 0
1, 17936, Note_on_c, 1, 57, 78
1, 17951, Note_on_c, 1, 57, 0
1, 17952, Note_on_c, 1, 58, 78
1, 17968, Note_on_c, 0, 62, 78
1, 17983, Note_on_c, 0, 62, 0
1, 17984, Note_on_c, 0, 66, 78
1, 17997, Note_on_c, 1, 58, 0
1, 17999, Note_on_c, 0, 66, 0
1, 18000, Note_on_c, 0, 67, 78
1, 18015, Note_on_c, 0, 67, 0
1, 18016, Note_on_c, 0, 69, 78
1, 18031, Note_on_c, 0, 69, 0
1, 18032, Note_on_c, 0, 70, 78
1, 18047, Note_on_c, 0, 70, 0
1, 18048, Note_on_c, 0, 69, 78
1, 18064, Note_on_c, 1, 50, 78
1, 18068, Note_on_c, 0, 69, 0
1, 18079, Note_on_c, 1, 50, 0
1, 18080, Note_on_c, 1, 54, 78
1, 18095, Note_on_c, 1, 54, 0
1, 18096, Note_on_c, 1, 57, 78
1, 18111, Note_on_c, 1, 57, 0
1, 18112, Note_on_c, 1, 60, 78
1, 18127, Note_on_c, 1, 60, 0
1, 18128, Note_on_c, 1, 62, 78
1, 18143, Note_on_c, 1, 62, 0
1, 18144, Note_on_c, 1, 63, 78
1, 18160, Note_on_c, 0, 66, 78
1, 18175, Note_on_c, 0, 66, 0
1, 18176, Note_on_c, 0, 69, 78
1, 18189, Note_on_c, 1, 63, 0
1, 18191, Note_on_c, 0, 69, 0
1, 18192, Note_on_c, 0, 72, 78
1, 18207, Note_on_c, 0, 72, 0
1, 18208, Note_on_c, 0, 74, 78
1, 18223, Note_on_c, 0, 74, 0
1, 18224, Note_on_c, 0, 75, 78
1, 18239, Note_on_c, 0, 75, 0
1, 18240, Note_on_c, 0, 74, 78
1, 18256, Note_on_c, 1, 55, 78
1, 18260, Note_on_c, 0, 74, 0
1, 18271, Note_on_c, 1, 55, 0
1, 18272, Note_on_c, 1, 58, 78
1, 18287, Note_on_c, 1, 58, 0
1, 18288, Note_on_c, 1, 62, 78
1, 18303, Note_on_c, 1, 62, 0
1, 18304, Note_on_c, 1, 67, 78
1, 18319, Note_on_c, 1, 67, 0
1, 18320, Note_on_c, 1, 69, 78
1, 18335, Note_on_c, 1, 69, 0
1, 18336, Note_on_c, 1, 70, 78
1, 18352, Note_on_c, 0, 74, 78
1, 18356, Note_on_c, 1, 70, 0
1, 18367, Note_on_c, 0, 74, 0
1, 18368, Note_on_c, 0, 78, 78
1, 18383, Note_on_c, 0, 78, 0
1, 18384, Note_on_c, 0, 79, 78
1, 18399, Note_on_c, 0, 79, 0
1, 18400, Note_on_c, 0, 81, 78
1, 18415, Note_on_c, 0, 81, 0
1, 18416, Note_on_c, 0, 82, 78
1, 18431, Note_on_c, 0, 82, 0
1, 18432, Note_on_c, 1, 69, 78
1, 18448, Note_on_c, 0, 72, 78
1, 18452, Note_on_c, 1, 69, 0
1, 18463, Note_on_c, 0, 72, 0
1, 18464, Note_on_c, 0, 78, 78
1, 18479, Note_on_c, 0, 78, 0
1, 18480, Note_on_c, 0, 81, 78
1, 18495, Note_on_c, 0, 81, 0
1, 18496, Note_on_c, 0, 82, 78
1, 18511, Note_on_c, 0, 82, 0
1, 18512, Note_on_c, 0, 84, 78
1, 18527, Note_on_c, 0, 84, 0
1, 18528, Note_on_c, 1, 67, 78
1, 18544, Note_on_c, 0, 70, 78
1, 18548, Note_on_c, 1, 67, 0
1, 18559, Note_on_c, 0, 70, 0
1, 18560, Note_on_c, 0, 82, 78
1, 18575, Note_on_c, 0, 82, 0
1, 18576, Note_on_c, 1, 65, 78
1, 18592, Note_on_c, 0, 69, 78
1, 18596, Note_on_c, 1, 65, 0
1, 18607, Note_on_c, 0, 69, 0
1, 18608, Note_on_c, 0, 81, 78
1, 18623, Note_on_c, 0, 81, 0
1, 18624, Note_on_c, 1, 63, 64
1, 18640, Note_on_c, 0, 78, 78
1, 18655, Note_on_c, 0, 78, 0
1, 18656, Note_on_c, 0, 79, 78
1, 18671, Note_on_c, 0, 79, 0
1, 18672, Note_on_c, 0, 82, 78
1, 18687, Note_on_c, 0, 82, 0
1, 18688, Note_on_c, 0, 79, 78
1, 18703, Note_on_c, 0, 79, 0
1, 18704, Note_on_c, 0, 75, 78
1, 18719, Note_on_c, 0, 75, 0
1, 18720, Note_on_c, 0, 74, 78
1, 18720, Note_on_c, 1, 67, 78
1, 18765, Note_on_c, 0, 74, 0
1, 18768, Note_on_c, 0, 74, 78
1, 18774, Note_on_c, 0, 74, 0
1, 18774, Note_on_c, 0, 73, 78
1, 18780, Note_on_c, 0, 73, 0
1, 18780, Note_on_c, 0, 71, 78
1, 18786, Note_on_c, 0, 71, 0
1, 18786, Note_on_c, 0, 73, 78
1, 18801, Note_on_c, 1, 63, 0
1, 18813, Note_on_c, 0, 73, 0
1, 18816, Note_on_c, 0, 74, 78
1, 18816, Note_on_c, 1, 62, 64
1, 18850, Note_on_c, 1, 67, 0
1, 18852, Note_on_c, 1, 64, 78
1, 18864, Note_on_c, 1, 64, 0
1, 18864, Note_on_c, 1, 66, 78
1, 18898, Note_on_c, 1, 66, 0
1, 18900, Note_on_c, 1, 67, 78
1, 18905, Note_on_c, 0, 74, 0
1, 18912, Note_on_c, 1, 67, 0
1, 18912, Note_on_c, 1, 69, 78
1, 18928, Note_on_c, 0, 72, 78
1, 18943, Note_on_c, 0, 72, 0
1, 18944, Note_on_c, 0, 78, 78
1, 18959, Note_on_c, 0, 78, 0
1, 18960, Note_on_c, 0, 81, 78
1, 18975, Note_on_c, 0, 81, 0
1, 18976, Note_on_c, 0, 78, 78
1, 18991, Note_on_c, 0, 78, 0
1, 18992, Note_on_c, 0, 72, 78
1, 19007, Note_on_c, 0, 72, 0
1, 19008, Note_on_c, 0, 71, 78
1, 19028, Note_on_c, 0, 71, 0
1, 19042, Note_on_c, 1, 69, 0
1, 19044, Note_on_c, 1, 66, 78
1, 19056, Note_on_c, 1, 66, 0
1, 19056, Note_on_c, 1, 67, 78
1, 19090, Note_on_c, 1, 67, 0
1, 19092, Note_on_c, 1, 69, 78
1, 19104, Note_on_c, 1, 69, 0
1, 19104, Note_on_c, 1, 71, 78
1, 19120, Note_on_c, 0, 74, 78
1, 19135, Note_on_c, 0, 74, 0
1, 19136, Note_on_c, 0, 79, 78
1, 19151, Note_on_c, 0, 79, 0
1, 19152, Note_on_c, 0, 83, 78
1, 19167, Note_on_c, 0, 83, 0
1, 19168, Note_on_c, 0, 79, 78
1, 19183, Note_on_c, 0, 79, 0
1, 19184, Note_on_c, 0, 74, 78
1, 19199, Note_on_c, 0, 74, 0
1, 19200, Note_on_c, 0, 72, 78
1, 19220, Note_on_c, 0, 72, 0
1, 19234, Note_on_c, 1, 71, 0
1, 19236, Note_on_c, 1, 68, 78
1, 19248, Note_on_c, 1, 68, 0
1, 19248, Note_on_c, 1, 69, 78
1, 19282, Note_on_c, 1, 69, 0
1, 19284, Note_on_c, 1, 71, 78
1, 19296, Note_on_c, 1, 71, 0
1, 19296, Note_on_c, 1, 72, 78
1, 19312, Note_on_c, 0, 88, 78
1, 19327, Note_on_c, 0, 88, 0
1, 19328, Note_on_c, 0, 86, 78
1, 19341, Note_on_c, 1, 72, 0
1, 19341, Note_on_c, 1, 62, 0
1, 19343, Note_on_c, 0, 86, 0
1, 19344, Note_on_c, 0, 84, 78
1, 19359, Note_on_c, 0, 84, 0
1, 19360, Note_on_c, 0, 83, 78
1, 19375, Note_on_c, 0, 83, 0
1, 19376, Note_on_c, 0, 81, 78
1, 19391, Note_on_c, 0, 81, 0
1, 19392, Note_on_c, 0, 79, 78
1, 19407, Note_on_c, 0, 79, 0
1, 19408, Note_on_c, 0, 78, 78
1, 19423, Note_on_c, 0, 78, 0
1, 19424, Note_on_c, 0, 84, 78
1, 19439, Note_on_c, 0, 84, 0
1, 19440, Note_on_c, 0, 81, 78
1, 19455, Note_on_c, 0, 81, 0
1, 19456, Note_on_c, 0, 78, 78
1, 19471, Note_on_c, 0, 78, 0
1, 19472, Note_on_c, 0, 72, 78
1, 19487, Note_on_c, 0, 72, 0
1, 19488, Note_on_c, 0, 69, 78
1, 19503, Note_on_c, 0, 69, 0
1, 19504, Note_on_c, 0, 66, 78
1, 19519, Note_on_c, 0, 66, 0
1, 19520, Note_on_c, 0, 62, 78
1, 19535, Note_on_c, 0, 62, 0
1, 19536, Note_on_c, 1, 60, 64
1, 19551, Note_on_c, 1, 60, 0
1, 19552, Note_on_c, 1, 57, 64
1, 19567, Note_on_c, 1, 57, 0
1, 19568, Note_on_c, 1, 54, 64
1, 19583, Note_on_c, 1, 54, 0
1, 19584, Note_on_c, 1, 48, 64
1, 19604, Note_on_c, 1, 48, 0
1, 19728, Note_on_c, 0, 62, 78
1, 19743, Note_on_c, 0, 62, 0
1, 19744, Note_on_c, 0, 67, 78
1, 19759, Note_on_c, 0, 67, 0
1, 19760, Note_on_c, 0, 71, 78
1, 19775, Note_on_c, 0, 71, 0
1, 19776, Note_on_c, 0, 62, 78
1, 19791, Note_on_c, 0, 62, 0
1, 19792, Note_on_c, 0, 61, 78
1, 19807, Note_on_c, 0, 61, 0
1, 19808, Note_on_c, 0, 60, 78
1, 19823, Note_on_c, 0, 60, 0
1, 19824, Note_on_c, 0, 69, 94
1, 19824, Note_on_c, 1, 50, 78
1, 19869, Note_on_c, 1, 50, 0
1, 19872, Note_on_c, 1, 52, 78
1, 19887, Note_on_c, 0, 69, 0
1, 19888, Note_on_c, 0, 67, 78
1, 19903, Note_on_c, 0, 67, 0
1, 19904, Note_on_c, 0, 66, 78
1, 19917, Note_on_c, 1, 52, 0
1, 19919, Note_on_c, 0, 66, 0
1, 19920, Note_on_c, 0, 64, 78
1, 19920, Note_on_c, 1, 54, 78
1, 19935, Note_on_c, 0, 64, 0
1, 19936, Note_on_c, 0, 62, 78
1, 19951, Note_on_c, 0, 62, 0
1, 19952, Note_on_c, 0, 60, 78
1, 19965, Note_on_c, 1, 54, 0
1, 19967, Note_on_c, 0, 60, 0
1, 19968, Note_on_c, 0, 59, 78
1, 19968, Note_on_c, 1, 55, 78
1, 19983, Note_on_c, 0, 59, 0
1, 19984, Note_on_c, 0, 62, 78
1, 19999, Note_on_c, 0, 62, 0
1, 20000, Note_on_c, 0, 67, 78
1, 20015, Note_on_c, 0, 67, 0
1, 20016, Note_on_c, 0, 62, 78
1, 20031, Note_on_c, 0, 62, 0
1, 20032, Note_on_c, 0, 67, 78
1, 20047, Note_on_c, 0, 67, 0
1, 20048, Note_on_c, 0, 71, 78
1, 20057, Note_on_c, 1, 55, 0
1, 20063, Note_on_c, 0, 71, 0
1, 20064, Note_on_c, 0, 74, 78
1, 20084, Note_on_c, 0, 74, 0
1, 20112, Note_on_c, 0, 62, 78
1, 20127, Note_on_c, 0, 62, 0
1, 20128, Note_on_c, 0, 67, 78
1, 20143, Note_on_c, 0, 67, 0
1, 20144, Note_on_c, 0, 71, 78
1, 20159, Note_on_c, 0, 71, 0
1, 20160, Note_on_c, 0, 62, 78
1, 20175, Note_on_c, 0, 62, 0
1, 20176, Note_on_c, 0, 61, 78
1, 20191, Note_on_c, 0, 61, 0
1, 20192, Note_on_c, 0, 60, 78
1, 20207, Note_on_c, 0, 60, 0
1, 20208, Note_on_c, 0, 69, 94
1, 20208, Note_on_c, 1, 50, 78
1, 20253, Note_on_c, 1, 50, 0
1, 20256, Note_on_c, 1, 52, 78
1, 20271, Note_on_c, 0, 69, 0
1, 20272, Note_on_c, 0, 67, 78
1, 20287, Note_on_c, 0, 67, 0
1, 20288, Note_on_c, 0, 66, 78
1, 20301, Note_on_c, 1, 52, 0
1, 20303, Note_on_c, 0, 66, 0
1, 20304, Note_on_c, 0, 64, 78
1, 20304, Note_on_c, 1, 54, 78
1, 20319, Note_on_c, 0, 64, 0
1, 20320, Note_on_c, 0, 62, 78
1, 20335, Note_on_c, 0, 62, 0
1, 20336, Note_on_c, 0, 60, 78
1, 20349, Note_on_c, 1, 54, 0
1, 20351, Note_on_c, 0, 60, 0
1, 20352, Note_on_c, 0, 59, 78
1, 20352, Note_on_c, 1, 55, 78
1, 20367, Note_on_c, 0, 59, 0
1, 20368, Note_on_c, 0, 62, 78
1, 20383, Note_on_c, 0, 62, 0
1, 20384, Note_on_c, 0, 67, 78
1, 20399, Note_on_c, 0, 67, 0
1, 20400, Note_on_c, 0, 62, 78
1, 20415, Note_on_c, 0, 62, 0
1, 20416, Note_on_c, 0, 67, 78
1, 20431, Note_on_c, 0, 67, 0
1, 20432, Note_on_c, 0, 71, 78
1, 20441, Note_on_c, 1, 55, 0
1, 20447, Note_on_c, 0, 71, 0
1, 20448, Note_on_c, 0, 74, 78
1, 20463, Note_on_c, 0, 74, 0
1, 20464, Note_on_c, 0, 72, 78
1, 20479, Note_on_c, 0, 72, 0
1, 20480, Note_on_c, 0, 71, 78
1, 20495, Note_on_c, 0, 71, 0
1, 20496, Note_on_c, 0, 69, 78
1, 20496, Note_on_c, 1, 47, 78
1, 20511, Note_on_c, 0, 69, 0
1, 20512, Note_on_c, 0, 67, 78
1, 20527, Note_on_c, 0, 67, 0
1, 20528, Note_on_c, 0, 66, 78
1, 20541, Note_on_c, 1, 47, 0
1, 20543, Note_on_c, 0, 66, 0
1, 20544, Note_on_c, 0, 64, 78
1, 20544, Note_on_c, 1, 48, 64
1, 20559, Note_on_c, 0, 64, 0
1, 20560, Note_on_c, 0, 75, 78
1, 20575, Note_on_c, 0, 75, 0
1, 20576, Note_on_c, 0, 76, 78
1, 20591, Note_on_c, 0, 76, 0
1, 20592, Note_on_c, 0, 74, 78
1, 20592, Note_on_c, 1, 60, 78
1, 20604, Note_on_c, 0, 74, 0
1, 20604, Note_on_c, 0, 72, 78
1, 20615, Note_on_c, 0, 72, 0
1, 20616, Note_on_c, 0, 71, 78
1, 20628, Note_on_c, 0, 71, 0
1, 20628, Note_on_c, 0, 69, 78
1, 20633, Note_on_c, 1, 48, 0
1, 20637, Note_on_c, 1, 60, 0
1, 20640, Note_on_c, 0, 69, 0
1, 20640, Note_on_c, 0, 67, 78
1, 20640, Note_on_c, 1, 59, 78
1, 20640, Note_on_c, 1, 50, 64
1, 20685, Note_on_c, 0, 67, 0
1, 20685, Note_on_c, 1, 59, 0
1, 20688, Note_on_c, 0, 66, 78
1, 20688, Note_on_c, 0, 62, 78
1, 20688, Note_on_c, 1, 57, 78
1, 20729, Note_on_c, 1, 50, 0
1, 20733, Note_on_c, 0, 66, 0
1, 20733, Note_on_c, 0, 62, 0
1, 20733, Note_on_c, 1, 57, 0
1, 20736, Note_on_c, 0, 66, 78
1, 20736, Note_on_c, 0, 60, 64
1, 20736, Note_on_c, 1, 57, 78
1, 20736, Note_on_c, 1, 52, 78
1, 20832, Note_on_c, 0, 66, 0
1, 20832, Note_on_c, 0, 67, 78
1, 20832, Note_on_c, 0, 60, 0
1, 20832, Note_on_c, 0, 59, 64
1, 20832, Note_on_c, 1, 57, 0
1, 20832, Note_on_c, 1, 55, 78
1, 20877, Note_on_c, 0, 59, 0
1, 20877, Note_on_c, 1, 55, 0
1, 20877, Note_on_c, 1, 52, 0
1, 20879, Note_on_c, 0, 67, 0
1, 20880, Note_on_c, 0, 74, 78
1, 20895, Note_on_c, 0, 74, 0
1, 20896, Note_on_c, 0, 79, 78
1, 20911, Note_on_c, 0, 79, 0
1, 20912, Note_on_c, 0, 83, 78
1, 20927, Note_on_c, 0, 83, 0
1, 20928, Note_on_c, 0, 74, 78
1, 20943, Note_on_c, 0, 74, 0
1, 20944, Note_on_c, 0, 73, 78
1, 20959, Note_on_c, 0, 73, 0
1, 20960, Note_on_c, 0, 72, 78
1, 20975, Note_on_c, 0, 72, 0
1, 20976, Note_on_c, 0, 81, 94
1, 20976, Note_on_c, 1, 62, 78
1, 21021, Note_on_c, 1, 62, 0
1, 21024, Note_on_c, 1, 64, 78
1, 21039, Note_on_c, 0, 81, 0
1, 21040, Note_on_c, 0, 79, 78
1, 21055, Note_on_c, 0, 79, 0
1, 21056, Note_on_c, 0, 78, 78
1, 21069, Note_on_c, 1, 64, 0
1, 21071, Note_on_c, 0, 78, 0
1, 21072, Note_on_c, 0, 76, 78
1, 21072, Note_on_c, 1, 66, 78
1, 21087, Note_on_c, 0, 76, 0
1, 21088, Note_on_c, 0, 74, 78
1, 21103, Note_on_c, 0, 74, 0
1, 21104, Note_on_c, 0, 72, 78
1, 21117, Note_on_c, 1, 66, 0
1, 21119, Note_on_c, 0, 72, 0
1, 21120, Note_on_c, 0, 71, 78
1, 21120, Note_on_c, 1, 67, 78
1, 21135, Note_on_c, 0, 71, 0
1, 21136, Note_on_c, 0, 74, 78
1, 21151, Note_on_c, 0, 74, 0
1, 21152, Note_on_c, 0, 79, 78
1, 21167, Note_on_c, 0, 79, 0
1, 21168, Note_on_c, 0, 74, 78
1, 21183, Note_on_c, 0, 74, 0
1, 21184, Note_on_c, 0, 79, 78
1, 21199, Note_on_c, 0, 79, 0
1, 21200, Note_on_c, 0, 83, 78
1, 21209, Note_on_c, 1, 67, 0
1, 21215, Note_on_c, 0, 83, 0
1, 21216, Note_on_c, 0, 86, 78
1, 21236, Note_on_c, 0, 86, 0
1, 21264, Note_on_c, 0, 74, 78
1, 21279, Note_on_c, 0, 74, 0
1, 21280, Note_on_c, 0, 79, 78
1, 21295, Note_on_c, 0, 79, 0
1, 21296, Note_on_c, 0, 83, 78
1, 21311, Note_on_c, 0, 83, 0
1, 21312, Note_on_c, 0, 74, 78
1, 21327, Note_on_c, 0, 74, 0
1, 21328, Note_on_c, 0, 73, 78
1, 21343, Note_on_c, 0, 73, 0
1, 21344, Note_on_c, 0, 72, 78
1, 21359, Note_on_c, 0, 72, 0
1, 21360, Note_on_c, 0, 81, 94
1, 21360, Note_on_c, 1, 62, 78
1, 21405, Note_on_c, 1, 62, 0
1, 21408, Note_on_c, 1, 64, 78
1, 21423, Note_on_c, 0, 81, 0
1, 21424, Note_on_c, 0, 79, 78
1, 21439, Note_on_c, 0, 79, 0
1, 21440, Note_on_c, 0, 78, 78
1, 21453, Note_on_c, 1, 64, 0
1, 21455, Note_on_c, 0, 78, 0
1, 21456, Note_on_c, 0, 76, 78
1, 21456, Note_on_c, 1, 66, 78
1, 21471, Note_on_c, 0, 76, 0
1, 21472, Note_on_c, 0, 74, 78
1, 21487, Note_on_c, 0, 74, 0
1, 21488, Note_on_c, 0, 72, 78
1, 21501, Note_on_c, 1, 66, 0
1, 21503, Note_on_c, 0, 72, 0
1, 21504, Note_on_c, 0, 71, 78
1, 21504, Note_on_c, 1, 67, 78
1, 21519, Note_on_c, 0, 71, 0
1, 21520, Note_on_c, 0, 78, 78
1, 21535, Note_on_c, 0, 78, 0
1, 21536, Note_on_c, 0, 79, 78
1, 21551, Note_on_c, 0, 79, 0
1, 21552, Note_on_c, 0, 75, 78
1, 21567, Note_on_c, 0, 75, 0
1, 21568, Note_on_c, 0, 76, 78
1, 21583, Note_on_c, 0, 76, 0
1, 21584, Note_on_c, 0, 73, 78
1, 21593, Note_on_c, 1, 67, 0
1, 21599, Note_on_c, 0, 73, 0
1, 21600, Note_on_c, 0, 74, 78
1, 21615, Note_on_c, 0, 74, 0
1, 21616, Note_on_c, 0, 71, 78
1, 21631, Note_on_c, 0, 71, 0
1, 21632, Note_on_c, 0, 72, 78
1, 21647, Note_on_c, 0, 72, 0
1, 21648, Note_on_c, 0, 76, 78
1, 21663, Note_on_c, 0, 76, 0
1, 21664, Note_on_c, 0, 72, 78
1, 21679, Note_on_c, 0, 72, 0
1, 21680, Note_on_c, 0, 69, 78
1, 21695, Note_on_c, 0, 69, 0
1, 21696, Note_on_c, 0, 67, 78
1, 21744, Note_on_c, 1, 47, 78
1, 21785, Note_on_c, 0, 67, 0
1, 21789, Note_on_c, 1, 47, 0
1, 21792, Note_on_c, 0, 67, 78
1, 21792, Note_on_c, 1, 48, 78
1, 21800, Note_on_c, 0, 67, 0
1, 21800, Note_on_c, 0, 69, 78
1, 21808, Note_on_c, 0, 69, 0
1, 21808, Note_on_c, 0, 71, 78
1, 21816, Note_on_c, 0, 71, 0
1, 21816, Note_on_c, 0, 69, 78
1, 21824, Note_on_c, 0, 69, 0
1, 21824, Note_on_c, 0, 71, 78
1, 21832, Note_on_c, 0, 71, 0
1, 21832, Note_on_c, 0, 69, 78
1, 21837, Note_on_c, 1, 48, 0
1, 21840, Note_on_c, 0, 69, 0
1, 21840, Note_on_c, 0, 71, 78
1, 21840, Note_on_c, 1, 50, 78
1, 21848, Note_on_c, 0, 71, 0
1, 21848, Note_on_c, 0, 69, 78
1, 21856, Note_on_c, 0, 69, 0
1, 21856, Note_on_c, 0, 71, 78
1, 21864, Note_on_c, 0, 71, 0
1, 21864, Note_on_c, 0, 69, 78
1, 21872, Note_on_c, 0, 69, 0
1, 21872, Note_on_c, 0, 67, 78
1, 21880, Note_on_c, 0, 67, 0
1, 21880, Note_on_c, 0, 69, 78
1, 21885, Note_on_c, 1, 50, 0
1, 21888, Note_on_c, 0, 69, 0
1, 21888, Note_on_c, 0, 67, 78
1, 21888, Note_on_c, 1, 43, 78
1, 21903, Note_on_c, 1, 43, 0
1, 21904, Note_on_c, 1, 47, 78
1, 21919, Note_on_c, 1, 47, 0
1, 21920, Note_on_c, 1, 50, 78
1, 21935, Note_on_c, 1, 50, 0
1, 21936, Note_on_c, 1, 55, 78
1, 21951, Note_on_c, 1, 55, 0
1, 21952, Note_on_c, 1, 59, 78
1, 21967, Note_on_c, 1, 59, 0
1, 21968, Note_on_c, 1, 55, 78
1, 21977, Note_on_c, 0, 67, 0
1, 21983, Note_on_c, 1, 55, 0
1, 21984, Note_on_c, 1, 43, 78
1, 22029, Note_on_c, 1, 43, 0
1, 22032, Note_on_c, 0, 67, 78
1, 22066, Note_on_c, 0, 67, 0
1, 22068, Note_on_c, 0, 71, 78
1, 22080, Note_on_c, 0, 71, 0
1, 22080, Note_on_c, 0, 74, 78
1, 22114, Note_on_c, 0, 74, 0
1, 22116, Note_on_c, 0, 71, 80
1, 22128, Note_on_c, 0, 71, 0
1, 22128, Note_on_c, 0, 79, 97
1, 22128, Note_on_c, 1, 43, 78
1, 22173, Note_on_c, 1, 43, 0
1, 22176, Note_on_c, 1, 55, 78
1, 22210, Note_on_c, 0, 79, 0
1, 22212, Note_on_c, 0, 78, 82
1, 22221, Note_on_c, 1, 55, 0
1, 22224, Note_on_c, 0, 78, 0
1, 22224, Note_on_c, 0, 76, 81
1, 22224, Note_on_c, 1, 59, 78
1, 22258, Note_on_c, 0, 76, 0
1, 22260, Note_on_c, 0, 74, 78
1, 22269, Note_on_c, 1, 59, 0
1, 22272, Note_on_c, 0, 74, 0
1, 22272, Note_on_c, 0, 74, 78
1, 22272, Note_on_c, 1, 57, 78
1, 22317, Note_on_c, 1, 57, 0
1, 22320, Note_on_c, 1, 45, 78
1, 22361, Note_on_c, 0, 74, 0
1, 22365, Note_on_c, 1, 45, 0
1, 22368, Note_on_c, 0, 72, 78
1, 22368, Note_on_c, 1, 57, 78
1, 22374, Note_on_c, 0, 72, 0
1, 22374, Note_on_c, 0, 74, 78
1, 22380, Note_on_c, 0, 74, 0
1, 22380, Note_on_c, 0, 72, 78
1, 22402, Note_on_c, 0, 72, 0
1, 22404, Note_on_c, 0, 71, 78
1, 22413, Note_on_c, 1, 57, 0
1, 22416, Note_on_c, 0, 71, 0
1, 22416, Note_on_c, 0, 69, 78
1, 22416, Note_on_c, 1, 60, 78
1, 22422, Note_on_c, 0, 69, 0
1, 22422, Note_on_c, 0, 71, 78
1, 22428, Note_on_c, 0, 71, 0
1, 22428, Note_on_c, 0, 69, 78
1, 22450, Note_on_c, 0, 69, 0
1, 22452, Note_on_c, 0, 67, 78
1, 22461, Note_on_c, 1, 60, 0
1, 22464, Note_on_c, 0, 67, 0
1, 22464, Note_on_c, 0, 67, 78
1, 22464, Note_on_c, 1, 62, 78
1, 22509, Note_on_c, 1, 62, 0
1, 22512, Note_on_c, 1, 50, 78
1, 22557, Note_on_c, 1, 50, 0
1, 22560, Note_on_c, 0, 67, 0
1, 22560, Note_on_c, 0, 66, 78
1, 22575, Note_on_c, 0, 66, 0
1, 22576, Note_on_c, 0, 69, 78
1, 22591, Note_on_c, 0, 69, 0
1, 22592, Note_on_c, 0, 72, 78
1, 22607, Note_on_c, 0, 72, 0
1, 22608, Note_on_c, 0, 76, 78
1, 22608, Note_on_c, 1, 54, 78
1, 22623, Note_on_c, 0, 76, 0
1, 22624, Note_on_c, 0, 74, 78
1, 22639, Note_on_c, 0, 74, 0
1, 22640, Note_on_c, 0, 72, 78
1, 22653, Note_on_c, 1, 54, 0
1, 22655, Note_on_c, 0, 72, 0
1, 22656, Note_on_c, 0, 72, 78
1, 22656, Note_on_c, 1, 55, 78
1, 22701, Note_on_c, 1, 55, 0
1, 22704, Note_on_c, 1, 43, 78
1, 22745, Note_on_c, 0, 72, 0
1, 22749, Note_on_c, 1, 43, 0
1, 22752, Note_on_c, 0, 72, 78
1, 22758, Note_on_c, 0, 72, 0
1, 22758, Note_on_c, 0, 71, 78
1, 22764, Note_on_c, 0, 71, 0
1, 22764, Note_on_c, 0, 69, 78
1, 22770, Note_on_c, 0, 69, 0
1, 22770, Note_on_c, 0, 71, 78
1, 22786, Note_on_c, 0, 71, 0
1, 22788, Note_on_c, 0, 74, 78
1, 22800, Note_on_c, 0, 74, 0
1, 22800, Note_on_c, 0, 67, 78
1, 22800, Note_on_c, 1, 59, 78
1, 22834, Note_on_c, 0, 67, 0
1, 22836, Note_on_c, 0, 71, 78
1, 22845, Note_on_c, 1, 59, 0
1, 22848, Note_on_c, 0, 71, 0
1, 22848, Note_on_c, 0, 64, 78
1, 22848, Note_on_c, 1, 60, 78
1, 22882, Note_on_c, 0, 64, 0
1, 22884, Note_on_c, 0, 68, 78
1, 22893, Note_on_c, 1, 60, 0
1, 22896, Note_on_c, 0, 68, 0
1, 22896, Note_on_c, 0, 69, 78
1, 22896, Note_on_c, 1, 48, 78
1, 22902, Note_on_c, 0, 69, 0
1, 22902, Note_on_c, 0, 68, 78
1, 22908, Note_on_c, 0, 68, 0
1, 22908, Note_on_c, 0, 69, 78
1, 22930, Note_on_c, 0, 69, 0
1, 22932, Note_on_c, 0, 72, 78
1, 22941, Note_on_c, 1, 48, 0
1, 22944, Note_on_c, 0, 72, 0
1, 22944, Note_on_c, 0, 71, 78
1, 22978, Note_on_c, 0, 71, 0
1, 22980, Note_on_c, 0, 74, 78
1, 22992, Note_on_c, 0, 74, 0
1, 22992, Note_on_c, 0, 66, 78
1, 22992, Note_on_c, 1, 60, 78
1, 22992, Note_on_c, 1, 50, 78
1, 23026, Note_on_c, 0, 66, 0
1, 23028, Note_on_c, 0, 69, 78
1, 23037, Note_on_c, 1, 60, 0
1, 23037, Note_on_c, 1, 50, 0
1, 23040, Note_on_c, 0, 69, 0
1, 23040, Note_on_c, 0, 67, 78
1, 23076, Note_on_c, 1, 43, 78
1, 23079, Note_on_c, 0, 67, 0
1, 23088, Note_on_c, 1, 43, 0
1, 23088, Note_on_c, 1, 55, 78
1, 23122, Note_on_c, 1, 55, 0
1, 23124, Note_on_c, 1, 54, 78
1, 23136, Note_on_c, 1, 54, 0
1, 23136, Note_on_c, 1, 55, 79
1, 23151, Note_on_c, 1, 55, 0
1, 23172, Note_on_c, 1, 55, 79
1, 23184, Note_on_c, 1, 55, 0
1, 23184, Note_on_c, 1, 59, 80
1, 23218, Note_on_c, 1, 59, 0
1, 23220, Note_on_c, 1, 62, 80
1, 23232, Note_on_c, 1, 62, 0
1, 23232, Note_on_c, 1, 67, 81
1, 23268, Note_on_c, 0, 74, 78
1, 23268, Note_on_c, 0, 71, 78
1, 23280, Note_on_c, 0, 74, 0
1, 23280, Note_on_c, 0, 71, 0
1, 23280, Note_on_c, 0, 79, 79
1, 23280, Note_on_c, 0, 71, 79
1, 23314, Note_on_c, 0, 79, 0
1, 23314, Note_on_c, 0, 71, 0
1, 23316, Note_on_c, 0, 79, 83
1, 23316, Note_on_c, 0, 71, 83
1, 23328, Note_on_c, 0, 79, 0
1, 23328, Note_on_c, 0, 71, 0
1, 23328, Note_on_c, 0, 79, 85
1, 23328, Note_on_c, 0, 71, 85
1, 23362, Note_on_c, 0, 79, 0
1, 23362, Note_on_c, 0, 71, 0
1, 23364, Note_on_c, 0, 77, 82
1, 23364, Note_on_c, 0, 74, 82
1, 23376, Note_on_c, 0, 77, 0
1, 23376, Note_on_c, 0, 74, 0
1, 23376, Note_on_c, 0, 76, 81
1, 23376, Note_on_c, 0, 72, 81
1, 23409, Note_on_c, 1, 67, 0
1, 23410, Note_on_c, 0, 76, 0
1, 23410, Note_on_c, 0, 72, 0
1, 23412, Note_on_c, 0, 74, 78
1, 23412, Note_on_c, 0, 71, 78
1, 23424, Note_on_c, 0, 74, 0
1, 23424, Note_on_c, 0, 71, 0
1, 23424, Note_on_c, 0, 74, 78
1, 23424, Note_on_c, 0, 71, 78
1, 23460, Note_on_c, 1, 43, 78
1, 23472, Note_on_c, 1, 43, 0
1, 23472, Note_on_c, 1, 55, 78
1, 23506, Note_on_c, 1, 55, 0
1, 23508, Note_on_c, 1, 54, 80
1, 23520, Note_on_c, 0, 74, 0
1, 23520, Note_on_c, 0, 71, 0
1, 23520, Note_on_c, 0, 76, 78
1, 23520, Note_on_c, 0, 72, 78
1, 23520, Note_on_c, 1, 54, 0
1, 23520, Note_on_c, 1, 55, 80
1, 23535, Note_on_c, 1, 55, 0
1, 23556, Note_on_c, 1, 55, 82
1, 23568, Note_on_c, 1, 55, 0
1, 23568, Note_on_c, 1, 60, 82
1, 23602, Note_on_c, 1, 60, 0
1, 23604, Note_on_c, 1, 64, 84
1, 23609, Note_on_c, 0, 76, 0
1, 23609, Note_on_c, 0, 72, 0
1, 23616, Note_on_c, 1, 64, 0
1, 23616, Note_on_c, 1, 67, 85
1, 23652, Note_on_c, 0, 79, 78
1, 23652, Note_on_c, 0, 76, 78
1, 23664, Note_on_c, 0, 79, 0
1, 23664, Note_on_c, 0, 76, 0
1, 23664, Note_on_c, 0, 84, 79
1, 23664, Note_on_c, 0, 76, 79
1, 23698, Note_on_c, 0, 84, 0
1, 23698, Note_on_c, 0, 76, 0
1, 23700, Note_on_c, 0, 84, 83
1, 23700, Note_on_c, 0, 76, 83
1, 23712, Note_on_c, 0, 84, 0
1, 23712, Note_on_c, 0, 76, 0
1, 23712, Note_on_c, 0, 84, 85
1, 23712, Note_on_c, 0, 76, 85
1, 23746, Note_on_c, 0, 84, 0
1, 23746, Note_on_c, 0, 76, 0
1, 23748, Note_on_c, 0, 79, 82
1, 23748, Note_on_c, 0, 76, 82
1, 23760, Note_on_c, 0, 79, 0
1, 23760, Note_on_c, 0, 76, 0
1, 23760, Note_on_c, 0, 77, 81
1, 23760, Note_on_c, 0, 74, 81
1, 23793, Note_on_c, 1, 67, 0
1, 23794, Note_on_c, 0, 77, 0
1, 23794, Note_on_c, 0, 74, 0
1, 23796, Note_on_c, 0, 76, 78
1, 23796, Note_on_c, 0, 72, 78
1, 23808, Note_on_c, 0, 76, 0
1, 23808, Note_on_c, 0, 72, 0
1, 23808, Note_on_c, 0, 76, 78
1, 23808, Note_on_c, 0, 72, 78
1, 23844, Note_on_c, 1, 43, 78
1, 23856, Note_on_c, 1, 43, 0
1, 23856, Note_on_c, 1, 55, 78
1, 23890, Note_on_c, 1, 55, 0
1, 23892, Note_on_c, 1, 54, 78
1, 23904, Note_on_c, 0, 76, 0
1, 23904, Note_on_c, 0, 72, 0
1, 23904, Note_on_c, 0, 74, 78
1, 23904, Note_on_c, 0, 71, 78
1, 23904, Note_on_c, 1, 54, 0
1, 23904, Note_on_c, 1, 55, 79
1, 23919, Note_on_c, 1, 55, 0
1, 23940, Note_on_c, 1, 55, 79
1, 23952, Note_on_c, 1, 55, 0
1, 23952, Note_on_c, 1, 59, 80
1, 23986, Note_on_c, 1, 59, 0
1, 23988, Note_on_c, 1, 62, 80
1, 23993, Note_on_c, 0, 74, 0
1, 23993, Note_on_c, 0, 71, 0
1, 24000, Note_on_c, 1, 62, 0
1, 24000, Note_on_c, 1, 67, 81
1, 24036, Note_on_c, 0, 74, 78
1, 24036, Note_on_c, 0, 71, 78
1, 24048, Note_on_c, 0, 74, 0
1, 24048, Note_on_c, 0, 71, 0
1, 24048, Note_on_c, 0, 83, 79
1, 24048, Note_on_c, 0, 74, 79
1, 24082, Note_on_c, 0, 83, 0
1, 24082, Note_on_c, 0, 74, 0
1, 24084, Note_on_c, 0, 83, 83
1, 24084, Note_on_c, 0, 74, 83
1, 24096, Note_on_c, 0, 83, 0
1, 24096, Note_on_c, 0, 74, 0
1, 24096, Note_on_c, 0, 83, 85
1, 24096, Note_on_c, 0, 74, 85
1, 24096, Note_on_c, 1, 67, 0
1, 24096, Note_on_c, 1, 68, 83
1, 24130, Note_on_c, 0, 83, 0
1, 24130, Note_on_c, 0, 74, 0
1, 24132, Note_on_c, 0, 77, 82
1, 24132, Note_on_c, 0, 74, 82
1, 24144, Note_on_c, 0, 77, 0
1, 24144, Note_on_c, 0, 74, 0
1, 24144, Note_on_c, 0, 76, 81
1, 24144, Note_on_c, 0, 72, 81
1, 24178, Note_on_c, 0, 76, 0
1, 24178, Note_on_c, 0, 72, 0
1, 24180, Note_on_c, 0, 74, 78
1, 24180, Note_on_c, 0, 71, 78
1, 24185, Note_on_c, 1, 68, 0
1, 24192, Note_on_c, 0, 74, 0
1, 24192, Note_on_c, 0, 71, 0
1, 24192, Note_on_c, 0, 74, 78
1, 24192, Note_on_c, 0, 71, 64
1, 24228, Note_on_c, 1, 45, 78
1, 24240, Note_on_c, 1, 45, 0
1, 24240, Note_on_c, 1, 57, 78
1, 24274, Note_on_c, 1, 57, 0
1, 24276, Note_on_c, 1, 56, 79
1, 24281, Note_on_c, 0, 74, 0
1, 24281, Note_on_c, 0, 71, 0
1, 24288, Note_on_c, 0, 72, 78
1, 24288, Note_on_c, 0, 69, 64
1, 24288, Note_on_c, 1, 56, 0
1, 24288, Note_on_c, 1, 57, 79
1, 24294, Note_on_c, 0, 72, 0
1, 24294, Note_on_c, 0, 74, 78
1, 24300, Note_on_c, 0, 74, 0
1, 24300, Note_on_c, 0, 72, 78
1, 24303, Note_on_c, 1, 57, 0
1, 24324, Note_on_c, 1, 57, 80
1, 24336, Note_on_c, 1, 57, 0
1, 24336, Note_on_c, 1, 60, 81
1, 24370, Note_on_c, 1, 60, 0
1, 24372, Note_on_c, 1, 64, 82
1, 24377, Note_on_c, 0, 69, 0
1, 24379, Note_on_c, 0, 72, 0
1, 24384, Note_on_c, 1, 64, 0
1, 24384, Note_on_c, 1, 69, 82
1, 24420, Note_on_c, 0, 81, 78
1, 24420, Note_on_c, 0, 72, 78
1, 24432, Note_on_c, 0, 81, 0
1, 24432, Note_on_c, 0, 72, 0
1, 24432, Note_on_c, 0, 81, 78
1, 24432, Note_on_c, 0, 72, 78
1, 24466, Note_on_c, 0, 81, 0
1, 24466, Note_on_c, 0, 72, 0
1, 24468, Note_on_c, 0, 81, 78
1, 24468, Note_on_c, 0, 72, 78
1, 24480, Note_on_c, 0, 81, 0
1, 24480, Note_on_c, 0, 72, 0
1, 24480, Note_on_c, 0, 81, 78
1, 24480, Note_on_c, 0, 72, 78
1, 24480, Note_on_c, 1, 69, 0
1, 24480, Note_on_c, 1, 63, 85
1, 24514, Note_on_c, 0, 81, 0
1, 24514, Note_on_c, 0, 72, 0
1, 24516, Note_on_c, 0, 72, 78
1, 24516, Note_on_c, 0, 69, 78
1, 24528, Note_on_c, 0, 72, 0
1, 24528, Note_on_c, 0, 69, 0
1, 24528, Note_on_c, 0, 72, 78
1, 24528, Note_on_c, 0, 69, 78
1, 24562, Note_on_c, 0, 72, 0
1, 24562, Note_on_c, 0, 69, 0
1, 24564, Note_on_c, 0, 72, 78
1, 24564, Note_on_c, 0, 69, 78
1, 24569, Note_on_c, 1, 63, 0
1, 24576, Note_on_c, 0, 72, 0
1, 24576, Note_on_c, 0, 69, 0
1, 24576, Note_on_c, 0, 71, 78
1, 24576, Note_on_c, 0, 68, 78
1, 24576, Note_on_c, 1, 52, 78
1, 24610, Note_on_c, 1, 52, 0
1, 24612, Note_on_c, 1, 64, 78
1, 24624, Note_on_c, 1, 64, 0
1, 24624, Note_on_c, 1, 63, 78
1, 24658, Note_on_c, 1, 63, 0
1, 24660, Note_on_c, 1, 64, 79
1, 24665, Note_on_c, 0, 71, 0
1, 24665, Note_on_c, 0, 68, 0
1, 24672, Note_on_c, 1, 64, 0
1, 24672, Note_on_c, 1, 62, 79
1, 24706, Note_on_c, 1, 62, 0
1, 24708, Note_on_c, 1, 64, 80
1, 24720, Note_on_c, 0, 68, 80
1, 24720, Note_on_c, 1, 64, 0
1, 24720, Note_on_c, 1, 59, 80
1, 24754, Note_on_c, 0, 68, 0
1, 24754, Note_on_c, 1, 59, 0
1, 24756, Note_on_c, 0, 80, 81
1, 24756, Note_on_c, 1, 64, 81
1, 24768, Note_on_c, 0, 80, 0
1, 24768, Note_on_c, 0, 69, 81
1, 24768, Note_on_c, 1, 64, 0
1, 24768, Note_on_c, 1, 60, 81
1, 24802, Note_on_c, 0, 69, 0
1, 24802, Note_on_c, 1, 60, 0
1, 24804, Note_on_c, 0, 81, 82
1, 24804, Note_on_c, 1, 64, 82
1, 24816, Note_on_c, 0, 81, 0
1, 24816, Note_on_c, 0, 71, 82
1, 24816, Note_on_c, 1, 64, 0
1, 24816, Note_on_c, 1, 56, 82
1, 24850, Note_on_c, 0, 71, 0
1, 24850, Note_on_c, 1, 56, 0
1, 24852, Note_on_c, 0, 83, 83
1, 24852, Note_on_c, 1, 64, 83
1, 24864, Note_on_c, 0, 83, 0
1, 24864, Note_on_c, 0, 72, 83
1, 24864, Note_on_c, 1, 64, 0
1, 24864, Note_on_c, 1, 57, 83
1, 24898, Note_on_c, 0, 72, 0
1, 24898, Note_on_c, 1, 57, 0
1, 24900, Note_on_c, 0, 84, 83
1, 24900, Note_on_c, 1, 64, 83
1, 24912, Note_on_c, 0, 84, 0
1, 24912, Note_on_c, 0, 75, 84
1, 24912, Note_on_c, 1, 64, 0
1, 24912, Note_on_c, 1, 54, 84
1, 24946, Note_on_c, 0, 75, 0
1, 24946, Note_on_c, 1, 54, 0
1, 24948, Note_on_c, 0, 87, 84
1, 24948, Note_on_c, 1, 64, 84
1, 24960, Note_on_c, 0, 87, 0
1, 24960, Note_on_c, 0, 76, 85
1, 24960, Note_on_c, 1, 64, 0
1, 24960, Note_on_c, 1, 52, 85
1, 24994, Note_on_c, 1, 52, 0
1, 24996, Note_on_c, 1, 64, 82
1, 25008, Note_on_c, 1, 64, 0
1, 25008, Note_on_c, 1, 63, 81
1, 25042, Note_on_c, 1, 63, 0
1, 25044, Note_on_c, 1, 64, 78
1, 25049, Note_on_c, 0, 76, 0
1, 25056, Note_on_c, 1, 64, 0
1, 25056, Note_on_c, 1, 62, 78
1, 25090, Note_on_c, 1, 62, 0
1, 25092, Note_on_c, 1, 64, 79
1, 25104, Note_on_c, 0, 68, 78
1, 25104, Note_on_c, 1, 64, 0
1, 25104, Note_on_c, 1, 59, 79
1, 25138, Note_on_c, 0, 68, 0
1, 25138, Note_on_c, 1, 59, 0
1, 25140, Note_on_c, 0, 71, 79
1, 25140, Note_on_c, 1, 64, 81
1, 25152, Note_on_c, 0, 71, 0
1, 25152, Note_on_c, 0, 69, 80
1, 25152, Note_on_c, 1, 64, 0
1, 25152, Note_on_c, 1, 60, 81
1, 25186, Note_on_c, 0, 69, 0
1, 25186, Note_on_c, 1, 60, 0
1, 25188, Note_on_c, 0, 72, 82
1, 25188, Note_on_c, 1, 64, 82
1, 25200, Note_on_c, 0, 72, 0
1, 25200, Note_on_c, 0, 71, 82
1, 25200, Note_on_c, 1, 64, 0
1, 25200, Note_on_c, 1, 56, 83
1, 25234, Note_on_c, 0, 71, 0
1, 25234, Note_on_c, 1, 56, 0
1, 25236, Note_on_c, 0, 74, 84
1, 25236, Note_on_c, 1, 64, 84
1, 25248, Note_on_c, 0, 74, 0
1, 25248, Note_on_c, 0, 72, 85
1, 25248, Note_on_c, 1, 64, 0
1, 25248, Note_on_c, 1, 57, 85
1, 25282, Note_on_c, 0, 72, 0
1, 25284, Note_on_c, 0, 76, 85
1, 25293, Note_on_c, 1, 57, 0
1, 25296, Note_on_c, 0, 76, 0
1, 25296, Note_on_c, 0, 73, 85
1, 25296, Note_on_c, 1, 67, 85
1, 25296, Note_on_c, 1, 69, 64
1, 25330, Note_on_c, 0, 73, 0
1, 25332, Note_on_c, 0, 76, 85
1, 25341, Note_on_c, 1, 67, 0
1, 25344, Note_on_c, 0, 76, 0
1, 25344, Note_on_c, 0, 74, 85
1, 25344, Note_on_c, 1, 65, 85
1, 25378, Note_on_c, 0, 74, 0
1, 25380, Note_on_c, 0, 77, 85
1, 25389, Note_on_c, 1, 65, 0
1, 25392, Note_on_c, 0, 77, 0
1, 25392, Note_on_c, 0, 76, 85
1, 25392, Note_on_c, 1, 61, 85
1, 25426, Note_on_c, 0, 76, 0
1, 25428, Note_on_c, 0, 79, 85
1, 25437, Note_on_c, 1, 61, 0
1, 25440, Note_on_c, 0, 79, 0
1, 25440, Note_on_c, 0, 77, 85
1, 25440, Note_on_c, 1, 62, 85
1, 25474, Note_on_c, 0, 77, 0
1, 25476, Note_on_c, 0, 81, 85
1, 25485, Note_on_c, 1, 62, 0
1, 25488, Note_on_c, 0, 81, 0
1, 25488, Note_on_c, 0, 76, 85
1, 25488, Note_on_c, 1, 64, 85
1, 25522, Note_on_c, 0, 76, 0
1, 25524, Note_on_c, 0, 81, 85
1, 25533, Note_on_c, 1, 64, 0
1, 25536, Note_on_c, 0, 81, 0
1, 25536, Note_on_c, 0, 74, 85
1, 25536, Note_on_c, 1, 65, 85
1, 25570, Note_on_c, 0, 74, 0
1, 25572, Note_on_c, 0, 81, 85
1, 25581, Note_on_c, 1, 65, 0
1, 25581, Note_on_c, 1, 69, 0
1, 25584, Note_on_c, 0, 81, 0
1, 25584, Note_on_c, 0, 72, 85
1, 25584, Note_on_c, 1, 64, 85
1, 25584, Note_on_c, 1, 67, 64
1, 25618, Note_on_c, 0, 72, 0
1, 25620, Note_on_c, 0, 81, 85
1, 25629, Note_on_c, 1, 64, 0
1, 25629, Note_on_c, 1, 67, 0
1, 25632, Note_on_c, 0, 81, 0
1, 25632, Note_on_c, 0, 71, 85
1, 25632, Note_on_c, 1, 62, 85
1, 25632, Note_on_c, 1, 65, 64
1, 25666, Note_on_c, 0, 71, 0
1, 25668, Note_on_c, 0, 81, 85
1, 25677, Note_on_c, 1, 62, 0
1, 25677, Note_on_c, 1, 65, 0
1, 25680, Note_on_c, 0, 81, 0
1, 25680, Note_on_c, 0, 69, 85
1, 25680, Note_on_c, 1, 60, 85
1, 25680, Note_on_c, 1, 64, 64
1, 25714, Note_on_c, 0, 69, 0
1, 25716, Note_on_c, 0, 81, 85
1, 25725, Note_on_c, 1, 60, 0
1, 25725, Note_on_c, 1, 64, 0
1, 25728, Note_on_c, 0, 81, 0
1, 25728, Note_on_c, 0, 68, 85
1, 25728, Note_on_c, 1, 59, 85
1, 25728, Note_on_c, 1, 62, 64
1, 25762, Note_on_c, 0, 68, 0
1, 25764, Note_on_c, 0, 80, 85
1, 25773, Note_on_c, 1, 59, 0
1, 25773, Note_on_c, 1, 62, 0
1, 25776, Note_on_c, 0, 80, 0
1, 25776, Note_on_c, 0, 65, 85
1, 25776, Note_on_c, 1, 57, 85
1, 25776, Note_on_c, 1, 60, 64
1, 25810, Note_on_c, 0, 65, 0
1, 25812, Note_on_c, 0, 77, 85
1, 25821, Note_on_c, 1, 57, 0
1, 25821, Note_on_c, 1, 60, 0
1, 25824, Note_on_c, 0, 77, 0
1, 25824, Note_on_c, 0, 64, 85
1, 25824, Note_on_c, 1, 56, 85
1, 25824, Note_on_c, 1, 59, 64
1, 25858, Note_on_c, 0, 64, 0
1, 25860, Note_on_c, 0, 83, 85
1, 25869, Note_on_c, 1, 59, 0
1, 25872, Note_on_c, 0, 83, 0
1, 25872, Note_on_c, 0, 71, 85
1, 25872, Note_on_c, 1, 64, 64
1, 25906, Note_on_c, 0, 71, 0
1, 25908, Note_on_c, 0, 74, 85
1, 25913, Note_on_c, 1, 56, 0
1, 25920, Note_on_c, 0, 74, 0
1, 25920, Note_on_c, 0, 72, 85
1, 25920, Note_on_c, 1, 57, 85
1, 25935, Note_on_c, 0, 72, 0
1, 25936, Note_on_c, 0, 83, 78
1, 25951, Note_on_c, 0, 83, 0
1, 25952, Note_on_c, 0, 84, 78
1, 25967, Note_on_c, 0, 84, 0
1, 25968, Note_on_c, 0, 80, 78
1, 25983, Note_on_c, 0, 80, 0
1, 25984, Note_on_c, 0, 81, 78
1, 25999, Note_on_c, 0, 81, 0
1, 26000, Note_on_c, 0, 77, 78
1, 26009, Note_on_c, 1, 57, 0
1, 26009, Note_on_c, 1, 64, 0
1, 26015, Note_on_c, 0, 77, 0
1, 26016, Note_on_c, 0, 76, 78
1, 26052, Note_on_c, 1, 64, 64
1, 26061, Note_on_c, 0, 76, 0
1, 26064, Note_on_c, 0, 76, 78
1, 26064, Note_on_c, 1, 64, 0
1, 26064, Note_on_c, 1, 66, 64
1, 26072, Note_on_c, 0, 76, 0
1, 26072, Note_on_c, 0, 74, 78
1, 26080, Note_on_c, 0, 74, 0
1, 26080, Note_on_c, 0, 76, 78
1, 26088, Note_on_c, 0, 76, 0
1, 26088, Note_on_c, 0, 74, 78
1, 26096, Note_on_c, 0, 74, 0
1, 26096, Note_on_c, 0, 72, 78
1, 26098, Note_on_c, 1, 66, 0
1, 26100, Note_on_c, 1, 68, 64
1, 26104, Note_on_c, 0, 72, 0
1, 26104, Note_on_c, 0, 74, 78
1, 26112, Note_on_c, 0, 74, 0
1, 26112, Note_on_c, 0, 72, 78
1, 26112, Note_on_c, 1, 69, 78
1, 26112, Note_on_c, 1, 68, 0
1, 26127, Note_on_c, 0, 72, 0
1, 26128, Note_on_c, 0, 83, 78
1, 26143, Note_on_c, 0, 83, 0
1, 26144, Note_on_c, 0, 84, 78
1, 26159, Note_on_c, 0, 84, 0
1, 26160, Note_on_c, 0, 80, 78
1, 26175, Note_on_c, 0, 80, 0
1, 26176, Note_on_c, 0, 81, 78
1, 26191, Note_on_c, 0, 81, 0
1, 26192, Note_on_c, 0, 77, 78
1, 26201, Note_on_c, 1, 69, 0
1, 26207, Note_on_c, 0, 77, 0
1, 26208, Note_on_c, 0, 76, 78
1, 26244, Note_on_c, 1, 64, 78
1, 26253, Note_on_c, 0, 76, 0
1, 26256, Note_on_c, 0, 76, 78
1, 26256, Note_on_c, 1, 64, 0
1, 26256, Note_on_c, 1, 66, 78
1, 26264, Note_on_c, 0, 76, 0
1, 26264, Note_on_c, 0, 74, 78
1, 26272, Note_on_c, 0, 74, 0
1, 26272, Note_on_c, 0, 76, 78
1, 26280, Note_on_c, 0, 76, 0
1, 26280, Note_on_c, 0, 74, 78
1, 26288, Note_on_c, 0, 74, 0
1, 26288, Note_on_c, 0, 72, 78
1, 26290, Note_on_c, 1, 66, 0
1, 26292, Note_on_c, 1, 68, 78
1, 26296, Note_on_c, 0, 72, 0
1, 26296, Note_on_c, 0, 74, 78
1, 26304, Note_on_c, 0, 74, 0
1, 26304, Note_on_c, 1, 68, 0
1, 26304, Note_on_c, 1, 69, 78
1, 26320, Note_on_c, 0, 72, 78
1, 26335, Note_on_c, 0, 72, 0
1, 26336, Note_on_c, 0, 76, 78
1, 26349, Note_on_c, 1, 69, 0
1, 26351, Note_on_c, 0, 76, 0
1, 26352, Note_on_c, 0, 81, 78
1, 26367, Note_on_c, 0, 81, 0
1, 26368, Note_on_c, 0, 76, 78
1, 26383, Note_on_c, 0, 76, 0
1, 26384, Note_on_c, 0, 72, 78
1, 26399, Note_on_c, 0, 72, 0
1, 26400, Note_on_c, 1, 65, 78
1, 26416, Note_on_c, 0, 69, 78
1, 26431, Note_on_c, 0, 69, 0
1, 26432, Note_on_c, 0, 72, 78
1, 26445, Note_on_c, 1, 65, 0
1, 26447, Note_on_c, 0, 72, 0
1, 26448, Note_on_c, 0, 81, 78
1, 26463, Note_on_c, 0, 81, 0
1, 26464, Note_on_c, 0, 72, 78
1, 26479, Note_on_c, 0, 72, 0
1, 26480, Note_on_c, 0, 69, 78
1, 26495, Note_on_c, 0, 69, 0
1, 26496, Note_on_c, 1, 64, 78
1, 26512, Note_on_c, 0, 69, 78
1, 26527, Note_on_c, 0, 69, 0
1, 26528, Note_on_c, 0, 72, 78
1, 26541, Note_on_c, 1, 64, 0
1, 26543, Note_on_c, 0, 72, 0
1, 26544, Note_on_c, 0, 81, 78
1, 26559, Note_on_c, 0, 81, 0
1, 26560, Note_on_c, 0, 72, 78
1, 26575, Note_on_c, 0, 72, 0
1, 26576, Note_on_c, 0, 69, 78
1, 26591, Note_on_c, 0, 69, 0
1, 26592, Note_on_c, 1, 63, 78
1, 26608, Note_on_c, 0, 69, 78
1, 26612, Note_on_c, 1, 63, 0
1, 26623, Note_on_c, 0, 69, 0
1, 26624, Note_on_c, 0, 81, 78
1, 26639, Note_on_c, 0, 81, 0
1, 26640, Note_on_c, 1, 75, 78
1, 26656, Note_on_c, 0, 72, 78
1, 26660, Note_on_c, 1, 75, 0
1, 26671, Note_on_c, 0, 72, 0
1, 26672, Note_on_c, 0, 84, 78
1, 26687, Note_on_c, 0, 84, 0
1, 26688, Note_on_c, 1, 62, 78
1, 26704, Note_on_c, 0, 68, 78
1, 26719, Note_on_c, 0, 68, 0
1, 26720, Note_on_c, 0, 71, 78
1, 26735, Note_on_c, 0, 71, 0
1, 26736, Note_on_c, 0, 77, 78
1, 26751, Note_on_c, 0, 77, 0
1, 26752, Note_on_c, 0, 71, 78
1, 26767, Note_on_c, 0, 71, 0
1, 26768, Note_on_c, 0, 68, 78
1, 26777, Note_on_c, 1, 62, 0
1, 26783, Note_on_c, 0, 68, 0
1, 26784, Note_on_c, 1, 68, 78
1, 26800, Note_on_c, 0, 71, 78
1, 26804, Note_on_c, 1, 68, 0
1, 26815, Note_on_c, 0, 71, 0
1, 26816, Note_on_c, 0, 83, 78
1, 26831, Note_on_c, 0, 83, 0
1, 26832, Note_on_c, 1, 62, 78
1, 26848, Note_on_c, 0, 68, 78
1, 26852, Note_on_c, 1, 62, 0
1, 26863, Note_on_c, 0, 68, 0
1, 26864, Note_on_c, 0, 80, 78
1, 26879, Note_on_c, 0, 80, 0
1, 26880, Note_on_c, 1, 60, 78
1, 26896, Note_on_c, 0, 69, 78
1, 26900, Note_on_c, 1, 60, 0
1, 26911, Note_on_c, 0, 69, 0
1, 26912, Note_on_c, 0, 81, 78
1, 26927, Note_on_c, 0, 81, 0
1, 26928, Note_on_c, 1, 61, 78
1, 26944, Note_on_c, 0, 67, 78
1, 26948, Note_on_c, 1, 61, 0
1, 26959, Note_on_c, 0, 67, 0
1, 26960, Note_on_c, 0, 79, 78
1, 26975, Note_on_c, 0, 79, 0
1, 26976, Note_on_c, 1, 62, 78
1, 26992, Note_on_c, 0, 65, 78
1, 26996, Note_on_c, 1, 62, 0
1, 27007, Note_on_c, 0, 65, 0
1, 27008, Note_on_c, 0, 77, 78
1, 27023, Note_on_c, 0, 77, 0
1, 27024, Note_on_c, 1, 64, 78
1, 27040, Note_on_c, 0, 67, 78
1, 27044, Note_on_c, 1, 64, 0
1, 27055, Note_on_c, 0, 67, 0
1, 27056, Note_on_c, 0, 73, 78
1, 27071, Note_on_c, 0, 73, 0
1, 27072, Note_on_c, 1, 65, 78
1, 27088, Note_on_c, 0, 69, 78
1, 27092, Note_on_c, 1, 65, 0
1, 27103, Note_on_c, 0, 69, 0
1, 27104, Note_on_c, 0, 74, 78
1, 27119, Note_on_c, 0, 74, 0
1, 27120, Note_on_c, 1, 69, 78
1, 27136, Note_on_c, 0, 69, 78
1, 27140, Note_on_c, 1, 69, 0
1, 27151, Note_on_c, 0, 69, 0
1, 27152, Note_on_c, 0, 77, 78
1, 27167, Note_on_c, 0, 77, 0
1, 27168, Note_on_c, 1, 65, 78
1, 27184, Note_on_c, 0, 69, 78
1, 27188, Note_on_c, 1, 65, 0
1, 27199, Note_on_c, 0, 69, 0
1, 27200, Note_on_c, 0, 74, 78
1, 27215, Note_on_c, 0, 74, 0
1, 27216, Note_on_c, 1, 64, 78
1, 27232, Note_on_c, 0, 67, 78
1, 27236, Note_on_c, 1, 64, 0
1, 27247, Note_on_c, 0, 67, 0
1, 27248, Note_on_c, 0, 72, 78
1, 27263, Note_on_c, 0, 72, 0
1, 27264, Note_on_c, 0, 70, 78
1, 27264, Note_on_c, 1, 62, 78
1, 27279, Note_on_c, 1, 62, 0
1, 27280, Note_on_c, 1, 50, 78
1, 27284, Note_on_c, 0, 70, 0
1, 27295, Note_on_c, 1, 50, 0
1, 27296, Note_on_c, 1, 53, 78
1, 27311, Note_on_c, 1, 53, 0
1, 27312, Note_on_c, 1, 58, 78
1, 27328, Note_on_c, 0, 65, 85
1, 27343, Note_on_c, 0, 65, 0
1, 27344, Note_on_c, 0, 70, 85
1, 27357, Note_on_c, 1, 58, 0
1, 27359, Note_on_c, 0, 70, 0
1, 27360, Note_on_c, 0, 74, 85
1, 27375, Note_on_c, 0, 74, 0
1, 27376, Note_on_c, 0, 70, 86
1, 27391, Note_on_c, 0, 70, 0
1, 27392, Note_on_c, 0, 74, 86
1, 27407, Note_on_c, 0, 74, 0
1, 27408, Note_on_c, 0, 77, 87
1, 27423, Note_on_c, 0, 77, 0
1, 27424, Note_on_c, 0, 74, 87
1, 27439, Note_on_c, 0, 74, 0
1, 27440, Note_on_c, 0, 77, 88
1, 27455, Note_on_c, 0, 77, 0
1, 27456, Note_on_c, 0, 82, 88
1, 27471, Note_on_c, 0, 82, 0
1, 27472, Note_on_c, 0, 77, 89
1, 27487, Note_on_c, 0, 77, 0
1, 27488, Note_on_c, 0, 82, 89
1, 27503, Note_on_c, 0, 82, 0
1, 27504, Note_on_c, 0, 86, 90
1, 27519, Note_on_c, 0, 86, 0
1, 27520, Note_on_c, 0, 82, 90
1, 27535, Note_on_c, 0, 82, 0
1, 27536, Note_on_c, 0, 86, 91
1, 27551, Note_on_c, 0, 86, 0
1, 27552, Note_on_c, 0, 89, 94
1, 27567, Note_on_c, 0, 89, 0
1, 27588, Note_on_c, 0, 69, 94
1, 27588, Note_on_c, 0, 66, 94
1, 27588, Note_on_c, 0, 63, 94
1, 27588, Note_on_c, 1, 60, 94
1, 27588, Note_on_c, 1, 57, 94
1, 27588, Note_on_c, 1, 54, 94
1, 27588, Note_on_c, 1, 51, 94
1, 27600, Note_on_c, 0, 69, 0
1, 27600, Note_on_c, 0, 66, 0
1, 27600, Note_on_c, 0, 63, 0
1, 27600, Note_on_c, 0, 69, 94
1, 27600, Note_on_c, 0, 66, 94
1, 27600, Note_on_c, 0, 63, 94
1, 27600, Note_on_c, 1, 60, 0
1, 27600, Note_on_c, 1, 57, 0
1, 27600, Note_on_c, 1, 54, 0
1, 27600, Note_on_c, 1, 51, 0
1, 27600, Note_on_c, 1, 60, 94
1, 27600, Note_on_c, 1, 57, 94
1, 27600, Note_on_c, 1, 54, 94
1, 27600, Note_on_c, 1, 51, 94
1, 27634, Note_on_c, 0, 69, 0
1, 27634, Note_on_c, 0, 66, 0
1, 27634, Note_on_c, 0, 63, 0
1, 27634, Note_on_c, 1, 60, 0
1, 27634, Note_on_c, 1, 57, 0
1, 27634, Note_on_c, 1, 54, 0
1, 27634, Note_on_c, 1, 51, 0
1, 27636, Note_on_c, 0, 69, 94
1, 27636, Note_on_c, 0, 66, 94
1, 27636, Note_on_c, 0, 63, 94
1, 27636, Note_on_c, 1, 60, 94
1, 27636, Note_on_c, 1, 57, 94
1, 27636, Note_on_c, 1, 54, 94
1, 27636, Note_on_c, 1, 51, 94
1, 27648, Note_on_c, 0, 69, 0
1, 27648, Note_on_c, 0, 66, 0
1, 27648, Note_on_c, 0, 63, 0
1, 27648, Note_on_c, 0, 64, 94
1, 27648, Note_on_c, 1, 60, 0
1, 27648, Note_on_c, 1, 57, 0
1, 27648, Note_on_c, 1, 54, 0
1, 27648, Note_on_c, 1, 51, 0
1, 27648, Note_on_c, 1, 60, 94
1, 27648, Note_on_c, 1, 57, 94
1, 27648, Note_on_c, 1, 52, 94
1, 27663, Note_on_c, 0, 64, 0
1, 27664, Note_on_c, 0, 69, 92
1, 27679, Note_on_c, 0, 69, 0
1, 27680, Note_on_c, 0, 72, 91
1, 27695, Note_on_c, 0, 72, 0
1, 27696, Note_on_c, 0, 76, 89
1, 27711, Note_on_c, 0, 76, 0
1, 27712, Note_on_c, 0, 72, 88
1, 27727, Note_on_c, 0, 72, 0
1, 27728, Note_on_c, 0, 69, 86
1, 27737, Note_on_c, 1, 60, 0
1, 27737, Note_on_c, 1, 57, 0
1, 27737, Note_on_c, 1, 52, 0
1, 27743, Note_on_c, 0, 69, 0
1, 27744, Note_on_c, 0, 64, 85
1, 27789, Note_on_c, 0, 64, 0
1, 27792, Note_on_c, 0, 56, 79
1, 27792, Note_on_c, 0, 50, 79
1, 27792, Note_on_c, 1, 40, 76
1, 27837, Note_on_c, 0, 56, 0
1, 27837, Note_on_c, 0, 50, 0
1, 27837, Note_on_c, 1, 40, 0
1, 27840, Note_on_c, 0, 56, 73
1, 27840, Note_on_c, 0, 50, 73
1, 27840, Note_on_c, 1, 33, 70
1, 27936, Note_on_c, 0, 56, 0
1, 27936, Note_on_c, 0, 50, 0
1, 27936, Note_on_c, 0, 57, 59
1, 27936, Note_on_c, 0, 48, 59
1, 27981, Note_on_c, 0, 57, 0
1, 27981, Note_on_c, 0, 48, 0
1, 27981, Note_on_c, 1, 33, 0
1, 27984, Note_on_c, 0, 76, 78
1, 27999, Note_on_c, 0, 76, 0
1, 28000, Note_on_c, 0, 81, 78
1, 28015, Note_on_c, 0, 81, 0
1, 28016, Note_on_c, 0, 84, 78
1, 28031, Note_on_c, 0, 84, 0
1, 28032, Note_on_c, 0, 76, 78
1, 28047, Note_on_c, 0, 76, 0
1, 28048, Note_on_c, 0, 75, 78
1, 28063, Note_on_c, 0, 75, 0
1, 28064, Note_on_c, 0, 74, 78
1, 28079, Note_on_c, 0, 74, 0
1, 28080, Note_on_c, 0, 83, 78
1, 28080, Note_on_c, 1, 64, 78
1, 28125, Note_on_c, 1, 64, 0
1, 28128, Note_on_c, 1, 66, 78
1, 28143, Note_on_c, 0, 83, 0
1, 28144, Note_on_c, 0, 81, 78
1, 28159, Note_on_c, 0, 81, 0
1, 28160, Note_on_c, 0, 80, 78
1, 28173, Note_on_c, 1, 66, 0
1, 28175, Note_on_c, 0, 80, 0
1, 28176, Note_on_c, 0, 78, 78
1, 28176, Note_on_c, 1, 68, 78
1, 28191, Note_on_c, 0, 78, 0
1, 28192, Note_on_c, 0, 76, 78
1, 28207, Note_on_c, 0, 76, 0
1, 28208, Note_on_c, 0, 74, 78
1, 28221, Note_on_c, 1, 68, 0
1, 28223, Note_on_c, 0, 74, 0
1, 28224, Note_on_c, 0, 72, 78
1, 28224, Note_on_c, 1, 69, 78
1, 28239, Note_on_c, 0, 72, 0
1, 28240, Note_on_c, 0, 76, 78
1, 28255, Note_on_c, 0, 76, 0
1, 28256, Note_on_c, 0, 81, 78
1, 28271, Note_on_c, 0, 81, 0
1, 28272, Note_on_c, 0, 76, 78
1, 28287, Note_on_c, 0, 76, 0
1, 28288, Note_on_c, 0, 81, 78
1, 28303, Note_on_c, 0, 81, 0
1, 28304, Note_on_c, 0, 84, 78
1, 28313, Note_on_c, 1, 69, 0
1, 28319, Note_on_c, 0, 84, 0
1, 28320, Note_on_c, 0, 88, 78
1, 28340, Note_on_c, 0, 88, 0
1, 28368, Note_on_c, 0, 76, 78
1, 28383, Note_on_c, 0, 76, 0
1, 28384, Note_on_c, 0, 81, 78
1, 28399, Note_on_c, 0, 81, 0
1, 28400, Note_on_c, 0, 84, 78
1, 28415, Note_on_c, 0, 84, 0
1, 28416, Note_on_c, 0, 76, 78
1, 28431, Note_on_c, 0, 76, 0
1, 28432, Note_on_c, 0, 75, 78
1, 28447, Note_on_c, 0, 75, 0
1, 28448, Note_on_c, 0, 74, 78
1, 28463, Note_on_c, 0, 74, 0
1, 28464, Note_on_c, 0, 83, 94
1, 28464, Note_on_c, 1, 64, 78
1, 28509, Note_on_c, 1, 64, 0
1, 28512, Note_on_c, 1, 66, 78
1, 28527, Note_on_c, 0, 83, 0
1, 28528, Note_on_c, 0, 81, 78
1, 28543, Note_on_c, 0, 81, 0
1, 28544, Note_on_c, 0, 80, 78
1, 28557, Note_on_c, 1, 66, 0
1, 28559, Note_on_c, 0, 80, 0
1, 28560, Note_on_c, 0, 78, 78
1, 28560, Note_on_c, 1, 68, 78
1, 28575, Note_on_c, 0, 78, 0
1, 28576, Note_on_c, 0, 76, 78
1, 28591, Note_on_c, 0, 76, 0
1, 28592, Note_on_c, 0, 74, 78
1, 28605, Note_on_c, 1, 68, 0
1, 28607, Note_on_c, 0, 74, 0
1, 28608, Note_on_c, 0, 74, 78
1, 28608, Note_on_c, 1, 69, 78
1, 28623, Note_on_c, 0, 74, 0
1, 28624, Note_on_c, 0, 73, 78
1, 28639, Note_on_c, 0, 73, 0
1, 28640, Note_on_c, 0, 72, 78
1, 28653, Note_on_c, 1, 69, 0
1, 28655, Note_on_c, 0, 72, 0
1, 28656, Note_on_c, 0, 81, 94
1, 28656, Note_on_c, 1, 62, 78
1, 28701, Note_on_c, 1, 62, 0
1, 28704, Note_on_c, 1, 64, 78
1, 28719, Note_on_c, 0, 81, 0
1, 28720, Note_on_c, 0, 79, 78
1, 28735, Note_on_c, 0, 79, 0
1, 28736, Note_on_c, 0, 78, 78
1, 28749, Note_on_c, 1, 64, 0
1, 28751, Note_on_c, 0, 78, 0
1, 28752, Note_on_c, 0, 76, 78
1, 28752, Note_on_c, 1, 66, 78
1, 28767, Note_on_c, 0, 76, 0
1, 28768, Note_on_c, 0, 74, 78
1, 28783, Note_on_c, 0, 74, 0
1, 28784, Note_on_c, 0, 72, 78
1, 28797, Note_on_c, 1, 66, 0
1, 28799, Note_on_c, 0, 72, 0
1, 28800, Note_on_c, 0, 72, 78
1, 28800, Note_on_c, 1, 67, 78
1, 28815, Note_on_c, 0, 72, 0
1, 28816, Note_on_c, 0, 71, 78
1, 28831, Note_on_c, 0, 71, 0
1, 28832, Note_on_c, 0, 70, 78
1, 28845, Note_on_c, 1, 67, 0
1, 28847, Note_on_c, 0, 70, 0
1, 28848, Note_on_c, 0, 79, 94
1, 28848, Note_on_c, 1, 60, 78
1, 28893, Note_on_c, 1, 60, 0
1, 28896, Note_on_c, 1, 62, 78
1, 28911, Note_on_c, 0, 79, 0
1, 28912, Note_on_c, 0, 77, 78
1, 28927, Note_on_c, 0, 77, 0
1, 28928, Note_on_c, 0, 76, 78
1, 28941, Note_on_c, 1, 62, 0
1, 28943, Note_on_c, 0, 76, 0
1, 28944, Note_on_c, 0, 74, 78
1, 28944, Note_on_c, 1, 64, 78
1, 28959, Note_on_c, 0, 74, 0
1, 28960, Note_on_c, 0, 72, 78
1, 28975, Note_on_c, 0, 72, 0
1, 28976, Note_on_c, 0, 70, 78
1, 28989, Note_on_c, 1, 64, 0
1, 28991, Note_on_c, 0, 70, 0
1, 28992, Note_on_c, 0, 69, 78
1, 28992, Note_on_c, 1, 65, 78
1, 29007, Note_on_c, 0, 69, 0
1, 29008, Note_on_c, 0, 77, 78
1, 29023, Note_on_c, 0, 77, 0
1, 29024, Note_on_c, 0, 76, 78
1, 29039, Note_on_c, 0, 76, 0
1, 29040, Note_on_c, 0, 74, 78
1, 29055, Note_on_c, 0, 74, 0
1, 29056, Note_on_c, 0, 81, 78
1, 29071, Note_on_c, 0, 81, 0
1, 29072, Note_on_c, 0, 79, 78
1, 29087, Note_on_c, 0, 79, 0
1, 29088, Note_on_c, 0, 77, 78
1, 29103, Note_on_c, 0, 77, 0
1, 29104, Note_on_c, 0, 76, 78
1, 29119, Note_on_c, 0, 76, 0
1, 29120, Note_on_c, 0, 74, 78
1, 29125, Note_on_c, 1, 65, 0
1, 29135, Note_on_c, 0, 74, 0
1, 29136, Note_on_c, 0, 72, 78
1, 29136, Note_on_c, 1, 66, 78
1, 29151, Note_on_c, 0, 72, 0
1, 29152, Note_on_c, 0, 71, 78
1, 29167, Note_on_c, 0, 71, 0
1, 29168, Note_on_c, 0, 72, 78
1, 29181, Note_on_c, 1, 66, 0
1, 29183, Note_on_c, 0, 72, 0
1, 29184, Note_on_c, 0, 72, 78
1, 29184, Note_on_c, 1, 67, 78
1, 29229, Note_on_c, 1, 67, 0
1, 29232, Note_on_c, 1, 62, 78
1, 29277, Note_on_c, 1, 62, 0
1, 29280, Note_on_c, 0, 72, 0
1, 29280, Note_on_c, 0, 71, 78
1, 29280, Note_on_c, 1, 55, 78
1, 29300, Note_on_c, 0, 71, 0
1, 29325, Note_on_c, 1, 55, 0
1, 29328, Note_on_c, 0, 72, 78
1, 29362, Note_on_c, 0, 72, 0
1, 29364, Note_on_c, 0, 76, 78
1, 29376, Note_on_c, 0, 76, 0
1, 29376, Note_on_c, 0, 79, 78
1, 29410, Note_on_c, 0, 79, 0
1, 29412, Note_on_c, 0, 76, 78
1, 29424, Note_on_c, 0, 76, 0
1, 29424, Note_on_c, 0, 84, 94
1, 29424, Note_on_c, 1, 48, 78
1, 29469, Note_on_c, 1, 48, 0
1, 29472, Note_on_c, 1, 60, 78
1, 29506, Note_on_c, 0, 84, 0
1, 29508, Note_on_c, 0, 83, 78
1, 29517, Note_on_c, 1, 60, 0
1, 29520, Note_on_c, 0, 83, 0
1, 29520, Note_on_c, 0, 81, 78
1, 29520, Note_on_c, 1, 64, 78
1, 29554, Note_on_c, 0, 81, 0
1, 29556, Note_on_c, 0, 79, 78
1, 29565, Note_on_c, 1, 64, 0
1, 29568, Note_on_c, 0, 79, 0
1, 29568, Note_on_c, 0, 79, 78
1, 29568, Note_on_c, 1, 62, 78
1, 29613, Note_on_c, 1, 62, 0
1, 29616, Note_on_c, 1, 50, 78
1, 29657, Note_on_c, 0, 79, 0
1, 29661, Note_on_c, 1, 50, 0
1, 29664, Note_on_c, 0, 77, 78
1, 29664, Note_on_c, 1, 62, 78
1, 29670, Note_on_c, 0, 77, 0
1, 29670, Note_on_c, 0, 79, 78
1, 29676, Note_on_c, 0, 79, 0
1, 29676, Note_on_c, 0, 77, 78
1, 29698, Note_on_c, 0, 77, 0
1, 29700, Note_on_c, 0, 76, 78
1, 29709, Note_on_c, 1, 62, 0
1, 29712, Note_on_c, 0, 76, 0
1, 29712, Note_on_c, 0, 74, 78
1, 29712, Note_on_c, 1, 65, 78
1, 29718, Note_on_c, 0, 74, 0
1, 29718, Note_on_c, 0, 76, 78
1, 29724, Note_on_c, 0, 76, 0
1, 29724, Note_on_c, 0, 74, 78
1, 29746, Note_on_c, 0, 74, 0
1, 29748, Note_on_c, 0, 72, 78
1, 29757, Note_on_c, 1, 65, 0
1, 29760, Note_on_c, 0, 72, 0
1, 29760, Note_on_c, 0, 72, 78
1, 29760, Note_on_c, 1, 67, 78
1, 29805, Note_on_c, 1, 67, 0
1, 29808, Note_on_c, 1, 55, 78
1, 29853, Note_on_c, 1, 55, 0
1, 29856, Note_on_c, 0, 72, 0
1, 29856, Note_on_c, 0, 71, 78
1, 29871, Note_on_c, 0, 71, 0
1, 29872, Note_on_c, 0, 74, 78
1, 29887, Note_on_c, 0, 74, 0
1, 29888, Note_on_c, 0, 77, 78
1, 29903, Note_on_c, 0, 77, 0
1, 29904, Note_on_c, 0, 81, 78
1, 29904, Note_on_c, 1, 59, 78
1, 29919, Note_on_c, 0, 81, 0
1, 29920, Note_on_c, 0, 79, 78
1, 29935, Note_on_c, 0, 79, 0
1, 29936, Note_on_c, 0, 77, 78
1, 29949, Note_on_c, 1, 59, 0
1, 29951, Note_on_c, 0, 77, 0
1, 29952, Note_on_c, 0, 77, 78
1, 29952, Note_on_c, 1, 60, 78
1, 29997, Note_on_c, 1, 60, 0
1, 30000, Note_on_c, 1, 48, 78
1, 30041, Note_on_c, 0, 77, 0
1, 30045, Note_on_c, 1, 48, 0
1, 30048, Note_on_c, 0, 77, 78
1, 30054, Note_on_c, 0, 77, 0
1, 30054, Note_on_c, 0, 76, 78
1, 30060, Note_on_c, 0, 76, 0
1, 30060, Note_on_c, 0, 74, 78
1, 30066, Note_on_c, 0, 74, 0
1, 30066, Note_on_c, 0, 76, 78
1, 30082, Note_on_c, 0, 76, 0
1, 30084, Note_on_c, 0, 79, 78
1, 30096, Note_on_c, 0, 79, 0
1, 30096, Note_on_c, 0, 72, 78
1, 30096, Note_on_c, 1, 52, 78
1, 30130, Note_on_c, 0, 72, 0
1, 30132, Note_on_c, 0, 76, 78
1, 30141, Note_on_c, 1, 52, 0
1, 30144, Note_on_c, 0, 76, 0
1, 30144, Note_on_c, 0, 69, 78
1, 30144, Note_on_c, 1, 53, 78
1, 30178, Note_on_c, 0, 69, 0
1, 30180, Note_on_c, 0, 73, 78
1, 30189, Note_on_c, 1, 53, 0
1, 30192, Note_on_c, 0, 73, 0
1, 30192, Note_on_c, 0, 74, 78
1, 30192, Note_on_c, 1, 41, 78
1, 30198, Note_on_c, 0, 74, 0
1, 30198, Note_on_c, 0, 73, 78
1, 30204, Note_on_c, 0, 73, 0
1, 30204, Note_on_c, 0, 74, 78
1, 30226, Note_on_c, 0, 74, 0
1, 30228, Note_on_c, 0, 77, 78
1, 30237, Note_on_c, 1, 41, 0
1, 30240, Note_on_c, 0, 77, 0
1, 30240, Note_on_c, 0, 76, 78
1, 30274, Note_on_c, 0, 76, 0
1, 30276, Note_on_c, 0, 79, 78
1, 30288, Note_on_c, 0, 79, 0
1, 30288, Note_on_c, 0, 71, 78
1, 30288, Note_on_c, 1, 65, 78
1, 30288, Note_on_c, 1, 55, 78
1, 30322, Note_on_c, 0, 71, 0
1, 30324, Note_on_c, 0, 74, 78
1, 30333, Note_on_c, 1, 65, 0
1, 30333, Note_on_c, 1, 55, 0
1, 30336, Note_on_c, 0, 74, 0
1, 30336, Note_on_c, 0, 72, 78
1, 30372, Note_on_c, 1, 48, 78
1, 30375, Note_on_c, 0, 72, 0
1, 30384, Note_on_c, 1, 48, 0
1, 30384, Note_on_c, 1, 52, 78
1, 30418, Note_on_c, 1, 52, 0
1, 30420, Note_on_c, 1, 55, 78
1, 30432, Note_on_c, 1, 55, 0
1, 30432, Note_on_c, 1, 60, 78
1, 30452, Note_on_c, 1, 60, 0
1, 30480, Note_on_c, 0, 60, 78
1, 30514, Note_on_c, 0, 60, 0
1, 30516, Note_on_c, 0, 64, 80
1, 30528, Note_on_c, 0, 64, 0
1, 30528, Note_on_c, 0, 67, 81
1, 30562, Note_on_c, 0, 67, 0
1, 30564, Note_on_c, 0, 64, 84
1, 30564, Note_on_c, 1, 36, 78
1, 30576, Note_on_c, 0, 64, 0
1, 30576, Note_on_c, 0, 72, 85
1, 30576, Note_on_c, 1, 36, 0
1, 30576, Note_on_c, 1, 40, 78
1, 30610, Note_on_c, 1, 40, 0
1, 30612, Note_on_c, 1, 43, 78
1, 30624, Note_on_c, 1, 43, 0
1, 30624, Note_on_c, 1, 48, 78
1, 30658, Note_on_c, 0, 72, 0
1, 30660, Note_on_c, 0, 71, 80
1, 30669, Note_on_c, 1, 48, 0
1, 30672, Note_on_c, 0, 71, 0
1, 30672, Note_on_c, 0, 69, 80
1, 30672, Note_on_c, 1, 52, 78
1, 30706, Note_on_c, 0, 69, 0
1, 30708, Note_on_c, 0, 67, 78
1, 30717, Note_on_c, 1, 52, 0
1, 30720, Note_on_c, 0, 67, 0
1, 30720, Note_on_c, 0, 67, 78
1, 30756, Note_on_c, 1, 50, 78
1, 30768, Note_on_c, 1, 50, 0
1, 30768, Note_on_c, 1, 53, 78
1, 30802, Note_on_c, 1, 53, 0
1, 30804, Note_on_c, 1, 57, 78
1, 30809, Note_on_c, 0, 67, 0
1, 30816, Note_on_c, 0, 65, 78
1, 30816, Note_on_c, 1, 57, 0
1, 30816, Note_on_c, 1, 62, 78
1, 30822, Note_on_c, 0, 65, 0
1, 30822, Note_on_c, 0, 67, 78
1, 30828, Note_on_c, 0, 67, 0
1, 30828, Note_on_c, 0, 65, 78
1, 30850, Note_on_c, 0, 65, 0
1, 30850, Note_on_c, 1, 62, 0
1, 30852, Note_on_c, 0, 64, 78
1, 30852, Note_on_c, 1, 60, 78
1, 30864, Note_on_c, 0, 64, 0
1, 30864, Note_on_c, 0, 62, 78
1, 30864, Note_on_c, 1, 60, 0
1, 30864, Note_on_c, 1, 59, 78
1, 30870, Note_on_c, 0, 62, 0
1, 30870, Note_on_c, 0, 64, 78
1, 30870, Note_on_c, 1, 59, 0
1, 30870, Note_on_c, 1, 60, 78
1, 30876, Note_on_c, 0, 64, 0
1, 30876, Note_on_c, 0, 62, 78
1, 30876, Note_on_c, 1, 60, 0
1, 30876, Note_on_c, 1, 59, 78
1, 30898, Note_on_c, 0, 62, 0
1, 30898, Note_on_c, 1, 59, 0
1, 30900, Note_on_c, 0, 60, 78
1, 30900, Note_on_c, 1, 57, 78
1, 30912, Note_on_c, 0, 60, 0
1, 30912, Note_on_c, 0, 60, 78
1, 30912, Note_on_c, 1, 57, 0
1, 30912, Note_on_c, 1, 55, 78
1, 30946, Note_on_c, 1, 55, 0
1, 30948, Note_on_c, 1, 43, 78
1, 30960, Note_on_c, 1, 43, 0
1, 30960, Note_on_c, 1, 47, 78
1, 30994, Note_on_c, 1, 47, 0
1, 30996, Note_on_c, 1, 50, 78
1, 31008, Note_on_c, 0, 60, 0
1, 31008, Note_on_c, 0, 59, 78
1, 31008, Note_on_c, 1, 50, 0
1, 31008, Note_on_c, 1, 55, 78
1, 31023, Note_on_c, 0, 59, 0
1, 31024, Note_on_c, 0, 62, 78
1, 31028, Note_on_c, 1, 55, 0
1, 31039, Note_on_c, 0, 62, 0
1, 31040, Note_on_c, 0, 65, 78
1, 31055, Note_on_c, 0, 65, 0
1, 31056, Note_on_c, 0, 69, 78
1, 31056, Note_on_c, 1, 47, 78
1, 31071, Note_on_c, 0, 69, 0
1, 31072, Note_on_c, 0, 67, 78
1, 31087, Note_on_c, 0, 67, 0
1, 31088, Note_on_c, 0, 65, 78
1, 31101, Note_on_c, 1, 47, 0
1, 31103, Note_on_c, 0, 65, 0
1, 31104, Note_on_c, 0, 65, 78
1, 31140, Note_on_c, 1, 36, 78
1, 31152, Note_on_c, 1, 36, 0
1, 31152, Note_on_c, 1, 48, 78
1, 31186, Note_on_c, 1, 48, 0
1, 31188, Note_on_c, 1, 47, 80
1, 31193, Note_on_c, 0, 65, 0
1, 31200, Note_on_c, 0, 64, 78
1, 31200, Note_on_c, 1, 47, 0
1, 31200, Note_on_c, 1, 48, 80
1, 31206, Note_on_c, 0, 64, 0
1, 31206, Note_on_c, 0, 65, 78
1, 31212, Note_on_c, 0, 65, 0
1, 31212, Note_on_c, 0, 64, 78
1, 31215, Note_on_c, 1, 48, 0
1, 31236, Note_on_c, 1, 48, 82
1, 31247, Note_on_c, 0, 64, 0
1, 31248, Note_on_c, 1, 48, 0
1, 31248, Note_on_c, 1, 52, 82
1, 31282, Note_on_c, 1, 52, 0
1, 31284, Note_on_c, 1, 55, 84
1, 31296, Note_on_c, 1, 55, 0
1, 31296, Note_on_c, 1, 58, 85
1, 31332, Note_on_c, 0, 60, 78
1, 31344, Note_on_c, 0, 60, 0
1, 31344, Note_on_c, 0, 64, 79
1, 31378, Note_on_c, 0, 64, 0
1, 31380, Note_on_c, 0, 67, 83
1, 31392, Note_on_c, 0, 67, 0
1, 31392, Note_on_c, 0, 72, 85
1, 31426, Note_on_c, 0, 72, 0
1, 31428, Note_on_c, 0, 67, 82
1, 31428, Note_on_c, 0, 64, 82
1, 31440, Note_on_c, 0, 67, 0
1, 31440, Note_on_c, 0, 64, 0
1, 31440, Note_on_c, 0, 67, 81
1, 31440, Note_on_c, 0, 64, 81
1, 31473, Note_on_c, 1, 58, 0
1, 31474, Note_on_c, 0, 67, 0
1, 31474, Note_on_c, 0, 64, 0
1, 31476, Note_on_c, 0, 67, 78
1, 31476, Note_on_c, 0, 64, 78
1, 31488, Note_on_c, 0, 67, 0
1, 31488, Note_on_c, 0, 64, 0
1, 31488, Note_on_c, 0, 67, 78
1, 31488, Note_on_c, 0, 64, 78
1, 31524, Note_on_c, 1, 36, 78
1, 31536, Note_on_c, 1, 36, 0
1, 31536, Note_on_c, 1, 48, 78
1, 31570, Note_on_c, 1, 48, 0
1, 31572, Note_on_c, 1, 47, 80
1, 31584, Note_on_c, 0, 67, 0
1, 31584, Note_on_c, 0, 64, 0
1, 31584, Note_on_c, 0, 69, 78
1, 31584, Note_on_c, 0, 65, 78
1, 31584, Note_on_c, 1, 47, 0
1, 31584, Note_on_c, 1, 48, 80
1, 31599, Note_on_c, 1, 48, 0
1, 31620, Note_on_c, 1, 48, 82
1, 31629, Note_on_c, 0, 69, 0
1, 31629, Note_on_c, 0, 65, 0
1, 31632, Note_on_c, 1, 48, 0
1, 31632, Note_on_c, 1, 53, 82
1, 31666, Note_on_c, 1, 53, 0
1, 31668, Note_on_c, 1, 57, 84
1, 31680, Note_on_c, 1, 57, 0
1, 31680, Note_on_c, 1, 60, 85
1, 31716, Note_on_c, 0, 65, 78
1, 31728, Note_on_c, 0, 65, 0
1, 31728, Note_on_c, 0, 77, 79
1, 31728, Note_on_c, 0, 69, 79
1, 31762, Note_on_c, 0, 77, 0
1, 31762, Note_on_c, 0, 69, 0
1, 31764, Note_on_c, 0, 77, 83
1, 31764, Note_on_c, 0, 69, 83
1, 31776, Note_on_c, 0, 77, 0
1, 31776, Note_on_c, 0, 69, 0
1, 31776, Note_on_c, 0, 77, 85
1, 31776, Note_on_c, 0, 69, 85
1, 31810, Note_on_c, 0, 77, 0
1, 31810, Note_on_c, 0, 69, 0
1, 31812, Note_on_c, 0, 72, 82
1, 31812, Note_on_c, 0, 69, 82
1, 31824, Note_on_c, 0, 72, 0
1, 31824, Note_on_c, 0, 69, 0
1, 31824, Note_on_c, 0, 70, 81
1, 31824, Note_on_c, 0, 67, 81
1, 31857, Note_on_c, 1, 60, 0
1, 31858, Note_on_c, 0, 70, 0
1, 31858, Note_on_c, 0, 67, 0
1, 31860, Note_on_c, 0, 69, 78
1, 31860, Note_on_c, 0, 65, 78
1, 31872, Note_on_c, 0, 69, 0
1, 31872, Note_on_c, 0, 65, 0
1, 31872, Note_on_c, 0, 69, 78
1, 31872, Note_on_c, 0, 65, 78
1, 31908, Note_on_c, 1, 36, 78
1, 31920, Note_on_c, 1, 36, 0
1, 31920, Note_on_c, 1, 48, 78
1, 31954, Note_on_c, 1, 48, 0
1, 31956, Note_on_c, 1, 47, 80
1, 31968, Note_on_c, 0, 69, 0
1, 31968, Note_on_c, 0, 65, 0
1, 31968, Note_on_c, 0, 67, 78
1, 31968, Note_on_c, 0, 64, 78
1, 31968, Note_on_c, 1, 47, 0
1, 31968, Note_on_c, 1, 48, 80
1, 31983, Note_on_c, 1, 48, 0
1, 32004, Note_on_c, 1, 48, 82
1, 32013, Note_on_c, 0, 67, 0
1, 32013, Note_on_c, 0, 64, 0
1, 32016, Note_on_c, 1, 48, 0
1, 32016, Note_on_c, 1, 52, 82
1, 32050, Note_on_c, 1, 52, 0
1, 32052, Note_on_c, 1, 55, 84
1, 32064, Note_on_c, 1, 55, 0
1, 32064, Note_on_c, 1, 60, 85
1, 32100, Note_on_c, 0, 67, 78
1, 32112, Note_on_c, 0, 67, 0
1, 32112, Note_on_c, 0, 76, 78
1, 32146, Note_on_c, 0, 76, 0
1, 32148, Note_on_c, 0, 74, 78
1, 32153, Note_on_c, 1, 60, 0
1, 32160, Note_on_c, 0, 74, 0
1, 32160, Note_on_c, 0, 72, 78
1, 32194, Note_on_c, 0, 72, 0
1, 32196, Note_on_c, 0, 71, 78
1, 32208, Note_on_c, 0, 71, 0
1, 32208, Note_on_c, 0, 69, 78
1, 32208, Note_on_c, 1, 60, 85
1, 32242, Note_on_c, 0, 69, 0
1, 32244, Note_on_c, 0, 67, 78
1, 32253, Note_on_c, 1, 60, 0
1, 32256, Note_on_c, 0, 67, 0
1, 32256, Note_on_c, 0, 67, 78
1, 32256, Note_on_c, 1, 62, 85
1, 32290, Note_on_c, 0, 67, 0
1, 32292, Note_on_c, 0, 66, 78
1, 32301, Note_on_c, 1, 62, 0
1, 32304, Note_on_c, 0, 66, 0
1, 32304, Note_on_c, 0, 74, 78
1, 32304, Note_on_c, 1, 59, 85
1, 32338, Note_on_c, 0, 74, 0
1, 32340, Note_on_c, 0, 65, 78
1, 32349, Note_on_c, 1, 59, 0
1, 32352, Note_on_c, 0, 65, 0
1, 32352, Note_on_c, 0, 65, 78
1, 32352, Note_on_c, 1, 60, 85
1, 32386, Note_on_c, 0, 65, 0
1, 32388, Note_on_c, 0, 64, 78
1, 32397, Note_on_c, 1, 60, 0
1, 32400, Note_on_c, 0, 64, 0
1, 32400, Note_on_c, 0, 72, 78
1, 32434, Note_on_c, 0, 72, 0
1, 32436, Note_on_c, 0, 61, 85
1, 32436, Note_on_c, 1, 49, 85
1, 32448, Note_on_c, 0, 61, 0
1, 32448, Note_on_c, 0, 62, 85
1, 32448, Note_on_c, 1, 49, 0
1, 32448, Note_on_c, 1, 50, 85
1, 32463, Note_on_c, 0, 62, 0
1, 32463, Note_on_c, 1, 50, 0
1, 32484, Note_on_c, 0, 64, 85
1, 32484, Note_on_c, 1, 52, 85
1, 32496, Note_on_c, 0, 64, 0
1, 32496, Note_on_c, 0, 65, 85
1, 32496, Note_on_c, 1, 52, 0
1, 32496, Note_on_c, 1, 53, 85
1, 32511, Note_on_c, 0, 65, 0
1, 32511, Note_on_c, 1, 53, 0
1, 32532, Note_on_c, 0, 66, 85
1, 32532, Note_on_c, 1, 54, 85
1, 32544, Note_on_c, 0, 66, 0
1, 32544, Note_on_c, 0, 67, 85
1, 32544, Note_on_c, 1, 54, 0
1, 32544, Note_on_c, 1, 55, 85
1, 32559, Note_on_c, 0, 67, 0
1, 32559, Note_on_c, 1, 55, 0
1, 32580, Note_on_c, 0, 68, 85
1, 32580, Note_on_c, 1, 56, 85
1, 32592, Note_on_c, 0, 68, 0
1, 32592, Note_on_c, 0, 69, 85
1, 32592, Note_on_c, 1, 56, 0
1, 32592, Note_on_c, 1, 57, 85
1, 32607, Note_on_c, 0, 69, 0
1, 32607, Note_on_c, 1, 57, 0
1, 32628, Note_on_c, 0, 65, 85
1, 32628, Note_on_c, 0, 62, 85
1, 32628, Note_on_c, 1, 53, 85
1, 32640, Note_on_c, 0, 65, 0
1, 32640, Note_on_c, 0, 62, 0
1, 32640, Note_on_c, 0, 64, 85
1, 32640, Note_on_c, 0, 60, 85
1, 32640, Note_on_c, 1, 53, 0
1, 32640, Note_on_c, 1, 55, 85
1, 32729, Note_on_c, 1, 55, 0
1, 32736, Note_on_c, 0, 64, 0
1, 32736, Note_on_c, 0, 60, 0
1, 32736, Note_on_c, 0, 62, 85
1, 32736, Note_on_c, 0, 59, 85
1, 32736, Note_on_c, 1, 43, 85
1, 32756, Note_on_c, 0, 62, 0
1, 32756, Note_on_c, 0, 59, 0
1, 32781, Note_on_c, 1, 43, 0
1, 32784, Note_on_c, 0, 64, 78
1, 32818, Note_on_c, 0, 64, 0
1, 32820, Note_on_c, 0, 67, 78
1, 32832, Note_on_c, 0, 67, 0
1, 32832, Note_on_c, 0, 72, 78
1, 32866, Note_on_c, 0, 72, 0
1, 32868, Note_on_c, 0, 67, 78
1, 32880, Note_on_c, 0, 67, 0
1, 32880, Note_on_c, 0, 76, 94
1, 32880, Note_on_c, 1, 52, 78
1, 32880, Note_on_c, 1, 48, 78
1, 32925, Note_on_c, 1, 52, 0
1, 32925, Note_on_c, 1, 48, 0
1, 32928, Note_on_c, 1, 64, 78
1, 32928, Note_on_c, 1, 60, 78
1, 32943, Note_on_c, 0, 76, 0
1, 32944, Note_on_c, 0, 71, 78
1, 32959, Note_on_c, 0, 71, 0
1, 32960, Note_on_c, 0, 72, 78
1, 32973, Note_on_c, 1, 64, 0
1, 32973, Note_on_c, 1, 60, 0
1, 32975, Note_on_c, 0, 72, 0
1, 32976, Note_on_c, 0, 76, 78
1, 32991, Note_on_c, 0, 76, 0
1, 32992, Note_on_c, 0, 72, 78
1, 33007, Note_on_c, 0, 72, 0
1, 33008, Note_on_c, 0, 69, 78
1, 33023, Note_on_c, 0, 69, 0
1, 33024, Note_on_c, 0, 67, 78
1, 33069, Note_on_c, 0, 67, 0
1, 33072, Note_on_c, 0, 65, 78
1, 33072, Note_on_c, 1, 53, 78
1, 33072, Note_on_c, 1, 50, 78
1, 33078, Note_on_c, 0, 65, 0
1, 33078, Note_on_c, 0, 67, 78
1, 33084, Note_on_c, 0, 67, 0
1, 33084, Note_on_c, 0, 65, 78
1, 33117, Note_on_c, 1, 53, 0
1, 33117, Note_on_c, 1, 50, 0
1, 33119, Note_on_c, 0, 65, 0
1, 33120, Note_on_c, 1, 65, 78
1, 33120, Note_on_c, 1, 62, 78
1, 33165, Note_on_c, 1, 65, 0
1, 33165, Note_on_c, 1, 62, 0
1, 33168, Note_on_c, 0, 65, 78
1, 33202, Note_on_c, 0, 65, 0
1, 33204, Note_on_c, 0, 71, 78
1, 33216, Note_on_c, 0, 71, 0
1, 33216, Note_on_c, 0, 74, 78
1, 33250, Note_on_c, 0, 74, 0
1, 33252, Note_on_c, 0, 71, 78
1, 33264, Note_on_c, 0, 71, 0
1, 33264, Note_on_c, 0, 77, 94
1, 33264, Note_on_c, 1, 47, 78
1, 33264, Note_on_c, 1, 43, 78
1, 33309, Note_on_c, 1, 47, 0
1, 33309, Note_on_c, 1, 43, 0
1, 33312, Note_on_c, 1, 59, 78
1, 33312, Note_on_c, 1, 55, 78
1, 33327, Note_on_c, 0, 77, 0
1, 33328, Note_on_c, 0, 74, 78
1, 33343, Note_on_c, 0, 74, 0
1, 33344, Note_on_c, 0, 71, 78
1, 33357, Note_on_c, 1, 59, 0
1, 33357, Note_on_c, 1, 55, 0
1, 33359, Note_on_c, 0, 71, 0
1, 33360, Note_on_c, 0, 74, 78
1, 33375, Note_on_c, 0, 74, 0
1, 33376, Note_on_c, 0, 71, 78
1, 33391, Note_on_c, 0, 71, 0
1, 33392, Note_on_c, 0, 67, 78
1, 33407, Note_on_c, 0, 67, 0
1, 33408, Note_on_c, 0, 65, 78
1, 33453, Note_on_c, 0, 65, 0
1, 33456, Note_on_c, 0, 64, 78
1, 33456, Note_on_c, 1, 52, 78
1, 33456, Note_on_c, 1, 48, 78
1, 33462, Note_on_c, 0, 64, 0
1, 33462, Note_on_c, 0, 65, 78
1, 33468, Note_on_c, 0, 65, 0
1, 33468, Note_on_c, 0, 64, 78
1, 33501, Note_on_c, 1, 52, 0
1, 33501, Note_on_c, 1, 48, 0
1, 33503, Note_on_c, 0, 64, 0
1, 33504, Note_on_c, 1, 64, 78
1, 33504, Note_on_c, 1, 60, 78
1, 33549, Note_on_c, 1, 64, 0
1, 33549, Note_on_c, 1, 60, 0
1, 33552, Note_on_c, 0, 67, 78
1, 33586, Note_on_c, 0, 67, 0
1, 33588, Note_on_c, 0, 72, 78
1, 33600, Note_on_c, 0, 72, 0
1, 33600, Note_on_c, 0, 76, 78
1, 33634, Note_on_c, 0, 76, 0
1, 33636, Note_on_c, 0, 72, 78
1, 33648, Note_on_c, 0, 72, 0
1, 33648, Note_on_c, 0, 79, 94
1, 33648, Note_on_c, 1, 52, 78
1, 33682, Note_on_c, 1, 52, 0
1, 33684, Note_on_c, 1, 55, 78
1, 33696, Note_on_c, 1, 55, 0
1, 33696, Note_on_c, 1, 60, 78
1, 33711, Note_on_c, 0, 79, 0
1, 33712, Note_on_c, 0, 77, 78
1, 33727, Note_on_c, 0, 77, 0
1, 33728, Note_on_c, 0, 76, 78
1, 33741, Note_on_c, 1, 60, 0
1, 33743, Note_on_c, 0, 76, 0
1, 33744, Note_on_c, 0, 74, 78
1, 33744, Note_on_c, 1, 64, 78
1, 33759, Note_on_c, 0, 74, 0
1, 33760, Note_on_c, 0, 72, 78
1, 33775, Note_on_c, 0, 72, 0
1, 33776, Note_on_c, 0, 71, 78
1, 33789, Note_on_c, 1, 64, 0
1, 33791, Note_on_c, 0, 71, 0
1, 33792, Note_on_c, 0, 69, 78
1, 33792, Note_on_c, 1, 65, 78
1, 33826, Note_on_c, 1, 65, 0
1, 33828, Note_on_c, 1, 53, 78
1, 33840, Note_on_c, 1, 53, 0
1, 33840, Note_on_c, 1, 57, 78
1, 33874, Note_on_c, 1, 57, 0
1, 33876, Note_on_c, 1, 61, 78
1, 33888, Note_on_c, 1, 61, 0
1, 33888, Note_on_c, 1, 62, 78
1, 33903, Note_on_c, 0, 69, 0
1, 33904, Note_on_c, 0, 77, 78
1, 33919, Note_on_c, 0, 77, 0
1, 33920, Note_on_c, 0, 76, 78
1, 33935, Note_on_c, 0, 76, 0
1, 33936, Note_on_c, 0, 74, 78
1, 33936, Note_on_c, 1, 53, 64
1, 33951, Note_on_c, 0, 74, 0
1, 33952, Note_on_c, 0, 72, 78
1, 33967, Note_on_c, 0, 72, 0
1, 33968, Note_on_c, 0, 71, 78
1, 33981, Note_on_c, 1, 53, 0
1, 33983, Note_on_c, 0, 71, 0
1, 33984, Note_on_c, 0, 69, 78
1, 33984, Note_on_c, 1, 52, 64
1, 34018, Note_on_c, 1, 62, 0
1, 34020, Note_on_c, 1, 55, 78
1, 34032, Note_on_c, 0, 69, 0
1, 34032, Note_on_c, 0, 67, 78
1, 34032, Note_on_c, 1, 55, 0
1, 34032, Note_on_c, 1, 57, 78
1, 34066, Note_on_c, 1, 57, 0
1, 34068, Note_on_c, 1, 59, 78
1, 34073, Note_on_c, 0, 67, 0
1, 34080, Note_on_c, 1, 59, 0
1, 34080, Note_on_c, 1, 60, 78
1, 34096, Note_on_c, 0, 76, 78
1, 34111, Note_on_c, 0, 76, 0
1, 34112, Note_on_c, 0, 74, 78
1, 34117, Note_on_c, 1, 52, 0
1, 34127, Note_on_c, 0, 74, 0
1, 34128, Note_on_c, 0, 72, 78
1, 34128, Note_on_c, 1, 52, 64
1, 34143, Note_on_c, 0, 72, 0
1, 34144, Note_on_c, 0, 71, 78
1, 34159, Note_on_c, 0, 71, 0
1, 34160, Note_on_c, 0, 69, 78
1, 34173, Note_on_c, 1, 52, 0
1, 34175, Note_on_c, 0, 69, 0
1, 34176, Note_on_c, 0, 67, 78
1, 34176, Note_on_c, 1, 50, 64
1, 34210, Note_on_c, 0, 67, 0
1, 34212, Note_on_c, 0, 65, 78
1, 34221, Note_on_c, 1, 60, 0
1, 34224, Note_on_c, 0, 65, 0
1, 34224, Note_on_c, 0, 74, 78
1, 34224, Note_on_c, 1, 59, 78
1, 34258, Note_on_c, 0, 74, 0
1, 34260, Note_on_c, 0, 65, 78
1, 34265, Note_on_c, 1, 50, 0
1, 34269, Note_on_c, 1, 59, 0
1, 34272, Note_on_c, 0, 65, 0
1, 34272, Note_on_c, 0, 65, 78
1, 34272, Note_on_c, 1, 60, 78
1, 34272, Note_on_c, 1, 48, 64
1, 34306, Note_on_c, 0, 65, 0
1, 34308, Note_on_c, 0, 64, 78
1, 34317, Note_on_c, 1, 60, 0
1, 34317, Note_on_c, 1, 48, 0
1, 34320, Note_on_c, 0, 64, 0
1, 34320, Note_on_c, 0, 72, 78
1, 34320, Note_on_c, 1, 54, 78
1, 34320, Note_on_c, 1, 54, 64
1, 34354, Note_on_c, 0, 72, 0
1, 34356, Note_on_c, 0, 64, 78
1, 34356, Note_on_c, 0, 60, 78
1, 34365, Note_on_c, 1, 54, 0
1, 34365, Note_on_c, 1, 54, 0
1, 34368, Note_on_c, 0, 64, 0
1, 34368, Note_on_c, 0, 60, 0
1, 34368, Note_on_c, 0, 62, 78
1, 34368, Note_on_c, 0, 59, 78
1, 34368, Note_on_c, 1, 43, 78
1, 34402, Note_on_c, 1, 43, 0
1, 34404, Note_on_c, 1, 55, 78
1, 34416, Note_on_c, 1, 55, 0
1, 34416, Note_on_c, 1, 54, 78
1, 34450, Note_on_c, 1, 54, 0
1, 34452, Note_on_c, 1, 55, 79
1, 34457, Note_on_c, 0, 62, 0
1, 34457, Note_on_c, 0, 59, 0
1, 34464, Note_on_c, 1, 55, 0
1, 34464, Note_on_c, 1, 53, 79
1, 34498, Note_on_c, 1, 53, 0
1, 34500, Note_on_c, 1, 55, 80
1, 34512, Note_on_c, 0, 59, 78
1, 34512, Note_on_c, 1, 55, 0
1, 34512, Note_on_c, 1, 50, 80
1, 34546, Note_on_c, 0, 59, 0
1, 34546, Note_on_c, 1, 50, 0
1, 34548, Note_on_c, 0, 71, 79
1, 34548, Note_on_c, 1, 55, 81
1, 34560, Note_on_c, 0, 71, 0
1, 34560, Note_on_c, 0, 60, 79
1, 34560, Note_on_c, 1, 55, 0
1, 34560, Note_on_c, 1, 52, 81
1, 34594, Note_on_c, 0, 60, 0
1, 34594, Note_on_c, 1, 52, 0
1, 34596, Note_on_c, 0, 72, 80
1, 34596, Note_on_c, 1, 55, 82
1, 34608, Note_on_c, 0, 72, 0
1, 34608, Note_on_c, 0, 62, 80
1, 34608, Note_on_c, 1, 55, 0
1, 34608, Note_on_c, 1, 47, 82
1, 34642, Note_on_c, 0, 62, 0
1, 34642, Note_on_c, 1, 47, 0
1, 34644, Note_on_c, 0, 74, 81
1, 34644, Note_on_c, 1, 55, 83
1, 34656, Note_on_c, 0, 74, 0
1, 34656, Note_on_c, 0, 64, 82
1, 34656, Note_on_c, 1, 55, 0
1, 34656, Note_on_c, 1, 48, 83
1, 34690, Note_on_c, 0, 64, 0
1, 34690, Note_on_c, 1, 48, 0
1, 34692, Note_on_c, 0, 76, 83
1, 34692, Note_on_c, 1, 55, 84
1, 34704, Note_on_c, 0, 76, 0
1, 34704, Note_on_c, 0, 66, 83
1, 34704, Note_on_c, 1, 55, 0
1, 34704, Note_on_c, 1, 45, 84
1, 34738, Note_on_c, 0, 66, 0
1, 34738, Note_on_c, 1, 45, 0
1, 34740, Note_on_c, 0, 78, 84
1, 34740, Note_on_c, 1, 55, 85
1, 34752, Note_on_c, 0, 78, 0
1, 34752, Note_on_c, 0, 67, 85
1, 34752, Note_on_c, 1, 55, 0
1, 34752, Note_on_c, 1, 43, 85
1, 34786, Note_on_c, 1, 43, 0
1, 34788, Note_on_c, 1, 55, 82
1, 34800, Note_on_c, 1, 55, 0
1, 34800, Note_on_c, 1, 54, 81
1, 34834, Note_on_c, 1, 54, 0
1, 34836, Note_on_c, 1, 55, 78
1, 34841, Note_on_c, 0, 67, 0
1, 34848, Note_on_c, 1, 55, 0
1, 34848, Note_on_c, 1, 53, 78
1, 34882, Note_on_c, 1, 53, 0
1, 34884, Note_on_c, 1, 55, 78
1, 34896, Note_on_c, 0, 59, 78
1, 34896, Note_on_c, 1, 55, 0
1, 34896, Note_on_c, 1, 50, 78
1, 34930, Note_on_c, 0, 59, 0
1, 34930, Note_on_c, 1, 50, 0
1, 34932, Note_on_c, 0, 71, 79
1, 34932, Note_on_c, 1, 55, 79
1, 34944, Note_on_c, 0, 71, 0
1, 34944, Note_on_c, 0, 60, 79
1, 34944, Note_on_c, 1, 55, 0
1, 34944, Note_on_c, 1, 51, 79
1, 34978, Note_on_c, 0, 60, 0
1, 34978, Note_on_c, 1, 51, 0
1, 34980, Note_on_c, 0, 72, 80
1, 34980, Note_on_c, 1, 55, 80
1, 34992, Note_on_c, 0, 72, 0
1, 34992, Note_on_c, 0, 62, 80
1, 34992, Note_on_c, 1, 55, 0
1, 34992, Note_on_c, 1, 47, 80
1, 35026, Note_on_c, 0, 62, 0
1, 35026, Note_on_c, 1, 47, 0
1, 35028, Note_on_c, 0, 74, 81
1, 35028, Note_on_c, 1, 55, 81
1, 35040, Note_on_c, 0, 74, 0
1, 35040, Note_on_c, 0, 63, 82
1, 35040, Note_on_c, 1, 55, 0
1, 35040, Note_on_c, 1, 48, 82
1, 35074, Note_on_c, 0, 63, 0
1, 35074, Note_on_c, 1, 48, 0
1, 35076, Note_on_c, 0, 75, 83
1, 35076, Note_on_c, 1, 55, 83
1, 35088, Note_on_c, 0, 75, 0
1, 35088, Note_on_c, 0, 66, 83
1, 35088, Note_on_c, 1, 55, 0
1, 35088, Note_on_c, 1, 45, 83
1, 35122, Note_on_c, 0, 66, 0
1, 35122, Note_on_c, 1, 45, 0
1, 35124, Note_on_c, 0, 78, 84
1, 35124, Note_on_c, 1, 55, 84
1, 35136, Note_on_c, 0, 78, 0
1, 35136, Note_on_c, 0, 67, 85
1, 35136, Note_on_c, 1, 55, 0
1, 35136, Note_on_c, 1, 43, 85
1, 35170, Note_on_c, 0, 67, 0
1, 35172, Note_on_c, 0, 79, 85
1, 35181, Note_on_c, 1, 43, 0
1, 35184, Note_on_c, 0, 79, 0
1, 35184, Note_on_c, 0, 67, 85
1, 35184, Note_on_c, 1, 59, 85
1, 35184, Note_on_c, 1, 55, 110
1, 35218, Note_on_c, 0, 67, 0
1, 35220, Note_on_c, 0, 79, 85
1, 35229, Note_on_c, 1, 59, 0
1, 35232, Note_on_c, 0, 79, 0
1, 35232, Note_on_c, 0, 68, 85
1, 35232, Note_on_c, 1, 60, 85
1, 35266, Note_on_c, 0, 68, 0
1, 35268, Note_on_c, 0, 79, 85
1, 35277, Note_on_c, 1, 60, 0
1, 35280, Note_on_c, 0, 79, 0
1, 35280, Note_on_c, 0, 71, 85
1, 35280, Note_on_c, 1, 62, 85
1, 35314, Note_on_c, 0, 71, 0
1, 35316, Note_on_c, 0, 79, 85
1, 35325, Note_on_c, 1, 62, 0
1, 35328, Note_on_c, 0, 79, 0
1, 35328, Note_on_c, 0, 72, 85
1, 35328, Note_on_c, 1, 63, 85
1, 35362, Note_on_c, 0, 72, 0
1, 35364, Note_on_c, 0, 79, 83
1, 35373, Note_on_c, 1, 63, 0
1, 35376, Note_on_c, 0, 79, 0
1, 35376, Note_on_c, 0, 74, 83
1, 35376, Note_on_c, 1, 65, 83
1, 35410, Note_on_c, 0, 74, 0
1, 35412, Note_on_c, 0, 79, 81
1, 35421, Note_on_c, 1, 65, 0
1, 35424, Note_on_c, 0, 79, 0
1, 35424, Note_on_c, 0, 75, 81
1, 35424, Note_on_c, 1, 67, 81
1, 35458, Note_on_c, 0, 75, 0
1, 35460, Note_on_c, 0, 79, 79
1, 35469, Note_on_c, 1, 67, 0
1, 35472, Note_on_c, 0, 79, 0
1, 35472, Note_on_c, 0, 72, 79
1, 35472, Note_on_c, 1, 66, 79
1, 35506, Note_on_c, 0, 72, 0
1, 35508, Note_on_c, 0, 84, 78
1, 35517, Note_on_c, 1, 66, 0
1, 35520, Note_on_c, 0, 84, 0
1, 35520, Note_on_c, 0, 83, 78
1, 35520, Note_on_c, 1, 65, 78
1, 35554, Note_on_c, 0, 83, 0
1, 35556, Note_on_c, 0, 86, 78
1, 35567, Note_on_c, 1, 65, 0
1, 35568, Note_on_c, 0, 86, 0
1, 35568, Note_on_c, 0, 74, 78
1, 35568, Note_on_c, 1, 59, 78
1, 35602, Note_on_c, 0, 74, 0
1, 35604, Note_on_c, 0, 77, 78
1, 35613, Note_on_c, 1, 59, 0
1, 35616, Note_on_c, 0, 77, 0
1, 35616, Note_on_c, 0, 75, 78
1, 35616, Note_on_c, 1, 60, 78
1, 35650, Note_on_c, 0, 75, 0
1, 35652, Note_on_c, 0, 79, 78
1, 35661, Note_on_c, 1, 60, 0
1, 35664, Note_on_c, 0, 79, 0
1, 35664, Note_on_c, 0, 72, 78
1, 35664, Note_on_c, 1, 63, 78
1, 35698, Note_on_c, 0, 72, 0
1, 35700, Note_on_c, 0, 75, 78
1, 35709, Note_on_c, 1, 63, 0
1, 35712, Note_on_c, 0, 75, 0
1, 35712, Note_on_c, 0, 71, 78
1, 35712, Note_on_c, 1, 67, 78
1, 35746, Note_on_c, 0, 71, 0
1, 35748, Note_on_c, 0, 74, 78
1, 35757, Note_on_c, 1, 67, 0
1, 35757, Note_on_c, 1, 55, 0
1, 35760, Note_on_c, 0, 74, 0
1, 35760, Note_on_c, 0, 71, 78
1, 35760, Note_on_c, 0, 68, 64
1, 35760, Note_on_c, 1, 65, 78
1, 35760, Note_on_c, 1, 55, 110
1, 35794, Note_on_c, 0, 71, 0
1, 35796, Note_on_c, 0, 74, 78
1, 35805, Note_on_c, 0, 68, 0
1, 35805, Note_on_c, 1, 65, 0
1, 35808, Note_on_c, 0, 74, 0
1, 35808, Note_on_c, 0, 72, 78
1, 35808, Note_on_c, 0, 67, 64
1, 35808, Note_on_c, 1, 63, 78
1, 35842, Note_on_c, 0, 72, 0
1, 35844, Note_on_c, 0, 75, 78
1, 35853, Note_on_c, 0, 67, 0
1, 35853, Note_on_c, 1, 63, 0
1, 35856, Note_on_c, 0, 75, 0
1, 35856, Note_on_c, 0, 66, 78
1, 35856, Note_on_c, 0, 63, 64
1, 35856, Note_on_c, 1, 60, 78
1, 35890, Note_on_c, 0, 66, 0
1, 35892, Note_on_c, 0, 69, 78
1, 35901, Note_on_c, 0, 63, 0
1, 35901, Note_on_c, 1, 60, 0
1, 35904, Note_on_c, 0, 69, 0
1, 35904, Note_on_c, 0, 67, 78
1, 35904, Note_on_c, 0, 62, 64
1, 35904, Note_on_c, 1, 59, 78
1, 35938, Note_on_c, 0, 67, 0
1, 35940, Note_on_c, 0, 71, 78
1, 35949, Note_on_c, 0, 62, 0
1, 35949, Note_on_c, 1, 59, 0
1, 35949, Note_on_c, 1, 55, 0
1, 35952, Note_on_c, 0, 71, 0
1, 35952, Note_on_c, 0, 71, 78
1, 35952, Note_on_c, 0, 68, 64
1, 35952, Note_on_c, 1, 65, 78
1, 35952, Note_on_c, 1, 55, 110
1, 35986, Note_on_c, 0, 71, 0
1, 35988, Note_on_c, 0, 74, 78
1, 35997, Note_on_c, 0, 68, 0
1, 35997, Note_on_c, 1, 65, 0
1, 36000, Note_on_c, 0, 74, 0
1, 36000, Note_on_c, 0, 72, 78
1, 36000, Note_on_c, 0, 67, 64
1, 36000, Note_on_c, 1, 63, 78
1, 36034, Note_on_c, 0, 72, 0
1, 36036, Note_on_c, 0, 75, 78
1, 36045, Note_on_c, 0, 67, 0
1, 36045, Note_on_c, 1, 63, 0
1, 36048, Note_on_c, 0, 75, 0
1, 36048, Note_on_c, 0, 66, 78
1, 36048, Note_on_c, 0, 63, 64
1, 36048, Note_on_c, 1, 60, 78
1, 36082, Note_on_c, 0, 66, 0
1, 36084, Note_on_c, 0, 69, 78
1, 36093, Note_on_c, 0, 63, 0
1, 36093, Note_on_c, 1, 60, 0
1, 36096, Note_on_c, 0, 69, 0
1, 36096, Note_on_c, 0, 67, 78
1, 36096, Note_on_c, 0, 62, 64
1, 36096, Note_on_c, 1, 59, 78
1, 36130, Note_on_c, 0, 67, 0
1, 36132, Note_on_c, 0, 71, 78
1, 36141, Note_on_c, 0, 62, 0
1, 36141, Note_on_c, 1, 59, 0
1, 36141, Note_on_c, 1, 55, 0
1, 36144, Note_on_c, 0, 71, 0
1, 36144, Note_on_c, 0, 71, 78
1, 36144, Note_on_c, 0, 68, 64
1, 36144, Note_on_c, 1, 65, 78
1, 36144, Note_on_c, 1, 55, 110
1, 36178, Note_on_c, 0, 71, 0
1, 36180, Note_on_c, 0, 74, 78
1, 36189, Note_on_c, 0, 68, 0
1, 36189, Note_on_c, 1, 65, 0
1, 36192, Note_on_c, 0, 74, 0
1, 36192, Note_on_c, 0, 72, 78
1, 36192, Note_on_c, 0, 67, 64
1, 36192, Note_on_c, 1, 63, 78
1, 36226, Note_on_c, 0, 72, 0
1, 36228, Note_on_c, 0, 75, 78
1, 36237, Note_on_c, 0, 67, 0
1, 36237, Note_on_c, 1, 63, 0
1, 36240, Note_on_c, 0, 75, 0
1, 36240, Note_on_c, 0, 66, 78
1, 36240, Note_on_c, 0, 63, 64
1, 36240, Note_on_c, 1, 60, 78
1, 36274, Note_on_c, 0, 66, 0
1, 36276, Note_on_c, 0, 69, 78
1, 36285, Note_on_c, 0, 63, 0
1, 36288, Note_on_c, 0, 69, 0
1, 36288, Note_on_c, 0, 67, 78
1, 36288, Note_on_c, 0, 62, 64
1, 36322, Note_on_c, 1, 60, 0
1, 36324, Note_on_c, 1, 57, 78
1, 36336, Note_on_c, 1, 57, 0
1, 36336, Note_on_c, 1, 59, 78
1, 36370, Note_on_c, 1, 59, 0
1, 36372, Note_on_c, 1, 60, 78
1, 36377, Note_on_c, 0, 67, 0
1, 36377, Note_on_c, 0, 62, 0
1, 36384, Note_on_c, 1, 60, 0
1, 36384, Note_on_c, 1, 62, 78
1, 36400, Note_on_c, 0, 65, 78
1, 36415, Note_on_c, 0, 65, 0
1, 36416, Note_on_c, 0, 71, 78
1, 36431, Note_on_c, 0, 71, 0
1, 36432, Note_on_c, 0, 74, 78
1, 36447, Note_on_c, 0, 74, 0
1, 36448, Note_on_c, 0, 71, 78
1, 36463, Note_on_c, 0, 71, 0
1, 36464, Note_on_c, 0, 65, 78
1, 36479, Note_on_c, 0, 65, 0
1, 36480, Note_on_c, 0, 64, 78
1, 36500, Note_on_c, 0, 64, 0
1, 36514, Note_on_c, 1, 62, 0
1, 36516, Note_on_c, 1, 59, 78
1, 36528, Note_on_c, 1, 59, 0
1, 36528, Note_on_c, 1, 60, 78
1, 36562, Note_on_c, 1, 60, 0
1, 36564, Note_on_c, 1, 62, 78
1, 36576, Note_on_c, 1, 62, 0
1, 36576, Note_on_c, 1, 64, 78
1, 36592, Note_on_c, 0, 67, 78
1, 36607, Note_on_c, 0, 67, 0
1, 36608, Note_on_c, 0, 72, 78
1, 36623, Note_on_c, 0, 72, 0
1, 36624, Note_on_c, 0, 76, 78
1, 36639, Note_on_c, 0, 76, 0
1, 36640, Note_on_c, 0, 72, 78
1, 36655, Note_on_c, 0, 72, 0
1, 36656, Note_on_c, 0, 67, 78
1, 36671, Note_on_c, 0, 67, 0
1, 36672, Note_on_c, 0, 65, 78
1, 36692, Note_on_c, 0, 65, 0
1, 36706, Note_on_c, 1, 64, 0
1, 36708, Note_on_c, 1, 60, 78
1, 36720, Note_on_c, 1, 60, 0
1, 36720, Note_on_c, 1, 62, 78
1, 36754, Note_on_c, 1, 62, 0
1, 36756, Note_on_c, 1, 64, 78
1, 36768, Note_on_c, 1, 64, 0
1, 36768, Note_on_c, 1, 65, 78
1, 36784, Note_on_c, 0, 81, 78
1, 36799, Note_on_c, 0, 81, 0
1, 36800, Note_on_c, 0, 79, 78
1, 36813, Note_on_c, 1, 65, 0
1, 36813, Note_on_c, 1, 55, 0
1, 36815, Note_on_c, 0, 79, 0
1, 36816, Note_on_c, 0, 77, 78
1, 36831, Note_on_c, 0, 77, 0
1, 36832, Note_on_c, 0, 76, 78
1, 36847, Note_on_c, 0, 76, 0
1, 36848, Note_on_c, 0, 74, 78
1, 36863, Note_on_c, 0, 74, 0
1, 36864, Note_on_c, 0, 72, 78
1, 36879, Note_on_c, 0, 72, 0
1, 36880, Note_on_c, 0, 71, 78
1, 36895, Note_on_c, 0, 71, 0
1, 36896, Note_on_c, 0, 77, 78
1, 36911, Note_on_c, 0, 77, 0
1, 36912, Note_on_c, 0, 74, 78
1, 36927, Note_on_c, 0, 74, 0
1, 36928, Note_on_c, 0, 71, 78
1, 36943, Note_on_c, 0, 71, 0
1, 36944, Note_on_c, 0, 67, 78
1, 36959, Note_on_c, 0, 67, 0
1, 36960, Note_on_c, 0, 65, 78
1, 36976, Note_on_c, 1, 62, 78
1, 36980, Note_on_c, 0, 65, 0
1, 36991, Note_on_c, 1, 62, 0
1, 36992, Note_on_c, 1, 59, 78
1, 37007, Note_on_c, 1, 59, 0
1, 37008, Note_on_c, 1, 55, 78
1, 37023, Note_on_c, 1, 55, 0
1, 37024, Note_on_c, 1, 59, 78
1, 37039, Note_on_c, 1, 59, 0
1, 37040, Note_on_c, 1, 62, 78
1, 37055, Note_on_c, 1, 62, 0
1, 37056, Note_on_c, 1, 65, 78
1, 37072, Note_on_c, 0, 67, 78
1, 37076, Note_on_c, 1, 65, 0
1, 37087, Note_on_c, 0, 67, 0
1, 37088, Note_on_c, 0, 71, 78
1, 37103, Note_on_c, 0, 71, 0
1, 37104, Note_on_c, 0, 74, 78
1, 37119, Note_on_c, 0, 74, 0
1, 37120, Note_on_c, 0, 71, 78
1, 37135, Note_on_c, 0, 71, 0
1, 37136, Note_on_c, 0, 74, 78
1, 37151, Note_on_c, 0, 74, 0
1, 37152, Note_on_c, 0, 77, 78
1, 37167, Note_on_c, 0, 77, 0
1, 37168, Note_on_c, 0, 74, 78
1, 37183, Note_on_c, 0, 74, 0
1, 37184, Note_on_c, 0, 77, 78
1, 37199, Note_on_c, 0, 77, 0
1, 37200, Note_on_c, 0, 83, 78
1, 37215, Note_on_c, 0, 83, 0
1, 37216, Note_on_c, 0, 77, 78
1, 37231, Note_on_c, 0, 77, 0
1, 37232, Note_on_c, 0, 83, 78
1, 37247, Note_on_c, 0, 83, 0
1, 37248, Note_on_c, 0, 86, 78
1, 37268, Note_on_c, 0, 86, 0
1, 37392, Note_on_c, 0, 55, 78
1, 37407, Note_on_c, 0, 55, 0
1, 37408, Note_on_c, 0, 60, 78
1, 37423, Note_on_c, 0, 60, 0
1, 37424, Note_on_c, 0, 64, 78
1, 37439, Note_on_c, 0, 64, 0
1, 37440, Note_on_c, 0, 55, 78
1, 37455, Note_on_c, 0, 55, 0
1, 37456, Note_on_c, 0, 54, 78
1, 37471, Note_on_c, 0, 54, 0
1, 37472, Note_on_c, 0, 53, 78
1, 37487, Note_on_c, 0, 53, 0
1, 37488, Note_on_c, 0, 62, 94
1, 37488, Note_on_c, 1, 43, 78
1, 37533, Note_on_c, 1, 43, 0
1, 37536, Note_on_c, 1, 45, 78
1, 37551, Note_on_c, 0, 62, 0
1, 37552, Note_on_c, 0, 60, 78
1, 37567, Note_on_c, 0, 60, 0
1, 37568, Note_on_c, 0, 59, 78
1, 37581, Note_on_c, 1, 45, 0
1, 37583, Note_on_c, 0, 59, 0
1, 37584, Note_on_c, 0, 57, 78
1, 37584, Note_on_c, 1, 47, 78
1, 37599, Note_on_c, 0, 57, 0
1, 37600, Note_on_c, 0, 55, 78
1, 37615, Note_on_c, 0, 55, 0
1, 37616, Note_on_c, 0, 53, 78
1, 37629, Note_on_c, 1, 47, 0
1, 37631, Note_on_c, 0, 53, 0
1, 37632, Note_on_c, 0, 52, 78
1, 37632, Note_on_c, 1, 48, 78
1, 37647, Note_on_c, 0, 52, 0
1, 37648, Note_on_c, 0, 55, 78
1, 37663, Note_on_c, 0, 55, 0
1, 37664, Note_on_c, 0, 60, 78
1, 37679, Note_on_c, 0, 60, 0
1, 37680, Note_on_c, 0, 55, 78
1, 37695, Note_on_c, 0, 55, 0
1, 37696, Note_on_c, 0, 60, 78
1, 37711, Note_on_c, 0, 60, 0
1, 37712, Note_on_c, 0, 64, 78
1, 37721, Note_on_c, 1, 48, 0
1, 37727, Note_on_c, 0, 64, 0
1, 37728, Note_on_c, 0, 67, 78
1, 37748, Note_on_c, 0, 67, 0
1, 37776, Note_on_c, 0, 55, 78
1, 37791, Note_on_c, 0, 55, 0
1, 37792, Note_on_c, 0, 60, 78
1, 37807, Note_on_c, 0, 60, 0
1, 37808, Note_on_c, 0, 64, 78
1, 37823, Note_on_c, 0, 64, 0
1, 37824, Note_on_c, 0, 55, 78
1, 37839, Note_on_c, 0, 55, 0
1, 37840, Note_on_c, 0, 54, 78
1, 37855, Note_on_c, 0, 54, 0
1, 37856, Note_on_c, 0, 53, 78
1, 37871, Note_on_c, 0, 53, 0
1, 37872, Note_on_c, 0, 62, 94
1, 37872, Note_on_c, 1, 43, 78
1, 37917, Note_on_c, 1, 43, 0
1, 37920, Note_on_c, 1, 45, 78
1, 37935, Note_on_c, 0, 62, 0
1, 37936, Note_on_c, 0, 60, 78
1, 37951, Note_on_c, 0, 60, 0
1, 37952, Note_on_c, 0, 59, 78
1, 37965, Note_on_c, 1, 45, 0
1, 37967, Note_on_c, 0, 59, 0
1, 37968, Note_on_c, 0, 57, 78
1, 37968, Note_on_c, 1, 47, 78
1, 37983, Note_on_c, 0, 57, 0
1, 37984, Note_on_c, 0, 55, 78
1, 37999, Note_on_c, 0, 55, 0
1, 38000, Note_on_c, 0, 53, 78
1, 38013, Note_on_c, 1, 47, 0
1, 38015, Note_on_c, 0, 53, 0
1, 38016, Note_on_c, 0, 52, 78
1, 38016, Note_on_c, 1, 48, 78
1, 38031, Note_on_c, 0, 52, 0
1, 38032, Note_on_c, 0, 55, 78
1, 38047, Note_on_c, 0, 55, 0
1, 38048, Note_on_c, 0, 60, 78
1, 38063, Note_on_c, 0, 60, 0
1, 38064, Note_on_c, 0, 55, 78
1, 38079, Note_on_c, 0, 55, 0
1, 38080, Note_on_c, 0, 60, 78
1, 38095, Note_on_c, 0, 60, 0
1, 38096, Note_on_c, 0, 64, 78
1, 38105, Note_on_c, 1, 48, 0
1, 38111, Note_on_c, 0, 64, 0
1, 38112, Note_on_c, 0, 67, 78
1, 38127, Note_on_c, 0, 67, 0
1, 38128, Note_on_c, 0, 65, 78
1, 38143, Note_on_c, 0, 65, 0
1, 38144, Note_on_c, 0, 64, 78
1, 38159, Note_on_c, 0, 64, 0
1, 38160, Note_on_c, 0, 62, 78
1, 38160, Note_on_c, 1, 52, 78
1, 38175, Note_on_c, 0, 62, 0
1, 38176, Note_on_c, 0, 60, 78
1, 38191, Note_on_c, 0, 60, 0
1, 38192, Note_on_c, 0, 59, 78
1, 38205, Note_on_c, 1, 52, 0
1, 38207, Note_on_c, 0, 59, 0
1, 38208, Note_on_c, 0, 57, 78
1, 38208, Note_on_c, 1, 53, 78
1, 38223, Note_on_c, 0, 57, 0
1, 38224, Note_on_c, 0, 68, 78
1, 38239, Note_on_c, 0, 68, 0
1, 38240, Note_on_c, 0, 69, 78
1, 38255, Note_on_c, 0, 69, 0
1, 38256, Note_on_c, 0, 67, 78
1, 38256, Note_on_c, 1, 41, 94
1, 38268, Note_on_c, 0, 67, 0
1, 38268, Note_on_c, 0, 65, 78
1, 38279, Note_on_c, 0, 65, 0
1, 38280, Note_on_c, 0, 64, 78
1, 38292, Note_on_c, 0, 64, 0
1, 38292, Note_on_c, 0, 62, 78
1, 38297, Note_on_c, 1, 53, 0
1, 38301, Note_on_c, 1, 41, 0
1, 38304, Note_on_c, 0, 62, 0
1, 38304, Note_on_c, 0, 60, 78
1, 38304, Note_on_c, 1, 52, 78
1, 38304, Note_on_c, 1, 43, 94
1, 38349, Note_on_c, 0, 60, 0
1, 38349, Note_on_c, 1, 52, 0
1, 38352, Note_on_c, 0, 59, 74
1, 38352, Note_on_c, 1, 53, 74
1, 38352, Note_on_c, 1, 50, 74
1, 38393, Note_on_c, 1, 43, 0
1, 38397, Note_on_c, 0, 59, 0
1, 38397, Note_on_c, 1, 53, 0
1, 38397, Note_on_c, 1, 50, 0
1, 38400, Note_on_c, 0, 59, 70
1, 38400, Note_on_c, 1, 53, 70
1, 38400, Note_on_c, 1, 50, 94
1, 38400, Note_on_c, 1, 45, 94
1, 38496, Note_on_c, 0, 59, 0
1, 38496, Note_on_c, 0, 60, 62
1, 38496, Note_on_c, 1, 53, 0
1, 38496, Note_on_c, 1, 52, 62
1, 38496, Note_on_c, 1, 50, 0
1, 38496, Note_on_c, 1, 48, 94
1, 38543, Note_on_c, 0, 60, 0
1, 38543, Note_on_c, 1, 52, 0
1, 38543, Note_on_c, 1, 48, 0
1, 38543, Note_on_c, 1, 45, 0
1, 38544, Note_on_c, 0, 67, 78
1, 38559, Note_on_c, 0, 67, 0
1, 38560, Note_on_c, 0, 72, 78
1, 38575, Note_on_c, 0, 72, 0
1, 38576, Note_on_c, 0, 76, 78
1, 38591, Note_on_c, 0, 76, 0
1, 38592, Note_on_c, 0, 67, 78
1, 38607, Note_on_c, 0, 67, 0
1, 38608, Note_on_c, 0, 66, 78
1, 38623, Note_on_c, 0, 66, 0
1, 38624, Note_on_c, 0, 65, 78
1, 38639, Note_on_c, 0, 65, 0
1, 38640, Note_on_c, 0, 74, 94
1, 38640, Note_on_c, 1, 55, 78
1, 38685, Note_on_c, 1, 55, 0
1, 38688, Note_on_c, 1, 57, 78
1, 38703, Note_on_c, 0, 74, 0
1, 38704, Note_on_c, 0, 72, 78
1, 38719, Note_on_c, 0, 72, 0
1, 38720, Note_on_c, 0, 71, 78
1, 38733, Note_on_c, 1, 57, 0
1, 38735, Note_on_c, 0, 71, 0
1, 38736, Note_on_c, 0, 69, 78
1, 38736, Note_on_c, 1, 59, 78
1, 38751, Note_on_c, 0, 69, 0
1, 38752, Note_on_c, 0, 67, 78
1, 38767, Note_on_c, 0, 67, 0
1, 38768, Note_on_c, 0, 65, 78
1, 38781, Note_on_c, 1, 59, 0
1, 38783, Note_on_c, 0, 65, 0
1, 38784, Note_on_c, 0, 64, 78
1, 38784, Note_on_c, 1, 60, 78
1, 38799, Note_on_c, 0, 64, 0
1, 38800, Note_on_c, 0, 67, 78
1, 38815, Note_on_c, 0, 67, 0
1, 38816, Note_on_c, 0, 72, 78
1, 38831, Note_on_c, 0, 72, 0
1, 38832, Note_on_c, 0, 67, 78
1, 38847, Note_on_c, 0, 67, 0
1, 38848, Note_on_c, 0, 72, 78
1, 38863, Note_on_c, 0, 72, 0
1, 38864, Note_on_c, 0, 76, 78
1, 38873, Note_on_c, 1, 60, 0
1, 38879, Note_on_c, 0, 76, 0
1, 38880, Note_on_c, 0, 79, 78
1, 38900, Note_on_c, 0, 79, 0
1, 38928, Note_on_c, 0, 79, 78
1, 38943, Note_on_c, 0, 79, 0
1, 38944, Note_on_c, 0, 84, 78
1, 38959, Note_on_c, 0, 84, 0
1, 38960, Note_on_c, 0, 88, 78
1, 38975, Note_on_c, 0, 88, 0
1, 38976, Note_on_c, 0, 79, 78
1, 38991, Note_on_c, 0, 79, 0
1, 38992, Note_on_c, 0, 78, 78
1, 39007, Note_on_c, 0, 78, 0
1, 39008, Note_on_c, 0, 77, 78
1, 39023, Note_on_c, 0, 77, 0
1, 39024, Note_on_c, 0, 86, 94
1, 39024, Note_on_c, 1, 67, 78
1, 39069, Note_on_c, 1, 67, 0
1, 39072, Note_on_c, 1, 69, 78
1, 39087, Note_on_c, 0, 86, 0
1, 39088, Note_on_c, 0, 84, 78
1, 39103, Note_on_c, 0, 84, 0
1, 39104, Note_on_c, 0, 83, 78
1, 39117, Note_on_c, 1, 69, 0
1, 39119, Note_on_c, 0, 83, 0
1, 39120, Note_on_c, 0, 81, 78
1, 39120, Note_on_c, 1, 71, 78
1, 39135, Note_on_c, 0, 81, 0
1, 39136, Note_on_c, 0, 79, 78
1, 39151, Note_on_c, 0, 79, 0
1, 39152, Note_on_c, 0, 77, 78
1, 39165, Note_on_c, 1, 71, 0
1, 39167, Note_on_c, 0, 77, 0
1, 39168, Note_on_c, 0, 76, 78
1, 39168, Note_on_c, 1, 72, 78
1, 39183, Note_on_c, 0, 76, 0
1, 39184, Note_on_c, 0, 83, 78
1, 39199, Note_on_c, 0, 83, 0
1, 39200, Note_on_c, 0, 84, 78
1, 39215, Note_on_c, 0, 84, 0
1, 39216, Note_on_c, 0, 80, 78
1, 39231, Note_on_c, 0, 80, 0
1, 39232, Note_on_c, 0, 81, 78
1, 39247, Note_on_c, 0, 81, 0
1, 39248, Note_on_c, 0, 78, 78
1, 39257, Note_on_c, 1, 72, 0
1, 39263, Note_on_c, 0, 78, 0
1, 39264, Note_on_c, 0, 79, 78
1, 39279, Note_on_c, 0, 79, 0
1, 39280, Note_on_c, 0, 76, 78
1, 39295, Note_on_c, 0, 76, 0
1, 39296, Note_on_c, 0, 77, 78
1, 39311, Note_on_c, 0, 77, 0
1, 39312, Note_on_c, 0, 81, 78
1, 39327, Note_on_c, 0, 81, 0
1, 39328, Note_on_c, 0, 77, 78
1, 39343, Note_on_c, 0, 77, 0
1, 39344, Note_on_c, 0, 74, 78
1, 39359, Note_on_c, 0, 74, 0
1, 39360, Note_on_c, 0, 72, 78
1, 39408, Note_on_c, 1, 52, 78
1, 39449, Note_on_c, 0, 72, 0
1, 39453, Note_on_c, 1, 52, 0
1, 39456, Note_on_c, 0, 72, 78
1, 39456, Note_on_c, 1, 53, 78
1, 39464, Note_on_c, 0, 72, 0
1, 39464, Note_on_c, 0, 74, 78
1, 39472, Note_on_c, 0, 74, 0
1, 39472, Note_on_c, 0, 76, 78
1, 39480, Note_on_c, 0, 76, 0
1, 39480, Note_on_c, 0, 74, 78
1, 39488, Note_on_c, 0, 74, 0
1, 39488, Note_on_c, 0, 76, 78
1, 39496, Note_on_c, 0, 76, 0
1, 39496, Note_on_c, 0, 74, 78
1, 39501, Note_on_c, 1, 53, 0
1, 39504, Note_on_c, 0, 74, 0
1, 39504, Note_on_c, 0, 76, 78
1, 39504, Note_on_c, 1, 55, 78
1, 39512, Note_on_c, 0, 76, 0
1, 39512, Note_on_c, 0, 74, 78
1, 39520, Note_on_c, 0, 74, 0
1, 39520, Note_on_c, 0, 76, 78
1, 39528, Note_on_c, 0, 76, 0
1, 39528, Note_on_c, 0, 74, 78
1, 39536, Note_on_c, 0, 74, 0
1, 39536, Note_on_c, 0, 72, 78
1, 39544, Note_on_c, 0, 72, 0
1, 39544, Note_on_c, 0, 74, 78
1, 39549, Note_on_c, 1, 55, 0
1, 39552, Note_on_c, 0, 74, 0
1, 39552, Note_on_c, 0, 72, 78
1, 39552, Note_on_c, 1, 48, 78
1, 39567, Note_on_c, 1, 48, 0
1, 39568, Note_on_c, 1, 52, 78
1, 39583, Note_on_c, 1, 52, 0
1, 39584, Note_on_c, 1, 55, 78
1, 39599, Note_on_c, 1, 55, 0
1, 39600, Note_on_c, 1, 60, 78
1, 39615, Note_on_c, 1, 60, 0
1, 39616, Note_on_c, 1, 64, 78
1, 39631, Note_on_c, 1, 64, 0
1, 39632, Note_on_c, 1, 60, 78
1, 39641, Note_on_c, 0, 72, 0
1, 39647, Note_on_c, 1, 60, 0
1, 39648, Note_on_c, 1, 48, 78
1, 39693, Note_on_c, 1, 48, 0
1, 39696, Note_on_c, 0, 67, 78
1, 39730, Note_on_c, 0, 67, 0
1, 39732, Note_on_c, 0, 71, 78
1, 39744, Note_on_c, 0, 71, 0
1, 39744, Note_on_c, 0, 74, 78
1, 39778, Note_on_c, 0, 74, 0
1, 39780, Note_on_c, 0, 71, 80
1, 39792, Note_on_c, 0, 71, 0
1, 39792, Note_on_c, 0, 79, 97
1, 39792, Note_on_c, 1, 43, 78
1, 39837, Note_on_c, 1, 43, 0
1, 39840, Note_on_c, 1, 55, 78
1, 39874, Note_on_c, 0, 79, 0
1, 39876, Note_on_c, 0, 78, 82
1, 39885, Note_on_c, 1, 55, 0
1, 39888, Note_on_c, 0, 78, 0
1, 39888, Note_on_c, 0, 76, 81
1, 39888, Note_on_c, 1, 59, 78
1, 39922, Note_on_c, 0, 76, 0
1, 39924, Note_on_c, 0, 74, 78
1, 39933, Note_on_c, 1, 59, 0
1, 39936, Note_on_c, 0, 74, 0
1, 39936, Note_on_c, 0, 74, 78
1, 39936, Note_on_c, 1, 57, 78
1, 39981, Note_on_c, 1, 57, 0
1, 39984, Note_on_c, 1, 45, 78
1, 40025, Note_on_c, 0, 74, 0
1, 40029, Note_on_c, 1, 45, 0
1, 40032, Note_on_c, 0, 72, 78
1, 40032, Note_on_c, 1, 57, 78
1, 40038, Note_on_c, 0, 72, 0
1, 40038, Note_on_c, 0, 74, 78
1, 40044, Note_on_c, 0, 74, 0
1, 40044, Note_on_c, 0, 72, 78
1, 40066, Note_on_c, 0, 72, 0
1, 40068, Note_on_c, 0, 71, 78
1, 40077, Note_on_c, 1, 57, 0
1, 40080, Note_on_c, 0, 71, 0
1, 40080, Note_on_c, 0, 69, 78
1, 40080, Note_on_c, 1, 60, 78
1, 40086, Note_on_c, 0, 69, 0
1, 40086, Note_on_c, 0, 71, 78
1, 40092, Note_on_c, 0, 71, 0
1, 40092, Note_on_c, 0, 69, 78
1, 40114, Note_on_c, 0, 69, 0
1, 40116, Note_on_c, 0, 67, 78
1, 40125, Note_on_c, 1, 60, 0
1, 40128, Note_on_c, 0, 67, 0
1, 40128, Note_on_c, 0, 67, 78
1, 40128, Note_on_c, 1, 62, 78
1, 40173, Note_on_c, 1, 62, 0
1, 40176, Note_on_c, 1, 50, 78
1, 40221, Note_on_c, 1, 50, 0
1, 40224, Note_on_c, 0, 67, 0
1, 40224, Note_on_c, 0, 66, 78
1, 40239, Note_on_c, 0, 66, 0
1, 40240, Note_on_c, 0, 69, 78
1, 40255, Note_on_c, 0, 69, 0
1, 40256, Note_on_c, 0, 72, 78
1, 40271, Note_on_c, 0, 72, 0
1, 40272, Note_on_c, 0, 76, 78
1, 40272, Note_on_c, 1, 54, 78
1, 40287, Note_on_c, 0, 76, 0
1, 40288, Note_on_c, 0, 74, 78
1, 40303, Note_on_c, 0, 74, 0
1, 40304, Note_on_c, 0, 72, 78
1, 40317, Note_on_c, 1, 54, 0
1, 40319, Note_on_c, 0, 72, 0
1, 40320, Note_on_c, 0, 72, 78
1, 40320, Note_on_c, 1, 55, 78
1, 40365, Note_on_c, 1, 55, 0
1, 40368, Note_on_c, 1, 43, 78
1, 40409, Note_on_c, 0, 72, 0
1, 40413, Note_on_c, 1, 43, 0
1, 40416, Note_on_c, 0, 72, 78
1, 40422, Note_on_c, 0, 72, 0
1, 40422, Note_on_c, 0, 71, 78
1, 40428, Note_on_c, 0, 71, 0
1, 40428, Note_on_c, 0, 69, 78
1, 40434, Note_on_c, 0, 69, 0
1, 40434, Note_on_c, 0, 71, 78
1, 40450, Note_on_c, 0, 71, 0
1, 40452, Note_on_c, 0, 74, 78
1, 40464, Note_on_c, 0, 74, 0
1, 40464, Note_on_c, 0, 67, 78
1, 40464, Note_on_c, 1, 59, 78
1, 40498, Note_on_c, 0, 67, 0
1, 40500, Note_on_c, 0, 71, 78
1, 40509, Note_on_c, 1, 59, 0
1, 40512, Note_on_c, 0, 71, 0
1, 40512, Note_on_c, 0, 64, 78
1, 40512, Note_on_c, 1, 60, 78
1, 40546, Note_on_c, 0, 64, 0
1, 40548, Note_on_c, 0, 68, 78
1, 40557, Note_on_c, 1, 60, 0
1, 40560, Note_on_c, 0, 68, 0
1, 40560, Note_on_c, 0, 69, 78
1, 40560, Note_on_c, 1, 48, 78
1, 40566, Note_on_c, 0, 69, 0
1, 40566, Note_on_c, 0, 68, 78
1, 40572, Note_on_c, 0, 68, 0
1, 40572, Note_on_c, 0, 69, 78
1, 40594, Note_on_c, 0, 69, 0
1, 40596, Note_on_c, 0, 72, 78
1, 40605, Note_on_c, 1, 48, 0
1, 40608, Note_on_c, 0, 72, 0
1, 40608, Note_on_c, 0, 71, 78
1, 40642, Note_on_c, 0, 71, 0
1, 40644, Note_on_c, 0, 74, 78
1, 40656, Note_on_c, 0, 74, 0
1, 40656, Note_on_c, 0, 66, 78
1, 40656, Note_on_c, 1, 60, 78
1, 40656, Note_on_c, 1, 50, 78
1, 40690, Note_on_c, 0, 66, 0
1, 40692, Note_on_c, 0, 69, 78
1, 40701, Note_on_c, 1, 60, 0
1, 40701, Note_on_c, 1, 50, 0
1, 40704, Note_on_c, 0, 69, 0
1, 40704, Note_on_c, 0, 67, 78
1, 40740, Note_on_c, 1, 43, 78
1, 40743, Note_on_c, 0, 67, 0
1, 40752, Note_on_c, 1, 43, 0
1, 40752, Note_on_c, 1, 55, 78
1, 40786, Note_on_c, 1, 55, 0
1, 40788, Note_on_c, 1, 54, 78
1, 40800, Note_on_c, 1, 54, 0
1, 40800, Note_on_c, 1, 55, 79
1, 40815, Note_on_c, 1, 55, 0
1, 40836, Note_on_c, 1, 55, 79
1, 40848, Note_on_c, 1, 55, 0
1, 40848, Note_on_c, 1, 59, 80
1, 40882, Note_on_c, 1, 59, 0
1, 40884, Note_on_c, 1, 62, 80
1, 40896, Note_on_c, 1, 62, 0
1, 40896, Note_on_c, 1, 67, 81
1, 40932, Note_on_c, 0, 74, 78
1, 40932, Note_on_c, 0, 71, 78
1, 40944, Note_on_c, 0, 74, 0
1, 40944, Note_on_c, 0, 71, 0
1, 40944, Note_on_c, 0, 79, 79
1, 40944, Note_on_c, 0, 71, 79
1, 40978, Note_on_c, 0, 79, 0
1, 40978, Note_on_c, 0, 71, 0
1, 40980, Note_on_c, 0, 79, 83
1, 40980, Note_on_c, 0, 71, 83
1, 40992, Note_on_c, 0, 79, 0
1, 40992, Note_on_c, 0, 71, 0
1, 40992, Note_on_c, 0, 79, 85
1, 40992, Note_on_c, 0, 71, 85
1, 41026, Note_on_c, 0, 79, 0
1, 41026, Note_on_c, 0, 71, 0
1, 41028, Note_on_c, 0, 77, 82
1, 41028, Note_on_c, 0, 74, 82
1, 41040, Note_on_c, 0, 77, 0
1, 41040, Note_on_c, 0, 74, 0
1, 41040, Note_on_c, 0, 76, 81
1, 41040, Note_on_c, 0, 72, 81
1, 41073, Note_on_c, 1, 67, 0
1, 41074, Note_on_c, 0, 76, 0
1, 41074, Note_on_c, 0, 72, 0
1, 41076, Note_on_c, 0, 74, 78
1, 41076, Note_on_c, 0, 71, 78
1, 41088, Note_on_c, 0, 74, 0
1, 41088, Note_on_c, 0, 71, 0
1, 41088, Note_on_c, 0, 74, 78
1, 41088, Note_on_c, 0, 71, 78
1, 41124, Note_on_c, 1, 43, 78
1, 41136, Note_on_c, 1, 43, 0
1, 41136, Note_on_c, 1, 55, 78
1, 41170, Note_on_c, 1, 55, 0
1, 41172, Note_on_c, 1, 54, 80
1, 41184, Note_on_c, 0, 74, 0
1, 41184, Note_on_c, 0, 71, 0
1, 41184, Note_on_c, 0, 76, 78
1, 41184, Note_on_c, 0, 72, 78
1, 41184, Note_on_c, 1, 54, 0
1, 41184, Note_on_c, 1, 55, 80
1, 41199, Note_on_c, 1, 55, 0
1, 41220, Note_on_c, 1, 55, 82
1, 41232, Note_on_c, 1, 55, 0
1, 41232, Note_on_c, 1, 60, 82
1, 41266, Note_on_c, 1, 60, 0
1, 41268, Note_on_c, 1, 64, 84
1, 41273, Note_on_c, 0, 76, 0
1, 41273, Note_on_c, 0, 72, 0
1, 41280, Note_on_c, 1, 64, 0
1, 41280, Note_on_c, 1, 67, 85
1, 41316, Note_on_c, 0, 79, 78
1, 41316, Note_on_c, 0, 76, 78
1, 41328, Note_on_c, 0, 79, 0
1, 41328, Note_on_c, 0, 76, 0
1, 41328, Note_on_c, 0, 84, 79
1, 41328, Note_on_c, 0, 76, 79
1, 41362, Note_on_c, 0, 84, 0
1, 41362, Note_on_c, 0, 76, 0
1, 41364, Note_on_c, 0, 84, 83
1, 41364, Note_on_c, 0, 76, 83
1, 41376, Note_on_c, 0, 84, 0
1, 41376, Note_on_c, 0, 76, 0
1, 41376, Note_on_c, 0, 84, 85
1, 41376, Note_on_c, 0, 76, 85
1, 41410, Note_on_c, 0, 84, 0
1, 41410, Note_on_c, 0, 76, 0
1, 41412, Note_on_c, 0, 79, 82
1, 41412, Note_on_c, 0, 76, 82
1, 41424, Note_on_c, 0, 79, 0
1, 41424, Note_on_c, 0, 76, 0
1, 41424, Note_on_c, 0, 77, 81
1, 41424, Note_on_c, 0, 74, 81
1, 41457, Note_on_c, 1, 67, 0
1, 41458, Note_on_c, 0, 77, 0
1, 41458, Note_on_c, 0, 74, 0
1, 41460, Note_on_c, 0, 76, 78
1, 41460, Note_on_c, 0, 72, 78
1, 41472, Note_on_c, 0, 76, 0
1, 41472, Note_on_c, 0, 72, 0
1, 41472, Note_on_c, 0, 76, 78
1, 41472, Note_on_c, 0, 72, 78
1, 41508, Note_on_c, 1, 43, 78
1, 41520, Note_on_c, 1, 43, 0
1, 41520, Note_on_c, 1, 55, 78
1, 41554, Note_on_c, 1, 55, 0
1, 41556, Note_on_c, 1, 54, 78
1, 41568, Note_on_c, 0, 76, 0
1, 41568, Note_on_c, 0, 72, 0
1, 41568, Note_on_c, 0, 74, 78
1, 41568, Note_on_c, 0, 71, 78
1, 41568, Note_on_c, 1, 54, 0
1, 41568, Note_on_c, 1, 55, 79
1, 41583, Note_on_c, 1, 55, 0
1, 41604, Note_on_c, 1, 55, 79
1, 41616, Note_on_c, 1, 55, 0
1, 41616, Note_on_c, 1, 59, 80
1, 41650, Note_on_c, 1, 59, 0
1, 41652, Note_on_c, 1, 62, 80
1, 41657, Note_on_c, 0, 74, 0
1, 41657, Note_on_c, 0, 71, 0
1, 41664, Note_on_c, 1, 62, 0
1, 41664, Note_on_c, 1, 67, 81
1, 41700, Note_on_c, 0, 74, 78
1, 41700, Note_on_c, 0, 71, 78
1, 41712, Note_on_c, 0, 74, 0
1, 41712, Note_on_c, 0, 71, 0
1, 41712, Note_on_c, 0, 83, 79
1, 41712, Note_on_c, 0, 74, 79
1, 41746, Note_on_c, 0, 83, 0
1, 41746, Note_on_c, 0, 74, 0
1, 41748, Note_on_c, 0, 83, 83
1, 41748, Note_on_c, 0, 74, 83
1, 41760, Note_on_c, 0, 83, 0
1, 41760, Note_on_c, 0, 74, 0
1, 41760, Note_on_c, 0, 83, 85
1, 41760, Note_on_c, 0, 74, 85
1, 41760, Note_on_c, 1, 67, 0
1, 41760, Note_on_c, 1, 68, 83
1, 41794, Note_on_c, 0, 83, 0
1, 41794, Note_on_c, 0, 74, 0
1, 41796, Note_on_c, 0, 77, 82
1, 41796, Note_on_c, 0, 74, 82
1, 41808, Note_on_c, 0, 77, 0
1, 41808, Note_on_c, 0, 74, 0
1, 41808, Note_on_c, 0, 76, 81
1, 41808, Note_on_c, 0, 72, 81
1, 41842, Note_on_c, 0, 76, 0
1, 41842, Note_on_c, 0, 72, 0
1, 41844, Note_on_c, 0, 74, 78
1, 41844, Note_on_c, 0, 71, 78
1, 41849, Note_on_c, 1, 68, 0
1, 41856, Note_on_c, 0, 74, 0
1, 41856, Note_on_c, 0, 71, 0
1, 41856, Note_on_c, 0, 74, 78
1, 41856, Note_on_c, 0, 71, 64
1, 41892, Note_on_c, 1, 45, 78
1, 41904, Note_on_c, 1, 45, 0
1, 41904, Note_on_c, 1, 57, 78
1, 41938, Note_on_c, 1, 57, 0
1, 41940, Note_on_c, 1, 56, 79
1, 41945, Note_on_c, 0, 74, 0
1, 41945, Note_on_c, 0, 71, 0
1, 41952, Note_on_c, 0, 72, 78
1, 41952, Note_on_c, 0, 69, 64
1, 41952, Note_on_c, 1, 56, 0
1, 41952, Note_on_c, 1, 57, 79
1, 41958, Note_on_c, 0, 72, 0
1, 41958, Note_on_c, 0, 74, 78
1, 41964, Note_on_c, 0, 74, 0
1, 41964, Note_on_c, 0, 72, 78
1, 41967, Note_on_c, 1, 57, 0
1, 41988, Note_on_c, 1, 57, 80
1, 42000, Note_on_c, 1, 57, 0
1, 42000, Note_on_c, 1, 60, 81
1, 42034, Note_on_c, 1, 60, 0
1, 42036, Note_on_c, 1, 64, 82
1, 42041, Note_on_c, 0, 69, 0
1, 42043, Note_on_c, 0, 72, 0
1, 42048, Note_on_c, 1, 64, 0
1, 42048, Note_on_c, 1, 69, 82
1, 42084, Note_on_c, 0, 81, 78
1, 42084, Note_on_c, 0, 72, 78
1, 42096, Note_on_c, 0, 81, 0
1, 42096, Note_on_c, 0, 72, 0
1, 42096, Note_on_c, 0, 81, 78
1, 42096, Note_on_c, 0, 72, 78
1, 42130, Note_on_c, 0, 81, 0
1, 42130, Note_on_c, 0, 72, 0
1, 42132, Note_on_c, 0, 81, 78
1, 42132, Note_on_c, 0, 72, 78
1, 42144, Note_on_c, 0, 81, 0
1, 42144, Note_on_c, 0, 72, 0
1, 42144, Note_on_c, 0, 81, 78
1, 42144, Note_on_c, 0, 72, 78
1, 42144, Note_on_c, 1, 69, 0
1, 42144, Note_on_c, 1, 63, 85
1, 42178, Note_on_c, 0, 81, 0
1, 42178, Note_on_c, 0, 72, 0
1, 42180, Note_on_c, 0, 72, 78
1, 42180, Note_on_c, 0, 69, 78
1, 42192, Note_on_c, 0, 72, 0
1, 42192, Note_on_c, 0, 69, 0
1, 42192, Note_on_c, 0, 72, 78
1, 42192, Note_on_c, 0, 69, 78
1, 42226, Note_on_c, 0, 72, 0
1, 42226, Note_on_c, 0, 69, 0
1, 42228, Note_on_c, 0, 72, 78
1, 42228, Note_on_c, 0, 69, 78
1, 42233, Note_on_c, 1, 63, 0
1, 42240, Note_on_c, 0, 72, 0
1, 42240, Note_on_c, 0, 69, 0
1, 42240, Note_on_c, 0, 71, 78
1, 42240, Note_on_c, 0, 68, 78
1, 42240, Note_on_c, 1, 52, 78
1, 42274, Note_on_c, 1, 52, 0
1, 42276, Note_on_c, 1, 64, 78
1, 42288, Note_on_c, 1, 64, 0
1, 42288, Note_on_c, 1, 63, 78
1, 42322, Note_on_c, 1, 63, 0
1, 42324, Note_on_c, 1, 64, 79
1, 42329, Note_on_c, 0, 71, 0
1, 42329, Note_on_c, 0, 68, 0
1, 42336, Note_on_c, 1, 64, 0
1, 42336, Note_on_c, 1, 62, 79
1, 42370, Note_on_c, 1, 62, 0
1, 42372, Note_on_c, 1, 64, 80
1, 42384, Note_on_c, 0, 68, 80
1, 42384, Note_on_c, 1, 64, 0
1, 42384, Note_on_c, 1, 59, 80
1, 42418, Note_on_c, 0, 68, 0
1, 42418, Note_on_c, 1, 59, 0
1, 42420, Note_on_c, 0, 80, 81
1, 42420, Note_on_c, 1, 64, 81
1, 42432, Note_on_c, 0, 80, 0
1, 42432, Note_on_c, 0, 69, 81
1, 42432, Note_on_c, 1, 64, 0
1, 42432, Note_on_c, 1, 60, 81
1, 42466, Note_on_c, 0, 69, 0
1, 42466, Note_on_c, 1, 60, 0
1, 42468, Note_on_c, 0, 81, 82
1, 42468, Note_on_c, 1, 64, 82
1, 42480, Note_on_c, 0, 81, 0
1, 42480, Note_on_c, 0, 71, 82
1, 42480, Note_on_c, 1, 64, 0
1, 42480, Note_on_c, 1, 56, 82
1, 42514, Note_on_c, 0, 71, 0
1, 42514, Note_on_c, 1, 56, 0
1, 42516, Note_on_c, 0, 83, 83
1, 42516, Note_on_c, 1, 64, 83
1, 42528, Note_on_c, 0, 83, 0
1, 42528, Note_on_c, 0, 72, 83
1, 42528, Note_on_c, 1, 64, 0
1, 42528, Note_on_c, 1, 57, 83
1, 42562, Note_on_c, 0, 72, 0
1, 42562, Note_on_c, 1, 57, 0
1, 42564, Note_on_c, 0, 84, 83
1, 42564, Note_on_c, 1, 64, 83
1, 42576, Note_on_c, 0, 84, 0
1, 42576, Note_on_c, 0, 75, 84
1, 42576, Note_on_c, 1, 64, 0
1, 42576, Note_on_c, 1, 54, 84
1, 42610, Note_on_c, 0, 75, 0
1, 42610, Note_on_c, 1, 54, 0
1, 42612, Note_on_c, 0, 87, 84
1, 42612, Note_on_c, 1, 64, 84
1, 42624, Note_on_c, 0, 87, 0
1, 42624, Note_on_c, 0, 76, 85
1, 42624, Note_on_c, 1, 64, 0
1, 42624, Note_on_c, 1, 52, 85
1, 42658, Note_on_c, 1, 52, 0
1, 42660, Note_on_c, 1, 64, 82
1, 42672, Note_on_c, 1, 64, 0
1, 42672, Note_on_c, 1, 63, 81
1, 42706, Note_on_c, 1, 63, 0
1, 42708, Note_on_c, 1, 64, 78
1, 42713, Note_on_c, 0, 76, 0
1, 42720, Note_on_c, 1, 64, 0
1, 42720, Note_on_c, 1, 62, 78
1, 42754, Note_on_c, 1, 62, 0
1, 42756, Note_on_c, 1, 64, 79
1, 42768, Note_on_c, 0, 68, 78
1, 42768, Note_on_c, 1, 64, 0
1, 42768, Note_on_c, 1, 59, 79
1, 42802, Note_on_c, 0, 68, 0
1, 42802, Note_on_c, 1, 59, 0
1, 42804, Note_on_c, 0, 71, 79
1, 42804, Note_on_c, 1, 64, 81
1, 42816, Note_on_c, 0, 71, 0
1, 42816, Note_on_c, 0, 69, 80
1, 42816, Note_on_c, 1, 64, 0
1, 42816, Note_on_c, 1, 60, 81
1, 42850, Note_on_c, 0, 69, 0
1, 42850, Note_on_c, 1, 60, 0
1, 42852, Note_on_c, 0, 72, 82
1, 42852, Note_on_c, 1, 64, 82
1, 42864, Note_on_c, 0, 72, 0
1, 42864, Note_on_c, 0, 71, 82
1, 42864, Note_on_c, 1, 64, 0
1, 42864, Note_on_c, 1, 56, 83
1, 42898, Note_on_c, 0, 71, 0
1, 42898, Note_on_c, 1, 56, 0
1, 42900, Note_on_c, 0, 74, 84
1, 42900, Note_on_c, 1, 64, 84
1, 42912, Note_on_c, 0, 74, 0
1, 42912, Note_on_c, 0, 72, 85
1, 42912, Note_on_c, 1, 64, 0
1, 42912, Note_on_c, 1, 57, 85
1, 42946, Note_on_c, 0, 72, 0
1, 42948, Note_on_c, 0, 76, 85
1, 42957, Note_on_c, 1, 57, 0
1, 42960, Note_on_c, 0, 76, 0
1, 42960, Note_on_c, 0, 73, 85
1, 42960, Note_on_c, 1, 67, 85
1, 42960, Note_on_c, 1, 69, 64
1, 42994, Note_on_c, 0, 73, 0
1, 42996, Note_on_c, 0, 76, 85
1, 43005, Note_on_c, 1, 67, 0
1, 43008, Note_on_c, 0, 76, 0
1, 43008, Note_on_c, 0, 74, 85
1, 43008, Note_on_c, 1, 65, 85
1, 43042, Note_on_c, 0, 74, 0
1, 43044, Note_on_c, 0, 77, 85
1, 43053, Note_on_c, 1, 65, 0
1, 43056, Note_on_c, 0, 77, 0
1, 43056, Note_on_c, 0, 76, 85
1, 43056, Note_on_c, 1, 61, 85
1, 43090, Note_on_c, 0, 76, 0
1, 43092, Note_on_c, 0, 79, 85
1, 43101, Note_on_c, 1, 61, 0
1, 43104, Note_on_c, 0, 79, 0
1, 43104, Note_on_c, 0, 77, 85
1, 43104, Note_on_c, 1, 62, 85
1, 43138, Note_on_c, 0, 77, 0
1, 43140, Note_on_c, 0, 81, 85
1, 43149, Note_on_c, 1, 62, 0
1, 43152, Note_on_c, 0, 81, 0
1, 43152, Note_on_c, 0, 76, 85
1, 43152, Note_on_c, 1, 64, 85
1, 43186, Note_on_c, 0, 76, 0
1, 43188, Note_on_c, 0, 81, 85
1, 43197, Note_on_c, 1, 64, 0
1, 43200, Note_on_c, 0, 81, 0
1, 43200, Note_on_c, 0, 74, 85
1, 43200, Note_on_c, 1, 65, 85
1, 43234, Note_on_c, 0, 74, 0
1, 43236, Note_on_c, 0, 81, 85
1, 43245, Note_on_c, 1, 65, 0
1, 43245, Note_on_c, 1, 69, 0
1, 43248, Note_on_c, 0, 81, 0
1, 43248, Note_on_c, 0, 72, 85
1, 43248, Note_on_c, 1, 64, 85
1, 43248, Note_on_c, 1, 67, 64
1, 43282, Note_on_c, 0, 72, 0
1, 43284, Note_on_c, 0, 81, 85
1, 43293, Note_on_c, 1, 64, 0
1, 43293, Note_on_c, 1, 67, 0
1, 43296, Note_on_c, 0, 81, 0
1, 43296, Note_on_c, 0, 71, 85
1, 43296, Note_on_c, 1, 62, 85
1, 43296, Note_on_c, 1, 65, 64
1, 43330, Note_on_c, 0, 71, 0
1, 43332, Note_on_c, 0, 81, 85
1, 43341, Note_on_c, 1, 62, 0
1, 43341, Note_on_c, 1, 65, 0
1, 43344, Note_on_c, 0, 81, 0
1, 43344, Note_on_c, 0, 69, 85
1, 43344, Note_on_c, 1, 60, 85
1, 43344, Note_on_c, 1, 64, 64
1, 43378, Note_on_c, 0, 69, 0
1, 43380, Note_on_c, 0, 81, 85
1, 43389, Note_on_c, 1, 60, 0
1, 43389, Note_on_c, 1, 64, 0
1, 43392, Note_on_c, 0, 81, 0
1, 43392, Note_on_c, 0, 68, 85
1, 43392, Note_on_c, 1, 59, 85
1, 43392, Note_on_c, 1, 62, 64
1, 43426, Note_on_c, 0, 68, 0
1, 43428, Note_on_c, 0, 80, 85
1, 43437, Note_on_c, 1, 59, 0
1, 43437, Note_on_c, 1, 62, 0
1, 43440, Note_on_c, 0, 80, 0
1, 43440, Note_on_c, 0, 65, 85
1, 43440, Note_on_c, 1, 57, 85
1, 43440, Note_on_c, 1, 60, 64
1, 43474, Note_on_c, 0, 65, 0
1, 43476, Note_on_c, 0, 77, 85
1, 43485, Note_on_c, 1, 57, 0
1, 43485, Note_on_c, 1, 60, 0
1, 43488, Note_on_c, 0, 77, 0
1, 43488, Note_on_c, 0, 64, 85
1, 43488, Note_on_c, 1, 56, 85
1, 43488, Note_on_c, 1, 59, 64
1, 43522, Note_on_c, 0, 64, 0
1, 43524, Note_on_c, 0, 83, 85
1, 43533, Note_on_c, 1, 59, 0
1, 43536, Note_on_c, 0, 83, 0
1, 43536, Note_on_c, 0, 71, 85
1, 43536, Note_on_c, 1, 64, 64
1, 43570, Note_on_c, 0, 71, 0
1, 43572, Note_on_c, 0, 74, 85
1, 43577, Note_on_c, 1, 56, 0
1, 43584, Note_on_c, 0, 74, 0
1, 43584, Note_on_c, 0, 72, 85
1, 43584, Note_on_c, 1, 57, 85
1, 43599, Note_on_c, 0, 72, 0
1, 43600, Note_on_c, 0, 83, 78
1, 43615, Note_on_c, 0, 83, 0
1, 43616, Note_on_c, 0, 84, 78
1, 43631, Note_on_c, 0, 84, 0
1, 43632, Note_on_c, 0, 80, 78
1, 43647, Note_on_c, 0, 80, 0
1, 43648, Note_on_c, 0, 81, 78
1, 43663, Note_on_c, 0, 81, 0
1, 43664, Note_on_c, 0, 77, 78
1, 43673, Note_on_c, 1, 57, 0
1, 43673, Note_on_c, 1, 64, 0
1, 43679, Note_on_c, 0, 77, 0
1, 43680, Note_on_c, 0, 76, 78
1, 43716, Note_on_c, 1, 64, 64
1, 43725, Note_on_c, 0, 76, 0
1, 43728, Note_on_c, 0, 76, 78
1, 43728, Note_on_c, 1, 64, 0
1, 43728, Note_on_c, 1, 66, 64
1, 43736, Note_on_c, 0, 76, 0
1, 43736, Note_on_c, 0, 74, 78
1, 43744, Note_on_c, 0, 74, 0
1, 43744, Note_on_c, 0, 76, 78
1, 43752, Note_on_c, 0, 76, 0
1, 43752, Note_on_c, 0, 74, 78
1, 43760, Note_on_c, 0, 74, 0
1, 43760, Note_on_c, 0, 72, 78
1, 43762, Note_on_c, 1, 66, 0
1, 43764, Note_on_c, 1, 68, 64
1, 43768, Note_on_c, 0, 72, 0
1, 43768, Note_on_c, 0, 74, 78
1, 43776, Note_on_c, 0, 74, 0
1, 43776, Note_on_c, 0, 72, 78
1, 43776, Note_on_c, 1, 69, 78
1, 43776, Note_on_c, 1, 68, 0
1, 43791, Note_on_c, 0, 72, 0
1, 43792, Note_on_c, 0, 83, 78
1, 43807, Note_on_c, 0, 83, 0
1, 43808, Note_on_c, 0, 84, 78
1, 43823, Note_on_c, 0, 84, 0
1, 43824, Note_on_c, 0, 80, 78
1, 43839, Note_on_c, 0, 80, 0
1, 43840, Note_on_c, 0, 81, 78
1, 43855, Note_on_c, 0, 81, 0
1, 43856, Note_on_c, 0, 77, 78
1, 43865, Note_on_c, 1, 69, 0
1, 43871, Note_on_c, 0, 77, 0
1, 43872, Note_on_c, 0, 76, 78
1, 43908, Note_on_c, 1, 64, 78
1, 43917, Note_on_c, 0, 76, 0
1, 43920, Note_on_c, 0, 76, 78
1, 43920, Note_on_c, 1, 64, 0
1, 43920, Note_on_c, 1, 66, 78
1, 43928, Note_on_c, 0, 76, 0
1, 43928, Note_on_c, 0, 74, 78
1, 43936, Note_on_c, 0, 74, 0
1, 43936, Note_on_c, 0, 76, 78
1, 43944, Note_on_c, 0, 76, 0
1, 43944, Note_on_c, 0, 74, 78
1, 43952, Note_on_c, 0, 74, 0
1, 43952, Note_on_c, 0, 72, 78
1, 43954, Note_on_c, 1, 66, 0
1, 43956, Note_on_c, 1, 68, 78
1, 43960, Note_on_c, 0, 72, 0
1, 43960, Note_on_c, 0, 74, 78
1, 43968, Note_on_c, 0, 74, 0
1, 43968, Note_on_c, 1, 68, 0
1, 43968, Note_on_c, 1, 69, 78
1, 43984, Note_on_c, 0, 72, 78
1, 43999, Note_on_c, 0, 72, 0
1, 44000, Note_on_c, 0, 76, 78
1, 44013, Note_on_c, 1, 69, 0
1, 44015, Note_on_c, 0, 76, 0
1, 44016, Note_on_c, 0, 81, 78
1, 44031, Note_on_c, 0, 81, 0
1, 44032, Note_on_c, 0, 76, 78
1, 44047, Note_on_c, 0, 76, 0
1, 44048, Note_on_c, 0, 72, 78
1, 44063, Note_on_c, 0, 72, 0
1, 44064, Note_on_c, 1, 65, 78
1, 44080, Note_on_c, 0, 69, 78
1, 44095, Note_on_c, 0, 69, 0
1, 44096, Note_on_c, 0, 72, 78
1, 44109, Note_on_c, 1, 65, 0
1, 44111, Note_on_c, 0, 72, 0
1, 44112, Note_on_c, 0, 81, 78
1, 44127, Note_on_c, 0, 81, 0
1, 44128, Note_on_c, 0, 72, 78
1, 44143, Note_on_c, 0, 72, 0
1, 44144, Note_on_c, 0, 69, 78
1, 44159, Note_on_c, 0, 69, 0
1, 44160, Note_on_c, 1, 64, 78
1, 44176, Note_on_c, 0, 69, 78
1, 44191, Note_on_c, 0, 69, 0
1, 44192, Note_on_c, 0, 72, 78
1, 44205, Note_on_c, 1, 64, 0
1, 44207, Note_on_c, 0, 72, 0
1, 44208, Note_on_c, 0, 81, 78
1, 44223, Note_on_c, 0, 81, 0
1, 44224, Note_on_c, 0, 72, 78
1, 44239, Note_on_c, 0, 72, 0
1, 44240, Note_on_c, 0, 69, 78
1, 44255, Note_on_c, 0, 69, 0
1, 44256, Note_on_c, 1, 63, 78
1, 44272, Note_on_c, 0, 69, 78
1, 44276, Note_on_c, 1, 63, 0
1, 44287, Note_on_c, 0, 69, 0
1, 44288, Note_on_c, 0, 81, 78
1, 44303, Note_on_c, 0, 81, 0
1, 44304, Note_on_c, 1, 75, 78
1, 44320, Note_on_c, 0, 72, 78
1, 44324, Note_on_c, 1, 75, 0
1, 44335, Note_on_c, 0, 72, 0
1, 44336, Note_on_c, 0, 84, 78
1, 44351, Note_on_c, 0, 84, 0
1, 44352, Note_on_c, 1, 62, 78
1, 44368, Note_on_c, 0, 68, 78
1, 44383, Note_on_c, 0, 68, 0
1, 44384, Note_on_c, 0, 71, 78
1, 44399, Note_on_c, 0, 71, 0
1, 44400, Note_on_c, 0, 77, 78
1, 44415, Note_on_c, 0, 77, 0
1, 44416, Note_on_c, 0, 71, 78
1, 44431, Note_on_c, 0, 71, 0
1, 44432, Note_on_c, 0, 68, 78
1, 44441, Note_on_c, 1, 62, 0
1, 44447, Note_on_c, 0, 68, 0
1, 44448, Note_on_c, 1, 68, 78
1, 44464, Note_on_c, 0, 71, 78
1, 44468, Note_on_c, 1, 68, 0
1, 44479, Note_on_c, 0, 71, 0
1, 44480, Note_on_c, 0, 83, 78
1, 44495, Note_on_c, 0, 83, 0
1, 44496, Note_on_c, 1, 62, 78
1, 44512, Note_on_c, 0, 68, 78
1, 44516, Note_on_c, 1, 62, 0
1, 44527, Note_on_c, 0, 68, 0
1, 44528, Note_on_c, 0, 80, 78
1, 44543, Note_on_c, 0, 80, 0
1, 44544, Note_on_c, 1, 60, 78
1, 44560, Note_on_c, 0, 69, 78
1, 44564, Note_on_c, 1, 60, 0
1, 44575, Note_on_c, 0, 69, 0
1, 44576, Note_on_c, 0, 81, 78
1, 44591, Note_on_c, 0, 81, 0
1, 44592, Note_on_c, 1, 61, 78
1, 44608, Note_on_c, 0, 67, 78
1, 44612, Note_on_c, 1, 61, 0
1, 44623, Note_on_c, 0, 67, 0
1, 44624, Note_on_c, 0, 79, 78
1, 44639, Note_on_c, 0, 79, 0
1, 44640, Note_on_c, 1, 62, 78
1, 44656, Note_on_c, 0, 65, 78
1, 44660, Note_on_c, 1, 62, 0
1, 44671, Note_on_c, 0, 65, 0
1, 44672, Note_on_c, 0, 77, 78
1, 44687, Note_on_c, 0, 77, 0
1, 44688, Note_on_c, 1, 64, 78
1, 44704, Note_on_c, 0, 67, 78
1, 44708, Note_on_c, 1, 64, 0
1, 44719, Note_on_c, 0, 67, 0
1, 44720, Note_on_c, 0, 73, 78
1, 44735, Note_on_c, 0, 73, 0
1, 44736, Note_on_c, 1, 65, 78
1, 44752, Note_on_c, 0, 69, 78
1, 44756, Note_on_c, 1, 65, 0
1, 44767, Note_on_c, 0, 69, 0
1, 44768, Note_on_c, 0, 74, 78
1, 44783, Note_on_c, 0, 74, 0
1, 44784, Note_on_c, 1, 69, 78
1, 44800, Note_on_c, 0, 69, 78
1, 44804, Note_on_c, 1, 69, 0
1, 44815, Note_on_c, 0, 69, 0
1, 44816, Note_on_c, 0, 77, 78
1, 44831, Note_on_c, 0, 77, 0
1, 44832, Note_on_c, 1, 65, 78
1, 44848, Note_on_c, 0, 69, 78
1, 44852, Note_on_c, 1, 65, 0
1, 44863, Note_on_c, 0, 69, 0
1, 44864, Note_on_c, 0, 74, 78
1, 44879, Note_on_c, 0, 74, 0
1, 44880, Note_on_c, 1, 64, 78
1, 44896, Note_on_c, 0, 67, 78
1, 44900, Note_on_c, 1, 64, 0
1, 44911, Note_on_c, 0, 67, 0
1, 44912, Note_on_c, 0, 72, 78
1, 44927, Note_on_c, 0, 72, 0
1, 44928, Note_on_c, 0, 70, 78
1, 44928, Note_on_c, 1, 62, 78
1, 44943, Note_on_c, 1, 62, 0
1, 44944, Note_on_c, 1, 50, 78
1, 44948, Note_on_c, 0, 70, 0
1, 44959, Note_on_c, 1, 50, 0
1, 44960, Note_on_c, 1, 53, 78
1, 44975, Note_on_c, 1, 53, 0
1, 44976, Note_on_c, 1, 58, 78
1, 44992, Note_on_c, 0, 65, 85
1, 45007, Note_on_c, 0, 65, 0
1, 45008, Note_on_c, 0, 70, 85
1, 45021, Note_on_c, 1, 58, 0
1, 45023, Note_on_c, 0, 70, 0
1, 45024, Note_on_c, 0, 74, 85
1, 45039, Note_on_c, 0, 74, 0
1, 45040, Note_on_c, 0, 70, 86
1, 45055, Note_on_c, 0, 70, 0
1, 45056, Note_on_c, 0, 74, 86
1, 45071, Note_on_c, 0, 74, 0
1, 45072, Note_on_c, 0, 77, 87
1, 45087, Note_on_c, 0, 77, 0
1, 45088, Note_on_c, 0, 74, 87
1, 45103, Note_on_c, 0, 74, 0
1, 45104, Note_on_c, 0, 77, 88
1, 45119, Note_on_c, 0, 77, 0
1, 45120, Note_on_c, 0, 82, 88
1, 45135, Note_on_c, 0, 82, 0
1, 45136, Note_on_c, 0, 77, 89
1, 45151, Note_on_c, 0, 77, 0
1, 45152, Note_on_c, 0, 82, 89
1, 45167, Note_on_c, 0, 82, 0
1, 45168, Note_on_c, 0, 86, 90
1, 45183, Note_on_c, 0, 86, 0
1, 45184, Note_on_c, 0, 82, 90
1, 45199, Note_on_c, 0, 82, 0
1, 45200, Note_on_c, 0, 86, 91
1, 45215, Note_on_c, 0, 86, 0
1, 45216, Note_on_c, 0, 89, 94
1, 45231, Note_on_c, 0, 89, 0
1, 45252, Note_on_c, 0, 69, 94
1, 45252, Note_on_c, 0, 66, 94
1, 45252, Note_on_c, 0, 63, 94
1, 45252, Note_on_c, 1, 60, 94
1, 45252, Note_on_c, 1, 57, 94
1, 45252, Note_on_c, 1, 54, 94
1, 45252, Note_on_c, 1, 51, 94
1, 45264, Note_on_c, 0, 69, 0
1, 45264, Note_on_c, 0, 66, 0
1, 45264, Note_on_c, 0, 63, 0
1, 45264, Note_on_c, 0, 69, 94
1, 45264, Note_on_c, 0, 66, 94
1, 45264, Note_on_c, 0, 63, 94
1, 45264, Note_on_c, 1, 60, 0
1, 45264, Note_on_c, 1, 57, 0
1, 45264, Note_on_c, 1, 54, 0
1, 45264, Note_on_c, 1, 51, 0
1, 45264, Note_on_c, 1, 60, 94
1, 45264, Note_on_c, 1, 57, 94
1, 45264, Note_on_c, 1, 54, 94
1, 45264, Note_on_c, 1, 51, 94
1, 45298, Note_on_c, 0, 69, 0
1, 45298, Note_on_c, 0, 66, 0
1, 45298, Note_on_c, 0, 63, 0
1, 45298, Note_on_c, 1, 60, 0
1, 45298, Note_on_c, 1, 57, 0
1, 45298, Note_on_c, 1, 54, 0
1, 45298, Note_on_c, 1, 51, 0
1, 45300, Note_on_c, 0, 69, 94
1, 45300, Note_on_c, 0, 66, 94
1, 45300, Note_on_c, 0, 63, 94
1, 45300, Note_on_c, 1, 60, 94
1, 45300, Note_on_c, 1, 57, 94
1, 45300, Note_on_c, 1, 54, 94
1, 45300, Note_on_c, 1, 51, 94
1, 45312, Note_on_c, 0, 69, 0
1, 45312, Note_on_c, 0, 66, 0
1, 45312, Note_on_c, 0, 63, 0
1, 45312, Note_on_c, 0, 64, 94
1, 45312, Note_on_c, 1, 60, 0
1, 45312, Note_on_c, 1, 57, 0
1, 45312, Note_on_c, 1, 54, 0
1, 45312, Note_on_c, 1, 51, 0
1, 45312, Note_on_c, 1, 60, 94
1, 45312, Note_on_c, 1, 57, 94
1, 45312, Note_on_c, 1, 52, 94
1, 45327, Note_on_c, 0, 64, 0
1, 45328, Note_on_c, 0, 69, 92
1, 45343, Note_on_c, 0, 69, 0
1, 45344, Note_on_c, 0, 72, 91
1, 45359, Note_on_c, 0, 72, 0
1, 45360, Note_on_c, 0, 76, 89
1, 45375, Note_on_c, 0, 76, 0
1, 45376, Note_on_c, 0, 72, 88
1, 45391, Note_on_c, 0, 72, 0
1, 45392, Note_on_c, 0, 69, 86
1, 45401, Note_on_c, 1, 60, 0
1, 45401, Note_on_c, 1, 57, 0
1, 45401, Note_on_c, 1, 52, 0
1, 45407, Note_on_c, 0, 69, 0
1, 45408, Note_on_c, 0, 64, 85
1, 45453, Note_on_c, 0, 64, 0
1, 45456, Note_on_c, 0, 56, 79
1, 45456, Note_on_c, 0, 50, 79
1, 45456, Note_on_c, 1, 40, 76
1, 45501, Note_on_c, 0, 56, 0
1, 45501, Note_on_c, 0, 50, 0
1, 45501, Note_on_c, 1, 40, 0
1, 45504, Note_on_c, 0, 56, 73
1, 45504, Note_on_c, 0, 50, 73
1, 45504, Note_on_c, 1, 33, 70
1, 45600, Note_on_c, 0, 56, 0
1, 45600, Note_on_c, 0, 50, 0
1, 45600, Note_on_c, 0, 57, 59
1, 45600, Note_on_c, 0, 48, 59
1, 45645, Note_on_c, 0, 57, 0
1, 45645, Note_on_c, 0, 48, 0
1, 45645, Note_on_c, 1, 33, 0
1, 45648, Note_on_c, 0, 76, 78
1, 45663, Note_on_c, 0, 76, 0
1, 45664, Note_on_c, 0, 81, 78
1, 45679, Note_on_c, 0, 81, 0
1, 45680, Note_on_c, 0, 84, 78
1, 45695, Note_on_c, 0, 84, 0
1, 45696, Note_on_c, 0, 76, 78
1, 45711, Note_on_c, 0, 76, 0
1, 45712, Note_on_c, 0, 75, 78
1, 45727, Note_on_c, 0, 75, 0
1, 45728, Note_on_c, 0, 74, 78
1, 45743, Note_on_c, 0, 74, 0
1, 45744, Note_on_c, 0, 83, 78
1, 45744, Note_on_c, 1, 64, 78
1, 45789, Note_on_c, 1, 64, 0
1, 45792, Note_on_c, 1, 66, 78
1, 45807, Note_on_c, 0, 83, 0
1, 45808, Note_on_c, 0, 81, 78
1, 45823, Note_on_c, 0, 81, 0
1, 45824, Note_on_c, 0, 80, 78
1, 45837, Note_on_c, 1, 66, 0
1, 45839, Note_on_c, 0, 80, 0
1, 45840, Note_on_c, 0, 78, 78
1, 45840, Note_on_c, 1, 68, 78
1, 45855, Note_on_c, 0, 78, 0
1, 45856, Note_on_c, 0, 76, 78
1, 45871, Note_on_c, 0, 76, 0
1, 45872, Note_on_c, 0, 74, 78
1, 45885, Note_on_c, 1, 68, 0
1, 45887, Note_on_c, 0, 74, 0
1, 45888, Note_on_c, 0, 72, 78
1, 45888, Note_on_c, 1, 69, 78
1, 45903, Note_on_c, 0, 72, 0
1, 45904, Note_on_c, 0, 76, 78
1, 45919, Note_on_c, 0, 76, 0
1, 45920, Note_on_c, 0, 81, 78
1, 45935, Note_on_c, 0, 81, 0
1, 45936, Note_on_c, 0, 76, 78
1, 45951, Note_on_c, 0, 76, 0
1, 45952, Note_on_c, 0, 81, 78
1, 45967, Note_on_c, 0, 81, 0
1, 45968, Note_on_c, 0, 84, 78
1, 45977, Note_on_c, 1, 69, 0
1, 45983, Note_on_c, 0, 84, 0
1, 45984, Note_on_c, 0, 88, 78
1, 46004, Note_on_c, 0, 88, 0
1, 46032, Note_on_c, 0, 76, 78
1, 46047, Note_on_c, 0, 76, 0
1, 46048, Note_on_c, 0, 81, 78
1, 46063, Note_on_c, 0, 81, 0
1, 46064, Note_on_c, 0, 84, 78
1, 46079, Note_on_c, 0, 84, 0
1, 46080, Note_on_c, 0, 76, 78
1, 46095, Note_on_c, 0, 76, 0
1, 46096, Note_on_c, 0, 75, 78
1, 46111, Note_on_c, 0, 75, 0
1, 46112, Note_on_c, 0, 74, 78
1, 46127, Note_on_c, 0, 74, 0
1, 46128, Note_on_c, 0, 83, 94
1, 46128, Note_on_c, 1, 64, 78
1, 46173, Note_on_c, 1, 64, 0
1, 46176, Note_on_c, 1, 66, 78
1, 46191, Note_on_c, 0, 83, 0
1, 46192, Note_on_c, 0, 81, 78
1, 46207, Note_on_c, 0, 81, 0
1, 46208, Note_on_c, 0, 80, 78
1, 46221, Note_on_c, 1, 66, 0
1, 46223, Note_on_c, 0, 80, 0
1, 46224, Note_on_c, 0, 78, 78
1, 46224, Note_on_c, 1, 68, 78
1, 46239, Note_on_c, 0, 78, 0
1, 46240, Note_on_c, 0, 76, 78
1, 46255, Note_on_c, 0, 76, 0
1, 46256, Note_on_c, 0, 74, 78
1, 46269, Note_on_c, 1, 68, 0
1, 46271, Note_on_c, 0, 74, 0
1, 46272, Note_on_c, 0, 74, 78
1, 46272, Note_on_c, 1, 69, 78
1, 46287, Note_on_c, 0, 74, 0
1, 46288, Note_on_c, 0, 73, 78
1, 46303, Note_on_c, 0, 73, 0
1, 46304, Note_on_c, 0, 72, 78
1, 46317, Note_on_c, 1, 69, 0
1, 46319, Note_on_c, 0, 72, 0
1, 46320, Note_on_c, 0, 81, 94
1, 46320, Note_on_c, 1, 62, 78
1, 46365, Note_on_c, 1, 62, 0
1, 46368, Note_on_c, 1, 64, 78
1, 46383, Note_on_c, 0, 81, 0
1, 46384, Note_on_c, 0, 79, 78
1, 46399, Note_on_c, 0, 79, 0
1, 46400, Note_on_c, 0, 78, 78
1, 46413, Note_on_c, 1, 64, 0
1, 46415, Note_on_c, 0, 78, 0
1, 46416, Note_on_c, 0, 76, 78
1, 46416, Note_on_c, 1, 66, 78
1, 46431, Note_on_c, 0, 76, 0
1, 46432, Note_on_c, 0, 74, 78
1, 46447, Note_on_c, 0, 74, 0
1, 46448, Note_on_c, 0, 72, 78
1, 46461, Note_on_c, 1, 66, 0
1, 46463, Note_on_c, 0, 72, 0
1, 46464, Note_on_c, 0, 72, 78
1, 46464, Note_on_c, 1, 67, 78
1, 46479, Note_on_c, 0, 72, 0
1, 46480, Note_on_c, 0, 71, 78
1, 46495, Note_on_c, 0, 71, 0
1, 46496, Note_on_c, 0, 70, 78
1, 46509, Note_on_c, 1, 67, 0
1, 46511, Note_on_c, 0, 70, 0
1, 46512, Note_on_c, 0, 79, 94
1, 46512, Note_on_c, 1, 60, 78
1, 46557, Note_on_c, 1, 60, 0
1, 46560, Note_on_c, 1, 62, 78
1, 46575, Note_on_c, 0, 79, 0
1, 46576, Note_on_c, 0, 77, 78
1, 46591, Note_on_c, 0, 77, 0
1, 46592, Note_on_c, 0, 76, 78
1, 46605, Note_on_c, 1, 62, 0
1, 46607, Note_on_c, 0, 76, 0
1, 46608, Note_on_c, 0, 74, 78
1, 46608, Note_on_c, 1, 64, 78
1, 46623, Note_on_c, 0, 74, 0
1, 46624, Note_on_c, 0, 72, 78
1, 46639, Note_on_c, 0, 72, 0
1, 46640, Note_on_c, 0, 70, 78
1, 46653, Note_on_c, 1, 64, 0
1, 46655, Note_on_c, 0, 70, 0
1, 46656, Note_on_c, 0, 69, 78
1, 46656, Note_on_c, 1, 65, 78
1, 46671, Note_on_c, 0, 69, 0
1, 46672, Note_on_c, 0, 77, 78
1, 46687, Note_on_c, 0, 77, 0
1, 46688, Note_on_c, 0, 76, 78
1, 46703, Note_on_c, 0, 76, 0
1, 46704, Note_on_c, 0, 74, 78
1, 46719, Note_on_c, 0, 74, 0
1, 46720, Note_on_c, 0, 81, 78
1, 46735, Note_on_c, 0, 81, 0
1, 46736, Note_on_c, 0, 79, 78
1, 46751, Note_on_c, 0, 79, 0
1, 46752, Note_on_c, 0, 77, 78
1, 46767, Note_on_c, 0, 77, 0
1, 46768, Note_on_c, 0, 76, 78
1, 46783, Note_on_c, 0, 76, 0
1, 46784, Note_on_c, 0, 74, 78
1, 46789, Note_on_c, 1, 65, 0
1, 46799, Note_on_c, 0, 74, 0
1, 46800, Note_on_c, 0, 72, 78
1, 46800, Note_on_c, 1, 66, 78
1, 46815, Note_on_c, 0, 72, 0
1, 46816, Note_on_c, 0, 71, 78
1, 46831, Note_on_c, 0, 71, 0
1, 46832, Note_on_c, 0, 72, 78
1, 46845, Note_on_c, 1, 66, 0
1, 46847, Note_on_c, 0, 72, 0
1, 46848, Note_on_c, 0, 72, 78
1, 46848, Note_on_c, 1, 67, 78
1, 46893, Note_on_c, 1, 67, 0
1, 46896, Note_on_c, 1, 62, 78
1, 46941, Note_on_c, 1, 62, 0
1, 46944, Note_on_c, 0, 72, 0
1, 46944, Note_on_c, 0, 71, 78
1, 46944, Note_on_c, 1, 55, 78
1, 46964, Note_on_c, 0, 71, 0
1, 46989, Note_on_c, 1, 55, 0
1, 46992, Note_on_c, 0, 72, 78
1, 47026, Note_on_c, 0, 72, 0
1, 47028, Note_on_c, 0, 76, 78
1, 47040, Note_on_c, 0, 76, 0
1, 47040, Note_on_c, 0, 79, 78
1, 47074, Note_on_c, 0, 79, 0
1, 47076, Note_on_c, 0, 76, 78
1, 47088, Note_on_c, 0, 76, 0
1, 47088, Note_on_c, 0, 84, 94
1, 47088, Note_on_c, 1, 48, 78
1, 47133, Note_on_c, 1, 48, 0
1, 47136, Note_on_c, 1, 60, 78
1, 47170, Note_on_c, 0, 84, 0
1, 47172, Note_on_c, 0, 83, 78
1, 47181, Note_on_c, 1, 60, 0
1, 47184, Note_on_c, 0, 83, 0
1, 47184, Note_on_c, 0, 81, 78
1, 47184, Note_on_c, 1, 64, 78
1, 47218, Note_on_c, 0, 81, 0
1, 47220, Note_on_c, 0, 79, 78
1, 47229, Note_on_c, 1, 64, 0
1, 47232, Note_on_c, 0, 79, 0
1, 47232, Note_on_c, 0, 79, 78
1, 47232, Note_on_c, 1, 62, 78
1, 47277, Note_on_c, 1, 62, 0
1, 47280, Note_on_c, 1, 50, 78
1, 47321, Note_on_c, 0, 79, 0
1, 47325, Note_on_c, 1, 50, 0
1, 47328, Note_on_c, 0, 77, 78
1, 47328, Note_on_c, 1, 62, 78
1, 47334, Note_on_c, 0, 77, 0
1, 47334, Note_on_c, 0, 79, 78
1, 47340, Note_on_c, 0, 79, 0
1, 47340, Note_on_c, 0, 77, 78
1, 47362, Note_on_c, 0, 77, 0
1, 47364, Note_on_c, 0, 76, 78
1, 47373, Note_on_c, 1, 62, 0
1, 47376, Note_on_c, 0, 76, 0
1, 47376, Note_on_c, 0, 74, 78
1, 47376, Note_on_c, 1, 65, 78
1, 47382, Note_on_c, 0, 74, 0
1, 47382, Note_on_c, 0, 76, 78
1, 47388, Note_on_c, 0, 76, 0
1, 47388, Note_on_c, 0, 74, 78
1, 47410, Note_on_c, 0, 74, 0
1, 47412, Note_on_c, 0, 72, 78
1, 47421, Note_on_c, 1, 65, 0
1, 47424, Note_on_c, 0, 72, 0
1, 47424, Note_on_c, 0, 72, 78
1, 47424, Note_on_c, 1, 67, 78
1, 47469, Note_on_c, 1, 67, 0
1, 47472, Note_on_c, 1, 55, 78
1, 47517, Note_on_c, 1, 55, 0
1, 47520, Note_on_c, 0, 72, 0
1, 47520, Note_on_c, 0, 71, 78
1, 47535, Note_on_c, 0, 71, 0
1, 47536, Note_on_c, 0, 74, 78
1, 47551, Note_on_c, 0, 74, 0
1, 47552, Note_on_c, 0, 77, 78
1, 47567, Note_on_c, 0, 77, 0
1, 47568, Note_on_c, 0, 81, 78
1, 47568, Note_on_c, 1, 59, 78
1, 47583, Note_on_c, 0, 81, 0
1, 47584, Note_on_c, 0, 79, 78
1, 47599, Note_on_c, 0, 79, 0
1, 47600, Note_on_c, 0, 77, 78
1, 47613, Note_on_c, 1, 59, 0
1, 47615, Note_on_c, 0, 77, 0
1, 47616, Note_on_c, 0, 77, 78
1, 47616, Note_on_c, 1, 60, 78
1, 47661, Note_on_c, 1, 60, 0
1, 47664, Note_on_c, 1, 48, 78
1, 47705, Note_on_c, 0, 77, 0
1, 47709, Note_on_c, 1, 48, 0
1, 47712, Note_on_c, 0, 77, 78
1, 47718, Note_on_c, 0, 77, 0
1, 47718, Note_on_c, 0, 76, 78
1, 47724, Note_on_c, 0, 76, 0
1, 47724, Note_on_c, 0, 74, 78
1, 47730, Note_on_c, 0, 74, 0
1, 47730, Note_on_c, 0, 76, 78
1, 47746, Note_on_c, 0, 76, 0
1, 47748, Note_on_c, 0, 79, 78
1, 47760, Note_on_c, 0, 79, 0
1, 47760, Note_on_c, 0, 72, 78
1, 47760, Note_on_c, 1, 52, 78
1, 47794, Note_on_c, 0, 72, 0
1, 47796, Note_on_c, 0, 76, 78
1, 47805, Note_on_c, 1, 52, 0
1, 47808, Note_on_c, 0, 76, 0
1, 47808, Note_on_c, 0, 69, 78
1, 47808, Note_on_c, 1, 53, 78
1, 47842, Note_on_c, 0, 69, 0
1, 47844, Note_on_c, 0, 73, 78
1, 47853, Note_on_c, 1, 53, 0
1, 47856, Note_on_c, 0, 73, 0
1, 47856, Note_on_c, 0, 74, 78
1, 47856, Note_on_c, 1, 41, 78
1, 47862, Note_on_c, 0, 74, 0
1, 47862, Note_on_c, 0, 73, 78
1, 47868, Note_on_c, 0, 73, 0
1, 47868, Note_on_c, 0, 74, 78
1, 47890, Note_on_c, 0, 74, 0
1, 47892, Note_on_c, 0, 77, 78
1, 47901, Note_on_c, 1, 41, 0
1, 47904, Note_on_c, 0, 77, 0
1, 47904, Note_on_c, 0, 76, 78
1, 47938, Note_on_c, 0, 76, 0
1, 47940, Note_on_c, 0, 79, 78
1, 47952, Note_on_c, 0, 79, 0
1, 47952, Note_on_c, 0, 71, 78
1, 47952, Note_on_c, 1, 65, 78
1, 47952, Note_on_c, 1, 55, 78
1, 47986, Note_on_c, 0, 71, 0
1, 47988, Note_on_c, 0, 74, 78
1, 47997, Note_on_c, 1, 65, 0
1, 47997, Note_on_c, 1, 55, 0
1, 48000, Note_on_c, 0, 74, 0
1, 48000, Note_on_c, 0, 72, 78
1, 48036, Note_on_c, 1, 48, 78
1, 48039, Note_on_c, 0, 72, 0
1, 48048, Note_on_c, 1, 48, 0
1, 48048, Note_on_c, 1, 52, 78
1, 48082, Note_on_c, 1, 52, 0
1, 48084, Note_on_c, 1, 55, 78
1, 48096, Note_on_c, 1, 55, 0
1, 48096, Note_on_c, 1, 60, 78
1, 48116, Note_on_c, 1, 60, 0
1, 48144, Note_on_c, 0, 60, 78
1, 48178, Note_on_c, 0, 60, 0
1, 48180, Note_on_c, 0, 64, 80
1, 48192, Note_on_c, 0, 64, 0
1, 48192, Note_on_c, 0, 67, 81
1, 48226, Note_on_c, 0, 67, 0
1, 48228, Note_on_c, 0, 64, 84
1, 48228, Note_on_c, 1, 36, 78
1, 48240, Note_on_c, 0, 64, 0
1, 48240, Note_on_c, 0, 72, 85
1, 48240, Note_on_c, 1, 36, 0
1, 48240, Note_on_c, 1, 40, 78
1, 48274, Note_on_c, 1, 40, 0
1, 48276, Note_on_c, 1, 43, 78
1, 48288, Note_on_c, 1, 43, 0
1, 48288, Note_on_c, 1, 48, 78
1, 48322, Note_on_c, 0, 72, 0
1, 48324, Note_on_c, 0, 71, 80
1, 48333, Note_on_c, 1, 48, 0
1, 48336, Note_on_c, 0, 71, 0
1, 48336, Note_on_c, 0, 69, 80
1, 48336, Note_on_c, 1, 52, 78
1, 48370, Note_on_c, 0, 69, 0
1, 48372, Note_on_c, 0, 67, 78
1, 48381, Note_on_c, 1, 52, 0
1, 48384, Note_on_c, 0, 67, 0
1, 48384, Note_on_c, 0, 67, 78
1, 48420, Note_on_c, 1, 50, 78
1, 48432, Note_on_c, 1, 50, 0
1, 48432, Note_on_c, 1, 53, 78
1, 48466, Note_on_c, 1, 53, 0
1, 48468, Note_on_c, 1, 57, 78
1, 48473, Note_on_c, 0, 67, 0
1, 48480, Note_on_c, 0, 65, 78
1, 48480, Note_on_c, 1, 57, 0
1, 48480, Note_on_c, 1, 62, 78
1, 48486, Note_on_c, 0, 65, 0
1, 48486, Note_on_c, 0, 67, 78
1, 48492, Note_on_c, 0, 67, 0
1, 48492, Note_on_c, 0, 65, 78
1, 48514, Note_on_c, 0, 65, 0
1, 48514, Note_on_c, 1, 62, 0
1, 48516, Note_on_c, 0, 64, 78
1, 48516, Note_on_c, 1, 60, 78
1, 48528, Note_on_c, 0, 64, 0
1, 48528, Note_on_c, 0, 62, 78
1, 48528, Note_on_c, 1, 60, 0
1, 48528, Note_on_c, 1, 59, 78
1, 48534, Note_on_c, 0, 62, 0
1, 48534, Note_on_c, 0, 64, 78
1, 48534, Note_on_c, 1, 59, 0
1, 48534, Note_on_c, 1, 60, 78
1, 48540, Note_on_c, 0, 64, 0
1, 48540, Note_on_c, 0, 62, 78
1, 48540, Note_on_c, 1, 60, 0
1, 48540, Note_on_c, 1, 59, 78
1, 48562, Note_on_c, 0, 62, 0
1, 48562, Note_on_c, 1, 59, 0
1, 48564, Note_on_c, 0, 60, 78
1, 48564, Note_on_c, 1, 57, 78
1, 48576, Note_on_c, 0, 60, 0
1, 48576, Note_on_c, 0, 60, 78
1, 48576, Note_on_c, 1, 57, 0
1, 48576, Note_on_c, 1, 55, 78
1, 48610, Note_on_c, 1, 55, 0
1, 48612, Note_on_c, 1, 43, 78
1, 48624, Note_on_c, 1, 43, 0
1, 48624, Note_on_c, 1, 47, 78
1, 48658, Note_on_c, 1, 47, 0
1, 48660, Note_on_c, 1, 50, 78
1, 48672, Note_on_c, 0, 60, 0
1, 48672, Note_on_c, 0, 59, 78
1, 48672, Note_on_c, 1, 50, 0
1, 48672, Note_on_c, 1, 55, 78
1, 48687, Note_on_c, 0, 59, 0
1, 48688, Note_on_c, 0, 62, 78
1, 48692, Note_on_c, 1, 55, 0
1, 48703, Note_on_c, 0, 62, 0
1, 48704, Note_on_c, 0, 65, 78
1, 48719, Note_on_c, 0, 65, 0
1, 48720, Note_on_c, 0, 69, 78
1, 48720, Note_on_c, 1, 47, 78
1, 48735, Note_on_c, 0, 69, 0
1, 48736, Note_on_c, 0, 67, 78
1, 48751, Note_on_c, 0, 67, 0
1, 48752, Note_on_c, 0, 65, 78
1, 48765, Note_on_c, 1, 47, 0
1, 48767, Note_on_c, 0, 65, 0
1, 48768, Note_on_c, 0, 65, 78
1, 48804, Note_on_c, 1, 36, 78
1, 48816, Note_on_c, 1, 36, 0
1, 48816, Note_on_c, 1, 48, 78
1, 48850, Note_on_c, 1, 48, 0
1, 48852, Note_on_c, 1, 47, 80
1, 48857, Note_on_c, 0, 65, 0
1, 48864, Note_on_c, 0, 64, 78
1, 48864, Note_on_c, 1, 47, 0
1, 48864, Note_on_c, 1, 48, 80
1, 48870, Note_on_c, 0, 64, 0
1, 48870, Note_on_c, 0, 65, 78
1, 48876, Note_on_c, 0, 65, 0
1, 48876, Note_on_c, 0, 64, 78
1, 48879, Note_on_c, 1, 48, 0
1, 48900, Note_on_c, 1, 48, 82
1, 48911, Note_on_c, 0, 64, 0
1, 48912, Note_on_c, 1, 48, 0
1, 48912, Note_on_c, 1, 52, 82
1, 48946, Note_on_c, 1, 52, 0
1, 48948, Note_on_c, 1, 55, 84
1, 48960, Note_on_c, 1, 55, 0
1, 48960, Note_on_c, 1, 58, 85
1, 48996, Note_on_c, 0, 60, 78
1, 49008, Note_on_c, 0, 60, 0
1, 49008, Note_on_c, 0, 64, 79
1, 49042, Note_on_c, 0, 64, 0
1, 49044, Note_on_c, 0, 67, 83
1, 49056, Note_on_c, 0, 67, 0
1, 49056, Note_on_c, 0, 72, 85
1, 49090, Note_on_c, 0, 72, 0
1, 49092, Note_on_c, 0, 67, 82
1, 49092, Note_on_c, 0, 64, 82
1, 49104, Note_on_c, 0, 67, 0
1, 49104, Note_on_c, 0, 64, 0
1, 49104, Note_on_c, 0, 67, 81
1, 49104, Note_on_c, 0, 64, 81
1, 49137, Note_on_c, 1, 58, 0
1, 49138, Note_on_c, 0, 67, 0
1, 49138, Note_on_c, 0, 64, 0
1, 49140, Note_on_c, 0, 67, 78
1, 49140, Note_on_c, 0, 64, 78
1, 49152, Note_on_c, 0, 67, 0
1, 49152, Note_on_c, 0, 64, 0
1, 49152, Note_on_c, 0, 67, 78
1, 49152, Note_on_c, 0, 64, 78
1, 49188, Note_on_c, 1, 36, 78
1, 49200, Note_on_c, 1, 36, 0
1, 49200, Note_on_c, 1, 48, 78
1, 49234, Note_on_c, 1, 48, 0
1, 49236, Note_on_c, 1, 47, 80
1, 49248, Note_on_c, 0, 67, 0
1, 49248, Note_on_c, 0, 64, 0
1, 49248, Note_on_c, 0, 69, 78
1, 49248, Note_on_c, 0, 65, 78
1, 49248, Note_on_c, 1, 47, 0
1, 49248, Note_on_c, 1, 48, 80
1, 49263, Note_on_c, 1, 48, 0
1, 49284, Note_on_c, 1, 48, 82
1, 49293, Note_on_c, 0, 69, 0
1, 49293, Note_on_c, 0, 65, 0
1, 49296, Note_on_c, 1, 48, 0
1, 49296, Note_on_c, 1, 53, 82
1, 49330, Note_on_c, 1, 53, 0
1, 49332, Note_on_c, 1, 57, 84
1, 49344, Note_on_c, 1, 57, 0
1, 49344, Note_on_c, 1, 60, 85
1, 49380, Note_on_c, 0, 65, 78
1, 49392, Note_on_c, 0, 65, 0
1, 49392, Note_on_c, 0, 77, 79
1, 49392, Note_on_c, 0, 69, 79
1, 49426, Note_on_c, 0, 77, 0
1, 49426, Note_on_c, 0, 69, 0
1, 49428, Note_on_c, 0, 77, 83
1, 49428, Note_on_c, 0, 69, 83
1, 49440, Note_on_c, 0, 77, 0
1, 49440, Note_on_c, 0, 69, 0
1, 49440, Note_on_c, 0, 77, 85
1, 49440, Note_on_c, 0, 69, 85
1, 49474, Note_on_c, 0, 77, 0
1, 49474, Note_on_c, 0, 69, 0
1, 49476, Note_on_c, 0, 72, 82
1, 49476, Note_on_c, 0, 69, 82
1, 49488, Note_on_c, 0, 72, 0
1, 49488, Note_on_c, 0, 69, 0
1, 49488, Note_on_c, 0, 70, 81
1, 49488, Note_on_c, 0, 67, 81
1, 49521, Note_on_c, 1, 60, 0
1, 49522, Note_on_c, 0, 70, 0
1, 49522, Note_on_c, 0, 67, 0
1, 49524, Note_on_c, 0, 69, 78
1, 49524, Note_on_c, 0, 65, 78
1, 49536, Note_on_c, 0, 69, 0
1, 49536, Note_on_c, 0, 65, 0
1, 49536, Note_on_c, 0, 69, 78
1, 49536, Note_on_c, 0, 65, 78
1, 49572, Note_on_c, 1, 36, 78
1, 49584, Note_on_c, 1, 36, 0
1, 49584, Note_on_c, 1, 48, 78
1, 49618, Note_on_c, 1, 48, 0
1, 49620, Note_on_c, 1, 47, 80
1, 49632, Note_on_c, 0, 69, 0
1, 49632, Note_on_c, 0, 65, 0
1, 49632, Note_on_c, 0, 67, 78
1, 49632, Note_on_c, 0, 64, 78
1, 49632, Note_on_c, 1, 47, 0
1, 49632, Note_on_c, 1, 48, 80
1, 49647, Note_on_c, 1, 48, 0
1, 49668, Note_on_c, 1, 48, 82
1, 49677, Note_on_c, 0, 67, 0
1, 49677, Note_on_c, 0, 64, 0
1, 49680, Note_on_c, 1, 48, 0
1, 49680, Note_on_c, 1, 52, 82
1, 49714, Note_on_c, 1, 52, 0
1, 49716, Note_on_c, 1, 55, 84
1, 49728, Note_on_c, 1, 55, 0
1, 49728, Note_on_c, 1, 60, 85
1, 49764, Note_on_c, 0, 67, 78
1, 49776, Note_on_c, 0, 67, 0
1, 49776, Note_on_c, 0, 76, 78
1, 49810, Note_on_c, 0, 76, 0
1, 49812, Note_on_c, 0, 74, 78
1, 49817, Note_on_c, 1, 60, 0
1, 49824, Note_on_c, 0, 74, 0
1, 49824, Note_on_c, 0, 72, 78
1, 49858, Note_on_c, 0, 72, 0
1, 49860, Note_on_c, 0, 71, 78
1, 49872, Note_on_c, 0, 71, 0
1, 49872, Note_on_c, 0, 69, 78
1, 49872, Note_on_c, 1, 60, 85
1, 49906, Note_on_c, 0, 69, 0
1, 49908, Note_on_c, 0, 67, 78
1, 49917, Note_on_c, 1, 60, 0
1, 49920, Note_on_c, 0, 67, 0
1, 49920, Note_on_c, 0, 67, 78
1, 49920, Note_on_c, 1, 62, 85
1, 49954, Note_on_c, 0, 67, 0
1, 49956, Note_on_c, 0, 66, 78
1, 49965, Note_on_c, 1, 62, 0
1, 49968, Note_on_c, 0, 66, 0
1, 49968, Note_on_c, 0, 74, 78
1, 49968, Note_on_c, 1, 59, 85
1, 50002, Note_on_c, 0, 74, 0
1, 50004, Note_on_c, 0, 65, 78
1, 50013, Note_on_c, 1, 59, 0
1, 50016, Note_on_c, 0, 65, 0
1, 50016, Note_on_c, 0, 65, 78
1, 50016, Note_on_c, 1, 60, 85
1, 50050, Note_on_c, 0, 65, 0
1, 50052, Note_on_c, 0, 64, 78
1, 50061, Note_on_c, 1, 60, 0
1, 50064, Note_on_c, 0, 64, 0
1, 50064, Note_on_c, 0, 72, 78
1, 50098, Note_on_c, 0, 72, 0
1, 50100, Note_on_c, 0, 61, 85
1, 50100, Note_on_c, 1, 49, 85
1, 50112, Note_on_c, 0, 61, 0
1, 50112, Note_on_c, 0, 62, 85
1, 50112, Note_on_c, 1, 49, 0
1, 50112, Note_on_c, 1, 50, 85
1, 50127, Note_on_c, 0, 62, 0
1, 50127, Note_on_c, 1, 50, 0
1, 50148, Note_on_c, 0, 64, 85
1, 50148, Note_on_c, 1, 52, 85
1, 50160, Note_on_c, 0, 64, 0
1, 50160, Note_on_c, 0, 65, 85
1, 50160, Note_on_c, 1, 52, 0
1, 50160, Note_on_c, 1, 53, 85
1, 50175, Note_on_c, 0, 65, 0
1, 50175, Note_on_c, 1, 53, 0
1, 50196, Note_on_c, 0, 66, 85
1, 50196, Note_on_c, 1, 54, 85
1, 50208, Note_on_c, 0, 66, 0
1, 50208, Note_on_c, 0, 67, 85
1, 50208, Note_on_c, 1, 54, 0
1, 50208, Note_on_c, 1, 55, 85
1, 50223, Note_on_c, 0, 67, 0
1, 50223, Note_on_c, 1, 55, 0
1, 50244, Note_on_c, 0, 68, 85
1, 50244, Note_on_c, 1, 56, 85
1, 50256, Note_on_c, 0, 68, 0
1, 50256, Note_on_c, 0, 69, 85
1, 50256, Note_on_c, 1, 56, 0
1, 50256, Note_on_c, 1, 57, 85
1, 50271, Note_on_c, 0, 69, 0
1, 50271, Note_on_c, 1, 57, 0
1, 50292, Note_on_c, 0, 65, 85
1, 50292, Note_on_c, 0, 62, 85
1, 50292, Note_on_c, 1, 53, 85
1, 50304, Note_on_c, 0, 65, 0
1, 50304, Note_on_c, 0, 62, 0
1, 50304, Note_on_c, 0, 64, 85
1, 50304, Note_on_c, 0, 60, 85
1, 50304, Note_on_c, 1, 53, 0
1, 50304, Note_on_c, 1, 55, 85
1, 50393, Note_on_c, 1, 55, 0
1, 50400, Note_on_c, 0, 64, 0
1, 50400, Note_on_c, 0, 60, 0
1, 50400, Note_on_c, 0, 62, 85
1, 50400, Note_on_c, 0, 59, 85
1, 50400, Note_on_c, 1, 43, 85
1, 50420, Note_on_c, 0, 62, 0
1, 50420, Note_on_c, 0, 59, 0
1, 50445, Note_on_c, 1, 43, 0
1, 50448, Note_on_c, 0, 64, 78
1, 50482, Note_on_c, 0, 64, 0
1, 50484, Note_on_c, 0, 67, 78
1, 50496, Note_on_c, 0, 67, 0
1, 50496, Note_on_c, 0, 72, 78
1, 50530, Note_on_c, 0, 72, 0
1, 50532, Note_on_c, 0, 67, 78
1, 50544, Note_on_c, 0, 67, 0
1, 50544, Note_on_c, 0, 76, 94
1, 50544, Note_on_c, 1, 52, 78
1, 50544, Note_on_c, 1, 48, 78
1, 50589, Note_on_c, 1, 52, 0
1, 50589, Note_on_c, 1, 48, 0
1, 50592, Note_on_c, 1, 64, 78
1, 50592, Note_on_c, 1, 60, 78
1, 50607, Note_on_c, 0, 76, 0
1, 50608, Note_on_c, 0, 71, 78
1, 50623, Note_on_c, 0, 71, 0
1, 50624, Note_on_c, 0, 72, 78
1, 50637, Note_on_c, 1, 64, 0
1, 50637, Note_on_c, 1, 60, 0
1, 50639, Note_on_c, 0, 72, 0
1, 50640, Note_on_c, 0, 76, 78
1, 50655, Note_on_c, 0, 76, 0
1, 50656, Note_on_c, 0, 72, 78
1, 50671, Note_on_c, 0, 72, 0
1, 50672, Note_on_c, 0, 69, 78
1, 50687, Note_on_c, 0, 69, 0
1, 50688, Note_on_c, 0, 67, 78
1, 50733, Note_on_c, 0, 67, 0
1, 50736, Note_on_c, 0, 65, 78
1, 50736, Note_on_c, 1, 53, 78
1, 50736, Note_on_c, 1, 50, 78
1, 50742, Note_on_c, 0, 65, 0
1, 50742, Note_on_c, 0, 67, 78
1, 50748, Note_on_c, 0, 67, 0
1, 50748, Note_on_c, 0, 65, 78
1, 50781, Note_on_c, 1, 53, 0
1, 50781, Note_on_c, 1, 50, 0
1, 50783, Note_on_c, 0, 65, 0
1, 50784, Note_on_c, 1, 65, 78
1, 50784, Note_on_c, 1, 62, 78
1, 50829, Note_on_c, 1, 65, 0
1, 50829, Note_on_c, 1, 62, 0
1, 50832, Note_on_c, 0, 65, 78
1, 50866, Note_on_c, 0, 65, 0
1, 50868, Note_on_c, 0, 71, 78
1, 50880, Note_on_c, 0, 71, 0
1, 50880, Note_on_c, 0, 74, 78
1, 50914, Note_on_c, 0, 74, 0
1, 50916, Note_on_c, 0, 71, 78
1, 50928, Note_on_c, 0, 71, 0
1, 50928, Note_on_c, 0, 77, 94
1, 50928, Note_on_c, 1, 47, 78
1, 50928, Note_on_c, 1, 43, 78
1, 50973, Note_on_c, 1, 47, 0
1, 50973, Note_on_c, 1, 43, 0
1, 50976, Note_on_c, 1, 59, 78
1, 50976, Note_on_c, 1, 55, 78
1, 50991, Note_on_c, 0, 77, 0
1, 50992, Note_on_c, 0, 74, 78
1, 51007, Note_on_c, 0, 74, 0
1, 51008, Note_on_c, 0, 71, 78
1, 51021, Note_on_c, 1, 59, 0
1, 51021, Note_on_c, 1, 55, 0
1, 51023, Note_on_c, 0, 71, 0
1, 51024, Note_on_c, 0, 74, 78
1, 51039, Note_on_c, 0, 74, 0
1, 51040, Note_on_c, 0, 71, 78
1, 51055, Note_on_c, 0, 71, 0
1, 51056, Note_on_c, 0, 67, 78
1, 51071, Note_on_c, 0, 67, 0
1, 51072, Note_on_c, 0, 65, 78
1, 51117, Note_on_c, 0, 65, 0
1, 51120, Note_on_c, 0, 64, 78
1, 51120, Note_on_c, 1, 52, 78
1, 51120, Note_on_c, 1, 48, 78
1, 51126, Note_on_c, 0, 64, 0
1, 51126, Note_on_c, 0, 65, 78
1, 51132, Note_on_c, 0, 65, 0
1, 51132, Note_on_c, 0, 64, 78
1, 51165, Note_on_c, 1, 52, 0
1, 51165, Note_on_c, 1, 48, 0
1, 51167, Note_on_c, 0, 64, 0
1, 51168, Note_on_c, 1, 64, 78
1, 51168, Note_on_c, 1, 60, 78
1, 51213, Note_on_c, 1, 64, 0
1, 51213, Note_on_c, 1, 60, 0
1, 51216, Note_on_c, 0, 67, 78
1, 51250, Note_on_c, 0, 67, 0
1, 51252, Note_on_c, 0, 72, 78
1, 51264, Note_on_c, 0, 72, 0
1, 51264, Note_on_c, 0, 76, 78
1, 51298, Note_on_c, 0, 76, 0
1, 51300, Note_on_c, 0, 72, 78
1, 51312, Note_on_c, 0, 72, 0
1, 51312, Note_on_c, 0, 79, 94
1, 51312, Note_on_c, 1, 52, 78
1, 51346, Note_on_c, 1, 52, 0
1, 51348, Note_on_c, 1, 55, 78
1, 51360, Note_on_c, 1, 55, 0
1, 51360, Note_on_c, 1, 60, 78
1, 51375, Note_on_c, 0, 79, 0
1, 51376, Note_on_c, 0, 77, 78
1, 51391, Note_on_c, 0, 77, 0
1, 51392, Note_on_c, 0, 76, 78
1, 51405, Note_on_c, 1, 60, 0
1, 51407, Note_on_c, 0, 76, 0
1, 51408, Note_on_c, 0, 74, 78
1, 51408, Note_on_c, 1, 64, 78
1, 51423, Note_on_c, 0, 74, 0
1, 51424, Note_on_c, 0, 72, 78
1, 51439, Note_on_c, 0, 72, 0
1, 51440, Note_on_c, 0, 71, 78
1, 51453, Note_on_c, 1, 64, 0
1, 51455, Note_on_c, 0, 71, 0
1, 51456, Note_on_c, 0, 69, 78
1, 51456, Note_on_c, 1, 65, 78
1, 51490, Note_on_c, 1, 65, 0
1, 51492, Note_on_c, 1, 53, 78
1, 51504, Note_on_c, 1, 53, 0
1, 51504, Note_on_c, 1, 57, 78
1, 51538, Note_on_c, 1, 57, 0
1, 51540, Note_on_c, 1, 61, 78
1, 51552, Note_on_c, 1, 61, 0
1, 51552, Note_on_c, 1, 62, 78
1, 51567, Note_on_c, 0, 69, 0
1, 51568, Note_on_c, 0, 77, 78
1, 51583, Note_on_c, 0, 77, 0
1, 51584, Note_on_c, 0, 76, 78
1, 51599, Note_on_c, 0, 76, 0
1, 51600, Note_on_c, 0, 74, 78
1, 51600, Note_on_c, 1, 53, 64
1, 51615, Note_on_c, 0, 74, 0
1, 51616, Note_on_c, 0, 72, 78
1, 51631, Note_on_c, 0, 72, 0
1, 51632, Note_on_c, 0, 71, 78
1, 51645, Note_on_c, 1, 53, 0
1, 51647, Note_on_c, 0, 71, 0
1, 51648, Note_on_c, 0, 69, 78
1, 51648, Note_on_c, 1, 52, 64
1, 51682, Note_on_c, 1, 62, 0
1, 51684, Note_on_c, 1, 55, 78
1, 51696, Note_on_c, 0, 69, 0
1, 51696, Note_on_c, 0, 67, 78
1, 51696, Note_on_c, 1, 55, 0
1, 51696, Note_on_c, 1, 57, 78
1, 51730, Note_on_c, 1, 57, 0
1, 51732, Note_on_c, 1, 59, 78
1, 51737, Note_on_c, 0, 67, 0
1, 51744, Note_on_c, 1, 59, 0
1, 51744, Note_on_c, 1, 60, 78
1, 51760, Note_on_c, 0, 76, 78
1, 51775, Note_on_c, 0, 76, 0
1, 51776, Note_on_c, 0, 74, 78
1, 51781, Note_on_c, 1, 52, 0
1, 51791, Note_on_c, 0, 74, 0
1, 51792, Note_on_c, 0, 72, 78
1, 51792, Note_on_c, 1, 52, 64
1, 51807, Note_on_c, 0, 72, 0
1, 51808, Note_on_c, 0, 71, 78
1, 51823, Note_on_c, 0, 71, 0
1, 51824, Note_on_c, 0, 69, 78
1, 51837, Note_on_c, 1, 52, 0
1, 51839, Note_on_c, 0, 69, 0
1, 51840, Note_on_c, 0, 67, 78
1, 51840, Note_on_c, 1, 50, 64
1, 51874, Note_on_c, 0, 67, 0
1, 51876, Note_on_c, 0, 65, 78
1, 51885, Note_on_c, 1, 60, 0
1, 51888, Note_on_c, 0, 65, 0
1, 51888, Note_on_c, 0, 74, 78
1, 51888, Note_on_c, 1, 59, 78
1, 51922, Note_on_c, 0, 74, 0
1, 51924, Note_on_c, 0, 65, 78
1, 51929, Note_on_c, 1, 50, 0
1, 51933, Note_on_c, 1, 59, 0
1, 51936, Note_on_c, 0, 65, 0
1, 51936, Note_on_c, 0, 65, 78
1, 51936, Note_on_c, 1, 60, 78
1, 51936, Note_on_c, 1, 48, 64
1, 51970, Note_on_c, 0, 65, 0
1, 51972, Note_on_c, 0, 64, 78
1, 51981, Note_on_c, 1, 60, 0
1, 51981, Note_on_c, 1, 48, 0
1, 51984, Note_on_c, 0, 64, 0
1, 51984, Note_on_c, 0, 72, 78
1, 51984, Note_on_c, 1, 54, 78
1, 51984, Note_on_c, 1, 54, 64
1, 52018, Note_on_c, 0, 72, 0
1, 52020, Note_on_c, 0, 64, 78
1, 52020, Note_on_c, 0, 60, 78
1, 52029, Note_on_c, 1, 54, 0
1, 52029, Note_on_c, 1, 54, 0
1, 52032, Note_on_c, 0, 64, 0
1, 52032, Note_on_c, 0, 60, 0
1, 52032, Note_on_c, 0, 62, 78
1, 52032, Note_on_c, 0, 59, 78
1, 52032, Note_on_c, 1, 43, 78
1, 52066, Note_on_c, 1, 43, 0
1, 52068, Note_on_c, 1, 55, 78
1, 52080, Note_on_c, 1, 55, 0
1, 52080, Note_on_c, 1, 54, 78
1, 52114, Note_on_c, 1, 54, 0
1, 52116, Note_on_c, 1, 55, 79
1, 52121, Note_on_c, 0, 62, 0
1, 52121, Note_on_c, 0, 59, 0
1, 52128, Note_on_c, 1, 55, 0
1, 52128, Note_on_c, 1, 53, 79
1, 52162, Note_on_c, 1, 53, 0
1, 52164, Note_on_c, 1, 55, 80
1, 52176, Note_on_c, 0, 59, 78
1, 52176, Note_on_c, 1, 55, 0
1, 52176, Note_on_c, 1, 50, 80
1, 52210, Note_on_c, 0, 59, 0
1, 52210, Note_on_c, 1, 50, 0
1, 52212, Note_on_c, 0, 71, 79
1, 52212, Note_on_c, 1, 55, 81
1, 52224, Note_on_c, 0, 71, 0
1, 52224, Note_on_c, 0, 60, 79
1, 52224, Note_on_c, 1, 55, 0
1, 52224, Note_on_c, 1, 52, 81
1, 52258, Note_on_c, 0, 60, 0
1, 52258, Note_on_c, 1, 52, 0
1, 52260, Note_on_c, 0, 72, 80
1, 52260, Note_on_c, 1, 55, 82
1, 52272, Note_on_c, 0, 72, 0
1, 52272, Note_on_c, 0, 62, 80
1, 52272, Note_on_c, 1, 55, 0
1, 52272, Note_on_c, 1, 47, 82
1, 52306, Note_on_c, 0, 62, 0
1, 52306, Note_on_c, 1, 47, 0
1, 52308, Note_on_c, 0, 74, 81
1, 52308, Note_on_c, 1, 55, 83
1, 52320, Note_on_c, 0, 74, 0
1, 52320, Note_on_c, 0, 64, 82
1, 52320, Note_on_c, 1, 55, 0
1, 52320, Note_on_c, 1, 48, 83
1, 52354, Note_on_c, 0, 64, 0
1, 52354, Note_on_c, 1, 48, 0
1, 52356, Note_on_c, 0, 76, 83
1, 52356, Note_on_c, 1, 55, 84
1, 52368, Note_on_c, 0, 76, 0
1, 52368, Note_on_c, 0, 66, 83
1, 52368, Note_on_c, 1, 55, 0
1, 52368, Note_on_c, 1, 45, 84
1, 52402, Note_on_c, 0, 66, 0
1, 52402, Note_on_c, 1, 45, 0
1, 52404, Note_on_c, 0, 78, 84
1, 52404, Note_on_c, 1, 55, 85
1, 52416, Note_on_c, 0, 78, 0
1, 52416, Note_on_c, 0, 67, 85
1, 52416, Note_on_c, 1, 55, 0
1, 52416, Note_on_c, 1, 43, 85
1, 52450, Note_on_c, 1, 43, 0
1, 52452, Note_on_c, 1, 55, 82
1, 52464, Note_on_c, 1, 55, 0
1, 52464, Note_on_c, 1, 54, 81
1, 52498, Note_on_c, 1, 54, 0
1, 52500, Note_on_c, 1, 55, 78
1, 52505, Note_on_c, 0, 67, 0
1, 52512, Note_on_c, 1, 55, 0
1, 52512, Note_on_c, 1, 53, 78
1, 52546, Note_on_c, 1, 53, 0
1, 52548, Note_on_c, 1, 55, 78
1, 52560, Note_on_c, 0, 59, 78
1, 52560, Note_on_c, 1, 55, 0
1, 52560, Note_on_c, 1, 50, 78
1, 52594, Note_on_c, 0, 59, 0
1, 52594, Note_on_c, 1, 50, 0
1, 52596, Note_on_c, 0, 71, 79
1, 52596, Note_on_c, 1, 55, 79
1, 52608, Note_on_c, 0, 71, 0
1, 52608, Note_on_c, 0, 60, 79
1, 52608, Note_on_c, 1, 55, 0
1, 52608, Note_on_c, 1, 51, 79
1, 52642, Note_on_c, 0, 60, 0
1, 52642, Note_on_c, 1, 51, 0
1, 52644, Note_on_c, 0, 72, 80
1, 52644, Note_on_c, 1, 55, 80
1, 52656, Note_on_c, 0, 72, 0
1, 52656, Note_on_c, 0, 62, 80
1, 52656, Note_on_c, 1, 55, 0
1, 52656, Note_on_c, 1, 47, 80
1, 52690, Note_on_c, 0, 62, 0
1, 52690, Note_on_c, 1, 47, 0
1, 52692, Note_on_c, 0, 74, 81
1, 52692, Note_on_c, 1, 55, 81
1, 52704, Note_on_c, 0, 74, 0
1, 52704, Note_on_c, 0, 63, 82
1, 52704, Note_on_c, 1, 55, 0
1, 52704, Note_on_c, 1, 48, 82
1, 52738, Note_on_c, 0, 63, 0
1, 52738, Note_on_c, 1, 48, 0
1, 52740, Note_on_c, 0, 75, 83
1, 52740, Note_on_c, 1, 55, 83
1, 52752, Note_on_c, 0, 75, 0
1, 52752, Note_on_c, 0, 66, 83
1, 52752, Note_on_c, 1, 55, 0
1, 52752, Note_on_c, 1, 45, 83
1, 52786, Note_on_c, 0, 66, 0
1, 52786, Note_on_c, 1, 45, 0
1, 52788, Note_on_c, 0, 78, 84
1, 52788, Note_on_c, 1, 55, 84
1, 52800, Note_on_c, 0, 78, 0
1, 52800, Note_on_c, 0, 67, 85
1, 52800, Note_on_c, 1, 55, 0
1, 52800, Note_on_c, 1, 43, 85
1, 52834, Note_on_c, 0, 67, 0
1, 52836, Note_on_c, 0, 79, 85
1, 52845, Note_on_c, 1, 43, 0
1, 52848, Note_on_c, 0, 79, 0
1, 52848, Note_on_c, 0, 67, 85
1, 52848, Note_on_c, 1, 59, 85
1, 52848, Note_on_c, 1, 55, 110
1, 52882, Note_on_c, 0, 67, 0
1, 52884, Note_on_c, 0, 79, 85
1, 52893, Note_on_c, 1, 59, 0
1, 52896, Note_on_c, 0, 79, 0
1, 52896, Note_on_c, 0, 68, 85
1, 52896, Note_on_c, 1, 60, 85
1, 52930, Note_on_c, 0, 68, 0
1, 52932, Note_on_c, 0, 79, 85
1, 52941, Note_on_c, 1, 60, 0
1, 52944, Note_on_c, 0, 79, 0
1, 52944, Note_on_c, 0, 71, 85
1, 52944, Note_on_c, 1, 62, 85
1, 52978, Note_on_c, 0, 71, 0
1, 52980, Note_on_c, 0, 79, 85
1, 52989, Note_on_c, 1, 62, 0
1, 52992, Note_on_c, 0, 79, 0
1, 52992, Note_on_c, 0, 72, 85
1, 52992, Note_on_c, 1, 63, 85
1, 53026, Note_on_c, 0, 72, 0
1, 53028, Note_on_c, 0, 79, 83
1, 53037, Note_on_c, 1, 63, 0
1, 53040, Note_on_c, 0, 79, 0
1, 53040, Note_on_c, 0, 74, 83
1, 53040, Note_on_c, 1, 65, 83
1, 53074, Note_on_c, 0, 74, 0
1, 53076, Note_on_c, 0, 79, 81
1, 53085, Note_on_c, 1, 65, 0
1, 53088, Note_on_c, 0, 79, 0
1, 53088, Note_on_c, 0, 75, 81
1, 53088, Note_on_c, 1, 67, 81
1, 53122, Note_on_c, 0, 75, 0
1, 53124, Note_on_c, 0, 79, 79
1, 53133, Note_on_c, 1, 67, 0
1, 53136, Note_on_c, 0, 79, 0
1, 53136, Note_on_c, 0, 72, 79
1, 53136, Note_on_c, 1, 66, 79
1, 53170, Note_on_c, 0, 72, 0
1, 53172, Note_on_c, 0, 84, 78
1, 53181, Note_on_c, 1, 66, 0
1, 53184, Note_on_c, 0, 84, 0
1, 53184, Note_on_c, 0, 83, 78
1, 53184, Note_on_c, 1, 65, 78
1, 53218, Note_on_c, 0, 83, 0
1, 53220, Note_on_c, 0, 86, 78
1, 53231, Note_on_c, 1, 65, 0
1, 53232, Note_on_c, 0, 86, 0
1, 53232, Note_on_c, 0, 74, 78
1, 53232, Note_on_c, 1, 59, 78
1, 53266, Note_on_c, 0, 74, 0
1, 53268, Note_on_c, 0, 77, 78
1, 53277, Note_on_c, 1, 59, 0
1, 53280, Note_on_c, 0, 77, 0
1, 53280, Note_on_c, 0, 75, 78
1, 53280, Note_on_c, 1, 60, 78
1, 53314, Note_on_c, 0, 75, 0
1, 53316, Note_on_c, 0, 79, 78
1, 53325, Note_on_c, 1, 60, 0
1, 53328, Note_on_c, 0, 79, 0
1, 53328, Note_on_c, 0, 72, 78
1, 53328, Note_on_c, 1, 63, 78
1, 53362, Note_on_c, 0, 72, 0
1, 53364, Note_on_c, 0, 75, 78
1, 53373, Note_on_c, 1, 63, 0
1, 53376, Note_on_c, 0, 75, 0
1, 53376, Note_on_c, 0, 71, 78
1, 53376, Note_on_c, 1, 67, 78
1, 53410, Note_on_c, 0, 71, 0
1, 53412, Note_on_c, 0, 74, 78
1, 53421, Note_on_c, 1, 67, 0
1, 53421, Note_on_c, 1, 55, 0
1, 53424, Note_on_c, 0, 74, 0
1, 53424, Note_on_c, 0, 71, 78
1, 53424, Note_on_c, 0, 68, 64
1, 53424, Note_on_c, 1, 65, 78
1, 53424, Note_on_c, 1, 55, 110
1, 53458, Note_on_c, 0, 71, 0
1, 53460, Note_on_c, 0, 74, 78
1, 53469, Note_on_c, 0, 68, 0
1, 53469, Note_on_c, 1, 65, 0
1, 53472, Note_on_c, 0, 74, 0
1, 53472, Note_on_c, 0, 72, 78
1, 53472, Note_on_c, 0, 67, 64
1, 53472, Note_on_c, 1, 63, 78
1, 53506, Note_on_c, 0, 72, 0
1, 53508, Note_on_c, 0, 75, 78
1, 53517, Note_on_c, 0, 67, 0
1, 53517, Note_on_c, 1, 63, 0
1, 53520, Note_on_c, 0, 75, 0
1, 53520, Note_on_c, 0, 66, 78
1, 53520, Note_on_c, 0, 63, 64
1, 53520, Note_on_c, 1, 60, 78
1, 53554, Note_on_c, 0, 66, 0
1, 53556, Note_on_c, 0, 69, 78
1, 53565, Note_on_c, 0, 63, 0
1, 53565, Note_on_c, 1, 60, 0
1, 53568, Note_on_c, 0, 69, 0
1, 53568, Note_on_c, 0, 67, 78
1, 53568, Note_on_c, 0, 62, 64
1, 53568, Note_on_c, 1, 59, 78
1, 53602, Note_on_c, 0, 67, 0
1, 53604, Note_on_c, 0, 71, 78
1, 53613, Note_on_c, 0, 62, 0
1, 53613, Note_on_c, 1, 59, 0
1, 53613, Note_on_c, 1, 55, 0
1, 53616, Note_on_c, 0, 71, 0
1, 53616, Note_on_c, 0, 71, 78
1, 53616, Note_on_c, 0, 68, 64
1, 53616, Note_on_c, 1, 65, 78
1, 53616, Note_on_c, 1, 55, 110
1, 53650, Note_on_c, 0, 71, 0
1, 53652, Note_on_c, 0, 74, 78
1, 53661, Note_on_c, 0, 68, 0
1, 53661, Note_on_c, 1, 65, 0
1, 53664, Note_on_c, 0, 74, 0
1, 53664, Note_on_c, 0, 72, 78
1, 53664, Note_on_c, 0, 67, 64
1, 53664, Note_on_c, 1, 63, 78
1, 53698, Note_on_c, 0, 72, 0
1, 53700, Note_on_c, 0, 75, 78
1, 53709, Note_on_c, 0, 67, 0
1, 53709, Note_on_c, 1, 63, 0
1, 53712, Note_on_c, 0, 75, 0
1, 53712, Note_on_c, 0, 66, 78
1, 53712, Note_on_c, 0, 63, 64
1, 53712, Note_on_c, 1, 60, 78
1, 53746, Note_on_c, 0, 66, 0
1, 53748, Note_on_c, 0, 69, 78
1, 53757, Note_on_c, 0, 63, 0
1, 53757, Note_on_c, 1, 60, 0
1, 53760, Note_on_c, 0, 69, 0
1, 53760, Note_on_c, 0, 67, 78
1, 53760, Note_on_c, 0, 62, 64
1, 53760, Note_on_c, 1, 59, 78
1, 53794, Note_on_c, 0, 67, 0
1, 53796, Note_on_c, 0, 71, 78
1, 53805, Note_on_c, 0, 62, 0
1, 53805, Note_on_c, 1, 59, 0
1, 53805, Note_on_c, 1, 55, 0
1, 53808, Note_on_c, 0, 71, 0
1, 53808, Note_on_c, 0, 71, 78
1, 53808, Note_on_c, 0, 68, 64
1, 53808, Note_on_c, 1, 65, 78
1, 53808, Note_on_c, 1, 55, 110
1, 53842, Note_on_c, 0, 71, 0
1, 53844, Note_on_c, 0, 74, 78
1, 53853, Note_on_c, 0, 68, 0
1, 53853, Note_on_c, 1, 65, 0
1, 53856, Note_on_c, 0, 74, 0
1, 53856, Note_on_c, 0, 72, 78
1, 53856, Note_on_c, 0, 67, 64
1, 53856, Note_on_c, 1, 63, 78
1, 53890, Note_on_c, 0, 72, 0
1, 53892, Note_on_c, 0, 75, 78
1, 53901, Note_on_c, 0, 67, 0
1, 53901, Note_on_c, 1, 63, 0
1, 53904, Note_on_c, 0, 75, 0
1, 53904, Note_on_c, 0, 66, 78
1, 53904, Note_on_c, 0, 63, 64
1, 53904, Note_on_c, 1, 60, 78
1, 53938, Note_on_c, 0, 66, 0
1, 53940, Note_on_c, 0, 69, 78
1, 53949, Note_on_c, 0, 63, 0
1, 53952, Note_on_c, 0, 69, 0
1, 53952, Note_on_c, 0, 67, 78
1, 53952, Note_on_c, 0, 62, 64
1, 53986, Note_on_c, 1, 60, 0
1, 53988, Note_on_c, 1, 57, 78
1, 54000, Note_on_c, 1, 57, 0
1, 54000, Note_on_c, 1, 59, 78
1, 54034, Note_on_c, 1, 59, 0
1, 54036, Note_on_c, 1, 60, 78
1, 54041, Note_on_c, 0, 67, 0
1, 54041, Note_on_c, 0, 62, 0
1, 54048, Note_on_c, 1, 60, 0
1, 54048, Note_on_c, 1, 62, 78
1, 54064, Note_on_c, 0, 65, 78
1, 54079, Note_on_c, 0, 65, 0
1, 54080, Note_on_c, 0, 71, 78
1, 54095, Note_on_c, 0, 71, 0
1, 54096, Note_on_c, 0, 74, 78
1, 54111, Note_on_c, 0, 74, 0
1, 54112, Note_on_c, 0, 71, 78
1, 54127, Note_on_c, 0, 71, 0
1, 54128, Note_on_c, 0, 65, 78
1, 54143, Note_on_c, 0, 65, 0
1, 54144, Note_on_c, 0, 64, 78
1, 54164, Note_on_c, 0, 64, 0
1, 54178, Note_on_c, 1, 62, 0
1, 54180, Note_on_c, 1, 59, 78
1, 54192, Note_on_c, 1, 59, 0
1, 54192, Note_on_c, 1, 60, 78
1, 54226, Note_on_c, 1, 60, 0
1, 54228, Note_on_c, 1, 62, 78
1, 54240, Note_on_c, 1, 62, 0
1, 54240, Note_on_c, 1, 64, 78
1, 54256, Note_on_c, 0, 67, 78
1, 54271, Note_on_c, 0, 67, 0
1, 54272, Note_on_c, 0, 72, 78
1, 54287, Note_on_c, 0, 72, 0
1, 54288, Note_on_c, 0, 76, 78
1, 54303, Note_on_c, 0, 76, 0
1, 54304, Note_on_c, 0, 72, 78
1, 54319, Note_on_c, 0, 72, 0
1, 54320, Note_on_c, 0, 67, 78
1, 54335, Note_on_c, 0, 67, 0
1, 54336, Note_on_c, 0, 65, 78
1, 54356, Note_on_c, 0, 65, 0
1, 54370, Note_on_c, 1, 64, 0
1, 54372, Note_on_c, 1, 60, 78
1, 54384, Note_on_c, 1, 60, 0
1, 54384, Note_on_c, 1, 62, 78
1, 54418, Note_on_c, 1, 62, 0
1, 54420, Note_on_c, 1, 64, 78
1, 54432, Note_on_c, 1, 64, 0
1, 54432, Note_on_c, 1, 65, 78
1, 54448, Note_on_c, 0, 81, 78
1, 54463, Note_on_c, 0, 81, 0
1, 54464, Note_on_c, 0, 79, 78
1, 54477, Note_on_c, 1, 65, 0
1, 54477, Note_on_c, 1, 55, 0
1, 54479, Note_on_c, 0, 79, 0
1, 54480, Note_on_c, 0, 77, 78
1, 54495, Note_on_c, 0, 77, 0
1, 54496, Note_on_c, 0, 76, 78
1, 54511, Note_on_c, 0, 76, 0
1, 54512, Note_on_c, 0, 74, 78
1, 54527, Note_on_c, 0, 74, 0
1, 54528, Note_on_c, 0, 72, 78
1, 54543, Note_on_c, 0, 72, 0
1, 54544, Note_on_c, 0, 71, 78
1, 54559, Note_on_c, 0, 71, 0
1, 54560, Note_on_c, 0, 77, 78
1, 54575, Note_on_c, 0, 77, 0
1, 54576, Note_on_c, 0, 74, 78
1, 54591, Note_on_c, 0, 74, 0
1, 54592, Note_on_c, 0, 71, 78
1, 54607, Note_on_c, 0, 71, 0
1, 54608, Note_on_c, 0, 67, 78
1, 54623, Note_on_c, 0, 67, 0
1, 54624, Note_on_c, 0, 65, 78
1, 54640, Note_on_c, 1, 62, 78
1, 54644, Note_on_c, 0, 65, 0
1, 54655, Note_on_c, 1, 62, 0
1, 54656, Note_on_c, 1, 59, 78
1, 54671, Note_on_c, 1, 59, 0
1, 54672, Note_on_c, 1, 55, 78
1, 54687, Note_on_c, 1, 55, 0
1, 54688, Note_on_c, 1, 59, 78
1, 54703, Note_on_c, 1, 59, 0
1, 54704, Note_on_c, 1, 62, 78
1, 54719, Note_on_c, 1, 62, 0
1, 54720, Note_on_c, 1, 65, 78
1, 54736, Note_on_c, 0, 67, 78
1, 54740, Note_on_c, 1, 65, 0
1, 54751, Note_on_c, 0, 67, 0
1, 54752, Note_on_c, 0, 71, 78
1, 54767, Note_on_c, 0, 71, 0
1, 54768, Note_on_c, 0, 74, 78
1, 54783, Note_on_c, 0, 74, 0
1, 54784, Note_on_c, 0, 71, 78
1, 54799, Note_on_c, 0, 71, 0
1, 54800, Note_on_c, 0, 74, 78
1, 54815, Note_on_c, 0, 74, 0
1, 54816, Note_on_c, 0, 77, 78
1, 54831, Note_on_c, 0, 77, 0
1, 54832, Note_on_c, 0, 74, 78
1, 54847, Note_on_c, 0, 74, 0
1, 54848, Note_on_c, 0, 77, 78
1, 54863, Note_on_c, 0, 77, 0
1, 54864, Note_on_c, 0, 83, 78
1, 54879, Note_on_c, 0, 83, 0
1, 54880, Note_on_c, 0, 77, 78
1, 54895, Note_on_c, 0, 77, 0
1, 54896, Note_on_c, 0, 83, 78
1, 54911, Note_on_c, 0, 83, 0
1, 54912, Note_on_c, 0, 86, 78
1, 54932, Note_on_c, 0, 86, 0
1, 55056, Note_on_c, 0, 55, 78
1, 55071, Note_on_c, 0, 55, 0
1, 55072, Note_on_c, 0, 60, 78
1, 55087, Note_on_c, 0, 60, 0
1, 55088, Note_on_c, 0, 64, 78
1, 55103, Note_on_c, 0, 64, 0
1, 55104, Note_on_c, 0, 55, 78
1, 55119, Note_on_c, 0, 55, 0
1, 55120, Note_on_c, 0, 54, 78
1, 55135, Note_on_c, 0, 54, 0
1, 55136, Note_on_c, 0, 53, 78
1, 55151, Note_on_c, 0, 53, 0
1, 55152, Note_on_c, 0, 62, 94
1, 55152, Note_on_c, 1, 43, 78
1, 55197, Note_on_c, 1, 43, 0
1, 55200, Note_on_c, 1, 45, 78
1, 55215, Note_on_c, 0, 62, 0
1, 55216, Note_on_c, 0, 60, 78
1, 55231, Note_on_c, 0, 60, 0
1, 55232, Note_on_c, 0, 59, 78
1, 55245, Note_on_c, 1, 45, 0
1, 55247, Note_on_c, 0, 59, 0
1, 55248, Note_on_c, 0, 57, 78
1, 55248, Note_on_c, 1, 47, 78
1, 55263, Note_on_c, 0, 57, 0
1, 55264, Note_on_c, 0, 55, 78
1, 55279, Note_on_c, 0, 55, 0
1, 55280, Note_on_c, 0, 53, 78
1, 55293, Note_on_c, 1, 47, 0
1, 55295, Note_on_c, 0, 53, 0
1, 55296, Note_on_c, 0, 52, 78
1, 55296, Note_on_c, 1, 48, 78
1, 55311, Note_on_c, 0, 52, 0
1, 55312, Note_on_c, 0, 55, 78
1, 55327, Note_on_c, 0, 55, 0
1, 55328, Note_on_c, 0, 60, 78
1, 55343, Note_on_c, 0, 60, 0
1, 55344, Note_on_c, 0, 55, 78
1, 55359, Note_on_c, 0, 55, 0
1, 55360, Note_on_c, 0, 60, 78
1, 55375, Note_on_c, 0, 60, 0
1, 55376, Note_on_c, 0, 64, 78
1, 55385, Note_on_c, 1, 48, 0
1, 55391, Note_on_c, 0, 64, 0
1, 55392, Note_on_c, 0, 67, 78
1, 55412, Note_on_c, 0, 67, 0
1, 55440, Note_on_c, 0, 55, 78
1, 55455, Note_on_c, 0, 55, 0
1, 55456, Note_on_c, 0, 60, 78
1, 55471, Note_on_c, 0, 60, 0
1, 55472, Note_on_c, 0, 64, 78
1, 55487, Note_on_c, 0, 64, 0
1, 55488, Note_on_c, 0, 55, 78
1, 55503, Note_on_c, 0, 55, 0
1, 55504, Note_on_c, 0, 54, 78
1, 55519, Note_on_c, 0, 54, 0
1, 55520, Note_on_c, 0, 53, 78
1, 55535, Note_on_c, 0, 53, 0
1, 55536, Note_on_c, 0, 62, 94
1, 55536, Note_on_c, 1, 43, 78
1, 55581, Note_on_c, 1, 43, 0
1, 55584, Note_on_c, 1, 45, 78
1, 55599, Note_on_c, 0, 62, 0
1, 55600, Note_on_c, 0, 60, 78
1, 55615, Note_on_c, 0, 60, 0
1, 55616, Note_on_c, 0, 59, 78
1, 55629, Note_on_c, 1, 45, 0
1, 55631, Note_on_c, 0, 59, 0
1, 55632, Note_on_c, 0, 57, 78
1, 55632, Note_on_c, 1, 47, 78
1, 55647, Note_on_c, 0, 57, 0
1, 55648, Note_on_c, 0, 55, 78
1, 55663, Note_on_c, 0, 55, 0
1, 55664, Note_on_c, 0, 53, 78
1, 55677, Note_on_c, 1, 47, 0
1, 55679, Note_on_c, 0, 53, 0
1, 55680, Note_on_c, 0, 52, 78
1, 55680, Note_on_c, 1, 48, 78
1, 55695, Note_on_c, 0, 52, 0
1, 55696, Note_on_c, 0, 55, 78
1, 55711, Note_on_c, 0, 55, 0
1, 55712, Note_on_c, 0, 60, 78
1, 55727, Note_on_c, 0, 60, 0
1, 55728, Note_on_c, 0, 55, 78
1, 55743, Note_on_c, 0, 55, 0
1, 55744, Note_on_c, 0, 60, 78
1, 55759, Note_on_c, 0, 60, 0
1, 55760, Note_on_c, 0, 64, 78
1, 55769, Note_on_c, 1, 48, 0
1, 55775, Note_on_c, 0, 64, 0
1, 55776, Note_on_c, 0, 67, 78
1, 55791, Note_on_c, 0, 67, 0
1, 55792, Note_on_c, 0, 65, 78
1, 55807, Note_on_c, 0, 65, 0
1, 55808, Note_on_c, 0, 64, 78
1, 55823, Note_on_c, 0, 64, 0
1, 55824, Note_on_c, 0, 62, 78
1, 55824, Note_on_c, 1, 52, 78
1, 55839, Note_on_c, 0, 62, 0
1, 55840, Note_on_c, 0, 60, 78
1, 55855, Note_on_c, 0, 60, 0
1, 55856, Note_on_c, 0, 59, 78
1, 55869, Note_on_c, 1, 52, 0
1, 55871, Note_on_c, 0, 59, 0
1, 55872, Note_on_c, 0, 57, 78
1, 55872, Note_on_c, 1, 53, 78
1, 55887, Note_on_c, 0, 57, 0
1, 55888, Note_on_c, 0, 68, 78
1, 55903, Note_on_c, 0, 68, 0
1, 55904, Note_on_c, 0, 69, 78
1, 55919, Note_on_c, 0, 69, 0
1, 55920, Note_on_c, 0, 67, 78
1, 55920, Note_on_c, 1, 41, 94
1, 55932, Note_on_c, 0, 67, 0
1, 55932, Note_on_c, 0, 65, 78
1, 55943, Note_on_c, 0, 65, 0
1, 55944, Note_on_c, 0, 64, 78
1, 55956, Note_on_c, 0, 64, 0
1, 55956, Note_on_c, 0, 62, 78
1, 55961, Note_on_c, 1, 53, 0
1, 55965, Note_on_c, 1, 41, 0
1, 55968, Note_on_c, 0, 62, 0
1, 55968, Note_on_c, 0, 60, 78
1, 55968, Note_on_c, 1, 52, 78
1, 55968, Note_on_c, 1, 43, 94
1, 56013, Note_on_c, 0, 60, 0
1, 56013, Note_on_c, 1, 52, 0
1, 56016, Note_on_c, 0, 59, 74
1, 56016, Note_on_c, 1, 53, 74
1, 56016, Note_on_c, 1, 50, 74
1, 56057, Note_on_c, 1, 43, 0
1, 56061, Note_on_c, 0, 59, 0
1, 56061, Note_on_c, 1, 53, 0
1, 56061, Note_on_c, 1, 50, 0
1, 56064, Note_on_c, 0, 59, 70
1, 56064, Note_on_c, 1, 53, 70
1, 56064, Note_on_c, 1, 50, 94
1, 56064, Note_on_c, 1, 45, 94
1, 56160, Note_on_c, 0, 59, 0
1, 56160, Note_on_c, 0, 60, 62
1, 56160, Note_on_c, 1, 53, 0
1, 56160, Note_on_c, 1, 52, 62
1, 56160, Note_on_c, 1, 50, 0
1, 56160, Note_on_c, 1, 48, 94
1, 56207, Note_on_c, 0, 60, 0
1, 56207, Note_on_c, 1, 52, 0
1, 56207, Note_on_c, 1, 48, 0
1, 56207, Note_on_c, 1, 45, 0
1, 56208, Note_on_c, 0, 67, 78
1, 56223, Note_on_c, 0, 67, 0
1, 56224, Note_on_c, 0, 72, 78
1, 56239, Note_on_c, 0, 72, 0
1, 56240, Note_on_c, 0, 76, 78
1, 56255, Note_on_c, 0, 76, 0
1, 56256, Note_on_c, 0, 67, 78
1, 56271, Note_on_c, 0, 67, 0
1, 56272, Note_on_c, 0, 66, 78
1, 56287, Note_on_c, 0, 66, 0
1, 56288, Note_on_c, 0, 65, 78
1, 56303, Note_on_c, 0, 65, 0
1, 56304, Note_on_c, 0, 74, 94
1, 56304, Note_on_c, 1, 55, 78
1, 56349, Note_on_c, 1, 55, 0
1, 56352, Note_on_c, 1, 57, 78
1, 56367, Note_on_c, 0, 74, 0
1, 56368, Note_on_c, 0, 72, 78
1, 56383, Note_on_c, 0, 72, 0
1, 56384, Note_on_c, 0, 71, 78
1, 56397, Note_on_c, 1, 57, 0
1, 56399, Note_on_c, 0, 71, 0
1, 56400, Note_on_c, 0, 69, 78
1, 56400, Note_on_c, 1, 59, 78
1, 56415, Note_on_c, 0, 69, 0
1, 56416, Note_on_c, 0, 67, 78
1, 56431, Note_on_c, 0, 67, 0
1, 56432, Note_on_c, 0, 65, 78
1, 56445, Note_on_c, 1, 59, 0
1, 56447, Note_on_c, 0, 65, 0
1, 56448, Note_on_c, 0, 64, 78
1, 56448, Note_on_c, 1, 60, 78
1, 56463, Note_on_c, 0, 64, 0
1, 56464, Note_on_c, 0, 67, 78
1, 56479, Note_on_c, 0, 67, 0
1, 56480, Note_on_c, 0, 72, 78
1, 56495, Note_on_c, 0, 72, 0
1, 56496, Note_on_c, 0, 67, 78
1, 56511, Note_on_c, 0, 67, 0
1, 56512, Note_on_c, 0, 72, 78
1, 56527, Note_on_c, 0, 72, 0
1, 56528, Note_on_c, 0, 76, 78
1, 56537, Note_on_c, 1, 60, 0
1, 56543, Note_on_c, 0, 76, 0
1, 56544, Note_on_c, 0, 79, 78
1, 56564, Note_on_c, 0, 79, 0
1, 56592, Note_on_c, 0, 79, 78
1, 56607, Note_on_c, 0, 79, 0
1, 56608, Note_on_c, 0, 84, 78
1, 56623, Note_on_c, 0, 84, 0
1, 56624, Note_on_c, 0, 88, 78
1, 56639, Note_on_c, 0, 88, 0
1, 56640, Note_on_c, 0, 79, 78
1, 56655, Note_on_c, 0, 79, 0
1, 56656, Note_on_c, 0, 78, 78
1, 56671, Note_on_c, 0, 78, 0
1, 56672, Note_on_c, 0, 77, 78
1, 56687, Note_on_c, 0, 77, 0
1, 56688, Note_on_c, 0, 86, 94
1, 56688, Note_on_c, 1, 67, 78
1, 56733, Note_on_c, 1, 67, 0
1, 56736, Note_on_c, 1, 69, 78
1, 56751, Note_on_c, 0, 86, 0
1, 56752, Note_on_c, 0, 84, 78
1, 56767, Note_on_c, 0, 84, 0
1, 56768, Note_on_c, 0, 83, 78
1, 56781, Note_on_c, 1, 69, 0
1, 56783, Note_on_c, 0, 83, 0
1, 56784, Note_on_c, 0, 81, 78
1, 56784, Note_on_c, 1, 71, 78
1, 56799, Note_on_c, 0, 81, 0
1, 56800, Note_on_c, 0, 79, 78
1, 56815, Note_on_c, 0, 79, 0
1, 56816, Note_on_c, 0, 77, 78
1, 56829, Note_on_c, 1, 71, 0
1, 56831, Note_on_c, 0, 77, 0
1, 56832, Note_on_c, 0, 76, 78
1, 56832, Note_on_c, 1, 72, 78
1, 56847, Note_on_c, 0, 76, 0
1, 56848, Note_on_c, 0, 83, 78
1, 56863, Note_on_c, 0, 83, 0
1, 56864, Note_on_c, 0, 84, 78
1, 56879, Note_on_c, 0, 84, 0
1, 56880, Note_on_c, 0, 80, 78
1, 56895, Note_on_c, 0, 80, 0
1, 56896, Note_on_c, 0, 81, 78
1, 56911, Note_on_c, 0, 81, 0
1, 56912, Note_on_c, 0, 78, 78
1, 56921, Note_on_c, 1, 72, 0
1, 56927, Note_on_c, 0, 78, 0
1, 56928, Note_on_c, 0, 79, 78
1, 56943, Note_on_c, 0, 79, 0
1, 56944, Note_on_c, 0, 76, 78
1, 56959, Note_on_c, 0, 76, 0
1, 56960, Note_on_c, 0, 77, 78
1, 56975, Note_on_c, 0, 77, 0
1, 56976, Note_on_c, 0, 81, 78
1, 56991, Note_on_c, 0, 81, 0
1, 56992, Note_on_c, 0, 77, 78
1, 57007, Note_on_c, 0, 77, 0
1, 57008, Note_on_c, 0, 74, 78
1, 57023, Note_on_c, 0, 74, 0
1, 57024, Note_on_c, 0, 72, 78
1, 57072, Note_on_c, 1, 52, 78
1, 57113, Note_on_c, 0, 72, 0
1, 57117, Note_on_c, 1, 52, 0
1, 57120, Note_on_c, 0, 72, 78
1, 57120, Note_on_c, 1, 53, 78
1, 57128, Note_on_c, 0, 72, 0
1, 57128, Note_on_c, 0, 74, 78
1, 57136, Note_on_c, 0, 74, 0
1, 57136, Note_on_c, 0, 76, 78
1, 57144, Note_on_c, 0, 76, 0
1, 57144, Note_on_c, 0, 74, 78
1, 57152, Note_on_c, 0, 74, 0
1, 57152, Note_on_c, 0, 76, 78
1, 57160, Note_on_c, 0, 76, 0
1, 57160, Note_on_c, 0, 74, 78
1, 57165, Note_on_c, 1, 53, 0
1, 57168, Note_on_c, 0, 74, 0
1, 57168, Note_on_c, 0, 76, 78
1, 57168, Note_on_c, 1, 55, 78
1, 57176, Note_on_c, 0, 76, 0
1, 57176, Note_on_c, 0, 74, 78
1, 57184, Note_on_c, 0, 74, 0
1, 57184, Note_on_c, 0, 76, 78
1, 57192, Note_on_c, 0, 76, 0
1, 57192, Note_on_c, 0, 74, 78
1, 57200, Note_on_c, 0, 74, 0
1, 57200, Note_on_c, 0, 72, 78
1, 57208, Note_on_c, 0, 72, 0
1, 57208, Note_on_c, 0, 74, 78
1, 57213, Note_on_c, 1, 55, 0
1, 57216, Note_on_c, 0, 74, 0
1, 57216, Note_on_c, 0, 72, 78
1, 57216, Note_on_c, 1, 48, 78
1, 57231, Note_on_c, 1, 48, 0
1, 57232, Note_on_c, 1, 52, 78
1, 57247, Note_on_c, 1, 52, 0
1, 57248, Note_on_c, 1, 55, 78
1, 57263, Note_on_c, 1, 55, 0
1, 57264, Note_on_c, 1, 60, 78
1, 57279, Note_on_c, 1, 60, 0
1, 57280, Note_on_c, 1, 64, 78
1, 57295, Note_on_c, 1, 64, 0
1, 57296, Note_on_c, 1, 60, 78
1, 57305, Note_on_c, 0, 72, 0
1, 57311, Note_on_c, 1, 60, 0
1, 57312, Note_on_c, 1, 48, 78
1, 57357, Note_on_c, 1, 48, 0
1, 57360, Note_on_c, 1, 48, 0
1, 57405, Note_on_c, 1, 48, 0
1, 57415, End_track
0, 0, End_of_file