0, 0, Header, 0, 1, 96
1, 0, Start_track
1, 0, Tempo, 120000
1, 192, Tempo, 387096
1, 192, Note_on_c, 0, 79, 75
1, 281, Note_on_c, 0, 79, 0
1, 288, Note_on_c, 0, 81, 75
1, 288, Note_on_c, 1, 60, 64
1, 306, Note_on_c, 0, 81, 0
1, 306, Note_on_c, 0, 79, 75
1, 318, Note_on_c, 1, 60, 0
1, 320, Note_on_c, 1, 64, 64
1, 324, Note_on_c, 0, 79, 0
1, 324, Note_on_c, 0, 78, 75
1, 342, Note_on_c, 0, 78, 0
1, 342, Note_on_c, 0, 79, 75
1, 350, Note_on_c, 1, 64, 0
1, 352, Note_on_c, 1, 67, 64
1, 377, Note_on_c, 0, 79, 0
1, 382, Note_on_c, 1, 67, 0
1, 384, Note_on_c, 0, 76, 75
1, 384, Note_on_c, 1, 60, 64
1, 414, Note_on_c, 1, 60, 0
1, 416, Note_on_c, 1, 64, 64
1, 446, Note_on_c, 1, 64, 0
1, 448, Note_on_c, 1, 67, 64
1, 473, Note_on_c, 0, 76, 0
1, 478, Note_on_c, 1, 67, 0
1, 480, Note_on_c, 0, 79, 75
1, 480, Note_on_c, 1, 60, 64
1, 510, Note_on_c, 1, 60, 0
1, 512, Note_on_c, 1, 64, 64
1, 542, Note_on_c, 1, 64, 0
1, 544, Note_on_c, 1, 67, 64
1, 569, Note_on_c, 0, 79, 0
1, 574, Note_on_c, 1, 67, 0
1, 576, Note_on_c, 0, 81, 75
1, 576, Note_on_c, 1, 60, 64
1, 594, Note_on_c, 0, 81, 0
1, 594, Note_on_c, 0, 79, 75
1, 606, Note_on_c, 1, 60, 0
1, 608, Note_on_c, 1, 64, 64
1, 612, Note_on_c, 0, 79, 0
1, 612, Note_on_c, 0, 78, 75
1, 630, Note_on_c, 0, 78, 0
1, 630, Note_on_c, 0, 79, 75
1, 638, Note_on_c, 1, 64, 0
1, 640, Note_on_c, 1, 67, 64
1, 665, Note_on_c, 0, 79, 0
1, 670, Note_on_c, 1, 67, 0
1, 672, Note_on_c, 0, 84, 75
1, 672, Note_on_c, 1, 60, 64
1, 702, Note_on_c, 1, 60, 0
1, 704, Note_on_c, 1, 64, 64
1, 734, Note_on_c, 1, 64, 0
1, 736, Note_on_c, 1, 67, 64
1, 761, Note_on_c, 0, 84, 0
1, 766, Note_on_c, 1, 67, 0
1, 768, Note_on_c, 0, 79, 75
1, 768, Note_on_c, 1, 60, 64
1, 798, Note_on_c, 1, 60, 0
1, 800, Note_on_c, 1, 64, 64
1, 830, Note_on_c, 1, 64, 0
1, 832, Note_on_c, 1, 67, 64
1, 857, Note_on_c, 0, 79, 0
1, 862, Note_on_c, 1, 67, 0
1, 864, Note_on_c, 0, 79, 75
1, 864, Note_on_c, 1, 59, 64
1, 894, Note_on_c, 1, 59, 0
1, 896, Note_on_c, 1, 62, 64
1, 926, Note_on_c, 1, 62, 0
1, 928, Note_on_c, 1, 67, 64
1, 958, Note_on_c, 1, 67, 0
1, 960, Note_on_c, 1, 59, 64
1, 990, Note_on_c, 1, 59, 0
1, 992, Note_on_c, 1, 62, 64
1, 1022, Note_on_c, 1, 62, 0
1, 1024, Note_on_c, 1, 67, 64
1, 1041, Note_on_c, 0, 79, 0
1, 1054, Note_on_c, 1, 67, 0
1, 1056, Note_on_c, 0, 79, 75
1, 1056, Note_on_c, 1, 59, 64
1, 1071, Note_on_c, 0, 79, 0
1, 1072, Note_on_c, 0, 77, 75
1, 1086, Note_on_c, 1, 59, 0
1, 1087, Note_on_c, 0, 77, 0
1, 1088, Note_on_c, 0, 79, 75
1, 1088, Note_on_c, 1, 62, 64
1, 1103, Note_on_c, 0, 79, 0
1, 1104, Note_on_c, 0, 77, 75
1, 1118, Note_on_c, 1, 62, 0
1, 1119, Note_on_c, 0, 77, 0
1, 1120, Note_on_c, 0, 79, 75
1, 1120, Note_on_c, 1, 67, 64
1, 1135, Note_on_c, 0, 79, 0
1, 1136, Note_on_c, 0, 77, 75
1, 1150, Note_on_c, 1, 67, 0
1, 1151, Note_on_c, 0, 77, 0
1, 1152, Note_on_c, 0, 76, 75
1, 1152, Note_on_c, 1, 60, 64
1, 1182, Note_on_c, 1, 60, 0
1, 1184, Note_on_c, 1, 64, 64
1, 1214, Note_on_c, 1, 64, 0
1, 1216, Note_on_c, 1, 67, 64
1, 1241, Note_on_c, 0, 76, 0
1, 1246, Note_on_c, 1, 67, 0
1, 1248, Note_on_c, 1, 60, 64
1, 1278, Note_on_c, 1, 60, 0
1, 1280, Note_on_c, 1, 64, 64
1, 1310, Note_on_c, 1, 64, 0
1, 1312, Note_on_c, 1, 67, 64
1, 1342, Note_on_c, 1, 67, 0
1, 1344, Note_on_c, 0, 72, 75
1, 1344, Note_on_c, 1, 60, 64
1, 1374, Note_on_c, 1, 60, 0
1, 1376, Note_on_c, 1, 64, 64
1, 1406, Note_on_c, 1, 64, 0
1, 1408, Note_on_c, 1, 67, 64
1, 1433, Note_on_c, 0, 72, 0
1, 1438, Note_on_c, 1, 67, 0
1, 1440, Note_on_c, 0, 72, 75
1, 1440, Note_on_c, 1, 62, 64
1, 1464, Note_on_c, 0, 72, 0
1, 1464, Note_on_c, 0, 71, 75
1, 1470, Note_on_c, 1, 62, 0
1, 1472, Note_on_c, 1, 65, 64
1, 1502, Note_on_c, 1, 65, 0
1, 1504, Note_on_c, 1, 67, 64
1, 1529, Note_on_c, 0, 71, 0
1, 1534, Note_on_c, 1, 67, 0
1, 1536, Note_on_c, 0, 71, 75
1, 1536, Note_on_c, 1, 62, 64
1, 1566, Note_on_c, 1, 62, 0
1, 1568, Note_on_c, 1, 65, 64
1, 1575, Note_on_c, 0, 71, 0
1, 1598, Note_on_c, 1, 65, 0
1, 1600, Note_on_c, 1, 67, 64
1, 1630, Note_on_c, 1, 67, 0
1, 1632, Note_on_c, 0, 71, 75
1, 1632, Note_on_c, 1, 62, 64
1, 1662, Note_on_c, 1, 62, 0
1, 1664, Note_on_c, 1, 65, 64
1, 1671, Note_on_c, 0, 71, 0
1, 1694, Note_on_c, 1, 65, 0
1, 1696, Note_on_c, 1, 67, 64
1, 1726, Note_on_c, 1, 67, 0
1, 1728, Note_on_c, 0, 74, 75
1, 1728, Note_on_c, 1, 60, 64
1, 1746, Note_on_c, 0, 74, 0
1, 1746, Note_on_c, 0, 72, 75
1, 1758, Note_on_c, 1, 60, 0
1, 1760, Note_on_c, 1, 64, 64
1, 1764, Note_on_c, 0, 72, 0
1, 1764, Note_on_c, 0, 71, 75
1, 1782, Note_on_c, 0, 71, 0
1, 1782, Note_on_c, 0, 72, 75
1, 1790, Note_on_c, 1, 64, 0
1, 1792, Note_on_c, 1, 67, 64
1, 1817, Note_on_c, 0, 72, 0
1, 1822, Note_on_c, 1, 67, 0
1, 1824, Note_on_c, 0, 76, 75
1, 1824, Note_on_c, 1, 60, 64
1, 1854, Note_on_c, 1, 60, 0
1, 1856, Note_on_c, 1, 64, 64
1, 1863, Note_on_c, 0, 76, 0
1, 1886, Note_on_c, 1, 64, 0
1, 1888, Note_on_c, 1, 67, 64
1, 1918, Note_on_c, 1, 67, 0
1, 1920, Note_on_c, 0, 76, 75
1, 1920, Note_on_c, 1, 60, 64
1, 1950, Note_on_c, 1, 60, 0
1, 1952, Note_on_c, 1, 64, 64
1, 1959, Note_on_c, 0, 76, 0
1, 1982, Note_on_c, 1, 64, 0
1, 1984, Note_on_c, 1, 67, 64
1, 2014, Note_on_c, 1, 67, 0
1, 2016, Note_on_c, 0, 76, 75
1, 2016, Note_on_c, 1, 59, 64
1, 2031, Note_on_c, 0, 76, 0
1, 2032, Note_on_c, 0, 74, 75
1, 2046, Note_on_c, 1, 59, 0
1, 2047, Note_on_c, 0, 74, 0
1, 2048, Note_on_c, 0, 76, 75
1, 2048, Note_on_c, 1, 62, 64
1, 2063, Note_on_c, 0, 76, 0
1, 2064, Note_on_c, 0, 74, 75
1, 2078, Note_on_c, 1, 62, 0
1, 2079, Note_on_c, 0, 74, 0
1, 2080, Note_on_c, 0, 72, 75
1, 2080, Note_on_c, 1, 67, 64
1, 2095, Note_on_c, 0, 72, 0
1, 2096, Note_on_c, 0, 74, 75
1, 2110, Note_on_c, 1, 67, 0
1, 2111, Note_on_c, 0, 74, 0
1, 2112, Note_on_c, 0, 77, 75
1, 2112, Note_on_c, 1, 59, 64
1, 2142, Note_on_c, 1, 59, 0
1, 2144, Note_on_c, 1, 62, 64
1, 2151, Note_on_c, 0, 77, 0
1, 2174, Note_on_c, 1, 62, 0
1, 2176, Note_on_c, 1, 67, 64
1, 2206, Note_on_c, 1, 67, 0
1, 2208, Note_on_c, 0, 77, 75
1, 2208, Note_on_c, 1, 59, 64
1, 2238, Note_on_c, 1, 59, 0
1, 2240, Note_on_c, 1, 62, 64
1, 2247, Note_on_c, 0, 77, 0
1, 2270, Note_on_c, 1, 62, 0
1, 2272, Note_on_c, 1, 67, 64
1, 2302, Note_on_c, 1, 67, 0
1, 2304, Note_on_c, 0, 77, 75
1, 2304, Note_on_c, 1, 60, 64
1, 2334, Note_on_c, 1, 60, 0
1, 2336, Note_on_c, 1, 64, 64
1, 2366, Note_on_c, 1, 64, 0
1, 2368, Note_on_c, 1, 67, 64
1, 2398, Note_on_c, 1, 67, 0
1, 2400, Note_on_c, 0, 77, 0
1, 2400, Note_on_c, 0, 76, 75
1, 2400, Note_on_c, 1, 60, 64
1, 2430, Note_on_c, 1, 60, 0
1, 2432, Note_on_c, 1, 64, 64
1, 2462, Note_on_c, 1, 64, 0
1, 2464, Note_on_c, 1, 67, 64
1, 2489, Note_on_c, 0, 76, 0
1, 2494, Note_on_c, 1, 67, 0
1, 2496, Note_on_c, 0, 72, 75
1, 2496, Note_on_c, 1, 60, 64
1, 2526, Note_on_c, 1, 60, 0
1, 2528, Note_on_c, 1, 64, 64
1, 2558, Note_on_c, 1, 64, 0
1, 2560, Note_on_c, 1, 67, 64
1, 2585, Note_on_c, 0, 72, 0
1, 2590, Note_on_c, 1, 67, 0
1, 2592, Note_on_c, 0, 72, 75
1, 2592, Note_on_c, 1, 62, 64
1, 2610, Note_on_c, 0, 72, 0
1, 2610, Note_on_c, 0, 71, 75
1, 2622, Note_on_c, 1, 62, 0
1, 2624, Note_on_c, 1, 65, 64
1, 2654, Note_on_c, 1, 65, 0
1, 2656, Note_on_c, 1, 67, 64
1, 2681, Note_on_c, 0, 71, 0
1, 2686, Note_on_c, 1, 67, 0
1, 2688, Note_on_c, 0, 71, 75
1, 2688, Note_on_c, 1, 62, 64
1, 2718, Note_on_c, 1, 62, 0
1, 2720, Note_on_c, 1, 65, 64
1, 2727, Note_on_c, 0, 71, 0
1, 2750, Note_on_c, 1, 65, 0
1, 2752, Note_on_c, 1, 67, 64
1, 2782, Note_on_c, 1, 67, 0
1, 2784, Note_on_c, 0, 71, 75
1, 2784, Note_on_c, 1, 62, 64
1, 2814, Note_on_c, 1, 62, 0
1, 2816, Note_on_c, 1, 65, 64
1, 2823, Note_on_c, 0, 71, 0
1, 2846, Note_on_c, 1, 65, 0
1, 2848, Note_on_c, 1, 67, 64
1, 2878, Note_on_c, 1, 67, 0
1, 2880, Note_on_c, 0, 72, 75
1, 2880, Note_on_c, 1, 64, 64
1, 2910, Note_on_c, 0, 72, 0
1, 2912, Note_on_c, 0, 76, 75
1, 2942, Note_on_c, 0, 76, 0
1, 2944, Note_on_c, 0, 74, 75
1, 2969, Note_on_c, 1, 64, 0
1, 2974, Note_on_c, 0, 74, 0
1, 2976, Note_on_c, 0, 72, 75
1, 3006, Note_on_c, 0, 72, 0
1, 3008, Note_on_c, 0, 71, 75
1, 3038, Note_on_c, 0, 71, 0
1, 3040, Note_on_c, 0, 69, 75
1, 3070, Note_on_c, 0, 69, 0
1, 3072, Note_on_c, 0, 67, 75
1, 3102, Note_on_c, 0, 67, 0
1, 3104, Note_on_c, 0, 65, 75
1, 3134, Note_on_c, 0, 65, 0
1, 3136, Note_on_c, 0, 64, 75
1, 3166, Note_on_c, 0, 64, 0
1, 3168, Note_on_c, 0, 65, 75
1, 3168, Note_on_c, 1, 62, 64
1, 3187, Note_on_c, 0, 65, 0
1, 3188, Note_on_c, 0, 67, 75
1, 3207, Note_on_c, 0, 67, 0
1, 3208, Note_on_c, 0, 65, 75
1, 3227, Note_on_c, 0, 65, 0
1, 3228, Note_on_c, 0, 67, 75
1, 3246, Note_on_c, 0, 67, 0
1, 3247, Note_on_c, 0, 65, 75
1, 3257, Note_on_c, 1, 62, 0
1, 3264, Note_on_c, 1, 59, 64
1, 3265, Note_on_c, 0, 65, 0
1, 3266, Note_on_c, 0, 67, 75
1, 3284, Note_on_c, 0, 67, 0
1, 3285, Note_on_c, 0, 65, 75
1, 3303, Note_on_c, 0, 65, 0
1, 3304, Note_on_c, 0, 67, 75
1, 3322, Note_on_c, 0, 67, 0
1, 3323, Note_on_c, 0, 65, 75
1, 3341, Note_on_c, 0, 65, 0
1, 3342, Note_on_c, 0, 67, 75
1, 3353, Note_on_c, 1, 59, 0
1, 3360, Note_on_c, 0, 67, 0
1, 3360, Note_on_c, 1, 55, 64
1, 3361, Note_on_c, 0, 65, 75
1, 3379, Note_on_c, 0, 65, 0
1, 3380, Note_on_c, 0, 67, 75
1, 3398, Note_on_c, 0, 67, 0
1, 3399, Note_on_c, 0, 65, 75
1, 3417, Note_on_c, 0, 65, 0
1, 3418, Note_on_c, 0, 64, 75
1, 3436, Note_on_c, 0, 64, 0
1, 3437, Note_on_c, 0, 65, 75
1, 3449, Note_on_c, 1, 55, 0
1, 3455, Note_on_c, 0, 65, 0
1, 3456, Note_on_c, 0, 64, 75
1, 3456, Note_on_c, 1, 60, 64
1, 3545, Note_on_c, 0, 64, 0
1, 3545, Note_on_c, 1, 60, 0
1, 3552, Note_on_c, 1, 48, 64
1, 3641, Note_on_c, 1, 48, 0
1, 3648, Note_on_c, 0, 79, 75
1, 3737, Note_on_c, 0, 79, 0
1, 3744, Note_on_c, 0, 81, 75
1, 3744, Note_on_c, 1, 60, 64
1, 3762, Note_on_c, 0, 81, 0
1, 3762, Note_on_c, 0, 79, 75
1, 3774, Note_on_c, 1, 60, 0
1, 3776, Note_on_c, 1, 64, 64
1, 3780, Note_on_c, 0, 79, 0
1, 3780, Note_on_c, 0, 78, 75
1, 3798, Note_on_c, 0, 78, 0
1, 3798, Note_on_c, 0, 79, 75
1, 3806, Note_on_c, 1, 64, 0
1, 3808, Note_on_c, 1, 67, 64
1, 3833, Note_on_c, 0, 79, 0
1, 3838, Note_on_c, 1, 67, 0
1, 3840, Note_on_c, 0, 76, 75
1, 3840, Note_on_c, 1, 60, 64
1, 3870, Note_on_c, 1, 60, 0
1, 3872, Note_on_c, 1, 64, 64
1, 3902, Note_on_c, 1, 64, 0
1, 3904, Note_on_c, 1, 67, 64
1, 3929, Note_on_c, 0, 76, 0
1, 3934, Note_on_c, 1, 67, 0
1, 3936, Note_on_c, 0, 79, 75
1, 3936, Note_on_c, 1, 60, 64
1, 3966, Note_on_c, 1, 60, 0
1, 3968, Note_on_c, 1, 64, 64
1, 3998, Note_on_c, 1, 64, 0
1, 4000, Note_on_c, 1, 67, 64
1, 4025, Note_on_c, 0, 79, 0
1, 4030, Note_on_c, 1, 67, 0
1, 4032, Note_on_c, 0, 81, 75
1, 4032, Note_on_c, 1, 60, 64
1, 4050, Note_on_c, 0, 81, 0
1, 4050, Note_on_c, 0, 79, 75
1, 4062, Note_on_c, 1, 60, 0
1, 4064, Note_on_c, 1, 64, 64
1, 4068, Note_on_c, 0, 79, 0
1, 4068, Note_on_c, 0, 78, 75
1, 4086, Note_on_c, 0, 78, 0
1, 4086, Note_on_c, 0, 79, 75
1, 4094, Note_on_c, 1, 64, 0
1, 4096, Note_on_c, 1, 67, 64
1, 4121, Note_on_c, 0, 79, 0
1, 4126, Note_on_c, 1, 67, 0
1, 4128, Note_on_c, 0, 84, 75
1, 4128, Note_on_c, 1, 60, 64
1, 4158, Note_on_c, 1, 60, 0
1, 4160, Note_on_c, 1, 64, 64
1, 4190, Note_on_c, 1, 64, 0
1, 4192, Note_on_c, 1, 67, 64
1, 4217, Note_on_c, 0, 84, 0
1, 4222, Note_on_c, 1, 67, 0
1, 4224, Note_on_c, 0, 79, 75
1, 4224, Note_on_c, 1, 60, 64
1, 4254, Note_on_c, 1, 60, 0
1, 4256, Note_on_c, 1, 64, 64
1, 4286, Note_on_c, 1, 64, 0
1, 4288, Note_on_c, 1, 67, 64
1, 4313, Note_on_c, 0, 79, 0
1, 4318, Note_on_c, 1, 67, 0
1, 4320, Note_on_c, 0, 79, 75
1, 4320, Note_on_c, 1, 59, 64
1, 4350, Note_on_c, 1, 59, 0
1, 4352, Note_on_c, 1, 62, 64
1, 4382, Note_on_c, 1, 62, 0
1, 4384, Note_on_c, 1, 67, 64
1, 4414, Note_on_c, 1, 67, 0
1, 4416, Note_on_c, 1, 59, 64
1, 4446, Note_on_c, 1, 59, 0
1, 4448, Note_on_c, 1, 62, 64
1, 4478, Note_on_c, 1, 62, 0
1, 4480, Note_on_c, 1, 67, 64
1, 4497, Note_on_c, 0, 79, 0
1, 4510, Note_on_c, 1, 67, 0
1, 4512, Note_on_c, 0, 79, 75
1, 4512, Note_on_c, 1, 59, 64
1, 4527, Note_on_c, 0, 79, 0
1, 4528, Note_on_c, 0, 77, 75
1, 4542, Note_on_c, 1, 59, 0
1, 4543, Note_on_c, 0, 77, 0
1, 4544, Note_on_c, 0, 79, 75
1, 4544, Note_on_c, 1, 62, 64
1, 4559, Note_on_c, 0, 79, 0
1, 4560, Note_on_c, 0, 77, 75
1, 4574, Note_on_c, 1, 62, 0
1, 4575, Note_on_c, 0, 77, 0
1, 4576, Note_on_c, 0, 79, 75
1, 4576, Note_on_c, 1, 67, 64
1, 4591, Note_on_c, 0, 79, 0
1, 4592, Note_on_c, 0, 77, 75
1, 4606, Note_on_c, 1, 67, 0
1, 4607, Note_on_c, 0, 77, 0
1, 4608, Note_on_c, 0, 76, 75
1, 4608, Note_on_c, 1, 60, 64
1, 4638, Note_on_c, 1, 60, 0
1, 4640, Note_on_c, 1, 64, 64
1, 4670, Note_on_c, 1, 64, 0
1, 4672, Note_on_c, 1, 67, 64
1, 4697, Note_on_c, 0, 76, 0
1, 4702, Note_on_c, 1, 67, 0
1, 4704, Note_on_c, 1, 60, 64
1, 4734, Note_on_c, 1, 60, 0
1, 4736, Note_on_c, 1, 64, 64
1, 4766, Note_on_c, 1, 64, 0
1, 4768, Note_on_c, 1, 67, 64
1, 4798, Note_on_c, 1, 67, 0
1, 4800, Note_on_c, 0, 72, 75
1, 4800, Note_on_c, 1, 60, 64
1, 4830, Note_on_c, 1, 60, 0
1, 4832, Note_on_c, 1, 64, 64
1, 4862, Note_on_c, 1, 64, 0
1, 4864, Note_on_c, 1, 67, 64
1, 4889, Note_on_c, 0, 72, 0
1, 4894, Note_on_c, 1, 67, 0
1, 4896, Note_on_c, 0, 72, 75
1, 4896, Note_on_c, 1, 62, 64
1, 4914, Note_on_c, 0, 72, 0
1, 4914, Note_on_c, 0, 71, 75
1, 4926, Note_on_c, 1, 62, 0
1, 4928, Note_on_c, 1, 65, 64
1, 4958, Note_on_c, 1, 65, 0
1, 4960, Note_on_c, 1, 67, 64
1, 4985, Note_on_c, 0, 71, 0
1, 4990, Note_on_c, 1, 67, 0
1, 4992, Note_on_c, 0, 71, 75
1, 4992, Note_on_c, 1, 62, 64
1, 5022, Note_on_c, 1, 62, 0
1, 5024, Note_on_c, 1, 65, 64
1, 5031, Note_on_c, 0, 71, 0
1, 5054, Note_on_c, 1, 65, 0
1, 5056, Note_on_c, 1, 67, 64
1, 5086, Note_on_c, 1, 67, 0
1, 5088, Note_on_c, 0, 71, 75
1, 5088, Note_on_c, 1, 62, 64
1, 5118, Note_on_c, 1, 62, 0
1, 5120, Note_on_c, 1, 65, 64
1, 5127, Note_on_c, 0, 71, 0
1, 5150, Note_on_c, 1, 65, 0
1, 5152, Note_on_c, 1, 67, 64
1, 5182, Note_on_c, 1, 67, 0
1, 5184, Note_on_c, 0, 74, 75
1, 5184, Note_on_c, 1, 60, 64
1, 5202, Note_on_c, 0, 74, 0
1, 5202, Note_on_c, 0, 72, 75
1, 5214, Note_on_c, 1, 60, 0
1, 5216, Note_on_c, 1, 64, 64
1, 5220, Note_on_c, 0, 72, 0
1, 5220, Note_on_c, 0, 71, 75
1, 5238, Note_on_c, 0, 71, 0
1, 5238, Note_on_c, 0, 72, 75
1, 5246, Note_on_c, 1, 64, 0
1, 5248, Note_on_c, 1, 67, 64
1, 5273, Note_on_c, 0, 72, 0
1, 5278, Note_on_c, 1, 67, 0
1, 5280, Note_on_c, 0, 76, 75
1, 5280, Note_on_c, 1, 60, 64
1, 5310, Note_on_c, 1, 60, 0
1, 5312, Note_on_c, 1, 64, 64
1, 5319, Note_on_c, 0, 76, 0
1, 5342, Note_on_c, 1, 64, 0
1, 5344, Note_on_c, 1, 67, 64
1, 5374, Note_on_c, 1, 67, 0
1, 5376, Note_on_c, 0, 76, 75
1, 5376, Note_on_c, 1, 60, 64
1, 5406, Note_on_c, 1, 60, 0
1, 5408, Note_on_c, 1, 64, 64
1, 5415, Note_on_c, 0, 76, 0
1, 5438, Note_on_c, 1, 64, 0
1, 5440, Note_on_c, 1, 67, 64
1, 5470, Note_on_c, 1, 67, 0
1, 5472, Note_on_c, 0, 76, 75
1, 5472, Note_on_c, 1, 59, 64
1, 5487, Note_on_c, 0, 76, 0
1, 5488, Note_on_c, 0, 74, 75
1, 5502, Note_on_c, 1, 59, 0
1, 5503, Note_on_c, 0, 74, 0
1, 5504, Note_on_c, 0, 76, 75
1, 5504, Note_on_c, 1, 62, 64
1, 5519, Note_on_c, 0, 76, 0
1, 5520, Note_on_c, 0, 74, 75
1, 5534, Note_on_c, 1, 62, 0
1, 5535, Note_on_c, 0, 74, 0
1, 5536, Note_on_c, 0, 72, 75
1, 5536, Note_on_c, 1, 67, 64
1, 5551, Note_on_c, 0, 72, 0
1, 5552, Note_on_c, 0, 74, 75
1, 5566, Note_on_c, 1, 67, 0
1, 5567, Note_on_c, 0, 74, 0
1, 5568, Note_on_c, 0, 77, 75
1, 5568, Note_on_c, 1, 59, 64
1, 5598, Note_on_c, 1, 59, 0
1, 5600, Note_on_c, 1, 62, 64
1, 5607, Note_on_c, 0, 77, 0
1, 5630, Note_on_c, 1, 62, 0
1, 5632, Note_on_c, 1, 67, 64
1, 5662, Note_on_c, 1, 67, 0
1, 5664, Note_on_c, 0, 77, 75
1, 5664, Note_on_c, 1, 59, 64
1, 5694, Note_on_c, 1, 59, 0
1, 5696, Note_on_c, 1, 62, 64
1, 5703, Note_on_c, 0, 77, 0
1, 5726, Note_on_c, 1, 62, 0
1, 5728, Note_on_c, 1, 67, 64
1, 5758, Note_on_c, 1, 67, 0
1, 5760, Note_on_c, 0, 77, 75
1, 5760, Note_on_c, 1, 60, 64
1, 5790, Note_on_c, 1, 60, 0
1, 5792, Note_on_c, 1, 64, 65
1, 5822, Note_on_c, 1, 64, 0
1, 5824, Note_on_c, 1, 67, 66
1, 5849, Note_on_c, 0, 77, 0
1, 5854, Note_on_c, 1, 67, 0
1, 5856, Note_on_c, 0, 76, 76
1, 5856, Note_on_c, 1, 60, 67
1, 5886, Note_on_c, 1, 60, 0
1, 5888, Note_on_c, 1, 64, 68
1, 5918, Note_on_c, 1, 64, 0
1, 5920, Note_on_c, 1, 67, 69
1, 5945, Note_on_c, 0, 76, 0
1, 5950, Note_on_c, 1, 67, 0
1, 5952, Note_on_c, 0, 76, 77
1, 5952, Note_on_c, 1, 60, 70
1, 5982, Note_on_c, 1, 60, 0
1, 5984, Note_on_c, 1, 64, 71
1, 6014, Note_on_c, 1, 64, 0
1, 6016, Note_on_c, 1, 67, 72
1, 6041, Note_on_c, 0, 76, 0
1, 6046, Note_on_c, 1, 67, 0
1, 6048, Note_on_c, 0, 77, 78
1, 6048, Note_on_c, 1, 60, 73
1, 6063, Note_on_c, 0, 77, 0
1, 6064, Note_on_c, 0, 76, 79
1, 6078, Note_on_c, 1, 60, 0
1, 6079, Note_on_c, 0, 76, 0
1, 6080, Note_on_c, 0, 77, 78
1, 6080, Note_on_c, 1, 64, 74
1, 6095, Note_on_c, 0, 77, 0
1, 6096, Note_on_c, 0, 76, 78
1, 6110, Note_on_c, 1, 64, 0
1, 6111, Note_on_c, 0, 76, 0
1, 6112, Note_on_c, 0, 74, 78
1, 6112, Note_on_c, 1, 69, 74
1, 6127, Note_on_c, 0, 74, 0
1, 6128, Note_on_c, 0, 76, 78
1, 6142, Note_on_c, 1, 69, 0
1, 6143, Note_on_c, 0, 76, 0
1, 6144, Note_on_c, 0, 84, 78
1, 6144, Note_on_c, 1, 60, 73
1, 6174, Note_on_c, 0, 84, 0
1, 6174, Note_on_c, 1, 60, 0
1, 6176, Note_on_c, 0, 83, 77
1, 6176, Note_on_c, 1, 64, 71
1, 6206, Note_on_c, 0, 83, 0
1, 6206, Note_on_c, 1, 64, 0
1, 6208, Note_on_c, 0, 81, 77
1, 6208, Note_on_c, 1, 69, 70
1, 6238, Note_on_c, 0, 81, 0
1, 6238, Note_on_c, 1, 69, 0
1, 6240, Note_on_c, 0, 79, 76
1, 6240, Note_on_c, 1, 60, 69
1, 6270, Note_on_c, 0, 79, 0
1, 6270, Note_on_c, 1, 60, 0
1, 6272, Note_on_c, 0, 78, 76
1, 6272, Note_on_c, 1, 64, 68
1, 6302, Note_on_c, 0, 78, 0
1, 6302, Note_on_c, 1, 64, 0
1, 6304, Note_on_c, 0, 76, 75
1, 6304, Note_on_c, 1, 69, 66
1, 6334, Note_on_c, 0, 76, 0
1, 6334, Note_on_c, 1, 69, 0
1, 6336, Note_on_c, 0, 74, 75
1, 6336, Note_on_c, 1, 59, 64
1, 6366, Note_on_c, 0, 74, 0
1, 6368, Note_on_c, 0, 79, 75
1, 6398, Note_on_c, 0, 79, 0
1, 6400, Note_on_c, 0, 78, 75
1, 6425, Note_on_c, 1, 59, 0
1, 6430, Note_on_c, 0, 78, 0
1, 6432, Note_on_c, 0, 79, 76
1, 6462, Note_on_c, 0, 79, 0
1, 6464, Note_on_c, 0, 83, 76
1, 6494, Note_on_c, 0, 83, 0
1, 6496, Note_on_c, 0, 81, 77
1, 6526, Note_on_c, 0, 81, 0
1, 6528, Note_on_c, 0, 79, 77
1, 6558, Note_on_c, 0, 79, 0
1, 6560, Note_on_c, 0, 78, 77
1, 6590, Note_on_c, 0, 78, 0
1, 6592, Note_on_c, 0, 76, 78
1, 6622, Note_on_c, 0, 76, 0
1, 6624, Note_on_c, 0, 74, 79
1, 6624, Note_on_c, 1, 54, 70
1, 6654, Note_on_c, 1, 54, 0
1, 6656, Note_on_c, 1, 57, 70
1, 6686, Note_on_c, 1, 57, 0
1, 6688, Note_on_c, 1, 62, 70
1, 6713, Note_on_c, 0, 74, 0
1, 6718, Note_on_c, 1, 62, 0
1, 6720, Note_on_c, 0, 74, 79
1, 6720, Note_on_c, 1, 54, 70
1, 6735, Note_on_c, 0, 74, 0
1, 6736, Note_on_c, 0, 72, 79
1, 6750, Note_on_c, 1, 54, 0
1, 6751, Note_on_c, 0, 72, 0
1, 6752, Note_on_c, 0, 74, 79
1, 6752, Note_on_c, 1, 57, 70
1, 6767, Note_on_c, 0, 74, 0
1, 6768, Note_on_c, 0, 72, 79
1, 6782, Note_on_c, 1, 57, 0
1, 6783, Note_on_c, 0, 72, 0
1, 6784, Note_on_c, 0, 71, 79
1, 6784, Note_on_c, 1, 62, 70
1, 6799, Note_on_c, 0, 71, 0
1, 6800, Note_on_c, 0, 72, 79
1, 6814, Note_on_c, 1, 62, 0
1, 6815, Note_on_c, 0, 72, 0
1, 6816, Note_on_c, 0, 71, 79
1, 6816, Note_on_c, 1, 55, 70
1, 6846, Note_on_c, 1, 55, 0
1, 6848, Note_on_c, 1, 59, 70
1, 6878, Note_on_c, 1, 59, 0
1, 6880, Note_on_c, 1, 62, 70
1, 6883, Note_on_c, 0, 71, 0
1, 6888, Note_on_c, 0, 79, 79
1, 6910, Note_on_c, 1, 62, 0
1, 6911, Note_on_c, 0, 79, 0
1, 6912, Note_on_c, 0, 74, 70
1, 6912, Note_on_c, 1, 54, 58
1, 6942, Note_on_c, 1, 54, 0
1, 6944, Note_on_c, 1, 57, 58
1, 6974, Note_on_c, 1, 57, 0
1, 6976, Note_on_c, 1, 62, 58
1, 7001, Note_on_c, 0, 74, 0
1, 7006, Note_on_c, 1, 62, 0
1, 7008, Note_on_c, 0, 74, 70
1, 7008, Note_on_c, 1, 54, 58
1, 7023, Note_on_c, 0, 74, 0
1, 7024, Note_on_c, 0, 72, 70
1, 7038, Note_on_c, 1, 54, 0
1, 7039, Note_on_c, 0, 72, 0
1, 7040, Note_on_c, 0, 74, 70
1, 7040, Note_on_c, 1, 57, 58
1, 7055, Note_on_c, 0, 74, 0
1, 7056, Note_on_c, 0, 72, 70
1, 7070, Note_on_c, 1, 57, 0
1, 7071, Note_on_c, 0, 72, 0
1, 7072, Note_on_c, 0, 71, 70
1, 7072, Note_on_c, 1, 62, 58
1, 7087, Note_on_c, 0, 71, 0
1, 7088, Note_on_c, 0, 72, 70
1, 7102, Note_on_c, 1, 62, 0
1, 7103, Note_on_c, 0, 72, 0
1, 7104, Note_on_c, 0, 71, 70
1, 7104, Note_on_c, 1, 55, 58
1, 7134, Note_on_c, 1, 55, 0
1, 7136, Note_on_c, 1, 59, 58
1, 7166, Note_on_c, 1, 59, 0
1, 7168, Note_on_c, 1, 62, 58
1, 7193, Note_on_c, 0, 71, 0
1, 7198, Note_on_c, 1, 62, 0
1, 7200, Note_on_c, 0, 69, 79
1, 7200, Note_on_c, 1, 60, 58
1, 7230, Note_on_c, 0, 69, 0
1, 7232, Note_on_c, 0, 72, 78
1, 7262, Note_on_c, 0, 72, 0
1, 7264, Note_on_c, 0, 76, 78
1, 7289, Note_on_c, 1, 60, 0
1, 7294, Note_on_c, 0, 76, 0
1, 7296, Note_on_c, 0, 67, 77
1, 7296, Note_on_c, 1, 62, 58
1, 7385, Note_on_c, 0, 67, 0
1, 7385, Note_on_c, 1, 62, 0
1, 7392, Note_on_c, 0, 67, 76
1, 7392, Note_on_c, 1, 50, 58
1, 7407, Note_on_c, 0, 67, 0
1, 7408, Note_on_c, 0, 66, 76
1, 7423, Note_on_c, 0, 66, 0
1, 7424, Note_on_c, 0, 67, 76
1, 7439, Note_on_c, 0, 67, 0
1, 7440, Note_on_c, 0, 66, 75
1, 7455, Note_on_c, 0, 66, 0
1, 7456, Note_on_c, 0, 64, 75
1, 7471, Note_on_c, 0, 64, 0
1, 7472, Note_on_c, 0, 66, 75
1, 7481, Note_on_c, 1, 50, 0
1, 7487, Note_on_c, 0, 66, 0
1, 7488, Note_on_c, 0, 67, 75
1, 7488, Note_on_c, 1, 55, 58
1, 7577, Note_on_c, 1, 55, 0
1, 7584, Note_on_c, 1, 43, 58
1, 7665, Note_on_c, 0, 67, 0
1, 7673, Note_on_c, 1, 43, 0
1, 7680, Note_on_c, 0, 74, 75
1, 7769, Note_on_c, 0, 74, 0
1, 7776, Note_on_c, 0, 74, 75
1, 7776, Note_on_c, 1, 54, 64
1, 7806, Note_on_c, 1, 54, 0
1, 7808, Note_on_c, 1, 57, 64
1, 7838, Note_on_c, 1, 57, 0
1, 7840, Note_on_c, 1, 62, 64
1, 7865, Note_on_c, 0, 74, 0
1, 7870, Note_on_c, 1, 62, 0
1, 7872, Note_on_c, 0, 84, 75
1, 7872, Note_on_c, 1, 54, 64
1, 7902, Note_on_c, 1, 54, 0
1, 7904, Note_on_c, 1, 57, 64
1, 7934, Note_on_c, 1, 57, 0
1, 7936, Note_on_c, 1, 62, 64
1, 7961, Note_on_c, 0, 84, 0
1, 7966, Note_on_c, 1, 62, 0
1, 7968, Note_on_c, 0, 84, 75
1, 7968, Note_on_c, 1, 54, 64
1, 7998, Note_on_c, 1, 54, 0
1, 8000, Note_on_c, 1, 57, 64
1, 8030, Note_on_c, 1, 57, 0
1, 8032, Note_on_c, 1, 62, 64
1, 8057, Note_on_c, 0, 84, 0
1, 8062, Note_on_c, 1, 62, 0
1, 8064, Note_on_c, 0, 84, 75
1, 8064, Note_on_c, 1, 55, 64
1, 8094, Note_on_c, 1, 55, 0
1, 8096, Note_on_c, 1, 59, 64
1, 8126, Note_on_c, 1, 59, 0
1, 8128, Note_on_c, 1, 62, 64
1, 8158, Note_on_c, 1, 62, 0
1, 8160, Note_on_c, 0, 84, 0
1, 8160, Note_on_c, 0, 83, 75
1, 8160, Note_on_c, 1, 55, 64
1, 8190, Note_on_c, 1, 55, 0
1, 8192, Note_on_c, 1, 59, 64
1, 8222, Note_on_c, 1, 59, 0
1, 8224, Note_on_c, 1, 62, 64
1, 8249, Note_on_c, 0, 83, 0
1, 8254, Note_on_c, 1, 62, 0
1, 8256, Note_on_c, 0, 81, 75
1, 8256, Note_on_c, 1, 55, 64
1, 8279, Note_on_c, 0, 81, 0
1, 8280, Note_on_c, 0, 79, 75
1, 8286, Note_on_c, 1, 55, 0
1, 8288, Note_on_c, 1, 59, 64
1, 8303, Note_on_c, 0, 79, 0
1, 8304, Note_on_c, 0, 78, 75
1, 8318, Note_on_c, 1, 59, 0
1, 8320, Note_on_c, 1, 62, 64
1, 8327, Note_on_c, 0, 78, 0
1, 8328, Note_on_c, 0, 76, 75
1, 8350, Note_on_c, 1, 62, 0
1, 8351, Note_on_c, 0, 76, 0
1, 8352, Note_on_c, 0, 74, 75
1, 8352, Note_on_c, 1, 54, 64
1, 8382, Note_on_c, 1, 54, 0
1, 8384, Note_on_c, 1, 57, 64
1, 8414, Note_on_c, 1, 57, 0
1, 8416, Note_on_c, 1, 62, 64
1, 8441, Note_on_c, 0, 74, 0
1, 8446, Note_on_c, 1, 62, 0
1, 8448, Note_on_c, 0, 84, 75
1, 8448, Note_on_c, 1, 54, 64
1, 8478, Note_on_c, 1, 54, 0
1, 8480, Note_on_c, 1, 57, 64
1, 8510, Note_on_c, 1, 57, 0
1, 8512, Note_on_c, 1, 62, 64
1, 8537, Note_on_c, 0, 84, 0
1, 8542, Note_on_c, 1, 62, 0
1, 8544, Note_on_c, 0, 84, 75
1, 8544, Note_on_c, 1, 54, 64
1, 8574, Note_on_c, 1, 54, 0
1, 8576, Note_on_c, 1, 57, 64
1, 8606, Note_on_c, 1, 57, 0
1, 8608, Note_on_c, 1, 62, 64
1, 8633, Note_on_c, 0, 84, 0
1, 8638, Note_on_c, 1, 62, 0
1, 8640, Note_on_c, 0, 83, 75
1, 8640, Note_on_c, 1, 55, 75
1, 8670, Note_on_c, 0, 83, 0
1, 8672, Note_on_c, 0, 81, 75
1, 8702, Note_on_c, 0, 81, 0
1, 8704, Note_on_c, 0, 79, 75
1, 8729, Note_on_c, 1, 55, 0
1, 8734, Note_on_c, 0, 79, 0
1, 8736, Note_on_c, 0, 78, 76
1, 8736, Note_on_c, 1, 57, 76
1, 8766, Note_on_c, 0, 78, 0
1, 8768, Note_on_c, 0, 79, 76
1, 8798, Note_on_c, 0, 79, 0
1, 8800, Note_on_c, 0, 81, 77
1, 8825, Note_on_c, 1, 57, 0
1, 8830, Note_on_c, 0, 81, 0
1, 8832, Note_on_c, 0, 79, 77
1, 8832, Note_on_c, 1, 59, 77
1, 8899, Note_on_c, 0, 79, 0
1, 8904, Note_on_c, 0, 74, 78
1, 8921, Note_on_c, 1, 59, 0
1, 8927, Note_on_c, 0, 74, 0
1, 8928, Note_on_c, 0, 78, 78
1, 8928, Note_on_c, 1, 60, 79
1, 8951, Note_on_c, 0, 78, 0
1, 8952, Note_on_c, 0, 76, 78
1, 8975, Note_on_c, 0, 76, 0
1, 8976, Note_on_c, 0, 74, 78
1, 8999, Note_on_c, 0, 74, 0
1, 9000, Note_on_c, 0, 72, 78
1, 9017, Note_on_c, 1, 60, 0
1, 9023, Note_on_c, 0, 72, 0
1, 9024, Note_on_c, 0, 71, 77
1, 9024, Note_on_c, 1, 62, 77
1, 9113, Note_on_c, 0, 71, 0
1, 9113, Note_on_c, 1, 62, 0
1, 9120, Note_on_c, 0, 71, 76
1, 9120, Note_on_c, 1, 50, 76
1, 9135, Note_on_c, 0, 71, 0
1, 9136, Note_on_c, 0, 69, 76
1, 9151, Note_on_c, 0, 69, 0
1, 9152, Note_on_c, 0, 71, 76
1, 9167, Note_on_c, 0, 71, 0
1, 9168, Note_on_c, 0, 69, 76
1, 9183, Note_on_c, 0, 69, 0
1, 9184, Note_on_c, 0, 67, 75
1, 9199, Note_on_c, 0, 67, 0
1, 9200, Note_on_c, 0, 69, 75
1, 9209, Note_on_c, 1, 50, 0
1, 9215, Note_on_c, 0, 69, 0
1, 9216, Note_on_c, 0, 83, 75
1, 9216, Note_on_c, 1, 55, 75
1, 9246, Note_on_c, 0, 83, 0
1, 9248, Note_on_c, 0, 81, 75
1, 9278, Note_on_c, 0, 81, 0
1, 9280, Note_on_c, 0, 79, 75
1, 9305, Note_on_c, 1, 55, 0
1, 9310, Note_on_c, 0, 79, 0
1, 9312, Note_on_c, 0, 78, 76
1, 9312, Note_on_c, 1, 57, 76
1, 9342, Note_on_c, 0, 78, 0
1, 9344, Note_on_c, 0, 79, 76
1, 9374, Note_on_c, 0, 79, 0
1, 9376, Note_on_c, 0, 81, 77
1, 9401, Note_on_c, 1, 57, 0
1, 9406, Note_on_c, 0, 81, 0
1, 9408, Note_on_c, 0, 79, 77
1, 9408, Note_on_c, 1, 59, 77
1, 9475, Note_on_c, 0, 79, 0
1, 9480, Note_on_c, 0, 74, 78
1, 9497, Note_on_c, 1, 59, 0
1, 9503, Note_on_c, 0, 74, 0
1, 9504, Note_on_c, 0, 78, 78
1, 9504, Note_on_c, 1, 60, 79
1, 9527, Note_on_c, 0, 78, 0
1, 9528, Note_on_c, 0, 76, 78
1, 9551, Note_on_c, 0, 76, 0
1, 9552, Note_on_c, 0, 74, 78
1, 9575, Note_on_c, 0, 74, 0
1, 9576, Note_on_c, 0, 72, 78
1, 9593, Note_on_c, 1, 60, 0
1, 9599, Note_on_c, 0, 72, 0
1, 9600, Note_on_c, 0, 71, 77
1, 9600, Note_on_c, 1, 62, 77
1, 9689, Note_on_c, 0, 71, 0
1, 9689, Note_on_c, 1, 62, 0
1, 9696, Note_on_c, 0, 71, 76
1, 9696, Note_on_c, 1, 50, 76
1, 9711, Note_on_c, 0, 71, 0
1, 9712, Note_on_c, 0, 69, 76
1, 9727, Note_on_c, 0, 69, 0
1, 9728, Note_on_c, 0, 71, 76
1, 9743, Note_on_c, 0, 71, 0
1, 9744, Note_on_c, 0, 69, 76
1, 9759, Note_on_c, 0, 69, 0
1, 9760, Note_on_c, 0, 67, 75
1, 9775, Note_on_c, 0, 67, 0
1, 9776, Note_on_c, 0, 69, 75
1, 9785, Note_on_c, 1, 50, 0
1, 9791, Note_on_c, 0, 69, 0
1, 9792, Note_on_c, 0, 67, 64
1, 9792, Note_on_c, 1, 55, 64
1, 9881, Note_on_c, 0, 67, 0
1, 9881, Note_on_c, 1, 55, 0
1, 9888, Note_on_c, 0, 74, 67
1, 9918, Note_on_c, 0, 74, 0
1, 9920, Note_on_c, 0, 71, 68
1, 9950, Note_on_c, 0, 71, 0
1, 9952, Note_on_c, 0, 67, 69
1, 9982, Note_on_c, 0, 67, 0
1, 9984, Note_on_c, 0, 72, 71
1, 9984, Note_on_c, 1, 57, 71
1, 9984, Note_on_c, 1, 50, 71
1, 10014, Note_on_c, 0, 72, 0
1, 10016, Note_on_c, 0, 69, 72
1, 10046, Note_on_c, 0, 69, 0
1, 10048, Note_on_c, 0, 66, 73
1, 10073, Note_on_c, 1, 57, 0
1, 10073, Note_on_c, 1, 50, 0
1, 10078, Note_on_c, 0, 66, 0
1, 10080, Note_on_c, 0, 67, 74
1, 10080, Note_on_c, 1, 59, 75
1, 10080, Note_on_c, 1, 55, 75
1, 10169, Note_on_c, 0, 67, 0
1, 10169, Note_on_c, 1, 59, 0
1, 10169, Note_on_c, 1, 55, 0
1, 10176, Note_on_c, 0, 74, 70
1, 10206, Note_on_c, 0, 74, 0
1, 10208, Note_on_c, 0, 71, 68
1, 10238, Note_on_c, 0, 71, 0
1, 10240, Note_on_c, 0, 67, 66
1, 10270, Note_on_c, 0, 67, 0
1, 10272, Note_on_c, 0, 72, 64
1, 10272, Note_on_c, 1, 57, 63
1, 10272, Note_on_c, 1, 50, 63
1, 10302, Note_on_c, 0, 72, 0
1, 10304, Note_on_c, 0, 69, 62
1, 10334, Note_on_c, 0, 69, 0
1, 10336, Note_on_c, 0, 66, 61
1, 10361, Note_on_c, 1, 57, 0
1, 10361, Note_on_c, 1, 50, 0
1, 10366, Note_on_c, 0, 66, 0
1, 10368, Note_on_c, 0, 67, 58
1, 10368, Note_on_c, 1, 59, 58
1, 10368, Note_on_c, 1, 55, 58
1, 10457, Note_on_c, 0, 67, 0
1, 10457, Note_on_c, 1, 59, 0
1, 10457, Note_on_c, 1, 55, 0
1, 10560, Tempo, 387096
1, 10560, Note_on_c, 0, 79, 75
1, 10649, Note_on_c, 0, 79, 0
1, 10656, Note_on_c, 0, 81, 75
1, 10656, Note_on_c, 1, 60, 64
1, 10674, Note_on_c, 0, 81, 0
1, 10674, Note_on_c, 0, 79, 75
1, 10686, Note_on_c, 1, 60, 0
1, 10688, Note_on_c, 1, 64, 64
1, 10692, Note_on_c, 0, 79, 0
1, 10692, Note_on_c, 0, 78, 75
1, 10710, Note_on_c, 0, 78, 0
1, 10710, Note_on_c, 0, 79, 75
1, 10718, Note_on_c, 1, 64, 0
1, 10720, Note_on_c, 1, 67, 64
1, 10745, Note_on_c, 0, 79, 0
1, 10750, Note_on_c, 1, 67, 0
1, 10752, Note_on_c, 0, 76, 75
1, 10752, Note_on_c, 1, 60, 64
1, 10782, Note_on_c, 1, 60, 0
1, 10784, Note_on_c, 1, 64, 64
1, 10814, Note_on_c, 1, 64, 0
1, 10816, Note_on_c, 1, 67, 64
1, 10841, Note_on_c, 0, 76, 0
1, 10846, Note_on_c, 1, 67, 0
1, 10848, Note_on_c, 0, 79, 75
1, 10848, Note_on_c, 1, 60, 64
1, 10878, Note_on_c, 1, 60, 0
1, 10880, Note_on_c, 1, 64, 64
1, 10910, Note_on_c, 1, 64, 0
1, 10912, Note_on_c, 1, 67, 64
1, 10937, Note_on_c, 0, 79, 0
1, 10942, Note_on_c, 1, 67, 0
1, 10944, Note_on_c, 0, 81, 75
1, 10944, Note_on_c, 1, 60, 64
1, 10962, Note_on_c, 0, 81, 0
1, 10962, Note_on_c, 0, 79, 75
1, 10974, Note_on_c, 1, 60, 0
1, 10976, Note_on_c, 1, 64, 64
1, 10980, Note_on_c, 0, 79, 0
1, 10980, Note_on_c, 0, 78, 75
1, 10998, Note_on_c, 0, 78, 0
1, 10998, Note_on_c, 0, 79, 75
1, 11006, Note_on_c, 1, 64, 0
1, 11008, Note_on_c, 1, 67, 64
1, 11033, Note_on_c, 0, 79, 0
1, 11038, Note_on_c, 1, 67, 0
1, 11040, Note_on_c, 0, 84, 75
1, 11040, Note_on_c, 1, 60, 64
1, 11070, Note_on_c, 1, 60, 0
1, 11072, Note_on_c, 1, 64, 64
1, 11102, Note_on_c, 1, 64, 0
1, 11104, Note_on_c, 1, 67, 64
1, 11129, Note_on_c, 0, 84, 0
1, 11134, Note_on_c, 1, 67, 0
1, 11136, Note_on_c, 0, 79, 75
1, 11136, Note_on_c, 1, 60, 64
1, 11166, Note_on_c, 1, 60, 0
1, 11168, Note_on_c, 1, 64, 64
1, 11198, Note_on_c, 1, 64, 0
1, 11200, Note_on_c, 1, 67, 64
1, 11225, Note_on_c, 0, 79, 0
1, 11230, Note_on_c, 1, 67, 0
1, 11232, Note_on_c, 0, 79, 75
1, 11232, Note_on_c, 1, 59, 64
1, 11262, Note_on_c, 1, 59, 0
1, 11264, Note_on_c, 1, 62, 64
1, 11294, Note_on_c, 1, 62, 0
1, 11296, Note_on_c, 1, 67, 64
1, 11326, Note_on_c, 1, 67, 0
1, 11328, Note_on_c, 1, 59, 64
1, 11358, Note_on_c, 1, 59, 0
1, 11360, Note_on_c, 1, 62, 64
1, 11390, Note_on_c, 1, 62, 0
1, 11392, Note_on_c, 1, 67, 64
1, 11409, Note_on_c, 0, 79, 0
1, 11422, Note_on_c, 1, 67, 0
1, 11424, Note_on_c, 0, 79, 75
1, 11424, Note_on_c, 1, 59, 64
1, 11439, Note_on_c, 0, 79, 0
1, 11440, Note_on_c, 0, 77, 75
1, 11454, Note_on_c, 1, 59, 0
1, 11455, Note_on_c, 0, 77, 0
1, 11456, Note_on_c, 0, 79, 75
1, 11456, Note_on_c, 1, 62, 64
1, 11471, Note_on_c, 0, 79, 0
1, 11472, Note_on_c, 0, 77, 75
1, 11486, Note_on_c, 1, 62, 0
1, 11487, Note_on_c, 0, 77, 0
1, 11488, Note_on_c, 0, 79, 75
1, 11488, Note_on_c, 1, 67, 64
1, 11503, Note_on_c, 0, 79, 0
1, 11504, Note_on_c, 0, 77, 75
1, 11518, Note_on_c, 1, 67, 0
1, 11519, Note_on_c, 0, 77, 0
1, 11520, Note_on_c, 0, 76, 75
1, 11520, Note_on_c, 1, 60, 64
1, 11550, Note_on_c, 1, 60, 0
1, 11552, Note_on_c, 1, 64, 64
1, 11582, Note_on_c, 1, 64, 0
1, 11584, Note_on_c, 1, 67, 64
1, 11609, Note_on_c, 0, 76, 0
1, 11614, Note_on_c, 1, 67, 0
1, 11616, Note_on_c, 1, 60, 64
1, 11646, Note_on_c, 1, 60, 0
1, 11648, Note_on_c, 1, 64, 64
1, 11678, Note_on_c, 1, 64, 0
1, 11680, Note_on_c, 1, 67, 64
1, 11710, Note_on_c, 1, 67, 0
1, 11712, Note_on_c, 0, 72, 75
1, 11712, Note_on_c, 1, 60, 64
1, 11742, Note_on_c, 1, 60, 0
1, 11744, Note_on_c, 1, 64, 64
1, 11774, Note_on_c, 1, 64, 0
1, 11776, Note_on_c, 1, 67, 64
1, 11801, Note_on_c, 0, 72, 0
1, 11806, Note_on_c, 1, 67, 0
1, 11808, Note_on_c, 0, 72, 75
1, 11808, Note_on_c, 1, 62, 64
1, 11832, Note_on_c, 0, 72, 0
1, 11832, Note_on_c, 0, 71, 75
1, 11838, Note_on_c, 1, 62, 0
1, 11840, Note_on_c, 1, 65, 64
1, 11870, Note_on_c, 1, 65, 0
1, 11872, Note_on_c, 1, 67, 64
1, 11897, Note_on_c, 0, 71, 0
1, 11902, Note_on_c, 1, 67, 0
1, 11904, Note_on_c, 0, 71, 75
1, 11904, Note_on_c, 1, 62, 64
1, 11934, Note_on_c, 1, 62, 0
1, 11936, Note_on_c, 1, 65, 64
1, 11943, Note_on_c, 0, 71, 0
1, 11966, Note_on_c, 1, 65, 0
1, 11968, Note_on_c, 1, 67, 64
1, 11998, Note_on_c, 1, 67, 0
1, 12000, Note_on_c, 0, 71, 75
1, 12000, Note_on_c, 1, 62, 64
1, 12030, Note_on_c, 1, 62, 0
1, 12032, Note_on_c, 1, 65, 64
1, 12039, Note_on_c, 0, 71, 0
1, 12062, Note_on_c, 1, 65, 0
1, 12064, Note_on_c, 1, 67, 64
1, 12094, Note_on_c, 1, 67, 0
1, 12096, Note_on_c, 0, 74, 75
1, 12096, Note_on_c, 1, 60, 64
1, 12114, Note_on_c, 0, 74, 0
1, 12114, Note_on_c, 0, 72, 75
1, 12126, Note_on_c, 1, 60, 0
1, 12128, Note_on_c, 1, 64, 64
1, 12132, Note_on_c, 0, 72, 0
1, 12132, Note_on_c, 0, 71, 75
1, 12150, Note_on_c, 0, 71, 0
1, 12150, Note_on_c, 0, 72, 75
1, 12158, Note_on_c, 1, 64, 0
1, 12160, Note_on_c, 1, 67, 64
1, 12185, Note_on_c, 0, 72, 0
1, 12190, Note_on_c, 1, 67, 0
1, 12192, Note_on_c, 0, 76, 75
1, 12192, Note_on_c, 1, 60, 64
1, 12222, Note_on_c, 1, 60, 0
1, 12224, Note_on_c, 1, 64, 64
1, 12231, Note_on_c, 0, 76, 0
1, 12254, Note_on_c, 1, 64, 0
1, 12256, Note_on_c, 1, 67, 64
1, 12286, Note_on_c, 1, 67, 0
1, 12288, Note_on_c, 0, 76, 75
1, 12288, Note_on_c, 1, 60, 64
1, 12318, Note_on_c, 1, 60, 0
1, 12320, Note_on_c, 1, 64, 64
1, 12327, Note_on_c, 0, 76, 0
1, 12350, Note_on_c, 1, 64, 0
1, 12352, Note_on_c, 1, 67, 64
1, 12382, Note_on_c, 1, 67, 0
1, 12384, Note_on_c, 0, 76, 75
1, 12384, Note_on_c, 1, 59, 64
1, 12399, Note_on_c, 0, 76, 0
1, 12400, Note_on_c, 0, 74, 75
1, 12414, Note_on_c, 1, 59, 0
1, 12415, Note_on_c, 0, 74, 0
1, 12416, Note_on_c, 0, 76, 75
1, 12416, Note_on_c, 1, 62, 64
1, 12431, Note_on_c, 0, 76, 0
1, 12432, Note_on_c, 0, 74, 75
1, 12446, Note_on_c, 1, 62, 0
1, 12447, Note_on_c, 0, 74, 0
1, 12448, Note_on_c, 0, 72, 75
1, 12448, Note_on_c, 1, 67, 64
1, 12463, Note_on_c, 0, 72, 0
1, 12464, Note_on_c, 0, 74, 75
1, 12478, Note_on_c, 1, 67, 0
1, 12479, Note_on_c, 0, 74, 0
1, 12480, Note_on_c, 0, 77, 75
1, 12480, Note_on_c, 1, 59, 64
1, 12510, Note_on_c, 1, 59, 0
1, 12512, Note_on_c, 1, 62, 64
1, 12519, Note_on_c, 0, 77, 0
1, 12542, Note_on_c, 1, 62, 0
1, 12544, Note_on_c, 1, 67, 64
1, 12574, Note_on_c, 1, 67, 0
1, 12576, Note_on_c, 0, 77, 75
1, 12576, Note_on_c, 1, 59, 64
1, 12606, Note_on_c, 1, 59, 0
1, 12608, Note_on_c, 1, 62, 64
1, 12615, Note_on_c, 0, 77, 0
1, 12638, Note_on_c, 1, 62, 0
1, 12640, Note_on_c, 1, 67, 64
1, 12670, Note_on_c, 1, 67, 0
1, 12672, Note_on_c, 0, 77, 75
1, 12672, Note_on_c, 1, 60, 64
1, 12702, Note_on_c, 1, 60, 0
1, 12704, Note_on_c, 1, 64, 64
1, 12734, Note_on_c, 1, 64, 0
1, 12736, Note_on_c, 1, 67, 64
1, 12766, Note_on_c, 1, 67, 0
1, 12768, Note_on_c, 0, 77, 0
1, 12768, Note_on_c, 0, 76, 75
1, 12768, Note_on_c, 1, 60, 64
1, 12798, Note_on_c, 1, 60, 0
1, 12800, Note_on_c, 1, 64, 64
1, 12830, Note_on_c, 1, 64, 0
1, 12832, Note_on_c, 1, 67, 64
1, 12857, Note_on_c, 0, 76, 0
1, 12862, Note_on_c, 1, 67, 0
1, 12864, Note_on_c, 0, 72, 75
1, 12864, Note_on_c, 1, 60, 64
1, 12894, Note_on_c, 1, 60, 0
1, 12896, Note_on_c, 1, 64, 64
1, 12926, Note_on_c, 1, 64, 0
1, 12928, Note_on_c, 1, 67, 64
1, 12953, Note_on_c, 0, 72, 0
1, 12958, Note_on_c, 1, 67, 0
1, 12960, Note_on_c, 0, 72, 75
1, 12960, Note_on_c, 1, 62, 64
1, 12978, Note_on_c, 0, 72, 0
1, 12978, Note_on_c, 0, 71, 75
1, 12990, Note_on_c, 1, 62, 0
1, 12992, Note_on_c, 1, 65, 64
1, 13022, Note_on_c, 1, 65, 0
1, 13024, Note_on_c, 1, 67, 64
1, 13049, Note_on_c, 0, 71, 0
1, 13054, Note_on_c, 1, 67, 0
1, 13056, Note_on_c, 0, 71, 75
1, 13056, Note_on_c, 1, 62, 64
1, 13086, Note_on_c, 1, 62, 0
1, 13088, Note_on_c, 1, 65, 64
1, 13095, Note_on_c, 0, 71, 0
1, 13118, Note_on_c, 1, 65, 0
1, 13120, Note_on_c, 1, 67, 64
1, 13150, Note_on_c, 1, 67, 0
1, 13152, Note_on_c, 0, 71, 75
1, 13152, Note_on_c, 1, 62, 64
1, 13182, Note_on_c, 1, 62, 0
1, 13184, Note_on_c, 1, 65, 64
1, 13191, Note_on_c, 0, 71, 0
1, 13214, Note_on_c, 1, 65, 0
1, 13216, Note_on_c, 1, 67, 64
1, 13246, Note_on_c, 1, 67, 0
1, 13248, Note_on_c, 0, 72, 75
1, 13248, Note_on_c, 1, 64, 64
1, 13278, Note_on_c, 0, 72, 0
1, 13280, Note_on_c, 0, 76, 75
1, 13310, Note_on_c, 0, 76, 0
1, 13312, Note_on_c, 0, 74, 75
1, 13337, Note_on_c, 1, 64, 0
1, 13342, Note_on_c, 0, 74, 0
1, 13344, Note_on_c, 0, 72, 75
1, 13374, Note_on_c, 0, 72, 0
1, 13376, Note_on_c, 0, 71, 75
1, 13406, Note_on_c, 0, 71, 0
1, 13408, Note_on_c, 0, 69, 75
1, 13438, Note_on_c, 0, 69, 0
1, 13440, Note_on_c, 0, 67, 75
1, 13470, Note_on_c, 0, 67, 0
1, 13472, Note_on_c, 0, 65, 75
1, 13502, Note_on_c, 0, 65, 0
1, 13504, Note_on_c, 0, 64, 75
1, 13534, Note_on_c, 0, 64, 0
1, 13536, Note_on_c, 0, 65, 75
1, 13536, Note_on_c, 1, 62, 64
1, 13555, Note_on_c, 0, 65, 0
1, 13556, Note_on_c, 0, 67, 75
1, 13575, Note_on_c, 0, 67, 0
1, 13576, Note_on_c, 0, 65, 75
1, 13595, Note_on_c, 0, 65, 0
1, 13596, Note_on_c, 0, 67, 75
1, 13614, Note_on_c, 0, 67, 0
1, 13615, Note_on_c, 0, 65, 75
1, 13625, Note_on_c, 1, 62, 0
1, 13632, Note_on_c, 1, 59, 64
1, 13633, Note_on_c, 0, 65, 0
1, 13634, Note_on_c, 0, 67, 75
1, 13652, Note_on_c, 0, 67, 0
1, 13653, Note_on_c, 0, 65, 75
1, 13671, Note_on_c, 0, 65, 0
1, 13672, Note_on_c, 0, 67, 75
1, 13690, Note_on_c, 0, 67, 0
1, 13691, Note_on_c, 0, 65, 75
1, 13709, Note_on_c, 0, 65, 0
1, 13710, Note_on_c, 0, 67, 75
1, 13721, Note_on_c, 1, 59, 0
1, 13728, Note_on_c, 0, 67, 0
1, 13728, Note_on_c, 1, 55, 64
1, 13729, Note_on_c, 0, 65, 75
1, 13747, Note_on_c, 0, 65, 0
1, 13748, Note_on_c, 0, 67, 75
1, 13766, Note_on_c, 0, 67, 0
1, 13767, Note_on_c, 0, 65, 75
1, 13785, Note_on_c, 0, 65, 0
1, 13786, Note_on_c, 0, 64, 75
1, 13804, Note_on_c, 0, 64, 0
1, 13805, Note_on_c, 0, 65, 75
1, 13817, Note_on_c, 1, 55, 0
1, 13823, Note_on_c, 0, 65, 0
1, 13824, Note_on_c, 0, 64, 75
1, 13824, Note_on_c, 1, 60, 64
1, 13913, Note_on_c, 0, 64, 0
1, 13913, Note_on_c, 1, 60, 0
1, 13920, Note_on_c, 1, 48, 64
1, 14009, Note_on_c, 1, 48, 0
1, 14016, Note_on_c, 0, 79, 75
1, 14105, Note_on_c, 0, 79, 0
1, 14112, Note_on_c, 0, 81, 75
1, 14112, Note_on_c, 1, 60, 64
1, 14130, Note_on_c, 0, 81, 0
1, 14130, Note_on_c, 0, 79, 75
1, 14142, Note_on_c, 1, 60, 0
1, 14144, Note_on_c, 1, 64, 64
1, 14148, Note_on_c, 0, 79, 0
1, 14148, Note_on_c, 0, 78, 75
1, 14166, Note_on_c, 0, 78, 0
1, 14166, Note_on_c, 0, 79, 75
1, 14174, Note_on_c, 1, 64, 0
1, 14176, Note_on_c, 1, 67, 64
1, 14201, Note_on_c, 0, 79, 0
1, 14206, Note_on_c, 1, 67, 0
1, 14208, Note_on_c, 0, 76, 75
1, 14208, Note_on_c, 1, 60, 64
1, 14238, Note_on_c, 1, 60, 0
1, 14240, Note_on_c, 1, 64, 64
1, 14270, Note_on_c, 1, 64, 0
1, 14272, Note_on_c, 1, 67, 64
1, 14297, Note_on_c, 0, 76, 0
1, 14302, Note_on_c, 1, 67, 0
1, 14304, Note_on_c, 0, 79, 75
1, 14304, Note_on_c, 1, 60, 64
1, 14334, Note_on_c, 1, 60, 0
1, 14336, Note_on_c, 1, 64, 64
1, 14366, Note_on_c, 1, 64, 0
1, 14368, Note_on_c, 1, 67, 64
1, 14393, Note_on_c, 0, 79, 0
1, 14398, Note_on_c, 1, 67, 0
1, 14400, Note_on_c, 0, 81, 75
1, 14400, Note_on_c, 1, 60, 64
1, 14418, Note_on_c, 0, 81, 0
1, 14418, Note_on_c, 0, 79, 75
1, 14430, Note_on_c, 1, 60, 0
1, 14432, Note_on_c, 1, 64, 64
1, 14436, Note_on_c, 0, 79, 0
1, 14436, Note_on_c, 0, 78, 75
1, 14454, Note_on_c, 0, 78, 0
1, 14454, Note_on_c, 0, 79, 75
1, 14462, Note_on_c, 1, 64, 0
1, 14464, Note_on_c, 1, 67, 64
1, 14489, Note_on_c, 0, 79, 0
1, 14494, Note_on_c, 1, 67, 0
1, 14496, Note_on_c, 0, 84, 75
1, 14496, Note_on_c, 1, 60, 64
1, 14526, Note_on_c, 1, 60, 0
1, 14528, Note_on_c, 1, 64, 64
1, 14558, Note_on_c, 1, 64, 0
1, 14560, Note_on_c, 1, 67, 64
1, 14585, Note_on_c, 0, 84, 0
1, 14590, Note_on_c, 1, 67, 0
1, 14592, Note_on_c, 0, 79, 75
1, 14592, Note_on_c, 1, 60, 64
1, 14622, Note_on_c, 1, 60, 0
1, 14624, Note_on_c, 1, 64, 64
1, 14654, Note_on_c, 1, 64, 0
1, 14656, Note_on_c, 1, 67, 64
1, 14681, Note_on_c, 0, 79, 0
1, 14686, Note_on_c, 1, 67, 0
1, 14688, Note_on_c, 0, 79, 75
1, 14688, Note_on_c, 1, 59, 64
1, 14718, Note_on_c, 1, 59, 0
1, 14720, Note_on_c, 1, 62, 64
1, 14750, Note_on_c, 1, 62, 0
1, 14752, Note_on_c, 1, 67, 64
1, 14782, Note_on_c, 1, 67, 0
1, 14784, Note_on_c, 1, 59, 64
1, 14814, Note_on_c, 1, 59, 0
1, 14816, Note_on_c, 1, 62, 64
1, 14846, Note_on_c, 1, 62, 0
1, 14848, Note_on_c, 1, 67, 64
1, 14865, Note_on_c, 0, 79, 0
1, 14878, Note_on_c, 1, 67, 0
1, 14880, Note_on_c, 0, 79, 75
1, 14880, Note_on_c, 1, 59, 64
1, 14895, Note_on_c, 0, 79, 0
1, 14896, Note_on_c, 0, 77, 75
1, 14910, Note_on_c, 1, 59, 0
1, 14911, Note_on_c, 0, 77, 0
1, 14912, Note_on_c, 0, 79, 75
1, 14912, Note_on_c, 1, 62, 64
1, 14927, Note_on_c, 0, 79, 0
1, 14928, Note_on_c, 0, 77, 75
1, 14942, Note_on_c, 1, 62, 0
1, 14943, Note_on_c, 0, 77, 0
1, 14944, Note_on_c, 0, 79, 75
1, 14944, Note_on_c, 1, 67, 64
1, 14959, Note_on_c, 0, 79, 0
1, 14960, Note_on_c, 0, 77, 75
1, 14974, Note_on_c, 1, 67, 0
1, 14975, Note_on_c, 0, 77, 0
1, 14976, Note_on_c, 0, 76, 75
1, 14976, Note_on_c, 1, 60, 64
1, 15006, Note_on_c, 1, 60, 0
1, 15008, Note_on_c, 1, 64, 64
1, 15038, Note_on_c, 1, 64, 0
1, 15040, Note_on_c, 1, 67, 64
1, 15065, Note_on_c, 0, 76, 0
1, 15070, Note_on_c, 1, 67, 0
1, 15072, Note_on_c, 1, 60, 64
1, 15102, Note_on_c, 1, 60, 0
1, 15104, Note_on_c, 1, 64, 64
1, 15134, Note_on_c, 1, 64, 0
1, 15136, Note_on_c, 1, 67, 64
1, 15166, Note_on_c, 1, 67, 0
1, 15168, Note_on_c, 0, 72, 75
1, 15168, Note_on_c, 1, 60, 64
1, 15198, Note_on_c, 1, 60, 0
1, 15200, Note_on_c, 1, 64, 64
1, 15230, Note_on_c, 1, 64, 0
1, 15232, Note_on_c, 1, 67, 64
1, 15257, Note_on_c, 0, 72, 0
1, 15262, Note_on_c, 1, 67, 0
1, 15264, Note_on_c, 0, 72, 75
1, 15264, Note_on_c, 1, 62, 64
1, 15282, Note_on_c, 0, 72, 0
1, 15282, Note_on_c, 0, 71, 75
1, 15294, Note_on_c, 1, 62, 0
1, 15296, Note_on_c, 1, 65, 64
1, 15326, Note_on_c, 1, 65, 0
1, 15328, Note_on_c, 1, 67, 64
1, 15353, Note_on_c, 0, 71, 0
1, 15358, Note_on_c, 1, 67, 0
1, 15360, Note_on_c, 0, 71, 75
1, 15360, Note_on_c, 1, 62, 64
1, 15390, Note_on_c, 1, 62, 0
1, 15392, Note_on_c, 1, 65, 64
1, 15399, Note_on_c, 0, 71, 0
1, 15422, Note_on_c, 1, 65, 0
1, 15424, Note_on_c, 1, 67, 64
1, 15454, Note_on_c, 1, 67, 0
1, 15456, Note_on_c, 0, 71, 75
1, 15456, Note_on_c, 1, 62, 64
1, 15486, Note_on_c, 1, 62, 0
1, 15488, Note_on_c, 1, 65, 64
1, 15495, Note_on_c, 0, 71, 0
1, 15518, Note_on_c, 1, 65, 0
1, 15520, Note_on_c, 1, 67, 64
1, 15550, Note_on_c, 1, 67, 0
1, 15552, Note_on_c, 0, 74, 75
1, 15552, Note_on_c, 1, 60, 64
1, 15570, Note_on_c, 0, 74, 0
1, 15570, Note_on_c, 0, 72, 75
1, 15582, Note_on_c, 1, 60, 0
1, 15584, Note_on_c, 1, 64, 64
1, 15588, Note_on_c, 0, 72, 0
1, 15588, Note_on_c, 0, 71, 75
1, 15606, Note_on_c, 0, 71, 0
1, 15606, Note_on_c, 0, 72, 75
1, 15614, Note_on_c, 1, 64, 0
1, 15616, Note_on_c, 1, 67, 64
1, 15641, Note_on_c, 0, 72, 0
1, 15646, Note_on_c, 1, 67, 0
1, 15648, Note_on_c, 0, 76, 75
1, 15648, Note_on_c, 1, 60, 64
1, 15678, Note_on_c, 1, 60, 0
1, 15680, Note_on_c, 1, 64, 64
1, 15687, Note_on_c, 0, 76, 0
1, 15710, Note_on_c, 1, 64, 0
1, 15712, Note_on_c, 1, 67, 64
1, 15742, Note_on_c, 1, 67, 0
1, 15744, Note_on_c, 0, 76, 75
1, 15744, Note_on_c, 1, 60, 64
1, 15774, Note_on_c, 1, 60, 0
1, 15776, Note_on_c, 1, 64, 64
1, 15783, Note_on_c, 0, 76, 0
1, 15806, Note_on_c, 1, 64, 0
1, 15808, Note_on_c, 1, 67, 64
1, 15838, Note_on_c, 1, 67, 0
1, 15840, Note_on_c, 0, 76, 75
1, 15840, Note_on_c, 1, 59, 64
1, 15855, Note_on_c, 0, 76, 0
1, 15856, Note_on_c, 0, 74, 75
1, 15870, Note_on_c, 1, 59, 0
1, 15871, Note_on_c, 0, 74, 0
1, 15872, Note_on_c, 0, 76, 75
1, 15872, Note_on_c, 1, 62, 64
1, 15887, Note_on_c, 0, 76, 0
1, 15888, Note_on_c, 0, 74, 75
1, 15902, Note_on_c, 1, 62, 0
1, 15903, Note_on_c, 0, 74, 0
1, 15904, Note_on_c, 0, 72, 75
1, 15904, Note_on_c, 1, 67, 64
1, 15919, Note_on_c, 0, 72, 0
1, 15920, Note_on_c, 0, 74, 75
1, 15934, Note_on_c, 1, 67, 0
1, 15935, Note_on_c, 0, 74, 0
1, 15936, Note_on_c, 0, 77, 75
1, 15936, Note_on_c, 1, 59, 64
1, 15966, Note_on_c, 1, 59, 0
1, 15968, Note_on_c, 1, 62, 64
1, 15975, Note_on_c, 0, 77, 0
1, 15998, Note_on_c, 1, 62, 0
1, 16000, Note_on_c, 1, 67, 64
1, 16030, Note_on_c, 1, 67, 0
1, 16032, Note_on_c, 0, 77, 75
1, 16032, Note_on_c, 1, 59, 64
1, 16062, Note_on_c, 1, 59, 0
1, 16064, Note_on_c, 1, 62, 64
1, 16071, Note_on_c, 0, 77, 0
1, 16094, Note_on_c, 1, 62, 0
1, 16096, Note_on_c, 1, 67, 64
1, 16126, Note_on_c, 1, 67, 0
1, 16128, Note_on_c, 0, 77, 75
1, 16128, Note_on_c, 1, 60, 64
1, 16158, Note_on_c, 1, 60, 0
1, 16160, Note_on_c, 1, 64, 65
1, 16190, Note_on_c, 1, 64, 0
1, 16192, Note_on_c, 1, 67, 66
1, 16217, Note_on_c, 0, 77, 0
1, 16222, Note_on_c, 1, 67, 0
1, 16224, Note_on_c, 0, 76, 76
1, 16224, Note_on_c, 1, 60, 67
1, 16254, Note_on_c, 1, 60, 0
1, 16256, Note_on_c, 1, 64, 68
1, 16286, Note_on_c, 1, 64, 0
1, 16288, Note_on_c, 1, 67, 69
1, 16313, Note_on_c, 0, 76, 0
1, 16318, Note_on_c, 1, 67, 0
1, 16320, Note_on_c, 0, 76, 77
1, 16320, Note_on_c, 1, 60, 70
1, 16350, Note_on_c, 1, 60, 0
1, 16352, Note_on_c, 1, 64, 71
1, 16382, Note_on_c, 1, 64, 0
1, 16384, Note_on_c, 1, 67, 72
1, 16409, Note_on_c, 0, 76, 0
1, 16414, Note_on_c, 1, 67, 0
1, 16416, Note_on_c, 0, 77, 78
1, 16416, Note_on_c, 1, 60, 73
1, 16431, Note_on_c, 0, 77, 0
1, 16432, Note_on_c, 0, 76, 79
1, 16446, Note_on_c, 1, 60, 0
1, 16447, Note_on_c, 0, 76, 0
1, 16448, Note_on_c, 0, 77, 78
1, 16448, Note_on_c, 1, 64, 74
1, 16463, Note_on_c, 0, 77, 0
1, 16464, Note_on_c, 0, 76, 78
1, 16478, Note_on_c, 1, 64, 0
1, 16479, Note_on_c, 0, 76, 0
1, 16480, Note_on_c, 0, 74, 78
1, 16480, Note_on_c, 1, 69, 74
1, 16495, Note_on_c, 0, 74, 0
1, 16496, Note_on_c, 0, 76, 78
1, 16510, Note_on_c, 1, 69, 0
1, 16511, Note_on_c, 0, 76, 0
1, 16512, Note_on_c, 0, 84, 78
1, 16512, Note_on_c, 1, 60, 73
1, 16542, Note_on_c, 0, 84, 0
1, 16542, Note_on_c, 1, 60, 0
1, 16544, Note_on_c, 0, 83, 77
1, 16544, Note_on_c, 1, 64, 71
1, 16574, Note_on_c, 0, 83, 0
1, 16574, Note_on_c, 1, 64, 0
1, 16576, Note_on_c, 0, 81, 77
1, 16576, Note_on_c, 1, 69, 70
1, 16606, Note_on_c, 0, 81, 0
1, 16606, Note_on_c, 1, 69, 0
1, 16608, Note_on_c, 0, 79, 76
1, 16608, Note_on_c, 1, 60, 69
1, 16638, Note_on_c, 0, 79, 0
1, 16638, Note_on_c, 1, 60, 0
1, 16640, Note_on_c, 0, 78, 76
1, 16640, Note_on_c, 1, 64, 68
1, 16670, Note_on_c, 0, 78, 0
1, 16670, Note_on_c, 1, 64, 0
1, 16672, Note_on_c, 0, 76, 75
1, 16672, Note_on_c, 1, 69, 66
1, 16702, Note_on_c, 0, 76, 0
1, 16702, Note_on_c, 1, 69, 0
1, 16704, Note_on_c, 0, 74, 75
1, 16704, Note_on_c, 1, 59, 64
1, 16734, Note_on_c, 0, 74, 0
1, 16736, Note_on_c, 0, 79, 75
1, 16766, Note_on_c, 0, 79, 0
1, 16768, Note_on_c, 0, 78, 75
1, 16793, Note_on_c, 1, 59, 0
1, 16798, Note_on_c, 0, 78, 0
1, 16800, Note_on_c, 0, 79, 76
1, 16830, Note_on_c, 0, 79, 0
1, 16832, Note_on_c, 0, 83, 76
1, 16862, Note_on_c, 0, 83, 0
1, 16864, Note_on_c, 0, 81, 77
1, 16894, Note_on_c, 0, 81, 0
1, 16896, Note_on_c, 0, 79, 77
1, 16926, Note_on_c, 0, 79, 0
1, 16928, Note_on_c, 0, 78, 77
1, 16958, Note_on_c, 0, 78, 0
1, 16960, Note_on_c, 0, 76, 78
1, 16990, Note_on_c, 0, 76, 0
1, 16992, Note_on_c, 0, 74, 79
1, 16992, Note_on_c, 1, 54, 70
1, 17022, Note_on_c, 1, 54, 0
1, 17024, Note_on_c, 1, 57, 70
1, 17054, Note_on_c, 1, 57, 0
1, 17056, Note_on_c, 1, 62, 70
1, 17081, Note_on_c, 0, 74, 0
1, 17086, Note_on_c, 1, 62, 0
1, 17088, Note_on_c, 0, 74, 79
1, 17088, Note_on_c, 1, 54, 70
1, 17103, Note_on_c, 0, 74, 0
1, 17104, Note_on_c, 0, 72, 79
1, 17118, Note_on_c, 1, 54, 0
1, 17119, Note_on_c, 0, 72, 0
1, 17120, Note_on_c, 0, 74, 79
1, 17120, Note_on_c, 1, 57, 70
1, 17135, Note_on_c, 0, 74, 0
1, 17136, Note_on_c, 0, 72, 79
1, 17150, Note_on_c, 1, 57, 0
1, 17151, Note_on_c, 0, 72, 0
1, 17152, Note_on_c, 0, 71, 79
1, 17152, Note_on_c, 1, 62, 70
1, 17167, Note_on_c, 0, 71, 0
1, 17168, Note_on_c, 0, 72, 79
1, 17182, Note_on_c, 1, 62, 0
1, 17183, Note_on_c, 0, 72, 0
1, 17184, Note_on_c, 0, 71, 79
1, 17184, Note_on_c, 1, 55, 70
1, 17214, Note_on_c, 1, 55, 0
1, 17216, Note_on_c, 1, 59, 70
1, 17246, Note_on_c, 1, 59, 0
1, 17248, Note_on_c, 1, 62, 70
1, 17251, Note_on_c, 0, 71, 0
1, 17256, Note_on_c, 0, 79, 79
1, 17278, Note_on_c, 1, 62, 0
1, 17279, Note_on_c, 0, 79, 0
1, 17280, Note_on_c, 0, 74, 70
1, 17280, Note_on_c, 1, 54, 58
1, 17310, Note_on_c, 1, 54, 0
1, 17312, Note_on_c, 1, 57, 58
1, 17342, Note_on_c, 1, 57, 0
1, 17344, Note_on_c, 1, 62, 58
1, 17369, Note_on_c, 0, 74, 0
1, 17374, Note_on_c, 1, 62, 0
1, 17376, Note_on_c, 0, 74, 70
1, 17376, Note_on_c, 1, 54, 58
1, 17391, Note_on_c, 0, 74, 0
1, 17392, Note_on_c, 0, 72, 70
1, 17406, Note_on_c, 1, 54, 0
1, 17407, Note_on_c, 0, 72, 0
1, 17408, Note_on_c, 0, 74, 70
1, 17408, Note_on_c, 1, 57, 58
1, 17423, Note_on_c, 0, 74, 0
1, 17424, Note_on_c, 0, 72, 70
1, 17438, Note_on_c, 1, 57, 0
1, 17439, Note_on_c, 0, 72, 0
1, 17440, Note_on_c, 0, 71, 70
1, 17440, Note_on_c, 1, 62, 58
1, 17455, Note_on_c, 0, 71, 0
1, 17456, Note_on_c, 0, 72, 70
1, 17470, Note_on_c, 1, 62, 0
1, 17471, Note_on_c, 0, 72, 0
1, 17472, Note_on_c, 0, 71, 70
1, 17472, Note_on_c, 1, 55, 58
1, 17502, Note_on_c, 1, 55, 0
1, 17504, Note_on_c, 1, 59, 58
1, 17534, Note_on_c, 1, 59, 0
1, 17536, Note_on_c, 1, 62, 58
1, 17561, Note_on_c, 0, 71, 0
1, 17566, Note_on_c, 1, 62, 0
1, 17568, Note_on_c, 0, 69, 79
1, 17568, Note_on_c, 1, 60, 58
1, 17598, Note_on_c, 0, 69, 0
1, 17600, Note_on_c, 0, 72, 78
1, 17630, Note_on_c, 0, 72, 0
1, 17632, Note_on_c, 0, 76, 78
1, 17657, Note_on_c, 1, 60, 0
1, 17662, Note_on_c, 0, 76, 0
1, 17664, Note_on_c, 0, 67, 77
1, 17664, Note_on_c, 1, 62, 58
1, 17753, Note_on_c, 0, 67, 0
1, 17753, Note_on_c, 1, 62, 0
1, 17760, Note_on_c, 0, 67, 76
1, 17760, Note_on_c, 1, 50, 58
1, 17775, Note_on_c, 0, 67, 0
1, 17776, Note_on_c, 0, 66, 76
1, 17791, Note_on_c, 0, 66, 0
1, 17792, Note_on_c, 0, 67, 76
1, 17807, Note_on_c, 0, 67, 0
1, 17808, Note_on_c, 0, 66, 75
1, 17823, Note_on_c, 0, 66, 0
1, 17824, Note_on_c, 0, 64, 75
1, 17839, Note_on_c, 0, 64, 0
1, 17840, Note_on_c, 0, 66, 75
1, 17849, Note_on_c, 1, 50, 0
1, 17855, Note_on_c, 0, 66, 0
1, 17856, Note_on_c, 0, 67, 75
1, 17856, Note_on_c, 1, 55, 58
1, 17945, Note_on_c, 1, 55, 0
1, 17952, Note_on_c, 1, 43, 58
1, 18033, Note_on_c, 0, 67, 0
1, 18041, Note_on_c, 1, 43, 0
1, 18048, Note_on_c, 0, 74, 75
1, 18137, Note_on_c, 0, 74, 0
1, 18144, Note_on_c, 0, 74, 75
1, 18144, Note_on_c, 1, 54, 64
1, 18174, Note_on_c, 1, 54, 0
1, 18176, Note_on_c, 1, 57, 64
1, 18206, Note_on_c, 1, 57, 0
1, 18208, Note_on_c, 1, 62, 64
1, 18233, Note_on_c, 0, 74, 0
1, 18238, Note_on_c, 1, 62, 0
1, 18240, Note_on_c, 0, 84, 75
1, 18240, Note_on_c, 1, 54, 64
1, 18270, Note_on_c, 1, 54, 0
1, 18272, Note_on_c, 1, 57, 64
1, 18302, Note_on_c, 1, 57, 0
1, 18304, Note_on_c, 1, 62, 64
1, 18329, Note_on_c, 0, 84, 0
1, 18334, Note_on_c, 1, 62, 0
1, 18336, Note_on_c, 0, 84, 75
1, 18336, Note_on_c, 1, 54, 64
1, 18366, Note_on_c, 1, 54, 0
1, 18368, Note_on_c, 1, 57, 64
1, 18398, Note_on_c, 1, 57, 0
1, 18400, Note_on_c, 1, 62, 64
1, 18425, Note_on_c, 0, 84, 0
1, 18430, Note_on_c, 1, 62, 0
1, 18432, Note_on_c, 0, 84, 75
1, 18432, Note_on_c, 1, 55, 64
1, 18462, Note_on_c, 1, 55, 0
1, 18464, Note_on_c, 1, 59, 64
1, 18494, Note_on_c, 1, 59, 0
1, 18496, Note_on_c, 1, 62, 64
1, 18526, Note_on_c, 1, 62, 0
1, 18528, Note_on_c, 0, 84, 0
1, 18528, Note_on_c, 0, 83, 75
1, 18528, Note_on_c, 1, 55, 64
1, 18558, Note_on_c, 1, 55, 0
1, 18560, Note_on_c, 1, 59, 64
1, 18590, Note_on_c, 1, 59, 0
1, 18592, Note_on_c, 1, 62, 64
1, 18617, Note_on_c, 0, 83, 0
1, 18622, Note_on_c, 1, 62, 0
1, 18624, Note_on_c, 0, 81, 75
1, 18624, Note_on_c, 1, 55, 64
1, 18647, Note_on_c, 0, 81, 0
1, 18648, Note_on_c, 0, 79, 75
1, 18654, Note_on_c, 1, 55, 0
1, 18656, Note_on_c, 1, 59, 64
1, 18671, Note_on_c, 0, 79, 0
1, 18672, Note_on_c, 0, 78, 75
1, 18686, Note_on_c, 1, 59, 0
1, 18688, Note_on_c, 1, 62, 64
1, 18695, Note_on_c, 0, 78, 0
1, 18696, Note_on_c, 0, 76, 75
1, 18718, Note_on_c, 1, 62, 0
1, 18719, Note_on_c, 0, 76, 0
1, 18720, Note_on_c, 0, 74, 75
1, 18720, Note_on_c, 1, 54, 64
1, 18750, Note_on_c, 1, 54, 0
1, 18752, Note_on_c, 1, 57, 64
1, 18782, Note_on_c, 1, 57, 0
1, 18784, Note_on_c, 1, 62, 64
1, 18809, Note_on_c, 0, 74, 0
1, 18814, Note_on_c, 1, 62, 0
1, 18816, Note_on_c, 0, 84, 75
1, 18816, Note_on_c, 1, 54, 64
1, 18846, Note_on_c, 1, 54, 0
1, 18848, Note_on_c, 1, 57, 64
1, 18878, Note_on_c, 1, 57, 0
1, 18880, Note_on_c, 1, 62, 64
1, 18905, Note_on_c, 0, 84, 0
1, 18910, Note_on_c, 1, 62, 0
1, 18912, Note_on_c, 0, 84, 75
1, 18912, Note_on_c, 1, 54, 64
1, 18942, Note_on_c, 1, 54, 0
1, 18944, Note_on_c, 1, 57, 64
1, 18974, Note_on_c, 1, 57, 0
1, 18976, Note_on_c, 1, 62, 64
1, 19001, Note_on_c, 0, 84, 0
1, 19006, Note_on_c, 1, 62, 0
1, 19008, Note_on_c, 0, 83, 75
1, 19008, Note_on_c, 1, 55, 75
1, 19038, Note_on_c, 0, 83, 0
1, 19040, Note_on_c, 0, 81, 75
1, 19070, Note_on_c, 0, 81, 0
1, 19072, Note_on_c, 0, 79, 75
1, 19097, Note_on_c, 1, 55, 0
1, 19102, Note_on_c, 0, 79, 0
1, 19104, Note_on_c, 0, 78, 76
1, 19104, Note_on_c, 1, 57, 76
1, 19134, Note_on_c, 0, 78, 0
1, 19136, Note_on_c, 0, 79, 76
1, 19166, Note_on_c, 0, 79, 0
1, 19168, Note_on_c, 0, 81, 77
1, 19193, Note_on_c, 1, 57, 0
1, 19198, Note_on_c, 0, 81, 0
1, 19200, Note_on_c, 0, 79, 77
1, 19200, Note_on_c, 1, 59, 77
1, 19267, Note_on_c, 0, 79, 0
1, 19272, Note_on_c, 0, 74, 78
1, 19289, Note_on_c, 1, 59, 0
1, 19295, Note_on_c, 0, 74, 0
1, 19296, Note_on_c, 0, 78, 78
1, 19296, Note_on_c, 1, 60, 79
1, 19319, Note_on_c, 0, 78, 0
1, 19320, Note_on_c, 0, 76, 78
1, 19343, Note_on_c, 0, 76, 0
1, 19344, Note_on_c, 0, 74, 78
1, 19367, Note_on_c, 0, 74, 0
1, 19368, Note_on_c, 0, 72, 78
1, 19385, Note_on_c, 1, 60, 0
1, 19391, Note_on_c, 0, 72, 0
1, 19392, Note_on_c, 0, 71, 77
1, 19392, Note_on_c, 1, 62, 77
1, 19481, Note_on_c, 0, 71, 0
1, 19481, Note_on_c, 1, 62, 0
1, 19488, Note_on_c, 0, 71, 76
1, 19488, Note_on_c, 1, 50, 76
1, 19503, Note_on_c, 0, 71, 0
1, 19504, Note_on_c, 0, 69, 76
1, 19519, Note_on_c, 0, 69, 0
1, 19520, Note_on_c, 0, 71, 76
1, 19535, Note_on_c, 0, 71, 0
1, 19536, Note_on_c, 0, 69, 76
1, 19551, Note_on_c, 0, 69, 0
1, 19552, Note_on_c, 0, 67, 75
1, 19567, Note_on_c, 0, 67, 0
1, 19568, Note_on_c, 0, 69, 75
1, 19577, Note_on_c, 1, 50, 0
1, 19583, Note_on_c, 0, 69, 0
1, 19584, Note_on_c, 0, 83, 75
1, 19584, Note_on_c, 1, 55, 75
1, 19614, Note_on_c, 0, 83, 0
1, 19616, Note_on_c, 0, 81, 75
1, 19646, Note_on_c, 0, 81, 0
1, 19648, Note_on_c, 0, 79, 75
1, 19673, Note_on_c, 1, 55, 0
1, 19678, Note_on_c, 0, 79, 0
1, 19680, Note_on_c, 0, 78, 76
1, 19680, Note_on_c, 1, 57, 76
1, 19710, Note_on_c, 0, 78, 0
1, 19712, Note_on_c, 0, 79, 76
1, 19742, Note_on_c, 0, 79, 0
1, 19744, Note_on_c, 0, 81, 77
1, 19769, Note_on_c, 1, 57, 0
1, 19774, Note_on_c, 0, 81, 0
1, 19776, Note_on_c, 0, 79, 77
1, 19776, Note_on_c, 1, 59, 77
1, 19843, Note_on_c, 0, 79, 0
1, 19848, Note_on_c, 0, 74, 78
1, 19865, Note_on_c, 1, 59, 0
1, 19871, Note_on_c, 0, 74, 0
1, 19872, Note_on_c, 0, 78, 78
1, 19872, Note_on_c, 1, 60, 79
1, 19895, Note_on_c, 0, 78, 0
1, 19896, Note_on_c, 0, 76, 78
1, 19919, Note_on_c, 0, 76, 0
1, 19920, Note_on_c, 0, 74, 78
1, 19943, Note_on_c, 0, 74, 0
1, 19944, Note_on_c, 0, 72, 78
1, 19961, Note_on_c, 1, 60, 0
1, 19967, Note_on_c, 0, 72, 0
1, 19968, Note_on_c, 0, 71, 77
1, 19968, Note_on_c, 1, 62, 77
1, 20057, Note_on_c, 0, 71, 0
1, 20057, Note_on_c, 1, 62, 0
1, 20064, Note_on_c, 0, 71, 76
1, 20064, Note_on_c, 1, 50, 76
1, 20079, Note_on_c, 0, 71, 0
1, 20080, Note_on_c, 0, 69, 76
1, 20095, Note_on_c, 0, 69, 0
1, 20096, Note_on_c, 0, 71, 76
1, 20111, Note_on_c, 0, 71, 0
1, 20112, Note_on_c, 0, 69, 76
1, 20127, Note_on_c, 0, 69, 0
1, 20128, Note_on_c, 0, 67, 75
1, 20143, Note_on_c, 0, 67, 0
1, 20144, Note_on_c, 0, 69, 75
1, 20153, Note_on_c, 1, 50, 0
1, 20159, Note_on_c, 0, 69, 0
1, 20160, Note_on_c, 0, 67, 64
1, 20160, Note_on_c, 1, 55, 64
1, 20249, Note_on_c, 0, 67, 0
1, 20249, Note_on_c, 1, 55, 0
1, 20256, Note_on_c, 0, 74, 67
1, 20286, Note_on_c, 0, 74, 0
1, 20288, Note_on_c, 0, 71, 68
1, 20318, Note_on_c, 0, 71, 0
1, 20320, Note_on_c, 0, 67, 69
1, 20350, Note_on_c, 0, 67, 0
1, 20352, Note_on_c, 0, 72, 71
1, 20352, Note_on_c, 1, 57, 71
1, 20352, Note_on_c, 1, 50, 71
1, 20382, Note_on_c, 0, 72, 0
1, 20384, Note_on_c, 0, 69, 72
1, 20414, Note_on_c, 0, 69, 0
1, 20416, Note_on_c, 0, 66, 73
1, 20441, Note_on_c, 1, 57, 0
1, 20441, Note_on_c, 1, 50, 0
1, 20446, Note_on_c, 0, 66, 0
1, 20448, Note_on_c, 0, 67, 74
1, 20448, Note_on_c, 1, 59, 75
1, 20448, Note_on_c, 1, 55, 75
1, 20537, Note_on_c, 0, 67, 0
1, 20537, Note_on_c, 1, 59, 0
1, 20537, Note_on_c, 1, 55, 0
1, 20544, Note_on_c, 0, 74, 70
1, 20574, Note_on_c, 0, 74, 0
1, 20576, Note_on_c, 0, 71, 68
1, 20606, Note_on_c, 0, 71, 0
1, 20608, Note_on_c, 0, 67, 66
1, 20638, Note_on_c, 0, 67, 0
1, 20640, Note_on_c, 0, 72, 64
1, 20640, Note_on_c, 1, 57, 63
1, 20640, Note_on_c, 1, 50, 63
1, 20670, Note_on_c, 0, 72, 0
1, 20672, Note_on_c, 0, 69, 62
1, 20702, Note_on_c, 0, 69, 0
1, 20704, Note_on_c, 0, 66, 61
1, 20729, Note_on_c, 1, 57, 0
1, 20729, Note_on_c, 1, 50, 0
1, 20734, Note_on_c, 0, 66, 0
1, 20736, Note_on_c, 0, 67, 58
1, 20736, Note_on_c, 1, 59, 58
1, 20736, Note_on_c, 1, 55, 58
1, 20825, Note_on_c, 0, 67, 0
1, 20825, Note_on_c, 1, 59, 0
1, 20825, Note_on_c, 1, 55, 0
1, 20928, Note_on_c, 0, 74, 75
1, 21017, Note_on_c, 0, 74, 0
1, 21024, Note_on_c, 0, 76, 75
1, 21024, Note_on_c, 1, 55, 64
1, 21042, Note_on_c, 0, 76, 0
1, 21042, Note_on_c, 0, 74, 75
1, 21054, Note_on_c, 1, 55, 0
1, 21056, Note_on_c, 1, 59, 64
1, 21060, Note_on_c, 0, 74, 0
1, 21060, Note_on_c, 0, 73, 75
1, 21078, Note_on_c, 0, 73, 0
1, 21078, Note_on_c, 0, 74, 75
1, 21086, Note_on_c, 1, 59, 0
1, 21088, Note_on_c, 1, 62, 64
1, 21113, Note_on_c, 0, 74, 0
1, 21118, Note_on_c, 1, 62, 0
1, 21120, Note_on_c, 0, 71, 75
1, 21120, Note_on_c, 1, 55, 64
1, 21150, Note_on_c, 1, 55, 0
1, 21152, Note_on_c, 1, 59, 64
1, 21182, Note_on_c, 1, 59, 0
1, 21184, Note_on_c, 1, 62, 64
1, 21209, Note_on_c, 0, 71, 0
1, 21214, Note_on_c, 1, 62, 0
1, 21216, Note_on_c, 0, 74, 75
1, 21216, Note_on_c, 1, 55, 64
1, 21246, Note_on_c, 1, 55, 0
1, 21248, Note_on_c, 1, 59, 64
1, 21278, Note_on_c, 1, 59, 0
1, 21280, Note_on_c, 1, 62, 64
1, 21305, Note_on_c, 0, 74, 0
1, 21310, Note_on_c, 1, 62, 0
1, 21312, Note_on_c, 0, 76, 75
1, 21312, Note_on_c, 1, 55, 64
1, 21330, Note_on_c, 0, 76, 0
1, 21330, Note_on_c, 0, 74, 75
1, 21342, Note_on_c, 1, 55, 0
1, 21344, Note_on_c, 1, 59, 64
1, 21348, Note_on_c, 0, 74, 0
1, 21348, Note_on_c, 0, 73, 75
1, 21366, Note_on_c, 0, 73, 0
1, 21366, Note_on_c, 0, 74, 75
1, 21374, Note_on_c, 1, 59, 0
1, 21376, Note_on_c, 1, 62, 64
1, 21401, Note_on_c, 0, 74, 0
1, 21406, Note_on_c, 1, 62, 0
1, 21408, Note_on_c, 0, 79, 75
1, 21408, Note_on_c, 1, 55, 64
1, 21438, Note_on_c, 1, 55, 0
1, 21440, Note_on_c, 1, 59, 64
1, 21470, Note_on_c, 1, 59, 0
1, 21472, Note_on_c, 1, 62, 64
1, 21497, Note_on_c, 0, 79, 0
1, 21502, Note_on_c, 1, 62, 0
1, 21504, Note_on_c, 0, 74, 75
1, 21504, Note_on_c, 1, 55, 64
1, 21534, Note_on_c, 1, 55, 0
1, 21536, Note_on_c, 1, 59, 64
1, 21566, Note_on_c, 1, 59, 0
1, 21568, Note_on_c, 1, 62, 64
1, 21593, Note_on_c, 0, 74, 0
1, 21598, Note_on_c, 1, 62, 0
1, 21600, Note_on_c, 0, 74, 75
1, 21600, Note_on_c, 1, 54, 64
1, 21630, Note_on_c, 1, 54, 0
1, 21632, Note_on_c, 1, 57, 64
1, 21662, Note_on_c, 1, 57, 0
1, 21664, Note_on_c, 1, 62, 64
1, 21694, Note_on_c, 1, 62, 0
1, 21696, Note_on_c, 1, 54, 64
1, 21726, Note_on_c, 1, 54, 0
1, 21728, Note_on_c, 1, 57, 64
1, 21758, Note_on_c, 1, 57, 0
1, 21760, Note_on_c, 1, 62, 64
1, 21777, Note_on_c, 0, 74, 0
1, 21790, Note_on_c, 1, 62, 0
1, 21792, Note_on_c, 0, 74, 75
1, 21792, Note_on_c, 1, 54, 64
1, 21807, Note_on_c, 0, 74, 0
1, 21808, Note_on_c, 0, 72, 75
1, 21822, Note_on_c, 1, 54, 0
1, 21823, Note_on_c, 0, 72, 0
1, 21824, Note_on_c, 0, 74, 75
1, 21824, Note_on_c, 1, 57, 64
1, 21839, Note_on_c, 0, 74, 0
1, 21840, Note_on_c, 0, 72, 75
1, 21854, Note_on_c, 1, 57, 0
1, 21855, Note_on_c, 0, 72, 0
1, 21856, Note_on_c, 0, 74, 75
1, 21856, Note_on_c, 1, 62, 64
1, 21871, Note_on_c, 0, 74, 0
1, 21872, Note_on_c, 0, 72, 75
1, 21886, Note_on_c, 1, 62, 0
1, 21887, Note_on_c, 0, 72, 0
1, 21888, Note_on_c, 0, 71, 75
1, 21888, Note_on_c, 1, 55, 64
1, 21918, Note_on_c, 1, 55, 0
1, 21920, Note_on_c, 1, 59, 64
1, 21950, Note_on_c, 1, 59, 0
1, 21952, Note_on_c, 1, 62, 64
1, 21977, Note_on_c, 0, 71, 0
1, 21982, Note_on_c, 1, 62, 0
1, 21984, Note_on_c, 1, 55, 64
1, 22014, Note_on_c, 1, 55, 0
1, 22016, Note_on_c, 1, 59, 64
1, 22046, Note_on_c, 1, 59, 0
1, 22048, Note_on_c, 1, 62, 64
1, 22078, Note_on_c, 1, 62, 0
1, 22080, Note_on_c, 0, 67, 75
1, 22080, Note_on_c, 1, 55, 64
1, 22110, Note_on_c, 1, 55, 0
1, 22112, Note_on_c, 1, 59, 64
1, 22142, Note_on_c, 1, 59, 0
1, 22144, Note_on_c, 1, 62, 64
1, 22169, Note_on_c, 0, 67, 0
1, 22174, Note_on_c, 1, 62, 0
1, 22176, Note_on_c, 0, 67, 75
1, 22176, Note_on_c, 1, 57, 64
1, 22194, Note_on_c, 0, 67, 0
1, 22194, Note_on_c, 0, 66, 75
1, 22206, Note_on_c, 1, 57, 0
1, 22208, Note_on_c, 1, 60, 64
1, 22238, Note_on_c, 1, 60, 0
1, 22240, Note_on_c, 1, 62, 64
1, 22265, Note_on_c, 0, 66, 0
1, 22270, Note_on_c, 1, 62, 0
1, 22272, Note_on_c, 0, 66, 75
1, 22272, Note_on_c, 1, 57, 64
1, 22302, Note_on_c, 1, 57, 0
1, 22304, Note_on_c, 1, 60, 64
1, 22311, Note_on_c, 0, 66, 0
1, 22334, Note_on_c, 1, 60, 0
1, 22336, Note_on_c, 1, 62, 64
1, 22366, Note_on_c, 1, 62, 0
1, 22368, Note_on_c, 0, 66, 75
1, 22368, Note_on_c, 1, 57, 64
1, 22398, Note_on_c, 1, 57, 0
1, 22400, Note_on_c, 1, 60, 64
1, 22407, Note_on_c, 0, 66, 0
1, 22430, Note_on_c, 1, 60, 0
1, 22432, Note_on_c, 1, 62, 64
1, 22462, Note_on_c, 1, 62, 0
1, 22464, Note_on_c, 0, 67, 75
1, 22464, Note_on_c, 1, 55, 64
1, 22494, Note_on_c, 1, 55, 0
1, 22496, Note_on_c, 1, 59, 64
1, 22526, Note_on_c, 1, 59, 0
1, 22528, Note_on_c, 1, 62, 64
1, 22553, Note_on_c, 0, 67, 0
1, 22558, Note_on_c, 1, 62, 0
1, 22560, Note_on_c, 0, 71, 75
1, 22560, Note_on_c, 1, 55, 64
1, 22590, Note_on_c, 1, 55, 0
1, 22592, Note_on_c, 1, 59, 64
1, 22599, Note_on_c, 0, 71, 0
1, 22622, Note_on_c, 1, 59, 0
1, 22624, Note_on_c, 1, 62, 64
1, 22654, Note_on_c, 1, 62, 0
1, 22656, Note_on_c, 0, 71, 75
1, 22656, Note_on_c, 1, 55, 64
1, 22686, Note_on_c, 1, 55, 0
1, 22688, Note_on_c, 1, 59, 64
1, 22695, Note_on_c, 0, 71, 0
1, 22718, Note_on_c, 1, 59, 0
1, 22720, Note_on_c, 1, 62, 64
1, 22750, Note_on_c, 1, 62, 0
1, 22752, Note_on_c, 0, 71, 75
1, 22752, Note_on_c, 1, 54, 64
1, 22767, Note_on_c, 0, 71, 0
1, 22768, Note_on_c, 0, 69, 75
1, 22782, Note_on_c, 1, 54, 0
1, 22783, Note_on_c, 0, 69, 0
1, 22784, Note_on_c, 0, 71, 75
1, 22784, Note_on_c, 1, 57, 64
1, 22799, Note_on_c, 0, 71, 0
1, 22800, Note_on_c, 0, 69, 75
1, 22814, Note_on_c, 1, 57, 0
1, 22815, Note_on_c, 0, 69, 0
1, 22816, Note_on_c, 0, 67, 75
1, 22816, Note_on_c, 1, 62, 64
1, 22831, Note_on_c, 0, 67, 0
1, 22832, Note_on_c, 0, 69, 75
1, 22846, Note_on_c, 1, 62, 0
1, 22847, Note_on_c, 0, 69, 0
1, 22848, Note_on_c, 0, 72, 75
1, 22848, Note_on_c, 1, 54, 64
1, 22878, Note_on_c, 1, 54, 0
1, 22880, Note_on_c, 1, 57, 64
1, 22887, Note_on_c, 0, 72, 0
1, 22910, Note_on_c, 1, 57, 0
1, 22912, Note_on_c, 1, 62, 64
1, 22942, Note_on_c, 1, 62, 0
1, 22944, Note_on_c, 0, 72, 75
1, 22944, Note_on_c, 1, 54, 64
1, 22974, Note_on_c, 1, 54, 0
1, 22976, Note_on_c, 1, 57, 64
1, 22983, Note_on_c, 0, 72, 0
1, 23006, Note_on_c, 1, 57, 0
1, 23008, Note_on_c, 1, 62, 64
1, 23038, Note_on_c, 1, 62, 0
1, 23040, Note_on_c, 0, 72, 75
1, 23040, Note_on_c, 1, 55, 64
1, 23070, Note_on_c, 1, 55, 0
1, 23072, Note_on_c, 1, 59, 64
1, 23102, Note_on_c, 1, 59, 0
1, 23104, Note_on_c, 1, 62, 64
1, 23134, Note_on_c, 1, 62, 0
1, 23136, Note_on_c, 0, 72, 0
1, 23136, Note_on_c, 0, 71, 75
1, 23136, Note_on_c, 1, 55, 64
1, 23166, Note_on_c, 1, 55, 0
1, 23168, Note_on_c, 1, 59, 64
1, 23198, Note_on_c, 1, 59, 0
1, 23200, Note_on_c, 1, 62, 64
1, 23225, Note_on_c, 0, 71, 0
1, 23230, Note_on_c, 1, 62, 0
1, 23232, Note_on_c, 0, 72, 75
1, 23232, Note_on_c, 1, 60, 64
1, 23262, Note_on_c, 1, 60, 0
1, 23264, Note_on_c, 1, 64, 64
1, 23294, Note_on_c, 1, 64, 0
1, 23296, Note_on_c, 1, 67, 64
1, 23321, Note_on_c, 0, 72, 0
1, 23326, Note_on_c, 1, 67, 0
1, 23328, Note_on_c, 0, 72, 75
1, 23328, Note_on_c, 1, 62, 64
1, 23346, Note_on_c, 0, 72, 0
1, 23346, Note_on_c, 0, 71, 75
1, 23358, Note_on_c, 1, 62, 0
1, 23360, Note_on_c, 1, 65, 64
1, 23390, Note_on_c, 1, 65, 0
1, 23392, Note_on_c, 1, 67, 64
1, 23417, Note_on_c, 0, 71, 0
1, 23422, Note_on_c, 1, 67, 0
1, 23424, Note_on_c, 0, 71, 75
1, 23424, Note_on_c, 1, 62, 64
1, 23454, Note_on_c, 1, 62, 0
1, 23456, Note_on_c, 1, 65, 64
1, 23463, Note_on_c, 0, 71, 0
1, 23486, Note_on_c, 1, 65, 0
1, 23488, Note_on_c, 1, 67, 64
1, 23518, Note_on_c, 1, 67, 0
1, 23520, Note_on_c, 0, 71, 75
1, 23520, Note_on_c, 1, 62, 64
1, 23550, Note_on_c, 1, 62, 0
1, 23552, Note_on_c, 1, 65, 64
1, 23559, Note_on_c, 0, 71, 0
1, 23582, Note_on_c, 1, 65, 0
1, 23584, Note_on_c, 1, 67, 64
1, 23614, Note_on_c, 1, 67, 0
1, 23616, Note_on_c, 0, 74, 75
1, 23616, Note_on_c, 1, 60, 64
1, 23634, Note_on_c, 0, 74, 0
1, 23634, Note_on_c, 0, 72, 75
1, 23646, Note_on_c, 1, 60, 0
1, 23648, Note_on_c, 1, 64, 64
1, 23652, Note_on_c, 0, 72, 0
1, 23652, Note_on_c, 0, 71, 75
1, 23670, Note_on_c, 0, 71, 0
1, 23670, Note_on_c, 0, 72, 75
1, 23678, Note_on_c, 1, 64, 0
1, 23680, Note_on_c, 1, 67, 64
1, 23705, Note_on_c, 0, 72, 0
1, 23710, Note_on_c, 1, 67, 0
1, 23712, Note_on_c, 0, 76, 75
1, 23712, Note_on_c, 1, 60, 64
1, 23742, Note_on_c, 1, 60, 0
1, 23744, Note_on_c, 1, 64, 64
1, 23751, Note_on_c, 0, 76, 0
1, 23774, Note_on_c, 1, 64, 0
1, 23776, Note_on_c, 1, 67, 64
1, 23806, Note_on_c, 1, 67, 0
1, 23808, Note_on_c, 0, 76, 75
1, 23808, Note_on_c, 1, 60, 64
1, 23838, Note_on_c, 1, 60, 0
1, 23840, Note_on_c, 1, 64, 64
1, 23847, Note_on_c, 0, 76, 0
1, 23870, Note_on_c, 1, 64, 0
1, 23872, Note_on_c, 1, 67, 64
1, 23902, Note_on_c, 1, 67, 0
1, 23904, Note_on_c, 0, 76, 75
1, 23904, Note_on_c, 1, 59, 64
1, 23919, Note_on_c, 0, 76, 0
1, 23920, Note_on_c, 0, 74, 75
1, 23934, Note_on_c, 1, 59, 0
1, 23935, Note_on_c, 0, 74, 0
1, 23936, Note_on_c, 0, 76, 75
1, 23936, Note_on_c, 1, 62, 64
1, 23951, Note_on_c, 0, 76, 0
1, 23952, Note_on_c, 0, 74, 75
1, 23966, Note_on_c, 1, 62, 0
1, 23967, Note_on_c, 0, 74, 0
1, 23968, Note_on_c, 0, 72, 75
1, 23968, Note_on_c, 1, 67, 64
1, 23983, Note_on_c, 0, 72, 0
1, 23984, Note_on_c, 0, 74, 75
1, 23998, Note_on_c, 1, 67, 0
1, 23999, Note_on_c, 0, 74, 0
1, 24000, Note_on_c, 0, 77, 75
1, 24000, Note_on_c, 1, 59, 64
1, 24030, Note_on_c, 1, 59, 0
1, 24032, Note_on_c, 1, 62, 64
1, 24039, Note_on_c, 0, 77, 0
1, 24062, Note_on_c, 1, 62, 0
1, 24064, Note_on_c, 1, 67, 64
1, 24094, Note_on_c, 1, 67, 0
1, 24096, Note_on_c, 0, 77, 75
1, 24096, Note_on_c, 1, 59, 64
1, 24126, Note_on_c, 1, 59, 0
1, 24128, Note_on_c, 1, 62, 64
1, 24135, Note_on_c, 0, 77, 0
1, 24158, Note_on_c, 1, 62, 0
1, 24160, Note_on_c, 1, 67, 64
1, 24190, Note_on_c, 1, 67, 0
1, 24192, Note_on_c, 0, 77, 75
1, 24192, Note_on_c, 1, 60, 64
1, 24222, Note_on_c, 1, 60, 0
1, 24224, Note_on_c, 1, 64, 64
1, 24254, Note_on_c, 1, 64, 0
1, 24256, Note_on_c, 1, 67, 64
1, 24286, Note_on_c, 1, 67, 0
1, 24288, Note_on_c, 0, 77, 0
1, 24288, Note_on_c, 0, 76, 75
1, 24288, Note_on_c, 1, 60, 64
1, 24318, Note_on_c, 1, 60, 0
1, 24320, Note_on_c, 1, 64, 64
1, 24350, Note_on_c, 1, 64, 0
1, 24352, Note_on_c, 1, 67, 64
1, 24377, Note_on_c, 0, 76, 0
1, 24382, Note_on_c, 1, 67, 0
1, 24384, Note_on_c, 0, 76, 75
1, 24384, Note_on_c, 1, 60, 64
1, 24414, Note_on_c, 1, 60, 0
1, 24416, Note_on_c, 1, 64, 64
1, 24446, Note_on_c, 1, 64, 0
1, 24448, Note_on_c, 1, 67, 64
1, 24473, Note_on_c, 0, 76, 0
1, 24478, Note_on_c, 1, 67, 0
1, 24480, Note_on_c, 0, 77, 75
1, 24480, Note_on_c, 1, 58, 64
1, 24495, Note_on_c, 0, 77, 0
1, 24496, Note_on_c, 0, 76, 75
1, 24510, Note_on_c, 1, 58, 0
1, 24511, Note_on_c, 0, 76, 0
1, 24512, Note_on_c, 0, 77, 75
1, 24512, Note_on_c, 1, 64, 64
1, 24527, Note_on_c, 0, 77, 0
1, 24528, Note_on_c, 0, 76, 75
1, 24542, Note_on_c, 1, 64, 0
1, 24543, Note_on_c, 0, 76, 0
1, 24544, Note_on_c, 0, 74, 75
1, 24544, Note_on_c, 1, 67, 64
1, 24559, Note_on_c, 0, 74, 0
1, 24560, Note_on_c, 0, 76, 75
1, 24574, Note_on_c, 1, 67, 0
1, 24575, Note_on_c, 0, 76, 0
1, 24576, Note_on_c, 0, 79, 75
1, 24576, Note_on_c, 1, 58, 64
1, 24606, Note_on_c, 1, 58, 0
1, 24608, Note_on_c, 1, 64, 64
1, 24638, Note_on_c, 1, 64, 0
1, 24640, Note_on_c, 1, 67, 64
1, 24665, Note_on_c, 0, 79, 0
1, 24670, Note_on_c, 1, 67, 0
1, 24672, Note_on_c, 0, 79, 75
1, 24672, Note_on_c, 1, 58, 64
1, 24702, Note_on_c, 1, 58, 0
1, 24704, Note_on_c, 1, 64, 64
1, 24734, Note_on_c, 1, 64, 0
1, 24736, Note_on_c, 1, 67, 64
1, 24761, Note_on_c, 0, 79, 0
1, 24766, Note_on_c, 1, 67, 0
1, 24768, Note_on_c, 0, 79, 75
1, 24768, Note_on_c, 1, 57, 64
1, 24783, Note_on_c, 0, 79, 0
1, 24784, Note_on_c, 0, 77, 75
1, 24798, Note_on_c, 1, 57, 0
1, 24799, Note_on_c, 0, 77, 0
1, 24800, Note_on_c, 0, 79, 75
1, 24800, Note_on_c, 1, 60, 64
1, 24815, Note_on_c, 0, 79, 0
1, 24816, Note_on_c, 0, 77, 75
1, 24830, Note_on_c, 1, 60, 0
1, 24831, Note_on_c, 0, 77, 0
1, 24832, Note_on_c, 0, 76, 75
1, 24832, Note_on_c, 1, 65, 64
1, 24847, Note_on_c, 0, 76, 0
1, 24848, Note_on_c, 0, 77, 75
1, 24862, Note_on_c, 1, 65, 0
1, 24863, Note_on_c, 0, 77, 0
1, 24864, Note_on_c, 0, 81, 75
1, 24864, Note_on_c, 1, 57, 64
1, 24894, Note_on_c, 1, 57, 0
1, 24896, Note_on_c, 1, 60, 64
1, 24926, Note_on_c, 1, 60, 0
1, 24928, Note_on_c, 1, 65, 64
1, 24953, Note_on_c, 0, 81, 0
1, 24958, Note_on_c, 1, 65, 0
1, 24960, Note_on_c, 0, 81, 75
1, 24960, Note_on_c, 1, 57, 64
1, 24990, Note_on_c, 1, 57, 0
1, 24992, Note_on_c, 1, 60, 64
1, 25022, Note_on_c, 1, 60, 0
1, 25024, Note_on_c, 1, 65, 64
1, 25049, Note_on_c, 0, 81, 0
1, 25054, Note_on_c, 1, 65, 0
1, 25056, Note_on_c, 0, 81, 75
1, 25056, Note_on_c, 1, 52, 64
1, 25071, Note_on_c, 0, 81, 0
1, 25072, Note_on_c, 0, 79, 75
1, 25086, Note_on_c, 1, 52, 0
1, 25087, Note_on_c, 0, 79, 0
1, 25088, Note_on_c, 0, 81, 75
1, 25088, Note_on_c, 1, 55, 64
1, 25103, Note_on_c, 0, 81, 0
1, 25104, Note_on_c, 0, 79, 75
1, 25118, Note_on_c, 1, 55, 0
1, 25119, Note_on_c, 0, 79, 0
1, 25120, Note_on_c, 0, 77, 75
1, 25120, Note_on_c, 1, 60, 64
1, 25135, Note_on_c, 0, 77, 0
1, 25136, Note_on_c, 0, 79, 75
1, 25150, Note_on_c, 1, 60, 0
1, 25151, Note_on_c, 0, 79, 0
1, 25152, Note_on_c, 0, 82, 75
1, 25152, Note_on_c, 1, 52, 64
1, 25182, Note_on_c, 1, 52, 0
1, 25184, Note_on_c, 1, 55, 64
1, 25214, Note_on_c, 1, 55, 0
1, 25216, Note_on_c, 1, 60, 64
1, 25241, Note_on_c, 0, 82, 0
1, 25246, Note_on_c, 1, 60, 0
1, 25248, Note_on_c, 0, 82, 75
1, 25248, Note_on_c, 1, 52, 64
1, 25278, Note_on_c, 1, 52, 0
1, 25280, Note_on_c, 1, 55, 64
1, 25310, Note_on_c, 1, 55, 0
1, 25312, Note_on_c, 1, 60, 64
1, 25337, Note_on_c, 0, 82, 0
1, 25342, Note_on_c, 1, 60, 0
1, 25344, Note_on_c, 0, 82, 75
1, 25344, Note_on_c, 1, 53, 64
1, 25374, Note_on_c, 1, 53, 0
1, 25376, Note_on_c, 1, 57, 64
1, 25406, Note_on_c, 1, 57, 0
1, 25408, Note_on_c, 1, 60, 64
1, 25438, Note_on_c, 1, 60, 0
1, 25440, Note_on_c, 0, 82, 0
1, 25440, Note_on_c, 0, 81, 75
1, 25440, Note_on_c, 1, 53, 64
1, 25470, Note_on_c, 1, 53, 0
1, 25472, Note_on_c, 1, 57, 64
1, 25502, Note_on_c, 1, 57, 0
1, 25504, Note_on_c, 1, 60, 64
1, 25529, Note_on_c, 0, 81, 0
1, 25534, Note_on_c, 1, 60, 0
1, 25536, Note_on_c, 0, 69, 75
1, 25536, Note_on_c, 1, 53, 64
1, 25566, Note_on_c, 1, 53, 0
1, 25568, Note_on_c, 1, 57, 64
1, 25598, Note_on_c, 1, 57, 0
1, 25600, Note_on_c, 1, 60, 64
1, 25625, Note_on_c, 0, 69, 0
1, 25630, Note_on_c, 1, 60, 0
1, 25632, Note_on_c, 0, 70, 75
1, 25632, Note_on_c, 1, 49, 64
1, 25650, Note_on_c, 0, 70, 0
1, 25650, Note_on_c, 0, 69, 75
1, 25662, Note_on_c, 1, 49, 0
1, 25664, Note_on_c, 1, 52, 64
1, 25668, Note_on_c, 0, 69, 0
1, 25668, Note_on_c, 0, 68, 75
1, 25686, Note_on_c, 0, 68, 0
1, 25686, Note_on_c, 0, 69, 75
1, 25694, Note_on_c, 1, 52, 0
1, 25696, Note_on_c, 1, 55, 64
1, 25721, Note_on_c, 0, 69, 0
1, 25726, Note_on_c, 1, 55, 0
1, 25728, Note_on_c, 0, 79, 75
1, 25728, Note_on_c, 1, 49, 64
1, 25758, Note_on_c, 1, 49, 0
1, 25760, Note_on_c, 1, 52, 64
1, 25790, Note_on_c, 1, 52, 0
1, 25792, Note_on_c, 1, 55, 64
1, 25817, Note_on_c, 0, 79, 0
1, 25822, Note_on_c, 1, 55, 0
1, 25824, Note_on_c, 0, 79, 75
1, 25824, Note_on_c, 1, 49, 64
1, 25854, Note_on_c, 1, 49, 0
1, 25856, Note_on_c, 1, 52, 64
1, 25886, Note_on_c, 1, 52, 0
1, 25888, Note_on_c, 1, 55, 64
1, 25913, Note_on_c, 0, 79, 0
1, 25918, Note_on_c, 1, 55, 0
1, 25920, Note_on_c, 0, 79, 75
1, 25920, Note_on_c, 1, 50, 64
1, 25950, Note_on_c, 1, 50, 0
1, 25952, Note_on_c, 1, 53, 64
1, 25982, Note_on_c, 1, 53, 0
1, 25984, Note_on_c, 1, 57, 64
1, 26009, Note_on_c, 0, 79, 0
1, 26014, Note_on_c, 1, 57, 0
1, 26016, Note_on_c, 0, 77, 75
1, 26016, Note_on_c, 1, 50, 64
1, 26046, Note_on_c, 1, 50, 0
1, 26048, Note_on_c, 1, 53, 64
1, 26078, Note_on_c, 1, 53, 0
1, 26080, Note_on_c, 1, 57, 64
1, 26105, Note_on_c, 0, 77, 0
1, 26110, Note_on_c, 1, 57, 0
1, 26112, Note_on_c, 0, 69, 75
1, 26112, Note_on_c, 1, 50, 64
1, 26142, Note_on_c, 1, 50, 0
1, 26144, Note_on_c, 1, 53, 64
1, 26174, Note_on_c, 1, 53, 0
1, 26176, Note_on_c, 1, 57, 64
1, 26201, Note_on_c, 0, 69, 0
1, 26206, Note_on_c, 1, 57, 0
1, 26208, Note_on_c, 0, 69, 75
1, 26208, Note_on_c, 1, 47, 64
1, 26226, Note_on_c, 0, 69, 0
1, 26226, Note_on_c, 0, 67, 75
1, 26238, Note_on_c, 1, 47, 0
1, 26240, Note_on_c, 1, 50, 64
1, 26244, Note_on_c, 0, 67, 0
1, 26244, Note_on_c, 0, 66, 75
1, 26262, Note_on_c, 0, 66, 0
1, 26262, Note_on_c, 0, 67, 75
1, 26270, Note_on_c, 1, 50, 0
1, 26272, Note_on_c, 1, 55, 64
1, 26297, Note_on_c, 0, 67, 0
1, 26302, Note_on_c, 1, 55, 0
1, 26304, Note_on_c, 0, 77, 75
1, 26304, Note_on_c, 1, 47, 64
1, 26334, Note_on_c, 1, 47, 0
1, 26336, Note_on_c, 1, 50, 64
1, 26366, Note_on_c, 1, 50, 0
1, 26368, Note_on_c, 1, 55, 64
1, 26393, Note_on_c, 0, 77, 0
1, 26398, Note_on_c, 1, 55, 0
1, 26400, Note_on_c, 0, 77, 75
1, 26400, Note_on_c, 1, 47, 64
1, 26430, Note_on_c, 1, 47, 0
1, 26432, Note_on_c, 1, 50, 64
1, 26462, Note_on_c, 1, 50, 0
1, 26464, Note_on_c, 1, 55, 64
1, 26489, Note_on_c, 0, 77, 0
1, 26494, Note_on_c, 1, 55, 0
1, 26496, Note_on_c, 0, 76, 75
1, 26496, Note_on_c, 1, 48, 64
1, 26526, Note_on_c, 0, 76, 0
1, 26528, Note_on_c, 0, 74, 75
1, 26558, Note_on_c, 0, 74, 0
1, 26560, Note_on_c, 0, 72, 75
1, 26585, Note_on_c, 1, 48, 0
1, 26590, Note_on_c, 0, 72, 0
1, 26592, Note_on_c, 0, 79, 75
1, 26622, Note_on_c, 0, 79, 0
1, 26624, Note_on_c, 0, 77, 75
1, 26654, Note_on_c, 0, 77, 0
1, 26656, Note_on_c, 0, 76, 75
1, 26686, Note_on_c, 0, 76, 0
1, 26688, Note_on_c, 0, 74, 75
1, 26688, Note_on_c, 1, 52, 64
1, 26718, Note_on_c, 0, 74, 0
1, 26720, Note_on_c, 0, 72, 75
1, 26750, Note_on_c, 0, 72, 0
1, 26752, Note_on_c, 0, 71, 75
1, 26777, Note_on_c, 1, 52, 0
1, 26782, Note_on_c, 0, 71, 0
1, 26784, Note_on_c, 0, 69, 75
1, 26784, Note_on_c, 1, 53, 64
1, 26814, Note_on_c, 0, 69, 0
1, 26816, Note_on_c, 0, 77, 75
1, 26846, Note_on_c, 0, 77, 0
1, 26848, Note_on_c, 0, 79, 75
1, 26873, Note_on_c, 1, 53, 0
1, 26878, Note_on_c, 0, 79, 0
1, 26880, Note_on_c, 0, 81, 75
1, 26910, Note_on_c, 0, 81, 0
1, 26912, Note_on_c, 0, 79, 75
1, 26942, Note_on_c, 0, 79, 0
1, 26944, Note_on_c, 0, 77, 75
1, 26974, Note_on_c, 0, 77, 0
1, 26976, Note_on_c, 0, 76, 75
1, 26976, Note_on_c, 1, 54, 64
1, 27006, Note_on_c, 0, 76, 0
1, 27008, Note_on_c, 0, 74, 75
1, 27038, Note_on_c, 0, 74, 0
1, 27040, Note_on_c, 0, 72, 75
1, 27065, Note_on_c, 1, 54, 0
1, 27070, Note_on_c, 0, 72, 0
1, 27072, Note_on_c, 0, 72, 75
1, 27072, Note_on_c, 1, 55, 64
1, 27161, Note_on_c, 1, 55, 0
1, 27168, Note_on_c, 0, 72, 0
1, 27168, Note_on_c, 0, 71, 75
1, 27168, Note_on_c, 1, 43, 64
1, 27257, Note_on_c, 0, 71, 0
1, 27257, Note_on_c, 1, 43, 0
1, 27264, Note_on_c, 0, 79, 75
1, 27353, Note_on_c, 0, 79, 0
1, 27360, Note_on_c, 0, 80, 75
1, 27360, Note_on_c, 1, 60, 64
1, 27378, Note_on_c, 0, 80, 0
1, 27378, Note_on_c, 0, 79, 75
1, 27390, Note_on_c, 1, 60, 0
1, 27392, Note_on_c, 1, 63, 64
1, 27396, Note_on_c, 0, 79, 0
1, 27396, Note_on_c, 0, 78, 75
1, 27414, Note_on_c, 0, 78, 0
1, 27414, Note_on_c, 0, 79, 75
1, 27422, Note_on_c, 1, 63, 0
1, 27424, Note_on_c, 1, 67, 64
1, 27449, Note_on_c, 0, 79, 0
1, 27454, Note_on_c, 1, 67, 0
1, 27456, Note_on_c, 0, 75, 75
1, 27456, Note_on_c, 1, 60, 64
1, 27486, Note_on_c, 1, 60, 0
1, 27488, Note_on_c, 1, 63, 64
1, 27518, Note_on_c, 1, 63, 0
1, 27520, Note_on_c, 1, 67, 64
1, 27545, Note_on_c, 0, 75, 0
1, 27550, Note_on_c, 1, 67, 0
1, 27552, Note_on_c, 0, 79, 75
1, 27552, Note_on_c, 1, 60, 64
1, 27582, Note_on_c, 1, 60, 0
1, 27584, Note_on_c, 1, 63, 64
1, 27614, Note_on_c, 1, 63, 0
1, 27616, Note_on_c, 1, 67, 64
1, 27641, Note_on_c, 0, 79, 0
1, 27646, Note_on_c, 1, 67, 0
1, 27648, Note_on_c, 0, 80, 75
1, 27648, Note_on_c, 1, 59, 64
1, 27666, Note_on_c, 0, 80, 0
1, 27666, Note_on_c, 0, 79, 75
1, 27678, Note_on_c, 1, 59, 0
1, 27680, Note_on_c, 1, 62, 64
1, 27684, Note_on_c, 0, 79, 0
1, 27684, Note_on_c, 0, 78, 75
1, 27702, Note_on_c, 0, 78, 0
1, 27702, Note_on_c, 0, 79, 75
1, 27710, Note_on_c, 1, 62, 0
1, 27712, Note_on_c, 1, 67, 64
1, 27737, Note_on_c, 0, 79, 0
1, 27742, Note_on_c, 1, 67, 0
1, 27744, Note_on_c, 0, 74, 75
1, 27744, Note_on_c, 1, 59, 64
1, 27774, Note_on_c, 1, 59, 0
1, 27776, Note_on_c, 1, 62, 64
1, 27806, Note_on_c, 1, 62, 0
1, 27808, Note_on_c, 1, 67, 64
1, 27833, Note_on_c, 0, 74, 0
1, 27838, Note_on_c, 1, 67, 0
1, 27840, Note_on_c, 0, 77, 75
1, 27840, Note_on_c, 1, 59, 64
1, 27870, Note_on_c, 1, 59, 0
1, 27872, Note_on_c, 1, 62, 64
1, 27902, Note_on_c, 1, 62, 0
1, 27904, Note_on_c, 1, 67, 64
1, 27929, Note_on_c, 0, 77, 0
1, 27934, Note_on_c, 1, 67, 0
1, 27936, Note_on_c, 0, 75, 75
1, 27936, Note_on_c, 1, 60, 64
1, 27966, Note_on_c, 0, 75, 0
1, 27968, Note_on_c, 0, 74, 75
1, 27998, Note_on_c, 0, 74, 0
1, 28000, Note_on_c, 0, 72, 75
1, 28025, Note_on_c, 1, 60, 0
1, 28030, Note_on_c, 0, 72, 0
1, 28032, Note_on_c, 0, 84, 75
1, 28062, Note_on_c, 0, 84, 0
1, 28064, Note_on_c, 0, 82, 75
1, 28094, Note_on_c, 0, 82, 0
1, 28096, Note_on_c, 0, 80, 75
1, 28126, Note_on_c, 0, 80, 0
1, 28128, Note_on_c, 0, 80, 75
1, 28128, Note_on_c, 1, 72, 64
1, 28128, Note_on_c, 1, 68, 64
1, 28158, Note_on_c, 0, 80, 0
1, 28160, Note_on_c, 0, 79, 75
1, 28190, Note_on_c, 0, 79, 0
1, 28192, Note_on_c, 0, 78, 75
1, 28217, Note_on_c, 1, 72, 0
1, 28217, Note_on_c, 1, 68, 0
1, 28222, Note_on_c, 0, 78, 0
1, 28224, Note_on_c, 0, 78, 75
1, 28224, Note_on_c, 1, 72, 64
1, 28320, Note_on_c, 0, 78, 0
1, 28320, Note_on_c, 0, 79, 75
1, 28320, Note_on_c, 1, 72, 0
1, 28320, Note_on_c, 1, 71, 64
1, 28320, Note_on_c, 1, 67, 64
1, 28401, Note_on_c, 1, 71, 0
1, 28401, Note_on_c, 1, 67, 0
1, 28409, Note_on_c, 0, 79, 0
1, 28416, Note_on_c, 0, 67, 75
1, 28505, Note_on_c, 0, 67, 0
1, 28512, Note_on_c, 0, 68, 75
1, 28512, Note_on_c, 1, 48, 64
1, 28530, Note_on_c, 0, 68, 0
1, 28530, Note_on_c, 0, 67, 75
1, 28542, Note_on_c, 1, 48, 0
1, 28544, Note_on_c, 1, 51, 64
1, 28548, Note_on_c, 0, 67, 0
1, 28548, Note_on_c, 0, 66, 75
1, 28566, Note_on_c, 0, 66, 0
1, 28566, Note_on_c, 0, 67, 75
1, 28574, Note_on_c, 1, 51, 0
1, 28576, Note_on_c, 1, 55, 64
1, 28601, Note_on_c, 0, 67, 0
1, 28606, Note_on_c, 1, 55, 0
1, 28608, Note_on_c, 0, 63, 75
1, 28608, Note_on_c, 1, 48, 64
1, 28638, Note_on_c, 1, 48, 0
1, 28640, Note_on_c, 1, 51, 64
1, 28670, Note_on_c, 1, 51, 0
1, 28672, Note_on_c, 1, 55, 64
1, 28697, Note_on_c, 0, 63, 0
1, 28702, Note_on_c, 1, 55, 0
1, 28704, Note_on_c, 0, 67, 75
1, 28704, Note_on_c, 1, 48, 64
1, 28734, Note_on_c, 1, 48, 0
1, 28736, Note_on_c, 1, 51, 64
1, 28766, Note_on_c, 1, 51, 0
1, 28768, Note_on_c, 1, 55, 64
1, 28793, Note_on_c, 0, 67, 0
1, 28798, Note_on_c, 1, 55, 0
1, 28800, Note_on_c, 0, 68, 75
1, 28800, Note_on_c, 1, 47, 64
1, 28818, Note_on_c, 0, 68, 0
1, 28818, Note_on_c, 0, 67, 75
1, 28830, Note_on_c, 1, 47, 0
1, 28832, Note_on_c, 1, 50, 64
1, 28836, Note_on_c, 0, 67, 0
1, 28836, Note_on_c, 0, 66, 75
1, 28854, Note_on_c, 0, 66, 0
1, 28854, Note_on_c, 0, 67, 75
1, 28862, Note_on_c, 1, 50, 0
1, 28864, Note_on_c, 1, 55, 64
1, 28889, Note_on_c, 0, 67, 0
1, 28894, Note_on_c, 1, 55, 0
1, 28896, Note_on_c, 0, 62, 75
1, 28896, Note_on_c, 1, 47, 64
1, 28926, Note_on_c, 1, 47, 0
1, 28928, Note_on_c, 1, 50, 64
1, 28958, Note_on_c, 1, 50, 0
1, 28960, Note_on_c, 1, 55, 64
1, 28985, Note_on_c, 0, 62, 0
1, 28990, Note_on_c, 1, 55, 0
1, 28992, Note_on_c, 0, 65, 75
1, 28992, Note_on_c, 1, 47, 64
1, 29022, Note_on_c, 1, 47, 0
1, 29024, Note_on_c, 1, 50, 64
1, 29054, Note_on_c, 1, 50, 0
1, 29056, Note_on_c, 1, 55, 64
1, 29081, Note_on_c, 0, 65, 0
1, 29086, Note_on_c, 1, 55, 0
1, 29088, Note_on_c, 0, 63, 75
1, 29088, Note_on_c, 1, 48, 64
1, 29118, Note_on_c, 0, 63, 0
1, 29120, Note_on_c, 0, 62, 75
1, 29150, Note_on_c, 0, 62, 0
1, 29152, Note_on_c, 0, 60, 75
1, 29177, Note_on_c, 1, 48, 0
1, 29182, Note_on_c, 0, 60, 0
1, 29184, Note_on_c, 0, 72, 75
1, 29214, Note_on_c, 0, 72, 0
1, 29216, Note_on_c, 0, 70, 75
1, 29246, Note_on_c, 0, 70, 0
1, 29248, Note_on_c, 0, 68, 75
1, 29278, Note_on_c, 0, 68, 0
1, 29280, Note_on_c, 0, 68, 75
1, 29280, Note_on_c, 1, 60, 64
1, 29280, Note_on_c, 1, 56, 64
1, 29310, Note_on_c, 0, 68, 0
1, 29312, Note_on_c, 0, 67, 75
1, 29342, Note_on_c, 0, 67, 0
1, 29344, Note_on_c, 0, 66, 75
1, 29369, Note_on_c, 1, 60, 0
1, 29369, Note_on_c, 1, 56, 0
1, 29374, Note_on_c, 0, 66, 0
1, 29376, Note_on_c, 0, 66, 75
1, 29376, Note_on_c, 1, 60, 64
1, 29472, Note_on_c, 0, 66, 0
1, 29472, Note_on_c, 0, 67, 75
1, 29472, Note_on_c, 1, 60, 0
1, 29472, Note_on_c, 1, 59, 64
1, 29472, Note_on_c, 1, 55, 64
1, 29553, Note_on_c, 1, 59, 0
1, 29553, Note_on_c, 1, 55, 0
1, 29561, Note_on_c, 0, 67, 0
1, 29568, Note_on_c, 0, 67, 75
1, 29657, Note_on_c, 0, 67, 0
1, 29664, Note_on_c, 0, 69, 75
1, 29664, Note_on_c, 1, 47, 64
1, 29682, Note_on_c, 0, 69, 0
1, 29682, Note_on_c, 0, 67, 75
1, 29694, Note_on_c, 1, 47, 0
1, 29696, Note_on_c, 1, 50, 64
1, 29700, Note_on_c, 0, 67, 0
1, 29700, Note_on_c, 0, 66, 75
1, 29718, Note_on_c, 0, 66, 0
1, 29718, Note_on_c, 0, 67, 75
1, 29726, Note_on_c, 1, 50, 0
1, 29728, Note_on_c, 1, 55, 64
1, 29753, Note_on_c, 0, 67, 0
1, 29758, Note_on_c, 1, 55, 0
1, 29760, Note_on_c, 0, 77, 75
1, 29760, Note_on_c, 1, 47, 64
1, 29790, Note_on_c, 1, 47, 0
1, 29792, Note_on_c, 1, 50, 64
1, 29822, Note_on_c, 1, 50, 0
1, 29824, Note_on_c, 1, 55, 64
1, 29849, Note_on_c, 0, 77, 0
1, 29854, Note_on_c, 1, 55, 0
1, 29856, Note_on_c, 0, 77, 75
1, 29856, Note_on_c, 1, 47, 64
1, 29886, Note_on_c, 1, 47, 0
1, 29888, Note_on_c, 1, 50, 64
1, 29918, Note_on_c, 1, 50, 0
1, 29920, Note_on_c, 1, 55, 64
1, 29945, Note_on_c, 0, 77, 0
1, 29950, Note_on_c, 1, 55, 0
1, 29952, Note_on_c, 0, 77, 75
1, 29952, Note_on_c, 1, 48, 64
1, 29982, Note_on_c, 1, 48, 0
1, 29984, Note_on_c, 1, 52, 64
1, 30014, Note_on_c, 1, 52, 0
1, 30016, Note_on_c, 1, 55, 64
1, 30046, Note_on_c, 1, 55, 0
1, 30048, Note_on_c, 0, 77, 0
1, 30048, Note_on_c, 0, 76, 75
1, 30048, Note_on_c, 1, 48, 64
1, 30078, Note_on_c, 1, 48, 0
1, 30080, Note_on_c, 1, 52, 64
1, 30110, Note_on_c, 1, 52, 0
1, 30112, Note_on_c, 1, 55, 64
1, 30137, Note_on_c, 0, 76, 0
1, 30142, Note_on_c, 1, 55, 0
1, 30144, Note_on_c, 0, 67, 58
1, 30144, Note_on_c, 1, 48, 58
1, 30174, Note_on_c, 1, 48, 0
1, 30176, Note_on_c, 1, 52, 58
1, 30206, Note_on_c, 1, 52, 0
1, 30208, Note_on_c, 1, 55, 58
1, 30233, Note_on_c, 0, 67, 0
1, 30238, Note_on_c, 1, 55, 0
1, 30240, Note_on_c, 0, 69, 58
1, 30240, Note_on_c, 1, 47, 58
1, 30258, Note_on_c, 0, 69, 0
1, 30258, Note_on_c, 0, 67, 58
1, 30270, Note_on_c, 1, 47, 0
1, 30272, Note_on_c, 1, 50, 58
1, 30276, Note_on_c, 0, 67, 0
1, 30276, Note_on_c, 0, 66, 58
1, 30294, Note_on_c, 0, 66, 0
1, 30294, Note_on_c, 0, 67, 58
1, 30302, Note_on_c, 1, 50, 0
1, 30304, Note_on_c, 1, 55, 58
1, 30329, Note_on_c, 0, 67, 0
1, 30334, Note_on_c, 1, 55, 0
1, 30336, Note_on_c, 0, 77, 58
1, 30336, Note_on_c, 1, 47, 58
1, 30366, Note_on_c, 1, 47, 0
1, 30368, Note_on_c, 1, 50, 58
1, 30398, Note_on_c, 1, 50, 0
1, 30400, Note_on_c, 1, 55, 58
1, 30425, Note_on_c, 0, 77, 0
1, 30430, Note_on_c, 1, 55, 0
1, 30432, Note_on_c, 0, 77, 58
1, 30432, Note_on_c, 1, 47, 58
1, 30462, Note_on_c, 1, 47, 0
1, 30464, Note_on_c, 1, 50, 58
1, 30494, Note_on_c, 1, 50, 0
1, 30496, Note_on_c, 1, 55, 58
1, 30521, Note_on_c, 0, 77, 0
1, 30526, Note_on_c, 1, 55, 0
1, 30528, Note_on_c, 0, 77, 58
1, 30528, Note_on_c, 1, 48, 58
1, 30558, Note_on_c, 1, 48, 0
1, 30560, Note_on_c, 1, 52, 58
1, 30590, Note_on_c, 1, 52, 0
1, 30592, Note_on_c, 1, 55, 58
1, 30622, Note_on_c, 1, 55, 0
1, 30624, Note_on_c, 0, 77, 0
1, 30624, Note_on_c, 0, 76, 58
1, 30624, Note_on_c, 1, 48, 58
1, 30654, Note_on_c, 1, 48, 0
1, 30656, Note_on_c, 1, 52, 58
1, 30686, Note_on_c, 1, 52, 0
1, 30688, Note_on_c, 1, 55, 58
1, 30713, Note_on_c, 0, 76, 0
1, 30718, Note_on_c, 1, 55, 0
1, 30720, Note_on_c, 0, 72, 75
1, 30720, Note_on_c, 1, 48, 64
1, 30750, Note_on_c, 1, 48, 0
1, 30752, Note_on_c, 1, 52, 64
1, 30782, Note_on_c, 1, 52, 0
1, 30784, Note_on_c, 1, 55, 64
1, 30809, Note_on_c, 0, 72, 0
1, 30814, Note_on_c, 1, 55, 0
1, 30816, Note_on_c, 0, 74, 75
1, 30816, Note_on_c, 1, 52, 64
1, 30834, Note_on_c, 0, 74, 0
1, 30834, Note_on_c, 0, 72, 75
1, 30846, Note_on_c, 1, 52, 0
1, 30848, Note_on_c, 1, 55, 64
1, 30852, Note_on_c, 0, 72, 0
1, 30852, Note_on_c, 0, 71, 75
1, 30870, Note_on_c, 0, 71, 0
1, 30870, Note_on_c, 0, 72, 75
1, 30878, Note_on_c, 1, 55, 0
1, 30880, Note_on_c, 1, 60, 65
1, 30905, Note_on_c, 0, 72, 0
1, 30910, Note_on_c, 1, 60, 0
1, 30912, Note_on_c, 0, 84, 76
1, 30912, Note_on_c, 1, 52, 66
1, 30942, Note_on_c, 1, 52, 0
1, 30944, Note_on_c, 1, 55, 67
1, 30974, Note_on_c, 1, 55, 0
1, 30976, Note_on_c, 1, 60, 68
1, 31001, Note_on_c, 0, 84, 0
1, 31006, Note_on_c, 1, 60, 0
1, 31008, Note_on_c, 0, 84, 77
1, 31008, Note_on_c, 1, 52, 68
1, 31038, Note_on_c, 1, 52, 0
1, 31040, Note_on_c, 1, 55, 70
1, 31070, Note_on_c, 1, 55, 0
1, 31072, Note_on_c, 1, 60, 70
1, 31097, Note_on_c, 0, 84, 0
1, 31102, Note_on_c, 1, 60, 0
1, 31104, Note_on_c, 0, 83, 79
1, 31104, Note_on_c, 1, 53, 70
1, 31134, Note_on_c, 1, 53, 0
1, 31136, Note_on_c, 1, 57, 70
1, 31152, Note_on_c, 0, 83, 0
1, 31152, Note_on_c, 0, 81, 79
1, 31166, Note_on_c, 1, 57, 0
1, 31168, Note_on_c, 1, 62, 70
1, 31197, Note_on_c, 0, 81, 0
1, 31198, Note_on_c, 1, 62, 0
1, 31200, Note_on_c, 0, 79, 79
1, 31200, Note_on_c, 1, 53, 70
1, 31230, Note_on_c, 1, 53, 0
1, 31232, Note_on_c, 1, 57, 70
1, 31248, Note_on_c, 0, 79, 0
1, 31248, Note_on_c, 0, 77, 79
1, 31262, Note_on_c, 1, 57, 0
1, 31264, Note_on_c, 1, 62, 70
1, 31293, Note_on_c, 0, 77, 0
1, 31294, Note_on_c, 1, 62, 0
1, 31296, Note_on_c, 0, 76, 79
1, 31296, Note_on_c, 1, 53, 70
1, 31326, Note_on_c, 1, 53, 0
1, 31328, Note_on_c, 1, 57, 70
1, 31344, Note_on_c, 0, 76, 0
1, 31344, Note_on_c, 0, 74, 79
1, 31358, Note_on_c, 1, 57, 0
1, 31360, Note_on_c, 1, 62, 70
1, 31389, Note_on_c, 0, 74, 0
1, 31390, Note_on_c, 1, 62, 0
1, 31392, Note_on_c, 0, 72, 79
1, 31392, Note_on_c, 1, 55, 70
1, 31422, Note_on_c, 1, 55, 0
1, 31424, Note_on_c, 1, 60, 69
1, 31454, Note_on_c, 1, 60, 0
1, 31456, Note_on_c, 1, 64, 68
1, 31486, Note_on_c, 1, 64, 0
1, 31488, Note_on_c, 1, 55, 68
1, 31518, Note_on_c, 1, 55, 0
1, 31520, Note_on_c, 1, 60, 67
1, 31550, Note_on_c, 1, 60, 0
1, 31552, Note_on_c, 1, 64, 66
1, 31569, Note_on_c, 0, 72, 0
1, 31582, Note_on_c, 1, 64, 0
1, 31584, Note_on_c, 0, 74, 76
1, 31584, Note_on_c, 1, 55, 66
1, 31614, Note_on_c, 1, 55, 0
1, 31616, Note_on_c, 1, 62, 65
1, 31646, Note_on_c, 1, 62, 0
1, 31648, Note_on_c, 1, 65, 65
1, 31651, Note_on_c, 0, 74, 0
1, 31656, Note_on_c, 0, 71, 75
1, 31678, Note_on_c, 1, 65, 0
1, 31679, Note_on_c, 0, 71, 0
1, 31680, Note_on_c, 0, 72, 75
1, 31680, Note_on_c, 1, 60, 64
1, 31710, Note_on_c, 1, 60, 0
1, 31712, Note_on_c, 1, 64, 64
1, 31742, Note_on_c, 1, 64, 0
1, 31744, Note_on_c, 1, 67, 64
1, 31769, Note_on_c, 0, 72, 0
1, 31774, Note_on_c, 1, 67, 0
1, 31776, Note_on_c, 1, 60, 64
1, 31806, Note_on_c, 1, 60, 0
1, 31808, Note_on_c, 1, 64, 64
1, 31838, Note_on_c, 1, 64, 0
1, 31840, Note_on_c, 1, 67, 64
1, 31870, Note_on_c, 1, 67, 0
1, 31872, Note_on_c, 0, 79, 75
1, 31872, Note_on_c, 1, 60, 64
1, 31902, Note_on_c, 1, 60, 0
1, 31904, Note_on_c, 1, 64, 64
1, 31934, Note_on_c, 1, 64, 0
1, 31936, Note_on_c, 1, 67, 64
1, 31961, Note_on_c, 0, 79, 0
1, 31966, Note_on_c, 1, 67, 0
1, 31968, Note_on_c, 0, 81, 75
1, 31968, Note_on_c, 1, 59, 64
1, 31986, Note_on_c, 0, 81, 0
1, 31986, Note_on_c, 0, 79, 75
1, 31998, Note_on_c, 1, 59, 0
1, 32000, Note_on_c, 1, 62, 64
1, 32004, Note_on_c, 0, 79, 0
1, 32004, Note_on_c, 0, 78, 75
1, 32022, Note_on_c, 0, 78, 0
1, 32022, Note_on_c, 0, 79, 75
1, 32030, Note_on_c, 1, 62, 0
1, 32032, Note_on_c, 1, 67, 64
1, 32057, Note_on_c, 0, 79, 0
1, 32062, Note_on_c, 1, 67, 0
1, 32064, Note_on_c, 0, 74, 75
1, 32064, Note_on_c, 1, 59, 64
1, 32094, Note_on_c, 1, 59, 0
1, 32096, Note_on_c, 1, 62, 64
1, 32126, Note_on_c, 1, 62, 0
1, 32128, Note_on_c, 1, 67, 64
1, 32153, Note_on_c, 0, 74, 0
1, 32158, Note_on_c, 1, 67, 0
1, 32160, Note_on_c, 0, 79, 75
1, 32160, Note_on_c, 1, 59, 64
1, 32190, Note_on_c, 1, 59, 0
1, 32192, Note_on_c, 1, 62, 64
1, 32222, Note_on_c, 1, 62, 0
1, 32224, Note_on_c, 1, 67, 64
1, 32249, Note_on_c, 0, 79, 0
1, 32254, Note_on_c, 1, 67, 0
1, 32256, Note_on_c, 0, 77, 75
1, 32256, Note_on_c, 1, 60, 64
1, 32286, Note_on_c, 1, 60, 0
1, 32288, Note_on_c, 1, 64, 64
1, 32318, Note_on_c, 1, 64, 0
1, 32320, Note_on_c, 1, 67, 64
1, 32350, Note_on_c, 1, 67, 0
1, 32352, Note_on_c, 0, 77, 0
1, 32352, Note_on_c, 0, 76, 75
1, 32352, Note_on_c, 1, 60, 64
1, 32382, Note_on_c, 1, 60, 0
1, 32384, Note_on_c, 1, 64, 64
1, 32414, Note_on_c, 1, 64, 0
1, 32416, Note_on_c, 1, 67, 64
1, 32441, Note_on_c, 0, 76, 0
1, 32446, Note_on_c, 1, 67, 0
1, 32448, Note_on_c, 0, 86, 75
1, 32448, Note_on_c, 1, 60, 64
1, 32471, Note_on_c, 0, 86, 0
1, 32472, Note_on_c, 0, 84, 75
1, 32478, Note_on_c, 1, 60, 0
1, 32480, Note_on_c, 1, 64, 64
1, 32495, Note_on_c, 0, 84, 0
1, 32496, Note_on_c, 0, 83, 75
1, 32510, Note_on_c, 1, 64, 0
1, 32512, Note_on_c, 1, 67, 64
1, 32519, Note_on_c, 0, 83, 0
1, 32520, Note_on_c, 0, 81, 75
1, 32542, Note_on_c, 1, 67, 0
1, 32543, Note_on_c, 0, 81, 0
1, 32544, Note_on_c, 0, 79, 75
1, 32544, Note_on_c, 1, 59, 64
1, 32574, Note_on_c, 1, 59, 0
1, 32576, Note_on_c, 1, 62, 64
1, 32606, Note_on_c, 1, 62, 0
1, 32608, Note_on_c, 1, 67, 64
1, 32633, Note_on_c, 0, 79, 0
1, 32638, Note_on_c, 1, 67, 0
1, 32640, Note_on_c, 0, 74, 75
1, 32640, Note_on_c, 1, 59, 64
1, 32670, Note_on_c, 1, 59, 0
1, 32672, Note_on_c, 1, 62, 64
1, 32702, Note_on_c, 1, 62, 0
1, 32704, Note_on_c, 1, 67, 64
1, 32729, Note_on_c, 0, 74, 0
1, 32734, Note_on_c, 1, 67, 0
1, 32736, Note_on_c, 0, 77, 75
1, 32736, Note_on_c, 1, 59, 64
1, 32766, Note_on_c, 1, 59, 0
1, 32768, Note_on_c, 1, 62, 64
1, 32798, Note_on_c, 1, 62, 0
1, 32800, Note_on_c, 1, 67, 64
1, 32825, Note_on_c, 0, 77, 0
1, 32830, Note_on_c, 1, 67, 0
1, 32832, Note_on_c, 0, 76, 75
1, 32832, Note_on_c, 1, 60, 64
1, 32862, Note_on_c, 0, 76, 0
1, 32864, Note_on_c, 0, 77, 75
1, 32894, Note_on_c, 0, 77, 0
1, 32896, Note_on_c, 0, 79, 75
1, 32921, Note_on_c, 1, 60, 0
1, 32926, Note_on_c, 0, 79, 0
1, 32928, Note_on_c, 0, 71, 75
1, 32928, Note_on_c, 1, 62, 64
1, 32958, Note_on_c, 0, 71, 0
1, 32960, Note_on_c, 0, 72, 75
1, 32990, Note_on_c, 0, 72, 0
1, 32992, Note_on_c, 0, 74, 75
1, 33017, Note_on_c, 1, 62, 0
1, 33022, Note_on_c, 0, 74, 0
1, 33024, Note_on_c, 0, 72, 75
1, 33024, Note_on_c, 1, 64, 64
1, 33091, Note_on_c, 0, 72, 0
1, 33096, Note_on_c, 0, 84, 75
1, 33113, Note_on_c, 1, 64, 0
1, 33119, Note_on_c, 0, 84, 0
1, 33120, Note_on_c, 0, 83, 75
1, 33120, Note_on_c, 1, 65, 64
1, 33143, Note_on_c, 0, 83, 0
1, 33144, Note_on_c, 0, 81, 75
1, 33167, Note_on_c, 0, 81, 0
1, 33168, Note_on_c, 0, 79, 75
1, 33191, Note_on_c, 0, 79, 0
1, 33192, Note_on_c, 0, 77, 75
1, 33209, Note_on_c, 1, 65, 0
1, 33215, Note_on_c, 0, 77, 0
1, 33216, Note_on_c, 0, 76, 75
1, 33216, Note_on_c, 1, 67, 64
1, 33305, Note_on_c, 0, 76, 0
1, 33305, Note_on_c, 1, 67, 0
1, 33312, Note_on_c, 0, 76, 75
1, 33312, Note_on_c, 1, 55, 64
1, 33327, Note_on_c, 0, 76, 0
1, 33328, Note_on_c, 0, 74, 75
1, 33343, Note_on_c, 0, 74, 0
1, 33344, Note_on_c, 0, 76, 75
1, 33359, Note_on_c, 0, 76, 0
1, 33360, Note_on_c, 0, 74, 75
1, 33375, Note_on_c, 0, 74, 0
1, 33376, Note_on_c, 0, 72, 75
1, 33391, Note_on_c, 0, 72, 0
1, 33392, Note_on_c, 0, 74, 75
1, 33401, Note_on_c, 1, 55, 0
1, 33407, Note_on_c, 0, 74, 0
1, 33408, Note_on_c, 0, 76, 75
1, 33408, Note_on_c, 1, 60, 64
1, 33438, Note_on_c, 0, 76, 0
1, 33440, Note_on_c, 0, 77, 75
1, 33470, Note_on_c, 0, 77, 0
1, 33472, Note_on_c, 0, 79, 75
1, 33497, Note_on_c, 1, 60, 0
1, 33502, Note_on_c, 0, 79, 0
1, 33504, Note_on_c, 0, 71, 76
1, 33504, Note_on_c, 1, 62, 66
1, 33534, Note_on_c, 0, 71, 0
1, 33536, Note_on_c, 0, 72, 76
1, 33566, Note_on_c, 0, 72, 0
1, 33568, Note_on_c, 0, 74, 76
1, 33593, Note_on_c, 1, 62, 0
1, 33598, Note_on_c, 0, 74, 0
1, 33600, Note_on_c, 0, 72, 77
1, 33600, Note_on_c, 1, 64, 69
1, 33667, Note_on_c, 0, 72, 0
1, 33672, Note_on_c, 0, 84, 78
1, 33689, Note_on_c, 1, 64, 0
1, 33695, Note_on_c, 0, 84, 0
1, 33696, Note_on_c, 0, 83, 78
1, 33696, Note_on_c, 1, 65, 72
1, 33719, Note_on_c, 0, 83, 0
1, 33720, Note_on_c, 0, 81, 78
1, 33743, Note_on_c, 0, 81, 0
1, 33744, Note_on_c, 0, 79, 78
1, 33767, Note_on_c, 0, 79, 0
1, 33768, Note_on_c, 0, 77, 78
1, 33785, Note_on_c, 1, 65, 0
1, 33791, Note_on_c, 0, 77, 0
1, 33792, Note_on_c, 0, 76, 78
1, 33792, Note_on_c, 1, 67, 75
1, 33881, Note_on_c, 0, 76, 0
1, 33881, Note_on_c, 1, 67, 0
1, 33888, Note_on_c, 0, 76, 76
1, 33888, Note_on_c, 1, 55, 69
1, 33903, Note_on_c, 0, 76, 0
1, 33904, Note_on_c, 0, 74, 76
1, 33919, Note_on_c, 0, 74, 0
1, 33920, Note_on_c, 0, 76, 76
1, 33935, Note_on_c, 0, 76, 0
1, 33936, Note_on_c, 0, 74, 76
1, 33951, Note_on_c, 0, 74, 0
1, 33952, Note_on_c, 0, 72, 75
1, 33967, Note_on_c, 0, 72, 0
1, 33968, Note_on_c, 0, 74, 75
1, 33977, Note_on_c, 1, 55, 0
1, 33983, Note_on_c, 0, 74, 0
1, 33984, Note_on_c, 0, 72, 64
1, 33984, Note_on_c, 1, 60, 64
1, 34073, Note_on_c, 0, 72, 0
1, 34073, Note_on_c, 1, 60, 0
1, 34080, Note_on_c, 0, 79, 67
1, 34110, Note_on_c, 0, 79, 0
1, 34112, Note_on_c, 0, 76, 68
1, 34142, Note_on_c, 0, 76, 0
1, 34144, Note_on_c, 0, 72, 69
1, 34174, Note_on_c, 0, 72, 0
1, 34176, Note_on_c, 0, 77, 71
1, 34176, Note_on_c, 1, 62, 71
1, 34176, Note_on_c, 1, 55, 71
1, 34206, Note_on_c, 0, 77, 0
1, 34208, Note_on_c, 0, 74, 72
1, 34238, Note_on_c, 0, 74, 0
1, 34240, Note_on_c, 0, 71, 73
1, 34265, Note_on_c, 1, 62, 0
1, 34265, Note_on_c, 1, 55, 0
1, 34270, Note_on_c, 0, 71, 0
1, 34272, Note_on_c, 0, 72, 74
1, 34272, Note_on_c, 1, 64, 75
1, 34272, Note_on_c, 1, 60, 75
1, 34361, Note_on_c, 0, 72, 0
1, 34361, Note_on_c, 1, 64, 0
1, 34361, Note_on_c, 1, 60, 0
1, 34368, Note_on_c, 0, 79, 70
1, 34398, Note_on_c, 0, 79, 0
1, 34400, Note_on_c, 0, 76, 68
1, 34430, Note_on_c, 0, 76, 0
1, 34432, Note_on_c, 0, 72, 66
1, 34462, Note_on_c, 0, 72, 0
1, 34464, Note_on_c, 0, 77, 64
1, 34464, Note_on_c, 1, 62, 63
1, 34464, Note_on_c, 1, 55, 63
1, 34494, Note_on_c, 0, 77, 0
1, 34496, Note_on_c, 0, 74, 62
1, 34526, Note_on_c, 0, 74, 0
1, 34528, Note_on_c, 0, 71, 61
1, 34553, Note_on_c, 1, 62, 0
1, 34553, Note_on_c, 1, 55, 0
1, 34558, Note_on_c, 0, 71, 0
1, 34560, Note_on_c, 0, 72, 58
1, 34560, Note_on_c, 1, 64, 58
1, 34560, Note_on_c, 1, 60, 58
1, 34649, Note_on_c, 0, 72, 0
1, 34649, Note_on_c, 1, 64, 0
1, 34649, Note_on_c, 1, 60, 0
1, 34752, Note_on_c, 0, 74, 75
1, 34841, Note_on_c, 0, 74, 0
1, 34848, Note_on_c, 0, 76, 75
1, 34848, Note_on_c, 1, 55, 64
1, 34866, Note_on_c, 0, 76, 0
1, 34866, Note_on_c, 0, 74, 75
1, 34878, Note_on_c, 1, 55, 0
1, 34880, Note_on_c, 1, 59, 64
1, 34884, Note_on_c, 0, 74, 0
1, 34884, Note_on_c, 0, 73, 75
1, 34902, Note_on_c, 0, 73, 0
1, 34902, Note_on_c, 0, 74, 75
1, 34910, Note_on_c, 1, 59, 0
1, 34912, Note_on_c, 1, 62, 64
1, 34937, Note_on_c, 0, 74, 0
1, 34942, Note_on_c, 1, 62, 0
1, 34944, Note_on_c, 0, 71, 75
1, 34944, Note_on_c, 1, 55, 64
1, 34974, Note_on_c, 1, 55, 0
1, 34976, Note_on_c, 1, 59, 64
1, 35006, Note_on_c, 1, 59, 0
1, 35008, Note_on_c, 1, 62, 64
1, 35033, Note_on_c, 0, 71, 0
1, 35038, Note_on_c, 1, 62, 0
1, 35040, Note_on_c, 0, 74, 75
1, 35040, Note_on_c, 1, 55, 64
1, 35070, Note_on_c, 1, 55, 0
1, 35072, Note_on_c, 1, 59, 64
1, 35102, Note_on_c, 1, 59, 0
1, 35104, Note_on_c, 1, 62, 64
1, 35129, Note_on_c, 0, 74, 0
1, 35134, Note_on_c, 1, 62, 0
1, 35136, Note_on_c, 0, 76, 75
1, 35136, Note_on_c, 1, 55, 64
1, 35154, Note_on_c, 0, 76, 0
1, 35154, Note_on_c, 0, 74, 75
1, 35166, Note_on_c, 1, 55, 0
1, 35168, Note_on_c, 1, 59, 64
1, 35172, Note_on_c, 0, 74, 0
1, 35172, Note_on_c, 0, 73, 75
1, 35190, Note_on_c, 0, 73, 0
1, 35190, Note_on_c, 0, 74, 75
1, 35198, Note_on_c, 1, 59, 0
1, 35200, Note_on_c, 1, 62, 64
1, 35225, Note_on_c, 0, 74, 0
1, 35230, Note_on_c, 1, 62, 0
1, 35232, Note_on_c, 0, 79, 75
1, 35232, Note_on_c, 1, 55, 64
1, 35262, Note_on_c, 1, 55, 0
1, 35264, Note_on_c, 1, 59, 64
1, 35294, Note_on_c, 1, 59, 0
1, 35296, Note_on_c, 1, 62, 64
1, 35321, Note_on_c, 0, 79, 0
1, 35326, Note_on_c, 1, 62, 0
1, 35328, Note_on_c, 0, 74, 75
1, 35328, Note_on_c, 1, 55, 64
1, 35358, Note_on_c, 1, 55, 0
1, 35360, Note_on_c, 1, 59, 64
1, 35390, Note_on_c, 1, 59, 0
1, 35392, Note_on_c, 1, 62, 64
1, 35417, Note_on_c, 0, 74, 0
1, 35422, Note_on_c, 1, 62, 0
1, 35424, Note_on_c, 0, 74, 75
1, 35424, Note_on_c, 1, 54, 64
1, 35454, Note_on_c, 1, 54, 0
1, 35456, Note_on_c, 1, 57, 64
1, 35486, Note_on_c, 1, 57, 0
1, 35488, Note_on_c, 1, 62, 64
1, 35518, Note_on_c, 1, 62, 0
1, 35520, Note_on_c, 1, 54, 64
1, 35550, Note_on_c, 1, 54, 0
1, 35552, Note_on_c, 1, 57, 64
1, 35582, Note_on_c, 1, 57, 0
1, 35584, Note_on_c, 1, 62, 64
1, 35601, Note_on_c, 0, 74, 0
1, 35614, Note_on_c, 1, 62, 0
1, 35616, Note_on_c, 0, 74, 75
1, 35616, Note_on_c, 1, 54, 64
1, 35631, Note_on_c, 0, 74, 0
1, 35632, Note_on_c, 0, 72, 75
1, 35646, Note_on_c, 1, 54, 0
1, 35647, Note_on_c, 0, 72, 0
1, 35648, Note_on_c, 0, 74, 75
1, 35648, Note_on_c, 1, 57, 64
1, 35663, Note_on_c, 0, 74, 0
1, 35664, Note_on_c, 0, 72, 75
1, 35678, Note_on_c, 1, 57, 0
1, 35679, Note_on_c, 0, 72, 0
1, 35680, Note_on_c, 0, 74, 75
1, 35680, Note_on_c, 1, 62, 64
1, 35695, Note_on_c, 0, 74, 0
1, 35696, Note_on_c, 0, 72, 75
1, 35710, Note_on_c, 1, 62, 0
1, 35711, Note_on_c, 0, 72, 0
1, 35712, Note_on_c, 0, 71, 75
1, 35712, Note_on_c, 1, 55, 64
1, 35742, Note_on_c, 1, 55, 0
1, 35744, Note_on_c, 1, 59, 64
1, 35774, Note_on_c, 1, 59, 0
1, 35776, Note_on_c, 1, 62, 64
1, 35801, Note_on_c, 0, 71, 0
1, 35806, Note_on_c, 1, 62, 0
1, 35808, Note_on_c, 1, 55, 64
1, 35838, Note_on_c, 1, 55, 0
1, 35840, Note_on_c, 1, 59, 64
1, 35870, Note_on_c, 1, 59, 0
1, 35872, Note_on_c, 1, 62, 64
1, 35902, Note_on_c, 1, 62, 0
1, 35904, Note_on_c, 0, 67, 75
1, 35904, Note_on_c, 1, 55, 64
1, 35934, Note_on_c, 1, 55, 0
1, 35936, Note_on_c, 1, 59, 64
1, 35966, Note_on_c, 1, 59, 0
1, 35968, Note_on_c, 1, 62, 64
1, 35993, Note_on_c, 0, 67, 0
1, 35998, Note_on_c, 1, 62, 0
1, 36000, Note_on_c, 0, 67, 75
1, 36000, Note_on_c, 1, 57, 64
1, 36018, Note_on_c, 0, 67, 0
1, 36018, Note_on_c, 0, 66, 75
1, 36030, Note_on_c, 1, 57, 0
1, 36032, Note_on_c, 1, 60, 64
1, 36062, Note_on_c, 1, 60, 0
1, 36064, Note_on_c, 1, 62, 64
1, 36089, Note_on_c, 0, 66, 0
1, 36094, Note_on_c, 1, 62, 0
1, 36096, Note_on_c, 0, 66, 75
1, 36096, Note_on_c, 1, 57, 64
1, 36126, Note_on_c, 1, 57, 0
1, 36128, Note_on_c, 1, 60, 64
1, 36135, Note_on_c, 0, 66, 0
1, 36158, Note_on_c, 1, 60, 0
1, 36160, Note_on_c, 1, 62, 64
1, 36190, Note_on_c, 1, 62, 0
1, 36192, Note_on_c, 0, 66, 75
1, 36192, Note_on_c, 1, 57, 64
1, 36222, Note_on_c, 1, 57, 0
1, 36224, Note_on_c, 1, 60, 64
1, 36231, Note_on_c, 0, 66, 0
1, 36254, Note_on_c, 1, 60, 0
1, 36256, Note_on_c, 1, 62, 64
1, 36286, Note_on_c, 1, 62, 0
1, 36288, Note_on_c, 0, 67, 75
1, 36288, Note_on_c, 1, 55, 64
1, 36318, Note_on_c, 1, 55, 0
1, 36320, Note_on_c, 1, 59, 64
1, 36350, Note_on_c, 1, 59, 0
1, 36352, Note_on_c, 1, 62, 64
1, 36377, Note_on_c, 0, 67, 0
1, 36382, Note_on_c, 1, 62, 0
1, 36384, Note_on_c, 0, 71, 75
1, 36384, Note_on_c, 1, 55, 64
1, 36414, Note_on_c, 1, 55, 0
1, 36416, Note_on_c, 1, 59, 64
1, 36423, Note_on_c, 0, 71, 0
1, 36446, Note_on_c, 1, 59, 0
1, 36448, Note_on_c, 1, 62, 64
1, 36478, Note_on_c, 1, 62, 0
1, 36480, Note_on_c, 0, 71, 75
1, 36480, Note_on_c, 1, 55, 64
1, 36510, Note_on_c, 1, 55, 0
1, 36512, Note_on_c, 1, 59, 64
1, 36519, Note_on_c, 0, 71, 0
1, 36542, Note_on_c, 1, 59, 0
1, 36544, Note_on_c, 1, 62, 64
1, 36574, Note_on_c, 1, 62, 0
1, 36576, Note_on_c, 0, 71, 75
1, 36576, Note_on_c, 1, 54, 64
1, 36591, Note_on_c, 0, 71, 0
1, 36592, Note_on_c, 0, 69, 75
1, 36606, Note_on_c, 1, 54, 0
1, 36607, Note_on_c, 0, 69, 0
1, 36608, Note_on_c, 0, 71, 75
1, 36608, Note_on_c, 1, 57, 64
1, 36623, Note_on_c, 0, 71, 0
1, 36624, Note_on_c, 0, 69, 75
1, 36638, Note_on_c, 1, 57, 0
1, 36639, Note_on_c, 0, 69, 0
1, 36640, Note_on_c, 0, 67, 75
1, 36640, Note_on_c, 1, 62, 64
1, 36655, Note_on_c, 0, 67, 0
1, 36656, Note_on_c, 0, 69, 75
1, 36670, Note_on_c, 1, 62, 0
1, 36671, Note_on_c, 0, 69, 0
1, 36672, Note_on_c, 0, 72, 75
1, 36672, Note_on_c, 1, 54, 64
1, 36702, Note_on_c, 1, 54, 0
1, 36704, Note_on_c, 1, 57, 64
1, 36711, Note_on_c, 0, 72, 0
1, 36734, Note_on_c, 1, 57, 0
1, 36736, Note_on_c, 1, 62, 64
1, 36766, Note_on_c, 1, 62, 0
1, 36768, Note_on_c, 0, 72, 75
1, 36768, Note_on_c, 1, 54, 64
1, 36798, Note_on_c, 1, 54, 0
1, 36800, Note_on_c, 1, 57, 64
1, 36807, Note_on_c, 0, 72, 0
1, 36830, Note_on_c, 1, 57, 0
1, 36832, Note_on_c, 1, 62, 64
1, 36862, Note_on_c, 1, 62, 0
1, 36864, Note_on_c, 0, 72, 75
1, 36864, Note_on_c, 1, 55, 64
1, 36894, Note_on_c, 1, 55, 0
1, 36896, Note_on_c, 1, 59, 64
1, 36926, Note_on_c, 1, 59, 0
1, 36928, Note_on_c, 1, 62, 64
1, 36958, Note_on_c, 1, 62, 0
1, 36960, Note_on_c, 0, 72, 0
1, 36960, Note_on_c, 0, 71, 75
1, 36960, Note_on_c, 1, 55, 64
1, 36990, Note_on_c, 1, 55, 0
1, 36992, Note_on_c, 1, 59, 64
1, 37022, Note_on_c, 1, 59, 0
1, 37024, Note_on_c, 1, 62, 64
1, 37049, Note_on_c, 0, 71, 0
1, 37054, Note_on_c, 1, 62, 0
1, 37056, Note_on_c, 0, 72, 75
1, 37056, Note_on_c, 1, 60, 64
1, 37086, Note_on_c, 1, 60, 0
1, 37088, Note_on_c, 1, 64, 64
1, 37118, Note_on_c, 1, 64, 0
1, 37120, Note_on_c, 1, 67, 64
1, 37145, Note_on_c, 0, 72, 0
1, 37150, Note_on_c, 1, 67, 0
1, 37152, Note_on_c, 0, 72, 75
1, 37152, Note_on_c, 1, 62, 64
1, 37170, Note_on_c, 0, 72, 0
1, 37170, Note_on_c, 0, 71, 75
1, 37182, Note_on_c, 1, 62, 0
1, 37184, Note_on_c, 1, 65, 64
1, 37214, Note_on_c, 1, 65, 0
1, 37216, Note_on_c, 1, 67, 64
1, 37241, Note_on_c, 0, 71, 0
1, 37246, Note_on_c, 1, 67, 0
1, 37248, Note_on_c, 0, 71, 75
1, 37248, Note_on_c, 1, 62, 64
1, 37278, Note_on_c, 1, 62, 0
1, 37280, Note_on_c, 1, 65, 64
1, 37287, Note_on_c, 0, 71, 0
1, 37310, Note_on_c, 1, 65, 0
1, 37312, Note_on_c, 1, 67, 64
1, 37342, Note_on_c, 1, 67, 0
1, 37344, Note_on_c, 0, 71, 75
1, 37344, Note_on_c, 1, 62, 64
1, 37374, Note_on_c, 1, 62, 0
1, 37376, Note_on_c, 1, 65, 64
1, 37383, Note_on_c, 0, 71, 0
1, 37406, Note_on_c, 1, 65, 0
1, 37408, Note_on_c, 1, 67, 64
1, 37438, Note_on_c, 1, 67, 0
1, 37440, Note_on_c, 0, 74, 75
1, 37440, Note_on_c, 1, 60, 64
1, 37458, Note_on_c, 0, 74, 0
1, 37458, Note_on_c, 0, 72, 75
1, 37470, Note_on_c, 1, 60, 0
1, 37472, Note_on_c, 1, 64, 64
1, 37476, Note_on_c, 0, 72, 0
1, 37476, Note_on_c, 0, 71, 75
1, 37494, Note_on_c, 0, 71, 0
1, 37494, Note_on_c, 0, 72, 75
1, 37502, Note_on_c, 1, 64, 0
1, 37504, Note_on_c, 1, 67, 64
1, 37529, Note_on_c, 0, 72, 0
1, 37534, Note_on_c, 1, 67, 0
1, 37536, Note_on_c, 0, 76, 75
1, 37536, Note_on_c, 1, 60, 64
1, 37566, Note_on_c, 1, 60, 0
1, 37568, Note_on_c, 1, 64, 64
1, 37575, Note_on_c, 0, 76, 0
1, 37598, Note_on_c, 1, 64, 0
1, 37600, Note_on_c, 1, 67, 64
1, 37630, Note_on_c, 1, 67, 0
1, 37632, Note_on_c, 0, 76, 75
1, 37632, Note_on_c, 1, 60, 64
1, 37662, Note_on_c, 1, 60, 0
1, 37664, Note_on_c, 1, 64, 64
1, 37671, Note_on_c, 0, 76, 0
1, 37694, Note_on_c, 1, 64, 0
1, 37696, Note_on_c, 1, 67, 64
1, 37726, Note_on_c, 1, 67, 0
1, 37728, Note_on_c, 0, 76, 75
1, 37728, Note_on_c, 1, 59, 64
1, 37743, Note_on_c, 0, 76, 0
1, 37744, Note_on_c, 0, 74, 75
1, 37758, Note_on_c, 1, 59, 0
1, 37759, Note_on_c, 0, 74, 0
1, 37760, Note_on_c, 0, 76, 75
1, 37760, Note_on_c, 1, 62, 64
1, 37775, Note_on_c, 0, 76, 0
1, 37776, Note_on_c, 0, 74, 75
1, 37790, Note_on_c, 1, 62, 0
1, 37791, Note_on_c, 0, 74, 0
1, 37792, Note_on_c, 0, 72, 75
1, 37792, Note_on_c, 1, 67, 64
1, 37807, Note_on_c, 0, 72, 0
1, 37808, Note_on_c, 0, 74, 75
1, 37822, Note_on_c, 1, 67, 0
1, 37823, Note_on_c, 0, 74, 0
1, 37824, Note_on_c, 0, 77, 75
1, 37824, Note_on_c, 1, 59, 64
1, 37854, Note_on_c, 1, 59, 0
1, 37856, Note_on_c, 1, 62, 64
1, 37863, Note_on_c, 0, 77, 0
1, 37886, Note_on_c, 1, 62, 0
1, 37888, Note_on_c, 1, 67, 64
1, 37918, Note_on_c, 1, 67, 0
1, 37920, Note_on_c, 0, 77, 75
1, 37920, Note_on_c, 1, 59, 64
1, 37950, Note_on_c, 1, 59, 0
1, 37952, Note_on_c, 1, 62, 64
1, 37959, Note_on_c, 0, 77, 0
1, 37982, Note_on_c, 1, 62, 0
1, 37984, Note_on_c, 1, 67, 64
1, 38014, Note_on_c, 1, 67, 0
1, 38016, Note_on_c, 0, 77, 75
1, 38016, Note_on_c, 1, 60, 64
1, 38046, Note_on_c, 1, 60, 0
1, 38048, Note_on_c, 1, 64, 64
1, 38078, Note_on_c, 1, 64, 0
1, 38080, Note_on_c, 1, 67, 64
1, 38110, Note_on_c, 1, 67, 0
1, 38112, Note_on_c, 0, 77, 0
1, 38112, Note_on_c, 0, 76, 75
1, 38112, Note_on_c, 1, 60, 64
1, 38142, Note_on_c, 1, 60, 0
1, 38144, Note_on_c, 1, 64, 64
1, 38174, Note_on_c, 1, 64, 0
1, 38176, Note_on_c, 1, 67, 64
1, 38201, Note_on_c, 0, 76, 0
1, 38206, Note_on_c, 1, 67, 0
1, 38208, Note_on_c, 0, 76, 75
1, 38208, Note_on_c, 1, 60, 64
1, 38238, Note_on_c, 1, 60, 0
1, 38240, Note_on_c, 1, 64, 64
1, 38270, Note_on_c, 1, 64, 0
1, 38272, Note_on_c, 1, 67, 64
1, 38297, Note_on_c, 0, 76, 0
1, 38302, Note_on_c, 1, 67, 0
1, 38304, Note_on_c, 0, 77, 75
1, 38304, Note_on_c, 1, 58, 64
1, 38319, Note_on_c, 0, 77, 0
1, 38320, Note_on_c, 0, 76, 75
1, 38334, Note_on_c, 1, 58, 0
1, 38335, Note_on_c, 0, 76, 0
1, 38336, Note_on_c, 0, 77, 75
1, 38336, Note_on_c, 1, 64, 64
1, 38351, Note_on_c, 0, 77, 0
1, 38352, Note_on_c, 0, 76, 75
1, 38366, Note_on_c, 1, 64, 0
1, 38367, Note_on_c, 0, 76, 0
1, 38368, Note_on_c, 0, 74, 75
1, 38368, Note_on_c, 1, 67, 64
1, 38383, Note_on_c, 0, 74, 0
1, 38384, Note_on_c, 0, 76, 75
1, 38398, Note_on_c, 1, 67, 0
1, 38399, Note_on_c, 0, 76, 0
1, 38400, Note_on_c, 0, 79, 75
1, 38400, Note_on_c, 1, 58, 64
1, 38430, Note_on_c, 1, 58, 0
1, 38432, Note_on_c, 1, 64, 64
1, 38462, Note_on_c, 1, 64, 0
1, 38464, Note_on_c, 1, 67, 64
1, 38489, Note_on_c, 0, 79, 0
1, 38494, Note_on_c, 1, 67, 0
1, 38496, Note_on_c, 0, 79, 75
1, 38496, Note_on_c, 1, 58, 64
1, 38526, Note_on_c, 1, 58, 0
1, 38528, Note_on_c, 1, 64, 64
1, 38558, Note_on_c, 1, 64, 0
1, 38560, Note_on_c, 1, 67, 64
1, 38585, Note_on_c, 0, 79, 0
1, 38590, Note_on_c, 1, 67, 0
1, 38592, Note_on_c, 0, 79, 75
1, 38592, Note_on_c, 1, 57, 64
1, 38607, Note_on_c, 0, 79, 0
1, 38608, Note_on_c, 0, 77, 75
1, 38622, Note_on_c, 1, 57, 0
1, 38623, Note_on_c, 0, 77, 0
1, 38624, Note_on_c, 0, 79, 75
1, 38624, Note_on_c, 1, 60, 64
1, 38639, Note_on_c, 0, 79, 0
1, 38640, Note_on_c, 0, 77, 75
1, 38654, Note_on_c, 1, 60, 0
1, 38655, Note_on_c, 0, 77, 0
1, 38656, Note_on_c, 0, 76, 75
1, 38656, Note_on_c, 1, 65, 64
1, 38671, Note_on_c, 0, 76, 0
1, 38672, Note_on_c, 0, 77, 75
1, 38686, Note_on_c, 1, 65, 0
1, 38687, Note_on_c, 0, 77, 0
1, 38688, Note_on_c, 0, 81, 75
1, 38688, Note_on_c, 1, 57, 64
1, 38718, Note_on_c, 1, 57, 0
1, 38720, Note_on_c, 1, 60, 64
1, 38750, Note_on_c, 1, 60, 0
1, 38752, Note_on_c, 1, 65, 64
1, 38777, Note_on_c, 0, 81, 0
1, 38782, Note_on_c, 1, 65, 0
1, 38784, Note_on_c, 0, 81, 75
1, 38784, Note_on_c, 1, 57, 64
1, 38814, Note_on_c, 1, 57, 0
1, 38816, Note_on_c, 1, 60, 64
1, 38846, Note_on_c, 1, 60, 0
1, 38848, Note_on_c, 1, 65, 64
1, 38873, Note_on_c, 0, 81, 0
1, 38878, Note_on_c, 1, 65, 0
1, 38880, Note_on_c, 0, 81, 75
1, 38880, Note_on_c, 1, 52, 64
1, 38895, Note_on_c, 0, 81, 0
1, 38896, Note_on_c, 0, 79, 75
1, 38910, Note_on_c, 1, 52, 0
1, 38911, Note_on_c, 0, 79, 0
1, 38912, Note_on_c, 0, 81, 75
1, 38912, Note_on_c, 1, 55, 64
1, 38927, Note_on_c, 0, 81, 0
1, 38928, Note_on_c, 0, 79, 75
1, 38942, Note_on_c, 1, 55, 0
1, 38943, Note_on_c, 0, 79, 0
1, 38944, Note_on_c, 0, 77, 75
1, 38944, Note_on_c, 1, 60, 64
1, 38959, Note_on_c, 0, 77, 0
1, 38960, Note_on_c, 0, 79, 75
1, 38974, Note_on_c, 1, 60, 0
1, 38975, Note_on_c, 0, 79, 0
1, 38976, Note_on_c, 0, 82, 75
1, 38976, Note_on_c, 1, 52, 64
1, 39006, Note_on_c, 1, 52, 0
1, 39008, Note_on_c, 1, 55, 64
1, 39038, Note_on_c, 1, 55, 0
1, 39040, Note_on_c, 1, 60, 64
1, 39065, Note_on_c, 0, 82, 0
1, 39070, Note_on_c, 1, 60, 0
1, 39072, Note_on_c, 0, 82, 75
1, 39072, Note_on_c, 1, 52, 64
1, 39102, Note_on_c, 1, 52, 0
1, 39104, Note_on_c, 1, 55, 64
1, 39134, Note_on_c, 1, 55, 0
1, 39136, Note_on_c, 1, 60, 64
1, 39161, Note_on_c, 0, 82, 0
1, 39166, Note_on_c, 1, 60, 0
1, 39168, Note_on_c, 0, 82, 75
1, 39168, Note_on_c, 1, 53, 64
1, 39198, Note_on_c, 1, 53, 0
1, 39200, Note_on_c, 1, 57, 64
1, 39230, Note_on_c, 1, 57, 0
1, 39232, Note_on_c, 1, 60, 64
1, 39262, Note_on_c, 1, 60, 0
1, 39264, Note_on_c, 0, 82, 0
1, 39264, Note_on_c, 0, 81, 75
1, 39264, Note_on_c, 1, 53, 64
1, 39294, Note_on_c, 1, 53, 0
1, 39296, Note_on_c, 1, 57, 64
1, 39326, Note_on_c, 1, 57, 0
1, 39328, Note_on_c, 1, 60, 64
1, 39353, Note_on_c, 0, 81, 0
1, 39358, Note_on_c, 1, 60, 0
1, 39360, Note_on_c, 0, 69, 75
1, 39360, Note_on_c, 1, 53, 64
1, 39390, Note_on_c, 1, 53, 0
1, 39392, Note_on_c, 1, 57, 64
1, 39422, Note_on_c, 1, 57, 0
1, 39424, Note_on_c, 1, 60, 64
1, 39449, Note_on_c, 0, 69, 0
1, 39454, Note_on_c, 1, 60, 0
1, 39456, Note_on_c, 0, 70, 75
1, 39456, Note_on_c, 1, 49, 64
1, 39474, Note_on_c, 0, 70, 0
1, 39474, Note_on_c, 0, 69, 75
1, 39486, Note_on_c, 1, 49, 0
1, 39488, Note_on_c, 1, 52, 64
1, 39492, Note_on_c, 0, 69, 0
1, 39492, Note_on_c, 0, 68, 75
1, 39510, Note_on_c, 0, 68, 0
1, 39510, Note_on_c, 0, 69, 75
1, 39518, Note_on_c, 1, 52, 0
1, 39520, Note_on_c, 1, 55, 64
1, 39545, Note_on_c, 0, 69, 0
1, 39550, Note_on_c, 1, 55, 0
1, 39552, Note_on_c, 0, 79, 75
1, 39552, Note_on_c, 1, 49, 64
1, 39582, Note_on_c, 1, 49, 0
1, 39584, Note_on_c, 1, 52, 64
1, 39614, Note_on_c, 1, 52, 0
1, 39616, Note_on_c, 1, 55, 64
1, 39641, Note_on_c, 0, 79, 0
1, 39646, Note_on_c, 1, 55, 0
1, 39648, Note_on_c, 0, 79, 75
1, 39648, Note_on_c, 1, 49, 64
1, 39678, Note_on_c, 1, 49, 0
1, 39680, Note_on_c, 1, 52, 64
1, 39710, Note_on_c, 1, 52, 0
1, 39712, Note_on_c, 1, 55, 64
1, 39737, Note_on_c, 0, 79, 0
1, 39742, Note_on_c, 1, 55, 0
1, 39744, Note_on_c, 0, 79, 75
1, 39744, Note_on_c, 1, 50, 64
1, 39774, Note_on_c, 1, 50, 0
1, 39776, Note_on_c, 1, 53, 64
1, 39806, Note_on_c, 1, 53, 0
1, 39808, Note_on_c, 1, 57, 64
1, 39833, Note_on_c, 0, 79, 0
1, 39838, Note_on_c, 1, 57, 0
1, 39840, Note_on_c, 0, 77, 75
1, 39840, Note_on_c, 1, 50, 64
1, 39870, Note_on_c, 1, 50, 0
1, 39872, Note_on_c, 1, 53, 64
1, 39902, Note_on_c, 1, 53, 0
1, 39904, Note_on_c, 1, 57, 64
1, 39929, Note_on_c, 0, 77, 0
1, 39934, Note_on_c, 1, 57, 0
1, 39936, Note_on_c, 0, 69, 75
1, 39936, Note_on_c, 1, 50, 64
1, 39966, Note_on_c, 1, 50, 0
1, 39968, Note_on_c, 1, 53, 64
1, 39998, Note_on_c, 1, 53, 0
1, 40000, Note_on_c, 1, 57, 64
1, 40025, Note_on_c, 0, 69, 0
1, 40030, Note_on_c, 1, 57, 0
1, 40032, Note_on_c, 0, 69, 75
1, 40032, Note_on_c, 1, 47, 64
1, 40050, Note_on_c, 0, 69, 0
1, 40050, Note_on_c, 0, 67, 75
1, 40062, Note_on_c, 1, 47, 0
1, 40064, Note_on_c, 1, 50, 64
1, 40068, Note_on_c, 0, 67, 0
1, 40068, Note_on_c, 0, 66, 75
1, 40086, Note_on_c, 0, 66, 0
1, 40086, Note_on_c, 0, 67, 75
1, 40094, Note_on_c, 1, 50, 0
1, 40096, Note_on_c, 1, 55, 64
1, 40121, Note_on_c, 0, 67, 0
1, 40126, Note_on_c, 1, 55, 0
1, 40128, Note_on_c, 0, 77, 75
1, 40128, Note_on_c, 1, 47, 64
1, 40158, Note_on_c, 1, 47, 0
1, 40160, Note_on_c, 1, 50, 64
1, 40190, Note_on_c, 1, 50, 0
1, 40192, Note_on_c, 1, 55, 64
1, 40217, Note_on_c, 0, 77, 0
1, 40222, Note_on_c, 1, 55, 0
1, 40224, Note_on_c, 0, 77, 75
1, 40224, Note_on_c, 1, 47, 64
1, 40254, Note_on_c, 1, 47, 0
1, 40256, Note_on_c, 1, 50, 64
1, 40286, Note_on_c, 1, 50, 0
1, 40288, Note_on_c, 1, 55, 64
1, 40313, Note_on_c, 0, 77, 0
1, 40318, Note_on_c, 1, 55, 0
1, 40320, Note_on_c, 0, 76, 75
1, 40320, Note_on_c, 1, 48, 64
1, 40350, Note_on_c, 0, 76, 0
1, 40352, Note_on_c, 0, 74, 75
1, 40382, Note_on_c, 0, 74, 0
1, 40384, Note_on_c, 0, 72, 75
1, 40409, Note_on_c, 1, 48, 0
1, 40414, Note_on_c, 0, 72, 0
1, 40416, Note_on_c, 0, 79, 75
1, 40446, Note_on_c, 0, 79, 0
1, 40448, Note_on_c, 0, 77, 75
1, 40478, Note_on_c, 0, 77, 0
1, 40480, Note_on_c, 0, 76, 75
1, 40510, Note_on_c, 0, 76, 0
1, 40512, Note_on_c, 0, 74, 75
1, 40512, Note_on_c, 1, 52, 64
1, 40542, Note_on_c, 0, 74, 0
1, 40544, Note_on_c, 0, 72, 75
1, 40574, Note_on_c, 0, 72, 0
1, 40576, Note_on_c, 0, 71, 75
1, 40601, Note_on_c, 1, 52, 0
1, 40606, Note_on_c, 0, 71, 0
1, 40608, Note_on_c, 0, 69, 75
1, 40608, Note_on_c, 1, 53, 64
1, 40638, Note_on_c, 0, 69, 0
1, 40640, Note_on_c, 0, 77, 75
1, 40670, Note_on_c, 0, 77, 0
1, 40672, Note_on_c, 0, 79, 75
1, 40697, Note_on_c, 1, 53, 0
1, 40702, Note_on_c, 0, 79, 0
1, 40704, Note_on_c, 0, 81, 75
1, 40734, Note_on_c, 0, 81, 0
1, 40736, Note_on_c, 0, 79, 75
1, 40766, Note_on_c, 0, 79, 0
1, 40768, Note_on_c, 0, 77, 75
1, 40798, Note_on_c, 0, 77, 0
1, 40800, Note_on_c, 0, 76, 75
1, 40800, Note_on_c, 1, 54, 64
1, 40830, Note_on_c, 0, 76, 0
1, 40832, Note_on_c, 0, 74, 75
1, 40862, Note_on_c, 0, 74, 0
1, 40864, Note_on_c, 0, 72, 75
1, 40889, Note_on_c, 1, 54, 0
1, 40894, Note_on_c, 0, 72, 0
1, 40896, Note_on_c, 0, 72, 75
1, 40896, Note_on_c, 1, 55, 64
1, 40985, Note_on_c, 1, 55, 0
1, 40992, Note_on_c, 0, 72, 0
1, 40992, Note_on_c, 0, 71, 75
1, 40992, Note_on_c, 1, 43, 64
1, 41081, Note_on_c, 0, 71, 0
1, 41081, Note_on_c, 1, 43, 0
1, 41088, Note_on_c, 0, 79, 75
1, 41177, Note_on_c, 0, 79, 0
1, 41184, Note_on_c, 0, 80, 75
1, 41184, Note_on_c, 1, 60, 64
1, 41202, Note_on_c, 0, 80, 0
1, 41202, Note_on_c, 0, 79, 75
1, 41214, Note_on_c, 1, 60, 0
1, 41216, Note_on_c, 1, 63, 64
1, 41220, Note_on_c, 0, 79, 0
1, 41220, Note_on_c, 0, 78, 75
1, 41238, Note_on_c, 0, 78, 0
1, 41238, Note_on_c, 0, 79, 75
1, 41246, Note_on_c, 1, 63, 0
1, 41248, Note_on_c, 1, 67, 64
1, 41273, Note_on_c, 0, 79, 0
1, 41278, Note_on_c, 1, 67, 0
1, 41280, Note_on_c, 0, 75, 75
1, 41280, Note_on_c, 1, 60, 64
1, 41310, Note_on_c, 1, 60, 0
1, 41312, Note_on_c, 1, 63, 64
1, 41342, Note_on_c, 1, 63, 0
1, 41344, Note_on_c, 1, 67, 64
1, 41369, Note_on_c, 0, 75, 0
1, 41374, Note_on_c, 1, 67, 0
1, 41376, Note_on_c, 0, 79, 75
1, 41376, Note_on_c, 1, 60, 64
1, 41406, Note_on_c, 1, 60, 0
1, 41408, Note_on_c, 1, 63, 64
1, 41438, Note_on_c, 1, 63, 0
1, 41440, Note_on_c, 1, 67, 64
1, 41465, Note_on_c, 0, 79, 0
1, 41470, Note_on_c, 1, 67, 0
1, 41472, Note_on_c, 0, 80, 75
1, 41472, Note_on_c, 1, 59, 64
1, 41490, Note_on_c, 0, 80, 0
1, 41490, Note_on_c, 0, 79, 75
1, 41502, Note_on_c, 1, 59, 0
1, 41504, Note_on_c, 1, 62, 64
1, 41508, Note_on_c, 0, 79, 0
1, 41508, Note_on_c, 0, 78, 75
1, 41526, Note_on_c, 0, 78, 0
1, 41526, Note_on_c, 0, 79, 75
1, 41534, Note_on_c, 1, 62, 0
1, 41536, Note_on_c, 1, 67, 64
1, 41561, Note_on_c, 0, 79, 0
1, 41566, Note_on_c, 1, 67, 0
1, 41568, Note_on_c, 0, 74, 75
1, 41568, Note_on_c, 1, 59, 64
1, 41598, Note_on_c, 1, 59, 0
1, 41600, Note_on_c, 1, 62, 64
1, 41630, Note_on_c, 1, 62, 0
1, 41632, Note_on_c, 1, 67, 64
1, 41657, Note_on_c, 0, 74, 0
1, 41662, Note_on_c, 1, 67, 0
1, 41664, Note_on_c, 0, 77, 75
1, 41664, Note_on_c, 1, 59, 64
1, 41694, Note_on_c, 1, 59, 0
1, 41696, Note_on_c, 1, 62, 64
1, 41726, Note_on_c, 1, 62, 0
1, 41728, Note_on_c, 1, 67, 64
1, 41753, Note_on_c, 0, 77, 0
1, 41758, Note_on_c, 1, 67, 0
1, 41760, Note_on_c, 0, 75, 75
1, 41760, Note_on_c, 1, 60, 64
1, 41790, Note_on_c, 0, 75, 0
1, 41792, Note_on_c, 0, 74, 75
1, 41822, Note_on_c, 0, 74, 0
1, 41824, Note_on_c, 0, 72, 75
1, 41849, Note_on_c, 1, 60, 0
1, 41854, Note_on_c, 0, 72, 0
1, 41856, Note_on_c, 0, 84, 75
1, 41886, Note_on_c, 0, 84, 0
1, 41888, Note_on_c, 0, 82, 75
1, 41918, Note_on_c, 0, 82, 0
1, 41920, Note_on_c, 0, 80, 75
1, 41950, Note_on_c, 0, 80, 0
1, 41952, Note_on_c, 0, 80, 75
1, 41952, Note_on_c, 1, 72, 64
1, 41952, Note_on_c, 1, 68, 64
1, 41982, Note_on_c, 0, 80, 0
1, 41984, Note_on_c, 0, 79, 75
1, 42014, Note_on_c, 0, 79, 0
1, 42016, Note_on_c, 0, 78, 75
1, 42041, Note_on_c, 1, 72, 0
1, 42041, Note_on_c, 1, 68, 0
1, 42046, Note_on_c, 0, 78, 0
1, 42048, Note_on_c, 0, 78, 75
1, 42048, Note_on_c, 1, 72, 64
1, 42144, Note_on_c, 0, 78, 0
1, 42144, Note_on_c, 0, 79, 75
1, 42144, Note_on_c, 1, 72, 0
1, 42144, Note_on_c, 1, 71, 64
1, 42144, Note_on_c, 1, 67, 64
1, 42225, Note_on_c, 1, 71, 0
1, 42225, Note_on_c, 1, 67, 0
1, 42233, Note_on_c, 0, 79, 0
1, 42240, Note_on_c, 0, 67, 75
1, 42329, Note_on_c, 0, 67, 0
1, 42336, Note_on_c, 0, 68, 75
1, 42336, Note_on_c, 1, 48, 64
1, 42354, Note_on_c, 0, 68, 0
1, 42354, Note_on_c, 0, 67, 75
1, 42366, Note_on_c, 1, 48, 0
1, 42368, Note_on_c, 1, 51, 64
1, 42372, Note_on_c, 0, 67, 0
1, 42372, Note_on_c, 0, 66, 75
1, 42390, Note_on_c, 0, 66, 0
1, 42390, Note_on_c, 0, 67, 75
1, 42398, Note_on_c, 1, 51, 0
1, 42400, Note_on_c, 1, 55, 64
1, 42425, Note_on_c, 0, 67, 0
1, 42430, Note_on_c, 1, 55, 0
1, 42432, Note_on_c, 0, 63, 75
1, 42432, Note_on_c, 1, 48, 64
1, 42462, Note_on_c, 1, 48, 0
1, 42464, Note_on_c, 1, 51, 64
1, 42494, Note_on_c, 1, 51, 0
1, 42496, Note_on_c, 1, 55, 64
1, 42521, Note_on_c, 0, 63, 0
1, 42526, Note_on_c, 1, 55, 0
1, 42528, Note_on_c, 0, 67, 75
1, 42528, Note_on_c, 1, 48, 64
1, 42558, Note_on_c, 1, 48, 0
1, 42560, Note_on_c, 1, 51, 64
1, 42590, Note_on_c, 1, 51, 0
1, 42592, Note_on_c, 1, 55, 64
1, 42617, Note_on_c, 0, 67, 0
1, 42622, Note_on_c, 1, 55, 0
1, 42624, Note_on_c, 0, 68, 75
1, 42624, Note_on_c, 1, 47, 64
1, 42642, Note_on_c, 0, 68, 0
1, 42642, Note_on_c, 0, 67, 75
1, 42654, Note_on_c, 1, 47, 0
1, 42656, Note_on_c, 1, 50, 64
1, 42660, Note_on_c, 0, 67, 0
1, 42660, Note_on_c, 0, 66, 75
1, 42678, Note_on_c, 0, 66, 0
1, 42678, Note_on_c, 0, 67, 75
1, 42686, Note_on_c, 1, 50, 0
1, 42688, Note_on_c, 1, 55, 64
1, 42713, Note_on_c, 0, 67, 0
1, 42718, Note_on_c, 1, 55, 0
1, 42720, Note_on_c, 0, 62, 75
1, 42720, Note_on_c, 1, 47, 64
1, 42750, Note_on_c, 1, 47, 0
1, 42752, Note_on_c, 1, 50, 64
1, 42782, Note_on_c, 1, 50, 0
1, 42784, Note_on_c, 1, 55, 64
1, 42809, Note_on_c, 0, 62, 0
1, 42814, Note_on_c, 1, 55, 0
1, 42816, Note_on_c, 0, 65, 75
1, 42816, Note_on_c, 1, 47, 64
1, 42846, Note_on_c, 1, 47, 0
1, 42848, Note_on_c, 1, 50, 64
1, 42878, Note_on_c, 1, 50, 0
1, 42880, Note_on_c, 1, 55, 64
1, 42905, Note_on_c, 0, 65, 0
1, 42910, Note_on_c, 1, 55, 0
1, 42912, Note_on_c, 0, 63, 75
1, 42912, Note_on_c, 1, 48, 64
1, 42942, Note_on_c, 0, 63, 0
1, 42944, Note_on_c, 0, 62, 75
1, 42974, Note_on_c, 0, 62, 0
1, 42976, Note_on_c, 0, 60, 75
1, 43001, Note_on_c, 1, 48, 0
1, 43006, Note_on_c, 0, 60, 0
1, 43008, Note_on_c, 0, 72, 75
1, 43038, Note_on_c, 0, 72, 0
1, 43040, Note_on_c, 0, 70, 75
1, 43070, Note_on_c, 0, 70, 0
1, 43072, Note_on_c, 0, 68, 75
1, 43102, Note_on_c, 0, 68, 0
1, 43104, Note_on_c, 0, 68, 75
1, 43104, Note_on_c, 1, 60, 64
1, 43104, Note_on_c, 1, 56, 64
1, 43134, Note_on_c, 0, 68, 0
1, 43136, Note_on_c, 0, 67, 75
1, 43166, Note_on_c, 0, 67, 0
1, 43168, Note_on_c, 0, 66, 75
1, 43193, Note_on_c, 1, 60, 0
1, 43193, Note_on_c, 1, 56, 0
1, 43198, Note_on_c, 0, 66, 0
1, 43200, Note_on_c, 0, 66, 75
1, 43200, Note_on_c, 1, 60, 64
1, 43296, Note_on_c, 0, 66, 0
1, 43296, Note_on_c, 0, 67, 75
1, 43296, Note_on_c, 1, 60, 0
1, 43296, Note_on_c, 1, 59, 64
1, 43296, Note_on_c, 1, 55, 64
1, 43377, Note_on_c, 1, 59, 0
1, 43377, Note_on_c, 1, 55, 0
1, 43385, Note_on_c, 0, 67, 0
1, 43392, Note_on_c, 0, 67, 75
1, 43481, Note_on_c, 0, 67, 0
1, 43488, Note_on_c, 0, 69, 75
1, 43488, Note_on_c, 1, 47, 64
1, 43506, Note_on_c, 0, 69, 0
1, 43506, Note_on_c, 0, 67, 75
1, 43518, Note_on_c, 1, 47, 0
1, 43520, Note_on_c, 1, 50, 64
1, 43524, Note_on_c, 0, 67, 0
1, 43524, Note_on_c, 0, 66, 75
1, 43542, Note_on_c, 0, 66, 0
1, 43542, Note_on_c, 0, 67, 75
1, 43550, Note_on_c, 1, 50, 0
1, 43552, Note_on_c, 1, 55, 64
1, 43577, Note_on_c, 0, 67, 0
1, 43582, Note_on_c, 1, 55, 0
1, 43584, Note_on_c, 0, 77, 75
1, 43584, Note_on_c, 1, 47, 64
1, 43614, Note_on_c, 1, 47, 0
1, 43616, Note_on_c, 1, 50, 64
1, 43646, Note_on_c, 1, 50, 0
1, 43648, Note_on_c, 1, 55, 64
1, 43673, Note_on_c, 0, 77, 0
1, 43678, Note_on_c, 1, 55, 0
1, 43680, Note_on_c, 0, 77, 75
1, 43680, Note_on_c, 1, 47, 64
1, 43710, Note_on_c, 1, 47, 0
1, 43712, Note_on_c, 1, 50, 64
1, 43742, Note_on_c, 1, 50, 0
1, 43744, Note_on_c, 1, 55, 64
1, 43769, Note_on_c, 0, 77, 0
1, 43774, Note_on_c, 1, 55, 0
1, 43776, Note_on_c, 0, 77, 75
1, 43776, Note_on_c, 1, 48, 64
1, 43806, Note_on_c, 1, 48, 0
1, 43808, Note_on_c, 1, 52, 64
1, 43838, Note_on_c, 1, 52, 0
1, 43840, Note_on_c, 1, 55, 64
1, 43870, Note_on_c, 1, 55, 0
1, 43872, Note_on_c, 0, 77, 0
1, 43872, Note_on_c, 0, 76, 75
1, 43872, Note_on_c, 1, 48, 64
1, 43902, Note_on_c, 1, 48, 0
1, 43904, Note_on_c, 1, 52, 64
1, 43934, Note_on_c, 1, 52, 0
1, 43936, Note_on_c, 1, 55, 64
1, 43961, Note_on_c, 0, 76, 0
1, 43966, Note_on_c, 1, 55, 0
1, 43968, Note_on_c, 0, 67, 58
1, 43968, Note_on_c, 1, 48, 58
1, 43998, Note_on_c, 1, 48, 0
1, 44000, Note_on_c, 1, 52, 58
1, 44030, Note_on_c, 1, 52, 0
1, 44032, Note_on_c, 1, 55, 58
1, 44057, Note_on_c, 0, 67, 0
1, 44062, Note_on_c, 1, 55, 0
1, 44064, Note_on_c, 0, 69, 58
1, 44064, Note_on_c, 1, 47, 58
1, 44082, Note_on_c, 0, 69, 0
1, 44082, Note_on_c, 0, 67, 58
1, 44094, Note_on_c, 1, 47, 0
1, 44096, Note_on_c, 1, 50, 58
1, 44100, Note_on_c, 0, 67, 0
1, 44100, Note_on_c, 0, 66, 58
1, 44118, Note_on_c, 0, 66, 0
1, 44118, Note_on_c, 0, 67, 58
1, 44126, Note_on_c, 1, 50, 0
1, 44128, Note_on_c, 1, 55, 58
1, 44153, Note_on_c, 0, 67, 0
1, 44158, Note_on_c, 1, 55, 0
1, 44160, Note_on_c, 0, 77, 58
1, 44160, Note_on_c, 1, 47, 58
1, 44190, Note_on_c, 1, 47, 0
1, 44192, Note_on_c, 1, 50, 58
1, 44222, Note_on_c, 1, 50, 0
1, 44224, Note_on_c, 1, 55, 58
1, 44249, Note_on_c, 0, 77, 0
1, 44254, Note_on_c, 1, 55, 0
1, 44256, Note_on_c, 0, 77, 58
1, 44256, Note_on_c, 1, 47, 58
1, 44286, Note_on_c, 1, 47, 0
1, 44288, Note_on_c, 1, 50, 58
1, 44318, Note_on_c, 1, 50, 0
1, 44320, Note_on_c, 1, 55, 58
1, 44345, Note_on_c, 0, 77, 0
1, 44350, Note_on_c, 1, 55, 0
1, 44352, Note_on_c, 0, 77, 58
1, 44352, Note_on_c, 1, 48, 58
1, 44382, Note_on_c, 1, 48, 0
1, 44384, Note_on_c, 1, 52, 58
1, 44414, Note_on_c, 1, 52, 0
1, 44416, Note_on_c, 1, 55, 58
1, 44446, Note_on_c, 1, 55, 0
1, 44448, Note_on_c, 0, 77, 0
1, 44448, Note_on_c, 0, 76, 58
1, 44448, Note_on_c, 1, 48, 58
1, 44478, Note_on_c, 1, 48, 0
1, 44480, Note_on_c, 1, 52, 58
1, 44510, Note_on_c, 1, 52, 0
1, 44512, Note_on_c, 1, 55, 58
1, 44537, Note_on_c, 0, 76, 0
1, 44542, Note_on_c, 1, 55, 0
1, 44544, Note_on_c, 0, 72, 75
1, 44544, Note_on_c, 1, 48, 64
1, 44574, Note_on_c, 1, 48, 0
1, 44576, Note_on_c, 1, 52, 64
1, 44606, Note_on_c, 1, 52, 0
1, 44608, Note_on_c, 1, 55, 64
1, 44633, Note_on_c, 0, 72, 0
1, 44638, Note_on_c, 1, 55, 0
1, 44640, Note_on_c, 0, 74, 75
1, 44640, Note_on_c, 1, 52, 64
1, 44658, Note_on_c, 0, 74, 0
1, 44658, Note_on_c, 0, 72, 75
1, 44670, Note_on_c, 1, 52, 0
1, 44672, Note_on_c, 1, 55, 64
1, 44676, Note_on_c, 0, 72, 0
1, 44676, Note_on_c, 0, 71, 75
1, 44694, Note_on_c, 0, 71, 0
1, 44694, Note_on_c, 0, 72, 75
1, 44702, Note_on_c, 1, 55, 0
1, 44704, Note_on_c, 1, 60, 65
1, 44729, Note_on_c, 0, 72, 0
1, 44734, Note_on_c, 1, 60, 0
1, 44736, Note_on_c, 0, 84, 76
1, 44736, Note_on_c, 1, 52, 66
1, 44766, Note_on_c, 1, 52, 0
1, 44768, Note_on_c, 1, 55, 67
1, 44798, Note_on_c, 1, 55, 0
1, 44800, Note_on_c, 1, 60, 68
1, 44825, Note_on_c, 0, 84, 0
1, 44830, Note_on_c, 1, 60, 0
1, 44832, Note_on_c, 0, 84, 77
1, 44832, Note_on_c, 1, 52, 68
1, 44862, Note_on_c, 1, 52, 0
1, 44864, Note_on_c, 1, 55, 70
1, 44894, Note_on_c, 1, 55, 0
1, 44896, Note_on_c, 1, 60, 70
1, 44921, Note_on_c, 0, 84, 0
1, 44926, Note_on_c, 1, 60, 0
1, 44928, Note_on_c, 0, 83, 79
1, 44928, Note_on_c, 1, 53, 70
1, 44958, Note_on_c, 1, 53, 0
1, 44960, Note_on_c, 1, 57, 70
1, 44976, Note_on_c, 0, 83, 0
1, 44976, Note_on_c, 0, 81, 79
1, 44990, Note_on_c, 1, 57, 0
1, 44992, Note_on_c, 1, 62, 70
1, 45021, Note_on_c, 0, 81, 0
1, 45022, Note_on_c, 1, 62, 0
1, 45024, Note_on_c, 0, 79, 79
1, 45024, Note_on_c, 1, 53, 70
1, 45054, Note_on_c, 1, 53, 0
1, 45056, Note_on_c, 1, 57, 70
1, 45072, Note_on_c, 0, 79, 0
1, 45072, Note_on_c, 0, 77, 79
1, 45086, Note_on_c, 1, 57, 0
1, 45088, Note_on_c, 1, 62, 70
1, 45117, Note_on_c, 0, 77, 0
1, 45118, Note_on_c, 1, 62, 0
1, 45120, Note_on_c, 0, 76, 79
1, 45120, Note_on_c, 1, 53, 70
1, 45150, Note_on_c, 1, 53, 0
1, 45152, Note_on_c, 1, 57, 70
1, 45168, Note_on_c, 0, 76, 0
1, 45168, Note_on_c, 0, 74, 79
1, 45182, Note_on_c, 1, 57, 0
1, 45184, Note_on_c, 1, 62, 70
1, 45213, Note_on_c, 0, 74, 0
1, 45214, Note_on_c, 1, 62, 0
1, 45216, Note_on_c, 0, 72, 79
1, 45216, Note_on_c, 1, 55, 70
1, 45246, Note_on_c, 1, 55, 0
1, 45248, Note_on_c, 1, 60, 69
1, 45278, Note_on_c, 1, 60, 0
1, 45280, Note_on_c, 1, 64, 68
1, 45310, Note_on_c, 1, 64, 0
1, 45312, Note_on_c, 1, 55, 68
1, 45342, Note_on_c, 1, 55, 0
1, 45344, Note_on_c, 1, 60, 67
1, 45374, Note_on_c, 1, 60, 0
1, 45376, Note_on_c, 1, 64, 66
1, 45393, Note_on_c, 0, 72, 0
1, 45406, Note_on_c, 1, 64, 0
1, 45408, Note_on_c, 0, 74, 76
1, 45408, Note_on_c, 1, 55, 66
1, 45438, Note_on_c, 1, 55, 0
1, 45440, Note_on_c, 1, 62, 65
1, 45470, Note_on_c, 1, 62, 0
1, 45472, Note_on_c, 1, 65, 65
1, 45475, Note_on_c, 0, 74, 0
1, 45480, Note_on_c, 0, 71, 75
1, 45502, Note_on_c, 1, 65, 0
1, 45503, Note_on_c, 0, 71, 0
1, 45504, Note_on_c, 0, 72, 75
1, 45504, Note_on_c, 1, 60, 64
1, 45534, Note_on_c, 1, 60, 0
1, 45536, Note_on_c, 1, 64, 64
1, 45566, Note_on_c, 1, 64, 0
1, 45568, Note_on_c, 1, 67, 64
1, 45593, Note_on_c, 0, 72, 0
1, 45598, Note_on_c, 1, 67, 0
1, 45600, Note_on_c, 1, 60, 64
1, 45630, Note_on_c, 1, 60, 0
1, 45632, Note_on_c, 1, 64, 64
1, 45662, Note_on_c, 1, 64, 0
1, 45664, Note_on_c, 1, 67, 64
1, 45694, Note_on_c, 1, 67, 0
1, 45696, Note_on_c, 0, 79, 75
1, 45696, Note_on_c, 1, 60, 64
1, 45726, Note_on_c, 1, 60, 0
1, 45728, Note_on_c, 1, 64, 64
1, 45758, Note_on_c, 1, 64, 0
1, 45760, Note_on_c, 1, 67, 64
1, 45785, Note_on_c, 0, 79, 0
1, 45790, Note_on_c, 1, 67, 0
1, 45792, Note_on_c, 0, 81, 75
1, 45792, Note_on_c, 1, 59, 64
1, 45810, Note_on_c, 0, 81, 0
1, 45810, Note_on_c, 0, 79, 75
1, 45822, Note_on_c, 1, 59, 0
1, 45824, Note_on_c, 1, 62, 64
1, 45828, Note_on_c, 0, 79, 0
1, 45828, Note_on_c, 0, 78, 75
1, 45846, Note_on_c, 0, 78, 0
1, 45846, Note_on_c, 0, 79, 75
1, 45854, Note_on_c, 1, 62, 0
1, 45856, Note_on_c, 1, 67, 64
1, 45881, Note_on_c, 0, 79, 0
1, 45886, Note_on_c, 1, 67, 0
1, 45888, Note_on_c, 0, 74, 75
1, 45888, Note_on_c, 1, 59, 64
1, 45918, Note_on_c, 1, 59, 0
1, 45920, Note_on_c, 1, 62, 64
1, 45950, Note_on_c, 1, 62, 0
1, 45952, Note_on_c, 1, 67, 64
1, 45977, Note_on_c, 0, 74, 0
1, 45982, Note_on_c, 1, 67, 0
1, 45984, Note_on_c, 0, 79, 75
1, 45984, Note_on_c, 1, 59, 64
1, 46014, Note_on_c, 1, 59, 0
1, 46016, Note_on_c, 1, 62, 64
1, 46046, Note_on_c, 1, 62, 0
1, 46048, Note_on_c, 1, 67, 64
1, 46073, Note_on_c, 0, 79, 0
1, 46078, Note_on_c, 1, 67, 0
1, 46080, Note_on_c, 0, 77, 75
1, 46080, Note_on_c, 1, 60, 64
1, 46110, Note_on_c, 1, 60, 0
1, 46112, Note_on_c, 1, 64, 64
1, 46142, Note_on_c, 1, 64, 0
1, 46144, Note_on_c, 1, 67, 64
1, 46174, Note_on_c, 1, 67, 0
1, 46176, Note_on_c, 0, 77, 0
1, 46176, Note_on_c, 0, 76, 75
1, 46176, Note_on_c, 1, 60, 64
1, 46206, Note_on_c, 1, 60, 0
1, 46208, Note_on_c, 1, 64, 64
1, 46238, Note_on_c, 1, 64, 0
1, 46240, Note_on_c, 1, 67, 64
1, 46265, Note_on_c, 0, 76, 0
1, 46270, Note_on_c, 1, 67, 0
1, 46272, Note_on_c, 0, 86, 75
1, 46272, Note_on_c, 1, 60, 64
1, 46295, Note_on_c, 0, 86, 0
1, 46296, Note_on_c, 0, 84, 75
1, 46302, Note_on_c, 1, 60, 0
1, 46304, Note_on_c, 1, 64, 64
1, 46319, Note_on_c, 0, 84, 0
1, 46320, Note_on_c, 0, 83, 75
1, 46334, Note_on_c, 1, 64, 0
1, 46336, Note_on_c, 1, 67, 64
1, 46343, Note_on_c, 0, 83, 0
1, 46344, Note_on_c, 0, 81, 75
1, 46366, Note_on_c, 1, 67, 0
1, 46367, Note_on_c, 0, 81, 0
1, 46368, Note_on_c, 0, 79, 75
1, 46368, Note_on_c, 1, 59, 64
1, 46398, Note_on_c, 1, 59, 0
1, 46400, Note_on_c, 1, 62, 64
1, 46430, Note_on_c, 1, 62, 0
1, 46432, Note_on_c, 1, 67, 64
1, 46457, Note_on_c, 0, 79, 0
1, 46462, Note_on_c, 1, 67, 0
1, 46464, Note_on_c, 0, 74, 75
1, 46464, Note_on_c, 1, 59, 64
1, 46494, Note_on_c, 1, 59, 0
1, 46496, Note_on_c, 1, 62, 64
1, 46526, Note_on_c, 1, 62, 0
1, 46528, Note_on_c, 1, 67, 64
1, 46553, Note_on_c, 0, 74, 0
1, 46558, Note_on_c, 1, 67, 0
1, 46560, Note_on_c, 0, 77, 75
1, 46560, Note_on_c, 1, 59, 64
1, 46590, Note_on_c, 1, 59, 0
1, 46592, Note_on_c, 1, 62, 64
1, 46622, Note_on_c, 1, 62, 0
1, 46624, Note_on_c, 1, 67, 64
1, 46649, Note_on_c, 0, 77, 0
1, 46654, Note_on_c, 1, 67, 0
1, 46656, Note_on_c, 0, 76, 75
1, 46656, Note_on_c, 1, 60, 64
1, 46686, Note_on_c, 0, 76, 0
1, 46688, Note_on_c, 0, 77, 75
1, 46718, Note_on_c, 0, 77, 0
1, 46720, Note_on_c, 0, 79, 75
1, 46745, Note_on_c, 1, 60, 0
1, 46750, Note_on_c, 0, 79, 0
1, 46752, Note_on_c, 0, 71, 75
1, 46752, Note_on_c, 1, 62, 64
1, 46782, Note_on_c, 0, 71, 0
1, 46784, Note_on_c, 0, 72, 75
1, 46814, Note_on_c, 0, 72, 0
1, 46816, Note_on_c, 0, 74, 75
1, 46841, Note_on_c, 1, 62, 0
1, 46846, Note_on_c, 0, 74, 0
1, 46848, Note_on_c, 0, 72, 75
1, 46848, Note_on_c, 1, 64, 64
1, 46915, Note_on_c, 0, 72, 0
1, 46920, Note_on_c, 0, 84, 75
1, 46937, Note_on_c, 1, 64, 0
1, 46943, Note_on_c, 0, 84, 0
1, 46944, Note_on_c, 0, 83, 75
1, 46944, Note_on_c, 1, 65, 64
1, 46967, Note_on_c, 0, 83, 0
1, 46968, Note_on_c, 0, 81, 75
1, 46991, Note_on_c, 0, 81, 0
1, 46992, Note_on_c, 0, 79, 75
1, 47015, Note_on_c, 0, 79, 0
1, 47016, Note_on_c, 0, 77, 75
1, 47033, Note_on_c, 1, 65, 0
1, 47039, Note_on_c, 0, 77, 0
1, 47040, Note_on_c, 0, 76, 75
1, 47040, Note_on_c, 1, 67, 64
1, 47129, Note_on_c, 0, 76, 0
1, 47129, Note_on_c, 1, 67, 0
1, 47136, Note_on_c, 0, 76, 75
1, 47136, Note_on_c, 1, 55, 64
1, 47151, Note_on_c, 0, 76, 0
1, 47152, Note_on_c, 0, 74, 75
1, 47167, Note_on_c, 0, 74, 0
1, 47168, Note_on_c, 0, 76, 75
1, 47183, Note_on_c, 0, 76, 0
1, 47184, Note_on_c, 0, 74, 75
1, 47199, Note_on_c, 0, 74, 0
1, 47200, Note_on_c, 0, 72, 75
1, 47215, Note_on_c, 0, 72, 0
1, 47216, Note_on_c, 0, 74, 75
1, 47225, Note_on_c, 1, 55, 0
1, 47231, Note_on_c, 0, 74, 0
1, 47232, Note_on_c, 0, 76, 75
1, 47232, Note_on_c, 1, 60, 64
1, 47262, Note_on_c, 0, 76, 0
1, 47264, Note_on_c, 0, 77, 75
1, 47294, Note_on_c, 0, 77, 0
1, 47296, Note_on_c, 0, 79, 75
1, 47321, Note_on_c, 1, 60, 0
1, 47326, Note_on_c, 0, 79, 0
1, 47328, Note_on_c, 0, 71, 76
1, 47328, Note_on_c, 1, 62, 66
1, 47358, Note_on_c, 0, 71, 0
1, 47360, Note_on_c, 0, 72, 76
1, 47390, Note_on_c, 0, 72, 0
1, 47392, Note_on_c, 0, 74, 76
1, 47417, Note_on_c, 1, 62, 0
1, 47422, Note_on_c, 0, 74, 0
1, 47424, Note_on_c, 0, 72, 77
1, 47424, Note_on_c, 1, 64, 69
1, 47491, Note_on_c, 0, 72, 0
1, 47496, Note_on_c, 0, 84, 78
1, 47513, Note_on_c, 1, 64, 0
1, 47519, Note_on_c, 0, 84, 0
1, 47520, Note_on_c, 0, 83, 78
1, 47520, Note_on_c, 1, 65, 72
1, 47543, Note_on_c, 0, 83, 0
1, 47544, Note_on_c, 0, 81, 78
1, 47567, Note_on_c, 0, 81, 0
1, 47568, Note_on_c, 0, 79, 78
1, 47591, Note_on_c, 0, 79, 0
1, 47592, Note_on_c, 0, 77, 78
1, 47609, Note_on_c, 1, 65, 0
1, 47615, Note_on_c, 0, 77, 0
1, 47616, Note_on_c, 0, 76, 78
1, 47616, Note_on_c, 1, 67, 75
1, 47705, Note_on_c, 0, 76, 0
1, 47705, Note_on_c, 1, 67, 0
1, 47712, Note_on_c, 0, 76, 76
1, 47712, Note_on_c, 1, 55, 69
1, 47727, Note_on_c, 0, 76, 0
1, 47728, Note_on_c, 0, 74, 76
1, 47743, Note_on_c, 0, 74, 0
1, 47744, Note_on_c, 0, 76, 76
1, 47759, Note_on_c, 0, 76, 0
1, 47760, Note_on_c, 0, 74, 76
1, 47775, Note_on_c, 0, 74, 0
1, 47776, Note_on_c, 0, 72, 75
1, 47791, Note_on_c, 0, 72, 0
1, 47792, Note_on_c, 0, 74, 75
1, 47801, Note_on_c, 1, 55, 0
1, 47807, Note_on_c, 0, 74, 0
1, 47808, Note_on_c, 0, 72, 64
1, 47808, Note_on_c, 1, 60, 64
1, 47897, Note_on_c, 0, 72, 0
1, 47897, Note_on_c, 1, 60, 0
1, 47904, Note_on_c, 0, 79, 67
1, 47934, Note_on_c, 0, 79, 0
1, 47936, Note_on_c, 0, 76, 68
1, 47966, Note_on_c, 0, 76, 0
1, 47968, Note_on_c, 0, 72, 69
1, 47998, Note_on_c, 0, 72, 0
1, 48000, Note_on_c, 0, 77, 71
1, 48000, Note_on_c, 1, 62, 71
1, 48000, Note_on_c, 1, 55, 71
1, 48030, Note_on_c, 0, 77, 0
1, 48032, Note_on_c, 0, 74, 72
1, 48062, Note_on_c, 0, 74, 0
1, 48064, Note_on_c, 0, 71, 73
1, 48089, Note_on_c, 1, 62, 0
1, 48089, Note_on_c, 1, 55, 0
1, 48094, Note_on_c, 0, 71, 0
1, 48096, Note_on_c, 0, 72, 74
1, 48096, Note_on_c, 1, 64, 75
1, 48096, Note_on_c, 1, 60, 75
1, 48185, Note_on_c, 0, 72, 0
1, 48185, Note_on_c, 1, 64, 0
1, 48185, Note_on_c, 1, 60, 0
1, 48192, Note_on_c, 0, 79, 70
1, 48222, Note_on_c, 0, 79, 0
1, 48224, Note_on_c, 0, 76, 68
1, 48254, Note_on_c, 0, 76, 0
1, 48256, Note_on_c, 0, 72, 66
1, 48286, Note_on_c, 0, 72, 0
1, 48288, Note_on_c, 0, 77, 64
1, 48288, Note_on_c, 1, 62, 63
1, 48288, Note_on_c, 1, 55, 63
1, 48318, Note_on_c, 0, 77, 0
1, 48320, Note_on_c, 0, 74, 62
1, 48350, Note_on_c, 0, 74, 0
1, 48352, Note_on_c, 0, 71, 61
1, 48377, Note_on_c, 1, 62, 0
1, 48377, Note_on_c, 1, 55, 0
1, 48382, Note_on_c, 0, 71, 0
1, 48384, Note_on_c, 0, 72, 58
1, 48384, Note_on_c, 1, 64, 58
1, 48384, Note_on_c, 1, 60, 58
1, 48473, Note_on_c, 0, 72, 0
1, 48473, Note_on_c, 1, 64, 0
1, 48473, Note_on_c, 1, 60, 0
1, 48576, Note_on_c, 1, 60, 0
1, 48665, Note_on_c, 1, 60, 0
1, 48675, End_track
0, 0, End_of_file