0, 0, Header, 0, 1, 96
1, 0, Start_track
1, 0, Tempo, 444444
1, 0, Note_on_c, 0, 74, 72
1, 0, Note_on_c, 1, 60, 72
1, 12, Note_on_c, 0, 74, 0
1, 12, Note_on_c, 0, 72, 72
1, 23, Note_on_c, 1, 60, 0
1, 24, Note_on_c, 0, 72, 0
1, 24, Note_on_c, 0, 71, 72
1, 24, Note_on_c, 1, 67, 72
1, 36, Note_on_c, 0, 71, 0
1, 36, Note_on_c, 0, 72, 72
1, 47, Note_on_c, 1, 67, 0
1, 48, Note_on_c, 1, 64, 72
1, 71, Note_on_c, 1, 64, 0
1, 72, Note_on_c, 1, 67, 72
1, 89, Note_on_c, 0, 72, 0
1, 95, Note_on_c, 1, 67, 0
1, 96, Note_on_c, 0, 76, 72
1, 96, Note_on_c, 1, 60, 72
1, 111, Note_on_c, 0, 76, 0
1, 112, Note_on_c, 0, 74, 72
1, 119, Note_on_c, 1, 60, 0
1, 120, Note_on_c, 1, 67, 72
1, 127, Note_on_c, 0, 74, 0
1, 128, Note_on_c, 0, 72, 72
1, 143, Note_on_c, 0, 72, 0
1, 143, Note_on_c, 1, 67, 0
1, 144, Note_on_c, 0, 79, 72
1, 144, Note_on_c, 1, 59, 72
1, 167, Note_on_c, 1, 59, 0
1, 168, Note_on_c, 1, 67, 72
1, 191, Note_on_c, 1, 67, 0
1, 192, Note_on_c, 1, 62, 72
1, 215, Note_on_c, 1, 62, 0
1, 216, Note_on_c, 1, 67, 72
1, 233, Note_on_c, 0, 79, 0
1, 239, Note_on_c, 1, 67, 0
1, 240, Note_on_c, 0, 77, 72
1, 240, Note_on_c, 1, 59, 72
1, 263, Note_on_c, 1, 59, 0
1, 264, Note_on_c, 1, 67, 72
1, 285, Note_on_c, 0, 77, 0
1, 287, Note_on_c, 1, 67, 0
1, 288, Note_on_c, 0, 76, 88
1, 288, Note_on_c, 1, 60, 72
1, 358, Note_on_c, 1, 60, 0
1, 360, Note_on_c, 0, 76, 0
1, 384, Note_on_c, 0, 76, 72
1, 384, Note_on_c, 1, 60, 72
1, 407, Note_on_c, 0, 76, 0
1, 408, Note_on_c, 0, 67, 72
1, 429, Note_on_c, 1, 60, 0
1, 431, Note_on_c, 0, 67, 0
1, 432, Note_on_c, 0, 74, 72
1, 432, Note_on_c, 1, 59, 72
1, 455, Note_on_c, 0, 74, 0
1, 456, Note_on_c, 0, 67, 72
1, 479, Note_on_c, 0, 67, 0
1, 480, Note_on_c, 0, 74, 72
1, 503, Note_on_c, 0, 74, 0
1, 504, Note_on_c, 0, 67, 72
1, 521, Note_on_c, 1, 59, 0
1, 527, Note_on_c, 0, 67, 0
1, 528, Note_on_c, 0, 76, 72
1, 528, Note_on_c, 1, 60, 72
1, 551, Note_on_c, 0, 76, 0
1, 552, Note_on_c, 0, 67, 72
1, 573, Note_on_c, 1, 60, 0
1, 575, Note_on_c, 0, 67, 0
1, 576, Note_on_c, 0, 77, 72
1, 576, Note_on_c, 1, 62, 72
1, 599, Note_on_c, 0, 77, 0
1, 600, Note_on_c, 0, 67, 72
1, 621, Note_on_c, 1, 62, 0
1, 623, Note_on_c, 0, 67, 0
1, 624, Note_on_c, 0, 76, 72
1, 624, Note_on_c, 1, 60, 72
1, 647, Note_on_c, 0, 76, 0
1, 648, Note_on_c, 0, 67, 72
1, 669, Note_on_c, 1, 60, 0
1, 671, Note_on_c, 0, 67, 0
1, 672, Note_on_c, 0, 74, 72
1, 672, Note_on_c, 1, 59, 72
1, 695, Note_on_c, 0, 74, 0
1, 696, Note_on_c, 0, 67, 72
1, 717, Note_on_c, 1, 59, 0
1, 719, Note_on_c, 0, 67, 0
1, 720, Note_on_c, 0, 77, 72
1, 720, Note_on_c, 1, 60, 72
1, 732, Note_on_c, 0, 77, 0
1, 732, Note_on_c, 0, 76, 72
1, 744, Note_on_c, 0, 76, 0
1, 744, Note_on_c, 0, 74, 72
1, 756, Note_on_c, 0, 74, 0
1, 756, Note_on_c, 0, 76, 72
1, 787, Note_on_c, 0, 76, 0
1, 809, Note_on_c, 1, 60, 0
1, 816, Note_on_c, 0, 67, 72
1, 831, Note_on_c, 0, 67, 0
1, 832, Note_on_c, 0, 69, 72
1, 847, Note_on_c, 0, 69, 0
1, 848, Note_on_c, 0, 71, 72
1, 863, Note_on_c, 0, 71, 0
1, 864, Note_on_c, 0, 72, 72
1, 864, Note_on_c, 1, 60, 72
1, 887, Note_on_c, 1, 60, 0
1, 888, Note_on_c, 1, 67, 72
1, 911, Note_on_c, 1, 67, 0
1, 912, Note_on_c, 1, 64, 72
1, 935, Note_on_c, 1, 64, 0
1, 936, Note_on_c, 1, 67, 72
1, 953, Note_on_c, 0, 72, 0
1, 959, Note_on_c, 1, 67, 0
1, 960, Note_on_c, 0, 76, 72
1, 960, Note_on_c, 1, 60, 72
1, 975, Note_on_c, 0, 76, 0
1, 976, Note_on_c, 0, 74, 72
1, 983, Note_on_c, 1, 60, 0
1, 984, Note_on_c, 1, 67, 72
1, 991, Note_on_c, 0, 74, 0
1, 992, Note_on_c, 0, 72, 72
1, 1007, Note_on_c, 0, 72, 0
1, 1007, Note_on_c, 1, 67, 0
1, 1008, Note_on_c, 0, 79, 72
1, 1008, Note_on_c, 1, 59, 72
1, 1031, Note_on_c, 1, 59, 0
1, 1032, Note_on_c, 1, 67, 72
1, 1055, Note_on_c, 1, 67, 0
1, 1056, Note_on_c, 1, 62, 72
1, 1079, Note_on_c, 1, 62, 0
1, 1080, Note_on_c, 1, 67, 72
1, 1097, Note_on_c, 0, 79, 0
1, 1103, Note_on_c, 1, 67, 0
1, 1104, Note_on_c, 0, 77, 72
1, 1104, Note_on_c, 1, 59, 72
1, 1127, Note_on_c, 1, 59, 0
1, 1128, Note_on_c, 1, 67, 72
1, 1149, Note_on_c, 0, 77, 0
1, 1151, Note_on_c, 1, 67, 0
1, 1152, Note_on_c, 0, 76, 72
1, 1152, Note_on_c, 1, 60, 72
1, 1219, Note_on_c, 0, 76, 0
1, 1219, Note_on_c, 1, 60, 0
1, 1248, Note_on_c, 0, 76, 72
1, 1248, Note_on_c, 1, 60, 72
1, 1271, Note_on_c, 0, 76, 0
1, 1272, Note_on_c, 0, 67, 72
1, 1293, Note_on_c, 1, 60, 0
1, 1295, Note_on_c, 0, 67, 0
1, 1296, Note_on_c, 0, 74, 72
1, 1296, Note_on_c, 1, 59, 72
1, 1319, Note_on_c, 0, 74, 0
1, 1320, Note_on_c, 0, 67, 72
1, 1343, Note_on_c, 0, 67, 0
1, 1344, Note_on_c, 0, 74, 72
1, 1367, Note_on_c, 0, 74, 0
1, 1368, Note_on_c, 0, 67, 72
1, 1385, Note_on_c, 1, 59, 0
1, 1391, Note_on_c, 0, 67, 0
1, 1392, Note_on_c, 0, 76, 72
1, 1392, Note_on_c, 1, 60, 72
1, 1415, Note_on_c, 0, 76, 0
1, 1416, Note_on_c, 0, 67, 72
1, 1437, Note_on_c, 1, 60, 0
1, 1439, Note_on_c, 0, 67, 0
1, 1440, Note_on_c, 0, 74, 72
1, 1440, Note_on_c, 1, 62, 72
1, 1463, Note_on_c, 0, 74, 0
1, 1464, Note_on_c, 0, 67, 72
1, 1487, Note_on_c, 0, 67, 0
1, 1488, Note_on_c, 0, 74, 72
1, 1511, Note_on_c, 0, 74, 0
1, 1512, Note_on_c, 0, 67, 72
1, 1529, Note_on_c, 1, 62, 0
1, 1535, Note_on_c, 0, 67, 0
1, 1536, Note_on_c, 0, 72, 72
1, 1536, Note_on_c, 1, 52, 72
1, 1559, Note_on_c, 0, 72, 0
1, 1560, Note_on_c, 0, 67, 72
1, 1581, Note_on_c, 1, 52, 0
1, 1583, Note_on_c, 0, 67, 0
1, 1584, Note_on_c, 0, 71, 72
1, 1584, Note_on_c, 1, 50, 72
1, 1607, Note_on_c, 0, 71, 0
1, 1608, Note_on_c, 0, 74, 72
1, 1631, Note_on_c, 0, 74, 0
1, 1632, Note_on_c, 0, 71, 72
1, 1655, Note_on_c, 0, 71, 0
1, 1656, Note_on_c, 0, 67, 72
1, 1673, Note_on_c, 1, 50, 0
1, 1679, Note_on_c, 0, 67, 0
1, 1680, Note_on_c, 0, 69, 72
1, 1680, Note_on_c, 1, 38, 72
1, 1703, Note_on_c, 0, 69, 0
1, 1704, Note_on_c, 0, 66, 72
1, 1725, Note_on_c, 1, 38, 0
1, 1727, Note_on_c, 0, 66, 0
1, 1728, Note_on_c, 0, 67, 72
1, 1728, Note_on_c, 1, 43, 72
1, 1751, Note_on_c, 1, 43, 0
1, 1752, Note_on_c, 1, 55, 72
1, 1775, Note_on_c, 1, 55, 0
1, 1776, Note_on_c, 1, 45, 72
1, 1799, Note_on_c, 1, 45, 0
1, 1800, Note_on_c, 1, 57, 72
1, 1817, Note_on_c, 0, 67, 0
1, 1823, Note_on_c, 1, 57, 0
1, 1824, Note_on_c, 1, 47, 72
1, 1847, Note_on_c, 1, 47, 0
1, 1848, Note_on_c, 1, 59, 72
1, 1871, Note_on_c, 1, 59, 0
1, 1872, Note_on_c, 1, 45, 72
1, 1895, Note_on_c, 1, 45, 0
1, 1896, Note_on_c, 1, 57, 72
1, 1919, Note_on_c, 1, 57, 0
1, 1920, Note_on_c, 1, 47, 72
1, 1943, Note_on_c, 1, 47, 0
1, 1944, Note_on_c, 1, 59, 72
1, 1967, Note_on_c, 1, 59, 0
1, 1968, Note_on_c, 1, 48, 72
1, 1991, Note_on_c, 1, 48, 0
1, 1992, Note_on_c, 1, 60, 72
1, 2015, Note_on_c, 1, 60, 0
1, 2016, Note_on_c, 1, 47, 72
1, 2039, Note_on_c, 1, 47, 0
1, 2040, Note_on_c, 1, 59, 72
1, 2063, Note_on_c, 1, 59, 0
1, 2064, Note_on_c, 1, 48, 72
1, 2087, Note_on_c, 1, 48, 0
1, 2088, Note_on_c, 1, 60, 72
1, 2111, Note_on_c, 1, 60, 0
1, 2112, Note_on_c, 1, 50, 72
1, 2135, Note_on_c, 1, 50, 0
1, 2136, Note_on_c, 1, 62, 72
1, 2159, Note_on_c, 1, 62, 0
1, 2160, Note_on_c, 1, 64, 72
1, 2160, Note_on_c, 1, 52, 72
1, 2208, Note_on_c, 0, 84, 72
1, 2223, Note_on_c, 0, 84, 0
1, 2224, Note_on_c, 0, 83, 72
1, 2239, Note_on_c, 0, 83, 0
1, 2240, Note_on_c, 0, 81, 72
1, 2249, Note_on_c, 1, 64, 0
1, 2249, Note_on_c, 1, 52, 0
1, 2255, Note_on_c, 0, 81, 0
1, 2256, Note_on_c, 0, 79, 72
1, 2271, Note_on_c, 0, 79, 0
1, 2272, Note_on_c, 0, 78, 72
1, 2287, Note_on_c, 0, 78, 0
1, 2288, Note_on_c, 0, 76, 72
1, 2303, Note_on_c, 0, 76, 0
1, 2304, Note_on_c, 0, 74, 72
1, 2304, Note_on_c, 1, 54, 72
1, 2327, Note_on_c, 0, 74, 0
1, 2328, Note_on_c, 0, 81, 72
1, 2351, Note_on_c, 0, 81, 0
1, 2352, Note_on_c, 0, 84, 72
1, 2375, Note_on_c, 0, 84, 0
1, 2376, Note_on_c, 0, 81, 72
1, 2393, Note_on_c, 1, 54, 0
1, 2399, Note_on_c, 0, 81, 0
1, 2400, Note_on_c, 0, 83, 72
1, 2400, Note_on_c, 1, 55, 72
1, 2423, Note_on_c, 0, 83, 0
1, 2424, Note_on_c, 0, 79, 72
1, 2445, Note_on_c, 1, 55, 0
1, 2447, Note_on_c, 0, 79, 0
1, 2448, Note_on_c, 0, 81, 72
1, 2448, Note_on_c, 1, 60, 72
1, 2493, Note_on_c, 0, 81, 0
1, 2493, Note_on_c, 1, 60, 0
1, 2496, Note_on_c, 0, 79, 72
1, 2496, Note_on_c, 1, 62, 72
1, 2541, Note_on_c, 0, 79, 0
1, 2541, Note_on_c, 1, 62, 0
1, 2544, Note_on_c, 0, 79, 72
1, 2544, Note_on_c, 1, 50, 72
1, 2556, Note_on_c, 0, 79, 0
1, 2556, Note_on_c, 0, 78, 72
1, 2568, Note_on_c, 0, 78, 0
1, 2568, Note_on_c, 0, 79, 72
1, 2580, Note_on_c, 0, 79, 0
1, 2580, Note_on_c, 0, 78, 72
1, 2589, Note_on_c, 1, 50, 0
1, 2592, Note_on_c, 0, 78, 0
1, 2592, Note_on_c, 0, 79, 72
1, 2592, Note_on_c, 0, 74, 72
1, 2592, Note_on_c, 0, 71, 72
1, 2592, Note_on_c, 1, 43, 72
1, 2615, Note_on_c, 1, 43, 0
1, 2616, Note_on_c, 1, 55, 72
1, 2639, Note_on_c, 1, 55, 0
1, 2640, Note_on_c, 1, 45, 72
1, 2663, Note_on_c, 1, 45, 0
1, 2664, Note_on_c, 1, 57, 72
1, 2681, Note_on_c, 0, 79, 0
1, 2681, Note_on_c, 0, 74, 0
1, 2681, Note_on_c, 0, 71, 0
1, 2687, Note_on_c, 1, 57, 0
1, 2688, Note_on_c, 1, 47, 72
1, 2711, Note_on_c, 1, 47, 0
1, 2712, Note_on_c, 1, 59, 72
1, 2735, Note_on_c, 1, 59, 0
1, 2736, Note_on_c, 1, 45, 72
1, 2759, Note_on_c, 1, 45, 0
1, 2760, Note_on_c, 1, 57, 72
1, 2783, Note_on_c, 1, 57, 0
1, 2784, Note_on_c, 1, 47, 72
1, 2807, Note_on_c, 1, 47, 0
1, 2808, Note_on_c, 1, 59, 72
1, 2831, Note_on_c, 1, 59, 0
1, 2832, Note_on_c, 1, 48, 72
1, 2855, Note_on_c, 1, 48, 0
1, 2856, Note_on_c, 1, 60, 72
1, 2879, Note_on_c, 1, 60, 0
1, 2880, Note_on_c, 1, 47, 72
1, 2903, Note_on_c, 1, 47, 0
1, 2904, Note_on_c, 1, 59, 72
1, 2927, Note_on_c, 1, 59, 0
1, 2928, Note_on_c, 1, 48, 72
1, 2951, Note_on_c, 1, 48, 0
1, 2952, Note_on_c, 1, 60, 72
1, 2975, Note_on_c, 1, 60, 0
1, 2976, Note_on_c, 1, 50, 72
1, 2999, Note_on_c, 1, 50, 0
1, 3000, Note_on_c, 1, 62, 72
1, 3023, Note_on_c, 1, 62, 0
1, 3024, Note_on_c, 1, 64, 72
1, 3024, Note_on_c, 1, 52, 72
1, 3072, Note_on_c, 0, 84, 72
1, 3087, Note_on_c, 0, 84, 0
1, 3088, Note_on_c, 0, 83, 72
1, 3103, Note_on_c, 0, 83, 0
1, 3104, Note_on_c, 0, 81, 72
1, 3113, Note_on_c, 1, 64, 0
1, 3113, Note_on_c, 1, 52, 0
1, 3119, Note_on_c, 0, 81, 0
1, 3120, Note_on_c, 0, 79, 72
1, 3135, Note_on_c, 0, 79, 0
1, 3136, Note_on_c, 0, 78, 72
1, 3151, Note_on_c, 0, 78, 0
1, 3152, Note_on_c, 0, 76, 72
1, 3167, Note_on_c, 0, 76, 0
1, 3168, Note_on_c, 0, 74, 72
1, 3168, Note_on_c, 1, 54, 72
1, 3191, Note_on_c, 0, 74, 0
1, 3192, Note_on_c, 0, 81, 72
1, 3215, Note_on_c, 0, 81, 0
1, 3216, Note_on_c, 0, 84, 72
1, 3239, Note_on_c, 0, 84, 0
1, 3240, Note_on_c, 0, 81, 72
1, 3257, Note_on_c, 1, 54, 0
1, 3263, Note_on_c, 0, 81, 0
1, 3264, Note_on_c, 0, 83, 72
1, 3264, Note_on_c, 1, 55, 72
1, 3287, Note_on_c, 0, 83, 0
1, 3288, Note_on_c, 0, 79, 72
1, 3309, Note_on_c, 1, 55, 0
1, 3311, Note_on_c, 0, 79, 0
1, 3312, Note_on_c, 0, 81, 72
1, 3312, Note_on_c, 1, 60, 72
1, 3357, Note_on_c, 0, 81, 0
1, 3357, Note_on_c, 1, 60, 0
1, 3360, Note_on_c, 0, 79, 72
1, 3360, Note_on_c, 1, 62, 72
1, 3405, Note_on_c, 0, 79, 0
1, 3405, Note_on_c, 1, 62, 0
1, 3408, Note_on_c, 0, 79, 72
1, 3408, Note_on_c, 1, 50, 72
1, 3420, Note_on_c, 0, 79, 0
1, 3420, Note_on_c, 0, 78, 72
1, 3432, Note_on_c, 0, 78, 0
1, 3432, Note_on_c, 0, 79, 72
1, 3444, Note_on_c, 0, 79, 0
1, 3444, Note_on_c, 0, 78, 72
1, 3453, Note_on_c, 1, 50, 0
1, 3456, Note_on_c, 0, 78, 0
1, 3456, Note_on_c, 0, 71, 72
1, 3456, Note_on_c, 1, 55, 72
1, 3464, Note_on_c, 0, 74, 72
1, 3472, Note_on_c, 0, 79, 72
1, 3501, Note_on_c, 1, 55, 0
1, 3504, Note_on_c, 1, 50, 72
1, 3549, Note_on_c, 0, 79, 0
1, 3549, Note_on_c, 0, 74, 0
1, 3549, Note_on_c, 0, 71, 0
1, 3549, Note_on_c, 1, 50, 0
1, 3552, Note_on_c, 1, 43, 72
1, 3597, Note_on_c, 1, 43, 0
1, 3600, Note_on_c, 0, 74, 72
1, 3600, Note_on_c, 1, 60, 72
1, 3612, Note_on_c, 0, 74, 0
1, 3612, Note_on_c, 0, 72, 72
1, 3623, Note_on_c, 1, 60, 0
1, 3624, Note_on_c, 0, 72, 0
1, 3624, Note_on_c, 0, 71, 72
1, 3624, Note_on_c, 1, 67, 72
1, 3636, Note_on_c, 0, 71, 0
1, 3636, Note_on_c, 0, 72, 72
1, 3647, Note_on_c, 1, 67, 0
1, 3648, Note_on_c, 1, 64, 72
1, 3671, Note_on_c, 1, 64, 0
1, 3672, Note_on_c, 1, 67, 72
1, 3689, Note_on_c, 0, 72, 0
1, 3695, Note_on_c, 1, 67, 0
1, 3696, Note_on_c, 0, 76, 72
1, 3696, Note_on_c, 1, 60, 72
1, 3711, Note_on_c, 0, 76, 0
1, 3712, Note_on_c, 0, 74, 72
1, 3719, Note_on_c, 1, 60, 0
1, 3720, Note_on_c, 1, 67, 72
1, 3727, Note_on_c, 0, 74, 0
1, 3728, Note_on_c, 0, 72, 72
1, 3743, Note_on_c, 0, 72, 0
1, 3743, Note_on_c, 1, 67, 0
1, 3744, Note_on_c, 0, 79, 72
1, 3744, Note_on_c, 1, 59, 72
1, 3767, Note_on_c, 1, 59, 0
1, 3768, Note_on_c, 1, 67, 72
1, 3791, Note_on_c, 1, 67, 0
1, 3792, Note_on_c, 1, 62, 72
1, 3815, Note_on_c, 1, 62, 0
1, 3816, Note_on_c, 1, 67, 72
1, 3833, Note_on_c, 0, 79, 0
1, 3839, Note_on_c, 1, 67, 0
1, 3840, Note_on_c, 0, 77, 72
1, 3840, Note_on_c, 1, 59, 72
1, 3863, Note_on_c, 1, 59, 0
1, 3864, Note_on_c, 1, 67, 72
1, 3885, Note_on_c, 0, 77, 0
1, 3887, Note_on_c, 1, 67, 0
1, 3888, Note_on_c, 0, 76, 88
1, 3888, Note_on_c, 1, 60, 72
1, 3958, Note_on_c, 1, 60, 0
1, 3960, Note_on_c, 0, 76, 0
1, 3984, Note_on_c, 0, 76, 72
1, 3984, Note_on_c, 1, 60, 72
1, 4007, Note_on_c, 0, 76, 0
1, 4008, Note_on_c, 0, 67, 72
1, 4029, Note_on_c, 1, 60, 0
1, 4031, Note_on_c, 0, 67, 0
1, 4032, Note_on_c, 0, 74, 72
1, 4032, Note_on_c, 1, 59, 72
1, 4055, Note_on_c, 0, 74, 0
1, 4056, Note_on_c, 0, 67, 72
1, 4079, Note_on_c, 0, 67, 0
1, 4080, Note_on_c, 0, 74, 72
1, 4103, Note_on_c, 0, 74, 0
1, 4104, Note_on_c, 0, 67, 72
1, 4121, Note_on_c, 1, 59, 0
1, 4127, Note_on_c, 0, 67, 0
1, 4128, Note_on_c, 0, 76, 72
1, 4128, Note_on_c, 1, 60, 72
1, 4151, Note_on_c, 0, 76, 0
1, 4152, Note_on_c, 0, 67, 72
1, 4173, Note_on_c, 1, 60, 0
1, 4175, Note_on_c, 0, 67, 0
1, 4176, Note_on_c, 0, 77, 72
1, 4176, Note_on_c, 1, 62, 72
1, 4199, Note_on_c, 0, 77, 0
1, 4200, Note_on_c, 0, 67, 72
1, 4221, Note_on_c, 1, 62, 0
1, 4223, Note_on_c, 0, 67, 0
1, 4224, Note_on_c, 0, 76, 72
1, 4224, Note_on_c, 1, 60, 72
1, 4247, Note_on_c, 0, 76, 0
1, 4248, Note_on_c, 0, 67, 72
1, 4269, Note_on_c, 1, 60, 0
1, 4271, Note_on_c, 0, 67, 0
1, 4272, Note_on_c, 0, 74, 72
1, 4272, Note_on_c, 1, 59, 72
1, 4295, Note_on_c, 0, 74, 0
1, 4296, Note_on_c, 0, 67, 72
1, 4317, Note_on_c, 1, 59, 0
1, 4319, Note_on_c, 0, 67, 0
1, 4320, Note_on_c, 0, 77, 72
1, 4320, Note_on_c, 1, 60, 72
1, 4332, Note_on_c, 0, 77, 0
1, 4332, Note_on_c, 0, 76, 72
1, 4344, Note_on_c, 0, 76, 0
1, 4344, Note_on_c, 0, 74, 72
1, 4356, Note_on_c, 0, 74, 0
1, 4356, Note_on_c, 0, 76, 72
1, 4387, Note_on_c, 0, 76, 0
1, 4409, Note_on_c, 1, 60, 0
1, 4416, Note_on_c, 0, 67, 72
1, 4431, Note_on_c, 0, 67, 0
1, 4432, Note_on_c, 0, 69, 72
1, 4447, Note_on_c, 0, 69, 0
1, 4448, Note_on_c, 0, 71, 72
1, 4463, Note_on_c, 0, 71, 0
1, 4464, Note_on_c, 0, 72, 72
1, 4464, Note_on_c, 1, 60, 72
1, 4487, Note_on_c, 1, 60, 0
1, 4488, Note_on_c, 1, 67, 72
1, 4511, Note_on_c, 1, 67, 0
1, 4512, Note_on_c, 1, 64, 72
1, 4535, Note_on_c, 1, 64, 0
1, 4536, Note_on_c, 1, 67, 72
1, 4553, Note_on_c, 0, 72, 0
1, 4559, Note_on_c, 1, 67, 0
1, 4560, Note_on_c, 0, 76, 72
1, 4560, Note_on_c, 1, 60, 72
1, 4575, Note_on_c, 0, 76, 0
1, 4576, Note_on_c, 0, 74, 72
1, 4583, Note_on_c, 1, 60, 0
1, 4584, Note_on_c, 1, 67, 72
1, 4591, Note_on_c, 0, 74, 0
1, 4592, Note_on_c, 0, 72, 72
1, 4607, Note_on_c, 0, 72, 0
1, 4607, Note_on_c, 1, 67, 0
1, 4608, Note_on_c, 0, 79, 72
1, 4608, Note_on_c, 1, 59, 72
1, 4631, Note_on_c, 1, 59, 0
1, 4632, Note_on_c, 1, 67, 72
1, 4655, Note_on_c, 1, 67, 0
1, 4656, Note_on_c, 1, 62, 72
1, 4679, Note_on_c, 1, 62, 0
1, 4680, Note_on_c, 1, 67, 72
1, 4697, Note_on_c, 0, 79, 0
1, 4703, Note_on_c, 1, 67, 0
1, 4704, Note_on_c, 0, 77, 72
1, 4704, Note_on_c, 1, 59, 72
1, 4727, Note_on_c, 1, 59, 0
1, 4728, Note_on_c, 1, 67, 72
1, 4749, Note_on_c, 0, 77, 0
1, 4751, Note_on_c, 1, 67, 0
1, 4752, Note_on_c, 0, 76, 72
1, 4752, Note_on_c, 1, 60, 72
1, 4819, Note_on_c, 0, 76, 0
1, 4819, Note_on_c, 1, 60, 0
1, 4848, Note_on_c, 0, 76, 72
1, 4848, Note_on_c, 1, 60, 72
1, 4871, Note_on_c, 0, 76, 0
1, 4872, Note_on_c, 0, 67, 72
1, 4893, Note_on_c, 1, 60, 0
1, 4895, Note_on_c, 0, 67, 0
1, 4896, Note_on_c, 0, 74, 72
1, 4896, Note_on_c, 1, 59, 72
1, 4919, Note_on_c, 0, 74, 0
1, 4920, Note_on_c, 0, 67, 72
1, 4943, Note_on_c, 0, 67, 0
1, 4944, Note_on_c, 0, 74, 72
1, 4967, Note_on_c, 0, 74, 0
1, 4968, Note_on_c, 0, 67, 72
1, 4985, Note_on_c, 1, 59, 0
1, 4991, Note_on_c, 0, 67, 0
1, 4992, Note_on_c, 0, 76, 72
1, 4992, Note_on_c, 1, 60, 72
1, 5015, Note_on_c, 0, 76, 0
1, 5016, Note_on_c, 0, 67, 72
1, 5037, Note_on_c, 1, 60, 0
1, 5039, Note_on_c, 0, 67, 0
1, 5040, Note_on_c, 0, 74, 72
1, 5040, Note_on_c, 1, 62, 72
1, 5063, Note_on_c, 0, 74, 0
1, 5064, Note_on_c, 0, 67, 72
1, 5087, Note_on_c, 0, 67, 0
1, 5088, Note_on_c, 0, 74, 72
1, 5111, Note_on_c, 0, 74, 0
1, 5112, Note_on_c, 0, 67, 72
1, 5129, Note_on_c, 1, 62, 0
1, 5135, Note_on_c, 0, 67, 0
1, 5136, Note_on_c, 0, 72, 72
1, 5136, Note_on_c, 1, 52, 72
1, 5159, Note_on_c, 0, 72, 0
1, 5160, Note_on_c, 0, 67, 72
1, 5181, Note_on_c, 1, 52, 0
1, 5183, Note_on_c, 0, 67, 0
1, 5184, Note_on_c, 0, 71, 72
1, 5184, Note_on_c, 1, 50, 72
1, 5207, Note_on_c, 0, 71, 0
1, 5208, Note_on_c, 0, 74, 72
1, 5231, Note_on_c, 0, 74, 0
1, 5232, Note_on_c, 0, 71, 72
1, 5255, Note_on_c, 0, 71, 0
1, 5256, Note_on_c, 0, 67, 72
1, 5273, Note_on_c, 1, 50, 0
1, 5279, Note_on_c, 0, 67, 0
1, 5280, Note_on_c, 0, 69, 72
1, 5280, Note_on_c, 1, 38, 72
1, 5303, Note_on_c, 0, 69, 0
1, 5304, Note_on_c, 0, 66, 72
1, 5325, Note_on_c, 1, 38, 0
1, 5327, Note_on_c, 0, 66, 0
1, 5328, Note_on_c, 0, 67, 72
1, 5328, Note_on_c, 1, 43, 72
1, 5351, Note_on_c, 1, 43, 0
1, 5352, Note_on_c, 1, 55, 72
1, 5375, Note_on_c, 1, 55, 0
1, 5376, Note_on_c, 1, 45, 72
1, 5399, Note_on_c, 1, 45, 0
1, 5400, Note_on_c, 1, 57, 72
1, 5417, Note_on_c, 0, 67, 0
1, 5423, Note_on_c, 1, 57, 0
1, 5424, Note_on_c, 1, 47, 72
1, 5447, Note_on_c, 1, 47, 0
1, 5448, Note_on_c, 1, 59, 72
1, 5471, Note_on_c, 1, 59, 0
1, 5472, Note_on_c, 1, 45, 72
1, 5495, Note_on_c, 1, 45, 0
1, 5496, Note_on_c, 1, 57, 72
1, 5519, Note_on_c, 1, 57, 0
1, 5520, Note_on_c, 1, 47, 72
1, 5543, Note_on_c, 1, 47, 0
1, 5544, Note_on_c, 1, 59, 72
1, 5567, Note_on_c, 1, 59, 0
1, 5568, Note_on_c, 1, 48, 72
1, 5591, Note_on_c, 1, 48, 0
1, 5592, Note_on_c, 1, 60, 72
1, 5615, Note_on_c, 1, 60, 0
1, 5616, Note_on_c, 1, 47, 72
1, 5639, Note_on_c, 1, 47, 0
1, 5640, Note_on_c, 1, 59, 72
1, 5663, Note_on_c, 1, 59, 0
1, 5664, Note_on_c, 1, 48, 72
1, 5687, Note_on_c, 1, 48, 0
1, 5688, Note_on_c, 1, 60, 72
1, 5711, Note_on_c, 1, 60, 0
1, 5712, Note_on_c, 1, 50, 72
1, 5735, Note_on_c, 1, 50, 0
1, 5736, Note_on_c, 1, 62, 72
1, 5759, Note_on_c, 1, 62, 0
1, 5760, Note_on_c, 1, 64, 72
1, 5760, Note_on_c, 1, 52, 72
1, 5808, Note_on_c, 0, 84, 72
1, 5823, Note_on_c, 0, 84, 0
1, 5824, Note_on_c, 0, 83, 72
1, 5839, Note_on_c, 0, 83, 0
1, 5840, Note_on_c, 0, 81, 72
1, 5849, Note_on_c, 1, 64, 0
1, 5849, Note_on_c, 1, 52, 0
1, 5855, Note_on_c, 0, 81, 0
1, 5856, Note_on_c, 0, 79, 72
1, 5871, Note_on_c, 0, 79, 0
1, 5872, Note_on_c, 0, 78, 72
1, 5887, Note_on_c, 0, 78, 0
1, 5888, Note_on_c, 0, 76, 72
1, 5903, Note_on_c, 0, 76, 0
1, 5904, Note_on_c, 0, 74, 72
1, 5904, Note_on_c, 1, 54, 72
1, 5927, Note_on_c, 0, 74, 0
1, 5928, Note_on_c, 0, 81, 72
1, 5951, Note_on_c, 0, 81, 0
1, 5952, Note_on_c, 0, 84, 72
1, 5975, Note_on_c, 0, 84, 0
1, 5976, Note_on_c, 0, 81, 72
1, 5993, Note_on_c, 1, 54, 0
1, 5999, Note_on_c, 0, 81, 0
1, 6000, Note_on_c, 0, 83, 72
1, 6000, Note_on_c, 1, 55, 72
1, 6023, Note_on_c, 0, 83, 0
1, 6024, Note_on_c, 0, 79, 72
1, 6045, Note_on_c, 1, 55, 0
1, 6047, Note_on_c, 0, 79, 0
1, 6048, Note_on_c, 0, 81, 72
1, 6048, Note_on_c, 1, 60, 72
1, 6093, Note_on_c, 0, 81, 0
1, 6093, Note_on_c, 1, 60, 0
1, 6096, Note_on_c, 0, 79, 72
1, 6096, Note_on_c, 1, 62, 72
1, 6141, Note_on_c, 0, 79, 0
1, 6141, Note_on_c, 1, 62, 0
1, 6144, Note_on_c, 0, 79, 72
1, 6144, Note_on_c, 1, 50, 72
1, 6156, Note_on_c, 0, 79, 0
1, 6156, Note_on_c, 0, 78, 72
1, 6168, Note_on_c, 0, 78, 0
1, 6168, Note_on_c, 0, 79, 72
1, 6180, Note_on_c, 0, 79, 0
1, 6180, Note_on_c, 0, 78, 72
1, 6189, Note_on_c, 1, 50, 0
1, 6192, Note_on_c, 0, 78, 0
1, 6192, Note_on_c, 0, 79, 72
1, 6192, Note_on_c, 0, 74, 72
1, 6192, Note_on_c, 0, 71, 72
1, 6192, Note_on_c, 1, 43, 72
1, 6215, Note_on_c, 1, 43, 0
1, 6216, Note_on_c, 1, 55, 72
1, 6239, Note_on_c, 1, 55, 0
1, 6240, Note_on_c, 1, 45, 72
1, 6263, Note_on_c, 1, 45, 0
1, 6264, Note_on_c, 1, 57, 72
1, 6281, Note_on_c, 0, 79, 0
1, 6281, Note_on_c, 0, 74, 0
1, 6281, Note_on_c, 0, 71, 0
1, 6287, Note_on_c, 1, 57, 0
1, 6288, Note_on_c, 1, 47, 72
1, 6311, Note_on_c, 1, 47, 0
1, 6312, Note_on_c, 1, 59, 72
1, 6335, Note_on_c, 1, 59, 0
1, 6336, Note_on_c, 1, 45, 72
1, 6359, Note_on_c, 1, 45, 0
1, 6360, Note_on_c, 1, 57, 72
1, 6383, Note_on_c, 1, 57, 0
1, 6384, Note_on_c, 1, 47, 72
1, 6407, Note_on_c, 1, 47, 0
1, 6408, Note_on_c, 1, 59, 72
1, 6431, Note_on_c, 1, 59, 0
1, 6432, Note_on_c, 1, 48, 72
1, 6455, Note_on_c, 1, 48, 0
1, 6456, Note_on_c, 1, 60, 72
1, 6479, Note_on_c, 1, 60, 0
1, 6480, Note_on_c, 1, 47, 72
1, 6503, Note_on_c, 1, 47, 0
1, 6504, Note_on_c, 1, 59, 72
1, 6527, Note_on_c, 1, 59, 0
1, 6528, Note_on_c, 1, 48, 72
1, 6551, Note_on_c, 1, 48, 0
1, 6552, Note_on_c, 1, 60, 72
1, 6575, Note_on_c, 1, 60, 0
1, 6576, Note_on_c, 1, 50, 72
1, 6599, Note_on_c, 1, 50, 0
1, 6600, Note_on_c, 1, 62, 72
1, 6623, Note_on_c, 1, 62, 0
1, 6624, Note_on_c, 1, 64, 72
1, 6624, Note_on_c, 1, 52, 72
1, 6672, Note_on_c, 0, 84, 72
1, 6687, Note_on_c, 0, 84, 0
1, 6688, Note_on_c, 0, 83, 72
1, 6703, Note_on_c, 0, 83, 0
1, 6704, Note_on_c, 0, 81, 72
1, 6713, Note_on_c, 1, 64, 0
1, 6713, Note_on_c, 1, 52, 0
1, 6719, Note_on_c, 0, 81, 0
1, 6720, Note_on_c, 0, 79, 72
1, 6735, Note_on_c, 0, 79, 0
1, 6736, Note_on_c, 0, 78, 72
1, 6751, Note_on_c, 0, 78, 0
1, 6752, Note_on_c, 0, 76, 72
1, 6767, Note_on_c, 0, 76, 0
1, 6768, Note_on_c, 0, 74, 72
1, 6768, Note_on_c, 1, 54, 72
1, 6791, Note_on_c, 0, 74, 0
1, 6792, Note_on_c, 0, 81, 72
1, 6815, Note_on_c, 0, 81, 0
1, 6816, Note_on_c, 0, 84, 72
1, 6839, Note_on_c, 0, 84, 0
1, 6840, Note_on_c, 0, 81, 72
1, 6857, Note_on_c, 1, 54, 0
1, 6863, Note_on_c, 0, 81, 0
1, 6864, Note_on_c, 0, 83, 72
1, 6864, Note_on_c, 1, 55, 72
1, 6887, Note_on_c, 0, 83, 0
1, 6888, Note_on_c, 0, 79, 72
1, 6909, Note_on_c, 1, 55, 0
1, 6911, Note_on_c, 0, 79, 0
1, 6912, Note_on_c, 0, 81, 72
1, 6912, Note_on_c, 1, 60, 72
1, 6957, Note_on_c, 0, 81, 0
1, 6957, Note_on_c, 1, 60, 0
1, 6960, Note_on_c, 0, 79, 72
1, 6960, Note_on_c, 1, 62, 72
1, 7005, Note_on_c, 0, 79, 0
1, 7005, Note_on_c, 1, 62, 0
1, 7008, Note_on_c, 0, 79, 72
1, 7008, Note_on_c, 1, 50, 72
1, 7020, Note_on_c, 0, 79, 0
1, 7020, Note_on_c, 0, 78, 72
1, 7032, Note_on_c, 0, 78, 0
1, 7032, Note_on_c, 0, 79, 72
1, 7044, Note_on_c, 0, 79, 0
1, 7044, Note_on_c, 0, 78, 72
1, 7053, Note_on_c, 1, 50, 0
1, 7056, Note_on_c, 0, 78, 0
1, 7056, Note_on_c, 0, 71, 72
1, 7056, Note_on_c, 1, 55, 72
1, 7064, Note_on_c, 0, 74, 72
1, 7072, Note_on_c, 0, 79, 72
1, 7101, Note_on_c, 1, 55, 0
1, 7104, Note_on_c, 1, 50, 72
1, 7149, Note_on_c, 0, 79, 0
1, 7149, Note_on_c, 0, 74, 0
1, 7149, Note_on_c, 0, 71, 0
1, 7149, Note_on_c, 1, 50, 0
1, 7152, Note_on_c, 1, 43, 72
1, 7197, Note_on_c, 1, 43, 0
1, 7200, Note_on_c, 0, 81, 72
1, 7200, Note_on_c, 1, 55, 72
1, 7212, Note_on_c, 0, 81, 0
1, 7212, Note_on_c, 0, 79, 72
1, 7223, Note_on_c, 1, 55, 0
1, 7224, Note_on_c, 0, 79, 0
1, 7224, Note_on_c, 0, 78, 72
1, 7224, Note_on_c, 1, 62, 72
1, 7236, Note_on_c, 0, 78, 0
1, 7236, Note_on_c, 0, 79, 72
1, 7247, Note_on_c, 1, 62, 0
1, 7248, Note_on_c, 1, 59, 72
1, 7271, Note_on_c, 1, 59, 0
1, 7272, Note_on_c, 1, 62, 72
1, 7289, Note_on_c, 0, 79, 0
1, 7295, Note_on_c, 1, 62, 0
1, 7296, Note_on_c, 0, 83, 72
1, 7296, Note_on_c, 1, 55, 72
1, 7311, Note_on_c, 0, 83, 0
1, 7312, Note_on_c, 0, 81, 72
1, 7319, Note_on_c, 1, 55, 0
1, 7320, Note_on_c, 1, 62, 72
1, 7327, Note_on_c, 0, 81, 0
1, 7328, Note_on_c, 0, 79, 72
1, 7343, Note_on_c, 0, 79, 0
1, 7343, Note_on_c, 1, 62, 0
1, 7344, Note_on_c, 0, 86, 72
1, 7344, Note_on_c, 1, 55, 72
1, 7367, Note_on_c, 1, 55, 0
1, 7368, Note_on_c, 1, 62, 72
1, 7391, Note_on_c, 1, 62, 0
1, 7392, Note_on_c, 1, 59, 72
1, 7415, Note_on_c, 1, 59, 0
1, 7416, Note_on_c, 1, 62, 72
1, 7433, Note_on_c, 0, 86, 0
1, 7439, Note_on_c, 1, 62, 0
1, 7440, Note_on_c, 0, 77, 72
1, 7440, Note_on_c, 1, 55, 72
1, 7463, Note_on_c, 1, 55, 0
1, 7464, Note_on_c, 1, 62, 72
1, 7485, Note_on_c, 0, 77, 0
1, 7487, Note_on_c, 1, 62, 0
1, 7488, Note_on_c, 0, 76, 72
1, 7488, Note_on_c, 1, 60, 72
1, 7511, Note_on_c, 0, 76, 0
1, 7512, Note_on_c, 0, 67, 72
1, 7533, Note_on_c, 1, 60, 0
1, 7535, Note_on_c, 0, 67, 0
1, 7536, Note_on_c, 0, 74, 72
1, 7536, Note_on_c, 1, 59, 72
1, 7559, Note_on_c, 0, 74, 0
1, 7560, Note_on_c, 0, 67, 72
1, 7581, Note_on_c, 1, 59, 0
1, 7583, Note_on_c, 0, 67, 0
1, 7584, Note_on_c, 0, 77, 72
1, 7584, Note_on_c, 1, 62, 72
1, 7607, Note_on_c, 0, 77, 0
1, 7608, Note_on_c, 0, 67, 72
1, 7629, Note_on_c, 1, 62, 0
1, 7631, Note_on_c, 0, 67, 0
1, 7632, Note_on_c, 0, 76, 72
1, 7632, Note_on_c, 1, 60, 72
1, 7655, Note_on_c, 0, 76, 0
1, 7656, Note_on_c, 0, 67, 72
1, 7677, Note_on_c, 1, 60, 0
1, 7679, Note_on_c, 0, 67, 0
1, 7680, Note_on_c, 0, 74, 72
1, 7680, Note_on_c, 1, 59, 72
1, 7703, Note_on_c, 0, 74, 0
1, 7704, Note_on_c, 0, 67, 72
1, 7725, Note_on_c, 1, 59, 0
1, 7727, Note_on_c, 0, 67, 0
1, 7728, Note_on_c, 0, 79, 72
1, 7728, Note_on_c, 1, 64, 72
1, 7751, Note_on_c, 0, 79, 0
1, 7752, Note_on_c, 0, 67, 72
1, 7773, Note_on_c, 1, 64, 0
1, 7775, Note_on_c, 0, 67, 0
1, 7776, Note_on_c, 0, 79, 72
1, 7776, Note_on_c, 1, 64, 72
1, 7799, Note_on_c, 0, 79, 0
1, 7800, Note_on_c, 0, 67, 72
1, 7821, Note_on_c, 1, 64, 0
1, 7823, Note_on_c, 0, 67, 0
1, 7824, Note_on_c, 0, 77, 72
1, 7824, Note_on_c, 1, 62, 72
1, 7847, Note_on_c, 0, 77, 0
1, 7848, Note_on_c, 0, 67, 72
1, 7869, Note_on_c, 1, 62, 0
1, 7871, Note_on_c, 0, 67, 0
1, 7872, Note_on_c, 0, 76, 72
1, 7872, Note_on_c, 1, 60, 72
1, 7895, Note_on_c, 0, 76, 0
1, 7896, Note_on_c, 0, 67, 72
1, 7917, Note_on_c, 1, 60, 0
1, 7919, Note_on_c, 0, 67, 0
1, 7920, Note_on_c, 0, 74, 72
1, 7920, Note_on_c, 1, 55, 72
1, 7943, Note_on_c, 1, 55, 0
1, 7944, Note_on_c, 1, 62, 72
1, 7967, Note_on_c, 1, 62, 0
1, 7968, Note_on_c, 1, 59, 72
1, 7991, Note_on_c, 1, 59, 0
1, 7992, Note_on_c, 1, 62, 72
1, 8009, Note_on_c, 0, 74, 0
1, 8015, Note_on_c, 1, 62, 0
1, 8016, Note_on_c, 1, 55, 72
1, 8039, Note_on_c, 1, 55, 0
1, 8040, Note_on_c, 1, 62, 72
1, 8063, Note_on_c, 1, 62, 0
1, 8064, Note_on_c, 0, 81, 72
1, 8064, Note_on_c, 1, 55, 72
1, 8076, Note_on_c, 0, 81, 0
1, 8076, Note_on_c, 0, 79, 72
1, 8087, Note_on_c, 1, 55, 0
1, 8088, Note_on_c, 0, 79, 0
1, 8088, Note_on_c, 0, 78, 72
1, 8088, Note_on_c, 1, 62, 72
1, 8100, Note_on_c, 0, 78, 0
1, 8100, Note_on_c, 0, 79, 72
1, 8111, Note_on_c, 1, 62, 0
1, 8112, Note_on_c, 1, 59, 72
1, 8135, Note_on_c, 1, 59, 0
1, 8136, Note_on_c, 1, 62, 72
1, 8153, Note_on_c, 0, 79, 0
1, 8159, Note_on_c, 1, 62, 0
1, 8160, Note_on_c, 0, 83, 72
1, 8160, Note_on_c, 1, 55, 72
1, 8175, Note_on_c, 0, 83, 0
1, 8176, Note_on_c, 0, 81, 72
1, 8183, Note_on_c, 1, 55, 0
1, 8184, Note_on_c, 1, 62, 72
1, 8191, Note_on_c, 0, 81, 0
1, 8192, Note_on_c, 0, 79, 72
1, 8207, Note_on_c, 0, 79, 0
1, 8207, Note_on_c, 1, 62, 0
1, 8208, Note_on_c, 0, 86, 72
1, 8208, Note_on_c, 1, 55, 72
1, 8231, Note_on_c, 1, 55, 0
1, 8232, Note_on_c, 1, 62, 72
1, 8255, Note_on_c, 1, 62, 0
1, 8256, Note_on_c, 1, 59, 72
1, 8279, Note_on_c, 1, 59, 0
1, 8280, Note_on_c, 1, 62, 72
1, 8297, Note_on_c, 0, 86, 0
1, 8303, Note_on_c, 1, 62, 0
1, 8304, Note_on_c, 0, 77, 72
1, 8304, Note_on_c, 1, 55, 72
1, 8327, Note_on_c, 1, 55, 0
1, 8328, Note_on_c, 1, 62, 72
1, 8349, Note_on_c, 0, 77, 0
1, 8351, Note_on_c, 1, 62, 0
1, 8352, Note_on_c, 0, 75, 72
1, 8352, Note_on_c, 1, 60, 72
1, 8375, Note_on_c, 0, 75, 0
1, 8376, Note_on_c, 0, 67, 72
1, 8397, Note_on_c, 1, 60, 0
1, 8399, Note_on_c, 0, 67, 0
1, 8400, Note_on_c, 0, 74, 72
1, 8400, Note_on_c, 1, 59, 72
1, 8423, Note_on_c, 0, 74, 0
1, 8424, Note_on_c, 0, 67, 72
1, 8445, Note_on_c, 1, 59, 0
1, 8447, Note_on_c, 0, 67, 0
1, 8448, Note_on_c, 0, 77, 72
1, 8448, Note_on_c, 1, 62, 72
1, 8471, Note_on_c, 0, 77, 0
1, 8472, Note_on_c, 0, 67, 72
1, 8493, Note_on_c, 1, 62, 0
1, 8495, Note_on_c, 0, 67, 0
1, 8496, Note_on_c, 0, 75, 72
1, 8496, Note_on_c, 1, 60, 72
1, 8519, Note_on_c, 0, 75, 0
1, 8520, Note_on_c, 0, 67, 72
1, 8541, Note_on_c, 1, 60, 0
1, 8543, Note_on_c, 0, 67, 0
1, 8544, Note_on_c, 0, 74, 72
1, 8544, Note_on_c, 1, 59, 72
1, 8567, Note_on_c, 0, 74, 0
1, 8568, Note_on_c, 0, 67, 72
1, 8589, Note_on_c, 1, 59, 0
1, 8591, Note_on_c, 0, 67, 0
1, 8592, Note_on_c, 0, 79, 72
1, 8592, Note_on_c, 1, 63, 72
1, 8615, Note_on_c, 0, 79, 0
1, 8616, Note_on_c, 0, 67, 72
1, 8637, Note_on_c, 1, 63, 0
1, 8639, Note_on_c, 0, 67, 0
1, 8640, Note_on_c, 0, 79, 72
1, 8640, Note_on_c, 1, 63, 72
1, 8663, Note_on_c, 0, 79, 0
1, 8664, Note_on_c, 0, 67, 72
1, 8685, Note_on_c, 1, 63, 0
1, 8687, Note_on_c, 0, 67, 0
1, 8688, Note_on_c, 0, 77, 72
1, 8688, Note_on_c, 1, 62, 72
1, 8711, Note_on_c, 0, 77, 0
1, 8712, Note_on_c, 0, 67, 72
1, 8733, Note_on_c, 1, 62, 0
1, 8735, Note_on_c, 0, 67, 0
1, 8736, Note_on_c, 0, 75, 72
1, 8736, Note_on_c, 1, 60, 72
1, 8759, Note_on_c, 0, 75, 0
1, 8760, Note_on_c, 0, 67, 72
1, 8781, Note_on_c, 1, 60, 0
1, 8783, Note_on_c, 0, 67, 0
1, 8784, Note_on_c, 0, 74, 72
1, 8784, Note_on_c, 1, 55, 72
1, 8807, Note_on_c, 1, 55, 0
1, 8808, Note_on_c, 1, 62, 72
1, 8831, Note_on_c, 1, 62, 0
1, 8832, Note_on_c, 1, 59, 72
1, 8855, Note_on_c, 1, 59, 0
1, 8856, Note_on_c, 1, 62, 72
1, 8873, Note_on_c, 0, 74, 0
1, 8879, Note_on_c, 1, 62, 0
1, 8880, Note_on_c, 1, 55, 72
1, 8903, Note_on_c, 1, 55, 0
1, 8904, Note_on_c, 1, 62, 72
1, 8927, Note_on_c, 1, 62, 0
1, 8928, Note_on_c, 0, 74, 72
1, 8928, Note_on_c, 1, 60, 72
1, 8940, Note_on_c, 0, 74, 0
1, 8940, Note_on_c, 0, 72, 72
1, 8951, Note_on_c, 1, 60, 0
1, 8952, Note_on_c, 0, 72, 0
1, 8952, Note_on_c, 0, 71, 72
1, 8952, Note_on_c, 1, 67, 72
1, 8964, Note_on_c, 0, 71, 0
1, 8964, Note_on_c, 0, 72, 72
1, 8975, Note_on_c, 1, 67, 0
1, 8976, Note_on_c, 1, 64, 72
1, 8999, Note_on_c, 1, 64, 0
1, 9000, Note_on_c, 1, 67, 72
1, 9017, Note_on_c, 0, 72, 0
1, 9023, Note_on_c, 1, 67, 0
1, 9024, Note_on_c, 0, 76, 72
1, 9024, Note_on_c, 1, 60, 72
1, 9039, Note_on_c, 0, 76, 0
1, 9040, Note_on_c, 0, 74, 72
1, 9047, Note_on_c, 1, 60, 0
1, 9048, Note_on_c, 1, 67, 72
1, 9055, Note_on_c, 0, 74, 0
1, 9056, Note_on_c, 0, 72, 72
1, 9071, Note_on_c, 0, 72, 0
1, 9071, Note_on_c, 1, 67, 0
1, 9072, Note_on_c, 0, 79, 72
1, 9072, Note_on_c, 1, 59, 72
1, 9095, Note_on_c, 1, 59, 0
1, 9096, Note_on_c, 1, 67, 72
1, 9119, Note_on_c, 1, 67, 0
1, 9120, Note_on_c, 1, 62, 72
1, 9143, Note_on_c, 1, 62, 0
1, 9144, Note_on_c, 1, 67, 72
1, 9161, Note_on_c, 0, 79, 0
1, 9167, Note_on_c, 1, 67, 0
1, 9168, Note_on_c, 0, 77, 72
1, 9168, Note_on_c, 1, 59, 72
1, 9191, Note_on_c, 1, 59, 0
1, 9192, Note_on_c, 1, 67, 72
1, 9213, Note_on_c, 0, 77, 0
1, 9215, Note_on_c, 1, 67, 0
1, 9216, Note_on_c, 0, 76, 72
1, 9216, Note_on_c, 1, 60, 72
1, 9283, Note_on_c, 0, 76, 0
1, 9283, Note_on_c, 1, 60, 0
1, 9312, Note_on_c, 0, 76, 72
1, 9312, Note_on_c, 1, 60, 72
1, 9335, Note_on_c, 0, 76, 0
1, 9336, Note_on_c, 0, 67, 72
1, 9357, Note_on_c, 1, 60, 0
1, 9359, Note_on_c, 0, 67, 0
1, 9360, Note_on_c, 0, 74, 72
1, 9360, Note_on_c, 1, 59, 72
1, 9383, Note_on_c, 0, 74, 0
1, 9384, Note_on_c, 0, 67, 72
1, 9407, Note_on_c, 0, 67, 0
1, 9408, Note_on_c, 0, 74, 72
1, 9431, Note_on_c, 0, 74, 0
1, 9432, Note_on_c, 0, 67, 72
1, 9449, Note_on_c, 1, 59, 0
1, 9455, Note_on_c, 0, 67, 0
1, 9456, Note_on_c, 0, 76, 72
1, 9456, Note_on_c, 1, 60, 72
1, 9479, Note_on_c, 0, 76, 0
1, 9480, Note_on_c, 0, 67, 72
1, 9501, Note_on_c, 1, 60, 0
1, 9503, Note_on_c, 0, 67, 0
1, 9504, Note_on_c, 0, 77, 72
1, 9504, Note_on_c, 1, 62, 72
1, 9527, Note_on_c, 0, 77, 0
1, 9528, Note_on_c, 0, 67, 72
1, 9549, Note_on_c, 1, 62, 0
1, 9551, Note_on_c, 0, 67, 0
1, 9552, Note_on_c, 0, 76, 72
1, 9552, Note_on_c, 1, 60, 72
1, 9575, Note_on_c, 0, 76, 0
1, 9576, Note_on_c, 0, 67, 72
1, 9597, Note_on_c, 1, 60, 0
1, 9599, Note_on_c, 0, 67, 0
1, 9600, Note_on_c, 0, 74, 72
1, 9600, Note_on_c, 1, 59, 72
1, 9623, Note_on_c, 0, 74, 0
1, 9624, Note_on_c, 0, 67, 72
1, 9645, Note_on_c, 1, 59, 0
1, 9647, Note_on_c, 0, 67, 0
1, 9648, Note_on_c, 0, 72, 72
1, 9648, Note_on_c, 1, 48, 72
1, 9671, Note_on_c, 1, 48, 0
1, 9672, Note_on_c, 1, 60, 72
1, 9695, Note_on_c, 1, 60, 0
1, 9696, Note_on_c, 1, 50, 72
1, 9719, Note_on_c, 1, 50, 0
1, 9720, Note_on_c, 1, 62, 72
1, 9737, Note_on_c, 0, 72, 0
1, 9743, Note_on_c, 1, 62, 0
1, 9744, Note_on_c, 1, 52, 72
1, 9767, Note_on_c, 1, 52, 0
1, 9768, Note_on_c, 1, 64, 72
1, 9791, Note_on_c, 1, 64, 0
1, 9792, Note_on_c, 1, 50, 72
1, 9815, Note_on_c, 1, 50, 0
1, 9816, Note_on_c, 1, 62, 72
1, 9839, Note_on_c, 1, 62, 0
1, 9840, Note_on_c, 1, 52, 72
1, 9863, Note_on_c, 1, 52, 0
1, 9864, Note_on_c, 1, 64, 72
1, 9887, Note_on_c, 1, 64, 0
1, 9888, Note_on_c, 1, 53, 72
1, 9911, Note_on_c, 1, 53, 0
1, 9912, Note_on_c, 1, 65, 72
1, 9935, Note_on_c, 1, 65, 0
1, 9936, Note_on_c, 1, 52, 72
1, 9959, Note_on_c, 1, 52, 0
1, 9960, Note_on_c, 1, 64, 72
1, 9983, Note_on_c, 1, 64, 0
1, 9984, Note_on_c, 1, 53, 72
1, 10007, Note_on_c, 1, 53, 0
1, 10008, Note_on_c, 1, 65, 72
1, 10031, Note_on_c, 1, 65, 0
1, 10032, Note_on_c, 1, 55, 72
1, 10055, Note_on_c, 1, 55, 0
1, 10056, Note_on_c, 1, 67, 72
1, 10079, Note_on_c, 1, 67, 0
1, 10080, Note_on_c, 1, 57, 72
1, 10080, Note_on_c, 1, 45, 72
1, 10128, Note_on_c, 0, 77, 72
1, 10143, Note_on_c, 0, 77, 0
1, 10144, Note_on_c, 0, 76, 72
1, 10159, Note_on_c, 0, 76, 0
1, 10160, Note_on_c, 0, 74, 72
1, 10169, Note_on_c, 1, 57, 0
1, 10169, Note_on_c, 1, 45, 0
1, 10175, Note_on_c, 0, 74, 0
1, 10176, Note_on_c, 0, 72, 72
1, 10191, Note_on_c, 0, 72, 0
1, 10192, Note_on_c, 0, 71, 72
1, 10207, Note_on_c, 0, 71, 0
1, 10208, Note_on_c, 0, 69, 72
1, 10223, Note_on_c, 0, 69, 0
1, 10224, Note_on_c, 0, 67, 72
1, 10224, Note_on_c, 1, 59, 72
1, 10247, Note_on_c, 0, 67, 0
1, 10248, Note_on_c, 0, 74, 72
1, 10271, Note_on_c, 0, 74, 0
1, 10272, Note_on_c, 0, 77, 72
1, 10295, Note_on_c, 0, 77, 0
1, 10296, Note_on_c, 0, 74, 72
1, 10313, Note_on_c, 1, 59, 0
1, 10319, Note_on_c, 0, 74, 0
1, 10320, Note_on_c, 0, 76, 72
1, 10320, Note_on_c, 1, 60, 72
1, 10343, Note_on_c, 0, 76, 0
1, 10344, Note_on_c, 0, 72, 72
1, 10365, Note_on_c, 1, 60, 0
1, 10367, Note_on_c, 0, 72, 0
1, 10368, Note_on_c, 0, 74, 72
1, 10368, Note_on_c, 1, 53, 72
1, 10413, Note_on_c, 0, 74, 0
1, 10413, Note_on_c, 1, 53, 0
1, 10416, Note_on_c, 0, 72, 72
1, 10416, Note_on_c, 1, 55, 72
1, 10461, Note_on_c, 0, 72, 0
1, 10461, Note_on_c, 1, 55, 0
1, 10464, Note_on_c, 0, 72, 72
1, 10464, Note_on_c, 1, 43, 72
1, 10476, Note_on_c, 0, 72, 0
1, 10476, Note_on_c, 0, 71, 72
1, 10488, Note_on_c, 0, 71, 0
1, 10488, Note_on_c, 0, 72, 72
1, 10500, Note_on_c, 0, 72, 0
1, 10500, Note_on_c, 0, 71, 72
1, 10509, Note_on_c, 1, 43, 0
1, 10512, Note_on_c, 0, 71, 0
1, 10512, Note_on_c, 0, 72, 72
1, 10512, Note_on_c, 1, 48, 72
1, 10535, Note_on_c, 1, 48, 0
1, 10536, Note_on_c, 1, 60, 72
1, 10559, Note_on_c, 1, 60, 0
1, 10560, Note_on_c, 1, 50, 72
1, 10583, Note_on_c, 1, 50, 0
1, 10584, Note_on_c, 1, 62, 72
1, 10601, Note_on_c, 0, 72, 0
1, 10607, Note_on_c, 1, 62, 0
1, 10608, Note_on_c, 1, 52, 72
1, 10631, Note_on_c, 1, 52, 0
1, 10632, Note_on_c, 1, 64, 72
1, 10655, Note_on_c, 1, 64, 0
1, 10656, Note_on_c, 1, 50, 72
1, 10679, Note_on_c, 1, 50, 0
1, 10680, Note_on_c, 1, 62, 72
1, 10703, Note_on_c, 1, 62, 0
1, 10704, Note_on_c, 1, 52, 72
1, 10727, Note_on_c, 1, 52, 0
1, 10728, Note_on_c, 1, 64, 72
1, 10751, Note_on_c, 1, 64, 0
1, 10752, Note_on_c, 1, 53, 72
1, 10775, Note_on_c, 1, 53, 0
1, 10776, Note_on_c, 1, 65, 72
1, 10799, Note_on_c, 1, 65, 0
1, 10800, Note_on_c, 1, 52, 72
1, 10823, Note_on_c, 1, 52, 0
1, 10824, Note_on_c, 1, 64, 72
1, 10847, Note_on_c, 1, 64, 0
1, 10848, Note_on_c, 1, 53, 72
1, 10871, Note_on_c, 1, 53, 0
1, 10872, Note_on_c, 1, 65, 72
1, 10895, Note_on_c, 1, 65, 0
1, 10896, Note_on_c, 1, 55, 72
1, 10919, Note_on_c, 1, 55, 0
1, 10920, Note_on_c, 1, 67, 72
1, 10943, Note_on_c, 1, 67, 0
1, 10944, Note_on_c, 1, 57, 72
1, 10944, Note_on_c, 1, 45, 72
1, 10992, Note_on_c, 0, 77, 72
1, 11007, Note_on_c, 0, 77, 0
1, 11008, Note_on_c, 0, 76, 72
1, 11023, Note_on_c, 0, 76, 0
1, 11024, Note_on_c, 0, 74, 72
1, 11033, Note_on_c, 1, 57, 0
1, 11033, Note_on_c, 1, 45, 0
1, 11039, Note_on_c, 0, 74, 0
1, 11040, Note_on_c, 0, 72, 72
1, 11055, Note_on_c, 0, 72, 0
1, 11056, Note_on_c, 0, 71, 72
1, 11071, Note_on_c, 0, 71, 0
1, 11072, Note_on_c, 0, 69, 72
1, 11087, Note_on_c, 0, 69, 0
1, 11088, Note_on_c, 0, 67, 72
1, 11088, Note_on_c, 1, 59, 72
1, 11111, Note_on_c, 0, 67, 0
1, 11112, Note_on_c, 0, 74, 72
1, 11135, Note_on_c, 0, 74, 0
1, 11136, Note_on_c, 0, 77, 72
1, 11159, Note_on_c, 0, 77, 0
1, 11160, Note_on_c, 0, 74, 72
1, 11177, Note_on_c, 1, 59, 0
1, 11183, Note_on_c, 0, 74, 0
1, 11184, Note_on_c, 0, 76, 72
1, 11184, Note_on_c, 1, 60, 72
1, 11207, Note_on_c, 0, 76, 0
1, 11208, Note_on_c, 0, 72, 72
1, 11229, Note_on_c, 1, 60, 0
1, 11231, Note_on_c, 0, 72, 0
1, 11232, Note_on_c, 0, 74, 72
1, 11232, Note_on_c, 1, 53, 72
1, 11277, Note_on_c, 0, 74, 0
1, 11277, Note_on_c, 1, 53, 0
1, 11280, Note_on_c, 0, 72, 72
1, 11280, Note_on_c, 1, 55, 72
1, 11325, Note_on_c, 0, 72, 0
1, 11325, Note_on_c, 1, 55, 0
1, 11328, Note_on_c, 0, 72, 72
1, 11328, Note_on_c, 1, 43, 72
1, 11340, Note_on_c, 0, 72, 0
1, 11340, Note_on_c, 0, 71, 72
1, 11352, Note_on_c, 0, 71, 0
1, 11352, Note_on_c, 0, 72, 72
1, 11364, Note_on_c, 0, 72, 0
1, 11364, Note_on_c, 0, 71, 72
1, 11373, Note_on_c, 1, 43, 0
1, 11376, Note_on_c, 0, 71, 0
1, 11376, Note_on_c, 0, 72, 72
1, 11376, Note_on_c, 1, 48, 72
1, 11421, Note_on_c, 1, 48, 0
1, 11424, Note_on_c, 1, 36, 72
1, 11465, Note_on_c, 0, 72, 0
1, 11469, Note_on_c, 1, 36, 0
1, 11520, Note_on_c, 0, 81, 72
1, 11520, Note_on_c, 1, 55, 72
1, 11532, Note_on_c, 0, 81, 0
1, 11532, Note_on_c, 0, 79, 72
1, 11543, Note_on_c, 1, 55, 0
1, 11544, Note_on_c, 0, 79, 0
1, 11544, Note_on_c, 0, 78, 72
1, 11544, Note_on_c, 1, 62, 72
1, 11556, Note_on_c, 0, 78, 0
1, 11556, Note_on_c, 0, 79, 72
1, 11567, Note_on_c, 1, 62, 0
1, 11568, Note_on_c, 1, 59, 72
1, 11591, Note_on_c, 1, 59, 0
1, 11592, Note_on_c, 1, 62, 72
1, 11609, Note_on_c, 0, 79, 0
1, 11615, Note_on_c, 1, 62, 0
1, 11616, Note_on_c, 0, 83, 72
1, 11616, Note_on_c, 1, 55, 72
1, 11631, Note_on_c, 0, 83, 0
1, 11632, Note_on_c, 0, 81, 72
1, 11639, Note_on_c, 1, 55, 0
1, 11640, Note_on_c, 1, 62, 72
1, 11647, Note_on_c, 0, 81, 0
1, 11648, Note_on_c, 0, 79, 72
1, 11663, Note_on_c, 0, 79, 0
1, 11663, Note_on_c, 1, 62, 0
1, 11664, Note_on_c, 0, 86, 72
1, 11664, Note_on_c, 1, 55, 72
1, 11687, Note_on_c, 1, 55, 0
1, 11688, Note_on_c, 1, 62, 72
1, 11711, Note_on_c, 1, 62, 0
1, 11712, Note_on_c, 1, 59, 72
1, 11735, Note_on_c, 1, 59, 0
1, 11736, Note_on_c, 1, 62, 72
1, 11753, Note_on_c, 0, 86, 0
1, 11759, Note_on_c, 1, 62, 0
1, 11760, Note_on_c, 0, 77, 72
1, 11760, Note_on_c, 1, 55, 72
1, 11783, Note_on_c, 1, 55, 0
1, 11784, Note_on_c, 1, 62, 72
1, 11805, Note_on_c, 0, 77, 0
1, 11807, Note_on_c, 1, 62, 0
1, 11808, Note_on_c, 0, 76, 72
1, 11808, Note_on_c, 1, 60, 72
1, 11831, Note_on_c, 0, 76, 0
1, 11832, Note_on_c, 0, 67, 72
1, 11853, Note_on_c, 1, 60, 0
1, 11855, Note_on_c, 0, 67, 0
1, 11856, Note_on_c, 0, 74, 72
1, 11856, Note_on_c, 1, 59, 72
1, 11879, Note_on_c, 0, 74, 0
1, 11880, Note_on_c, 0, 67, 72
1, 11901, Note_on_c, 1, 59, 0
1, 11903, Note_on_c, 0, 67, 0
1, 11904, Note_on_c, 0, 77, 72
1, 11904, Note_on_c, 1, 62, 72
1, 11927, Note_on_c, 0, 77, 0
1, 11928, Note_on_c, 0, 67, 72
1, 11949, Note_on_c, 1, 62, 0
1, 11951, Note_on_c, 0, 67, 0
1, 11952, Note_on_c, 0, 76, 72
1, 11952, Note_on_c, 1, 60, 72
1, 11975, Note_on_c, 0, 76, 0
1, 11976, Note_on_c, 0, 67, 72
1, 11997, Note_on_c, 1, 60, 0
1, 11999, Note_on_c, 0, 67, 0
1, 12000, Note_on_c, 0, 74, 72
1, 12000, Note_on_c, 1, 59, 72
1, 12023, Note_on_c, 0, 74, 0
1, 12024, Note_on_c, 0, 67, 72
1, 12045, Note_on_c, 1, 59, 0
1, 12047, Note_on_c, 0, 67, 0
1, 12048, Note_on_c, 0, 79, 72
1, 12048, Note_on_c, 1, 64, 72
1, 12071, Note_on_c, 0, 79, 0
1, 12072, Note_on_c, 0, 67, 72
1, 12093, Note_on_c, 1, 64, 0
1, 12095, Note_on_c, 0, 67, 0
1, 12096, Note_on_c, 0, 79, 72
1, 12096, Note_on_c, 1, 64, 72
1, 12119, Note_on_c, 0, 79, 0
1, 12120, Note_on_c, 0, 67, 72
1, 12141, Note_on_c, 1, 64, 0
1, 12143, Note_on_c, 0, 67, 0
1, 12144, Note_on_c, 0, 77, 72
1, 12144, Note_on_c, 1, 62, 72
1, 12167, Note_on_c, 0, 77, 0
1, 12168, Note_on_c, 0, 67, 72
1, 12189, Note_on_c, 1, 62, 0
1, 12191, Note_on_c, 0, 67, 0
1, 12192, Note_on_c, 0, 76, 72
1, 12192, Note_on_c, 1, 60, 72
1, 12215, Note_on_c, 0, 76, 0
1, 12216, Note_on_c, 0, 67, 72
1, 12237, Note_on_c, 1, 60, 0
1, 12239, Note_on_c, 0, 67, 0
1, 12240, Note_on_c, 0, 74, 72
1, 12240, Note_on_c, 1, 55, 72
1, 12263, Note_on_c, 1, 55, 0
1, 12264, Note_on_c, 1, 62, 72
1, 12287, Note_on_c, 1, 62, 0
1, 12288, Note_on_c, 1, 59, 72
1, 12311, Note_on_c, 1, 59, 0
1, 12312, Note_on_c, 1, 62, 72
1, 12329, Note_on_c, 0, 74, 0
1, 12335, Note_on_c, 1, 62, 0
1, 12336, Note_on_c, 1, 55, 72
1, 12359, Note_on_c, 1, 55, 0
1, 12360, Note_on_c, 1, 62, 72
1, 12383, Note_on_c, 1, 62, 0
1, 12384, Note_on_c, 0, 81, 72
1, 12384, Note_on_c, 1, 55, 72
1, 12396, Note_on_c, 0, 81, 0
1, 12396, Note_on_c, 0, 79, 72
1, 12407, Note_on_c, 1, 55, 0
1, 12408, Note_on_c, 0, 79, 0
1, 12408, Note_on_c, 0, 78, 72
1, 12408, Note_on_c, 1, 62, 72
1, 12420, Note_on_c, 0, 78, 0
1, 12420, Note_on_c, 0, 79, 72
1, 12431, Note_on_c, 1, 62, 0
1, 12432, Note_on_c, 1, 59, 72
1, 12455, Note_on_c, 1, 59, 0
1, 12456, Note_on_c, 1, 62, 72
1, 12473, Note_on_c, 0, 79, 0
1, 12479, Note_on_c, 1, 62, 0
1, 12480, Note_on_c, 0, 83, 72
1, 12480, Note_on_c, 1, 55, 72
1, 12495, Note_on_c, 0, 83, 0
1, 12496, Note_on_c, 0, 81, 72
1, 12503, Note_on_c, 1, 55, 0
1, 12504, Note_on_c, 1, 62, 72
1, 12511, Note_on_c, 0, 81, 0
1, 12512, Note_on_c, 0, 79, 72
1, 12527, Note_on_c, 0, 79, 0
1, 12527, Note_on_c, 1, 62, 0
1, 12528, Note_on_c, 0, 86, 72
1, 12528, Note_on_c, 1, 55, 72
1, 12551, Note_on_c, 1, 55, 0
1, 12552, Note_on_c, 1, 62, 72
1, 12575, Note_on_c, 1, 62, 0
1, 12576, Note_on_c, 1, 59, 72
1, 12599, Note_on_c, 1, 59, 0
1, 12600, Note_on_c, 1, 62, 72
1, 12617, Note_on_c, 0, 86, 0
1, 12623, Note_on_c, 1, 62, 0
1, 12624, Note_on_c, 0, 77, 72
1, 12624, Note_on_c, 1, 55, 72
1, 12647, Note_on_c, 1, 55, 0
1, 12648, Note_on_c, 1, 62, 72
1, 12669, Note_on_c, 0, 77, 0
1, 12671, Note_on_c, 1, 62, 0
1, 12672, Note_on_c, 0, 75, 72
1, 12672, Note_on_c, 1, 60, 72
1, 12695, Note_on_c, 0, 75, 0
1, 12696, Note_on_c, 0, 67, 72
1, 12717, Note_on_c, 1, 60, 0
1, 12719, Note_on_c, 0, 67, 0
1, 12720, Note_on_c, 0, 74, 72
1, 12720, Note_on_c, 1, 59, 72
1, 12743, Note_on_c, 0, 74, 0
1, 12744, Note_on_c, 0, 67, 72
1, 12765, Note_on_c, 1, 59, 0
1, 12767, Note_on_c, 0, 67, 0
1, 12768, Note_on_c, 0, 77, 72
1, 12768, Note_on_c, 1, 62, 72
1, 12791, Note_on_c, 0, 77, 0
1, 12792, Note_on_c, 0, 67, 72
1, 12813, Note_on_c, 1, 62, 0
1, 12815, Note_on_c, 0, 67, 0
1, 12816, Note_on_c, 0, 75, 72
1, 12816, Note_on_c, 1, 60, 72
1, 12839, Note_on_c, 0, 75, 0
1, 12840, Note_on_c, 0, 67, 72
1, 12861, Note_on_c, 1, 60, 0
1, 12863, Note_on_c, 0, 67, 0
1, 12864, Note_on_c, 0, 74, 72
1, 12864, Note_on_c, 1, 59, 72
1, 12887, Note_on_c, 0, 74, 0
1, 12888, Note_on_c, 0, 67, 72
1, 12909, Note_on_c, 1, 59, 0
1, 12911, Note_on_c, 0, 67, 0
1, 12912, Note_on_c, 0, 79, 72
1, 12912, Note_on_c, 1, 63, 72
1, 12935, Note_on_c, 0, 79, 0
1, 12936, Note_on_c, 0, 67, 72
1, 12957, Note_on_c, 1, 63, 0
1, 12959, Note_on_c, 0, 67, 0
1, 12960, Note_on_c, 0, 79, 72
1, 12960, Note_on_c, 1, 63, 72
1, 12983, Note_on_c, 0, 79, 0
1, 12984, Note_on_c, 0, 67, 72
1, 13005, Note_on_c, 1, 63, 0
1, 13007, Note_on_c, 0, 67, 0
1, 13008, Note_on_c, 0, 77, 72
1, 13008, Note_on_c, 1, 62, 72
1, 13031, Note_on_c, 0, 77, 0
1, 13032, Note_on_c, 0, 67, 72
1, 13053, Note_on_c, 1, 62, 0
1, 13055, Note_on_c, 0, 67, 0
1, 13056, Note_on_c, 0, 75, 72
1, 13056, Note_on_c, 1, 60, 72
1, 13079, Note_on_c, 0, 75, 0
1, 13080, Note_on_c, 0, 67, 72
1, 13101, Note_on_c, 1, 60, 0
1, 13103, Note_on_c, 0, 67, 0
1, 13104, Note_on_c, 0, 74, 72
1, 13104, Note_on_c, 1, 55, 72
1, 13127, Note_on_c, 1, 55, 0
1, 13128, Note_on_c, 1, 62, 72
1, 13151, Note_on_c, 1, 62, 0
1, 13152, Note_on_c, 1, 59, 72
1, 13175, Note_on_c, 1, 59, 0
1, 13176, Note_on_c, 1, 62, 72
1, 13193, Note_on_c, 0, 74, 0
1, 13199, Note_on_c, 1, 62, 0
1, 13200, Note_on_c, 1, 55, 72
1, 13223, Note_on_c, 1, 55, 0
1, 13224, Note_on_c, 1, 62, 72
1, 13247, Note_on_c, 1, 62, 0
1, 13248, Note_on_c, 0, 74, 72
1, 13248, Note_on_c, 1, 60, 72
1, 13260, Note_on_c, 0, 74, 0
1, 13260, Note_on_c, 0, 72, 72
1, 13271, Note_on_c, 1, 60, 0
1, 13272, Note_on_c, 0, 72, 0
1, 13272, Note_on_c, 0, 71, 72
1, 13272, Note_on_c, 1, 67, 72
1, 13284, Note_on_c, 0, 71, 0
1, 13284, Note_on_c, 0, 72, 72
1, 13295, Note_on_c, 1, 67, 0
1, 13296, Note_on_c, 1, 64, 72
1, 13319, Note_on_c, 1, 64, 0
1, 13320, Note_on_c, 1, 67, 72
1, 13337, Note_on_c, 0, 72, 0
1, 13343, Note_on_c, 1, 67, 0
1, 13344, Note_on_c, 0, 76, 72
1, 13344, Note_on_c, 1, 60, 72
1, 13359, Note_on_c, 0, 76, 0
1, 13360, Note_on_c, 0, 74, 72
1, 13367, Note_on_c, 1, 60, 0
1, 13368, Note_on_c, 1, 67, 72
1, 13375, Note_on_c, 0, 74, 0
1, 13376, Note_on_c, 0, 72, 72
1, 13391, Note_on_c, 0, 72, 0
1, 13391, Note_on_c, 1, 67, 0
1, 13392, Note_on_c, 0, 79, 72
1, 13392, Note_on_c, 1, 59, 72
1, 13415, Note_on_c, 1, 59, 0
1, 13416, Note_on_c, 1, 67, 72
1, 13439, Note_on_c, 1, 67, 0
1, 13440, Note_on_c, 1, 62, 72
1, 13463, Note_on_c, 1, 62, 0
1, 13464, Note_on_c, 1, 67, 72
1, 13481, Note_on_c, 0, 79, 0
1, 13487, Note_on_c, 1, 67, 0
1, 13488, Note_on_c, 0, 77, 72
1, 13488, Note_on_c, 1, 59, 72
1, 13511, Note_on_c, 1, 59, 0
1, 13512, Note_on_c, 1, 67, 72
1, 13533, Note_on_c, 0, 77, 0
1, 13535, Note_on_c, 1, 67, 0
1, 13536, Note_on_c, 0, 76, 72
1, 13536, Note_on_c, 1, 60, 72
1, 13603, Note_on_c, 0, 76, 0
1, 13603, Note_on_c, 1, 60, 0
1, 13632, Note_on_c, 0, 76, 72
1, 13632, Note_on_c, 1, 60, 72
1, 13655, Note_on_c, 0, 76, 0
1, 13656, Note_on_c, 0, 67, 72
1, 13677, Note_on_c, 1, 60, 0
1, 13679, Note_on_c, 0, 67, 0
1, 13680, Note_on_c, 0, 74, 72
1, 13680, Note_on_c, 1, 59, 72
1, 13703, Note_on_c, 0, 74, 0
1, 13704, Note_on_c, 0, 67, 72
1, 13727, Note_on_c, 0, 67, 0
1, 13728, Note_on_c, 0, 74, 72
1, 13751, Note_on_c, 0, 74, 0
1, 13752, Note_on_c, 0, 67, 72
1, 13769, Note_on_c, 1, 59, 0
1, 13775, Note_on_c, 0, 67, 0
1, 13776, Note_on_c, 0, 76, 72
1, 13776, Note_on_c, 1, 60, 72
1, 13799, Note_on_c, 0, 76, 0
1, 13800, Note_on_c, 0, 67, 72
1, 13821, Note_on_c, 1, 60, 0
1, 13823, Note_on_c, 0, 67, 0
1, 13824, Note_on_c, 0, 77, 72
1, 13824, Note_on_c, 1, 62, 72
1, 13847, Note_on_c, 0, 77, 0
1, 13848, Note_on_c, 0, 67, 72
1, 13869, Note_on_c, 1, 62, 0
1, 13871, Note_on_c, 0, 67, 0
1, 13872, Note_on_c, 0, 76, 72
1, 13872, Note_on_c, 1, 60, 72
1, 13895, Note_on_c, 0, 76, 0
1, 13896, Note_on_c, 0, 67, 72
1, 13917, Note_on_c, 1, 60, 0
1, 13919, Note_on_c, 0, 67, 0
1, 13920, Note_on_c, 0, 74, 72
1, 13920, Note_on_c, 1, 59, 72
1, 13943, Note_on_c, 0, 74, 0
1, 13944, Note_on_c, 0, 67, 72
1, 13965, Note_on_c, 1, 59, 0
1, 13967, Note_on_c, 0, 67, 0
1, 13968, Note_on_c, 0, 72, 72
1, 13968, Note_on_c, 1, 48, 72
1, 13991, Note_on_c, 1, 48, 0
1, 13992, Note_on_c, 1, 60, 72
1, 14015, Note_on_c, 1, 60, 0
1, 14016, Note_on_c, 1, 50, 72
1, 14039, Note_on_c, 1, 50, 0
1, 14040, Note_on_c, 1, 62, 72
1, 14057, Note_on_c, 0, 72, 0
1, 14063, Note_on_c, 1, 62, 0
1, 14064, Note_on_c, 1, 52, 72
1, 14087, Note_on_c, 1, 52, 0
1, 14088, Note_on_c, 1, 64, 72
1, 14111, Note_on_c, 1, 64, 0
1, 14112, Note_on_c, 1, 50, 72
1, 14135, Note_on_c, 1, 50, 0
1, 14136, Note_on_c, 1, 62, 72
1, 14159, Note_on_c, 1, 62, 0
1, 14160, Note_on_c, 1, 52, 72
1, 14183, Note_on_c, 1, 52, 0
1, 14184, Note_on_c, 1, 64, 72
1, 14207, Note_on_c, 1, 64, 0
1, 14208, Note_on_c, 1, 53, 72
1, 14231, Note_on_c, 1, 53, 0
1, 14232, Note_on_c, 1, 65, 72
1, 14255, Note_on_c, 1, 65, 0
1, 14256, Note_on_c, 1, 52, 72
1, 14279, Note_on_c, 1, 52, 0
1, 14280, Note_on_c, 1, 64, 72
1, 14303, Note_on_c, 1, 64, 0
1, 14304, Note_on_c, 1, 53, 72
1, 14327, Note_on_c, 1, 53, 0
1, 14328, Note_on_c, 1, 65, 72
1, 14351, Note_on_c, 1, 65, 0
1, 14352, Note_on_c, 1, 55, 72
1, 14375, Note_on_c, 1, 55, 0
1, 14376, Note_on_c, 1, 67, 72
1, 14399, Note_on_c, 1, 67, 0
1, 14400, Note_on_c, 1, 57, 72
1, 14400, Note_on_c, 1, 45, 72
1, 14448, Note_on_c, 0, 77, 72
1, 14463, Note_on_c, 0, 77, 0
1, 14464, Note_on_c, 0, 76, 72
1, 14479, Note_on_c, 0, 76, 0
1, 14480, Note_on_c, 0, 74, 72
1, 14489, Note_on_c, 1, 57, 0
1, 14489, Note_on_c, 1, 45, 0
1, 14495, Note_on_c, 0, 74, 0
1, 14496, Note_on_c, 0, 72, 72
1, 14511, Note_on_c, 0, 72, 0
1, 14512, Note_on_c, 0, 71, 72
1, 14527, Note_on_c, 0, 71, 0
1, 14528, Note_on_c, 0, 69, 72
1, 14543, Note_on_c, 0, 69, 0
1, 14544, Note_on_c, 0, 67, 72
1, 14544, Note_on_c, 1, 59, 72
1, 14567, Note_on_c, 0, 67, 0
1, 14568, Note_on_c, 0, 74, 72
1, 14591, Note_on_c, 0, 74, 0
1, 14592, Note_on_c, 0, 77, 72
1, 14615, Note_on_c, 0, 77, 0
1, 14616, Note_on_c, 0, 74, 72
1, 14633, Note_on_c, 1, 59, 0
1, 14639, Note_on_c, 0, 74, 0
1, 14640, Note_on_c, 0, 76, 72
1, 14640, Note_on_c, 1, 60, 72
1, 14663, Note_on_c, 0, 76, 0
1, 14664, Note_on_c, 0, 72, 72
1, 14685, Note_on_c, 1, 60, 0
1, 14687, Note_on_c, 0, 72, 0
1, 14688, Note_on_c, 0, 74, 72
1, 14688, Note_on_c, 1, 53, 72
1, 14733, Note_on_c, 0, 74, 0
1, 14733, Note_on_c, 1, 53, 0
1, 14736, Note_on_c, 0, 72, 72
1, 14736, Note_on_c, 1, 55, 72
1, 14781, Note_on_c, 0, 72, 0
1, 14781, Note_on_c, 1, 55, 0
1, 14784, Note_on_c, 0, 72, 72
1, 14784, Note_on_c, 1, 43, 72
1, 14796, Note_on_c, 0, 72, 0
1, 14796, Note_on_c, 0, 71, 72
1, 14808, Note_on_c, 0, 71, 0
1, 14808, Note_on_c, 0, 72, 72
1, 14820, Note_on_c, 0, 72, 0
1, 14820, Note_on_c, 0, 71, 72
1, 14829, Note_on_c, 1, 43, 0
1, 14832, Note_on_c, 0, 71, 0
1, 14832, Note_on_c, 0, 72, 72
1, 14832, Note_on_c, 1, 48, 72
1, 14855, Note_on_c, 1, 48, 0
1, 14856, Note_on_c, 1, 60, 72
1, 14879, Note_on_c, 1, 60, 0
1, 14880, Note_on_c, 1, 50, 72
1, 14903, Note_on_c, 1, 50, 0
1, 14904, Note_on_c, 1, 62, 72
1, 14921, Note_on_c, 0, 72, 0
1, 14927, Note_on_c, 1, 62, 0
1, 14928, Note_on_c, 1, 52, 72
1, 14951, Note_on_c, 1, 52, 0
1, 14952, Note_on_c, 1, 64, 72
1, 14975, Note_on_c, 1, 64, 0
1, 14976, Note_on_c, 1, 50, 72
1, 14999, Note_on_c, 1, 50, 0
1, 15000, Note_on_c, 1, 62, 72
1, 15023, Note_on_c, 1, 62, 0
1, 15024, Note_on_c, 1, 52, 72
1, 15047, Note_on_c, 1, 52, 0
1, 15048, Note_on_c, 1, 64, 72
1, 15071, Note_on_c, 1, 64, 0
1, 15072, Note_on_c, 1, 53, 72
1, 15095, Note_on_c, 1, 53, 0
1, 15096, Note_on_c, 1, 65, 72
1, 15119, Note_on_c, 1, 65, 0
1, 15120, Note_on_c, 1, 52, 72
1, 15143, Note_on_c, 1, 52, 0
1, 15144, Note_on_c, 1, 64, 72
1, 15167, Note_on_c, 1, 64, 0
1, 15168, Note_on_c, 1, 53, 72
1, 15191, Note_on_c, 1, 53, 0
1, 15192, Note_on_c, 1, 65, 72
1, 15215, Note_on_c, 1, 65, 0
1, 15216, Note_on_c, 1, 55, 72
1, 15239, Note_on_c, 1, 55, 0
1, 15240, Note_on_c, 1, 67, 72
1, 15263, Note_on_c, 1, 67, 0
1, 15264, Note_on_c, 1, 57, 72
1, 15264, Note_on_c, 1, 45, 72
1, 15312, Note_on_c, 0, 77, 72
1, 15327, Note_on_c, 0, 77, 0
1, 15328, Note_on_c, 0, 76, 72
1, 15343, Note_on_c, 0, 76, 0
1, 15344, Note_on_c, 0, 74, 72
1, 15353, Note_on_c, 1, 57, 0
1, 15353, Note_on_c, 1, 45, 0
1, 15359, Note_on_c, 0, 74, 0
1, 15360, Note_on_c, 0, 72, 72
1, 15375, Note_on_c, 0, 72, 0
1, 15376, Note_on_c, 0, 71, 72
1, 15391, Note_on_c, 0, 71, 0
1, 15392, Note_on_c, 0, 69, 72
1, 15407, Note_on_c, 0, 69, 0
1, 15408, Note_on_c, 0, 67, 72
1, 15408, Note_on_c, 1, 59, 72
1, 15431, Note_on_c, 0, 67, 0
1, 15432, Note_on_c, 0, 74, 72
1, 15455, Note_on_c, 0, 74, 0
1, 15456, Note_on_c, 0, 77, 72
1, 15479, Note_on_c, 0, 77, 0
1, 15480, Note_on_c, 0, 74, 72
1, 15497, Note_on_c, 1, 59, 0
1, 15503, Note_on_c, 0, 74, 0
1, 15504, Note_on_c, 0, 76, 72
1, 15504, Note_on_c, 1, 60, 72
1, 15527, Note_on_c, 0, 76, 0
1, 15528, Note_on_c, 0, 72, 72
1, 15549, Note_on_c, 1, 60, 0
1, 15551, Note_on_c, 0, 72, 0
1, 15552, Note_on_c, 0, 74, 72
1, 15552, Note_on_c, 1, 53, 72
1, 15597, Note_on_c, 0, 74, 0
1, 15597, Note_on_c, 1, 53, 0
1, 15600, Note_on_c, 0, 72, 72
1, 15600, Note_on_c, 1, 55, 72
1, 15645, Note_on_c, 0, 72, 0
1, 15645, Note_on_c, 1, 55, 0
1, 15648, Note_on_c, 0, 72, 72
1, 15648, Note_on_c, 1, 43, 72
1, 15660, Note_on_c, 0, 72, 0
1, 15660, Note_on_c, 0, 71, 72
1, 15672, Note_on_c, 0, 71, 0
1, 15672, Note_on_c, 0, 72, 72
1, 15684, Note_on_c, 0, 72, 0
1, 15684, Note_on_c, 0, 71, 72
1, 15693, Note_on_c, 1, 43, 0
1, 15696, Note_on_c, 0, 71, 0
1, 15696, Note_on_c, 0, 72, 72
1, 15696, Note_on_c, 1, 48, 72
1, 15741, Note_on_c, 1, 48, 0
1, 15744, Note_on_c, 1, 36, 72
1, 15785, Note_on_c, 0, 72, 0
1, 15789, Note_on_c, 1, 36, 0
1, 15840, Note_on_c, 1, 36, 0
1, 15929, Note_on_c, 1, 36, 0
1, 15939, End_track
0, 0, End_of_file