0, 0, Header, 0, 1, 96
1, 0, Start_track
1, 0, Tempo, 461538
1, 0, Note_on_c, 0, 62, 75
1, 18, Note_on_c, 0, 62, 0
1, 18, Note_on_c, 0, 67, 75
1, 36, Note_on_c, 0, 67, 0
1, 36, Note_on_c, 0, 71, 75
1, 54, Note_on_c, 0, 71, 0
1, 54, Note_on_c, 0, 74, 75
1, 96, Note_on_c, 1, 59, 75
1, 163, Note_on_c, 0, 74, 0
1, 168, Note_on_c, 0, 72, 75
1, 180, Note_on_c, 0, 72, 0
1, 180, Note_on_c, 0, 74, 75
1, 185, Note_on_c, 1, 59, 0
1, 192, Note_on_c, 0, 74, 0
1, 192, Note_on_c, 0, 76, 75
1, 192, Note_on_c, 1, 55, 75
1, 259, Note_on_c, 0, 76, 0
1, 264, Note_on_c, 0, 71, 75
1, 281, Note_on_c, 1, 55, 0
1, 287, Note_on_c, 0, 71, 0
1, 288, Note_on_c, 0, 74, 75
1, 288, Note_on_c, 1, 57, 75
1, 355, Note_on_c, 0, 74, 0
1, 360, Note_on_c, 0, 72, 75
1, 377, Note_on_c, 1, 57, 0
1, 383, Note_on_c, 0, 72, 0
1, 384, Note_on_c, 0, 69, 75
1, 384, Note_on_c, 1, 54, 75
1, 473, Note_on_c, 1, 54, 0
1, 480, Note_on_c, 1, 50, 75
1, 547, Note_on_c, 0, 69, 0
1, 552, Note_on_c, 0, 72, 75
1, 569, Note_on_c, 1, 50, 0
1, 575, Note_on_c, 0, 72, 0
1, 576, Note_on_c, 0, 62, 75
1, 576, Note_on_c, 1, 55, 75
1, 594, Note_on_c, 0, 62, 0
1, 594, Note_on_c, 0, 66, 75
1, 612, Note_on_c, 0, 66, 0
1, 612, Note_on_c, 0, 67, 75
1, 630, Note_on_c, 0, 67, 0
1, 630, Note_on_c, 0, 71, 75
1, 665, Note_on_c, 1, 55, 0
1, 672, Note_on_c, 1, 52, 75
1, 739, Note_on_c, 0, 71, 0
1, 744, Note_on_c, 0, 69, 75
1, 756, Note_on_c, 0, 69, 0
1, 756, Note_on_c, 0, 71, 75
1, 761, Note_on_c, 1, 52, 0
1, 768, Note_on_c, 0, 71, 0
1, 768, Note_on_c, 0, 72, 75
1, 768, Note_on_c, 1, 48, 75
1, 835, Note_on_c, 0, 72, 0
1, 840, Note_on_c, 0, 69, 75
1, 857, Note_on_c, 1, 48, 0
1, 863, Note_on_c, 0, 69, 0
1, 864, Note_on_c, 0, 67, 75
1, 864, Note_on_c, 1, 50, 75
1, 953, Note_on_c, 0, 67, 0
1, 953, Note_on_c, 1, 50, 0
1, 960, Note_on_c, 0, 67, 75
1, 960, Note_on_c, 1, 48, 75
1, 975, Note_on_c, 0, 67, 0
1, 976, Note_on_c, 0, 66, 75
1, 991, Note_on_c, 0, 66, 0
1, 992, Note_on_c, 0, 67, 75
1, 1007, Note_on_c, 0, 67, 0
1, 1008, Note_on_c, 0, 66, 75
1, 1023, Note_on_c, 0, 66, 0
1, 1024, Note_on_c, 0, 64, 75
1, 1039, Note_on_c, 0, 64, 0
1, 1040, Note_on_c, 0, 66, 75
1, 1049, Note_on_c, 1, 48, 0
1, 1055, Note_on_c, 0, 66, 0
1, 1056, Note_on_c, 0, 67, 75
1, 1056, Note_on_c, 1, 47, 75
1, 1123, Note_on_c, 0, 67, 0
1, 1128, Note_on_c, 0, 62, 75
1, 1145, Note_on_c, 1, 47, 0
1, 1151, Note_on_c, 0, 62, 0
1, 1152, Note_on_c, 0, 64, 75
1, 1152, Note_on_c, 1, 48, 75
1, 1152, Note_on_c, 1, 36, 75
1, 1219, Note_on_c, 0, 64, 0
1, 1224, Note_on_c, 0, 66, 75
1, 1236, Note_on_c, 0, 66, 0
1, 1236, Note_on_c, 0, 67, 75
1, 1241, Note_on_c, 1, 48, 0
1, 1241, Note_on_c, 1, 36, 0
1, 1248, Note_on_c, 0, 67, 0
1, 1248, Note_on_c, 0, 66, 75
1, 1248, Note_on_c, 1, 50, 75
1, 1248, Note_on_c, 1, 38, 75
1, 1337, Note_on_c, 0, 66, 0
1, 1337, Note_on_c, 1, 50, 0
1, 1337, Note_on_c, 1, 38, 0
1, 1344, Note_on_c, 1, 52, 75
1, 1344, Note_on_c, 1, 40, 75
1, 1416, Note_on_c, 0, 67, 75
1, 1433, Note_on_c, 1, 52, 0
1, 1433, Note_on_c, 1, 40, 0
1, 1439, Note_on_c, 0, 67, 0
1, 1440, Note_on_c, 0, 69, 75
1, 1440, Note_on_c, 1, 54, 75
1, 1440, Note_on_c, 1, 42, 75
1, 1507, Note_on_c, 0, 69, 0
1, 1512, Note_on_c, 0, 71, 75
1, 1524, Note_on_c, 0, 71, 0
1, 1524, Note_on_c, 0, 72, 75
1, 1529, Note_on_c, 1, 54, 0
1, 1529, Note_on_c, 1, 42, 0
1, 1536, Note_on_c, 0, 72, 0
1, 1536, Note_on_c, 0, 71, 75
1, 1536, Note_on_c, 1, 55, 75
1, 1536, Note_on_c, 1, 43, 75
1, 1625, Note_on_c, 0, 71, 0
1, 1625, Note_on_c, 1, 55, 0
1, 1625, Note_on_c, 1, 43, 0
1, 1632, Note_on_c, 1, 54, 75
1, 1632, Note_on_c, 1, 42, 75
1, 1704, Note_on_c, 0, 69, 75
1, 1721, Note_on_c, 1, 54, 0
1, 1721, Note_on_c, 1, 42, 0
1, 1727, Note_on_c, 0, 69, 0
1, 1728, Note_on_c, 0, 71, 75
1, 1728, Note_on_c, 1, 55, 75
1, 1728, Note_on_c, 1, 43, 75
1, 1758, Note_on_c, 0, 71, 0
1, 1760, Note_on_c, 0, 73, 75
1, 1790, Note_on_c, 0, 73, 0
1, 1792, Note_on_c, 0, 74, 75
1, 1817, Note_on_c, 1, 55, 0
1, 1817, Note_on_c, 1, 43, 0
1, 1822, Note_on_c, 0, 74, 0
1, 1824, Note_on_c, 0, 73, 75
1, 1824, Note_on_c, 1, 57, 76
1, 1824, Note_on_c, 1, 45, 76
1, 1854, Note_on_c, 0, 73, 0
1, 1856, Note_on_c, 0, 74, 76
1, 1886, Note_on_c, 0, 74, 0
1, 1888, Note_on_c, 0, 76, 76
1, 1913, Note_on_c, 1, 57, 0
1, 1913, Note_on_c, 1, 45, 0
1, 1918, Note_on_c, 0, 76, 0
1, 1920, Note_on_c, 0, 74, 76
1, 1920, Note_on_c, 1, 59, 77
1, 1920, Note_on_c, 1, 47, 77
1, 1950, Note_on_c, 0, 74, 0
1, 1952, Note_on_c, 0, 76, 77
1, 1982, Note_on_c, 0, 76, 0
1, 1984, Note_on_c, 0, 78, 77
1, 2009, Note_on_c, 1, 59, 0
1, 2009, Note_on_c, 1, 47, 0
1, 2014, Note_on_c, 0, 78, 0
1, 2016, Note_on_c, 0, 76, 77
1, 2016, Note_on_c, 1, 61, 78
1, 2016, Note_on_c, 1, 49, 78
1, 2046, Note_on_c, 0, 76, 0
1, 2048, Note_on_c, 0, 78, 78
1, 2078, Note_on_c, 0, 78, 0
1, 2080, Note_on_c, 0, 79, 78
1, 2105, Note_on_c, 1, 61, 0
1, 2105, Note_on_c, 1, 49, 0
1, 2110, Note_on_c, 0, 79, 0
1, 2112, Note_on_c, 0, 78, 78
1, 2112, Note_on_c, 1, 62, 79
1, 2112, Note_on_c, 1, 50, 79
1, 2142, Note_on_c, 0, 78, 0
1, 2144, Note_on_c, 0, 79, 79
1, 2174, Note_on_c, 0, 79, 0
1, 2176, Note_on_c, 0, 81, 79
1, 2201, Note_on_c, 1, 62, 0
1, 2201, Note_on_c, 1, 50, 0
1, 2206, Note_on_c, 0, 81, 0
1, 2208, Note_on_c, 0, 79, 79
1, 2208, Note_on_c, 1, 64, 80
1, 2208, Note_on_c, 1, 52, 80
1, 2238, Note_on_c, 0, 79, 0
1, 2240, Note_on_c, 0, 81, 80
1, 2270, Note_on_c, 0, 81, 0
1, 2272, Note_on_c, 0, 83, 80
1, 2297, Note_on_c, 1, 64, 0
1, 2297, Note_on_c, 1, 52, 0
1, 2302, Note_on_c, 0, 83, 0
1, 2304, Note_on_c, 0, 81, 97
1, 2304, Note_on_c, 1, 66, 81
1, 2304, Note_on_c, 1, 54, 81
1, 2343, Note_on_c, 0, 81, 0
1, 2393, Note_on_c, 1, 66, 0
1, 2393, Note_on_c, 1, 54, 0
1, 2400, Note_on_c, 0, 74, 79
1, 2400, Note_on_c, 1, 67, 79
1, 2400, Note_on_c, 1, 55, 79
1, 2489, Note_on_c, 0, 74, 0
1, 2489, Note_on_c, 1, 67, 0
1, 2489, Note_on_c, 1, 55, 0
1, 2496, Note_on_c, 0, 74, 77
1, 2496, Note_on_c, 1, 69, 77
1, 2496, Note_on_c, 1, 57, 77
1, 2511, Note_on_c, 0, 74, 0
1, 2512, Note_on_c, 0, 73, 76
1, 2527, Note_on_c, 0, 73, 0
1, 2528, Note_on_c, 0, 74, 76
1, 2543, Note_on_c, 0, 74, 0
1, 2544, Note_on_c, 0, 73, 76
1, 2559, Note_on_c, 0, 73, 0
1, 2560, Note_on_c, 0, 71, 76
1, 2575, Note_on_c, 0, 71, 0
1, 2576, Note_on_c, 0, 73, 75
1, 2585, Note_on_c, 1, 69, 0
1, 2585, Note_on_c, 1, 57, 0
1, 2591, Note_on_c, 0, 73, 0
1, 2592, Note_on_c, 0, 74, 75
1, 2592, Note_on_c, 1, 62, 75
1, 2681, Note_on_c, 1, 62, 0
1, 2688, Note_on_c, 1, 57, 75
1, 2769, Note_on_c, 0, 74, 0
1, 2777, Note_on_c, 1, 57, 0
1, 2784, Note_on_c, 1, 50, 75
1, 2873, Note_on_c, 1, 50, 0
1, 2880, Note_on_c, 0, 62, 75
1, 2898, Note_on_c, 0, 62, 0
1, 2898, Note_on_c, 0, 67, 75
1, 2916, Note_on_c, 0, 67, 0
1, 2916, Note_on_c, 0, 71, 75
1, 2934, Note_on_c, 0, 71, 0
1, 2934, Note_on_c, 0, 74, 75
1, 2976, Note_on_c, 1, 59, 75
1, 3043, Note_on_c, 0, 74, 0
1, 3048, Note_on_c, 0, 72, 75
1, 3060, Note_on_c, 0, 72, 0
1, 3060, Note_on_c, 0, 74, 75
1, 3065, Note_on_c, 1, 59, 0
1, 3072, Note_on_c, 0, 74, 0
1, 3072, Note_on_c, 0, 76, 75
1, 3072, Note_on_c, 1, 55, 75
1, 3139, Note_on_c, 0, 76, 0
1, 3144, Note_on_c, 0, 71, 75
1, 3161, Note_on_c, 1, 55, 0
1, 3167, Note_on_c, 0, 71, 0
1, 3168, Note_on_c, 0, 74, 75
1, 3168, Note_on_c, 1, 57, 75
1, 3235, Note_on_c, 0, 74, 0
1, 3240, Note_on_c, 0, 72, 75
1, 3257, Note_on_c, 1, 57, 0
1, 3263, Note_on_c, 0, 72, 0
1, 3264, Note_on_c, 0, 69, 75
1, 3264, Note_on_c, 1, 54, 75
1, 3353, Note_on_c, 1, 54, 0
1, 3360, Note_on_c, 1, 50, 75
1, 3427, Note_on_c, 0, 69, 0
1, 3432, Note_on_c, 0, 72, 75
1, 3449, Note_on_c, 1, 50, 0
1, 3455, Note_on_c, 0, 72, 0
1, 3456, Note_on_c, 0, 62, 75
1, 3456, Note_on_c, 1, 55, 75
1, 3474, Note_on_c, 0, 62, 0
1, 3474, Note_on_c, 0, 66, 75
1, 3492, Note_on_c, 0, 66, 0
1, 3492, Note_on_c, 0, 67, 75
1, 3510, Note_on_c, 0, 67, 0
1, 3510, Note_on_c, 0, 71, 75
1, 3545, Note_on_c, 1, 55, 0
1, 3552, Note_on_c, 1, 52, 75
1, 3619, Note_on_c, 0, 71, 0
1, 3624, Note_on_c, 0, 69, 75
1, 3636, Note_on_c, 0, 69, 0
1, 3636, Note_on_c, 0, 71, 75
1, 3641, Note_on_c, 1, 52, 0
1, 3648, Note_on_c, 0, 71, 0
1, 3648, Note_on_c, 0, 72, 75
1, 3648, Note_on_c, 1, 48, 75
1, 3715, Note_on_c, 0, 72, 0
1, 3720, Note_on_c, 0, 69, 75
1, 3737, Note_on_c, 1, 48, 0
1, 3743, Note_on_c, 0, 69, 0
1, 3744, Note_on_c, 0, 67, 75
1, 3744, Note_on_c, 1, 50, 75
1, 3833, Note_on_c, 0, 67, 0
1, 3833, Note_on_c, 1, 50, 0
1, 3840, Note_on_c, 0, 67, 75
1, 3840, Note_on_c, 1, 48, 75
1, 3855, Note_on_c, 0, 67, 0
1, 3856, Note_on_c, 0, 66, 75
1, 3871, Note_on_c, 0, 66, 0
1, 3872, Note_on_c, 0, 67, 75
1, 3887, Note_on_c, 0, 67, 0
1, 3888, Note_on_c, 0, 66, 75
1, 3903, Note_on_c, 0, 66, 0
1, 3904, Note_on_c, 0, 64, 75
1, 3919, Note_on_c, 0, 64, 0
1, 3920, Note_on_c, 0, 66, 75
1, 3929, Note_on_c, 1, 48, 0
1, 3935, Note_on_c, 0, 66, 0
1, 3936, Note_on_c, 0, 67, 75
1, 3936, Note_on_c, 1, 47, 75
1, 4003, Note_on_c, 0, 67, 0
1, 4008, Note_on_c, 0, 62, 75
1, 4025, Note_on_c, 1, 47, 0
1, 4031, Note_on_c, 0, 62, 0
1, 4032, Note_on_c, 0, 64, 75
1, 4032, Note_on_c, 1, 48, 75
1, 4032, Note_on_c, 1, 36, 75
1, 4099, Note_on_c, 0, 64, 0
1, 4104, Note_on_c, 0, 66, 75
1, 4116, Note_on_c, 0, 66, 0
1, 4116, Note_on_c, 0, 67, 75
1, 4121, Note_on_c, 1, 48, 0
1, 4121, Note_on_c, 1, 36, 0
1, 4128, Note_on_c, 0, 67, 0
1, 4128, Note_on_c, 0, 66, 75
1, 4128, Note_on_c, 1, 50, 75
1, 4128, Note_on_c, 1, 38, 75
1, 4217, Note_on_c, 0, 66, 0
1, 4217, Note_on_c, 1, 50, 0
1, 4217, Note_on_c, 1, 38, 0
1, 4224, Note_on_c, 1, 52, 75
1, 4224, Note_on_c, 1, 40, 75
1, 4296, Note_on_c, 0, 67, 75
1, 4313, Note_on_c, 1, 52, 0
1, 4313, Note_on_c, 1, 40, 0
1, 4319, Note_on_c, 0, 67, 0
1, 4320, Note_on_c, 0, 69, 75
1, 4320, Note_on_c, 1, 54, 75
1, 4320, Note_on_c, 1, 42, 75
1, 4387, Note_on_c, 0, 69, 0
1, 4392, Note_on_c, 0, 71, 75
1, 4404, Note_on_c, 0, 71, 0
1, 4404, Note_on_c, 0, 72, 75
1, 4409, Note_on_c, 1, 54, 0
1, 4409, Note_on_c, 1, 42, 0
1, 4416, Note_on_c, 0, 72, 0
1, 4416, Note_on_c, 0, 71, 75
1, 4416, Note_on_c, 1, 55, 75
1, 4416, Note_on_c, 1, 43, 75
1, 4505, Note_on_c, 0, 71, 0
1, 4505, Note_on_c, 1, 55, 0
1, 4505, Note_on_c, 1, 43, 0
1, 4512, Note_on_c, 1, 54, 75
1, 4512, Note_on_c, 1, 42, 75
1, 4584, Note_on_c, 0, 69, 75
1, 4601, Note_on_c, 1, 54, 0
1, 4601, Note_on_c, 1, 42, 0
1, 4607, Note_on_c, 0, 69, 0
1, 4608, Note_on_c, 0, 71, 75
1, 4608, Note_on_c, 1, 55, 75
1, 4608, Note_on_c, 1, 43, 75
1, 4638, Note_on_c, 0, 71, 0
1, 4640, Note_on_c, 0, 73, 75
1, 4670, Note_on_c, 0, 73, 0
1, 4672, Note_on_c, 0, 74, 75
1, 4697, Note_on_c, 1, 55, 0
1, 4697, Note_on_c, 1, 43, 0
1, 4702, Note_on_c, 0, 74, 0
1, 4704, Note_on_c, 0, 73, 75
1, 4704, Note_on_c, 1, 57, 76
1, 4704, Note_on_c, 1, 45, 76
1, 4734, Note_on_c, 0, 73, 0
1, 4736, Note_on_c, 0, 74, 76
1, 4766, Note_on_c, 0, 74, 0
1, 4768, Note_on_c, 0, 76, 76
1, 4793, Note_on_c, 1, 57, 0
1, 4793, Note_on_c, 1, 45, 0
1, 4798, Note_on_c, 0, 76, 0
1, 4800, Note_on_c, 0, 74, 76
1, 4800, Note_on_c, 1, 59, 77
1, 4800, Note_on_c, 1, 47, 77
1, 4830, Note_on_c, 0, 74, 0
1, 4832, Note_on_c, 0, 76, 77
1, 4862, Note_on_c, 0, 76, 0
1, 4864, Note_on_c, 0, 78, 77
1, 4889, Note_on_c, 1, 59, 0
1, 4889, Note_on_c, 1, 47, 0
1, 4894, Note_on_c, 0, 78, 0
1, 4896, Note_on_c, 0, 76, 77
1, 4896, Note_on_c, 1, 61, 78
1, 4896, Note_on_c, 1, 49, 78
1, 4926, Note_on_c, 0, 76, 0
1, 4928, Note_on_c, 0, 78, 78
1, 4958, Note_on_c, 0, 78, 0
1, 4960, Note_on_c, 0, 79, 78
1, 4985, Note_on_c, 1, 61, 0
1, 4985, Note_on_c, 1, 49, 0
1, 4990, Note_on_c, 0, 79, 0
1, 4992, Note_on_c, 0, 78, 78
1, 4992, Note_on_c, 1, 62, 79
1, 4992, Note_on_c, 1, 50, 79
1, 5022, Note_on_c, 0, 78, 0
1, 5024, Note_on_c, 0, 79, 79
1, 5054, Note_on_c, 0, 79, 0
1, 5056, Note_on_c, 0, 81, 79
1, 5081, Note_on_c, 1, 62, 0
1, 5081, Note_on_c, 1, 50, 0
1, 5086, Note_on_c, 0, 81, 0
1, 5088, Note_on_c, 0, 79, 79
1, 5088, Note_on_c, 1, 64, 80
1, 5088, Note_on_c, 1, 52, 80
1, 5118, Note_on_c, 0, 79, 0
1, 5120, Note_on_c, 0, 81, 80
1, 5150, Note_on_c, 0, 81, 0
1, 5152, Note_on_c, 0, 83, 80
1, 5177, Note_on_c, 1, 64, 0
1, 5177, Note_on_c, 1, 52, 0
1, 5182, Note_on_c, 0, 83, 0
1, 5184, Note_on_c, 0, 81, 97
1, 5184, Note_on_c, 1, 66, 81
1, 5184, Note_on_c, 1, 54, 81
1, 5223, Note_on_c, 0, 81, 0
1, 5273, Note_on_c, 1, 66, 0
1, 5273, Note_on_c, 1, 54, 0
1, 5280, Note_on_c, 0, 74, 79
1, 5280, Note_on_c, 1, 67, 79
1, 5280, Note_on_c, 1, 55, 79
1, 5369, Note_on_c, 0, 74, 0
1, 5369, Note_on_c, 1, 67, 0
1, 5369, Note_on_c, 1, 55, 0
1, 5376, Note_on_c, 0, 74, 77
1, 5376, Note_on_c, 1, 69, 77
1, 5376, Note_on_c, 1, 57, 77
1, 5391, Note_on_c, 0, 74, 0
1, 5392, Note_on_c, 0, 73, 76
1, 5407, Note_on_c, 0, 73, 0
1, 5408, Note_on_c, 0, 74, 76
1, 5423, Note_on_c, 0, 74, 0
1, 5424, Note_on_c, 0, 73, 76
1, 5439, Note_on_c, 0, 73, 0
1, 5440, Note_on_c, 0, 71, 76
1, 5455, Note_on_c, 0, 71, 0
1, 5456, Note_on_c, 0, 73, 75
1, 5465, Note_on_c, 1, 69, 0
1, 5465, Note_on_c, 1, 57, 0
1, 5471, Note_on_c, 0, 73, 0
1, 5472, Note_on_c, 0, 74, 75
1, 5472, Note_on_c, 1, 62, 75
1, 5561, Note_on_c, 1, 62, 0
1, 5568, Note_on_c, 1, 57, 75
1, 5649, Note_on_c, 0, 74, 0
1, 5657, Note_on_c, 1, 57, 0
1, 5664, Note_on_c, 1, 50, 75
1, 5753, Note_on_c, 1, 50, 0
1, 5760, Note_on_c, 0, 74, 75
1, 5760, Note_on_c, 0, 62, 64
1, 5778, Note_on_c, 0, 74, 0
1, 5778, Note_on_c, 0, 78, 75
1, 5796, Note_on_c, 0, 78, 0
1, 5796, Note_on_c, 0, 81, 75
1, 5814, Note_on_c, 0, 81, 0
1, 5814, Note_on_c, 0, 84, 75
1, 5856, Note_on_c, 1, 66, 75
1, 5923, Note_on_c, 0, 84, 0
1, 5928, Note_on_c, 0, 81, 75
1, 5945, Note_on_c, 1, 66, 0
1, 5951, Note_on_c, 0, 81, 0
1, 5952, Note_on_c, 0, 83, 75
1, 5952, Note_on_c, 1, 67, 75
1, 6019, Note_on_c, 0, 83, 0
1, 6024, Note_on_c, 0, 79, 75
1, 6025, Note_on_c, 0, 62, 0
1, 6041, Note_on_c, 1, 67, 0
1, 6047, Note_on_c, 0, 79, 0
1, 6048, Note_on_c, 0, 74, 75
1, 6048, Note_on_c, 1, 71, 75
1, 6048, Note_on_c, 0, 62, 64
1, 6137, Note_on_c, 0, 74, 0
1, 6137, Note_on_c, 1, 71, 0
1, 6144, Note_on_c, 0, 74, 75
1, 6144, Note_on_c, 1, 69, 75
1, 6159, Note_on_c, 0, 74, 0
1, 6160, Note_on_c, 0, 72, 75
1, 6175, Note_on_c, 0, 72, 0
1, 6176, Note_on_c, 0, 74, 75
1, 6191, Note_on_c, 0, 74, 0
1, 6192, Note_on_c, 0, 72, 75
1, 6207, Note_on_c, 0, 72, 0
1, 6208, Note_on_c, 0, 71, 75
1, 6223, Note_on_c, 0, 71, 0
1, 6224, Note_on_c, 0, 72, 75
1, 6233, Note_on_c, 1, 69, 0
1, 6239, Note_on_c, 0, 72, 0
1, 6240, Note_on_c, 0, 71, 75
1, 6240, Note_on_c, 1, 67, 75
1, 6313, Note_on_c, 0, 62, 0
1, 6329, Note_on_c, 0, 71, 0
1, 6329, Note_on_c, 1, 67, 0
1, 6336, Note_on_c, 0, 74, 66
1, 6336, Note_on_c, 0, 62, 66
1, 6354, Note_on_c, 0, 74, 0
1, 6354, Note_on_c, 0, 78, 66
1, 6372, Note_on_c, 0, 78, 0
1, 6372, Note_on_c, 0, 81, 66
1, 6390, Note_on_c, 0, 81, 0
1, 6390, Note_on_c, 0, 84, 66
1, 6432, Note_on_c, 1, 66, 66
1, 6499, Note_on_c, 0, 84, 0
1, 6504, Note_on_c, 0, 81, 66
1, 6521, Note_on_c, 1, 66, 0
1, 6527, Note_on_c, 0, 81, 0
1, 6528, Note_on_c, 0, 83, 66
1, 6528, Note_on_c, 1, 67, 66
1, 6595, Note_on_c, 0, 83, 0
1, 6600, Note_on_c, 0, 79, 66
1, 6601, Note_on_c, 0, 62, 0
1, 6617, Note_on_c, 1, 67, 0
1, 6623, Note_on_c, 0, 79, 0
1, 6624, Note_on_c, 0, 74, 66
1, 6624, Note_on_c, 1, 71, 66
1, 6624, Note_on_c, 0, 62, 66
1, 6713, Note_on_c, 0, 74, 0
1, 6713, Note_on_c, 1, 71, 0
1, 6720, Note_on_c, 0, 74, 66
1, 6720, Note_on_c, 1, 69, 66
1, 6735, Note_on_c, 0, 74, 0
1, 6736, Note_on_c, 0, 72, 66
1, 6751, Note_on_c, 0, 72, 0
1, 6752, Note_on_c, 0, 74, 66
1, 6767, Note_on_c, 0, 74, 0
1, 6768, Note_on_c, 0, 72, 66
1, 6783, Note_on_c, 0, 72, 0
1, 6784, Note_on_c, 0, 71, 66
1, 6799, Note_on_c, 0, 71, 0
1, 6800, Note_on_c, 0, 72, 66
1, 6809, Note_on_c, 1, 69, 0
1, 6815, Note_on_c, 0, 72, 0
1, 6816, Note_on_c, 0, 71, 66
1, 6816, Note_on_c, 1, 67, 66
1, 6889, Note_on_c, 0, 62, 0
1, 6905, Note_on_c, 0, 71, 0
1, 6905, Note_on_c, 1, 67, 0
1, 6912, Note_on_c, 0, 69, 75
1, 6912, Note_on_c, 1, 66, 66
1, 6912, Note_on_c, 0, 62, 66
1, 6935, Note_on_c, 0, 69, 0
1, 6936, Note_on_c, 0, 71, 75
1, 6959, Note_on_c, 0, 71, 0
1, 6960, Note_on_c, 0, 72, 75
1, 6983, Note_on_c, 0, 72, 0
1, 6984, Note_on_c, 0, 71, 75
1, 7001, Note_on_c, 1, 66, 0
1, 7001, Note_on_c, 0, 62, 0
1, 7007, Note_on_c, 0, 71, 0
1, 7008, Note_on_c, 0, 69, 75
1, 7008, Note_on_c, 1, 66, 66
1, 7008, Note_on_c, 0, 62, 66
1, 7097, Note_on_c, 0, 69, 0
1, 7097, Note_on_c, 1, 66, 0
1, 7097, Note_on_c, 0, 62, 0
1, 7104, Note_on_c, 1, 66, 66
1, 7104, Note_on_c, 0, 62, 66
1, 7193, Note_on_c, 1, 66, 0
1, 7193, Note_on_c, 0, 62, 0
1, 7200, Note_on_c, 0, 71, 75
1, 7200, Note_on_c, 1, 67, 66
1, 7200, Note_on_c, 0, 62, 66
1, 7223, Note_on_c, 0, 71, 0
1, 7224, Note_on_c, 0, 72, 75
1, 7247, Note_on_c, 0, 72, 0
1, 7248, Note_on_c, 0, 74, 75
1, 7271, Note_on_c, 0, 74, 0
1, 7272, Note_on_c, 0, 72, 75
1, 7289, Note_on_c, 1, 67, 0
1, 7289, Note_on_c, 0, 62, 0
1, 7295, Note_on_c, 0, 72, 0
1, 7296, Note_on_c, 0, 71, 75
1, 7296, Note_on_c, 1, 67, 66
1, 7296, Note_on_c, 0, 62, 66
1, 7385, Note_on_c, 0, 71, 0
1, 7385, Note_on_c, 1, 67, 0
1, 7385, Note_on_c, 0, 62, 0
1, 7392, Note_on_c, 1, 67, 66
1, 7392, Note_on_c, 0, 62, 66
1, 7481, Note_on_c, 1, 67, 0
1, 7481, Note_on_c, 0, 62, 0
1, 7488, Note_on_c, 1, 67, 66
1, 7488, Note_on_c, 0, 64, 66
1, 7536, Note_on_c, 0, 71, 75
1, 7577, Note_on_c, 1, 67, 0
1, 7577, Note_on_c, 0, 64, 0
1, 7581, Note_on_c, 0, 71, 0
1, 7584, Note_on_c, 0, 79, 75
1, 7584, Note_on_c, 1, 67, 66
1, 7584, Note_on_c, 0, 64, 66
1, 7629, Note_on_c, 0, 79, 0
1, 7632, Note_on_c, 0, 76, 75
1, 7673, Note_on_c, 1, 67, 0
1, 7673, Note_on_c, 0, 64, 0
1, 7677, Note_on_c, 0, 76, 0
1, 7680, Note_on_c, 0, 74, 75
1, 7680, Note_on_c, 1, 67, 66
1, 7680, Note_on_c, 0, 64, 66
1, 7692, Note_on_c, 0, 74, 0
1, 7692, Note_on_c, 0, 76, 75
1, 7704, Note_on_c, 0, 76, 0
1, 7704, Note_on_c, 0, 74, 75
1, 7725, Note_on_c, 0, 74, 0
1, 7728, Note_on_c, 0, 73, 75
1, 7769, Note_on_c, 1, 67, 0
1, 7769, Note_on_c, 0, 64, 0
1, 7773, Note_on_c, 0, 73, 0
1, 7776, Note_on_c, 0, 73, 75
1, 7776, Note_on_c, 1, 67, 66
1, 7776, Note_on_c, 0, 62, 66
1, 7872, Note_on_c, 0, 73, 0
1, 7872, Note_on_c, 0, 74, 75
1, 7872, Note_on_c, 1, 67, 0
1, 7872, Note_on_c, 1, 66, 66
1, 7953, Note_on_c, 0, 74, 0
1, 7953, Note_on_c, 1, 66, 0
1, 7953, Note_on_c, 0, 62, 0
1, 8064, Note_on_c, 0, 62, 75
1, 8082, Note_on_c, 0, 62, 0
1, 8082, Note_on_c, 0, 67, 75
1, 8100, Note_on_c, 0, 67, 0
1, 8100, Note_on_c, 0, 71, 75
1, 8118, Note_on_c, 0, 71, 0
1, 8118, Note_on_c, 0, 74, 75
1, 8160, Note_on_c, 1, 59, 75
1, 8227, Note_on_c, 0, 74, 0
1, 8232, Note_on_c, 0, 72, 75
1, 8244, Note_on_c, 0, 72, 0
1, 8244, Note_on_c, 0, 74, 75
1, 8249, Note_on_c, 1, 59, 0
1, 8256, Note_on_c, 0, 74, 0
1, 8256, Note_on_c, 0, 76, 75
1, 8256, Note_on_c, 1, 55, 75
1, 8323, Note_on_c, 0, 76, 0
1, 8328, Note_on_c, 0, 71, 75
1, 8345, Note_on_c, 1, 55, 0
1, 8351, Note_on_c, 0, 71, 0
1, 8352, Note_on_c, 0, 74, 75
1, 8352, Note_on_c, 1, 57, 75
1, 8419, Note_on_c, 0, 74, 0
1, 8424, Note_on_c, 0, 72, 75
1, 8441, Note_on_c, 1, 57, 0
1, 8447, Note_on_c, 0, 72, 0
1, 8448, Note_on_c, 0, 69, 75
1, 8448, Note_on_c, 1, 54, 75
1, 8537, Note_on_c, 1, 54, 0
1, 8544, Note_on_c, 1, 50, 75
1, 8611, Note_on_c, 0, 69, 0
1, 8616, Note_on_c, 0, 72, 75
1, 8633, Note_on_c, 1, 50, 0
1, 8639, Note_on_c, 0, 72, 0
1, 8640, Note_on_c, 0, 62, 75
1, 8640, Note_on_c, 1, 55, 75
1, 8658, Note_on_c, 0, 62, 0
1, 8658, Note_on_c, 0, 66, 75
1, 8676, Note_on_c, 0, 66, 0
1, 8676, Note_on_c, 0, 67, 75
1, 8694, Note_on_c, 0, 67, 0
1, 8694, Note_on_c, 0, 71, 75
1, 8729, Note_on_c, 1, 55, 0
1, 8736, Note_on_c, 1, 52, 75
1, 8803, Note_on_c, 0, 71, 0
1, 8808, Note_on_c, 0, 69, 75
1, 8820, Note_on_c, 0, 69, 0
1, 8820, Note_on_c, 0, 71, 75
1, 8825, Note_on_c, 1, 52, 0
1, 8832, Note_on_c, 0, 71, 0
1, 8832, Note_on_c, 0, 72, 75
1, 8832, Note_on_c, 1, 48, 75
1, 8899, Note_on_c, 0, 72, 0
1, 8904, Note_on_c, 0, 69, 75
1, 8921, Note_on_c, 1, 48, 0
1, 8927, Note_on_c, 0, 69, 0
1, 8928, Note_on_c, 0, 67, 75
1, 8928, Note_on_c, 1, 50, 75
1, 9017, Note_on_c, 0, 67, 0
1, 9017, Note_on_c, 1, 50, 0
1, 9024, Note_on_c, 0, 67, 75
1, 9024, Note_on_c, 1, 48, 75
1, 9039, Note_on_c, 0, 67, 0
1, 9040, Note_on_c, 0, 66, 75
1, 9055, Note_on_c, 0, 66, 0
1, 9056, Note_on_c, 0, 67, 75
1, 9071, Note_on_c, 0, 67, 0
1, 9072, Note_on_c, 0, 66, 75
1, 9087, Note_on_c, 0, 66, 0
1, 9088, Note_on_c, 0, 64, 75
1, 9103, Note_on_c, 0, 64, 0
1, 9104, Note_on_c, 0, 66, 75
1, 9113, Note_on_c, 1, 48, 0
1, 9119, Note_on_c, 0, 66, 0
1, 9120, Note_on_c, 0, 67, 75
1, 9120, Note_on_c, 1, 47, 75
1, 9187, Note_on_c, 0, 67, 0
1, 9192, Note_on_c, 0, 62, 75
1, 9209, Note_on_c, 1, 47, 0
1, 9215, Note_on_c, 0, 62, 0
1, 9216, Note_on_c, 0, 64, 75
1, 9216, Note_on_c, 1, 48, 75
1, 9216, Note_on_c, 1, 36, 75
1, 9283, Note_on_c, 0, 64, 0
1, 9288, Note_on_c, 0, 66, 75
1, 9300, Note_on_c, 0, 66, 0
1, 9300, Note_on_c, 0, 67, 75
1, 9305, Note_on_c, 1, 48, 0
1, 9305, Note_on_c, 1, 36, 0
1, 9312, Note_on_c, 0, 67, 0
1, 9312, Note_on_c, 0, 66, 75
1, 9312, Note_on_c, 1, 50, 75
1, 9312, Note_on_c, 1, 38, 75
1, 9401, Note_on_c, 0, 66, 0
1, 9401, Note_on_c, 1, 50, 0
1, 9401, Note_on_c, 1, 38, 0
1, 9408, Note_on_c, 1, 52, 75
1, 9408, Note_on_c, 1, 40, 75
1, 9480, Note_on_c, 0, 67, 75
1, 9497, Note_on_c, 1, 52, 0
1, 9497, Note_on_c, 1, 40, 0
1, 9503, Note_on_c, 0, 67, 0
1, 9504, Note_on_c, 0, 69, 75
1, 9504, Note_on_c, 1, 54, 75
1, 9504, Note_on_c, 1, 42, 75
1, 9571, Note_on_c, 0, 69, 0
1, 9576, Note_on_c, 0, 71, 75
1, 9588, Note_on_c, 0, 71, 0
1, 9588, Note_on_c, 0, 72, 75
1, 9593, Note_on_c, 1, 54, 0
1, 9593, Note_on_c, 1, 42, 0
1, 9600, Note_on_c, 0, 72, 0
1, 9600, Note_on_c, 0, 71, 75
1, 9600, Note_on_c, 1, 55, 75
1, 9600, Note_on_c, 1, 43, 75
1, 9689, Note_on_c, 0, 71, 0
1, 9689, Note_on_c, 1, 55, 0
1, 9689, Note_on_c, 1, 43, 0
1, 9696, Note_on_c, 1, 47, 75
1, 9696, Note_on_c, 1, 35, 75
1, 9768, Note_on_c, 0, 62, 75
1, 9785, Note_on_c, 1, 47, 0
1, 9785, Note_on_c, 1, 35, 0
1, 9791, Note_on_c, 0, 62, 0
1, 9792, Note_on_c, 0, 64, 75
1, 9792, Note_on_c, 1, 48, 75
1, 9792, Note_on_c, 1, 36, 75
1, 9822, Note_on_c, 0, 64, 0
1, 9824, Note_on_c, 0, 66, 75
1, 9854, Note_on_c, 0, 66, 0
1, 9856, Note_on_c, 0, 67, 75
1, 9881, Note_on_c, 1, 48, 0
1, 9881, Note_on_c, 1, 36, 0
1, 9886, Note_on_c, 0, 67, 0
1, 9888, Note_on_c, 0, 66, 75
1, 9888, Note_on_c, 1, 50, 76
1, 9888, Note_on_c, 1, 38, 76
1, 9918, Note_on_c, 0, 66, 0
1, 9920, Note_on_c, 0, 67, 76
1, 9950, Note_on_c, 0, 67, 0
1, 9952, Note_on_c, 0, 69, 76
1, 9977, Note_on_c, 1, 50, 0
1, 9977, Note_on_c, 1, 38, 0
1, 9982, Note_on_c, 0, 69, 0
1, 9984, Note_on_c, 0, 67, 76
1, 9984, Note_on_c, 1, 52, 77
1, 9984, Note_on_c, 1, 40, 77
1, 10014, Note_on_c, 0, 67, 0
1, 10016, Note_on_c, 0, 69, 77
1, 10046, Note_on_c, 0, 69, 0
1, 10048, Note_on_c, 0, 71, 77
1, 10073, Note_on_c, 1, 52, 0
1, 10073, Note_on_c, 1, 40, 0
1, 10078, Note_on_c, 0, 71, 0
1, 10080, Note_on_c, 0, 69, 77
1, 10080, Note_on_c, 1, 54, 78
1, 10080, Note_on_c, 1, 42, 78
1, 10110, Note_on_c, 0, 69, 0
1, 10112, Note_on_c, 0, 71, 78
1, 10142, Note_on_c, 0, 71, 0
1, 10144, Note_on_c, 0, 72, 78
1, 10169, Note_on_c, 1, 54, 0
1, 10169, Note_on_c, 1, 42, 0
1, 10174, Note_on_c, 0, 72, 0
1, 10176, Note_on_c, 0, 71, 78
1, 10176, Note_on_c, 1, 55, 79
1, 10176, Note_on_c, 1, 43, 79
1, 10206, Note_on_c, 0, 71, 0
1, 10208, Note_on_c, 0, 72, 79
1, 10238, Note_on_c, 0, 72, 0
1, 10240, Note_on_c, 0, 74, 79
1, 10265, Note_on_c, 1, 55, 0
1, 10265, Note_on_c, 1, 43, 0
1, 10270, Note_on_c, 0, 74, 0
1, 10272, Note_on_c, 0, 72, 79
1, 10272, Note_on_c, 1, 57, 80
1, 10272, Note_on_c, 1, 45, 80
1, 10302, Note_on_c, 0, 72, 0
1, 10304, Note_on_c, 0, 74, 80
1, 10334, Note_on_c, 0, 74, 0
1, 10336, Note_on_c, 0, 76, 80
1, 10361, Note_on_c, 1, 57, 0
1, 10361, Note_on_c, 1, 45, 0
1, 10366, Note_on_c, 0, 76, 0
1, 10368, Note_on_c, 0, 74, 97
1, 10368, Note_on_c, 1, 59, 81
1, 10368, Note_on_c, 1, 47, 81
1, 10407, Note_on_c, 0, 74, 0
1, 10457, Note_on_c, 1, 59, 0
1, 10457, Note_on_c, 1, 47, 0
1, 10464, Note_on_c, 0, 67, 79
1, 10464, Note_on_c, 1, 60, 79
1, 10464, Note_on_c, 1, 48, 79
1, 10553, Note_on_c, 0, 67, 0
1, 10553, Note_on_c, 1, 60, 0
1, 10553, Note_on_c, 1, 48, 0
1, 10560, Note_on_c, 0, 67, 77
1, 10560, Note_on_c, 1, 62, 77
1, 10560, Note_on_c, 1, 50, 77
1, 10575, Note_on_c, 0, 67, 0
1, 10576, Note_on_c, 0, 66, 76
1, 10591, Note_on_c, 0, 66, 0
1, 10592, Note_on_c, 0, 67, 76
1, 10607, Note_on_c, 0, 67, 0
1, 10608, Note_on_c, 0, 66, 76
1, 10623, Note_on_c, 0, 66, 0
1, 10624, Note_on_c, 0, 64, 76
1, 10639, Note_on_c, 0, 64, 0
1, 10640, Note_on_c, 0, 66, 75
1, 10649, Note_on_c, 1, 62, 0
1, 10649, Note_on_c, 1, 50, 0
1, 10655, Note_on_c, 0, 66, 0
1, 10656, Note_on_c, 0, 66, 75
1, 10656, Note_on_c, 1, 55, 75
1, 10745, Note_on_c, 1, 55, 0
1, 10752, Note_on_c, 0, 66, 0
1, 10752, Note_on_c, 0, 67, 75
1, 10752, Note_on_c, 1, 50, 75
1, 10833, Note_on_c, 0, 67, 0
1, 10841, Note_on_c, 1, 50, 0
1, 10848, Note_on_c, 1, 43, 75
1, 10937, Note_on_c, 1, 43, 0
1, 10944, Note_on_c, 0, 74, 75
1, 10944, Note_on_c, 0, 62, 64
1, 10962, Note_on_c, 0, 74, 0
1, 10962, Note_on_c, 0, 78, 75
1, 10980, Note_on_c, 0, 78, 0
1, 10980, Note_on_c, 0, 81, 75
1, 10998, Note_on_c, 0, 81, 0
1, 10998, Note_on_c, 0, 84, 75
1, 11040, Note_on_c, 1, 66, 75
1, 11107, Note_on_c, 0, 84, 0
1, 11112, Note_on_c, 0, 81, 75
1, 11129, Note_on_c, 1, 66, 0
1, 11135, Note_on_c, 0, 81, 0
1, 11136, Note_on_c, 0, 83, 75
1, 11136, Note_on_c, 1, 67, 75
1, 11203, Note_on_c, 0, 83, 0
1, 11208, Note_on_c, 0, 79, 75
1, 11209, Note_on_c, 0, 62, 0
1, 11225, Note_on_c, 1, 67, 0
1, 11231, Note_on_c, 0, 79, 0
1, 11232, Note_on_c, 0, 74, 75
1, 11232, Note_on_c, 1, 71, 75
1, 11232, Note_on_c, 0, 62, 64
1, 11321, Note_on_c, 0, 74, 0
1, 11321, Note_on_c, 1, 71, 0
1, 11328, Note_on_c, 0, 74, 75
1, 11328, Note_on_c, 1, 69, 75
1, 11343, Note_on_c, 0, 74, 0
1, 11344, Note_on_c, 0, 72, 75
1, 11359, Note_on_c, 0, 72, 0
1, 11360, Note_on_c, 0, 74, 75
1, 11375, Note_on_c, 0, 74, 0
1, 11376, Note_on_c, 0, 72, 75
1, 11391, Note_on_c, 0, 72, 0
1, 11392, Note_on_c, 0, 71, 75
1, 11407, Note_on_c, 0, 71, 0
1, 11408, Note_on_c, 0, 72, 75
1, 11417, Note_on_c, 1, 69, 0
1, 11423, Note_on_c, 0, 72, 0
1, 11424, Note_on_c, 0, 71, 75
1, 11424, Note_on_c, 1, 67, 75
1, 11497, Note_on_c, 0, 62, 0
1, 11513, Note_on_c, 0, 71, 0
1, 11513, Note_on_c, 1, 67, 0
1, 11520, Note_on_c, 0, 74, 66
1, 11520, Note_on_c, 0, 62, 66
1, 11538, Note_on_c, 0, 74, 0
1, 11538, Note_on_c, 0, 78, 66
1, 11556, Note_on_c, 0, 78, 0
1, 11556, Note_on_c, 0, 81, 66
1, 11574, Note_on_c, 0, 81, 0
1, 11574, Note_on_c, 0, 84, 66
1, 11616, Note_on_c, 1, 66, 66
1, 11683, Note_on_c, 0, 84, 0
1, 11688, Note_on_c, 0, 81, 66
1, 11705, Note_on_c, 1, 66, 0
1, 11711, Note_on_c, 0, 81, 0
1, 11712, Note_on_c, 0, 83, 66
1, 11712, Note_on_c, 1, 67, 66
1, 11779, Note_on_c, 0, 83, 0
1, 11784, Note_on_c, 0, 79, 66
1, 11785, Note_on_c, 0, 62, 0
1, 11801, Note_on_c, 1, 67, 0
1, 11807, Note_on_c, 0, 79, 0
1, 11808, Note_on_c, 0, 74, 66
1, 11808, Note_on_c, 1, 71, 66
1, 11808, Note_on_c, 0, 62, 66
1, 11897, Note_on_c, 0, 74, 0
1, 11897, Note_on_c, 1, 71, 0
1, 11904, Note_on_c, 0, 74, 66
1, 11904, Note_on_c, 1, 69, 66
1, 11919, Note_on_c, 0, 74, 0
1, 11920, Note_on_c, 0, 72, 66
1, 11935, Note_on_c, 0, 72, 0
1, 11936, Note_on_c, 0, 74, 66
1, 11951, Note_on_c, 0, 74, 0
1, 11952, Note_on_c, 0, 72, 66
1, 11967, Note_on_c, 0, 72, 0
1, 11968, Note_on_c, 0, 71, 66
1, 11983, Note_on_c, 0, 71, 0
1, 11984, Note_on_c, 0, 72, 66
1, 11993, Note_on_c, 1, 69, 0
1, 11999, Note_on_c, 0, 72, 0
1, 12000, Note_on_c, 0, 71, 66
1, 12000, Note_on_c, 1, 67, 66
1, 12073, Note_on_c, 0, 62, 0
1, 12089, Note_on_c, 0, 71, 0
1, 12089, Note_on_c, 1, 67, 0
1, 12096, Note_on_c, 0, 69, 75
1, 12096, Note_on_c, 1, 66, 66
1, 12096, Note_on_c, 0, 62, 66
1, 12119, Note_on_c, 0, 69, 0
1, 12120, Note_on_c, 0, 71, 75
1, 12143, Note_on_c, 0, 71, 0
1, 12144, Note_on_c, 0, 72, 75
1, 12167, Note_on_c, 0, 72, 0
1, 12168, Note_on_c, 0, 71, 75
1, 12185, Note_on_c, 1, 66, 0
1, 12185, Note_on_c, 0, 62, 0
1, 12191, Note_on_c, 0, 71, 0
1, 12192, Note_on_c, 0, 69, 75
1, 12192, Note_on_c, 1, 66, 66
1, 12192, Note_on_c, 0, 62, 66
1, 12281, Note_on_c, 0, 69, 0
1, 12281, Note_on_c, 1, 66, 0
1, 12281, Note_on_c, 0, 62, 0
1, 12288, Note_on_c, 1, 66, 66
1, 12288, Note_on_c, 0, 62, 66
1, 12377, Note_on_c, 1, 66, 0
1, 12377, Note_on_c, 0, 62, 0
1, 12384, Note_on_c, 0, 71, 75
1, 12384, Note_on_c, 1, 67, 66
1, 12384, Note_on_c, 0, 62, 66
1, 12407, Note_on_c, 0, 71, 0
1, 12408, Note_on_c, 0, 72, 75
1, 12431, Note_on_c, 0, 72, 0
1, 12432, Note_on_c, 0, 74, 75
1, 12455, Note_on_c, 0, 74, 0
1, 12456, Note_on_c, 0, 72, 75
1, 12473, Note_on_c, 1, 67, 0
1, 12473, Note_on_c, 0, 62, 0
1, 12479, Note_on_c, 0, 72, 0
1, 12480, Note_on_c, 0, 71, 75
1, 12480, Note_on_c, 1, 67, 66
1, 12480, Note_on_c, 0, 62, 66
1, 12569, Note_on_c, 0, 71, 0
1, 12569, Note_on_c, 1, 67, 0
1, 12569, Note_on_c, 0, 62, 0
1, 12576, Note_on_c, 1, 67, 66
1, 12576, Note_on_c, 0, 62, 66
1, 12665, Note_on_c, 1, 67, 0
1, 12665, Note_on_c, 0, 62, 0
1, 12672, Note_on_c, 1, 67, 66
1, 12672, Note_on_c, 0, 64, 66
1, 12720, Note_on_c, 0, 71, 75
1, 12761, Note_on_c, 1, 67, 0
1, 12761, Note_on_c, 0, 64, 0
1, 12765, Note_on_c, 0, 71, 0
1, 12768, Note_on_c, 0, 79, 75
1, 12768, Note_on_c, 1, 67, 66
1, 12768, Note_on_c, 0, 64, 66
1, 12813, Note_on_c, 0, 79, 0
1, 12816, Note_on_c, 0, 76, 75
1, 12857, Note_on_c, 1, 67, 0
1, 12857, Note_on_c, 0, 64, 0
1, 12861, Note_on_c, 0, 76, 0
1, 12864, Note_on_c, 0, 74, 75
1, 12864, Note_on_c, 1, 67, 66
1, 12864, Note_on_c, 0, 64, 66
1, 12876, Note_on_c, 0, 74, 0
1, 12876, Note_on_c, 0, 76, 75
1, 12888, Note_on_c, 0, 76, 0
1, 12888, Note_on_c, 0, 74, 75
1, 12909, Note_on_c, 0, 74, 0
1, 12912, Note_on_c, 0, 73, 75
1, 12953, Note_on_c, 1, 67, 0
1, 12953, Note_on_c, 0, 64, 0
1, 12957, Note_on_c, 0, 73, 0
1, 12960, Note_on_c, 0, 73, 75
1, 12960, Note_on_c, 1, 67, 66
1, 12960, Note_on_c, 0, 62, 66
1, 13056, Note_on_c, 0, 73, 0
1, 13056, Note_on_c, 0, 74, 75
1, 13056, Note_on_c, 1, 67, 0
1, 13056, Note_on_c, 1, 66, 66
1, 13137, Note_on_c, 0, 74, 0
1, 13137, Note_on_c, 1, 66, 0
1, 13137, Note_on_c, 0, 62, 0
1, 13248, Note_on_c, 0, 62, 75
1, 13266, Note_on_c, 0, 62, 0
1, 13266, Note_on_c, 0, 67, 75
1, 13284, Note_on_c, 0, 67, 0
1, 13284, Note_on_c, 0, 71, 75
1, 13302, Note_on_c, 0, 71, 0
1, 13302, Note_on_c, 0, 74, 75
1, 13344, Note_on_c, 1, 59, 75
1, 13411, Note_on_c, 0, 74, 0
1, 13416, Note_on_c, 0, 72, 75
1, 13428, Note_on_c, 0, 72, 0
1, 13428, Note_on_c, 0, 74, 75
1, 13433, Note_on_c, 1, 59, 0
1, 13440, Note_on_c, 0, 74, 0
1, 13440, Note_on_c, 0, 76, 75
1, 13440, Note_on_c, 1, 55, 75
1, 13507, Note_on_c, 0, 76, 0
1, 13512, Note_on_c, 0, 71, 75
1, 13529, Note_on_c, 1, 55, 0
1, 13535, Note_on_c, 0, 71, 0
1, 13536, Note_on_c, 0, 74, 75
1, 13536, Note_on_c, 1, 57, 75
1, 13603, Note_on_c, 0, 74, 0
1, 13608, Note_on_c, 0, 72, 75
1, 13625, Note_on_c, 1, 57, 0
1, 13631, Note_on_c, 0, 72, 0
1, 13632, Note_on_c, 0, 69, 75
1, 13632, Note_on_c, 1, 54, 75
1, 13721, Note_on_c, 1, 54, 0
1, 13728, Note_on_c, 1, 50, 75
1, 13795, Note_on_c, 0, 69, 0
1, 13800, Note_on_c, 0, 72, 75
1, 13817, Note_on_c, 1, 50, 0
1, 13823, Note_on_c, 0, 72, 0
1, 13824, Note_on_c, 0, 62, 75
1, 13824, Note_on_c, 1, 55, 75
1, 13842, Note_on_c, 0, 62, 0
1, 13842, Note_on_c, 0, 66, 75
1, 13860, Note_on_c, 0, 66, 0
1, 13860, Note_on_c, 0, 67, 75
1, 13878, Note_on_c, 0, 67, 0
1, 13878, Note_on_c, 0, 71, 75
1, 13913, Note_on_c, 1, 55, 0
1, 13920, Note_on_c, 1, 52, 75
1, 13987, Note_on_c, 0, 71, 0
1, 13992, Note_on_c, 0, 69, 75
1, 14004, Note_on_c, 0, 69, 0
1, 14004, Note_on_c, 0, 71, 75
1, 14009, Note_on_c, 1, 52, 0
1, 14016, Note_on_c, 0, 71, 0
1, 14016, Note_on_c, 0, 72, 75
1, 14016, Note_on_c, 1, 48, 75
1, 14083, Note_on_c, 0, 72, 0
1, 14088, Note_on_c, 0, 69, 75
1, 14105, Note_on_c, 1, 48, 0
1, 14111, Note_on_c, 0, 69, 0
1, 14112, Note_on_c, 0, 67, 75
1, 14112, Note_on_c, 1, 50, 75
1, 14201, Note_on_c, 0, 67, 0
1, 14201, Note_on_c, 1, 50, 0
1, 14208, Note_on_c, 0, 67, 75
1, 14208, Note_on_c, 1, 48, 75
1, 14223, Note_on_c, 0, 67, 0
1, 14224, Note_on_c, 0, 66, 75
1, 14239, Note_on_c, 0, 66, 0
1, 14240, Note_on_c, 0, 67, 75
1, 14255, Note_on_c, 0, 67, 0
1, 14256, Note_on_c, 0, 66, 75
1, 14271, Note_on_c, 0, 66, 0
1, 14272, Note_on_c, 0, 64, 75
1, 14287, Note_on_c, 0, 64, 0
1, 14288, Note_on_c, 0, 66, 75
1, 14297, Note_on_c, 1, 48, 0
1, 14303, Note_on_c, 0, 66, 0
1, 14304, Note_on_c, 0, 67, 75
1, 14304, Note_on_c, 1, 47, 75
1, 14371, Note_on_c, 0, 67, 0
1, 14376, Note_on_c, 0, 62, 75
1, 14393, Note_on_c, 1, 47, 0
1, 14399, Note_on_c, 0, 62, 0
1, 14400, Note_on_c, 0, 64, 75
1, 14400, Note_on_c, 1, 48, 75
1, 14400, Note_on_c, 1, 36, 75
1, 14467, Note_on_c, 0, 64, 0
1, 14472, Note_on_c, 0, 66, 75
1, 14484, Note_on_c, 0, 66, 0
1, 14484, Note_on_c, 0, 67, 75
1, 14489, Note_on_c, 1, 48, 0
1, 14489, Note_on_c, 1, 36, 0
1, 14496, Note_on_c, 0, 67, 0
1, 14496, Note_on_c, 0, 66, 75
1, 14496, Note_on_c, 1, 50, 75
1, 14496, Note_on_c, 1, 38, 75
1, 14585, Note_on_c, 0, 66, 0
1, 14585, Note_on_c, 1, 50, 0
1, 14585, Note_on_c, 1, 38, 0
1, 14592, Note_on_c, 1, 52, 75
1, 14592, Note_on_c, 1, 40, 75
1, 14664, Note_on_c, 0, 67, 75
1, 14681, Note_on_c, 1, 52, 0
1, 14681, Note_on_c, 1, 40, 0
1, 14687, Note_on_c, 0, 67, 0
1, 14688, Note_on_c, 0, 69, 75
1, 14688, Note_on_c, 1, 54, 75
1, 14688, Note_on_c, 1, 42, 75
1, 14755, Note_on_c, 0, 69, 0
1, 14760, Note_on_c, 0, 71, 75
1, 14772, Note_on_c, 0, 71, 0
1, 14772, Note_on_c, 0, 72, 75
1, 14777, Note_on_c, 1, 54, 0
1, 14777, Note_on_c, 1, 42, 0
1, 14784, Note_on_c, 0, 72, 0
1, 14784, Note_on_c, 0, 71, 75
1, 14784, Note_on_c, 1, 55, 75
1, 14784, Note_on_c, 1, 43, 75
1, 14873, Note_on_c, 0, 71, 0
1, 14873, Note_on_c, 1, 55, 0
1, 14873, Note_on_c, 1, 43, 0
1, 14880, Note_on_c, 1, 47, 75
1, 14880, Note_on_c, 1, 35, 75
1, 14952, Note_on_c, 0, 62, 75
1, 14969, Note_on_c, 1, 47, 0
1, 14969, Note_on_c, 1, 35, 0
1, 14975, Note_on_c, 0, 62, 0
1, 14976, Note_on_c, 0, 64, 75
1, 14976, Note_on_c, 1, 48, 75
1, 14976, Note_on_c, 1, 36, 75
1, 15006, Note_on_c, 0, 64, 0
1, 15008, Note_on_c, 0, 66, 75
1, 15038, Note_on_c, 0, 66, 0
1, 15040, Note_on_c, 0, 67, 75
1, 15065, Note_on_c, 1, 48, 0
1, 15065, Note_on_c, 1, 36, 0
1, 15070, Note_on_c, 0, 67, 0
1, 15072, Note_on_c, 0, 66, 75
1, 15072, Note_on_c, 1, 50, 76
1, 15072, Note_on_c, 1, 38, 76
1, 15102, Note_on_c, 0, 66, 0
1, 15104, Note_on_c, 0, 67, 76
1, 15134, Note_on_c, 0, 67, 0
1, 15136, Note_on_c, 0, 69, 76
1, 15161, Note_on_c, 1, 50, 0
1, 15161, Note_on_c, 1, 38, 0
1, 15166, Note_on_c, 0, 69, 0
1, 15168, Note_on_c, 0, 67, 76
1, 15168, Note_on_c, 1, 52, 77
1, 15168, Note_on_c, 1, 40, 77
1, 15198, Note_on_c, 0, 67, 0
1, 15200, Note_on_c, 0, 69, 77
1, 15230, Note_on_c, 0, 69, 0
1, 15232, Note_on_c, 0, 71, 77
1, 15257, Note_on_c, 1, 52, 0
1, 15257, Note_on_c, 1, 40, 0
1, 15262, Note_on_c, 0, 71, 0
1, 15264, Note_on_c, 0, 69, 77
1, 15264, Note_on_c, 1, 54, 78
1, 15264, Note_on_c, 1, 42, 78
1, 15294, Note_on_c, 0, 69, 0
1, 15296, Note_on_c, 0, 71, 78
1, 15326, Note_on_c, 0, 71, 0
1, 15328, Note_on_c, 0, 72, 78
1, 15353, Note_on_c, 1, 54, 0
1, 15353, Note_on_c, 1, 42, 0
1, 15358, Note_on_c, 0, 72, 0
1, 15360, Note_on_c, 0, 71, 78
1, 15360, Note_on_c, 1, 55, 79
1, 15360, Note_on_c, 1, 43, 79
1, 15390, Note_on_c, 0, 71, 0
1, 15392, Note_on_c, 0, 72, 79
1, 15422, Note_on_c, 0, 72, 0
1, 15424, Note_on_c, 0, 74, 79
1, 15449, Note_on_c, 1, 55, 0
1, 15449, Note_on_c, 1, 43, 0
1, 15454, Note_on_c, 0, 74, 0
1, 15456, Note_on_c, 0, 72, 79
1, 15456, Note_on_c, 1, 57, 80
1, 15456, Note_on_c, 1, 45, 80
1, 15486, Note_on_c, 0, 72, 0
1, 15488, Note_on_c, 0, 74, 80
1, 15518, Note_on_c, 0, 74, 0
1, 15520, Note_on_c, 0, 76, 80
1, 15545, Note_on_c, 1, 57, 0
1, 15545, Note_on_c, 1, 45, 0
1, 15550, Note_on_c, 0, 76, 0
1, 15552, Note_on_c, 0, 74, 97
1, 15552, Note_on_c, 1, 59, 81
1, 15552, Note_on_c, 1, 47, 81
1, 15591, Note_on_c, 0, 74, 0
1, 15641, Note_on_c, 1, 59, 0
1, 15641, Note_on_c, 1, 47, 0
1, 15648, Note_on_c, 0, 67, 79
1, 15648, Note_on_c, 1, 60, 79
1, 15648, Note_on_c, 1, 48, 79
1, 15737, Note_on_c, 0, 67, 0
1, 15737, Note_on_c, 1, 60, 0
1, 15737, Note_on_c, 1, 48, 0
1, 15744, Note_on_c, 0, 67, 77
1, 15744, Note_on_c, 1, 62, 77
1, 15744, Note_on_c, 1, 50, 77
1, 15759, Note_on_c, 0, 67, 0
1, 15760, Note_on_c, 0, 66, 76
1, 15775, Note_on_c, 0, 66, 0
1, 15776, Note_on_c, 0, 67, 76
1, 15791, Note_on_c, 0, 67, 0
1, 15792, Note_on_c, 0, 66, 76
1, 15807, Note_on_c, 0, 66, 0
1, 15808, Note_on_c, 0, 64, 76
1, 15823, Note_on_c, 0, 64, 0
1, 15824, Note_on_c, 0, 66, 75
1, 15833, Note_on_c, 1, 62, 0
1, 15833, Note_on_c, 1, 50, 0
1, 15839, Note_on_c, 0, 66, 0
1, 15840, Note_on_c, 0, 66, 75
1, 15840, Note_on_c, 1, 55, 75
1, 15929, Note_on_c, 1, 55, 0
1, 15936, Note_on_c, 0, 66, 0
1, 15936, Note_on_c, 0, 67, 75
1, 15936, Note_on_c, 1, 50, 75
1, 16017, Note_on_c, 0, 67, 0
1, 16025, Note_on_c, 1, 50, 0
1, 16032, Note_on_c, 1, 43, 75
1, 16121, Note_on_c, 1, 43, 0
1, 16128, Note_on_c, 1, 70, 62
1, 16128, Note_on_c, 1, 67, 62
1, 16176, Note_on_c, 0, 74, 70
1, 16217, Note_on_c, 1, 70, 0
1, 16217, Note_on_c, 1, 67, 0
1, 16221, Note_on_c, 0, 74, 0
1, 16224, Note_on_c, 0, 75, 70
1, 16224, Note_on_c, 1, 70, 62
1, 16224, Note_on_c, 1, 67, 62
1, 16236, Note_on_c, 0, 75, 0
1, 16236, Note_on_c, 0, 77, 70
1, 16248, Note_on_c, 0, 77, 0
1, 16248, Note_on_c, 0, 75, 70
1, 16269, Note_on_c, 0, 75, 0
1, 16272, Note_on_c, 0, 74, 70
1, 16313, Note_on_c, 1, 70, 0
1, 16313, Note_on_c, 1, 67, 0
1, 16317, Note_on_c, 0, 74, 0
1, 16320, Note_on_c, 0, 75, 70
1, 16320, Note_on_c, 1, 70, 62
1, 16320, Note_on_c, 1, 67, 62
1, 16332, Note_on_c, 0, 75, 0
1, 16332, Note_on_c, 0, 77, 70
1, 16344, Note_on_c, 0, 77, 0
1, 16344, Note_on_c, 0, 75, 70
1, 16365, Note_on_c, 0, 75, 0
1, 16368, Note_on_c, 0, 74, 70
1, 16409, Note_on_c, 1, 70, 0
1, 16409, Note_on_c, 1, 67, 0
1, 16413, Note_on_c, 0, 74, 0
1, 16416, Note_on_c, 0, 73, 70
1, 16416, Note_on_c, 1, 69, 62
1, 16416, Note_on_c, 1, 67, 62
1, 16446, Note_on_c, 0, 73, 0
1, 16448, Note_on_c, 0, 74, 70
1, 16478, Note_on_c, 0, 74, 0
1, 16480, Note_on_c, 0, 76, 70
1, 16505, Note_on_c, 1, 69, 0
1, 16505, Note_on_c, 1, 67, 0
1, 16510, Note_on_c, 0, 76, 0
1, 16512, Note_on_c, 0, 76, 70
1, 16512, Note_on_c, 1, 69, 62
1, 16512, Note_on_c, 1, 67, 62
1, 16542, Note_on_c, 0, 76, 0
1, 16544, Note_on_c, 0, 77, 70
1, 16574, Note_on_c, 0, 77, 0
1, 16576, Note_on_c, 0, 79, 71
1, 16601, Note_on_c, 1, 69, 0
1, 16601, Note_on_c, 1, 67, 0
1, 16606, Note_on_c, 0, 79, 0
1, 16608, Note_on_c, 0, 79, 71
1, 16608, Note_on_c, 1, 69, 63
1, 16608, Note_on_c, 1, 67, 63
1, 16638, Note_on_c, 0, 79, 0
1, 16640, Note_on_c, 0, 81, 71
1, 16670, Note_on_c, 0, 81, 0
1, 16672, Note_on_c, 0, 82, 71
1, 16697, Note_on_c, 1, 69, 0
1, 16697, Note_on_c, 1, 67, 0
1, 16702, Note_on_c, 0, 82, 0
1, 16704, Note_on_c, 0, 81, 87
1, 16704, Note_on_c, 1, 69, 63
1, 16704, Note_on_c, 1, 66, 63
1, 16752, Note_on_c, 0, 81, 0
1, 16752, Note_on_c, 0, 73, 72
1, 16793, Note_on_c, 1, 69, 0
1, 16793, Note_on_c, 1, 66, 0
1, 16797, Note_on_c, 0, 73, 0
1, 16800, Note_on_c, 0, 74, 72
1, 16800, Note_on_c, 1, 69, 64
1, 16800, Note_on_c, 1, 66, 64
1, 16812, Note_on_c, 0, 74, 0
1, 16812, Note_on_c, 0, 75, 72
1, 16824, Note_on_c, 0, 75, 0
1, 16824, Note_on_c, 0, 74, 72
1, 16845, Note_on_c, 0, 74, 0
1, 16848, Note_on_c, 0, 73, 73
1, 16889, Note_on_c, 1, 69, 0
1, 16889, Note_on_c, 1, 66, 0
1, 16893, Note_on_c, 0, 73, 0
1, 16896, Note_on_c, 0, 74, 73
1, 16896, Note_on_c, 1, 69, 64
1, 16896, Note_on_c, 1, 66, 64
1, 16908, Note_on_c, 0, 74, 0
1, 16908, Note_on_c, 0, 75, 73
1, 16920, Note_on_c, 0, 75, 0
1, 16920, Note_on_c, 0, 74, 73
1, 16941, Note_on_c, 0, 74, 0
1, 16944, Note_on_c, 0, 72, 73
1, 16985, Note_on_c, 1, 69, 0
1, 16985, Note_on_c, 1, 66, 0
1, 16989, Note_on_c, 0, 72, 0
1, 16992, Note_on_c, 0, 71, 74
1, 16992, Note_on_c, 1, 67, 65
1, 16992, Note_on_c, 1, 65, 65
1, 17022, Note_on_c, 0, 71, 0
1, 17024, Note_on_c, 0, 72, 74
1, 17054, Note_on_c, 0, 72, 0
1, 17056, Note_on_c, 0, 74, 74
1, 17081, Note_on_c, 1, 67, 0
1, 17081, Note_on_c, 1, 65, 0
1, 17086, Note_on_c, 0, 74, 0
1, 17088, Note_on_c, 0, 74, 74
1, 17088, Note_on_c, 1, 67, 65
1, 17088, Note_on_c, 1, 65, 65
1, 17118, Note_on_c, 0, 74, 0
1, 17120, Note_on_c, 0, 75, 75
1, 17150, Note_on_c, 0, 75, 0
1, 17152, Note_on_c, 0, 77, 75
1, 17177, Note_on_c, 1, 67, 0
1, 17177, Note_on_c, 1, 65, 0
1, 17182, Note_on_c, 0, 77, 0
1, 17184, Note_on_c, 0, 77, 75
1, 17184, Note_on_c, 1, 67, 66
1, 17184, Note_on_c, 1, 65, 66
1, 17214, Note_on_c, 0, 77, 0
1, 17216, Note_on_c, 0, 79, 75
1, 17246, Note_on_c, 0, 79, 0
1, 17248, Note_on_c, 0, 80, 75
1, 17273, Note_on_c, 1, 67, 0
1, 17273, Note_on_c, 1, 65, 0
1, 17278, Note_on_c, 0, 80, 0
1, 17280, Note_on_c, 0, 79, 92
1, 17280, Note_on_c, 1, 67, 66
1, 17280, Note_on_c, 1, 64, 66
1, 17328, Note_on_c, 0, 79, 0
1, 17328, Note_on_c, 0, 71, 76
1, 17369, Note_on_c, 1, 67, 0
1, 17369, Note_on_c, 1, 64, 0
1, 17373, Note_on_c, 0, 71, 0
1, 17376, Note_on_c, 0, 72, 76
1, 17376, Note_on_c, 1, 67, 67
1, 17376, Note_on_c, 1, 64, 67
1, 17388, Note_on_c, 0, 72, 0
1, 17388, Note_on_c, 0, 74, 76
1, 17400, Note_on_c, 0, 74, 0
1, 17400, Note_on_c, 0, 72, 76
1, 17421, Note_on_c, 0, 72, 0
1, 17424, Note_on_c, 0, 71, 77
1, 17465, Note_on_c, 1, 67, 0
1, 17465, Note_on_c, 1, 64, 0
1, 17469, Note_on_c, 0, 71, 0
1, 17472, Note_on_c, 0, 72, 77
1, 17472, Note_on_c, 1, 67, 67
1, 17472, Note_on_c, 1, 64, 67
1, 17484, Note_on_c, 0, 72, 0
1, 17484, Note_on_c, 0, 74, 77
1, 17496, Note_on_c, 0, 74, 0
1, 17496, Note_on_c, 0, 72, 77
1, 17517, Note_on_c, 0, 72, 0
1, 17520, Note_on_c, 0, 70, 77
1, 17561, Note_on_c, 1, 67, 0
1, 17561, Note_on_c, 1, 64, 0
1, 17565, Note_on_c, 0, 70, 0
1, 17568, Note_on_c, 0, 69, 78
1, 17568, Note_on_c, 1, 65, 68
1, 17568, Note_on_c, 1, 63, 68
1, 17598, Note_on_c, 0, 69, 0
1, 17600, Note_on_c, 0, 70, 78
1, 17630, Note_on_c, 0, 70, 0
1, 17632, Note_on_c, 0, 72, 78
1, 17657, Note_on_c, 1, 65, 0
1, 17657, Note_on_c, 1, 63, 0
1, 17662, Note_on_c, 0, 72, 0
1, 17664, Note_on_c, 0, 72, 78
1, 17664, Note_on_c, 1, 65, 68
1, 17664, Note_on_c, 1, 63, 68
1, 17694, Note_on_c, 0, 72, 0
1, 17696, Note_on_c, 0, 74, 79
1, 17726, Note_on_c, 0, 74, 0
1, 17728, Note_on_c, 0, 75, 79
1, 17753, Note_on_c, 1, 65, 0
1, 17753, Note_on_c, 1, 63, 0
1, 17758, Note_on_c, 0, 75, 0
1, 17760, Note_on_c, 0, 75, 79
1, 17760, Note_on_c, 1, 65, 69
1, 17760, Note_on_c, 1, 63, 69
1, 17790, Note_on_c, 0, 75, 0
1, 17792, Note_on_c, 0, 77, 79
1, 17822, Note_on_c, 0, 77, 0
1, 17824, Note_on_c, 0, 79, 80
1, 17849, Note_on_c, 1, 65, 0
1, 17849, Note_on_c, 1, 63, 0
1, 17854, Note_on_c, 0, 79, 0
1, 17856, Note_on_c, 0, 77, 96
1, 17856, Note_on_c, 1, 65, 69
1, 17856, Note_on_c, 1, 62, 69
1, 17904, Note_on_c, 0, 77, 0
1, 17904, Note_on_c, 0, 69, 81
1, 17945, Note_on_c, 1, 65, 0
1, 17945, Note_on_c, 1, 62, 0
1, 17949, Note_on_c, 0, 69, 0
1, 17952, Note_on_c, 0, 70, 81
1, 17964, Note_on_c, 0, 70, 0
1, 17964, Note_on_c, 0, 72, 81
1, 17976, Note_on_c, 0, 72, 0
1, 17976, Note_on_c, 0, 70, 81
1, 17997, Note_on_c, 0, 70, 0
1, 18000, Note_on_c, 0, 69, 81
1, 18045, Note_on_c, 0, 69, 0
1, 18048, Note_on_c, 0, 70, 81
1, 18093, Note_on_c, 0, 70, 0
1, 18096, Note_on_c, 0, 62, 81
1, 18096, Note_on_c, 1, 50, 81
1, 18141, Note_on_c, 0, 62, 0
1, 18141, Note_on_c, 1, 50, 0
1, 18144, Note_on_c, 0, 63, 97
1, 18144, Note_on_c, 1, 51, 81
1, 18192, Note_on_c, 0, 63, 0
1, 18192, Note_on_c, 0, 69, 81
1, 18233, Note_on_c, 1, 51, 0
1, 18237, Note_on_c, 0, 69, 0
1, 18240, Note_on_c, 0, 70, 81
1, 18252, Note_on_c, 0, 70, 0
1, 18252, Note_on_c, 0, 72, 81
1, 18264, Note_on_c, 0, 72, 0
1, 18264, Note_on_c, 0, 70, 81
1, 18285, Note_on_c, 0, 70, 0
1, 18288, Note_on_c, 0, 69, 81
1, 18333, Note_on_c, 0, 69, 0
1, 18336, Note_on_c, 0, 70, 81
1, 18381, Note_on_c, 0, 70, 0
1, 18384, Note_on_c, 0, 64, 81
1, 18384, Note_on_c, 1, 52, 81
1, 18429, Note_on_c, 0, 64, 0
1, 18429, Note_on_c, 1, 52, 0
1, 18432, Note_on_c, 0, 65, 97
1, 18432, Note_on_c, 1, 53, 81
1, 18480, Note_on_c, 0, 65, 0
1, 18480, Note_on_c, 0, 69, 81
1, 18521, Note_on_c, 1, 53, 0
1, 18525, Note_on_c, 0, 69, 0
1, 18528, Note_on_c, 0, 70, 81
1, 18540, Note_on_c, 0, 70, 0
1, 18540, Note_on_c, 0, 72, 81
1, 18552, Note_on_c, 0, 72, 0
1, 18552, Note_on_c, 0, 70, 81
1, 18573, Note_on_c, 0, 70, 0
1, 18576, Note_on_c, 0, 69, 81
1, 18621, Note_on_c, 0, 69, 0
1, 18624, Note_on_c, 0, 70, 81
1, 18669, Note_on_c, 0, 70, 0
1, 18672, Note_on_c, 0, 66, 81
1, 18672, Note_on_c, 1, 54, 81
1, 18717, Note_on_c, 0, 66, 0
1, 18717, Note_on_c, 1, 54, 0
1, 18720, Note_on_c, 0, 67, 97
1, 18720, Note_on_c, 1, 55, 81
1, 18768, Note_on_c, 0, 67, 0
1, 18768, Note_on_c, 0, 69, 81
1, 18809, Note_on_c, 1, 55, 0
1, 18813, Note_on_c, 0, 69, 0
1, 18816, Note_on_c, 0, 70, 81
1, 18828, Note_on_c, 0, 70, 0
1, 18828, Note_on_c, 0, 72, 81
1, 18840, Note_on_c, 0, 72, 0
1, 18840, Note_on_c, 0, 70, 81
1, 18861, Note_on_c, 0, 70, 0
1, 18864, Note_on_c, 0, 69, 81
1, 18909, Note_on_c, 0, 69, 0
1, 18912, Note_on_c, 0, 70, 81
1, 18957, Note_on_c, 0, 70, 0
1, 18960, Note_on_c, 0, 62, 81
1, 18960, Note_on_c, 1, 50, 81
1, 19005, Note_on_c, 0, 62, 0
1, 19005, Note_on_c, 1, 50, 0
1, 19008, Note_on_c, 0, 63, 81
1, 19008, Note_on_c, 1, 51, 81
1, 19053, Note_on_c, 0, 63, 0
1, 19053, Note_on_c, 1, 51, 0
1, 19056, Note_on_c, 0, 62, 81
1, 19056, Note_on_c, 1, 50, 81
1, 19101, Note_on_c, 0, 62, 0
1, 19101, Note_on_c, 1, 50, 0
1, 19104, Note_on_c, 0, 63, 81
1, 19104, Note_on_c, 1, 51, 81
1, 19149, Note_on_c, 0, 63, 0
1, 19149, Note_on_c, 1, 51, 0
1, 19152, Note_on_c, 0, 60, 81
1, 19152, Note_on_c, 1, 48, 81
1, 19197, Note_on_c, 0, 60, 0
1, 19197, Note_on_c, 1, 48, 0
1, 19200, Note_on_c, 0, 65, 81
1, 19200, Note_on_c, 1, 53, 81
1, 19245, Note_on_c, 0, 65, 0
1, 19245, Note_on_c, 1, 53, 0
1, 19248, Note_on_c, 0, 57, 81
1, 19248, Note_on_c, 1, 41, 81
1, 19293, Note_on_c, 0, 57, 0
1, 19293, Note_on_c, 1, 41, 0
1, 19296, Note_on_c, 0, 58, 81
1, 19296, Note_on_c, 1, 46, 81
1, 19308, Note_on_c, 0, 58, 0
1, 19308, Note_on_c, 0, 57, 81
1, 19320, Note_on_c, 0, 57, 0
1, 19320, Note_on_c, 0, 55, 81
1, 19332, Note_on_c, 0, 55, 0
1, 19332, Note_on_c, 0, 57, 81
1, 19385, Note_on_c, 0, 57, 0
1, 19385, Note_on_c, 1, 46, 0
1, 19392, Note_on_c, 0, 58, 81
1, 19392, Note_on_c, 1, 41, 81
1, 19481, Note_on_c, 0, 58, 0
1, 19481, Note_on_c, 1, 41, 0
1, 19488, Note_on_c, 1, 34, 81
1, 19577, Note_on_c, 1, 34, 0
1, 19584, Note_on_c, 1, 70, 62
1, 19584, Note_on_c, 1, 67, 62
1, 19632, Note_on_c, 0, 74, 70
1, 19673, Note_on_c, 1, 70, 0
1, 19673, Note_on_c, 1, 67, 0
1, 19677, Note_on_c, 0, 74, 0
1, 19680, Note_on_c, 0, 75, 70
1, 19680, Note_on_c, 1, 70, 62
1, 19680, Note_on_c, 1, 67, 62
1, 19692, Note_on_c, 0, 75, 0
1, 19692, Note_on_c, 0, 77, 70
1, 19704, Note_on_c, 0, 77, 0
1, 19704, Note_on_c, 0, 75, 70
1, 19725, Note_on_c, 0, 75, 0
1, 19728, Note_on_c, 0, 74, 70
1, 19769, Note_on_c, 1, 70, 0
1, 19769, Note_on_c, 1, 67, 0
1, 19773, Note_on_c, 0, 74, 0
1, 19776, Note_on_c, 0, 75, 70
1, 19776, Note_on_c, 1, 70, 62
1, 19776, Note_on_c, 1, 67, 62
1, 19788, Note_on_c, 0, 75, 0
1, 19788, Note_on_c, 0, 77, 70
1, 19800, Note_on_c, 0, 77, 0
1, 19800, Note_on_c, 0, 75, 70
1, 19821, Note_on_c, 0, 75, 0
1, 19824, Note_on_c, 0, 74, 70
1, 19865, Note_on_c, 1, 70, 0
1, 19865, Note_on_c, 1, 67, 0
1, 19869, Note_on_c, 0, 74, 0
1, 19872, Note_on_c, 0, 73, 70
1, 19872, Note_on_c, 1, 69, 62
1, 19872, Note_on_c, 1, 67, 62
1, 19902, Note_on_c, 0, 73, 0
1, 19904, Note_on_c, 0, 74, 70
1, 19934, Note_on_c, 0, 74, 0
1, 19936, Note_on_c, 0, 76, 70
1, 19961, Note_on_c, 1, 69, 0
1, 19961, Note_on_c, 1, 67, 0
1, 19966, Note_on_c, 0, 76, 0
1, 19968, Note_on_c, 0, 76, 70
1, 19968, Note_on_c, 1, 69, 62
1, 19968, Note_on_c, 1, 67, 62
1, 19998, Note_on_c, 0, 76, 0
1, 20000, Note_on_c, 0, 77, 70
1, 20030, Note_on_c, 0, 77, 0
1, 20032, Note_on_c, 0, 79, 71
1, 20057, Note_on_c, 1, 69, 0
1, 20057, Note_on_c, 1, 67, 0
1, 20062, Note_on_c, 0, 79, 0
1, 20064, Note_on_c, 0, 79, 71
1, 20064, Note_on_c, 1, 69, 63
1, 20064, Note_on_c, 1, 67, 63
1, 20094, Note_on_c, 0, 79, 0
1, 20096, Note_on_c, 0, 81, 71
1, 20126, Note_on_c, 0, 81, 0
1, 20128, Note_on_c, 0, 82, 71
1, 20153, Note_on_c, 1, 69, 0
1, 20153, Note_on_c, 1, 67, 0
1, 20158, Note_on_c, 0, 82, 0
1, 20160, Note_on_c, 0, 81, 87
1, 20160, Note_on_c, 1, 69, 63
1, 20160, Note_on_c, 1, 66, 63
1, 20208, Note_on_c, 0, 81, 0
1, 20208, Note_on_c, 0, 73, 72
1, 20249, Note_on_c, 1, 69, 0
1, 20249, Note_on_c, 1, 66, 0
1, 20253, Note_on_c, 0, 73, 0
1, 20256, Note_on_c, 0, 74, 72
1, 20256, Note_on_c, 1, 69, 64
1, 20256, Note_on_c, 1, 66, 64
1, 20268, Note_on_c, 0, 74, 0
1, 20268, Note_on_c, 0, 75, 72
1, 20280, Note_on_c, 0, 75, 0
1, 20280, Note_on_c, 0, 74, 72
1, 20301, Note_on_c, 0, 74, 0
1, 20304, Note_on_c, 0, 73, 73
1, 20345, Note_on_c, 1, 69, 0
1, 20345, Note_on_c, 1, 66, 0
1, 20349, Note_on_c, 0, 73, 0
1, 20352, Note_on_c, 0, 74, 73
1, 20352, Note_on_c, 1, 69, 64
1, 20352, Note_on_c, 1, 66, 64
1, 20364, Note_on_c, 0, 74, 0
1, 20364, Note_on_c, 0, 75, 73
1, 20376, Note_on_c, 0, 75, 0
1, 20376, Note_on_c, 0, 74, 73
1, 20397, Note_on_c, 0, 74, 0
1, 20400, Note_on_c, 0, 72, 73
1, 20441, Note_on_c, 1, 69, 0
1, 20441, Note_on_c, 1, 66, 0
1, 20445, Note_on_c, 0, 72, 0
1, 20448, Note_on_c, 0, 71, 74
1, 20448, Note_on_c, 1, 67, 65
1, 20448, Note_on_c, 1, 65, 65
1, 20478, Note_on_c, 0, 71, 0
1, 20480, Note_on_c, 0, 72, 74
1, 20510, Note_on_c, 0, 72, 0
1, 20512, Note_on_c, 0, 74, 74
1, 20537, Note_on_c, 1, 67, 0
1, 20537, Note_on_c, 1, 65, 0
1, 20542, Note_on_c, 0, 74, 0
1, 20544, Note_on_c, 0, 74, 74
1, 20544, Note_on_c, 1, 67, 65
1, 20544, Note_on_c, 1, 65, 65
1, 20574, Note_on_c, 0, 74, 0
1, 20576, Note_on_c, 0, 75, 75
1, 20606, Note_on_c, 0, 75, 0
1, 20608, Note_on_c, 0, 77, 75
1, 20633, Note_on_c, 1, 67, 0
1, 20633, Note_on_c, 1, 65, 0
1, 20638, Note_on_c, 0, 77, 0
1, 20640, Note_on_c, 0, 77, 75
1, 20640, Note_on_c, 1, 67, 66
1, 20640, Note_on_c, 1, 65, 66
1, 20670, Note_on_c, 0, 77, 0
1, 20672, Note_on_c, 0, 79, 75
1, 20702, Note_on_c, 0, 79, 0
1, 20704, Note_on_c, 0, 80, 75
1, 20729, Note_on_c, 1, 67, 0
1, 20729, Note_on_c, 1, 65, 0
1, 20734, Note_on_c, 0, 80, 0
1, 20736, Note_on_c, 0, 79, 92
1, 20736, Note_on_c, 1, 67, 66
1, 20736, Note_on_c, 1, 64, 66
1, 20784, Note_on_c, 0, 79, 0
1, 20784, Note_on_c, 0, 71, 76
1, 20825, Note_on_c, 1, 67, 0
1, 20825, Note_on_c, 1, 64, 0
1, 20829, Note_on_c, 0, 71, 0
1, 20832, Note_on_c, 0, 72, 76
1, 20832, Note_on_c, 1, 67, 67
1, 20832, Note_on_c, 1, 64, 67
1, 20844, Note_on_c, 0, 72, 0
1, 20844, Note_on_c, 0, 74, 76
1, 20856, Note_on_c, 0, 74, 0
1, 20856, Note_on_c, 0, 72, 76
1, 20877, Note_on_c, 0, 72, 0
1, 20880, Note_on_c, 0, 71, 77
1, 20921, Note_on_c, 1, 67, 0
1, 20921, Note_on_c, 1, 64, 0
1, 20925, Note_on_c, 0, 71, 0
1, 20928, Note_on_c, 0, 72, 77
1, 20928, Note_on_c, 1, 67, 67
1, 20928, Note_on_c, 1, 64, 67
1, 20940, Note_on_c, 0, 72, 0
1, 20940, Note_on_c, 0, 74, 77
1, 20952, Note_on_c, 0, 74, 0
1, 20952, Note_on_c, 0, 72, 77
1, 20973, Note_on_c, 0, 72, 0
1, 20976, Note_on_c, 0, 70, 77
1, 21017, Note_on_c, 1, 67, 0
1, 21017, Note_on_c, 1, 64, 0
1, 21021, Note_on_c, 0, 70, 0
1, 21024, Note_on_c, 0, 69, 78
1, 21024, Note_on_c, 1, 65, 68
1, 21024, Note_on_c, 1, 63, 68
1, 21054, Note_on_c, 0, 69, 0
1, 21056, Note_on_c, 0, 70, 78
1, 21086, Note_on_c, 0, 70, 0
1, 21088, Note_on_c, 0, 72, 78
1, 21113, Note_on_c, 1, 65, 0
1, 21113, Note_on_c, 1, 63, 0
1, 21118, Note_on_c, 0, 72, 0
1, 21120, Note_on_c, 0, 72, 78
1, 21120, Note_on_c, 1, 65, 68
1, 21120, Note_on_c, 1, 63, 68
1, 21150, Note_on_c, 0, 72, 0
1, 21152, Note_on_c, 0, 74, 79
1, 21182, Note_on_c, 0, 74, 0
1, 21184, Note_on_c, 0, 75, 79
1, 21209, Note_on_c, 1, 65, 0
1, 21209, Note_on_c, 1, 63, 0
1, 21214, Note_on_c, 0, 75, 0
1, 21216, Note_on_c, 0, 75, 79
1, 21216, Note_on_c, 1, 65, 69
1, 21216, Note_on_c, 1, 63, 69
1, 21246, Note_on_c, 0, 75, 0
1, 21248, Note_on_c, 0, 77, 79
1, 21278, Note_on_c, 0, 77, 0
1, 21280, Note_on_c, 0, 79, 80
1, 21305, Note_on_c, 1, 65, 0
1, 21305, Note_on_c, 1, 63, 0
1, 21310, Note_on_c, 0, 79, 0
1, 21312, Note_on_c, 0, 77, 96
1, 21312, Note_on_c, 1, 65, 69
1, 21312, Note_on_c, 1, 62, 69
1, 21360, Note_on_c, 0, 77, 0
1, 21360, Note_on_c, 0, 69, 81
1, 21401, Note_on_c, 1, 65, 0
1, 21401, Note_on_c, 1, 62, 0
1, 21405, Note_on_c, 0, 69, 0
1, 21408, Note_on_c, 0, 70, 81
1, 21420, Note_on_c, 0, 70, 0
1, 21420, Note_on_c, 0, 72, 81
1, 21432, Note_on_c, 0, 72, 0
1, 21432, Note_on_c, 0, 70, 81
1, 21453, Note_on_c, 0, 70, 0
1, 21456, Note_on_c, 0, 69, 81
1, 21501, Note_on_c, 0, 69, 0
1, 21504, Note_on_c, 0, 70, 81
1, 21549, Note_on_c, 0, 70, 0
1, 21552, Note_on_c, 0, 62, 81
1, 21552, Note_on_c, 1, 50, 81
1, 21597, Note_on_c, 0, 62, 0
1, 21597, Note_on_c, 1, 50, 0
1, 21600, Note_on_c, 0, 63, 97
1, 21600, Note_on_c, 1, 51, 81
1, 21648, Note_on_c, 0, 63, 0
1, 21648, Note_on_c, 0, 69, 81
1, 21689, Note_on_c, 1, 51, 0
1, 21693, Note_on_c, 0, 69, 0
1, 21696, Note_on_c, 0, 70, 81
1, 21708, Note_on_c, 0, 70, 0
1, 21708, Note_on_c, 0, 72, 81
1, 21720, Note_on_c, 0, 72, 0
1, 21720, Note_on_c, 0, 70, 81
1, 21741, Note_on_c, 0, 70, 0
1, 21744, Note_on_c, 0, 69, 81
1, 21789, Note_on_c, 0, 69, 0
1, 21792, Note_on_c, 0, 70, 81
1, 21837, Note_on_c, 0, 70, 0
1, 21840, Note_on_c, 0, 64, 81
1, 21840, Note_on_c, 1, 52, 81
1, 21885, Note_on_c, 0, 64, 0
1, 21885, Note_on_c, 1, 52, 0
1, 21888, Note_on_c, 0, 65, 97
1, 21888, Note_on_c, 1, 53, 81
1, 21936, Note_on_c, 0, 65, 0
1, 21936, Note_on_c, 0, 69, 81
1, 21977, Note_on_c, 1, 53, 0
1, 21981, Note_on_c, 0, 69, 0
1, 21984, Note_on_c, 0, 70, 81
1, 21996, Note_on_c, 0, 70, 0
1, 21996, Note_on_c, 0, 72, 81
1, 22008, Note_on_c, 0, 72, 0
1, 22008, Note_on_c, 0, 70, 81
1, 22029, Note_on_c, 0, 70, 0
1, 22032, Note_on_c, 0, 69, 81
1, 22077, Note_on_c, 0, 69, 0
1, 22080, Note_on_c, 0, 70, 81
1, 22125, Note_on_c, 0, 70, 0
1, 22128, Note_on_c, 0, 66, 81
1, 22128, Note_on_c, 1, 54, 81
1, 22173, Note_on_c, 0, 66, 0
1, 22173, Note_on_c, 1, 54, 0
1, 22176, Note_on_c, 0, 67, 97
1, 22176, Note_on_c, 1, 55, 81
1, 22224, Note_on_c, 0, 67, 0
1, 22224, Note_on_c, 0, 69, 81
1, 22265, Note_on_c, 1, 55, 0
1, 22269, Note_on_c, 0, 69, 0
1, 22272, Note_on_c, 0, 70, 81
1, 22284, Note_on_c, 0, 70, 0
1, 22284, Note_on_c, 0, 72, 81
1, 22296, Note_on_c, 0, 72, 0
1, 22296, Note_on_c, 0, 70, 81
1, 22317, Note_on_c, 0, 70, 0
1, 22320, Note_on_c, 0, 69, 81
1, 22365, Note_on_c, 0, 69, 0
1, 22368, Note_on_c, 0, 70, 81
1, 22413, Note_on_c, 0, 70, 0
1, 22416, Note_on_c, 0, 62, 81
1, 22416, Note_on_c, 1, 50, 81
1, 22461, Note_on_c, 0, 62, 0
1, 22461, Note_on_c, 1, 50, 0
1, 22464, Note_on_c, 0, 63, 81
1, 22464, Note_on_c, 1, 51, 81
1, 22509, Note_on_c, 0, 63, 0
1, 22509, Note_on_c, 1, 51, 0
1, 22512, Note_on_c, 0, 62, 81
1, 22512, Note_on_c, 1, 50, 81
1, 22557, Note_on_c, 0, 62, 0
1, 22557, Note_on_c, 1, 50, 0
1, 22560, Note_on_c, 0, 63, 81
1, 22560, Note_on_c, 1, 51, 81
1, 22605, Note_on_c, 0, 63, 0
1, 22605, Note_on_c, 1, 51, 0
1, 22608, Note_on_c, 0, 60, 81
1, 22608, Note_on_c, 1, 48, 81
1, 22653, Note_on_c, 0, 60, 0
1, 22653, Note_on_c, 1, 48, 0
1, 22656, Note_on_c, 0, 65, 81
1, 22656, Note_on_c, 1, 53, 81
1, 22701, Note_on_c, 0, 65, 0
1, 22701, Note_on_c, 1, 53, 0
1, 22704, Note_on_c, 0, 57, 81
1, 22704, Note_on_c, 1, 41, 81
1, 22749, Note_on_c, 0, 57, 0
1, 22749, Note_on_c, 1, 41, 0
1, 22752, Note_on_c, 0, 58, 81
1, 22752, Note_on_c, 1, 46, 81
1, 22764, Note_on_c, 0, 58, 0
1, 22764, Note_on_c, 0, 57, 81
1, 22776, Note_on_c, 0, 57, 0
1, 22776, Note_on_c, 0, 55, 81
1, 22788, Note_on_c, 0, 55, 0
1, 22788, Note_on_c, 0, 57, 81
1, 22841, Note_on_c, 0, 57, 0
1, 22841, Note_on_c, 1, 46, 0
1, 22848, Note_on_c, 0, 58, 81
1, 22848, Note_on_c, 1, 41, 81
1, 22937, Note_on_c, 0, 58, 0
1, 22937, Note_on_c, 1, 41, 0
1, 22944, Note_on_c, 1, 34, 81
1, 23033, Note_on_c, 1, 34, 0
1, 23040, Note_on_c, 0, 58, 66
1, 23088, Note_on_c, 0, 65, 70
1, 23088, Note_on_c, 1, 62, 70
1, 23133, Note_on_c, 0, 65, 0
1, 23133, Note_on_c, 1, 62, 0
1, 23136, Note_on_c, 0, 67, 70
1, 23136, Note_on_c, 1, 63, 70
1, 23148, Note_on_c, 0, 67, 0
1, 23148, Note_on_c, 0, 68, 70
1, 23160, Note_on_c, 0, 68, 0
1, 23160, Note_on_c, 0, 67, 70
1, 23181, Note_on_c, 0, 67, 0
1, 23181, Note_on_c, 1, 63, 0
1, 23184, Note_on_c, 0, 65, 70
1, 23184, Note_on_c, 1, 62, 70
1, 23229, Note_on_c, 0, 65, 0
1, 23229, Note_on_c, 1, 62, 0
1, 23232, Note_on_c, 0, 67, 71
1, 23232, Note_on_c, 1, 63, 71
1, 23244, Note_on_c, 0, 67, 0
1, 23244, Note_on_c, 0, 68, 71
1, 23256, Note_on_c, 0, 68, 0
1, 23256, Note_on_c, 0, 67, 71
1, 23277, Note_on_c, 0, 67, 0
1, 23277, Note_on_c, 1, 63, 0
1, 23280, Note_on_c, 0, 65, 71
1, 23280, Note_on_c, 1, 62, 71
1, 23305, Note_on_c, 0, 58, 0
1, 23325, Note_on_c, 0, 65, 0
1, 23325, Note_on_c, 1, 62, 0
1, 23328, Note_on_c, 0, 59, 70
1, 23376, Note_on_c, 0, 68, 72
1, 23376, Note_on_c, 1, 65, 72
1, 23421, Note_on_c, 0, 68, 0
1, 23421, Note_on_c, 1, 65, 0
1, 23424, Note_on_c, 0, 67, 72
1, 23424, Note_on_c, 1, 64, 72
1, 23469, Note_on_c, 0, 67, 0
1, 23469, Note_on_c, 1, 64, 0
1, 23472, Note_on_c, 0, 68, 73
1, 23472, Note_on_c, 1, 65, 73
1, 23517, Note_on_c, 0, 68, 0
1, 23517, Note_on_c, 1, 65, 0
1, 23520, Note_on_c, 0, 67, 73
1, 23520, Note_on_c, 1, 64, 73
1, 23565, Note_on_c, 0, 67, 0
1, 23565, Note_on_c, 1, 64, 0
1, 23568, Note_on_c, 0, 68, 73
1, 23568, Note_on_c, 1, 65, 73
1, 23593, Note_on_c, 0, 59, 0
1, 23613, Note_on_c, 0, 68, 0
1, 23613, Note_on_c, 1, 65, 0
1, 23616, Note_on_c, 0, 60, 72
1, 23664, Note_on_c, 0, 67, 74
1, 23664, Note_on_c, 1, 63, 74
1, 23709, Note_on_c, 0, 67, 0
1, 23709, Note_on_c, 1, 63, 0
1, 23712, Note_on_c, 0, 68, 75
1, 23712, Note_on_c, 1, 65, 74
1, 23724, Note_on_c, 0, 68, 0
1, 23724, Note_on_c, 0, 70, 75
1, 23736, Note_on_c, 0, 70, 0
1, 23736, Note_on_c, 0, 68, 75
1, 23757, Note_on_c, 0, 68, 0
1, 23757, Note_on_c, 1, 65, 0
1, 23760, Note_on_c, 0, 67, 75
1, 23760, Note_on_c, 1, 63, 75
1, 23805, Note_on_c, 0, 67, 0
1, 23805, Note_on_c, 1, 63, 0
1, 23808, Note_on_c, 0, 68, 75
1, 23808, Note_on_c, 1, 65, 75
1, 23820, Note_on_c, 0, 68, 0
1, 23820, Note_on_c, 0, 70, 75
1, 23832, Note_on_c, 0, 70, 0
1, 23832, Note_on_c, 0, 68, 75
1, 23853, Note_on_c, 0, 68, 0
1, 23853, Note_on_c, 1, 65, 0
1, 23856, Note_on_c, 0, 67, 76
1, 23856, Note_on_c, 1, 63, 76
1, 23881, Note_on_c, 0, 60, 0
1, 23901, Note_on_c, 0, 67, 0
1, 23901, Note_on_c, 1, 63, 0
1, 23904, Note_on_c, 0, 61, 75
1, 23952, Note_on_c, 0, 70, 77
1, 23952, Note_on_c, 1, 67, 76
1, 23997, Note_on_c, 0, 70, 0
1, 23997, Note_on_c, 1, 67, 0
1, 24000, Note_on_c, 0, 69, 77
1, 24000, Note_on_c, 1, 66, 77
1, 24045, Note_on_c, 0, 69, 0
1, 24045, Note_on_c, 1, 66, 0
1, 24048, Note_on_c, 0, 70, 77
1, 24048, Note_on_c, 1, 67, 77
1, 24093, Note_on_c, 0, 70, 0
1, 24093, Note_on_c, 1, 67, 0
1, 24096, Note_on_c, 0, 69, 78
1, 24096, Note_on_c, 1, 66, 77
1, 24141, Note_on_c, 0, 69, 0
1, 24141, Note_on_c, 1, 66, 0
1, 24144, Note_on_c, 0, 70, 78
1, 24144, Note_on_c, 1, 67, 78
1, 24169, Note_on_c, 0, 61, 0
1, 24189, Note_on_c, 0, 70, 0
1, 24189, Note_on_c, 1, 67, 0
1, 24192, Note_on_c, 0, 62, 78
1, 24240, Note_on_c, 0, 69, 79
1, 24240, Note_on_c, 1, 66, 79
1, 24285, Note_on_c, 0, 69, 0
1, 24285, Note_on_c, 1, 66, 0
1, 24288, Note_on_c, 0, 70, 79
1, 24288, Note_on_c, 1, 67, 79
1, 24300, Note_on_c, 0, 70, 0
1, 24300, Note_on_c, 0, 72, 79
1, 24312, Note_on_c, 0, 72, 0
1, 24312, Note_on_c, 0, 70, 79
1, 24333, Note_on_c, 0, 70, 0
1, 24333, Note_on_c, 1, 67, 0
1, 24336, Note_on_c, 0, 69, 80
1, 24336, Note_on_c, 1, 66, 79
1, 24369, Note_on_c, 0, 62, 0
1, 24381, Note_on_c, 0, 69, 0
1, 24381, Note_on_c, 1, 66, 0
1, 24384, Note_on_c, 1, 66, 80
1, 24384, Note_on_c, 0, 62, 80
1, 24432, Note_on_c, 0, 74, 81
1, 24473, Note_on_c, 1, 66, 0
1, 24473, Note_on_c, 0, 62, 0
1, 24477, Note_on_c, 0, 74, 0
1, 24480, Note_on_c, 1, 67, 81
1, 24480, Note_on_c, 0, 62, 81
1, 24528, Note_on_c, 0, 75, 81
1, 24569, Note_on_c, 1, 67, 0
1, 24573, Note_on_c, 0, 75, 0
1, 24576, Note_on_c, 1, 69, 81
1, 24624, Note_on_c, 0, 84, 81
1, 24665, Note_on_c, 1, 69, 0
1, 24669, Note_on_c, 0, 84, 0
1, 24672, Note_on_c, 1, 72, 81
1, 24720, Note_on_c, 0, 75, 81
1, 24745, Note_on_c, 0, 62, 0
1, 24761, Note_on_c, 1, 72, 0
1, 24765, Note_on_c, 0, 75, 0
1, 24768, Note_on_c, 1, 66, 81
1, 24768, Note_on_c, 0, 62, 81
1, 24816, Note_on_c, 0, 74, 81
1, 24857, Note_on_c, 1, 66, 0
1, 24861, Note_on_c, 0, 74, 0
1, 24864, Note_on_c, 1, 67, 81
1, 24912, Note_on_c, 0, 82, 81
1, 24953, Note_on_c, 1, 67, 0
1, 24957, Note_on_c, 0, 82, 0
1, 24960, Note_on_c, 1, 70, 81
1, 25008, Note_on_c, 0, 74, 81
1, 25033, Note_on_c, 0, 62, 0
1, 25049, Note_on_c, 1, 70, 0
1, 25053, Note_on_c, 0, 74, 0
1, 25056, Note_on_c, 1, 64, 81
1, 25056, Note_on_c, 0, 62, 81
1, 25104, Note_on_c, 0, 72, 81
1, 25145, Note_on_c, 1, 64, 0
1, 25149, Note_on_c, 0, 72, 0
1, 25152, Note_on_c, 1, 66, 81
1, 25200, Note_on_c, 0, 81, 81
1, 25241, Note_on_c, 1, 66, 0
1, 25245, Note_on_c, 0, 81, 0
1, 25248, Note_on_c, 1, 69, 81
1, 25296, Note_on_c, 0, 72, 81
1, 25321, Note_on_c, 0, 62, 0
1, 25337, Note_on_c, 1, 69, 0
1, 25341, Note_on_c, 0, 72, 0
1, 25344, Note_on_c, 1, 67, 81
1, 25344, Note_on_c, 0, 62, 81
1, 25392, Note_on_c, 0, 70, 81
1, 25433, Note_on_c, 1, 67, 0
1, 25437, Note_on_c, 0, 70, 0
1, 25440, Note_on_c, 1, 70, 81
1, 25488, Note_on_c, 0, 79, 78
1, 25521, Note_on_c, 0, 62, 0
1, 25529, Note_on_c, 1, 70, 0
1, 25533, Note_on_c, 0, 79, 0
1, 25536, Note_on_c, 1, 67, 78
1, 25536, Note_on_c, 0, 61, 81
1, 25584, Note_on_c, 0, 70, 76
1, 25625, Note_on_c, 1, 67, 0
1, 25625, Note_on_c, 0, 61, 0
1, 25629, Note_on_c, 0, 70, 0
1, 25632, Note_on_c, 0, 72, 74
1, 25632, Note_on_c, 1, 67, 75
1, 25632, Note_on_c, 0, 62, 77
1, 25647, Note_on_c, 0, 72, 0
1, 25648, Note_on_c, 0, 70, 74
1, 25663, Note_on_c, 0, 70, 0
1, 25664, Note_on_c, 0, 72, 74
1, 25679, Note_on_c, 0, 72, 0
1, 25680, Note_on_c, 0, 70, 73
1, 25695, Note_on_c, 0, 70, 0
1, 25696, Note_on_c, 0, 69, 73
1, 25711, Note_on_c, 0, 69, 0
1, 25712, Note_on_c, 0, 70, 73
1, 25721, Note_on_c, 1, 67, 0
1, 25727, Note_on_c, 0, 70, 0
1, 25728, Note_on_c, 0, 69, 73
1, 25728, Note_on_c, 1, 66, 72
1, 25809, Note_on_c, 0, 62, 0
1, 25817, Note_on_c, 0, 69, 0
1, 25817, Note_on_c, 1, 66, 0
1, 25920, Note_on_c, 1, 70, 62
1, 25920, Note_on_c, 1, 67, 62
1, 25968, Note_on_c, 0, 74, 70
1, 26009, Note_on_c, 1, 70, 0
1, 26009, Note_on_c, 1, 67, 0
1, 26013, Note_on_c, 0, 74, 0
1, 26016, Note_on_c, 0, 75, 70
1, 26016, Note_on_c, 1, 70, 62
1, 26016, Note_on_c, 1, 67, 62
1, 26028, Note_on_c, 0, 75, 0
1, 26028, Note_on_c, 0, 77, 70
1, 26040, Note_on_c, 0, 77, 0
1, 26040, Note_on_c, 0, 75, 70
1, 26061, Note_on_c, 0, 75, 0
1, 26064, Note_on_c, 0, 74, 70
1, 26105, Note_on_c, 1, 70, 0
1, 26105, Note_on_c, 1, 67, 0
1, 26109, Note_on_c, 0, 74, 0
1, 26112, Note_on_c, 0, 75, 70
1, 26112, Note_on_c, 1, 70, 62
1, 26112, Note_on_c, 1, 67, 62
1, 26124, Note_on_c, 0, 75, 0
1, 26124, Note_on_c, 0, 77, 70
1, 26136, Note_on_c, 0, 77, 0
1, 26136, Note_on_c, 0, 75, 70
1, 26157, Note_on_c, 0, 75, 0
1, 26160, Note_on_c, 0, 74, 70
1, 26201, Note_on_c, 1, 70, 0
1, 26201, Note_on_c, 1, 67, 0
1, 26205, Note_on_c, 0, 74, 0
1, 26208, Note_on_c, 0, 73, 70
1, 26208, Note_on_c, 1, 69, 62
1, 26208, Note_on_c, 1, 67, 62
1, 26238, Note_on_c, 0, 73, 0
1, 26240, Note_on_c, 0, 74, 70
1, 26270, Note_on_c, 0, 74, 0
1, 26272, Note_on_c, 0, 76, 70
1, 26297, Note_on_c, 1, 69, 0
1, 26297, Note_on_c, 1, 67, 0
1, 26302, Note_on_c, 0, 76, 0
1, 26304, Note_on_c, 0, 76, 71
1, 26304, Note_on_c, 1, 69, 64
1, 26304, Note_on_c, 1, 67, 64
1, 26334, Note_on_c, 0, 76, 0
1, 26336, Note_on_c, 0, 77, 71
1, 26366, Note_on_c, 0, 77, 0
1, 26368, Note_on_c, 0, 79, 71
1, 26393, Note_on_c, 1, 69, 0
1, 26393, Note_on_c, 1, 67, 0
1, 26398, Note_on_c, 0, 79, 0
1, 26400, Note_on_c, 0, 79, 72
1, 26400, Note_on_c, 1, 69, 66
1, 26400, Note_on_c, 1, 67, 66
1, 26430, Note_on_c, 0, 79, 0
1, 26432, Note_on_c, 0, 81, 72
1, 26462, Note_on_c, 0, 81, 0
1, 26464, Note_on_c, 0, 82, 73
1, 26489, Note_on_c, 1, 69, 0
1, 26489, Note_on_c, 1, 67, 0
1, 26494, Note_on_c, 0, 82, 0
1, 26496, Note_on_c, 0, 81, 89
1, 26496, Note_on_c, 1, 69, 68
1, 26496, Note_on_c, 1, 66, 68
1, 26544, Note_on_c, 0, 81, 0
1, 26544, Note_on_c, 0, 73, 74
1, 26585, Note_on_c, 1, 69, 0
1, 26585, Note_on_c, 1, 66, 0
1, 26589, Note_on_c, 0, 73, 0
1, 26592, Note_on_c, 0, 74, 74
1, 26592, Note_on_c, 1, 69, 70
1, 26592, Note_on_c, 1, 66, 70
1, 26604, Note_on_c, 0, 74, 0
1, 26604, Note_on_c, 0, 75, 74
1, 26616, Note_on_c, 0, 75, 0
1, 26616, Note_on_c, 0, 74, 74
1, 26637, Note_on_c, 0, 74, 0
1, 26640, Note_on_c, 0, 73, 75
1, 26681, Note_on_c, 1, 69, 0
1, 26681, Note_on_c, 1, 66, 0
1, 26685, Note_on_c, 0, 73, 0
1, 26688, Note_on_c, 0, 74, 75
1, 26688, Note_on_c, 1, 69, 72
1, 26688, Note_on_c, 1, 66, 72
1, 26700, Note_on_c, 0, 74, 0
1, 26700, Note_on_c, 0, 75, 75
1, 26712, Note_on_c, 0, 75, 0
1, 26712, Note_on_c, 0, 74, 75
1, 26733, Note_on_c, 0, 74, 0
1, 26736, Note_on_c, 0, 72, 76
1, 26777, Note_on_c, 1, 69, 0
1, 26777, Note_on_c, 1, 66, 0
1, 26781, Note_on_c, 0, 72, 0
1, 26784, Note_on_c, 0, 70, 93
1, 26784, Note_on_c, 1, 67, 74
1, 26832, Note_on_c, 0, 70, 0
1, 26832, Note_on_c, 0, 66, 77
1, 26873, Note_on_c, 1, 67, 0
1, 26877, Note_on_c, 0, 66, 0
1, 26880, Note_on_c, 0, 67, 78
1, 26892, Note_on_c, 0, 67, 0
1, 26892, Note_on_c, 0, 69, 78
1, 26904, Note_on_c, 0, 69, 0
1, 26904, Note_on_c, 0, 67, 78
1, 26925, Note_on_c, 0, 67, 0
1, 26928, Note_on_c, 0, 66, 78
1, 26973, Note_on_c, 0, 66, 0
1, 26976, Note_on_c, 0, 67, 79
1, 27021, Note_on_c, 0, 67, 0
1, 27024, Note_on_c, 0, 59, 80
1, 27024, Note_on_c, 1, 47, 79
1, 27024, Note_on_c, 1, 35, 79
1, 27069, Note_on_c, 0, 59, 0
1, 27069, Note_on_c, 1, 47, 0
1, 27069, Note_on_c, 1, 35, 0
1, 27072, Note_on_c, 0, 60, 97
1, 27072, Note_on_c, 1, 48, 81
1, 27120, Note_on_c, 0, 60, 0
1, 27120, Note_on_c, 0, 66, 81
1, 27161, Note_on_c, 1, 48, 0
1, 27165, Note_on_c, 0, 66, 0
1, 27168, Note_on_c, 0, 67, 81
1, 27180, Note_on_c, 0, 67, 0
1, 27180, Note_on_c, 0, 69, 81
1, 27192, Note_on_c, 0, 69, 0
1, 27192, Note_on_c, 0, 67, 81
1, 27213, Note_on_c, 0, 67, 0
1, 27216, Note_on_c, 0, 66, 81
1, 27261, Note_on_c, 0, 66, 0
1, 27264, Note_on_c, 0, 67, 81
1, 27309, Note_on_c, 0, 67, 0
1, 27312, Note_on_c, 0, 62, 81
1, 27312, Note_on_c, 1, 50, 81
1, 27357, Note_on_c, 0, 62, 0
1, 27357, Note_on_c, 1, 50, 0
1, 27360, Note_on_c, 0, 63, 97
1, 27360, Note_on_c, 1, 51, 81
1, 27408, Note_on_c, 0, 63, 0
1, 27408, Note_on_c, 0, 66, 81
1, 27449, Note_on_c, 1, 51, 0
1, 27453, Note_on_c, 0, 66, 0
1, 27456, Note_on_c, 0, 67, 81
1, 27468, Note_on_c, 0, 67, 0
1, 27468, Note_on_c, 0, 69, 81
1, 27480, Note_on_c, 0, 69, 0
1, 27480, Note_on_c, 0, 67, 81
1, 27501, Note_on_c, 0, 67, 0
1, 27504, Note_on_c, 0, 66, 81
1, 27549, Note_on_c, 0, 66, 0
1, 27552, Note_on_c, 0, 67, 81
1, 27597, Note_on_c, 0, 67, 0
1, 27600, Note_on_c, 0, 58, 81
1, 27600, Note_on_c, 1, 46, 81
1, 27645, Note_on_c, 0, 58, 0
1, 27645, Note_on_c, 1, 46, 0
1, 27648, Note_on_c, 0, 60, 81
1, 27648, Note_on_c, 1, 48, 81
1, 27693, Note_on_c, 0, 60, 0
1, 27693, Note_on_c, 1, 48, 0
1, 27696, Note_on_c, 0, 58, 81
1, 27696, Note_on_c, 1, 46, 81
1, 27741, Note_on_c, 0, 58, 0
1, 27741, Note_on_c, 1, 46, 0
1, 27744, Note_on_c, 0, 60, 81
1, 27744, Note_on_c, 1, 48, 81
1, 27789, Note_on_c, 0, 60, 0
1, 27789, Note_on_c, 1, 48, 0
1, 27792, Note_on_c, 0, 57, 81
1, 27792, Note_on_c, 1, 45, 81
1, 27837, Note_on_c, 0, 57, 0
1, 27837, Note_on_c, 1, 45, 0
1, 27840, Note_on_c, 0, 62, 81
1, 27840, Note_on_c, 1, 50, 81
1, 27885, Note_on_c, 0, 62, 0
1, 27885, Note_on_c, 1, 50, 0
1, 27888, Note_on_c, 0, 54, 81
1, 27888, Note_on_c, 1, 38, 81
1, 27933, Note_on_c, 0, 54, 0
1, 27933, Note_on_c, 1, 38, 0
1, 27936, Note_on_c, 0, 55, 81
1, 27936, Note_on_c, 1, 43, 81
1, 27954, Note_on_c, 0, 55, 0
1, 27954, Note_on_c, 0, 54, 81
1, 27972, Note_on_c, 0, 54, 0
1, 27972, Note_on_c, 0, 52, 81
1, 27990, Note_on_c, 0, 52, 0
1, 27990, Note_on_c, 0, 54, 81
1, 28025, Note_on_c, 1, 43, 0
1, 28032, Note_on_c, 0, 54, 0
1, 28032, Note_on_c, 0, 55, 81
1, 28032, Note_on_c, 1, 38, 81
1, 28121, Note_on_c, 0, 55, 0
1, 28121, Note_on_c, 1, 38, 0
1, 28128, Note_on_c, 1, 31, 81
1, 28217, Note_on_c, 1, 31, 0
1, 28224, Note_on_c, 0, 58, 66
1, 28272, Note_on_c, 0, 65, 70
1, 28272, Note_on_c, 1, 62, 70
1, 28317, Note_on_c, 0, 65, 0
1, 28317, Note_on_c, 1, 62, 0
1, 28320, Note_on_c, 0, 67, 70
1, 28320, Note_on_c, 1, 63, 70
1, 28332, Note_on_c, 0, 67, 0
1, 28332, Note_on_c, 0, 68, 70
1, 28344, Note_on_c, 0, 68, 0
1, 28344, Note_on_c, 0, 67, 70
1, 28365, Note_on_c, 0, 67, 0
1, 28365, Note_on_c, 1, 63, 0
1, 28368, Note_on_c, 0, 65, 70
1, 28368, Note_on_c, 1, 62, 70
1, 28413, Note_on_c, 0, 65, 0
1, 28413, Note_on_c, 1, 62, 0
1, 28416, Note_on_c, 0, 67, 71
1, 28416, Note_on_c, 1, 63, 71
1, 28428, Note_on_c, 0, 67, 0
1, 28428, Note_on_c, 0, 68, 71
1, 28440, Note_on_c, 0, 68, 0
1, 28440, Note_on_c, 0, 67, 71
1, 28461, Note_on_c, 0, 67, 0
1, 28461, Note_on_c, 1, 63, 0
1, 28464, Note_on_c, 0, 65, 71
1, 28464, Note_on_c, 1, 62, 71
1, 28489, Note_on_c, 0, 58, 0
1, 28509, Note_on_c, 0, 65, 0
1, 28509, Note_on_c, 1, 62, 0
1, 28512, Note_on_c, 0, 59, 70
1, 28560, Note_on_c, 0, 68, 72
1, 28560, Note_on_c, 1, 65, 72
1, 28605, Note_on_c, 0, 68, 0
1, 28605, Note_on_c, 1, 65, 0
1, 28608, Note_on_c, 0, 67, 72
1, 28608, Note_on_c, 1, 64, 72
1, 28653, Note_on_c, 0, 67, 0
1, 28653, Note_on_c, 1, 64, 0
1, 28656, Note_on_c, 0, 68, 73
1, 28656, Note_on_c, 1, 65, 73
1, 28701, Note_on_c, 0, 68, 0
1, 28701, Note_on_c, 1, 65, 0
1, 28704, Note_on_c, 0, 67, 73
1, 28704, Note_on_c, 1, 64, 73
1, 28749, Note_on_c, 0, 67, 0
1, 28749, Note_on_c, 1, 64, 0
1, 28752, Note_on_c, 0, 68, 73
1, 28752, Note_on_c, 1, 65, 73
1, 28777, Note_on_c, 0, 59, 0
1, 28797, Note_on_c, 0, 68, 0
1, 28797, Note_on_c, 1, 65, 0
1, 28800, Note_on_c, 0, 60, 72
1, 28848, Note_on_c, 0, 67, 74
1, 28848, Note_on_c, 1, 63, 74
1, 28893, Note_on_c, 0, 67, 0
1, 28893, Note_on_c, 1, 63, 0
1, 28896, Note_on_c, 0, 68, 75
1, 28896, Note_on_c, 1, 65, 74
1, 28908, Note_on_c, 0, 68, 0
1, 28908, Note_on_c, 0, 70, 75
1, 28920, Note_on_c, 0, 70, 0
1, 28920, Note_on_c, 0, 68, 75
1, 28941, Note_on_c, 0, 68, 0
1, 28941, Note_on_c, 1, 65, 0
1, 28944, Note_on_c, 0, 67, 75
1, 28944, Note_on_c, 1, 63, 75
1, 28989, Note_on_c, 0, 67, 0
1, 28989, Note_on_c, 1, 63, 0
1, 28992, Note_on_c, 0, 68, 75
1, 28992, Note_on_c, 1, 65, 75
1, 29004, Note_on_c, 0, 68, 0
1, 29004, Note_on_c, 0, 70, 75
1, 29016, Note_on_c, 0, 70, 0
1, 29016, Note_on_c, 0, 68, 75
1, 29037, Note_on_c, 0, 68, 0
1, 29037, Note_on_c, 1, 65, 0
1, 29040, Note_on_c, 0, 67, 76
1, 29040, Note_on_c, 1, 63, 76
1, 29065, Note_on_c, 0, 60, 0
1, 29085, Note_on_c, 0, 67, 0
1, 29085, Note_on_c, 1, 63, 0
1, 29088, Note_on_c, 0, 61, 75
1, 29136, Note_on_c, 0, 70, 77
1, 29136, Note_on_c, 1, 67, 76
1, 29181, Note_on_c, 0, 70, 0
1, 29181, Note_on_c, 1, 67, 0
1, 29184, Note_on_c, 0, 69, 77
1, 29184, Note_on_c, 1, 66, 77
1, 29229, Note_on_c, 0, 69, 0
1, 29229, Note_on_c, 1, 66, 0
1, 29232, Note_on_c, 0, 70, 77
1, 29232, Note_on_c, 1, 67, 77
1, 29277, Note_on_c, 0, 70, 0
1, 29277, Note_on_c, 1, 67, 0
1, 29280, Note_on_c, 0, 69, 78
1, 29280, Note_on_c, 1, 66, 77
1, 29325, Note_on_c, 0, 69, 0
1, 29325, Note_on_c, 1, 66, 0
1, 29328, Note_on_c, 0, 70, 78
1, 29328, Note_on_c, 1, 67, 78
1, 29353, Note_on_c, 0, 61, 0
1, 29373, Note_on_c, 0, 70, 0
1, 29373, Note_on_c, 1, 67, 0
1, 29376, Note_on_c, 0, 62, 78
1, 29424, Note_on_c, 0, 69, 79
1, 29424, Note_on_c, 1, 66, 79
1, 29469, Note_on_c, 0, 69, 0
1, 29469, Note_on_c, 1, 66, 0
1, 29472, Note_on_c, 0, 70, 79
1, 29472, Note_on_c, 1, 67, 79
1, 29484, Note_on_c, 0, 70, 0
1, 29484, Note_on_c, 0, 72, 79
1, 29496, Note_on_c, 0, 72, 0
1, 29496, Note_on_c, 0, 70, 79
1, 29517, Note_on_c, 0, 70, 0
1, 29517, Note_on_c, 1, 67, 0
1, 29520, Note_on_c, 0, 69, 80
1, 29520, Note_on_c, 1, 66, 79
1, 29553, Note_on_c, 0, 62, 0
1, 29565, Note_on_c, 0, 69, 0
1, 29565, Note_on_c, 1, 66, 0
1, 29568, Note_on_c, 1, 66, 80
1, 29568, Note_on_c, 0, 62, 80
1, 29616, Note_on_c, 0, 74, 81
1, 29657, Note_on_c, 1, 66, 0
1, 29657, Note_on_c, 0, 62, 0
1, 29661, Note_on_c, 0, 74, 0
1, 29664, Note_on_c, 1, 67, 81
1, 29664, Note_on_c, 0, 62, 81
1, 29712, Note_on_c, 0, 75, 81
1, 29753, Note_on_c, 1, 67, 0
1, 29757, Note_on_c, 0, 75, 0
1, 29760, Note_on_c, 1, 69, 81
1, 29808, Note_on_c, 0, 84, 81
1, 29849, Note_on_c, 1, 69, 0
1, 29853, Note_on_c, 0, 84, 0
1, 29856, Note_on_c, 1, 72, 81
1, 29904, Note_on_c, 0, 75, 81
1, 29929, Note_on_c, 0, 62, 0
1, 29945, Note_on_c, 1, 72, 0
1, 29949, Note_on_c, 0, 75, 0
1, 29952, Note_on_c, 1, 66, 81
1, 29952, Note_on_c, 0, 62, 81
1, 30000, Note_on_c, 0, 74, 81
1, 30041, Note_on_c, 1, 66, 0
1, 30045, Note_on_c, 0, 74, 0
1, 30048, Note_on_c, 1, 67, 81
1, 30096, Note_on_c, 0, 82, 81
1, 30137, Note_on_c, 1, 67, 0
1, 30141, Note_on_c, 0, 82, 0
1, 30144, Note_on_c, 1, 70, 81
1, 30192, Note_on_c, 0, 74, 81
1, 30217, Note_on_c, 0, 62, 0
1, 30233, Note_on_c, 1, 70, 0
1, 30237, Note_on_c, 0, 74, 0
1, 30240, Note_on_c, 1, 64, 81
1, 30240, Note_on_c, 0, 62, 81
1, 30288, Note_on_c, 0, 72, 81
1, 30329, Note_on_c, 1, 64, 0
1, 30333, Note_on_c, 0, 72, 0
1, 30336, Note_on_c, 1, 66, 81
1, 30384, Note_on_c, 0, 81, 81
1, 30425, Note_on_c, 1, 66, 0
1, 30429, Note_on_c, 0, 81, 0
1, 30432, Note_on_c, 1, 69, 81
1, 30480, Note_on_c, 0, 72, 81
1, 30505, Note_on_c, 0, 62, 0
1, 30521, Note_on_c, 1, 69, 0
1, 30525, Note_on_c, 0, 72, 0
1, 30528, Note_on_c, 1, 67, 81
1, 30528, Note_on_c, 0, 62, 81
1, 30576, Note_on_c, 0, 70, 81
1, 30617, Note_on_c, 1, 67, 0
1, 30621, Note_on_c, 0, 70, 0
1, 30624, Note_on_c, 1, 70, 81
1, 30672, Note_on_c, 0, 79, 78
1, 30705, Note_on_c, 0, 62, 0
1, 30713, Note_on_c, 1, 70, 0
1, 30717, Note_on_c, 0, 79, 0
1, 30720, Note_on_c, 1, 67, 78
1, 30720, Note_on_c, 0, 61, 81
1, 30768, Note_on_c, 0, 70, 76
1, 30809, Note_on_c, 1, 67, 0
1, 30809, Note_on_c, 0, 61, 0
1, 30813, Note_on_c, 0, 70, 0
1, 30816, Note_on_c, 0, 72, 74
1, 30816, Note_on_c, 1, 67, 75
1, 30816, Note_on_c, 0, 62, 77
1, 30831, Note_on_c, 0, 72, 0
1, 30832, Note_on_c, 0, 70, 74
1, 30847, Note_on_c, 0, 70, 0
1, 30848, Note_on_c, 0, 72, 74
1, 30863, Note_on_c, 0, 72, 0
1, 30864, Note_on_c, 0, 70, 73
1, 30879, Note_on_c, 0, 70, 0
1, 30880, Note_on_c, 0, 69, 73
1, 30895, Note_on_c, 0, 69, 0
1, 30896, Note_on_c, 0, 70, 73
1, 30905, Note_on_c, 1, 67, 0
1, 30911, Note_on_c, 0, 70, 0
1, 30912, Note_on_c, 0, 69, 73
1, 30912, Note_on_c, 1, 66, 72
1, 30993, Note_on_c, 0, 62, 0
1, 31001, Note_on_c, 0, 69, 0
1, 31001, Note_on_c, 1, 66, 0
1, 31104, Note_on_c, 1, 70, 62
1, 31104, Note_on_c, 1, 67, 62
1, 31152, Note_on_c, 0, 74, 70
1, 31193, Note_on_c, 1, 70, 0
1, 31193, Note_on_c, 1, 67, 0
1, 31197, Note_on_c, 0, 74, 0
1, 31200, Note_on_c, 0, 75, 70
1, 31200, Note_on_c, 1, 70, 62
1, 31200, Note_on_c, 1, 67, 62
1, 31212, Note_on_c, 0, 75, 0
1, 31212, Note_on_c, 0, 77, 70
1, 31224, Note_on_c, 0, 77, 0
1, 31224, Note_on_c, 0, 75, 70
1, 31245, Note_on_c, 0, 75, 0
1, 31248, Note_on_c, 0, 74, 70
1, 31289, Note_on_c, 1, 70, 0
1, 31289, Note_on_c, 1, 67, 0
1, 31293, Note_on_c, 0, 74, 0
1, 31296, Note_on_c, 0, 75, 70
1, 31296, Note_on_c, 1, 70, 62
1, 31296, Note_on_c, 1, 67, 62
1, 31308, Note_on_c, 0, 75, 0
1, 31308, Note_on_c, 0, 77, 70
1, 31320, Note_on_c, 0, 77, 0
1, 31320, Note_on_c, 0, 75, 70
1, 31341, Note_on_c, 0, 75, 0
1, 31344, Note_on_c, 0, 74, 70
1, 31385, Note_on_c, 1, 70, 0
1, 31385, Note_on_c, 1, 67, 0
1, 31389, Note_on_c, 0, 74, 0
1, 31392, Note_on_c, 0, 73, 70
1, 31392, Note_on_c, 1, 69, 62
1, 31392, Note_on_c, 1, 67, 62
1, 31422, Note_on_c, 0, 73, 0
1, 31424, Note_on_c, 0, 74, 70
1, 31454, Note_on_c, 0, 74, 0
1, 31456, Note_on_c, 0, 76, 70
1, 31481, Note_on_c, 1, 69, 0
1, 31481, Note_on_c, 1, 67, 0
1, 31486, Note_on_c, 0, 76, 0
1, 31488, Note_on_c, 0, 76, 71
1, 31488, Note_on_c, 1, 69, 64
1, 31488, Note_on_c, 1, 67, 64
1, 31518, Note_on_c, 0, 76, 0
1, 31520, Note_on_c, 0, 77, 71
1, 31550, Note_on_c, 0, 77, 0
1, 31552, Note_on_c, 0, 79, 71
1, 31577, Note_on_c, 1, 69, 0
1, 31577, Note_on_c, 1, 67, 0
1, 31582, Note_on_c, 0, 79, 0
1, 31584, Note_on_c, 0, 79, 72
1, 31584, Note_on_c, 1, 69, 66
1, 31584, Note_on_c, 1, 67, 66
1, 31614, Note_on_c, 0, 79, 0
1, 31616, Note_on_c, 0, 81, 72
1, 31646, Note_on_c, 0, 81, 0
1, 31648, Note_on_c, 0, 82, 73
1, 31673, Note_on_c, 1, 69, 0
1, 31673, Note_on_c, 1, 67, 0
1, 31678, Note_on_c, 0, 82, 0
1, 31680, Note_on_c, 0, 81, 89
1, 31680, Note_on_c, 1, 69, 68
1, 31680, Note_on_c, 1, 66, 68
1, 31728, Note_on_c, 0, 81, 0
1, 31728, Note_on_c, 0, 73, 74
1, 31769, Note_on_c, 1, 69, 0
1, 31769, Note_on_c, 1, 66, 0
1, 31773, Note_on_c, 0, 73, 0
1, 31776, Note_on_c, 0, 74, 74
1, 31776, Note_on_c, 1, 69, 70
1, 31776, Note_on_c, 1, 66, 70
1, 31788, Note_on_c, 0, 74, 0
1, 31788, Note_on_c, 0, 75, 74
1, 31800, Note_on_c, 0, 75, 0
1, 31800, Note_on_c, 0, 74, 74
1, 31821, Note_on_c, 0, 74, 0
1, 31824, Note_on_c, 0, 73, 75
1, 31865, Note_on_c, 1, 69, 0
1, 31865, Note_on_c, 1, 66, 0
1, 31869, Note_on_c, 0, 73, 0
1, 31872, Note_on_c, 0, 74, 75
1, 31872, Note_on_c, 1, 69, 72
1, 31872, Note_on_c, 1, 66, 72
1, 31884, Note_on_c, 0, 74, 0
1, 31884, Note_on_c, 0, 75, 75
1, 31896, Note_on_c, 0, 75, 0
1, 31896, Note_on_c, 0, 74, 75
1, 31917, Note_on_c, 0, 74, 0
1, 31920, Note_on_c, 0, 72, 76
1, 31961, Note_on_c, 1, 69, 0
1, 31961, Note_on_c, 1, 66, 0
1, 31965, Note_on_c, 0, 72, 0
1, 31968, Note_on_c, 0, 70, 93
1, 31968, Note_on_c, 1, 67, 74
1, 32016, Note_on_c, 0, 70, 0
1, 32016, Note_on_c, 0, 66, 77
1, 32057, Note_on_c, 1, 67, 0
1, 32061, Note_on_c, 0, 66, 0
1, 32064, Note_on_c, 0, 67, 78
1, 32076, Note_on_c, 0, 67, 0
1, 32076, Note_on_c, 0, 69, 78
1, 32088, Note_on_c, 0, 69, 0
1, 32088, Note_on_c, 0, 67, 78
1, 32109, Note_on_c, 0, 67, 0
1, 32112, Note_on_c, 0, 66, 78
1, 32157, Note_on_c, 0, 66, 0
1, 32160, Note_on_c, 0, 67, 79
1, 32205, Note_on_c, 0, 67, 0
1, 32208, Note_on_c, 0, 59, 80
1, 32208, Note_on_c, 1, 47, 79
1, 32208, Note_on_c, 1, 35, 79
1, 32253, Note_on_c, 0, 59, 0
1, 32253, Note_on_c, 1, 47, 0
1, 32253, Note_on_c, 1, 35, 0
1, 32256, Note_on_c, 0, 60, 97
1, 32256, Note_on_c, 1, 48, 81
1, 32304, Note_on_c, 0, 60, 0
1, 32304, Note_on_c, 0, 66, 81
1, 32345, Note_on_c, 1, 48, 0
1, 32349, Note_on_c, 0, 66, 0
1, 32352, Note_on_c, 0, 67, 81
1, 32364, Note_on_c, 0, 67, 0
1, 32364, Note_on_c, 0, 69, 81
1, 32376, Note_on_c, 0, 69, 0
1, 32376, Note_on_c, 0, 67, 81
1, 32397, Note_on_c, 0, 67, 0
1, 32400, Note_on_c, 0, 66, 81
1, 32445, Note_on_c, 0, 66, 0
1, 32448, Note_on_c, 0, 67, 81
1, 32493, Note_on_c, 0, 67, 0
1, 32496, Note_on_c, 0, 62, 81
1, 32496, Note_on_c, 1, 50, 81
1, 32541, Note_on_c, 0, 62, 0
1, 32541, Note_on_c, 1, 50, 0
1, 32544, Note_on_c, 0, 63, 97
1, 32544, Note_on_c, 1, 51, 81
1, 32592, Note_on_c, 0, 63, 0
1, 32592, Note_on_c, 0, 66, 81
1, 32633, Note_on_c, 1, 51, 0
1, 32637, Note_on_c, 0, 66, 0
1, 32640, Note_on_c, 0, 67, 81
1, 32652, Note_on_c, 0, 67, 0
1, 32652, Note_on_c, 0, 69, 81
1, 32664, Note_on_c, 0, 69, 0
1, 32664, Note_on_c, 0, 67, 81
1, 32685, Note_on_c, 0, 67, 0
1, 32688, Note_on_c, 0, 66, 81
1, 32733, Note_on_c, 0, 66, 0
1, 32736, Note_on_c, 0, 67, 81
1, 32781, Note_on_c, 0, 67, 0
1, 32784, Note_on_c, 0, 58, 81
1, 32784, Note_on_c, 1, 46, 81
1, 32829, Note_on_c, 0, 58, 0
1, 32829, Note_on_c, 1, 46, 0
1, 32832, Note_on_c, 0, 60, 81
1, 32832, Note_on_c, 1, 48, 81
1, 32877, Note_on_c, 0, 60, 0
1, 32877, Note_on_c, 1, 48, 0
1, 32880, Note_on_c, 0, 58, 81
1, 32880, Note_on_c, 1, 46, 81
1, 32925, Note_on_c, 0, 58, 0
1, 32925, Note_on_c, 1, 46, 0
1, 32928, Note_on_c, 0, 60, 81
1, 32928, Note_on_c, 1, 48, 81
1, 32973, Note_on_c, 0, 60, 0
1, 32973, Note_on_c, 1, 48, 0
1, 32976, Note_on_c, 0, 57, 81
1, 32976, Note_on_c, 1, 45, 81
1, 33021, Note_on_c, 0, 57, 0
1, 33021, Note_on_c, 1, 45, 0
1, 33024, Note_on_c, 0, 62, 81
1, 33024, Note_on_c, 1, 50, 81
1, 33069, Note_on_c, 0, 62, 0
1, 33069, Note_on_c, 1, 50, 0
1, 33072, Note_on_c, 0, 54, 81
1, 33072, Note_on_c, 1, 38, 81
1, 33117, Note_on_c, 0, 54, 0
1, 33117, Note_on_c, 1, 38, 0
1, 33120, Note_on_c, 0, 55, 81
1, 33120, Note_on_c, 1, 43, 81
1, 33138, Note_on_c, 0, 55, 0
1, 33138, Note_on_c, 0, 54, 81
1, 33156, Note_on_c, 0, 54, 0
1, 33156, Note_on_c, 0, 52, 81
1, 33174, Note_on_c, 0, 52, 0
1, 33174, Note_on_c, 0, 54, 81
1, 33209, Note_on_c, 1, 43, 0
1, 33216, Note_on_c, 0, 54, 0
1, 33216, Note_on_c, 0, 55, 81
1, 33216, Note_on_c, 1, 38, 81
1, 33305, Note_on_c, 0, 55, 0
1, 33305, Note_on_c, 1, 38, 0
1, 33312, Note_on_c, 1, 31, 81
1, 33401, Note_on_c, 1, 31, 0
1, 33408, Note_on_c, 0, 62, 75
1, 33426, Note_on_c, 0, 62, 0
1, 33426, Note_on_c, 0, 67, 75
1, 33444, Note_on_c, 0, 67, 0
1, 33444, Note_on_c, 0, 71, 75
1, 33462, Note_on_c, 0, 71, 0
1, 33462, Note_on_c, 0, 74, 75
1, 33504, Note_on_c, 1, 59, 75
1, 33571, Note_on_c, 0, 74, 0
1, 33576, Note_on_c, 0, 72, 75
1, 33588, Note_on_c, 0, 72, 0
1, 33588, Note_on_c, 0, 74, 75
1, 33593, Note_on_c, 1, 59, 0
1, 33600, Note_on_c, 0, 74, 0
1, 33600, Note_on_c, 0, 76, 75
1, 33600, Note_on_c, 1, 55, 75
1, 33667, Note_on_c, 0, 76, 0
1, 33672, Note_on_c, 0, 71, 75
1, 33689, Note_on_c, 1, 55, 0
1, 33695, Note_on_c, 0, 71, 0
1, 33696, Note_on_c, 0, 74, 75
1, 33696, Note_on_c, 1, 57, 75
1, 33763, Note_on_c, 0, 74, 0
1, 33768, Note_on_c, 0, 72, 75
1, 33785, Note_on_c, 1, 57, 0
1, 33791, Note_on_c, 0, 72, 0
1, 33792, Note_on_c, 0, 69, 75
1, 33792, Note_on_c, 1, 54, 75
1, 33881, Note_on_c, 1, 54, 0
1, 33888, Note_on_c, 1, 50, 75
1, 33955, Note_on_c, 0, 69, 0
1, 33960, Note_on_c, 0, 72, 75
1, 33977, Note_on_c, 1, 50, 0
1, 33983, Note_on_c, 0, 72, 0
1, 33984, Note_on_c, 0, 62, 75
1, 33984, Note_on_c, 1, 55, 75
1, 34002, Note_on_c, 0, 62, 0
1, 34002, Note_on_c, 0, 66, 75
1, 34020, Note_on_c, 0, 66, 0
1, 34020, Note_on_c, 0, 67, 75
1, 34038, Note_on_c, 0, 67, 0
1, 34038, Note_on_c, 0, 71, 75
1, 34073, Note_on_c, 1, 55, 0
1, 34080, Note_on_c, 1, 52, 75
1, 34147, Note_on_c, 0, 71, 0
1, 34152, Note_on_c, 0, 69, 75
1, 34164, Note_on_c, 0, 69, 0
1, 34164, Note_on_c, 0, 71, 75
1, 34169, Note_on_c, 1, 52, 0
1, 34176, Note_on_c, 0, 71, 0
1, 34176, Note_on_c, 0, 72, 75
1, 34176, Note_on_c, 1, 48, 75
1, 34243, Note_on_c, 0, 72, 0
1, 34248, Note_on_c, 0, 69, 75
1, 34265, Note_on_c, 1, 48, 0
1, 34271, Note_on_c, 0, 69, 0
1, 34272, Note_on_c, 0, 67, 75
1, 34272, Note_on_c, 1, 50, 75
1, 34361, Note_on_c, 0, 67, 0
1, 34361, Note_on_c, 1, 50, 0
1, 34368, Note_on_c, 0, 67, 75
1, 34368, Note_on_c, 1, 48, 75
1, 34383, Note_on_c, 0, 67, 0
1, 34384, Note_on_c, 0, 66, 75
1, 34399, Note_on_c, 0, 66, 0
1, 34400, Note_on_c, 0, 67, 75
1, 34415, Note_on_c, 0, 67, 0
1, 34416, Note_on_c, 0, 66, 75
1, 34431, Note_on_c, 0, 66, 0
1, 34432, Note_on_c, 0, 64, 75
1, 34447, Note_on_c, 0, 64, 0
1, 34448, Note_on_c, 0, 66, 75
1, 34457, Note_on_c, 1, 48, 0
1, 34463, Note_on_c, 0, 66, 0
1, 34464, Note_on_c, 0, 67, 75
1, 34464, Note_on_c, 1, 47, 75
1, 34531, Note_on_c, 0, 67, 0
1, 34536, Note_on_c, 0, 62, 75
1, 34553, Note_on_c, 1, 47, 0
1, 34559, Note_on_c, 0, 62, 0
1, 34560, Note_on_c, 0, 64, 75
1, 34560, Note_on_c, 1, 48, 75
1, 34560, Note_on_c, 1, 36, 75
1, 34627, Note_on_c, 0, 64, 0
1, 34632, Note_on_c, 0, 66, 75
1, 34644, Note_on_c, 0, 66, 0
1, 34644, Note_on_c, 0, 67, 75
1, 34649, Note_on_c, 1, 48, 0
1, 34649, Note_on_c, 1, 36, 0
1, 34656, Note_on_c, 0, 67, 0
1, 34656, Note_on_c, 0, 66, 75
1, 34656, Note_on_c, 1, 50, 75
1, 34656, Note_on_c, 1, 38, 75
1, 34745, Note_on_c, 0, 66, 0
1, 34745, Note_on_c, 1, 50, 0
1, 34745, Note_on_c, 1, 38, 0
1, 34752, Note_on_c, 1, 52, 75
1, 34752, Note_on_c, 1, 40, 75
1, 34824, Note_on_c, 0, 67, 75
1, 34841, Note_on_c, 1, 52, 0
1, 34841, Note_on_c, 1, 40, 0
1, 34847, Note_on_c, 0, 67, 0
1, 34848, Note_on_c, 0, 69, 75
1, 34848, Note_on_c, 1, 54, 75
1, 34848, Note_on_c, 1, 42, 75
1, 34915, Note_on_c, 0, 69, 0
1, 34920, Note_on_c, 0, 71, 75
1, 34932, Note_on_c, 0, 71, 0
1, 34932, Note_on_c, 0, 72, 75
1, 34937, Note_on_c, 1, 54, 0
1, 34937, Note_on_c, 1, 42, 0
1, 34944, Note_on_c, 0, 72, 0
1, 34944, Note_on_c, 0, 71, 75
1, 34944, Note_on_c, 1, 55, 75
1, 34944, Note_on_c, 1, 43, 75
1, 35033, Note_on_c, 0, 71, 0
1, 35033, Note_on_c, 1, 55, 0
1, 35033, Note_on_c, 1, 43, 0
1, 35040, Note_on_c, 1, 54, 75
1, 35040, Note_on_c, 1, 42, 75
1, 35112, Note_on_c, 0, 69, 75
1, 35129, Note_on_c, 1, 54, 0
1, 35129, Note_on_c, 1, 42, 0
1, 35135, Note_on_c, 0, 69, 0
1, 35136, Note_on_c, 0, 71, 75
1, 35136, Note_on_c, 1, 55, 75
1, 35136, Note_on_c, 1, 43, 75
1, 35166, Note_on_c, 0, 71, 0
1, 35168, Note_on_c, 0, 73, 75
1, 35198, Note_on_c, 0, 73, 0
1, 35200, Note_on_c, 0, 74, 75
1, 35225, Note_on_c, 1, 55, 0
1, 35225, Note_on_c, 1, 43, 0
1, 35230, Note_on_c, 0, 74, 0
1, 35232, Note_on_c, 0, 73, 75
1, 35232, Note_on_c, 1, 57, 76
1, 35232, Note_on_c, 1, 45, 76
1, 35262, Note_on_c, 0, 73, 0
1, 35264, Note_on_c, 0, 74, 76
1, 35294, Note_on_c, 0, 74, 0
1, 35296, Note_on_c, 0, 76, 76
1, 35321, Note_on_c, 1, 57, 0
1, 35321, Note_on_c, 1, 45, 0
1, 35326, Note_on_c, 0, 76, 0
1, 35328, Note_on_c, 0, 74, 76
1, 35328, Note_on_c, 1, 59, 77
1, 35328, Note_on_c, 1, 47, 77
1, 35358, Note_on_c, 0, 74, 0
1, 35360, Note_on_c, 0, 76, 77
1, 35390, Note_on_c, 0, 76, 0
1, 35392, Note_on_c, 0, 78, 77
1, 35417, Note_on_c, 1, 59, 0
1, 35417, Note_on_c, 1, 47, 0
1, 35422, Note_on_c, 0, 78, 0
1, 35424, Note_on_c, 0, 76, 77
1, 35424, Note_on_c, 1, 61, 78
1, 35424, Note_on_c, 1, 49, 78
1, 35454, Note_on_c, 0, 76, 0
1, 35456, Note_on_c, 0, 78, 78
1, 35486, Note_on_c, 0, 78, 0
1, 35488, Note_on_c, 0, 79, 78
1, 35513, Note_on_c, 1, 61, 0
1, 35513, Note_on_c, 1, 49, 0
1, 35518, Note_on_c, 0, 79, 0
1, 35520, Note_on_c, 0, 78, 78
1, 35520, Note_on_c, 1, 62, 79
1, 35520, Note_on_c, 1, 50, 79
1, 35550, Note_on_c, 0, 78, 0
1, 35552, Note_on_c, 0, 79, 79
1, 35582, Note_on_c, 0, 79, 0
1, 35584, Note_on_c, 0, 81, 79
1, 35609, Note_on_c, 1, 62, 0
1, 35609, Note_on_c, 1, 50, 0
1, 35614, Note_on_c, 0, 81, 0
1, 35616, Note_on_c, 0, 79, 79
1, 35616, Note_on_c, 1, 64, 80
1, 35616, Note_on_c, 1, 52, 80
1, 35646, Note_on_c, 0, 79, 0
1, 35648, Note_on_c, 0, 81, 80
1, 35678, Note_on_c, 0, 81, 0
1, 35680, Note_on_c, 0, 83, 80
1, 35705, Note_on_c, 1, 64, 0
1, 35705, Note_on_c, 1, 52, 0
1, 35710, Note_on_c, 0, 83, 0
1, 35712, Note_on_c, 0, 81, 97
1, 35712, Note_on_c, 1, 66, 81
1, 35712, Note_on_c, 1, 54, 81
1, 35751, Note_on_c, 0, 81, 0
1, 35801, Note_on_c, 1, 66, 0
1, 35801, Note_on_c, 1, 54, 0
1, 35808, Note_on_c, 0, 74, 79
1, 35808, Note_on_c, 1, 67, 79
1, 35808, Note_on_c, 1, 55, 79
1, 35897, Note_on_c, 0, 74, 0
1, 35897, Note_on_c, 1, 67, 0
1, 35897, Note_on_c, 1, 55, 0
1, 35904, Note_on_c, 0, 74, 77
1, 35904, Note_on_c, 1, 69, 77
1, 35904, Note_on_c, 1, 57, 77
1, 35919, Note_on_c, 0, 74, 0
1, 35920, Note_on_c, 0, 73, 76
1, 35935, Note_on_c, 0, 73, 0
1, 35936, Note_on_c, 0, 74, 76
1, 35951, Note_on_c, 0, 74, 0
1, 35952, Note_on_c, 0, 73, 76
1, 35967, Note_on_c, 0, 73, 0
1, 35968, Note_on_c, 0, 71, 76
1, 35983, Note_on_c, 0, 71, 0
1, 35984, Note_on_c, 0, 73, 75
1, 35993, Note_on_c, 1, 69, 0
1, 35993, Note_on_c, 1, 57, 0
1, 35999, Note_on_c, 0, 73, 0
1, 36000, Note_on_c, 0, 74, 75
1, 36000, Note_on_c, 1, 62, 75
1, 36089, Note_on_c, 1, 62, 0
1, 36096, Note_on_c, 1, 57, 75
1, 36177, Note_on_c, 0, 74, 0
1, 36185, Note_on_c, 1, 57, 0
1, 36192, Note_on_c, 1, 50, 75
1, 36281, Note_on_c, 1, 50, 0
1, 36288, Note_on_c, 0, 62, 75
1, 36306, Note_on_c, 0, 62, 0
1, 36306, Note_on_c, 0, 67, 75
1, 36324, Note_on_c, 0, 67, 0
1, 36324, Note_on_c, 0, 71, 75
1, 36342, Note_on_c, 0, 71, 0
1, 36342, Note_on_c, 0, 74, 75
1, 36384, Note_on_c, 1, 59, 75
1, 36451, Note_on_c, 0, 74, 0
1, 36456, Note_on_c, 0, 72, 75
1, 36468, Note_on_c, 0, 72, 0
1, 36468, Note_on_c, 0, 74, 75
1, 36473, Note_on_c, 1, 59, 0
1, 36480, Note_on_c, 0, 74, 0
1, 36480, Note_on_c, 0, 76, 75
1, 36480, Note_on_c, 1, 55, 75
1, 36547, Note_on_c, 0, 76, 0
1, 36552, Note_on_c, 0, 71, 75
1, 36569, Note_on_c, 1, 55, 0
1, 36575, Note_on_c, 0, 71, 0
1, 36576, Note_on_c, 0, 74, 75
1, 36576, Note_on_c, 1, 57, 75
1, 36643, Note_on_c, 0, 74, 0
1, 36648, Note_on_c, 0, 72, 75
1, 36665, Note_on_c, 1, 57, 0
1, 36671, Note_on_c, 0, 72, 0
1, 36672, Note_on_c, 0, 69, 75
1, 36672, Note_on_c, 1, 54, 75
1, 36761, Note_on_c, 1, 54, 0
1, 36768, Note_on_c, 1, 50, 75
1, 36835, Note_on_c, 0, 69, 0
1, 36840, Note_on_c, 0, 72, 75
1, 36857, Note_on_c, 1, 50, 0
1, 36863, Note_on_c, 0, 72, 0
1, 36864, Note_on_c, 0, 62, 75
1, 36864, Note_on_c, 1, 55, 75
1, 36882, Note_on_c, 0, 62, 0
1, 36882, Note_on_c, 0, 66, 75
1, 36900, Note_on_c, 0, 66, 0
1, 36900, Note_on_c, 0, 67, 75
1, 36918, Note_on_c, 0, 67, 0
1, 36918, Note_on_c, 0, 71, 75
1, 36953, Note_on_c, 1, 55, 0
1, 36960, Note_on_c, 1, 52, 75
1, 37027, Note_on_c, 0, 71, 0
1, 37032, Note_on_c, 0, 69, 75
1, 37044, Note_on_c, 0, 69, 0
1, 37044, Note_on_c, 0, 71, 75
1, 37049, Note_on_c, 1, 52, 0
1, 37056, Note_on_c, 0, 71, 0
1, 37056, Note_on_c, 0, 72, 75
1, 37056, Note_on_c, 1, 48, 75
1, 37123, Note_on_c, 0, 72, 0
1, 37128, Note_on_c, 0, 69, 75
1, 37145, Note_on_c, 1, 48, 0
1, 37151, Note_on_c, 0, 69, 0
1, 37152, Note_on_c, 0, 67, 75
1, 37152, Note_on_c, 1, 50, 75
1, 37241, Note_on_c, 0, 67, 0
1, 37241, Note_on_c, 1, 50, 0
1, 37248, Note_on_c, 0, 67, 75
1, 37248, Note_on_c, 1, 48, 75
1, 37263, Note_on_c, 0, 67, 0
1, 37264, Note_on_c, 0, 66, 75
1, 37279, Note_on_c, 0, 66, 0
1, 37280, Note_on_c, 0, 67, 75
1, 37295, Note_on_c, 0, 67, 0
1, 37296, Note_on_c, 0, 66, 75
1, 37311, Note_on_c, 0, 66, 0
1, 37312, Note_on_c, 0, 64, 75
1, 37327, Note_on_c, 0, 64, 0
1, 37328, Note_on_c, 0, 66, 75
1, 37337, Note_on_c, 1, 48, 0
1, 37343, Note_on_c, 0, 66, 0
1, 37344, Note_on_c, 0, 67, 75
1, 37344, Note_on_c, 1, 47, 75
1, 37411, Note_on_c, 0, 67, 0
1, 37416, Note_on_c, 0, 62, 75
1, 37433, Note_on_c, 1, 47, 0
1, 37439, Note_on_c, 0, 62, 0
1, 37440, Note_on_c, 0, 64, 75
1, 37440, Note_on_c, 1, 48, 75
1, 37440, Note_on_c, 1, 36, 75
1, 37507, Note_on_c, 0, 64, 0
1, 37512, Note_on_c, 0, 66, 75
1, 37524, Note_on_c, 0, 66, 0
1, 37524, Note_on_c, 0, 67, 75
1, 37529, Note_on_c, 1, 48, 0
1, 37529, Note_on_c, 1, 36, 0
1, 37536, Note_on_c, 0, 67, 0
1, 37536, Note_on_c, 0, 66, 75
1, 37536, Note_on_c, 1, 50, 75
1, 37536, Note_on_c, 1, 38, 75
1, 37625, Note_on_c, 0, 66, 0
1, 37625, Note_on_c, 1, 50, 0
1, 37625, Note_on_c, 1, 38, 0
1, 37632, Note_on_c, 1, 52, 75
1, 37632, Note_on_c, 1, 40, 75
1, 37704, Note_on_c, 0, 67, 75
1, 37721, Note_on_c, 1, 52, 0
1, 37721, Note_on_c, 1, 40, 0
1, 37727, Note_on_c, 0, 67, 0
1, 37728, Note_on_c, 0, 69, 75
1, 37728, Note_on_c, 1, 54, 75
1, 37728, Note_on_c, 1, 42, 75
1, 37795, Note_on_c, 0, 69, 0
1, 37800, Note_on_c, 0, 71, 75
1, 37812, Note_on_c, 0, 71, 0
1, 37812, Note_on_c, 0, 72, 75
1, 37817, Note_on_c, 1, 54, 0
1, 37817, Note_on_c, 1, 42, 0
1, 37824, Note_on_c, 0, 72, 0
1, 37824, Note_on_c, 0, 71, 75
1, 37824, Note_on_c, 1, 55, 75
1, 37824, Note_on_c, 1, 43, 75
1, 37913, Note_on_c, 0, 71, 0
1, 37913, Note_on_c, 1, 55, 0
1, 37913, Note_on_c, 1, 43, 0
1, 37920, Note_on_c, 1, 54, 75
1, 37920, Note_on_c, 1, 42, 75
1, 37992, Note_on_c, 0, 69, 75
1, 38009, Note_on_c, 1, 54, 0
1, 38009, Note_on_c, 1, 42, 0
1, 38015, Note_on_c, 0, 69, 0
1, 38016, Note_on_c, 0, 71, 75
1, 38016, Note_on_c, 1, 55, 75
1, 38016, Note_on_c, 1, 43, 75
1, 38046, Note_on_c, 0, 71, 0
1, 38048, Note_on_c, 0, 73, 75
1, 38078, Note_on_c, 0, 73, 0
1, 38080, Note_on_c, 0, 74, 75
1, 38105, Note_on_c, 1, 55, 0
1, 38105, Note_on_c, 1, 43, 0
1, 38110, Note_on_c, 0, 74, 0
1, 38112, Note_on_c, 0, 73, 75
1, 38112, Note_on_c, 1, 57, 76
1, 38112, Note_on_c, 1, 45, 76
1, 38142, Note_on_c, 0, 73, 0
1, 38144, Note_on_c, 0, 74, 76
1, 38174, Note_on_c, 0, 74, 0
1, 38176, Note_on_c, 0, 76, 76
1, 38201, Note_on_c, 1, 57, 0
1, 38201, Note_on_c, 1, 45, 0
1, 38206, Note_on_c, 0, 76, 0
1, 38208, Note_on_c, 0, 74, 76
1, 38208, Note_on_c, 1, 59, 77
1, 38208, Note_on_c, 1, 47, 77
1, 38238, Note_on_c, 0, 74, 0
1, 38240, Note_on_c, 0, 76, 77
1, 38270, Note_on_c, 0, 76, 0
1, 38272, Note_on_c, 0, 78, 77
1, 38297, Note_on_c, 1, 59, 0
1, 38297, Note_on_c, 1, 47, 0
1, 38302, Note_on_c, 0, 78, 0
1, 38304, Note_on_c, 0, 76, 77
1, 38304, Note_on_c, 1, 61, 78
1, 38304, Note_on_c, 1, 49, 78
1, 38334, Note_on_c, 0, 76, 0
1, 38336, Note_on_c, 0, 78, 78
1, 38366, Note_on_c, 0, 78, 0
1, 38368, Note_on_c, 0, 79, 78
1, 38393, Note_on_c, 1, 61, 0
1, 38393, Note_on_c, 1, 49, 0
1, 38398, Note_on_c, 0, 79, 0
1, 38400, Note_on_c, 0, 78, 78
1, 38400, Note_on_c, 1, 62, 79
1, 38400, Note_on_c, 1, 50, 79
1, 38430, Note_on_c, 0, 78, 0
1, 38432, Note_on_c, 0, 79, 79
1, 38462, Note_on_c, 0, 79, 0
1, 38464, Note_on_c, 0, 81, 79
1, 38489, Note_on_c, 1, 62, 0
1, 38489, Note_on_c, 1, 50, 0
1, 38494, Note_on_c, 0, 81, 0
1, 38496, Note_on_c, 0, 79, 79
1, 38496, Note_on_c, 1, 64, 80
1, 38496, Note_on_c, 1, 52, 80
1, 38526, Note_on_c, 0, 79, 0
1, 38528, Note_on_c, 0, 81, 80
1, 38558, Note_on_c, 0, 81, 0
1, 38560, Note_on_c, 0, 83, 80
1, 38585, Note_on_c, 1, 64, 0
1, 38585, Note_on_c, 1, 52, 0
1, 38590, Note_on_c, 0, 83, 0
1, 38592, Note_on_c, 0, 81, 97
1, 38592, Note_on_c, 1, 66, 81
1, 38592, Note_on_c, 1, 54, 81
1, 38631, Note_on_c, 0, 81, 0
1, 38681, Note_on_c, 1, 66, 0
1, 38681, Note_on_c, 1, 54, 0
1, 38688, Note_on_c, 0, 74, 79
1, 38688, Note_on_c, 1, 67, 79
1, 38688, Note_on_c, 1, 55, 79
1, 38777, Note_on_c, 0, 74, 0
1, 38777, Note_on_c, 1, 67, 0
1, 38777, Note_on_c, 1, 55, 0
1, 38784, Note_on_c, 0, 74, 77
1, 38784, Note_on_c, 1, 69, 77
1, 38784, Note_on_c, 1, 57, 77
1, 38799, Note_on_c, 0, 74, 0
1, 38800, Note_on_c, 0, 73, 76
1, 38815, Note_on_c, 0, 73, 0
1, 38816, Note_on_c, 0, 74, 76
1, 38831, Note_on_c, 0, 74, 0
1, 38832, Note_on_c, 0, 73, 76
1, 38847, Note_on_c, 0, 73, 0
1, 38848, Note_on_c, 0, 71, 76
1, 38863, Note_on_c, 0, 71, 0
1, 38864, Note_on_c, 0, 73, 75
1, 38873, Note_on_c, 1, 69, 0
1, 38873, Note_on_c, 1, 57, 0
1, 38879, Note_on_c, 0, 73, 0
1, 38880, Note_on_c, 0, 74, 75
1, 38880, Note_on_c, 1, 62, 75
1, 38969, Note_on_c, 1, 62, 0
1, 38976, Note_on_c, 1, 57, 75
1, 39057, Note_on_c, 0, 74, 0
1, 39065, Note_on_c, 1, 57, 0
1, 39072, Note_on_c, 1, 50, 75
1, 39161, Note_on_c, 1, 50, 0
1, 39168, Note_on_c, 0, 74, 75
1, 39168, Note_on_c, 0, 62, 75
1, 39186, Note_on_c, 0, 74, 0
1, 39186, Note_on_c, 0, 78, 75
1, 39204, Note_on_c, 0, 78, 0
1, 39204, Note_on_c, 0, 81, 75
1, 39222, Note_on_c, 0, 81, 0
1, 39222, Note_on_c, 0, 84, 75
1, 39264, Note_on_c, 1, 66, 75
1, 39331, Note_on_c, 0, 84, 0
1, 39336, Note_on_c, 0, 81, 75
1, 39353, Note_on_c, 1, 66, 0
1, 39359, Note_on_c, 0, 81, 0
1, 39360, Note_on_c, 0, 83, 75
1, 39360, Note_on_c, 1, 67, 75
1, 39427, Note_on_c, 0, 83, 0
1, 39432, Note_on_c, 0, 79, 75
1, 39433, Note_on_c, 0, 62, 0
1, 39449, Note_on_c, 1, 67, 0
1, 39455, Note_on_c, 0, 79, 0
1, 39456, Note_on_c, 0, 74, 75
1, 39456, Note_on_c, 1, 71, 75
1, 39456, Note_on_c, 0, 62, 75
1, 39545, Note_on_c, 0, 74, 0
1, 39545, Note_on_c, 1, 71, 0
1, 39552, Note_on_c, 0, 74, 75
1, 39552, Note_on_c, 1, 69, 75
1, 39567, Note_on_c, 0, 74, 0
1, 39568, Note_on_c, 0, 72, 75
1, 39583, Note_on_c, 0, 72, 0
1, 39584, Note_on_c, 0, 74, 75
1, 39599, Note_on_c, 0, 74, 0
1, 39600, Note_on_c, 0, 72, 75
1, 39615, Note_on_c, 0, 72, 0
1, 39616, Note_on_c, 0, 71, 75
1, 39631, Note_on_c, 0, 71, 0
1, 39632, Note_on_c, 0, 72, 75
1, 39641, Note_on_c, 1, 69, 0
1, 39647, Note_on_c, 0, 72, 0
1, 39648, Note_on_c, 0, 71, 75
1, 39648, Note_on_c, 1, 67, 75
1, 39721, Note_on_c, 0, 62, 0
1, 39737, Note_on_c, 0, 71, 0
1, 39737, Note_on_c, 1, 67, 0
1, 39744, Note_on_c, 0, 74, 66
1, 39744, Note_on_c, 0, 62, 66
1, 39762, Note_on_c, 0, 74, 0
1, 39762, Note_on_c, 0, 78, 66
1, 39780, Note_on_c, 0, 78, 0
1, 39780, Note_on_c, 0, 81, 66
1, 39798, Note_on_c, 0, 81, 0
1, 39798, Note_on_c, 0, 84, 66
1, 39840, Note_on_c, 1, 66, 66
1, 39907, Note_on_c, 0, 84, 0
1, 39912, Note_on_c, 0, 81, 66
1, 39929, Note_on_c, 1, 66, 0
1, 39935, Note_on_c, 0, 81, 0
1, 39936, Note_on_c, 0, 83, 66
1, 39936, Note_on_c, 1, 67, 66
1, 40003, Note_on_c, 0, 83, 0
1, 40008, Note_on_c, 0, 79, 66
1, 40009, Note_on_c, 0, 62, 0
1, 40025, Note_on_c, 1, 67, 0
1, 40031, Note_on_c, 0, 79, 0
1, 40032, Note_on_c, 0, 74, 66
1, 40032, Note_on_c, 1, 71, 66
1, 40032, Note_on_c, 0, 62, 66
1, 40121, Note_on_c, 0, 74, 0
1, 40121, Note_on_c, 1, 71, 0
1, 40128, Note_on_c, 0, 74, 66
1, 40128, Note_on_c, 1, 69, 66
1, 40143, Note_on_c, 0, 74, 0
1, 40144, Note_on_c, 0, 72, 66
1, 40159, Note_on_c, 0, 72, 0
1, 40160, Note_on_c, 0, 74, 66
1, 40175, Note_on_c, 0, 74, 0
1, 40176, Note_on_c, 0, 72, 66
1, 40191, Note_on_c, 0, 72, 0
1, 40192, Note_on_c, 0, 71, 66
1, 40207, Note_on_c, 0, 71, 0
1, 40208, Note_on_c, 0, 72, 66
1, 40217, Note_on_c, 1, 69, 0
1, 40223, Note_on_c, 0, 72, 0
1, 40224, Note_on_c, 0, 71, 66
1, 40224, Note_on_c, 1, 67, 66
1, 40297, Note_on_c, 0, 62, 0
1, 40313, Note_on_c, 0, 71, 0
1, 40313, Note_on_c, 1, 67, 0
1, 40320, Note_on_c, 0, 69, 75
1, 40320, Note_on_c, 1, 66, 66
1, 40320, Note_on_c, 0, 62, 66
1, 40343, Note_on_c, 0, 69, 0
1, 40344, Note_on_c, 0, 71, 75
1, 40367, Note_on_c, 0, 71, 0
1, 40368, Note_on_c, 0, 72, 75
1, 40391, Note_on_c, 0, 72, 0
1, 40392, Note_on_c, 0, 71, 75
1, 40409, Note_on_c, 1, 66, 0
1, 40409, Note_on_c, 0, 62, 0
1, 40415, Note_on_c, 0, 71, 0
1, 40416, Note_on_c, 0, 69, 75
1, 40416, Note_on_c, 1, 66, 66
1, 40416, Note_on_c, 0, 62, 66
1, 40505, Note_on_c, 0, 69, 0
1, 40505, Note_on_c, 1, 66, 0
1, 40505, Note_on_c, 0, 62, 0
1, 40512, Note_on_c, 1, 66, 66
1, 40512, Note_on_c, 0, 62, 66
1, 40601, Note_on_c, 1, 66, 0
1, 40601, Note_on_c, 0, 62, 0
1, 40608, Note_on_c, 0, 71, 75
1, 40608, Note_on_c, 1, 67, 66
1, 40608, Note_on_c, 0, 62, 66
1, 40631, Note_on_c, 0, 71, 0
1, 40632, Note_on_c, 0, 72, 75
1, 40655, Note_on_c, 0, 72, 0
1, 40656, Note_on_c, 0, 74, 75
1, 40679, Note_on_c, 0, 74, 0
1, 40680, Note_on_c, 0, 72, 75
1, 40697, Note_on_c, 1, 67, 0
1, 40697, Note_on_c, 0, 62, 0
1, 40703, Note_on_c, 0, 72, 0
1, 40704, Note_on_c, 0, 71, 75
1, 40704, Note_on_c, 1, 67, 66
1, 40704, Note_on_c, 0, 62, 66
1, 40793, Note_on_c, 0, 71, 0
1, 40793, Note_on_c, 1, 67, 0
1, 40793, Note_on_c, 0, 62, 0
1, 40800, Note_on_c, 1, 67, 66
1, 40800, Note_on_c, 0, 62, 66
1, 40889, Note_on_c, 1, 67, 0
1, 40889, Note_on_c, 0, 62, 0
1, 40896, Note_on_c, 1, 67, 66
1, 40896, Note_on_c, 0, 64, 66
1, 40944, Note_on_c, 0, 71, 75
1, 40985, Note_on_c, 1, 67, 0
1, 40985, Note_on_c, 0, 64, 0
1, 40989, Note_on_c, 0, 71, 0
1, 40992, Note_on_c, 0, 79, 75
1, 40992, Note_on_c, 1, 67, 66
1, 40992, Note_on_c, 0, 64, 66
1, 41037, Note_on_c, 0, 79, 0
1, 41040, Note_on_c, 0, 76, 75
1, 41081, Note_on_c, 1, 67, 0
1, 41081, Note_on_c, 0, 64, 0
1, 41085, Note_on_c, 0, 76, 0
1, 41088, Note_on_c, 0, 74, 75
1, 41088, Note_on_c, 1, 67, 66
1, 41088, Note_on_c, 0, 64, 66
1, 41100, Note_on_c, 0, 74, 0
1, 41100, Note_on_c, 0, 76, 75
1, 41112, Note_on_c, 0, 76, 0
1, 41112, Note_on_c, 0, 74, 75
1, 41133, Note_on_c, 0, 74, 0
1, 41136, Note_on_c, 0, 73, 75
1, 41177, Note_on_c, 1, 67, 0
1, 41177, Note_on_c, 0, 64, 0
1, 41181, Note_on_c, 0, 73, 0
1, 41184, Note_on_c, 0, 73, 75
1, 41184, Note_on_c, 1, 67, 66
1, 41184, Note_on_c, 0, 62, 66
1, 41280, Note_on_c, 0, 73, 0
1, 41280, Note_on_c, 0, 74, 75
1, 41280, Note_on_c, 1, 67, 0
1, 41280, Note_on_c, 1, 66, 66
1, 41361, Note_on_c, 0, 74, 0
1, 41361, Note_on_c, 1, 66, 0
1, 41361, Note_on_c, 0, 62, 0
1, 41472, Note_on_c, 0, 62, 75
1, 41490, Note_on_c, 0, 62, 0
1, 41490, Note_on_c, 0, 67, 75
1, 41508, Note_on_c, 0, 67, 0
1, 41508, Note_on_c, 0, 71, 75
1, 41526, Note_on_c, 0, 71, 0
1, 41526, Note_on_c, 0, 74, 75
1, 41568, Note_on_c, 1, 59, 75
1, 41635, Note_on_c, 0, 74, 0
1, 41640, Note_on_c, 0, 72, 75
1, 41652, Note_on_c, 0, 72, 0
1, 41652, Note_on_c, 0, 74, 75
1, 41657, Note_on_c, 1, 59, 0
1, 41664, Note_on_c, 0, 74, 0
1, 41664, Note_on_c, 0, 76, 75
1, 41664, Note_on_c, 1, 55, 75
1, 41731, Note_on_c, 0, 76, 0
1, 41736, Note_on_c, 0, 71, 75
1, 41753, Note_on_c, 1, 55, 0
1, 41759, Note_on_c, 0, 71, 0
1, 41760, Note_on_c, 0, 74, 75
1, 41760, Note_on_c, 1, 57, 75
1, 41827, Note_on_c, 0, 74, 0
1, 41832, Note_on_c, 0, 72, 75
1, 41849, Note_on_c, 1, 57, 0
1, 41855, Note_on_c, 0, 72, 0
1, 41856, Note_on_c, 0, 69, 75
1, 41856, Note_on_c, 1, 54, 75
1, 41945, Note_on_c, 1, 54, 0
1, 41952, Note_on_c, 1, 50, 75
1, 42019, Note_on_c, 0, 69, 0
1, 42024, Note_on_c, 0, 72, 75
1, 42041, Note_on_c, 1, 50, 0
1, 42047, Note_on_c, 0, 72, 0
1, 42048, Note_on_c, 0, 62, 75
1, 42048, Note_on_c, 1, 55, 75
1, 42066, Note_on_c, 0, 62, 0
1, 42066, Note_on_c, 0, 66, 75
1, 42084, Note_on_c, 0, 66, 0
1, 42084, Note_on_c, 0, 67, 75
1, 42102, Note_on_c, 0, 67, 0
1, 42102, Note_on_c, 0, 71, 75
1, 42137, Note_on_c, 1, 55, 0
1, 42144, Note_on_c, 1, 52, 75
1, 42211, Note_on_c, 0, 71, 0
1, 42216, Note_on_c, 0, 69, 75
1, 42228, Note_on_c, 0, 69, 0
1, 42228, Note_on_c, 0, 71, 75
1, 42233, Note_on_c, 1, 52, 0
1, 42240, Note_on_c, 0, 71, 0
1, 42240, Note_on_c, 0, 72, 75
1, 42240, Note_on_c, 1, 48, 75
1, 42307, Note_on_c, 0, 72, 0
1, 42312, Note_on_c, 0, 69, 75
1, 42329, Note_on_c, 1, 48, 0
1, 42335, Note_on_c, 0, 69, 0
1, 42336, Note_on_c, 0, 67, 75
1, 42336, Note_on_c, 1, 50, 75
1, 42425, Note_on_c, 0, 67, 0
1, 42425, Note_on_c, 1, 50, 0
1, 42432, Note_on_c, 0, 67, 75
1, 42432, Note_on_c, 1, 48, 75
1, 42447, Note_on_c, 0, 67, 0
1, 42448, Note_on_c, 0, 66, 75
1, 42463, Note_on_c, 0, 66, 0
1, 42464, Note_on_c, 0, 67, 75
1, 42479, Note_on_c, 0, 67, 0
1, 42480, Note_on_c, 0, 66, 75
1, 42495, Note_on_c, 0, 66, 0
1, 42496, Note_on_c, 0, 64, 75
1, 42511, Note_on_c, 0, 64, 0
1, 42512, Note_on_c, 0, 66, 75
1, 42521, Note_on_c, 1, 48, 0
1, 42527, Note_on_c, 0, 66, 0
1, 42528, Note_on_c, 0, 67, 75
1, 42528, Note_on_c, 1, 47, 75
1, 42595, Note_on_c, 0, 67, 0
1, 42600, Note_on_c, 0, 62, 75
1, 42617, Note_on_c, 1, 47, 0
1, 42623, Note_on_c, 0, 62, 0
1, 42624, Note_on_c, 0, 64, 75
1, 42624, Note_on_c, 1, 48, 75
1, 42624, Note_on_c, 1, 36, 75
1, 42691, Note_on_c, 0, 64, 0
1, 42696, Note_on_c, 0, 66, 75
1, 42708, Note_on_c, 0, 66, 0
1, 42708, Note_on_c, 0, 67, 75
1, 42713, Note_on_c, 1, 48, 0
1, 42713, Note_on_c, 1, 36, 0
1, 42720, Note_on_c, 0, 67, 0
1, 42720, Note_on_c, 0, 66, 75
1, 42720, Note_on_c, 1, 50, 75
1, 42720, Note_on_c, 1, 38, 75
1, 42809, Note_on_c, 0, 66, 0
1, 42809, Note_on_c, 1, 50, 0
1, 42809, Note_on_c, 1, 38, 0
1, 42816, Note_on_c, 1, 52, 75
1, 42816, Note_on_c, 1, 40, 75
1, 42888, Note_on_c, 0, 67, 75
1, 42905, Note_on_c, 1, 52, 0
1, 42905, Note_on_c, 1, 40, 0
1, 42911, Note_on_c, 0, 67, 0
1, 42912, Note_on_c, 0, 69, 75
1, 42912, Note_on_c, 1, 54, 75
1, 42912, Note_on_c, 1, 42, 75
1, 42979, Note_on_c, 0, 69, 0
1, 42984, Note_on_c, 0, 71, 75
1, 42996, Note_on_c, 0, 71, 0
1, 42996, Note_on_c, 0, 72, 75
1, 43001, Note_on_c, 1, 54, 0
1, 43001, Note_on_c, 1, 42, 0
1, 43008, Note_on_c, 0, 72, 0
1, 43008, Note_on_c, 0, 71, 75
1, 43008, Note_on_c, 1, 55, 75
1, 43008, Note_on_c, 1, 43, 75
1, 43097, Note_on_c, 0, 71, 0
1, 43097, Note_on_c, 1, 55, 0
1, 43097, Note_on_c, 1, 43, 0
1, 43104, Note_on_c, 1, 47, 75
1, 43104, Note_on_c, 1, 35, 75
1, 43176, Note_on_c, 0, 62, 75
1, 43193, Note_on_c, 1, 47, 0
1, 43193, Note_on_c, 1, 35, 0
1, 43199, Note_on_c, 0, 62, 0
1, 43200, Note_on_c, 0, 64, 75
1, 43200, Note_on_c, 1, 48, 75
1, 43200, Note_on_c, 1, 36, 75
1, 43230, Note_on_c, 0, 64, 0
1, 43232, Note_on_c, 0, 66, 75
1, 43262, Note_on_c, 0, 66, 0
1, 43264, Note_on_c, 0, 67, 75
1, 43289, Note_on_c, 1, 48, 0
1, 43289, Note_on_c, 1, 36, 0
1, 43294, Note_on_c, 0, 67, 0
1, 43296, Note_on_c, 0, 66, 75
1, 43296, Note_on_c, 1, 50, 76
1, 43296, Note_on_c, 1, 38, 76
1, 43326, Note_on_c, 0, 66, 0
1, 43328, Note_on_c, 0, 67, 76
1, 43358, Note_on_c, 0, 67, 0
1, 43360, Note_on_c, 0, 69, 76
1, 43385, Note_on_c, 1, 50, 0
1, 43385, Note_on_c, 1, 38, 0
1, 43390, Note_on_c, 0, 69, 0
1, 43392, Note_on_c, 0, 67, 76
1, 43392, Note_on_c, 1, 52, 77
1, 43392, Note_on_c, 1, 40, 77
1, 43422, Note_on_c, 0, 67, 0
1, 43424, Note_on_c, 0, 69, 77
1, 43454, Note_on_c, 0, 69, 0
1, 43456, Note_on_c, 0, 71, 77
1, 43481, Note_on_c, 1, 52, 0
1, 43481, Note_on_c, 1, 40, 0
1, 43486, Note_on_c, 0, 71, 0
1, 43488, Note_on_c, 0, 69, 77
1, 43488, Note_on_c, 1, 54, 78
1, 43488, Note_on_c, 1, 42, 78
1, 43518, Note_on_c, 0, 69, 0
1, 43520, Note_on_c, 0, 71, 78
1, 43550, Note_on_c, 0, 71, 0
1, 43552, Note_on_c, 0, 72, 78
1, 43577, Note_on_c, 1, 54, 0
1, 43577, Note_on_c, 1, 42, 0
1, 43582, Note_on_c, 0, 72, 0
1, 43584, Note_on_c, 0, 71, 78
1, 43584, Note_on_c, 1, 55, 79
1, 43584, Note_on_c, 1, 43, 79
1, 43614, Note_on_c, 0, 71, 0
1, 43616, Note_on_c, 0, 72, 79
1, 43646, Note_on_c, 0, 72, 0
1, 43648, Note_on_c, 0, 74, 79
1, 43673, Note_on_c, 1, 55, 0
1, 43673, Note_on_c, 1, 43, 0
1, 43678, Note_on_c, 0, 74, 0
1, 43680, Note_on_c, 0, 72, 79
1, 43680, Note_on_c, 1, 57, 80
1, 43680, Note_on_c, 1, 45, 80
1, 43710, Note_on_c, 0, 72, 0
1, 43712, Note_on_c, 0, 74, 80
1, 43742, Note_on_c, 0, 74, 0
1, 43744, Note_on_c, 0, 76, 80
1, 43769, Note_on_c, 1, 57, 0
1, 43769, Note_on_c, 1, 45, 0
1, 43774, Note_on_c, 0, 76, 0
1, 43776, Note_on_c, 0, 74, 97
1, 43776, Note_on_c, 1, 59, 81
1, 43776, Note_on_c, 1, 47, 81
1, 43815, Note_on_c, 0, 74, 0
1, 43865, Note_on_c, 1, 59, 0
1, 43865, Note_on_c, 1, 47, 0
1, 43872, Note_on_c, 0, 67, 79
1, 43872, Note_on_c, 1, 60, 79
1, 43872, Note_on_c, 1, 48, 79
1, 43961, Note_on_c, 0, 67, 0
1, 43961, Note_on_c, 1, 60, 0
1, 43961, Note_on_c, 1, 48, 0
1, 43968, Note_on_c, 0, 67, 77
1, 43968, Note_on_c, 1, 62, 77
1, 43968, Note_on_c, 1, 50, 77
1, 43983, Note_on_c, 0, 67, 0
1, 43984, Note_on_c, 0, 66, 76
1, 43999, Note_on_c, 0, 66, 0
1, 44000, Note_on_c, 0, 67, 76
1, 44015, Note_on_c, 0, 67, 0
1, 44016, Note_on_c, 0, 66, 76
1, 44031, Note_on_c, 0, 66, 0
1, 44032, Note_on_c, 0, 64, 76
1, 44047, Note_on_c, 0, 64, 0
1, 44048, Note_on_c, 0, 66, 75
1, 44057, Note_on_c, 1, 62, 0
1, 44057, Note_on_c, 1, 50, 0
1, 44063, Note_on_c, 0, 66, 0
1, 44064, Note_on_c, 0, 66, 75
1, 44064, Note_on_c, 1, 55, 75
1, 44153, Note_on_c, 1, 55, 0
1, 44160, Note_on_c, 0, 66, 0
1, 44160, Note_on_c, 0, 67, 75
1, 44160, Note_on_c, 1, 50, 75
1, 44241, Note_on_c, 0, 67, 0
1, 44249, Note_on_c, 1, 50, 0
1, 44256, Note_on_c, 1, 43, 75
1, 44345, Note_on_c, 1, 43, 0
1, 44352, Note_on_c, 0, 74, 75
1, 44352, Note_on_c, 0, 62, 75
1, 44370, Note_on_c, 0, 74, 0
1, 44370, Note_on_c, 0, 78, 75
1, 44388, Note_on_c, 0, 78, 0
1, 44388, Note_on_c, 0, 81, 75
1, 44406, Note_on_c, 0, 81, 0
1, 44406, Note_on_c, 0, 84, 75
1, 44448, Note_on_c, 1, 66, 75
1, 44515, Note_on_c, 0, 84, 0
1, 44520, Note_on_c, 0, 81, 75
1, 44537, Note_on_c, 1, 66, 0
1, 44543, Note_on_c, 0, 81, 0
1, 44544, Note_on_c, 0, 83, 75
1, 44544, Note_on_c, 1, 67, 75
1, 44611, Note_on_c, 0, 83, 0
1, 44616, Note_on_c, 0, 79, 75
1, 44617, Note_on_c, 0, 62, 0
1, 44633, Note_on_c, 1, 67, 0
1, 44639, Note_on_c, 0, 79, 0
1, 44640, Note_on_c, 0, 74, 75
1, 44640, Note_on_c, 1, 71, 75
1, 44640, Note_on_c, 0, 62, 75
1, 44729, Note_on_c, 0, 74, 0
1, 44729, Note_on_c, 1, 71, 0
1, 44736, Note_on_c, 0, 74, 75
1, 44736, Note_on_c, 1, 69, 75
1, 44751, Note_on_c, 0, 74, 0
1, 44752, Note_on_c, 0, 72, 75
1, 44767, Note_on_c, 0, 72, 0
1, 44768, Note_on_c, 0, 74, 75
1, 44783, Note_on_c, 0, 74, 0
1, 44784, Note_on_c, 0, 72, 75
1, 44799, Note_on_c, 0, 72, 0
1, 44800, Note_on_c, 0, 71, 75
1, 44815, Note_on_c, 0, 71, 0
1, 44816, Note_on_c, 0, 72, 75
1, 44825, Note_on_c, 1, 69, 0
1, 44831, Note_on_c, 0, 72, 0
1, 44832, Note_on_c, 0, 71, 75
1, 44832, Note_on_c, 1, 67, 75
1, 44905, Note_on_c, 0, 62, 0
1, 44921, Note_on_c, 0, 71, 0
1, 44921, Note_on_c, 1, 67, 0
1, 44928, Note_on_c, 0, 74, 66
1, 44928, Note_on_c, 0, 62, 66
1, 44946, Note_on_c, 0, 74, 0
1, 44946, Note_on_c, 0, 78, 66
1, 44964, Note_on_c, 0, 78, 0
1, 44964, Note_on_c, 0, 81, 66
1, 44982, Note_on_c, 0, 81, 0
1, 44982, Note_on_c, 0, 84, 66
1, 45024, Note_on_c, 1, 66, 66
1, 45091, Note_on_c, 0, 84, 0
1, 45096, Note_on_c, 0, 81, 66
1, 45113, Note_on_c, 1, 66, 0
1, 45119, Note_on_c, 0, 81, 0
1, 45120, Note_on_c, 0, 83, 66
1, 45120, Note_on_c, 1, 67, 66
1, 45187, Note_on_c, 0, 83, 0
1, 45192, Note_on_c, 0, 79, 66
1, 45193, Note_on_c, 0, 62, 0
1, 45209, Note_on_c, 1, 67, 0
1, 45215, Note_on_c, 0, 79, 0
1, 45216, Note_on_c, 0, 74, 66
1, 45216, Note_on_c, 1, 71, 66
1, 45216, Note_on_c, 0, 62, 66
1, 45305, Note_on_c, 0, 74, 0
1, 45305, Note_on_c, 1, 71, 0
1, 45312, Note_on_c, 0, 74, 66
1, 45312, Note_on_c, 1, 69, 66
1, 45327, Note_on_c, 0, 74, 0
1, 45328, Note_on_c, 0, 72, 66
1, 45343, Note_on_c, 0, 72, 0
1, 45344, Note_on_c, 0, 74, 66
1, 45359, Note_on_c, 0, 74, 0
1, 45360, Note_on_c, 0, 72, 66
1, 45375, Note_on_c, 0, 72, 0
1, 45376, Note_on_c, 0, 71, 66
1, 45391, Note_on_c, 0, 71, 0
1, 45392, Note_on_c, 0, 72, 66
1, 45401, Note_on_c, 1, 69, 0
1, 45407, Note_on_c, 0, 72, 0
1, 45408, Note_on_c, 0, 71, 66
1, 45408, Note_on_c, 1, 67, 66
1, 45481, Note_on_c, 0, 62, 0
1, 45497, Note_on_c, 0, 71, 0
1, 45497, Note_on_c, 1, 67, 0
1, 45504, Note_on_c, 0, 69, 75
1, 45504, Note_on_c, 1, 66, 66
1, 45504, Note_on_c, 0, 62, 66
1, 45527, Note_on_c, 0, 69, 0
1, 45528, Note_on_c, 0, 71, 75
1, 45551, Note_on_c, 0, 71, 0
1, 45552, Note_on_c, 0, 72, 75
1, 45575, Note_on_c, 0, 72, 0
1, 45576, Note_on_c, 0, 71, 75
1, 45593, Note_on_c, 1, 66, 0
1, 45593, Note_on_c, 0, 62, 0
1, 45599, Note_on_c, 0, 71, 0
1, 45600, Note_on_c, 0, 69, 75
1, 45600, Note_on_c, 1, 66, 66
1, 45600, Note_on_c, 0, 62, 66
1, 45689, Note_on_c, 0, 69, 0
1, 45689, Note_on_c, 1, 66, 0
1, 45689, Note_on_c, 0, 62, 0
1, 45696, Note_on_c, 1, 66, 66
1, 45696, Note_on_c, 0, 62, 66
1, 45785, Note_on_c, 1, 66, 0
1, 45785, Note_on_c, 0, 62, 0
1, 45792, Note_on_c, 0, 71, 75
1, 45792, Note_on_c, 1, 67, 66
1, 45792, Note_on_c, 0, 62, 66
1, 45815, Note_on_c, 0, 71, 0
1, 45816, Note_on_c, 0, 72, 75
1, 45839, Note_on_c, 0, 72, 0
1, 45840, Note_on_c, 0, 74, 75
1, 45863, Note_on_c, 0, 74, 0
1, 45864, Note_on_c, 0, 72, 75
1, 45881, Note_on_c, 1, 67, 0
1, 45881, Note_on_c, 0, 62, 0
1, 45887, Note_on_c, 0, 72, 0
1, 45888, Note_on_c, 0, 71, 75
1, 45888, Note_on_c, 1, 67, 66
1, 45888, Note_on_c, 0, 62, 66
1, 45977, Note_on_c, 0, 71, 0
1, 45977, Note_on_c, 1, 67, 0
1, 45977, Note_on_c, 0, 62, 0
1, 45984, Note_on_c, 1, 67, 66
1, 45984, Note_on_c, 0, 62, 66
1, 46073, Note_on_c, 1, 67, 0
1, 46073, Note_on_c, 0, 62, 0
1, 46080, Note_on_c, 1, 67, 66
1, 46080, Note_on_c, 0, 64, 66
1, 46128, Note_on_c, 0, 71, 75
1, 46169, Note_on_c, 1, 67, 0
1, 46169, Note_on_c, 0, 64, 0
1, 46173, Note_on_c, 0, 71, 0
1, 46176, Note_on_c, 0, 79, 75
1, 46176, Note_on_c, 1, 67, 66
1, 46176, Note_on_c, 0, 64, 66
1, 46221, Note_on_c, 0, 79, 0
1, 46224, Note_on_c, 0, 76, 75
1, 46265, Note_on_c, 1, 67, 0
1, 46265, Note_on_c, 0, 64, 0
1, 46269, Note_on_c, 0, 76, 0
1, 46272, Note_on_c, 0, 74, 75
1, 46272, Note_on_c, 1, 67, 66
1, 46272, Note_on_c, 0, 64, 66
1, 46284, Note_on_c, 0, 74, 0
1, 46284, Note_on_c, 0, 76, 75
1, 46296, Note_on_c, 0, 76, 0
1, 46296, Note_on_c, 0, 74, 75
1, 46317, Note_on_c, 0, 74, 0
1, 46320, Note_on_c, 0, 73, 75
1, 46361, Note_on_c, 1, 67, 0
1, 46361, Note_on_c, 0, 64, 0
1, 46365, Note_on_c, 0, 73, 0
1, 46368, Note_on_c, 0, 73, 75
1, 46368, Note_on_c, 1, 67, 66
1, 46368, Note_on_c, 0, 62, 66
1, 46464, Note_on_c, 0, 73, 0
1, 46464, Note_on_c, 0, 74, 75
1, 46464, Note_on_c, 1, 67, 0
1, 46464, Note_on_c, 1, 66, 66
1, 46545, Note_on_c, 0, 74, 0
1, 46545, Note_on_c, 1, 66, 0
1, 46545, Note_on_c, 0, 62, 0
1, 46656, Note_on_c, 0, 62, 75
1, 46674, Note_on_c, 0, 62, 0
1, 46674, Note_on_c, 0, 67, 75
1, 46692, Note_on_c, 0, 67, 0
1, 46692, Note_on_c, 0, 71, 75
1, 46710, Note_on_c, 0, 71, 0
1, 46710, Note_on_c, 0, 74, 75
1, 46752, Note_on_c, 1, 59, 75
1, 46819, Note_on_c, 0, 74, 0
1, 46824, Note_on_c, 0, 72, 75
1, 46836, Note_on_c, 0, 72, 0
1, 46836, Note_on_c, 0, 74, 75
1, 46841, Note_on_c, 1, 59, 0
1, 46848, Note_on_c, 0, 74, 0
1, 46848, Note_on_c, 0, 76, 75
1, 46848, Note_on_c, 1, 55, 75
1, 46915, Note_on_c, 0, 76, 0
1, 46920, Note_on_c, 0, 71, 75
1, 46937, Note_on_c, 1, 55, 0
1, 46943, Note_on_c, 0, 71, 0
1, 46944, Note_on_c, 0, 74, 75
1, 46944, Note_on_c, 1, 57, 75
1, 47011, Note_on_c, 0, 74, 0
1, 47016, Note_on_c, 0, 72, 75
1, 47033, Note_on_c, 1, 57, 0
1, 47039, Note_on_c, 0, 72, 0
1, 47040, Note_on_c, 0, 69, 75
1, 47040, Note_on_c, 1, 54, 75
1, 47129, Note_on_c, 1, 54, 0
1, 47136, Note_on_c, 1, 50, 75
1, 47203, Note_on_c, 0, 69, 0
1, 47208, Note_on_c, 0, 72, 75
1, 47225, Note_on_c, 1, 50, 0
1, 47231, Note_on_c, 0, 72, 0
1, 47232, Note_on_c, 0, 62, 75
1, 47232, Note_on_c, 1, 55, 75
1, 47250, Note_on_c, 0, 62, 0
1, 47250, Note_on_c, 0, 66, 75
1, 47268, Note_on_c, 0, 66, 0
1, 47268, Note_on_c, 0, 67, 75
1, 47286, Note_on_c, 0, 67, 0
1, 47286, Note_on_c, 0, 71, 75
1, 47321, Note_on_c, 1, 55, 0
1, 47328, Note_on_c, 1, 52, 75
1, 47395, Note_on_c, 0, 71, 0
1, 47400, Note_on_c, 0, 69, 75
1, 47412, Note_on_c, 0, 69, 0
1, 47412, Note_on_c, 0, 71, 75
1, 47417, Note_on_c, 1, 52, 0
1, 47424, Note_on_c, 0, 71, 0
1, 47424, Note_on_c, 0, 72, 75
1, 47424, Note_on_c, 1, 48, 75
1, 47491, Note_on_c, 0, 72, 0
1, 47496, Note_on_c, 0, 69, 75
1, 47513, Note_on_c, 1, 48, 0
1, 47519, Note_on_c, 0, 69, 0
1, 47520, Note_on_c, 0, 67, 75
1, 47520, Note_on_c, 1, 50, 75
1, 47609, Note_on_c, 0, 67, 0
1, 47609, Note_on_c, 1, 50, 0
1, 47616, Note_on_c, 0, 67, 75
1, 47616, Note_on_c, 1, 48, 75
1, 47631, Note_on_c, 0, 67, 0
1, 47632, Note_on_c, 0, 66, 75
1, 47647, Note_on_c, 0, 66, 0
1, 47648, Note_on_c, 0, 67, 75
1, 47663, Note_on_c, 0, 67, 0
1, 47664, Note_on_c, 0, 66, 75
1, 47679, Note_on_c, 0, 66, 0
1, 47680, Note_on_c, 0, 64, 75
1, 47695, Note_on_c, 0, 64, 0
1, 47696, Note_on_c, 0, 66, 75
1, 47705, Note_on_c, 1, 48, 0
1, 47711, Note_on_c, 0, 66, 0
1, 47712, Note_on_c, 0, 67, 75
1, 47712, Note_on_c, 1, 47, 75
1, 47779, Note_on_c, 0, 67, 0
1, 47784, Note_on_c, 0, 62, 75
1, 47801, Note_on_c, 1, 47, 0
1, 47807, Note_on_c, 0, 62, 0
1, 47808, Note_on_c, 0, 64, 75
1, 47808, Note_on_c, 1, 48, 75
1, 47808, Note_on_c, 1, 36, 75
1, 47875, Note_on_c, 0, 64, 0
1, 47880, Note_on_c, 0, 66, 75
1, 47892, Note_on_c, 0, 66, 0
1, 47892, Note_on_c, 0, 67, 75
1, 47897, Note_on_c, 1, 48, 0
1, 47897, Note_on_c, 1, 36, 0
1, 47904, Note_on_c, 0, 67, 0
1, 47904, Note_on_c, 0, 66, 75
1, 47904, Note_on_c, 1, 50, 75
1, 47904, Note_on_c, 1, 38, 75
1, 47993, Note_on_c, 0, 66, 0
1, 47993, Note_on_c, 1, 50, 0
1, 47993, Note_on_c, 1, 38, 0
1, 48000, Note_on_c, 1, 52, 75
1, 48000, Note_on_c, 1, 40, 75
1, 48072, Note_on_c, 0, 67, 75
1, 48089, Note_on_c, 1, 52, 0
1, 48089, Note_on_c, 1, 40, 0
1, 48095, Note_on_c, 0, 67, 0
1, 48096, Note_on_c, 0, 69, 75
1, 48096, Note_on_c, 1, 54, 75
1, 48096, Note_on_c, 1, 42, 75
1, 48163, Note_on_c, 0, 69, 0
1, 48168, Note_on_c, 0, 71, 75
1, 48180, Note_on_c, 0, 71, 0
1, 48180, Note_on_c, 0, 72, 75
1, 48185, Note_on_c, 1, 54, 0
1, 48185, Note_on_c, 1, 42, 0
1, 48192, Note_on_c, 0, 72, 0
1, 48192, Note_on_c, 0, 71, 75
1, 48192, Note_on_c, 1, 55, 75
1, 48192, Note_on_c, 1, 43, 75
1, 48281, Note_on_c, 0, 71, 0
1, 48281, Note_on_c, 1, 55, 0
1, 48281, Note_on_c, 1, 43, 0
1, 48288, Note_on_c, 1, 47, 75
1, 48288, Note_on_c, 1, 35, 75
1, 48360, Note_on_c, 0, 62, 75
1, 48377, Note_on_c, 1, 47, 0
1, 48377, Note_on_c, 1, 35, 0
1, 48383, Note_on_c, 0, 62, 0
1, 48384, Note_on_c, 0, 64, 75
1, 48384, Note_on_c, 1, 48, 75
1, 48384, Note_on_c, 1, 36, 75
1, 48414, Note_on_c, 0, 64, 0
1, 48416, Note_on_c, 0, 66, 75
1, 48446, Note_on_c, 0, 66, 0
1, 48448, Note_on_c, 0, 67, 75
1, 48473, Note_on_c, 1, 48, 0
1, 48473, Note_on_c, 1, 36, 0
1, 48478, Note_on_c, 0, 67, 0
1, 48480, Note_on_c, 0, 66, 75
1, 48480, Note_on_c, 1, 50, 76
1, 48480, Note_on_c, 1, 38, 76
1, 48510, Note_on_c, 0, 66, 0
1, 48512, Note_on_c, 0, 67, 76
1, 48542, Note_on_c, 0, 67, 0
1, 48544, Note_on_c, 0, 69, 76
1, 48569, Note_on_c, 1, 50, 0
1, 48569, Note_on_c, 1, 38, 0
1, 48574, Note_on_c, 0, 69, 0
1, 48576, Note_on_c, 0, 67, 76
1, 48576, Note_on_c, 1, 52, 77
1, 48576, Note_on_c, 1, 40, 77
1, 48606, Note_on_c, 0, 67, 0
1, 48608, Note_on_c, 0, 69, 77
1, 48638, Note_on_c, 0, 69, 0
1, 48640, Note_on_c, 0, 71, 77
1, 48665, Note_on_c, 1, 52, 0
1, 48665, Note_on_c, 1, 40, 0
1, 48670, Note_on_c, 0, 71, 0
1, 48672, Note_on_c, 0, 69, 77
1, 48672, Note_on_c, 1, 54, 78
1, 48672, Note_on_c, 1, 42, 78
1, 48702, Note_on_c, 0, 69, 0
1, 48704, Note_on_c, 0, 71, 78
1, 48734, Note_on_c, 0, 71, 0
1, 48736, Note_on_c, 0, 72, 78
1, 48761, Note_on_c, 1, 54, 0
1, 48761, Note_on_c, 1, 42, 0
1, 48766, Note_on_c, 0, 72, 0
1, 48768, Note_on_c, 0, 71, 78
1, 48768, Note_on_c, 1, 55, 79
1, 48768, Note_on_c, 1, 43, 79
1, 48798, Note_on_c, 0, 71, 0
1, 48800, Note_on_c, 0, 72, 79
1, 48830, Note_on_c, 0, 72, 0
1, 48832, Note_on_c, 0, 74, 79
1, 48857, Note_on_c, 1, 55, 0
1, 48857, Note_on_c, 1, 43, 0
1, 48862, Note_on_c, 0, 74, 0
1, 48864, Note_on_c, 0, 72, 79
1, 48864, Note_on_c, 1, 57, 80
1, 48864, Note_on_c, 1, 45, 80
1, 48894, Note_on_c, 0, 72, 0
1, 48896, Note_on_c, 0, 74, 80
1, 48926, Note_on_c, 0, 74, 0
1, 48928, Note_on_c, 0, 76, 80
1, 48953, Note_on_c, 1, 57, 0
1, 48953, Note_on_c, 1, 45, 0
1, 48958, Note_on_c, 0, 76, 0
1, 48960, Note_on_c, 0, 74, 97
1, 48960, Note_on_c, 1, 59, 81
1, 48960, Note_on_c, 1, 47, 81
1, 48999, Note_on_c, 0, 74, 0
1, 49049, Note_on_c, 1, 59, 0
1, 49049, Note_on_c, 1, 47, 0
1, 49056, Note_on_c, 0, 67, 79
1, 49056, Note_on_c, 1, 60, 79
1, 49056, Note_on_c, 1, 48, 79
1, 49145, Note_on_c, 0, 67, 0
1, 49145, Note_on_c, 1, 60, 0
1, 49145, Note_on_c, 1, 48, 0
1, 49152, Note_on_c, 0, 67, 77
1, 49152, Note_on_c, 1, 62, 77
1, 49152, Note_on_c, 1, 50, 77
1, 49167, Note_on_c, 0, 67, 0
1, 49168, Note_on_c, 0, 66, 76
1, 49183, Note_on_c, 0, 66, 0
1, 49184, Note_on_c, 0, 67, 76
1, 49199, Note_on_c, 0, 67, 0
1, 49200, Note_on_c, 0, 66, 76
1, 49215, Note_on_c, 0, 66, 0
1, 49216, Note_on_c, 0, 64, 76
1, 49231, Note_on_c, 0, 64, 0
1, 49232, Note_on_c, 0, 66, 75
1, 49241, Note_on_c, 1, 62, 0
1, 49241, Note_on_c, 1, 50, 0
1, 49247, Note_on_c, 0, 66, 0
1, 49248, Note_on_c, 0, 66, 75
1, 49248, Note_on_c, 1, 55, 75
1, 49337, Note_on_c, 1, 55, 0
1, 49344, Note_on_c, 0, 66, 0
1, 49344, Note_on_c, 0, 67, 75
1, 49344, Note_on_c, 1, 50, 75
1, 49425, Note_on_c, 0, 67, 0
1, 49433, Note_on_c, 1, 50, 0
1, 49440, Note_on_c, 1, 43, 75
1, 49529, Note_on_c, 1, 43, 0
1, 49539, End_track
0, 0, End_of_file