0, 0, Header, 0, 1, 96
1, 0, Start_track
1, 0, Tempo, 394736
1, 144, Note_on_c, 0, 70, 77
1, 192, Note_on_c, 0, 70, 0
1, 192, Note_on_c, 0, 67, 77
1, 237, Note_on_c, 0, 67, 0
1, 240, Note_on_c, 1, 63, 64
1, 288, Note_on_c, 1, 63, 0
1, 288, Note_on_c, 1, 67, 64
1, 333, Note_on_c, 1, 67, 0
1, 336, Note_on_c, 0, 70, 77
1, 384, Note_on_c, 0, 70, 0
1, 384, Note_on_c, 0, 65, 77
1, 429, Note_on_c, 0, 65, 0
1, 432, Note_on_c, 1, 62, 64
1, 480, Note_on_c, 1, 62, 0
1, 480, Note_on_c, 1, 65, 64
1, 525, Note_on_c, 1, 65, 0
1, 528, Note_on_c, 0, 70, 77
1, 573, Note_on_c, 0, 70, 0
1, 576, Note_on_c, 0, 75, 77
1, 621, Note_on_c, 0, 75, 0
1, 624, Note_on_c, 0, 68, 93
1, 624, Note_on_c, 1, 60, 64
1, 672, Note_on_c, 1, 60, 0
1, 672, Note_on_c, 1, 58, 64
1, 717, Note_on_c, 1, 58, 0
1, 720, Note_on_c, 0, 68, 0
1, 720, Note_on_c, 0, 67, 79
1, 765, Note_on_c, 0, 67, 0
1, 768, Note_on_c, 0, 72, 79
1, 813, Note_on_c, 0, 72, 0
1, 816, Note_on_c, 0, 65, 96
1, 816, Note_on_c, 1, 56, 64
1, 864, Note_on_c, 1, 56, 0
1, 864, Note_on_c, 1, 55, 64
1, 909, Note_on_c, 1, 55, 0
1, 912, Note_on_c, 0, 65, 0
1, 912, Note_on_c, 0, 63, 82
1, 957, Note_on_c, 0, 63, 0
1, 960, Note_on_c, 0, 62, 82
1, 1005, Note_on_c, 0, 62, 0
1, 1008, Note_on_c, 0, 68, 99
1, 1008, Note_on_c, 1, 53, 64
1, 1053, Note_on_c, 1, 53, 0
1, 1056, Note_on_c, 1, 50, 64
1, 1101, Note_on_c, 1, 50, 0
1, 1104, Note_on_c, 0, 68, 0
1, 1104, Note_on_c, 0, 67, 85
1, 1104, Note_on_c, 1, 51, 64
1, 1149, Note_on_c, 1, 51, 0
1, 1152, Note_on_c, 1, 46, 64
1, 1197, Note_on_c, 0, 67, 0
1, 1197, Note_on_c, 1, 46, 0
1, 1200, Note_on_c, 0, 65, 79
1, 1200, Note_on_c, 1, 58, 64
1, 1245, Note_on_c, 0, 65, 0
1, 1245, Note_on_c, 1, 58, 0
1, 1248, Note_on_c, 1, 46, 64
1, 1293, Note_on_c, 1, 46, 0
1, 1296, Note_on_c, 0, 70, 77
1, 1344, Note_on_c, 0, 70, 0
1, 1344, Note_on_c, 0, 67, 77
1, 1389, Note_on_c, 0, 67, 0
1, 1392, Note_on_c, 1, 63, 64
1, 1440, Note_on_c, 1, 63, 0
1, 1440, Note_on_c, 1, 67, 64
1, 1485, Note_on_c, 1, 67, 0
1, 1488, Note_on_c, 0, 70, 77
1, 1536, Note_on_c, 0, 70, 0
1, 1536, Note_on_c, 0, 65, 77
1, 1581, Note_on_c, 0, 65, 0
1, 1584, Note_on_c, 1, 62, 64
1, 1632, Note_on_c, 1, 62, 0
1, 1632, Note_on_c, 1, 65, 64
1, 1677, Note_on_c, 1, 65, 0
1, 1680, Note_on_c, 0, 70, 77
1, 1725, Note_on_c, 0, 70, 0
1, 1728, Note_on_c, 0, 69, 79
1, 1773, Note_on_c, 0, 69, 0
1, 1776, Note_on_c, 0, 75, 97
1, 1776, Note_on_c, 1, 60, 64
1, 1824, Note_on_c, 1, 60, 0
1, 1824, Note_on_c, 1, 58, 64
1, 1869, Note_on_c, 1, 58, 0
1, 1872, Note_on_c, 0, 75, 0
1, 1872, Note_on_c, 0, 74, 85
1, 1917, Note_on_c, 0, 74, 0
1, 1920, Note_on_c, 0, 67, 85
1, 1965, Note_on_c, 0, 67, 0
1, 1968, Note_on_c, 0, 72, 101
1, 1968, Note_on_c, 1, 63, 64
1, 2016, Note_on_c, 1, 63, 0
1, 2016, Note_on_c, 1, 62, 64
1, 2061, Note_on_c, 1, 62, 0
1, 2064, Note_on_c, 0, 72, 0
1, 2064, Note_on_c, 0, 70, 85
1, 2109, Note_on_c, 0, 70, 0
1, 2112, Note_on_c, 0, 67, 85
1, 2157, Note_on_c, 0, 67, 0
1, 2160, Note_on_c, 0, 79, 101
1, 2160, Note_on_c, 1, 63, 64
1, 2205, Note_on_c, 1, 63, 0
1, 2208, Note_on_c, 1, 60, 64
1, 2253, Note_on_c, 1, 60, 0
1, 2256, Note_on_c, 0, 79, 0
1, 2256, Note_on_c, 0, 69, 85
1, 2256, Note_on_c, 1, 65, 64
1, 2301, Note_on_c, 0, 69, 0
1, 2301, Note_on_c, 1, 65, 0
1, 2304, Note_on_c, 0, 72, 85
1, 2352, Note_on_c, 0, 72, 0
1, 2352, Note_on_c, 0, 70, 81
1, 2352, Note_on_c, 1, 58, 64
1, 2397, Note_on_c, 0, 70, 0
1, 2397, Note_on_c, 1, 58, 0
1, 2400, Note_on_c, 1, 46, 64
1, 2445, Note_on_c, 1, 46, 0
1, 2448, Note_on_c, 0, 70, 77
1, 2493, Note_on_c, 0, 70, 0
1, 2496, Note_on_c, 0, 67, 77
1, 2541, Note_on_c, 0, 67, 0
1, 2544, Note_on_c, 1, 63, 64
1, 2592, Note_on_c, 1, 63, 0
1, 2592, Note_on_c, 1, 67, 64
1, 2637, Note_on_c, 1, 67, 0
1, 2640, Note_on_c, 0, 70, 77
1, 2688, Note_on_c, 0, 70, 0
1, 2688, Note_on_c, 0, 65, 77
1, 2733, Note_on_c, 0, 65, 0
1, 2736, Note_on_c, 1, 62, 64
1, 2784, Note_on_c, 1, 62, 0
1, 2784, Note_on_c, 1, 65, 64
1, 2829, Note_on_c, 1, 65, 0
1, 2832, Note_on_c, 0, 70, 77
1, 2877, Note_on_c, 0, 70, 0
1, 2880, Note_on_c, 0, 75, 77
1, 2925, Note_on_c, 0, 75, 0
1, 2928, Note_on_c, 0, 68, 93
1, 2928, Note_on_c, 1, 60, 64
1, 2976, Note_on_c, 1, 60, 0
1, 2976, Note_on_c, 1, 58, 64
1, 3021, Note_on_c, 1, 58, 0
1, 3024, Note_on_c, 0, 68, 0
1, 3024, Note_on_c, 0, 67, 79
1, 3069, Note_on_c, 0, 67, 0
1, 3072, Note_on_c, 0, 72, 79
1, 3117, Note_on_c, 0, 72, 0
1, 3120, Note_on_c, 0, 65, 96
1, 3120, Note_on_c, 1, 56, 64
1, 3168, Note_on_c, 1, 56, 0
1, 3168, Note_on_c, 1, 55, 64
1, 3213, Note_on_c, 1, 55, 0
1, 3216, Note_on_c, 0, 65, 0
1, 3216, Note_on_c, 0, 63, 82
1, 3261, Note_on_c, 0, 63, 0
1, 3264, Note_on_c, 0, 62, 82
1, 3309, Note_on_c, 0, 62, 0
1, 3312, Note_on_c, 0, 68, 99
1, 3312, Note_on_c, 1, 53, 64
1, 3357, Note_on_c, 1, 53, 0
1, 3360, Note_on_c, 1, 50, 64
1, 3405, Note_on_c, 1, 50, 0
1, 3408, Note_on_c, 0, 68, 0
1, 3408, Note_on_c, 0, 67, 85
1, 3408, Note_on_c, 1, 51, 64
1, 3453, Note_on_c, 1, 51, 0
1, 3456, Note_on_c, 1, 46, 64
1, 3501, Note_on_c, 0, 67, 0
1, 3501, Note_on_c, 1, 46, 0
1, 3504, Note_on_c, 0, 65, 79
1, 3504, Note_on_c, 1, 58, 64
1, 3549, Note_on_c, 0, 65, 0
1, 3549, Note_on_c, 1, 58, 0
1, 3552, Note_on_c, 1, 46, 64
1, 3597, Note_on_c, 1, 46, 0
1, 3600, Note_on_c, 0, 70, 77
1, 3648, Note_on_c, 0, 70, 0
1, 3648, Note_on_c, 0, 67, 77
1, 3693, Note_on_c, 0, 67, 0
1, 3696, Note_on_c, 1, 63, 64
1, 3744, Note_on_c, 1, 63, 0
1, 3744, Note_on_c, 1, 67, 64
1, 3789, Note_on_c, 1, 67, 0
1, 3792, Note_on_c, 0, 70, 77
1, 3840, Note_on_c, 0, 70, 0
1, 3840, Note_on_c, 0, 65, 77
1, 3885, Note_on_c, 0, 65, 0
1, 3888, Note_on_c, 1, 62, 64
1, 3936, Note_on_c, 1, 62, 0
1, 3936, Note_on_c, 1, 65, 64
1, 3981, Note_on_c, 1, 65, 0
1, 3984, Note_on_c, 0, 70, 77
1, 4029, Note_on_c, 0, 70, 0
1, 4032, Note_on_c, 0, 69, 79
1, 4077, Note_on_c, 0, 69, 0
1, 4080, Note_on_c, 0, 75, 97
1, 4080, Note_on_c, 1, 60, 64
1, 4128, Note_on_c, 1, 60, 0
1, 4128, Note_on_c, 1, 58, 64
1, 4173, Note_on_c, 1, 58, 0
1, 4176, Note_on_c, 0, 75, 0
1, 4176, Note_on_c, 0, 74, 85
1, 4221, Note_on_c, 0, 74, 0
1, 4224, Note_on_c, 0, 67, 85
1, 4269, Note_on_c, 0, 67, 0
1, 4272, Note_on_c, 0, 72, 101
1, 4272, Note_on_c, 1, 63, 64
1, 4320, Note_on_c, 1, 63, 0
1, 4320, Note_on_c, 1, 62, 64
1, 4365, Note_on_c, 1, 62, 0
1, 4368, Note_on_c, 0, 72, 0
1, 4368, Note_on_c, 0, 70, 85
1, 4413, Note_on_c, 0, 70, 0
1, 4416, Note_on_c, 0, 67, 85
1, 4461, Note_on_c, 0, 67, 0
1, 4464, Note_on_c, 0, 79, 101
1, 4464, Note_on_c, 1, 63, 64
1, 4509, Note_on_c, 1, 63, 0
1, 4512, Note_on_c, 1, 60, 64
1, 4557, Note_on_c, 1, 60, 0
1, 4560, Note_on_c, 0, 79, 0
1, 4560, Note_on_c, 0, 69, 85
1, 4560, Note_on_c, 1, 65, 64
1, 4605, Note_on_c, 0, 69, 0
1, 4605, Note_on_c, 1, 65, 0
1, 4608, Note_on_c, 0, 72, 77
1, 4656, Note_on_c, 0, 72, 0
1, 4656, Note_on_c, 0, 70, 73
1, 4656, Note_on_c, 1, 58, 64
1, 4701, Note_on_c, 0, 70, 0
1, 4701, Note_on_c, 1, 58, 0
1, 4704, Note_on_c, 1, 46, 64
1, 4749, Note_on_c, 1, 46, 0
1, 4752, Note_on_c, 0, 74, 70
1, 4800, Note_on_c, 0, 74, 0
1, 4800, Note_on_c, 0, 77, 70
1, 4845, Note_on_c, 0, 77, 0
1, 4848, Note_on_c, 1, 58, 64
1, 4896, Note_on_c, 1, 58, 0
1, 4896, Note_on_c, 1, 62, 64
1, 4941, Note_on_c, 1, 62, 0
1, 4944, Note_on_c, 0, 68, 70
1, 4992, Note_on_c, 0, 68, 0
1, 4992, Note_on_c, 0, 67, 70
1, 5037, Note_on_c, 0, 67, 0
1, 5040, Note_on_c, 1, 63, 64
1, 5088, Note_on_c, 1, 63, 0
1, 5088, Note_on_c, 1, 67, 64
1, 5133, Note_on_c, 1, 67, 0
1, 5136, Note_on_c, 0, 70, 70
1, 5184, Note_on_c, 0, 70, 0
1, 5184, Note_on_c, 0, 72, 70
1, 5229, Note_on_c, 0, 72, 0
1, 5232, Note_on_c, 1, 56, 64
1, 5280, Note_on_c, 1, 56, 0
1, 5280, Note_on_c, 1, 60, 64
1, 5325, Note_on_c, 1, 60, 0
1, 5328, Note_on_c, 0, 63, 70
1, 5376, Note_on_c, 0, 63, 0
1, 5376, Note_on_c, 0, 62, 70
1, 5421, Note_on_c, 0, 62, 0
1, 5424, Note_on_c, 1, 58, 64
1, 5469, Note_on_c, 1, 58, 0
1, 5472, Note_on_c, 1, 46, 64
1, 5517, Note_on_c, 1, 46, 0
1, 5520, Note_on_c, 0, 58, 70
1, 5565, Note_on_c, 0, 58, 0
1, 5568, Note_on_c, 0, 60, 70
1, 5613, Note_on_c, 0, 60, 0
1, 5616, Note_on_c, 0, 65, 86
1, 5616, Note_on_c, 1, 56, 64
1, 5664, Note_on_c, 1, 56, 0
1, 5664, Note_on_c, 1, 53, 64
1, 5709, Note_on_c, 1, 53, 0
1, 5712, Note_on_c, 0, 65, 0
1, 5712, Note_on_c, 0, 63, 71
1, 5757, Note_on_c, 0, 63, 0
1, 5760, Note_on_c, 0, 62, 72
1, 5805, Note_on_c, 0, 62, 0
1, 5808, Note_on_c, 0, 68, 88
1, 5808, Note_on_c, 1, 60, 64
1, 5856, Note_on_c, 1, 60, 0
1, 5856, Note_on_c, 1, 58, 64
1, 5901, Note_on_c, 1, 58, 0
1, 5904, Note_on_c, 0, 68, 0
1, 5904, Note_on_c, 0, 67, 73
1, 5949, Note_on_c, 0, 67, 0
1, 5952, Note_on_c, 0, 65, 73
1, 5997, Note_on_c, 0, 65, 0
1, 6000, Note_on_c, 0, 72, 90
1, 6000, Note_on_c, 1, 68, 64
1, 6048, Note_on_c, 1, 68, 0
1, 6048, Note_on_c, 1, 67, 64
1, 6093, Note_on_c, 1, 67, 0
1, 6096, Note_on_c, 0, 72, 0
1, 6096, Note_on_c, 0, 70, 74
1, 6141, Note_on_c, 0, 70, 0
1, 6144, Note_on_c, 0, 68, 75
1, 6189, Note_on_c, 0, 68, 0
1, 6192, Note_on_c, 0, 80, 91
1, 6192, Note_on_c, 1, 65, 64
1, 6237, Note_on_c, 1, 65, 0
1, 6240, Note_on_c, 1, 62, 64
1, 6285, Note_on_c, 1, 62, 0
1, 6288, Note_on_c, 0, 80, 0
1, 6288, Note_on_c, 0, 79, 76
1, 6288, Note_on_c, 1, 63, 64
1, 6333, Note_on_c, 1, 63, 0
1, 6336, Note_on_c, 1, 56, 64
1, 6381, Note_on_c, 0, 79, 0
1, 6384, Note_on_c, 0, 77, 75
1, 6425, Note_on_c, 1, 56, 0
1, 6429, Note_on_c, 0, 77, 0
1, 6432, Note_on_c, 0, 80, 73
1, 6477, Note_on_c, 0, 80, 0
1, 6480, Note_on_c, 0, 74, 71
1, 6480, Note_on_c, 1, 58, 64
1, 6525, Note_on_c, 0, 74, 0
1, 6525, Note_on_c, 1, 58, 0
1, 6528, Note_on_c, 0, 77, 70
1, 6528, Note_on_c, 1, 51, 64
1, 6573, Note_on_c, 1, 51, 0
1, 6576, Note_on_c, 0, 77, 0
1, 6576, Note_on_c, 0, 75, 70
1, 6576, Note_on_c, 1, 63, 64
1, 6621, Note_on_c, 0, 75, 0
1, 6621, Note_on_c, 1, 63, 0
1, 6624, Note_on_c, 1, 51, 64
1, 6669, Note_on_c, 1, 51, 0
1, 6672, Note_on_c, 0, 74, 70
1, 6717, Note_on_c, 0, 74, 0
1, 6720, Note_on_c, 0, 77, 70
1, 6765, Note_on_c, 0, 77, 0
1, 6768, Note_on_c, 1, 58, 64
1, 6816, Note_on_c, 1, 58, 0
1, 6816, Note_on_c, 1, 62, 64
1, 6861, Note_on_c, 1, 62, 0
1, 6864, Note_on_c, 0, 68, 70
1, 6912, Note_on_c, 0, 68, 0
1, 6912, Note_on_c, 0, 67, 70
1, 6957, Note_on_c, 0, 67, 0
1, 6960, Note_on_c, 1, 63, 64
1, 7008, Note_on_c, 1, 63, 0
1, 7008, Note_on_c, 1, 67, 64
1, 7053, Note_on_c, 1, 67, 0
1, 7056, Note_on_c, 0, 70, 70
1, 7104, Note_on_c, 0, 70, 0
1, 7104, Note_on_c, 0, 72, 70
1, 7149, Note_on_c, 0, 72, 0
1, 7152, Note_on_c, 1, 56, 64
1, 7200, Note_on_c, 1, 56, 0
1, 7200, Note_on_c, 1, 60, 64
1, 7245, Note_on_c, 1, 60, 0
1, 7248, Note_on_c, 0, 63, 70
1, 7296, Note_on_c, 0, 63, 0
1, 7296, Note_on_c, 0, 62, 70
1, 7341, Note_on_c, 0, 62, 0
1, 7344, Note_on_c, 1, 58, 64
1, 7389, Note_on_c, 1, 58, 0
1, 7392, Note_on_c, 1, 46, 64
1, 7437, Note_on_c, 1, 46, 0
1, 7440, Note_on_c, 0, 58, 70
1, 7485, Note_on_c, 0, 58, 0
1, 7488, Note_on_c, 0, 60, 70
1, 7533, Note_on_c, 0, 60, 0
1, 7536, Note_on_c, 0, 65, 86
1, 7536, Note_on_c, 1, 56, 64
1, 7584, Note_on_c, 1, 56, 0
1, 7584, Note_on_c, 1, 53, 64
1, 7629, Note_on_c, 1, 53, 0
1, 7632, Note_on_c, 0, 65, 0
1, 7632, Note_on_c, 0, 63, 71
1, 7677, Note_on_c, 0, 63, 0
1, 7680, Note_on_c, 0, 62, 72
1, 7725, Note_on_c, 0, 62, 0
1, 7728, Note_on_c, 0, 68, 88
1, 7728, Note_on_c, 1, 60, 64
1, 7776, Note_on_c, 1, 60, 0
1, 7776, Note_on_c, 1, 58, 64
1, 7821, Note_on_c, 1, 58, 0
1, 7824, Note_on_c, 0, 68, 0
1, 7824, Note_on_c, 0, 67, 73
1, 7869, Note_on_c, 0, 67, 0
1, 7872, Note_on_c, 0, 65, 73
1, 7917, Note_on_c, 0, 65, 0
1, 7920, Note_on_c, 0, 72, 90
1, 7920, Note_on_c, 1, 68, 64
1, 7968, Note_on_c, 1, 68, 0
1, 7968, Note_on_c, 1, 67, 64
1, 8013, Note_on_c, 1, 67, 0
1, 8016, Note_on_c, 0, 72, 0
1, 8016, Note_on_c, 0, 70, 74
1, 8061, Note_on_c, 0, 70, 0
1, 8064, Note_on_c, 0, 68, 75
1, 8109, Note_on_c, 0, 68, 0
1, 8112, Note_on_c, 0, 80, 91
1, 8112, Note_on_c, 1, 65, 64
1, 8157, Note_on_c, 1, 65, 0
1, 8160, Note_on_c, 1, 62, 64
1, 8205, Note_on_c, 1, 62, 0
1, 8208, Note_on_c, 0, 80, 0
1, 8208, Note_on_c, 0, 79, 76
1, 8208, Note_on_c, 1, 63, 64
1, 8253, Note_on_c, 1, 63, 0
1, 8256, Note_on_c, 1, 56, 64
1, 8301, Note_on_c, 0, 79, 0
1, 8304, Note_on_c, 0, 77, 75
1, 8345, Note_on_c, 1, 56, 0
1, 8349, Note_on_c, 0, 77, 0
1, 8352, Note_on_c, 0, 80, 73
1, 8397, Note_on_c, 0, 80, 0
1, 8400, Note_on_c, 0, 74, 71
1, 8400, Note_on_c, 1, 58, 64
1, 8445, Note_on_c, 0, 74, 0
1, 8445, Note_on_c, 1, 58, 0
1, 8448, Note_on_c, 0, 77, 70
1, 8448, Note_on_c, 1, 51, 64
1, 8493, Note_on_c, 1, 51, 0
1, 8496, Note_on_c, 0, 77, 0
1, 8496, Note_on_c, 0, 75, 70
1, 8496, Note_on_c, 1, 63, 64
1, 8541, Note_on_c, 0, 75, 0
1, 8541, Note_on_c, 1, 63, 0
1, 8544, Note_on_c, 1, 51, 64
1, 8589, Note_on_c, 1, 51, 0
1, 8592, Note_on_c, 0, 70, 70
1, 8612, Note_on_c, 0, 70, 0
1, 8640, Note_on_c, 0, 75, 70
1, 8663, Note_on_c, 0, 75, 0
1, 8664, Note_on_c, 0, 70, 70
1, 8687, Note_on_c, 0, 70, 0
1, 8688, Note_on_c, 0, 67, 70
1, 8711, Note_on_c, 0, 67, 0
1, 8712, Note_on_c, 0, 63, 70
1, 8735, Note_on_c, 0, 63, 0
1, 8736, Note_on_c, 1, 51, 64
1, 8756, Note_on_c, 1, 51, 0
1, 8784, Note_on_c, 0, 67, 70
1, 8804, Note_on_c, 0, 67, 0
1, 8832, Note_on_c, 0, 70, 70
1, 8855, Note_on_c, 0, 70, 0
1, 8856, Note_on_c, 0, 68, 70
1, 8879, Note_on_c, 0, 68, 0
1, 8880, Note_on_c, 0, 65, 70
1, 8903, Note_on_c, 0, 65, 0
1, 8904, Note_on_c, 0, 62, 70
1, 8927, Note_on_c, 0, 62, 0
1, 8928, Note_on_c, 1, 58, 64
1, 8948, Note_on_c, 1, 58, 0
1, 8976, Note_on_c, 0, 70, 70
1, 8996, Note_on_c, 0, 70, 0
1, 9024, Note_on_c, 1, 72, 85
1, 9048, Note_on_c, 0, 75, 85
1, 9071, Note_on_c, 0, 75, 0
1, 9072, Note_on_c, 0, 80, 85
1, 9095, Note_on_c, 0, 80, 0
1, 9096, Note_on_c, 0, 87, 85
1, 9113, Note_on_c, 1, 72, 0
1, 9119, Note_on_c, 0, 87, 0
1, 9120, Note_on_c, 0, 80, 85
1, 9120, Note_on_c, 1, 70, 83
1, 9165, Note_on_c, 0, 80, 0
1, 9168, Note_on_c, 0, 79, 85
1, 9209, Note_on_c, 1, 70, 0
1, 9213, Note_on_c, 0, 79, 0
1, 9216, Note_on_c, 1, 68, 82
1, 9240, Note_on_c, 0, 72, 85
1, 9263, Note_on_c, 0, 72, 0
1, 9264, Note_on_c, 0, 77, 85
1, 9287, Note_on_c, 0, 77, 0
1, 9288, Note_on_c, 0, 84, 85
1, 9305, Note_on_c, 1, 68, 0
1, 9311, Note_on_c, 0, 84, 0
1, 9312, Note_on_c, 0, 77, 85
1, 9312, Note_on_c, 1, 67, 81
1, 9357, Note_on_c, 0, 77, 0
1, 9360, Note_on_c, 0, 75, 85
1, 9401, Note_on_c, 1, 67, 0
1, 9405, Note_on_c, 0, 75, 0
1, 9408, Note_on_c, 1, 65, 80
1, 9432, Note_on_c, 0, 68, 85
1, 9455, Note_on_c, 0, 68, 0
1, 9456, Note_on_c, 0, 74, 85
1, 9479, Note_on_c, 0, 74, 0
1, 9480, Note_on_c, 0, 80, 85
1, 9503, Note_on_c, 0, 80, 0
1, 9504, Note_on_c, 0, 74, 85
1, 9549, Note_on_c, 0, 74, 0
1, 9552, Note_on_c, 0, 75, 83
1, 9552, Note_on_c, 1, 65, 0
1, 9552, Note_on_c, 1, 63, 78
1, 9597, Note_on_c, 0, 75, 0
1, 9597, Note_on_c, 1, 63, 0
1, 9600, Note_on_c, 0, 76, 81
1, 9600, Note_on_c, 1, 62, 78
1, 9648, Note_on_c, 0, 76, 0
1, 9648, Note_on_c, 0, 77, 79
1, 9689, Note_on_c, 1, 62, 0
1, 9693, Note_on_c, 0, 77, 0
1, 9744, Note_on_c, 0, 70, 77
1, 9789, Note_on_c, 0, 70, 0
1, 9792, Note_on_c, 0, 75, 77
1, 9815, Note_on_c, 0, 75, 0
1, 9816, Note_on_c, 0, 70, 77
1, 9839, Note_on_c, 0, 70, 0
1, 9840, Note_on_c, 0, 67, 77
1, 9863, Note_on_c, 0, 67, 0
1, 9864, Note_on_c, 0, 63, 77
1, 9887, Note_on_c, 0, 63, 0
1, 9888, Note_on_c, 1, 51, 77
1, 9908, Note_on_c, 1, 51, 0
1, 9936, Note_on_c, 0, 67, 77
1, 9981, Note_on_c, 0, 67, 0
1, 9984, Note_on_c, 0, 70, 77
1, 10007, Note_on_c, 0, 70, 0
1, 10008, Note_on_c, 0, 68, 77
1, 10031, Note_on_c, 0, 68, 0
1, 10032, Note_on_c, 0, 65, 77
1, 10055, Note_on_c, 0, 65, 0
1, 10056, Note_on_c, 0, 62, 77
1, 10079, Note_on_c, 0, 62, 0
1, 10080, Note_on_c, 1, 58, 77
1, 10100, Note_on_c, 1, 58, 0
1, 10128, Note_on_c, 0, 70, 77
1, 10173, Note_on_c, 0, 70, 0
1, 10176, Note_on_c, 0, 75, 77
1, 10199, Note_on_c, 0, 75, 0
1, 10200, Note_on_c, 0, 69, 77
1, 10223, Note_on_c, 0, 69, 0
1, 10224, Note_on_c, 0, 63, 77
1, 10247, Note_on_c, 0, 63, 0
1, 10248, Note_on_c, 0, 60, 77
1, 10271, Note_on_c, 0, 60, 0
1, 10272, Note_on_c, 1, 53, 77
1, 10292, Note_on_c, 1, 53, 0
1, 10320, Note_on_c, 0, 74, 77
1, 10320, Note_on_c, 0, 70, 77
1, 10340, Note_on_c, 0, 74, 0
1, 10340, Note_on_c, 0, 70, 0
1, 10368, Note_on_c, 0, 75, 77
1, 10391, Note_on_c, 0, 75, 0
1, 10392, Note_on_c, 0, 69, 77
1, 10415, Note_on_c, 0, 69, 0
1, 10416, Note_on_c, 0, 63, 77
1, 10439, Note_on_c, 0, 63, 0
1, 10440, Note_on_c, 0, 60, 77
1, 10463, Note_on_c, 0, 60, 0
1, 10464, Note_on_c, 1, 53, 77
1, 10484, Note_on_c, 1, 53, 0
1, 10512, Note_on_c, 0, 74, 77
1, 10512, Note_on_c, 0, 70, 77
1, 10532, Note_on_c, 0, 74, 0
1, 10532, Note_on_c, 0, 70, 0
1, 10560, Note_on_c, 1, 51, 77
1, 10583, Note_on_c, 1, 51, 0
1, 10584, Note_on_c, 1, 63, 77
1, 10607, Note_on_c, 1, 63, 0
1, 10608, Note_on_c, 0, 67, 77
1, 10631, Note_on_c, 0, 67, 0
1, 10632, Note_on_c, 0, 72, 77
1, 10655, Note_on_c, 0, 72, 0
1, 10656, Note_on_c, 0, 79, 77
1, 10676, Note_on_c, 0, 79, 0
1, 10704, Note_on_c, 0, 69, 77
1, 10704, Note_on_c, 0, 63, 77
1, 10704, Note_on_c, 1, 53, 77
1, 10749, Note_on_c, 0, 69, 0
1, 10749, Note_on_c, 0, 63, 0
1, 10749, Note_on_c, 1, 53, 0
1, 10752, Note_on_c, 0, 70, 77
1, 10752, Note_on_c, 0, 62, 77
1, 10752, Note_on_c, 1, 46, 77
1, 10797, Note_on_c, 1, 46, 0
1, 10800, Note_on_c, 1, 58, 77
1, 10841, Note_on_c, 0, 70, 0
1, 10841, Note_on_c, 0, 62, 0
1, 10845, Note_on_c, 1, 58, 0
1, 10848, Note_on_c, 1, 46, 77
1, 10893, Note_on_c, 1, 46, 0
1, 10896, Note_on_c, 0, 70, 77
1, 10916, Note_on_c, 0, 70, 0
1, 10944, Note_on_c, 0, 75, 70
1, 10967, Note_on_c, 0, 75, 0
1, 10968, Note_on_c, 0, 70, 70
1, 10991, Note_on_c, 0, 70, 0
1, 10992, Note_on_c, 0, 67, 70
1, 11015, Note_on_c, 0, 67, 0
1, 11016, Note_on_c, 0, 63, 70
1, 11039, Note_on_c, 0, 63, 0
1, 11040, Note_on_c, 1, 51, 64
1, 11060, Note_on_c, 1, 51, 0
1, 11088, Note_on_c, 0, 67, 70
1, 11108, Note_on_c, 0, 67, 0
1, 11136, Note_on_c, 0, 70, 70
1, 11159, Note_on_c, 0, 70, 0
1, 11160, Note_on_c, 0, 68, 70
1, 11183, Note_on_c, 0, 68, 0
1, 11184, Note_on_c, 0, 65, 70
1, 11207, Note_on_c, 0, 65, 0
1, 11208, Note_on_c, 0, 62, 70
1, 11231, Note_on_c, 0, 62, 0
1, 11232, Note_on_c, 1, 58, 64
1, 11252, Note_on_c, 1, 58, 0
1, 11280, Note_on_c, 0, 70, 70
1, 11300, Note_on_c, 0, 70, 0
1, 11328, Note_on_c, 1, 72, 85
1, 11352, Note_on_c, 0, 75, 85
1, 11375, Note_on_c, 0, 75, 0
1, 11376, Note_on_c, 0, 80, 85
1, 11399, Note_on_c, 0, 80, 0
1, 11400, Note_on_c, 0, 87, 85
1, 11417, Note_on_c, 1, 72, 0
1, 11423, Note_on_c, 0, 87, 0
1, 11424, Note_on_c, 0, 80, 85
1, 11424, Note_on_c, 1, 70, 83
1, 11469, Note_on_c, 0, 80, 0
1, 11472, Note_on_c, 0, 79, 85
1, 11513, Note_on_c, 1, 70, 0
1, 11517, Note_on_c, 0, 79, 0
1, 11520, Note_on_c, 1, 68, 82
1, 11544, Note_on_c, 0, 72, 85
1, 11567, Note_on_c, 0, 72, 0
1, 11568, Note_on_c, 0, 77, 85
1, 11591, Note_on_c, 0, 77, 0
1, 11592, Note_on_c, 0, 84, 85
1, 11609, Note_on_c, 1, 68, 0
1, 11615, Note_on_c, 0, 84, 0
1, 11616, Note_on_c, 0, 77, 85
1, 11616, Note_on_c, 1, 67, 81
1, 11661, Note_on_c, 0, 77, 0
1, 11664, Note_on_c, 0, 75, 85
1, 11705, Note_on_c, 1, 67, 0
1, 11709, Note_on_c, 0, 75, 0
1, 11712, Note_on_c, 1, 65, 80
1, 11736, Note_on_c, 0, 68, 85
1, 11759, Note_on_c, 0, 68, 0
1, 11760, Note_on_c, 0, 74, 85
1, 11783, Note_on_c, 0, 74, 0
1, 11784, Note_on_c, 0, 80, 85
1, 11807, Note_on_c, 0, 80, 0
1, 11808, Note_on_c, 0, 74, 85
1, 11853, Note_on_c, 0, 74, 0
1, 11856, Note_on_c, 0, 75, 83
1, 11856, Note_on_c, 1, 65, 0
1, 11856, Note_on_c, 1, 63, 78
1, 11901, Note_on_c, 0, 75, 0
1, 11901, Note_on_c, 1, 63, 0
1, 11904, Note_on_c, 0, 76, 81
1, 11904, Note_on_c, 1, 62, 78
1, 11952, Note_on_c, 0, 76, 0
1, 11952, Note_on_c, 0, 77, 79
1, 11993, Note_on_c, 1, 62, 0
1, 11997, Note_on_c, 0, 77, 0
1, 12048, Note_on_c, 0, 70, 77
1, 12093, Note_on_c, 0, 70, 0
1, 12096, Note_on_c, 0, 75, 77
1, 12119, Note_on_c, 0, 75, 0
1, 12120, Note_on_c, 0, 70, 77
1, 12143, Note_on_c, 0, 70, 0
1, 12144, Note_on_c, 0, 67, 77
1, 12167, Note_on_c, 0, 67, 0
1, 12168, Note_on_c, 0, 63, 77
1, 12191, Note_on_c, 0, 63, 0
1, 12192, Note_on_c, 1, 51, 77
1, 12212, Note_on_c, 1, 51, 0
1, 12240, Note_on_c, 0, 67, 77
1, 12285, Note_on_c, 0, 67, 0
1, 12288, Note_on_c, 0, 70, 77
1, 12311, Note_on_c, 0, 70, 0
1, 12312, Note_on_c, 0, 68, 77
1, 12335, Note_on_c, 0, 68, 0
1, 12336, Note_on_c, 0, 65, 77
1, 12359, Note_on_c, 0, 65, 0
1, 12360, Note_on_c, 0, 62, 77
1, 12383, Note_on_c, 0, 62, 0
1, 12384, Note_on_c, 1, 58, 77
1, 12404, Note_on_c, 1, 58, 0
1, 12432, Note_on_c, 0, 70, 77
1, 12477, Note_on_c, 0, 70, 0
1, 12480, Note_on_c, 0, 75, 77
1, 12503, Note_on_c, 0, 75, 0
1, 12504, Note_on_c, 0, 69, 77
1, 12527, Note_on_c, 0, 69, 0
1, 12528, Note_on_c, 0, 63, 77
1, 12551, Note_on_c, 0, 63, 0
1, 12552, Note_on_c, 0, 60, 77
1, 12575, Note_on_c, 0, 60, 0
1, 12576, Note_on_c, 1, 53, 77
1, 12596, Note_on_c, 1, 53, 0
1, 12624, Note_on_c, 0, 74, 77
1, 12624, Note_on_c, 0, 70, 77
1, 12644, Note_on_c, 0, 74, 0
1, 12644, Note_on_c, 0, 70, 0
1, 12672, Note_on_c, 0, 75, 77
1, 12695, Note_on_c, 0, 75, 0
1, 12696, Note_on_c, 0, 69, 77
1, 12719, Note_on_c, 0, 69, 0
1, 12720, Note_on_c, 0, 63, 77
1, 12743, Note_on_c, 0, 63, 0
1, 12744, Note_on_c, 0, 60, 77
1, 12767, Note_on_c, 0, 60, 0
1, 12768, Note_on_c, 1, 53, 77
1, 12788, Note_on_c, 1, 53, 0
1, 12816, Note_on_c, 0, 74, 77
1, 12816, Note_on_c, 0, 70, 77
1, 12836, Note_on_c, 0, 74, 0
1, 12836, Note_on_c, 0, 70, 0
1, 12864, Note_on_c, 1, 51, 77
1, 12887, Note_on_c, 1, 51, 0
1, 12888, Note_on_c, 1, 63, 77
1, 12911, Note_on_c, 1, 63, 0
1, 12912, Note_on_c, 0, 67, 77
1, 12935, Note_on_c, 0, 67, 0
1, 12936, Note_on_c, 0, 72, 77
1, 12959, Note_on_c, 0, 72, 0
1, 12960, Note_on_c, 0, 79, 77
1, 12980, Note_on_c, 0, 79, 0
1, 13008, Note_on_c, 0, 69, 77
1, 13008, Note_on_c, 0, 63, 77
1, 13008, Note_on_c, 1, 53, 77
1, 13053, Note_on_c, 0, 69, 0
1, 13053, Note_on_c, 0, 63, 0
1, 13053, Note_on_c, 1, 53, 0
1, 13056, Note_on_c, 0, 70, 77
1, 13056, Note_on_c, 0, 62, 77
1, 13056, Note_on_c, 1, 46, 77
1, 13101, Note_on_c, 1, 46, 0
1, 13104, Note_on_c, 1, 58, 77
1, 13145, Note_on_c, 0, 70, 0
1, 13145, Note_on_c, 0, 62, 0
1, 13149, Note_on_c, 1, 58, 0
1, 13152, Note_on_c, 1, 46, 77
1, 13197, Note_on_c, 1, 46, 0
1, 13200, Note_on_c, 0, 74, 77
1, 13223, Note_on_c, 0, 74, 0
1, 13224, Note_on_c, 0, 68, 77
1, 13247, Note_on_c, 0, 68, 0
1, 13248, Note_on_c, 0, 77, 77
1, 13271, Note_on_c, 0, 77, 0
1, 13272, Note_on_c, 0, 74, 77
1, 13295, Note_on_c, 0, 74, 0
1, 13296, Note_on_c, 0, 68, 77
1, 13319, Note_on_c, 0, 68, 0
1, 13320, Note_on_c, 0, 65, 77
1, 13343, Note_on_c, 0, 65, 0
1, 13344, Note_on_c, 1, 58, 77
1, 13364, Note_on_c, 1, 58, 0
1, 13392, Note_on_c, 0, 68, 77
1, 13415, Note_on_c, 0, 68, 0
1, 13416, Note_on_c, 0, 65, 77
1, 13439, Note_on_c, 0, 65, 0
1, 13440, Note_on_c, 0, 67, 77
1, 13463, Note_on_c, 0, 67, 0
1, 13464, Note_on_c, 0, 63, 77
1, 13487, Note_on_c, 0, 63, 0
1, 13488, Note_on_c, 0, 58, 77
1, 13511, Note_on_c, 0, 58, 0
1, 13512, Note_on_c, 0, 55, 77
1, 13535, Note_on_c, 0, 55, 0
1, 13536, Note_on_c, 1, 51, 77
1, 13556, Note_on_c, 1, 51, 0
1, 13584, Note_on_c, 0, 70, 77
1, 13607, Note_on_c, 0, 70, 0
1, 13608, Note_on_c, 0, 67, 77
1, 13631, Note_on_c, 0, 67, 0
1, 13632, Note_on_c, 0, 72, 77
1, 13655, Note_on_c, 0, 72, 0
1, 13656, Note_on_c, 0, 68, 77
1, 13679, Note_on_c, 0, 68, 0
1, 13680, Note_on_c, 0, 65, 77
1, 13703, Note_on_c, 0, 65, 0
1, 13704, Note_on_c, 0, 60, 77
1, 13727, Note_on_c, 0, 60, 0
1, 13728, Note_on_c, 1, 56, 77
1, 13748, Note_on_c, 1, 56, 0
1, 13776, Note_on_c, 0, 63, 77
1, 13799, Note_on_c, 0, 63, 0
1, 13800, Note_on_c, 0, 60, 77
1, 13823, Note_on_c, 0, 60, 0
1, 13824, Note_on_c, 0, 62, 77
1, 13847, Note_on_c, 0, 62, 0
1, 13848, Note_on_c, 0, 58, 77
1, 13871, Note_on_c, 0, 58, 0
1, 13872, Note_on_c, 1, 53, 77
1, 13895, Note_on_c, 1, 53, 0
1, 13896, Note_on_c, 1, 50, 77
1, 13919, Note_on_c, 1, 50, 0
1, 13920, Note_on_c, 1, 46, 77
1, 13965, Note_on_c, 1, 46, 0
1, 13968, Note_on_c, 1, 34, 77
1, 14013, Note_on_c, 1, 34, 0
1, 14016, Note_on_c, 1, 56, 77
1, 14040, Note_on_c, 0, 60, 77
1, 14063, Note_on_c, 0, 60, 0
1, 14064, Note_on_c, 0, 65, 77
1, 14087, Note_on_c, 0, 65, 0
1, 14088, Note_on_c, 0, 72, 77
1, 14111, Note_on_c, 0, 72, 0
1, 14112, Note_on_c, 0, 62, 77
1, 14149, Note_on_c, 1, 56, 0
1, 14160, Note_on_c, 0, 62, 0
1, 14160, Note_on_c, 0, 63, 78
1, 14160, Note_on_c, 1, 55, 78
1, 14205, Note_on_c, 0, 63, 0
1, 14205, Note_on_c, 1, 55, 0
1, 14208, Note_on_c, 1, 60, 79
1, 14232, Note_on_c, 0, 63, 78
1, 14255, Note_on_c, 0, 63, 0
1, 14256, Note_on_c, 0, 68, 78
1, 14279, Note_on_c, 0, 68, 0
1, 14280, Note_on_c, 0, 75, 79
1, 14303, Note_on_c, 0, 75, 0
1, 14304, Note_on_c, 0, 68, 79
1, 14341, Note_on_c, 1, 60, 0
1, 14352, Note_on_c, 0, 68, 0
1, 14352, Note_on_c, 0, 67, 79
1, 14352, Note_on_c, 1, 58, 80
1, 14397, Note_on_c, 0, 67, 0
1, 14397, Note_on_c, 1, 58, 0
1, 14400, Note_on_c, 1, 68, 81
1, 14424, Note_on_c, 0, 72, 80
1, 14447, Note_on_c, 0, 72, 0
1, 14448, Note_on_c, 0, 77, 80
1, 14471, Note_on_c, 0, 77, 0
1, 14472, Note_on_c, 0, 84, 80
1, 14495, Note_on_c, 0, 84, 0
1, 14496, Note_on_c, 0, 74, 81
1, 14533, Note_on_c, 1, 68, 0
1, 14544, Note_on_c, 0, 74, 0
1, 14544, Note_on_c, 0, 75, 81
1, 14544, Note_on_c, 1, 67, 82
1, 14589, Note_on_c, 0, 75, 0
1, 14589, Note_on_c, 1, 67, 0
1, 14592, Note_on_c, 1, 65, 83
1, 14616, Note_on_c, 0, 68, 82
1, 14639, Note_on_c, 0, 68, 0
1, 14640, Note_on_c, 0, 77, 82
1, 14663, Note_on_c, 0, 77, 0
1, 14664, Note_on_c, 0, 80, 82
1, 14687, Note_on_c, 0, 80, 0
1, 14688, Note_on_c, 0, 78, 82
1, 14725, Note_on_c, 1, 65, 0
1, 14736, Note_on_c, 0, 78, 0
1, 14736, Note_on_c, 0, 79, 83
1, 14736, Note_on_c, 1, 63, 84
1, 14781, Note_on_c, 0, 79, 0
1, 14781, Note_on_c, 1, 63, 0
1, 14784, Note_on_c, 0, 56, 83
1, 14807, Note_on_c, 0, 56, 0
1, 14808, Note_on_c, 0, 65, 83
1, 14831, Note_on_c, 0, 65, 0
1, 14832, Note_on_c, 0, 72, 84
1, 14855, Note_on_c, 0, 72, 0
1, 14856, Note_on_c, 0, 77, 84
1, 14879, Note_on_c, 0, 77, 0
1, 14880, Note_on_c, 0, 84, 84
1, 14900, Note_on_c, 0, 84, 0
1, 14928, Note_on_c, 0, 74, 77
1, 14928, Note_on_c, 0, 68, 77
1, 14928, Note_on_c, 1, 58, 77
1, 14973, Note_on_c, 0, 74, 0
1, 14973, Note_on_c, 0, 68, 0
1, 14973, Note_on_c, 1, 58, 0
1, 14976, Note_on_c, 0, 75, 77
1, 14976, Note_on_c, 0, 67, 77
1, 14976, Note_on_c, 1, 51, 77
1, 15021, Note_on_c, 1, 51, 0
1, 15024, Note_on_c, 1, 63, 77
1, 15065, Note_on_c, 0, 75, 0
1, 15065, Note_on_c, 0, 67, 0
1, 15069, Note_on_c, 1, 63, 0
1, 15072, Note_on_c, 1, 51, 77
1, 15117, Note_on_c, 1, 51, 0
1, 15120, Note_on_c, 0, 74, 77
1, 15143, Note_on_c, 0, 74, 0
1, 15144, Note_on_c, 0, 68, 77
1, 15167, Note_on_c, 0, 68, 0
1, 15168, Note_on_c, 0, 77, 77
1, 15191, Note_on_c, 0, 77, 0
1, 15192, Note_on_c, 0, 74, 77
1, 15215, Note_on_c, 0, 74, 0
1, 15216, Note_on_c, 0, 68, 77
1, 15239, Note_on_c, 0, 68, 0
1, 15240, Note_on_c, 0, 65, 77
1, 15263, Note_on_c, 0, 65, 0
1, 15264, Note_on_c, 1, 58, 77
1, 15284, Note_on_c, 1, 58, 0
1, 15312, Note_on_c, 0, 68, 77
1, 15335, Note_on_c, 0, 68, 0
1, 15336, Note_on_c, 0, 65, 77
1, 15359, Note_on_c, 0, 65, 0
1, 15360, Note_on_c, 0, 67, 77
1, 15383, Note_on_c, 0, 67, 0
1, 15384, Note_on_c, 0, 63, 77
1, 15407, Note_on_c, 0, 63, 0
1, 15408, Note_on_c, 0, 58, 77
1, 15431, Note_on_c, 0, 58, 0
1, 15432, Note_on_c, 0, 55, 77
1, 15455, Note_on_c, 0, 55, 0
1, 15456, Note_on_c, 1, 51, 77
1, 15476, Note_on_c, 1, 51, 0
1, 15504, Note_on_c, 0, 70, 77
1, 15527, Note_on_c, 0, 70, 0
1, 15528, Note_on_c, 0, 67, 77
1, 15551, Note_on_c, 0, 67, 0
1, 15552, Note_on_c, 0, 72, 77
1, 15575, Note_on_c, 0, 72, 0
1, 15576, Note_on_c, 0, 68, 77
1, 15599, Note_on_c, 0, 68, 0
1, 15600, Note_on_c, 0, 65, 77
1, 15623, Note_on_c, 0, 65, 0
1, 15624, Note_on_c, 0, 60, 77
1, 15647, Note_on_c, 0, 60, 0
1, 15648, Note_on_c, 1, 56, 77
1, 15668, Note_on_c, 1, 56, 0
1, 15696, Note_on_c, 0, 63, 77
1, 15719, Note_on_c, 0, 63, 0
1, 15720, Note_on_c, 0, 60, 77
1, 15743, Note_on_c, 0, 60, 0
1, 15744, Note_on_c, 0, 62, 77
1, 15767, Note_on_c, 0, 62, 0
1, 15768, Note_on_c, 0, 58, 77
1, 15791, Note_on_c, 0, 58, 0
1, 15792, Note_on_c, 1, 53, 77
1, 15815, Note_on_c, 1, 53, 0
1, 15816, Note_on_c, 1, 50, 77
1, 15839, Note_on_c, 1, 50, 0
1, 15840, Note_on_c, 1, 46, 77
1, 15885, Note_on_c, 1, 46, 0
1, 15888, Note_on_c, 1, 34, 77
1, 15933, Note_on_c, 1, 34, 0
1, 15936, Note_on_c, 1, 56, 77
1, 15960, Note_on_c, 0, 60, 77
1, 15983, Note_on_c, 0, 60, 0
1, 15984, Note_on_c, 0, 65, 77
1, 16007, Note_on_c, 0, 65, 0
1, 16008, Note_on_c, 0, 72, 77
1, 16031, Note_on_c, 0, 72, 0
1, 16032, Note_on_c, 0, 62, 77
1, 16069, Note_on_c, 1, 56, 0
1, 16080, Note_on_c, 0, 62, 0
1, 16080, Note_on_c, 0, 63, 78
1, 16080, Note_on_c, 1, 55, 78
1, 16125, Note_on_c, 0, 63, 0
1, 16125, Note_on_c, 1, 55, 0
1, 16128, Note_on_c, 1, 60, 79
1, 16152, Note_on_c, 0, 63, 78
1, 16175, Note_on_c, 0, 63, 0
1, 16176, Note_on_c, 0, 68, 78
1, 16199, Note_on_c, 0, 68, 0
1, 16200, Note_on_c, 0, 75, 79
1, 16223, Note_on_c, 0, 75, 0
1, 16224, Note_on_c, 0, 68, 79
1, 16261, Note_on_c, 1, 60, 0
1, 16272, Note_on_c, 0, 68, 0
1, 16272, Note_on_c, 0, 67, 79
1, 16272, Note_on_c, 1, 58, 80
1, 16317, Note_on_c, 0, 67, 0
1, 16317, Note_on_c, 1, 58, 0
1, 16320, Note_on_c, 1, 68, 81
1, 16344, Note_on_c, 0, 72, 80
1, 16367, Note_on_c, 0, 72, 0
1, 16368, Note_on_c, 0, 77, 80
1, 16391, Note_on_c, 0, 77, 0
1, 16392, Note_on_c, 0, 84, 80
1, 16415, Note_on_c, 0, 84, 0
1, 16416, Note_on_c, 0, 74, 81
1, 16453, Note_on_c, 1, 68, 0
1, 16464, Note_on_c, 0, 74, 0
1, 16464, Note_on_c, 0, 75, 81
1, 16464, Note_on_c, 1, 67, 82
1, 16509, Note_on_c, 0, 75, 0
1, 16509, Note_on_c, 1, 67, 0
1, 16512, Note_on_c, 1, 65, 83
1, 16536, Note_on_c, 0, 68, 82
1, 16559, Note_on_c, 0, 68, 0
1, 16560, Note_on_c, 0, 77, 82
1, 16583, Note_on_c, 0, 77, 0
1, 16584, Note_on_c, 0, 80, 82
1, 16607, Note_on_c, 0, 80, 0
1, 16608, Note_on_c, 0, 78, 82
1, 16645, Note_on_c, 1, 65, 0
1, 16656, Note_on_c, 0, 78, 0
1, 16656, Note_on_c, 0, 79, 83
1, 16656, Note_on_c, 1, 63, 84
1, 16701, Note_on_c, 0, 79, 0
1, 16701, Note_on_c, 1, 63, 0
1, 16704, Note_on_c, 0, 56, 83
1, 16727, Note_on_c, 0, 56, 0
1, 16728, Note_on_c, 0, 65, 83
1, 16751, Note_on_c, 0, 65, 0
1, 16752, Note_on_c, 0, 72, 84
1, 16775, Note_on_c, 0, 72, 0
1, 16776, Note_on_c, 0, 77, 84
1, 16799, Note_on_c, 0, 77, 0
1, 16800, Note_on_c, 0, 84, 84
1, 16820, Note_on_c, 0, 84, 0
1, 16848, Note_on_c, 0, 74, 77
1, 16848, Note_on_c, 0, 68, 77
1, 16848, Note_on_c, 1, 58, 77
1, 16893, Note_on_c, 0, 74, 0
1, 16893, Note_on_c, 0, 68, 0
1, 16893, Note_on_c, 1, 58, 0
1, 16896, Note_on_c, 0, 75, 77
1, 16896, Note_on_c, 0, 67, 77
1, 16896, Note_on_c, 1, 51, 77
1, 16941, Note_on_c, 1, 51, 0
1, 16944, Note_on_c, 1, 63, 77
1, 16985, Note_on_c, 0, 75, 0
1, 16985, Note_on_c, 0, 67, 0
1, 16989, Note_on_c, 1, 63, 0
1, 16992, Note_on_c, 1, 51, 77
1, 17037, Note_on_c, 1, 51, 0
1, 17040, Note_on_c, 0, 82, 77
1, 17055, Note_on_c, 0, 82, 0
1, 17056, Note_on_c, 0, 84, 77
1, 17071, Note_on_c, 0, 84, 0
1, 17072, Note_on_c, 0, 82, 77
1, 17087, Note_on_c, 0, 82, 0
1, 17088, Note_on_c, 0, 79, 77
1, 17133, Note_on_c, 0, 79, 0
1, 17136, Note_on_c, 1, 70, 77
1, 17136, Note_on_c, 1, 63, 77
1, 17156, Note_on_c, 1, 70, 0
1, 17156, Note_on_c, 1, 63, 0
1, 17184, Note_on_c, 1, 70, 77
1, 17184, Note_on_c, 1, 63, 77
1, 17229, Note_on_c, 1, 70, 0
1, 17229, Note_on_c, 1, 63, 0
1, 17232, Note_on_c, 0, 82, 77
1, 17247, Note_on_c, 0, 82, 0
1, 17248, Note_on_c, 0, 84, 77
1, 17263, Note_on_c, 0, 84, 0
1, 17264, Note_on_c, 0, 82, 77
1, 17279, Note_on_c, 0, 82, 0
1, 17280, Note_on_c, 0, 77, 77
1, 17325, Note_on_c, 0, 77, 0
1, 17328, Note_on_c, 1, 70, 77
1, 17328, Note_on_c, 1, 62, 77
1, 17348, Note_on_c, 1, 70, 0
1, 17348, Note_on_c, 1, 62, 0
1, 17376, Note_on_c, 1, 70, 77
1, 17376, Note_on_c, 1, 62, 77
1, 17421, Note_on_c, 1, 70, 0
1, 17421, Note_on_c, 1, 62, 0
1, 17424, Note_on_c, 0, 82, 77
1, 17439, Note_on_c, 0, 82, 0
1, 17440, Note_on_c, 0, 84, 77
1, 17455, Note_on_c, 0, 84, 0
1, 17456, Note_on_c, 0, 82, 77
1, 17471, Note_on_c, 0, 82, 0
1, 17472, Note_on_c, 0, 87, 77
1, 17517, Note_on_c, 0, 87, 0
1, 17520, Note_on_c, 0, 80, 77
1, 17520, Note_on_c, 1, 75, 70
1, 17520, Note_on_c, 1, 72, 70
1, 17540, Note_on_c, 1, 75, 0
1, 17540, Note_on_c, 1, 72, 0
1, 17565, Note_on_c, 0, 80, 0
1, 17568, Note_on_c, 0, 82, 77
1, 17568, Note_on_c, 1, 75, 70
1, 17568, Note_on_c, 1, 72, 70
1, 17586, Note_on_c, 0, 82, 0
1, 17586, Note_on_c, 0, 80, 77
1, 17613, Note_on_c, 0, 80, 0
1, 17616, Note_on_c, 0, 79, 77
1, 17616, Note_on_c, 1, 75, 0
1, 17616, Note_on_c, 1, 72, 0
1, 17616, Note_on_c, 1, 74, 70
1, 17616, Note_on_c, 1, 70, 70
1, 17661, Note_on_c, 0, 79, 0
1, 17661, Note_on_c, 1, 74, 0
1, 17661, Note_on_c, 1, 70, 0
1, 17664, Note_on_c, 0, 84, 78
1, 17709, Note_on_c, 0, 84, 0
1, 17712, Note_on_c, 0, 77, 79
1, 17712, Note_on_c, 1, 72, 70
1, 17712, Note_on_c, 1, 68, 70
1, 17732, Note_on_c, 1, 72, 0
1, 17732, Note_on_c, 1, 68, 0
1, 17757, Note_on_c, 0, 77, 0
1, 17760, Note_on_c, 0, 79, 80
1, 17760, Note_on_c, 1, 72, 70
1, 17760, Note_on_c, 1, 68, 70
1, 17778, Note_on_c, 0, 79, 0
1, 17778, Note_on_c, 0, 77, 80
1, 17805, Note_on_c, 0, 77, 0
1, 17808, Note_on_c, 0, 75, 81
1, 17808, Note_on_c, 1, 72, 0
1, 17808, Note_on_c, 1, 68, 0
1, 17808, Note_on_c, 1, 70, 70
1, 17808, Note_on_c, 1, 67, 70
1, 17853, Note_on_c, 0, 75, 0
1, 17853, Note_on_c, 1, 70, 0
1, 17853, Note_on_c, 1, 67, 0
1, 17856, Note_on_c, 0, 74, 82
1, 17901, Note_on_c, 0, 74, 0
1, 17904, Note_on_c, 0, 80, 99
1, 17904, Note_on_c, 0, 77, 99
1, 17904, Note_on_c, 1, 62, 77
1, 17952, Note_on_c, 1, 62, 0
1, 17952, Note_on_c, 1, 63, 77
1, 17997, Note_on_c, 1, 63, 0
1, 18000, Note_on_c, 0, 80, 0
1, 18000, Note_on_c, 0, 77, 0
1, 18000, Note_on_c, 0, 79, 85
1, 18000, Note_on_c, 0, 75, 85
1, 18000, Note_on_c, 1, 57, 77
1, 18045, Note_on_c, 1, 57, 0
1, 18048, Note_on_c, 1, 58, 77
1, 18093, Note_on_c, 0, 79, 0
1, 18093, Note_on_c, 0, 75, 0
1, 18096, Note_on_c, 0, 77, 79
1, 18096, Note_on_c, 0, 74, 79
1, 18137, Note_on_c, 1, 58, 0
1, 18141, Note_on_c, 0, 77, 0
1, 18141, Note_on_c, 0, 74, 0
1, 18192, Note_on_c, 0, 58, 77
1, 18207, Note_on_c, 0, 58, 0
1, 18208, Note_on_c, 0, 60, 77
1, 18223, Note_on_c, 0, 60, 0
1, 18224, Note_on_c, 0, 58, 77
1, 18239, Note_on_c, 0, 58, 0
1, 18240, Note_on_c, 0, 55, 77
1, 18288, Note_on_c, 1, 46, 77
1, 18288, Note_on_c, 1, 39, 77
1, 18308, Note_on_c, 1, 46, 0
1, 18308, Note_on_c, 1, 39, 0
1, 18329, Note_on_c, 0, 55, 0
1, 18336, Note_on_c, 1, 46, 77
1, 18336, Note_on_c, 1, 39, 77
1, 18381, Note_on_c, 1, 46, 0
1, 18381, Note_on_c, 1, 39, 0
1, 18384, Note_on_c, 0, 58, 77
1, 18399, Note_on_c, 0, 58, 0
1, 18400, Note_on_c, 0, 60, 77
1, 18415, Note_on_c, 0, 60, 0
1, 18416, Note_on_c, 0, 58, 77
1, 18431, Note_on_c, 0, 58, 0
1, 18432, Note_on_c, 0, 53, 77
1, 18480, Note_on_c, 1, 46, 77
1, 18480, Note_on_c, 1, 38, 77
1, 18500, Note_on_c, 1, 46, 0
1, 18500, Note_on_c, 1, 38, 0
1, 18521, Note_on_c, 0, 53, 0
1, 18528, Note_on_c, 1, 46, 77
1, 18528, Note_on_c, 1, 38, 77
1, 18573, Note_on_c, 1, 46, 0
1, 18573, Note_on_c, 1, 38, 0
1, 18576, Note_on_c, 0, 58, 77
1, 18591, Note_on_c, 0, 58, 0
1, 18592, Note_on_c, 0, 60, 77
1, 18607, Note_on_c, 0, 60, 0
1, 18608, Note_on_c, 0, 58, 77
1, 18623, Note_on_c, 0, 58, 0
1, 18624, Note_on_c, 0, 57, 77
1, 18624, Note_on_c, 1, 47, 85
1, 18624, Note_on_c, 1, 35, 85
1, 18669, Note_on_c, 0, 57, 0
1, 18672, Note_on_c, 0, 63, 94
1, 18720, Note_on_c, 1, 47, 0
1, 18720, Note_on_c, 1, 35, 0
1, 18720, Note_on_c, 1, 46, 85
1, 18720, Note_on_c, 1, 34, 85
1, 18768, Note_on_c, 0, 63, 0
1, 18768, Note_on_c, 0, 62, 80
1, 18809, Note_on_c, 1, 46, 0
1, 18809, Note_on_c, 1, 34, 0
1, 18813, Note_on_c, 0, 62, 0
1, 18816, Note_on_c, 0, 58, 81
1, 18816, Note_on_c, 1, 51, 85
1, 18816, Note_on_c, 1, 39, 85
1, 18861, Note_on_c, 0, 58, 0
1, 18864, Note_on_c, 0, 67, 98
1, 18912, Note_on_c, 1, 51, 0
1, 18912, Note_on_c, 1, 39, 0
1, 18912, Note_on_c, 1, 50, 85
1, 18912, Note_on_c, 1, 38, 85
1, 18960, Note_on_c, 0, 67, 0
1, 18960, Note_on_c, 0, 65, 85
1, 19001, Note_on_c, 1, 50, 0
1, 19001, Note_on_c, 1, 38, 0
1, 19005, Note_on_c, 0, 65, 0
1, 19008, Note_on_c, 0, 65, 83
1, 19008, Note_on_c, 1, 51, 85
1, 19008, Note_on_c, 1, 39, 85
1, 19056, Note_on_c, 0, 65, 0
1, 19056, Note_on_c, 0, 63, 81
1, 19101, Note_on_c, 0, 63, 0
1, 19104, Note_on_c, 0, 62, 80
1, 19104, Note_on_c, 1, 51, 0
1, 19104, Note_on_c, 1, 39, 0
1, 19104, Note_on_c, 1, 53, 85
1, 19104, Note_on_c, 1, 41, 85
1, 19152, Note_on_c, 0, 62, 0
1, 19152, Note_on_c, 0, 60, 78
1, 19193, Note_on_c, 1, 53, 0
1, 19193, Note_on_c, 1, 41, 0
1, 19197, Note_on_c, 0, 60, 0
1, 19200, Note_on_c, 0, 61, 93
1, 19200, Note_on_c, 0, 61, 64
1, 19200, Note_on_c, 1, 46, 85
1, 19245, Note_on_c, 0, 61, 0
1, 19248, Note_on_c, 0, 61, 0
1, 19248, Note_on_c, 0, 62, 77
1, 19248, Note_on_c, 0, 62, 64
1, 19289, Note_on_c, 1, 46, 0
1, 19293, Note_on_c, 0, 62, 0
1, 19293, Note_on_c, 0, 62, 0
1, 19296, Note_on_c, 1, 34, 77
1, 19341, Note_on_c, 1, 34, 0
1, 19344, Note_on_c, 0, 82, 64
1, 19359, Note_on_c, 0, 82, 0
1, 19360, Note_on_c, 0, 84, 64
1, 19375, Note_on_c, 0, 84, 0
1, 19376, Note_on_c, 0, 82, 64
1, 19391, Note_on_c, 0, 82, 0
1, 19392, Note_on_c, 0, 79, 77
1, 19437, Note_on_c, 0, 79, 0
1, 19440, Note_on_c, 1, 70, 77
1, 19440, Note_on_c, 1, 63, 77
1, 19460, Note_on_c, 1, 70, 0
1, 19460, Note_on_c, 1, 63, 0
1, 19488, Note_on_c, 1, 70, 77
1, 19488, Note_on_c, 1, 63, 77
1, 19533, Note_on_c, 1, 70, 0
1, 19533, Note_on_c, 1, 63, 0
1, 19536, Note_on_c, 0, 82, 77
1, 19551, Note_on_c, 0, 82, 0
1, 19552, Note_on_c, 0, 84, 77
1, 19567, Note_on_c, 0, 84, 0
1, 19568, Note_on_c, 0, 82, 77
1, 19583, Note_on_c, 0, 82, 0
1, 19584, Note_on_c, 0, 77, 77
1, 19629, Note_on_c, 0, 77, 0
1, 19632, Note_on_c, 1, 70, 77
1, 19632, Note_on_c, 1, 62, 77
1, 19652, Note_on_c, 1, 70, 0
1, 19652, Note_on_c, 1, 62, 0
1, 19680, Note_on_c, 1, 70, 77
1, 19680, Note_on_c, 1, 62, 77
1, 19725, Note_on_c, 1, 70, 0
1, 19725, Note_on_c, 1, 62, 0
1, 19728, Note_on_c, 0, 82, 77
1, 19743, Note_on_c, 0, 82, 0
1, 19744, Note_on_c, 0, 84, 77
1, 19759, Note_on_c, 0, 84, 0
1, 19760, Note_on_c, 0, 82, 77
1, 19775, Note_on_c, 0, 82, 0
1, 19776, Note_on_c, 0, 87, 77
1, 19821, Note_on_c, 0, 87, 0
1, 19824, Note_on_c, 0, 80, 77
1, 19824, Note_on_c, 1, 75, 70
1, 19824, Note_on_c, 1, 72, 70
1, 19844, Note_on_c, 1, 75, 0
1, 19844, Note_on_c, 1, 72, 0
1, 19869, Note_on_c, 0, 80, 0
1, 19872, Note_on_c, 0, 82, 77
1, 19872, Note_on_c, 1, 75, 70
1, 19872, Note_on_c, 1, 72, 70
1, 19890, Note_on_c, 0, 82, 0
1, 19890, Note_on_c, 0, 80, 77
1, 19917, Note_on_c, 0, 80, 0
1, 19920, Note_on_c, 0, 79, 77
1, 19920, Note_on_c, 1, 75, 0
1, 19920, Note_on_c, 1, 72, 0
1, 19920, Note_on_c, 1, 74, 70
1, 19920, Note_on_c, 1, 70, 70
1, 19965, Note_on_c, 0, 79, 0
1, 19965, Note_on_c, 1, 74, 0
1, 19965, Note_on_c, 1, 70, 0
1, 19968, Note_on_c, 0, 84, 78
1, 20013, Note_on_c, 0, 84, 0
1, 20016, Note_on_c, 0, 77, 79
1, 20016, Note_on_c, 1, 72, 70
1, 20016, Note_on_c, 1, 68, 70
1, 20036, Note_on_c, 1, 72, 0
1, 20036, Note_on_c, 1, 68, 0
1, 20061, Note_on_c, 0, 77, 0
1, 20064, Note_on_c, 0, 79, 80
1, 20064, Note_on_c, 1, 72, 70
1, 20064, Note_on_c, 1, 68, 70
1, 20082, Note_on_c, 0, 79, 0
1, 20082, Note_on_c, 0, 77, 80
1, 20109, Note_on_c, 0, 77, 0
1, 20112, Note_on_c, 0, 75, 81
1, 20112, Note_on_c, 1, 72, 0
1, 20112, Note_on_c, 1, 68, 0
1, 20112, Note_on_c, 1, 70, 70
1, 20112, Note_on_c, 1, 67, 70
1, 20157, Note_on_c, 0, 75, 0
1, 20157, Note_on_c, 1, 70, 0
1, 20157, Note_on_c, 1, 67, 0
1, 20160, Note_on_c, 0, 74, 82
1, 20205, Note_on_c, 0, 74, 0
1, 20208, Note_on_c, 0, 80, 99
1, 20208, Note_on_c, 0, 77, 99
1, 20208, Note_on_c, 1, 62, 77
1, 20256, Note_on_c, 1, 62, 0
1, 20256, Note_on_c, 1, 63, 77
1, 20301, Note_on_c, 1, 63, 0
1, 20304, Note_on_c, 0, 80, 0
1, 20304, Note_on_c, 0, 77, 0
1, 20304, Note_on_c, 0, 79, 85
1, 20304, Note_on_c, 0, 75, 85
1, 20304, Note_on_c, 1, 57, 77
1, 20349, Note_on_c, 1, 57, 0
1, 20352, Note_on_c, 1, 58, 77
1, 20397, Note_on_c, 0, 79, 0
1, 20397, Note_on_c, 0, 75, 0
1, 20400, Note_on_c, 0, 77, 79
1, 20400, Note_on_c, 0, 74, 79
1, 20441, Note_on_c, 1, 58, 0
1, 20445, Note_on_c, 0, 77, 0
1, 20445, Note_on_c, 0, 74, 0
1, 20496, Note_on_c, 0, 58, 77
1, 20511, Note_on_c, 0, 58, 0
1, 20512, Note_on_c, 0, 60, 77
1, 20527, Note_on_c, 0, 60, 0
1, 20528, Note_on_c, 0, 58, 77
1, 20543, Note_on_c, 0, 58, 0
1, 20544, Note_on_c, 0, 55, 77
1, 20592, Note_on_c, 1, 46, 77
1, 20592, Note_on_c, 1, 39, 77
1, 20612, Note_on_c, 1, 46, 0
1, 20612, Note_on_c, 1, 39, 0
1, 20633, Note_on_c, 0, 55, 0
1, 20640, Note_on_c, 1, 46, 77
1, 20640, Note_on_c, 1, 39, 77
1, 20685, Note_on_c, 1, 46, 0
1, 20685, Note_on_c, 1, 39, 0
1, 20688, Note_on_c, 0, 58, 77
1, 20703, Note_on_c, 0, 58, 0
1, 20704, Note_on_c, 0, 60, 77
1, 20719, Note_on_c, 0, 60, 0
1, 20720, Note_on_c, 0, 58, 77
1, 20735, Note_on_c, 0, 58, 0
1, 20736, Note_on_c, 0, 53, 77
1, 20784, Note_on_c, 1, 46, 77
1, 20784, Note_on_c, 1, 38, 77
1, 20804, Note_on_c, 1, 46, 0
1, 20804, Note_on_c, 1, 38, 0
1, 20825, Note_on_c, 0, 53, 0
1, 20832, Note_on_c, 1, 46, 77
1, 20832, Note_on_c, 1, 38, 77
1, 20877, Note_on_c, 1, 46, 0
1, 20877, Note_on_c, 1, 38, 0
1, 20880, Note_on_c, 0, 58, 77
1, 20895, Note_on_c, 0, 58, 0
1, 20896, Note_on_c, 0, 60, 77
1, 20911, Note_on_c, 0, 60, 0
1, 20912, Note_on_c, 0, 58, 77
1, 20927, Note_on_c, 0, 58, 0
1, 20928, Note_on_c, 0, 57, 77
1, 20928, Note_on_c, 1, 47, 85
1, 20928, Note_on_c, 1, 35, 85
1, 20973, Note_on_c, 0, 57, 0
1, 20976, Note_on_c, 0, 63, 94
1, 21024, Note_on_c, 1, 47, 0
1, 21024, Note_on_c, 1, 35, 0
1, 21024, Note_on_c, 1, 46, 85
1, 21024, Note_on_c, 1, 34, 85
1, 21072, Note_on_c, 0, 63, 0
1, 21072, Note_on_c, 0, 62, 80
1, 21113, Note_on_c, 1, 46, 0
1, 21113, Note_on_c, 1, 34, 0
1, 21117, Note_on_c, 0, 62, 0
1, 21120, Note_on_c, 0, 58, 81
1, 21120, Note_on_c, 1, 51, 85
1, 21120, Note_on_c, 1, 39, 85
1, 21165, Note_on_c, 0, 58, 0
1, 21168, Note_on_c, 0, 67, 98
1, 21216, Note_on_c, 1, 51, 0
1, 21216, Note_on_c, 1, 39, 0
1, 21216, Note_on_c, 1, 50, 85
1, 21216, Note_on_c, 1, 38, 85
1, 21264, Note_on_c, 0, 67, 0
1, 21264, Note_on_c, 0, 65, 85
1, 21305, Note_on_c, 1, 50, 0
1, 21305, Note_on_c, 1, 38, 0
1, 21309, Note_on_c, 0, 65, 0
1, 21312, Note_on_c, 0, 65, 83
1, 21312, Note_on_c, 1, 51, 85
1, 21312, Note_on_c, 1, 39, 85
1, 21360, Note_on_c, 0, 65, 0
1, 21360, Note_on_c, 0, 63, 81
1, 21405, Note_on_c, 0, 63, 0
1, 21408, Note_on_c, 0, 62, 80
1, 21408, Note_on_c, 1, 51, 0
1, 21408, Note_on_c, 1, 39, 0
1, 21408, Note_on_c, 1, 53, 85
1, 21408, Note_on_c, 1, 41, 85
1, 21456, Note_on_c, 0, 62, 0
1, 21456, Note_on_c, 0, 60, 78
1, 21497, Note_on_c, 1, 53, 0
1, 21497, Note_on_c, 1, 41, 0
1, 21501, Note_on_c, 0, 60, 0
1, 21504, Note_on_c, 0, 61, 93
1, 21504, Note_on_c, 1, 46, 85
1, 21552, Note_on_c, 0, 61, 0
1, 21552, Note_on_c, 0, 62, 77
1, 21593, Note_on_c, 1, 46, 0
1, 21597, Note_on_c, 0, 62, 0
1, 21600, Note_on_c, 1, 34, 85
1, 21645, Note_on_c, 1, 34, 0
1, 21648, Note_on_c, 0, 77, 77
1, 21663, Note_on_c, 0, 77, 0
1, 21664, Note_on_c, 0, 79, 77
1, 21679, Note_on_c, 0, 79, 0
1, 21680, Note_on_c, 0, 77, 77
1, 21695, Note_on_c, 0, 77, 0
1, 21696, Note_on_c, 0, 68, 77
1, 21716, Note_on_c, 0, 68, 0
1, 21744, Note_on_c, 1, 58, 85
1, 21744, Note_on_c, 1, 50, 85
1, 21764, Note_on_c, 1, 58, 0
1, 21764, Note_on_c, 1, 50, 0
1, 21792, Note_on_c, 1, 58, 85
1, 21792, Note_on_c, 1, 50, 85
1, 21837, Note_on_c, 1, 58, 0
1, 21837, Note_on_c, 1, 50, 0
1, 21840, Note_on_c, 0, 77, 77
1, 21855, Note_on_c, 0, 77, 0
1, 21856, Note_on_c, 0, 79, 77
1, 21871, Note_on_c, 0, 79, 0
1, 21872, Note_on_c, 0, 77, 77
1, 21887, Note_on_c, 0, 77, 0
1, 21888, Note_on_c, 0, 67, 77
1, 21908, Note_on_c, 0, 67, 0
1, 21936, Note_on_c, 1, 58, 85
1, 21936, Note_on_c, 1, 51, 85
1, 21956, Note_on_c, 1, 58, 0
1, 21956, Note_on_c, 1, 51, 0
1, 21984, Note_on_c, 1, 58, 85
1, 21984, Note_on_c, 1, 51, 85
1, 22029, Note_on_c, 1, 58, 0
1, 22029, Note_on_c, 1, 51, 0
1, 22032, Note_on_c, 0, 72, 77
1, 22047, Note_on_c, 0, 72, 0
1, 22048, Note_on_c, 0, 74, 77
1, 22063, Note_on_c, 0, 74, 0
1, 22064, Note_on_c, 0, 72, 77
1, 22079, Note_on_c, 0, 72, 0
1, 22080, Note_on_c, 0, 63, 77
1, 22100, Note_on_c, 0, 63, 0
1, 22128, Note_on_c, 1, 53, 85
1, 22128, Note_on_c, 1, 45, 85
1, 22148, Note_on_c, 1, 53, 0
1, 22148, Note_on_c, 1, 45, 0
1, 22176, Note_on_c, 1, 53, 85
1, 22176, Note_on_c, 1, 45, 85
1, 22221, Note_on_c, 1, 53, 0
1, 22221, Note_on_c, 1, 45, 0
1, 22224, Note_on_c, 0, 72, 77
1, 22239, Note_on_c, 0, 72, 0
1, 22240, Note_on_c, 0, 74, 77
1, 22255, Note_on_c, 0, 74, 0
1, 22256, Note_on_c, 0, 72, 77
1, 22271, Note_on_c, 0, 72, 0
1, 22272, Note_on_c, 0, 62, 77
1, 22292, Note_on_c, 0, 62, 0
1, 22320, Note_on_c, 1, 53, 85
1, 22320, Note_on_c, 1, 46, 85
1, 22340, Note_on_c, 1, 53, 0
1, 22340, Note_on_c, 1, 46, 0
1, 22368, Note_on_c, 1, 53, 85
1, 22368, Note_on_c, 1, 46, 85
1, 22413, Note_on_c, 1, 53, 0
1, 22413, Note_on_c, 1, 46, 0
1, 22416, Note_on_c, 0, 58, 77
1, 22416, Note_on_c, 1, 51, 85
1, 22416, Note_on_c, 1, 43, 85
1, 22464, Note_on_c, 0, 58, 0
1, 22464, Note_on_c, 0, 60, 77
1, 22464, Note_on_c, 1, 44, 77
1, 22464, Note_on_c, 1, 43, 0
1, 22509, Note_on_c, 0, 60, 0
1, 22512, Note_on_c, 0, 68, 93
1, 22553, Note_on_c, 1, 51, 0
1, 22560, Note_on_c, 1, 53, 78
1, 22583, Note_on_c, 0, 68, 0
1, 22584, Note_on_c, 0, 67, 78
1, 22607, Note_on_c, 0, 67, 0
1, 22608, Note_on_c, 0, 65, 78
1, 22631, Note_on_c, 0, 65, 0
1, 22632, Note_on_c, 0, 63, 78
1, 22641, Note_on_c, 1, 44, 0
1, 22655, Note_on_c, 0, 63, 0
1, 22656, Note_on_c, 0, 62, 79
1, 22656, Note_on_c, 1, 46, 79
1, 22701, Note_on_c, 0, 62, 0
1, 22704, Note_on_c, 0, 70, 95
1, 22745, Note_on_c, 1, 53, 0
1, 22752, Note_on_c, 1, 55, 80
1, 22775, Note_on_c, 0, 70, 0
1, 22776, Note_on_c, 0, 68, 80
1, 22799, Note_on_c, 0, 68, 0
1, 22800, Note_on_c, 0, 67, 80
1, 22823, Note_on_c, 0, 67, 0
1, 22824, Note_on_c, 0, 65, 81
1, 22833, Note_on_c, 1, 46, 0
1, 22847, Note_on_c, 0, 65, 0
1, 22848, Note_on_c, 0, 63, 81
1, 22848, Note_on_c, 1, 48, 81
1, 22893, Note_on_c, 0, 63, 0
1, 22896, Note_on_c, 0, 72, 97
1, 22937, Note_on_c, 1, 55, 0
1, 22944, Note_on_c, 1, 56, 82
1, 22967, Note_on_c, 0, 72, 0
1, 22968, Note_on_c, 0, 70, 82
1, 22991, Note_on_c, 0, 70, 0
1, 22992, Note_on_c, 0, 68, 82
1, 23015, Note_on_c, 0, 68, 0
1, 23016, Note_on_c, 0, 67, 83
1, 23025, Note_on_c, 1, 48, 0
1, 23039, Note_on_c, 0, 67, 0
1, 23040, Note_on_c, 0, 65, 83
1, 23040, Note_on_c, 1, 50, 83
1, 23085, Note_on_c, 0, 65, 0
1, 23085, Note_on_c, 1, 56, 0
1, 23088, Note_on_c, 0, 80, 99
1, 23088, Note_on_c, 0, 77, 99
1, 23088, Note_on_c, 1, 58, 83
1, 23129, Note_on_c, 1, 50, 0
1, 23136, Note_on_c, 1, 51, 85
1, 23184, Note_on_c, 0, 80, 0
1, 23184, Note_on_c, 0, 77, 0
1, 23184, Note_on_c, 0, 79, 85
1, 23184, Note_on_c, 0, 75, 85
1, 23221, Note_on_c, 1, 58, 0
1, 23225, Note_on_c, 1, 51, 0
1, 23229, Note_on_c, 0, 79, 0
1, 23229, Note_on_c, 0, 75, 0
1, 23232, Note_on_c, 1, 56, 85
1, 23280, Note_on_c, 0, 77, 81
1, 23280, Note_on_c, 0, 68, 81
1, 23321, Note_on_c, 1, 56, 0
1, 23325, Note_on_c, 0, 77, 0
1, 23325, Note_on_c, 0, 68, 0
1, 23328, Note_on_c, 0, 75, 80
1, 23328, Note_on_c, 0, 67, 80
1, 23373, Note_on_c, 0, 75, 0
1, 23373, Note_on_c, 0, 67, 0
1, 23376, Note_on_c, 0, 74, 78
1, 23376, Note_on_c, 0, 65, 78
1, 23376, Note_on_c, 1, 58, 79
1, 23421, Note_on_c, 0, 74, 0
1, 23421, Note_on_c, 0, 65, 0
1, 23421, Note_on_c, 1, 58, 0
1, 23424, Note_on_c, 0, 75, 77
1, 23424, Note_on_c, 0, 67, 77
1, 23424, Note_on_c, 1, 51, 77
1, 23469, Note_on_c, 1, 51, 0
1, 23472, Note_on_c, 1, 46, 77
1, 23513, Note_on_c, 0, 75, 0
1, 23513, Note_on_c, 0, 67, 0
1, 23517, Note_on_c, 1, 46, 0
1, 23520, Note_on_c, 1, 39, 77
1, 23565, Note_on_c, 1, 39, 0
1, 23568, Note_on_c, 0, 77, 77
1, 23583, Note_on_c, 0, 77, 0
1, 23584, Note_on_c, 0, 79, 77
1, 23599, Note_on_c, 0, 79, 0
1, 23600, Note_on_c, 0, 77, 77
1, 23615, Note_on_c, 0, 77, 0
1, 23616, Note_on_c, 0, 68, 77
1, 23636, Note_on_c, 0, 68, 0
1, 23664, Note_on_c, 1, 58, 77
1, 23664, Note_on_c, 1, 50, 77
1, 23684, Note_on_c, 1, 58, 0
1, 23684, Note_on_c, 1, 50, 0
1, 23712, Note_on_c, 1, 58, 77
1, 23712, Note_on_c, 1, 50, 77
1, 23757, Note_on_c, 1, 58, 0
1, 23757, Note_on_c, 1, 50, 0
1, 23760, Note_on_c, 0, 77, 77
1, 23775, Note_on_c, 0, 77, 0
1, 23776, Note_on_c, 0, 79, 77
1, 23791, Note_on_c, 0, 79, 0
1, 23792, Note_on_c, 0, 77, 77
1, 23807, Note_on_c, 0, 77, 0
1, 23808, Note_on_c, 0, 67, 77
1, 23828, Note_on_c, 0, 67, 0
1, 23856, Note_on_c, 1, 58, 77
1, 23856, Note_on_c, 1, 51, 77
1, 23876, Note_on_c, 1, 58, 0
1, 23876, Note_on_c, 1, 51, 0
1, 23904, Note_on_c, 1, 58, 77
1, 23904, Note_on_c, 1, 51, 77
1, 23949, Note_on_c, 1, 58, 0
1, 23949, Note_on_c, 1, 51, 0
1, 23952, Note_on_c, 0, 72, 77
1, 23967, Note_on_c, 0, 72, 0
1, 23968, Note_on_c, 0, 74, 77
1, 23983, Note_on_c, 0, 74, 0
1, 23984, Note_on_c, 0, 72, 77
1, 23999, Note_on_c, 0, 72, 0
1, 24000, Note_on_c, 0, 63, 77
1, 24020, Note_on_c, 0, 63, 0
1, 24048, Note_on_c, 1, 53, 77
1, 24048, Note_on_c, 1, 45, 77
1, 24068, Note_on_c, 1, 53, 0
1, 24068, Note_on_c, 1, 45, 0
1, 24096, Note_on_c, 1, 53, 77
1, 24096, Note_on_c, 1, 45, 77
1, 24141, Note_on_c, 1, 53, 0
1, 24141, Note_on_c, 1, 45, 0
1, 24144, Note_on_c, 0, 72, 77
1, 24159, Note_on_c, 0, 72, 0
1, 24160, Note_on_c, 0, 74, 77
1, 24175, Note_on_c, 0, 74, 0
1, 24176, Note_on_c, 0, 72, 77
1, 24191, Note_on_c, 0, 72, 0
1, 24192, Note_on_c, 0, 62, 77
1, 24212, Note_on_c, 0, 62, 0
1, 24240, Note_on_c, 1, 53, 77
1, 24240, Note_on_c, 1, 46, 77
1, 24260, Note_on_c, 1, 53, 0
1, 24260, Note_on_c, 1, 46, 0
1, 24288, Note_on_c, 1, 53, 77
1, 24288, Note_on_c, 1, 46, 77
1, 24333, Note_on_c, 1, 53, 0
1, 24333, Note_on_c, 1, 46, 0
1, 24336, Note_on_c, 0, 58, 77
1, 24336, Note_on_c, 1, 51, 77
1, 24336, Note_on_c, 1, 43, 77
1, 24384, Note_on_c, 0, 58, 0
1, 24384, Note_on_c, 0, 60, 77
1, 24384, Note_on_c, 1, 44, 77
1, 24384, Note_on_c, 1, 43, 0
1, 24429, Note_on_c, 0, 60, 0
1, 24432, Note_on_c, 0, 68, 93
1, 24473, Note_on_c, 1, 51, 0
1, 24480, Note_on_c, 1, 53, 78
1, 24503, Note_on_c, 0, 68, 0
1, 24504, Note_on_c, 0, 67, 78
1, 24527, Note_on_c, 0, 67, 0
1, 24528, Note_on_c, 0, 65, 78
1, 24551, Note_on_c, 0, 65, 0
1, 24552, Note_on_c, 0, 63, 78
1, 24561, Note_on_c, 1, 44, 0
1, 24575, Note_on_c, 0, 63, 0
1, 24576, Note_on_c, 0, 62, 79
1, 24576, Note_on_c, 1, 46, 79
1, 24621, Note_on_c, 0, 62, 0
1, 24624, Note_on_c, 0, 70, 95
1, 24665, Note_on_c, 1, 53, 0
1, 24672, Note_on_c, 1, 55, 80
1, 24695, Note_on_c, 0, 70, 0
1, 24696, Note_on_c, 0, 68, 80
1, 24719, Note_on_c, 0, 68, 0
1, 24720, Note_on_c, 0, 67, 80
1, 24743, Note_on_c, 0, 67, 0
1, 24744, Note_on_c, 0, 65, 81
1, 24753, Note_on_c, 1, 46, 0
1, 24767, Note_on_c, 0, 65, 0
1, 24768, Note_on_c, 0, 63, 81
1, 24768, Note_on_c, 1, 48, 81
1, 24813, Note_on_c, 0, 63, 0
1, 24816, Note_on_c, 0, 72, 97
1, 24857, Note_on_c, 1, 55, 0
1, 24864, Note_on_c, 1, 56, 82
1, 24887, Note_on_c, 0, 72, 0
1, 24888, Note_on_c, 0, 70, 82
1, 24911, Note_on_c, 0, 70, 0
1, 24912, Note_on_c, 0, 68, 82
1, 24935, Note_on_c, 0, 68, 0
1, 24936, Note_on_c, 0, 67, 83
1, 24945, Note_on_c, 1, 48, 0
1, 24959, Note_on_c, 0, 67, 0
1, 24960, Note_on_c, 0, 65, 83
1, 24960, Note_on_c, 1, 50, 83
1, 25005, Note_on_c, 0, 65, 0
1, 25005, Note_on_c, 1, 56, 0
1, 25008, Note_on_c, 0, 80, 99
1, 25008, Note_on_c, 0, 77, 99
1, 25008, Note_on_c, 1, 58, 83
1, 25049, Note_on_c, 1, 50, 0
1, 25056, Note_on_c, 1, 51, 85
1, 25104, Note_on_c, 0, 80, 0
1, 25104, Note_on_c, 0, 77, 0
1, 25104, Note_on_c, 0, 79, 85
1, 25104, Note_on_c, 0, 75, 85
1, 25141, Note_on_c, 1, 58, 0
1, 25145, Note_on_c, 1, 51, 0
1, 25149, Note_on_c, 0, 79, 0
1, 25149, Note_on_c, 0, 75, 0
1, 25152, Note_on_c, 1, 56, 85
1, 25200, Note_on_c, 0, 77, 81
1, 25200, Note_on_c, 0, 68, 81
1, 25241, Note_on_c, 1, 56, 0
1, 25245, Note_on_c, 0, 77, 0
1, 25245, Note_on_c, 0, 68, 0
1, 25248, Note_on_c, 0, 75, 80
1, 25248, Note_on_c, 0, 67, 80
1, 25293, Note_on_c, 0, 75, 0
1, 25293, Note_on_c, 0, 67, 0
1, 25296, Note_on_c, 0, 74, 78
1, 25296, Note_on_c, 0, 65, 78
1, 25296, Note_on_c, 1, 58, 79
1, 25341, Note_on_c, 0, 74, 0
1, 25341, Note_on_c, 0, 65, 0
1, 25341, Note_on_c, 1, 58, 0
1, 25344, Note_on_c, 0, 75, 77
1, 25344, Note_on_c, 0, 67, 77
1, 25344, Note_on_c, 1, 51, 77
1, 25389, Note_on_c, 1, 51, 0
1, 25392, Note_on_c, 1, 46, 77
1, 25433, Note_on_c, 0, 75, 0
1, 25433, Note_on_c, 0, 67, 0
1, 25437, Note_on_c, 1, 46, 0
1, 25440, Note_on_c, 1, 39, 77
1, 25485, Note_on_c, 1, 39, 0
1, 25488, Note_on_c, 0, 70, 77
1, 25536, Note_on_c, 0, 70, 0
1, 25536, Note_on_c, 0, 67, 77
1, 25581, Note_on_c, 0, 67, 0
1, 25584, Note_on_c, 1, 63, 77
1, 25632, Note_on_c, 1, 63, 0
1, 25632, Note_on_c, 1, 67, 77
1, 25677, Note_on_c, 1, 67, 0
1, 25680, Note_on_c, 0, 70, 77
1, 25728, Note_on_c, 0, 70, 0
1, 25728, Note_on_c, 0, 65, 77
1, 25773, Note_on_c, 0, 65, 0
1, 25776, Note_on_c, 1, 62, 77
1, 25824, Note_on_c, 1, 62, 0
1, 25824, Note_on_c, 1, 65, 77
1, 25869, Note_on_c, 1, 65, 0
1, 25872, Note_on_c, 0, 70, 77
1, 25917, Note_on_c, 0, 70, 0
1, 25920, Note_on_c, 0, 75, 77
1, 25965, Note_on_c, 0, 75, 0
1, 25968, Note_on_c, 0, 68, 93
1, 25968, Note_on_c, 1, 60, 77
1, 26016, Note_on_c, 1, 60, 0
1, 26016, Note_on_c, 1, 58, 77
1, 26061, Note_on_c, 1, 58, 0
1, 26064, Note_on_c, 0, 68, 0
1, 26064, Note_on_c, 0, 67, 79
1, 26109, Note_on_c, 0, 67, 0
1, 26112, Note_on_c, 0, 72, 80
1, 26157, Note_on_c, 0, 72, 0
1, 26160, Note_on_c, 0, 65, 97
1, 26160, Note_on_c, 1, 56, 77
1, 26208, Note_on_c, 1, 56, 0
1, 26208, Note_on_c, 1, 55, 77
1, 26253, Note_on_c, 1, 55, 0
1, 26256, Note_on_c, 0, 65, 0
1, 26256, Note_on_c, 0, 63, 83
1, 26301, Note_on_c, 0, 63, 0
1, 26304, Note_on_c, 0, 62, 84
1, 26349, Note_on_c, 0, 62, 0
1, 26352, Note_on_c, 0, 68, 101
1, 26352, Note_on_c, 1, 53, 77
1, 26397, Note_on_c, 1, 53, 0
1, 26400, Note_on_c, 1, 50, 77
1, 26445, Note_on_c, 1, 50, 0
1, 26448, Note_on_c, 0, 68, 0
1, 26448, Note_on_c, 0, 67, 85
1, 26448, Note_on_c, 1, 51, 77
1, 26493, Note_on_c, 1, 51, 0
1, 26496, Note_on_c, 1, 46, 77
1, 26541, Note_on_c, 0, 67, 0
1, 26541, Note_on_c, 1, 46, 0
1, 26544, Note_on_c, 0, 65, 79
1, 26544, Note_on_c, 1, 58, 77
1, 26589, Note_on_c, 0, 65, 0
1, 26589, Note_on_c, 1, 58, 0
1, 26592, Note_on_c, 1, 46, 77
1, 26637, Note_on_c, 1, 46, 0
1, 26640, Note_on_c, 0, 70, 77
1, 26688, Note_on_c, 0, 70, 0
1, 26688, Note_on_c, 0, 66, 77
1, 26733, Note_on_c, 0, 66, 0
1, 26736, Note_on_c, 1, 63, 77
1, 26784, Note_on_c, 1, 63, 0
1, 26784, Note_on_c, 1, 66, 77
1, 26829, Note_on_c, 1, 66, 0
1, 26832, Note_on_c, 0, 70, 77
1, 26880, Note_on_c, 0, 70, 0
1, 26880, Note_on_c, 0, 65, 77
1, 26925, Note_on_c, 0, 65, 0
1, 26928, Note_on_c, 1, 62, 77
1, 26976, Note_on_c, 1, 62, 0
1, 26976, Note_on_c, 1, 65, 77
1, 27021, Note_on_c, 1, 65, 0
1, 27024, Note_on_c, 0, 70, 77
1, 27069, Note_on_c, 0, 70, 0
1, 27072, Note_on_c, 0, 69, 77
1, 27117, Note_on_c, 0, 69, 0
1, 27120, Note_on_c, 0, 75, 94
1, 27120, Note_on_c, 1, 60, 77
1, 27168, Note_on_c, 1, 60, 0
1, 27168, Note_on_c, 1, 58, 77
1, 27213, Note_on_c, 1, 58, 0
1, 27216, Note_on_c, 0, 75, 0
1, 27216, Note_on_c, 0, 73, 80
1, 27261, Note_on_c, 0, 73, 0
1, 27264, Note_on_c, 0, 70, 81
1, 27309, Note_on_c, 0, 70, 0
1, 27312, Note_on_c, 0, 78, 98
1, 27312, Note_on_c, 1, 63, 77
1, 27360, Note_on_c, 1, 63, 0
1, 27360, Note_on_c, 1, 61, 77
1, 27405, Note_on_c, 1, 61, 0
1, 27408, Note_on_c, 0, 78, 0
1, 27408, Note_on_c, 0, 77, 85
1, 27456, Note_on_c, 1, 63, 77
1, 27501, Note_on_c, 0, 77, 0
1, 27504, Note_on_c, 0, 75, 83
1, 27504, Note_on_c, 0, 72, 83
1, 27545, Note_on_c, 1, 63, 0
1, 27549, Note_on_c, 0, 75, 0
1, 27549, Note_on_c, 0, 72, 0
1, 27552, Note_on_c, 0, 73, 82
1, 27552, Note_on_c, 0, 70, 82
1, 27552, Note_on_c, 1, 65, 77
1, 27597, Note_on_c, 0, 73, 0
1, 27597, Note_on_c, 0, 70, 0
1, 27600, Note_on_c, 0, 72, 81
1, 27600, Note_on_c, 0, 69, 81
1, 27641, Note_on_c, 1, 65, 0
1, 27645, Note_on_c, 0, 72, 0
1, 27645, Note_on_c, 0, 69, 0
1, 27648, Note_on_c, 0, 70, 79
1, 27696, Note_on_c, 1, 58, 77
1, 27737, Note_on_c, 0, 70, 0
1, 27741, Note_on_c, 1, 58, 0
1, 27744, Note_on_c, 1, 46, 77
1, 27789, Note_on_c, 1, 46, 0
1, 27792, Note_on_c, 0, 70, 77
1, 27840, Note_on_c, 0, 70, 0
1, 27840, Note_on_c, 0, 73, 77
1, 27885, Note_on_c, 0, 73, 0
1, 27888, Note_on_c, 1, 54, 77
1, 27936, Note_on_c, 1, 54, 0
1, 27936, Note_on_c, 1, 58, 77
1, 27981, Note_on_c, 1, 58, 0
1, 27984, Note_on_c, 0, 66, 77
1, 28032, Note_on_c, 0, 66, 0
1, 28032, Note_on_c, 0, 65, 77
1, 28077, Note_on_c, 0, 65, 0
1, 28080, Note_on_c, 1, 56, 77
1, 28128, Note_on_c, 1, 56, 0
1, 28128, Note_on_c, 1, 59, 77
1, 28173, Note_on_c, 1, 59, 0
1, 28176, Note_on_c, 0, 68, 77
1, 28224, Note_on_c, 0, 68, 0
1, 28224, Note_on_c, 0, 71, 77
1, 28269, Note_on_c, 0, 71, 0
1, 28272, Note_on_c, 1, 53, 77
1, 28320, Note_on_c, 1, 53, 0
1, 28320, Note_on_c, 1, 61, 77
1, 28365, Note_on_c, 1, 61, 0
1, 28368, Note_on_c, 0, 68, 77
1, 28416, Note_on_c, 0, 68, 0
1, 28416, Note_on_c, 0, 70, 77
1, 28461, Note_on_c, 0, 70, 0
1, 28464, Note_on_c, 1, 54, 77
1, 28512, Note_on_c, 1, 54, 0
1, 28512, Note_on_c, 1, 61, 77
1, 28557, Note_on_c, 1, 61, 0
1, 28560, Note_on_c, 0, 66, 77
1, 28608, Note_on_c, 0, 66, 0
1, 28608, Note_on_c, 0, 75, 77
1, 28653, Note_on_c, 0, 75, 0
1, 28656, Note_on_c, 1, 47, 77
1, 28701, Note_on_c, 1, 47, 0
1, 28704, Note_on_c, 1, 59, 77
1, 28749, Note_on_c, 1, 59, 0
1, 28752, Note_on_c, 0, 77, 77
1, 28752, Note_on_c, 0, 68, 77
1, 28797, Note_on_c, 0, 77, 0
1, 28797, Note_on_c, 0, 68, 0
1, 28800, Note_on_c, 0, 78, 77
1, 28800, Note_on_c, 0, 70, 77
1, 28845, Note_on_c, 0, 78, 0
1, 28845, Note_on_c, 0, 70, 0
1, 28848, Note_on_c, 1, 58, 77
1, 28896, Note_on_c, 1, 58, 0
1, 28896, Note_on_c, 1, 66, 77
1, 28941, Note_on_c, 1, 66, 0
1, 28944, Note_on_c, 0, 73, 77
1, 28944, Note_on_c, 0, 70, 77
1, 28989, Note_on_c, 0, 73, 0
1, 28989, Note_on_c, 0, 70, 0
1, 28992, Note_on_c, 0, 73, 77
1, 28992, Note_on_c, 0, 70, 77
1, 28992, Note_on_c, 1, 59, 77
1, 29015, Note_on_c, 0, 73, 0
1, 29015, Note_on_c, 0, 70, 0
1, 29016, Note_on_c, 0, 71, 77
1, 29016, Note_on_c, 0, 68, 77
1, 29039, Note_on_c, 0, 71, 0
1, 29039, Note_on_c, 0, 68, 0
1, 29040, Note_on_c, 0, 70, 77
1, 29040, Note_on_c, 0, 66, 77
1, 29081, Note_on_c, 1, 59, 0
1, 29088, Note_on_c, 1, 61, 77
1, 29129, Note_on_c, 0, 70, 0
1, 29129, Note_on_c, 0, 66, 0
1, 29136, Note_on_c, 0, 68, 77
1, 29136, Note_on_c, 0, 65, 77
1, 29177, Note_on_c, 1, 61, 0
1, 29181, Note_on_c, 0, 68, 0
1, 29181, Note_on_c, 0, 65, 0
1, 29184, Note_on_c, 0, 66, 77
1, 29229, Note_on_c, 0, 66, 0
1, 29232, Note_on_c, 1, 54, 77
1, 29280, Note_on_c, 1, 54, 0
1, 29280, Note_on_c, 1, 42, 77
1, 29325, Note_on_c, 1, 42, 0
1, 29328, Note_on_c, 0, 70, 77
1, 29376, Note_on_c, 0, 70, 0
1, 29376, Note_on_c, 0, 82, 77
1, 29421, Note_on_c, 0, 82, 0
1, 29424, Note_on_c, 1, 58, 77
1, 29472, Note_on_c, 1, 58, 0
1, 29472, Note_on_c, 1, 66, 77
1, 29517, Note_on_c, 1, 66, 0
1, 29520, Note_on_c, 0, 70, 77
1, 29568, Note_on_c, 0, 70, 0
1, 29568, Note_on_c, 0, 80, 77
1, 29613, Note_on_c, 0, 80, 0
1, 29616, Note_on_c, 1, 58, 77
1, 29664, Note_on_c, 1, 58, 0
1, 29664, Note_on_c, 1, 65, 77
1, 29709, Note_on_c, 1, 65, 0
1, 29712, Note_on_c, 0, 70, 77
1, 29760, Note_on_c, 0, 70, 0
1, 29760, Note_on_c, 0, 78, 77
1, 29805, Note_on_c, 0, 78, 0
1, 29808, Note_on_c, 1, 58, 77
1, 29856, Note_on_c, 1, 58, 0
1, 29856, Note_on_c, 1, 63, 77
1, 29901, Note_on_c, 1, 63, 0
1, 29904, Note_on_c, 0, 70, 77
1, 29952, Note_on_c, 0, 70, 0
1, 29952, Note_on_c, 0, 77, 77
1, 29997, Note_on_c, 0, 77, 0
1, 30000, Note_on_c, 1, 58, 77
1, 30048, Note_on_c, 1, 58, 0
1, 30048, Note_on_c, 1, 62, 77
1, 30093, Note_on_c, 1, 62, 0
1, 30096, Note_on_c, 0, 70, 77
1, 30141, Note_on_c, 0, 70, 0
1, 30144, Note_on_c, 0, 75, 77
1, 30192, Note_on_c, 1, 47, 85
1, 30240, Note_on_c, 1, 59, 77
1, 30288, Note_on_c, 0, 63, 64
1, 30333, Note_on_c, 0, 63, 0
1, 30336, Note_on_c, 0, 69, 64
1, 30384, Note_on_c, 1, 51, 64
1, 30429, Note_on_c, 1, 51, 0
1, 30432, Note_on_c, 1, 54, 64
1, 30809, Note_on_c, 1, 59, 0
1, 30853, Note_on_c, 0, 75, 0
1, 30853, Note_on_c, 0, 69, 0
1, 30853, Note_on_c, 1, 47, 0
1, 30853, Note_on_c, 1, 54, 0
1, 30864, Note_on_c, 0, 65, 64
1, 30909, Note_on_c, 0, 65, 0
1, 30912, Note_on_c, 0, 74, 77
1, 30960, Note_on_c, 1, 46, 85
1, 31008, Note_on_c, 1, 56, 77
1, 31056, Note_on_c, 0, 68, 64
1, 31101, Note_on_c, 0, 68, 0
1, 31104, Note_on_c, 0, 72, 64
1, 31152, Note_on_c, 1, 50, 64
1, 31197, Note_on_c, 1, 50, 0
1, 31200, Note_on_c, 1, 53, 64
1, 31577, Note_on_c, 1, 56, 0
1, 31621, Note_on_c, 0, 74, 0
1, 31621, Note_on_c, 0, 72, 0
1, 31621, Note_on_c, 1, 46, 0
1, 31621, Note_on_c, 1, 53, 0
1, 31632, Note_on_c, 0, 70, 77
1, 31680, Note_on_c, 0, 70, 0
1, 31680, Note_on_c, 0, 67, 77
1, 31725, Note_on_c, 0, 67, 0
1, 31728, Note_on_c, 1, 63, 85
1, 31776, Note_on_c, 1, 63, 0
1, 31776, Note_on_c, 1, 67, 85
1, 31821, Note_on_c, 1, 67, 0
1, 31824, Note_on_c, 0, 70, 77
1, 31872, Note_on_c, 0, 70, 0
1, 31872, Note_on_c, 0, 65, 77
1, 31917, Note_on_c, 0, 65, 0
1, 31920, Note_on_c, 1, 62, 85
1, 31968, Note_on_c, 1, 62, 0
1, 31968, Note_on_c, 1, 65, 85
1, 32013, Note_on_c, 1, 65, 0
1, 32016, Note_on_c, 0, 70, 77
1, 32061, Note_on_c, 0, 70, 0
1, 32064, Note_on_c, 0, 75, 77
1, 32109, Note_on_c, 0, 75, 0
1, 32112, Note_on_c, 0, 68, 93
1, 32112, Note_on_c, 1, 60, 85
1, 32160, Note_on_c, 1, 60, 0
1, 32160, Note_on_c, 1, 58, 85
1, 32205, Note_on_c, 1, 58, 0
1, 32208, Note_on_c, 0, 68, 0
1, 32208, Note_on_c, 0, 67, 77
1, 32253, Note_on_c, 0, 67, 0
1, 32256, Note_on_c, 0, 72, 77
1, 32301, Note_on_c, 0, 72, 0
1, 32304, Note_on_c, 0, 65, 93
1, 32304, Note_on_c, 1, 56, 85
1, 32352, Note_on_c, 1, 56, 0
1, 32352, Note_on_c, 1, 55, 85
1, 32397, Note_on_c, 1, 55, 0
1, 32400, Note_on_c, 0, 65, 0
1, 32400, Note_on_c, 0, 63, 77
1, 32445, Note_on_c, 0, 63, 0
1, 32448, Note_on_c, 0, 62, 77
1, 32493, Note_on_c, 0, 62, 0
1, 32496, Note_on_c, 0, 68, 95
1, 32496, Note_on_c, 1, 53, 85
1, 32541, Note_on_c, 1, 53, 0
1, 32544, Note_on_c, 1, 50, 85
1, 32592, Note_on_c, 0, 68, 0
1, 32592, Note_on_c, 0, 67, 85
1, 32592, Note_on_c, 1, 50, 0
1, 32592, Note_on_c, 1, 51, 85
1, 32637, Note_on_c, 1, 51, 0
1, 32640, Note_on_c, 1, 46, 85
1, 32685, Note_on_c, 0, 67, 0
1, 32685, Note_on_c, 1, 46, 0
1, 32688, Note_on_c, 0, 65, 79
1, 32688, Note_on_c, 1, 58, 85
1, 32733, Note_on_c, 0, 65, 0
1, 32733, Note_on_c, 1, 58, 0
1, 32736, Note_on_c, 1, 46, 85
1, 32781, Note_on_c, 1, 46, 0
1, 32784, Note_on_c, 0, 58, 77
1, 32829, Note_on_c, 0, 58, 0
1, 32832, Note_on_c, 0, 60, 77
1, 32877, Note_on_c, 0, 60, 0
1, 32880, Note_on_c, 0, 65, 93
1, 32880, Note_on_c, 1, 56, 85
1, 32928, Note_on_c, 1, 56, 0
1, 32928, Note_on_c, 1, 55, 86
1, 32973, Note_on_c, 1, 55, 0
1, 32976, Note_on_c, 0, 65, 0
1, 32976, Note_on_c, 0, 63, 78
1, 33021, Note_on_c, 0, 63, 0
1, 33024, Note_on_c, 0, 62, 79
1, 33069, Note_on_c, 0, 62, 0
1, 33072, Note_on_c, 0, 68, 95
1, 33072, Note_on_c, 1, 60, 87
1, 33120, Note_on_c, 1, 60, 0
1, 33120, Note_on_c, 1, 58, 88
1, 33165, Note_on_c, 1, 58, 0
1, 33168, Note_on_c, 0, 68, 0
1, 33168, Note_on_c, 0, 67, 80
1, 33213, Note_on_c, 0, 67, 0
1, 33216, Note_on_c, 0, 65, 81
1, 33261, Note_on_c, 0, 65, 0
1, 33264, Note_on_c, 0, 72, 81
1, 33264, Note_on_c, 1, 68, 90
1, 33312, Note_on_c, 1, 68, 0
1, 33312, Note_on_c, 1, 67, 90
1, 33353, Note_on_c, 0, 72, 0
1, 33357, Note_on_c, 1, 67, 0
1, 33360, Note_on_c, 0, 70, 82
1, 33405, Note_on_c, 0, 70, 0
1, 33408, Note_on_c, 0, 68, 83
1, 33453, Note_on_c, 0, 68, 0
1, 33456, Note_on_c, 0, 80, 83
1, 33456, Note_on_c, 1, 65, 92
1, 33501, Note_on_c, 1, 65, 0
1, 33504, Note_on_c, 1, 62, 93
1, 33545, Note_on_c, 0, 80, 0
1, 33549, Note_on_c, 1, 62, 0
1, 33552, Note_on_c, 0, 79, 85
1, 33552, Note_on_c, 1, 63, 93
1, 33597, Note_on_c, 1, 63, 0
1, 33600, Note_on_c, 1, 56, 85
1, 33645, Note_on_c, 0, 79, 0
1, 33648, Note_on_c, 0, 77, 82
1, 33689, Note_on_c, 1, 56, 0
1, 33693, Note_on_c, 0, 77, 0
1, 33696, Note_on_c, 0, 80, 81
1, 33741, Note_on_c, 0, 80, 0
1, 33744, Note_on_c, 0, 74, 80
1, 33744, Note_on_c, 1, 58, 81
1, 33789, Note_on_c, 0, 74, 0
1, 33789, Note_on_c, 1, 58, 0
1, 33792, Note_on_c, 0, 77, 79
1, 33792, Note_on_c, 1, 51, 79
1, 33837, Note_on_c, 1, 51, 0
1, 33840, Note_on_c, 0, 77, 0
1, 33840, Note_on_c, 0, 75, 78
1, 33840, Note_on_c, 1, 63, 78
1, 33885, Note_on_c, 0, 75, 0
1, 33885, Note_on_c, 1, 63, 0
1, 33888, Note_on_c, 1, 51, 77
1, 33933, Note_on_c, 1, 51, 0
1, 33936, Note_on_c, 0, 70, 77
1, 33981, Note_on_c, 0, 70, 0
1, 33984, Note_on_c, 0, 75, 77
1, 33984, Note_on_c, 1, 63, 93
1, 33984, Note_on_c, 1, 67, 77
1, 34007, Note_on_c, 0, 75, 0
1, 34008, Note_on_c, 0, 70, 77
1, 34031, Note_on_c, 0, 70, 0
1, 34032, Note_on_c, 0, 69, 77
1, 34055, Note_on_c, 0, 69, 0
1, 34056, Note_on_c, 0, 70, 77
1, 34073, Note_on_c, 1, 63, 0
1, 34073, Note_on_c, 1, 67, 0
1, 34079, Note_on_c, 0, 70, 0
1, 34080, Note_on_c, 0, 72, 77
1, 34103, Note_on_c, 0, 72, 0
1, 34104, Note_on_c, 0, 70, 77
1, 34127, Note_on_c, 0, 70, 0
1, 34128, Note_on_c, 0, 69, 77
1, 34128, Note_on_c, 1, 63, 93
1, 34128, Note_on_c, 1, 67, 77
1, 34151, Note_on_c, 0, 69, 0
1, 34152, Note_on_c, 0, 70, 77
1, 34173, Note_on_c, 1, 63, 0
1, 34173, Note_on_c, 1, 67, 0
1, 34175, Note_on_c, 0, 70, 0
1, 34176, Note_on_c, 0, 77, 77
1, 34176, Note_on_c, 1, 62, 93
1, 34176, Note_on_c, 1, 65, 77
1, 34199, Note_on_c, 0, 77, 0
1, 34200, Note_on_c, 0, 70, 77
1, 34223, Note_on_c, 0, 70, 0
1, 34224, Note_on_c, 0, 69, 77
1, 34247, Note_on_c, 0, 69, 0
1, 34248, Note_on_c, 0, 70, 77
1, 34265, Note_on_c, 1, 62, 0
1, 34265, Note_on_c, 1, 65, 0
1, 34271, Note_on_c, 0, 70, 0
1, 34272, Note_on_c, 0, 72, 77
1, 34295, Note_on_c, 0, 72, 0
1, 34296, Note_on_c, 0, 70, 77
1, 34319, Note_on_c, 0, 70, 0
1, 34320, Note_on_c, 0, 69, 77
1, 34320, Note_on_c, 1, 62, 93
1, 34320, Note_on_c, 1, 65, 77
1, 34343, Note_on_c, 0, 69, 0
1, 34344, Note_on_c, 0, 70, 77
1, 34365, Note_on_c, 1, 62, 0
1, 34365, Note_on_c, 1, 65, 0
1, 34367, Note_on_c, 0, 70, 0
1, 34368, Note_on_c, 0, 75, 77
1, 34368, Note_on_c, 1, 60, 93
1, 34368, Note_on_c, 1, 63, 77
1, 34391, Note_on_c, 0, 75, 0
1, 34392, Note_on_c, 0, 72, 77
1, 34415, Note_on_c, 0, 72, 0
1, 34416, Note_on_c, 0, 70, 77
1, 34439, Note_on_c, 0, 70, 0
1, 34440, Note_on_c, 0, 68, 77
1, 34457, Note_on_c, 1, 60, 0
1, 34457, Note_on_c, 1, 63, 0
1, 34463, Note_on_c, 0, 68, 0
1, 34464, Note_on_c, 0, 68, 77
1, 34464, Note_on_c, 1, 58, 93
1, 34464, Note_on_c, 1, 62, 77
1, 34487, Note_on_c, 0, 68, 0
1, 34488, Note_on_c, 0, 67, 77
1, 34511, Note_on_c, 0, 67, 0
1, 34512, Note_on_c, 0, 66, 77
1, 34535, Note_on_c, 0, 66, 0
1, 34536, Note_on_c, 0, 67, 77
1, 34553, Note_on_c, 1, 58, 0
1, 34553, Note_on_c, 1, 62, 0
1, 34559, Note_on_c, 0, 67, 0
1, 34560, Note_on_c, 0, 72, 77
1, 34560, Note_on_c, 1, 56, 93
1, 34560, Note_on_c, 1, 60, 77
1, 34583, Note_on_c, 0, 72, 0
1, 34584, Note_on_c, 0, 68, 77
1, 34607, Note_on_c, 0, 68, 0
1, 34608, Note_on_c, 0, 67, 77
1, 34631, Note_on_c, 0, 67, 0
1, 34632, Note_on_c, 0, 65, 77
1, 34649, Note_on_c, 1, 56, 0
1, 34649, Note_on_c, 1, 60, 0
1, 34655, Note_on_c, 0, 65, 0
1, 34656, Note_on_c, 0, 65, 77
1, 34656, Note_on_c, 1, 55, 93
1, 34656, Note_on_c, 1, 58, 77
1, 34679, Note_on_c, 0, 65, 0
1, 34680, Note_on_c, 0, 63, 77
1, 34703, Note_on_c, 0, 63, 0
1, 34704, Note_on_c, 0, 62, 77
1, 34727, Note_on_c, 0, 62, 0
1, 34728, Note_on_c, 0, 63, 77
1, 34745, Note_on_c, 1, 55, 0
1, 34745, Note_on_c, 1, 58, 0
1, 34751, Note_on_c, 0, 63, 0
1, 34752, Note_on_c, 0, 62, 77
1, 34752, Note_on_c, 1, 53, 93
1, 34752, Note_on_c, 1, 56, 77
1, 34775, Note_on_c, 0, 62, 0
1, 34776, Note_on_c, 0, 63, 79
1, 34799, Note_on_c, 0, 63, 0
1, 34800, Note_on_c, 0, 65, 81
1, 34823, Note_on_c, 0, 65, 0
1, 34824, Note_on_c, 0, 67, 83
1, 34841, Note_on_c, 1, 53, 0
1, 34841, Note_on_c, 1, 56, 0
1, 34847, Note_on_c, 0, 67, 0
1, 34848, Note_on_c, 0, 68, 85
1, 34848, Note_on_c, 1, 50, 93
1, 34871, Note_on_c, 0, 68, 0
1, 34872, Note_on_c, 0, 65, 83
1, 34893, Note_on_c, 1, 50, 0
1, 34895, Note_on_c, 0, 65, 0
1, 34896, Note_on_c, 0, 67, 81
1, 34896, Note_on_c, 1, 51, 93
1, 34919, Note_on_c, 0, 67, 0
1, 34920, Note_on_c, 0, 63, 79
1, 34941, Note_on_c, 1, 51, 0
1, 34943, Note_on_c, 0, 63, 0
1, 34944, Note_on_c, 0, 65, 77
1, 34944, Note_on_c, 0, 62, 77
1, 34944, Note_on_c, 1, 46, 93
1, 34989, Note_on_c, 1, 46, 0
1, 34992, Note_on_c, 1, 58, 93
1, 35033, Note_on_c, 0, 65, 0
1, 35033, Note_on_c, 0, 62, 0
1, 35037, Note_on_c, 1, 58, 0
1, 35040, Note_on_c, 1, 46, 93
1, 35085, Note_on_c, 1, 46, 0
1, 35088, Note_on_c, 0, 70, 77
1, 35133, Note_on_c, 0, 70, 0
1, 35136, Note_on_c, 0, 75, 77
1, 35136, Note_on_c, 1, 63, 93
1, 35136, Note_on_c, 1, 67, 77
1, 35159, Note_on_c, 0, 75, 0
1, 35160, Note_on_c, 0, 70, 77
1, 35183, Note_on_c, 0, 70, 0
1, 35184, Note_on_c, 0, 69, 77
1, 35207, Note_on_c, 0, 69, 0
1, 35208, Note_on_c, 0, 70, 77
1, 35225, Note_on_c, 1, 63, 0
1, 35225, Note_on_c, 1, 67, 0
1, 35231, Note_on_c, 0, 70, 0
1, 35232, Note_on_c, 0, 72, 77
1, 35255, Note_on_c, 0, 72, 0
1, 35256, Note_on_c, 0, 70, 77
1, 35279, Note_on_c, 0, 70, 0
1, 35280, Note_on_c, 0, 69, 77
1, 35280, Note_on_c, 1, 63, 93
1, 35280, Note_on_c, 1, 67, 77
1, 35303, Note_on_c, 0, 69, 0
1, 35304, Note_on_c, 0, 70, 77
1, 35325, Note_on_c, 1, 63, 0
1, 35325, Note_on_c, 1, 67, 0
1, 35327, Note_on_c, 0, 70, 0
1, 35328, Note_on_c, 0, 77, 77
1, 35328, Note_on_c, 1, 62, 93
1, 35328, Note_on_c, 1, 65, 77
1, 35351, Note_on_c, 0, 77, 0
1, 35352, Note_on_c, 0, 70, 77
1, 35375, Note_on_c, 0, 70, 0
1, 35376, Note_on_c, 0, 69, 77
1, 35399, Note_on_c, 0, 69, 0
1, 35400, Note_on_c, 0, 70, 77
1, 35417, Note_on_c, 1, 62, 0
1, 35417, Note_on_c, 1, 65, 0
1, 35423, Note_on_c, 0, 70, 0
1, 35424, Note_on_c, 0, 72, 77
1, 35447, Note_on_c, 0, 72, 0
1, 35448, Note_on_c, 0, 70, 77
1, 35471, Note_on_c, 0, 70, 0
1, 35472, Note_on_c, 0, 69, 77
1, 35472, Note_on_c, 1, 62, 93
1, 35472, Note_on_c, 1, 65, 77
1, 35495, Note_on_c, 0, 69, 0
1, 35496, Note_on_c, 0, 70, 77
1, 35517, Note_on_c, 1, 62, 0
1, 35517, Note_on_c, 1, 65, 0
1, 35519, Note_on_c, 0, 70, 0
1, 35520, Note_on_c, 0, 69, 77
1, 35520, Note_on_c, 1, 60, 93
1, 35520, Note_on_c, 1, 63, 77
1, 35543, Note_on_c, 0, 69, 0
1, 35544, Note_on_c, 0, 79, 77
1, 35567, Note_on_c, 0, 79, 0
1, 35568, Note_on_c, 0, 77, 77
1, 35591, Note_on_c, 0, 77, 0
1, 35592, Note_on_c, 0, 75, 78
1, 35609, Note_on_c, 1, 60, 0
1, 35609, Note_on_c, 1, 63, 0
1, 35615, Note_on_c, 0, 75, 0
1, 35616, Note_on_c, 0, 74, 78
1, 35616, Note_on_c, 1, 58, 99
1, 35639, Note_on_c, 0, 74, 0
1, 35640, Note_on_c, 0, 77, 79
1, 35655, Note_on_c, 1, 58, 0
1, 35663, Note_on_c, 0, 77, 0
1, 35664, Note_on_c, 0, 75, 79
1, 35687, Note_on_c, 0, 75, 0
1, 35688, Note_on_c, 0, 74, 79
1, 35711, Note_on_c, 0, 74, 0
1, 35712, Note_on_c, 0, 72, 80
1, 35712, Note_on_c, 1, 63, 106
1, 35735, Note_on_c, 0, 72, 0
1, 35736, Note_on_c, 0, 75, 80
1, 35751, Note_on_c, 1, 63, 0
1, 35759, Note_on_c, 0, 75, 0
1, 35760, Note_on_c, 0, 74, 81
1, 35783, Note_on_c, 0, 74, 0
1, 35784, Note_on_c, 0, 72, 81
1, 35807, Note_on_c, 0, 72, 0
1, 35808, Note_on_c, 0, 70, 81
1, 35808, Note_on_c, 1, 62, 112
1, 35831, Note_on_c, 0, 70, 0
1, 35832, Note_on_c, 0, 74, 82
1, 35847, Note_on_c, 1, 62, 0
1, 35855, Note_on_c, 0, 74, 0
1, 35856, Note_on_c, 0, 72, 82
1, 35879, Note_on_c, 0, 72, 0
1, 35880, Note_on_c, 0, 70, 83
1, 35903, Note_on_c, 0, 70, 0
1, 35904, Note_on_c, 0, 67, 83
1, 35904, Note_on_c, 1, 63, 119
1, 35927, Note_on_c, 0, 67, 0
1, 35928, Note_on_c, 0, 72, 83
1, 35951, Note_on_c, 0, 72, 0
1, 35952, Note_on_c, 0, 75, 84
1, 35975, Note_on_c, 0, 75, 0
1, 35976, Note_on_c, 0, 79, 84
1, 35993, Note_on_c, 1, 63, 0
1, 35999, Note_on_c, 0, 79, 0
1, 36000, Note_on_c, 0, 77, 85
1, 36045, Note_on_c, 0, 77, 0
1, 36048, Note_on_c, 0, 69, 83
1, 36048, Note_on_c, 1, 60, 115
1, 36048, Note_on_c, 1, 53, 115
1, 36093, Note_on_c, 0, 69, 0
1, 36093, Note_on_c, 1, 60, 0
1, 36093, Note_on_c, 1, 53, 0
1, 36096, Note_on_c, 0, 70, 81
1, 36096, Note_on_c, 0, 62, 81
1, 36096, Note_on_c, 1, 46, 104
1, 36141, Note_on_c, 1, 46, 0
1, 36144, Note_on_c, 1, 58, 93
1, 36185, Note_on_c, 0, 70, 0
1, 36185, Note_on_c, 0, 62, 0
1, 36189, Note_on_c, 1, 58, 0
1, 36192, Note_on_c, 1, 46, 93
1, 36237, Note_on_c, 1, 46, 0
1, 36240, Note_on_c, 0, 70, 77
1, 36285, Note_on_c, 0, 70, 0
1, 36288, Note_on_c, 0, 75, 77
1, 36288, Note_on_c, 1, 63, 93
1, 36288, Note_on_c, 1, 67, 77
1, 36311, Note_on_c, 0, 75, 0
1, 36312, Note_on_c, 0, 70, 77
1, 36335, Note_on_c, 0, 70, 0
1, 36336, Note_on_c, 0, 69, 77
1, 36359, Note_on_c, 0, 69, 0
1, 36360, Note_on_c, 0, 70, 77
1, 36377, Note_on_c, 1, 63, 0
1, 36377, Note_on_c, 1, 67, 0
1, 36383, Note_on_c, 0, 70, 0
1, 36384, Note_on_c, 0, 72, 77
1, 36407, Note_on_c, 0, 72, 0
1, 36408, Note_on_c, 0, 70, 77
1, 36431, Note_on_c, 0, 70, 0
1, 36432, Note_on_c, 0, 69, 77
1, 36432, Note_on_c, 1, 63, 93
1, 36432, Note_on_c, 1, 67, 77
1, 36455, Note_on_c, 0, 69, 0
1, 36456, Note_on_c, 0, 70, 77
1, 36477, Note_on_c, 1, 63, 0
1, 36477, Note_on_c, 1, 67, 0
1, 36479, Note_on_c, 0, 70, 0
1, 36480, Note_on_c, 0, 77, 77
1, 36480, Note_on_c, 1, 62, 93
1, 36480, Note_on_c, 1, 65, 77
1, 36503, Note_on_c, 0, 77, 0
1, 36504, Note_on_c, 0, 70, 77
1, 36527, Note_on_c, 0, 70, 0
1, 36528, Note_on_c, 0, 69, 77
1, 36551, Note_on_c, 0, 69, 0
1, 36552, Note_on_c, 0, 70, 77
1, 36569, Note_on_c, 1, 62, 0
1, 36569, Note_on_c, 1, 65, 0
1, 36575, Note_on_c, 0, 70, 0
1, 36576, Note_on_c, 0, 72, 77
1, 36599, Note_on_c, 0, 72, 0
1, 36600, Note_on_c, 0, 70, 77
1, 36623, Note_on_c, 0, 70, 0
1, 36624, Note_on_c, 0, 69, 77
1, 36624, Note_on_c, 1, 62, 93
1, 36624, Note_on_c, 1, 65, 77
1, 36647, Note_on_c, 0, 69, 0
1, 36648, Note_on_c, 0, 70, 77
1, 36669, Note_on_c, 1, 62, 0
1, 36669, Note_on_c, 1, 65, 0
1, 36671, Note_on_c, 0, 70, 0
1, 36672, Note_on_c, 0, 75, 77
1, 36672, Note_on_c, 1, 60, 93
1, 36672, Note_on_c, 1, 63, 77
1, 36695, Note_on_c, 0, 75, 0
1, 36696, Note_on_c, 0, 72, 77
1, 36719, Note_on_c, 0, 72, 0
1, 36720, Note_on_c, 0, 70, 77
1, 36743, Note_on_c, 0, 70, 0
1, 36744, Note_on_c, 0, 68, 77
1, 36761, Note_on_c, 1, 60, 0
1, 36761, Note_on_c, 1, 63, 0
1, 36767, Note_on_c, 0, 68, 0
1, 36768, Note_on_c, 0, 68, 77
1, 36768, Note_on_c, 1, 58, 93
1, 36768, Note_on_c, 1, 62, 77
1, 36791, Note_on_c, 0, 68, 0
1, 36792, Note_on_c, 0, 67, 77
1, 36815, Note_on_c, 0, 67, 0
1, 36816, Note_on_c, 0, 66, 77
1, 36839, Note_on_c, 0, 66, 0
1, 36840, Note_on_c, 0, 67, 77
1, 36857, Note_on_c, 1, 58, 0
1, 36857, Note_on_c, 1, 62, 0
1, 36863, Note_on_c, 0, 67, 0
1, 36864, Note_on_c, 0, 72, 77
1, 36864, Note_on_c, 1, 56, 93
1, 36864, Note_on_c, 1, 60, 77
1, 36887, Note_on_c, 0, 72, 0
1, 36888, Note_on_c, 0, 68, 77
1, 36911, Note_on_c, 0, 68, 0
1, 36912, Note_on_c, 0, 67, 77
1, 36935, Note_on_c, 0, 67, 0
1, 36936, Note_on_c, 0, 65, 77
1, 36953, Note_on_c, 1, 56, 0
1, 36953, Note_on_c, 1, 60, 0
1, 36959, Note_on_c, 0, 65, 0
1, 36960, Note_on_c, 0, 65, 77
1, 36960, Note_on_c, 1, 55, 93
1, 36960, Note_on_c, 1, 58, 77
1, 36983, Note_on_c, 0, 65, 0
1, 36984, Note_on_c, 0, 63, 77
1, 37007, Note_on_c, 0, 63, 0
1, 37008, Note_on_c, 0, 62, 77
1, 37031, Note_on_c, 0, 62, 0
1, 37032, Note_on_c, 0, 63, 77
1, 37049, Note_on_c, 1, 55, 0
1, 37049, Note_on_c, 1, 58, 0
1, 37055, Note_on_c, 0, 63, 0
1, 37056, Note_on_c, 0, 62, 77
1, 37056, Note_on_c, 1, 53, 93
1, 37056, Note_on_c, 1, 56, 77
1, 37079, Note_on_c, 0, 62, 0
1, 37080, Note_on_c, 0, 63, 79
1, 37103, Note_on_c, 0, 63, 0
1, 37104, Note_on_c, 0, 65, 81
1, 37127, Note_on_c, 0, 65, 0
1, 37128, Note_on_c, 0, 67, 83
1, 37145, Note_on_c, 1, 53, 0
1, 37145, Note_on_c, 1, 56, 0
1, 37151, Note_on_c, 0, 67, 0
1, 37152, Note_on_c, 0, 68, 85
1, 37152, Note_on_c, 1, 50, 93
1, 37175, Note_on_c, 0, 68, 0
1, 37176, Note_on_c, 0, 65, 83
1, 37197, Note_on_c, 1, 50, 0
1, 37199, Note_on_c, 0, 65, 0
1, 37200, Note_on_c, 0, 67, 81
1, 37200, Note_on_c, 1, 51, 93
1, 37223, Note_on_c, 0, 67, 0
1, 37224, Note_on_c, 0, 63, 79
1, 37245, Note_on_c, 1, 51, 0
1, 37247, Note_on_c, 0, 63, 0
1, 37248, Note_on_c, 0, 65, 77
1, 37248, Note_on_c, 0, 62, 77
1, 37248, Note_on_c, 1, 46, 93
1, 37293, Note_on_c, 1, 46, 0
1, 37296, Note_on_c, 1, 58, 93
1, 37337, Note_on_c, 0, 65, 0
1, 37337, Note_on_c, 0, 62, 0
1, 37341, Note_on_c, 1, 58, 0
1, 37344, Note_on_c, 1, 46, 93
1, 37389, Note_on_c, 1, 46, 0
1, 37392, Note_on_c, 0, 70, 77
1, 37437, Note_on_c, 0, 70, 0
1, 37440, Note_on_c, 0, 75, 77
1, 37440, Note_on_c, 1, 63, 93
1, 37440, Note_on_c, 1, 67, 77
1, 37463, Note_on_c, 0, 75, 0
1, 37464, Note_on_c, 0, 70, 77
1, 37487, Note_on_c, 0, 70, 0
1, 37488, Note_on_c, 0, 69, 77
1, 37511, Note_on_c, 0, 69, 0
1, 37512, Note_on_c, 0, 70, 77
1, 37529, Note_on_c, 1, 63, 0
1, 37529, Note_on_c, 1, 67, 0
1, 37535, Note_on_c, 0, 70, 0
1, 37536, Note_on_c, 0, 72, 77
1, 37559, Note_on_c, 0, 72, 0
1, 37560, Note_on_c, 0, 70, 77
1, 37583, Note_on_c, 0, 70, 0
1, 37584, Note_on_c, 0, 69, 77
1, 37584, Note_on_c, 1, 63, 93
1, 37584, Note_on_c, 1, 67, 77
1, 37607, Note_on_c, 0, 69, 0
1, 37608, Note_on_c, 0, 70, 77
1, 37629, Note_on_c, 1, 63, 0
1, 37629, Note_on_c, 1, 67, 0
1, 37631, Note_on_c, 0, 70, 0
1, 37632, Note_on_c, 0, 77, 77
1, 37632, Note_on_c, 1, 62, 93
1, 37632, Note_on_c, 1, 65, 77
1, 37655, Note_on_c, 0, 77, 0
1, 37656, Note_on_c, 0, 70, 77
1, 37679, Note_on_c, 0, 70, 0
1, 37680, Note_on_c, 0, 69, 77
1, 37703, Note_on_c, 0, 69, 0
1, 37704, Note_on_c, 0, 70, 77
1, 37721, Note_on_c, 1, 62, 0
1, 37721, Note_on_c, 1, 65, 0
1, 37727, Note_on_c, 0, 70, 0
1, 37728, Note_on_c, 0, 72, 77
1, 37751, Note_on_c, 0, 72, 0
1, 37752, Note_on_c, 0, 70, 77
1, 37775, Note_on_c, 0, 70, 0
1, 37776, Note_on_c, 0, 69, 77
1, 37776, Note_on_c, 1, 62, 93
1, 37776, Note_on_c, 1, 65, 77
1, 37799, Note_on_c, 0, 69, 0
1, 37800, Note_on_c, 0, 70, 77
1, 37821, Note_on_c, 1, 62, 0
1, 37821, Note_on_c, 1, 65, 0
1, 37823, Note_on_c, 0, 70, 0
1, 37824, Note_on_c, 0, 69, 77
1, 37824, Note_on_c, 1, 60, 93
1, 37824, Note_on_c, 1, 63, 77
1, 37847, Note_on_c, 0, 69, 0
1, 37848, Note_on_c, 0, 79, 77
1, 37871, Note_on_c, 0, 79, 0
1, 37872, Note_on_c, 0, 77, 77
1, 37895, Note_on_c, 0, 77, 0
1, 37896, Note_on_c, 0, 75, 78
1, 37913, Note_on_c, 1, 60, 0
1, 37913, Note_on_c, 1, 63, 0
1, 37919, Note_on_c, 0, 75, 0
1, 37920, Note_on_c, 0, 74, 78
1, 37920, Note_on_c, 1, 58, 99
1, 37943, Note_on_c, 0, 74, 0
1, 37944, Note_on_c, 0, 77, 79
1, 37959, Note_on_c, 1, 58, 0
1, 37967, Note_on_c, 0, 77, 0
1, 37968, Note_on_c, 0, 75, 79
1, 37991, Note_on_c, 0, 75, 0
1, 37992, Note_on_c, 0, 74, 79
1, 38015, Note_on_c, 0, 74, 0
1, 38016, Note_on_c, 0, 72, 80
1, 38016, Note_on_c, 1, 63, 106
1, 38039, Note_on_c, 0, 72, 0
1, 38040, Note_on_c, 0, 75, 80
1, 38055, Note_on_c, 1, 63, 0
1, 38063, Note_on_c, 0, 75, 0
1, 38064, Note_on_c, 0, 74, 81
1, 38087, Note_on_c, 0, 74, 0
1, 38088, Note_on_c, 0, 72, 81
1, 38111, Note_on_c, 0, 72, 0
1, 38112, Note_on_c, 0, 70, 81
1, 38112, Note_on_c, 1, 62, 112
1, 38135, Note_on_c, 0, 70, 0
1, 38136, Note_on_c, 0, 74, 82
1, 38151, Note_on_c, 1, 62, 0
1, 38159, Note_on_c, 0, 74, 0
1, 38160, Note_on_c, 0, 72, 82
1, 38183, Note_on_c, 0, 72, 0
1, 38184, Note_on_c, 0, 70, 83
1, 38207, Note_on_c, 0, 70, 0
1, 38208, Note_on_c, 0, 67, 83
1, 38208, Note_on_c, 1, 63, 119
1, 38231, Note_on_c, 0, 67, 0
1, 38232, Note_on_c, 0, 72, 83
1, 38255, Note_on_c, 0, 72, 0
1, 38256, Note_on_c, 0, 75, 84
1, 38279, Note_on_c, 0, 75, 0
1, 38280, Note_on_c, 0, 79, 84
1, 38297, Note_on_c, 1, 63, 0
1, 38303, Note_on_c, 0, 79, 0
1, 38304, Note_on_c, 0, 77, 85
1, 38349, Note_on_c, 0, 77, 0
1, 38352, Note_on_c, 0, 69, 83
1, 38352, Note_on_c, 1, 60, 115
1, 38352, Note_on_c, 1, 53, 115
1, 38397, Note_on_c, 0, 69, 0
1, 38397, Note_on_c, 1, 60, 0
1, 38397, Note_on_c, 1, 53, 0
1, 38400, Note_on_c, 0, 70, 81
1, 38400, Note_on_c, 0, 62, 81
1, 38400, Note_on_c, 1, 46, 104
1, 38445, Note_on_c, 1, 46, 0
1, 38448, Note_on_c, 1, 58, 93
1, 38489, Note_on_c, 0, 70, 0
1, 38489, Note_on_c, 0, 62, 0
1, 38493, Note_on_c, 1, 58, 0
1, 38496, Note_on_c, 1, 46, 93
1, 38541, Note_on_c, 1, 46, 0
1, 38544, Note_on_c, 0, 70, 77
1, 38589, Note_on_c, 0, 70, 0
1, 38592, Note_on_c, 0, 77, 77
1, 38592, Note_on_c, 1, 50, 77
1, 38592, Note_on_c, 1, 58, 64
1, 38615, Note_on_c, 0, 77, 0
1, 38616, Note_on_c, 0, 70, 77
1, 38639, Note_on_c, 0, 70, 0
1, 38640, Note_on_c, 0, 69, 77
1, 38663, Note_on_c, 0, 69, 0
1, 38664, Note_on_c, 0, 70, 77
1, 38681, Note_on_c, 1, 50, 0
1, 38681, Note_on_c, 1, 58, 0
1, 38687, Note_on_c, 0, 70, 0
1, 38688, Note_on_c, 0, 70, 77
1, 38711, Note_on_c, 0, 70, 0
1, 38712, Note_on_c, 0, 68, 77
1, 38735, Note_on_c, 0, 68, 0
1, 38736, Note_on_c, 0, 67, 77
1, 38736, Note_on_c, 1, 50, 77
1, 38736, Note_on_c, 1, 58, 64
1, 38759, Note_on_c, 0, 67, 0
1, 38760, Note_on_c, 0, 68, 77
1, 38781, Note_on_c, 1, 50, 0
1, 38781, Note_on_c, 1, 58, 0
1, 38783, Note_on_c, 0, 68, 0
1, 38784, Note_on_c, 0, 67, 77
1, 38784, Note_on_c, 1, 51, 77
1, 38784, Note_on_c, 1, 58, 64
1, 38807, Note_on_c, 0, 67, 0
1, 38808, Note_on_c, 0, 63, 77
1, 38831, Note_on_c, 0, 63, 0
1, 38832, Note_on_c, 0, 62, 77
1, 38855, Note_on_c, 0, 62, 0
1, 38856, Note_on_c, 0, 63, 77
1, 38873, Note_on_c, 1, 51, 0
1, 38873, Note_on_c, 1, 58, 0
1, 38879, Note_on_c, 0, 63, 0
1, 38880, Note_on_c, 0, 65, 77
1, 38903, Note_on_c, 0, 65, 0
1, 38904, Note_on_c, 0, 63, 77
1, 38927, Note_on_c, 0, 63, 0
1, 38928, Note_on_c, 0, 62, 77
1, 38951, Note_on_c, 0, 62, 0
1, 38952, Note_on_c, 0, 63, 77
1, 38975, Note_on_c, 0, 63, 0
1, 38976, Note_on_c, 0, 72, 77
1, 38976, Note_on_c, 1, 44, 77
1, 38976, Note_on_c, 1, 53, 64
1, 38999, Note_on_c, 0, 72, 0
1, 39000, Note_on_c, 0, 65, 77
1, 39023, Note_on_c, 0, 65, 0
1, 39024, Note_on_c, 0, 64, 77
1, 39047, Note_on_c, 0, 64, 0
1, 39048, Note_on_c, 0, 65, 77
1, 39065, Note_on_c, 1, 44, 0
1, 39065, Note_on_c, 1, 53, 0
1, 39071, Note_on_c, 0, 65, 0
1, 39072, Note_on_c, 0, 65, 77
1, 39095, Note_on_c, 0, 65, 0
1, 39096, Note_on_c, 0, 63, 77
1, 39119, Note_on_c, 0, 63, 0
1, 39120, Note_on_c, 0, 62, 77
1, 39120, Note_on_c, 1, 45, 77
1, 39120, Note_on_c, 1, 53, 64
1, 39143, Note_on_c, 0, 62, 0
1, 39144, Note_on_c, 0, 63, 77
1, 39165, Note_on_c, 1, 45, 0
1, 39165, Note_on_c, 1, 53, 0
1, 39167, Note_on_c, 0, 63, 0
1, 39168, Note_on_c, 0, 62, 77
1, 39168, Note_on_c, 1, 46, 77
1, 39168, Note_on_c, 1, 53, 64
1, 39191, Note_on_c, 0, 62, 0
1, 39192, Note_on_c, 0, 58, 77
1, 39215, Note_on_c, 0, 58, 0
1, 39216, Note_on_c, 0, 57, 77
1, 39239, Note_on_c, 0, 57, 0
1, 39240, Note_on_c, 0, 58, 77
1, 39257, Note_on_c, 1, 46, 0
1, 39257, Note_on_c, 1, 53, 0
1, 39263, Note_on_c, 0, 58, 0
1, 39264, Note_on_c, 0, 60, 77
1, 39287, Note_on_c, 0, 60, 0
1, 39288, Note_on_c, 0, 58, 77
1, 39311, Note_on_c, 0, 58, 0
1, 39312, Note_on_c, 0, 57, 77
1, 39335, Note_on_c, 0, 57, 0
1, 39336, Note_on_c, 0, 58, 77
1, 39359, Note_on_c, 0, 58, 0
1, 39360, Note_on_c, 1, 56, 77
1, 39384, Note_on_c, 0, 60, 77
1, 39399, Note_on_c, 1, 56, 0
1, 39407, Note_on_c, 0, 60, 0
1, 39408, Note_on_c, 0, 65, 77
1, 39431, Note_on_c, 0, 65, 0
1, 39432, Note_on_c, 0, 63, 77
1, 39455, Note_on_c, 0, 63, 0
1, 39456, Note_on_c, 0, 62, 78
1, 39456, Note_on_c, 1, 58, 78
1, 39479, Note_on_c, 0, 62, 0
1, 39480, Note_on_c, 0, 68, 78
1, 39495, Note_on_c, 1, 58, 0
1, 39503, Note_on_c, 0, 68, 0
1, 39504, Note_on_c, 0, 67, 78
1, 39527, Note_on_c, 0, 67, 0
1, 39528, Note_on_c, 0, 65, 79
1, 39551, Note_on_c, 0, 65, 0
1, 39552, Note_on_c, 0, 63, 79
1, 39552, Note_on_c, 1, 60, 79
1, 39575, Note_on_c, 0, 63, 0
1, 39576, Note_on_c, 0, 70, 79
1, 39591, Note_on_c, 1, 60, 0
1, 39599, Note_on_c, 0, 70, 0
1, 39600, Note_on_c, 0, 68, 80
1, 39623, Note_on_c, 0, 68, 0
1, 39624, Note_on_c, 0, 67, 80
1, 39647, Note_on_c, 0, 67, 0
1, 39648, Note_on_c, 0, 65, 80
1, 39648, Note_on_c, 1, 62, 80
1, 39671, Note_on_c, 0, 65, 0
1, 39672, Note_on_c, 0, 72, 81
1, 39687, Note_on_c, 1, 62, 0
1, 39695, Note_on_c, 0, 72, 0
1, 39696, Note_on_c, 0, 70, 81
1, 39719, Note_on_c, 0, 70, 0
1, 39720, Note_on_c, 0, 68, 81
1, 39743, Note_on_c, 0, 68, 0
1, 39744, Note_on_c, 0, 67, 82
1, 39744, Note_on_c, 1, 63, 81
1, 39767, Note_on_c, 0, 67, 0
1, 39768, Note_on_c, 0, 79, 82
1, 39791, Note_on_c, 0, 79, 0
1, 39792, Note_on_c, 0, 77, 82
1, 39815, Note_on_c, 0, 77, 0
1, 39816, Note_on_c, 0, 75, 83
1, 39833, Note_on_c, 1, 63, 0
1, 39839, Note_on_c, 0, 75, 0
1, 39840, Note_on_c, 0, 74, 83
1, 39840, Note_on_c, 1, 65, 82
1, 39863, Note_on_c, 0, 74, 0
1, 39864, Note_on_c, 0, 84, 83
1, 39887, Note_on_c, 0, 84, 0
1, 39888, Note_on_c, 0, 82, 84
1, 39911, Note_on_c, 0, 82, 0
1, 39912, Note_on_c, 0, 80, 84
1, 39929, Note_on_c, 1, 65, 0
1, 39935, Note_on_c, 0, 80, 0
1, 39936, Note_on_c, 0, 79, 84
1, 39936, Note_on_c, 1, 67, 83
1, 39959, Note_on_c, 0, 79, 0
1, 39960, Note_on_c, 0, 77, 85
1, 39983, Note_on_c, 0, 77, 0
1, 39984, Note_on_c, 0, 75, 85
1, 40007, Note_on_c, 0, 75, 0
1, 40008, Note_on_c, 0, 74, 84
1, 40025, Note_on_c, 1, 67, 0
1, 40031, Note_on_c, 0, 74, 0
1, 40032, Note_on_c, 0, 72, 83
1, 40055, Note_on_c, 0, 72, 0
1, 40056, Note_on_c, 0, 70, 83
1, 40079, Note_on_c, 0, 70, 0
1, 40080, Note_on_c, 0, 68, 82
1, 40103, Note_on_c, 0, 68, 0
1, 40104, Note_on_c, 0, 67, 82
1, 40127, Note_on_c, 0, 67, 0
1, 40128, Note_on_c, 0, 65, 81
1, 40128, Note_on_c, 1, 44, 93
1, 40128, Note_on_c, 1, 56, 64
1, 40173, Note_on_c, 0, 65, 0
1, 40176, Note_on_c, 0, 68, 80
1, 40199, Note_on_c, 0, 68, 0
1, 40200, Note_on_c, 0, 65, 79
1, 40217, Note_on_c, 1, 44, 0
1, 40217, Note_on_c, 1, 56, 0
1, 40223, Note_on_c, 0, 65, 0
1, 40224, Note_on_c, 0, 63, 79
1, 40224, Note_on_c, 1, 46, 93
1, 40224, Note_on_c, 1, 55, 64
1, 40269, Note_on_c, 0, 63, 0
1, 40269, Note_on_c, 1, 46, 0
1, 40269, Note_on_c, 1, 55, 0
1, 40272, Note_on_c, 0, 62, 78
1, 40272, Note_on_c, 1, 46, 93
1, 40272, Note_on_c, 1, 53, 64
1, 40317, Note_on_c, 0, 62, 0
1, 40317, Note_on_c, 1, 46, 0
1, 40317, Note_on_c, 1, 53, 0
1, 40320, Note_on_c, 0, 63, 77
1, 40320, Note_on_c, 1, 51, 93
1, 40365, Note_on_c, 1, 51, 0
1, 40368, Note_on_c, 1, 46, 93
1, 40409, Note_on_c, 0, 63, 0
1, 40413, Note_on_c, 1, 46, 0
1, 40416, Note_on_c, 1, 39, 93
1, 40461, Note_on_c, 1, 39, 0
1, 40464, Note_on_c, 0, 70, 77
1, 40509, Note_on_c, 0, 70, 0
1, 40512, Note_on_c, 0, 77, 77
1, 40512, Note_on_c, 1, 50, 77
1, 40512, Note_on_c, 1, 58, 64
1, 40535, Note_on_c, 0, 77, 0
1, 40536, Note_on_c, 0, 70, 77
1, 40559, Note_on_c, 0, 70, 0
1, 40560, Note_on_c, 0, 69, 77
1, 40583, Note_on_c, 0, 69, 0
1, 40584, Note_on_c, 0, 70, 77
1, 40601, Note_on_c, 1, 50, 0
1, 40601, Note_on_c, 1, 58, 0
1, 40607, Note_on_c, 0, 70, 0
1, 40608, Note_on_c, 0, 70, 77
1, 40631, Note_on_c, 0, 70, 0
1, 40632, Note_on_c, 0, 68, 77
1, 40655, Note_on_c, 0, 68, 0
1, 40656, Note_on_c, 0, 67, 77
1, 40656, Note_on_c, 1, 50, 77
1, 40656, Note_on_c, 1, 58, 64
1, 40679, Note_on_c, 0, 67, 0
1, 40680, Note_on_c, 0, 68, 77
1, 40701, Note_on_c, 1, 50, 0
1, 40701, Note_on_c, 1, 58, 0
1, 40703, Note_on_c, 0, 68, 0
1, 40704, Note_on_c, 0, 67, 77
1, 40704, Note_on_c, 1, 51, 77
1, 40704, Note_on_c, 1, 58, 64
1, 40727, Note_on_c, 0, 67, 0
1, 40728, Note_on_c, 0, 63, 77
1, 40751, Note_on_c, 0, 63, 0
1, 40752, Note_on_c, 0, 62, 77
1, 40775, Note_on_c, 0, 62, 0
1, 40776, Note_on_c, 0, 63, 77
1, 40793, Note_on_c, 1, 51, 0
1, 40793, Note_on_c, 1, 58, 0
1, 40799, Note_on_c, 0, 63, 0
1, 40800, Note_on_c, 0, 65, 77
1, 40823, Note_on_c, 0, 65, 0
1, 40824, Note_on_c, 0, 63, 77
1, 40847, Note_on_c, 0, 63, 0
1, 40848, Note_on_c, 0, 62, 77
1, 40871, Note_on_c, 0, 62, 0
1, 40872, Note_on_c, 0, 63, 77
1, 40895, Note_on_c, 0, 63, 0
1, 40896, Note_on_c, 0, 72, 77
1, 40896, Note_on_c, 1, 44, 77
1, 40896, Note_on_c, 1, 53, 64
1, 40919, Note_on_c, 0, 72, 0
1, 40920, Note_on_c, 0, 65, 77
1, 40943, Note_on_c, 0, 65, 0
1, 40944, Note_on_c, 0, 64, 77
1, 40967, Note_on_c, 0, 64, 0
1, 40968, Note_on_c, 0, 65, 77
1, 40985, Note_on_c, 1, 44, 0
1, 40985, Note_on_c, 1, 53, 0
1, 40991, Note_on_c, 0, 65, 0
1, 40992, Note_on_c, 0, 65, 77
1, 41015, Note_on_c, 0, 65, 0
1, 41016, Note_on_c, 0, 63, 77
1, 41039, Note_on_c, 0, 63, 0
1, 41040, Note_on_c, 0, 62, 77
1, 41040, Note_on_c, 1, 45, 77
1, 41040, Note_on_c, 1, 53, 64
1, 41063, Note_on_c, 0, 62, 0
1, 41064, Note_on_c, 0, 63, 77
1, 41085, Note_on_c, 1, 45, 0
1, 41085, Note_on_c, 1, 53, 0
1, 41087, Note_on_c, 0, 63, 0
1, 41088, Note_on_c, 0, 62, 77
1, 41088, Note_on_c, 1, 46, 77
1, 41088, Note_on_c, 1, 53, 64
1, 41111, Note_on_c, 0, 62, 0
1, 41112, Note_on_c, 0, 58, 77
1, 41135, Note_on_c, 0, 58, 0
1, 41136, Note_on_c, 0, 57, 77
1, 41159, Note_on_c, 0, 57, 0
1, 41160, Note_on_c, 0, 58, 77
1, 41177, Note_on_c, 1, 46, 0
1, 41177, Note_on_c, 1, 53, 0
1, 41183, Note_on_c, 0, 58, 0
1, 41184, Note_on_c, 0, 60, 77
1, 41207, Note_on_c, 0, 60, 0
1, 41208, Note_on_c, 0, 58, 77
1, 41231, Note_on_c, 0, 58, 0
1, 41232, Note_on_c, 0, 57, 77
1, 41255, Note_on_c, 0, 57, 0
1, 41256, Note_on_c, 0, 58, 77
1, 41279, Note_on_c, 0, 58, 0
1, 41280, Note_on_c, 1, 56, 77
1, 41304, Note_on_c, 0, 60, 77
1, 41319, Note_on_c, 1, 56, 0
1, 41327, Note_on_c, 0, 60, 0
1, 41328, Note_on_c, 0, 65, 77
1, 41351, Note_on_c, 0, 65, 0
1, 41352, Note_on_c, 0, 63, 77
1, 41375, Note_on_c, 0, 63, 0
1, 41376, Note_on_c, 0, 62, 78
1, 41376, Note_on_c, 1, 58, 78
1, 41399, Note_on_c, 0, 62, 0
1, 41400, Note_on_c, 0, 68, 78
1, 41415, Note_on_c, 1, 58, 0
1, 41423, Note_on_c, 0, 68, 0
1, 41424, Note_on_c, 0, 67, 78
1, 41447, Note_on_c, 0, 67, 0
1, 41448, Note_on_c, 0, 65, 79
1, 41471, Note_on_c, 0, 65, 0
1, 41472, Note_on_c, 0, 63, 79
1, 41472, Note_on_c, 1, 60, 79
1, 41495, Note_on_c, 0, 63, 0
1, 41496, Note_on_c, 0, 70, 79
1, 41511, Note_on_c, 1, 60, 0
1, 41519, Note_on_c, 0, 70, 0
1, 41520, Note_on_c, 0, 68, 80
1, 41543, Note_on_c, 0, 68, 0
1, 41544, Note_on_c, 0, 67, 80
1, 41567, Note_on_c, 0, 67, 0
1, 41568, Note_on_c, 0, 65, 80
1, 41568, Note_on_c, 1, 62, 80
1, 41591, Note_on_c, 0, 65, 0
1, 41592, Note_on_c, 0, 72, 81
1, 41607, Note_on_c, 1, 62, 0
1, 41615, Note_on_c, 0, 72, 0
1, 41616, Note_on_c, 0, 70, 81
1, 41639, Note_on_c, 0, 70, 0
1, 41640, Note_on_c, 0, 68, 81
1, 41663, Note_on_c, 0, 68, 0
1, 41664, Note_on_c, 0, 67, 82
1, 41664, Note_on_c, 1, 63, 81
1, 41687, Note_on_c, 0, 67, 0
1, 41688, Note_on_c, 0, 79, 82
1, 41711, Note_on_c, 0, 79, 0
1, 41712, Note_on_c, 0, 77, 82
1, 41735, Note_on_c, 0, 77, 0
1, 41736, Note_on_c, 0, 75, 83
1, 41753, Note_on_c, 1, 63, 0
1, 41759, Note_on_c, 0, 75, 0
1, 41760, Note_on_c, 0, 74, 83
1, 41760, Note_on_c, 1, 65, 82
1, 41783, Note_on_c, 0, 74, 0
1, 41784, Note_on_c, 0, 84, 83
1, 41807, Note_on_c, 0, 84, 0
1, 41808, Note_on_c, 0, 82, 84
1, 41831, Note_on_c, 0, 82, 0
1, 41832, Note_on_c, 0, 80, 84
1, 41849, Note_on_c, 1, 65, 0
1, 41855, Note_on_c, 0, 80, 0
1, 41856, Note_on_c, 0, 79, 84
1, 41856, Note_on_c, 1, 67, 83
1, 41879, Note_on_c, 0, 79, 0
1, 41880, Note_on_c, 0, 77, 85
1, 41903, Note_on_c, 0, 77, 0
1, 41904, Note_on_c, 0, 75, 85
1, 41927, Note_on_c, 0, 75, 0
1, 41928, Note_on_c, 0, 74, 84
1, 41945, Note_on_c, 1, 67, 0
1, 41951, Note_on_c, 0, 74, 0
1, 41952, Note_on_c, 0, 72, 83
1, 41975, Note_on_c, 0, 72, 0
1, 41976, Note_on_c, 0, 70, 83
1, 41999, Note_on_c, 0, 70, 0
1, 42000, Note_on_c, 0, 68, 82
1, 42023, Note_on_c, 0, 68, 0
1, 42024, Note_on_c, 0, 67, 82
1, 42047, Note_on_c, 0, 67, 0
1, 42048, Note_on_c, 0, 65, 81
1, 42048, Note_on_c, 1, 44, 93
1, 42048, Note_on_c, 1, 56, 64
1, 42093, Note_on_c, 0, 65, 0
1, 42096, Note_on_c, 0, 68, 80
1, 42119, Note_on_c, 0, 68, 0
1, 42120, Note_on_c, 0, 65, 79
1, 42137, Note_on_c, 1, 44, 0
1, 42137, Note_on_c, 1, 56, 0
1, 42143, Note_on_c, 0, 65, 0
1, 42144, Note_on_c, 0, 63, 79
1, 42144, Note_on_c, 1, 46, 93
1, 42144, Note_on_c, 1, 55, 64
1, 42189, Note_on_c, 0, 63, 0
1, 42189, Note_on_c, 1, 46, 0
1, 42189, Note_on_c, 1, 55, 0
1, 42192, Note_on_c, 0, 62, 78
1, 42192, Note_on_c, 1, 46, 93
1, 42192, Note_on_c, 1, 53, 64
1, 42237, Note_on_c, 0, 62, 0
1, 42237, Note_on_c, 1, 46, 0
1, 42237, Note_on_c, 1, 53, 0
1, 42240, Note_on_c, 0, 63, 77
1, 42240, Note_on_c, 1, 51, 93
1, 42285, Note_on_c, 1, 51, 0
1, 42288, Note_on_c, 1, 46, 93
1, 42329, Note_on_c, 0, 63, 0
1, 42333, Note_on_c, 1, 46, 0
1, 42336, Note_on_c, 1, 39, 93
1, 42381, Note_on_c, 1, 39, 0
1, 42384, Note_on_c, 0, 70, 77
1, 42432, Note_on_c, 0, 70, 0
1, 42432, Note_on_c, 0, 67, 77
1, 42477, Note_on_c, 0, 67, 0
1, 42480, Note_on_c, 1, 63, 93
1, 42528, Note_on_c, 1, 63, 0
1, 42528, Note_on_c, 1, 67, 93
1, 42573, Note_on_c, 1, 67, 0
1, 42576, Note_on_c, 0, 70, 77
1, 42624, Note_on_c, 0, 70, 0
1, 42624, Note_on_c, 0, 65, 77
1, 42669, Note_on_c, 0, 65, 0
1, 42672, Note_on_c, 1, 62, 93
1, 42720, Note_on_c, 1, 62, 0
1, 42720, Note_on_c, 1, 65, 93
1, 42765, Note_on_c, 1, 65, 0
1, 42768, Note_on_c, 0, 70, 77
1, 42813, Note_on_c, 0, 70, 0
1, 42816, Note_on_c, 0, 75, 77
1, 42861, Note_on_c, 0, 75, 0
1, 42864, Note_on_c, 0, 68, 93
1, 42864, Note_on_c, 1, 60, 93
1, 42912, Note_on_c, 1, 60, 0
1, 42912, Note_on_c, 1, 58, 93
1, 42957, Note_on_c, 1, 58, 0
1, 42960, Note_on_c, 0, 68, 0
1, 42960, Note_on_c, 0, 67, 77
1, 43005, Note_on_c, 0, 67, 0
1, 43008, Note_on_c, 0, 72, 77
1, 43053, Note_on_c, 0, 72, 0
1, 43056, Note_on_c, 0, 65, 93
1, 43056, Note_on_c, 1, 56, 77
1, 43104, Note_on_c, 1, 56, 0
1, 43104, Note_on_c, 1, 55, 77
1, 43149, Note_on_c, 1, 55, 0
1, 43152, Note_on_c, 0, 65, 0
1, 43152, Note_on_c, 0, 63, 77
1, 43197, Note_on_c, 0, 63, 0
1, 43200, Note_on_c, 0, 62, 79
1, 43245, Note_on_c, 0, 62, 0
1, 43248, Note_on_c, 0, 68, 97
1, 43248, Note_on_c, 1, 53, 77
1, 43293, Note_on_c, 1, 53, 0
1, 43296, Note_on_c, 1, 50, 77
1, 43341, Note_on_c, 1, 50, 0
1, 43344, Note_on_c, 0, 68, 0
1, 43344, Note_on_c, 0, 67, 85
1, 43344, Note_on_c, 1, 51, 77
1, 43389, Note_on_c, 1, 51, 0
1, 43392, Note_on_c, 1, 46, 77
1, 43437, Note_on_c, 0, 67, 0
1, 43437, Note_on_c, 1, 46, 0
1, 43440, Note_on_c, 0, 65, 79
1, 43440, Note_on_c, 1, 58, 77
1, 43485, Note_on_c, 0, 65, 0
1, 43485, Note_on_c, 1, 58, 0
1, 43488, Note_on_c, 1, 46, 77
1, 43533, Note_on_c, 1, 46, 0
1, 43536, Note_on_c, 0, 70, 77
1, 43584, Note_on_c, 0, 70, 0
1, 43584, Note_on_c, 0, 67, 77
1, 43629, Note_on_c, 0, 67, 0
1, 43632, Note_on_c, 1, 63, 93
1, 43680, Note_on_c, 1, 63, 0
1, 43680, Note_on_c, 1, 67, 93
1, 43725, Note_on_c, 1, 67, 0
1, 43728, Note_on_c, 0, 70, 77
1, 43776, Note_on_c, 0, 70, 0
1, 43776, Note_on_c, 0, 65, 77
1, 43821, Note_on_c, 0, 65, 0
1, 43824, Note_on_c, 1, 62, 77
1, 43872, Note_on_c, 1, 62, 0
1, 43872, Note_on_c, 1, 65, 77
1, 43917, Note_on_c, 1, 65, 0
1, 43920, Note_on_c, 0, 70, 77
1, 43965, Note_on_c, 0, 70, 0
1, 43968, Note_on_c, 0, 69, 77
1, 44013, Note_on_c, 0, 69, 0
1, 44016, Note_on_c, 0, 75, 93
1, 44016, Note_on_c, 1, 60, 77
1, 44064, Note_on_c, 1, 60, 0
1, 44064, Note_on_c, 1, 58, 77
1, 44109, Note_on_c, 1, 58, 0
1, 44112, Note_on_c, 0, 75, 0
1, 44112, Note_on_c, 0, 74, 77
1, 44157, Note_on_c, 0, 74, 0
1, 44160, Note_on_c, 0, 67, 77
1, 44205, Note_on_c, 0, 67, 0
1, 44208, Note_on_c, 0, 72, 93
1, 44208, Note_on_c, 1, 63, 77
1, 44256, Note_on_c, 1, 63, 0
1, 44256, Note_on_c, 1, 62, 77
1, 44301, Note_on_c, 1, 62, 0
1, 44304, Note_on_c, 0, 72, 0
1, 44304, Note_on_c, 0, 70, 77
1, 44349, Note_on_c, 0, 70, 0
1, 44352, Note_on_c, 0, 67, 77
1, 44397, Note_on_c, 0, 67, 0
1, 44400, Note_on_c, 0, 79, 93
1, 44400, Note_on_c, 1, 63, 77
1, 44445, Note_on_c, 1, 63, 0
1, 44448, Note_on_c, 1, 60, 77
1, 44493, Note_on_c, 1, 60, 0
1, 44496, Note_on_c, 0, 79, 0
1, 44496, Note_on_c, 0, 69, 77
1, 44496, Note_on_c, 1, 65, 77
1, 44541, Note_on_c, 0, 69, 0
1, 44541, Note_on_c, 1, 65, 0
1, 44544, Note_on_c, 0, 72, 77
1, 44589, Note_on_c, 0, 72, 0
1, 44592, Note_on_c, 0, 70, 77
1, 44592, Note_on_c, 1, 58, 93
1, 44637, Note_on_c, 0, 70, 0
1, 44637, Note_on_c, 1, 58, 0
1, 44640, Note_on_c, 1, 46, 93
1, 44685, Note_on_c, 1, 46, 0
1, 44688, Note_on_c, 0, 70, 77
1, 44733, Note_on_c, 0, 70, 0
1, 44736, Note_on_c, 0, 69, 77
1, 44784, Note_on_c, 0, 69, 0
1, 44784, Note_on_c, 0, 70, 77
1, 44784, Note_on_c, 1, 67, 70
1, 44784, Note_on_c, 1, 63, 70
1, 44829, Note_on_c, 0, 70, 0
1, 44829, Note_on_c, 1, 67, 0
1, 44829, Note_on_c, 1, 63, 0
1, 44832, Note_on_c, 1, 66, 70
1, 44832, Note_on_c, 1, 62, 70
1, 44877, Note_on_c, 1, 66, 0
1, 44877, Note_on_c, 1, 62, 0
1, 44880, Note_on_c, 0, 70, 77
1, 44880, Note_on_c, 1, 67, 70
1, 44880, Note_on_c, 1, 63, 70
1, 44925, Note_on_c, 0, 70, 0
1, 44925, Note_on_c, 1, 67, 0
1, 44925, Note_on_c, 1, 63, 0
1, 44928, Note_on_c, 0, 69, 77
1, 44976, Note_on_c, 0, 69, 0
1, 44976, Note_on_c, 0, 70, 77
1, 44976, Note_on_c, 1, 65, 70
1, 44976, Note_on_c, 1, 62, 70
1, 45021, Note_on_c, 0, 70, 0
1, 45021, Note_on_c, 1, 65, 0
1, 45021, Note_on_c, 1, 62, 0
1, 45024, Note_on_c, 1, 64, 70
1, 45024, Note_on_c, 1, 61, 70
1, 45069, Note_on_c, 1, 64, 0
1, 45069, Note_on_c, 1, 61, 0
1, 45072, Note_on_c, 0, 70, 77
1, 45072, Note_on_c, 1, 65, 70
1, 45072, Note_on_c, 1, 62, 70
1, 45117, Note_on_c, 0, 70, 0
1, 45117, Note_on_c, 1, 65, 0
1, 45117, Note_on_c, 1, 62, 0
1, 45120, Note_on_c, 0, 75, 77
1, 45165, Note_on_c, 0, 75, 0
1, 45168, Note_on_c, 0, 68, 93
1, 45168, Note_on_c, 1, 63, 70
1, 45168, Note_on_c, 1, 60, 70
1, 45216, Note_on_c, 1, 63, 0
1, 45216, Note_on_c, 1, 60, 0
1, 45216, Note_on_c, 1, 62, 70
1, 45216, Note_on_c, 1, 58, 70
1, 45261, Note_on_c, 1, 62, 0
1, 45261, Note_on_c, 1, 58, 0
1, 45264, Note_on_c, 0, 68, 0
1, 45264, Note_on_c, 0, 67, 77
1, 45309, Note_on_c, 0, 67, 0
1, 45312, Note_on_c, 0, 72, 77
1, 45357, Note_on_c, 0, 72, 0
1, 45360, Note_on_c, 0, 65, 93
1, 45360, Note_on_c, 1, 60, 70
1, 45360, Note_on_c, 1, 56, 70
1, 45408, Note_on_c, 1, 60, 0
1, 45408, Note_on_c, 1, 56, 0
1, 45408, Note_on_c, 1, 58, 70
1, 45408, Note_on_c, 1, 55, 70
1, 45453, Note_on_c, 1, 58, 0
1, 45453, Note_on_c, 1, 55, 0
1, 45456, Note_on_c, 0, 65, 0
1, 45456, Note_on_c, 0, 63, 77
1, 45501, Note_on_c, 0, 63, 0
1, 45504, Note_on_c, 0, 62, 77
1, 45549, Note_on_c, 0, 62, 0
1, 45552, Note_on_c, 0, 68, 77
1, 45552, Note_on_c, 0, 65, 77
1, 45552, Note_on_c, 1, 53, 70
1, 45597, Note_on_c, 1, 53, 0
1, 45600, Note_on_c, 1, 50, 70
1, 45641, Note_on_c, 0, 68, 0
1, 45641, Note_on_c, 0, 65, 0
1, 45645, Note_on_c, 1, 50, 0
1, 45648, Note_on_c, 0, 67, 77
1, 45648, Note_on_c, 0, 63, 77
1, 45648, Note_on_c, 1, 51, 70
1, 45693, Note_on_c, 1, 51, 0
1, 45696, Note_on_c, 1, 46, 70
1, 45741, Note_on_c, 0, 67, 0
1, 45741, Note_on_c, 0, 63, 0
1, 45741, Note_on_c, 1, 46, 0
1, 45744, Note_on_c, 0, 65, 77
1, 45744, Note_on_c, 0, 62, 77
1, 45744, Note_on_c, 1, 58, 70
1, 45789, Note_on_c, 0, 65, 0
1, 45789, Note_on_c, 0, 62, 0
1, 45789, Note_on_c, 1, 58, 0
1, 45792, Note_on_c, 1, 46, 70
1, 45837, Note_on_c, 1, 46, 0
1, 45840, Note_on_c, 0, 70, 77
1, 45885, Note_on_c, 0, 70, 0
1, 45888, Note_on_c, 0, 69, 77
1, 45936, Note_on_c, 0, 69, 0
1, 45936, Note_on_c, 0, 70, 77
1, 45936, Note_on_c, 1, 67, 70
1, 45936, Note_on_c, 1, 63, 70
1, 45981, Note_on_c, 0, 70, 0
1, 45981, Note_on_c, 1, 67, 0
1, 45981, Note_on_c, 1, 63, 0
1, 45984, Note_on_c, 1, 66, 70
1, 45984, Note_on_c, 1, 62, 70
1, 46029, Note_on_c, 1, 66, 0
1, 46029, Note_on_c, 1, 62, 0
1, 46032, Note_on_c, 0, 70, 77
1, 46032, Note_on_c, 1, 67, 70
1, 46032, Note_on_c, 1, 63, 70
1, 46077, Note_on_c, 0, 70, 0
1, 46077, Note_on_c, 1, 67, 0
1, 46077, Note_on_c, 1, 63, 0
1, 46080, Note_on_c, 0, 69, 77
1, 46128, Note_on_c, 0, 69, 0
1, 46128, Note_on_c, 0, 70, 77
1, 46128, Note_on_c, 1, 65, 70
1, 46128, Note_on_c, 1, 62, 70
1, 46173, Note_on_c, 0, 70, 0
1, 46173, Note_on_c, 1, 65, 0
1, 46173, Note_on_c, 1, 62, 0
1, 46176, Note_on_c, 1, 64, 70
1, 46176, Note_on_c, 1, 61, 70
1, 46221, Note_on_c, 1, 64, 0
1, 46221, Note_on_c, 1, 61, 0
1, 46224, Note_on_c, 0, 70, 77
1, 46224, Note_on_c, 1, 65, 70
1, 46224, Note_on_c, 1, 62, 70
1, 46269, Note_on_c, 0, 70, 0
1, 46269, Note_on_c, 1, 65, 0
1, 46269, Note_on_c, 1, 62, 0
1, 46272, Note_on_c, 0, 69, 77
1, 46317, Note_on_c, 0, 69, 0
1, 46320, Note_on_c, 0, 75, 93
1, 46320, Note_on_c, 1, 60, 70
1, 46368, Note_on_c, 1, 60, 0
1, 46368, Note_on_c, 1, 58, 70
1, 46413, Note_on_c, 1, 58, 0
1, 46416, Note_on_c, 0, 75, 0
1, 46416, Note_on_c, 0, 74, 77
1, 46461, Note_on_c, 0, 74, 0
1, 46464, Note_on_c, 0, 67, 77
1, 46509, Note_on_c, 0, 67, 0
1, 46512, Note_on_c, 0, 72, 93
1, 46512, Note_on_c, 1, 67, 70
1, 46512, Note_on_c, 1, 63, 70
1, 46560, Note_on_c, 1, 67, 0
1, 46560, Note_on_c, 1, 63, 0
1, 46560, Note_on_c, 1, 65, 70
1, 46560, Note_on_c, 1, 62, 70
1, 46605, Note_on_c, 1, 65, 0
1, 46605, Note_on_c, 1, 62, 0
1, 46608, Note_on_c, 0, 72, 0
1, 46608, Note_on_c, 0, 70, 77
1, 46653, Note_on_c, 0, 70, 0
1, 46656, Note_on_c, 0, 67, 77
1, 46701, Note_on_c, 0, 67, 0
1, 46704, Note_on_c, 0, 79, 93
1, 46704, Note_on_c, 0, 75, 93
1, 46704, Note_on_c, 1, 63, 70
1, 46749, Note_on_c, 1, 63, 0
1, 46752, Note_on_c, 1, 60, 70
1, 46797, Note_on_c, 1, 60, 0
1, 46800, Note_on_c, 0, 79, 0
1, 46800, Note_on_c, 0, 75, 0
1, 46800, Note_on_c, 0, 72, 77
1, 46800, Note_on_c, 0, 69, 77
1, 46800, Note_on_c, 1, 65, 70
1, 46845, Note_on_c, 1, 65, 0
1, 46848, Note_on_c, 1, 58, 70
1, 46893, Note_on_c, 0, 72, 0
1, 46893, Note_on_c, 0, 69, 0
1, 46896, Note_on_c, 0, 74, 77
1, 46896, Note_on_c, 0, 70, 77
1, 46937, Note_on_c, 1, 58, 0
1, 46941, Note_on_c, 0, 74, 0
1, 46941, Note_on_c, 0, 70, 0
1, 46944, Note_on_c, 1, 46, 70
1, 46992, Note_on_c, 0, 74, 77
1, 47033, Note_on_c, 1, 46, 0
1, 47040, Note_on_c, 0, 74, 0
1, 47040, Note_on_c, 0, 77, 77
1, 47085, Note_on_c, 0, 77, 0
1, 47088, Note_on_c, 1, 58, 77
1, 47136, Note_on_c, 1, 58, 0
1, 47136, Note_on_c, 1, 62, 77
1, 47181, Note_on_c, 1, 62, 0
1, 47184, Note_on_c, 0, 68, 77
1, 47232, Note_on_c, 0, 68, 0
1, 47232, Note_on_c, 0, 67, 77
1, 47277, Note_on_c, 0, 67, 0
1, 47280, Note_on_c, 1, 63, 77
1, 47328, Note_on_c, 1, 63, 0
1, 47328, Note_on_c, 1, 67, 77
1, 47373, Note_on_c, 1, 67, 0
1, 47376, Note_on_c, 0, 70, 77
1, 47424, Note_on_c, 0, 70, 0
1, 47424, Note_on_c, 0, 72, 77
1, 47469, Note_on_c, 0, 72, 0
1, 47472, Note_on_c, 1, 56, 77
1, 47520, Note_on_c, 1, 56, 0
1, 47520, Note_on_c, 1, 60, 77
1, 47565, Note_on_c, 1, 60, 0
1, 47568, Note_on_c, 0, 63, 77
1, 47616, Note_on_c, 0, 63, 0
1, 47616, Note_on_c, 0, 62, 77
1, 47661, Note_on_c, 0, 62, 0
1, 47664, Note_on_c, 1, 58, 77
1, 47712, Note_on_c, 1, 58, 0
1, 47712, Note_on_c, 1, 46, 77
1, 47757, Note_on_c, 1, 46, 0
1, 47760, Note_on_c, 0, 58, 77
1, 47805, Note_on_c, 0, 58, 0
1, 47808, Note_on_c, 0, 60, 77
1, 47853, Note_on_c, 0, 60, 0
1, 47856, Note_on_c, 0, 65, 93
1, 47856, Note_on_c, 1, 56, 70
1, 47904, Note_on_c, 1, 56, 0
1, 47904, Note_on_c, 1, 55, 70
1, 47949, Note_on_c, 1, 55, 0
1, 47952, Note_on_c, 0, 65, 0
1, 47952, Note_on_c, 0, 63, 78
1, 47997, Note_on_c, 0, 63, 0
1, 48000, Note_on_c, 0, 62, 78
1, 48045, Note_on_c, 0, 62, 0
1, 48048, Note_on_c, 0, 68, 95
1, 48048, Note_on_c, 1, 60, 79
1, 48096, Note_on_c, 1, 60, 0
1, 48096, Note_on_c, 1, 58, 79
1, 48141, Note_on_c, 1, 58, 0
1, 48144, Note_on_c, 0, 68, 0
1, 48144, Note_on_c, 0, 67, 80
1, 48189, Note_on_c, 0, 67, 0
1, 48192, Note_on_c, 0, 65, 80
1, 48237, Note_on_c, 0, 65, 0
1, 48240, Note_on_c, 0, 72, 81
1, 48240, Note_on_c, 1, 68, 81
1, 48288, Note_on_c, 1, 68, 0
1, 48288, Note_on_c, 1, 67, 81
1, 48329, Note_on_c, 0, 72, 0
1, 48333, Note_on_c, 1, 67, 0
1, 48336, Note_on_c, 0, 70, 82
1, 48381, Note_on_c, 0, 70, 0
1, 48384, Note_on_c, 0, 68, 82
1, 48429, Note_on_c, 0, 68, 0
1, 48432, Note_on_c, 0, 80, 83
1, 48432, Note_on_c, 1, 65, 83
1, 48477, Note_on_c, 1, 65, 0
1, 48480, Note_on_c, 1, 62, 83
1, 48521, Note_on_c, 0, 80, 0
1, 48525, Note_on_c, 1, 62, 0
1, 48528, Note_on_c, 0, 79, 84
1, 48528, Note_on_c, 1, 63, 84
1, 48573, Note_on_c, 1, 63, 0
1, 48576, Note_on_c, 1, 56, 85
1, 48621, Note_on_c, 0, 79, 0
1, 48624, Note_on_c, 0, 77, 85
1, 48665, Note_on_c, 1, 56, 0
1, 48669, Note_on_c, 0, 77, 0
1, 48672, Note_on_c, 0, 80, 83
1, 48717, Note_on_c, 0, 80, 0
1, 48720, Note_on_c, 0, 74, 81
1, 48720, Note_on_c, 1, 58, 83
1, 48765, Note_on_c, 0, 74, 0
1, 48765, Note_on_c, 1, 58, 0
1, 48768, Note_on_c, 0, 77, 80
1, 48768, Note_on_c, 1, 51, 81
1, 48813, Note_on_c, 1, 51, 0
1, 48816, Note_on_c, 0, 77, 0
1, 48816, Note_on_c, 0, 75, 78
1, 48816, Note_on_c, 1, 63, 79
1, 48861, Note_on_c, 0, 75, 0
1, 48861, Note_on_c, 1, 63, 0
1, 48864, Note_on_c, 1, 51, 77
1, 48909, Note_on_c, 1, 51, 0
1, 48912, Note_on_c, 0, 74, 77
1, 48912, Note_on_c, 0, 65, 77
1, 48960, Note_on_c, 0, 74, 0
1, 48960, Note_on_c, 0, 65, 0
1, 48960, Note_on_c, 0, 77, 77
1, 48960, Note_on_c, 0, 68, 77
1, 49005, Note_on_c, 0, 77, 0
1, 49005, Note_on_c, 0, 68, 0
1, 49008, Note_on_c, 1, 46, 70
1, 49056, Note_on_c, 1, 46, 0
1, 49056, Note_on_c, 1, 58, 70
1, 49101, Note_on_c, 1, 58, 0
1, 49104, Note_on_c, 0, 68, 77
1, 49104, Note_on_c, 0, 65, 77
1, 49152, Note_on_c, 0, 68, 0
1, 49152, Note_on_c, 0, 65, 0
1, 49152, Note_on_c, 0, 67, 77
1, 49152, Note_on_c, 0, 63, 77
1, 49197, Note_on_c, 0, 67, 0
1, 49197, Note_on_c, 0, 63, 0
1, 49200, Note_on_c, 1, 39, 70
1, 49248, Note_on_c, 1, 39, 0
1, 49248, Note_on_c, 1, 51, 70
1, 49293, Note_on_c, 1, 51, 0
1, 49296, Note_on_c, 0, 70, 77
1, 49296, Note_on_c, 0, 67, 77
1, 49344, Note_on_c, 0, 70, 0
1, 49344, Note_on_c, 0, 67, 0
1, 49344, Note_on_c, 0, 72, 77
1, 49344, Note_on_c, 0, 68, 77
1, 49389, Note_on_c, 0, 72, 0
1, 49389, Note_on_c, 0, 68, 0
1, 49392, Note_on_c, 1, 32, 70
1, 49440, Note_on_c, 1, 32, 0
1, 49440, Note_on_c, 1, 44, 70
1, 49485, Note_on_c, 1, 44, 0
1, 49488, Note_on_c, 0, 63, 77
1, 49488, Note_on_c, 0, 60, 77
1, 49536, Note_on_c, 0, 63, 0
1, 49536, Note_on_c, 0, 60, 0
1, 49536, Note_on_c, 0, 62, 77
1, 49536, Note_on_c, 0, 58, 77
1, 49581, Note_on_c, 0, 62, 0
1, 49581, Note_on_c, 0, 58, 0
1, 49584, Note_on_c, 1, 34, 70
1, 49632, Note_on_c, 1, 34, 0
1, 49632, Note_on_c, 1, 46, 70
1, 49677, Note_on_c, 1, 46, 0
1, 49680, Note_on_c, 0, 58, 77
1, 49725, Note_on_c, 0, 58, 0
1, 49728, Note_on_c, 0, 60, 77
1, 49773, Note_on_c, 0, 60, 0
1, 49776, Note_on_c, 0, 65, 93
1, 49776, Note_on_c, 1, 60, 70
1, 49776, Note_on_c, 1, 56, 70
1, 49824, Note_on_c, 1, 60, 0
1, 49824, Note_on_c, 1, 56, 0
1, 49824, Note_on_c, 1, 58, 70
1, 49824, Note_on_c, 1, 55, 70
1, 49869, Note_on_c, 1, 58, 0
1, 49869, Note_on_c, 1, 55, 0
1, 49872, Note_on_c, 0, 65, 0
1, 49872, Note_on_c, 0, 63, 78
1, 49917, Note_on_c, 0, 63, 0
1, 49920, Note_on_c, 0, 62, 78
1, 49965, Note_on_c, 0, 62, 0
1, 49968, Note_on_c, 0, 68, 95
1, 49968, Note_on_c, 1, 63, 72
1, 49968, Note_on_c, 1, 60, 72
1, 50016, Note_on_c, 1, 63, 0
1, 50016, Note_on_c, 1, 60, 0
1, 50016, Note_on_c, 1, 62, 72
1, 50016, Note_on_c, 1, 58, 72
1, 50061, Note_on_c, 1, 62, 0
1, 50061, Note_on_c, 1, 58, 0
1, 50064, Note_on_c, 0, 68, 0
1, 50064, Note_on_c, 0, 67, 80
1, 50109, Note_on_c, 0, 67, 0
1, 50112, Note_on_c, 0, 65, 81
1, 50157, Note_on_c, 0, 65, 0
1, 50160, Note_on_c, 0, 72, 97
1, 50160, Note_on_c, 0, 68, 97
1, 50160, Note_on_c, 1, 62, 74
1, 50208, Note_on_c, 1, 62, 0
1, 50208, Note_on_c, 1, 63, 75
1, 50253, Note_on_c, 1, 63, 0
1, 50256, Note_on_c, 0, 72, 0
1, 50256, Note_on_c, 0, 68, 0
1, 50256, Note_on_c, 0, 70, 82
1, 50256, Note_on_c, 0, 67, 82
1, 50301, Note_on_c, 0, 70, 0
1, 50301, Note_on_c, 0, 67, 0
1, 50304, Note_on_c, 0, 68, 83
1, 50304, Note_on_c, 0, 65, 83
1, 50349, Note_on_c, 0, 68, 0
1, 50349, Note_on_c, 0, 65, 0
1, 50352, Note_on_c, 0, 84, 99
1, 50352, Note_on_c, 0, 80, 99
1, 50352, Note_on_c, 1, 50, 77
1, 50400, Note_on_c, 1, 50, 0
1, 50400, Note_on_c, 1, 51, 77
1, 50445, Note_on_c, 1, 51, 0
1, 50448, Note_on_c, 0, 84, 0
1, 50448, Note_on_c, 0, 80, 0
1, 50448, Note_on_c, 0, 82, 85
1, 50448, Note_on_c, 0, 79, 85
1, 50496, Note_on_c, 1, 56, 75
1, 50496, Note_on_c, 1, 44, 75
1, 50541, Note_on_c, 0, 82, 0
1, 50541, Note_on_c, 0, 79, 0
1, 50544, Note_on_c, 0, 80, 81
1, 50544, Note_on_c, 0, 77, 81
1, 50585, Note_on_c, 1, 56, 0
1, 50585, Note_on_c, 1, 44, 0
1, 50589, Note_on_c, 0, 80, 0
1, 50589, Note_on_c, 0, 77, 0
1, 50592, Note_on_c, 0, 79, 80
1, 50592, Note_on_c, 0, 75, 80
1, 50592, Note_on_c, 1, 58, 72
1, 50592, Note_on_c, 1, 46, 72
1, 50637, Note_on_c, 0, 79, 0
1, 50637, Note_on_c, 0, 75, 0
1, 50640, Note_on_c, 0, 77, 78
1, 50640, Note_on_c, 0, 74, 78
1, 50681, Note_on_c, 1, 58, 0
1, 50681, Note_on_c, 1, 46, 0
1, 50685, Note_on_c, 0, 77, 0
1, 50685, Note_on_c, 0, 74, 0
1, 50688, Note_on_c, 0, 75, 77
1, 50688, Note_on_c, 1, 51, 70
1, 50688, Note_on_c, 1, 39, 70
1, 50821, Note_on_c, 0, 75, 0
1, 50821, Note_on_c, 1, 51, 0
1, 50821, Note_on_c, 1, 39, 0
1, 50880, Note_on_c, 1, 51, 54
1, 50969, Note_on_c, 1, 51, 0
1, 50979, End_track
0, 0, End_of_file