0, 0, Header, 0, 1, 96
1, 0, Start_track
1, 0, Tempo, 375000
1, 0, Note_on_c, 0, 76, 75
1, 0, Note_on_c, 0, 73, 75
1, 39, Note_on_c, 0, 76, 0
1, 39, Note_on_c, 0, 73, 0
1, 96, Note_on_c, 0, 73, 75
1, 96, Note_on_c, 0, 69, 75
1, 135, Note_on_c, 0, 73, 0
1, 135, Note_on_c, 0, 69, 0
1, 192, Note_on_c, 1, 56, 75
1, 215, Note_on_c, 1, 56, 0
1, 216, Note_on_c, 1, 57, 75
1, 239, Note_on_c, 1, 57, 0
1, 240, Note_on_c, 1, 56, 75
1, 263, Note_on_c, 1, 56, 0
1, 264, Note_on_c, 1, 57, 75
1, 287, Note_on_c, 1, 57, 0
1, 288, Note_on_c, 1, 45, 75
1, 327, Note_on_c, 1, 45, 0
1, 384, Note_on_c, 0, 78, 75
1, 384, Note_on_c, 0, 74, 75
1, 423, Note_on_c, 0, 78, 0
1, 423, Note_on_c, 0, 74, 0
1, 480, Note_on_c, 0, 74, 75
1, 480, Note_on_c, 0, 71, 75
1, 519, Note_on_c, 0, 74, 0
1, 519, Note_on_c, 0, 71, 0
1, 576, Note_on_c, 1, 56, 75
1, 599, Note_on_c, 1, 56, 0
1, 600, Note_on_c, 1, 57, 75
1, 623, Note_on_c, 1, 57, 0
1, 624, Note_on_c, 1, 56, 75
1, 647, Note_on_c, 1, 56, 0
1, 648, Note_on_c, 1, 57, 75
1, 671, Note_on_c, 1, 57, 0
1, 672, Note_on_c, 1, 45, 75
1, 711, Note_on_c, 1, 45, 0
1, 768, Note_on_c, 0, 76, 75
1, 768, Note_on_c, 0, 73, 75
1, 807, Note_on_c, 0, 76, 0
1, 807, Note_on_c, 0, 73, 0
1, 864, Note_on_c, 0, 73, 75
1, 864, Note_on_c, 0, 69, 75
1, 903, Note_on_c, 0, 73, 0
1, 903, Note_on_c, 0, 69, 0
1, 1056, Note_on_c, 0, 71, 75
1, 1056, Note_on_c, 0, 68, 75
1, 1123, Note_on_c, 0, 71, 0
1, 1123, Note_on_c, 0, 68, 0
1, 1128, Note_on_c, 0, 73, 75
1, 1128, Note_on_c, 0, 69, 75
1, 1151, Note_on_c, 0, 73, 0
1, 1151, Note_on_c, 0, 69, 0
1, 1152, Note_on_c, 0, 74, 75
1, 1152, Note_on_c, 0, 71, 75
1, 1219, Note_on_c, 0, 74, 0
1, 1219, Note_on_c, 0, 71, 0
1, 1224, Note_on_c, 0, 76, 75
1, 1224, Note_on_c, 0, 73, 75
1, 1234, Note_on_c, 0, 76, 0
1, 1234, Note_on_c, 0, 73, 0
1, 1248, Note_on_c, 0, 74, 75
1, 1248, Note_on_c, 0, 71, 75
1, 1315, Note_on_c, 0, 74, 0
1, 1315, Note_on_c, 0, 71, 0
1, 1320, Note_on_c, 0, 74, 75
1, 1320, Note_on_c, 0, 71, 75
1, 1343, Note_on_c, 0, 74, 0
1, 1343, Note_on_c, 0, 71, 0
1, 1344, Note_on_c, 0, 74, 75
1, 1344, Note_on_c, 0, 71, 75
1, 1344, Note_on_c, 1, 59, 75
1, 1344, Note_on_c, 1, 52, 75
1, 1389, Note_on_c, 0, 74, 0
1, 1389, Note_on_c, 0, 71, 0
1, 1392, Note_on_c, 0, 83, 76
1, 1437, Note_on_c, 0, 83, 0
1, 1440, Note_on_c, 0, 80, 77
1, 1485, Note_on_c, 0, 80, 0
1, 1488, Note_on_c, 0, 74, 78
1, 1521, Note_on_c, 1, 59, 0
1, 1521, Note_on_c, 1, 52, 0
1, 1533, Note_on_c, 0, 74, 0
1, 1536, Note_on_c, 0, 74, 80
1, 1536, Note_on_c, 0, 71, 80
1, 1584, Note_on_c, 1, 45, 75
1, 1629, Note_on_c, 1, 45, 0
1, 1632, Note_on_c, 1, 49, 75
1, 1677, Note_on_c, 1, 49, 0
1, 1680, Note_on_c, 1, 52, 75
1, 1725, Note_on_c, 1, 52, 0
1, 1728, Note_on_c, 0, 74, 0
1, 1728, Note_on_c, 0, 71, 0
1, 1728, Note_on_c, 0, 73, 76
1, 1728, Note_on_c, 0, 69, 76
1, 1728, Note_on_c, 1, 57, 75
1, 1817, Note_on_c, 0, 73, 0
1, 1817, Note_on_c, 0, 69, 0
1, 1817, Note_on_c, 1, 57, 0
1, 1920, Note_on_c, 0, 66, 75
1, 1938, Note_on_c, 0, 66, 0
1, 1938, Note_on_c, 0, 64, 75
1, 1956, Note_on_c, 0, 64, 0
1, 1956, Note_on_c, 0, 66, 75
1, 2016, Note_on_c, 1, 62, 75
1, 2039, Note_on_c, 1, 62, 0
1, 2040, Note_on_c, 1, 61, 75
1, 2063, Note_on_c, 1, 61, 0
1, 2064, Note_on_c, 1, 62, 75
1, 2087, Note_on_c, 1, 62, 0
1, 2088, Note_on_c, 1, 61, 75
1, 2111, Note_on_c, 1, 61, 0
1, 2112, Note_on_c, 1, 62, 75
1, 2179, Note_on_c, 0, 66, 0
1, 2184, Note_on_c, 0, 66, 75
1, 2201, Note_on_c, 1, 62, 0
1, 2207, Note_on_c, 0, 66, 0
1, 2208, Note_on_c, 0, 74, 75
1, 2275, Note_on_c, 0, 74, 0
1, 2280, Note_on_c, 0, 71, 75
1, 2303, Note_on_c, 0, 71, 0
1, 2304, Note_on_c, 0, 69, 75
1, 2322, Note_on_c, 0, 69, 0
1, 2322, Note_on_c, 0, 68, 75
1, 2340, Note_on_c, 0, 68, 0
1, 2340, Note_on_c, 0, 69, 75
1, 2400, Note_on_c, 1, 64, 75
1, 2423, Note_on_c, 1, 64, 0
1, 2424, Note_on_c, 1, 63, 75
1, 2447, Note_on_c, 1, 63, 0
1, 2448, Note_on_c, 1, 64, 75
1, 2471, Note_on_c, 1, 64, 0
1, 2472, Note_on_c, 1, 63, 75
1, 2495, Note_on_c, 1, 63, 0
1, 2496, Note_on_c, 0, 69, 0
1, 2496, Note_on_c, 0, 68, 75
1, 2496, Note_on_c, 1, 64, 75
1, 2585, Note_on_c, 0, 68, 0
1, 2585, Note_on_c, 1, 64, 0
1, 2592, Note_on_c, 0, 80, 75
1, 2615, Note_on_c, 0, 80, 0
1, 2616, Note_on_c, 0, 78, 75
1, 2639, Note_on_c, 0, 78, 0
1, 2640, Note_on_c, 0, 76, 75
1, 2663, Note_on_c, 0, 76, 0
1, 2664, Note_on_c, 0, 74, 75
1, 2687, Note_on_c, 0, 74, 0
1, 2688, Note_on_c, 0, 73, 75
1, 2784, Note_on_c, 1, 68, 75
1, 2807, Note_on_c, 1, 68, 0
1, 2808, Note_on_c, 1, 66, 75
1, 2831, Note_on_c, 1, 66, 0
1, 2832, Note_on_c, 1, 68, 75
1, 2855, Note_on_c, 1, 68, 0
1, 2856, Note_on_c, 1, 66, 75
1, 2879, Note_on_c, 1, 66, 0
1, 2880, Note_on_c, 0, 73, 0
1, 2880, Note_on_c, 0, 71, 75
1, 2880, Note_on_c, 1, 68, 75
1, 2910, Note_on_c, 0, 71, 0
1, 2912, Note_on_c, 0, 80, 75
1, 2942, Note_on_c, 0, 80, 0
1, 2944, Note_on_c, 0, 81, 75
1, 2969, Note_on_c, 1, 68, 0
1, 2974, Note_on_c, 0, 81, 0
1, 2976, Note_on_c, 0, 83, 75
1, 3006, Note_on_c, 0, 83, 0
1, 3008, Note_on_c, 0, 80, 75
1, 3038, Note_on_c, 0, 80, 0
1, 3040, Note_on_c, 0, 76, 75
1, 3070, Note_on_c, 0, 76, 0
1, 3072, Note_on_c, 0, 73, 75
1, 3102, Note_on_c, 0, 73, 0
1, 3104, Note_on_c, 0, 81, 75
1, 3120, Note_on_c, 1, 49, 75
1, 3134, Note_on_c, 0, 81, 0
1, 3136, Note_on_c, 0, 76, 75
1, 3165, Note_on_c, 1, 49, 0
1, 3166, Note_on_c, 0, 76, 0
1, 3168, Note_on_c, 0, 78, 75
1, 3168, Note_on_c, 1, 50, 75
1, 3198, Note_on_c, 0, 78, 0
1, 3200, Note_on_c, 0, 74, 75
1, 3213, Note_on_c, 1, 50, 0
1, 3216, Note_on_c, 1, 54, 75
1, 3230, Note_on_c, 0, 74, 0
1, 3232, Note_on_c, 0, 71, 75
1, 3261, Note_on_c, 1, 54, 0
1, 3262, Note_on_c, 0, 71, 0
1, 3264, Note_on_c, 0, 69, 75
1, 3264, Note_on_c, 0, 61, 75
1, 3264, Note_on_c, 1, 52, 75
1, 3353, Note_on_c, 1, 52, 0
1, 3360, Tempo, 468750
1, 3360, Note_on_c, 0, 69, 0
1, 3360, Note_on_c, 0, 61, 0
1, 3360, Note_on_c, 0, 68, 75
1, 3360, Note_on_c, 0, 59, 75
1, 3360, Note_on_c, 1, 40, 75
1, 3427, Note_on_c, 0, 68, 0
1, 3427, Note_on_c, 0, 59, 0
1, 3427, Note_on_c, 1, 40, 0
1, 3456, Tempo, 400000
1, 3456, Note_on_c, 0, 64, 75
1, 3456, Note_on_c, 0, 61, 75
1, 3495, Note_on_c, 0, 64, 0
1, 3495, Note_on_c, 0, 61, 0
1, 3552, Note_on_c, 0, 61, 75
1, 3552, Note_on_c, 0, 57, 75
1, 3591, Note_on_c, 0, 61, 0
1, 3591, Note_on_c, 0, 57, 0
1, 3648, Note_on_c, 1, 56, 75
1, 3671, Note_on_c, 1, 56, 0
1, 3672, Note_on_c, 1, 57, 75
1, 3695, Note_on_c, 1, 57, 0
1, 3696, Note_on_c, 1, 56, 75
1, 3719, Note_on_c, 1, 56, 0
1, 3720, Note_on_c, 1, 57, 75
1, 3743, Note_on_c, 1, 57, 0
1, 3744, Note_on_c, 1, 45, 75
1, 3783, Note_on_c, 1, 45, 0
1, 3840, Note_on_c, 0, 66, 75
1, 3840, Note_on_c, 0, 62, 75
1, 3879, Note_on_c, 0, 66, 0
1, 3879, Note_on_c, 0, 62, 0
1, 3936, Note_on_c, 0, 62, 75
1, 3936, Note_on_c, 0, 59, 75
1, 3975, Note_on_c, 0, 62, 0
1, 3975, Note_on_c, 0, 59, 0
1, 4032, Note_on_c, 1, 56, 75
1, 4055, Note_on_c, 1, 56, 0
1, 4056, Note_on_c, 1, 57, 75
1, 4079, Note_on_c, 1, 57, 0
1, 4080, Note_on_c, 1, 56, 75
1, 4103, Note_on_c, 1, 56, 0
1, 4104, Note_on_c, 1, 57, 75
1, 4127, Note_on_c, 1, 57, 0
1, 4128, Note_on_c, 1, 45, 75
1, 4167, Note_on_c, 1, 45, 0
1, 4224, Note_on_c, 0, 67, 75
1, 4224, Note_on_c, 0, 64, 75
1, 4263, Note_on_c, 0, 67, 0
1, 4263, Note_on_c, 0, 64, 0
1, 4320, Note_on_c, 0, 64, 75
1, 4320, Note_on_c, 0, 61, 75
1, 4359, Note_on_c, 0, 64, 0
1, 4359, Note_on_c, 0, 61, 0
1, 4608, Note_on_c, 0, 78, 64
1, 4626, Note_on_c, 0, 78, 0
1, 4626, Note_on_c, 0, 79, 64
1, 4644, Note_on_c, 0, 79, 0
1, 4644, Note_on_c, 0, 81, 64
1, 4662, Note_on_c, 0, 81, 0
1, 4662, Note_on_c, 0, 79, 80
1, 4704, Note_on_c, 1, 73, 58
1, 4704, Note_on_c, 1, 70, 58
1, 4743, Note_on_c, 1, 73, 0
1, 4743, Note_on_c, 1, 70, 0
1, 4800, Note_on_c, 1, 73, 63
1, 4800, Note_on_c, 1, 70, 63
1, 4839, Note_on_c, 1, 73, 0
1, 4839, Note_on_c, 1, 70, 0
1, 4845, Note_on_c, 0, 79, 0
1, 4848, Note_on_c, 0, 79, 71
1, 4893, Note_on_c, 0, 79, 0
1, 4896, Note_on_c, 0, 78, 73
1, 4896, Note_on_c, 1, 73, 69
1, 4896, Note_on_c, 1, 70, 69
1, 4935, Note_on_c, 1, 73, 0
1, 4935, Note_on_c, 1, 70, 0
1, 4941, Note_on_c, 0, 78, 0
1, 4944, Note_on_c, 0, 76, 75
1, 4989, Note_on_c, 0, 76, 0
1, 4992, Note_on_c, 0, 75, 89
1, 5088, Note_on_c, 1, 71, 70
1, 5088, Note_on_c, 1, 69, 70
1, 5136, Note_on_c, 0, 75, 0
1, 5136, Note_on_c, 0, 76, 68
1, 5159, Note_on_c, 0, 76, 0
1, 5160, Note_on_c, 0, 78, 67
1, 5177, Note_on_c, 1, 71, 0
1, 5177, Note_on_c, 1, 69, 0
1, 5183, Note_on_c, 0, 78, 0
1, 5184, Note_on_c, 0, 76, 67
1, 5184, Note_on_c, 1, 71, 66
1, 5184, Note_on_c, 1, 68, 66
1, 5223, Note_on_c, 1, 71, 0
1, 5223, Note_on_c, 1, 68, 0
1, 5273, Note_on_c, 0, 76, 0
1, 5280, Note_on_c, 1, 71, 62
1, 5280, Note_on_c, 1, 68, 62
1, 5319, Note_on_c, 1, 71, 0
1, 5319, Note_on_c, 1, 68, 0
1, 5376, Note_on_c, 0, 76, 64
1, 5394, Note_on_c, 0, 76, 0
1, 5394, Note_on_c, 0, 77, 64
1, 5412, Note_on_c, 0, 77, 0
1, 5412, Note_on_c, 0, 79, 64
1, 5430, Note_on_c, 0, 79, 0
1, 5430, Note_on_c, 0, 77, 80
1, 5472, Note_on_c, 1, 71, 58
1, 5472, Note_on_c, 1, 68, 58
1, 5511, Note_on_c, 1, 71, 0
1, 5511, Note_on_c, 1, 68, 0
1, 5568, Note_on_c, 1, 71, 60
1, 5568, Note_on_c, 1, 68, 60
1, 5607, Note_on_c, 1, 71, 0
1, 5607, Note_on_c, 1, 68, 0
1, 5613, Note_on_c, 0, 77, 0
1, 5616, Note_on_c, 0, 77, 71
1, 5661, Note_on_c, 0, 77, 0
1, 5664, Note_on_c, 0, 76, 73
1, 5664, Note_on_c, 1, 71, 62
1, 5664, Note_on_c, 1, 68, 62
1, 5703, Note_on_c, 1, 71, 0
1, 5703, Note_on_c, 1, 68, 0
1, 5709, Note_on_c, 0, 76, 0
1, 5712, Note_on_c, 0, 74, 75
1, 5757, Note_on_c, 0, 74, 0
1, 5760, Note_on_c, 0, 73, 89
1, 5856, Note_on_c, 1, 70, 67
1, 5856, Note_on_c, 1, 67, 67
1, 5904, Note_on_c, 0, 73, 0
1, 5904, Note_on_c, 0, 74, 67
1, 5927, Note_on_c, 0, 74, 0
1, 5928, Note_on_c, 0, 76, 66
1, 5945, Note_on_c, 1, 70, 0
1, 5945, Note_on_c, 1, 67, 0
1, 5951, Note_on_c, 0, 76, 0
1, 5952, Note_on_c, 0, 74, 65
1, 5952, Note_on_c, 1, 69, 70
1, 5952, Note_on_c, 1, 66, 70
1, 5991, Note_on_c, 1, 69, 0
1, 5991, Note_on_c, 1, 66, 0
1, 5997, Note_on_c, 0, 74, 0
1, 6000, Note_on_c, 0, 86, 80
1, 6000, Note_on_c, 0, 81, 80
1, 6000, Note_on_c, 0, 78, 80
1, 6020, Note_on_c, 0, 86, 0
1, 6020, Note_on_c, 0, 81, 0
1, 6020, Note_on_c, 0, 78, 0
1, 6048, Note_on_c, 0, 85, 64
1, 6048, Note_on_c, 0, 80, 64
1, 6048, Note_on_c, 0, 76, 64
1, 6068, Note_on_c, 0, 85, 0
1, 6068, Note_on_c, 0, 80, 0
1, 6068, Note_on_c, 0, 76, 0
1, 6096, Note_on_c, 0, 83, 64
1, 6096, Note_on_c, 0, 78, 64
1, 6096, Note_on_c, 0, 74, 64
1, 6116, Note_on_c, 0, 83, 0
1, 6116, Note_on_c, 0, 78, 0
1, 6116, Note_on_c, 0, 74, 0
1, 6144, Note_on_c, 0, 81, 75
1, 6144, Note_on_c, 0, 76, 75
1, 6144, Note_on_c, 0, 73, 75
1, 6164, Note_on_c, 0, 81, 0
1, 6164, Note_on_c, 0, 76, 0
1, 6164, Note_on_c, 0, 73, 0
1, 6192, Note_on_c, 0, 80, 75
1, 6192, Note_on_c, 0, 74, 75
1, 6192, Note_on_c, 0, 71, 75
1, 6212, Note_on_c, 0, 80, 0
1, 6212, Note_on_c, 0, 74, 0
1, 6212, Note_on_c, 0, 71, 0
1, 6240, Note_on_c, 0, 78, 76
1, 6240, Note_on_c, 0, 73, 76
1, 6240, Note_on_c, 0, 69, 76
1, 6260, Note_on_c, 0, 78, 0
1, 6260, Note_on_c, 0, 73, 0
1, 6260, Note_on_c, 0, 69, 0
1, 6288, Note_on_c, 0, 76, 76
1, 6288, Note_on_c, 0, 71, 76
1, 6288, Note_on_c, 0, 68, 76
1, 6308, Note_on_c, 0, 76, 0
1, 6308, Note_on_c, 0, 71, 0
1, 6308, Note_on_c, 0, 68, 0
1, 6336, Note_on_c, 0, 74, 77
1, 6336, Note_on_c, 0, 69, 77
1, 6336, Note_on_c, 0, 66, 77
1, 6356, Note_on_c, 0, 74, 0
1, 6356, Note_on_c, 0, 69, 0
1, 6356, Note_on_c, 0, 66, 0
1, 6384, Note_on_c, 0, 73, 78
1, 6384, Note_on_c, 0, 68, 78
1, 6384, Note_on_c, 0, 64, 78
1, 6404, Note_on_c, 0, 73, 0
1, 6404, Note_on_c, 0, 68, 0
1, 6404, Note_on_c, 0, 64, 0
1, 6432, Note_on_c, 0, 71, 78
1, 6432, Note_on_c, 0, 66, 78
1, 6432, Note_on_c, 0, 62, 78
1, 6452, Note_on_c, 0, 71, 0
1, 6452, Note_on_c, 0, 66, 0
1, 6452, Note_on_c, 0, 62, 0
1, 6480, Note_on_c, 0, 69, 79
1, 6480, Note_on_c, 0, 64, 79
1, 6480, Note_on_c, 0, 61, 79
1, 6500, Note_on_c, 0, 69, 0
1, 6500, Note_on_c, 0, 64, 0
1, 6500, Note_on_c, 0, 61, 0
1, 6528, Note_on_c, 0, 75, 80
1, 6528, Note_on_c, 1, 63, 80
1, 6551, Note_on_c, 0, 75, 0
1, 6551, Note_on_c, 1, 63, 0
1, 6552, Note_on_c, 0, 76, 80
1, 6552, Note_on_c, 1, 64, 80
1, 6575, Note_on_c, 0, 76, 0
1, 6575, Note_on_c, 1, 64, 0
1, 6576, Note_on_c, 0, 75, 80
1, 6576, Note_on_c, 1, 63, 80
1, 6599, Note_on_c, 0, 75, 0
1, 6599, Note_on_c, 1, 63, 0
1, 6600, Note_on_c, 0, 76, 80
1, 6600, Note_on_c, 1, 64, 80
1, 6623, Note_on_c, 0, 76, 0
1, 6623, Note_on_c, 1, 64, 0
1, 6624, Note_on_c, 0, 64, 80
1, 6624, Note_on_c, 1, 52, 80
1, 6663, Note_on_c, 0, 64, 0
1, 6713, Note_on_c, 1, 52, 0
1, 6912, Note_on_c, 0, 70, 80
1, 6912, Note_on_c, 1, 58, 80
1, 6935, Note_on_c, 0, 70, 0
1, 6935, Note_on_c, 1, 58, 0
1, 6936, Note_on_c, 0, 71, 80
1, 6936, Note_on_c, 1, 59, 80
1, 6959, Note_on_c, 0, 71, 0
1, 6959, Note_on_c, 1, 59, 0
1, 6960, Note_on_c, 0, 70, 80
1, 6960, Note_on_c, 1, 58, 80
1, 6983, Note_on_c, 0, 70, 0
1, 6983, Note_on_c, 1, 58, 0
1, 6984, Note_on_c, 0, 71, 80
1, 6984, Note_on_c, 1, 59, 80
1, 7007, Note_on_c, 0, 71, 0
1, 7007, Note_on_c, 1, 59, 0
1, 7008, Note_on_c, 0, 59, 80
1, 7008, Note_on_c, 1, 47, 80
1, 7047, Note_on_c, 0, 59, 0
1, 7097, Note_on_c, 1, 47, 0
1, 7296, Note_on_c, 0, 56, 80
1, 7296, Note_on_c, 1, 56, 80
1, 7296, Note_on_c, 1, 52, 80
1, 7326, Note_on_c, 0, 56, 0
1, 7328, Note_on_c, 0, 64, 80
1, 7358, Note_on_c, 0, 64, 0
1, 7360, Note_on_c, 0, 59, 80
1, 7390, Note_on_c, 0, 59, 0
1, 7392, Note_on_c, 0, 68, 81
1, 7422, Note_on_c, 0, 68, 0
1, 7424, Note_on_c, 0, 64, 81
1, 7454, Note_on_c, 0, 64, 0
1, 7456, Note_on_c, 0, 71, 82
1, 7486, Note_on_c, 0, 71, 0
1, 7488, Note_on_c, 0, 68, 82
1, 7518, Note_on_c, 0, 68, 0
1, 7520, Note_on_c, 0, 76, 83
1, 7550, Note_on_c, 0, 76, 0
1, 7552, Note_on_c, 0, 71, 83
1, 7561, Note_on_c, 1, 56, 0
1, 7561, Note_on_c, 1, 52, 0
1, 7582, Note_on_c, 0, 71, 0
1, 7584, Note_on_c, 0, 80, 84
1, 7614, Note_on_c, 0, 80, 0
1, 7616, Note_on_c, 0, 76, 84
1, 7646, Note_on_c, 0, 76, 0
1, 7648, Note_on_c, 0, 83, 85
1, 7678, Note_on_c, 0, 83, 0
1, 7680, Note_on_c, 0, 88, 85
1, 7710, Note_on_c, 0, 88, 0
1, 7712, Note_on_c, 0, 87, 85
1, 7742, Note_on_c, 0, 87, 0
1, 7744, Note_on_c, 0, 85, 85
1, 7774, Note_on_c, 0, 85, 0
1, 7776, Note_on_c, 0, 83, 84
1, 7806, Note_on_c, 0, 83, 0
1, 7808, Note_on_c, 0, 81, 84
1, 7838, Note_on_c, 0, 81, 0
1, 7840, Note_on_c, 0, 80, 84
1, 7870, Note_on_c, 0, 80, 0
1, 7872, Note_on_c, 0, 78, 83
1, 7902, Note_on_c, 0, 78, 0
1, 7904, Note_on_c, 0, 76, 83
1, 7934, Note_on_c, 0, 76, 0
1, 7936, Note_on_c, 0, 75, 82
1, 7966, Note_on_c, 0, 75, 0
1, 7968, Note_on_c, 0, 73, 82
1, 7991, Note_on_c, 0, 73, 0
1, 7992, Note_on_c, 0, 71, 81
1, 8015, Note_on_c, 0, 71, 0
1, 8016, Note_on_c, 0, 69, 81
1, 8039, Note_on_c, 0, 69, 0
1, 8040, Note_on_c, 0, 68, 81
1, 8063, Note_on_c, 0, 68, 0
1, 8064, Note_on_c, 0, 78, 80
1, 8064, Note_on_c, 0, 75, 80
1, 8064, Note_on_c, 1, 47, 80
1, 8094, Note_on_c, 1, 47, 0
1, 8096, Note_on_c, 1, 54, 80
1, 8126, Note_on_c, 1, 54, 0
1, 8128, Note_on_c, 1, 51, 80
1, 8158, Note_on_c, 1, 51, 0
1, 8160, Note_on_c, 1, 57, 80
1, 8190, Note_on_c, 1, 57, 0
1, 8192, Note_on_c, 1, 54, 80
1, 8222, Note_on_c, 1, 54, 0
1, 8224, Note_on_c, 1, 63, 80
1, 8254, Note_on_c, 1, 63, 0
1, 8256, Note_on_c, 1, 59, 80
1, 8286, Note_on_c, 1, 59, 0
1, 8288, Note_on_c, 1, 66, 80
1, 8318, Note_on_c, 1, 66, 0
1, 8320, Note_on_c, 1, 63, 80
1, 8329, Note_on_c, 0, 78, 0
1, 8329, Note_on_c, 0, 75, 0
1, 8350, Note_on_c, 1, 63, 0
1, 8352, Note_on_c, 1, 73, 80
1, 8382, Note_on_c, 1, 73, 0
1, 8384, Note_on_c, 1, 71, 80
1, 8414, Note_on_c, 1, 71, 0
1, 8416, Note_on_c, 1, 69, 80
1, 8446, Note_on_c, 1, 69, 0
1, 8448, Note_on_c, 1, 68, 80
1, 8471, Note_on_c, 1, 68, 0
1, 8472, Note_on_c, 1, 66, 80
1, 8495, Note_on_c, 1, 66, 0
1, 8496, Note_on_c, 1, 64, 80
1, 8519, Note_on_c, 1, 64, 0
1, 8520, Note_on_c, 1, 63, 80
1, 8543, Note_on_c, 1, 63, 0
1, 8544, Note_on_c, 1, 60, 96
1, 8576, Note_on_c, 0, 63, 80
1, 8606, Note_on_c, 0, 63, 0
1, 8608, Note_on_c, 0, 66, 80
1, 8638, Note_on_c, 0, 66, 0
1, 8640, Note_on_c, 0, 69, 80
1, 8670, Note_on_c, 0, 69, 0
1, 8672, Note_on_c, 0, 66, 80
1, 8702, Note_on_c, 0, 66, 0
1, 8704, Note_on_c, 0, 63, 80
1, 8734, Note_on_c, 0, 63, 0
1, 8736, Note_on_c, 0, 66, 80
1, 8736, Note_on_c, 1, 60, 0
1, 8736, Note_on_c, 1, 60, 96
1, 8766, Note_on_c, 0, 66, 0
1, 8768, Note_on_c, 0, 69, 80
1, 8798, Note_on_c, 0, 69, 0
1, 8800, Note_on_c, 0, 66, 80
1, 8830, Note_on_c, 0, 66, 0
1, 8832, Note_on_c, 0, 77, 80
1, 8832, Note_on_c, 1, 60, 0
1, 8832, Note_on_c, 1, 71, 80
1, 8832, Note_on_c, 1, 73, 80
1, 8862, Note_on_c, 0, 77, 0
1, 8864, Note_on_c, 0, 78, 79
1, 8894, Note_on_c, 0, 78, 0
1, 8896, Note_on_c, 0, 80, 79
1, 8926, Note_on_c, 0, 80, 0
1, 8928, Note_on_c, 0, 78, 79
1, 8928, Note_on_c, 1, 71, 0
1, 8928, Note_on_c, 1, 69, 78
1, 8958, Note_on_c, 0, 78, 0
1, 8960, Note_on_c, 0, 80, 78
1, 8990, Note_on_c, 0, 80, 0
1, 8992, Note_on_c, 0, 81, 78
1, 9009, Note_on_c, 1, 73, 0
1, 9017, Note_on_c, 1, 69, 0
1, 9022, Note_on_c, 0, 81, 0
1, 9024, Note_on_c, 0, 75, 78
1, 9024, Note_on_c, 1, 69, 77
1, 9024, Note_on_c, 1, 71, 77
1, 9054, Note_on_c, 0, 75, 0
1, 9056, Note_on_c, 0, 76, 77
1, 9086, Note_on_c, 0, 76, 0
1, 9088, Note_on_c, 0, 78, 77
1, 9118, Note_on_c, 0, 78, 0
1, 9120, Note_on_c, 0, 76, 77
1, 9120, Note_on_c, 1, 69, 0
1, 9120, Note_on_c, 1, 67, 76
1, 9150, Note_on_c, 0, 76, 0
1, 9152, Note_on_c, 0, 78, 76
1, 9182, Note_on_c, 0, 78, 0
1, 9184, Note_on_c, 0, 79, 76
1, 9201, Note_on_c, 1, 71, 0
1, 9209, Note_on_c, 1, 67, 0
1, 9214, Note_on_c, 0, 79, 0
1, 9216, Note_on_c, 0, 73, 76
1, 9216, Note_on_c, 1, 67, 75
1, 9216, Note_on_c, 1, 69, 75
1, 9246, Note_on_c, 0, 73, 0
1, 9248, Note_on_c, 0, 74, 75
1, 9278, Note_on_c, 0, 74, 0
1, 9280, Note_on_c, 0, 76, 75
1, 9310, Note_on_c, 0, 76, 0
1, 9312, Note_on_c, 0, 74, 75
1, 9312, Note_on_c, 1, 67, 0
1, 9312, Note_on_c, 1, 65, 73
1, 9342, Note_on_c, 0, 74, 0
1, 9344, Note_on_c, 0, 76, 75
1, 9374, Note_on_c, 0, 76, 0
1, 9376, Note_on_c, 0, 77, 74
1, 9393, Note_on_c, 1, 69, 0
1, 9401, Note_on_c, 1, 65, 0
1, 9406, Note_on_c, 0, 77, 0
1, 9408, Note_on_c, 0, 71, 74
1, 9408, Note_on_c, 1, 65, 72
1, 9408, Note_on_c, 1, 67, 72
1, 9438, Note_on_c, 0, 71, 0
1, 9440, Note_on_c, 0, 72, 74
1, 9470, Note_on_c, 0, 72, 0
1, 9472, Note_on_c, 0, 74, 73
1, 9502, Note_on_c, 0, 74, 0
1, 9504, Note_on_c, 0, 72, 73
1, 9504, Note_on_c, 1, 65, 0
1, 9504, Note_on_c, 1, 64, 71
1, 9534, Note_on_c, 0, 72, 0
1, 9536, Note_on_c, 0, 74, 73
1, 9566, Note_on_c, 0, 74, 0
1, 9568, Note_on_c, 0, 76, 72
1, 9585, Note_on_c, 1, 67, 0
1, 9593, Note_on_c, 1, 64, 0
1, 9598, Note_on_c, 0, 76, 0
1, 9600, Note_on_c, 0, 70, 72
1, 9648, Note_on_c, 1, 67, 70
1, 9648, Note_on_c, 1, 64, 70
1, 9693, Note_on_c, 1, 67, 0
1, 9693, Note_on_c, 1, 64, 0
1, 9696, Note_on_c, 1, 66, 70
1, 9696, Note_on_c, 1, 63, 70
1, 9741, Note_on_c, 1, 66, 0
1, 9741, Note_on_c, 1, 63, 0
1, 9744, Note_on_c, 1, 64, 70
1, 9744, Note_on_c, 1, 61, 70
1, 9789, Note_on_c, 1, 64, 0
1, 9789, Note_on_c, 1, 61, 0
1, 9792, Note_on_c, 0, 70, 0
1, 9792, Note_on_c, 0, 71, 70
1, 9792, Note_on_c, 1, 63, 70
1, 9792, Note_on_c, 1, 59, 70
1, 9837, Note_on_c, 0, 71, 0
1, 9837, Note_on_c, 1, 63, 0
1, 9837, Note_on_c, 1, 59, 0
1, 9840, Note_on_c, 0, 71, 64
1, 9860, Note_on_c, 0, 71, 0
1, 9888, Note_on_c, 0, 71, 64
1, 9908, Note_on_c, 0, 71, 0
1, 9936, Note_on_c, 0, 71, 64
1, 9956, Note_on_c, 0, 71, 0
1, 9984, Note_on_c, 0, 71, 64
1, 10004, Note_on_c, 0, 71, 0
1, 10032, Note_on_c, 0, 71, 64
1, 10052, Note_on_c, 0, 71, 0
1, 10080, Note_on_c, 0, 71, 64
1, 10100, Note_on_c, 0, 71, 0
1, 10128, Note_on_c, 0, 71, 64
1, 10148, Note_on_c, 0, 71, 0
1, 10176, Note_on_c, 0, 72, 64
1, 10176, Note_on_c, 0, 71, 64
1, 10196, Note_on_c, 0, 72, 0
1, 10224, Note_on_c, 0, 72, 64
1, 10244, Note_on_c, 0, 72, 0
1, 10272, Note_on_c, 0, 72, 65
1, 10292, Note_on_c, 0, 72, 0
1, 10320, Note_on_c, 0, 72, 65
1, 10340, Note_on_c, 0, 72, 0
1, 10368, Note_on_c, 0, 72, 66
1, 10368, Note_on_c, 0, 71, 0
1, 10368, Note_on_c, 0, 69, 65
1, 10388, Note_on_c, 0, 72, 0
1, 10407, Note_on_c, 0, 69, 0
1, 10416, Note_on_c, 0, 72, 66
1, 10436, Note_on_c, 0, 72, 0
1, 10464, Note_on_c, 0, 72, 67
1, 10484, Note_on_c, 0, 72, 0
1, 10512, Note_on_c, 0, 72, 67
1, 10532, Note_on_c, 0, 72, 0
1, 10560, Note_on_c, 0, 75, 68
1, 10560, Note_on_c, 0, 69, 66
1, 10580, Note_on_c, 0, 75, 0
1, 10608, Note_on_c, 0, 75, 68
1, 10628, Note_on_c, 0, 75, 0
1, 10656, Note_on_c, 0, 75, 69
1, 10676, Note_on_c, 0, 75, 0
1, 10704, Note_on_c, 0, 75, 70
1, 10724, Note_on_c, 0, 75, 0
1, 10752, Note_on_c, 0, 76, 70
1, 10752, Note_on_c, 0, 69, 0
1, 10752, Note_on_c, 0, 67, 68
1, 10772, Note_on_c, 0, 76, 0
1, 10791, Note_on_c, 0, 67, 0
1, 10800, Note_on_c, 0, 76, 71
1, 10820, Note_on_c, 0, 76, 0
1, 10848, Note_on_c, 0, 76, 71
1, 10868, Note_on_c, 0, 76, 0
1, 10896, Note_on_c, 0, 76, 72
1, 10916, Note_on_c, 0, 76, 0
1, 10944, Note_on_c, 0, 78, 72
1, 10944, Note_on_c, 0, 63, 69
1, 10989, Note_on_c, 0, 78, 0
1, 10992, Note_on_c, 0, 71, 73
1, 11037, Note_on_c, 0, 71, 0
1, 11040, Note_on_c, 0, 78, 73
1, 11085, Note_on_c, 0, 78, 0
1, 11088, Note_on_c, 0, 71, 74
1, 11133, Note_on_c, 0, 71, 0
1, 11136, Note_on_c, 0, 79, 75
1, 11136, Note_on_c, 0, 63, 0
1, 11136, Note_on_c, 0, 64, 71
1, 11175, Note_on_c, 0, 64, 0
1, 11181, Note_on_c, 0, 79, 0
1, 11184, Note_on_c, 0, 71, 75
1, 11229, Note_on_c, 0, 71, 0
1, 11232, Note_on_c, 0, 79, 76
1, 11277, Note_on_c, 0, 79, 0
1, 11280, Note_on_c, 0, 71, 76
1, 11325, Note_on_c, 0, 71, 0
1, 11328, Note_on_c, 0, 80, 77
1, 11328, Note_on_c, 0, 76, 77
1, 11328, Note_on_c, 0, 62, 72
1, 11373, Note_on_c, 0, 80, 0
1, 11373, Note_on_c, 0, 76, 0
1, 11376, Note_on_c, 0, 71, 77
1, 11421, Note_on_c, 0, 71, 0
1, 11424, Note_on_c, 0, 80, 78
1, 11424, Note_on_c, 0, 76, 78
1, 11469, Note_on_c, 0, 80, 0
1, 11469, Note_on_c, 0, 76, 0
1, 11472, Note_on_c, 0, 71, 78
1, 11517, Note_on_c, 0, 71, 0
1, 11520, Note_on_c, 0, 81, 79
1, 11520, Note_on_c, 0, 76, 79
1, 11520, Note_on_c, 0, 62, 0
1, 11520, Note_on_c, 0, 60, 74
1, 11559, Note_on_c, 0, 60, 0
1, 11565, Note_on_c, 0, 81, 0
1, 11565, Note_on_c, 0, 76, 0
1, 11568, Note_on_c, 0, 72, 80
1, 11613, Note_on_c, 0, 72, 0
1, 11616, Note_on_c, 0, 81, 64
1, 11616, Note_on_c, 0, 76, 64
1, 11661, Note_on_c, 0, 81, 0
1, 11661, Note_on_c, 0, 76, 0
1, 11664, Note_on_c, 0, 72, 63
1, 11709, Note_on_c, 0, 72, 0
1, 11712, Note_on_c, 0, 82, 62
1, 11712, Note_on_c, 0, 76, 62
1, 11757, Note_on_c, 0, 82, 0
1, 11757, Note_on_c, 0, 76, 0
1, 11760, Note_on_c, 0, 72, 61
1, 11805, Note_on_c, 0, 72, 0
1, 11808, Note_on_c, 0, 82, 60
1, 11808, Note_on_c, 0, 76, 60
1, 11853, Note_on_c, 0, 82, 0
1, 11853, Note_on_c, 0, 76, 0
1, 11856, Note_on_c, 0, 72, 59
1, 11901, Note_on_c, 0, 72, 0
1, 11904, Note_on_c, 0, 83, 58
1, 11904, Note_on_c, 0, 75, 58
1, 11993, Note_on_c, 0, 83, 0
1, 11993, Note_on_c, 0, 75, 0
1, 12288, Note_on_c, 0, 86, 102
1, 12288, Note_on_c, 0, 83, 102
1, 12288, Note_on_c, 1, 68, 86
1, 12311, Note_on_c, 1, 68, 0
1, 12312, Note_on_c, 1, 69, 86
1, 12335, Note_on_c, 1, 69, 0
1, 12336, Note_on_c, 1, 68, 86
1, 12359, Note_on_c, 1, 68, 0
1, 12360, Note_on_c, 1, 69, 86
1, 12383, Note_on_c, 1, 69, 0
1, 12384, Note_on_c, 0, 86, 0
1, 12384, Note_on_c, 0, 83, 0
1, 12384, Note_on_c, 0, 85, 86
1, 12384, Note_on_c, 0, 81, 86
1, 12384, Note_on_c, 1, 69, 86
1, 12404, Note_on_c, 1, 69, 0
1, 12423, Note_on_c, 0, 85, 0
1, 12423, Note_on_c, 0, 81, 0
1, 12480, Note_on_c, 0, 84, 102
1, 12480, Note_on_c, 0, 81, 102
1, 12480, Note_on_c, 1, 63, 86
1, 12503, Note_on_c, 1, 63, 0
1, 12504, Note_on_c, 1, 64, 86
1, 12527, Note_on_c, 1, 64, 0
1, 12528, Note_on_c, 1, 63, 86
1, 12551, Note_on_c, 1, 63, 0
1, 12552, Note_on_c, 1, 64, 86
1, 12575, Note_on_c, 1, 64, 0
1, 12576, Note_on_c, 0, 84, 0
1, 12576, Note_on_c, 0, 81, 0
1, 12576, Note_on_c, 0, 83, 86
1, 12576, Note_on_c, 0, 80, 86
1, 12576, Note_on_c, 1, 64, 86
1, 12596, Note_on_c, 1, 64, 0
1, 12615, Note_on_c, 0, 83, 0
1, 12615, Note_on_c, 0, 80, 0
1, 12672, Note_on_c, 0, 88, 102
1, 12672, Note_on_c, 0, 85, 102
1, 12672, Note_on_c, 1, 58, 86
1, 12695, Note_on_c, 1, 58, 0
1, 12696, Note_on_c, 1, 59, 86
1, 12719, Note_on_c, 1, 59, 0
1, 12720, Note_on_c, 1, 58, 86
1, 12743, Note_on_c, 1, 58, 0
1, 12744, Note_on_c, 1, 59, 86
1, 12767, Note_on_c, 1, 59, 0
1, 12768, Note_on_c, 0, 88, 0
1, 12768, Note_on_c, 0, 85, 0
1, 12768, Note_on_c, 0, 87, 86
1, 12768, Note_on_c, 0, 83, 86
1, 12768, Note_on_c, 1, 59, 86
1, 12788, Note_on_c, 1, 59, 0
1, 12807, Note_on_c, 0, 87, 0
1, 12807, Note_on_c, 0, 83, 0
1, 12864, Note_on_c, 0, 81, 102
1, 12864, Note_on_c, 0, 78, 102
1, 12864, Note_on_c, 1, 51, 86
1, 12887, Note_on_c, 1, 51, 0
1, 12888, Note_on_c, 1, 52, 86
1, 12911, Note_on_c, 1, 52, 0
1, 12912, Note_on_c, 1, 51, 86
1, 12935, Note_on_c, 1, 51, 0
1, 12936, Note_on_c, 1, 52, 86
1, 12959, Note_on_c, 1, 52, 0
1, 12960, Note_on_c, 0, 81, 0
1, 12960, Note_on_c, 0, 78, 0
1, 12960, Note_on_c, 0, 80, 86
1, 12960, Note_on_c, 0, 76, 86
1, 12960, Note_on_c, 1, 52, 86
1, 12975, Note_on_c, 0, 80, 0
1, 12975, Note_on_c, 0, 76, 0
1, 12980, Note_on_c, 1, 52, 0
1, 13032, Note_on_c, 0, 81, 86
1, 13044, Note_on_c, 0, 81, 0
1, 13044, Note_on_c, 0, 83, 86
1, 13056, Note_on_c, 0, 83, 0
1, 13056, Note_on_c, 0, 85, 102
1, 13056, Note_on_c, 1, 33, 86
1, 13104, Note_on_c, 0, 85, 0
1, 13104, Note_on_c, 0, 83, 86
1, 13124, Note_on_c, 0, 83, 0
1, 13152, Note_on_c, 0, 81, 86
1, 13172, Note_on_c, 0, 81, 0
1, 13200, Note_on_c, 0, 80, 86
1, 13220, Note_on_c, 0, 80, 0
1, 13233, Note_on_c, 1, 33, 0
1, 13248, Note_on_c, 0, 78, 86
1, 13268, Note_on_c, 0, 78, 0
1, 13296, Note_on_c, 0, 76, 86
1, 13316, Note_on_c, 0, 76, 0
1, 13344, Note_on_c, 0, 75, 86
1, 13364, Note_on_c, 0, 75, 0
1, 13392, Note_on_c, 0, 73, 86
1, 13412, Note_on_c, 0, 73, 0
1, 13440, Note_on_c, 0, 71, 80
1, 13440, Note_on_c, 1, 59, 80
1, 13460, Note_on_c, 0, 71, 0
1, 13460, Note_on_c, 1, 59, 0
1, 13488, Note_on_c, 0, 69, 78
1, 13488, Note_on_c, 1, 57, 78
1, 13508, Note_on_c, 0, 69, 0
1, 13508, Note_on_c, 1, 57, 0
1, 13536, Note_on_c, 0, 68, 77
1, 13536, Note_on_c, 1, 56, 77
1, 13556, Note_on_c, 0, 68, 0
1, 13556, Note_on_c, 1, 56, 0
1, 13584, Note_on_c, 0, 66, 76
1, 13584, Note_on_c, 1, 54, 76
1, 13604, Note_on_c, 0, 66, 0
1, 13604, Note_on_c, 1, 54, 0
1, 13632, Note_on_c, 0, 64, 75
1, 13632, Note_on_c, 1, 52, 75
1, 13652, Note_on_c, 0, 64, 0
1, 13652, Note_on_c, 1, 52, 0
1, 13680, Note_on_c, 0, 63, 73
1, 13680, Note_on_c, 1, 51, 73
1, 13700, Note_on_c, 0, 63, 0
1, 13700, Note_on_c, 1, 51, 0
1, 13728, Note_on_c, 0, 61, 72
1, 13728, Note_on_c, 1, 49, 72
1, 13748, Note_on_c, 0, 61, 0
1, 13748, Note_on_c, 1, 49, 0
1, 13776, Note_on_c, 0, 59, 71
1, 13776, Note_on_c, 1, 47, 71
1, 13796, Note_on_c, 0, 59, 0
1, 13796, Note_on_c, 1, 47, 0
1, 13824, Note_on_c, 0, 72, 64
1, 13824, Note_on_c, 0, 64, 64
1, 13824, Note_on_c, 0, 57, 64
1, 13824, Note_on_c, 1, 45, 64
1, 13863, Note_on_c, 0, 72, 0
1, 13863, Note_on_c, 0, 64, 0
1, 13863, Note_on_c, 0, 57, 0
1, 13913, Note_on_c, 1, 45, 0
1, 14016, Note_on_c, 0, 63, 64
1, 14016, Note_on_c, 0, 57, 64
1, 14016, Note_on_c, 1, 47, 64
1, 14055, Note_on_c, 0, 63, 0
1, 14055, Note_on_c, 0, 57, 0
1, 14105, Note_on_c, 1, 47, 0
1, 14208, Note_on_c, 0, 64, 80
1, 14208, Note_on_c, 1, 52, 64
1, 14208, Note_on_c, 1, 40, 64
1, 14232, Note_on_c, 0, 64, 0
1, 14232, Note_on_c, 0, 59, 80
1, 14255, Note_on_c, 0, 59, 0
1, 14256, Note_on_c, 0, 68, 80
1, 14266, Note_on_c, 0, 68, 0
1, 14280, Note_on_c, 0, 68, 80
1, 14290, Note_on_c, 0, 68, 0
1, 14297, Note_on_c, 1, 52, 0
1, 14297, Note_on_c, 1, 40, 0
1, 14304, Note_on_c, 0, 68, 80
1, 14328, Note_on_c, 0, 68, 0
1, 14328, Note_on_c, 0, 64, 81
1, 14351, Note_on_c, 0, 64, 0
1, 14352, Note_on_c, 0, 71, 81
1, 14362, Note_on_c, 0, 71, 0
1, 14376, Note_on_c, 0, 71, 81
1, 14386, Note_on_c, 0, 71, 0
1, 14400, Note_on_c, 0, 71, 81
1, 14424, Note_on_c, 0, 71, 0
1, 14424, Note_on_c, 0, 68, 82
1, 14447, Note_on_c, 0, 68, 0
1, 14448, Note_on_c, 0, 76, 82
1, 14458, Note_on_c, 0, 76, 0
1, 14472, Note_on_c, 0, 76, 82
1, 14482, Note_on_c, 0, 76, 0
1, 14496, Note_on_c, 0, 76, 82
1, 14520, Note_on_c, 0, 76, 0
1, 14520, Note_on_c, 0, 71, 83
1, 14543, Note_on_c, 0, 71, 0
1, 14544, Note_on_c, 0, 80, 83
1, 14554, Note_on_c, 0, 80, 0
1, 14568, Note_on_c, 0, 80, 83
1, 14578, Note_on_c, 0, 80, 0
1, 14592, Note_on_c, 0, 80, 83
1, 14592, Note_on_c, 1, 68, 80
1, 14616, Note_on_c, 0, 80, 0
1, 14616, Note_on_c, 0, 76, 84
1, 14616, Note_on_c, 1, 68, 0
1, 14616, Note_on_c, 1, 64, 80
1, 14639, Note_on_c, 0, 76, 0
1, 14639, Note_on_c, 1, 64, 0
1, 14640, Note_on_c, 0, 83, 84
1, 14640, Note_on_c, 1, 71, 81
1, 14650, Note_on_c, 0, 83, 0
1, 14650, Note_on_c, 1, 71, 0
1, 14664, Note_on_c, 0, 83, 84
1, 14664, Note_on_c, 1, 71, 82
1, 14674, Note_on_c, 0, 83, 0
1, 14674, Note_on_c, 1, 71, 0
1, 14688, Note_on_c, 0, 83, 84
1, 14688, Note_on_c, 1, 71, 83
1, 14712, Note_on_c, 0, 83, 0
1, 14712, Note_on_c, 0, 80, 85
1, 14712, Note_on_c, 1, 71, 0
1, 14712, Note_on_c, 1, 68, 84
1, 14735, Note_on_c, 0, 80, 0
1, 14735, Note_on_c, 1, 68, 0
1, 14736, Note_on_c, 0, 88, 85
1, 14736, Note_on_c, 1, 76, 85
1, 14746, Note_on_c, 0, 88, 0
1, 14746, Note_on_c, 1, 76, 0
1, 14760, Note_on_c, 0, 88, 85
1, 14760, Note_on_c, 1, 76, 86
1, 14770, Note_on_c, 0, 88, 0
1, 14770, Note_on_c, 1, 76, 0
1, 14784, Note_on_c, 0, 88, 86
1, 14784, Note_on_c, 1, 76, 86
1, 14823, Note_on_c, 0, 88, 0
1, 14823, Note_on_c, 1, 76, 0
1, 14976, Note_on_c, 0, 87, 70
1, 14976, Note_on_c, 1, 83, 64
1, 14999, Note_on_c, 0, 87, 0
1, 15000, Note_on_c, 0, 85, 70
1, 15015, Note_on_c, 1, 83, 0
1, 15023, Note_on_c, 0, 85, 0
1, 15024, Note_on_c, 0, 87, 70
1, 15047, Note_on_c, 0, 87, 0
1, 15048, Note_on_c, 0, 83, 70
1, 15071, Note_on_c, 0, 83, 0
1, 15072, Note_on_c, 0, 88, 70
1, 15072, Note_on_c, 1, 80, 64
1, 15111, Note_on_c, 0, 88, 0
1, 15111, Note_on_c, 1, 80, 0
1, 15360, Note_on_c, 0, 76, 75
1, 15360, Note_on_c, 0, 73, 75
1, 15399, Note_on_c, 0, 76, 0
1, 15399, Note_on_c, 0, 73, 0
1, 15456, Note_on_c, 0, 73, 75
1, 15456, Note_on_c, 0, 69, 75
1, 15495, Note_on_c, 0, 73, 0
1, 15495, Note_on_c, 0, 69, 0
1, 15552, Note_on_c, 1, 56, 75
1, 15575, Note_on_c, 1, 56, 0
1, 15576, Note_on_c, 1, 57, 75
1, 15599, Note_on_c, 1, 57, 0
1, 15600, Note_on_c, 1, 56, 75
1, 15623, Note_on_c, 1, 56, 0
1, 15624, Note_on_c, 1, 57, 75
1, 15647, Note_on_c, 1, 57, 0
1, 15648, Note_on_c, 1, 45, 75
1, 15687, Note_on_c, 1, 45, 0
1, 15744, Note_on_c, 0, 78, 75
1, 15744, Note_on_c, 0, 74, 75
1, 15783, Note_on_c, 0, 78, 0
1, 15783, Note_on_c, 0, 74, 0
1, 15840, Note_on_c, 0, 74, 75
1, 15840, Note_on_c, 0, 71, 75
1, 15879, Note_on_c, 0, 74, 0
1, 15879, Note_on_c, 0, 71, 0
1, 15936, Note_on_c, 1, 56, 75
1, 15959, Note_on_c, 1, 56, 0
1, 15960, Note_on_c, 1, 57, 75
1, 15983, Note_on_c, 1, 57, 0
1, 15984, Note_on_c, 1, 56, 75
1, 16007, Note_on_c, 1, 56, 0
1, 16008, Note_on_c, 1, 57, 75
1, 16031, Note_on_c, 1, 57, 0
1, 16032, Note_on_c, 1, 45, 75
1, 16071, Note_on_c, 1, 45, 0
1, 16128, Note_on_c, 0, 76, 75
1, 16128, Note_on_c, 0, 73, 75
1, 16167, Note_on_c, 0, 76, 0
1, 16167, Note_on_c, 0, 73, 0
1, 16224, Note_on_c, 0, 73, 75
1, 16224, Note_on_c, 0, 69, 75
1, 16263, Note_on_c, 0, 73, 0
1, 16263, Note_on_c, 0, 69, 0
1, 16416, Note_on_c, 0, 71, 75
1, 16416, Note_on_c, 0, 68, 75
1, 16483, Note_on_c, 0, 71, 0
1, 16483, Note_on_c, 0, 68, 0
1, 16488, Note_on_c, 0, 73, 75
1, 16488, Note_on_c, 0, 69, 75
1, 16511, Note_on_c, 0, 73, 0
1, 16511, Note_on_c, 0, 69, 0
1, 16512, Note_on_c, 0, 74, 75
1, 16512, Note_on_c, 0, 71, 75
1, 16579, Note_on_c, 0, 74, 0
1, 16579, Note_on_c, 0, 71, 0
1, 16584, Note_on_c, 0, 76, 75
1, 16584, Note_on_c, 0, 73, 75
1, 16594, Note_on_c, 0, 76, 0
1, 16594, Note_on_c, 0, 73, 0
1, 16608, Note_on_c, 0, 74, 75
1, 16608, Note_on_c, 0, 71, 75
1, 16675, Note_on_c, 0, 74, 0
1, 16675, Note_on_c, 0, 71, 0
1, 16680, Note_on_c, 0, 74, 75
1, 16680, Note_on_c, 0, 71, 75
1, 16703, Note_on_c, 0, 74, 0
1, 16703, Note_on_c, 0, 71, 0
1, 16704, Note_on_c, 0, 74, 75
1, 16704, Note_on_c, 0, 71, 75
1, 16704, Note_on_c, 1, 59, 75
1, 16704, Note_on_c, 1, 52, 75
1, 16749, Note_on_c, 0, 74, 0
1, 16749, Note_on_c, 0, 71, 0
1, 16752, Note_on_c, 0, 83, 76
1, 16797, Note_on_c, 0, 83, 0
1, 16800, Note_on_c, 0, 80, 77
1, 16845, Note_on_c, 0, 80, 0
1, 16848, Note_on_c, 0, 74, 78
1, 16881, Note_on_c, 1, 59, 0
1, 16881, Note_on_c, 1, 52, 0
1, 16893, Note_on_c, 0, 74, 0
1, 16896, Note_on_c, 0, 74, 80
1, 16896, Note_on_c, 0, 71, 80
1, 16944, Note_on_c, 1, 45, 75
1, 16989, Note_on_c, 1, 45, 0
1, 16992, Note_on_c, 1, 49, 75
1, 17037, Note_on_c, 1, 49, 0
1, 17040, Note_on_c, 1, 52, 75
1, 17085, Note_on_c, 1, 52, 0
1, 17088, Note_on_c, 0, 74, 0
1, 17088, Note_on_c, 0, 71, 0
1, 17088, Note_on_c, 0, 73, 76
1, 17088, Note_on_c, 0, 69, 76
1, 17088, Note_on_c, 1, 57, 75
1, 17177, Note_on_c, 0, 73, 0
1, 17177, Note_on_c, 0, 69, 0
1, 17177, Note_on_c, 1, 57, 0
1, 17280, Note_on_c, 0, 66, 75
1, 17298, Note_on_c, 0, 66, 0
1, 17298, Note_on_c, 0, 64, 75
1, 17316, Note_on_c, 0, 64, 0
1, 17316, Note_on_c, 0, 66, 75
1, 17376, Note_on_c, 1, 62, 75
1, 17399, Note_on_c, 1, 62, 0
1, 17400, Note_on_c, 1, 61, 75
1, 17423, Note_on_c, 1, 61, 0
1, 17424, Note_on_c, 1, 62, 75
1, 17447, Note_on_c, 1, 62, 0
1, 17448, Note_on_c, 1, 61, 75
1, 17471, Note_on_c, 1, 61, 0
1, 17472, Note_on_c, 1, 62, 75
1, 17539, Note_on_c, 0, 66, 0
1, 17544, Note_on_c, 0, 66, 75
1, 17561, Note_on_c, 1, 62, 0
1, 17567, Note_on_c, 0, 66, 0
1, 17568, Note_on_c, 0, 74, 75
1, 17635, Note_on_c, 0, 74, 0
1, 17640, Note_on_c, 0, 71, 75
1, 17663, Note_on_c, 0, 71, 0
1, 17664, Note_on_c, 0, 69, 75
1, 17682, Note_on_c, 0, 69, 0
1, 17682, Note_on_c, 0, 68, 75
1, 17700, Note_on_c, 0, 68, 0
1, 17700, Note_on_c, 0, 69, 75
1, 17760, Note_on_c, 1, 64, 75
1, 17783, Note_on_c, 1, 64, 0
1, 17784, Note_on_c, 1, 63, 75
1, 17807, Note_on_c, 1, 63, 0
1, 17808, Note_on_c, 1, 64, 75
1, 17831, Note_on_c, 1, 64, 0
1, 17832, Note_on_c, 1, 63, 75
1, 17855, Note_on_c, 1, 63, 0
1, 17856, Note_on_c, 0, 69, 0
1, 17856, Note_on_c, 0, 68, 75
1, 17856, Note_on_c, 1, 64, 75
1, 17945, Note_on_c, 0, 68, 0
1, 17945, Note_on_c, 1, 64, 0
1, 17952, Note_on_c, 0, 80, 75
1, 17975, Note_on_c, 0, 80, 0
1, 17976, Note_on_c, 0, 78, 75
1, 17999, Note_on_c, 0, 78, 0
1, 18000, Note_on_c, 0, 76, 75
1, 18023, Note_on_c, 0, 76, 0
1, 18024, Note_on_c, 0, 74, 75
1, 18047, Note_on_c, 0, 74, 0
1, 18048, Note_on_c, 0, 73, 75
1, 18144, Note_on_c, 1, 68, 75
1, 18167, Note_on_c, 1, 68, 0
1, 18168, Note_on_c, 1, 66, 75
1, 18191, Note_on_c, 1, 66, 0
1, 18192, Note_on_c, 1, 68, 75
1, 18215, Note_on_c, 1, 68, 0
1, 18216, Note_on_c, 1, 66, 75
1, 18239, Note_on_c, 1, 66, 0
1, 18240, Note_on_c, 0, 73, 0
1, 18240, Note_on_c, 0, 71, 75
1, 18240, Note_on_c, 1, 68, 75
1, 18270, Note_on_c, 0, 71, 0
1, 18272, Note_on_c, 0, 80, 75
1, 18302, Note_on_c, 0, 80, 0
1, 18304, Note_on_c, 0, 81, 75
1, 18329, Note_on_c, 1, 68, 0
1, 18334, Note_on_c, 0, 81, 0
1, 18336, Note_on_c, 0, 83, 75
1, 18366, Note_on_c, 0, 83, 0
1, 18368, Note_on_c, 0, 80, 75
1, 18398, Note_on_c, 0, 80, 0
1, 18400, Note_on_c, 0, 76, 75
1, 18430, Note_on_c, 0, 76, 0
1, 18432, Note_on_c, 0, 73, 75
1, 18462, Note_on_c, 0, 73, 0
1, 18464, Note_on_c, 0, 81, 75
1, 18480, Note_on_c, 1, 49, 75
1, 18494, Note_on_c, 0, 81, 0
1, 18496, Note_on_c, 0, 76, 75
1, 18525, Note_on_c, 1, 49, 0
1, 18526, Note_on_c, 0, 76, 0
1, 18528, Note_on_c, 0, 78, 75
1, 18528, Note_on_c, 1, 50, 75
1, 18558, Note_on_c, 0, 78, 0
1, 18560, Note_on_c, 0, 74, 75
1, 18573, Note_on_c, 1, 50, 0
1, 18576, Note_on_c, 1, 54, 75
1, 18590, Note_on_c, 0, 74, 0
1, 18592, Note_on_c, 0, 71, 75
1, 18621, Note_on_c, 1, 54, 0
1, 18622, Note_on_c, 0, 71, 0
1, 18624, Note_on_c, 0, 69, 75
1, 18624, Note_on_c, 0, 61, 75
1, 18624, Note_on_c, 1, 52, 75
1, 18713, Note_on_c, 1, 52, 0
1, 18720, Tempo, 468750
1, 18720, Note_on_c, 0, 69, 0
1, 18720, Note_on_c, 0, 61, 0
1, 18720, Note_on_c, 0, 68, 75
1, 18720, Note_on_c, 0, 59, 75
1, 18720, Note_on_c, 1, 40, 75
1, 18787, Note_on_c, 0, 68, 0
1, 18787, Note_on_c, 0, 59, 0
1, 18787, Note_on_c, 1, 40, 0
1, 18816, Tempo, 400000
1, 18816, Note_on_c, 0, 64, 75
1, 18816, Note_on_c, 0, 61, 75
1, 18855, Note_on_c, 0, 64, 0
1, 18855, Note_on_c, 0, 61, 0
1, 18912, Note_on_c, 0, 61, 75
1, 18912, Note_on_c, 0, 57, 75
1, 18951, Note_on_c, 0, 61, 0
1, 18951, Note_on_c, 0, 57, 0
1, 19008, Note_on_c, 1, 56, 75
1, 19031, Note_on_c, 1, 56, 0
1, 19032, Note_on_c, 1, 57, 75
1, 19055, Note_on_c, 1, 57, 0
1, 19056, Note_on_c, 1, 56, 75
1, 19079, Note_on_c, 1, 56, 0
1, 19080, Note_on_c, 1, 57, 75
1, 19103, Note_on_c, 1, 57, 0
1, 19104, Note_on_c, 1, 45, 75
1, 19143, Note_on_c, 1, 45, 0
1, 19200, Note_on_c, 0, 66, 75
1, 19200, Note_on_c, 0, 62, 75
1, 19239, Note_on_c, 0, 66, 0
1, 19239, Note_on_c, 0, 62, 0
1, 19296, Note_on_c, 0, 62, 75
1, 19296, Note_on_c, 0, 59, 75
1, 19335, Note_on_c, 0, 62, 0
1, 19335, Note_on_c, 0, 59, 0
1, 19392, Note_on_c, 1, 56, 75
1, 19415, Note_on_c, 1, 56, 0
1, 19416, Note_on_c, 1, 57, 75
1, 19439, Note_on_c, 1, 57, 0
1, 19440, Note_on_c, 1, 56, 75
1, 19463, Note_on_c, 1, 56, 0
1, 19464, Note_on_c, 1, 57, 75
1, 19487, Note_on_c, 1, 57, 0
1, 19488, Note_on_c, 1, 45, 75
1, 19527, Note_on_c, 1, 45, 0
1, 19584, Note_on_c, 0, 67, 75
1, 19584, Note_on_c, 0, 64, 75
1, 19623, Note_on_c, 0, 67, 0
1, 19623, Note_on_c, 0, 64, 0
1, 19680, Note_on_c, 0, 64, 75
1, 19680, Note_on_c, 0, 61, 75
1, 19719, Note_on_c, 0, 64, 0
1, 19719, Note_on_c, 0, 61, 0
1, 19968, Note_on_c, 0, 78, 64
1, 19986, Note_on_c, 0, 78, 0
1, 19986, Note_on_c, 0, 79, 64
1, 20004, Note_on_c, 0, 79, 0
1, 20004, Note_on_c, 0, 81, 64
1, 20022, Note_on_c, 0, 81, 0
1, 20022, Note_on_c, 0, 79, 80
1, 20064, Note_on_c, 1, 73, 58
1, 20064, Note_on_c, 1, 70, 58
1, 20103, Note_on_c, 1, 73, 0
1, 20103, Note_on_c, 1, 70, 0
1, 20160, Note_on_c, 1, 73, 63
1, 20160, Note_on_c, 1, 70, 63
1, 20199, Note_on_c, 1, 73, 0
1, 20199, Note_on_c, 1, 70, 0
1, 20205, Note_on_c, 0, 79, 0
1, 20208, Note_on_c, 0, 79, 71
1, 20253, Note_on_c, 0, 79, 0
1, 20256, Note_on_c, 0, 78, 73
1, 20256, Note_on_c, 1, 73, 69
1, 20256, Note_on_c, 1, 70, 69
1, 20295, Note_on_c, 1, 73, 0
1, 20295, Note_on_c, 1, 70, 0
1, 20301, Note_on_c, 0, 78, 0
1, 20304, Note_on_c, 0, 76, 75
1, 20349, Note_on_c, 0, 76, 0
1, 20352, Note_on_c, 0, 75, 89
1, 20448, Note_on_c, 1, 71, 70
1, 20448, Note_on_c, 1, 69, 70
1, 20496, Note_on_c, 0, 75, 0
1, 20496, Note_on_c, 0, 76, 68
1, 20519, Note_on_c, 0, 76, 0
1, 20520, Note_on_c, 0, 78, 67
1, 20537, Note_on_c, 1, 71, 0
1, 20537, Note_on_c, 1, 69, 0
1, 20543, Note_on_c, 0, 78, 0
1, 20544, Note_on_c, 0, 76, 67
1, 20544, Note_on_c, 1, 71, 66
1, 20544, Note_on_c, 1, 68, 66
1, 20583, Note_on_c, 1, 71, 0
1, 20583, Note_on_c, 1, 68, 0
1, 20633, Note_on_c, 0, 76, 0
1, 20640, Note_on_c, 1, 71, 62
1, 20640, Note_on_c, 1, 68, 62
1, 20679, Note_on_c, 1, 71, 0
1, 20679, Note_on_c, 1, 68, 0
1, 20736, Note_on_c, 0, 76, 64
1, 20754, Note_on_c, 0, 76, 0
1, 20754, Note_on_c, 0, 77, 64
1, 20772, Note_on_c, 0, 77, 0
1, 20772, Note_on_c, 0, 79, 64
1, 20790, Note_on_c, 0, 79, 0
1, 20790, Note_on_c, 0, 77, 80
1, 20832, Note_on_c, 1, 71, 58
1, 20832, Note_on_c, 1, 68, 58
1, 20871, Note_on_c, 1, 71, 0
1, 20871, Note_on_c, 1, 68, 0
1, 20928, Note_on_c, 1, 71, 60
1, 20928, Note_on_c, 1, 68, 60
1, 20967, Note_on_c, 1, 71, 0
1, 20967, Note_on_c, 1, 68, 0
1, 20973, Note_on_c, 0, 77, 0
1, 20976, Note_on_c, 0, 77, 71
1, 21021, Note_on_c, 0, 77, 0
1, 21024, Note_on_c, 0, 76, 73
1, 21024, Note_on_c, 1, 71, 62
1, 21024, Note_on_c, 1, 68, 62
1, 21063, Note_on_c, 1, 71, 0
1, 21063, Note_on_c, 1, 68, 0
1, 21069, Note_on_c, 0, 76, 0
1, 21072, Note_on_c, 0, 74, 75
1, 21117, Note_on_c, 0, 74, 0
1, 21120, Note_on_c, 0, 73, 89
1, 21216, Note_on_c, 1, 70, 67
1, 21216, Note_on_c, 1, 67, 67
1, 21264, Note_on_c, 0, 73, 0
1, 21264, Note_on_c, 0, 74, 67
1, 21287, Note_on_c, 0, 74, 0
1, 21288, Note_on_c, 0, 76, 66
1, 21305, Note_on_c, 1, 70, 0
1, 21305, Note_on_c, 1, 67, 0
1, 21311, Note_on_c, 0, 76, 0
1, 21312, Note_on_c, 0, 74, 65
1, 21312, Note_on_c, 1, 69, 70
1, 21312, Note_on_c, 1, 66, 70
1, 21351, Note_on_c, 1, 69, 0
1, 21351, Note_on_c, 1, 66, 0
1, 21357, Note_on_c, 0, 74, 0
1, 21360, Note_on_c, 0, 86, 80
1, 21360, Note_on_c, 0, 81, 80
1, 21360, Note_on_c, 0, 78, 80
1, 21380, Note_on_c, 0, 86, 0
1, 21380, Note_on_c, 0, 81, 0
1, 21380, Note_on_c, 0, 78, 0
1, 21408, Note_on_c, 0, 85, 64
1, 21408, Note_on_c, 0, 80, 64
1, 21408, Note_on_c, 0, 76, 64
1, 21428, Note_on_c, 0, 85, 0
1, 21428, Note_on_c, 0, 80, 0
1, 21428, Note_on_c, 0, 76, 0
1, 21456, Note_on_c, 0, 83, 64
1, 21456, Note_on_c, 0, 78, 64
1, 21456, Note_on_c, 0, 74, 64
1, 21476, Note_on_c, 0, 83, 0
1, 21476, Note_on_c, 0, 78, 0
1, 21476, Note_on_c, 0, 74, 0
1, 21504, Note_on_c, 0, 81, 75
1, 21504, Note_on_c, 0, 76, 75
1, 21504, Note_on_c, 0, 73, 75
1, 21524, Note_on_c, 0, 81, 0
1, 21524, Note_on_c, 0, 76, 0
1, 21524, Note_on_c, 0, 73, 0
1, 21552, Note_on_c, 0, 80, 75
1, 21552, Note_on_c, 0, 74, 75
1, 21552, Note_on_c, 0, 71, 75
1, 21572, Note_on_c, 0, 80, 0
1, 21572, Note_on_c, 0, 74, 0
1, 21572, Note_on_c, 0, 71, 0
1, 21600, Note_on_c, 0, 78, 76
1, 21600, Note_on_c, 0, 73, 76
1, 21600, Note_on_c, 0, 69, 76
1, 21620, Note_on_c, 0, 78, 0
1, 21620, Note_on_c, 0, 73, 0
1, 21620, Note_on_c, 0, 69, 0
1, 21648, Note_on_c, 0, 76, 76
1, 21648, Note_on_c, 0, 71, 76
1, 21648, Note_on_c, 0, 68, 76
1, 21668, Note_on_c, 0, 76, 0
1, 21668, Note_on_c, 0, 71, 0
1, 21668, Note_on_c, 0, 68, 0
1, 21696, Note_on_c, 0, 74, 77
1, 21696, Note_on_c, 0, 69, 77
1, 21696, Note_on_c, 0, 66, 77
1, 21716, Note_on_c, 0, 74, 0
1, 21716, Note_on_c, 0, 69, 0
1, 21716, Note_on_c, 0, 66, 0
1, 21744, Note_on_c, 0, 73, 78
1, 21744, Note_on_c, 0, 68, 78
1, 21744, Note_on_c, 0, 64, 78
1, 21764, Note_on_c, 0, 73, 0
1, 21764, Note_on_c, 0, 68, 0
1, 21764, Note_on_c, 0, 64, 0
1, 21792, Note_on_c, 0, 71, 78
1, 21792, Note_on_c, 0, 66, 78
1, 21792, Note_on_c, 0, 62, 78
1, 21812, Note_on_c, 0, 71, 0
1, 21812, Note_on_c, 0, 66, 0
1, 21812, Note_on_c, 0, 62, 0
1, 21840, Note_on_c, 0, 69, 79
1, 21840, Note_on_c, 0, 64, 79
1, 21840, Note_on_c, 0, 61, 79
1, 21860, Note_on_c, 0, 69, 0
1, 21860, Note_on_c, 0, 64, 0
1, 21860, Note_on_c, 0, 61, 0
1, 21888, Note_on_c, 0, 75, 80
1, 21888, Note_on_c, 1, 63, 80
1, 21911, Note_on_c, 0, 75, 0
1, 21911, Note_on_c, 1, 63, 0
1, 21912, Note_on_c, 0, 76, 80
1, 21912, Note_on_c, 1, 64, 80
1, 21935, Note_on_c, 0, 76, 0
1, 21935, Note_on_c, 1, 64, 0
1, 21936, Note_on_c, 0, 75, 80
1, 21936, Note_on_c, 1, 63, 80
1, 21959, Note_on_c, 0, 75, 0
1, 21959, Note_on_c, 1, 63, 0
1, 21960, Note_on_c, 0, 76, 80
1, 21960, Note_on_c, 1, 64, 80
1, 21983, Note_on_c, 0, 76, 0
1, 21983, Note_on_c, 1, 64, 0
1, 21984, Note_on_c, 0, 64, 80
1, 21984, Note_on_c, 1, 52, 80
1, 22023, Note_on_c, 0, 64, 0
1, 22073, Note_on_c, 1, 52, 0
1, 22272, Note_on_c, 0, 70, 80
1, 22272, Note_on_c, 1, 58, 80
1, 22295, Note_on_c, 0, 70, 0
1, 22295, Note_on_c, 1, 58, 0
1, 22296, Note_on_c, 0, 71, 80
1, 22296, Note_on_c, 1, 59, 80
1, 22319, Note_on_c, 0, 71, 0
1, 22319, Note_on_c, 1, 59, 0
1, 22320, Note_on_c, 0, 70, 80
1, 22320, Note_on_c, 1, 58, 80
1, 22343, Note_on_c, 0, 70, 0
1, 22343, Note_on_c, 1, 58, 0
1, 22344, Note_on_c, 0, 71, 80
1, 22344, Note_on_c, 1, 59, 80
1, 22367, Note_on_c, 0, 71, 0
1, 22367, Note_on_c, 1, 59, 0
1, 22368, Note_on_c, 0, 59, 80
1, 22368, Note_on_c, 1, 47, 80
1, 22407, Note_on_c, 0, 59, 0
1, 22457, Note_on_c, 1, 47, 0
1, 22656, Note_on_c, 0, 56, 80
1, 22656, Note_on_c, 1, 56, 80
1, 22656, Note_on_c, 1, 52, 80
1, 22686, Note_on_c, 0, 56, 0
1, 22688, Note_on_c, 0, 64, 80
1, 22718, Note_on_c, 0, 64, 0
1, 22720, Note_on_c, 0, 59, 80
1, 22750, Note_on_c, 0, 59, 0
1, 22752, Note_on_c, 0, 68, 81
1, 22782, Note_on_c, 0, 68, 0
1, 22784, Note_on_c, 0, 64, 81
1, 22814, Note_on_c, 0, 64, 0
1, 22816, Note_on_c, 0, 71, 82
1, 22846, Note_on_c, 0, 71, 0
1, 22848, Note_on_c, 0, 68, 82
1, 22878, Note_on_c, 0, 68, 0
1, 22880, Note_on_c, 0, 76, 83
1, 22910, Note_on_c, 0, 76, 0
1, 22912, Note_on_c, 0, 71, 83
1, 22921, Note_on_c, 1, 56, 0
1, 22921, Note_on_c, 1, 52, 0
1, 22942, Note_on_c, 0, 71, 0
1, 22944, Note_on_c, 0, 80, 84
1, 22974, Note_on_c, 0, 80, 0
1, 22976, Note_on_c, 0, 76, 84
1, 23006, Note_on_c, 0, 76, 0
1, 23008, Note_on_c, 0, 83, 85
1, 23038, Note_on_c, 0, 83, 0
1, 23040, Note_on_c, 0, 88, 85
1, 23070, Note_on_c, 0, 88, 0
1, 23072, Note_on_c, 0, 87, 85
1, 23102, Note_on_c, 0, 87, 0
1, 23104, Note_on_c, 0, 85, 85
1, 23134, Note_on_c, 0, 85, 0
1, 23136, Note_on_c, 0, 83, 84
1, 23166, Note_on_c, 0, 83, 0
1, 23168, Note_on_c, 0, 81, 84
1, 23198, Note_on_c, 0, 81, 0
1, 23200, Note_on_c, 0, 80, 84
1, 23230, Note_on_c, 0, 80, 0
1, 23232, Note_on_c, 0, 78, 83
1, 23262, Note_on_c, 0, 78, 0
1, 23264, Note_on_c, 0, 76, 83
1, 23294, Note_on_c, 0, 76, 0
1, 23296, Note_on_c, 0, 75, 82
1, 23326, Note_on_c, 0, 75, 0
1, 23328, Note_on_c, 0, 73, 82
1, 23351, Note_on_c, 0, 73, 0
1, 23352, Note_on_c, 0, 71, 81
1, 23375, Note_on_c, 0, 71, 0
1, 23376, Note_on_c, 0, 69, 81
1, 23399, Note_on_c, 0, 69, 0
1, 23400, Note_on_c, 0, 68, 81
1, 23423, Note_on_c, 0, 68, 0
1, 23424, Note_on_c, 0, 78, 80
1, 23424, Note_on_c, 0, 75, 80
1, 23424, Note_on_c, 1, 47, 80
1, 23454, Note_on_c, 1, 47, 0
1, 23456, Note_on_c, 1, 54, 80
1, 23486, Note_on_c, 1, 54, 0
1, 23488, Note_on_c, 1, 51, 80
1, 23518, Note_on_c, 1, 51, 0
1, 23520, Note_on_c, 1, 57, 80
1, 23550, Note_on_c, 1, 57, 0
1, 23552, Note_on_c, 1, 54, 80
1, 23582, Note_on_c, 1, 54, 0
1, 23584, Note_on_c, 1, 63, 80
1, 23614, Note_on_c, 1, 63, 0
1, 23616, Note_on_c, 1, 59, 80
1, 23646, Note_on_c, 1, 59, 0
1, 23648, Note_on_c, 1, 66, 80
1, 23678, Note_on_c, 1, 66, 0
1, 23680, Note_on_c, 1, 63, 80
1, 23689, Note_on_c, 0, 78, 0
1, 23689, Note_on_c, 0, 75, 0
1, 23710, Note_on_c, 1, 63, 0
1, 23712, Note_on_c, 1, 73, 80
1, 23742, Note_on_c, 1, 73, 0
1, 23744, Note_on_c, 1, 71, 80
1, 23774, Note_on_c, 1, 71, 0
1, 23776, Note_on_c, 1, 69, 80
1, 23806, Note_on_c, 1, 69, 0
1, 23808, Note_on_c, 1, 68, 80
1, 23831, Note_on_c, 1, 68, 0
1, 23832, Note_on_c, 1, 66, 80
1, 23855, Note_on_c, 1, 66, 0
1, 23856, Note_on_c, 1, 64, 80
1, 23879, Note_on_c, 1, 64, 0
1, 23880, Note_on_c, 1, 63, 80
1, 23903, Note_on_c, 1, 63, 0
1, 23904, Note_on_c, 1, 60, 96
1, 23936, Note_on_c, 0, 63, 80
1, 23966, Note_on_c, 0, 63, 0
1, 23968, Note_on_c, 0, 66, 80
1, 23998, Note_on_c, 0, 66, 0
1, 24000, Note_on_c, 0, 69, 80
1, 24030, Note_on_c, 0, 69, 0
1, 24032, Note_on_c, 0, 66, 80
1, 24062, Note_on_c, 0, 66, 0
1, 24064, Note_on_c, 0, 63, 80
1, 24094, Note_on_c, 0, 63, 0
1, 24096, Note_on_c, 0, 66, 80
1, 24096, Note_on_c, 1, 60, 0
1, 24096, Note_on_c, 1, 60, 96
1, 24126, Note_on_c, 0, 66, 0
1, 24128, Note_on_c, 0, 69, 80
1, 24158, Note_on_c, 0, 69, 0
1, 24160, Note_on_c, 0, 66, 80
1, 24190, Note_on_c, 0, 66, 0
1, 24192, Note_on_c, 0, 77, 80
1, 24192, Note_on_c, 1, 60, 0
1, 24192, Note_on_c, 1, 71, 80
1, 24192, Note_on_c, 1, 73, 80
1, 24222, Note_on_c, 0, 77, 0
1, 24224, Note_on_c, 0, 78, 79
1, 24254, Note_on_c, 0, 78, 0
1, 24256, Note_on_c, 0, 80, 79
1, 24286, Note_on_c, 0, 80, 0
1, 24288, Note_on_c, 0, 78, 79
1, 24288, Note_on_c, 1, 71, 0
1, 24288, Note_on_c, 1, 69, 78
1, 24318, Note_on_c, 0, 78, 0
1, 24320, Note_on_c, 0, 80, 78
1, 24350, Note_on_c, 0, 80, 0
1, 24352, Note_on_c, 0, 81, 78
1, 24369, Note_on_c, 1, 73, 0
1, 24377, Note_on_c, 1, 69, 0
1, 24382, Note_on_c, 0, 81, 0
1, 24384, Note_on_c, 0, 75, 78
1, 24384, Note_on_c, 1, 69, 77
1, 24384, Note_on_c, 1, 71, 77
1, 24414, Note_on_c, 0, 75, 0
1, 24416, Note_on_c, 0, 76, 77
1, 24446, Note_on_c, 0, 76, 0
1, 24448, Note_on_c, 0, 78, 77
1, 24478, Note_on_c, 0, 78, 0
1, 24480, Note_on_c, 0, 76, 77
1, 24480, Note_on_c, 1, 69, 0
1, 24480, Note_on_c, 1, 67, 76
1, 24510, Note_on_c, 0, 76, 0
1, 24512, Note_on_c, 0, 78, 76
1, 24542, Note_on_c, 0, 78, 0
1, 24544, Note_on_c, 0, 79, 76
1, 24561, Note_on_c, 1, 71, 0
1, 24569, Note_on_c, 1, 67, 0
1, 24574, Note_on_c, 0, 79, 0
1, 24576, Note_on_c, 0, 73, 76
1, 24576, Note_on_c, 1, 67, 75
1, 24576, Note_on_c, 1, 69, 75
1, 24606, Note_on_c, 0, 73, 0
1, 24608, Note_on_c, 0, 74, 75
1, 24638, Note_on_c, 0, 74, 0
1, 24640, Note_on_c, 0, 76, 75
1, 24670, Note_on_c, 0, 76, 0
1, 24672, Note_on_c, 0, 74, 75
1, 24672, Note_on_c, 1, 67, 0
1, 24672, Note_on_c, 1, 65, 73
1, 24702, Note_on_c, 0, 74, 0
1, 24704, Note_on_c, 0, 76, 75
1, 24734, Note_on_c, 0, 76, 0
1, 24736, Note_on_c, 0, 77, 74
1, 24753, Note_on_c, 1, 69, 0
1, 24761, Note_on_c, 1, 65, 0
1, 24766, Note_on_c, 0, 77, 0
1, 24768, Note_on_c, 0, 71, 74
1, 24768, Note_on_c, 1, 65, 72
1, 24768, Note_on_c, 1, 67, 72
1, 24798, Note_on_c, 0, 71, 0
1, 24800, Note_on_c, 0, 72, 74
1, 24830, Note_on_c, 0, 72, 0
1, 24832, Note_on_c, 0, 74, 73
1, 24862, Note_on_c, 0, 74, 0
1, 24864, Note_on_c, 0, 72, 73
1, 24864, Note_on_c, 1, 65, 0
1, 24864, Note_on_c, 1, 64, 71
1, 24894, Note_on_c, 0, 72, 0
1, 24896, Note_on_c, 0, 74, 73
1, 24926, Note_on_c, 0, 74, 0
1, 24928, Note_on_c, 0, 76, 72
1, 24945, Note_on_c, 1, 67, 0
1, 24953, Note_on_c, 1, 64, 0
1, 24958, Note_on_c, 0, 76, 0
1, 24960, Note_on_c, 0, 70, 72
1, 25008, Note_on_c, 1, 67, 70
1, 25008, Note_on_c, 1, 64, 70
1, 25053, Note_on_c, 1, 67, 0
1, 25053, Note_on_c, 1, 64, 0
1, 25056, Note_on_c, 1, 66, 70
1, 25056, Note_on_c, 1, 63, 70
1, 25101, Note_on_c, 1, 66, 0
1, 25101, Note_on_c, 1, 63, 0
1, 25104, Note_on_c, 1, 64, 70
1, 25104, Note_on_c, 1, 61, 70
1, 25149, Note_on_c, 1, 64, 0
1, 25149, Note_on_c, 1, 61, 0
1, 25152, Note_on_c, 0, 70, 0
1, 25152, Note_on_c, 0, 71, 70
1, 25152, Note_on_c, 1, 63, 70
1, 25152, Note_on_c, 1, 59, 70
1, 25197, Note_on_c, 0, 71, 0
1, 25197, Note_on_c, 1, 63, 0
1, 25197, Note_on_c, 1, 59, 0
1, 25200, Note_on_c, 0, 71, 64
1, 25220, Note_on_c, 0, 71, 0
1, 25248, Note_on_c, 0, 71, 64
1, 25268, Note_on_c, 0, 71, 0
1, 25296, Note_on_c, 0, 71, 64
1, 25316, Note_on_c, 0, 71, 0
1, 25344, Note_on_c, 0, 71, 64
1, 25364, Note_on_c, 0, 71, 0
1, 25392, Note_on_c, 0, 71, 64
1, 25412, Note_on_c, 0, 71, 0
1, 25440, Note_on_c, 0, 71, 64
1, 25460, Note_on_c, 0, 71, 0
1, 25488, Note_on_c, 0, 71, 64
1, 25508, Note_on_c, 0, 71, 0
1, 25536, Note_on_c, 0, 72, 64
1, 25536, Note_on_c, 0, 71, 64
1, 25556, Note_on_c, 0, 72, 0
1, 25584, Note_on_c, 0, 72, 64
1, 25604, Note_on_c, 0, 72, 0
1, 25632, Note_on_c, 0, 72, 65
1, 25652, Note_on_c, 0, 72, 0
1, 25680, Note_on_c, 0, 72, 65
1, 25700, Note_on_c, 0, 72, 0
1, 25728, Note_on_c, 0, 72, 66
1, 25728, Note_on_c, 0, 71, 0
1, 25728, Note_on_c, 0, 69, 65
1, 25748, Note_on_c, 0, 72, 0
1, 25767, Note_on_c, 0, 69, 0
1, 25776, Note_on_c, 0, 72, 66
1, 25796, Note_on_c, 0, 72, 0
1, 25824, Note_on_c, 0, 72, 67
1, 25844, Note_on_c, 0, 72, 0
1, 25872, Note_on_c, 0, 72, 67
1, 25892, Note_on_c, 0, 72, 0
1, 25920, Note_on_c, 0, 75, 68
1, 25920, Note_on_c, 0, 69, 66
1, 25940, Note_on_c, 0, 75, 0
1, 25968, Note_on_c, 0, 75, 68
1, 25988, Note_on_c, 0, 75, 0
1, 26016, Note_on_c, 0, 75, 69
1, 26036, Note_on_c, 0, 75, 0
1, 26064, Note_on_c, 0, 75, 70
1, 26084, Note_on_c, 0, 75, 0
1, 26112, Note_on_c, 0, 76, 70
1, 26112, Note_on_c, 0, 69, 0
1, 26112, Note_on_c, 0, 67, 68
1, 26132, Note_on_c, 0, 76, 0
1, 26151, Note_on_c, 0, 67, 0
1, 26160, Note_on_c, 0, 76, 71
1, 26180, Note_on_c, 0, 76, 0
1, 26208, Note_on_c, 0, 76, 71
1, 26228, Note_on_c, 0, 76, 0
1, 26256, Note_on_c, 0, 76, 72
1, 26276, Note_on_c, 0, 76, 0
1, 26304, Note_on_c, 0, 78, 72
1, 26304, Note_on_c, 0, 63, 69
1, 26349, Note_on_c, 0, 78, 0
1, 26352, Note_on_c, 0, 71, 73
1, 26397, Note_on_c, 0, 71, 0
1, 26400, Note_on_c, 0, 78, 73
1, 26445, Note_on_c, 0, 78, 0
1, 26448, Note_on_c, 0, 71, 74
1, 26493, Note_on_c, 0, 71, 0
1, 26496, Note_on_c, 0, 79, 75
1, 26496, Note_on_c, 0, 63, 0
1, 26496, Note_on_c, 0, 64, 71
1, 26535, Note_on_c, 0, 64, 0
1, 26541, Note_on_c, 0, 79, 0
1, 26544, Note_on_c, 0, 71, 75
1, 26589, Note_on_c, 0, 71, 0
1, 26592, Note_on_c, 0, 79, 76
1, 26637, Note_on_c, 0, 79, 0
1, 26640, Note_on_c, 0, 71, 76
1, 26685, Note_on_c, 0, 71, 0
1, 26688, Note_on_c, 0, 80, 77
1, 26688, Note_on_c, 0, 76, 77
1, 26688, Note_on_c, 0, 62, 72
1, 26733, Note_on_c, 0, 80, 0
1, 26733, Note_on_c, 0, 76, 0
1, 26736, Note_on_c, 0, 71, 77
1, 26781, Note_on_c, 0, 71, 0
1, 26784, Note_on_c, 0, 80, 78
1, 26784, Note_on_c, 0, 76, 78
1, 26829, Note_on_c, 0, 80, 0
1, 26829, Note_on_c, 0, 76, 0
1, 26832, Note_on_c, 0, 71, 78
1, 26877, Note_on_c, 0, 71, 0
1, 26880, Note_on_c, 0, 81, 79
1, 26880, Note_on_c, 0, 76, 79
1, 26880, Note_on_c, 0, 62, 0
1, 26880, Note_on_c, 0, 60, 74
1, 26919, Note_on_c, 0, 60, 0
1, 26925, Note_on_c, 0, 81, 0
1, 26925, Note_on_c, 0, 76, 0
1, 26928, Note_on_c, 0, 72, 80
1, 26973, Note_on_c, 0, 72, 0
1, 26976, Note_on_c, 0, 81, 64
1, 26976, Note_on_c, 0, 76, 64
1, 27021, Note_on_c, 0, 81, 0
1, 27021, Note_on_c, 0, 76, 0
1, 27024, Note_on_c, 0, 72, 63
1, 27069, Note_on_c, 0, 72, 0
1, 27072, Note_on_c, 0, 82, 62
1, 27072, Note_on_c, 0, 76, 62
1, 27117, Note_on_c, 0, 82, 0
1, 27117, Note_on_c, 0, 76, 0
1, 27120, Note_on_c, 0, 72, 61
1, 27165, Note_on_c, 0, 72, 0
1, 27168, Note_on_c, 0, 82, 60
1, 27168, Note_on_c, 0, 76, 60
1, 27213, Note_on_c, 0, 82, 0
1, 27213, Note_on_c, 0, 76, 0
1, 27216, Note_on_c, 0, 72, 59
1, 27261, Note_on_c, 0, 72, 0
1, 27264, Note_on_c, 0, 83, 58
1, 27264, Note_on_c, 0, 75, 58
1, 27353, Note_on_c, 0, 83, 0
1, 27353, Note_on_c, 0, 75, 0
1, 27648, Note_on_c, 0, 86, 102
1, 27648, Note_on_c, 0, 83, 102
1, 27648, Note_on_c, 1, 68, 86
1, 27671, Note_on_c, 1, 68, 0
1, 27672, Note_on_c, 1, 69, 86
1, 27695, Note_on_c, 1, 69, 0
1, 27696, Note_on_c, 1, 68, 86
1, 27719, Note_on_c, 1, 68, 0
1, 27720, Note_on_c, 1, 69, 86
1, 27743, Note_on_c, 1, 69, 0
1, 27744, Note_on_c, 0, 86, 0
1, 27744, Note_on_c, 0, 83, 0
1, 27744, Note_on_c, 0, 85, 86
1, 27744, Note_on_c, 0, 81, 86
1, 27744, Note_on_c, 1, 69, 86
1, 27764, Note_on_c, 1, 69, 0
1, 27783, Note_on_c, 0, 85, 0
1, 27783, Note_on_c, 0, 81, 0
1, 27840, Note_on_c, 0, 84, 102
1, 27840, Note_on_c, 0, 81, 102
1, 27840, Note_on_c, 1, 63, 86
1, 27863, Note_on_c, 1, 63, 0
1, 27864, Note_on_c, 1, 64, 86
1, 27887, Note_on_c, 1, 64, 0
1, 27888, Note_on_c, 1, 63, 86
1, 27911, Note_on_c, 1, 63, 0
1, 27912, Note_on_c, 1, 64, 86
1, 27935, Note_on_c, 1, 64, 0
1, 27936, Note_on_c, 0, 84, 0
1, 27936, Note_on_c, 0, 81, 0
1, 27936, Note_on_c, 0, 83, 86
1, 27936, Note_on_c, 0, 80, 86
1, 27936, Note_on_c, 1, 64, 86
1, 27956, Note_on_c, 1, 64, 0
1, 27975, Note_on_c, 0, 83, 0
1, 27975, Note_on_c, 0, 80, 0
1, 28032, Note_on_c, 0, 88, 102
1, 28032, Note_on_c, 0, 85, 102
1, 28032, Note_on_c, 1, 58, 86
1, 28055, Note_on_c, 1, 58, 0
1, 28056, Note_on_c, 1, 59, 86
1, 28079, Note_on_c, 1, 59, 0
1, 28080, Note_on_c, 1, 58, 86
1, 28103, Note_on_c, 1, 58, 0
1, 28104, Note_on_c, 1, 59, 86
1, 28127, Note_on_c, 1, 59, 0
1, 28128, Note_on_c, 0, 88, 0
1, 28128, Note_on_c, 0, 85, 0
1, 28128, Note_on_c, 0, 87, 86
1, 28128, Note_on_c, 0, 83, 86
1, 28128, Note_on_c, 1, 59, 86
1, 28148, Note_on_c, 1, 59, 0
1, 28167, Note_on_c, 0, 87, 0
1, 28167, Note_on_c, 0, 83, 0
1, 28224, Note_on_c, 0, 81, 102
1, 28224, Note_on_c, 0, 78, 102
1, 28224, Note_on_c, 1, 51, 86
1, 28247, Note_on_c, 1, 51, 0
1, 28248, Note_on_c, 1, 52, 86
1, 28271, Note_on_c, 1, 52, 0
1, 28272, Note_on_c, 1, 51, 86
1, 28295, Note_on_c, 1, 51, 0
1, 28296, Note_on_c, 1, 52, 86
1, 28319, Note_on_c, 1, 52, 0
1, 28320, Note_on_c, 0, 81, 0
1, 28320, Note_on_c, 0, 78, 0
1, 28320, Note_on_c, 0, 80, 86
1, 28320, Note_on_c, 0, 76, 86
1, 28320, Note_on_c, 1, 52, 86
1, 28335, Note_on_c, 0, 80, 0
1, 28335, Note_on_c, 0, 76, 0
1, 28340, Note_on_c, 1, 52, 0
1, 28392, Note_on_c, 0, 81, 86
1, 28404, Note_on_c, 0, 81, 0
1, 28404, Note_on_c, 0, 83, 86
1, 28416, Note_on_c, 0, 83, 0
1, 28416, Note_on_c, 0, 85, 102
1, 28416, Note_on_c, 1, 33, 86
1, 28464, Note_on_c, 0, 85, 0
1, 28464, Note_on_c, 0, 83, 86
1, 28484, Note_on_c, 0, 83, 0
1, 28512, Note_on_c, 0, 81, 86
1, 28532, Note_on_c, 0, 81, 0
1, 28560, Note_on_c, 0, 80, 86
1, 28580, Note_on_c, 0, 80, 0
1, 28593, Note_on_c, 1, 33, 0
1, 28608, Note_on_c, 0, 78, 86
1, 28628, Note_on_c, 0, 78, 0
1, 28656, Note_on_c, 0, 76, 86
1, 28676, Note_on_c, 0, 76, 0
1, 28704, Note_on_c, 0, 75, 86
1, 28724, Note_on_c, 0, 75, 0
1, 28752, Note_on_c, 0, 73, 86
1, 28772, Note_on_c, 0, 73, 0
1, 28800, Note_on_c, 0, 71, 80
1, 28800, Note_on_c, 1, 59, 80
1, 28820, Note_on_c, 0, 71, 0
1, 28820, Note_on_c, 1, 59, 0
1, 28848, Note_on_c, 0, 69, 78
1, 28848, Note_on_c, 1, 57, 78
1, 28868, Note_on_c, 0, 69, 0
1, 28868, Note_on_c, 1, 57, 0
1, 28896, Note_on_c, 0, 68, 77
1, 28896, Note_on_c, 1, 56, 77
1, 28916, Note_on_c, 0, 68, 0
1, 28916, Note_on_c, 1, 56, 0
1, 28944, Note_on_c, 0, 66, 76
1, 28944, Note_on_c, 1, 54, 76
1, 28964, Note_on_c, 0, 66, 0
1, 28964, Note_on_c, 1, 54, 0
1, 28992, Note_on_c, 0, 64, 75
1, 28992, Note_on_c, 1, 52, 75
1, 29012, Note_on_c, 0, 64, 0
1, 29012, Note_on_c, 1, 52, 0
1, 29040, Note_on_c, 0, 63, 73
1, 29040, Note_on_c, 1, 51, 73
1, 29060, Note_on_c, 0, 63, 0
1, 29060, Note_on_c, 1, 51, 0
1, 29088, Note_on_c, 0, 61, 72
1, 29088, Note_on_c, 1, 49, 72
1, 29108, Note_on_c, 0, 61, 0
1, 29108, Note_on_c, 1, 49, 0
1, 29136, Note_on_c, 0, 59, 71
1, 29136, Note_on_c, 1, 47, 71
1, 29156, Note_on_c, 0, 59, 0
1, 29156, Note_on_c, 1, 47, 0
1, 29184, Note_on_c, 0, 72, 64
1, 29184, Note_on_c, 0, 64, 64
1, 29184, Note_on_c, 0, 57, 64
1, 29184, Note_on_c, 1, 45, 64
1, 29223, Note_on_c, 0, 72, 0
1, 29223, Note_on_c, 0, 64, 0
1, 29223, Note_on_c, 0, 57, 0
1, 29273, Note_on_c, 1, 45, 0
1, 29376, Note_on_c, 0, 63, 64
1, 29376, Note_on_c, 0, 57, 64
1, 29376, Note_on_c, 1, 47, 64
1, 29415, Note_on_c, 0, 63, 0
1, 29415, Note_on_c, 0, 57, 0
1, 29465, Note_on_c, 1, 47, 0
1, 29568, Note_on_c, 0, 64, 80
1, 29568, Note_on_c, 1, 52, 64
1, 29568, Note_on_c, 1, 40, 64
1, 29592, Note_on_c, 0, 64, 0
1, 29592, Note_on_c, 0, 59, 80
1, 29615, Note_on_c, 0, 59, 0
1, 29616, Note_on_c, 0, 68, 80
1, 29626, Note_on_c, 0, 68, 0
1, 29640, Note_on_c, 0, 68, 80
1, 29650, Note_on_c, 0, 68, 0
1, 29657, Note_on_c, 1, 52, 0
1, 29657, Note_on_c, 1, 40, 0
1, 29664, Note_on_c, 0, 68, 80
1, 29688, Note_on_c, 0, 68, 0
1, 29688, Note_on_c, 0, 64, 81
1, 29711, Note_on_c, 0, 64, 0
1, 29712, Note_on_c, 0, 71, 81
1, 29722, Note_on_c, 0, 71, 0
1, 29736, Note_on_c, 0, 71, 81
1, 29746, Note_on_c, 0, 71, 0
1, 29760, Note_on_c, 0, 71, 81
1, 29784, Note_on_c, 0, 71, 0
1, 29784, Note_on_c, 0, 68, 82
1, 29807, Note_on_c, 0, 68, 0
1, 29808, Note_on_c, 0, 76, 82
1, 29818, Note_on_c, 0, 76, 0
1, 29832, Note_on_c, 0, 76, 82
1, 29842, Note_on_c, 0, 76, 0
1, 29856, Note_on_c, 0, 76, 82
1, 29880, Note_on_c, 0, 76, 0
1, 29880, Note_on_c, 0, 71, 83
1, 29903, Note_on_c, 0, 71, 0
1, 29904, Note_on_c, 0, 80, 83
1, 29914, Note_on_c, 0, 80, 0
1, 29928, Note_on_c, 0, 80, 83
1, 29938, Note_on_c, 0, 80, 0
1, 29952, Note_on_c, 0, 80, 83
1, 29952, Note_on_c, 1, 68, 80
1, 29976, Note_on_c, 0, 80, 0
1, 29976, Note_on_c, 0, 76, 84
1, 29976, Note_on_c, 1, 68, 0
1, 29976, Note_on_c, 1, 64, 80
1, 29999, Note_on_c, 0, 76, 0
1, 29999, Note_on_c, 1, 64, 0
1, 30000, Note_on_c, 0, 83, 84
1, 30000, Note_on_c, 1, 71, 81
1, 30010, Note_on_c, 0, 83, 0
1, 30010, Note_on_c, 1, 71, 0
1, 30024, Note_on_c, 0, 83, 84
1, 30024, Note_on_c, 1, 71, 82
1, 30034, Note_on_c, 0, 83, 0
1, 30034, Note_on_c, 1, 71, 0
1, 30048, Note_on_c, 0, 83, 84
1, 30048, Note_on_c, 1, 71, 83
1, 30072, Note_on_c, 0, 83, 0
1, 30072, Note_on_c, 0, 80, 85
1, 30072, Note_on_c, 1, 71, 0
1, 30072, Note_on_c, 1, 68, 84
1, 30095, Note_on_c, 0, 80, 0
1, 30095, Note_on_c, 1, 68, 0
1, 30096, Note_on_c, 0, 88, 85
1, 30096, Note_on_c, 1, 76, 85
1, 30106, Note_on_c, 0, 88, 0
1, 30106, Note_on_c, 1, 76, 0
1, 30120, Note_on_c, 0, 88, 85
1, 30120, Note_on_c, 1, 76, 86
1, 30130, Note_on_c, 0, 88, 0
1, 30130, Note_on_c, 1, 76, 0
1, 30144, Note_on_c, 0, 88, 86
1, 30144, Note_on_c, 1, 76, 86
1, 30183, Note_on_c, 0, 88, 0
1, 30183, Note_on_c, 1, 76, 0
1, 30336, Note_on_c, 0, 87, 70
1, 30336, Note_on_c, 1, 83, 64
1, 30359, Note_on_c, 0, 87, 0
1, 30360, Note_on_c, 0, 85, 70
1, 30375, Note_on_c, 1, 83, 0
1, 30383, Note_on_c, 0, 85, 0
1, 30384, Note_on_c, 0, 87, 70
1, 30407, Note_on_c, 0, 87, 0
1, 30408, Note_on_c, 0, 83, 70
1, 30431, Note_on_c, 0, 83, 0
1, 30432, Note_on_c, 0, 88, 70
1, 30432, Note_on_c, 1, 80, 64
1, 30471, Note_on_c, 0, 88, 0
1, 30471, Note_on_c, 1, 80, 0
1, 30720, Note_on_c, 0, 81, 80
1, 30720, Note_on_c, 1, 60, 80
1, 30720, Note_on_c, 1, 57, 80
1, 30720, Note_on_c, 1, 54, 80
1, 30720, Note_on_c, 1, 51, 80
1, 30732, Note_on_c, 0, 81, 0
1, 30732, Note_on_c, 0, 83, 80
1, 30744, Note_on_c, 0, 83, 0
1, 30744, Note_on_c, 0, 84, 96
1, 30768, Note_on_c, 0, 84, 0
1, 30768, Note_on_c, 0, 83, 80
1, 30788, Note_on_c, 0, 83, 0
1, 30816, Note_on_c, 0, 81, 80
1, 30836, Note_on_c, 0, 81, 0
1, 30864, Note_on_c, 0, 80, 80
1, 30884, Note_on_c, 0, 80, 0
1, 30897, Note_on_c, 1, 60, 0
1, 30897, Note_on_c, 1, 57, 0
1, 30897, Note_on_c, 1, 54, 0
1, 30897, Note_on_c, 1, 51, 0
1, 30912, Note_on_c, 0, 77, 80
1, 30932, Note_on_c, 0, 77, 0
1, 30960, Note_on_c, 0, 76, 80
1, 30980, Note_on_c, 0, 76, 0
1, 31008, Note_on_c, 0, 74, 80
1, 31028, Note_on_c, 0, 74, 0
1, 31056, Note_on_c, 0, 72, 80
1, 31076, Note_on_c, 0, 72, 0
1, 31104, Note_on_c, 0, 71, 80
1, 31124, Note_on_c, 0, 71, 0
1, 31152, Note_on_c, 0, 69, 80
1, 31172, Note_on_c, 0, 69, 0
1, 31200, Note_on_c, 0, 68, 80
1, 31220, Note_on_c, 0, 68, 0
1, 31248, Note_on_c, 0, 65, 80
1, 31268, Note_on_c, 0, 65, 0
1, 31296, Note_on_c, 0, 64, 80
1, 31316, Note_on_c, 0, 64, 0
1, 31344, Note_on_c, 0, 62, 80
1, 31364, Note_on_c, 0, 62, 0
1, 31392, Note_on_c, 0, 60, 80
1, 31412, Note_on_c, 0, 60, 0
1, 31440, Note_on_c, 0, 59, 80
1, 31460, Note_on_c, 0, 59, 0
1, 31488, Note_on_c, 0, 63, 80
1, 31488, Note_on_c, 0, 57, 80
1, 31488, Note_on_c, 1, 53, 80
1, 31533, Note_on_c, 1, 53, 0
1, 31536, Note_on_c, 1, 41, 80
1, 31581, Note_on_c, 1, 41, 0
1, 31584, Note_on_c, 1, 53, 80
1, 31629, Note_on_c, 1, 53, 0
1, 31632, Note_on_c, 1, 53, 80
1, 31677, Note_on_c, 1, 53, 0
1, 31680, Note_on_c, 1, 53, 80
1, 31725, Note_on_c, 1, 53, 0
1, 31728, Note_on_c, 1, 41, 80
1, 31773, Note_on_c, 1, 41, 0
1, 31776, Note_on_c, 1, 53, 80
1, 31821, Note_on_c, 1, 53, 0
1, 31824, Note_on_c, 1, 53, 80
1, 31842, Note_on_c, 0, 63, 0
1, 31842, Note_on_c, 0, 57, 0
1, 31869, Note_on_c, 1, 53, 0
1, 31872, Note_on_c, 0, 64, 80
1, 31872, Note_on_c, 0, 56, 80
1, 31872, Note_on_c, 1, 52, 80
1, 31961, Note_on_c, 1, 52, 0
1, 31968, Note_on_c, 1, 51, 70
1, 31991, Note_on_c, 1, 51, 0
1, 31992, Note_on_c, 1, 52, 70
1, 32015, Note_on_c, 1, 52, 0
1, 32016, Note_on_c, 1, 51, 70
1, 32039, Note_on_c, 1, 51, 0
1, 32040, Note_on_c, 1, 52, 70
1, 32049, Note_on_c, 0, 64, 0
1, 32049, Note_on_c, 0, 56, 0
1, 32063, Note_on_c, 1, 52, 0
1, 32064, Note_on_c, 1, 40, 70
1, 32084, Note_on_c, 1, 40, 0
1, 32160, Note_on_c, 0, 64, 70
1, 32160, Note_on_c, 0, 56, 70
1, 32199, Note_on_c, 0, 64, 0
1, 32199, Note_on_c, 0, 56, 0
1, 32256, Note_on_c, 0, 65, 86
1, 32256, Note_on_c, 0, 62, 86
1, 32256, Note_on_c, 0, 59, 86
1, 32352, Note_on_c, 1, 51, 70
1, 32375, Note_on_c, 1, 51, 0
1, 32376, Note_on_c, 1, 52, 70
1, 32399, Note_on_c, 1, 52, 0
1, 32400, Note_on_c, 1, 51, 70
1, 32423, Note_on_c, 1, 51, 0
1, 32424, Note_on_c, 1, 52, 70
1, 32447, Note_on_c, 1, 52, 0
1, 32448, Note_on_c, 0, 65, 0
1, 32448, Note_on_c, 0, 62, 0
1, 32448, Note_on_c, 0, 59, 0
1, 32448, Note_on_c, 1, 40, 70
1, 32468, Note_on_c, 1, 40, 0
1, 32544, Note_on_c, 0, 65, 70
1, 32544, Note_on_c, 0, 62, 70
1, 32544, Note_on_c, 0, 59, 70
1, 32583, Note_on_c, 0, 65, 0
1, 32583, Note_on_c, 0, 62, 0
1, 32583, Note_on_c, 0, 59, 0
1, 32640, Note_on_c, 0, 68, 86
1, 32640, Note_on_c, 0, 64, 86
1, 32640, Note_on_c, 0, 59, 86
1, 32736, Note_on_c, 1, 51, 70
1, 32759, Note_on_c, 1, 51, 0
1, 32760, Note_on_c, 1, 52, 70
1, 32783, Note_on_c, 1, 52, 0
1, 32784, Note_on_c, 1, 51, 70
1, 32807, Note_on_c, 1, 51, 0
1, 32808, Note_on_c, 1, 52, 70
1, 32831, Note_on_c, 1, 52, 0
1, 32832, Note_on_c, 0, 68, 0
1, 32832, Note_on_c, 0, 64, 0
1, 32832, Note_on_c, 0, 59, 0
1, 32832, Note_on_c, 1, 40, 70
1, 32852, Note_on_c, 1, 40, 0
1, 32928, Note_on_c, 0, 68, 70
1, 32928, Note_on_c, 0, 64, 70
1, 32928, Note_on_c, 0, 59, 70
1, 32967, Note_on_c, 0, 68, 0
1, 32967, Note_on_c, 0, 64, 0
1, 32967, Note_on_c, 0, 59, 0
1, 33024, Note_on_c, 0, 69, 86
1, 33024, Note_on_c, 0, 64, 86
1, 33024, Note_on_c, 0, 60, 86
1, 33120, Note_on_c, 1, 51, 71
1, 33143, Note_on_c, 1, 51, 0
1, 33144, Note_on_c, 1, 52, 71
1, 33167, Note_on_c, 1, 52, 0
1, 33168, Note_on_c, 1, 51, 72
1, 33191, Note_on_c, 1, 51, 0
1, 33192, Note_on_c, 1, 52, 72
1, 33215, Note_on_c, 1, 52, 0
1, 33216, Note_on_c, 0, 69, 0
1, 33216, Note_on_c, 0, 64, 0
1, 33216, Note_on_c, 0, 60, 0
1, 33216, Note_on_c, 1, 40, 72
1, 33236, Note_on_c, 1, 40, 0
1, 33312, Note_on_c, 0, 69, 74
1, 33312, Note_on_c, 0, 64, 74
1, 33312, Note_on_c, 0, 60, 74
1, 33351, Note_on_c, 0, 69, 0
1, 33351, Note_on_c, 0, 64, 0
1, 33351, Note_on_c, 0, 60, 0
1, 33408, Note_on_c, 0, 71, 91
1, 33408, Note_on_c, 0, 68, 91
1, 33408, Note_on_c, 0, 62, 91
1, 33504, Note_on_c, 1, 51, 76
1, 33527, Note_on_c, 1, 51, 0
1, 33528, Note_on_c, 1, 52, 77
1, 33551, Note_on_c, 1, 52, 0
1, 33552, Note_on_c, 1, 51, 77
1, 33575, Note_on_c, 1, 51, 0
1, 33576, Note_on_c, 1, 52, 77
1, 33599, Note_on_c, 1, 52, 0
1, 33600, Note_on_c, 0, 71, 0
1, 33600, Note_on_c, 0, 68, 0
1, 33600, Note_on_c, 0, 62, 0
1, 33600, Note_on_c, 1, 40, 78
1, 33620, Note_on_c, 1, 40, 0
1, 33696, Note_on_c, 0, 71, 79
1, 33696, Note_on_c, 0, 68, 79
1, 33696, Note_on_c, 0, 62, 79
1, 33735, Note_on_c, 0, 71, 0
1, 33735, Note_on_c, 0, 68, 0
1, 33735, Note_on_c, 0, 62, 0
1, 33792, Note_on_c, 0, 72, 96
1, 33792, Note_on_c, 0, 69, 96
1, 33792, Note_on_c, 0, 64, 96
1, 33888, Note_on_c, 1, 51, 82
1, 33911, Note_on_c, 1, 51, 0
1, 33912, Note_on_c, 1, 52, 82
1, 33935, Note_on_c, 1, 52, 0
1, 33936, Note_on_c, 1, 51, 82
1, 33959, Note_on_c, 1, 51, 0
1, 33960, Note_on_c, 1, 52, 83
1, 33983, Note_on_c, 1, 52, 0
1, 33984, Note_on_c, 0, 72, 0
1, 33984, Note_on_c, 0, 69, 0
1, 33984, Note_on_c, 0, 64, 0
1, 33984, Note_on_c, 1, 40, 83
1, 34004, Note_on_c, 1, 40, 0
1, 34080, Note_on_c, 0, 75, 100
1, 34080, Note_on_c, 0, 69, 100
1, 34080, Note_on_c, 0, 66, 100
1, 34119, Note_on_c, 0, 75, 0
1, 34119, Note_on_c, 0, 69, 0
1, 34119, Note_on_c, 0, 66, 0
1, 34176, Note_on_c, 0, 76, 86
1, 34176, Note_on_c, 0, 72, 86
1, 34176, Note_on_c, 0, 69, 86
1, 34176, Note_on_c, 0, 64, 86
1, 34176, Note_on_c, 1, 60, 86
1, 34176, Note_on_c, 1, 48, 86
1, 34196, Note_on_c, 1, 60, 0
1, 34196, Note_on_c, 1, 48, 0
1, 34215, Note_on_c, 0, 76, 0
1, 34215, Note_on_c, 0, 72, 0
1, 34215, Note_on_c, 0, 69, 0
1, 34215, Note_on_c, 0, 64, 0
1, 34224, Note_on_c, 1, 59, 86
1, 34224, Note_on_c, 1, 47, 86
1, 34244, Note_on_c, 1, 59, 0
1, 34244, Note_on_c, 1, 47, 0
1, 34272, Note_on_c, 0, 72, 86
1, 34272, Note_on_c, 0, 69, 86
1, 34272, Note_on_c, 0, 64, 86
1, 34272, Note_on_c, 1, 57, 86
1, 34272, Note_on_c, 1, 45, 86
1, 34292, Note_on_c, 1, 57, 0
1, 34292, Note_on_c, 1, 45, 0
1, 34311, Note_on_c, 0, 72, 0
1, 34311, Note_on_c, 0, 69, 0
1, 34311, Note_on_c, 0, 64, 0
1, 34320, Note_on_c, 1, 56, 86
1, 34320, Note_on_c, 1, 44, 86
1, 34340, Note_on_c, 1, 56, 0
1, 34340, Note_on_c, 1, 44, 0
1, 34368, Note_on_c, 1, 53, 86
1, 34368, Note_on_c, 1, 41, 86
1, 34388, Note_on_c, 1, 53, 0
1, 34388, Note_on_c, 1, 41, 0
1, 34416, Note_on_c, 0, 69, 86
1, 34416, Note_on_c, 1, 52, 86
1, 34416, Note_on_c, 1, 40, 86
1, 34436, Note_on_c, 1, 52, 0
1, 34436, Note_on_c, 1, 40, 0
1, 34461, Note_on_c, 0, 69, 0
1, 34464, Note_on_c, 0, 71, 86
1, 34464, Note_on_c, 1, 50, 86
1, 34464, Note_on_c, 1, 38, 86
1, 34484, Note_on_c, 1, 50, 0
1, 34484, Note_on_c, 1, 38, 0
1, 34509, Note_on_c, 0, 71, 0
1, 34512, Note_on_c, 0, 72, 86
1, 34512, Note_on_c, 1, 48, 86
1, 34512, Note_on_c, 1, 36, 86
1, 34532, Note_on_c, 1, 48, 0
1, 34532, Note_on_c, 1, 36, 0
1, 34557, Note_on_c, 0, 72, 0
1, 34560, Note_on_c, 0, 74, 86
1, 34560, Note_on_c, 0, 71, 86
1, 34560, Note_on_c, 0, 68, 86
1, 34560, Note_on_c, 1, 57, 86
1, 34560, Note_on_c, 1, 45, 86
1, 34580, Note_on_c, 1, 57, 0
1, 34580, Note_on_c, 1, 45, 0
1, 34599, Note_on_c, 0, 74, 0
1, 34599, Note_on_c, 0, 71, 0
1, 34599, Note_on_c, 0, 68, 0
1, 34608, Note_on_c, 1, 56, 86
1, 34608, Note_on_c, 1, 44, 86
1, 34628, Note_on_c, 1, 56, 0
1, 34628, Note_on_c, 1, 44, 0
1, 34656, Note_on_c, 0, 71, 86
1, 34656, Note_on_c, 0, 68, 86
1, 34656, Note_on_c, 1, 53, 86
1, 34656, Note_on_c, 1, 41, 86
1, 34676, Note_on_c, 1, 53, 0
1, 34676, Note_on_c, 1, 41, 0
1, 34695, Note_on_c, 0, 71, 0
1, 34695, Note_on_c, 0, 68, 0
1, 34704, Note_on_c, 1, 52, 86
1, 34704, Note_on_c, 1, 40, 86
1, 34724, Note_on_c, 1, 52, 0
1, 34724, Note_on_c, 1, 40, 0
1, 34752, Note_on_c, 1, 50, 86
1, 34752, Note_on_c, 1, 38, 86
1, 34772, Note_on_c, 1, 50, 0
1, 34772, Note_on_c, 1, 38, 0
1, 34800, Note_on_c, 0, 68, 86
1, 34800, Note_on_c, 1, 48, 86
1, 34800, Note_on_c, 1, 36, 86
1, 34820, Note_on_c, 1, 48, 0
1, 34820, Note_on_c, 1, 36, 0
1, 34845, Note_on_c, 0, 68, 0
1, 34848, Note_on_c, 0, 69, 86
1, 34848, Note_on_c, 1, 47, 86
1, 34848, Note_on_c, 1, 35, 86
1, 34868, Note_on_c, 1, 47, 0
1, 34868, Note_on_c, 1, 35, 0
1, 34893, Note_on_c, 0, 69, 0
1, 34896, Note_on_c, 0, 71, 86
1, 34896, Note_on_c, 1, 45, 86
1, 34896, Note_on_c, 1, 33, 86
1, 34916, Note_on_c, 1, 45, 0
1, 34916, Note_on_c, 1, 33, 0
1, 34941, Note_on_c, 0, 71, 0
1, 34944, Note_on_c, 0, 72, 86
1, 34944, Note_on_c, 0, 69, 86
1, 34944, Note_on_c, 0, 64, 86
1, 34944, Note_on_c, 1, 45, 86
1, 34944, Note_on_c, 1, 33, 86
1, 34983, Note_on_c, 1, 45, 0
1, 34983, Note_on_c, 1, 33, 0
1, 35033, Note_on_c, 0, 72, 0
1, 35033, Note_on_c, 0, 69, 0
1, 35033, Note_on_c, 0, 64, 0
1, 35040, Note_on_c, 0, 69, 86
1, 35040, Note_on_c, 0, 64, 86
1, 35040, Note_on_c, 0, 60, 86
1, 35040, Note_on_c, 1, 44, 86
1, 35063, Note_on_c, 1, 44, 0
1, 35064, Note_on_c, 1, 45, 86
1, 35087, Note_on_c, 1, 45, 0
1, 35088, Note_on_c, 1, 44, 86
1, 35111, Note_on_c, 1, 44, 0
1, 35112, Note_on_c, 1, 45, 86
1, 35129, Note_on_c, 0, 69, 0
1, 35129, Note_on_c, 0, 64, 0
1, 35129, Note_on_c, 0, 60, 0
1, 35135, Note_on_c, 1, 45, 0
1, 35136, Note_on_c, 1, 33, 86
1, 35175, Note_on_c, 1, 33, 0
1, 35232, Note_on_c, 0, 69, 70
1, 35232, Note_on_c, 0, 64, 70
1, 35232, Note_on_c, 0, 60, 70
1, 35271, Note_on_c, 0, 69, 0
1, 35271, Note_on_c, 0, 64, 0
1, 35271, Note_on_c, 0, 60, 0
1, 35328, Note_on_c, 0, 70, 86
1, 35328, Note_on_c, 0, 65, 86
1, 35328, Note_on_c, 0, 62, 86
1, 35328, Note_on_c, 1, 33, 70
1, 35367, Note_on_c, 1, 33, 0
1, 35424, Note_on_c, 1, 44, 70
1, 35447, Note_on_c, 1, 44, 0
1, 35448, Note_on_c, 1, 45, 71
1, 35471, Note_on_c, 1, 45, 0
1, 35472, Note_on_c, 1, 44, 71
1, 35495, Note_on_c, 1, 44, 0
1, 35496, Note_on_c, 1, 45, 71
1, 35519, Note_on_c, 1, 45, 0
1, 35520, Note_on_c, 0, 70, 0
1, 35520, Note_on_c, 0, 65, 0
1, 35520, Note_on_c, 0, 62, 0
1, 35520, Note_on_c, 1, 33, 71
1, 35559, Note_on_c, 1, 33, 0
1, 35616, Note_on_c, 0, 70, 72
1, 35616, Note_on_c, 0, 65, 72
1, 35616, Note_on_c, 0, 62, 72
1, 35655, Note_on_c, 0, 70, 0
1, 35655, Note_on_c, 0, 65, 0
1, 35655, Note_on_c, 0, 62, 0
1, 35712, Note_on_c, 0, 73, 89
1, 35712, Note_on_c, 0, 67, 89
1, 35712, Note_on_c, 0, 64, 89
1, 35712, Note_on_c, 1, 33, 73
1, 35751, Note_on_c, 1, 33, 0
1, 35808, Note_on_c, 1, 44, 74
1, 35831, Note_on_c, 1, 44, 0
1, 35832, Note_on_c, 1, 45, 74
1, 35855, Note_on_c, 1, 45, 0
1, 35856, Note_on_c, 1, 44, 74
1, 35879, Note_on_c, 1, 44, 0
1, 35880, Note_on_c, 1, 45, 74
1, 35903, Note_on_c, 1, 45, 0
1, 35904, Note_on_c, 0, 73, 0
1, 35904, Note_on_c, 0, 67, 0
1, 35904, Note_on_c, 0, 64, 0
1, 35904, Note_on_c, 1, 33, 75
1, 35943, Note_on_c, 1, 33, 0
1, 36000, Note_on_c, 0, 73, 75
1, 36000, Note_on_c, 0, 67, 75
1, 36000, Note_on_c, 0, 64, 75
1, 36039, Note_on_c, 0, 73, 0
1, 36039, Note_on_c, 0, 67, 0
1, 36039, Note_on_c, 0, 64, 0
1, 36096, Note_on_c, 0, 74, 92
1, 36096, Note_on_c, 0, 69, 92
1, 36096, Note_on_c, 0, 65, 92
1, 36096, Note_on_c, 1, 33, 76
1, 36135, Note_on_c, 1, 33, 0
1, 36192, Note_on_c, 1, 44, 77
1, 36215, Note_on_c, 1, 44, 0
1, 36216, Note_on_c, 1, 45, 77
1, 36239, Note_on_c, 1, 45, 0
1, 36240, Note_on_c, 1, 44, 77
1, 36263, Note_on_c, 1, 44, 0
1, 36264, Note_on_c, 1, 45, 78
1, 36287, Note_on_c, 1, 45, 0
1, 36288, Note_on_c, 0, 74, 0
1, 36288, Note_on_c, 0, 69, 0
1, 36288, Note_on_c, 0, 65, 0
1, 36288, Note_on_c, 1, 33, 78
1, 36327, Note_on_c, 1, 33, 0
1, 36384, Note_on_c, 0, 74, 79
1, 36384, Note_on_c, 0, 69, 79
1, 36384, Note_on_c, 0, 65, 79
1, 36423, Note_on_c, 0, 74, 0
1, 36423, Note_on_c, 0, 69, 0
1, 36423, Note_on_c, 0, 65, 0
1, 36480, Note_on_c, 0, 75, 80
1, 36480, Note_on_c, 1, 55, 80
1, 36480, Note_on_c, 1, 51, 80
1, 36480, Note_on_c, 1, 46, 80
1, 36480, Note_on_c, 1, 43, 80
1, 36525, Note_on_c, 0, 75, 0
1, 36528, Note_on_c, 0, 82, 80
1, 36569, Note_on_c, 1, 55, 0
1, 36569, Note_on_c, 1, 51, 0
1, 36569, Note_on_c, 1, 46, 0
1, 36569, Note_on_c, 1, 43, 0
1, 36573, Note_on_c, 0, 82, 0
1, 36576, Note_on_c, 0, 79, 80
1, 36621, Note_on_c, 0, 79, 0
1, 36624, Note_on_c, 0, 75, 80
1, 36669, Note_on_c, 0, 75, 0
1, 36672, Note_on_c, 0, 73, 80
1, 36672, Note_on_c, 0, 70, 80
1, 36720, Note_on_c, 1, 58, 80
1, 36761, Note_on_c, 0, 73, 0
1, 36761, Note_on_c, 0, 70, 0
1, 36765, Note_on_c, 1, 58, 0
1, 36768, Note_on_c, 1, 55, 80
1, 36813, Note_on_c, 1, 55, 0
1, 36816, Note_on_c, 1, 51, 80
1, 36861, Note_on_c, 1, 51, 0
1, 36864, Note_on_c, 1, 53, 80
1, 36864, Note_on_c, 1, 50, 80
1, 36912, Note_on_c, 0, 81, 79
1, 36953, Note_on_c, 1, 53, 0
1, 36953, Note_on_c, 1, 50, 0
1, 36957, Note_on_c, 0, 81, 0
1, 36960, Note_on_c, 0, 77, 78
1, 37005, Note_on_c, 0, 77, 0
1, 37008, Note_on_c, 0, 74, 78
1, 37053, Note_on_c, 0, 74, 0
1, 37056, Note_on_c, 0, 71, 77
1, 37056, Note_on_c, 0, 67, 77
1, 37104, Note_on_c, 1, 56, 76
1, 37145, Note_on_c, 0, 71, 0
1, 37145, Note_on_c, 0, 67, 0
1, 37149, Note_on_c, 1, 56, 0
1, 37152, Note_on_c, 1, 53, 76
1, 37197, Note_on_c, 1, 53, 0
1, 37200, Note_on_c, 1, 50, 75
1, 37245, Note_on_c, 1, 50, 0
1, 37248, Note_on_c, 1, 51, 74
1, 37248, Note_on_c, 1, 48, 74
1, 37296, Note_on_c, 0, 79, 74
1, 37337, Note_on_c, 1, 51, 0
1, 37337, Note_on_c, 1, 48, 0
1, 37341, Note_on_c, 0, 79, 0
1, 37344, Note_on_c, 0, 75, 73
1, 37389, Note_on_c, 0, 75, 0
1, 37392, Note_on_c, 0, 72, 72
1, 37437, Note_on_c, 0, 72, 0
1, 37440, Note_on_c, 0, 69, 72
1, 37440, Note_on_c, 0, 66, 72
1, 37488, Note_on_c, 1, 54, 71
1, 37529, Note_on_c, 0, 69, 0
1, 37529, Note_on_c, 0, 66, 0
1, 37533, Note_on_c, 1, 54, 0
1, 37536, Note_on_c, 1, 51, 70
1, 37581, Note_on_c, 1, 51, 0
1, 37584, Note_on_c, 1, 48, 70
1, 37629, Note_on_c, 1, 48, 0
1, 37632, Note_on_c, 1, 53, 69
1, 37632, Note_on_c, 1, 50, 69
1, 37680, Note_on_c, 0, 77, 68
1, 37725, Note_on_c, 0, 77, 0
1, 37728, Note_on_c, 0, 74, 68
1, 37773, Note_on_c, 0, 74, 0
1, 37776, Note_on_c, 0, 70, 67
1, 37809, Note_on_c, 1, 53, 0
1, 37809, Note_on_c, 1, 50, 0
1, 37821, Note_on_c, 0, 70, 0
1, 37824, Note_on_c, 1, 52, 66
1, 37824, Note_on_c, 1, 48, 66
1, 37872, Note_on_c, 0, 79, 66
1, 37917, Note_on_c, 0, 79, 0
1, 37920, Note_on_c, 0, 76, 65
1, 37965, Note_on_c, 0, 76, 0
1, 37968, Note_on_c, 0, 72, 64
1, 38001, Note_on_c, 1, 52, 0
1, 38001, Note_on_c, 1, 48, 0
1, 38013, Note_on_c, 0, 72, 0
1, 38016, Note_on_c, 1, 53, 64
1, 38016, Note_on_c, 1, 48, 64
1, 38064, Note_on_c, 0, 81, 66
1, 38109, Note_on_c, 0, 81, 0
1, 38112, Note_on_c, 0, 77, 68
1, 38157, Note_on_c, 0, 77, 0
1, 38160, Note_on_c, 0, 72, 70
1, 38193, Note_on_c, 1, 53, 0
1, 38193, Note_on_c, 1, 48, 0
1, 38205, Note_on_c, 0, 72, 0
1, 38208, Note_on_c, 1, 55, 72
1, 38208, Note_on_c, 1, 48, 72
1, 38256, Note_on_c, 0, 82, 74
1, 38301, Note_on_c, 0, 82, 0
1, 38304, Note_on_c, 0, 79, 76
1, 38349, Note_on_c, 0, 79, 0
1, 38352, Note_on_c, 0, 76, 78
1, 38385, Note_on_c, 1, 55, 0
1, 38385, Note_on_c, 1, 48, 0
1, 38397, Note_on_c, 0, 76, 0
1, 38400, Note_on_c, 0, 84, 80
1, 38400, Note_on_c, 0, 81, 80
1, 38400, Note_on_c, 1, 57, 80
1, 38400, Note_on_c, 1, 53, 80
1, 38400, Note_on_c, 1, 48, 80
1, 38400, Note_on_c, 1, 45, 80
1, 38439, Note_on_c, 0, 84, 0
1, 38439, Note_on_c, 0, 81, 0
1, 38496, Note_on_c, 0, 81, 80
1, 38496, Note_on_c, 0, 77, 80
1, 38535, Note_on_c, 0, 81, 0
1, 38535, Note_on_c, 0, 77, 0
1, 38577, Note_on_c, 1, 57, 0
1, 38577, Note_on_c, 1, 53, 0
1, 38577, Note_on_c, 1, 48, 0
1, 38577, Note_on_c, 1, 45, 0
1, 38592, Note_on_c, 1, 52, 80
1, 38615, Note_on_c, 1, 52, 0
1, 38616, Note_on_c, 1, 53, 80
1, 38639, Note_on_c, 1, 53, 0
1, 38640, Note_on_c, 1, 52, 80
1, 38663, Note_on_c, 1, 52, 0
1, 38664, Note_on_c, 1, 53, 80
1, 38687, Note_on_c, 1, 53, 0
1, 38688, Note_on_c, 1, 41, 80
1, 38727, Note_on_c, 1, 41, 0
1, 38784, Note_on_c, 0, 86, 80
1, 38784, Note_on_c, 0, 82, 80
1, 38823, Note_on_c, 0, 86, 0
1, 38823, Note_on_c, 0, 82, 0
1, 38880, Note_on_c, 0, 82, 80
1, 38880, Note_on_c, 0, 79, 80
1, 38919, Note_on_c, 0, 82, 0
1, 38919, Note_on_c, 0, 79, 0
1, 38976, Note_on_c, 1, 52, 80
1, 38999, Note_on_c, 1, 52, 0
1, 39000, Note_on_c, 1, 53, 80
1, 39023, Note_on_c, 1, 53, 0
1, 39024, Note_on_c, 1, 52, 80
1, 39047, Note_on_c, 1, 52, 0
1, 39048, Note_on_c, 1, 53, 80
1, 39071, Note_on_c, 1, 53, 0
1, 39072, Note_on_c, 1, 41, 80
1, 39111, Note_on_c, 1, 41, 0
1, 39168, Note_on_c, 0, 84, 80
1, 39168, Note_on_c, 0, 81, 80
1, 39207, Note_on_c, 0, 84, 0
1, 39207, Note_on_c, 0, 81, 0
1, 39264, Note_on_c, 0, 81, 80
1, 39264, Note_on_c, 0, 77, 80
1, 39303, Note_on_c, 0, 81, 0
1, 39303, Note_on_c, 0, 77, 0
1, 39552, Note_on_c, 0, 72, 64
1, 39552, Note_on_c, 0, 69, 64
1, 39552, Note_on_c, 1, 63, 64
1, 39575, Note_on_c, 1, 63, 0
1, 39576, Note_on_c, 1, 64, 64
1, 39591, Note_on_c, 0, 72, 0
1, 39591, Note_on_c, 0, 69, 0
1, 39599, Note_on_c, 1, 64, 0
1, 39600, Note_on_c, 1, 63, 65
1, 39623, Note_on_c, 1, 63, 0
1, 39624, Note_on_c, 1, 64, 66
1, 39647, Note_on_c, 1, 64, 0
1, 39648, Note_on_c, 0, 69, 66
1, 39648, Note_on_c, 0, 66, 66
1, 39648, Note_on_c, 1, 64, 66
1, 39687, Note_on_c, 0, 69, 0
1, 39687, Note_on_c, 0, 66, 0
1, 39687, Note_on_c, 1, 64, 0
1, 39744, Note_on_c, 0, 78, 69
1, 39744, Note_on_c, 0, 75, 69
1, 39744, Note_on_c, 1, 51, 69
1, 39767, Note_on_c, 1, 51, 0
1, 39768, Note_on_c, 1, 52, 70
1, 39783, Note_on_c, 0, 78, 0
1, 39783, Note_on_c, 0, 75, 0
1, 39791, Note_on_c, 1, 52, 0
1, 39792, Note_on_c, 1, 51, 70
1, 39815, Note_on_c, 1, 51, 0
1, 39816, Note_on_c, 1, 52, 71
1, 39839, Note_on_c, 1, 52, 0
1, 39840, Note_on_c, 0, 75, 72
1, 39840, Note_on_c, 0, 72, 72
1, 39840, Note_on_c, 1, 52, 72
1, 39879, Note_on_c, 0, 75, 0
1, 39879, Note_on_c, 0, 72, 0
1, 39879, Note_on_c, 1, 52, 0
1, 39936, Note_on_c, 0, 81, 74
1, 39936, Note_on_c, 0, 78, 74
1, 39936, Note_on_c, 1, 39, 74
1, 39959, Note_on_c, 1, 39, 0
1, 39960, Note_on_c, 1, 40, 75
1, 39975, Note_on_c, 0, 81, 0
1, 39975, Note_on_c, 0, 78, 0
1, 39983, Note_on_c, 1, 40, 0
1, 39984, Note_on_c, 1, 39, 76
1, 40007, Note_on_c, 1, 39, 0
1, 40008, Note_on_c, 1, 40, 76
1, 40031, Note_on_c, 1, 40, 0
1, 40032, Note_on_c, 0, 78, 77
1, 40032, Note_on_c, 0, 75, 77
1, 40032, Note_on_c, 1, 40, 77
1, 40071, Note_on_c, 0, 78, 0
1, 40071, Note_on_c, 0, 75, 0
1, 40071, Note_on_c, 1, 40, 0
1, 40320, Note_on_c, 0, 68, 80
1, 40320, Note_on_c, 0, 65, 80
1, 40359, Note_on_c, 0, 68, 0
1, 40359, Note_on_c, 0, 65, 0
1, 40416, Note_on_c, 0, 65, 77
1, 40416, Note_on_c, 0, 62, 77
1, 40455, Note_on_c, 0, 65, 0
1, 40455, Note_on_c, 0, 62, 0
1, 40512, Note_on_c, 0, 74, 74
1, 40512, Note_on_c, 0, 71, 74
1, 40551, Note_on_c, 0, 74, 0
1, 40551, Note_on_c, 0, 71, 0
1, 40608, Note_on_c, 0, 71, 72
1, 40608, Note_on_c, 0, 68, 72
1, 40647, Note_on_c, 0, 71, 0
1, 40647, Note_on_c, 0, 68, 0
1, 40704, Note_on_c, 0, 77, 69
1, 40704, Note_on_c, 0, 74, 69
1, 40743, Note_on_c, 0, 77, 0
1, 40743, Note_on_c, 0, 74, 0
1, 40800, Note_on_c, 0, 74, 66
1, 40800, Note_on_c, 0, 71, 66
1, 40839, Note_on_c, 0, 74, 0
1, 40839, Note_on_c, 0, 71, 0
1, 41088, Note_on_c, 0, 64, 75
1, 41088, Note_on_c, 0, 61, 75
1, 41127, Note_on_c, 0, 64, 0
1, 41127, Note_on_c, 0, 61, 0
1, 41184, Note_on_c, 0, 61, 75
1, 41184, Note_on_c, 0, 57, 75
1, 41223, Note_on_c, 0, 61, 0
1, 41223, Note_on_c, 0, 57, 0
1, 41280, Note_on_c, 1, 56, 75
1, 41303, Note_on_c, 1, 56, 0
1, 41304, Note_on_c, 1, 57, 75
1, 41327, Note_on_c, 1, 57, 0
1, 41328, Note_on_c, 1, 56, 75
1, 41351, Note_on_c, 1, 56, 0
1, 41352, Note_on_c, 1, 57, 75
1, 41375, Note_on_c, 1, 57, 0
1, 41376, Note_on_c, 1, 45, 75
1, 41415, Note_on_c, 1, 45, 0
1, 41472, Note_on_c, 0, 66, 75
1, 41472, Note_on_c, 0, 62, 75
1, 41511, Note_on_c, 0, 66, 0
1, 41511, Note_on_c, 0, 62, 0
1, 41568, Note_on_c, 0, 62, 75
1, 41568, Note_on_c, 0, 59, 75
1, 41607, Note_on_c, 0, 62, 0
1, 41607, Note_on_c, 0, 59, 0
1, 41664, Note_on_c, 1, 56, 75
1, 41687, Note_on_c, 1, 56, 0
1, 41688, Note_on_c, 1, 57, 75
1, 41711, Note_on_c, 1, 57, 0
1, 41712, Note_on_c, 1, 56, 75
1, 41735, Note_on_c, 1, 56, 0
1, 41736, Note_on_c, 1, 57, 75
1, 41759, Note_on_c, 1, 57, 0
1, 41760, Note_on_c, 1, 45, 75
1, 41799, Note_on_c, 1, 45, 0
1, 41856, Note_on_c, 0, 67, 75
1, 41856, Note_on_c, 0, 64, 75
1, 41895, Note_on_c, 0, 67, 0
1, 41895, Note_on_c, 0, 64, 0
1, 41952, Note_on_c, 0, 64, 75
1, 41952, Note_on_c, 0, 61, 75
1, 41991, Note_on_c, 0, 64, 0
1, 41991, Note_on_c, 0, 61, 0
1, 42144, Note_on_c, 0, 64, 75
1, 42144, Note_on_c, 0, 61, 75
1, 42211, Note_on_c, 0, 64, 0
1, 42211, Note_on_c, 0, 61, 0
1, 42216, Note_on_c, 0, 66, 75
1, 42216, Note_on_c, 0, 62, 75
1, 42239, Note_on_c, 0, 66, 0
1, 42239, Note_on_c, 0, 62, 0
1, 42240, Note_on_c, 0, 67, 75
1, 42240, Note_on_c, 0, 64, 75
1, 42240, Note_on_c, 1, 45, 75
1, 42307, Note_on_c, 0, 67, 0
1, 42307, Note_on_c, 0, 64, 0
1, 42312, Note_on_c, 0, 69, 75
1, 42312, Note_on_c, 0, 66, 75
1, 42322, Note_on_c, 0, 69, 0
1, 42322, Note_on_c, 0, 66, 0
1, 42329, Note_on_c, 1, 45, 0
1, 42336, Note_on_c, 0, 67, 75
1, 42336, Note_on_c, 0, 64, 75
1, 42403, Note_on_c, 0, 67, 0
1, 42403, Note_on_c, 0, 64, 0
1, 42408, Note_on_c, 0, 67, 75
1, 42408, Note_on_c, 0, 64, 75
1, 42431, Note_on_c, 0, 67, 0
1, 42431, Note_on_c, 0, 64, 0
1, 42432, Note_on_c, 0, 76, 91
1, 42464, Note_on_c, 0, 76, 0
1, 42464, Note_on_c, 0, 74, 75
1, 42494, Note_on_c, 0, 74, 0
1, 42496, Note_on_c, 0, 73, 76
1, 42526, Note_on_c, 0, 73, 0
1, 42528, Note_on_c, 0, 71, 77
1, 42528, Note_on_c, 1, 37, 75
1, 42558, Note_on_c, 0, 71, 0
1, 42560, Note_on_c, 0, 69, 78
1, 42567, Note_on_c, 1, 37, 0
1, 42590, Note_on_c, 0, 69, 0
1, 42592, Note_on_c, 0, 67, 78
1, 42622, Note_on_c, 0, 67, 0
1, 42624, Note_on_c, 0, 67, 79
1, 42624, Note_on_c, 0, 64, 79
1, 42672, Note_on_c, 1, 38, 75
1, 42692, Note_on_c, 1, 38, 0
1, 42720, Note_on_c, 1, 42, 75
1, 42740, Note_on_c, 1, 42, 0
1, 42768, Note_on_c, 1, 45, 75
1, 42788, Note_on_c, 1, 45, 0
1, 42816, Note_on_c, 0, 67, 0
1, 42816, Note_on_c, 0, 64, 0
1, 42816, Note_on_c, 0, 66, 76
1, 42816, Note_on_c, 0, 62, 76
1, 42816, Note_on_c, 1, 50, 75
1, 42905, Note_on_c, 0, 66, 0
1, 42905, Note_on_c, 0, 62, 0
1, 42905, Note_on_c, 1, 50, 0
1, 43008, Note_on_c, 0, 59, 75
1, 43104, Note_on_c, 1, 55, 75
1, 43127, Note_on_c, 1, 55, 0
1, 43128, Note_on_c, 1, 54, 75
1, 43151, Note_on_c, 1, 54, 0
1, 43152, Note_on_c, 1, 55, 75
1, 43175, Note_on_c, 1, 55, 0
1, 43176, Note_on_c, 1, 54, 75
1, 43199, Note_on_c, 1, 54, 0
1, 43200, Note_on_c, 1, 55, 75
1, 43267, Note_on_c, 0, 59, 0
1, 43272, Note_on_c, 0, 59, 75
1, 43289, Note_on_c, 1, 55, 0
1, 43295, Note_on_c, 0, 59, 0
1, 43296, Note_on_c, 0, 67, 75
1, 43363, Note_on_c, 0, 67, 0
1, 43368, Note_on_c, 0, 64, 75
1, 43391, Note_on_c, 0, 64, 0
1, 43392, Note_on_c, 0, 62, 75
1, 43410, Note_on_c, 0, 62, 0
1, 43410, Note_on_c, 0, 61, 75
1, 43428, Note_on_c, 0, 61, 0
1, 43428, Note_on_c, 0, 62, 75
1, 43488, Note_on_c, 1, 57, 75
1, 43511, Note_on_c, 1, 57, 0
1, 43512, Note_on_c, 1, 56, 75
1, 43535, Note_on_c, 1, 56, 0
1, 43536, Note_on_c, 1, 57, 75
1, 43559, Note_on_c, 1, 57, 0
1, 43560, Note_on_c, 1, 56, 75
1, 43583, Note_on_c, 1, 56, 0
1, 43584, Note_on_c, 0, 62, 0
1, 43584, Note_on_c, 0, 61, 75
1, 43584, Note_on_c, 1, 57, 75
1, 43673, Note_on_c, 0, 61, 0
1, 43673, Note_on_c, 1, 57, 0
1, 43680, Note_on_c, 0, 73, 75
1, 43703, Note_on_c, 0, 73, 0
1, 43704, Note_on_c, 0, 71, 75
1, 43727, Note_on_c, 0, 71, 0
1, 43728, Note_on_c, 0, 69, 75
1, 43751, Note_on_c, 0, 69, 0
1, 43752, Note_on_c, 0, 67, 75
1, 43775, Note_on_c, 0, 67, 0
1, 43776, Note_on_c, 0, 66, 75
1, 43872, Note_on_c, 1, 61, 75
1, 43895, Note_on_c, 1, 61, 0
1, 43896, Note_on_c, 1, 59, 75
1, 43919, Note_on_c, 1, 59, 0
1, 43920, Note_on_c, 1, 61, 75
1, 43943, Note_on_c, 1, 61, 0
1, 43944, Note_on_c, 1, 59, 75
1, 43967, Note_on_c, 1, 59, 0
1, 43968, Note_on_c, 0, 66, 0
1, 43968, Note_on_c, 0, 64, 75
1, 43968, Note_on_c, 1, 61, 75
1, 43998, Note_on_c, 0, 64, 0
1, 44000, Note_on_c, 0, 73, 75
1, 44030, Note_on_c, 0, 73, 0
1, 44032, Note_on_c, 0, 74, 75
1, 44057, Note_on_c, 1, 61, 0
1, 44062, Note_on_c, 0, 74, 0
1, 44064, Note_on_c, 0, 76, 75
1, 44094, Note_on_c, 0, 76, 0
1, 44096, Note_on_c, 0, 73, 75
1, 44126, Note_on_c, 0, 73, 0
1, 44128, Note_on_c, 0, 67, 75
1, 44158, Note_on_c, 0, 67, 0
1, 44160, Note_on_c, 0, 66, 75
1, 44190, Note_on_c, 0, 66, 0
1, 44192, Note_on_c, 0, 74, 75
1, 44208, Note_on_c, 1, 42, 75
1, 44222, Note_on_c, 0, 74, 0
1, 44224, Note_on_c, 0, 69, 75
1, 44253, Note_on_c, 1, 42, 0
1, 44254, Note_on_c, 0, 69, 0
1, 44256, Note_on_c, 0, 71, 75
1, 44256, Note_on_c, 1, 43, 75
1, 44286, Note_on_c, 0, 71, 0
1, 44288, Note_on_c, 0, 67, 75
1, 44301, Note_on_c, 1, 43, 0
1, 44304, Note_on_c, 1, 47, 75
1, 44318, Note_on_c, 0, 67, 0
1, 44320, Note_on_c, 0, 64, 75
1, 44349, Note_on_c, 1, 47, 0
1, 44350, Note_on_c, 0, 64, 0
1, 44352, Note_on_c, 0, 62, 75
1, 44352, Note_on_c, 0, 54, 75
1, 44352, Note_on_c, 1, 45, 75
1, 44441, Note_on_c, 1, 45, 0
1, 44448, Tempo, 468750
1, 44448, Note_on_c, 0, 62, 0
1, 44448, Note_on_c, 0, 54, 0
1, 44448, Note_on_c, 0, 61, 75
1, 44448, Note_on_c, 0, 52, 75
1, 44448, Note_on_c, 1, 33, 75
1, 44515, Note_on_c, 0, 61, 0
1, 44515, Note_on_c, 0, 52, 0
1, 44515, Note_on_c, 1, 33, 0
1, 44544, Tempo, 400000
1, 44544, Note_on_c, 0, 71, 64
1, 44562, Note_on_c, 0, 71, 0
1, 44562, Note_on_c, 0, 72, 64
1, 44580, Note_on_c, 0, 72, 0
1, 44580, Note_on_c, 0, 74, 64
1, 44598, Note_on_c, 0, 74, 0
1, 44598, Note_on_c, 0, 72, 80
1, 44640, Note_on_c, 1, 66, 59
1, 44640, Note_on_c, 1, 63, 59
1, 44679, Note_on_c, 1, 66, 0
1, 44679, Note_on_c, 1, 63, 0
1, 44736, Note_on_c, 1, 66, 61
1, 44736, Note_on_c, 1, 63, 61
1, 44775, Note_on_c, 1, 66, 0
1, 44775, Note_on_c, 1, 63, 0
1, 44781, Note_on_c, 0, 72, 0
1, 44784, Note_on_c, 0, 72, 71
1, 44829, Note_on_c, 0, 72, 0
1, 44832, Note_on_c, 0, 71, 73
1, 44832, Note_on_c, 1, 66, 62
1, 44832, Note_on_c, 1, 63, 62
1, 44871, Note_on_c, 1, 66, 0
1, 44871, Note_on_c, 1, 63, 0
1, 44877, Note_on_c, 0, 71, 0
1, 44880, Note_on_c, 0, 69, 75
1, 44925, Note_on_c, 0, 69, 0
1, 44928, Note_on_c, 0, 68, 89
1, 45024, Note_on_c, 1, 64, 62
1, 45024, Note_on_c, 1, 62, 62
1, 45072, Note_on_c, 0, 68, 0
1, 45072, Note_on_c, 0, 69, 68
1, 45095, Note_on_c, 0, 69, 0
1, 45096, Note_on_c, 0, 71, 67
1, 45113, Note_on_c, 1, 64, 0
1, 45113, Note_on_c, 1, 62, 0
1, 45119, Note_on_c, 0, 71, 0
1, 45120, Note_on_c, 0, 69, 67
1, 45120, Note_on_c, 1, 64, 60
1, 45120, Note_on_c, 1, 61, 60
1, 45159, Note_on_c, 1, 64, 0
1, 45159, Note_on_c, 1, 61, 0
1, 45209, Note_on_c, 0, 69, 0
1, 45216, Note_on_c, 1, 64, 58
1, 45216, Note_on_c, 1, 61, 58
1, 45255, Note_on_c, 1, 64, 0
1, 45255, Note_on_c, 1, 61, 0
1, 45312, Note_on_c, 0, 69, 64
1, 45330, Note_on_c, 0, 69, 0
1, 45330, Note_on_c, 0, 70, 64
1, 45348, Note_on_c, 0, 70, 0
1, 45348, Note_on_c, 0, 72, 64
1, 45366, Note_on_c, 0, 72, 0
1, 45366, Note_on_c, 0, 70, 80
1, 45408, Note_on_c, 1, 64, 59
1, 45408, Note_on_c, 1, 61, 59
1, 45447, Note_on_c, 1, 64, 0
1, 45447, Note_on_c, 1, 61, 0
1, 45504, Note_on_c, 1, 64, 61
1, 45504, Note_on_c, 1, 61, 61
1, 45543, Note_on_c, 1, 64, 0
1, 45543, Note_on_c, 1, 61, 0
1, 45549, Note_on_c, 0, 70, 0
1, 45552, Note_on_c, 0, 70, 71
1, 45597, Note_on_c, 0, 70, 0
1, 45600, Note_on_c, 0, 69, 73
1, 45600, Note_on_c, 1, 64, 62
1, 45600, Note_on_c, 1, 61, 62
1, 45639, Note_on_c, 1, 64, 0
1, 45639, Note_on_c, 1, 61, 0
1, 45645, Note_on_c, 0, 69, 0
1, 45648, Note_on_c, 0, 67, 75
1, 45693, Note_on_c, 0, 67, 0
1, 45696, Note_on_c, 0, 66, 89
1, 45792, Note_on_c, 1, 63, 61
1, 45792, Note_on_c, 1, 60, 61
1, 45840, Note_on_c, 0, 66, 0
1, 45840, Note_on_c, 0, 67, 67
1, 45863, Note_on_c, 0, 67, 0
1, 45864, Note_on_c, 0, 69, 66
1, 45881, Note_on_c, 1, 63, 0
1, 45881, Note_on_c, 1, 60, 0
1, 45887, Note_on_c, 0, 69, 0
1, 45888, Note_on_c, 0, 67, 65
1, 45888, Note_on_c, 1, 62, 58
1, 45888, Note_on_c, 1, 59, 58
1, 45927, Note_on_c, 1, 62, 0
1, 45927, Note_on_c, 1, 59, 0
1, 45933, Note_on_c, 0, 67, 0
1, 45936, Note_on_c, 0, 79, 80
1, 45936, Note_on_c, 0, 74, 80
1, 45936, Note_on_c, 0, 71, 80
1, 45956, Note_on_c, 0, 79, 0
1, 45956, Note_on_c, 0, 74, 0
1, 45956, Note_on_c, 0, 71, 0
1, 45984, Note_on_c, 0, 78, 65
1, 45984, Note_on_c, 0, 73, 65
1, 45984, Note_on_c, 0, 69, 65
1, 46004, Note_on_c, 0, 78, 0
1, 46004, Note_on_c, 0, 73, 0
1, 46004, Note_on_c, 0, 69, 0
1, 46032, Note_on_c, 0, 76, 66
1, 46032, Note_on_c, 0, 71, 66
1, 46032, Note_on_c, 0, 67, 66
1, 46052, Note_on_c, 0, 76, 0
1, 46052, Note_on_c, 0, 71, 0
1, 46052, Note_on_c, 0, 67, 0
1, 46080, Note_on_c, 0, 74, 68
1, 46080, Note_on_c, 0, 69, 68
1, 46080, Note_on_c, 0, 66, 68
1, 46100, Note_on_c, 0, 74, 0
1, 46100, Note_on_c, 0, 69, 0
1, 46100, Note_on_c, 0, 66, 0
1, 46128, Note_on_c, 0, 73, 69
1, 46128, Note_on_c, 0, 68, 69
1, 46128, Note_on_c, 0, 64, 69
1, 46148, Note_on_c, 0, 73, 0
1, 46148, Note_on_c, 0, 68, 0
1, 46148, Note_on_c, 0, 64, 0
1, 46176, Note_on_c, 0, 71, 71
1, 46176, Note_on_c, 0, 66, 71
1, 46176, Note_on_c, 0, 62, 71
1, 46196, Note_on_c, 0, 71, 0
1, 46196, Note_on_c, 0, 66, 0
1, 46196, Note_on_c, 0, 62, 0
1, 46224, Note_on_c, 0, 69, 72
1, 46224, Note_on_c, 0, 64, 72
1, 46224, Note_on_c, 0, 61, 72
1, 46244, Note_on_c, 0, 69, 0
1, 46244, Note_on_c, 0, 64, 0
1, 46244, Note_on_c, 0, 61, 0
1, 46272, Note_on_c, 0, 67, 74
1, 46272, Note_on_c, 0, 62, 74
1, 46272, Note_on_c, 0, 59, 74
1, 46292, Note_on_c, 0, 67, 0
1, 46292, Note_on_c, 0, 62, 0
1, 46292, Note_on_c, 0, 59, 0
1, 46320, Note_on_c, 0, 66, 75
1, 46320, Note_on_c, 0, 61, 75
1, 46320, Note_on_c, 0, 57, 75
1, 46340, Note_on_c, 0, 66, 0
1, 46340, Note_on_c, 0, 61, 0
1, 46340, Note_on_c, 0, 57, 0
1, 46368, Note_on_c, 0, 64, 77
1, 46368, Note_on_c, 0, 59, 77
1, 46368, Note_on_c, 0, 55, 77
1, 46388, Note_on_c, 0, 64, 0
1, 46388, Note_on_c, 0, 59, 0
1, 46388, Note_on_c, 0, 55, 0
1, 46416, Note_on_c, 0, 62, 78
1, 46416, Note_on_c, 0, 57, 78
1, 46416, Note_on_c, 0, 54, 78
1, 46436, Note_on_c, 0, 62, 0
1, 46436, Note_on_c, 0, 57, 0
1, 46436, Note_on_c, 0, 54, 0
1, 46464, Note_on_c, 0, 68, 80
1, 46464, Note_on_c, 1, 56, 80
1, 46487, Note_on_c, 0, 68, 0
1, 46487, Note_on_c, 1, 56, 0
1, 46488, Note_on_c, 0, 69, 80
1, 46488, Note_on_c, 1, 57, 80
1, 46511, Note_on_c, 0, 69, 0
1, 46511, Note_on_c, 1, 57, 0
1, 46512, Note_on_c, 0, 68, 80
1, 46512, Note_on_c, 1, 56, 80
1, 46535, Note_on_c, 0, 68, 0
1, 46535, Note_on_c, 1, 56, 0
1, 46536, Note_on_c, 0, 69, 80
1, 46536, Note_on_c, 1, 57, 80
1, 46559, Note_on_c, 0, 69, 0
1, 46559, Note_on_c, 1, 57, 0
1, 46560, Note_on_c, 0, 57, 80
1, 46560, Note_on_c, 1, 45, 80
1, 46599, Note_on_c, 0, 57, 0
1, 46599, Note_on_c, 1, 45, 0
1, 46848, Note_on_c, 0, 75, 64
1, 46868, Note_on_c, 0, 75, 0
1, 46896, Note_on_c, 0, 78, 64
1, 46919, Note_on_c, 0, 78, 0
1, 46920, Note_on_c, 0, 76, 64
1, 46943, Note_on_c, 0, 76, 0
1, 46944, Note_on_c, 0, 75, 64
1, 46967, Note_on_c, 0, 75, 0
1, 46968, Note_on_c, 0, 76, 64
1, 46991, Note_on_c, 0, 76, 0
1, 46992, Note_on_c, 0, 76, 64
1, 47012, Note_on_c, 0, 76, 0
1, 47232, Note_on_c, 0, 57, 80
1, 47232, Note_on_c, 1, 52, 80
1, 47232, Note_on_c, 1, 49, 80
1, 47232, Note_on_c, 1, 45, 80
1, 47262, Note_on_c, 0, 57, 0
1, 47264, Note_on_c, 0, 64, 80
1, 47294, Note_on_c, 0, 64, 0
1, 47296, Note_on_c, 0, 61, 80
1, 47326, Note_on_c, 0, 61, 0
1, 47328, Note_on_c, 0, 69, 81
1, 47358, Note_on_c, 0, 69, 0
1, 47360, Note_on_c, 0, 64, 81
1, 47390, Note_on_c, 0, 64, 0
1, 47392, Note_on_c, 0, 73, 82
1, 47422, Note_on_c, 0, 73, 0
1, 47424, Note_on_c, 0, 69, 82
1, 47454, Note_on_c, 0, 69, 0
1, 47456, Note_on_c, 0, 76, 83
1, 47486, Note_on_c, 0, 76, 0
1, 47488, Note_on_c, 0, 73, 83
1, 47497, Note_on_c, 1, 52, 0
1, 47497, Note_on_c, 1, 49, 0
1, 47497, Note_on_c, 1, 45, 0
1, 47518, Note_on_c, 0, 73, 0
1, 47520, Note_on_c, 0, 81, 84
1, 47550, Note_on_c, 0, 81, 0
1, 47552, Note_on_c, 0, 76, 84
1, 47582, Note_on_c, 0, 76, 0
1, 47584, Note_on_c, 0, 85, 85
1, 47614, Note_on_c, 0, 85, 0
1, 47616, Note_on_c, 0, 83, 101
1, 47648, Note_on_c, 0, 83, 0
1, 47648, Note_on_c, 0, 81, 85
1, 47678, Note_on_c, 0, 81, 0
1, 47680, Note_on_c, 0, 80, 85
1, 47710, Note_on_c, 0, 80, 0
1, 47712, Note_on_c, 0, 78, 84
1, 47742, Note_on_c, 0, 78, 0
1, 47744, Note_on_c, 0, 76, 84
1, 47774, Note_on_c, 0, 76, 0
1, 47776, Note_on_c, 0, 74, 84
1, 47806, Note_on_c, 0, 74, 0
1, 47808, Note_on_c, 0, 73, 83
1, 47838, Note_on_c, 0, 73, 0
1, 47840, Note_on_c, 0, 71, 83
1, 47870, Note_on_c, 0, 71, 0
1, 47872, Note_on_c, 0, 69, 82
1, 47902, Note_on_c, 0, 69, 0
1, 47904, Note_on_c, 0, 68, 82
1, 47934, Note_on_c, 0, 68, 0
1, 47936, Note_on_c, 0, 66, 81
1, 47966, Note_on_c, 0, 66, 0
1, 47968, Note_on_c, 0, 64, 81
1, 47998, Note_on_c, 0, 64, 0
1, 48000, Note_on_c, 0, 62, 80
1, 48000, Note_on_c, 0, 59, 80
1, 48000, Note_on_c, 0, 56, 80
1, 48000, Note_on_c, 1, 40, 80
1, 48030, Note_on_c, 1, 40, 0
1, 48032, Note_on_c, 1, 47, 80
1, 48062, Note_on_c, 1, 47, 0
1, 48064, Note_on_c, 1, 44, 80
1, 48094, Note_on_c, 1, 44, 0
1, 48096, Note_on_c, 1, 50, 80
1, 48126, Note_on_c, 1, 50, 0
1, 48128, Note_on_c, 1, 47, 80
1, 48158, Note_on_c, 1, 47, 0
1, 48160, Note_on_c, 1, 56, 80
1, 48190, Note_on_c, 1, 56, 0
1, 48192, Note_on_c, 1, 52, 80
1, 48222, Note_on_c, 1, 52, 0
1, 48224, Note_on_c, 1, 59, 80
1, 48254, Note_on_c, 1, 59, 0
1, 48256, Note_on_c, 1, 56, 80
1, 48265, Note_on_c, 0, 62, 0
1, 48265, Note_on_c, 0, 59, 0
1, 48265, Note_on_c, 0, 56, 0
1, 48286, Note_on_c, 1, 56, 0
1, 48288, Note_on_c, 1, 66, 80
1, 48318, Note_on_c, 1, 66, 0
1, 48320, Note_on_c, 1, 64, 80
1, 48350, Note_on_c, 1, 64, 0
1, 48352, Note_on_c, 1, 62, 80
1, 48382, Note_on_c, 1, 62, 0
1, 48384, Note_on_c, 1, 61, 80
1, 48407, Note_on_c, 1, 61, 0
1, 48408, Note_on_c, 1, 59, 80
1, 48431, Note_on_c, 1, 59, 0
1, 48432, Note_on_c, 1, 57, 80
1, 48455, Note_on_c, 1, 57, 0
1, 48456, Note_on_c, 1, 56, 80
1, 48479, Note_on_c, 1, 56, 0
1, 48480, Note_on_c, 1, 53, 96
1, 48512, Note_on_c, 0, 68, 80
1, 48542, Note_on_c, 0, 68, 0
1, 48544, Note_on_c, 0, 71, 80
1, 48574, Note_on_c, 0, 71, 0
1, 48576, Note_on_c, 0, 68, 80
1, 48606, Note_on_c, 0, 68, 0
1, 48608, Note_on_c, 0, 74, 80
1, 48635, Note_on_c, 1, 53, 0
1, 48638, Note_on_c, 0, 74, 0
1, 48640, Note_on_c, 0, 71, 80
1, 48640, Note_on_c, 1, 47, 80
1, 48670, Note_on_c, 0, 71, 0
1, 48670, Note_on_c, 1, 47, 0
1, 48672, Note_on_c, 0, 80, 76
1, 48672, Note_on_c, 1, 56, 76
1, 48702, Note_on_c, 0, 80, 0
1, 48702, Note_on_c, 1, 56, 0
1, 48704, Note_on_c, 0, 74, 72
1, 48704, Note_on_c, 1, 50, 72
1, 48734, Note_on_c, 0, 74, 0
1, 48734, Note_on_c, 1, 50, 0
1, 48736, Note_on_c, 0, 83, 69
1, 48736, Note_on_c, 1, 59, 69
1, 48766, Note_on_c, 0, 83, 0
1, 48766, Note_on_c, 1, 59, 0
1, 48768, Note_on_c, 0, 82, 80
1, 48768, Note_on_c, 1, 78, 80
1, 48768, Note_on_c, 1, 76, 80
1, 48798, Note_on_c, 0, 82, 0
1, 48800, Note_on_c, 0, 83, 79
1, 48830, Note_on_c, 0, 83, 0
1, 48832, Note_on_c, 0, 85, 79
1, 48857, Note_on_c, 1, 76, 0
1, 48862, Note_on_c, 0, 85, 0
1, 48864, Note_on_c, 0, 83, 78
1, 48864, Note_on_c, 1, 74, 78
1, 48894, Note_on_c, 0, 83, 0
1, 48896, Note_on_c, 0, 85, 78
1, 48926, Note_on_c, 0, 85, 0
1, 48928, Note_on_c, 0, 86, 78
1, 48945, Note_on_c, 1, 78, 0
1, 48953, Note_on_c, 1, 74, 0
1, 48958, Note_on_c, 0, 86, 0
1, 48960, Note_on_c, 0, 80, 77
1, 48960, Note_on_c, 1, 76, 77
1, 48960, Note_on_c, 1, 74, 77
1, 48990, Note_on_c, 0, 80, 0
1, 48992, Note_on_c, 0, 81, 77
1, 49022, Note_on_c, 0, 81, 0
1, 49024, Note_on_c, 0, 83, 76
1, 49049, Note_on_c, 1, 74, 0
1, 49054, Note_on_c, 0, 83, 0
1, 49056, Note_on_c, 0, 81, 76
1, 49056, Note_on_c, 1, 73, 76
1, 49086, Note_on_c, 0, 81, 0
1, 49088, Note_on_c, 0, 83, 76
1, 49118, Note_on_c, 0, 83, 0
1, 49120, Note_on_c, 0, 85, 75
1, 49137, Note_on_c, 1, 76, 0
1, 49145, Note_on_c, 1, 73, 0
1, 49150, Note_on_c, 0, 85, 0
1, 49152, Note_on_c, 0, 78, 75
1, 49152, Note_on_c, 1, 74, 75
1, 49152, Note_on_c, 1, 73, 75
1, 49182, Note_on_c, 0, 78, 0
1, 49184, Note_on_c, 0, 80, 74
1, 49214, Note_on_c, 0, 80, 0
1, 49216, Note_on_c, 0, 81, 74
1, 49241, Note_on_c, 1, 73, 0
1, 49246, Note_on_c, 0, 81, 0
1, 49248, Note_on_c, 0, 80, 74
1, 49248, Note_on_c, 1, 71, 73
1, 49278, Note_on_c, 0, 80, 0
1, 49280, Note_on_c, 0, 81, 73
1, 49310, Note_on_c, 0, 81, 0
1, 49312, Note_on_c, 0, 83, 73
1, 49329, Note_on_c, 1, 74, 0
1, 49337, Note_on_c, 1, 71, 0
1, 49342, Note_on_c, 0, 83, 0
1, 49344, Note_on_c, 0, 77, 72
1, 49344, Note_on_c, 1, 73, 72
1, 49344, Note_on_c, 1, 71, 72
1, 49374, Note_on_c, 0, 77, 0
1, 49376, Note_on_c, 0, 78, 72
1, 49406, Note_on_c, 0, 78, 0
1, 49408, Note_on_c, 0, 80, 72
1, 49433, Note_on_c, 1, 71, 0
1, 49438, Note_on_c, 0, 80, 0
1, 49440, Note_on_c, 0, 78, 71
1, 49440, Note_on_c, 1, 69, 71
1, 49470, Note_on_c, 0, 78, 0
1, 49472, Note_on_c, 0, 80, 71
1, 49502, Note_on_c, 0, 80, 0
1, 49504, Note_on_c, 0, 81, 71
1, 49521, Note_on_c, 1, 73, 0
1, 49529, Note_on_c, 1, 69, 0
1, 49534, Note_on_c, 0, 81, 0
1, 49536, Note_on_c, 0, 76, 70
1, 49555, Note_on_c, 0, 76, 0
1, 49556, Note_on_c, 0, 75, 70
1, 49575, Note_on_c, 0, 75, 0
1, 49576, Note_on_c, 0, 76, 70
1, 49584, Note_on_c, 1, 72, 70
1, 49584, Note_on_c, 1, 69, 70
1, 49594, Note_on_c, 0, 76, 0
1, 49595, Note_on_c, 0, 75, 70
1, 49613, Note_on_c, 0, 75, 0
1, 49614, Note_on_c, 0, 76, 70
1, 49629, Note_on_c, 1, 72, 0
1, 49629, Note_on_c, 1, 69, 0
1, 49632, Note_on_c, 0, 76, 0
1, 49632, Note_on_c, 1, 71, 70
1, 49632, Note_on_c, 1, 68, 70
1, 49633, Note_on_c, 0, 75, 70
1, 49651, Note_on_c, 0, 75, 0
1, 49652, Note_on_c, 0, 76, 70
1, 49670, Note_on_c, 0, 76, 0
1, 49671, Note_on_c, 0, 75, 70
1, 49677, Note_on_c, 1, 71, 0
1, 49677, Note_on_c, 1, 68, 0
1, 49680, Note_on_c, 1, 69, 70
1, 49680, Note_on_c, 1, 66, 70
1, 49689, Note_on_c, 0, 75, 0
1, 49690, Note_on_c, 0, 73, 70
1, 49708, Note_on_c, 0, 73, 0
1, 49709, Note_on_c, 0, 75, 70
1, 49725, Note_on_c, 1, 69, 0
1, 49725, Note_on_c, 1, 66, 0
1, 49728, Note_on_c, 0, 75, 0
1, 49728, Note_on_c, 0, 76, 70
1, 49728, Note_on_c, 1, 68, 70
1, 49728, Note_on_c, 1, 64, 70
1, 49773, Note_on_c, 0, 76, 0
1, 49773, Note_on_c, 1, 68, 0
1, 49773, Note_on_c, 1, 64, 0
1, 49776, Note_on_c, 0, 76, 64
1, 49796, Note_on_c, 0, 76, 0
1, 49824, Note_on_c, 0, 76, 64
1, 49844, Note_on_c, 0, 76, 0
1, 49872, Note_on_c, 0, 76, 64
1, 49892, Note_on_c, 0, 76, 0
1, 49920, Note_on_c, 0, 76, 64
1, 49940, Note_on_c, 0, 76, 0
1, 49968, Note_on_c, 0, 76, 64
1, 49988, Note_on_c, 0, 76, 0
1, 50016, Note_on_c, 0, 76, 64
1, 50036, Note_on_c, 0, 76, 0
1, 50064, Note_on_c, 0, 76, 64
1, 50084, Note_on_c, 0, 76, 0
1, 50112, Note_on_c, 0, 77, 64
1, 50112, Note_on_c, 0, 76, 64
1, 50132, Note_on_c, 0, 77, 0
1, 50160, Note_on_c, 0, 77, 64
1, 50180, Note_on_c, 0, 77, 0
1, 50208, Note_on_c, 0, 77, 65
1, 50228, Note_on_c, 0, 77, 0
1, 50256, Note_on_c, 0, 77, 66
1, 50276, Note_on_c, 0, 77, 0
1, 50304, Note_on_c, 0, 77, 66
1, 50304, Note_on_c, 0, 76, 0
1, 50304, Note_on_c, 0, 74, 66
1, 50324, Note_on_c, 0, 77, 0
1, 50343, Note_on_c, 0, 74, 0
1, 50352, Note_on_c, 0, 77, 67
1, 50372, Note_on_c, 0, 77, 0
1, 50400, Note_on_c, 0, 77, 68
1, 50420, Note_on_c, 0, 77, 0
1, 50448, Note_on_c, 0, 77, 68
1, 50468, Note_on_c, 0, 77, 0
1, 50496, Note_on_c, 0, 80, 69
1, 50496, Note_on_c, 0, 74, 69
1, 50496, Note_on_c, 0, 71, 69
1, 50496, Note_on_c, 1, 50, 67
1, 50496, Note_on_c, 1, 38, 67
1, 50516, Note_on_c, 0, 80, 0
1, 50516, Note_on_c, 0, 74, 0
1, 50516, Note_on_c, 0, 71, 0
1, 50544, Note_on_c, 0, 80, 70
1, 50544, Note_on_c, 0, 74, 70
1, 50544, Note_on_c, 0, 71, 70
1, 50564, Note_on_c, 0, 80, 0
1, 50564, Note_on_c, 0, 74, 0
1, 50564, Note_on_c, 0, 71, 0
1, 50592, Note_on_c, 0, 80, 70
1, 50592, Note_on_c, 0, 74, 70
1, 50592, Note_on_c, 0, 71, 70
1, 50612, Note_on_c, 0, 80, 0
1, 50612, Note_on_c, 0, 74, 0
1, 50612, Note_on_c, 0, 71, 0
1, 50640, Note_on_c, 0, 80, 71
1, 50640, Note_on_c, 0, 74, 71
1, 50640, Note_on_c, 0, 71, 71
1, 50660, Note_on_c, 0, 80, 0
1, 50660, Note_on_c, 0, 74, 0
1, 50660, Note_on_c, 0, 71, 0
1, 50688, Note_on_c, 0, 81, 72
1, 50688, Note_on_c, 0, 76, 72
1, 50688, Note_on_c, 0, 69, 72
1, 50688, Note_on_c, 1, 50, 0
1, 50688, Note_on_c, 1, 38, 0
1, 50688, Note_on_c, 1, 48, 70
1, 50688, Note_on_c, 1, 36, 70
1, 50708, Note_on_c, 0, 81, 0
1, 50708, Note_on_c, 0, 76, 0
1, 50708, Note_on_c, 0, 69, 0
1, 50727, Note_on_c, 1, 48, 0
1, 50727, Note_on_c, 1, 36, 0
1, 50736, Note_on_c, 0, 81, 72
1, 50736, Note_on_c, 0, 76, 72
1, 50736, Note_on_c, 0, 69, 72
1, 50756, Note_on_c, 0, 81, 0
1, 50756, Note_on_c, 0, 76, 0
1, 50756, Note_on_c, 0, 69, 0
1, 50784, Note_on_c, 0, 81, 73
1, 50784, Note_on_c, 0, 76, 73
1, 50784, Note_on_c, 0, 69, 73
1, 50804, Note_on_c, 0, 81, 0
1, 50804, Note_on_c, 0, 76, 0
1, 50804, Note_on_c, 0, 69, 0
1, 50832, Note_on_c, 0, 81, 74
1, 50832, Note_on_c, 0, 76, 74
1, 50832, Note_on_c, 0, 69, 74
1, 50852, Note_on_c, 0, 81, 0
1, 50852, Note_on_c, 0, 76, 0
1, 50852, Note_on_c, 0, 69, 0
1, 50880, Note_on_c, 0, 74, 74
1, 50880, Note_on_c, 0, 71, 74
1, 50880, Note_on_c, 0, 68, 74
1, 50880, Note_on_c, 1, 44, 73
1, 50880, Note_on_c, 1, 32, 73
1, 50900, Note_on_c, 0, 74, 0
1, 50900, Note_on_c, 0, 71, 0
1, 50900, Note_on_c, 0, 68, 0
1, 50928, Note_on_c, 0, 74, 75
1, 50928, Note_on_c, 0, 71, 75
1, 50928, Note_on_c, 0, 68, 75
1, 50948, Note_on_c, 0, 74, 0
1, 50948, Note_on_c, 0, 71, 0
1, 50948, Note_on_c, 0, 68, 0
1, 50976, Note_on_c, 0, 74, 76
1, 50976, Note_on_c, 0, 71, 76
1, 50976, Note_on_c, 0, 68, 76
1, 50996, Note_on_c, 0, 74, 0
1, 50996, Note_on_c, 0, 71, 0
1, 50996, Note_on_c, 0, 68, 0
1, 51024, Note_on_c, 0, 74, 76
1, 51024, Note_on_c, 0, 71, 76
1, 51024, Note_on_c, 0, 68, 76
1, 51044, Note_on_c, 0, 74, 0
1, 51044, Note_on_c, 0, 71, 0
1, 51044, Note_on_c, 0, 68, 0
1, 51072, Note_on_c, 0, 72, 77
1, 51072, Note_on_c, 0, 71, 77
1, 51072, Note_on_c, 1, 44, 0
1, 51072, Note_on_c, 1, 32, 0
1, 51072, Note_on_c, 1, 45, 76
1, 51072, Note_on_c, 1, 33, 76
1, 51092, Note_on_c, 0, 72, 0
1, 51092, Note_on_c, 0, 71, 0
1, 51111, Note_on_c, 1, 45, 0
1, 51111, Note_on_c, 1, 33, 0
1, 51120, Note_on_c, 0, 72, 78
1, 51120, Note_on_c, 0, 71, 78
1, 51140, Note_on_c, 0, 72, 0
1, 51140, Note_on_c, 0, 71, 0
1, 51168, Note_on_c, 0, 72, 78
1, 51168, Note_on_c, 0, 69, 78
1, 51188, Note_on_c, 0, 72, 0
1, 51188, Note_on_c, 0, 69, 0
1, 51216, Note_on_c, 0, 72, 79
1, 51216, Note_on_c, 0, 69, 79
1, 51236, Note_on_c, 0, 72, 0
1, 51236, Note_on_c, 0, 69, 0
1, 51264, Note_on_c, 0, 75, 80
1, 51264, Note_on_c, 0, 72, 80
1, 51264, Note_on_c, 0, 69, 80
1, 51264, Note_on_c, 1, 53, 80
1, 51264, Note_on_c, 1, 41, 80
1, 51284, Note_on_c, 0, 75, 0
1, 51284, Note_on_c, 0, 72, 0
1, 51284, Note_on_c, 0, 69, 0
1, 51312, Note_on_c, 0, 75, 77
1, 51312, Note_on_c, 0, 72, 77
1, 51312, Note_on_c, 0, 69, 77
1, 51332, Note_on_c, 0, 75, 0
1, 51332, Note_on_c, 0, 72, 0
1, 51332, Note_on_c, 0, 69, 0
1, 51360, Note_on_c, 0, 75, 74
1, 51360, Note_on_c, 0, 72, 74
1, 51360, Note_on_c, 0, 69, 74
1, 51380, Note_on_c, 0, 75, 0
1, 51380, Note_on_c, 0, 72, 0
1, 51380, Note_on_c, 0, 69, 0
1, 51408, Note_on_c, 0, 75, 72
1, 51408, Note_on_c, 0, 72, 72
1, 51408, Note_on_c, 0, 69, 72
1, 51428, Note_on_c, 0, 75, 0
1, 51428, Note_on_c, 0, 72, 0
1, 51428, Note_on_c, 0, 69, 0
1, 51456, Note_on_c, 0, 76, 69
1, 51456, Note_on_c, 0, 71, 69
1, 51456, Note_on_c, 0, 68, 69
1, 51456, Note_on_c, 1, 53, 0
1, 51456, Note_on_c, 1, 41, 0
1, 51456, Note_on_c, 1, 52, 69
1, 51456, Note_on_c, 1, 40, 69
1, 51545, Note_on_c, 0, 76, 0
1, 51545, Note_on_c, 0, 71, 0
1, 51545, Note_on_c, 0, 68, 0
1, 51545, Note_on_c, 1, 52, 0
1, 51545, Note_on_c, 1, 40, 0
1, 51840, Note_on_c, 0, 67, 96
1, 51840, Note_on_c, 0, 64, 96
1, 51840, Note_on_c, 1, 49, 80
1, 51863, Note_on_c, 1, 49, 0
1, 51864, Note_on_c, 1, 50, 80
1, 51887, Note_on_c, 1, 50, 0
1, 51888, Note_on_c, 1, 49, 80
1, 51911, Note_on_c, 1, 49, 0
1, 51912, Note_on_c, 1, 50, 80
1, 51935, Note_on_c, 1, 50, 0
1, 51936, Note_on_c, 0, 67, 0
1, 51936, Note_on_c, 0, 64, 0
1, 51936, Note_on_c, 0, 66, 80
1, 51936, Note_on_c, 0, 62, 80
1, 51936, Note_on_c, 1, 50, 80
1, 51956, Note_on_c, 1, 50, 0
1, 51975, Note_on_c, 0, 66, 0
1, 51975, Note_on_c, 0, 62, 0
1, 52032, Note_on_c, 0, 65, 96
1, 52032, Note_on_c, 0, 62, 96
1, 52032, Note_on_c, 1, 56, 80
1, 52055, Note_on_c, 1, 56, 0
1, 52056, Note_on_c, 1, 57, 80
1, 52079, Note_on_c, 1, 57, 0
1, 52080, Note_on_c, 1, 56, 80
1, 52103, Note_on_c, 1, 56, 0
1, 52104, Note_on_c, 1, 57, 80
1, 52127, Note_on_c, 1, 57, 0
1, 52128, Note_on_c, 0, 65, 0
1, 52128, Note_on_c, 0, 62, 0
1, 52128, Note_on_c, 0, 64, 80
1, 52128, Note_on_c, 0, 61, 80
1, 52128, Note_on_c, 1, 57, 80
1, 52148, Note_on_c, 1, 57, 0
1, 52167, Note_on_c, 0, 64, 0
1, 52167, Note_on_c, 0, 61, 0
1, 52224, Note_on_c, 0, 81, 96
1, 52224, Note_on_c, 0, 78, 96
1, 52224, Note_on_c, 1, 51, 80
1, 52247, Note_on_c, 1, 51, 0
1, 52248, Note_on_c, 1, 52, 80
1, 52271, Note_on_c, 1, 52, 0
1, 52272, Note_on_c, 1, 51, 80
1, 52295, Note_on_c, 1, 51, 0
1, 52296, Note_on_c, 1, 52, 80
1, 52319, Note_on_c, 1, 52, 0
1, 52320, Note_on_c, 0, 81, 0
1, 52320, Note_on_c, 0, 78, 0
1, 52320, Note_on_c, 0, 80, 80
1, 52320, Note_on_c, 0, 76, 80
1, 52320, Note_on_c, 1, 52, 80
1, 52340, Note_on_c, 1, 52, 0
1, 52359, Note_on_c, 0, 80, 0
1, 52359, Note_on_c, 0, 76, 0
1, 52416, Note_on_c, 0, 74, 96
1, 52416, Note_on_c, 0, 71, 96
1, 52416, Note_on_c, 1, 44, 80
1, 52439, Note_on_c, 1, 44, 0
1, 52440, Note_on_c, 1, 45, 80
1, 52463, Note_on_c, 1, 45, 0
1, 52464, Note_on_c, 1, 44, 80
1, 52487, Note_on_c, 1, 44, 0
1, 52488, Note_on_c, 1, 45, 80
1, 52511, Note_on_c, 1, 45, 0
1, 52512, Note_on_c, 0, 74, 0
1, 52512, Note_on_c, 0, 71, 0
1, 52512, Note_on_c, 0, 73, 80
1, 52512, Note_on_c, 0, 69, 80
1, 52512, Note_on_c, 1, 45, 80
1, 52527, Note_on_c, 0, 73, 0
1, 52527, Note_on_c, 0, 69, 0
1, 52532, Note_on_c, 1, 45, 0
1, 52584, Note_on_c, 0, 74, 80
1, 52596, Note_on_c, 0, 74, 0
1, 52596, Note_on_c, 0, 76, 80
1, 52608, Note_on_c, 0, 76, 0
1, 52608, Note_on_c, 0, 78, 102
1, 52608, Note_on_c, 1, 38, 80
1, 52656, Note_on_c, 0, 78, 0
1, 52656, Note_on_c, 0, 76, 86
1, 52676, Note_on_c, 0, 76, 0
1, 52704, Note_on_c, 0, 74, 86
1, 52724, Note_on_c, 0, 74, 0
1, 52752, Note_on_c, 0, 73, 86
1, 52772, Note_on_c, 0, 73, 0
1, 52785, Note_on_c, 1, 38, 0
1, 52800, Note_on_c, 0, 71, 86
1, 52820, Note_on_c, 0, 71, 0
1, 52848, Note_on_c, 0, 69, 86
1, 52868, Note_on_c, 0, 69, 0
1, 52896, Note_on_c, 0, 68, 86
1, 52916, Note_on_c, 0, 68, 0
1, 52944, Note_on_c, 0, 66, 86
1, 52964, Note_on_c, 0, 66, 0
1, 52992, Note_on_c, 0, 64, 80
1, 52992, Note_on_c, 1, 52, 80
1, 53012, Note_on_c, 0, 64, 0
1, 53012, Note_on_c, 1, 52, 0
1, 53040, Note_on_c, 0, 62, 78
1, 53040, Note_on_c, 1, 50, 78
1, 53060, Note_on_c, 0, 62, 0
1, 53060, Note_on_c, 1, 50, 0
1, 53088, Note_on_c, 0, 61, 77
1, 53088, Note_on_c, 1, 49, 77
1, 53108, Note_on_c, 0, 61, 0
1, 53108, Note_on_c, 1, 49, 0
1, 53136, Note_on_c, 0, 59, 76
1, 53136, Note_on_c, 1, 47, 76
1, 53156, Note_on_c, 0, 59, 0
1, 53156, Note_on_c, 1, 47, 0
1, 53184, Note_on_c, 0, 57, 75
1, 53184, Note_on_c, 1, 45, 75
1, 53204, Note_on_c, 0, 57, 0
1, 53204, Note_on_c, 1, 45, 0
1, 53232, Note_on_c, 0, 56, 73
1, 53232, Note_on_c, 1, 44, 73
1, 53252, Note_on_c, 0, 56, 0
1, 53252, Note_on_c, 1, 44, 0
1, 53280, Note_on_c, 0, 54, 72
1, 53280, Note_on_c, 1, 42, 72
1, 53300, Note_on_c, 0, 54, 0
1, 53300, Note_on_c, 1, 42, 0
1, 53328, Note_on_c, 0, 52, 71
1, 53328, Note_on_c, 1, 40, 71
1, 53348, Note_on_c, 0, 52, 0
1, 53348, Note_on_c, 1, 40, 0
1, 53376, Note_on_c, 0, 66, 64
1, 53376, Note_on_c, 0, 62, 64
1, 53376, Note_on_c, 0, 57, 64
1, 53376, Note_on_c, 1, 50, 64
1, 53415, Note_on_c, 0, 66, 0
1, 53415, Note_on_c, 0, 62, 0
1, 53415, Note_on_c, 0, 57, 0
1, 53465, Note_on_c, 1, 50, 0
1, 53568, Note_on_c, 0, 68, 64
1, 53568, Note_on_c, 0, 64, 64
1, 53568, Note_on_c, 0, 62, 64
1, 53568, Note_on_c, 0, 59, 64
1, 53568, Note_on_c, 1, 52, 64
1, 53607, Note_on_c, 0, 68, 0
1, 53607, Note_on_c, 0, 64, 0
1, 53607, Note_on_c, 0, 62, 0
1, 53607, Note_on_c, 0, 59, 0
1, 53657, Note_on_c, 1, 52, 0
1, 53760, Note_on_c, 0, 61, 80
1, 53760, Note_on_c, 1, 57, 64
1, 53760, Note_on_c, 1, 45, 64
1, 53784, Note_on_c, 0, 61, 0
1, 53784, Note_on_c, 0, 57, 80
1, 53807, Note_on_c, 0, 57, 0
1, 53808, Note_on_c, 0, 64, 80
1, 53818, Note_on_c, 0, 64, 0
1, 53832, Note_on_c, 0, 64, 80
1, 53842, Note_on_c, 0, 64, 0
1, 53849, Note_on_c, 1, 57, 0
1, 53849, Note_on_c, 1, 45, 0
1, 53856, Note_on_c, 0, 64, 81
1, 53880, Note_on_c, 0, 64, 0
1, 53880, Note_on_c, 0, 61, 81
1, 53903, Note_on_c, 0, 61, 0
1, 53904, Note_on_c, 0, 69, 81
1, 53914, Note_on_c, 0, 69, 0
1, 53928, Note_on_c, 0, 69, 81
1, 53938, Note_on_c, 0, 69, 0
1, 53952, Note_on_c, 0, 69, 82
1, 53976, Note_on_c, 0, 69, 0
1, 53976, Note_on_c, 0, 64, 82
1, 53999, Note_on_c, 0, 64, 0
1, 54000, Note_on_c, 0, 73, 82
1, 54010, Note_on_c, 0, 73, 0
1, 54024, Note_on_c, 0, 73, 82
1, 54034, Note_on_c, 0, 73, 0
1, 54048, Note_on_c, 0, 73, 83
1, 54072, Note_on_c, 0, 73, 0
1, 54072, Note_on_c, 0, 69, 83
1, 54095, Note_on_c, 0, 69, 0
1, 54096, Note_on_c, 0, 76, 83
1, 54106, Note_on_c, 0, 76, 0
1, 54120, Note_on_c, 0, 76, 83
1, 54130, Note_on_c, 0, 76, 0
1, 54144, Note_on_c, 0, 76, 84
1, 54144, Note_on_c, 1, 52, 80
1, 54168, Note_on_c, 0, 76, 0
1, 54168, Note_on_c, 0, 73, 84
1, 54168, Note_on_c, 1, 52, 0
1, 54168, Note_on_c, 1, 49, 80
1, 54191, Note_on_c, 0, 73, 0
1, 54191, Note_on_c, 1, 49, 0
1, 54192, Note_on_c, 0, 81, 84
1, 54192, Note_on_c, 1, 57, 81
1, 54202, Note_on_c, 0, 81, 0
1, 54202, Note_on_c, 1, 57, 0
1, 54216, Note_on_c, 0, 81, 84
1, 54216, Note_on_c, 1, 57, 81
1, 54226, Note_on_c, 0, 81, 0
1, 54226, Note_on_c, 1, 57, 0
1, 54240, Note_on_c, 0, 81, 85
1, 54240, Note_on_c, 1, 57, 82
1, 54264, Note_on_c, 0, 81, 0
1, 54264, Note_on_c, 0, 76, 85
1, 54264, Note_on_c, 1, 57, 0
1, 54264, Note_on_c, 1, 52, 82
1, 54287, Note_on_c, 0, 76, 0
1, 54287, Note_on_c, 1, 52, 0
1, 54288, Note_on_c, 0, 85, 85
1, 54288, Note_on_c, 1, 61, 83
1, 54298, Note_on_c, 0, 85, 0
1, 54298, Note_on_c, 1, 61, 0
1, 54312, Note_on_c, 0, 85, 85
1, 54312, Note_on_c, 1, 61, 83
1, 54322, Note_on_c, 0, 85, 0
1, 54322, Note_on_c, 1, 61, 0
1, 54336, Note_on_c, 0, 85, 86
1, 54336, Note_on_c, 1, 61, 84
1, 54375, Note_on_c, 0, 85, 0
1, 54375, Note_on_c, 1, 61, 0
1, 54528, Note_on_c, 0, 80, 64
1, 54528, Note_on_c, 1, 74, 64
1, 54551, Note_on_c, 0, 80, 0
1, 54552, Note_on_c, 0, 78, 64
1, 54567, Note_on_c, 1, 74, 0
1, 54575, Note_on_c, 0, 78, 0
1, 54576, Note_on_c, 0, 80, 64
1, 54599, Note_on_c, 0, 80, 0
1, 54600, Note_on_c, 0, 76, 64
1, 54623, Note_on_c, 0, 76, 0
1, 54624, Note_on_c, 0, 81, 64
1, 54624, Note_on_c, 1, 73, 64
1, 54663, Note_on_c, 0, 81, 0
1, 54663, Note_on_c, 1, 73, 0
1, 54912, Note_on_c, 0, 68, 80
1, 54912, Note_on_c, 0, 62, 80
1, 54912, Note_on_c, 1, 52, 80
1, 54912, Note_on_c, 1, 40, 80
1, 54935, Note_on_c, 0, 68, 0
1, 54936, Note_on_c, 0, 66, 80
1, 54959, Note_on_c, 0, 66, 0
1, 54960, Note_on_c, 0, 68, 80
1, 54983, Note_on_c, 0, 68, 0
1, 54984, Note_on_c, 0, 64, 80
1, 55001, Note_on_c, 0, 62, 0
1, 55001, Note_on_c, 1, 52, 0
1, 55001, Note_on_c, 1, 40, 0
1, 55007, Note_on_c, 0, 64, 0
1, 55008, Note_on_c, 0, 69, 80
1, 55008, Note_on_c, 0, 61, 80
1, 55008, Note_on_c, 1, 45, 80
1, 55008, Note_on_c, 1, 33, 80
1, 55097, Note_on_c, 0, 69, 0
1, 55097, Note_on_c, 0, 61, 0
1, 55097, Note_on_c, 1, 45, 0
1, 55097, Note_on_c, 1, 33, 0
1, 55296, Note_on_c, 0, 81, 80
1, 55296, Note_on_c, 1, 60, 80
1, 55296, Note_on_c, 1, 57, 80
1, 55296, Note_on_c, 1, 54, 80
1, 55296, Note_on_c, 1, 51, 80
1, 55308, Note_on_c, 0, 81, 0
1, 55308, Note_on_c, 0, 83, 80
1, 55320, Note_on_c, 0, 83, 0
1, 55320, Note_on_c, 0, 84, 96
1, 55344, Note_on_c, 0, 84, 0
1, 55344, Note_on_c, 0, 83, 80
1, 55364, Note_on_c, 0, 83, 0
1, 55392, Note_on_c, 0, 81, 80
1, 55412, Note_on_c, 0, 81, 0
1, 55440, Note_on_c, 0, 80, 80
1, 55460, Note_on_c, 0, 80, 0
1, 55473, Note_on_c, 1, 60, 0
1, 55473, Note_on_c, 1, 57, 0
1, 55473, Note_on_c, 1, 54, 0
1, 55473, Note_on_c, 1, 51, 0
1, 55488, Note_on_c, 0, 77, 80
1, 55508, Note_on_c, 0, 77, 0
1, 55536, Note_on_c, 0, 76, 80
1, 55556, Note_on_c, 0, 76, 0
1, 55584, Note_on_c, 0, 74, 80
1, 55604, Note_on_c, 0, 74, 0
1, 55632, Note_on_c, 0, 72, 80
1, 55652, Note_on_c, 0, 72, 0
1, 55680, Note_on_c, 0, 71, 80
1, 55700, Note_on_c, 0, 71, 0
1, 55728, Note_on_c, 0, 69, 80
1, 55748, Note_on_c, 0, 69, 0
1, 55776, Note_on_c, 0, 68, 80
1, 55796, Note_on_c, 0, 68, 0
1, 55824, Note_on_c, 0, 65, 80
1, 55844, Note_on_c, 0, 65, 0
1, 55872, Note_on_c, 0, 64, 80
1, 55892, Note_on_c, 0, 64, 0
1, 55920, Note_on_c, 0, 62, 80
1, 55940, Note_on_c, 0, 62, 0
1, 55968, Note_on_c, 0, 60, 80
1, 55988, Note_on_c, 0, 60, 0
1, 56016, Note_on_c, 0, 59, 80
1, 56036, Note_on_c, 0, 59, 0
1, 56064, Note_on_c, 0, 63, 80
1, 56064, Note_on_c, 0, 57, 80
1, 56064, Note_on_c, 1, 53, 80
1, 56109, Note_on_c, 1, 53, 0
1, 56112, Note_on_c, 1, 41, 80
1, 56157, Note_on_c, 1, 41, 0
1, 56160, Note_on_c, 1, 53, 80
1, 56205, Note_on_c, 1, 53, 0
1, 56208, Note_on_c, 1, 53, 80
1, 56253, Note_on_c, 1, 53, 0
1, 56256, Note_on_c, 1, 53, 80
1, 56301, Note_on_c, 1, 53, 0
1, 56304, Note_on_c, 1, 41, 80
1, 56349, Note_on_c, 1, 41, 0
1, 56352, Note_on_c, 1, 53, 80
1, 56397, Note_on_c, 1, 53, 0
1, 56400, Note_on_c, 1, 53, 80
1, 56418, Note_on_c, 0, 63, 0
1, 56418, Note_on_c, 0, 57, 0
1, 56445, Note_on_c, 1, 53, 0
1, 56448, Note_on_c, 0, 64, 80
1, 56448, Note_on_c, 0, 56, 80
1, 56448, Note_on_c, 1, 52, 80
1, 56537, Note_on_c, 1, 52, 0
1, 56544, Note_on_c, 1, 51, 70
1, 56567, Note_on_c, 1, 51, 0
1, 56568, Note_on_c, 1, 52, 70
1, 56591, Note_on_c, 1, 52, 0
1, 56592, Note_on_c, 1, 51, 70
1, 56615, Note_on_c, 1, 51, 0
1, 56616, Note_on_c, 1, 52, 70
1, 56625, Note_on_c, 0, 64, 0
1, 56625, Note_on_c, 0, 56, 0
1, 56639, Note_on_c, 1, 52, 0
1, 56640, Note_on_c, 1, 40, 70
1, 56660, Note_on_c, 1, 40, 0
1, 56736, Note_on_c, 0, 64, 70
1, 56736, Note_on_c, 0, 56, 70
1, 56775, Note_on_c, 0, 64, 0
1, 56775, Note_on_c, 0, 56, 0
1, 56832, Note_on_c, 0, 65, 86
1, 56832, Note_on_c, 0, 62, 86
1, 56832, Note_on_c, 0, 59, 86
1, 56928, Note_on_c, 1, 51, 70
1, 56951, Note_on_c, 1, 51, 0
1, 56952, Note_on_c, 1, 52, 70
1, 56975, Note_on_c, 1, 52, 0
1, 56976, Note_on_c, 1, 51, 70
1, 56999, Note_on_c, 1, 51, 0
1, 57000, Note_on_c, 1, 52, 70
1, 57023, Note_on_c, 1, 52, 0
1, 57024, Note_on_c, 0, 65, 0
1, 57024, Note_on_c, 0, 62, 0
1, 57024, Note_on_c, 0, 59, 0
1, 57024, Note_on_c, 1, 40, 70
1, 57044, Note_on_c, 1, 40, 0
1, 57120, Note_on_c, 0, 65, 70
1, 57120, Note_on_c, 0, 62, 70
1, 57120, Note_on_c, 0, 59, 70
1, 57159, Note_on_c, 0, 65, 0
1, 57159, Note_on_c, 0, 62, 0
1, 57159, Note_on_c, 0, 59, 0
1, 57216, Note_on_c, 0, 68, 86
1, 57216, Note_on_c, 0, 64, 86
1, 57216, Note_on_c, 0, 59, 86
1, 57312, Note_on_c, 1, 51, 70
1, 57335, Note_on_c, 1, 51, 0
1, 57336, Note_on_c, 1, 52, 70
1, 57359, Note_on_c, 1, 52, 0
1, 57360, Note_on_c, 1, 51, 70
1, 57383, Note_on_c, 1, 51, 0
1, 57384, Note_on_c, 1, 52, 70
1, 57407, Note_on_c, 1, 52, 0
1, 57408, Note_on_c, 0, 68, 0
1, 57408, Note_on_c, 0, 64, 0
1, 57408, Note_on_c, 0, 59, 0
1, 57408, Note_on_c, 1, 40, 70
1, 57428, Note_on_c, 1, 40, 0
1, 57504, Note_on_c, 0, 68, 70
1, 57504, Note_on_c, 0, 64, 70
1, 57504, Note_on_c, 0, 59, 70
1, 57543, Note_on_c, 0, 68, 0
1, 57543, Note_on_c, 0, 64, 0
1, 57543, Note_on_c, 0, 59, 0
1, 57600, Note_on_c, 0, 69, 86
1, 57600, Note_on_c, 0, 64, 86
1, 57600, Note_on_c, 0, 60, 86
1, 57696, Note_on_c, 1, 51, 71
1, 57719, Note_on_c, 1, 51, 0
1, 57720, Note_on_c, 1, 52, 71
1, 57743, Note_on_c, 1, 52, 0
1, 57744, Note_on_c, 1, 51, 72
1, 57767, Note_on_c, 1, 51, 0
1, 57768, Note_on_c, 1, 52, 72
1, 57791, Note_on_c, 1, 52, 0
1, 57792, Note_on_c, 0, 69, 0
1, 57792, Note_on_c, 0, 64, 0
1, 57792, Note_on_c, 0, 60, 0
1, 57792, Note_on_c, 1, 40, 72
1, 57812, Note_on_c, 1, 40, 0
1, 57888, Note_on_c, 0, 69, 74
1, 57888, Note_on_c, 0, 64, 74
1, 57888, Note_on_c, 0, 60, 74
1, 57927, Note_on_c, 0, 69, 0
1, 57927, Note_on_c, 0, 64, 0
1, 57927, Note_on_c, 0, 60, 0
1, 57984, Note_on_c, 0, 71, 91
1, 57984, Note_on_c, 0, 68, 91
1, 57984, Note_on_c, 0, 62, 91
1, 58080, Note_on_c, 1, 51, 76
1, 58103, Note_on_c, 1, 51, 0
1, 58104, Note_on_c, 1, 52, 77
1, 58127, Note_on_c, 1, 52, 0
1, 58128, Note_on_c, 1, 51, 77
1, 58151, Note_on_c, 1, 51, 0
1, 58152, Note_on_c, 1, 52, 77
1, 58175, Note_on_c, 1, 52, 0
1, 58176, Note_on_c, 0, 71, 0
1, 58176, Note_on_c, 0, 68, 0
1, 58176, Note_on_c, 0, 62, 0
1, 58176, Note_on_c, 1, 40, 78
1, 58196, Note_on_c, 1, 40, 0
1, 58272, Note_on_c, 0, 71, 79
1, 58272, Note_on_c, 0, 68, 79
1, 58272, Note_on_c, 0, 62, 79
1, 58311, Note_on_c, 0, 71, 0
1, 58311, Note_on_c, 0, 68, 0
1, 58311, Note_on_c, 0, 62, 0
1, 58368, Note_on_c, 0, 72, 96
1, 58368, Note_on_c, 0, 69, 96
1, 58368, Note_on_c, 0, 64, 96
1, 58464, Note_on_c, 1, 51, 82
1, 58487, Note_on_c, 1, 51, 0
1, 58488, Note_on_c, 1, 52, 82
1, 58511, Note_on_c, 1, 52, 0
1, 58512, Note_on_c, 1, 51, 82
1, 58535, Note_on_c, 1, 51, 0
1, 58536, Note_on_c, 1, 52, 83
1, 58559, Note_on_c, 1, 52, 0
1, 58560, Note_on_c, 0, 72, 0
1, 58560, Note_on_c, 0, 69, 0
1, 58560, Note_on_c, 0, 64, 0
1, 58560, Note_on_c, 1, 40, 83
1, 58580, Note_on_c, 1, 40, 0
1, 58656, Note_on_c, 0, 75, 100
1, 58656, Note_on_c, 0, 69, 100
1, 58656, Note_on_c, 0, 66, 100
1, 58695, Note_on_c, 0, 75, 0
1, 58695, Note_on_c, 0, 69, 0
1, 58695, Note_on_c, 0, 66, 0
1, 58752, Note_on_c, 0, 76, 86
1, 58752, Note_on_c, 0, 72, 86
1, 58752, Note_on_c, 0, 69, 86
1, 58752, Note_on_c, 0, 64, 86
1, 58752, Note_on_c, 1, 60, 86
1, 58752, Note_on_c, 1, 48, 86
1, 58772, Note_on_c, 1, 60, 0
1, 58772, Note_on_c, 1, 48, 0
1, 58791, Note_on_c, 0, 76, 0
1, 58791, Note_on_c, 0, 72, 0
1, 58791, Note_on_c, 0, 69, 0
1, 58791, Note_on_c, 0, 64, 0
1, 58800, Note_on_c, 1, 59, 86
1, 58800, Note_on_c, 1, 47, 86
1, 58820, Note_on_c, 1, 59, 0
1, 58820, Note_on_c, 1, 47, 0
1, 58848, Note_on_c, 0, 72, 86
1, 58848, Note_on_c, 0, 69, 86
1, 58848, Note_on_c, 0, 64, 86
1, 58848, Note_on_c, 1, 57, 86
1, 58848, Note_on_c, 1, 45, 86
1, 58868, Note_on_c, 1, 57, 0
1, 58868, Note_on_c, 1, 45, 0
1, 58887, Note_on_c, 0, 72, 0
1, 58887, Note_on_c, 0, 69, 0
1, 58887, Note_on_c, 0, 64, 0
1, 58896, Note_on_c, 1, 56, 86
1, 58896, Note_on_c, 1, 44, 86
1, 58916, Note_on_c, 1, 56, 0
1, 58916, Note_on_c, 1, 44, 0
1, 58944, Note_on_c, 1, 53, 86
1, 58944, Note_on_c, 1, 41, 86
1, 58964, Note_on_c, 1, 53, 0
1, 58964, Note_on_c, 1, 41, 0
1, 58992, Note_on_c, 0, 69, 86
1, 58992, Note_on_c, 1, 52, 86
1, 58992, Note_on_c, 1, 40, 86
1, 59012, Note_on_c, 1, 52, 0
1, 59012, Note_on_c, 1, 40, 0
1, 59037, Note_on_c, 0, 69, 0
1, 59040, Note_on_c, 0, 71, 86
1, 59040, Note_on_c, 1, 50, 86
1, 59040, Note_on_c, 1, 38, 86
1, 59060, Note_on_c, 1, 50, 0
1, 59060, Note_on_c, 1, 38, 0
1, 59085, Note_on_c, 0, 71, 0
1, 59088, Note_on_c, 0, 72, 86
1, 59088, Note_on_c, 1, 48, 86
1, 59088, Note_on_c, 1, 36, 86
1, 59108, Note_on_c, 1, 48, 0
1, 59108, Note_on_c, 1, 36, 0
1, 59133, Note_on_c, 0, 72, 0
1, 59136, Note_on_c, 0, 74, 86
1, 59136, Note_on_c, 0, 71, 86
1, 59136, Note_on_c, 0, 68, 86
1, 59136, Note_on_c, 1, 57, 86
1, 59136, Note_on_c, 1, 45, 86
1, 59156, Note_on_c, 1, 57, 0
1, 59156, Note_on_c, 1, 45, 0
1, 59175, Note_on_c, 0, 74, 0
1, 59175, Note_on_c, 0, 71, 0
1, 59175, Note_on_c, 0, 68, 0
1, 59184, Note_on_c, 1, 56, 86
1, 59184, Note_on_c, 1, 44, 86
1, 59204, Note_on_c, 1, 56, 0
1, 59204, Note_on_c, 1, 44, 0
1, 59232, Note_on_c, 0, 71, 86
1, 59232, Note_on_c, 0, 68, 86
1, 59232, Note_on_c, 1, 53, 86
1, 59232, Note_on_c, 1, 41, 86
1, 59252, Note_on_c, 1, 53, 0
1, 59252, Note_on_c, 1, 41, 0
1, 59271, Note_on_c, 0, 71, 0
1, 59271, Note_on_c, 0, 68, 0
1, 59280, Note_on_c, 1, 52, 86
1, 59280, Note_on_c, 1, 40, 86
1, 59300, Note_on_c, 1, 52, 0
1, 59300, Note_on_c, 1, 40, 0
1, 59328, Note_on_c, 1, 50, 86
1, 59328, Note_on_c, 1, 38, 86
1, 59348, Note_on_c, 1, 50, 0
1, 59348, Note_on_c, 1, 38, 0
1, 59376, Note_on_c, 0, 68, 86
1, 59376, Note_on_c, 1, 48, 86
1, 59376, Note_on_c, 1, 36, 86
1, 59396, Note_on_c, 1, 48, 0
1, 59396, Note_on_c, 1, 36, 0
1, 59421, Note_on_c, 0, 68, 0
1, 59424, Note_on_c, 0, 69, 86
1, 59424, Note_on_c, 1, 47, 86
1, 59424, Note_on_c, 1, 35, 86
1, 59444, Note_on_c, 1, 47, 0
1, 59444, Note_on_c, 1, 35, 0
1, 59469, Note_on_c, 0, 69, 0
1, 59472, Note_on_c, 0, 71, 86
1, 59472, Note_on_c, 1, 45, 86
1, 59472, Note_on_c, 1, 33, 86
1, 59492, Note_on_c, 1, 45, 0
1, 59492, Note_on_c, 1, 33, 0
1, 59517, Note_on_c, 0, 71, 0
1, 59520, Note_on_c, 0, 72, 86
1, 59520, Note_on_c, 0, 69, 86
1, 59520, Note_on_c, 0, 64, 86
1, 59520, Note_on_c, 1, 45, 86
1, 59520, Note_on_c, 1, 33, 86
1, 59559, Note_on_c, 1, 45, 0
1, 59559, Note_on_c, 1, 33, 0
1, 59609, Note_on_c, 0, 72, 0
1, 59609, Note_on_c, 0, 69, 0
1, 59609, Note_on_c, 0, 64, 0
1, 59616, Note_on_c, 0, 69, 86
1, 59616, Note_on_c, 0, 64, 86
1, 59616, Note_on_c, 0, 60, 86
1, 59616, Note_on_c, 1, 44, 86
1, 59639, Note_on_c, 1, 44, 0
1, 59640, Note_on_c, 1, 45, 86
1, 59663, Note_on_c, 1, 45, 0
1, 59664, Note_on_c, 1, 44, 86
1, 59687, Note_on_c, 1, 44, 0
1, 59688, Note_on_c, 1, 45, 86
1, 59705, Note_on_c, 0, 69, 0
1, 59705, Note_on_c, 0, 64, 0
1, 59705, Note_on_c, 0, 60, 0
1, 59711, Note_on_c, 1, 45, 0
1, 59712, Note_on_c, 1, 33, 86
1, 59751, Note_on_c, 1, 33, 0
1, 59808, Note_on_c, 0, 69, 70
1, 59808, Note_on_c, 0, 64, 70
1, 59808, Note_on_c, 0, 60, 70
1, 59847, Note_on_c, 0, 69, 0
1, 59847, Note_on_c, 0, 64, 0
1, 59847, Note_on_c, 0, 60, 0
1, 59904, Note_on_c, 0, 70, 86
1, 59904, Note_on_c, 0, 65, 86
1, 59904, Note_on_c, 0, 62, 86
1, 59904, Note_on_c, 1, 33, 70
1, 59943, Note_on_c, 1, 33, 0
1, 60000, Note_on_c, 1, 44, 70
1, 60023, Note_on_c, 1, 44, 0
1, 60024, Note_on_c, 1, 45, 71
1, 60047, Note_on_c, 1, 45, 0
1, 60048, Note_on_c, 1, 44, 71
1, 60071, Note_on_c, 1, 44, 0
1, 60072, Note_on_c, 1, 45, 71
1, 60095, Note_on_c, 1, 45, 0
1, 60096, Note_on_c, 0, 70, 0
1, 60096, Note_on_c, 0, 65, 0
1, 60096, Note_on_c, 0, 62, 0
1, 60096, Note_on_c, 1, 33, 71
1, 60135, Note_on_c, 1, 33, 0
1, 60192, Note_on_c, 0, 70, 72
1, 60192, Note_on_c, 0, 65, 72
1, 60192, Note_on_c, 0, 62, 72
1, 60231, Note_on_c, 0, 70, 0
1, 60231, Note_on_c, 0, 65, 0
1, 60231, Note_on_c, 0, 62, 0
1, 60288, Note_on_c, 0, 73, 89
1, 60288, Note_on_c, 0, 67, 89
1, 60288, Note_on_c, 0, 64, 89
1, 60288, Note_on_c, 1, 33, 73
1, 60327, Note_on_c, 1, 33, 0
1, 60384, Note_on_c, 1, 44, 74
1, 60407, Note_on_c, 1, 44, 0
1, 60408, Note_on_c, 1, 45, 74
1, 60431, Note_on_c, 1, 45, 0
1, 60432, Note_on_c, 1, 44, 74
1, 60455, Note_on_c, 1, 44, 0
1, 60456, Note_on_c, 1, 45, 74
1, 60479, Note_on_c, 1, 45, 0
1, 60480, Note_on_c, 0, 73, 0
1, 60480, Note_on_c, 0, 67, 0
1, 60480, Note_on_c, 0, 64, 0
1, 60480, Note_on_c, 1, 33, 75
1, 60519, Note_on_c, 1, 33, 0
1, 60576, Note_on_c, 0, 73, 75
1, 60576, Note_on_c, 0, 67, 75
1, 60576, Note_on_c, 0, 64, 75
1, 60615, Note_on_c, 0, 73, 0
1, 60615, Note_on_c, 0, 67, 0
1, 60615, Note_on_c, 0, 64, 0
1, 60672, Note_on_c, 0, 74, 92
1, 60672, Note_on_c, 0, 69, 92
1, 60672, Note_on_c, 0, 65, 92
1, 60672, Note_on_c, 1, 33, 76
1, 60711, Note_on_c, 1, 33, 0
1, 60768, Note_on_c, 1, 44, 77
1, 60791, Note_on_c, 1, 44, 0
1, 60792, Note_on_c, 1, 45, 77
1, 60815, Note_on_c, 1, 45, 0
1, 60816, Note_on_c, 1, 44, 77
1, 60839, Note_on_c, 1, 44, 0
1, 60840, Note_on_c, 1, 45, 78
1, 60863, Note_on_c, 1, 45, 0
1, 60864, Note_on_c, 0, 74, 0
1, 60864, Note_on_c, 0, 69, 0
1, 60864, Note_on_c, 0, 65, 0
1, 60864, Note_on_c, 1, 33, 78
1, 60903, Note_on_c, 1, 33, 0
1, 60960, Note_on_c, 0, 74, 79
1, 60960, Note_on_c, 0, 69, 79
1, 60960, Note_on_c, 0, 65, 79
1, 60999, Note_on_c, 0, 74, 0
1, 60999, Note_on_c, 0, 69, 0
1, 60999, Note_on_c, 0, 65, 0
1, 61056, Note_on_c, 0, 75, 80
1, 61056, Note_on_c, 1, 55, 80
1, 61056, Note_on_c, 1, 51, 80
1, 61056, Note_on_c, 1, 46, 80
1, 61056, Note_on_c, 1, 43, 80
1, 61101, Note_on_c, 0, 75, 0
1, 61104, Note_on_c, 0, 82, 80
1, 61145, Note_on_c, 1, 55, 0
1, 61145, Note_on_c, 1, 51, 0
1, 61145, Note_on_c, 1, 46, 0
1, 61145, Note_on_c, 1, 43, 0
1, 61149, Note_on_c, 0, 82, 0
1, 61152, Note_on_c, 0, 79, 80
1, 61197, Note_on_c, 0, 79, 0
1, 61200, Note_on_c, 0, 75, 80
1, 61245, Note_on_c, 0, 75, 0
1, 61248, Note_on_c, 0, 73, 80
1, 61248, Note_on_c, 0, 70, 80
1, 61296, Note_on_c, 1, 58, 80
1, 61337, Note_on_c, 0, 73, 0
1, 61337, Note_on_c, 0, 70, 0
1, 61341, Note_on_c, 1, 58, 0
1, 61344, Note_on_c, 1, 55, 80
1, 61389, Note_on_c, 1, 55, 0
1, 61392, Note_on_c, 1, 51, 80
1, 61437, Note_on_c, 1, 51, 0
1, 61440, Note_on_c, 1, 53, 80
1, 61440, Note_on_c, 1, 50, 80
1, 61488, Note_on_c, 0, 81, 79
1, 61529, Note_on_c, 1, 53, 0
1, 61529, Note_on_c, 1, 50, 0
1, 61533, Note_on_c, 0, 81, 0
1, 61536, Note_on_c, 0, 77, 78
1, 61581, Note_on_c, 0, 77, 0
1, 61584, Note_on_c, 0, 74, 78
1, 61629, Note_on_c, 0, 74, 0
1, 61632, Note_on_c, 0, 71, 77
1, 61632, Note_on_c, 0, 67, 77
1, 61680, Note_on_c, 1, 56, 76
1, 61721, Note_on_c, 0, 71, 0
1, 61721, Note_on_c, 0, 67, 0
1, 61725, Note_on_c, 1, 56, 0
1, 61728, Note_on_c, 1, 53, 76
1, 61773, Note_on_c, 1, 53, 0
1, 61776, Note_on_c, 1, 50, 75
1, 61821, Note_on_c, 1, 50, 0
1, 61824, Note_on_c, 1, 51, 74
1, 61824, Note_on_c, 1, 48, 74
1, 61872, Note_on_c, 0, 79, 74
1, 61913, Note_on_c, 1, 51, 0
1, 61913, Note_on_c, 1, 48, 0
1, 61917, Note_on_c, 0, 79, 0
1, 61920, Note_on_c, 0, 75, 73
1, 61965, Note_on_c, 0, 75, 0
1, 61968, Note_on_c, 0, 72, 72
1, 62013, Note_on_c, 0, 72, 0
1, 62016, Note_on_c, 0, 69, 72
1, 62016, Note_on_c, 0, 66, 72
1, 62064, Note_on_c, 1, 54, 71
1, 62105, Note_on_c, 0, 69, 0
1, 62105, Note_on_c, 0, 66, 0
1, 62109, Note_on_c, 1, 54, 0
1, 62112, Note_on_c, 1, 51, 70
1, 62157, Note_on_c, 1, 51, 0
1, 62160, Note_on_c, 1, 48, 70
1, 62205, Note_on_c, 1, 48, 0
1, 62208, Note_on_c, 1, 53, 69
1, 62208, Note_on_c, 1, 50, 69
1, 62256, Note_on_c, 0, 77, 68
1, 62301, Note_on_c, 0, 77, 0
1, 62304, Note_on_c, 0, 74, 68
1, 62349, Note_on_c, 0, 74, 0
1, 62352, Note_on_c, 0, 70, 67
1, 62385, Note_on_c, 1, 53, 0
1, 62385, Note_on_c, 1, 50, 0
1, 62397, Note_on_c, 0, 70, 0
1, 62400, Note_on_c, 1, 52, 66
1, 62400, Note_on_c, 1, 48, 66
1, 62448, Note_on_c, 0, 79, 66
1, 62493, Note_on_c, 0, 79, 0
1, 62496, Note_on_c, 0, 76, 65
1, 62541, Note_on_c, 0, 76, 0
1, 62544, Note_on_c, 0, 72, 64
1, 62577, Note_on_c, 1, 52, 0
1, 62577, Note_on_c, 1, 48, 0
1, 62589, Note_on_c, 0, 72, 0
1, 62592, Note_on_c, 1, 53, 64
1, 62592, Note_on_c, 1, 48, 64
1, 62640, Note_on_c, 0, 81, 66
1, 62685, Note_on_c, 0, 81, 0
1, 62688, Note_on_c, 0, 77, 68
1, 62733, Note_on_c, 0, 77, 0
1, 62736, Note_on_c, 0, 72, 70
1, 62769, Note_on_c, 1, 53, 0
1, 62769, Note_on_c, 1, 48, 0
1, 62781, Note_on_c, 0, 72, 0
1, 62784, Note_on_c, 1, 55, 72
1, 62784, Note_on_c, 1, 48, 72
1, 62832, Note_on_c, 0, 82, 74
1, 62877, Note_on_c, 0, 82, 0
1, 62880, Note_on_c, 0, 79, 76
1, 62925, Note_on_c, 0, 79, 0
1, 62928, Note_on_c, 0, 76, 78
1, 62961, Note_on_c, 1, 55, 0
1, 62961, Note_on_c, 1, 48, 0
1, 62973, Note_on_c, 0, 76, 0
1, 62976, Note_on_c, 0, 84, 80
1, 62976, Note_on_c, 0, 81, 80
1, 62976, Note_on_c, 1, 57, 80
1, 62976, Note_on_c, 1, 53, 80
1, 62976, Note_on_c, 1, 48, 80
1, 62976, Note_on_c, 1, 45, 80
1, 63015, Note_on_c, 0, 84, 0
1, 63015, Note_on_c, 0, 81, 0
1, 63072, Note_on_c, 0, 81, 80
1, 63072, Note_on_c, 0, 77, 80
1, 63111, Note_on_c, 0, 81, 0
1, 63111, Note_on_c, 0, 77, 0
1, 63153, Note_on_c, 1, 57, 0
1, 63153, Note_on_c, 1, 53, 0
1, 63153, Note_on_c, 1, 48, 0
1, 63153, Note_on_c, 1, 45, 0
1, 63168, Note_on_c, 1, 52, 80
1, 63191, Note_on_c, 1, 52, 0
1, 63192, Note_on_c, 1, 53, 80
1, 63215, Note_on_c, 1, 53, 0
1, 63216, Note_on_c, 1, 52, 80
1, 63239, Note_on_c, 1, 52, 0
1, 63240, Note_on_c, 1, 53, 80
1, 63263, Note_on_c, 1, 53, 0
1, 63264, Note_on_c, 1, 41, 80
1, 63303, Note_on_c, 1, 41, 0
1, 63360, Note_on_c, 0, 86, 80
1, 63360, Note_on_c, 0, 82, 80
1, 63399, Note_on_c, 0, 86, 0
1, 63399, Note_on_c, 0, 82, 0
1, 63456, Note_on_c, 0, 82, 80
1, 63456, Note_on_c, 0, 79, 80
1, 63495, Note_on_c, 0, 82, 0
1, 63495, Note_on_c, 0, 79, 0
1, 63552, Note_on_c, 1, 52, 80
1, 63575, Note_on_c, 1, 52, 0
1, 63576, Note_on_c, 1, 53, 80
1, 63599, Note_on_c, 1, 53, 0
1, 63600, Note_on_c, 1, 52, 80
1, 63623, Note_on_c, 1, 52, 0
1, 63624, Note_on_c, 1, 53, 80
1, 63647, Note_on_c, 1, 53, 0
1, 63648, Note_on_c, 1, 41, 80
1, 63687, Note_on_c, 1, 41, 0
1, 63744, Note_on_c, 0, 84, 80
1, 63744, Note_on_c, 0, 81, 80
1, 63783, Note_on_c, 0, 84, 0
1, 63783, Note_on_c, 0, 81, 0
1, 63840, Note_on_c, 0, 81, 80
1, 63840, Note_on_c, 0, 77, 80
1, 63879, Note_on_c, 0, 81, 0
1, 63879, Note_on_c, 0, 77, 0
1, 64128, Note_on_c, 0, 72, 64
1, 64128, Note_on_c, 0, 69, 64
1, 64128, Note_on_c, 1, 63, 64
1, 64151, Note_on_c, 1, 63, 0
1, 64152, Note_on_c, 1, 64, 64
1, 64167, Note_on_c, 0, 72, 0
1, 64167, Note_on_c, 0, 69, 0
1, 64175, Note_on_c, 1, 64, 0
1, 64176, Note_on_c, 1, 63, 65
1, 64199, Note_on_c, 1, 63, 0
1, 64200, Note_on_c, 1, 64, 66
1, 64223, Note_on_c, 1, 64, 0
1, 64224, Note_on_c, 0, 69, 66
1, 64224, Note_on_c, 0, 66, 66
1, 64224, Note_on_c, 1, 64, 66
1, 64263, Note_on_c, 0, 69, 0
1, 64263, Note_on_c, 0, 66, 0
1, 64263, Note_on_c, 1, 64, 0
1, 64320, Note_on_c, 0, 78, 69
1, 64320, Note_on_c, 0, 75, 69
1, 64320, Note_on_c, 1, 51, 69
1, 64343, Note_on_c, 1, 51, 0
1, 64344, Note_on_c, 1, 52, 70
1, 64359, Note_on_c, 0, 78, 0
1, 64359, Note_on_c, 0, 75, 0
1, 64367, Note_on_c, 1, 52, 0
1, 64368, Note_on_c, 1, 51, 70
1, 64391, Note_on_c, 1, 51, 0
1, 64392, Note_on_c, 1, 52, 71
1, 64415, Note_on_c, 1, 52, 0
1, 64416, Note_on_c, 0, 75, 72
1, 64416, Note_on_c, 0, 72, 72
1, 64416, Note_on_c, 1, 52, 72
1, 64455, Note_on_c, 0, 75, 0
1, 64455, Note_on_c, 0, 72, 0
1, 64455, Note_on_c, 1, 52, 0
1, 64512, Note_on_c, 0, 81, 74
1, 64512, Note_on_c, 0, 78, 74
1, 64512, Note_on_c, 1, 39, 74
1, 64535, Note_on_c, 1, 39, 0
1, 64536, Note_on_c, 1, 40, 75
1, 64551, Note_on_c, 0, 81, 0
1, 64551, Note_on_c, 0, 78, 0
1, 64559, Note_on_c, 1, 40, 0
1, 64560, Note_on_c, 1, 39, 76
1, 64583, Note_on_c, 1, 39, 0
1, 64584, Note_on_c, 1, 40, 76
1, 64607, Note_on_c, 1, 40, 0
1, 64608, Note_on_c, 0, 78, 77
1, 64608, Note_on_c, 0, 75, 77
1, 64608, Note_on_c, 1, 40, 77
1, 64647, Note_on_c, 0, 78, 0
1, 64647, Note_on_c, 0, 75, 0
1, 64647, Note_on_c, 1, 40, 0
1, 64896, Note_on_c, 0, 68, 80
1, 64896, Note_on_c, 0, 65, 80
1, 64935, Note_on_c, 0, 68, 0
1, 64935, Note_on_c, 0, 65, 0
1, 64992, Note_on_c, 0, 65, 77
1, 64992, Note_on_c, 0, 62, 77
1, 65031, Note_on_c, 0, 65, 0
1, 65031, Note_on_c, 0, 62, 0
1, 65088, Note_on_c, 0, 74, 74
1, 65088, Note_on_c, 0, 71, 74
1, 65127, Note_on_c, 0, 74, 0
1, 65127, Note_on_c, 0, 71, 0
1, 65184, Note_on_c, 0, 71, 72
1, 65184, Note_on_c, 0, 68, 72
1, 65223, Note_on_c, 0, 71, 0
1, 65223, Note_on_c, 0, 68, 0
1, 65280, Note_on_c, 0, 77, 69
1, 65280, Note_on_c, 0, 74, 69
1, 65319, Note_on_c, 0, 77, 0
1, 65319, Note_on_c, 0, 74, 0
1, 65376, Note_on_c, 0, 74, 66
1, 65376, Note_on_c, 0, 71, 66
1, 65415, Note_on_c, 0, 74, 0
1, 65415, Note_on_c, 0, 71, 0
1, 65664, Note_on_c, 0, 64, 75
1, 65664, Note_on_c, 0, 61, 75
1, 65703, Note_on_c, 0, 64, 0
1, 65703, Note_on_c, 0, 61, 0
1, 65760, Note_on_c, 0, 61, 75
1, 65760, Note_on_c, 0, 57, 75
1, 65799, Note_on_c, 0, 61, 0
1, 65799, Note_on_c, 0, 57, 0
1, 65856, Note_on_c, 1, 56, 75
1, 65879, Note_on_c, 1, 56, 0
1, 65880, Note_on_c, 1, 57, 75
1, 65903, Note_on_c, 1, 57, 0
1, 65904, Note_on_c, 1, 56, 75
1, 65927, Note_on_c, 1, 56, 0
1, 65928, Note_on_c, 1, 57, 75
1, 65951, Note_on_c, 1, 57, 0
1, 65952, Note_on_c, 1, 45, 75
1, 65991, Note_on_c, 1, 45, 0
1, 66048, Note_on_c, 0, 66, 75
1, 66048, Note_on_c, 0, 62, 75
1, 66087, Note_on_c, 0, 66, 0
1, 66087, Note_on_c, 0, 62, 0
1, 66144, Note_on_c, 0, 62, 75
1, 66144, Note_on_c, 0, 59, 75
1, 66183, Note_on_c, 0, 62, 0
1, 66183, Note_on_c, 0, 59, 0
1, 66240, Note_on_c, 1, 56, 75
1, 66263, Note_on_c, 1, 56, 0
1, 66264, Note_on_c, 1, 57, 75
1, 66287, Note_on_c, 1, 57, 0
1, 66288, Note_on_c, 1, 56, 75
1, 66311, Note_on_c, 1, 56, 0
1, 66312, Note_on_c, 1, 57, 75
1, 66335, Note_on_c, 1, 57, 0
1, 66336, Note_on_c, 1, 45, 75
1, 66375, Note_on_c, 1, 45, 0
1, 66432, Note_on_c, 0, 67, 75
1, 66432, Note_on_c, 0, 64, 75
1, 66471, Note_on_c, 0, 67, 0
1, 66471, Note_on_c, 0, 64, 0
1, 66528, Note_on_c, 0, 64, 75
1, 66528, Note_on_c, 0, 61, 75
1, 66567, Note_on_c, 0, 64, 0
1, 66567, Note_on_c, 0, 61, 0
1, 66720, Note_on_c, 0, 64, 75
1, 66720, Note_on_c, 0, 61, 75
1, 66787, Note_on_c, 0, 64, 0
1, 66787, Note_on_c, 0, 61, 0
1, 66792, Note_on_c, 0, 66, 75
1, 66792, Note_on_c, 0, 62, 75
1, 66815, Note_on_c, 0, 66, 0
1, 66815, Note_on_c, 0, 62, 0
1, 66816, Note_on_c, 0, 67, 75
1, 66816, Note_on_c, 0, 64, 75
1, 66816, Note_on_c, 1, 45, 75
1, 66883, Note_on_c, 0, 67, 0
1, 66883, Note_on_c, 0, 64, 0
1, 66888, Note_on_c, 0, 69, 75
1, 66888, Note_on_c, 0, 66, 75
1, 66898, Note_on_c, 0, 69, 0
1, 66898, Note_on_c, 0, 66, 0
1, 66905, Note_on_c, 1, 45, 0
1, 66912, Note_on_c, 0, 67, 75
1, 66912, Note_on_c, 0, 64, 75
1, 66979, Note_on_c, 0, 67, 0
1, 66979, Note_on_c, 0, 64, 0
1, 66984, Note_on_c, 0, 67, 75
1, 66984, Note_on_c, 0, 64, 75
1, 67007, Note_on_c, 0, 67, 0
1, 67007, Note_on_c, 0, 64, 0
1, 67008, Note_on_c, 0, 76, 91
1, 67040, Note_on_c, 0, 76, 0
1, 67040, Note_on_c, 0, 74, 75
1, 67070, Note_on_c, 0, 74, 0
1, 67072, Note_on_c, 0, 73, 76
1, 67102, Note_on_c, 0, 73, 0
1, 67104, Note_on_c, 0, 71, 77
1, 67104, Note_on_c, 1, 37, 75
1, 67134, Note_on_c, 0, 71, 0
1, 67136, Note_on_c, 0, 69, 78
1, 67143, Note_on_c, 1, 37, 0
1, 67166, Note_on_c, 0, 69, 0
1, 67168, Note_on_c, 0, 67, 78
1, 67198, Note_on_c, 0, 67, 0
1, 67200, Note_on_c, 0, 67, 79
1, 67200, Note_on_c, 0, 64, 79
1, 67248, Note_on_c, 1, 38, 75
1, 67268, Note_on_c, 1, 38, 0
1, 67296, Note_on_c, 1, 42, 75
1, 67316, Note_on_c, 1, 42, 0
1, 67344, Note_on_c, 1, 45, 75
1, 67364, Note_on_c, 1, 45, 0
1, 67392, Note_on_c, 0, 67, 0
1, 67392, Note_on_c, 0, 64, 0
1, 67392, Note_on_c, 0, 66, 76
1, 67392, Note_on_c, 0, 62, 76
1, 67392, Note_on_c, 1, 50, 75
1, 67481, Note_on_c, 0, 66, 0
1, 67481, Note_on_c, 0, 62, 0
1, 67481, Note_on_c, 1, 50, 0
1, 67584, Note_on_c, 0, 59, 75
1, 67680, Note_on_c, 1, 55, 75
1, 67703, Note_on_c, 1, 55, 0
1, 67704, Note_on_c, 1, 54, 75
1, 67727, Note_on_c, 1, 54, 0
1, 67728, Note_on_c, 1, 55, 75
1, 67751, Note_on_c, 1, 55, 0
1, 67752, Note_on_c, 1, 54, 75
1, 67775, Note_on_c, 1, 54, 0
1, 67776, Note_on_c, 1, 55, 75
1, 67843, Note_on_c, 0, 59, 0
1, 67848, Note_on_c, 0, 59, 75
1, 67865, Note_on_c, 1, 55, 0
1, 67871, Note_on_c, 0, 59, 0
1, 67872, Note_on_c, 0, 67, 75
1, 67939, Note_on_c, 0, 67, 0
1, 67944, Note_on_c, 0, 64, 75
1, 67967, Note_on_c, 0, 64, 0
1, 67968, Note_on_c, 0, 62, 75
1, 67986, Note_on_c, 0, 62, 0
1, 67986, Note_on_c, 0, 61, 75
1, 68004, Note_on_c, 0, 61, 0
1, 68004, Note_on_c, 0, 62, 75
1, 68064, Note_on_c, 1, 57, 75
1, 68087, Note_on_c, 1, 57, 0
1, 68088, Note_on_c, 1, 56, 75
1, 68111, Note_on_c, 1, 56, 0
1, 68112, Note_on_c, 1, 57, 75
1, 68135, Note_on_c, 1, 57, 0
1, 68136, Note_on_c, 1, 56, 75
1, 68159, Note_on_c, 1, 56, 0
1, 68160, Note_on_c, 0, 62, 0
1, 68160, Note_on_c, 0, 61, 75
1, 68160, Note_on_c, 1, 57, 75
1, 68249, Note_on_c, 0, 61, 0
1, 68249, Note_on_c, 1, 57, 0
1, 68256, Note_on_c, 0, 73, 75
1, 68279, Note_on_c, 0, 73, 0
1, 68280, Note_on_c, 0, 71, 75
1, 68303, Note_on_c, 0, 71, 0
1, 68304, Note_on_c, 0, 69, 75
1, 68327, Note_on_c, 0, 69, 0
1, 68328, Note_on_c, 0, 67, 75
1, 68351, Note_on_c, 0, 67, 0
1, 68352, Note_on_c, 0, 66, 75
1, 68448, Note_on_c, 1, 61, 75
1, 68471, Note_on_c, 1, 61, 0
1, 68472, Note_on_c, 1, 59, 75
1, 68495, Note_on_c, 1, 59, 0
1, 68496, Note_on_c, 1, 61, 75
1, 68519, Note_on_c, 1, 61, 0
1, 68520, Note_on_c, 1, 59, 75
1, 68543, Note_on_c, 1, 59, 0
1, 68544, Note_on_c, 0, 66, 0
1, 68544, Note_on_c, 0, 64, 75
1, 68544, Note_on_c, 1, 61, 75
1, 68574, Note_on_c, 0, 64, 0
1, 68576, Note_on_c, 0, 73, 75
1, 68606, Note_on_c, 0, 73, 0
1, 68608, Note_on_c, 0, 74, 75
1, 68633, Note_on_c, 1, 61, 0
1, 68638, Note_on_c, 0, 74, 0
1, 68640, Note_on_c, 0, 76, 75
1, 68670, Note_on_c, 0, 76, 0
1, 68672, Note_on_c, 0, 73, 75
1, 68702, Note_on_c, 0, 73, 0
1, 68704, Note_on_c, 0, 67, 75
1, 68734, Note_on_c, 0, 67, 0
1, 68736, Note_on_c, 0, 66, 75
1, 68766, Note_on_c, 0, 66, 0
1, 68768, Note_on_c, 0, 74, 75
1, 68784, Note_on_c, 1, 42, 75
1, 68798, Note_on_c, 0, 74, 0
1, 68800, Note_on_c, 0, 69, 75
1, 68829, Note_on_c, 1, 42, 0
1, 68830, Note_on_c, 0, 69, 0
1, 68832, Note_on_c, 0, 71, 75
1, 68832, Note_on_c, 1, 43, 75
1, 68862, Note_on_c, 0, 71, 0
1, 68864, Note_on_c, 0, 67, 75
1, 68877, Note_on_c, 1, 43, 0
1, 68880, Note_on_c, 1, 47, 75
1, 68894, Note_on_c, 0, 67, 0
1, 68896, Note_on_c, 0, 64, 75
1, 68925, Note_on_c, 1, 47, 0
1, 68926, Note_on_c, 0, 64, 0
1, 68928, Note_on_c, 0, 62, 75
1, 68928, Note_on_c, 0, 54, 75
1, 68928, Note_on_c, 1, 45, 75
1, 69017, Note_on_c, 1, 45, 0
1, 69024, Tempo, 468750
1, 69024, Note_on_c, 0, 62, 0
1, 69024, Note_on_c, 0, 54, 0
1, 69024, Note_on_c, 0, 61, 75
1, 69024, Note_on_c, 0, 52, 75
1, 69024, Note_on_c, 1, 33, 75
1, 69091, Note_on_c, 0, 61, 0
1, 69091, Note_on_c, 0, 52, 0
1, 69091, Note_on_c, 1, 33, 0
1, 69120, Tempo, 400000
1, 69120, Note_on_c, 0, 71, 64
1, 69138, Note_on_c, 0, 71, 0
1, 69138, Note_on_c, 0, 72, 64
1, 69156, Note_on_c, 0, 72, 0
1, 69156, Note_on_c, 0, 74, 64
1, 69174, Note_on_c, 0, 74, 0
1, 69174, Note_on_c, 0, 72, 80
1, 69216, Note_on_c, 1, 66, 59
1, 69216, Note_on_c, 1, 63, 59
1, 69255, Note_on_c, 1, 66, 0
1, 69255, Note_on_c, 1, 63, 0
1, 69312, Note_on_c, 1, 66, 61
1, 69312, Note_on_c, 1, 63, 61
1, 69351, Note_on_c, 1, 66, 0
1, 69351, Note_on_c, 1, 63, 0
1, 69357, Note_on_c, 0, 72, 0
1, 69360, Note_on_c, 0, 72, 71
1, 69405, Note_on_c, 0, 72, 0
1, 69408, Note_on_c, 0, 71, 73
1, 69408, Note_on_c, 1, 66, 62
1, 69408, Note_on_c, 1, 63, 62
1, 69447, Note_on_c, 1, 66, 0
1, 69447, Note_on_c, 1, 63, 0
1, 69453, Note_on_c, 0, 71, 0
1, 69456, Note_on_c, 0, 69, 75
1, 69501, Note_on_c, 0, 69, 0
1, 69504, Note_on_c, 0, 68, 89
1, 69600, Note_on_c, 1, 64, 62
1, 69600, Note_on_c, 1, 62, 62
1, 69648, Note_on_c, 0, 68, 0
1, 69648, Note_on_c, 0, 69, 68
1, 69671, Note_on_c, 0, 69, 0
1, 69672, Note_on_c, 0, 71, 67
1, 69689, Note_on_c, 1, 64, 0
1, 69689, Note_on_c, 1, 62, 0
1, 69695, Note_on_c, 0, 71, 0
1, 69696, Note_on_c, 0, 69, 67
1, 69696, Note_on_c, 1, 64, 60
1, 69696, Note_on_c, 1, 61, 60
1, 69735, Note_on_c, 1, 64, 0
1, 69735, Note_on_c, 1, 61, 0
1, 69785, Note_on_c, 0, 69, 0
1, 69792, Note_on_c, 1, 64, 58
1, 69792, Note_on_c, 1, 61, 58
1, 69831, Note_on_c, 1, 64, 0
1, 69831, Note_on_c, 1, 61, 0
1, 69888, Note_on_c, 0, 69, 64
1, 69906, Note_on_c, 0, 69, 0
1, 69906, Note_on_c, 0, 70, 64
1, 69924, Note_on_c, 0, 70, 0
1, 69924, Note_on_c, 0, 72, 64
1, 69942, Note_on_c, 0, 72, 0
1, 69942, Note_on_c, 0, 70, 80
1, 69984, Note_on_c, 1, 64, 59
1, 69984, Note_on_c, 1, 61, 59
1, 70023, Note_on_c, 1, 64, 0
1, 70023, Note_on_c, 1, 61, 0
1, 70080, Note_on_c, 1, 64, 61
1, 70080, Note_on_c, 1, 61, 61
1, 70119, Note_on_c, 1, 64, 0
1, 70119, Note_on_c, 1, 61, 0
1, 70125, Note_on_c, 0, 70, 0
1, 70128, Note_on_c, 0, 70, 71
1, 70173, Note_on_c, 0, 70, 0
1, 70176, Note_on_c, 0, 69, 73
1, 70176, Note_on_c, 1, 64, 62
1, 70176, Note_on_c, 1, 61, 62
1, 70215, Note_on_c, 1, 64, 0
1, 70215, Note_on_c, 1, 61, 0
1, 70221, Note_on_c, 0, 69, 0
1, 70224, Note_on_c, 0, 67, 75
1, 70269, Note_on_c, 0, 67, 0
1, 70272, Note_on_c, 0, 66, 89
1, 70368, Note_on_c, 1, 63, 61
1, 70368, Note_on_c, 1, 60, 61
1, 70416, Note_on_c, 0, 66, 0
1, 70416, Note_on_c, 0, 67, 67
1, 70439, Note_on_c, 0, 67, 0
1, 70440, Note_on_c, 0, 69, 66
1, 70457, Note_on_c, 1, 63, 0
1, 70457, Note_on_c, 1, 60, 0
1, 70463, Note_on_c, 0, 69, 0
1, 70464, Note_on_c, 0, 67, 65
1, 70464, Note_on_c, 1, 62, 58
1, 70464, Note_on_c, 1, 59, 58
1, 70503, Note_on_c, 1, 62, 0
1, 70503, Note_on_c, 1, 59, 0
1, 70509, Note_on_c, 0, 67, 0
1, 70512, Note_on_c, 0, 79, 80
1, 70512, Note_on_c, 0, 74, 80
1, 70512, Note_on_c, 0, 71, 80
1, 70532, Note_on_c, 0, 79, 0
1, 70532, Note_on_c, 0, 74, 0
1, 70532, Note_on_c, 0, 71, 0
1, 70560, Note_on_c, 0, 78, 65
1, 70560, Note_on_c, 0, 73, 65
1, 70560, Note_on_c, 0, 69, 65
1, 70580, Note_on_c, 0, 78, 0
1, 70580, Note_on_c, 0, 73, 0
1, 70580, Note_on_c, 0, 69, 0
1, 70608, Note_on_c, 0, 76, 66
1, 70608, Note_on_c, 0, 71, 66
1, 70608, Note_on_c, 0, 67, 66
1, 70628, Note_on_c, 0, 76, 0
1, 70628, Note_on_c, 0, 71, 0
1, 70628, Note_on_c, 0, 67, 0
1, 70656, Note_on_c, 0, 74, 68
1, 70656, Note_on_c, 0, 69, 68
1, 70656, Note_on_c, 0, 66, 68
1, 70676, Note_on_c, 0, 74, 0
1, 70676, Note_on_c, 0, 69, 0
1, 70676, Note_on_c, 0, 66, 0
1, 70704, Note_on_c, 0, 73, 69
1, 70704, Note_on_c, 0, 68, 69
1, 70704, Note_on_c, 0, 64, 69
1, 70724, Note_on_c, 0, 73, 0
1, 70724, Note_on_c, 0, 68, 0
1, 70724, Note_on_c, 0, 64, 0
1, 70752, Note_on_c, 0, 71, 71
1, 70752, Note_on_c, 0, 66, 71
1, 70752, Note_on_c, 0, 62, 71
1, 70772, Note_on_c, 0, 71, 0
1, 70772, Note_on_c, 0, 66, 0
1, 70772, Note_on_c, 0, 62, 0
1, 70800, Note_on_c, 0, 69, 72
1, 70800, Note_on_c, 0, 64, 72
1, 70800, Note_on_c, 0, 61, 72
1, 70820, Note_on_c, 0, 69, 0
1, 70820, Note_on_c, 0, 64, 0
1, 70820, Note_on_c, 0, 61, 0
1, 70848, Note_on_c, 0, 67, 74
1, 70848, Note_on_c, 0, 62, 74
1, 70848, Note_on_c, 0, 59, 74
1, 70868, Note_on_c, 0, 67, 0
1, 70868, Note_on_c, 0, 62, 0
1, 70868, Note_on_c, 0, 59, 0
1, 70896, Note_on_c, 0, 66, 75
1, 70896, Note_on_c, 0, 61, 75
1, 70896, Note_on_c, 0, 57, 75
1, 70916, Note_on_c, 0, 66, 0
1, 70916, Note_on_c, 0, 61, 0
1, 70916, Note_on_c, 0, 57, 0
1, 70944, Note_on_c, 0, 64, 77
1, 70944, Note_on_c, 0, 59, 77
1, 70944, Note_on_c, 0, 55, 77
1, 70964, Note_on_c, 0, 64, 0
1, 70964, Note_on_c, 0, 59, 0
1, 70964, Note_on_c, 0, 55, 0
1, 70992, Note_on_c, 0, 62, 78
1, 70992, Note_on_c, 0, 57, 78
1, 70992, Note_on_c, 0, 54, 78
1, 71012, Note_on_c, 0, 62, 0
1, 71012, Note_on_c, 0, 57, 0
1, 71012, Note_on_c, 0, 54, 0
1, 71040, Note_on_c, 0, 68, 80
1, 71040, Note_on_c, 1, 56, 80
1, 71063, Note_on_c, 0, 68, 0
1, 71063, Note_on_c, 1, 56, 0
1, 71064, Note_on_c, 0, 69, 80
1, 71064, Note_on_c, 1, 57, 80
1, 71087, Note_on_c, 0, 69, 0
1, 71087, Note_on_c, 1, 57, 0
1, 71088, Note_on_c, 0, 68, 80
1, 71088, Note_on_c, 1, 56, 80
1, 71111, Note_on_c, 0, 68, 0
1, 71111, Note_on_c, 1, 56, 0
1, 71112, Note_on_c, 0, 69, 80
1, 71112, Note_on_c, 1, 57, 80
1, 71135, Note_on_c, 0, 69, 0
1, 71135, Note_on_c, 1, 57, 0
1, 71136, Note_on_c, 0, 57, 80
1, 71136, Note_on_c, 1, 45, 80
1, 71175, Note_on_c, 0, 57, 0
1, 71175, Note_on_c, 1, 45, 0
1, 71424, Note_on_c, 0, 75, 64
1, 71444, Note_on_c, 0, 75, 0
1, 71472, Note_on_c, 0, 78, 64
1, 71495, Note_on_c, 0, 78, 0
1, 71496, Note_on_c, 0, 76, 64
1, 71519, Note_on_c, 0, 76, 0
1, 71520, Note_on_c, 0, 75, 64
1, 71543, Note_on_c, 0, 75, 0
1, 71544, Note_on_c, 0, 76, 64
1, 71567, Note_on_c, 0, 76, 0
1, 71568, Note_on_c, 0, 76, 64
1, 71588, Note_on_c, 0, 76, 0
1, 71808, Note_on_c, 0, 57, 80
1, 71808, Note_on_c, 1, 52, 80
1, 71808, Note_on_c, 1, 49, 80
1, 71808, Note_on_c, 1, 45, 80
1, 71838, Note_on_c, 0, 57, 0
1, 71840, Note_on_c, 0, 64, 80
1, 71870, Note_on_c, 0, 64, 0
1, 71872, Note_on_c, 0, 61, 80
1, 71902, Note_on_c, 0, 61, 0
1, 71904, Note_on_c, 0, 69, 81
1, 71934, Note_on_c, 0, 69, 0
1, 71936, Note_on_c, 0, 64, 81
1, 71966, Note_on_c, 0, 64, 0
1, 71968, Note_on_c, 0, 73, 82
1, 71998, Note_on_c, 0, 73, 0
1, 72000, Note_on_c, 0, 69, 82
1, 72030, Note_on_c, 0, 69, 0
1, 72032, Note_on_c, 0, 76, 83
1, 72062, Note_on_c, 0, 76, 0
1, 72064, Note_on_c, 0, 73, 83
1, 72073, Note_on_c, 1, 52, 0
1, 72073, Note_on_c, 1, 49, 0
1, 72073, Note_on_c, 1, 45, 0
1, 72094, Note_on_c, 0, 73, 0
1, 72096, Note_on_c, 0, 81, 84
1, 72126, Note_on_c, 0, 81, 0
1, 72128, Note_on_c, 0, 76, 84
1, 72158, Note_on_c, 0, 76, 0
1, 72160, Note_on_c, 0, 85, 85
1, 72190, Note_on_c, 0, 85, 0
1, 72192, Note_on_c, 0, 83, 101
1, 72224, Note_on_c, 0, 83, 0
1, 72224, Note_on_c, 0, 81, 85
1, 72254, Note_on_c, 0, 81, 0
1, 72256, Note_on_c, 0, 80, 85
1, 72286, Note_on_c, 0, 80, 0
1, 72288, Note_on_c, 0, 78, 84
1, 72318, Note_on_c, 0, 78, 0
1, 72320, Note_on_c, 0, 76, 84
1, 72350, Note_on_c, 0, 76, 0
1, 72352, Note_on_c, 0, 74, 84
1, 72382, Note_on_c, 0, 74, 0
1, 72384, Note_on_c, 0, 73, 83
1, 72414, Note_on_c, 0, 73, 0
1, 72416, Note_on_c, 0, 71, 83
1, 72446, Note_on_c, 0, 71, 0
1, 72448, Note_on_c, 0, 69, 82
1, 72478, Note_on_c, 0, 69, 0
1, 72480, Note_on_c, 0, 68, 82
1, 72510, Note_on_c, 0, 68, 0
1, 72512, Note_on_c, 0, 66, 81
1, 72542, Note_on_c, 0, 66, 0
1, 72544, Note_on_c, 0, 64, 81
1, 72574, Note_on_c, 0, 64, 0
1, 72576, Note_on_c, 0, 62, 80
1, 72576, Note_on_c, 0, 59, 80
1, 72576, Note_on_c, 0, 56, 80
1, 72576, Note_on_c, 1, 40, 80
1, 72606, Note_on_c, 1, 40, 0
1, 72608, Note_on_c, 1, 47, 80
1, 72638, Note_on_c, 1, 47, 0
1, 72640, Note_on_c, 1, 44, 80
1, 72670, Note_on_c, 1, 44, 0
1, 72672, Note_on_c, 1, 50, 80
1, 72702, Note_on_c, 1, 50, 0
1, 72704, Note_on_c, 1, 47, 80
1, 72734, Note_on_c, 1, 47, 0
1, 72736, Note_on_c, 1, 56, 80
1, 72766, Note_on_c, 1, 56, 0
1, 72768, Note_on_c, 1, 52, 80
1, 72798, Note_on_c, 1, 52, 0
1, 72800, Note_on_c, 1, 59, 80
1, 72830, Note_on_c, 1, 59, 0
1, 72832, Note_on_c, 1, 56, 80
1, 72841, Note_on_c, 0, 62, 0
1, 72841, Note_on_c, 0, 59, 0
1, 72841, Note_on_c, 0, 56, 0
1, 72862, Note_on_c, 1, 56, 0
1, 72864, Note_on_c, 1, 66, 80
1, 72894, Note_on_c, 1, 66, 0
1, 72896, Note_on_c, 1, 64, 80
1, 72926, Note_on_c, 1, 64, 0
1, 72928, Note_on_c, 1, 62, 80
1, 72958, Note_on_c, 1, 62, 0
1, 72960, Note_on_c, 1, 61, 80
1, 72983, Note_on_c, 1, 61, 0
1, 72984, Note_on_c, 1, 59, 80
1, 73007, Note_on_c, 1, 59, 0
1, 73008, Note_on_c, 1, 57, 80
1, 73031, Note_on_c, 1, 57, 0
1, 73032, Note_on_c, 1, 56, 80
1, 73055, Note_on_c, 1, 56, 0
1, 73056, Note_on_c, 1, 53, 96
1, 73088, Note_on_c, 0, 68, 80
1, 73118, Note_on_c, 0, 68, 0
1, 73120, Note_on_c, 0, 71, 80
1, 73150, Note_on_c, 0, 71, 0
1, 73152, Note_on_c, 0, 68, 80
1, 73182, Note_on_c, 0, 68, 0
1, 73184, Note_on_c, 0, 74, 80
1, 73211, Note_on_c, 1, 53, 0
1, 73214, Note_on_c, 0, 74, 0
1, 73216, Note_on_c, 0, 71, 80
1, 73216, Note_on_c, 1, 47, 80
1, 73246, Note_on_c, 0, 71, 0
1, 73246, Note_on_c, 1, 47, 0
1, 73248, Note_on_c, 0, 80, 76
1, 73248, Note_on_c, 1, 56, 76
1, 73278, Note_on_c, 0, 80, 0
1, 73278, Note_on_c, 1, 56, 0
1, 73280, Note_on_c, 0, 74, 72
1, 73280, Note_on_c, 1, 50, 72
1, 73310, Note_on_c, 0, 74, 0
1, 73310, Note_on_c, 1, 50, 0
1, 73312, Note_on_c, 0, 83, 69
1, 73312, Note_on_c, 1, 59, 69
1, 73342, Note_on_c, 0, 83, 0
1, 73342, Note_on_c, 1, 59, 0
1, 73344, Note_on_c, 0, 82, 80
1, 73344, Note_on_c, 1, 78, 80
1, 73344, Note_on_c, 1, 76, 80
1, 73374, Note_on_c, 0, 82, 0
1, 73376, Note_on_c, 0, 83, 79
1, 73406, Note_on_c, 0, 83, 0
1, 73408, Note_on_c, 0, 85, 79
1, 73433, Note_on_c, 1, 76, 0
1, 73438, Note_on_c, 0, 85, 0
1, 73440, Note_on_c, 0, 83, 78
1, 73440, Note_on_c, 1, 74, 78
1, 73470, Note_on_c, 0, 83, 0
1, 73472, Note_on_c, 0, 85, 78
1, 73502, Note_on_c, 0, 85, 0
1, 73504, Note_on_c, 0, 86, 78
1, 73521, Note_on_c, 1, 78, 0
1, 73529, Note_on_c, 1, 74, 0
1, 73534, Note_on_c, 0, 86, 0
1, 73536, Note_on_c, 0, 80, 77
1, 73536, Note_on_c, 1, 76, 77
1, 73536, Note_on_c, 1, 74, 77
1, 73566, Note_on_c, 0, 80, 0
1, 73568, Note_on_c, 0, 81, 77
1, 73598, Note_on_c, 0, 81, 0
1, 73600, Note_on_c, 0, 83, 76
1, 73625, Note_on_c, 1, 74, 0
1, 73630, Note_on_c, 0, 83, 0
1, 73632, Note_on_c, 0, 81, 76
1, 73632, Note_on_c, 1, 73, 76
1, 73662, Note_on_c, 0, 81, 0
1, 73664, Note_on_c, 0, 83, 76
1, 73694, Note_on_c, 0, 83, 0
1, 73696, Note_on_c, 0, 85, 75
1, 73713, Note_on_c, 1, 76, 0
1, 73721, Note_on_c, 1, 73, 0
1, 73726, Note_on_c, 0, 85, 0
1, 73728, Note_on_c, 0, 78, 75
1, 73728, Note_on_c, 1, 74, 75
1, 73728, Note_on_c, 1, 73, 75
1, 73758, Note_on_c, 0, 78, 0
1, 73760, Note_on_c, 0, 80, 74
1, 73790, Note_on_c, 0, 80, 0
1, 73792, Note_on_c, 0, 81, 74
1, 73817, Note_on_c, 1, 73, 0
1, 73822, Note_on_c, 0, 81, 0
1, 73824, Note_on_c, 0, 80, 74
1, 73824, Note_on_c, 1, 71, 73
1, 73854, Note_on_c, 0, 80, 0
1, 73856, Note_on_c, 0, 81, 73
1, 73886, Note_on_c, 0, 81, 0
1, 73888, Note_on_c, 0, 83, 73
1, 73905, Note_on_c, 1, 74, 0
1, 73913, Note_on_c, 1, 71, 0
1, 73918, Note_on_c, 0, 83, 0
1, 73920, Note_on_c, 0, 77, 72
1, 73920, Note_on_c, 1, 73, 72
1, 73920, Note_on_c, 1, 71, 72
1, 73950, Note_on_c, 0, 77, 0
1, 73952, Note_on_c, 0, 78, 72
1, 73982, Note_on_c, 0, 78, 0
1, 73984, Note_on_c, 0, 80, 72
1, 74009, Note_on_c, 1, 71, 0
1, 74014, Note_on_c, 0, 80, 0
1, 74016, Note_on_c, 0, 78, 71
1, 74016, Note_on_c, 1, 69, 71
1, 74046, Note_on_c, 0, 78, 0
1, 74048, Note_on_c, 0, 80, 71
1, 74078, Note_on_c, 0, 80, 0
1, 74080, Note_on_c, 0, 81, 71
1, 74097, Note_on_c, 1, 73, 0
1, 74105, Note_on_c, 1, 69, 0
1, 74110, Note_on_c, 0, 81, 0
1, 74112, Note_on_c, 0, 76, 70
1, 74131, Note_on_c, 0, 76, 0
1, 74132, Note_on_c, 0, 75, 70
1, 74151, Note_on_c, 0, 75, 0
1, 74152, Note_on_c, 0, 76, 70
1, 74160, Note_on_c, 1, 72, 70
1, 74160, Note_on_c, 1, 69, 70
1, 74170, Note_on_c, 0, 76, 0
1, 74171, Note_on_c, 0, 75, 70
1, 74189, Note_on_c, 0, 75, 0
1, 74190, Note_on_c, 0, 76, 70
1, 74205, Note_on_c, 1, 72, 0
1, 74205, Note_on_c, 1, 69, 0
1, 74208, Note_on_c, 0, 76, 0
1, 74208, Note_on_c, 1, 71, 70
1, 74208, Note_on_c, 1, 68, 70
1, 74209, Note_on_c, 0, 75, 70
1, 74227, Note_on_c, 0, 75, 0
1, 74228, Note_on_c, 0, 76, 70
1, 74246, Note_on_c, 0, 76, 0
1, 74247, Note_on_c, 0, 75, 70
1, 74253, Note_on_c, 1, 71, 0
1, 74253, Note_on_c, 1, 68, 0
1, 74256, Note_on_c, 1, 69, 70
1, 74256, Note_on_c, 1, 66, 70
1, 74265, Note_on_c, 0, 75, 0
1, 74266, Note_on_c, 0, 73, 70
1, 74284, Note_on_c, 0, 73, 0
1, 74285, Note_on_c, 0, 75, 70
1, 74301, Note_on_c, 1, 69, 0
1, 74301, Note_on_c, 1, 66, 0
1, 74304, Note_on_c, 0, 75, 0
1, 74304, Note_on_c, 0, 76, 70
1, 74304, Note_on_c, 1, 68, 70
1, 74304, Note_on_c, 1, 64, 70
1, 74349, Note_on_c, 0, 76, 0
1, 74349, Note_on_c, 1, 68, 0
1, 74349, Note_on_c, 1, 64, 0
1, 74352, Note_on_c, 0, 76, 64
1, 74372, Note_on_c, 0, 76, 0
1, 74400, Note_on_c, 0, 76, 64
1, 74420, Note_on_c, 0, 76, 0
1, 74448, Note_on_c, 0, 76, 64
1, 74468, Note_on_c, 0, 76, 0
1, 74496, Note_on_c, 0, 76, 64
1, 74516, Note_on_c, 0, 76, 0
1, 74544, Note_on_c, 0, 76, 64
1, 74564, Note_on_c, 0, 76, 0
1, 74592, Note_on_c, 0, 76, 64
1, 74612, Note_on_c, 0, 76, 0
1, 74640, Note_on_c, 0, 76, 64
1, 74660, Note_on_c, 0, 76, 0
1, 74688, Note_on_c, 0, 77, 64
1, 74688, Note_on_c, 0, 76, 64
1, 74708, Note_on_c, 0, 77, 0
1, 74736, Note_on_c, 0, 77, 64
1, 74756, Note_on_c, 0, 77, 0
1, 74784, Note_on_c, 0, 77, 65
1, 74804, Note_on_c, 0, 77, 0
1, 74832, Note_on_c, 0, 77, 66
1, 74852, Note_on_c, 0, 77, 0
1, 74880, Note_on_c, 0, 77, 66
1, 74880, Note_on_c, 0, 76, 0
1, 74880, Note_on_c, 0, 74, 66
1, 74900, Note_on_c, 0, 77, 0
1, 74919, Note_on_c, 0, 74, 0
1, 74928, Note_on_c, 0, 77, 67
1, 74948, Note_on_c, 0, 77, 0
1, 74976, Note_on_c, 0, 77, 68
1, 74996, Note_on_c, 0, 77, 0
1, 75024, Note_on_c, 0, 77, 68
1, 75044, Note_on_c, 0, 77, 0
1, 75072, Note_on_c, 0, 80, 69
1, 75072, Note_on_c, 0, 74, 69
1, 75072, Note_on_c, 0, 71, 69
1, 75072, Note_on_c, 1, 50, 67
1, 75072, Note_on_c, 1, 38, 67
1, 75092, Note_on_c, 0, 80, 0
1, 75092, Note_on_c, 0, 74, 0
1, 75092, Note_on_c, 0, 71, 0
1, 75120, Note_on_c, 0, 80, 70
1, 75120, Note_on_c, 0, 74, 70
1, 75120, Note_on_c, 0, 71, 70
1, 75140, Note_on_c, 0, 80, 0
1, 75140, Note_on_c, 0, 74, 0
1, 75140, Note_on_c, 0, 71, 0
1, 75168, Note_on_c, 0, 80, 70
1, 75168, Note_on_c, 0, 74, 70
1, 75168, Note_on_c, 0, 71, 70
1, 75188, Note_on_c, 0, 80, 0
1, 75188, Note_on_c, 0, 74, 0
1, 75188, Note_on_c, 0, 71, 0
1, 75216, Note_on_c, 0, 80, 71
1, 75216, Note_on_c, 0, 74, 71
1, 75216, Note_on_c, 0, 71, 71
1, 75236, Note_on_c, 0, 80, 0
1, 75236, Note_on_c, 0, 74, 0
1, 75236, Note_on_c, 0, 71, 0
1, 75264, Note_on_c, 0, 81, 72
1, 75264, Note_on_c, 0, 76, 72
1, 75264, Note_on_c, 0, 69, 72
1, 75264, Note_on_c, 1, 50, 0
1, 75264, Note_on_c, 1, 38, 0
1, 75264, Note_on_c, 1, 48, 70
1, 75264, Note_on_c, 1, 36, 70
1, 75284, Note_on_c, 0, 81, 0
1, 75284, Note_on_c, 0, 76, 0
1, 75284, Note_on_c, 0, 69, 0
1, 75303, Note_on_c, 1, 48, 0
1, 75303, Note_on_c, 1, 36, 0
1, 75312, Note_on_c, 0, 81, 72
1, 75312, Note_on_c, 0, 76, 72
1, 75312, Note_on_c, 0, 69, 72
1, 75332, Note_on_c, 0, 81, 0
1, 75332, Note_on_c, 0, 76, 0
1, 75332, Note_on_c, 0, 69, 0
1, 75360, Note_on_c, 0, 81, 73
1, 75360, Note_on_c, 0, 76, 73
1, 75360, Note_on_c, 0, 69, 73
1, 75380, Note_on_c, 0, 81, 0
1, 75380, Note_on_c, 0, 76, 0
1, 75380, Note_on_c, 0, 69, 0
1, 75408, Note_on_c, 0, 81, 74
1, 75408, Note_on_c, 0, 76, 74
1, 75408, Note_on_c, 0, 69, 74
1, 75428, Note_on_c, 0, 81, 0
1, 75428, Note_on_c, 0, 76, 0
1, 75428, Note_on_c, 0, 69, 0
1, 75456, Note_on_c, 0, 74, 74
1, 75456, Note_on_c, 0, 71, 74
1, 75456, Note_on_c, 0, 68, 74
1, 75456, Note_on_c, 1, 44, 73
1, 75456, Note_on_c, 1, 32, 73
1, 75476, Note_on_c, 0, 74, 0
1, 75476, Note_on_c, 0, 71, 0
1, 75476, Note_on_c, 0, 68, 0
1, 75504, Note_on_c, 0, 74, 75
1, 75504, Note_on_c, 0, 71, 75
1, 75504, Note_on_c, 0, 68, 75
1, 75524, Note_on_c, 0, 74, 0
1, 75524, Note_on_c, 0, 71, 0
1, 75524, Note_on_c, 0, 68, 0
1, 75552, Note_on_c, 0, 74, 76
1, 75552, Note_on_c, 0, 71, 76
1, 75552, Note_on_c, 0, 68, 76
1, 75572, Note_on_c, 0, 74, 0
1, 75572, Note_on_c, 0, 71, 0
1, 75572, Note_on_c, 0, 68, 0
1, 75600, Note_on_c, 0, 74, 76
1, 75600, Note_on_c, 0, 71, 76
1, 75600, Note_on_c, 0, 68, 76
1, 75620, Note_on_c, 0, 74, 0
1, 75620, Note_on_c, 0, 71, 0
1, 75620, Note_on_c, 0, 68, 0
1, 75648, Note_on_c, 0, 72, 77
1, 75648, Note_on_c, 0, 71, 77
1, 75648, Note_on_c, 1, 44, 0
1, 75648, Note_on_c, 1, 32, 0
1, 75648, Note_on_c, 1, 45, 76
1, 75648, Note_on_c, 1, 33, 76
1, 75668, Note_on_c, 0, 72, 0
1, 75668, Note_on_c, 0, 71, 0
1, 75687, Note_on_c, 1, 45, 0
1, 75687, Note_on_c, 1, 33, 0
1, 75696, Note_on_c, 0, 72, 78
1, 75696, Note_on_c, 0, 71, 78
1, 75716, Note_on_c, 0, 72, 0
1, 75716, Note_on_c, 0, 71, 0
1, 75744, Note_on_c, 0, 72, 78
1, 75744, Note_on_c, 0, 69, 78
1, 75764, Note_on_c, 0, 72, 0
1, 75764, Note_on_c, 0, 69, 0
1, 75792, Note_on_c, 0, 72, 79
1, 75792, Note_on_c, 0, 69, 79
1, 75812, Note_on_c, 0, 72, 0
1, 75812, Note_on_c, 0, 69, 0
1, 75840, Note_on_c, 0, 75, 80
1, 75840, Note_on_c, 0, 72, 80
1, 75840, Note_on_c, 0, 69, 80
1, 75840, Note_on_c, 1, 53, 80
1, 75840, Note_on_c, 1, 41, 80
1, 75860, Note_on_c, 0, 75, 0
1, 75860, Note_on_c, 0, 72, 0
1, 75860, Note_on_c, 0, 69, 0
1, 75888, Note_on_c, 0, 75, 77
1, 75888, Note_on_c, 0, 72, 77
1, 75888, Note_on_c, 0, 69, 77
1, 75908, Note_on_c, 0, 75, 0
1, 75908, Note_on_c, 0, 72, 0
1, 75908, Note_on_c, 0, 69, 0
1, 75936, Note_on_c, 0, 75, 74
1, 75936, Note_on_c, 0, 72, 74
1, 75936, Note_on_c, 0, 69, 74
1, 75956, Note_on_c, 0, 75, 0
1, 75956, Note_on_c, 0, 72, 0
1, 75956, Note_on_c, 0, 69, 0
1, 75984, Note_on_c, 0, 75, 72
1, 75984, Note_on_c, 0, 72, 72
1, 75984, Note_on_c, 0, 69, 72
1, 76004, Note_on_c, 0, 75, 0
1, 76004, Note_on_c, 0, 72, 0
1, 76004, Note_on_c, 0, 69, 0
1, 76032, Note_on_c, 0, 76, 69
1, 76032, Note_on_c, 0, 71, 69
1, 76032, Note_on_c, 0, 68, 69
1, 76032, Note_on_c, 1, 53, 0
1, 76032, Note_on_c, 1, 41, 0
1, 76032, Note_on_c, 1, 52, 69
1, 76032, Note_on_c, 1, 40, 69
1, 76121, Note_on_c, 0, 76, 0
1, 76121, Note_on_c, 0, 71, 0
1, 76121, Note_on_c, 0, 68, 0
1, 76121, Note_on_c, 1, 52, 0
1, 76121, Note_on_c, 1, 40, 0
1, 76416, Note_on_c, 0, 67, 96
1, 76416, Note_on_c, 0, 64, 96
1, 76416, Note_on_c, 1, 49, 80
1, 76439, Note_on_c, 1, 49, 0
1, 76440, Note_on_c, 1, 50, 80
1, 76463, Note_on_c, 1, 50, 0
1, 76464, Note_on_c, 1, 49, 80
1, 76487, Note_on_c, 1, 49, 0
1, 76488, Note_on_c, 1, 50, 80
1, 76511, Note_on_c, 1, 50, 0
1, 76512, Note_on_c, 0, 67, 0
1, 76512, Note_on_c, 0, 64, 0
1, 76512, Note_on_c, 0, 66, 80
1, 76512, Note_on_c, 0, 62, 80
1, 76512, Note_on_c, 1, 50, 80
1, 76532, Note_on_c, 1, 50, 0
1, 76551, Note_on_c, 0, 66, 0
1, 76551, Note_on_c, 0, 62, 0
1, 76608, Note_on_c, 0, 65, 96
1, 76608, Note_on_c, 0, 62, 96
1, 76608, Note_on_c, 1, 56, 80
1, 76631, Note_on_c, 1, 56, 0
1, 76632, Note_on_c, 1, 57, 80
1, 76655, Note_on_c, 1, 57, 0
1, 76656, Note_on_c, 1, 56, 80
1, 76679, Note_on_c, 1, 56, 0
1, 76680, Note_on_c, 1, 57, 80
1, 76703, Note_on_c, 1, 57, 0
1, 76704, Note_on_c, 0, 65, 0
1, 76704, Note_on_c, 0, 62, 0
1, 76704, Note_on_c, 0, 64, 80
1, 76704, Note_on_c, 0, 61, 80
1, 76704, Note_on_c, 1, 57, 80
1, 76724, Note_on_c, 1, 57, 0
1, 76743, Note_on_c, 0, 64, 0
1, 76743, Note_on_c, 0, 61, 0
1, 76800, Note_on_c, 0, 81, 96
1, 76800, Note_on_c, 0, 78, 96
1, 76800, Note_on_c, 1, 51, 80
1, 76823, Note_on_c, 1, 51, 0
1, 76824, Note_on_c, 1, 52, 80
1, 76847, Note_on_c, 1, 52, 0
1, 76848, Note_on_c, 1, 51, 80
1, 76871, Note_on_c, 1, 51, 0
1, 76872, Note_on_c, 1, 52, 80
1, 76895, Note_on_c, 1, 52, 0
1, 76896, Note_on_c, 0, 81, 0
1, 76896, Note_on_c, 0, 78, 0
1, 76896, Note_on_c, 0, 80, 80
1, 76896, Note_on_c, 0, 76, 80
1, 76896, Note_on_c, 1, 52, 80
1, 76916, Note_on_c, 1, 52, 0
1, 76935, Note_on_c, 0, 80, 0
1, 76935, Note_on_c, 0, 76, 0
1, 76992, Note_on_c, 0, 74, 96
1, 76992, Note_on_c, 0, 71, 96
1, 76992, Note_on_c, 1, 44, 80
1, 77015, Note_on_c, 1, 44, 0
1, 77016, Note_on_c, 1, 45, 80
1, 77039, Note_on_c, 1, 45, 0
1, 77040, Note_on_c, 1, 44, 80
1, 77063, Note_on_c, 1, 44, 0
1, 77064, Note_on_c, 1, 45, 80
1, 77087, Note_on_c, 1, 45, 0
1, 77088, Note_on_c, 0, 74, 0
1, 77088, Note_on_c, 0, 71, 0
1, 77088, Note_on_c, 0, 73, 80
1, 77088, Note_on_c, 0, 69, 80
1, 77088, Note_on_c, 1, 45, 80
1, 77103, Note_on_c, 0, 73, 0
1, 77103, Note_on_c, 0, 69, 0
1, 77108, Note_on_c, 1, 45, 0
1, 77160, Note_on_c, 0, 74, 80
1, 77172, Note_on_c, 0, 74, 0
1, 77172, Note_on_c, 0, 76, 80
1, 77184, Note_on_c, 0, 76, 0
1, 77184, Note_on_c, 0, 78, 102
1, 77184, Note_on_c, 1, 38, 80
1, 77232, Note_on_c, 0, 78, 0
1, 77232, Note_on_c, 0, 76, 86
1, 77252, Note_on_c, 0, 76, 0
1, 77280, Note_on_c, 0, 74, 86
1, 77300, Note_on_c, 0, 74, 0
1, 77328, Note_on_c, 0, 73, 86
1, 77348, Note_on_c, 0, 73, 0
1, 77361, Note_on_c, 1, 38, 0
1, 77376, Note_on_c, 0, 71, 86
1, 77396, Note_on_c, 0, 71, 0
1, 77424, Note_on_c, 0, 69, 86
1, 77444, Note_on_c, 0, 69, 0
1, 77472, Note_on_c, 0, 68, 86
1, 77492, Note_on_c, 0, 68, 0
1, 77520, Note_on_c, 0, 66, 86
1, 77540, Note_on_c, 0, 66, 0
1, 77568, Note_on_c, 0, 64, 80
1, 77568, Note_on_c, 1, 52, 80
1, 77588, Note_on_c, 0, 64, 0
1, 77588, Note_on_c, 1, 52, 0
1, 77616, Note_on_c, 0, 62, 78
1, 77616, Note_on_c, 1, 50, 78
1, 77636, Note_on_c, 0, 62, 0
1, 77636, Note_on_c, 1, 50, 0
1, 77664, Note_on_c, 0, 61, 77
1, 77664, Note_on_c, 1, 49, 77
1, 77684, Note_on_c, 0, 61, 0
1, 77684, Note_on_c, 1, 49, 0
1, 77712, Note_on_c, 0, 59, 76
1, 77712, Note_on_c, 1, 47, 76
1, 77732, Note_on_c, 0, 59, 0
1, 77732, Note_on_c, 1, 47, 0
1, 77760, Note_on_c, 0, 57, 75
1, 77760, Note_on_c, 1, 45, 75
1, 77780, Note_on_c, 0, 57, 0
1, 77780, Note_on_c, 1, 45, 0
1, 77808, Note_on_c, 0, 56, 73
1, 77808, Note_on_c, 1, 44, 73
1, 77828, Note_on_c, 0, 56, 0
1, 77828, Note_on_c, 1, 44, 0
1, 77856, Note_on_c, 0, 54, 72
1, 77856, Note_on_c, 1, 42, 72
1, 77876, Note_on_c, 0, 54, 0
1, 77876, Note_on_c, 1, 42, 0
1, 77904, Note_on_c, 0, 52, 71
1, 77904, Note_on_c, 1, 40, 71
1, 77924, Note_on_c, 0, 52, 0
1, 77924, Note_on_c, 1, 40, 0
1, 77952, Note_on_c, 0, 66, 64
1, 77952, Note_on_c, 0, 62, 64
1, 77952, Note_on_c, 0, 57, 64
1, 77952, Note_on_c, 1, 50, 64
1, 77991, Note_on_c, 0, 66, 0
1, 77991, Note_on_c, 0, 62, 0
1, 77991, Note_on_c, 0, 57, 0
1, 78041, Note_on_c, 1, 50, 0
1, 78144, Note_on_c, 0, 68, 64
1, 78144, Note_on_c, 0, 64, 64
1, 78144, Note_on_c, 0, 62, 64
1, 78144, Note_on_c, 0, 59, 64
1, 78144, Note_on_c, 1, 52, 64
1, 78183, Note_on_c, 0, 68, 0
1, 78183, Note_on_c, 0, 64, 0
1, 78183, Note_on_c, 0, 62, 0
1, 78183, Note_on_c, 0, 59, 0
1, 78233, Note_on_c, 1, 52, 0
1, 78336, Note_on_c, 0, 61, 80
1, 78336, Note_on_c, 1, 57, 64
1, 78336, Note_on_c, 1, 45, 64
1, 78360, Note_on_c, 0, 61, 0
1, 78360, Note_on_c, 0, 57, 80
1, 78383, Note_on_c, 0, 57, 0
1, 78384, Note_on_c, 0, 64, 80
1, 78394, Note_on_c, 0, 64, 0
1, 78408, Note_on_c, 0, 64, 80
1, 78418, Note_on_c, 0, 64, 0
1, 78425, Note_on_c, 1, 57, 0
1, 78425, Note_on_c, 1, 45, 0
1, 78432, Note_on_c, 0, 64, 81
1, 78456, Note_on_c, 0, 64, 0
1, 78456, Note_on_c, 0, 61, 81
1, 78479, Note_on_c, 0, 61, 0
1, 78480, Note_on_c, 0, 69, 81
1, 78490, Note_on_c, 0, 69, 0
1, 78504, Note_on_c, 0, 69, 81
1, 78514, Note_on_c, 0, 69, 0
1, 78528, Note_on_c, 0, 69, 82
1, 78552, Note_on_c, 0, 69, 0
1, 78552, Note_on_c, 0, 64, 82
1, 78575, Note_on_c, 0, 64, 0
1, 78576, Note_on_c, 0, 73, 82
1, 78586, Note_on_c, 0, 73, 0
1, 78600, Note_on_c, 0, 73, 82
1, 78610, Note_on_c, 0, 73, 0
1, 78624, Note_on_c, 0, 73, 83
1, 78648, Note_on_c, 0, 73, 0
1, 78648, Note_on_c, 0, 69, 83
1, 78671, Note_on_c, 0, 69, 0
1, 78672, Note_on_c, 0, 76, 83
1, 78682, Note_on_c, 0, 76, 0
1, 78696, Note_on_c, 0, 76, 83
1, 78706, Note_on_c, 0, 76, 0
1, 78720, Note_on_c, 0, 76, 84
1, 78720, Note_on_c, 1, 52, 80
1, 78744, Note_on_c, 0, 76, 0
1, 78744, Note_on_c, 0, 73, 84
1, 78744, Note_on_c, 1, 52, 0
1, 78744, Note_on_c, 1, 49, 80
1, 78767, Note_on_c, 0, 73, 0
1, 78767, Note_on_c, 1, 49, 0
1, 78768, Note_on_c, 0, 81, 84
1, 78768, Note_on_c, 1, 57, 81
1, 78778, Note_on_c, 0, 81, 0
1, 78778, Note_on_c, 1, 57, 0
1, 78792, Note_on_c, 0, 81, 84
1, 78792, Note_on_c, 1, 57, 81
1, 78802, Note_on_c, 0, 81, 0
1, 78802, Note_on_c, 1, 57, 0
1, 78816, Note_on_c, 0, 81, 85
1, 78816, Note_on_c, 1, 57, 82
1, 78840, Note_on_c, 0, 81, 0
1, 78840, Note_on_c, 0, 76, 85
1, 78840, Note_on_c, 1, 57, 0
1, 78840, Note_on_c, 1, 52, 82
1, 78863, Note_on_c, 0, 76, 0
1, 78863, Note_on_c, 1, 52, 0
1, 78864, Note_on_c, 0, 85, 85
1, 78864, Note_on_c, 1, 61, 83
1, 78874, Note_on_c, 0, 85, 0
1, 78874, Note_on_c, 1, 61, 0
1, 78888, Note_on_c, 0, 85, 85
1, 78888, Note_on_c, 1, 61, 83
1, 78898, Note_on_c, 0, 85, 0
1, 78898, Note_on_c, 1, 61, 0
1, 78912, Note_on_c, 0, 85, 86
1, 78912, Note_on_c, 1, 61, 84
1, 78951, Note_on_c, 0, 85, 0
1, 78951, Note_on_c, 1, 61, 0
1, 79104, Note_on_c, 0, 80, 64
1, 79104, Note_on_c, 1, 74, 64
1, 79127, Note_on_c, 0, 80, 0
1, 79128, Note_on_c, 0, 78, 64
1, 79143, Note_on_c, 1, 74, 0
1, 79151, Note_on_c, 0, 78, 0
1, 79152, Note_on_c, 0, 80, 64
1, 79175, Note_on_c, 0, 80, 0
1, 79176, Note_on_c, 0, 76, 64
1, 79199, Note_on_c, 0, 76, 0
1, 79200, Note_on_c, 0, 81, 64
1, 79200, Note_on_c, 1, 73, 64
1, 79239, Note_on_c, 0, 81, 0
1, 79239, Note_on_c, 1, 73, 0
1, 79488, Note_on_c, 0, 68, 80
1, 79488, Note_on_c, 0, 62, 80
1, 79488, Note_on_c, 1, 52, 80
1, 79488, Note_on_c, 1, 40, 80
1, 79511, Note_on_c, 0, 68, 0
1, 79512, Note_on_c, 0, 66, 80
1, 79535, Note_on_c, 0, 66, 0
1, 79536, Note_on_c, 0, 68, 80
1, 79559, Note_on_c, 0, 68, 0
1, 79560, Note_on_c, 0, 64, 80
1, 79577, Note_on_c, 0, 62, 0
1, 79577, Note_on_c, 1, 52, 0
1, 79577, Note_on_c, 1, 40, 0
1, 79583, Note_on_c, 0, 64, 0
1, 79584, Note_on_c, 0, 69, 80
1, 79584, Note_on_c, 0, 61, 80
1, 79584, Note_on_c, 1, 45, 80
1, 79584, Note_on_c, 1, 33, 80
1, 79673, Note_on_c, 0, 69, 0
1, 79673, Note_on_c, 0, 61, 0
1, 79673, Note_on_c, 1, 45, 0
1, 79673, Note_on_c, 1, 33, 0
1, 79872, Note_on_c, 1, 45, 0
1, 79961, Note_on_c, 1, 45, 0
1, 79971, End_track
0, 0, End_of_file