0, 0, Header, 0, 1, 96
1, 0, Start_track
1, 0, Tempo, 120000
1, 192, Tempo, 444444
1, 192, Note_on_c, 0, 70, 70
1, 288, Note_on_c, 0, 70, 0
1, 288, Note_on_c, 0, 75, 70
1, 288, Note_on_c, 1, 63, 58
1, 308, Note_on_c, 0, 75, 0
1, 336, Note_on_c, 1, 63, 0
1, 336, Note_on_c, 1, 67, 58
1, 356, Note_on_c, 1, 67, 0
1, 384, Note_on_c, 0, 75, 70
1, 384, Note_on_c, 1, 63, 58
1, 404, Note_on_c, 0, 75, 0
1, 432, Note_on_c, 1, 63, 0
1, 432, Note_on_c, 1, 67, 58
1, 452, Note_on_c, 1, 67, 0
1, 456, Note_on_c, 0, 77, 70
1, 464, Note_on_c, 0, 77, 0
1, 464, Note_on_c, 0, 75, 70
1, 472, Note_on_c, 0, 75, 0
1, 472, Note_on_c, 0, 74, 70
1, 480, Note_on_c, 0, 74, 0
1, 480, Note_on_c, 0, 75, 70
1, 480, Note_on_c, 1, 63, 58
1, 528, Note_on_c, 1, 63, 0
1, 528, Note_on_c, 1, 67, 58
1, 548, Note_on_c, 1, 67, 0
1, 552, Note_on_c, 0, 75, 0
1, 552, Note_on_c, 0, 77, 70
1, 575, Note_on_c, 0, 77, 0
1, 576, Note_on_c, 0, 74, 70
1, 576, Note_on_c, 1, 63, 58
1, 596, Note_on_c, 0, 74, 0
1, 624, Note_on_c, 1, 63, 0
1, 624, Note_on_c, 1, 68, 58
1, 644, Note_on_c, 1, 68, 0
1, 672, Note_on_c, 0, 74, 70
1, 672, Note_on_c, 1, 63, 58
1, 692, Note_on_c, 0, 74, 0
1, 720, Note_on_c, 1, 63, 0
1, 720, Note_on_c, 1, 68, 58
1, 740, Note_on_c, 1, 68, 0
1, 768, Note_on_c, 0, 74, 70
1, 768, Note_on_c, 1, 63, 58
1, 798, Note_on_c, 0, 74, 0
1, 800, Note_on_c, 0, 77, 70
1, 816, Note_on_c, 1, 63, 0
1, 816, Note_on_c, 1, 68, 58
1, 830, Note_on_c, 0, 77, 0
1, 832, Note_on_c, 0, 80, 70
1, 836, Note_on_c, 1, 68, 0
1, 862, Note_on_c, 0, 80, 0
1, 864, Note_on_c, 0, 84, 86
1, 864, Note_on_c, 1, 63, 58
1, 896, Note_on_c, 0, 84, 0
1, 896, Note_on_c, 0, 82, 70
1, 912, Note_on_c, 1, 63, 0
1, 912, Note_on_c, 1, 68, 58
1, 926, Note_on_c, 0, 82, 0
1, 928, Note_on_c, 0, 80, 70
1, 932, Note_on_c, 1, 68, 0
1, 958, Note_on_c, 0, 80, 0
1, 960, Note_on_c, 0, 79, 70
1, 960, Note_on_c, 1, 63, 58
1, 990, Note_on_c, 0, 79, 0
1, 992, Note_on_c, 0, 77, 70
1, 1008, Note_on_c, 1, 63, 0
1, 1008, Note_on_c, 1, 68, 58
1, 1022, Note_on_c, 0, 77, 0
1, 1024, Note_on_c, 0, 75, 70
1, 1028, Note_on_c, 1, 68, 0
1, 1054, Note_on_c, 0, 75, 0
1, 1056, Note_on_c, 0, 74, 70
1, 1056, Note_on_c, 1, 63, 58
1, 1086, Note_on_c, 0, 74, 0
1, 1088, Note_on_c, 0, 80, 70
1, 1104, Note_on_c, 1, 63, 0
1, 1104, Note_on_c, 1, 68, 58
1, 1118, Note_on_c, 0, 80, 0
1, 1120, Note_on_c, 0, 74, 70
1, 1124, Note_on_c, 1, 68, 0
1, 1150, Note_on_c, 0, 74, 0
1, 1152, Note_on_c, 0, 75, 70
1, 1152, Note_on_c, 1, 63, 58
1, 1172, Note_on_c, 0, 75, 0
1, 1200, Note_on_c, 1, 63, 0
1, 1200, Note_on_c, 1, 67, 58
1, 1220, Note_on_c, 1, 67, 0
1, 1248, Note_on_c, 0, 75, 70
1, 1248, Note_on_c, 1, 63, 58
1, 1268, Note_on_c, 0, 75, 0
1, 1296, Note_on_c, 1, 63, 0
1, 1296, Note_on_c, 1, 67, 58
1, 1316, Note_on_c, 1, 67, 0
1, 1320, Note_on_c, 0, 77, 70
1, 1328, Note_on_c, 0, 77, 0
1, 1328, Note_on_c, 0, 75, 70
1, 1336, Note_on_c, 0, 75, 0
1, 1336, Note_on_c, 0, 74, 70
1, 1344, Note_on_c, 0, 74, 0
1, 1344, Note_on_c, 0, 75, 70
1, 1344, Note_on_c, 1, 63, 58
1, 1392, Note_on_c, 1, 63, 0
1, 1392, Note_on_c, 1, 67, 58
1, 1412, Note_on_c, 1, 67, 0
1, 1414, Note_on_c, 0, 75, 0
1, 1416, Note_on_c, 0, 79, 70
1, 1439, Note_on_c, 0, 79, 0
1, 1440, Note_on_c, 0, 71, 70
1, 1440, Note_on_c, 1, 63, 58
1, 1460, Note_on_c, 0, 71, 0
1, 1488, Note_on_c, 1, 63, 0
1, 1488, Note_on_c, 1, 67, 58
1, 1508, Note_on_c, 1, 67, 0
1, 1536, Note_on_c, 0, 71, 70
1, 1536, Note_on_c, 1, 63, 58
1, 1556, Note_on_c, 0, 71, 0
1, 1584, Note_on_c, 1, 63, 0
1, 1584, Note_on_c, 1, 67, 58
1, 1604, Note_on_c, 1, 67, 0
1, 1632, Note_on_c, 0, 71, 86
1, 1632, Note_on_c, 1, 63, 58
1, 1680, Note_on_c, 1, 63, 0
1, 1680, Note_on_c, 1, 67, 58
1, 1700, Note_on_c, 1, 67, 0
1, 1728, Note_on_c, 0, 71, 0
1, 1728, Note_on_c, 0, 72, 70
1, 1728, Note_on_c, 1, 63, 58
1, 1758, Note_on_c, 0, 72, 0
1, 1760, Note_on_c, 0, 75, 72
1, 1790, Note_on_c, 0, 75, 0
1, 1792, Note_on_c, 0, 74, 74
1, 1822, Note_on_c, 0, 74, 0
1, 1824, Note_on_c, 0, 72, 77
1, 1854, Note_on_c, 0, 72, 0
1, 1856, Note_on_c, 0, 79, 79
1, 1886, Note_on_c, 0, 79, 0
1, 1888, Note_on_c, 0, 77, 78
1, 1918, Note_on_c, 0, 77, 0
1, 1920, Note_on_c, 0, 75, 76
1, 1950, Note_on_c, 0, 75, 0
1, 1952, Note_on_c, 0, 74, 74
1, 1982, Note_on_c, 0, 74, 0
1, 1984, Note_on_c, 0, 72, 72
1, 1993, Note_on_c, 1, 63, 0
1, 2014, Note_on_c, 0, 72, 0
1, 2016, Note_on_c, 0, 70, 70
1, 2016, Note_on_c, 1, 62, 64
1, 2016, Note_on_c, 1, 53, 64
1, 2069, Note_on_c, 0, 70, 0
1, 2076, Note_on_c, 0, 72, 70
1, 2088, Note_on_c, 0, 72, 0
1, 2088, Note_on_c, 0, 70, 70
1, 2100, Note_on_c, 0, 70, 0
1, 2100, Note_on_c, 0, 69, 70
1, 2112, Note_on_c, 0, 69, 0
1, 2112, Note_on_c, 0, 70, 70
1, 2179, Note_on_c, 0, 70, 0
1, 2184, Note_on_c, 0, 74, 70
1, 2193, Note_on_c, 1, 62, 0
1, 2207, Note_on_c, 0, 74, 0
1, 2208, Note_on_c, 0, 72, 70
1, 2208, Note_on_c, 1, 63, 64
1, 2275, Note_on_c, 0, 72, 0
1, 2280, Note_on_c, 0, 69, 70
1, 2281, Note_on_c, 1, 53, 0
1, 2297, Note_on_c, 1, 63, 0
1, 2303, Note_on_c, 0, 69, 0
1, 2304, Note_on_c, 0, 70, 70
1, 2304, Note_on_c, 1, 62, 64
1, 2304, Note_on_c, 1, 58, 64
1, 2343, Note_on_c, 0, 70, 0
1, 2343, Note_on_c, 1, 62, 0
1, 2343, Note_on_c, 1, 58, 0
1, 2496, Tempo, 444444
1, 2496, Note_on_c, 0, 70, 70
1, 2592, Note_on_c, 0, 70, 0
1, 2592, Note_on_c, 0, 75, 70
1, 2592, Note_on_c, 1, 63, 58
1, 2612, Note_on_c, 0, 75, 0
1, 2640, Note_on_c, 1, 63, 0
1, 2640, Note_on_c, 1, 67, 58
1, 2660, Note_on_c, 1, 67, 0
1, 2688, Note_on_c, 0, 75, 70
1, 2688, Note_on_c, 1, 63, 58
1, 2708, Note_on_c, 0, 75, 0
1, 2736, Note_on_c, 1, 63, 0
1, 2736, Note_on_c, 1, 67, 58
1, 2756, Note_on_c, 1, 67, 0
1, 2760, Note_on_c, 0, 77, 70
1, 2768, Note_on_c, 0, 77, 0
1, 2768, Note_on_c, 0, 75, 70
1, 2776, Note_on_c, 0, 75, 0
1, 2776, Note_on_c, 0, 74, 70
1, 2784, Note_on_c, 0, 74, 0
1, 2784, Note_on_c, 0, 75, 70
1, 2784, Note_on_c, 1, 63, 58
1, 2832, Note_on_c, 1, 63, 0
1, 2832, Note_on_c, 1, 67, 58
1, 2852, Note_on_c, 1, 67, 0
1, 2856, Note_on_c, 0, 75, 0
1, 2856, Note_on_c, 0, 77, 70
1, 2879, Note_on_c, 0, 77, 0
1, 2880, Note_on_c, 0, 74, 70
1, 2880, Note_on_c, 1, 63, 58
1, 2900, Note_on_c, 0, 74, 0
1, 2928, Note_on_c, 1, 63, 0
1, 2928, Note_on_c, 1, 68, 58
1, 2948, Note_on_c, 1, 68, 0
1, 2976, Note_on_c, 0, 74, 70
1, 2976, Note_on_c, 1, 63, 58
1, 2996, Note_on_c, 0, 74, 0
1, 3024, Note_on_c, 1, 63, 0
1, 3024, Note_on_c, 1, 68, 58
1, 3044, Note_on_c, 1, 68, 0
1, 3072, Note_on_c, 0, 74, 70
1, 3072, Note_on_c, 1, 63, 58
1, 3102, Note_on_c, 0, 74, 0
1, 3104, Note_on_c, 0, 77, 70
1, 3120, Note_on_c, 1, 63, 0
1, 3120, Note_on_c, 1, 68, 58
1, 3134, Note_on_c, 0, 77, 0
1, 3136, Note_on_c, 0, 80, 70
1, 3140, Note_on_c, 1, 68, 0
1, 3166, Note_on_c, 0, 80, 0
1, 3168, Note_on_c, 0, 84, 86
1, 3168, Note_on_c, 1, 63, 58
1, 3200, Note_on_c, 0, 84, 0
1, 3200, Note_on_c, 0, 82, 70
1, 3216, Note_on_c, 1, 63, 0
1, 3216, Note_on_c, 1, 68, 58
1, 3230, Note_on_c, 0, 82, 0
1, 3232, Note_on_c, 0, 80, 70
1, 3236, Note_on_c, 1, 68, 0
1, 3262, Note_on_c, 0, 80, 0
1, 3264, Note_on_c, 0, 79, 70
1, 3264, Note_on_c, 1, 63, 58
1, 3294, Note_on_c, 0, 79, 0
1, 3296, Note_on_c, 0, 77, 70
1, 3312, Note_on_c, 1, 63, 0
1, 3312, Note_on_c, 1, 68, 58
1, 3326, Note_on_c, 0, 77, 0
1, 3328, Note_on_c, 0, 75, 70
1, 3332, Note_on_c, 1, 68, 0
1, 3358, Note_on_c, 0, 75, 0
1, 3360, Note_on_c, 0, 74, 70
1, 3360, Note_on_c, 1, 63, 58
1, 3390, Note_on_c, 0, 74, 0
1, 3392, Note_on_c, 0, 80, 70
1, 3408, Note_on_c, 1, 63, 0
1, 3408, Note_on_c, 1, 68, 58
1, 3422, Note_on_c, 0, 80, 0
1, 3424, Note_on_c, 0, 74, 70
1, 3428, Note_on_c, 1, 68, 0
1, 3454, Note_on_c, 0, 74, 0
1, 3456, Note_on_c, 0, 75, 70
1, 3456, Note_on_c, 1, 63, 58
1, 3476, Note_on_c, 0, 75, 0
1, 3504, Note_on_c, 1, 63, 0
1, 3504, Note_on_c, 1, 67, 58
1, 3524, Note_on_c, 1, 67, 0
1, 3552, Note_on_c, 0, 75, 70
1, 3552, Note_on_c, 1, 63, 58
1, 3572, Note_on_c, 0, 75, 0
1, 3600, Note_on_c, 1, 63, 0
1, 3600, Note_on_c, 1, 67, 58
1, 3620, Note_on_c, 1, 67, 0
1, 3624, Note_on_c, 0, 77, 70
1, 3632, Note_on_c, 0, 77, 0
1, 3632, Note_on_c, 0, 75, 70
1, 3640, Note_on_c, 0, 75, 0
1, 3640, Note_on_c, 0, 74, 70
1, 3648, Note_on_c, 0, 74, 0
1, 3648, Note_on_c, 0, 75, 70
1, 3648, Note_on_c, 1, 63, 58
1, 3696, Note_on_c, 1, 63, 0
1, 3696, Note_on_c, 1, 67, 58
1, 3716, Note_on_c, 1, 67, 0
1, 3718, Note_on_c, 0, 75, 0
1, 3720, Note_on_c, 0, 79, 70
1, 3743, Note_on_c, 0, 79, 0
1, 3744, Note_on_c, 0, 71, 70
1, 3744, Note_on_c, 1, 63, 58
1, 3764, Note_on_c, 0, 71, 0
1, 3792, Note_on_c, 1, 63, 0
1, 3792, Note_on_c, 1, 67, 58
1, 3812, Note_on_c, 1, 67, 0
1, 3840, Note_on_c, 0, 71, 70
1, 3840, Note_on_c, 1, 63, 58
1, 3860, Note_on_c, 0, 71, 0
1, 3888, Note_on_c, 1, 63, 0
1, 3888, Note_on_c, 1, 67, 58
1, 3908, Note_on_c, 1, 67, 0
1, 3936, Note_on_c, 0, 71, 86
1, 3936, Note_on_c, 1, 63, 58
1, 3984, Note_on_c, 1, 63, 0
1, 3984, Note_on_c, 1, 67, 58
1, 4004, Note_on_c, 1, 67, 0
1, 4032, Note_on_c, 0, 71, 0
1, 4032, Note_on_c, 0, 72, 70
1, 4032, Note_on_c, 1, 63, 58
1, 4062, Note_on_c, 0, 72, 0
1, 4064, Note_on_c, 0, 75, 72
1, 4094, Note_on_c, 0, 75, 0
1, 4096, Note_on_c, 0, 74, 74
1, 4126, Note_on_c, 0, 74, 0
1, 4128, Note_on_c, 0, 72, 77
1, 4158, Note_on_c, 0, 72, 0
1, 4160, Note_on_c, 0, 79, 79
1, 4190, Note_on_c, 0, 79, 0
1, 4192, Note_on_c, 0, 77, 78
1, 4222, Note_on_c, 0, 77, 0
1, 4224, Note_on_c, 0, 75, 76
1, 4254, Note_on_c, 0, 75, 0
1, 4256, Note_on_c, 0, 74, 74
1, 4286, Note_on_c, 0, 74, 0
1, 4288, Note_on_c, 0, 72, 72
1, 4297, Note_on_c, 1, 63, 0
1, 4318, Note_on_c, 0, 72, 0
1, 4320, Note_on_c, 0, 70, 70
1, 4320, Note_on_c, 1, 62, 64
1, 4320, Note_on_c, 1, 53, 64
1, 4373, Note_on_c, 0, 70, 0
1, 4380, Note_on_c, 0, 72, 70
1, 4392, Note_on_c, 0, 72, 0
1, 4392, Note_on_c, 0, 70, 70
1, 4404, Note_on_c, 0, 70, 0
1, 4404, Note_on_c, 0, 69, 70
1, 4416, Note_on_c, 0, 69, 0
1, 4416, Note_on_c, 0, 70, 70
1, 4483, Note_on_c, 0, 70, 0
1, 4488, Note_on_c, 0, 74, 70
1, 4497, Note_on_c, 1, 62, 0
1, 4511, Note_on_c, 0, 74, 0
1, 4512, Note_on_c, 0, 72, 70
1, 4512, Note_on_c, 1, 63, 64
1, 4579, Note_on_c, 0, 72, 0
1, 4584, Note_on_c, 0, 69, 70
1, 4585, Note_on_c, 1, 53, 0
1, 4601, Note_on_c, 1, 63, 0
1, 4607, Note_on_c, 0, 69, 0
1, 4608, Note_on_c, 0, 70, 70
1, 4608, Note_on_c, 1, 62, 64
1, 4608, Note_on_c, 1, 58, 64
1, 4647, Note_on_c, 0, 70, 0
1, 4647, Note_on_c, 1, 62, 0
1, 4647, Note_on_c, 1, 58, 0
1, 4800, Note_on_c, 1, 46, 75
1, 4830, Note_on_c, 1, 46, 0
1, 4832, Note_on_c, 1, 50, 75
1, 4862, Note_on_c, 1, 50, 0
1, 4864, Note_on_c, 1, 53, 75
1, 4894, Note_on_c, 1, 53, 0
1, 4896, Note_on_c, 1, 56, 75
1, 4916, Note_on_c, 1, 56, 0
1, 4928, Note_on_c, 0, 58, 75
1, 4958, Note_on_c, 0, 58, 0
1, 4960, Note_on_c, 0, 60, 75
1, 4990, Note_on_c, 0, 60, 0
1, 4992, Note_on_c, 0, 62, 75
1, 4992, Note_on_c, 1, 56, 75
1, 5012, Note_on_c, 1, 56, 0
1, 5022, Note_on_c, 0, 62, 0
1, 5024, Note_on_c, 0, 63, 75
1, 5054, Note_on_c, 0, 63, 0
1, 5056, Note_on_c, 0, 65, 75
1, 5086, Note_on_c, 0, 65, 0
1, 5088, Note_on_c, 0, 67, 75
1, 5088, Note_on_c, 1, 56, 75
1, 5108, Note_on_c, 1, 56, 0
1, 5118, Note_on_c, 0, 67, 0
1, 5120, Note_on_c, 0, 68, 75
1, 5150, Note_on_c, 0, 68, 0
1, 5152, Note_on_c, 0, 65, 75
1, 5182, Note_on_c, 0, 65, 0
1, 5184, Note_on_c, 0, 70, 75
1, 5184, Note_on_c, 1, 55, 75
1, 5251, Note_on_c, 0, 70, 0
1, 5256, Note_on_c, 0, 75, 75
1, 5273, Note_on_c, 1, 55, 0
1, 5279, Note_on_c, 0, 75, 0
1, 5280, Note_on_c, 0, 70, 75
1, 5300, Note_on_c, 0, 70, 0
1, 5376, Note_on_c, 1, 58, 75
1, 5406, Note_on_c, 1, 58, 0
1, 5408, Note_on_c, 1, 62, 75
1, 5438, Note_on_c, 1, 62, 0
1, 5440, Note_on_c, 1, 65, 75
1, 5470, Note_on_c, 1, 65, 0
1, 5472, Note_on_c, 1, 68, 75
1, 5492, Note_on_c, 1, 68, 0
1, 5504, Note_on_c, 0, 70, 75
1, 5534, Note_on_c, 0, 70, 0
1, 5536, Note_on_c, 0, 72, 75
1, 5566, Note_on_c, 0, 72, 0
1, 5568, Note_on_c, 0, 74, 75
1, 5568, Note_on_c, 1, 68, 75
1, 5588, Note_on_c, 1, 68, 0
1, 5598, Note_on_c, 0, 74, 0
1, 5600, Note_on_c, 0, 75, 75
1, 5630, Note_on_c, 0, 75, 0
1, 5632, Note_on_c, 0, 77, 75
1, 5662, Note_on_c, 0, 77, 0
1, 5664, Note_on_c, 0, 79, 75
1, 5664, Note_on_c, 1, 68, 75
1, 5684, Note_on_c, 1, 68, 0
1, 5694, Note_on_c, 0, 79, 0
1, 5696, Note_on_c, 0, 80, 75
1, 5726, Note_on_c, 0, 80, 0
1, 5728, Note_on_c, 0, 77, 75
1, 5758, Note_on_c, 0, 77, 0
1, 5760, Note_on_c, 0, 82, 75
1, 5760, Note_on_c, 1, 67, 75
1, 5790, Note_on_c, 0, 82, 0
1, 5792, Note_on_c, 0, 84, 75
1, 5822, Note_on_c, 0, 84, 0
1, 5824, Note_on_c, 0, 82, 75
1, 5849, Note_on_c, 1, 67, 0
1, 5854, Note_on_c, 0, 82, 0
1, 5856, Note_on_c, 0, 80, 75
1, 5886, Note_on_c, 0, 80, 0
1, 5888, Note_on_c, 0, 79, 75
1, 5918, Note_on_c, 0, 79, 0
1, 5920, Note_on_c, 0, 77, 75
1, 5950, Note_on_c, 0, 77, 0
1, 5952, Note_on_c, 0, 75, 75
1, 5952, Note_on_c, 1, 70, 70
1, 5952, Note_on_c, 1, 67, 70
1, 5982, Note_on_c, 0, 75, 0
1, 5984, Note_on_c, 0, 79, 75
1, 6014, Note_on_c, 0, 79, 0
1, 6016, Note_on_c, 0, 75, 75
1, 6041, Note_on_c, 1, 70, 0
1, 6041, Note_on_c, 1, 67, 0
1, 6046, Note_on_c, 0, 75, 0
1, 6048, Note_on_c, 0, 74, 75
1, 6048, Note_on_c, 1, 68, 70
1, 6048, Note_on_c, 1, 65, 70
1, 6078, Note_on_c, 0, 74, 0
1, 6080, Note_on_c, 0, 77, 75
1, 6110, Note_on_c, 0, 77, 0
1, 6112, Note_on_c, 0, 74, 75
1, 6137, Note_on_c, 1, 68, 0
1, 6137, Note_on_c, 1, 65, 0
1, 6142, Note_on_c, 0, 74, 0
1, 6144, Note_on_c, 0, 72, 75
1, 6144, Note_on_c, 1, 67, 70
1, 6144, Note_on_c, 1, 63, 70
1, 6174, Note_on_c, 0, 72, 0
1, 6176, Note_on_c, 0, 75, 75
1, 6206, Note_on_c, 0, 75, 0
1, 6208, Note_on_c, 0, 72, 75
1, 6233, Note_on_c, 1, 67, 0
1, 6233, Note_on_c, 1, 63, 0
1, 6238, Note_on_c, 0, 72, 0
1, 6240, Note_on_c, 0, 70, 75
1, 6240, Note_on_c, 1, 65, 70
1, 6240, Note_on_c, 1, 62, 70
1, 6270, Note_on_c, 0, 70, 0
1, 6272, Note_on_c, 0, 74, 75
1, 6302, Note_on_c, 0, 74, 0
1, 6304, Note_on_c, 0, 70, 75
1, 6329, Note_on_c, 1, 65, 0
1, 6329, Note_on_c, 1, 62, 0
1, 6334, Note_on_c, 0, 70, 0
1, 6336, Note_on_c, 0, 68, 75
1, 6336, Note_on_c, 1, 63, 70
1, 6336, Note_on_c, 1, 60, 70
1, 6366, Note_on_c, 0, 68, 0
1, 6368, Note_on_c, 0, 72, 75
1, 6398, Note_on_c, 0, 72, 0
1, 6400, Note_on_c, 0, 68, 75
1, 6425, Note_on_c, 1, 63, 0
1, 6425, Note_on_c, 1, 60, 0
1, 6430, Note_on_c, 0, 68, 0
1, 6432, Note_on_c, 0, 67, 75
1, 6432, Note_on_c, 1, 62, 70
1, 6432, Note_on_c, 1, 58, 70
1, 6462, Note_on_c, 0, 67, 0
1, 6464, Note_on_c, 0, 70, 75
1, 6494, Note_on_c, 0, 70, 0
1, 6496, Note_on_c, 0, 67, 75
1, 6521, Note_on_c, 1, 62, 0
1, 6521, Note_on_c, 1, 58, 0
1, 6526, Note_on_c, 0, 67, 0
1, 6528, Note_on_c, 0, 65, 75
1, 6528, Note_on_c, 1, 60, 70
1, 6528, Note_on_c, 1, 56, 70
1, 6558, Note_on_c, 0, 65, 0
1, 6560, Note_on_c, 0, 68, 75
1, 6590, Note_on_c, 0, 68, 0
1, 6592, Note_on_c, 0, 65, 75
1, 6617, Note_on_c, 1, 60, 0
1, 6617, Note_on_c, 1, 56, 0
1, 6622, Note_on_c, 0, 65, 0
1, 6624, Note_on_c, 0, 70, 75
1, 6624, Note_on_c, 1, 58, 70
1, 6624, Note_on_c, 1, 55, 70
1, 6654, Note_on_c, 0, 70, 0
1, 6656, Note_on_c, 0, 62, 75
1, 6686, Note_on_c, 0, 62, 0
1, 6688, Note_on_c, 0, 63, 75
1, 6713, Note_on_c, 1, 58, 0
1, 6713, Note_on_c, 1, 55, 0
1, 6718, Note_on_c, 0, 63, 0
1, 6720, Note_on_c, 0, 72, 75
1, 6720, Note_on_c, 1, 56, 70
1, 6750, Note_on_c, 0, 72, 0
1, 6752, Note_on_c, 0, 64, 91
1, 6784, Note_on_c, 0, 64, 0
1, 6784, Note_on_c, 0, 65, 73
1, 6814, Note_on_c, 0, 65, 0
1, 6816, Note_on_c, 0, 72, 72
1, 6846, Note_on_c, 0, 72, 0
1, 6848, Note_on_c, 0, 68, 71
1, 6878, Note_on_c, 0, 68, 0
1, 6880, Note_on_c, 0, 65, 70
1, 6897, Note_on_c, 1, 56, 0
1, 6910, Note_on_c, 0, 65, 0
1, 6912, Note_on_c, 0, 63, 69
1, 6912, Note_on_c, 1, 55, 75
1, 6912, Note_on_c, 1, 46, 64
1, 7008, Note_on_c, 0, 63, 0
1, 7008, Note_on_c, 0, 62, 66
1, 7008, Note_on_c, 1, 55, 0
1, 7008, Note_on_c, 1, 53, 67
1, 7028, Note_on_c, 0, 62, 0
1, 7045, Note_on_c, 1, 46, 0
1, 7053, Note_on_c, 1, 53, 0
1, 7080, Note_on_c, 0, 70, 70
1, 7103, Note_on_c, 0, 70, 0
1, 7104, Note_on_c, 0, 72, 70
1, 7116, Note_on_c, 0, 72, 0
1, 7116, Note_on_c, 0, 70, 70
1, 7128, Note_on_c, 0, 70, 0
1, 7128, Note_on_c, 0, 69, 70
1, 7140, Note_on_c, 0, 69, 0
1, 7140, Note_on_c, 0, 70, 70
1, 7193, Note_on_c, 0, 70, 0
1, 7200, Note_on_c, 0, 75, 70
1, 7200, Note_on_c, 1, 63, 58
1, 7220, Note_on_c, 0, 75, 0
1, 7248, Note_on_c, 1, 63, 0
1, 7248, Note_on_c, 1, 67, 58
1, 7268, Note_on_c, 1, 67, 0
1, 7296, Note_on_c, 0, 75, 70
1, 7296, Note_on_c, 1, 63, 58
1, 7316, Note_on_c, 0, 75, 0
1, 7344, Note_on_c, 1, 63, 0
1, 7344, Note_on_c, 1, 67, 58
1, 7364, Note_on_c, 1, 67, 0
1, 7392, Note_on_c, 0, 77, 70
1, 7392, Note_on_c, 1, 63, 58
1, 7404, Note_on_c, 0, 77, 0
1, 7404, Note_on_c, 0, 75, 70
1, 7416, Note_on_c, 0, 75, 0
1, 7416, Note_on_c, 0, 74, 70
1, 7428, Note_on_c, 0, 74, 0
1, 7428, Note_on_c, 0, 75, 70
1, 7440, Note_on_c, 1, 63, 0
1, 7440, Note_on_c, 1, 67, 58
1, 7460, Note_on_c, 1, 67, 0
1, 7464, Note_on_c, 0, 75, 0
1, 7464, Note_on_c, 0, 77, 70
1, 7487, Note_on_c, 0, 77, 0
1, 7488, Note_on_c, 0, 74, 70
1, 7488, Note_on_c, 1, 63, 58
1, 7508, Note_on_c, 0, 74, 0
1, 7536, Note_on_c, 1, 63, 0
1, 7536, Note_on_c, 1, 68, 58
1, 7556, Note_on_c, 1, 68, 0
1, 7584, Note_on_c, 0, 74, 70
1, 7584, Note_on_c, 1, 63, 58
1, 7604, Note_on_c, 0, 74, 0
1, 7632, Note_on_c, 1, 63, 0
1, 7632, Note_on_c, 1, 68, 58
1, 7652, Note_on_c, 1, 68, 0
1, 7680, Note_on_c, 0, 74, 70
1, 7680, Note_on_c, 1, 63, 58
1, 7710, Note_on_c, 0, 74, 0
1, 7712, Note_on_c, 0, 77, 70
1, 7728, Note_on_c, 1, 63, 0
1, 7728, Note_on_c, 1, 68, 58
1, 7742, Note_on_c, 0, 77, 0
1, 7744, Note_on_c, 0, 80, 70
1, 7748, Note_on_c, 1, 68, 0
1, 7774, Note_on_c, 0, 80, 0
1, 7776, Note_on_c, 0, 84, 86
1, 7776, Note_on_c, 1, 63, 58
1, 7808, Note_on_c, 0, 84, 0
1, 7808, Note_on_c, 0, 82, 70
1, 7824, Note_on_c, 1, 63, 0
1, 7824, Note_on_c, 1, 68, 58
1, 7838, Note_on_c, 0, 82, 0
1, 7840, Note_on_c, 0, 80, 70
1, 7844, Note_on_c, 1, 68, 0
1, 7870, Note_on_c, 0, 80, 0
1, 7872, Note_on_c, 0, 79, 70
1, 7872, Note_on_c, 1, 63, 58
1, 7902, Note_on_c, 0, 79, 0
1, 7904, Note_on_c, 0, 77, 70
1, 7920, Note_on_c, 1, 63, 0
1, 7920, Note_on_c, 1, 68, 58
1, 7934, Note_on_c, 0, 77, 0
1, 7936, Note_on_c, 0, 75, 70
1, 7940, Note_on_c, 1, 68, 0
1, 7966, Note_on_c, 0, 75, 0
1, 7968, Note_on_c, 0, 74, 70
1, 7968, Note_on_c, 1, 63, 58
1, 7998, Note_on_c, 0, 74, 0
1, 8000, Note_on_c, 0, 80, 70
1, 8016, Note_on_c, 1, 63, 0
1, 8016, Note_on_c, 1, 68, 58
1, 8030, Note_on_c, 0, 80, 0
1, 8032, Note_on_c, 0, 74, 70
1, 8036, Note_on_c, 1, 68, 0
1, 8062, Note_on_c, 0, 74, 0
1, 8064, Note_on_c, 0, 75, 70
1, 8064, Note_on_c, 1, 63, 58
1, 8084, Note_on_c, 0, 75, 0
1, 8112, Note_on_c, 1, 63, 0
1, 8112, Note_on_c, 1, 67, 58
1, 8132, Note_on_c, 1, 67, 0
1, 8160, Note_on_c, 0, 75, 70
1, 8160, Note_on_c, 1, 63, 58
1, 8180, Note_on_c, 0, 75, 0
1, 8208, Note_on_c, 1, 63, 0
1, 8208, Note_on_c, 1, 67, 58
1, 8228, Note_on_c, 1, 67, 0
1, 8232, Note_on_c, 0, 75, 70
1, 8255, Note_on_c, 0, 75, 0
1, 8256, Note_on_c, 0, 77, 70
1, 8256, Note_on_c, 1, 63, 58
1, 8262, Note_on_c, 0, 77, 0
1, 8262, Note_on_c, 0, 75, 70
1, 8279, Note_on_c, 0, 75, 0
1, 8280, Note_on_c, 0, 74, 70
1, 8303, Note_on_c, 0, 74, 0
1, 8304, Note_on_c, 0, 75, 70
1, 8304, Note_on_c, 1, 63, 0
1, 8304, Note_on_c, 1, 67, 58
1, 8324, Note_on_c, 1, 67, 0
1, 8327, Note_on_c, 0, 75, 0
1, 8328, Note_on_c, 0, 77, 70
1, 8351, Note_on_c, 0, 77, 0
1, 8352, Note_on_c, 0, 79, 70
1, 8352, Note_on_c, 1, 61, 64
1, 8391, Note_on_c, 0, 79, 0
1, 8397, Note_on_c, 1, 61, 0
1, 8400, Note_on_c, 1, 63, 65
1, 8445, Note_on_c, 1, 63, 0
1, 8448, Note_on_c, 0, 79, 71
1, 8448, Note_on_c, 1, 61, 66
1, 8493, Note_on_c, 1, 61, 0
1, 8496, Note_on_c, 1, 63, 68
1, 8515, Note_on_c, 0, 79, 0
1, 8520, Note_on_c, 0, 82, 72
1, 8541, Note_on_c, 1, 63, 0
1, 8543, Note_on_c, 0, 82, 0
1, 8544, Note_on_c, 0, 87, 73
1, 8544, Note_on_c, 1, 61, 69
1, 8574, Note_on_c, 0, 87, 0
1, 8576, Note_on_c, 0, 82, 73
1, 8589, Note_on_c, 1, 61, 0
1, 8592, Note_on_c, 1, 63, 70
1, 8606, Note_on_c, 0, 82, 0
1, 8608, Note_on_c, 0, 79, 74
1, 8637, Note_on_c, 1, 63, 0
1, 8638, Note_on_c, 0, 79, 0
1, 8640, Note_on_c, 0, 80, 74
1, 8640, Note_on_c, 1, 60, 72
1, 8685, Note_on_c, 1, 60, 0
1, 8688, Note_on_c, 1, 63, 73
1, 8693, Note_on_c, 0, 80, 0
1, 8700, Note_on_c, 0, 82, 74
1, 8712, Note_on_c, 0, 82, 0
1, 8712, Note_on_c, 0, 80, 74
1, 8724, Note_on_c, 0, 80, 0
1, 8724, Note_on_c, 0, 79, 74
1, 8733, Note_on_c, 1, 63, 0
1, 8736, Note_on_c, 0, 79, 0
1, 8736, Note_on_c, 0, 80, 76
1, 8736, Note_on_c, 1, 60, 74
1, 8781, Note_on_c, 1, 60, 0
1, 8784, Note_on_c, 1, 63, 76
1, 8803, Note_on_c, 0, 80, 0
1, 8808, Note_on_c, 0, 82, 77
1, 8829, Note_on_c, 1, 63, 0
1, 8831, Note_on_c, 0, 82, 0
1, 8832, Note_on_c, 0, 84, 78
1, 8832, Note_on_c, 1, 56, 77
1, 8862, Note_on_c, 0, 84, 0
1, 8864, Note_on_c, 0, 80, 78
1, 8877, Note_on_c, 1, 56, 0
1, 8880, Note_on_c, 1, 65, 78
1, 8894, Note_on_c, 0, 80, 0
1, 8896, Note_on_c, 0, 77, 79
1, 8925, Note_on_c, 1, 65, 0
1, 8926, Note_on_c, 0, 77, 0
1, 8928, Note_on_c, 0, 75, 80
1, 8928, Note_on_c, 1, 67, 80
1, 8928, Note_on_c, 1, 58, 80
1, 8981, Note_on_c, 0, 75, 0
1, 8988, Note_on_c, 0, 77, 80
1, 9000, Note_on_c, 0, 77, 0
1, 9000, Note_on_c, 0, 75, 80
1, 9012, Note_on_c, 0, 75, 0
1, 9012, Note_on_c, 0, 74, 80
1, 9024, Note_on_c, 0, 74, 0
1, 9024, Note_on_c, 0, 75, 80
1, 9091, Note_on_c, 0, 75, 0
1, 9096, Note_on_c, 0, 79, 80
1, 9105, Note_on_c, 1, 67, 0
1, 9105, Note_on_c, 1, 58, 0
1, 9119, Note_on_c, 0, 79, 0
1, 9120, Note_on_c, 0, 77, 80
1, 9120, Note_on_c, 1, 68, 80
1, 9187, Note_on_c, 0, 77, 0
1, 9192, Note_on_c, 0, 74, 80
1, 9209, Note_on_c, 1, 68, 0
1, 9215, Note_on_c, 0, 74, 0
1, 9216, Note_on_c, 0, 75, 80
1, 9216, Note_on_c, 1, 67, 80
1, 9216, Note_on_c, 1, 63, 80
1, 9255, Note_on_c, 0, 75, 0
1, 9255, Note_on_c, 1, 67, 0
1, 9305, Note_on_c, 1, 63, 0
1, 9408, Note_on_c, 1, 46, 75
1, 9438, Note_on_c, 1, 46, 0
1, 9440, Note_on_c, 1, 50, 75
1, 9470, Note_on_c, 1, 50, 0
1, 9472, Note_on_c, 1, 53, 75
1, 9502, Note_on_c, 1, 53, 0
1, 9504, Note_on_c, 1, 56, 75
1, 9524, Note_on_c, 1, 56, 0
1, 9536, Note_on_c, 0, 58, 75
1, 9566, Note_on_c, 0, 58, 0
1, 9568, Note_on_c, 0, 60, 75
1, 9598, Note_on_c, 0, 60, 0
1, 9600, Note_on_c, 0, 62, 75
1, 9600, Note_on_c, 1, 56, 75
1, 9620, Note_on_c, 1, 56, 0
1, 9630, Note_on_c, 0, 62, 0
1, 9632, Note_on_c, 0, 63, 75
1, 9662, Note_on_c, 0, 63, 0
1, 9664, Note_on_c, 0, 65, 75
1, 9694, Note_on_c, 0, 65, 0
1, 9696, Note_on_c, 0, 67, 75
1, 9696, Note_on_c, 1, 56, 75
1, 9716, Note_on_c, 1, 56, 0
1, 9726, Note_on_c, 0, 67, 0
1, 9728, Note_on_c, 0, 68, 75
1, 9758, Note_on_c, 0, 68, 0
1, 9760, Note_on_c, 0, 65, 75
1, 9790, Note_on_c, 0, 65, 0
1, 9792, Note_on_c, 0, 70, 75
1, 9792, Note_on_c, 1, 55, 75
1, 9859, Note_on_c, 0, 70, 0
1, 9864, Note_on_c, 0, 75, 75
1, 9881, Note_on_c, 1, 55, 0
1, 9887, Note_on_c, 0, 75, 0
1, 9888, Note_on_c, 0, 70, 75
1, 9908, Note_on_c, 0, 70, 0
1, 9984, Note_on_c, 1, 58, 75
1, 10014, Note_on_c, 1, 58, 0
1, 10016, Note_on_c, 1, 62, 75
1, 10046, Note_on_c, 1, 62, 0
1, 10048, Note_on_c, 1, 65, 75
1, 10078, Note_on_c, 1, 65, 0
1, 10080, Note_on_c, 1, 68, 75
1, 10100, Note_on_c, 1, 68, 0
1, 10112, Note_on_c, 0, 70, 75
1, 10142, Note_on_c, 0, 70, 0
1, 10144, Note_on_c, 0, 72, 75
1, 10174, Note_on_c, 0, 72, 0
1, 10176, Note_on_c, 0, 74, 75
1, 10176, Note_on_c, 1, 68, 75
1, 10196, Note_on_c, 1, 68, 0
1, 10206, Note_on_c, 0, 74, 0
1, 10208, Note_on_c, 0, 75, 75
1, 10238, Note_on_c, 0, 75, 0
1, 10240, Note_on_c, 0, 77, 75
1, 10270, Note_on_c, 0, 77, 0
1, 10272, Note_on_c, 0, 79, 75
1, 10272, Note_on_c, 1, 68, 75
1, 10292, Note_on_c, 1, 68, 0
1, 10302, Note_on_c, 0, 79, 0
1, 10304, Note_on_c, 0, 80, 75
1, 10334, Note_on_c, 0, 80, 0
1, 10336, Note_on_c, 0, 77, 75
1, 10366, Note_on_c, 0, 77, 0
1, 10368, Note_on_c, 0, 82, 75
1, 10368, Note_on_c, 1, 67, 75
1, 10398, Note_on_c, 0, 82, 0
1, 10400, Note_on_c, 0, 84, 75
1, 10430, Note_on_c, 0, 84, 0
1, 10432, Note_on_c, 0, 82, 75
1, 10457, Note_on_c, 1, 67, 0
1, 10462, Note_on_c, 0, 82, 0
1, 10464, Note_on_c, 0, 80, 75
1, 10494, Note_on_c, 0, 80, 0
1, 10496, Note_on_c, 0, 79, 75
1, 10526, Note_on_c, 0, 79, 0
1, 10528, Note_on_c, 0, 77, 75
1, 10558, Note_on_c, 0, 77, 0
1, 10560, Note_on_c, 0, 75, 75
1, 10560, Note_on_c, 1, 70, 70
1, 10560, Note_on_c, 1, 67, 70
1, 10590, Note_on_c, 0, 75, 0
1, 10592, Note_on_c, 0, 79, 75
1, 10622, Note_on_c, 0, 79, 0
1, 10624, Note_on_c, 0, 75, 75
1, 10649, Note_on_c, 1, 70, 0
1, 10649, Note_on_c, 1, 67, 0
1, 10654, Note_on_c, 0, 75, 0
1, 10656, Note_on_c, 0, 74, 75
1, 10656, Note_on_c, 1, 68, 70
1, 10656, Note_on_c, 1, 65, 70
1, 10686, Note_on_c, 0, 74, 0
1, 10688, Note_on_c, 0, 77, 75
1, 10718, Note_on_c, 0, 77, 0
1, 10720, Note_on_c, 0, 74, 75
1, 10745, Note_on_c, 1, 68, 0
1, 10745, Note_on_c, 1, 65, 0
1, 10750, Note_on_c, 0, 74, 0
1, 10752, Note_on_c, 0, 72, 75
1, 10752, Note_on_c, 1, 67, 70
1, 10752, Note_on_c, 1, 63, 70
1, 10782, Note_on_c, 0, 72, 0
1, 10784, Note_on_c, 0, 75, 75
1, 10814, Note_on_c, 0, 75, 0
1, 10816, Note_on_c, 0, 72, 75
1, 10841, Note_on_c, 1, 67, 0
1, 10841, Note_on_c, 1, 63, 0
1, 10846, Note_on_c, 0, 72, 0
1, 10848, Note_on_c, 0, 70, 75
1, 10848, Note_on_c, 1, 65, 70
1, 10848, Note_on_c, 1, 62, 70
1, 10878, Note_on_c, 0, 70, 0
1, 10880, Note_on_c, 0, 74, 75
1, 10910, Note_on_c, 0, 74, 0
1, 10912, Note_on_c, 0, 70, 75
1, 10937, Note_on_c, 1, 65, 0
1, 10937, Note_on_c, 1, 62, 0
1, 10942, Note_on_c, 0, 70, 0
1, 10944, Note_on_c, 0, 68, 75
1, 10944, Note_on_c, 1, 63, 70
1, 10944, Note_on_c, 1, 60, 70
1, 10974, Note_on_c, 0, 68, 0
1, 10976, Note_on_c, 0, 72, 75
1, 11006, Note_on_c, 0, 72, 0
1, 11008, Note_on_c, 0, 68, 75
1, 11033, Note_on_c, 1, 63, 0
1, 11033, Note_on_c, 1, 60, 0
1, 11038, Note_on_c, 0, 68, 0
1, 11040, Note_on_c, 0, 67, 75
1, 11040, Note_on_c, 1, 62, 70
1, 11040, Note_on_c, 1, 58, 70
1, 11070, Note_on_c, 0, 67, 0
1, 11072, Note_on_c, 0, 70, 75
1, 11102, Note_on_c, 0, 70, 0
1, 11104, Note_on_c, 0, 67, 75
1, 11129, Note_on_c, 1, 62, 0
1, 11129, Note_on_c, 1, 58, 0
1, 11134, Note_on_c, 0, 67, 0
1, 11136, Note_on_c, 0, 65, 75
1, 11136, Note_on_c, 1, 60, 70
1, 11136, Note_on_c, 1, 56, 70
1, 11166, Note_on_c, 0, 65, 0
1, 11168, Note_on_c, 0, 68, 75
1, 11198, Note_on_c, 0, 68, 0
1, 11200, Note_on_c, 0, 65, 75
1, 11225, Note_on_c, 1, 60, 0
1, 11225, Note_on_c, 1, 56, 0
1, 11230, Note_on_c, 0, 65, 0
1, 11232, Note_on_c, 0, 70, 75
1, 11232, Note_on_c, 1, 58, 70
1, 11232, Note_on_c, 1, 55, 70
1, 11262, Note_on_c, 0, 70, 0
1, 11264, Note_on_c, 0, 62, 75
1, 11294, Note_on_c, 0, 62, 0
1, 11296, Note_on_c, 0, 63, 75
1, 11321, Note_on_c, 1, 58, 0
1, 11321, Note_on_c, 1, 55, 0
1, 11326, Note_on_c, 0, 63, 0
1, 11328, Note_on_c, 0, 72, 75
1, 11328, Note_on_c, 1, 56, 70
1, 11358, Note_on_c, 0, 72, 0
1, 11360, Note_on_c, 0, 64, 91
1, 11392, Note_on_c, 0, 64, 0
1, 11392, Note_on_c, 0, 65, 73
1, 11422, Note_on_c, 0, 65, 0
1, 11424, Note_on_c, 0, 72, 72
1, 11454, Note_on_c, 0, 72, 0
1, 11456, Note_on_c, 0, 68, 71
1, 11486, Note_on_c, 0, 68, 0
1, 11488, Note_on_c, 0, 65, 70
1, 11505, Note_on_c, 1, 56, 0
1, 11518, Note_on_c, 0, 65, 0
1, 11520, Note_on_c, 0, 63, 69
1, 11520, Note_on_c, 1, 55, 75
1, 11520, Note_on_c, 1, 46, 64
1, 11616, Note_on_c, 0, 63, 0
1, 11616, Note_on_c, 0, 62, 66
1, 11616, Note_on_c, 1, 55, 0
1, 11616, Note_on_c, 1, 53, 67
1, 11636, Note_on_c, 0, 62, 0
1, 11653, Note_on_c, 1, 46, 0
1, 11661, Note_on_c, 1, 53, 0
1, 11688, Note_on_c, 0, 70, 70
1, 11711, Note_on_c, 0, 70, 0
1, 11712, Note_on_c, 0, 72, 70
1, 11724, Note_on_c, 0, 72, 0
1, 11724, Note_on_c, 0, 70, 70
1, 11736, Note_on_c, 0, 70, 0
1, 11736, Note_on_c, 0, 69, 70
1, 11748, Note_on_c, 0, 69, 0
1, 11748, Note_on_c, 0, 70, 70
1, 11801, Note_on_c, 0, 70, 0
1, 11808, Note_on_c, 0, 75, 70
1, 11808, Note_on_c, 1, 63, 58
1, 11828, Note_on_c, 0, 75, 0
1, 11856, Note_on_c, 1, 63, 0
1, 11856, Note_on_c, 1, 67, 58
1, 11876, Note_on_c, 1, 67, 0
1, 11904, Note_on_c, 0, 75, 70
1, 11904, Note_on_c, 1, 63, 58
1, 11924, Note_on_c, 0, 75, 0
1, 11952, Note_on_c, 1, 63, 0
1, 11952, Note_on_c, 1, 67, 58
1, 11972, Note_on_c, 1, 67, 0
1, 12000, Note_on_c, 0, 77, 70
1, 12000, Note_on_c, 1, 63, 58
1, 12012, Note_on_c, 0, 77, 0
1, 12012, Note_on_c, 0, 75, 70
1, 12024, Note_on_c, 0, 75, 0
1, 12024, Note_on_c, 0, 74, 70
1, 12036, Note_on_c, 0, 74, 0
1, 12036, Note_on_c, 0, 75, 70
1, 12048, Note_on_c, 1, 63, 0
1, 12048, Note_on_c, 1, 67, 58
1, 12068, Note_on_c, 1, 67, 0
1, 12072, Note_on_c, 0, 75, 0
1, 12072, Note_on_c, 0, 77, 70
1, 12095, Note_on_c, 0, 77, 0
1, 12096, Note_on_c, 0, 74, 70
1, 12096, Note_on_c, 1, 63, 58
1, 12116, Note_on_c, 0, 74, 0
1, 12144, Note_on_c, 1, 63, 0
1, 12144, Note_on_c, 1, 68, 58
1, 12164, Note_on_c, 1, 68, 0
1, 12192, Note_on_c, 0, 74, 70
1, 12192, Note_on_c, 1, 63, 58
1, 12212, Note_on_c, 0, 74, 0
1, 12240, Note_on_c, 1, 63, 0
1, 12240, Note_on_c, 1, 68, 58
1, 12260, Note_on_c, 1, 68, 0
1, 12288, Note_on_c, 0, 74, 70
1, 12288, Note_on_c, 1, 63, 58
1, 12318, Note_on_c, 0, 74, 0
1, 12320, Note_on_c, 0, 77, 70
1, 12336, Note_on_c, 1, 63, 0
1, 12336, Note_on_c, 1, 68, 58
1, 12350, Note_on_c, 0, 77, 0
1, 12352, Note_on_c, 0, 80, 70
1, 12356, Note_on_c, 1, 68, 0
1, 12382, Note_on_c, 0, 80, 0
1, 12384, Note_on_c, 0, 84, 86
1, 12384, Note_on_c, 1, 63, 58
1, 12416, Note_on_c, 0, 84, 0
1, 12416, Note_on_c, 0, 82, 70
1, 12432, Note_on_c, 1, 63, 0
1, 12432, Note_on_c, 1, 68, 58
1, 12446, Note_on_c, 0, 82, 0
1, 12448, Note_on_c, 0, 80, 70
1, 12452, Note_on_c, 1, 68, 0
1, 12478, Note_on_c, 0, 80, 0
1, 12480, Note_on_c, 0, 79, 70
1, 12480, Note_on_c, 1, 63, 58
1, 12510, Note_on_c, 0, 79, 0
1, 12512, Note_on_c, 0, 77, 70
1, 12528, Note_on_c, 1, 63, 0
1, 12528, Note_on_c, 1, 68, 58
1, 12542, Note_on_c, 0, 77, 0
1, 12544, Note_on_c, 0, 75, 70
1, 12548, Note_on_c, 1, 68, 0
1, 12574, Note_on_c, 0, 75, 0
1, 12576, Note_on_c, 0, 74, 70
1, 12576, Note_on_c, 1, 63, 58
1, 12606, Note_on_c, 0, 74, 0
1, 12608, Note_on_c, 0, 80, 70
1, 12624, Note_on_c, 1, 63, 0
1, 12624, Note_on_c, 1, 68, 58
1, 12638, Note_on_c, 0, 80, 0
1, 12640, Note_on_c, 0, 74, 70
1, 12644, Note_on_c, 1, 68, 0
1, 12670, Note_on_c, 0, 74, 0
1, 12672, Note_on_c, 0, 75, 70
1, 12672, Note_on_c, 1, 63, 58
1, 12692, Note_on_c, 0, 75, 0
1, 12720, Note_on_c, 1, 63, 0
1, 12720, Note_on_c, 1, 67, 58
1, 12740, Note_on_c, 1, 67, 0
1, 12768, Note_on_c, 0, 75, 70
1, 12768, Note_on_c, 1, 63, 58
1, 12788, Note_on_c, 0, 75, 0
1, 12816, Note_on_c, 1, 63, 0
1, 12816, Note_on_c, 1, 67, 58
1, 12836, Note_on_c, 1, 67, 0
1, 12840, Note_on_c, 0, 75, 70
1, 12863, Note_on_c, 0, 75, 0
1, 12864, Note_on_c, 0, 77, 70
1, 12864, Note_on_c, 1, 63, 58
1, 12870, Note_on_c, 0, 77, 0
1, 12870, Note_on_c, 0, 75, 70
1, 12887, Note_on_c, 0, 75, 0
1, 12888, Note_on_c, 0, 74, 70
1, 12911, Note_on_c, 0, 74, 0
1, 12912, Note_on_c, 0, 75, 70
1, 12912, Note_on_c, 1, 63, 0
1, 12912, Note_on_c, 1, 67, 58
1, 12932, Note_on_c, 1, 67, 0
1, 12935, Note_on_c, 0, 75, 0
1, 12936, Note_on_c, 0, 77, 70
1, 12959, Note_on_c, 0, 77, 0
1, 12960, Note_on_c, 0, 79, 70
1, 12960, Note_on_c, 1, 61, 64
1, 12999, Note_on_c, 0, 79, 0
1, 13005, Note_on_c, 1, 61, 0
1, 13008, Note_on_c, 1, 63, 65
1, 13053, Note_on_c, 1, 63, 0
1, 13056, Note_on_c, 0, 79, 71
1, 13056, Note_on_c, 1, 61, 66
1, 13101, Note_on_c, 1, 61, 0
1, 13104, Note_on_c, 1, 63, 68
1, 13123, Note_on_c, 0, 79, 0
1, 13128, Note_on_c, 0, 82, 72
1, 13149, Note_on_c, 1, 63, 0
1, 13151, Note_on_c, 0, 82, 0
1, 13152, Note_on_c, 0, 87, 73
1, 13152, Note_on_c, 1, 61, 69
1, 13182, Note_on_c, 0, 87, 0
1, 13184, Note_on_c, 0, 82, 73
1, 13197, Note_on_c, 1, 61, 0
1, 13200, Note_on_c, 1, 63, 70
1, 13214, Note_on_c, 0, 82, 0
1, 13216, Note_on_c, 0, 79, 74
1, 13245, Note_on_c, 1, 63, 0
1, 13246, Note_on_c, 0, 79, 0
1, 13248, Note_on_c, 0, 80, 74
1, 13248, Note_on_c, 1, 60, 72
1, 13293, Note_on_c, 1, 60, 0
1, 13296, Note_on_c, 1, 63, 73
1, 13301, Note_on_c, 0, 80, 0
1, 13308, Note_on_c, 0, 82, 74
1, 13320, Note_on_c, 0, 82, 0
1, 13320, Note_on_c, 0, 80, 74
1, 13332, Note_on_c, 0, 80, 0
1, 13332, Note_on_c, 0, 79, 74
1, 13341, Note_on_c, 1, 63, 0
1, 13344, Note_on_c, 0, 79, 0
1, 13344, Note_on_c, 0, 80, 76
1, 13344, Note_on_c, 1, 60, 74
1, 13389, Note_on_c, 1, 60, 0
1, 13392, Note_on_c, 1, 63, 76
1, 13411, Note_on_c, 0, 80, 0
1, 13416, Note_on_c, 0, 82, 77
1, 13437, Note_on_c, 1, 63, 0
1, 13439, Note_on_c, 0, 82, 0
1, 13440, Note_on_c, 0, 84, 78
1, 13440, Note_on_c, 1, 56, 77
1, 13470, Note_on_c, 0, 84, 0
1, 13472, Note_on_c, 0, 80, 78
1, 13485, Note_on_c, 1, 56, 0
1, 13488, Note_on_c, 1, 65, 78
1, 13502, Note_on_c, 0, 80, 0
1, 13504, Note_on_c, 0, 77, 79
1, 13533, Note_on_c, 1, 65, 0
1, 13534, Note_on_c, 0, 77, 0
1, 13536, Note_on_c, 0, 75, 80
1, 13536, Note_on_c, 1, 67, 80
1, 13536, Note_on_c, 1, 58, 80
1, 13589, Note_on_c, 0, 75, 0
1, 13596, Note_on_c, 0, 77, 80
1, 13608, Note_on_c, 0, 77, 0
1, 13608, Note_on_c, 0, 75, 80
1, 13620, Note_on_c, 0, 75, 0
1, 13620, Note_on_c, 0, 74, 80
1, 13632, Note_on_c, 0, 74, 0
1, 13632, Note_on_c, 0, 75, 80
1, 13699, Note_on_c, 0, 75, 0
1, 13704, Note_on_c, 0, 79, 80
1, 13713, Note_on_c, 1, 67, 0
1, 13713, Note_on_c, 1, 58, 0
1, 13727, Note_on_c, 0, 79, 0
1, 13728, Note_on_c, 0, 77, 80
1, 13728, Note_on_c, 1, 68, 80
1, 13795, Note_on_c, 0, 77, 0
1, 13800, Note_on_c, 0, 74, 80
1, 13817, Note_on_c, 1, 68, 0
1, 13823, Note_on_c, 0, 74, 0
1, 13824, Note_on_c, 0, 75, 80
1, 13824, Note_on_c, 1, 67, 80
1, 13824, Note_on_c, 1, 63, 80
1, 13863, Note_on_c, 0, 75, 0
1, 13863, Note_on_c, 1, 67, 0
1, 13913, Note_on_c, 1, 63, 0
1, 14016, Note_on_c, 0, 70, 64
1, 14016, Note_on_c, 0, 67, 64
1, 14105, Note_on_c, 0, 70, 0
1, 14105, Note_on_c, 0, 67, 0
1, 14112, Note_on_c, 0, 72, 64
1, 14112, Note_on_c, 0, 68, 64
1, 14157, Note_on_c, 0, 72, 0
1, 14157, Note_on_c, 0, 68, 0
1, 14160, Note_on_c, 0, 70, 64
1, 14160, Note_on_c, 0, 67, 64
1, 14205, Note_on_c, 0, 70, 0
1, 14205, Note_on_c, 0, 67, 0
1, 14208, Note_on_c, 0, 68, 64
1, 14208, Note_on_c, 0, 65, 64
1, 14253, Note_on_c, 0, 68, 0
1, 14253, Note_on_c, 0, 65, 0
1, 14256, Note_on_c, 0, 67, 64
1, 14256, Note_on_c, 0, 63, 64
1, 14301, Note_on_c, 0, 67, 0
1, 14301, Note_on_c, 0, 63, 0
1, 14304, Note_on_c, 0, 65, 64
1, 14304, Note_on_c, 0, 60, 64
1, 14304, Note_on_c, 1, 56, 64
1, 14304, Note_on_c, 1, 44, 64
1, 14324, Note_on_c, 0, 65, 0
1, 14324, Note_on_c, 0, 60, 0
1, 14324, Note_on_c, 1, 56, 0
1, 14324, Note_on_c, 1, 44, 0
1, 14400, Note_on_c, 0, 65, 64
1, 14400, Note_on_c, 0, 60, 64
1, 14400, Note_on_c, 1, 56, 64
1, 14400, Note_on_c, 1, 44, 64
1, 14445, Note_on_c, 0, 65, 0
1, 14445, Note_on_c, 0, 60, 0
1, 14445, Note_on_c, 1, 56, 0
1, 14445, Note_on_c, 1, 44, 0
1, 14592, Note_on_c, 0, 80, 64
1, 14592, Note_on_c, 0, 77, 64
1, 14681, Note_on_c, 0, 80, 0
1, 14681, Note_on_c, 0, 77, 0
1, 14688, Note_on_c, 0, 82, 64
1, 14688, Note_on_c, 0, 79, 64
1, 14733, Note_on_c, 0, 82, 0
1, 14733, Note_on_c, 0, 79, 0
1, 14736, Note_on_c, 0, 80, 64
1, 14736, Note_on_c, 0, 77, 64
1, 14781, Note_on_c, 0, 80, 0
1, 14781, Note_on_c, 0, 77, 0
1, 14784, Note_on_c, 0, 79, 64
1, 14784, Note_on_c, 0, 75, 64
1, 14829, Note_on_c, 0, 79, 0
1, 14829, Note_on_c, 0, 75, 0
1, 14832, Note_on_c, 0, 77, 64
1, 14832, Note_on_c, 0, 74, 64
1, 14877, Note_on_c, 0, 77, 0
1, 14877, Note_on_c, 0, 74, 0
1, 14880, Note_on_c, 0, 75, 64
1, 14880, Note_on_c, 1, 70, 64
1, 14880, Note_on_c, 1, 67, 64
1, 14900, Note_on_c, 0, 75, 0
1, 14900, Note_on_c, 1, 70, 0
1, 14900, Note_on_c, 1, 67, 0
1, 14976, Note_on_c, 0, 75, 64
1, 14976, Note_on_c, 1, 70, 64
1, 14976, Note_on_c, 1, 67, 64
1, 15021, Note_on_c, 0, 75, 0
1, 15021, Note_on_c, 1, 70, 0
1, 15021, Note_on_c, 1, 67, 0
1, 15144, Note_on_c, 0, 87, 80
1, 15167, Note_on_c, 0, 87, 0
1, 15168, Note_on_c, 0, 89, 80
1, 15180, Note_on_c, 0, 89, 0
1, 15180, Note_on_c, 0, 87, 80
1, 15192, Note_on_c, 0, 87, 0
1, 15192, Note_on_c, 0, 86, 80
1, 15204, Note_on_c, 0, 86, 0
1, 15204, Note_on_c, 0, 87, 96
1, 15264, Note_on_c, 0, 87, 0
1, 15264, Note_on_c, 0, 89, 80
1, 15264, Note_on_c, 1, 53, 105
1, 15264, Note_on_c, 1, 51, 105
1, 15264, Note_on_c, 1, 48, 105
1, 15264, Note_on_c, 1, 45, 105
1, 15294, Note_on_c, 0, 89, 0
1, 15296, Note_on_c, 0, 87, 80
1, 15326, Note_on_c, 0, 87, 0
1, 15328, Note_on_c, 0, 86, 80
1, 15358, Note_on_c, 0, 86, 0
1, 15360, Note_on_c, 0, 84, 80
1, 15390, Note_on_c, 0, 84, 0
1, 15392, Note_on_c, 0, 82, 80
1, 15422, Note_on_c, 0, 82, 0
1, 15424, Note_on_c, 0, 81, 80
1, 15454, Note_on_c, 0, 81, 0
1, 15456, Note_on_c, 0, 79, 80
1, 15486, Note_on_c, 0, 79, 0
1, 15488, Note_on_c, 0, 77, 80
1, 15518, Note_on_c, 0, 77, 0
1, 15520, Note_on_c, 0, 75, 80
1, 15529, Note_on_c, 1, 53, 0
1, 15529, Note_on_c, 1, 51, 0
1, 15529, Note_on_c, 1, 48, 0
1, 15529, Note_on_c, 1, 45, 0
1, 15550, Note_on_c, 0, 75, 0
1, 15552, Note_on_c, 0, 74, 80
1, 15552, Note_on_c, 1, 53, 80
1, 15552, Note_on_c, 1, 50, 80
1, 15552, Note_on_c, 1, 46, 80
1, 15582, Note_on_c, 0, 74, 0
1, 15584, Note_on_c, 0, 72, 80
1, 15614, Note_on_c, 0, 72, 0
1, 15616, Note_on_c, 0, 70, 80
1, 15646, Note_on_c, 0, 70, 0
1, 15648, Note_on_c, 0, 69, 80
1, 15678, Note_on_c, 0, 69, 0
1, 15680, Note_on_c, 0, 67, 80
1, 15710, Note_on_c, 0, 67, 0
1, 15712, Note_on_c, 0, 65, 80
1, 15742, Note_on_c, 0, 65, 0
1, 15744, Note_on_c, 0, 63, 80
1, 15774, Note_on_c, 0, 63, 0
1, 15776, Note_on_c, 0, 62, 80
1, 15806, Note_on_c, 0, 62, 0
1, 15808, Note_on_c, 0, 60, 80
1, 15817, Note_on_c, 1, 53, 0
1, 15817, Note_on_c, 1, 50, 0
1, 15817, Note_on_c, 1, 46, 0
1, 15838, Note_on_c, 0, 60, 0
1, 15840, Note_on_c, 0, 59, 80
1, 15840, Note_on_c, 1, 47, 80
1, 15840, Note_on_c, 1, 35, 80
1, 15870, Note_on_c, 0, 59, 0
1, 15872, Note_on_c, 0, 62, 80
1, 15902, Note_on_c, 0, 62, 0
1, 15904, Note_on_c, 0, 59, 80
1, 15929, Note_on_c, 1, 47, 0
1, 15929, Note_on_c, 1, 35, 0
1, 15934, Note_on_c, 0, 59, 0
1, 15936, Note_on_c, 0, 60, 80
1, 15936, Note_on_c, 1, 48, 80
1, 15936, Note_on_c, 1, 36, 80
1, 15966, Note_on_c, 0, 60, 0
1, 15968, Note_on_c, 0, 63, 80
1, 15998, Note_on_c, 0, 63, 0
1, 16000, Note_on_c, 0, 60, 80
1, 16025, Note_on_c, 1, 48, 0
1, 16025, Note_on_c, 1, 36, 0
1, 16030, Note_on_c, 0, 60, 0
1, 16032, Note_on_c, 0, 53, 80
1, 16032, Note_on_c, 1, 41, 80
1, 16032, Note_on_c, 1, 29, 80
1, 16062, Note_on_c, 0, 53, 0
1, 16064, Note_on_c, 0, 57, 80
1, 16094, Note_on_c, 0, 57, 0
1, 16096, Note_on_c, 0, 53, 80
1, 16121, Note_on_c, 1, 41, 0
1, 16121, Note_on_c, 1, 29, 0
1, 16126, Note_on_c, 0, 53, 0
1, 16128, Note_on_c, 0, 58, 80
1, 16128, Note_on_c, 1, 46, 80
1, 16128, Note_on_c, 1, 34, 80
1, 16217, Note_on_c, 0, 58, 0
1, 16217, Note_on_c, 1, 46, 0
1, 16217, Note_on_c, 1, 34, 0
1, 16320, Note_on_c, 0, 70, 64
1, 16320, Note_on_c, 0, 67, 64
1, 16409, Note_on_c, 0, 70, 0
1, 16409, Note_on_c, 0, 67, 0
1, 16416, Note_on_c, 0, 72, 64
1, 16416, Note_on_c, 0, 68, 64
1, 16461, Note_on_c, 0, 72, 0
1, 16461, Note_on_c, 0, 68, 0
1, 16464, Note_on_c, 0, 70, 64
1, 16464, Note_on_c, 0, 67, 64
1, 16509, Note_on_c, 0, 70, 0
1, 16509, Note_on_c, 0, 67, 0
1, 16512, Note_on_c, 0, 68, 64
1, 16512, Note_on_c, 0, 65, 64
1, 16557, Note_on_c, 0, 68, 0
1, 16557, Note_on_c, 0, 65, 0
1, 16560, Note_on_c, 0, 67, 64
1, 16560, Note_on_c, 0, 63, 64
1, 16605, Note_on_c, 0, 67, 0
1, 16605, Note_on_c, 0, 63, 0
1, 16608, Note_on_c, 0, 65, 64
1, 16608, Note_on_c, 0, 60, 64
1, 16608, Note_on_c, 1, 56, 64
1, 16608, Note_on_c, 1, 44, 64
1, 16628, Note_on_c, 0, 65, 0
1, 16628, Note_on_c, 0, 60, 0
1, 16628, Note_on_c, 1, 56, 0
1, 16628, Note_on_c, 1, 44, 0
1, 16704, Note_on_c, 0, 65, 64
1, 16704, Note_on_c, 0, 60, 64
1, 16704, Note_on_c, 1, 56, 64
1, 16704, Note_on_c, 1, 44, 64
1, 16749, Note_on_c, 0, 65, 0
1, 16749, Note_on_c, 0, 60, 0
1, 16749, Note_on_c, 1, 56, 0
1, 16749, Note_on_c, 1, 44, 0
1, 16896, Note_on_c, 0, 80, 64
1, 16896, Note_on_c, 0, 77, 64
1, 16985, Note_on_c, 0, 80, 0
1, 16985, Note_on_c, 0, 77, 0
1, 16992, Note_on_c, 0, 82, 64
1, 16992, Note_on_c, 0, 79, 64
1, 17037, Note_on_c, 0, 82, 0
1, 17037, Note_on_c, 0, 79, 0
1, 17040, Note_on_c, 0, 80, 64
1, 17040, Note_on_c, 0, 77, 64
1, 17085, Note_on_c, 0, 80, 0
1, 17085, Note_on_c, 0, 77, 0
1, 17088, Note_on_c, 0, 79, 64
1, 17088, Note_on_c, 0, 75, 64
1, 17133, Note_on_c, 0, 79, 0
1, 17133, Note_on_c, 0, 75, 0
1, 17136, Note_on_c, 0, 77, 64
1, 17136, Note_on_c, 0, 74, 64
1, 17181, Note_on_c, 0, 77, 0
1, 17181, Note_on_c, 0, 74, 0
1, 17184, Note_on_c, 0, 75, 64
1, 17184, Note_on_c, 1, 70, 64
1, 17184, Note_on_c, 1, 67, 64
1, 17204, Note_on_c, 0, 75, 0
1, 17204, Note_on_c, 1, 70, 0
1, 17204, Note_on_c, 1, 67, 0
1, 17280, Note_on_c, 0, 75, 64
1, 17280, Note_on_c, 1, 70, 64
1, 17280, Note_on_c, 1, 67, 64
1, 17325, Note_on_c, 0, 75, 0
1, 17325, Note_on_c, 1, 70, 0
1, 17325, Note_on_c, 1, 67, 0
1, 17448, Note_on_c, 0, 87, 80
1, 17471, Note_on_c, 0, 87, 0
1, 17472, Note_on_c, 0, 89, 80
1, 17484, Note_on_c, 0, 89, 0
1, 17484, Note_on_c, 0, 87, 80
1, 17496, Note_on_c, 0, 87, 0
1, 17496, Note_on_c, 0, 86, 80
1, 17508, Note_on_c, 0, 86, 0
1, 17508, Note_on_c, 0, 87, 96
1, 17568, Note_on_c, 0, 87, 0
1, 17568, Note_on_c, 0, 89, 80
1, 17568, Note_on_c, 1, 53, 105
1, 17568, Note_on_c, 1, 51, 105
1, 17568, Note_on_c, 1, 48, 105
1, 17568, Note_on_c, 1, 45, 105
1, 17598, Note_on_c, 0, 89, 0
1, 17600, Note_on_c, 0, 87, 80
1, 17630, Note_on_c, 0, 87, 0
1, 17632, Note_on_c, 0, 86, 80
1, 17662, Note_on_c, 0, 86, 0
1, 17664, Note_on_c, 0, 84, 80
1, 17694, Note_on_c, 0, 84, 0
1, 17696, Note_on_c, 0, 82, 80
1, 17726, Note_on_c, 0, 82, 0
1, 17728, Note_on_c, 0, 81, 80
1, 17758, Note_on_c, 0, 81, 0
1, 17760, Note_on_c, 0, 79, 80
1, 17790, Note_on_c, 0, 79, 0
1, 17792, Note_on_c, 0, 77, 80
1, 17822, Note_on_c, 0, 77, 0
1, 17824, Note_on_c, 0, 75, 80
1, 17833, Note_on_c, 1, 53, 0
1, 17833, Note_on_c, 1, 51, 0
1, 17833, Note_on_c, 1, 48, 0
1, 17833, Note_on_c, 1, 45, 0
1, 17854, Note_on_c, 0, 75, 0
1, 17856, Note_on_c, 0, 74, 80
1, 17856, Note_on_c, 1, 53, 80
1, 17856, Note_on_c, 1, 50, 80
1, 17856, Note_on_c, 1, 46, 80
1, 17886, Note_on_c, 0, 74, 0
1, 17888, Note_on_c, 0, 72, 80
1, 17918, Note_on_c, 0, 72, 0
1, 17920, Note_on_c, 0, 70, 80
1, 17950, Note_on_c, 0, 70, 0
1, 17952, Note_on_c, 0, 69, 80
1, 17982, Note_on_c, 0, 69, 0
1, 17984, Note_on_c, 0, 67, 80
1, 18014, Note_on_c, 0, 67, 0
1, 18016, Note_on_c, 0, 65, 80
1, 18046, Note_on_c, 0, 65, 0
1, 18048, Note_on_c, 0, 63, 80
1, 18078, Note_on_c, 0, 63, 0
1, 18080, Note_on_c, 0, 62, 80
1, 18110, Note_on_c, 0, 62, 0
1, 18112, Note_on_c, 0, 60, 80
1, 18121, Note_on_c, 1, 53, 0
1, 18121, Note_on_c, 1, 50, 0
1, 18121, Note_on_c, 1, 46, 0
1, 18142, Note_on_c, 0, 60, 0
1, 18144, Note_on_c, 0, 59, 80
1, 18144, Note_on_c, 1, 47, 80
1, 18144, Note_on_c, 1, 35, 80
1, 18174, Note_on_c, 0, 59, 0
1, 18176, Note_on_c, 0, 62, 80
1, 18206, Note_on_c, 0, 62, 0
1, 18208, Note_on_c, 0, 59, 80
1, 18233, Note_on_c, 1, 47, 0
1, 18233, Note_on_c, 1, 35, 0
1, 18238, Note_on_c, 0, 59, 0
1, 18240, Note_on_c, 0, 60, 80
1, 18240, Note_on_c, 1, 48, 80
1, 18240, Note_on_c, 1, 36, 80
1, 18270, Note_on_c, 0, 60, 0
1, 18272, Note_on_c, 0, 63, 80
1, 18302, Note_on_c, 0, 63, 0
1, 18304, Note_on_c, 0, 60, 80
1, 18329, Note_on_c, 1, 48, 0
1, 18329, Note_on_c, 1, 36, 0
1, 18334, Note_on_c, 0, 60, 0
1, 18336, Note_on_c, 0, 53, 80
1, 18336, Note_on_c, 1, 41, 80
1, 18336, Note_on_c, 1, 29, 80
1, 18366, Note_on_c, 0, 53, 0
1, 18368, Note_on_c, 0, 57, 80
1, 18398, Note_on_c, 0, 57, 0
1, 18400, Note_on_c, 0, 53, 80
1, 18425, Note_on_c, 1, 41, 0
1, 18425, Note_on_c, 1, 29, 0
1, 18430, Note_on_c, 0, 53, 0
1, 18432, Note_on_c, 0, 58, 80
1, 18432, Note_on_c, 1, 46, 80
1, 18432, Note_on_c, 1, 34, 80
1, 18521, Note_on_c, 0, 58, 0
1, 18521, Note_on_c, 1, 46, 0
1, 18521, Note_on_c, 1, 34, 0
1, 18624, Note_on_c, 0, 70, 64
1, 18624, Note_on_c, 1, 58, 64
1, 18654, Note_on_c, 0, 70, 0
1, 18656, Note_on_c, 0, 74, 64
1, 18686, Note_on_c, 0, 74, 0
1, 18688, Note_on_c, 0, 70, 64
1, 18713, Note_on_c, 1, 58, 0
1, 18718, Note_on_c, 0, 70, 0
1, 18720, Note_on_c, 0, 72, 64
1, 18720, Note_on_c, 1, 57, 64
1, 18750, Note_on_c, 0, 72, 0
1, 18752, Note_on_c, 0, 75, 65
1, 18782, Note_on_c, 0, 75, 0
1, 18784, Note_on_c, 0, 72, 66
1, 18809, Note_on_c, 1, 57, 0
1, 18814, Note_on_c, 0, 72, 0
1, 18816, Note_on_c, 0, 74, 67
1, 18816, Note_on_c, 1, 56, 67
1, 18846, Note_on_c, 0, 74, 0
1, 18848, Note_on_c, 0, 77, 68
1, 18878, Note_on_c, 0, 77, 0
1, 18880, Note_on_c, 0, 74, 69
1, 18905, Note_on_c, 1, 56, 0
1, 18910, Note_on_c, 0, 74, 0
1, 18912, Note_on_c, 0, 75, 70
1, 18912, Note_on_c, 1, 55, 71
1, 18942, Note_on_c, 0, 75, 0
1, 18944, Note_on_c, 0, 79, 72
1, 18974, Note_on_c, 0, 79, 0
1, 18976, Note_on_c, 0, 75, 73
1, 19001, Note_on_c, 1, 55, 0
1, 19006, Note_on_c, 0, 75, 0
1, 19008, Note_on_c, 0, 80, 75
1, 19008, Note_on_c, 0, 77, 75
1, 19008, Note_on_c, 1, 50, 75
1, 19047, Note_on_c, 0, 80, 0
1, 19047, Note_on_c, 0, 77, 0
1, 19097, Note_on_c, 1, 50, 0
1, 19200, Note_on_c, 0, 75, 70
1, 19200, Note_on_c, 1, 55, 70
1, 19200, Note_on_c, 1, 51, 70
1, 19230, Note_on_c, 0, 75, 0
1, 19232, Note_on_c, 0, 79, 70
1, 19262, Note_on_c, 0, 79, 0
1, 19264, Note_on_c, 0, 75, 71
1, 19289, Note_on_c, 1, 55, 0
1, 19289, Note_on_c, 1, 51, 0
1, 19294, Note_on_c, 0, 75, 0
1, 19296, Note_on_c, 0, 77, 72
1, 19296, Note_on_c, 1, 56, 72
1, 19296, Note_on_c, 1, 50, 72
1, 19326, Note_on_c, 0, 77, 0
1, 19328, Note_on_c, 0, 80, 73
1, 19358, Note_on_c, 0, 80, 0
1, 19360, Note_on_c, 0, 77, 73
1, 19385, Note_on_c, 1, 56, 0
1, 19385, Note_on_c, 1, 50, 0
1, 19390, Note_on_c, 0, 77, 0
1, 19392, Note_on_c, 0, 79, 74
1, 19392, Note_on_c, 1, 58, 75
1, 19392, Note_on_c, 1, 49, 75
1, 19422, Note_on_c, 0, 79, 0
1, 19424, Note_on_c, 0, 82, 75
1, 19454, Note_on_c, 0, 82, 0
1, 19456, Note_on_c, 0, 79, 76
1, 19481, Note_on_c, 1, 58, 0
1, 19481, Note_on_c, 1, 49, 0
1, 19486, Note_on_c, 0, 79, 0
1, 19488, Note_on_c, 0, 80, 77
1, 19488, Note_on_c, 1, 56, 77
1, 19488, Note_on_c, 1, 48, 77
1, 19518, Note_on_c, 0, 80, 0
1, 19520, Note_on_c, 0, 84, 77
1, 19550, Note_on_c, 0, 84, 0
1, 19552, Note_on_c, 0, 80, 78
1, 19577, Note_on_c, 1, 56, 0
1, 19577, Note_on_c, 1, 48, 0
1, 19582, Note_on_c, 0, 80, 0
1, 19584, Note_on_c, 0, 85, 80
1, 19584, Note_on_c, 1, 56, 80
1, 19584, Note_on_c, 1, 46, 80
1, 19614, Note_on_c, 0, 85, 0
1, 19616, Note_on_c, 0, 84, 80
1, 19646, Note_on_c, 0, 84, 0
1, 19648, Note_on_c, 0, 82, 80
1, 19678, Note_on_c, 0, 82, 0
1, 19680, Note_on_c, 0, 80, 80
1, 19710, Note_on_c, 0, 80, 0
1, 19712, Note_on_c, 0, 79, 80
1, 19742, Note_on_c, 0, 79, 0
1, 19744, Note_on_c, 0, 77, 80
1, 19761, Note_on_c, 1, 56, 0
1, 19774, Note_on_c, 0, 77, 0
1, 19776, Note_on_c, 0, 75, 80
1, 19776, Note_on_c, 1, 55, 80
1, 19806, Note_on_c, 0, 75, 0
1, 19808, Note_on_c, 0, 77, 80
1, 19838, Note_on_c, 0, 77, 0
1, 19840, Note_on_c, 0, 73, 80
1, 19849, Note_on_c, 1, 46, 0
1, 19865, Note_on_c, 1, 55, 0
1, 19870, Note_on_c, 0, 73, 0
1, 19872, Note_on_c, 0, 72, 80
1, 19872, Note_on_c, 1, 44, 80
1, 19902, Note_on_c, 1, 44, 0
1, 19904, Note_on_c, 1, 51, 80
1, 19934, Note_on_c, 1, 51, 0
1, 19936, Note_on_c, 1, 56, 80
1, 19966, Note_on_c, 1, 56, 0
1, 19968, Note_on_c, 0, 84, 80
1, 19968, Note_on_c, 1, 44, 80
1, 19998, Note_on_c, 1, 44, 0
1, 20000, Note_on_c, 1, 51, 80
1, 20007, Note_on_c, 0, 84, 0
1, 20030, Note_on_c, 1, 51, 0
1, 20032, Note_on_c, 1, 56, 80
1, 20062, Note_on_c, 1, 56, 0
1, 20064, Note_on_c, 0, 84, 80
1, 20064, Note_on_c, 1, 44, 80
1, 20094, Note_on_c, 1, 44, 0
1, 20096, Note_on_c, 1, 51, 80
1, 20103, Note_on_c, 0, 84, 0
1, 20126, Note_on_c, 1, 51, 0
1, 20128, Note_on_c, 1, 56, 80
1, 20137, Note_on_c, 0, 72, 0
1, 20158, Note_on_c, 1, 56, 0
1, 20160, Note_on_c, 0, 72, 105
1, 20160, Note_on_c, 1, 43, 80
1, 20190, Note_on_c, 1, 43, 0
1, 20192, Note_on_c, 1, 52, 80
1, 20222, Note_on_c, 1, 52, 0
1, 20224, Note_on_c, 1, 55, 80
1, 20254, Note_on_c, 1, 55, 0
1, 20256, Note_on_c, 0, 83, 80
1, 20256, Note_on_c, 1, 43, 80
1, 20268, Note_on_c, 0, 83, 0
1, 20268, Note_on_c, 0, 84, 80
1, 20286, Note_on_c, 1, 43, 0
1, 20288, Note_on_c, 1, 52, 80
1, 20295, Note_on_c, 0, 84, 0
1, 20318, Note_on_c, 1, 52, 0
1, 20320, Note_on_c, 1, 55, 80
1, 20350, Note_on_c, 1, 55, 0
1, 20352, Note_on_c, 0, 83, 80
1, 20352, Note_on_c, 1, 43, 80
1, 20364, Note_on_c, 0, 83, 0
1, 20364, Note_on_c, 0, 84, 80
1, 20382, Note_on_c, 1, 43, 0
1, 20384, Note_on_c, 1, 52, 80
1, 20391, Note_on_c, 0, 84, 0
1, 20414, Note_on_c, 1, 52, 0
1, 20416, Note_on_c, 1, 55, 80
1, 20425, Note_on_c, 0, 72, 0
1, 20446, Note_on_c, 1, 55, 0
1, 20448, Note_on_c, 0, 72, 80
1, 20448, Note_on_c, 1, 44, 80
1, 20478, Note_on_c, 0, 72, 0
1, 20480, Note_on_c, 0, 84, 79
1, 20510, Note_on_c, 0, 84, 0
1, 20512, Note_on_c, 0, 82, 78
1, 20542, Note_on_c, 0, 82, 0
1, 20544, Note_on_c, 0, 80, 77
1, 20544, Note_on_c, 1, 48, 77
1, 20574, Note_on_c, 0, 80, 0
1, 20576, Note_on_c, 0, 79, 77
1, 20606, Note_on_c, 0, 79, 0
1, 20608, Note_on_c, 0, 77, 76
1, 20633, Note_on_c, 1, 48, 0
1, 20638, Note_on_c, 0, 77, 0
1, 20640, Note_on_c, 0, 76, 75
1, 20640, Note_on_c, 1, 53, 75
1, 20670, Note_on_c, 0, 76, 0
1, 20672, Note_on_c, 0, 77, 75
1, 20702, Note_on_c, 0, 77, 0
1, 20704, Note_on_c, 0, 84, 74
1, 20713, Note_on_c, 1, 44, 0
1, 20729, Note_on_c, 1, 53, 0
1, 20734, Note_on_c, 0, 84, 0
1, 20736, Note_on_c, 0, 75, 73
1, 20736, Note_on_c, 1, 55, 73
1, 20736, Note_on_c, 1, 46, 80
1, 20832, Note_on_c, 0, 75, 0
1, 20832, Note_on_c, 0, 74, 71
1, 20832, Note_on_c, 1, 55, 0
1, 20832, Note_on_c, 1, 53, 71
1, 20852, Note_on_c, 0, 74, 0
1, 20877, Note_on_c, 1, 53, 0
1, 20913, Note_on_c, 1, 46, 0
1, 20928, Note_on_c, 0, 70, 64
1, 20928, Note_on_c, 0, 67, 64
1, 21017, Note_on_c, 0, 70, 0
1, 21017, Note_on_c, 0, 67, 0
1, 21024, Note_on_c, 0, 72, 64
1, 21024, Note_on_c, 0, 68, 64
1, 21069, Note_on_c, 0, 72, 0
1, 21069, Note_on_c, 0, 68, 0
1, 21072, Note_on_c, 0, 70, 64
1, 21072, Note_on_c, 0, 67, 64
1, 21117, Note_on_c, 0, 70, 0
1, 21117, Note_on_c, 0, 67, 0
1, 21120, Note_on_c, 0, 68, 64
1, 21120, Note_on_c, 0, 65, 64
1, 21165, Note_on_c, 0, 68, 0
1, 21165, Note_on_c, 0, 65, 0
1, 21168, Note_on_c, 0, 67, 64
1, 21168, Note_on_c, 0, 63, 64
1, 21213, Note_on_c, 0, 67, 0
1, 21213, Note_on_c, 0, 63, 0
1, 21216, Note_on_c, 0, 65, 64
1, 21216, Note_on_c, 0, 60, 64
1, 21216, Note_on_c, 1, 56, 64
1, 21216, Note_on_c, 1, 44, 64
1, 21236, Note_on_c, 0, 65, 0
1, 21236, Note_on_c, 0, 60, 0
1, 21236, Note_on_c, 1, 56, 0
1, 21236, Note_on_c, 1, 44, 0
1, 21312, Note_on_c, 0, 65, 64
1, 21312, Note_on_c, 0, 60, 64
1, 21312, Note_on_c, 1, 56, 64
1, 21312, Note_on_c, 1, 44, 64
1, 21357, Note_on_c, 0, 65, 0
1, 21357, Note_on_c, 0, 60, 0
1, 21357, Note_on_c, 1, 56, 0
1, 21357, Note_on_c, 1, 44, 0
1, 21504, Note_on_c, 0, 80, 64
1, 21504, Note_on_c, 0, 77, 64
1, 21593, Note_on_c, 0, 80, 0
1, 21593, Note_on_c, 0, 77, 0
1, 21600, Note_on_c, 0, 82, 64
1, 21600, Note_on_c, 0, 79, 64
1, 21645, Note_on_c, 0, 82, 0
1, 21645, Note_on_c, 0, 79, 0
1, 21648, Note_on_c, 0, 80, 64
1, 21648, Note_on_c, 0, 77, 64
1, 21693, Note_on_c, 0, 80, 0
1, 21693, Note_on_c, 0, 77, 0
1, 21696, Note_on_c, 0, 79, 64
1, 21696, Note_on_c, 0, 75, 64
1, 21741, Note_on_c, 0, 79, 0
1, 21741, Note_on_c, 0, 75, 0
1, 21744, Note_on_c, 0, 77, 64
1, 21744, Note_on_c, 0, 74, 64
1, 21789, Note_on_c, 0, 77, 0
1, 21789, Note_on_c, 0, 74, 0
1, 21792, Note_on_c, 0, 75, 64
1, 21792, Note_on_c, 1, 70, 64
1, 21792, Note_on_c, 1, 67, 64
1, 21812, Note_on_c, 0, 75, 0
1, 21812, Note_on_c, 1, 70, 0
1, 21812, Note_on_c, 1, 67, 0
1, 21888, Note_on_c, 0, 75, 64
1, 21888, Note_on_c, 1, 70, 64
1, 21888, Note_on_c, 1, 67, 64
1, 21933, Note_on_c, 0, 75, 0
1, 21933, Note_on_c, 1, 70, 0
1, 21933, Note_on_c, 1, 67, 0
1, 22080, Note_on_c, 0, 47, 80
1, 22080, Note_on_c, 1, 43, 80
1, 22080, Note_on_c, 1, 31, 80
1, 22169, Note_on_c, 0, 47, 0
1, 22169, Note_on_c, 1, 43, 0
1, 22169, Note_on_c, 1, 31, 0
1, 22176, Note_on_c, 0, 48, 80
1, 22176, Note_on_c, 1, 44, 80
1, 22176, Note_on_c, 1, 32, 80
1, 22206, Note_on_c, 0, 48, 0
1, 22208, Note_on_c, 0, 50, 80
1, 22238, Note_on_c, 0, 50, 0
1, 22240, Note_on_c, 0, 51, 80
1, 22270, Note_on_c, 0, 51, 0
1, 22272, Note_on_c, 0, 53, 80
1, 22302, Note_on_c, 0, 53, 0
1, 22304, Note_on_c, 0, 55, 80
1, 22334, Note_on_c, 0, 55, 0
1, 22336, Note_on_c, 0, 56, 80
1, 22366, Note_on_c, 0, 56, 0
1, 22368, Note_on_c, 0, 58, 80
1, 22398, Note_on_c, 0, 58, 0
1, 22400, Note_on_c, 0, 60, 80
1, 22430, Note_on_c, 0, 60, 0
1, 22432, Note_on_c, 0, 62, 80
1, 22441, Note_on_c, 1, 44, 0
1, 22441, Note_on_c, 1, 32, 0
1, 22462, Note_on_c, 0, 62, 0
1, 22464, Note_on_c, 0, 63, 80
1, 22464, Note_on_c, 1, 43, 80
1, 22464, Note_on_c, 1, 31, 80
1, 22487, Note_on_c, 0, 63, 0
1, 22488, Note_on_c, 0, 65, 80
1, 22511, Note_on_c, 0, 65, 0
1, 22512, Note_on_c, 0, 67, 80
1, 22535, Note_on_c, 0, 67, 0
1, 22536, Note_on_c, 0, 68, 81
1, 22559, Note_on_c, 0, 68, 0
1, 22560, Note_on_c, 0, 70, 81
1, 22583, Note_on_c, 0, 70, 0
1, 22584, Note_on_c, 0, 72, 82
1, 22607, Note_on_c, 0, 72, 0
1, 22608, Note_on_c, 0, 74, 82
1, 22631, Note_on_c, 0, 74, 0
1, 22632, Note_on_c, 0, 75, 83
1, 22655, Note_on_c, 0, 75, 0
1, 22656, Note_on_c, 0, 77, 83
1, 22679, Note_on_c, 0, 77, 0
1, 22680, Note_on_c, 0, 79, 84
1, 22703, Note_on_c, 0, 79, 0
1, 22704, Note_on_c, 0, 75, 84
1, 22727, Note_on_c, 0, 75, 0
1, 22728, Note_on_c, 0, 74, 85
1, 22729, Note_on_c, 1, 43, 0
1, 22729, Note_on_c, 1, 31, 0
1, 22751, Note_on_c, 0, 74, 0
1, 22752, Note_on_c, 0, 72, 85
1, 22752, Note_on_c, 1, 44, 80
1, 22752, Note_on_c, 1, 32, 80
1, 22782, Note_on_c, 0, 72, 0
1, 22784, Note_on_c, 0, 70, 85
1, 22814, Note_on_c, 0, 70, 0
1, 22816, Note_on_c, 0, 68, 84
1, 22846, Note_on_c, 0, 68, 0
1, 22848, Note_on_c, 0, 67, 84
1, 22878, Note_on_c, 0, 67, 0
1, 22880, Note_on_c, 0, 65, 83
1, 22910, Note_on_c, 0, 65, 0
1, 22912, Note_on_c, 0, 63, 83
1, 22929, Note_on_c, 1, 44, 0
1, 22929, Note_on_c, 1, 32, 0
1, 22942, Note_on_c, 0, 63, 0
1, 22944, Note_on_c, 0, 62, 82
1, 22944, Note_on_c, 1, 46, 80
1, 22944, Note_on_c, 1, 34, 80
1, 22974, Note_on_c, 0, 62, 0
1, 22976, Note_on_c, 0, 70, 81
1, 23006, Note_on_c, 0, 70, 0
1, 23008, Note_on_c, 0, 62, 81
1, 23033, Note_on_c, 1, 46, 0
1, 23033, Note_on_c, 1, 34, 0
1, 23038, Note_on_c, 0, 62, 0
1, 23040, Note_on_c, 0, 63, 80
1, 23040, Note_on_c, 1, 51, 80
1, 23040, Note_on_c, 1, 39, 80
1, 23129, Note_on_c, 0, 63, 0
1, 23129, Note_on_c, 1, 51, 0
1, 23129, Note_on_c, 1, 39, 0
1, 23232, Note_on_c, 0, 70, 64
1, 23232, Note_on_c, 1, 58, 64
1, 23262, Note_on_c, 0, 70, 0
1, 23264, Note_on_c, 0, 74, 64
1, 23294, Note_on_c, 0, 74, 0
1, 23296, Note_on_c, 0, 70, 64
1, 23321, Note_on_c, 1, 58, 0
1, 23326, Note_on_c, 0, 70, 0
1, 23328, Note_on_c, 0, 72, 64
1, 23328, Note_on_c, 1, 57, 64
1, 23358, Note_on_c, 0, 72, 0
1, 23360, Note_on_c, 0, 75, 65
1, 23390, Note_on_c, 0, 75, 0
1, 23392, Note_on_c, 0, 72, 66
1, 23417, Note_on_c, 1, 57, 0
1, 23422, Note_on_c, 0, 72, 0
1, 23424, Note_on_c, 0, 74, 67
1, 23424, Note_on_c, 1, 56, 67
1, 23454, Note_on_c, 0, 74, 0
1, 23456, Note_on_c, 0, 77, 68
1, 23486, Note_on_c, 0, 77, 0
1, 23488, Note_on_c, 0, 74, 69
1, 23513, Note_on_c, 1, 56, 0
1, 23518, Note_on_c, 0, 74, 0
1, 23520, Note_on_c, 0, 75, 70
1, 23520, Note_on_c, 1, 55, 71
1, 23550, Note_on_c, 0, 75, 0
1, 23552, Note_on_c, 0, 79, 72
1, 23582, Note_on_c, 0, 79, 0
1, 23584, Note_on_c, 0, 75, 73
1, 23609, Note_on_c, 1, 55, 0
1, 23614, Note_on_c, 0, 75, 0
1, 23616, Note_on_c, 0, 80, 75
1, 23616, Note_on_c, 0, 77, 75
1, 23616, Note_on_c, 1, 50, 75
1, 23655, Note_on_c, 0, 80, 0
1, 23655, Note_on_c, 0, 77, 0
1, 23705, Note_on_c, 1, 50, 0
1, 23808, Note_on_c, 0, 75, 70
1, 23808, Note_on_c, 1, 55, 70
1, 23808, Note_on_c, 1, 51, 70
1, 23838, Note_on_c, 0, 75, 0
1, 23840, Note_on_c, 0, 79, 70
1, 23870, Note_on_c, 0, 79, 0
1, 23872, Note_on_c, 0, 75, 71
1, 23897, Note_on_c, 1, 55, 0
1, 23897, Note_on_c, 1, 51, 0
1, 23902, Note_on_c, 0, 75, 0
1, 23904, Note_on_c, 0, 77, 72
1, 23904, Note_on_c, 1, 56, 72
1, 23904, Note_on_c, 1, 50, 72
1, 23934, Note_on_c, 0, 77, 0
1, 23936, Note_on_c, 0, 80, 73
1, 23966, Note_on_c, 0, 80, 0
1, 23968, Note_on_c, 0, 77, 73
1, 23993, Note_on_c, 1, 56, 0
1, 23993, Note_on_c, 1, 50, 0
1, 23998, Note_on_c, 0, 77, 0
1, 24000, Note_on_c, 0, 79, 74
1, 24000, Note_on_c, 1, 58, 75
1, 24000, Note_on_c, 1, 49, 75
1, 24030, Note_on_c, 0, 79, 0
1, 24032, Note_on_c, 0, 82, 75
1, 24062, Note_on_c, 0, 82, 0
1, 24064, Note_on_c, 0, 79, 76
1, 24089, Note_on_c, 1, 58, 0
1, 24089, Note_on_c, 1, 49, 0
1, 24094, Note_on_c, 0, 79, 0
1, 24096, Note_on_c, 0, 80, 77
1, 24096, Note_on_c, 1, 56, 77
1, 24096, Note_on_c, 1, 48, 77
1, 24126, Note_on_c, 0, 80, 0
1, 24128, Note_on_c, 0, 84, 77
1, 24158, Note_on_c, 0, 84, 0
1, 24160, Note_on_c, 0, 80, 78
1, 24185, Note_on_c, 1, 56, 0
1, 24185, Note_on_c, 1, 48, 0
1, 24190, Note_on_c, 0, 80, 0
1, 24192, Note_on_c, 0, 85, 80
1, 24192, Note_on_c, 1, 56, 80
1, 24192, Note_on_c, 1, 46, 80
1, 24222, Note_on_c, 0, 85, 0
1, 24224, Note_on_c, 0, 84, 80
1, 24254, Note_on_c, 0, 84, 0
1, 24256, Note_on_c, 0, 82, 80
1, 24286, Note_on_c, 0, 82, 0
1, 24288, Note_on_c, 0, 80, 80
1, 24318, Note_on_c, 0, 80, 0
1, 24320, Note_on_c, 0, 79, 80
1, 24350, Note_on_c, 0, 79, 0
1, 24352, Note_on_c, 0, 77, 80
1, 24369, Note_on_c, 1, 56, 0
1, 24382, Note_on_c, 0, 77, 0
1, 24384, Note_on_c, 0, 75, 80
1, 24384, Note_on_c, 1, 55, 80
1, 24414, Note_on_c, 0, 75, 0
1, 24416, Note_on_c, 0, 77, 80
1, 24446, Note_on_c, 0, 77, 0
1, 24448, Note_on_c, 0, 73, 80
1, 24457, Note_on_c, 1, 46, 0
1, 24473, Note_on_c, 1, 55, 0
1, 24478, Note_on_c, 0, 73, 0
1, 24480, Note_on_c, 0, 72, 80
1, 24480, Note_on_c, 1, 44, 80
1, 24510, Note_on_c, 1, 44, 0
1, 24512, Note_on_c, 1, 51, 80
1, 24542, Note_on_c, 1, 51, 0
1, 24544, Note_on_c, 1, 56, 80
1, 24574, Note_on_c, 1, 56, 0
1, 24576, Note_on_c, 0, 84, 80
1, 24576, Note_on_c, 1, 44, 80
1, 24606, Note_on_c, 1, 44, 0
1, 24608, Note_on_c, 1, 51, 80
1, 24615, Note_on_c, 0, 84, 0
1, 24638, Note_on_c, 1, 51, 0
1, 24640, Note_on_c, 1, 56, 80
1, 24670, Note_on_c, 1, 56, 0
1, 24672, Note_on_c, 0, 84, 80
1, 24672, Note_on_c, 1, 44, 80
1, 24702, Note_on_c, 1, 44, 0
1, 24704, Note_on_c, 1, 51, 80
1, 24711, Note_on_c, 0, 84, 0
1, 24734, Note_on_c, 1, 51, 0
1, 24736, Note_on_c, 1, 56, 80
1, 24745, Note_on_c, 0, 72, 0
1, 24766, Note_on_c, 1, 56, 0
1, 24768, Note_on_c, 0, 72, 105
1, 24768, Note_on_c, 1, 43, 80
1, 24798, Note_on_c, 1, 43, 0
1, 24800, Note_on_c, 1, 52, 80
1, 24830, Note_on_c, 1, 52, 0
1, 24832, Note_on_c, 1, 55, 80
1, 24862, Note_on_c, 1, 55, 0
1, 24864, Note_on_c, 0, 83, 80
1, 24864, Note_on_c, 1, 43, 80
1, 24876, Note_on_c, 0, 83, 0
1, 24876, Note_on_c, 0, 84, 80
1, 24894, Note_on_c, 1, 43, 0
1, 24896, Note_on_c, 1, 52, 80
1, 24903, Note_on_c, 0, 84, 0
1, 24926, Note_on_c, 1, 52, 0
1, 24928, Note_on_c, 1, 55, 80
1, 24958, Note_on_c, 1, 55, 0
1, 24960, Note_on_c, 0, 83, 80
1, 24960, Note_on_c, 1, 43, 80
1, 24972, Note_on_c, 0, 83, 0
1, 24972, Note_on_c, 0, 84, 80
1, 24990, Note_on_c, 1, 43, 0
1, 24992, Note_on_c, 1, 52, 80
1, 24999, Note_on_c, 0, 84, 0
1, 25022, Note_on_c, 1, 52, 0
1, 25024, Note_on_c, 1, 55, 80
1, 25033, Note_on_c, 0, 72, 0
1, 25054, Note_on_c, 1, 55, 0
1, 25056, Note_on_c, 0, 72, 80
1, 25056, Note_on_c, 1, 44, 80
1, 25086, Note_on_c, 0, 72, 0
1, 25088, Note_on_c, 0, 84, 79
1, 25118, Note_on_c, 0, 84, 0
1, 25120, Note_on_c, 0, 82, 78
1, 25150, Note_on_c, 0, 82, 0
1, 25152, Note_on_c, 0, 80, 77
1, 25152, Note_on_c, 1, 48, 77
1, 25182, Note_on_c, 0, 80, 0
1, 25184, Note_on_c, 0, 79, 77
1, 25214, Note_on_c, 0, 79, 0
1, 25216, Note_on_c, 0, 77, 76
1, 25241, Note_on_c, 1, 48, 0
1, 25246, Note_on_c, 0, 77, 0
1, 25248, Note_on_c, 0, 76, 75
1, 25248, Note_on_c, 1, 53, 75
1, 25278, Note_on_c, 0, 76, 0
1, 25280, Note_on_c, 0, 77, 75
1, 25310, Note_on_c, 0, 77, 0
1, 25312, Note_on_c, 0, 84, 74
1, 25321, Note_on_c, 1, 44, 0
1, 25337, Note_on_c, 1, 53, 0
1, 25342, Note_on_c, 0, 84, 0
1, 25344, Note_on_c, 0, 75, 73
1, 25344, Note_on_c, 1, 55, 73
1, 25344, Note_on_c, 1, 46, 80
1, 25440, Note_on_c, 0, 75, 0
1, 25440, Note_on_c, 0, 74, 71
1, 25440, Note_on_c, 1, 55, 0
1, 25440, Note_on_c, 1, 53, 71
1, 25460, Note_on_c, 0, 74, 0
1, 25485, Note_on_c, 1, 53, 0
1, 25521, Note_on_c, 1, 46, 0
1, 25536, Note_on_c, 0, 70, 64
1, 25536, Note_on_c, 0, 67, 64
1, 25625, Note_on_c, 0, 70, 0
1, 25625, Note_on_c, 0, 67, 0
1, 25632, Note_on_c, 0, 72, 64
1, 25632, Note_on_c, 0, 68, 64
1, 25677, Note_on_c, 0, 72, 0
1, 25677, Note_on_c, 0, 68, 0
1, 25680, Note_on_c, 0, 70, 64
1, 25680, Note_on_c, 0, 67, 64
1, 25725, Note_on_c, 0, 70, 0
1, 25725, Note_on_c, 0, 67, 0
1, 25728, Note_on_c, 0, 68, 64
1, 25728, Note_on_c, 0, 65, 64
1, 25773, Note_on_c, 0, 68, 0
1, 25773, Note_on_c, 0, 65, 0
1, 25776, Note_on_c, 0, 67, 64
1, 25776, Note_on_c, 0, 63, 64
1, 25821, Note_on_c, 0, 67, 0
1, 25821, Note_on_c, 0, 63, 0
1, 25824, Note_on_c, 0, 65, 64
1, 25824, Note_on_c, 0, 60, 64
1, 25824, Note_on_c, 1, 56, 64
1, 25824, Note_on_c, 1, 44, 64
1, 25844, Note_on_c, 0, 65, 0
1, 25844, Note_on_c, 0, 60, 0
1, 25844, Note_on_c, 1, 56, 0
1, 25844, Note_on_c, 1, 44, 0
1, 25920, Note_on_c, 0, 65, 64
1, 25920, Note_on_c, 0, 60, 64
1, 25920, Note_on_c, 1, 56, 64
1, 25920, Note_on_c, 1, 44, 64
1, 25965, Note_on_c, 0, 65, 0
1, 25965, Note_on_c, 0, 60, 0
1, 25965, Note_on_c, 1, 56, 0
1, 25965, Note_on_c, 1, 44, 0
1, 26112, Note_on_c, 0, 80, 64
1, 26112, Note_on_c, 0, 77, 64
1, 26201, Note_on_c, 0, 80, 0
1, 26201, Note_on_c, 0, 77, 0
1, 26208, Note_on_c, 0, 82, 64
1, 26208, Note_on_c, 0, 79, 64
1, 26253, Note_on_c, 0, 82, 0
1, 26253, Note_on_c, 0, 79, 0
1, 26256, Note_on_c, 0, 80, 64
1, 26256, Note_on_c, 0, 77, 64
1, 26301, Note_on_c, 0, 80, 0
1, 26301, Note_on_c, 0, 77, 0
1, 26304, Note_on_c, 0, 79, 64
1, 26304, Note_on_c, 0, 75, 64
1, 26349, Note_on_c, 0, 79, 0
1, 26349, Note_on_c, 0, 75, 0
1, 26352, Note_on_c, 0, 77, 64
1, 26352, Note_on_c, 0, 74, 64
1, 26397, Note_on_c, 0, 77, 0
1, 26397, Note_on_c, 0, 74, 0
1, 26400, Note_on_c, 0, 75, 64
1, 26400, Note_on_c, 1, 70, 64
1, 26400, Note_on_c, 1, 67, 64
1, 26420, Note_on_c, 0, 75, 0
1, 26420, Note_on_c, 1, 70, 0
1, 26420, Note_on_c, 1, 67, 0
1, 26496, Note_on_c, 0, 75, 64
1, 26496, Note_on_c, 1, 70, 64
1, 26496, Note_on_c, 1, 67, 64
1, 26541, Note_on_c, 0, 75, 0
1, 26541, Note_on_c, 1, 70, 0
1, 26541, Note_on_c, 1, 67, 0
1, 26688, Note_on_c, 0, 47, 80
1, 26688, Note_on_c, 1, 43, 80
1, 26688, Note_on_c, 1, 31, 80
1, 26777, Note_on_c, 0, 47, 0
1, 26777, Note_on_c, 1, 43, 0
1, 26777, Note_on_c, 1, 31, 0
1, 26784, Note_on_c, 0, 48, 80
1, 26784, Note_on_c, 1, 44, 80
1, 26784, Note_on_c, 1, 32, 80
1, 26814, Note_on_c, 0, 48, 0
1, 26816, Note_on_c, 0, 50, 80
1, 26846, Note_on_c, 0, 50, 0
1, 26848, Note_on_c, 0, 51, 80
1, 26878, Note_on_c, 0, 51, 0
1, 26880, Note_on_c, 0, 53, 80
1, 26910, Note_on_c, 0, 53, 0
1, 26912, Note_on_c, 0, 55, 80
1, 26942, Note_on_c, 0, 55, 0
1, 26944, Note_on_c, 0, 56, 80
1, 26974, Note_on_c, 0, 56, 0
1, 26976, Note_on_c, 0, 58, 80
1, 27006, Note_on_c, 0, 58, 0
1, 27008, Note_on_c, 0, 60, 80
1, 27038, Note_on_c, 0, 60, 0
1, 27040, Note_on_c, 0, 62, 80
1, 27049, Note_on_c, 1, 44, 0
1, 27049, Note_on_c, 1, 32, 0
1, 27070, Note_on_c, 0, 62, 0
1, 27072, Note_on_c, 0, 63, 80
1, 27072, Note_on_c, 1, 43, 80
1, 27072, Note_on_c, 1, 31, 80
1, 27095, Note_on_c, 0, 63, 0
1, 27096, Note_on_c, 0, 65, 80
1, 27119, Note_on_c, 0, 65, 0
1, 27120, Note_on_c, 0, 67, 80
1, 27143, Note_on_c, 0, 67, 0
1, 27144, Note_on_c, 0, 68, 81
1, 27167, Note_on_c, 0, 68, 0
1, 27168, Note_on_c, 0, 70, 81
1, 27191, Note_on_c, 0, 70, 0
1, 27192, Note_on_c, 0, 72, 82
1, 27215, Note_on_c, 0, 72, 0
1, 27216, Note_on_c, 0, 74, 82
1, 27239, Note_on_c, 0, 74, 0
1, 27240, Note_on_c, 0, 75, 83
1, 27263, Note_on_c, 0, 75, 0
1, 27264, Note_on_c, 0, 77, 83
1, 27287, Note_on_c, 0, 77, 0
1, 27288, Note_on_c, 0, 79, 84
1, 27311, Note_on_c, 0, 79, 0
1, 27312, Note_on_c, 0, 75, 84
1, 27335, Note_on_c, 0, 75, 0
1, 27336, Note_on_c, 0, 74, 85
1, 27337, Note_on_c, 1, 43, 0
1, 27337, Note_on_c, 1, 31, 0
1, 27359, Note_on_c, 0, 74, 0
1, 27360, Note_on_c, 0, 72, 85
1, 27360, Note_on_c, 1, 44, 80
1, 27360, Note_on_c, 1, 32, 80
1, 27390, Note_on_c, 0, 72, 0
1, 27392, Note_on_c, 0, 70, 85
1, 27422, Note_on_c, 0, 70, 0
1, 27424, Note_on_c, 0, 68, 84
1, 27454, Note_on_c, 0, 68, 0
1, 27456, Note_on_c, 0, 67, 84
1, 27486, Note_on_c, 0, 67, 0
1, 27488, Note_on_c, 0, 65, 83
1, 27518, Note_on_c, 0, 65, 0
1, 27520, Note_on_c, 0, 63, 83
1, 27537, Note_on_c, 1, 44, 0
1, 27537, Note_on_c, 1, 32, 0
1, 27550, Note_on_c, 0, 63, 0
1, 27552, Note_on_c, 0, 62, 82
1, 27552, Note_on_c, 1, 46, 80
1, 27552, Note_on_c, 1, 34, 80
1, 27582, Note_on_c, 0, 62, 0
1, 27584, Note_on_c, 0, 70, 81
1, 27614, Note_on_c, 0, 70, 0
1, 27616, Note_on_c, 0, 62, 81
1, 27641, Note_on_c, 1, 46, 0
1, 27641, Note_on_c, 1, 34, 0
1, 27646, Note_on_c, 0, 62, 0
1, 27648, Note_on_c, 0, 63, 80
1, 27648, Note_on_c, 1, 51, 80
1, 27648, Note_on_c, 1, 39, 80
1, 27737, Note_on_c, 0, 63, 0
1, 27737, Note_on_c, 1, 51, 0
1, 27737, Note_on_c, 1, 39, 0
1, 27840, Note_on_c, 0, 70, 64
1, 27840, Note_on_c, 0, 67, 64
1, 27936, Note_on_c, 0, 70, 0
1, 27936, Note_on_c, 0, 67, 0
1, 27936, Note_on_c, 0, 72, 64
1, 27936, Note_on_c, 0, 68, 64
1, 27981, Note_on_c, 0, 72, 0
1, 27981, Note_on_c, 0, 68, 0
1, 27984, Note_on_c, 0, 70, 64
1, 27984, Note_on_c, 0, 67, 64
1, 28029, Note_on_c, 0, 70, 0
1, 28029, Note_on_c, 0, 67, 0
1, 28032, Note_on_c, 0, 68, 64
1, 28032, Note_on_c, 0, 65, 64
1, 28077, Note_on_c, 0, 68, 0
1, 28077, Note_on_c, 0, 65, 0
1, 28080, Note_on_c, 0, 67, 64
1, 28080, Note_on_c, 0, 63, 64
1, 28125, Note_on_c, 0, 67, 0
1, 28125, Note_on_c, 0, 63, 0
1, 28128, Note_on_c, 0, 65, 64
1, 28128, Note_on_c, 0, 63, 64
1, 28128, Note_on_c, 1, 60, 64
1, 28128, Note_on_c, 1, 57, 64
1, 28148, Note_on_c, 0, 65, 0
1, 28148, Note_on_c, 0, 63, 0
1, 28148, Note_on_c, 1, 60, 0
1, 28148, Note_on_c, 1, 57, 0
1, 28224, Note_on_c, 0, 65, 64
1, 28224, Note_on_c, 0, 63, 64
1, 28224, Note_on_c, 1, 60, 64
1, 28224, Note_on_c, 1, 57, 64
1, 28269, Note_on_c, 0, 65, 0
1, 28269, Note_on_c, 0, 63, 0
1, 28269, Note_on_c, 1, 60, 0
1, 28269, Note_on_c, 1, 57, 0
1, 28416, Note_on_c, 0, 63, 64
1, 28416, Note_on_c, 0, 60, 64
1, 28505, Note_on_c, 0, 63, 0
1, 28505, Note_on_c, 0, 60, 0
1, 28512, Note_on_c, 0, 62, 64
1, 28512, Note_on_c, 0, 58, 64
1, 28557, Note_on_c, 0, 62, 0
1, 28557, Note_on_c, 0, 58, 0
1, 28560, Note_on_c, 0, 63, 64
1, 28560, Note_on_c, 0, 60, 64
1, 28605, Note_on_c, 0, 63, 0
1, 28605, Note_on_c, 0, 60, 0
1, 28608, Note_on_c, 0, 65, 64
1, 28608, Note_on_c, 0, 62, 64
1, 28653, Note_on_c, 0, 65, 0
1, 28653, Note_on_c, 0, 62, 0
1, 28656, Note_on_c, 0, 67, 64
1, 28656, Note_on_c, 0, 63, 64
1, 28701, Note_on_c, 0, 67, 0
1, 28701, Note_on_c, 0, 63, 0
1, 28704, Note_on_c, 0, 65, 64
1, 28704, Note_on_c, 0, 62, 64
1, 28704, Note_on_c, 1, 53, 64
1, 28724, Note_on_c, 0, 65, 0
1, 28724, Note_on_c, 0, 62, 0
1, 28724, Note_on_c, 1, 53, 0
1, 28800, Note_on_c, 0, 65, 64
1, 28800, Note_on_c, 0, 62, 64
1, 28800, Note_on_c, 1, 53, 64
1, 28845, Note_on_c, 0, 65, 0
1, 28845, Note_on_c, 0, 62, 0
1, 28845, Note_on_c, 1, 53, 0
1, 28992, Note_on_c, 0, 70, 80
1, 29088, Note_on_c, 0, 70, 0
1, 29088, Note_on_c, 0, 75, 80
1, 29088, Note_on_c, 1, 63, 64
1, 29108, Note_on_c, 0, 75, 0
1, 29136, Note_on_c, 1, 63, 0
1, 29136, Note_on_c, 1, 67, 64
1, 29156, Note_on_c, 1, 67, 0
1, 29184, Note_on_c, 0, 75, 80
1, 29184, Note_on_c, 1, 63, 64
1, 29204, Note_on_c, 0, 75, 0
1, 29232, Note_on_c, 1, 63, 0
1, 29232, Note_on_c, 1, 67, 64
1, 29252, Note_on_c, 1, 67, 0
1, 29256, Note_on_c, 0, 77, 80
1, 29264, Note_on_c, 0, 77, 0
1, 29264, Note_on_c, 0, 75, 80
1, 29272, Note_on_c, 0, 75, 0
1, 29272, Note_on_c, 0, 74, 80
1, 29280, Note_on_c, 0, 74, 0
1, 29280, Note_on_c, 0, 75, 80
1, 29280, Note_on_c, 1, 63, 64
1, 29328, Note_on_c, 1, 63, 0
1, 29328, Note_on_c, 1, 67, 64
1, 29348, Note_on_c, 1, 67, 0
1, 29352, Note_on_c, 0, 75, 0
1, 29352, Note_on_c, 0, 77, 80
1, 29375, Note_on_c, 0, 77, 0
1, 29376, Note_on_c, 0, 74, 80
1, 29376, Note_on_c, 1, 63, 64
1, 29396, Note_on_c, 0, 74, 0
1, 29424, Note_on_c, 1, 63, 0
1, 29424, Note_on_c, 1, 68, 64
1, 29444, Note_on_c, 1, 68, 0
1, 29472, Note_on_c, 0, 74, 80
1, 29472, Note_on_c, 1, 63, 64
1, 29492, Note_on_c, 0, 74, 0
1, 29520, Note_on_c, 1, 63, 0
1, 29520, Note_on_c, 1, 68, 64
1, 29540, Note_on_c, 1, 68, 0
1, 29568, Note_on_c, 0, 74, 80
1, 29568, Note_on_c, 1, 63, 64
1, 29598, Note_on_c, 0, 74, 0
1, 29600, Note_on_c, 0, 77, 80
1, 29616, Note_on_c, 1, 63, 0
1, 29616, Note_on_c, 1, 68, 64
1, 29630, Note_on_c, 0, 77, 0
1, 29632, Note_on_c, 0, 80, 80
1, 29636, Note_on_c, 1, 68, 0
1, 29662, Note_on_c, 0, 80, 0
1, 29664, Note_on_c, 0, 84, 96
1, 29664, Note_on_c, 1, 63, 64
1, 29696, Note_on_c, 0, 84, 0
1, 29696, Note_on_c, 0, 82, 80
1, 29712, Note_on_c, 1, 63, 0
1, 29712, Note_on_c, 1, 68, 64
1, 29726, Note_on_c, 0, 82, 0
1, 29728, Note_on_c, 0, 80, 80
1, 29732, Note_on_c, 1, 68, 0
1, 29758, Note_on_c, 0, 80, 0
1, 29760, Note_on_c, 0, 79, 80
1, 29760, Note_on_c, 1, 63, 64
1, 29790, Note_on_c, 0, 79, 0
1, 29792, Note_on_c, 0, 77, 80
1, 29808, Note_on_c, 1, 63, 0
1, 29808, Note_on_c, 1, 68, 64
1, 29822, Note_on_c, 0, 77, 0
1, 29824, Note_on_c, 0, 75, 80
1, 29828, Note_on_c, 1, 68, 0
1, 29854, Note_on_c, 0, 75, 0
1, 29856, Note_on_c, 0, 74, 80
1, 29856, Note_on_c, 1, 63, 64
1, 29886, Note_on_c, 0, 74, 0
1, 29888, Note_on_c, 0, 80, 80
1, 29904, Note_on_c, 1, 63, 0
1, 29904, Note_on_c, 1, 68, 64
1, 29918, Note_on_c, 0, 80, 0
1, 29920, Note_on_c, 0, 74, 80
1, 29924, Note_on_c, 1, 68, 0
1, 29950, Note_on_c, 0, 74, 0
1, 29952, Note_on_c, 0, 75, 80
1, 29952, Note_on_c, 1, 63, 64
1, 29972, Note_on_c, 0, 75, 0
1, 30000, Note_on_c, 1, 63, 0
1, 30000, Note_on_c, 1, 67, 64
1, 30020, Note_on_c, 1, 67, 0
1, 30048, Note_on_c, 0, 75, 80
1, 30048, Note_on_c, 1, 63, 64
1, 30068, Note_on_c, 0, 75, 0
1, 30096, Note_on_c, 1, 63, 0
1, 30096, Note_on_c, 1, 67, 64
1, 30116, Note_on_c, 1, 67, 0
1, 30120, Note_on_c, 0, 77, 80
1, 30128, Note_on_c, 0, 77, 0
1, 30128, Note_on_c, 0, 75, 80
1, 30136, Note_on_c, 0, 75, 0
1, 30136, Note_on_c, 0, 74, 80
1, 30144, Note_on_c, 0, 74, 0
1, 30144, Note_on_c, 0, 75, 80
1, 30144, Note_on_c, 1, 63, 64
1, 30192, Note_on_c, 1, 63, 0
1, 30192, Note_on_c, 1, 67, 64
1, 30212, Note_on_c, 1, 67, 0
1, 30214, Note_on_c, 0, 75, 0
1, 30216, Note_on_c, 0, 79, 80
1, 30239, Note_on_c, 0, 79, 0
1, 30240, Note_on_c, 0, 71, 80
1, 30240, Note_on_c, 1, 63, 64
1, 30260, Note_on_c, 0, 71, 0
1, 30288, Note_on_c, 1, 63, 0
1, 30288, Note_on_c, 1, 67, 64
1, 30308, Note_on_c, 1, 67, 0
1, 30336, Note_on_c, 0, 71, 80
1, 30336, Note_on_c, 1, 63, 64
1, 30356, Note_on_c, 0, 71, 0
1, 30384, Note_on_c, 1, 63, 0
1, 30384, Note_on_c, 1, 67, 64
1, 30404, Note_on_c, 1, 67, 0
1, 30432, Note_on_c, 0, 71, 96
1, 30432, Note_on_c, 1, 63, 64
1, 30480, Note_on_c, 1, 63, 0
1, 30480, Note_on_c, 1, 67, 64
1, 30500, Note_on_c, 1, 67, 0
1, 30528, Note_on_c, 0, 71, 0
1, 30528, Note_on_c, 0, 72, 80
1, 30528, Note_on_c, 1, 63, 64
1, 30558, Note_on_c, 0, 72, 0
1, 30560, Note_on_c, 0, 75, 81
1, 30590, Note_on_c, 0, 75, 0
1, 30592, Note_on_c, 0, 74, 82
1, 30622, Note_on_c, 0, 74, 0
1, 30624, Note_on_c, 0, 72, 84
1, 30654, Note_on_c, 0, 72, 0
1, 30656, Note_on_c, 0, 79, 85
1, 30686, Note_on_c, 0, 79, 0
1, 30688, Note_on_c, 0, 77, 85
1, 30718, Note_on_c, 0, 77, 0
1, 30720, Note_on_c, 0, 75, 84
1, 30750, Note_on_c, 0, 75, 0
1, 30752, Note_on_c, 0, 74, 82
1, 30782, Note_on_c, 0, 74, 0
1, 30784, Note_on_c, 0, 72, 81
1, 30793, Note_on_c, 1, 63, 0
1, 30814, Note_on_c, 0, 72, 0
1, 30816, Note_on_c, 0, 70, 80
1, 30816, Note_on_c, 1, 62, 64
1, 30816, Note_on_c, 1, 53, 80
1, 30869, Note_on_c, 0, 70, 0
1, 30876, Note_on_c, 0, 72, 80
1, 30888, Note_on_c, 0, 72, 0
1, 30888, Note_on_c, 0, 70, 80
1, 30900, Note_on_c, 0, 70, 0
1, 30900, Note_on_c, 0, 69, 80
1, 30912, Note_on_c, 0, 69, 0
1, 30912, Note_on_c, 0, 70, 80
1, 30979, Note_on_c, 0, 70, 0
1, 30984, Note_on_c, 0, 74, 80
1, 30993, Note_on_c, 1, 62, 0
1, 31007, Note_on_c, 0, 74, 0
1, 31008, Note_on_c, 0, 72, 80
1, 31008, Note_on_c, 1, 63, 64
1, 31075, Note_on_c, 0, 72, 0
1, 31080, Note_on_c, 0, 69, 80
1, 31081, Note_on_c, 1, 53, 0
1, 31097, Note_on_c, 1, 63, 0
1, 31103, Note_on_c, 0, 69, 0
1, 31104, Note_on_c, 0, 70, 80
1, 31104, Note_on_c, 1, 62, 64
1, 31104, Note_on_c, 1, 58, 64
1, 31193, Note_on_c, 0, 70, 0
1, 31193, Note_on_c, 1, 62, 0
1, 31193, Note_on_c, 1, 58, 0
1, 31296, Note_on_c, 0, 70, 70
1, 31392, Note_on_c, 0, 70, 0
1, 31392, Note_on_c, 0, 75, 70
1, 31392, Note_on_c, 1, 63, 64
1, 31412, Note_on_c, 0, 75, 0
1, 31422, Note_on_c, 1, 63, 0
1, 31424, Note_on_c, 1, 66, 64
1, 31454, Note_on_c, 1, 66, 0
1, 31456, Note_on_c, 1, 70, 64
1, 31486, Note_on_c, 1, 70, 0
1, 31488, Note_on_c, 0, 75, 70
1, 31488, Note_on_c, 1, 63, 64
1, 31508, Note_on_c, 0, 75, 0
1, 31518, Note_on_c, 1, 63, 0
1, 31520, Note_on_c, 1, 66, 64
1, 31550, Note_on_c, 1, 66, 0
1, 31552, Note_on_c, 1, 70, 64
1, 31560, Note_on_c, 0, 77, 70
1, 31568, Note_on_c, 0, 77, 0
1, 31568, Note_on_c, 0, 75, 70
1, 31576, Note_on_c, 0, 75, 0
1, 31576, Note_on_c, 0, 74, 70
1, 31582, Note_on_c, 1, 70, 0
1, 31584, Note_on_c, 0, 74, 0
1, 31584, Note_on_c, 0, 75, 70
1, 31584, Note_on_c, 1, 63, 64
1, 31614, Note_on_c, 1, 63, 0
1, 31616, Note_on_c, 1, 66, 64
1, 31646, Note_on_c, 1, 66, 0
1, 31648, Note_on_c, 1, 70, 64
1, 31656, Note_on_c, 0, 75, 0
1, 31656, Note_on_c, 0, 77, 70
1, 31678, Note_on_c, 1, 70, 0
1, 31679, Note_on_c, 0, 77, 0
1, 31680, Note_on_c, 0, 74, 70
1, 31680, Note_on_c, 1, 63, 64
1, 31700, Note_on_c, 0, 74, 0
1, 31710, Note_on_c, 1, 63, 0
1, 31712, Note_on_c, 1, 65, 64
1, 31742, Note_on_c, 1, 65, 0
1, 31744, Note_on_c, 1, 68, 64
1, 31774, Note_on_c, 1, 68, 0
1, 31776, Note_on_c, 0, 74, 70
1, 31776, Note_on_c, 1, 63, 64
1, 31796, Note_on_c, 0, 74, 0
1, 31806, Note_on_c, 1, 63, 0
1, 31808, Note_on_c, 1, 65, 64
1, 31838, Note_on_c, 1, 65, 0
1, 31840, Note_on_c, 1, 68, 64
1, 31870, Note_on_c, 1, 68, 0
1, 31872, Note_on_c, 0, 74, 70
1, 31872, Note_on_c, 1, 63, 64
1, 31902, Note_on_c, 0, 74, 0
1, 31902, Note_on_c, 1, 63, 0
1, 31904, Note_on_c, 0, 77, 70
1, 31904, Note_on_c, 1, 65, 64
1, 31934, Note_on_c, 0, 77, 0
1, 31934, Note_on_c, 1, 65, 0
1, 31936, Note_on_c, 0, 80, 70
1, 31936, Note_on_c, 1, 68, 64
1, 31966, Note_on_c, 0, 80, 0
1, 31966, Note_on_c, 1, 68, 0
1, 31968, Note_on_c, 0, 83, 86
1, 31968, Note_on_c, 1, 63, 64
1, 31998, Note_on_c, 1, 63, 0
1, 32000, Note_on_c, 0, 83, 0
1, 32000, Note_on_c, 0, 82, 70
1, 32000, Note_on_c, 1, 65, 64
1, 32030, Note_on_c, 0, 82, 0
1, 32030, Note_on_c, 1, 65, 0
1, 32032, Note_on_c, 0, 80, 70
1, 32032, Note_on_c, 1, 68, 64
1, 32062, Note_on_c, 0, 80, 0
1, 32062, Note_on_c, 1, 68, 0
1, 32064, Note_on_c, 0, 78, 70
1, 32064, Note_on_c, 1, 63, 64
1, 32094, Note_on_c, 0, 78, 0
1, 32094, Note_on_c, 1, 63, 0
1, 32096, Note_on_c, 0, 77, 70
1, 32096, Note_on_c, 1, 65, 64
1, 32126, Note_on_c, 0, 77, 0
1, 32126, Note_on_c, 1, 65, 0
1, 32128, Note_on_c, 0, 75, 70
1, 32128, Note_on_c, 1, 68, 64
1, 32158, Note_on_c, 0, 75, 0
1, 32158, Note_on_c, 1, 68, 0
1, 32160, Note_on_c, 0, 74, 70
1, 32160, Note_on_c, 1, 63, 64
1, 32190, Note_on_c, 0, 74, 0
1, 32190, Note_on_c, 1, 63, 0
1, 32192, Note_on_c, 0, 77, 70
1, 32192, Note_on_c, 1, 65, 64
1, 32222, Note_on_c, 0, 77, 0
1, 32222, Note_on_c, 1, 65, 0
1, 32224, Note_on_c, 0, 74, 70
1, 32224, Note_on_c, 1, 68, 64
1, 32254, Note_on_c, 0, 74, 0
1, 32254, Note_on_c, 1, 68, 0
1, 32256, Note_on_c, 0, 75, 70
1, 32256, Note_on_c, 1, 63, 64
1, 32276, Note_on_c, 0, 75, 0
1, 32286, Note_on_c, 1, 63, 0
1, 32288, Note_on_c, 1, 66, 64
1, 32318, Note_on_c, 1, 66, 0
1, 32320, Note_on_c, 1, 70, 64
1, 32350, Note_on_c, 1, 70, 0
1, 32352, Note_on_c, 0, 75, 71
1, 32352, Note_on_c, 1, 63, 64
1, 32372, Note_on_c, 0, 75, 0
1, 32382, Note_on_c, 1, 63, 0
1, 32384, Note_on_c, 1, 66, 64
1, 32414, Note_on_c, 1, 66, 0
1, 32416, Note_on_c, 1, 70, 65
1, 32424, Note_on_c, 0, 75, 71
1, 32446, Note_on_c, 1, 70, 0
1, 32447, Note_on_c, 0, 75, 0
1, 32448, Note_on_c, 0, 77, 72
1, 32448, Note_on_c, 1, 63, 65
1, 32454, Note_on_c, 0, 77, 0
1, 32454, Note_on_c, 0, 75, 72
1, 32471, Note_on_c, 0, 75, 0
1, 32472, Note_on_c, 0, 74, 72
1, 32478, Note_on_c, 1, 63, 0
1, 32480, Note_on_c, 1, 66, 65
1, 32495, Note_on_c, 0, 74, 0
1, 32496, Note_on_c, 0, 75, 72
1, 32510, Note_on_c, 1, 66, 0
1, 32512, Note_on_c, 1, 70, 65
1, 32519, Note_on_c, 0, 75, 0
1, 32520, Note_on_c, 0, 77, 73
1, 32542, Note_on_c, 1, 70, 0
1, 32543, Note_on_c, 0, 77, 0
1, 32544, Note_on_c, 0, 78, 73
1, 32544, Note_on_c, 1, 63, 65
1, 32564, Note_on_c, 0, 78, 0
1, 32574, Note_on_c, 1, 63, 0
1, 32576, Note_on_c, 1, 66, 66
1, 32606, Note_on_c, 1, 66, 0
1, 32608, Note_on_c, 1, 70, 66
1, 32638, Note_on_c, 1, 70, 0
1, 32640, Note_on_c, 0, 78, 74
1, 32640, Note_on_c, 1, 63, 66
1, 32660, Note_on_c, 0, 78, 0
1, 32670, Note_on_c, 1, 63, 0
1, 32672, Note_on_c, 1, 66, 66
1, 32702, Note_on_c, 1, 66, 0
1, 32704, Note_on_c, 1, 70, 66
1, 32712, Note_on_c, 0, 78, 75
1, 32734, Note_on_c, 1, 70, 0
1, 32735, Note_on_c, 0, 78, 0
1, 32736, Note_on_c, 0, 80, 75
1, 32736, Note_on_c, 1, 63, 67
1, 32742, Note_on_c, 0, 80, 0
1, 32742, Note_on_c, 0, 78, 75
1, 32759, Note_on_c, 0, 78, 0
1, 32760, Note_on_c, 0, 77, 75
1, 32766, Note_on_c, 1, 63, 0
1, 32768, Note_on_c, 1, 66, 67
1, 32783, Note_on_c, 0, 77, 0
1, 32784, Note_on_c, 0, 78, 76
1, 32798, Note_on_c, 1, 66, 0
1, 32800, Note_on_c, 1, 70, 67
1, 32807, Note_on_c, 0, 78, 0
1, 32808, Note_on_c, 0, 80, 76
1, 32830, Note_on_c, 1, 70, 0
1, 32831, Note_on_c, 0, 80, 0
1, 32832, Note_on_c, 0, 82, 76
1, 32832, Note_on_c, 1, 61, 67
1, 32852, Note_on_c, 0, 82, 0
1, 32862, Note_on_c, 1, 61, 0
1, 32864, Note_on_c, 1, 66, 67
1, 32894, Note_on_c, 1, 66, 0
1, 32896, Note_on_c, 1, 70, 68
1, 32926, Note_on_c, 1, 70, 0
1, 32928, Note_on_c, 0, 82, 77
1, 32928, Note_on_c, 1, 61, 68
1, 32948, Note_on_c, 0, 82, 0
1, 32958, Note_on_c, 1, 61, 0
1, 32960, Note_on_c, 1, 66, 68
1, 32990, Note_on_c, 1, 66, 0
1, 32992, Note_on_c, 1, 70, 68
1, 33000, Note_on_c, 0, 82, 78
1, 33022, Note_on_c, 1, 70, 0
1, 33023, Note_on_c, 0, 82, 0
1, 33024, Note_on_c, 0, 83, 78
1, 33024, Note_on_c, 1, 61, 69
1, 33030, Note_on_c, 0, 83, 0
1, 33030, Note_on_c, 0, 82, 78
1, 33047, Note_on_c, 0, 82, 0
1, 33048, Note_on_c, 0, 80, 79
1, 33054, Note_on_c, 1, 61, 0
1, 33056, Note_on_c, 1, 66, 69
1, 33071, Note_on_c, 0, 80, 0
1, 33072, Note_on_c, 0, 82, 79
1, 33086, Note_on_c, 1, 66, 0
1, 33088, Note_on_c, 1, 70, 69
1, 33095, Note_on_c, 0, 82, 0
1, 33096, Note_on_c, 0, 83, 79
1, 33118, Note_on_c, 1, 70, 0
1, 33119, Note_on_c, 0, 83, 0
1, 33120, Note_on_c, 0, 85, 80
1, 33120, Note_on_c, 1, 61, 70
1, 33140, Note_on_c, 0, 85, 0
1, 33150, Note_on_c, 1, 61, 0
1, 33152, Note_on_c, 1, 65, 70
1, 33182, Note_on_c, 1, 65, 0
1, 33184, Note_on_c, 1, 71, 70
1, 33214, Note_on_c, 1, 71, 0
1, 33216, Note_on_c, 0, 85, 80
1, 33216, Note_on_c, 1, 61, 70
1, 33246, Note_on_c, 0, 85, 0
1, 33246, Note_on_c, 1, 61, 0
1, 33248, Note_on_c, 0, 87, 80
1, 33248, Note_on_c, 1, 65, 70
1, 33278, Note_on_c, 0, 87, 0
1, 33278, Note_on_c, 1, 65, 0
1, 33280, Note_on_c, 0, 85, 80
1, 33280, Note_on_c, 1, 71, 70
1, 33310, Note_on_c, 0, 85, 0
1, 33310, Note_on_c, 1, 71, 0
1, 33312, Note_on_c, 0, 83, 80
1, 33312, Note_on_c, 1, 61, 70
1, 33342, Note_on_c, 0, 83, 0
1, 33342, Note_on_c, 1, 61, 0
1, 33344, Note_on_c, 0, 82, 80
1, 33344, Note_on_c, 1, 65, 70
1, 33374, Note_on_c, 0, 82, 0
1, 33374, Note_on_c, 1, 65, 0
1, 33376, Note_on_c, 0, 80, 80
1, 33376, Note_on_c, 1, 71, 70
1, 33406, Note_on_c, 0, 80, 0
1, 33406, Note_on_c, 1, 71, 0
1, 33408, Note_on_c, 0, 78, 80
1, 33408, Note_on_c, 1, 70, 70
1, 33408, Note_on_c, 1, 66, 70
1, 33497, Note_on_c, 0, 78, 0
1, 33497, Note_on_c, 1, 70, 0
1, 33497, Note_on_c, 1, 66, 0
1, 33600, Note_on_c, 0, 70, 80
1, 33689, Note_on_c, 0, 70, 0
1, 33696, Note_on_c, 0, 75, 70
1, 33696, Note_on_c, 1, 63, 64
1, 33716, Note_on_c, 0, 75, 0
1, 33726, Note_on_c, 1, 63, 0
1, 33728, Note_on_c, 1, 66, 64
1, 33758, Note_on_c, 1, 66, 0
1, 33760, Note_on_c, 1, 70, 64
1, 33790, Note_on_c, 1, 70, 0
1, 33792, Note_on_c, 0, 75, 70
1, 33792, Note_on_c, 1, 63, 64
1, 33812, Note_on_c, 0, 75, 0
1, 33822, Note_on_c, 1, 63, 0
1, 33824, Note_on_c, 1, 66, 64
1, 33854, Note_on_c, 1, 66, 0
1, 33856, Note_on_c, 1, 70, 64
1, 33864, Note_on_c, 0, 77, 70
1, 33872, Note_on_c, 0, 77, 0
1, 33872, Note_on_c, 0, 75, 70
1, 33880, Note_on_c, 0, 75, 0
1, 33880, Note_on_c, 0, 74, 70
1, 33886, Note_on_c, 1, 70, 0
1, 33888, Note_on_c, 0, 74, 0
1, 33888, Note_on_c, 0, 75, 70
1, 33888, Note_on_c, 1, 63, 64
1, 33918, Note_on_c, 1, 63, 0
1, 33920, Note_on_c, 1, 66, 64
1, 33950, Note_on_c, 1, 66, 0
1, 33952, Note_on_c, 1, 70, 64
1, 33960, Note_on_c, 0, 75, 0
1, 33960, Note_on_c, 0, 77, 70
1, 33982, Note_on_c, 1, 70, 0
1, 33983, Note_on_c, 0, 77, 0
1, 33984, Note_on_c, 0, 74, 70
1, 33984, Note_on_c, 1, 63, 64
1, 34004, Note_on_c, 0, 74, 0
1, 34014, Note_on_c, 1, 63, 0
1, 34016, Note_on_c, 1, 65, 64
1, 34046, Note_on_c, 1, 65, 0
1, 34048, Note_on_c, 1, 68, 64
1, 34078, Note_on_c, 1, 68, 0
1, 34080, Note_on_c, 0, 74, 70
1, 34080, Note_on_c, 1, 63, 64
1, 34100, Note_on_c, 0, 74, 0
1, 34110, Note_on_c, 1, 63, 0
1, 34112, Note_on_c, 1, 65, 64
1, 34142, Note_on_c, 1, 65, 0
1, 34144, Note_on_c, 1, 68, 64
1, 34174, Note_on_c, 1, 68, 0
1, 34176, Note_on_c, 0, 74, 70
1, 34176, Note_on_c, 1, 63, 64
1, 34206, Note_on_c, 0, 74, 0
1, 34206, Note_on_c, 1, 63, 0
1, 34208, Note_on_c, 0, 77, 70
1, 34208, Note_on_c, 1, 65, 64
1, 34238, Note_on_c, 0, 77, 0
1, 34238, Note_on_c, 1, 65, 0
1, 34240, Note_on_c, 0, 80, 70
1, 34240, Note_on_c, 1, 68, 64
1, 34270, Note_on_c, 0, 80, 0
1, 34270, Note_on_c, 1, 68, 0
1, 34272, Note_on_c, 0, 83, 86
1, 34272, Note_on_c, 1, 63, 64
1, 34302, Note_on_c, 1, 63, 0
1, 34304, Note_on_c, 0, 83, 0
1, 34304, Note_on_c, 0, 82, 70
1, 34304, Note_on_c, 1, 65, 64
1, 34334, Note_on_c, 0, 82, 0
1, 34334, Note_on_c, 1, 65, 0
1, 34336, Note_on_c, 0, 80, 70
1, 34336, Note_on_c, 1, 68, 64
1, 34366, Note_on_c, 0, 80, 0
1, 34366, Note_on_c, 1, 68, 0
1, 34368, Note_on_c, 0, 78, 70
1, 34368, Note_on_c, 1, 63, 64
1, 34398, Note_on_c, 0, 78, 0
1, 34398, Note_on_c, 1, 63, 0
1, 34400, Note_on_c, 0, 77, 70
1, 34400, Note_on_c, 1, 65, 64
1, 34430, Note_on_c, 0, 77, 0
1, 34430, Note_on_c, 1, 65, 0
1, 34432, Note_on_c, 0, 75, 70
1, 34432, Note_on_c, 1, 68, 64
1, 34462, Note_on_c, 0, 75, 0
1, 34462, Note_on_c, 1, 68, 0
1, 34464, Note_on_c, 0, 74, 70
1, 34464, Note_on_c, 1, 63, 64
1, 34494, Note_on_c, 0, 74, 0
1, 34494, Note_on_c, 1, 63, 0
1, 34496, Note_on_c, 0, 77, 70
1, 34496, Note_on_c, 1, 65, 64
1, 34526, Note_on_c, 0, 77, 0
1, 34526, Note_on_c, 1, 65, 0
1, 34528, Note_on_c, 0, 74, 70
1, 34528, Note_on_c, 1, 68, 64
1, 34558, Note_on_c, 0, 74, 0
1, 34558, Note_on_c, 1, 68, 0
1, 34560, Note_on_c, 0, 75, 70
1, 34560, Note_on_c, 1, 63, 64
1, 34580, Note_on_c, 0, 75, 0
1, 34590, Note_on_c, 1, 63, 0
1, 34592, Note_on_c, 1, 66, 64
1, 34622, Note_on_c, 1, 66, 0
1, 34624, Note_on_c, 1, 70, 64
1, 34654, Note_on_c, 1, 70, 0
1, 34656, Note_on_c, 0, 75, 71
1, 34656, Note_on_c, 1, 63, 64
1, 34676, Note_on_c, 0, 75, 0
1, 34686, Note_on_c, 1, 63, 0
1, 34688, Note_on_c, 1, 66, 64
1, 34718, Note_on_c, 1, 66, 0
1, 34720, Note_on_c, 1, 70, 65
1, 34728, Note_on_c, 0, 75, 71
1, 34750, Note_on_c, 1, 70, 0
1, 34751, Note_on_c, 0, 75, 0
1, 34752, Note_on_c, 0, 77, 72
1, 34752, Note_on_c, 1, 63, 65
1, 34758, Note_on_c, 0, 77, 0
1, 34758, Note_on_c, 0, 75, 72
1, 34775, Note_on_c, 0, 75, 0
1, 34776, Note_on_c, 0, 74, 72
1, 34782, Note_on_c, 1, 63, 0
1, 34784, Note_on_c, 1, 66, 65
1, 34799, Note_on_c, 0, 74, 0
1, 34800, Note_on_c, 0, 75, 72
1, 34814, Note_on_c, 1, 66, 0
1, 34816, Note_on_c, 1, 70, 65
1, 34823, Note_on_c, 0, 75, 0
1, 34824, Note_on_c, 0, 77, 73
1, 34846, Note_on_c, 1, 70, 0
1, 34847, Note_on_c, 0, 77, 0
1, 34848, Note_on_c, 0, 78, 73
1, 34848, Note_on_c, 1, 63, 65
1, 34868, Note_on_c, 0, 78, 0
1, 34878, Note_on_c, 1, 63, 0
1, 34880, Note_on_c, 1, 66, 66
1, 34910, Note_on_c, 1, 66, 0
1, 34912, Note_on_c, 1, 70, 66
1, 34942, Note_on_c, 1, 70, 0
1, 34944, Note_on_c, 0, 78, 74
1, 34944, Note_on_c, 1, 63, 66
1, 34964, Note_on_c, 0, 78, 0
1, 34974, Note_on_c, 1, 63, 0
1, 34976, Note_on_c, 1, 66, 66
1, 35006, Note_on_c, 1, 66, 0
1, 35008, Note_on_c, 1, 70, 66
1, 35016, Note_on_c, 0, 78, 75
1, 35038, Note_on_c, 1, 70, 0
1, 35039, Note_on_c, 0, 78, 0
1, 35040, Note_on_c, 0, 80, 75
1, 35040, Note_on_c, 1, 63, 67
1, 35046, Note_on_c, 0, 80, 0
1, 35046, Note_on_c, 0, 78, 75
1, 35063, Note_on_c, 0, 78, 0
1, 35064, Note_on_c, 0, 77, 75
1, 35070, Note_on_c, 1, 63, 0
1, 35072, Note_on_c, 1, 66, 67
1, 35087, Note_on_c, 0, 77, 0
1, 35088, Note_on_c, 0, 78, 76
1, 35102, Note_on_c, 1, 66, 0
1, 35104, Note_on_c, 1, 70, 67
1, 35111, Note_on_c, 0, 78, 0
1, 35112, Note_on_c, 0, 80, 76
1, 35134, Note_on_c, 1, 70, 0
1, 35135, Note_on_c, 0, 80, 0
1, 35136, Note_on_c, 0, 82, 76
1, 35136, Note_on_c, 1, 61, 67
1, 35156, Note_on_c, 0, 82, 0
1, 35166, Note_on_c, 1, 61, 0
1, 35168, Note_on_c, 1, 66, 67
1, 35198, Note_on_c, 1, 66, 0
1, 35200, Note_on_c, 1, 70, 68
1, 35230, Note_on_c, 1, 70, 0
1, 35232, Note_on_c, 0, 82, 77
1, 35232, Note_on_c, 1, 61, 68
1, 35252, Note_on_c, 0, 82, 0
1, 35262, Note_on_c, 1, 61, 0
1, 35264, Note_on_c, 1, 66, 68
1, 35294, Note_on_c, 1, 66, 0
1, 35296, Note_on_c, 1, 70, 68
1, 35304, Note_on_c, 0, 82, 78
1, 35326, Note_on_c, 1, 70, 0
1, 35327, Note_on_c, 0, 82, 0
1, 35328, Note_on_c, 0, 83, 78
1, 35328, Note_on_c, 1, 61, 69
1, 35334, Note_on_c, 0, 83, 0
1, 35334, Note_on_c, 0, 82, 78
1, 35351, Note_on_c, 0, 82, 0
1, 35352, Note_on_c, 0, 80, 79
1, 35358, Note_on_c, 1, 61, 0
1, 35360, Note_on_c, 1, 66, 69
1, 35375, Note_on_c, 0, 80, 0
1, 35376, Note_on_c, 0, 82, 79
1, 35390, Note_on_c, 1, 66, 0
1, 35392, Note_on_c, 1, 70, 69
1, 35399, Note_on_c, 0, 82, 0
1, 35400, Note_on_c, 0, 83, 79
1, 35422, Note_on_c, 1, 70, 0
1, 35423, Note_on_c, 0, 83, 0
1, 35424, Note_on_c, 0, 85, 80
1, 35424, Note_on_c, 1, 61, 70
1, 35444, Note_on_c, 0, 85, 0
1, 35454, Note_on_c, 1, 61, 0
1, 35456, Note_on_c, 1, 65, 70
1, 35486, Note_on_c, 1, 65, 0
1, 35488, Note_on_c, 1, 71, 70
1, 35518, Note_on_c, 1, 71, 0
1, 35520, Note_on_c, 0, 85, 80
1, 35520, Note_on_c, 1, 61, 70
1, 35550, Note_on_c, 0, 85, 0
1, 35550, Note_on_c, 1, 61, 0
1, 35552, Note_on_c, 0, 87, 80
1, 35552, Note_on_c, 1, 65, 70
1, 35582, Note_on_c, 0, 87, 0
1, 35582, Note_on_c, 1, 65, 0
1, 35584, Note_on_c, 0, 85, 80
1, 35584, Note_on_c, 1, 71, 70
1, 35614, Note_on_c, 0, 85, 0
1, 35614, Note_on_c, 1, 71, 0
1, 35616, Note_on_c, 0, 83, 80
1, 35616, Note_on_c, 1, 61, 70
1, 35646, Note_on_c, 0, 83, 0
1, 35646, Note_on_c, 1, 61, 0
1, 35648, Note_on_c, 0, 82, 80
1, 35648, Note_on_c, 1, 65, 70
1, 35678, Note_on_c, 0, 82, 0
1, 35678, Note_on_c, 1, 65, 0
1, 35680, Note_on_c, 0, 80, 80
1, 35680, Note_on_c, 1, 71, 70
1, 35710, Note_on_c, 0, 80, 0
1, 35710, Note_on_c, 1, 71, 0
1, 35712, Note_on_c, 0, 78, 80
1, 35712, Note_on_c, 1, 70, 70
1, 35712, Note_on_c, 1, 66, 70
1, 35801, Note_on_c, 0, 78, 0
1, 35801, Note_on_c, 1, 70, 0
1, 35801, Note_on_c, 1, 66, 0
1, 35904, Note_on_c, 0, 70, 64
1, 35934, Note_on_c, 0, 70, 0
1, 35936, Note_on_c, 0, 78, 64
1, 35966, Note_on_c, 0, 78, 0
1, 35968, Note_on_c, 0, 82, 64
1, 35998, Note_on_c, 0, 82, 0
1, 36000, Note_on_c, 0, 80, 64
1, 36000, Note_on_c, 1, 58, 70
1, 36020, Note_on_c, 0, 80, 0
1, 36030, Note_on_c, 1, 58, 0
1, 36032, Note_on_c, 1, 62, 70
1, 36062, Note_on_c, 1, 62, 0
1, 36064, Note_on_c, 1, 65, 70
1, 36094, Note_on_c, 1, 65, 0
1, 36096, Note_on_c, 1, 58, 70
1, 36116, Note_on_c, 1, 58, 0
1, 36192, Note_on_c, 0, 70, 64
1, 36222, Note_on_c, 0, 70, 0
1, 36224, Note_on_c, 0, 77, 64
1, 36254, Note_on_c, 0, 77, 0
1, 36256, Note_on_c, 0, 80, 64
1, 36286, Note_on_c, 0, 80, 0
1, 36288, Note_on_c, 0, 78, 64
1, 36288, Note_on_c, 1, 51, 70
1, 36308, Note_on_c, 0, 78, 0
1, 36318, Note_on_c, 1, 51, 0
1, 36320, Note_on_c, 1, 54, 70
1, 36350, Note_on_c, 1, 54, 0
1, 36352, Note_on_c, 1, 58, 70
1, 36382, Note_on_c, 1, 58, 0
1, 36384, Note_on_c, 1, 51, 70
1, 36404, Note_on_c, 1, 51, 0
1, 36480, Note_on_c, 0, 66, 64
1, 36510, Note_on_c, 0, 66, 0
1, 36512, Note_on_c, 0, 75, 64
1, 36542, Note_on_c, 0, 75, 0
1, 36544, Note_on_c, 0, 78, 64
1, 36574, Note_on_c, 0, 78, 0
1, 36576, Note_on_c, 0, 76, 64
1, 36576, Note_on_c, 1, 54, 70
1, 36596, Note_on_c, 0, 76, 0
1, 36606, Note_on_c, 1, 54, 0
1, 36608, Note_on_c, 1, 58, 70
1, 36638, Note_on_c, 1, 58, 0
1, 36640, Note_on_c, 1, 61, 70
1, 36670, Note_on_c, 1, 61, 0
1, 36672, Note_on_c, 1, 54, 70
1, 36692, Note_on_c, 1, 54, 0
1, 36768, Note_on_c, 0, 66, 64
1, 36798, Note_on_c, 0, 66, 0
1, 36800, Note_on_c, 0, 73, 64
1, 36830, Note_on_c, 0, 73, 0
1, 36832, Note_on_c, 0, 76, 64
1, 36862, Note_on_c, 0, 76, 0
1, 36864, Note_on_c, 0, 75, 64
1, 36864, Note_on_c, 1, 47, 70
1, 36884, Note_on_c, 0, 75, 0
1, 36894, Note_on_c, 1, 47, 0
1, 36896, Note_on_c, 1, 51, 70
1, 36926, Note_on_c, 1, 51, 0
1, 36928, Note_on_c, 1, 54, 70
1, 36958, Note_on_c, 1, 54, 0
1, 36960, Note_on_c, 1, 47, 70
1, 36980, Note_on_c, 1, 47, 0
1, 37056, Note_on_c, 0, 63, 64
1, 37086, Note_on_c, 0, 63, 0
1, 37088, Note_on_c, 0, 71, 67
1, 37118, Note_on_c, 0, 71, 0
1, 37120, Note_on_c, 0, 75, 70
1, 37150, Note_on_c, 0, 75, 0
1, 37152, Note_on_c, 0, 62, 100
1, 37152, Note_on_c, 1, 59, 75
1, 37152, Note_on_c, 1, 56, 75
1, 37182, Note_on_c, 0, 62, 0
1, 37184, Note_on_c, 0, 71, 75
1, 37214, Note_on_c, 0, 71, 0
1, 37216, Note_on_c, 0, 74, 75
1, 37246, Note_on_c, 0, 74, 0
1, 37248, Note_on_c, 0, 62, 75
1, 37278, Note_on_c, 0, 62, 0
1, 37280, Note_on_c, 0, 71, 75
1, 37310, Note_on_c, 0, 71, 0
1, 37312, Note_on_c, 0, 74, 75
1, 37342, Note_on_c, 0, 74, 0
1, 37344, Note_on_c, 0, 63, 91
1, 37376, Note_on_c, 0, 63, 0
1, 37376, Note_on_c, 0, 71, 75
1, 37406, Note_on_c, 0, 71, 0
1, 37408, Note_on_c, 0, 75, 75
1, 37417, Note_on_c, 1, 59, 0
1, 37417, Note_on_c, 1, 56, 0
1, 37438, Note_on_c, 0, 75, 0
1, 37440, Note_on_c, 0, 62, 100
1, 37440, Note_on_c, 1, 59, 100
1, 37440, Note_on_c, 1, 56, 100
1, 37470, Note_on_c, 0, 62, 0
1, 37472, Note_on_c, 0, 71, 75
1, 37502, Note_on_c, 0, 71, 0
1, 37504, Note_on_c, 0, 74, 75
1, 37534, Note_on_c, 0, 74, 0
1, 37536, Note_on_c, 0, 62, 75
1, 37566, Note_on_c, 0, 62, 0
1, 37568, Note_on_c, 0, 71, 75
1, 37598, Note_on_c, 0, 71, 0
1, 37600, Note_on_c, 0, 74, 75
1, 37630, Note_on_c, 0, 74, 0
1, 37632, Note_on_c, 0, 65, 91
1, 37664, Note_on_c, 0, 65, 0
1, 37664, Note_on_c, 0, 74, 75
1, 37694, Note_on_c, 0, 74, 0
1, 37696, Note_on_c, 0, 77, 75
1, 37705, Note_on_c, 1, 59, 0
1, 37705, Note_on_c, 1, 56, 0
1, 37726, Note_on_c, 0, 77, 0
1, 37728, Note_on_c, 0, 66, 91
1, 37728, Note_on_c, 1, 60, 91
1, 37728, Note_on_c, 1, 57, 80
1, 37760, Note_on_c, 0, 66, 0
1, 37760, Note_on_c, 0, 75, 75
1, 37790, Note_on_c, 0, 75, 0
1, 37792, Note_on_c, 0, 78, 75
1, 37822, Note_on_c, 0, 78, 0
1, 37824, Note_on_c, 0, 69, 91
1, 37824, Note_on_c, 1, 60, 0
1, 37824, Note_on_c, 1, 63, 92
1, 37856, Note_on_c, 0, 69, 0
1, 37856, Note_on_c, 0, 75, 75
1, 37886, Note_on_c, 0, 75, 0
1, 37888, Note_on_c, 0, 78, 75
1, 37918, Note_on_c, 0, 78, 0
1, 37920, Note_on_c, 0, 72, 91
1, 37920, Note_on_c, 1, 63, 0
1, 37920, Note_on_c, 1, 66, 78
1, 37952, Note_on_c, 0, 72, 0
1, 37952, Note_on_c, 0, 75, 75
1, 37982, Note_on_c, 0, 75, 0
1, 37984, Note_on_c, 0, 78, 75
1, 37993, Note_on_c, 1, 57, 0
1, 38014, Note_on_c, 0, 78, 0
1, 38016, Note_on_c, 0, 70, 91
1, 38016, Note_on_c, 1, 58, 80
1, 38048, Note_on_c, 0, 70, 0
1, 38048, Note_on_c, 0, 75, 75
1, 38078, Note_on_c, 0, 75, 0
1, 38080, Note_on_c, 0, 78, 75
1, 38110, Note_on_c, 0, 78, 0
1, 38112, Note_on_c, 0, 82, 75
1, 38142, Note_on_c, 0, 82, 0
1, 38144, Note_on_c, 0, 78, 75
1, 38174, Note_on_c, 0, 78, 0
1, 38176, Note_on_c, 0, 75, 75
1, 38193, Note_on_c, 1, 66, 0
1, 38206, Note_on_c, 0, 75, 0
1, 38208, Note_on_c, 0, 80, 75
1, 38208, Note_on_c, 1, 65, 89
1, 38238, Note_on_c, 0, 80, 0
1, 38240, Note_on_c, 0, 77, 75
1, 38270, Note_on_c, 0, 77, 0
1, 38272, Note_on_c, 0, 74, 75
1, 38281, Note_on_c, 1, 58, 0
1, 38302, Note_on_c, 0, 74, 0
1, 38304, Note_on_c, 0, 75, 75
1, 38304, Note_on_c, 1, 65, 0
1, 38304, Note_on_c, 1, 63, 70
1, 38304, Note_on_c, 1, 63, 80
1, 38393, Note_on_c, 0, 75, 0
1, 38393, Note_on_c, 1, 63, 0
1, 38393, Note_on_c, 1, 63, 0
1, 38496, Note_on_c, 0, 70, 64
1, 38526, Note_on_c, 0, 70, 0
1, 38528, Note_on_c, 0, 78, 64
1, 38558, Note_on_c, 0, 78, 0
1, 38560, Note_on_c, 0, 82, 64
1, 38590, Note_on_c, 0, 82, 0
1, 38592, Note_on_c, 0, 80, 64
1, 38592, Note_on_c, 1, 58, 70
1, 38612, Note_on_c, 0, 80, 0
1, 38622, Note_on_c, 1, 58, 0
1, 38624, Note_on_c, 1, 62, 70
1, 38654, Note_on_c, 1, 62, 0
1, 38656, Note_on_c, 1, 65, 70
1, 38686, Note_on_c, 1, 65, 0
1, 38688, Note_on_c, 1, 58, 70
1, 38708, Note_on_c, 1, 58, 0
1, 38784, Note_on_c, 0, 70, 64
1, 38814, Note_on_c, 0, 70, 0
1, 38816, Note_on_c, 0, 77, 64
1, 38846, Note_on_c, 0, 77, 0
1, 38848, Note_on_c, 0, 80, 64
1, 38878, Note_on_c, 0, 80, 0
1, 38880, Note_on_c, 0, 78, 64
1, 38880, Note_on_c, 1, 51, 70
1, 38900, Note_on_c, 0, 78, 0
1, 38910, Note_on_c, 1, 51, 0
1, 38912, Note_on_c, 1, 54, 70
1, 38942, Note_on_c, 1, 54, 0
1, 38944, Note_on_c, 1, 58, 70
1, 38974, Note_on_c, 1, 58, 0
1, 38976, Note_on_c, 1, 51, 70
1, 38996, Note_on_c, 1, 51, 0
1, 39072, Note_on_c, 0, 66, 64
1, 39102, Note_on_c, 0, 66, 0
1, 39104, Note_on_c, 0, 75, 64
1, 39134, Note_on_c, 0, 75, 0
1, 39136, Note_on_c, 0, 78, 64
1, 39166, Note_on_c, 0, 78, 0
1, 39168, Note_on_c, 0, 76, 64
1, 39168, Note_on_c, 1, 54, 70
1, 39188, Note_on_c, 0, 76, 0
1, 39198, Note_on_c, 1, 54, 0
1, 39200, Note_on_c, 1, 58, 70
1, 39230, Note_on_c, 1, 58, 0
1, 39232, Note_on_c, 1, 61, 70
1, 39262, Note_on_c, 1, 61, 0
1, 39264, Note_on_c, 1, 54, 70
1, 39284, Note_on_c, 1, 54, 0
1, 39360, Note_on_c, 0, 66, 64
1, 39390, Note_on_c, 0, 66, 0
1, 39392, Note_on_c, 0, 73, 64
1, 39422, Note_on_c, 0, 73, 0
1, 39424, Note_on_c, 0, 76, 64
1, 39454, Note_on_c, 0, 76, 0
1, 39456, Note_on_c, 0, 75, 64
1, 39456, Note_on_c, 1, 47, 70
1, 39476, Note_on_c, 0, 75, 0
1, 39486, Note_on_c, 1, 47, 0
1, 39488, Note_on_c, 1, 51, 70
1, 39518, Note_on_c, 1, 51, 0
1, 39520, Note_on_c, 1, 54, 70
1, 39550, Note_on_c, 1, 54, 0
1, 39552, Note_on_c, 1, 47, 70
1, 39572, Note_on_c, 1, 47, 0
1, 39648, Note_on_c, 0, 63, 64
1, 39678, Note_on_c, 0, 63, 0
1, 39680, Note_on_c, 0, 71, 69
1, 39710, Note_on_c, 0, 71, 0
1, 39712, Note_on_c, 0, 75, 74
1, 39742, Note_on_c, 0, 75, 0
1, 39744, Note_on_c, 0, 62, 80
1, 39744, Note_on_c, 1, 59, 100
1, 39744, Note_on_c, 1, 56, 100
1, 39774, Note_on_c, 0, 62, 0
1, 39776, Note_on_c, 0, 71, 80
1, 39806, Note_on_c, 0, 71, 0
1, 39808, Note_on_c, 0, 74, 80
1, 39838, Note_on_c, 0, 74, 0
1, 39840, Note_on_c, 0, 62, 80
1, 39870, Note_on_c, 0, 62, 0
1, 39872, Note_on_c, 0, 71, 80
1, 39902, Note_on_c, 0, 71, 0
1, 39904, Note_on_c, 0, 74, 80
1, 39934, Note_on_c, 0, 74, 0
1, 39936, Note_on_c, 0, 63, 96
1, 39968, Note_on_c, 0, 63, 0
1, 39968, Note_on_c, 0, 71, 80
1, 39998, Note_on_c, 0, 71, 0
1, 40000, Note_on_c, 0, 75, 80
1, 40024, Note_on_c, 1, 59, 0
1, 40024, Note_on_c, 1, 56, 0
1, 40030, Note_on_c, 0, 75, 0
1, 40032, Note_on_c, 0, 62, 80
1, 40032, Note_on_c, 1, 59, 100
1, 40032, Note_on_c, 1, 56, 100
1, 40062, Note_on_c, 0, 62, 0
1, 40064, Note_on_c, 0, 71, 80
1, 40094, Note_on_c, 0, 71, 0
1, 40096, Note_on_c, 0, 74, 80
1, 40126, Note_on_c, 0, 74, 0
1, 40128, Note_on_c, 0, 62, 80
1, 40158, Note_on_c, 0, 62, 0
1, 40160, Note_on_c, 0, 71, 80
1, 40190, Note_on_c, 0, 71, 0
1, 40192, Note_on_c, 0, 74, 80
1, 40222, Note_on_c, 0, 74, 0
1, 40224, Note_on_c, 0, 65, 96
1, 40256, Note_on_c, 0, 65, 0
1, 40256, Note_on_c, 0, 74, 80
1, 40286, Note_on_c, 0, 74, 0
1, 40288, Note_on_c, 0, 77, 80
1, 40297, Note_on_c, 1, 59, 0
1, 40297, Note_on_c, 1, 56, 0
1, 40318, Note_on_c, 0, 77, 0
1, 40320, Note_on_c, 0, 66, 96
1, 40320, Note_on_c, 1, 60, 91
1, 40320, Note_on_c, 1, 57, 80
1, 40352, Note_on_c, 0, 66, 0
1, 40352, Note_on_c, 0, 75, 80
1, 40382, Note_on_c, 0, 75, 0
1, 40384, Note_on_c, 0, 78, 81
1, 40414, Note_on_c, 0, 78, 0
1, 40416, Note_on_c, 0, 69, 98
1, 40416, Note_on_c, 1, 60, 0
1, 40416, Note_on_c, 1, 63, 92
1, 40448, Note_on_c, 0, 69, 0
1, 40448, Note_on_c, 0, 75, 83
1, 40478, Note_on_c, 0, 75, 0
1, 40480, Note_on_c, 0, 78, 84
1, 40510, Note_on_c, 0, 78, 0
1, 40512, Note_on_c, 0, 72, 100
1, 40512, Note_on_c, 1, 63, 0
1, 40512, Note_on_c, 1, 66, 78
1, 40544, Note_on_c, 0, 72, 0
1, 40544, Note_on_c, 0, 75, 86
1, 40574, Note_on_c, 0, 75, 0
1, 40576, Note_on_c, 0, 78, 86
1, 40585, Note_on_c, 1, 57, 0
1, 40601, Note_on_c, 1, 66, 0
1, 40606, Note_on_c, 0, 78, 0
1, 40608, Note_on_c, 0, 74, 111
1, 40608, Note_on_c, 1, 68, 96
1, 40608, Note_on_c, 1, 65, 96
1, 40608, Note_on_c, 1, 58, 96
1, 40640, Note_on_c, 0, 74, 0
1, 40640, Note_on_c, 0, 77, 86
1, 40670, Note_on_c, 0, 77, 0
1, 40672, Note_on_c, 0, 75, 86
1, 40702, Note_on_c, 0, 75, 0
1, 40704, Note_on_c, 0, 74, 102
1, 40736, Note_on_c, 0, 74, 0
1, 40736, Note_on_c, 0, 80, 86
1, 40766, Note_on_c, 0, 80, 0
1, 40768, Note_on_c, 0, 78, 86
1, 40798, Note_on_c, 0, 78, 0
1, 40800, Note_on_c, 0, 77, 102
1, 40832, Note_on_c, 0, 77, 0
1, 40832, Note_on_c, 0, 83, 86
1, 40862, Note_on_c, 0, 83, 0
1, 40864, Note_on_c, 0, 82, 86
1, 40894, Note_on_c, 0, 82, 0
1, 40896, Note_on_c, 0, 80, 86
1, 40926, Note_on_c, 0, 80, 0
1, 40928, Note_on_c, 0, 78, 86
1, 40958, Note_on_c, 0, 78, 0
1, 40960, Note_on_c, 0, 77, 86
1, 40990, Note_on_c, 0, 77, 0
1, 40992, Note_on_c, 0, 75, 80
1, 41022, Note_on_c, 0, 75, 0
1, 41024, Note_on_c, 0, 74, 78
1, 41054, Note_on_c, 0, 74, 0
1, 41056, Note_on_c, 0, 72, 76
1, 41086, Note_on_c, 0, 72, 0
1, 41088, Note_on_c, 0, 70, 75
1, 41118, Note_on_c, 0, 70, 0
1, 41120, Note_on_c, 0, 72, 73
1, 41150, Note_on_c, 0, 72, 0
1, 41152, Note_on_c, 0, 74, 72
1, 41161, Note_on_c, 1, 68, 0
1, 41161, Note_on_c, 1, 65, 0
1, 41161, Note_on_c, 1, 58, 0
1, 41182, Note_on_c, 0, 74, 0
1, 41184, Note_on_c, 0, 75, 70
1, 41184, Note_on_c, 1, 63, 58
1, 41204, Note_on_c, 0, 75, 0
1, 41232, Note_on_c, 1, 63, 0
1, 41232, Note_on_c, 1, 67, 58
1, 41252, Note_on_c, 1, 67, 0
1, 41280, Note_on_c, 0, 75, 70
1, 41280, Note_on_c, 1, 63, 58
1, 41300, Note_on_c, 0, 75, 0
1, 41328, Note_on_c, 1, 63, 0
1, 41328, Note_on_c, 1, 67, 58
1, 41348, Note_on_c, 1, 67, 0
1, 41352, Note_on_c, 0, 77, 70
1, 41360, Note_on_c, 0, 77, 0
1, 41360, Note_on_c, 0, 75, 70
1, 41368, Note_on_c, 0, 75, 0
1, 41368, Note_on_c, 0, 74, 70
1, 41376, Note_on_c, 0, 74, 0
1, 41376, Note_on_c, 0, 75, 70
1, 41376, Note_on_c, 1, 63, 58
1, 41424, Note_on_c, 1, 63, 0
1, 41424, Note_on_c, 1, 67, 58
1, 41444, Note_on_c, 1, 67, 0
1, 41448, Note_on_c, 0, 75, 0
1, 41448, Note_on_c, 0, 77, 70
1, 41471, Note_on_c, 0, 77, 0
1, 41472, Note_on_c, 0, 74, 70
1, 41472, Note_on_c, 1, 63, 58
1, 41492, Note_on_c, 0, 74, 0
1, 41520, Note_on_c, 1, 63, 0
1, 41520, Note_on_c, 1, 68, 58
1, 41540, Note_on_c, 1, 68, 0
1, 41568, Note_on_c, 0, 74, 70
1, 41568, Note_on_c, 1, 63, 58
1, 41588, Note_on_c, 0, 74, 0
1, 41616, Note_on_c, 1, 63, 0
1, 41616, Note_on_c, 1, 68, 58
1, 41636, Note_on_c, 1, 68, 0
1, 41664, Note_on_c, 0, 74, 70
1, 41664, Note_on_c, 1, 63, 58
1, 41694, Note_on_c, 0, 74, 0
1, 41696, Note_on_c, 0, 77, 70
1, 41712, Note_on_c, 1, 63, 0
1, 41712, Note_on_c, 1, 68, 58
1, 41726, Note_on_c, 0, 77, 0
1, 41728, Note_on_c, 0, 80, 70
1, 41732, Note_on_c, 1, 68, 0
1, 41758, Note_on_c, 0, 80, 0
1, 41760, Note_on_c, 0, 84, 86
1, 41760, Note_on_c, 1, 63, 58
1, 41792, Note_on_c, 0, 84, 0
1, 41792, Note_on_c, 0, 82, 70
1, 41808, Note_on_c, 1, 63, 0
1, 41808, Note_on_c, 1, 68, 58
1, 41822, Note_on_c, 0, 82, 0
1, 41824, Note_on_c, 0, 80, 70
1, 41828, Note_on_c, 1, 68, 0
1, 41854, Note_on_c, 0, 80, 0
1, 41856, Note_on_c, 0, 79, 70
1, 41856, Note_on_c, 1, 63, 58
1, 41886, Note_on_c, 0, 79, 0
1, 41888, Note_on_c, 0, 77, 70
1, 41904, Note_on_c, 1, 63, 0
1, 41904, Note_on_c, 1, 68, 58
1, 41918, Note_on_c, 0, 77, 0
1, 41920, Note_on_c, 0, 75, 70
1, 41924, Note_on_c, 1, 68, 0
1, 41950, Note_on_c, 0, 75, 0
1, 41952, Note_on_c, 0, 74, 70
1, 41952, Note_on_c, 1, 63, 58
1, 41982, Note_on_c, 0, 74, 0
1, 41984, Note_on_c, 0, 80, 70
1, 42000, Note_on_c, 1, 63, 0
1, 42000, Note_on_c, 1, 68, 58
1, 42014, Note_on_c, 0, 80, 0
1, 42016, Note_on_c, 0, 74, 70
1, 42020, Note_on_c, 1, 68, 0
1, 42046, Note_on_c, 0, 74, 0
1, 42048, Note_on_c, 0, 75, 70
1, 42048, Note_on_c, 1, 63, 58
1, 42068, Note_on_c, 0, 75, 0
1, 42096, Note_on_c, 1, 63, 0
1, 42096, Note_on_c, 1, 67, 58
1, 42116, Note_on_c, 1, 67, 0
1, 42144, Note_on_c, 0, 75, 70
1, 42144, Note_on_c, 1, 63, 58
1, 42164, Note_on_c, 0, 75, 0
1, 42192, Note_on_c, 1, 63, 0
1, 42192, Note_on_c, 1, 67, 58
1, 42212, Note_on_c, 1, 67, 0
1, 42216, Note_on_c, 0, 77, 70
1, 42224, Note_on_c, 0, 77, 0
1, 42224, Note_on_c, 0, 75, 70
1, 42232, Note_on_c, 0, 75, 0
1, 42232, Note_on_c, 0, 74, 70
1, 42240, Note_on_c, 0, 74, 0
1, 42240, Note_on_c, 0, 75, 70
1, 42240, Note_on_c, 1, 63, 58
1, 42288, Note_on_c, 1, 63, 0
1, 42288, Note_on_c, 1, 67, 58
1, 42308, Note_on_c, 1, 67, 0
1, 42310, Note_on_c, 0, 75, 0
1, 42312, Note_on_c, 0, 79, 70
1, 42335, Note_on_c, 0, 79, 0
1, 42336, Note_on_c, 0, 71, 70
1, 42336, Note_on_c, 1, 63, 58
1, 42356, Note_on_c, 0, 71, 0
1, 42384, Note_on_c, 1, 63, 0
1, 42384, Note_on_c, 1, 67, 58
1, 42404, Note_on_c, 1, 67, 0
1, 42432, Note_on_c, 0, 71, 73
1, 42432, Note_on_c, 1, 63, 58
1, 42452, Note_on_c, 0, 71, 0
1, 42480, Note_on_c, 1, 63, 0
1, 42480, Note_on_c, 1, 67, 58
1, 42500, Note_on_c, 1, 67, 0
1, 42528, Note_on_c, 0, 71, 116
1, 42528, Note_on_c, 1, 63, 58
1, 42576, Note_on_c, 1, 63, 0
1, 42576, Note_on_c, 1, 67, 58
1, 42596, Note_on_c, 1, 67, 0
1, 42624, Note_on_c, 0, 71, 0
1, 42624, Note_on_c, 0, 72, 75
1, 42624, Note_on_c, 1, 63, 58
1, 42654, Note_on_c, 0, 72, 0
1, 42656, Note_on_c, 0, 75, 75
1, 42686, Note_on_c, 0, 75, 0
1, 42688, Note_on_c, 0, 74, 76
1, 42718, Note_on_c, 0, 74, 0
1, 42720, Note_on_c, 0, 72, 77
1, 42750, Note_on_c, 0, 72, 0
1, 42752, Note_on_c, 0, 79, 78
1, 42782, Note_on_c, 0, 79, 0
1, 42784, Note_on_c, 0, 77, 79
1, 42814, Note_on_c, 0, 77, 0
1, 42816, Note_on_c, 0, 75, 79
1, 42846, Note_on_c, 0, 75, 0
1, 42848, Note_on_c, 0, 74, 77
1, 42878, Note_on_c, 0, 74, 0
1, 42880, Note_on_c, 0, 72, 76
1, 42889, Note_on_c, 1, 63, 0
1, 42910, Note_on_c, 0, 72, 0
1, 42912, Note_on_c, 0, 70, 75
1, 42912, Note_on_c, 1, 62, 58
1, 42912, Note_on_c, 1, 53, 80
1, 42965, Note_on_c, 0, 70, 0
1, 42972, Note_on_c, 0, 72, 75
1, 42984, Note_on_c, 0, 72, 0
1, 42984, Note_on_c, 0, 70, 75
1, 42996, Note_on_c, 0, 70, 0
1, 42996, Note_on_c, 0, 69, 75
1, 43008, Note_on_c, 0, 69, 0
1, 43008, Note_on_c, 0, 70, 75
1, 43075, Note_on_c, 0, 70, 0
1, 43080, Note_on_c, 0, 74, 75
1, 43089, Note_on_c, 1, 62, 0
1, 43103, Note_on_c, 0, 74, 0
1, 43104, Note_on_c, 0, 72, 75
1, 43104, Note_on_c, 1, 63, 58
1, 43171, Note_on_c, 0, 72, 0
1, 43176, Note_on_c, 0, 69, 75
1, 43177, Note_on_c, 1, 53, 0
1, 43193, Note_on_c, 1, 63, 0
1, 43199, Note_on_c, 0, 69, 0
1, 43200, Note_on_c, 0, 70, 75
1, 43200, Note_on_c, 1, 62, 58
1, 43200, Note_on_c, 1, 58, 58
1, 43239, Note_on_c, 0, 70, 0
1, 43239, Note_on_c, 1, 62, 0
1, 43239, Note_on_c, 1, 58, 0
1, 43392, Note_on_c, 0, 58, 75
1, 43422, Note_on_c, 0, 58, 0
1, 43424, Note_on_c, 0, 62, 75
1, 43454, Note_on_c, 0, 62, 0
1, 43456, Note_on_c, 0, 65, 75
1, 43486, Note_on_c, 0, 65, 0
1, 43488, Note_on_c, 0, 68, 75
1, 43508, Note_on_c, 0, 68, 0
1, 43520, Note_on_c, 1, 48, 80
1, 43550, Note_on_c, 1, 48, 0
1, 43552, Note_on_c, 1, 46, 80
1, 43582, Note_on_c, 1, 46, 0
1, 43584, Note_on_c, 0, 68, 75
1, 43584, Note_on_c, 1, 44, 80
1, 43604, Note_on_c, 0, 68, 0
1, 43614, Note_on_c, 1, 44, 0
1, 43616, Note_on_c, 1, 43, 80
1, 43646, Note_on_c, 1, 43, 0
1, 43648, Note_on_c, 1, 41, 80
1, 43678, Note_on_c, 1, 41, 0
1, 43680, Note_on_c, 0, 68, 75
1, 43680, Note_on_c, 1, 39, 80
1, 43700, Note_on_c, 0, 68, 0
1, 43710, Note_on_c, 1, 39, 0
1, 43712, Note_on_c, 1, 38, 80
1, 43742, Note_on_c, 1, 38, 0
1, 43744, Note_on_c, 1, 41, 80
1, 43774, Note_on_c, 1, 41, 0
1, 43776, Note_on_c, 0, 67, 75
1, 43776, Note_on_c, 1, 39, 80
1, 43806, Note_on_c, 0, 67, 0
1, 43808, Note_on_c, 0, 70, 75
1, 43838, Note_on_c, 0, 70, 0
1, 43840, Note_on_c, 0, 75, 75
1, 43865, Note_on_c, 1, 39, 0
1, 43870, Note_on_c, 0, 75, 0
1, 43872, Note_on_c, 0, 70, 75
1, 43892, Note_on_c, 0, 70, 0
1, 43968, Note_on_c, 1, 58, 75
1, 43998, Note_on_c, 1, 58, 0
1, 44000, Note_on_c, 1, 62, 75
1, 44030, Note_on_c, 1, 62, 0
1, 44032, Note_on_c, 1, 65, 75
1, 44062, Note_on_c, 1, 65, 0
1, 44064, Note_on_c, 1, 68, 75
1, 44084, Note_on_c, 1, 68, 0
1, 44096, Note_on_c, 0, 70, 75
1, 44126, Note_on_c, 0, 70, 0
1, 44128, Note_on_c, 0, 72, 75
1, 44158, Note_on_c, 0, 72, 0
1, 44160, Note_on_c, 0, 74, 75
1, 44160, Note_on_c, 1, 68, 75
1, 44180, Note_on_c, 1, 68, 0
1, 44190, Note_on_c, 0, 74, 0
1, 44192, Note_on_c, 0, 75, 75
1, 44222, Note_on_c, 0, 75, 0
1, 44224, Note_on_c, 0, 77, 75
1, 44254, Note_on_c, 0, 77, 0
1, 44256, Note_on_c, 0, 79, 75
1, 44256, Note_on_c, 1, 68, 75
1, 44276, Note_on_c, 1, 68, 0
1, 44286, Note_on_c, 0, 79, 0
1, 44288, Note_on_c, 0, 80, 75
1, 44318, Note_on_c, 0, 80, 0
1, 44320, Note_on_c, 0, 77, 75
1, 44350, Note_on_c, 0, 77, 0
1, 44352, Note_on_c, 0, 82, 75
1, 44352, Note_on_c, 1, 67, 75
1, 44382, Note_on_c, 0, 82, 0
1, 44384, Note_on_c, 0, 84, 75
1, 44414, Note_on_c, 0, 84, 0
1, 44416, Note_on_c, 0, 82, 75
1, 44441, Note_on_c, 1, 67, 0
1, 44446, Note_on_c, 0, 82, 0
1, 44448, Note_on_c, 0, 80, 75
1, 44478, Note_on_c, 0, 80, 0
1, 44480, Note_on_c, 0, 79, 75
1, 44510, Note_on_c, 0, 79, 0
1, 44512, Note_on_c, 0, 77, 75
1, 44542, Note_on_c, 0, 77, 0
1, 44544, Note_on_c, 0, 75, 75
1, 44544, Note_on_c, 1, 70, 70
1, 44544, Note_on_c, 1, 67, 70
1, 44574, Note_on_c, 0, 75, 0
1, 44576, Note_on_c, 0, 79, 75
1, 44606, Note_on_c, 0, 79, 0
1, 44608, Note_on_c, 0, 75, 75
1, 44633, Note_on_c, 1, 70, 0
1, 44633, Note_on_c, 1, 67, 0
1, 44638, Note_on_c, 0, 75, 0
1, 44640, Note_on_c, 0, 74, 75
1, 44640, Note_on_c, 1, 68, 70
1, 44640, Note_on_c, 1, 65, 70
1, 44670, Note_on_c, 0, 74, 0
1, 44672, Note_on_c, 0, 77, 75
1, 44702, Note_on_c, 0, 77, 0
1, 44704, Note_on_c, 0, 74, 75
1, 44729, Note_on_c, 1, 68, 0
1, 44729, Note_on_c, 1, 65, 0
1, 44734, Note_on_c, 0, 74, 0
1, 44736, Note_on_c, 0, 72, 75
1, 44736, Note_on_c, 1, 67, 70
1, 44736, Note_on_c, 1, 63, 70
1, 44766, Note_on_c, 0, 72, 0
1, 44768, Note_on_c, 0, 75, 75
1, 44798, Note_on_c, 0, 75, 0
1, 44800, Note_on_c, 0, 72, 75
1, 44825, Note_on_c, 1, 67, 0
1, 44825, Note_on_c, 1, 63, 0
1, 44830, Note_on_c, 0, 72, 0
1, 44832, Note_on_c, 0, 70, 75
1, 44832, Note_on_c, 1, 65, 70
1, 44832, Note_on_c, 1, 62, 70
1, 44862, Note_on_c, 0, 70, 0
1, 44864, Note_on_c, 0, 74, 75
1, 44894, Note_on_c, 0, 74, 0
1, 44896, Note_on_c, 0, 70, 75
1, 44921, Note_on_c, 1, 65, 0
1, 44921, Note_on_c, 1, 62, 0
1, 44926, Note_on_c, 0, 70, 0
1, 44928, Note_on_c, 0, 68, 75
1, 44928, Note_on_c, 1, 63, 70
1, 44928, Note_on_c, 1, 60, 70
1, 44958, Note_on_c, 0, 68, 0
1, 44960, Note_on_c, 0, 72, 75
1, 44990, Note_on_c, 0, 72, 0
1, 44992, Note_on_c, 0, 68, 75
1, 45017, Note_on_c, 1, 63, 0
1, 45017, Note_on_c, 1, 60, 0
1, 45022, Note_on_c, 0, 68, 0
1, 45024, Note_on_c, 0, 67, 75
1, 45024, Note_on_c, 1, 62, 70
1, 45024, Note_on_c, 1, 58, 70
1, 45054, Note_on_c, 0, 67, 0
1, 45056, Note_on_c, 0, 70, 75
1, 45086, Note_on_c, 0, 70, 0
1, 45088, Note_on_c, 0, 67, 75
1, 45113, Note_on_c, 1, 62, 0
1, 45113, Note_on_c, 1, 58, 0
1, 45118, Note_on_c, 0, 67, 0
1, 45120, Note_on_c, 0, 65, 75
1, 45120, Note_on_c, 1, 60, 70
1, 45120, Note_on_c, 1, 56, 70
1, 45150, Note_on_c, 0, 65, 0
1, 45152, Note_on_c, 0, 68, 75
1, 45182, Note_on_c, 0, 68, 0
1, 45184, Note_on_c, 0, 65, 75
1, 45209, Note_on_c, 1, 60, 0
1, 45209, Note_on_c, 1, 56, 0
1, 45214, Note_on_c, 0, 65, 0
1, 45216, Note_on_c, 0, 70, 75
1, 45216, Note_on_c, 1, 58, 70
1, 45216, Note_on_c, 1, 55, 70
1, 45246, Note_on_c, 0, 70, 0
1, 45248, Note_on_c, 0, 62, 75
1, 45278, Note_on_c, 0, 62, 0
1, 45280, Note_on_c, 0, 63, 75
1, 45305, Note_on_c, 1, 58, 0
1, 45305, Note_on_c, 1, 55, 0
1, 45310, Note_on_c, 0, 63, 0
1, 45312, Note_on_c, 0, 72, 75
1, 45312, Note_on_c, 1, 56, 70
1, 45342, Note_on_c, 0, 72, 0
1, 45344, Note_on_c, 0, 64, 91
1, 45376, Note_on_c, 0, 64, 0
1, 45376, Note_on_c, 0, 65, 73
1, 45406, Note_on_c, 0, 65, 0
1, 45408, Note_on_c, 0, 72, 72
1, 45438, Note_on_c, 0, 72, 0
1, 45440, Note_on_c, 0, 68, 71
1, 45470, Note_on_c, 0, 68, 0
1, 45472, Note_on_c, 0, 65, 70
1, 45489, Note_on_c, 1, 56, 0
1, 45502, Note_on_c, 0, 65, 0
1, 45504, Note_on_c, 0, 63, 69
1, 45504, Note_on_c, 1, 55, 75
1, 45504, Note_on_c, 1, 46, 80
1, 45600, Note_on_c, 0, 63, 0
1, 45600, Note_on_c, 0, 62, 66
1, 45600, Note_on_c, 1, 55, 0
1, 45600, Note_on_c, 1, 53, 67
1, 45620, Note_on_c, 0, 62, 0
1, 45637, Note_on_c, 1, 46, 0
1, 45645, Note_on_c, 1, 53, 0
1, 45672, Note_on_c, 0, 70, 80
1, 45695, Note_on_c, 0, 70, 0
1, 45696, Note_on_c, 0, 72, 80
1, 45708, Note_on_c, 0, 72, 0
1, 45708, Note_on_c, 0, 70, 80
1, 45720, Note_on_c, 0, 70, 0
1, 45720, Note_on_c, 0, 69, 80
1, 45732, Note_on_c, 0, 69, 0
1, 45732, Note_on_c, 0, 70, 80
1, 45785, Note_on_c, 0, 70, 0
1, 45792, Note_on_c, 0, 75, 80
1, 45792, Note_on_c, 1, 51, 70
1, 45812, Note_on_c, 0, 75, 0
1, 45822, Note_on_c, 1, 51, 0
1, 45824, Note_on_c, 1, 55, 70
1, 45854, Note_on_c, 1, 55, 0
1, 45856, Note_on_c, 1, 58, 70
1, 45886, Note_on_c, 1, 58, 0
1, 45888, Note_on_c, 0, 75, 80
1, 45888, Note_on_c, 1, 51, 70
1, 45908, Note_on_c, 0, 75, 0
1, 45918, Note_on_c, 1, 51, 0
1, 45920, Note_on_c, 1, 55, 70
1, 45950, Note_on_c, 1, 55, 0
1, 45952, Note_on_c, 1, 58, 70
1, 45982, Note_on_c, 1, 58, 0
1, 45984, Note_on_c, 0, 77, 80
1, 45984, Note_on_c, 1, 51, 70
1, 45996, Note_on_c, 0, 77, 0
1, 45996, Note_on_c, 0, 75, 80
1, 46008, Note_on_c, 0, 75, 0
1, 46008, Note_on_c, 0, 74, 80
1, 46014, Note_on_c, 1, 51, 0
1, 46016, Note_on_c, 1, 55, 70
1, 46020, Note_on_c, 0, 74, 0
1, 46020, Note_on_c, 0, 75, 80
1, 46046, Note_on_c, 1, 55, 0
1, 46048, Note_on_c, 1, 58, 70
1, 46056, Note_on_c, 0, 75, 0
1, 46056, Note_on_c, 0, 77, 80
1, 46078, Note_on_c, 1, 58, 0
1, 46079, Note_on_c, 0, 77, 0
1, 46080, Note_on_c, 0, 74, 80
1, 46080, Note_on_c, 1, 51, 70
1, 46100, Note_on_c, 0, 74, 0
1, 46110, Note_on_c, 1, 51, 0
1, 46112, Note_on_c, 1, 53, 70
1, 46142, Note_on_c, 1, 53, 0
1, 46144, Note_on_c, 1, 56, 70
1, 46174, Note_on_c, 1, 56, 0
1, 46176, Note_on_c, 0, 74, 80
1, 46176, Note_on_c, 1, 51, 70
1, 46196, Note_on_c, 0, 74, 0
1, 46206, Note_on_c, 1, 51, 0
1, 46208, Note_on_c, 1, 53, 70
1, 46238, Note_on_c, 1, 53, 0
1, 46240, Note_on_c, 1, 56, 70
1, 46270, Note_on_c, 1, 56, 0
1, 46272, Note_on_c, 0, 74, 80
1, 46272, Note_on_c, 1, 51, 70
1, 46302, Note_on_c, 0, 74, 0
1, 46302, Note_on_c, 1, 51, 0
1, 46304, Note_on_c, 0, 77, 80
1, 46304, Note_on_c, 1, 53, 70
1, 46334, Note_on_c, 0, 77, 0
1, 46334, Note_on_c, 1, 53, 0
1, 46336, Note_on_c, 0, 80, 80
1, 46336, Note_on_c, 1, 56, 70
1, 46366, Note_on_c, 0, 80, 0
1, 46366, Note_on_c, 1, 56, 0
1, 46368, Note_on_c, 0, 84, 96
1, 46368, Note_on_c, 1, 51, 70
1, 46398, Note_on_c, 1, 51, 0
1, 46400, Note_on_c, 0, 84, 0
1, 46400, Note_on_c, 0, 82, 80
1, 46400, Note_on_c, 1, 53, 70
1, 46430, Note_on_c, 0, 82, 0
1, 46430, Note_on_c, 1, 53, 0
1, 46432, Note_on_c, 0, 80, 80
1, 46432, Note_on_c, 1, 56, 70
1, 46462, Note_on_c, 0, 80, 0
1, 46462, Note_on_c, 1, 56, 0
1, 46464, Note_on_c, 0, 79, 80
1, 46464, Note_on_c, 1, 51, 70
1, 46494, Note_on_c, 0, 79, 0
1, 46494, Note_on_c, 1, 51, 0
1, 46496, Note_on_c, 0, 77, 80
1, 46496, Note_on_c, 1, 53, 70
1, 46526, Note_on_c, 0, 77, 0
1, 46526, Note_on_c, 1, 53, 0
1, 46528, Note_on_c, 0, 75, 80
1, 46528, Note_on_c, 1, 56, 70
1, 46558, Note_on_c, 0, 75, 0
1, 46558, Note_on_c, 1, 56, 0
1, 46560, Note_on_c, 0, 74, 80
1, 46560, Note_on_c, 1, 51, 70
1, 46590, Note_on_c, 0, 74, 0
1, 46590, Note_on_c, 1, 51, 0
1, 46592, Note_on_c, 0, 80, 80
1, 46592, Note_on_c, 1, 53, 70
1, 46622, Note_on_c, 0, 80, 0
1, 46622, Note_on_c, 1, 53, 0
1, 46624, Note_on_c, 0, 74, 80
1, 46624, Note_on_c, 1, 56, 70
1, 46654, Note_on_c, 0, 74, 0
1, 46654, Note_on_c, 1, 56, 0
1, 46656, Note_on_c, 0, 75, 80
1, 46656, Note_on_c, 1, 51, 70
1, 46676, Note_on_c, 0, 75, 0
1, 46686, Note_on_c, 1, 51, 0
1, 46688, Note_on_c, 1, 55, 70
1, 46718, Note_on_c, 1, 55, 0
1, 46720, Note_on_c, 1, 58, 70
1, 46750, Note_on_c, 1, 58, 0
1, 46752, Note_on_c, 0, 75, 80
1, 46752, Note_on_c, 1, 51, 70
1, 46772, Note_on_c, 0, 75, 0
1, 46782, Note_on_c, 1, 51, 0
1, 46784, Note_on_c, 1, 55, 70
1, 46814, Note_on_c, 1, 55, 0
1, 46816, Note_on_c, 1, 58, 70
1, 46824, Note_on_c, 0, 75, 80
1, 46846, Note_on_c, 1, 58, 0
1, 46847, Note_on_c, 0, 75, 0
1, 46848, Note_on_c, 0, 77, 80
1, 46848, Note_on_c, 1, 51, 70
1, 46854, Note_on_c, 0, 77, 0
1, 46854, Note_on_c, 0, 75, 80
1, 46871, Note_on_c, 0, 75, 0
1, 46872, Note_on_c, 0, 74, 80
1, 46878, Note_on_c, 1, 51, 0
1, 46880, Note_on_c, 1, 55, 70
1, 46895, Note_on_c, 0, 74, 0
1, 46896, Note_on_c, 0, 75, 80
1, 46910, Note_on_c, 1, 55, 0
1, 46912, Note_on_c, 1, 58, 70
1, 46919, Note_on_c, 0, 75, 0
1, 46920, Note_on_c, 0, 77, 80
1, 46942, Note_on_c, 1, 58, 0
1, 46943, Note_on_c, 0, 77, 0
1, 46944, Note_on_c, 0, 79, 80
1, 46944, Note_on_c, 1, 49, 75
1, 46974, Note_on_c, 1, 49, 0
1, 46976, Note_on_c, 1, 55, 75
1, 46983, Note_on_c, 0, 79, 0
1, 47006, Note_on_c, 1, 55, 0
1, 47008, Note_on_c, 1, 58, 75
1, 47038, Note_on_c, 1, 58, 0
1, 47040, Note_on_c, 0, 79, 81
1, 47040, Note_on_c, 1, 49, 75
1, 47070, Note_on_c, 1, 49, 0
1, 47072, Note_on_c, 1, 55, 75
1, 47102, Note_on_c, 1, 55, 0
1, 47104, Note_on_c, 1, 58, 75
1, 47107, Note_on_c, 0, 79, 0
1, 47112, Note_on_c, 0, 82, 81
1, 47134, Note_on_c, 1, 58, 0
1, 47135, Note_on_c, 0, 82, 0
1, 47136, Note_on_c, 0, 87, 82
1, 47136, Note_on_c, 1, 49, 76
1, 47166, Note_on_c, 0, 87, 0
1, 47166, Note_on_c, 1, 49, 0
1, 47168, Note_on_c, 0, 82, 82
1, 47168, Note_on_c, 1, 55, 76
1, 47198, Note_on_c, 0, 82, 0
1, 47198, Note_on_c, 1, 55, 0
1, 47200, Note_on_c, 0, 79, 82
1, 47200, Note_on_c, 1, 58, 76
1, 47230, Note_on_c, 0, 79, 0
1, 47230, Note_on_c, 1, 58, 0
1, 47232, Note_on_c, 0, 80, 82
1, 47232, Note_on_c, 1, 48, 76
1, 47262, Note_on_c, 1, 48, 0
1, 47264, Note_on_c, 1, 51, 76
1, 47285, Note_on_c, 0, 80, 0
1, 47292, Note_on_c, 0, 82, 82
1, 47294, Note_on_c, 1, 51, 0
1, 47296, Note_on_c, 1, 56, 77
1, 47304, Note_on_c, 0, 82, 0
1, 47304, Note_on_c, 0, 80, 82
1, 47316, Note_on_c, 0, 80, 0
1, 47316, Note_on_c, 0, 79, 82
1, 47326, Note_on_c, 1, 56, 0
1, 47328, Note_on_c, 0, 79, 0
1, 47328, Note_on_c, 0, 80, 83
1, 47328, Note_on_c, 1, 48, 77
1, 47358, Note_on_c, 1, 48, 0
1, 47360, Note_on_c, 1, 51, 77
1, 47390, Note_on_c, 1, 51, 0
1, 47392, Note_on_c, 1, 56, 77
1, 47395, Note_on_c, 0, 80, 0
1, 47400, Note_on_c, 0, 82, 84
1, 47422, Note_on_c, 1, 56, 0
1, 47423, Note_on_c, 0, 82, 0
1, 47424, Note_on_c, 0, 84, 84
1, 47424, Note_on_c, 1, 44, 77
1, 47454, Note_on_c, 0, 84, 0
1, 47454, Note_on_c, 1, 44, 0
1, 47456, Note_on_c, 0, 80, 85
1, 47456, Note_on_c, 1, 48, 78
1, 47486, Note_on_c, 0, 80, 0
1, 47486, Note_on_c, 1, 48, 0
1, 47488, Note_on_c, 0, 77, 85
1, 47488, Note_on_c, 1, 53, 78
1, 47518, Note_on_c, 0, 77, 0
1, 47518, Note_on_c, 1, 53, 0
1, 47520, Note_on_c, 0, 75, 86
1, 47520, Note_on_c, 1, 55, 78
1, 47520, Note_on_c, 1, 46, 86
1, 47573, Note_on_c, 0, 75, 0
1, 47580, Note_on_c, 0, 77, 86
1, 47592, Note_on_c, 0, 77, 0
1, 47592, Note_on_c, 0, 75, 86
1, 47604, Note_on_c, 0, 75, 0
1, 47604, Note_on_c, 0, 74, 86
1, 47616, Note_on_c, 0, 74, 0
1, 47616, Note_on_c, 0, 75, 86
1, 47683, Note_on_c, 0, 75, 0
1, 47688, Note_on_c, 0, 79, 86
1, 47697, Note_on_c, 1, 55, 0
1, 47711, Note_on_c, 0, 79, 0
1, 47712, Note_on_c, 0, 77, 86
1, 47712, Note_on_c, 1, 56, 80
1, 47779, Note_on_c, 0, 77, 0
1, 47784, Note_on_c, 0, 74, 86
1, 47785, Note_on_c, 1, 46, 0
1, 47801, Note_on_c, 1, 56, 0
1, 47807, Note_on_c, 0, 74, 0
1, 47808, Note_on_c, 0, 75, 86
1, 47808, Note_on_c, 1, 55, 80
1, 47808, Note_on_c, 1, 51, 80
1, 47853, Note_on_c, 0, 75, 0
1, 47853, Note_on_c, 1, 55, 0
1, 47853, Note_on_c, 1, 51, 0
1, 48000, Note_on_c, 0, 70, 64
1, 48030, Note_on_c, 0, 70, 0
1, 48032, Note_on_c, 0, 67, 64
1, 48062, Note_on_c, 0, 67, 0
1, 48064, Note_on_c, 0, 63, 64
1, 48094, Note_on_c, 0, 63, 0
1, 48096, Note_on_c, 0, 62, 64
1, 48096, Note_on_c, 1, 46, 64
1, 48116, Note_on_c, 0, 62, 0
1, 48126, Note_on_c, 1, 46, 0
1, 48128, Note_on_c, 1, 50, 64
1, 48158, Note_on_c, 1, 50, 0
1, 48160, Note_on_c, 1, 53, 64
1, 48190, Note_on_c, 1, 53, 0
1, 48192, Note_on_c, 1, 56, 64
1, 48212, Note_on_c, 1, 56, 0
1, 48224, Note_on_c, 0, 72, 64
1, 48254, Note_on_c, 0, 72, 0
1, 48256, Note_on_c, 0, 70, 64
1, 48286, Note_on_c, 0, 70, 0
1, 48288, Note_on_c, 0, 68, 64
1, 48318, Note_on_c, 0, 68, 0
1, 48320, Note_on_c, 0, 67, 64
1, 48350, Note_on_c, 0, 67, 0
1, 48352, Note_on_c, 0, 65, 64
1, 48382, Note_on_c, 0, 65, 0
1, 48384, Note_on_c, 0, 63, 64
1, 48384, Note_on_c, 1, 39, 64
1, 48404, Note_on_c, 0, 63, 0
1, 48414, Note_on_c, 1, 39, 0
1, 48416, Note_on_c, 1, 43, 64
1, 48446, Note_on_c, 1, 43, 0
1, 48448, Note_on_c, 1, 46, 64
1, 48478, Note_on_c, 1, 46, 0
1, 48480, Note_on_c, 1, 51, 64
1, 48500, Note_on_c, 1, 51, 0
1, 48576, Note_on_c, 0, 58, 64
1, 48606, Note_on_c, 0, 58, 0
1, 48608, Note_on_c, 0, 55, 64
1, 48638, Note_on_c, 0, 55, 0
1, 48640, Note_on_c, 0, 51, 64
1, 48670, Note_on_c, 0, 51, 0
1, 48672, Note_on_c, 0, 50, 64
1, 48672, Note_on_c, 1, 34, 64
1, 48692, Note_on_c, 0, 50, 0
1, 48702, Note_on_c, 1, 34, 0
1, 48704, Note_on_c, 1, 38, 64
1, 48734, Note_on_c, 1, 38, 0
1, 48736, Note_on_c, 1, 41, 64
1, 48766, Note_on_c, 1, 41, 0
1, 48768, Note_on_c, 1, 46, 64
1, 48788, Note_on_c, 1, 46, 0
1, 48800, Note_on_c, 0, 60, 64
1, 48830, Note_on_c, 0, 60, 0
1, 48832, Note_on_c, 0, 58, 64
1, 48862, Note_on_c, 0, 58, 0
1, 48864, Note_on_c, 0, 56, 64
1, 48894, Note_on_c, 0, 56, 0
1, 48896, Note_on_c, 0, 55, 64
1, 48926, Note_on_c, 0, 55, 0
1, 48928, Note_on_c, 0, 53, 64
1, 48958, Note_on_c, 0, 53, 0
1, 48960, Note_on_c, 0, 51, 64
1, 48960, Note_on_c, 1, 39, 64
1, 48980, Note_on_c, 0, 51, 0
1, 48990, Note_on_c, 1, 39, 0
1, 48992, Note_on_c, 1, 43, 66
1, 49022, Note_on_c, 1, 43, 0
1, 49024, Note_on_c, 1, 46, 68
1, 49054, Note_on_c, 1, 46, 0
1, 49056, Note_on_c, 1, 51, 70
1, 49086, Note_on_c, 1, 51, 0
1, 49088, Note_on_c, 1, 46, 72
1, 49118, Note_on_c, 1, 46, 0
1, 49120, Note_on_c, 1, 43, 74
1, 49150, Note_on_c, 1, 43, 0
1, 49152, Note_on_c, 0, 74, 76
1, 49152, Note_on_c, 0, 68, 76
1, 49152, Note_on_c, 0, 65, 76
1, 49152, Note_on_c, 1, 46, 76
1, 49172, Note_on_c, 0, 74, 0
1, 49172, Note_on_c, 0, 68, 0
1, 49172, Note_on_c, 0, 65, 0
1, 49172, Note_on_c, 1, 46, 0
1, 49248, Note_on_c, 0, 75, 80
1, 49248, Note_on_c, 0, 70, 80
1, 49248, Note_on_c, 0, 67, 80
1, 49248, Note_on_c, 1, 51, 80
1, 49248, Note_on_c, 1, 39, 80
1, 49268, Note_on_c, 0, 75, 0
1, 49268, Note_on_c, 0, 70, 0
1, 49268, Note_on_c, 0, 67, 0
1, 49268, Note_on_c, 1, 51, 0
1, 49268, Note_on_c, 1, 39, 0
1, 49536, Note_on_c, 1, 39, 0
1, 49625, Note_on_c, 1, 39, 0
1, 49635, End_track
0, 0, End_of_file