0, 0, Header, 0, 1, 96
1, 0, Start_track
1, 0, Tempo, 468750
1, 0, Note_on_c, 0, 59, 64
1, 0, Note_on_c, 1, 52, 64
1, 12, Note_on_c, 0, 59, 0
1, 12, Note_on_c, 0, 64, 64
1, 24, Note_on_c, 0, 64, 0
1, 24, Note_on_c, 0, 68, 64
1, 36, Note_on_c, 0, 68, 0
1, 36, Note_on_c, 0, 71, 64
1, 89, Note_on_c, 1, 52, 0
1, 96, Note_on_c, 1, 56, 64
1, 177, Note_on_c, 0, 71, 0
1, 185, Note_on_c, 1, 56, 0
1, 192, Note_on_c, 0, 69, 64
1, 192, Note_on_c, 1, 52, 64
1, 215, Note_on_c, 0, 69, 0
1, 216, Note_on_c, 0, 68, 64
1, 239, Note_on_c, 0, 68, 0
1, 240, Note_on_c, 0, 66, 64
1, 263, Note_on_c, 0, 66, 0
1, 264, Note_on_c, 0, 64, 64
1, 281, Note_on_c, 1, 52, 0
1, 287, Note_on_c, 0, 64, 0
1, 288, Note_on_c, 0, 73, 64
1, 288, Note_on_c, 1, 57, 64
1, 377, Note_on_c, 0, 73, 0
1, 384, Note_on_c, 0, 75, 64
1, 465, Note_on_c, 1, 57, 0
1, 473, Note_on_c, 0, 75, 0
1, 480, Note_on_c, 0, 76, 64
1, 480, Note_on_c, 1, 56, 64
1, 569, Note_on_c, 0, 76, 0
1, 569, Note_on_c, 1, 56, 0
1, 576, Note_on_c, 0, 71, 64
1, 665, Note_on_c, 0, 71, 0
1, 672, Note_on_c, 0, 69, 64
1, 672, Note_on_c, 1, 59, 64
1, 672, Note_on_c, 1, 51, 64
1, 739, Note_on_c, 0, 69, 0
1, 744, Note_on_c, 0, 66, 64
1, 761, Note_on_c, 1, 59, 0
1, 761, Note_on_c, 1, 51, 0
1, 767, Note_on_c, 0, 66, 0
1, 768, Note_on_c, 0, 68, 64
1, 768, Note_on_c, 1, 59, 64
1, 768, Note_on_c, 1, 52, 64
1, 835, Note_on_c, 0, 68, 0
1, 840, Note_on_c, 0, 64, 64
1, 857, Note_on_c, 1, 59, 0
1, 857, Note_on_c, 1, 52, 0
1, 863, Note_on_c, 0, 64, 0
1, 864, Note_on_c, 0, 66, 64
1, 864, Note_on_c, 1, 57, 64
1, 864, Note_on_c, 1, 47, 64
1, 931, Note_on_c, 0, 66, 0
1, 936, Note_on_c, 0, 63, 64
1, 953, Note_on_c, 1, 57, 0
1, 953, Note_on_c, 1, 47, 0
1, 959, Note_on_c, 0, 63, 0
1, 960, Note_on_c, 0, 64, 64
1, 960, Note_on_c, 1, 56, 64
1, 960, Note_on_c, 1, 52, 64
1, 1049, Note_on_c, 0, 64, 0
1, 1049, Note_on_c, 1, 56, 0
1, 1049, Note_on_c, 1, 52, 0
1, 1056, Note_on_c, 0, 59, 64
1, 1079, Note_on_c, 0, 59, 0
1, 1080, Note_on_c, 0, 64, 64
1, 1103, Note_on_c, 0, 64, 0
1, 1104, Note_on_c, 0, 68, 64
1, 1127, Note_on_c, 0, 68, 0
1, 1128, Note_on_c, 0, 71, 64
1, 1151, Note_on_c, 0, 71, 0
1, 1152, Note_on_c, 0, 71, 64
1, 1241, Note_on_c, 0, 71, 0
1, 1248, Note_on_c, 0, 69, 64
1, 1248, Note_on_c, 1, 59, 64
1, 1248, Note_on_c, 1, 51, 64
1, 1315, Note_on_c, 0, 69, 0
1, 1320, Note_on_c, 0, 66, 64
1, 1337, Note_on_c, 1, 59, 0
1, 1337, Note_on_c, 1, 51, 0
1, 1343, Note_on_c, 0, 66, 0
1, 1344, Note_on_c, 0, 68, 64
1, 1344, Note_on_c, 1, 59, 64
1, 1344, Note_on_c, 1, 52, 64
1, 1411, Note_on_c, 0, 68, 0
1, 1416, Note_on_c, 0, 64, 64
1, 1433, Note_on_c, 1, 59, 0
1, 1433, Note_on_c, 1, 52, 0
1, 1439, Note_on_c, 0, 64, 0
1, 1440, Note_on_c, 0, 66, 64
1, 1440, Note_on_c, 1, 57, 64
1, 1440, Note_on_c, 1, 47, 64
1, 1507, Note_on_c, 0, 66, 0
1, 1512, Note_on_c, 0, 63, 64
1, 1529, Note_on_c, 1, 57, 0
1, 1529, Note_on_c, 1, 47, 0
1, 1535, Note_on_c, 0, 63, 0
1, 1536, Note_on_c, 0, 64, 64
1, 1536, Note_on_c, 1, 56, 64
1, 1536, Note_on_c, 1, 52, 64
1, 1625, Note_on_c, 0, 64, 0
1, 1625, Note_on_c, 1, 56, 0
1, 1625, Note_on_c, 1, 52, 0
1, 1728, Note_on_c, 0, 71, 64
1, 1728, Note_on_c, 1, 52, 64
1, 1817, Note_on_c, 1, 52, 0
1, 1824, Note_on_c, 1, 56, 64
1, 1905, Note_on_c, 0, 71, 0
1, 1913, Note_on_c, 1, 56, 0
1, 1920, Note_on_c, 0, 69, 64
1, 1920, Note_on_c, 1, 52, 64
1, 1943, Note_on_c, 0, 69, 0
1, 1944, Note_on_c, 0, 68, 64
1, 1967, Note_on_c, 0, 68, 0
1, 1968, Note_on_c, 0, 66, 64
1, 1991, Note_on_c, 0, 66, 0
1, 1992, Note_on_c, 0, 64, 64
1, 2009, Note_on_c, 1, 52, 0
1, 2015, Note_on_c, 0, 64, 0
1, 2016, Note_on_c, 0, 73, 75
1, 2016, Note_on_c, 1, 57, 75
1, 2061, Note_on_c, 0, 73, 0
1, 2088, Note_on_c, 0, 73, 75
1, 2111, Note_on_c, 0, 73, 0
1, 2112, Note_on_c, 0, 75, 76
1, 2157, Note_on_c, 0, 75, 0
1, 2184, Note_on_c, 0, 75, 77
1, 2193, Note_on_c, 1, 57, 0
1, 2207, Note_on_c, 0, 75, 0
1, 2208, Note_on_c, 0, 76, 77
1, 2208, Note_on_c, 1, 56, 77
1, 2253, Note_on_c, 0, 76, 0
1, 2280, Note_on_c, 0, 76, 78
1, 2297, Note_on_c, 1, 56, 0
1, 2303, Note_on_c, 0, 76, 0
1, 2304, Note_on_c, 0, 71, 78
1, 2393, Note_on_c, 0, 71, 0
1, 2400, Note_on_c, 0, 81, 80
1, 2400, Note_on_c, 0, 78, 80
1, 2400, Note_on_c, 1, 63, 80
1, 2489, Note_on_c, 0, 81, 0
1, 2489, Note_on_c, 0, 78, 0
1, 2489, Note_on_c, 1, 63, 0
1, 2496, Note_on_c, 0, 80, 80
1, 2496, Note_on_c, 0, 76, 80
1, 2496, Note_on_c, 1, 64, 80
1, 2585, Note_on_c, 0, 80, 0
1, 2585, Note_on_c, 0, 76, 0
1, 2585, Note_on_c, 1, 64, 0
1, 2592, Note_on_c, 0, 81, 80
1, 2592, Note_on_c, 0, 76, 64
1, 2592, Note_on_c, 1, 59, 80
1, 2615, Note_on_c, 0, 81, 0
1, 2616, Note_on_c, 0, 80, 80
1, 2639, Note_on_c, 0, 80, 0
1, 2640, Note_on_c, 0, 78, 80
1, 2663, Note_on_c, 0, 78, 0
1, 2664, Note_on_c, 0, 80, 80
1, 2681, Note_on_c, 0, 76, 0
1, 2681, Note_on_c, 1, 59, 0
1, 2687, Note_on_c, 0, 80, 0
1, 2688, Note_on_c, 0, 78, 80
1, 2688, Note_on_c, 0, 75, 80
1, 2688, Note_on_c, 1, 71, 80
1, 2777, Note_on_c, 0, 78, 0
1, 2777, Note_on_c, 0, 75, 0
1, 2777, Note_on_c, 1, 71, 0
1, 2880, Note_on_c, 0, 78, 75
1, 2976, Note_on_c, 1, 75, 75
1, 3057, Note_on_c, 0, 78, 0
1, 3065, Note_on_c, 1, 75, 0
1, 3072, Note_on_c, 0, 83, 75
1, 3072, Note_on_c, 1, 71, 75
1, 3095, Note_on_c, 0, 83, 0
1, 3096, Note_on_c, 0, 82, 75
1, 3119, Note_on_c, 0, 82, 0
1, 3120, Note_on_c, 0, 80, 75
1, 3143, Note_on_c, 0, 80, 0
1, 3144, Note_on_c, 0, 78, 75
1, 3161, Note_on_c, 1, 71, 0
1, 3167, Note_on_c, 0, 78, 0
1, 3168, Note_on_c, 0, 78, 75
1, 3168, Note_on_c, 1, 73, 75
1, 3216, Note_on_c, 0, 78, 0
1, 3216, Note_on_c, 0, 76, 75
1, 3257, Note_on_c, 1, 73, 0
1, 3261, Note_on_c, 0, 76, 0
1, 3264, Note_on_c, 1, 70, 75
1, 3312, Note_on_c, 0, 73, 75
1, 3353, Note_on_c, 1, 70, 0
1, 3357, Note_on_c, 0, 73, 0
1, 3360, Note_on_c, 1, 71, 75
1, 3408, Note_on_c, 0, 75, 75
1, 3449, Note_on_c, 1, 71, 0
1, 3453, Note_on_c, 0, 75, 0
1, 3456, Note_on_c, 0, 73, 75
1, 3552, Note_on_c, 1, 68, 75
1, 3552, Note_on_c, 1, 64, 75
1, 3575, Note_on_c, 0, 73, 0
1, 3576, Note_on_c, 0, 75, 75
1, 3599, Note_on_c, 0, 75, 0
1, 3600, Note_on_c, 0, 76, 75
1, 3623, Note_on_c, 0, 76, 0
1, 3624, Note_on_c, 0, 75, 75
1, 3641, Note_on_c, 1, 68, 0
1, 3641, Note_on_c, 1, 64, 0
1, 3647, Note_on_c, 0, 75, 0
1, 3648, Note_on_c, 0, 78, 75
1, 3648, Note_on_c, 1, 68, 75
1, 3648, Note_on_c, 1, 64, 75
1, 3671, Note_on_c, 0, 78, 0
1, 3672, Note_on_c, 0, 76, 75
1, 3695, Note_on_c, 0, 76, 0
1, 3696, Note_on_c, 0, 75, 75
1, 3719, Note_on_c, 0, 75, 0
1, 3720, Note_on_c, 0, 73, 75
1, 3737, Note_on_c, 1, 68, 0
1, 3737, Note_on_c, 1, 64, 0
1, 3743, Note_on_c, 0, 73, 0
1, 3744, Note_on_c, 0, 71, 75
1, 3744, Note_on_c, 1, 66, 75
1, 3833, Note_on_c, 1, 66, 0
1, 3840, Note_on_c, 1, 61, 75
1, 3929, Note_on_c, 1, 61, 0
1, 3936, Note_on_c, 0, 71, 0
1, 3936, Note_on_c, 0, 70, 75
1, 3936, Note_on_c, 1, 54, 75
1, 4025, Note_on_c, 0, 70, 0
1, 4025, Note_on_c, 1, 54, 0
1, 4032, Note_on_c, 0, 80, 75
1, 4050, Note_on_c, 0, 80, 0
1, 4050, Note_on_c, 0, 78, 75
1, 4128, Note_on_c, 1, 59, 75
1, 4128, Note_on_c, 1, 51, 75
1, 4209, Note_on_c, 0, 78, 0
1, 4217, Note_on_c, 1, 59, 0
1, 4217, Note_on_c, 1, 51, 0
1, 4224, Note_on_c, 0, 76, 75
1, 4224, Note_on_c, 1, 59, 75
1, 4224, Note_on_c, 1, 51, 75
1, 4247, Note_on_c, 0, 76, 0
1, 4248, Note_on_c, 0, 75, 75
1, 4271, Note_on_c, 0, 75, 0
1, 4272, Note_on_c, 0, 73, 75
1, 4295, Note_on_c, 0, 73, 0
1, 4296, Note_on_c, 0, 71, 75
1, 4313, Note_on_c, 1, 59, 0
1, 4313, Note_on_c, 1, 51, 0
1, 4319, Note_on_c, 0, 71, 0
1, 4320, Note_on_c, 0, 80, 75
1, 4320, Note_on_c, 1, 59, 75
1, 4320, Note_on_c, 1, 52, 75
1, 4365, Note_on_c, 0, 80, 0
1, 4368, Note_on_c, 0, 76, 75
1, 4409, Note_on_c, 1, 59, 0
1, 4409, Note_on_c, 1, 52, 0
1, 4413, Note_on_c, 0, 76, 0
1, 4416, Note_on_c, 1, 64, 75
1, 4464, Note_on_c, 0, 85, 75
1, 4484, Note_on_c, 0, 85, 0
1, 4505, Note_on_c, 1, 64, 0
1, 4512, Note_on_c, 1, 64, 75
1, 4560, Note_on_c, 0, 82, 75
1, 4580, Note_on_c, 0, 82, 0
1, 4601, Note_on_c, 1, 64, 0
1, 4608, Note_on_c, 1, 63, 75
1, 4656, Note_on_c, 0, 82, 75
1, 4697, Note_on_c, 1, 63, 0
1, 4704, Note_on_c, 0, 82, 0
1, 4704, Note_on_c, 0, 83, 75
1, 4749, Note_on_c, 0, 83, 0
1, 4752, Note_on_c, 0, 78, 75
1, 4797, Note_on_c, 0, 78, 0
1, 4800, Note_on_c, 0, 75, 75
1, 4845, Note_on_c, 0, 75, 0
1, 4848, Note_on_c, 0, 71, 75
1, 4893, Note_on_c, 0, 71, 0
1, 4896, Note_on_c, 0, 80, 75
1, 4896, Note_on_c, 1, 52, 75
1, 4941, Note_on_c, 0, 80, 0
1, 4944, Note_on_c, 0, 76, 75
1, 4985, Note_on_c, 1, 52, 0
1, 4989, Note_on_c, 0, 76, 0
1, 4992, Note_on_c, 1, 64, 75
1, 5040, Note_on_c, 0, 85, 75
1, 5060, Note_on_c, 0, 85, 0
1, 5081, Note_on_c, 1, 64, 0
1, 5088, Note_on_c, 1, 64, 75
1, 5136, Note_on_c, 0, 82, 75
1, 5156, Note_on_c, 0, 82, 0
1, 5177, Note_on_c, 1, 64, 0
1, 5184, Note_on_c, 1, 63, 75
1, 5232, Note_on_c, 0, 82, 75
1, 5273, Note_on_c, 1, 63, 0
1, 5280, Note_on_c, 0, 82, 0
1, 5280, Note_on_c, 0, 83, 75
1, 5325, Note_on_c, 0, 83, 0
1, 5328, Note_on_c, 0, 78, 75
1, 5373, Note_on_c, 0, 78, 0
1, 5376, Note_on_c, 0, 75, 75
1, 5421, Note_on_c, 0, 75, 0
1, 5424, Note_on_c, 0, 71, 75
1, 5469, Note_on_c, 0, 71, 0
1, 5472, Note_on_c, 1, 64, 75
1, 5520, Note_on_c, 0, 72, 75
1, 5561, Note_on_c, 1, 64, 0
1, 5568, Note_on_c, 0, 72, 0
1, 5568, Note_on_c, 0, 73, 75
1, 5613, Note_on_c, 0, 73, 0
1, 5616, Note_on_c, 0, 75, 75
1, 5661, Note_on_c, 0, 75, 0
1, 5664, Note_on_c, 0, 76, 75
1, 5709, Note_on_c, 0, 76, 0
1, 5712, Note_on_c, 0, 80, 75
1, 5757, Note_on_c, 0, 80, 0
1, 5760, Note_on_c, 0, 78, 75
1, 5760, Note_on_c, 1, 63, 75
1, 5827, Note_on_c, 0, 78, 0
1, 5832, Note_on_c, 0, 80, 75
1, 5849, Note_on_c, 1, 63, 0
1, 5855, Note_on_c, 0, 80, 0
1, 5856, Note_on_c, 0, 71, 75
1, 5856, Note_on_c, 1, 64, 75
1, 5945, Note_on_c, 0, 71, 0
1, 5945, Note_on_c, 1, 64, 0
1, 5952, Note_on_c, 0, 70, 75
1, 5952, Note_on_c, 1, 66, 75
1, 6041, Note_on_c, 0, 70, 0
1, 6041, Note_on_c, 1, 66, 0
1, 6048, Note_on_c, 0, 77, 80
1, 6060, Note_on_c, 0, 77, 0
1, 6060, Note_on_c, 0, 78, 80
1, 6072, Note_on_c, 0, 78, 0
1, 6072, Note_on_c, 0, 80, 80
1, 6084, Note_on_c, 0, 80, 0
1, 6084, Note_on_c, 0, 78, 80
1, 6144, Note_on_c, 1, 59, 75
1, 6144, Note_on_c, 1, 51, 75
1, 6225, Note_on_c, 0, 78, 0
1, 6233, Note_on_c, 1, 59, 0
1, 6233, Note_on_c, 1, 51, 0
1, 6240, Note_on_c, 0, 76, 80
1, 6240, Note_on_c, 1, 59, 75
1, 6240, Note_on_c, 1, 51, 75
1, 6263, Note_on_c, 0, 76, 0
1, 6264, Note_on_c, 0, 75, 80
1, 6287, Note_on_c, 0, 75, 0
1, 6288, Note_on_c, 0, 73, 80
1, 6311, Note_on_c, 0, 73, 0
1, 6312, Note_on_c, 0, 71, 80
1, 6329, Note_on_c, 1, 59, 0
1, 6329, Note_on_c, 1, 51, 0
1, 6335, Note_on_c, 0, 71, 0
1, 6336, Note_on_c, 0, 80, 80
1, 6432, Note_on_c, 1, 59, 75
1, 6432, Note_on_c, 1, 52, 75
1, 6499, Note_on_c, 0, 80, 0
1, 6504, Note_on_c, 0, 76, 80
1, 6516, Note_on_c, 0, 76, 0
1, 6516, Note_on_c, 0, 85, 80
1, 6521, Note_on_c, 1, 59, 0
1, 6521, Note_on_c, 1, 52, 0
1, 6528, Note_on_c, 0, 85, 0
1, 6528, Note_on_c, 0, 82, 80
1, 6528, Note_on_c, 1, 54, 75
1, 6528, Note_on_c, 1, 52, 75
1, 6595, Note_on_c, 0, 82, 0
1, 6600, Note_on_c, 0, 78, 80
1, 6612, Note_on_c, 0, 78, 0
1, 6612, Note_on_c, 0, 82, 80
1, 6617, Note_on_c, 1, 54, 0
1, 6617, Note_on_c, 1, 52, 0
1, 6624, Note_on_c, 0, 82, 0
1, 6624, Note_on_c, 0, 83, 80
1, 6624, Note_on_c, 1, 54, 75
1, 6624, Note_on_c, 1, 51, 75
1, 6647, Note_on_c, 0, 83, 0
1, 6648, Note_on_c, 0, 82, 80
1, 6671, Note_on_c, 0, 82, 0
1, 6672, Note_on_c, 0, 80, 80
1, 6695, Note_on_c, 0, 80, 0
1, 6696, Note_on_c, 0, 78, 80
1, 6713, Note_on_c, 1, 54, 0
1, 6713, Note_on_c, 1, 51, 0
1, 6719, Note_on_c, 0, 78, 0
1, 6720, Note_on_c, 0, 76, 80
1, 6743, Note_on_c, 0, 76, 0
1, 6744, Note_on_c, 0, 75, 80
1, 6767, Note_on_c, 0, 75, 0
1, 6768, Note_on_c, 0, 73, 80
1, 6791, Note_on_c, 0, 73, 0
1, 6792, Note_on_c, 0, 71, 80
1, 6815, Note_on_c, 0, 71, 0
1, 6816, Note_on_c, 0, 70, 80
1, 6839, Note_on_c, 0, 70, 0
1, 6840, Note_on_c, 0, 71, 80
1, 6863, Note_on_c, 0, 71, 0
1, 6864, Note_on_c, 0, 70, 80
1, 6887, Note_on_c, 0, 70, 0
1, 6888, Note_on_c, 0, 71, 80
1, 6911, Note_on_c, 0, 71, 0
1, 6912, Note_on_c, 0, 80, 80
1, 7008, Note_on_c, 1, 59, 75
1, 7008, Note_on_c, 1, 52, 75
1, 7075, Note_on_c, 0, 80, 0
1, 7080, Note_on_c, 0, 76, 80
1, 7092, Note_on_c, 0, 76, 0
1, 7092, Note_on_c, 0, 85, 80
1, 7097, Note_on_c, 1, 59, 0
1, 7097, Note_on_c, 1, 52, 0
1, 7104, Note_on_c, 0, 85, 0
1, 7104, Note_on_c, 0, 82, 80
1, 7104, Note_on_c, 1, 54, 75
1, 7104, Note_on_c, 1, 52, 75
1, 7171, Note_on_c, 0, 82, 0
1, 7176, Note_on_c, 0, 78, 80
1, 7188, Note_on_c, 0, 78, 0
1, 7188, Note_on_c, 0, 82, 80
1, 7193, Note_on_c, 1, 54, 0
1, 7193, Note_on_c, 1, 52, 0
1, 7200, Note_on_c, 0, 82, 0
1, 7200, Note_on_c, 0, 83, 80
1, 7200, Note_on_c, 1, 54, 75
1, 7200, Note_on_c, 1, 51, 75
1, 7223, Note_on_c, 0, 83, 0
1, 7224, Note_on_c, 0, 78, 80
1, 7247, Note_on_c, 0, 78, 0
1, 7248, Note_on_c, 0, 80, 80
1, 7271, Note_on_c, 0, 80, 0
1, 7272, Note_on_c, 0, 82, 80
1, 7289, Note_on_c, 1, 54, 0
1, 7289, Note_on_c, 1, 51, 0
1, 7295, Note_on_c, 0, 82, 0
1, 7296, Note_on_c, 0, 83, 80
1, 7319, Note_on_c, 0, 83, 0
1, 7320, Note_on_c, 0, 82, 80
1, 7343, Note_on_c, 0, 82, 0
1, 7344, Note_on_c, 0, 80, 80
1, 7367, Note_on_c, 0, 80, 0
1, 7368, Note_on_c, 0, 78, 80
1, 7391, Note_on_c, 0, 78, 0
1, 7392, Note_on_c, 0, 76, 80
1, 7415, Note_on_c, 0, 76, 0
1, 7416, Note_on_c, 0, 75, 80
1, 7439, Note_on_c, 0, 75, 0
1, 7440, Note_on_c, 0, 73, 80
1, 7463, Note_on_c, 0, 73, 0
1, 7464, Note_on_c, 0, 71, 80
1, 7487, Note_on_c, 0, 71, 0
1, 7488, Note_on_c, 0, 73, 75
1, 7488, Note_on_c, 1, 56, 75
1, 7488, Note_on_c, 1, 52, 75
1, 7511, Note_on_c, 0, 73, 0
1, 7512, Note_on_c, 0, 75, 76
1, 7535, Note_on_c, 0, 75, 0
1, 7536, Note_on_c, 0, 76, 77
1, 7559, Note_on_c, 0, 76, 0
1, 7560, Note_on_c, 0, 78, 78
1, 7577, Note_on_c, 1, 56, 0
1, 7577, Note_on_c, 1, 52, 0
1, 7583, Note_on_c, 0, 78, 0
1, 7584, Note_on_c, 0, 80, 80
1, 7607, Note_on_c, 0, 80, 0
1, 7608, Note_on_c, 0, 78, 78
1, 7631, Note_on_c, 0, 78, 0
1, 7632, Note_on_c, 0, 76, 77
1, 7655, Note_on_c, 0, 76, 0
1, 7656, Note_on_c, 0, 75, 76
1, 7679, Note_on_c, 0, 75, 0
1, 7680, Note_on_c, 0, 73, 75
1, 7703, Note_on_c, 0, 73, 0
1, 7704, Note_on_c, 0, 71, 75
1, 7727, Note_on_c, 0, 71, 0
1, 7728, Note_on_c, 0, 70, 75
1, 7751, Note_on_c, 0, 70, 0
1, 7752, Note_on_c, 0, 68, 75
1, 7775, Note_on_c, 0, 68, 0
1, 7776, Note_on_c, 0, 66, 75
1, 7865, Note_on_c, 0, 66, 0
1, 7872, Note_on_c, 0, 71, 75
1, 7872, Note_on_c, 1, 63, 75
1, 7872, Note_on_c, 1, 54, 75
1, 7961, Note_on_c, 0, 71, 0
1, 7961, Note_on_c, 1, 63, 0
1, 7961, Note_on_c, 1, 54, 0
1, 7968, Note_on_c, 0, 70, 75
1, 7968, Note_on_c, 1, 61, 75
1, 7968, Note_on_c, 1, 54, 75
1, 8057, Note_on_c, 0, 70, 0
1, 8057, Note_on_c, 1, 61, 0
1, 8057, Note_on_c, 1, 54, 0
1, 8064, Note_on_c, 0, 70, 75
1, 8064, Note_on_c, 1, 59, 75
1, 8153, Note_on_c, 1, 59, 0
1, 8160, Note_on_c, 0, 70, 0
1, 8160, Note_on_c, 0, 71, 75
1, 8160, Note_on_c, 1, 54, 75
1, 8241, Note_on_c, 0, 71, 0
1, 8249, Note_on_c, 1, 54, 0
1, 8256, Note_on_c, 1, 47, 75
1, 8345, Note_on_c, 1, 47, 0
1, 8352, Note_on_c, 0, 59, 64
1, 8352, Note_on_c, 1, 52, 64
1, 8364, Note_on_c, 0, 59, 0
1, 8364, Note_on_c, 0, 64, 64
1, 8376, Note_on_c, 0, 64, 0
1, 8376, Note_on_c, 0, 68, 64
1, 8388, Note_on_c, 0, 68, 0
1, 8388, Note_on_c, 0, 71, 64
1, 8441, Note_on_c, 1, 52, 0
1, 8448, Note_on_c, 1, 56, 64
1, 8529, Note_on_c, 0, 71, 0
1, 8537, Note_on_c, 1, 56, 0
1, 8544, Note_on_c, 0, 69, 64
1, 8544, Note_on_c, 1, 52, 64
1, 8567, Note_on_c, 0, 69, 0
1, 8568, Note_on_c, 0, 68, 64
1, 8591, Note_on_c, 0, 68, 0
1, 8592, Note_on_c, 0, 66, 64
1, 8615, Note_on_c, 0, 66, 0
1, 8616, Note_on_c, 0, 64, 64
1, 8633, Note_on_c, 1, 52, 0
1, 8639, Note_on_c, 0, 64, 0
1, 8640, Note_on_c, 0, 73, 64
1, 8640, Note_on_c, 1, 57, 64
1, 8729, Note_on_c, 0, 73, 0
1, 8736, Note_on_c, 0, 75, 64
1, 8817, Note_on_c, 1, 57, 0
1, 8825, Note_on_c, 0, 75, 0
1, 8832, Note_on_c, 0, 76, 64
1, 8832, Note_on_c, 1, 56, 64
1, 8921, Note_on_c, 0, 76, 0
1, 8921, Note_on_c, 1, 56, 0
1, 8928, Note_on_c, 0, 71, 64
1, 9017, Note_on_c, 0, 71, 0
1, 9024, Note_on_c, 0, 69, 64
1, 9024, Note_on_c, 1, 59, 64
1, 9024, Note_on_c, 1, 51, 64
1, 9091, Note_on_c, 0, 69, 0
1, 9096, Note_on_c, 0, 66, 64
1, 9113, Note_on_c, 1, 59, 0
1, 9113, Note_on_c, 1, 51, 0
1, 9119, Note_on_c, 0, 66, 0
1, 9120, Note_on_c, 0, 68, 64
1, 9120, Note_on_c, 1, 59, 64
1, 9120, Note_on_c, 1, 52, 64
1, 9187, Note_on_c, 0, 68, 0
1, 9192, Note_on_c, 0, 64, 64
1, 9209, Note_on_c, 1, 59, 0
1, 9209, Note_on_c, 1, 52, 0
1, 9215, Note_on_c, 0, 64, 0
1, 9216, Note_on_c, 0, 66, 64
1, 9216, Note_on_c, 1, 57, 64
1, 9216, Note_on_c, 1, 47, 64
1, 9283, Note_on_c, 0, 66, 0
1, 9288, Note_on_c, 0, 63, 64
1, 9305, Note_on_c, 1, 57, 0
1, 9305, Note_on_c, 1, 47, 0
1, 9311, Note_on_c, 0, 63, 0
1, 9312, Note_on_c, 0, 64, 64
1, 9312, Note_on_c, 1, 56, 64
1, 9312, Note_on_c, 1, 52, 64
1, 9401, Note_on_c, 0, 64, 0
1, 9401, Note_on_c, 1, 56, 0
1, 9401, Note_on_c, 1, 52, 0
1, 9408, Note_on_c, 0, 59, 64
1, 9431, Note_on_c, 0, 59, 0
1, 9432, Note_on_c, 0, 64, 64
1, 9455, Note_on_c, 0, 64, 0
1, 9456, Note_on_c, 0, 68, 64
1, 9479, Note_on_c, 0, 68, 0
1, 9480, Note_on_c, 0, 71, 64
1, 9503, Note_on_c, 0, 71, 0
1, 9504, Note_on_c, 0, 71, 64
1, 9593, Note_on_c, 0, 71, 0
1, 9600, Note_on_c, 0, 69, 64
1, 9600, Note_on_c, 1, 59, 64
1, 9600, Note_on_c, 1, 51, 64
1, 9667, Note_on_c, 0, 69, 0
1, 9672, Note_on_c, 0, 66, 64
1, 9689, Note_on_c, 1, 59, 0
1, 9689, Note_on_c, 1, 51, 0
1, 9695, Note_on_c, 0, 66, 0
1, 9696, Note_on_c, 0, 68, 64
1, 9696, Note_on_c, 1, 59, 64
1, 9696, Note_on_c, 1, 52, 64
1, 9763, Note_on_c, 0, 68, 0
1, 9768, Note_on_c, 0, 64, 64
1, 9785, Note_on_c, 1, 59, 0
1, 9785, Note_on_c, 1, 52, 0
1, 9791, Note_on_c, 0, 64, 0
1, 9792, Note_on_c, 0, 66, 64
1, 9792, Note_on_c, 1, 57, 64
1, 9792, Note_on_c, 1, 47, 64
1, 9859, Note_on_c, 0, 66, 0
1, 9864, Note_on_c, 0, 63, 64
1, 9881, Note_on_c, 1, 57, 0
1, 9881, Note_on_c, 1, 47, 0
1, 9887, Note_on_c, 0, 63, 0
1, 9888, Note_on_c, 0, 64, 64
1, 9888, Note_on_c, 1, 56, 64
1, 9888, Note_on_c, 1, 52, 64
1, 9977, Note_on_c, 0, 64, 0
1, 9977, Note_on_c, 1, 56, 0
1, 9977, Note_on_c, 1, 52, 0
1, 10080, Note_on_c, 0, 71, 64
1, 10080, Note_on_c, 1, 52, 64
1, 10169, Note_on_c, 1, 52, 0
1, 10176, Note_on_c, 1, 56, 64
1, 10257, Note_on_c, 0, 71, 0
1, 10265, Note_on_c, 1, 56, 0
1, 10272, Note_on_c, 0, 69, 64
1, 10272, Note_on_c, 1, 52, 64
1, 10295, Note_on_c, 0, 69, 0
1, 10296, Note_on_c, 0, 68, 64
1, 10319, Note_on_c, 0, 68, 0
1, 10320, Note_on_c, 0, 66, 64
1, 10343, Note_on_c, 0, 66, 0
1, 10344, Note_on_c, 0, 64, 64
1, 10361, Note_on_c, 1, 52, 0
1, 10367, Note_on_c, 0, 64, 0
1, 10368, Note_on_c, 0, 73, 75
1, 10368, Note_on_c, 1, 57, 75
1, 10413, Note_on_c, 0, 73, 0
1, 10440, Note_on_c, 0, 73, 75
1, 10463, Note_on_c, 0, 73, 0
1, 10464, Note_on_c, 0, 75, 76
1, 10509, Note_on_c, 0, 75, 0
1, 10536, Note_on_c, 0, 75, 77
1, 10545, Note_on_c, 1, 57, 0
1, 10559, Note_on_c, 0, 75, 0
1, 10560, Note_on_c, 0, 76, 77
1, 10560, Note_on_c, 1, 56, 77
1, 10605, Note_on_c, 0, 76, 0
1, 10632, Note_on_c, 0, 76, 78
1, 10649, Note_on_c, 1, 56, 0
1, 10655, Note_on_c, 0, 76, 0
1, 10656, Note_on_c, 0, 71, 78
1, 10745, Note_on_c, 0, 71, 0
1, 10752, Note_on_c, 0, 81, 80
1, 10752, Note_on_c, 0, 78, 80
1, 10752, Note_on_c, 1, 63, 80
1, 10841, Note_on_c, 0, 81, 0
1, 10841, Note_on_c, 0, 78, 0
1, 10841, Note_on_c, 1, 63, 0
1, 10848, Note_on_c, 0, 80, 80
1, 10848, Note_on_c, 0, 76, 80
1, 10848, Note_on_c, 1, 64, 80
1, 10937, Note_on_c, 0, 80, 0
1, 10937, Note_on_c, 0, 76, 0
1, 10937, Note_on_c, 1, 64, 0
1, 10944, Note_on_c, 0, 81, 80
1, 10944, Note_on_c, 0, 76, 64
1, 10944, Note_on_c, 1, 59, 80
1, 10967, Note_on_c, 0, 81, 0
1, 10968, Note_on_c, 0, 80, 80
1, 10991, Note_on_c, 0, 80, 0
1, 10992, Note_on_c, 0, 78, 80
1, 11015, Note_on_c, 0, 78, 0
1, 11016, Note_on_c, 0, 80, 80
1, 11033, Note_on_c, 0, 76, 0
1, 11033, Note_on_c, 1, 59, 0
1, 11039, Note_on_c, 0, 80, 0
1, 11040, Note_on_c, 0, 78, 80
1, 11040, Note_on_c, 0, 75, 80
1, 11040, Note_on_c, 1, 71, 80
1, 11129, Note_on_c, 0, 78, 0
1, 11129, Note_on_c, 0, 75, 0
1, 11129, Note_on_c, 1, 71, 0
1, 11232, Note_on_c, 0, 78, 75
1, 11328, Note_on_c, 1, 75, 75
1, 11409, Note_on_c, 0, 78, 0
1, 11417, Note_on_c, 1, 75, 0
1, 11424, Note_on_c, 0, 83, 75
1, 11424, Note_on_c, 1, 71, 75
1, 11447, Note_on_c, 0, 83, 0
1, 11448, Note_on_c, 0, 82, 75
1, 11471, Note_on_c, 0, 82, 0
1, 11472, Note_on_c, 0, 80, 75
1, 11495, Note_on_c, 0, 80, 0
1, 11496, Note_on_c, 0, 78, 75
1, 11513, Note_on_c, 1, 71, 0
1, 11519, Note_on_c, 0, 78, 0
1, 11520, Note_on_c, 0, 78, 75
1, 11520, Note_on_c, 1, 73, 75
1, 11568, Note_on_c, 0, 78, 0
1, 11568, Note_on_c, 0, 76, 75
1, 11609, Note_on_c, 1, 73, 0
1, 11613, Note_on_c, 0, 76, 0
1, 11616, Note_on_c, 1, 70, 75
1, 11664, Note_on_c, 0, 73, 75
1, 11705, Note_on_c, 1, 70, 0
1, 11709, Note_on_c, 0, 73, 0
1, 11712, Note_on_c, 1, 71, 75
1, 11760, Note_on_c, 0, 75, 75
1, 11801, Note_on_c, 1, 71, 0
1, 11805, Note_on_c, 0, 75, 0
1, 11808, Note_on_c, 0, 73, 75
1, 11904, Note_on_c, 1, 68, 75
1, 11904, Note_on_c, 1, 64, 75
1, 11927, Note_on_c, 0, 73, 0
1, 11928, Note_on_c, 0, 75, 75
1, 11951, Note_on_c, 0, 75, 0
1, 11952, Note_on_c, 0, 76, 75
1, 11975, Note_on_c, 0, 76, 0
1, 11976, Note_on_c, 0, 75, 75
1, 11993, Note_on_c, 1, 68, 0
1, 11993, Note_on_c, 1, 64, 0
1, 11999, Note_on_c, 0, 75, 0
1, 12000, Note_on_c, 0, 78, 75
1, 12000, Note_on_c, 1, 68, 75
1, 12000, Note_on_c, 1, 64, 75
1, 12023, Note_on_c, 0, 78, 0
1, 12024, Note_on_c, 0, 76, 75
1, 12047, Note_on_c, 0, 76, 0
1, 12048, Note_on_c, 0, 75, 75
1, 12071, Note_on_c, 0, 75, 0
1, 12072, Note_on_c, 0, 73, 75
1, 12089, Note_on_c, 1, 68, 0
1, 12089, Note_on_c, 1, 64, 0
1, 12095, Note_on_c, 0, 73, 0
1, 12096, Note_on_c, 0, 71, 75
1, 12096, Note_on_c, 1, 66, 75
1, 12185, Note_on_c, 1, 66, 0
1, 12192, Note_on_c, 1, 61, 75
1, 12281, Note_on_c, 1, 61, 0
1, 12288, Note_on_c, 0, 71, 0
1, 12288, Note_on_c, 0, 70, 75
1, 12288, Note_on_c, 1, 54, 75
1, 12377, Note_on_c, 0, 70, 0
1, 12377, Note_on_c, 1, 54, 0
1, 12384, Note_on_c, 0, 80, 75
1, 12402, Note_on_c, 0, 80, 0
1, 12402, Note_on_c, 0, 78, 75
1, 12480, Note_on_c, 1, 59, 75
1, 12480, Note_on_c, 1, 51, 75
1, 12561, Note_on_c, 0, 78, 0
1, 12569, Note_on_c, 1, 59, 0
1, 12569, Note_on_c, 1, 51, 0
1, 12576, Note_on_c, 0, 76, 75
1, 12576, Note_on_c, 1, 59, 75
1, 12576, Note_on_c, 1, 51, 75
1, 12599, Note_on_c, 0, 76, 0
1, 12600, Note_on_c, 0, 75, 75
1, 12623, Note_on_c, 0, 75, 0
1, 12624, Note_on_c, 0, 73, 75
1, 12647, Note_on_c, 0, 73, 0
1, 12648, Note_on_c, 0, 71, 75
1, 12665, Note_on_c, 1, 59, 0
1, 12665, Note_on_c, 1, 51, 0
1, 12671, Note_on_c, 0, 71, 0
1, 12672, Note_on_c, 0, 80, 75
1, 12672, Note_on_c, 1, 59, 75
1, 12672, Note_on_c, 1, 52, 75
1, 12717, Note_on_c, 0, 80, 0
1, 12720, Note_on_c, 0, 76, 75
1, 12761, Note_on_c, 1, 59, 0
1, 12761, Note_on_c, 1, 52, 0
1, 12765, Note_on_c, 0, 76, 0
1, 12768, Note_on_c, 1, 64, 75
1, 12816, Note_on_c, 0, 85, 75
1, 12836, Note_on_c, 0, 85, 0
1, 12857, Note_on_c, 1, 64, 0
1, 12864, Note_on_c, 1, 64, 75
1, 12912, Note_on_c, 0, 82, 75
1, 12932, Note_on_c, 0, 82, 0
1, 12953, Note_on_c, 1, 64, 0
1, 12960, Note_on_c, 1, 63, 75
1, 13008, Note_on_c, 0, 82, 75
1, 13049, Note_on_c, 1, 63, 0
1, 13056, Note_on_c, 0, 82, 0
1, 13056, Note_on_c, 0, 83, 75
1, 13101, Note_on_c, 0, 83, 0
1, 13104, Note_on_c, 0, 78, 75
1, 13149, Note_on_c, 0, 78, 0
1, 13152, Note_on_c, 0, 75, 75
1, 13197, Note_on_c, 0, 75, 0
1, 13200, Note_on_c, 0, 71, 75
1, 13245, Note_on_c, 0, 71, 0
1, 13248, Note_on_c, 0, 80, 75
1, 13248, Note_on_c, 1, 52, 75
1, 13293, Note_on_c, 0, 80, 0
1, 13296, Note_on_c, 0, 76, 75
1, 13337, Note_on_c, 1, 52, 0
1, 13341, Note_on_c, 0, 76, 0
1, 13344, Note_on_c, 1, 64, 75
1, 13392, Note_on_c, 0, 85, 75
1, 13412, Note_on_c, 0, 85, 0
1, 13433, Note_on_c, 1, 64, 0
1, 13440, Note_on_c, 1, 64, 75
1, 13488, Note_on_c, 0, 82, 75
1, 13508, Note_on_c, 0, 82, 0
1, 13529, Note_on_c, 1, 64, 0
1, 13536, Note_on_c, 1, 63, 75
1, 13584, Note_on_c, 0, 82, 75
1, 13625, Note_on_c, 1, 63, 0
1, 13632, Note_on_c, 0, 82, 0
1, 13632, Note_on_c, 0, 83, 75
1, 13677, Note_on_c, 0, 83, 0
1, 13680, Note_on_c, 0, 78, 75
1, 13725, Note_on_c, 0, 78, 0
1, 13728, Note_on_c, 0, 75, 75
1, 13773, Note_on_c, 0, 75, 0
1, 13776, Note_on_c, 0, 71, 75
1, 13821, Note_on_c, 0, 71, 0
1, 13824, Note_on_c, 1, 64, 75
1, 13872, Note_on_c, 0, 72, 75
1, 13913, Note_on_c, 1, 64, 0
1, 13920, Note_on_c, 0, 72, 0
1, 13920, Note_on_c, 0, 73, 75
1, 13965, Note_on_c, 0, 73, 0
1, 13968, Note_on_c, 0, 75, 75
1, 14013, Note_on_c, 0, 75, 0
1, 14016, Note_on_c, 0, 76, 75
1, 14061, Note_on_c, 0, 76, 0
1, 14064, Note_on_c, 0, 80, 75
1, 14109, Note_on_c, 0, 80, 0
1, 14112, Note_on_c, 0, 78, 75
1, 14112, Note_on_c, 1, 63, 75
1, 14179, Note_on_c, 0, 78, 0
1, 14184, Note_on_c, 0, 80, 75
1, 14201, Note_on_c, 1, 63, 0
1, 14207, Note_on_c, 0, 80, 0
1, 14208, Note_on_c, 0, 71, 75
1, 14208, Note_on_c, 1, 64, 75
1, 14297, Note_on_c, 0, 71, 0
1, 14297, Note_on_c, 1, 64, 0
1, 14304, Note_on_c, 0, 70, 75
1, 14304, Note_on_c, 1, 66, 75
1, 14393, Note_on_c, 0, 70, 0
1, 14393, Note_on_c, 1, 66, 0
1, 14400, Note_on_c, 0, 77, 80
1, 14412, Note_on_c, 0, 77, 0
1, 14412, Note_on_c, 0, 78, 80
1, 14424, Note_on_c, 0, 78, 0
1, 14424, Note_on_c, 0, 80, 80
1, 14436, Note_on_c, 0, 80, 0
1, 14436, Note_on_c, 0, 78, 80
1, 14496, Note_on_c, 1, 59, 75
1, 14496, Note_on_c, 1, 51, 75
1, 14577, Note_on_c, 0, 78, 0
1, 14585, Note_on_c, 1, 59, 0
1, 14585, Note_on_c, 1, 51, 0
1, 14592, Note_on_c, 0, 76, 80
1, 14592, Note_on_c, 1, 59, 75
1, 14592, Note_on_c, 1, 51, 75
1, 14615, Note_on_c, 0, 76, 0
1, 14616, Note_on_c, 0, 75, 80
1, 14639, Note_on_c, 0, 75, 0
1, 14640, Note_on_c, 0, 73, 80
1, 14663, Note_on_c, 0, 73, 0
1, 14664, Note_on_c, 0, 71, 80
1, 14681, Note_on_c, 1, 59, 0
1, 14681, Note_on_c, 1, 51, 0
1, 14687, Note_on_c, 0, 71, 0
1, 14688, Note_on_c, 0, 80, 80
1, 14784, Note_on_c, 1, 59, 75
1, 14784, Note_on_c, 1, 52, 75
1, 14851, Note_on_c, 0, 80, 0
1, 14856, Note_on_c, 0, 76, 80
1, 14868, Note_on_c, 0, 76, 0
1, 14868, Note_on_c, 0, 85, 80
1, 14873, Note_on_c, 1, 59, 0
1, 14873, Note_on_c, 1, 52, 0
1, 14880, Note_on_c, 0, 85, 0
1, 14880, Note_on_c, 0, 82, 80
1, 14880, Note_on_c, 1, 54, 75
1, 14880, Note_on_c, 1, 52, 75
1, 14947, Note_on_c, 0, 82, 0
1, 14952, Note_on_c, 0, 78, 80
1, 14964, Note_on_c, 0, 78, 0
1, 14964, Note_on_c, 0, 82, 80
1, 14969, Note_on_c, 1, 54, 0
1, 14969, Note_on_c, 1, 52, 0
1, 14976, Note_on_c, 0, 82, 0
1, 14976, Note_on_c, 0, 83, 80
1, 14976, Note_on_c, 1, 54, 75
1, 14976, Note_on_c, 1, 51, 75
1, 14999, Note_on_c, 0, 83, 0
1, 15000, Note_on_c, 0, 82, 80
1, 15023, Note_on_c, 0, 82, 0
1, 15024, Note_on_c, 0, 80, 80
1, 15047, Note_on_c, 0, 80, 0
1, 15048, Note_on_c, 0, 78, 80
1, 15065, Note_on_c, 1, 54, 0
1, 15065, Note_on_c, 1, 51, 0
1, 15071, Note_on_c, 0, 78, 0
1, 15072, Note_on_c, 0, 76, 80
1, 15095, Note_on_c, 0, 76, 0
1, 15096, Note_on_c, 0, 75, 80
1, 15119, Note_on_c, 0, 75, 0
1, 15120, Note_on_c, 0, 73, 80
1, 15143, Note_on_c, 0, 73, 0
1, 15144, Note_on_c, 0, 71, 80
1, 15167, Note_on_c, 0, 71, 0
1, 15168, Note_on_c, 0, 70, 80
1, 15191, Note_on_c, 0, 70, 0
1, 15192, Note_on_c, 0, 71, 80
1, 15215, Note_on_c, 0, 71, 0
1, 15216, Note_on_c, 0, 70, 80
1, 15239, Note_on_c, 0, 70, 0
1, 15240, Note_on_c, 0, 71, 80
1, 15263, Note_on_c, 0, 71, 0
1, 15264, Note_on_c, 0, 80, 80
1, 15360, Note_on_c, 1, 59, 75
1, 15360, Note_on_c, 1, 52, 75
1, 15427, Note_on_c, 0, 80, 0
1, 15432, Note_on_c, 0, 76, 80
1, 15444, Note_on_c, 0, 76, 0
1, 15444, Note_on_c, 0, 85, 80
1, 15449, Note_on_c, 1, 59, 0
1, 15449, Note_on_c, 1, 52, 0
1, 15456, Note_on_c, 0, 85, 0
1, 15456, Note_on_c, 0, 82, 80
1, 15456, Note_on_c, 1, 54, 75
1, 15456, Note_on_c, 1, 52, 75
1, 15523, Note_on_c, 0, 82, 0
1, 15528, Note_on_c, 0, 78, 80
1, 15540, Note_on_c, 0, 78, 0
1, 15540, Note_on_c, 0, 82, 80
1, 15545, Note_on_c, 1, 54, 0
1, 15545, Note_on_c, 1, 52, 0
1, 15552, Note_on_c, 0, 82, 0
1, 15552, Note_on_c, 0, 83, 80
1, 15552, Note_on_c, 1, 54, 75
1, 15552, Note_on_c, 1, 51, 75
1, 15575, Note_on_c, 0, 83, 0
1, 15576, Note_on_c, 0, 78, 80
1, 15599, Note_on_c, 0, 78, 0
1, 15600, Note_on_c, 0, 80, 80
1, 15623, Note_on_c, 0, 80, 0
1, 15624, Note_on_c, 0, 82, 80
1, 15641, Note_on_c, 1, 54, 0
1, 15641, Note_on_c, 1, 51, 0
1, 15647, Note_on_c, 0, 82, 0
1, 15648, Note_on_c, 0, 83, 80
1, 15671, Note_on_c, 0, 83, 0
1, 15672, Note_on_c, 0, 82, 80
1, 15695, Note_on_c, 0, 82, 0
1, 15696, Note_on_c, 0, 80, 80
1, 15719, Note_on_c, 0, 80, 0
1, 15720, Note_on_c, 0, 78, 80
1, 15743, Note_on_c, 0, 78, 0
1, 15744, Note_on_c, 0, 76, 80
1, 15767, Note_on_c, 0, 76, 0
1, 15768, Note_on_c, 0, 75, 80
1, 15791, Note_on_c, 0, 75, 0
1, 15792, Note_on_c, 0, 73, 80
1, 15815, Note_on_c, 0, 73, 0
1, 15816, Note_on_c, 0, 71, 80
1, 15839, Note_on_c, 0, 71, 0
1, 15840, Note_on_c, 0, 73, 75
1, 15840, Note_on_c, 1, 56, 75
1, 15840, Note_on_c, 1, 52, 75
1, 15863, Note_on_c, 0, 73, 0
1, 15864, Note_on_c, 0, 75, 76
1, 15887, Note_on_c, 0, 75, 0
1, 15888, Note_on_c, 0, 76, 77
1, 15911, Note_on_c, 0, 76, 0
1, 15912, Note_on_c, 0, 78, 78
1, 15929, Note_on_c, 1, 56, 0
1, 15929, Note_on_c, 1, 52, 0
1, 15935, Note_on_c, 0, 78, 0
1, 15936, Note_on_c, 0, 80, 80
1, 15959, Note_on_c, 0, 80, 0
1, 15960, Note_on_c, 0, 78, 78
1, 15983, Note_on_c, 0, 78, 0
1, 15984, Note_on_c, 0, 76, 77
1, 16007, Note_on_c, 0, 76, 0
1, 16008, Note_on_c, 0, 75, 76
1, 16031, Note_on_c, 0, 75, 0
1, 16032, Note_on_c, 0, 73, 75
1, 16055, Note_on_c, 0, 73, 0
1, 16056, Note_on_c, 0, 71, 75
1, 16079, Note_on_c, 0, 71, 0
1, 16080, Note_on_c, 0, 70, 75
1, 16103, Note_on_c, 0, 70, 0
1, 16104, Note_on_c, 0, 68, 75
1, 16127, Note_on_c, 0, 68, 0
1, 16128, Note_on_c, 0, 66, 75
1, 16217, Note_on_c, 0, 66, 0
1, 16224, Note_on_c, 0, 71, 75
1, 16224, Note_on_c, 1, 63, 75
1, 16224, Note_on_c, 1, 54, 75
1, 16313, Note_on_c, 0, 71, 0
1, 16313, Note_on_c, 1, 63, 0
1, 16313, Note_on_c, 1, 54, 0
1, 16320, Note_on_c, 0, 70, 75
1, 16320, Note_on_c, 1, 61, 75
1, 16320, Note_on_c, 1, 54, 75
1, 16409, Note_on_c, 0, 70, 0
1, 16409, Note_on_c, 1, 61, 0
1, 16409, Note_on_c, 1, 54, 0
1, 16416, Note_on_c, 0, 70, 75
1, 16416, Note_on_c, 1, 59, 75
1, 16505, Note_on_c, 1, 59, 0
1, 16512, Note_on_c, 0, 70, 0
1, 16512, Note_on_c, 0, 71, 75
1, 16512, Note_on_c, 1, 54, 75
1, 16593, Note_on_c, 0, 71, 0
1, 16601, Note_on_c, 1, 54, 0
1, 16608, Note_on_c, 1, 47, 75
1, 16697, Note_on_c, 1, 47, 0
1, 16704, Note_on_c, 0, 59, 75
1, 16704, Note_on_c, 1, 47, 75
1, 16716, Note_on_c, 0, 59, 0
1, 16716, Note_on_c, 0, 63, 75
1, 16728, Note_on_c, 0, 63, 0
1, 16728, Note_on_c, 0, 66, 75
1, 16793, Note_on_c, 1, 47, 0
1, 16800, Note_on_c, 1, 35, 75
1, 16881, Note_on_c, 0, 66, 0
1, 16889, Note_on_c, 1, 35, 0
1, 16896, Note_on_c, 0, 64, 75
1, 16919, Note_on_c, 0, 64, 0
1, 16920, Note_on_c, 0, 63, 75
1, 16943, Note_on_c, 0, 63, 0
1, 16944, Note_on_c, 0, 61, 75
1, 16967, Note_on_c, 0, 61, 0
1, 16968, Note_on_c, 0, 59, 75
1, 16991, Note_on_c, 0, 59, 0
1, 16992, Note_on_c, 0, 69, 75
1, 16992, Note_on_c, 0, 63, 75
1, 16992, Note_on_c, 1, 59, 75
1, 17081, Note_on_c, 0, 69, 0
1, 17081, Note_on_c, 0, 63, 0
1, 17081, Note_on_c, 1, 59, 0
1, 17088, Note_on_c, 0, 68, 75
1, 17088, Note_on_c, 0, 64, 75
1, 17088, Note_on_c, 1, 61, 75
1, 17177, Note_on_c, 1, 61, 0
1, 17182, Note_on_c, 0, 68, 0
1, 17182, Note_on_c, 0, 64, 0
1, 17280, Note_on_c, 1, 45, 75
1, 17280, Note_on_c, 1, 33, 75
1, 17328, Note_on_c, 0, 73, 75
1, 17369, Note_on_c, 1, 45, 0
1, 17369, Note_on_c, 1, 33, 0
1, 17373, Note_on_c, 0, 73, 0
1, 17376, Note_on_c, 0, 71, 75
1, 17421, Note_on_c, 0, 71, 0
1, 17424, Note_on_c, 0, 69, 75
1, 17469, Note_on_c, 0, 69, 0
1, 17472, Note_on_c, 0, 68, 75
1, 17517, Note_on_c, 0, 68, 0
1, 17520, Note_on_c, 0, 66, 75
1, 17565, Note_on_c, 0, 66, 0
1, 17568, Note_on_c, 0, 64, 75
1, 17616, Note_on_c, 1, 61, 75
1, 17657, Note_on_c, 0, 64, 0
1, 17661, Note_on_c, 1, 61, 0
1, 17664, Note_on_c, 0, 63, 75
1, 17664, Note_on_c, 1, 59, 75
1, 17709, Note_on_c, 1, 59, 0
1, 17712, Note_on_c, 1, 57, 75
1, 17753, Note_on_c, 0, 63, 0
1, 17757, Note_on_c, 1, 57, 0
1, 17760, Note_on_c, 0, 64, 75
1, 17760, Note_on_c, 1, 56, 75
1, 17805, Note_on_c, 1, 56, 0
1, 17808, Note_on_c, 1, 52, 75
1, 17849, Note_on_c, 0, 64, 0
1, 17853, Note_on_c, 1, 52, 0
1, 17856, Note_on_c, 0, 66, 75
1, 17856, Note_on_c, 0, 66, 64
1, 17856, Note_on_c, 1, 51, 75
1, 17901, Note_on_c, 1, 51, 0
1, 17904, Note_on_c, 1, 49, 75
1, 17923, Note_on_c, 0, 66, 0
1, 17928, Note_on_c, 0, 68, 75
1, 17949, Note_on_c, 1, 49, 0
1, 17951, Note_on_c, 0, 68, 0
1, 17952, Note_on_c, 0, 69, 75
1, 17952, Note_on_c, 1, 47, 75
1, 17997, Note_on_c, 1, 47, 0
1, 18000, Note_on_c, 1, 51, 75
1, 18033, Note_on_c, 0, 66, 0
1, 18041, Note_on_c, 0, 69, 0
1, 18045, Note_on_c, 1, 51, 0
1, 18048, Note_on_c, 0, 68, 75
1, 18048, Note_on_c, 0, 64, 75
1, 18048, Note_on_c, 1, 52, 75
1, 18093, Note_on_c, 1, 52, 0
1, 18096, Note_on_c, 1, 46, 75
1, 18137, Note_on_c, 0, 68, 0
1, 18137, Note_on_c, 0, 64, 0
1, 18141, Note_on_c, 1, 46, 0
1, 18144, Note_on_c, 0, 68, 75
1, 18144, Note_on_c, 0, 64, 75
1, 18144, Note_on_c, 1, 47, 75
1, 18189, Note_on_c, 1, 47, 0
1, 18192, Note_on_c, 1, 35, 75
1, 18237, Note_on_c, 1, 35, 0
1, 18240, Note_on_c, 0, 68, 0
1, 18240, Note_on_c, 0, 64, 0
1, 18240, Note_on_c, 0, 66, 75
1, 18240, Note_on_c, 0, 63, 75
1, 18240, Note_on_c, 1, 47, 75
1, 18285, Note_on_c, 1, 47, 0
1, 18288, Note_on_c, 1, 49, 75
1, 18329, Note_on_c, 0, 66, 0
1, 18329, Note_on_c, 0, 63, 0
1, 18333, Note_on_c, 1, 49, 0
1, 18336, Note_on_c, 1, 47, 75
1, 18381, Note_on_c, 1, 47, 0
1, 18384, Note_on_c, 1, 45, 75
1, 18429, Note_on_c, 1, 45, 0
1, 18432, Note_on_c, 0, 71, 75
1, 18432, Note_on_c, 1, 44, 75
1, 18477, Note_on_c, 1, 44, 0
1, 18480, Note_on_c, 0, 62, 64
1, 18480, Note_on_c, 1, 42, 75
1, 18525, Note_on_c, 1, 42, 0
1, 18528, Note_on_c, 0, 62, 0
1, 18528, Note_on_c, 0, 61, 64
1, 18528, Note_on_c, 1, 41, 75
1, 18565, Note_on_c, 0, 71, 0
1, 18573, Note_on_c, 1, 41, 0
1, 18576, Note_on_c, 0, 68, 75
1, 18576, Note_on_c, 1, 53, 75
1, 18617, Note_on_c, 0, 61, 0
1, 18621, Note_on_c, 0, 68, 0
1, 18621, Note_on_c, 1, 53, 0
1, 18624, Note_on_c, 0, 69, 75
1, 18624, Note_on_c, 1, 51, 75
1, 18669, Note_on_c, 0, 69, 0
1, 18669, Note_on_c, 1, 51, 0
1, 18672, Note_on_c, 0, 71, 75
1, 18672, Note_on_c, 1, 49, 75
1, 18717, Note_on_c, 0, 71, 0
1, 18717, Note_on_c, 1, 49, 0
1, 18720, Note_on_c, 0, 69, 75
1, 18720, Note_on_c, 1, 54, 75
1, 18765, Note_on_c, 1, 54, 0
1, 18768, Note_on_c, 0, 60, 64
1, 18768, Note_on_c, 1, 52, 75
1, 18813, Note_on_c, 1, 52, 0
1, 18816, Note_on_c, 0, 60, 0
1, 18816, Note_on_c, 0, 59, 64
1, 18816, Note_on_c, 1, 51, 75
1, 18853, Note_on_c, 0, 69, 0
1, 18861, Note_on_c, 1, 51, 0
1, 18864, Note_on_c, 0, 66, 75
1, 18864, Note_on_c, 1, 51, 75
1, 18905, Note_on_c, 0, 59, 0
1, 18909, Note_on_c, 0, 66, 0
1, 18909, Note_on_c, 1, 51, 0
1, 18912, Note_on_c, 0, 68, 75
1, 18912, Note_on_c, 1, 49, 75
1, 18957, Note_on_c, 0, 68, 0
1, 18957, Note_on_c, 1, 49, 0
1, 18960, Note_on_c, 0, 69, 75
1, 18960, Note_on_c, 1, 47, 75
1, 19005, Note_on_c, 0, 69, 0
1, 19005, Note_on_c, 1, 47, 0
1, 19008, Note_on_c, 0, 68, 75
1, 19008, Note_on_c, 1, 52, 75
1, 19053, Note_on_c, 0, 68, 0
1, 19053, Note_on_c, 1, 52, 0
1, 19056, Note_on_c, 0, 71, 75
1, 19056, Note_on_c, 1, 40, 75
1, 19101, Note_on_c, 0, 71, 0
1, 19101, Note_on_c, 1, 40, 0
1, 19104, Note_on_c, 0, 69, 75
1, 19104, Note_on_c, 1, 49, 75
1, 19149, Note_on_c, 0, 69, 0
1, 19149, Note_on_c, 1, 49, 0
1, 19152, Note_on_c, 0, 68, 75
1, 19152, Note_on_c, 1, 47, 75
1, 19197, Note_on_c, 0, 68, 0
1, 19197, Note_on_c, 1, 47, 0
1, 19200, Note_on_c, 0, 66, 75
1, 19200, Note_on_c, 1, 45, 75
1, 19245, Note_on_c, 0, 66, 0
1, 19245, Note_on_c, 1, 45, 0
1, 19248, Note_on_c, 0, 64, 75
1, 19248, Note_on_c, 1, 46, 75
1, 19293, Note_on_c, 0, 64, 0
1, 19293, Note_on_c, 1, 46, 0
1, 19296, Note_on_c, 0, 64, 75
1, 19296, Note_on_c, 1, 47, 75
1, 19341, Note_on_c, 1, 47, 0
1, 19344, Note_on_c, 1, 54, 75
1, 19389, Note_on_c, 1, 54, 0
1, 19392, Note_on_c, 0, 64, 0
1, 19392, Note_on_c, 0, 63, 75
1, 19392, Note_on_c, 1, 59, 75
1, 19437, Note_on_c, 1, 59, 0
1, 19440, Note_on_c, 1, 57, 75
1, 19481, Note_on_c, 0, 63, 0
1, 19485, Note_on_c, 1, 57, 0
1, 19488, Note_on_c, 1, 56, 75
1, 19533, Note_on_c, 1, 56, 0
1, 19536, Note_on_c, 1, 54, 75
1, 19581, Note_on_c, 1, 54, 0
1, 19584, Note_on_c, 0, 68, 75
1, 19584, Note_on_c, 1, 52, 75
1, 19673, Note_on_c, 1, 52, 0
1, 19680, Note_on_c, 1, 40, 75
1, 19717, Note_on_c, 0, 68, 0
1, 19728, Note_on_c, 0, 69, 75
1, 19751, Note_on_c, 0, 69, 0
1, 19752, Note_on_c, 0, 71, 75
1, 19769, Note_on_c, 1, 40, 0
1, 19775, Note_on_c, 0, 71, 0
1, 19776, Note_on_c, 0, 69, 75
1, 19799, Note_on_c, 0, 69, 0
1, 19800, Note_on_c, 0, 68, 75
1, 19823, Note_on_c, 0, 68, 0
1, 19824, Note_on_c, 0, 66, 75
1, 19847, Note_on_c, 0, 66, 0
1, 19848, Note_on_c, 0, 64, 75
1, 19871, Note_on_c, 0, 64, 0
1, 19872, Note_on_c, 0, 73, 75
1, 19872, Note_on_c, 1, 57, 75
1, 19961, Note_on_c, 0, 73, 0
1, 19968, Note_on_c, 0, 75, 75
1, 20049, Note_on_c, 1, 57, 0
1, 20057, Note_on_c, 0, 75, 0
1, 20064, Note_on_c, 0, 76, 75
1, 20064, Note_on_c, 1, 56, 75
1, 20153, Note_on_c, 0, 76, 0
1, 20153, Note_on_c, 1, 56, 0
1, 20160, Note_on_c, 0, 71, 75
1, 20249, Note_on_c, 0, 71, 0
1, 20256, Note_on_c, 0, 69, 75
1, 20256, Note_on_c, 1, 59, 75
1, 20256, Note_on_c, 1, 51, 75
1, 20323, Note_on_c, 0, 69, 0
1, 20328, Note_on_c, 0, 66, 75
1, 20345, Note_on_c, 1, 59, 0
1, 20345, Note_on_c, 1, 51, 0
1, 20351, Note_on_c, 0, 66, 0
1, 20352, Note_on_c, 0, 68, 75
1, 20352, Note_on_c, 1, 59, 75
1, 20352, Note_on_c, 1, 52, 75
1, 20419, Note_on_c, 0, 68, 0
1, 20424, Note_on_c, 0, 64, 75
1, 20441, Note_on_c, 1, 59, 0
1, 20441, Note_on_c, 1, 52, 0
1, 20447, Note_on_c, 0, 64, 0
1, 20448, Note_on_c, 0, 66, 75
1, 20448, Note_on_c, 1, 57, 75
1, 20448, Note_on_c, 1, 47, 75
1, 20515, Note_on_c, 0, 66, 0
1, 20520, Note_on_c, 0, 63, 75
1, 20537, Note_on_c, 1, 57, 0
1, 20537, Note_on_c, 1, 47, 0
1, 20543, Note_on_c, 0, 63, 0
1, 20544, Note_on_c, 0, 64, 75
1, 20544, Note_on_c, 1, 56, 75
1, 20544, Note_on_c, 1, 52, 75
1, 20633, Note_on_c, 0, 64, 0
1, 20633, Note_on_c, 1, 56, 0
1, 20633, Note_on_c, 1, 52, 0
1, 20640, Note_on_c, 0, 59, 75
1, 20663, Note_on_c, 0, 59, 0
1, 20664, Note_on_c, 0, 64, 75
1, 20687, Note_on_c, 0, 64, 0
1, 20688, Note_on_c, 0, 68, 75
1, 20711, Note_on_c, 0, 68, 0
1, 20712, Note_on_c, 0, 71, 75
1, 20735, Note_on_c, 0, 71, 0
1, 20736, Note_on_c, 0, 71, 75
1, 20736, Note_on_c, 1, 56, 75
1, 20736, Note_on_c, 1, 47, 64
1, 20825, Note_on_c, 0, 71, 0
1, 20825, Note_on_c, 1, 56, 0
1, 20832, Note_on_c, 0, 69, 75
1, 20832, Note_on_c, 1, 54, 75
1, 20899, Note_on_c, 0, 69, 0
1, 20899, Note_on_c, 1, 54, 0
1, 20904, Note_on_c, 0, 66, 75
1, 20904, Note_on_c, 1, 51, 75
1, 20913, Note_on_c, 1, 47, 0
1, 20927, Note_on_c, 0, 66, 0
1, 20927, Note_on_c, 1, 51, 0
1, 20928, Note_on_c, 0, 68, 75
1, 20928, Note_on_c, 1, 52, 75
1, 20995, Note_on_c, 0, 68, 0
1, 20995, Note_on_c, 1, 52, 0
1, 21000, Note_on_c, 0, 64, 75
1, 21000, Note_on_c, 1, 56, 75
1, 21023, Note_on_c, 0, 64, 0
1, 21023, Note_on_c, 1, 56, 0
1, 21024, Note_on_c, 0, 68, 75
1, 21024, Note_on_c, 1, 59, 75
1, 21024, Note_on_c, 1, 47, 64
1, 21113, Note_on_c, 0, 68, 0
1, 21113, Note_on_c, 1, 59, 0
1, 21120, Note_on_c, 0, 66, 75
1, 21120, Note_on_c, 1, 57, 75
1, 21187, Note_on_c, 0, 66, 0
1, 21187, Note_on_c, 1, 57, 0
1, 21192, Note_on_c, 0, 63, 75
1, 21192, Note_on_c, 1, 54, 75
1, 21201, Note_on_c, 1, 47, 0
1, 21215, Note_on_c, 0, 63, 0
1, 21215, Note_on_c, 1, 54, 0
1, 21216, Note_on_c, 0, 64, 75
1, 21216, Note_on_c, 1, 56, 75
1, 21283, Note_on_c, 0, 64, 0
1, 21283, Note_on_c, 1, 56, 0
1, 21288, Note_on_c, 0, 68, 75
1, 21288, Note_on_c, 1, 52, 75
1, 21311, Note_on_c, 0, 68, 0
1, 21311, Note_on_c, 1, 52, 0
1, 21312, Note_on_c, 0, 71, 80
1, 21312, Note_on_c, 1, 56, 80
1, 21312, Note_on_c, 1, 47, 64
1, 21401, Note_on_c, 0, 71, 0
1, 21401, Note_on_c, 1, 56, 0
1, 21408, Note_on_c, 0, 69, 80
1, 21408, Note_on_c, 1, 54, 80
1, 21475, Note_on_c, 0, 69, 0
1, 21475, Note_on_c, 1, 54, 0
1, 21480, Note_on_c, 0, 66, 80
1, 21480, Note_on_c, 1, 51, 80
1, 21489, Note_on_c, 1, 47, 0
1, 21503, Note_on_c, 0, 66, 0
1, 21503, Note_on_c, 1, 51, 0
1, 21504, Note_on_c, 0, 68, 80
1, 21504, Note_on_c, 1, 52, 80
1, 21571, Note_on_c, 0, 68, 0
1, 21571, Note_on_c, 1, 52, 0
1, 21576, Note_on_c, 0, 64, 80
1, 21576, Note_on_c, 1, 56, 80
1, 21599, Note_on_c, 0, 64, 0
1, 21599, Note_on_c, 1, 56, 0
1, 21600, Note_on_c, 0, 68, 80
1, 21600, Note_on_c, 1, 59, 80
1, 21600, Note_on_c, 1, 47, 64
1, 21689, Note_on_c, 0, 68, 0
1, 21689, Note_on_c, 1, 59, 0
1, 21696, Note_on_c, 0, 66, 80
1, 21696, Note_on_c, 1, 57, 80
1, 21763, Note_on_c, 0, 66, 0
1, 21763, Note_on_c, 1, 57, 0
1, 21768, Note_on_c, 0, 63, 80
1, 21768, Note_on_c, 1, 54, 80
1, 21777, Note_on_c, 1, 47, 0
1, 21791, Note_on_c, 0, 63, 0
1, 21791, Note_on_c, 1, 54, 0
1, 21792, Note_on_c, 0, 64, 80
1, 21792, Note_on_c, 1, 56, 80
1, 21859, Note_on_c, 0, 64, 0
1, 21864, Note_on_c, 0, 68, 80
1, 21881, Note_on_c, 1, 56, 0
1, 21887, Note_on_c, 0, 68, 0
1, 21888, Note_on_c, 0, 71, 70
1, 21955, Note_on_c, 0, 71, 0
1, 21960, Note_on_c, 0, 70, 70
1, 21983, Note_on_c, 0, 70, 0
1, 21984, Note_on_c, 0, 70, 70
1, 21984, Note_on_c, 1, 64, 70
1, 21984, Note_on_c, 1, 61, 70
1, 22078, Note_on_c, 1, 64, 0
1, 22078, Note_on_c, 1, 61, 0
1, 22080, Note_on_c, 1, 64, 70
1, 22080, Note_on_c, 1, 61, 70
1, 22117, Note_on_c, 0, 70, 0
1, 22152, Note_on_c, 0, 78, 70
1, 22174, Note_on_c, 1, 64, 0
1, 22174, Note_on_c, 1, 61, 0
1, 22175, Note_on_c, 0, 78, 0
1, 22176, Note_on_c, 0, 78, 70
1, 22243, Note_on_c, 0, 78, 0
1, 22248, Note_on_c, 0, 69, 70
1, 22271, Note_on_c, 0, 69, 0
1, 22272, Note_on_c, 0, 69, 70
1, 22272, Note_on_c, 1, 66, 70
1, 22272, Note_on_c, 1, 63, 70
1, 22366, Note_on_c, 1, 66, 0
1, 22366, Note_on_c, 1, 63, 0
1, 22368, Note_on_c, 1, 66, 70
1, 22368, Note_on_c, 1, 63, 70
1, 22405, Note_on_c, 0, 69, 0
1, 22440, Note_on_c, 0, 69, 80
1, 22462, Note_on_c, 1, 66, 0
1, 22462, Note_on_c, 1, 63, 0
1, 22464, Note_on_c, 0, 69, 0
1, 22464, Note_on_c, 0, 68, 80
1, 22464, Note_on_c, 1, 52, 80
1, 22464, Note_on_c, 1, 40, 80
1, 22509, Note_on_c, 0, 68, 0
1, 22536, Note_on_c, 0, 68, 80
1, 22553, Note_on_c, 1, 52, 0
1, 22553, Note_on_c, 1, 40, 0
1, 22560, Note_on_c, 0, 68, 0
1, 22560, Note_on_c, 0, 69, 80
1, 22560, Note_on_c, 1, 54, 80
1, 22560, Note_on_c, 1, 42, 80
1, 22605, Note_on_c, 0, 69, 0
1, 22632, Note_on_c, 0, 69, 80
1, 22649, Note_on_c, 1, 54, 0
1, 22649, Note_on_c, 1, 42, 0
1, 22656, Note_on_c, 0, 69, 0
1, 22656, Note_on_c, 0, 71, 80
1, 22656, Note_on_c, 1, 56, 80
1, 22656, Note_on_c, 1, 44, 80
1, 22701, Note_on_c, 0, 71, 0
1, 22728, Note_on_c, 0, 71, 80
1, 22745, Note_on_c, 1, 56, 0
1, 22745, Note_on_c, 1, 44, 0
1, 22752, Note_on_c, 0, 71, 0
1, 22752, Note_on_c, 0, 73, 80
1, 22752, Note_on_c, 1, 57, 80
1, 22752, Note_on_c, 1, 45, 80
1, 22797, Note_on_c, 0, 73, 0
1, 22824, Note_on_c, 0, 73, 80
1, 22841, Note_on_c, 1, 57, 0
1, 22841, Note_on_c, 1, 45, 0
1, 22848, Note_on_c, 0, 73, 0
1, 22848, Note_on_c, 0, 75, 80
1, 22848, Note_on_c, 1, 54, 80
1, 22848, Note_on_c, 1, 42, 80
1, 22893, Note_on_c, 0, 75, 0
1, 22920, Note_on_c, 0, 75, 80
1, 22937, Note_on_c, 1, 54, 0
1, 22937, Note_on_c, 1, 42, 0
1, 22944, Note_on_c, 0, 75, 0
1, 22944, Note_on_c, 0, 76, 80
1, 22944, Note_on_c, 1, 56, 80
1, 22944, Note_on_c, 1, 44, 80
1, 22989, Note_on_c, 0, 76, 0
1, 23016, Note_on_c, 0, 76, 80
1, 23033, Note_on_c, 1, 56, 0
1, 23033, Note_on_c, 1, 44, 0
1, 23039, Note_on_c, 0, 76, 0
1, 23040, Note_on_c, 0, 75, 80
1, 23040, Note_on_c, 1, 57, 80
1, 23040, Note_on_c, 1, 45, 80
1, 23063, Note_on_c, 0, 75, 0
1, 23064, Note_on_c, 0, 73, 80
1, 23087, Note_on_c, 0, 73, 0
1, 23088, Note_on_c, 0, 71, 80
1, 23111, Note_on_c, 0, 71, 0
1, 23112, Note_on_c, 0, 69, 80
1, 23129, Note_on_c, 1, 57, 0
1, 23129, Note_on_c, 1, 45, 0
1, 23135, Note_on_c, 0, 69, 0
1, 23136, Note_on_c, 0, 68, 80
1, 23136, Note_on_c, 1, 59, 80
1, 23136, Note_on_c, 1, 47, 80
1, 23225, Note_on_c, 0, 68, 0
1, 23225, Note_on_c, 1, 59, 0
1, 23225, Note_on_c, 1, 47, 0
1, 23232, Note_on_c, 0, 66, 80
1, 23232, Note_on_c, 1, 47, 80
1, 23232, Note_on_c, 1, 35, 80
1, 23321, Note_on_c, 0, 66, 0
1, 23321, Note_on_c, 1, 47, 0
1, 23321, Note_on_c, 1, 35, 0
1, 23328, Note_on_c, 0, 64, 80
1, 23328, Note_on_c, 1, 52, 80
1, 23417, Note_on_c, 0, 64, 0
1, 23417, Note_on_c, 1, 52, 0
1, 23424, Note_on_c, 1, 40, 80
1, 23448, Note_on_c, 0, 59, 80
1, 23471, Note_on_c, 0, 59, 0
1, 23472, Note_on_c, 0, 61, 80
1, 23495, Note_on_c, 0, 61, 0
1, 23496, Note_on_c, 0, 63, 80
1, 23513, Note_on_c, 1, 40, 0
1, 23519, Note_on_c, 0, 63, 0
1, 23520, Note_on_c, 0, 64, 80
1, 23543, Note_on_c, 0, 64, 0
1, 23544, Note_on_c, 0, 66, 80
1, 23567, Note_on_c, 0, 66, 0
1, 23568, Note_on_c, 0, 68, 80
1, 23591, Note_on_c, 0, 68, 0
1, 23592, Note_on_c, 0, 69, 80
1, 23615, Note_on_c, 0, 69, 0
1, 23616, Note_on_c, 0, 71, 80
1, 23616, Note_on_c, 1, 52, 75
1, 23705, Note_on_c, 1, 52, 0
1, 23712, Note_on_c, 1, 56, 75
1, 23793, Note_on_c, 0, 71, 0
1, 23801, Note_on_c, 1, 56, 0
1, 23808, Note_on_c, 0, 69, 80
1, 23808, Note_on_c, 1, 52, 75
1, 23831, Note_on_c, 0, 69, 0
1, 23832, Note_on_c, 0, 68, 80
1, 23855, Note_on_c, 0, 68, 0
1, 23856, Note_on_c, 0, 66, 80
1, 23879, Note_on_c, 0, 66, 0
1, 23880, Note_on_c, 0, 64, 80
1, 23897, Note_on_c, 1, 52, 0
1, 23903, Note_on_c, 0, 64, 0
1, 23904, Note_on_c, 0, 73, 80
1, 23904, Note_on_c, 1, 45, 75
1, 23949, Note_on_c, 0, 73, 0
1, 23952, Note_on_c, 0, 69, 80
1, 23993, Note_on_c, 1, 45, 0
1, 23997, Note_on_c, 0, 69, 0
1, 24000, Note_on_c, 1, 57, 75
1, 24048, Note_on_c, 0, 78, 80
1, 24068, Note_on_c, 0, 78, 0
1, 24089, Note_on_c, 1, 57, 0
1, 24096, Note_on_c, 1, 69, 75
1, 24144, Note_on_c, 0, 75, 80
1, 24164, Note_on_c, 0, 75, 0
1, 24185, Note_on_c, 1, 69, 0
1, 24192, Note_on_c, 1, 68, 75
1, 24240, Note_on_c, 0, 75, 80
1, 24281, Note_on_c, 1, 68, 0
1, 24288, Note_on_c, 0, 75, 0
1, 24288, Note_on_c, 0, 76, 80
1, 24333, Note_on_c, 0, 76, 0
1, 24336, Note_on_c, 0, 71, 80
1, 24381, Note_on_c, 0, 71, 0
1, 24384, Note_on_c, 0, 68, 80
1, 24429, Note_on_c, 0, 68, 0
1, 24432, Note_on_c, 0, 64, 80
1, 24477, Note_on_c, 0, 64, 0
1, 24480, Note_on_c, 0, 73, 80
1, 24480, Note_on_c, 1, 45, 75
1, 24525, Note_on_c, 0, 73, 0
1, 24528, Note_on_c, 0, 69, 80
1, 24569, Note_on_c, 1, 45, 0
1, 24573, Note_on_c, 0, 69, 0
1, 24576, Note_on_c, 1, 57, 75
1, 24624, Note_on_c, 0, 78, 80
1, 24644, Note_on_c, 0, 78, 0
1, 24665, Note_on_c, 1, 57, 0
1, 24672, Note_on_c, 1, 69, 75
1, 24720, Note_on_c, 0, 75, 80
1, 24740, Note_on_c, 0, 75, 0
1, 24761, Note_on_c, 1, 69, 0
1, 24768, Note_on_c, 1, 68, 75
1, 24816, Note_on_c, 0, 75, 80
1, 24857, Note_on_c, 1, 68, 0
1, 24864, Note_on_c, 0, 75, 0
1, 24864, Note_on_c, 0, 76, 80
1, 24909, Note_on_c, 0, 76, 0
1, 24912, Note_on_c, 0, 71, 80
1, 24957, Note_on_c, 0, 71, 0
1, 24960, Note_on_c, 0, 68, 80
1, 25005, Note_on_c, 0, 68, 0
1, 25008, Note_on_c, 0, 64, 80
1, 25053, Note_on_c, 0, 64, 0
1, 25056, Note_on_c, 1, 45, 75
1, 25104, Note_on_c, 0, 65, 80
1, 25145, Note_on_c, 1, 45, 0
1, 25152, Note_on_c, 0, 65, 0
1, 25152, Note_on_c, 0, 66, 80
1, 25197, Note_on_c, 0, 66, 0
1, 25200, Note_on_c, 0, 68, 80
1, 25245, Note_on_c, 0, 68, 0
1, 25248, Note_on_c, 0, 69, 80
1, 25293, Note_on_c, 0, 69, 0
1, 25296, Note_on_c, 0, 73, 80
1, 25341, Note_on_c, 0, 73, 0
1, 25344, Note_on_c, 0, 71, 80
1, 25344, Note_on_c, 1, 56, 75
1, 25411, Note_on_c, 0, 71, 0
1, 25416, Note_on_c, 0, 73, 80
1, 25433, Note_on_c, 1, 56, 0
1, 25439, Note_on_c, 0, 73, 0
1, 25440, Note_on_c, 0, 64, 80
1, 25440, Note_on_c, 1, 57, 75
1, 25529, Note_on_c, 0, 64, 0
1, 25529, Note_on_c, 1, 57, 0
1, 25536, Note_on_c, 0, 63, 80
1, 25536, Note_on_c, 1, 59, 75
1, 25625, Note_on_c, 0, 63, 0
1, 25625, Note_on_c, 1, 59, 0
1, 25632, Note_on_c, 0, 70, 80
1, 25644, Note_on_c, 0, 70, 0
1, 25644, Note_on_c, 0, 71, 80
1, 25656, Note_on_c, 0, 71, 0
1, 25656, Note_on_c, 0, 73, 80
1, 25668, Note_on_c, 0, 73, 0
1, 25668, Note_on_c, 0, 71, 80
1, 25728, Note_on_c, 1, 64, 75
1, 25728, Note_on_c, 1, 56, 75
1, 25809, Note_on_c, 0, 71, 0
1, 25817, Note_on_c, 1, 64, 0
1, 25817, Note_on_c, 1, 56, 0
1, 25824, Note_on_c, 0, 69, 80
1, 25824, Note_on_c, 1, 64, 75
1, 25824, Note_on_c, 1, 56, 75
1, 25847, Note_on_c, 0, 69, 0
1, 25848, Note_on_c, 0, 68, 80
1, 25871, Note_on_c, 0, 68, 0
1, 25872, Note_on_c, 0, 66, 80
1, 25895, Note_on_c, 0, 66, 0
1, 25896, Note_on_c, 0, 64, 80
1, 25913, Note_on_c, 1, 64, 0
1, 25913, Note_on_c, 1, 56, 0
1, 25919, Note_on_c, 0, 64, 0
1, 25920, Note_on_c, 0, 73, 80
1, 26016, Note_on_c, 1, 61, 75
1, 26016, Note_on_c, 1, 57, 75
1, 26083, Note_on_c, 0, 73, 0
1, 26088, Note_on_c, 0, 81, 80
1, 26100, Note_on_c, 0, 81, 0
1, 26100, Note_on_c, 0, 78, 80
1, 26105, Note_on_c, 1, 61, 0
1, 26105, Note_on_c, 1, 57, 0
1, 26112, Note_on_c, 0, 78, 0
1, 26112, Note_on_c, 0, 75, 80
1, 26112, Note_on_c, 1, 59, 75
1, 26112, Note_on_c, 1, 57, 75
1, 26179, Note_on_c, 0, 75, 0
1, 26184, Note_on_c, 0, 83, 80
1, 26196, Note_on_c, 0, 83, 0
1, 26196, Note_on_c, 0, 80, 80
1, 26201, Note_on_c, 1, 59, 0
1, 26201, Note_on_c, 1, 57, 0
1, 26208, Note_on_c, 0, 80, 0
1, 26208, Note_on_c, 0, 76, 80
1, 26208, Note_on_c, 1, 59, 75
1, 26208, Note_on_c, 1, 56, 75
1, 26231, Note_on_c, 0, 76, 0
1, 26232, Note_on_c, 0, 78, 80
1, 26255, Note_on_c, 0, 78, 0
1, 26256, Note_on_c, 0, 80, 80
1, 26279, Note_on_c, 0, 80, 0
1, 26280, Note_on_c, 0, 78, 80
1, 26297, Note_on_c, 1, 59, 0
1, 26297, Note_on_c, 1, 56, 0
1, 26303, Note_on_c, 0, 78, 0
1, 26304, Note_on_c, 0, 76, 80
1, 26327, Note_on_c, 0, 76, 0
1, 26328, Note_on_c, 0, 75, 80
1, 26351, Note_on_c, 0, 75, 0
1, 26352, Note_on_c, 0, 73, 80
1, 26375, Note_on_c, 0, 73, 0
1, 26376, Note_on_c, 0, 71, 80
1, 26399, Note_on_c, 0, 71, 0
1, 26400, Note_on_c, 0, 69, 80
1, 26423, Note_on_c, 0, 69, 0
1, 26424, Note_on_c, 0, 68, 80
1, 26447, Note_on_c, 0, 68, 0
1, 26448, Note_on_c, 0, 66, 80
1, 26471, Note_on_c, 0, 66, 0
1, 26472, Note_on_c, 0, 64, 80
1, 26495, Note_on_c, 0, 64, 0
1, 26496, Note_on_c, 0, 73, 80
1, 26592, Note_on_c, 1, 61, 75
1, 26592, Note_on_c, 1, 57, 75
1, 26659, Note_on_c, 0, 73, 0
1, 26664, Note_on_c, 0, 81, 80
1, 26676, Note_on_c, 0, 81, 0
1, 26676, Note_on_c, 0, 78, 80
1, 26681, Note_on_c, 1, 61, 0
1, 26681, Note_on_c, 1, 57, 0
1, 26688, Note_on_c, 0, 78, 0
1, 26688, Note_on_c, 0, 75, 80
1, 26688, Note_on_c, 1, 59, 75
1, 26688, Note_on_c, 1, 57, 75
1, 26755, Note_on_c, 0, 75, 0
1, 26760, Note_on_c, 0, 83, 80
1, 26772, Note_on_c, 0, 83, 0
1, 26772, Note_on_c, 0, 80, 80
1, 26777, Note_on_c, 1, 59, 0
1, 26777, Note_on_c, 1, 57, 0
1, 26784, Note_on_c, 0, 80, 0
1, 26784, Note_on_c, 0, 76, 80
1, 26784, Note_on_c, 1, 59, 75
1, 26784, Note_on_c, 1, 56, 75
1, 26807, Note_on_c, 0, 76, 0
1, 26808, Note_on_c, 0, 78, 80
1, 26831, Note_on_c, 0, 78, 0
1, 26832, Note_on_c, 0, 80, 80
1, 26855, Note_on_c, 0, 80, 0
1, 26856, Note_on_c, 0, 78, 80
1, 26873, Note_on_c, 1, 59, 0
1, 26873, Note_on_c, 1, 56, 0
1, 26879, Note_on_c, 0, 78, 0
1, 26880, Note_on_c, 0, 76, 80
1, 26903, Note_on_c, 0, 76, 0
1, 26904, Note_on_c, 0, 75, 80
1, 26927, Note_on_c, 0, 75, 0
1, 26928, Note_on_c, 0, 73, 80
1, 26951, Note_on_c, 0, 73, 0
1, 26952, Note_on_c, 0, 71, 80
1, 26975, Note_on_c, 0, 71, 0
1, 26976, Note_on_c, 0, 69, 80
1, 26999, Note_on_c, 0, 69, 0
1, 27000, Note_on_c, 0, 68, 80
1, 27023, Note_on_c, 0, 68, 0
1, 27024, Note_on_c, 0, 66, 80
1, 27047, Note_on_c, 0, 66, 0
1, 27048, Note_on_c, 0, 64, 80
1, 27071, Note_on_c, 0, 64, 0
1, 27072, Note_on_c, 0, 66, 80
1, 27072, Note_on_c, 1, 61, 75
1, 27072, Note_on_c, 1, 57, 75
1, 27095, Note_on_c, 0, 66, 0
1, 27096, Note_on_c, 0, 68, 81
1, 27119, Note_on_c, 0, 68, 0
1, 27120, Note_on_c, 0, 69, 82
1, 27143, Note_on_c, 0, 69, 0
1, 27144, Note_on_c, 0, 71, 83
1, 27161, Note_on_c, 1, 61, 0
1, 27161, Note_on_c, 1, 57, 0
1, 27167, Note_on_c, 0, 71, 0
1, 27168, Note_on_c, 0, 73, 84
1, 27191, Note_on_c, 0, 73, 0
1, 27192, Note_on_c, 0, 71, 85
1, 27215, Note_on_c, 0, 71, 0
1, 27216, Note_on_c, 0, 69, 86
1, 27239, Note_on_c, 0, 69, 0
1, 27240, Note_on_c, 0, 68, 85
1, 27263, Note_on_c, 0, 68, 0
1, 27264, Note_on_c, 0, 66, 84
1, 27287, Note_on_c, 0, 66, 0
1, 27288, Note_on_c, 0, 64, 83
1, 27311, Note_on_c, 0, 64, 0
1, 27312, Note_on_c, 0, 63, 82
1, 27335, Note_on_c, 0, 63, 0
1, 27336, Note_on_c, 0, 61, 81
1, 27359, Note_on_c, 0, 61, 0
1, 27360, Note_on_c, 0, 59, 80
1, 27449, Note_on_c, 0, 59, 0
1, 27456, Note_on_c, 0, 64, 80
1, 27456, Note_on_c, 1, 56, 75
1, 27456, Note_on_c, 1, 47, 75
1, 27545, Note_on_c, 0, 64, 0
1, 27545, Note_on_c, 1, 56, 0
1, 27545, Note_on_c, 1, 47, 0
1, 27552, Note_on_c, 0, 63, 80
1, 27552, Note_on_c, 1, 54, 75
1, 27552, Note_on_c, 1, 47, 75
1, 27641, Note_on_c, 0, 63, 0
1, 27641, Note_on_c, 1, 54, 0
1, 27641, Note_on_c, 1, 47, 0
1, 27648, Note_on_c, 0, 64, 80
1, 27648, Note_on_c, 1, 52, 75
1, 27737, Note_on_c, 1, 52, 0
1, 27744, Note_on_c, 1, 47, 75
1, 27825, Note_on_c, 0, 64, 0
1, 27833, Note_on_c, 1, 47, 0
1, 27840, Note_on_c, 1, 40, 75
1, 27929, Note_on_c, 1, 40, 0
1, 27936, Note_on_c, 0, 59, 75
1, 27936, Note_on_c, 1, 47, 75
1, 27948, Note_on_c, 0, 59, 0
1, 27948, Note_on_c, 0, 63, 75
1, 27960, Note_on_c, 0, 63, 0
1, 27960, Note_on_c, 0, 66, 75
1, 28025, Note_on_c, 1, 47, 0
1, 28032, Note_on_c, 1, 35, 75
1, 28113, Note_on_c, 0, 66, 0
1, 28121, Note_on_c, 1, 35, 0
1, 28128, Note_on_c, 0, 64, 75
1, 28151, Note_on_c, 0, 64, 0
1, 28152, Note_on_c, 0, 63, 75
1, 28175, Note_on_c, 0, 63, 0
1, 28176, Note_on_c, 0, 61, 75
1, 28199, Note_on_c, 0, 61, 0
1, 28200, Note_on_c, 0, 59, 75
1, 28223, Note_on_c, 0, 59, 0
1, 28224, Note_on_c, 0, 69, 75
1, 28224, Note_on_c, 0, 63, 75
1, 28224, Note_on_c, 1, 59, 75
1, 28313, Note_on_c, 0, 69, 0
1, 28313, Note_on_c, 0, 63, 0
1, 28313, Note_on_c, 1, 59, 0
1, 28320, Note_on_c, 0, 68, 75
1, 28320, Note_on_c, 0, 64, 75
1, 28320, Note_on_c, 1, 61, 75
1, 28409, Note_on_c, 1, 61, 0
1, 28414, Note_on_c, 0, 68, 0
1, 28414, Note_on_c, 0, 64, 0
1, 28512, Note_on_c, 1, 45, 75
1, 28512, Note_on_c, 1, 33, 75
1, 28560, Note_on_c, 0, 73, 75
1, 28601, Note_on_c, 1, 45, 0
1, 28601, Note_on_c, 1, 33, 0
1, 28605, Note_on_c, 0, 73, 0
1, 28608, Note_on_c, 0, 71, 75
1, 28653, Note_on_c, 0, 71, 0
1, 28656, Note_on_c, 0, 69, 75
1, 28701, Note_on_c, 0, 69, 0
1, 28704, Note_on_c, 0, 68, 75
1, 28749, Note_on_c, 0, 68, 0
1, 28752, Note_on_c, 0, 66, 75
1, 28797, Note_on_c, 0, 66, 0
1, 28800, Note_on_c, 0, 64, 75
1, 28848, Note_on_c, 1, 61, 75
1, 28889, Note_on_c, 0, 64, 0
1, 28893, Note_on_c, 1, 61, 0
1, 28896, Note_on_c, 0, 63, 75
1, 28896, Note_on_c, 1, 59, 75
1, 28941, Note_on_c, 1, 59, 0
1, 28944, Note_on_c, 1, 57, 75
1, 28985, Note_on_c, 0, 63, 0
1, 28989, Note_on_c, 1, 57, 0
1, 28992, Note_on_c, 0, 64, 75
1, 28992, Note_on_c, 1, 56, 75
1, 29037, Note_on_c, 1, 56, 0
1, 29040, Note_on_c, 1, 52, 75
1, 29081, Note_on_c, 0, 64, 0
1, 29085, Note_on_c, 1, 52, 0
1, 29088, Note_on_c, 0, 66, 75
1, 29088, Note_on_c, 0, 66, 64
1, 29088, Note_on_c, 1, 51, 75
1, 29133, Note_on_c, 1, 51, 0
1, 29136, Note_on_c, 1, 49, 75
1, 29155, Note_on_c, 0, 66, 0
1, 29160, Note_on_c, 0, 68, 75
1, 29181, Note_on_c, 1, 49, 0
1, 29183, Note_on_c, 0, 68, 0
1, 29184, Note_on_c, 0, 69, 75
1, 29184, Note_on_c, 1, 47, 75
1, 29229, Note_on_c, 1, 47, 0
1, 29232, Note_on_c, 1, 51, 75
1, 29265, Note_on_c, 0, 66, 0
1, 29273, Note_on_c, 0, 69, 0
1, 29277, Note_on_c, 1, 51, 0
1, 29280, Note_on_c, 0, 68, 75
1, 29280, Note_on_c, 0, 64, 75
1, 29280, Note_on_c, 1, 52, 75
1, 29325, Note_on_c, 1, 52, 0
1, 29328, Note_on_c, 1, 46, 75
1, 29369, Note_on_c, 0, 68, 0
1, 29369, Note_on_c, 0, 64, 0
1, 29373, Note_on_c, 1, 46, 0
1, 29376, Note_on_c, 0, 68, 75
1, 29376, Note_on_c, 0, 64, 75
1, 29376, Note_on_c, 1, 47, 75
1, 29421, Note_on_c, 1, 47, 0
1, 29424, Note_on_c, 1, 35, 75
1, 29469, Note_on_c, 1, 35, 0
1, 29472, Note_on_c, 0, 68, 0
1, 29472, Note_on_c, 0, 64, 0
1, 29472, Note_on_c, 0, 66, 75
1, 29472, Note_on_c, 0, 63, 75
1, 29472, Note_on_c, 1, 47, 75
1, 29517, Note_on_c, 1, 47, 0
1, 29520, Note_on_c, 1, 49, 75
1, 29561, Note_on_c, 0, 66, 0
1, 29561, Note_on_c, 0, 63, 0
1, 29565, Note_on_c, 1, 49, 0
1, 29568, Note_on_c, 1, 47, 75
1, 29613, Note_on_c, 1, 47, 0
1, 29616, Note_on_c, 1, 45, 75
1, 29661, Note_on_c, 1, 45, 0
1, 29664, Note_on_c, 0, 71, 75
1, 29664, Note_on_c, 1, 44, 75
1, 29709, Note_on_c, 1, 44, 0
1, 29712, Note_on_c, 0, 62, 64
1, 29712, Note_on_c, 1, 42, 75
1, 29757, Note_on_c, 1, 42, 0
1, 29760, Note_on_c, 0, 62, 0
1, 29760, Note_on_c, 0, 61, 64
1, 29760, Note_on_c, 1, 41, 75
1, 29797, Note_on_c, 0, 71, 0
1, 29805, Note_on_c, 1, 41, 0
1, 29808, Note_on_c, 0, 68, 75
1, 29808, Note_on_c, 1, 53, 75
1, 29849, Note_on_c, 0, 61, 0
1, 29853, Note_on_c, 0, 68, 0
1, 29853, Note_on_c, 1, 53, 0
1, 29856, Note_on_c, 0, 69, 75
1, 29856, Note_on_c, 1, 51, 75
1, 29901, Note_on_c, 0, 69, 0
1, 29901, Note_on_c, 1, 51, 0
1, 29904, Note_on_c, 0, 71, 75
1, 29904, Note_on_c, 1, 49, 75
1, 29949, Note_on_c, 0, 71, 0
1, 29949, Note_on_c, 1, 49, 0
1, 29952, Note_on_c, 0, 69, 75
1, 29952, Note_on_c, 1, 54, 75
1, 29997, Note_on_c, 1, 54, 0
1, 30000, Note_on_c, 0, 60, 64
1, 30000, Note_on_c, 1, 52, 75
1, 30045, Note_on_c, 1, 52, 0
1, 30048, Note_on_c, 0, 60, 0
1, 30048, Note_on_c, 0, 59, 64
1, 30048, Note_on_c, 1, 51, 75
1, 30085, Note_on_c, 0, 69, 0
1, 30093, Note_on_c, 1, 51, 0
1, 30096, Note_on_c, 0, 66, 75
1, 30096, Note_on_c, 1, 51, 75
1, 30137, Note_on_c, 0, 59, 0
1, 30141, Note_on_c, 0, 66, 0
1, 30141, Note_on_c, 1, 51, 0
1, 30144, Note_on_c, 0, 68, 75
1, 30144, Note_on_c, 1, 49, 75
1, 30189, Note_on_c, 0, 68, 0
1, 30189, Note_on_c, 1, 49, 0
1, 30192, Note_on_c, 0, 69, 75
1, 30192, Note_on_c, 1, 47, 75
1, 30237, Note_on_c, 0, 69, 0
1, 30237, Note_on_c, 1, 47, 0
1, 30240, Note_on_c, 0, 68, 75
1, 30240, Note_on_c, 1, 52, 75
1, 30285, Note_on_c, 0, 68, 0
1, 30285, Note_on_c, 1, 52, 0
1, 30288, Note_on_c, 0, 71, 75
1, 30288, Note_on_c, 1, 40, 75
1, 30333, Note_on_c, 0, 71, 0
1, 30333, Note_on_c, 1, 40, 0
1, 30336, Note_on_c, 0, 69, 75
1, 30336, Note_on_c, 1, 49, 75
1, 30381, Note_on_c, 0, 69, 0
1, 30381, Note_on_c, 1, 49, 0
1, 30384, Note_on_c, 0, 68, 75
1, 30384, Note_on_c, 1, 47, 75
1, 30429, Note_on_c, 0, 68, 0
1, 30429, Note_on_c, 1, 47, 0
1, 30432, Note_on_c, 0, 66, 75
1, 30432, Note_on_c, 1, 45, 75
1, 30477, Note_on_c, 0, 66, 0
1, 30477, Note_on_c, 1, 45, 0
1, 30480, Note_on_c, 0, 64, 75
1, 30480, Note_on_c, 1, 46, 75
1, 30525, Note_on_c, 0, 64, 0
1, 30525, Note_on_c, 1, 46, 0
1, 30528, Note_on_c, 0, 64, 75
1, 30528, Note_on_c, 1, 47, 75
1, 30573, Note_on_c, 1, 47, 0
1, 30576, Note_on_c, 1, 54, 75
1, 30621, Note_on_c, 1, 54, 0
1, 30624, Note_on_c, 0, 64, 0
1, 30624, Note_on_c, 0, 63, 75
1, 30624, Note_on_c, 1, 59, 75
1, 30669, Note_on_c, 1, 59, 0
1, 30672, Note_on_c, 1, 57, 75
1, 30713, Note_on_c, 0, 63, 0
1, 30717, Note_on_c, 1, 57, 0
1, 30720, Note_on_c, 1, 56, 75
1, 30765, Note_on_c, 1, 56, 0
1, 30768, Note_on_c, 1, 54, 75
1, 30813, Note_on_c, 1, 54, 0
1, 30816, Note_on_c, 0, 68, 75
1, 30816, Note_on_c, 1, 52, 75
1, 30905, Note_on_c, 1, 52, 0
1, 30912, Note_on_c, 1, 40, 75
1, 30949, Note_on_c, 0, 68, 0
1, 30960, Note_on_c, 0, 69, 75
1, 30983, Note_on_c, 0, 69, 0
1, 30984, Note_on_c, 0, 71, 75
1, 31001, Note_on_c, 1, 40, 0
1, 31007, Note_on_c, 0, 71, 0
1, 31008, Note_on_c, 0, 69, 75
1, 31031, Note_on_c, 0, 69, 0
1, 31032, Note_on_c, 0, 68, 75
1, 31055, Note_on_c, 0, 68, 0
1, 31056, Note_on_c, 0, 66, 75
1, 31079, Note_on_c, 0, 66, 0
1, 31080, Note_on_c, 0, 64, 75
1, 31103, Note_on_c, 0, 64, 0
1, 31104, Note_on_c, 0, 73, 75
1, 31104, Note_on_c, 1, 57, 75
1, 31193, Note_on_c, 0, 73, 0
1, 31200, Note_on_c, 0, 75, 75
1, 31281, Note_on_c, 1, 57, 0
1, 31289, Note_on_c, 0, 75, 0
1, 31296, Note_on_c, 0, 76, 75
1, 31296, Note_on_c, 1, 56, 75
1, 31385, Note_on_c, 0, 76, 0
1, 31385, Note_on_c, 1, 56, 0
1, 31392, Note_on_c, 0, 71, 75
1, 31481, Note_on_c, 0, 71, 0
1, 31488, Note_on_c, 0, 69, 75
1, 31488, Note_on_c, 1, 59, 75
1, 31488, Note_on_c, 1, 51, 75
1, 31555, Note_on_c, 0, 69, 0
1, 31560, Note_on_c, 0, 66, 75
1, 31577, Note_on_c, 1, 59, 0
1, 31577, Note_on_c, 1, 51, 0
1, 31583, Note_on_c, 0, 66, 0
1, 31584, Note_on_c, 0, 68, 75
1, 31584, Note_on_c, 1, 59, 75
1, 31584, Note_on_c, 1, 52, 75
1, 31651, Note_on_c, 0, 68, 0
1, 31656, Note_on_c, 0, 64, 75
1, 31673, Note_on_c, 1, 59, 0
1, 31673, Note_on_c, 1, 52, 0
1, 31679, Note_on_c, 0, 64, 0
1, 31680, Note_on_c, 0, 66, 75
1, 31680, Note_on_c, 1, 57, 75
1, 31680, Note_on_c, 1, 47, 75
1, 31747, Note_on_c, 0, 66, 0
1, 31752, Note_on_c, 0, 63, 75
1, 31769, Note_on_c, 1, 57, 0
1, 31769, Note_on_c, 1, 47, 0
1, 31775, Note_on_c, 0, 63, 0
1, 31776, Note_on_c, 0, 64, 75
1, 31776, Note_on_c, 1, 56, 75
1, 31776, Note_on_c, 1, 52, 75
1, 31865, Note_on_c, 0, 64, 0
1, 31865, Note_on_c, 1, 56, 0
1, 31865, Note_on_c, 1, 52, 0
1, 31872, Note_on_c, 0, 59, 75
1, 31895, Note_on_c, 0, 59, 0
1, 31896, Note_on_c, 0, 64, 75
1, 31919, Note_on_c, 0, 64, 0
1, 31920, Note_on_c, 0, 68, 75
1, 31943, Note_on_c, 0, 68, 0
1, 31944, Note_on_c, 0, 71, 75
1, 31967, Note_on_c, 0, 71, 0
1, 31968, Note_on_c, 0, 71, 75
1, 31968, Note_on_c, 1, 56, 75
1, 31968, Note_on_c, 1, 47, 64
1, 32057, Note_on_c, 0, 71, 0
1, 32057, Note_on_c, 1, 56, 0
1, 32064, Note_on_c, 0, 69, 75
1, 32064, Note_on_c, 1, 54, 75
1, 32131, Note_on_c, 0, 69, 0
1, 32131, Note_on_c, 1, 54, 0
1, 32136, Note_on_c, 0, 66, 75
1, 32136, Note_on_c, 1, 51, 75
1, 32145, Note_on_c, 1, 47, 0
1, 32159, Note_on_c, 0, 66, 0
1, 32159, Note_on_c, 1, 51, 0
1, 32160, Note_on_c, 0, 68, 75
1, 32160, Note_on_c, 1, 52, 75
1, 32227, Note_on_c, 0, 68, 0
1, 32227, Note_on_c, 1, 52, 0
1, 32232, Note_on_c, 0, 64, 75
1, 32232, Note_on_c, 1, 56, 75
1, 32255, Note_on_c, 0, 64, 0
1, 32255, Note_on_c, 1, 56, 0
1, 32256, Note_on_c, 0, 68, 75
1, 32256, Note_on_c, 1, 59, 75
1, 32256, Note_on_c, 1, 47, 64
1, 32345, Note_on_c, 0, 68, 0
1, 32345, Note_on_c, 1, 59, 0
1, 32352, Note_on_c, 0, 66, 75
1, 32352, Note_on_c, 1, 57, 75
1, 32419, Note_on_c, 0, 66, 0
1, 32419, Note_on_c, 1, 57, 0
1, 32424, Note_on_c, 0, 63, 75
1, 32424, Note_on_c, 1, 54, 75
1, 32433, Note_on_c, 1, 47, 0
1, 32447, Note_on_c, 0, 63, 0
1, 32447, Note_on_c, 1, 54, 0
1, 32448, Note_on_c, 0, 64, 75
1, 32448, Note_on_c, 1, 56, 75
1, 32515, Note_on_c, 0, 64, 0
1, 32515, Note_on_c, 1, 56, 0
1, 32520, Note_on_c, 0, 68, 75
1, 32520, Note_on_c, 1, 52, 75
1, 32543, Note_on_c, 0, 68, 0
1, 32543, Note_on_c, 1, 52, 0
1, 32544, Note_on_c, 0, 71, 80
1, 32544, Note_on_c, 1, 56, 80
1, 32544, Note_on_c, 1, 47, 64
1, 32633, Note_on_c, 0, 71, 0
1, 32633, Note_on_c, 1, 56, 0
1, 32640, Note_on_c, 0, 69, 80
1, 32640, Note_on_c, 1, 54, 80
1, 32707, Note_on_c, 0, 69, 0
1, 32707, Note_on_c, 1, 54, 0
1, 32712, Note_on_c, 0, 66, 80
1, 32712, Note_on_c, 1, 51, 80
1, 32721, Note_on_c, 1, 47, 0
1, 32735, Note_on_c, 0, 66, 0
1, 32735, Note_on_c, 1, 51, 0
1, 32736, Note_on_c, 0, 68, 80
1, 32736, Note_on_c, 1, 52, 80
1, 32803, Note_on_c, 0, 68, 0
1, 32803, Note_on_c, 1, 52, 0
1, 32808, Note_on_c, 0, 64, 80
1, 32808, Note_on_c, 1, 56, 80
1, 32831, Note_on_c, 0, 64, 0
1, 32831, Note_on_c, 1, 56, 0
1, 32832, Note_on_c, 0, 68, 80
1, 32832, Note_on_c, 1, 59, 80
1, 32832, Note_on_c, 1, 47, 64
1, 32921, Note_on_c, 0, 68, 0
1, 32921, Note_on_c, 1, 59, 0
1, 32928, Note_on_c, 0, 66, 80
1, 32928, Note_on_c, 1, 57, 80
1, 32995, Note_on_c, 0, 66, 0
1, 32995, Note_on_c, 1, 57, 0
1, 33000, Note_on_c, 0, 63, 80
1, 33000, Note_on_c, 1, 54, 80
1, 33009, Note_on_c, 1, 47, 0
1, 33023, Note_on_c, 0, 63, 0
1, 33023, Note_on_c, 1, 54, 0
1, 33024, Note_on_c, 0, 64, 80
1, 33024, Note_on_c, 1, 56, 80
1, 33091, Note_on_c, 0, 64, 0
1, 33096, Note_on_c, 0, 68, 80
1, 33113, Note_on_c, 1, 56, 0
1, 33119, Note_on_c, 0, 68, 0
1, 33120, Note_on_c, 0, 71, 70
1, 33187, Note_on_c, 0, 71, 0
1, 33192, Note_on_c, 0, 70, 70
1, 33215, Note_on_c, 0, 70, 0
1, 33216, Note_on_c, 0, 70, 70
1, 33216, Note_on_c, 1, 64, 70
1, 33216, Note_on_c, 1, 61, 70
1, 33310, Note_on_c, 1, 64, 0
1, 33310, Note_on_c, 1, 61, 0
1, 33312, Note_on_c, 1, 64, 70
1, 33312, Note_on_c, 1, 61, 70
1, 33349, Note_on_c, 0, 70, 0
1, 33384, Note_on_c, 0, 78, 70
1, 33406, Note_on_c, 1, 64, 0
1, 33406, Note_on_c, 1, 61, 0
1, 33407, Note_on_c, 0, 78, 0
1, 33408, Note_on_c, 0, 78, 70
1, 33475, Note_on_c, 0, 78, 0
1, 33480, Note_on_c, 0, 69, 70
1, 33503, Note_on_c, 0, 69, 0
1, 33504, Note_on_c, 0, 69, 70
1, 33504, Note_on_c, 1, 66, 70
1, 33504, Note_on_c, 1, 63, 70
1, 33598, Note_on_c, 1, 66, 0
1, 33598, Note_on_c, 1, 63, 0
1, 33600, Note_on_c, 1, 66, 70
1, 33600, Note_on_c, 1, 63, 70
1, 33637, Note_on_c, 0, 69, 0
1, 33672, Note_on_c, 0, 69, 80
1, 33694, Note_on_c, 1, 66, 0
1, 33694, Note_on_c, 1, 63, 0
1, 33696, Note_on_c, 0, 69, 0
1, 33696, Note_on_c, 0, 68, 80
1, 33696, Note_on_c, 1, 52, 80
1, 33696, Note_on_c, 1, 40, 80
1, 33741, Note_on_c, 0, 68, 0
1, 33768, Note_on_c, 0, 68, 80
1, 33785, Note_on_c, 1, 52, 0
1, 33785, Note_on_c, 1, 40, 0
1, 33792, Note_on_c, 0, 68, 0
1, 33792, Note_on_c, 0, 69, 80
1, 33792, Note_on_c, 1, 54, 80
1, 33792, Note_on_c, 1, 42, 80
1, 33837, Note_on_c, 0, 69, 0
1, 33864, Note_on_c, 0, 69, 80
1, 33881, Note_on_c, 1, 54, 0
1, 33881, Note_on_c, 1, 42, 0
1, 33888, Note_on_c, 0, 69, 0
1, 33888, Note_on_c, 0, 71, 80
1, 33888, Note_on_c, 1, 56, 80
1, 33888, Note_on_c, 1, 44, 80
1, 33933, Note_on_c, 0, 71, 0
1, 33960, Note_on_c, 0, 71, 80
1, 33977, Note_on_c, 1, 56, 0
1, 33977, Note_on_c, 1, 44, 0
1, 33984, Note_on_c, 0, 71, 0
1, 33984, Note_on_c, 0, 73, 80
1, 33984, Note_on_c, 1, 57, 80
1, 33984, Note_on_c, 1, 45, 80
1, 34029, Note_on_c, 0, 73, 0
1, 34056, Note_on_c, 0, 73, 80
1, 34073, Note_on_c, 1, 57, 0
1, 34073, Note_on_c, 1, 45, 0
1, 34080, Note_on_c, 0, 73, 0
1, 34080, Note_on_c, 0, 75, 80
1, 34080, Note_on_c, 1, 54, 80
1, 34080, Note_on_c, 1, 42, 80
1, 34125, Note_on_c, 0, 75, 0
1, 34152, Note_on_c, 0, 75, 80
1, 34169, Note_on_c, 1, 54, 0
1, 34169, Note_on_c, 1, 42, 0
1, 34176, Note_on_c, 0, 75, 0
1, 34176, Note_on_c, 0, 76, 80
1, 34176, Note_on_c, 1, 56, 80
1, 34176, Note_on_c, 1, 44, 80
1, 34221, Note_on_c, 0, 76, 0
1, 34248, Note_on_c, 0, 76, 80
1, 34265, Note_on_c, 1, 56, 0
1, 34265, Note_on_c, 1, 44, 0
1, 34271, Note_on_c, 0, 76, 0
1, 34272, Note_on_c, 0, 75, 80
1, 34272, Note_on_c, 1, 57, 80
1, 34272, Note_on_c, 1, 45, 80
1, 34295, Note_on_c, 0, 75, 0
1, 34296, Note_on_c, 0, 73, 80
1, 34319, Note_on_c, 0, 73, 0
1, 34320, Note_on_c, 0, 71, 80
1, 34343, Note_on_c, 0, 71, 0
1, 34344, Note_on_c, 0, 69, 80
1, 34361, Note_on_c, 1, 57, 0
1, 34361, Note_on_c, 1, 45, 0
1, 34367, Note_on_c, 0, 69, 0
1, 34368, Note_on_c, 0, 68, 80
1, 34368, Note_on_c, 1, 59, 80
1, 34368, Note_on_c, 1, 47, 80
1, 34457, Note_on_c, 0, 68, 0
1, 34457, Note_on_c, 1, 59, 0
1, 34457, Note_on_c, 1, 47, 0
1, 34464, Note_on_c, 0, 66, 80
1, 34464, Note_on_c, 1, 47, 80
1, 34464, Note_on_c, 1, 35, 80
1, 34553, Note_on_c, 0, 66, 0
1, 34553, Note_on_c, 1, 47, 0
1, 34553, Note_on_c, 1, 35, 0
1, 34560, Note_on_c, 0, 64, 80
1, 34560, Note_on_c, 1, 52, 80
1, 34649, Note_on_c, 0, 64, 0
1, 34649, Note_on_c, 1, 52, 0
1, 34656, Note_on_c, 1, 40, 80
1, 34680, Note_on_c, 0, 59, 80
1, 34703, Note_on_c, 0, 59, 0
1, 34704, Note_on_c, 0, 61, 80
1, 34727, Note_on_c, 0, 61, 0
1, 34728, Note_on_c, 0, 63, 80
1, 34745, Note_on_c, 1, 40, 0
1, 34751, Note_on_c, 0, 63, 0
1, 34752, Note_on_c, 0, 64, 80
1, 34775, Note_on_c, 0, 64, 0
1, 34776, Note_on_c, 0, 66, 80
1, 34799, Note_on_c, 0, 66, 0
1, 34800, Note_on_c, 0, 68, 80
1, 34823, Note_on_c, 0, 68, 0
1, 34824, Note_on_c, 0, 69, 80
1, 34847, Note_on_c, 0, 69, 0
1, 34848, Note_on_c, 0, 71, 80
1, 34848, Note_on_c, 1, 52, 75
1, 34937, Note_on_c, 1, 52, 0
1, 34944, Note_on_c, 1, 56, 75
1, 35025, Note_on_c, 0, 71, 0
1, 35033, Note_on_c, 1, 56, 0
1, 35040, Note_on_c, 0, 69, 80
1, 35040, Note_on_c, 1, 52, 75
1, 35063, Note_on_c, 0, 69, 0
1, 35064, Note_on_c, 0, 68, 80
1, 35087, Note_on_c, 0, 68, 0
1, 35088, Note_on_c, 0, 66, 80
1, 35111, Note_on_c, 0, 66, 0
1, 35112, Note_on_c, 0, 64, 80
1, 35129, Note_on_c, 1, 52, 0
1, 35135, Note_on_c, 0, 64, 0
1, 35136, Note_on_c, 0, 73, 80
1, 35136, Note_on_c, 1, 45, 75
1, 35181, Note_on_c, 0, 73, 0
1, 35184, Note_on_c, 0, 69, 80
1, 35225, Note_on_c, 1, 45, 0
1, 35229, Note_on_c, 0, 69, 0
1, 35232, Note_on_c, 1, 57, 75
1, 35280, Note_on_c, 0, 78, 80
1, 35300, Note_on_c, 0, 78, 0
1, 35321, Note_on_c, 1, 57, 0
1, 35328, Note_on_c, 1, 69, 75
1, 35376, Note_on_c, 0, 75, 80
1, 35396, Note_on_c, 0, 75, 0
1, 35417, Note_on_c, 1, 69, 0
1, 35424, Note_on_c, 1, 68, 75
1, 35472, Note_on_c, 0, 75, 80
1, 35513, Note_on_c, 1, 68, 0
1, 35520, Note_on_c, 0, 75, 0
1, 35520, Note_on_c, 0, 76, 80
1, 35565, Note_on_c, 0, 76, 0
1, 35568, Note_on_c, 0, 71, 80
1, 35613, Note_on_c, 0, 71, 0
1, 35616, Note_on_c, 0, 68, 80
1, 35661, Note_on_c, 0, 68, 0
1, 35664, Note_on_c, 0, 64, 80
1, 35709, Note_on_c, 0, 64, 0
1, 35712, Note_on_c, 0, 73, 80
1, 35712, Note_on_c, 1, 45, 75
1, 35757, Note_on_c, 0, 73, 0
1, 35760, Note_on_c, 0, 69, 80
1, 35801, Note_on_c, 1, 45, 0
1, 35805, Note_on_c, 0, 69, 0
1, 35808, Note_on_c, 1, 57, 75
1, 35856, Note_on_c, 0, 78, 80
1, 35876, Note_on_c, 0, 78, 0
1, 35897, Note_on_c, 1, 57, 0
1, 35904, Note_on_c, 1, 69, 75
1, 35952, Note_on_c, 0, 75, 80
1, 35972, Note_on_c, 0, 75, 0
1, 35993, Note_on_c, 1, 69, 0
1, 36000, Note_on_c, 1, 68, 75
1, 36048, Note_on_c, 0, 75, 80
1, 36089, Note_on_c, 1, 68, 0
1, 36096, Note_on_c, 0, 75, 0
1, 36096, Note_on_c, 0, 76, 80
1, 36141, Note_on_c, 0, 76, 0
1, 36144, Note_on_c, 0, 71, 80
1, 36189, Note_on_c, 0, 71, 0
1, 36192, Note_on_c, 0, 68, 80
1, 36237, Note_on_c, 0, 68, 0
1, 36240, Note_on_c, 0, 64, 80
1, 36285, Note_on_c, 0, 64, 0
1, 36288, Note_on_c, 1, 45, 75
1, 36336, Note_on_c, 0, 65, 80
1, 36377, Note_on_c, 1, 45, 0
1, 36384, Note_on_c, 0, 65, 0
1, 36384, Note_on_c, 0, 66, 80
1, 36429, Note_on_c, 0, 66, 0
1, 36432, Note_on_c, 0, 68, 80
1, 36477, Note_on_c, 0, 68, 0
1, 36480, Note_on_c, 0, 69, 80
1, 36525, Note_on_c, 0, 69, 0
1, 36528, Note_on_c, 0, 73, 80
1, 36573, Note_on_c, 0, 73, 0
1, 36576, Note_on_c, 0, 71, 80
1, 36576, Note_on_c, 1, 56, 75
1, 36643, Note_on_c, 0, 71, 0
1, 36648, Note_on_c, 0, 73, 80
1, 36665, Note_on_c, 1, 56, 0
1, 36671, Note_on_c, 0, 73, 0
1, 36672, Note_on_c, 0, 64, 80
1, 36672, Note_on_c, 1, 57, 75
1, 36761, Note_on_c, 0, 64, 0
1, 36761, Note_on_c, 1, 57, 0
1, 36768, Note_on_c, 0, 63, 80
1, 36768, Note_on_c, 1, 59, 75
1, 36857, Note_on_c, 0, 63, 0
1, 36857, Note_on_c, 1, 59, 0
1, 36864, Note_on_c, 0, 70, 80
1, 36876, Note_on_c, 0, 70, 0
1, 36876, Note_on_c, 0, 71, 80
1, 36888, Note_on_c, 0, 71, 0
1, 36888, Note_on_c, 0, 73, 80
1, 36900, Note_on_c, 0, 73, 0
1, 36900, Note_on_c, 0, 71, 80
1, 36960, Note_on_c, 1, 64, 75
1, 36960, Note_on_c, 1, 56, 75
1, 37041, Note_on_c, 0, 71, 0
1, 37049, Note_on_c, 1, 64, 0
1, 37049, Note_on_c, 1, 56, 0
1, 37056, Note_on_c, 0, 69, 80
1, 37056, Note_on_c, 1, 64, 75
1, 37056, Note_on_c, 1, 56, 75
1, 37079, Note_on_c, 0, 69, 0
1, 37080, Note_on_c, 0, 68, 80
1, 37103, Note_on_c, 0, 68, 0
1, 37104, Note_on_c, 0, 66, 80
1, 37127, Note_on_c, 0, 66, 0
1, 37128, Note_on_c, 0, 64, 80
1, 37145, Note_on_c, 1, 64, 0
1, 37145, Note_on_c, 1, 56, 0
1, 37151, Note_on_c, 0, 64, 0
1, 37152, Note_on_c, 0, 73, 80
1, 37248, Note_on_c, 1, 61, 75
1, 37248, Note_on_c, 1, 57, 75
1, 37315, Note_on_c, 0, 73, 0
1, 37320, Note_on_c, 0, 81, 80
1, 37332, Note_on_c, 0, 81, 0
1, 37332, Note_on_c, 0, 78, 80
1, 37337, Note_on_c, 1, 61, 0
1, 37337, Note_on_c, 1, 57, 0
1, 37344, Note_on_c, 0, 78, 0
1, 37344, Note_on_c, 0, 75, 80
1, 37344, Note_on_c, 1, 59, 75
1, 37344, Note_on_c, 1, 57, 75
1, 37411, Note_on_c, 0, 75, 0
1, 37416, Note_on_c, 0, 83, 80
1, 37428, Note_on_c, 0, 83, 0
1, 37428, Note_on_c, 0, 80, 80
1, 37433, Note_on_c, 1, 59, 0
1, 37433, Note_on_c, 1, 57, 0
1, 37440, Note_on_c, 0, 80, 0
1, 37440, Note_on_c, 0, 76, 80
1, 37440, Note_on_c, 1, 59, 75
1, 37440, Note_on_c, 1, 56, 75
1, 37463, Note_on_c, 0, 76, 0
1, 37464, Note_on_c, 0, 78, 80
1, 37487, Note_on_c, 0, 78, 0
1, 37488, Note_on_c, 0, 80, 80
1, 37511, Note_on_c, 0, 80, 0
1, 37512, Note_on_c, 0, 78, 80
1, 37529, Note_on_c, 1, 59, 0
1, 37529, Note_on_c, 1, 56, 0
1, 37535, Note_on_c, 0, 78, 0
1, 37536, Note_on_c, 0, 76, 80
1, 37559, Note_on_c, 0, 76, 0
1, 37560, Note_on_c, 0, 75, 80
1, 37583, Note_on_c, 0, 75, 0
1, 37584, Note_on_c, 0, 73, 80
1, 37607, Note_on_c, 0, 73, 0
1, 37608, Note_on_c, 0, 71, 80
1, 37631, Note_on_c, 0, 71, 0
1, 37632, Note_on_c, 0, 69, 80
1, 37655, Note_on_c, 0, 69, 0
1, 37656, Note_on_c, 0, 68, 80
1, 37679, Note_on_c, 0, 68, 0
1, 37680, Note_on_c, 0, 66, 80
1, 37703, Note_on_c, 0, 66, 0
1, 37704, Note_on_c, 0, 64, 80
1, 37727, Note_on_c, 0, 64, 0
1, 37728, Note_on_c, 0, 73, 80
1, 37824, Note_on_c, 1, 61, 75
1, 37824, Note_on_c, 1, 57, 75
1, 37891, Note_on_c, 0, 73, 0
1, 37896, Note_on_c, 0, 81, 80
1, 37908, Note_on_c, 0, 81, 0
1, 37908, Note_on_c, 0, 78, 80
1, 37913, Note_on_c, 1, 61, 0
1, 37913, Note_on_c, 1, 57, 0
1, 37920, Note_on_c, 0, 78, 0
1, 37920, Note_on_c, 0, 75, 80
1, 37920, Note_on_c, 1, 59, 75
1, 37920, Note_on_c, 1, 57, 75
1, 37987, Note_on_c, 0, 75, 0
1, 37992, Note_on_c, 0, 83, 80
1, 38004, Note_on_c, 0, 83, 0
1, 38004, Note_on_c, 0, 80, 80
1, 38009, Note_on_c, 1, 59, 0
1, 38009, Note_on_c, 1, 57, 0
1, 38016, Note_on_c, 0, 80, 0
1, 38016, Note_on_c, 0, 76, 80
1, 38016, Note_on_c, 1, 59, 75
1, 38016, Note_on_c, 1, 56, 75
1, 38039, Note_on_c, 0, 76, 0
1, 38040, Note_on_c, 0, 78, 80
1, 38063, Note_on_c, 0, 78, 0
1, 38064, Note_on_c, 0, 80, 80
1, 38087, Note_on_c, 0, 80, 0
1, 38088, Note_on_c, 0, 78, 80
1, 38105, Note_on_c, 1, 59, 0
1, 38105, Note_on_c, 1, 56, 0
1, 38111, Note_on_c, 0, 78, 0
1, 38112, Note_on_c, 0, 76, 80
1, 38135, Note_on_c, 0, 76, 0
1, 38136, Note_on_c, 0, 75, 80
1, 38159, Note_on_c, 0, 75, 0
1, 38160, Note_on_c, 0, 73, 80
1, 38183, Note_on_c, 0, 73, 0
1, 38184, Note_on_c, 0, 71, 80
1, 38207, Note_on_c, 0, 71, 0
1, 38208, Note_on_c, 0, 69, 80
1, 38231, Note_on_c, 0, 69, 0
1, 38232, Note_on_c, 0, 68, 80
1, 38255, Note_on_c, 0, 68, 0
1, 38256, Note_on_c, 0, 66, 80
1, 38279, Note_on_c, 0, 66, 0
1, 38280, Note_on_c, 0, 64, 80
1, 38303, Note_on_c, 0, 64, 0
1, 38304, Note_on_c, 0, 66, 80
1, 38304, Note_on_c, 1, 61, 75
1, 38304, Note_on_c, 1, 57, 75
1, 38327, Note_on_c, 0, 66, 0
1, 38328, Note_on_c, 0, 68, 81
1, 38351, Note_on_c, 0, 68, 0
1, 38352, Note_on_c, 0, 69, 82
1, 38375, Note_on_c, 0, 69, 0
1, 38376, Note_on_c, 0, 71, 83
1, 38393, Note_on_c, 1, 61, 0
1, 38393, Note_on_c, 1, 57, 0
1, 38399, Note_on_c, 0, 71, 0
1, 38400, Note_on_c, 0, 73, 84
1, 38423, Note_on_c, 0, 73, 0
1, 38424, Note_on_c, 0, 71, 85
1, 38447, Note_on_c, 0, 71, 0
1, 38448, Note_on_c, 0, 69, 86
1, 38471, Note_on_c, 0, 69, 0
1, 38472, Note_on_c, 0, 68, 85
1, 38495, Note_on_c, 0, 68, 0
1, 38496, Note_on_c, 0, 66, 84
1, 38519, Note_on_c, 0, 66, 0
1, 38520, Note_on_c, 0, 64, 83
1, 38543, Note_on_c, 0, 64, 0
1, 38544, Note_on_c, 0, 63, 82
1, 38567, Note_on_c, 0, 63, 0
1, 38568, Note_on_c, 0, 61, 81
1, 38591, Note_on_c, 0, 61, 0
1, 38592, Note_on_c, 0, 59, 80
1, 38681, Note_on_c, 0, 59, 0
1, 38688, Note_on_c, 0, 64, 80
1, 38688, Note_on_c, 1, 56, 75
1, 38688, Note_on_c, 1, 47, 75
1, 38777, Note_on_c, 0, 64, 0
1, 38777, Note_on_c, 1, 56, 0
1, 38777, Note_on_c, 1, 47, 0
1, 38784, Note_on_c, 0, 63, 80
1, 38784, Note_on_c, 1, 54, 75
1, 38784, Note_on_c, 1, 47, 75
1, 38873, Note_on_c, 0, 63, 0
1, 38873, Note_on_c, 1, 54, 0
1, 38873, Note_on_c, 1, 47, 0
1, 38880, Note_on_c, 0, 64, 80
1, 38880, Note_on_c, 1, 52, 75
1, 38969, Note_on_c, 1, 52, 0
1, 38976, Note_on_c, 1, 47, 75
1, 39057, Note_on_c, 0, 64, 0
1, 39065, Note_on_c, 1, 47, 0
1, 39072, Note_on_c, 1, 40, 75
1, 39161, Note_on_c, 1, 40, 0
1, 39168, Note_on_c, 1, 40, 0
1, 39257, Note_on_c, 1, 40, 0
1, 39267, End_track
0, 0, End_of_file