0, 0, Header, 0, 1, 96
1, 0, Start_track
1, 0, Tempo, 461538
1, 0, Note_on_c, 0, 74, 64
1, 0, Note_on_c, 1, 67, 64
1, 23, Note_on_c, 1, 67, 0
1, 24, Note_on_c, 1, 71, 64
1, 45, Note_on_c, 0, 74, 0
1, 47, Note_on_c, 1, 71, 0
1, 48, Note_on_c, 0, 79, 64
1, 48, Note_on_c, 1, 67, 64
1, 71, Note_on_c, 1, 67, 0
1, 72, Note_on_c, 1, 71, 64
1, 93, Note_on_c, 0, 79, 0
1, 95, Note_on_c, 1, 71, 0
1, 96, Note_on_c, 0, 83, 64
1, 96, Note_on_c, 1, 67, 64
1, 119, Note_on_c, 1, 67, 0
1, 120, Note_on_c, 1, 71, 64
1, 141, Note_on_c, 0, 83, 0
1, 143, Note_on_c, 1, 71, 0
1, 144, Note_on_c, 0, 86, 80
1, 144, Note_on_c, 1, 67, 64
1, 167, Note_on_c, 1, 67, 0
1, 168, Note_on_c, 1, 71, 64
1, 191, Note_on_c, 1, 71, 0
1, 192, Note_on_c, 1, 67, 64
1, 215, Note_on_c, 1, 67, 0
1, 216, Note_on_c, 1, 71, 64
1, 239, Note_on_c, 1, 71, 0
1, 240, Note_on_c, 0, 86, 0
1, 240, Note_on_c, 0, 74, 64
1, 240, Note_on_c, 1, 67, 64
1, 263, Note_on_c, 1, 67, 0
1, 264, Note_on_c, 1, 71, 64
1, 285, Note_on_c, 0, 74, 0
1, 287, Note_on_c, 1, 71, 0
1, 288, Note_on_c, 0, 76, 64
1, 288, Note_on_c, 1, 67, 64
1, 311, Note_on_c, 1, 67, 0
1, 312, Note_on_c, 1, 72, 64
1, 333, Note_on_c, 0, 76, 0
1, 335, Note_on_c, 1, 72, 0
1, 336, Note_on_c, 0, 84, 64
1, 336, Note_on_c, 1, 67, 64
1, 359, Note_on_c, 1, 67, 0
1, 360, Note_on_c, 1, 72, 64
1, 381, Note_on_c, 0, 84, 0
1, 383, Note_on_c, 1, 72, 0
1, 384, Note_on_c, 0, 76, 64
1, 384, Note_on_c, 1, 67, 64
1, 407, Note_on_c, 1, 67, 0
1, 408, Note_on_c, 1, 72, 64
1, 429, Note_on_c, 0, 76, 0
1, 431, Note_on_c, 1, 72, 0
1, 432, Note_on_c, 0, 74, 64
1, 432, Note_on_c, 1, 67, 64
1, 455, Note_on_c, 1, 67, 0
1, 456, Note_on_c, 1, 71, 64
1, 477, Note_on_c, 0, 74, 0
1, 479, Note_on_c, 1, 71, 0
1, 480, Note_on_c, 1, 67, 64
1, 503, Note_on_c, 1, 67, 0
1, 504, Note_on_c, 1, 71, 64
1, 527, Note_on_c, 1, 71, 0
1, 528, Note_on_c, 1, 67, 64
1, 551, Note_on_c, 1, 67, 0
1, 552, Note_on_c, 1, 71, 64
1, 575, Note_on_c, 1, 71, 0
1, 576, Note_on_c, 0, 72, 64
1, 576, Note_on_c, 1, 62, 64
1, 599, Note_on_c, 1, 62, 0
1, 600, Note_on_c, 1, 69, 64
1, 621, Note_on_c, 0, 72, 0
1, 623, Note_on_c, 1, 69, 0
1, 624, Note_on_c, 0, 81, 64
1, 624, Note_on_c, 1, 62, 64
1, 647, Note_on_c, 1, 62, 0
1, 648, Note_on_c, 1, 69, 64
1, 669, Note_on_c, 0, 81, 0
1, 671, Note_on_c, 1, 69, 0
1, 672, Note_on_c, 0, 72, 64
1, 672, Note_on_c, 1, 62, 64
1, 695, Note_on_c, 1, 62, 0
1, 696, Note_on_c, 1, 69, 64
1, 717, Note_on_c, 0, 72, 0
1, 719, Note_on_c, 1, 69, 0
1, 720, Note_on_c, 0, 71, 64
1, 720, Note_on_c, 1, 67, 64
1, 743, Note_on_c, 0, 71, 0
1, 744, Note_on_c, 0, 79, 64
1, 765, Note_on_c, 1, 67, 0
1, 767, Note_on_c, 0, 79, 0
1, 768, Note_on_c, 0, 72, 64
1, 768, Note_on_c, 1, 69, 64
1, 791, Note_on_c, 0, 72, 0
1, 792, Note_on_c, 0, 79, 64
1, 813, Note_on_c, 1, 69, 0
1, 815, Note_on_c, 0, 79, 0
1, 816, Note_on_c, 0, 74, 64
1, 816, Note_on_c, 1, 71, 64
1, 839, Note_on_c, 0, 74, 0
1, 840, Note_on_c, 0, 79, 64
1, 861, Note_on_c, 1, 71, 0
1, 863, Note_on_c, 0, 79, 0
1, 864, Note_on_c, 0, 69, 64
1, 864, Note_on_c, 1, 60, 64
1, 887, Note_on_c, 0, 69, 0
1, 888, Note_on_c, 0, 76, 64
1, 911, Note_on_c, 0, 76, 0
1, 912, Note_on_c, 0, 74, 64
1, 935, Note_on_c, 0, 74, 0
1, 936, Note_on_c, 0, 72, 64
1, 953, Note_on_c, 1, 60, 0
1, 959, Note_on_c, 0, 72, 0
1, 960, Note_on_c, 0, 71, 64
1, 960, Note_on_c, 1, 62, 64
1, 983, Note_on_c, 0, 71, 0
1, 984, Note_on_c, 0, 69, 64
1, 1005, Note_on_c, 1, 62, 0
1, 1007, Note_on_c, 0, 69, 0
1, 1008, Note_on_c, 0, 67, 64
1, 1008, Note_on_c, 1, 55, 64
1, 1053, Note_on_c, 1, 55, 0
1, 1056, Note_on_c, 1, 50, 64
1, 1097, Note_on_c, 0, 67, 0
1, 1101, Note_on_c, 1, 50, 0
1, 1104, Note_on_c, 1, 43, 64
1, 1149, Note_on_c, 1, 43, 0
1, 1152, Note_on_c, 0, 74, 64
1, 1152, Note_on_c, 1, 67, 64
1, 1175, Note_on_c, 1, 67, 0
1, 1176, Note_on_c, 1, 71, 64
1, 1197, Note_on_c, 0, 74, 0
1, 1199, Note_on_c, 1, 71, 0
1, 1200, Note_on_c, 0, 79, 64
1, 1200, Note_on_c, 1, 67, 64
1, 1223, Note_on_c, 1, 67, 0
1, 1224, Note_on_c, 1, 71, 64
1, 1245, Note_on_c, 0, 79, 0
1, 1247, Note_on_c, 1, 71, 0
1, 1248, Note_on_c, 0, 83, 64
1, 1248, Note_on_c, 1, 67, 64
1, 1271, Note_on_c, 1, 67, 0
1, 1272, Note_on_c, 1, 71, 64
1, 1293, Note_on_c, 0, 83, 0
1, 1295, Note_on_c, 1, 71, 0
1, 1296, Note_on_c, 0, 86, 80
1, 1296, Note_on_c, 1, 67, 64
1, 1319, Note_on_c, 1, 67, 0
1, 1320, Note_on_c, 1, 71, 64
1, 1343, Note_on_c, 1, 71, 0
1, 1344, Note_on_c, 1, 67, 64
1, 1367, Note_on_c, 1, 67, 0
1, 1368, Note_on_c, 1, 71, 64
1, 1391, Note_on_c, 1, 71, 0
1, 1392, Note_on_c, 0, 86, 0
1, 1392, Note_on_c, 0, 74, 64
1, 1392, Note_on_c, 1, 67, 64
1, 1415, Note_on_c, 1, 67, 0
1, 1416, Note_on_c, 1, 71, 64
1, 1437, Note_on_c, 0, 74, 0
1, 1439, Note_on_c, 1, 71, 0
1, 1440, Note_on_c, 0, 76, 64
1, 1440, Note_on_c, 1, 67, 64
1, 1463, Note_on_c, 1, 67, 0
1, 1464, Note_on_c, 1, 72, 64
1, 1485, Note_on_c, 0, 76, 0
1, 1487, Note_on_c, 1, 72, 0
1, 1488, Note_on_c, 0, 84, 64
1, 1488, Note_on_c, 1, 67, 64
1, 1511, Note_on_c, 1, 67, 0
1, 1512, Note_on_c, 1, 72, 64
1, 1533, Note_on_c, 0, 84, 0
1, 1535, Note_on_c, 1, 72, 0
1, 1536, Note_on_c, 0, 76, 64
1, 1536, Note_on_c, 1, 67, 64
1, 1559, Note_on_c, 1, 67, 0
1, 1560, Note_on_c, 1, 72, 64
1, 1581, Note_on_c, 0, 76, 0
1, 1583, Note_on_c, 1, 72, 0
1, 1584, Note_on_c, 0, 74, 64
1, 1584, Note_on_c, 1, 67, 64
1, 1607, Note_on_c, 1, 67, 0
1, 1608, Note_on_c, 1, 71, 64
1, 1629, Note_on_c, 0, 74, 0
1, 1631, Note_on_c, 1, 71, 0
1, 1632, Note_on_c, 1, 67, 64
1, 1655, Note_on_c, 1, 67, 0
1, 1656, Note_on_c, 1, 71, 64
1, 1679, Note_on_c, 1, 71, 0
1, 1680, Note_on_c, 1, 67, 64
1, 1703, Note_on_c, 1, 67, 0
1, 1704, Note_on_c, 1, 71, 64
1, 1727, Note_on_c, 1, 71, 0
1, 1728, Note_on_c, 0, 72, 64
1, 1728, Note_on_c, 1, 62, 64
1, 1751, Note_on_c, 1, 62, 0
1, 1752, Note_on_c, 1, 69, 64
1, 1773, Note_on_c, 0, 72, 0
1, 1775, Note_on_c, 1, 69, 0
1, 1776, Note_on_c, 0, 81, 64
1, 1776, Note_on_c, 1, 62, 64
1, 1799, Note_on_c, 1, 62, 0
1, 1800, Note_on_c, 1, 69, 64
1, 1821, Note_on_c, 0, 81, 0
1, 1823, Note_on_c, 1, 69, 0
1, 1824, Note_on_c, 0, 72, 64
1, 1824, Note_on_c, 1, 62, 64
1, 1847, Note_on_c, 1, 62, 0
1, 1848, Note_on_c, 1, 69, 64
1, 1869, Note_on_c, 0, 72, 0
1, 1871, Note_on_c, 1, 69, 0
1, 1872, Note_on_c, 0, 71, 64
1, 1872, Note_on_c, 1, 67, 64
1, 1895, Note_on_c, 0, 71, 0
1, 1896, Note_on_c, 0, 79, 64
1, 1917, Note_on_c, 1, 67, 0
1, 1919, Note_on_c, 0, 79, 0
1, 1920, Note_on_c, 0, 72, 64
1, 1920, Note_on_c, 1, 69, 64
1, 1943, Note_on_c, 0, 72, 0
1, 1944, Note_on_c, 0, 79, 64
1, 1965, Note_on_c, 1, 69, 0
1, 1967, Note_on_c, 0, 79, 0
1, 1968, Note_on_c, 0, 74, 64
1, 1968, Note_on_c, 1, 71, 64
1, 1991, Note_on_c, 0, 74, 0
1, 1992, Note_on_c, 0, 79, 64
1, 2013, Note_on_c, 1, 71, 0
1, 2015, Note_on_c, 0, 79, 0
1, 2016, Note_on_c, 0, 69, 64
1, 2016, Note_on_c, 1, 60, 64
1, 2039, Note_on_c, 0, 69, 0
1, 2040, Note_on_c, 0, 76, 64
1, 2063, Note_on_c, 0, 76, 0
1, 2064, Note_on_c, 0, 74, 64
1, 2087, Note_on_c, 0, 74, 0
1, 2088, Note_on_c, 0, 72, 64
1, 2105, Note_on_c, 1, 60, 0
1, 2111, Note_on_c, 0, 72, 0
1, 2112, Note_on_c, 0, 71, 64
1, 2112, Note_on_c, 1, 62, 64
1, 2135, Note_on_c, 0, 71, 0
1, 2136, Note_on_c, 0, 69, 64
1, 2157, Note_on_c, 1, 62, 0
1, 2159, Note_on_c, 0, 69, 0
1, 2160, Note_on_c, 0, 67, 64
1, 2160, Note_on_c, 1, 55, 64
1, 2205, Note_on_c, 1, 55, 0
1, 2208, Note_on_c, 1, 50, 64
1, 2249, Note_on_c, 0, 67, 0
1, 2253, Note_on_c, 1, 50, 0
1, 2256, Note_on_c, 1, 43, 64
1, 2301, Note_on_c, 1, 43, 0
1, 2304, Note_on_c, 0, 66, 64
1, 2304, Note_on_c, 0, 50, 64
1, 2327, Note_on_c, 0, 66, 0
1, 2328, Note_on_c, 0, 62, 64
1, 2351, Note_on_c, 0, 62, 0
1, 2352, Note_on_c, 0, 66, 64
1, 2375, Note_on_c, 0, 66, 0
1, 2376, Note_on_c, 0, 62, 64
1, 2399, Note_on_c, 0, 62, 0
1, 2400, Note_on_c, 0, 66, 64
1, 2400, Note_on_c, 1, 60, 64
1, 2423, Note_on_c, 0, 66, 0
1, 2424, Note_on_c, 0, 62, 64
1, 2437, Note_on_c, 0, 50, 0
1, 2445, Note_on_c, 1, 60, 0
1, 2447, Note_on_c, 0, 62, 0
1, 2448, Note_on_c, 0, 67, 64
1, 2448, Note_on_c, 1, 59, 64
1, 2448, Note_on_c, 0, 50, 64
1, 2471, Note_on_c, 0, 67, 0
1, 2472, Note_on_c, 0, 62, 64
1, 2493, Note_on_c, 1, 59, 0
1, 2495, Note_on_c, 0, 62, 0
1, 2496, Note_on_c, 0, 69, 64
1, 2496, Note_on_c, 1, 54, 64
1, 2519, Note_on_c, 0, 69, 0
1, 2520, Note_on_c, 0, 62, 64
1, 2541, Note_on_c, 1, 54, 0
1, 2543, Note_on_c, 0, 62, 0
1, 2544, Note_on_c, 0, 71, 64
1, 2544, Note_on_c, 1, 55, 64
1, 2567, Note_on_c, 0, 71, 0
1, 2568, Note_on_c, 0, 62, 64
1, 2581, Note_on_c, 0, 50, 0
1, 2589, Note_on_c, 1, 55, 0
1, 2591, Note_on_c, 0, 62, 0
1, 2592, Note_on_c, 0, 72, 64
1, 2592, Note_on_c, 1, 57, 64
1, 2592, Note_on_c, 0, 50, 64
1, 2615, Note_on_c, 0, 72, 0
1, 2616, Note_on_c, 0, 62, 64
1, 2637, Note_on_c, 1, 57, 0
1, 2639, Note_on_c, 0, 62, 0
1, 2640, Note_on_c, 0, 72, 64
1, 2640, Note_on_c, 1, 54, 64
1, 2663, Note_on_c, 0, 72, 0
1, 2664, Note_on_c, 0, 62, 64
1, 2685, Note_on_c, 1, 54, 0
1, 2687, Note_on_c, 0, 62, 0
1, 2688, Note_on_c, 0, 71, 64
1, 2688, Note_on_c, 1, 55, 64
1, 2711, Note_on_c, 0, 71, 0
1, 2712, Note_on_c, 0, 62, 64
1, 2725, Note_on_c, 0, 50, 0
1, 2733, Note_on_c, 1, 55, 0
1, 2735, Note_on_c, 0, 62, 0
1, 2736, Note_on_c, 0, 69, 64
1, 2736, Note_on_c, 1, 54, 64
1, 2736, Note_on_c, 1, 50, 64
1, 2759, Note_on_c, 0, 69, 0
1, 2760, Note_on_c, 0, 74, 64
1, 2783, Note_on_c, 0, 74, 0
1, 2784, Note_on_c, 0, 66, 64
1, 2807, Note_on_c, 0, 66, 0
1, 2808, Note_on_c, 0, 69, 64
1, 2825, Note_on_c, 1, 54, 0
1, 2825, Note_on_c, 1, 50, 0
1, 2831, Note_on_c, 0, 69, 0
1, 2832, Note_on_c, 0, 62, 64
1, 2877, Note_on_c, 0, 62, 0
1, 2880, Note_on_c, 0, 66, 64
1, 2880, Note_on_c, 1, 62, 64
1, 2880, Note_on_c, 1, 50, 64
1, 2903, Note_on_c, 0, 66, 0
1, 2904, Note_on_c, 0, 74, 64
1, 2927, Note_on_c, 0, 74, 0
1, 2928, Note_on_c, 0, 66, 64
1, 2951, Note_on_c, 0, 66, 0
1, 2952, Note_on_c, 0, 74, 64
1, 2969, Note_on_c, 1, 62, 0
1, 2969, Note_on_c, 1, 50, 0
1, 2975, Note_on_c, 0, 74, 0
1, 2976, Note_on_c, 0, 66, 64
1, 2976, Note_on_c, 1, 60, 64
1, 2976, Note_on_c, 1, 48, 64
1, 2999, Note_on_c, 0, 66, 0
1, 3000, Note_on_c, 0, 74, 64
1, 3021, Note_on_c, 1, 60, 0
1, 3021, Note_on_c, 1, 48, 0
1, 3023, Note_on_c, 0, 74, 0
1, 3024, Note_on_c, 0, 67, 64
1, 3024, Note_on_c, 1, 59, 64
1, 3024, Note_on_c, 1, 47, 64
1, 3047, Note_on_c, 0, 67, 0
1, 3048, Note_on_c, 0, 74, 64
1, 3069, Note_on_c, 1, 59, 0
1, 3069, Note_on_c, 1, 47, 0
1, 3071, Note_on_c, 0, 74, 0
1, 3072, Note_on_c, 0, 69, 64
1, 3072, Note_on_c, 1, 57, 64
1, 3072, Note_on_c, 1, 45, 64
1, 3095, Note_on_c, 0, 69, 0
1, 3096, Note_on_c, 0, 74, 64
1, 3117, Note_on_c, 1, 57, 0
1, 3117, Note_on_c, 1, 45, 0
1, 3119, Note_on_c, 0, 74, 0
1, 3120, Note_on_c, 0, 71, 64
1, 3120, Note_on_c, 1, 55, 64
1, 3120, Note_on_c, 1, 43, 64
1, 3143, Note_on_c, 0, 71, 0
1, 3144, Note_on_c, 0, 74, 64
1, 3165, Note_on_c, 1, 55, 0
1, 3165, Note_on_c, 1, 43, 0
1, 3167, Note_on_c, 0, 74, 0
1, 3168, Note_on_c, 0, 72, 64
1, 3168, Note_on_c, 1, 54, 64
1, 3168, Note_on_c, 1, 42, 64
1, 3191, Note_on_c, 0, 72, 0
1, 3192, Note_on_c, 0, 74, 64
1, 3215, Note_on_c, 0, 74, 0
1, 3216, Note_on_c, 0, 72, 64
1, 3239, Note_on_c, 0, 72, 0
1, 3240, Note_on_c, 0, 74, 64
1, 3257, Note_on_c, 1, 54, 0
1, 3257, Note_on_c, 1, 42, 0
1, 3263, Note_on_c, 0, 74, 0
1, 3264, Note_on_c, 0, 71, 64
1, 3264, Note_on_c, 1, 55, 64
1, 3264, Note_on_c, 1, 43, 64
1, 3287, Note_on_c, 0, 71, 0
1, 3288, Note_on_c, 0, 74, 64
1, 3309, Note_on_c, 1, 55, 0
1, 3309, Note_on_c, 1, 43, 0
1, 3311, Note_on_c, 0, 74, 0
1, 3312, Note_on_c, 0, 69, 64
1, 3312, Note_on_c, 1, 50, 64
1, 3312, Note_on_c, 1, 38, 64
1, 3335, Note_on_c, 0, 69, 0
1, 3336, Note_on_c, 0, 74, 64
1, 3359, Note_on_c, 0, 74, 0
1, 3360, Note_on_c, 0, 66, 64
1, 3383, Note_on_c, 0, 66, 0
1, 3384, Note_on_c, 0, 69, 64
1, 3401, Note_on_c, 1, 50, 0
1, 3401, Note_on_c, 1, 38, 0
1, 3407, Note_on_c, 0, 69, 0
1, 3408, Note_on_c, 0, 62, 64
1, 3453, Note_on_c, 0, 62, 0
1, 3456, Note_on_c, 0, 74, 64
1, 3456, Note_on_c, 1, 67, 64
1, 3479, Note_on_c, 1, 67, 0
1, 3480, Note_on_c, 1, 71, 64
1, 3501, Note_on_c, 0, 74, 0
1, 3503, Note_on_c, 1, 71, 0
1, 3504, Note_on_c, 0, 79, 64
1, 3504, Note_on_c, 1, 67, 64
1, 3527, Note_on_c, 1, 67, 0
1, 3528, Note_on_c, 1, 71, 64
1, 3549, Note_on_c, 0, 79, 0
1, 3551, Note_on_c, 1, 71, 0
1, 3552, Note_on_c, 0, 83, 64
1, 3552, Note_on_c, 1, 67, 64
1, 3575, Note_on_c, 1, 67, 0
1, 3576, Note_on_c, 1, 71, 64
1, 3597, Note_on_c, 0, 83, 0
1, 3599, Note_on_c, 1, 71, 0
1, 3600, Note_on_c, 0, 86, 80
1, 3600, Note_on_c, 1, 67, 64
1, 3623, Note_on_c, 1, 67, 0
1, 3624, Note_on_c, 1, 71, 64
1, 3647, Note_on_c, 1, 71, 0
1, 3648, Note_on_c, 1, 67, 64
1, 3671, Note_on_c, 1, 67, 0
1, 3672, Note_on_c, 1, 71, 64
1, 3695, Note_on_c, 1, 71, 0
1, 3696, Note_on_c, 0, 86, 0
1, 3696, Note_on_c, 0, 74, 64
1, 3696, Note_on_c, 1, 67, 64
1, 3719, Note_on_c, 1, 67, 0
1, 3720, Note_on_c, 1, 71, 64
1, 3741, Note_on_c, 0, 74, 0
1, 3743, Note_on_c, 1, 71, 0
1, 3744, Note_on_c, 0, 76, 64
1, 3744, Note_on_c, 1, 67, 64
1, 3767, Note_on_c, 1, 67, 0
1, 3768, Note_on_c, 1, 72, 64
1, 3789, Note_on_c, 0, 76, 0
1, 3791, Note_on_c, 1, 72, 0
1, 3792, Note_on_c, 0, 84, 64
1, 3792, Note_on_c, 1, 67, 64
1, 3815, Note_on_c, 1, 67, 0
1, 3816, Note_on_c, 1, 72, 64
1, 3837, Note_on_c, 0, 84, 0
1, 3839, Note_on_c, 1, 72, 0
1, 3840, Note_on_c, 0, 76, 64
1, 3840, Note_on_c, 1, 67, 64
1, 3863, Note_on_c, 1, 67, 0
1, 3864, Note_on_c, 1, 72, 64
1, 3885, Note_on_c, 0, 76, 0
1, 3887, Note_on_c, 1, 72, 0
1, 3888, Note_on_c, 0, 74, 64
1, 3888, Note_on_c, 1, 67, 64
1, 3911, Note_on_c, 1, 67, 0
1, 3912, Note_on_c, 1, 71, 64
1, 3933, Note_on_c, 0, 74, 0
1, 3935, Note_on_c, 1, 71, 0
1, 3936, Note_on_c, 1, 67, 64
1, 3959, Note_on_c, 1, 67, 0
1, 3960, Note_on_c, 1, 71, 64
1, 3983, Note_on_c, 1, 71, 0
1, 3984, Note_on_c, 1, 67, 64
1, 4007, Note_on_c, 1, 67, 0
1, 4008, Note_on_c, 1, 71, 64
1, 4031, Note_on_c, 1, 71, 0
1, 4032, Note_on_c, 0, 72, 64
1, 4032, Note_on_c, 1, 62, 64
1, 4055, Note_on_c, 1, 62, 0
1, 4056, Note_on_c, 1, 69, 64
1, 4077, Note_on_c, 0, 72, 0
1, 4079, Note_on_c, 1, 69, 0
1, 4080, Note_on_c, 0, 81, 64
1, 4080, Note_on_c, 1, 62, 64
1, 4103, Note_on_c, 1, 62, 0
1, 4104, Note_on_c, 1, 69, 64
1, 4125, Note_on_c, 0, 81, 0
1, 4127, Note_on_c, 1, 69, 0
1, 4128, Note_on_c, 0, 72, 64
1, 4128, Note_on_c, 1, 62, 64
1, 4151, Note_on_c, 1, 62, 0
1, 4152, Note_on_c, 1, 69, 64
1, 4173, Note_on_c, 0, 72, 0
1, 4175, Note_on_c, 1, 69, 0
1, 4176, Note_on_c, 0, 71, 64
1, 4176, Note_on_c, 1, 67, 64
1, 4199, Note_on_c, 0, 71, 0
1, 4200, Note_on_c, 0, 79, 64
1, 4221, Note_on_c, 1, 67, 0
1, 4223, Note_on_c, 0, 79, 0
1, 4224, Note_on_c, 0, 72, 64
1, 4224, Note_on_c, 1, 69, 64
1, 4247, Note_on_c, 0, 72, 0
1, 4248, Note_on_c, 0, 79, 64
1, 4269, Note_on_c, 1, 69, 0
1, 4271, Note_on_c, 0, 79, 0
1, 4272, Note_on_c, 0, 74, 64
1, 4272, Note_on_c, 1, 71, 64
1, 4295, Note_on_c, 0, 74, 0
1, 4296, Note_on_c, 0, 79, 64
1, 4317, Note_on_c, 1, 71, 0
1, 4319, Note_on_c, 0, 79, 0
1, 4320, Note_on_c, 0, 69, 64
1, 4320, Note_on_c, 1, 60, 64
1, 4343, Note_on_c, 0, 69, 0
1, 4344, Note_on_c, 0, 76, 64
1, 4367, Note_on_c, 0, 76, 0
1, 4368, Note_on_c, 0, 74, 64
1, 4391, Note_on_c, 0, 74, 0
1, 4392, Note_on_c, 0, 72, 64
1, 4409, Note_on_c, 1, 60, 0
1, 4415, Note_on_c, 0, 72, 0
1, 4416, Note_on_c, 0, 71, 64
1, 4416, Note_on_c, 1, 62, 64
1, 4439, Note_on_c, 0, 71, 0
1, 4440, Note_on_c, 0, 69, 64
1, 4461, Note_on_c, 1, 62, 0
1, 4463, Note_on_c, 0, 69, 0
1, 4464, Note_on_c, 0, 67, 64
1, 4464, Note_on_c, 1, 55, 64
1, 4509, Note_on_c, 1, 55, 0
1, 4512, Note_on_c, 1, 50, 64
1, 4553, Note_on_c, 0, 67, 0
1, 4557, Note_on_c, 1, 50, 0
1, 4560, Note_on_c, 1, 43, 64
1, 4605, Note_on_c, 1, 43, 0
1, 4608, Note_on_c, 0, 66, 64
1, 4608, Note_on_c, 0, 50, 64
1, 4631, Note_on_c, 0, 66, 0
1, 4632, Note_on_c, 0, 62, 64
1, 4655, Note_on_c, 0, 62, 0
1, 4656, Note_on_c, 0, 66, 64
1, 4679, Note_on_c, 0, 66, 0
1, 4680, Note_on_c, 0, 62, 64
1, 4703, Note_on_c, 0, 62, 0
1, 4704, Note_on_c, 0, 66, 64
1, 4704, Note_on_c, 1, 60, 64
1, 4727, Note_on_c, 0, 66, 0
1, 4728, Note_on_c, 0, 62, 64
1, 4741, Note_on_c, 0, 50, 0
1, 4749, Note_on_c, 1, 60, 0
1, 4751, Note_on_c, 0, 62, 0
1, 4752, Note_on_c, 0, 67, 64
1, 4752, Note_on_c, 1, 59, 64
1, 4752, Note_on_c, 0, 50, 64
1, 4775, Note_on_c, 0, 67, 0
1, 4776, Note_on_c, 0, 62, 64
1, 4797, Note_on_c, 1, 59, 0
1, 4799, Note_on_c, 0, 62, 0
1, 4800, Note_on_c, 0, 69, 64
1, 4800, Note_on_c, 1, 54, 64
1, 4823, Note_on_c, 0, 69, 0
1, 4824, Note_on_c, 0, 62, 64
1, 4845, Note_on_c, 1, 54, 0
1, 4847, Note_on_c, 0, 62, 0
1, 4848, Note_on_c, 0, 71, 64
1, 4848, Note_on_c, 1, 55, 64
1, 4871, Note_on_c, 0, 71, 0
1, 4872, Note_on_c, 0, 62, 64
1, 4885, Note_on_c, 0, 50, 0
1, 4893, Note_on_c, 1, 55, 0
1, 4895, Note_on_c, 0, 62, 0
1, 4896, Note_on_c, 0, 72, 64
1, 4896, Note_on_c, 1, 57, 64
1, 4896, Note_on_c, 0, 50, 64
1, 4919, Note_on_c, 0, 72, 0
1, 4920, Note_on_c, 0, 62, 64
1, 4941, Note_on_c, 1, 57, 0
1, 4943, Note_on_c, 0, 62, 0
1, 4944, Note_on_c, 0, 72, 64
1, 4944, Note_on_c, 1, 54, 64
1, 4967, Note_on_c, 0, 72, 0
1, 4968, Note_on_c, 0, 62, 64
1, 4989, Note_on_c, 1, 54, 0
1, 4991, Note_on_c, 0, 62, 0
1, 4992, Note_on_c, 0, 71, 64
1, 4992, Note_on_c, 1, 55, 64
1, 5015, Note_on_c, 0, 71, 0
1, 5016, Note_on_c, 0, 62, 64
1, 5029, Note_on_c, 0, 50, 0
1, 5037, Note_on_c, 1, 55, 0
1, 5039, Note_on_c, 0, 62, 0
1, 5040, Note_on_c, 0, 69, 64
1, 5040, Note_on_c, 1, 54, 64
1, 5040, Note_on_c, 1, 50, 64
1, 5063, Note_on_c, 0, 69, 0
1, 5064, Note_on_c, 0, 74, 64
1, 5087, Note_on_c, 0, 74, 0
1, 5088, Note_on_c, 0, 66, 64
1, 5111, Note_on_c, 0, 66, 0
1, 5112, Note_on_c, 0, 69, 64
1, 5129, Note_on_c, 1, 54, 0
1, 5129, Note_on_c, 1, 50, 0
1, 5135, Note_on_c, 0, 69, 0
1, 5136, Note_on_c, 0, 62, 64
1, 5181, Note_on_c, 0, 62, 0
1, 5184, Note_on_c, 0, 66, 64
1, 5184, Note_on_c, 1, 62, 64
1, 5184, Note_on_c, 1, 50, 64
1, 5207, Note_on_c, 0, 66, 0
1, 5208, Note_on_c, 0, 74, 64
1, 5231, Note_on_c, 0, 74, 0
1, 5232, Note_on_c, 0, 66, 64
1, 5255, Note_on_c, 0, 66, 0
1, 5256, Note_on_c, 0, 74, 64
1, 5273, Note_on_c, 1, 62, 0
1, 5273, Note_on_c, 1, 50, 0
1, 5279, Note_on_c, 0, 74, 0
1, 5280, Note_on_c, 0, 66, 64
1, 5280, Note_on_c, 1, 60, 64
1, 5280, Note_on_c, 1, 48, 64
1, 5303, Note_on_c, 0, 66, 0
1, 5304, Note_on_c, 0, 74, 64
1, 5325, Note_on_c, 1, 60, 0
1, 5325, Note_on_c, 1, 48, 0
1, 5327, Note_on_c, 0, 74, 0
1, 5328, Note_on_c, 0, 67, 64
1, 5328, Note_on_c, 1, 59, 64
1, 5328, Note_on_c, 1, 47, 64
1, 5351, Note_on_c, 0, 67, 0
1, 5352, Note_on_c, 0, 74, 64
1, 5373, Note_on_c, 1, 59, 0
1, 5373, Note_on_c, 1, 47, 0
1, 5375, Note_on_c, 0, 74, 0
1, 5376, Note_on_c, 0, 69, 64
1, 5376, Note_on_c, 1, 57, 64
1, 5376, Note_on_c, 1, 45, 64
1, 5399, Note_on_c, 0, 69, 0
1, 5400, Note_on_c, 0, 74, 64
1, 5421, Note_on_c, 1, 57, 0
1, 5421, Note_on_c, 1, 45, 0
1, 5423, Note_on_c, 0, 74, 0
1, 5424, Note_on_c, 0, 71, 64
1, 5424, Note_on_c, 1, 55, 64
1, 5424, Note_on_c, 1, 43, 64
1, 5447, Note_on_c, 0, 71, 0
1, 5448, Note_on_c, 0, 74, 64
1, 5469, Note_on_c, 1, 55, 0
1, 5469, Note_on_c, 1, 43, 0
1, 5471, Note_on_c, 0, 74, 0
1, 5472, Note_on_c, 0, 72, 64
1, 5472, Note_on_c, 1, 54, 64
1, 5472, Note_on_c, 1, 42, 64
1, 5495, Note_on_c, 0, 72, 0
1, 5496, Note_on_c, 0, 74, 64
1, 5519, Note_on_c, 0, 74, 0
1, 5520, Note_on_c, 0, 72, 64
1, 5543, Note_on_c, 0, 72, 0
1, 5544, Note_on_c, 0, 74, 64
1, 5561, Note_on_c, 1, 54, 0
1, 5561, Note_on_c, 1, 42, 0
1, 5567, Note_on_c, 0, 74, 0
1, 5568, Note_on_c, 0, 71, 64
1, 5568, Note_on_c, 1, 55, 64
1, 5568, Note_on_c, 1, 43, 64
1, 5591, Note_on_c, 0, 71, 0
1, 5592, Note_on_c, 0, 74, 64
1, 5613, Note_on_c, 1, 55, 0
1, 5613, Note_on_c, 1, 43, 0
1, 5615, Note_on_c, 0, 74, 0
1, 5616, Note_on_c, 0, 69, 64
1, 5616, Note_on_c, 1, 50, 64
1, 5616, Note_on_c, 1, 38, 64
1, 5639, Note_on_c, 0, 69, 0
1, 5640, Note_on_c, 0, 74, 64
1, 5663, Note_on_c, 0, 74, 0
1, 5664, Note_on_c, 0, 66, 64
1, 5687, Note_on_c, 0, 66, 0
1, 5688, Note_on_c, 0, 69, 64
1, 5705, Note_on_c, 1, 50, 0
1, 5705, Note_on_c, 1, 38, 0
1, 5711, Note_on_c, 0, 69, 0
1, 5712, Note_on_c, 0, 62, 64
1, 5757, Note_on_c, 0, 62, 0
1, 5760, Note_on_c, 0, 74, 64
1, 5760, Note_on_c, 1, 67, 64
1, 5783, Note_on_c, 1, 67, 0
1, 5784, Note_on_c, 1, 71, 64
1, 5805, Note_on_c, 0, 74, 0
1, 5807, Note_on_c, 1, 71, 0
1, 5808, Note_on_c, 0, 79, 64
1, 5808, Note_on_c, 1, 67, 64
1, 5831, Note_on_c, 1, 67, 0
1, 5832, Note_on_c, 1, 71, 64
1, 5853, Note_on_c, 0, 79, 0
1, 5855, Note_on_c, 1, 71, 0
1, 5856, Note_on_c, 0, 83, 64
1, 5856, Note_on_c, 1, 67, 64
1, 5879, Note_on_c, 1, 67, 0
1, 5880, Note_on_c, 1, 71, 64
1, 5901, Note_on_c, 0, 83, 0
1, 5903, Note_on_c, 1, 71, 0
1, 5904, Note_on_c, 0, 86, 80
1, 5904, Note_on_c, 1, 67, 64
1, 5927, Note_on_c, 1, 67, 0
1, 5928, Note_on_c, 1, 71, 64
1, 5951, Note_on_c, 1, 71, 0
1, 5952, Note_on_c, 1, 67, 64
1, 5975, Note_on_c, 1, 67, 0
1, 5976, Note_on_c, 1, 71, 64
1, 5999, Note_on_c, 1, 71, 0
1, 6000, Note_on_c, 0, 86, 0
1, 6000, Note_on_c, 0, 74, 64
1, 6000, Note_on_c, 1, 67, 64
1, 6023, Note_on_c, 1, 67, 0
1, 6024, Note_on_c, 1, 71, 64
1, 6045, Note_on_c, 0, 74, 0
1, 6047, Note_on_c, 1, 71, 0
1, 6048, Note_on_c, 0, 76, 64
1, 6048, Note_on_c, 1, 67, 64
1, 6071, Note_on_c, 1, 67, 0
1, 6072, Note_on_c, 1, 72, 64
1, 6093, Note_on_c, 0, 76, 0
1, 6095, Note_on_c, 1, 72, 0
1, 6096, Note_on_c, 0, 84, 64
1, 6096, Note_on_c, 1, 67, 64
1, 6119, Note_on_c, 1, 67, 0
1, 6120, Note_on_c, 1, 72, 64
1, 6141, Note_on_c, 0, 84, 0
1, 6143, Note_on_c, 1, 72, 0
1, 6144, Note_on_c, 0, 76, 64
1, 6144, Note_on_c, 1, 67, 64
1, 6167, Note_on_c, 1, 67, 0
1, 6168, Note_on_c, 1, 72, 64
1, 6189, Note_on_c, 0, 76, 0
1, 6191, Note_on_c, 1, 72, 0
1, 6192, Note_on_c, 0, 74, 64
1, 6192, Note_on_c, 1, 67, 64
1, 6215, Note_on_c, 1, 67, 0
1, 6216, Note_on_c, 1, 71, 64
1, 6237, Note_on_c, 0, 74, 0
1, 6239, Note_on_c, 1, 71, 0
1, 6240, Note_on_c, 1, 67, 64
1, 6263, Note_on_c, 1, 67, 0
1, 6264, Note_on_c, 1, 71, 64
1, 6287, Note_on_c, 1, 71, 0
1, 6288, Note_on_c, 1, 67, 64
1, 6311, Note_on_c, 1, 67, 0
1, 6312, Note_on_c, 1, 71, 64
1, 6335, Note_on_c, 1, 71, 0
1, 6336, Note_on_c, 0, 72, 64
1, 6336, Note_on_c, 1, 62, 64
1, 6359, Note_on_c, 1, 62, 0
1, 6360, Note_on_c, 1, 69, 64
1, 6381, Note_on_c, 0, 72, 0
1, 6383, Note_on_c, 1, 69, 0
1, 6384, Note_on_c, 0, 81, 64
1, 6384, Note_on_c, 1, 62, 64
1, 6407, Note_on_c, 1, 62, 0
1, 6408, Note_on_c, 1, 69, 64
1, 6429, Note_on_c, 0, 81, 0
1, 6431, Note_on_c, 1, 69, 0
1, 6432, Note_on_c, 0, 72, 64
1, 6432, Note_on_c, 1, 62, 64
1, 6455, Note_on_c, 1, 62, 0
1, 6456, Note_on_c, 1, 69, 64
1, 6477, Note_on_c, 0, 72, 0
1, 6479, Note_on_c, 1, 69, 0
1, 6480, Note_on_c, 0, 71, 64
1, 6480, Note_on_c, 1, 67, 64
1, 6503, Note_on_c, 0, 71, 0
1, 6504, Note_on_c, 0, 79, 64
1, 6525, Note_on_c, 1, 67, 0
1, 6527, Note_on_c, 0, 79, 0
1, 6528, Note_on_c, 0, 72, 64
1, 6528, Note_on_c, 1, 69, 64
1, 6551, Note_on_c, 0, 72, 0
1, 6552, Note_on_c, 0, 79, 64
1, 6573, Note_on_c, 1, 69, 0
1, 6575, Note_on_c, 0, 79, 0
1, 6576, Note_on_c, 0, 74, 64
1, 6576, Note_on_c, 1, 71, 64
1, 6599, Note_on_c, 0, 74, 0
1, 6600, Note_on_c, 0, 79, 64
1, 6621, Note_on_c, 1, 71, 0
1, 6623, Note_on_c, 0, 79, 0
1, 6624, Note_on_c, 0, 69, 64
1, 6624, Note_on_c, 1, 60, 64
1, 6647, Note_on_c, 0, 69, 0
1, 6648, Note_on_c, 0, 76, 64
1, 6671, Note_on_c, 0, 76, 0
1, 6672, Note_on_c, 0, 74, 64
1, 6695, Note_on_c, 0, 74, 0
1, 6696, Note_on_c, 0, 72, 64
1, 6713, Note_on_c, 1, 60, 0
1, 6719, Note_on_c, 0, 72, 0
1, 6720, Note_on_c, 0, 71, 64
1, 6720, Note_on_c, 1, 62, 64
1, 6743, Note_on_c, 0, 71, 0
1, 6744, Note_on_c, 0, 69, 64
1, 6765, Note_on_c, 1, 62, 0
1, 6767, Note_on_c, 0, 69, 0
1, 6768, Note_on_c, 0, 67, 64
1, 6768, Note_on_c, 1, 55, 64
1, 6813, Note_on_c, 1, 55, 0
1, 6816, Note_on_c, 1, 50, 64
1, 6857, Note_on_c, 0, 67, 0
1, 6861, Note_on_c, 1, 50, 0
1, 6864, Note_on_c, 1, 43, 64
1, 6909, Note_on_c, 1, 43, 0
1, 7056, Note_on_c, 1, 43, 0
1, 7145, Note_on_c, 1, 43, 0
1, 7155, End_track
0, 0, End_of_file