0, 0, Header, 0, 1, 96
1, 0, Start_track
1, 0, Tempo, 100000
1, 192, Tempo, 461538
1, 192, Note_on_c, 0, 72, 80
1, 192, Note_on_c, 0, 63, 80
1, 192, Note_on_c, 1, 60, 64
1, 192, Note_on_c, 1, 48, 64
1, 231, Note_on_c, 0, 72, 0
1, 231, Note_on_c, 0, 63, 0
1, 231, Note_on_c, 1, 60, 0
1, 231, Note_on_c, 1, 48, 0
1, 288, Note_on_c, 0, 71, 91
1, 288, Note_on_c, 0, 65, 91
1, 288, Note_on_c, 1, 62, 64
1, 288, Note_on_c, 1, 50, 64
1, 327, Note_on_c, 0, 71, 0
1, 327, Note_on_c, 0, 65, 0
1, 327, Note_on_c, 1, 62, 0
1, 327, Note_on_c, 1, 50, 0
1, 384, Note_on_c, 0, 72, 76
1, 384, Note_on_c, 0, 67, 76
1, 384, Note_on_c, 1, 63, 64
1, 384, Note_on_c, 1, 51, 64
1, 423, Note_on_c, 0, 72, 0
1, 423, Note_on_c, 0, 67, 0
1, 423, Note_on_c, 1, 63, 0
1, 423, Note_on_c, 1, 51, 0
1, 480, Note_on_c, 0, 80, 94
1, 480, Note_on_c, 0, 77, 94
1, 480, Note_on_c, 1, 59, 80
1, 480, Note_on_c, 1, 47, 80
1, 576, Note_on_c, 1, 59, 0
1, 576, Note_on_c, 1, 47, 0
1, 576, Note_on_c, 1, 60, 64
1, 576, Note_on_c, 1, 48, 64
1, 665, Note_on_c, 0, 80, 0
1, 665, Note_on_c, 0, 77, 0
1, 672, Note_on_c, 0, 79, 80
1, 672, Note_on_c, 0, 75, 80
1, 753, Note_on_c, 1, 60, 0
1, 753, Note_on_c, 1, 48, 0
1, 761, Note_on_c, 0, 79, 0
1, 761, Note_on_c, 0, 75, 0
1, 768, Note_on_c, 0, 77, 80
1, 768, Note_on_c, 0, 68, 80
1, 768, Note_on_c, 1, 59, 64
1, 807, Note_on_c, 0, 77, 0
1, 807, Note_on_c, 0, 68, 0
1, 857, Note_on_c, 1, 59, 0
1, 864, Note_on_c, 0, 75, 80
1, 864, Note_on_c, 0, 67, 80
1, 864, Note_on_c, 1, 60, 64
1, 912, Note_on_c, 0, 75, 0
1, 912, Note_on_c, 0, 67, 0
1, 912, Note_on_c, 0, 74, 79
1, 912, Note_on_c, 0, 65, 79
1, 912, Note_on_c, 1, 60, 0
1, 912, Note_on_c, 1, 53, 64
1, 957, Note_on_c, 0, 74, 0
1, 957, Note_on_c, 0, 65, 0
1, 957, Note_on_c, 1, 53, 0
1, 960, Note_on_c, 0, 72, 78
1, 960, Note_on_c, 0, 63, 78
1, 960, Note_on_c, 1, 55, 64
1, 999, Note_on_c, 0, 72, 0
1, 999, Note_on_c, 0, 63, 0
1, 1049, Note_on_c, 1, 55, 0
1, 1056, Note_on_c, 0, 71, 76
1, 1056, Note_on_c, 0, 62, 76
1, 1056, Note_on_c, 1, 43, 64
1, 1095, Note_on_c, 0, 71, 0
1, 1095, Note_on_c, 0, 62, 0
1, 1145, Note_on_c, 1, 43, 0
1, 1152, Note_on_c, 0, 71, 91
1, 1152, Note_on_c, 0, 63, 91
1, 1152, Note_on_c, 1, 48, 64
1, 1241, Note_on_c, 1, 48, 0
1, 1248, Note_on_c, 0, 71, 0
1, 1248, Note_on_c, 0, 72, 75
1, 1248, Note_on_c, 1, 36, 64
1, 1337, Note_on_c, 0, 72, 0
1, 1337, Note_on_c, 0, 63, 0
1, 1337, Note_on_c, 1, 36, 0
1, 1344, Note_on_c, 0, 82, 75
1, 1344, Note_on_c, 1, 64, 70
1, 1367, Note_on_c, 0, 82, 0
1, 1368, Note_on_c, 0, 80, 76
1, 1391, Note_on_c, 0, 80, 0
1, 1392, Note_on_c, 0, 82, 78
1, 1415, Note_on_c, 0, 82, 0
1, 1416, Note_on_c, 0, 84, 80
1, 1439, Note_on_c, 0, 84, 0
1, 1440, Note_on_c, 0, 82, 79
1, 1440, Note_on_c, 1, 64, 0
1, 1440, Note_on_c, 1, 65, 70
1, 1536, Note_on_c, 0, 82, 0
1, 1536, Note_on_c, 0, 80, 77
1, 1617, Note_on_c, 1, 65, 0
1, 1625, Note_on_c, 0, 80, 0
1, 1632, Note_on_c, 0, 80, 75
1, 1632, Note_on_c, 1, 62, 70
1, 1655, Note_on_c, 0, 80, 0
1, 1656, Note_on_c, 0, 79, 76
1, 1679, Note_on_c, 0, 79, 0
1, 1680, Note_on_c, 0, 80, 78
1, 1703, Note_on_c, 0, 80, 0
1, 1704, Note_on_c, 0, 82, 80
1, 1727, Note_on_c, 0, 82, 0
1, 1728, Note_on_c, 0, 80, 79
1, 1728, Note_on_c, 1, 62, 0
1, 1728, Note_on_c, 1, 63, 70
1, 1824, Note_on_c, 0, 80, 0
1, 1824, Note_on_c, 0, 79, 77
1, 1905, Note_on_c, 1, 63, 0
1, 1913, Note_on_c, 0, 79, 0
1, 1920, Note_on_c, 0, 75, 80
1, 1920, Note_on_c, 0, 72, 80
1, 1920, Note_on_c, 1, 54, 80
1, 1920, Note_on_c, 1, 42, 80
1, 1959, Note_on_c, 0, 75, 0
1, 1959, Note_on_c, 0, 72, 0
1, 2016, Note_on_c, 0, 74, 80
1, 2016, Note_on_c, 0, 71, 80
1, 2016, Note_on_c, 1, 54, 0
1, 2016, Note_on_c, 1, 42, 0
1, 2016, Note_on_c, 1, 55, 80
1, 2016, Note_on_c, 1, 43, 80
1, 2055, Note_on_c, 0, 74, 0
1, 2055, Note_on_c, 0, 71, 0
1, 2105, Note_on_c, 1, 55, 0
1, 2105, Note_on_c, 1, 43, 0
1, 2112, Note_on_c, 0, 60, 75
1, 2112, Note_on_c, 1, 56, 96
1, 2112, Note_on_c, 1, 44, 96
1, 2157, Note_on_c, 0, 60, 0
1, 2160, Note_on_c, 0, 62, 75
1, 2205, Note_on_c, 0, 62, 0
1, 2208, Note_on_c, 0, 63, 75
1, 2275, Note_on_c, 0, 63, 0
1, 2280, Note_on_c, 0, 66, 75
1, 2303, Note_on_c, 0, 66, 0
1, 2304, Note_on_c, 0, 66, 91
1, 2304, Note_on_c, 0, 60, 91
1, 2304, Note_on_c, 1, 56, 0
1, 2304, Note_on_c, 1, 44, 0
1, 2304, Note_on_c, 1, 55, 80
1, 2304, Note_on_c, 1, 43, 80
1, 2400, Note_on_c, 0, 66, 0
1, 2400, Note_on_c, 0, 60, 0
1, 2400, Note_on_c, 0, 67, 75
1, 2400, Note_on_c, 0, 59, 75
1, 2481, Note_on_c, 1, 55, 0
1, 2481, Note_on_c, 1, 43, 0
1, 2489, Note_on_c, 0, 67, 0
1, 2489, Note_on_c, 0, 59, 0
1, 2496, Tempo, 461538
1, 2496, Note_on_c, 0, 72, 80
1, 2496, Note_on_c, 0, 63, 80
1, 2496, Note_on_c, 1, 60, 64
1, 2496, Note_on_c, 1, 48, 64
1, 2535, Note_on_c, 0, 72, 0
1, 2535, Note_on_c, 0, 63, 0
1, 2535, Note_on_c, 1, 60, 0
1, 2535, Note_on_c, 1, 48, 0
1, 2592, Note_on_c, 0, 71, 91
1, 2592, Note_on_c, 0, 65, 91
1, 2592, Note_on_c, 1, 62, 64
1, 2592, Note_on_c, 1, 50, 64
1, 2631, Note_on_c, 0, 71, 0
1, 2631, Note_on_c, 0, 65, 0
1, 2631, Note_on_c, 1, 62, 0
1, 2631, Note_on_c, 1, 50, 0
1, 2688, Note_on_c, 0, 72, 76
1, 2688, Note_on_c, 0, 67, 76
1, 2688, Note_on_c, 1, 63, 64
1, 2688, Note_on_c, 1, 51, 64
1, 2727, Note_on_c, 0, 72, 0
1, 2727, Note_on_c, 0, 67, 0
1, 2727, Note_on_c, 1, 63, 0
1, 2727, Note_on_c, 1, 51, 0
1, 2784, Note_on_c, 0, 80, 94
1, 2784, Note_on_c, 0, 77, 94
1, 2784, Note_on_c, 1, 59, 80
1, 2784, Note_on_c, 1, 47, 80
1, 2880, Note_on_c, 1, 59, 0
1, 2880, Note_on_c, 1, 47, 0
1, 2880, Note_on_c, 1, 60, 64
1, 2880, Note_on_c, 1, 48, 64
1, 2969, Note_on_c, 0, 80, 0
1, 2969, Note_on_c, 0, 77, 0
1, 2976, Note_on_c, 0, 79, 80
1, 2976, Note_on_c, 0, 75, 80
1, 3057, Note_on_c, 1, 60, 0
1, 3057, Note_on_c, 1, 48, 0
1, 3065, Note_on_c, 0, 79, 0
1, 3065, Note_on_c, 0, 75, 0
1, 3072, Note_on_c, 0, 77, 80
1, 3072, Note_on_c, 0, 68, 80
1, 3072, Note_on_c, 1, 59, 64
1, 3111, Note_on_c, 0, 77, 0
1, 3111, Note_on_c, 0, 68, 0
1, 3161, Note_on_c, 1, 59, 0
1, 3168, Note_on_c, 0, 75, 80
1, 3168, Note_on_c, 0, 67, 80
1, 3168, Note_on_c, 1, 60, 64
1, 3216, Note_on_c, 0, 75, 0
1, 3216, Note_on_c, 0, 67, 0
1, 3216, Note_on_c, 0, 74, 79
1, 3216, Note_on_c, 0, 65, 79
1, 3216, Note_on_c, 1, 60, 0
1, 3216, Note_on_c, 1, 53, 64
1, 3261, Note_on_c, 0, 74, 0
1, 3261, Note_on_c, 0, 65, 0
1, 3261, Note_on_c, 1, 53, 0
1, 3264, Note_on_c, 0, 72, 78
1, 3264, Note_on_c, 0, 63, 78
1, 3264, Note_on_c, 1, 55, 64
1, 3303, Note_on_c, 0, 72, 0
1, 3303, Note_on_c, 0, 63, 0
1, 3353, Note_on_c, 1, 55, 0
1, 3360, Note_on_c, 0, 71, 76
1, 3360, Note_on_c, 0, 62, 76
1, 3360, Note_on_c, 1, 43, 64
1, 3399, Note_on_c, 0, 71, 0
1, 3399, Note_on_c, 0, 62, 0
1, 3449, Note_on_c, 1, 43, 0
1, 3456, Note_on_c, 0, 71, 91
1, 3456, Note_on_c, 0, 63, 91
1, 3456, Note_on_c, 1, 48, 64
1, 3545, Note_on_c, 1, 48, 0
1, 3552, Note_on_c, 0, 71, 0
1, 3552, Note_on_c, 0, 72, 75
1, 3552, Note_on_c, 1, 36, 64
1, 3641, Note_on_c, 0, 72, 0
1, 3641, Note_on_c, 0, 63, 0
1, 3641, Note_on_c, 1, 36, 0
1, 3648, Note_on_c, 0, 82, 75
1, 3648, Note_on_c, 1, 64, 70
1, 3671, Note_on_c, 0, 82, 0
1, 3672, Note_on_c, 0, 80, 76
1, 3695, Note_on_c, 0, 80, 0
1, 3696, Note_on_c, 0, 82, 78
1, 3719, Note_on_c, 0, 82, 0
1, 3720, Note_on_c, 0, 84, 80
1, 3743, Note_on_c, 0, 84, 0
1, 3744, Note_on_c, 0, 82, 79
1, 3744, Note_on_c, 1, 64, 0
1, 3744, Note_on_c, 1, 65, 70
1, 3840, Note_on_c, 0, 82, 0
1, 3840, Note_on_c, 0, 80, 77
1, 3921, Note_on_c, 1, 65, 0
1, 3929, Note_on_c, 0, 80, 0
1, 3936, Note_on_c, 0, 80, 75
1, 3936, Note_on_c, 1, 62, 70
1, 3959, Note_on_c, 0, 80, 0
1, 3960, Note_on_c, 0, 79, 76
1, 3983, Note_on_c, 0, 79, 0
1, 3984, Note_on_c, 0, 80, 78
1, 4007, Note_on_c, 0, 80, 0
1, 4008, Note_on_c, 0, 82, 80
1, 4031, Note_on_c, 0, 82, 0
1, 4032, Note_on_c, 0, 80, 79
1, 4032, Note_on_c, 1, 62, 0
1, 4032, Note_on_c, 1, 63, 70
1, 4128, Note_on_c, 0, 80, 0
1, 4128, Note_on_c, 0, 79, 77
1, 4209, Note_on_c, 1, 63, 0
1, 4217, Note_on_c, 0, 79, 0
1, 4224, Note_on_c, 0, 75, 80
1, 4224, Note_on_c, 0, 72, 80
1, 4224, Note_on_c, 1, 54, 80
1, 4224, Note_on_c, 1, 42, 80
1, 4263, Note_on_c, 0, 75, 0
1, 4263, Note_on_c, 0, 72, 0
1, 4320, Note_on_c, 0, 74, 80
1, 4320, Note_on_c, 0, 71, 80
1, 4320, Note_on_c, 1, 54, 0
1, 4320, Note_on_c, 1, 42, 0
1, 4320, Note_on_c, 1, 55, 80
1, 4320, Note_on_c, 1, 43, 80
1, 4359, Note_on_c, 0, 74, 0
1, 4359, Note_on_c, 0, 71, 0
1, 4409, Note_on_c, 1, 55, 0
1, 4409, Note_on_c, 1, 43, 0
1, 4416, Note_on_c, 0, 60, 75
1, 4416, Note_on_c, 1, 56, 96
1, 4416, Note_on_c, 1, 44, 96
1, 4461, Note_on_c, 0, 60, 0
1, 4464, Note_on_c, 0, 62, 75
1, 4509, Note_on_c, 0, 62, 0
1, 4512, Note_on_c, 0, 63, 75
1, 4579, Note_on_c, 0, 63, 0
1, 4584, Note_on_c, 0, 66, 75
1, 4607, Note_on_c, 0, 66, 0
1, 4608, Note_on_c, 0, 66, 91
1, 4608, Note_on_c, 0, 60, 91
1, 4608, Note_on_c, 1, 56, 0
1, 4608, Note_on_c, 1, 44, 0
1, 4608, Note_on_c, 1, 55, 80
1, 4608, Note_on_c, 1, 43, 80
1, 4704, Note_on_c, 0, 66, 0
1, 4704, Note_on_c, 0, 60, 0
1, 4704, Note_on_c, 0, 67, 75
1, 4704, Note_on_c, 0, 59, 75
1, 4785, Note_on_c, 1, 55, 0
1, 4785, Note_on_c, 1, 43, 0
1, 4793, Note_on_c, 0, 67, 0
1, 4793, Note_on_c, 0, 59, 0
1, 4800, Note_on_c, 0, 70, 70
1, 4813, Note_on_c, 0, 70, 0
1, 4814, Note_on_c, 0, 72, 71
1, 4827, Note_on_c, 0, 72, 0
1, 4828, Note_on_c, 0, 70, 73
1, 4841, Note_on_c, 0, 70, 0
1, 4842, Note_on_c, 0, 72, 75
1, 4855, Note_on_c, 0, 72, 0
1, 4856, Note_on_c, 0, 70, 74
1, 4869, Note_on_c, 0, 70, 0
1, 4870, Note_on_c, 0, 68, 73
1, 4882, Note_on_c, 0, 68, 0
1, 4883, Note_on_c, 0, 70, 72
1, 4895, Note_on_c, 0, 70, 0
1, 4896, Note_on_c, 0, 75, 70
1, 4896, Note_on_c, 0, 67, 70
1, 4985, Note_on_c, 0, 75, 0
1, 4985, Note_on_c, 0, 67, 0
1, 4992, Note_on_c, 0, 70, 70
1, 4992, Note_on_c, 0, 63, 70
1, 5081, Note_on_c, 0, 70, 0
1, 5081, Note_on_c, 0, 63, 0
1, 5088, Note_on_c, 0, 70, 70
1, 5088, Note_on_c, 0, 63, 70
1, 5088, Note_on_c, 1, 51, 70
1, 5101, Note_on_c, 1, 51, 0
1, 5102, Note_on_c, 1, 53, 71
1, 5115, Note_on_c, 1, 53, 0
1, 5116, Note_on_c, 1, 51, 73
1, 5129, Note_on_c, 1, 51, 0
1, 5130, Note_on_c, 1, 53, 75
1, 5143, Note_on_c, 1, 53, 0
1, 5144, Note_on_c, 1, 51, 74
1, 5157, Note_on_c, 1, 51, 0
1, 5158, Note_on_c, 1, 50, 73
1, 5170, Note_on_c, 1, 50, 0
1, 5171, Note_on_c, 1, 51, 72
1, 5177, Note_on_c, 0, 70, 0
1, 5177, Note_on_c, 0, 63, 0
1, 5183, Note_on_c, 1, 51, 0
1, 5184, Note_on_c, 0, 77, 70
1, 5184, Note_on_c, 0, 68, 70
1, 5184, Note_on_c, 1, 50, 70
1, 5273, Note_on_c, 0, 77, 0
1, 5273, Note_on_c, 0, 68, 0
1, 5273, Note_on_c, 1, 50, 0
1, 5280, Note_on_c, 0, 70, 70
1, 5280, Note_on_c, 1, 65, 70
1, 5369, Note_on_c, 0, 70, 0
1, 5369, Note_on_c, 1, 65, 0
1, 5376, Note_on_c, 0, 77, 70
1, 5376, Note_on_c, 0, 70, 64
1, 5376, Note_on_c, 1, 65, 70
1, 5389, Note_on_c, 0, 77, 0
1, 5390, Note_on_c, 0, 79, 71
1, 5403, Note_on_c, 0, 79, 0
1, 5404, Note_on_c, 0, 77, 73
1, 5417, Note_on_c, 0, 77, 0
1, 5418, Note_on_c, 0, 79, 75
1, 5431, Note_on_c, 0, 79, 0
1, 5432, Note_on_c, 0, 77, 74
1, 5445, Note_on_c, 0, 77, 0
1, 5446, Note_on_c, 0, 75, 73
1, 5458, Note_on_c, 0, 75, 0
1, 5459, Note_on_c, 0, 77, 72
1, 5465, Note_on_c, 0, 70, 0
1, 5465, Note_on_c, 1, 65, 0
1, 5471, Note_on_c, 0, 77, 0
1, 5472, Note_on_c, 0, 79, 70
1, 5472, Note_on_c, 1, 63, 70
1, 5517, Note_on_c, 0, 79, 0
1, 5520, Note_on_c, 0, 82, 70
1, 5561, Note_on_c, 1, 63, 0
1, 5565, Note_on_c, 0, 82, 0
1, 5568, Note_on_c, 0, 80, 71
1, 5568, Note_on_c, 1, 55, 71
1, 5613, Note_on_c, 0, 80, 0
1, 5616, Note_on_c, 0, 79, 72
1, 5657, Note_on_c, 1, 55, 0
1, 5661, Note_on_c, 0, 79, 0
1, 5664, Note_on_c, 0, 77, 73
1, 5664, Note_on_c, 1, 56, 73
1, 5709, Note_on_c, 0, 77, 0
1, 5712, Note_on_c, 0, 75, 74
1, 5712, Note_on_c, 0, 67, 74
1, 5753, Note_on_c, 1, 56, 0
1, 5757, Note_on_c, 0, 75, 0
1, 5757, Note_on_c, 0, 67, 0
1, 5760, Note_on_c, 0, 75, 75
1, 5760, Note_on_c, 0, 67, 75
1, 5760, Note_on_c, 1, 58, 75
1, 5849, Note_on_c, 1, 58, 0
1, 5856, Note_on_c, 0, 75, 0
1, 5856, Note_on_c, 0, 67, 0
1, 5856, Note_on_c, 0, 74, 72
1, 5856, Note_on_c, 0, 65, 72
1, 5856, Note_on_c, 1, 56, 72
1, 5945, Note_on_c, 0, 74, 0
1, 5945, Note_on_c, 0, 65, 0
1, 5945, Note_on_c, 1, 56, 0
1, 5952, Note_on_c, 0, 73, 70
1, 5952, Note_on_c, 0, 70, 70
1, 5952, Note_on_c, 1, 55, 70
1, 5965, Note_on_c, 1, 55, 0
1, 5966, Note_on_c, 1, 56, 70
1, 5979, Note_on_c, 1, 56, 0
1, 5980, Note_on_c, 1, 55, 70
1, 5993, Note_on_c, 1, 55, 0
1, 5994, Note_on_c, 1, 56, 70
1, 6007, Note_on_c, 1, 56, 0
1, 6008, Note_on_c, 1, 55, 70
1, 6021, Note_on_c, 1, 55, 0
1, 6022, Note_on_c, 1, 53, 71
1, 6034, Note_on_c, 1, 53, 0
1, 6035, Note_on_c, 1, 55, 71
1, 6047, Note_on_c, 1, 55, 0
1, 6048, Note_on_c, 1, 56, 71
1, 6137, Note_on_c, 1, 56, 0
1, 6144, Note_on_c, 0, 73, 0
1, 6144, Note_on_c, 0, 70, 0
1, 6144, Note_on_c, 0, 72, 71
1, 6144, Note_on_c, 0, 68, 71
1, 6144, Note_on_c, 1, 44, 73
1, 6233, Note_on_c, 1, 44, 0
1, 6238, Note_on_c, 0, 72, 0
1, 6238, Note_on_c, 0, 68, 0
1, 6240, Note_on_c, 0, 75, 72
1, 6240, Note_on_c, 0, 72, 72
1, 6240, Note_on_c, 1, 57, 74
1, 6253, Note_on_c, 1, 57, 0
1, 6254, Note_on_c, 1, 58, 75
1, 6267, Note_on_c, 1, 58, 0
1, 6268, Note_on_c, 1, 57, 75
1, 6281, Note_on_c, 1, 57, 0
1, 6282, Note_on_c, 1, 58, 75
1, 6295, Note_on_c, 1, 58, 0
1, 6296, Note_on_c, 1, 57, 75
1, 6309, Note_on_c, 1, 57, 0
1, 6310, Note_on_c, 1, 55, 75
1, 6322, Note_on_c, 1, 55, 0
1, 6323, Note_on_c, 1, 57, 76
1, 6335, Note_on_c, 1, 57, 0
1, 6336, Note_on_c, 1, 58, 76
1, 6425, Note_on_c, 1, 58, 0
1, 6432, Note_on_c, 0, 75, 0
1, 6432, Note_on_c, 0, 72, 0
1, 6432, Note_on_c, 0, 74, 74
1, 6432, Note_on_c, 0, 70, 74
1, 6432, Note_on_c, 1, 46, 77
1, 6521, Note_on_c, 1, 46, 0
1, 6526, Note_on_c, 0, 74, 0
1, 6526, Note_on_c, 0, 70, 0
1, 6528, Note_on_c, 0, 63, 74
1, 6528, Note_on_c, 0, 58, 64
1, 6528, Note_on_c, 1, 53, 80
1, 6541, Note_on_c, 0, 63, 0
1, 6542, Note_on_c, 0, 65, 75
1, 6543, Note_on_c, 1, 53, 0
1, 6544, Note_on_c, 1, 51, 80
1, 6555, Note_on_c, 0, 65, 0
1, 6556, Note_on_c, 0, 63, 75
1, 6559, Note_on_c, 1, 51, 0
1, 6560, Note_on_c, 1, 53, 80
1, 6569, Note_on_c, 0, 63, 0
1, 6570, Note_on_c, 0, 65, 75
1, 6575, Note_on_c, 1, 53, 0
1, 6576, Note_on_c, 1, 51, 80
1, 6583, Note_on_c, 0, 65, 0
1, 6584, Note_on_c, 0, 63, 75
1, 6591, Note_on_c, 1, 51, 0
1, 6592, Note_on_c, 1, 50, 80
1, 6597, Note_on_c, 0, 63, 0
1, 6598, Note_on_c, 0, 62, 75
1, 6607, Note_on_c, 1, 50, 0
1, 6608, Note_on_c, 1, 51, 80
1, 6610, Note_on_c, 0, 62, 0
1, 6611, Note_on_c, 0, 63, 75
1, 6617, Note_on_c, 0, 58, 0
1, 6623, Note_on_c, 0, 63, 0
1, 6623, Note_on_c, 1, 51, 0
1, 6624, Note_on_c, 0, 65, 75
1, 6624, Note_on_c, 0, 60, 75
1, 6624, Note_on_c, 0, 56, 75
1, 6624, Note_on_c, 1, 44, 80
1, 6713, Note_on_c, 1, 44, 0
1, 6720, Note_on_c, 0, 65, 0
1, 6720, Note_on_c, 0, 60, 0
1, 6720, Note_on_c, 0, 56, 0
1, 6720, Note_on_c, 0, 68, 75
1, 6809, Note_on_c, 0, 68, 0
1, 6816, Note_on_c, 0, 62, 75
1, 6816, Note_on_c, 0, 56, 75
1, 6816, Note_on_c, 1, 46, 80
1, 6855, Note_on_c, 0, 62, 0
1, 6855, Note_on_c, 0, 56, 0
1, 6855, Note_on_c, 1, 46, 0
1, 6912, Note_on_c, 0, 63, 75
1, 6912, Note_on_c, 0, 55, 75
1, 6912, Note_on_c, 1, 51, 80
1, 7001, Note_on_c, 1, 51, 0
1, 7008, Note_on_c, 1, 39, 80
1, 7089, Note_on_c, 0, 63, 0
1, 7089, Note_on_c, 0, 55, 0
1, 7097, Note_on_c, 1, 39, 0
1, 7104, Note_on_c, 0, 84, 75
1, 7104, Note_on_c, 0, 79, 75
1, 7104, Note_on_c, 0, 75, 75
1, 7143, Note_on_c, 0, 84, 0
1, 7143, Note_on_c, 0, 79, 0
1, 7143, Note_on_c, 0, 75, 0
1, 7200, Note_on_c, 0, 83, 75
1, 7200, Note_on_c, 0, 77, 75
1, 7200, Note_on_c, 0, 74, 75
1, 7239, Note_on_c, 0, 83, 0
1, 7239, Note_on_c, 0, 77, 0
1, 7239, Note_on_c, 0, 74, 0
1, 7296, Note_on_c, 0, 84, 75
1, 7296, Note_on_c, 0, 79, 75
1, 7296, Note_on_c, 0, 75, 75
1, 7335, Note_on_c, 0, 84, 0
1, 7335, Note_on_c, 0, 79, 0
1, 7335, Note_on_c, 0, 75, 0
1, 7392, Note_on_c, 0, 61, 91
1, 7392, Note_on_c, 1, 56, 80
1, 7392, Note_on_c, 1, 53, 80
1, 7488, Note_on_c, 1, 56, 0
1, 7488, Note_on_c, 1, 53, 0
1, 7488, Note_on_c, 1, 55, 80
1, 7488, Note_on_c, 1, 52, 80
1, 7577, Note_on_c, 0, 61, 0
1, 7577, Note_on_c, 1, 55, 0
1, 7577, Note_on_c, 1, 52, 0
1, 7584, Note_on_c, 0, 60, 75
1, 7673, Note_on_c, 0, 60, 0
1, 7680, Note_on_c, 0, 52, 80
1, 7680, Note_on_c, 1, 41, 80
1, 7693, Note_on_c, 0, 52, 0
1, 7694, Note_on_c, 0, 53, 80
1, 7695, Note_on_c, 1, 41, 0
1, 7696, Note_on_c, 1, 40, 80
1, 7707, Note_on_c, 0, 53, 0
1, 7708, Note_on_c, 0, 52, 80
1, 7711, Note_on_c, 1, 40, 0
1, 7712, Note_on_c, 1, 41, 80
1, 7721, Note_on_c, 0, 52, 0
1, 7722, Note_on_c, 0, 53, 80
1, 7727, Note_on_c, 1, 41, 0
1, 7728, Note_on_c, 1, 40, 80
1, 7735, Note_on_c, 0, 53, 0
1, 7736, Note_on_c, 0, 52, 80
1, 7743, Note_on_c, 1, 40, 0
1, 7744, Note_on_c, 1, 38, 80
1, 7749, Note_on_c, 0, 52, 0
1, 7750, Note_on_c, 0, 50, 80
1, 7759, Note_on_c, 1, 38, 0
1, 7760, Note_on_c, 1, 40, 80
1, 7762, Note_on_c, 0, 50, 0
1, 7763, Note_on_c, 0, 52, 80
1, 7775, Note_on_c, 0, 52, 0
1, 7775, Note_on_c, 1, 40, 0
1, 7776, Note_on_c, 0, 53, 80
1, 7776, Note_on_c, 1, 41, 80
1, 7815, Note_on_c, 0, 53, 0
1, 7815, Note_on_c, 1, 41, 0
1, 7872, Note_on_c, 0, 61, 80
1, 7872, Note_on_c, 1, 49, 80
1, 7911, Note_on_c, 0, 61, 0
1, 7911, Note_on_c, 1, 49, 0
1, 7968, Note_on_c, 0, 54, 80
1, 7968, Note_on_c, 1, 43, 80
1, 7981, Note_on_c, 0, 54, 0
1, 7982, Note_on_c, 0, 55, 80
1, 7983, Note_on_c, 1, 43, 0
1, 7984, Note_on_c, 1, 42, 80
1, 7995, Note_on_c, 0, 55, 0
1, 7996, Note_on_c, 0, 54, 80
1, 7999, Note_on_c, 1, 42, 0
1, 8000, Note_on_c, 1, 43, 80
1, 8009, Note_on_c, 0, 54, 0
1, 8010, Note_on_c, 0, 55, 80
1, 8015, Note_on_c, 1, 43, 0
1, 8016, Note_on_c, 1, 42, 80
1, 8023, Note_on_c, 0, 55, 0
1, 8024, Note_on_c, 0, 54, 80
1, 8031, Note_on_c, 1, 42, 0
1, 8032, Note_on_c, 1, 39, 80
1, 8037, Note_on_c, 0, 54, 0
1, 8038, Note_on_c, 0, 52, 80
1, 8047, Note_on_c, 1, 39, 0
1, 8048, Note_on_c, 1, 41, 80
1, 8050, Note_on_c, 0, 52, 0
1, 8051, Note_on_c, 0, 54, 80
1, 8063, Note_on_c, 0, 54, 0
1, 8063, Note_on_c, 1, 41, 0
1, 8064, Note_on_c, 0, 55, 80
1, 8064, Note_on_c, 1, 43, 80
1, 8103, Note_on_c, 0, 55, 0
1, 8103, Note_on_c, 1, 43, 0
1, 8160, Note_on_c, 0, 63, 80
1, 8160, Note_on_c, 1, 51, 80
1, 8199, Note_on_c, 0, 63, 0
1, 8199, Note_on_c, 1, 51, 0
1, 8256, Note_on_c, 0, 59, 80
1, 8256, Note_on_c, 1, 48, 80
1, 8269, Note_on_c, 0, 59, 0
1, 8270, Note_on_c, 0, 60, 80
1, 8271, Note_on_c, 1, 48, 0
1, 8272, Note_on_c, 1, 47, 80
1, 8283, Note_on_c, 0, 60, 0
1, 8284, Note_on_c, 0, 59, 80
1, 8287, Note_on_c, 1, 47, 0
1, 8288, Note_on_c, 1, 48, 80
1, 8297, Note_on_c, 0, 59, 0
1, 8298, Note_on_c, 0, 60, 80
1, 8303, Note_on_c, 1, 48, 0
1, 8304, Note_on_c, 1, 47, 80
1, 8311, Note_on_c, 0, 60, 0
1, 8312, Note_on_c, 0, 59, 80
1, 8319, Note_on_c, 1, 47, 0
1, 8320, Note_on_c, 1, 45, 80
1, 8325, Note_on_c, 0, 59, 0
1, 8326, Note_on_c, 0, 57, 80
1, 8335, Note_on_c, 1, 45, 0
1, 8336, Note_on_c, 1, 47, 80
1, 8338, Note_on_c, 0, 57, 0
1, 8339, Note_on_c, 0, 59, 80
1, 8351, Note_on_c, 0, 59, 0
1, 8351, Note_on_c, 1, 47, 0
1, 8352, Note_on_c, 0, 60, 80
1, 8352, Note_on_c, 1, 48, 80
1, 8391, Note_on_c, 0, 60, 0
1, 8391, Note_on_c, 1, 48, 0
1, 8448, Note_on_c, 0, 80, 96
1, 8448, Note_on_c, 0, 77, 96
1, 8592, Note_on_c, 0, 80, 0
1, 8592, Note_on_c, 0, 77, 0
1, 8688, Note_on_c, 0, 80, 70
1, 8733, Note_on_c, 0, 80, 0
1, 8736, Note_on_c, 0, 79, 70
1, 8781, Note_on_c, 0, 79, 0
1, 8784, Note_on_c, 0, 78, 71
1, 8829, Note_on_c, 0, 78, 0
1, 8832, Note_on_c, 0, 77, 72
1, 8832, Note_on_c, 1, 59, 70
1, 8877, Note_on_c, 0, 77, 0
1, 8880, Note_on_c, 0, 76, 73
1, 8925, Note_on_c, 0, 76, 0
1, 8928, Note_on_c, 0, 75, 73
1, 8928, Note_on_c, 1, 59, 0
1, 8928, Note_on_c, 1, 60, 70
1, 8995, Note_on_c, 0, 75, 0
1, 8995, Note_on_c, 1, 60, 0
1, 9000, Note_on_c, 0, 73, 75
1, 9000, Note_on_c, 1, 53, 70
1, 9023, Note_on_c, 0, 73, 0
1, 9023, Note_on_c, 1, 53, 0
1, 9024, Note_on_c, 0, 72, 75
1, 9024, Note_on_c, 1, 52, 70
1, 9069, Note_on_c, 1, 52, 0
1, 9072, Note_on_c, 1, 53, 70
1, 9113, Note_on_c, 0, 72, 0
1, 9117, Note_on_c, 1, 53, 0
1, 9120, Note_on_c, 0, 71, 75
1, 9120, Note_on_c, 1, 54, 70
1, 9165, Note_on_c, 1, 54, 0
1, 9168, Note_on_c, 1, 55, 70
1, 9209, Note_on_c, 0, 71, 0
1, 9213, Note_on_c, 1, 55, 0
1, 9216, Note_on_c, 0, 72, 75
1, 9216, Note_on_c, 1, 56, 70
1, 9255, Note_on_c, 0, 72, 0
1, 9255, Note_on_c, 1, 56, 0
1, 9312, Note_on_c, 0, 63, 75
1, 9312, Note_on_c, 0, 60, 64
1, 9312, Note_on_c, 1, 55, 70
1, 9401, Note_on_c, 0, 63, 0
1, 9401, Note_on_c, 0, 60, 0
1, 9401, Note_on_c, 1, 55, 0
1, 9408, Note_on_c, 0, 62, 75
1, 9408, Note_on_c, 0, 59, 64
1, 9408, Note_on_c, 1, 43, 70
1, 9420, Note_on_c, 0, 62, 0
1, 9420, Note_on_c, 0, 63, 75
1, 9432, Note_on_c, 0, 63, 0
1, 9432, Note_on_c, 0, 62, 75
1, 9497, Note_on_c, 0, 62, 0
1, 9497, Note_on_c, 0, 59, 0
1, 9497, Note_on_c, 1, 43, 0
1, 9504, Note_on_c, 0, 60, 75
1, 9504, Note_on_c, 0, 60, 64
1, 9504, Note_on_c, 1, 48, 70
1, 9593, Note_on_c, 1, 48, 0
1, 9600, Note_on_c, 1, 36, 70
1, 9681, Note_on_c, 0, 60, 0
1, 9681, Note_on_c, 0, 60, 0
1, 9689, Note_on_c, 1, 36, 0
1, 9696, Note_on_c, 0, 70, 70
1, 9709, Note_on_c, 0, 70, 0
1, 9710, Note_on_c, 0, 72, 71
1, 9723, Note_on_c, 0, 72, 0
1, 9724, Note_on_c, 0, 70, 73
1, 9737, Note_on_c, 0, 70, 0
1, 9738, Note_on_c, 0, 72, 75
1, 9751, Note_on_c, 0, 72, 0
1, 9752, Note_on_c, 0, 70, 74
1, 9765, Note_on_c, 0, 70, 0
1, 9766, Note_on_c, 0, 68, 73
1, 9778, Note_on_c, 0, 68, 0
1, 9779, Note_on_c, 0, 70, 72
1, 9791, Note_on_c, 0, 70, 0
1, 9792, Note_on_c, 0, 75, 70
1, 9792, Note_on_c, 0, 67, 70
1, 9881, Note_on_c, 0, 75, 0
1, 9881, Note_on_c, 0, 67, 0
1, 9888, Note_on_c, 0, 70, 70
1, 9888, Note_on_c, 0, 63, 70
1, 9977, Note_on_c, 0, 70, 0
1, 9977, Note_on_c, 0, 63, 0
1, 9984, Note_on_c, 0, 70, 70
1, 9984, Note_on_c, 0, 63, 70
1, 9984, Note_on_c, 1, 51, 70
1, 9997, Note_on_c, 1, 51, 0
1, 9998, Note_on_c, 1, 53, 71
1, 10011, Note_on_c, 1, 53, 0
1, 10012, Note_on_c, 1, 51, 73
1, 10025, Note_on_c, 1, 51, 0
1, 10026, Note_on_c, 1, 53, 75
1, 10039, Note_on_c, 1, 53, 0
1, 10040, Note_on_c, 1, 51, 74
1, 10053, Note_on_c, 1, 51, 0
1, 10054, Note_on_c, 1, 50, 73
1, 10066, Note_on_c, 1, 50, 0
1, 10067, Note_on_c, 1, 51, 72
1, 10073, Note_on_c, 0, 70, 0
1, 10073, Note_on_c, 0, 63, 0
1, 10079, Note_on_c, 1, 51, 0
1, 10080, Note_on_c, 0, 77, 70
1, 10080, Note_on_c, 0, 68, 70
1, 10080, Note_on_c, 1, 50, 70
1, 10169, Note_on_c, 0, 77, 0
1, 10169, Note_on_c, 0, 68, 0
1, 10169, Note_on_c, 1, 50, 0
1, 10176, Note_on_c, 0, 70, 70
1, 10176, Note_on_c, 1, 65, 70
1, 10265, Note_on_c, 0, 70, 0
1, 10265, Note_on_c, 1, 65, 0
1, 10272, Note_on_c, 0, 77, 70
1, 10272, Note_on_c, 0, 70, 64
1, 10272, Note_on_c, 1, 65, 70
1, 10285, Note_on_c, 0, 77, 0
1, 10286, Note_on_c, 0, 79, 71
1, 10299, Note_on_c, 0, 79, 0
1, 10300, Note_on_c, 0, 77, 73
1, 10313, Note_on_c, 0, 77, 0
1, 10314, Note_on_c, 0, 79, 75
1, 10327, Note_on_c, 0, 79, 0
1, 10328, Note_on_c, 0, 77, 74
1, 10341, Note_on_c, 0, 77, 0
1, 10342, Note_on_c, 0, 75, 73
1, 10354, Note_on_c, 0, 75, 0
1, 10355, Note_on_c, 0, 77, 72
1, 10361, Note_on_c, 0, 70, 0
1, 10361, Note_on_c, 1, 65, 0
1, 10367, Note_on_c, 0, 77, 0
1, 10368, Note_on_c, 0, 79, 70
1, 10368, Note_on_c, 1, 63, 70
1, 10413, Note_on_c, 0, 79, 0
1, 10416, Note_on_c, 0, 82, 70
1, 10457, Note_on_c, 1, 63, 0
1, 10461, Note_on_c, 0, 82, 0
1, 10464, Note_on_c, 0, 80, 71
1, 10464, Note_on_c, 1, 55, 71
1, 10509, Note_on_c, 0, 80, 0
1, 10512, Note_on_c, 0, 79, 72
1, 10553, Note_on_c, 1, 55, 0
1, 10557, Note_on_c, 0, 79, 0
1, 10560, Note_on_c, 0, 77, 73
1, 10560, Note_on_c, 1, 56, 73
1, 10605, Note_on_c, 0, 77, 0
1, 10608, Note_on_c, 0, 75, 74
1, 10608, Note_on_c, 0, 67, 74
1, 10649, Note_on_c, 1, 56, 0
1, 10653, Note_on_c, 0, 75, 0
1, 10653, Note_on_c, 0, 67, 0
1, 10656, Note_on_c, 0, 75, 75
1, 10656, Note_on_c, 0, 67, 75
1, 10656, Note_on_c, 1, 58, 75
1, 10745, Note_on_c, 1, 58, 0
1, 10752, Note_on_c, 0, 75, 0
1, 10752, Note_on_c, 0, 67, 0
1, 10752, Note_on_c, 0, 74, 72
1, 10752, Note_on_c, 0, 65, 72
1, 10752, Note_on_c, 1, 56, 72
1, 10841, Note_on_c, 0, 74, 0
1, 10841, Note_on_c, 0, 65, 0
1, 10841, Note_on_c, 1, 56, 0
1, 10848, Note_on_c, 0, 73, 70
1, 10848, Note_on_c, 0, 70, 70
1, 10848, Note_on_c, 1, 55, 70
1, 10861, Note_on_c, 1, 55, 0
1, 10862, Note_on_c, 1, 56, 70
1, 10875, Note_on_c, 1, 56, 0
1, 10876, Note_on_c, 1, 55, 70
1, 10889, Note_on_c, 1, 55, 0
1, 10890, Note_on_c, 1, 56, 70
1, 10903, Note_on_c, 1, 56, 0
1, 10904, Note_on_c, 1, 55, 70
1, 10917, Note_on_c, 1, 55, 0
1, 10918, Note_on_c, 1, 53, 71
1, 10930, Note_on_c, 1, 53, 0
1, 10931, Note_on_c, 1, 55, 71
1, 10943, Note_on_c, 1, 55, 0
1, 10944, Note_on_c, 1, 56, 71
1, 11033, Note_on_c, 1, 56, 0
1, 11040, Note_on_c, 0, 73, 0
1, 11040, Note_on_c, 0, 70, 0
1, 11040, Note_on_c, 0, 72, 71
1, 11040, Note_on_c, 0, 68, 71
1, 11040, Note_on_c, 1, 44, 73
1, 11129, Note_on_c, 1, 44, 0
1, 11134, Note_on_c, 0, 72, 0
1, 11134, Note_on_c, 0, 68, 0
1, 11136, Note_on_c, 0, 75, 72
1, 11136, Note_on_c, 0, 72, 72
1, 11136, Note_on_c, 1, 57, 74
1, 11149, Note_on_c, 1, 57, 0
1, 11150, Note_on_c, 1, 58, 75
1, 11163, Note_on_c, 1, 58, 0
1, 11164, Note_on_c, 1, 57, 75
1, 11177, Note_on_c, 1, 57, 0
1, 11178, Note_on_c, 1, 58, 75
1, 11191, Note_on_c, 1, 58, 0
1, 11192, Note_on_c, 1, 57, 75
1, 11205, Note_on_c, 1, 57, 0
1, 11206, Note_on_c, 1, 55, 75
1, 11218, Note_on_c, 1, 55, 0
1, 11219, Note_on_c, 1, 57, 76
1, 11231, Note_on_c, 1, 57, 0
1, 11232, Note_on_c, 1, 58, 76
1, 11321, Note_on_c, 1, 58, 0
1, 11328, Note_on_c, 0, 75, 0
1, 11328, Note_on_c, 0, 72, 0
1, 11328, Note_on_c, 0, 74, 74
1, 11328, Note_on_c, 0, 70, 74
1, 11328, Note_on_c, 1, 46, 77
1, 11417, Note_on_c, 1, 46, 0
1, 11422, Note_on_c, 0, 74, 0
1, 11422, Note_on_c, 0, 70, 0
1, 11424, Note_on_c, 0, 63, 74
1, 11424, Note_on_c, 0, 58, 64
1, 11424, Note_on_c, 1, 53, 80
1, 11437, Note_on_c, 0, 63, 0
1, 11438, Note_on_c, 0, 65, 75
1, 11439, Note_on_c, 1, 53, 0
1, 11440, Note_on_c, 1, 51, 80
1, 11451, Note_on_c, 0, 65, 0
1, 11452, Note_on_c, 0, 63, 75
1, 11455, Note_on_c, 1, 51, 0
1, 11456, Note_on_c, 1, 53, 80
1, 11465, Note_on_c, 0, 63, 0
1, 11466, Note_on_c, 0, 65, 75
1, 11471, Note_on_c, 1, 53, 0
1, 11472, Note_on_c, 1, 51, 80
1, 11479, Note_on_c, 0, 65, 0
1, 11480, Note_on_c, 0, 63, 75
1, 11487, Note_on_c, 1, 51, 0
1, 11488, Note_on_c, 1, 50, 80
1, 11493, Note_on_c, 0, 63, 0
1, 11494, Note_on_c, 0, 62, 75
1, 11503, Note_on_c, 1, 50, 0
1, 11504, Note_on_c, 1, 51, 80
1, 11506, Note_on_c, 0, 62, 0
1, 11507, Note_on_c, 0, 63, 75
1, 11513, Note_on_c, 0, 58, 0
1, 11519, Note_on_c, 0, 63, 0
1, 11519, Note_on_c, 1, 51, 0
1, 11520, Note_on_c, 0, 65, 75
1, 11520, Note_on_c, 0, 60, 75
1, 11520, Note_on_c, 0, 56, 75
1, 11520, Note_on_c, 1, 44, 80
1, 11609, Note_on_c, 1, 44, 0
1, 11616, Note_on_c, 0, 65, 0
1, 11616, Note_on_c, 0, 60, 0
1, 11616, Note_on_c, 0, 56, 0
1, 11616, Note_on_c, 0, 68, 75
1, 11705, Note_on_c, 0, 68, 0
1, 11712, Note_on_c, 0, 62, 75
1, 11712, Note_on_c, 0, 56, 75
1, 11712, Note_on_c, 1, 46, 80
1, 11751, Note_on_c, 0, 62, 0
1, 11751, Note_on_c, 0, 56, 0
1, 11751, Note_on_c, 1, 46, 0
1, 11808, Note_on_c, 0, 63, 75
1, 11808, Note_on_c, 0, 55, 75
1, 11808, Note_on_c, 1, 51, 80
1, 11897, Note_on_c, 1, 51, 0
1, 11904, Note_on_c, 1, 39, 80
1, 11985, Note_on_c, 0, 63, 0
1, 11985, Note_on_c, 0, 55, 0
1, 11993, Note_on_c, 1, 39, 0
1, 12000, Note_on_c, 0, 84, 75
1, 12000, Note_on_c, 0, 79, 75
1, 12000, Note_on_c, 0, 75, 75
1, 12039, Note_on_c, 0, 84, 0
1, 12039, Note_on_c, 0, 79, 0
1, 12039, Note_on_c, 0, 75, 0
1, 12096, Note_on_c, 0, 83, 75
1, 12096, Note_on_c, 0, 77, 75
1, 12096, Note_on_c, 0, 74, 75
1, 12135, Note_on_c, 0, 83, 0
1, 12135, Note_on_c, 0, 77, 0
1, 12135, Note_on_c, 0, 74, 0
1, 12192, Note_on_c, 0, 84, 75
1, 12192, Note_on_c, 0, 79, 75
1, 12192, Note_on_c, 0, 75, 75
1, 12231, Note_on_c, 0, 84, 0
1, 12231, Note_on_c, 0, 79, 0
1, 12231, Note_on_c, 0, 75, 0
1, 12288, Note_on_c, 0, 61, 91
1, 12288, Note_on_c, 1, 56, 80
1, 12288, Note_on_c, 1, 53, 80
1, 12384, Note_on_c, 1, 56, 0
1, 12384, Note_on_c, 1, 53, 0
1, 12384, Note_on_c, 1, 55, 80
1, 12384, Note_on_c, 1, 52, 80
1, 12473, Note_on_c, 0, 61, 0
1, 12473, Note_on_c, 1, 55, 0
1, 12473, Note_on_c, 1, 52, 0
1, 12480, Note_on_c, 0, 60, 75
1, 12569, Note_on_c, 0, 60, 0
1, 12576, Note_on_c, 0, 52, 80
1, 12576, Note_on_c, 1, 41, 80
1, 12589, Note_on_c, 0, 52, 0
1, 12590, Note_on_c, 0, 53, 80
1, 12591, Note_on_c, 1, 41, 0
1, 12592, Note_on_c, 1, 40, 80
1, 12603, Note_on_c, 0, 53, 0
1, 12604, Note_on_c, 0, 52, 80
1, 12607, Note_on_c, 1, 40, 0
1, 12608, Note_on_c, 1, 41, 80
1, 12617, Note_on_c, 0, 52, 0
1, 12618, Note_on_c, 0, 53, 80
1, 12623, Note_on_c, 1, 41, 0
1, 12624, Note_on_c, 1, 40, 80
1, 12631, Note_on_c, 0, 53, 0
1, 12632, Note_on_c, 0, 52, 80
1, 12639, Note_on_c, 1, 40, 0
1, 12640, Note_on_c, 1, 38, 80
1, 12645, Note_on_c, 0, 52, 0
1, 12646, Note_on_c, 0, 50, 80
1, 12655, Note_on_c, 1, 38, 0
1, 12656, Note_on_c, 1, 40, 80
1, 12658, Note_on_c, 0, 50, 0
1, 12659, Note_on_c, 0, 52, 80
1, 12671, Note_on_c, 0, 52, 0
1, 12671, Note_on_c, 1, 40, 0
1, 12672, Note_on_c, 0, 53, 80
1, 12672, Note_on_c, 1, 41, 80
1, 12711, Note_on_c, 0, 53, 0
1, 12711, Note_on_c, 1, 41, 0
1, 12768, Note_on_c, 0, 61, 80
1, 12768, Note_on_c, 1, 49, 80
1, 12807, Note_on_c, 0, 61, 0
1, 12807, Note_on_c, 1, 49, 0
1, 12864, Note_on_c, 0, 54, 80
1, 12864, Note_on_c, 1, 43, 80
1, 12877, Note_on_c, 0, 54, 0
1, 12878, Note_on_c, 0, 55, 80
1, 12879, Note_on_c, 1, 43, 0
1, 12880, Note_on_c, 1, 42, 80
1, 12891, Note_on_c, 0, 55, 0
1, 12892, Note_on_c, 0, 54, 80
1, 12895, Note_on_c, 1, 42, 0
1, 12896, Note_on_c, 1, 43, 80
1, 12905, Note_on_c, 0, 54, 0
1, 12906, Note_on_c, 0, 55, 80
1, 12911, Note_on_c, 1, 43, 0
1, 12912, Note_on_c, 1, 42, 80
1, 12919, Note_on_c, 0, 55, 0
1, 12920, Note_on_c, 0, 54, 80
1, 12927, Note_on_c, 1, 42, 0
1, 12928, Note_on_c, 1, 39, 80
1, 12933, Note_on_c, 0, 54, 0
1, 12934, Note_on_c, 0, 52, 80
1, 12943, Note_on_c, 1, 39, 0
1, 12944, Note_on_c, 1, 41, 80
1, 12946, Note_on_c, 0, 52, 0
1, 12947, Note_on_c, 0, 54, 80
1, 12959, Note_on_c, 0, 54, 0
1, 12959, Note_on_c, 1, 41, 0
1, 12960, Note_on_c, 0, 55, 80
1, 12960, Note_on_c, 1, 43, 80
1, 12999, Note_on_c, 0, 55, 0
1, 12999, Note_on_c, 1, 43, 0
1, 13056, Note_on_c, 0, 63, 80
1, 13056, Note_on_c, 1, 51, 80
1, 13095, Note_on_c, 0, 63, 0
1, 13095, Note_on_c, 1, 51, 0
1, 13152, Note_on_c, 0, 59, 80
1, 13152, Note_on_c, 1, 48, 80
1, 13165, Note_on_c, 0, 59, 0
1, 13166, Note_on_c, 0, 60, 80
1, 13167, Note_on_c, 1, 48, 0
1, 13168, Note_on_c, 1, 47, 80
1, 13179, Note_on_c, 0, 60, 0
1, 13180, Note_on_c, 0, 59, 80
1, 13183, Note_on_c, 1, 47, 0
1, 13184, Note_on_c, 1, 48, 80
1, 13193, Note_on_c, 0, 59, 0
1, 13194, Note_on_c, 0, 60, 80
1, 13199, Note_on_c, 1, 48, 0
1, 13200, Note_on_c, 1, 47, 80
1, 13207, Note_on_c, 0, 60, 0
1, 13208, Note_on_c, 0, 59, 80
1, 13215, Note_on_c, 1, 47, 0
1, 13216, Note_on_c, 1, 45, 80
1, 13221, Note_on_c, 0, 59, 0
1, 13222, Note_on_c, 0, 57, 80
1, 13231, Note_on_c, 1, 45, 0
1, 13232, Note_on_c, 1, 47, 80
1, 13234, Note_on_c, 0, 57, 0
1, 13235, Note_on_c, 0, 59, 80
1, 13247, Note_on_c, 0, 59, 0
1, 13247, Note_on_c, 1, 47, 0
1, 13248, Note_on_c, 0, 60, 80
1, 13248, Note_on_c, 1, 48, 80
1, 13287, Note_on_c, 0, 60, 0
1, 13287, Note_on_c, 1, 48, 0
1, 13344, Note_on_c, 0, 80, 96
1, 13344, Note_on_c, 0, 77, 96
1, 13488, Note_on_c, 0, 80, 0
1, 13488, Note_on_c, 0, 77, 0
1, 13584, Note_on_c, 0, 80, 70
1, 13629, Note_on_c, 0, 80, 0
1, 13632, Note_on_c, 0, 79, 70
1, 13677, Note_on_c, 0, 79, 0
1, 13680, Note_on_c, 0, 78, 71
1, 13725, Note_on_c, 0, 78, 0
1, 13728, Note_on_c, 0, 77, 72
1, 13728, Note_on_c, 1, 59, 70
1, 13773, Note_on_c, 0, 77, 0
1, 13776, Note_on_c, 0, 76, 73
1, 13821, Note_on_c, 0, 76, 0
1, 13824, Note_on_c, 0, 75, 73
1, 13824, Note_on_c, 1, 59, 0
1, 13824, Note_on_c, 1, 60, 70
1, 13891, Note_on_c, 0, 75, 0
1, 13891, Note_on_c, 1, 60, 0
1, 13896, Note_on_c, 0, 73, 75
1, 13896, Note_on_c, 1, 53, 70
1, 13919, Note_on_c, 0, 73, 0
1, 13919, Note_on_c, 1, 53, 0
1, 13920, Note_on_c, 0, 72, 75
1, 13920, Note_on_c, 1, 52, 70
1, 13965, Note_on_c, 1, 52, 0
1, 13968, Note_on_c, 1, 53, 70
1, 14009, Note_on_c, 0, 72, 0
1, 14013, Note_on_c, 1, 53, 0
1, 14016, Note_on_c, 0, 71, 75
1, 14016, Note_on_c, 1, 54, 70
1, 14061, Note_on_c, 1, 54, 0
1, 14064, Note_on_c, 1, 55, 70
1, 14105, Note_on_c, 0, 71, 0
1, 14109, Note_on_c, 1, 55, 0
1, 14112, Note_on_c, 0, 72, 75
1, 14112, Note_on_c, 1, 56, 70
1, 14151, Note_on_c, 0, 72, 0
1, 14151, Note_on_c, 1, 56, 0
1, 14208, Note_on_c, 0, 63, 75
1, 14208, Note_on_c, 0, 60, 64
1, 14208, Note_on_c, 1, 55, 70
1, 14297, Note_on_c, 0, 63, 0
1, 14297, Note_on_c, 0, 60, 0
1, 14297, Note_on_c, 1, 55, 0
1, 14304, Note_on_c, 0, 62, 75
1, 14304, Note_on_c, 0, 59, 64
1, 14304, Note_on_c, 1, 43, 70
1, 14316, Note_on_c, 0, 62, 0
1, 14316, Note_on_c, 0, 63, 75
1, 14328, Note_on_c, 0, 63, 0
1, 14328, Note_on_c, 0, 62, 75
1, 14393, Note_on_c, 0, 62, 0
1, 14393, Note_on_c, 0, 59, 0
1, 14393, Note_on_c, 1, 43, 0
1, 14400, Note_on_c, 0, 60, 75
1, 14400, Note_on_c, 0, 60, 64
1, 14400, Note_on_c, 1, 48, 70
1, 14489, Note_on_c, 1, 48, 0
1, 14496, Note_on_c, 1, 36, 70
1, 14577, Note_on_c, 0, 60, 0
1, 14577, Note_on_c, 0, 60, 0
1, 14585, Note_on_c, 1, 36, 0
1, 14592, Note_on_c, 0, 76, 75
1, 14637, Note_on_c, 0, 76, 0
1, 14640, Note_on_c, 0, 77, 75
1, 14685, Note_on_c, 0, 77, 0
1, 14688, Note_on_c, 0, 79, 75
1, 14688, Note_on_c, 1, 76, 70
1, 14688, Note_on_c, 1, 72, 70
1, 14711, Note_on_c, 0, 79, 0
1, 14712, Note_on_c, 0, 84, 75
1, 14727, Note_on_c, 1, 76, 0
1, 14727, Note_on_c, 1, 72, 0
1, 14735, Note_on_c, 0, 84, 0
1, 14736, Note_on_c, 0, 83, 75
1, 14759, Note_on_c, 0, 83, 0
1, 14760, Note_on_c, 0, 84, 75
1, 14783, Note_on_c, 0, 84, 0
1, 14784, Note_on_c, 0, 88, 75
1, 14807, Note_on_c, 0, 88, 0
1, 14808, Note_on_c, 0, 84, 75
1, 14831, Note_on_c, 0, 84, 0
1, 14832, Note_on_c, 0, 83, 75
1, 14855, Note_on_c, 0, 83, 0
1, 14856, Note_on_c, 0, 84, 75
1, 14879, Note_on_c, 0, 84, 0
1, 14880, Note_on_c, 0, 79, 75
1, 14880, Note_on_c, 1, 76, 70
1, 14880, Note_on_c, 1, 72, 70
1, 14892, Note_on_c, 0, 79, 0
1, 14892, Note_on_c, 0, 81, 75
1, 14904, Note_on_c, 0, 81, 0
1, 14904, Note_on_c, 0, 79, 75
1, 14969, Note_on_c, 0, 79, 0
1, 14976, Note_on_c, 0, 77, 75
1, 14976, Note_on_c, 1, 76, 0
1, 14976, Note_on_c, 1, 72, 0
1, 14976, Note_on_c, 1, 74, 70
1, 14976, Note_on_c, 1, 71, 70
1, 14999, Note_on_c, 0, 77, 0
1, 15000, Note_on_c, 0, 83, 75
1, 15015, Note_on_c, 1, 74, 0
1, 15015, Note_on_c, 1, 71, 0
1, 15023, Note_on_c, 0, 83, 0
1, 15024, Note_on_c, 0, 81, 75
1, 15047, Note_on_c, 0, 81, 0
1, 15048, Note_on_c, 0, 83, 75
1, 15071, Note_on_c, 0, 83, 0
1, 15072, Note_on_c, 0, 86, 75
1, 15095, Note_on_c, 0, 86, 0
1, 15096, Note_on_c, 0, 83, 75
1, 15119, Note_on_c, 0, 83, 0
1, 15120, Note_on_c, 0, 81, 75
1, 15143, Note_on_c, 0, 81, 0
1, 15144, Note_on_c, 0, 83, 75
1, 15167, Note_on_c, 0, 83, 0
1, 15168, Note_on_c, 0, 77, 75
1, 15168, Note_on_c, 1, 74, 70
1, 15168, Note_on_c, 1, 71, 70
1, 15180, Note_on_c, 0, 77, 0
1, 15180, Note_on_c, 0, 79, 75
1, 15192, Note_on_c, 0, 79, 0
1, 15192, Note_on_c, 0, 77, 75
1, 15257, Note_on_c, 0, 77, 0
1, 15264, Note_on_c, 0, 76, 75
1, 15264, Note_on_c, 1, 74, 0
1, 15264, Note_on_c, 1, 71, 0
1, 15264, Note_on_c, 1, 72, 70
1, 15303, Note_on_c, 1, 72, 0
1, 15309, Note_on_c, 0, 76, 0
1, 15312, Note_on_c, 0, 79, 75
1, 15360, Note_on_c, 1, 72, 70
1, 15401, Note_on_c, 0, 79, 0
1, 15408, Note_on_c, 0, 84, 77
1, 15449, Note_on_c, 1, 72, 0
1, 15456, Note_on_c, 1, 76, 70
1, 15497, Note_on_c, 0, 84, 0
1, 15504, Note_on_c, 0, 88, 79
1, 15545, Note_on_c, 1, 76, 0
1, 15552, Note_on_c, 1, 77, 70
1, 15597, Note_on_c, 0, 88, 0
1, 15597, Note_on_c, 1, 77, 0
1, 15600, Note_on_c, 0, 86, 80
1, 15600, Note_on_c, 1, 78, 70
1, 15645, Note_on_c, 0, 86, 0
1, 15645, Note_on_c, 1, 78, 0
1, 15648, Note_on_c, 0, 83, 79
1, 15648, Note_on_c, 1, 79, 70
1, 15671, Note_on_c, 0, 83, 0
1, 15672, Note_on_c, 0, 84, 78
1, 15695, Note_on_c, 0, 84, 0
1, 15696, Note_on_c, 0, 86, 78
1, 15719, Note_on_c, 0, 86, 0
1, 15720, Note_on_c, 0, 84, 77
1, 15737, Note_on_c, 1, 79, 0
1, 15743, Note_on_c, 0, 84, 0
1, 15744, Note_on_c, 0, 83, 77
1, 15767, Note_on_c, 0, 83, 0
1, 15768, Note_on_c, 0, 81, 76
1, 15791, Note_on_c, 0, 81, 0
1, 15792, Note_on_c, 0, 79, 76
1, 15815, Note_on_c, 0, 79, 0
1, 15816, Note_on_c, 0, 77, 75
1, 15839, Note_on_c, 0, 77, 0
1, 15840, Note_on_c, 0, 79, 75
1, 15840, Note_on_c, 0, 76, 64
1, 15852, Note_on_c, 0, 79, 0
1, 15852, Note_on_c, 0, 81, 75
1, 15864, Note_on_c, 0, 81, 0
1, 15864, Note_on_c, 0, 79, 75
1, 15907, Note_on_c, 0, 79, 0
1, 15907, Note_on_c, 0, 76, 0
1, 15912, Note_on_c, 0, 77, 75
1, 15912, Note_on_c, 0, 74, 64
1, 15935, Note_on_c, 0, 77, 0
1, 15935, Note_on_c, 0, 74, 0
1, 15936, Note_on_c, 0, 79, 75
1, 15936, Note_on_c, 0, 76, 64
1, 15948, Note_on_c, 0, 79, 0
1, 15948, Note_on_c, 0, 81, 75
1, 15960, Note_on_c, 0, 81, 0
1, 15960, Note_on_c, 0, 79, 75
1, 16003, Note_on_c, 0, 79, 0
1, 16003, Note_on_c, 0, 76, 0
1, 16008, Note_on_c, 0, 77, 75
1, 16008, Note_on_c, 0, 74, 64
1, 16031, Note_on_c, 0, 77, 0
1, 16031, Note_on_c, 0, 74, 0
1, 16032, Note_on_c, 0, 79, 75
1, 16032, Note_on_c, 0, 76, 64
1, 16044, Note_on_c, 0, 79, 0
1, 16044, Note_on_c, 0, 81, 75
1, 16056, Note_on_c, 0, 81, 0
1, 16056, Note_on_c, 0, 79, 75
1, 16099, Note_on_c, 0, 79, 0
1, 16099, Note_on_c, 0, 76, 0
1, 16104, Note_on_c, 0, 77, 75
1, 16104, Note_on_c, 0, 74, 64
1, 16127, Note_on_c, 0, 77, 0
1, 16127, Note_on_c, 0, 74, 0
1, 16128, Note_on_c, 0, 79, 75
1, 16128, Note_on_c, 0, 76, 75
1, 16152, Note_on_c, 0, 79, 0
1, 16152, Note_on_c, 0, 76, 0
1, 16152, Note_on_c, 0, 77, 75
1, 16152, Note_on_c, 0, 74, 75
1, 16175, Note_on_c, 0, 77, 0
1, 16175, Note_on_c, 0, 74, 0
1, 16176, Note_on_c, 0, 79, 75
1, 16176, Note_on_c, 0, 76, 75
1, 16200, Note_on_c, 0, 79, 0
1, 16200, Note_on_c, 0, 76, 0
1, 16200, Note_on_c, 0, 77, 75
1, 16200, Note_on_c, 0, 74, 75
1, 16223, Note_on_c, 0, 77, 0
1, 16223, Note_on_c, 0, 74, 0
1, 16224, Note_on_c, 0, 79, 75
1, 16224, Note_on_c, 0, 76, 75
1, 16248, Note_on_c, 0, 79, 0
1, 16248, Note_on_c, 0, 76, 0
1, 16248, Note_on_c, 0, 77, 75
1, 16248, Note_on_c, 0, 74, 75
1, 16271, Note_on_c, 0, 77, 0
1, 16271, Note_on_c, 0, 74, 0
1, 16272, Note_on_c, 0, 79, 75
1, 16272, Note_on_c, 0, 76, 75
1, 16296, Note_on_c, 0, 79, 0
1, 16296, Note_on_c, 0, 76, 0
1, 16296, Note_on_c, 0, 77, 75
1, 16296, Note_on_c, 0, 74, 75
1, 16319, Note_on_c, 0, 77, 0
1, 16319, Note_on_c, 0, 74, 0
1, 16320, Note_on_c, 0, 79, 75
1, 16320, Note_on_c, 0, 76, 75
1, 16365, Note_on_c, 0, 79, 0
1, 16365, Note_on_c, 0, 76, 0
1, 16368, Note_on_c, 0, 84, 75
1, 16368, Note_on_c, 0, 79, 75
1, 16413, Note_on_c, 0, 84, 0
1, 16413, Note_on_c, 0, 79, 0
1, 16416, Note_on_c, 0, 76, 75
1, 16416, Note_on_c, 0, 72, 75
1, 16439, Note_on_c, 0, 76, 0
1, 16439, Note_on_c, 0, 72, 0
1, 16440, Note_on_c, 0, 74, 75
1, 16440, Note_on_c, 0, 67, 75
1, 16463, Note_on_c, 0, 74, 0
1, 16463, Note_on_c, 0, 67, 0
1, 16464, Note_on_c, 0, 72, 75
1, 16464, Note_on_c, 0, 64, 75
1, 16487, Note_on_c, 0, 72, 0
1, 16487, Note_on_c, 0, 64, 0
1, 16488, Note_on_c, 0, 74, 75
1, 16488, Note_on_c, 0, 67, 75
1, 16511, Note_on_c, 0, 74, 0
1, 16511, Note_on_c, 0, 67, 0
1, 16512, Note_on_c, 0, 76, 75
1, 16512, Note_on_c, 0, 72, 75
1, 16535, Note_on_c, 0, 76, 0
1, 16535, Note_on_c, 0, 72, 0
1, 16536, Note_on_c, 0, 74, 75
1, 16536, Note_on_c, 0, 67, 75
1, 16559, Note_on_c, 0, 74, 0
1, 16559, Note_on_c, 0, 67, 0
1, 16560, Note_on_c, 0, 72, 75
1, 16560, Note_on_c, 0, 64, 75
1, 16583, Note_on_c, 0, 72, 0
1, 16583, Note_on_c, 0, 64, 0
1, 16584, Note_on_c, 0, 74, 75
1, 16584, Note_on_c, 0, 67, 75
1, 16607, Note_on_c, 0, 74, 0
1, 16607, Note_on_c, 0, 67, 0
1, 16608, Note_on_c, 0, 76, 75
1, 16608, Note_on_c, 0, 72, 75
1, 16631, Note_on_c, 0, 76, 0
1, 16631, Note_on_c, 0, 72, 0
1, 16632, Note_on_c, 0, 74, 75
1, 16632, Note_on_c, 0, 67, 75
1, 16655, Note_on_c, 0, 74, 0
1, 16655, Note_on_c, 0, 67, 0
1, 16656, Note_on_c, 0, 72, 75
1, 16656, Note_on_c, 0, 64, 75
1, 16679, Note_on_c, 0, 72, 0
1, 16679, Note_on_c, 0, 64, 0
1, 16680, Note_on_c, 0, 76, 75
1, 16680, Note_on_c, 0, 72, 75
1, 16703, Note_on_c, 0, 76, 0
1, 16703, Note_on_c, 0, 72, 0
1, 16704, Note_on_c, 0, 74, 75
1, 16704, Note_on_c, 0, 67, 64
1, 16716, Note_on_c, 0, 74, 0
1, 16716, Note_on_c, 0, 76, 75
1, 16728, Note_on_c, 0, 76, 0
1, 16728, Note_on_c, 0, 74, 75
1, 16881, Note_on_c, 0, 74, 0
1, 16881, Note_on_c, 0, 67, 0
1, 16896, Note_on_c, 0, 76, 75
1, 16941, Note_on_c, 0, 76, 0
1, 16944, Note_on_c, 0, 77, 75
1, 16989, Note_on_c, 0, 77, 0
1, 16992, Note_on_c, 0, 79, 75
1, 16992, Note_on_c, 1, 76, 70
1, 16992, Note_on_c, 1, 72, 70
1, 17015, Note_on_c, 0, 79, 0
1, 17016, Note_on_c, 0, 84, 75
1, 17031, Note_on_c, 1, 76, 0
1, 17031, Note_on_c, 1, 72, 0
1, 17039, Note_on_c, 0, 84, 0
1, 17040, Note_on_c, 0, 83, 75
1, 17063, Note_on_c, 0, 83, 0
1, 17064, Note_on_c, 0, 84, 75
1, 17087, Note_on_c, 0, 84, 0
1, 17088, Note_on_c, 0, 88, 75
1, 17111, Note_on_c, 0, 88, 0
1, 17112, Note_on_c, 0, 84, 75
1, 17135, Note_on_c, 0, 84, 0
1, 17136, Note_on_c, 0, 83, 75
1, 17159, Note_on_c, 0, 83, 0
1, 17160, Note_on_c, 0, 84, 75
1, 17183, Note_on_c, 0, 84, 0
1, 17184, Note_on_c, 0, 79, 75
1, 17184, Note_on_c, 1, 76, 70
1, 17184, Note_on_c, 1, 72, 70
1, 17196, Note_on_c, 0, 79, 0
1, 17196, Note_on_c, 0, 81, 75
1, 17208, Note_on_c, 0, 81, 0
1, 17208, Note_on_c, 0, 79, 75
1, 17273, Note_on_c, 0, 79, 0
1, 17280, Note_on_c, 0, 77, 75
1, 17280, Note_on_c, 1, 76, 0
1, 17280, Note_on_c, 1, 72, 0
1, 17280, Note_on_c, 1, 74, 70
1, 17280, Note_on_c, 1, 71, 70
1, 17303, Note_on_c, 0, 77, 0
1, 17304, Note_on_c, 0, 83, 75
1, 17319, Note_on_c, 1, 74, 0
1, 17319, Note_on_c, 1, 71, 0
1, 17327, Note_on_c, 0, 83, 0
1, 17328, Note_on_c, 0, 81, 75
1, 17351, Note_on_c, 0, 81, 0
1, 17352, Note_on_c, 0, 83, 75
1, 17375, Note_on_c, 0, 83, 0
1, 17376, Note_on_c, 0, 86, 75
1, 17399, Note_on_c, 0, 86, 0
1, 17400, Note_on_c, 0, 83, 75
1, 17423, Note_on_c, 0, 83, 0
1, 17424, Note_on_c, 0, 81, 75
1, 17447, Note_on_c, 0, 81, 0
1, 17448, Note_on_c, 0, 83, 75
1, 17471, Note_on_c, 0, 83, 0
1, 17472, Note_on_c, 0, 77, 75
1, 17472, Note_on_c, 1, 74, 70
1, 17472, Note_on_c, 1, 71, 70
1, 17484, Note_on_c, 0, 77, 0
1, 17484, Note_on_c, 0, 79, 75
1, 17496, Note_on_c, 0, 79, 0
1, 17496, Note_on_c, 0, 77, 75
1, 17561, Note_on_c, 0, 77, 0
1, 17568, Note_on_c, 0, 76, 75
1, 17568, Note_on_c, 1, 74, 0
1, 17568, Note_on_c, 1, 71, 0
1, 17568, Note_on_c, 1, 72, 70
1, 17607, Note_on_c, 1, 72, 0
1, 17613, Note_on_c, 0, 76, 0
1, 17616, Note_on_c, 0, 79, 75
1, 17664, Note_on_c, 1, 72, 70
1, 17705, Note_on_c, 0, 79, 0
1, 17712, Note_on_c, 0, 84, 77
1, 17753, Note_on_c, 1, 72, 0
1, 17760, Note_on_c, 1, 76, 70
1, 17801, Note_on_c, 0, 84, 0
1, 17808, Note_on_c, 0, 88, 79
1, 17849, Note_on_c, 1, 76, 0
1, 17856, Note_on_c, 1, 77, 70
1, 17901, Note_on_c, 0, 88, 0
1, 17901, Note_on_c, 1, 77, 0
1, 17904, Note_on_c, 0, 86, 80
1, 17904, Note_on_c, 1, 78, 70
1, 17949, Note_on_c, 0, 86, 0
1, 17949, Note_on_c, 1, 78, 0
1, 17952, Note_on_c, 0, 83, 79
1, 17952, Note_on_c, 1, 79, 70
1, 17975, Note_on_c, 0, 83, 0
1, 17976, Note_on_c, 0, 84, 78
1, 17999, Note_on_c, 0, 84, 0
1, 18000, Note_on_c, 0, 86, 78
1, 18023, Note_on_c, 0, 86, 0
1, 18024, Note_on_c, 0, 84, 77
1, 18041, Note_on_c, 1, 79, 0
1, 18047, Note_on_c, 0, 84, 0
1, 18048, Note_on_c, 0, 83, 77
1, 18071, Note_on_c, 0, 83, 0
1, 18072, Note_on_c, 0, 81, 76
1, 18095, Note_on_c, 0, 81, 0
1, 18096, Note_on_c, 0, 79, 76
1, 18119, Note_on_c, 0, 79, 0
1, 18120, Note_on_c, 0, 77, 75
1, 18143, Note_on_c, 0, 77, 0
1, 18144, Note_on_c, 0, 79, 75
1, 18144, Note_on_c, 0, 76, 64
1, 18156, Note_on_c, 0, 79, 0
1, 18156, Note_on_c, 0, 81, 75
1, 18168, Note_on_c, 0, 81, 0
1, 18168, Note_on_c, 0, 79, 75
1, 18211, Note_on_c, 0, 79, 0
1, 18211, Note_on_c, 0, 76, 0
1, 18216, Note_on_c, 0, 77, 75
1, 18216, Note_on_c, 0, 74, 64
1, 18239, Note_on_c, 0, 77, 0
1, 18239, Note_on_c, 0, 74, 0
1, 18240, Note_on_c, 0, 79, 75
1, 18240, Note_on_c, 0, 76, 64
1, 18252, Note_on_c, 0, 79, 0
1, 18252, Note_on_c, 0, 81, 75
1, 18264, Note_on_c, 0, 81, 0
1, 18264, Note_on_c, 0, 79, 75
1, 18307, Note_on_c, 0, 79, 0
1, 18307, Note_on_c, 0, 76, 0
1, 18312, Note_on_c, 0, 77, 75
1, 18312, Note_on_c, 0, 74, 64
1, 18335, Note_on_c, 0, 77, 0
1, 18335, Note_on_c, 0, 74, 0
1, 18336, Note_on_c, 0, 79, 75
1, 18336, Note_on_c, 0, 76, 64
1, 18348, Note_on_c, 0, 79, 0
1, 18348, Note_on_c, 0, 81, 75
1, 18360, Note_on_c, 0, 81, 0
1, 18360, Note_on_c, 0, 79, 75
1, 18403, Note_on_c, 0, 79, 0
1, 18403, Note_on_c, 0, 76, 0
1, 18408, Note_on_c, 0, 77, 75
1, 18408, Note_on_c, 0, 74, 64
1, 18431, Note_on_c, 0, 77, 0
1, 18431, Note_on_c, 0, 74, 0
1, 18432, Note_on_c, 0, 79, 75
1, 18432, Note_on_c, 0, 76, 75
1, 18456, Note_on_c, 0, 79, 0
1, 18456, Note_on_c, 0, 76, 0
1, 18456, Note_on_c, 0, 77, 75
1, 18456, Note_on_c, 0, 74, 75
1, 18479, Note_on_c, 0, 77, 0
1, 18479, Note_on_c, 0, 74, 0
1, 18480, Note_on_c, 0, 79, 75
1, 18480, Note_on_c, 0, 76, 75
1, 18504, Note_on_c, 0, 79, 0
1, 18504, Note_on_c, 0, 76, 0
1, 18504, Note_on_c, 0, 77, 75
1, 18504, Note_on_c, 0, 74, 75
1, 18527, Note_on_c, 0, 77, 0
1, 18527, Note_on_c, 0, 74, 0
1, 18528, Note_on_c, 0, 79, 75
1, 18528, Note_on_c, 0, 76, 75
1, 18552, Note_on_c, 0, 79, 0
1, 18552, Note_on_c, 0, 76, 0
1, 18552, Note_on_c, 0, 77, 75
1, 18552, Note_on_c, 0, 74, 75
1, 18575, Note_on_c, 0, 77, 0
1, 18575, Note_on_c, 0, 74, 0
1, 18576, Note_on_c, 0, 79, 75
1, 18576, Note_on_c, 0, 76, 75
1, 18600, Note_on_c, 0, 79, 0
1, 18600, Note_on_c, 0, 76, 0
1, 18600, Note_on_c, 0, 77, 75
1, 18600, Note_on_c, 0, 74, 75
1, 18623, Note_on_c, 0, 77, 0
1, 18623, Note_on_c, 0, 74, 0
1, 18624, Note_on_c, 0, 79, 75
1, 18624, Note_on_c, 0, 76, 75
1, 18669, Note_on_c, 0, 79, 0
1, 18669, Note_on_c, 0, 76, 0
1, 18672, Note_on_c, 0, 84, 75
1, 18672, Note_on_c, 0, 79, 75
1, 18717, Note_on_c, 0, 84, 0
1, 18717, Note_on_c, 0, 79, 0
1, 18720, Note_on_c, 0, 76, 75
1, 18720, Note_on_c, 0, 72, 75
1, 18743, Note_on_c, 0, 76, 0
1, 18743, Note_on_c, 0, 72, 0
1, 18744, Note_on_c, 0, 74, 75
1, 18744, Note_on_c, 0, 67, 75
1, 18767, Note_on_c, 0, 74, 0
1, 18767, Note_on_c, 0, 67, 0
1, 18768, Note_on_c, 0, 72, 75
1, 18768, Note_on_c, 0, 64, 75
1, 18791, Note_on_c, 0, 72, 0
1, 18791, Note_on_c, 0, 64, 0
1, 18792, Note_on_c, 0, 74, 75
1, 18792, Note_on_c, 0, 67, 75
1, 18815, Note_on_c, 0, 74, 0
1, 18815, Note_on_c, 0, 67, 0
1, 18816, Note_on_c, 0, 76, 75
1, 18816, Note_on_c, 0, 72, 75
1, 18839, Note_on_c, 0, 76, 0
1, 18839, Note_on_c, 0, 72, 0
1, 18840, Note_on_c, 0, 74, 75
1, 18840, Note_on_c, 0, 67, 75
1, 18863, Note_on_c, 0, 74, 0
1, 18863, Note_on_c, 0, 67, 0
1, 18864, Note_on_c, 0, 72, 75
1, 18864, Note_on_c, 0, 64, 75
1, 18887, Note_on_c, 0, 72, 0
1, 18887, Note_on_c, 0, 64, 0
1, 18888, Note_on_c, 0, 74, 75
1, 18888, Note_on_c, 0, 67, 75
1, 18911, Note_on_c, 0, 74, 0
1, 18911, Note_on_c, 0, 67, 0
1, 18912, Note_on_c, 0, 76, 75
1, 18912, Note_on_c, 0, 72, 75
1, 18935, Note_on_c, 0, 76, 0
1, 18935, Note_on_c, 0, 72, 0
1, 18936, Note_on_c, 0, 74, 75
1, 18936, Note_on_c, 0, 67, 75
1, 18959, Note_on_c, 0, 74, 0
1, 18959, Note_on_c, 0, 67, 0
1, 18960, Note_on_c, 0, 72, 75
1, 18960, Note_on_c, 0, 64, 75
1, 18983, Note_on_c, 0, 72, 0
1, 18983, Note_on_c, 0, 64, 0
1, 18984, Note_on_c, 0, 76, 75
1, 18984, Note_on_c, 0, 72, 75
1, 19007, Note_on_c, 0, 76, 0
1, 19007, Note_on_c, 0, 72, 0
1, 19008, Note_on_c, 0, 74, 75
1, 19008, Note_on_c, 0, 67, 64
1, 19020, Note_on_c, 0, 74, 0
1, 19020, Note_on_c, 0, 76, 75
1, 19032, Note_on_c, 0, 76, 0
1, 19032, Note_on_c, 0, 74, 75
1, 19185, Note_on_c, 0, 74, 0
1, 19185, Note_on_c, 0, 67, 0
1, 19296, Note_on_c, 0, 59, 75
1, 19296, Note_on_c, 1, 55, 75
1, 19319, Note_on_c, 0, 59, 0
1, 19319, Note_on_c, 1, 55, 0
1, 19320, Note_on_c, 0, 57, 75
1, 19320, Note_on_c, 1, 50, 75
1, 19343, Note_on_c, 0, 57, 0
1, 19343, Note_on_c, 1, 50, 0
1, 19344, Note_on_c, 0, 55, 75
1, 19344, Note_on_c, 1, 47, 75
1, 19367, Note_on_c, 0, 55, 0
1, 19367, Note_on_c, 1, 47, 0
1, 19368, Note_on_c, 0, 57, 75
1, 19368, Note_on_c, 1, 50, 75
1, 19391, Note_on_c, 0, 57, 0
1, 19391, Note_on_c, 1, 50, 0
1, 19392, Note_on_c, 0, 59, 75
1, 19392, Note_on_c, 1, 55, 75
1, 19415, Note_on_c, 0, 59, 0
1, 19415, Note_on_c, 1, 55, 0
1, 19416, Note_on_c, 0, 57, 75
1, 19416, Note_on_c, 1, 50, 75
1, 19439, Note_on_c, 0, 57, 0
1, 19439, Note_on_c, 1, 50, 0
1, 19440, Note_on_c, 0, 55, 75
1, 19440, Note_on_c, 1, 47, 75
1, 19463, Note_on_c, 0, 55, 0
1, 19463, Note_on_c, 1, 47, 0
1, 19464, Note_on_c, 0, 57, 75
1, 19464, Note_on_c, 1, 50, 75
1, 19487, Note_on_c, 0, 57, 0
1, 19487, Note_on_c, 1, 50, 0
1, 19488, Note_on_c, 0, 59, 75
1, 19488, Note_on_c, 1, 55, 75
1, 19511, Note_on_c, 0, 59, 0
1, 19511, Note_on_c, 1, 55, 0
1, 19512, Note_on_c, 0, 57, 75
1, 19512, Note_on_c, 1, 50, 75
1, 19535, Note_on_c, 0, 57, 0
1, 19535, Note_on_c, 1, 50, 0
1, 19536, Note_on_c, 0, 55, 75
1, 19536, Note_on_c, 1, 47, 75
1, 19559, Note_on_c, 0, 55, 0
1, 19559, Note_on_c, 1, 47, 0
1, 19560, Note_on_c, 0, 57, 75
1, 19560, Note_on_c, 1, 50, 75
1, 19583, Note_on_c, 0, 57, 0
1, 19583, Note_on_c, 1, 50, 0
1, 19584, Note_on_c, 0, 59, 75
1, 19584, Note_on_c, 1, 55, 75
1, 19608, Note_on_c, 0, 59, 0
1, 19608, Note_on_c, 0, 62, 75
1, 19673, Note_on_c, 1, 55, 0
1, 19675, Note_on_c, 0, 62, 0
1, 19680, Note_on_c, 0, 59, 76
1, 19680, Note_on_c, 1, 55, 76
1, 19680, Note_on_c, 1, 53, 76
1, 19704, Note_on_c, 0, 59, 0
1, 19704, Note_on_c, 0, 62, 77
1, 19769, Note_on_c, 1, 55, 0
1, 19769, Note_on_c, 1, 53, 0
1, 19771, Note_on_c, 0, 62, 0
1, 19776, Note_on_c, 0, 60, 94
1, 19776, Note_on_c, 1, 55, 78
1, 19776, Note_on_c, 1, 52, 78
1, 19865, Note_on_c, 1, 55, 0
1, 19865, Note_on_c, 1, 52, 0
1, 19872, Note_on_c, 0, 60, 0
1, 19872, Note_on_c, 0, 65, 75
1, 19872, Note_on_c, 1, 62, 80
1, 19895, Note_on_c, 0, 65, 0
1, 19895, Note_on_c, 1, 62, 0
1, 19896, Note_on_c, 0, 64, 75
1, 19896, Note_on_c, 1, 57, 80
1, 19919, Note_on_c, 0, 64, 0
1, 19919, Note_on_c, 1, 57, 0
1, 19920, Note_on_c, 0, 62, 75
1, 19920, Note_on_c, 1, 53, 80
1, 19943, Note_on_c, 0, 62, 0
1, 19943, Note_on_c, 1, 53, 0
1, 19944, Note_on_c, 0, 64, 75
1, 19944, Note_on_c, 1, 57, 80
1, 19967, Note_on_c, 0, 64, 0
1, 19967, Note_on_c, 1, 57, 0
1, 19968, Note_on_c, 0, 65, 75
1, 19968, Note_on_c, 1, 62, 80
1, 19991, Note_on_c, 0, 65, 0
1, 19991, Note_on_c, 1, 62, 0
1, 19992, Note_on_c, 0, 64, 75
1, 19992, Note_on_c, 1, 57, 80
1, 20015, Note_on_c, 0, 64, 0
1, 20015, Note_on_c, 1, 57, 0
1, 20016, Note_on_c, 0, 62, 75
1, 20016, Note_on_c, 1, 53, 80
1, 20039, Note_on_c, 0, 62, 0
1, 20039, Note_on_c, 1, 53, 0
1, 20040, Note_on_c, 0, 64, 75
1, 20040, Note_on_c, 1, 57, 80
1, 20063, Note_on_c, 0, 64, 0
1, 20063, Note_on_c, 1, 57, 0
1, 20064, Note_on_c, 0, 65, 75
1, 20064, Note_on_c, 1, 62, 80
1, 20087, Note_on_c, 0, 65, 0
1, 20087, Note_on_c, 1, 62, 0
1, 20088, Note_on_c, 0, 64, 75
1, 20088, Note_on_c, 1, 57, 80
1, 20111, Note_on_c, 0, 64, 0
1, 20111, Note_on_c, 1, 57, 0
1, 20112, Note_on_c, 0, 62, 75
1, 20112, Note_on_c, 1, 53, 80
1, 20135, Note_on_c, 0, 62, 0
1, 20135, Note_on_c, 1, 53, 0
1, 20136, Note_on_c, 0, 64, 75
1, 20136, Note_on_c, 1, 57, 80
1, 20159, Note_on_c, 0, 64, 0
1, 20159, Note_on_c, 1, 57, 0
1, 20160, Note_on_c, 0, 65, 75
1, 20160, Note_on_c, 1, 62, 80
1, 20184, Note_on_c, 0, 65, 0
1, 20184, Note_on_c, 0, 69, 75
1, 20249, Note_on_c, 1, 62, 0
1, 20251, Note_on_c, 0, 69, 0
1, 20256, Note_on_c, 0, 68, 77
1, 20256, Note_on_c, 1, 64, 83
1, 20256, Note_on_c, 1, 62, 83
1, 20280, Note_on_c, 0, 68, 0
1, 20280, Note_on_c, 0, 71, 78
1, 20345, Note_on_c, 1, 64, 0
1, 20345, Note_on_c, 1, 62, 0
1, 20347, Note_on_c, 0, 71, 0
1, 20352, Note_on_c, 0, 69, 96
1, 20352, Note_on_c, 1, 64, 86
1, 20352, Note_on_c, 1, 60, 86
1, 20441, Note_on_c, 1, 64, 0
1, 20441, Note_on_c, 1, 60, 0
1, 20448, Note_on_c, 0, 69, 0
1, 20448, Note_on_c, 0, 70, 75
1, 20448, Note_on_c, 1, 58, 86
1, 20448, Note_on_c, 1, 50, 86
1, 20448, Note_on_c, 1, 46, 86
1, 20496, Note_on_c, 0, 70, 0
1, 20496, Note_on_c, 0, 77, 75
1, 20537, Note_on_c, 1, 58, 0
1, 20537, Note_on_c, 1, 50, 0
1, 20537, Note_on_c, 1, 46, 0
1, 20541, Note_on_c, 0, 77, 0
1, 20544, Note_on_c, 0, 74, 75
1, 20589, Note_on_c, 0, 74, 0
1, 20592, Note_on_c, 0, 70, 75
1, 20637, Note_on_c, 0, 70, 0
1, 20640, Note_on_c, 0, 68, 75
1, 20640, Note_on_c, 1, 64, 86
1, 20688, Note_on_c, 0, 68, 0
1, 20688, Note_on_c, 0, 71, 75
1, 20729, Note_on_c, 1, 64, 0
1, 20733, Note_on_c, 0, 71, 0
1, 20736, Note_on_c, 0, 69, 75
1, 20736, Note_on_c, 1, 57, 86
1, 20736, Note_on_c, 1, 48, 86
1, 20736, Note_on_c, 1, 45, 86
1, 20784, Note_on_c, 0, 69, 0
1, 20784, Note_on_c, 0, 81, 75
1, 20825, Note_on_c, 1, 57, 0
1, 20825, Note_on_c, 1, 48, 0
1, 20825, Note_on_c, 1, 45, 0
1, 20829, Note_on_c, 0, 81, 0
1, 20832, Note_on_c, 0, 76, 76
1, 20877, Note_on_c, 0, 76, 0
1, 20880, Note_on_c, 0, 72, 77
1, 20925, Note_on_c, 0, 72, 0
1, 20928, Note_on_c, 0, 71, 78
1, 20928, Note_on_c, 1, 64, 86
1, 20973, Note_on_c, 0, 71, 0
1, 20976, Note_on_c, 0, 69, 79
1, 21017, Note_on_c, 1, 64, 0
1, 21021, Note_on_c, 0, 69, 0
1, 21024, Note_on_c, 0, 75, 80
1, 21024, Note_on_c, 1, 51, 80
1, 21024, Note_on_c, 1, 39, 80
1, 21063, Note_on_c, 0, 75, 0
1, 21063, Note_on_c, 1, 51, 0
1, 21063, Note_on_c, 1, 39, 0
1, 21120, Note_on_c, 0, 76, 80
1, 21120, Note_on_c, 1, 52, 80
1, 21120, Note_on_c, 1, 40, 80
1, 21159, Note_on_c, 0, 76, 0
1, 21159, Note_on_c, 1, 52, 0
1, 21159, Note_on_c, 1, 40, 0
1, 21216, Note_on_c, 0, 64, 80
1, 21216, Note_on_c, 1, 52, 80
1, 21216, Note_on_c, 1, 40, 80
1, 21255, Note_on_c, 0, 64, 0
1, 21255, Note_on_c, 1, 52, 0
1, 21255, Note_on_c, 1, 40, 0
1, 21312, Note_on_c, 0, 57, 80
1, 21312, Note_on_c, 1, 45, 80
1, 21312, Note_on_c, 1, 33, 80
1, 21401, Note_on_c, 0, 57, 0
1, 21401, Note_on_c, 1, 45, 0
1, 21401, Note_on_c, 1, 33, 0
1, 21504, Note_on_c, 1, 43, 75
1, 21528, Note_on_c, 0, 69, 80
1, 21551, Note_on_c, 0, 69, 0
1, 21552, Note_on_c, 0, 71, 80
1, 21575, Note_on_c, 0, 71, 0
1, 21576, Note_on_c, 0, 72, 80
1, 21599, Note_on_c, 0, 72, 0
1, 21600, Note_on_c, 0, 72, 80
1, 21600, Note_on_c, 1, 43, 0
1, 21600, Note_on_c, 1, 42, 75
1, 21610, Note_on_c, 0, 72, 0
1, 21624, Note_on_c, 0, 72, 80
1, 21639, Note_on_c, 1, 42, 0
1, 21647, Note_on_c, 0, 72, 0
1, 21648, Note_on_c, 0, 71, 80
1, 21671, Note_on_c, 0, 71, 0
1, 21672, Note_on_c, 0, 72, 80
1, 21695, Note_on_c, 0, 72, 0
1, 21696, Note_on_c, 0, 74, 80
1, 21719, Note_on_c, 0, 74, 0
1, 21720, Note_on_c, 0, 72, 80
1, 21743, Note_on_c, 0, 72, 0
1, 21744, Note_on_c, 0, 71, 80
1, 21767, Note_on_c, 0, 71, 0
1, 21768, Note_on_c, 0, 72, 80
1, 21791, Note_on_c, 0, 72, 0
1, 21792, Note_on_c, 0, 81, 80
1, 21792, Note_on_c, 1, 66, 70
1, 21792, Note_on_c, 1, 57, 70
1, 21792, Note_on_c, 1, 50, 70
1, 21831, Note_on_c, 0, 81, 0
1, 21888, Note_on_c, 0, 71, 80
1, 21888, Note_on_c, 1, 66, 0
1, 21888, Note_on_c, 1, 57, 0
1, 21888, Note_on_c, 1, 50, 0
1, 21888, Note_on_c, 1, 43, 70
1, 21898, Note_on_c, 0, 71, 0
1, 21912, Note_on_c, 0, 74, 80
1, 21927, Note_on_c, 1, 43, 0
1, 21935, Note_on_c, 0, 74, 0
1, 21936, Note_on_c, 0, 72, 80
1, 21959, Note_on_c, 0, 72, 0
1, 21960, Note_on_c, 0, 74, 80
1, 21983, Note_on_c, 0, 74, 0
1, 21984, Note_on_c, 0, 79, 80
1, 22007, Note_on_c, 0, 79, 0
1, 22008, Note_on_c, 0, 71, 80
1, 22031, Note_on_c, 0, 71, 0
1, 22032, Note_on_c, 0, 74, 80
1, 22055, Note_on_c, 0, 74, 0
1, 22056, Note_on_c, 0, 79, 80
1, 22079, Note_on_c, 0, 79, 0
1, 22080, Note_on_c, 0, 83, 80
1, 22080, Note_on_c, 1, 62, 64
1, 22080, Note_on_c, 1, 55, 64
1, 22080, Note_on_c, 1, 53, 64
1, 22119, Note_on_c, 0, 83, 0
1, 22176, Note_on_c, 0, 64, 70
1, 22176, Note_on_c, 1, 62, 0
1, 22176, Note_on_c, 1, 55, 0
1, 22176, Note_on_c, 1, 53, 0
1, 22176, Note_on_c, 1, 52, 70
1, 22196, Note_on_c, 0, 64, 0
1, 22224, Note_on_c, 0, 67, 86
1, 22265, Note_on_c, 1, 52, 0
1, 22272, Note_on_c, 1, 60, 70
1, 22320, Note_on_c, 0, 67, 0
1, 22320, Note_on_c, 0, 72, 70
1, 22361, Note_on_c, 1, 60, 0
1, 22368, Note_on_c, 1, 64, 70
1, 22409, Note_on_c, 0, 72, 0
1, 22416, Note_on_c, 0, 76, 70
1, 22457, Note_on_c, 1, 64, 0
1, 22461, Note_on_c, 0, 76, 0
1, 22464, Note_on_c, 0, 74, 70
1, 22464, Note_on_c, 1, 66, 70
1, 22487, Note_on_c, 0, 74, 0
1, 22488, Note_on_c, 0, 72, 71
1, 22511, Note_on_c, 0, 72, 0
1, 22512, Note_on_c, 0, 71, 72
1, 22535, Note_on_c, 0, 71, 0
1, 22536, Note_on_c, 0, 72, 73
1, 22553, Note_on_c, 1, 66, 0
1, 22559, Note_on_c, 0, 72, 0
1, 22560, Note_on_c, 0, 74, 74
1, 22560, Note_on_c, 1, 67, 70
1, 22583, Note_on_c, 0, 74, 0
1, 22584, Note_on_c, 0, 72, 75
1, 22607, Note_on_c, 0, 72, 0
1, 22608, Note_on_c, 0, 71, 74
1, 22631, Note_on_c, 0, 71, 0
1, 22632, Note_on_c, 0, 69, 73
1, 22649, Note_on_c, 1, 67, 0
1, 22655, Note_on_c, 0, 69, 0
1, 22656, Note_on_c, 0, 67, 72
1, 22679, Note_on_c, 0, 67, 0
1, 22680, Note_on_c, 0, 65, 72
1, 22703, Note_on_c, 0, 65, 0
1, 22704, Note_on_c, 0, 64, 71
1, 22727, Note_on_c, 0, 64, 0
1, 22728, Note_on_c, 0, 62, 70
1, 22751, Note_on_c, 0, 62, 0
1, 22752, Note_on_c, 0, 67, 70
1, 22752, Note_on_c, 1, 64, 70
1, 22752, Note_on_c, 1, 60, 70
1, 22764, Note_on_c, 0, 67, 0
1, 22764, Note_on_c, 0, 69, 70
1, 22776, Note_on_c, 0, 69, 0
1, 22776, Note_on_c, 0, 67, 70
1, 22819, Note_on_c, 0, 67, 0
1, 22824, Note_on_c, 0, 69, 70
1, 22841, Note_on_c, 1, 64, 0
1, 22841, Note_on_c, 1, 60, 0
1, 22847, Note_on_c, 0, 69, 0
1, 22848, Note_on_c, 0, 67, 71
1, 22848, Note_on_c, 1, 64, 70
1, 22848, Note_on_c, 1, 60, 70
1, 22860, Note_on_c, 0, 67, 0
1, 22860, Note_on_c, 0, 69, 71
1, 22872, Note_on_c, 0, 69, 0
1, 22872, Note_on_c, 0, 67, 71
1, 22915, Note_on_c, 0, 67, 0
1, 22920, Note_on_c, 0, 69, 71
1, 22937, Note_on_c, 1, 64, 0
1, 22937, Note_on_c, 1, 60, 0
1, 22943, Note_on_c, 0, 69, 0
1, 22944, Note_on_c, 0, 67, 72
1, 22944, Note_on_c, 1, 64, 71
1, 22944, Note_on_c, 1, 60, 71
1, 22956, Note_on_c, 0, 67, 0
1, 22956, Note_on_c, 0, 69, 72
1, 22968, Note_on_c, 0, 69, 0
1, 22968, Note_on_c, 0, 67, 72
1, 23011, Note_on_c, 0, 67, 0
1, 23016, Note_on_c, 0, 70, 73
1, 23033, Note_on_c, 1, 64, 0
1, 23033, Note_on_c, 1, 60, 0
1, 23039, Note_on_c, 0, 70, 0
1, 23040, Note_on_c, 0, 69, 73
1, 23040, Note_on_c, 1, 65, 72
1, 23040, Note_on_c, 1, 60, 72
1, 23052, Note_on_c, 0, 69, 0
1, 23052, Note_on_c, 0, 71, 73
1, 23064, Note_on_c, 0, 71, 0
1, 23064, Note_on_c, 0, 69, 73
1, 23107, Note_on_c, 0, 69, 0
1, 23112, Note_on_c, 0, 70, 74
1, 23129, Note_on_c, 1, 65, 0
1, 23129, Note_on_c, 1, 60, 0
1, 23135, Note_on_c, 0, 70, 0
1, 23136, Note_on_c, 0, 69, 74
1, 23136, Note_on_c, 1, 65, 73
1, 23136, Note_on_c, 1, 60, 73
1, 23148, Note_on_c, 0, 69, 0
1, 23148, Note_on_c, 0, 71, 74
1, 23160, Note_on_c, 0, 71, 0
1, 23160, Note_on_c, 0, 69, 74
1, 23203, Note_on_c, 0, 69, 0
1, 23208, Note_on_c, 0, 70, 75
1, 23225, Note_on_c, 1, 65, 0
1, 23225, Note_on_c, 1, 60, 0
1, 23231, Note_on_c, 0, 70, 0
1, 23232, Note_on_c, 0, 69, 75
1, 23232, Note_on_c, 1, 65, 74
1, 23232, Note_on_c, 1, 60, 74
1, 23244, Note_on_c, 0, 69, 0
1, 23244, Note_on_c, 0, 71, 75
1, 23256, Note_on_c, 0, 71, 0
1, 23256, Note_on_c, 0, 69, 75
1, 23299, Note_on_c, 0, 69, 0
1, 23304, Note_on_c, 0, 72, 76
1, 23321, Note_on_c, 1, 65, 0
1, 23321, Note_on_c, 1, 60, 0
1, 23327, Note_on_c, 0, 72, 0
1, 23328, Note_on_c, 0, 71, 76
1, 23340, Note_on_c, 0, 71, 0
1, 23340, Note_on_c, 0, 72, 76
1, 23352, Note_on_c, 0, 72, 0
1, 23352, Note_on_c, 0, 71, 76
1, 23395, Note_on_c, 0, 71, 0
1, 23400, Note_on_c, 0, 74, 77
1, 23400, Note_on_c, 0, 71, 77
1, 23400, Note_on_c, 0, 65, 77
1, 23423, Note_on_c, 0, 74, 0
1, 23423, Note_on_c, 0, 71, 0
1, 23423, Note_on_c, 0, 65, 0
1, 23424, Note_on_c, 0, 72, 77
1, 23436, Note_on_c, 0, 72, 0
1, 23436, Note_on_c, 0, 74, 77
1, 23448, Note_on_c, 0, 74, 0
1, 23448, Note_on_c, 0, 72, 77
1, 23491, Note_on_c, 0, 72, 0
1, 23496, Note_on_c, 0, 76, 78
1, 23496, Note_on_c, 0, 72, 78
1, 23496, Note_on_c, 0, 64, 78
1, 23519, Note_on_c, 0, 76, 0
1, 23519, Note_on_c, 0, 72, 0
1, 23519, Note_on_c, 0, 64, 0
1, 23520, Note_on_c, 0, 74, 78
1, 23532, Note_on_c, 0, 74, 0
1, 23532, Note_on_c, 0, 76, 78
1, 23544, Note_on_c, 0, 76, 0
1, 23544, Note_on_c, 0, 74, 78
1, 23587, Note_on_c, 0, 74, 0
1, 23592, Note_on_c, 0, 77, 79
1, 23592, Note_on_c, 0, 71, 79
1, 23592, Note_on_c, 0, 62, 79
1, 23615, Note_on_c, 0, 77, 0
1, 23615, Note_on_c, 0, 71, 0
1, 23615, Note_on_c, 0, 62, 0
1, 23616, Note_on_c, 0, 64, 80
1, 23616, Note_on_c, 1, 60, 75
1, 23622, Note_on_c, 0, 64, 0
1, 23622, Note_on_c, 0, 65, 80
1, 23628, Note_on_c, 0, 65, 0
1, 23628, Note_on_c, 0, 64, 80
1, 23646, Note_on_c, 0, 64, 0
1, 23646, Note_on_c, 1, 60, 0
1, 23648, Note_on_c, 0, 62, 79
1, 23648, Note_on_c, 1, 55, 74
1, 23678, Note_on_c, 0, 62, 0
1, 23678, Note_on_c, 1, 55, 0
1, 23680, Note_on_c, 0, 60, 78
1, 23680, Note_on_c, 1, 52, 73
1, 23710, Note_on_c, 0, 60, 0
1, 23710, Note_on_c, 1, 52, 0
1, 23712, Note_on_c, 0, 64, 78
1, 23712, Note_on_c, 1, 60, 73
1, 23718, Note_on_c, 0, 64, 0
1, 23718, Note_on_c, 0, 65, 78
1, 23724, Note_on_c, 0, 65, 0
1, 23724, Note_on_c, 0, 64, 78
1, 23742, Note_on_c, 0, 64, 0
1, 23742, Note_on_c, 1, 60, 0
1, 23744, Note_on_c, 0, 62, 77
1, 23744, Note_on_c, 1, 55, 72
1, 23774, Note_on_c, 0, 62, 0
1, 23774, Note_on_c, 1, 55, 0
1, 23776, Note_on_c, 0, 60, 77
1, 23776, Note_on_c, 1, 52, 72
1, 23806, Note_on_c, 0, 60, 0
1, 23806, Note_on_c, 1, 52, 0
1, 23808, Note_on_c, 0, 64, 76
1, 23808, Note_on_c, 1, 60, 71
1, 23814, Note_on_c, 0, 64, 0
1, 23814, Note_on_c, 0, 65, 76
1, 23820, Note_on_c, 0, 65, 0
1, 23820, Note_on_c, 0, 64, 76
1, 23838, Note_on_c, 0, 64, 0
1, 23838, Note_on_c, 1, 60, 0
1, 23840, Note_on_c, 0, 62, 76
1, 23840, Note_on_c, 1, 55, 71
1, 23870, Note_on_c, 0, 62, 0
1, 23870, Note_on_c, 1, 55, 0
1, 23872, Note_on_c, 0, 60, 75
1, 23872, Note_on_c, 1, 52, 70
1, 23902, Note_on_c, 0, 60, 0
1, 23902, Note_on_c, 1, 52, 0
1, 23904, Note_on_c, 0, 67, 75
1, 23904, Note_on_c, 0, 59, 75
1, 23904, Note_on_c, 1, 55, 70
1, 23904, Note_on_c, 1, 43, 70
1, 24081, Note_on_c, 0, 67, 0
1, 24081, Note_on_c, 0, 59, 0
1, 24081, Note_on_c, 1, 55, 0
1, 24081, Note_on_c, 1, 43, 0
1, 24192, Note_on_c, 0, 59, 75
1, 24192, Note_on_c, 1, 55, 75
1, 24215, Note_on_c, 0, 59, 0
1, 24215, Note_on_c, 1, 55, 0
1, 24216, Note_on_c, 0, 57, 75
1, 24216, Note_on_c, 1, 50, 75
1, 24239, Note_on_c, 0, 57, 0
1, 24239, Note_on_c, 1, 50, 0
1, 24240, Note_on_c, 0, 55, 75
1, 24240, Note_on_c, 1, 47, 75
1, 24263, Note_on_c, 0, 55, 0
1, 24263, Note_on_c, 1, 47, 0
1, 24264, Note_on_c, 0, 57, 75
1, 24264, Note_on_c, 1, 50, 75
1, 24287, Note_on_c, 0, 57, 0
1, 24287, Note_on_c, 1, 50, 0
1, 24288, Note_on_c, 0, 59, 75
1, 24288, Note_on_c, 1, 55, 75
1, 24311, Note_on_c, 0, 59, 0
1, 24311, Note_on_c, 1, 55, 0
1, 24312, Note_on_c, 0, 57, 75
1, 24312, Note_on_c, 1, 50, 75
1, 24335, Note_on_c, 0, 57, 0
1, 24335, Note_on_c, 1, 50, 0
1, 24336, Note_on_c, 0, 55, 75
1, 24336, Note_on_c, 1, 47, 75
1, 24359, Note_on_c, 0, 55, 0
1, 24359, Note_on_c, 1, 47, 0
1, 24360, Note_on_c, 0, 57, 75
1, 24360, Note_on_c, 1, 50, 75
1, 24383, Note_on_c, 0, 57, 0
1, 24383, Note_on_c, 1, 50, 0
1, 24384, Note_on_c, 0, 59, 75
1, 24384, Note_on_c, 1, 55, 75
1, 24407, Note_on_c, 0, 59, 0
1, 24407, Note_on_c, 1, 55, 0
1, 24408, Note_on_c, 0, 57, 75
1, 24408, Note_on_c, 1, 50, 75
1, 24431, Note_on_c, 0, 57, 0
1, 24431, Note_on_c, 1, 50, 0
1, 24432, Note_on_c, 0, 55, 75
1, 24432, Note_on_c, 1, 47, 75
1, 24455, Note_on_c, 0, 55, 0
1, 24455, Note_on_c, 1, 47, 0
1, 24456, Note_on_c, 0, 57, 75
1, 24456, Note_on_c, 1, 50, 75
1, 24479, Note_on_c, 0, 57, 0
1, 24479, Note_on_c, 1, 50, 0
1, 24480, Note_on_c, 0, 59, 75
1, 24480, Note_on_c, 1, 55, 75
1, 24504, Note_on_c, 0, 59, 0
1, 24504, Note_on_c, 0, 62, 75
1, 24569, Note_on_c, 1, 55, 0
1, 24571, Note_on_c, 0, 62, 0
1, 24576, Note_on_c, 0, 59, 76
1, 24576, Note_on_c, 1, 55, 76
1, 24576, Note_on_c, 1, 53, 76
1, 24600, Note_on_c, 0, 59, 0
1, 24600, Note_on_c, 0, 62, 77
1, 24665, Note_on_c, 1, 55, 0
1, 24665, Note_on_c, 1, 53, 0
1, 24667, Note_on_c, 0, 62, 0
1, 24672, Note_on_c, 0, 60, 94
1, 24672, Note_on_c, 1, 55, 78
1, 24672, Note_on_c, 1, 52, 78
1, 24761, Note_on_c, 1, 55, 0
1, 24761, Note_on_c, 1, 52, 0
1, 24768, Note_on_c, 0, 60, 0
1, 24768, Note_on_c, 0, 65, 75
1, 24768, Note_on_c, 1, 62, 80
1, 24791, Note_on_c, 0, 65, 0
1, 24791, Note_on_c, 1, 62, 0
1, 24792, Note_on_c, 0, 64, 75
1, 24792, Note_on_c, 1, 57, 80
1, 24815, Note_on_c, 0, 64, 0
1, 24815, Note_on_c, 1, 57, 0
1, 24816, Note_on_c, 0, 62, 75
1, 24816, Note_on_c, 1, 53, 80
1, 24839, Note_on_c, 0, 62, 0
1, 24839, Note_on_c, 1, 53, 0
1, 24840, Note_on_c, 0, 64, 75
1, 24840, Note_on_c, 1, 57, 80
1, 24863, Note_on_c, 0, 64, 0
1, 24863, Note_on_c, 1, 57, 0
1, 24864, Note_on_c, 0, 65, 75
1, 24864, Note_on_c, 1, 62, 80
1, 24887, Note_on_c, 0, 65, 0
1, 24887, Note_on_c, 1, 62, 0
1, 24888, Note_on_c, 0, 64, 75
1, 24888, Note_on_c, 1, 57, 80
1, 24911, Note_on_c, 0, 64, 0
1, 24911, Note_on_c, 1, 57, 0
1, 24912, Note_on_c, 0, 62, 75
1, 24912, Note_on_c, 1, 53, 80
1, 24935, Note_on_c, 0, 62, 0
1, 24935, Note_on_c, 1, 53, 0
1, 24936, Note_on_c, 0, 64, 75
1, 24936, Note_on_c, 1, 57, 80
1, 24959, Note_on_c, 0, 64, 0
1, 24959, Note_on_c, 1, 57, 0
1, 24960, Note_on_c, 0, 65, 75
1, 24960, Note_on_c, 1, 62, 80
1, 24983, Note_on_c, 0, 65, 0
1, 24983, Note_on_c, 1, 62, 0
1, 24984, Note_on_c, 0, 64, 75
1, 24984, Note_on_c, 1, 57, 80
1, 25007, Note_on_c, 0, 64, 0
1, 25007, Note_on_c, 1, 57, 0
1, 25008, Note_on_c, 0, 62, 75
1, 25008, Note_on_c, 1, 53, 80
1, 25031, Note_on_c, 0, 62, 0
1, 25031, Note_on_c, 1, 53, 0
1, 25032, Note_on_c, 0, 64, 75
1, 25032, Note_on_c, 1, 57, 80
1, 25055, Note_on_c, 0, 64, 0
1, 25055, Note_on_c, 1, 57, 0
1, 25056, Note_on_c, 0, 65, 75
1, 25056, Note_on_c, 1, 62, 80
1, 25080, Note_on_c, 0, 65, 0
1, 25080, Note_on_c, 0, 69, 75
1, 25145, Note_on_c, 1, 62, 0
1, 25147, Note_on_c, 0, 69, 0
1, 25152, Note_on_c, 0, 68, 77
1, 25152, Note_on_c, 1, 64, 83
1, 25152, Note_on_c, 1, 62, 83
1, 25176, Note_on_c, 0, 68, 0
1, 25176, Note_on_c, 0, 71, 78
1, 25241, Note_on_c, 1, 64, 0
1, 25241, Note_on_c, 1, 62, 0
1, 25243, Note_on_c, 0, 71, 0
1, 25248, Note_on_c, 0, 69, 96
1, 25248, Note_on_c, 1, 64, 86
1, 25248, Note_on_c, 1, 60, 86
1, 25337, Note_on_c, 1, 64, 0
1, 25337, Note_on_c, 1, 60, 0
1, 25344, Note_on_c, 0, 69, 0
1, 25344, Note_on_c, 0, 70, 75
1, 25344, Note_on_c, 1, 58, 86
1, 25344, Note_on_c, 1, 50, 86
1, 25344, Note_on_c, 1, 46, 86
1, 25392, Note_on_c, 0, 70, 0
1, 25392, Note_on_c, 0, 77, 75
1, 25433, Note_on_c, 1, 58, 0
1, 25433, Note_on_c, 1, 50, 0
1, 25433, Note_on_c, 1, 46, 0
1, 25437, Note_on_c, 0, 77, 0
1, 25440, Note_on_c, 0, 74, 75
1, 25485, Note_on_c, 0, 74, 0
1, 25488, Note_on_c, 0, 70, 75
1, 25533, Note_on_c, 0, 70, 0
1, 25536, Note_on_c, 0, 68, 75
1, 25536, Note_on_c, 1, 64, 86
1, 25584, Note_on_c, 0, 68, 0
1, 25584, Note_on_c, 0, 71, 75
1, 25625, Note_on_c, 1, 64, 0
1, 25629, Note_on_c, 0, 71, 0
1, 25632, Note_on_c, 0, 69, 75
1, 25632, Note_on_c, 1, 57, 86
1, 25632, Note_on_c, 1, 48, 86
1, 25632, Note_on_c, 1, 45, 86
1, 25680, Note_on_c, 0, 69, 0
1, 25680, Note_on_c, 0, 81, 75
1, 25721, Note_on_c, 1, 57, 0
1, 25721, Note_on_c, 1, 48, 0
1, 25721, Note_on_c, 1, 45, 0
1, 25725, Note_on_c, 0, 81, 0
1, 25728, Note_on_c, 0, 76, 76
1, 25773, Note_on_c, 0, 76, 0
1, 25776, Note_on_c, 0, 72, 77
1, 25821, Note_on_c, 0, 72, 0
1, 25824, Note_on_c, 0, 71, 78
1, 25824, Note_on_c, 1, 64, 86
1, 25869, Note_on_c, 0, 71, 0
1, 25872, Note_on_c, 0, 69, 79
1, 25913, Note_on_c, 1, 64, 0
1, 25917, Note_on_c, 0, 69, 0
1, 25920, Note_on_c, 0, 75, 80
1, 25920, Note_on_c, 1, 51, 80
1, 25920, Note_on_c, 1, 39, 80
1, 25959, Note_on_c, 0, 75, 0
1, 25959, Note_on_c, 1, 51, 0
1, 25959, Note_on_c, 1, 39, 0
1, 26016, Note_on_c, 0, 76, 80
1, 26016, Note_on_c, 1, 52, 80
1, 26016, Note_on_c, 1, 40, 80
1, 26055, Note_on_c, 0, 76, 0
1, 26055, Note_on_c, 1, 52, 0
1, 26055, Note_on_c, 1, 40, 0
1, 26112, Note_on_c, 0, 64, 80
1, 26112, Note_on_c, 1, 52, 80
1, 26112, Note_on_c, 1, 40, 80
1, 26151, Note_on_c, 0, 64, 0
1, 26151, Note_on_c, 1, 52, 0
1, 26151, Note_on_c, 1, 40, 0
1, 26208, Note_on_c, 0, 57, 80
1, 26208, Note_on_c, 1, 45, 80
1, 26208, Note_on_c, 1, 33, 80
1, 26297, Note_on_c, 0, 57, 0
1, 26297, Note_on_c, 1, 45, 0
1, 26297, Note_on_c, 1, 33, 0
1, 26400, Note_on_c, 1, 43, 75
1, 26424, Note_on_c, 0, 69, 80
1, 26447, Note_on_c, 0, 69, 0
1, 26448, Note_on_c, 0, 71, 80
1, 26471, Note_on_c, 0, 71, 0
1, 26472, Note_on_c, 0, 72, 80
1, 26495, Note_on_c, 0, 72, 0
1, 26496, Note_on_c, 0, 72, 80
1, 26496, Note_on_c, 1, 43, 0
1, 26496, Note_on_c, 1, 42, 75
1, 26506, Note_on_c, 0, 72, 0
1, 26520, Note_on_c, 0, 72, 80
1, 26535, Note_on_c, 1, 42, 0
1, 26543, Note_on_c, 0, 72, 0
1, 26544, Note_on_c, 0, 71, 80
1, 26567, Note_on_c, 0, 71, 0
1, 26568, Note_on_c, 0, 72, 80
1, 26591, Note_on_c, 0, 72, 0
1, 26592, Note_on_c, 0, 74, 80
1, 26615, Note_on_c, 0, 74, 0
1, 26616, Note_on_c, 0, 72, 80
1, 26639, Note_on_c, 0, 72, 0
1, 26640, Note_on_c, 0, 71, 80
1, 26663, Note_on_c, 0, 71, 0
1, 26664, Note_on_c, 0, 72, 80
1, 26687, Note_on_c, 0, 72, 0
1, 26688, Note_on_c, 0, 81, 80
1, 26688, Note_on_c, 1, 66, 70
1, 26688, Note_on_c, 1, 57, 70
1, 26688, Note_on_c, 1, 50, 70
1, 26727, Note_on_c, 0, 81, 0
1, 26784, Note_on_c, 0, 71, 80
1, 26784, Note_on_c, 1, 66, 0
1, 26784, Note_on_c, 1, 57, 0
1, 26784, Note_on_c, 1, 50, 0
1, 26784, Note_on_c, 1, 43, 70
1, 26794, Note_on_c, 0, 71, 0
1, 26808, Note_on_c, 0, 74, 80
1, 26823, Note_on_c, 1, 43, 0
1, 26831, Note_on_c, 0, 74, 0
1, 26832, Note_on_c, 0, 72, 80
1, 26855, Note_on_c, 0, 72, 0
1, 26856, Note_on_c, 0, 74, 80
1, 26879, Note_on_c, 0, 74, 0
1, 26880, Note_on_c, 0, 79, 80
1, 26903, Note_on_c, 0, 79, 0
1, 26904, Note_on_c, 0, 71, 80
1, 26927, Note_on_c, 0, 71, 0
1, 26928, Note_on_c, 0, 74, 80
1, 26951, Note_on_c, 0, 74, 0
1, 26952, Note_on_c, 0, 79, 80
1, 26975, Note_on_c, 0, 79, 0
1, 26976, Note_on_c, 0, 83, 80
1, 26976, Note_on_c, 1, 62, 64
1, 26976, Note_on_c, 1, 55, 64
1, 26976, Note_on_c, 1, 53, 64
1, 27015, Note_on_c, 0, 83, 0
1, 27072, Note_on_c, 0, 64, 70
1, 27072, Note_on_c, 1, 62, 0
1, 27072, Note_on_c, 1, 55, 0
1, 27072, Note_on_c, 1, 53, 0
1, 27072, Note_on_c, 1, 52, 70
1, 27092, Note_on_c, 0, 64, 0
1, 27120, Note_on_c, 0, 67, 86
1, 27161, Note_on_c, 1, 52, 0
1, 27168, Note_on_c, 1, 60, 70
1, 27216, Note_on_c, 0, 67, 0
1, 27216, Note_on_c, 0, 72, 70
1, 27257, Note_on_c, 1, 60, 0
1, 27264, Note_on_c, 1, 64, 70
1, 27305, Note_on_c, 0, 72, 0
1, 27312, Note_on_c, 0, 76, 70
1, 27353, Note_on_c, 1, 64, 0
1, 27357, Note_on_c, 0, 76, 0
1, 27360, Note_on_c, 0, 74, 70
1, 27360, Note_on_c, 1, 66, 70
1, 27383, Note_on_c, 0, 74, 0
1, 27384, Note_on_c, 0, 72, 71
1, 27407, Note_on_c, 0, 72, 0
1, 27408, Note_on_c, 0, 71, 72
1, 27431, Note_on_c, 0, 71, 0
1, 27432, Note_on_c, 0, 72, 73
1, 27449, Note_on_c, 1, 66, 0
1, 27455, Note_on_c, 0, 72, 0
1, 27456, Note_on_c, 0, 74, 74
1, 27456, Note_on_c, 1, 67, 70
1, 27479, Note_on_c, 0, 74, 0
1, 27480, Note_on_c, 0, 72, 75
1, 27503, Note_on_c, 0, 72, 0
1, 27504, Note_on_c, 0, 71, 74
1, 27527, Note_on_c, 0, 71, 0
1, 27528, Note_on_c, 0, 69, 73
1, 27545, Note_on_c, 1, 67, 0
1, 27551, Note_on_c, 0, 69, 0
1, 27552, Note_on_c, 0, 67, 72
1, 27575, Note_on_c, 0, 67, 0
1, 27576, Note_on_c, 0, 65, 72
1, 27599, Note_on_c, 0, 65, 0
1, 27600, Note_on_c, 0, 64, 71
1, 27623, Note_on_c, 0, 64, 0
1, 27624, Note_on_c, 0, 62, 70
1, 27647, Note_on_c, 0, 62, 0
1, 27648, Note_on_c, 0, 67, 70
1, 27648, Note_on_c, 1, 64, 70
1, 27648, Note_on_c, 1, 60, 70
1, 27660, Note_on_c, 0, 67, 0
1, 27660, Note_on_c, 0, 69, 70
1, 27672, Note_on_c, 0, 69, 0
1, 27672, Note_on_c, 0, 67, 70
1, 27715, Note_on_c, 0, 67, 0
1, 27720, Note_on_c, 0, 69, 70
1, 27737, Note_on_c, 1, 64, 0
1, 27737, Note_on_c, 1, 60, 0
1, 27743, Note_on_c, 0, 69, 0
1, 27744, Note_on_c, 0, 67, 71
1, 27744, Note_on_c, 1, 64, 70
1, 27744, Note_on_c, 1, 60, 70
1, 27756, Note_on_c, 0, 67, 0
1, 27756, Note_on_c, 0, 69, 71
1, 27768, Note_on_c, 0, 69, 0
1, 27768, Note_on_c, 0, 67, 71
1, 27811, Note_on_c, 0, 67, 0
1, 27816, Note_on_c, 0, 69, 71
1, 27833, Note_on_c, 1, 64, 0
1, 27833, Note_on_c, 1, 60, 0
1, 27839, Note_on_c, 0, 69, 0
1, 27840, Note_on_c, 0, 67, 72
1, 27840, Note_on_c, 1, 64, 71
1, 27840, Note_on_c, 1, 60, 71
1, 27852, Note_on_c, 0, 67, 0
1, 27852, Note_on_c, 0, 69, 72
1, 27864, Note_on_c, 0, 69, 0
1, 27864, Note_on_c, 0, 67, 72
1, 27907, Note_on_c, 0, 67, 0
1, 27912, Note_on_c, 0, 70, 73
1, 27929, Note_on_c, 1, 64, 0
1, 27929, Note_on_c, 1, 60, 0
1, 27935, Note_on_c, 0, 70, 0
1, 27936, Note_on_c, 0, 69, 73
1, 27936, Note_on_c, 1, 65, 72
1, 27936, Note_on_c, 1, 60, 72
1, 27948, Note_on_c, 0, 69, 0
1, 27948, Note_on_c, 0, 71, 73
1, 27960, Note_on_c, 0, 71, 0
1, 27960, Note_on_c, 0, 69, 73
1, 28003, Note_on_c, 0, 69, 0
1, 28008, Note_on_c, 0, 70, 74
1, 28025, Note_on_c, 1, 65, 0
1, 28025, Note_on_c, 1, 60, 0
1, 28031, Note_on_c, 0, 70, 0
1, 28032, Note_on_c, 0, 69, 74
1, 28032, Note_on_c, 1, 65, 73
1, 28032, Note_on_c, 1, 60, 73
1, 28044, Note_on_c, 0, 69, 0
1, 28044, Note_on_c, 0, 71, 74
1, 28056, Note_on_c, 0, 71, 0
1, 28056, Note_on_c, 0, 69, 74
1, 28099, Note_on_c, 0, 69, 0
1, 28104, Note_on_c, 0, 70, 75
1, 28121, Note_on_c, 1, 65, 0
1, 28121, Note_on_c, 1, 60, 0
1, 28127, Note_on_c, 0, 70, 0
1, 28128, Note_on_c, 0, 69, 75
1, 28128, Note_on_c, 1, 65, 74
1, 28128, Note_on_c, 1, 60, 74
1, 28140, Note_on_c, 0, 69, 0
1, 28140, Note_on_c, 0, 71, 75
1, 28152, Note_on_c, 0, 71, 0
1, 28152, Note_on_c, 0, 69, 75
1, 28195, Note_on_c, 0, 69, 0
1, 28200, Note_on_c, 0, 72, 76
1, 28217, Note_on_c, 1, 65, 0
1, 28217, Note_on_c, 1, 60, 0
1, 28223, Note_on_c, 0, 72, 0
1, 28224, Note_on_c, 0, 71, 76
1, 28236, Note_on_c, 0, 71, 0
1, 28236, Note_on_c, 0, 72, 76
1, 28248, Note_on_c, 0, 72, 0
1, 28248, Note_on_c, 0, 71, 76
1, 28291, Note_on_c, 0, 71, 0
1, 28296, Note_on_c, 0, 74, 77
1, 28296, Note_on_c, 0, 71, 77
1, 28296, Note_on_c, 0, 65, 77
1, 28319, Note_on_c, 0, 74, 0
1, 28319, Note_on_c, 0, 71, 0
1, 28319, Note_on_c, 0, 65, 0
1, 28320, Note_on_c, 0, 72, 77
1, 28332, Note_on_c, 0, 72, 0
1, 28332, Note_on_c, 0, 74, 77
1, 28344, Note_on_c, 0, 74, 0
1, 28344, Note_on_c, 0, 72, 77
1, 28387, Note_on_c, 0, 72, 0
1, 28392, Note_on_c, 0, 76, 78
1, 28392, Note_on_c, 0, 72, 78
1, 28392, Note_on_c, 0, 64, 78
1, 28415, Note_on_c, 0, 76, 0
1, 28415, Note_on_c, 0, 72, 0
1, 28415, Note_on_c, 0, 64, 0
1, 28416, Note_on_c, 0, 74, 78
1, 28428, Note_on_c, 0, 74, 0
1, 28428, Note_on_c, 0, 76, 78
1, 28440, Note_on_c, 0, 76, 0
1, 28440, Note_on_c, 0, 74, 78
1, 28483, Note_on_c, 0, 74, 0
1, 28488, Note_on_c, 0, 77, 79
1, 28488, Note_on_c, 0, 71, 79
1, 28488, Note_on_c, 0, 62, 79
1, 28511, Note_on_c, 0, 77, 0
1, 28511, Note_on_c, 0, 71, 0
1, 28511, Note_on_c, 0, 62, 0
1, 28512, Note_on_c, 0, 64, 80
1, 28512, Note_on_c, 1, 60, 75
1, 28518, Note_on_c, 0, 64, 0
1, 28518, Note_on_c, 0, 65, 80
1, 28524, Note_on_c, 0, 65, 0
1, 28524, Note_on_c, 0, 64, 80
1, 28542, Note_on_c, 0, 64, 0
1, 28542, Note_on_c, 1, 60, 0
1, 28544, Note_on_c, 0, 62, 79
1, 28544, Note_on_c, 1, 55, 74
1, 28574, Note_on_c, 0, 62, 0
1, 28574, Note_on_c, 1, 55, 0
1, 28576, Note_on_c, 0, 60, 78
1, 28576, Note_on_c, 1, 52, 73
1, 28606, Note_on_c, 0, 60, 0
1, 28606, Note_on_c, 1, 52, 0
1, 28608, Note_on_c, 0, 64, 78
1, 28608, Note_on_c, 1, 60, 73
1, 28614, Note_on_c, 0, 64, 0
1, 28614, Note_on_c, 0, 65, 78
1, 28620, Note_on_c, 0, 65, 0
1, 28620, Note_on_c, 0, 64, 78
1, 28638, Note_on_c, 0, 64, 0
1, 28638, Note_on_c, 1, 60, 0
1, 28640, Note_on_c, 0, 62, 77
1, 28640, Note_on_c, 1, 55, 72
1, 28670, Note_on_c, 0, 62, 0
1, 28670, Note_on_c, 1, 55, 0
1, 28672, Note_on_c, 0, 60, 77
1, 28672, Note_on_c, 1, 52, 72
1, 28702, Note_on_c, 0, 60, 0
1, 28702, Note_on_c, 1, 52, 0
1, 28704, Note_on_c, 0, 64, 76
1, 28704, Note_on_c, 1, 60, 71
1, 28710, Note_on_c, 0, 64, 0
1, 28710, Note_on_c, 0, 65, 76
1, 28716, Note_on_c, 0, 65, 0
1, 28716, Note_on_c, 0, 64, 76
1, 28734, Note_on_c, 0, 64, 0
1, 28734, Note_on_c, 1, 60, 0
1, 28736, Note_on_c, 0, 62, 76
1, 28736, Note_on_c, 1, 55, 71
1, 28766, Note_on_c, 0, 62, 0
1, 28766, Note_on_c, 1, 55, 0
1, 28768, Note_on_c, 0, 60, 75
1, 28768, Note_on_c, 1, 52, 70
1, 28798, Note_on_c, 0, 60, 0
1, 28798, Note_on_c, 1, 52, 0
1, 28800, Note_on_c, 0, 67, 75
1, 28800, Note_on_c, 0, 59, 75
1, 28800, Note_on_c, 1, 55, 70
1, 28800, Note_on_c, 1, 43, 70
1, 28955, Note_on_c, 0, 67, 0
1, 28955, Note_on_c, 0, 59, 0
1, 28977, Note_on_c, 1, 55, 0
1, 28977, Note_on_c, 1, 43, 0
1, 28992, Note_on_c, 0, 72, 91
1, 28992, Note_on_c, 0, 63, 91
1, 28992, Note_on_c, 1, 60, 91
1, 28992, Note_on_c, 1, 48, 91
1, 29031, Note_on_c, 0, 72, 0
1, 29031, Note_on_c, 0, 63, 0
1, 29031, Note_on_c, 1, 60, 0
1, 29031, Note_on_c, 1, 48, 0
1, 29088, Note_on_c, 0, 71, 91
1, 29088, Note_on_c, 0, 65, 91
1, 29088, Note_on_c, 1, 62, 75
1, 29088, Note_on_c, 1, 50, 75
1, 29127, Note_on_c, 0, 71, 0
1, 29127, Note_on_c, 0, 65, 0
1, 29127, Note_on_c, 1, 62, 0
1, 29127, Note_on_c, 1, 50, 0
1, 29184, Note_on_c, 0, 72, 76
1, 29184, Note_on_c, 0, 67, 76
1, 29184, Note_on_c, 1, 63, 75
1, 29184, Note_on_c, 1, 51, 75
1, 29223, Note_on_c, 0, 72, 0
1, 29223, Note_on_c, 0, 67, 0
1, 29223, Note_on_c, 1, 63, 0
1, 29223, Note_on_c, 1, 51, 0
1, 29280, Note_on_c, 0, 80, 94
1, 29280, Note_on_c, 0, 77, 94
1, 29280, Note_on_c, 1, 59, 91
1, 29280, Note_on_c, 1, 47, 91
1, 29376, Note_on_c, 1, 59, 0
1, 29376, Note_on_c, 1, 47, 0
1, 29376, Note_on_c, 1, 60, 75
1, 29376, Note_on_c, 1, 48, 75
1, 29465, Note_on_c, 0, 80, 0
1, 29465, Note_on_c, 0, 77, 0
1, 29472, Note_on_c, 0, 79, 80
1, 29472, Note_on_c, 0, 75, 80
1, 29553, Note_on_c, 1, 60, 0
1, 29553, Note_on_c, 1, 48, 0
1, 29561, Note_on_c, 0, 79, 0
1, 29561, Note_on_c, 0, 75, 0
1, 29568, Note_on_c, 0, 77, 80
1, 29568, Note_on_c, 0, 68, 80
1, 29568, Note_on_c, 1, 59, 75
1, 29607, Note_on_c, 0, 77, 0
1, 29607, Note_on_c, 0, 68, 0
1, 29657, Note_on_c, 1, 59, 0
1, 29664, Note_on_c, 0, 75, 80
1, 29664, Note_on_c, 0, 67, 80
1, 29664, Note_on_c, 1, 60, 75
1, 29712, Note_on_c, 0, 75, 0
1, 29712, Note_on_c, 0, 67, 0
1, 29712, Note_on_c, 0, 74, 79
1, 29712, Note_on_c, 0, 65, 79
1, 29712, Note_on_c, 1, 60, 0
1, 29712, Note_on_c, 1, 53, 75
1, 29757, Note_on_c, 0, 74, 0
1, 29757, Note_on_c, 0, 65, 0
1, 29757, Note_on_c, 1, 53, 0
1, 29760, Note_on_c, 0, 72, 78
1, 29760, Note_on_c, 0, 63, 78
1, 29760, Note_on_c, 1, 55, 75
1, 29799, Note_on_c, 0, 72, 0
1, 29799, Note_on_c, 0, 63, 0
1, 29849, Note_on_c, 1, 55, 0
1, 29856, Note_on_c, 0, 71, 76
1, 29856, Note_on_c, 0, 62, 76
1, 29856, Note_on_c, 1, 43, 75
1, 29895, Note_on_c, 0, 71, 0
1, 29895, Note_on_c, 0, 62, 0
1, 29945, Note_on_c, 1, 43, 0
1, 29952, Note_on_c, 0, 71, 91
1, 29952, Note_on_c, 0, 63, 91
1, 29952, Note_on_c, 1, 48, 75
1, 30041, Note_on_c, 1, 48, 0
1, 30048, Note_on_c, 0, 71, 0
1, 30048, Note_on_c, 0, 72, 75
1, 30048, Note_on_c, 1, 36, 75
1, 30137, Note_on_c, 0, 72, 0
1, 30137, Note_on_c, 0, 63, 0
1, 30137, Note_on_c, 1, 36, 0
1, 30144, Note_on_c, 0, 82, 75
1, 30144, Note_on_c, 1, 64, 70
1, 30167, Note_on_c, 0, 82, 0
1, 30168, Note_on_c, 0, 80, 76
1, 30191, Note_on_c, 0, 80, 0
1, 30192, Note_on_c, 0, 82, 78
1, 30215, Note_on_c, 0, 82, 0
1, 30216, Note_on_c, 0, 84, 80
1, 30239, Note_on_c, 0, 84, 0
1, 30240, Note_on_c, 0, 82, 79
1, 30240, Note_on_c, 1, 64, 0
1, 30240, Note_on_c, 1, 65, 70
1, 30336, Note_on_c, 0, 82, 0
1, 30336, Note_on_c, 0, 80, 77
1, 30417, Note_on_c, 1, 65, 0
1, 30425, Note_on_c, 0, 80, 0
1, 30432, Note_on_c, 0, 80, 75
1, 30432, Note_on_c, 1, 62, 70
1, 30455, Note_on_c, 0, 80, 0
1, 30456, Note_on_c, 0, 79, 76
1, 30479, Note_on_c, 0, 79, 0
1, 30480, Note_on_c, 0, 80, 78
1, 30503, Note_on_c, 0, 80, 0
1, 30504, Note_on_c, 0, 82, 80
1, 30527, Note_on_c, 0, 82, 0
1, 30528, Note_on_c, 0, 80, 79
1, 30528, Note_on_c, 1, 62, 0
1, 30528, Note_on_c, 1, 63, 70
1, 30624, Note_on_c, 0, 80, 0
1, 30624, Note_on_c, 0, 79, 77
1, 30705, Note_on_c, 1, 63, 0
1, 30713, Note_on_c, 0, 79, 0
1, 30720, Note_on_c, 0, 75, 80
1, 30720, Note_on_c, 0, 72, 80
1, 30720, Note_on_c, 1, 54, 80
1, 30720, Note_on_c, 1, 42, 80
1, 30759, Note_on_c, 0, 75, 0
1, 30759, Note_on_c, 0, 72, 0
1, 30816, Note_on_c, 0, 74, 80
1, 30816, Note_on_c, 0, 71, 80
1, 30816, Note_on_c, 1, 54, 0
1, 30816, Note_on_c, 1, 42, 0
1, 30816, Note_on_c, 1, 55, 80
1, 30816, Note_on_c, 1, 43, 80
1, 30855, Note_on_c, 0, 74, 0
1, 30855, Note_on_c, 0, 71, 0
1, 30905, Note_on_c, 1, 55, 0
1, 30905, Note_on_c, 1, 43, 0
1, 30912, Note_on_c, 0, 60, 75
1, 30912, Note_on_c, 1, 56, 96
1, 30912, Note_on_c, 1, 44, 96
1, 30957, Note_on_c, 0, 60, 0
1, 30960, Note_on_c, 0, 62, 75
1, 31005, Note_on_c, 0, 62, 0
1, 31008, Note_on_c, 0, 63, 75
1, 31075, Note_on_c, 0, 63, 0
1, 31080, Note_on_c, 0, 66, 75
1, 31103, Note_on_c, 0, 66, 0
1, 31104, Note_on_c, 0, 66, 91
1, 31104, Note_on_c, 0, 60, 91
1, 31104, Note_on_c, 1, 56, 0
1, 31104, Note_on_c, 1, 44, 0
1, 31104, Note_on_c, 1, 55, 80
1, 31104, Note_on_c, 1, 43, 80
1, 31200, Note_on_c, 0, 66, 0
1, 31200, Note_on_c, 0, 60, 0
1, 31200, Note_on_c, 0, 67, 75
1, 31200, Note_on_c, 0, 59, 75
1, 31281, Note_on_c, 1, 55, 0
1, 31281, Note_on_c, 1, 43, 0
1, 31289, Note_on_c, 0, 67, 0
1, 31289, Note_on_c, 0, 59, 0
1, 31296, Note_on_c, 0, 72, 91
1, 31296, Note_on_c, 0, 63, 91
1, 31296, Note_on_c, 1, 60, 91
1, 31296, Note_on_c, 1, 48, 91
1, 31335, Note_on_c, 0, 72, 0
1, 31335, Note_on_c, 0, 63, 0
1, 31335, Note_on_c, 1, 60, 0
1, 31335, Note_on_c, 1, 48, 0
1, 31392, Note_on_c, 0, 71, 91
1, 31392, Note_on_c, 0, 65, 91
1, 31392, Note_on_c, 1, 62, 75
1, 31392, Note_on_c, 1, 50, 75
1, 31431, Note_on_c, 0, 71, 0
1, 31431, Note_on_c, 0, 65, 0
1, 31431, Note_on_c, 1, 62, 0
1, 31431, Note_on_c, 1, 50, 0
1, 31488, Note_on_c, 0, 72, 76
1, 31488, Note_on_c, 0, 67, 76
1, 31488, Note_on_c, 1, 63, 75
1, 31488, Note_on_c, 1, 51, 75
1, 31527, Note_on_c, 0, 72, 0
1, 31527, Note_on_c, 0, 67, 0
1, 31527, Note_on_c, 1, 63, 0
1, 31527, Note_on_c, 1, 51, 0
1, 31584, Note_on_c, 0, 80, 94
1, 31584, Note_on_c, 0, 77, 94
1, 31584, Note_on_c, 1, 59, 91
1, 31584, Note_on_c, 1, 47, 91
1, 31680, Note_on_c, 1, 59, 0
1, 31680, Note_on_c, 1, 47, 0
1, 31680, Note_on_c, 1, 60, 75
1, 31680, Note_on_c, 1, 48, 75
1, 31769, Note_on_c, 0, 80, 0
1, 31769, Note_on_c, 0, 77, 0
1, 31776, Note_on_c, 0, 79, 80
1, 31776, Note_on_c, 0, 75, 80
1, 31857, Note_on_c, 1, 60, 0
1, 31857, Note_on_c, 1, 48, 0
1, 31865, Note_on_c, 0, 79, 0
1, 31865, Note_on_c, 0, 75, 0
1, 31872, Note_on_c, 0, 77, 80
1, 31872, Note_on_c, 0, 68, 80
1, 31872, Note_on_c, 1, 59, 75
1, 31911, Note_on_c, 0, 77, 0
1, 31911, Note_on_c, 0, 68, 0
1, 31961, Note_on_c, 1, 59, 0
1, 31968, Note_on_c, 0, 75, 80
1, 31968, Note_on_c, 0, 67, 80
1, 31968, Note_on_c, 1, 60, 75
1, 32016, Note_on_c, 0, 75, 0
1, 32016, Note_on_c, 0, 67, 0
1, 32016, Note_on_c, 0, 74, 79
1, 32016, Note_on_c, 0, 65, 79
1, 32016, Note_on_c, 1, 60, 0
1, 32016, Note_on_c, 1, 53, 75
1, 32061, Note_on_c, 0, 74, 0
1, 32061, Note_on_c, 0, 65, 0
1, 32061, Note_on_c, 1, 53, 0
1, 32064, Note_on_c, 0, 72, 78
1, 32064, Note_on_c, 0, 63, 78
1, 32064, Note_on_c, 1, 55, 75
1, 32103, Note_on_c, 0, 72, 0
1, 32103, Note_on_c, 0, 63, 0
1, 32153, Note_on_c, 1, 55, 0
1, 32160, Note_on_c, 0, 71, 76
1, 32160, Note_on_c, 0, 62, 76
1, 32160, Note_on_c, 1, 43, 75
1, 32199, Note_on_c, 0, 71, 0
1, 32199, Note_on_c, 0, 62, 0
1, 32249, Note_on_c, 1, 43, 0
1, 32256, Note_on_c, 0, 71, 91
1, 32256, Note_on_c, 0, 63, 91
1, 32256, Note_on_c, 1, 48, 75
1, 32345, Note_on_c, 1, 48, 0
1, 32352, Note_on_c, 0, 71, 0
1, 32352, Note_on_c, 0, 72, 75
1, 32352, Note_on_c, 1, 36, 75
1, 32441, Note_on_c, 0, 72, 0
1, 32441, Note_on_c, 0, 63, 0
1, 32441, Note_on_c, 1, 36, 0
1, 32448, Note_on_c, 0, 82, 75
1, 32448, Note_on_c, 1, 64, 70
1, 32471, Note_on_c, 0, 82, 0
1, 32472, Note_on_c, 0, 80, 76
1, 32495, Note_on_c, 0, 80, 0
1, 32496, Note_on_c, 0, 82, 78
1, 32519, Note_on_c, 0, 82, 0
1, 32520, Note_on_c, 0, 84, 80
1, 32543, Note_on_c, 0, 84, 0
1, 32544, Note_on_c, 0, 82, 79
1, 32544, Note_on_c, 1, 64, 0
1, 32544, Note_on_c, 1, 65, 70
1, 32640, Note_on_c, 0, 82, 0
1, 32640, Note_on_c, 0, 80, 77
1, 32721, Note_on_c, 1, 65, 0
1, 32729, Note_on_c, 0, 80, 0
1, 32736, Note_on_c, 0, 80, 75
1, 32736, Note_on_c, 1, 62, 70
1, 32759, Note_on_c, 0, 80, 0
1, 32760, Note_on_c, 0, 79, 76
1, 32783, Note_on_c, 0, 79, 0
1, 32784, Note_on_c, 0, 80, 78
1, 32807, Note_on_c, 0, 80, 0
1, 32808, Note_on_c, 0, 82, 80
1, 32831, Note_on_c, 0, 82, 0
1, 32832, Note_on_c, 0, 80, 79
1, 32832, Note_on_c, 1, 62, 0
1, 32832, Note_on_c, 1, 63, 70
1, 32928, Note_on_c, 0, 80, 0
1, 32928, Note_on_c, 0, 79, 77
1, 33009, Note_on_c, 1, 63, 0
1, 33017, Note_on_c, 0, 79, 0
1, 33024, Note_on_c, 0, 75, 80
1, 33024, Note_on_c, 0, 72, 80
1, 33024, Note_on_c, 1, 54, 80
1, 33024, Note_on_c, 1, 42, 80
1, 33063, Note_on_c, 0, 75, 0
1, 33063, Note_on_c, 0, 72, 0
1, 33120, Note_on_c, 0, 74, 80
1, 33120, Note_on_c, 0, 71, 80
1, 33120, Note_on_c, 1, 54, 0
1, 33120, Note_on_c, 1, 42, 0
1, 33120, Note_on_c, 1, 55, 80
1, 33120, Note_on_c, 1, 43, 80
1, 33159, Note_on_c, 0, 74, 0
1, 33159, Note_on_c, 0, 71, 0
1, 33209, Note_on_c, 1, 55, 0
1, 33209, Note_on_c, 1, 43, 0
1, 33216, Note_on_c, 0, 60, 75
1, 33216, Note_on_c, 1, 56, 96
1, 33216, Note_on_c, 1, 44, 96
1, 33261, Note_on_c, 0, 60, 0
1, 33264, Note_on_c, 0, 62, 75
1, 33309, Note_on_c, 0, 62, 0
1, 33312, Note_on_c, 0, 63, 75
1, 33379, Note_on_c, 0, 63, 0
1, 33384, Note_on_c, 0, 66, 75
1, 33407, Note_on_c, 0, 66, 0
1, 33408, Note_on_c, 0, 66, 91
1, 33408, Note_on_c, 0, 60, 91
1, 33408, Note_on_c, 1, 56, 0
1, 33408, Note_on_c, 1, 44, 0
1, 33408, Note_on_c, 1, 55, 80
1, 33408, Note_on_c, 1, 43, 80
1, 33504, Note_on_c, 0, 66, 0
1, 33504, Note_on_c, 0, 60, 0
1, 33504, Note_on_c, 0, 67, 75
1, 33504, Note_on_c, 0, 59, 75
1, 33585, Note_on_c, 1, 55, 0
1, 33585, Note_on_c, 1, 43, 0
1, 33593, Note_on_c, 0, 67, 0
1, 33593, Note_on_c, 0, 59, 0
1, 33600, Note_on_c, 0, 70, 70
1, 33613, Note_on_c, 0, 70, 0
1, 33614, Note_on_c, 0, 72, 71
1, 33627, Note_on_c, 0, 72, 0
1, 33628, Note_on_c, 0, 70, 72
1, 33641, Note_on_c, 0, 70, 0
1, 33642, Note_on_c, 0, 72, 73
1, 33655, Note_on_c, 0, 72, 0
1, 33656, Note_on_c, 0, 70, 74
1, 33669, Note_on_c, 0, 70, 0
1, 33670, Note_on_c, 0, 68, 74
1, 33682, Note_on_c, 0, 68, 0
1, 33683, Note_on_c, 0, 70, 72
1, 33695, Note_on_c, 0, 70, 0
1, 33696, Note_on_c, 0, 75, 70
1, 33696, Note_on_c, 0, 67, 70
1, 33785, Note_on_c, 0, 75, 0
1, 33785, Note_on_c, 0, 67, 0
1, 33792, Note_on_c, 0, 70, 70
1, 33792, Note_on_c, 0, 63, 70
1, 33881, Note_on_c, 0, 70, 0
1, 33881, Note_on_c, 0, 63, 0
1, 33888, Note_on_c, 0, 70, 70
1, 33888, Note_on_c, 0, 63, 70
1, 33888, Note_on_c, 1, 51, 70
1, 33901, Note_on_c, 1, 51, 0
1, 33902, Note_on_c, 1, 53, 71
1, 33915, Note_on_c, 1, 53, 0
1, 33916, Note_on_c, 1, 51, 73
1, 33929, Note_on_c, 1, 51, 0
1, 33930, Note_on_c, 1, 53, 75
1, 33943, Note_on_c, 1, 53, 0
1, 33944, Note_on_c, 1, 51, 74
1, 33957, Note_on_c, 1, 51, 0
1, 33958, Note_on_c, 1, 50, 73
1, 33970, Note_on_c, 1, 50, 0
1, 33971, Note_on_c, 1, 51, 72
1, 33977, Note_on_c, 0, 70, 0
1, 33977, Note_on_c, 0, 63, 0
1, 33983, Note_on_c, 1, 51, 0
1, 33984, Note_on_c, 0, 77, 70
1, 33984, Note_on_c, 0, 68, 70
1, 33984, Note_on_c, 1, 50, 70
1, 34073, Note_on_c, 0, 77, 0
1, 34073, Note_on_c, 0, 68, 0
1, 34073, Note_on_c, 1, 50, 0
1, 34080, Note_on_c, 0, 70, 70
1, 34080, Note_on_c, 1, 65, 70
1, 34169, Note_on_c, 0, 70, 0
1, 34169, Note_on_c, 1, 65, 0
1, 34176, Note_on_c, 0, 77, 70
1, 34176, Note_on_c, 0, 70, 64
1, 34176, Note_on_c, 1, 65, 70
1, 34189, Note_on_c, 0, 77, 0
1, 34190, Note_on_c, 0, 79, 71
1, 34203, Note_on_c, 0, 79, 0
1, 34204, Note_on_c, 0, 77, 73
1, 34217, Note_on_c, 0, 77, 0
1, 34218, Note_on_c, 0, 79, 75
1, 34231, Note_on_c, 0, 79, 0
1, 34232, Note_on_c, 0, 77, 74
1, 34245, Note_on_c, 0, 77, 0
1, 34246, Note_on_c, 0, 75, 73
1, 34258, Note_on_c, 0, 75, 0
1, 34259, Note_on_c, 0, 77, 72
1, 34265, Note_on_c, 0, 70, 0
1, 34265, Note_on_c, 1, 65, 0
1, 34271, Note_on_c, 0, 77, 0
1, 34272, Note_on_c, 0, 79, 70
1, 34272, Note_on_c, 1, 63, 70
1, 34317, Note_on_c, 0, 79, 0
1, 34320, Note_on_c, 0, 82, 70
1, 34361, Note_on_c, 1, 63, 0
1, 34365, Note_on_c, 0, 82, 0
1, 34368, Note_on_c, 0, 80, 71
1, 34368, Note_on_c, 1, 55, 71
1, 34413, Note_on_c, 0, 80, 0
1, 34416, Note_on_c, 0, 79, 72
1, 34457, Note_on_c, 1, 55, 0
1, 34461, Note_on_c, 0, 79, 0
1, 34464, Note_on_c, 0, 77, 73
1, 34464, Note_on_c, 1, 56, 73
1, 34509, Note_on_c, 0, 77, 0
1, 34512, Note_on_c, 0, 75, 74
1, 34512, Note_on_c, 0, 67, 74
1, 34553, Note_on_c, 1, 56, 0
1, 34557, Note_on_c, 0, 75, 0
1, 34557, Note_on_c, 0, 67, 0
1, 34560, Note_on_c, 0, 75, 75
1, 34560, Note_on_c, 0, 67, 75
1, 34560, Note_on_c, 1, 58, 75
1, 34649, Note_on_c, 1, 58, 0
1, 34656, Note_on_c, 0, 75, 0
1, 34656, Note_on_c, 0, 67, 0
1, 34656, Note_on_c, 0, 74, 72
1, 34656, Note_on_c, 0, 65, 72
1, 34656, Note_on_c, 1, 56, 72
1, 34745, Note_on_c, 0, 74, 0
1, 34745, Note_on_c, 0, 65, 0
1, 34745, Note_on_c, 1, 56, 0
1, 34752, Note_on_c, 0, 73, 70
1, 34752, Note_on_c, 0, 70, 70
1, 34752, Note_on_c, 1, 55, 70
1, 34765, Note_on_c, 1, 55, 0
1, 34766, Note_on_c, 1, 56, 70
1, 34779, Note_on_c, 1, 56, 0
1, 34780, Note_on_c, 1, 55, 70
1, 34793, Note_on_c, 1, 55, 0
1, 34794, Note_on_c, 1, 56, 70
1, 34807, Note_on_c, 1, 56, 0
1, 34808, Note_on_c, 1, 55, 70
1, 34821, Note_on_c, 1, 55, 0
1, 34822, Note_on_c, 1, 53, 71
1, 34834, Note_on_c, 1, 53, 0
1, 34835, Note_on_c, 1, 55, 71
1, 34847, Note_on_c, 1, 55, 0
1, 34848, Note_on_c, 1, 56, 71
1, 34937, Note_on_c, 1, 56, 0
1, 34944, Note_on_c, 0, 73, 0
1, 34944, Note_on_c, 0, 70, 0
1, 34944, Note_on_c, 0, 72, 73
1, 34944, Note_on_c, 0, 68, 73
1, 34944, Note_on_c, 1, 44, 73
1, 35033, Note_on_c, 1, 44, 0
1, 35038, Note_on_c, 0, 72, 0
1, 35038, Note_on_c, 0, 68, 0
1, 35040, Note_on_c, 0, 75, 75
1, 35040, Note_on_c, 0, 72, 75
1, 35040, Note_on_c, 1, 57, 74
1, 35053, Note_on_c, 1, 57, 0
1, 35054, Note_on_c, 1, 58, 75
1, 35067, Note_on_c, 1, 58, 0
1, 35068, Note_on_c, 1, 57, 75
1, 35081, Note_on_c, 1, 57, 0
1, 35082, Note_on_c, 1, 58, 75
1, 35095, Note_on_c, 1, 58, 0
1, 35096, Note_on_c, 1, 57, 75
1, 35109, Note_on_c, 1, 57, 0
1, 35110, Note_on_c, 1, 55, 75
1, 35122, Note_on_c, 1, 55, 0
1, 35123, Note_on_c, 1, 57, 76
1, 35135, Note_on_c, 1, 57, 0
1, 35136, Note_on_c, 1, 58, 76
1, 35225, Note_on_c, 1, 58, 0
1, 35232, Note_on_c, 0, 75, 0
1, 35232, Note_on_c, 0, 72, 0
1, 35232, Note_on_c, 0, 74, 78
1, 35232, Note_on_c, 0, 70, 78
1, 35232, Note_on_c, 1, 46, 77
1, 35321, Note_on_c, 1, 46, 0
1, 35326, Note_on_c, 0, 74, 0
1, 35326, Note_on_c, 0, 70, 0
1, 35328, Note_on_c, 0, 63, 80
1, 35328, Note_on_c, 0, 58, 64
1, 35328, Note_on_c, 1, 53, 80
1, 35341, Note_on_c, 0, 63, 0
1, 35342, Note_on_c, 0, 65, 80
1, 35343, Note_on_c, 1, 53, 0
1, 35344, Note_on_c, 1, 51, 80
1, 35355, Note_on_c, 0, 65, 0
1, 35356, Note_on_c, 0, 63, 80
1, 35359, Note_on_c, 1, 51, 0
1, 35360, Note_on_c, 1, 53, 80
1, 35369, Note_on_c, 0, 63, 0
1, 35370, Note_on_c, 0, 65, 80
1, 35375, Note_on_c, 1, 53, 0
1, 35376, Note_on_c, 1, 51, 80
1, 35383, Note_on_c, 0, 65, 0
1, 35384, Note_on_c, 0, 63, 80
1, 35391, Note_on_c, 1, 51, 0
1, 35392, Note_on_c, 1, 50, 80
1, 35397, Note_on_c, 0, 63, 0
1, 35398, Note_on_c, 0, 62, 80
1, 35407, Note_on_c, 1, 50, 0
1, 35408, Note_on_c, 1, 51, 80
1, 35410, Note_on_c, 0, 62, 0
1, 35411, Note_on_c, 0, 63, 80
1, 35417, Note_on_c, 0, 58, 0
1, 35423, Note_on_c, 0, 63, 0
1, 35423, Note_on_c, 1, 51, 0
1, 35424, Note_on_c, 0, 65, 80
1, 35424, Note_on_c, 0, 60, 80
1, 35424, Note_on_c, 0, 56, 80
1, 35424, Note_on_c, 1, 44, 80
1, 35513, Note_on_c, 1, 44, 0
1, 35520, Note_on_c, 0, 65, 0
1, 35520, Note_on_c, 0, 60, 0
1, 35520, Note_on_c, 0, 56, 0
1, 35520, Note_on_c, 0, 68, 80
1, 35609, Note_on_c, 0, 68, 0
1, 35616, Note_on_c, 0, 62, 80
1, 35616, Note_on_c, 0, 56, 80
1, 35616, Note_on_c, 1, 46, 80
1, 35655, Note_on_c, 0, 62, 0
1, 35655, Note_on_c, 0, 56, 0
1, 35655, Note_on_c, 1, 46, 0
1, 35712, Note_on_c, 0, 63, 80
1, 35712, Note_on_c, 0, 55, 80
1, 35712, Note_on_c, 1, 51, 80
1, 35801, Note_on_c, 1, 51, 0
1, 35808, Note_on_c, 1, 39, 80
1, 35889, Note_on_c, 0, 63, 0
1, 35889, Note_on_c, 0, 55, 0
1, 35897, Note_on_c, 1, 39, 0
1, 35904, Note_on_c, 0, 84, 75
1, 35904, Note_on_c, 0, 79, 75
1, 35904, Note_on_c, 0, 75, 75
1, 35943, Note_on_c, 0, 84, 0
1, 35943, Note_on_c, 0, 79, 0
1, 35943, Note_on_c, 0, 75, 0
1, 36000, Note_on_c, 0, 83, 75
1, 36000, Note_on_c, 0, 77, 75
1, 36000, Note_on_c, 0, 74, 75
1, 36039, Note_on_c, 0, 83, 0
1, 36039, Note_on_c, 0, 77, 0
1, 36039, Note_on_c, 0, 74, 0
1, 36096, Note_on_c, 0, 84, 75
1, 36096, Note_on_c, 0, 79, 75
1, 36096, Note_on_c, 0, 75, 75
1, 36135, Note_on_c, 0, 84, 0
1, 36135, Note_on_c, 0, 79, 0
1, 36135, Note_on_c, 0, 75, 0
1, 36192, Note_on_c, 0, 61, 91
1, 36192, Note_on_c, 1, 56, 80
1, 36192, Note_on_c, 1, 53, 80
1, 36288, Note_on_c, 1, 56, 0
1, 36288, Note_on_c, 1, 53, 0
1, 36288, Note_on_c, 1, 55, 80
1, 36288, Note_on_c, 1, 52, 80
1, 36377, Note_on_c, 0, 61, 0
1, 36377, Note_on_c, 1, 55, 0
1, 36377, Note_on_c, 1, 52, 0
1, 36384, Note_on_c, 0, 60, 75
1, 36473, Note_on_c, 0, 60, 0
1, 36480, Note_on_c, 0, 52, 80
1, 36480, Note_on_c, 1, 41, 80
1, 36493, Note_on_c, 0, 52, 0
1, 36494, Note_on_c, 0, 53, 80
1, 36495, Note_on_c, 1, 41, 0
1, 36496, Note_on_c, 1, 40, 80
1, 36507, Note_on_c, 0, 53, 0
1, 36508, Note_on_c, 0, 52, 80
1, 36511, Note_on_c, 1, 40, 0
1, 36512, Note_on_c, 1, 41, 80
1, 36521, Note_on_c, 0, 52, 0
1, 36522, Note_on_c, 0, 53, 80
1, 36527, Note_on_c, 1, 41, 0
1, 36528, Note_on_c, 1, 40, 80
1, 36535, Note_on_c, 0, 53, 0
1, 36536, Note_on_c, 0, 52, 80
1, 36543, Note_on_c, 1, 40, 0
1, 36544, Note_on_c, 1, 38, 80
1, 36549, Note_on_c, 0, 52, 0
1, 36550, Note_on_c, 0, 50, 80
1, 36559, Note_on_c, 1, 38, 0
1, 36560, Note_on_c, 1, 40, 80
1, 36562, Note_on_c, 0, 50, 0
1, 36563, Note_on_c, 0, 52, 80
1, 36575, Note_on_c, 0, 52, 0
1, 36575, Note_on_c, 1, 40, 0
1, 36576, Note_on_c, 0, 53, 80
1, 36576, Note_on_c, 1, 41, 80
1, 36615, Note_on_c, 0, 53, 0
1, 36615, Note_on_c, 1, 41, 0
1, 36672, Note_on_c, 0, 61, 80
1, 36672, Note_on_c, 1, 49, 80
1, 36711, Note_on_c, 0, 61, 0
1, 36711, Note_on_c, 1, 49, 0
1, 36768, Note_on_c, 0, 54, 80
1, 36768, Note_on_c, 1, 43, 80
1, 36781, Note_on_c, 0, 54, 0
1, 36782, Note_on_c, 0, 55, 80
1, 36783, Note_on_c, 1, 43, 0
1, 36784, Note_on_c, 1, 42, 80
1, 36795, Note_on_c, 0, 55, 0
1, 36796, Note_on_c, 0, 54, 80
1, 36799, Note_on_c, 1, 42, 0
1, 36800, Note_on_c, 1, 43, 80
1, 36809, Note_on_c, 0, 54, 0
1, 36810, Note_on_c, 0, 55, 80
1, 36815, Note_on_c, 1, 43, 0
1, 36816, Note_on_c, 1, 42, 80
1, 36823, Note_on_c, 0, 55, 0
1, 36824, Note_on_c, 0, 54, 80
1, 36831, Note_on_c, 1, 42, 0
1, 36832, Note_on_c, 1, 39, 80
1, 36837, Note_on_c, 0, 54, 0
1, 36838, Note_on_c, 0, 52, 80
1, 36847, Note_on_c, 1, 39, 0
1, 36848, Note_on_c, 1, 41, 80
1, 36850, Note_on_c, 0, 52, 0
1, 36851, Note_on_c, 0, 54, 80
1, 36863, Note_on_c, 0, 54, 0
1, 36863, Note_on_c, 1, 41, 0
1, 36864, Note_on_c, 0, 55, 80
1, 36864, Note_on_c, 1, 43, 80
1, 36903, Note_on_c, 0, 55, 0
1, 36903, Note_on_c, 1, 43, 0
1, 36960, Note_on_c, 0, 63, 80
1, 36960, Note_on_c, 1, 51, 80
1, 36999, Note_on_c, 0, 63, 0
1, 36999, Note_on_c, 1, 51, 0
1, 37056, Note_on_c, 0, 59, 80
1, 37056, Note_on_c, 1, 48, 80
1, 37069, Note_on_c, 0, 59, 0
1, 37070, Note_on_c, 0, 60, 80
1, 37071, Note_on_c, 1, 48, 0
1, 37072, Note_on_c, 1, 47, 80
1, 37083, Note_on_c, 0, 60, 0
1, 37084, Note_on_c, 0, 59, 80
1, 37087, Note_on_c, 1, 47, 0
1, 37088, Note_on_c, 1, 48, 80
1, 37097, Note_on_c, 0, 59, 0
1, 37098, Note_on_c, 0, 60, 80
1, 37103, Note_on_c, 1, 48, 0
1, 37104, Note_on_c, 1, 47, 80
1, 37111, Note_on_c, 0, 60, 0
1, 37112, Note_on_c, 0, 59, 80
1, 37119, Note_on_c, 1, 47, 0
1, 37120, Note_on_c, 1, 45, 80
1, 37125, Note_on_c, 0, 59, 0
1, 37126, Note_on_c, 0, 57, 80
1, 37135, Note_on_c, 1, 45, 0
1, 37136, Note_on_c, 1, 47, 80
1, 37138, Note_on_c, 0, 57, 0
1, 37139, Note_on_c, 0, 59, 80
1, 37151, Note_on_c, 0, 59, 0
1, 37151, Note_on_c, 1, 47, 0
1, 37152, Note_on_c, 0, 60, 80
1, 37152, Note_on_c, 1, 48, 80
1, 37191, Note_on_c, 1, 48, 0
1, 37246, Note_on_c, 0, 60, 0
1, 37248, Note_on_c, 0, 80, 96
1, 37248, Note_on_c, 0, 77, 96
1, 37306, Note_on_c, 0, 80, 0
1, 37306, Note_on_c, 0, 77, 0
1, 37488, Note_on_c, 0, 80, 70
1, 37533, Note_on_c, 0, 80, 0
1, 37536, Note_on_c, 0, 79, 70
1, 37581, Note_on_c, 0, 79, 0
1, 37584, Note_on_c, 0, 78, 71
1, 37629, Note_on_c, 0, 78, 0
1, 37632, Note_on_c, 0, 77, 72
1, 37632, Note_on_c, 1, 59, 70
1, 37677, Note_on_c, 0, 77, 0
1, 37680, Note_on_c, 0, 76, 73
1, 37725, Note_on_c, 0, 76, 0
1, 37728, Note_on_c, 0, 75, 73
1, 37728, Note_on_c, 1, 59, 0
1, 37728, Note_on_c, 1, 60, 70
1, 37795, Note_on_c, 0, 75, 0
1, 37795, Note_on_c, 1, 60, 0
1, 37800, Note_on_c, 0, 73, 75
1, 37800, Note_on_c, 1, 53, 70
1, 37823, Note_on_c, 0, 73, 0
1, 37823, Note_on_c, 1, 53, 0
1, 37824, Note_on_c, 0, 72, 75
1, 37824, Note_on_c, 1, 52, 70
1, 37869, Note_on_c, 1, 52, 0
1, 37872, Note_on_c, 1, 53, 70
1, 37913, Note_on_c, 0, 72, 0
1, 37917, Note_on_c, 1, 53, 0
1, 37920, Note_on_c, 0, 71, 75
1, 37920, Note_on_c, 1, 54, 70
1, 37965, Note_on_c, 1, 54, 0
1, 37968, Note_on_c, 1, 55, 70
1, 38009, Note_on_c, 0, 71, 0
1, 38013, Note_on_c, 1, 55, 0
1, 38016, Note_on_c, 0, 72, 75
1, 38016, Note_on_c, 1, 56, 70
1, 38055, Note_on_c, 0, 72, 0
1, 38055, Note_on_c, 1, 56, 0
1, 38112, Note_on_c, 0, 63, 75
1, 38112, Note_on_c, 0, 60, 64
1, 38112, Note_on_c, 1, 55, 70
1, 38201, Note_on_c, 0, 63, 0
1, 38201, Note_on_c, 0, 60, 0
1, 38201, Note_on_c, 1, 55, 0
1, 38208, Note_on_c, 0, 62, 75
1, 38208, Note_on_c, 0, 59, 64
1, 38208, Note_on_c, 1, 43, 70
1, 38220, Note_on_c, 0, 62, 0
1, 38220, Note_on_c, 0, 63, 75
1, 38232, Note_on_c, 0, 63, 0
1, 38232, Note_on_c, 0, 62, 75
1, 38297, Note_on_c, 0, 62, 0
1, 38297, Note_on_c, 0, 59, 0
1, 38297, Note_on_c, 1, 43, 0
1, 38304, Note_on_c, 0, 60, 75
1, 38304, Note_on_c, 0, 60, 64
1, 38304, Note_on_c, 1, 48, 70
1, 38393, Note_on_c, 1, 48, 0
1, 38400, Note_on_c, 1, 36, 70
1, 38481, Note_on_c, 0, 60, 0
1, 38481, Note_on_c, 0, 60, 0
1, 38489, Note_on_c, 1, 36, 0
1, 38496, Note_on_c, 0, 70, 70
1, 38509, Note_on_c, 0, 70, 0
1, 38510, Note_on_c, 0, 72, 71
1, 38523, Note_on_c, 0, 72, 0
1, 38524, Note_on_c, 0, 70, 72
1, 38537, Note_on_c, 0, 70, 0
1, 38538, Note_on_c, 0, 72, 73
1, 38551, Note_on_c, 0, 72, 0
1, 38552, Note_on_c, 0, 70, 74
1, 38565, Note_on_c, 0, 70, 0
1, 38566, Note_on_c, 0, 68, 74
1, 38578, Note_on_c, 0, 68, 0
1, 38579, Note_on_c, 0, 70, 72
1, 38591, Note_on_c, 0, 70, 0
1, 38592, Note_on_c, 0, 75, 70
1, 38592, Note_on_c, 0, 67, 70
1, 38681, Note_on_c, 0, 75, 0
1, 38681, Note_on_c, 0, 67, 0
1, 38688, Note_on_c, 0, 70, 70
1, 38688, Note_on_c, 0, 63, 70
1, 38777, Note_on_c, 0, 70, 0
1, 38777, Note_on_c, 0, 63, 0
1, 38784, Note_on_c, 0, 70, 70
1, 38784, Note_on_c, 0, 63, 70
1, 38784, Note_on_c, 1, 51, 70
1, 38797, Note_on_c, 1, 51, 0
1, 38798, Note_on_c, 1, 53, 71
1, 38811, Note_on_c, 1, 53, 0
1, 38812, Note_on_c, 1, 51, 73
1, 38825, Note_on_c, 1, 51, 0
1, 38826, Note_on_c, 1, 53, 75
1, 38839, Note_on_c, 1, 53, 0
1, 38840, Note_on_c, 1, 51, 74
1, 38853, Note_on_c, 1, 51, 0
1, 38854, Note_on_c, 1, 50, 73
1, 38866, Note_on_c, 1, 50, 0
1, 38867, Note_on_c, 1, 51, 72
1, 38873, Note_on_c, 0, 70, 0
1, 38873, Note_on_c, 0, 63, 0
1, 38879, Note_on_c, 1, 51, 0
1, 38880, Note_on_c, 0, 77, 70
1, 38880, Note_on_c, 0, 68, 70
1, 38880, Note_on_c, 1, 50, 70
1, 38969, Note_on_c, 0, 77, 0
1, 38969, Note_on_c, 0, 68, 0
1, 38969, Note_on_c, 1, 50, 0
1, 38976, Note_on_c, 0, 70, 70
1, 38976, Note_on_c, 1, 65, 70
1, 39065, Note_on_c, 0, 70, 0
1, 39065, Note_on_c, 1, 65, 0
1, 39072, Note_on_c, 0, 77, 70
1, 39072, Note_on_c, 0, 70, 64
1, 39072, Note_on_c, 1, 65, 70
1, 39085, Note_on_c, 0, 77, 0
1, 39086, Note_on_c, 0, 79, 71
1, 39099, Note_on_c, 0, 79, 0
1, 39100, Note_on_c, 0, 77, 73
1, 39113, Note_on_c, 0, 77, 0
1, 39114, Note_on_c, 0, 79, 75
1, 39127, Note_on_c, 0, 79, 0
1, 39128, Note_on_c, 0, 77, 74
1, 39141, Note_on_c, 0, 77, 0
1, 39142, Note_on_c, 0, 75, 73
1, 39154, Note_on_c, 0, 75, 0
1, 39155, Note_on_c, 0, 77, 72
1, 39161, Note_on_c, 0, 70, 0
1, 39161, Note_on_c, 1, 65, 0
1, 39167, Note_on_c, 0, 77, 0
1, 39168, Note_on_c, 0, 79, 70
1, 39168, Note_on_c, 1, 63, 70
1, 39213, Note_on_c, 0, 79, 0
1, 39216, Note_on_c, 0, 82, 70
1, 39257, Note_on_c, 1, 63, 0
1, 39261, Note_on_c, 0, 82, 0
1, 39264, Note_on_c, 0, 80, 71
1, 39264, Note_on_c, 1, 55, 71
1, 39309, Note_on_c, 0, 80, 0
1, 39312, Note_on_c, 0, 79, 72
1, 39353, Note_on_c, 1, 55, 0
1, 39357, Note_on_c, 0, 79, 0
1, 39360, Note_on_c, 0, 77, 73
1, 39360, Note_on_c, 1, 56, 73
1, 39405, Note_on_c, 0, 77, 0
1, 39408, Note_on_c, 0, 75, 74
1, 39408, Note_on_c, 0, 67, 74
1, 39449, Note_on_c, 1, 56, 0
1, 39453, Note_on_c, 0, 75, 0
1, 39453, Note_on_c, 0, 67, 0
1, 39456, Note_on_c, 0, 75, 75
1, 39456, Note_on_c, 0, 67, 75
1, 39456, Note_on_c, 1, 58, 75
1, 39545, Note_on_c, 1, 58, 0
1, 39552, Note_on_c, 0, 75, 0
1, 39552, Note_on_c, 0, 67, 0
1, 39552, Note_on_c, 0, 74, 72
1, 39552, Note_on_c, 0, 65, 72
1, 39552, Note_on_c, 1, 56, 72
1, 39641, Note_on_c, 0, 74, 0
1, 39641, Note_on_c, 0, 65, 0
1, 39641, Note_on_c, 1, 56, 0
1, 39648, Note_on_c, 0, 73, 70
1, 39648, Note_on_c, 0, 70, 70
1, 39648, Note_on_c, 1, 55, 70
1, 39661, Note_on_c, 1, 55, 0
1, 39662, Note_on_c, 1, 56, 70
1, 39675, Note_on_c, 1, 56, 0
1, 39676, Note_on_c, 1, 55, 70
1, 39689, Note_on_c, 1, 55, 0
1, 39690, Note_on_c, 1, 56, 70
1, 39703, Note_on_c, 1, 56, 0
1, 39704, Note_on_c, 1, 55, 70
1, 39717, Note_on_c, 1, 55, 0
1, 39718, Note_on_c, 1, 53, 71
1, 39730, Note_on_c, 1, 53, 0
1, 39731, Note_on_c, 1, 55, 71
1, 39743, Note_on_c, 1, 55, 0
1, 39744, Note_on_c, 1, 56, 71
1, 39833, Note_on_c, 1, 56, 0
1, 39840, Note_on_c, 0, 73, 0
1, 39840, Note_on_c, 0, 70, 0
1, 39840, Note_on_c, 0, 72, 73
1, 39840, Note_on_c, 0, 68, 73
1, 39840, Note_on_c, 1, 44, 73
1, 39929, Note_on_c, 1, 44, 0
1, 39934, Note_on_c, 0, 72, 0
1, 39934, Note_on_c, 0, 68, 0
1, 39936, Note_on_c, 0, 75, 75
1, 39936, Note_on_c, 0, 72, 75
1, 39936, Note_on_c, 1, 57, 74
1, 39949, Note_on_c, 1, 57, 0
1, 39950, Note_on_c, 1, 58, 75
1, 39963, Note_on_c, 1, 58, 0
1, 39964, Note_on_c, 1, 57, 75
1, 39977, Note_on_c, 1, 57, 0
1, 39978, Note_on_c, 1, 58, 75
1, 39991, Note_on_c, 1, 58, 0
1, 39992, Note_on_c, 1, 57, 75
1, 40005, Note_on_c, 1, 57, 0
1, 40006, Note_on_c, 1, 55, 75
1, 40018, Note_on_c, 1, 55, 0
1, 40019, Note_on_c, 1, 57, 76
1, 40031, Note_on_c, 1, 57, 0
1, 40032, Note_on_c, 1, 58, 76
1, 40121, Note_on_c, 1, 58, 0
1, 40128, Note_on_c, 0, 75, 0
1, 40128, Note_on_c, 0, 72, 0
1, 40128, Note_on_c, 0, 74, 78
1, 40128, Note_on_c, 0, 70, 78
1, 40128, Note_on_c, 1, 46, 77
1, 40217, Note_on_c, 1, 46, 0
1, 40222, Note_on_c, 0, 74, 0
1, 40222, Note_on_c, 0, 70, 0
1, 40224, Note_on_c, 0, 63, 80
1, 40224, Note_on_c, 0, 58, 64
1, 40224, Note_on_c, 1, 53, 80
1, 40237, Note_on_c, 0, 63, 0
1, 40238, Note_on_c, 0, 65, 80
1, 40239, Note_on_c, 1, 53, 0
1, 40240, Note_on_c, 1, 51, 80
1, 40251, Note_on_c, 0, 65, 0
1, 40252, Note_on_c, 0, 63, 80
1, 40255, Note_on_c, 1, 51, 0
1, 40256, Note_on_c, 1, 53, 80
1, 40265, Note_on_c, 0, 63, 0
1, 40266, Note_on_c, 0, 65, 80
1, 40271, Note_on_c, 1, 53, 0
1, 40272, Note_on_c, 1, 51, 80
1, 40279, Note_on_c, 0, 65, 0
1, 40280, Note_on_c, 0, 63, 80
1, 40287, Note_on_c, 1, 51, 0
1, 40288, Note_on_c, 1, 50, 80
1, 40293, Note_on_c, 0, 63, 0
1, 40294, Note_on_c, 0, 62, 80
1, 40303, Note_on_c, 1, 50, 0
1, 40304, Note_on_c, 1, 51, 80
1, 40306, Note_on_c, 0, 62, 0
1, 40307, Note_on_c, 0, 63, 80
1, 40313, Note_on_c, 0, 58, 0
1, 40319, Note_on_c, 0, 63, 0
1, 40319, Note_on_c, 1, 51, 0
1, 40320, Note_on_c, 0, 65, 80
1, 40320, Note_on_c, 0, 60, 80
1, 40320, Note_on_c, 0, 56, 80
1, 40320, Note_on_c, 1, 44, 80
1, 40409, Note_on_c, 1, 44, 0
1, 40416, Note_on_c, 0, 65, 0
1, 40416, Note_on_c, 0, 60, 0
1, 40416, Note_on_c, 0, 56, 0
1, 40416, Note_on_c, 0, 68, 80
1, 40505, Note_on_c, 0, 68, 0
1, 40512, Note_on_c, 0, 62, 80
1, 40512, Note_on_c, 0, 56, 80
1, 40512, Note_on_c, 1, 46, 80
1, 40551, Note_on_c, 0, 62, 0
1, 40551, Note_on_c, 0, 56, 0
1, 40551, Note_on_c, 1, 46, 0
1, 40608, Note_on_c, 0, 63, 80
1, 40608, Note_on_c, 0, 55, 80
1, 40608, Note_on_c, 1, 51, 80
1, 40697, Note_on_c, 1, 51, 0
1, 40704, Note_on_c, 1, 39, 80
1, 40785, Note_on_c, 0, 63, 0
1, 40785, Note_on_c, 0, 55, 0
1, 40793, Note_on_c, 1, 39, 0
1, 40800, Note_on_c, 0, 84, 75
1, 40800, Note_on_c, 0, 79, 75
1, 40800, Note_on_c, 0, 75, 75
1, 40839, Note_on_c, 0, 84, 0
1, 40839, Note_on_c, 0, 79, 0
1, 40839, Note_on_c, 0, 75, 0
1, 40896, Note_on_c, 0, 83, 75
1, 40896, Note_on_c, 0, 77, 75
1, 40896, Note_on_c, 0, 74, 75
1, 40935, Note_on_c, 0, 83, 0
1, 40935, Note_on_c, 0, 77, 0
1, 40935, Note_on_c, 0, 74, 0
1, 40992, Note_on_c, 0, 84, 75
1, 40992, Note_on_c, 0, 79, 75
1, 40992, Note_on_c, 0, 75, 75
1, 41031, Note_on_c, 0, 84, 0
1, 41031, Note_on_c, 0, 79, 0
1, 41031, Note_on_c, 0, 75, 0
1, 41088, Note_on_c, 0, 61, 91
1, 41088, Note_on_c, 1, 56, 80
1, 41088, Note_on_c, 1, 53, 80
1, 41184, Note_on_c, 1, 56, 0
1, 41184, Note_on_c, 1, 53, 0
1, 41184, Note_on_c, 1, 55, 80
1, 41184, Note_on_c, 1, 52, 80
1, 41273, Note_on_c, 0, 61, 0
1, 41273, Note_on_c, 1, 55, 0
1, 41273, Note_on_c, 1, 52, 0
1, 41280, Note_on_c, 0, 60, 75
1, 41369, Note_on_c, 0, 60, 0
1, 41376, Note_on_c, 0, 52, 80
1, 41376, Note_on_c, 1, 41, 80
1, 41389, Note_on_c, 0, 52, 0
1, 41390, Note_on_c, 0, 53, 80
1, 41391, Note_on_c, 1, 41, 0
1, 41392, Note_on_c, 1, 40, 80
1, 41403, Note_on_c, 0, 53, 0
1, 41404, Note_on_c, 0, 52, 80
1, 41407, Note_on_c, 1, 40, 0
1, 41408, Note_on_c, 1, 41, 80
1, 41417, Note_on_c, 0, 52, 0
1, 41418, Note_on_c, 0, 53, 80
1, 41423, Note_on_c, 1, 41, 0
1, 41424, Note_on_c, 1, 40, 80
1, 41431, Note_on_c, 0, 53, 0
1, 41432, Note_on_c, 0, 52, 80
1, 41439, Note_on_c, 1, 40, 0
1, 41440, Note_on_c, 1, 38, 80
1, 41445, Note_on_c, 0, 52, 0
1, 41446, Note_on_c, 0, 50, 80
1, 41455, Note_on_c, 1, 38, 0
1, 41456, Note_on_c, 1, 40, 80
1, 41458, Note_on_c, 0, 50, 0
1, 41459, Note_on_c, 0, 52, 80
1, 41471, Note_on_c, 0, 52, 0
1, 41471, Note_on_c, 1, 40, 0
1, 41472, Note_on_c, 0, 53, 80
1, 41472, Note_on_c, 1, 41, 80
1, 41511, Note_on_c, 0, 53, 0
1, 41511, Note_on_c, 1, 41, 0
1, 41568, Note_on_c, 0, 61, 80
1, 41568, Note_on_c, 1, 49, 80
1, 41607, Note_on_c, 0, 61, 0
1, 41607, Note_on_c, 1, 49, 0
1, 41664, Note_on_c, 0, 54, 80
1, 41664, Note_on_c, 1, 43, 80
1, 41677, Note_on_c, 0, 54, 0
1, 41678, Note_on_c, 0, 55, 80
1, 41679, Note_on_c, 1, 43, 0
1, 41680, Note_on_c, 1, 42, 80
1, 41691, Note_on_c, 0, 55, 0
1, 41692, Note_on_c, 0, 54, 80
1, 41695, Note_on_c, 1, 42, 0
1, 41696, Note_on_c, 1, 43, 80
1, 41705, Note_on_c, 0, 54, 0
1, 41706, Note_on_c, 0, 55, 80
1, 41711, Note_on_c, 1, 43, 0
1, 41712, Note_on_c, 1, 42, 80
1, 41719, Note_on_c, 0, 55, 0
1, 41720, Note_on_c, 0, 54, 80
1, 41727, Note_on_c, 1, 42, 0
1, 41728, Note_on_c, 1, 39, 80
1, 41733, Note_on_c, 0, 54, 0
1, 41734, Note_on_c, 0, 52, 80
1, 41743, Note_on_c, 1, 39, 0
1, 41744, Note_on_c, 1, 41, 80
1, 41746, Note_on_c, 0, 52, 0
1, 41747, Note_on_c, 0, 54, 80
1, 41759, Note_on_c, 0, 54, 0
1, 41759, Note_on_c, 1, 41, 0
1, 41760, Note_on_c, 0, 55, 80
1, 41760, Note_on_c, 1, 43, 80
1, 41799, Note_on_c, 0, 55, 0
1, 41799, Note_on_c, 1, 43, 0
1, 41856, Note_on_c, 0, 63, 80
1, 41856, Note_on_c, 1, 51, 80
1, 41895, Note_on_c, 0, 63, 0
1, 41895, Note_on_c, 1, 51, 0
1, 41952, Note_on_c, 0, 59, 80
1, 41952, Note_on_c, 1, 48, 80
1, 41965, Note_on_c, 0, 59, 0
1, 41966, Note_on_c, 0, 60, 80
1, 41967, Note_on_c, 1, 48, 0
1, 41968, Note_on_c, 1, 47, 80
1, 41979, Note_on_c, 0, 60, 0
1, 41980, Note_on_c, 0, 59, 80
1, 41983, Note_on_c, 1, 47, 0
1, 41984, Note_on_c, 1, 48, 80
1, 41993, Note_on_c, 0, 59, 0
1, 41994, Note_on_c, 0, 60, 80
1, 41999, Note_on_c, 1, 48, 0
1, 42000, Note_on_c, 1, 47, 80
1, 42007, Note_on_c, 0, 60, 0
1, 42008, Note_on_c, 0, 59, 80
1, 42015, Note_on_c, 1, 47, 0
1, 42016, Note_on_c, 1, 45, 80
1, 42021, Note_on_c, 0, 59, 0
1, 42022, Note_on_c, 0, 57, 80
1, 42031, Note_on_c, 1, 45, 0
1, 42032, Note_on_c, 1, 47, 80
1, 42034, Note_on_c, 0, 57, 0
1, 42035, Note_on_c, 0, 59, 80
1, 42047, Note_on_c, 0, 59, 0
1, 42047, Note_on_c, 1, 47, 0
1, 42048, Note_on_c, 0, 60, 80
1, 42048, Note_on_c, 1, 48, 80
1, 42087, Note_on_c, 1, 48, 0
1, 42142, Note_on_c, 0, 60, 0
1, 42144, Note_on_c, 0, 80, 96
1, 42144, Note_on_c, 0, 77, 96
1, 42202, Note_on_c, 0, 80, 0
1, 42202, Note_on_c, 0, 77, 0
1, 42384, Note_on_c, 0, 80, 70
1, 42429, Note_on_c, 0, 80, 0
1, 42432, Note_on_c, 0, 79, 70
1, 42477, Note_on_c, 0, 79, 0
1, 42480, Note_on_c, 0, 78, 71
1, 42525, Note_on_c, 0, 78, 0
1, 42528, Note_on_c, 0, 77, 72
1, 42528, Note_on_c, 1, 59, 70
1, 42573, Note_on_c, 0, 77, 0
1, 42576, Note_on_c, 0, 76, 73
1, 42621, Note_on_c, 0, 76, 0
1, 42624, Note_on_c, 0, 75, 73
1, 42624, Note_on_c, 1, 59, 0
1, 42624, Note_on_c, 1, 60, 70
1, 42691, Note_on_c, 0, 75, 0
1, 42691, Note_on_c, 1, 60, 0
1, 42696, Note_on_c, 0, 73, 75
1, 42696, Note_on_c, 1, 53, 70
1, 42719, Note_on_c, 0, 73, 0
1, 42719, Note_on_c, 1, 53, 0
1, 42720, Note_on_c, 0, 72, 75
1, 42720, Note_on_c, 1, 52, 70
1, 42765, Note_on_c, 1, 52, 0
1, 42768, Note_on_c, 1, 53, 70
1, 42809, Note_on_c, 0, 72, 0
1, 42813, Note_on_c, 1, 53, 0
1, 42816, Note_on_c, 0, 71, 75
1, 42816, Note_on_c, 1, 54, 70
1, 42861, Note_on_c, 1, 54, 0
1, 42864, Note_on_c, 1, 55, 70
1, 42905, Note_on_c, 0, 71, 0
1, 42909, Note_on_c, 1, 55, 0
1, 42912, Note_on_c, 0, 72, 75
1, 42912, Note_on_c, 1, 56, 70
1, 42951, Note_on_c, 0, 72, 0
1, 42951, Note_on_c, 1, 56, 0
1, 43008, Note_on_c, 0, 63, 75
1, 43008, Note_on_c, 0, 60, 64
1, 43008, Note_on_c, 1, 55, 70
1, 43097, Note_on_c, 0, 63, 0
1, 43097, Note_on_c, 0, 60, 0
1, 43097, Note_on_c, 1, 55, 0
1, 43104, Note_on_c, 0, 62, 75
1, 43104, Note_on_c, 0, 59, 64
1, 43104, Note_on_c, 1, 43, 70
1, 43116, Note_on_c, 0, 62, 0
1, 43116, Note_on_c, 0, 63, 75
1, 43128, Note_on_c, 0, 63, 0
1, 43128, Note_on_c, 0, 62, 75
1, 43193, Note_on_c, 0, 62, 0
1, 43193, Note_on_c, 0, 59, 0
1, 43193, Note_on_c, 1, 43, 0
1, 43200, Note_on_c, 0, 60, 75
1, 43200, Note_on_c, 0, 60, 64
1, 43200, Note_on_c, 1, 48, 70
1, 43289, Note_on_c, 1, 48, 0
1, 43296, Note_on_c, 1, 36, 70
1, 43377, Note_on_c, 0, 60, 0
1, 43377, Note_on_c, 0, 60, 0
1, 43385, Note_on_c, 1, 36, 0
1, 43392, Note_on_c, 1, 36, 0
1, 43481, Note_on_c, 1, 36, 0
1, 43491, End_track
0, 0, End_of_file