0, 0, Header, 0, 1, 96
1, 0, Start_track
1, 0, Tempo, 461538
1, 0, Note_on_c, 0, 63, 75
1, 89, Note_on_c, 0, 63, 0
1, 96, Note_on_c, 0, 75, 75
1, 96, Note_on_c, 1, 55, 75
1, 185, Note_on_c, 0, 75, 0
1, 185, Note_on_c, 1, 55, 0
1, 192, Note_on_c, 1, 51, 75
1, 264, Note_on_c, 0, 75, 75
1, 281, Note_on_c, 1, 51, 0
1, 287, Note_on_c, 0, 75, 0
1, 288, Note_on_c, 0, 70, 75
1, 377, Note_on_c, 0, 70, 0
1, 384, Note_on_c, 0, 80, 75
1, 384, Note_on_c, 1, 50, 75
1, 473, Note_on_c, 0, 80, 0
1, 473, Note_on_c, 1, 50, 0
1, 480, Note_on_c, 1, 46, 75
1, 552, Note_on_c, 0, 80, 75
1, 569, Note_on_c, 1, 46, 0
1, 575, Note_on_c, 0, 80, 0
1, 576, Note_on_c, 0, 79, 75
1, 665, Note_on_c, 0, 79, 0
1, 672, Note_on_c, 0, 82, 77
1, 672, Note_on_c, 1, 55, 75
1, 761, Note_on_c, 0, 82, 0
1, 761, Note_on_c, 1, 55, 0
1, 768, Note_on_c, 0, 82, 79
1, 768, Note_on_c, 1, 56, 75
1, 791, Note_on_c, 0, 82, 0
1, 792, Note_on_c, 0, 80, 79
1, 815, Note_on_c, 0, 80, 0
1, 816, Note_on_c, 0, 79, 80
1, 839, Note_on_c, 0, 79, 0
1, 840, Note_on_c, 0, 77, 80
1, 857, Note_on_c, 1, 56, 0
1, 863, Note_on_c, 0, 77, 0
1, 864, Note_on_c, 0, 75, 81
1, 864, Note_on_c, 1, 58, 75
1, 953, Note_on_c, 0, 75, 0
1, 953, Note_on_c, 1, 58, 0
1, 960, Note_on_c, 0, 75, 79
1, 960, Note_on_c, 1, 56, 75
1, 975, Note_on_c, 0, 75, 0
1, 976, Note_on_c, 0, 74, 78
1, 991, Note_on_c, 0, 74, 0
1, 992, Note_on_c, 0, 75, 78
1, 1007, Note_on_c, 0, 75, 0
1, 1008, Note_on_c, 0, 74, 78
1, 1023, Note_on_c, 0, 74, 0
1, 1024, Note_on_c, 0, 72, 78
1, 1039, Note_on_c, 0, 72, 0
1, 1040, Note_on_c, 0, 74, 77
1, 1049, Note_on_c, 1, 56, 0
1, 1055, Note_on_c, 0, 74, 0
1, 1056, Note_on_c, 0, 75, 77
1, 1056, Note_on_c, 1, 55, 75
1, 1145, Note_on_c, 0, 75, 0
1, 1145, Note_on_c, 1, 55, 0
1, 1152, Note_on_c, 0, 63, 75
1, 1241, Note_on_c, 0, 63, 0
1, 1248, Note_on_c, 0, 68, 75
1, 1248, Note_on_c, 1, 60, 75
1, 1337, Note_on_c, 0, 68, 0
1, 1337, Note_on_c, 1, 60, 0
1, 1344, Note_on_c, 1, 56, 75
1, 1416, Note_on_c, 0, 72, 75
1, 1428, Note_on_c, 0, 72, 0
1, 1428, Note_on_c, 0, 68, 75
1, 1433, Note_on_c, 1, 56, 0
1, 1440, Note_on_c, 0, 68, 0
1, 1440, Note_on_c, 0, 70, 75
1, 1529, Note_on_c, 0, 70, 0
1, 1536, Note_on_c, 0, 63, 75
1, 1536, Note_on_c, 1, 55, 75
1, 1625, Note_on_c, 0, 63, 0
1, 1625, Note_on_c, 1, 55, 0
1, 1632, Note_on_c, 1, 51, 75
1, 1704, Note_on_c, 0, 67, 75
1, 1716, Note_on_c, 0, 67, 0
1, 1716, Note_on_c, 0, 63, 75
1, 1721, Note_on_c, 1, 51, 0
1, 1728, Note_on_c, 0, 63, 0
1, 1728, Note_on_c, 0, 58, 75
1, 1817, Note_on_c, 0, 58, 0
1, 1824, Note_on_c, 0, 68, 91
1, 1824, Note_on_c, 0, 65, 91
1, 1824, Note_on_c, 1, 50, 75
1, 1913, Note_on_c, 1, 50, 0
1, 1920, Note_on_c, 0, 68, 0
1, 1920, Note_on_c, 0, 65, 0
1, 1920, Note_on_c, 0, 67, 75
1, 1920, Note_on_c, 0, 63, 75
1, 1920, Note_on_c, 1, 51, 75
1, 2009, Note_on_c, 0, 67, 0
1, 2009, Note_on_c, 0, 63, 0
1, 2009, Note_on_c, 1, 51, 0
1, 2016, Note_on_c, 0, 68, 75
1, 2016, Note_on_c, 0, 63, 64
1, 2016, Note_on_c, 1, 46, 75
1, 2031, Note_on_c, 0, 68, 0
1, 2032, Note_on_c, 0, 67, 75
1, 2047, Note_on_c, 0, 67, 0
1, 2048, Note_on_c, 0, 68, 75
1, 2063, Note_on_c, 0, 68, 0
1, 2064, Note_on_c, 0, 67, 75
1, 2079, Note_on_c, 0, 67, 0
1, 2080, Note_on_c, 0, 65, 75
1, 2095, Note_on_c, 0, 65, 0
1, 2096, Note_on_c, 0, 67, 75
1, 2105, Note_on_c, 1, 46, 0
1, 2111, Note_on_c, 0, 67, 0
1, 2112, Note_on_c, 0, 65, 75
1, 2112, Note_on_c, 0, 63, 0
1, 2112, Note_on_c, 0, 62, 64
1, 2112, Note_on_c, 1, 58, 75
1, 2201, Note_on_c, 0, 65, 0
1, 2201, Note_on_c, 0, 62, 0
1, 2201, Note_on_c, 1, 58, 0
1, 2208, Note_on_c, 1, 46, 75
1, 2297, Note_on_c, 1, 46, 0
1, 2304, Note_on_c, 0, 77, 75
1, 2327, Note_on_c, 0, 77, 0
1, 2328, Note_on_c, 0, 75, 74
1, 2351, Note_on_c, 0, 75, 0
1, 2352, Note_on_c, 0, 74, 73
1, 2375, Note_on_c, 0, 74, 0
1, 2376, Note_on_c, 0, 72, 73
1, 2399, Note_on_c, 0, 72, 0
1, 2400, Note_on_c, 0, 70, 72
1, 2423, Note_on_c, 0, 70, 0
1, 2424, Note_on_c, 0, 69, 72
1, 2447, Note_on_c, 0, 69, 0
1, 2448, Note_on_c, 0, 67, 71
1, 2471, Note_on_c, 0, 67, 0
1, 2472, Note_on_c, 0, 65, 71
1, 2495, Note_on_c, 0, 65, 0
1, 2496, Note_on_c, 0, 63, 70
1, 2519, Note_on_c, 0, 63, 0
1, 2520, Note_on_c, 0, 62, 70
1, 2543, Note_on_c, 0, 62, 0
1, 2544, Note_on_c, 0, 60, 70
1, 2567, Note_on_c, 0, 60, 0
1, 2568, Note_on_c, 0, 58, 70
1, 2591, Note_on_c, 0, 58, 0
1, 2592, Note_on_c, 0, 57, 71
1, 2610, Note_on_c, 0, 57, 0
1, 2610, Note_on_c, 0, 58, 71
1, 2628, Note_on_c, 0, 58, 0
1, 2628, Note_on_c, 0, 57, 71
1, 2646, Note_on_c, 0, 57, 0
1, 2646, Note_on_c, 0, 58, 71
1, 2664, Note_on_c, 0, 58, 0
1, 2664, Note_on_c, 0, 57, 71
1, 2682, Note_on_c, 0, 57, 0
1, 2682, Note_on_c, 0, 58, 71
1, 2688, Note_on_c, 1, 48, 75
1, 2688, Note_on_c, 1, 41, 75
1, 2700, Note_on_c, 0, 58, 0
1, 2700, Note_on_c, 0, 57, 71
1, 2718, Note_on_c, 0, 57, 0
1, 2718, Note_on_c, 0, 58, 71
1, 2725, Note_on_c, 0, 58, 0
1, 2736, Note_on_c, 0, 60, 73
1, 2759, Note_on_c, 0, 60, 0
1, 2760, Note_on_c, 0, 63, 73
1, 2777, Note_on_c, 1, 48, 0
1, 2777, Note_on_c, 1, 41, 0
1, 2783, Note_on_c, 0, 63, 0
1, 2784, Note_on_c, 0, 62, 73
1, 2784, Note_on_c, 1, 50, 75
1, 2784, Note_on_c, 1, 46, 75
1, 2873, Note_on_c, 0, 62, 0
1, 2873, Note_on_c, 1, 50, 0
1, 2873, Note_on_c, 1, 46, 0
1, 2880, Note_on_c, 0, 77, 70
1, 2903, Note_on_c, 0, 77, 0
1, 2904, Note_on_c, 0, 75, 69
1, 2927, Note_on_c, 0, 75, 0
1, 2928, Note_on_c, 0, 74, 69
1, 2951, Note_on_c, 0, 74, 0
1, 2952, Note_on_c, 0, 72, 68
1, 2975, Note_on_c, 0, 72, 0
1, 2976, Note_on_c, 0, 70, 68
1, 2999, Note_on_c, 0, 70, 0
1, 3000, Note_on_c, 0, 69, 67
1, 3023, Note_on_c, 0, 69, 0
1, 3024, Note_on_c, 0, 67, 67
1, 3047, Note_on_c, 0, 67, 0
1, 3048, Note_on_c, 0, 65, 66
1, 3071, Note_on_c, 0, 65, 0
1, 3072, Note_on_c, 0, 63, 66
1, 3095, Note_on_c, 0, 63, 0
1, 3096, Note_on_c, 0, 62, 66
1, 3119, Note_on_c, 0, 62, 0
1, 3120, Note_on_c, 0, 60, 66
1, 3143, Note_on_c, 0, 60, 0
1, 3144, Note_on_c, 0, 58, 67
1, 3167, Note_on_c, 0, 58, 0
1, 3168, Note_on_c, 0, 57, 67
1, 3186, Note_on_c, 0, 57, 0
1, 3186, Note_on_c, 0, 58, 67
1, 3204, Note_on_c, 0, 58, 0
1, 3204, Note_on_c, 0, 57, 67
1, 3222, Note_on_c, 0, 57, 0
1, 3222, Note_on_c, 0, 58, 67
1, 3240, Note_on_c, 0, 58, 0
1, 3240, Note_on_c, 0, 57, 67
1, 3258, Note_on_c, 0, 57, 0
1, 3258, Note_on_c, 0, 58, 67
1, 3264, Note_on_c, 1, 48, 75
1, 3264, Note_on_c, 1, 41, 75
1, 3276, Note_on_c, 0, 58, 0
1, 3276, Note_on_c, 0, 57, 67
1, 3294, Note_on_c, 0, 57, 0
1, 3294, Note_on_c, 0, 58, 67
1, 3301, Note_on_c, 0, 58, 0
1, 3312, Note_on_c, 0, 60, 71
1, 3335, Note_on_c, 0, 60, 0
1, 3336, Note_on_c, 0, 63, 72
1, 3353, Note_on_c, 1, 48, 0
1, 3353, Note_on_c, 1, 41, 0
1, 3359, Note_on_c, 0, 63, 0
1, 3360, Note_on_c, 0, 62, 72
1, 3360, Note_on_c, 1, 50, 75
1, 3360, Note_on_c, 1, 46, 75
1, 3449, Note_on_c, 0, 62, 0
1, 3449, Note_on_c, 1, 50, 0
1, 3449, Note_on_c, 1, 46, 0
1, 3456, Note_on_c, 0, 60, 75
1, 3456, Note_on_c, 1, 51, 75
1, 3456, Note_on_c, 1, 39, 75
1, 3523, Note_on_c, 0, 60, 0
1, 3528, Note_on_c, 0, 62, 75
1, 3545, Note_on_c, 1, 51, 0
1, 3545, Note_on_c, 1, 39, 0
1, 3551, Note_on_c, 0, 62, 0
1, 3552, Note_on_c, 0, 58, 75
1, 3552, Note_on_c, 1, 50, 75
1, 3552, Note_on_c, 1, 41, 75
1, 3641, Note_on_c, 0, 58, 0
1, 3641, Note_on_c, 1, 50, 0
1, 3641, Note_on_c, 1, 41, 0
1, 3648, Note_on_c, 0, 58, 75
1, 3648, Note_on_c, 1, 48, 75
1, 3648, Note_on_c, 1, 41, 75
1, 3663, Note_on_c, 0, 58, 0
1, 3664, Note_on_c, 0, 57, 75
1, 3679, Note_on_c, 0, 57, 0
1, 3680, Note_on_c, 0, 58, 75
1, 3695, Note_on_c, 0, 58, 0
1, 3696, Note_on_c, 0, 57, 75
1, 3711, Note_on_c, 0, 57, 0
1, 3712, Note_on_c, 0, 55, 75
1, 3727, Note_on_c, 0, 55, 0
1, 3728, Note_on_c, 0, 57, 75
1, 3737, Note_on_c, 1, 48, 0
1, 3737, Note_on_c, 1, 41, 0
1, 3743, Note_on_c, 0, 57, 0
1, 3744, Note_on_c, 0, 57, 75
1, 3744, Note_on_c, 1, 46, 75
1, 3833, Note_on_c, 1, 46, 0
1, 3840, Note_on_c, 0, 57, 0
1, 3840, Note_on_c, 0, 58, 75
1, 3840, Note_on_c, 1, 41, 75
1, 3929, Note_on_c, 1, 41, 0
1, 3936, Note_on_c, 1, 34, 75
1, 4017, Note_on_c, 0, 58, 0
1, 4025, Note_on_c, 1, 34, 0
1, 4032, Note_on_c, 0, 63, 75
1, 4121, Note_on_c, 0, 63, 0
1, 4128, Note_on_c, 0, 75, 75
1, 4128, Note_on_c, 1, 55, 75
1, 4217, Note_on_c, 0, 75, 0
1, 4217, Note_on_c, 1, 55, 0
1, 4224, Note_on_c, 1, 51, 75
1, 4296, Note_on_c, 0, 75, 75
1, 4313, Note_on_c, 1, 51, 0
1, 4319, Note_on_c, 0, 75, 0
1, 4320, Note_on_c, 0, 70, 75
1, 4409, Note_on_c, 0, 70, 0
1, 4416, Note_on_c, 0, 80, 75
1, 4416, Note_on_c, 1, 50, 75
1, 4505, Note_on_c, 0, 80, 0
1, 4505, Note_on_c, 1, 50, 0
1, 4512, Note_on_c, 1, 46, 75
1, 4584, Note_on_c, 0, 80, 75
1, 4601, Note_on_c, 1, 46, 0
1, 4607, Note_on_c, 0, 80, 0
1, 4608, Note_on_c, 0, 79, 75
1, 4697, Note_on_c, 0, 79, 0
1, 4704, Note_on_c, 0, 82, 77
1, 4704, Note_on_c, 1, 55, 75
1, 4793, Note_on_c, 0, 82, 0
1, 4793, Note_on_c, 1, 55, 0
1, 4800, Note_on_c, 0, 82, 79
1, 4800, Note_on_c, 1, 56, 75
1, 4823, Note_on_c, 0, 82, 0
1, 4824, Note_on_c, 0, 80, 79
1, 4847, Note_on_c, 0, 80, 0
1, 4848, Note_on_c, 0, 79, 80
1, 4871, Note_on_c, 0, 79, 0
1, 4872, Note_on_c, 0, 77, 80
1, 4889, Note_on_c, 1, 56, 0
1, 4895, Note_on_c, 0, 77, 0
1, 4896, Note_on_c, 0, 75, 81
1, 4896, Note_on_c, 1, 58, 75
1, 4985, Note_on_c, 0, 75, 0
1, 4985, Note_on_c, 1, 58, 0
1, 4992, Note_on_c, 0, 75, 79
1, 4992, Note_on_c, 1, 56, 75
1, 5007, Note_on_c, 0, 75, 0
1, 5008, Note_on_c, 0, 74, 78
1, 5023, Note_on_c, 0, 74, 0
1, 5024, Note_on_c, 0, 75, 78
1, 5039, Note_on_c, 0, 75, 0
1, 5040, Note_on_c, 0, 74, 78
1, 5055, Note_on_c, 0, 74, 0
1, 5056, Note_on_c, 0, 72, 78
1, 5071, Note_on_c, 0, 72, 0
1, 5072, Note_on_c, 0, 74, 77
1, 5081, Note_on_c, 1, 56, 0
1, 5087, Note_on_c, 0, 74, 0
1, 5088, Note_on_c, 0, 75, 77
1, 5088, Note_on_c, 1, 55, 75
1, 5177, Note_on_c, 0, 75, 0
1, 5177, Note_on_c, 1, 55, 0
1, 5184, Note_on_c, 0, 63, 75
1, 5273, Note_on_c, 0, 63, 0
1, 5280, Note_on_c, 0, 68, 75
1, 5280, Note_on_c, 1, 60, 75
1, 5369, Note_on_c, 0, 68, 0
1, 5369, Note_on_c, 1, 60, 0
1, 5376, Note_on_c, 1, 56, 75
1, 5448, Note_on_c, 0, 72, 75
1, 5460, Note_on_c, 0, 72, 0
1, 5460, Note_on_c, 0, 68, 75
1, 5465, Note_on_c, 1, 56, 0
1, 5472, Note_on_c, 0, 68, 0
1, 5472, Note_on_c, 0, 70, 75
1, 5561, Note_on_c, 0, 70, 0
1, 5568, Note_on_c, 0, 63, 75
1, 5568, Note_on_c, 1, 55, 75
1, 5657, Note_on_c, 0, 63, 0
1, 5657, Note_on_c, 1, 55, 0
1, 5664, Note_on_c, 1, 51, 75
1, 5736, Note_on_c, 0, 67, 75
1, 5748, Note_on_c, 0, 67, 0
1, 5748, Note_on_c, 0, 63, 75
1, 5753, Note_on_c, 1, 51, 0
1, 5760, Note_on_c, 0, 63, 0
1, 5760, Note_on_c, 0, 58, 75
1, 5849, Note_on_c, 0, 58, 0
1, 5856, Note_on_c, 0, 68, 91
1, 5856, Note_on_c, 0, 65, 91
1, 5856, Note_on_c, 1, 50, 75
1, 5945, Note_on_c, 1, 50, 0
1, 5952, Note_on_c, 0, 68, 0
1, 5952, Note_on_c, 0, 65, 0
1, 5952, Note_on_c, 0, 67, 75
1, 5952, Note_on_c, 0, 63, 75
1, 5952, Note_on_c, 1, 51, 75
1, 6041, Note_on_c, 0, 67, 0
1, 6041, Note_on_c, 0, 63, 0
1, 6041, Note_on_c, 1, 51, 0
1, 6048, Note_on_c, 0, 68, 75
1, 6048, Note_on_c, 0, 63, 64
1, 6048, Note_on_c, 1, 46, 75
1, 6063, Note_on_c, 0, 68, 0
1, 6064, Note_on_c, 0, 67, 75
1, 6079, Note_on_c, 0, 67, 0
1, 6080, Note_on_c, 0, 68, 75
1, 6095, Note_on_c, 0, 68, 0
1, 6096, Note_on_c, 0, 67, 75
1, 6111, Note_on_c, 0, 67, 0
1, 6112, Note_on_c, 0, 65, 75
1, 6127, Note_on_c, 0, 65, 0
1, 6128, Note_on_c, 0, 67, 75
1, 6137, Note_on_c, 1, 46, 0
1, 6143, Note_on_c, 0, 67, 0
1, 6144, Note_on_c, 0, 65, 75
1, 6144, Note_on_c, 0, 63, 0
1, 6144, Note_on_c, 0, 62, 64
1, 6144, Note_on_c, 1, 58, 75
1, 6233, Note_on_c, 0, 65, 0
1, 6233, Note_on_c, 0, 62, 0
1, 6233, Note_on_c, 1, 58, 0
1, 6240, Note_on_c, 1, 46, 75
1, 6329, Note_on_c, 1, 46, 0
1, 6336, Note_on_c, 0, 77, 75
1, 6359, Note_on_c, 0, 77, 0
1, 6360, Note_on_c, 0, 75, 74
1, 6383, Note_on_c, 0, 75, 0
1, 6384, Note_on_c, 0, 74, 73
1, 6407, Note_on_c, 0, 74, 0
1, 6408, Note_on_c, 0, 72, 73
1, 6431, Note_on_c, 0, 72, 0
1, 6432, Note_on_c, 0, 70, 72
1, 6455, Note_on_c, 0, 70, 0
1, 6456, Note_on_c, 0, 69, 72
1, 6479, Note_on_c, 0, 69, 0
1, 6480, Note_on_c, 0, 67, 71
1, 6503, Note_on_c, 0, 67, 0
1, 6504, Note_on_c, 0, 65, 71
1, 6527, Note_on_c, 0, 65, 0
1, 6528, Note_on_c, 0, 63, 70
1, 6551, Note_on_c, 0, 63, 0
1, 6552, Note_on_c, 0, 62, 70
1, 6575, Note_on_c, 0, 62, 0
1, 6576, Note_on_c, 0, 60, 70
1, 6599, Note_on_c, 0, 60, 0
1, 6600, Note_on_c, 0, 58, 70
1, 6623, Note_on_c, 0, 58, 0
1, 6624, Note_on_c, 0, 57, 71
1, 6642, Note_on_c, 0, 57, 0
1, 6642, Note_on_c, 0, 58, 71
1, 6660, Note_on_c, 0, 58, 0
1, 6660, Note_on_c, 0, 57, 71
1, 6678, Note_on_c, 0, 57, 0
1, 6678, Note_on_c, 0, 58, 71
1, 6696, Note_on_c, 0, 58, 0
1, 6696, Note_on_c, 0, 57, 71
1, 6714, Note_on_c, 0, 57, 0
1, 6714, Note_on_c, 0, 58, 71
1, 6720, Note_on_c, 1, 48, 75
1, 6720, Note_on_c, 1, 41, 75
1, 6732, Note_on_c, 0, 58, 0
1, 6732, Note_on_c, 0, 57, 71
1, 6750, Note_on_c, 0, 57, 0
1, 6750, Note_on_c, 0, 58, 71
1, 6757, Note_on_c, 0, 58, 0
1, 6768, Note_on_c, 0, 60, 73
1, 6791, Note_on_c, 0, 60, 0
1, 6792, Note_on_c, 0, 63, 73
1, 6809, Note_on_c, 1, 48, 0
1, 6809, Note_on_c, 1, 41, 0
1, 6815, Note_on_c, 0, 63, 0
1, 6816, Note_on_c, 0, 62, 73
1, 6816, Note_on_c, 1, 50, 75
1, 6816, Note_on_c, 1, 46, 75
1, 6905, Note_on_c, 0, 62, 0
1, 6905, Note_on_c, 1, 50, 0
1, 6905, Note_on_c, 1, 46, 0
1, 6912, Note_on_c, 0, 77, 70
1, 6935, Note_on_c, 0, 77, 0
1, 6936, Note_on_c, 0, 75, 69
1, 6959, Note_on_c, 0, 75, 0
1, 6960, Note_on_c, 0, 74, 69
1, 6983, Note_on_c, 0, 74, 0
1, 6984, Note_on_c, 0, 72, 68
1, 7007, Note_on_c, 0, 72, 0
1, 7008, Note_on_c, 0, 70, 68
1, 7031, Note_on_c, 0, 70, 0
1, 7032, Note_on_c, 0, 69, 67
1, 7055, Note_on_c, 0, 69, 0
1, 7056, Note_on_c, 0, 67, 67
1, 7079, Note_on_c, 0, 67, 0
1, 7080, Note_on_c, 0, 65, 66
1, 7103, Note_on_c, 0, 65, 0
1, 7104, Note_on_c, 0, 63, 66
1, 7127, Note_on_c, 0, 63, 0
1, 7128, Note_on_c, 0, 62, 66
1, 7151, Note_on_c, 0, 62, 0
1, 7152, Note_on_c, 0, 60, 66
1, 7175, Note_on_c, 0, 60, 0
1, 7176, Note_on_c, 0, 58, 67
1, 7199, Note_on_c, 0, 58, 0
1, 7200, Note_on_c, 0, 57, 67
1, 7218, Note_on_c, 0, 57, 0
1, 7218, Note_on_c, 0, 58, 67
1, 7236, Note_on_c, 0, 58, 0
1, 7236, Note_on_c, 0, 57, 67
1, 7254, Note_on_c, 0, 57, 0
1, 7254, Note_on_c, 0, 58, 67
1, 7272, Note_on_c, 0, 58, 0
1, 7272, Note_on_c, 0, 57, 67
1, 7290, Note_on_c, 0, 57, 0
1, 7290, Note_on_c, 0, 58, 67
1, 7296, Note_on_c, 1, 48, 75
1, 7296, Note_on_c, 1, 41, 75
1, 7308, Note_on_c, 0, 58, 0
1, 7308, Note_on_c, 0, 57, 67
1, 7326, Note_on_c, 0, 57, 0
1, 7326, Note_on_c, 0, 58, 67
1, 7333, Note_on_c, 0, 58, 0
1, 7344, Note_on_c, 0, 60, 71
1, 7367, Note_on_c, 0, 60, 0
1, 7368, Note_on_c, 0, 63, 72
1, 7385, Note_on_c, 1, 48, 0
1, 7385, Note_on_c, 1, 41, 0
1, 7391, Note_on_c, 0, 63, 0
1, 7392, Note_on_c, 0, 62, 72
1, 7392, Note_on_c, 1, 50, 75
1, 7392, Note_on_c, 1, 46, 75
1, 7481, Note_on_c, 0, 62, 0
1, 7481, Note_on_c, 1, 50, 0
1, 7481, Note_on_c, 1, 46, 0
1, 7488, Note_on_c, 0, 60, 75
1, 7488, Note_on_c, 1, 51, 75
1, 7488, Note_on_c, 1, 39, 75
1, 7555, Note_on_c, 0, 60, 0
1, 7560, Note_on_c, 0, 62, 75
1, 7577, Note_on_c, 1, 51, 0
1, 7577, Note_on_c, 1, 39, 0
1, 7583, Note_on_c, 0, 62, 0
1, 7584, Note_on_c, 0, 58, 75
1, 7584, Note_on_c, 1, 50, 75
1, 7584, Note_on_c, 1, 41, 75
1, 7673, Note_on_c, 0, 58, 0
1, 7673, Note_on_c, 1, 50, 0
1, 7673, Note_on_c, 1, 41, 0
1, 7680, Note_on_c, 0, 58, 75
1, 7680, Note_on_c, 1, 48, 75
1, 7680, Note_on_c, 1, 41, 75
1, 7695, Note_on_c, 0, 58, 0
1, 7696, Note_on_c, 0, 57, 75
1, 7711, Note_on_c, 0, 57, 0
1, 7712, Note_on_c, 0, 58, 75
1, 7727, Note_on_c, 0, 58, 0
1, 7728, Note_on_c, 0, 57, 75
1, 7743, Note_on_c, 0, 57, 0
1, 7744, Note_on_c, 0, 55, 75
1, 7759, Note_on_c, 0, 55, 0
1, 7760, Note_on_c, 0, 57, 75
1, 7769, Note_on_c, 1, 48, 0
1, 7769, Note_on_c, 1, 41, 0
1, 7775, Note_on_c, 0, 57, 0
1, 7776, Note_on_c, 0, 57, 75
1, 7776, Note_on_c, 1, 46, 75
1, 7865, Note_on_c, 1, 46, 0
1, 7872, Note_on_c, 0, 57, 0
1, 7872, Note_on_c, 0, 58, 75
1, 7872, Note_on_c, 1, 41, 75
1, 7961, Note_on_c, 1, 41, 0
1, 7968, Note_on_c, 1, 34, 75
1, 8049, Note_on_c, 0, 58, 0
1, 8057, Note_on_c, 1, 34, 0
1, 8064, Note_on_c, 0, 63, 75
1, 8153, Note_on_c, 0, 63, 0
1, 8160, Note_on_c, 0, 70, 75
1, 8160, Note_on_c, 1, 55, 75
1, 8249, Note_on_c, 0, 70, 0
1, 8249, Note_on_c, 1, 55, 0
1, 8256, Note_on_c, 1, 51, 75
1, 8328, Note_on_c, 0, 73, 75
1, 8345, Note_on_c, 1, 51, 0
1, 8351, Note_on_c, 0, 73, 0
1, 8352, Note_on_c, 0, 71, 75
1, 8448, Note_on_c, 0, 71, 0
1, 8448, Note_on_c, 0, 72, 75
1, 8448, Note_on_c, 1, 56, 75
1, 8537, Note_on_c, 0, 72, 0
1, 8537, Note_on_c, 1, 56, 0
1, 8544, Note_on_c, 1, 44, 76
1, 8633, Note_on_c, 1, 44, 0
1, 8640, Note_on_c, 0, 65, 76
1, 8729, Note_on_c, 0, 65, 0
1, 8736, Note_on_c, 0, 72, 77
1, 8736, Note_on_c, 1, 57, 77
1, 8825, Note_on_c, 0, 72, 0
1, 8825, Note_on_c, 1, 57, 0
1, 8832, Note_on_c, 1, 53, 78
1, 8904, Note_on_c, 0, 75, 78
1, 8921, Note_on_c, 1, 53, 0
1, 8927, Note_on_c, 0, 75, 0
1, 8928, Note_on_c, 0, 73, 78
1, 9024, Note_on_c, 0, 73, 0
1, 9024, Note_on_c, 0, 74, 79
1, 9024, Note_on_c, 1, 58, 79
1, 9113, Note_on_c, 0, 74, 0
1, 9113, Note_on_c, 1, 58, 0
1, 9120, Note_on_c, 1, 46, 79
1, 9209, Note_on_c, 1, 46, 0
1, 9216, Note_on_c, 0, 70, 80
1, 9305, Note_on_c, 0, 70, 0
1, 9312, Note_on_c, 0, 80, 81
1, 9312, Note_on_c, 1, 62, 81
1, 9401, Note_on_c, 0, 80, 0
1, 9401, Note_on_c, 1, 62, 0
1, 9408, Note_on_c, 1, 58, 81
1, 9480, Note_on_c, 0, 80, 81
1, 9492, Note_on_c, 0, 80, 0
1, 9492, Note_on_c, 0, 77, 81
1, 9497, Note_on_c, 1, 58, 0
1, 9504, Note_on_c, 0, 77, 0
1, 9504, Note_on_c, 0, 79, 81
1, 9593, Note_on_c, 0, 79, 0
1, 9600, Note_on_c, 0, 82, 81
1, 9600, Note_on_c, 1, 63, 81
1, 9689, Note_on_c, 0, 82, 0
1, 9689, Note_on_c, 1, 63, 0
1, 9696, Note_on_c, 1, 55, 81
1, 9768, Note_on_c, 0, 79, 81
1, 9780, Note_on_c, 0, 79, 0
1, 9780, Note_on_c, 0, 75, 81
1, 9785, Note_on_c, 1, 55, 0
1, 9792, Note_on_c, 0, 75, 0
1, 9792, Note_on_c, 0, 72, 81
1, 9792, Note_on_c, 1, 56, 81
1, 9881, Note_on_c, 0, 72, 0
1, 9888, Note_on_c, 0, 82, 81
1, 9900, Note_on_c, 0, 82, 0
1, 9900, Note_on_c, 0, 80, 81
1, 9955, Note_on_c, 0, 80, 0
1, 9960, Note_on_c, 0, 79, 81
1, 9969, Note_on_c, 1, 56, 0
1, 9983, Note_on_c, 0, 79, 0
1, 9984, Note_on_c, 0, 77, 81
1, 9984, Note_on_c, 1, 57, 81
1, 10051, Note_on_c, 0, 77, 0
1, 10056, Note_on_c, 0, 75, 81
1, 10073, Note_on_c, 1, 57, 0
1, 10079, Note_on_c, 0, 75, 0
1, 10080, Note_on_c, 0, 75, 81
1, 10080, Note_on_c, 1, 58, 81
1, 10169, Note_on_c, 1, 58, 0
1, 10176, Note_on_c, 0, 75, 0
1, 10176, Note_on_c, 0, 74, 79
1, 10176, Note_on_c, 1, 53, 79
1, 10265, Note_on_c, 0, 74, 0
1, 10265, Note_on_c, 1, 53, 0
1, 10272, Note_on_c, 1, 46, 77
1, 10361, Note_on_c, 1, 46, 0
1, 10368, Note_on_c, 0, 82, 75
1, 10391, Note_on_c, 0, 82, 0
1, 10392, Note_on_c, 0, 80, 74
1, 10415, Note_on_c, 0, 80, 0
1, 10416, Note_on_c, 0, 79, 74
1, 10439, Note_on_c, 0, 79, 0
1, 10440, Note_on_c, 0, 77, 73
1, 10463, Note_on_c, 0, 77, 0
1, 10464, Note_on_c, 0, 75, 73
1, 10487, Note_on_c, 0, 75, 0
1, 10488, Note_on_c, 0, 74, 72
1, 10511, Note_on_c, 0, 74, 0
1, 10512, Note_on_c, 0, 72, 72
1, 10535, Note_on_c, 0, 72, 0
1, 10536, Note_on_c, 0, 70, 72
1, 10559, Note_on_c, 0, 70, 0
1, 10560, Note_on_c, 0, 68, 71
1, 10583, Note_on_c, 0, 68, 0
1, 10584, Note_on_c, 0, 67, 71
1, 10607, Note_on_c, 0, 67, 0
1, 10608, Note_on_c, 0, 65, 70
1, 10631, Note_on_c, 0, 65, 0
1, 10632, Note_on_c, 0, 63, 70
1, 10655, Note_on_c, 0, 63, 0
1, 10656, Note_on_c, 0, 62, 70
1, 10674, Note_on_c, 0, 62, 0
1, 10674, Note_on_c, 0, 63, 70
1, 10692, Note_on_c, 0, 63, 0
1, 10692, Note_on_c, 0, 62, 70
1, 10710, Note_on_c, 0, 62, 0
1, 10710, Note_on_c, 0, 63, 70
1, 10728, Note_on_c, 0, 63, 0
1, 10728, Note_on_c, 0, 62, 70
1, 10746, Note_on_c, 0, 62, 0
1, 10746, Note_on_c, 0, 63, 70
1, 10752, Note_on_c, 1, 53, 75
1, 10752, Note_on_c, 1, 46, 75
1, 10764, Note_on_c, 0, 63, 0
1, 10764, Note_on_c, 0, 62, 70
1, 10782, Note_on_c, 0, 62, 0
1, 10782, Note_on_c, 0, 63, 70
1, 10789, Note_on_c, 0, 63, 0
1, 10800, Note_on_c, 0, 65, 72
1, 10823, Note_on_c, 0, 65, 0
1, 10824, Note_on_c, 0, 68, 72
1, 10841, Note_on_c, 1, 53, 0
1, 10841, Note_on_c, 1, 46, 0
1, 10847, Note_on_c, 0, 68, 0
1, 10848, Note_on_c, 0, 67, 73
1, 10848, Note_on_c, 1, 55, 75
1, 10848, Note_on_c, 1, 51, 75
1, 10937, Note_on_c, 0, 67, 0
1, 10937, Note_on_c, 1, 55, 0
1, 10937, Note_on_c, 1, 51, 0
1, 10944, Note_on_c, 0, 82, 70
1, 10967, Note_on_c, 0, 82, 0
1, 10968, Note_on_c, 0, 80, 69
1, 10991, Note_on_c, 0, 80, 0
1, 10992, Note_on_c, 0, 79, 69
1, 11015, Note_on_c, 0, 79, 0
1, 11016, Note_on_c, 0, 77, 68
1, 11039, Note_on_c, 0, 77, 0
1, 11040, Note_on_c, 0, 75, 68
1, 11063, Note_on_c, 0, 75, 0
1, 11064, Note_on_c, 0, 74, 67
1, 11087, Note_on_c, 0, 74, 0
1, 11088, Note_on_c, 0, 72, 67
1, 11111, Note_on_c, 0, 72, 0
1, 11112, Note_on_c, 0, 70, 66
1, 11135, Note_on_c, 0, 70, 0
1, 11136, Note_on_c, 0, 68, 66
1, 11159, Note_on_c, 0, 68, 0
1, 11160, Note_on_c, 0, 67, 66
1, 11183, Note_on_c, 0, 67, 0
1, 11184, Note_on_c, 0, 65, 67
1, 11207, Note_on_c, 0, 65, 0
1, 11208, Note_on_c, 0, 63, 67
1, 11231, Note_on_c, 0, 63, 0
1, 11232, Note_on_c, 0, 62, 68
1, 11250, Note_on_c, 0, 62, 0
1, 11250, Note_on_c, 0, 63, 68
1, 11268, Note_on_c, 0, 63, 0
1, 11268, Note_on_c, 0, 62, 68
1, 11286, Note_on_c, 0, 62, 0
1, 11286, Note_on_c, 0, 63, 68
1, 11304, Note_on_c, 0, 63, 0
1, 11304, Note_on_c, 0, 62, 68
1, 11322, Note_on_c, 0, 62, 0
1, 11322, Note_on_c, 0, 63, 68
1, 11328, Note_on_c, 1, 53, 75
1, 11328, Note_on_c, 1, 46, 75
1, 11340, Note_on_c, 0, 63, 0
1, 11340, Note_on_c, 0, 62, 68
1, 11358, Note_on_c, 0, 62, 0
1, 11358, Note_on_c, 0, 63, 68
1, 11365, Note_on_c, 0, 63, 0
1, 11376, Note_on_c, 0, 65, 71
1, 11399, Note_on_c, 0, 65, 0
1, 11400, Note_on_c, 0, 68, 72
1, 11417, Note_on_c, 1, 53, 0
1, 11417, Note_on_c, 1, 46, 0
1, 11423, Note_on_c, 0, 68, 0
1, 11424, Note_on_c, 0, 67, 72
1, 11424, Note_on_c, 1, 55, 75
1, 11424, Note_on_c, 1, 51, 75
1, 11513, Note_on_c, 0, 67, 0
1, 11513, Note_on_c, 1, 55, 0
1, 11513, Note_on_c, 1, 51, 0
1, 11520, Note_on_c, 0, 65, 75
1, 11520, Note_on_c, 1, 56, 75
1, 11520, Note_on_c, 1, 44, 75
1, 11587, Note_on_c, 0, 65, 0
1, 11592, Note_on_c, 0, 67, 75
1, 11609, Note_on_c, 1, 56, 0
1, 11609, Note_on_c, 1, 44, 0
1, 11615, Note_on_c, 0, 67, 0
1, 11616, Note_on_c, 0, 63, 75
1, 11616, Note_on_c, 1, 55, 75
1, 11616, Note_on_c, 1, 46, 75
1, 11705, Note_on_c, 0, 63, 0
1, 11705, Note_on_c, 1, 55, 0
1, 11705, Note_on_c, 1, 46, 0
1, 11712, Note_on_c, 0, 63, 75
1, 11712, Note_on_c, 1, 53, 75
1, 11712, Note_on_c, 1, 46, 75
1, 11727, Note_on_c, 0, 63, 0
1, 11728, Note_on_c, 0, 62, 75
1, 11743, Note_on_c, 0, 62, 0
1, 11744, Note_on_c, 0, 63, 75
1, 11759, Note_on_c, 0, 63, 0
1, 11760, Note_on_c, 0, 62, 75
1, 11775, Note_on_c, 0, 62, 0
1, 11776, Note_on_c, 0, 60, 75
1, 11791, Note_on_c, 0, 60, 0
1, 11792, Note_on_c, 0, 62, 75
1, 11801, Note_on_c, 1, 53, 0
1, 11801, Note_on_c, 1, 46, 0
1, 11807, Note_on_c, 0, 62, 0
1, 11808, Note_on_c, 0, 62, 75
1, 11808, Note_on_c, 1, 51, 75
1, 11897, Note_on_c, 1, 51, 0
1, 11904, Note_on_c, 0, 62, 0
1, 11904, Note_on_c, 0, 63, 75
1, 11904, Note_on_c, 1, 46, 75
1, 11993, Note_on_c, 1, 46, 0
1, 12000, Note_on_c, 1, 39, 75
1, 12081, Note_on_c, 0, 63, 0
1, 12089, Note_on_c, 1, 39, 0
1, 12096, Note_on_c, 0, 63, 75
1, 12185, Note_on_c, 0, 63, 0
1, 12192, Note_on_c, 0, 70, 75
1, 12192, Note_on_c, 1, 55, 75
1, 12281, Note_on_c, 0, 70, 0
1, 12281, Note_on_c, 1, 55, 0
1, 12288, Note_on_c, 1, 51, 75
1, 12360, Note_on_c, 0, 73, 75
1, 12377, Note_on_c, 1, 51, 0
1, 12383, Note_on_c, 0, 73, 0
1, 12384, Note_on_c, 0, 71, 75
1, 12480, Note_on_c, 0, 71, 0
1, 12480, Note_on_c, 0, 72, 75
1, 12480, Note_on_c, 1, 56, 75
1, 12569, Note_on_c, 0, 72, 0
1, 12569, Note_on_c, 1, 56, 0
1, 12576, Note_on_c, 1, 44, 76
1, 12665, Note_on_c, 1, 44, 0
1, 12672, Note_on_c, 0, 65, 76
1, 12761, Note_on_c, 0, 65, 0
1, 12768, Note_on_c, 0, 72, 77
1, 12768, Note_on_c, 1, 57, 77
1, 12857, Note_on_c, 0, 72, 0
1, 12857, Note_on_c, 1, 57, 0
1, 12864, Note_on_c, 1, 53, 78
1, 12936, Note_on_c, 0, 75, 78
1, 12953, Note_on_c, 1, 53, 0
1, 12959, Note_on_c, 0, 75, 0
1, 12960, Note_on_c, 0, 73, 78
1, 13056, Note_on_c, 0, 73, 0
1, 13056, Note_on_c, 0, 74, 79
1, 13056, Note_on_c, 1, 58, 79
1, 13145, Note_on_c, 0, 74, 0
1, 13145, Note_on_c, 1, 58, 0
1, 13152, Note_on_c, 1, 46, 79
1, 13241, Note_on_c, 1, 46, 0
1, 13248, Note_on_c, 0, 70, 80
1, 13337, Note_on_c, 0, 70, 0
1, 13344, Note_on_c, 0, 80, 81
1, 13344, Note_on_c, 1, 62, 81
1, 13433, Note_on_c, 0, 80, 0
1, 13433, Note_on_c, 1, 62, 0
1, 13440, Note_on_c, 1, 58, 81
1, 13512, Note_on_c, 0, 80, 81
1, 13524, Note_on_c, 0, 80, 0
1, 13524, Note_on_c, 0, 77, 81
1, 13529, Note_on_c, 1, 58, 0
1, 13536, Note_on_c, 0, 77, 0
1, 13536, Note_on_c, 0, 79, 81
1, 13625, Note_on_c, 0, 79, 0
1, 13632, Note_on_c, 0, 82, 81
1, 13632, Note_on_c, 1, 63, 81
1, 13721, Note_on_c, 0, 82, 0
1, 13721, Note_on_c, 1, 63, 0
1, 13728, Note_on_c, 1, 55, 81
1, 13800, Note_on_c, 0, 79, 81
1, 13812, Note_on_c, 0, 79, 0
1, 13812, Note_on_c, 0, 75, 81
1, 13817, Note_on_c, 1, 55, 0
1, 13824, Note_on_c, 0, 75, 0
1, 13824, Note_on_c, 0, 72, 81
1, 13824, Note_on_c, 1, 56, 81
1, 13913, Note_on_c, 0, 72, 0
1, 13920, Note_on_c, 0, 82, 81
1, 13932, Note_on_c, 0, 82, 0
1, 13932, Note_on_c, 0, 80, 81
1, 13987, Note_on_c, 0, 80, 0
1, 13992, Note_on_c, 0, 79, 81
1, 14001, Note_on_c, 1, 56, 0
1, 14015, Note_on_c, 0, 79, 0
1, 14016, Note_on_c, 0, 77, 81
1, 14016, Note_on_c, 1, 57, 81
1, 14083, Note_on_c, 0, 77, 0
1, 14088, Note_on_c, 0, 75, 81
1, 14105, Note_on_c, 1, 57, 0
1, 14111, Note_on_c, 0, 75, 0
1, 14112, Note_on_c, 0, 75, 81
1, 14112, Note_on_c, 1, 58, 81
1, 14201, Note_on_c, 1, 58, 0
1, 14208, Note_on_c, 0, 75, 0
1, 14208, Note_on_c, 0, 74, 79
1, 14208, Note_on_c, 1, 53, 79
1, 14297, Note_on_c, 0, 74, 0
1, 14297, Note_on_c, 1, 53, 0
1, 14304, Note_on_c, 1, 46, 77
1, 14393, Note_on_c, 1, 46, 0
1, 14400, Note_on_c, 0, 82, 75
1, 14423, Note_on_c, 0, 82, 0
1, 14424, Note_on_c, 0, 80, 74
1, 14447, Note_on_c, 0, 80, 0
1, 14448, Note_on_c, 0, 79, 74
1, 14471, Note_on_c, 0, 79, 0
1, 14472, Note_on_c, 0, 77, 73
1, 14495, Note_on_c, 0, 77, 0
1, 14496, Note_on_c, 0, 75, 73
1, 14519, Note_on_c, 0, 75, 0
1, 14520, Note_on_c, 0, 74, 72
1, 14543, Note_on_c, 0, 74, 0
1, 14544, Note_on_c, 0, 72, 72
1, 14567, Note_on_c, 0, 72, 0
1, 14568, Note_on_c, 0, 70, 72
1, 14591, Note_on_c, 0, 70, 0
1, 14592, Note_on_c, 0, 68, 71
1, 14615, Note_on_c, 0, 68, 0
1, 14616, Note_on_c, 0, 67, 71
1, 14639, Note_on_c, 0, 67, 0
1, 14640, Note_on_c, 0, 65, 70
1, 14663, Note_on_c, 0, 65, 0
1, 14664, Note_on_c, 0, 63, 70
1, 14687, Note_on_c, 0, 63, 0
1, 14688, Note_on_c, 0, 62, 70
1, 14706, Note_on_c, 0, 62, 0
1, 14706, Note_on_c, 0, 63, 70
1, 14724, Note_on_c, 0, 63, 0
1, 14724, Note_on_c, 0, 62, 70
1, 14742, Note_on_c, 0, 62, 0
1, 14742, Note_on_c, 0, 63, 70
1, 14760, Note_on_c, 0, 63, 0
1, 14760, Note_on_c, 0, 62, 70
1, 14778, Note_on_c, 0, 62, 0
1, 14778, Note_on_c, 0, 63, 70
1, 14784, Note_on_c, 1, 53, 75
1, 14784, Note_on_c, 1, 46, 75
1, 14796, Note_on_c, 0, 63, 0
1, 14796, Note_on_c, 0, 62, 70
1, 14814, Note_on_c, 0, 62, 0
1, 14814, Note_on_c, 0, 63, 70
1, 14821, Note_on_c, 0, 63, 0
1, 14832, Note_on_c, 0, 65, 72
1, 14855, Note_on_c, 0, 65, 0
1, 14856, Note_on_c, 0, 68, 72
1, 14873, Note_on_c, 1, 53, 0
1, 14873, Note_on_c, 1, 46, 0
1, 14879, Note_on_c, 0, 68, 0
1, 14880, Note_on_c, 0, 67, 73
1, 14880, Note_on_c, 1, 55, 75
1, 14880, Note_on_c, 1, 51, 75
1, 14969, Note_on_c, 0, 67, 0
1, 14969, Note_on_c, 1, 55, 0
1, 14969, Note_on_c, 1, 51, 0
1, 14976, Note_on_c, 0, 82, 70
1, 14999, Note_on_c, 0, 82, 0
1, 15000, Note_on_c, 0, 80, 69
1, 15023, Note_on_c, 0, 80, 0
1, 15024, Note_on_c, 0, 79, 69
1, 15047, Note_on_c, 0, 79, 0
1, 15048, Note_on_c, 0, 77, 68
1, 15071, Note_on_c, 0, 77, 0
1, 15072, Note_on_c, 0, 75, 68
1, 15095, Note_on_c, 0, 75, 0
1, 15096, Note_on_c, 0, 74, 67
1, 15119, Note_on_c, 0, 74, 0
1, 15120, Note_on_c, 0, 72, 67
1, 15143, Note_on_c, 0, 72, 0
1, 15144, Note_on_c, 0, 70, 66
1, 15167, Note_on_c, 0, 70, 0
1, 15168, Note_on_c, 0, 68, 66
1, 15191, Note_on_c, 0, 68, 0
1, 15192, Note_on_c, 0, 67, 66
1, 15215, Note_on_c, 0, 67, 0
1, 15216, Note_on_c, 0, 65, 67
1, 15239, Note_on_c, 0, 65, 0
1, 15240, Note_on_c, 0, 63, 67
1, 15263, Note_on_c, 0, 63, 0
1, 15264, Note_on_c, 0, 62, 68
1, 15282, Note_on_c, 0, 62, 0
1, 15282, Note_on_c, 0, 63, 68
1, 15300, Note_on_c, 0, 63, 0
1, 15300, Note_on_c, 0, 62, 68
1, 15318, Note_on_c, 0, 62, 0
1, 15318, Note_on_c, 0, 63, 68
1, 15336, Note_on_c, 0, 63, 0
1, 15336, Note_on_c, 0, 62, 68
1, 15354, Note_on_c, 0, 62, 0
1, 15354, Note_on_c, 0, 63, 68
1, 15360, Note_on_c, 1, 53, 75
1, 15360, Note_on_c, 1, 46, 75
1, 15372, Note_on_c, 0, 63, 0
1, 15372, Note_on_c, 0, 62, 68
1, 15390, Note_on_c, 0, 62, 0
1, 15390, Note_on_c, 0, 63, 68
1, 15397, Note_on_c, 0, 63, 0
1, 15408, Note_on_c, 0, 65, 71
1, 15431, Note_on_c, 0, 65, 0
1, 15432, Note_on_c, 0, 68, 72
1, 15449, Note_on_c, 1, 53, 0
1, 15449, Note_on_c, 1, 46, 0
1, 15455, Note_on_c, 0, 68, 0
1, 15456, Note_on_c, 0, 67, 72
1, 15456, Note_on_c, 1, 55, 75
1, 15456, Note_on_c, 1, 51, 75
1, 15545, Note_on_c, 0, 67, 0
1, 15545, Note_on_c, 1, 55, 0
1, 15545, Note_on_c, 1, 51, 0
1, 15552, Note_on_c, 0, 65, 75
1, 15552, Note_on_c, 1, 56, 75
1, 15552, Note_on_c, 1, 44, 75
1, 15619, Note_on_c, 0, 65, 0
1, 15624, Note_on_c, 0, 67, 75
1, 15641, Note_on_c, 1, 56, 0
1, 15641, Note_on_c, 1, 44, 0
1, 15647, Note_on_c, 0, 67, 0
1, 15648, Note_on_c, 0, 63, 75
1, 15648, Note_on_c, 1, 55, 75
1, 15648, Note_on_c, 1, 46, 75
1, 15737, Note_on_c, 0, 63, 0
1, 15737, Note_on_c, 1, 55, 0
1, 15737, Note_on_c, 1, 46, 0
1, 15744, Note_on_c, 0, 63, 75
1, 15744, Note_on_c, 1, 53, 75
1, 15744, Note_on_c, 1, 46, 75
1, 15759, Note_on_c, 0, 63, 0
1, 15760, Note_on_c, 0, 62, 75
1, 15775, Note_on_c, 0, 62, 0
1, 15776, Note_on_c, 0, 63, 75
1, 15791, Note_on_c, 0, 63, 0
1, 15792, Note_on_c, 0, 62, 75
1, 15807, Note_on_c, 0, 62, 0
1, 15808, Note_on_c, 0, 60, 75
1, 15823, Note_on_c, 0, 60, 0
1, 15824, Note_on_c, 0, 62, 75
1, 15833, Note_on_c, 1, 53, 0
1, 15833, Note_on_c, 1, 46, 0
1, 15839, Note_on_c, 0, 62, 0
1, 15840, Note_on_c, 0, 62, 75
1, 15840, Note_on_c, 1, 51, 75
1, 15929, Note_on_c, 1, 51, 0
1, 15936, Note_on_c, 0, 62, 0
1, 15936, Note_on_c, 0, 63, 75
1, 15936, Note_on_c, 1, 46, 75
1, 16025, Note_on_c, 1, 46, 0
1, 16032, Note_on_c, 1, 39, 75
1, 16113, Note_on_c, 0, 63, 0
1, 16121, Note_on_c, 1, 39, 0
1, 16128, Note_on_c, 1, 51, 66
1, 16176, Note_on_c, 0, 63, 66
1, 16217, Note_on_c, 1, 51, 0
1, 16224, Note_on_c, 1, 58, 66
1, 16265, Note_on_c, 0, 63, 0
1, 16272, Note_on_c, 0, 66, 66
1, 16313, Note_on_c, 1, 58, 0
1, 16320, Note_on_c, 1, 56, 66
1, 16361, Note_on_c, 0, 66, 0
1, 16368, Note_on_c, 0, 65, 66
1, 16409, Note_on_c, 1, 56, 0
1, 16416, Note_on_c, 1, 54, 66
1, 16461, Note_on_c, 0, 65, 0
1, 16464, Note_on_c, 0, 63, 66
1, 16505, Note_on_c, 1, 54, 0
1, 16512, Note_on_c, 1, 53, 66
1, 16553, Note_on_c, 0, 63, 0
1, 16560, Note_on_c, 0, 62, 67
1, 16601, Note_on_c, 1, 53, 0
1, 16608, Note_on_c, 1, 54, 67
1, 16649, Note_on_c, 0, 62, 0
1, 16656, Note_on_c, 0, 63, 67
1, 16697, Note_on_c, 1, 54, 0
1, 16704, Note_on_c, 1, 46, 68
1, 16749, Note_on_c, 0, 63, 0
1, 16752, Note_on_c, 0, 65, 68
1, 16793, Note_on_c, 1, 46, 0
1, 16800, Note_on_c, 1, 50, 68
1, 16841, Note_on_c, 0, 65, 0
1, 16848, Note_on_c, 0, 68, 69
1, 16889, Note_on_c, 1, 50, 0
1, 16896, Note_on_c, 1, 51, 69
1, 16937, Note_on_c, 0, 68, 0
1, 16944, Note_on_c, 0, 66, 69
1, 16985, Note_on_c, 1, 51, 0
1, 16992, Note_on_c, 1, 46, 70
1, 17037, Note_on_c, 0, 66, 0
1, 17040, Note_on_c, 0, 65, 70
1, 17081, Note_on_c, 1, 46, 0
1, 17085, Note_on_c, 0, 65, 0
1, 17088, Note_on_c, 1, 58, 70
1, 17177, Note_on_c, 1, 58, 0
1, 17184, Note_on_c, 1, 46, 70
1, 17273, Note_on_c, 1, 46, 0
1, 17280, Note_on_c, 0, 54, 64
1, 17328, Note_on_c, 0, 73, 75
1, 17376, Note_on_c, 1, 61, 75
1, 17417, Note_on_c, 0, 73, 0
1, 17424, Note_on_c, 0, 70, 75
1, 17465, Note_on_c, 1, 61, 0
1, 17472, Note_on_c, 1, 64, 75
1, 17513, Note_on_c, 0, 70, 0
1, 17520, Note_on_c, 0, 66, 75
1, 17545, Note_on_c, 0, 54, 0
1, 17561, Note_on_c, 1, 64, 0
1, 17565, Note_on_c, 0, 66, 0
1, 17568, Note_on_c, 0, 54, 64
1, 17616, Note_on_c, 0, 78, 75
1, 17664, Note_on_c, 1, 59, 75
1, 17705, Note_on_c, 0, 78, 0
1, 17712, Note_on_c, 0, 75, 75
1, 17753, Note_on_c, 1, 59, 0
1, 17760, Note_on_c, 1, 63, 75
1, 17801, Note_on_c, 0, 75, 0
1, 17808, Note_on_c, 0, 71, 75
1, 17833, Note_on_c, 0, 54, 0
1, 17849, Note_on_c, 1, 63, 0
1, 17853, Note_on_c, 0, 71, 0
1, 17856, Note_on_c, 0, 54, 64
1, 17904, Note_on_c, 0, 73, 75
1, 17952, Note_on_c, 1, 61, 75
1, 17993, Note_on_c, 0, 73, 0
1, 18000, Note_on_c, 0, 70, 75
1, 18041, Note_on_c, 1, 61, 0
1, 18048, Note_on_c, 1, 64, 75
1, 18089, Note_on_c, 0, 70, 0
1, 18096, Note_on_c, 0, 66, 75
1, 18121, Note_on_c, 0, 54, 0
1, 18137, Note_on_c, 1, 64, 0
1, 18141, Note_on_c, 0, 66, 0
1, 18144, Note_on_c, 0, 54, 64
1, 18192, Note_on_c, 0, 78, 75
1, 18240, Note_on_c, 1, 59, 75
1, 18281, Note_on_c, 0, 78, 0
1, 18288, Note_on_c, 0, 75, 75
1, 18329, Note_on_c, 1, 59, 0
1, 18336, Note_on_c, 1, 63, 75
1, 18377, Note_on_c, 0, 75, 0
1, 18384, Note_on_c, 0, 71, 75
1, 18409, Note_on_c, 0, 54, 0
1, 18425, Note_on_c, 1, 63, 0
1, 18429, Note_on_c, 0, 71, 0
1, 18432, Note_on_c, 0, 54, 64
1, 18480, Note_on_c, 0, 73, 75
1, 18528, Note_on_c, 1, 58, 75
1, 18569, Note_on_c, 0, 73, 0
1, 18576, Note_on_c, 0, 70, 75
1, 18617, Note_on_c, 1, 58, 0
1, 18624, Note_on_c, 1, 61, 75
1, 18665, Note_on_c, 0, 70, 0
1, 18672, Note_on_c, 0, 66, 75
1, 18697, Note_on_c, 0, 54, 0
1, 18713, Note_on_c, 1, 61, 0
1, 18717, Note_on_c, 0, 66, 0
1, 18720, Note_on_c, 0, 53, 64
1, 18768, Note_on_c, 0, 80, 75
1, 18816, Note_on_c, 1, 56, 75
1, 18857, Note_on_c, 0, 80, 0
1, 18864, Note_on_c, 0, 77, 75
1, 18905, Note_on_c, 1, 56, 0
1, 18912, Note_on_c, 1, 59, 75
1, 18953, Note_on_c, 0, 77, 0
1, 18960, Note_on_c, 0, 71, 75
1, 18985, Note_on_c, 0, 53, 0
1, 19001, Note_on_c, 1, 59, 0
1, 19005, Note_on_c, 0, 71, 0
1, 19008, Note_on_c, 0, 70, 75
1, 19008, Note_on_c, 1, 54, 75
1, 19053, Note_on_c, 0, 70, 0
1, 19056, Note_on_c, 0, 73, 75
1, 19097, Note_on_c, 1, 54, 0
1, 19104, Note_on_c, 1, 58, 75
1, 19145, Note_on_c, 0, 73, 0
1, 19152, Note_on_c, 0, 66, 75
1, 19193, Note_on_c, 1, 58, 0
1, 19197, Note_on_c, 0, 66, 0
1, 19200, Note_on_c, 0, 65, 75
1, 19200, Note_on_c, 1, 61, 75
1, 19245, Note_on_c, 0, 65, 0
1, 19248, Note_on_c, 0, 68, 75
1, 19289, Note_on_c, 1, 61, 0
1, 19296, Note_on_c, 1, 58, 75
1, 19341, Note_on_c, 0, 68, 0
1, 19344, Note_on_c, 0, 66, 75
1, 19385, Note_on_c, 1, 58, 0
1, 19392, Note_on_c, 1, 53, 75
1, 19433, Note_on_c, 0, 66, 0
1, 19440, Note_on_c, 0, 71, 75
1, 19481, Note_on_c, 1, 53, 0
1, 19488, Note_on_c, 1, 54, 75
1, 19529, Note_on_c, 0, 71, 0
1, 19536, Note_on_c, 0, 70, 75
1, 19577, Note_on_c, 1, 54, 0
1, 19584, Note_on_c, 1, 59, 75
1, 19629, Note_on_c, 0, 70, 0
1, 19632, Note_on_c, 0, 68, 75
1, 19673, Note_on_c, 1, 59, 0
1, 19680, Note_on_c, 1, 61, 75
1, 19721, Note_on_c, 0, 68, 0
1, 19728, Note_on_c, 0, 66, 75
1, 19769, Note_on_c, 1, 61, 0
1, 19776, Note_on_c, 1, 49, 75
1, 19817, Note_on_c, 0, 66, 0
1, 19824, Note_on_c, 0, 65, 75
1, 19865, Note_on_c, 1, 49, 0
1, 19872, Note_on_c, 1, 54, 75
1, 19917, Note_on_c, 0, 65, 0
1, 19920, Note_on_c, 0, 66, 75
1, 19961, Note_on_c, 1, 54, 0
1, 19965, Note_on_c, 0, 66, 0
1, 19968, Note_on_c, 1, 49, 75
1, 20057, Note_on_c, 1, 49, 0
1, 20064, Note_on_c, 1, 42, 75
1, 20153, Note_on_c, 1, 42, 0
1, 20160, Note_on_c, 1, 51, 66
1, 20208, Note_on_c, 0, 63, 66
1, 20249, Note_on_c, 1, 51, 0
1, 20256, Note_on_c, 1, 58, 66
1, 20297, Note_on_c, 0, 63, 0
1, 20304, Note_on_c, 0, 66, 66
1, 20345, Note_on_c, 1, 58, 0
1, 20352, Note_on_c, 1, 56, 66
1, 20393, Note_on_c, 0, 66, 0
1, 20400, Note_on_c, 0, 65, 66
1, 20441, Note_on_c, 1, 56, 0
1, 20448, Note_on_c, 1, 54, 66
1, 20493, Note_on_c, 0, 65, 0
1, 20496, Note_on_c, 0, 63, 66
1, 20537, Note_on_c, 1, 54, 0
1, 20544, Note_on_c, 1, 53, 66
1, 20585, Note_on_c, 0, 63, 0
1, 20592, Note_on_c, 0, 62, 67
1, 20633, Note_on_c, 1, 53, 0
1, 20640, Note_on_c, 1, 54, 67
1, 20681, Note_on_c, 0, 62, 0
1, 20688, Note_on_c, 0, 63, 67
1, 20729, Note_on_c, 1, 54, 0
1, 20736, Note_on_c, 1, 46, 68
1, 20781, Note_on_c, 0, 63, 0
1, 20784, Note_on_c, 0, 65, 68
1, 20825, Note_on_c, 1, 46, 0
1, 20832, Note_on_c, 1, 50, 68
1, 20873, Note_on_c, 0, 65, 0
1, 20880, Note_on_c, 0, 68, 69
1, 20921, Note_on_c, 1, 50, 0
1, 20928, Note_on_c, 1, 51, 69
1, 20969, Note_on_c, 0, 68, 0
1, 20976, Note_on_c, 0, 66, 69
1, 21017, Note_on_c, 1, 51, 0
1, 21024, Note_on_c, 1, 46, 70
1, 21069, Note_on_c, 0, 66, 0
1, 21072, Note_on_c, 0, 65, 70
1, 21113, Note_on_c, 1, 46, 0
1, 21117, Note_on_c, 0, 65, 0
1, 21120, Note_on_c, 1, 58, 70
1, 21209, Note_on_c, 1, 58, 0
1, 21216, Note_on_c, 1, 46, 70
1, 21305, Note_on_c, 1, 46, 0
1, 21312, Note_on_c, 0, 54, 64
1, 21360, Note_on_c, 0, 73, 75
1, 21408, Note_on_c, 1, 61, 75
1, 21449, Note_on_c, 0, 73, 0
1, 21456, Note_on_c, 0, 70, 75
1, 21497, Note_on_c, 1, 61, 0
1, 21504, Note_on_c, 1, 64, 75
1, 21545, Note_on_c, 0, 70, 0
1, 21552, Note_on_c, 0, 66, 75
1, 21577, Note_on_c, 0, 54, 0
1, 21593, Note_on_c, 1, 64, 0
1, 21597, Note_on_c, 0, 66, 0
1, 21600, Note_on_c, 0, 54, 64
1, 21648, Note_on_c, 0, 78, 75
1, 21696, Note_on_c, 1, 59, 75
1, 21737, Note_on_c, 0, 78, 0
1, 21744, Note_on_c, 0, 75, 75
1, 21785, Note_on_c, 1, 59, 0
1, 21792, Note_on_c, 1, 63, 75
1, 21833, Note_on_c, 0, 75, 0
1, 21840, Note_on_c, 0, 71, 75
1, 21865, Note_on_c, 0, 54, 0
1, 21881, Note_on_c, 1, 63, 0
1, 21885, Note_on_c, 0, 71, 0
1, 21888, Note_on_c, 0, 54, 64
1, 21936, Note_on_c, 0, 73, 75
1, 21984, Note_on_c, 1, 61, 75
1, 22025, Note_on_c, 0, 73, 0
1, 22032, Note_on_c, 0, 70, 75
1, 22073, Note_on_c, 1, 61, 0
1, 22080, Note_on_c, 1, 64, 75
1, 22121, Note_on_c, 0, 70, 0
1, 22128, Note_on_c, 0, 66, 75
1, 22153, Note_on_c, 0, 54, 0
1, 22169, Note_on_c, 1, 64, 0
1, 22173, Note_on_c, 0, 66, 0
1, 22176, Note_on_c, 0, 54, 64
1, 22224, Note_on_c, 0, 78, 75
1, 22272, Note_on_c, 1, 59, 75
1, 22313, Note_on_c, 0, 78, 0
1, 22320, Note_on_c, 0, 75, 75
1, 22361, Note_on_c, 1, 59, 0
1, 22368, Note_on_c, 1, 63, 75
1, 22409, Note_on_c, 0, 75, 0
1, 22416, Note_on_c, 0, 71, 75
1, 22441, Note_on_c, 0, 54, 0
1, 22457, Note_on_c, 1, 63, 0
1, 22461, Note_on_c, 0, 71, 0
1, 22464, Note_on_c, 0, 54, 64
1, 22512, Note_on_c, 0, 73, 75
1, 22560, Note_on_c, 1, 58, 75
1, 22601, Note_on_c, 0, 73, 0
1, 22608, Note_on_c, 0, 70, 75
1, 22649, Note_on_c, 1, 58, 0
1, 22656, Note_on_c, 1, 61, 75
1, 22697, Note_on_c, 0, 70, 0
1, 22704, Note_on_c, 0, 66, 75
1, 22729, Note_on_c, 0, 54, 0
1, 22745, Note_on_c, 1, 61, 0
1, 22749, Note_on_c, 0, 66, 0
1, 22752, Note_on_c, 0, 53, 64
1, 22800, Note_on_c, 0, 80, 75
1, 22848, Note_on_c, 1, 56, 75
1, 22889, Note_on_c, 0, 80, 0
1, 22896, Note_on_c, 0, 77, 75
1, 22937, Note_on_c, 1, 56, 0
1, 22944, Note_on_c, 1, 59, 75
1, 22985, Note_on_c, 0, 77, 0
1, 22992, Note_on_c, 0, 71, 75
1, 23017, Note_on_c, 0, 53, 0
1, 23033, Note_on_c, 1, 59, 0
1, 23037, Note_on_c, 0, 71, 0
1, 23040, Note_on_c, 0, 70, 75
1, 23040, Note_on_c, 1, 54, 75
1, 23085, Note_on_c, 0, 70, 0
1, 23088, Note_on_c, 0, 73, 75
1, 23129, Note_on_c, 1, 54, 0
1, 23136, Note_on_c, 1, 58, 75
1, 23177, Note_on_c, 0, 73, 0
1, 23184, Note_on_c, 0, 66, 75
1, 23225, Note_on_c, 1, 58, 0
1, 23229, Note_on_c, 0, 66, 0
1, 23232, Note_on_c, 0, 65, 75
1, 23232, Note_on_c, 1, 61, 75
1, 23277, Note_on_c, 0, 65, 0
1, 23280, Note_on_c, 0, 68, 75
1, 23321, Note_on_c, 1, 61, 0
1, 23328, Note_on_c, 1, 58, 75
1, 23373, Note_on_c, 0, 68, 0
1, 23376, Note_on_c, 0, 66, 75
1, 23417, Note_on_c, 1, 58, 0
1, 23424, Note_on_c, 1, 53, 75
1, 23465, Note_on_c, 0, 66, 0
1, 23472, Note_on_c, 0, 71, 75
1, 23513, Note_on_c, 1, 53, 0
1, 23520, Note_on_c, 1, 54, 75
1, 23561, Note_on_c, 0, 71, 0
1, 23568, Note_on_c, 0, 70, 75
1, 23609, Note_on_c, 1, 54, 0
1, 23616, Note_on_c, 1, 59, 75
1, 23661, Note_on_c, 0, 70, 0
1, 23664, Note_on_c, 0, 68, 75
1, 23705, Note_on_c, 1, 59, 0
1, 23712, Note_on_c, 1, 61, 75
1, 23753, Note_on_c, 0, 68, 0
1, 23760, Note_on_c, 0, 66, 75
1, 23801, Note_on_c, 1, 61, 0
1, 23808, Note_on_c, 1, 49, 75
1, 23849, Note_on_c, 0, 66, 0
1, 23856, Note_on_c, 0, 65, 75
1, 23897, Note_on_c, 1, 49, 0
1, 23904, Note_on_c, 1, 54, 75
1, 23949, Note_on_c, 0, 65, 0
1, 23952, Note_on_c, 0, 66, 75
1, 23993, Note_on_c, 1, 54, 0
1, 23997, Note_on_c, 0, 66, 0
1, 24000, Note_on_c, 1, 49, 75
1, 24089, Note_on_c, 1, 49, 0
1, 24096, Note_on_c, 1, 42, 75
1, 24185, Note_on_c, 1, 42, 0
1, 24192, Note_on_c, 0, 58, 64
1, 24240, Note_on_c, 0, 70, 75
1, 24288, Note_on_c, 1, 66, 75
1, 24329, Note_on_c, 0, 70, 0
1, 24336, Note_on_c, 0, 82, 75
1, 24377, Note_on_c, 1, 66, 0
1, 24384, Note_on_c, 1, 65, 75
1, 24425, Note_on_c, 0, 82, 0
1, 24432, Note_on_c, 0, 80, 75
1, 24473, Note_on_c, 1, 65, 0
1, 24480, Note_on_c, 1, 63, 75
1, 24525, Note_on_c, 0, 80, 0
1, 24528, Note_on_c, 0, 78, 75
1, 24569, Note_on_c, 1, 63, 0
1, 24576, Note_on_c, 1, 61, 75
1, 24617, Note_on_c, 0, 78, 0
1, 24624, Note_on_c, 0, 77, 75
1, 24665, Note_on_c, 1, 61, 0
1, 24672, Note_on_c, 1, 59, 75
1, 24713, Note_on_c, 0, 77, 0
1, 24720, Note_on_c, 0, 75, 75
1, 24745, Note_on_c, 0, 58, 0
1, 24761, Note_on_c, 1, 59, 0
1, 24768, Note_on_c, 0, 58, 64
1, 24813, Note_on_c, 0, 75, 0
1, 24816, Note_on_c, 0, 74, 75
1, 24864, Note_on_c, 1, 68, 75
1, 24905, Note_on_c, 0, 74, 0
1, 24912, Note_on_c, 0, 77, 75
1, 24953, Note_on_c, 1, 68, 0
1, 24960, Note_on_c, 1, 66, 75
1, 25001, Note_on_c, 0, 77, 0
1, 25008, Note_on_c, 0, 75, 75
1, 25033, Note_on_c, 0, 58, 0
1, 25049, Note_on_c, 1, 66, 0
1, 25056, Note_on_c, 0, 58, 64
1, 25101, Note_on_c, 0, 75, 0
1, 25104, Note_on_c, 0, 77, 75
1, 25152, Note_on_c, 1, 62, 75
1, 25193, Note_on_c, 0, 77, 0
1, 25200, Note_on_c, 0, 80, 75
1, 25241, Note_on_c, 1, 62, 0
1, 25248, Note_on_c, 1, 63, 75
1, 25289, Note_on_c, 0, 80, 0
1, 25296, Note_on_c, 0, 78, 75
1, 25321, Note_on_c, 0, 58, 0
1, 25337, Note_on_c, 1, 63, 0
1, 25344, Note_on_c, 1, 56, 75
1, 25389, Note_on_c, 0, 78, 0
1, 25392, Note_on_c, 0, 77, 75
1, 25433, Note_on_c, 1, 56, 0
1, 25440, Note_on_c, 1, 53, 75
1, 25481, Note_on_c, 0, 77, 0
1, 25488, Note_on_c, 0, 83, 75
1, 25529, Note_on_c, 1, 53, 0
1, 25536, Note_on_c, 1, 56, 75
1, 25577, Note_on_c, 0, 83, 0
1, 25584, Note_on_c, 0, 75, 75
1, 25625, Note_on_c, 1, 56, 0
1, 25632, Note_on_c, 1, 58, 75
1, 25721, Note_on_c, 0, 75, 0
1, 25721, Note_on_c, 1, 58, 0
1, 25728, Note_on_c, 0, 74, 75
1, 25728, Note_on_c, 1, 53, 75
1, 25817, Note_on_c, 0, 74, 0
1, 25817, Note_on_c, 1, 53, 0
1, 25824, Note_on_c, 1, 46, 75
1, 25913, Note_on_c, 1, 46, 0
1, 25920, Note_on_c, 0, 51, 64
1, 25968, Note_on_c, 0, 70, 75
1, 26016, Note_on_c, 1, 58, 75
1, 26057, Note_on_c, 0, 70, 0
1, 26064, Note_on_c, 0, 67, 75
1, 26105, Note_on_c, 1, 58, 0
1, 26112, Note_on_c, 1, 61, 75
1, 26153, Note_on_c, 0, 67, 0
1, 26160, Note_on_c, 0, 63, 75
1, 26185, Note_on_c, 0, 51, 0
1, 26201, Note_on_c, 1, 61, 0
1, 26205, Note_on_c, 0, 63, 0
1, 26208, Note_on_c, 0, 51, 64
1, 26256, Note_on_c, 0, 75, 75
1, 26304, Note_on_c, 1, 56, 75
1, 26345, Note_on_c, 0, 75, 0
1, 26352, Note_on_c, 0, 71, 75
1, 26393, Note_on_c, 1, 56, 0
1, 26400, Note_on_c, 1, 59, 75
1, 26441, Note_on_c, 0, 71, 0
1, 26448, Note_on_c, 0, 68, 75
1, 26473, Note_on_c, 0, 51, 0
1, 26489, Note_on_c, 1, 59, 0
1, 26493, Note_on_c, 0, 68, 0
1, 26496, Note_on_c, 0, 51, 64
1, 26544, Note_on_c, 0, 70, 75
1, 26592, Note_on_c, 1, 58, 75
1, 26633, Note_on_c, 0, 70, 0
1, 26640, Note_on_c, 0, 67, 75
1, 26681, Note_on_c, 1, 58, 0
1, 26688, Note_on_c, 1, 61, 75
1, 26729, Note_on_c, 0, 67, 0
1, 26736, Note_on_c, 0, 63, 75
1, 26761, Note_on_c, 0, 51, 0
1, 26777, Note_on_c, 1, 61, 0
1, 26781, Note_on_c, 0, 63, 0
1, 26784, Note_on_c, 0, 51, 64
1, 26832, Note_on_c, 0, 75, 75
1, 26880, Note_on_c, 1, 56, 75
1, 26921, Note_on_c, 0, 75, 0
1, 26928, Note_on_c, 0, 71, 75
1, 26969, Note_on_c, 1, 56, 0
1, 26976, Note_on_c, 1, 59, 75
1, 27017, Note_on_c, 0, 71, 0
1, 27024, Note_on_c, 0, 68, 75
1, 27049, Note_on_c, 0, 51, 0
1, 27065, Note_on_c, 1, 59, 0
1, 27069, Note_on_c, 0, 68, 0
1, 27072, Note_on_c, 0, 51, 64
1, 27120, Note_on_c, 0, 70, 75
1, 27168, Note_on_c, 1, 54, 75
1, 27209, Note_on_c, 0, 70, 0
1, 27216, Note_on_c, 0, 66, 75
1, 27257, Note_on_c, 1, 54, 0
1, 27264, Note_on_c, 1, 58, 75
1, 27305, Note_on_c, 0, 66, 0
1, 27312, Note_on_c, 0, 63, 75
1, 27337, Note_on_c, 0, 51, 0
1, 27353, Note_on_c, 1, 58, 0
1, 27357, Note_on_c, 0, 63, 0
1, 27360, Note_on_c, 0, 50, 64
1, 27408, Note_on_c, 0, 77, 75
1, 27456, Note_on_c, 1, 53, 75
1, 27497, Note_on_c, 0, 77, 0
1, 27504, Note_on_c, 0, 74, 74
1, 27545, Note_on_c, 1, 53, 0
1, 27552, Note_on_c, 1, 58, 74
1, 27593, Note_on_c, 0, 74, 0
1, 27600, Note_on_c, 0, 68, 73
1, 27625, Note_on_c, 0, 50, 0
1, 27641, Note_on_c, 1, 58, 0
1, 27645, Note_on_c, 0, 68, 0
1, 27648, Note_on_c, 0, 66, 73
1, 27648, Note_on_c, 1, 51, 73
1, 27693, Note_on_c, 0, 66, 0
1, 27696, Note_on_c, 0, 70, 72
1, 27737, Note_on_c, 1, 51, 0
1, 27744, Note_on_c, 1, 54, 72
1, 27785, Note_on_c, 0, 70, 0
1, 27792, Note_on_c, 0, 63, 72
1, 27833, Note_on_c, 1, 54, 0
1, 27837, Note_on_c, 0, 63, 0
1, 27840, Note_on_c, 0, 62, 71
1, 27840, Note_on_c, 1, 58, 72
1, 27885, Note_on_c, 0, 62, 0
1, 27888, Note_on_c, 0, 65, 71
1, 27929, Note_on_c, 1, 58, 0
1, 27936, Note_on_c, 1, 54, 71
1, 27981, Note_on_c, 0, 65, 0
1, 27984, Note_on_c, 0, 63, 70
1, 28025, Note_on_c, 1, 54, 0
1, 28032, Note_on_c, 1, 50, 70
1, 28073, Note_on_c, 0, 63, 0
1, 28080, Note_on_c, 0, 68, 69
1, 28121, Note_on_c, 1, 50, 0
1, 28128, Note_on_c, 1, 51, 69
1, 28169, Note_on_c, 0, 68, 0
1, 28176, Note_on_c, 0, 66, 69
1, 28217, Note_on_c, 1, 51, 0
1, 28224, Note_on_c, 1, 56, 69
1, 28269, Note_on_c, 0, 66, 0
1, 28272, Note_on_c, 0, 65, 68
1, 28313, Note_on_c, 1, 56, 0
1, 28320, Note_on_c, 1, 58, 68
1, 28361, Note_on_c, 0, 65, 0
1, 28368, Note_on_c, 0, 63, 67
1, 28409, Note_on_c, 1, 58, 0
1, 28416, Note_on_c, 1, 46, 67
1, 28457, Note_on_c, 0, 63, 0
1, 28464, Note_on_c, 0, 62, 67
1, 28505, Note_on_c, 1, 46, 0
1, 28512, Note_on_c, 1, 51, 66
1, 28557, Note_on_c, 0, 62, 0
1, 28560, Note_on_c, 0, 63, 66
1, 28601, Note_on_c, 1, 51, 0
1, 28605, Note_on_c, 0, 63, 0
1, 28608, Note_on_c, 1, 46, 66
1, 28697, Note_on_c, 1, 46, 0
1, 28704, Note_on_c, 1, 39, 66
1, 28793, Note_on_c, 1, 39, 0
1, 28800, Note_on_c, 0, 58, 64
1, 28848, Note_on_c, 0, 70, 75
1, 28896, Note_on_c, 1, 66, 75
1, 28937, Note_on_c, 0, 70, 0
1, 28944, Note_on_c, 0, 82, 75
1, 28985, Note_on_c, 1, 66, 0
1, 28992, Note_on_c, 1, 65, 75
1, 29033, Note_on_c, 0, 82, 0
1, 29040, Note_on_c, 0, 80, 75
1, 29081, Note_on_c, 1, 65, 0
1, 29088, Note_on_c, 1, 63, 75
1, 29133, Note_on_c, 0, 80, 0
1, 29136, Note_on_c, 0, 78, 75
1, 29177, Note_on_c, 1, 63, 0
1, 29184, Note_on_c, 1, 61, 75
1, 29225, Note_on_c, 0, 78, 0
1, 29232, Note_on_c, 0, 77, 75
1, 29273, Note_on_c, 1, 61, 0
1, 29280, Note_on_c, 1, 59, 75
1, 29321, Note_on_c, 0, 77, 0
1, 29328, Note_on_c, 0, 75, 75
1, 29353, Note_on_c, 0, 58, 0
1, 29369, Note_on_c, 1, 59, 0
1, 29376, Note_on_c, 0, 58, 64
1, 29421, Note_on_c, 0, 75, 0
1, 29424, Note_on_c, 0, 74, 75
1, 29472, Note_on_c, 1, 68, 75
1, 29513, Note_on_c, 0, 74, 0
1, 29520, Note_on_c, 0, 77, 75
1, 29561, Note_on_c, 1, 68, 0
1, 29568, Note_on_c, 1, 66, 75
1, 29609, Note_on_c, 0, 77, 0
1, 29616, Note_on_c, 0, 75, 75
1, 29641, Note_on_c, 0, 58, 0
1, 29657, Note_on_c, 1, 66, 0
1, 29664, Note_on_c, 0, 58, 64
1, 29709, Note_on_c, 0, 75, 0
1, 29712, Note_on_c, 0, 77, 75
1, 29760, Note_on_c, 1, 62, 75
1, 29801, Note_on_c, 0, 77, 0
1, 29808, Note_on_c, 0, 80, 75
1, 29849, Note_on_c, 1, 62, 0
1, 29856, Note_on_c, 1, 63, 75
1, 29897, Note_on_c, 0, 80, 0
1, 29904, Note_on_c, 0, 78, 75
1, 29929, Note_on_c, 0, 58, 0
1, 29945, Note_on_c, 1, 63, 0
1, 29952, Note_on_c, 1, 56, 75
1, 29997, Note_on_c, 0, 78, 0
1, 30000, Note_on_c, 0, 77, 75
1, 30041, Note_on_c, 1, 56, 0
1, 30048, Note_on_c, 1, 53, 75
1, 30089, Note_on_c, 0, 77, 0
1, 30096, Note_on_c, 0, 83, 75
1, 30137, Note_on_c, 1, 53, 0
1, 30144, Note_on_c, 1, 56, 75
1, 30185, Note_on_c, 0, 83, 0
1, 30192, Note_on_c, 0, 75, 75
1, 30233, Note_on_c, 1, 56, 0
1, 30240, Note_on_c, 1, 58, 75
1, 30329, Note_on_c, 0, 75, 0
1, 30329, Note_on_c, 1, 58, 0
1, 30336, Note_on_c, 0, 74, 75
1, 30336, Note_on_c, 1, 53, 75
1, 30425, Note_on_c, 0, 74, 0
1, 30425, Note_on_c, 1, 53, 0
1, 30432, Note_on_c, 1, 46, 75
1, 30521, Note_on_c, 1, 46, 0
1, 30528, Note_on_c, 0, 51, 64
1, 30576, Note_on_c, 0, 70, 75
1, 30624, Note_on_c, 1, 58, 75
1, 30665, Note_on_c, 0, 70, 0
1, 30672, Note_on_c, 0, 67, 75
1, 30713, Note_on_c, 1, 58, 0
1, 30720, Note_on_c, 1, 61, 75
1, 30761, Note_on_c, 0, 67, 0
1, 30768, Note_on_c, 0, 63, 75
1, 30793, Note_on_c, 0, 51, 0
1, 30809, Note_on_c, 1, 61, 0
1, 30813, Note_on_c, 0, 63, 0
1, 30816, Note_on_c, 0, 51, 64
1, 30864, Note_on_c, 0, 75, 75
1, 30912, Note_on_c, 1, 56, 75
1, 30953, Note_on_c, 0, 75, 0
1, 30960, Note_on_c, 0, 71, 75
1, 31001, Note_on_c, 1, 56, 0
1, 31008, Note_on_c, 1, 59, 75
1, 31049, Note_on_c, 0, 71, 0
1, 31056, Note_on_c, 0, 68, 75
1, 31081, Note_on_c, 0, 51, 0
1, 31097, Note_on_c, 1, 59, 0
1, 31101, Note_on_c, 0, 68, 0
1, 31104, Note_on_c, 0, 51, 64
1, 31152, Note_on_c, 0, 70, 75
1, 31200, Note_on_c, 1, 58, 75
1, 31241, Note_on_c, 0, 70, 0
1, 31248, Note_on_c, 0, 67, 75
1, 31289, Note_on_c, 1, 58, 0
1, 31296, Note_on_c, 1, 61, 75
1, 31337, Note_on_c, 0, 67, 0
1, 31344, Note_on_c, 0, 63, 75
1, 31369, Note_on_c, 0, 51, 0
1, 31385, Note_on_c, 1, 61, 0
1, 31389, Note_on_c, 0, 63, 0
1, 31392, Note_on_c, 0, 51, 64
1, 31440, Note_on_c, 0, 75, 75
1, 31488, Note_on_c, 1, 56, 75
1, 31529, Note_on_c, 0, 75, 0
1, 31536, Note_on_c, 0, 71, 75
1, 31577, Note_on_c, 1, 56, 0
1, 31584, Note_on_c, 1, 59, 75
1, 31625, Note_on_c, 0, 71, 0
1, 31632, Note_on_c, 0, 68, 75
1, 31657, Note_on_c, 0, 51, 0
1, 31673, Note_on_c, 1, 59, 0
1, 31677, Note_on_c, 0, 68, 0
1, 31680, Note_on_c, 0, 51, 64
1, 31728, Note_on_c, 0, 70, 75
1, 31776, Note_on_c, 1, 54, 75
1, 31817, Note_on_c, 0, 70, 0
1, 31824, Note_on_c, 0, 66, 75
1, 31865, Note_on_c, 1, 54, 0
1, 31872, Note_on_c, 1, 58, 75
1, 31913, Note_on_c, 0, 66, 0
1, 31920, Note_on_c, 0, 63, 75
1, 31945, Note_on_c, 0, 51, 0
1, 31961, Note_on_c, 1, 58, 0
1, 31965, Note_on_c, 0, 63, 0
1, 31968, Note_on_c, 0, 50, 64
1, 32016, Note_on_c, 0, 77, 75
1, 32064, Note_on_c, 1, 53, 75
1, 32105, Note_on_c, 0, 77, 0
1, 32112, Note_on_c, 0, 74, 74
1, 32153, Note_on_c, 1, 53, 0
1, 32160, Note_on_c, 1, 58, 74
1, 32201, Note_on_c, 0, 74, 0
1, 32208, Note_on_c, 0, 68, 73
1, 32233, Note_on_c, 0, 50, 0
1, 32249, Note_on_c, 1, 58, 0
1, 32253, Note_on_c, 0, 68, 0
1, 32256, Note_on_c, 0, 66, 73
1, 32256, Note_on_c, 1, 51, 73
1, 32301, Note_on_c, 0, 66, 0
1, 32304, Note_on_c, 0, 70, 72
1, 32345, Note_on_c, 1, 51, 0
1, 32352, Note_on_c, 1, 54, 72
1, 32393, Note_on_c, 0, 70, 0
1, 32400, Note_on_c, 0, 63, 72
1, 32441, Note_on_c, 1, 54, 0
1, 32445, Note_on_c, 0, 63, 0
1, 32448, Note_on_c, 0, 62, 71
1, 32448, Note_on_c, 1, 58, 72
1, 32493, Note_on_c, 0, 62, 0
1, 32496, Note_on_c, 0, 65, 71
1, 32537, Note_on_c, 1, 58, 0
1, 32544, Note_on_c, 1, 54, 71
1, 32589, Note_on_c, 0, 65, 0
1, 32592, Note_on_c, 0, 63, 70
1, 32633, Note_on_c, 1, 54, 0
1, 32640, Note_on_c, 1, 50, 70
1, 32681, Note_on_c, 0, 63, 0
1, 32688, Note_on_c, 0, 68, 69
1, 32729, Note_on_c, 1, 50, 0
1, 32736, Note_on_c, 1, 51, 69
1, 32777, Note_on_c, 0, 68, 0
1, 32784, Note_on_c, 0, 66, 69
1, 32825, Note_on_c, 1, 51, 0
1, 32832, Note_on_c, 1, 56, 69
1, 32877, Note_on_c, 0, 66, 0
1, 32880, Note_on_c, 0, 65, 68
1, 32921, Note_on_c, 1, 56, 0
1, 32928, Note_on_c, 1, 58, 68
1, 32969, Note_on_c, 0, 65, 0
1, 32976, Note_on_c, 0, 63, 67
1, 33017, Note_on_c, 1, 58, 0
1, 33024, Note_on_c, 1, 46, 67
1, 33065, Note_on_c, 0, 63, 0
1, 33072, Note_on_c, 0, 62, 67
1, 33113, Note_on_c, 1, 46, 0
1, 33120, Note_on_c, 1, 51, 66
1, 33165, Note_on_c, 0, 62, 0
1, 33168, Note_on_c, 0, 63, 66
1, 33209, Note_on_c, 1, 51, 0
1, 33213, Note_on_c, 0, 63, 0
1, 33216, Note_on_c, 1, 46, 66
1, 33305, Note_on_c, 1, 46, 0
1, 33312, Note_on_c, 1, 39, 66
1, 33401, Note_on_c, 1, 39, 0
1, 33408, Note_on_c, 0, 63, 75
1, 33497, Note_on_c, 0, 63, 0
1, 33504, Note_on_c, 0, 75, 75
1, 33504, Note_on_c, 1, 55, 75
1, 33593, Note_on_c, 0, 75, 0
1, 33593, Note_on_c, 1, 55, 0
1, 33600, Note_on_c, 1, 51, 75
1, 33672, Note_on_c, 0, 75, 75
1, 33689, Note_on_c, 1, 51, 0
1, 33695, Note_on_c, 0, 75, 0
1, 33696, Note_on_c, 0, 70, 75
1, 33785, Note_on_c, 0, 70, 0
1, 33792, Note_on_c, 0, 80, 75
1, 33792, Note_on_c, 1, 50, 75
1, 33881, Note_on_c, 0, 80, 0
1, 33881, Note_on_c, 1, 50, 0
1, 33888, Note_on_c, 1, 46, 75
1, 33960, Note_on_c, 0, 80, 75
1, 33977, Note_on_c, 1, 46, 0
1, 33983, Note_on_c, 0, 80, 0
1, 33984, Note_on_c, 0, 79, 75
1, 34073, Note_on_c, 0, 79, 0
1, 34080, Note_on_c, 0, 82, 77
1, 34080, Note_on_c, 1, 55, 75
1, 34169, Note_on_c, 0, 82, 0
1, 34169, Note_on_c, 1, 55, 0
1, 34176, Note_on_c, 0, 82, 79
1, 34176, Note_on_c, 1, 56, 75
1, 34199, Note_on_c, 0, 82, 0
1, 34200, Note_on_c, 0, 80, 79
1, 34223, Note_on_c, 0, 80, 0
1, 34224, Note_on_c, 0, 79, 80
1, 34247, Note_on_c, 0, 79, 0
1, 34248, Note_on_c, 0, 77, 80
1, 34265, Note_on_c, 1, 56, 0
1, 34271, Note_on_c, 0, 77, 0
1, 34272, Note_on_c, 0, 75, 81
1, 34272, Note_on_c, 1, 58, 75
1, 34361, Note_on_c, 0, 75, 0
1, 34361, Note_on_c, 1, 58, 0
1, 34368, Note_on_c, 0, 75, 79
1, 34368, Note_on_c, 1, 56, 75
1, 34383, Note_on_c, 0, 75, 0
1, 34384, Note_on_c, 0, 74, 78
1, 34399, Note_on_c, 0, 74, 0
1, 34400, Note_on_c, 0, 75, 78
1, 34415, Note_on_c, 0, 75, 0
1, 34416, Note_on_c, 0, 74, 78
1, 34431, Note_on_c, 0, 74, 0
1, 34432, Note_on_c, 0, 72, 78
1, 34447, Note_on_c, 0, 72, 0
1, 34448, Note_on_c, 0, 74, 77
1, 34457, Note_on_c, 1, 56, 0
1, 34463, Note_on_c, 0, 74, 0
1, 34464, Note_on_c, 0, 75, 77
1, 34464, Note_on_c, 1, 55, 75
1, 34553, Note_on_c, 0, 75, 0
1, 34553, Note_on_c, 1, 55, 0
1, 34560, Note_on_c, 0, 63, 75
1, 34649, Note_on_c, 0, 63, 0
1, 34656, Note_on_c, 0, 68, 75
1, 34656, Note_on_c, 1, 60, 75
1, 34745, Note_on_c, 0, 68, 0
1, 34745, Note_on_c, 1, 60, 0
1, 34752, Note_on_c, 1, 56, 75
1, 34824, Note_on_c, 0, 72, 75
1, 34836, Note_on_c, 0, 72, 0
1, 34836, Note_on_c, 0, 68, 75
1, 34841, Note_on_c, 1, 56, 0
1, 34848, Note_on_c, 0, 68, 0
1, 34848, Note_on_c, 0, 70, 75
1, 34937, Note_on_c, 0, 70, 0
1, 34944, Note_on_c, 0, 63, 75
1, 34944, Note_on_c, 1, 55, 75
1, 35033, Note_on_c, 0, 63, 0
1, 35033, Note_on_c, 1, 55, 0
1, 35040, Note_on_c, 1, 51, 75
1, 35112, Note_on_c, 0, 67, 75
1, 35124, Note_on_c, 0, 67, 0
1, 35124, Note_on_c, 0, 63, 75
1, 35129, Note_on_c, 1, 51, 0
1, 35136, Note_on_c, 0, 63, 0
1, 35136, Note_on_c, 0, 58, 75
1, 35225, Note_on_c, 0, 58, 0
1, 35232, Note_on_c, 0, 68, 91
1, 35232, Note_on_c, 0, 65, 91
1, 35232, Note_on_c, 1, 50, 75
1, 35321, Note_on_c, 1, 50, 0
1, 35328, Note_on_c, 0, 68, 0
1, 35328, Note_on_c, 0, 65, 0
1, 35328, Note_on_c, 0, 67, 75
1, 35328, Note_on_c, 0, 63, 75
1, 35328, Note_on_c, 1, 51, 75
1, 35417, Note_on_c, 0, 67, 0
1, 35417, Note_on_c, 0, 63, 0
1, 35417, Note_on_c, 1, 51, 0
1, 35424, Note_on_c, 0, 68, 75
1, 35424, Note_on_c, 0, 63, 64
1, 35424, Note_on_c, 1, 46, 75
1, 35439, Note_on_c, 0, 68, 0
1, 35440, Note_on_c, 0, 67, 75
1, 35455, Note_on_c, 0, 67, 0
1, 35456, Note_on_c, 0, 68, 75
1, 35471, Note_on_c, 0, 68, 0
1, 35472, Note_on_c, 0, 67, 75
1, 35487, Note_on_c, 0, 67, 0
1, 35488, Note_on_c, 0, 65, 75
1, 35503, Note_on_c, 0, 65, 0
1, 35504, Note_on_c, 0, 67, 75
1, 35513, Note_on_c, 1, 46, 0
1, 35519, Note_on_c, 0, 67, 0
1, 35520, Note_on_c, 0, 65, 75
1, 35520, Note_on_c, 0, 63, 0
1, 35520, Note_on_c, 0, 62, 64
1, 35520, Note_on_c, 1, 58, 75
1, 35609, Note_on_c, 0, 65, 0
1, 35609, Note_on_c, 0, 62, 0
1, 35609, Note_on_c, 1, 58, 0
1, 35616, Note_on_c, 1, 46, 75
1, 35705, Note_on_c, 1, 46, 0
1, 35712, Note_on_c, 0, 77, 75
1, 35735, Note_on_c, 0, 77, 0
1, 35736, Note_on_c, 0, 75, 74
1, 35759, Note_on_c, 0, 75, 0
1, 35760, Note_on_c, 0, 74, 73
1, 35783, Note_on_c, 0, 74, 0
1, 35784, Note_on_c, 0, 72, 73
1, 35807, Note_on_c, 0, 72, 0
1, 35808, Note_on_c, 0, 70, 72
1, 35831, Note_on_c, 0, 70, 0
1, 35832, Note_on_c, 0, 69, 71
1, 35855, Note_on_c, 0, 69, 0
1, 35856, Note_on_c, 0, 67, 71
1, 35879, Note_on_c, 0, 67, 0
1, 35880, Note_on_c, 0, 65, 70
1, 35903, Note_on_c, 0, 65, 0
1, 35904, Note_on_c, 0, 63, 70
1, 35927, Note_on_c, 0, 63, 0
1, 35928, Note_on_c, 0, 62, 70
1, 35951, Note_on_c, 0, 62, 0
1, 35952, Note_on_c, 0, 60, 70
1, 35975, Note_on_c, 0, 60, 0
1, 35976, Note_on_c, 0, 58, 70
1, 35999, Note_on_c, 0, 58, 0
1, 36000, Note_on_c, 0, 57, 71
1, 36018, Note_on_c, 0, 57, 0
1, 36018, Note_on_c, 0, 58, 71
1, 36036, Note_on_c, 0, 58, 0
1, 36036, Note_on_c, 0, 57, 71
1, 36054, Note_on_c, 0, 57, 0
1, 36054, Note_on_c, 0, 58, 71
1, 36072, Note_on_c, 0, 58, 0
1, 36072, Note_on_c, 0, 57, 71
1, 36090, Note_on_c, 0, 57, 0
1, 36090, Note_on_c, 0, 58, 71
1, 36096, Note_on_c, 1, 48, 75
1, 36096, Note_on_c, 1, 41, 75
1, 36108, Note_on_c, 0, 58, 0
1, 36108, Note_on_c, 0, 57, 71
1, 36126, Note_on_c, 0, 57, 0
1, 36126, Note_on_c, 0, 58, 71
1, 36133, Note_on_c, 0, 58, 0
1, 36144, Note_on_c, 0, 60, 73
1, 36167, Note_on_c, 0, 60, 0
1, 36168, Note_on_c, 0, 63, 73
1, 36185, Note_on_c, 1, 48, 0
1, 36185, Note_on_c, 1, 41, 0
1, 36191, Note_on_c, 0, 63, 0
1, 36192, Note_on_c, 0, 62, 73
1, 36192, Note_on_c, 1, 50, 75
1, 36192, Note_on_c, 1, 46, 75
1, 36281, Note_on_c, 0, 62, 0
1, 36281, Note_on_c, 1, 50, 0
1, 36281, Note_on_c, 1, 46, 0
1, 36288, Note_on_c, 0, 77, 70
1, 36311, Note_on_c, 0, 77, 0
1, 36312, Note_on_c, 0, 75, 69
1, 36335, Note_on_c, 0, 75, 0
1, 36336, Note_on_c, 0, 74, 69
1, 36359, Note_on_c, 0, 74, 0
1, 36360, Note_on_c, 0, 72, 68
1, 36383, Note_on_c, 0, 72, 0
1, 36384, Note_on_c, 0, 70, 68
1, 36407, Note_on_c, 0, 70, 0
1, 36408, Note_on_c, 0, 69, 67
1, 36431, Note_on_c, 0, 69, 0
1, 36432, Note_on_c, 0, 67, 67
1, 36455, Note_on_c, 0, 67, 0
1, 36456, Note_on_c, 0, 65, 66
1, 36479, Note_on_c, 0, 65, 0
1, 36480, Note_on_c, 0, 63, 66
1, 36503, Note_on_c, 0, 63, 0
1, 36504, Note_on_c, 0, 62, 66
1, 36527, Note_on_c, 0, 62, 0
1, 36528, Note_on_c, 0, 60, 67
1, 36551, Note_on_c, 0, 60, 0
1, 36552, Note_on_c, 0, 58, 67
1, 36575, Note_on_c, 0, 58, 0
1, 36576, Note_on_c, 0, 57, 68
1, 36594, Note_on_c, 0, 57, 0
1, 36594, Note_on_c, 0, 58, 68
1, 36612, Note_on_c, 0, 58, 0
1, 36612, Note_on_c, 0, 57, 68
1, 36630, Note_on_c, 0, 57, 0
1, 36630, Note_on_c, 0, 58, 68
1, 36648, Note_on_c, 0, 58, 0
1, 36648, Note_on_c, 0, 57, 68
1, 36666, Note_on_c, 0, 57, 0
1, 36666, Note_on_c, 0, 58, 68
1, 36672, Note_on_c, 1, 48, 75
1, 36672, Note_on_c, 1, 41, 75
1, 36684, Note_on_c, 0, 58, 0
1, 36684, Note_on_c, 0, 57, 68
1, 36702, Note_on_c, 0, 57, 0
1, 36702, Note_on_c, 0, 58, 68
1, 36709, Note_on_c, 0, 58, 0
1, 36720, Note_on_c, 0, 60, 71
1, 36743, Note_on_c, 0, 60, 0
1, 36744, Note_on_c, 0, 63, 72
1, 36761, Note_on_c, 1, 48, 0
1, 36761, Note_on_c, 1, 41, 0
1, 36767, Note_on_c, 0, 63, 0
1, 36768, Note_on_c, 0, 62, 72
1, 36768, Note_on_c, 1, 50, 75
1, 36768, Note_on_c, 1, 46, 75
1, 36857, Note_on_c, 0, 62, 0
1, 36857, Note_on_c, 1, 50, 0
1, 36857, Note_on_c, 1, 46, 0
1, 36864, Note_on_c, 0, 60, 75
1, 36864, Note_on_c, 1, 51, 75
1, 36864, Note_on_c, 1, 39, 75
1, 36931, Note_on_c, 0, 60, 0
1, 36936, Note_on_c, 0, 62, 75
1, 36953, Note_on_c, 1, 51, 0
1, 36953, Note_on_c, 1, 39, 0
1, 36959, Note_on_c, 0, 62, 0
1, 36960, Note_on_c, 0, 58, 75
1, 36960, Note_on_c, 1, 50, 75
1, 36960, Note_on_c, 1, 41, 75
1, 37049, Note_on_c, 0, 58, 0
1, 37049, Note_on_c, 1, 50, 0
1, 37049, Note_on_c, 1, 41, 0
1, 37056, Note_on_c, 0, 58, 75
1, 37056, Note_on_c, 1, 48, 75
1, 37056, Note_on_c, 1, 41, 75
1, 37071, Note_on_c, 0, 58, 0
1, 37072, Note_on_c, 0, 57, 75
1, 37087, Note_on_c, 0, 57, 0
1, 37088, Note_on_c, 0, 58, 75
1, 37103, Note_on_c, 0, 58, 0
1, 37104, Note_on_c, 0, 57, 75
1, 37119, Note_on_c, 0, 57, 0
1, 37120, Note_on_c, 0, 55, 75
1, 37135, Note_on_c, 0, 55, 0
1, 37136, Note_on_c, 0, 57, 75
1, 37145, Note_on_c, 1, 48, 0
1, 37145, Note_on_c, 1, 41, 0
1, 37151, Note_on_c, 0, 57, 0
1, 37152, Note_on_c, 0, 57, 75
1, 37152, Note_on_c, 1, 46, 75
1, 37241, Note_on_c, 1, 46, 0
1, 37248, Note_on_c, 0, 57, 0
1, 37248, Note_on_c, 0, 58, 75
1, 37248, Note_on_c, 1, 41, 75
1, 37337, Note_on_c, 1, 41, 0
1, 37344, Note_on_c, 1, 34, 75
1, 37425, Note_on_c, 0, 58, 0
1, 37433, Note_on_c, 1, 34, 0
1, 37440, Note_on_c, 0, 63, 75
1, 37529, Note_on_c, 0, 63, 0
1, 37536, Note_on_c, 0, 75, 75
1, 37536, Note_on_c, 1, 55, 75
1, 37625, Note_on_c, 0, 75, 0
1, 37625, Note_on_c, 1, 55, 0
1, 37632, Note_on_c, 1, 51, 75
1, 37704, Note_on_c, 0, 75, 75
1, 37721, Note_on_c, 1, 51, 0
1, 37727, Note_on_c, 0, 75, 0
1, 37728, Note_on_c, 0, 70, 75
1, 37817, Note_on_c, 0, 70, 0
1, 37824, Note_on_c, 0, 80, 75
1, 37824, Note_on_c, 1, 50, 75
1, 37913, Note_on_c, 0, 80, 0
1, 37913, Note_on_c, 1, 50, 0
1, 37920, Note_on_c, 1, 46, 75
1, 37992, Note_on_c, 0, 80, 75
1, 38009, Note_on_c, 1, 46, 0
1, 38015, Note_on_c, 0, 80, 0
1, 38016, Note_on_c, 0, 79, 75
1, 38105, Note_on_c, 0, 79, 0
1, 38112, Note_on_c, 0, 82, 77
1, 38112, Note_on_c, 1, 55, 75
1, 38201, Note_on_c, 0, 82, 0
1, 38201, Note_on_c, 1, 55, 0
1, 38208, Note_on_c, 0, 82, 79
1, 38208, Note_on_c, 1, 56, 75
1, 38231, Note_on_c, 0, 82, 0
1, 38232, Note_on_c, 0, 80, 79
1, 38255, Note_on_c, 0, 80, 0
1, 38256, Note_on_c, 0, 79, 80
1, 38279, Note_on_c, 0, 79, 0
1, 38280, Note_on_c, 0, 77, 80
1, 38297, Note_on_c, 1, 56, 0
1, 38303, Note_on_c, 0, 77, 0
1, 38304, Note_on_c, 0, 75, 81
1, 38304, Note_on_c, 1, 58, 75
1, 38393, Note_on_c, 0, 75, 0
1, 38393, Note_on_c, 1, 58, 0
1, 38400, Note_on_c, 0, 75, 79
1, 38400, Note_on_c, 1, 56, 75
1, 38415, Note_on_c, 0, 75, 0
1, 38416, Note_on_c, 0, 74, 78
1, 38431, Note_on_c, 0, 74, 0
1, 38432, Note_on_c, 0, 75, 78
1, 38447, Note_on_c, 0, 75, 0
1, 38448, Note_on_c, 0, 74, 78
1, 38463, Note_on_c, 0, 74, 0
1, 38464, Note_on_c, 0, 72, 78
1, 38479, Note_on_c, 0, 72, 0
1, 38480, Note_on_c, 0, 74, 77
1, 38489, Note_on_c, 1, 56, 0
1, 38495, Note_on_c, 0, 74, 0
1, 38496, Note_on_c, 0, 75, 77
1, 38496, Note_on_c, 1, 55, 75
1, 38585, Note_on_c, 0, 75, 0
1, 38585, Note_on_c, 1, 55, 0
1, 38592, Note_on_c, 0, 63, 75
1, 38681, Note_on_c, 0, 63, 0
1, 38688, Note_on_c, 0, 68, 75
1, 38688, Note_on_c, 1, 60, 75
1, 38777, Note_on_c, 0, 68, 0
1, 38777, Note_on_c, 1, 60, 0
1, 38784, Note_on_c, 1, 56, 75
1, 38856, Note_on_c, 0, 72, 75
1, 38868, Note_on_c, 0, 72, 0
1, 38868, Note_on_c, 0, 68, 75
1, 38873, Note_on_c, 1, 56, 0
1, 38880, Note_on_c, 0, 68, 0
1, 38880, Note_on_c, 0, 70, 75
1, 38969, Note_on_c, 0, 70, 0
1, 38976, Note_on_c, 0, 63, 75
1, 38976, Note_on_c, 1, 55, 75
1, 39065, Note_on_c, 0, 63, 0
1, 39065, Note_on_c, 1, 55, 0
1, 39072, Note_on_c, 1, 51, 75
1, 39144, Note_on_c, 0, 67, 75
1, 39156, Note_on_c, 0, 67, 0
1, 39156, Note_on_c, 0, 63, 75
1, 39161, Note_on_c, 1, 51, 0
1, 39168, Note_on_c, 0, 63, 0
1, 39168, Note_on_c, 0, 58, 75
1, 39257, Note_on_c, 0, 58, 0
1, 39264, Note_on_c, 0, 68, 91
1, 39264, Note_on_c, 0, 65, 91
1, 39264, Note_on_c, 1, 50, 75
1, 39353, Note_on_c, 1, 50, 0
1, 39360, Note_on_c, 0, 68, 0
1, 39360, Note_on_c, 0, 65, 0
1, 39360, Note_on_c, 0, 67, 75
1, 39360, Note_on_c, 0, 63, 75
1, 39360, Note_on_c, 1, 51, 75
1, 39449, Note_on_c, 0, 67, 0
1, 39449, Note_on_c, 0, 63, 0
1, 39449, Note_on_c, 1, 51, 0
1, 39456, Note_on_c, 0, 68, 75
1, 39456, Note_on_c, 0, 63, 64
1, 39456, Note_on_c, 1, 46, 75
1, 39471, Note_on_c, 0, 68, 0
1, 39472, Note_on_c, 0, 67, 75
1, 39487, Note_on_c, 0, 67, 0
1, 39488, Note_on_c, 0, 68, 75
1, 39503, Note_on_c, 0, 68, 0
1, 39504, Note_on_c, 0, 67, 75
1, 39519, Note_on_c, 0, 67, 0
1, 39520, Note_on_c, 0, 65, 75
1, 39535, Note_on_c, 0, 65, 0
1, 39536, Note_on_c, 0, 67, 75
1, 39545, Note_on_c, 1, 46, 0
1, 39551, Note_on_c, 0, 67, 0
1, 39552, Note_on_c, 0, 65, 75
1, 39552, Note_on_c, 0, 63, 0
1, 39552, Note_on_c, 0, 62, 64
1, 39552, Note_on_c, 1, 58, 75
1, 39641, Note_on_c, 0, 65, 0
1, 39641, Note_on_c, 0, 62, 0
1, 39641, Note_on_c, 1, 58, 0
1, 39648, Note_on_c, 1, 46, 75
1, 39737, Note_on_c, 1, 46, 0
1, 39744, Note_on_c, 0, 77, 75
1, 39767, Note_on_c, 0, 77, 0
1, 39768, Note_on_c, 0, 75, 74
1, 39791, Note_on_c, 0, 75, 0
1, 39792, Note_on_c, 0, 74, 73
1, 39815, Note_on_c, 0, 74, 0
1, 39816, Note_on_c, 0, 72, 73
1, 39839, Note_on_c, 0, 72, 0
1, 39840, Note_on_c, 0, 70, 72
1, 39863, Note_on_c, 0, 70, 0
1, 39864, Note_on_c, 0, 69, 71
1, 39887, Note_on_c, 0, 69, 0
1, 39888, Note_on_c, 0, 67, 71
1, 39911, Note_on_c, 0, 67, 0
1, 39912, Note_on_c, 0, 65, 70
1, 39935, Note_on_c, 0, 65, 0
1, 39936, Note_on_c, 0, 63, 70
1, 39959, Note_on_c, 0, 63, 0
1, 39960, Note_on_c, 0, 62, 70
1, 39983, Note_on_c, 0, 62, 0
1, 39984, Note_on_c, 0, 60, 70
1, 40007, Note_on_c, 0, 60, 0
1, 40008, Note_on_c, 0, 58, 70
1, 40031, Note_on_c, 0, 58, 0
1, 40032, Note_on_c, 0, 57, 71
1, 40050, Note_on_c, 0, 57, 0
1, 40050, Note_on_c, 0, 58, 71
1, 40068, Note_on_c, 0, 58, 0
1, 40068, Note_on_c, 0, 57, 71
1, 40086, Note_on_c, 0, 57, 0
1, 40086, Note_on_c, 0, 58, 71
1, 40104, Note_on_c, 0, 58, 0
1, 40104, Note_on_c, 0, 57, 71
1, 40122, Note_on_c, 0, 57, 0
1, 40122, Note_on_c, 0, 58, 71
1, 40128, Note_on_c, 1, 48, 75
1, 40128, Note_on_c, 1, 41, 75
1, 40140, Note_on_c, 0, 58, 0
1, 40140, Note_on_c, 0, 57, 71
1, 40158, Note_on_c, 0, 57, 0
1, 40158, Note_on_c, 0, 58, 71
1, 40165, Note_on_c, 0, 58, 0
1, 40176, Note_on_c, 0, 60, 73
1, 40199, Note_on_c, 0, 60, 0
1, 40200, Note_on_c, 0, 63, 73
1, 40217, Note_on_c, 1, 48, 0
1, 40217, Note_on_c, 1, 41, 0
1, 40223, Note_on_c, 0, 63, 0
1, 40224, Note_on_c, 0, 62, 73
1, 40224, Note_on_c, 1, 50, 75
1, 40224, Note_on_c, 1, 46, 75
1, 40313, Note_on_c, 0, 62, 0
1, 40313, Note_on_c, 1, 50, 0
1, 40313, Note_on_c, 1, 46, 0
1, 40320, Note_on_c, 0, 77, 70
1, 40343, Note_on_c, 0, 77, 0
1, 40344, Note_on_c, 0, 75, 69
1, 40367, Note_on_c, 0, 75, 0
1, 40368, Note_on_c, 0, 74, 69
1, 40391, Note_on_c, 0, 74, 0
1, 40392, Note_on_c, 0, 72, 68
1, 40415, Note_on_c, 0, 72, 0
1, 40416, Note_on_c, 0, 70, 68
1, 40439, Note_on_c, 0, 70, 0
1, 40440, Note_on_c, 0, 69, 67
1, 40463, Note_on_c, 0, 69, 0
1, 40464, Note_on_c, 0, 67, 67
1, 40487, Note_on_c, 0, 67, 0
1, 40488, Note_on_c, 0, 65, 66
1, 40511, Note_on_c, 0, 65, 0
1, 40512, Note_on_c, 0, 63, 66
1, 40535, Note_on_c, 0, 63, 0
1, 40536, Note_on_c, 0, 62, 66
1, 40559, Note_on_c, 0, 62, 0
1, 40560, Note_on_c, 0, 60, 67
1, 40583, Note_on_c, 0, 60, 0
1, 40584, Note_on_c, 0, 58, 67
1, 40607, Note_on_c, 0, 58, 0
1, 40608, Note_on_c, 0, 57, 68
1, 40626, Note_on_c, 0, 57, 0
1, 40626, Note_on_c, 0, 58, 68
1, 40644, Note_on_c, 0, 58, 0
1, 40644, Note_on_c, 0, 57, 68
1, 40662, Note_on_c, 0, 57, 0
1, 40662, Note_on_c, 0, 58, 68
1, 40680, Note_on_c, 0, 58, 0
1, 40680, Note_on_c, 0, 57, 68
1, 40698, Note_on_c, 0, 57, 0
1, 40698, Note_on_c, 0, 58, 68
1, 40704, Note_on_c, 1, 48, 75
1, 40704, Note_on_c, 1, 41, 75
1, 40716, Note_on_c, 0, 58, 0
1, 40716, Note_on_c, 0, 57, 68
1, 40734, Note_on_c, 0, 57, 0
1, 40734, Note_on_c, 0, 58, 68
1, 40741, Note_on_c, 0, 58, 0
1, 40752, Note_on_c, 0, 60, 71
1, 40775, Note_on_c, 0, 60, 0
1, 40776, Note_on_c, 0, 63, 72
1, 40793, Note_on_c, 1, 48, 0
1, 40793, Note_on_c, 1, 41, 0
1, 40799, Note_on_c, 0, 63, 0
1, 40800, Note_on_c, 0, 62, 72
1, 40800, Note_on_c, 1, 50, 75
1, 40800, Note_on_c, 1, 46, 75
1, 40889, Note_on_c, 0, 62, 0
1, 40889, Note_on_c, 1, 50, 0
1, 40889, Note_on_c, 1, 46, 0
1, 40896, Note_on_c, 0, 60, 75
1, 40896, Note_on_c, 1, 51, 75
1, 40896, Note_on_c, 1, 39, 75
1, 40963, Note_on_c, 0, 60, 0
1, 40968, Note_on_c, 0, 62, 75
1, 40985, Note_on_c, 1, 51, 0
1, 40985, Note_on_c, 1, 39, 0
1, 40991, Note_on_c, 0, 62, 0
1, 40992, Note_on_c, 0, 58, 75
1, 40992, Note_on_c, 1, 50, 75
1, 40992, Note_on_c, 1, 41, 75
1, 41081, Note_on_c, 0, 58, 0
1, 41081, Note_on_c, 1, 50, 0
1, 41081, Note_on_c, 1, 41, 0
1, 41088, Note_on_c, 0, 58, 75
1, 41088, Note_on_c, 1, 48, 75
1, 41088, Note_on_c, 1, 41, 75
1, 41103, Note_on_c, 0, 58, 0
1, 41104, Note_on_c, 0, 57, 75
1, 41119, Note_on_c, 0, 57, 0
1, 41120, Note_on_c, 0, 58, 75
1, 41135, Note_on_c, 0, 58, 0
1, 41136, Note_on_c, 0, 57, 75
1, 41151, Note_on_c, 0, 57, 0
1, 41152, Note_on_c, 0, 55, 75
1, 41167, Note_on_c, 0, 55, 0
1, 41168, Note_on_c, 0, 57, 75
1, 41177, Note_on_c, 1, 48, 0
1, 41177, Note_on_c, 1, 41, 0
1, 41183, Note_on_c, 0, 57, 0
1, 41184, Note_on_c, 0, 57, 75
1, 41184, Note_on_c, 1, 46, 75
1, 41273, Note_on_c, 1, 46, 0
1, 41280, Note_on_c, 0, 57, 0
1, 41280, Note_on_c, 0, 58, 75
1, 41280, Note_on_c, 1, 41, 75
1, 41369, Note_on_c, 1, 41, 0
1, 41376, Note_on_c, 1, 34, 75
1, 41457, Note_on_c, 0, 58, 0
1, 41465, Note_on_c, 1, 34, 0
1, 41472, Note_on_c, 0, 63, 75
1, 41561, Note_on_c, 0, 63, 0
1, 41568, Note_on_c, 0, 70, 75
1, 41568, Note_on_c, 1, 55, 75
1, 41657, Note_on_c, 0, 70, 0
1, 41657, Note_on_c, 1, 55, 0
1, 41664, Note_on_c, 1, 51, 75
1, 41736, Note_on_c, 0, 73, 75
1, 41753, Note_on_c, 1, 51, 0
1, 41759, Note_on_c, 0, 73, 0
1, 41760, Note_on_c, 0, 71, 75
1, 41856, Note_on_c, 0, 71, 0
1, 41856, Note_on_c, 0, 72, 76
1, 41856, Note_on_c, 1, 56, 76
1, 41945, Note_on_c, 0, 72, 0
1, 41945, Note_on_c, 1, 56, 0
1, 41952, Note_on_c, 1, 44, 76
1, 42041, Note_on_c, 1, 44, 0
1, 42048, Note_on_c, 0, 65, 77
1, 42137, Note_on_c, 0, 65, 0
1, 42144, Note_on_c, 0, 72, 77
1, 42144, Note_on_c, 1, 57, 77
1, 42233, Note_on_c, 0, 72, 0
1, 42233, Note_on_c, 1, 57, 0
1, 42240, Note_on_c, 1, 53, 78
1, 42312, Note_on_c, 0, 75, 78
1, 42329, Note_on_c, 1, 53, 0
1, 42335, Note_on_c, 0, 75, 0
1, 42336, Note_on_c, 0, 73, 78
1, 42432, Note_on_c, 0, 73, 0
1, 42432, Note_on_c, 0, 74, 79
1, 42432, Note_on_c, 1, 58, 79
1, 42521, Note_on_c, 0, 74, 0
1, 42521, Note_on_c, 1, 58, 0
1, 42528, Note_on_c, 1, 46, 79
1, 42617, Note_on_c, 1, 46, 0
1, 42624, Note_on_c, 0, 70, 80
1, 42713, Note_on_c, 0, 70, 0
1, 42720, Note_on_c, 0, 80, 80
1, 42720, Note_on_c, 1, 62, 80
1, 42809, Note_on_c, 0, 80, 0
1, 42809, Note_on_c, 1, 62, 0
1, 42816, Note_on_c, 1, 58, 81
1, 42888, Note_on_c, 0, 80, 81
1, 42900, Note_on_c, 0, 80, 0
1, 42900, Note_on_c, 0, 77, 81
1, 42905, Note_on_c, 1, 58, 0
1, 42912, Note_on_c, 0, 77, 0
1, 42912, Note_on_c, 0, 79, 81
1, 43001, Note_on_c, 0, 79, 0
1, 43008, Note_on_c, 0, 82, 81
1, 43008, Note_on_c, 1, 63, 81
1, 43097, Note_on_c, 0, 82, 0
1, 43097, Note_on_c, 1, 63, 0
1, 43104, Note_on_c, 1, 55, 81
1, 43176, Note_on_c, 0, 79, 81
1, 43188, Note_on_c, 0, 79, 0
1, 43188, Note_on_c, 0, 75, 81
1, 43193, Note_on_c, 1, 55, 0
1, 43200, Note_on_c, 0, 75, 0
1, 43200, Note_on_c, 0, 72, 81
1, 43200, Note_on_c, 1, 56, 81
1, 43289, Note_on_c, 0, 72, 0
1, 43296, Note_on_c, 0, 82, 81
1, 43308, Note_on_c, 0, 82, 0
1, 43308, Note_on_c, 0, 80, 81
1, 43363, Note_on_c, 0, 80, 0
1, 43368, Note_on_c, 0, 79, 81
1, 43377, Note_on_c, 1, 56, 0
1, 43391, Note_on_c, 0, 79, 0
1, 43392, Note_on_c, 0, 77, 81
1, 43392, Note_on_c, 1, 57, 81
1, 43459, Note_on_c, 0, 77, 0
1, 43464, Note_on_c, 0, 75, 81
1, 43481, Note_on_c, 1, 57, 0
1, 43487, Note_on_c, 0, 75, 0
1, 43488, Note_on_c, 0, 75, 81
1, 43488, Note_on_c, 1, 58, 81
1, 43577, Note_on_c, 1, 58, 0
1, 43584, Note_on_c, 0, 75, 0
1, 43584, Note_on_c, 0, 74, 79
1, 43584, Note_on_c, 1, 53, 79
1, 43673, Note_on_c, 0, 74, 0
1, 43673, Note_on_c, 1, 53, 0
1, 43680, Note_on_c, 1, 46, 77
1, 43769, Note_on_c, 1, 46, 0
1, 43776, Note_on_c, 0, 82, 75
1, 43799, Note_on_c, 0, 82, 0
1, 43800, Note_on_c, 0, 80, 74
1, 43823, Note_on_c, 0, 80, 0
1, 43824, Note_on_c, 0, 79, 73
1, 43847, Note_on_c, 0, 79, 0
1, 43848, Note_on_c, 0, 77, 73
1, 43871, Note_on_c, 0, 77, 0
1, 43872, Note_on_c, 0, 75, 72
1, 43895, Note_on_c, 0, 75, 0
1, 43896, Note_on_c, 0, 74, 71
1, 43919, Note_on_c, 0, 74, 0
1, 43920, Note_on_c, 0, 72, 71
1, 43943, Note_on_c, 0, 72, 0
1, 43944, Note_on_c, 0, 70, 70
1, 43967, Note_on_c, 0, 70, 0
1, 43968, Note_on_c, 0, 68, 70
1, 43991, Note_on_c, 0, 68, 0
1, 43992, Note_on_c, 0, 67, 70
1, 44015, Note_on_c, 0, 67, 0
1, 44016, Note_on_c, 0, 65, 70
1, 44039, Note_on_c, 0, 65, 0
1, 44040, Note_on_c, 0, 63, 70
1, 44063, Note_on_c, 0, 63, 0
1, 44064, Note_on_c, 0, 62, 71
1, 44082, Note_on_c, 0, 62, 0
1, 44082, Note_on_c, 0, 63, 71
1, 44100, Note_on_c, 0, 63, 0
1, 44100, Note_on_c, 0, 62, 71
1, 44118, Note_on_c, 0, 62, 0
1, 44118, Note_on_c, 0, 63, 71
1, 44136, Note_on_c, 0, 63, 0
1, 44136, Note_on_c, 0, 62, 71
1, 44154, Note_on_c, 0, 62, 0
1, 44154, Note_on_c, 0, 63, 71
1, 44160, Note_on_c, 1, 53, 75
1, 44160, Note_on_c, 1, 46, 75
1, 44172, Note_on_c, 0, 63, 0
1, 44172, Note_on_c, 0, 62, 71
1, 44190, Note_on_c, 0, 62, 0
1, 44190, Note_on_c, 0, 63, 71
1, 44197, Note_on_c, 0, 63, 0
1, 44208, Note_on_c, 0, 65, 73
1, 44231, Note_on_c, 0, 65, 0
1, 44232, Note_on_c, 0, 68, 73
1, 44249, Note_on_c, 1, 53, 0
1, 44249, Note_on_c, 1, 46, 0
1, 44255, Note_on_c, 0, 68, 0
1, 44256, Note_on_c, 0, 67, 73
1, 44256, Note_on_c, 1, 55, 75
1, 44256, Note_on_c, 1, 51, 75
1, 44345, Note_on_c, 0, 67, 0
1, 44345, Note_on_c, 1, 55, 0
1, 44345, Note_on_c, 1, 51, 0
1, 44352, Note_on_c, 0, 82, 70
1, 44375, Note_on_c, 0, 82, 0
1, 44376, Note_on_c, 0, 80, 69
1, 44399, Note_on_c, 0, 80, 0
1, 44400, Note_on_c, 0, 79, 69
1, 44423, Note_on_c, 0, 79, 0
1, 44424, Note_on_c, 0, 77, 68
1, 44447, Note_on_c, 0, 77, 0
1, 44448, Note_on_c, 0, 75, 68
1, 44471, Note_on_c, 0, 75, 0
1, 44472, Note_on_c, 0, 74, 67
1, 44495, Note_on_c, 0, 74, 0
1, 44496, Note_on_c, 0, 72, 67
1, 44519, Note_on_c, 0, 72, 0
1, 44520, Note_on_c, 0, 70, 66
1, 44543, Note_on_c, 0, 70, 0
1, 44544, Note_on_c, 0, 68, 66
1, 44567, Note_on_c, 0, 68, 0
1, 44568, Note_on_c, 0, 67, 66
1, 44591, Note_on_c, 0, 67, 0
1, 44592, Note_on_c, 0, 65, 67
1, 44615, Note_on_c, 0, 65, 0
1, 44616, Note_on_c, 0, 63, 67
1, 44639, Note_on_c, 0, 63, 0
1, 44640, Note_on_c, 0, 62, 68
1, 44658, Note_on_c, 0, 62, 0
1, 44658, Note_on_c, 0, 63, 68
1, 44676, Note_on_c, 0, 63, 0
1, 44676, Note_on_c, 0, 62, 68
1, 44694, Note_on_c, 0, 62, 0
1, 44694, Note_on_c, 0, 63, 68
1, 44712, Note_on_c, 0, 63, 0
1, 44712, Note_on_c, 0, 62, 68
1, 44730, Note_on_c, 0, 62, 0
1, 44730, Note_on_c, 0, 63, 68
1, 44736, Note_on_c, 1, 53, 75
1, 44736, Note_on_c, 1, 46, 75
1, 44748, Note_on_c, 0, 63, 0
1, 44748, Note_on_c, 0, 62, 68
1, 44766, Note_on_c, 0, 62, 0
1, 44766, Note_on_c, 0, 63, 68
1, 44773, Note_on_c, 0, 63, 0
1, 44784, Note_on_c, 0, 65, 71
1, 44807, Note_on_c, 0, 65, 0
1, 44808, Note_on_c, 0, 68, 72
1, 44825, Note_on_c, 1, 53, 0
1, 44825, Note_on_c, 1, 46, 0
1, 44831, Note_on_c, 0, 68, 0
1, 44832, Note_on_c, 0, 67, 72
1, 44832, Note_on_c, 1, 55, 75
1, 44832, Note_on_c, 1, 51, 75
1, 44921, Note_on_c, 0, 67, 0
1, 44921, Note_on_c, 1, 55, 0
1, 44921, Note_on_c, 1, 51, 0
1, 44928, Note_on_c, 0, 65, 75
1, 44928, Note_on_c, 1, 56, 75
1, 44928, Note_on_c, 1, 44, 75
1, 44995, Note_on_c, 0, 65, 0
1, 45000, Note_on_c, 0, 67, 75
1, 45017, Note_on_c, 1, 56, 0
1, 45017, Note_on_c, 1, 44, 0
1, 45023, Note_on_c, 0, 67, 0
1, 45024, Note_on_c, 0, 63, 75
1, 45024, Note_on_c, 1, 55, 75
1, 45024, Note_on_c, 1, 46, 75
1, 45113, Note_on_c, 0, 63, 0
1, 45113, Note_on_c, 1, 55, 0
1, 45113, Note_on_c, 1, 46, 0
1, 45120, Note_on_c, 0, 63, 75
1, 45120, Note_on_c, 1, 53, 75
1, 45120, Note_on_c, 1, 46, 75
1, 45135, Note_on_c, 0, 63, 0
1, 45136, Note_on_c, 0, 62, 75
1, 45151, Note_on_c, 0, 62, 0
1, 45152, Note_on_c, 0, 63, 75
1, 45167, Note_on_c, 0, 63, 0
1, 45168, Note_on_c, 0, 62, 75
1, 45183, Note_on_c, 0, 62, 0
1, 45184, Note_on_c, 0, 60, 75
1, 45199, Note_on_c, 0, 60, 0
1, 45200, Note_on_c, 0, 62, 75
1, 45209, Note_on_c, 1, 53, 0
1, 45209, Note_on_c, 1, 46, 0
1, 45215, Note_on_c, 0, 62, 0
1, 45216, Note_on_c, 0, 62, 75
1, 45216, Note_on_c, 1, 51, 75
1, 45305, Note_on_c, 1, 51, 0
1, 45312, Note_on_c, 0, 62, 0
1, 45312, Note_on_c, 0, 63, 75
1, 45312, Note_on_c, 1, 46, 75
1, 45401, Note_on_c, 1, 46, 0
1, 45408, Note_on_c, 1, 39, 75
1, 45489, Note_on_c, 0, 63, 0
1, 45497, Note_on_c, 1, 39, 0
1, 45504, Note_on_c, 0, 63, 75
1, 45593, Note_on_c, 0, 63, 0
1, 45600, Note_on_c, 0, 70, 75
1, 45600, Note_on_c, 1, 55, 75
1, 45689, Note_on_c, 0, 70, 0
1, 45689, Note_on_c, 1, 55, 0
1, 45696, Note_on_c, 1, 51, 75
1, 45768, Note_on_c, 0, 73, 75
1, 45785, Note_on_c, 1, 51, 0
1, 45791, Note_on_c, 0, 73, 0
1, 45792, Note_on_c, 0, 71, 75
1, 45888, Note_on_c, 0, 71, 0
1, 45888, Note_on_c, 0, 72, 76
1, 45888, Note_on_c, 1, 56, 76
1, 45977, Note_on_c, 0, 72, 0
1, 45977, Note_on_c, 1, 56, 0
1, 45984, Note_on_c, 1, 44, 76
1, 46073, Note_on_c, 1, 44, 0
1, 46080, Note_on_c, 0, 65, 77
1, 46169, Note_on_c, 0, 65, 0
1, 46176, Note_on_c, 0, 72, 77
1, 46176, Note_on_c, 1, 57, 77
1, 46265, Note_on_c, 0, 72, 0
1, 46265, Note_on_c, 1, 57, 0
1, 46272, Note_on_c, 1, 53, 78
1, 46344, Note_on_c, 0, 75, 78
1, 46361, Note_on_c, 1, 53, 0
1, 46367, Note_on_c, 0, 75, 0
1, 46368, Note_on_c, 0, 73, 78
1, 46464, Note_on_c, 0, 73, 0
1, 46464, Note_on_c, 0, 74, 79
1, 46464, Note_on_c, 1, 58, 79
1, 46553, Note_on_c, 0, 74, 0
1, 46553, Note_on_c, 1, 58, 0
1, 46560, Note_on_c, 1, 46, 79
1, 46649, Note_on_c, 1, 46, 0
1, 46656, Note_on_c, 0, 70, 80
1, 46745, Note_on_c, 0, 70, 0
1, 46752, Note_on_c, 0, 80, 80
1, 46752, Note_on_c, 1, 62, 80
1, 46841, Note_on_c, 0, 80, 0
1, 46841, Note_on_c, 1, 62, 0
1, 46848, Note_on_c, 1, 58, 81
1, 46920, Note_on_c, 0, 80, 81
1, 46932, Note_on_c, 0, 80, 0
1, 46932, Note_on_c, 0, 77, 81
1, 46937, Note_on_c, 1, 58, 0
1, 46944, Note_on_c, 0, 77, 0
1, 46944, Note_on_c, 0, 79, 81
1, 47033, Note_on_c, 0, 79, 0
1, 47040, Note_on_c, 0, 82, 81
1, 47040, Note_on_c, 1, 63, 81
1, 47129, Note_on_c, 0, 82, 0
1, 47129, Note_on_c, 1, 63, 0
1, 47136, Note_on_c, 1, 55, 81
1, 47208, Note_on_c, 0, 79, 81
1, 47220, Note_on_c, 0, 79, 0
1, 47220, Note_on_c, 0, 75, 81
1, 47225, Note_on_c, 1, 55, 0
1, 47232, Note_on_c, 0, 75, 0
1, 47232, Note_on_c, 0, 72, 81
1, 47232, Note_on_c, 1, 56, 81
1, 47321, Note_on_c, 0, 72, 0
1, 47328, Note_on_c, 0, 82, 81
1, 47340, Note_on_c, 0, 82, 0
1, 47340, Note_on_c, 0, 80, 81
1, 47395, Note_on_c, 0, 80, 0
1, 47400, Note_on_c, 0, 79, 81
1, 47409, Note_on_c, 1, 56, 0
1, 47423, Note_on_c, 0, 79, 0
1, 47424, Note_on_c, 0, 77, 81
1, 47424, Note_on_c, 1, 57, 81
1, 47491, Note_on_c, 0, 77, 0
1, 47496, Note_on_c, 0, 75, 81
1, 47513, Note_on_c, 1, 57, 0
1, 47519, Note_on_c, 0, 75, 0
1, 47520, Note_on_c, 0, 75, 81
1, 47520, Note_on_c, 1, 58, 81
1, 47609, Note_on_c, 1, 58, 0
1, 47616, Note_on_c, 0, 75, 0
1, 47616, Note_on_c, 0, 74, 79
1, 47616, Note_on_c, 1, 53, 79
1, 47705, Note_on_c, 0, 74, 0
1, 47705, Note_on_c, 1, 53, 0
1, 47712, Note_on_c, 1, 46, 77
1, 47801, Note_on_c, 1, 46, 0
1, 47808, Note_on_c, 0, 82, 75
1, 47831, Note_on_c, 0, 82, 0
1, 47832, Note_on_c, 0, 80, 74
1, 47855, Note_on_c, 0, 80, 0
1, 47856, Note_on_c, 0, 79, 73
1, 47879, Note_on_c, 0, 79, 0
1, 47880, Note_on_c, 0, 77, 73
1, 47903, Note_on_c, 0, 77, 0
1, 47904, Note_on_c, 0, 75, 72
1, 47927, Note_on_c, 0, 75, 0
1, 47928, Note_on_c, 0, 74, 71
1, 47951, Note_on_c, 0, 74, 0
1, 47952, Note_on_c, 0, 72, 71
1, 47975, Note_on_c, 0, 72, 0
1, 47976, Note_on_c, 0, 70, 70
1, 47999, Note_on_c, 0, 70, 0
1, 48000, Note_on_c, 0, 68, 70
1, 48023, Note_on_c, 0, 68, 0
1, 48024, Note_on_c, 0, 67, 70
1, 48047, Note_on_c, 0, 67, 0
1, 48048, Note_on_c, 0, 65, 70
1, 48071, Note_on_c, 0, 65, 0
1, 48072, Note_on_c, 0, 63, 70
1, 48095, Note_on_c, 0, 63, 0
1, 48096, Note_on_c, 0, 62, 71
1, 48114, Note_on_c, 0, 62, 0
1, 48114, Note_on_c, 0, 63, 71
1, 48132, Note_on_c, 0, 63, 0
1, 48132, Note_on_c, 0, 62, 71
1, 48150, Note_on_c, 0, 62, 0
1, 48150, Note_on_c, 0, 63, 71
1, 48168, Note_on_c, 0, 63, 0
1, 48168, Note_on_c, 0, 62, 71
1, 48186, Note_on_c, 0, 62, 0
1, 48186, Note_on_c, 0, 63, 71
1, 48192, Note_on_c, 1, 53, 75
1, 48192, Note_on_c, 1, 46, 75
1, 48204, Note_on_c, 0, 63, 0
1, 48204, Note_on_c, 0, 62, 71
1, 48222, Note_on_c, 0, 62, 0
1, 48222, Note_on_c, 0, 63, 71
1, 48229, Note_on_c, 0, 63, 0
1, 48240, Note_on_c, 0, 65, 73
1, 48263, Note_on_c, 0, 65, 0
1, 48264, Note_on_c, 0, 68, 73
1, 48281, Note_on_c, 1, 53, 0
1, 48281, Note_on_c, 1, 46, 0
1, 48287, Note_on_c, 0, 68, 0
1, 48288, Note_on_c, 0, 67, 73
1, 48288, Note_on_c, 1, 55, 75
1, 48288, Note_on_c, 1, 51, 75
1, 48377, Note_on_c, 0, 67, 0
1, 48377, Note_on_c, 1, 55, 0
1, 48377, Note_on_c, 1, 51, 0
1, 48384, Note_on_c, 0, 82, 70
1, 48407, Note_on_c, 0, 82, 0
1, 48408, Note_on_c, 0, 80, 69
1, 48431, Note_on_c, 0, 80, 0
1, 48432, Note_on_c, 0, 79, 69
1, 48455, Note_on_c, 0, 79, 0
1, 48456, Note_on_c, 0, 77, 68
1, 48479, Note_on_c, 0, 77, 0
1, 48480, Note_on_c, 0, 75, 68
1, 48503, Note_on_c, 0, 75, 0
1, 48504, Note_on_c, 0, 74, 67
1, 48527, Note_on_c, 0, 74, 0
1, 48528, Note_on_c, 0, 72, 67
1, 48551, Note_on_c, 0, 72, 0
1, 48552, Note_on_c, 0, 70, 66
1, 48575, Note_on_c, 0, 70, 0
1, 48576, Note_on_c, 0, 68, 66
1, 48599, Note_on_c, 0, 68, 0
1, 48600, Note_on_c, 0, 67, 66
1, 48623, Note_on_c, 0, 67, 0
1, 48624, Note_on_c, 0, 65, 67
1, 48647, Note_on_c, 0, 65, 0
1, 48648, Note_on_c, 0, 63, 67
1, 48671, Note_on_c, 0, 63, 0
1, 48672, Note_on_c, 0, 62, 68
1, 48690, Note_on_c, 0, 62, 0
1, 48690, Note_on_c, 0, 63, 68
1, 48708, Note_on_c, 0, 63, 0
1, 48708, Note_on_c, 0, 62, 68
1, 48726, Note_on_c, 0, 62, 0
1, 48726, Note_on_c, 0, 63, 68
1, 48744, Note_on_c, 0, 63, 0
1, 48744, Note_on_c, 0, 62, 68
1, 48762, Note_on_c, 0, 62, 0
1, 48762, Note_on_c, 0, 63, 68
1, 48768, Note_on_c, 1, 53, 75
1, 48768, Note_on_c, 1, 46, 75
1, 48780, Note_on_c, 0, 63, 0
1, 48780, Note_on_c, 0, 62, 68
1, 48798, Note_on_c, 0, 62, 0
1, 48798, Note_on_c, 0, 63, 68
1, 48805, Note_on_c, 0, 63, 0
1, 48816, Note_on_c, 0, 65, 71
1, 48839, Note_on_c, 0, 65, 0
1, 48840, Note_on_c, 0, 68, 72
1, 48857, Note_on_c, 1, 53, 0
1, 48857, Note_on_c, 1, 46, 0
1, 48863, Note_on_c, 0, 68, 0
1, 48864, Note_on_c, 0, 67, 72
1, 48864, Note_on_c, 1, 55, 75
1, 48864, Note_on_c, 1, 51, 75
1, 48953, Note_on_c, 0, 67, 0
1, 48953, Note_on_c, 1, 55, 0
1, 48953, Note_on_c, 1, 51, 0
1, 48960, Note_on_c, 0, 65, 75
1, 48960, Note_on_c, 1, 56, 75
1, 48960, Note_on_c, 1, 44, 75
1, 49027, Note_on_c, 0, 65, 0
1, 49032, Note_on_c, 0, 67, 75
1, 49049, Note_on_c, 1, 56, 0
1, 49049, Note_on_c, 1, 44, 0
1, 49055, Note_on_c, 0, 67, 0
1, 49056, Note_on_c, 0, 63, 75
1, 49056, Note_on_c, 1, 55, 75
1, 49056, Note_on_c, 1, 46, 75
1, 49145, Note_on_c, 0, 63, 0
1, 49145, Note_on_c, 1, 55, 0
1, 49145, Note_on_c, 1, 46, 0
1, 49152, Note_on_c, 0, 63, 75
1, 49152, Note_on_c, 1, 53, 75
1, 49152, Note_on_c, 1, 46, 75
1, 49167, Note_on_c, 0, 63, 0
1, 49168, Note_on_c, 0, 62, 75
1, 49183, Note_on_c, 0, 62, 0
1, 49184, Note_on_c, 0, 63, 75
1, 49199, Note_on_c, 0, 63, 0
1, 49200, Note_on_c, 0, 62, 75
1, 49215, Note_on_c, 0, 62, 0
1, 49216, Note_on_c, 0, 60, 75
1, 49231, Note_on_c, 0, 60, 0
1, 49232, Note_on_c, 0, 62, 75
1, 49241, Note_on_c, 1, 53, 0
1, 49241, Note_on_c, 1, 46, 0
1, 49247, Note_on_c, 0, 62, 0
1, 49248, Note_on_c, 0, 62, 75
1, 49248, Note_on_c, 1, 51, 75
1, 49337, Note_on_c, 1, 51, 0
1, 49344, Note_on_c, 0, 62, 0
1, 49344, Note_on_c, 0, 63, 75
1, 49344, Note_on_c, 1, 46, 75
1, 49433, Note_on_c, 1, 46, 0
1, 49440, Note_on_c, 1, 39, 75
1, 49521, Note_on_c, 0, 63, 0
1, 49529, Note_on_c, 1, 39, 0
1, 49536, Note_on_c, 1, 39, 0
1, 49625, Note_on_c, 1, 39, 0
1, 49635, End_track
0, 0, End_of_file