0, 0, Header, 0, 1, 120
1, 0, Start_track
1, 0, Tempo, 375000
1, 720, Note_on_c, 0, 76, 47
1, 840, Note_on_c, 0, 67, 42
1, 840, Note_on_c, 0, 60, 42
1, 930, Note_on_c, 0, 76, 0
1, 930, Note_on_c, 0, 77, 47
1, 960, Note_on_c, 0, 77, 0
1, 960, Note_on_c, 0, 74, 47
1, 960, Note_on_c, 0, 60, 0
1, 960, Note_on_c, 0, 67, 0
1, 960, Note_on_c, 0, 65, 40
1, 960, Note_on_c, 0, 67, 40
1, 1020, Note_on_c, 0, 67, 0
1, 1020, Note_on_c, 0, 65, 0
1, 1050, Note_on_c, 0, 74, 0
1, 1050, Note_on_c, 0, 76, 47
1, 1080, Note_on_c, 0, 76, 0
1, 1080, Note_on_c, 0, 72, 41
1, 1080, Note_on_c, 0, 67, 38
1, 1080, Note_on_c, 0, 64, 38
1, 1200, Note_on_c, 0, 72, 0
1, 1200, Note_on_c, 0, 79, 46
1, 1200, Note_on_c, 0, 64, 0
1, 1200, Note_on_c, 0, 67, 0
1, 1230, Note_on_c, 0, 79, 0
1, 1320, Note_on_c, 0, 79, 40
1, 1350, Note_on_c, 0, 79, 0
1, 1440, Note_on_c, 0, 79, 49
1, 1440, Note_on_c, 0, 59, 42
1, 1440, Note_on_c, 0, 67, 42
1, 1500, Note_on_c, 0, 79, 0
1, 1500, Note_on_c, 0, 77, 48
1, 1560, Note_on_c, 0, 77, 0
1, 1560, Note_on_c, 0, 77, 46
1, 1620, Note_on_c, 0, 77, 0
1, 1620, Note_on_c, 0, 76, 44
1, 1680, Note_on_c, 0, 76, 0
1, 1680, Note_on_c, 0, 76, 43
1, 1680, Note_on_c, 0, 59, 0
1, 1680, Note_on_c, 0, 60, 39
1, 1740, Note_on_c, 0, 76, 0
1, 1740, Note_on_c, 0, 74, 41
1, 1800, Note_on_c, 0, 74, 0
1, 1800, Note_on_c, 0, 74, 41
1, 1800, Note_on_c, 0, 60, 0
1, 1800, Note_on_c, 0, 55, 38
1, 1830, Note_on_c, 0, 74, 0
1, 1920, Note_on_c, 0, 71, 41
1, 1920, Note_on_c, 0, 55, 0
1, 1920, Note_on_c, 0, 67, 0
1, 1950, Note_on_c, 0, 71, 0
1, 2040, Note_on_c, 0, 67, 41
1, 2070, Note_on_c, 0, 67, 0
1, 2160, Note_on_c, 0, 76, 46
1, 2280, Note_on_c, 0, 67, 40
1, 2280, Note_on_c, 0, 60, 40
1, 2370, Note_on_c, 0, 76, 0
1, 2370, Note_on_c, 0, 77, 46
1, 2400, Note_on_c, 0, 77, 0
1, 2400, Note_on_c, 0, 74, 46
1, 2400, Note_on_c, 0, 60, 0
1, 2400, Note_on_c, 0, 67, 0
1, 2400, Note_on_c, 0, 65, 39
1, 2400, Note_on_c, 0, 67, 39
1, 2460, Note_on_c, 0, 67, 0
1, 2460, Note_on_c, 0, 65, 0
1, 2490, Note_on_c, 0, 74, 0
1, 2490, Note_on_c, 0, 76, 46
1, 2520, Note_on_c, 0, 76, 0
1, 2520, Note_on_c, 0, 72, 39
1, 2520, Note_on_c, 0, 64, 38
1, 2520, Note_on_c, 0, 67, 38
1, 2640, Note_on_c, 0, 72, 0
1, 2640, Note_on_c, 0, 84, 45
1, 2640, Note_on_c, 0, 67, 0
1, 2640, Note_on_c, 0, 64, 0
1, 2670, Note_on_c, 0, 84, 0
1, 2760, Note_on_c, 0, 84, 40
1, 2760, Note_on_c, 0, 52, 42
1, 2760, Note_on_c, 0, 60, 42
1, 2790, Note_on_c, 0, 84, 0
1, 2820, Note_on_c, 0, 60, 0
1, 2820, Note_on_c, 0, 52, 0
1, 2880, Note_on_c, 0, 80, 48
1, 2880, Note_on_c, 0, 60, 40
1, 2880, Note_on_c, 0, 53, 40
1, 2910, Note_on_c, 0, 80, 0
1, 2910, Note_on_c, 0, 81, 48
1, 2940, Note_on_c, 0, 81, 0
1, 3000, Note_on_c, 0, 76, 46
1, 3000, Note_on_c, 0, 53, 0
1, 3000, Note_on_c, 0, 60, 0
1, 3030, Note_on_c, 0, 76, 0
1, 3030, Note_on_c, 0, 77, 45
1, 3060, Note_on_c, 0, 77, 0
1, 3120, Note_on_c, 0, 74, 43
1, 3120, Note_on_c, 0, 65, 38
1, 3120, Note_on_c, 0, 55, 38
1, 3150, Note_on_c, 0, 74, 0
1, 3150, Note_on_c, 0, 71, 41
1, 3180, Note_on_c, 0, 71, 0
1, 3180, Note_on_c, 0, 55, 0
1, 3180, Note_on_c, 0, 65, 0
1, 3240, Note_on_c, 0, 72, 41
1, 3240, Note_on_c, 0, 60, 38
1, 3240, Note_on_c, 0, 64, 38
1, 3360, Note_on_c, 0, 72, 0
1, 3360, Note_on_c, 0, 64, 0
1, 3360, Note_on_c, 0, 60, 0
1, 3600, Note_on_c, 0, 76, 47
1, 3720, Note_on_c, 0, 67, 42
1, 3720, Note_on_c, 0, 60, 42
1, 3810, Note_on_c, 0, 76, 0
1, 3810, Note_on_c, 0, 77, 47
1, 3840, Note_on_c, 0, 77, 0
1, 3840, Note_on_c, 0, 74, 47
1, 3840, Note_on_c, 0, 60, 0
1, 3840, Note_on_c, 0, 67, 0
1, 3840, Note_on_c, 0, 65, 40
1, 3840, Note_on_c, 0, 67, 40
1, 3900, Note_on_c, 0, 67, 0
1, 3900, Note_on_c, 0, 65, 0
1, 3930, Note_on_c, 0, 74, 0
1, 3930, Note_on_c, 0, 76, 47
1, 3960, Note_on_c, 0, 76, 0
1, 3960, Note_on_c, 0, 72, 41
1, 3960, Note_on_c, 0, 67, 38
1, 3960, Note_on_c, 0, 64, 38
1, 4080, Note_on_c, 0, 72, 0
1, 4080, Note_on_c, 0, 79, 46
1, 4080, Note_on_c, 0, 64, 0
1, 4080, Note_on_c, 0, 67, 0
1, 4110, Note_on_c, 0, 79, 0
1, 4200, Note_on_c, 0, 79, 40
1, 4230, Note_on_c, 0, 79, 0
1, 4320, Note_on_c, 0, 79, 49
1, 4320, Note_on_c, 0, 59, 42
1, 4320, Note_on_c, 0, 67, 42
1, 4380, Note_on_c, 0, 79, 0
1, 4380, Note_on_c, 0, 77, 48
1, 4440, Note_on_c, 0, 77, 0
1, 4440, Note_on_c, 0, 77, 46
1, 4500, Note_on_c, 0, 77, 0
1, 4500, Note_on_c, 0, 76, 44
1, 4560, Note_on_c, 0, 76, 0
1, 4560, Note_on_c, 0, 76, 43
1, 4560, Note_on_c, 0, 59, 0
1, 4560, Note_on_c, 0, 60, 39
1, 4620, Note_on_c, 0, 76, 0
1, 4620, Note_on_c, 0, 74, 41
1, 4680, Note_on_c, 0, 74, 0
1, 4680, Note_on_c, 0, 74, 41
1, 4680, Note_on_c, 0, 60, 0
1, 4680, Note_on_c, 0, 55, 38
1, 4710, Note_on_c, 0, 74, 0
1, 4800, Note_on_c, 0, 71, 41
1, 4800, Note_on_c, 0, 55, 0
1, 4800, Note_on_c, 0, 67, 0
1, 4830, Note_on_c, 0, 71, 0
1, 4920, Note_on_c, 0, 67, 41
1, 4950, Note_on_c, 0, 67, 0
1, 5040, Note_on_c, 0, 76, 46
1, 5160, Note_on_c, 0, 67, 40
1, 5160, Note_on_c, 0, 60, 40
1, 5250, Note_on_c, 0, 76, 0
1, 5250, Note_on_c, 0, 77, 46
1, 5280, Note_on_c, 0, 77, 0
1, 5280, Note_on_c, 0, 74, 46
1, 5280, Note_on_c, 0, 60, 0
1, 5280, Note_on_c, 0, 67, 0
1, 5280, Note_on_c, 0, 65, 39
1, 5280, Note_on_c, 0, 67, 39
1, 5340, Note_on_c, 0, 67, 0
1, 5340, Note_on_c, 0, 65, 0
1, 5370, Note_on_c, 0, 74, 0
1, 5370, Note_on_c, 0, 76, 46
1, 5400, Note_on_c, 0, 76, 0
1, 5400, Note_on_c, 0, 72, 39
1, 5400, Note_on_c, 0, 64, 38
1, 5400, Note_on_c, 0, 67, 38
1, 5520, Note_on_c, 0, 72, 0
1, 5520, Note_on_c, 0, 84, 45
1, 5520, Note_on_c, 0, 67, 0
1, 5520, Note_on_c, 0, 64, 0
1, 5550, Note_on_c, 0, 84, 0
1, 5640, Note_on_c, 0, 84, 40
1, 5640, Note_on_c, 0, 52, 42
1, 5640, Note_on_c, 0, 60, 42
1, 5670, Note_on_c, 0, 84, 0
1, 5700, Note_on_c, 0, 60, 0
1, 5700, Note_on_c, 0, 52, 0
1, 5760, Note_on_c, 0, 80, 48
1, 5760, Note_on_c, 0, 60, 40
1, 5760, Note_on_c, 0, 53, 40
1, 5790, Note_on_c, 0, 80, 0
1, 5790, Note_on_c, 0, 81, 48
1, 5820, Note_on_c, 0, 81, 0
1, 5880, Note_on_c, 0, 76, 46
1, 5880, Note_on_c, 0, 53, 0
1, 5880, Note_on_c, 0, 60, 0
1, 5910, Note_on_c, 0, 76, 0
1, 5910, Note_on_c, 0, 77, 45
1, 5940, Note_on_c, 0, 77, 0
1, 6000, Note_on_c, 0, 74, 43
1, 6000, Note_on_c, 0, 65, 38
1, 6000, Note_on_c, 0, 55, 38
1, 6030, Note_on_c, 0, 74, 0
1, 6030, Note_on_c, 0, 71, 41
1, 6060, Note_on_c, 0, 71, 0
1, 6060, Note_on_c, 0, 55, 0
1, 6060, Note_on_c, 0, 65, 0
1, 6120, Note_on_c, 0, 72, 41
1, 6120, Note_on_c, 0, 60, 38
1, 6120, Note_on_c, 0, 64, 38
1, 6240, Note_on_c, 0, 72, 0
1, 6240, Note_on_c, 0, 64, 0
1, 6240, Note_on_c, 0, 60, 0
1, 6480, Note_on_c, 0, 77, 42
1, 6600, Note_on_c, 0, 67, 39
1, 6600, Note_on_c, 0, 59, 39
1, 6690, Note_on_c, 0, 77, 0
1, 6690, Note_on_c, 0, 79, 42
1, 6720, Note_on_c, 0, 79, 0
1, 6720, Note_on_c, 0, 76, 42
1, 6720, Note_on_c, 0, 59, 0
1, 6720, Note_on_c, 0, 67, 0
1, 6720, Note_on_c, 0, 60, 39
1, 6720, Note_on_c, 0, 67, 39
1, 6780, Note_on_c, 0, 67, 0
1, 6780, Note_on_c, 0, 60, 0
1, 6810, Note_on_c, 0, 76, 0
1, 6810, Note_on_c, 0, 77, 42
1, 6840, Note_on_c, 0, 77, 0
1, 6840, Note_on_c, 0, 74, 41
1, 6840, Note_on_c, 0, 55, 39
1, 6840, Note_on_c, 0, 67, 39
1, 6870, Note_on_c, 0, 74, 0
1, 6960, Note_on_c, 0, 71, 39
1, 6960, Note_on_c, 0, 67, 0
1, 6960, Note_on_c, 0, 55, 0
1, 6990, Note_on_c, 0, 71, 0
1, 7080, Note_on_c, 0, 67, 37
1, 7110, Note_on_c, 0, 67, 0
1, 7200, Note_on_c, 0, 84, 48
1, 7320, Note_on_c, 0, 64, 46
1, 7320, Note_on_c, 0, 67, 46
1, 7410, Note_on_c, 0, 84, 0
1, 7410, Note_on_c, 0, 86, 47
1, 7440, Note_on_c, 0, 86, 0
1, 7440, Note_on_c, 0, 83, 47
1, 7440, Note_on_c, 0, 67, 0
1, 7440, Note_on_c, 0, 64, 0
1, 7440, Note_on_c, 0, 62, 44
1, 7440, Note_on_c, 0, 66, 44
1, 7500, Note_on_c, 0, 66, 0
1, 7500, Note_on_c, 0, 62, 0
1, 7530, Note_on_c, 0, 83, 0
1, 7530, Note_on_c, 0, 84, 47
1, 7560, Note_on_c, 0, 84, 0
1, 7560, Note_on_c, 0, 81, 41
1, 7680, Note_on_c, 0, 64, 41
1, 7680, Note_on_c, 0, 60, 41
1, 7770, Note_on_c, 0, 81, 0
1, 7770, Note_on_c, 0, 83, 41
1, 7800, Note_on_c, 0, 83, 0
1, 7800, Note_on_c, 0, 79, 41
1, 7800, Note_on_c, 0, 60, 0
1, 7800, Note_on_c, 0, 64, 0
1, 7800, Note_on_c, 0, 62, 39
1, 7800, Note_on_c, 0, 59, 39
1, 7860, Note_on_c, 0, 59, 0
1, 7860, Note_on_c, 0, 62, 0
1, 7890, Note_on_c, 0, 79, 0
1, 7890, Note_on_c, 0, 81, 41
1, 7920, Note_on_c, 0, 81, 0
1, 7920, Note_on_c, 0, 78, 41
1, 7920, Note_on_c, 0, 57, 46
1, 7920, Note_on_c, 0, 60, 46
1, 8010, Note_on_c, 0, 78, 0
1, 8010, Note_on_c, 0, 81, 47
1, 8040, Note_on_c, 0, 81, 0
1, 8040, Note_on_c, 0, 84, 49
1, 8130, Note_on_c, 0, 84, 0
1, 8130, Note_on_c, 0, 81, 42
1, 8160, Note_on_c, 0, 81, 0
1, 8160, Note_on_c, 0, 78, 39
1, 8160, Note_on_c, 0, 60, 0
1, 8160, Note_on_c, 0, 57, 0
1, 8160, Note_on_c, 0, 50, 39
1, 8220, Note_on_c, 0, 50, 0
1, 8250, Note_on_c, 0, 78, 0
1, 8250, Note_on_c, 0, 81, 47
1, 8280, Note_on_c, 0, 81, 0
1, 8280, Note_on_c, 0, 79, 42
1, 8280, Note_on_c, 0, 55, 35
1, 8370, Note_on_c, 0, 79, 0
1, 8370, Note_on_c, 0, 55, 0
1, 8370, Note_on_c, 0, 59, 40
1, 8400, Note_on_c, 0, 79, 42
1, 8400, Note_on_c, 0, 59, 0
1, 8400, Note_on_c, 0, 62, 42
1, 8490, Note_on_c, 0, 79, 0
1, 8490, Note_on_c, 0, 62, 0
1, 8490, Note_on_c, 0, 67, 48
1, 8520, Note_on_c, 0, 79, 42
1, 8520, Note_on_c, 0, 67, 0
1, 8520, Note_on_c, 0, 71, 50
1, 8610, Note_on_c, 0, 79, 0
1, 8610, Note_on_c, 0, 71, 0
1, 8610, Note_on_c, 0, 67, 41
1, 8640, Note_on_c, 0, 78, 47
1, 8640, Note_on_c, 0, 67, 0
1, 8640, Note_on_c, 0, 69, 48
1, 8640, Note_on_c, 0, 72, 48
1, 8730, Note_on_c, 0, 78, 0
1, 8730, Note_on_c, 0, 81, 52
1, 8760, Note_on_c, 0, 81, 0
1, 8760, Note_on_c, 0, 84, 53
1, 8850, Note_on_c, 0, 84, 0
1, 8850, Note_on_c, 0, 81, 47
1, 8880, Note_on_c, 0, 81, 0
1, 8880, Note_on_c, 0, 78, 44
1, 8880, Note_on_c, 0, 72, 0
1, 8880, Note_on_c, 0, 69, 0
1, 8880, Note_on_c, 0, 62, 41
1, 8970, Note_on_c, 0, 78, 0
1, 8970, Note_on_c, 0, 81, 51
1, 9000, Note_on_c, 0, 81, 0
1, 9000, Note_on_c, 0, 79, 45
1, 9000, Note_on_c, 0, 62, 0
1, 9000, Note_on_c, 0, 55, 52
1, 9090, Note_on_c, 0, 79, 0
1, 9090, Note_on_c, 0, 55, 0
1, 9090, Note_on_c, 0, 59, 49
1, 9120, Note_on_c, 0, 79, 44
1, 9120, Note_on_c, 0, 59, 0
1, 9120, Note_on_c, 0, 50, 48
1, 9210, Note_on_c, 0, 79, 0
1, 9210, Note_on_c, 0, 50, 0
1, 9210, Note_on_c, 0, 55, 45
1, 9240, Note_on_c, 0, 79, 42
1, 9240, Note_on_c, 0, 55, 0
1, 9240, Note_on_c, 0, 47, 44
1, 9330, Note_on_c, 0, 79, 0
1, 9330, Note_on_c, 0, 47, 0
1, 9330, Note_on_c, 0, 50, 41
1, 9360, Note_on_c, 0, 79, 40
1, 9360, Note_on_c, 0, 50, 0
1, 9360, Note_on_c, 0, 43, 40
1, 9480, Note_on_c, 0, 43, 0
1, 9570, Note_on_c, 0, 79, 0
1, 9570, Note_on_c, 0, 81, 39
1, 9600, Note_on_c, 0, 81, 0
1, 9600, Note_on_c, 0, 77, 39
1, 9690, Note_on_c, 0, 77, 0
1, 9690, Note_on_c, 0, 79, 39
1, 9720, Note_on_c, 0, 79, 0
1, 9720, Note_on_c, 0, 76, 47
1, 9840, Note_on_c, 0, 67, 42
1, 9840, Note_on_c, 0, 60, 42
1, 9930, Note_on_c, 0, 76, 0
1, 9930, Note_on_c, 0, 77, 47
1, 9960, Note_on_c, 0, 77, 0
1, 9960, Note_on_c, 0, 74, 47
1, 9960, Note_on_c, 0, 60, 0
1, 9960, Note_on_c, 0, 67, 0
1, 9960, Note_on_c, 0, 65, 40
1, 9960, Note_on_c, 0, 67, 40
1, 10020, Note_on_c, 0, 67, 0
1, 10020, Note_on_c, 0, 65, 0
1, 10050, Note_on_c, 0, 74, 0
1, 10050, Note_on_c, 0, 76, 47
1, 10080, Note_on_c, 0, 76, 0
1, 10080, Note_on_c, 0, 72, 41
1, 10080, Note_on_c, 0, 67, 38
1, 10080, Note_on_c, 0, 64, 38
1, 10200, Note_on_c, 0, 72, 0
1, 10200, Note_on_c, 0, 79, 46
1, 10200, Note_on_c, 0, 64, 0
1, 10200, Note_on_c, 0, 67, 0
1, 10230, Note_on_c, 0, 79, 0
1, 10320, Note_on_c, 0, 79, 40
1, 10350, Note_on_c, 0, 79, 0
1, 10440, Note_on_c, 0, 79, 49
1, 10440, Note_on_c, 0, 59, 42
1, 10440, Note_on_c, 0, 67, 42
1, 10500, Note_on_c, 0, 79, 0
1, 10500, Note_on_c, 0, 77, 48
1, 10560, Note_on_c, 0, 77, 0
1, 10560, Note_on_c, 0, 77, 46
1, 10620, Note_on_c, 0, 77, 0
1, 10620, Note_on_c, 0, 76, 44
1, 10680, Note_on_c, 0, 76, 0
1, 10680, Note_on_c, 0, 76, 43
1, 10680, Note_on_c, 0, 59, 0
1, 10680, Note_on_c, 0, 60, 39
1, 10740, Note_on_c, 0, 76, 0
1, 10740, Note_on_c, 0, 74, 41
1, 10800, Note_on_c, 0, 74, 0
1, 10800, Note_on_c, 0, 74, 41
1, 10800, Note_on_c, 0, 60, 0
1, 10800, Note_on_c, 0, 55, 38
1, 10830, Note_on_c, 0, 74, 0
1, 10920, Note_on_c, 0, 71, 41
1, 10920, Note_on_c, 0, 55, 0
1, 10920, Note_on_c, 0, 67, 0
1, 10950, Note_on_c, 0, 71, 0
1, 11040, Note_on_c, 0, 67, 41
1, 11070, Note_on_c, 0, 67, 0
1, 11160, Note_on_c, 0, 76, 46
1, 11280, Note_on_c, 0, 67, 40
1, 11280, Note_on_c, 0, 60, 40
1, 11370, Note_on_c, 0, 76, 0
1, 11370, Note_on_c, 0, 77, 46
1, 11400, Note_on_c, 0, 77, 0
1, 11400, Note_on_c, 0, 74, 46
1, 11400, Note_on_c, 0, 60, 0
1, 11400, Note_on_c, 0, 67, 0
1, 11400, Note_on_c, 0, 65, 39
1, 11400, Note_on_c, 0, 67, 39
1, 11460, Note_on_c, 0, 67, 0
1, 11460, Note_on_c, 0, 65, 0
1, 11490, Note_on_c, 0, 74, 0
1, 11490, Note_on_c, 0, 76, 46
1, 11520, Note_on_c, 0, 76, 0
1, 11520, Note_on_c, 0, 72, 39
1, 11520, Note_on_c, 0, 64, 38
1, 11520, Note_on_c, 0, 67, 38
1, 11640, Note_on_c, 0, 72, 0
1, 11640, Note_on_c, 0, 84, 45
1, 11640, Note_on_c, 0, 67, 0
1, 11640, Note_on_c, 0, 64, 0
1, 11670, Note_on_c, 0, 84, 0
1, 11760, Note_on_c, 0, 84, 40
1, 11760, Note_on_c, 0, 52, 42
1, 11760, Note_on_c, 0, 60, 42
1, 11790, Note_on_c, 0, 84, 0
1, 11820, Note_on_c, 0, 60, 0
1, 11820, Note_on_c, 0, 52, 0
1, 11880, Note_on_c, 0, 80, 48
1, 11880, Note_on_c, 0, 60, 40
1, 11880, Note_on_c, 0, 53, 40
1, 11910, Note_on_c, 0, 80, 0
1, 11910, Note_on_c, 0, 81, 48
1, 11940, Note_on_c, 0, 81, 0
1, 12000, Note_on_c, 0, 76, 46
1, 12000, Note_on_c, 0, 53, 0
1, 12000, Note_on_c, 0, 60, 0
1, 12030, Note_on_c, 0, 76, 0
1, 12030, Note_on_c, 0, 77, 45
1, 12060, Note_on_c, 0, 77, 0
1, 12120, Note_on_c, 0, 74, 43
1, 12120, Note_on_c, 0, 65, 38
1, 12120, Note_on_c, 0, 55, 38
1, 12150, Note_on_c, 0, 74, 0
1, 12150, Note_on_c, 0, 71, 41
1, 12180, Note_on_c, 0, 71, 0
1, 12180, Note_on_c, 0, 55, 0
1, 12180, Note_on_c, 0, 65, 0
1, 12240, Note_on_c, 0, 72, 41
1, 12240, Note_on_c, 0, 60, 38
1, 12240, Note_on_c, 0, 64, 38
1, 12360, Note_on_c, 0, 72, 0
1, 12360, Note_on_c, 0, 64, 0
1, 12360, Note_on_c, 0, 60, 0
1, 12600, Note_on_c, 0, 77, 42
1, 12720, Note_on_c, 0, 67, 39
1, 12720, Note_on_c, 0, 59, 39
1, 12810, Note_on_c, 0, 77, 0
1, 12810, Note_on_c, 0, 79, 42
1, 12840, Note_on_c, 0, 79, 0
1, 12840, Note_on_c, 0, 76, 42
1, 12840, Note_on_c, 0, 59, 0
1, 12840, Note_on_c, 0, 67, 0
1, 12840, Note_on_c, 0, 60, 39
1, 12840, Note_on_c, 0, 67, 39
1, 12900, Note_on_c, 0, 67, 0
1, 12900, Note_on_c, 0, 60, 0
1, 12930, Note_on_c, 0, 76, 0
1, 12930, Note_on_c, 0, 77, 42
1, 12960, Note_on_c, 0, 77, 0
1, 12960, Note_on_c, 0, 74, 41
1, 12960, Note_on_c, 0, 55, 39
1, 12960, Note_on_c, 0, 67, 39
1, 12990, Note_on_c, 0, 74, 0
1, 13080, Note_on_c, 0, 71, 39
1, 13080, Note_on_c, 0, 67, 0
1, 13080, Note_on_c, 0, 55, 0
1, 13110, Note_on_c, 0, 71, 0
1, 13200, Note_on_c, 0, 67, 37
1, 13230, Note_on_c, 0, 67, 0
1, 13320, Note_on_c, 0, 84, 48
1, 13440, Note_on_c, 0, 64, 46
1, 13440, Note_on_c, 0, 67, 46
1, 13530, Note_on_c, 0, 84, 0
1, 13530, Note_on_c, 0, 86, 47
1, 13560, Note_on_c, 0, 86, 0
1, 13560, Note_on_c, 0, 83, 47
1, 13560, Note_on_c, 0, 67, 0
1, 13560, Note_on_c, 0, 64, 0
1, 13560, Note_on_c, 0, 62, 44
1, 13560, Note_on_c, 0, 66, 44
1, 13620, Note_on_c, 0, 66, 0
1, 13620, Note_on_c, 0, 62, 0
1, 13650, Note_on_c, 0, 83, 0
1, 13650, Note_on_c, 0, 84, 47
1, 13680, Note_on_c, 0, 84, 0
1, 13680, Note_on_c, 0, 81, 41
1, 13800, Note_on_c, 0, 64, 41
1, 13800, Note_on_c, 0, 60, 41
1, 13890, Note_on_c, 0, 81, 0
1, 13890, Note_on_c, 0, 83, 41
1, 13920, Note_on_c, 0, 83, 0
1, 13920, Note_on_c, 0, 79, 41
1, 13920, Note_on_c, 0, 60, 0
1, 13920, Note_on_c, 0, 64, 0
1, 13920, Note_on_c, 0, 62, 39
1, 13920, Note_on_c, 0, 59, 39
1, 13980, Note_on_c, 0, 59, 0
1, 13980, Note_on_c, 0, 62, 0
1, 14010, Note_on_c, 0, 79, 0
1, 14010, Note_on_c, 0, 81, 41
1, 14040, Note_on_c, 0, 81, 0
1, 14040, Note_on_c, 0, 78, 41
1, 14040, Note_on_c, 0, 57, 46
1, 14040, Note_on_c, 0, 60, 46
1, 14130, Note_on_c, 0, 78, 0
1, 14130, Note_on_c, 0, 81, 47
1, 14160, Note_on_c, 0, 81, 0
1, 14160, Note_on_c, 0, 84, 49
1, 14250, Note_on_c, 0, 84, 0
1, 14250, Note_on_c, 0, 81, 42
1, 14280, Note_on_c, 0, 81, 0
1, 14280, Note_on_c, 0, 78, 39
1, 14280, Note_on_c, 0, 60, 0
1, 14280, Note_on_c, 0, 57, 0
1, 14280, Note_on_c, 0, 50, 39
1, 14340, Note_on_c, 0, 50, 0
1, 14370, Note_on_c, 0, 78, 0
1, 14370, Note_on_c, 0, 81, 47
1, 14400, Note_on_c, 0, 81, 0
1, 14400, Note_on_c, 0, 79, 42
1, 14400, Note_on_c, 0, 55, 35
1, 14490, Note_on_c, 0, 79, 0
1, 14490, Note_on_c, 0, 55, 0
1, 14490, Note_on_c, 0, 59, 40
1, 14520, Note_on_c, 0, 79, 42
1, 14520, Note_on_c, 0, 59, 0
1, 14520, Note_on_c, 0, 62, 42
1, 14610, Note_on_c, 0, 79, 0
1, 14610, Note_on_c, 0, 62, 0
1, 14610, Note_on_c, 0, 67, 48
1, 14640, Note_on_c, 0, 79, 42
1, 14640, Note_on_c, 0, 67, 0
1, 14640, Note_on_c, 0, 71, 50
1, 14730, Note_on_c, 0, 79, 0
1, 14730, Note_on_c, 0, 71, 0
1, 14730, Note_on_c, 0, 67, 41
1, 14760, Note_on_c, 0, 78, 47
1, 14760, Note_on_c, 0, 67, 0
1, 14760, Note_on_c, 0, 69, 48
1, 14760, Note_on_c, 0, 72, 48
1, 14850, Note_on_c, 0, 78, 0
1, 14850, Note_on_c, 0, 81, 52
1, 14880, Note_on_c, 0, 81, 0
1, 14880, Note_on_c, 0, 84, 53
1, 14970, Note_on_c, 0, 84, 0
1, 14970, Note_on_c, 0, 81, 47
1, 15000, Note_on_c, 0, 81, 0
1, 15000, Note_on_c, 0, 78, 44
1, 15000, Note_on_c, 0, 72, 0
1, 15000, Note_on_c, 0, 69, 0
1, 15000, Note_on_c, 0, 62, 41
1, 15090, Note_on_c, 0, 78, 0
1, 15090, Note_on_c, 0, 81, 51
1, 15120, Note_on_c, 0, 81, 0
1, 15120, Note_on_c, 0, 79, 45
1, 15120, Note_on_c, 0, 62, 0
1, 15120, Note_on_c, 0, 55, 52
1, 15210, Note_on_c, 0, 79, 0
1, 15210, Note_on_c, 0, 55, 0
1, 15210, Note_on_c, 0, 59, 49
1, 15240, Note_on_c, 0, 79, 44
1, 15240, Note_on_c, 0, 59, 0
1, 15240, Note_on_c, 0, 50, 48
1, 15330, Note_on_c, 0, 79, 0
1, 15330, Note_on_c, 0, 50, 0
1, 15330, Note_on_c, 0, 55, 45
1, 15360, Note_on_c, 0, 79, 42
1, 15360, Note_on_c, 0, 55, 0
1, 15360, Note_on_c, 0, 47, 44
1, 15450, Note_on_c, 0, 79, 0
1, 15450, Note_on_c, 0, 47, 0
1, 15450, Note_on_c, 0, 50, 41
1, 15480, Note_on_c, 0, 79, 40
1, 15480, Note_on_c, 0, 50, 0
1, 15480, Note_on_c, 0, 43, 40
1, 15600, Note_on_c, 0, 43, 0
1, 15690, Note_on_c, 0, 79, 0
1, 15690, Note_on_c, 0, 81, 39
1, 15720, Note_on_c, 0, 81, 0
1, 15720, Note_on_c, 0, 77, 39
1, 15810, Note_on_c, 0, 77, 0
1, 15810, Note_on_c, 0, 79, 39
1, 15840, Note_on_c, 0, 79, 0
1, 15840, Note_on_c, 0, 76, 47
1, 15960, Note_on_c, 0, 67, 42
1, 15960, Note_on_c, 0, 60, 42
1, 16050, Note_on_c, 0, 76, 0
1, 16050, Note_on_c, 0, 77, 47
1, 16080, Note_on_c, 0, 77, 0
1, 16080, Note_on_c, 0, 74, 47
1, 16080, Note_on_c, 0, 60, 0
1, 16080, Note_on_c, 0, 67, 0
1, 16080, Note_on_c, 0, 65, 40
1, 16080, Note_on_c, 0, 67, 40
1, 16140, Note_on_c, 0, 67, 0
1, 16140, Note_on_c, 0, 65, 0
1, 16170, Note_on_c, 0, 74, 0
1, 16170, Note_on_c, 0, 76, 47
1, 16200, Note_on_c, 0, 76, 0
1, 16200, Note_on_c, 0, 72, 41
1, 16200, Note_on_c, 0, 67, 38
1, 16200, Note_on_c, 0, 64, 38
1, 16320, Note_on_c, 0, 72, 0
1, 16320, Note_on_c, 0, 79, 46
1, 16320, Note_on_c, 0, 64, 0
1, 16320, Note_on_c, 0, 67, 0
1, 16350, Note_on_c, 0, 79, 0
1, 16440, Note_on_c, 0, 79, 40
1, 16470, Note_on_c, 0, 79, 0
1, 16560, Note_on_c, 0, 79, 49
1, 16560, Note_on_c, 0, 59, 42
1, 16560, Note_on_c, 0, 67, 42
1, 16620, Note_on_c, 0, 79, 0
1, 16620, Note_on_c, 0, 77, 48
1, 16680, Note_on_c, 0, 77, 0
1, 16680, Note_on_c, 0, 77, 46
1, 16740, Note_on_c, 0, 77, 0
1, 16740, Note_on_c, 0, 76, 44
1, 16800, Note_on_c, 0, 76, 0
1, 16800, Note_on_c, 0, 76, 43
1, 16800, Note_on_c, 0, 59, 0
1, 16800, Note_on_c, 0, 60, 39
1, 16860, Note_on_c, 0, 76, 0
1, 16860, Note_on_c, 0, 74, 41
1, 16920, Note_on_c, 0, 74, 0
1, 16920, Note_on_c, 0, 74, 41
1, 16920, Note_on_c, 0, 60, 0
1, 16920, Note_on_c, 0, 55, 38
1, 16950, Note_on_c, 0, 74, 0
1, 17040, Note_on_c, 0, 71, 41
1, 17040, Note_on_c, 0, 55, 0
1, 17040, Note_on_c, 0, 67, 0
1, 17070, Note_on_c, 0, 71, 0
1, 17160, Note_on_c, 0, 67, 41
1, 17190, Note_on_c, 0, 67, 0
1, 17280, Note_on_c, 0, 76, 46
1, 17400, Note_on_c, 0, 67, 40
1, 17400, Note_on_c, 0, 60, 40
1, 17490, Note_on_c, 0, 76, 0
1, 17490, Note_on_c, 0, 77, 46
1, 17520, Note_on_c, 0, 77, 0
1, 17520, Note_on_c, 0, 74, 46
1, 17520, Note_on_c, 0, 60, 0
1, 17520, Note_on_c, 0, 67, 0
1, 17520, Note_on_c, 0, 65, 39
1, 17520, Note_on_c, 0, 67, 39
1, 17580, Note_on_c, 0, 67, 0
1, 17580, Note_on_c, 0, 65, 0
1, 17610, Note_on_c, 0, 74, 0
1, 17610, Note_on_c, 0, 76, 46
1, 17640, Note_on_c, 0, 76, 0
1, 17640, Note_on_c, 0, 72, 39
1, 17640, Note_on_c, 0, 64, 38
1, 17640, Note_on_c, 0, 67, 38
1, 17760, Note_on_c, 0, 72, 0
1, 17760, Note_on_c, 0, 84, 45
1, 17760, Note_on_c, 0, 67, 0
1, 17760, Note_on_c, 0, 64, 0
1, 17790, Note_on_c, 0, 84, 0
1, 17880, Note_on_c, 0, 84, 40
1, 17880, Note_on_c, 0, 52, 42
1, 17880, Note_on_c, 0, 60, 42
1, 17910, Note_on_c, 0, 84, 0
1, 17940, Note_on_c, 0, 60, 0
1, 17940, Note_on_c, 0, 52, 0
1, 18000, Note_on_c, 0, 80, 48
1, 18000, Note_on_c, 0, 60, 40
1, 18000, Note_on_c, 0, 53, 40
1, 18030, Note_on_c, 0, 80, 0
1, 18030, Note_on_c, 0, 81, 48
1, 18060, Note_on_c, 0, 81, 0
1, 18120, Note_on_c, 0, 76, 46
1, 18120, Note_on_c, 0, 53, 0
1, 18120, Note_on_c, 0, 60, 0
1, 18150, Note_on_c, 0, 76, 0
1, 18150, Note_on_c, 0, 77, 45
1, 18180, Note_on_c, 0, 77, 0
1, 18240, Note_on_c, 0, 74, 43
1, 18240, Note_on_c, 0, 65, 38
1, 18240, Note_on_c, 0, 55, 38
1, 18270, Note_on_c, 0, 74, 0
1, 18270, Note_on_c, 0, 71, 41
1, 18300, Note_on_c, 0, 71, 0
1, 18300, Note_on_c, 0, 55, 0
1, 18300, Note_on_c, 0, 65, 0
1, 18360, Note_on_c, 0, 72, 41
1, 18360, Note_on_c, 0, 60, 38
1, 18360, Note_on_c, 0, 64, 38
1, 18480, Note_on_c, 0, 72, 0
1, 18480, Note_on_c, 0, 64, 0
1, 18480, Note_on_c, 0, 60, 0
1, 18720, Note_on_c, 0, 76, 39
1, 18840, Note_on_c, 0, 72, 40
1, 18930, Note_on_c, 0, 76, 0
1, 18930, Note_on_c, 0, 79, 39
1, 18960, Note_on_c, 0, 79, 0
1, 18960, Note_on_c, 0, 78, 39
1, 18960, Note_on_c, 0, 72, 0
1, 18960, Note_on_c, 0, 69, 40
1, 19050, Note_on_c, 0, 78, 0
1, 19050, Note_on_c, 0, 81, 40
1, 19080, Note_on_c, 0, 81, 0
1, 19080, Note_on_c, 0, 79, 40
1, 19080, Note_on_c, 0, 69, 0
1, 19080, Note_on_c, 0, 71, 40
1, 19200, Note_on_c, 0, 79, 0
1, 19200, Note_on_c, 0, 86, 46
1, 19200, Note_on_c, 0, 71, 0
1, 19230, Note_on_c, 0, 86, 0
1, 19320, Note_on_c, 0, 86, 39
1, 19350, Note_on_c, 0, 86, 0
1, 19440, Note_on_c, 0, 86, 47
1, 19440, Note_on_c, 0, 66, 37
1, 19440, Note_on_c, 0, 74, 37
1, 19500, Note_on_c, 0, 86, 0
1, 19500, Note_on_c, 0, 84, 46
1, 19560, Note_on_c, 0, 84, 0
1, 19560, Note_on_c, 0, 84, 44
1, 19620, Note_on_c, 0, 84, 0
1, 19620, Note_on_c, 0, 83, 43
1, 19680, Note_on_c, 0, 83, 0
1, 19680, Note_on_c, 0, 83, 41
1, 19680, Note_on_c, 0, 66, 0
1, 19680, Note_on_c, 0, 67, 37
1, 19740, Note_on_c, 0, 83, 0
1, 19740, Note_on_c, 0, 81, 40
1, 19800, Note_on_c, 0, 81, 0
1, 19800, Note_on_c, 0, 81, 45
1, 19800, Note_on_c, 0, 67, 0
1, 19800, Note_on_c, 0, 74, 0
1, 19800, Note_on_c, 0, 62, 37
1, 19830, Note_on_c, 0, 81, 0
1, 19920, Note_on_c, 0, 78, 42
1, 19920, Note_on_c, 0, 62, 0
1, 19950, Note_on_c, 0, 78, 0
1, 20040, Note_on_c, 0, 74, 39
1, 20070, Note_on_c, 0, 74, 0
1, 20160, Note_on_c, 0, 67, 51
1, 20280, Note_on_c, 0, 79, 40
1, 20280, Note_on_c, 0, 83, 40
1, 20370, Note_on_c, 0, 83, 0
1, 20370, Note_on_c, 0, 79, 0
1, 20370, Note_on_c, 0, 67, 0
1, 20370, Note_on_c, 0, 69, 50
1, 20400, Note_on_c, 0, 79, 40
1, 20400, Note_on_c, 0, 83, 40
1, 20400, Note_on_c, 0, 69, 0
1, 20400, Note_on_c, 0, 66, 49
1, 20430, Note_on_c, 0, 66, 0
1, 20490, Note_on_c, 0, 83, 0
1, 20490, Note_on_c, 0, 79, 0
1, 20490, Note_on_c, 0, 67, 49
1, 20520, Note_on_c, 0, 79, 40
1, 20520, Note_on_c, 0, 83, 40
1, 20520, Note_on_c, 0, 67, 0
1, 20520, Note_on_c, 0, 64, 49
1, 20550, Note_on_c, 0, 64, 0
1, 20610, Note_on_c, 0, 83, 0
1, 20610, Note_on_c, 0, 79, 0
1, 20610, Note_on_c, 0, 66, 48
1, 20640, Note_on_c, 0, 79, 40
1, 20640, Note_on_c, 0, 83, 40
1, 20640, Note_on_c, 0, 66, 0
1, 20640, Note_on_c, 0, 62, 48
1, 20670, Note_on_c, 0, 62, 0
1, 20730, Note_on_c, 0, 83, 0
1, 20730, Note_on_c, 0, 79, 0
1, 20730, Note_on_c, 0, 64, 47
1, 20760, Note_on_c, 0, 79, 40
1, 20760, Note_on_c, 0, 83, 40
1, 20760, Note_on_c, 0, 64, 0
1, 20760, Note_on_c, 0, 60, 47
1, 20790, Note_on_c, 0, 60, 0
1, 20850, Note_on_c, 0, 83, 0
1, 20850, Note_on_c, 0, 79, 0
1, 20850, Note_on_c, 0, 62, 46
1, 20880, Note_on_c, 0, 79, 41
1, 20880, Note_on_c, 0, 83, 41
1, 20880, Note_on_c, 0, 62, 0
1, 20880, Note_on_c, 0, 59, 46
1, 20910, Note_on_c, 0, 59, 0
1, 20970, Note_on_c, 0, 83, 0
1, 20970, Note_on_c, 0, 79, 0
1, 20970, Note_on_c, 0, 60, 45
1, 21000, Note_on_c, 0, 81, 45
1, 21000, Note_on_c, 0, 84, 45
1, 21000, Note_on_c, 0, 60, 0
1, 21000, Note_on_c, 0, 57, 45
1, 21030, Note_on_c, 0, 57, 0
1, 21090, Note_on_c, 0, 84, 0
1, 21090, Note_on_c, 0, 81, 0
1, 21090, Note_on_c, 0, 59, 44
1, 21120, Note_on_c, 0, 83, 49
1, 21120, Note_on_c, 0, 86, 49
1, 21120, Note_on_c, 0, 59, 0
1, 21120, Note_on_c, 0, 55, 44
1, 21180, Note_on_c, 0, 55, 0
1, 21210, Note_on_c, 0, 86, 0
1, 21210, Note_on_c, 0, 83, 0
1, 21240, Note_on_c, 0, 84, 53
1, 21240, Note_on_c, 0, 60, 39
1, 21280, Note_on_c, 0, 84, 0
1, 21280, Note_on_c, 0, 81, 52
1, 21320, Note_on_c, 0, 81, 0
1, 21320, Note_on_c, 0, 76, 50
1, 21330, Note_on_c, 0, 60, 0
1, 21360, Note_on_c, 0, 76, 0
1, 21360, Note_on_c, 0, 83, 49
1, 21360, Note_on_c, 0, 62, 45
1, 21400, Note_on_c, 0, 83, 0
1, 21400, Note_on_c, 0, 79, 47
1, 21440, Note_on_c, 0, 79, 0
1, 21440, Note_on_c, 0, 74, 46
1, 21450, Note_on_c, 0, 62, 0
1, 21480, Note_on_c, 0, 74, 0
1, 21480, Note_on_c, 0, 81, 44
1, 21480, Note_on_c, 0, 62, 40
1, 21520, Note_on_c, 0, 81, 0
1, 21520, Note_on_c, 0, 78, 43
1, 21560, Note_on_c, 0, 78, 0
1, 21560, Note_on_c, 0, 74, 41
1, 21570, Note_on_c, 0, 62, 0
1, 21600, Note_on_c, 0, 74, 0
1, 21600, Note_on_c, 0, 67, 51
1, 21720, Note_on_c, 0, 79, 45
1, 21720, Note_on_c, 0, 83, 45
1, 21760, Note_on_c, 0, 67, 0
1, 21760, Note_on_c, 0, 69, 49
1, 21800, Note_on_c, 0, 69, 0
1, 21800, Note_on_c, 0, 67, 49
1, 21810, Note_on_c, 0, 83, 0
1, 21810, Note_on_c, 0, 79, 0
1, 21840, Note_on_c, 0, 79, 45
1, 21840, Note_on_c, 0, 83, 45
1, 21840, Note_on_c, 0, 67, 0
1, 21840, Note_on_c, 0, 66, 49
1, 21880, Note_on_c, 0, 66, 0
1, 21880, Note_on_c, 0, 67, 48
1, 21920, Note_on_c, 0, 67, 0
1, 21920, Note_on_c, 0, 66, 48
1, 21930, Note_on_c, 0, 83, 0
1, 21930, Note_on_c, 0, 79, 0
1, 21960, Note_on_c, 0, 79, 45
1, 21960, Note_on_c, 0, 83, 45
1, 21960, Note_on_c, 0, 66, 0
1, 21960, Note_on_c, 0, 64, 47
1, 22000, Note_on_c, 0, 64, 0
1, 22000, Note_on_c, 0, 66, 47
1, 22040, Note_on_c, 0, 66, 0
1, 22040, Note_on_c, 0, 64, 46
1, 22050, Note_on_c, 0, 83, 0
1, 22050, Note_on_c, 0, 79, 0
1, 22080, Note_on_c, 0, 79, 45
1, 22080, Note_on_c, 0, 83, 45
1, 22080, Note_on_c, 0, 64, 0
1, 22080, Note_on_c, 0, 62, 46
1, 22120, Note_on_c, 0, 62, 0
1, 22120, Note_on_c, 0, 64, 45
1, 22160, Note_on_c, 0, 64, 0
1, 22160, Note_on_c, 0, 62, 45
1, 22170, Note_on_c, 0, 83, 0
1, 22170, Note_on_c, 0, 79, 0
1, 22200, Note_on_c, 0, 79, 45
1, 22200, Note_on_c, 0, 83, 45
1, 22200, Note_on_c, 0, 62, 0
1, 22200, Note_on_c, 0, 60, 45
1, 22240, Note_on_c, 0, 60, 0
1, 22240, Note_on_c, 0, 62, 44
1, 22280, Note_on_c, 0, 62, 0
1, 22280, Note_on_c, 0, 60, 44
1, 22290, Note_on_c, 0, 83, 0
1, 22290, Note_on_c, 0, 79, 0
1, 22320, Note_on_c, 0, 79, 46
1, 22320, Note_on_c, 0, 83, 46
1, 22320, Note_on_c, 0, 60, 0
1, 22320, Note_on_c, 0, 59, 43
1, 22360, Note_on_c, 0, 59, 0
1, 22360, Note_on_c, 0, 60, 43
1, 22400, Note_on_c, 0, 60, 0
1, 22400, Note_on_c, 0, 59, 42
1, 22410, Note_on_c, 0, 83, 0
1, 22410, Note_on_c, 0, 79, 0
1, 22440, Note_on_c, 0, 81, 48
1, 22440, Note_on_c, 0, 84, 48
1, 22440, Note_on_c, 0, 59, 0
1, 22440, Note_on_c, 0, 57, 42
1, 22480, Note_on_c, 0, 57, 0
1, 22480, Note_on_c, 0, 59, 41
1, 22520, Note_on_c, 0, 59, 0
1, 22520, Note_on_c, 0, 57, 41
1, 22530, Note_on_c, 0, 84, 0
1, 22530, Note_on_c, 0, 81, 0
1, 22560, Note_on_c, 0, 83, 51
1, 22560, Note_on_c, 0, 86, 51
1, 22560, Note_on_c, 0, 57, 0
1, 22560, Note_on_c, 0, 55, 41
1, 22620, Note_on_c, 0, 55, 0
1, 22650, Note_on_c, 0, 86, 0
1, 22650, Note_on_c, 0, 83, 0
1, 22680, Note_on_c, 0, 84, 53
1, 22680, Note_on_c, 0, 60, 39
1, 22720, Note_on_c, 0, 84, 0
1, 22720, Note_on_c, 0, 81, 52
1, 22760, Note_on_c, 0, 81, 0
1, 22760, Note_on_c, 0, 76, 50
1, 22770, Note_on_c, 0, 60, 0
1, 22800, Note_on_c, 0, 76, 0
1, 22800, Note_on_c, 0, 83, 49
1, 22800, Note_on_c, 0, 62, 39
1, 22840, Note_on_c, 0, 83, 0
1, 22840, Note_on_c, 0, 79, 47
1, 22880, Note_on_c, 0, 79, 0
1, 22880, Note_on_c, 0, 74, 46
1, 22890, Note_on_c, 0, 62, 0
1, 22920, Note_on_c, 0, 74, 0
1, 22920, Note_on_c, 0, 81, 44
1, 22920, Note_on_c, 0, 62, 39
1, 22960, Note_on_c, 0, 81, 0
1, 22960, Note_on_c, 0, 78, 43
1, 23000, Note_on_c, 0, 78, 0
1, 23000, Note_on_c, 0, 72, 41
1, 23010, Note_on_c, 0, 62, 0
1, 23040, Note_on_c, 0, 72, 0
1, 23040, Note_on_c, 0, 79, 41
1, 23040, Note_on_c, 0, 71, 41
1, 23040, Note_on_c, 0, 55, 37
1, 23160, Note_on_c, 0, 55, 0
1, 23400, Note_on_c, 0, 67, 40
1, 23610, Note_on_c, 0, 67, 0
1, 23610, Note_on_c, 0, 69, 40
1, 23640, Note_on_c, 0, 71, 0
1, 23640, Note_on_c, 0, 79, 0
1, 23640, Note_on_c, 0, 69, 0
1, 23640, Note_on_c, 0, 65, 40
1, 23730, Note_on_c, 0, 65, 0
1, 23730, Note_on_c, 0, 67, 40
1, 23760, Note_on_c, 0, 79, 41
1, 23760, Note_on_c, 0, 67, 0
1, 23760, Note_on_c, 0, 64, 36
1, 23880, Note_on_c, 0, 70, 45
1, 23970, Note_on_c, 0, 79, 0
1, 23970, Note_on_c, 0, 81, 41
1, 23970, Note_on_c, 0, 70, 0
1, 23970, Note_on_c, 0, 72, 42
1, 24000, Note_on_c, 0, 81, 0
1, 24000, Note_on_c, 0, 77, 41
1, 24000, Note_on_c, 0, 72, 0
1, 24000, Note_on_c, 0, 69, 42
1, 24090, Note_on_c, 0, 77, 0
1, 24090, Note_on_c, 0, 79, 41
1, 24090, Note_on_c, 0, 69, 0
1, 24090, Note_on_c, 0, 70, 39
1, 24120, Note_on_c, 0, 79, 0
1, 24120, Note_on_c, 0, 76, 41
1, 24120, Note_on_c, 0, 70, 0
1, 24120, Note_on_c, 0, 67, 38
1, 24150, Note_on_c, 0, 67, 0
1, 24150, Note_on_c, 0, 64, 0
1, 24240, Note_on_c, 0, 67, 42
1, 24240, Note_on_c, 0, 70, 42
1, 24330, Note_on_c, 0, 76, 0
1, 24330, Note_on_c, 0, 77, 41
1, 24330, Note_on_c, 0, 70, 0
1, 24330, Note_on_c, 0, 67, 0
1, 24360, Note_on_c, 0, 77, 0
1, 24360, Note_on_c, 0, 74, 41
1, 24360, Note_on_c, 0, 65, 40
1, 24360, Note_on_c, 0, 69, 40
1, 24450, Note_on_c, 0, 74, 0
1, 24450, Note_on_c, 0, 76, 41
1, 24450, Note_on_c, 0, 69, 0
1, 24450, Note_on_c, 0, 65, 0
1, 24480, Note_on_c, 0, 76, 0
1, 24480, Note_on_c, 0, 73, 48
1, 24480, Note_on_c, 0, 64, 37
1, 24480, Note_on_c, 0, 67, 37
1, 24510, Note_on_c, 0, 73, 0
1, 24570, Note_on_c, 0, 67, 0
1, 24570, Note_on_c, 0, 64, 0
1, 24600, Note_on_c, 0, 70, 46
1, 24600, Note_on_c, 0, 73, 46
1, 24600, Note_on_c, 0, 55, 46
1, 24690, Note_on_c, 0, 73, 0
1, 24690, Note_on_c, 0, 70, 0
1, 24690, Note_on_c, 0, 55, 0
1, 24690, Note_on_c, 0, 57, 44
1, 24720, Note_on_c, 0, 74, 43
1, 24720, Note_on_c, 0, 69, 43
1, 24720, Note_on_c, 0, 57, 0
1, 24720, Note_on_c, 0, 53, 43
1, 24810, Note_on_c, 0, 69, 0
1, 24810, Note_on_c, 0, 74, 0
1, 24810, Note_on_c, 0, 53, 0
1, 24810, Note_on_c, 0, 55, 41
1, 24840, Note_on_c, 0, 76, 40
1, 24840, Note_on_c, 0, 67, 40
1, 24840, Note_on_c, 0, 55, 0
1, 24840, Note_on_c, 0, 52, 40
1, 24930, Note_on_c, 0, 67, 0
1, 24930, Note_on_c, 0, 76, 0
1, 24930, Note_on_c, 0, 52, 0
1, 24930, Note_on_c, 0, 53, 38
1, 24960, Note_on_c, 0, 77, 38
1, 24960, Note_on_c, 0, 65, 38
1, 24960, Note_on_c, 0, 53, 0
1, 24960, Note_on_c, 0, 50, 37
1, 24990, Note_on_c, 0, 50, 0
1, 25050, Note_on_c, 0, 65, 0
1, 25050, Note_on_c, 0, 77, 0
1, 25050, Note_on_c, 0, 79, 37
1, 25080, Note_on_c, 0, 79, 0
1, 25080, Note_on_c, 0, 76, 37
1, 25080, Note_on_c, 0, 52, 36
1, 25080, Note_on_c, 0, 55, 36
1, 25110, Note_on_c, 0, 55, 0
1, 25110, Note_on_c, 0, 52, 0
1, 25170, Note_on_c, 0, 76, 0
1, 25170, Note_on_c, 0, 77, 37
1, 25200, Note_on_c, 0, 77, 0
1, 25200, Note_on_c, 0, 74, 37
1, 25200, Note_on_c, 0, 53, 36
1, 25200, Note_on_c, 0, 57, 36
1, 25230, Note_on_c, 0, 74, 0
1, 25320, Note_on_c, 0, 74, 37
1, 25410, Note_on_c, 0, 74, 0
1, 25410, Note_on_c, 0, 76, 37
1, 25440, Note_on_c, 0, 76, 0
1, 25440, Note_on_c, 0, 72, 37
1, 25440, Note_on_c, 0, 53, 0
1, 25440, Note_on_c, 0, 54, 39
1, 25530, Note_on_c, 0, 72, 0
1, 25530, Note_on_c, 0, 74, 37
1, 25560, Note_on_c, 0, 74, 0
1, 25560, Note_on_c, 0, 67, 37
1, 25560, Note_on_c, 0, 71, 37
1, 25560, Note_on_c, 0, 54, 0
1, 25560, Note_on_c, 0, 57, 0
1, 25560, Note_on_c, 0, 55, 36
1, 25650, Note_on_c, 0, 71, 0
1, 25650, Note_on_c, 0, 67, 0
1, 25650, Note_on_c, 0, 74, 37
1, 25680, Note_on_c, 0, 74, 0
1, 25680, Note_on_c, 0, 69, 37
1, 25680, Note_on_c, 0, 72, 37
1, 25680, Note_on_c, 0, 55, 0
1, 25770, Note_on_c, 0, 72, 0
1, 25770, Note_on_c, 0, 69, 0
1, 25770, Note_on_c, 0, 76, 37
1, 25800, Note_on_c, 0, 76, 0
1, 25800, Note_on_c, 0, 71, 37
1, 25800, Note_on_c, 0, 74, 37
1, 25890, Note_on_c, 0, 74, 0
1, 25890, Note_on_c, 0, 71, 0
1, 25890, Note_on_c, 0, 77, 37
1, 25920, Note_on_c, 0, 77, 0
1, 25920, Note_on_c, 0, 72, 39
1, 25920, Note_on_c, 0, 76, 39
1, 26040, Note_on_c, 0, 64, 35
1, 26040, Note_on_c, 0, 60, 35
1, 26130, Note_on_c, 0, 76, 0
1, 26130, Note_on_c, 0, 77, 39
1, 26160, Note_on_c, 0, 77, 0
1, 26160, Note_on_c, 0, 72, 0
1, 26160, Note_on_c, 0, 74, 39
1, 26160, Note_on_c, 0, 60, 0
1, 26160, Note_on_c, 0, 64, 0
1, 26160, Note_on_c, 0, 55, 34
1, 26160, Note_on_c, 0, 65, 34
1, 26220, Note_on_c, 0, 65, 0
1, 26220, Note_on_c, 0, 55, 0
1, 26250, Note_on_c, 0, 74, 0
1, 26250, Note_on_c, 0, 76, 39
1, 26280, Note_on_c, 0, 76, 0
1, 26280, Note_on_c, 0, 72, 34
1, 26280, Note_on_c, 0, 64, 32
1, 26280, Note_on_c, 0, 60, 32
1, 26400, Note_on_c, 0, 72, 0
1, 26400, Note_on_c, 0, 79, 39
1, 26400, Note_on_c, 0, 60, 0
1, 26400, Note_on_c, 0, 64, 0
1, 26430, Note_on_c, 0, 79, 0
1, 26520, Note_on_c, 0, 79, 34
1, 26550, Note_on_c, 0, 79, 0
1, 26640, Note_on_c, 0, 79, 41
1, 26640, Note_on_c, 0, 59, 35
1, 26640, Note_on_c, 0, 67, 35
1, 26700, Note_on_c, 0, 79, 0
1, 26700, Note_on_c, 0, 77, 40
1, 26760, Note_on_c, 0, 77, 0
1, 26760, Note_on_c, 0, 77, 39
1, 26820, Note_on_c, 0, 77, 0
1, 26820, Note_on_c, 0, 76, 37
1, 26880, Note_on_c, 0, 76, 0
1, 26880, Note_on_c, 0, 76, 36
1, 26880, Note_on_c, 0, 59, 0
1, 26880, Note_on_c, 0, 60, 33
1, 26940, Note_on_c, 0, 76, 0
1, 26940, Note_on_c, 0, 74, 34
1, 27000, Note_on_c, 0, 74, 0
1, 27000, Note_on_c, 0, 74, 34
1, 27000, Note_on_c, 0, 60, 0
1, 27000, Note_on_c, 0, 55, 32
1, 27030, Note_on_c, 0, 74, 0
1, 27120, Note_on_c, 0, 71, 34
1, 27120, Note_on_c, 0, 55, 0
1, 27120, Note_on_c, 0, 67, 0
1, 27150, Note_on_c, 0, 71, 0
1, 27240, Note_on_c, 0, 67, 34
1, 27270, Note_on_c, 0, 67, 0
1, 27360, Note_on_c, 0, 76, 39
1, 27480, Note_on_c, 0, 67, 34
1, 27480, Note_on_c, 0, 60, 34
1, 27570, Note_on_c, 0, 76, 0
1, 27570, Note_on_c, 0, 77, 39
1, 27600, Note_on_c, 0, 77, 0
1, 27600, Note_on_c, 0, 74, 39
1, 27600, Note_on_c, 0, 60, 0
1, 27600, Note_on_c, 0, 67, 0
1, 27600, Note_on_c, 0, 65, 33
1, 27600, Note_on_c, 0, 67, 33
1, 27660, Note_on_c, 0, 67, 0
1, 27660, Note_on_c, 0, 65, 0
1, 27690, Note_on_c, 0, 74, 0
1, 27690, Note_on_c, 0, 76, 39
1, 27720, Note_on_c, 0, 76, 0
1, 27720, Note_on_c, 0, 72, 33
1, 27720, Note_on_c, 0, 64, 32
1, 27720, Note_on_c, 0, 67, 32
1, 27840, Note_on_c, 0, 72, 0
1, 27840, Note_on_c, 0, 84, 38
1, 27840, Note_on_c, 0, 67, 0
1, 27840, Note_on_c, 0, 64, 0
1, 27870, Note_on_c, 0, 84, 0
1, 27960, Note_on_c, 0, 84, 34
1, 27960, Note_on_c, 0, 52, 35
1, 27960, Note_on_c, 0, 60, 35
1, 27990, Note_on_c, 0, 84, 0
1, 28020, Note_on_c, 0, 60, 0
1, 28020, Note_on_c, 0, 52, 0
1, 28080, Note_on_c, 0, 80, 40
1, 28080, Note_on_c, 0, 60, 34
1, 28080, Note_on_c, 0, 53, 34
1, 28110, Note_on_c, 0, 80, 0
1, 28110, Note_on_c, 0, 81, 40
1, 28140, Note_on_c, 0, 81, 0
1, 28200, Note_on_c, 0, 76, 39
1, 28200, Note_on_c, 0, 53, 0
1, 28200, Note_on_c, 0, 60, 0
1, 28230, Note_on_c, 0, 76, 0
1, 28230, Note_on_c, 0, 77, 38
1, 28260, Note_on_c, 0, 77, 0
1, 28320, Note_on_c, 0, 74, 36
1, 28320, Note_on_c, 0, 65, 32
1, 28320, Note_on_c, 0, 55, 32
1, 28350, Note_on_c, 0, 74, 0
1, 28350, Note_on_c, 0, 71, 34
1, 28380, Note_on_c, 0, 71, 0
1, 28380, Note_on_c, 0, 55, 0
1, 28380, Note_on_c, 0, 65, 0
1, 28440, Note_on_c, 0, 72, 34
1, 28440, Note_on_c, 0, 60, 32
1, 28440, Note_on_c, 0, 64, 32
1, 28560, Note_on_c, 0, 72, 0
1, 28560, Note_on_c, 0, 64, 0
1, 28560, Note_on_c, 0, 60, 0
1, 28800, Note_on_c, 0, 76, 39
1, 28920, Note_on_c, 0, 72, 40
1, 29010, Note_on_c, 0, 76, 0
1, 29010, Note_on_c, 0, 79, 39
1, 29040, Note_on_c, 0, 79, 0
1, 29040, Note_on_c, 0, 78, 39
1, 29040, Note_on_c, 0, 72, 0
1, 29040, Note_on_c, 0, 69, 40
1, 29130, Note_on_c, 0, 78, 0
1, 29130, Note_on_c, 0, 81, 40
1, 29160, Note_on_c, 0, 81, 0
1, 29160, Note_on_c, 0, 79, 40
1, 29160, Note_on_c, 0, 69, 0
1, 29160, Note_on_c, 0, 71, 40
1, 29280, Note_on_c, 0, 79, 0
1, 29280, Note_on_c, 0, 86, 46
1, 29280, Note_on_c, 0, 71, 0
1, 29310, Note_on_c, 0, 86, 0
1, 29400, Note_on_c, 0, 86, 39
1, 29430, Note_on_c, 0, 86, 0
1, 29520, Note_on_c, 0, 86, 47
1, 29520, Note_on_c, 0, 66, 37
1, 29520, Note_on_c, 0, 74, 37
1, 29580, Note_on_c, 0, 86, 0
1, 29580, Note_on_c, 0, 84, 46
1, 29640, Note_on_c, 0, 84, 0
1, 29640, Note_on_c, 0, 84, 44
1, 29700, Note_on_c, 0, 84, 0
1, 29700, Note_on_c, 0, 83, 43
1, 29760, Note_on_c, 0, 83, 0
1, 29760, Note_on_c, 0, 83, 41
1, 29760, Note_on_c, 0, 66, 0
1, 29760, Note_on_c, 0, 67, 37
1, 29820, Note_on_c, 0, 83, 0
1, 29820, Note_on_c, 0, 81, 40
1, 29880, Note_on_c, 0, 81, 0
1, 29880, Note_on_c, 0, 81, 45
1, 29880, Note_on_c, 0, 67, 0
1, 29880, Note_on_c, 0, 74, 0
1, 29880, Note_on_c, 0, 62, 37
1, 29910, Note_on_c, 0, 81, 0
1, 30000, Note_on_c, 0, 78, 42
1, 30000, Note_on_c, 0, 62, 0
1, 30030, Note_on_c, 0, 78, 0
1, 30120, Note_on_c, 0, 74, 39
1, 30150, Note_on_c, 0, 74, 0
1, 30240, Note_on_c, 0, 67, 51
1, 30360, Note_on_c, 0, 79, 40
1, 30360, Note_on_c, 0, 83, 40
1, 30450, Note_on_c, 0, 83, 0
1, 30450, Note_on_c, 0, 79, 0
1, 30450, Note_on_c, 0, 67, 0
1, 30450, Note_on_c, 0, 69, 50
1, 30480, Note_on_c, 0, 79, 40
1, 30480, Note_on_c, 0, 83, 40
1, 30480, Note_on_c, 0, 69, 0
1, 30480, Note_on_c, 0, 66, 49
1, 30510, Note_on_c, 0, 66, 0
1, 30570, Note_on_c, 0, 83, 0
1, 30570, Note_on_c, 0, 79, 0
1, 30570, Note_on_c, 0, 67, 49
1, 30600, Note_on_c, 0, 79, 40
1, 30600, Note_on_c, 0, 83, 40
1, 30600, Note_on_c, 0, 67, 0
1, 30600, Note_on_c, 0, 64, 49
1, 30630, Note_on_c, 0, 64, 0
1, 30690, Note_on_c, 0, 83, 0
1, 30690, Note_on_c, 0, 79, 0
1, 30690, Note_on_c, 0, 66, 48
1, 30720, Note_on_c, 0, 79, 40
1, 30720, Note_on_c, 0, 83, 40
1, 30720, Note_on_c, 0, 66, 0
1, 30720, Note_on_c, 0, 62, 48
1, 30750, Note_on_c, 0, 62, 0
1, 30810, Note_on_c, 0, 83, 0
1, 30810, Note_on_c, 0, 79, 0
1, 30810, Note_on_c, 0, 64, 47
1, 30840, Note_on_c, 0, 79, 40
1, 30840, Note_on_c, 0, 83, 40
1, 30840, Note_on_c, 0, 64, 0
1, 30840, Note_on_c, 0, 60, 47
1, 30870, Note_on_c, 0, 60, 0
1, 30930, Note_on_c, 0, 83, 0
1, 30930, Note_on_c, 0, 79, 0
1, 30930, Note_on_c, 0, 62, 46
1, 30960, Note_on_c, 0, 79, 41
1, 30960, Note_on_c, 0, 83, 41
1, 30960, Note_on_c, 0, 62, 0
1, 30960, Note_on_c, 0, 59, 46
1, 30990, Note_on_c, 0, 59, 0
1, 31050, Note_on_c, 0, 83, 0
1, 31050, Note_on_c, 0, 79, 0
1, 31050, Note_on_c, 0, 60, 45
1, 31080, Note_on_c, 0, 81, 45
1, 31080, Note_on_c, 0, 84, 45
1, 31080, Note_on_c, 0, 60, 0
1, 31080, Note_on_c, 0, 57, 45
1, 31110, Note_on_c, 0, 57, 0
1, 31170, Note_on_c, 0, 84, 0
1, 31170, Note_on_c, 0, 81, 0
1, 31170, Note_on_c, 0, 59, 44
1, 31200, Note_on_c, 0, 83, 49
1, 31200, Note_on_c, 0, 86, 49
1, 31200, Note_on_c, 0, 59, 0
1, 31200, Note_on_c, 0, 55, 44
1, 31260, Note_on_c, 0, 55, 0
1, 31290, Note_on_c, 0, 86, 0
1, 31290, Note_on_c, 0, 83, 0
1, 31320, Note_on_c, 0, 84, 53
1, 31320, Note_on_c, 0, 60, 39
1, 31360, Note_on_c, 0, 84, 0
1, 31360, Note_on_c, 0, 81, 52
1, 31400, Note_on_c, 0, 81, 0
1, 31400, Note_on_c, 0, 76, 50
1, 31410, Note_on_c, 0, 60, 0
1, 31440, Note_on_c, 0, 76, 0
1, 31440, Note_on_c, 0, 83, 49
1, 31440, Note_on_c, 0, 62, 45
1, 31480, Note_on_c, 0, 83, 0
1, 31480, Note_on_c, 0, 79, 47
1, 31520, Note_on_c, 0, 79, 0
1, 31520, Note_on_c, 0, 74, 46
1, 31530, Note_on_c, 0, 62, 0
1, 31560, Note_on_c, 0, 74, 0
1, 31560, Note_on_c, 0, 81, 44
1, 31560, Note_on_c, 0, 62, 40
1, 31600, Note_on_c, 0, 81, 0
1, 31600, Note_on_c, 0, 78, 43
1, 31640, Note_on_c, 0, 78, 0
1, 31640, Note_on_c, 0, 74, 41
1, 31650, Note_on_c, 0, 62, 0
1, 31680, Note_on_c, 0, 74, 0
1, 31680, Note_on_c, 0, 67, 51
1, 31800, Note_on_c, 0, 79, 45
1, 31800, Note_on_c, 0, 83, 45
1, 31840, Note_on_c, 0, 67, 0
1, 31840, Note_on_c, 0, 69, 49
1, 31880, Note_on_c, 0, 69, 0
1, 31880, Note_on_c, 0, 67, 49
1, 31890, Note_on_c, 0, 83, 0
1, 31890, Note_on_c, 0, 79, 0
1, 31920, Note_on_c, 0, 79, 45
1, 31920, Note_on_c, 0, 83, 45
1, 31920, Note_on_c, 0, 67, 0
1, 31920, Note_on_c, 0, 66, 49
1, 31960, Note_on_c, 0, 66, 0
1, 31960, Note_on_c, 0, 67, 48
1, 32000, Note_on_c, 0, 67, 0
1, 32000, Note_on_c, 0, 66, 48
1, 32010, Note_on_c, 0, 83, 0
1, 32010, Note_on_c, 0, 79, 0
1, 32040, Note_on_c, 0, 79, 45
1, 32040, Note_on_c, 0, 83, 45
1, 32040, Note_on_c, 0, 66, 0
1, 32040, Note_on_c, 0, 64, 47
1, 32080, Note_on_c, 0, 64, 0
1, 32080, Note_on_c, 0, 66, 47
1, 32120, Note_on_c, 0, 66, 0
1, 32120, Note_on_c, 0, 64, 46
1, 32130, Note_on_c, 0, 83, 0
1, 32130, Note_on_c, 0, 79, 0
1, 32160, Note_on_c, 0, 79, 45
1, 32160, Note_on_c, 0, 83, 45
1, 32160, Note_on_c, 0, 64, 0
1, 32160, Note_on_c, 0, 62, 46
1, 32200, Note_on_c, 0, 62, 0
1, 32200, Note_on_c, 0, 64, 45
1, 32240, Note_on_c, 0, 64, 0
1, 32240, Note_on_c, 0, 62, 45
1, 32250, Note_on_c, 0, 83, 0
1, 32250, Note_on_c, 0, 79, 0
1, 32280, Note_on_c, 0, 79, 45
1, 32280, Note_on_c, 0, 83, 45
1, 32280, Note_on_c, 0, 62, 0
1, 32280, Note_on_c, 0, 60, 45
1, 32320, Note_on_c, 0, 60, 0
1, 32320, Note_on_c, 0, 62, 44
1, 32360, Note_on_c, 0, 62, 0
1, 32360, Note_on_c, 0, 60, 44
1, 32370, Note_on_c, 0, 83, 0
1, 32370, Note_on_c, 0, 79, 0
1, 32400, Note_on_c, 0, 79, 46
1, 32400, Note_on_c, 0, 83, 46
1, 32400, Note_on_c, 0, 60, 0
1, 32400, Note_on_c, 0, 59, 43
1, 32440, Note_on_c, 0, 59, 0
1, 32440, Note_on_c, 0, 60, 43
1, 32480, Note_on_c, 0, 60, 0
1, 32480, Note_on_c, 0, 59, 42
1, 32490, Note_on_c, 0, 83, 0
1, 32490, Note_on_c, 0, 79, 0
1, 32520, Note_on_c, 0, 81, 48
1, 32520, Note_on_c, 0, 84, 48
1, 32520, Note_on_c, 0, 59, 0
1, 32520, Note_on_c, 0, 57, 42
1, 32560, Note_on_c, 0, 57, 0
1, 32560, Note_on_c, 0, 59, 41
1, 32600, Note_on_c, 0, 59, 0
1, 32600, Note_on_c, 0, 57, 41
1, 32610, Note_on_c, 0, 84, 0
1, 32610, Note_on_c, 0, 81, 0
1, 32640, Note_on_c, 0, 83, 51
1, 32640, Note_on_c, 0, 86, 51
1, 32640, Note_on_c, 0, 57, 0
1, 32640, Note_on_c, 0, 55, 41
1, 32700, Note_on_c, 0, 55, 0
1, 32730, Note_on_c, 0, 86, 0
1, 32730, Note_on_c, 0, 83, 0
1, 32760, Note_on_c, 0, 84, 53
1, 32760, Note_on_c, 0, 60, 39
1, 32800, Note_on_c, 0, 84, 0
1, 32800, Note_on_c, 0, 81, 52
1, 32840, Note_on_c, 0, 81, 0
1, 32840, Note_on_c, 0, 76, 50
1, 32850, Note_on_c, 0, 60, 0
1, 32880, Note_on_c, 0, 76, 0
1, 32880, Note_on_c, 0, 83, 49
1, 32880, Note_on_c, 0, 62, 39
1, 32920, Note_on_c, 0, 83, 0
1, 32920, Note_on_c, 0, 79, 47
1, 32960, Note_on_c, 0, 79, 0
1, 32960, Note_on_c, 0, 74, 46
1, 32970, Note_on_c, 0, 62, 0
1, 33000, Note_on_c, 0, 74, 0
1, 33000, Note_on_c, 0, 81, 44
1, 33000, Note_on_c, 0, 62, 39
1, 33040, Note_on_c, 0, 81, 0
1, 33040, Note_on_c, 0, 78, 43
1, 33080, Note_on_c, 0, 78, 0
1, 33080, Note_on_c, 0, 72, 41
1, 33090, Note_on_c, 0, 62, 0
1, 33120, Note_on_c, 0, 72, 0
1, 33120, Note_on_c, 0, 79, 41
1, 33120, Note_on_c, 0, 71, 41
1, 33120, Note_on_c, 0, 55, 37
1, 33240, Note_on_c, 0, 55, 0
1, 33480, Note_on_c, 0, 67, 40
1, 33690, Note_on_c, 0, 67, 0
1, 33690, Note_on_c, 0, 69, 40
1, 33720, Note_on_c, 0, 71, 0
1, 33720, Note_on_c, 0, 79, 0
1, 33720, Note_on_c, 0, 69, 0
1, 33720, Note_on_c, 0, 65, 40
1, 33810, Note_on_c, 0, 65, 0
1, 33810, Note_on_c, 0, 67, 40
1, 33840, Note_on_c, 0, 79, 41
1, 33840, Note_on_c, 0, 67, 0
1, 33840, Note_on_c, 0, 64, 36
1, 33960, Note_on_c, 0, 70, 45
1, 34050, Note_on_c, 0, 79, 0
1, 34050, Note_on_c, 0, 81, 41
1, 34050, Note_on_c, 0, 70, 0
1, 34050, Note_on_c, 0, 72, 42
1, 34080, Note_on_c, 0, 81, 0
1, 34080, Note_on_c, 0, 77, 41
1, 34080, Note_on_c, 0, 72, 0
1, 34080, Note_on_c, 0, 69, 42
1, 34170, Note_on_c, 0, 77, 0
1, 34170, Note_on_c, 0, 79, 41
1, 34170, Note_on_c, 0, 69, 0
1, 34170, Note_on_c, 0, 70, 39
1, 34200, Note_on_c, 0, 79, 0
1, 34200, Note_on_c, 0, 76, 41
1, 34200, Note_on_c, 0, 70, 0
1, 34200, Note_on_c, 0, 67, 38
1, 34230, Note_on_c, 0, 67, 0
1, 34230, Note_on_c, 0, 64, 0
1, 34320, Note_on_c, 0, 67, 42
1, 34320, Note_on_c, 0, 70, 42
1, 34410, Note_on_c, 0, 76, 0
1, 34410, Note_on_c, 0, 77, 41
1, 34410, Note_on_c, 0, 70, 0
1, 34410, Note_on_c, 0, 67, 0
1, 34440, Note_on_c, 0, 77, 0
1, 34440, Note_on_c, 0, 74, 41
1, 34440, Note_on_c, 0, 65, 40
1, 34440, Note_on_c, 0, 69, 40
1, 34530, Note_on_c, 0, 74, 0
1, 34530, Note_on_c, 0, 76, 41
1, 34530, Note_on_c, 0, 69, 0
1, 34530, Note_on_c, 0, 65, 0
1, 34560, Note_on_c, 0, 76, 0
1, 34560, Note_on_c, 0, 73, 48
1, 34560, Note_on_c, 0, 64, 37
1, 34560, Note_on_c, 0, 67, 37
1, 34590, Note_on_c, 0, 73, 0
1, 34650, Note_on_c, 0, 67, 0
1, 34650, Note_on_c, 0, 64, 0
1, 34680, Note_on_c, 0, 70, 46
1, 34680, Note_on_c, 0, 73, 46
1, 34680, Note_on_c, 0, 55, 46
1, 34770, Note_on_c, 0, 73, 0
1, 34770, Note_on_c, 0, 70, 0
1, 34770, Note_on_c, 0, 55, 0
1, 34770, Note_on_c, 0, 57, 44
1, 34800, Note_on_c, 0, 74, 43
1, 34800, Note_on_c, 0, 69, 43
1, 34800, Note_on_c, 0, 57, 0
1, 34800, Note_on_c, 0, 53, 43
1, 34890, Note_on_c, 0, 69, 0
1, 34890, Note_on_c, 0, 74, 0
1, 34890, Note_on_c, 0, 53, 0
1, 34890, Note_on_c, 0, 55, 41
1, 34920, Note_on_c, 0, 76, 40
1, 34920, Note_on_c, 0, 67, 40
1, 34920, Note_on_c, 0, 55, 0
1, 34920, Note_on_c, 0, 52, 40
1, 35010, Note_on_c, 0, 67, 0
1, 35010, Note_on_c, 0, 76, 0
1, 35010, Note_on_c, 0, 52, 0
1, 35010, Note_on_c, 0, 53, 38
1, 35040, Note_on_c, 0, 77, 38
1, 35040, Note_on_c, 0, 65, 38
1, 35040, Note_on_c, 0, 53, 0
1, 35040, Note_on_c, 0, 50, 37
1, 35070, Note_on_c, 0, 50, 0
1, 35130, Note_on_c, 0, 65, 0
1, 35130, Note_on_c, 0, 77, 0
1, 35130, Note_on_c, 0, 79, 37
1, 35160, Note_on_c, 0, 79, 0
1, 35160, Note_on_c, 0, 76, 37
1, 35160, Note_on_c, 0, 52, 36
1, 35160, Note_on_c, 0, 55, 36
1, 35190, Note_on_c, 0, 55, 0
1, 35190, Note_on_c, 0, 52, 0
1, 35250, Note_on_c, 0, 76, 0
1, 35250, Note_on_c, 0, 77, 37
1, 35280, Note_on_c, 0, 77, 0
1, 35280, Note_on_c, 0, 74, 37
1, 35280, Note_on_c, 0, 53, 36
1, 35280, Note_on_c, 0, 57, 36
1, 35310, Note_on_c, 0, 74, 0
1, 35400, Note_on_c, 0, 74, 37
1, 35490, Note_on_c, 0, 74, 0
1, 35490, Note_on_c, 0, 76, 37
1, 35520, Note_on_c, 0, 76, 0
1, 35520, Note_on_c, 0, 72, 37
1, 35520, Note_on_c, 0, 53, 0
1, 35520, Note_on_c, 0, 54, 39
1, 35610, Note_on_c, 0, 72, 0
1, 35610, Note_on_c, 0, 74, 37
1, 35640, Note_on_c, 0, 74, 0
1, 35640, Note_on_c, 0, 67, 37
1, 35640, Note_on_c, 0, 71, 37
1, 35640, Note_on_c, 0, 54, 0
1, 35640, Note_on_c, 0, 57, 0
1, 35640, Note_on_c, 0, 55, 36
1, 35730, Note_on_c, 0, 71, 0
1, 35730, Note_on_c, 0, 67, 0
1, 35730, Note_on_c, 0, 74, 37
1, 35760, Note_on_c, 0, 74, 0
1, 35760, Note_on_c, 0, 69, 37
1, 35760, Note_on_c, 0, 72, 37
1, 35760, Note_on_c, 0, 55, 0
1, 35850, Note_on_c, 0, 72, 0
1, 35850, Note_on_c, 0, 69, 0
1, 35850, Note_on_c, 0, 76, 37
1, 35880, Note_on_c, 0, 76, 0
1, 35880, Note_on_c, 0, 71, 37
1, 35880, Note_on_c, 0, 74, 37
1, 35970, Note_on_c, 0, 74, 0
1, 35970, Note_on_c, 0, 71, 0
1, 35970, Note_on_c, 0, 77, 37
1, 36000, Note_on_c, 0, 77, 0
1, 36000, Note_on_c, 0, 72, 39
1, 36000, Note_on_c, 0, 76, 39
1, 36120, Note_on_c, 0, 64, 35
1, 36120, Note_on_c, 0, 60, 35
1, 36210, Note_on_c, 0, 76, 0
1, 36210, Note_on_c, 0, 77, 39
1, 36240, Note_on_c, 0, 77, 0
1, 36240, Note_on_c, 0, 72, 0
1, 36240, Note_on_c, 0, 74, 39
1, 36240, Note_on_c, 0, 60, 0
1, 36240, Note_on_c, 0, 64, 0
1, 36240, Note_on_c, 0, 55, 34
1, 36240, Note_on_c, 0, 65, 34
1, 36300, Note_on_c, 0, 65, 0
1, 36300, Note_on_c, 0, 55, 0
1, 36330, Note_on_c, 0, 74, 0
1, 36330, Note_on_c, 0, 76, 39
1, 36360, Note_on_c, 0, 76, 0
1, 36360, Note_on_c, 0, 72, 34
1, 36360, Note_on_c, 0, 64, 32
1, 36360, Note_on_c, 0, 60, 32
1, 36480, Note_on_c, 0, 72, 0
1, 36480, Note_on_c, 0, 79, 39
1, 36480, Note_on_c, 0, 60, 0
1, 36480, Note_on_c, 0, 64, 0
1, 36510, Note_on_c, 0, 79, 0
1, 36600, Note_on_c, 0, 79, 34
1, 36630, Note_on_c, 0, 79, 0
1, 36720, Note_on_c, 0, 79, 41
1, 36720, Note_on_c, 0, 59, 35
1, 36720, Note_on_c, 0, 67, 35
1, 36780, Note_on_c, 0, 79, 0
1, 36780, Note_on_c, 0, 77, 40
1, 36840, Note_on_c, 0, 77, 0
1, 36840, Note_on_c, 0, 77, 39
1, 36900, Note_on_c, 0, 77, 0
1, 36900, Note_on_c, 0, 76, 37
1, 36960, Note_on_c, 0, 76, 0
1, 36960, Note_on_c, 0, 76, 36
1, 36960, Note_on_c, 0, 59, 0
1, 36960, Note_on_c, 0, 60, 33
1, 37020, Note_on_c, 0, 76, 0
1, 37020, Note_on_c, 0, 74, 34
1, 37080, Note_on_c, 0, 74, 0
1, 37080, Note_on_c, 0, 74, 34
1, 37080, Note_on_c, 0, 60, 0
1, 37080, Note_on_c, 0, 55, 32
1, 37110, Note_on_c, 0, 74, 0
1, 37200, Note_on_c, 0, 71, 34
1, 37200, Note_on_c, 0, 55, 0
1, 37200, Note_on_c, 0, 67, 0
1, 37230, Note_on_c, 0, 71, 0
1, 37320, Note_on_c, 0, 67, 34
1, 37350, Note_on_c, 0, 67, 0
1, 37440, Note_on_c, 0, 76, 39
1, 37560, Note_on_c, 0, 67, 34
1, 37560, Note_on_c, 0, 60, 34
1, 37650, Note_on_c, 0, 76, 0
1, 37650, Note_on_c, 0, 77, 39
1, 37680, Note_on_c, 0, 77, 0
1, 37680, Note_on_c, 0, 74, 39
1, 37680, Note_on_c, 0, 60, 0
1, 37680, Note_on_c, 0, 67, 0
1, 37680, Note_on_c, 0, 65, 33
1, 37680, Note_on_c, 0, 67, 33
1, 37740, Note_on_c, 0, 67, 0
1, 37740, Note_on_c, 0, 65, 0
1, 37770, Note_on_c, 0, 74, 0
1, 37770, Note_on_c, 0, 76, 39
1, 37800, Note_on_c, 0, 76, 0
1, 37800, Note_on_c, 0, 72, 33
1, 37800, Note_on_c, 0, 64, 32
1, 37800, Note_on_c, 0, 67, 32
1, 37920, Note_on_c, 0, 72, 0
1, 37920, Note_on_c, 0, 84, 38
1, 37920, Note_on_c, 0, 67, 0
1, 37920, Note_on_c, 0, 64, 0
1, 37950, Note_on_c, 0, 84, 0
1, 38040, Note_on_c, 0, 84, 34
1, 38040, Note_on_c, 0, 52, 35
1, 38040, Note_on_c, 0, 60, 35
1, 38070, Note_on_c, 0, 84, 0
1, 38100, Note_on_c, 0, 60, 0
1, 38100, Note_on_c, 0, 52, 0
1, 38160, Note_on_c, 0, 80, 40
1, 38160, Note_on_c, 0, 60, 34
1, 38160, Note_on_c, 0, 53, 34
1, 38190, Note_on_c, 0, 80, 0
1, 38190, Note_on_c, 0, 81, 40
1, 38220, Note_on_c, 0, 81, 0
1, 38280, Note_on_c, 0, 76, 39
1, 38280, Note_on_c, 0, 53, 0
1, 38280, Note_on_c, 0, 60, 0
1, 38310, Note_on_c, 0, 76, 0
1, 38310, Note_on_c, 0, 77, 38
1, 38340, Note_on_c, 0, 77, 0
1, 38400, Note_on_c, 0, 74, 36
1, 38400, Note_on_c, 0, 65, 32
1, 38400, Note_on_c, 0, 55, 32
1, 38430, Note_on_c, 0, 74, 0
1, 38430, Note_on_c, 0, 71, 34
1, 38460, Note_on_c, 0, 71, 0
1, 38460, Note_on_c, 0, 55, 0
1, 38460, Note_on_c, 0, 65, 0
1, 38520, Note_on_c, 0, 72, 34
1, 38520, Note_on_c, 0, 60, 32
1, 38520, Note_on_c, 0, 64, 32
1, 38640, Note_on_c, 0, 72, 0
1, 38640, Note_on_c, 0, 64, 0
1, 38640, Note_on_c, 0, 60, 0
1, 38880, Note_on_c, 0, 72, 39
1, 38880, Note_on_c, 0, 36, 40
1, 38940, Note_on_c, 0, 36, 0
1, 38940, Note_on_c, 0, 48, 40
1, 39000, Note_on_c, 0, 72, 0
1, 39000, Note_on_c, 0, 71, 39
1, 39000, Note_on_c, 0, 48, 0
1, 39000, Note_on_c, 0, 38, 41
1, 39060, Note_on_c, 0, 38, 0
1, 39060, Note_on_c, 0, 50, 41
1, 39120, Note_on_c, 0, 71, 0
1, 39120, Note_on_c, 0, 72, 39
1, 39120, Note_on_c, 0, 50, 0
1, 39120, Note_on_c, 0, 39, 42
1, 39180, Note_on_c, 0, 39, 0
1, 39180, Note_on_c, 0, 51, 42
1, 39240, Note_on_c, 0, 72, 0
1, 39240, Note_on_c, 0, 72, 38
1, 39240, Note_on_c, 0, 74, 38
1, 39240, Note_on_c, 0, 51, 0
1, 39240, Note_on_c, 0, 41, 43
1, 39300, Note_on_c, 0, 41, 0
1, 39300, Note_on_c, 0, 53, 43
1, 39360, Note_on_c, 0, 74, 0
1, 39360, Note_on_c, 0, 75, 40
1, 39360, Note_on_c, 0, 53, 0
1, 39360, Note_on_c, 0, 43, 44
1, 39420, Note_on_c, 0, 43, 0
1, 39420, Note_on_c, 0, 55, 44
1, 39480, Note_on_c, 0, 75, 0
1, 39480, Note_on_c, 0, 77, 42
1, 39480, Note_on_c, 0, 55, 0
1, 39480, Note_on_c, 0, 44, 45
1, 39540, Note_on_c, 0, 44, 0
1, 39540, Note_on_c, 0, 56, 45
1, 39600, Note_on_c, 0, 77, 0
1, 39600, Note_on_c, 0, 72, 0
1, 39600, Note_on_c, 0, 72, 44
1, 39600, Note_on_c, 0, 75, 44
1, 39600, Note_on_c, 0, 56, 0
1, 39600, Note_on_c, 0, 43, 46
1, 39660, Note_on_c, 0, 43, 0
1, 39660, Note_on_c, 0, 55, 46
1, 39720, Note_on_c, 0, 75, 0
1, 39720, Note_on_c, 0, 72, 0
1, 39720, Note_on_c, 0, 71, 45
1, 39720, Note_on_c, 0, 74, 45
1, 39720, Note_on_c, 0, 55, 0
1, 39720, Note_on_c, 0, 45, 47
1, 39780, Note_on_c, 0, 45, 0
1, 39780, Note_on_c, 0, 57, 47
1, 39840, Note_on_c, 0, 74, 0
1, 39840, Note_on_c, 0, 71, 0
1, 39840, Note_on_c, 0, 67, 47
1, 39840, Note_on_c, 0, 79, 47
1, 39840, Note_on_c, 0, 57, 0
1, 39840, Note_on_c, 0, 47, 48
1, 39900, Note_on_c, 0, 47, 0
1, 39900, Note_on_c, 0, 59, 48
1, 39960, Note_on_c, 0, 79, 0
1, 39960, Note_on_c, 0, 67, 0
1, 39960, Note_on_c, 0, 74, 48
1, 39960, Note_on_c, 0, 77, 48
1, 39960, Note_on_c, 0, 59, 0
1, 39960, Note_on_c, 0, 48, 49
1, 40020, Note_on_c, 0, 48, 0
1, 40020, Note_on_c, 0, 60, 49
1, 40080, Note_on_c, 0, 77, 0
1, 40080, Note_on_c, 0, 74, 0
1, 40080, Note_on_c, 0, 72, 48
1, 40080, Note_on_c, 0, 75, 48
1, 40080, Note_on_c, 0, 60, 0
1, 40080, Note_on_c, 0, 51, 50
1, 40140, Note_on_c, 0, 51, 0
1, 40140, Note_on_c, 0, 63, 50
1, 40200, Note_on_c, 0, 75, 0
1, 40200, Note_on_c, 0, 72, 0
1, 40200, Note_on_c, 0, 71, 48
1, 40200, Note_on_c, 0, 74, 48
1, 40200, Note_on_c, 0, 63, 0
1, 40200, Note_on_c, 0, 55, 51
1, 40260, Note_on_c, 0, 55, 0
1, 40260, Note_on_c, 0, 67, 51
1, 40320, Note_on_c, 0, 74, 0
1, 40320, Note_on_c, 0, 71, 0
1, 40320, Note_on_c, 0, 72, 36
1, 40320, Note_on_c, 0, 67, 0
1, 40320, Note_on_c, 0, 56, 39
1, 40320, Note_on_c, 0, 68, 39
1, 40380, Note_on_c, 0, 72, 0
1, 40380, Note_on_c, 0, 77, 39
1, 40440, Note_on_c, 0, 77, 0
1, 40440, Note_on_c, 0, 76, 43
1, 40500, Note_on_c, 0, 76, 0
1, 40500, Note_on_c, 0, 79, 46
1, 40560, Note_on_c, 0, 79, 0
1, 40560, Note_on_c, 0, 77, 50
1, 40620, Note_on_c, 0, 77, 0
1, 40620, Note_on_c, 0, 84, 53
1, 40680, Note_on_c, 0, 84, 0
1, 40680, Note_on_c, 0, 82, 52
1, 40680, Note_on_c, 0, 68, 0
1, 40680, Note_on_c, 0, 56, 0
1, 40680, Note_on_c, 0, 65, 39
1, 40680, Note_on_c, 0, 58, 39
1, 40680, Note_on_c, 0, 56, 39
1, 40740, Note_on_c, 0, 82, 0
1, 40740, Note_on_c, 0, 74, 49
1, 40800, Note_on_c, 0, 74, 0
1, 40800, Note_on_c, 0, 77, 46
1, 40860, Note_on_c, 0, 77, 0
1, 40860, Note_on_c, 0, 74, 43
1, 40920, Note_on_c, 0, 74, 0
1, 40920, Note_on_c, 0, 75, 40
1, 40920, Note_on_c, 0, 56, 0
1, 40920, Note_on_c, 0, 58, 0
1, 40920, Note_on_c, 0, 65, 0
1, 40920, Note_on_c, 0, 55, 39
1, 40920, Note_on_c, 0, 63, 39
1, 40980, Note_on_c, 0, 75, 0
1, 40980, Note_on_c, 0, 82, 53
1, 40980, Note_on_c, 0, 63, 0
1, 40980, Note_on_c, 0, 55, 0
1, 41040, Note_on_c, 0, 82, 0
1, 41040, Note_on_c, 0, 72, 52
1, 41040, Note_on_c, 0, 56, 45
1, 41100, Note_on_c, 0, 72, 0
1, 41100, Note_on_c, 0, 80, 51
1, 41100, Note_on_c, 0, 56, 0
1, 41160, Note_on_c, 0, 80, 0
1, 41160, Note_on_c, 0, 79, 49
1, 41160, Note_on_c, 0, 58, 44
1, 41220, Note_on_c, 0, 79, 0
1, 41220, Note_on_c, 0, 75, 48
1, 41220, Note_on_c, 0, 58, 0
1, 41280, Note_on_c, 0, 75, 0
1, 41280, Note_on_c, 0, 77, 46
1, 41280, Note_on_c, 0, 46, 43
1, 41340, Note_on_c, 0, 77, 0
1, 41340, Note_on_c, 0, 74, 45
1, 41340, Note_on_c, 0, 46, 0
1, 41400, Note_on_c, 0, 74, 0
1, 41400, Note_on_c, 0, 75, 44
1, 41400, Note_on_c, 0, 51, 43
1, 41460, Note_on_c, 0, 51, 0
1, 41520, Note_on_c, 0, 75, 0
1, 41520, Note_on_c, 0, 55, 45
1, 41580, Note_on_c, 0, 55, 0
1, 41580, Note_on_c, 0, 53, 47
1, 41640, Note_on_c, 0, 53, 0
1, 41640, Note_on_c, 0, 51, 44
1, 41700, Note_on_c, 0, 51, 0
1, 41700, Note_on_c, 0, 50, 40
1, 41760, Note_on_c, 0, 72, 39
1, 41760, Note_on_c, 0, 50, 0
1, 41760, Note_on_c, 0, 36, 40
1, 41820, Note_on_c, 0, 36, 0
1, 41820, Note_on_c, 0, 48, 40
1, 41880, Note_on_c, 0, 72, 0
1, 41880, Note_on_c, 0, 71, 39
1, 41880, Note_on_c, 0, 48, 0
1, 41880, Note_on_c, 0, 38, 41
1, 41940, Note_on_c, 0, 38, 0
1, 41940, Note_on_c, 0, 50, 41
1, 42000, Note_on_c, 0, 71, 0
1, 42000, Note_on_c, 0, 72, 39
1, 42000, Note_on_c, 0, 50, 0
1, 42000, Note_on_c, 0, 39, 42
1, 42060, Note_on_c, 0, 39, 0
1, 42060, Note_on_c, 0, 51, 42
1, 42120, Note_on_c, 0, 72, 0
1, 42120, Note_on_c, 0, 72, 38
1, 42120, Note_on_c, 0, 74, 38
1, 42120, Note_on_c, 0, 51, 0
1, 42120, Note_on_c, 0, 41, 43
1, 42180, Note_on_c, 0, 41, 0
1, 42180, Note_on_c, 0, 53, 43
1, 42240, Note_on_c, 0, 74, 0
1, 42240, Note_on_c, 0, 75, 40
1, 42240, Note_on_c, 0, 53, 0
1, 42240, Note_on_c, 0, 43, 44
1, 42300, Note_on_c, 0, 43, 0
1, 42300, Note_on_c, 0, 55, 44
1, 42360, Note_on_c, 0, 75, 0
1, 42360, Note_on_c, 0, 77, 42
1, 42360, Note_on_c, 0, 55, 0
1, 42360, Note_on_c, 0, 44, 45
1, 42420, Note_on_c, 0, 44, 0
1, 42420, Note_on_c, 0, 56, 45
1, 42480, Note_on_c, 0, 77, 0
1, 42480, Note_on_c, 0, 72, 0
1, 42480, Note_on_c, 0, 72, 44
1, 42480, Note_on_c, 0, 75, 44
1, 42480, Note_on_c, 0, 56, 0
1, 42480, Note_on_c, 0, 43, 46
1, 42540, Note_on_c, 0, 43, 0
1, 42540, Note_on_c, 0, 55, 46
1, 42600, Note_on_c, 0, 75, 0
1, 42600, Note_on_c, 0, 72, 0
1, 42600, Note_on_c, 0, 71, 45
1, 42600, Note_on_c, 0, 74, 45
1, 42600, Note_on_c, 0, 55, 0
1, 42600, Note_on_c, 0, 45, 47
1, 42660, Note_on_c, 0, 45, 0
1, 42660, Note_on_c, 0, 57, 47
1, 42720, Note_on_c, 0, 74, 0
1, 42720, Note_on_c, 0, 71, 0
1, 42720, Note_on_c, 0, 67, 47
1, 42720, Note_on_c, 0, 79, 47
1, 42720, Note_on_c, 0, 57, 0
1, 42720, Note_on_c, 0, 47, 48
1, 42780, Note_on_c, 0, 47, 0
1, 42780, Note_on_c, 0, 59, 48
1, 42840, Note_on_c, 0, 79, 0
1, 42840, Note_on_c, 0, 67, 0
1, 42840, Note_on_c, 0, 74, 48
1, 42840, Note_on_c, 0, 77, 48
1, 42840, Note_on_c, 0, 59, 0
1, 42840, Note_on_c, 0, 48, 49
1, 42900, Note_on_c, 0, 48, 0
1, 42900, Note_on_c, 0, 60, 49
1, 42960, Note_on_c, 0, 77, 0
1, 42960, Note_on_c, 0, 74, 0
1, 42960, Note_on_c, 0, 72, 48
1, 42960, Note_on_c, 0, 75, 48
1, 42960, Note_on_c, 0, 60, 0
1, 42960, Note_on_c, 0, 51, 50
1, 43020, Note_on_c, 0, 51, 0
1, 43020, Note_on_c, 0, 63, 50
1, 43080, Note_on_c, 0, 75, 0
1, 43080, Note_on_c, 0, 72, 0
1, 43080, Note_on_c, 0, 71, 48
1, 43080, Note_on_c, 0, 74, 48
1, 43080, Note_on_c, 0, 63, 0
1, 43080, Note_on_c, 0, 55, 51
1, 43140, Note_on_c, 0, 55, 0
1, 43140, Note_on_c, 0, 67, 51
1, 43200, Note_on_c, 0, 74, 0
1, 43200, Note_on_c, 0, 71, 0
1, 43200, Note_on_c, 0, 72, 36
1, 43200, Note_on_c, 0, 67, 0
1, 43200, Note_on_c, 0, 56, 39
1, 43200, Note_on_c, 0, 68, 39
1, 43260, Note_on_c, 0, 72, 0
1, 43260, Note_on_c, 0, 77, 39
1, 43320, Note_on_c, 0, 77, 0
1, 43320, Note_on_c, 0, 76, 43
1, 43380, Note_on_c, 0, 76, 0
1, 43380, Note_on_c, 0, 79, 46
1, 43440, Note_on_c, 0, 79, 0
1, 43440, Note_on_c, 0, 77, 50
1, 43500, Note_on_c, 0, 77, 0
1, 43500, Note_on_c, 0, 84, 53
1, 43560, Note_on_c, 0, 84, 0
1, 43560, Note_on_c, 0, 82, 52
1, 43560, Note_on_c, 0, 68, 0
1, 43560, Note_on_c, 0, 56, 0
1, 43560, Note_on_c, 0, 65, 39
1, 43560, Note_on_c, 0, 58, 39
1, 43560, Note_on_c, 0, 56, 39
1, 43620, Note_on_c, 0, 82, 0
1, 43620, Note_on_c, 0, 74, 49
1, 43680, Note_on_c, 0, 74, 0
1, 43680, Note_on_c, 0, 77, 46
1, 43740, Note_on_c, 0, 77, 0
1, 43740, Note_on_c, 0, 74, 43
1, 43800, Note_on_c, 0, 74, 0
1, 43800, Note_on_c, 0, 75, 40
1, 43800, Note_on_c, 0, 56, 0
1, 43800, Note_on_c, 0, 58, 0
1, 43800, Note_on_c, 0, 65, 0
1, 43800, Note_on_c, 0, 55, 39
1, 43800, Note_on_c, 0, 63, 39
1, 43860, Note_on_c, 0, 75, 0
1, 43860, Note_on_c, 0, 82, 53
1, 43860, Note_on_c, 0, 63, 0
1, 43860, Note_on_c, 0, 55, 0
1, 43920, Note_on_c, 0, 82, 0
1, 43920, Note_on_c, 0, 72, 52
1, 43920, Note_on_c, 0, 56, 45
1, 43980, Note_on_c, 0, 72, 0
1, 43980, Note_on_c, 0, 80, 51
1, 43980, Note_on_c, 0, 56, 0
1, 44040, Note_on_c, 0, 80, 0
1, 44040, Note_on_c, 0, 79, 49
1, 44040, Note_on_c, 0, 58, 44
1, 44100, Note_on_c, 0, 79, 0
1, 44100, Note_on_c, 0, 75, 48
1, 44100, Note_on_c, 0, 58, 0
1, 44160, Note_on_c, 0, 75, 0
1, 44160, Note_on_c, 0, 77, 46
1, 44160, Note_on_c, 0, 46, 43
1, 44220, Note_on_c, 0, 77, 0
1, 44220, Note_on_c, 0, 74, 45
1, 44220, Note_on_c, 0, 46, 0
1, 44280, Note_on_c, 0, 74, 0
1, 44280, Note_on_c, 0, 75, 44
1, 44280, Note_on_c, 0, 51, 43
1, 44340, Note_on_c, 0, 51, 0
1, 44400, Note_on_c, 0, 75, 0
1, 44400, Note_on_c, 0, 46, 39
1, 44460, Note_on_c, 0, 46, 0
1, 44520, Note_on_c, 0, 39, 37
1, 44580, Note_on_c, 0, 39, 0
1, 44640, Note_on_c, 0, 67, 46
1, 44640, Note_on_c, 0, 79, 46
1, 44640, Note_on_c, 0, 63, 37
1, 44700, Note_on_c, 0, 79, 0
1, 44700, Note_on_c, 0, 78, 45
1, 44700, Note_on_c, 0, 63, 0
1, 44700, Note_on_c, 0, 62, 37
1, 44760, Note_on_c, 0, 78, 0
1, 44760, Note_on_c, 0, 79, 44
1, 44760, Note_on_c, 0, 62, 0
1, 44760, Note_on_c, 0, 63, 37
1, 44820, Note_on_c, 0, 79, 0
1, 44820, Note_on_c, 0, 75, 43
1, 44820, Note_on_c, 0, 63, 0
1, 44820, Note_on_c, 0, 60, 37
1, 44880, Note_on_c, 0, 75, 0
1, 44880, Note_on_c, 0, 74, 41
1, 44880, Note_on_c, 0, 60, 0
1, 44880, Note_on_c, 0, 62, 39
1, 44940, Note_on_c, 0, 74, 0
1, 44940, Note_on_c, 0, 72, 40
1, 44940, Note_on_c, 0, 62, 0
1, 44940, Note_on_c, 0, 63, 41
1, 45000, Note_on_c, 0, 72, 0
1, 45000, Note_on_c, 0, 67, 0
1, 45000, Note_on_c, 0, 68, 46
1, 45000, Note_on_c, 0, 71, 46
1, 45000, Note_on_c, 0, 63, 0
1, 45000, Note_on_c, 0, 65, 44
1, 45060, Note_on_c, 0, 68, 0
1, 45060, Note_on_c, 0, 67, 45
1, 45060, Note_on_c, 0, 65, 0
1, 45060, Note_on_c, 0, 64, 43
1, 45120, Note_on_c, 0, 67, 0
1, 45120, Note_on_c, 0, 68, 43
1, 45120, Note_on_c, 0, 64, 0
1, 45120, Note_on_c, 0, 65, 41
1, 45180, Note_on_c, 0, 68, 0
1, 45180, Note_on_c, 0, 65, 42
1, 45180, Note_on_c, 0, 65, 0
1, 45180, Note_on_c, 0, 62, 40
1, 45240, Note_on_c, 0, 65, 0
1, 45240, Note_on_c, 0, 67, 40
1, 45240, Note_on_c, 0, 62, 0
1, 45240, Note_on_c, 0, 63, 38
1, 45300, Note_on_c, 0, 67, 0
1, 45300, Note_on_c, 0, 68, 39
1, 45300, Note_on_c, 0, 63, 0
1, 45300, Note_on_c, 0, 65, 37
1, 45360, Note_on_c, 0, 68, 0
1, 45360, Note_on_c, 0, 71, 0
1, 45360, Note_on_c, 0, 67, 40
1, 45360, Note_on_c, 0, 79, 40
1, 45360, Note_on_c, 0, 65, 0
1, 45360, Note_on_c, 0, 63, 34
1, 45420, Note_on_c, 0, 79, 0
1, 45420, Note_on_c, 0, 78, 40
1, 45420, Note_on_c, 0, 63, 0
1, 45420, Note_on_c, 0, 62, 34
1, 45480, Note_on_c, 0, 78, 0
1, 45480, Note_on_c, 0, 79, 39
1, 45480, Note_on_c, 0, 62, 0
1, 45480, Note_on_c, 0, 63, 34
1, 45540, Note_on_c, 0, 79, 0
1, 45540, Note_on_c, 0, 75, 39
1, 45540, Note_on_c, 0, 63, 0
1, 45540, Note_on_c, 0, 60, 34
1, 45600, Note_on_c, 0, 75, 0
1, 45600, Note_on_c, 0, 74, 38
1, 45600, Note_on_c, 0, 60, 0
1, 45600, Note_on_c, 0, 62, 36
1, 45660, Note_on_c, 0, 74, 0
1, 45660, Note_on_c, 0, 72, 38
1, 45660, Note_on_c, 0, 62, 0
1, 45660, Note_on_c, 0, 63, 39
1, 45720, Note_on_c, 0, 72, 0
1, 45720, Note_on_c, 0, 67, 0
1, 45720, Note_on_c, 0, 68, 43
1, 45720, Note_on_c, 0, 71, 43
1, 45720, Note_on_c, 0, 63, 0
1, 45720, Note_on_c, 0, 65, 42
1, 45780, Note_on_c, 0, 68, 0
1, 45780, Note_on_c, 0, 67, 43
1, 45780, Note_on_c, 0, 65, 0
1, 45780, Note_on_c, 0, 64, 42
1, 45840, Note_on_c, 0, 67, 0
1, 45840, Note_on_c, 0, 68, 42
1, 45840, Note_on_c, 0, 64, 0
1, 45840, Note_on_c, 0, 65, 40
1, 45900, Note_on_c, 0, 68, 0
1, 45900, Note_on_c, 0, 65, 41
1, 45900, Note_on_c, 0, 65, 0
1, 45900, Note_on_c, 0, 62, 39
1, 45960, Note_on_c, 0, 65, 0
1, 45960, Note_on_c, 0, 67, 40
1, 45960, Note_on_c, 0, 62, 0
1, 45960, Note_on_c, 0, 63, 37
1, 46020, Note_on_c, 0, 67, 0
1, 46020, Note_on_c, 0, 68, 39
1, 46020, Note_on_c, 0, 63, 0
1, 46020, Note_on_c, 0, 65, 36
1, 46080, Note_on_c, 0, 68, 0
1, 46080, Note_on_c, 0, 71, 0
1, 46080, Note_on_c, 0, 72, 42
1, 46080, Note_on_c, 0, 67, 42
1, 46080, Note_on_c, 0, 65, 0
1, 46080, Note_on_c, 0, 63, 43
1, 46140, Note_on_c, 0, 67, 0
1, 46140, Note_on_c, 0, 65, 41
1, 46140, Note_on_c, 0, 63, 0
1, 46140, Note_on_c, 0, 62, 41
1, 46200, Note_on_c, 0, 65, 0
1, 46200, Note_on_c, 0, 67, 40
1, 46200, Note_on_c, 0, 62, 0
1, 46200, Note_on_c, 0, 63, 40
1, 46260, Note_on_c, 0, 67, 0
1, 46260, Note_on_c, 0, 63, 39
1, 46260, Note_on_c, 0, 63, 0
1, 46260, Note_on_c, 0, 60, 39
1, 46320, Note_on_c, 0, 63, 0
1, 46320, Note_on_c, 0, 65, 38
1, 46320, Note_on_c, 0, 60, 0
1, 46320, Note_on_c, 0, 62, 38
1, 46380, Note_on_c, 0, 65, 0
1, 46380, Note_on_c, 0, 67, 37
1, 46380, Note_on_c, 0, 62, 0
1, 46380, Note_on_c, 0, 63, 37
1, 46440, Note_on_c, 0, 67, 0
1, 46440, Note_on_c, 0, 72, 0
1, 46440, Note_on_c, 0, 74, 45
1, 46440, Note_on_c, 0, 63, 0
1, 46440, Note_on_c, 0, 59, 43
1, 46500, Note_on_c, 0, 74, 0
1, 46500, Note_on_c, 0, 75, 45
1, 46500, Note_on_c, 0, 59, 0
1, 46500, Note_on_c, 0, 60, 44
1, 46560, Note_on_c, 0, 75, 0
1, 46560, Note_on_c, 0, 77, 45
1, 46560, Note_on_c, 0, 60, 0
1, 46560, Note_on_c, 0, 62, 44
1, 46620, Note_on_c, 0, 77, 0
1, 46620, Note_on_c, 0, 74, 45
1, 46620, Note_on_c, 0, 62, 0
1, 46620, Note_on_c, 0, 59, 44
1, 46680, Note_on_c, 0, 74, 0
1, 46680, Note_on_c, 0, 75, 45
1, 46680, Note_on_c, 0, 59, 0
1, 46680, Note_on_c, 0, 60, 44
1, 46740, Note_on_c, 0, 75, 0
1, 46740, Note_on_c, 0, 72, 45
1, 46740, Note_on_c, 0, 60, 0
1, 46740, Note_on_c, 0, 57, 44
1, 46800, Note_on_c, 0, 72, 0
1, 46800, Note_on_c, 0, 67, 45
1, 46800, Note_on_c, 0, 79, 45
1, 46800, Note_on_c, 0, 57, 0
1, 46800, Note_on_c, 0, 55, 44
1, 47280, Note_on_c, 0, 67, 0
1, 47280, Note_on_c, 0, 55, 0
1, 47370, Note_on_c, 0, 79, 0
1, 47370, Note_on_c, 0, 81, 38
1, 47400, Note_on_c, 0, 81, 0
1, 47400, Note_on_c, 0, 77, 38
1, 47490, Note_on_c, 0, 77, 0
1, 47490, Note_on_c, 0, 79, 38
1, 47520, Note_on_c, 0, 79, 0
1, 47520, Note_on_c, 0, 76, 47
1, 47640, Note_on_c, 0, 67, 42
1, 47640, Note_on_c, 0, 60, 42
1, 47730, Note_on_c, 0, 76, 0
1, 47730, Note_on_c, 0, 77, 47
1, 47760, Note_on_c, 0, 77, 0
1, 47760, Note_on_c, 0, 74, 47
1, 47760, Note_on_c, 0, 60, 0
1, 47760, Note_on_c, 0, 67, 0
1, 47760, Note_on_c, 0, 65, 40
1, 47760, Note_on_c, 0, 67, 40
1, 47820, Note_on_c, 0, 67, 0
1, 47820, Note_on_c, 0, 65, 0
1, 47850, Note_on_c, 0, 74, 0
1, 47850, Note_on_c, 0, 76, 47
1, 47880, Note_on_c, 0, 76, 0
1, 47880, Note_on_c, 0, 72, 41
1, 47880, Note_on_c, 0, 67, 38
1, 47880, Note_on_c, 0, 64, 38
1, 48000, Note_on_c, 0, 72, 0
1, 48000, Note_on_c, 0, 79, 46
1, 48000, Note_on_c, 0, 64, 0
1, 48000, Note_on_c, 0, 67, 0
1, 48030, Note_on_c, 0, 79, 0
1, 48120, Note_on_c, 0, 79, 40
1, 48150, Note_on_c, 0, 79, 0
1, 48240, Note_on_c, 0, 79, 49
1, 48240, Note_on_c, 0, 59, 42
1, 48240, Note_on_c, 0, 67, 42
1, 48300, Note_on_c, 0, 79, 0
1, 48300, Note_on_c, 0, 77, 48
1, 48360, Note_on_c, 0, 77, 0
1, 48360, Note_on_c, 0, 77, 46
1, 48420, Note_on_c, 0, 77, 0
1, 48420, Note_on_c, 0, 76, 44
1, 48480, Note_on_c, 0, 76, 0
1, 48480, Note_on_c, 0, 76, 43
1, 48480, Note_on_c, 0, 59, 0
1, 48480, Note_on_c, 0, 60, 39
1, 48540, Note_on_c, 0, 76, 0
1, 48540, Note_on_c, 0, 74, 41
1, 48600, Note_on_c, 0, 74, 0
1, 48600, Note_on_c, 0, 74, 41
1, 48600, Note_on_c, 0, 60, 0
1, 48600, Note_on_c, 0, 55, 38
1, 48630, Note_on_c, 0, 74, 0
1, 48720, Note_on_c, 0, 71, 41
1, 48720, Note_on_c, 0, 55, 0
1, 48720, Note_on_c, 0, 67, 0
1, 48750, Note_on_c, 0, 71, 0
1, 48840, Note_on_c, 0, 67, 41
1, 48870, Note_on_c, 0, 67, 0
1, 48960, Note_on_c, 0, 76, 46
1, 49080, Note_on_c, 0, 67, 40
1, 49080, Note_on_c, 0, 60, 40
1, 49170, Note_on_c, 0, 76, 0
1, 49170, Note_on_c, 0, 77, 46
1, 49200, Note_on_c, 0, 77, 0
1, 49200, Note_on_c, 0, 74, 46
1, 49200, Note_on_c, 0, 60, 0
1, 49200, Note_on_c, 0, 67, 0
1, 49200, Note_on_c, 0, 65, 39
1, 49200, Note_on_c, 0, 67, 39
1, 49260, Note_on_c, 0, 67, 0
1, 49260, Note_on_c, 0, 65, 0
1, 49290, Note_on_c, 0, 74, 0
1, 49290, Note_on_c, 0, 76, 46
1, 49320, Note_on_c, 0, 76, 0
1, 49320, Note_on_c, 0, 72, 39
1, 49320, Note_on_c, 0, 64, 38
1, 49320, Note_on_c, 0, 67, 38
1, 49440, Note_on_c, 0, 72, 0
1, 49440, Note_on_c, 0, 84, 45
1, 49440, Note_on_c, 0, 67, 0
1, 49440, Note_on_c, 0, 64, 0
1, 49470, Note_on_c, 0, 84, 0
1, 49560, Note_on_c, 0, 84, 40
1, 49560, Note_on_c, 0, 52, 42
1, 49560, Note_on_c, 0, 60, 42
1, 49590, Note_on_c, 0, 84, 0
1, 49620, Note_on_c, 0, 60, 0
1, 49620, Note_on_c, 0, 52, 0
1, 49680, Note_on_c, 0, 80, 48
1, 49680, Note_on_c, 0, 60, 40
1, 49680, Note_on_c, 0, 53, 40
1, 49710, Note_on_c, 0, 80, 0
1, 49710, Note_on_c, 0, 81, 48
1, 49740, Note_on_c, 0, 81, 0
1, 49800, Note_on_c, 0, 76, 46
1, 49800, Note_on_c, 0, 53, 0
1, 49800, Note_on_c, 0, 60, 0
1, 49830, Note_on_c, 0, 76, 0
1, 49830, Note_on_c, 0, 77, 45
1, 49860, Note_on_c, 0, 77, 0
1, 49920, Note_on_c, 0, 74, 43
1, 49920, Note_on_c, 0, 65, 38
1, 49920, Note_on_c, 0, 55, 38
1, 49950, Note_on_c, 0, 74, 0
1, 49950, Note_on_c, 0, 71, 41
1, 49980, Note_on_c, 0, 71, 0
1, 49980, Note_on_c, 0, 55, 0
1, 49980, Note_on_c, 0, 65, 0
1, 50040, Note_on_c, 0, 72, 41
1, 50040, Note_on_c, 0, 60, 38
1, 50040, Note_on_c, 0, 64, 38
1, 50160, Note_on_c, 0, 72, 0
1, 50160, Note_on_c, 0, 64, 0
1, 50160, Note_on_c, 0, 60, 0
1, 50400, Note_on_c, 0, 77, 42
1, 50520, Note_on_c, 0, 67, 39
1, 50520, Note_on_c, 0, 59, 39
1, 50610, Note_on_c, 0, 77, 0
1, 50610, Note_on_c, 0, 79, 42
1, 50640, Note_on_c, 0, 79, 0
1, 50640, Note_on_c, 0, 76, 42
1, 50640, Note_on_c, 0, 59, 0
1, 50640, Note_on_c, 0, 67, 0
1, 50640, Note_on_c, 0, 60, 39
1, 50640, Note_on_c, 0, 67, 39
1, 50700, Note_on_c, 0, 67, 0
1, 50700, Note_on_c, 0, 60, 0
1, 50730, Note_on_c, 0, 76, 0
1, 50730, Note_on_c, 0, 77, 42
1, 50760, Note_on_c, 0, 77, 0
1, 50760, Note_on_c, 0, 74, 41
1, 50760, Note_on_c, 0, 55, 39
1, 50760, Note_on_c, 0, 67, 39
1, 50790, Note_on_c, 0, 74, 0
1, 50880, Note_on_c, 0, 71, 39
1, 50880, Note_on_c, 0, 67, 0
1, 50880, Note_on_c, 0, 55, 0
1, 50910, Note_on_c, 0, 71, 0
1, 51000, Note_on_c, 0, 67, 37
1, 51030, Note_on_c, 0, 67, 0
1, 51120, Note_on_c, 0, 84, 48
1, 51240, Note_on_c, 0, 64, 46
1, 51240, Note_on_c, 0, 67, 46
1, 51330, Note_on_c, 0, 84, 0
1, 51330, Note_on_c, 0, 86, 47
1, 51360, Note_on_c, 0, 86, 0
1, 51360, Note_on_c, 0, 83, 47
1, 51360, Note_on_c, 0, 67, 0
1, 51360, Note_on_c, 0, 64, 0
1, 51360, Note_on_c, 0, 62, 44
1, 51360, Note_on_c, 0, 66, 44
1, 51420, Note_on_c, 0, 66, 0
1, 51420, Note_on_c, 0, 62, 0
1, 51450, Note_on_c, 0, 83, 0
1, 51450, Note_on_c, 0, 84, 47
1, 51480, Note_on_c, 0, 84, 0
1, 51480, Note_on_c, 0, 81, 41
1, 51600, Note_on_c, 0, 64, 41
1, 51600, Note_on_c, 0, 60, 41
1, 51690, Note_on_c, 0, 81, 0
1, 51690, Note_on_c, 0, 83, 41
1, 51720, Note_on_c, 0, 83, 0
1, 51720, Note_on_c, 0, 79, 41
1, 51720, Note_on_c, 0, 60, 0
1, 51720, Note_on_c, 0, 64, 0
1, 51720, Note_on_c, 0, 62, 39
1, 51720, Note_on_c, 0, 59, 39
1, 51780, Note_on_c, 0, 59, 0
1, 51780, Note_on_c, 0, 62, 0
1, 51810, Note_on_c, 0, 79, 0
1, 51810, Note_on_c, 0, 81, 41
1, 51840, Note_on_c, 0, 81, 0
1, 51840, Note_on_c, 0, 78, 41
1, 51840, Note_on_c, 0, 57, 46
1, 51840, Note_on_c, 0, 60, 46
1, 51930, Note_on_c, 0, 78, 0
1, 51930, Note_on_c, 0, 81, 47
1, 51960, Note_on_c, 0, 81, 0
1, 51960, Note_on_c, 0, 84, 49
1, 52050, Note_on_c, 0, 84, 0
1, 52050, Note_on_c, 0, 81, 42
1, 52080, Note_on_c, 0, 81, 0
1, 52080, Note_on_c, 0, 78, 39
1, 52080, Note_on_c, 0, 60, 0
1, 52080, Note_on_c, 0, 57, 0
1, 52080, Note_on_c, 0, 50, 39
1, 52140, Note_on_c, 0, 50, 0
1, 52170, Note_on_c, 0, 78, 0
1, 52170, Note_on_c, 0, 81, 47
1, 52200, Note_on_c, 0, 81, 0
1, 52200, Note_on_c, 0, 79, 42
1, 52200, Note_on_c, 0, 55, 35
1, 52290, Note_on_c, 0, 79, 0
1, 52290, Note_on_c, 0, 55, 0
1, 52290, Note_on_c, 0, 59, 40
1, 52320, Note_on_c, 0, 79, 42
1, 52320, Note_on_c, 0, 59, 0
1, 52320, Note_on_c, 0, 62, 42
1, 52410, Note_on_c, 0, 79, 0
1, 52410, Note_on_c, 0, 62, 0
1, 52410, Note_on_c, 0, 67, 48
1, 52440, Note_on_c, 0, 79, 42
1, 52440, Note_on_c, 0, 67, 0
1, 52440, Note_on_c, 0, 71, 50
1, 52530, Note_on_c, 0, 79, 0
1, 52530, Note_on_c, 0, 71, 0
1, 52530, Note_on_c, 0, 67, 41
1, 52560, Note_on_c, 0, 78, 47
1, 52560, Note_on_c, 0, 67, 0
1, 52560, Note_on_c, 0, 69, 48
1, 52560, Note_on_c, 0, 72, 48
1, 52650, Note_on_c, 0, 78, 0
1, 52650, Note_on_c, 0, 81, 52
1, 52680, Note_on_c, 0, 81, 0
1, 52680, Note_on_c, 0, 84, 53
1, 52770, Note_on_c, 0, 84, 0
1, 52770, Note_on_c, 0, 81, 47
1, 52800, Note_on_c, 0, 81, 0
1, 52800, Note_on_c, 0, 78, 44
1, 52800, Note_on_c, 0, 72, 0
1, 52800, Note_on_c, 0, 69, 0
1, 52800, Note_on_c, 0, 62, 41
1, 52890, Note_on_c, 0, 78, 0
1, 52890, Note_on_c, 0, 81, 51
1, 52920, Note_on_c, 0, 81, 0
1, 52920, Note_on_c, 0, 79, 45
1, 52920, Note_on_c, 0, 62, 0
1, 52920, Note_on_c, 0, 55, 52
1, 53010, Note_on_c, 0, 79, 0
1, 53010, Note_on_c, 0, 55, 0
1, 53010, Note_on_c, 0, 59, 49
1, 53040, Note_on_c, 0, 79, 44
1, 53040, Note_on_c, 0, 59, 0
1, 53040, Note_on_c, 0, 50, 48
1, 53130, Note_on_c, 0, 79, 0
1, 53130, Note_on_c, 0, 50, 0
1, 53130, Note_on_c, 0, 55, 45
1, 53160, Note_on_c, 0, 79, 42
1, 53160, Note_on_c, 0, 55, 0
1, 53160, Note_on_c, 0, 47, 44
1, 53250, Note_on_c, 0, 79, 0
1, 53250, Note_on_c, 0, 47, 0
1, 53250, Note_on_c, 0, 50, 41
1, 53280, Note_on_c, 0, 79, 40
1, 53280, Note_on_c, 0, 50, 0
1, 53280, Note_on_c, 0, 43, 40
1, 53400, Note_on_c, 0, 43, 0
1, 53440, Note_on_c, 0, 79, 0
1, 53440, Note_on_c, 0, 81, 36
1, 53480, Note_on_c, 0, 81, 0
1, 53480, Note_on_c, 0, 79, 36
1, 53520, Note_on_c, 0, 79, 0
1, 53520, Note_on_c, 0, 77, 36
1, 53560, Note_on_c, 0, 77, 0
1, 53560, Note_on_c, 0, 79, 36
1, 53600, Note_on_c, 0, 79, 0
1, 53600, Note_on_c, 0, 77, 36
1, 53640, Note_on_c, 0, 77, 0
1, 53640, Note_on_c, 0, 76, 36
1, 53760, Note_on_c, 0, 67, 42
1, 53760, Note_on_c, 0, 60, 42
1, 53800, Note_on_c, 0, 76, 0
1, 53800, Note_on_c, 0, 77, 36
1, 53840, Note_on_c, 0, 77, 0
1, 53840, Note_on_c, 0, 76, 36
1, 53880, Note_on_c, 0, 76, 0
1, 53880, Note_on_c, 0, 74, 36
1, 53880, Note_on_c, 0, 60, 0
1, 53880, Note_on_c, 0, 67, 0
1, 53880, Note_on_c, 0, 65, 40
1, 53880, Note_on_c, 0, 67, 40
1, 53920, Note_on_c, 0, 74, 0
1, 53920, Note_on_c, 0, 76, 36
1, 53940, Note_on_c, 0, 67, 0
1, 53940, Note_on_c, 0, 65, 0
1, 53960, Note_on_c, 0, 76, 0
1, 53960, Note_on_c, 0, 74, 36
1, 54000, Note_on_c, 0, 74, 0
1, 54000, Note_on_c, 0, 72, 36
1, 54000, Note_on_c, 0, 67, 38
1, 54000, Note_on_c, 0, 64, 38
1, 54030, Note_on_c, 0, 72, 0
1, 54060, Note_on_c, 0, 79, 40
1, 54090, Note_on_c, 0, 79, 0
1, 54120, Note_on_c, 0, 79, 41
1, 54120, Note_on_c, 0, 64, 0
1, 54120, Note_on_c, 0, 67, 0
1, 54150, Note_on_c, 0, 79, 0
1, 54180, Note_on_c, 0, 79, 39
1, 54210, Note_on_c, 0, 79, 0
1, 54240, Note_on_c, 0, 79, 37
1, 54270, Note_on_c, 0, 79, 0
1, 54300, Note_on_c, 0, 79, 35
1, 54330, Note_on_c, 0, 79, 0
1, 54360, Note_on_c, 0, 79, 44
1, 54360, Note_on_c, 0, 59, 42
1, 54360, Note_on_c, 0, 67, 42
1, 54420, Note_on_c, 0, 79, 0
1, 54420, Note_on_c, 0, 78, 43
1, 54480, Note_on_c, 0, 78, 0
1, 54480, Note_on_c, 0, 77, 41
1, 54540, Note_on_c, 0, 77, 0
1, 54540, Note_on_c, 0, 76, 40
1, 54600, Note_on_c, 0, 76, 0
1, 54600, Note_on_c, 0, 75, 38
1, 54600, Note_on_c, 0, 59, 0
1, 54600, Note_on_c, 0, 60, 39
1, 54660, Note_on_c, 0, 75, 0
1, 54660, Note_on_c, 0, 74, 37
1, 54720, Note_on_c, 0, 74, 0
1, 54720, Note_on_c, 0, 74, 44
1, 54720, Note_on_c, 0, 60, 0
1, 54720, Note_on_c, 0, 55, 38
1, 54750, Note_on_c, 0, 74, 0
1, 54840, Note_on_c, 0, 71, 40
1, 54840, Note_on_c, 0, 55, 0
1, 54840, Note_on_c, 0, 67, 0
1, 54870, Note_on_c, 0, 71, 0
1, 54960, Note_on_c, 0, 67, 36
1, 54990, Note_on_c, 0, 67, 0
1, 55080, Note_on_c, 0, 76, 40
1, 55200, Note_on_c, 0, 67, 40
1, 55200, Note_on_c, 0, 60, 40
1, 55240, Note_on_c, 0, 76, 0
1, 55240, Note_on_c, 0, 77, 40
1, 55280, Note_on_c, 0, 77, 0
1, 55280, Note_on_c, 0, 76, 40
1, 55320, Note_on_c, 0, 76, 0
1, 55320, Note_on_c, 0, 74, 40
1, 55320, Note_on_c, 0, 60, 0
1, 55320, Note_on_c, 0, 67, 0
1, 55320, Note_on_c, 0, 65, 39
1, 55320, Note_on_c, 0, 67, 39
1, 55360, Note_on_c, 0, 74, 0
1, 55360, Note_on_c, 0, 76, 40
1, 55380, Note_on_c, 0, 67, 0
1, 55380, Note_on_c, 0, 65, 0
1, 55400, Note_on_c, 0, 76, 0
1, 55400, Note_on_c, 0, 74, 40
1, 55440, Note_on_c, 0, 74, 0
1, 55440, Note_on_c, 0, 72, 41
1, 55440, Note_on_c, 0, 64, 38
1, 55440, Note_on_c, 0, 67, 38
1, 55480, Note_on_c, 0, 72, 0
1, 55480, Note_on_c, 0, 76, 43
1, 55520, Note_on_c, 0, 76, 0
1, 55520, Note_on_c, 0, 79, 45
1, 55560, Note_on_c, 0, 79, 0
1, 55560, Note_on_c, 0, 76, 47
1, 55560, Note_on_c, 0, 67, 0
1, 55560, Note_on_c, 0, 64, 0
1, 55600, Note_on_c, 0, 76, 0
1, 55600, Note_on_c, 0, 79, 49
1, 55640, Note_on_c, 0, 79, 0
1, 55640, Note_on_c, 0, 84, 51
1, 55680, Note_on_c, 0, 84, 0
1, 55680, Note_on_c, 0, 79, 53
1, 55680, Note_on_c, 0, 52, 48
1, 55680, Note_on_c, 0, 55, 48
1, 55720, Note_on_c, 0, 79, 0
1, 55720, Note_on_c, 0, 84, 56
1, 55740, Note_on_c, 0, 55, 0
1, 55740, Note_on_c, 0, 52, 0
1, 55760, Note_on_c, 0, 84, 0
1, 55760, Note_on_c, 0, 88, 58
1, 55800, Note_on_c, 0, 88, 0
1, 55800, Note_on_c, 0, 74, 50
1, 55800, Note_on_c, 0, 57, 48
1, 55800, Note_on_c, 0, 53, 48
1, 55860, Note_on_c, 0, 74, 0
1, 55920, Note_on_c, 0, 77, 50
1, 55920, Note_on_c, 0, 53, 0
1, 55920, Note_on_c, 0, 57, 0
1, 56010, Note_on_c, 0, 77, 0
1, 56010, Note_on_c, 0, 74, 50
1, 56040, Note_on_c, 0, 74, 0
1, 56040, Note_on_c, 0, 71, 50
1, 56040, Note_on_c, 0, 65, 48
1, 56040, Note_on_c, 0, 55, 48
1, 56100, Note_on_c, 0, 55, 0
1, 56100, Note_on_c, 0, 65, 0
1, 56130, Note_on_c, 0, 71, 0
1, 56130, Note_on_c, 0, 74, 50
1, 56160, Note_on_c, 0, 74, 0
1, 56160, Note_on_c, 0, 72, 41
1, 56160, Note_on_c, 0, 60, 48
1, 56160, Note_on_c, 0, 64, 48
1, 56200, Note_on_c, 0, 72, 0
1, 56200, Note_on_c, 0, 76, 43
1, 56240, Note_on_c, 0, 76, 0
1, 56240, Note_on_c, 0, 79, 45
1, 56280, Note_on_c, 0, 79, 0
1, 56280, Note_on_c, 0, 76, 47
1, 56280, Note_on_c, 0, 64, 0
1, 56280, Note_on_c, 0, 60, 0
1, 56320, Note_on_c, 0, 76, 0
1, 56320, Note_on_c, 0, 79, 49
1, 56360, Note_on_c, 0, 79, 0
1, 56360, Note_on_c, 0, 84, 51
1, 56400, Note_on_c, 0, 84, 0
1, 56400, Note_on_c, 0, 79, 53
1, 56400, Note_on_c, 0, 52, 48
1, 56400, Note_on_c, 0, 55, 48
1, 56440, Note_on_c, 0, 79, 0
1, 56440, Note_on_c, 0, 84, 56
1, 56460, Note_on_c, 0, 55, 0
1, 56460, Note_on_c, 0, 52, 0
1, 56480, Note_on_c, 0, 84, 0
1, 56480, Note_on_c, 0, 88, 58
1, 56520, Note_on_c, 0, 88, 0
1, 56520, Note_on_c, 0, 74, 50
1, 56520, Note_on_c, 0, 57, 48
1, 56520, Note_on_c, 0, 53, 48
1, 56580, Note_on_c, 0, 74, 0
1, 56640, Note_on_c, 0, 77, 50
1, 56640, Note_on_c, 0, 53, 0
1, 56640, Note_on_c, 0, 57, 0
1, 56730, Note_on_c, 0, 77, 0
1, 56730, Note_on_c, 0, 74, 50
1, 56760, Note_on_c, 0, 74, 0
1, 56760, Note_on_c, 0, 71, 50
1, 56760, Note_on_c, 0, 65, 48
1, 56760, Note_on_c, 0, 55, 48
1, 56820, Note_on_c, 0, 55, 0
1, 56820, Note_on_c, 0, 65, 0
1, 56850, Note_on_c, 0, 71, 0
1, 56850, Note_on_c, 0, 74, 50
1, 56880, Note_on_c, 0, 74, 0
1, 56880, Note_on_c, 0, 72, 52
1, 56880, Note_on_c, 0, 60, 48
1, 56880, Note_on_c, 0, 64, 48
1, 56910, Note_on_c, 0, 72, 0
1, 56940, Note_on_c, 0, 64, 0
1, 56940, Note_on_c, 0, 60, 0
1, 57000, Note_on_c, 0, 84, 52
1, 57000, Note_on_c, 0, 76, 52
1, 57000, Note_on_c, 0, 48, 48
1, 57000, Note_on_c, 0, 60, 48
1, 57060, Note_on_c, 0, 76, 0
1, 57060, Note_on_c, 0, 84, 0
1, 57060, Note_on_c, 0, 60, 0
1, 57060, Note_on_c, 0, 48, 0
1, 57120, Note_on_c, 0, 76, 52
1, 57120, Note_on_c, 0, 84, 52
1, 57120, Note_on_c, 0, 48, 48
1, 57120, Note_on_c, 0, 60, 48
1, 57180, Note_on_c, 0, 84, 0
1, 57180, Note_on_c, 0, 76, 0
1, 57180, Note_on_c, 0, 60, 0
1, 57180, Note_on_c, 0, 48, 0
1, 57240, Note_on_c, 0, 76, 52
1, 57240, Note_on_c, 0, 84, 52
1, 57240, Note_on_c, 0, 48, 48
1, 57240, Note_on_c, 0, 60, 48
1, 57480, Note_on_c, 0, 84, 0
1, 57480, Note_on_c, 0, 76, 0
1, 57480, Note_on_c, 0, 60, 0
1, 57480, Note_on_c, 0, 48, 0
1, 57490, End_track
0, 0, End_of_file