0, 0, Header, 0, 1, 96
1, 0, Start_track
1, 0, Tempo, 120000
1, 144, Tempo, 800000
1, 144, Note_on_c, 0, 67, 75
1, 189, Note_on_c, 0, 67, 0
1, 192, Note_on_c, 0, 72, 75
1, 192, Note_on_c, 1, 52, 75
1, 192, Note_on_c, 1, 48, 75
1, 204, Note_on_c, 0, 72, 0
1, 204, Note_on_c, 0, 71, 75
1, 216, Note_on_c, 0, 71, 0
1, 216, Note_on_c, 0, 72, 75
1, 228, Note_on_c, 0, 72, 0
1, 228, Note_on_c, 0, 74, 75
1, 237, Note_on_c, 1, 52, 0
1, 237, Note_on_c, 1, 48, 0
1, 240, Note_on_c, 0, 74, 0
1, 240, Note_on_c, 0, 76, 75
1, 285, Note_on_c, 0, 76, 0
1, 288, Note_on_c, 0, 76, 75
1, 288, Note_on_c, 1, 52, 75
1, 288, Note_on_c, 1, 48, 75
1, 300, Note_on_c, 0, 76, 0
1, 300, Note_on_c, 0, 74, 75
1, 312, Note_on_c, 0, 74, 0
1, 312, Note_on_c, 0, 76, 75
1, 324, Note_on_c, 0, 76, 0
1, 324, Note_on_c, 0, 77, 75
1, 333, Note_on_c, 1, 52, 0
1, 333, Note_on_c, 1, 48, 0
1, 336, Note_on_c, 0, 77, 0
1, 336, Note_on_c, 0, 79, 75
1, 381, Note_on_c, 0, 79, 0
1, 384, Note_on_c, 0, 79, 75
1, 384, Note_on_c, 0, 76, 75
1, 408, Note_on_c, 1, 48, 75
1, 431, Note_on_c, 1, 48, 0
1, 432, Note_on_c, 1, 52, 75
1, 451, Note_on_c, 0, 79, 0
1, 451, Note_on_c, 0, 76, 0
1, 455, Note_on_c, 1, 52, 0
1, 456, Note_on_c, 0, 77, 75
1, 456, Note_on_c, 0, 74, 75
1, 456, Note_on_c, 1, 55, 75
1, 479, Note_on_c, 0, 77, 0
1, 479, Note_on_c, 0, 74, 0
1, 479, Note_on_c, 1, 55, 0
1, 480, Note_on_c, 0, 76, 75
1, 480, Note_on_c, 0, 72, 75
1, 480, Note_on_c, 1, 60, 75
1, 525, Note_on_c, 0, 76, 0
1, 525, Note_on_c, 0, 72, 0
1, 525, Note_on_c, 1, 60, 0
1, 528, Note_on_c, 0, 67, 75
1, 528, Note_on_c, 1, 64, 75
1, 551, Note_on_c, 0, 67, 0
1, 552, Note_on_c, 0, 72, 75
1, 573, Note_on_c, 1, 64, 0
1, 575, Note_on_c, 0, 72, 0
1, 576, Note_on_c, 0, 71, 75
1, 576, Note_on_c, 1, 65, 75
1, 584, Note_on_c, 0, 71, 0
1, 584, Note_on_c, 0, 69, 75
1, 592, Note_on_c, 0, 69, 0
1, 592, Note_on_c, 0, 71, 75
1, 600, Note_on_c, 0, 71, 0
1, 600, Note_on_c, 0, 69, 75
1, 608, Note_on_c, 0, 69, 0
1, 608, Note_on_c, 0, 67, 75
1, 616, Note_on_c, 0, 67, 0
1, 616, Note_on_c, 0, 69, 75
1, 621, Note_on_c, 1, 65, 0
1, 624, Note_on_c, 0, 69, 0
1, 624, Note_on_c, 0, 67, 75
1, 624, Note_on_c, 1, 64, 75
1, 647, Note_on_c, 0, 67, 0
1, 648, Note_on_c, 0, 72, 75
1, 669, Note_on_c, 1, 64, 0
1, 671, Note_on_c, 0, 72, 0
1, 672, Note_on_c, 0, 67, 75
1, 672, Note_on_c, 1, 62, 75
1, 717, Note_on_c, 0, 67, 0
1, 717, Note_on_c, 1, 62, 0
1, 720, Note_on_c, 0, 67, 75
1, 720, Note_on_c, 1, 55, 75
1, 728, Note_on_c, 0, 67, 0
1, 728, Note_on_c, 0, 65, 75
1, 736, Note_on_c, 0, 65, 0
1, 736, Note_on_c, 0, 67, 75
1, 744, Note_on_c, 0, 67, 0
1, 744, Note_on_c, 0, 65, 75
1, 752, Note_on_c, 0, 65, 0
1, 752, Note_on_c, 0, 64, 75
1, 760, Note_on_c, 0, 64, 0
1, 760, Note_on_c, 0, 65, 75
1, 765, Note_on_c, 1, 55, 0
1, 768, Note_on_c, 0, 65, 0
1, 768, Note_on_c, 0, 64, 75
1, 768, Note_on_c, 1, 60, 75
1, 813, Note_on_c, 1, 60, 0
1, 816, Note_on_c, 1, 55, 75
1, 857, Note_on_c, 0, 64, 0
1, 861, Note_on_c, 1, 55, 0
1, 864, Note_on_c, 1, 48, 75
1, 909, Note_on_c, 1, 48, 0
1, 912, Note_on_c, 0, 67, 75
1, 957, Note_on_c, 0, 67, 0
1, 960, Note_on_c, 0, 72, 75
1, 960, Note_on_c, 1, 52, 75
1, 960, Note_on_c, 1, 48, 75
1, 972, Note_on_c, 0, 72, 0
1, 972, Note_on_c, 0, 71, 75
1, 984, Note_on_c, 0, 71, 0
1, 984, Note_on_c, 0, 72, 75
1, 996, Note_on_c, 0, 72, 0
1, 996, Note_on_c, 0, 74, 75
1, 1005, Note_on_c, 1, 52, 0
1, 1005, Note_on_c, 1, 48, 0
1, 1008, Note_on_c, 0, 74, 0
1, 1008, Note_on_c, 0, 76, 75
1, 1053, Note_on_c, 0, 76, 0
1, 1056, Note_on_c, 0, 76, 75
1, 1056, Note_on_c, 1, 52, 75
1, 1056, Note_on_c, 1, 48, 75
1, 1068, Note_on_c, 0, 76, 0
1, 1068, Note_on_c, 0, 74, 75
1, 1080, Note_on_c, 0, 74, 0
1, 1080, Note_on_c, 0, 76, 75
1, 1092, Note_on_c, 0, 76, 0
1, 1092, Note_on_c, 0, 77, 75
1, 1101, Note_on_c, 1, 52, 0
1, 1101, Note_on_c, 1, 48, 0
1, 1104, Note_on_c, 0, 77, 0
1, 1104, Note_on_c, 0, 79, 75
1, 1149, Note_on_c, 0, 79, 0
1, 1152, Note_on_c, 0, 79, 75
1, 1152, Note_on_c, 0, 76, 75
1, 1176, Note_on_c, 1, 48, 75
1, 1199, Note_on_c, 1, 48, 0
1, 1200, Note_on_c, 1, 52, 75
1, 1219, Note_on_c, 0, 79, 0
1, 1219, Note_on_c, 0, 76, 0
1, 1223, Note_on_c, 1, 52, 0
1, 1224, Note_on_c, 0, 77, 75
1, 1224, Note_on_c, 0, 74, 75
1, 1224, Note_on_c, 1, 55, 75
1, 1247, Note_on_c, 0, 77, 0
1, 1247, Note_on_c, 0, 74, 0
1, 1247, Note_on_c, 1, 55, 0
1, 1248, Note_on_c, 0, 76, 75
1, 1248, Note_on_c, 0, 72, 75
1, 1248, Note_on_c, 1, 60, 75
1, 1293, Note_on_c, 0, 76, 0
1, 1293, Note_on_c, 0, 72, 0
1, 1293, Note_on_c, 1, 60, 0
1, 1296, Note_on_c, 0, 84, 75
1, 1319, Note_on_c, 0, 84, 0
1, 1320, Note_on_c, 0, 79, 75
1, 1343, Note_on_c, 0, 79, 0
1, 1344, Note_on_c, 0, 79, 75
1, 1344, Note_on_c, 1, 62, 75
1, 1344, Note_on_c, 1, 55, 64
1, 1352, Note_on_c, 0, 79, 0
1, 1352, Note_on_c, 0, 77, 75
1, 1360, Note_on_c, 0, 77, 0
1, 1360, Note_on_c, 0, 79, 75
1, 1368, Note_on_c, 0, 79, 0
1, 1368, Note_on_c, 0, 77, 75
1, 1376, Note_on_c, 0, 77, 0
1, 1376, Note_on_c, 0, 76, 75
1, 1384, Note_on_c, 0, 76, 0
1, 1384, Note_on_c, 0, 77, 75
1, 1389, Note_on_c, 1, 62, 0
1, 1392, Note_on_c, 0, 77, 0
1, 1392, Note_on_c, 0, 76, 75
1, 1392, Note_on_c, 1, 60, 75
1, 1437, Note_on_c, 0, 76, 0
1, 1437, Note_on_c, 1, 60, 0
1, 1440, Note_on_c, 0, 76, 75
1, 1440, Note_on_c, 1, 65, 75
1, 1448, Note_on_c, 0, 76, 0
1, 1448, Note_on_c, 0, 74, 75
1, 1456, Note_on_c, 0, 74, 0
1, 1456, Note_on_c, 0, 76, 75
1, 1464, Note_on_c, 0, 76, 0
1, 1464, Note_on_c, 0, 74, 75
1, 1472, Note_on_c, 0, 74, 0
1, 1472, Note_on_c, 0, 72, 75
1, 1480, Note_on_c, 0, 72, 0
1, 1480, Note_on_c, 0, 74, 75
1, 1485, Note_on_c, 1, 65, 0
1, 1488, Note_on_c, 0, 74, 0
1, 1488, Note_on_c, 0, 72, 75
1, 1488, Note_on_c, 1, 64, 75
1, 1521, Note_on_c, 1, 55, 0
1, 1533, Note_on_c, 0, 72, 0
1, 1533, Note_on_c, 1, 64, 0
1, 1536, Note_on_c, 0, 71, 75
1, 1536, Note_on_c, 1, 62, 75
1, 1536, Note_on_c, 1, 55, 75
1, 1551, Note_on_c, 0, 71, 0
1, 1552, Note_on_c, 0, 72, 75
1, 1567, Note_on_c, 0, 72, 0
1, 1568, Note_on_c, 0, 74, 75
1, 1583, Note_on_c, 0, 74, 0
1, 1584, Note_on_c, 0, 67, 75
1, 1625, Note_on_c, 1, 62, 0
1, 1625, Note_on_c, 1, 55, 0
1, 1629, Note_on_c, 0, 67, 0
1, 1680, Note_on_c, 0, 74, 75
1, 1725, Note_on_c, 0, 74, 0
1, 1728, Note_on_c, 0, 79, 75
1, 1740, Note_on_c, 0, 79, 0
1, 1740, Note_on_c, 0, 78, 75
1, 1752, Note_on_c, 0, 78, 0
1, 1752, Note_on_c, 0, 79, 75
1, 1764, Note_on_c, 0, 79, 0
1, 1764, Note_on_c, 0, 81, 75
1, 1776, Note_on_c, 0, 81, 0
1, 1776, Note_on_c, 0, 83, 75
1, 1776, Note_on_c, 1, 62, 64
1, 1776, Note_on_c, 1, 55, 64
1, 1821, Note_on_c, 0, 83, 0
1, 1823, Note_on_c, 1, 62, 0
1, 1823, Note_on_c, 1, 55, 0
1, 1824, Note_on_c, 1, 62, 64
1, 1824, Note_on_c, 1, 55, 64
1, 1871, Note_on_c, 1, 62, 0
1, 1871, Note_on_c, 1, 55, 0
1, 1872, Note_on_c, 0, 83, 75
1, 1872, Note_on_c, 1, 62, 64
1, 1872, Note_on_c, 1, 55, 64
1, 1917, Note_on_c, 0, 83, 0
1, 1919, Note_on_c, 1, 62, 0
1, 1919, Note_on_c, 1, 55, 0
1, 1920, Note_on_c, 0, 84, 75
1, 1932, Note_on_c, 0, 84, 0
1, 1932, Note_on_c, 0, 83, 75
1, 1944, Note_on_c, 0, 83, 0
1, 1944, Note_on_c, 0, 81, 75
1, 1956, Note_on_c, 0, 81, 0
1, 1956, Note_on_c, 0, 83, 75
1, 1968, Note_on_c, 0, 83, 0
1, 1968, Note_on_c, 0, 81, 75
1, 1968, Note_on_c, 1, 62, 64
1, 1968, Note_on_c, 1, 54, 64
1, 2013, Note_on_c, 0, 81, 0
1, 2015, Note_on_c, 1, 62, 0
1, 2015, Note_on_c, 1, 54, 0
1, 2016, Note_on_c, 1, 62, 64
1, 2016, Note_on_c, 1, 54, 64
1, 2063, Note_on_c, 1, 62, 0
1, 2063, Note_on_c, 1, 54, 0
1, 2064, Note_on_c, 0, 74, 75
1, 2064, Note_on_c, 1, 62, 64
1, 2064, Note_on_c, 1, 54, 64
1, 2109, Note_on_c, 0, 74, 0
1, 2111, Note_on_c, 1, 62, 0
1, 2111, Note_on_c, 1, 54, 0
1, 2112, Note_on_c, 0, 78, 75
1, 2124, Note_on_c, 0, 78, 0
1, 2124, Note_on_c, 0, 76, 75
1, 2136, Note_on_c, 0, 76, 0
1, 2136, Note_on_c, 0, 78, 75
1, 2148, Note_on_c, 0, 78, 0
1, 2148, Note_on_c, 0, 79, 75
1, 2160, Note_on_c, 0, 79, 0
1, 2160, Note_on_c, 0, 81, 75
1, 2160, Note_on_c, 1, 62, 64
1, 2160, Note_on_c, 1, 54, 64
1, 2205, Note_on_c, 0, 81, 0
1, 2207, Note_on_c, 1, 62, 0
1, 2207, Note_on_c, 1, 54, 0
1, 2208, Note_on_c, 1, 62, 64
1, 2208, Note_on_c, 1, 54, 64
1, 2255, Note_on_c, 1, 62, 0
1, 2255, Note_on_c, 1, 54, 0
1, 2256, Note_on_c, 0, 72, 75
1, 2256, Note_on_c, 1, 62, 64
1, 2256, Note_on_c, 1, 54, 64
1, 2301, Note_on_c, 0, 72, 0
1, 2303, Note_on_c, 1, 62, 0
1, 2303, Note_on_c, 1, 54, 0
1, 2304, Note_on_c, 0, 71, 75
1, 2316, Note_on_c, 0, 71, 0
1, 2316, Note_on_c, 0, 69, 75
1, 2328, Note_on_c, 0, 69, 0
1, 2328, Note_on_c, 0, 71, 75
1, 2340, Note_on_c, 0, 71, 0
1, 2340, Note_on_c, 0, 72, 75
1, 2352, Note_on_c, 0, 72, 0
1, 2352, Note_on_c, 0, 74, 75
1, 2352, Note_on_c, 1, 59, 64
1, 2352, Note_on_c, 1, 55, 64
1, 2397, Note_on_c, 0, 74, 0
1, 2399, Note_on_c, 1, 59, 0
1, 2399, Note_on_c, 1, 55, 0
1, 2400, Note_on_c, 1, 59, 64
1, 2400, Note_on_c, 1, 55, 64
1, 2447, Note_on_c, 1, 59, 0
1, 2447, Note_on_c, 1, 55, 0
1, 2448, Note_on_c, 0, 74, 75
1, 2448, Note_on_c, 1, 59, 64
1, 2448, Note_on_c, 1, 55, 64
1, 2471, Note_on_c, 0, 74, 0
1, 2472, Note_on_c, 0, 79, 75
1, 2495, Note_on_c, 0, 79, 0
1, 2495, Note_on_c, 1, 59, 0
1, 2495, Note_on_c, 1, 55, 0
1, 2496, Note_on_c, 0, 78, 75
1, 2496, Note_on_c, 1, 60, 70
1, 2496, Note_on_c, 1, 55, 64
1, 2504, Note_on_c, 0, 78, 0
1, 2504, Note_on_c, 0, 76, 75
1, 2512, Note_on_c, 0, 76, 0
1, 2512, Note_on_c, 0, 78, 75
1, 2520, Note_on_c, 0, 78, 0
1, 2520, Note_on_c, 0, 76, 75
1, 2528, Note_on_c, 0, 76, 0
1, 2528, Note_on_c, 0, 74, 75
1, 2536, Note_on_c, 0, 74, 0
1, 2536, Note_on_c, 0, 76, 75
1, 2541, Note_on_c, 1, 60, 0
1, 2544, Note_on_c, 0, 76, 0
1, 2544, Note_on_c, 0, 74, 75
1, 2544, Note_on_c, 1, 59, 70
1, 2589, Note_on_c, 0, 74, 0
1, 2589, Note_on_c, 1, 59, 0
1, 2592, Note_on_c, 0, 76, 75
1, 2592, Note_on_c, 1, 60, 70
1, 2616, Note_on_c, 0, 76, 0
1, 2616, Note_on_c, 0, 79, 75
1, 2637, Note_on_c, 1, 60, 0
1, 2639, Note_on_c, 0, 79, 0
1, 2640, Note_on_c, 0, 78, 75
1, 2640, Note_on_c, 1, 57, 70
1, 2664, Note_on_c, 0, 78, 0
1, 2664, Note_on_c, 0, 81, 75
1, 2673, Note_on_c, 1, 55, 0
1, 2685, Note_on_c, 1, 57, 0
1, 2687, Note_on_c, 0, 81, 0
1, 2688, Note_on_c, 0, 79, 75
1, 2688, Note_on_c, 1, 59, 70
1, 2688, Note_on_c, 1, 55, 70
1, 2698, Note_on_c, 0, 79, 0
1, 2712, Note_on_c, 0, 81, 75
1, 2720, Note_on_c, 0, 81, 0
1, 2720, Note_on_c, 0, 79, 75
1, 2728, Note_on_c, 0, 79, 0
1, 2728, Note_on_c, 0, 78, 75
1, 2736, Note_on_c, 0, 78, 0
1, 2736, Note_on_c, 0, 79, 75
1, 2746, Note_on_c, 0, 79, 0
1, 2760, Note_on_c, 0, 83, 75
1, 2770, Note_on_c, 0, 83, 0
1, 2777, Note_on_c, 1, 59, 0
1, 2777, Note_on_c, 1, 55, 0
1, 2784, Note_on_c, 0, 79, 75
1, 2829, Note_on_c, 0, 79, 0
1, 2832, Note_on_c, 0, 71, 80
1, 2832, Note_on_c, 1, 59, 80
1, 2877, Note_on_c, 0, 71, 0
1, 2877, Note_on_c, 1, 59, 0
1, 2880, Note_on_c, 0, 74, 80
1, 2880, Note_on_c, 1, 62, 80
1, 2903, Note_on_c, 0, 74, 0
1, 2903, Note_on_c, 1, 62, 0
1, 2904, Note_on_c, 0, 72, 80
1, 2904, Note_on_c, 1, 60, 80
1, 2927, Note_on_c, 0, 72, 0
1, 2927, Note_on_c, 1, 60, 0
1, 2928, Note_on_c, 0, 71, 80
1, 2928, Note_on_c, 1, 59, 80
1, 2951, Note_on_c, 0, 71, 0
1, 2951, Note_on_c, 1, 59, 0
1, 2952, Note_on_c, 0, 69, 80
1, 2952, Note_on_c, 1, 57, 80
1, 2975, Note_on_c, 0, 69, 0
1, 2975, Note_on_c, 1, 57, 0
1, 2976, Note_on_c, 0, 74, 80
1, 2976, Note_on_c, 1, 62, 80
1, 2996, Note_on_c, 0, 74, 0
1, 2996, Note_on_c, 1, 62, 0
1, 3024, Note_on_c, 0, 74, 80
1, 3024, Note_on_c, 1, 62, 80
1, 3044, Note_on_c, 0, 74, 0
1, 3044, Note_on_c, 1, 62, 0
1, 3072, Note_on_c, 0, 67, 80
1, 3072, Note_on_c, 1, 55, 80
1, 3161, Note_on_c, 0, 67, 0
1, 3161, Note_on_c, 1, 55, 0
1, 3168, Note_on_c, 0, 74, 75
1, 3168, Note_on_c, 1, 54, 70
1, 3176, Note_on_c, 0, 74, 0
1, 3176, Note_on_c, 0, 72, 75
1, 3184, Note_on_c, 0, 72, 0
1, 3184, Note_on_c, 0, 74, 75
1, 3191, Note_on_c, 1, 54, 0
1, 3192, Note_on_c, 0, 74, 0
1, 3192, Note_on_c, 0, 72, 75
1, 3192, Note_on_c, 1, 62, 70
1, 3200, Note_on_c, 0, 72, 0
1, 3200, Note_on_c, 0, 74, 75
1, 3208, Note_on_c, 0, 74, 0
1, 3208, Note_on_c, 0, 72, 75
1, 3215, Note_on_c, 1, 62, 0
1, 3216, Note_on_c, 0, 72, 0
1, 3216, Note_on_c, 0, 74, 75
1, 3216, Note_on_c, 1, 54, 70
1, 3224, Note_on_c, 0, 74, 0
1, 3224, Note_on_c, 0, 72, 75
1, 3232, Note_on_c, 0, 72, 0
1, 3232, Note_on_c, 0, 74, 75
1, 3239, Note_on_c, 1, 54, 0
1, 3240, Note_on_c, 0, 74, 0
1, 3240, Note_on_c, 0, 72, 75
1, 3240, Note_on_c, 1, 62, 70
1, 3248, Note_on_c, 0, 72, 0
1, 3248, Note_on_c, 0, 71, 75
1, 3256, Note_on_c, 0, 71, 0
1, 3256, Note_on_c, 0, 72, 75
1, 3263, Note_on_c, 1, 62, 0
1, 3264, Note_on_c, 0, 72, 0
1, 3264, Note_on_c, 0, 71, 75
1, 3264, Note_on_c, 1, 55, 70
1, 3287, Note_on_c, 1, 55, 0
1, 3288, Note_on_c, 1, 62, 70
1, 3311, Note_on_c, 1, 62, 0
1, 3312, Note_on_c, 1, 55, 70
1, 3335, Note_on_c, 1, 55, 0
1, 3336, Note_on_c, 1, 62, 70
1, 3353, Note_on_c, 0, 71, 0
1, 3359, Note_on_c, 1, 62, 0
1, 3360, Note_on_c, 0, 74, 75
1, 3360, Note_on_c, 1, 54, 70
1, 3370, Note_on_c, 0, 74, 0
1, 3383, Note_on_c, 1, 54, 0
1, 3384, Note_on_c, 0, 78, 75
1, 3384, Note_on_c, 1, 62, 70
1, 3394, Note_on_c, 0, 78, 0
1, 3407, Note_on_c, 1, 62, 0
1, 3408, Note_on_c, 0, 81, 75
1, 3408, Note_on_c, 1, 54, 70
1, 3418, Note_on_c, 0, 81, 0
1, 3431, Note_on_c, 1, 54, 0
1, 3432, Note_on_c, 0, 84, 75
1, 3432, Note_on_c, 1, 62, 70
1, 3442, Note_on_c, 0, 84, 0
1, 3455, Note_on_c, 1, 62, 0
1, 3456, Note_on_c, 0, 83, 75
1, 3456, Note_on_c, 1, 55, 70
1, 3479, Note_on_c, 1, 55, 0
1, 3480, Note_on_c, 1, 62, 70
1, 3501, Note_on_c, 0, 83, 0
1, 3503, Note_on_c, 1, 62, 0
1, 3504, Note_on_c, 0, 79, 75
1, 3504, Note_on_c, 1, 55, 70
1, 3527, Note_on_c, 1, 55, 0
1, 3528, Note_on_c, 1, 62, 70
1, 3549, Note_on_c, 0, 79, 0
1, 3551, Note_on_c, 1, 62, 0
1, 3552, Note_on_c, 0, 74, 75
1, 3552, Note_on_c, 1, 54, 70
1, 3560, Note_on_c, 0, 74, 0
1, 3560, Note_on_c, 0, 72, 75
1, 3568, Note_on_c, 0, 72, 0
1, 3568, Note_on_c, 0, 74, 75
1, 3575, Note_on_c, 1, 54, 0
1, 3576, Note_on_c, 0, 74, 0
1, 3576, Note_on_c, 0, 72, 75
1, 3576, Note_on_c, 1, 62, 70
1, 3584, Note_on_c, 0, 72, 0
1, 3584, Note_on_c, 0, 74, 75
1, 3592, Note_on_c, 0, 74, 0
1, 3592, Note_on_c, 0, 72, 75
1, 3599, Note_on_c, 1, 62, 0
1, 3600, Note_on_c, 0, 72, 0
1, 3600, Note_on_c, 0, 74, 75
1, 3600, Note_on_c, 1, 54, 70
1, 3608, Note_on_c, 0, 74, 0
1, 3608, Note_on_c, 0, 72, 75
1, 3616, Note_on_c, 0, 72, 0
1, 3616, Note_on_c, 0, 74, 75
1, 3623, Note_on_c, 1, 54, 0
1, 3624, Note_on_c, 0, 74, 0
1, 3624, Note_on_c, 0, 72, 75
1, 3624, Note_on_c, 1, 62, 70
1, 3632, Note_on_c, 0, 72, 0
1, 3632, Note_on_c, 0, 71, 75
1, 3640, Note_on_c, 0, 71, 0
1, 3640, Note_on_c, 0, 72, 75
1, 3647, Note_on_c, 1, 62, 0
1, 3648, Note_on_c, 0, 72, 0
1, 3648, Note_on_c, 0, 71, 75
1, 3648, Note_on_c, 1, 55, 70
1, 3671, Note_on_c, 1, 55, 0
1, 3672, Note_on_c, 1, 62, 70
1, 3695, Note_on_c, 1, 62, 0
1, 3696, Note_on_c, 1, 55, 70
1, 3719, Note_on_c, 1, 55, 0
1, 3720, Note_on_c, 1, 62, 70
1, 3737, Note_on_c, 0, 71, 0
1, 3743, Note_on_c, 1, 62, 0
1, 3744, Note_on_c, 0, 81, 75
1, 3744, Note_on_c, 1, 54, 70
1, 3767, Note_on_c, 1, 54, 0
1, 3768, Note_on_c, 1, 62, 70
1, 3791, Note_on_c, 1, 62, 0
1, 3792, Note_on_c, 1, 54, 70
1, 3811, Note_on_c, 0, 81, 0
1, 3815, Note_on_c, 1, 54, 0
1, 3816, Note_on_c, 0, 72, 75
1, 3816, Note_on_c, 1, 62, 70
1, 3839, Note_on_c, 0, 72, 0
1, 3839, Note_on_c, 1, 62, 0
1, 3840, Note_on_c, 0, 71, 75
1, 3840, Note_on_c, 1, 55, 75
1, 3855, Note_on_c, 0, 71, 0
1, 3856, Note_on_c, 0, 69, 75
1, 3871, Note_on_c, 0, 69, 0
1, 3872, Note_on_c, 0, 67, 75
1, 3885, Note_on_c, 1, 55, 0
1, 3887, Note_on_c, 0, 67, 0
1, 3888, Note_on_c, 0, 76, 75
1, 3888, Note_on_c, 1, 60, 75
1, 3903, Note_on_c, 0, 76, 0
1, 3904, Note_on_c, 0, 74, 75
1, 3919, Note_on_c, 0, 74, 0
1, 3920, Note_on_c, 0, 72, 75
1, 3933, Note_on_c, 1, 60, 0
1, 3935, Note_on_c, 0, 72, 0
1, 3936, Note_on_c, 0, 71, 75
1, 3936, Note_on_c, 1, 62, 75
1, 3981, Note_on_c, 0, 71, 0
1, 3981, Note_on_c, 1, 62, 0
1, 3984, Note_on_c, 0, 71, 75
1, 3984, Note_on_c, 1, 50, 75
1, 3992, Note_on_c, 0, 71, 0
1, 3992, Note_on_c, 0, 69, 75
1, 4000, Note_on_c, 0, 69, 0
1, 4000, Note_on_c, 0, 71, 75
1, 4008, Note_on_c, 0, 71, 0
1, 4008, Note_on_c, 0, 69, 75
1, 4016, Note_on_c, 0, 69, 0
1, 4016, Note_on_c, 0, 67, 75
1, 4024, Note_on_c, 0, 67, 0
1, 4024, Note_on_c, 0, 69, 75
1, 4029, Note_on_c, 1, 50, 0
1, 4032, Note_on_c, 0, 69, 0
1, 4032, Note_on_c, 0, 67, 75
1, 4032, Note_on_c, 1, 55, 75
1, 4077, Note_on_c, 1, 55, 0
1, 4080, Note_on_c, 1, 50, 75
1, 4121, Note_on_c, 0, 67, 0
1, 4125, Note_on_c, 1, 50, 0
1, 4128, Note_on_c, 1, 43, 75
1, 4173, Note_on_c, 1, 43, 0
1, 4176, Tempo, 800000
1, 4176, Note_on_c, 0, 67, 75
1, 4221, Note_on_c, 0, 67, 0
1, 4224, Note_on_c, 0, 72, 75
1, 4224, Note_on_c, 1, 52, 75
1, 4224, Note_on_c, 1, 48, 75
1, 4236, Note_on_c, 0, 72, 0
1, 4236, Note_on_c, 0, 71, 75
1, 4248, Note_on_c, 0, 71, 0
1, 4248, Note_on_c, 0, 72, 75
1, 4260, Note_on_c, 0, 72, 0
1, 4260, Note_on_c, 0, 74, 75
1, 4269, Note_on_c, 1, 52, 0
1, 4269, Note_on_c, 1, 48, 0
1, 4272, Note_on_c, 0, 74, 0
1, 4272, Note_on_c, 0, 76, 75
1, 4317, Note_on_c, 0, 76, 0
1, 4320, Note_on_c, 0, 76, 75
1, 4320, Note_on_c, 1, 52, 75
1, 4320, Note_on_c, 1, 48, 75
1, 4332, Note_on_c, 0, 76, 0
1, 4332, Note_on_c, 0, 74, 75
1, 4344, Note_on_c, 0, 74, 0
1, 4344, Note_on_c, 0, 76, 75
1, 4356, Note_on_c, 0, 76, 0
1, 4356, Note_on_c, 0, 77, 75
1, 4365, Note_on_c, 1, 52, 0
1, 4365, Note_on_c, 1, 48, 0
1, 4368, Note_on_c, 0, 77, 0
1, 4368, Note_on_c, 0, 79, 75
1, 4413, Note_on_c, 0, 79, 0
1, 4416, Note_on_c, 0, 79, 75
1, 4416, Note_on_c, 0, 76, 75
1, 4440, Note_on_c, 1, 48, 75
1, 4463, Note_on_c, 1, 48, 0
1, 4464, Note_on_c, 1, 52, 75
1, 4483, Note_on_c, 0, 79, 0
1, 4483, Note_on_c, 0, 76, 0
1, 4487, Note_on_c, 1, 52, 0
1, 4488, Note_on_c, 0, 77, 75
1, 4488, Note_on_c, 0, 74, 75
1, 4488, Note_on_c, 1, 55, 75
1, 4511, Note_on_c, 0, 77, 0
1, 4511, Note_on_c, 0, 74, 0
1, 4511, Note_on_c, 1, 55, 0
1, 4512, Note_on_c, 0, 76, 75
1, 4512, Note_on_c, 0, 72, 75
1, 4512, Note_on_c, 1, 60, 75
1, 4557, Note_on_c, 0, 76, 0
1, 4557, Note_on_c, 0, 72, 0
1, 4557, Note_on_c, 1, 60, 0
1, 4560, Note_on_c, 0, 67, 75
1, 4560, Note_on_c, 1, 64, 75
1, 4583, Note_on_c, 0, 67, 0
1, 4584, Note_on_c, 0, 72, 75
1, 4605, Note_on_c, 1, 64, 0
1, 4607, Note_on_c, 0, 72, 0
1, 4608, Note_on_c, 0, 71, 75
1, 4608, Note_on_c, 1, 65, 75
1, 4616, Note_on_c, 0, 71, 0
1, 4616, Note_on_c, 0, 69, 75
1, 4624, Note_on_c, 0, 69, 0
1, 4624, Note_on_c, 0, 71, 75
1, 4632, Note_on_c, 0, 71, 0
1, 4632, Note_on_c, 0, 69, 75
1, 4640, Note_on_c, 0, 69, 0
1, 4640, Note_on_c, 0, 67, 75
1, 4648, Note_on_c, 0, 67, 0
1, 4648, Note_on_c, 0, 69, 75
1, 4653, Note_on_c, 1, 65, 0
1, 4656, Note_on_c, 0, 69, 0
1, 4656, Note_on_c, 0, 67, 75
1, 4656, Note_on_c, 1, 64, 75
1, 4679, Note_on_c, 0, 67, 0
1, 4680, Note_on_c, 0, 72, 75
1, 4701, Note_on_c, 1, 64, 0
1, 4703, Note_on_c, 0, 72, 0
1, 4704, Note_on_c, 0, 67, 75
1, 4704, Note_on_c, 1, 62, 75
1, 4749, Note_on_c, 0, 67, 0
1, 4749, Note_on_c, 1, 62, 0
1, 4752, Note_on_c, 0, 67, 75
1, 4752, Note_on_c, 1, 55, 75
1, 4760, Note_on_c, 0, 67, 0
1, 4760, Note_on_c, 0, 65, 75
1, 4768, Note_on_c, 0, 65, 0
1, 4768, Note_on_c, 0, 67, 75
1, 4776, Note_on_c, 0, 67, 0
1, 4776, Note_on_c, 0, 65, 75
1, 4784, Note_on_c, 0, 65, 0
1, 4784, Note_on_c, 0, 64, 75
1, 4792, Note_on_c, 0, 64, 0
1, 4792, Note_on_c, 0, 65, 75
1, 4797, Note_on_c, 1, 55, 0
1, 4800, Note_on_c, 0, 65, 0
1, 4800, Note_on_c, 0, 64, 75
1, 4800, Note_on_c, 1, 60, 75
1, 4845, Note_on_c, 1, 60, 0
1, 4848, Note_on_c, 1, 55, 75
1, 4889, Note_on_c, 0, 64, 0
1, 4893, Note_on_c, 1, 55, 0
1, 4896, Note_on_c, 1, 48, 75
1, 4941, Note_on_c, 1, 48, 0
1, 4944, Note_on_c, 0, 67, 75
1, 4989, Note_on_c, 0, 67, 0
1, 4992, Note_on_c, 0, 72, 75
1, 4992, Note_on_c, 1, 52, 75
1, 4992, Note_on_c, 1, 48, 75
1, 5004, Note_on_c, 0, 72, 0
1, 5004, Note_on_c, 0, 71, 75
1, 5016, Note_on_c, 0, 71, 0
1, 5016, Note_on_c, 0, 72, 75
1, 5028, Note_on_c, 0, 72, 0
1, 5028, Note_on_c, 0, 74, 75
1, 5037, Note_on_c, 1, 52, 0
1, 5037, Note_on_c, 1, 48, 0
1, 5040, Note_on_c, 0, 74, 0
1, 5040, Note_on_c, 0, 76, 75
1, 5085, Note_on_c, 0, 76, 0
1, 5088, Note_on_c, 0, 76, 75
1, 5088, Note_on_c, 1, 52, 75
1, 5088, Note_on_c, 1, 48, 75
1, 5100, Note_on_c, 0, 76, 0
1, 5100, Note_on_c, 0, 74, 75
1, 5112, Note_on_c, 0, 74, 0
1, 5112, Note_on_c, 0, 76, 75
1, 5124, Note_on_c, 0, 76, 0
1, 5124, Note_on_c, 0, 77, 75
1, 5133, Note_on_c, 1, 52, 0
1, 5133, Note_on_c, 1, 48, 0
1, 5136, Note_on_c, 0, 77, 0
1, 5136, Note_on_c, 0, 79, 75
1, 5181, Note_on_c, 0, 79, 0
1, 5184, Note_on_c, 0, 79, 75
1, 5184, Note_on_c, 0, 76, 75
1, 5208, Note_on_c, 1, 48, 75
1, 5231, Note_on_c, 1, 48, 0
1, 5232, Note_on_c, 1, 52, 75
1, 5251, Note_on_c, 0, 79, 0
1, 5251, Note_on_c, 0, 76, 0
1, 5255, Note_on_c, 1, 52, 0
1, 5256, Note_on_c, 0, 77, 75
1, 5256, Note_on_c, 0, 74, 75
1, 5256, Note_on_c, 1, 55, 75
1, 5279, Note_on_c, 0, 77, 0
1, 5279, Note_on_c, 0, 74, 0
1, 5279, Note_on_c, 1, 55, 0
1, 5280, Note_on_c, 0, 76, 75
1, 5280, Note_on_c, 0, 72, 75
1, 5280, Note_on_c, 1, 60, 75
1, 5325, Note_on_c, 0, 76, 0
1, 5325, Note_on_c, 0, 72, 0
1, 5325, Note_on_c, 1, 60, 0
1, 5328, Note_on_c, 0, 84, 75
1, 5351, Note_on_c, 0, 84, 0
1, 5352, Note_on_c, 0, 79, 75
1, 5375, Note_on_c, 0, 79, 0
1, 5376, Note_on_c, 0, 79, 75
1, 5376, Note_on_c, 1, 62, 75
1, 5376, Note_on_c, 1, 55, 64
1, 5384, Note_on_c, 0, 79, 0
1, 5384, Note_on_c, 0, 77, 75
1, 5392, Note_on_c, 0, 77, 0
1, 5392, Note_on_c, 0, 79, 75
1, 5400, Note_on_c, 0, 79, 0
1, 5400, Note_on_c, 0, 77, 75
1, 5408, Note_on_c, 0, 77, 0
1, 5408, Note_on_c, 0, 76, 75
1, 5416, Note_on_c, 0, 76, 0
1, 5416, Note_on_c, 0, 77, 75
1, 5421, Note_on_c, 1, 62, 0
1, 5424, Note_on_c, 0, 77, 0
1, 5424, Note_on_c, 0, 76, 75
1, 5424, Note_on_c, 1, 60, 75
1, 5469, Note_on_c, 0, 76, 0
1, 5469, Note_on_c, 1, 60, 0
1, 5472, Note_on_c, 0, 76, 75
1, 5472, Note_on_c, 1, 65, 75
1, 5480, Note_on_c, 0, 76, 0
1, 5480, Note_on_c, 0, 74, 75
1, 5488, Note_on_c, 0, 74, 0
1, 5488, Note_on_c, 0, 76, 75
1, 5496, Note_on_c, 0, 76, 0
1, 5496, Note_on_c, 0, 74, 75
1, 5504, Note_on_c, 0, 74, 0
1, 5504, Note_on_c, 0, 72, 75
1, 5512, Note_on_c, 0, 72, 0
1, 5512, Note_on_c, 0, 74, 75
1, 5517, Note_on_c, 1, 65, 0
1, 5520, Note_on_c, 0, 74, 0
1, 5520, Note_on_c, 0, 72, 75
1, 5520, Note_on_c, 1, 64, 75
1, 5553, Note_on_c, 1, 55, 0
1, 5565, Note_on_c, 0, 72, 0
1, 5565, Note_on_c, 1, 64, 0
1, 5568, Note_on_c, 0, 71, 75
1, 5568, Note_on_c, 1, 62, 75
1, 5568, Note_on_c, 1, 55, 75
1, 5583, Note_on_c, 0, 71, 0
1, 5584, Note_on_c, 0, 72, 75
1, 5599, Note_on_c, 0, 72, 0
1, 5600, Note_on_c, 0, 74, 75
1, 5615, Note_on_c, 0, 74, 0
1, 5616, Note_on_c, 0, 67, 75
1, 5657, Note_on_c, 1, 62, 0
1, 5657, Note_on_c, 1, 55, 0
1, 5661, Note_on_c, 0, 67, 0
1, 5712, Note_on_c, 0, 74, 75
1, 5757, Note_on_c, 0, 74, 0
1, 5760, Note_on_c, 0, 79, 75
1, 5772, Note_on_c, 0, 79, 0
1, 5772, Note_on_c, 0, 78, 75
1, 5784, Note_on_c, 0, 78, 0
1, 5784, Note_on_c, 0, 79, 75
1, 5796, Note_on_c, 0, 79, 0
1, 5796, Note_on_c, 0, 81, 75
1, 5808, Note_on_c, 0, 81, 0
1, 5808, Note_on_c, 0, 83, 75
1, 5808, Note_on_c, 1, 62, 64
1, 5808, Note_on_c, 1, 55, 64
1, 5853, Note_on_c, 0, 83, 0
1, 5855, Note_on_c, 1, 62, 0
1, 5855, Note_on_c, 1, 55, 0
1, 5856, Note_on_c, 1, 62, 64
1, 5856, Note_on_c, 1, 55, 64
1, 5903, Note_on_c, 1, 62, 0
1, 5903, Note_on_c, 1, 55, 0
1, 5904, Note_on_c, 0, 83, 75
1, 5904, Note_on_c, 1, 62, 64
1, 5904, Note_on_c, 1, 55, 64
1, 5949, Note_on_c, 0, 83, 0
1, 5951, Note_on_c, 1, 62, 0
1, 5951, Note_on_c, 1, 55, 0
1, 5952, Note_on_c, 0, 84, 75
1, 5964, Note_on_c, 0, 84, 0
1, 5964, Note_on_c, 0, 83, 75
1, 5976, Note_on_c, 0, 83, 0
1, 5976, Note_on_c, 0, 81, 75
1, 5988, Note_on_c, 0, 81, 0
1, 5988, Note_on_c, 0, 83, 75
1, 6000, Note_on_c, 0, 83, 0
1, 6000, Note_on_c, 0, 81, 75
1, 6000, Note_on_c, 1, 62, 64
1, 6000, Note_on_c, 1, 54, 64
1, 6045, Note_on_c, 0, 81, 0
1, 6047, Note_on_c, 1, 62, 0
1, 6047, Note_on_c, 1, 54, 0
1, 6048, Note_on_c, 1, 62, 64
1, 6048, Note_on_c, 1, 54, 64
1, 6095, Note_on_c, 1, 62, 0
1, 6095, Note_on_c, 1, 54, 0
1, 6096, Note_on_c, 0, 74, 75
1, 6096, Note_on_c, 1, 62, 64
1, 6096, Note_on_c, 1, 54, 64
1, 6141, Note_on_c, 0, 74, 0
1, 6143, Note_on_c, 1, 62, 0
1, 6143, Note_on_c, 1, 54, 0
1, 6144, Note_on_c, 0, 78, 75
1, 6156, Note_on_c, 0, 78, 0
1, 6156, Note_on_c, 0, 76, 75
1, 6168, Note_on_c, 0, 76, 0
1, 6168, Note_on_c, 0, 78, 75
1, 6180, Note_on_c, 0, 78, 0
1, 6180, Note_on_c, 0, 79, 75
1, 6192, Note_on_c, 0, 79, 0
1, 6192, Note_on_c, 0, 81, 75
1, 6192, Note_on_c, 1, 62, 64
1, 6192, Note_on_c, 1, 54, 64
1, 6237, Note_on_c, 0, 81, 0
1, 6239, Note_on_c, 1, 62, 0
1, 6239, Note_on_c, 1, 54, 0
1, 6240, Note_on_c, 1, 62, 64
1, 6240, Note_on_c, 1, 54, 64
1, 6287, Note_on_c, 1, 62, 0
1, 6287, Note_on_c, 1, 54, 0
1, 6288, Note_on_c, 0, 72, 75
1, 6288, Note_on_c, 1, 62, 64
1, 6288, Note_on_c, 1, 54, 64
1, 6333, Note_on_c, 0, 72, 0
1, 6335, Note_on_c, 1, 62, 0
1, 6335, Note_on_c, 1, 54, 0
1, 6336, Note_on_c, 0, 71, 75
1, 6348, Note_on_c, 0, 71, 0
1, 6348, Note_on_c, 0, 69, 75
1, 6360, Note_on_c, 0, 69, 0
1, 6360, Note_on_c, 0, 71, 75
1, 6372, Note_on_c, 0, 71, 0
1, 6372, Note_on_c, 0, 72, 75
1, 6384, Note_on_c, 0, 72, 0
1, 6384, Note_on_c, 0, 74, 75
1, 6384, Note_on_c, 1, 59, 64
1, 6384, Note_on_c, 1, 55, 64
1, 6429, Note_on_c, 0, 74, 0
1, 6431, Note_on_c, 1, 59, 0
1, 6431, Note_on_c, 1, 55, 0
1, 6432, Note_on_c, 1, 59, 64
1, 6432, Note_on_c, 1, 55, 64
1, 6479, Note_on_c, 1, 59, 0
1, 6479, Note_on_c, 1, 55, 0
1, 6480, Note_on_c, 0, 74, 75
1, 6480, Note_on_c, 1, 59, 64
1, 6480, Note_on_c, 1, 55, 64
1, 6503, Note_on_c, 0, 74, 0
1, 6504, Note_on_c, 0, 79, 75
1, 6527, Note_on_c, 0, 79, 0
1, 6527, Note_on_c, 1, 59, 0
1, 6527, Note_on_c, 1, 55, 0
1, 6528, Note_on_c, 0, 78, 75
1, 6528, Note_on_c, 1, 60, 70
1, 6528, Note_on_c, 1, 55, 64
1, 6536, Note_on_c, 0, 78, 0
1, 6536, Note_on_c, 0, 76, 75
1, 6544, Note_on_c, 0, 76, 0
1, 6544, Note_on_c, 0, 78, 75
1, 6552, Note_on_c, 0, 78, 0
1, 6552, Note_on_c, 0, 76, 75
1, 6560, Note_on_c, 0, 76, 0
1, 6560, Note_on_c, 0, 74, 75
1, 6568, Note_on_c, 0, 74, 0
1, 6568, Note_on_c, 0, 76, 75
1, 6573, Note_on_c, 1, 60, 0
1, 6576, Note_on_c, 0, 76, 0
1, 6576, Note_on_c, 0, 74, 75
1, 6576, Note_on_c, 1, 59, 70
1, 6621, Note_on_c, 0, 74, 0
1, 6621, Note_on_c, 1, 59, 0
1, 6624, Note_on_c, 0, 76, 75
1, 6624, Note_on_c, 1, 60, 70
1, 6648, Note_on_c, 0, 76, 0
1, 6648, Note_on_c, 0, 79, 75
1, 6669, Note_on_c, 1, 60, 0
1, 6671, Note_on_c, 0, 79, 0
1, 6672, Note_on_c, 0, 78, 75
1, 6672, Note_on_c, 1, 57, 70
1, 6696, Note_on_c, 0, 78, 0
1, 6696, Note_on_c, 0, 81, 75
1, 6705, Note_on_c, 1, 55, 0
1, 6717, Note_on_c, 1, 57, 0
1, 6719, Note_on_c, 0, 81, 0
1, 6720, Note_on_c, 0, 79, 75
1, 6720, Note_on_c, 1, 59, 70
1, 6720, Note_on_c, 1, 55, 70
1, 6730, Note_on_c, 0, 79, 0
1, 6744, Note_on_c, 0, 81, 75
1, 6752, Note_on_c, 0, 81, 0
1, 6752, Note_on_c, 0, 79, 75
1, 6760, Note_on_c, 0, 79, 0
1, 6760, Note_on_c, 0, 78, 75
1, 6768, Note_on_c, 0, 78, 0
1, 6768, Note_on_c, 0, 79, 75
1, 6778, Note_on_c, 0, 79, 0
1, 6792, Note_on_c, 0, 83, 75
1, 6802, Note_on_c, 0, 83, 0
1, 6809, Note_on_c, 1, 59, 0
1, 6809, Note_on_c, 1, 55, 0
1, 6816, Note_on_c, 0, 79, 75
1, 6861, Note_on_c, 0, 79, 0
1, 6864, Note_on_c, 0, 71, 80
1, 6864, Note_on_c, 1, 59, 80
1, 6909, Note_on_c, 0, 71, 0
1, 6909, Note_on_c, 1, 59, 0
1, 6912, Note_on_c, 0, 74, 80
1, 6912, Note_on_c, 1, 62, 80
1, 6935, Note_on_c, 0, 74, 0
1, 6935, Note_on_c, 1, 62, 0
1, 6936, Note_on_c, 0, 72, 80
1, 6936, Note_on_c, 1, 60, 80
1, 6959, Note_on_c, 0, 72, 0
1, 6959, Note_on_c, 1, 60, 0
1, 6960, Note_on_c, 0, 71, 80
1, 6960, Note_on_c, 1, 59, 80
1, 6983, Note_on_c, 0, 71, 0
1, 6983, Note_on_c, 1, 59, 0
1, 6984, Note_on_c, 0, 69, 80
1, 6984, Note_on_c, 1, 57, 80
1, 7007, Note_on_c, 0, 69, 0
1, 7007, Note_on_c, 1, 57, 0
1, 7008, Note_on_c, 0, 74, 80
1, 7008, Note_on_c, 1, 62, 80
1, 7028, Note_on_c, 0, 74, 0
1, 7028, Note_on_c, 1, 62, 0
1, 7056, Note_on_c, 0, 74, 80
1, 7056, Note_on_c, 1, 62, 80
1, 7076, Note_on_c, 0, 74, 0
1, 7076, Note_on_c, 1, 62, 0
1, 7104, Note_on_c, 0, 67, 80
1, 7104, Note_on_c, 1, 55, 80
1, 7193, Note_on_c, 0, 67, 0
1, 7193, Note_on_c, 1, 55, 0
1, 7200, Note_on_c, 0, 74, 75
1, 7200, Note_on_c, 1, 54, 70
1, 7208, Note_on_c, 0, 74, 0
1, 7208, Note_on_c, 0, 72, 75
1, 7216, Note_on_c, 0, 72, 0
1, 7216, Note_on_c, 0, 74, 75
1, 7223, Note_on_c, 1, 54, 0
1, 7224, Note_on_c, 0, 74, 0
1, 7224, Note_on_c, 0, 72, 75
1, 7224, Note_on_c, 1, 62, 70
1, 7232, Note_on_c, 0, 72, 0
1, 7232, Note_on_c, 0, 74, 75
1, 7240, Note_on_c, 0, 74, 0
1, 7240, Note_on_c, 0, 72, 75
1, 7247, Note_on_c, 1, 62, 0
1, 7248, Note_on_c, 0, 72, 0
1, 7248, Note_on_c, 0, 74, 75
1, 7248, Note_on_c, 1, 54, 70
1, 7256, Note_on_c, 0, 74, 0
1, 7256, Note_on_c, 0, 72, 75
1, 7264, Note_on_c, 0, 72, 0
1, 7264, Note_on_c, 0, 74, 75
1, 7271, Note_on_c, 1, 54, 0
1, 7272, Note_on_c, 0, 74, 0
1, 7272, Note_on_c, 0, 72, 75
1, 7272, Note_on_c, 1, 62, 70
1, 7280, Note_on_c, 0, 72, 0
1, 7280, Note_on_c, 0, 71, 75
1, 7288, Note_on_c, 0, 71, 0
1, 7288, Note_on_c, 0, 72, 75
1, 7295, Note_on_c, 1, 62, 0
1, 7296, Note_on_c, 0, 72, 0
1, 7296, Note_on_c, 0, 71, 75
1, 7296, Note_on_c, 1, 55, 70
1, 7319, Note_on_c, 1, 55, 0
1, 7320, Note_on_c, 1, 62, 70
1, 7343, Note_on_c, 1, 62, 0
1, 7344, Note_on_c, 1, 55, 70
1, 7367, Note_on_c, 1, 55, 0
1, 7368, Note_on_c, 1, 62, 70
1, 7385, Note_on_c, 0, 71, 0
1, 7391, Note_on_c, 1, 62, 0
1, 7392, Note_on_c, 0, 74, 75
1, 7392, Note_on_c, 1, 54, 70
1, 7402, Note_on_c, 0, 74, 0
1, 7415, Note_on_c, 1, 54, 0
1, 7416, Note_on_c, 0, 78, 75
1, 7416, Note_on_c, 1, 62, 70
1, 7426, Note_on_c, 0, 78, 0
1, 7439, Note_on_c, 1, 62, 0
1, 7440, Note_on_c, 0, 81, 75
1, 7440, Note_on_c, 1, 54, 70
1, 7450, Note_on_c, 0, 81, 0
1, 7463, Note_on_c, 1, 54, 0
1, 7464, Note_on_c, 0, 84, 75
1, 7464, Note_on_c, 1, 62, 70
1, 7474, Note_on_c, 0, 84, 0
1, 7487, Note_on_c, 1, 62, 0
1, 7488, Note_on_c, 0, 83, 75
1, 7488, Note_on_c, 1, 55, 70
1, 7511, Note_on_c, 1, 55, 0
1, 7512, Note_on_c, 1, 62, 70
1, 7533, Note_on_c, 0, 83, 0
1, 7535, Note_on_c, 1, 62, 0
1, 7536, Note_on_c, 0, 79, 75
1, 7536, Note_on_c, 1, 55, 70
1, 7559, Note_on_c, 1, 55, 0
1, 7560, Note_on_c, 1, 62, 70
1, 7581, Note_on_c, 0, 79, 0
1, 7583, Note_on_c, 1, 62, 0
1, 7584, Note_on_c, 0, 74, 75
1, 7584, Note_on_c, 1, 54, 70
1, 7592, Note_on_c, 0, 74, 0
1, 7592, Note_on_c, 0, 72, 75
1, 7600, Note_on_c, 0, 72, 0
1, 7600, Note_on_c, 0, 74, 75
1, 7607, Note_on_c, 1, 54, 0
1, 7608, Note_on_c, 0, 74, 0
1, 7608, Note_on_c, 0, 72, 75
1, 7608, Note_on_c, 1, 62, 70
1, 7616, Note_on_c, 0, 72, 0
1, 7616, Note_on_c, 0, 74, 75
1, 7624, Note_on_c, 0, 74, 0
1, 7624, Note_on_c, 0, 72, 75
1, 7631, Note_on_c, 1, 62, 0
1, 7632, Note_on_c, 0, 72, 0
1, 7632, Note_on_c, 0, 74, 75
1, 7632, Note_on_c, 1, 54, 70
1, 7640, Note_on_c, 0, 74, 0
1, 7640, Note_on_c, 0, 72, 75
1, 7648, Note_on_c, 0, 72, 0
1, 7648, Note_on_c, 0, 74, 75
1, 7655, Note_on_c, 1, 54, 0
1, 7656, Note_on_c, 0, 74, 0
1, 7656, Note_on_c, 0, 72, 75
1, 7656, Note_on_c, 1, 62, 70
1, 7664, Note_on_c, 0, 72, 0
1, 7664, Note_on_c, 0, 71, 75
1, 7672, Note_on_c, 0, 71, 0
1, 7672, Note_on_c, 0, 72, 75
1, 7679, Note_on_c, 1, 62, 0
1, 7680, Note_on_c, 0, 72, 0
1, 7680, Note_on_c, 0, 71, 75
1, 7680, Note_on_c, 1, 55, 70
1, 7703, Note_on_c, 1, 55, 0
1, 7704, Note_on_c, 1, 62, 70
1, 7727, Note_on_c, 1, 62, 0
1, 7728, Note_on_c, 1, 55, 70
1, 7751, Note_on_c, 1, 55, 0
1, 7752, Note_on_c, 1, 62, 70
1, 7769, Note_on_c, 0, 71, 0
1, 7775, Note_on_c, 1, 62, 0
1, 7776, Note_on_c, 0, 81, 75
1, 7776, Note_on_c, 1, 54, 70
1, 7799, Note_on_c, 1, 54, 0
1, 7800, Note_on_c, 1, 62, 70
1, 7823, Note_on_c, 1, 62, 0
1, 7824, Note_on_c, 1, 54, 70
1, 7843, Note_on_c, 0, 81, 0
1, 7847, Note_on_c, 1, 54, 0
1, 7848, Note_on_c, 0, 72, 75
1, 7848, Note_on_c, 1, 62, 70
1, 7871, Note_on_c, 0, 72, 0
1, 7871, Note_on_c, 1, 62, 0
1, 7872, Note_on_c, 0, 71, 75
1, 7872, Note_on_c, 1, 55, 75
1, 7887, Note_on_c, 0, 71, 0
1, 7888, Note_on_c, 0, 69, 75
1, 7903, Note_on_c, 0, 69, 0
1, 7904, Note_on_c, 0, 67, 75
1, 7917, Note_on_c, 1, 55, 0
1, 7919, Note_on_c, 0, 67, 0
1, 7920, Note_on_c, 0, 76, 75
1, 7920, Note_on_c, 1, 60, 75
1, 7935, Note_on_c, 0, 76, 0
1, 7936, Note_on_c, 0, 74, 75
1, 7951, Note_on_c, 0, 74, 0
1, 7952, Note_on_c, 0, 72, 75
1, 7965, Note_on_c, 1, 60, 0
1, 7967, Note_on_c, 0, 72, 0
1, 7968, Note_on_c, 0, 71, 75
1, 7968, Note_on_c, 1, 62, 75
1, 8013, Note_on_c, 0, 71, 0
1, 8013, Note_on_c, 1, 62, 0
1, 8016, Note_on_c, 0, 71, 75
1, 8016, Note_on_c, 1, 50, 75
1, 8024, Note_on_c, 0, 71, 0
1, 8024, Note_on_c, 0, 69, 75
1, 8032, Note_on_c, 0, 69, 0
1, 8032, Note_on_c, 0, 71, 75
1, 8040, Note_on_c, 0, 71, 0
1, 8040, Note_on_c, 0, 69, 75
1, 8048, Note_on_c, 0, 69, 0
1, 8048, Note_on_c, 0, 67, 75
1, 8056, Note_on_c, 0, 67, 0
1, 8056, Note_on_c, 0, 69, 75
1, 8061, Note_on_c, 1, 50, 0
1, 8064, Note_on_c, 0, 69, 0
1, 8064, Note_on_c, 0, 67, 75
1, 8064, Note_on_c, 1, 55, 75
1, 8109, Note_on_c, 1, 55, 0
1, 8112, Note_on_c, 1, 50, 75
1, 8153, Note_on_c, 0, 67, 0
1, 8157, Note_on_c, 1, 50, 0
1, 8160, Note_on_c, 1, 43, 75
1, 8205, Note_on_c, 1, 43, 0
1, 8208, Note_on_c, 0, 62, 75
1, 8253, Note_on_c, 0, 62, 0
1, 8256, Note_on_c, 0, 67, 75
1, 8256, Note_on_c, 1, 59, 75
1, 8256, Note_on_c, 1, 55, 75
1, 8268, Note_on_c, 0, 67, 0
1, 8268, Note_on_c, 0, 66, 75
1, 8280, Note_on_c, 0, 66, 0
1, 8280, Note_on_c, 0, 67, 75
1, 8292, Note_on_c, 0, 67, 0
1, 8292, Note_on_c, 0, 69, 75
1, 8301, Note_on_c, 1, 59, 0
1, 8301, Note_on_c, 1, 55, 0
1, 8304, Note_on_c, 0, 69, 0
1, 8304, Note_on_c, 0, 71, 75
1, 8349, Note_on_c, 0, 71, 0
1, 8352, Note_on_c, 0, 71, 75
1, 8352, Note_on_c, 1, 59, 75
1, 8352, Note_on_c, 1, 55, 75
1, 8364, Note_on_c, 0, 71, 0
1, 8364, Note_on_c, 0, 69, 75
1, 8376, Note_on_c, 0, 69, 0
1, 8376, Note_on_c, 0, 71, 75
1, 8388, Note_on_c, 0, 71, 0
1, 8388, Note_on_c, 0, 72, 75
1, 8397, Note_on_c, 1, 59, 0
1, 8397, Note_on_c, 1, 55, 0
1, 8400, Note_on_c, 0, 72, 0
1, 8400, Note_on_c, 0, 74, 75
1, 8445, Note_on_c, 0, 74, 0
1, 8448, Note_on_c, 0, 74, 75
1, 8448, Note_on_c, 0, 71, 75
1, 8472, Note_on_c, 1, 43, 75
1, 8495, Note_on_c, 1, 43, 0
1, 8496, Note_on_c, 1, 47, 75
1, 8515, Note_on_c, 0, 74, 0
1, 8515, Note_on_c, 0, 71, 0
1, 8519, Note_on_c, 1, 47, 0
1, 8520, Note_on_c, 0, 72, 75
1, 8520, Note_on_c, 0, 69, 75
1, 8520, Note_on_c, 1, 50, 75
1, 8543, Note_on_c, 0, 72, 0
1, 8543, Note_on_c, 0, 69, 0
1, 8543, Note_on_c, 1, 50, 0
1, 8544, Note_on_c, 0, 71, 75
1, 8544, Note_on_c, 0, 67, 75
1, 8544, Note_on_c, 1, 55, 75
1, 8589, Note_on_c, 0, 71, 0
1, 8589, Note_on_c, 0, 67, 0
1, 8589, Note_on_c, 1, 55, 0
1, 8592, Note_on_c, 0, 62, 75
1, 8592, Note_on_c, 1, 59, 75
1, 8615, Note_on_c, 0, 62, 0
1, 8616, Note_on_c, 0, 67, 75
1, 8637, Note_on_c, 1, 59, 0
1, 8639, Note_on_c, 0, 67, 0
1, 8640, Note_on_c, 0, 66, 75
1, 8640, Note_on_c, 1, 60, 75
1, 8648, Note_on_c, 0, 66, 0
1, 8648, Note_on_c, 0, 64, 75
1, 8656, Note_on_c, 0, 64, 0
1, 8656, Note_on_c, 0, 66, 75
1, 8664, Note_on_c, 0, 66, 0
1, 8664, Note_on_c, 0, 64, 75
1, 8672, Note_on_c, 0, 64, 0
1, 8672, Note_on_c, 0, 62, 75
1, 8680, Note_on_c, 0, 62, 0
1, 8680, Note_on_c, 0, 64, 75
1, 8685, Note_on_c, 1, 60, 0
1, 8688, Note_on_c, 0, 64, 0
1, 8688, Note_on_c, 0, 62, 75
1, 8688, Note_on_c, 1, 59, 75
1, 8711, Note_on_c, 0, 62, 0
1, 8712, Note_on_c, 0, 67, 75
1, 8733, Note_on_c, 1, 59, 0
1, 8735, Note_on_c, 0, 67, 0
1, 8736, Note_on_c, 0, 62, 75
1, 8736, Note_on_c, 1, 57, 75
1, 8781, Note_on_c, 0, 62, 0
1, 8781, Note_on_c, 1, 57, 0
1, 8784, Note_on_c, 0, 62, 75
1, 8784, Note_on_c, 1, 50, 75
1, 8792, Note_on_c, 0, 62, 0
1, 8792, Note_on_c, 0, 60, 75
1, 8800, Note_on_c, 0, 60, 0
1, 8800, Note_on_c, 0, 62, 75
1, 8808, Note_on_c, 0, 62, 0
1, 8808, Note_on_c, 0, 60, 75
1, 8816, Note_on_c, 0, 60, 0
1, 8816, Note_on_c, 0, 59, 75
1, 8824, Note_on_c, 0, 59, 0
1, 8824, Note_on_c, 0, 60, 75
1, 8829, Note_on_c, 1, 50, 0
1, 8832, Note_on_c, 0, 60, 0
1, 8832, Note_on_c, 0, 59, 75
1, 8832, Note_on_c, 1, 55, 75
1, 8877, Note_on_c, 1, 55, 0
1, 8880, Note_on_c, 1, 50, 75
1, 8921, Note_on_c, 0, 59, 0
1, 8925, Note_on_c, 1, 50, 0
1, 8928, Note_on_c, 1, 43, 75
1, 8973, Note_on_c, 1, 43, 0
1, 8976, Note_on_c, 0, 64, 75
1, 9021, Note_on_c, 0, 64, 0
1, 9024, Note_on_c, 0, 69, 75
1, 9024, Note_on_c, 1, 60, 75
1, 9024, Note_on_c, 1, 57, 75
1, 9036, Note_on_c, 0, 69, 0
1, 9036, Note_on_c, 0, 68, 75
1, 9048, Note_on_c, 0, 68, 0
1, 9048, Note_on_c, 0, 69, 75
1, 9060, Note_on_c, 0, 69, 0
1, 9060, Note_on_c, 0, 71, 75
1, 9069, Note_on_c, 1, 60, 0
1, 9069, Note_on_c, 1, 57, 0
1, 9072, Note_on_c, 0, 71, 0
1, 9072, Note_on_c, 0, 72, 75
1, 9117, Note_on_c, 0, 72, 0
1, 9120, Note_on_c, 0, 72, 75
1, 9120, Note_on_c, 1, 60, 75
1, 9120, Note_on_c, 1, 57, 75
1, 9132, Note_on_c, 0, 72, 0
1, 9132, Note_on_c, 0, 71, 75
1, 9144, Note_on_c, 0, 71, 0
1, 9144, Note_on_c, 0, 72, 75
1, 9156, Note_on_c, 0, 72, 0
1, 9156, Note_on_c, 0, 74, 75
1, 9165, Note_on_c, 1, 60, 0
1, 9165, Note_on_c, 1, 57, 0
1, 9168, Note_on_c, 0, 74, 0
1, 9168, Note_on_c, 0, 76, 75
1, 9213, Note_on_c, 0, 76, 0
1, 9216, Note_on_c, 0, 76, 75
1, 9216, Note_on_c, 0, 72, 75
1, 9240, Note_on_c, 1, 45, 75
1, 9263, Note_on_c, 1, 45, 0
1, 9264, Note_on_c, 1, 48, 75
1, 9283, Note_on_c, 0, 76, 0
1, 9283, Note_on_c, 0, 72, 0
1, 9287, Note_on_c, 1, 48, 0
1, 9288, Note_on_c, 0, 74, 75
1, 9288, Note_on_c, 0, 71, 75
1, 9288, Note_on_c, 1, 52, 75
1, 9311, Note_on_c, 0, 74, 0
1, 9311, Note_on_c, 0, 71, 0
1, 9311, Note_on_c, 1, 52, 0
1, 9312, Note_on_c, 0, 72, 75
1, 9312, Note_on_c, 0, 69, 75
1, 9312, Note_on_c, 1, 57, 75
1, 9357, Note_on_c, 0, 72, 0
1, 9357, Note_on_c, 0, 69, 0
1, 9360, Note_on_c, 0, 76, 75
1, 9401, Note_on_c, 1, 57, 0
1, 9405, Note_on_c, 0, 76, 0
1, 9408, Note_on_c, 0, 77, 75
1, 9420, Note_on_c, 0, 77, 0
1, 9420, Note_on_c, 0, 76, 75
1, 9432, Note_on_c, 0, 76, 0
1, 9432, Note_on_c, 0, 77, 75
1, 9444, Note_on_c, 0, 77, 0
1, 9444, Note_on_c, 0, 79, 75
1, 9456, Note_on_c, 0, 79, 0
1, 9456, Note_on_c, 0, 81, 75
1, 9456, Note_on_c, 1, 57, 64
1, 9456, Note_on_c, 1, 50, 64
1, 9501, Note_on_c, 0, 81, 0
1, 9503, Note_on_c, 1, 57, 0
1, 9503, Note_on_c, 1, 50, 0
1, 9504, Note_on_c, 1, 57, 64
1, 9504, Note_on_c, 1, 50, 64
1, 9551, Note_on_c, 1, 57, 0
1, 9551, Note_on_c, 1, 50, 0
1, 9552, Note_on_c, 0, 77, 75
1, 9552, Note_on_c, 1, 57, 64
1, 9552, Note_on_c, 1, 50, 64
1, 9597, Note_on_c, 0, 77, 0
1, 9599, Note_on_c, 1, 57, 0
1, 9599, Note_on_c, 1, 50, 0
1, 9600, Note_on_c, 0, 76, 75
1, 9612, Note_on_c, 0, 76, 0
1, 9612, Note_on_c, 0, 74, 75
1, 9624, Note_on_c, 0, 74, 0
1, 9624, Note_on_c, 0, 72, 75
1, 9636, Note_on_c, 0, 72, 0
1, 9636, Note_on_c, 0, 74, 75
1, 9648, Note_on_c, 0, 74, 0
1, 9648, Note_on_c, 0, 72, 75
1, 9648, Note_on_c, 1, 60, 64
1, 9648, Note_on_c, 1, 57, 64
1, 9693, Note_on_c, 0, 72, 0
1, 9695, Note_on_c, 1, 60, 0
1, 9695, Note_on_c, 1, 57, 0
1, 9696, Note_on_c, 1, 60, 64
1, 9696, Note_on_c, 1, 57, 64
1, 9743, Note_on_c, 1, 60, 0
1, 9743, Note_on_c, 1, 57, 0
1, 9744, Note_on_c, 0, 72, 75
1, 9744, Note_on_c, 1, 60, 64
1, 9744, Note_on_c, 1, 57, 64
1, 9789, Note_on_c, 0, 72, 0
1, 9791, Note_on_c, 1, 60, 0
1, 9791, Note_on_c, 1, 57, 0
1, 9792, Note_on_c, 0, 71, 75
1, 9804, Note_on_c, 0, 71, 0
1, 9804, Note_on_c, 0, 69, 75
1, 9816, Note_on_c, 0, 69, 0
1, 9816, Note_on_c, 0, 71, 75
1, 9828, Note_on_c, 0, 71, 0
1, 9828, Note_on_c, 0, 72, 75
1, 9840, Note_on_c, 0, 72, 0
1, 9840, Note_on_c, 0, 74, 75
1, 9840, Note_on_c, 1, 59, 64
1, 9840, Note_on_c, 1, 52, 64
1, 9885, Note_on_c, 0, 74, 0
1, 9887, Note_on_c, 1, 59, 0
1, 9887, Note_on_c, 1, 52, 0
1, 9888, Note_on_c, 1, 59, 64
1, 9888, Note_on_c, 1, 52, 64
1, 9935, Note_on_c, 1, 59, 0
1, 9935, Note_on_c, 1, 52, 0
1, 9936, Note_on_c, 0, 71, 75
1, 9936, Note_on_c, 1, 56, 64
1, 9936, Note_on_c, 1, 52, 64
1, 9981, Note_on_c, 0, 71, 0
1, 9983, Note_on_c, 1, 56, 0
1, 9983, Note_on_c, 1, 52, 0
1, 9984, Note_on_c, 0, 74, 75
1, 9984, Note_on_c, 1, 57, 75
1, 9984, Note_on_c, 1, 52, 64
1, 9992, Note_on_c, 0, 74, 0
1, 9992, Note_on_c, 0, 72, 75
1, 10000, Note_on_c, 0, 72, 0
1, 10000, Note_on_c, 0, 74, 75
1, 10008, Note_on_c, 0, 74, 0
1, 10008, Note_on_c, 0, 72, 75
1, 10016, Note_on_c, 0, 72, 0
1, 10016, Note_on_c, 0, 71, 75
1, 10024, Note_on_c, 0, 71, 0
1, 10024, Note_on_c, 0, 72, 75
1, 10029, Note_on_c, 1, 57, 0
1, 10032, Note_on_c, 0, 72, 0
1, 10032, Note_on_c, 0, 71, 75
1, 10032, Note_on_c, 1, 56, 75
1, 10073, Note_on_c, 1, 52, 0
1, 10077, Note_on_c, 0, 71, 0
1, 10077, Note_on_c, 1, 56, 0
1, 10080, Note_on_c, 0, 76, 75
1, 10090, Note_on_c, 0, 76, 0
1, 10104, Note_on_c, 0, 71, 75
1, 10114, Note_on_c, 0, 71, 0
1, 10128, Note_on_c, 0, 68, 75
1, 10128, Note_on_c, 1, 62, 75
1, 10138, Note_on_c, 0, 68, 0
1, 10148, Note_on_c, 1, 62, 0
1, 10152, Note_on_c, 0, 64, 75
1, 10175, Note_on_c, 0, 64, 0
1, 10176, Note_on_c, 0, 69, 75
1, 10176, Note_on_c, 1, 60, 75
1, 10188, Note_on_c, 0, 69, 0
1, 10188, Note_on_c, 0, 68, 75
1, 10200, Note_on_c, 0, 68, 0
1, 10200, Note_on_c, 0, 69, 75
1, 10212, Note_on_c, 0, 69, 0
1, 10212, Note_on_c, 0, 71, 75
1, 10221, Note_on_c, 1, 60, 0
1, 10224, Note_on_c, 0, 71, 0
1, 10224, Note_on_c, 0, 72, 75
1, 10224, Note_on_c, 1, 57, 75
1, 10269, Note_on_c, 0, 72, 0
1, 10269, Note_on_c, 1, 57, 0
1, 10272, Note_on_c, 0, 81, 75
1, 10282, Note_on_c, 0, 81, 0
1, 10296, Note_on_c, 0, 76, 75
1, 10306, Note_on_c, 0, 76, 0
1, 10320, Note_on_c, 0, 73, 75
1, 10320, Note_on_c, 1, 55, 75
1, 10330, Note_on_c, 0, 73, 0
1, 10340, Note_on_c, 1, 55, 0
1, 10344, Note_on_c, 0, 69, 75
1, 10367, Note_on_c, 0, 69, 0
1, 10368, Note_on_c, 0, 74, 75
1, 10368, Note_on_c, 1, 53, 75
1, 10380, Note_on_c, 0, 74, 0
1, 10380, Note_on_c, 0, 73, 75
1, 10392, Note_on_c, 0, 73, 0
1, 10392, Note_on_c, 0, 74, 75
1, 10404, Note_on_c, 0, 74, 0
1, 10404, Note_on_c, 0, 76, 75
1, 10413, Note_on_c, 1, 53, 0
1, 10416, Note_on_c, 0, 76, 0
1, 10416, Note_on_c, 0, 77, 75
1, 10416, Note_on_c, 1, 50, 75
1, 10461, Note_on_c, 0, 77, 0
1, 10461, Note_on_c, 1, 50, 0
1, 10464, Note_on_c, 0, 79, 75
1, 10474, Note_on_c, 0, 79, 0
1, 10488, Note_on_c, 0, 74, 75
1, 10498, Note_on_c, 0, 74, 0
1, 10512, Note_on_c, 0, 71, 75
1, 10512, Note_on_c, 1, 53, 75
1, 10522, Note_on_c, 0, 71, 0
1, 10532, Note_on_c, 1, 53, 0
1, 10536, Note_on_c, 0, 67, 75
1, 10559, Note_on_c, 0, 67, 0
1, 10560, Note_on_c, 0, 72, 75
1, 10560, Note_on_c, 1, 52, 75
1, 10572, Note_on_c, 0, 72, 0
1, 10572, Note_on_c, 0, 71, 75
1, 10584, Note_on_c, 0, 71, 0
1, 10584, Note_on_c, 0, 72, 75
1, 10596, Note_on_c, 0, 72, 0
1, 10596, Note_on_c, 0, 74, 75
1, 10605, Note_on_c, 1, 52, 0
1, 10608, Note_on_c, 0, 74, 0
1, 10608, Note_on_c, 0, 76, 75
1, 10608, Note_on_c, 1, 48, 75
1, 10653, Note_on_c, 0, 76, 0
1, 10653, Note_on_c, 1, 48, 0
1, 10656, Note_on_c, 0, 81, 75
1, 10656, Note_on_c, 1, 52, 70
1, 10664, Note_on_c, 0, 81, 0
1, 10664, Note_on_c, 0, 79, 75
1, 10672, Note_on_c, 0, 79, 0
1, 10672, Note_on_c, 0, 81, 75
1, 10679, Note_on_c, 1, 52, 0
1, 10680, Note_on_c, 0, 81, 0
1, 10680, Note_on_c, 0, 79, 75
1, 10680, Note_on_c, 1, 60, 70
1, 10688, Note_on_c, 0, 79, 0
1, 10688, Note_on_c, 0, 81, 75
1, 10696, Note_on_c, 0, 81, 0
1, 10696, Note_on_c, 0, 79, 75
1, 10703, Note_on_c, 1, 60, 0
1, 10704, Note_on_c, 0, 79, 0
1, 10704, Note_on_c, 0, 81, 75
1, 10704, Note_on_c, 1, 52, 70
1, 10712, Note_on_c, 0, 81, 0
1, 10712, Note_on_c, 0, 79, 75
1, 10720, Note_on_c, 0, 79, 0
1, 10720, Note_on_c, 0, 81, 75
1, 10727, Note_on_c, 1, 52, 0
1, 10728, Note_on_c, 0, 81, 0
1, 10728, Note_on_c, 0, 79, 75
1, 10728, Note_on_c, 1, 60, 70
1, 10736, Note_on_c, 0, 79, 0
1, 10736, Note_on_c, 0, 77, 75
1, 10744, Note_on_c, 0, 77, 0
1, 10744, Note_on_c, 0, 79, 75
1, 10751, Note_on_c, 1, 60, 0
1, 10752, Note_on_c, 0, 79, 0
1, 10752, Note_on_c, 0, 81, 75
1, 10752, Note_on_c, 1, 53, 70
1, 10775, Note_on_c, 1, 53, 0
1, 10776, Note_on_c, 1, 60, 70
1, 10799, Note_on_c, 1, 60, 0
1, 10800, Note_on_c, 1, 53, 70
1, 10823, Note_on_c, 1, 53, 0
1, 10824, Note_on_c, 1, 60, 70
1, 10841, Note_on_c, 0, 81, 0
1, 10847, Note_on_c, 1, 60, 0
1, 10848, Note_on_c, 0, 74, 75
1, 10848, Note_on_c, 1, 54, 70
1, 10856, Note_on_c, 0, 74, 0
1, 10856, Note_on_c, 0, 72, 75
1, 10864, Note_on_c, 0, 72, 0
1, 10864, Note_on_c, 0, 74, 75
1, 10871, Note_on_c, 1, 54, 0
1, 10872, Note_on_c, 0, 74, 0
1, 10872, Note_on_c, 0, 72, 75
1, 10872, Note_on_c, 1, 60, 70
1, 10880, Note_on_c, 0, 72, 0
1, 10880, Note_on_c, 0, 74, 75
1, 10888, Note_on_c, 0, 74, 0
1, 10888, Note_on_c, 0, 72, 75
1, 10895, Note_on_c, 1, 60, 0
1, 10896, Note_on_c, 0, 72, 0
1, 10896, Note_on_c, 0, 74, 75
1, 10896, Note_on_c, 1, 54, 70
1, 10904, Note_on_c, 0, 74, 0
1, 10904, Note_on_c, 0, 72, 75
1, 10912, Note_on_c, 0, 72, 0
1, 10912, Note_on_c, 0, 71, 75
1, 10919, Note_on_c, 1, 54, 0
1, 10920, Note_on_c, 1, 60, 70
1, 10928, Note_on_c, 0, 71, 0
1, 10928, Note_on_c, 0, 72, 75
1, 10943, Note_on_c, 1, 60, 0
1, 10944, Note_on_c, 0, 72, 0
1, 10944, Note_on_c, 0, 71, 75
1, 10944, Note_on_c, 1, 55, 70
1, 10959, Note_on_c, 0, 71, 0
1, 10960, Note_on_c, 0, 72, 75
1, 10975, Note_on_c, 0, 72, 0
1, 10976, Note_on_c, 0, 74, 75
1, 10989, Note_on_c, 1, 55, 0
1, 10991, Note_on_c, 0, 74, 0
1, 10992, Note_on_c, 0, 67, 75
1, 10992, Note_on_c, 1, 43, 70
1, 11037, Note_on_c, 0, 67, 0
1, 11037, Note_on_c, 1, 43, 0
1, 11040, Note_on_c, 0, 81, 75
1, 11040, Note_on_c, 1, 52, 70
1, 11048, Note_on_c, 0, 81, 0
1, 11048, Note_on_c, 0, 79, 75
1, 11056, Note_on_c, 0, 79, 0
1, 11056, Note_on_c, 0, 81, 75
1, 11063, Note_on_c, 1, 52, 0
1, 11064, Note_on_c, 0, 81, 0
1, 11064, Note_on_c, 0, 79, 75
1, 11064, Note_on_c, 1, 60, 70
1, 11072, Note_on_c, 0, 79, 0
1, 11072, Note_on_c, 0, 81, 75
1, 11080, Note_on_c, 0, 81, 0
1, 11080, Note_on_c, 0, 79, 75
1, 11087, Note_on_c, 1, 60, 0
1, 11088, Note_on_c, 0, 79, 0
1, 11088, Note_on_c, 0, 81, 75
1, 11088, Note_on_c, 1, 52, 70
1, 11096, Note_on_c, 0, 81, 0
1, 11096, Note_on_c, 0, 79, 75
1, 11104, Note_on_c, 0, 79, 0
1, 11104, Note_on_c, 0, 81, 75
1, 11111, Note_on_c, 1, 52, 0
1, 11112, Note_on_c, 0, 81, 0
1, 11112, Note_on_c, 0, 79, 75
1, 11112, Note_on_c, 1, 60, 70
1, 11120, Note_on_c, 0, 79, 0
1, 11120, Note_on_c, 0, 77, 75
1, 11128, Note_on_c, 0, 77, 0
1, 11128, Note_on_c, 0, 79, 75
1, 11135, Note_on_c, 1, 60, 0
1, 11136, Note_on_c, 0, 79, 0
1, 11136, Note_on_c, 0, 81, 75
1, 11136, Note_on_c, 1, 53, 70
1, 11159, Note_on_c, 1, 53, 0
1, 11160, Note_on_c, 1, 60, 71
1, 11183, Note_on_c, 1, 60, 0
1, 11184, Note_on_c, 1, 53, 72
1, 11203, Note_on_c, 0, 81, 0
1, 11207, Note_on_c, 1, 53, 0
1, 11208, Note_on_c, 0, 83, 77
1, 11208, Note_on_c, 1, 60, 73
1, 11231, Note_on_c, 0, 83, 0
1, 11231, Note_on_c, 1, 60, 0
1, 11232, Note_on_c, 0, 84, 94
1, 11232, Note_on_c, 1, 54, 74
1, 11255, Note_on_c, 1, 54, 0
1, 11256, Note_on_c, 1, 60, 75
1, 11279, Note_on_c, 1, 60, 0
1, 11280, Note_on_c, 0, 84, 0
1, 11280, Note_on_c, 0, 76, 80
1, 11280, Note_on_c, 1, 54, 75
1, 11303, Note_on_c, 1, 54, 0
1, 11304, Note_on_c, 1, 60, 75
1, 11325, Note_on_c, 0, 76, 0
1, 11327, Note_on_c, 1, 60, 0
1, 11328, Note_on_c, 0, 77, 80
1, 11328, Note_on_c, 1, 60, 75
1, 11328, Note_on_c, 1, 55, 64
1, 11336, Note_on_c, 0, 77, 0
1, 11336, Note_on_c, 0, 76, 80
1, 11344, Note_on_c, 0, 76, 0
1, 11344, Note_on_c, 0, 77, 80
1, 11352, Note_on_c, 0, 77, 0
1, 11352, Note_on_c, 0, 76, 80
1, 11360, Note_on_c, 0, 76, 0
1, 11360, Note_on_c, 0, 74, 80
1, 11368, Note_on_c, 0, 74, 0
1, 11368, Note_on_c, 0, 76, 80
1, 11373, Note_on_c, 1, 60, 0
1, 11376, Note_on_c, 0, 76, 0
1, 11376, Note_on_c, 0, 74, 80
1, 11376, Note_on_c, 1, 59, 75
1, 11417, Note_on_c, 1, 55, 0
1, 11421, Note_on_c, 0, 74, 0
1, 11421, Note_on_c, 1, 59, 0
1, 11472, Note_on_c, 0, 67, 75
1, 11517, Note_on_c, 0, 67, 0
1, 11520, Note_on_c, 0, 72, 75
1, 11520, Note_on_c, 1, 52, 75
1, 11520, Note_on_c, 1, 48, 75
1, 11532, Note_on_c, 0, 72, 0
1, 11532, Note_on_c, 0, 71, 75
1, 11544, Note_on_c, 0, 71, 0
1, 11544, Note_on_c, 0, 72, 75
1, 11556, Note_on_c, 0, 72, 0
1, 11556, Note_on_c, 0, 74, 75
1, 11565, Note_on_c, 1, 52, 0
1, 11565, Note_on_c, 1, 48, 0
1, 11568, Note_on_c, 0, 74, 0
1, 11568, Note_on_c, 0, 76, 75
1, 11613, Note_on_c, 0, 76, 0
1, 11616, Note_on_c, 0, 76, 75
1, 11616, Note_on_c, 1, 52, 75
1, 11616, Note_on_c, 1, 48, 75
1, 11628, Note_on_c, 0, 76, 0
1, 11628, Note_on_c, 0, 74, 75
1, 11640, Note_on_c, 0, 74, 0
1, 11640, Note_on_c, 0, 76, 75
1, 11652, Note_on_c, 0, 76, 0
1, 11652, Note_on_c, 0, 77, 75
1, 11661, Note_on_c, 1, 52, 0
1, 11661, Note_on_c, 1, 48, 0
1, 11664, Note_on_c, 0, 77, 0
1, 11664, Note_on_c, 0, 79, 75
1, 11709, Note_on_c, 0, 79, 0
1, 11712, Note_on_c, 0, 79, 75
1, 11712, Note_on_c, 0, 76, 75
1, 11736, Note_on_c, 1, 48, 75
1, 11759, Note_on_c, 1, 48, 0
1, 11760, Note_on_c, 1, 52, 75
1, 11779, Note_on_c, 0, 79, 0
1, 11779, Note_on_c, 0, 76, 0
1, 11783, Note_on_c, 1, 52, 0
1, 11784, Note_on_c, 0, 77, 75
1, 11784, Note_on_c, 0, 74, 75
1, 11784, Note_on_c, 1, 55, 75
1, 11807, Note_on_c, 0, 77, 0
1, 11807, Note_on_c, 0, 74, 0
1, 11807, Note_on_c, 1, 55, 0
1, 11808, Note_on_c, 0, 76, 75
1, 11808, Note_on_c, 0, 72, 75
1, 11808, Note_on_c, 1, 60, 75
1, 11853, Note_on_c, 0, 76, 0
1, 11853, Note_on_c, 0, 72, 0
1, 11853, Note_on_c, 1, 60, 0
1, 11856, Note_on_c, 0, 67, 75
1, 11856, Note_on_c, 1, 64, 75
1, 11879, Note_on_c, 0, 67, 0
1, 11880, Note_on_c, 0, 72, 75
1, 11901, Note_on_c, 1, 64, 0
1, 11903, Note_on_c, 0, 72, 0
1, 11904, Note_on_c, 0, 71, 75
1, 11904, Note_on_c, 1, 65, 75
1, 11912, Note_on_c, 0, 71, 0
1, 11912, Note_on_c, 0, 69, 75
1, 11920, Note_on_c, 0, 69, 0
1, 11920, Note_on_c, 0, 71, 75
1, 11928, Note_on_c, 0, 71, 0
1, 11928, Note_on_c, 0, 69, 75
1, 11936, Note_on_c, 0, 69, 0
1, 11936, Note_on_c, 0, 67, 75
1, 11944, Note_on_c, 0, 67, 0
1, 11944, Note_on_c, 0, 69, 75
1, 11949, Note_on_c, 1, 65, 0
1, 11952, Note_on_c, 0, 69, 0
1, 11952, Note_on_c, 0, 67, 75
1, 11952, Note_on_c, 1, 64, 75
1, 11975, Note_on_c, 0, 67, 0
1, 11976, Note_on_c, 0, 72, 75
1, 11997, Note_on_c, 1, 64, 0
1, 11999, Note_on_c, 0, 72, 0
1, 12000, Note_on_c, 0, 67, 75
1, 12000, Note_on_c, 1, 62, 75
1, 12045, Note_on_c, 0, 67, 0
1, 12045, Note_on_c, 1, 62, 0
1, 12048, Note_on_c, 0, 67, 75
1, 12048, Note_on_c, 1, 55, 75
1, 12056, Note_on_c, 0, 67, 0
1, 12056, Note_on_c, 0, 65, 75
1, 12064, Note_on_c, 0, 65, 0
1, 12064, Note_on_c, 0, 67, 75
1, 12072, Note_on_c, 0, 67, 0
1, 12072, Note_on_c, 0, 65, 75
1, 12080, Note_on_c, 0, 65, 0
1, 12080, Note_on_c, 0, 64, 75
1, 12088, Note_on_c, 0, 64, 0
1, 12088, Note_on_c, 0, 65, 75
1, 12093, Note_on_c, 1, 55, 0
1, 12096, Note_on_c, 0, 65, 0
1, 12096, Note_on_c, 0, 65, 75
1, 12096, Note_on_c, 1, 60, 75
1, 12141, Note_on_c, 0, 65, 0
1, 12141, Note_on_c, 1, 60, 0
1, 12144, Note_on_c, 0, 64, 75
1, 12144, Note_on_c, 1, 55, 75
1, 12189, Note_on_c, 0, 64, 0
1, 12189, Note_on_c, 1, 55, 0
1, 12192, Note_on_c, 1, 48, 75
1, 12237, Note_on_c, 1, 48, 0
1, 12240, Note_on_c, 0, 67, 75
1, 12285, Note_on_c, 0, 67, 0
1, 12288, Note_on_c, 0, 72, 75
1, 12288, Note_on_c, 1, 52, 75
1, 12288, Note_on_c, 1, 48, 75
1, 12300, Note_on_c, 0, 72, 0
1, 12300, Note_on_c, 0, 71, 75
1, 12312, Note_on_c, 0, 71, 0
1, 12312, Note_on_c, 0, 72, 75
1, 12324, Note_on_c, 0, 72, 0
1, 12324, Note_on_c, 0, 74, 75
1, 12333, Note_on_c, 1, 52, 0
1, 12333, Note_on_c, 1, 48, 0
1, 12336, Note_on_c, 0, 74, 0
1, 12336, Note_on_c, 0, 76, 75
1, 12381, Note_on_c, 0, 76, 0
1, 12384, Note_on_c, 0, 76, 75
1, 12384, Note_on_c, 1, 52, 75
1, 12384, Note_on_c, 1, 48, 75
1, 12396, Note_on_c, 0, 76, 0
1, 12396, Note_on_c, 0, 74, 75
1, 12408, Note_on_c, 0, 74, 0
1, 12408, Note_on_c, 0, 76, 75
1, 12420, Note_on_c, 0, 76, 0
1, 12420, Note_on_c, 0, 77, 75
1, 12429, Note_on_c, 1, 52, 0
1, 12429, Note_on_c, 1, 48, 0
1, 12432, Note_on_c, 0, 77, 0
1, 12432, Note_on_c, 0, 79, 75
1, 12477, Note_on_c, 0, 79, 0
1, 12480, Note_on_c, 0, 79, 75
1, 12480, Note_on_c, 0, 76, 75
1, 12504, Note_on_c, 1, 48, 75
1, 12527, Note_on_c, 1, 48, 0
1, 12528, Note_on_c, 1, 52, 75
1, 12551, Note_on_c, 1, 52, 0
1, 12552, Note_on_c, 0, 79, 0
1, 12552, Note_on_c, 0, 76, 0
1, 12552, Note_on_c, 0, 77, 75
1, 12552, Note_on_c, 0, 74, 75
1, 12552, Note_on_c, 1, 55, 75
1, 12575, Note_on_c, 0, 77, 0
1, 12575, Note_on_c, 0, 74, 0
1, 12575, Note_on_c, 1, 55, 0
1, 12576, Note_on_c, 0, 76, 75
1, 12576, Note_on_c, 0, 72, 75
1, 12576, Note_on_c, 1, 60, 75
1, 12621, Note_on_c, 0, 76, 0
1, 12621, Note_on_c, 0, 72, 0
1, 12621, Note_on_c, 1, 60, 0
1, 12624, Note_on_c, 0, 84, 75
1, 12647, Note_on_c, 0, 84, 0
1, 12648, Note_on_c, 0, 83, 75
1, 12671, Note_on_c, 0, 83, 0
1, 12672, Note_on_c, 0, 83, 75
1, 12672, Note_on_c, 1, 65, 75
1, 12672, Note_on_c, 1, 55, 64
1, 12680, Note_on_c, 0, 83, 0
1, 12680, Note_on_c, 0, 81, 75
1, 12688, Note_on_c, 0, 81, 0
1, 12688, Note_on_c, 0, 83, 75
1, 12696, Note_on_c, 0, 83, 0
1, 12696, Note_on_c, 0, 81, 75
1, 12704, Note_on_c, 0, 81, 0
1, 12704, Note_on_c, 0, 79, 75
1, 12712, Note_on_c, 0, 79, 0
1, 12712, Note_on_c, 0, 81, 75
1, 12717, Note_on_c, 1, 65, 0
1, 12720, Note_on_c, 0, 81, 0
1, 12720, Note_on_c, 0, 79, 75
1, 12720, Note_on_c, 1, 64, 75
1, 12761, Note_on_c, 1, 55, 0
1, 12765, Note_on_c, 0, 79, 0
1, 12765, Note_on_c, 1, 64, 0
1, 12768, Note_on_c, 0, 79, 75
1, 12768, Note_on_c, 1, 62, 75
1, 12768, Note_on_c, 1, 55, 64
1, 12776, Note_on_c, 0, 79, 0
1, 12776, Note_on_c, 0, 77, 75
1, 12784, Note_on_c, 0, 77, 0
1, 12784, Note_on_c, 0, 79, 75
1, 12792, Note_on_c, 0, 79, 0
1, 12792, Note_on_c, 0, 77, 75
1, 12800, Note_on_c, 0, 77, 0
1, 12800, Note_on_c, 0, 76, 75
1, 12808, Note_on_c, 0, 76, 0
1, 12808, Note_on_c, 0, 77, 75
1, 12813, Note_on_c, 1, 62, 0
1, 12816, Note_on_c, 0, 77, 0
1, 12816, Note_on_c, 0, 76, 75
1, 12816, Note_on_c, 1, 60, 75
1, 12857, Note_on_c, 1, 55, 0
1, 12861, Note_on_c, 0, 76, 0
1, 12861, Note_on_c, 1, 60, 0
1, 12864, Note_on_c, 0, 77, 75
1, 12864, Note_on_c, 1, 60, 75
1, 12864, Note_on_c, 1, 55, 64
1, 12872, Note_on_c, 0, 77, 0
1, 12872, Note_on_c, 0, 76, 75
1, 12880, Note_on_c, 0, 76, 0
1, 12880, Note_on_c, 0, 77, 75
1, 12888, Note_on_c, 0, 77, 0
1, 12888, Note_on_c, 0, 76, 75
1, 12896, Note_on_c, 0, 76, 0
1, 12896, Note_on_c, 0, 74, 75
1, 12904, Note_on_c, 0, 74, 0
1, 12904, Note_on_c, 0, 76, 75
1, 12909, Note_on_c, 1, 60, 0
1, 12912, Note_on_c, 0, 76, 0
1, 12912, Note_on_c, 0, 74, 75
1, 12912, Note_on_c, 1, 59, 75
1, 12953, Note_on_c, 1, 55, 0
1, 12957, Note_on_c, 0, 74, 0
1, 12957, Note_on_c, 1, 59, 0
1, 13008, Note_on_c, 0, 67, 75
1, 13053, Note_on_c, 0, 67, 0
1, 13056, Note_on_c, 0, 72, 75
1, 13068, Note_on_c, 0, 72, 0
1, 13068, Note_on_c, 0, 71, 75
1, 13080, Note_on_c, 0, 71, 0
1, 13080, Note_on_c, 0, 72, 75
1, 13092, Note_on_c, 0, 72, 0
1, 13092, Note_on_c, 0, 74, 75
1, 13104, Note_on_c, 0, 74, 0
1, 13104, Note_on_c, 0, 76, 75
1, 13104, Note_on_c, 1, 55, 64
1, 13104, Note_on_c, 1, 48, 64
1, 13149, Note_on_c, 0, 76, 0
1, 13151, Note_on_c, 1, 55, 0
1, 13151, Note_on_c, 1, 48, 0
1, 13152, Note_on_c, 1, 55, 64
1, 13152, Note_on_c, 1, 48, 64
1, 13199, Note_on_c, 1, 55, 0
1, 13199, Note_on_c, 1, 48, 0
1, 13200, Note_on_c, 0, 76, 75
1, 13200, Note_on_c, 1, 55, 64
1, 13200, Note_on_c, 1, 48, 64
1, 13245, Note_on_c, 0, 76, 0
1, 13247, Note_on_c, 1, 55, 0
1, 13247, Note_on_c, 1, 48, 0
1, 13248, Note_on_c, 0, 77, 75
1, 13260, Note_on_c, 0, 77, 0
1, 13260, Note_on_c, 0, 76, 75
1, 13272, Note_on_c, 0, 76, 0
1, 13272, Note_on_c, 0, 74, 75
1, 13284, Note_on_c, 0, 74, 0
1, 13284, Note_on_c, 0, 76, 75
1, 13296, Note_on_c, 0, 76, 0
1, 13296, Note_on_c, 0, 74, 75
1, 13296, Note_on_c, 1, 55, 64
1, 13296, Note_on_c, 1, 47, 64
1, 13341, Note_on_c, 0, 74, 0
1, 13343, Note_on_c, 1, 55, 0
1, 13343, Note_on_c, 1, 47, 0
1, 13344, Note_on_c, 1, 55, 64
1, 13344, Note_on_c, 1, 47, 64
1, 13391, Note_on_c, 1, 55, 0
1, 13391, Note_on_c, 1, 47, 0
1, 13392, Note_on_c, 0, 67, 75
1, 13392, Note_on_c, 1, 55, 64
1, 13392, Note_on_c, 1, 47, 64
1, 13437, Note_on_c, 0, 67, 0
1, 13439, Note_on_c, 1, 55, 0
1, 13439, Note_on_c, 1, 47, 0
1, 13440, Note_on_c, 0, 74, 75
1, 13452, Note_on_c, 0, 74, 0
1, 13452, Note_on_c, 0, 72, 75
1, 13464, Note_on_c, 0, 72, 0
1, 13464, Note_on_c, 0, 74, 75
1, 13476, Note_on_c, 0, 74, 0
1, 13476, Note_on_c, 0, 76, 75
1, 13488, Note_on_c, 0, 76, 0
1, 13488, Note_on_c, 0, 77, 75
1, 13488, Note_on_c, 1, 55, 64
1, 13488, Note_on_c, 1, 47, 64
1, 13533, Note_on_c, 0, 77, 0
1, 13535, Note_on_c, 1, 55, 0
1, 13535, Note_on_c, 1, 47, 0
1, 13536, Note_on_c, 1, 55, 64
1, 13536, Note_on_c, 1, 47, 64
1, 13583, Note_on_c, 1, 55, 0
1, 13583, Note_on_c, 1, 47, 0
1, 13584, Note_on_c, 0, 74, 75
1, 13584, Note_on_c, 1, 55, 64
1, 13584, Note_on_c, 1, 47, 64
1, 13629, Note_on_c, 0, 74, 0
1, 13631, Note_on_c, 1, 55, 0
1, 13631, Note_on_c, 1, 47, 0
1, 13632, Note_on_c, 0, 76, 75
1, 13644, Note_on_c, 0, 76, 0
1, 13644, Note_on_c, 0, 74, 75
1, 13656, Note_on_c, 0, 74, 0
1, 13656, Note_on_c, 0, 76, 75
1, 13668, Note_on_c, 0, 76, 0
1, 13668, Note_on_c, 0, 77, 75
1, 13680, Note_on_c, 0, 77, 0
1, 13680, Note_on_c, 0, 79, 75
1, 13680, Note_on_c, 1, 52, 64
1, 13680, Note_on_c, 1, 48, 64
1, 13725, Note_on_c, 0, 79, 0
1, 13727, Note_on_c, 1, 52, 0
1, 13727, Note_on_c, 1, 48, 0
1, 13728, Note_on_c, 1, 52, 64
1, 13728, Note_on_c, 1, 48, 64
1, 13775, Note_on_c, 1, 52, 0
1, 13775, Note_on_c, 1, 48, 0
1, 13776, Note_on_c, 0, 67, 75
1, 13776, Note_on_c, 1, 52, 64
1, 13776, Note_on_c, 1, 48, 64
1, 13799, Note_on_c, 0, 67, 0
1, 13800, Note_on_c, 0, 72, 75
1, 13823, Note_on_c, 0, 72, 0
1, 13823, Note_on_c, 1, 52, 0
1, 13823, Note_on_c, 1, 48, 0
1, 13824, Note_on_c, 0, 71, 75
1, 13824, Note_on_c, 1, 53, 75
1, 13824, Note_on_c, 1, 48, 64
1, 13832, Note_on_c, 0, 71, 0
1, 13832, Note_on_c, 0, 69, 75
1, 13840, Note_on_c, 0, 69, 0
1, 13840, Note_on_c, 0, 71, 75
1, 13848, Note_on_c, 0, 71, 0
1, 13848, Note_on_c, 0, 69, 75
1, 13856, Note_on_c, 0, 69, 0
1, 13856, Note_on_c, 0, 67, 75
1, 13864, Note_on_c, 0, 67, 0
1, 13864, Note_on_c, 0, 69, 75
1, 13869, Note_on_c, 1, 53, 0
1, 13872, Note_on_c, 0, 69, 0
1, 13872, Note_on_c, 0, 67, 75
1, 13872, Note_on_c, 1, 52, 75
1, 13917, Note_on_c, 0, 67, 0
1, 13917, Note_on_c, 1, 52, 0
1, 13920, Note_on_c, 0, 69, 75
1, 13920, Note_on_c, 1, 53, 75
1, 13943, Note_on_c, 0, 69, 0
1, 13944, Note_on_c, 0, 72, 75
1, 13965, Note_on_c, 1, 53, 0
1, 13967, Note_on_c, 0, 72, 0
1, 13968, Note_on_c, 0, 71, 75
1, 13968, Note_on_c, 1, 50, 75
1, 13991, Note_on_c, 0, 71, 0
1, 13992, Note_on_c, 0, 74, 75
1, 14001, Note_on_c, 1, 48, 0
1, 14013, Note_on_c, 1, 50, 0
1, 14015, Note_on_c, 0, 74, 0
1, 14016, Note_on_c, 0, 72, 75
1, 14016, Note_on_c, 1, 52, 75
1, 14016, Note_on_c, 1, 48, 75
1, 14026, Note_on_c, 0, 72, 0
1, 14040, Note_on_c, 0, 74, 75
1, 14048, Note_on_c, 0, 74, 0
1, 14048, Note_on_c, 0, 72, 75
1, 14056, Note_on_c, 0, 72, 0
1, 14056, Note_on_c, 0, 71, 75
1, 14064, Note_on_c, 0, 71, 0
1, 14064, Note_on_c, 0, 72, 75
1, 14074, Note_on_c, 0, 72, 0
1, 14088, Note_on_c, 0, 76, 75
1, 14098, Note_on_c, 0, 76, 0
1, 14105, Note_on_c, 1, 52, 0
1, 14105, Note_on_c, 1, 48, 0
1, 14112, Note_on_c, 0, 72, 75
1, 14157, Note_on_c, 0, 72, 0
1, 14160, Note_on_c, 0, 64, 80
1, 14160, Note_on_c, 1, 52, 80
1, 14205, Note_on_c, 0, 64, 0
1, 14205, Note_on_c, 1, 52, 0
1, 14208, Note_on_c, 0, 67, 80
1, 14208, Note_on_c, 1, 55, 80
1, 14231, Note_on_c, 0, 67, 0
1, 14231, Note_on_c, 1, 55, 0
1, 14232, Note_on_c, 0, 65, 80
1, 14232, Note_on_c, 1, 53, 80
1, 14255, Note_on_c, 0, 65, 0
1, 14255, Note_on_c, 1, 53, 0
1, 14256, Note_on_c, 0, 64, 80
1, 14256, Note_on_c, 1, 52, 80
1, 14279, Note_on_c, 0, 64, 0
1, 14279, Note_on_c, 1, 52, 0
1, 14280, Note_on_c, 0, 62, 80
1, 14280, Note_on_c, 1, 50, 80
1, 14303, Note_on_c, 0, 62, 0
1, 14303, Note_on_c, 1, 50, 0
1, 14304, Note_on_c, 0, 67, 80
1, 14304, Note_on_c, 1, 55, 80
1, 14324, Note_on_c, 0, 67, 0
1, 14324, Note_on_c, 1, 55, 0
1, 14352, Note_on_c, 0, 67, 80
1, 14352, Note_on_c, 1, 55, 80
1, 14372, Note_on_c, 0, 67, 0
1, 14372, Note_on_c, 1, 55, 0
1, 14400, Note_on_c, 0, 60, 80
1, 14400, Note_on_c, 1, 48, 80
1, 14489, Note_on_c, 0, 60, 0
1, 14489, Note_on_c, 1, 48, 0
1, 14496, Note_on_c, 0, 67, 80
1, 14496, Note_on_c, 1, 47, 70
1, 14504, Note_on_c, 0, 67, 0
1, 14504, Note_on_c, 0, 65, 80
1, 14512, Note_on_c, 0, 65, 0
1, 14512, Note_on_c, 0, 67, 80
1, 14519, Note_on_c, 1, 47, 0
1, 14520, Note_on_c, 0, 67, 0
1, 14520, Note_on_c, 0, 65, 80
1, 14520, Note_on_c, 1, 55, 70
1, 14528, Note_on_c, 0, 65, 0
1, 14528, Note_on_c, 0, 67, 80
1, 14536, Note_on_c, 0, 67, 0
1, 14536, Note_on_c, 0, 65, 80
1, 14543, Note_on_c, 1, 55, 0
1, 14544, Note_on_c, 0, 65, 0
1, 14544, Note_on_c, 0, 67, 80
1, 14544, Note_on_c, 1, 47, 70
1, 14552, Note_on_c, 0, 67, 0
1, 14552, Note_on_c, 0, 65, 80
1, 14560, Note_on_c, 0, 65, 0
1, 14560, Note_on_c, 0, 67, 80
1, 14567, Note_on_c, 1, 47, 0
1, 14568, Note_on_c, 0, 67, 0
1, 14568, Note_on_c, 0, 65, 80
1, 14568, Note_on_c, 1, 55, 70
1, 14576, Note_on_c, 0, 65, 0
1, 14576, Note_on_c, 0, 64, 80
1, 14584, Note_on_c, 0, 64, 0
1, 14584, Note_on_c, 0, 65, 80
1, 14591, Note_on_c, 1, 55, 0
1, 14592, Note_on_c, 0, 65, 0
1, 14592, Note_on_c, 0, 64, 80
1, 14592, Note_on_c, 1, 48, 70
1, 14615, Note_on_c, 1, 48, 0
1, 14616, Note_on_c, 1, 55, 70
1, 14639, Note_on_c, 1, 55, 0
1, 14640, Note_on_c, 1, 48, 70
1, 14663, Note_on_c, 1, 48, 0
1, 14664, Note_on_c, 1, 55, 70
1, 14681, Note_on_c, 0, 64, 0
1, 14687, Note_on_c, 1, 55, 0
1, 14688, Note_on_c, 0, 67, 80
1, 14688, Note_on_c, 1, 47, 70
1, 14698, Note_on_c, 0, 67, 0
1, 14711, Note_on_c, 1, 47, 0
1, 14712, Note_on_c, 0, 71, 80
1, 14712, Note_on_c, 1, 55, 70
1, 14722, Note_on_c, 0, 71, 0
1, 14735, Note_on_c, 1, 55, 0
1, 14736, Note_on_c, 0, 74, 80
1, 14736, Note_on_c, 1, 47, 70
1, 14746, Note_on_c, 0, 74, 0
1, 14759, Note_on_c, 1, 47, 0
1, 14760, Note_on_c, 0, 77, 80
1, 14760, Note_on_c, 1, 55, 70
1, 14770, Note_on_c, 0, 77, 0
1, 14783, Note_on_c, 1, 55, 0
1, 14784, Note_on_c, 0, 76, 80
1, 14784, Note_on_c, 1, 48, 70
1, 14807, Note_on_c, 1, 48, 0
1, 14808, Note_on_c, 1, 55, 70
1, 14829, Note_on_c, 0, 76, 0
1, 14831, Note_on_c, 1, 55, 0
1, 14832, Note_on_c, 0, 72, 80
1, 14832, Note_on_c, 1, 48, 70
1, 14855, Note_on_c, 1, 48, 0
1, 14856, Note_on_c, 1, 55, 70
1, 14877, Note_on_c, 0, 72, 0
1, 14879, Note_on_c, 1, 55, 0
1, 14880, Note_on_c, 0, 79, 80
1, 14880, Note_on_c, 1, 47, 70
1, 14888, Note_on_c, 0, 79, 0
1, 14888, Note_on_c, 0, 77, 80
1, 14896, Note_on_c, 0, 77, 0
1, 14896, Note_on_c, 0, 79, 80
1, 14903, Note_on_c, 1, 47, 0
1, 14904, Note_on_c, 0, 79, 0
1, 14904, Note_on_c, 0, 77, 80
1, 14904, Note_on_c, 1, 55, 70
1, 14912, Note_on_c, 0, 77, 0
1, 14912, Note_on_c, 0, 79, 80
1, 14920, Note_on_c, 0, 79, 0
1, 14920, Note_on_c, 0, 77, 80
1, 14927, Note_on_c, 1, 55, 0
1, 14928, Note_on_c, 0, 77, 0
1, 14928, Note_on_c, 0, 79, 80
1, 14928, Note_on_c, 1, 47, 70
1, 14936, Note_on_c, 0, 79, 0
1, 14936, Note_on_c, 0, 77, 80
1, 14944, Note_on_c, 0, 77, 0
1, 14944, Note_on_c, 0, 79, 80
1, 14951, Note_on_c, 1, 47, 0
1, 14952, Note_on_c, 0, 79, 0
1, 14952, Note_on_c, 0, 77, 80
1, 14952, Note_on_c, 1, 55, 70
1, 14960, Note_on_c, 0, 77, 0
1, 14960, Note_on_c, 0, 76, 80
1, 14968, Note_on_c, 0, 76, 0
1, 14968, Note_on_c, 0, 77, 80
1, 14975, Note_on_c, 1, 55, 0
1, 14976, Note_on_c, 0, 77, 0
1, 14976, Note_on_c, 0, 76, 80
1, 14976, Note_on_c, 1, 48, 70
1, 14999, Note_on_c, 1, 48, 0
1, 15000, Note_on_c, 1, 55, 70
1, 15023, Note_on_c, 1, 55, 0
1, 15024, Note_on_c, 1, 48, 70
1, 15047, Note_on_c, 1, 48, 0
1, 15048, Note_on_c, 1, 55, 70
1, 15065, Note_on_c, 0, 76, 0
1, 15071, Note_on_c, 1, 55, 0
1, 15072, Note_on_c, 0, 86, 80
1, 15072, Note_on_c, 1, 47, 70
1, 15095, Note_on_c, 1, 47, 0
1, 15096, Note_on_c, 1, 55, 70
1, 15119, Note_on_c, 1, 55, 0
1, 15120, Note_on_c, 1, 47, 70
1, 15139, Note_on_c, 0, 86, 0
1, 15143, Note_on_c, 1, 47, 0
1, 15144, Note_on_c, 0, 77, 80
1, 15144, Note_on_c, 1, 55, 70
1, 15167, Note_on_c, 0, 77, 0
1, 15167, Note_on_c, 1, 55, 0
1, 15168, Note_on_c, 0, 76, 80
1, 15168, Note_on_c, 1, 48, 75
1, 15183, Note_on_c, 0, 76, 0
1, 15184, Note_on_c, 0, 74, 80
1, 15199, Note_on_c, 0, 74, 0
1, 15200, Note_on_c, 0, 72, 80
1, 15213, Note_on_c, 1, 48, 0
1, 15215, Note_on_c, 0, 72, 0
1, 15216, Note_on_c, 0, 81, 80
1, 15216, Note_on_c, 1, 53, 75
1, 15231, Note_on_c, 0, 81, 0
1, 15232, Note_on_c, 0, 79, 80
1, 15247, Note_on_c, 0, 79, 0
1, 15248, Note_on_c, 0, 77, 80
1, 15261, Note_on_c, 1, 53, 0
1, 15263, Note_on_c, 0, 77, 0
1, 15264, Note_on_c, 0, 76, 80
1, 15264, Note_on_c, 1, 55, 75
1, 15309, Note_on_c, 0, 76, 0
1, 15309, Note_on_c, 1, 55, 0
1, 15312, Note_on_c, 0, 76, 80
1, 15312, Note_on_c, 1, 43, 75
1, 15320, Note_on_c, 0, 76, 0
1, 15320, Note_on_c, 0, 74, 80
1, 15328, Note_on_c, 0, 74, 0
1, 15328, Note_on_c, 0, 76, 80
1, 15336, Note_on_c, 0, 76, 0
1, 15336, Note_on_c, 0, 74, 80
1, 15344, Note_on_c, 0, 74, 0
1, 15344, Note_on_c, 0, 72, 80
1, 15352, Note_on_c, 0, 72, 0
1, 15352, Note_on_c, 0, 74, 80
1, 15357, Note_on_c, 1, 43, 0
1, 15360, Note_on_c, 0, 74, 0
1, 15360, Note_on_c, 0, 72, 80
1, 15360, Note_on_c, 1, 48, 75
1, 15405, Note_on_c, 1, 48, 0
1, 15408, Note_on_c, 1, 43, 75
1, 15449, Note_on_c, 0, 72, 0
1, 15453, Note_on_c, 1, 43, 0
1, 15456, Note_on_c, 1, 36, 75
1, 15501, Note_on_c, 1, 36, 0
1, 15504, Note_on_c, 0, 62, 75
1, 15549, Note_on_c, 0, 62, 0
1, 15552, Note_on_c, 0, 67, 75
1, 15552, Note_on_c, 1, 59, 75
1, 15552, Note_on_c, 1, 55, 75
1, 15564, Note_on_c, 0, 67, 0
1, 15564, Note_on_c, 0, 66, 75
1, 15576, Note_on_c, 0, 66, 0
1, 15576, Note_on_c, 0, 67, 75
1, 15588, Note_on_c, 0, 67, 0
1, 15588, Note_on_c, 0, 69, 75
1, 15597, Note_on_c, 1, 59, 0
1, 15597, Note_on_c, 1, 55, 0
1, 15600, Note_on_c, 0, 69, 0
1, 15600, Note_on_c, 0, 71, 75
1, 15645, Note_on_c, 0, 71, 0
1, 15648, Note_on_c, 0, 71, 75
1, 15648, Note_on_c, 1, 59, 75
1, 15648, Note_on_c, 1, 55, 75
1, 15660, Note_on_c, 0, 71, 0
1, 15660, Note_on_c, 0, 69, 75
1, 15672, Note_on_c, 0, 69, 0
1, 15672, Note_on_c, 0, 71, 75
1, 15684, Note_on_c, 0, 71, 0
1, 15684, Note_on_c, 0, 72, 75
1, 15693, Note_on_c, 1, 59, 0
1, 15693, Note_on_c, 1, 55, 0
1, 15696, Note_on_c, 0, 72, 0
1, 15696, Note_on_c, 0, 74, 75
1, 15741, Note_on_c, 0, 74, 0
1, 15744, Note_on_c, 0, 74, 75
1, 15744, Note_on_c, 0, 71, 75
1, 15768, Note_on_c, 1, 43, 75
1, 15791, Note_on_c, 1, 43, 0
1, 15792, Note_on_c, 1, 47, 75
1, 15811, Note_on_c, 0, 74, 0
1, 15811, Note_on_c, 0, 71, 0
1, 15815, Note_on_c, 1, 47, 0
1, 15816, Note_on_c, 0, 72, 75
1, 15816, Note_on_c, 0, 69, 75
1, 15816, Note_on_c, 1, 50, 75
1, 15839, Note_on_c, 0, 72, 0
1, 15839, Note_on_c, 0, 69, 0
1, 15839, Note_on_c, 1, 50, 0
1, 15840, Note_on_c, 0, 71, 75
1, 15840, Note_on_c, 0, 67, 75
1, 15840, Note_on_c, 1, 55, 75
1, 15885, Note_on_c, 0, 71, 0
1, 15885, Note_on_c, 0, 67, 0
1, 15885, Note_on_c, 1, 55, 0
1, 15888, Note_on_c, 0, 62, 75
1, 15888, Note_on_c, 1, 59, 75
1, 15911, Note_on_c, 0, 62, 0
1, 15912, Note_on_c, 0, 67, 75
1, 15933, Note_on_c, 1, 59, 0
1, 15935, Note_on_c, 0, 67, 0
1, 15936, Note_on_c, 0, 66, 75
1, 15936, Note_on_c, 1, 60, 75
1, 15944, Note_on_c, 0, 66, 0
1, 15944, Note_on_c, 0, 64, 75
1, 15952, Note_on_c, 0, 64, 0
1, 15952, Note_on_c, 0, 66, 75
1, 15960, Note_on_c, 0, 66, 0
1, 15960, Note_on_c, 0, 64, 75
1, 15968, Note_on_c, 0, 64, 0
1, 15968, Note_on_c, 0, 62, 75
1, 15976, Note_on_c, 0, 62, 0
1, 15976, Note_on_c, 0, 64, 75
1, 15981, Note_on_c, 1, 60, 0
1, 15984, Note_on_c, 0, 64, 0
1, 15984, Note_on_c, 0, 62, 75
1, 15984, Note_on_c, 1, 59, 75
1, 16007, Note_on_c, 0, 62, 0
1, 16008, Note_on_c, 0, 67, 75
1, 16029, Note_on_c, 1, 59, 0
1, 16031, Note_on_c, 0, 67, 0
1, 16032, Note_on_c, 0, 62, 75
1, 16032, Note_on_c, 1, 57, 75
1, 16077, Note_on_c, 0, 62, 0
1, 16077, Note_on_c, 1, 57, 0
1, 16080, Note_on_c, 0, 62, 75
1, 16080, Note_on_c, 1, 50, 75
1, 16088, Note_on_c, 0, 62, 0
1, 16088, Note_on_c, 0, 60, 75
1, 16096, Note_on_c, 0, 60, 0
1, 16096, Note_on_c, 0, 62, 75
1, 16104, Note_on_c, 0, 62, 0
1, 16104, Note_on_c, 0, 60, 75
1, 16112, Note_on_c, 0, 60, 0
1, 16112, Note_on_c, 0, 59, 75
1, 16120, Note_on_c, 0, 59, 0
1, 16120, Note_on_c, 0, 60, 75
1, 16125, Note_on_c, 1, 50, 0
1, 16128, Note_on_c, 0, 60, 0
1, 16128, Note_on_c, 0, 59, 75
1, 16128, Note_on_c, 1, 55, 75
1, 16173, Note_on_c, 1, 55, 0
1, 16176, Note_on_c, 1, 50, 75
1, 16217, Note_on_c, 0, 59, 0
1, 16221, Note_on_c, 1, 50, 0
1, 16224, Note_on_c, 1, 43, 75
1, 16269, Note_on_c, 1, 43, 0
1, 16272, Note_on_c, 0, 64, 75
1, 16317, Note_on_c, 0, 64, 0
1, 16320, Note_on_c, 0, 69, 75
1, 16320, Note_on_c, 1, 60, 75
1, 16320, Note_on_c, 1, 57, 75
1, 16332, Note_on_c, 0, 69, 0
1, 16332, Note_on_c, 0, 68, 75
1, 16344, Note_on_c, 0, 68, 0
1, 16344, Note_on_c, 0, 69, 75
1, 16356, Note_on_c, 0, 69, 0
1, 16356, Note_on_c, 0, 71, 75
1, 16365, Note_on_c, 1, 60, 0
1, 16365, Note_on_c, 1, 57, 0
1, 16368, Note_on_c, 0, 71, 0
1, 16368, Note_on_c, 0, 72, 75
1, 16413, Note_on_c, 0, 72, 0
1, 16416, Note_on_c, 0, 72, 75
1, 16416, Note_on_c, 1, 60, 75
1, 16416, Note_on_c, 1, 57, 75
1, 16428, Note_on_c, 0, 72, 0
1, 16428, Note_on_c, 0, 71, 75
1, 16440, Note_on_c, 0, 71, 0
1, 16440, Note_on_c, 0, 72, 75
1, 16452, Note_on_c, 0, 72, 0
1, 16452, Note_on_c, 0, 74, 75
1, 16461, Note_on_c, 1, 60, 0
1, 16461, Note_on_c, 1, 57, 0
1, 16464, Note_on_c, 0, 74, 0
1, 16464, Note_on_c, 0, 76, 75
1, 16509, Note_on_c, 0, 76, 0
1, 16512, Note_on_c, 0, 76, 75
1, 16512, Note_on_c, 0, 72, 75
1, 16536, Note_on_c, 1, 45, 75
1, 16559, Note_on_c, 1, 45, 0
1, 16560, Note_on_c, 1, 48, 75
1, 16579, Note_on_c, 0, 76, 0
1, 16579, Note_on_c, 0, 72, 0
1, 16583, Note_on_c, 1, 48, 0
1, 16584, Note_on_c, 0, 74, 75
1, 16584, Note_on_c, 0, 71, 75
1, 16584, Note_on_c, 1, 52, 75
1, 16607, Note_on_c, 0, 74, 0
1, 16607, Note_on_c, 0, 71, 0
1, 16607, Note_on_c, 1, 52, 0
1, 16608, Note_on_c, 0, 72, 75
1, 16608, Note_on_c, 0, 69, 75
1, 16608, Note_on_c, 1, 57, 75
1, 16653, Note_on_c, 0, 72, 0
1, 16653, Note_on_c, 0, 69, 0
1, 16656, Note_on_c, 0, 76, 75
1, 16697, Note_on_c, 1, 57, 0
1, 16701, Note_on_c, 0, 76, 0
1, 16704, Note_on_c, 0, 77, 75
1, 16716, Note_on_c, 0, 77, 0
1, 16716, Note_on_c, 0, 76, 75
1, 16728, Note_on_c, 0, 76, 0
1, 16728, Note_on_c, 0, 77, 75
1, 16740, Note_on_c, 0, 77, 0
1, 16740, Note_on_c, 0, 79, 75
1, 16752, Note_on_c, 0, 79, 0
1, 16752, Note_on_c, 0, 81, 75
1, 16752, Note_on_c, 1, 57, 64
1, 16752, Note_on_c, 1, 50, 64
1, 16797, Note_on_c, 0, 81, 0
1, 16799, Note_on_c, 1, 57, 0
1, 16799, Note_on_c, 1, 50, 0
1, 16800, Note_on_c, 1, 57, 64
1, 16800, Note_on_c, 1, 50, 64
1, 16847, Note_on_c, 1, 57, 0
1, 16847, Note_on_c, 1, 50, 0
1, 16848, Note_on_c, 0, 77, 75
1, 16848, Note_on_c, 1, 57, 64
1, 16848, Note_on_c, 1, 50, 64
1, 16893, Note_on_c, 0, 77, 0
1, 16895, Note_on_c, 1, 57, 0
1, 16895, Note_on_c, 1, 50, 0
1, 16896, Note_on_c, 0, 76, 75
1, 16908, Note_on_c, 0, 76, 0
1, 16908, Note_on_c, 0, 74, 75
1, 16920, Note_on_c, 0, 74, 0
1, 16920, Note_on_c, 0, 72, 75
1, 16932, Note_on_c, 0, 72, 0
1, 16932, Note_on_c, 0, 74, 75
1, 16944, Note_on_c, 0, 74, 0
1, 16944, Note_on_c, 0, 72, 75
1, 16944, Note_on_c, 1, 60, 64
1, 16944, Note_on_c, 1, 57, 64
1, 16989, Note_on_c, 0, 72, 0
1, 16991, Note_on_c, 1, 60, 0
1, 16991, Note_on_c, 1, 57, 0
1, 16992, Note_on_c, 1, 60, 64
1, 16992, Note_on_c, 1, 57, 64
1, 17039, Note_on_c, 1, 60, 0
1, 17039, Note_on_c, 1, 57, 0
1, 17040, Note_on_c, 0, 72, 75
1, 17040, Note_on_c, 1, 60, 64
1, 17040, Note_on_c, 1, 57, 64
1, 17085, Note_on_c, 0, 72, 0
1, 17087, Note_on_c, 1, 60, 0
1, 17087, Note_on_c, 1, 57, 0
1, 17088, Note_on_c, 0, 71, 75
1, 17100, Note_on_c, 0, 71, 0
1, 17100, Note_on_c, 0, 69, 75
1, 17112, Note_on_c, 0, 69, 0
1, 17112, Note_on_c, 0, 71, 75
1, 17124, Note_on_c, 0, 71, 0
1, 17124, Note_on_c, 0, 72, 75
1, 17136, Note_on_c, 0, 72, 0
1, 17136, Note_on_c, 0, 74, 75
1, 17136, Note_on_c, 1, 59, 64
1, 17136, Note_on_c, 1, 52, 64
1, 17181, Note_on_c, 0, 74, 0
1, 17183, Note_on_c, 1, 59, 0
1, 17183, Note_on_c, 1, 52, 0
1, 17184, Note_on_c, 1, 59, 64
1, 17184, Note_on_c, 1, 52, 64
1, 17231, Note_on_c, 1, 59, 0
1, 17231, Note_on_c, 1, 52, 0
1, 17232, Note_on_c, 0, 71, 75
1, 17232, Note_on_c, 1, 56, 64
1, 17232, Note_on_c, 1, 52, 64
1, 17277, Note_on_c, 0, 71, 0
1, 17279, Note_on_c, 1, 56, 0
1, 17279, Note_on_c, 1, 52, 0
1, 17280, Note_on_c, 0, 74, 75
1, 17280, Note_on_c, 1, 57, 75
1, 17280, Note_on_c, 1, 52, 64
1, 17288, Note_on_c, 0, 74, 0
1, 17288, Note_on_c, 0, 72, 75
1, 17296, Note_on_c, 0, 72, 0
1, 17296, Note_on_c, 0, 74, 75
1, 17304, Note_on_c, 0, 74, 0
1, 17304, Note_on_c, 0, 72, 75
1, 17312, Note_on_c, 0, 72, 0
1, 17312, Note_on_c, 0, 71, 75
1, 17320, Note_on_c, 0, 71, 0
1, 17320, Note_on_c, 0, 72, 75
1, 17325, Note_on_c, 1, 57, 0
1, 17328, Note_on_c, 0, 72, 0
1, 17328, Note_on_c, 0, 71, 75
1, 17328, Note_on_c, 1, 56, 75
1, 17369, Note_on_c, 1, 52, 0
1, 17373, Note_on_c, 0, 71, 0
1, 17373, Note_on_c, 1, 56, 0
1, 17376, Note_on_c, 0, 76, 75
1, 17386, Note_on_c, 0, 76, 0
1, 17400, Note_on_c, 0, 71, 75
1, 17410, Note_on_c, 0, 71, 0
1, 17424, Note_on_c, 0, 68, 75
1, 17424, Note_on_c, 1, 62, 75
1, 17434, Note_on_c, 0, 68, 0
1, 17444, Note_on_c, 1, 62, 0
1, 17448, Note_on_c, 0, 64, 75
1, 17471, Note_on_c, 0, 64, 0
1, 17472, Note_on_c, 0, 69, 75
1, 17472, Note_on_c, 1, 60, 75
1, 17484, Note_on_c, 0, 69, 0
1, 17484, Note_on_c, 0, 68, 75
1, 17496, Note_on_c, 0, 68, 0
1, 17496, Note_on_c, 0, 69, 75
1, 17508, Note_on_c, 0, 69, 0
1, 17508, Note_on_c, 0, 71, 75
1, 17517, Note_on_c, 1, 60, 0
1, 17520, Note_on_c, 0, 71, 0
1, 17520, Note_on_c, 0, 72, 75
1, 17520, Note_on_c, 1, 57, 75
1, 17565, Note_on_c, 0, 72, 0
1, 17565, Note_on_c, 1, 57, 0
1, 17568, Note_on_c, 0, 81, 75
1, 17578, Note_on_c, 0, 81, 0
1, 17592, Note_on_c, 0, 76, 75
1, 17602, Note_on_c, 0, 76, 0
1, 17616, Note_on_c, 0, 73, 75
1, 17616, Note_on_c, 1, 55, 75
1, 17626, Note_on_c, 0, 73, 0
1, 17636, Note_on_c, 1, 55, 0
1, 17640, Note_on_c, 0, 69, 75
1, 17663, Note_on_c, 0, 69, 0
1, 17664, Note_on_c, 0, 74, 75
1, 17664, Note_on_c, 1, 53, 75
1, 17676, Note_on_c, 0, 74, 0
1, 17676, Note_on_c, 0, 73, 75
1, 17688, Note_on_c, 0, 73, 0
1, 17688, Note_on_c, 0, 74, 75
1, 17700, Note_on_c, 0, 74, 0
1, 17700, Note_on_c, 0, 76, 75
1, 17709, Note_on_c, 1, 53, 0
1, 17712, Note_on_c, 0, 76, 0
1, 17712, Note_on_c, 0, 77, 75
1, 17712, Note_on_c, 1, 50, 75
1, 17757, Note_on_c, 0, 77, 0
1, 17757, Note_on_c, 1, 50, 0
1, 17760, Note_on_c, 0, 79, 75
1, 17770, Note_on_c, 0, 79, 0
1, 17784, Note_on_c, 0, 74, 75
1, 17794, Note_on_c, 0, 74, 0
1, 17808, Note_on_c, 0, 71, 75
1, 17808, Note_on_c, 1, 53, 75
1, 17818, Note_on_c, 0, 71, 0
1, 17828, Note_on_c, 1, 53, 0
1, 17832, Note_on_c, 0, 67, 75
1, 17855, Note_on_c, 0, 67, 0
1, 17856, Note_on_c, 0, 72, 75
1, 17856, Note_on_c, 1, 52, 75
1, 17868, Note_on_c, 0, 72, 0
1, 17868, Note_on_c, 0, 71, 75
1, 17880, Note_on_c, 0, 71, 0
1, 17880, Note_on_c, 0, 72, 75
1, 17892, Note_on_c, 0, 72, 0
1, 17892, Note_on_c, 0, 74, 75
1, 17901, Note_on_c, 1, 52, 0
1, 17904, Note_on_c, 0, 74, 0
1, 17904, Note_on_c, 0, 76, 75
1, 17904, Note_on_c, 1, 48, 75
1, 17949, Note_on_c, 0, 76, 0
1, 17949, Note_on_c, 1, 48, 0
1, 17952, Note_on_c, 0, 81, 75
1, 17952, Note_on_c, 1, 52, 70
1, 17960, Note_on_c, 0, 81, 0
1, 17960, Note_on_c, 0, 79, 75
1, 17968, Note_on_c, 0, 79, 0
1, 17968, Note_on_c, 0, 81, 75
1, 17975, Note_on_c, 1, 52, 0
1, 17976, Note_on_c, 0, 81, 0
1, 17976, Note_on_c, 0, 79, 75
1, 17976, Note_on_c, 1, 60, 70
1, 17984, Note_on_c, 0, 79, 0
1, 17984, Note_on_c, 0, 81, 75
1, 17992, Note_on_c, 0, 81, 0
1, 17992, Note_on_c, 0, 79, 75
1, 17999, Note_on_c, 1, 60, 0
1, 18000, Note_on_c, 0, 79, 0
1, 18000, Note_on_c, 0, 81, 75
1, 18000, Note_on_c, 1, 52, 70
1, 18008, Note_on_c, 0, 81, 0
1, 18008, Note_on_c, 0, 79, 75
1, 18016, Note_on_c, 0, 79, 0
1, 18016, Note_on_c, 0, 81, 75
1, 18023, Note_on_c, 1, 52, 0
1, 18024, Note_on_c, 0, 81, 0
1, 18024, Note_on_c, 0, 79, 75
1, 18024, Note_on_c, 1, 60, 70
1, 18032, Note_on_c, 0, 79, 0
1, 18032, Note_on_c, 0, 77, 75
1, 18040, Note_on_c, 0, 77, 0
1, 18040, Note_on_c, 0, 79, 75
1, 18047, Note_on_c, 1, 60, 0
1, 18048, Note_on_c, 0, 79, 0
1, 18048, Note_on_c, 0, 81, 75
1, 18048, Note_on_c, 1, 53, 70
1, 18071, Note_on_c, 1, 53, 0
1, 18072, Note_on_c, 1, 60, 70
1, 18095, Note_on_c, 1, 60, 0
1, 18096, Note_on_c, 1, 53, 70
1, 18119, Note_on_c, 1, 53, 0
1, 18120, Note_on_c, 1, 60, 70
1, 18137, Note_on_c, 0, 81, 0
1, 18143, Note_on_c, 1, 60, 0
1, 18144, Note_on_c, 0, 74, 75
1, 18144, Note_on_c, 1, 54, 70
1, 18152, Note_on_c, 0, 74, 0
1, 18152, Note_on_c, 0, 72, 75
1, 18160, Note_on_c, 0, 72, 0
1, 18160, Note_on_c, 0, 74, 75
1, 18167, Note_on_c, 1, 54, 0
1, 18168, Note_on_c, 0, 74, 0
1, 18168, Note_on_c, 0, 72, 75
1, 18168, Note_on_c, 1, 60, 70
1, 18176, Note_on_c, 0, 72, 0
1, 18176, Note_on_c, 0, 74, 75
1, 18184, Note_on_c, 0, 74, 0
1, 18184, Note_on_c, 0, 72, 75
1, 18191, Note_on_c, 1, 60, 0
1, 18192, Note_on_c, 0, 72, 0
1, 18192, Note_on_c, 0, 74, 75
1, 18192, Note_on_c, 1, 54, 70
1, 18200, Note_on_c, 0, 74, 0
1, 18200, Note_on_c, 0, 72, 75
1, 18208, Note_on_c, 0, 72, 0
1, 18208, Note_on_c, 0, 71, 75
1, 18215, Note_on_c, 1, 54, 0
1, 18216, Note_on_c, 1, 60, 70
1, 18224, Note_on_c, 0, 71, 0
1, 18224, Note_on_c, 0, 72, 75
1, 18239, Note_on_c, 1, 60, 0
1, 18240, Note_on_c, 0, 72, 0
1, 18240, Note_on_c, 0, 71, 75
1, 18240, Note_on_c, 1, 55, 70
1, 18255, Note_on_c, 0, 71, 0
1, 18256, Note_on_c, 0, 72, 75
1, 18271, Note_on_c, 0, 72, 0
1, 18272, Note_on_c, 0, 74, 75
1, 18285, Note_on_c, 1, 55, 0
1, 18287, Note_on_c, 0, 74, 0
1, 18288, Note_on_c, 0, 67, 75
1, 18288, Note_on_c, 1, 43, 70
1, 18333, Note_on_c, 0, 67, 0
1, 18333, Note_on_c, 1, 43, 0
1, 18336, Note_on_c, 0, 81, 75
1, 18336, Note_on_c, 1, 52, 70
1, 18344, Note_on_c, 0, 81, 0
1, 18344, Note_on_c, 0, 79, 75
1, 18352, Note_on_c, 0, 79, 0
1, 18352, Note_on_c, 0, 81, 75
1, 18359, Note_on_c, 1, 52, 0
1, 18360, Note_on_c, 0, 81, 0
1, 18360, Note_on_c, 0, 79, 75
1, 18360, Note_on_c, 1, 60, 70
1, 18368, Note_on_c, 0, 79, 0
1, 18368, Note_on_c, 0, 81, 75
1, 18376, Note_on_c, 0, 81, 0
1, 18376, Note_on_c, 0, 79, 75
1, 18383, Note_on_c, 1, 60, 0
1, 18384, Note_on_c, 0, 79, 0
1, 18384, Note_on_c, 0, 81, 75
1, 18384, Note_on_c, 1, 52, 70
1, 18392, Note_on_c, 0, 81, 0
1, 18392, Note_on_c, 0, 79, 75
1, 18400, Note_on_c, 0, 79, 0
1, 18400, Note_on_c, 0, 81, 75
1, 18407, Note_on_c, 1, 52, 0
1, 18408, Note_on_c, 0, 81, 0
1, 18408, Note_on_c, 0, 79, 75
1, 18408, Note_on_c, 1, 60, 70
1, 18416, Note_on_c, 0, 79, 0
1, 18416, Note_on_c, 0, 77, 75
1, 18424, Note_on_c, 0, 77, 0
1, 18424, Note_on_c, 0, 79, 75
1, 18431, Note_on_c, 1, 60, 0
1, 18432, Note_on_c, 0, 79, 0
1, 18432, Note_on_c, 0, 81, 75
1, 18432, Note_on_c, 1, 53, 70
1, 18455, Note_on_c, 1, 53, 0
1, 18456, Note_on_c, 1, 60, 71
1, 18479, Note_on_c, 1, 60, 0
1, 18480, Note_on_c, 1, 53, 72
1, 18499, Note_on_c, 0, 81, 0
1, 18503, Note_on_c, 1, 53, 0
1, 18504, Note_on_c, 0, 83, 77
1, 18504, Note_on_c, 1, 60, 73
1, 18527, Note_on_c, 0, 83, 0
1, 18527, Note_on_c, 1, 60, 0
1, 18528, Note_on_c, 0, 84, 94
1, 18528, Note_on_c, 1, 54, 74
1, 18551, Note_on_c, 1, 54, 0
1, 18552, Note_on_c, 1, 60, 75
1, 18575, Note_on_c, 1, 60, 0
1, 18576, Note_on_c, 0, 84, 0
1, 18576, Note_on_c, 0, 76, 80
1, 18576, Note_on_c, 1, 54, 75
1, 18599, Note_on_c, 1, 54, 0
1, 18600, Note_on_c, 1, 60, 75
1, 18621, Note_on_c, 0, 76, 0
1, 18623, Note_on_c, 1, 60, 0
1, 18624, Note_on_c, 0, 77, 80
1, 18624, Note_on_c, 1, 60, 75
1, 18624, Note_on_c, 1, 55, 64
1, 18632, Note_on_c, 0, 77, 0
1, 18632, Note_on_c, 0, 76, 80
1, 18640, Note_on_c, 0, 76, 0
1, 18640, Note_on_c, 0, 77, 80
1, 18648, Note_on_c, 0, 77, 0
1, 18648, Note_on_c, 0, 76, 80
1, 18656, Note_on_c, 0, 76, 0
1, 18656, Note_on_c, 0, 74, 80
1, 18664, Note_on_c, 0, 74, 0
1, 18664, Note_on_c, 0, 76, 80
1, 18669, Note_on_c, 1, 60, 0
1, 18672, Note_on_c, 0, 76, 0
1, 18672, Note_on_c, 0, 74, 80
1, 18672, Note_on_c, 1, 59, 75
1, 18713, Note_on_c, 1, 55, 0
1, 18717, Note_on_c, 0, 74, 0
1, 18717, Note_on_c, 1, 59, 0
1, 18768, Note_on_c, 0, 67, 75
1, 18813, Note_on_c, 0, 67, 0
1, 18816, Note_on_c, 0, 72, 75
1, 18816, Note_on_c, 1, 52, 75
1, 18816, Note_on_c, 1, 48, 75
1, 18828, Note_on_c, 0, 72, 0
1, 18828, Note_on_c, 0, 71, 75
1, 18840, Note_on_c, 0, 71, 0
1, 18840, Note_on_c, 0, 72, 75
1, 18852, Note_on_c, 0, 72, 0
1, 18852, Note_on_c, 0, 74, 75
1, 18861, Note_on_c, 1, 52, 0
1, 18861, Note_on_c, 1, 48, 0
1, 18864, Note_on_c, 0, 74, 0
1, 18864, Note_on_c, 0, 76, 75
1, 18909, Note_on_c, 0, 76, 0
1, 18912, Note_on_c, 0, 76, 75
1, 18912, Note_on_c, 1, 52, 75
1, 18912, Note_on_c, 1, 48, 75
1, 18924, Note_on_c, 0, 76, 0
1, 18924, Note_on_c, 0, 74, 75
1, 18936, Note_on_c, 0, 74, 0
1, 18936, Note_on_c, 0, 76, 75
1, 18948, Note_on_c, 0, 76, 0
1, 18948, Note_on_c, 0, 77, 75
1, 18957, Note_on_c, 1, 52, 0
1, 18957, Note_on_c, 1, 48, 0
1, 18960, Note_on_c, 0, 77, 0
1, 18960, Note_on_c, 0, 79, 75
1, 19005, Note_on_c, 0, 79, 0
1, 19008, Note_on_c, 0, 79, 75
1, 19008, Note_on_c, 0, 76, 75
1, 19032, Note_on_c, 1, 48, 75
1, 19055, Note_on_c, 1, 48, 0
1, 19056, Note_on_c, 1, 52, 75
1, 19075, Note_on_c, 0, 79, 0
1, 19075, Note_on_c, 0, 76, 0
1, 19079, Note_on_c, 1, 52, 0
1, 19080, Note_on_c, 0, 77, 75
1, 19080, Note_on_c, 0, 74, 75
1, 19080, Note_on_c, 1, 55, 75
1, 19103, Note_on_c, 0, 77, 0
1, 19103, Note_on_c, 0, 74, 0
1, 19103, Note_on_c, 1, 55, 0
1, 19104, Note_on_c, 0, 76, 75
1, 19104, Note_on_c, 0, 72, 75
1, 19104, Note_on_c, 1, 60, 75
1, 19149, Note_on_c, 0, 76, 0
1, 19149, Note_on_c, 0, 72, 0
1, 19149, Note_on_c, 1, 60, 0
1, 19152, Note_on_c, 0, 67, 75
1, 19152, Note_on_c, 1, 64, 75
1, 19175, Note_on_c, 0, 67, 0
1, 19176, Note_on_c, 0, 72, 75
1, 19197, Note_on_c, 1, 64, 0
1, 19199, Note_on_c, 0, 72, 0
1, 19200, Note_on_c, 0, 71, 75
1, 19200, Note_on_c, 1, 65, 75
1, 19208, Note_on_c, 0, 71, 0
1, 19208, Note_on_c, 0, 69, 75
1, 19216, Note_on_c, 0, 69, 0
1, 19216, Note_on_c, 0, 71, 75
1, 19224, Note_on_c, 0, 71, 0
1, 19224, Note_on_c, 0, 69, 75
1, 19232, Note_on_c, 0, 69, 0
1, 19232, Note_on_c, 0, 67, 75
1, 19240, Note_on_c, 0, 67, 0
1, 19240, Note_on_c, 0, 69, 75
1, 19245, Note_on_c, 1, 65, 0
1, 19248, Note_on_c, 0, 69, 0
1, 19248, Note_on_c, 0, 67, 75
1, 19248, Note_on_c, 1, 64, 75
1, 19271, Note_on_c, 0, 67, 0
1, 19272, Note_on_c, 0, 72, 75
1, 19293, Note_on_c, 1, 64, 0
1, 19295, Note_on_c, 0, 72, 0
1, 19296, Note_on_c, 0, 67, 75
1, 19296, Note_on_c, 1, 62, 75
1, 19341, Note_on_c, 0, 67, 0
1, 19341, Note_on_c, 1, 62, 0
1, 19344, Note_on_c, 0, 67, 75
1, 19344, Note_on_c, 1, 55, 75
1, 19352, Note_on_c, 0, 67, 0
1, 19352, Note_on_c, 0, 65, 75
1, 19360, Note_on_c, 0, 65, 0
1, 19360, Note_on_c, 0, 67, 75
1, 19368, Note_on_c, 0, 67, 0
1, 19368, Note_on_c, 0, 65, 75
1, 19376, Note_on_c, 0, 65, 0
1, 19376, Note_on_c, 0, 64, 75
1, 19384, Note_on_c, 0, 64, 0
1, 19384, Note_on_c, 0, 65, 75
1, 19389, Note_on_c, 1, 55, 0
1, 19392, Note_on_c, 0, 65, 0
1, 19392, Note_on_c, 0, 65, 75
1, 19392, Note_on_c, 1, 60, 75
1, 19437, Note_on_c, 0, 65, 0
1, 19437, Note_on_c, 1, 60, 0
1, 19440, Note_on_c, 0, 64, 75
1, 19440, Note_on_c, 1, 55, 75
1, 19485, Note_on_c, 0, 64, 0
1, 19485, Note_on_c, 1, 55, 0
1, 19488, Note_on_c, 1, 48, 75
1, 19533, Note_on_c, 1, 48, 0
1, 19536, Note_on_c, 0, 67, 75
1, 19581, Note_on_c, 0, 67, 0
1, 19584, Note_on_c, 0, 72, 75
1, 19584, Note_on_c, 1, 52, 75
1, 19584, Note_on_c, 1, 48, 75
1, 19596, Note_on_c, 0, 72, 0
1, 19596, Note_on_c, 0, 71, 75
1, 19608, Note_on_c, 0, 71, 0
1, 19608, Note_on_c, 0, 72, 75
1, 19620, Note_on_c, 0, 72, 0
1, 19620, Note_on_c, 0, 74, 75
1, 19629, Note_on_c, 1, 52, 0
1, 19629, Note_on_c, 1, 48, 0
1, 19632, Note_on_c, 0, 74, 0
1, 19632, Note_on_c, 0, 76, 75
1, 19677, Note_on_c, 0, 76, 0
1, 19680, Note_on_c, 0, 76, 75
1, 19680, Note_on_c, 1, 52, 75
1, 19680, Note_on_c, 1, 48, 75
1, 19692, Note_on_c, 0, 76, 0
1, 19692, Note_on_c, 0, 74, 75
1, 19704, Note_on_c, 0, 74, 0
1, 19704, Note_on_c, 0, 76, 75
1, 19716, Note_on_c, 0, 76, 0
1, 19716, Note_on_c, 0, 77, 75
1, 19725, Note_on_c, 1, 52, 0
1, 19725, Note_on_c, 1, 48, 0
1, 19728, Note_on_c, 0, 77, 0
1, 19728, Note_on_c, 0, 79, 75
1, 19773, Note_on_c, 0, 79, 0
1, 19776, Note_on_c, 0, 79, 75
1, 19776, Note_on_c, 0, 76, 75
1, 19800, Note_on_c, 1, 48, 75
1, 19823, Note_on_c, 1, 48, 0
1, 19824, Note_on_c, 1, 52, 75
1, 19847, Note_on_c, 1, 52, 0
1, 19848, Note_on_c, 0, 79, 0
1, 19848, Note_on_c, 0, 76, 0
1, 19848, Note_on_c, 0, 77, 75
1, 19848, Note_on_c, 0, 74, 75
1, 19848, Note_on_c, 1, 55, 75
1, 19871, Note_on_c, 0, 77, 0
1, 19871, Note_on_c, 0, 74, 0
1, 19871, Note_on_c, 1, 55, 0
1, 19872, Note_on_c, 0, 76, 75
1, 19872, Note_on_c, 0, 72, 75
1, 19872, Note_on_c, 1, 60, 75
1, 19917, Note_on_c, 0, 76, 0
1, 19917, Note_on_c, 0, 72, 0
1, 19917, Note_on_c, 1, 60, 0
1, 19920, Note_on_c, 0, 84, 75
1, 19943, Note_on_c, 0, 84, 0
1, 19944, Note_on_c, 0, 83, 75
1, 19967, Note_on_c, 0, 83, 0
1, 19968, Note_on_c, 0, 83, 75
1, 19968, Note_on_c, 1, 65, 75
1, 19968, Note_on_c, 1, 55, 64
1, 19976, Note_on_c, 0, 83, 0
1, 19976, Note_on_c, 0, 81, 75
1, 19984, Note_on_c, 0, 81, 0
1, 19984, Note_on_c, 0, 83, 75
1, 19992, Note_on_c, 0, 83, 0
1, 19992, Note_on_c, 0, 81, 75
1, 20000, Note_on_c, 0, 81, 0
1, 20000, Note_on_c, 0, 79, 75
1, 20008, Note_on_c, 0, 79, 0
1, 20008, Note_on_c, 0, 81, 75
1, 20013, Note_on_c, 1, 65, 0
1, 20016, Note_on_c, 0, 81, 0
1, 20016, Note_on_c, 0, 79, 75
1, 20016, Note_on_c, 1, 64, 75
1, 20057, Note_on_c, 1, 55, 0
1, 20061, Note_on_c, 0, 79, 0
1, 20061, Note_on_c, 1, 64, 0
1, 20064, Note_on_c, 0, 79, 75
1, 20064, Note_on_c, 1, 62, 75
1, 20064, Note_on_c, 1, 55, 64
1, 20072, Note_on_c, 0, 79, 0
1, 20072, Note_on_c, 0, 77, 75
1, 20080, Note_on_c, 0, 77, 0
1, 20080, Note_on_c, 0, 79, 75
1, 20088, Note_on_c, 0, 79, 0
1, 20088, Note_on_c, 0, 77, 75
1, 20096, Note_on_c, 0, 77, 0
1, 20096, Note_on_c, 0, 76, 75
1, 20104, Note_on_c, 0, 76, 0
1, 20104, Note_on_c, 0, 77, 75
1, 20109, Note_on_c, 1, 62, 0
1, 20112, Note_on_c, 0, 77, 0
1, 20112, Note_on_c, 0, 76, 75
1, 20112, Note_on_c, 1, 60, 75
1, 20153, Note_on_c, 1, 55, 0
1, 20157, Note_on_c, 0, 76, 0
1, 20157, Note_on_c, 1, 60, 0
1, 20160, Note_on_c, 0, 77, 75
1, 20160, Note_on_c, 1, 60, 75
1, 20160, Note_on_c, 1, 55, 64
1, 20168, Note_on_c, 0, 77, 0
1, 20168, Note_on_c, 0, 76, 75
1, 20176, Note_on_c, 0, 76, 0
1, 20176, Note_on_c, 0, 77, 75
1, 20184, Note_on_c, 0, 77, 0
1, 20184, Note_on_c, 0, 76, 75
1, 20192, Note_on_c, 0, 76, 0
1, 20192, Note_on_c, 0, 74, 75
1, 20200, Note_on_c, 0, 74, 0
1, 20200, Note_on_c, 0, 76, 75
1, 20205, Note_on_c, 1, 60, 0
1, 20208, Note_on_c, 0, 76, 0
1, 20208, Note_on_c, 0, 74, 75
1, 20208, Note_on_c, 1, 59, 75
1, 20249, Note_on_c, 1, 55, 0
1, 20253, Note_on_c, 0, 74, 0
1, 20253, Note_on_c, 1, 59, 0
1, 20304, Note_on_c, 0, 67, 75
1, 20349, Note_on_c, 0, 67, 0
1, 20352, Note_on_c, 0, 72, 75
1, 20364, Note_on_c, 0, 72, 0
1, 20364, Note_on_c, 0, 71, 75
1, 20376, Note_on_c, 0, 71, 0
1, 20376, Note_on_c, 0, 72, 75
1, 20388, Note_on_c, 0, 72, 0
1, 20388, Note_on_c, 0, 74, 75
1, 20400, Note_on_c, 0, 74, 0
1, 20400, Note_on_c, 0, 76, 75
1, 20400, Note_on_c, 1, 55, 64
1, 20400, Note_on_c, 1, 48, 64
1, 20445, Note_on_c, 0, 76, 0
1, 20447, Note_on_c, 1, 55, 0
1, 20447, Note_on_c, 1, 48, 0
1, 20448, Note_on_c, 1, 55, 64
1, 20448, Note_on_c, 1, 48, 64
1, 20495, Note_on_c, 1, 55, 0
1, 20495, Note_on_c, 1, 48, 0
1, 20496, Note_on_c, 0, 76, 75
1, 20496, Note_on_c, 1, 55, 64
1, 20496, Note_on_c, 1, 48, 64
1, 20541, Note_on_c, 0, 76, 0
1, 20543, Note_on_c, 1, 55, 0
1, 20543, Note_on_c, 1, 48, 0
1, 20544, Note_on_c, 0, 77, 75
1, 20556, Note_on_c, 0, 77, 0
1, 20556, Note_on_c, 0, 76, 75
1, 20568, Note_on_c, 0, 76, 0
1, 20568, Note_on_c, 0, 74, 75
1, 20580, Note_on_c, 0, 74, 0
1, 20580, Note_on_c, 0, 76, 75
1, 20592, Note_on_c, 0, 76, 0
1, 20592, Note_on_c, 0, 74, 75
1, 20592, Note_on_c, 1, 55, 64
1, 20592, Note_on_c, 1, 47, 64
1, 20637, Note_on_c, 0, 74, 0
1, 20639, Note_on_c, 1, 55, 0
1, 20639, Note_on_c, 1, 47, 0
1, 20640, Note_on_c, 1, 55, 64
1, 20640, Note_on_c, 1, 47, 64
1, 20687, Note_on_c, 1, 55, 0
1, 20687, Note_on_c, 1, 47, 0
1, 20688, Note_on_c, 0, 67, 75
1, 20688, Note_on_c, 1, 55, 64
1, 20688, Note_on_c, 1, 47, 64
1, 20733, Note_on_c, 0, 67, 0
1, 20735, Note_on_c, 1, 55, 0
1, 20735, Note_on_c, 1, 47, 0
1, 20736, Note_on_c, 0, 74, 75
1, 20748, Note_on_c, 0, 74, 0
1, 20748, Note_on_c, 0, 72, 75
1, 20760, Note_on_c, 0, 72, 0
1, 20760, Note_on_c, 0, 74, 75
1, 20772, Note_on_c, 0, 74, 0
1, 20772, Note_on_c, 0, 76, 75
1, 20784, Note_on_c, 0, 76, 0
1, 20784, Note_on_c, 0, 77, 75
1, 20784, Note_on_c, 1, 55, 64
1, 20784, Note_on_c, 1, 47, 64
1, 20829, Note_on_c, 0, 77, 0
1, 20831, Note_on_c, 1, 55, 0
1, 20831, Note_on_c, 1, 47, 0
1, 20832, Note_on_c, 1, 55, 64
1, 20832, Note_on_c, 1, 47, 64
1, 20879, Note_on_c, 1, 55, 0
1, 20879, Note_on_c, 1, 47, 0
1, 20880, Note_on_c, 0, 74, 75
1, 20880, Note_on_c, 1, 55, 64
1, 20880, Note_on_c, 1, 47, 64
1, 20925, Note_on_c, 0, 74, 0
1, 20927, Note_on_c, 1, 55, 0
1, 20927, Note_on_c, 1, 47, 0
1, 20928, Note_on_c, 0, 76, 75
1, 20940, Note_on_c, 0, 76, 0
1, 20940, Note_on_c, 0, 74, 75
1, 20952, Note_on_c, 0, 74, 0
1, 20952, Note_on_c, 0, 76, 75
1, 20964, Note_on_c, 0, 76, 0
1, 20964, Note_on_c, 0, 77, 75
1, 20976, Note_on_c, 0, 77, 0
1, 20976, Note_on_c, 0, 79, 75
1, 20976, Note_on_c, 1, 52, 64
1, 20976, Note_on_c, 1, 48, 64
1, 21021, Note_on_c, 0, 79, 0
1, 21023, Note_on_c, 1, 52, 0
1, 21023, Note_on_c, 1, 48, 0
1, 21024, Note_on_c, 1, 52, 64
1, 21024, Note_on_c, 1, 48, 64
1, 21071, Note_on_c, 1, 52, 0
1, 21071, Note_on_c, 1, 48, 0
1, 21072, Note_on_c, 0, 67, 75
1, 21072, Note_on_c, 1, 52, 64
1, 21072, Note_on_c, 1, 48, 64
1, 21095, Note_on_c, 0, 67, 0
1, 21096, Note_on_c, 0, 72, 75
1, 21119, Note_on_c, 0, 72, 0
1, 21119, Note_on_c, 1, 52, 0
1, 21119, Note_on_c, 1, 48, 0
1, 21120, Note_on_c, 0, 71, 75
1, 21120, Note_on_c, 1, 53, 75
1, 21120, Note_on_c, 1, 48, 64
1, 21128, Note_on_c, 0, 71, 0
1, 21128, Note_on_c, 0, 69, 75
1, 21136, Note_on_c, 0, 69, 0
1, 21136, Note_on_c, 0, 71, 75
1, 21144, Note_on_c, 0, 71, 0
1, 21144, Note_on_c, 0, 69, 75
1, 21152, Note_on_c, 0, 69, 0
1, 21152, Note_on_c, 0, 67, 75
1, 21160, Note_on_c, 0, 67, 0
1, 21160, Note_on_c, 0, 69, 75
1, 21165, Note_on_c, 1, 53, 0
1, 21168, Note_on_c, 0, 69, 0
1, 21168, Note_on_c, 0, 67, 75
1, 21168, Note_on_c, 1, 52, 75
1, 21213, Note_on_c, 0, 67, 0
1, 21213, Note_on_c, 1, 52, 0
1, 21216, Note_on_c, 0, 69, 75
1, 21216, Note_on_c, 1, 53, 75
1, 21239, Note_on_c, 0, 69, 0
1, 21240, Note_on_c, 0, 72, 75
1, 21261, Note_on_c, 1, 53, 0
1, 21263, Note_on_c, 0, 72, 0
1, 21264, Note_on_c, 0, 71, 75
1, 21264, Note_on_c, 1, 50, 75
1, 21287, Note_on_c, 0, 71, 0
1, 21288, Note_on_c, 0, 74, 75
1, 21297, Note_on_c, 1, 48, 0
1, 21309, Note_on_c, 1, 50, 0
1, 21311, Note_on_c, 0, 74, 0
1, 21312, Note_on_c, 0, 72, 75
1, 21312, Note_on_c, 1, 52, 75
1, 21312, Note_on_c, 1, 48, 75
1, 21322, Note_on_c, 0, 72, 0
1, 21336, Note_on_c, 0, 74, 75
1, 21344, Note_on_c, 0, 74, 0
1, 21344, Note_on_c, 0, 72, 75
1, 21352, Note_on_c, 0, 72, 0
1, 21352, Note_on_c, 0, 71, 75
1, 21360, Note_on_c, 0, 71, 0
1, 21360, Note_on_c, 0, 72, 75
1, 21370, Note_on_c, 0, 72, 0
1, 21384, Note_on_c, 0, 76, 75
1, 21394, Note_on_c, 0, 76, 0
1, 21401, Note_on_c, 1, 52, 0
1, 21401, Note_on_c, 1, 48, 0
1, 21408, Note_on_c, 0, 72, 75
1, 21453, Note_on_c, 0, 72, 0
1, 21456, Note_on_c, 0, 64, 80
1, 21456, Note_on_c, 1, 52, 80
1, 21501, Note_on_c, 0, 64, 0
1, 21501, Note_on_c, 1, 52, 0
1, 21504, Note_on_c, 0, 67, 80
1, 21504, Note_on_c, 1, 55, 80
1, 21527, Note_on_c, 0, 67, 0
1, 21527, Note_on_c, 1, 55, 0
1, 21528, Note_on_c, 0, 65, 80
1, 21528, Note_on_c, 1, 53, 80
1, 21551, Note_on_c, 0, 65, 0
1, 21551, Note_on_c, 1, 53, 0
1, 21552, Note_on_c, 0, 64, 80
1, 21552, Note_on_c, 1, 52, 80
1, 21575, Note_on_c, 0, 64, 0
1, 21575, Note_on_c, 1, 52, 0
1, 21576, Note_on_c, 0, 62, 80
1, 21576, Note_on_c, 1, 50, 80
1, 21599, Note_on_c, 0, 62, 0
1, 21599, Note_on_c, 1, 50, 0
1, 21600, Note_on_c, 0, 67, 80
1, 21600, Note_on_c, 1, 55, 80
1, 21620, Note_on_c, 0, 67, 0
1, 21620, Note_on_c, 1, 55, 0
1, 21648, Note_on_c, 0, 67, 80
1, 21648, Note_on_c, 1, 55, 80
1, 21668, Note_on_c, 0, 67, 0
1, 21668, Note_on_c, 1, 55, 0
1, 21696, Note_on_c, 0, 60, 80
1, 21696, Note_on_c, 1, 48, 80
1, 21785, Note_on_c, 0, 60, 0
1, 21785, Note_on_c, 1, 48, 0
1, 21792, Note_on_c, 0, 67, 80
1, 21792, Note_on_c, 1, 47, 70
1, 21800, Note_on_c, 0, 67, 0
1, 21800, Note_on_c, 0, 65, 80
1, 21808, Note_on_c, 0, 65, 0
1, 21808, Note_on_c, 0, 67, 80
1, 21815, Note_on_c, 1, 47, 0
1, 21816, Note_on_c, 0, 67, 0
1, 21816, Note_on_c, 0, 65, 80
1, 21816, Note_on_c, 1, 55, 70
1, 21824, Note_on_c, 0, 65, 0
1, 21824, Note_on_c, 0, 67, 80
1, 21832, Note_on_c, 0, 67, 0
1, 21832, Note_on_c, 0, 65, 80
1, 21839, Note_on_c, 1, 55, 0
1, 21840, Note_on_c, 0, 65, 0
1, 21840, Note_on_c, 0, 67, 80
1, 21840, Note_on_c, 1, 47, 70
1, 21848, Note_on_c, 0, 67, 0
1, 21848, Note_on_c, 0, 65, 80
1, 21856, Note_on_c, 0, 65, 0
1, 21856, Note_on_c, 0, 67, 80
1, 21863, Note_on_c, 1, 47, 0
1, 21864, Note_on_c, 0, 67, 0
1, 21864, Note_on_c, 0, 65, 80
1, 21864, Note_on_c, 1, 55, 70
1, 21872, Note_on_c, 0, 65, 0
1, 21872, Note_on_c, 0, 64, 80
1, 21880, Note_on_c, 0, 64, 0
1, 21880, Note_on_c, 0, 65, 80
1, 21887, Note_on_c, 1, 55, 0
1, 21888, Note_on_c, 0, 65, 0
1, 21888, Note_on_c, 0, 64, 80
1, 21888, Note_on_c, 1, 48, 70
1, 21911, Note_on_c, 1, 48, 0
1, 21912, Note_on_c, 1, 55, 70
1, 21935, Note_on_c, 1, 55, 0
1, 21936, Note_on_c, 1, 48, 70
1, 21959, Note_on_c, 1, 48, 0
1, 21960, Note_on_c, 1, 55, 70
1, 21977, Note_on_c, 0, 64, 0
1, 21983, Note_on_c, 1, 55, 0
1, 21984, Note_on_c, 0, 67, 80
1, 21984, Note_on_c, 1, 47, 70
1, 21994, Note_on_c, 0, 67, 0
1, 22007, Note_on_c, 1, 47, 0
1, 22008, Note_on_c, 0, 71, 80
1, 22008, Note_on_c, 1, 55, 70
1, 22018, Note_on_c, 0, 71, 0
1, 22031, Note_on_c, 1, 55, 0
1, 22032, Note_on_c, 0, 74, 80
1, 22032, Note_on_c, 1, 47, 70
1, 22042, Note_on_c, 0, 74, 0
1, 22055, Note_on_c, 1, 47, 0
1, 22056, Note_on_c, 0, 77, 80
1, 22056, Note_on_c, 1, 55, 70
1, 22066, Note_on_c, 0, 77, 0
1, 22079, Note_on_c, 1, 55, 0
1, 22080, Note_on_c, 0, 76, 80
1, 22080, Note_on_c, 1, 48, 70
1, 22103, Note_on_c, 1, 48, 0
1, 22104, Note_on_c, 1, 55, 70
1, 22125, Note_on_c, 0, 76, 0
1, 22127, Note_on_c, 1, 55, 0
1, 22128, Note_on_c, 0, 72, 80
1, 22128, Note_on_c, 1, 48, 70
1, 22151, Note_on_c, 1, 48, 0
1, 22152, Note_on_c, 1, 55, 70
1, 22173, Note_on_c, 0, 72, 0
1, 22175, Note_on_c, 1, 55, 0
1, 22176, Note_on_c, 0, 79, 80
1, 22176, Note_on_c, 1, 47, 70
1, 22184, Note_on_c, 0, 79, 0
1, 22184, Note_on_c, 0, 77, 80
1, 22192, Note_on_c, 0, 77, 0
1, 22192, Note_on_c, 0, 79, 80
1, 22199, Note_on_c, 1, 47, 0
1, 22200, Note_on_c, 0, 79, 0
1, 22200, Note_on_c, 0, 77, 80
1, 22200, Note_on_c, 1, 55, 70
1, 22208, Note_on_c, 0, 77, 0
1, 22208, Note_on_c, 0, 79, 80
1, 22216, Note_on_c, 0, 79, 0
1, 22216, Note_on_c, 0, 77, 80
1, 22223, Note_on_c, 1, 55, 0
1, 22224, Note_on_c, 0, 77, 0
1, 22224, Note_on_c, 0, 79, 80
1, 22224, Note_on_c, 1, 47, 70
1, 22232, Note_on_c, 0, 79, 0
1, 22232, Note_on_c, 0, 77, 80
1, 22240, Note_on_c, 0, 77, 0
1, 22240, Note_on_c, 0, 79, 80
1, 22247, Note_on_c, 1, 47, 0
1, 22248, Note_on_c, 0, 79, 0
1, 22248, Note_on_c, 0, 77, 80
1, 22248, Note_on_c, 1, 55, 70
1, 22256, Note_on_c, 0, 77, 0
1, 22256, Note_on_c, 0, 76, 80
1, 22264, Note_on_c, 0, 76, 0
1, 22264, Note_on_c, 0, 77, 80
1, 22271, Note_on_c, 1, 55, 0
1, 22272, Note_on_c, 0, 77, 0
1, 22272, Note_on_c, 0, 76, 80
1, 22272, Note_on_c, 1, 48, 70
1, 22295, Note_on_c, 1, 48, 0
1, 22296, Note_on_c, 1, 55, 70
1, 22319, Note_on_c, 1, 55, 0
1, 22320, Note_on_c, 1, 48, 70
1, 22343, Note_on_c, 1, 48, 0
1, 22344, Note_on_c, 1, 55, 70
1, 22361, Note_on_c, 0, 76, 0
1, 22367, Note_on_c, 1, 55, 0
1, 22368, Note_on_c, 0, 86, 80
1, 22368, Note_on_c, 1, 47, 70
1, 22391, Note_on_c, 1, 47, 0
1, 22392, Note_on_c, 1, 55, 70
1, 22415, Note_on_c, 1, 55, 0
1, 22416, Note_on_c, 1, 47, 70
1, 22435, Note_on_c, 0, 86, 0
1, 22439, Note_on_c, 1, 47, 0
1, 22440, Note_on_c, 0, 77, 80
1, 22440, Note_on_c, 1, 55, 70
1, 22463, Note_on_c, 0, 77, 0
1, 22463, Note_on_c, 1, 55, 0
1, 22464, Note_on_c, 0, 76, 80
1, 22464, Note_on_c, 1, 48, 75
1, 22479, Note_on_c, 0, 76, 0
1, 22480, Note_on_c, 0, 74, 80
1, 22495, Note_on_c, 0, 74, 0
1, 22496, Note_on_c, 0, 72, 80
1, 22509, Note_on_c, 1, 48, 0
1, 22511, Note_on_c, 0, 72, 0
1, 22512, Note_on_c, 0, 81, 80
1, 22512, Note_on_c, 1, 53, 75
1, 22527, Note_on_c, 0, 81, 0
1, 22528, Note_on_c, 0, 79, 80
1, 22543, Note_on_c, 0, 79, 0
1, 22544, Note_on_c, 0, 77, 80
1, 22557, Note_on_c, 1, 53, 0
1, 22559, Note_on_c, 0, 77, 0
1, 22560, Note_on_c, 0, 76, 80
1, 22560, Note_on_c, 1, 55, 75
1, 22605, Note_on_c, 0, 76, 0
1, 22605, Note_on_c, 1, 55, 0
1, 22608, Note_on_c, 0, 76, 80
1, 22608, Note_on_c, 1, 43, 75
1, 22616, Note_on_c, 0, 76, 0
1, 22616, Note_on_c, 0, 74, 80
1, 22624, Note_on_c, 0, 74, 0
1, 22624, Note_on_c, 0, 76, 80
1, 22632, Note_on_c, 0, 76, 0
1, 22632, Note_on_c, 0, 74, 80
1, 22640, Note_on_c, 0, 74, 0
1, 22640, Note_on_c, 0, 72, 80
1, 22648, Note_on_c, 0, 72, 0
1, 22648, Note_on_c, 0, 74, 80
1, 22653, Note_on_c, 1, 43, 0
1, 22656, Note_on_c, 0, 74, 0
1, 22656, Note_on_c, 0, 72, 80
1, 22656, Note_on_c, 1, 48, 75
1, 22701, Note_on_c, 1, 48, 0
1, 22704, Note_on_c, 1, 43, 75
1, 22745, Note_on_c, 0, 72, 0
1, 22749, Note_on_c, 1, 43, 0
1, 22752, Note_on_c, 1, 36, 75
1, 22797, Note_on_c, 1, 36, 0
1, 22800, Note_on_c, 1, 36, 0
1, 22845, Note_on_c, 1, 36, 0
1, 22855, End_track
0, 0, End_of_file