0, 0, Header, 0, 1, 96
1, 0, Start_track
1, 0, Tempo, 100000
1, 336, Note_on_c, 0, 74, 69
1, 351, Note_on_c, 0, 74, 0
1, 352, Note_on_c, 0, 75, 69
1, 367, Note_on_c, 0, 75, 0
1, 368, Note_on_c, 0, 74, 69
1, 383, Note_on_c, 0, 74, 0
1, 384, Note_on_c, 0, 79, 69
1, 384, Note_on_c, 1, 58, 75
1, 384, Note_on_c, 1, 55, 75
1, 404, Note_on_c, 0, 79, 0
1, 404, Note_on_c, 1, 58, 0
1, 404, Note_on_c, 1, 55, 0
1, 432, Note_on_c, 0, 77, 69
1, 452, Note_on_c, 0, 77, 0
1, 480, Note_on_c, 0, 75, 69
1, 480, Note_on_c, 1, 70, 75
1, 480, Note_on_c, 1, 67, 75
1, 500, Note_on_c, 0, 75, 0
1, 500, Note_on_c, 1, 70, 0
1, 500, Note_on_c, 1, 67, 0
1, 528, Note_on_c, 0, 74, 69
1, 548, Note_on_c, 0, 74, 0
1, 576, Note_on_c, 0, 73, 69
1, 624, Note_on_c, 1, 69, 75
1, 624, Note_on_c, 1, 67, 64
1, 669, Note_on_c, 1, 67, 0
1, 672, Note_on_c, 0, 73, 0
1, 672, Note_on_c, 0, 74, 69
1, 672, Note_on_c, 1, 66, 64
1, 692, Note_on_c, 0, 74, 0
1, 692, Note_on_c, 1, 66, 0
1, 720, Note_on_c, 0, 74, 69
1, 720, Note_on_c, 1, 69, 0
1, 720, Note_on_c, 1, 66, 75
1, 720, Note_on_c, 1, 62, 64
1, 732, Note_on_c, 0, 74, 0
1, 732, Note_on_c, 0, 72, 69
1, 744, Note_on_c, 0, 72, 0
1, 744, Note_on_c, 0, 70, 69
1, 756, Note_on_c, 0, 70, 0
1, 756, Note_on_c, 0, 72, 69
1, 765, Note_on_c, 1, 66, 0
1, 765, Note_on_c, 1, 62, 0
1, 768, Note_on_c, 0, 72, 0
1, 768, Note_on_c, 0, 70, 69
1, 768, Note_on_c, 1, 67, 75
1, 807, Note_on_c, 1, 67, 0
1, 816, Note_on_c, 0, 70, 0
1, 816, Note_on_c, 0, 74, 69
1, 861, Note_on_c, 0, 74, 0
1, 864, Note_on_c, 1, 60, 75
1, 903, Note_on_c, 1, 60, 0
1, 912, Note_on_c, 0, 75, 69
1, 932, Note_on_c, 0, 75, 0
1, 960, Note_on_c, 0, 67, 69
1, 1008, Note_on_c, 1, 62, 75
1, 1053, Note_on_c, 1, 62, 0
1, 1056, Note_on_c, 0, 67, 0
1, 1056, Note_on_c, 0, 66, 69
1, 1056, Note_on_c, 1, 50, 75
1, 1101, Note_on_c, 0, 66, 0
1, 1101, Note_on_c, 1, 50, 0
1, 1104, Note_on_c, 0, 74, 69
1, 1119, Note_on_c, 0, 74, 0
1, 1120, Note_on_c, 0, 75, 69
1, 1135, Note_on_c, 0, 75, 0
1, 1136, Note_on_c, 0, 74, 69
1, 1151, Note_on_c, 0, 74, 0
1, 1152, Note_on_c, 0, 79, 69
1, 1172, Note_on_c, 0, 79, 0
1, 1200, Note_on_c, 0, 77, 69
1, 1220, Note_on_c, 0, 77, 0
1, 1248, Note_on_c, 0, 75, 69
1, 1248, Note_on_c, 0, 82, 85
1, 1248, Note_on_c, 1, 67, 96
1, 1268, Note_on_c, 0, 75, 0
1, 1296, Note_on_c, 0, 74, 69
1, 1316, Note_on_c, 0, 74, 0
1, 1344, Note_on_c, 0, 73, 69
1, 1389, Note_on_c, 0, 82, 0
1, 1392, Note_on_c, 0, 81, 64
1, 1433, Note_on_c, 1, 67, 0
1, 1440, Note_on_c, 0, 73, 0
1, 1440, Note_on_c, 0, 74, 69
1, 1440, Note_on_c, 1, 66, 75
1, 1460, Note_on_c, 0, 74, 0
1, 1488, Note_on_c, 0, 75, 69
1, 1503, Note_on_c, 0, 75, 0
1, 1504, Note_on_c, 0, 74, 69
1, 1519, Note_on_c, 0, 74, 0
1, 1520, Note_on_c, 0, 72, 69
1, 1525, Note_on_c, 0, 81, 0
1, 1529, Note_on_c, 1, 66, 0
1, 1535, Note_on_c, 0, 72, 0
1, 1536, Note_on_c, 0, 74, 69
1, 1536, Note_on_c, 0, 70, 69
1, 1536, Note_on_c, 1, 67, 75
1, 1581, Note_on_c, 0, 74, 0
1, 1581, Note_on_c, 0, 70, 0
1, 1581, Note_on_c, 1, 67, 0
1, 1584, Note_on_c, 0, 79, 69
1, 1584, Note_on_c, 0, 70, 69
1, 1584, Note_on_c, 1, 63, 75
1, 1629, Note_on_c, 0, 79, 0
1, 1629, Note_on_c, 0, 70, 0
1, 1629, Note_on_c, 1, 63, 0
1, 1632, Note_on_c, 0, 81, 69
1, 1632, Note_on_c, 0, 72, 69
1, 1632, Note_on_c, 1, 60, 75
1, 1677, Note_on_c, 0, 81, 0
1, 1677, Note_on_c, 0, 72, 0
1, 1677, Note_on_c, 1, 60, 0
1, 1680, Note_on_c, 0, 78, 69
1, 1680, Note_on_c, 0, 69, 69
1, 1680, Note_on_c, 1, 62, 75
1, 1725, Note_on_c, 0, 78, 0
1, 1725, Note_on_c, 0, 69, 0
1, 1725, Note_on_c, 1, 62, 0
1, 1728, Note_on_c, 0, 79, 69
1, 1728, Note_on_c, 0, 67, 69
1, 1728, Note_on_c, 1, 55, 75
1, 1822, Note_on_c, 0, 79, 0
1, 1822, Note_on_c, 0, 67, 0
1, 1822, Note_on_c, 1, 55, 0
1, 1872, Note_on_c, 0, 62, 69
1, 1887, Note_on_c, 0, 62, 0
1, 1888, Note_on_c, 0, 63, 69
1, 1903, Note_on_c, 0, 63, 0
1, 1904, Note_on_c, 0, 62, 69
1, 1919, Note_on_c, 0, 62, 0
1, 1920, Note_on_c, 0, 67, 69
1, 1968, Note_on_c, 0, 67, 0
1, 1968, Note_on_c, 0, 66, 69
1, 1988, Note_on_c, 0, 66, 0
1, 2016, Note_on_c, 0, 69, 69
1, 2064, Note_on_c, 0, 69, 0
1, 2064, Note_on_c, 0, 67, 69
1, 2084, Note_on_c, 0, 67, 0
1, 2112, Note_on_c, 0, 70, 69
1, 2160, Note_on_c, 1, 67, 75
1, 2160, Note_on_c, 1, 61, 75
1, 2179, Note_on_c, 0, 70, 0
1, 2184, Note_on_c, 0, 72, 69
1, 2196, Note_on_c, 0, 72, 0
1, 2196, Note_on_c, 0, 70, 69
1, 2208, Note_on_c, 0, 70, 0
1, 2208, Note_on_c, 0, 69, 69
1, 2208, Note_on_c, 1, 67, 0
1, 2208, Note_on_c, 1, 61, 0
1, 2208, Note_on_c, 1, 66, 75
1, 2208, Note_on_c, 1, 62, 75
1, 2228, Note_on_c, 0, 69, 0
1, 2255, Note_on_c, 1, 66, 0
1, 2255, Note_on_c, 1, 62, 0
1, 2256, Note_on_c, 0, 62, 69
1, 2271, Note_on_c, 0, 62, 0
1, 2272, Note_on_c, 0, 63, 69
1, 2287, Note_on_c, 0, 63, 0
1, 2288, Note_on_c, 0, 62, 69
1, 2303, Note_on_c, 0, 62, 0
1, 2304, Note_on_c, 0, 69, 69
1, 2352, Note_on_c, 0, 69, 0
1, 2352, Note_on_c, 0, 67, 69
1, 2372, Note_on_c, 0, 67, 0
1, 2400, Note_on_c, 0, 70, 69
1, 2448, Note_on_c, 0, 70, 0
1, 2448, Note_on_c, 0, 69, 69
1, 2468, Note_on_c, 0, 69, 0
1, 2496, Note_on_c, 0, 71, 69
1, 2502, Note_on_c, 0, 71, 0
1, 2502, Note_on_c, 0, 72, 69
1, 2508, Note_on_c, 0, 72, 0
1, 2508, Note_on_c, 0, 74, 69
1, 2514, Note_on_c, 0, 74, 0
1, 2514, Note_on_c, 0, 72, 69
1, 2544, Note_on_c, 1, 63, 61
1, 2544, Note_on_c, 1, 57, 61
1, 2544, Note_on_c, 1, 53, 61
1, 2564, Note_on_c, 1, 63, 0
1, 2564, Note_on_c, 1, 57, 0
1, 2564, Note_on_c, 1, 53, 0
1, 2592, Note_on_c, 1, 63, 61
1, 2592, Note_on_c, 1, 57, 61
1, 2592, Note_on_c, 1, 53, 61
1, 2629, Note_on_c, 0, 72, 0
1, 2639, Note_on_c, 1, 63, 0
1, 2639, Note_on_c, 1, 57, 0
1, 2639, Note_on_c, 1, 53, 0
1, 2640, Note_on_c, 0, 70, 69
1, 2652, Note_on_c, 0, 70, 0
1, 2652, Note_on_c, 0, 69, 69
1, 2664, Note_on_c, 0, 69, 0
1, 2664, Note_on_c, 0, 67, 69
1, 2676, Note_on_c, 0, 67, 0
1, 2676, Note_on_c, 0, 65, 69
1, 2688, Note_on_c, 0, 65, 0
1, 2688, Note_on_c, 0, 77, 69
1, 2736, Note_on_c, 1, 62, 61
1, 2736, Note_on_c, 1, 58, 61
1, 2736, Note_on_c, 1, 53, 61
1, 2756, Note_on_c, 1, 62, 0
1, 2756, Note_on_c, 1, 58, 0
1, 2756, Note_on_c, 1, 53, 0
1, 2784, Note_on_c, 1, 62, 61
1, 2784, Note_on_c, 1, 58, 61
1, 2784, Note_on_c, 1, 53, 61
1, 2807, Note_on_c, 0, 77, 0
1, 2808, Note_on_c, 0, 79, 69
1, 2820, Note_on_c, 0, 79, 0
1, 2820, Note_on_c, 0, 77, 69
1, 2831, Note_on_c, 1, 62, 0
1, 2831, Note_on_c, 1, 58, 0
1, 2831, Note_on_c, 1, 53, 0
1, 2832, Note_on_c, 0, 77, 0
1, 2832, Note_on_c, 0, 75, 69
1, 2844, Note_on_c, 0, 75, 0
1, 2844, Note_on_c, 0, 74, 69
1, 2856, Note_on_c, 0, 74, 0
1, 2856, Note_on_c, 0, 72, 69
1, 2868, Note_on_c, 0, 72, 0
1, 2868, Note_on_c, 0, 70, 69
1, 2880, Note_on_c, 0, 70, 0
1, 2880, Note_on_c, 0, 69, 69
1, 2928, Note_on_c, 1, 63, 61
1, 2928, Note_on_c, 1, 57, 61
1, 2928, Note_on_c, 1, 53, 61
1, 2948, Note_on_c, 1, 63, 0
1, 2948, Note_on_c, 1, 57, 0
1, 2948, Note_on_c, 1, 53, 0
1, 2976, Note_on_c, 1, 63, 61
1, 2976, Note_on_c, 1, 57, 61
1, 2976, Note_on_c, 1, 53, 61
1, 2999, Note_on_c, 0, 69, 0
1, 3000, Note_on_c, 0, 81, 69
1, 3023, Note_on_c, 0, 81, 0
1, 3023, Note_on_c, 1, 63, 0
1, 3023, Note_on_c, 1, 57, 0
1, 3023, Note_on_c, 1, 53, 0
1, 3024, Note_on_c, 0, 82, 69
1, 3036, Note_on_c, 0, 82, 0
1, 3036, Note_on_c, 0, 81, 69
1, 3048, Note_on_c, 0, 81, 0
1, 3048, Note_on_c, 0, 79, 69
1, 3060, Note_on_c, 0, 79, 0
1, 3060, Note_on_c, 0, 77, 69
1, 3072, Note_on_c, 0, 77, 0
1, 3072, Note_on_c, 0, 82, 69
1, 3120, Note_on_c, 1, 62, 61
1, 3120, Note_on_c, 1, 58, 61
1, 3120, Note_on_c, 1, 53, 61
1, 3140, Note_on_c, 1, 62, 0
1, 3140, Note_on_c, 1, 58, 0
1, 3140, Note_on_c, 1, 53, 0
1, 3168, Note_on_c, 1, 62, 61
1, 3168, Note_on_c, 1, 58, 61
1, 3168, Note_on_c, 1, 53, 61
1, 3191, Note_on_c, 0, 82, 0
1, 3192, Note_on_c, 0, 86, 69
1, 3215, Note_on_c, 0, 86, 0
1, 3215, Note_on_c, 1, 62, 0
1, 3215, Note_on_c, 1, 58, 0
1, 3215, Note_on_c, 1, 53, 0
1, 3216, Note_on_c, 0, 87, 69
1, 3228, Note_on_c, 0, 87, 0
1, 3228, Note_on_c, 0, 86, 69
1, 3240, Note_on_c, 0, 86, 0
1, 3240, Note_on_c, 0, 84, 69
1, 3252, Note_on_c, 0, 84, 0
1, 3252, Note_on_c, 0, 82, 69
1, 3264, Note_on_c, 0, 82, 0
1, 3264, Note_on_c, 0, 81, 69
1, 3312, Note_on_c, 1, 63, 61
1, 3312, Note_on_c, 1, 57, 61
1, 3312, Note_on_c, 1, 53, 61
1, 3332, Note_on_c, 1, 63, 0
1, 3332, Note_on_c, 1, 57, 0
1, 3332, Note_on_c, 1, 53, 0
1, 3360, Note_on_c, 1, 63, 61
1, 3360, Note_on_c, 1, 57, 61
1, 3360, Note_on_c, 1, 53, 61
1, 3383, Note_on_c, 0, 81, 0
1, 3384, Note_on_c, 0, 81, 69
1, 3407, Note_on_c, 0, 81, 0
1, 3407, Note_on_c, 1, 63, 0
1, 3407, Note_on_c, 1, 57, 0
1, 3407, Note_on_c, 1, 53, 0
1, 3408, Note_on_c, 0, 82, 69
1, 3420, Note_on_c, 0, 82, 0
1, 3420, Note_on_c, 0, 81, 69
1, 3432, Note_on_c, 0, 81, 0
1, 3432, Note_on_c, 0, 79, 69
1, 3444, Note_on_c, 0, 79, 0
1, 3444, Note_on_c, 0, 77, 69
1, 3456, Note_on_c, 0, 77, 0
1, 3456, Note_on_c, 0, 82, 69
1, 3504, Note_on_c, 1, 61, 61
1, 3504, Note_on_c, 1, 58, 61
1, 3504, Note_on_c, 1, 53, 61
1, 3524, Note_on_c, 1, 61, 0
1, 3524, Note_on_c, 1, 58, 0
1, 3524, Note_on_c, 1, 53, 0
1, 3552, Note_on_c, 1, 61, 61
1, 3552, Note_on_c, 1, 58, 61
1, 3552, Note_on_c, 1, 53, 61
1, 3575, Note_on_c, 0, 82, 0
1, 3576, Note_on_c, 0, 85, 69
1, 3599, Note_on_c, 0, 85, 0
1, 3599, Note_on_c, 1, 61, 0
1, 3599, Note_on_c, 1, 58, 0
1, 3599, Note_on_c, 1, 53, 0
1, 3600, Note_on_c, 0, 84, 69
1, 3623, Note_on_c, 0, 84, 0
1, 3624, Note_on_c, 0, 82, 69
1, 3647, Note_on_c, 0, 82, 0
1, 3648, Note_on_c, 0, 82, 90
1, 3696, Note_on_c, 0, 82, 0
1, 3696, Note_on_c, 0, 81, 69
1, 3696, Note_on_c, 1, 63, 61
1, 3696, Note_on_c, 1, 57, 61
1, 3696, Note_on_c, 1, 53, 61
1, 3716, Note_on_c, 1, 63, 0
1, 3716, Note_on_c, 1, 57, 0
1, 3716, Note_on_c, 1, 53, 0
1, 3741, Note_on_c, 0, 81, 0
1, 3744, Note_on_c, 1, 63, 61
1, 3744, Note_on_c, 1, 57, 61
1, 3744, Note_on_c, 1, 53, 61
1, 3768, Note_on_c, 0, 81, 69
1, 3791, Note_on_c, 0, 81, 0
1, 3791, Note_on_c, 1, 63, 0
1, 3791, Note_on_c, 1, 57, 0
1, 3791, Note_on_c, 1, 53, 0
1, 3792, Note_on_c, 0, 87, 69
1, 3815, Note_on_c, 0, 87, 0
1, 3816, Note_on_c, 0, 81, 69
1, 3839, Note_on_c, 0, 81, 0
1, 3840, Note_on_c, 0, 84, 75
1, 3888, Note_on_c, 0, 84, 0
1, 3888, Note_on_c, 0, 82, 75
1, 3888, Note_on_c, 1, 61, 61
1, 3888, Note_on_c, 1, 53, 64
1, 3908, Note_on_c, 1, 61, 0
1, 3933, Note_on_c, 1, 53, 0
1, 3936, Note_on_c, 1, 61, 61
1, 3936, Note_on_c, 1, 53, 64
1, 3959, Note_on_c, 0, 82, 0
1, 3960, Note_on_c, 0, 84, 75
1, 3981, Note_on_c, 1, 61, 0
1, 3981, Note_on_c, 1, 53, 0
1, 3983, Note_on_c, 0, 84, 0
1, 3984, Note_on_c, 0, 84, 75
1, 3984, Note_on_c, 1, 60, 61
1, 3984, Note_on_c, 1, 53, 64
1, 4007, Note_on_c, 0, 84, 0
1, 4008, Note_on_c, 0, 85, 75
1, 4029, Note_on_c, 1, 60, 0
1, 4029, Note_on_c, 1, 53, 0
1, 4031, Note_on_c, 0, 85, 0
1, 4032, Note_on_c, 0, 85, 75
1, 4032, Note_on_c, 1, 58, 69
1, 4032, Note_on_c, 1, 54, 64
1, 4080, Note_on_c, 0, 85, 0
1, 4080, Note_on_c, 0, 84, 75
1, 4125, Note_on_c, 0, 84, 0
1, 4128, Note_on_c, 0, 82, 75
1, 4165, Note_on_c, 1, 58, 0
1, 4176, Note_on_c, 1, 60, 69
1, 4221, Note_on_c, 1, 60, 0
1, 4224, Note_on_c, 1, 61, 69
1, 4269, Note_on_c, 0, 82, 0
1, 4272, Note_on_c, 0, 80, 75
1, 4317, Note_on_c, 0, 80, 0
1, 4320, Note_on_c, 0, 78, 75
1, 4365, Note_on_c, 0, 78, 0
1, 4368, Note_on_c, 0, 77, 75
1, 4401, Note_on_c, 1, 54, 0
1, 4413, Note_on_c, 0, 77, 0
1, 4416, Note_on_c, 0, 77, 75
1, 4416, Note_on_c, 1, 54, 64
1, 4461, Note_on_c, 1, 61, 0
1, 4464, Note_on_c, 1, 61, 69
1, 4509, Note_on_c, 1, 61, 0
1, 4512, Note_on_c, 0, 77, 0
1, 4512, Note_on_c, 0, 76, 75
1, 4512, Note_on_c, 1, 60, 69
1, 4518, Note_on_c, 0, 76, 0
1, 4518, Note_on_c, 0, 77, 75
1, 4524, Note_on_c, 0, 77, 0
1, 4524, Note_on_c, 0, 76, 75
1, 4557, Note_on_c, 1, 60, 0
1, 4559, Note_on_c, 0, 76, 0
1, 4560, Note_on_c, 0, 85, 75
1, 4560, Note_on_c, 1, 58, 69
1, 4583, Note_on_c, 0, 85, 0
1, 4584, Note_on_c, 0, 76, 75
1, 4593, Note_on_c, 1, 54, 0
1, 4605, Note_on_c, 1, 58, 0
1, 4607, Note_on_c, 0, 76, 0
1, 4608, Note_on_c, 0, 76, 75
1, 4608, Note_on_c, 1, 58, 69
1, 4608, Note_on_c, 1, 53, 64
1, 4704, Note_on_c, 1, 58, 0
1, 4704, Note_on_c, 1, 57, 69
1, 4741, Note_on_c, 0, 76, 0
1, 4752, Note_on_c, 0, 79, 75
1, 4775, Note_on_c, 0, 79, 0
1, 4776, Note_on_c, 0, 77, 75
1, 4785, Note_on_c, 1, 53, 0
1, 4793, Note_on_c, 1, 57, 0
1, 4799, Note_on_c, 0, 77, 0
1, 4800, Note_on_c, 0, 77, 75
1, 4845, Note_on_c, 0, 77, 0
1, 4944, Note_on_c, 0, 77, 84
1, 4956, Note_on_c, 0, 77, 0
1, 4956, Note_on_c, 0, 74, 84
1, 4968, Note_on_c, 0, 74, 0
1, 4968, Note_on_c, 0, 70, 84
1, 4980, Note_on_c, 0, 70, 0
1, 4980, Note_on_c, 0, 65, 84
1, 4986, Note_on_c, 0, 65, 0
1, 4986, Note_on_c, 0, 62, 84
1, 4992, Note_on_c, 0, 62, 0
1, 4992, Note_on_c, 0, 58, 84
1, 5012, Note_on_c, 0, 58, 0
1, 5040, Note_on_c, 0, 82, 84
1, 5040, Note_on_c, 1, 77, 84
1, 5040, Note_on_c, 1, 74, 84
1, 5055, Note_on_c, 0, 82, 0
1, 5056, Note_on_c, 0, 84, 84
1, 5071, Note_on_c, 0, 84, 0
1, 5072, Note_on_c, 0, 82, 84
1, 5087, Note_on_c, 0, 82, 0
1, 5088, Note_on_c, 0, 81, 84
1, 5088, Note_on_c, 1, 77, 0
1, 5088, Note_on_c, 1, 74, 0
1, 5088, Note_on_c, 1, 75, 84
1, 5088, Note_on_c, 1, 72, 84
1, 5108, Note_on_c, 0, 81, 0
1, 5133, Note_on_c, 1, 75, 0
1, 5133, Note_on_c, 1, 72, 0
1, 5136, Note_on_c, 0, 77, 84
1, 5148, Note_on_c, 0, 77, 0
1, 5148, Note_on_c, 0, 74, 84
1, 5160, Note_on_c, 0, 74, 0
1, 5160, Note_on_c, 0, 70, 84
1, 5172, Note_on_c, 0, 70, 0
1, 5172, Note_on_c, 0, 65, 84
1, 5178, Note_on_c, 0, 65, 0
1, 5178, Note_on_c, 0, 62, 84
1, 5184, Note_on_c, 0, 62, 0
1, 5184, Note_on_c, 0, 58, 84
1, 5204, Note_on_c, 0, 58, 0
1, 5232, Note_on_c, 0, 74, 84
1, 5232, Note_on_c, 1, 70, 84
1, 5232, Note_on_c, 1, 64, 84
1, 5239, Note_on_c, 0, 74, 0
1, 5239, Note_on_c, 0, 75, 84
1, 5246, Note_on_c, 0, 75, 0
1, 5246, Note_on_c, 0, 74, 84
1, 5253, Note_on_c, 0, 74, 0
1, 5253, Note_on_c, 0, 75, 84
1, 5260, Note_on_c, 0, 75, 0
1, 5260, Note_on_c, 0, 74, 84
1, 5267, Note_on_c, 0, 74, 0
1, 5267, Note_on_c, 0, 72, 84
1, 5274, Note_on_c, 0, 72, 0
1, 5274, Note_on_c, 0, 74, 84
1, 5280, Note_on_c, 0, 74, 0
1, 5280, Note_on_c, 0, 72, 84
1, 5280, Note_on_c, 1, 70, 0
1, 5280, Note_on_c, 1, 64, 0
1, 5280, Note_on_c, 1, 69, 84
1, 5280, Note_on_c, 1, 65, 84
1, 5300, Note_on_c, 0, 72, 0
1, 5325, Note_on_c, 1, 69, 0
1, 5325, Note_on_c, 1, 65, 0
1, 5328, Note_on_c, 0, 77, 69
1, 5340, Note_on_c, 0, 77, 0
1, 5340, Note_on_c, 0, 74, 69
1, 5352, Note_on_c, 0, 74, 0
1, 5352, Note_on_c, 0, 70, 69
1, 5364, Note_on_c, 0, 70, 0
1, 5364, Note_on_c, 0, 65, 69
1, 5370, Note_on_c, 0, 65, 0
1, 5370, Note_on_c, 0, 62, 69
1, 5376, Note_on_c, 0, 62, 0
1, 5376, Note_on_c, 0, 58, 69
1, 5396, Note_on_c, 0, 58, 0
1, 5424, Note_on_c, 0, 82, 69
1, 5424, Note_on_c, 1, 77, 69
1, 5424, Note_on_c, 1, 74, 69
1, 5439, Note_on_c, 0, 82, 0
1, 5440, Note_on_c, 0, 84, 69
1, 5455, Note_on_c, 0, 84, 0
1, 5456, Note_on_c, 0, 82, 69
1, 5471, Note_on_c, 0, 82, 0
1, 5472, Note_on_c, 0, 81, 69
1, 5472, Note_on_c, 1, 77, 0
1, 5472, Note_on_c, 1, 74, 0
1, 5472, Note_on_c, 1, 75, 69
1, 5472, Note_on_c, 1, 72, 69
1, 5492, Note_on_c, 0, 81, 0
1, 5517, Note_on_c, 1, 75, 0
1, 5517, Note_on_c, 1, 72, 0
1, 5520, Note_on_c, 0, 77, 69
1, 5532, Note_on_c, 0, 77, 0
1, 5532, Note_on_c, 0, 74, 69
1, 5544, Note_on_c, 0, 74, 0
1, 5544, Note_on_c, 0, 70, 69
1, 5556, Note_on_c, 0, 70, 0
1, 5556, Note_on_c, 0, 65, 69
1, 5562, Note_on_c, 0, 65, 0
1, 5562, Note_on_c, 0, 62, 69
1, 5568, Note_on_c, 0, 62, 0
1, 5568, Note_on_c, 0, 58, 69
1, 5588, Note_on_c, 0, 58, 0
1, 5616, Note_on_c, 0, 74, 69
1, 5616, Note_on_c, 1, 70, 69
1, 5616, Note_on_c, 1, 64, 69
1, 5623, Note_on_c, 0, 74, 0
1, 5623, Note_on_c, 0, 75, 69
1, 5630, Note_on_c, 0, 75, 0
1, 5630, Note_on_c, 0, 74, 69
1, 5637, Note_on_c, 0, 74, 0
1, 5637, Note_on_c, 0, 75, 69
1, 5644, Note_on_c, 0, 75, 0
1, 5644, Note_on_c, 0, 74, 69
1, 5651, Note_on_c, 0, 74, 0
1, 5651, Note_on_c, 0, 72, 69
1, 5658, Note_on_c, 0, 72, 0
1, 5658, Note_on_c, 0, 74, 69
1, 5664, Note_on_c, 0, 74, 0
1, 5664, Note_on_c, 0, 72, 69
1, 5664, Note_on_c, 1, 70, 0
1, 5664, Note_on_c, 1, 64, 0
1, 5664, Note_on_c, 1, 69, 69
1, 5664, Note_on_c, 1, 65, 69
1, 5684, Note_on_c, 0, 72, 0
1, 5709, Note_on_c, 1, 69, 0
1, 5709, Note_on_c, 1, 65, 0
1, 5712, Note_on_c, 0, 77, 69
1, 5712, Note_on_c, 1, 58, 69
1, 5712, Note_on_c, 1, 50, 69
1, 5724, Note_on_c, 0, 77, 0
1, 5724, Note_on_c, 0, 74, 69
1, 5736, Note_on_c, 0, 74, 0
1, 5736, Note_on_c, 0, 70, 69
1, 5748, Note_on_c, 0, 70, 0
1, 5748, Note_on_c, 0, 65, 69
1, 5757, Note_on_c, 1, 50, 0
1, 5760, Note_on_c, 0, 65, 0
1, 5760, Note_on_c, 0, 67, 69
1, 5760, Note_on_c, 1, 51, 69
1, 5783, Note_on_c, 0, 67, 0
1, 5784, Note_on_c, 0, 79, 70
1, 5805, Note_on_c, 1, 58, 0
1, 5807, Note_on_c, 0, 79, 0
1, 5808, Note_on_c, 1, 55, 70
1, 5832, Note_on_c, 0, 77, 70
1, 5853, Note_on_c, 1, 55, 0
1, 5855, Note_on_c, 0, 77, 0
1, 5856, Note_on_c, 0, 75, 71
1, 5856, Note_on_c, 1, 60, 71
1, 5879, Note_on_c, 0, 75, 0
1, 5880, Note_on_c, 0, 74, 71
1, 5893, Note_on_c, 1, 51, 0
1, 5903, Note_on_c, 0, 74, 0
1, 5904, Note_on_c, 0, 72, 72
1, 5904, Note_on_c, 1, 51, 71
1, 5927, Note_on_c, 0, 72, 0
1, 5928, Note_on_c, 0, 70, 72
1, 5949, Note_on_c, 1, 51, 0
1, 5951, Note_on_c, 0, 70, 0
1, 5952, Note_on_c, 0, 70, 72
1, 5952, Note_on_c, 1, 53, 72
1, 5997, Note_on_c, 1, 60, 0
1, 6000, Note_on_c, 1, 57, 73
1, 6045, Note_on_c, 1, 57, 0
1, 6048, Note_on_c, 0, 70, 0
1, 6048, Note_on_c, 0, 69, 74
1, 6048, Note_on_c, 1, 62, 74
1, 6085, Note_on_c, 1, 53, 0
1, 6093, Note_on_c, 0, 69, 0
1, 6096, Note_on_c, 0, 81, 75
1, 6096, Note_on_c, 1, 53, 74
1, 6108, Note_on_c, 0, 81, 0
1, 6108, Note_on_c, 0, 77, 75
1, 6120, Note_on_c, 0, 77, 0
1, 6120, Note_on_c, 0, 74, 75
1, 6132, Note_on_c, 0, 74, 0
1, 6132, Note_on_c, 0, 69, 75
1, 6141, Note_on_c, 1, 53, 0
1, 6144, Note_on_c, 0, 69, 0
1, 6144, Note_on_c, 0, 70, 75
1, 6144, Note_on_c, 1, 55, 75
1, 6167, Note_on_c, 0, 70, 0
1, 6168, Note_on_c, 0, 82, 76
1, 6189, Note_on_c, 1, 62, 0
1, 6191, Note_on_c, 0, 82, 0
1, 6192, Note_on_c, 1, 58, 76
1, 6216, Note_on_c, 0, 81, 77
1, 6237, Note_on_c, 1, 58, 0
1, 6239, Note_on_c, 0, 81, 0
1, 6240, Note_on_c, 0, 81, 77
1, 6240, Note_on_c, 1, 63, 76
1, 6246, Note_on_c, 0, 81, 0
1, 6246, Note_on_c, 0, 79, 77
1, 6263, Note_on_c, 0, 79, 0
1, 6264, Note_on_c, 0, 77, 77
1, 6277, Note_on_c, 1, 55, 0
1, 6287, Note_on_c, 0, 77, 0
1, 6288, Note_on_c, 0, 77, 78
1, 6288, Note_on_c, 1, 55, 77
1, 6294, Note_on_c, 0, 77, 0
1, 6294, Note_on_c, 0, 75, 78
1, 6311, Note_on_c, 0, 75, 0
1, 6312, Note_on_c, 0, 74, 78
1, 6333, Note_on_c, 1, 55, 0
1, 6335, Note_on_c, 0, 74, 0
1, 6336, Note_on_c, 0, 74, 79
1, 6336, Note_on_c, 1, 57, 78
1, 6381, Note_on_c, 1, 63, 0
1, 6384, Note_on_c, 1, 60, 79
1, 6429, Note_on_c, 1, 60, 0
1, 6432, Note_on_c, 0, 74, 0
1, 6432, Note_on_c, 0, 72, 80
1, 6432, Note_on_c, 1, 65, 79
1, 6469, Note_on_c, 1, 57, 0
1, 6477, Note_on_c, 0, 72, 0
1, 6480, Note_on_c, 0, 84, 81
1, 6480, Note_on_c, 1, 57, 80
1, 6492, Note_on_c, 0, 84, 0
1, 6492, Note_on_c, 0, 81, 81
1, 6504, Note_on_c, 0, 81, 0
1, 6504, Note_on_c, 0, 77, 81
1, 6516, Note_on_c, 0, 77, 0
1, 6516, Note_on_c, 0, 72, 81
1, 6525, Note_on_c, 1, 57, 0
1, 6528, Note_on_c, 0, 72, 0
1, 6528, Note_on_c, 0, 74, 82
1, 6528, Note_on_c, 1, 58, 81
1, 6551, Note_on_c, 0, 74, 0
1, 6552, Note_on_c, 0, 86, 82
1, 6573, Note_on_c, 1, 65, 0
1, 6575, Note_on_c, 0, 86, 0
1, 6576, Note_on_c, 1, 62, 81
1, 6600, Note_on_c, 0, 84, 83
1, 6621, Note_on_c, 1, 62, 0
1, 6623, Note_on_c, 0, 84, 0
1, 6624, Note_on_c, 0, 82, 83
1, 6624, Note_on_c, 1, 67, 82
1, 6647, Note_on_c, 0, 82, 0
1, 6648, Note_on_c, 0, 81, 84
1, 6671, Note_on_c, 0, 81, 0
1, 6672, Note_on_c, 0, 79, 84
1, 6695, Note_on_c, 0, 79, 0
1, 6696, Note_on_c, 0, 77, 84
1, 6705, Note_on_c, 1, 58, 0
1, 6713, Note_on_c, 1, 67, 0
1, 6719, Note_on_c, 0, 77, 0
1, 6720, Note_on_c, 0, 77, 84
1, 6744, Note_on_c, 1, 58, 84
1, 6767, Note_on_c, 1, 58, 0
1, 6768, Note_on_c, 1, 61, 84
1, 6791, Note_on_c, 1, 61, 0
1, 6792, Note_on_c, 1, 64, 84
1, 6809, Note_on_c, 0, 77, 0
1, 6815, Note_on_c, 1, 64, 0
1, 6816, Note_on_c, 0, 76, 84
1, 6816, Note_on_c, 1, 67, 84
1, 6822, Note_on_c, 0, 76, 0
1, 6822, Note_on_c, 0, 77, 84
1, 6828, Note_on_c, 0, 77, 0
1, 6828, Note_on_c, 0, 76, 84
1, 6839, Note_on_c, 1, 67, 0
1, 6840, Note_on_c, 1, 70, 84
1, 6863, Note_on_c, 1, 70, 0
1, 6864, Note_on_c, 1, 73, 84
1, 6885, Note_on_c, 0, 76, 0
1, 6887, Note_on_c, 1, 73, 0
1, 6888, Note_on_c, 0, 79, 84
1, 6911, Note_on_c, 0, 79, 0
1, 6912, Note_on_c, 0, 79, 84
1, 6936, Note_on_c, 1, 57, 84
1, 6959, Note_on_c, 1, 57, 0
1, 6960, Note_on_c, 1, 60, 84
1, 6983, Note_on_c, 1, 60, 0
1, 6984, Note_on_c, 1, 64, 84
1, 7001, Note_on_c, 0, 79, 0
1, 7007, Note_on_c, 1, 64, 0
1, 7008, Note_on_c, 0, 77, 84
1, 7008, Note_on_c, 1, 65, 84
1, 7014, Note_on_c, 0, 77, 0
1, 7014, Note_on_c, 0, 79, 84
1, 7020, Note_on_c, 0, 79, 0
1, 7020, Note_on_c, 0, 77, 84
1, 7031, Note_on_c, 1, 65, 0
1, 7032, Note_on_c, 1, 69, 84
1, 7055, Note_on_c, 1, 69, 0
1, 7056, Note_on_c, 1, 72, 84
1, 7077, Note_on_c, 0, 77, 0
1, 7079, Note_on_c, 1, 72, 0
1, 7080, Note_on_c, 0, 84, 84
1, 7103, Note_on_c, 0, 84, 0
1, 7104, Note_on_c, 0, 84, 84
1, 7128, Note_on_c, 1, 53, 84
1, 7149, Note_on_c, 0, 84, 0
1, 7151, Note_on_c, 1, 53, 0
1, 7152, Note_on_c, 0, 75, 84
1, 7152, Note_on_c, 1, 57, 84
1, 7175, Note_on_c, 1, 57, 0
1, 7176, Note_on_c, 1, 60, 84
1, 7199, Note_on_c, 1, 60, 0
1, 7200, Note_on_c, 1, 65, 84
1, 7223, Note_on_c, 1, 65, 0
1, 7224, Note_on_c, 1, 69, 84
1, 7241, Note_on_c, 0, 75, 0
1, 7247, Note_on_c, 1, 69, 0
1, 7248, Note_on_c, 0, 77, 84
1, 7248, Note_on_c, 1, 72, 84
1, 7260, Note_on_c, 0, 77, 0
1, 7260, Note_on_c, 0, 75, 84
1, 7271, Note_on_c, 1, 72, 0
1, 7272, Note_on_c, 0, 75, 0
1, 7272, Note_on_c, 0, 74, 84
1, 7272, Note_on_c, 1, 69, 84
1, 7284, Note_on_c, 0, 74, 0
1, 7284, Note_on_c, 0, 75, 84
1, 7295, Note_on_c, 1, 69, 0
1, 7296, Note_on_c, 0, 75, 0
1, 7296, Note_on_c, 0, 74, 84
1, 7296, Note_on_c, 1, 70, 84
1, 7341, Note_on_c, 0, 74, 0
1, 7341, Note_on_c, 1, 70, 0
1, 7344, Note_on_c, 0, 82, 84
1, 7392, Note_on_c, 1, 58, 84
1, 7392, Note_on_c, 1, 50, 84
1, 7415, Note_on_c, 0, 82, 0
1, 7416, Note_on_c, 0, 80, 84
1, 7439, Note_on_c, 0, 80, 0
1, 7440, Note_on_c, 0, 79, 84
1, 7463, Note_on_c, 0, 79, 0
1, 7464, Note_on_c, 0, 78, 84
1, 7487, Note_on_c, 0, 78, 0
1, 7488, Note_on_c, 0, 78, 84
1, 7488, Note_on_c, 1, 50, 0
1, 7488, Note_on_c, 1, 51, 84
1, 7536, Note_on_c, 0, 78, 0
1, 7536, Note_on_c, 0, 79, 84
1, 7556, Note_on_c, 0, 79, 0
1, 7577, Note_on_c, 1, 58, 0
1, 7577, Note_on_c, 1, 51, 0
1, 7632, Note_on_c, 0, 84, 84
1, 7632, Note_on_c, 1, 58, 84
1, 7632, Note_on_c, 1, 51, 84
1, 7644, Note_on_c, 0, 84, 0
1, 7644, Note_on_c, 0, 82, 84
1, 7656, Note_on_c, 0, 82, 0
1, 7656, Note_on_c, 0, 81, 84
1, 7668, Note_on_c, 0, 81, 0
1, 7668, Note_on_c, 0, 79, 84
1, 7680, Note_on_c, 0, 79, 0
1, 7680, Note_on_c, 0, 79, 84
1, 7680, Note_on_c, 1, 51, 0
1, 7680, Note_on_c, 1, 50, 84
1, 7692, Note_on_c, 0, 79, 0
1, 7692, Note_on_c, 0, 77, 84
1, 7704, Note_on_c, 0, 77, 0
1, 7704, Note_on_c, 0, 76, 84
1, 7716, Note_on_c, 0, 76, 0
1, 7716, Note_on_c, 0, 77, 84
1, 7725, Note_on_c, 1, 50, 0
1, 7728, Note_on_c, 0, 77, 0
1, 7728, Note_on_c, 0, 81, 84
1, 7728, Note_on_c, 1, 51, 84
1, 7740, Note_on_c, 0, 81, 0
1, 7740, Note_on_c, 0, 79, 84
1, 7752, Note_on_c, 0, 79, 0
1, 7752, Note_on_c, 0, 77, 84
1, 7764, Note_on_c, 0, 77, 0
1, 7764, Note_on_c, 0, 75, 84
1, 7773, Note_on_c, 1, 51, 0
1, 7776, Note_on_c, 0, 75, 0
1, 7776, Note_on_c, 0, 74, 84
1, 7776, Note_on_c, 1, 53, 84
1, 7813, Note_on_c, 1, 58, 0
1, 7821, Note_on_c, 0, 74, 0
1, 7824, Note_on_c, 0, 72, 84
1, 7824, Note_on_c, 1, 57, 84
1, 7831, Note_on_c, 0, 72, 0
1, 7831, Note_on_c, 0, 74, 84
1, 7838, Note_on_c, 0, 74, 0
1, 7838, Note_on_c, 0, 72, 84
1, 7845, Note_on_c, 0, 72, 0
1, 7845, Note_on_c, 0, 74, 84
1, 7852, Note_on_c, 0, 74, 0
1, 7852, Note_on_c, 0, 72, 84
1, 7859, Note_on_c, 0, 72, 0
1, 7859, Note_on_c, 0, 70, 84
1, 7865, Note_on_c, 1, 53, 0
1, 7866, Note_on_c, 0, 70, 0
1, 7866, Note_on_c, 0, 72, 84
1, 7869, Note_on_c, 1, 57, 0
1, 7872, Note_on_c, 0, 72, 0
1, 7872, Note_on_c, 0, 70, 84
1, 7872, Note_on_c, 1, 58, 84
1, 7895, Note_on_c, 1, 58, 0
1, 7896, Note_on_c, 1, 46, 84
1, 7919, Note_on_c, 1, 46, 0
1, 7920, Note_on_c, 1, 50, 84
1, 7943, Note_on_c, 1, 50, 0
1, 7944, Note_on_c, 1, 53, 84
1, 7961, Note_on_c, 0, 70, 0
1, 7967, Note_on_c, 1, 53, 0
1, 7968, Note_on_c, 1, 58, 84
1, 8013, Note_on_c, 1, 58, 0
1, 8016, Note_on_c, 0, 65, 75
1, 8061, Note_on_c, 0, 65, 0
1, 8064, Note_on_c, 0, 70, 75
1, 8064, Note_on_c, 0, 62, 64
1, 8112, Note_on_c, 0, 70, 0
1, 8112, Note_on_c, 0, 69, 75
1, 8112, Note_on_c, 0, 62, 0
1, 8112, Note_on_c, 0, 60, 64
1, 8132, Note_on_c, 0, 69, 0
1, 8157, Note_on_c, 0, 60, 0
1, 8160, Note_on_c, 0, 72, 75
1, 8160, Note_on_c, 0, 63, 64
1, 8208, Note_on_c, 0, 72, 0
1, 8208, Note_on_c, 0, 70, 75
1, 8208, Note_on_c, 0, 63, 0
1, 8208, Note_on_c, 0, 62, 64
1, 8228, Note_on_c, 0, 70, 0
1, 8253, Note_on_c, 0, 62, 0
1, 8256, Note_on_c, 0, 74, 75
1, 8256, Note_on_c, 0, 70, 64
1, 8304, Note_on_c, 1, 64, 75
1, 8323, Note_on_c, 0, 74, 0
1, 8328, Note_on_c, 0, 75, 75
1, 8340, Note_on_c, 0, 75, 0
1, 8340, Note_on_c, 0, 74, 75
1, 8345, Note_on_c, 0, 70, 0
1, 8352, Note_on_c, 0, 74, 0
1, 8352, Note_on_c, 0, 72, 75
1, 8352, Note_on_c, 0, 69, 64
1, 8352, Note_on_c, 1, 64, 0
1, 8352, Note_on_c, 1, 65, 75
1, 8397, Note_on_c, 0, 72, 0
1, 8397, Note_on_c, 0, 69, 0
1, 8397, Note_on_c, 1, 65, 0
1, 8400, Note_on_c, 0, 65, 64
1, 8420, Note_on_c, 0, 65, 0
1, 8448, Note_on_c, 0, 72, 75
1, 8448, Note_on_c, 0, 63, 64
1, 8496, Note_on_c, 0, 72, 0
1, 8496, Note_on_c, 0, 70, 75
1, 8496, Note_on_c, 0, 63, 0
1, 8496, Note_on_c, 0, 62, 64
1, 8516, Note_on_c, 0, 62, 0
1, 8541, Note_on_c, 0, 70, 0
1, 8544, Note_on_c, 0, 74, 75
1, 8544, Note_on_c, 0, 70, 64
1, 8592, Note_on_c, 0, 74, 0
1, 8592, Note_on_c, 0, 72, 75
1, 8592, Note_on_c, 0, 70, 0
1, 8592, Note_on_c, 0, 69, 64
1, 8612, Note_on_c, 0, 72, 0
1, 8612, Note_on_c, 0, 69, 0
1, 8640, Note_on_c, 0, 75, 75
1, 8640, Note_on_c, 0, 72, 64
1, 8688, Note_on_c, 1, 53, 75
1, 8707, Note_on_c, 0, 75, 0
1, 8712, Note_on_c, 0, 79, 75
1, 8720, Note_on_c, 0, 79, 0
1, 8720, Note_on_c, 0, 77, 75
1, 8728, Note_on_c, 0, 77, 0
1, 8728, Note_on_c, 0, 75, 75
1, 8729, Note_on_c, 0, 72, 0
1, 8736, Note_on_c, 0, 75, 0
1, 8736, Note_on_c, 0, 74, 75
1, 8736, Note_on_c, 0, 70, 64
1, 8736, Note_on_c, 1, 53, 0
1, 8736, Note_on_c, 1, 58, 75
1, 8781, Note_on_c, 0, 74, 0
1, 8781, Note_on_c, 0, 70, 0
1, 8781, Note_on_c, 1, 58, 0
1, 8784, Note_on_c, 0, 65, 64
1, 8804, Note_on_c, 0, 65, 0
1, 8832, Note_on_c, 0, 74, 75
1, 8855, Note_on_c, 0, 74, 0
1, 8856, Note_on_c, 0, 70, 75
1, 8879, Note_on_c, 0, 70, 0
1, 8880, Note_on_c, 0, 72, 75
1, 8903, Note_on_c, 0, 72, 0
1, 8904, Note_on_c, 0, 69, 75
1, 8927, Note_on_c, 0, 69, 0
1, 8928, Note_on_c, 0, 75, 75
1, 8951, Note_on_c, 0, 75, 0
1, 8952, Note_on_c, 0, 72, 75
1, 8975, Note_on_c, 0, 72, 0
1, 8976, Note_on_c, 0, 74, 75
1, 8999, Note_on_c, 0, 74, 0
1, 9000, Note_on_c, 0, 70, 75
1, 9023, Note_on_c, 0, 70, 0
1, 9024, Note_on_c, 0, 79, 96
1, 9024, Note_on_c, 0, 75, 64
1, 9072, Note_on_c, 1, 57, 75
1, 9072, Note_on_c, 1, 53, 75
1, 9113, Note_on_c, 0, 79, 0
1, 9113, Note_on_c, 0, 75, 0
1, 9117, Note_on_c, 1, 57, 0
1, 9117, Note_on_c, 1, 53, 0
1, 9120, Note_on_c, 0, 77, 75
1, 9120, Note_on_c, 0, 74, 64
1, 9120, Note_on_c, 1, 58, 75
1, 9120, Note_on_c, 1, 55, 75
1, 9165, Note_on_c, 0, 77, 0
1, 9165, Note_on_c, 0, 74, 0
1, 9165, Note_on_c, 1, 58, 0
1, 9165, Note_on_c, 1, 55, 0
1, 9168, Note_on_c, 0, 75, 75
1, 9168, Note_on_c, 0, 72, 64
1, 9168, Note_on_c, 1, 60, 75
1, 9168, Note_on_c, 1, 57, 75
1, 9175, Note_on_c, 0, 75, 0
1, 9175, Note_on_c, 0, 77, 75
1, 9182, Note_on_c, 0, 77, 0
1, 9182, Note_on_c, 0, 75, 75
1, 9189, Note_on_c, 0, 75, 0
1, 9189, Note_on_c, 0, 77, 75
1, 9196, Note_on_c, 0, 77, 0
1, 9196, Note_on_c, 0, 75, 75
1, 9203, Note_on_c, 0, 75, 0
1, 9203, Note_on_c, 0, 74, 75
1, 9210, Note_on_c, 0, 74, 0
1, 9210, Note_on_c, 0, 75, 75
1, 9213, Note_on_c, 0, 72, 0
1, 9213, Note_on_c, 1, 60, 0
1, 9213, Note_on_c, 1, 57, 0
1, 9216, Note_on_c, 0, 75, 0
1, 9216, Note_on_c, 0, 74, 75
1, 9216, Note_on_c, 0, 70, 75
1, 9216, Note_on_c, 1, 58, 75
1, 9261, Note_on_c, 0, 74, 0
1, 9261, Note_on_c, 0, 70, 0
1, 9261, Note_on_c, 1, 58, 0
1, 9264, Note_on_c, 0, 75, 75
1, 9264, Note_on_c, 1, 51, 75
1, 9264, Note_on_c, 1, 63, 84
1, 9287, Note_on_c, 0, 75, 0
1, 9288, Note_on_c, 0, 72, 75
1, 9309, Note_on_c, 1, 51, 0
1, 9309, Note_on_c, 1, 63, 0
1, 9311, Note_on_c, 0, 72, 0
1, 9312, Note_on_c, 0, 70, 75
1, 9312, Note_on_c, 1, 53, 75
1, 9312, Note_on_c, 1, 62, 84
1, 9357, Note_on_c, 0, 70, 0
1, 9357, Note_on_c, 1, 62, 0
1, 9360, Note_on_c, 0, 69, 75
1, 9360, Note_on_c, 1, 60, 84
1, 9367, Note_on_c, 0, 69, 0
1, 9367, Note_on_c, 0, 70, 75
1, 9374, Note_on_c, 0, 70, 0
1, 9374, Note_on_c, 0, 69, 75
1, 9381, Note_on_c, 0, 69, 0
1, 9381, Note_on_c, 0, 70, 75
1, 9388, Note_on_c, 0, 70, 0
1, 9388, Note_on_c, 0, 69, 75
1, 9395, Note_on_c, 0, 69, 0
1, 9395, Note_on_c, 0, 67, 75
1, 9401, Note_on_c, 1, 53, 0
1, 9402, Note_on_c, 0, 67, 0
1, 9402, Note_on_c, 0, 69, 75
1, 9405, Note_on_c, 1, 60, 0
1, 9408, Note_on_c, 0, 69, 0
1, 9408, Note_on_c, 0, 70, 75
1, 9408, Note_on_c, 1, 58, 75
1, 9431, Note_on_c, 0, 70, 0
1, 9432, Note_on_c, 0, 77, 75
1, 9453, Note_on_c, 1, 58, 0
1, 9455, Note_on_c, 0, 77, 0
1, 9456, Note_on_c, 1, 46, 75
1, 9480, Note_on_c, 0, 77, 75
1, 9501, Note_on_c, 1, 46, 0
1, 9503, Note_on_c, 0, 77, 0
1, 9504, Note_on_c, 1, 50, 78
1, 9528, Note_on_c, 0, 77, 75
1, 9549, Note_on_c, 1, 50, 0
1, 9551, Note_on_c, 0, 77, 0
1, 9552, Note_on_c, 1, 53, 81
1, 9576, Note_on_c, 0, 77, 75
1, 9597, Note_on_c, 1, 53, 0
1, 9599, Note_on_c, 0, 77, 0
1, 9600, Note_on_c, 1, 62, 84
1, 9600, Note_on_c, 1, 58, 84
1, 9624, Note_on_c, 0, 77, 75
1, 9647, Note_on_c, 0, 77, 0
1, 9648, Note_on_c, 1, 62, 0
1, 9648, Note_on_c, 1, 58, 0
1, 9648, Note_on_c, 1, 60, 87
1, 9648, Note_on_c, 1, 57, 87
1, 9668, Note_on_c, 1, 60, 0
1, 9668, Note_on_c, 1, 57, 0
1, 9672, Note_on_c, 0, 77, 76
1, 9695, Note_on_c, 0, 77, 0
1, 9696, Note_on_c, 1, 63, 91
1, 9696, Note_on_c, 1, 60, 91
1, 9720, Note_on_c, 0, 77, 78
1, 9743, Note_on_c, 0, 77, 0
1, 9744, Note_on_c, 1, 63, 0
1, 9744, Note_on_c, 1, 60, 0
1, 9744, Note_on_c, 1, 62, 95
1, 9744, Note_on_c, 1, 58, 95
1, 9764, Note_on_c, 1, 62, 0
1, 9764, Note_on_c, 1, 58, 0
1, 9768, Note_on_c, 0, 77, 79
1, 9791, Note_on_c, 0, 77, 0
1, 9792, Note_on_c, 1, 67, 98
1, 9792, Note_on_c, 1, 63, 98
1, 9816, Note_on_c, 0, 77, 81
1, 9839, Note_on_c, 0, 77, 0
1, 9840, Note_on_c, 1, 67, 0
1, 9840, Note_on_c, 1, 69, 102
1, 9864, Note_on_c, 0, 77, 82
1, 9885, Note_on_c, 1, 69, 0
1, 9885, Note_on_c, 1, 63, 0
1, 9887, Note_on_c, 0, 77, 0
1, 9888, Note_on_c, 1, 70, 106
1, 9888, Note_on_c, 1, 62, 106
1, 9912, Note_on_c, 0, 77, 84
1, 9933, Note_on_c, 1, 70, 0
1, 9933, Note_on_c, 1, 62, 0
1, 9935, Note_on_c, 0, 77, 0
1, 9936, Note_on_c, 0, 89, 84
1, 9936, Note_on_c, 1, 58, 84
1, 9936, Note_on_c, 1, 50, 84
1, 9948, Note_on_c, 0, 89, 0
1, 9948, Note_on_c, 0, 86, 81
1, 9960, Note_on_c, 0, 86, 0
1, 9960, Note_on_c, 0, 82, 79
1, 9972, Note_on_c, 0, 82, 0
1, 9972, Note_on_c, 0, 77, 77
1, 9981, Note_on_c, 1, 58, 0
1, 9981, Note_on_c, 1, 50, 0
1, 9984, Note_on_c, 0, 77, 0
1, 9984, Note_on_c, 0, 79, 75
1, 9984, Note_on_c, 1, 58, 81
1, 9984, Note_on_c, 1, 51, 81
1, 10007, Note_on_c, 0, 79, 0
1, 10008, Note_on_c, 0, 81, 75
1, 10020, Note_on_c, 0, 81, 0
1, 10020, Note_on_c, 0, 82, 75
1, 10032, Note_on_c, 0, 82, 0
1, 10032, Note_on_c, 0, 81, 75
1, 10044, Note_on_c, 0, 81, 0
1, 10044, Note_on_c, 0, 79, 75
1, 10056, Note_on_c, 0, 79, 0
1, 10056, Note_on_c, 0, 77, 75
1, 10068, Note_on_c, 0, 77, 0
1, 10068, Note_on_c, 0, 75, 75
1, 10073, Note_on_c, 1, 58, 0
1, 10073, Note_on_c, 1, 51, 0
1, 10080, Note_on_c, 0, 75, 0
1, 10080, Note_on_c, 0, 74, 75
1, 10080, Note_on_c, 1, 58, 77
1, 10080, Note_on_c, 1, 53, 77
1, 10125, Note_on_c, 0, 74, 0
1, 10128, Note_on_c, 0, 72, 75
1, 10128, Note_on_c, 1, 58, 0
1, 10128, Note_on_c, 1, 57, 75
1, 10135, Note_on_c, 0, 72, 0
1, 10135, Note_on_c, 0, 74, 75
1, 10142, Note_on_c, 0, 74, 0
1, 10142, Note_on_c, 0, 72, 75
1, 10149, Note_on_c, 0, 72, 0
1, 10149, Note_on_c, 0, 74, 75
1, 10156, Note_on_c, 0, 74, 0
1, 10156, Note_on_c, 0, 72, 75
1, 10163, Note_on_c, 0, 72, 0
1, 10163, Note_on_c, 0, 70, 75
1, 10170, Note_on_c, 0, 70, 0
1, 10170, Note_on_c, 0, 72, 75
1, 10173, Note_on_c, 1, 57, 0
1, 10173, Note_on_c, 1, 53, 0
1, 10176, Note_on_c, 0, 72, 0
1, 10176, Note_on_c, 0, 70, 75
1, 10176, Note_on_c, 1, 58, 75
1, 10199, Note_on_c, 0, 70, 0
1, 10200, Note_on_c, 0, 77, 75
1, 10221, Note_on_c, 1, 58, 0
1, 10223, Note_on_c, 0, 77, 0
1, 10224, Note_on_c, 1, 46, 75
1, 10244, Note_on_c, 1, 46, 0
1, 10248, Note_on_c, 0, 77, 75
1, 10271, Note_on_c, 0, 77, 0
1, 10272, Note_on_c, 1, 50, 78
1, 10292, Note_on_c, 1, 50, 0
1, 10296, Note_on_c, 0, 77, 75
1, 10319, Note_on_c, 0, 77, 0
1, 10320, Note_on_c, 1, 53, 81
1, 10340, Note_on_c, 1, 53, 0
1, 10344, Note_on_c, 0, 77, 75
1, 10367, Note_on_c, 0, 77, 0
1, 10368, Note_on_c, 1, 62, 84
1, 10391, Note_on_c, 1, 62, 0
1, 10392, Note_on_c, 0, 77, 75
1, 10392, Note_on_c, 1, 58, 85
1, 10415, Note_on_c, 0, 77, 0
1, 10415, Note_on_c, 1, 58, 0
1, 10416, Note_on_c, 1, 60, 87
1, 10439, Note_on_c, 1, 60, 0
1, 10440, Note_on_c, 0, 77, 77
1, 10440, Note_on_c, 1, 57, 88
1, 10463, Note_on_c, 0, 77, 0
1, 10463, Note_on_c, 1, 57, 0
1, 10464, Note_on_c, 1, 63, 90
1, 10487, Note_on_c, 1, 63, 0
1, 10488, Note_on_c, 0, 77, 78
1, 10488, Note_on_c, 1, 60, 91
1, 10511, Note_on_c, 0, 77, 0
1, 10511, Note_on_c, 1, 60, 0
1, 10512, Note_on_c, 1, 62, 93
1, 10535, Note_on_c, 1, 62, 0
1, 10536, Note_on_c, 0, 77, 80
1, 10536, Note_on_c, 1, 58, 95
1, 10559, Note_on_c, 0, 77, 0
1, 10559, Note_on_c, 1, 58, 0
1, 10560, Note_on_c, 1, 67, 96
1, 10560, Note_on_c, 1, 63, 96
1, 10584, Note_on_c, 0, 77, 81
1, 10607, Note_on_c, 0, 77, 0
1, 10608, Note_on_c, 1, 67, 0
1, 10608, Note_on_c, 1, 69, 99
1, 10632, Note_on_c, 0, 77, 83
1, 10653, Note_on_c, 1, 69, 0
1, 10653, Note_on_c, 1, 63, 0
1, 10655, Note_on_c, 0, 77, 0
1, 10656, Note_on_c, 1, 70, 102
1, 10656, Note_on_c, 1, 62, 102
1, 10680, Note_on_c, 0, 77, 84
1, 10701, Note_on_c, 1, 70, 0
1, 10701, Note_on_c, 1, 62, 0
1, 10703, Note_on_c, 0, 77, 0
1, 10704, Note_on_c, 0, 89, 84
1, 10704, Note_on_c, 1, 58, 84
1, 10704, Note_on_c, 1, 50, 84
1, 10716, Note_on_c, 0, 89, 0
1, 10716, Note_on_c, 0, 86, 81
1, 10728, Note_on_c, 0, 86, 0
1, 10728, Note_on_c, 0, 82, 79
1, 10740, Note_on_c, 0, 82, 0
1, 10740, Note_on_c, 0, 77, 77
1, 10749, Note_on_c, 1, 58, 0
1, 10749, Note_on_c, 1, 50, 0
1, 10752, Note_on_c, 0, 77, 0
1, 10752, Note_on_c, 0, 79, 75
1, 10752, Note_on_c, 1, 58, 81
1, 10752, Note_on_c, 1, 51, 81
1, 10775, Note_on_c, 0, 79, 0
1, 10776, Note_on_c, 0, 81, 75
1, 10788, Note_on_c, 0, 81, 0
1, 10788, Note_on_c, 0, 82, 75
1, 10800, Note_on_c, 0, 82, 0
1, 10800, Note_on_c, 0, 81, 75
1, 10812, Note_on_c, 0, 81, 0
1, 10812, Note_on_c, 0, 79, 75
1, 10824, Note_on_c, 0, 79, 0
1, 10824, Note_on_c, 0, 77, 75
1, 10836, Note_on_c, 0, 77, 0
1, 10836, Note_on_c, 0, 75, 75
1, 10841, Note_on_c, 1, 58, 0
1, 10841, Note_on_c, 1, 51, 0
1, 10848, Note_on_c, 0, 75, 0
1, 10848, Note_on_c, 0, 74, 75
1, 10848, Note_on_c, 1, 58, 77
1, 10848, Note_on_c, 1, 53, 77
1, 10893, Note_on_c, 0, 74, 0
1, 10896, Note_on_c, 0, 72, 75
1, 10896, Note_on_c, 1, 58, 0
1, 10896, Note_on_c, 1, 57, 75
1, 10903, Note_on_c, 0, 72, 0
1, 10903, Note_on_c, 0, 74, 75
1, 10910, Note_on_c, 0, 74, 0
1, 10910, Note_on_c, 0, 72, 75
1, 10917, Note_on_c, 0, 72, 0
1, 10917, Note_on_c, 0, 74, 75
1, 10924, Note_on_c, 0, 74, 0
1, 10924, Note_on_c, 0, 72, 75
1, 10931, Note_on_c, 0, 72, 0
1, 10931, Note_on_c, 0, 70, 75
1, 10938, Note_on_c, 0, 70, 0
1, 10938, Note_on_c, 0, 72, 75
1, 10941, Note_on_c, 1, 57, 0
1, 10941, Note_on_c, 1, 53, 0
1, 10944, Note_on_c, 0, 72, 0
1, 10944, Note_on_c, 0, 70, 75
1, 10944, Note_on_c, 1, 58, 75
1, 10967, Note_on_c, 1, 58, 0
1, 10968, Note_on_c, 1, 46, 75
1, 10991, Note_on_c, 1, 46, 0
1, 10992, Note_on_c, 1, 50, 75
1, 11015, Note_on_c, 1, 50, 0
1, 11016, Note_on_c, 1, 53, 75
1, 11033, Note_on_c, 0, 70, 0
1, 11039, Note_on_c, 1, 53, 0
1, 11040, Note_on_c, 1, 58, 75
1, 11085, Note_on_c, 1, 58, 0
1, 11088, Note_on_c, 0, 75, 75
1, 11088, Note_on_c, 0, 67, 75
1, 11136, Note_on_c, 1, 34, 75
1, 11175, Note_on_c, 1, 34, 0
1, 11181, Note_on_c, 0, 75, 0
1, 11181, Note_on_c, 0, 67, 0
1, 11184, Note_on_c, 0, 74, 75
1, 11184, Note_on_c, 0, 65, 75
1, 11229, Note_on_c, 0, 74, 0
1, 11229, Note_on_c, 0, 65, 0
1, 11232, Note_on_c, 1, 46, 75
1, 11271, Note_on_c, 1, 46, 0
1, 11280, Note_on_c, 0, 72, 75
1, 11280, Note_on_c, 0, 63, 75
1, 11328, Note_on_c, 1, 34, 75
1, 11367, Note_on_c, 1, 34, 0
1, 11369, Note_on_c, 0, 72, 0
1, 11369, Note_on_c, 0, 63, 0
1, 11376, Note_on_c, 0, 70, 75
1, 11376, Note_on_c, 0, 62, 75
1, 11421, Note_on_c, 0, 70, 0
1, 11421, Note_on_c, 0, 62, 0
1, 11424, Note_on_c, 1, 58, 69
1, 11424, Note_on_c, 1, 55, 69
1, 11472, Note_on_c, 0, 63, 73
1, 11513, Note_on_c, 1, 58, 0
1, 11513, Note_on_c, 1, 55, 0
1, 11520, Note_on_c, 1, 57, 67
1, 11520, Note_on_c, 1, 53, 67
1, 11565, Note_on_c, 0, 63, 0
1, 11568, Note_on_c, 0, 62, 69
1, 11609, Note_on_c, 1, 57, 0
1, 11609, Note_on_c, 1, 53, 0
1, 11616, Note_on_c, 1, 55, 65
1, 11616, Note_on_c, 1, 51, 65
1, 11657, Note_on_c, 0, 62, 0
1, 11664, Note_on_c, 0, 61, 66
1, 11705, Note_on_c, 1, 55, 0
1, 11705, Note_on_c, 1, 51, 0
1, 11709, Note_on_c, 0, 61, 0
1, 11712, Note_on_c, 0, 62, 64
1, 11712, Note_on_c, 1, 54, 63
1, 11712, Note_on_c, 1, 50, 63
1, 11801, Note_on_c, 0, 62, 0
1, 11801, Note_on_c, 1, 54, 0
1, 11801, Note_on_c, 1, 50, 0
1, 11856, Note_on_c, 0, 74, 75
1, 11871, Note_on_c, 0, 74, 0
1, 11872, Note_on_c, 0, 75, 75
1, 11887, Note_on_c, 0, 75, 0
1, 11888, Note_on_c, 0, 74, 75
1, 11903, Note_on_c, 0, 74, 0
1, 11904, Note_on_c, 0, 79, 69
1, 11904, Note_on_c, 1, 58, 75
1, 11904, Note_on_c, 1, 55, 75
1, 11924, Note_on_c, 0, 79, 0
1, 11924, Note_on_c, 1, 58, 0
1, 11924, Note_on_c, 1, 55, 0
1, 11952, Note_on_c, 0, 77, 69
1, 11972, Note_on_c, 0, 77, 0
1, 12000, Note_on_c, 0, 75, 69
1, 12000, Note_on_c, 1, 70, 75
1, 12000, Note_on_c, 1, 67, 75
1, 12020, Note_on_c, 0, 75, 0
1, 12020, Note_on_c, 1, 70, 0
1, 12020, Note_on_c, 1, 67, 0
1, 12048, Note_on_c, 0, 74, 69
1, 12068, Note_on_c, 0, 74, 0
1, 12096, Note_on_c, 0, 73, 69
1, 12144, Note_on_c, 1, 69, 75
1, 12144, Note_on_c, 1, 67, 64
1, 12189, Note_on_c, 1, 67, 0
1, 12192, Note_on_c, 0, 73, 0
1, 12192, Note_on_c, 0, 74, 69
1, 12192, Note_on_c, 1, 66, 64
1, 12212, Note_on_c, 0, 74, 0
1, 12212, Note_on_c, 1, 66, 0
1, 12240, Note_on_c, 0, 74, 69
1, 12240, Note_on_c, 1, 69, 0
1, 12240, Note_on_c, 1, 66, 75
1, 12240, Note_on_c, 1, 62, 64
1, 12252, Note_on_c, 0, 74, 0
1, 12252, Note_on_c, 0, 72, 69
1, 12264, Note_on_c, 0, 72, 0
1, 12264, Note_on_c, 0, 70, 69
1, 12276, Note_on_c, 0, 70, 0
1, 12276, Note_on_c, 0, 72, 69
1, 12285, Note_on_c, 1, 66, 0
1, 12285, Note_on_c, 1, 62, 0
1, 12288, Note_on_c, 0, 72, 0
1, 12288, Note_on_c, 0, 70, 69
1, 12288, Note_on_c, 1, 67, 75
1, 12327, Note_on_c, 1, 67, 0
1, 12336, Note_on_c, 0, 70, 0
1, 12336, Note_on_c, 0, 74, 69
1, 12381, Note_on_c, 0, 74, 0
1, 12384, Note_on_c, 1, 60, 75
1, 12423, Note_on_c, 1, 60, 0
1, 12432, Note_on_c, 0, 75, 69
1, 12452, Note_on_c, 0, 75, 0
1, 12480, Note_on_c, 0, 67, 69
1, 12528, Note_on_c, 1, 62, 75
1, 12573, Note_on_c, 1, 62, 0
1, 12576, Note_on_c, 0, 67, 0
1, 12576, Note_on_c, 0, 66, 69
1, 12576, Note_on_c, 1, 50, 75
1, 12621, Note_on_c, 0, 66, 0
1, 12621, Note_on_c, 1, 50, 0
1, 12624, Note_on_c, 0, 74, 69
1, 12639, Note_on_c, 0, 74, 0
1, 12640, Note_on_c, 0, 75, 69
1, 12655, Note_on_c, 0, 75, 0
1, 12656, Note_on_c, 0, 74, 69
1, 12671, Note_on_c, 0, 74, 0
1, 12672, Note_on_c, 0, 79, 69
1, 12692, Note_on_c, 0, 79, 0
1, 12720, Note_on_c, 0, 77, 69
1, 12740, Note_on_c, 0, 77, 0
1, 12768, Note_on_c, 0, 75, 69
1, 12768, Note_on_c, 0, 82, 85
1, 12768, Note_on_c, 1, 67, 96
1, 12788, Note_on_c, 0, 75, 0
1, 12816, Note_on_c, 0, 74, 69
1, 12836, Note_on_c, 0, 74, 0
1, 12864, Note_on_c, 0, 73, 69
1, 12909, Note_on_c, 0, 82, 0
1, 12912, Note_on_c, 0, 81, 64
1, 12953, Note_on_c, 1, 67, 0
1, 12960, Note_on_c, 0, 73, 0
1, 12960, Note_on_c, 0, 74, 69
1, 12960, Note_on_c, 1, 66, 75
1, 12980, Note_on_c, 0, 74, 0
1, 13008, Note_on_c, 0, 75, 69
1, 13023, Note_on_c, 0, 75, 0
1, 13024, Note_on_c, 0, 74, 69
1, 13039, Note_on_c, 0, 74, 0
1, 13040, Note_on_c, 0, 72, 69
1, 13045, Note_on_c, 0, 81, 0
1, 13049, Note_on_c, 1, 66, 0
1, 13055, Note_on_c, 0, 72, 0
1, 13056, Note_on_c, 0, 74, 69
1, 13056, Note_on_c, 0, 70, 69
1, 13056, Note_on_c, 1, 67, 75
1, 13101, Note_on_c, 0, 74, 0
1, 13101, Note_on_c, 0, 70, 0
1, 13101, Note_on_c, 1, 67, 0
1, 13104, Note_on_c, 0, 79, 69
1, 13104, Note_on_c, 0, 70, 69
1, 13104, Note_on_c, 1, 63, 75
1, 13149, Note_on_c, 0, 79, 0
1, 13149, Note_on_c, 0, 70, 0
1, 13149, Note_on_c, 1, 63, 0
1, 13152, Note_on_c, 0, 81, 69
1, 13152, Note_on_c, 0, 72, 69
1, 13152, Note_on_c, 1, 60, 75
1, 13197, Note_on_c, 0, 81, 0
1, 13197, Note_on_c, 0, 72, 0
1, 13197, Note_on_c, 1, 60, 0
1, 13200, Note_on_c, 0, 78, 69
1, 13200, Note_on_c, 0, 69, 69
1, 13200, Note_on_c, 1, 62, 75
1, 13245, Note_on_c, 0, 78, 0
1, 13245, Note_on_c, 0, 69, 0
1, 13245, Note_on_c, 1, 62, 0
1, 13248, Note_on_c, 0, 79, 69
1, 13248, Note_on_c, 0, 67, 69
1, 13248, Note_on_c, 1, 55, 75
1, 13342, Note_on_c, 0, 79, 0
1, 13342, Note_on_c, 0, 67, 0
1, 13342, Note_on_c, 1, 55, 0
1, 13392, Note_on_c, 0, 62, 69
1, 13407, Note_on_c, 0, 62, 0
1, 13408, Note_on_c, 0, 63, 69
1, 13423, Note_on_c, 0, 63, 0
1, 13424, Note_on_c, 0, 62, 69
1, 13439, Note_on_c, 0, 62, 0
1, 13440, Note_on_c, 0, 67, 69
1, 13488, Note_on_c, 0, 67, 0
1, 13488, Note_on_c, 0, 66, 69
1, 13508, Note_on_c, 0, 66, 0
1, 13536, Note_on_c, 0, 69, 69
1, 13584, Note_on_c, 0, 69, 0
1, 13584, Note_on_c, 0, 67, 69
1, 13604, Note_on_c, 0, 67, 0
1, 13632, Note_on_c, 0, 70, 69
1, 13680, Note_on_c, 1, 67, 75
1, 13680, Note_on_c, 1, 61, 75
1, 13699, Note_on_c, 0, 70, 0
1, 13704, Note_on_c, 0, 72, 69
1, 13716, Note_on_c, 0, 72, 0
1, 13716, Note_on_c, 0, 70, 69
1, 13728, Note_on_c, 0, 70, 0
1, 13728, Note_on_c, 0, 69, 69
1, 13728, Note_on_c, 1, 67, 0
1, 13728, Note_on_c, 1, 61, 0
1, 13728, Note_on_c, 1, 66, 75
1, 13728, Note_on_c, 1, 62, 75
1, 13748, Note_on_c, 0, 69, 0
1, 13775, Note_on_c, 1, 66, 0
1, 13775, Note_on_c, 1, 62, 0
1, 13776, Note_on_c, 0, 62, 69
1, 13791, Note_on_c, 0, 62, 0
1, 13792, Note_on_c, 0, 63, 69
1, 13807, Note_on_c, 0, 63, 0
1, 13808, Note_on_c, 0, 62, 69
1, 13823, Note_on_c, 0, 62, 0
1, 13824, Note_on_c, 0, 69, 69
1, 13872, Note_on_c, 0, 69, 0
1, 13872, Note_on_c, 0, 67, 69
1, 13892, Note_on_c, 0, 67, 0
1, 13920, Note_on_c, 0, 70, 69
1, 13968, Note_on_c, 0, 70, 0
1, 13968, Note_on_c, 0, 69, 69
1, 13988, Note_on_c, 0, 69, 0
1, 14016, Note_on_c, 0, 71, 69
1, 14022, Note_on_c, 0, 71, 0
1, 14022, Note_on_c, 0, 72, 69
1, 14028, Note_on_c, 0, 72, 0
1, 14028, Note_on_c, 0, 74, 69
1, 14034, Note_on_c, 0, 74, 0
1, 14034, Note_on_c, 0, 72, 69
1, 14064, Note_on_c, 1, 63, 61
1, 14064, Note_on_c, 1, 57, 61
1, 14064, Note_on_c, 1, 53, 61
1, 14084, Note_on_c, 1, 63, 0
1, 14084, Note_on_c, 1, 57, 0
1, 14084, Note_on_c, 1, 53, 0
1, 14112, Note_on_c, 1, 63, 61
1, 14112, Note_on_c, 1, 57, 61
1, 14112, Note_on_c, 1, 53, 61
1, 14149, Note_on_c, 0, 72, 0
1, 14159, Note_on_c, 1, 63, 0
1, 14159, Note_on_c, 1, 57, 0
1, 14159, Note_on_c, 1, 53, 0
1, 14160, Note_on_c, 0, 70, 69
1, 14172, Note_on_c, 0, 70, 0
1, 14172, Note_on_c, 0, 69, 69
1, 14184, Note_on_c, 0, 69, 0
1, 14184, Note_on_c, 0, 67, 69
1, 14196, Note_on_c, 0, 67, 0
1, 14196, Note_on_c, 0, 65, 69
1, 14208, Note_on_c, 0, 65, 0
1, 14208, Note_on_c, 0, 77, 69
1, 14256, Note_on_c, 1, 62, 61
1, 14256, Note_on_c, 1, 58, 61
1, 14256, Note_on_c, 1, 53, 61
1, 14276, Note_on_c, 1, 62, 0
1, 14276, Note_on_c, 1, 58, 0
1, 14276, Note_on_c, 1, 53, 0
1, 14304, Note_on_c, 1, 62, 61
1, 14304, Note_on_c, 1, 58, 61
1, 14304, Note_on_c, 1, 53, 61
1, 14327, Note_on_c, 0, 77, 0
1, 14328, Note_on_c, 0, 79, 69
1, 14340, Note_on_c, 0, 79, 0
1, 14340, Note_on_c, 0, 77, 69
1, 14351, Note_on_c, 1, 62, 0
1, 14351, Note_on_c, 1, 58, 0
1, 14351, Note_on_c, 1, 53, 0
1, 14352, Note_on_c, 0, 77, 0
1, 14352, Note_on_c, 0, 75, 69
1, 14364, Note_on_c, 0, 75, 0
1, 14364, Note_on_c, 0, 74, 69
1, 14376, Note_on_c, 0, 74, 0
1, 14376, Note_on_c, 0, 72, 69
1, 14388, Note_on_c, 0, 72, 0
1, 14388, Note_on_c, 0, 70, 69
1, 14400, Note_on_c, 0, 70, 0
1, 14400, Note_on_c, 0, 69, 69
1, 14448, Note_on_c, 1, 63, 61
1, 14448, Note_on_c, 1, 57, 61
1, 14448, Note_on_c, 1, 53, 61
1, 14468, Note_on_c, 1, 63, 0
1, 14468, Note_on_c, 1, 57, 0
1, 14468, Note_on_c, 1, 53, 0
1, 14496, Note_on_c, 1, 63, 61
1, 14496, Note_on_c, 1, 57, 61
1, 14496, Note_on_c, 1, 53, 61
1, 14519, Note_on_c, 0, 69, 0
1, 14520, Note_on_c, 0, 81, 69
1, 14543, Note_on_c, 0, 81, 0
1, 14543, Note_on_c, 1, 63, 0
1, 14543, Note_on_c, 1, 57, 0
1, 14543, Note_on_c, 1, 53, 0
1, 14544, Note_on_c, 0, 82, 69
1, 14556, Note_on_c, 0, 82, 0
1, 14556, Note_on_c, 0, 81, 69
1, 14568, Note_on_c, 0, 81, 0
1, 14568, Note_on_c, 0, 79, 69
1, 14580, Note_on_c, 0, 79, 0
1, 14580, Note_on_c, 0, 77, 69
1, 14592, Note_on_c, 0, 77, 0
1, 14592, Note_on_c, 0, 82, 69
1, 14640, Note_on_c, 1, 62, 61
1, 14640, Note_on_c, 1, 58, 61
1, 14640, Note_on_c, 1, 53, 61
1, 14660, Note_on_c, 1, 62, 0
1, 14660, Note_on_c, 1, 58, 0
1, 14660, Note_on_c, 1, 53, 0
1, 14688, Note_on_c, 1, 62, 61
1, 14688, Note_on_c, 1, 58, 61
1, 14688, Note_on_c, 1, 53, 61
1, 14711, Note_on_c, 0, 82, 0
1, 14712, Note_on_c, 0, 86, 69
1, 14735, Note_on_c, 0, 86, 0
1, 14735, Note_on_c, 1, 62, 0
1, 14735, Note_on_c, 1, 58, 0
1, 14735, Note_on_c, 1, 53, 0
1, 14736, Note_on_c, 0, 87, 69
1, 14748, Note_on_c, 0, 87, 0
1, 14748, Note_on_c, 0, 86, 69
1, 14760, Note_on_c, 0, 86, 0
1, 14760, Note_on_c, 0, 84, 69
1, 14772, Note_on_c, 0, 84, 0
1, 14772, Note_on_c, 0, 82, 69
1, 14784, Note_on_c, 0, 82, 0
1, 14784, Note_on_c, 0, 81, 69
1, 14832, Note_on_c, 1, 63, 61
1, 14832, Note_on_c, 1, 57, 61
1, 14832, Note_on_c, 1, 53, 61
1, 14852, Note_on_c, 1, 63, 0
1, 14852, Note_on_c, 1, 57, 0
1, 14852, Note_on_c, 1, 53, 0
1, 14880, Note_on_c, 1, 63, 61
1, 14880, Note_on_c, 1, 57, 61
1, 14880, Note_on_c, 1, 53, 61
1, 14903, Note_on_c, 0, 81, 0
1, 14904, Note_on_c, 0, 81, 69
1, 14927, Note_on_c, 0, 81, 0
1, 14927, Note_on_c, 1, 63, 0
1, 14927, Note_on_c, 1, 57, 0
1, 14927, Note_on_c, 1, 53, 0
1, 14928, Note_on_c, 0, 82, 69
1, 14940, Note_on_c, 0, 82, 0
1, 14940, Note_on_c, 0, 81, 69
1, 14952, Note_on_c, 0, 81, 0
1, 14952, Note_on_c, 0, 79, 69
1, 14964, Note_on_c, 0, 79, 0
1, 14964, Note_on_c, 0, 77, 69
1, 14976, Note_on_c, 0, 77, 0
1, 14976, Note_on_c, 0, 82, 69
1, 15024, Note_on_c, 1, 61, 61
1, 15024, Note_on_c, 1, 58, 61
1, 15024, Note_on_c, 1, 53, 61
1, 15044, Note_on_c, 1, 61, 0
1, 15044, Note_on_c, 1, 58, 0
1, 15044, Note_on_c, 1, 53, 0
1, 15072, Note_on_c, 1, 61, 61
1, 15072, Note_on_c, 1, 58, 61
1, 15072, Note_on_c, 1, 53, 61
1, 15095, Note_on_c, 0, 82, 0
1, 15096, Note_on_c, 0, 85, 69
1, 15119, Note_on_c, 0, 85, 0
1, 15119, Note_on_c, 1, 61, 0
1, 15119, Note_on_c, 1, 58, 0
1, 15119, Note_on_c, 1, 53, 0
1, 15120, Note_on_c, 0, 84, 69
1, 15143, Note_on_c, 0, 84, 0
1, 15144, Note_on_c, 0, 82, 69
1, 15167, Note_on_c, 0, 82, 0
1, 15168, Note_on_c, 0, 82, 90
1, 15216, Note_on_c, 0, 82, 0
1, 15216, Note_on_c, 0, 81, 69
1, 15216, Note_on_c, 1, 63, 61
1, 15216, Note_on_c, 1, 57, 61
1, 15216, Note_on_c, 1, 53, 61
1, 15236, Note_on_c, 1, 63, 0
1, 15236, Note_on_c, 1, 57, 0
1, 15236, Note_on_c, 1, 53, 0
1, 15261, Note_on_c, 0, 81, 0
1, 15264, Note_on_c, 1, 63, 61
1, 15264, Note_on_c, 1, 57, 61
1, 15264, Note_on_c, 1, 53, 61
1, 15288, Note_on_c, 0, 81, 69
1, 15311, Note_on_c, 0, 81, 0
1, 15311, Note_on_c, 1, 63, 0
1, 15311, Note_on_c, 1, 57, 0
1, 15311, Note_on_c, 1, 53, 0
1, 15312, Note_on_c, 0, 87, 69
1, 15335, Note_on_c, 0, 87, 0
1, 15336, Note_on_c, 0, 81, 69
1, 15359, Note_on_c, 0, 81, 0
1, 15360, Note_on_c, 0, 84, 75
1, 15408, Note_on_c, 0, 84, 0
1, 15408, Note_on_c, 0, 82, 75
1, 15408, Note_on_c, 1, 61, 61
1, 15408, Note_on_c, 1, 53, 64
1, 15428, Note_on_c, 1, 61, 0
1, 15453, Note_on_c, 1, 53, 0
1, 15456, Note_on_c, 1, 61, 61
1, 15456, Note_on_c, 1, 53, 64
1, 15479, Note_on_c, 0, 82, 0
1, 15480, Note_on_c, 0, 84, 75
1, 15501, Note_on_c, 1, 61, 0
1, 15501, Note_on_c, 1, 53, 0
1, 15503, Note_on_c, 0, 84, 0
1, 15504, Note_on_c, 0, 84, 75
1, 15504, Note_on_c, 1, 60, 61
1, 15504, Note_on_c, 1, 53, 64
1, 15527, Note_on_c, 0, 84, 0
1, 15528, Note_on_c, 0, 85, 75
1, 15549, Note_on_c, 1, 60, 0
1, 15549, Note_on_c, 1, 53, 0
1, 15551, Note_on_c, 0, 85, 0
1, 15552, Note_on_c, 0, 85, 75
1, 15552, Note_on_c, 1, 58, 69
1, 15552, Note_on_c, 1, 54, 64
1, 15600, Note_on_c, 0, 85, 0
1, 15600, Note_on_c, 0, 84, 75
1, 15645, Note_on_c, 0, 84, 0
1, 15648, Note_on_c, 0, 82, 75
1, 15685, Note_on_c, 1, 58, 0
1, 15696, Note_on_c, 1, 60, 69
1, 15741, Note_on_c, 1, 60, 0
1, 15744, Note_on_c, 1, 61, 69
1, 15789, Note_on_c, 0, 82, 0
1, 15792, Note_on_c, 0, 80, 75
1, 15837, Note_on_c, 0, 80, 0
1, 15840, Note_on_c, 0, 78, 75
1, 15885, Note_on_c, 0, 78, 0
1, 15888, Note_on_c, 0, 77, 75
1, 15921, Note_on_c, 1, 54, 0
1, 15933, Note_on_c, 0, 77, 0
1, 15936, Note_on_c, 0, 77, 75
1, 15936, Note_on_c, 1, 54, 64
1, 15981, Note_on_c, 1, 61, 0
1, 15984, Note_on_c, 1, 61, 69
1, 16029, Note_on_c, 1, 61, 0
1, 16032, Note_on_c, 0, 77, 0
1, 16032, Note_on_c, 0, 76, 75
1, 16032, Note_on_c, 1, 60, 69
1, 16038, Note_on_c, 0, 76, 0
1, 16038, Note_on_c, 0, 77, 75
1, 16044, Note_on_c, 0, 77, 0
1, 16044, Note_on_c, 0, 76, 75
1, 16077, Note_on_c, 1, 60, 0
1, 16079, Note_on_c, 0, 76, 0
1, 16080, Note_on_c, 0, 85, 75
1, 16080, Note_on_c, 1, 58, 69
1, 16103, Note_on_c, 0, 85, 0
1, 16104, Note_on_c, 0, 76, 75
1, 16113, Note_on_c, 1, 54, 0
1, 16125, Note_on_c, 1, 58, 0
1, 16127, Note_on_c, 0, 76, 0
1, 16128, Note_on_c, 0, 76, 75
1, 16128, Note_on_c, 1, 58, 69
1, 16128, Note_on_c, 1, 53, 64
1, 16224, Note_on_c, 1, 58, 0
1, 16224, Note_on_c, 1, 57, 69
1, 16261, Note_on_c, 0, 76, 0
1, 16272, Note_on_c, 0, 79, 75
1, 16295, Note_on_c, 0, 79, 0
1, 16296, Note_on_c, 0, 77, 75
1, 16305, Note_on_c, 1, 53, 0
1, 16313, Note_on_c, 1, 57, 0
1, 16319, Note_on_c, 0, 77, 0
1, 16320, Note_on_c, 0, 77, 75
1, 16365, Note_on_c, 0, 77, 0
1, 16464, Note_on_c, 0, 77, 84
1, 16476, Note_on_c, 0, 77, 0
1, 16476, Note_on_c, 0, 74, 84
1, 16488, Note_on_c, 0, 74, 0
1, 16488, Note_on_c, 0, 70, 84
1, 16500, Note_on_c, 0, 70, 0
1, 16500, Note_on_c, 0, 65, 84
1, 16506, Note_on_c, 0, 65, 0
1, 16506, Note_on_c, 0, 62, 84
1, 16512, Note_on_c, 0, 62, 0
1, 16512, Note_on_c, 0, 58, 84
1, 16532, Note_on_c, 0, 58, 0
1, 16560, Note_on_c, 0, 82, 84
1, 16560, Note_on_c, 1, 77, 84
1, 16560, Note_on_c, 1, 74, 84
1, 16575, Note_on_c, 0, 82, 0
1, 16576, Note_on_c, 0, 84, 84
1, 16591, Note_on_c, 0, 84, 0
1, 16592, Note_on_c, 0, 82, 84
1, 16607, Note_on_c, 0, 82, 0
1, 16608, Note_on_c, 0, 81, 84
1, 16608, Note_on_c, 1, 77, 0
1, 16608, Note_on_c, 1, 74, 0
1, 16608, Note_on_c, 1, 75, 84
1, 16608, Note_on_c, 1, 72, 84
1, 16628, Note_on_c, 0, 81, 0
1, 16653, Note_on_c, 1, 75, 0
1, 16653, Note_on_c, 1, 72, 0
1, 16656, Note_on_c, 0, 77, 84
1, 16668, Note_on_c, 0, 77, 0
1, 16668, Note_on_c, 0, 74, 84
1, 16680, Note_on_c, 0, 74, 0
1, 16680, Note_on_c, 0, 70, 84
1, 16692, Note_on_c, 0, 70, 0
1, 16692, Note_on_c, 0, 65, 84
1, 16698, Note_on_c, 0, 65, 0
1, 16698, Note_on_c, 0, 62, 84
1, 16704, Note_on_c, 0, 62, 0
1, 16704, Note_on_c, 0, 58, 84
1, 16724, Note_on_c, 0, 58, 0
1, 16752, Note_on_c, 0, 74, 84
1, 16752, Note_on_c, 1, 70, 84
1, 16752, Note_on_c, 1, 64, 84
1, 16759, Note_on_c, 0, 74, 0
1, 16759, Note_on_c, 0, 75, 84
1, 16766, Note_on_c, 0, 75, 0
1, 16766, Note_on_c, 0, 74, 84
1, 16773, Note_on_c, 0, 74, 0
1, 16773, Note_on_c, 0, 75, 84
1, 16780, Note_on_c, 0, 75, 0
1, 16780, Note_on_c, 0, 74, 84
1, 16787, Note_on_c, 0, 74, 0
1, 16787, Note_on_c, 0, 72, 84
1, 16794, Note_on_c, 0, 72, 0
1, 16794, Note_on_c, 0, 74, 84
1, 16800, Note_on_c, 0, 74, 0
1, 16800, Note_on_c, 0, 72, 84
1, 16800, Note_on_c, 1, 70, 0
1, 16800, Note_on_c, 1, 64, 0
1, 16800, Note_on_c, 1, 69, 84
1, 16800, Note_on_c, 1, 65, 84
1, 16820, Note_on_c, 0, 72, 0
1, 16845, Note_on_c, 1, 69, 0
1, 16845, Note_on_c, 1, 65, 0
1, 16848, Note_on_c, 0, 77, 69
1, 16860, Note_on_c, 0, 77, 0
1, 16860, Note_on_c, 0, 74, 69
1, 16872, Note_on_c, 0, 74, 0
1, 16872, Note_on_c, 0, 70, 69
1, 16884, Note_on_c, 0, 70, 0
1, 16884, Note_on_c, 0, 65, 69
1, 16890, Note_on_c, 0, 65, 0
1, 16890, Note_on_c, 0, 62, 69
1, 16896, Note_on_c, 0, 62, 0
1, 16896, Note_on_c, 0, 58, 69
1, 16916, Note_on_c, 0, 58, 0
1, 16944, Note_on_c, 0, 82, 69
1, 16944, Note_on_c, 1, 77, 69
1, 16944, Note_on_c, 1, 74, 69
1, 16959, Note_on_c, 0, 82, 0
1, 16960, Note_on_c, 0, 84, 69
1, 16975, Note_on_c, 0, 84, 0
1, 16976, Note_on_c, 0, 82, 69
1, 16991, Note_on_c, 0, 82, 0
1, 16992, Note_on_c, 0, 81, 69
1, 16992, Note_on_c, 1, 77, 0
1, 16992, Note_on_c, 1, 74, 0
1, 16992, Note_on_c, 1, 75, 69
1, 16992, Note_on_c, 1, 72, 69
1, 17012, Note_on_c, 0, 81, 0
1, 17037, Note_on_c, 1, 75, 0
1, 17037, Note_on_c, 1, 72, 0
1, 17040, Note_on_c, 0, 77, 69
1, 17052, Note_on_c, 0, 77, 0
1, 17052, Note_on_c, 0, 74, 69
1, 17064, Note_on_c, 0, 74, 0
1, 17064, Note_on_c, 0, 70, 69
1, 17076, Note_on_c, 0, 70, 0
1, 17076, Note_on_c, 0, 65, 69
1, 17082, Note_on_c, 0, 65, 0
1, 17082, Note_on_c, 0, 62, 69
1, 17088, Note_on_c, 0, 62, 0
1, 17088, Note_on_c, 0, 58, 69
1, 17108, Note_on_c, 0, 58, 0
1, 17136, Note_on_c, 0, 74, 69
1, 17136, Note_on_c, 1, 70, 69
1, 17136, Note_on_c, 1, 64, 69
1, 17143, Note_on_c, 0, 74, 0
1, 17143, Note_on_c, 0, 75, 69
1, 17150, Note_on_c, 0, 75, 0
1, 17150, Note_on_c, 0, 74, 69
1, 17157, Note_on_c, 0, 74, 0
1, 17157, Note_on_c, 0, 75, 69
1, 17164, Note_on_c, 0, 75, 0
1, 17164, Note_on_c, 0, 74, 69
1, 17171, Note_on_c, 0, 74, 0
1, 17171, Note_on_c, 0, 72, 69
1, 17178, Note_on_c, 0, 72, 0
1, 17178, Note_on_c, 0, 74, 69
1, 17184, Note_on_c, 0, 74, 0
1, 17184, Note_on_c, 0, 72, 69
1, 17184, Note_on_c, 1, 70, 0
1, 17184, Note_on_c, 1, 64, 0
1, 17184, Note_on_c, 1, 69, 69
1, 17184, Note_on_c, 1, 65, 69
1, 17204, Note_on_c, 0, 72, 0
1, 17229, Note_on_c, 1, 69, 0
1, 17229, Note_on_c, 1, 65, 0
1, 17232, Note_on_c, 0, 77, 69
1, 17232, Note_on_c, 1, 58, 69
1, 17232, Note_on_c, 1, 50, 69
1, 17244, Note_on_c, 0, 77, 0
1, 17244, Note_on_c, 0, 74, 69
1, 17256, Note_on_c, 0, 74, 0
1, 17256, Note_on_c, 0, 70, 69
1, 17268, Note_on_c, 0, 70, 0
1, 17268, Note_on_c, 0, 65, 69
1, 17277, Note_on_c, 1, 50, 0
1, 17280, Note_on_c, 0, 65, 0
1, 17280, Note_on_c, 0, 67, 69
1, 17280, Note_on_c, 1, 51, 69
1, 17303, Note_on_c, 0, 67, 0
1, 17304, Note_on_c, 0, 79, 70
1, 17325, Note_on_c, 1, 58, 0
1, 17327, Note_on_c, 0, 79, 0
1, 17328, Note_on_c, 1, 55, 70
1, 17352, Note_on_c, 0, 77, 70
1, 17373, Note_on_c, 1, 55, 0
1, 17375, Note_on_c, 0, 77, 0
1, 17376, Note_on_c, 0, 75, 71
1, 17376, Note_on_c, 1, 60, 71
1, 17399, Note_on_c, 0, 75, 0
1, 17400, Note_on_c, 0, 74, 71
1, 17413, Note_on_c, 1, 51, 0
1, 17423, Note_on_c, 0, 74, 0
1, 17424, Note_on_c, 0, 72, 72
1, 17424, Note_on_c, 1, 51, 71
1, 17447, Note_on_c, 0, 72, 0
1, 17448, Note_on_c, 0, 70, 72
1, 17469, Note_on_c, 1, 51, 0
1, 17471, Note_on_c, 0, 70, 0
1, 17472, Note_on_c, 0, 70, 72
1, 17472, Note_on_c, 1, 53, 72
1, 17517, Note_on_c, 1, 60, 0
1, 17520, Note_on_c, 1, 57, 73
1, 17565, Note_on_c, 1, 57, 0
1, 17568, Note_on_c, 0, 70, 0
1, 17568, Note_on_c, 0, 69, 74
1, 17568, Note_on_c, 1, 62, 74
1, 17605, Note_on_c, 1, 53, 0
1, 17613, Note_on_c, 0, 69, 0
1, 17616, Note_on_c, 0, 81, 75
1, 17616, Note_on_c, 1, 53, 74
1, 17628, Note_on_c, 0, 81, 0
1, 17628, Note_on_c, 0, 77, 75
1, 17640, Note_on_c, 0, 77, 0
1, 17640, Note_on_c, 0, 74, 75
1, 17652, Note_on_c, 0, 74, 0
1, 17652, Note_on_c, 0, 69, 75
1, 17661, Note_on_c, 1, 53, 0
1, 17664, Note_on_c, 0, 69, 0
1, 17664, Note_on_c, 0, 70, 75
1, 17664, Note_on_c, 1, 55, 75
1, 17687, Note_on_c, 0, 70, 0
1, 17688, Note_on_c, 0, 82, 76
1, 17709, Note_on_c, 1, 62, 0
1, 17711, Note_on_c, 0, 82, 0
1, 17712, Note_on_c, 1, 58, 76
1, 17736, Note_on_c, 0, 81, 77
1, 17757, Note_on_c, 1, 58, 0
1, 17759, Note_on_c, 0, 81, 0
1, 17760, Note_on_c, 0, 81, 77
1, 17760, Note_on_c, 1, 63, 76
1, 17766, Note_on_c, 0, 81, 0
1, 17766, Note_on_c, 0, 79, 77
1, 17783, Note_on_c, 0, 79, 0
1, 17784, Note_on_c, 0, 77, 77
1, 17797, Note_on_c, 1, 55, 0
1, 17807, Note_on_c, 0, 77, 0
1, 17808, Note_on_c, 0, 77, 78
1, 17808, Note_on_c, 1, 55, 77
1, 17814, Note_on_c, 0, 77, 0
1, 17814, Note_on_c, 0, 75, 78
1, 17831, Note_on_c, 0, 75, 0
1, 17832, Note_on_c, 0, 74, 78
1, 17853, Note_on_c, 1, 55, 0
1, 17855, Note_on_c, 0, 74, 0
1, 17856, Note_on_c, 0, 74, 79
1, 17856, Note_on_c, 1, 57, 78
1, 17901, Note_on_c, 1, 63, 0
1, 17904, Note_on_c, 1, 60, 79
1, 17949, Note_on_c, 1, 60, 0
1, 17952, Note_on_c, 0, 74, 0
1, 17952, Note_on_c, 0, 72, 80
1, 17952, Note_on_c, 1, 65, 79
1, 17989, Note_on_c, 1, 57, 0
1, 17997, Note_on_c, 0, 72, 0
1, 18000, Note_on_c, 0, 84, 81
1, 18000, Note_on_c, 1, 57, 80
1, 18012, Note_on_c, 0, 84, 0
1, 18012, Note_on_c, 0, 81, 81
1, 18024, Note_on_c, 0, 81, 0
1, 18024, Note_on_c, 0, 77, 81
1, 18036, Note_on_c, 0, 77, 0
1, 18036, Note_on_c, 0, 72, 81
1, 18045, Note_on_c, 1, 57, 0
1, 18048, Note_on_c, 0, 72, 0
1, 18048, Note_on_c, 0, 74, 82
1, 18048, Note_on_c, 1, 58, 81
1, 18071, Note_on_c, 0, 74, 0
1, 18072, Note_on_c, 0, 86, 82
1, 18093, Note_on_c, 1, 65, 0
1, 18095, Note_on_c, 0, 86, 0
1, 18096, Note_on_c, 1, 62, 81
1, 18120, Note_on_c, 0, 84, 83
1, 18141, Note_on_c, 1, 62, 0
1, 18143, Note_on_c, 0, 84, 0
1, 18144, Note_on_c, 0, 82, 83
1, 18144, Note_on_c, 1, 67, 82
1, 18167, Note_on_c, 0, 82, 0
1, 18168, Note_on_c, 0, 81, 84
1, 18191, Note_on_c, 0, 81, 0
1, 18192, Note_on_c, 0, 79, 84
1, 18215, Note_on_c, 0, 79, 0
1, 18216, Note_on_c, 0, 77, 84
1, 18225, Note_on_c, 1, 58, 0
1, 18233, Note_on_c, 1, 67, 0
1, 18239, Note_on_c, 0, 77, 0
1, 18240, Note_on_c, 0, 77, 84
1, 18264, Note_on_c, 1, 58, 84
1, 18287, Note_on_c, 1, 58, 0
1, 18288, Note_on_c, 1, 61, 84
1, 18311, Note_on_c, 1, 61, 0
1, 18312, Note_on_c, 1, 64, 84
1, 18329, Note_on_c, 0, 77, 0
1, 18335, Note_on_c, 1, 64, 0
1, 18336, Note_on_c, 0, 76, 84
1, 18336, Note_on_c, 1, 67, 84
1, 18342, Note_on_c, 0, 76, 0
1, 18342, Note_on_c, 0, 77, 84
1, 18348, Note_on_c, 0, 77, 0
1, 18348, Note_on_c, 0, 76, 84
1, 18359, Note_on_c, 1, 67, 0
1, 18360, Note_on_c, 1, 70, 84
1, 18383, Note_on_c, 1, 70, 0
1, 18384, Note_on_c, 1, 73, 84
1, 18405, Note_on_c, 0, 76, 0
1, 18407, Note_on_c, 1, 73, 0
1, 18408, Note_on_c, 0, 79, 84
1, 18431, Note_on_c, 0, 79, 0
1, 18432, Note_on_c, 0, 79, 84
1, 18456, Note_on_c, 1, 57, 84
1, 18479, Note_on_c, 1, 57, 0
1, 18480, Note_on_c, 1, 60, 84
1, 18503, Note_on_c, 1, 60, 0
1, 18504, Note_on_c, 1, 64, 84
1, 18521, Note_on_c, 0, 79, 0
1, 18527, Note_on_c, 1, 64, 0
1, 18528, Note_on_c, 0, 77, 84
1, 18528, Note_on_c, 1, 65, 84
1, 18534, Note_on_c, 0, 77, 0
1, 18534, Note_on_c, 0, 79, 84
1, 18540, Note_on_c, 0, 79, 0
1, 18540, Note_on_c, 0, 77, 84
1, 18551, Note_on_c, 1, 65, 0
1, 18552, Note_on_c, 1, 69, 84
1, 18575, Note_on_c, 1, 69, 0
1, 18576, Note_on_c, 1, 72, 84
1, 18597, Note_on_c, 0, 77, 0
1, 18599, Note_on_c, 1, 72, 0
1, 18600, Note_on_c, 0, 84, 84
1, 18623, Note_on_c, 0, 84, 0
1, 18624, Note_on_c, 0, 84, 84
1, 18648, Note_on_c, 1, 53, 84
1, 18669, Note_on_c, 0, 84, 0
1, 18671, Note_on_c, 1, 53, 0
1, 18672, Note_on_c, 0, 75, 84
1, 18672, Note_on_c, 1, 57, 84
1, 18695, Note_on_c, 1, 57, 0
1, 18696, Note_on_c, 1, 60, 84
1, 18719, Note_on_c, 1, 60, 0
1, 18720, Note_on_c, 1, 65, 84
1, 18743, Note_on_c, 1, 65, 0
1, 18744, Note_on_c, 1, 69, 84
1, 18761, Note_on_c, 0, 75, 0
1, 18767, Note_on_c, 1, 69, 0
1, 18768, Note_on_c, 0, 77, 84
1, 18768, Note_on_c, 1, 72, 84
1, 18780, Note_on_c, 0, 77, 0
1, 18780, Note_on_c, 0, 75, 84
1, 18791, Note_on_c, 1, 72, 0
1, 18792, Note_on_c, 0, 75, 0
1, 18792, Note_on_c, 0, 74, 84
1, 18792, Note_on_c, 1, 69, 84
1, 18804, Note_on_c, 0, 74, 0
1, 18804, Note_on_c, 0, 75, 84
1, 18815, Note_on_c, 1, 69, 0
1, 18816, Note_on_c, 0, 75, 0
1, 18816, Note_on_c, 0, 74, 84
1, 18816, Note_on_c, 1, 70, 84
1, 18861, Note_on_c, 0, 74, 0
1, 18861, Note_on_c, 1, 70, 0
1, 18864, Note_on_c, 0, 82, 84
1, 18912, Note_on_c, 1, 58, 84
1, 18912, Note_on_c, 1, 50, 84
1, 18935, Note_on_c, 0, 82, 0
1, 18936, Note_on_c, 0, 80, 84
1, 18959, Note_on_c, 0, 80, 0
1, 18960, Note_on_c, 0, 79, 84
1, 18983, Note_on_c, 0, 79, 0
1, 18984, Note_on_c, 0, 78, 84
1, 19007, Note_on_c, 0, 78, 0
1, 19008, Note_on_c, 0, 78, 84
1, 19008, Note_on_c, 1, 50, 0
1, 19008, Note_on_c, 1, 51, 84
1, 19056, Note_on_c, 0, 78, 0
1, 19056, Note_on_c, 0, 79, 84
1, 19076, Note_on_c, 0, 79, 0
1, 19097, Note_on_c, 1, 58, 0
1, 19097, Note_on_c, 1, 51, 0
1, 19152, Note_on_c, 0, 84, 84
1, 19152, Note_on_c, 1, 58, 84
1, 19152, Note_on_c, 1, 51, 84
1, 19164, Note_on_c, 0, 84, 0
1, 19164, Note_on_c, 0, 82, 84
1, 19176, Note_on_c, 0, 82, 0
1, 19176, Note_on_c, 0, 81, 84
1, 19188, Note_on_c, 0, 81, 0
1, 19188, Note_on_c, 0, 79, 84
1, 19200, Note_on_c, 0, 79, 0
1, 19200, Note_on_c, 0, 79, 84
1, 19200, Note_on_c, 1, 51, 0
1, 19200, Note_on_c, 1, 50, 84
1, 19212, Note_on_c, 0, 79, 0
1, 19212, Note_on_c, 0, 77, 84
1, 19224, Note_on_c, 0, 77, 0
1, 19224, Note_on_c, 0, 76, 84
1, 19236, Note_on_c, 0, 76, 0
1, 19236, Note_on_c, 0, 77, 84
1, 19245, Note_on_c, 1, 50, 0
1, 19248, Note_on_c, 0, 77, 0
1, 19248, Note_on_c, 0, 81, 84
1, 19248, Note_on_c, 1, 51, 84
1, 19260, Note_on_c, 0, 81, 0
1, 19260, Note_on_c, 0, 79, 84
1, 19272, Note_on_c, 0, 79, 0
1, 19272, Note_on_c, 0, 77, 84
1, 19284, Note_on_c, 0, 77, 0
1, 19284, Note_on_c, 0, 75, 84
1, 19293, Note_on_c, 1, 51, 0
1, 19296, Note_on_c, 0, 75, 0
1, 19296, Note_on_c, 0, 74, 84
1, 19296, Note_on_c, 1, 53, 84
1, 19333, Note_on_c, 1, 58, 0
1, 19341, Note_on_c, 0, 74, 0
1, 19344, Note_on_c, 0, 72, 84
1, 19344, Note_on_c, 1, 57, 84
1, 19351, Note_on_c, 0, 72, 0
1, 19351, Note_on_c, 0, 74, 84
1, 19358, Note_on_c, 0, 74, 0
1, 19358, Note_on_c, 0, 72, 84
1, 19365, Note_on_c, 0, 72, 0
1, 19365, Note_on_c, 0, 74, 84
1, 19372, Note_on_c, 0, 74, 0
1, 19372, Note_on_c, 0, 72, 84
1, 19379, Note_on_c, 0, 72, 0
1, 19379, Note_on_c, 0, 70, 84
1, 19385, Note_on_c, 1, 53, 0
1, 19386, Note_on_c, 0, 70, 0
1, 19386, Note_on_c, 0, 72, 84
1, 19389, Note_on_c, 1, 57, 0
1, 19392, Note_on_c, 0, 72, 0
1, 19392, Note_on_c, 0, 70, 84
1, 19392, Note_on_c, 1, 58, 84
1, 19415, Note_on_c, 1, 58, 0
1, 19416, Note_on_c, 1, 46, 84
1, 19439, Note_on_c, 1, 46, 0
1, 19440, Note_on_c, 1, 50, 84
1, 19463, Note_on_c, 1, 50, 0
1, 19464, Note_on_c, 1, 53, 84
1, 19481, Note_on_c, 0, 70, 0
1, 19487, Note_on_c, 1, 53, 0
1, 19488, Note_on_c, 1, 58, 84
1, 19533, Note_on_c, 1, 58, 0
1, 19536, Note_on_c, 0, 65, 75
1, 19581, Note_on_c, 0, 65, 0
1, 19584, Note_on_c, 0, 70, 75
1, 19584, Note_on_c, 0, 62, 64
1, 19632, Note_on_c, 0, 70, 0
1, 19632, Note_on_c, 0, 69, 75
1, 19632, Note_on_c, 0, 62, 0
1, 19632, Note_on_c, 0, 60, 64
1, 19652, Note_on_c, 0, 69, 0
1, 19677, Note_on_c, 0, 60, 0
1, 19680, Note_on_c, 0, 72, 75
1, 19680, Note_on_c, 0, 63, 64
1, 19728, Note_on_c, 0, 72, 0
1, 19728, Note_on_c, 0, 70, 75
1, 19728, Note_on_c, 0, 63, 0
1, 19728, Note_on_c, 0, 62, 64
1, 19748, Note_on_c, 0, 70, 0
1, 19773, Note_on_c, 0, 62, 0
1, 19776, Note_on_c, 0, 74, 75
1, 19776, Note_on_c, 0, 70, 64
1, 19824, Note_on_c, 1, 64, 75
1, 19843, Note_on_c, 0, 74, 0
1, 19848, Note_on_c, 0, 75, 75
1, 19860, Note_on_c, 0, 75, 0
1, 19860, Note_on_c, 0, 74, 75
1, 19865, Note_on_c, 0, 70, 0
1, 19872, Note_on_c, 0, 74, 0
1, 19872, Note_on_c, 0, 72, 75
1, 19872, Note_on_c, 0, 69, 64
1, 19872, Note_on_c, 1, 64, 0
1, 19872, Note_on_c, 1, 65, 75
1, 19917, Note_on_c, 0, 72, 0
1, 19917, Note_on_c, 0, 69, 0
1, 19917, Note_on_c, 1, 65, 0
1, 19920, Note_on_c, 0, 65, 64
1, 19940, Note_on_c, 0, 65, 0
1, 19968, Note_on_c, 0, 72, 75
1, 19968, Note_on_c, 0, 63, 64
1, 20016, Note_on_c, 0, 72, 0
1, 20016, Note_on_c, 0, 70, 75
1, 20016, Note_on_c, 0, 63, 0
1, 20016, Note_on_c, 0, 62, 64
1, 20036, Note_on_c, 0, 62, 0
1, 20061, Note_on_c, 0, 70, 0
1, 20064, Note_on_c, 0, 74, 75
1, 20064, Note_on_c, 0, 70, 64
1, 20112, Note_on_c, 0, 74, 0
1, 20112, Note_on_c, 0, 72, 75
1, 20112, Note_on_c, 0, 70, 0
1, 20112, Note_on_c, 0, 69, 64
1, 20132, Note_on_c, 0, 72, 0
1, 20132, Note_on_c, 0, 69, 0
1, 20160, Note_on_c, 0, 75, 75
1, 20160, Note_on_c, 0, 72, 64
1, 20208, Note_on_c, 1, 53, 75
1, 20227, Note_on_c, 0, 75, 0
1, 20232, Note_on_c, 0, 79, 75
1, 20240, Note_on_c, 0, 79, 0
1, 20240, Note_on_c, 0, 77, 75
1, 20248, Note_on_c, 0, 77, 0
1, 20248, Note_on_c, 0, 75, 75
1, 20249, Note_on_c, 0, 72, 0
1, 20256, Note_on_c, 0, 75, 0
1, 20256, Note_on_c, 0, 74, 75
1, 20256, Note_on_c, 0, 70, 64
1, 20256, Note_on_c, 1, 53, 0
1, 20256, Note_on_c, 1, 58, 75
1, 20301, Note_on_c, 0, 74, 0
1, 20301, Note_on_c, 0, 70, 0
1, 20301, Note_on_c, 1, 58, 0
1, 20304, Note_on_c, 0, 65, 64
1, 20324, Note_on_c, 0, 65, 0
1, 20352, Note_on_c, 0, 74, 75
1, 20375, Note_on_c, 0, 74, 0
1, 20376, Note_on_c, 0, 70, 75
1, 20399, Note_on_c, 0, 70, 0
1, 20400, Note_on_c, 0, 72, 75
1, 20423, Note_on_c, 0, 72, 0
1, 20424, Note_on_c, 0, 69, 75
1, 20447, Note_on_c, 0, 69, 0
1, 20448, Note_on_c, 0, 75, 75
1, 20471, Note_on_c, 0, 75, 0
1, 20472, Note_on_c, 0, 72, 75
1, 20495, Note_on_c, 0, 72, 0
1, 20496, Note_on_c, 0, 74, 75
1, 20519, Note_on_c, 0, 74, 0
1, 20520, Note_on_c, 0, 70, 75
1, 20543, Note_on_c, 0, 70, 0
1, 20544, Note_on_c, 0, 79, 96
1, 20544, Note_on_c, 0, 75, 64
1, 20592, Note_on_c, 1, 57, 75
1, 20592, Note_on_c, 1, 53, 75
1, 20633, Note_on_c, 0, 79, 0
1, 20633, Note_on_c, 0, 75, 0
1, 20637, Note_on_c, 1, 57, 0
1, 20637, Note_on_c, 1, 53, 0
1, 20640, Note_on_c, 0, 77, 75
1, 20640, Note_on_c, 0, 74, 64
1, 20640, Note_on_c, 1, 58, 75
1, 20640, Note_on_c, 1, 55, 75
1, 20685, Note_on_c, 0, 77, 0
1, 20685, Note_on_c, 0, 74, 0
1, 20685, Note_on_c, 1, 58, 0
1, 20685, Note_on_c, 1, 55, 0
1, 20688, Note_on_c, 0, 75, 75
1, 20688, Note_on_c, 0, 72, 64
1, 20688, Note_on_c, 1, 60, 75
1, 20688, Note_on_c, 1, 57, 75
1, 20695, Note_on_c, 0, 75, 0
1, 20695, Note_on_c, 0, 77, 75
1, 20702, Note_on_c, 0, 77, 0
1, 20702, Note_on_c, 0, 75, 75
1, 20709, Note_on_c, 0, 75, 0
1, 20709, Note_on_c, 0, 77, 75
1, 20716, Note_on_c, 0, 77, 0
1, 20716, Note_on_c, 0, 75, 75
1, 20723, Note_on_c, 0, 75, 0
1, 20723, Note_on_c, 0, 74, 75
1, 20730, Note_on_c, 0, 74, 0
1, 20730, Note_on_c, 0, 75, 75
1, 20733, Note_on_c, 0, 72, 0
1, 20733, Note_on_c, 1, 60, 0
1, 20733, Note_on_c, 1, 57, 0
1, 20736, Note_on_c, 0, 75, 0
1, 20736, Note_on_c, 0, 74, 75
1, 20736, Note_on_c, 0, 70, 75
1, 20736, Note_on_c, 1, 58, 75
1, 20781, Note_on_c, 0, 74, 0
1, 20781, Note_on_c, 0, 70, 0
1, 20781, Note_on_c, 1, 58, 0
1, 20784, Note_on_c, 0, 75, 75
1, 20784, Note_on_c, 1, 51, 75
1, 20784, Note_on_c, 1, 63, 84
1, 20807, Note_on_c, 0, 75, 0
1, 20808, Note_on_c, 0, 72, 75
1, 20829, Note_on_c, 1, 51, 0
1, 20829, Note_on_c, 1, 63, 0
1, 20831, Note_on_c, 0, 72, 0
1, 20832, Note_on_c, 0, 70, 75
1, 20832, Note_on_c, 1, 53, 75
1, 20832, Note_on_c, 1, 62, 84
1, 20877, Note_on_c, 0, 70, 0
1, 20877, Note_on_c, 1, 62, 0
1, 20880, Note_on_c, 0, 69, 75
1, 20880, Note_on_c, 1, 60, 84
1, 20887, Note_on_c, 0, 69, 0
1, 20887, Note_on_c, 0, 70, 75
1, 20894, Note_on_c, 0, 70, 0
1, 20894, Note_on_c, 0, 69, 75
1, 20901, Note_on_c, 0, 69, 0
1, 20901, Note_on_c, 0, 70, 75
1, 20908, Note_on_c, 0, 70, 0
1, 20908, Note_on_c, 0, 69, 75
1, 20915, Note_on_c, 0, 69, 0
1, 20915, Note_on_c, 0, 67, 75
1, 20921, Note_on_c, 1, 53, 0
1, 20922, Note_on_c, 0, 67, 0
1, 20922, Note_on_c, 0, 69, 75
1, 20925, Note_on_c, 1, 60, 0
1, 20928, Note_on_c, 0, 69, 0
1, 20928, Note_on_c, 0, 70, 75
1, 20928, Note_on_c, 1, 58, 75
1, 20951, Note_on_c, 0, 70, 0
1, 20952, Note_on_c, 0, 77, 75
1, 20973, Note_on_c, 1, 58, 0
1, 20975, Note_on_c, 0, 77, 0
1, 20976, Note_on_c, 1, 46, 75
1, 21000, Note_on_c, 0, 77, 75
1, 21021, Note_on_c, 1, 46, 0
1, 21023, Note_on_c, 0, 77, 0
1, 21024, Note_on_c, 1, 50, 78
1, 21048, Note_on_c, 0, 77, 75
1, 21069, Note_on_c, 1, 50, 0
1, 21071, Note_on_c, 0, 77, 0
1, 21072, Note_on_c, 1, 53, 81
1, 21096, Note_on_c, 0, 77, 75
1, 21117, Note_on_c, 1, 53, 0
1, 21119, Note_on_c, 0, 77, 0
1, 21120, Note_on_c, 1, 62, 84
1, 21120, Note_on_c, 1, 58, 84
1, 21144, Note_on_c, 0, 77, 75
1, 21167, Note_on_c, 0, 77, 0
1, 21168, Note_on_c, 1, 62, 0
1, 21168, Note_on_c, 1, 58, 0
1, 21168, Note_on_c, 1, 60, 87
1, 21168, Note_on_c, 1, 57, 87
1, 21188, Note_on_c, 1, 60, 0
1, 21188, Note_on_c, 1, 57, 0
1, 21192, Note_on_c, 0, 77, 76
1, 21215, Note_on_c, 0, 77, 0
1, 21216, Note_on_c, 1, 63, 91
1, 21216, Note_on_c, 1, 60, 91
1, 21240, Note_on_c, 0, 77, 78
1, 21263, Note_on_c, 0, 77, 0
1, 21264, Note_on_c, 1, 63, 0
1, 21264, Note_on_c, 1, 60, 0
1, 21264, Note_on_c, 1, 62, 95
1, 21264, Note_on_c, 1, 58, 95
1, 21284, Note_on_c, 1, 62, 0
1, 21284, Note_on_c, 1, 58, 0
1, 21288, Note_on_c, 0, 77, 79
1, 21311, Note_on_c, 0, 77, 0
1, 21312, Note_on_c, 1, 67, 98
1, 21312, Note_on_c, 1, 63, 98
1, 21336, Note_on_c, 0, 77, 81
1, 21359, Note_on_c, 0, 77, 0
1, 21360, Note_on_c, 1, 67, 0
1, 21360, Note_on_c, 1, 69, 102
1, 21384, Note_on_c, 0, 77, 82
1, 21405, Note_on_c, 1, 69, 0
1, 21405, Note_on_c, 1, 63, 0
1, 21407, Note_on_c, 0, 77, 0
1, 21408, Note_on_c, 1, 70, 106
1, 21408, Note_on_c, 1, 62, 106
1, 21432, Note_on_c, 0, 77, 84
1, 21453, Note_on_c, 1, 70, 0
1, 21453, Note_on_c, 1, 62, 0
1, 21455, Note_on_c, 0, 77, 0
1, 21456, Note_on_c, 0, 89, 84
1, 21456, Note_on_c, 1, 58, 84
1, 21456, Note_on_c, 1, 50, 84
1, 21468, Note_on_c, 0, 89, 0
1, 21468, Note_on_c, 0, 86, 81
1, 21480, Note_on_c, 0, 86, 0
1, 21480, Note_on_c, 0, 82, 79
1, 21492, Note_on_c, 0, 82, 0
1, 21492, Note_on_c, 0, 77, 77
1, 21501, Note_on_c, 1, 58, 0
1, 21501, Note_on_c, 1, 50, 0
1, 21504, Note_on_c, 0, 77, 0
1, 21504, Note_on_c, 0, 79, 75
1, 21504, Note_on_c, 1, 58, 81
1, 21504, Note_on_c, 1, 51, 81
1, 21527, Note_on_c, 0, 79, 0
1, 21528, Note_on_c, 0, 81, 75
1, 21540, Note_on_c, 0, 81, 0
1, 21540, Note_on_c, 0, 82, 75
1, 21552, Note_on_c, 0, 82, 0
1, 21552, Note_on_c, 0, 81, 75
1, 21564, Note_on_c, 0, 81, 0
1, 21564, Note_on_c, 0, 79, 75
1, 21576, Note_on_c, 0, 79, 0
1, 21576, Note_on_c, 0, 77, 75
1, 21588, Note_on_c, 0, 77, 0
1, 21588, Note_on_c, 0, 75, 75
1, 21593, Note_on_c, 1, 58, 0
1, 21593, Note_on_c, 1, 51, 0
1, 21600, Note_on_c, 0, 75, 0
1, 21600, Note_on_c, 0, 74, 75
1, 21600, Note_on_c, 1, 58, 77
1, 21600, Note_on_c, 1, 53, 77
1, 21645, Note_on_c, 0, 74, 0
1, 21648, Note_on_c, 0, 72, 75
1, 21648, Note_on_c, 1, 58, 0
1, 21648, Note_on_c, 1, 57, 75
1, 21655, Note_on_c, 0, 72, 0
1, 21655, Note_on_c, 0, 74, 75
1, 21662, Note_on_c, 0, 74, 0
1, 21662, Note_on_c, 0, 72, 75
1, 21669, Note_on_c, 0, 72, 0
1, 21669, Note_on_c, 0, 74, 75
1, 21676, Note_on_c, 0, 74, 0
1, 21676, Note_on_c, 0, 72, 75
1, 21683, Note_on_c, 0, 72, 0
1, 21683, Note_on_c, 0, 70, 75
1, 21690, Note_on_c, 0, 70, 0
1, 21690, Note_on_c, 0, 72, 75
1, 21693, Note_on_c, 1, 57, 0
1, 21693, Note_on_c, 1, 53, 0
1, 21696, Note_on_c, 0, 72, 0
1, 21696, Note_on_c, 0, 70, 75
1, 21696, Note_on_c, 1, 58, 75
1, 21719, Note_on_c, 0, 70, 0
1, 21720, Note_on_c, 0, 77, 75
1, 21741, Note_on_c, 1, 58, 0
1, 21743, Note_on_c, 0, 77, 0
1, 21744, Note_on_c, 1, 46, 75
1, 21764, Note_on_c, 1, 46, 0
1, 21768, Note_on_c, 0, 77, 75
1, 21791, Note_on_c, 0, 77, 0
1, 21792, Note_on_c, 1, 50, 78
1, 21812, Note_on_c, 1, 50, 0
1, 21816, Note_on_c, 0, 77, 75
1, 21839, Note_on_c, 0, 77, 0
1, 21840, Note_on_c, 1, 53, 81
1, 21860, Note_on_c, 1, 53, 0
1, 21864, Note_on_c, 0, 77, 75
1, 21887, Note_on_c, 0, 77, 0
1, 21888, Note_on_c, 1, 62, 84
1, 21911, Note_on_c, 1, 62, 0
1, 21912, Note_on_c, 0, 77, 75
1, 21912, Note_on_c, 1, 58, 85
1, 21935, Note_on_c, 0, 77, 0
1, 21935, Note_on_c, 1, 58, 0
1, 21936, Note_on_c, 1, 60, 87
1, 21959, Note_on_c, 1, 60, 0
1, 21960, Note_on_c, 0, 77, 77
1, 21960, Note_on_c, 1, 57, 88
1, 21983, Note_on_c, 0, 77, 0
1, 21983, Note_on_c, 1, 57, 0
1, 21984, Note_on_c, 1, 63, 90
1, 22007, Note_on_c, 1, 63, 0
1, 22008, Note_on_c, 0, 77, 78
1, 22008, Note_on_c, 1, 60, 91
1, 22031, Note_on_c, 0, 77, 0
1, 22031, Note_on_c, 1, 60, 0
1, 22032, Note_on_c, 1, 62, 93
1, 22055, Note_on_c, 1, 62, 0
1, 22056, Note_on_c, 0, 77, 80
1, 22056, Note_on_c, 1, 58, 95
1, 22079, Note_on_c, 0, 77, 0
1, 22079, Note_on_c, 1, 58, 0
1, 22080, Note_on_c, 1, 67, 96
1, 22080, Note_on_c, 1, 63, 96
1, 22104, Note_on_c, 0, 77, 81
1, 22127, Note_on_c, 0, 77, 0
1, 22128, Note_on_c, 1, 67, 0
1, 22128, Note_on_c, 1, 69, 99
1, 22152, Note_on_c, 0, 77, 83
1, 22173, Note_on_c, 1, 69, 0
1, 22173, Note_on_c, 1, 63, 0
1, 22175, Note_on_c, 0, 77, 0
1, 22176, Note_on_c, 1, 70, 102
1, 22176, Note_on_c, 1, 62, 102
1, 22200, Note_on_c, 0, 77, 84
1, 22221, Note_on_c, 1, 70, 0
1, 22221, Note_on_c, 1, 62, 0
1, 22223, Note_on_c, 0, 77, 0
1, 22224, Note_on_c, 0, 89, 84
1, 22224, Note_on_c, 1, 58, 84
1, 22224, Note_on_c, 1, 50, 84
1, 22236, Note_on_c, 0, 89, 0
1, 22236, Note_on_c, 0, 86, 81
1, 22248, Note_on_c, 0, 86, 0
1, 22248, Note_on_c, 0, 82, 79
1, 22260, Note_on_c, 0, 82, 0
1, 22260, Note_on_c, 0, 77, 77
1, 22269, Note_on_c, 1, 58, 0
1, 22269, Note_on_c, 1, 50, 0
1, 22272, Note_on_c, 0, 77, 0
1, 22272, Note_on_c, 0, 79, 75
1, 22272, Note_on_c, 1, 58, 84
1, 22272, Note_on_c, 1, 51, 84
1, 22295, Note_on_c, 0, 79, 0
1, 22296, Note_on_c, 0, 81, 75
1, 22308, Note_on_c, 0, 81, 0
1, 22308, Note_on_c, 0, 82, 75
1, 22320, Note_on_c, 0, 82, 0
1, 22320, Note_on_c, 0, 81, 75
1, 22332, Note_on_c, 0, 81, 0
1, 22332, Note_on_c, 0, 79, 75
1, 22344, Note_on_c, 0, 79, 0
1, 22344, Note_on_c, 0, 77, 75
1, 22356, Note_on_c, 0, 77, 0
1, 22356, Note_on_c, 0, 75, 75
1, 22361, Note_on_c, 1, 58, 0
1, 22361, Note_on_c, 1, 51, 0
1, 22368, Note_on_c, 0, 75, 0
1, 22368, Note_on_c, 0, 74, 75
1, 22368, Note_on_c, 1, 58, 68
1, 22368, Note_on_c, 1, 53, 68
1, 22413, Note_on_c, 0, 74, 0
1, 22416, Note_on_c, 0, 72, 75
1, 22416, Note_on_c, 1, 58, 0
1, 22416, Note_on_c, 1, 57, 61
1, 22423, Note_on_c, 0, 72, 0
1, 22423, Note_on_c, 0, 74, 75
1, 22430, Note_on_c, 0, 74, 0
1, 22430, Note_on_c, 0, 72, 75
1, 22437, Note_on_c, 0, 72, 0
1, 22437, Note_on_c, 0, 74, 75
1, 22444, Note_on_c, 0, 74, 0
1, 22444, Note_on_c, 0, 72, 75
1, 22451, Note_on_c, 0, 72, 0
1, 22451, Note_on_c, 0, 70, 75
1, 22458, Note_on_c, 0, 70, 0
1, 22458, Note_on_c, 0, 72, 75
1, 22461, Note_on_c, 1, 57, 0
1, 22461, Note_on_c, 1, 53, 0
1, 22464, Note_on_c, 0, 72, 0
1, 22464, Note_on_c, 0, 70, 75
1, 22464, Note_on_c, 1, 58, 61
1, 22487, Note_on_c, 1, 58, 0
1, 22488, Note_on_c, 1, 46, 61
1, 22511, Note_on_c, 1, 46, 0
1, 22512, Note_on_c, 1, 50, 61
1, 22535, Note_on_c, 1, 50, 0
1, 22536, Note_on_c, 1, 53, 61
1, 22553, Note_on_c, 0, 70, 0
1, 22559, Note_on_c, 1, 53, 0
1, 22560, Note_on_c, 1, 58, 61
1, 22605, Note_on_c, 1, 58, 0
1, 22608, Note_on_c, 0, 75, 75
1, 22608, Note_on_c, 0, 67, 75
1, 22656, Note_on_c, 1, 34, 61
1, 22695, Note_on_c, 1, 34, 0
1, 22701, Note_on_c, 0, 75, 0
1, 22701, Note_on_c, 0, 67, 0
1, 22704, Note_on_c, 0, 74, 75
1, 22704, Note_on_c, 0, 65, 75
1, 22749, Note_on_c, 0, 74, 0
1, 22749, Note_on_c, 0, 65, 0
1, 22752, Note_on_c, 1, 46, 61
1, 22791, Note_on_c, 1, 46, 0
1, 22800, Note_on_c, 0, 72, 75
1, 22800, Note_on_c, 0, 63, 75
1, 22848, Note_on_c, 1, 34, 61
1, 22887, Note_on_c, 1, 34, 0
1, 22889, Note_on_c, 0, 72, 0
1, 22889, Note_on_c, 0, 63, 0
1, 22896, Note_on_c, 0, 70, 75
1, 22896, Note_on_c, 0, 62, 75
1, 22941, Note_on_c, 0, 70, 0
1, 22941, Note_on_c, 0, 62, 0
1, 22944, Note_on_c, 1, 58, 69
1, 22944, Note_on_c, 1, 55, 69
1, 22992, Note_on_c, 0, 63, 73
1, 23033, Note_on_c, 1, 58, 0
1, 23033, Note_on_c, 1, 55, 0
1, 23040, Note_on_c, 1, 56, 67
1, 23040, Note_on_c, 1, 53, 67
1, 23085, Note_on_c, 0, 63, 0
1, 23088, Note_on_c, 0, 62, 69
1, 23129, Note_on_c, 1, 56, 0
1, 23129, Note_on_c, 1, 53, 0
1, 23136, Note_on_c, 1, 55, 65
1, 23136, Note_on_c, 1, 51, 65
1, 23177, Note_on_c, 0, 62, 0
1, 23184, Note_on_c, 0, 60, 66
1, 23225, Note_on_c, 1, 55, 0
1, 23225, Note_on_c, 1, 51, 0
1, 23232, Note_on_c, 1, 53, 63
1, 23232, Note_on_c, 1, 50, 63
1, 23273, Note_on_c, 0, 60, 0
1, 23280, Note_on_c, 0, 59, 62
1, 23321, Note_on_c, 1, 53, 0
1, 23321, Note_on_c, 1, 50, 0
1, 23325, Note_on_c, 0, 59, 0
1, 23376, Note_on_c, 0, 79, 75
1, 23391, Note_on_c, 0, 79, 0
1, 23392, Note_on_c, 0, 80, 75
1, 23407, Note_on_c, 0, 80, 0
1, 23408, Note_on_c, 0, 79, 75
1, 23423, Note_on_c, 0, 79, 0
1, 23424, Note_on_c, 0, 84, 75
1, 23444, Note_on_c, 0, 84, 0
1, 23472, Note_on_c, 0, 82, 75
1, 23492, Note_on_c, 0, 82, 0
1, 23520, Note_on_c, 0, 80, 75
1, 23540, Note_on_c, 0, 80, 0
1, 23568, Note_on_c, 0, 79, 75
1, 23588, Note_on_c, 0, 79, 0
1, 23616, Note_on_c, 0, 78, 75
1, 23664, Note_on_c, 1, 74, 75
1, 23664, Note_on_c, 1, 72, 84
1, 23709, Note_on_c, 1, 72, 0
1, 23712, Note_on_c, 0, 78, 0
1, 23712, Note_on_c, 0, 79, 75
1, 23712, Note_on_c, 1, 71, 84
1, 23732, Note_on_c, 0, 79, 0
1, 23732, Note_on_c, 1, 71, 0
1, 23760, Note_on_c, 0, 79, 75
1, 23760, Note_on_c, 1, 74, 0
1, 23760, Note_on_c, 1, 71, 75
1, 23760, Note_on_c, 1, 67, 84
1, 23772, Note_on_c, 0, 79, 0
1, 23772, Note_on_c, 0, 77, 75
1, 23784, Note_on_c, 0, 77, 0
1, 23784, Note_on_c, 0, 75, 75
1, 23796, Note_on_c, 0, 75, 0
1, 23796, Note_on_c, 0, 77, 75
1, 23805, Note_on_c, 1, 71, 0
1, 23805, Note_on_c, 1, 67, 0
1, 23808, Note_on_c, 0, 77, 0
1, 23808, Note_on_c, 0, 75, 75
1, 23808, Note_on_c, 1, 72, 75
1, 23847, Note_on_c, 1, 72, 0
1, 23856, Note_on_c, 0, 75, 0
1, 23856, Note_on_c, 0, 79, 75
1, 23901, Note_on_c, 0, 79, 0
1, 23904, Note_on_c, 1, 65, 75
1, 23943, Note_on_c, 1, 65, 0
1, 23952, Note_on_c, 0, 80, 75
1, 23972, Note_on_c, 0, 80, 0
1, 24000, Note_on_c, 0, 72, 75
1, 24048, Note_on_c, 1, 67, 75
1, 24093, Note_on_c, 1, 67, 0
1, 24096, Note_on_c, 0, 72, 0
1, 24096, Note_on_c, 0, 71, 75
1, 24096, Note_on_c, 1, 55, 75
1, 24116, Note_on_c, 0, 71, 0
1, 24141, Note_on_c, 1, 55, 0
1, 24144, Note_on_c, 0, 67, 75
1, 24159, Note_on_c, 0, 67, 0
1, 24160, Note_on_c, 0, 68, 75
1, 24175, Note_on_c, 0, 68, 0
1, 24176, Note_on_c, 0, 67, 75
1, 24191, Note_on_c, 0, 67, 0
1, 24192, Note_on_c, 0, 72, 75
1, 24240, Note_on_c, 0, 72, 0
1, 24240, Note_on_c, 0, 70, 75
1, 24260, Note_on_c, 0, 70, 0
1, 24288, Note_on_c, 0, 68, 75
1, 24288, Note_on_c, 0, 75, 85
1, 24288, Note_on_c, 1, 48, 96
1, 24336, Note_on_c, 0, 68, 0
1, 24336, Note_on_c, 0, 67, 75
1, 24356, Note_on_c, 0, 67, 0
1, 24384, Note_on_c, 0, 66, 75
1, 24407, Note_on_c, 1, 48, 0
1, 24408, Note_on_c, 1, 51, 75
1, 24431, Note_on_c, 1, 51, 0
1, 24432, Note_on_c, 1, 54, 75
1, 24455, Note_on_c, 1, 54, 0
1, 24456, Note_on_c, 1, 57, 75
1, 24479, Note_on_c, 1, 57, 0
1, 24480, Note_on_c, 1, 60, 75
1, 24503, Note_on_c, 1, 60, 0
1, 24504, Note_on_c, 1, 63, 75
1, 24525, Note_on_c, 0, 75, 0
1, 24527, Note_on_c, 1, 63, 0
1, 24528, Note_on_c, 0, 75, 64
1, 24528, Note_on_c, 1, 62, 75
1, 24551, Note_on_c, 1, 62, 0
1, 24552, Note_on_c, 1, 60, 75
1, 24561, Note_on_c, 0, 66, 0
1, 24575, Note_on_c, 1, 60, 0
1, 24576, Note_on_c, 0, 67, 75
1, 24576, Note_on_c, 1, 58, 75
1, 24599, Note_on_c, 0, 75, 0
1, 24600, Note_on_c, 0, 74, 75
1, 24623, Note_on_c, 0, 74, 0
1, 24624, Note_on_c, 0, 73, 76
1, 24647, Note_on_c, 0, 73, 0
1, 24648, Note_on_c, 0, 74, 77
1, 24665, Note_on_c, 0, 67, 0
1, 24671, Note_on_c, 0, 74, 0
1, 24672, Note_on_c, 0, 79, 78
1, 24695, Note_on_c, 0, 79, 0
1, 24696, Note_on_c, 0, 78, 78
1, 24719, Note_on_c, 0, 78, 0
1, 24720, Note_on_c, 0, 81, 79
1, 24743, Note_on_c, 0, 81, 0
1, 24744, Note_on_c, 0, 79, 80
1, 24753, Note_on_c, 1, 58, 0
1, 24767, Note_on_c, 0, 79, 0
1, 24768, Note_on_c, 0, 82, 81
1, 24857, Note_on_c, 0, 82, 0
1, 24912, Note_on_c, 0, 62, 75
1, 24927, Note_on_c, 0, 62, 0
1, 24928, Note_on_c, 0, 63, 75
1, 24943, Note_on_c, 0, 63, 0
1, 24944, Note_on_c, 0, 62, 75
1, 24959, Note_on_c, 0, 62, 0
1, 24960, Note_on_c, 0, 70, 75
1, 25008, Note_on_c, 0, 70, 0
1, 25008, Note_on_c, 0, 68, 75
1, 25028, Note_on_c, 0, 68, 0
1, 25056, Note_on_c, 0, 67, 75
1, 25056, Note_on_c, 0, 73, 105
1, 25056, Note_on_c, 1, 46, 96
1, 25104, Note_on_c, 0, 67, 0
1, 25104, Note_on_c, 0, 65, 75
1, 25124, Note_on_c, 0, 65, 0
1, 25152, Note_on_c, 0, 64, 75
1, 25175, Note_on_c, 1, 46, 0
1, 25176, Note_on_c, 1, 49, 75
1, 25199, Note_on_c, 1, 49, 0
1, 25200, Note_on_c, 1, 52, 75
1, 25223, Note_on_c, 1, 52, 0
1, 25224, Note_on_c, 1, 55, 75
1, 25247, Note_on_c, 1, 55, 0
1, 25248, Note_on_c, 1, 58, 75
1, 25271, Note_on_c, 1, 58, 0
1, 25272, Note_on_c, 1, 61, 75
1, 25293, Note_on_c, 0, 73, 0
1, 25295, Note_on_c, 1, 61, 0
1, 25296, Note_on_c, 0, 73, 84
1, 25296, Note_on_c, 1, 60, 75
1, 25319, Note_on_c, 1, 60, 0
1, 25320, Note_on_c, 1, 58, 75
1, 25329, Note_on_c, 0, 64, 0
1, 25343, Note_on_c, 1, 58, 0
1, 25344, Note_on_c, 0, 65, 75
1, 25344, Note_on_c, 1, 56, 75
1, 25367, Note_on_c, 0, 73, 0
1, 25368, Note_on_c, 0, 72, 75
1, 25391, Note_on_c, 0, 72, 0
1, 25392, Note_on_c, 0, 71, 75
1, 25415, Note_on_c, 0, 71, 0
1, 25416, Note_on_c, 0, 72, 76
1, 25433, Note_on_c, 0, 65, 0
1, 25439, Note_on_c, 0, 72, 0
1, 25440, Note_on_c, 0, 77, 77
1, 25463, Note_on_c, 0, 77, 0
1, 25464, Note_on_c, 0, 76, 78
1, 25487, Note_on_c, 0, 76, 0
1, 25488, Note_on_c, 0, 79, 79
1, 25511, Note_on_c, 0, 79, 0
1, 25512, Note_on_c, 0, 77, 79
1, 25521, Note_on_c, 1, 56, 0
1, 25535, Note_on_c, 0, 77, 0
1, 25536, Note_on_c, 0, 80, 80
1, 25625, Note_on_c, 0, 80, 0
1, 25680, Note_on_c, 0, 72, 75
1, 25695, Note_on_c, 0, 72, 0
1, 25696, Note_on_c, 0, 73, 75
1, 25711, Note_on_c, 0, 73, 0
1, 25712, Note_on_c, 0, 72, 75
1, 25727, Note_on_c, 0, 72, 0
1, 25728, Note_on_c, 0, 84, 75
1, 25776, Note_on_c, 1, 60, 61
1, 25776, Note_on_c, 1, 56, 61
1, 25776, Note_on_c, 1, 53, 61
1, 25796, Note_on_c, 1, 60, 0
1, 25796, Note_on_c, 1, 56, 0
1, 25796, Note_on_c, 1, 53, 0
1, 25824, Note_on_c, 1, 60, 61
1, 25824, Note_on_c, 1, 56, 61
1, 25824, Note_on_c, 1, 53, 61
1, 25861, Note_on_c, 0, 84, 0
1, 25871, Note_on_c, 1, 60, 0
1, 25871, Note_on_c, 1, 56, 0
1, 25871, Note_on_c, 1, 53, 0
1, 25872, Note_on_c, 0, 82, 75
1, 25884, Note_on_c, 0, 82, 0
1, 25884, Note_on_c, 0, 80, 75
1, 25896, Note_on_c, 0, 80, 0
1, 25896, Note_on_c, 0, 79, 75
1, 25908, Note_on_c, 0, 79, 0
1, 25908, Note_on_c, 0, 77, 75
1, 25920, Note_on_c, 0, 77, 0
1, 25920, Note_on_c, 0, 84, 75
1, 25968, Note_on_c, 1, 60, 61
1, 25968, Note_on_c, 1, 57, 61
1, 25968, Note_on_c, 1, 53, 61
1, 25968, Note_on_c, 1, 51, 61
1, 25988, Note_on_c, 1, 60, 0
1, 25988, Note_on_c, 1, 57, 0
1, 25988, Note_on_c, 1, 53, 0
1, 25988, Note_on_c, 1, 51, 0
1, 26016, Note_on_c, 1, 60, 61
1, 26016, Note_on_c, 1, 57, 61
1, 26016, Note_on_c, 1, 53, 61
1, 26016, Note_on_c, 1, 51, 61
1, 26053, Note_on_c, 0, 84, 0
1, 26063, Note_on_c, 1, 60, 0
1, 26063, Note_on_c, 1, 57, 0
1, 26063, Note_on_c, 1, 53, 0
1, 26063, Note_on_c, 1, 51, 0
1, 26064, Note_on_c, 0, 82, 75
1, 26076, Note_on_c, 0, 82, 0
1, 26076, Note_on_c, 0, 81, 75
1, 26088, Note_on_c, 0, 81, 0
1, 26088, Note_on_c, 0, 79, 75
1, 26100, Note_on_c, 0, 79, 0
1, 26100, Note_on_c, 0, 77, 75
1, 26112, Note_on_c, 0, 77, 0
1, 26112, Note_on_c, 0, 84, 76
1, 26160, Note_on_c, 1, 60, 61
1, 26160, Note_on_c, 1, 57, 61
1, 26160, Note_on_c, 1, 54, 61
1, 26160, Note_on_c, 1, 50, 61
1, 26180, Note_on_c, 1, 60, 0
1, 26180, Note_on_c, 1, 57, 0
1, 26180, Note_on_c, 1, 54, 0
1, 26180, Note_on_c, 1, 50, 0
1, 26208, Note_on_c, 1, 60, 61
1, 26208, Note_on_c, 1, 57, 61
1, 26208, Note_on_c, 1, 54, 61
1, 26208, Note_on_c, 1, 50, 61
1, 26245, Note_on_c, 0, 84, 0
1, 26255, Note_on_c, 1, 60, 0
1, 26255, Note_on_c, 1, 57, 0
1, 26255, Note_on_c, 1, 54, 0
1, 26255, Note_on_c, 1, 50, 0
1, 26256, Note_on_c, 0, 82, 80
1, 26268, Note_on_c, 0, 82, 0
1, 26268, Note_on_c, 0, 81, 80
1, 26280, Note_on_c, 0, 81, 0
1, 26280, Note_on_c, 0, 79, 80
1, 26292, Note_on_c, 0, 79, 0
1, 26292, Note_on_c, 0, 78, 81
1, 26304, Note_on_c, 0, 78, 0
1, 26304, Note_on_c, 0, 87, 81
1, 26352, Note_on_c, 1, 57, 61
1, 26352, Note_on_c, 1, 54, 61
1, 26352, Note_on_c, 1, 50, 61
1, 26352, Note_on_c, 1, 48, 61
1, 26372, Note_on_c, 1, 57, 0
1, 26372, Note_on_c, 1, 54, 0
1, 26372, Note_on_c, 1, 50, 0
1, 26372, Note_on_c, 1, 48, 0
1, 26400, Note_on_c, 1, 57, 61
1, 26400, Note_on_c, 1, 54, 61
1, 26400, Note_on_c, 1, 50, 61
1, 26400, Note_on_c, 1, 48, 61
1, 26423, Note_on_c, 0, 87, 0
1, 26424, Note_on_c, 0, 86, 84
1, 26436, Note_on_c, 0, 86, 0
1, 26436, Note_on_c, 0, 84, 84
1, 26447, Note_on_c, 1, 57, 0
1, 26447, Note_on_c, 1, 54, 0
1, 26447, Note_on_c, 1, 50, 0
1, 26447, Note_on_c, 1, 48, 0
1, 26448, Note_on_c, 0, 84, 0
1, 26448, Note_on_c, 0, 82, 84
1, 26460, Note_on_c, 0, 82, 0
1, 26460, Note_on_c, 0, 81, 84
1, 26472, Note_on_c, 0, 81, 0
1, 26472, Note_on_c, 0, 79, 84
1, 26484, Note_on_c, 0, 79, 0
1, 26484, Note_on_c, 0, 78, 84
1, 26496, Note_on_c, 0, 78, 0
1, 26496, Note_on_c, 0, 79, 84
1, 26544, Note_on_c, 1, 55, 61
1, 26544, Note_on_c, 1, 50, 61
1, 26544, Note_on_c, 1, 46, 61
1, 26564, Note_on_c, 1, 55, 0
1, 26564, Note_on_c, 1, 50, 0
1, 26564, Note_on_c, 1, 46, 0
1, 26592, Note_on_c, 1, 55, 61
1, 26592, Note_on_c, 1, 50, 61
1, 26592, Note_on_c, 1, 46, 61
1, 26629, Note_on_c, 0, 79, 0
1, 26639, Note_on_c, 1, 55, 0
1, 26639, Note_on_c, 1, 50, 0
1, 26639, Note_on_c, 1, 46, 0
1, 26640, Note_on_c, 0, 84, 75
1, 26646, Note_on_c, 0, 84, 0
1, 26646, Note_on_c, 0, 82, 75
1, 26663, Note_on_c, 0, 82, 0
1, 26664, Note_on_c, 0, 80, 75
1, 26687, Note_on_c, 0, 80, 0
1, 26688, Note_on_c, 0, 80, 75
1, 26712, Note_on_c, 1, 58, 69
1, 26735, Note_on_c, 1, 58, 0
1, 26736, Note_on_c, 1, 62, 69
1, 26759, Note_on_c, 1, 62, 0
1, 26760, Note_on_c, 1, 65, 69
1, 26783, Note_on_c, 1, 65, 0
1, 26784, Note_on_c, 1, 58, 69
1, 26821, Note_on_c, 0, 80, 0
1, 26829, Note_on_c, 1, 58, 0
1, 26832, Note_on_c, 0, 82, 75
1, 26838, Note_on_c, 0, 82, 0
1, 26838, Note_on_c, 0, 80, 75
1, 26855, Note_on_c, 0, 80, 0
1, 26856, Note_on_c, 0, 79, 75
1, 26879, Note_on_c, 0, 79, 0
1, 26880, Note_on_c, 0, 79, 75
1, 26904, Note_on_c, 1, 58, 69
1, 26927, Note_on_c, 1, 58, 0
1, 26928, Note_on_c, 1, 63, 69
1, 26951, Note_on_c, 1, 63, 0
1, 26952, Note_on_c, 1, 67, 69
1, 26975, Note_on_c, 1, 67, 0
1, 26976, Note_on_c, 1, 58, 69
1, 27013, Note_on_c, 0, 79, 0
1, 27021, Note_on_c, 1, 58, 0
1, 27024, Note_on_c, 0, 84, 75
1, 27030, Note_on_c, 0, 84, 0
1, 27030, Note_on_c, 0, 82, 75
1, 27047, Note_on_c, 0, 82, 0
1, 27048, Note_on_c, 0, 80, 75
1, 27071, Note_on_c, 0, 80, 0
1, 27072, Note_on_c, 0, 80, 75
1, 27096, Note_on_c, 1, 58, 69
1, 27119, Note_on_c, 1, 58, 0
1, 27120, Note_on_c, 1, 62, 69
1, 27143, Note_on_c, 1, 62, 0
1, 27144, Note_on_c, 1, 65, 69
1, 27167, Note_on_c, 1, 65, 0
1, 27168, Note_on_c, 1, 58, 69
1, 27205, Note_on_c, 0, 80, 0
1, 27213, Note_on_c, 1, 58, 0
1, 27216, Note_on_c, 0, 82, 75
1, 27222, Note_on_c, 0, 82, 0
1, 27222, Note_on_c, 0, 80, 75
1, 27239, Note_on_c, 0, 80, 0
1, 27240, Note_on_c, 0, 79, 75
1, 27263, Note_on_c, 0, 79, 0
1, 27264, Note_on_c, 0, 79, 75
1, 27288, Note_on_c, 1, 59, 69
1, 27311, Note_on_c, 1, 59, 0
1, 27312, Note_on_c, 1, 62, 69
1, 27335, Note_on_c, 1, 62, 0
1, 27336, Note_on_c, 1, 67, 69
1, 27359, Note_on_c, 1, 67, 0
1, 27360, Note_on_c, 1, 59, 69
1, 27397, Note_on_c, 0, 79, 0
1, 27405, Note_on_c, 1, 59, 0
1, 27408, Note_on_c, 0, 82, 75
1, 27414, Note_on_c, 0, 82, 0
1, 27414, Note_on_c, 0, 80, 75
1, 27431, Note_on_c, 0, 80, 0
1, 27432, Note_on_c, 0, 79, 75
1, 27455, Note_on_c, 0, 79, 0
1, 27456, Note_on_c, 0, 79, 75
1, 27480, Note_on_c, 1, 60, 69
1, 27503, Note_on_c, 1, 60, 0
1, 27504, Note_on_c, 1, 63, 69
1, 27527, Note_on_c, 1, 63, 0
1, 27528, Note_on_c, 1, 67, 69
1, 27551, Note_on_c, 1, 67, 0
1, 27552, Note_on_c, 1, 60, 69
1, 27589, Note_on_c, 0, 79, 0
1, 27597, Note_on_c, 1, 60, 0
1, 27600, Note_on_c, 0, 82, 75
1, 27606, Note_on_c, 0, 82, 0
1, 27606, Note_on_c, 0, 80, 75
1, 27623, Note_on_c, 0, 80, 0
1, 27624, Note_on_c, 0, 79, 75
1, 27647, Note_on_c, 0, 79, 0
1, 27648, Note_on_c, 0, 79, 75
1, 27672, Note_on_c, 1, 56, 69
1, 27695, Note_on_c, 1, 56, 0
1, 27696, Note_on_c, 1, 60, 69
1, 27719, Note_on_c, 1, 60, 0
1, 27720, Note_on_c, 1, 63, 69
1, 27743, Note_on_c, 1, 63, 0
1, 27744, Note_on_c, 0, 79, 0
1, 27744, Note_on_c, 0, 78, 75
1, 27744, Note_on_c, 1, 68, 69
1, 27767, Note_on_c, 0, 78, 0
1, 27768, Note_on_c, 0, 72, 75
1, 27789, Note_on_c, 1, 68, 0
1, 27791, Note_on_c, 0, 72, 0
1, 27792, Note_on_c, 0, 84, 75
1, 27815, Note_on_c, 0, 84, 0
1, 27816, Note_on_c, 0, 78, 75
1, 27839, Note_on_c, 0, 78, 0
1, 27840, Note_on_c, 0, 79, 75
1, 27864, Note_on_c, 1, 67, 69
1, 27885, Note_on_c, 0, 79, 0
1, 27887, Note_on_c, 1, 67, 0
1, 27888, Note_on_c, 1, 62, 69
1, 27911, Note_on_c, 1, 62, 0
1, 27912, Note_on_c, 1, 59, 69
1, 27935, Note_on_c, 1, 59, 0
1, 27936, Note_on_c, 1, 55, 69
1, 27981, Note_on_c, 1, 55, 0
1, 27984, Note_on_c, 0, 79, 75
1, 27996, Note_on_c, 0, 79, 0
1, 27996, Note_on_c, 0, 75, 75
1, 28008, Note_on_c, 0, 75, 0
1, 28008, Note_on_c, 0, 72, 75
1, 28020, Note_on_c, 0, 72, 0
1, 28020, Note_on_c, 0, 67, 75
1, 28026, Note_on_c, 0, 67, 0
1, 28026, Note_on_c, 0, 63, 75
1, 28032, Note_on_c, 0, 63, 0
1, 28032, Note_on_c, 1, 60, 75
1, 28052, Note_on_c, 1, 60, 0
1, 28080, Note_on_c, 0, 84, 75
1, 28080, Note_on_c, 1, 79, 75
1, 28080, Note_on_c, 1, 75, 75
1, 28095, Note_on_c, 0, 84, 0
1, 28096, Note_on_c, 0, 86, 75
1, 28111, Note_on_c, 0, 86, 0
1, 28112, Note_on_c, 0, 84, 75
1, 28127, Note_on_c, 0, 84, 0
1, 28128, Note_on_c, 0, 83, 75
1, 28128, Note_on_c, 1, 79, 0
1, 28128, Note_on_c, 1, 75, 0
1, 28128, Note_on_c, 1, 77, 75
1, 28128, Note_on_c, 1, 74, 75
1, 28148, Note_on_c, 0, 83, 0
1, 28173, Note_on_c, 1, 77, 0
1, 28173, Note_on_c, 1, 74, 0
1, 28176, Note_on_c, 0, 79, 75
1, 28188, Note_on_c, 0, 79, 0
1, 28188, Note_on_c, 0, 75, 75
1, 28200, Note_on_c, 0, 75, 0
1, 28200, Note_on_c, 0, 72, 75
1, 28212, Note_on_c, 0, 72, 0
1, 28212, Note_on_c, 0, 67, 75
1, 28218, Note_on_c, 0, 67, 0
1, 28218, Note_on_c, 0, 63, 75
1, 28224, Note_on_c, 0, 63, 0
1, 28224, Note_on_c, 1, 60, 75
1, 28244, Note_on_c, 1, 60, 0
1, 28272, Note_on_c, 0, 75, 75
1, 28272, Note_on_c, 1, 72, 75
1, 28272, Note_on_c, 1, 66, 75
1, 28279, Note_on_c, 0, 75, 0
1, 28279, Note_on_c, 0, 77, 75
1, 28286, Note_on_c, 0, 77, 0
1, 28286, Note_on_c, 0, 75, 75
1, 28293, Note_on_c, 0, 75, 0
1, 28293, Note_on_c, 0, 77, 75
1, 28300, Note_on_c, 0, 77, 0
1, 28300, Note_on_c, 0, 75, 75
1, 28307, Note_on_c, 0, 75, 0
1, 28307, Note_on_c, 0, 74, 75
1, 28314, Note_on_c, 0, 74, 0
1, 28314, Note_on_c, 0, 75, 75
1, 28320, Note_on_c, 0, 75, 0
1, 28320, Note_on_c, 0, 74, 75
1, 28320, Note_on_c, 1, 72, 0
1, 28320, Note_on_c, 1, 66, 0
1, 28320, Note_on_c, 1, 71, 75
1, 28320, Note_on_c, 1, 67, 75
1, 28365, Note_on_c, 0, 74, 0
1, 28365, Note_on_c, 1, 71, 0
1, 28365, Note_on_c, 1, 67, 0
1, 28368, Note_on_c, 0, 79, 69
1, 28380, Note_on_c, 0, 79, 0
1, 28380, Note_on_c, 0, 75, 69
1, 28392, Note_on_c, 0, 75, 0
1, 28392, Note_on_c, 0, 72, 69
1, 28404, Note_on_c, 0, 72, 0
1, 28404, Note_on_c, 0, 67, 69
1, 28410, Note_on_c, 0, 67, 0
1, 28410, Note_on_c, 0, 63, 69
1, 28416, Note_on_c, 0, 63, 0
1, 28416, Note_on_c, 1, 60, 69
1, 28436, Note_on_c, 1, 60, 0
1, 28464, Note_on_c, 0, 84, 69
1, 28464, Note_on_c, 1, 79, 69
1, 28464, Note_on_c, 1, 75, 69
1, 28479, Note_on_c, 0, 84, 0
1, 28480, Note_on_c, 0, 86, 69
1, 28495, Note_on_c, 0, 86, 0
1, 28496, Note_on_c, 0, 84, 69
1, 28511, Note_on_c, 0, 84, 0
1, 28512, Note_on_c, 0, 83, 69
1, 28512, Note_on_c, 1, 79, 0
1, 28512, Note_on_c, 1, 75, 0
1, 28512, Note_on_c, 1, 77, 69
1, 28512, Note_on_c, 1, 74, 69
1, 28532, Note_on_c, 0, 83, 0
1, 28557, Note_on_c, 1, 77, 0
1, 28557, Note_on_c, 1, 74, 0
1, 28560, Note_on_c, 0, 79, 69
1, 28572, Note_on_c, 0, 79, 0
1, 28572, Note_on_c, 0, 75, 69
1, 28584, Note_on_c, 0, 75, 0
1, 28584, Note_on_c, 0, 72, 69
1, 28596, Note_on_c, 0, 72, 0
1, 28596, Note_on_c, 0, 67, 69
1, 28602, Note_on_c, 0, 67, 0
1, 28602, Note_on_c, 0, 63, 69
1, 28608, Note_on_c, 0, 63, 0
1, 28608, Note_on_c, 1, 60, 69
1, 28628, Note_on_c, 1, 60, 0
1, 28656, Note_on_c, 0, 75, 69
1, 28656, Note_on_c, 1, 72, 69
1, 28656, Note_on_c, 1, 66, 69
1, 28663, Note_on_c, 0, 75, 0
1, 28663, Note_on_c, 0, 77, 69
1, 28670, Note_on_c, 0, 77, 0
1, 28670, Note_on_c, 0, 75, 69
1, 28677, Note_on_c, 0, 75, 0
1, 28677, Note_on_c, 0, 77, 69
1, 28684, Note_on_c, 0, 77, 0
1, 28684, Note_on_c, 0, 75, 69
1, 28691, Note_on_c, 0, 75, 0
1, 28691, Note_on_c, 0, 74, 69
1, 28698, Note_on_c, 0, 74, 0
1, 28698, Note_on_c, 0, 75, 69
1, 28704, Note_on_c, 0, 75, 0
1, 28704, Note_on_c, 0, 74, 69
1, 28704, Note_on_c, 1, 72, 0
1, 28704, Note_on_c, 1, 66, 0
1, 28704, Note_on_c, 1, 71, 69
1, 28704, Note_on_c, 1, 67, 69
1, 28749, Note_on_c, 0, 74, 0
1, 28749, Note_on_c, 1, 71, 0
1, 28749, Note_on_c, 1, 67, 0
1, 28752, Note_on_c, 0, 79, 84
1, 28752, Note_on_c, 1, 60, 84
1, 28764, Note_on_c, 0, 79, 0
1, 28764, Note_on_c, 0, 75, 84
1, 28776, Note_on_c, 0, 75, 0
1, 28776, Note_on_c, 0, 72, 84
1, 28788, Note_on_c, 0, 72, 0
1, 28788, Note_on_c, 0, 67, 84
1, 28797, Note_on_c, 1, 60, 0
1, 28800, Note_on_c, 0, 67, 0
1, 28800, Note_on_c, 1, 68, 84
1, 28812, Note_on_c, 0, 72, 85
1, 28824, Note_on_c, 0, 72, 0
1, 28824, Note_on_c, 0, 74, 87
1, 28836, Note_on_c, 0, 74, 0
1, 28836, Note_on_c, 0, 75, 89
1, 28848, Note_on_c, 0, 75, 0
1, 28848, Note_on_c, 0, 77, 91
1, 28860, Note_on_c, 0, 77, 0
1, 28860, Note_on_c, 0, 79, 93
1, 28872, Note_on_c, 0, 79, 0
1, 28872, Note_on_c, 0, 80, 95
1, 28884, Note_on_c, 0, 80, 0
1, 28884, Note_on_c, 0, 82, 96
1, 28889, Note_on_c, 1, 68, 0
1, 28896, Note_on_c, 0, 82, 0
1, 28896, Note_on_c, 0, 84, 98
1, 28916, Note_on_c, 0, 84, 0
1, 28944, Note_on_c, 0, 77, 106
1, 28944, Note_on_c, 1, 58, 84
1, 28956, Note_on_c, 0, 77, 0
1, 28956, Note_on_c, 0, 74, 100
1, 28968, Note_on_c, 0, 74, 0
1, 28968, Note_on_c, 0, 70, 95
1, 28980, Note_on_c, 0, 70, 0
1, 28980, Note_on_c, 0, 65, 89
1, 28989, Note_on_c, 1, 58, 0
1, 28992, Note_on_c, 0, 65, 0
1, 28992, Note_on_c, 1, 67, 84
1, 29004, Note_on_c, 0, 70, 84
1, 29016, Note_on_c, 0, 70, 0
1, 29016, Note_on_c, 0, 72, 86
1, 29028, Note_on_c, 0, 72, 0
1, 29028, Note_on_c, 0, 74, 88
1, 29040, Note_on_c, 0, 74, 0
1, 29040, Note_on_c, 0, 75, 91
1, 29052, Note_on_c, 0, 75, 0
1, 29052, Note_on_c, 0, 77, 93
1, 29064, Note_on_c, 0, 77, 0
1, 29064, Note_on_c, 0, 79, 96
1, 29076, Note_on_c, 0, 79, 0
1, 29076, Note_on_c, 0, 80, 98
1, 29081, Note_on_c, 1, 67, 0
1, 29088, Note_on_c, 0, 80, 0
1, 29088, Note_on_c, 0, 82, 101
1, 29111, Note_on_c, 0, 82, 0
1, 29520, Note_on_c, 0, 58, 75
1, 29535, Note_on_c, 0, 58, 0
1, 29536, Note_on_c, 0, 60, 75
1, 29551, Note_on_c, 0, 60, 0
1, 29552, Note_on_c, 0, 58, 75
1, 29567, Note_on_c, 0, 58, 0
1, 29568, Note_on_c, 0, 63, 75
1, 29588, Note_on_c, 0, 63, 0
1, 29616, Note_on_c, 0, 62, 75
1, 29636, Note_on_c, 0, 62, 0
1, 29664, Note_on_c, 0, 60, 75
1, 29684, Note_on_c, 0, 60, 0
1, 29712, Note_on_c, 0, 58, 75
1, 29732, Note_on_c, 0, 58, 0
1, 29760, Note_on_c, 0, 57, 75
1, 29808, Note_on_c, 1, 53, 75
1, 29808, Note_on_c, 1, 51, 84
1, 29853, Note_on_c, 1, 51, 0
1, 29856, Note_on_c, 0, 57, 0
1, 29856, Note_on_c, 0, 58, 75
1, 29856, Note_on_c, 1, 50, 84
1, 29876, Note_on_c, 0, 58, 0
1, 29897, Note_on_c, 1, 53, 0
1, 29901, Note_on_c, 1, 50, 0
1, 29904, Note_on_c, 0, 58, 75
1, 29919, Note_on_c, 0, 58, 0
1, 29920, Note_on_c, 0, 60, 75
1, 29935, Note_on_c, 0, 60, 0
1, 29936, Note_on_c, 0, 58, 75
1, 29951, Note_on_c, 0, 58, 0
1, 29952, Note_on_c, 0, 65, 75
1, 29972, Note_on_c, 0, 65, 0
1, 30000, Note_on_c, 0, 63, 75
1, 30020, Note_on_c, 0, 63, 0
1, 30048, Note_on_c, 0, 62, 75
1, 30068, Note_on_c, 0, 62, 0
1, 30096, Note_on_c, 0, 60, 75
1, 30116, Note_on_c, 0, 60, 0
1, 30144, Note_on_c, 0, 59, 75
1, 30192, Note_on_c, 1, 55, 75
1, 30192, Note_on_c, 1, 53, 84
1, 30237, Note_on_c, 1, 53, 0
1, 30240, Note_on_c, 0, 59, 0
1, 30240, Note_on_c, 0, 60, 75
1, 30240, Note_on_c, 1, 51, 84
1, 30260, Note_on_c, 0, 60, 0
1, 30281, Note_on_c, 1, 55, 0
1, 30285, Note_on_c, 1, 51, 0
1, 30288, Note_on_c, 0, 60, 75
1, 30303, Note_on_c, 0, 60, 0
1, 30304, Note_on_c, 0, 62, 75
1, 30319, Note_on_c, 0, 62, 0
1, 30320, Note_on_c, 0, 60, 75
1, 30335, Note_on_c, 0, 60, 0
1, 30336, Note_on_c, 0, 67, 75
1, 30356, Note_on_c, 0, 67, 0
1, 30384, Note_on_c, 0, 65, 75
1, 30404, Note_on_c, 0, 65, 0
1, 30432, Note_on_c, 0, 63, 75
1, 30452, Note_on_c, 0, 63, 0
1, 30480, Note_on_c, 0, 62, 75
1, 30480, Note_on_c, 1, 55, 84
1, 30495, Note_on_c, 1, 55, 0
1, 30496, Note_on_c, 1, 56, 84
1, 30500, Note_on_c, 0, 62, 0
1, 30511, Note_on_c, 1, 56, 0
1, 30512, Note_on_c, 1, 55, 84
1, 30527, Note_on_c, 1, 55, 0
1, 30528, Note_on_c, 0, 63, 75
1, 30528, Note_on_c, 1, 60, 75
1, 30528, Note_on_c, 1, 60, 84
1, 30548, Note_on_c, 1, 60, 0
1, 30573, Note_on_c, 0, 63, 0
1, 30576, Note_on_c, 0, 64, 75
1, 30576, Note_on_c, 1, 58, 84
1, 30596, Note_on_c, 1, 58, 0
1, 30621, Note_on_c, 0, 64, 0
1, 30624, Note_on_c, 0, 65, 76
1, 30624, Note_on_c, 1, 56, 84
1, 30644, Note_on_c, 1, 56, 0
1, 30669, Note_on_c, 0, 65, 0
1, 30669, Note_on_c, 1, 60, 0
1, 30672, Note_on_c, 0, 67, 77
1, 30672, Note_on_c, 0, 64, 75
1, 30672, Note_on_c, 1, 60, 75
1, 30672, Note_on_c, 1, 58, 84
1, 30672, Note_on_c, 1, 55, 84
1, 30687, Note_on_c, 0, 67, 0
1, 30688, Note_on_c, 0, 68, 77
1, 30692, Note_on_c, 1, 58, 0
1, 30692, Note_on_c, 1, 55, 0
1, 30703, Note_on_c, 0, 68, 0
1, 30704, Note_on_c, 0, 67, 77
1, 30717, Note_on_c, 0, 64, 0
1, 30717, Note_on_c, 1, 60, 0
1, 30719, Note_on_c, 0, 67, 0
1, 30720, Note_on_c, 0, 72, 78
1, 30720, Note_on_c, 0, 65, 75
1, 30720, Note_on_c, 1, 60, 75
1, 30720, Note_on_c, 1, 56, 75
1, 30720, Note_on_c, 1, 53, 75
1, 30740, Note_on_c, 0, 72, 0
1, 30765, Note_on_c, 0, 65, 0
1, 30765, Note_on_c, 1, 60, 0
1, 30765, Note_on_c, 1, 56, 0
1, 30765, Note_on_c, 1, 53, 0
1, 30768, Note_on_c, 0, 72, 78
1, 30768, Note_on_c, 0, 69, 75
1, 30768, Note_on_c, 1, 65, 75
1, 30768, Note_on_c, 1, 63, 75
1, 30783, Note_on_c, 0, 72, 0
1, 30784, Note_on_c, 0, 74, 79
1, 30799, Note_on_c, 0, 74, 0
1, 30800, Note_on_c, 0, 72, 79
1, 30813, Note_on_c, 0, 69, 0
1, 30813, Note_on_c, 1, 65, 0
1, 30813, Note_on_c, 1, 63, 0
1, 30815, Note_on_c, 0, 72, 0
1, 30816, Note_on_c, 0, 77, 79
1, 30816, Note_on_c, 0, 70, 75
1, 30816, Note_on_c, 1, 65, 75
1, 30816, Note_on_c, 1, 62, 75
1, 30836, Note_on_c, 0, 77, 0
1, 30861, Note_on_c, 0, 70, 0
1, 30861, Note_on_c, 1, 65, 0
1, 30861, Note_on_c, 1, 62, 0
1, 30864, Note_on_c, 0, 77, 80
1, 30864, Note_on_c, 0, 72, 75
1, 30864, Note_on_c, 1, 69, 75
1, 30864, Note_on_c, 1, 65, 75
1, 30864, Note_on_c, 1, 63, 75
1, 30864, Note_on_c, 1, 60, 75
1, 30879, Note_on_c, 0, 77, 0
1, 30880, Note_on_c, 0, 79, 80
1, 30895, Note_on_c, 0, 79, 0
1, 30896, Note_on_c, 0, 77, 80
1, 30909, Note_on_c, 0, 72, 0
1, 30909, Note_on_c, 1, 69, 0
1, 30909, Note_on_c, 1, 65, 0
1, 30909, Note_on_c, 1, 63, 0
1, 30909, Note_on_c, 1, 60, 0
1, 30911, Note_on_c, 0, 77, 0
1, 30912, Note_on_c, 0, 82, 80
1, 30912, Note_on_c, 0, 74, 75
1, 30912, Note_on_c, 1, 70, 75
1, 30912, Note_on_c, 1, 65, 75
1, 30912, Note_on_c, 1, 62, 75
1, 30912, Note_on_c, 1, 58, 75
1, 30932, Note_on_c, 0, 82, 0
1, 30957, Note_on_c, 0, 74, 0
1, 30957, Note_on_c, 1, 70, 0
1, 30957, Note_on_c, 1, 65, 0
1, 30957, Note_on_c, 1, 62, 0
1, 30957, Note_on_c, 1, 58, 0
1, 30960, Note_on_c, 0, 82, 81
1, 30960, Note_on_c, 0, 77, 75
1, 30960, Note_on_c, 1, 65, 75
1, 30960, Note_on_c, 1, 62, 75
1, 30960, Note_on_c, 1, 58, 75
1, 30960, Note_on_c, 1, 56, 75
1, 30975, Note_on_c, 0, 82, 0
1, 30976, Note_on_c, 0, 84, 81
1, 30991, Note_on_c, 0, 84, 0
1, 30992, Note_on_c, 0, 82, 82
1, 31005, Note_on_c, 0, 77, 0
1, 31005, Note_on_c, 1, 65, 0
1, 31005, Note_on_c, 1, 62, 0
1, 31005, Note_on_c, 1, 58, 0
1, 31005, Note_on_c, 1, 56, 0
1, 31007, Note_on_c, 0, 82, 0
1, 31008, Note_on_c, 0, 87, 82
1, 31008, Note_on_c, 0, 75, 75
1, 31008, Note_on_c, 1, 67, 75
1, 31008, Note_on_c, 1, 63, 75
1, 31008, Note_on_c, 1, 58, 75
1, 31008, Note_on_c, 1, 55, 75
1, 31028, Note_on_c, 0, 87, 0
1, 31053, Note_on_c, 0, 75, 0
1, 31053, Note_on_c, 1, 67, 0
1, 31053, Note_on_c, 1, 63, 0
1, 31053, Note_on_c, 1, 58, 0
1, 31053, Note_on_c, 1, 55, 0
1, 31056, Note_on_c, 0, 86, 84
1, 31056, Note_on_c, 1, 75, 75
1, 31071, Note_on_c, 1, 75, 0
1, 31072, Note_on_c, 1, 77, 75
1, 31076, Note_on_c, 0, 86, 0
1, 31087, Note_on_c, 1, 77, 0
1, 31088, Note_on_c, 1, 75, 75
1, 31103, Note_on_c, 1, 75, 0
1, 31104, Note_on_c, 0, 84, 84
1, 31104, Note_on_c, 1, 80, 75
1, 31124, Note_on_c, 0, 84, 0
1, 31124, Note_on_c, 1, 80, 0
1, 31152, Note_on_c, 0, 82, 82
1, 31152, Note_on_c, 0, 79, 75
1, 31152, Note_on_c, 1, 72, 75
1, 31167, Note_on_c, 1, 72, 0
1, 31168, Note_on_c, 1, 73, 75
1, 31172, Note_on_c, 0, 82, 0
1, 31172, Note_on_c, 0, 79, 0
1, 31183, Note_on_c, 1, 73, 0
1, 31184, Note_on_c, 1, 72, 75
1, 31199, Note_on_c, 1, 72, 0
1, 31200, Note_on_c, 0, 80, 81
1, 31200, Note_on_c, 0, 77, 75
1, 31200, Note_on_c, 1, 77, 75
1, 31220, Note_on_c, 0, 80, 0
1, 31220, Note_on_c, 0, 77, 0
1, 31220, Note_on_c, 1, 77, 0
1, 31248, Note_on_c, 0, 80, 80
1, 31248, Note_on_c, 0, 77, 75
1, 31248, Note_on_c, 1, 58, 75
1, 31263, Note_on_c, 1, 58, 0
1, 31264, Note_on_c, 1, 60, 75
1, 31268, Note_on_c, 0, 80, 0
1, 31268, Note_on_c, 0, 77, 0
1, 31279, Note_on_c, 1, 60, 0
1, 31280, Note_on_c, 1, 58, 75
1, 31295, Note_on_c, 1, 58, 0
1, 31296, Note_on_c, 0, 79, 79
1, 31296, Note_on_c, 0, 77, 75
1, 31296, Note_on_c, 1, 63, 84
1, 31344, Note_on_c, 1, 70, 75
1, 31359, Note_on_c, 1, 70, 0
1, 31360, Note_on_c, 1, 72, 75
1, 31375, Note_on_c, 1, 72, 0
1, 31376, Note_on_c, 1, 70, 75
1, 31385, Note_on_c, 0, 77, 0
1, 31391, Note_on_c, 1, 70, 0
1, 31392, Note_on_c, 0, 75, 75
1, 31412, Note_on_c, 0, 75, 0
1, 31440, Note_on_c, 0, 74, 75
1, 31460, Note_on_c, 0, 74, 0
1, 31488, Note_on_c, 0, 73, 75
1, 31536, Note_on_c, 1, 67, 75
1, 31551, Note_on_c, 1, 67, 0
1, 31552, Note_on_c, 1, 69, 75
1, 31567, Note_on_c, 1, 69, 0
1, 31568, Note_on_c, 1, 67, 75
1, 31583, Note_on_c, 1, 67, 0
1, 31584, Note_on_c, 1, 70, 75
1, 31604, Note_on_c, 1, 70, 0
1, 31621, Note_on_c, 0, 79, 0
1, 31621, Note_on_c, 0, 73, 0
1, 31632, Note_on_c, 0, 73, 75
1, 31632, Note_on_c, 0, 70, 75
1, 31632, Note_on_c, 1, 67, 75
1, 31665, Note_on_c, 1, 63, 0
1, 31677, Note_on_c, 0, 73, 0
1, 31680, Note_on_c, 0, 74, 75
1, 31680, Note_on_c, 1, 62, 84
1, 31725, Note_on_c, 0, 70, 0
1, 31725, Note_on_c, 1, 67, 0
1, 31728, Note_on_c, 0, 69, 75
1, 31728, Note_on_c, 1, 66, 75
1, 31748, Note_on_c, 0, 69, 0
1, 31769, Note_on_c, 0, 74, 0
1, 31769, Note_on_c, 1, 62, 0
1, 31773, Note_on_c, 1, 66, 0
1, 31824, Note_on_c, 0, 62, 75
1, 31839, Note_on_c, 0, 62, 0
1, 31840, Note_on_c, 0, 63, 75
1, 31855, Note_on_c, 0, 63, 0
1, 31856, Note_on_c, 0, 62, 75
1, 31871, Note_on_c, 0, 62, 0
1, 31872, Note_on_c, 0, 67, 75
1, 31892, Note_on_c, 0, 67, 0
1, 31920, Note_on_c, 0, 65, 75
1, 31940, Note_on_c, 0, 65, 0
1, 31968, Note_on_c, 0, 63, 75
1, 31988, Note_on_c, 0, 63, 0
1, 32016, Note_on_c, 0, 62, 75
1, 32036, Note_on_c, 0, 62, 0
1, 32064, Note_on_c, 0, 61, 75
1, 32112, Note_on_c, 1, 57, 75
1, 32112, Note_on_c, 1, 55, 84
1, 32157, Note_on_c, 1, 55, 0
1, 32160, Note_on_c, 0, 61, 0
1, 32160, Note_on_c, 0, 62, 75
1, 32160, Note_on_c, 1, 54, 84
1, 32180, Note_on_c, 0, 62, 0
1, 32180, Note_on_c, 1, 54, 0
1, 32208, Note_on_c, 0, 62, 75
1, 32208, Note_on_c, 1, 57, 0
1, 32208, Note_on_c, 1, 54, 75
1, 32208, Note_on_c, 1, 50, 84
1, 32220, Note_on_c, 0, 62, 0
1, 32220, Note_on_c, 0, 60, 75
1, 32232, Note_on_c, 0, 60, 0
1, 32232, Note_on_c, 0, 58, 75
1, 32244, Note_on_c, 0, 58, 0
1, 32244, Note_on_c, 0, 60, 75
1, 32253, Note_on_c, 1, 54, 0
1, 32253, Note_on_c, 1, 50, 0
1, 32256, Note_on_c, 0, 60, 0
1, 32256, Note_on_c, 0, 58, 75
1, 32256, Note_on_c, 1, 55, 75
1, 32295, Note_on_c, 1, 55, 0
1, 32304, Note_on_c, 0, 58, 0
1, 32304, Note_on_c, 0, 62, 75
1, 32349, Note_on_c, 0, 62, 0
1, 32352, Note_on_c, 1, 48, 75
1, 32391, Note_on_c, 1, 48, 0
1, 32400, Note_on_c, 0, 63, 75
1, 32420, Note_on_c, 0, 63, 0
1, 32448, Note_on_c, 0, 55, 75
1, 32496, Note_on_c, 1, 50, 75
1, 32541, Note_on_c, 1, 50, 0
1, 32544, Note_on_c, 0, 55, 0
1, 32544, Note_on_c, 0, 54, 75
1, 32544, Note_on_c, 1, 38, 75
1, 32589, Note_on_c, 0, 54, 0
1, 32589, Note_on_c, 1, 38, 0
1, 32592, Note_on_c, 0, 74, 75
1, 32607, Note_on_c, 0, 74, 0
1, 32608, Note_on_c, 0, 75, 75
1, 32623, Note_on_c, 0, 75, 0
1, 32624, Note_on_c, 0, 74, 75
1, 32639, Note_on_c, 0, 74, 0
1, 32640, Note_on_c, 0, 79, 75
1, 32660, Note_on_c, 0, 79, 0
1, 32688, Note_on_c, 0, 77, 75
1, 32708, Note_on_c, 0, 77, 0
1, 32736, Note_on_c, 0, 75, 75
1, 32736, Note_on_c, 0, 82, 96
1, 32736, Note_on_c, 1, 67, 96
1, 32756, Note_on_c, 0, 75, 0
1, 32784, Note_on_c, 0, 74, 75
1, 32804, Note_on_c, 0, 74, 0
1, 32832, Note_on_c, 0, 73, 75
1, 32877, Note_on_c, 0, 82, 0
1, 32880, Note_on_c, 0, 81, 75
1, 32913, Note_on_c, 1, 67, 0
1, 32921, Note_on_c, 0, 73, 0
1, 32928, Note_on_c, 0, 74, 75
1, 32928, Note_on_c, 1, 65, 75
1, 32973, Note_on_c, 0, 74, 0
1, 32976, Note_on_c, 0, 72, 75
1, 33013, Note_on_c, 0, 81, 0
1, 33021, Note_on_c, 0, 72, 0
1, 33024, Note_on_c, 0, 71, 75
1, 33024, Note_on_c, 0, 80, 91
1, 33072, Note_on_c, 0, 80, 0
1, 33072, Note_on_c, 0, 79, 75
1, 33113, Note_on_c, 0, 71, 0
1, 33113, Note_on_c, 1, 65, 0
1, 33120, Note_on_c, 0, 72, 75
1, 33120, Note_on_c, 1, 63, 75
1, 33165, Note_on_c, 0, 72, 0
1, 33168, Note_on_c, 0, 70, 75
1, 33205, Note_on_c, 0, 79, 0
1, 33213, Note_on_c, 0, 70, 0
1, 33216, Note_on_c, 0, 69, 75
1, 33216, Note_on_c, 0, 78, 91
1, 33264, Note_on_c, 0, 78, 0
1, 33264, Note_on_c, 0, 77, 75
1, 33305, Note_on_c, 0, 69, 0
1, 33312, Note_on_c, 0, 70, 75
1, 33357, Note_on_c, 1, 63, 0
1, 33360, Note_on_c, 1, 62, 75
1, 33397, Note_on_c, 0, 77, 0
1, 33405, Note_on_c, 1, 62, 0
1, 33408, Note_on_c, 0, 75, 75
1, 33408, Note_on_c, 1, 60, 75
1, 33453, Note_on_c, 0, 70, 0
1, 33453, Note_on_c, 1, 60, 0
1, 33456, Note_on_c, 0, 69, 75
1, 33456, Note_on_c, 1, 65, 75
1, 33497, Note_on_c, 0, 75, 0
1, 33501, Note_on_c, 1, 65, 0
1, 33504, Note_on_c, 0, 74, 75
1, 33504, Note_on_c, 1, 58, 75
1, 33545, Note_on_c, 0, 69, 0
1, 33549, Note_on_c, 1, 58, 0
1, 33552, Note_on_c, 0, 67, 75
1, 33552, Note_on_c, 1, 63, 75
1, 33593, Note_on_c, 0, 74, 0
1, 33597, Note_on_c, 1, 63, 0
1, 33600, Note_on_c, 0, 72, 75
1, 33600, Note_on_c, 1, 57, 75
1, 33641, Note_on_c, 0, 67, 0
1, 33645, Note_on_c, 1, 57, 0
1, 33648, Note_on_c, 0, 66, 75
1, 33648, Note_on_c, 1, 62, 75
1, 33693, Note_on_c, 0, 66, 0
1, 33693, Note_on_c, 1, 62, 0
1, 33696, Note_on_c, 0, 67, 75
1, 33696, Note_on_c, 1, 55, 75
1, 33733, Note_on_c, 0, 72, 0
1, 33741, Note_on_c, 1, 55, 0
1, 33744, Note_on_c, 0, 70, 75
1, 33744, Note_on_c, 1, 61, 75
1, 33789, Note_on_c, 1, 61, 0
1, 33792, Note_on_c, 1, 62, 75
1, 33837, Note_on_c, 0, 67, 0
1, 33837, Note_on_c, 0, 70, 0
1, 33837, Note_on_c, 1, 62, 0
1, 33840, Note_on_c, 0, 66, 75
1, 33840, Note_on_c, 0, 69, 75
1, 33840, Note_on_c, 1, 50, 75
1, 33885, Note_on_c, 0, 66, 0
1, 33885, Note_on_c, 0, 69, 0
1, 33885, Note_on_c, 1, 50, 0
1, 33936, Note_on_c, 0, 74, 84
1, 33948, Note_on_c, 0, 74, 0
1, 33948, Note_on_c, 0, 70, 84
1, 33960, Note_on_c, 0, 70, 0
1, 33960, Note_on_c, 0, 67, 84
1, 33972, Note_on_c, 0, 67, 0
1, 33972, Note_on_c, 0, 62, 84
1, 33978, Note_on_c, 0, 62, 0
1, 33978, Note_on_c, 0, 58, 84
1, 33984, Note_on_c, 0, 58, 0
1, 33984, Note_on_c, 0, 55, 84
1, 34004, Note_on_c, 0, 55, 0
1, 34032, Note_on_c, 0, 79, 84
1, 34032, Note_on_c, 1, 74, 84
1, 34032, Note_on_c, 1, 70, 84
1, 34047, Note_on_c, 0, 79, 0
1, 34048, Note_on_c, 0, 81, 84
1, 34063, Note_on_c, 0, 81, 0
1, 34064, Note_on_c, 0, 79, 84
1, 34079, Note_on_c, 0, 79, 0
1, 34080, Note_on_c, 0, 78, 84
1, 34080, Note_on_c, 1, 74, 0
1, 34080, Note_on_c, 1, 70, 0
1, 34080, Note_on_c, 1, 72, 84
1, 34080, Note_on_c, 1, 69, 84
1, 34100, Note_on_c, 0, 78, 0
1, 34125, Note_on_c, 1, 72, 0
1, 34125, Note_on_c, 1, 69, 0
1, 34128, Note_on_c, 0, 74, 84
1, 34140, Note_on_c, 0, 74, 0
1, 34140, Note_on_c, 0, 70, 84
1, 34152, Note_on_c, 0, 70, 0
1, 34152, Note_on_c, 0, 67, 84
1, 34164, Note_on_c, 0, 67, 0
1, 34164, Note_on_c, 0, 62, 84
1, 34170, Note_on_c, 0, 62, 0
1, 34170, Note_on_c, 0, 58, 84
1, 34176, Note_on_c, 0, 58, 0
1, 34176, Note_on_c, 0, 55, 84
1, 34196, Note_on_c, 0, 55, 0
1, 34224, Note_on_c, 0, 70, 84
1, 34224, Note_on_c, 1, 67, 84
1, 34224, Note_on_c, 1, 61, 84
1, 34231, Note_on_c, 0, 70, 0
1, 34231, Note_on_c, 0, 72, 84
1, 34238, Note_on_c, 0, 72, 0
1, 34238, Note_on_c, 0, 70, 84
1, 34245, Note_on_c, 0, 70, 0
1, 34245, Note_on_c, 0, 72, 84
1, 34252, Note_on_c, 0, 72, 0
1, 34252, Note_on_c, 0, 70, 84
1, 34259, Note_on_c, 0, 70, 0
1, 34259, Note_on_c, 0, 69, 84
1, 34266, Note_on_c, 0, 69, 0
1, 34266, Note_on_c, 0, 70, 84
1, 34272, Note_on_c, 0, 70, 0
1, 34272, Note_on_c, 0, 69, 84
1, 34272, Note_on_c, 1, 67, 0
1, 34272, Note_on_c, 1, 61, 0
1, 34272, Note_on_c, 1, 66, 84
1, 34272, Note_on_c, 1, 62, 84
1, 34292, Note_on_c, 0, 69, 0
1, 34317, Note_on_c, 1, 66, 0
1, 34317, Note_on_c, 1, 62, 0
1, 34320, Note_on_c, 0, 74, 69
1, 34332, Note_on_c, 0, 74, 0
1, 34332, Note_on_c, 0, 70, 69
1, 34344, Note_on_c, 0, 70, 0
1, 34344, Note_on_c, 0, 67, 69
1, 34356, Note_on_c, 0, 67, 0
1, 34356, Note_on_c, 0, 62, 69
1, 34362, Note_on_c, 0, 62, 0
1, 34362, Note_on_c, 0, 58, 69
1, 34368, Note_on_c, 0, 58, 0
1, 34368, Note_on_c, 0, 55, 69
1, 34388, Note_on_c, 0, 55, 0
1, 34416, Note_on_c, 0, 79, 69
1, 34416, Note_on_c, 1, 74, 69
1, 34416, Note_on_c, 1, 70, 69
1, 34431, Note_on_c, 0, 79, 0
1, 34432, Note_on_c, 0, 81, 69
1, 34447, Note_on_c, 0, 81, 0
1, 34448, Note_on_c, 0, 79, 69
1, 34463, Note_on_c, 0, 79, 0
1, 34464, Note_on_c, 0, 78, 69
1, 34464, Note_on_c, 1, 74, 0
1, 34464, Note_on_c, 1, 70, 0
1, 34464, Note_on_c, 1, 72, 69
1, 34464, Note_on_c, 1, 69, 69
1, 34484, Note_on_c, 0, 78, 0
1, 34509, Note_on_c, 1, 72, 0
1, 34509, Note_on_c, 1, 69, 0
1, 34512, Note_on_c, 0, 74, 69
1, 34524, Note_on_c, 0, 74, 0
1, 34524, Note_on_c, 0, 70, 69
1, 34536, Note_on_c, 0, 70, 0
1, 34536, Note_on_c, 0, 67, 69
1, 34548, Note_on_c, 0, 67, 0
1, 34548, Note_on_c, 0, 62, 69
1, 34554, Note_on_c, 0, 62, 0
1, 34554, Note_on_c, 0, 58, 69
1, 34560, Note_on_c, 0, 58, 0
1, 34560, Note_on_c, 0, 55, 69
1, 34580, Note_on_c, 0, 55, 0
1, 34608, Note_on_c, 0, 70, 69
1, 34608, Note_on_c, 1, 67, 69
1, 34608, Note_on_c, 1, 61, 69
1, 34615, Note_on_c, 0, 70, 0
1, 34615, Note_on_c, 0, 72, 69
1, 34622, Note_on_c, 0, 72, 0
1, 34622, Note_on_c, 0, 70, 69
1, 34629, Note_on_c, 0, 70, 0
1, 34629, Note_on_c, 0, 72, 69
1, 34636, Note_on_c, 0, 72, 0
1, 34636, Note_on_c, 0, 70, 69
1, 34643, Note_on_c, 0, 70, 0
1, 34643, Note_on_c, 0, 69, 69
1, 34650, Note_on_c, 0, 69, 0
1, 34650, Note_on_c, 0, 70, 69
1, 34656, Note_on_c, 0, 70, 0
1, 34656, Note_on_c, 0, 69, 69
1, 34656, Note_on_c, 1, 67, 0
1, 34656, Note_on_c, 1, 61, 0
1, 34656, Note_on_c, 1, 66, 69
1, 34656, Note_on_c, 1, 62, 69
1, 34701, Note_on_c, 0, 69, 0
1, 34701, Note_on_c, 1, 66, 0
1, 34701, Note_on_c, 1, 62, 0
1, 34704, Note_on_c, 0, 74, 75
1, 34704, Note_on_c, 1, 55, 75
1, 34704, Note_on_c, 1, 46, 75
1, 34716, Note_on_c, 0, 74, 0
1, 34716, Note_on_c, 0, 70, 75
1, 34728, Note_on_c, 0, 70, 0
1, 34728, Note_on_c, 0, 67, 75
1, 34740, Note_on_c, 0, 67, 0
1, 34740, Note_on_c, 0, 62, 75
1, 34749, Note_on_c, 1, 46, 0
1, 34752, Note_on_c, 0, 62, 0
1, 34752, Note_on_c, 0, 63, 75
1, 34752, Note_on_c, 1, 48, 75
1, 34775, Note_on_c, 0, 63, 0
1, 34776, Note_on_c, 0, 75, 75
1, 34797, Note_on_c, 1, 55, 0
1, 34799, Note_on_c, 0, 75, 0
1, 34800, Note_on_c, 1, 51, 75
1, 34824, Note_on_c, 0, 74, 76
1, 34834, Note_on_c, 0, 74, 0
1, 34845, Note_on_c, 1, 51, 0
1, 34848, Note_on_c, 0, 72, 76
1, 34848, Note_on_c, 1, 57, 76
1, 34871, Note_on_c, 0, 72, 0
1, 34872, Note_on_c, 0, 70, 76
1, 34885, Note_on_c, 1, 48, 0
1, 34895, Note_on_c, 0, 70, 0
1, 34896, Note_on_c, 0, 69, 77
1, 34896, Note_on_c, 1, 48, 76
1, 34919, Note_on_c, 0, 69, 0
1, 34920, Note_on_c, 0, 67, 77
1, 34941, Note_on_c, 1, 48, 0
1, 34943, Note_on_c, 0, 67, 0
1, 34944, Note_on_c, 0, 67, 77
1, 34944, Note_on_c, 1, 50, 77
1, 34989, Note_on_c, 1, 57, 0
1, 34992, Note_on_c, 1, 53, 77
1, 35037, Note_on_c, 1, 53, 0
1, 35040, Note_on_c, 0, 67, 0
1, 35040, Note_on_c, 0, 65, 78
1, 35040, Note_on_c, 1, 58, 78
1, 35077, Note_on_c, 1, 50, 0
1, 35085, Note_on_c, 0, 65, 0
1, 35088, Note_on_c, 0, 77, 79
1, 35088, Note_on_c, 1, 50, 78
1, 35100, Note_on_c, 0, 77, 0
1, 35100, Note_on_c, 0, 74, 79
1, 35112, Note_on_c, 0, 74, 0
1, 35112, Note_on_c, 0, 70, 79
1, 35124, Note_on_c, 0, 70, 0
1, 35124, Note_on_c, 0, 65, 79
1, 35133, Note_on_c, 1, 50, 0
1, 35136, Note_on_c, 0, 65, 0
1, 35136, Note_on_c, 0, 67, 79
1, 35136, Note_on_c, 1, 51, 79
1, 35159, Note_on_c, 0, 67, 0
1, 35160, Note_on_c, 0, 79, 80
1, 35181, Note_on_c, 1, 58, 0
1, 35183, Note_on_c, 0, 79, 0
1, 35184, Note_on_c, 1, 55, 80
1, 35208, Note_on_c, 0, 77, 80
1, 35229, Note_on_c, 1, 55, 0
1, 35231, Note_on_c, 0, 77, 0
1, 35232, Note_on_c, 0, 77, 81
1, 35232, Note_on_c, 1, 60, 80
1, 35238, Note_on_c, 0, 77, 0
1, 35238, Note_on_c, 0, 75, 81
1, 35256, Note_on_c, 0, 75, 0
1, 35256, Note_on_c, 0, 74, 81
1, 35269, Note_on_c, 1, 51, 0
1, 35279, Note_on_c, 0, 74, 0
1, 35280, Note_on_c, 0, 74, 81
1, 35280, Note_on_c, 1, 51, 81
1, 35286, Note_on_c, 0, 74, 0
1, 35286, Note_on_c, 0, 72, 81
1, 35304, Note_on_c, 0, 72, 0
1, 35304, Note_on_c, 0, 70, 81
1, 35325, Note_on_c, 1, 51, 0
1, 35327, Note_on_c, 0, 70, 0
1, 35328, Note_on_c, 0, 70, 82
1, 35328, Note_on_c, 1, 53, 81
1, 35373, Note_on_c, 1, 60, 0
1, 35376, Note_on_c, 1, 57, 82
1, 35421, Note_on_c, 1, 57, 0
1, 35424, Note_on_c, 0, 70, 0
1, 35424, Note_on_c, 0, 69, 83
1, 35424, Note_on_c, 1, 62, 82
1, 35461, Note_on_c, 1, 53, 0
1, 35469, Note_on_c, 0, 69, 0
1, 35472, Note_on_c, 0, 81, 83
1, 35472, Note_on_c, 1, 53, 83
1, 35484, Note_on_c, 0, 81, 0
1, 35484, Note_on_c, 0, 77, 84
1, 35496, Note_on_c, 0, 77, 0
1, 35496, Note_on_c, 0, 74, 84
1, 35508, Note_on_c, 0, 74, 0
1, 35508, Note_on_c, 0, 69, 84
1, 35517, Note_on_c, 1, 53, 0
1, 35520, Note_on_c, 0, 69, 0
1, 35520, Note_on_c, 0, 70, 84
1, 35520, Note_on_c, 1, 55, 84
1, 35543, Note_on_c, 0, 70, 0
1, 35544, Note_on_c, 0, 82, 84
1, 35565, Note_on_c, 1, 62, 0
1, 35567, Note_on_c, 0, 82, 0
1, 35568, Note_on_c, 1, 58, 84
1, 35592, Note_on_c, 0, 81, 84
1, 35609, Note_on_c, 1, 55, 0
1, 35613, Note_on_c, 1, 58, 0
1, 35615, Note_on_c, 0, 81, 0
1, 35616, Note_on_c, 0, 81, 84
1, 35616, Note_on_c, 1, 63, 84
1, 35616, Note_on_c, 1, 55, 84
1, 35622, Note_on_c, 0, 81, 0
1, 35622, Note_on_c, 0, 79, 84
1, 35640, Note_on_c, 0, 79, 0
1, 35640, Note_on_c, 0, 77, 84
1, 35661, Note_on_c, 1, 55, 0
1, 35663, Note_on_c, 0, 77, 0
1, 35664, Note_on_c, 0, 77, 84
1, 35670, Note_on_c, 0, 77, 0
1, 35670, Note_on_c, 0, 75, 84
1, 35688, Note_on_c, 0, 75, 0
1, 35688, Note_on_c, 0, 74, 84
1, 35711, Note_on_c, 0, 74, 0
1, 35712, Note_on_c, 0, 72, 84
1, 35712, Note_on_c, 1, 57, 84
1, 35735, Note_on_c, 0, 72, 0
1, 35736, Note_on_c, 0, 84, 84
1, 35757, Note_on_c, 1, 63, 0
1, 35759, Note_on_c, 0, 84, 0
1, 35760, Note_on_c, 1, 60, 84
1, 35784, Note_on_c, 0, 82, 84
1, 35805, Note_on_c, 1, 60, 0
1, 35807, Note_on_c, 0, 82, 0
1, 35808, Note_on_c, 0, 82, 84
1, 35808, Note_on_c, 1, 66, 84
1, 35814, Note_on_c, 0, 82, 0
1, 35814, Note_on_c, 0, 81, 84
1, 35832, Note_on_c, 0, 81, 0
1, 35832, Note_on_c, 0, 79, 84
1, 35845, Note_on_c, 1, 57, 0
1, 35855, Note_on_c, 0, 79, 0
1, 35856, Note_on_c, 0, 79, 84
1, 35856, Note_on_c, 1, 57, 84
1, 35862, Note_on_c, 0, 79, 0
1, 35862, Note_on_c, 0, 78, 84
1, 35880, Note_on_c, 0, 78, 0
1, 35880, Note_on_c, 0, 75, 84
1, 35901, Note_on_c, 1, 57, 0
1, 35903, Note_on_c, 0, 75, 0
1, 35904, Note_on_c, 0, 74, 84
1, 35904, Note_on_c, 1, 58, 84
1, 35927, Note_on_c, 0, 74, 0
1, 35928, Note_on_c, 0, 86, 84
1, 35949, Note_on_c, 1, 66, 0
1, 35951, Note_on_c, 0, 86, 0
1, 35952, Note_on_c, 1, 62, 84
1, 35976, Note_on_c, 0, 84, 84
1, 35997, Note_on_c, 1, 62, 0
1, 35999, Note_on_c, 0, 84, 0
1, 36000, Note_on_c, 0, 84, 84
1, 36000, Note_on_c, 1, 67, 84
1, 36023, Note_on_c, 0, 84, 0
1, 36024, Note_on_c, 0, 82, 84
1, 36037, Note_on_c, 1, 58, 0
1, 36047, Note_on_c, 0, 82, 0
1, 36048, Note_on_c, 0, 81, 84
1, 36048, Note_on_c, 1, 58, 84
1, 36071, Note_on_c, 0, 81, 0
1, 36072, Note_on_c, 0, 79, 84
1, 36093, Note_on_c, 1, 58, 0
1, 36095, Note_on_c, 0, 79, 0
1, 36096, Note_on_c, 0, 77, 84
1, 36096, Note_on_c, 1, 60, 84
1, 36119, Note_on_c, 0, 77, 0
1, 36120, Note_on_c, 0, 75, 84
1, 36141, Note_on_c, 1, 67, 0
1, 36143, Note_on_c, 0, 75, 0
1, 36144, Note_on_c, 0, 74, 84
1, 36144, Note_on_c, 1, 67, 84
1, 36167, Note_on_c, 0, 74, 0
1, 36168, Note_on_c, 0, 72, 84
1, 36185, Note_on_c, 1, 60, 0
1, 36191, Note_on_c, 0, 72, 0
1, 36192, Note_on_c, 0, 70, 84
1, 36192, Note_on_c, 1, 62, 84
1, 36233, Note_on_c, 1, 67, 0
1, 36237, Note_on_c, 0, 70, 0
1, 36240, Note_on_c, 0, 69, 84
1, 36240, Note_on_c, 1, 66, 84
1, 36247, Note_on_c, 0, 69, 0
1, 36247, Note_on_c, 0, 70, 84
1, 36254, Note_on_c, 0, 70, 0
1, 36254, Note_on_c, 0, 69, 84
1, 36261, Note_on_c, 0, 69, 0
1, 36261, Note_on_c, 0, 70, 84
1, 36268, Note_on_c, 0, 70, 0
1, 36268, Note_on_c, 0, 69, 84
1, 36275, Note_on_c, 0, 69, 0
1, 36275, Note_on_c, 0, 67, 84
1, 36281, Note_on_c, 1, 62, 0
1, 36282, Note_on_c, 0, 67, 0
1, 36282, Note_on_c, 0, 69, 84
1, 36285, Note_on_c, 1, 66, 0
1, 36288, Note_on_c, 0, 69, 0
1, 36288, Note_on_c, 0, 67, 84
1, 36312, Note_on_c, 1, 43, 84
1, 36335, Note_on_c, 1, 43, 0
1, 36336, Note_on_c, 1, 46, 84
1, 36359, Note_on_c, 1, 46, 0
1, 36360, Note_on_c, 1, 50, 84
1, 36377, Note_on_c, 0, 67, 0
1, 36383, Note_on_c, 1, 50, 0
1, 36384, Note_on_c, 1, 55, 84
1, 36429, Note_on_c, 1, 55, 0
1, 36432, Note_on_c, 0, 62, 75
1, 36477, Note_on_c, 0, 62, 0
1, 36480, Note_on_c, 0, 67, 75
1, 36480, Note_on_c, 1, 58, 75
1, 36528, Note_on_c, 0, 67, 0
1, 36528, Note_on_c, 0, 66, 75
1, 36528, Note_on_c, 1, 58, 0
1, 36528, Note_on_c, 1, 57, 75
1, 36548, Note_on_c, 0, 66, 0
1, 36548, Note_on_c, 1, 57, 0
1, 36576, Note_on_c, 0, 69, 75
1, 36576, Note_on_c, 1, 60, 75
1, 36624, Note_on_c, 0, 69, 0
1, 36624, Note_on_c, 0, 67, 75
1, 36624, Note_on_c, 1, 60, 0
1, 36624, Note_on_c, 1, 58, 75
1, 36644, Note_on_c, 0, 67, 0
1, 36644, Note_on_c, 1, 58, 0
1, 36672, Note_on_c, 0, 70, 75
1, 36672, Note_on_c, 0, 67, 75
1, 36720, Note_on_c, 1, 61, 75
1, 36739, Note_on_c, 0, 70, 0
1, 36744, Note_on_c, 0, 72, 75
1, 36756, Note_on_c, 0, 72, 0
1, 36756, Note_on_c, 0, 70, 75
1, 36761, Note_on_c, 0, 67, 0
1, 36768, Note_on_c, 0, 70, 0
1, 36768, Note_on_c, 0, 69, 75
1, 36768, Note_on_c, 0, 66, 75
1, 36768, Note_on_c, 1, 61, 0
1, 36768, Note_on_c, 1, 62, 75
1, 36813, Note_on_c, 0, 69, 0
1, 36813, Note_on_c, 0, 66, 0
1, 36813, Note_on_c, 1, 62, 0
1, 36816, Note_on_c, 0, 62, 75
1, 36836, Note_on_c, 0, 62, 0
1, 36864, Note_on_c, 0, 69, 75
1, 36864, Note_on_c, 1, 60, 75
1, 36912, Note_on_c, 0, 69, 0
1, 36912, Note_on_c, 0, 67, 75
1, 36912, Note_on_c, 1, 60, 0
1, 36912, Note_on_c, 1, 58, 75
1, 36932, Note_on_c, 0, 67, 0
1, 36932, Note_on_c, 1, 58, 0
1, 36960, Note_on_c, 0, 70, 75
1, 36960, Note_on_c, 1, 67, 75
1, 37008, Note_on_c, 0, 70, 0
1, 37008, Note_on_c, 0, 69, 75
1, 37008, Note_on_c, 1, 67, 0
1, 37008, Note_on_c, 1, 66, 75
1, 37028, Note_on_c, 0, 69, 0
1, 37028, Note_on_c, 1, 66, 0
1, 37056, Note_on_c, 0, 72, 75
1, 37056, Note_on_c, 0, 69, 75
1, 37104, Note_on_c, 1, 50, 75
1, 37123, Note_on_c, 0, 72, 0
1, 37128, Note_on_c, 0, 75, 75
1, 37136, Note_on_c, 0, 75, 0
1, 37136, Note_on_c, 0, 74, 75
1, 37144, Note_on_c, 0, 74, 0
1, 37144, Note_on_c, 0, 72, 75
1, 37145, Note_on_c, 0, 69, 0
1, 37152, Note_on_c, 0, 72, 0
1, 37152, Note_on_c, 0, 70, 75
1, 37152, Note_on_c, 0, 67, 75
1, 37152, Note_on_c, 1, 50, 0
1, 37152, Note_on_c, 1, 55, 75
1, 37197, Note_on_c, 0, 70, 0
1, 37197, Note_on_c, 0, 67, 0
1, 37197, Note_on_c, 1, 55, 0
1, 37200, Note_on_c, 0, 62, 75
1, 37220, Note_on_c, 0, 62, 0
1, 37248, Note_on_c, 0, 70, 75
1, 37271, Note_on_c, 0, 70, 0
1, 37272, Note_on_c, 0, 67, 75
1, 37295, Note_on_c, 0, 67, 0
1, 37296, Note_on_c, 0, 69, 75
1, 37319, Note_on_c, 0, 69, 0
1, 37320, Note_on_c, 0, 66, 75
1, 37343, Note_on_c, 0, 66, 0
1, 37344, Note_on_c, 0, 72, 75
1, 37367, Note_on_c, 0, 72, 0
1, 37368, Note_on_c, 0, 69, 75
1, 37391, Note_on_c, 0, 69, 0
1, 37392, Note_on_c, 0, 70, 75
1, 37415, Note_on_c, 0, 70, 0
1, 37416, Note_on_c, 0, 67, 75
1, 37439, Note_on_c, 0, 67, 0
1, 37440, Note_on_c, 0, 75, 75
1, 37463, Note_on_c, 0, 75, 0
1, 37464, Note_on_c, 0, 72, 75
1, 37487, Note_on_c, 0, 72, 0
1, 37488, Note_on_c, 0, 74, 75
1, 37511, Note_on_c, 0, 74, 0
1, 37512, Note_on_c, 0, 70, 75
1, 37535, Note_on_c, 0, 70, 0
1, 37536, Note_on_c, 0, 69, 75
1, 37560, Note_on_c, 0, 69, 0
1, 37560, Note_on_c, 0, 78, 75
1, 37583, Note_on_c, 0, 78, 0
1, 37584, Note_on_c, 0, 70, 76
1, 37608, Note_on_c, 0, 70, 0
1, 37608, Note_on_c, 0, 79, 77
1, 37631, Note_on_c, 0, 79, 0
1, 37632, Note_on_c, 0, 72, 77
1, 37656, Note_on_c, 0, 72, 0
1, 37656, Note_on_c, 0, 81, 78
1, 37679, Note_on_c, 0, 81, 0
1, 37680, Note_on_c, 0, 74, 79
1, 37704, Note_on_c, 0, 74, 0
1, 37704, Note_on_c, 0, 82, 79
1, 37727, Note_on_c, 0, 82, 0
1, 37728, Note_on_c, 0, 75, 80
1, 37728, Note_on_c, 1, 72, 75
1, 37728, Note_on_c, 1, 69, 75
1, 37752, Note_on_c, 0, 75, 0
1, 37752, Note_on_c, 0, 84, 81
1, 37773, Note_on_c, 1, 72, 0
1, 37773, Note_on_c, 1, 69, 0
1, 37775, Note_on_c, 0, 84, 0
1, 37776, Note_on_c, 0, 75, 81
1, 37776, Note_on_c, 1, 72, 79
1, 37776, Note_on_c, 1, 70, 79
1, 37776, Note_on_c, 1, 67, 79
1, 37800, Note_on_c, 0, 75, 0
1, 37800, Note_on_c, 0, 84, 82
1, 37821, Note_on_c, 1, 72, 0
1, 37821, Note_on_c, 1, 70, 0
1, 37821, Note_on_c, 1, 67, 0
1, 37823, Note_on_c, 0, 84, 0
1, 37824, Note_on_c, 0, 75, 83
1, 37824, Note_on_c, 1, 72, 105
1, 37824, Note_on_c, 1, 69, 105
1, 37824, Note_on_c, 1, 66, 105
1, 37848, Note_on_c, 0, 75, 0
1, 37848, Note_on_c, 0, 87, 84
1, 37871, Note_on_c, 0, 87, 0
1, 37872, Note_on_c, 0, 86, 84
1, 37895, Note_on_c, 0, 86, 0
1, 37896, Note_on_c, 0, 84, 84
1, 37919, Note_on_c, 0, 84, 0
1, 37920, Note_on_c, 0, 82, 84
1, 37943, Note_on_c, 0, 82, 0
1, 37944, Note_on_c, 0, 81, 84
1, 37967, Note_on_c, 0, 81, 0
1, 37968, Note_on_c, 0, 79, 84
1, 37991, Note_on_c, 0, 79, 0
1, 37992, Note_on_c, 0, 78, 84
1, 38015, Note_on_c, 0, 78, 0
1, 38016, Note_on_c, 0, 79, 84
1, 38039, Note_on_c, 0, 79, 0
1, 38040, Note_on_c, 0, 81, 84
1, 38063, Note_on_c, 0, 81, 0
1, 38064, Note_on_c, 0, 79, 84
1, 38087, Note_on_c, 0, 79, 0
1, 38088, Note_on_c, 0, 78, 84
1, 38111, Note_on_c, 0, 78, 0
1, 38112, Note_on_c, 0, 75, 84
1, 38135, Note_on_c, 0, 75, 0
1, 38136, Note_on_c, 0, 74, 84
1, 38159, Note_on_c, 0, 74, 0
1, 38160, Note_on_c, 0, 77, 84
1, 38183, Note_on_c, 0, 77, 0
1, 38184, Note_on_c, 0, 75, 84
1, 38207, Note_on_c, 0, 75, 0
1, 38208, Note_on_c, 0, 75, 84
1, 38232, Note_on_c, 0, 75, 0
1, 38232, Note_on_c, 0, 87, 84
1, 38255, Note_on_c, 0, 87, 0
1, 38256, Note_on_c, 0, 86, 84
1, 38279, Note_on_c, 0, 86, 0
1, 38280, Note_on_c, 0, 84, 84
1, 38303, Note_on_c, 0, 84, 0
1, 38304, Note_on_c, 0, 82, 84
1, 38327, Note_on_c, 0, 82, 0
1, 38328, Note_on_c, 0, 81, 84
1, 38351, Note_on_c, 0, 81, 0
1, 38352, Note_on_c, 0, 79, 84
1, 38375, Note_on_c, 0, 79, 0
1, 38376, Note_on_c, 0, 78, 84
1, 38399, Note_on_c, 0, 78, 0
1, 38400, Note_on_c, 0, 79, 84
1, 38423, Note_on_c, 0, 79, 0
1, 38424, Note_on_c, 0, 81, 84
1, 38447, Note_on_c, 0, 81, 0
1, 38448, Note_on_c, 0, 79, 84
1, 38471, Note_on_c, 0, 79, 0
1, 38472, Note_on_c, 0, 78, 84
1, 38495, Note_on_c, 0, 78, 0
1, 38496, Note_on_c, 0, 75, 84
1, 38519, Note_on_c, 0, 75, 0
1, 38520, Note_on_c, 0, 74, 84
1, 38543, Note_on_c, 0, 74, 0
1, 38544, Note_on_c, 0, 77, 84
1, 38567, Note_on_c, 0, 77, 0
1, 38568, Note_on_c, 0, 75, 84
1, 38585, Note_on_c, 1, 72, 0
1, 38585, Note_on_c, 1, 69, 0
1, 38585, Note_on_c, 1, 66, 0
1, 38591, Note_on_c, 0, 75, 0
1, 38592, Note_on_c, 0, 75, 84
1, 38640, Note_on_c, 1, 66, 84
1, 38688, Note_on_c, 1, 69, 84
1, 38736, Note_on_c, 1, 72, 84
1, 38769, Note_on_c, 0, 75, 0
1, 38784, Note_on_c, 1, 75, 84
1, 39049, Note_on_c, 1, 75, 0
1, 39049, Note_on_c, 1, 72, 0
1, 39049, Note_on_c, 1, 69, 0
1, 39049, Note_on_c, 1, 66, 0
1, 39096, Note_on_c, 0, 74, 75
1, 39108, Note_on_c, 0, 74, 0
1, 39108, Note_on_c, 0, 75, 75
1, 39120, Note_on_c, 0, 75, 0
1, 39120, Note_on_c, 0, 77, 75
1, 39120, Note_on_c, 1, 62, 75
1, 39120, Note_on_c, 1, 54, 75
1, 39132, Note_on_c, 0, 77, 0
1, 39132, Note_on_c, 0, 75, 75
1, 39144, Note_on_c, 0, 75, 0
1, 39144, Note_on_c, 0, 74, 75
1, 39156, Note_on_c, 0, 74, 0
1, 39156, Note_on_c, 0, 72, 75
1, 39165, Note_on_c, 1, 62, 0
1, 39165, Note_on_c, 1, 54, 0
1, 39168, Note_on_c, 0, 72, 0
1, 39168, Note_on_c, 0, 72, 75
1, 39168, Note_on_c, 1, 62, 75
1, 39168, Note_on_c, 1, 55, 75
1, 39180, Note_on_c, 0, 72, 0
1, 39180, Note_on_c, 0, 70, 75
1, 39192, Note_on_c, 0, 70, 0
1, 39192, Note_on_c, 0, 69, 75
1, 39204, Note_on_c, 0, 69, 0
1, 39204, Note_on_c, 0, 70, 75
1, 39213, Note_on_c, 1, 62, 0
1, 39213, Note_on_c, 1, 55, 0
1, 39216, Note_on_c, 0, 70, 0
1, 39216, Note_on_c, 0, 74, 75
1, 39216, Note_on_c, 1, 60, 75
1, 39216, Note_on_c, 1, 48, 75
1, 39228, Note_on_c, 0, 74, 0
1, 39228, Note_on_c, 0, 72, 75
1, 39240, Note_on_c, 0, 72, 0
1, 39240, Note_on_c, 0, 70, 75
1, 39252, Note_on_c, 0, 70, 0
1, 39252, Note_on_c, 0, 69, 75
1, 39261, Note_on_c, 1, 60, 0
1, 39261, Note_on_c, 1, 48, 0
1, 39264, Note_on_c, 0, 69, 0
1, 39264, Note_on_c, 0, 67, 75
1, 39264, Note_on_c, 1, 58, 75
1, 39264, Note_on_c, 1, 50, 75
1, 39309, Note_on_c, 0, 67, 0
1, 39309, Note_on_c, 1, 58, 0
1, 39309, Note_on_c, 1, 50, 0
1, 39312, Note_on_c, 0, 66, 75
1, 39312, Note_on_c, 1, 57, 75
1, 39312, Note_on_c, 1, 50, 75
1, 39319, Note_on_c, 0, 66, 0
1, 39319, Note_on_c, 0, 67, 75
1, 39326, Note_on_c, 0, 67, 0
1, 39326, Note_on_c, 0, 66, 75
1, 39333, Note_on_c, 0, 66, 0
1, 39333, Note_on_c, 0, 67, 75
1, 39340, Note_on_c, 0, 67, 0
1, 39340, Note_on_c, 0, 66, 75
1, 39347, Note_on_c, 0, 66, 0
1, 39347, Note_on_c, 0, 64, 75
1, 39354, Note_on_c, 0, 64, 0
1, 39354, Note_on_c, 0, 66, 75
1, 39357, Note_on_c, 1, 57, 0
1, 39357, Note_on_c, 1, 50, 0
1, 39360, Note_on_c, 0, 66, 0
1, 39360, Note_on_c, 0, 67, 75
1, 39360, Note_on_c, 1, 55, 75
1, 39383, Note_on_c, 0, 67, 0
1, 39384, Note_on_c, 0, 74, 75
1, 39405, Note_on_c, 1, 55, 0
1, 39407, Note_on_c, 0, 74, 0
1, 39408, Note_on_c, 1, 43, 75
1, 39428, Note_on_c, 1, 43, 0
1, 39432, Note_on_c, 0, 74, 75
1, 39455, Note_on_c, 0, 74, 0
1, 39456, Note_on_c, 1, 46, 78
1, 39476, Note_on_c, 1, 46, 0
1, 39480, Note_on_c, 0, 74, 75
1, 39503, Note_on_c, 0, 74, 0
1, 39504, Note_on_c, 1, 50, 81
1, 39524, Note_on_c, 1, 50, 0
1, 39528, Note_on_c, 0, 74, 75
1, 39551, Note_on_c, 0, 74, 0
1, 39552, Note_on_c, 1, 58, 84
1, 39552, Note_on_c, 1, 55, 84
1, 39576, Note_on_c, 0, 74, 75
1, 39599, Note_on_c, 0, 74, 0
1, 39600, Note_on_c, 1, 58, 0
1, 39600, Note_on_c, 1, 55, 0
1, 39600, Note_on_c, 1, 57, 86
1, 39600, Note_on_c, 1, 54, 86
1, 39620, Note_on_c, 1, 57, 0
1, 39620, Note_on_c, 1, 54, 0
1, 39624, Note_on_c, 0, 74, 77
1, 39647, Note_on_c, 0, 74, 0
1, 39648, Note_on_c, 1, 60, 89
1, 39648, Note_on_c, 1, 57, 89
1, 39672, Note_on_c, 0, 74, 78
1, 39695, Note_on_c, 0, 74, 0
1, 39696, Note_on_c, 1, 60, 0
1, 39696, Note_on_c, 1, 57, 0
1, 39696, Note_on_c, 1, 58, 92
1, 39696, Note_on_c, 1, 55, 92
1, 39716, Note_on_c, 1, 58, 0
1, 39716, Note_on_c, 1, 55, 0
1, 39720, Note_on_c, 0, 74, 79
1, 39743, Note_on_c, 0, 74, 0
1, 39744, Note_on_c, 1, 66, 95
1, 39744, Note_on_c, 1, 57, 95
1, 39768, Note_on_c, 0, 74, 81
1, 39789, Note_on_c, 1, 66, 0
1, 39789, Note_on_c, 1, 57, 0
1, 39791, Note_on_c, 0, 74, 0
1, 39792, Note_on_c, 1, 67, 97
1, 39792, Note_on_c, 1, 58, 97
1, 39816, Note_on_c, 0, 74, 82
1, 39837, Note_on_c, 1, 67, 0
1, 39837, Note_on_c, 1, 58, 0
1, 39839, Note_on_c, 0, 74, 0
1, 39840, Note_on_c, 1, 69, 100
1, 39840, Note_on_c, 1, 60, 100
1, 39864, Note_on_c, 0, 74, 84
1, 39887, Note_on_c, 0, 74, 0
1, 39888, Note_on_c, 0, 86, 84
1, 39900, Note_on_c, 0, 86, 0
1, 39900, Note_on_c, 0, 81, 81
1, 39912, Note_on_c, 0, 81, 0
1, 39912, Note_on_c, 0, 78, 79
1, 39924, Note_on_c, 0, 78, 0
1, 39924, Note_on_c, 0, 74, 77
1, 39929, Note_on_c, 1, 69, 0
1, 39929, Note_on_c, 1, 60, 0
1, 39936, Note_on_c, 0, 74, 0
1, 39936, Note_on_c, 0, 81, 75
1, 39936, Note_on_c, 1, 67, 84
1, 39936, Note_on_c, 1, 58, 84
1, 39948, Note_on_c, 0, 81, 0
1, 39948, Note_on_c, 0, 79, 75
1, 39960, Note_on_c, 0, 79, 0
1, 39960, Note_on_c, 0, 78, 75
1, 39972, Note_on_c, 0, 78, 0
1, 39972, Note_on_c, 0, 79, 75
1, 39981, Note_on_c, 1, 58, 0
1, 39984, Note_on_c, 0, 79, 0
1, 39984, Note_on_c, 0, 77, 75
1, 39984, Note_on_c, 1, 60, 84
1, 39996, Note_on_c, 0, 77, 0
1, 39996, Note_on_c, 0, 75, 75
1, 40008, Note_on_c, 0, 75, 0
1, 40008, Note_on_c, 0, 74, 75
1, 40020, Note_on_c, 0, 74, 0
1, 40020, Note_on_c, 0, 72, 75
1, 40029, Note_on_c, 1, 60, 0
1, 40032, Note_on_c, 0, 72, 0
1, 40032, Note_on_c, 0, 70, 75
1, 40032, Note_on_c, 1, 62, 84
1, 40077, Note_on_c, 0, 70, 0
1, 40077, Note_on_c, 1, 67, 0
1, 40080, Note_on_c, 0, 69, 75
1, 40080, Note_on_c, 1, 66, 75
1, 40087, Note_on_c, 0, 69, 0
1, 40087, Note_on_c, 0, 70, 75
1, 40094, Note_on_c, 0, 70, 0
1, 40094, Note_on_c, 0, 69, 75
1, 40101, Note_on_c, 0, 69, 0
1, 40101, Note_on_c, 0, 70, 75
1, 40108, Note_on_c, 0, 70, 0
1, 40108, Note_on_c, 0, 69, 75
1, 40115, Note_on_c, 0, 69, 0
1, 40115, Note_on_c, 0, 67, 75
1, 40121, Note_on_c, 1, 62, 0
1, 40122, Note_on_c, 0, 67, 0
1, 40122, Note_on_c, 0, 69, 75
1, 40125, Note_on_c, 1, 66, 0
1, 40128, Note_on_c, 0, 69, 0
1, 40128, Note_on_c, 0, 67, 75
1, 40151, Note_on_c, 0, 67, 0
1, 40152, Note_on_c, 0, 74, 75
1, 40175, Note_on_c, 0, 74, 0
1, 40176, Note_on_c, 1, 43, 75
1, 40196, Note_on_c, 1, 43, 0
1, 40200, Note_on_c, 0, 74, 75
1, 40223, Note_on_c, 0, 74, 0
1, 40224, Note_on_c, 1, 46, 78
1, 40244, Note_on_c, 1, 46, 0
1, 40248, Note_on_c, 0, 74, 75
1, 40271, Note_on_c, 0, 74, 0
1, 40272, Note_on_c, 1, 50, 81
1, 40292, Note_on_c, 1, 50, 0
1, 40296, Note_on_c, 0, 74, 75
1, 40319, Note_on_c, 0, 74, 0
1, 40320, Note_on_c, 1, 58, 84
1, 40343, Note_on_c, 1, 58, 0
1, 40344, Note_on_c, 0, 74, 75
1, 40344, Note_on_c, 1, 55, 85
1, 40367, Note_on_c, 0, 74, 0
1, 40367, Note_on_c, 1, 55, 0
1, 40368, Note_on_c, 1, 57, 86
1, 40391, Note_on_c, 1, 57, 0
1, 40392, Note_on_c, 0, 74, 77
1, 40392, Note_on_c, 1, 54, 88
1, 40415, Note_on_c, 0, 74, 0
1, 40415, Note_on_c, 1, 54, 0
1, 40416, Note_on_c, 1, 60, 89
1, 40439, Note_on_c, 1, 60, 0
1, 40440, Note_on_c, 0, 74, 78
1, 40440, Note_on_c, 1, 57, 90
1, 40463, Note_on_c, 0, 74, 0
1, 40463, Note_on_c, 1, 57, 0
1, 40464, Note_on_c, 1, 58, 92
1, 40487, Note_on_c, 1, 58, 0
1, 40488, Note_on_c, 0, 74, 79
1, 40488, Note_on_c, 1, 55, 93
1, 40511, Note_on_c, 0, 74, 0
1, 40511, Note_on_c, 1, 55, 0
1, 40512, Note_on_c, 1, 66, 95
1, 40512, Note_on_c, 1, 57, 95
1, 40536, Note_on_c, 0, 74, 81
1, 40557, Note_on_c, 1, 66, 0
1, 40557, Note_on_c, 1, 57, 0
1, 40559, Note_on_c, 0, 74, 0
1, 40560, Note_on_c, 1, 67, 97
1, 40560, Note_on_c, 1, 58, 97
1, 40584, Note_on_c, 0, 74, 82
1, 40605, Note_on_c, 1, 67, 0
1, 40605, Note_on_c, 1, 58, 0
1, 40607, Note_on_c, 0, 74, 0
1, 40608, Note_on_c, 1, 69, 100
1, 40608, Note_on_c, 1, 60, 100
1, 40632, Note_on_c, 0, 74, 84
1, 40655, Note_on_c, 0, 74, 0
1, 40656, Note_on_c, 0, 86, 81
1, 40668, Note_on_c, 0, 86, 0
1, 40668, Note_on_c, 0, 81, 79
1, 40680, Note_on_c, 0, 81, 0
1, 40680, Note_on_c, 0, 78, 78
1, 40692, Note_on_c, 0, 78, 0
1, 40692, Note_on_c, 0, 74, 76
1, 40697, Note_on_c, 1, 69, 0
1, 40697, Note_on_c, 1, 60, 0
1, 40704, Note_on_c, 0, 74, 0
1, 40704, Note_on_c, 0, 81, 75
1, 40704, Note_on_c, 1, 67, 84
1, 40704, Note_on_c, 1, 58, 84
1, 40716, Note_on_c, 0, 81, 0
1, 40716, Note_on_c, 0, 79, 75
1, 40728, Note_on_c, 0, 79, 0
1, 40728, Note_on_c, 0, 78, 75
1, 40740, Note_on_c, 0, 78, 0
1, 40740, Note_on_c, 0, 79, 75
1, 40749, Note_on_c, 1, 58, 0
1, 40752, Note_on_c, 0, 79, 0
1, 40752, Note_on_c, 0, 77, 75
1, 40752, Note_on_c, 1, 60, 84
1, 40764, Note_on_c, 0, 77, 0
1, 40764, Note_on_c, 0, 75, 75
1, 40776, Note_on_c, 0, 75, 0
1, 40776, Note_on_c, 0, 74, 75
1, 40788, Note_on_c, 0, 74, 0
1, 40788, Note_on_c, 0, 72, 75
1, 40797, Note_on_c, 1, 60, 0
1, 40800, Note_on_c, 0, 72, 0
1, 40800, Note_on_c, 0, 70, 75
1, 40800, Note_on_c, 1, 62, 84
1, 40845, Note_on_c, 0, 70, 0
1, 40848, Note_on_c, 0, 69, 75
1, 40848, Note_on_c, 1, 67, 0
1, 40848, Note_on_c, 1, 66, 77
1, 40855, Note_on_c, 0, 69, 0
1, 40855, Note_on_c, 0, 70, 75
1, 40862, Note_on_c, 0, 70, 0
1, 40862, Note_on_c, 0, 69, 75
1, 40869, Note_on_c, 0, 69, 0
1, 40869, Note_on_c, 0, 70, 75
1, 40876, Note_on_c, 0, 70, 0
1, 40876, Note_on_c, 0, 69, 75
1, 40883, Note_on_c, 0, 69, 0
1, 40883, Note_on_c, 0, 67, 75
1, 40889, Note_on_c, 1, 62, 0
1, 40890, Note_on_c, 0, 67, 0
1, 40890, Note_on_c, 0, 69, 75
1, 40893, Note_on_c, 1, 66, 0
1, 40896, Note_on_c, 0, 69, 0
1, 40896, Note_on_c, 0, 67, 75
1, 40920, Note_on_c, 1, 43, 84
1, 40943, Note_on_c, 1, 43, 0
1, 40944, Note_on_c, 1, 46, 84
1, 40967, Note_on_c, 1, 46, 0
1, 40968, Note_on_c, 1, 50, 84
1, 40985, Note_on_c, 0, 67, 0
1, 40991, Note_on_c, 1, 50, 0
1, 40992, Note_on_c, 1, 55, 84
1, 41037, Note_on_c, 1, 55, 0
1, 41040, Note_on_c, 0, 75, 75
1, 41040, Note_on_c, 0, 72, 75
1, 41088, Note_on_c, 1, 31, 75
1, 41127, Note_on_c, 1, 31, 0
1, 41133, Note_on_c, 0, 75, 0
1, 41133, Note_on_c, 0, 72, 0
1, 41136, Note_on_c, 0, 74, 75
1, 41136, Note_on_c, 0, 70, 75
1, 41181, Note_on_c, 0, 74, 0
1, 41181, Note_on_c, 0, 70, 0
1, 41184, Note_on_c, 1, 43, 75
1, 41223, Note_on_c, 1, 43, 0
1, 41232, Note_on_c, 0, 72, 75
1, 41232, Note_on_c, 0, 66, 75
1, 41280, Note_on_c, 1, 31, 75
1, 41319, Note_on_c, 1, 31, 0
1, 41328, Note_on_c, 0, 72, 0
1, 41328, Note_on_c, 0, 66, 0
1, 41328, Note_on_c, 0, 70, 75
1, 41328, Note_on_c, 0, 67, 75
1, 41373, Note_on_c, 0, 70, 0
1, 41373, Note_on_c, 0, 67, 0
1, 41376, Note_on_c, 1, 58, 75
1, 41376, Note_on_c, 1, 55, 75
1, 41424, Note_on_c, 0, 63, 75
1, 41465, Note_on_c, 1, 58, 0
1, 41465, Note_on_c, 1, 55, 0
1, 41472, Note_on_c, 1, 56, 71
1, 41472, Note_on_c, 1, 53, 71
1, 41517, Note_on_c, 0, 63, 0
1, 41520, Note_on_c, 0, 62, 71
1, 41561, Note_on_c, 1, 56, 0
1, 41561, Note_on_c, 1, 53, 0
1, 41568, Note_on_c, 1, 55, 68
1, 41568, Note_on_c, 1, 51, 68
1, 41609, Note_on_c, 0, 62, 0
1, 41616, Note_on_c, 0, 60, 67
1, 41657, Note_on_c, 1, 55, 0
1, 41657, Note_on_c, 1, 51, 0
1, 41664, Note_on_c, 1, 53, 64
1, 41664, Note_on_c, 1, 50, 64
1, 41705, Note_on_c, 0, 60, 0
1, 41712, Note_on_c, 0, 59, 63
1, 41753, Note_on_c, 1, 53, 0
1, 41753, Note_on_c, 1, 50, 0
1, 41757, Note_on_c, 0, 59, 0
1, 41808, Note_on_c, 0, 79, 75
1, 41823, Note_on_c, 0, 79, 0
1, 41824, Note_on_c, 0, 80, 75
1, 41839, Note_on_c, 0, 80, 0
1, 41840, Note_on_c, 0, 79, 75
1, 41855, Note_on_c, 0, 79, 0
1, 41856, Note_on_c, 0, 84, 75
1, 41876, Note_on_c, 0, 84, 0
1, 41904, Note_on_c, 0, 82, 75
1, 41924, Note_on_c, 0, 82, 0
1, 41952, Note_on_c, 0, 80, 75
1, 41972, Note_on_c, 0, 80, 0
1, 42000, Note_on_c, 0, 79, 75
1, 42020, Note_on_c, 0, 79, 0
1, 42048, Note_on_c, 0, 78, 75
1, 42096, Note_on_c, 1, 74, 75
1, 42096, Note_on_c, 1, 72, 84
1, 42141, Note_on_c, 1, 72, 0
1, 42144, Note_on_c, 0, 78, 0
1, 42144, Note_on_c, 0, 79, 75
1, 42144, Note_on_c, 1, 71, 84
1, 42164, Note_on_c, 0, 79, 0
1, 42164, Note_on_c, 1, 71, 0
1, 42192, Note_on_c, 0, 79, 75
1, 42192, Note_on_c, 1, 74, 0
1, 42192, Note_on_c, 1, 71, 75
1, 42192, Note_on_c, 1, 67, 84
1, 42204, Note_on_c, 0, 79, 0
1, 42204, Note_on_c, 0, 77, 75
1, 42216, Note_on_c, 0, 77, 0
1, 42216, Note_on_c, 0, 75, 75
1, 42228, Note_on_c, 0, 75, 0
1, 42228, Note_on_c, 0, 77, 75
1, 42237, Note_on_c, 1, 71, 0
1, 42237, Note_on_c, 1, 67, 0
1, 42240, Note_on_c, 0, 77, 0
1, 42240, Note_on_c, 0, 75, 75
1, 42240, Note_on_c, 1, 72, 75
1, 42279, Note_on_c, 1, 72, 0
1, 42288, Note_on_c, 0, 75, 0
1, 42288, Note_on_c, 0, 79, 75
1, 42333, Note_on_c, 0, 79, 0
1, 42336, Note_on_c, 1, 65, 75
1, 42375, Note_on_c, 1, 65, 0
1, 42384, Note_on_c, 0, 80, 75
1, 42404, Note_on_c, 0, 80, 0
1, 42432, Note_on_c, 0, 72, 75
1, 42480, Note_on_c, 1, 67, 75
1, 42525, Note_on_c, 1, 67, 0
1, 42528, Note_on_c, 0, 72, 0
1, 42528, Note_on_c, 0, 71, 75
1, 42528, Note_on_c, 1, 55, 75
1, 42548, Note_on_c, 0, 71, 0
1, 42573, Note_on_c, 1, 55, 0
1, 42576, Note_on_c, 0, 67, 75
1, 42591, Note_on_c, 0, 67, 0
1, 42592, Note_on_c, 0, 68, 75
1, 42607, Note_on_c, 0, 68, 0
1, 42608, Note_on_c, 0, 67, 75
1, 42623, Note_on_c, 0, 67, 0
1, 42624, Note_on_c, 0, 72, 75
1, 42672, Note_on_c, 0, 72, 0
1, 42672, Note_on_c, 0, 70, 75
1, 42692, Note_on_c, 0, 70, 0
1, 42720, Note_on_c, 0, 68, 75
1, 42720, Note_on_c, 0, 75, 85
1, 42720, Note_on_c, 1, 48, 96
1, 42768, Note_on_c, 0, 68, 0
1, 42768, Note_on_c, 0, 67, 75
1, 42788, Note_on_c, 0, 67, 0
1, 42816, Note_on_c, 0, 66, 75
1, 42839, Note_on_c, 1, 48, 0
1, 42840, Note_on_c, 1, 51, 75
1, 42863, Note_on_c, 1, 51, 0
1, 42864, Note_on_c, 1, 54, 75
1, 42887, Note_on_c, 1, 54, 0
1, 42888, Note_on_c, 1, 57, 75
1, 42911, Note_on_c, 1, 57, 0
1, 42912, Note_on_c, 1, 60, 75
1, 42935, Note_on_c, 1, 60, 0
1, 42936, Note_on_c, 1, 63, 75
1, 42957, Note_on_c, 0, 75, 0
1, 42959, Note_on_c, 1, 63, 0
1, 42960, Note_on_c, 0, 75, 64
1, 42960, Note_on_c, 1, 62, 75
1, 42983, Note_on_c, 1, 62, 0
1, 42984, Note_on_c, 1, 60, 75
1, 42993, Note_on_c, 0, 66, 0
1, 43007, Note_on_c, 1, 60, 0
1, 43008, Note_on_c, 0, 67, 75
1, 43008, Note_on_c, 1, 58, 75
1, 43031, Note_on_c, 0, 75, 0
1, 43032, Note_on_c, 0, 74, 75
1, 43055, Note_on_c, 0, 74, 0
1, 43056, Note_on_c, 0, 73, 76
1, 43079, Note_on_c, 0, 73, 0
1, 43080, Note_on_c, 0, 74, 77
1, 43097, Note_on_c, 0, 67, 0
1, 43103, Note_on_c, 0, 74, 0
1, 43104, Note_on_c, 0, 79, 78
1, 43127, Note_on_c, 0, 79, 0
1, 43128, Note_on_c, 0, 78, 78
1, 43151, Note_on_c, 0, 78, 0
1, 43152, Note_on_c, 0, 81, 79
1, 43175, Note_on_c, 0, 81, 0
1, 43176, Note_on_c, 0, 79, 80
1, 43185, Note_on_c, 1, 58, 0
1, 43199, Note_on_c, 0, 79, 0
1, 43200, Note_on_c, 0, 82, 81
1, 43289, Note_on_c, 0, 82, 0
1, 43344, Note_on_c, 0, 62, 75
1, 43359, Note_on_c, 0, 62, 0
1, 43360, Note_on_c, 0, 63, 75
1, 43375, Note_on_c, 0, 63, 0
1, 43376, Note_on_c, 0, 62, 75
1, 43391, Note_on_c, 0, 62, 0
1, 43392, Note_on_c, 0, 70, 75
1, 43440, Note_on_c, 0, 70, 0
1, 43440, Note_on_c, 0, 68, 75
1, 43460, Note_on_c, 0, 68, 0
1, 43488, Note_on_c, 0, 67, 75
1, 43488, Note_on_c, 0, 73, 105
1, 43488, Note_on_c, 1, 46, 96
1, 43536, Note_on_c, 0, 67, 0
1, 43536, Note_on_c, 0, 65, 75
1, 43556, Note_on_c, 0, 65, 0
1, 43584, Note_on_c, 0, 64, 75
1, 43607, Note_on_c, 1, 46, 0
1, 43608, Note_on_c, 1, 49, 75
1, 43631, Note_on_c, 1, 49, 0
1, 43632, Note_on_c, 1, 52, 75
1, 43655, Note_on_c, 1, 52, 0
1, 43656, Note_on_c, 1, 55, 75
1, 43679, Note_on_c, 1, 55, 0
1, 43680, Note_on_c, 1, 58, 75
1, 43703, Note_on_c, 1, 58, 0
1, 43704, Note_on_c, 1, 61, 75
1, 43725, Note_on_c, 0, 73, 0
1, 43727, Note_on_c, 1, 61, 0
1, 43728, Note_on_c, 0, 73, 84
1, 43728, Note_on_c, 1, 60, 75
1, 43751, Note_on_c, 1, 60, 0
1, 43752, Note_on_c, 1, 58, 75
1, 43761, Note_on_c, 0, 64, 0
1, 43775, Note_on_c, 1, 58, 0
1, 43776, Note_on_c, 0, 65, 75
1, 43776, Note_on_c, 1, 56, 75
1, 43799, Note_on_c, 0, 73, 0
1, 43800, Note_on_c, 0, 72, 75
1, 43823, Note_on_c, 0, 72, 0
1, 43824, Note_on_c, 0, 71, 75
1, 43847, Note_on_c, 0, 71, 0
1, 43848, Note_on_c, 0, 72, 76
1, 43865, Note_on_c, 0, 65, 0
1, 43871, Note_on_c, 0, 72, 0
1, 43872, Note_on_c, 0, 77, 77
1, 43895, Note_on_c, 0, 77, 0
1, 43896, Note_on_c, 0, 76, 78
1, 43919, Note_on_c, 0, 76, 0
1, 43920, Note_on_c, 0, 79, 79
1, 43943, Note_on_c, 0, 79, 0
1, 43944, Note_on_c, 0, 77, 79
1, 43953, Note_on_c, 1, 56, 0
1, 43967, Note_on_c, 0, 77, 0
1, 43968, Note_on_c, 0, 80, 80
1, 44057, Note_on_c, 0, 80, 0
1, 44112, Note_on_c, 0, 72, 75
1, 44127, Note_on_c, 0, 72, 0
1, 44128, Note_on_c, 0, 73, 75
1, 44143, Note_on_c, 0, 73, 0
1, 44144, Note_on_c, 0, 72, 75
1, 44159, Note_on_c, 0, 72, 0
1, 44160, Note_on_c, 0, 84, 75
1, 44208, Note_on_c, 1, 60, 61
1, 44208, Note_on_c, 1, 56, 61
1, 44208, Note_on_c, 1, 53, 61
1, 44228, Note_on_c, 1, 60, 0
1, 44228, Note_on_c, 1, 56, 0
1, 44228, Note_on_c, 1, 53, 0
1, 44256, Note_on_c, 1, 60, 61
1, 44256, Note_on_c, 1, 56, 61
1, 44256, Note_on_c, 1, 53, 61
1, 44293, Note_on_c, 0, 84, 0
1, 44303, Note_on_c, 1, 60, 0
1, 44303, Note_on_c, 1, 56, 0
1, 44303, Note_on_c, 1, 53, 0
1, 44304, Note_on_c, 0, 82, 75
1, 44316, Note_on_c, 0, 82, 0
1, 44316, Note_on_c, 0, 80, 75
1, 44328, Note_on_c, 0, 80, 0
1, 44328, Note_on_c, 0, 79, 75
1, 44340, Note_on_c, 0, 79, 0
1, 44340, Note_on_c, 0, 77, 75
1, 44352, Note_on_c, 0, 77, 0
1, 44352, Note_on_c, 0, 84, 75
1, 44400, Note_on_c, 1, 60, 61
1, 44400, Note_on_c, 1, 57, 61
1, 44400, Note_on_c, 1, 53, 61
1, 44400, Note_on_c, 1, 51, 61
1, 44420, Note_on_c, 1, 60, 0
1, 44420, Note_on_c, 1, 57, 0
1, 44420, Note_on_c, 1, 53, 0
1, 44420, Note_on_c, 1, 51, 0
1, 44448, Note_on_c, 1, 60, 61
1, 44448, Note_on_c, 1, 57, 61
1, 44448, Note_on_c, 1, 53, 61
1, 44448, Note_on_c, 1, 51, 61
1, 44485, Note_on_c, 0, 84, 0
1, 44495, Note_on_c, 1, 60, 0
1, 44495, Note_on_c, 1, 57, 0
1, 44495, Note_on_c, 1, 53, 0
1, 44495, Note_on_c, 1, 51, 0
1, 44496, Note_on_c, 0, 82, 75
1, 44508, Note_on_c, 0, 82, 0
1, 44508, Note_on_c, 0, 81, 75
1, 44520, Note_on_c, 0, 81, 0
1, 44520, Note_on_c, 0, 79, 75
1, 44532, Note_on_c, 0, 79, 0
1, 44532, Note_on_c, 0, 77, 75
1, 44544, Note_on_c, 0, 77, 0
1, 44544, Note_on_c, 0, 84, 76
1, 44592, Note_on_c, 1, 60, 61
1, 44592, Note_on_c, 1, 57, 61
1, 44592, Note_on_c, 1, 54, 61
1, 44592, Note_on_c, 1, 50, 61
1, 44612, Note_on_c, 1, 60, 0
1, 44612, Note_on_c, 1, 57, 0
1, 44612, Note_on_c, 1, 54, 0
1, 44612, Note_on_c, 1, 50, 0
1, 44640, Note_on_c, 1, 60, 61
1, 44640, Note_on_c, 1, 57, 61
1, 44640, Note_on_c, 1, 54, 61
1, 44640, Note_on_c, 1, 50, 61
1, 44677, Note_on_c, 0, 84, 0
1, 44687, Note_on_c, 1, 60, 0
1, 44687, Note_on_c, 1, 57, 0
1, 44687, Note_on_c, 1, 54, 0
1, 44687, Note_on_c, 1, 50, 0
1, 44688, Note_on_c, 0, 82, 80
1, 44700, Note_on_c, 0, 82, 0
1, 44700, Note_on_c, 0, 81, 80
1, 44712, Note_on_c, 0, 81, 0
1, 44712, Note_on_c, 0, 79, 80
1, 44724, Note_on_c, 0, 79, 0
1, 44724, Note_on_c, 0, 78, 81
1, 44736, Note_on_c, 0, 78, 0
1, 44736, Note_on_c, 0, 87, 81
1, 44784, Note_on_c, 1, 57, 61
1, 44784, Note_on_c, 1, 54, 61
1, 44784, Note_on_c, 1, 50, 61
1, 44784, Note_on_c, 1, 48, 61
1, 44804, Note_on_c, 1, 57, 0
1, 44804, Note_on_c, 1, 54, 0
1, 44804, Note_on_c, 1, 50, 0
1, 44804, Note_on_c, 1, 48, 0
1, 44832, Note_on_c, 1, 57, 61
1, 44832, Note_on_c, 1, 54, 61
1, 44832, Note_on_c, 1, 50, 61
1, 44832, Note_on_c, 1, 48, 61
1, 44855, Note_on_c, 0, 87, 0
1, 44856, Note_on_c, 0, 86, 84
1, 44868, Note_on_c, 0, 86, 0
1, 44868, Note_on_c, 0, 84, 84
1, 44879, Note_on_c, 1, 57, 0
1, 44879, Note_on_c, 1, 54, 0
1, 44879, Note_on_c, 1, 50, 0
1, 44879, Note_on_c, 1, 48, 0
1, 44880, Note_on_c, 0, 84, 0
1, 44880, Note_on_c, 0, 82, 84
1, 44892, Note_on_c, 0, 82, 0
1, 44892, Note_on_c, 0, 81, 84
1, 44904, Note_on_c, 0, 81, 0
1, 44904, Note_on_c, 0, 79, 84
1, 44916, Note_on_c, 0, 79, 0
1, 44916, Note_on_c, 0, 78, 84
1, 44928, Note_on_c, 0, 78, 0
1, 44928, Note_on_c, 0, 79, 84
1, 44976, Note_on_c, 1, 55, 61
1, 44976, Note_on_c, 1, 50, 61
1, 44976, Note_on_c, 1, 46, 61
1, 44996, Note_on_c, 1, 55, 0
1, 44996, Note_on_c, 1, 50, 0
1, 44996, Note_on_c, 1, 46, 0
1, 45024, Note_on_c, 1, 55, 61
1, 45024, Note_on_c, 1, 50, 61
1, 45024, Note_on_c, 1, 46, 61
1, 45061, Note_on_c, 0, 79, 0
1, 45071, Note_on_c, 1, 55, 0
1, 45071, Note_on_c, 1, 50, 0
1, 45071, Note_on_c, 1, 46, 0
1, 45072, Note_on_c, 0, 84, 75
1, 45078, Note_on_c, 0, 84, 0
1, 45078, Note_on_c, 0, 82, 75
1, 45095, Note_on_c, 0, 82, 0
1, 45096, Note_on_c, 0, 80, 75
1, 45119, Note_on_c, 0, 80, 0
1, 45120, Note_on_c, 0, 80, 75
1, 45144, Note_on_c, 1, 58, 69
1, 45167, Note_on_c, 1, 58, 0
1, 45168, Note_on_c, 1, 62, 69
1, 45191, Note_on_c, 1, 62, 0
1, 45192, Note_on_c, 1, 65, 69
1, 45215, Note_on_c, 1, 65, 0
1, 45216, Note_on_c, 1, 58, 69
1, 45253, Note_on_c, 0, 80, 0
1, 45261, Note_on_c, 1, 58, 0
1, 45264, Note_on_c, 0, 82, 75
1, 45270, Note_on_c, 0, 82, 0
1, 45270, Note_on_c, 0, 80, 75
1, 45287, Note_on_c, 0, 80, 0
1, 45288, Note_on_c, 0, 79, 75
1, 45311, Note_on_c, 0, 79, 0
1, 45312, Note_on_c, 0, 79, 75
1, 45336, Note_on_c, 1, 58, 69
1, 45359, Note_on_c, 1, 58, 0
1, 45360, Note_on_c, 1, 63, 69
1, 45383, Note_on_c, 1, 63, 0
1, 45384, Note_on_c, 1, 67, 69
1, 45407, Note_on_c, 1, 67, 0
1, 45408, Note_on_c, 1, 58, 69
1, 45445, Note_on_c, 0, 79, 0
1, 45453, Note_on_c, 1, 58, 0
1, 45456, Note_on_c, 0, 84, 75
1, 45462, Note_on_c, 0, 84, 0
1, 45462, Note_on_c, 0, 82, 75
1, 45479, Note_on_c, 0, 82, 0
1, 45480, Note_on_c, 0, 80, 75
1, 45503, Note_on_c, 0, 80, 0
1, 45504, Note_on_c, 0, 80, 75
1, 45528, Note_on_c, 1, 58, 69
1, 45551, Note_on_c, 1, 58, 0
1, 45552, Note_on_c, 1, 62, 69
1, 45575, Note_on_c, 1, 62, 0
1, 45576, Note_on_c, 1, 65, 69
1, 45599, Note_on_c, 1, 65, 0
1, 45600, Note_on_c, 1, 58, 69
1, 45637, Note_on_c, 0, 80, 0
1, 45645, Note_on_c, 1, 58, 0
1, 45648, Note_on_c, 0, 82, 75
1, 45654, Note_on_c, 0, 82, 0
1, 45654, Note_on_c, 0, 80, 75
1, 45671, Note_on_c, 0, 80, 0
1, 45672, Note_on_c, 0, 79, 75
1, 45695, Note_on_c, 0, 79, 0
1, 45696, Note_on_c, 0, 79, 75
1, 45720, Note_on_c, 1, 59, 69
1, 45743, Note_on_c, 1, 59, 0
1, 45744, Note_on_c, 1, 62, 69
1, 45767, Note_on_c, 1, 62, 0
1, 45768, Note_on_c, 1, 67, 69
1, 45791, Note_on_c, 1, 67, 0
1, 45792, Note_on_c, 1, 59, 69
1, 45829, Note_on_c, 0, 79, 0
1, 45837, Note_on_c, 1, 59, 0
1, 45840, Note_on_c, 0, 82, 75
1, 45846, Note_on_c, 0, 82, 0
1, 45846, Note_on_c, 0, 80, 75
1, 45863, Note_on_c, 0, 80, 0
1, 45864, Note_on_c, 0, 79, 75
1, 45887, Note_on_c, 0, 79, 0
1, 45888, Note_on_c, 0, 79, 75
1, 45912, Note_on_c, 1, 60, 69
1, 45935, Note_on_c, 1, 60, 0
1, 45936, Note_on_c, 1, 63, 69
1, 45959, Note_on_c, 1, 63, 0
1, 45960, Note_on_c, 1, 67, 69
1, 45983, Note_on_c, 1, 67, 0
1, 45984, Note_on_c, 1, 60, 69
1, 46021, Note_on_c, 0, 79, 0
1, 46029, Note_on_c, 1, 60, 0
1, 46032, Note_on_c, 0, 82, 75
1, 46038, Note_on_c, 0, 82, 0
1, 46038, Note_on_c, 0, 80, 75
1, 46055, Note_on_c, 0, 80, 0
1, 46056, Note_on_c, 0, 79, 75
1, 46079, Note_on_c, 0, 79, 0
1, 46080, Note_on_c, 0, 79, 75
1, 46104, Note_on_c, 1, 56, 69
1, 46127, Note_on_c, 1, 56, 0
1, 46128, Note_on_c, 1, 60, 69
1, 46151, Note_on_c, 1, 60, 0
1, 46152, Note_on_c, 1, 63, 69
1, 46175, Note_on_c, 1, 63, 0
1, 46176, Note_on_c, 0, 79, 0
1, 46176, Note_on_c, 0, 78, 75
1, 46176, Note_on_c, 1, 68, 69
1, 46199, Note_on_c, 0, 78, 0
1, 46200, Note_on_c, 0, 72, 75
1, 46221, Note_on_c, 1, 68, 0
1, 46223, Note_on_c, 0, 72, 0
1, 46224, Note_on_c, 0, 84, 75
1, 46247, Note_on_c, 0, 84, 0
1, 46248, Note_on_c, 0, 78, 75
1, 46271, Note_on_c, 0, 78, 0
1, 46272, Note_on_c, 0, 79, 75
1, 46296, Note_on_c, 1, 67, 69
1, 46317, Note_on_c, 0, 79, 0
1, 46319, Note_on_c, 1, 67, 0
1, 46320, Note_on_c, 1, 62, 69
1, 46343, Note_on_c, 1, 62, 0
1, 46344, Note_on_c, 1, 59, 69
1, 46367, Note_on_c, 1, 59, 0
1, 46368, Note_on_c, 1, 55, 69
1, 46413, Note_on_c, 1, 55, 0
1, 46416, Note_on_c, 0, 79, 75
1, 46428, Note_on_c, 0, 79, 0
1, 46428, Note_on_c, 0, 75, 75
1, 46440, Note_on_c, 0, 75, 0
1, 46440, Note_on_c, 0, 72, 75
1, 46452, Note_on_c, 0, 72, 0
1, 46452, Note_on_c, 0, 67, 75
1, 46458, Note_on_c, 0, 67, 0
1, 46458, Note_on_c, 0, 63, 75
1, 46464, Note_on_c, 0, 63, 0
1, 46464, Note_on_c, 1, 60, 75
1, 46484, Note_on_c, 1, 60, 0
1, 46512, Note_on_c, 0, 84, 75
1, 46512, Note_on_c, 1, 79, 75
1, 46512, Note_on_c, 1, 75, 75
1, 46527, Note_on_c, 0, 84, 0
1, 46528, Note_on_c, 0, 86, 75
1, 46543, Note_on_c, 0, 86, 0
1, 46544, Note_on_c, 0, 84, 75
1, 46559, Note_on_c, 0, 84, 0
1, 46560, Note_on_c, 0, 83, 75
1, 46560, Note_on_c, 1, 79, 0
1, 46560, Note_on_c, 1, 75, 0
1, 46560, Note_on_c, 1, 77, 75
1, 46560, Note_on_c, 1, 74, 75
1, 46580, Note_on_c, 0, 83, 0
1, 46605, Note_on_c, 1, 77, 0
1, 46605, Note_on_c, 1, 74, 0
1, 46608, Note_on_c, 0, 79, 75
1, 46620, Note_on_c, 0, 79, 0
1, 46620, Note_on_c, 0, 75, 75
1, 46632, Note_on_c, 0, 75, 0
1, 46632, Note_on_c, 0, 72, 75
1, 46644, Note_on_c, 0, 72, 0
1, 46644, Note_on_c, 0, 67, 75
1, 46650, Note_on_c, 0, 67, 0
1, 46650, Note_on_c, 0, 63, 75
1, 46656, Note_on_c, 0, 63, 0
1, 46656, Note_on_c, 1, 60, 75
1, 46676, Note_on_c, 1, 60, 0
1, 46704, Note_on_c, 0, 75, 75
1, 46704, Note_on_c, 1, 72, 75
1, 46704, Note_on_c, 1, 66, 75
1, 46711, Note_on_c, 0, 75, 0
1, 46711, Note_on_c, 0, 77, 75
1, 46718, Note_on_c, 0, 77, 0
1, 46718, Note_on_c, 0, 75, 75
1, 46725, Note_on_c, 0, 75, 0
1, 46725, Note_on_c, 0, 77, 75
1, 46732, Note_on_c, 0, 77, 0
1, 46732, Note_on_c, 0, 75, 75
1, 46739, Note_on_c, 0, 75, 0
1, 46739, Note_on_c, 0, 74, 75
1, 46746, Note_on_c, 0, 74, 0
1, 46746, Note_on_c, 0, 75, 75
1, 46752, Note_on_c, 0, 75, 0
1, 46752, Note_on_c, 0, 74, 75
1, 46752, Note_on_c, 1, 72, 0
1, 46752, Note_on_c, 1, 66, 0
1, 46752, Note_on_c, 1, 71, 75
1, 46752, Note_on_c, 1, 67, 75
1, 46797, Note_on_c, 0, 74, 0
1, 46797, Note_on_c, 1, 71, 0
1, 46797, Note_on_c, 1, 67, 0
1, 46800, Note_on_c, 0, 79, 69
1, 46812, Note_on_c, 0, 79, 0
1, 46812, Note_on_c, 0, 75, 69
1, 46824, Note_on_c, 0, 75, 0
1, 46824, Note_on_c, 0, 72, 69
1, 46836, Note_on_c, 0, 72, 0
1, 46836, Note_on_c, 0, 67, 69
1, 46842, Note_on_c, 0, 67, 0
1, 46842, Note_on_c, 0, 63, 69
1, 46848, Note_on_c, 0, 63, 0
1, 46848, Note_on_c, 1, 60, 69
1, 46868, Note_on_c, 1, 60, 0
1, 46896, Note_on_c, 0, 84, 69
1, 46896, Note_on_c, 1, 79, 69
1, 46896, Note_on_c, 1, 75, 69
1, 46911, Note_on_c, 0, 84, 0
1, 46912, Note_on_c, 0, 86, 69
1, 46927, Note_on_c, 0, 86, 0
1, 46928, Note_on_c, 0, 84, 69
1, 46943, Note_on_c, 0, 84, 0
1, 46944, Note_on_c, 0, 83, 69
1, 46944, Note_on_c, 1, 79, 0
1, 46944, Note_on_c, 1, 75, 0
1, 46944, Note_on_c, 1, 77, 69
1, 46944, Note_on_c, 1, 74, 69
1, 46964, Note_on_c, 0, 83, 0
1, 46989, Note_on_c, 1, 77, 0
1, 46989, Note_on_c, 1, 74, 0
1, 46992, Note_on_c, 0, 79, 69
1, 47004, Note_on_c, 0, 79, 0
1, 47004, Note_on_c, 0, 75, 69
1, 47016, Note_on_c, 0, 75, 0
1, 47016, Note_on_c, 0, 72, 69
1, 47028, Note_on_c, 0, 72, 0
1, 47028, Note_on_c, 0, 67, 69
1, 47034, Note_on_c, 0, 67, 0
1, 47034, Note_on_c, 0, 63, 69
1, 47040, Note_on_c, 0, 63, 0
1, 47040, Note_on_c, 1, 60, 69
1, 47060, Note_on_c, 1, 60, 0
1, 47088, Note_on_c, 0, 75, 69
1, 47088, Note_on_c, 1, 72, 69
1, 47088, Note_on_c, 1, 66, 69
1, 47095, Note_on_c, 0, 75, 0
1, 47095, Note_on_c, 0, 77, 69
1, 47102, Note_on_c, 0, 77, 0
1, 47102, Note_on_c, 0, 75, 69
1, 47109, Note_on_c, 0, 75, 0
1, 47109, Note_on_c, 0, 77, 69
1, 47116, Note_on_c, 0, 77, 0
1, 47116, Note_on_c, 0, 75, 69
1, 47123, Note_on_c, 0, 75, 0
1, 47123, Note_on_c, 0, 74, 69
1, 47130, Note_on_c, 0, 74, 0
1, 47130, Note_on_c, 0, 75, 69
1, 47136, Note_on_c, 0, 75, 0
1, 47136, Note_on_c, 0, 74, 69
1, 47136, Note_on_c, 1, 72, 0
1, 47136, Note_on_c, 1, 66, 0
1, 47136, Note_on_c, 1, 71, 69
1, 47136, Note_on_c, 1, 67, 69
1, 47181, Note_on_c, 0, 74, 0
1, 47181, Note_on_c, 1, 71, 0
1, 47181, Note_on_c, 1, 67, 0
1, 47184, Note_on_c, 0, 79, 84
1, 47184, Note_on_c, 1, 60, 84
1, 47196, Note_on_c, 0, 79, 0
1, 47196, Note_on_c, 0, 75, 84
1, 47208, Note_on_c, 0, 75, 0
1, 47208, Note_on_c, 0, 72, 84
1, 47220, Note_on_c, 0, 72, 0
1, 47220, Note_on_c, 0, 67, 84
1, 47229, Note_on_c, 1, 60, 0
1, 47232, Note_on_c, 0, 67, 0
1, 47232, Note_on_c, 1, 68, 84
1, 47244, Note_on_c, 0, 72, 85
1, 47256, Note_on_c, 0, 72, 0
1, 47256, Note_on_c, 0, 74, 87
1, 47268, Note_on_c, 0, 74, 0
1, 47268, Note_on_c, 0, 75, 89
1, 47280, Note_on_c, 0, 75, 0
1, 47280, Note_on_c, 0, 77, 91
1, 47292, Note_on_c, 0, 77, 0
1, 47292, Note_on_c, 0, 79, 93
1, 47304, Note_on_c, 0, 79, 0
1, 47304, Note_on_c, 0, 80, 95
1, 47316, Note_on_c, 0, 80, 0
1, 47316, Note_on_c, 0, 82, 96
1, 47321, Note_on_c, 1, 68, 0
1, 47328, Note_on_c, 0, 82, 0
1, 47328, Note_on_c, 0, 84, 98
1, 47348, Note_on_c, 0, 84, 0
1, 47376, Note_on_c, 0, 77, 106
1, 47376, Note_on_c, 1, 58, 84
1, 47388, Note_on_c, 0, 77, 0
1, 47388, Note_on_c, 0, 74, 100
1, 47400, Note_on_c, 0, 74, 0
1, 47400, Note_on_c, 0, 70, 95
1, 47412, Note_on_c, 0, 70, 0
1, 47412, Note_on_c, 0, 65, 89
1, 47421, Note_on_c, 1, 58, 0
1, 47424, Note_on_c, 0, 65, 0
1, 47424, Note_on_c, 1, 67, 84
1, 47436, Note_on_c, 0, 70, 84
1, 47448, Note_on_c, 0, 70, 0
1, 47448, Note_on_c, 0, 72, 86
1, 47460, Note_on_c, 0, 72, 0
1, 47460, Note_on_c, 0, 74, 88
1, 47472, Note_on_c, 0, 74, 0
1, 47472, Note_on_c, 0, 75, 91
1, 47484, Note_on_c, 0, 75, 0
1, 47484, Note_on_c, 0, 77, 93
1, 47496, Note_on_c, 0, 77, 0
1, 47496, Note_on_c, 0, 79, 96
1, 47508, Note_on_c, 0, 79, 0
1, 47508, Note_on_c, 0, 80, 98
1, 47513, Note_on_c, 1, 67, 0
1, 47520, Note_on_c, 0, 80, 0
1, 47520, Note_on_c, 0, 82, 101
1, 47543, Note_on_c, 0, 82, 0
1, 47952, Note_on_c, 0, 58, 75
1, 47967, Note_on_c, 0, 58, 0
1, 47968, Note_on_c, 0, 60, 75
1, 47983, Note_on_c, 0, 60, 0
1, 47984, Note_on_c, 0, 58, 75
1, 47999, Note_on_c, 0, 58, 0
1, 48000, Note_on_c, 0, 63, 75
1, 48020, Note_on_c, 0, 63, 0
1, 48048, Note_on_c, 0, 62, 75
1, 48068, Note_on_c, 0, 62, 0
1, 48096, Note_on_c, 0, 60, 75
1, 48116, Note_on_c, 0, 60, 0
1, 48144, Note_on_c, 0, 58, 75
1, 48164, Note_on_c, 0, 58, 0
1, 48192, Note_on_c, 0, 57, 75
1, 48240, Note_on_c, 1, 53, 75
1, 48240, Note_on_c, 1, 51, 84
1, 48285, Note_on_c, 1, 51, 0
1, 48288, Note_on_c, 0, 57, 0
1, 48288, Note_on_c, 0, 58, 75
1, 48288, Note_on_c, 1, 50, 84
1, 48308, Note_on_c, 0, 58, 0
1, 48329, Note_on_c, 1, 53, 0
1, 48333, Note_on_c, 1, 50, 0
1, 48336, Note_on_c, 0, 58, 75
1, 48351, Note_on_c, 0, 58, 0
1, 48352, Note_on_c, 0, 60, 75
1, 48367, Note_on_c, 0, 60, 0
1, 48368, Note_on_c, 0, 58, 75
1, 48383, Note_on_c, 0, 58, 0
1, 48384, Note_on_c, 0, 65, 75
1, 48404, Note_on_c, 0, 65, 0
1, 48432, Note_on_c, 0, 63, 75
1, 48452, Note_on_c, 0, 63, 0
1, 48480, Note_on_c, 0, 62, 75
1, 48500, Note_on_c, 0, 62, 0
1, 48528, Note_on_c, 0, 60, 75
1, 48548, Note_on_c, 0, 60, 0
1, 48576, Note_on_c, 0, 59, 75
1, 48624, Note_on_c, 1, 55, 75
1, 48624, Note_on_c, 1, 53, 84
1, 48669, Note_on_c, 1, 53, 0
1, 48672, Note_on_c, 0, 59, 0
1, 48672, Note_on_c, 0, 60, 75
1, 48672, Note_on_c, 1, 51, 84
1, 48692, Note_on_c, 0, 60, 0
1, 48713, Note_on_c, 1, 55, 0
1, 48717, Note_on_c, 1, 51, 0
1, 48720, Note_on_c, 0, 60, 75
1, 48735, Note_on_c, 0, 60, 0
1, 48736, Note_on_c, 0, 62, 75
1, 48751, Note_on_c, 0, 62, 0
1, 48752, Note_on_c, 0, 60, 75
1, 48767, Note_on_c, 0, 60, 0
1, 48768, Note_on_c, 0, 67, 75
1, 48788, Note_on_c, 0, 67, 0
1, 48816, Note_on_c, 0, 65, 75
1, 48836, Note_on_c, 0, 65, 0
1, 48864, Note_on_c, 0, 63, 75
1, 48884, Note_on_c, 0, 63, 0
1, 48912, Note_on_c, 0, 62, 75
1, 48912, Note_on_c, 1, 55, 84
1, 48927, Note_on_c, 1, 55, 0
1, 48928, Note_on_c, 1, 56, 84
1, 48932, Note_on_c, 0, 62, 0
1, 48943, Note_on_c, 1, 56, 0
1, 48944, Note_on_c, 1, 55, 84
1, 48959, Note_on_c, 1, 55, 0
1, 48960, Note_on_c, 0, 63, 75
1, 48960, Note_on_c, 1, 60, 75
1, 48960, Note_on_c, 1, 60, 84
1, 48980, Note_on_c, 1, 60, 0
1, 49005, Note_on_c, 0, 63, 0
1, 49008, Note_on_c, 0, 64, 75
1, 49008, Note_on_c, 1, 58, 84
1, 49028, Note_on_c, 1, 58, 0
1, 49053, Note_on_c, 0, 64, 0
1, 49056, Note_on_c, 0, 65, 76
1, 49056, Note_on_c, 1, 56, 84
1, 49076, Note_on_c, 1, 56, 0
1, 49101, Note_on_c, 0, 65, 0
1, 49101, Note_on_c, 1, 60, 0
1, 49104, Note_on_c, 0, 67, 77
1, 49104, Note_on_c, 0, 64, 75
1, 49104, Note_on_c, 1, 60, 75
1, 49104, Note_on_c, 1, 58, 84
1, 49104, Note_on_c, 1, 55, 84
1, 49119, Note_on_c, 0, 67, 0
1, 49120, Note_on_c, 0, 68, 77
1, 49124, Note_on_c, 1, 58, 0
1, 49124, Note_on_c, 1, 55, 0
1, 49135, Note_on_c, 0, 68, 0
1, 49136, Note_on_c, 0, 67, 77
1, 49149, Note_on_c, 0, 64, 0
1, 49149, Note_on_c, 1, 60, 0
1, 49151, Note_on_c, 0, 67, 0
1, 49152, Note_on_c, 0, 72, 78
1, 49152, Note_on_c, 0, 65, 75
1, 49152, Note_on_c, 1, 60, 75
1, 49152, Note_on_c, 1, 56, 75
1, 49152, Note_on_c, 1, 53, 75
1, 49172, Note_on_c, 0, 72, 0
1, 49197, Note_on_c, 0, 65, 0
1, 49197, Note_on_c, 1, 60, 0
1, 49197, Note_on_c, 1, 56, 0
1, 49197, Note_on_c, 1, 53, 0
1, 49200, Note_on_c, 0, 72, 78
1, 49200, Note_on_c, 0, 69, 75
1, 49200, Note_on_c, 1, 65, 75
1, 49200, Note_on_c, 1, 63, 75
1, 49215, Note_on_c, 0, 72, 0
1, 49216, Note_on_c, 0, 74, 79
1, 49231, Note_on_c, 0, 74, 0
1, 49232, Note_on_c, 0, 72, 79
1, 49245, Note_on_c, 0, 69, 0
1, 49245, Note_on_c, 1, 65, 0
1, 49245, Note_on_c, 1, 63, 0
1, 49247, Note_on_c, 0, 72, 0
1, 49248, Note_on_c, 0, 77, 79
1, 49248, Note_on_c, 0, 70, 75
1, 49248, Note_on_c, 1, 65, 75
1, 49248, Note_on_c, 1, 62, 75
1, 49268, Note_on_c, 0, 77, 0
1, 49293, Note_on_c, 0, 70, 0
1, 49293, Note_on_c, 1, 65, 0
1, 49293, Note_on_c, 1, 62, 0
1, 49296, Note_on_c, 0, 77, 80
1, 49296, Note_on_c, 0, 72, 75
1, 49296, Note_on_c, 1, 69, 75
1, 49296, Note_on_c, 1, 65, 75
1, 49296, Note_on_c, 1, 63, 75
1, 49296, Note_on_c, 1, 60, 75
1, 49311, Note_on_c, 0, 77, 0
1, 49312, Note_on_c, 0, 79, 80
1, 49327, Note_on_c, 0, 79, 0
1, 49328, Note_on_c, 0, 77, 80
1, 49341, Note_on_c, 0, 72, 0
1, 49341, Note_on_c, 1, 69, 0
1, 49341, Note_on_c, 1, 65, 0
1, 49341, Note_on_c, 1, 63, 0
1, 49341, Note_on_c, 1, 60, 0
1, 49343, Note_on_c, 0, 77, 0
1, 49344, Note_on_c, 0, 82, 80
1, 49344, Note_on_c, 0, 74, 75
1, 49344, Note_on_c, 1, 70, 75
1, 49344, Note_on_c, 1, 65, 75
1, 49344, Note_on_c, 1, 62, 75
1, 49344, Note_on_c, 1, 58, 75
1, 49364, Note_on_c, 0, 82, 0
1, 49389, Note_on_c, 0, 74, 0
1, 49389, Note_on_c, 1, 70, 0
1, 49389, Note_on_c, 1, 65, 0
1, 49389, Note_on_c, 1, 62, 0
1, 49389, Note_on_c, 1, 58, 0
1, 49392, Note_on_c, 0, 82, 81
1, 49392, Note_on_c, 0, 77, 75
1, 49392, Note_on_c, 1, 65, 75
1, 49392, Note_on_c, 1, 62, 75
1, 49392, Note_on_c, 1, 58, 75
1, 49392, Note_on_c, 1, 56, 75
1, 49407, Note_on_c, 0, 82, 0
1, 49408, Note_on_c, 0, 84, 81
1, 49423, Note_on_c, 0, 84, 0
1, 49424, Note_on_c, 0, 82, 82
1, 49437, Note_on_c, 0, 77, 0
1, 49437, Note_on_c, 1, 65, 0
1, 49437, Note_on_c, 1, 62, 0
1, 49437, Note_on_c, 1, 58, 0
1, 49437, Note_on_c, 1, 56, 0
1, 49439, Note_on_c, 0, 82, 0
1, 49440, Note_on_c, 0, 87, 82
1, 49440, Note_on_c, 0, 75, 75
1, 49440, Note_on_c, 1, 67, 75
1, 49440, Note_on_c, 1, 63, 75
1, 49440, Note_on_c, 1, 58, 75
1, 49440, Note_on_c, 1, 55, 75
1, 49460, Note_on_c, 0, 87, 0
1, 49485, Note_on_c, 0, 75, 0
1, 49485, Note_on_c, 1, 67, 0
1, 49485, Note_on_c, 1, 63, 0
1, 49485, Note_on_c, 1, 58, 0
1, 49485, Note_on_c, 1, 55, 0
1, 49488, Note_on_c, 0, 86, 84
1, 49488, Note_on_c, 1, 75, 75
1, 49503, Note_on_c, 1, 75, 0
1, 49504, Note_on_c, 1, 77, 75
1, 49508, Note_on_c, 0, 86, 0
1, 49519, Note_on_c, 1, 77, 0
1, 49520, Note_on_c, 1, 75, 75
1, 49535, Note_on_c, 1, 75, 0
1, 49536, Note_on_c, 0, 84, 84
1, 49536, Note_on_c, 1, 80, 75
1, 49556, Note_on_c, 0, 84, 0
1, 49556, Note_on_c, 1, 80, 0
1, 49584, Note_on_c, 0, 82, 82
1, 49584, Note_on_c, 0, 79, 75
1, 49584, Note_on_c, 1, 72, 75
1, 49599, Note_on_c, 1, 72, 0
1, 49600, Note_on_c, 1, 73, 75
1, 49604, Note_on_c, 0, 82, 0
1, 49604, Note_on_c, 0, 79, 0
1, 49615, Note_on_c, 1, 73, 0
1, 49616, Note_on_c, 1, 72, 75
1, 49631, Note_on_c, 1, 72, 0
1, 49632, Note_on_c, 0, 80, 81
1, 49632, Note_on_c, 0, 77, 75
1, 49632, Note_on_c, 1, 77, 75
1, 49652, Note_on_c, 0, 80, 0
1, 49652, Note_on_c, 0, 77, 0
1, 49652, Note_on_c, 1, 77, 0
1, 49680, Note_on_c, 0, 80, 80
1, 49680, Note_on_c, 0, 77, 75
1, 49680, Note_on_c, 1, 58, 75
1, 49695, Note_on_c, 1, 58, 0
1, 49696, Note_on_c, 1, 60, 75
1, 49700, Note_on_c, 0, 80, 0
1, 49700, Note_on_c, 0, 77, 0
1, 49711, Note_on_c, 1, 60, 0
1, 49712, Note_on_c, 1, 58, 75
1, 49727, Note_on_c, 1, 58, 0
1, 49728, Note_on_c, 0, 79, 79
1, 49728, Note_on_c, 0, 77, 75
1, 49728, Note_on_c, 1, 63, 84
1, 49776, Note_on_c, 1, 70, 75
1, 49791, Note_on_c, 1, 70, 0
1, 49792, Note_on_c, 1, 72, 75
1, 49807, Note_on_c, 1, 72, 0
1, 49808, Note_on_c, 1, 70, 75
1, 49817, Note_on_c, 0, 77, 0
1, 49823, Note_on_c, 1, 70, 0
1, 49824, Note_on_c, 0, 75, 75
1, 49844, Note_on_c, 0, 75, 0
1, 49872, Note_on_c, 0, 74, 75
1, 49892, Note_on_c, 0, 74, 0
1, 49920, Note_on_c, 0, 73, 75
1, 49968, Note_on_c, 1, 67, 75
1, 49983, Note_on_c, 1, 67, 0
1, 49984, Note_on_c, 1, 69, 75
1, 49999, Note_on_c, 1, 69, 0
1, 50000, Note_on_c, 1, 67, 75
1, 50015, Note_on_c, 1, 67, 0
1, 50016, Note_on_c, 1, 70, 75
1, 50036, Note_on_c, 1, 70, 0
1, 50053, Note_on_c, 0, 79, 0
1, 50053, Note_on_c, 0, 73, 0
1, 50064, Note_on_c, 0, 73, 75
1, 50064, Note_on_c, 0, 70, 75
1, 50064, Note_on_c, 1, 67, 75
1, 50097, Note_on_c, 1, 63, 0
1, 50109, Note_on_c, 0, 73, 0
1, 50112, Note_on_c, 0, 74, 75
1, 50112, Note_on_c, 1, 62, 84
1, 50157, Note_on_c, 0, 70, 0
1, 50157, Note_on_c, 1, 67, 0
1, 50160, Note_on_c, 0, 69, 75
1, 50160, Note_on_c, 1, 66, 75
1, 50180, Note_on_c, 0, 69, 0
1, 50201, Note_on_c, 0, 74, 0
1, 50201, Note_on_c, 1, 62, 0
1, 50205, Note_on_c, 1, 66, 0
1, 50256, Note_on_c, 0, 62, 75
1, 50271, Note_on_c, 0, 62, 0
1, 50272, Note_on_c, 0, 63, 75
1, 50287, Note_on_c, 0, 63, 0
1, 50288, Note_on_c, 0, 62, 75
1, 50303, Note_on_c, 0, 62, 0
1, 50304, Note_on_c, 0, 67, 75
1, 50324, Note_on_c, 0, 67, 0
1, 50352, Note_on_c, 0, 65, 75
1, 50372, Note_on_c, 0, 65, 0
1, 50400, Note_on_c, 0, 63, 75
1, 50420, Note_on_c, 0, 63, 0
1, 50448, Note_on_c, 0, 62, 75
1, 50468, Note_on_c, 0, 62, 0
1, 50496, Note_on_c, 0, 61, 75
1, 50544, Note_on_c, 1, 57, 75
1, 50544, Note_on_c, 1, 55, 84
1, 50589, Note_on_c, 1, 55, 0
1, 50592, Note_on_c, 0, 61, 0
1, 50592, Note_on_c, 0, 62, 75
1, 50592, Note_on_c, 1, 54, 84
1, 50612, Note_on_c, 0, 62, 0
1, 50612, Note_on_c, 1, 54, 0
1, 50640, Note_on_c, 0, 62, 75
1, 50640, Note_on_c, 1, 57, 0
1, 50640, Note_on_c, 1, 54, 75
1, 50640, Note_on_c, 1, 50, 84
1, 50652, Note_on_c, 0, 62, 0
1, 50652, Note_on_c, 0, 60, 75
1, 50664, Note_on_c, 0, 60, 0
1, 50664, Note_on_c, 0, 58, 75
1, 50676, Note_on_c, 0, 58, 0
1, 50676, Note_on_c, 0, 60, 75
1, 50685, Note_on_c, 1, 54, 0
1, 50685, Note_on_c, 1, 50, 0
1, 50688, Note_on_c, 0, 60, 0
1, 50688, Note_on_c, 0, 58, 75
1, 50688, Note_on_c, 1, 55, 75
1, 50727, Note_on_c, 1, 55, 0
1, 50736, Note_on_c, 0, 58, 0
1, 50736, Note_on_c, 0, 62, 75
1, 50781, Note_on_c, 0, 62, 0
1, 50784, Note_on_c, 1, 48, 75
1, 50823, Note_on_c, 1, 48, 0
1, 50832, Note_on_c, 0, 63, 75
1, 50852, Note_on_c, 0, 63, 0
1, 50880, Note_on_c, 0, 55, 75
1, 50928, Note_on_c, 1, 50, 75
1, 50973, Note_on_c, 1, 50, 0
1, 50976, Note_on_c, 0, 55, 0
1, 50976, Note_on_c, 0, 54, 75
1, 50976, Note_on_c, 1, 38, 75
1, 51021, Note_on_c, 0, 54, 0
1, 51021, Note_on_c, 1, 38, 0
1, 51024, Note_on_c, 0, 74, 75
1, 51039, Note_on_c, 0, 74, 0
1, 51040, Note_on_c, 0, 75, 75
1, 51055, Note_on_c, 0, 75, 0
1, 51056, Note_on_c, 0, 74, 75
1, 51071, Note_on_c, 0, 74, 0
1, 51072, Note_on_c, 0, 79, 75
1, 51092, Note_on_c, 0, 79, 0
1, 51120, Note_on_c, 0, 77, 75
1, 51140, Note_on_c, 0, 77, 0
1, 51168, Note_on_c, 0, 75, 75
1, 51168, Note_on_c, 0, 82, 96
1, 51168, Note_on_c, 1, 67, 96
1, 51188, Note_on_c, 0, 75, 0
1, 51216, Note_on_c, 0, 74, 75
1, 51236, Note_on_c, 0, 74, 0
1, 51264, Note_on_c, 0, 73, 75
1, 51309, Note_on_c, 0, 82, 0
1, 51312, Note_on_c, 0, 81, 75
1, 51345, Note_on_c, 1, 67, 0
1, 51353, Note_on_c, 0, 73, 0
1, 51360, Note_on_c, 0, 74, 75
1, 51360, Note_on_c, 1, 65, 75
1, 51405, Note_on_c, 0, 74, 0
1, 51408, Note_on_c, 0, 72, 75
1, 51445, Note_on_c, 0, 81, 0
1, 51453, Note_on_c, 0, 72, 0
1, 51456, Note_on_c, 0, 71, 75
1, 51456, Note_on_c, 0, 80, 91
1, 51504, Note_on_c, 0, 80, 0
1, 51504, Note_on_c, 0, 79, 75
1, 51545, Note_on_c, 0, 71, 0
1, 51545, Note_on_c, 1, 65, 0
1, 51552, Note_on_c, 0, 72, 75
1, 51552, Note_on_c, 1, 63, 75
1, 51597, Note_on_c, 0, 72, 0
1, 51600, Note_on_c, 0, 70, 75
1, 51637, Note_on_c, 0, 79, 0
1, 51645, Note_on_c, 0, 70, 0
1, 51648, Note_on_c, 0, 69, 75
1, 51648, Note_on_c, 0, 78, 91
1, 51696, Note_on_c, 0, 78, 0
1, 51696, Note_on_c, 0, 77, 75
1, 51737, Note_on_c, 0, 69, 0
1, 51744, Note_on_c, 0, 70, 75
1, 51789, Note_on_c, 1, 63, 0
1, 51792, Note_on_c, 1, 62, 75
1, 51829, Note_on_c, 0, 77, 0
1, 51837, Note_on_c, 1, 62, 0
1, 51840, Note_on_c, 0, 75, 75
1, 51840, Note_on_c, 1, 60, 75
1, 51885, Note_on_c, 0, 70, 0
1, 51885, Note_on_c, 1, 60, 0
1, 51888, Note_on_c, 0, 69, 75
1, 51888, Note_on_c, 1, 65, 75
1, 51929, Note_on_c, 0, 75, 0
1, 51933, Note_on_c, 1, 65, 0
1, 51936, Note_on_c, 0, 74, 75
1, 51936, Note_on_c, 1, 58, 75
1, 51977, Note_on_c, 0, 69, 0
1, 51981, Note_on_c, 1, 58, 0
1, 51984, Note_on_c, 0, 67, 75
1, 51984, Note_on_c, 1, 63, 75
1, 52025, Note_on_c, 0, 74, 0
1, 52029, Note_on_c, 1, 63, 0
1, 52032, Note_on_c, 0, 72, 75
1, 52032, Note_on_c, 1, 57, 75
1, 52073, Note_on_c, 0, 67, 0
1, 52077, Note_on_c, 1, 57, 0
1, 52080, Note_on_c, 0, 66, 75
1, 52080, Note_on_c, 1, 62, 75
1, 52125, Note_on_c, 0, 66, 0
1, 52125, Note_on_c, 1, 62, 0
1, 52128, Note_on_c, 0, 67, 75
1, 52128, Note_on_c, 1, 55, 75
1, 52165, Note_on_c, 0, 72, 0
1, 52173, Note_on_c, 1, 55, 0
1, 52176, Note_on_c, 0, 70, 75
1, 52176, Note_on_c, 1, 61, 75
1, 52221, Note_on_c, 1, 61, 0
1, 52224, Note_on_c, 1, 62, 75
1, 52269, Note_on_c, 0, 67, 0
1, 52269, Note_on_c, 0, 70, 0
1, 52269, Note_on_c, 1, 62, 0
1, 52272, Note_on_c, 0, 66, 75
1, 52272, Note_on_c, 0, 69, 75
1, 52272, Note_on_c, 1, 50, 75
1, 52317, Note_on_c, 0, 66, 0
1, 52317, Note_on_c, 0, 69, 0
1, 52317, Note_on_c, 1, 50, 0
1, 52368, Note_on_c, 0, 74, 84
1, 52380, Note_on_c, 0, 74, 0
1, 52380, Note_on_c, 0, 70, 84
1, 52392, Note_on_c, 0, 70, 0
1, 52392, Note_on_c, 0, 67, 84
1, 52404, Note_on_c, 0, 67, 0
1, 52404, Note_on_c, 0, 62, 84
1, 52410, Note_on_c, 0, 62, 0
1, 52410, Note_on_c, 0, 58, 84
1, 52416, Note_on_c, 0, 58, 0
1, 52416, Note_on_c, 0, 55, 84
1, 52436, Note_on_c, 0, 55, 0
1, 52464, Note_on_c, 0, 79, 84
1, 52464, Note_on_c, 1, 74, 84
1, 52464, Note_on_c, 1, 70, 84
1, 52479, Note_on_c, 0, 79, 0
1, 52480, Note_on_c, 0, 81, 84
1, 52495, Note_on_c, 0, 81, 0
1, 52496, Note_on_c, 0, 79, 84
1, 52511, Note_on_c, 0, 79, 0
1, 52512, Note_on_c, 0, 78, 84
1, 52512, Note_on_c, 1, 74, 0
1, 52512, Note_on_c, 1, 70, 0
1, 52512, Note_on_c, 1, 72, 84
1, 52512, Note_on_c, 1, 69, 84
1, 52532, Note_on_c, 0, 78, 0
1, 52557, Note_on_c, 1, 72, 0
1, 52557, Note_on_c, 1, 69, 0
1, 52560, Note_on_c, 0, 74, 84
1, 52572, Note_on_c, 0, 74, 0
1, 52572, Note_on_c, 0, 70, 84
1, 52584, Note_on_c, 0, 70, 0
1, 52584, Note_on_c, 0, 67, 84
1, 52596, Note_on_c, 0, 67, 0
1, 52596, Note_on_c, 0, 62, 84
1, 52602, Note_on_c, 0, 62, 0
1, 52602, Note_on_c, 0, 58, 84
1, 52608, Note_on_c, 0, 58, 0
1, 52608, Note_on_c, 0, 55, 84
1, 52628, Note_on_c, 0, 55, 0
1, 52656, Note_on_c, 0, 70, 84
1, 52656, Note_on_c, 1, 67, 84
1, 52656, Note_on_c, 1, 61, 84
1, 52663, Note_on_c, 0, 70, 0
1, 52663, Note_on_c, 0, 72, 84
1, 52670, Note_on_c, 0, 72, 0
1, 52670, Note_on_c, 0, 70, 84
1, 52677, Note_on_c, 0, 70, 0
1, 52677, Note_on_c, 0, 72, 84
1, 52684, Note_on_c, 0, 72, 0
1, 52684, Note_on_c, 0, 70, 84
1, 52691, Note_on_c, 0, 70, 0
1, 52691, Note_on_c, 0, 69, 84
1, 52698, Note_on_c, 0, 69, 0
1, 52698, Note_on_c, 0, 70, 84
1, 52704, Note_on_c, 0, 70, 0
1, 52704, Note_on_c, 0, 69, 84
1, 52704, Note_on_c, 1, 67, 0
1, 52704, Note_on_c, 1, 61, 0
1, 52704, Note_on_c, 1, 66, 84
1, 52704, Note_on_c, 1, 62, 84
1, 52724, Note_on_c, 0, 69, 0
1, 52749, Note_on_c, 1, 66, 0
1, 52749, Note_on_c, 1, 62, 0
1, 52752, Note_on_c, 0, 74, 69
1, 52764, Note_on_c, 0, 74, 0
1, 52764, Note_on_c, 0, 70, 69
1, 52776, Note_on_c, 0, 70, 0
1, 52776, Note_on_c, 0, 67, 69
1, 52788, Note_on_c, 0, 67, 0
1, 52788, Note_on_c, 0, 62, 69
1, 52794, Note_on_c, 0, 62, 0
1, 52794, Note_on_c, 0, 58, 69
1, 52800, Note_on_c, 0, 58, 0
1, 52800, Note_on_c, 0, 55, 69
1, 52820, Note_on_c, 0, 55, 0
1, 52848, Note_on_c, 0, 79, 69
1, 52848, Note_on_c, 1, 74, 69
1, 52848, Note_on_c, 1, 70, 69
1, 52863, Note_on_c, 0, 79, 0
1, 52864, Note_on_c, 0, 81, 69
1, 52879, Note_on_c, 0, 81, 0
1, 52880, Note_on_c, 0, 79, 69
1, 52895, Note_on_c, 0, 79, 0
1, 52896, Note_on_c, 0, 78, 69
1, 52896, Note_on_c, 1, 74, 0
1, 52896, Note_on_c, 1, 70, 0
1, 52896, Note_on_c, 1, 72, 69
1, 52896, Note_on_c, 1, 69, 69
1, 52916, Note_on_c, 0, 78, 0
1, 52941, Note_on_c, 1, 72, 0
1, 52941, Note_on_c, 1, 69, 0
1, 52944, Note_on_c, 0, 74, 69
1, 52956, Note_on_c, 0, 74, 0
1, 52956, Note_on_c, 0, 70, 69
1, 52968, Note_on_c, 0, 70, 0
1, 52968, Note_on_c, 0, 67, 69
1, 52980, Note_on_c, 0, 67, 0
1, 52980, Note_on_c, 0, 62, 69
1, 52986, Note_on_c, 0, 62, 0
1, 52986, Note_on_c, 0, 58, 69
1, 52992, Note_on_c, 0, 58, 0
1, 52992, Note_on_c, 0, 55, 69
1, 53012, Note_on_c, 0, 55, 0
1, 53040, Note_on_c, 0, 70, 69
1, 53040, Note_on_c, 1, 67, 69
1, 53040, Note_on_c, 1, 61, 69
1, 53047, Note_on_c, 0, 70, 0
1, 53047, Note_on_c, 0, 72, 69
1, 53054, Note_on_c, 0, 72, 0
1, 53054, Note_on_c, 0, 70, 69
1, 53061, Note_on_c, 0, 70, 0
1, 53061, Note_on_c, 0, 72, 69
1, 53068, Note_on_c, 0, 72, 0
1, 53068, Note_on_c, 0, 70, 69
1, 53075, Note_on_c, 0, 70, 0
1, 53075, Note_on_c, 0, 69, 69
1, 53082, Note_on_c, 0, 69, 0
1, 53082, Note_on_c, 0, 70, 69
1, 53088, Note_on_c, 0, 70, 0
1, 53088, Note_on_c, 0, 69, 69
1, 53088, Note_on_c, 1, 67, 0
1, 53088, Note_on_c, 1, 61, 0
1, 53088, Note_on_c, 1, 66, 69
1, 53088, Note_on_c, 1, 62, 69
1, 53133, Note_on_c, 0, 69, 0
1, 53133, Note_on_c, 1, 66, 0
1, 53133, Note_on_c, 1, 62, 0
1, 53136, Note_on_c, 0, 74, 75
1, 53136, Note_on_c, 1, 55, 75
1, 53136, Note_on_c, 1, 46, 75
1, 53148, Note_on_c, 0, 74, 0
1, 53148, Note_on_c, 0, 70, 75
1, 53160, Note_on_c, 0, 70, 0
1, 53160, Note_on_c, 0, 67, 75
1, 53172, Note_on_c, 0, 67, 0
1, 53172, Note_on_c, 0, 62, 75
1, 53181, Note_on_c, 1, 46, 0
1, 53184, Note_on_c, 0, 62, 0
1, 53184, Note_on_c, 0, 63, 75
1, 53184, Note_on_c, 1, 48, 75
1, 53207, Note_on_c, 0, 63, 0
1, 53208, Note_on_c, 0, 75, 75
1, 53229, Note_on_c, 1, 55, 0
1, 53231, Note_on_c, 0, 75, 0
1, 53232, Note_on_c, 1, 51, 75
1, 53256, Note_on_c, 0, 74, 76
1, 53266, Note_on_c, 0, 74, 0
1, 53277, Note_on_c, 1, 51, 0
1, 53280, Note_on_c, 0, 72, 76
1, 53280, Note_on_c, 1, 57, 76
1, 53303, Note_on_c, 0, 72, 0
1, 53304, Note_on_c, 0, 70, 76
1, 53317, Note_on_c, 1, 48, 0
1, 53327, Note_on_c, 0, 70, 0
1, 53328, Note_on_c, 0, 69, 77
1, 53328, Note_on_c, 1, 48, 76
1, 53351, Note_on_c, 0, 69, 0
1, 53352, Note_on_c, 0, 67, 77
1, 53373, Note_on_c, 1, 48, 0
1, 53375, Note_on_c, 0, 67, 0
1, 53376, Note_on_c, 0, 67, 77
1, 53376, Note_on_c, 1, 50, 77
1, 53421, Note_on_c, 1, 57, 0
1, 53424, Note_on_c, 1, 53, 77
1, 53469, Note_on_c, 1, 53, 0
1, 53472, Note_on_c, 0, 67, 0
1, 53472, Note_on_c, 0, 65, 78
1, 53472, Note_on_c, 1, 58, 78
1, 53509, Note_on_c, 1, 50, 0
1, 53517, Note_on_c, 0, 65, 0
1, 53520, Note_on_c, 0, 77, 79
1, 53520, Note_on_c, 1, 50, 78
1, 53532, Note_on_c, 0, 77, 0
1, 53532, Note_on_c, 0, 74, 79
1, 53544, Note_on_c, 0, 74, 0
1, 53544, Note_on_c, 0, 70, 79
1, 53556, Note_on_c, 0, 70, 0
1, 53556, Note_on_c, 0, 65, 79
1, 53565, Note_on_c, 1, 50, 0
1, 53568, Note_on_c, 0, 65, 0
1, 53568, Note_on_c, 0, 67, 79
1, 53568, Note_on_c, 1, 51, 79
1, 53591, Note_on_c, 0, 67, 0
1, 53592, Note_on_c, 0, 79, 80
1, 53613, Note_on_c, 1, 58, 0
1, 53615, Note_on_c, 0, 79, 0
1, 53616, Note_on_c, 1, 55, 80
1, 53640, Note_on_c, 0, 77, 80
1, 53661, Note_on_c, 1, 55, 0
1, 53663, Note_on_c, 0, 77, 0
1, 53664, Note_on_c, 0, 77, 81
1, 53664, Note_on_c, 1, 60, 80
1, 53670, Note_on_c, 0, 77, 0
1, 53670, Note_on_c, 0, 75, 81
1, 53688, Note_on_c, 0, 75, 0
1, 53688, Note_on_c, 0, 74, 81
1, 53701, Note_on_c, 1, 51, 0
1, 53711, Note_on_c, 0, 74, 0
1, 53712, Note_on_c, 0, 74, 81
1, 53712, Note_on_c, 1, 51, 81
1, 53718, Note_on_c, 0, 74, 0
1, 53718, Note_on_c, 0, 72, 81
1, 53736, Note_on_c, 0, 72, 0
1, 53736, Note_on_c, 0, 70, 81
1, 53757, Note_on_c, 1, 51, 0
1, 53759, Note_on_c, 0, 70, 0
1, 53760, Note_on_c, 0, 70, 82
1, 53760, Note_on_c, 1, 53, 81
1, 53805, Note_on_c, 1, 60, 0
1, 53808, Note_on_c, 1, 57, 82
1, 53853, Note_on_c, 1, 57, 0
1, 53856, Note_on_c, 0, 70, 0
1, 53856, Note_on_c, 0, 69, 83
1, 53856, Note_on_c, 1, 62, 82
1, 53893, Note_on_c, 1, 53, 0
1, 53901, Note_on_c, 0, 69, 0
1, 53904, Note_on_c, 0, 81, 83
1, 53904, Note_on_c, 1, 53, 83
1, 53916, Note_on_c, 0, 81, 0
1, 53916, Note_on_c, 0, 77, 84
1, 53928, Note_on_c, 0, 77, 0
1, 53928, Note_on_c, 0, 74, 84
1, 53940, Note_on_c, 0, 74, 0
1, 53940, Note_on_c, 0, 69, 84
1, 53949, Note_on_c, 1, 53, 0
1, 53952, Note_on_c, 0, 69, 0
1, 53952, Note_on_c, 0, 70, 84
1, 53952, Note_on_c, 1, 55, 84
1, 53975, Note_on_c, 0, 70, 0
1, 53976, Note_on_c, 0, 82, 84
1, 53997, Note_on_c, 1, 62, 0
1, 53999, Note_on_c, 0, 82, 0
1, 54000, Note_on_c, 1, 58, 84
1, 54024, Note_on_c, 0, 81, 84
1, 54041, Note_on_c, 1, 55, 0
1, 54045, Note_on_c, 1, 58, 0
1, 54047, Note_on_c, 0, 81, 0
1, 54048, Note_on_c, 0, 81, 84
1, 54048, Note_on_c, 1, 63, 84
1, 54048, Note_on_c, 1, 55, 84
1, 54054, Note_on_c, 0, 81, 0
1, 54054, Note_on_c, 0, 79, 84
1, 54072, Note_on_c, 0, 79, 0
1, 54072, Note_on_c, 0, 77, 84
1, 54093, Note_on_c, 1, 55, 0
1, 54095, Note_on_c, 0, 77, 0
1, 54096, Note_on_c, 0, 77, 84
1, 54102, Note_on_c, 0, 77, 0
1, 54102, Note_on_c, 0, 75, 84
1, 54120, Note_on_c, 0, 75, 0
1, 54120, Note_on_c, 0, 74, 84
1, 54143, Note_on_c, 0, 74, 0
1, 54144, Note_on_c, 0, 72, 84
1, 54144, Note_on_c, 1, 57, 84
1, 54167, Note_on_c, 0, 72, 0
1, 54168, Note_on_c, 0, 84, 84
1, 54189, Note_on_c, 1, 63, 0
1, 54191, Note_on_c, 0, 84, 0
1, 54192, Note_on_c, 1, 60, 84
1, 54216, Note_on_c, 0, 82, 84
1, 54237, Note_on_c, 1, 60, 0
1, 54239, Note_on_c, 0, 82, 0
1, 54240, Note_on_c, 0, 82, 84
1, 54240, Note_on_c, 1, 66, 84
1, 54246, Note_on_c, 0, 82, 0
1, 54246, Note_on_c, 0, 81, 84
1, 54264, Note_on_c, 0, 81, 0
1, 54264, Note_on_c, 0, 79, 84
1, 54277, Note_on_c, 1, 57, 0
1, 54287, Note_on_c, 0, 79, 0
1, 54288, Note_on_c, 0, 79, 84
1, 54288, Note_on_c, 1, 57, 84
1, 54294, Note_on_c, 0, 79, 0
1, 54294, Note_on_c, 0, 78, 84
1, 54312, Note_on_c, 0, 78, 0
1, 54312, Note_on_c, 0, 75, 84
1, 54333, Note_on_c, 1, 57, 0
1, 54335, Note_on_c, 0, 75, 0
1, 54336, Note_on_c, 0, 74, 84
1, 54336, Note_on_c, 1, 58, 84
1, 54359, Note_on_c, 0, 74, 0
1, 54360, Note_on_c, 0, 86, 84
1, 54381, Note_on_c, 1, 66, 0
1, 54383, Note_on_c, 0, 86, 0
1, 54384, Note_on_c, 1, 62, 84
1, 54408, Note_on_c, 0, 84, 84
1, 54429, Note_on_c, 1, 62, 0
1, 54431, Note_on_c, 0, 84, 0
1, 54432, Note_on_c, 0, 84, 84
1, 54432, Note_on_c, 1, 67, 84
1, 54455, Note_on_c, 0, 84, 0
1, 54456, Note_on_c, 0, 82, 84
1, 54469, Note_on_c, 1, 58, 0
1, 54479, Note_on_c, 0, 82, 0
1, 54480, Note_on_c, 0, 81, 84
1, 54480, Note_on_c, 1, 58, 84
1, 54503, Note_on_c, 0, 81, 0
1, 54504, Note_on_c, 0, 79, 84
1, 54525, Note_on_c, 1, 58, 0
1, 54527, Note_on_c, 0, 79, 0
1, 54528, Note_on_c, 0, 77, 84
1, 54528, Note_on_c, 1, 60, 84
1, 54551, Note_on_c, 0, 77, 0
1, 54552, Note_on_c, 0, 75, 84
1, 54573, Note_on_c, 1, 67, 0
1, 54575, Note_on_c, 0, 75, 0
1, 54576, Note_on_c, 0, 74, 84
1, 54576, Note_on_c, 1, 67, 84
1, 54599, Note_on_c, 0, 74, 0
1, 54600, Note_on_c, 0, 72, 84
1, 54617, Note_on_c, 1, 60, 0
1, 54623, Note_on_c, 0, 72, 0
1, 54624, Note_on_c, 0, 70, 84
1, 54624, Note_on_c, 1, 62, 84
1, 54665, Note_on_c, 1, 67, 0
1, 54669, Note_on_c, 0, 70, 0
1, 54672, Note_on_c, 0, 69, 84
1, 54672, Note_on_c, 1, 66, 84
1, 54679, Note_on_c, 0, 69, 0
1, 54679, Note_on_c, 0, 70, 84
1, 54686, Note_on_c, 0, 70, 0
1, 54686, Note_on_c, 0, 69, 84
1, 54693, Note_on_c, 0, 69, 0
1, 54693, Note_on_c, 0, 70, 84
1, 54700, Note_on_c, 0, 70, 0
1, 54700, Note_on_c, 0, 69, 84
1, 54707, Note_on_c, 0, 69, 0
1, 54707, Note_on_c, 0, 67, 84
1, 54713, Note_on_c, 1, 62, 0
1, 54714, Note_on_c, 0, 67, 0
1, 54714, Note_on_c, 0, 69, 84
1, 54717, Note_on_c, 1, 66, 0
1, 54720, Note_on_c, 0, 69, 0
1, 54720, Note_on_c, 0, 67, 84
1, 54744, Note_on_c, 1, 43, 84
1, 54767, Note_on_c, 1, 43, 0
1, 54768, Note_on_c, 1, 46, 84
1, 54791, Note_on_c, 1, 46, 0
1, 54792, Note_on_c, 1, 50, 84
1, 54809, Note_on_c, 0, 67, 0
1, 54815, Note_on_c, 1, 50, 0
1, 54816, Note_on_c, 1, 55, 84
1, 54861, Note_on_c, 1, 55, 0
1, 54864, Note_on_c, 0, 62, 75
1, 54909, Note_on_c, 0, 62, 0
1, 54912, Note_on_c, 0, 67, 75
1, 54912, Note_on_c, 1, 58, 75
1, 54960, Note_on_c, 0, 67, 0
1, 54960, Note_on_c, 0, 66, 75
1, 54960, Note_on_c, 1, 58, 0
1, 54960, Note_on_c, 1, 57, 75
1, 54980, Note_on_c, 0, 66, 0
1, 54980, Note_on_c, 1, 57, 0
1, 55008, Note_on_c, 0, 69, 75
1, 55008, Note_on_c, 1, 60, 75
1, 55056, Note_on_c, 0, 69, 0
1, 55056, Note_on_c, 0, 67, 75
1, 55056, Note_on_c, 1, 60, 0
1, 55056, Note_on_c, 1, 58, 75
1, 55076, Note_on_c, 0, 67, 0
1, 55076, Note_on_c, 1, 58, 0
1, 55104, Note_on_c, 0, 70, 75
1, 55104, Note_on_c, 0, 67, 75
1, 55152, Note_on_c, 1, 61, 75
1, 55171, Note_on_c, 0, 70, 0
1, 55176, Note_on_c, 0, 72, 75
1, 55188, Note_on_c, 0, 72, 0
1, 55188, Note_on_c, 0, 70, 75
1, 55193, Note_on_c, 0, 67, 0
1, 55200, Note_on_c, 0, 70, 0
1, 55200, Note_on_c, 0, 69, 75
1, 55200, Note_on_c, 0, 66, 75
1, 55200, Note_on_c, 1, 61, 0
1, 55200, Note_on_c, 1, 62, 75
1, 55245, Note_on_c, 0, 69, 0
1, 55245, Note_on_c, 0, 66, 0
1, 55245, Note_on_c, 1, 62, 0
1, 55248, Note_on_c, 0, 62, 75
1, 55268, Note_on_c, 0, 62, 0
1, 55296, Note_on_c, 0, 69, 75
1, 55296, Note_on_c, 1, 60, 75
1, 55344, Note_on_c, 0, 69, 0
1, 55344, Note_on_c, 0, 67, 75
1, 55344, Note_on_c, 1, 60, 0
1, 55344, Note_on_c, 1, 58, 75
1, 55364, Note_on_c, 0, 67, 0
1, 55364, Note_on_c, 1, 58, 0
1, 55392, Note_on_c, 0, 70, 75
1, 55392, Note_on_c, 1, 67, 75
1, 55440, Note_on_c, 0, 70, 0
1, 55440, Note_on_c, 0, 69, 75
1, 55440, Note_on_c, 1, 67, 0
1, 55440, Note_on_c, 1, 66, 75
1, 55460, Note_on_c, 0, 69, 0
1, 55460, Note_on_c, 1, 66, 0
1, 55488, Note_on_c, 0, 72, 75
1, 55488, Note_on_c, 0, 69, 75
1, 55536, Note_on_c, 1, 50, 75
1, 55555, Note_on_c, 0, 72, 0
1, 55560, Note_on_c, 0, 75, 75
1, 55568, Note_on_c, 0, 75, 0
1, 55568, Note_on_c, 0, 74, 75
1, 55576, Note_on_c, 0, 74, 0
1, 55576, Note_on_c, 0, 72, 75
1, 55577, Note_on_c, 0, 69, 0
1, 55584, Note_on_c, 0, 72, 0
1, 55584, Note_on_c, 0, 70, 75
1, 55584, Note_on_c, 0, 67, 75
1, 55584, Note_on_c, 1, 50, 0
1, 55584, Note_on_c, 1, 55, 75
1, 55629, Note_on_c, 0, 70, 0
1, 55629, Note_on_c, 0, 67, 0
1, 55629, Note_on_c, 1, 55, 0
1, 55632, Note_on_c, 0, 62, 75
1, 55652, Note_on_c, 0, 62, 0
1, 55680, Note_on_c, 0, 70, 75
1, 55703, Note_on_c, 0, 70, 0
1, 55704, Note_on_c, 0, 67, 75
1, 55727, Note_on_c, 0, 67, 0
1, 55728, Note_on_c, 0, 69, 75
1, 55751, Note_on_c, 0, 69, 0
1, 55752, Note_on_c, 0, 66, 75
1, 55775, Note_on_c, 0, 66, 0
1, 55776, Note_on_c, 0, 72, 75
1, 55799, Note_on_c, 0, 72, 0
1, 55800, Note_on_c, 0, 69, 75
1, 55823, Note_on_c, 0, 69, 0
1, 55824, Note_on_c, 0, 70, 75
1, 55847, Note_on_c, 0, 70, 0
1, 55848, Note_on_c, 0, 67, 75
1, 55871, Note_on_c, 0, 67, 0
1, 55872, Note_on_c, 0, 75, 75
1, 55895, Note_on_c, 0, 75, 0
1, 55896, Note_on_c, 0, 72, 75
1, 55919, Note_on_c, 0, 72, 0
1, 55920, Note_on_c, 0, 74, 75
1, 55943, Note_on_c, 0, 74, 0
1, 55944, Note_on_c, 0, 70, 75
1, 55967, Note_on_c, 0, 70, 0
1, 55968, Note_on_c, 0, 69, 75
1, 55992, Note_on_c, 0, 69, 0
1, 55992, Note_on_c, 0, 78, 75
1, 56015, Note_on_c, 0, 78, 0
1, 56016, Note_on_c, 0, 70, 76
1, 56040, Note_on_c, 0, 70, 0
1, 56040, Note_on_c, 0, 79, 77
1, 56063, Note_on_c, 0, 79, 0
1, 56064, Note_on_c, 0, 72, 77
1, 56088, Note_on_c, 0, 72, 0
1, 56088, Note_on_c, 0, 81, 78
1, 56111, Note_on_c, 0, 81, 0
1, 56112, Note_on_c, 0, 74, 79
1, 56136, Note_on_c, 0, 74, 0
1, 56136, Note_on_c, 0, 82, 79
1, 56159, Note_on_c, 0, 82, 0
1, 56160, Note_on_c, 0, 75, 80
1, 56160, Note_on_c, 1, 72, 75
1, 56160, Note_on_c, 1, 69, 75
1, 56184, Note_on_c, 0, 75, 0
1, 56184, Note_on_c, 0, 84, 81
1, 56205, Note_on_c, 1, 72, 0
1, 56205, Note_on_c, 1, 69, 0
1, 56207, Note_on_c, 0, 84, 0
1, 56208, Note_on_c, 0, 75, 81
1, 56208, Note_on_c, 1, 72, 79
1, 56208, Note_on_c, 1, 70, 79
1, 56208, Note_on_c, 1, 67, 79
1, 56232, Note_on_c, 0, 75, 0
1, 56232, Note_on_c, 0, 84, 82
1, 56253, Note_on_c, 1, 72, 0
1, 56253, Note_on_c, 1, 70, 0
1, 56253, Note_on_c, 1, 67, 0
1, 56255, Note_on_c, 0, 84, 0
1, 56256, Note_on_c, 0, 75, 83
1, 56256, Note_on_c, 1, 72, 105
1, 56256, Note_on_c, 1, 69, 105
1, 56256, Note_on_c, 1, 66, 105
1, 56280, Note_on_c, 0, 75, 0
1, 56280, Note_on_c, 0, 87, 84
1, 56303, Note_on_c, 0, 87, 0
1, 56304, Note_on_c, 0, 86, 84
1, 56327, Note_on_c, 0, 86, 0
1, 56328, Note_on_c, 0, 84, 84
1, 56351, Note_on_c, 0, 84, 0
1, 56352, Note_on_c, 0, 82, 84
1, 56375, Note_on_c, 0, 82, 0
1, 56376, Note_on_c, 0, 81, 84
1, 56399, Note_on_c, 0, 81, 0
1, 56400, Note_on_c, 0, 79, 84
1, 56423, Note_on_c, 0, 79, 0
1, 56424, Note_on_c, 0, 78, 84
1, 56447, Note_on_c, 0, 78, 0
1, 56448, Note_on_c, 0, 79, 84
1, 56471, Note_on_c, 0, 79, 0
1, 56472, Note_on_c, 0, 81, 84
1, 56495, Note_on_c, 0, 81, 0
1, 56496, Note_on_c, 0, 79, 84
1, 56519, Note_on_c, 0, 79, 0
1, 56520, Note_on_c, 0, 78, 84
1, 56543, Note_on_c, 0, 78, 0
1, 56544, Note_on_c, 0, 75, 84
1, 56567, Note_on_c, 0, 75, 0
1, 56568, Note_on_c, 0, 74, 84
1, 56591, Note_on_c, 0, 74, 0
1, 56592, Note_on_c, 0, 77, 84
1, 56615, Note_on_c, 0, 77, 0
1, 56616, Note_on_c, 0, 75, 84
1, 56639, Note_on_c, 0, 75, 0
1, 56640, Note_on_c, 0, 75, 84
1, 56664, Note_on_c, 0, 75, 0
1, 56664, Note_on_c, 0, 87, 84
1, 56687, Note_on_c, 0, 87, 0
1, 56688, Note_on_c, 0, 86, 84
1, 56711, Note_on_c, 0, 86, 0
1, 56712, Note_on_c, 0, 84, 84
1, 56735, Note_on_c, 0, 84, 0
1, 56736, Note_on_c, 0, 82, 84
1, 56759, Note_on_c, 0, 82, 0
1, 56760, Note_on_c, 0, 81, 84
1, 56783, Note_on_c, 0, 81, 0
1, 56784, Note_on_c, 0, 79, 84
1, 56807, Note_on_c, 0, 79, 0
1, 56808, Note_on_c, 0, 78, 84
1, 56831, Note_on_c, 0, 78, 0
1, 56832, Note_on_c, 0, 79, 84
1, 56855, Note_on_c, 0, 79, 0
1, 56856, Note_on_c, 0, 81, 84
1, 56879, Note_on_c, 0, 81, 0
1, 56880, Note_on_c, 0, 79, 84
1, 56903, Note_on_c, 0, 79, 0
1, 56904, Note_on_c, 0, 78, 84
1, 56927, Note_on_c, 0, 78, 0
1, 56928, Note_on_c, 0, 75, 84
1, 56951, Note_on_c, 0, 75, 0
1, 56952, Note_on_c, 0, 74, 84
1, 56975, Note_on_c, 0, 74, 0
1, 56976, Note_on_c, 0, 77, 84
1, 56999, Note_on_c, 0, 77, 0
1, 57000, Note_on_c, 0, 75, 84
1, 57017, Note_on_c, 1, 72, 0
1, 57017, Note_on_c, 1, 69, 0
1, 57017, Note_on_c, 1, 66, 0
1, 57023, Note_on_c, 0, 75, 0
1, 57024, Note_on_c, 0, 75, 84
1, 57072, Note_on_c, 1, 66, 84
1, 57120, Note_on_c, 1, 69, 84
1, 57168, Note_on_c, 1, 72, 84
1, 57201, Note_on_c, 0, 75, 0
1, 57216, Note_on_c, 1, 75, 84
1, 57481, Note_on_c, 1, 75, 0
1, 57481, Note_on_c, 1, 72, 0
1, 57481, Note_on_c, 1, 69, 0
1, 57481, Note_on_c, 1, 66, 0
1, 57528, Note_on_c, 0, 74, 75
1, 57540, Note_on_c, 0, 74, 0
1, 57540, Note_on_c, 0, 75, 75
1, 57552, Note_on_c, 0, 75, 0
1, 57552, Note_on_c, 0, 77, 75
1, 57552, Note_on_c, 1, 62, 75
1, 57552, Note_on_c, 1, 54, 75
1, 57564, Note_on_c, 0, 77, 0
1, 57564, Note_on_c, 0, 75, 75
1, 57576, Note_on_c, 0, 75, 0
1, 57576, Note_on_c, 0, 74, 75
1, 57588, Note_on_c, 0, 74, 0
1, 57588, Note_on_c, 0, 72, 75
1, 57597, Note_on_c, 1, 62, 0
1, 57597, Note_on_c, 1, 54, 0
1, 57600, Note_on_c, 0, 72, 0
1, 57600, Note_on_c, 0, 72, 75
1, 57600, Note_on_c, 1, 62, 75
1, 57600, Note_on_c, 1, 55, 75
1, 57612, Note_on_c, 0, 72, 0
1, 57612, Note_on_c, 0, 70, 75
1, 57624, Note_on_c, 0, 70, 0
1, 57624, Note_on_c, 0, 69, 75
1, 57636, Note_on_c, 0, 69, 0
1, 57636, Note_on_c, 0, 70, 75
1, 57645, Note_on_c, 1, 62, 0
1, 57645, Note_on_c, 1, 55, 0
1, 57648, Note_on_c, 0, 70, 0
1, 57648, Note_on_c, 0, 74, 75
1, 57648, Note_on_c, 1, 60, 75
1, 57648, Note_on_c, 1, 48, 75
1, 57660, Note_on_c, 0, 74, 0
1, 57660, Note_on_c, 0, 72, 75
1, 57672, Note_on_c, 0, 72, 0
1, 57672, Note_on_c, 0, 70, 75
1, 57684, Note_on_c, 0, 70, 0
1, 57684, Note_on_c, 0, 69, 75
1, 57693, Note_on_c, 1, 60, 0
1, 57693, Note_on_c, 1, 48, 0
1, 57696, Note_on_c, 0, 69, 0
1, 57696, Note_on_c, 0, 67, 75
1, 57696, Note_on_c, 1, 58, 75
1, 57696, Note_on_c, 1, 50, 75
1, 57741, Note_on_c, 0, 67, 0
1, 57741, Note_on_c, 1, 58, 0
1, 57741, Note_on_c, 1, 50, 0
1, 57744, Note_on_c, 0, 66, 75
1, 57744, Note_on_c, 1, 57, 75
1, 57744, Note_on_c, 1, 50, 75
1, 57751, Note_on_c, 0, 66, 0
1, 57751, Note_on_c, 0, 67, 75
1, 57758, Note_on_c, 0, 67, 0
1, 57758, Note_on_c, 0, 66, 75
1, 57765, Note_on_c, 0, 66, 0
1, 57765, Note_on_c, 0, 67, 75
1, 57772, Note_on_c, 0, 67, 0
1, 57772, Note_on_c, 0, 66, 75
1, 57779, Note_on_c, 0, 66, 0
1, 57779, Note_on_c, 0, 64, 75
1, 57786, Note_on_c, 0, 64, 0
1, 57786, Note_on_c, 0, 66, 75
1, 57789, Note_on_c, 1, 57, 0
1, 57789, Note_on_c, 1, 50, 0
1, 57792, Note_on_c, 0, 66, 0
1, 57792, Note_on_c, 0, 67, 75
1, 57792, Note_on_c, 1, 55, 75
1, 57815, Note_on_c, 0, 67, 0
1, 57816, Note_on_c, 0, 74, 75
1, 57837, Note_on_c, 1, 55, 0
1, 57839, Note_on_c, 0, 74, 0
1, 57840, Note_on_c, 1, 43, 75
1, 57860, Note_on_c, 1, 43, 0
1, 57864, Note_on_c, 0, 74, 75
1, 57887, Note_on_c, 0, 74, 0
1, 57888, Note_on_c, 1, 46, 78
1, 57908, Note_on_c, 1, 46, 0
1, 57912, Note_on_c, 0, 74, 75
1, 57935, Note_on_c, 0, 74, 0
1, 57936, Note_on_c, 1, 50, 81
1, 57956, Note_on_c, 1, 50, 0
1, 57960, Note_on_c, 0, 74, 75
1, 57983, Note_on_c, 0, 74, 0
1, 57984, Note_on_c, 1, 58, 84
1, 57984, Note_on_c, 1, 55, 84
1, 58008, Note_on_c, 0, 74, 75
1, 58031, Note_on_c, 0, 74, 0
1, 58032, Note_on_c, 1, 58, 0
1, 58032, Note_on_c, 1, 55, 0
1, 58032, Note_on_c, 1, 57, 86
1, 58032, Note_on_c, 1, 54, 86
1, 58052, Note_on_c, 1, 57, 0
1, 58052, Note_on_c, 1, 54, 0
1, 58056, Note_on_c, 0, 74, 77
1, 58079, Note_on_c, 0, 74, 0
1, 58080, Note_on_c, 1, 60, 89
1, 58080, Note_on_c, 1, 57, 89
1, 58104, Note_on_c, 0, 74, 78
1, 58127, Note_on_c, 0, 74, 0
1, 58128, Note_on_c, 1, 60, 0
1, 58128, Note_on_c, 1, 57, 0
1, 58128, Note_on_c, 1, 58, 92
1, 58128, Note_on_c, 1, 55, 92
1, 58148, Note_on_c, 1, 58, 0
1, 58148, Note_on_c, 1, 55, 0
1, 58152, Note_on_c, 0, 74, 79
1, 58175, Note_on_c, 0, 74, 0
1, 58176, Note_on_c, 1, 66, 95
1, 58176, Note_on_c, 1, 57, 95
1, 58200, Note_on_c, 0, 74, 81
1, 58221, Note_on_c, 1, 66, 0
1, 58221, Note_on_c, 1, 57, 0
1, 58223, Note_on_c, 0, 74, 0
1, 58224, Note_on_c, 1, 67, 97
1, 58224, Note_on_c, 1, 58, 97
1, 58248, Note_on_c, 0, 74, 82
1, 58269, Note_on_c, 1, 67, 0
1, 58269, Note_on_c, 1, 58, 0
1, 58271, Note_on_c, 0, 74, 0
1, 58272, Note_on_c, 1, 69, 100
1, 58272, Note_on_c, 1, 60, 100
1, 58296, Note_on_c, 0, 74, 84
1, 58319, Note_on_c, 0, 74, 0
1, 58320, Note_on_c, 0, 86, 84
1, 58332, Note_on_c, 0, 86, 0
1, 58332, Note_on_c, 0, 81, 81
1, 58344, Note_on_c, 0, 81, 0
1, 58344, Note_on_c, 0, 78, 79
1, 58356, Note_on_c, 0, 78, 0
1, 58356, Note_on_c, 0, 74, 77
1, 58361, Note_on_c, 1, 69, 0
1, 58361, Note_on_c, 1, 60, 0
1, 58368, Note_on_c, 0, 74, 0
1, 58368, Note_on_c, 0, 81, 75
1, 58368, Note_on_c, 1, 67, 84
1, 58368, Note_on_c, 1, 58, 84
1, 58380, Note_on_c, 0, 81, 0
1, 58380, Note_on_c, 0, 79, 75
1, 58392, Note_on_c, 0, 79, 0
1, 58392, Note_on_c, 0, 78, 75
1, 58404, Note_on_c, 0, 78, 0
1, 58404, Note_on_c, 0, 79, 75
1, 58413, Note_on_c, 1, 58, 0
1, 58416, Note_on_c, 0, 79, 0
1, 58416, Note_on_c, 0, 77, 75
1, 58416, Note_on_c, 1, 60, 84
1, 58428, Note_on_c, 0, 77, 0
1, 58428, Note_on_c, 0, 75, 75
1, 58440, Note_on_c, 0, 75, 0
1, 58440, Note_on_c, 0, 74, 75
1, 58452, Note_on_c, 0, 74, 0
1, 58452, Note_on_c, 0, 72, 75
1, 58461, Note_on_c, 1, 60, 0
1, 58464, Note_on_c, 0, 72, 0
1, 58464, Note_on_c, 0, 70, 75
1, 58464, Note_on_c, 1, 62, 84
1, 58509, Note_on_c, 0, 70, 0
1, 58509, Note_on_c, 1, 67, 0
1, 58512, Note_on_c, 0, 69, 75
1, 58512, Note_on_c, 1, 66, 75
1, 58519, Note_on_c, 0, 69, 0
1, 58519, Note_on_c, 0, 70, 75
1, 58526, Note_on_c, 0, 70, 0
1, 58526, Note_on_c, 0, 69, 75
1, 58533, Note_on_c, 0, 69, 0
1, 58533, Note_on_c, 0, 70, 75
1, 58540, Note_on_c, 0, 70, 0
1, 58540, Note_on_c, 0, 69, 75
1, 58547, Note_on_c, 0, 69, 0
1, 58547, Note_on_c, 0, 67, 75
1, 58553, Note_on_c, 1, 62, 0
1, 58554, Note_on_c, 0, 67, 0
1, 58554, Note_on_c, 0, 69, 75
1, 58557, Note_on_c, 1, 66, 0
1, 58560, Note_on_c, 0, 69, 0
1, 58560, Note_on_c, 0, 67, 75
1, 58583, Note_on_c, 0, 67, 0
1, 58584, Note_on_c, 0, 74, 75
1, 58607, Note_on_c, 0, 74, 0
1, 58608, Note_on_c, 1, 43, 75
1, 58628, Note_on_c, 1, 43, 0
1, 58632, Note_on_c, 0, 74, 75
1, 58655, Note_on_c, 0, 74, 0
1, 58656, Note_on_c, 1, 46, 78
1, 58676, Note_on_c, 1, 46, 0
1, 58680, Note_on_c, 0, 74, 75
1, 58703, Note_on_c, 0, 74, 0
1, 58704, Note_on_c, 1, 50, 81
1, 58724, Note_on_c, 1, 50, 0
1, 58728, Note_on_c, 0, 74, 75
1, 58751, Note_on_c, 0, 74, 0
1, 58752, Note_on_c, 1, 58, 84
1, 58775, Note_on_c, 1, 58, 0
1, 58776, Note_on_c, 0, 74, 75
1, 58776, Note_on_c, 1, 55, 85
1, 58799, Note_on_c, 0, 74, 0
1, 58799, Note_on_c, 1, 55, 0
1, 58800, Note_on_c, 1, 57, 86
1, 58823, Note_on_c, 1, 57, 0
1, 58824, Note_on_c, 0, 74, 77
1, 58824, Note_on_c, 1, 54, 88
1, 58847, Note_on_c, 0, 74, 0
1, 58847, Note_on_c, 1, 54, 0
1, 58848, Note_on_c, 1, 60, 89
1, 58871, Note_on_c, 1, 60, 0
1, 58872, Note_on_c, 0, 74, 78
1, 58872, Note_on_c, 1, 57, 90
1, 58895, Note_on_c, 0, 74, 0
1, 58895, Note_on_c, 1, 57, 0
1, 58896, Note_on_c, 1, 58, 92
1, 58919, Note_on_c, 1, 58, 0
1, 58920, Note_on_c, 0, 74, 79
1, 58920, Note_on_c, 1, 55, 93
1, 58943, Note_on_c, 0, 74, 0
1, 58943, Note_on_c, 1, 55, 0
1, 58944, Note_on_c, 1, 66, 95
1, 58944, Note_on_c, 1, 57, 95
1, 58968, Note_on_c, 0, 74, 81
1, 58989, Note_on_c, 1, 66, 0
1, 58989, Note_on_c, 1, 57, 0
1, 58991, Note_on_c, 0, 74, 0
1, 58992, Note_on_c, 1, 67, 97
1, 58992, Note_on_c, 1, 58, 97
1, 59016, Note_on_c, 0, 74, 82
1, 59037, Note_on_c, 1, 67, 0
1, 59037, Note_on_c, 1, 58, 0
1, 59039, Note_on_c, 0, 74, 0
1, 59040, Note_on_c, 1, 69, 100
1, 59040, Note_on_c, 1, 60, 100
1, 59064, Note_on_c, 0, 74, 84
1, 59087, Note_on_c, 0, 74, 0
1, 59088, Note_on_c, 0, 86, 81
1, 59100, Note_on_c, 0, 86, 0
1, 59100, Note_on_c, 0, 81, 79
1, 59112, Note_on_c, 0, 81, 0
1, 59112, Note_on_c, 0, 78, 78
1, 59124, Note_on_c, 0, 78, 0
1, 59124, Note_on_c, 0, 74, 76
1, 59129, Note_on_c, 1, 69, 0
1, 59129, Note_on_c, 1, 60, 0
1, 59136, Note_on_c, 0, 74, 0
1, 59136, Note_on_c, 0, 81, 75
1, 59136, Note_on_c, 1, 67, 84
1, 59136, Note_on_c, 1, 58, 84
1, 59148, Note_on_c, 0, 81, 0
1, 59148, Note_on_c, 0, 79, 75
1, 59160, Note_on_c, 0, 79, 0
1, 59160, Note_on_c, 0, 78, 75
1, 59172, Note_on_c, 0, 78, 0
1, 59172, Note_on_c, 0, 79, 75
1, 59181, Note_on_c, 1, 58, 0
1, 59184, Note_on_c, 0, 79, 0
1, 59184, Note_on_c, 0, 77, 75
1, 59184, Note_on_c, 1, 60, 84
1, 59196, Note_on_c, 0, 77, 0
1, 59196, Note_on_c, 0, 75, 75
1, 59208, Note_on_c, 0, 75, 0
1, 59208, Note_on_c, 0, 74, 75
1, 59220, Note_on_c, 0, 74, 0
1, 59220, Note_on_c, 0, 72, 75
1, 59229, Note_on_c, 1, 60, 0
1, 59232, Note_on_c, 0, 72, 0
1, 59232, Note_on_c, 0, 70, 75
1, 59232, Note_on_c, 1, 62, 84
1, 59277, Note_on_c, 0, 70, 0
1, 59280, Note_on_c, 0, 69, 75
1, 59280, Note_on_c, 1, 67, 0
1, 59280, Note_on_c, 1, 66, 77
1, 59287, Note_on_c, 0, 69, 0
1, 59287, Note_on_c, 0, 70, 75
1, 59294, Note_on_c, 0, 70, 0
1, 59294, Note_on_c, 0, 69, 75
1, 59301, Note_on_c, 0, 69, 0
1, 59301, Note_on_c, 0, 70, 75
1, 59308, Note_on_c, 0, 70, 0
1, 59308, Note_on_c, 0, 69, 75
1, 59315, Note_on_c, 0, 69, 0
1, 59315, Note_on_c, 0, 67, 75
1, 59321, Note_on_c, 1, 62, 0
1, 59322, Note_on_c, 0, 67, 0
1, 59322, Note_on_c, 0, 69, 75
1, 59325, Note_on_c, 1, 66, 0
1, 59328, Note_on_c, 0, 69, 0
1, 59328, Note_on_c, 0, 67, 75
1, 59352, Note_on_c, 1, 43, 84
1, 59375, Note_on_c, 1, 43, 0
1, 59376, Note_on_c, 1, 46, 84
1, 59399, Note_on_c, 1, 46, 0
1, 59400, Note_on_c, 1, 50, 84
1, 59417, Note_on_c, 0, 67, 0
1, 59423, Note_on_c, 1, 50, 0
1, 59424, Note_on_c, 1, 55, 84
1, 59469, Note_on_c, 1, 55, 0
1, 59472, Note_on_c, 0, 75, 75
1, 59472, Note_on_c, 0, 72, 75
1, 59520, Note_on_c, 1, 31, 75
1, 59559, Note_on_c, 1, 31, 0
1, 59565, Note_on_c, 0, 75, 0
1, 59565, Note_on_c, 0, 72, 0
1, 59568, Note_on_c, 0, 74, 75
1, 59568, Note_on_c, 0, 70, 75
1, 59613, Note_on_c, 0, 74, 0
1, 59613, Note_on_c, 0, 70, 0
1, 59616, Note_on_c, 1, 43, 75
1, 59655, Note_on_c, 1, 43, 0
1, 59664, Note_on_c, 0, 72, 75
1, 59664, Note_on_c, 0, 66, 75
1, 59712, Note_on_c, 1, 31, 75
1, 59751, Note_on_c, 1, 31, 0
1, 59760, Note_on_c, 0, 72, 0
1, 59760, Note_on_c, 0, 66, 0
1, 59760, Note_on_c, 0, 70, 75
1, 59760, Note_on_c, 0, 67, 75
1, 59805, Note_on_c, 0, 70, 0
1, 59805, Note_on_c, 0, 67, 0
1, 59808, Note_on_c, 1, 48, 75
1, 59856, Note_on_c, 0, 63, 75
1, 59856, Note_on_c, 0, 60, 75
1, 59897, Note_on_c, 1, 48, 0
1, 59904, Note_on_c, 1, 50, 70
1, 59949, Note_on_c, 0, 63, 0
1, 59949, Note_on_c, 0, 60, 0
1, 59952, Note_on_c, 0, 62, 67
1, 59952, Note_on_c, 0, 58, 67
1, 59993, Note_on_c, 1, 50, 0
1, 59997, Note_on_c, 0, 62, 0
1, 59997, Note_on_c, 0, 58, 0
1, 60000, Note_on_c, 1, 38, 66
1, 60048, Note_on_c, 0, 54, 60
1, 60048, Note_on_c, 0, 48, 60
1, 60089, Note_on_c, 1, 38, 0
1, 60096, Note_on_c, 0, 54, 0
1, 60096, Note_on_c, 0, 48, 0
1, 60096, Note_on_c, 0, 55, 56
1, 60096, Note_on_c, 0, 46, 56
1, 60116, Note_on_c, 0, 55, 0
1, 60116, Note_on_c, 0, 46, 0
1, 60144, Note_on_c, 1, 43, 59
1, 60164, Note_on_c, 1, 43, 0
1, 60192, Note_on_c, 1, 31, 57
1, 60231, Note_on_c, 1, 31, 0
1, 60288, Note_on_c, 1, 31, 0
1, 60377, Note_on_c, 1, 31, 0
1, 60387, End_track
0, 0, End_of_file