0, 0, Header, 0, 1, 96
1, 0, Start_track
1, 0, Tempo, 857142
1, 0, Note_on_c, 0, 74, 64
1, 48, Note_on_c, 1, 50, 64
1, 89, Note_on_c, 0, 74, 0
1, 93, Note_on_c, 1, 50, 0
1, 96, Note_on_c, 0, 81, 64
1, 96, Note_on_c, 1, 54, 64
1, 119, Note_on_c, 0, 81, 0
1, 120, Note_on_c, 0, 78, 64
1, 141, Note_on_c, 1, 54, 0
1, 143, Note_on_c, 0, 78, 0
1, 144, Note_on_c, 0, 76, 64
1, 144, Note_on_c, 1, 55, 64
1, 167, Note_on_c, 0, 76, 0
1, 168, Note_on_c, 0, 74, 64
1, 189, Note_on_c, 1, 55, 0
1, 191, Note_on_c, 0, 74, 0
1, 192, Note_on_c, 0, 76, 64
1, 192, Note_on_c, 1, 57, 64
1, 198, Note_on_c, 0, 76, 0
1, 198, Note_on_c, 0, 74, 64
1, 204, Note_on_c, 0, 74, 0
1, 204, Note_on_c, 0, 73, 64
1, 210, Note_on_c, 0, 73, 0
1, 210, Note_on_c, 0, 74, 64
1, 237, Note_on_c, 1, 57, 0
1, 240, Note_on_c, 1, 45, 64
1, 281, Note_on_c, 0, 74, 0
1, 285, Note_on_c, 1, 45, 0
1, 288, Note_on_c, 0, 73, 64
1, 288, Note_on_c, 1, 57, 64
1, 333, Note_on_c, 0, 73, 0
1, 333, Note_on_c, 1, 57, 0
1, 336, Note_on_c, 0, 71, 64
1, 336, Note_on_c, 1, 55, 64
1, 381, Note_on_c, 0, 71, 0
1, 381, Note_on_c, 1, 55, 0
1, 384, Note_on_c, 0, 69, 64
1, 384, Note_on_c, 1, 54, 64
1, 429, Note_on_c, 0, 69, 0
1, 429, Note_on_c, 1, 54, 0
1, 432, Note_on_c, 0, 74, 64
1, 432, Note_on_c, 1, 50, 64
1, 447, Note_on_c, 0, 74, 0
1, 448, Note_on_c, 0, 73, 64
1, 463, Note_on_c, 0, 73, 0
1, 464, Note_on_c, 0, 71, 64
1, 477, Note_on_c, 1, 50, 0
1, 479, Note_on_c, 0, 71, 0
1, 480, Note_on_c, 0, 69, 64
1, 480, Note_on_c, 1, 52, 64
1, 525, Note_on_c, 0, 69, 0
1, 525, Note_on_c, 1, 52, 0
1, 528, Note_on_c, 0, 67, 64
1, 528, Note_on_c, 1, 45, 64
1, 534, Note_on_c, 0, 67, 0
1, 534, Note_on_c, 0, 69, 64
1, 540, Note_on_c, 0, 69, 0
1, 540, Note_on_c, 0, 67, 64
1, 573, Note_on_c, 0, 67, 0
1, 573, Note_on_c, 1, 45, 0
1, 576, Note_on_c, 0, 67, 64
1, 576, Note_on_c, 1, 50, 64
1, 621, Note_on_c, 0, 67, 0
1, 621, Note_on_c, 1, 50, 0
1, 624, Note_on_c, 0, 66, 64
1, 624, Note_on_c, 1, 45, 64
1, 669, Note_on_c, 0, 66, 0
1, 669, Note_on_c, 1, 45, 0
1, 672, Note_on_c, 1, 38, 64
1, 761, Note_on_c, 1, 38, 0
1, 768, Note_on_c, 0, 71, 64
1, 816, Note_on_c, 1, 55, 64
1, 816, Note_on_c, 1, 43, 64
1, 857, Note_on_c, 0, 71, 0
1, 861, Note_on_c, 1, 55, 0
1, 861, Note_on_c, 1, 43, 0
1, 864, Note_on_c, 0, 69, 64
1, 864, Note_on_c, 1, 55, 64
1, 864, Note_on_c, 1, 43, 64
1, 887, Note_on_c, 0, 69, 0
1, 888, Note_on_c, 0, 67, 64
1, 909, Note_on_c, 1, 55, 0
1, 909, Note_on_c, 1, 43, 0
1, 911, Note_on_c, 0, 67, 0
1, 912, Note_on_c, 0, 66, 64
1, 912, Note_on_c, 1, 55, 64
1, 912, Note_on_c, 1, 43, 64
1, 935, Note_on_c, 0, 66, 0
1, 936, Note_on_c, 0, 64, 64
1, 957, Note_on_c, 1, 55, 0
1, 957, Note_on_c, 1, 43, 0
1, 959, Note_on_c, 0, 64, 0
1, 960, Note_on_c, 0, 69, 64
1, 1008, Note_on_c, 1, 54, 64
1, 1008, Note_on_c, 1, 42, 64
1, 1049, Note_on_c, 0, 69, 0
1, 1053, Note_on_c, 1, 54, 0
1, 1053, Note_on_c, 1, 42, 0
1, 1056, Note_on_c, 0, 67, 64
1, 1056, Note_on_c, 1, 54, 64
1, 1056, Note_on_c, 1, 42, 64
1, 1079, Note_on_c, 0, 67, 0
1, 1080, Note_on_c, 0, 66, 64
1, 1101, Note_on_c, 1, 54, 0
1, 1101, Note_on_c, 1, 42, 0
1, 1103, Note_on_c, 0, 66, 0
1, 1104, Note_on_c, 0, 64, 64
1, 1104, Note_on_c, 1, 54, 64
1, 1104, Note_on_c, 1, 42, 64
1, 1127, Note_on_c, 0, 64, 0
1, 1128, Note_on_c, 0, 62, 64
1, 1149, Note_on_c, 1, 54, 0
1, 1149, Note_on_c, 1, 42, 0
1, 1151, Note_on_c, 0, 62, 0
1, 1152, Note_on_c, 0, 61, 64
1, 1175, Note_on_c, 0, 61, 0
1, 1176, Note_on_c, 0, 62, 64
1, 1199, Note_on_c, 0, 62, 0
1, 1200, Note_on_c, 0, 64, 64
1, 1200, Note_on_c, 1, 52, 64
1, 1223, Note_on_c, 0, 64, 0
1, 1224, Note_on_c, 0, 66, 64
1, 1245, Note_on_c, 1, 52, 0
1, 1247, Note_on_c, 0, 66, 0
1, 1248, Note_on_c, 0, 67, 64
1, 1248, Note_on_c, 1, 49, 64
1, 1293, Note_on_c, 0, 67, 0
1, 1293, Note_on_c, 1, 49, 0
1, 1296, Note_on_c, 0, 66, 64
1, 1296, Note_on_c, 0, 62, 64
1, 1296, Note_on_c, 1, 50, 64
1, 1341, Note_on_c, 0, 66, 0
1, 1341, Note_on_c, 0, 62, 0
1, 1341, Note_on_c, 1, 50, 0
1, 1344, Note_on_c, 0, 66, 64
1, 1344, Note_on_c, 0, 62, 64
1, 1344, Note_on_c, 1, 57, 64
1, 1389, Note_on_c, 1, 57, 0
1, 1392, Note_on_c, 0, 66, 0
1, 1392, Note_on_c, 0, 62, 0
1, 1392, Note_on_c, 0, 64, 64
1, 1392, Note_on_c, 0, 61, 64
1, 1392, Note_on_c, 1, 52, 64
1, 1437, Note_on_c, 0, 64, 0
1, 1437, Note_on_c, 0, 61, 0
1, 1437, Note_on_c, 1, 52, 0
1, 1440, Note_on_c, 1, 45, 64
1, 1529, Note_on_c, 1, 45, 0
1, 1536, Note_on_c, 0, 74, 64
1, 1584, Note_on_c, 1, 50, 64
1, 1625, Note_on_c, 0, 74, 0
1, 1629, Note_on_c, 1, 50, 0
1, 1632, Note_on_c, 0, 81, 64
1, 1632, Note_on_c, 1, 54, 64
1, 1655, Note_on_c, 0, 81, 0
1, 1656, Note_on_c, 0, 78, 64
1, 1677, Note_on_c, 1, 54, 0
1, 1679, Note_on_c, 0, 78, 0
1, 1680, Note_on_c, 0, 76, 64
1, 1680, Note_on_c, 1, 55, 64
1, 1703, Note_on_c, 0, 76, 0
1, 1704, Note_on_c, 0, 74, 64
1, 1725, Note_on_c, 1, 55, 0
1, 1727, Note_on_c, 0, 74, 0
1, 1728, Note_on_c, 0, 76, 64
1, 1728, Note_on_c, 1, 57, 64
1, 1734, Note_on_c, 0, 76, 0
1, 1734, Note_on_c, 0, 74, 64
1, 1740, Note_on_c, 0, 74, 0
1, 1740, Note_on_c, 0, 73, 64
1, 1746, Note_on_c, 0, 73, 0
1, 1746, Note_on_c, 0, 74, 64
1, 1773, Note_on_c, 1, 57, 0
1, 1776, Note_on_c, 1, 45, 64
1, 1817, Note_on_c, 0, 74, 0
1, 1821, Note_on_c, 1, 45, 0
1, 1824, Note_on_c, 0, 73, 64
1, 1824, Note_on_c, 1, 57, 64
1, 1869, Note_on_c, 0, 73, 0
1, 1869, Note_on_c, 1, 57, 0
1, 1872, Note_on_c, 0, 71, 64
1, 1872, Note_on_c, 1, 55, 64
1, 1917, Note_on_c, 0, 71, 0
1, 1917, Note_on_c, 1, 55, 0
1, 1920, Note_on_c, 0, 69, 64
1, 1920, Note_on_c, 1, 54, 64
1, 1965, Note_on_c, 0, 69, 0
1, 1965, Note_on_c, 1, 54, 0
1, 1968, Note_on_c, 0, 74, 64
1, 1968, Note_on_c, 1, 50, 64
1, 1983, Note_on_c, 0, 74, 0
1, 1984, Note_on_c, 0, 73, 64
1, 1999, Note_on_c, 0, 73, 0
1, 2000, Note_on_c, 0, 71, 64
1, 2013, Note_on_c, 1, 50, 0
1, 2015, Note_on_c, 0, 71, 0
1, 2016, Note_on_c, 0, 69, 64
1, 2016, Note_on_c, 1, 52, 64
1, 2061, Note_on_c, 0, 69, 0
1, 2061, Note_on_c, 1, 52, 0
1, 2064, Note_on_c, 0, 67, 64
1, 2064, Note_on_c, 1, 45, 64
1, 2070, Note_on_c, 0, 67, 0
1, 2070, Note_on_c, 0, 69, 64
1, 2076, Note_on_c, 0, 69, 0
1, 2076, Note_on_c, 0, 67, 64
1, 2109, Note_on_c, 0, 67, 0
1, 2109, Note_on_c, 1, 45, 0
1, 2112, Note_on_c, 0, 67, 64
1, 2112, Note_on_c, 1, 50, 64
1, 2157, Note_on_c, 0, 67, 0
1, 2157, Note_on_c, 1, 50, 0
1, 2160, Note_on_c, 0, 66, 64
1, 2160, Note_on_c, 1, 45, 64
1, 2205, Note_on_c, 0, 66, 0
1, 2205, Note_on_c, 1, 45, 0
1, 2208, Note_on_c, 1, 38, 64
1, 2297, Note_on_c, 1, 38, 0
1, 2304, Note_on_c, 0, 71, 64
1, 2352, Note_on_c, 1, 55, 64
1, 2352, Note_on_c, 1, 43, 64
1, 2393, Note_on_c, 0, 71, 0
1, 2397, Note_on_c, 1, 55, 0
1, 2397, Note_on_c, 1, 43, 0
1, 2400, Note_on_c, 0, 69, 64
1, 2400, Note_on_c, 1, 55, 64
1, 2400, Note_on_c, 1, 43, 64
1, 2423, Note_on_c, 0, 69, 0
1, 2424, Note_on_c, 0, 67, 64
1, 2445, Note_on_c, 1, 55, 0
1, 2445, Note_on_c, 1, 43, 0
1, 2447, Note_on_c, 0, 67, 0
1, 2448, Note_on_c, 0, 66, 64
1, 2448, Note_on_c, 1, 55, 64
1, 2448, Note_on_c, 1, 43, 64
1, 2471, Note_on_c, 0, 66, 0
1, 2472, Note_on_c, 0, 64, 64
1, 2493, Note_on_c, 1, 55, 0
1, 2493, Note_on_c, 1, 43, 0
1, 2495, Note_on_c, 0, 64, 0
1, 2496, Note_on_c, 0, 69, 64
1, 2544, Note_on_c, 1, 54, 64
1, 2544, Note_on_c, 1, 42, 64
1, 2585, Note_on_c, 0, 69, 0
1, 2589, Note_on_c, 1, 54, 0
1, 2589, Note_on_c, 1, 42, 0
1, 2592, Note_on_c, 0, 67, 64
1, 2592, Note_on_c, 1, 54, 64
1, 2592, Note_on_c, 1, 42, 64
1, 2615, Note_on_c, 0, 67, 0
1, 2616, Note_on_c, 0, 66, 64
1, 2637, Note_on_c, 1, 54, 0
1, 2637, Note_on_c, 1, 42, 0
1, 2639, Note_on_c, 0, 66, 0
1, 2640, Note_on_c, 0, 64, 64
1, 2640, Note_on_c, 1, 54, 64
1, 2640, Note_on_c, 1, 42, 64
1, 2663, Note_on_c, 0, 64, 0
1, 2664, Note_on_c, 0, 62, 64
1, 2685, Note_on_c, 1, 54, 0
1, 2685, Note_on_c, 1, 42, 0
1, 2687, Note_on_c, 0, 62, 0
1, 2688, Note_on_c, 0, 61, 64
1, 2711, Note_on_c, 0, 61, 0
1, 2712, Note_on_c, 0, 62, 64
1, 2735, Note_on_c, 0, 62, 0
1, 2736, Note_on_c, 0, 64, 64
1, 2736, Note_on_c, 1, 52, 64
1, 2759, Note_on_c, 0, 64, 0
1, 2760, Note_on_c, 0, 66, 64
1, 2781, Note_on_c, 1, 52, 0
1, 2783, Note_on_c, 0, 66, 0
1, 2784, Note_on_c, 0, 67, 64
1, 2784, Note_on_c, 1, 49, 64
1, 2829, Note_on_c, 0, 67, 0
1, 2829, Note_on_c, 1, 49, 0
1, 2832, Note_on_c, 0, 66, 64
1, 2832, Note_on_c, 0, 62, 64
1, 2832, Note_on_c, 1, 50, 64
1, 2877, Note_on_c, 0, 66, 0
1, 2877, Note_on_c, 0, 62, 0
1, 2877, Note_on_c, 1, 50, 0
1, 2880, Note_on_c, 0, 66, 64
1, 2880, Note_on_c, 0, 62, 64
1, 2880, Note_on_c, 1, 57, 64
1, 2925, Note_on_c, 1, 57, 0
1, 2928, Note_on_c, 0, 66, 0
1, 2928, Note_on_c, 0, 62, 0
1, 2928, Note_on_c, 0, 64, 64
1, 2928, Note_on_c, 0, 61, 64
1, 2928, Note_on_c, 1, 52, 64
1, 2973, Note_on_c, 0, 64, 0
1, 2973, Note_on_c, 0, 61, 0
1, 2973, Note_on_c, 1, 52, 0
1, 2976, Note_on_c, 1, 45, 64
1, 3065, Note_on_c, 1, 45, 0
1, 3072, Note_on_c, 0, 69, 75
1, 3072, Note_on_c, 1, 45, 75
1, 3072, Note_on_c, 1, 33, 75
1, 3161, Note_on_c, 0, 69, 0
1, 3161, Note_on_c, 1, 45, 0
1, 3161, Note_on_c, 1, 33, 0
1, 3168, Note_on_c, 0, 61, 76
1, 3168, Note_on_c, 1, 45, 76
1, 3213, Note_on_c, 0, 61, 0
1, 3213, Note_on_c, 1, 45, 0
1, 3216, Note_on_c, 0, 62, 77
1, 3216, Note_on_c, 1, 47, 77
1, 3222, Note_on_c, 0, 62, 0
1, 3222, Note_on_c, 0, 64, 77
1, 3228, Note_on_c, 0, 64, 0
1, 3228, Note_on_c, 0, 62, 77
1, 3261, Note_on_c, 0, 62, 0
1, 3261, Note_on_c, 1, 47, 0
1, 3264, Note_on_c, 0, 64, 78
1, 3264, Note_on_c, 1, 49, 78
1, 3309, Note_on_c, 0, 64, 0
1, 3309, Note_on_c, 1, 49, 0
1, 3312, Note_on_c, 0, 66, 79
1, 3312, Note_on_c, 1, 50, 79
1, 3318, Note_on_c, 0, 66, 0
1, 3318, Note_on_c, 0, 67, 79
1, 3324, Note_on_c, 0, 67, 0
1, 3324, Note_on_c, 0, 66, 79
1, 3357, Note_on_c, 0, 66, 0
1, 3357, Note_on_c, 1, 50, 0
1, 3360, Note_on_c, 0, 67, 80
1, 3360, Note_on_c, 1, 52, 80
1, 3405, Note_on_c, 1, 52, 0
1, 3408, Note_on_c, 1, 45, 81
1, 3449, Note_on_c, 0, 67, 0
1, 3453, Note_on_c, 1, 45, 0
1, 3456, Note_on_c, 0, 66, 82
1, 3456, Note_on_c, 1, 50, 82
1, 3479, Note_on_c, 0, 66, 0
1, 3480, Note_on_c, 0, 62, 82
1, 3503, Note_on_c, 0, 62, 0
1, 3504, Note_on_c, 0, 69, 83
1, 3504, Note_on_c, 0, 66, 83
1, 3545, Note_on_c, 1, 50, 0
1, 3549, Note_on_c, 0, 69, 0
1, 3549, Note_on_c, 0, 66, 0
1, 3552, Note_on_c, 0, 67, 84
1, 3552, Note_on_c, 0, 64, 84
1, 3597, Note_on_c, 0, 67, 0
1, 3597, Note_on_c, 0, 64, 0
1, 3600, Note_on_c, 0, 66, 81
1, 3600, Note_on_c, 0, 62, 81
1, 3600, Note_on_c, 1, 50, 81
1, 3645, Note_on_c, 0, 66, 0
1, 3645, Note_on_c, 0, 62, 0
1, 3645, Note_on_c, 1, 50, 0
1, 3648, Note_on_c, 0, 64, 79
1, 3648, Note_on_c, 0, 61, 79
1, 3648, Note_on_c, 1, 57, 78
1, 3693, Note_on_c, 1, 57, 0
1, 3696, Note_on_c, 1, 45, 75
1, 3737, Note_on_c, 0, 64, 0
1, 3737, Note_on_c, 0, 61, 0
1, 3741, Note_on_c, 1, 45, 0
1, 3744, Note_on_c, 1, 57, 75
1, 3767, Note_on_c, 1, 57, 0
1, 3768, Note_on_c, 1, 55, 75
1, 3791, Note_on_c, 1, 55, 0
1, 3792, Note_on_c, 1, 54, 75
1, 3815, Note_on_c, 1, 54, 0
1, 3816, Note_on_c, 1, 52, 75
1, 3839, Note_on_c, 1, 52, 0
1, 3840, Note_on_c, 0, 74, 75
1, 3840, Note_on_c, 1, 50, 75
1, 3885, Note_on_c, 1, 50, 0
1, 3888, Note_on_c, 1, 62, 75
1, 3888, Note_on_c, 1, 54, 75
1, 3929, Note_on_c, 0, 74, 0
1, 3933, Note_on_c, 1, 62, 0
1, 3933, Note_on_c, 1, 54, 0
1, 3936, Note_on_c, 0, 78, 75
1, 3936, Note_on_c, 1, 62, 75
1, 3936, Note_on_c, 1, 54, 75
1, 3959, Note_on_c, 0, 78, 0
1, 3960, Note_on_c, 0, 74, 75
1, 3981, Note_on_c, 1, 62, 0
1, 3981, Note_on_c, 1, 54, 0
1, 3983, Note_on_c, 0, 74, 0
1, 3984, Note_on_c, 0, 73, 75
1, 3984, Note_on_c, 1, 62, 75
1, 3984, Note_on_c, 1, 54, 75
1, 4007, Note_on_c, 0, 73, 0
1, 4008, Note_on_c, 0, 74, 75
1, 4029, Note_on_c, 1, 62, 0
1, 4029, Note_on_c, 1, 54, 0
1, 4031, Note_on_c, 0, 74, 0
1, 4032, Note_on_c, 0, 71, 75
1, 4080, Note_on_c, 1, 62, 75
1, 4080, Note_on_c, 1, 55, 75
1, 4121, Note_on_c, 0, 71, 0
1, 4125, Note_on_c, 1, 62, 0
1, 4125, Note_on_c, 1, 55, 0
1, 4128, Note_on_c, 0, 83, 75
1, 4128, Note_on_c, 1, 62, 75
1, 4128, Note_on_c, 1, 55, 75
1, 4151, Note_on_c, 0, 83, 0
1, 4152, Note_on_c, 0, 79, 75
1, 4173, Note_on_c, 1, 62, 0
1, 4173, Note_on_c, 1, 55, 0
1, 4175, Note_on_c, 0, 79, 0
1, 4176, Note_on_c, 0, 78, 75
1, 4176, Note_on_c, 1, 62, 75
1, 4176, Note_on_c, 1, 55, 75
1, 4199, Note_on_c, 0, 78, 0
1, 4200, Note_on_c, 0, 79, 75
1, 4221, Note_on_c, 1, 62, 0
1, 4221, Note_on_c, 1, 55, 0
1, 4223, Note_on_c, 0, 79, 0
1, 4224, Note_on_c, 0, 81, 75
1, 4247, Note_on_c, 0, 81, 0
1, 4248, Note_on_c, 0, 78, 75
1, 4271, Note_on_c, 0, 78, 0
1, 4272, Note_on_c, 0, 76, 75
1, 4272, Note_on_c, 1, 54, 75
1, 4295, Note_on_c, 0, 76, 0
1, 4296, Note_on_c, 0, 74, 75
1, 4317, Note_on_c, 1, 54, 0
1, 4319, Note_on_c, 0, 74, 0
1, 4320, Note_on_c, 0, 78, 75
1, 4320, Note_on_c, 1, 55, 75
1, 4327, Note_on_c, 0, 78, 0
1, 4327, Note_on_c, 0, 76, 75
1, 4334, Note_on_c, 0, 76, 0
1, 4334, Note_on_c, 0, 78, 75
1, 4341, Note_on_c, 0, 78, 0
1, 4341, Note_on_c, 0, 76, 75
1, 4348, Note_on_c, 0, 76, 0
1, 4348, Note_on_c, 0, 78, 75
1, 4355, Note_on_c, 0, 78, 0
1, 4355, Note_on_c, 0, 76, 75
1, 4362, Note_on_c, 0, 76, 0
1, 4362, Note_on_c, 0, 78, 75
1, 4365, Note_on_c, 1, 55, 0
1, 4368, Note_on_c, 1, 57, 75
1, 4369, Note_on_c, 0, 78, 0
1, 4369, Note_on_c, 0, 76, 75
1, 4376, Note_on_c, 0, 76, 0
1, 4376, Note_on_c, 0, 78, 75
1, 4383, Note_on_c, 0, 78, 0
1, 4383, Note_on_c, 0, 76, 75
1, 4390, Note_on_c, 0, 76, 0
1, 4390, Note_on_c, 0, 74, 75
1, 4404, Note_on_c, 0, 74, 0
1, 4404, Note_on_c, 0, 76, 75
1, 4413, Note_on_c, 1, 57, 0
1, 4416, Note_on_c, 0, 76, 0
1, 4416, Note_on_c, 0, 74, 75
1, 4416, Note_on_c, 1, 50, 75
1, 4461, Note_on_c, 1, 50, 0
1, 4464, Note_on_c, 1, 45, 75
1, 4505, Note_on_c, 0, 74, 0
1, 4509, Note_on_c, 1, 45, 0
1, 4512, Note_on_c, 1, 38, 75
1, 4601, Note_on_c, 1, 38, 0
1, 4608, Note_on_c, 0, 69, 75
1, 4608, Note_on_c, 1, 45, 75
1, 4608, Note_on_c, 1, 33, 75
1, 4697, Note_on_c, 0, 69, 0
1, 4697, Note_on_c, 1, 45, 0
1, 4697, Note_on_c, 1, 33, 0
1, 4704, Note_on_c, 0, 61, 76
1, 4704, Note_on_c, 1, 45, 76
1, 4749, Note_on_c, 0, 61, 0
1, 4749, Note_on_c, 1, 45, 0
1, 4752, Note_on_c, 0, 62, 77
1, 4752, Note_on_c, 1, 47, 77
1, 4758, Note_on_c, 0, 62, 0
1, 4758, Note_on_c, 0, 64, 77
1, 4764, Note_on_c, 0, 64, 0
1, 4764, Note_on_c, 0, 62, 77
1, 4797, Note_on_c, 0, 62, 0
1, 4797, Note_on_c, 1, 47, 0
1, 4800, Note_on_c, 0, 64, 78
1, 4800, Note_on_c, 1, 49, 78
1, 4845, Note_on_c, 0, 64, 0
1, 4845, Note_on_c, 1, 49, 0
1, 4848, Note_on_c, 0, 66, 79
1, 4848, Note_on_c, 1, 50, 79
1, 4854, Note_on_c, 0, 66, 0
1, 4854, Note_on_c, 0, 67, 79
1, 4860, Note_on_c, 0, 67, 0
1, 4860, Note_on_c, 0, 66, 79
1, 4893, Note_on_c, 0, 66, 0
1, 4893, Note_on_c, 1, 50, 0
1, 4896, Note_on_c, 0, 67, 80
1, 4896, Note_on_c, 1, 52, 80
1, 4941, Note_on_c, 1, 52, 0
1, 4944, Note_on_c, 1, 45, 81
1, 4985, Note_on_c, 0, 67, 0
1, 4989, Note_on_c, 1, 45, 0
1, 4992, Note_on_c, 0, 66, 82
1, 4992, Note_on_c, 1, 50, 82
1, 5015, Note_on_c, 0, 66, 0
1, 5016, Note_on_c, 0, 62, 82
1, 5039, Note_on_c, 0, 62, 0
1, 5040, Note_on_c, 0, 69, 83
1, 5040, Note_on_c, 0, 66, 83
1, 5081, Note_on_c, 1, 50, 0
1, 5085, Note_on_c, 0, 69, 0
1, 5085, Note_on_c, 0, 66, 0
1, 5088, Note_on_c, 0, 67, 84
1, 5088, Note_on_c, 0, 64, 84
1, 5133, Note_on_c, 0, 67, 0
1, 5133, Note_on_c, 0, 64, 0
1, 5136, Note_on_c, 0, 66, 81
1, 5136, Note_on_c, 0, 62, 81
1, 5136, Note_on_c, 1, 50, 81
1, 5181, Note_on_c, 0, 66, 0
1, 5181, Note_on_c, 0, 62, 0
1, 5181, Note_on_c, 1, 50, 0
1, 5184, Note_on_c, 0, 64, 79
1, 5184, Note_on_c, 0, 61, 79
1, 5184, Note_on_c, 1, 57, 78
1, 5229, Note_on_c, 1, 57, 0
1, 5232, Note_on_c, 1, 45, 75
1, 5273, Note_on_c, 0, 64, 0
1, 5273, Note_on_c, 0, 61, 0
1, 5277, Note_on_c, 1, 45, 0
1, 5280, Note_on_c, 1, 57, 75
1, 5303, Note_on_c, 1, 57, 0
1, 5304, Note_on_c, 1, 55, 75
1, 5327, Note_on_c, 1, 55, 0
1, 5328, Note_on_c, 1, 54, 75
1, 5351, Note_on_c, 1, 54, 0
1, 5352, Note_on_c, 1, 52, 75
1, 5375, Note_on_c, 1, 52, 0
1, 5376, Note_on_c, 0, 74, 75
1, 5376, Note_on_c, 1, 50, 75
1, 5421, Note_on_c, 1, 50, 0
1, 5424, Note_on_c, 1, 62, 75
1, 5424, Note_on_c, 1, 54, 75
1, 5465, Note_on_c, 0, 74, 0
1, 5469, Note_on_c, 1, 62, 0
1, 5469, Note_on_c, 1, 54, 0
1, 5472, Note_on_c, 0, 78, 75
1, 5472, Note_on_c, 1, 62, 75
1, 5472, Note_on_c, 1, 54, 75
1, 5495, Note_on_c, 0, 78, 0
1, 5496, Note_on_c, 0, 74, 75
1, 5517, Note_on_c, 1, 62, 0
1, 5517, Note_on_c, 1, 54, 0
1, 5519, Note_on_c, 0, 74, 0
1, 5520, Note_on_c, 0, 73, 75
1, 5520, Note_on_c, 1, 62, 75
1, 5520, Note_on_c, 1, 54, 75
1, 5543, Note_on_c, 0, 73, 0
1, 5544, Note_on_c, 0, 74, 75
1, 5565, Note_on_c, 1, 62, 0
1, 5565, Note_on_c, 1, 54, 0
1, 5567, Note_on_c, 0, 74, 0
1, 5568, Note_on_c, 0, 71, 75
1, 5616, Note_on_c, 1, 62, 75
1, 5616, Note_on_c, 1, 55, 75
1, 5657, Note_on_c, 0, 71, 0
1, 5661, Note_on_c, 1, 62, 0
1, 5661, Note_on_c, 1, 55, 0
1, 5664, Note_on_c, 0, 83, 75
1, 5664, Note_on_c, 1, 62, 75
1, 5664, Note_on_c, 1, 55, 75
1, 5687, Note_on_c, 0, 83, 0
1, 5688, Note_on_c, 0, 79, 75
1, 5709, Note_on_c, 1, 62, 0
1, 5709, Note_on_c, 1, 55, 0
1, 5711, Note_on_c, 0, 79, 0
1, 5712, Note_on_c, 0, 78, 75
1, 5712, Note_on_c, 1, 62, 75
1, 5712, Note_on_c, 1, 55, 75
1, 5735, Note_on_c, 0, 78, 0
1, 5736, Note_on_c, 0, 79, 75
1, 5757, Note_on_c, 1, 62, 0
1, 5757, Note_on_c, 1, 55, 0
1, 5759, Note_on_c, 0, 79, 0
1, 5760, Note_on_c, 0, 81, 75
1, 5783, Note_on_c, 0, 81, 0
1, 5784, Note_on_c, 0, 78, 75
1, 5807, Note_on_c, 0, 78, 0
1, 5808, Note_on_c, 0, 76, 75
1, 5808, Note_on_c, 1, 54, 75
1, 5831, Note_on_c, 0, 76, 0
1, 5832, Note_on_c, 0, 74, 75
1, 5853, Note_on_c, 1, 54, 0
1, 5855, Note_on_c, 0, 74, 0
1, 5856, Note_on_c, 0, 78, 75
1, 5856, Note_on_c, 1, 55, 75
1, 5863, Note_on_c, 0, 78, 0
1, 5863, Note_on_c, 0, 76, 75
1, 5870, Note_on_c, 0, 76, 0
1, 5870, Note_on_c, 0, 78, 75
1, 5877, Note_on_c, 0, 78, 0
1, 5877, Note_on_c, 0, 76, 75
1, 5884, Note_on_c, 0, 76, 0
1, 5884, Note_on_c, 0, 78, 75
1, 5891, Note_on_c, 0, 78, 0
1, 5891, Note_on_c, 0, 76, 75
1, 5898, Note_on_c, 0, 76, 0
1, 5898, Note_on_c, 0, 78, 75
1, 5901, Note_on_c, 1, 55, 0
1, 5904, Note_on_c, 1, 57, 75
1, 5905, Note_on_c, 0, 78, 0
1, 5905, Note_on_c, 0, 76, 75
1, 5912, Note_on_c, 0, 76, 0
1, 5912, Note_on_c, 0, 78, 75
1, 5919, Note_on_c, 0, 78, 0
1, 5919, Note_on_c, 0, 76, 75
1, 5926, Note_on_c, 0, 76, 0
1, 5926, Note_on_c, 0, 74, 75
1, 5940, Note_on_c, 0, 74, 0
1, 5940, Note_on_c, 0, 76, 75
1, 5949, Note_on_c, 1, 57, 0
1, 5952, Note_on_c, 0, 76, 0
1, 5952, Note_on_c, 0, 74, 75
1, 5952, Note_on_c, 1, 50, 75
1, 5997, Note_on_c, 1, 50, 0
1, 6000, Note_on_c, 1, 45, 75
1, 6041, Note_on_c, 0, 74, 0
1, 6045, Note_on_c, 1, 45, 0
1, 6048, Note_on_c, 1, 38, 75
1, 6137, Note_on_c, 1, 38, 0
1, 6144, Note_on_c, 0, 62, 75
1, 6167, Note_on_c, 0, 62, 0
1, 6168, Note_on_c, 0, 66, 77
1, 6191, Note_on_c, 0, 66, 0
1, 6192, Note_on_c, 0, 69, 79
1, 6192, Note_on_c, 1, 50, 75
1, 6215, Note_on_c, 0, 69, 0
1, 6216, Note_on_c, 0, 74, 81
1, 6237, Note_on_c, 1, 50, 0
1, 6239, Note_on_c, 0, 74, 0
1, 6240, Note_on_c, 0, 78, 84
1, 6240, Note_on_c, 1, 54, 75
1, 6263, Note_on_c, 0, 78, 0
1, 6264, Note_on_c, 0, 81, 81
1, 6285, Note_on_c, 1, 54, 0
1, 6287, Note_on_c, 0, 81, 0
1, 6288, Note_on_c, 0, 83, 79
1, 6288, Note_on_c, 1, 55, 75
1, 6311, Note_on_c, 0, 83, 0
1, 6312, Note_on_c, 0, 74, 77
1, 6333, Note_on_c, 1, 55, 0
1, 6335, Note_on_c, 0, 74, 0
1, 6336, Note_on_c, 0, 76, 75
1, 6336, Note_on_c, 1, 57, 75
1, 6342, Note_on_c, 0, 76, 0
1, 6342, Note_on_c, 0, 74, 75
1, 6348, Note_on_c, 0, 74, 0
1, 6348, Note_on_c, 0, 73, 75
1, 6354, Note_on_c, 0, 73, 0
1, 6354, Note_on_c, 0, 74, 75
1, 6381, Note_on_c, 1, 57, 0
1, 6384, Note_on_c, 1, 45, 75
1, 6425, Note_on_c, 0, 74, 0
1, 6429, Note_on_c, 1, 45, 0
1, 6432, Note_on_c, 0, 73, 75
1, 6432, Note_on_c, 1, 57, 75
1, 6455, Note_on_c, 0, 73, 0
1, 6456, Note_on_c, 0, 76, 79
1, 6477, Note_on_c, 1, 57, 0
1, 6479, Note_on_c, 0, 76, 0
1, 6480, Note_on_c, 0, 81, 84
1, 6480, Note_on_c, 1, 55, 75
1, 6503, Note_on_c, 0, 81, 0
1, 6504, Note_on_c, 0, 73, 79
1, 6525, Note_on_c, 1, 55, 0
1, 6527, Note_on_c, 0, 73, 0
1, 6528, Note_on_c, 0, 74, 75
1, 6528, Note_on_c, 1, 54, 75
1, 6551, Note_on_c, 0, 74, 0
1, 6552, Note_on_c, 0, 69, 76
1, 6573, Note_on_c, 1, 54, 0
1, 6575, Note_on_c, 0, 69, 0
1, 6576, Note_on_c, 0, 78, 77
1, 6576, Note_on_c, 1, 50, 75
1, 6599, Note_on_c, 0, 78, 0
1, 6600, Note_on_c, 0, 69, 78
1, 6621, Note_on_c, 1, 50, 0
1, 6623, Note_on_c, 0, 69, 0
1, 6624, Note_on_c, 0, 69, 79
1, 6624, Note_on_c, 1, 52, 75
1, 6647, Note_on_c, 0, 69, 0
1, 6648, Note_on_c, 0, 67, 80
1, 6669, Note_on_c, 1, 52, 0
1, 6671, Note_on_c, 0, 67, 0
1, 6672, Note_on_c, 0, 76, 81
1, 6672, Note_on_c, 1, 45, 75
1, 6695, Note_on_c, 0, 76, 0
1, 6696, Note_on_c, 0, 67, 82
1, 6717, Note_on_c, 1, 45, 0
1, 6719, Note_on_c, 0, 67, 0
1, 6720, Note_on_c, 0, 69, 83
1, 6720, Note_on_c, 1, 50, 75
1, 6727, Note_on_c, 0, 69, 0
1, 6727, Note_on_c, 0, 67, 83
1, 6734, Note_on_c, 0, 67, 0
1, 6734, Note_on_c, 0, 69, 83
1, 6741, Note_on_c, 0, 69, 0
1, 6741, Note_on_c, 0, 67, 84
1, 6748, Note_on_c, 0, 67, 0
1, 6748, Note_on_c, 0, 69, 83
1, 6755, Note_on_c, 0, 69, 0
1, 6755, Note_on_c, 0, 67, 82
1, 6762, Note_on_c, 0, 67, 0
1, 6762, Note_on_c, 0, 69, 81
1, 6765, Note_on_c, 1, 50, 0
1, 6768, Note_on_c, 1, 45, 75
1, 6769, Note_on_c, 0, 69, 0
1, 6769, Note_on_c, 0, 67, 81
1, 6776, Note_on_c, 0, 67, 0
1, 6776, Note_on_c, 0, 69, 80
1, 6783, Note_on_c, 0, 69, 0
1, 6783, Note_on_c, 0, 67, 79
1, 6790, Note_on_c, 0, 67, 0
1, 6790, Note_on_c, 0, 66, 79
1, 6804, Note_on_c, 0, 66, 0
1, 6804, Note_on_c, 0, 67, 77
1, 6813, Note_on_c, 1, 45, 0
1, 6816, Note_on_c, 0, 67, 0
1, 6816, Note_on_c, 0, 66, 75
1, 6816, Note_on_c, 1, 38, 75
1, 6839, Note_on_c, 0, 66, 0
1, 6840, Note_on_c, 0, 67, 75
1, 6863, Note_on_c, 0, 67, 0
1, 6864, Note_on_c, 0, 69, 75
1, 6887, Note_on_c, 0, 69, 0
1, 6888, Note_on_c, 0, 70, 75
1, 6905, Note_on_c, 1, 38, 0
1, 6911, Note_on_c, 0, 70, 0
1, 6912, Note_on_c, 0, 71, 75
1, 6960, Note_on_c, 1, 55, 75
1, 6960, Note_on_c, 1, 43, 75
1, 7001, Note_on_c, 0, 71, 0
1, 7005, Note_on_c, 1, 55, 0
1, 7005, Note_on_c, 1, 43, 0
1, 7008, Note_on_c, 0, 83, 75
1, 7008, Note_on_c, 1, 55, 75
1, 7008, Note_on_c, 1, 43, 75
1, 7031, Note_on_c, 0, 83, 0
1, 7032, Note_on_c, 0, 79, 75
1, 7053, Note_on_c, 1, 55, 0
1, 7053, Note_on_c, 1, 43, 0
1, 7055, Note_on_c, 0, 79, 0
1, 7056, Note_on_c, 0, 75, 75
1, 7056, Note_on_c, 1, 55, 75
1, 7056, Note_on_c, 1, 43, 75
1, 7079, Note_on_c, 0, 75, 0
1, 7080, Note_on_c, 0, 76, 75
1, 7101, Note_on_c, 1, 55, 0
1, 7101, Note_on_c, 1, 43, 0
1, 7103, Note_on_c, 0, 76, 0
1, 7104, Note_on_c, 0, 69, 75
1, 7152, Note_on_c, 1, 54, 75
1, 7152, Note_on_c, 1, 42, 75
1, 7193, Note_on_c, 0, 69, 0
1, 7197, Note_on_c, 1, 54, 0
1, 7197, Note_on_c, 1, 42, 0
1, 7200, Note_on_c, 0, 81, 75
1, 7200, Note_on_c, 1, 54, 75
1, 7200, Note_on_c, 1, 42, 75
1, 7223, Note_on_c, 0, 81, 0
1, 7224, Note_on_c, 0, 78, 75
1, 7245, Note_on_c, 1, 54, 0
1, 7245, Note_on_c, 1, 42, 0
1, 7247, Note_on_c, 0, 78, 0
1, 7248, Note_on_c, 0, 73, 75
1, 7248, Note_on_c, 1, 54, 75
1, 7248, Note_on_c, 1, 42, 75
1, 7271, Note_on_c, 0, 73, 0
1, 7272, Note_on_c, 0, 74, 75
1, 7293, Note_on_c, 1, 54, 0
1, 7293, Note_on_c, 1, 42, 0
1, 7295, Note_on_c, 0, 74, 0
1, 7296, Note_on_c, 0, 79, 75
1, 7319, Note_on_c, 0, 79, 0
1, 7320, Note_on_c, 0, 76, 75
1, 7343, Note_on_c, 0, 76, 0
1, 7344, Note_on_c, 0, 73, 75
1, 7344, Note_on_c, 1, 52, 75
1, 7367, Note_on_c, 0, 73, 0
1, 7368, Note_on_c, 0, 67, 75
1, 7389, Note_on_c, 1, 52, 0
1, 7391, Note_on_c, 0, 67, 0
1, 7392, Note_on_c, 0, 76, 75
1, 7392, Note_on_c, 1, 49, 75
1, 7415, Note_on_c, 0, 76, 0
1, 7416, Note_on_c, 0, 67, 75
1, 7437, Note_on_c, 1, 49, 0
1, 7439, Note_on_c, 0, 67, 0
1, 7440, Note_on_c, 0, 66, 75
1, 7440, Note_on_c, 1, 50, 75
1, 7463, Note_on_c, 0, 66, 0
1, 7464, Note_on_c, 0, 74, 75
1, 7485, Note_on_c, 1, 50, 0
1, 7487, Note_on_c, 0, 74, 0
1, 7488, Note_on_c, 0, 66, 75
1, 7488, Note_on_c, 1, 57, 75
1, 7533, Note_on_c, 1, 57, 0
1, 7536, Note_on_c, 0, 66, 0
1, 7536, Note_on_c, 0, 64, 75
1, 7536, Note_on_c, 1, 52, 75
1, 7581, Note_on_c, 0, 64, 0
1, 7581, Note_on_c, 1, 52, 0
1, 7584, Note_on_c, 1, 45, 75
1, 7673, Note_on_c, 1, 45, 0
1, 7680, Note_on_c, 0, 62, 75
1, 7703, Note_on_c, 0, 62, 0
1, 7704, Note_on_c, 0, 66, 77
1, 7727, Note_on_c, 0, 66, 0
1, 7728, Note_on_c, 0, 69, 79
1, 7728, Note_on_c, 1, 50, 75
1, 7751, Note_on_c, 0, 69, 0
1, 7752, Note_on_c, 0, 74, 81
1, 7773, Note_on_c, 1, 50, 0
1, 7775, Note_on_c, 0, 74, 0
1, 7776, Note_on_c, 0, 78, 84
1, 7776, Note_on_c, 1, 54, 75
1, 7799, Note_on_c, 0, 78, 0
1, 7800, Note_on_c, 0, 81, 81
1, 7821, Note_on_c, 1, 54, 0
1, 7823, Note_on_c, 0, 81, 0
1, 7824, Note_on_c, 0, 83, 79
1, 7824, Note_on_c, 1, 55, 75
1, 7847, Note_on_c, 0, 83, 0
1, 7848, Note_on_c, 0, 74, 77
1, 7869, Note_on_c, 1, 55, 0
1, 7871, Note_on_c, 0, 74, 0
1, 7872, Note_on_c, 0, 76, 75
1, 7872, Note_on_c, 1, 57, 75
1, 7878, Note_on_c, 0, 76, 0
1, 7878, Note_on_c, 0, 74, 75
1, 7884, Note_on_c, 0, 74, 0
1, 7884, Note_on_c, 0, 73, 75
1, 7890, Note_on_c, 0, 73, 0
1, 7890, Note_on_c, 0, 74, 75
1, 7917, Note_on_c, 1, 57, 0
1, 7920, Note_on_c, 1, 45, 75
1, 7961, Note_on_c, 0, 74, 0
1, 7965, Note_on_c, 1, 45, 0
1, 7968, Note_on_c, 0, 73, 75
1, 7968, Note_on_c, 1, 57, 75
1, 7991, Note_on_c, 0, 73, 0
1, 7992, Note_on_c, 0, 76, 79
1, 8013, Note_on_c, 1, 57, 0
1, 8015, Note_on_c, 0, 76, 0
1, 8016, Note_on_c, 0, 81, 84
1, 8016, Note_on_c, 1, 55, 75
1, 8039, Note_on_c, 0, 81, 0
1, 8040, Note_on_c, 0, 73, 79
1, 8061, Note_on_c, 1, 55, 0
1, 8063, Note_on_c, 0, 73, 0
1, 8064, Note_on_c, 0, 74, 75
1, 8064, Note_on_c, 1, 54, 75
1, 8087, Note_on_c, 0, 74, 0
1, 8088, Note_on_c, 0, 69, 76
1, 8109, Note_on_c, 1, 54, 0
1, 8111, Note_on_c, 0, 69, 0
1, 8112, Note_on_c, 0, 78, 77
1, 8112, Note_on_c, 1, 50, 75
1, 8135, Note_on_c, 0, 78, 0
1, 8136, Note_on_c, 0, 69, 78
1, 8157, Note_on_c, 1, 50, 0
1, 8159, Note_on_c, 0, 69, 0
1, 8160, Note_on_c, 0, 69, 79
1, 8160, Note_on_c, 1, 52, 75
1, 8183, Note_on_c, 0, 69, 0
1, 8184, Note_on_c, 0, 67, 80
1, 8205, Note_on_c, 1, 52, 0
1, 8207, Note_on_c, 0, 67, 0
1, 8208, Note_on_c, 0, 76, 81
1, 8208, Note_on_c, 1, 45, 75
1, 8231, Note_on_c, 0, 76, 0
1, 8232, Note_on_c, 0, 67, 82
1, 8253, Note_on_c, 1, 45, 0
1, 8255, Note_on_c, 0, 67, 0
1, 8256, Note_on_c, 0, 69, 83
1, 8256, Note_on_c, 1, 50, 75
1, 8263, Note_on_c, 0, 69, 0
1, 8263, Note_on_c, 0, 67, 83
1, 8270, Note_on_c, 0, 67, 0
1, 8270, Note_on_c, 0, 69, 83
1, 8277, Note_on_c, 0, 69, 0
1, 8277, Note_on_c, 0, 67, 84
1, 8284, Note_on_c, 0, 67, 0
1, 8284, Note_on_c, 0, 69, 83
1, 8291, Note_on_c, 0, 69, 0
1, 8291, Note_on_c, 0, 67, 82
1, 8298, Note_on_c, 0, 67, 0
1, 8298, Note_on_c, 0, 69, 81
1, 8301, Note_on_c, 1, 50, 0
1, 8304, Note_on_c, 1, 45, 75
1, 8305, Note_on_c, 0, 69, 0
1, 8305, Note_on_c, 0, 67, 81
1, 8312, Note_on_c, 0, 67, 0
1, 8312, Note_on_c, 0, 69, 80
1, 8319, Note_on_c, 0, 69, 0
1, 8319, Note_on_c, 0, 67, 79
1, 8326, Note_on_c, 0, 67, 0
1, 8326, Note_on_c, 0, 66, 79
1, 8340, Note_on_c, 0, 66, 0
1, 8340, Note_on_c, 0, 67, 77
1, 8349, Note_on_c, 1, 45, 0
1, 8352, Note_on_c, 0, 67, 0
1, 8352, Note_on_c, 0, 66, 75
1, 8352, Note_on_c, 1, 38, 75
1, 8375, Note_on_c, 0, 66, 0
1, 8376, Note_on_c, 0, 67, 75
1, 8399, Note_on_c, 0, 67, 0
1, 8400, Note_on_c, 0, 69, 75
1, 8423, Note_on_c, 0, 69, 0
1, 8424, Note_on_c, 0, 70, 75
1, 8441, Note_on_c, 1, 38, 0
1, 8447, Note_on_c, 0, 70, 0
1, 8448, Note_on_c, 0, 71, 75
1, 8496, Note_on_c, 1, 55, 75
1, 8496, Note_on_c, 1, 43, 75
1, 8537, Note_on_c, 0, 71, 0
1, 8541, Note_on_c, 1, 55, 0
1, 8541, Note_on_c, 1, 43, 0
1, 8544, Note_on_c, 0, 83, 75
1, 8544, Note_on_c, 1, 55, 75
1, 8544, Note_on_c, 1, 43, 75
1, 8567, Note_on_c, 0, 83, 0
1, 8568, Note_on_c, 0, 79, 75
1, 8589, Note_on_c, 1, 55, 0
1, 8589, Note_on_c, 1, 43, 0
1, 8591, Note_on_c, 0, 79, 0
1, 8592, Note_on_c, 0, 75, 75
1, 8592, Note_on_c, 1, 55, 75
1, 8592, Note_on_c, 1, 43, 75
1, 8615, Note_on_c, 0, 75, 0
1, 8616, Note_on_c, 0, 76, 75
1, 8637, Note_on_c, 1, 55, 0
1, 8637, Note_on_c, 1, 43, 0
1, 8639, Note_on_c, 0, 76, 0
1, 8640, Note_on_c, 0, 69, 75
1, 8688, Note_on_c, 1, 54, 75
1, 8688, Note_on_c, 1, 42, 75
1, 8729, Note_on_c, 0, 69, 0
1, 8733, Note_on_c, 1, 54, 0
1, 8733, Note_on_c, 1, 42, 0
1, 8736, Note_on_c, 0, 81, 75
1, 8736, Note_on_c, 1, 54, 75
1, 8736, Note_on_c, 1, 42, 75
1, 8759, Note_on_c, 0, 81, 0
1, 8760, Note_on_c, 0, 78, 75
1, 8781, Note_on_c, 1, 54, 0
1, 8781, Note_on_c, 1, 42, 0
1, 8783, Note_on_c, 0, 78, 0
1, 8784, Note_on_c, 0, 73, 75
1, 8784, Note_on_c, 1, 54, 75
1, 8784, Note_on_c, 1, 42, 75
1, 8807, Note_on_c, 0, 73, 0
1, 8808, Note_on_c, 0, 74, 75
1, 8829, Note_on_c, 1, 54, 0
1, 8829, Note_on_c, 1, 42, 0
1, 8831, Note_on_c, 0, 74, 0
1, 8832, Note_on_c, 0, 79, 75
1, 8855, Note_on_c, 0, 79, 0
1, 8856, Note_on_c, 0, 76, 75
1, 8879, Note_on_c, 0, 76, 0
1, 8880, Note_on_c, 0, 73, 75
1, 8880, Note_on_c, 1, 52, 75
1, 8903, Note_on_c, 0, 73, 0
1, 8904, Note_on_c, 0, 67, 75
1, 8925, Note_on_c, 1, 52, 0
1, 8927, Note_on_c, 0, 67, 0
1, 8928, Note_on_c, 0, 76, 75
1, 8928, Note_on_c, 1, 49, 75
1, 8951, Note_on_c, 0, 76, 0
1, 8952, Note_on_c, 0, 67, 75
1, 8973, Note_on_c, 1, 49, 0
1, 8975, Note_on_c, 0, 67, 0
1, 8976, Note_on_c, 0, 66, 75
1, 8976, Note_on_c, 1, 50, 75
1, 8999, Note_on_c, 0, 66, 0
1, 9000, Note_on_c, 0, 74, 75
1, 9021, Note_on_c, 1, 50, 0
1, 9023, Note_on_c, 0, 74, 0
1, 9024, Note_on_c, 0, 66, 75
1, 9024, Note_on_c, 1, 57, 75
1, 9069, Note_on_c, 1, 57, 0
1, 9072, Note_on_c, 0, 66, 0
1, 9072, Note_on_c, 0, 64, 75
1, 9072, Note_on_c, 1, 52, 75
1, 9117, Note_on_c, 0, 64, 0
1, 9117, Note_on_c, 1, 52, 0
1, 9120, Note_on_c, 1, 45, 75
1, 9209, Note_on_c, 1, 45, 0
1, 9216, Note_on_c, 0, 61, 75
1, 9216, Note_on_c, 1, 45, 75
1, 9216, Note_on_c, 1, 33, 75
1, 9239, Note_on_c, 0, 61, 0
1, 9240, Note_on_c, 0, 64, 75
1, 9263, Note_on_c, 0, 64, 0
1, 9264, Note_on_c, 0, 69, 75
1, 9287, Note_on_c, 0, 69, 0
1, 9288, Note_on_c, 0, 64, 76
1, 9305, Note_on_c, 1, 45, 0
1, 9305, Note_on_c, 1, 33, 0
1, 9311, Note_on_c, 0, 64, 0
1, 9312, Note_on_c, 0, 61, 76
1, 9312, Note_on_c, 1, 45, 76
1, 9335, Note_on_c, 0, 61, 0
1, 9336, Note_on_c, 0, 69, 77
1, 9357, Note_on_c, 1, 45, 0
1, 9359, Note_on_c, 0, 69, 0
1, 9360, Note_on_c, 0, 62, 77
1, 9360, Note_on_c, 1, 47, 77
1, 9383, Note_on_c, 0, 62, 0
1, 9384, Note_on_c, 0, 69, 78
1, 9405, Note_on_c, 1, 47, 0
1, 9407, Note_on_c, 0, 69, 0
1, 9408, Note_on_c, 0, 64, 78
1, 9408, Note_on_c, 1, 49, 78
1, 9431, Note_on_c, 0, 64, 0
1, 9432, Note_on_c, 0, 69, 78
1, 9453, Note_on_c, 1, 49, 0
1, 9455, Note_on_c, 0, 69, 0
1, 9456, Note_on_c, 0, 66, 79
1, 9456, Note_on_c, 1, 50, 79
1, 9479, Note_on_c, 0, 66, 0
1, 9480, Note_on_c, 0, 69, 79
1, 9501, Note_on_c, 1, 50, 0
1, 9503, Note_on_c, 0, 69, 0
1, 9504, Note_on_c, 0, 67, 80
1, 9504, Note_on_c, 1, 52, 80
1, 9527, Note_on_c, 0, 67, 0
1, 9528, Note_on_c, 0, 69, 80
1, 9549, Note_on_c, 1, 52, 0
1, 9551, Note_on_c, 0, 69, 0
1, 9552, Note_on_c, 0, 64, 81
1, 9552, Note_on_c, 1, 45, 81
1, 9575, Note_on_c, 0, 64, 0
1, 9576, Note_on_c, 0, 69, 81
1, 9597, Note_on_c, 1, 45, 0
1, 9599, Note_on_c, 0, 69, 0
1, 9600, Note_on_c, 0, 66, 81
1, 9600, Note_on_c, 1, 50, 82
1, 9623, Note_on_c, 0, 66, 0
1, 9624, Note_on_c, 0, 69, 82
1, 9647, Note_on_c, 0, 69, 0
1, 9648, Note_on_c, 0, 74, 82
1, 9671, Note_on_c, 0, 74, 0
1, 9672, Note_on_c, 0, 69, 83
1, 9689, Note_on_c, 1, 50, 0
1, 9695, Note_on_c, 0, 69, 0
1, 9696, Note_on_c, 0, 67, 83
1, 9719, Note_on_c, 0, 67, 0
1, 9720, Note_on_c, 0, 64, 84
1, 9743, Note_on_c, 0, 64, 0
1, 9744, Note_on_c, 0, 66, 82
1, 9744, Note_on_c, 1, 50, 84
1, 9767, Note_on_c, 0, 66, 0
1, 9768, Note_on_c, 0, 62, 81
1, 9789, Note_on_c, 1, 50, 0
1, 9791, Note_on_c, 0, 62, 0
1, 9792, Note_on_c, 0, 61, 80
1, 9792, Note_on_c, 1, 57, 81
1, 9815, Note_on_c, 0, 61, 0
1, 9816, Note_on_c, 0, 69, 78
1, 9837, Note_on_c, 1, 57, 0
1, 9839, Note_on_c, 0, 69, 0
1, 9840, Note_on_c, 0, 57, 77
1, 9840, Note_on_c, 1, 45, 78
1, 9885, Note_on_c, 0, 57, 0
1, 9885, Note_on_c, 1, 45, 0
1, 9888, Note_on_c, 1, 57, 75
1, 9911, Note_on_c, 1, 57, 0
1, 9912, Note_on_c, 1, 55, 75
1, 9935, Note_on_c, 1, 55, 0
1, 9936, Note_on_c, 1, 54, 75
1, 9959, Note_on_c, 1, 54, 0
1, 9960, Note_on_c, 1, 52, 75
1, 9983, Note_on_c, 1, 52, 0
1, 9984, Note_on_c, 0, 62, 75
1, 9984, Note_on_c, 1, 50, 75
1, 10007, Note_on_c, 0, 62, 0
1, 10008, Note_on_c, 0, 66, 77
1, 10029, Note_on_c, 1, 50, 0
1, 10031, Note_on_c, 0, 66, 0
1, 10032, Note_on_c, 0, 69, 79
1, 10032, Note_on_c, 1, 62, 75
1, 10032, Note_on_c, 1, 54, 75
1, 10055, Note_on_c, 0, 69, 0
1, 10056, Note_on_c, 0, 74, 81
1, 10077, Note_on_c, 1, 62, 0
1, 10077, Note_on_c, 1, 54, 0
1, 10079, Note_on_c, 0, 74, 0
1, 10080, Note_on_c, 0, 78, 84
1, 10080, Note_on_c, 1, 62, 75
1, 10080, Note_on_c, 1, 54, 75
1, 10103, Note_on_c, 0, 78, 0
1, 10104, Note_on_c, 0, 81, 81
1, 10125, Note_on_c, 1, 62, 0
1, 10125, Note_on_c, 1, 54, 0
1, 10127, Note_on_c, 0, 81, 0
1, 10128, Note_on_c, 0, 86, 79
1, 10128, Note_on_c, 1, 62, 75
1, 10128, Note_on_c, 1, 54, 75
1, 10151, Note_on_c, 0, 86, 0
1, 10152, Note_on_c, 0, 81, 77
1, 10173, Note_on_c, 1, 62, 0
1, 10173, Note_on_c, 1, 54, 0
1, 10175, Note_on_c, 0, 81, 0
1, 10176, Note_on_c, 0, 83, 75
1, 10199, Note_on_c, 0, 83, 0
1, 10200, Note_on_c, 0, 74, 78
1, 10223, Note_on_c, 0, 74, 0
1, 10224, Note_on_c, 0, 79, 81
1, 10224, Note_on_c, 1, 62, 75
1, 10224, Note_on_c, 1, 55, 75
1, 10247, Note_on_c, 0, 79, 0
1, 10248, Note_on_c, 0, 83, 84
1, 10269, Note_on_c, 1, 62, 0
1, 10269, Note_on_c, 1, 55, 0
1, 10271, Note_on_c, 0, 83, 0
1, 10272, Note_on_c, 0, 86, 82
1, 10272, Note_on_c, 1, 62, 75
1, 10272, Note_on_c, 1, 55, 75
1, 10295, Note_on_c, 0, 86, 0
1, 10296, Note_on_c, 0, 83, 80
1, 10317, Note_on_c, 1, 62, 0
1, 10317, Note_on_c, 1, 55, 0
1, 10319, Note_on_c, 0, 83, 0
1, 10320, Note_on_c, 0, 81, 78
1, 10320, Note_on_c, 1, 62, 75
1, 10320, Note_on_c, 1, 55, 75
1, 10343, Note_on_c, 0, 81, 0
1, 10344, Note_on_c, 0, 79, 76
1, 10365, Note_on_c, 1, 62, 0
1, 10365, Note_on_c, 1, 55, 0
1, 10367, Note_on_c, 0, 79, 0
1, 10368, Note_on_c, 0, 81, 75
1, 10391, Note_on_c, 0, 81, 0
1, 10392, Note_on_c, 0, 86, 75
1, 10415, Note_on_c, 0, 86, 0
1, 10416, Note_on_c, 0, 74, 75
1, 10416, Note_on_c, 1, 54, 75
1, 10439, Note_on_c, 0, 74, 0
1, 10440, Note_on_c, 0, 76, 75
1, 10461, Note_on_c, 1, 54, 0
1, 10463, Note_on_c, 0, 76, 0
1, 10464, Note_on_c, 0, 78, 75
1, 10464, Note_on_c, 1, 55, 75
1, 10471, Note_on_c, 0, 78, 0
1, 10471, Note_on_c, 0, 76, 75
1, 10478, Note_on_c, 0, 76, 0
1, 10478, Note_on_c, 0, 78, 75
1, 10485, Note_on_c, 0, 78, 0
1, 10485, Note_on_c, 0, 76, 75
1, 10492, Note_on_c, 0, 76, 0
1, 10492, Note_on_c, 0, 78, 75
1, 10499, Note_on_c, 0, 78, 0
1, 10499, Note_on_c, 0, 76, 75
1, 10506, Note_on_c, 0, 76, 0
1, 10506, Note_on_c, 0, 78, 75
1, 10509, Note_on_c, 1, 55, 0
1, 10512, Note_on_c, 1, 57, 75
1, 10513, Note_on_c, 0, 78, 0
1, 10513, Note_on_c, 0, 76, 75
1, 10520, Note_on_c, 0, 76, 0
1, 10520, Note_on_c, 0, 78, 75
1, 10527, Note_on_c, 0, 78, 0
1, 10527, Note_on_c, 0, 76, 75
1, 10534, Note_on_c, 0, 76, 0
1, 10534, Note_on_c, 0, 74, 75
1, 10548, Note_on_c, 0, 74, 0
1, 10548, Note_on_c, 0, 76, 75
1, 10557, Note_on_c, 1, 57, 0
1, 10560, Note_on_c, 0, 76, 0
1, 10560, Note_on_c, 0, 74, 75
1, 10560, Note_on_c, 1, 50, 75
1, 10605, Note_on_c, 1, 50, 0
1, 10608, Note_on_c, 1, 45, 75
1, 10649, Note_on_c, 0, 74, 0
1, 10653, Note_on_c, 1, 45, 0
1, 10656, Note_on_c, 1, 38, 75
1, 10745, Note_on_c, 1, 38, 0
1, 10752, Note_on_c, 0, 61, 75
1, 10752, Note_on_c, 1, 45, 75
1, 10752, Note_on_c, 1, 33, 75
1, 10775, Note_on_c, 0, 61, 0
1, 10776, Note_on_c, 0, 64, 75
1, 10799, Note_on_c, 0, 64, 0
1, 10800, Note_on_c, 0, 69, 75
1, 10823, Note_on_c, 0, 69, 0
1, 10824, Note_on_c, 0, 64, 76
1, 10841, Note_on_c, 1, 45, 0
1, 10841, Note_on_c, 1, 33, 0
1, 10847, Note_on_c, 0, 64, 0
1, 10848, Note_on_c, 0, 61, 76
1, 10848, Note_on_c, 1, 45, 76
1, 10871, Note_on_c, 0, 61, 0
1, 10872, Note_on_c, 0, 69, 77
1, 10893, Note_on_c, 1, 45, 0
1, 10895, Note_on_c, 0, 69, 0
1, 10896, Note_on_c, 0, 62, 77
1, 10896, Note_on_c, 1, 47, 77
1, 10919, Note_on_c, 0, 62, 0
1, 10920, Note_on_c, 0, 69, 78
1, 10941, Note_on_c, 1, 47, 0
1, 10943, Note_on_c, 0, 69, 0
1, 10944, Note_on_c, 0, 64, 78
1, 10944, Note_on_c, 1, 49, 78
1, 10967, Note_on_c, 0, 64, 0
1, 10968, Note_on_c, 0, 69, 78
1, 10989, Note_on_c, 1, 49, 0
1, 10991, Note_on_c, 0, 69, 0
1, 10992, Note_on_c, 0, 66, 79
1, 10992, Note_on_c, 1, 50, 79
1, 11015, Note_on_c, 0, 66, 0
1, 11016, Note_on_c, 0, 69, 79
1, 11037, Note_on_c, 1, 50, 0
1, 11039, Note_on_c, 0, 69, 0
1, 11040, Note_on_c, 0, 67, 80
1, 11040, Note_on_c, 1, 52, 80
1, 11063, Note_on_c, 0, 67, 0
1, 11064, Note_on_c, 0, 69, 80
1, 11085, Note_on_c, 1, 52, 0
1, 11087, Note_on_c, 0, 69, 0
1, 11088, Note_on_c, 0, 64, 81
1, 11088, Note_on_c, 1, 45, 81
1, 11111, Note_on_c, 0, 64, 0
1, 11112, Note_on_c, 0, 69, 81
1, 11133, Note_on_c, 1, 45, 0
1, 11135, Note_on_c, 0, 69, 0
1, 11136, Note_on_c, 0, 66, 81
1, 11136, Note_on_c, 1, 50, 82
1, 11159, Note_on_c, 0, 66, 0
1, 11160, Note_on_c, 0, 69, 82
1, 11183, Note_on_c, 0, 69, 0
1, 11184, Note_on_c, 0, 74, 82
1, 11207, Note_on_c, 0, 74, 0
1, 11208, Note_on_c, 0, 69, 83
1, 11225, Note_on_c, 1, 50, 0
1, 11231, Note_on_c, 0, 69, 0
1, 11232, Note_on_c, 0, 67, 83
1, 11255, Note_on_c, 0, 67, 0
1, 11256, Note_on_c, 0, 64, 84
1, 11279, Note_on_c, 0, 64, 0
1, 11280, Note_on_c, 0, 66, 82
1, 11280, Note_on_c, 1, 50, 84
1, 11303, Note_on_c, 0, 66, 0
1, 11304, Note_on_c, 0, 62, 81
1, 11325, Note_on_c, 1, 50, 0
1, 11327, Note_on_c, 0, 62, 0
1, 11328, Note_on_c, 0, 61, 80
1, 11328, Note_on_c, 1, 57, 81
1, 11351, Note_on_c, 0, 61, 0
1, 11352, Note_on_c, 0, 69, 78
1, 11373, Note_on_c, 1, 57, 0
1, 11375, Note_on_c, 0, 69, 0
1, 11376, Note_on_c, 0, 57, 77
1, 11376, Note_on_c, 1, 45, 78
1, 11421, Note_on_c, 0, 57, 0
1, 11421, Note_on_c, 1, 45, 0
1, 11424, Note_on_c, 1, 57, 75
1, 11447, Note_on_c, 1, 57, 0
1, 11448, Note_on_c, 1, 55, 75
1, 11471, Note_on_c, 1, 55, 0
1, 11472, Note_on_c, 1, 54, 75
1, 11495, Note_on_c, 1, 54, 0
1, 11496, Note_on_c, 1, 52, 75
1, 11519, Note_on_c, 1, 52, 0
1, 11520, Note_on_c, 0, 62, 75
1, 11520, Note_on_c, 1, 50, 75
1, 11543, Note_on_c, 0, 62, 0
1, 11544, Note_on_c, 0, 66, 77
1, 11565, Note_on_c, 1, 50, 0
1, 11567, Note_on_c, 0, 66, 0
1, 11568, Note_on_c, 0, 69, 79
1, 11568, Note_on_c, 1, 62, 75
1, 11568, Note_on_c, 1, 54, 75
1, 11591, Note_on_c, 0, 69, 0
1, 11592, Note_on_c, 0, 74, 81
1, 11613, Note_on_c, 1, 62, 0
1, 11613, Note_on_c, 1, 54, 0
1, 11615, Note_on_c, 0, 74, 0
1, 11616, Note_on_c, 0, 78, 84
1, 11616, Note_on_c, 1, 62, 75
1, 11616, Note_on_c, 1, 54, 75
1, 11639, Note_on_c, 0, 78, 0
1, 11640, Note_on_c, 0, 81, 81
1, 11661, Note_on_c, 1, 62, 0
1, 11661, Note_on_c, 1, 54, 0
1, 11663, Note_on_c, 0, 81, 0
1, 11664, Note_on_c, 0, 86, 79
1, 11664, Note_on_c, 1, 62, 75
1, 11664, Note_on_c, 1, 54, 75
1, 11687, Note_on_c, 0, 86, 0
1, 11688, Note_on_c, 0, 81, 77
1, 11709, Note_on_c, 1, 62, 0
1, 11709, Note_on_c, 1, 54, 0
1, 11711, Note_on_c, 0, 81, 0
1, 11712, Note_on_c, 0, 83, 75
1, 11735, Note_on_c, 0, 83, 0
1, 11736, Note_on_c, 0, 74, 78
1, 11759, Note_on_c, 0, 74, 0
1, 11760, Note_on_c, 0, 79, 81
1, 11760, Note_on_c, 1, 62, 75
1, 11760, Note_on_c, 1, 55, 75
1, 11783, Note_on_c, 0, 79, 0
1, 11784, Note_on_c, 0, 83, 84
1, 11805, Note_on_c, 1, 62, 0
1, 11805, Note_on_c, 1, 55, 0
1, 11807, Note_on_c, 0, 83, 0
1, 11808, Note_on_c, 0, 86, 82
1, 11808, Note_on_c, 1, 62, 75
1, 11808, Note_on_c, 1, 55, 75
1, 11831, Note_on_c, 0, 86, 0
1, 11832, Note_on_c, 0, 83, 80
1, 11853, Note_on_c, 1, 62, 0
1, 11853, Note_on_c, 1, 55, 0
1, 11855, Note_on_c, 0, 83, 0
1, 11856, Note_on_c, 0, 81, 78
1, 11856, Note_on_c, 1, 62, 75
1, 11856, Note_on_c, 1, 55, 75
1, 11879, Note_on_c, 0, 81, 0
1, 11880, Note_on_c, 0, 79, 76
1, 11901, Note_on_c, 1, 62, 0
1, 11901, Note_on_c, 1, 55, 0
1, 11903, Note_on_c, 0, 79, 0
1, 11904, Note_on_c, 0, 81, 75
1, 11927, Note_on_c, 0, 81, 0
1, 11928, Note_on_c, 0, 86, 75
1, 11951, Note_on_c, 0, 86, 0
1, 11952, Note_on_c, 0, 74, 75
1, 11952, Note_on_c, 1, 54, 75
1, 11975, Note_on_c, 0, 74, 0
1, 11976, Note_on_c, 0, 76, 75
1, 11997, Note_on_c, 1, 54, 0
1, 11999, Note_on_c, 0, 76, 0
1, 12000, Note_on_c, 0, 78, 75
1, 12000, Note_on_c, 1, 55, 75
1, 12007, Note_on_c, 0, 78, 0
1, 12007, Note_on_c, 0, 76, 75
1, 12014, Note_on_c, 0, 76, 0
1, 12014, Note_on_c, 0, 78, 75
1, 12021, Note_on_c, 0, 78, 0
1, 12021, Note_on_c, 0, 76, 75
1, 12028, Note_on_c, 0, 76, 0
1, 12028, Note_on_c, 0, 78, 75
1, 12035, Note_on_c, 0, 78, 0
1, 12035, Note_on_c, 0, 76, 75
1, 12042, Note_on_c, 0, 76, 0
1, 12042, Note_on_c, 0, 78, 75
1, 12045, Note_on_c, 1, 55, 0
1, 12048, Note_on_c, 1, 57, 75
1, 12049, Note_on_c, 0, 78, 0
1, 12049, Note_on_c, 0, 76, 75
1, 12056, Note_on_c, 0, 76, 0
1, 12056, Note_on_c, 0, 78, 75
1, 12063, Note_on_c, 0, 78, 0
1, 12063, Note_on_c, 0, 76, 75
1, 12070, Note_on_c, 0, 76, 0
1, 12070, Note_on_c, 0, 74, 75
1, 12084, Note_on_c, 0, 74, 0
1, 12084, Note_on_c, 0, 76, 75
1, 12093, Note_on_c, 1, 57, 0
1, 12096, Note_on_c, 0, 76, 0
1, 12096, Note_on_c, 0, 74, 75
1, 12096, Note_on_c, 1, 50, 75
1, 12141, Note_on_c, 1, 50, 0
1, 12144, Note_on_c, 1, 45, 75
1, 12185, Note_on_c, 0, 74, 0
1, 12189, Note_on_c, 1, 45, 0
1, 12192, Note_on_c, 1, 38, 75
1, 12281, Note_on_c, 1, 38, 0
1, 12288, Note_on_c, 0, 81, 75
1, 12288, Note_on_c, 0, 78, 75
1, 12336, Note_on_c, 1, 50, 75
1, 12377, Note_on_c, 0, 81, 0
1, 12377, Note_on_c, 0, 78, 0
1, 12381, Note_on_c, 1, 50, 0
1, 12384, Note_on_c, 0, 86, 75
1, 12384, Note_on_c, 0, 74, 75
1, 12384, Note_on_c, 1, 54, 75
1, 12429, Note_on_c, 0, 86, 0
1, 12429, Note_on_c, 0, 74, 0
1, 12429, Note_on_c, 1, 54, 0
1, 12432, Note_on_c, 0, 83, 75
1, 12432, Note_on_c, 0, 79, 75
1, 12432, Note_on_c, 1, 55, 75
1, 12477, Note_on_c, 0, 83, 0
1, 12477, Note_on_c, 0, 79, 0
1, 12477, Note_on_c, 1, 55, 0
1, 12480, Note_on_c, 0, 81, 75
1, 12480, Note_on_c, 0, 78, 75
1, 12480, Note_on_c, 1, 57, 75
1, 12525, Note_on_c, 1, 57, 0
1, 12528, Note_on_c, 1, 45, 75
1, 12547, Note_on_c, 0, 81, 0
1, 12547, Note_on_c, 0, 78, 0
1, 12552, Note_on_c, 0, 79, 75
1, 12552, Note_on_c, 0, 76, 75
1, 12573, Note_on_c, 1, 45, 0
1, 12575, Note_on_c, 0, 79, 0
1, 12575, Note_on_c, 0, 76, 0
1, 12576, Note_on_c, 0, 78, 75
1, 12576, Note_on_c, 0, 74, 75
1, 12576, Note_on_c, 1, 57, 75
1, 12621, Note_on_c, 0, 78, 0
1, 12621, Note_on_c, 0, 74, 0
1, 12621, Note_on_c, 1, 57, 0
1, 12624, Note_on_c, 0, 81, 75
1, 12624, Note_on_c, 1, 55, 75
1, 12639, Note_on_c, 0, 81, 0
1, 12640, Note_on_c, 0, 76, 75
1, 12655, Note_on_c, 0, 76, 0
1, 12656, Note_on_c, 0, 73, 75
1, 12669, Note_on_c, 1, 55, 0
1, 12671, Note_on_c, 0, 73, 0
1, 12672, Note_on_c, 0, 74, 75
1, 12672, Note_on_c, 1, 54, 75
1, 12717, Note_on_c, 0, 74, 0
1, 12717, Note_on_c, 1, 54, 0
1, 12720, Note_on_c, 0, 78, 75
1, 12720, Note_on_c, 1, 50, 75
1, 12735, Note_on_c, 0, 78, 0
1, 12736, Note_on_c, 0, 74, 75
1, 12751, Note_on_c, 0, 74, 0
1, 12752, Note_on_c, 0, 69, 75
1, 12765, Note_on_c, 1, 50, 0
1, 12767, Note_on_c, 0, 69, 0
1, 12768, Note_on_c, 0, 69, 75
1, 12768, Note_on_c, 1, 52, 75
1, 12813, Note_on_c, 0, 69, 0
1, 12813, Note_on_c, 1, 52, 0
1, 12816, Note_on_c, 0, 67, 75
1, 12816, Note_on_c, 1, 45, 75
1, 12823, Note_on_c, 0, 67, 0
1, 12823, Note_on_c, 0, 69, 75
1, 12830, Note_on_c, 0, 69, 0
1, 12830, Note_on_c, 0, 67, 75
1, 12837, Note_on_c, 0, 67, 0
1, 12837, Note_on_c, 0, 69, 75
1, 12844, Note_on_c, 0, 69, 0
1, 12844, Note_on_c, 0, 67, 75
1, 12851, Note_on_c, 0, 67, 0
1, 12851, Note_on_c, 0, 66, 75
1, 12858, Note_on_c, 0, 66, 0
1, 12858, Note_on_c, 0, 67, 75
1, 12861, Note_on_c, 1, 45, 0
1, 12864, Note_on_c, 0, 67, 0
1, 12864, Note_on_c, 0, 67, 75
1, 12864, Note_on_c, 1, 50, 75
1, 12909, Note_on_c, 1, 50, 0
1, 12912, Note_on_c, 0, 67, 0
1, 12912, Note_on_c, 0, 66, 75
1, 12912, Note_on_c, 1, 45, 75
1, 12957, Note_on_c, 0, 66, 0
1, 12957, Note_on_c, 1, 45, 0
1, 12960, Note_on_c, 1, 38, 75
1, 13049, Note_on_c, 1, 38, 0
1, 13056, Note_on_c, 0, 83, 91
1, 13056, Note_on_c, 0, 71, 91
1, 13104, Note_on_c, 1, 55, 75
1, 13104, Note_on_c, 1, 43, 75
1, 13128, Note_on_c, 0, 83, 0
1, 13128, Note_on_c, 0, 71, 0
1, 13128, Note_on_c, 0, 83, 75
1, 13128, Note_on_c, 0, 79, 75
1, 13149, Note_on_c, 1, 55, 0
1, 13149, Note_on_c, 1, 43, 0
1, 13151, Note_on_c, 0, 83, 0
1, 13151, Note_on_c, 0, 79, 0
1, 13152, Note_on_c, 0, 81, 75
1, 13152, Note_on_c, 0, 78, 75
1, 13152, Note_on_c, 1, 55, 75
1, 13152, Note_on_c, 1, 43, 75
1, 13175, Note_on_c, 0, 81, 0
1, 13175, Note_on_c, 0, 78, 0
1, 13176, Note_on_c, 0, 79, 75
1, 13176, Note_on_c, 0, 76, 75
1, 13197, Note_on_c, 1, 55, 0
1, 13197, Note_on_c, 1, 43, 0
1, 13199, Note_on_c, 0, 79, 0
1, 13199, Note_on_c, 0, 76, 0
1, 13200, Note_on_c, 0, 78, 75
1, 13200, Note_on_c, 0, 75, 75
1, 13200, Note_on_c, 1, 55, 75
1, 13200, Note_on_c, 1, 43, 75
1, 13223, Note_on_c, 0, 78, 0
1, 13223, Note_on_c, 0, 75, 0
1, 13224, Note_on_c, 0, 79, 75
1, 13224, Note_on_c, 0, 76, 75
1, 13245, Note_on_c, 1, 55, 0
1, 13245, Note_on_c, 1, 43, 0
1, 13247, Note_on_c, 0, 79, 0
1, 13247, Note_on_c, 0, 76, 0
1, 13248, Note_on_c, 0, 81, 91
1, 13248, Note_on_c, 0, 78, 91
1, 13296, Note_on_c, 1, 54, 75
1, 13296, Note_on_c, 1, 42, 75
1, 13320, Note_on_c, 0, 81, 0
1, 13320, Note_on_c, 0, 78, 0
1, 13320, Note_on_c, 0, 81, 75
1, 13320, Note_on_c, 0, 78, 75
1, 13341, Note_on_c, 1, 54, 0
1, 13341, Note_on_c, 1, 42, 0
1, 13343, Note_on_c, 0, 81, 0
1, 13343, Note_on_c, 0, 78, 0
1, 13344, Note_on_c, 0, 79, 75
1, 13344, Note_on_c, 0, 76, 75
1, 13344, Note_on_c, 1, 54, 75
1, 13344, Note_on_c, 1, 42, 75
1, 13367, Note_on_c, 0, 79, 0
1, 13367, Note_on_c, 0, 76, 0
1, 13368, Note_on_c, 0, 78, 75
1, 13368, Note_on_c, 0, 74, 75
1, 13389, Note_on_c, 1, 54, 0
1, 13389, Note_on_c, 1, 42, 0
1, 13391, Note_on_c, 0, 78, 0
1, 13391, Note_on_c, 0, 74, 0
1, 13392, Note_on_c, 0, 76, 75
1, 13392, Note_on_c, 0, 73, 75
1, 13392, Note_on_c, 1, 54, 75
1, 13392, Note_on_c, 1, 42, 75
1, 13415, Note_on_c, 0, 76, 0
1, 13415, Note_on_c, 0, 73, 0
1, 13416, Note_on_c, 0, 78, 75
1, 13416, Note_on_c, 0, 74, 75
1, 13437, Note_on_c, 1, 54, 0
1, 13437, Note_on_c, 1, 42, 0
1, 13439, Note_on_c, 0, 78, 0
1, 13439, Note_on_c, 0, 74, 0
1, 13440, Note_on_c, 0, 79, 91
1, 13440, Note_on_c, 0, 67, 91
1, 13488, Note_on_c, 1, 52, 75
1, 13512, Note_on_c, 0, 79, 0
1, 13512, Note_on_c, 0, 67, 0
1, 13512, Note_on_c, 0, 79, 75
1, 13512, Note_on_c, 0, 71, 75
1, 13533, Note_on_c, 1, 52, 0
1, 13535, Note_on_c, 0, 79, 0
1, 13535, Note_on_c, 0, 71, 0
1, 13536, Note_on_c, 1, 49, 75
1, 13560, Note_on_c, 0, 79, 75
1, 13560, Note_on_c, 0, 69, 75
1, 13581, Note_on_c, 1, 49, 0
1, 13583, Note_on_c, 0, 79, 0
1, 13583, Note_on_c, 0, 69, 0
1, 13584, Note_on_c, 1, 50, 75
1, 13608, Note_on_c, 0, 78, 75
1, 13608, Note_on_c, 0, 74, 75
1, 13629, Note_on_c, 1, 50, 0
1, 13631, Note_on_c, 0, 78, 0
1, 13631, Note_on_c, 0, 74, 0
1, 13632, Note_on_c, 0, 78, 75
1, 13632, Note_on_c, 0, 74, 75
1, 13632, Note_on_c, 1, 57, 75
1, 13677, Note_on_c, 1, 57, 0
1, 13680, Note_on_c, 0, 78, 0
1, 13680, Note_on_c, 0, 74, 0
1, 13680, Note_on_c, 0, 76, 75
1, 13680, Note_on_c, 0, 73, 75
1, 13680, Note_on_c, 1, 52, 75
1, 13725, Note_on_c, 0, 76, 0
1, 13725, Note_on_c, 0, 73, 0
1, 13725, Note_on_c, 1, 52, 0
1, 13728, Note_on_c, 1, 45, 75
1, 13817, Note_on_c, 1, 45, 0
1, 13824, Note_on_c, 0, 81, 75
1, 13824, Note_on_c, 0, 78, 75
1, 13872, Note_on_c, 1, 50, 75
1, 13913, Note_on_c, 0, 81, 0
1, 13913, Note_on_c, 0, 78, 0
1, 13917, Note_on_c, 1, 50, 0
1, 13920, Note_on_c, 0, 86, 75
1, 13920, Note_on_c, 0, 74, 75
1, 13920, Note_on_c, 1, 54, 75
1, 13965, Note_on_c, 0, 86, 0
1, 13965, Note_on_c, 0, 74, 0
1, 13965, Note_on_c, 1, 54, 0
1, 13968, Note_on_c, 0, 83, 75
1, 13968, Note_on_c, 0, 79, 75
1, 13968, Note_on_c, 1, 55, 75
1, 14013, Note_on_c, 0, 83, 0
1, 14013, Note_on_c, 0, 79, 0
1, 14013, Note_on_c, 1, 55, 0
1, 14016, Note_on_c, 0, 81, 75
1, 14016, Note_on_c, 0, 78, 75
1, 14016, Note_on_c, 1, 57, 75
1, 14061, Note_on_c, 1, 57, 0
1, 14064, Note_on_c, 1, 45, 75
1, 14083, Note_on_c, 0, 81, 0
1, 14083, Note_on_c, 0, 78, 0
1, 14088, Note_on_c, 0, 79, 75
1, 14088, Note_on_c, 0, 76, 75
1, 14109, Note_on_c, 1, 45, 0
1, 14111, Note_on_c, 0, 79, 0
1, 14111, Note_on_c, 0, 76, 0
1, 14112, Note_on_c, 0, 78, 75
1, 14112, Note_on_c, 0, 74, 75
1, 14112, Note_on_c, 1, 57, 75
1, 14157, Note_on_c, 0, 78, 0
1, 14157, Note_on_c, 0, 74, 0
1, 14157, Note_on_c, 1, 57, 0
1, 14160, Note_on_c, 0, 81, 75
1, 14160, Note_on_c, 1, 55, 75
1, 14175, Note_on_c, 0, 81, 0
1, 14176, Note_on_c, 0, 76, 75
1, 14191, Note_on_c, 0, 76, 0
1, 14192, Note_on_c, 0, 73, 75
1, 14205, Note_on_c, 1, 55, 0
1, 14207, Note_on_c, 0, 73, 0
1, 14208, Note_on_c, 0, 74, 75
1, 14208, Note_on_c, 1, 54, 75
1, 14253, Note_on_c, 0, 74, 0
1, 14253, Note_on_c, 1, 54, 0
1, 14256, Note_on_c, 0, 78, 75
1, 14256, Note_on_c, 1, 50, 75
1, 14271, Note_on_c, 0, 78, 0
1, 14272, Note_on_c, 0, 74, 75
1, 14287, Note_on_c, 0, 74, 0
1, 14288, Note_on_c, 0, 69, 75
1, 14301, Note_on_c, 1, 50, 0
1, 14303, Note_on_c, 0, 69, 0
1, 14304, Note_on_c, 0, 69, 75
1, 14304, Note_on_c, 1, 52, 75
1, 14349, Note_on_c, 0, 69, 0
1, 14349, Note_on_c, 1, 52, 0
1, 14352, Note_on_c, 0, 67, 75
1, 14352, Note_on_c, 1, 45, 75
1, 14359, Note_on_c, 0, 67, 0
1, 14359, Note_on_c, 0, 69, 75
1, 14366, Note_on_c, 0, 69, 0
1, 14366, Note_on_c, 0, 67, 75
1, 14373, Note_on_c, 0, 67, 0
1, 14373, Note_on_c, 0, 69, 75
1, 14380, Note_on_c, 0, 69, 0
1, 14380, Note_on_c, 0, 67, 75
1, 14387, Note_on_c, 0, 67, 0
1, 14387, Note_on_c, 0, 66, 75
1, 14394, Note_on_c, 0, 66, 0
1, 14394, Note_on_c, 0, 67, 75
1, 14397, Note_on_c, 1, 45, 0
1, 14400, Note_on_c, 0, 67, 0
1, 14400, Note_on_c, 0, 67, 75
1, 14400, Note_on_c, 1, 50, 75
1, 14445, Note_on_c, 1, 50, 0
1, 14448, Note_on_c, 0, 67, 0
1, 14448, Note_on_c, 0, 66, 75
1, 14448, Note_on_c, 1, 45, 75
1, 14493, Note_on_c, 0, 66, 0
1, 14493, Note_on_c, 1, 45, 0
1, 14496, Note_on_c, 1, 38, 75
1, 14585, Note_on_c, 1, 38, 0
1, 14592, Note_on_c, 0, 83, 91
1, 14592, Note_on_c, 0, 71, 91
1, 14640, Note_on_c, 1, 55, 75
1, 14640, Note_on_c, 1, 43, 75
1, 14664, Note_on_c, 0, 83, 0
1, 14664, Note_on_c, 0, 71, 0
1, 14664, Note_on_c, 0, 83, 75
1, 14664, Note_on_c, 0, 79, 75
1, 14685, Note_on_c, 1, 55, 0
1, 14685, Note_on_c, 1, 43, 0
1, 14687, Note_on_c, 0, 83, 0
1, 14687, Note_on_c, 0, 79, 0
1, 14688, Note_on_c, 0, 81, 75
1, 14688, Note_on_c, 0, 78, 75
1, 14688, Note_on_c, 1, 55, 75
1, 14688, Note_on_c, 1, 43, 75
1, 14711, Note_on_c, 0, 81, 0
1, 14711, Note_on_c, 0, 78, 0
1, 14712, Note_on_c, 0, 79, 75
1, 14712, Note_on_c, 0, 76, 75
1, 14733, Note_on_c, 1, 55, 0
1, 14733, Note_on_c, 1, 43, 0
1, 14735, Note_on_c, 0, 79, 0
1, 14735, Note_on_c, 0, 76, 0
1, 14736, Note_on_c, 0, 78, 75
1, 14736, Note_on_c, 0, 75, 75
1, 14736, Note_on_c, 1, 55, 75
1, 14736, Note_on_c, 1, 43, 75
1, 14759, Note_on_c, 0, 78, 0
1, 14759, Note_on_c, 0, 75, 0
1, 14760, Note_on_c, 0, 79, 75
1, 14760, Note_on_c, 0, 76, 75
1, 14781, Note_on_c, 1, 55, 0
1, 14781, Note_on_c, 1, 43, 0
1, 14783, Note_on_c, 0, 79, 0
1, 14783, Note_on_c, 0, 76, 0
1, 14784, Note_on_c, 0, 81, 91
1, 14784, Note_on_c, 0, 78, 91
1, 14832, Note_on_c, 1, 54, 75
1, 14832, Note_on_c, 1, 42, 75
1, 14856, Note_on_c, 0, 81, 0
1, 14856, Note_on_c, 0, 78, 0
1, 14856, Note_on_c, 0, 81, 75
1, 14856, Note_on_c, 0, 78, 75
1, 14877, Note_on_c, 1, 54, 0
1, 14877, Note_on_c, 1, 42, 0
1, 14879, Note_on_c, 0, 81, 0
1, 14879, Note_on_c, 0, 78, 0
1, 14880, Note_on_c, 0, 79, 75
1, 14880, Note_on_c, 0, 76, 75
1, 14880, Note_on_c, 1, 54, 75
1, 14880, Note_on_c, 1, 42, 75
1, 14903, Note_on_c, 0, 79, 0
1, 14903, Note_on_c, 0, 76, 0
1, 14904, Note_on_c, 0, 78, 75
1, 14904, Note_on_c, 0, 74, 75
1, 14925, Note_on_c, 1, 54, 0
1, 14925, Note_on_c, 1, 42, 0
1, 14927, Note_on_c, 0, 78, 0
1, 14927, Note_on_c, 0, 74, 0
1, 14928, Note_on_c, 0, 76, 75
1, 14928, Note_on_c, 0, 73, 75
1, 14928, Note_on_c, 1, 54, 75
1, 14928, Note_on_c, 1, 42, 75
1, 14951, Note_on_c, 0, 76, 0
1, 14951, Note_on_c, 0, 73, 0
1, 14952, Note_on_c, 0, 78, 75
1, 14952, Note_on_c, 0, 74, 75
1, 14973, Note_on_c, 1, 54, 0
1, 14973, Note_on_c, 1, 42, 0
1, 14975, Note_on_c, 0, 78, 0
1, 14975, Note_on_c, 0, 74, 0
1, 14976, Note_on_c, 0, 79, 91
1, 14976, Note_on_c, 0, 67, 91
1, 15024, Note_on_c, 1, 52, 75
1, 15048, Note_on_c, 0, 79, 0
1, 15048, Note_on_c, 0, 67, 0
1, 15048, Note_on_c, 0, 79, 75
1, 15048, Note_on_c, 0, 71, 75
1, 15069, Note_on_c, 1, 52, 0
1, 15071, Note_on_c, 0, 79, 0
1, 15071, Note_on_c, 0, 71, 0
1, 15072, Note_on_c, 1, 49, 75
1, 15096, Note_on_c, 0, 79, 75
1, 15096, Note_on_c, 0, 69, 75
1, 15117, Note_on_c, 1, 49, 0
1, 15119, Note_on_c, 0, 79, 0
1, 15119, Note_on_c, 0, 69, 0
1, 15120, Note_on_c, 1, 50, 75
1, 15144, Note_on_c, 0, 78, 75
1, 15144, Note_on_c, 0, 74, 75
1, 15165, Note_on_c, 1, 50, 0
1, 15167, Note_on_c, 0, 78, 0
1, 15167, Note_on_c, 0, 74, 0
1, 15168, Note_on_c, 0, 78, 75
1, 15168, Note_on_c, 0, 74, 75
1, 15168, Note_on_c, 1, 57, 75
1, 15213, Note_on_c, 1, 57, 0
1, 15216, Note_on_c, 0, 78, 0
1, 15216, Note_on_c, 0, 74, 0
1, 15216, Note_on_c, 0, 76, 75
1, 15216, Note_on_c, 0, 73, 75
1, 15216, Note_on_c, 1, 52, 75
1, 15261, Note_on_c, 0, 76, 0
1, 15261, Note_on_c, 0, 73, 0
1, 15261, Note_on_c, 1, 52, 0
1, 15264, Note_on_c, 1, 45, 75
1, 15353, Note_on_c, 1, 45, 0
1, 15360, Note_on_c, 0, 73, 75
1, 15360, Note_on_c, 0, 81, 64
1, 15360, Note_on_c, 1, 45, 75
1, 15360, Note_on_c, 1, 33, 75
1, 15383, Note_on_c, 0, 73, 0
1, 15384, Note_on_c, 0, 69, 75
1, 15405, Note_on_c, 0, 81, 0
1, 15407, Note_on_c, 0, 69, 0
1, 15408, Note_on_c, 0, 69, 75
1, 15431, Note_on_c, 0, 69, 0
1, 15432, Note_on_c, 0, 69, 76
1, 15449, Note_on_c, 1, 45, 0
1, 15449, Note_on_c, 1, 33, 0
1, 15455, Note_on_c, 0, 69, 0
1, 15456, Note_on_c, 1, 45, 76
1, 15480, Note_on_c, 0, 73, 77
1, 15501, Note_on_c, 1, 45, 0
1, 15503, Note_on_c, 0, 73, 0
1, 15504, Note_on_c, 1, 47, 77
1, 15528, Note_on_c, 0, 74, 78
1, 15549, Note_on_c, 1, 47, 0
1, 15551, Note_on_c, 0, 74, 0
1, 15552, Note_on_c, 1, 49, 78
1, 15576, Note_on_c, 0, 76, 79
1, 15597, Note_on_c, 1, 49, 0
1, 15599, Note_on_c, 0, 76, 0
1, 15600, Note_on_c, 1, 50, 79
1, 15624, Note_on_c, 0, 78, 79
1, 15645, Note_on_c, 1, 50, 0
1, 15647, Note_on_c, 0, 78, 0
1, 15648, Note_on_c, 1, 52, 80
1, 15672, Note_on_c, 0, 79, 80
1, 15693, Note_on_c, 1, 52, 0
1, 15695, Note_on_c, 0, 79, 0
1, 15696, Note_on_c, 1, 45, 81
1, 15720, Note_on_c, 0, 76, 81
1, 15741, Note_on_c, 1, 45, 0
1, 15743, Note_on_c, 0, 76, 0
1, 15744, Note_on_c, 0, 78, 82
1, 15744, Note_on_c, 1, 50, 82
1, 15767, Note_on_c, 0, 78, 0
1, 15768, Note_on_c, 0, 74, 82
1, 15791, Note_on_c, 0, 74, 0
1, 15792, Note_on_c, 0, 81, 83
1, 15792, Note_on_c, 0, 78, 83
1, 15833, Note_on_c, 1, 50, 0
1, 15837, Note_on_c, 0, 81, 0
1, 15837, Note_on_c, 0, 78, 0
1, 15840, Note_on_c, 0, 79, 84
1, 15840, Note_on_c, 0, 76, 84
1, 15885, Note_on_c, 0, 79, 0
1, 15885, Note_on_c, 0, 76, 0
1, 15888, Note_on_c, 0, 78, 81
1, 15888, Note_on_c, 0, 74, 81
1, 15888, Note_on_c, 1, 50, 81
1, 15933, Note_on_c, 0, 78, 0
1, 15933, Note_on_c, 0, 74, 0
1, 15933, Note_on_c, 1, 50, 0
1, 15936, Note_on_c, 0, 76, 79
1, 15936, Note_on_c, 0, 73, 79
1, 15936, Note_on_c, 1, 57, 78
1, 15981, Note_on_c, 1, 57, 0
1, 15984, Note_on_c, 1, 45, 75
1, 16025, Note_on_c, 0, 76, 0
1, 16025, Note_on_c, 0, 73, 0
1, 16029, Note_on_c, 1, 45, 0
1, 16032, Note_on_c, 1, 57, 75
1, 16055, Note_on_c, 1, 57, 0
1, 16056, Note_on_c, 1, 55, 75
1, 16079, Note_on_c, 1, 55, 0
1, 16080, Note_on_c, 1, 54, 75
1, 16103, Note_on_c, 1, 54, 0
1, 16104, Note_on_c, 1, 52, 75
1, 16127, Note_on_c, 1, 52, 0
1, 16128, Note_on_c, 0, 86, 91
1, 16128, Note_on_c, 0, 74, 91
1, 16128, Note_on_c, 1, 50, 75
1, 16173, Note_on_c, 1, 50, 0
1, 16176, Note_on_c, 1, 62, 75
1, 16176, Note_on_c, 1, 54, 75
1, 16221, Note_on_c, 1, 62, 0
1, 16221, Note_on_c, 1, 54, 0
1, 16224, Note_on_c, 1, 62, 75
1, 16224, Note_on_c, 1, 54, 75
1, 16247, Note_on_c, 0, 86, 0
1, 16247, Note_on_c, 0, 74, 0
1, 16248, Note_on_c, 0, 81, 75
1, 16248, Note_on_c, 0, 78, 75
1, 16269, Note_on_c, 1, 62, 0
1, 16269, Note_on_c, 1, 54, 0
1, 16271, Note_on_c, 0, 81, 0
1, 16271, Note_on_c, 0, 78, 0
1, 16272, Note_on_c, 0, 79, 75
1, 16272, Note_on_c, 0, 76, 75
1, 16272, Note_on_c, 1, 62, 75
1, 16272, Note_on_c, 1, 54, 75
1, 16295, Note_on_c, 0, 79, 0
1, 16295, Note_on_c, 0, 76, 0
1, 16296, Note_on_c, 0, 78, 75
1, 16296, Note_on_c, 0, 74, 75
1, 16317, Note_on_c, 1, 62, 0
1, 16317, Note_on_c, 1, 54, 0
1, 16319, Note_on_c, 0, 78, 0
1, 16319, Note_on_c, 0, 74, 0
1, 16320, Note_on_c, 0, 86, 91
1, 16320, Note_on_c, 0, 74, 91
1, 16368, Note_on_c, 1, 62, 75
1, 16368, Note_on_c, 1, 55, 75
1, 16413, Note_on_c, 1, 62, 0
1, 16413, Note_on_c, 1, 55, 0
1, 16416, Note_on_c, 1, 62, 75
1, 16416, Note_on_c, 1, 55, 75
1, 16439, Note_on_c, 0, 86, 0
1, 16439, Note_on_c, 0, 74, 0
1, 16440, Note_on_c, 0, 83, 75
1, 16440, Note_on_c, 0, 79, 75
1, 16461, Note_on_c, 1, 62, 0
1, 16461, Note_on_c, 1, 55, 0
1, 16463, Note_on_c, 0, 83, 0
1, 16463, Note_on_c, 0, 79, 0
1, 16464, Note_on_c, 0, 81, 75
1, 16464, Note_on_c, 0, 78, 75
1, 16464, Note_on_c, 1, 62, 75
1, 16464, Note_on_c, 1, 55, 75
1, 16487, Note_on_c, 0, 81, 0
1, 16487, Note_on_c, 0, 78, 0
1, 16488, Note_on_c, 0, 79, 75
1, 16488, Note_on_c, 0, 76, 75
1, 16509, Note_on_c, 1, 62, 0
1, 16509, Note_on_c, 1, 55, 0
1, 16511, Note_on_c, 0, 79, 0
1, 16511, Note_on_c, 0, 76, 0
1, 16512, Note_on_c, 0, 78, 75
1, 16512, Note_on_c, 0, 74, 75
1, 16557, Note_on_c, 0, 78, 0
1, 16557, Note_on_c, 0, 74, 0
1, 16560, Note_on_c, 0, 79, 75
1, 16560, Note_on_c, 1, 54, 75
1, 16572, Note_on_c, 0, 79, 0
1, 16572, Note_on_c, 0, 78, 75
1, 16584, Note_on_c, 0, 78, 0
1, 16584, Note_on_c, 0, 76, 75
1, 16596, Note_on_c, 0, 76, 0
1, 16596, Note_on_c, 0, 74, 75
1, 16605, Note_on_c, 1, 54, 0
1, 16608, Note_on_c, 0, 74, 0
1, 16608, Note_on_c, 0, 78, 75
1, 16608, Note_on_c, 1, 55, 75
1, 16615, Note_on_c, 0, 78, 0
1, 16615, Note_on_c, 0, 76, 75
1, 16622, Note_on_c, 0, 76, 0
1, 16622, Note_on_c, 0, 78, 75
1, 16629, Note_on_c, 0, 78, 0
1, 16629, Note_on_c, 0, 76, 75
1, 16636, Note_on_c, 0, 76, 0
1, 16636, Note_on_c, 0, 78, 75
1, 16643, Note_on_c, 0, 78, 0
1, 16643, Note_on_c, 0, 76, 75
1, 16650, Note_on_c, 0, 76, 0
1, 16650, Note_on_c, 0, 78, 75
1, 16653, Note_on_c, 1, 55, 0
1, 16656, Note_on_c, 1, 57, 75
1, 16657, Note_on_c, 0, 78, 0
1, 16657, Note_on_c, 0, 76, 75
1, 16664, Note_on_c, 0, 76, 0
1, 16664, Note_on_c, 0, 78, 75
1, 16671, Note_on_c, 0, 78, 0
1, 16671, Note_on_c, 0, 76, 75
1, 16678, Note_on_c, 0, 76, 0
1, 16678, Note_on_c, 0, 74, 75
1, 16692, Note_on_c, 0, 74, 0
1, 16692, Note_on_c, 0, 76, 75
1, 16701, Note_on_c, 1, 57, 0
1, 16704, Note_on_c, 0, 76, 0
1, 16704, Note_on_c, 0, 74, 75
1, 16704, Note_on_c, 1, 50, 75
1, 16749, Note_on_c, 1, 50, 0
1, 16752, Note_on_c, 1, 45, 75
1, 16793, Note_on_c, 0, 74, 0
1, 16797, Note_on_c, 1, 45, 0
1, 16800, Note_on_c, 1, 38, 75
1, 16889, Note_on_c, 1, 38, 0
1, 16896, Note_on_c, 0, 73, 75
1, 16896, Note_on_c, 0, 81, 64
1, 16896, Note_on_c, 1, 45, 75
1, 16896, Note_on_c, 1, 33, 75
1, 16919, Note_on_c, 0, 73, 0
1, 16920, Note_on_c, 0, 69, 75
1, 16941, Note_on_c, 0, 81, 0
1, 16943, Note_on_c, 0, 69, 0
1, 16944, Note_on_c, 0, 69, 75
1, 16967, Note_on_c, 0, 69, 0
1, 16968, Note_on_c, 0, 69, 76
1, 16985, Note_on_c, 1, 45, 0
1, 16985, Note_on_c, 1, 33, 0
1, 16991, Note_on_c, 0, 69, 0
1, 16992, Note_on_c, 1, 45, 76
1, 17016, Note_on_c, 0, 73, 77
1, 17037, Note_on_c, 1, 45, 0
1, 17039, Note_on_c, 0, 73, 0
1, 17040, Note_on_c, 1, 47, 77
1, 17064, Note_on_c, 0, 74, 78
1, 17085, Note_on_c, 1, 47, 0
1, 17087, Note_on_c, 0, 74, 0
1, 17088, Note_on_c, 1, 49, 78
1, 17112, Note_on_c, 0, 76, 79
1, 17133, Note_on_c, 1, 49, 0
1, 17135, Note_on_c, 0, 76, 0
1, 17136, Note_on_c, 1, 50, 79
1, 17160, Note_on_c, 0, 78, 79
1, 17181, Note_on_c, 1, 50, 0
1, 17183, Note_on_c, 0, 78, 0
1, 17184, Note_on_c, 1, 52, 80
1, 17208, Note_on_c, 0, 79, 80
1, 17229, Note_on_c, 1, 52, 0
1, 17231, Note_on_c, 0, 79, 0
1, 17232, Note_on_c, 1, 45, 81
1, 17256, Note_on_c, 0, 76, 81
1, 17277, Note_on_c, 1, 45, 0
1, 17279, Note_on_c, 0, 76, 0
1, 17280, Note_on_c, 0, 78, 82
1, 17280, Note_on_c, 1, 50, 82
1, 17303, Note_on_c, 0, 78, 0
1, 17304, Note_on_c, 0, 74, 82
1, 17327, Note_on_c, 0, 74, 0
1, 17328, Note_on_c, 0, 81, 83
1, 17328, Note_on_c, 0, 78, 83
1, 17369, Note_on_c, 1, 50, 0
1, 17373, Note_on_c, 0, 81, 0
1, 17373, Note_on_c, 0, 78, 0
1, 17376, Note_on_c, 0, 79, 84
1, 17376, Note_on_c, 0, 76, 84
1, 17421, Note_on_c, 0, 79, 0
1, 17421, Note_on_c, 0, 76, 0
1, 17424, Note_on_c, 0, 78, 81
1, 17424, Note_on_c, 0, 74, 81
1, 17424, Note_on_c, 1, 50, 81
1, 17469, Note_on_c, 0, 78, 0
1, 17469, Note_on_c, 0, 74, 0
1, 17469, Note_on_c, 1, 50, 0
1, 17472, Note_on_c, 0, 76, 79
1, 17472, Note_on_c, 0, 73, 79
1, 17472, Note_on_c, 1, 57, 78
1, 17517, Note_on_c, 1, 57, 0
1, 17520, Note_on_c, 1, 45, 75
1, 17561, Note_on_c, 0, 76, 0
1, 17561, Note_on_c, 0, 73, 0
1, 17565, Note_on_c, 1, 45, 0
1, 17568, Note_on_c, 1, 57, 75
1, 17591, Note_on_c, 1, 57, 0
1, 17592, Note_on_c, 1, 55, 75
1, 17615, Note_on_c, 1, 55, 0
1, 17616, Note_on_c, 1, 54, 75
1, 17639, Note_on_c, 1, 54, 0
1, 17640, Note_on_c, 1, 52, 75
1, 17663, Note_on_c, 1, 52, 0
1, 17664, Note_on_c, 0, 86, 91
1, 17664, Note_on_c, 0, 74, 91
1, 17664, Note_on_c, 1, 50, 75
1, 17709, Note_on_c, 1, 50, 0
1, 17712, Note_on_c, 1, 62, 75
1, 17712, Note_on_c, 1, 54, 75
1, 17757, Note_on_c, 1, 62, 0
1, 17757, Note_on_c, 1, 54, 0
1, 17760, Note_on_c, 1, 62, 75
1, 17760, Note_on_c, 1, 54, 75
1, 17783, Note_on_c, 0, 86, 0
1, 17783, Note_on_c, 0, 74, 0
1, 17784, Note_on_c, 0, 81, 75
1, 17784, Note_on_c, 0, 78, 75
1, 17805, Note_on_c, 1, 62, 0
1, 17805, Note_on_c, 1, 54, 0
1, 17807, Note_on_c, 0, 81, 0
1, 17807, Note_on_c, 0, 78, 0
1, 17808, Note_on_c, 0, 79, 75
1, 17808, Note_on_c, 0, 76, 75
1, 17808, Note_on_c, 1, 62, 75
1, 17808, Note_on_c, 1, 54, 75
1, 17831, Note_on_c, 0, 79, 0
1, 17831, Note_on_c, 0, 76, 0
1, 17832, Note_on_c, 0, 78, 75
1, 17832, Note_on_c, 0, 74, 75
1, 17853, Note_on_c, 1, 62, 0
1, 17853, Note_on_c, 1, 54, 0
1, 17855, Note_on_c, 0, 78, 0
1, 17855, Note_on_c, 0, 74, 0
1, 17856, Note_on_c, 0, 86, 91
1, 17856, Note_on_c, 0, 74, 91
1, 17904, Note_on_c, 1, 62, 75
1, 17904, Note_on_c, 1, 55, 75
1, 17949, Note_on_c, 1, 62, 0
1, 17949, Note_on_c, 1, 55, 0
1, 17952, Note_on_c, 1, 62, 75
1, 17952, Note_on_c, 1, 55, 75
1, 17975, Note_on_c, 0, 86, 0
1, 17975, Note_on_c, 0, 74, 0
1, 17976, Note_on_c, 0, 83, 75
1, 17976, Note_on_c, 0, 79, 75
1, 17997, Note_on_c, 1, 62, 0
1, 17997, Note_on_c, 1, 55, 0
1, 17999, Note_on_c, 0, 83, 0
1, 17999, Note_on_c, 0, 79, 0
1, 18000, Note_on_c, 0, 81, 75
1, 18000, Note_on_c, 0, 78, 75
1, 18000, Note_on_c, 1, 62, 75
1, 18000, Note_on_c, 1, 55, 75
1, 18023, Note_on_c, 0, 81, 0
1, 18023, Note_on_c, 0, 78, 0
1, 18024, Note_on_c, 0, 79, 75
1, 18024, Note_on_c, 0, 76, 75
1, 18045, Note_on_c, 1, 62, 0
1, 18045, Note_on_c, 1, 55, 0
1, 18047, Note_on_c, 0, 79, 0
1, 18047, Note_on_c, 0, 76, 0
1, 18048, Note_on_c, 0, 78, 75
1, 18048, Note_on_c, 0, 74, 75
1, 18093, Note_on_c, 0, 78, 0
1, 18093, Note_on_c, 0, 74, 0
1, 18096, Note_on_c, 0, 79, 75
1, 18096, Note_on_c, 1, 54, 75
1, 18108, Note_on_c, 0, 79, 0
1, 18108, Note_on_c, 0, 78, 75
1, 18120, Note_on_c, 0, 78, 0
1, 18120, Note_on_c, 0, 76, 75
1, 18132, Note_on_c, 0, 76, 0
1, 18132, Note_on_c, 0, 74, 75
1, 18141, Note_on_c, 1, 54, 0
1, 18144, Note_on_c, 0, 74, 0
1, 18144, Note_on_c, 0, 78, 75
1, 18144, Note_on_c, 1, 55, 75
1, 18151, Note_on_c, 0, 78, 0
1, 18151, Note_on_c, 0, 76, 75
1, 18158, Note_on_c, 0, 76, 0
1, 18158, Note_on_c, 0, 78, 75
1, 18165, Note_on_c, 0, 78, 0
1, 18165, Note_on_c, 0, 76, 75
1, 18172, Note_on_c, 0, 76, 0
1, 18172, Note_on_c, 0, 78, 75
1, 18179, Note_on_c, 0, 78, 0
1, 18179, Note_on_c, 0, 76, 75
1, 18186, Note_on_c, 0, 76, 0
1, 18186, Note_on_c, 0, 78, 75
1, 18189, Note_on_c, 1, 55, 0
1, 18192, Note_on_c, 1, 57, 75
1, 18193, Note_on_c, 0, 78, 0
1, 18193, Note_on_c, 0, 76, 75
1, 18200, Note_on_c, 0, 76, 0
1, 18200, Note_on_c, 0, 78, 75
1, 18207, Note_on_c, 0, 78, 0
1, 18207, Note_on_c, 0, 76, 75
1, 18214, Note_on_c, 0, 76, 0
1, 18214, Note_on_c, 0, 74, 75
1, 18228, Note_on_c, 0, 74, 0
1, 18228, Note_on_c, 0, 76, 75
1, 18237, Note_on_c, 1, 57, 0
1, 18240, Note_on_c, 0, 76, 0
1, 18240, Note_on_c, 0, 74, 75
1, 18240, Note_on_c, 1, 50, 75
1, 18285, Note_on_c, 1, 50, 0
1, 18288, Note_on_c, 1, 45, 75
1, 18329, Note_on_c, 0, 74, 0
1, 18333, Note_on_c, 1, 45, 0
1, 18336, Note_on_c, 1, 38, 75
1, 18425, Note_on_c, 1, 38, 0
1, 18432, Note_on_c, 0, 74, 75
1, 18447, Note_on_c, 0, 74, 0
1, 18448, Note_on_c, 0, 81, 75
1, 18463, Note_on_c, 0, 81, 0
1, 18464, Note_on_c, 0, 79, 75
1, 18479, Note_on_c, 0, 79, 0
1, 18480, Note_on_c, 0, 78, 75
1, 18480, Note_on_c, 1, 50, 75
1, 18495, Note_on_c, 0, 78, 0
1, 18496, Note_on_c, 0, 76, 75
1, 18511, Note_on_c, 0, 76, 0
1, 18512, Note_on_c, 0, 74, 75
1, 18525, Note_on_c, 1, 50, 0
1, 18527, Note_on_c, 0, 74, 0
1, 18528, Note_on_c, 0, 73, 75
1, 18528, Note_on_c, 1, 54, 75
1, 18543, Note_on_c, 0, 73, 0
1, 18544, Note_on_c, 0, 71, 75
1, 18559, Note_on_c, 0, 71, 0
1, 18560, Note_on_c, 0, 69, 75
1, 18573, Note_on_c, 1, 54, 0
1, 18575, Note_on_c, 0, 69, 0
1, 18576, Note_on_c, 0, 67, 75
1, 18576, Note_on_c, 1, 55, 75
1, 18591, Note_on_c, 0, 67, 0
1, 18592, Note_on_c, 0, 66, 75
1, 18607, Note_on_c, 0, 66, 0
1, 18608, Note_on_c, 0, 64, 75
1, 18621, Note_on_c, 1, 55, 0
1, 18623, Note_on_c, 0, 64, 0
1, 18624, Note_on_c, 0, 62, 75
1, 18624, Note_on_c, 1, 57, 75
1, 18669, Note_on_c, 1, 57, 0
1, 18672, Note_on_c, 1, 45, 75
1, 18713, Note_on_c, 0, 62, 0
1, 18717, Note_on_c, 1, 45, 0
1, 18720, Note_on_c, 0, 61, 75
1, 18720, Note_on_c, 1, 57, 75
1, 18735, Note_on_c, 0, 61, 0
1, 18736, Note_on_c, 0, 62, 75
1, 18751, Note_on_c, 0, 62, 0
1, 18752, Note_on_c, 0, 64, 75
1, 18765, Note_on_c, 1, 57, 0
1, 18767, Note_on_c, 0, 64, 0
1, 18768, Note_on_c, 0, 57, 75
1, 18768, Note_on_c, 1, 55, 75
1, 18783, Note_on_c, 0, 57, 0
1, 18784, Note_on_c, 0, 59, 75
1, 18799, Note_on_c, 0, 59, 0
1, 18800, Note_on_c, 0, 61, 75
1, 18813, Note_on_c, 1, 55, 0
1, 18815, Note_on_c, 0, 61, 0
1, 18816, Note_on_c, 0, 62, 75
1, 18816, Note_on_c, 1, 54, 75
1, 18831, Note_on_c, 0, 62, 0
1, 18832, Note_on_c, 0, 66, 75
1, 18847, Note_on_c, 0, 66, 0
1, 18848, Note_on_c, 0, 69, 75
1, 18861, Note_on_c, 1, 54, 0
1, 18863, Note_on_c, 0, 69, 0
1, 18864, Note_on_c, 0, 74, 75
1, 18864, Note_on_c, 1, 50, 75
1, 18879, Note_on_c, 0, 74, 0
1, 18880, Note_on_c, 0, 69, 75
1, 18895, Note_on_c, 0, 69, 0
1, 18896, Note_on_c, 0, 66, 75
1, 18909, Note_on_c, 1, 50, 0
1, 18911, Note_on_c, 0, 66, 0
1, 18912, Note_on_c, 0, 69, 75
1, 18912, Note_on_c, 1, 52, 75
1, 18957, Note_on_c, 0, 69, 0
1, 18957, Note_on_c, 1, 52, 0
1, 18960, Note_on_c, 0, 67, 75
1, 18960, Note_on_c, 1, 45, 75
1, 18966, Note_on_c, 0, 67, 0
1, 18966, Note_on_c, 0, 69, 75
1, 18972, Note_on_c, 0, 69, 0
1, 18972, Note_on_c, 0, 67, 75
1, 19005, Note_on_c, 0, 67, 0
1, 19005, Note_on_c, 1, 45, 0
1, 19008, Note_on_c, 0, 67, 75
1, 19008, Note_on_c, 1, 50, 75
1, 19053, Note_on_c, 1, 50, 0
1, 19056, Note_on_c, 0, 67, 0
1, 19056, Note_on_c, 0, 66, 75
1, 19056, Note_on_c, 1, 45, 75
1, 19101, Note_on_c, 0, 66, 0
1, 19101, Note_on_c, 1, 45, 0
1, 19104, Note_on_c, 1, 38, 75
1, 19193, Note_on_c, 1, 38, 0
1, 19200, Note_on_c, 0, 71, 75
1, 19215, Note_on_c, 0, 71, 0
1, 19216, Note_on_c, 0, 83, 75
1, 19231, Note_on_c, 0, 83, 0
1, 19232, Note_on_c, 0, 81, 75
1, 19247, Note_on_c, 0, 81, 0
1, 19248, Note_on_c, 0, 79, 75
1, 19248, Note_on_c, 1, 55, 75
1, 19248, Note_on_c, 1, 43, 75
1, 19263, Note_on_c, 0, 79, 0
1, 19264, Note_on_c, 0, 78, 75
1, 19279, Note_on_c, 0, 78, 0
1, 19280, Note_on_c, 0, 76, 75
1, 19293, Note_on_c, 1, 55, 0
1, 19293, Note_on_c, 1, 43, 0
1, 19295, Note_on_c, 0, 76, 0
1, 19296, Note_on_c, 0, 75, 75
1, 19296, Note_on_c, 1, 55, 75
1, 19296, Note_on_c, 1, 43, 75
1, 19311, Note_on_c, 0, 75, 0
1, 19312, Note_on_c, 0, 78, 75
1, 19327, Note_on_c, 0, 78, 0
1, 19328, Note_on_c, 0, 76, 75
1, 19341, Note_on_c, 1, 55, 0
1, 19341, Note_on_c, 1, 43, 0
1, 19343, Note_on_c, 0, 76, 0
1, 19344, Note_on_c, 0, 75, 75
1, 19344, Note_on_c, 1, 55, 75
1, 19344, Note_on_c, 1, 43, 75
1, 19359, Note_on_c, 0, 75, 0
1, 19360, Note_on_c, 0, 78, 75
1, 19375, Note_on_c, 0, 78, 0
1, 19376, Note_on_c, 0, 76, 75
1, 19389, Note_on_c, 1, 55, 0
1, 19389, Note_on_c, 1, 43, 0
1, 19391, Note_on_c, 0, 76, 0
1, 19392, Note_on_c, 0, 69, 75
1, 19407, Note_on_c, 0, 69, 0
1, 19408, Note_on_c, 0, 81, 75
1, 19423, Note_on_c, 0, 81, 0
1, 19424, Note_on_c, 0, 79, 75
1, 19439, Note_on_c, 0, 79, 0
1, 19440, Note_on_c, 0, 78, 75
1, 19440, Note_on_c, 1, 54, 75
1, 19440, Note_on_c, 1, 42, 75
1, 19455, Note_on_c, 0, 78, 0
1, 19456, Note_on_c, 0, 76, 75
1, 19471, Note_on_c, 0, 76, 0
1, 19472, Note_on_c, 0, 74, 75
1, 19485, Note_on_c, 1, 54, 0
1, 19485, Note_on_c, 1, 42, 0
1, 19487, Note_on_c, 0, 74, 0
1, 19488, Note_on_c, 0, 73, 75
1, 19488, Note_on_c, 1, 54, 75
1, 19488, Note_on_c, 1, 42, 75
1, 19503, Note_on_c, 0, 73, 0
1, 19504, Note_on_c, 0, 76, 75
1, 19519, Note_on_c, 0, 76, 0
1, 19520, Note_on_c, 0, 74, 75
1, 19533, Note_on_c, 1, 54, 0
1, 19533, Note_on_c, 1, 42, 0
1, 19535, Note_on_c, 0, 74, 0
1, 19536, Note_on_c, 0, 73, 75
1, 19536, Note_on_c, 1, 54, 75
1, 19536, Note_on_c, 1, 42, 75
1, 19551, Note_on_c, 0, 73, 0
1, 19552, Note_on_c, 0, 76, 75
1, 19567, Note_on_c, 0, 76, 0
1, 19568, Note_on_c, 0, 74, 75
1, 19581, Note_on_c, 1, 54, 0
1, 19581, Note_on_c, 1, 42, 0
1, 19583, Note_on_c, 0, 74, 0
1, 19584, Note_on_c, 0, 73, 75
1, 19599, Note_on_c, 0, 73, 0
1, 19600, Note_on_c, 0, 79, 75
1, 19615, Note_on_c, 0, 79, 0
1, 19616, Note_on_c, 0, 76, 75
1, 19631, Note_on_c, 0, 76, 0
1, 19632, Note_on_c, 0, 73, 75
1, 19632, Note_on_c, 1, 52, 75
1, 19647, Note_on_c, 0, 73, 0
1, 19648, Note_on_c, 0, 76, 75
1, 19663, Note_on_c, 0, 76, 0
1, 19664, Note_on_c, 0, 73, 75
1, 19677, Note_on_c, 1, 52, 0
1, 19679, Note_on_c, 0, 73, 0
1, 19680, Note_on_c, 0, 67, 75
1, 19680, Note_on_c, 1, 49, 75
1, 19695, Note_on_c, 0, 67, 0
1, 19696, Note_on_c, 0, 76, 75
1, 19711, Note_on_c, 0, 76, 0
1, 19712, Note_on_c, 0, 67, 75
1, 19725, Note_on_c, 1, 49, 0
1, 19727, Note_on_c, 0, 67, 0
1, 19728, Note_on_c, 0, 66, 75
1, 19728, Note_on_c, 1, 50, 75
1, 19743, Note_on_c, 0, 66, 0
1, 19744, Note_on_c, 0, 69, 75
1, 19759, Note_on_c, 0, 69, 0
1, 19760, Note_on_c, 0, 74, 75
1, 19773, Note_on_c, 1, 50, 0
1, 19775, Note_on_c, 0, 74, 0
1, 19776, Note_on_c, 0, 66, 75
1, 19776, Note_on_c, 1, 57, 75
1, 19821, Note_on_c, 1, 57, 0
1, 19824, Note_on_c, 0, 66, 0
1, 19824, Note_on_c, 0, 64, 75
1, 19824, Note_on_c, 1, 52, 75
1, 19869, Note_on_c, 0, 64, 0
1, 19869, Note_on_c, 1, 52, 0
1, 19872, Note_on_c, 1, 45, 75
1, 19961, Note_on_c, 1, 45, 0
1, 19968, Note_on_c, 0, 74, 75
1, 19983, Note_on_c, 0, 74, 0
1, 19984, Note_on_c, 0, 81, 75
1, 19999, Note_on_c, 0, 81, 0
1, 20000, Note_on_c, 0, 79, 75
1, 20015, Note_on_c, 0, 79, 0
1, 20016, Note_on_c, 0, 78, 75
1, 20016, Note_on_c, 1, 50, 75
1, 20031, Note_on_c, 0, 78, 0
1, 20032, Note_on_c, 0, 76, 75
1, 20047, Note_on_c, 0, 76, 0
1, 20048, Note_on_c, 0, 74, 75
1, 20061, Note_on_c, 1, 50, 0
1, 20063, Note_on_c, 0, 74, 0
1, 20064, Note_on_c, 0, 73, 75
1, 20064, Note_on_c, 1, 54, 75
1, 20079, Note_on_c, 0, 73, 0
1, 20080, Note_on_c, 0, 71, 75
1, 20095, Note_on_c, 0, 71, 0
1, 20096, Note_on_c, 0, 69, 75
1, 20109, Note_on_c, 1, 54, 0
1, 20111, Note_on_c, 0, 69, 0
1, 20112, Note_on_c, 0, 67, 75
1, 20112, Note_on_c, 1, 55, 75
1, 20127, Note_on_c, 0, 67, 0
1, 20128, Note_on_c, 0, 66, 75
1, 20143, Note_on_c, 0, 66, 0
1, 20144, Note_on_c, 0, 64, 75
1, 20157, Note_on_c, 1, 55, 0
1, 20159, Note_on_c, 0, 64, 0
1, 20160, Note_on_c, 0, 62, 75
1, 20160, Note_on_c, 1, 57, 75
1, 20205, Note_on_c, 1, 57, 0
1, 20208, Note_on_c, 1, 45, 75
1, 20249, Note_on_c, 0, 62, 0
1, 20253, Note_on_c, 1, 45, 0
1, 20256, Note_on_c, 0, 61, 75
1, 20256, Note_on_c, 1, 57, 75
1, 20271, Note_on_c, 0, 61, 0
1, 20272, Note_on_c, 0, 62, 75
1, 20287, Note_on_c, 0, 62, 0
1, 20288, Note_on_c, 0, 64, 75
1, 20301, Note_on_c, 1, 57, 0
1, 20303, Note_on_c, 0, 64, 0
1, 20304, Note_on_c, 0, 57, 75
1, 20304, Note_on_c, 1, 55, 75
1, 20319, Note_on_c, 0, 57, 0
1, 20320, Note_on_c, 0, 59, 75
1, 20335, Note_on_c, 0, 59, 0
1, 20336, Note_on_c, 0, 61, 75
1, 20349, Note_on_c, 1, 55, 0
1, 20351, Note_on_c, 0, 61, 0
1, 20352, Note_on_c, 0, 62, 75
1, 20352, Note_on_c, 1, 54, 75
1, 20367, Note_on_c, 0, 62, 0
1, 20368, Note_on_c, 0, 66, 75
1, 20383, Note_on_c, 0, 66, 0
1, 20384, Note_on_c, 0, 69, 75
1, 20397, Note_on_c, 1, 54, 0
1, 20399, Note_on_c, 0, 69, 0
1, 20400, Note_on_c, 0, 74, 75
1, 20400, Note_on_c, 1, 50, 75
1, 20415, Note_on_c, 0, 74, 0
1, 20416, Note_on_c, 0, 69, 75
1, 20431, Note_on_c, 0, 69, 0
1, 20432, Note_on_c, 0, 66, 75
1, 20445, Note_on_c, 1, 50, 0
1, 20447, Note_on_c, 0, 66, 0
1, 20448, Note_on_c, 0, 69, 75
1, 20448, Note_on_c, 1, 52, 75
1, 20493, Note_on_c, 0, 69, 0
1, 20493, Note_on_c, 1, 52, 0
1, 20496, Note_on_c, 0, 67, 75
1, 20496, Note_on_c, 1, 45, 75
1, 20502, Note_on_c, 0, 67, 0
1, 20502, Note_on_c, 0, 69, 75
1, 20508, Note_on_c, 0, 69, 0
1, 20508, Note_on_c, 0, 67, 75
1, 20541, Note_on_c, 0, 67, 0
1, 20541, Note_on_c, 1, 45, 0
1, 20544, Note_on_c, 0, 67, 75
1, 20544, Note_on_c, 1, 50, 75
1, 20589, Note_on_c, 1, 50, 0
1, 20592, Note_on_c, 0, 67, 0
1, 20592, Note_on_c, 0, 66, 75
1, 20592, Note_on_c, 1, 45, 75
1, 20637, Note_on_c, 0, 66, 0
1, 20637, Note_on_c, 1, 45, 0
1, 20640, Note_on_c, 1, 38, 75
1, 20729, Note_on_c, 1, 38, 0
1, 20736, Note_on_c, 0, 71, 75
1, 20751, Note_on_c, 0, 71, 0
1, 20752, Note_on_c, 0, 83, 75
1, 20767, Note_on_c, 0, 83, 0
1, 20768, Note_on_c, 0, 81, 75
1, 20783, Note_on_c, 0, 81, 0
1, 20784, Note_on_c, 0, 79, 75
1, 20784, Note_on_c, 1, 55, 75
1, 20784, Note_on_c, 1, 43, 75
1, 20799, Note_on_c, 0, 79, 0
1, 20800, Note_on_c, 0, 78, 75
1, 20815, Note_on_c, 0, 78, 0
1, 20816, Note_on_c, 0, 76, 75
1, 20829, Note_on_c, 1, 55, 0
1, 20829, Note_on_c, 1, 43, 0
1, 20831, Note_on_c, 0, 76, 0
1, 20832, Note_on_c, 0, 75, 75
1, 20832, Note_on_c, 1, 55, 75
1, 20832, Note_on_c, 1, 43, 75
1, 20847, Note_on_c, 0, 75, 0
1, 20848, Note_on_c, 0, 78, 75
1, 20863, Note_on_c, 0, 78, 0
1, 20864, Note_on_c, 0, 76, 75
1, 20877, Note_on_c, 1, 55, 0
1, 20877, Note_on_c, 1, 43, 0
1, 20879, Note_on_c, 0, 76, 0
1, 20880, Note_on_c, 0, 75, 75
1, 20880, Note_on_c, 1, 55, 75
1, 20880, Note_on_c, 1, 43, 75
1, 20895, Note_on_c, 0, 75, 0
1, 20896, Note_on_c, 0, 78, 75
1, 20911, Note_on_c, 0, 78, 0
1, 20912, Note_on_c, 0, 76, 75
1, 20925, Note_on_c, 1, 55, 0
1, 20925, Note_on_c, 1, 43, 0
1, 20927, Note_on_c, 0, 76, 0
1, 20928, Note_on_c, 0, 69, 75
1, 20943, Note_on_c, 0, 69, 0
1, 20944, Note_on_c, 0, 81, 75
1, 20959, Note_on_c, 0, 81, 0
1, 20960, Note_on_c, 0, 79, 75
1, 20975, Note_on_c, 0, 79, 0
1, 20976, Note_on_c, 0, 78, 75
1, 20976, Note_on_c, 1, 54, 75
1, 20976, Note_on_c, 1, 42, 75
1, 20991, Note_on_c, 0, 78, 0
1, 20992, Note_on_c, 0, 76, 75
1, 21007, Note_on_c, 0, 76, 0
1, 21008, Note_on_c, 0, 74, 75
1, 21021, Note_on_c, 1, 54, 0
1, 21021, Note_on_c, 1, 42, 0
1, 21023, Note_on_c, 0, 74, 0
1, 21024, Note_on_c, 0, 73, 75
1, 21024, Note_on_c, 1, 54, 75
1, 21024, Note_on_c, 1, 42, 75
1, 21039, Note_on_c, 0, 73, 0
1, 21040, Note_on_c, 0, 76, 75
1, 21055, Note_on_c, 0, 76, 0
1, 21056, Note_on_c, 0, 74, 75
1, 21069, Note_on_c, 1, 54, 0
1, 21069, Note_on_c, 1, 42, 0
1, 21071, Note_on_c, 0, 74, 0
1, 21072, Note_on_c, 0, 73, 75
1, 21072, Note_on_c, 1, 54, 75
1, 21072, Note_on_c, 1, 42, 75
1, 21087, Note_on_c, 0, 73, 0
1, 21088, Note_on_c, 0, 76, 75
1, 21103, Note_on_c, 0, 76, 0
1, 21104, Note_on_c, 0, 74, 75
1, 21117, Note_on_c, 1, 54, 0
1, 21117, Note_on_c, 1, 42, 0
1, 21119, Note_on_c, 0, 74, 0
1, 21120, Note_on_c, 0, 73, 75
1, 21135, Note_on_c, 0, 73, 0
1, 21136, Note_on_c, 0, 79, 75
1, 21151, Note_on_c, 0, 79, 0
1, 21152, Note_on_c, 0, 76, 75
1, 21167, Note_on_c, 0, 76, 0
1, 21168, Note_on_c, 0, 73, 75
1, 21168, Note_on_c, 1, 52, 75
1, 21183, Note_on_c, 0, 73, 0
1, 21184, Note_on_c, 0, 76, 75
1, 21199, Note_on_c, 0, 76, 0
1, 21200, Note_on_c, 0, 73, 75
1, 21213, Note_on_c, 1, 52, 0
1, 21215, Note_on_c, 0, 73, 0
1, 21216, Note_on_c, 0, 67, 75
1, 21216, Note_on_c, 1, 49, 75
1, 21231, Note_on_c, 0, 67, 0
1, 21232, Note_on_c, 0, 76, 75
1, 21247, Note_on_c, 0, 76, 0
1, 21248, Note_on_c, 0, 67, 75
1, 21261, Note_on_c, 1, 49, 0
1, 21263, Note_on_c, 0, 67, 0
1, 21264, Note_on_c, 0, 66, 75
1, 21264, Note_on_c, 1, 50, 75
1, 21279, Note_on_c, 0, 66, 0
1, 21280, Note_on_c, 0, 69, 75
1, 21295, Note_on_c, 0, 69, 0
1, 21296, Note_on_c, 0, 74, 75
1, 21309, Note_on_c, 1, 50, 0
1, 21311, Note_on_c, 0, 74, 0
1, 21312, Note_on_c, 0, 66, 75
1, 21312, Note_on_c, 1, 57, 75
1, 21357, Note_on_c, 1, 57, 0
1, 21360, Note_on_c, 0, 66, 0
1, 21360, Note_on_c, 0, 64, 75
1, 21360, Note_on_c, 1, 52, 75
1, 21405, Note_on_c, 0, 64, 0
1, 21405, Note_on_c, 1, 52, 0
1, 21408, Note_on_c, 1, 45, 75
1, 21497, Note_on_c, 1, 45, 0
1, 21504, Note_on_c, 0, 57, 75
1, 21504, Note_on_c, 1, 45, 75
1, 21504, Note_on_c, 1, 33, 75
1, 21519, Note_on_c, 0, 57, 0
1, 21520, Note_on_c, 0, 59, 75
1, 21535, Note_on_c, 0, 59, 0
1, 21536, Note_on_c, 0, 61, 75
1, 21551, Note_on_c, 0, 61, 0
1, 21552, Note_on_c, 0, 59, 75
1, 21567, Note_on_c, 0, 59, 0
1, 21568, Note_on_c, 0, 61, 75
1, 21583, Note_on_c, 0, 61, 0
1, 21584, Note_on_c, 0, 62, 76
1, 21593, Note_on_c, 1, 45, 0
1, 21593, Note_on_c, 1, 33, 0
1, 21599, Note_on_c, 0, 62, 0
1, 21600, Note_on_c, 0, 61, 76
1, 21600, Note_on_c, 1, 45, 77
1, 21615, Note_on_c, 0, 61, 0
1, 21616, Note_on_c, 0, 62, 76
1, 21631, Note_on_c, 0, 62, 0
1, 21632, Note_on_c, 0, 64, 76
1, 21645, Note_on_c, 1, 45, 0
1, 21647, Note_on_c, 0, 64, 0
1, 21648, Note_on_c, 0, 62, 76
1, 21648, Note_on_c, 1, 47, 78
1, 21663, Note_on_c, 0, 62, 0
1, 21664, Note_on_c, 0, 64, 77
1, 21679, Note_on_c, 0, 64, 0
1, 21680, Note_on_c, 0, 66, 77
1, 21693, Note_on_c, 1, 47, 0
1, 21695, Note_on_c, 0, 66, 0
1, 21696, Note_on_c, 0, 64, 77
1, 21696, Note_on_c, 1, 49, 79
1, 21711, Note_on_c, 0, 64, 0
1, 21712, Note_on_c, 0, 66, 77
1, 21727, Note_on_c, 0, 66, 0
1, 21728, Note_on_c, 0, 67, 78
1, 21741, Note_on_c, 1, 49, 0
1, 21743, Note_on_c, 0, 67, 0
1, 21744, Note_on_c, 0, 66, 78
1, 21744, Note_on_c, 1, 50, 80
1, 21759, Note_on_c, 0, 66, 0
1, 21760, Note_on_c, 0, 67, 78
1, 21775, Note_on_c, 0, 67, 0
1, 21776, Note_on_c, 0, 69, 78
1, 21789, Note_on_c, 1, 50, 0
1, 21791, Note_on_c, 0, 69, 0
1, 21792, Note_on_c, 0, 67, 78
1, 21792, Note_on_c, 1, 52, 81
1, 21807, Note_on_c, 0, 67, 0
1, 21808, Note_on_c, 0, 69, 79
1, 21823, Note_on_c, 0, 69, 0
1, 21824, Note_on_c, 0, 71, 79
1, 21837, Note_on_c, 1, 52, 0
1, 21839, Note_on_c, 0, 71, 0
1, 21840, Note_on_c, 0, 64, 79
1, 21840, Note_on_c, 1, 45, 82
1, 21855, Note_on_c, 0, 64, 0
1, 21856, Note_on_c, 0, 66, 79
1, 21871, Note_on_c, 0, 66, 0
1, 21872, Note_on_c, 0, 67, 80
1, 21885, Note_on_c, 1, 45, 0
1, 21887, Note_on_c, 0, 67, 0
1, 21888, Note_on_c, 0, 66, 80
1, 21888, Note_on_c, 1, 50, 84
1, 21903, Note_on_c, 0, 66, 0
1, 21904, Note_on_c, 0, 64, 80
1, 21919, Note_on_c, 0, 64, 0
1, 21920, Note_on_c, 0, 62, 80
1, 21935, Note_on_c, 0, 62, 0
1, 21936, Note_on_c, 0, 69, 80
1, 21951, Note_on_c, 0, 69, 0
1, 21952, Note_on_c, 0, 67, 81
1, 21967, Note_on_c, 0, 67, 0
1, 21968, Note_on_c, 0, 66, 81
1, 21977, Note_on_c, 1, 50, 0
1, 21983, Note_on_c, 0, 66, 0
1, 21984, Note_on_c, 0, 74, 81
1, 21999, Note_on_c, 0, 74, 0
1, 22000, Note_on_c, 0, 73, 84
1, 22015, Note_on_c, 0, 73, 0
1, 22016, Note_on_c, 0, 71, 84
1, 22031, Note_on_c, 0, 71, 0
1, 22032, Note_on_c, 0, 69, 84
1, 22032, Note_on_c, 1, 50, 84
1, 22047, Note_on_c, 0, 69, 0
1, 22048, Note_on_c, 0, 67, 83
1, 22063, Note_on_c, 0, 67, 0
1, 22064, Note_on_c, 0, 66, 83
1, 22077, Note_on_c, 1, 50, 0
1, 22079, Note_on_c, 0, 66, 0
1, 22080, Note_on_c, 0, 66, 82
1, 22080, Note_on_c, 1, 57, 81
1, 22086, Note_on_c, 0, 66, 0
1, 22086, Note_on_c, 0, 67, 82
1, 22092, Note_on_c, 0, 67, 0
1, 22092, Note_on_c, 0, 66, 82
1, 22125, Note_on_c, 1, 57, 0
1, 22128, Note_on_c, 0, 66, 0
1, 22128, Note_on_c, 0, 64, 80
1, 22128, Note_on_c, 1, 45, 78
1, 22173, Note_on_c, 0, 64, 0
1, 22173, Note_on_c, 1, 45, 0
1, 22176, Note_on_c, 1, 57, 76
1, 22199, Note_on_c, 1, 57, 0
1, 22200, Note_on_c, 1, 55, 75
1, 22223, Note_on_c, 1, 55, 0
1, 22224, Note_on_c, 1, 54, 75
1, 22247, Note_on_c, 1, 54, 0
1, 22248, Note_on_c, 1, 52, 75
1, 22271, Note_on_c, 1, 52, 0
1, 22272, Note_on_c, 0, 74, 75
1, 22272, Note_on_c, 1, 50, 75
1, 22287, Note_on_c, 0, 74, 0
1, 22288, Note_on_c, 0, 78, 75
1, 22303, Note_on_c, 0, 78, 0
1, 22304, Note_on_c, 0, 81, 75
1, 22317, Note_on_c, 1, 50, 0
1, 22319, Note_on_c, 0, 81, 0
1, 22320, Note_on_c, 0, 86, 75
1, 22320, Note_on_c, 1, 62, 75
1, 22320, Note_on_c, 1, 54, 75
1, 22335, Note_on_c, 0, 86, 0
1, 22336, Note_on_c, 0, 85, 75
1, 22351, Note_on_c, 0, 85, 0
1, 22352, Note_on_c, 0, 83, 75
1, 22365, Note_on_c, 1, 62, 0
1, 22365, Note_on_c, 1, 54, 0
1, 22367, Note_on_c, 0, 83, 0
1, 22368, Note_on_c, 0, 81, 75
1, 22368, Note_on_c, 1, 62, 75
1, 22368, Note_on_c, 1, 54, 75
1, 22383, Note_on_c, 0, 81, 0
1, 22384, Note_on_c, 0, 79, 75
1, 22399, Note_on_c, 0, 79, 0
1, 22400, Note_on_c, 0, 78, 75
1, 22413, Note_on_c, 1, 62, 0
1, 22413, Note_on_c, 1, 54, 0
1, 22415, Note_on_c, 0, 78, 0
1, 22416, Note_on_c, 0, 81, 75
1, 22416, Note_on_c, 1, 62, 75
1, 22416, Note_on_c, 1, 54, 75
1, 22431, Note_on_c, 0, 81, 0
1, 22432, Note_on_c, 0, 79, 75
1, 22447, Note_on_c, 0, 79, 0
1, 22448, Note_on_c, 0, 78, 75
1, 22461, Note_on_c, 1, 62, 0
1, 22461, Note_on_c, 1, 54, 0
1, 22463, Note_on_c, 0, 78, 0
1, 22464, Note_on_c, 0, 74, 75
1, 22479, Note_on_c, 0, 74, 0
1, 22480, Note_on_c, 0, 79, 75
1, 22495, Note_on_c, 0, 79, 0
1, 22496, Note_on_c, 0, 83, 75
1, 22511, Note_on_c, 0, 83, 0
1, 22512, Note_on_c, 0, 86, 75
1, 22512, Note_on_c, 1, 62, 75
1, 22512, Note_on_c, 1, 55, 75
1, 22527, Note_on_c, 0, 86, 0
1, 22528, Note_on_c, 0, 85, 75
1, 22543, Note_on_c, 0, 85, 0
1, 22544, Note_on_c, 0, 83, 75
1, 22557, Note_on_c, 1, 62, 0
1, 22557, Note_on_c, 1, 55, 0
1, 22559, Note_on_c, 0, 83, 0
1, 22560, Note_on_c, 0, 86, 75
1, 22560, Note_on_c, 1, 62, 75
1, 22560, Note_on_c, 1, 55, 75
1, 22575, Note_on_c, 0, 86, 0
1, 22576, Note_on_c, 0, 85, 75
1, 22591, Note_on_c, 0, 85, 0
1, 22592, Note_on_c, 0, 83, 75
1, 22605, Note_on_c, 1, 62, 0
1, 22605, Note_on_c, 1, 55, 0
1, 22607, Note_on_c, 0, 83, 0
1, 22608, Note_on_c, 0, 86, 75
1, 22608, Note_on_c, 1, 62, 75
1, 22608, Note_on_c, 1, 55, 75
1, 22623, Note_on_c, 0, 86, 0
1, 22624, Note_on_c, 0, 85, 75
1, 22639, Note_on_c, 0, 85, 0
1, 22640, Note_on_c, 0, 83, 75
1, 22653, Note_on_c, 1, 62, 0
1, 22653, Note_on_c, 1, 55, 0
1, 22655, Note_on_c, 0, 83, 0
1, 22656, Note_on_c, 0, 81, 75
1, 22671, Note_on_c, 0, 81, 0
1, 22672, Note_on_c, 0, 78, 75
1, 22687, Note_on_c, 0, 78, 0
1, 22688, Note_on_c, 0, 74, 75
1, 22703, Note_on_c, 0, 74, 0
1, 22704, Note_on_c, 0, 86, 75
1, 22704, Note_on_c, 1, 54, 75
1, 22719, Note_on_c, 0, 86, 0
1, 22720, Note_on_c, 0, 78, 75
1, 22735, Note_on_c, 0, 78, 0
1, 22736, Note_on_c, 0, 74, 75
1, 22749, Note_on_c, 1, 54, 0
1, 22751, Note_on_c, 0, 74, 0
1, 22752, Note_on_c, 0, 78, 75
1, 22752, Note_on_c, 1, 55, 75
1, 22759, Note_on_c, 0, 78, 0
1, 22759, Note_on_c, 0, 76, 75
1, 22766, Note_on_c, 0, 76, 0
1, 22766, Note_on_c, 0, 78, 75
1, 22773, Note_on_c, 0, 78, 0
1, 22773, Note_on_c, 0, 76, 75
1, 22780, Note_on_c, 0, 76, 0
1, 22780, Note_on_c, 0, 78, 75
1, 22787, Note_on_c, 0, 78, 0
1, 22787, Note_on_c, 0, 76, 75
1, 22794, Note_on_c, 0, 76, 0
1, 22794, Note_on_c, 0, 78, 75
1, 22797, Note_on_c, 1, 55, 0
1, 22800, Note_on_c, 1, 57, 75
1, 22801, Note_on_c, 0, 78, 0
1, 22801, Note_on_c, 0, 76, 75
1, 22808, Note_on_c, 0, 76, 0
1, 22808, Note_on_c, 0, 78, 75
1, 22815, Note_on_c, 0, 78, 0
1, 22815, Note_on_c, 0, 76, 75
1, 22822, Note_on_c, 0, 76, 0
1, 22822, Note_on_c, 0, 74, 75
1, 22836, Note_on_c, 0, 74, 0
1, 22836, Note_on_c, 0, 76, 75
1, 22845, Note_on_c, 1, 57, 0
1, 22848, Note_on_c, 0, 76, 0
1, 22848, Note_on_c, 0, 74, 75
1, 22848, Note_on_c, 1, 50, 75
1, 22893, Note_on_c, 1, 50, 0
1, 22896, Note_on_c, 1, 45, 75
1, 22937, Note_on_c, 0, 74, 0
1, 22941, Note_on_c, 1, 45, 0
1, 22944, Note_on_c, 1, 38, 75
1, 23033, Note_on_c, 1, 38, 0
1, 23040, Note_on_c, 0, 57, 75
1, 23040, Note_on_c, 1, 45, 75
1, 23040, Note_on_c, 1, 33, 75
1, 23055, Note_on_c, 0, 57, 0
1, 23056, Note_on_c, 0, 59, 75
1, 23071, Note_on_c, 0, 59, 0
1, 23072, Note_on_c, 0, 61, 75
1, 23087, Note_on_c, 0, 61, 0
1, 23088, Note_on_c, 0, 59, 75
1, 23103, Note_on_c, 0, 59, 0
1, 23104, Note_on_c, 0, 61, 75
1, 23119, Note_on_c, 0, 61, 0
1, 23120, Note_on_c, 0, 62, 76
1, 23129, Note_on_c, 1, 45, 0
1, 23129, Note_on_c, 1, 33, 0
1, 23135, Note_on_c, 0, 62, 0
1, 23136, Note_on_c, 0, 61, 76
1, 23136, Note_on_c, 1, 45, 77
1, 23151, Note_on_c, 0, 61, 0
1, 23152, Note_on_c, 0, 62, 76
1, 23167, Note_on_c, 0, 62, 0
1, 23168, Note_on_c, 0, 64, 76
1, 23181, Note_on_c, 1, 45, 0
1, 23183, Note_on_c, 0, 64, 0
1, 23184, Note_on_c, 0, 62, 76
1, 23184, Note_on_c, 1, 47, 78
1, 23199, Note_on_c, 0, 62, 0
1, 23200, Note_on_c, 0, 64, 77
1, 23215, Note_on_c, 0, 64, 0
1, 23216, Note_on_c, 0, 66, 77
1, 23229, Note_on_c, 1, 47, 0
1, 23231, Note_on_c, 0, 66, 0
1, 23232, Note_on_c, 0, 64, 77
1, 23232, Note_on_c, 1, 49, 79
1, 23247, Note_on_c, 0, 64, 0
1, 23248, Note_on_c, 0, 66, 77
1, 23263, Note_on_c, 0, 66, 0
1, 23264, Note_on_c, 0, 67, 78
1, 23277, Note_on_c, 1, 49, 0
1, 23279, Note_on_c, 0, 67, 0
1, 23280, Note_on_c, 0, 66, 78
1, 23280, Note_on_c, 1, 50, 80
1, 23295, Note_on_c, 0, 66, 0
1, 23296, Note_on_c, 0, 67, 78
1, 23311, Note_on_c, 0, 67, 0
1, 23312, Note_on_c, 0, 69, 78
1, 23325, Note_on_c, 1, 50, 0
1, 23327, Note_on_c, 0, 69, 0
1, 23328, Note_on_c, 0, 67, 78
1, 23328, Note_on_c, 1, 52, 81
1, 23343, Note_on_c, 0, 67, 0
1, 23344, Note_on_c, 0, 69, 79
1, 23359, Note_on_c, 0, 69, 0
1, 23360, Note_on_c, 0, 71, 79
1, 23373, Note_on_c, 1, 52, 0
1, 23375, Note_on_c, 0, 71, 0
1, 23376, Note_on_c, 0, 64, 79
1, 23376, Note_on_c, 1, 45, 82
1, 23391, Note_on_c, 0, 64, 0
1, 23392, Note_on_c, 0, 66, 79
1, 23407, Note_on_c, 0, 66, 0
1, 23408, Note_on_c, 0, 67, 80
1, 23421, Note_on_c, 1, 45, 0
1, 23423, Note_on_c, 0, 67, 0
1, 23424, Note_on_c, 0, 66, 80
1, 23424, Note_on_c, 1, 50, 84
1, 23439, Note_on_c, 0, 66, 0
1, 23440, Note_on_c, 0, 64, 80
1, 23455, Note_on_c, 0, 64, 0
1, 23456, Note_on_c, 0, 62, 80
1, 23471, Note_on_c, 0, 62, 0
1, 23472, Note_on_c, 0, 69, 80
1, 23487, Note_on_c, 0, 69, 0
1, 23488, Note_on_c, 0, 67, 81
1, 23503, Note_on_c, 0, 67, 0
1, 23504, Note_on_c, 0, 66, 81
1, 23513, Note_on_c, 1, 50, 0
1, 23519, Note_on_c, 0, 66, 0
1, 23520, Note_on_c, 0, 74, 81
1, 23535, Note_on_c, 0, 74, 0
1, 23536, Note_on_c, 0, 73, 84
1, 23551, Note_on_c, 0, 73, 0
1, 23552, Note_on_c, 0, 71, 84
1, 23567, Note_on_c, 0, 71, 0
1, 23568, Note_on_c, 0, 69, 84
1, 23568, Note_on_c, 1, 50, 84
1, 23583, Note_on_c, 0, 69, 0
1, 23584, Note_on_c, 0, 67, 83
1, 23599, Note_on_c, 0, 67, 0
1, 23600, Note_on_c, 0, 66, 83
1, 23613, Note_on_c, 1, 50, 0
1, 23615, Note_on_c, 0, 66, 0
1, 23616, Note_on_c, 0, 66, 82
1, 23616, Note_on_c, 1, 57, 81
1, 23622, Note_on_c, 0, 66, 0
1, 23622, Note_on_c, 0, 67, 82
1, 23628, Note_on_c, 0, 67, 0
1, 23628, Note_on_c, 0, 66, 82
1, 23661, Note_on_c, 1, 57, 0
1, 23664, Note_on_c, 0, 66, 0
1, 23664, Note_on_c, 0, 64, 80
1, 23664, Note_on_c, 1, 45, 78
1, 23709, Note_on_c, 0, 64, 0
1, 23709, Note_on_c, 1, 45, 0
1, 23712, Note_on_c, 1, 57, 76
1, 23735, Note_on_c, 1, 57, 0
1, 23736, Note_on_c, 1, 55, 75
1, 23759, Note_on_c, 1, 55, 0
1, 23760, Note_on_c, 1, 54, 75
1, 23783, Note_on_c, 1, 54, 0
1, 23784, Note_on_c, 1, 52, 75
1, 23807, Note_on_c, 1, 52, 0
1, 23808, Note_on_c, 0, 74, 75
1, 23808, Note_on_c, 1, 50, 75
1, 23823, Note_on_c, 0, 74, 0
1, 23824, Note_on_c, 0, 78, 75
1, 23839, Note_on_c, 0, 78, 0
1, 23840, Note_on_c, 0, 81, 75
1, 23853, Note_on_c, 1, 50, 0
1, 23855, Note_on_c, 0, 81, 0
1, 23856, Note_on_c, 0, 86, 75
1, 23856, Note_on_c, 1, 62, 75
1, 23856, Note_on_c, 1, 54, 75
1, 23871, Note_on_c, 0, 86, 0
1, 23872, Note_on_c, 0, 85, 75
1, 23887, Note_on_c, 0, 85, 0
1, 23888, Note_on_c, 0, 83, 75
1, 23901, Note_on_c, 1, 62, 0
1, 23901, Note_on_c, 1, 54, 0
1, 23903, Note_on_c, 0, 83, 0
1, 23904, Note_on_c, 0, 81, 75
1, 23904, Note_on_c, 1, 62, 75
1, 23904, Note_on_c, 1, 54, 75
1, 23919, Note_on_c, 0, 81, 0
1, 23920, Note_on_c, 0, 79, 75
1, 23935, Note_on_c, 0, 79, 0
1, 23936, Note_on_c, 0, 78, 75
1, 23949, Note_on_c, 1, 62, 0
1, 23949, Note_on_c, 1, 54, 0
1, 23951, Note_on_c, 0, 78, 0
1, 23952, Note_on_c, 0, 81, 75
1, 23952, Note_on_c, 1, 62, 75
1, 23952, Note_on_c, 1, 54, 75
1, 23967, Note_on_c, 0, 81, 0
1, 23968, Note_on_c, 0, 79, 75
1, 23983, Note_on_c, 0, 79, 0
1, 23984, Note_on_c, 0, 78, 75
1, 23997, Note_on_c, 1, 62, 0
1, 23997, Note_on_c, 1, 54, 0
1, 23999, Note_on_c, 0, 78, 0
1, 24000, Note_on_c, 0, 74, 75
1, 24015, Note_on_c, 0, 74, 0
1, 24016, Note_on_c, 0, 79, 75
1, 24031, Note_on_c, 0, 79, 0
1, 24032, Note_on_c, 0, 83, 75
1, 24047, Note_on_c, 0, 83, 0
1, 24048, Note_on_c, 0, 86, 75
1, 24048, Note_on_c, 1, 62, 75
1, 24048, Note_on_c, 1, 55, 75
1, 24063, Note_on_c, 0, 86, 0
1, 24064, Note_on_c, 0, 85, 75
1, 24079, Note_on_c, 0, 85, 0
1, 24080, Note_on_c, 0, 83, 75
1, 24093, Note_on_c, 1, 62, 0
1, 24093, Note_on_c, 1, 55, 0
1, 24095, Note_on_c, 0, 83, 0
1, 24096, Note_on_c, 0, 86, 75
1, 24096, Note_on_c, 1, 62, 75
1, 24096, Note_on_c, 1, 55, 75
1, 24111, Note_on_c, 0, 86, 0
1, 24112, Note_on_c, 0, 85, 75
1, 24127, Note_on_c, 0, 85, 0
1, 24128, Note_on_c, 0, 83, 75
1, 24141, Note_on_c, 1, 62, 0
1, 24141, Note_on_c, 1, 55, 0
1, 24143, Note_on_c, 0, 83, 0
1, 24144, Note_on_c, 0, 86, 75
1, 24144, Note_on_c, 1, 62, 75
1, 24144, Note_on_c, 1, 55, 75
1, 24159, Note_on_c, 0, 86, 0
1, 24160, Note_on_c, 0, 85, 75
1, 24175, Note_on_c, 0, 85, 0
1, 24176, Note_on_c, 0, 83, 75
1, 24189, Note_on_c, 1, 62, 0
1, 24189, Note_on_c, 1, 55, 0
1, 24191, Note_on_c, 0, 83, 0
1, 24192, Note_on_c, 0, 81, 75
1, 24207, Note_on_c, 0, 81, 0
1, 24208, Note_on_c, 0, 78, 75
1, 24223, Note_on_c, 0, 78, 0
1, 24224, Note_on_c, 0, 74, 75
1, 24239, Note_on_c, 0, 74, 0
1, 24240, Note_on_c, 0, 86, 75
1, 24240, Note_on_c, 1, 54, 75
1, 24255, Note_on_c, 0, 86, 0
1, 24256, Note_on_c, 0, 78, 75
1, 24271, Note_on_c, 0, 78, 0
1, 24272, Note_on_c, 0, 74, 75
1, 24285, Note_on_c, 1, 54, 0
1, 24287, Note_on_c, 0, 74, 0
1, 24288, Note_on_c, 0, 78, 75
1, 24288, Note_on_c, 1, 55, 75
1, 24295, Note_on_c, 0, 78, 0
1, 24295, Note_on_c, 0, 76, 75
1, 24302, Note_on_c, 0, 76, 0
1, 24302, Note_on_c, 0, 78, 75
1, 24309, Note_on_c, 0, 78, 0
1, 24309, Note_on_c, 0, 76, 75
1, 24316, Note_on_c, 0, 76, 0
1, 24316, Note_on_c, 0, 78, 75
1, 24323, Note_on_c, 0, 78, 0
1, 24323, Note_on_c, 0, 76, 75
1, 24330, Note_on_c, 0, 76, 0
1, 24330, Note_on_c, 0, 78, 75
1, 24333, Note_on_c, 1, 55, 0
1, 24336, Note_on_c, 1, 57, 75
1, 24337, Note_on_c, 0, 78, 0
1, 24337, Note_on_c, 0, 76, 75
1, 24344, Note_on_c, 0, 76, 0
1, 24344, Note_on_c, 0, 78, 75
1, 24351, Note_on_c, 0, 78, 0
1, 24351, Note_on_c, 0, 76, 75
1, 24358, Note_on_c, 0, 76, 0
1, 24358, Note_on_c, 0, 74, 75
1, 24372, Note_on_c, 0, 74, 0
1, 24372, Note_on_c, 0, 76, 75
1, 24381, Note_on_c, 1, 57, 0
1, 24384, Note_on_c, 0, 76, 0
1, 24384, Note_on_c, 0, 74, 75
1, 24384, Note_on_c, 1, 50, 75
1, 24429, Note_on_c, 1, 50, 0
1, 24432, Note_on_c, 1, 45, 75
1, 24473, Note_on_c, 0, 74, 0
1, 24477, Note_on_c, 1, 45, 0
1, 24480, Note_on_c, 1, 38, 75
1, 24569, Note_on_c, 1, 38, 0
1, 24576, Note_on_c, 1, 38, 4
1, 24665, Note_on_c, 1, 38, 0
1, 24675, End_track
0, 0, End_of_file