0, 0, Header, 0, 1, 96
1, 0, Start_track
1, 0, Tempo, 1090909
1, 0, Note_on_c, 0, 58, 64
1, 0, Note_on_c, 0, 55, 64
1, 0, Note_on_c, 1, 51, 64
1, 89, Note_on_c, 0, 58, 0
1, 89, Note_on_c, 0, 55, 0
1, 89, Note_on_c, 1, 51, 0
1, 96, Note_on_c, 0, 63, 64
1, 96, Note_on_c, 0, 60, 64
1, 185, Note_on_c, 0, 63, 0
1, 185, Note_on_c, 0, 60, 0
1, 192, Note_on_c, 0, 62, 64
1, 192, Note_on_c, 0, 58, 64
1, 281, Note_on_c, 0, 62, 0
1, 281, Note_on_c, 0, 58, 0
1, 288, Note_on_c, 0, 60, 64
1, 288, Note_on_c, 0, 56, 64
1, 327, Note_on_c, 0, 60, 0
1, 327, Note_on_c, 0, 56, 0
1, 384, Note_on_c, 0, 58, 64
1, 384, Note_on_c, 0, 55, 64
1, 423, Note_on_c, 0, 58, 0
1, 423, Note_on_c, 0, 55, 0
1, 576, Note_on_c, 0, 65, 75
1, 576, Note_on_c, 0, 62, 75
1, 576, Note_on_c, 1, 58, 75
1, 665, Note_on_c, 0, 65, 0
1, 665, Note_on_c, 0, 62, 0
1, 672, Note_on_c, 0, 67, 76
1, 672, Note_on_c, 0, 63, 76
1, 717, Note_on_c, 0, 67, 0
1, 717, Note_on_c, 0, 63, 0
1, 720, Note_on_c, 0, 68, 77
1, 720, Note_on_c, 0, 65, 77
1, 753, Note_on_c, 1, 58, 0
1, 765, Note_on_c, 0, 68, 0
1, 765, Note_on_c, 0, 65, 0
1, 768, Note_on_c, 0, 70, 78
1, 768, Note_on_c, 0, 67, 64
1, 768, Note_on_c, 1, 59, 78
1, 786, Note_on_c, 0, 70, 0
1, 786, Note_on_c, 0, 68, 78
1, 786, Note_on_c, 0, 67, 0
1, 786, Note_on_c, 0, 65, 64
1, 857, Note_on_c, 0, 68, 0
1, 857, Note_on_c, 0, 65, 0
1, 857, Note_on_c, 1, 59, 0
1, 864, Note_on_c, 0, 67, 80
1, 864, Note_on_c, 0, 63, 80
1, 864, Note_on_c, 1, 60, 80
1, 1051, Note_on_c, 0, 67, 0
1, 1051, Note_on_c, 0, 63, 0
1, 1051, Note_on_c, 1, 60, 0
1, 1152, Note_on_c, 0, 65, 75
1, 1197, Note_on_c, 0, 65, 0
1, 1200, Note_on_c, 0, 72, 91
1, 1248, Note_on_c, 1, 56, 70
1, 1271, Note_on_c, 0, 72, 0
1, 1272, Note_on_c, 0, 70, 75
1, 1287, Note_on_c, 1, 56, 0
1, 1295, Note_on_c, 0, 70, 0
1, 1296, Note_on_c, 0, 68, 75
1, 1344, Note_on_c, 1, 53, 70
1, 1363, Note_on_c, 0, 68, 0
1, 1368, Note_on_c, 0, 67, 75
1, 1383, Note_on_c, 1, 53, 0
1, 1391, Note_on_c, 0, 67, 0
1, 1392, Note_on_c, 0, 65, 75
1, 1415, Note_on_c, 0, 65, 0
1, 1416, Note_on_c, 0, 63, 75
1, 1439, Note_on_c, 0, 63, 0
1, 1440, Note_on_c, 0, 62, 75
1, 1440, Note_on_c, 1, 58, 70
1, 1485, Note_on_c, 0, 62, 0
1, 1488, Note_on_c, 0, 70, 75
1, 1494, Note_on_c, 0, 70, 0
1, 1494, Note_on_c, 0, 72, 75
1, 1500, Note_on_c, 0, 72, 0
1, 1500, Note_on_c, 0, 70, 75
1, 1529, Note_on_c, 1, 58, 0
1, 1536, Note_on_c, 1, 55, 70
1, 1559, Note_on_c, 0, 70, 0
1, 1560, Note_on_c, 0, 68, 75
1, 1575, Note_on_c, 1, 55, 0
1, 1583, Note_on_c, 0, 68, 0
1, 1584, Note_on_c, 0, 67, 75
1, 1632, Note_on_c, 1, 51, 70
1, 1651, Note_on_c, 0, 67, 0
1, 1656, Note_on_c, 0, 65, 75
1, 1671, Note_on_c, 1, 51, 0
1, 1679, Note_on_c, 0, 65, 0
1, 1680, Note_on_c, 0, 63, 75
1, 1703, Note_on_c, 0, 63, 0
1, 1704, Note_on_c, 0, 62, 75
1, 1727, Note_on_c, 0, 62, 0
1, 1728, Note_on_c, 0, 60, 75
1, 1728, Note_on_c, 1, 56, 70
1, 1734, Note_on_c, 0, 60, 0
1, 1734, Note_on_c, 0, 62, 75
1, 1740, Note_on_c, 0, 62, 0
1, 1740, Note_on_c, 0, 60, 75
1, 1773, Note_on_c, 0, 60, 0
1, 1773, Note_on_c, 1, 56, 0
1, 1776, Note_on_c, 0, 68, 76
1, 1776, Note_on_c, 1, 44, 70
1, 1799, Note_on_c, 0, 68, 0
1, 1800, Note_on_c, 0, 67, 76
1, 1821, Note_on_c, 1, 44, 0
1, 1823, Note_on_c, 0, 67, 0
1, 1824, Note_on_c, 0, 65, 77
1, 1824, Note_on_c, 1, 44, 70
1, 1847, Note_on_c, 0, 65, 0
1, 1848, Note_on_c, 0, 63, 77
1, 1869, Note_on_c, 1, 44, 0
1, 1871, Note_on_c, 0, 63, 0
1, 1872, Note_on_c, 0, 62, 78
1, 1872, Note_on_c, 1, 44, 70
1, 1895, Note_on_c, 0, 62, 0
1, 1896, Note_on_c, 0, 60, 78
1, 1917, Note_on_c, 1, 44, 0
1, 1919, Note_on_c, 0, 60, 0
1, 1920, Note_on_c, 0, 58, 79
1, 1920, Note_on_c, 1, 46, 70
1, 1943, Note_on_c, 0, 58, 0
1, 1944, Note_on_c, 0, 62, 80
1, 1965, Note_on_c, 1, 46, 0
1, 1967, Note_on_c, 0, 62, 0
1, 1968, Note_on_c, 0, 63, 79
1, 1968, Note_on_c, 1, 46, 70
1, 1991, Note_on_c, 0, 63, 0
1, 1992, Note_on_c, 0, 55, 79
1, 2013, Note_on_c, 1, 46, 0
1, 2015, Note_on_c, 0, 55, 0
1, 2016, Note_on_c, 0, 58, 79
1, 2016, Note_on_c, 0, 55, 64
1, 2016, Note_on_c, 1, 46, 70
1, 2061, Note_on_c, 1, 46, 0
1, 2064, Note_on_c, 1, 46, 70
1, 2105, Note_on_c, 0, 58, 0
1, 2105, Note_on_c, 0, 55, 0
1, 2109, Note_on_c, 1, 46, 0
1, 2112, Note_on_c, 0, 56, 77
1, 2112, Note_on_c, 0, 53, 64
1, 2112, Note_on_c, 1, 46, 70
1, 2118, Note_on_c, 0, 56, 0
1, 2118, Note_on_c, 0, 58, 77
1, 2124, Note_on_c, 0, 58, 0
1, 2124, Note_on_c, 0, 56, 77
1, 2135, Note_on_c, 0, 56, 0
1, 2136, Note_on_c, 0, 55, 77
1, 2157, Note_on_c, 1, 46, 0
1, 2159, Note_on_c, 0, 55, 0
1, 2160, Note_on_c, 0, 56, 77
1, 2160, Note_on_c, 1, 46, 70
1, 2201, Note_on_c, 0, 53, 0
1, 2205, Note_on_c, 0, 56, 0
1, 2205, Note_on_c, 1, 46, 0
1, 2208, Note_on_c, 0, 55, 76
1, 2208, Note_on_c, 0, 51, 64
1, 2208, Note_on_c, 1, 39, 70
1, 2253, Note_on_c, 1, 39, 0
1, 2256, Note_on_c, 1, 39, 70
1, 2297, Note_on_c, 0, 55, 0
1, 2297, Note_on_c, 0, 51, 0
1, 2301, Note_on_c, 1, 39, 0
1, 2304, Note_on_c, 0, 60, 75
1, 2304, Note_on_c, 0, 56, 75
1, 2304, Note_on_c, 1, 39, 70
1, 2349, Note_on_c, 1, 39, 0
1, 2352, Note_on_c, 1, 39, 70
1, 2397, Note_on_c, 1, 39, 0
1, 2400, Note_on_c, 1, 39, 70
1, 2423, Note_on_c, 0, 60, 0
1, 2423, Note_on_c, 0, 56, 0
1, 2424, Note_on_c, 0, 56, 75
1, 2424, Note_on_c, 0, 53, 75
1, 2445, Note_on_c, 1, 39, 0
1, 2447, Note_on_c, 0, 56, 0
1, 2447, Note_on_c, 0, 53, 0
1, 2448, Note_on_c, 0, 56, 75
1, 2448, Note_on_c, 0, 53, 75
1, 2448, Note_on_c, 1, 39, 70
1, 2471, Note_on_c, 0, 56, 0
1, 2471, Note_on_c, 0, 53, 0
1, 2472, Note_on_c, 0, 60, 75
1, 2472, Note_on_c, 0, 56, 75
1, 2493, Note_on_c, 1, 39, 0
1, 2495, Note_on_c, 0, 60, 0
1, 2495, Note_on_c, 0, 56, 0
1, 2496, Note_on_c, 0, 60, 75
1, 2496, Note_on_c, 0, 56, 75
1, 2496, Note_on_c, 1, 39, 70
1, 2519, Note_on_c, 0, 60, 0
1, 2519, Note_on_c, 0, 56, 0
1, 2520, Note_on_c, 0, 56, 75
1, 2520, Note_on_c, 0, 53, 75
1, 2541, Note_on_c, 1, 39, 0
1, 2543, Note_on_c, 0, 56, 0
1, 2543, Note_on_c, 0, 53, 0
1, 2544, Note_on_c, 0, 56, 75
1, 2544, Note_on_c, 0, 53, 75
1, 2544, Note_on_c, 1, 39, 70
1, 2567, Note_on_c, 0, 56, 0
1, 2567, Note_on_c, 0, 53, 0
1, 2568, Note_on_c, 0, 60, 75
1, 2568, Note_on_c, 0, 56, 75
1, 2589, Note_on_c, 1, 39, 0
1, 2591, Note_on_c, 0, 60, 0
1, 2591, Note_on_c, 0, 56, 0
1, 2592, Note_on_c, 0, 58, 75
1, 2592, Note_on_c, 0, 55, 75
1, 2592, Note_on_c, 1, 39, 70
1, 2637, Note_on_c, 1, 39, 0
1, 2640, Note_on_c, 1, 39, 70
1, 2685, Note_on_c, 1, 39, 0
1, 2688, Note_on_c, 1, 39, 70
1, 2711, Note_on_c, 0, 58, 0
1, 2711, Note_on_c, 0, 55, 0
1, 2712, Note_on_c, 0, 55, 75
1, 2712, Note_on_c, 0, 51, 75
1, 2733, Note_on_c, 1, 39, 0
1, 2735, Note_on_c, 0, 55, 0
1, 2735, Note_on_c, 0, 51, 0
1, 2736, Note_on_c, 0, 55, 75
1, 2736, Note_on_c, 0, 51, 75
1, 2736, Note_on_c, 1, 39, 70
1, 2759, Note_on_c, 0, 55, 0
1, 2759, Note_on_c, 0, 51, 0
1, 2760, Note_on_c, 0, 58, 75
1, 2760, Note_on_c, 0, 55, 75
1, 2781, Note_on_c, 1, 39, 0
1, 2783, Note_on_c, 0, 58, 0
1, 2783, Note_on_c, 0, 55, 0
1, 2784, Note_on_c, 0, 58, 75
1, 2784, Note_on_c, 0, 55, 75
1, 2784, Note_on_c, 1, 39, 70
1, 2807, Note_on_c, 0, 58, 0
1, 2807, Note_on_c, 0, 55, 0
1, 2808, Note_on_c, 0, 55, 75
1, 2808, Note_on_c, 0, 51, 75
1, 2829, Note_on_c, 1, 39, 0
1, 2831, Note_on_c, 0, 55, 0
1, 2831, Note_on_c, 0, 51, 0
1, 2832, Note_on_c, 0, 55, 75
1, 2832, Note_on_c, 0, 51, 75
1, 2832, Note_on_c, 1, 39, 70
1, 2855, Note_on_c, 0, 55, 0
1, 2855, Note_on_c, 0, 51, 0
1, 2856, Note_on_c, 0, 58, 75
1, 2856, Note_on_c, 0, 55, 75
1, 2877, Note_on_c, 1, 39, 0
1, 2879, Note_on_c, 0, 58, 0
1, 2879, Note_on_c, 0, 55, 0
1, 2880, Note_on_c, 0, 56, 75
1, 2880, Note_on_c, 0, 53, 75
1, 2880, Note_on_c, 1, 39, 70
1, 2925, Note_on_c, 1, 39, 0
1, 2928, Note_on_c, 1, 39, 70
1, 2973, Note_on_c, 1, 39, 0
1, 2976, Note_on_c, 1, 39, 70
1, 2999, Note_on_c, 0, 56, 0
1, 2999, Note_on_c, 0, 53, 0
1, 3000, Note_on_c, 0, 53, 75
1, 3000, Note_on_c, 0, 50, 75
1, 3021, Note_on_c, 1, 39, 0
1, 3023, Note_on_c, 0, 53, 0
1, 3023, Note_on_c, 0, 50, 0
1, 3024, Note_on_c, 0, 53, 75
1, 3024, Note_on_c, 0, 50, 75
1, 3024, Note_on_c, 1, 39, 70
1, 3047, Note_on_c, 0, 53, 0
1, 3047, Note_on_c, 0, 50, 0
1, 3048, Note_on_c, 0, 56, 75
1, 3048, Note_on_c, 0, 53, 75
1, 3069, Note_on_c, 1, 39, 0
1, 3071, Note_on_c, 0, 56, 0
1, 3071, Note_on_c, 0, 53, 0
1, 3072, Note_on_c, 0, 56, 75
1, 3072, Note_on_c, 0, 53, 75
1, 3072, Note_on_c, 1, 39, 70
1, 3095, Note_on_c, 0, 56, 0
1, 3095, Note_on_c, 0, 53, 0
1, 3096, Note_on_c, 0, 55, 75
1, 3096, Note_on_c, 0, 51, 75
1, 3117, Note_on_c, 1, 39, 0
1, 3119, Note_on_c, 0, 55, 0
1, 3119, Note_on_c, 0, 51, 0
1, 3120, Note_on_c, 0, 55, 75
1, 3120, Note_on_c, 0, 51, 75
1, 3120, Note_on_c, 1, 39, 70
1, 3143, Note_on_c, 0, 55, 0
1, 3143, Note_on_c, 0, 51, 0
1, 3144, Note_on_c, 0, 53, 75
1, 3144, Note_on_c, 0, 50, 75
1, 3165, Note_on_c, 1, 39, 0
1, 3167, Note_on_c, 0, 53, 0
1, 3167, Note_on_c, 0, 50, 0
1, 3168, Note_on_c, 0, 55, 75
1, 3168, Note_on_c, 0, 51, 75
1, 3168, Note_on_c, 1, 39, 75
1, 3213, Note_on_c, 0, 55, 0
1, 3213, Note_on_c, 0, 51, 0
1, 3216, Note_on_c, 0, 68, 91
1, 3216, Note_on_c, 0, 65, 91
1, 3257, Note_on_c, 1, 39, 0
1, 3264, Note_on_c, 1, 46, 76
1, 3312, Note_on_c, 0, 68, 0
1, 3312, Note_on_c, 0, 65, 0
1, 3312, Note_on_c, 0, 67, 77
1, 3312, Note_on_c, 0, 63, 77
1, 3353, Note_on_c, 1, 46, 0
1, 3360, Note_on_c, 1, 47, 78
1, 3401, Note_on_c, 0, 67, 0
1, 3401, Note_on_c, 0, 63, 0
1, 3408, Note_on_c, 0, 65, 79
1, 3408, Note_on_c, 0, 62, 79
1, 3449, Note_on_c, 1, 47, 0
1, 3453, Note_on_c, 0, 65, 0
1, 3453, Note_on_c, 0, 62, 0
1, 3456, Note_on_c, 0, 63, 80
1, 3456, Note_on_c, 0, 60, 64
1, 3456, Note_on_c, 1, 48, 80
1, 3523, Note_on_c, 0, 63, 0
1, 3528, Note_on_c, 0, 69, 80
1, 3545, Note_on_c, 0, 60, 0
1, 3545, Note_on_c, 1, 48, 0
1, 3551, Note_on_c, 0, 69, 0
1, 3552, Note_on_c, 0, 69, 80
1, 3558, Note_on_c, 0, 69, 0
1, 3558, Note_on_c, 0, 70, 80
1, 3564, Note_on_c, 0, 70, 0
1, 3564, Note_on_c, 0, 69, 80
1, 3570, Note_on_c, 0, 69, 0
1, 3570, Note_on_c, 0, 67, 80
1, 3576, Note_on_c, 0, 67, 0
1, 3576, Note_on_c, 0, 69, 80
1, 3729, Note_on_c, 0, 69, 0
1, 3744, Note_on_c, 0, 84, 75
1, 3767, Note_on_c, 0, 84, 0
1, 3768, Note_on_c, 0, 81, 75
1, 3791, Note_on_c, 0, 81, 0
1, 3792, Note_on_c, 0, 77, 75
1, 3815, Note_on_c, 0, 77, 0
1, 3816, Note_on_c, 0, 75, 75
1, 3839, Note_on_c, 0, 75, 0
1, 3840, Note_on_c, 0, 74, 75
1, 3863, Note_on_c, 0, 74, 0
1, 3864, Note_on_c, 0, 82, 75
1, 3874, Note_on_c, 0, 82, 0
1, 3888, Note_on_c, 0, 78, 75
1, 3912, Note_on_c, 0, 78, 0
1, 3912, Note_on_c, 0, 79, 75
1, 3935, Note_on_c, 0, 79, 0
1, 3936, Note_on_c, 0, 72, 75
1, 3959, Note_on_c, 0, 72, 0
1, 3960, Note_on_c, 0, 74, 75
1, 3983, Note_on_c, 0, 74, 0
1, 3984, Note_on_c, 0, 75, 75
1, 4007, Note_on_c, 0, 75, 0
1, 4008, Note_on_c, 0, 74, 75
1, 4031, Note_on_c, 0, 74, 0
1, 4032, Note_on_c, 0, 75, 75
1, 4032, Note_on_c, 1, 60, 75
1, 4055, Note_on_c, 1, 60, 0
1, 4056, Note_on_c, 1, 57, 75
1, 4077, Note_on_c, 0, 75, 0
1, 4079, Note_on_c, 1, 57, 0
1, 4080, Note_on_c, 0, 84, 91
1, 4080, Note_on_c, 1, 53, 75
1, 4103, Note_on_c, 1, 53, 0
1, 4104, Note_on_c, 1, 51, 75
1, 4127, Note_on_c, 1, 51, 0
1, 4128, Note_on_c, 1, 50, 75
1, 4151, Note_on_c, 1, 50, 0
1, 4152, Note_on_c, 1, 58, 75
1, 4162, Note_on_c, 1, 58, 0
1, 4176, Note_on_c, 0, 84, 0
1, 4176, Note_on_c, 0, 81, 75
1, 4176, Note_on_c, 1, 54, 75
1, 4200, Note_on_c, 0, 81, 0
1, 4200, Note_on_c, 0, 82, 75
1, 4200, Note_on_c, 1, 54, 0
1, 4200, Note_on_c, 1, 55, 75
1, 4223, Note_on_c, 0, 82, 0
1, 4223, Note_on_c, 1, 55, 0
1, 4224, Note_on_c, 0, 75, 75
1, 4224, Note_on_c, 0, 74, 75
1, 4224, Note_on_c, 1, 48, 75
1, 4247, Note_on_c, 1, 48, 0
1, 4248, Note_on_c, 1, 50, 75
1, 4269, Note_on_c, 0, 75, 0
1, 4269, Note_on_c, 0, 74, 0
1, 4271, Note_on_c, 1, 50, 0
1, 4272, Note_on_c, 0, 75, 75
1, 4272, Note_on_c, 0, 72, 75
1, 4272, Note_on_c, 0, 67, 75
1, 4272, Note_on_c, 1, 51, 75
1, 4295, Note_on_c, 1, 51, 0
1, 4296, Note_on_c, 1, 50, 75
1, 4319, Note_on_c, 1, 50, 0
1, 4320, Note_on_c, 1, 48, 75
1, 4343, Note_on_c, 1, 48, 0
1, 4344, Note_on_c, 1, 50, 75
1, 4365, Note_on_c, 0, 75, 0
1, 4365, Note_on_c, 0, 72, 0
1, 4365, Note_on_c, 0, 67, 0
1, 4367, Note_on_c, 1, 50, 0
1, 4368, Note_on_c, 0, 75, 75
1, 4368, Note_on_c, 0, 72, 75
1, 4368, Note_on_c, 0, 67, 75
1, 4368, Note_on_c, 1, 51, 75
1, 4391, Note_on_c, 1, 51, 0
1, 4392, Note_on_c, 1, 50, 76
1, 4415, Note_on_c, 1, 50, 0
1, 4416, Note_on_c, 1, 48, 76
1, 4439, Note_on_c, 1, 48, 0
1, 4440, Note_on_c, 1, 50, 77
1, 4457, Note_on_c, 0, 75, 0
1, 4457, Note_on_c, 0, 72, 0
1, 4457, Note_on_c, 0, 67, 0
1, 4463, Note_on_c, 1, 50, 0
1, 4464, Note_on_c, 0, 75, 77
1, 4464, Note_on_c, 0, 72, 77
1, 4464, Note_on_c, 0, 67, 77
1, 4464, Note_on_c, 1, 51, 77
1, 4487, Note_on_c, 1, 51, 0
1, 4488, Note_on_c, 1, 48, 77
1, 4511, Note_on_c, 1, 48, 0
1, 4512, Note_on_c, 1, 46, 78
1, 4535, Note_on_c, 1, 46, 0
1, 4536, Note_on_c, 1, 50, 78
1, 4553, Note_on_c, 0, 75, 0
1, 4553, Note_on_c, 0, 72, 0
1, 4553, Note_on_c, 0, 67, 0
1, 4559, Note_on_c, 1, 50, 0
1, 4560, Note_on_c, 0, 75, 79
1, 4560, Note_on_c, 0, 72, 79
1, 4560, Note_on_c, 0, 67, 79
1, 4560, Note_on_c, 1, 51, 79
1, 4583, Note_on_c, 1, 51, 0
1, 4584, Note_on_c, 1, 46, 79
1, 4605, Note_on_c, 0, 75, 0
1, 4605, Note_on_c, 0, 72, 0
1, 4605, Note_on_c, 0, 67, 0
1, 4607, Note_on_c, 1, 46, 0
1, 4608, Note_on_c, 0, 65, 80
1, 4608, Note_on_c, 1, 45, 80
1, 4614, Note_on_c, 0, 69, 80
1, 4614, Note_on_c, 1, 48, 80
1, 4620, Note_on_c, 0, 72, 80
1, 4620, Note_on_c, 1, 53, 80
1, 4626, Note_on_c, 0, 75, 80
1, 4626, Note_on_c, 1, 57, 80
1, 4656, Tempo, 3000000
1, 4679, Note_on_c, 0, 75, 0
1, 4679, Note_on_c, 0, 72, 0
1, 4679, Note_on_c, 0, 69, 0
1, 4679, Note_on_c, 0, 65, 0
1, 4679, Note_on_c, 1, 57, 0
1, 4679, Note_on_c, 1, 53, 0
1, 4679, Note_on_c, 1, 48, 0
1, 4679, Note_on_c, 1, 45, 0
1, 4680, Tempo, 1090909
1, 4680, Note_on_c, 0, 72, 75
1, 4703, Note_on_c, 0, 72, 0
1, 4704, Note_on_c, 0, 74, 76
1, 4704, Note_on_c, 1, 46, 80
1, 4719, Note_on_c, 0, 74, 0
1, 4720, Note_on_c, 0, 72, 77
1, 4735, Note_on_c, 0, 72, 0
1, 4736, Note_on_c, 0, 74, 78
1, 4749, Note_on_c, 1, 46, 0
1, 4751, Note_on_c, 0, 74, 0
1, 4752, Note_on_c, 0, 75, 79
1, 4752, Note_on_c, 1, 51, 81
1, 4767, Note_on_c, 0, 75, 0
1, 4768, Note_on_c, 0, 74, 80
1, 4783, Note_on_c, 0, 74, 0
1, 4784, Note_on_c, 0, 72, 79
1, 4797, Note_on_c, 1, 51, 0
1, 4799, Note_on_c, 0, 72, 0
1, 4800, Note_on_c, 0, 70, 79
1, 4800, Note_on_c, 1, 53, 83
1, 4845, Note_on_c, 0, 70, 0
1, 4845, Note_on_c, 1, 53, 0
1, 4848, Note_on_c, 0, 69, 77
1, 4848, Note_on_c, 1, 54, 84
1, 4854, Note_on_c, 0, 69, 0
1, 4854, Note_on_c, 0, 70, 77
1, 4860, Note_on_c, 0, 70, 0
1, 4860, Note_on_c, 0, 69, 77
1, 4893, Note_on_c, 0, 69, 0
1, 4893, Note_on_c, 1, 54, 0
1, 4896, Note_on_c, 0, 70, 75
1, 4896, Note_on_c, 1, 55, 86
1, 4920, Note_on_c, 0, 70, 0
1, 4920, Note_on_c, 0, 64, 75
1, 4941, Note_on_c, 1, 55, 0
1, 4943, Note_on_c, 0, 64, 0
1, 4944, Note_on_c, 0, 64, 76
1, 4944, Note_on_c, 0, 60, 76
1, 4944, Note_on_c, 0, 58, 76
1, 4944, Note_on_c, 0, 55, 76
1, 4944, Note_on_c, 1, 52, 86
1, 4944, Note_on_c, 1, 48, 86
1, 5033, Note_on_c, 0, 64, 0
1, 5033, Note_on_c, 0, 60, 0
1, 5033, Note_on_c, 0, 58, 0
1, 5033, Note_on_c, 0, 55, 0
1, 5033, Note_on_c, 1, 52, 0
1, 5033, Note_on_c, 1, 48, 0
1, 5112, Note_on_c, 0, 67, 64
1, 5112, Note_on_c, 0, 63, 64
1, 5112, Note_on_c, 1, 51, 64
1, 5112, Note_on_c, 1, 48, 64
1, 5135, Note_on_c, 0, 67, 0
1, 5135, Note_on_c, 0, 63, 0
1, 5135, Note_on_c, 1, 51, 0
1, 5135, Note_on_c, 1, 48, 0
1, 5136, Note_on_c, 0, 65, 64
1, 5136, Note_on_c, 0, 62, 64
1, 5136, Note_on_c, 1, 53, 64
1, 5136, Note_on_c, 1, 50, 64
1, 5159, Note_on_c, 0, 65, 0
1, 5159, Note_on_c, 0, 62, 0
1, 5159, Note_on_c, 1, 53, 0
1, 5159, Note_on_c, 1, 50, 0
1, 5160, Note_on_c, 0, 63, 64
1, 5160, Note_on_c, 0, 60, 64
1, 5160, Note_on_c, 1, 55, 64
1, 5160, Note_on_c, 1, 51, 64
1, 5183, Note_on_c, 0, 63, 0
1, 5183, Note_on_c, 0, 60, 0
1, 5183, Note_on_c, 1, 55, 0
1, 5183, Note_on_c, 1, 51, 0
1, 5184, Note_on_c, 0, 62, 64
1, 5184, Note_on_c, 0, 58, 64
1, 5184, Note_on_c, 1, 50, 64
1, 5184, Note_on_c, 1, 46, 64
1, 5207, Note_on_c, 0, 62, 0
1, 5207, Note_on_c, 0, 58, 0
1, 5208, Note_on_c, 0, 89, 64
1, 5208, Note_on_c, 0, 86, 64
1, 5229, Note_on_c, 1, 50, 0
1, 5229, Note_on_c, 1, 46, 0
1, 5231, Note_on_c, 0, 89, 0
1, 5231, Note_on_c, 0, 86, 0
1, 5232, Note_on_c, 0, 87, 64
1, 5232, Note_on_c, 0, 84, 64
1, 5255, Note_on_c, 0, 87, 0
1, 5255, Note_on_c, 0, 84, 0
1, 5256, Note_on_c, 0, 86, 64
1, 5256, Note_on_c, 0, 82, 64
1, 5279, Note_on_c, 0, 86, 0
1, 5279, Note_on_c, 0, 82, 0
1, 5280, Note_on_c, 0, 84, 64
1, 5280, Note_on_c, 0, 81, 64
1, 5303, Note_on_c, 0, 84, 0
1, 5303, Note_on_c, 0, 81, 0
1, 5304, Note_on_c, 0, 82, 65
1, 5304, Note_on_c, 0, 79, 65
1, 5327, Note_on_c, 0, 82, 0
1, 5327, Note_on_c, 0, 79, 0
1, 5328, Note_on_c, 0, 81, 65
1, 5328, Note_on_c, 0, 77, 65
1, 5351, Note_on_c, 0, 81, 0
1, 5351, Note_on_c, 0, 77, 0
1, 5352, Note_on_c, 0, 79, 65
1, 5352, Note_on_c, 0, 75, 65
1, 5375, Note_on_c, 0, 79, 0
1, 5375, Note_on_c, 0, 75, 0
1, 5376, Note_on_c, 0, 77, 66
1, 5376, Note_on_c, 0, 74, 66
1, 5399, Note_on_c, 0, 77, 0
1, 5399, Note_on_c, 0, 74, 0
1, 5400, Note_on_c, 0, 75, 66
1, 5400, Note_on_c, 0, 72, 66
1, 5423, Note_on_c, 0, 75, 0
1, 5423, Note_on_c, 0, 72, 0
1, 5424, Note_on_c, 0, 74, 66
1, 5424, Note_on_c, 0, 70, 66
1, 5447, Note_on_c, 0, 74, 0
1, 5447, Note_on_c, 0, 70, 0
1, 5448, Note_on_c, 0, 72, 67
1, 5448, Note_on_c, 0, 69, 67
1, 5471, Note_on_c, 0, 72, 0
1, 5471, Note_on_c, 0, 69, 0
1, 5472, Note_on_c, 0, 70, 67
1, 5472, Note_on_c, 0, 67, 67
1, 5495, Note_on_c, 0, 70, 0
1, 5495, Note_on_c, 0, 67, 0
1, 5496, Note_on_c, 0, 69, 67
1, 5496, Note_on_c, 0, 65, 67
1, 5519, Note_on_c, 0, 69, 0
1, 5519, Note_on_c, 0, 65, 0
1, 5520, Note_on_c, 0, 67, 68
1, 5520, Note_on_c, 0, 63, 68
1, 5543, Note_on_c, 0, 67, 0
1, 5543, Note_on_c, 0, 63, 0
1, 5544, Note_on_c, 0, 65, 68
1, 5544, Note_on_c, 0, 62, 68
1, 5567, Note_on_c, 0, 65, 0
1, 5567, Note_on_c, 0, 62, 0
1, 5568, Note_on_c, 0, 63, 68
1, 5568, Note_on_c, 0, 60, 68
1, 5568, Note_on_c, 1, 51, 80
1, 5591, Note_on_c, 1, 51, 0
1, 5592, Note_on_c, 1, 50, 80
1, 5613, Note_on_c, 0, 63, 0
1, 5613, Note_on_c, 0, 60, 0
1, 5615, Note_on_c, 1, 50, 0
1, 5616, Note_on_c, 1, 60, 80
1, 5616, Note_on_c, 1, 48, 80
1, 5639, Note_on_c, 1, 60, 0
1, 5639, Note_on_c, 1, 48, 0
1, 5640, Note_on_c, 1, 58, 80
1, 5640, Note_on_c, 1, 46, 80
1, 5663, Note_on_c, 1, 58, 0
1, 5663, Note_on_c, 1, 46, 0
1, 5664, Note_on_c, 1, 57, 80
1, 5664, Note_on_c, 1, 45, 80
1, 5687, Note_on_c, 1, 57, 0
1, 5687, Note_on_c, 1, 45, 0
1, 5688, Note_on_c, 0, 82, 80
1, 5688, Note_on_c, 0, 70, 80
1, 5688, Note_on_c, 1, 55, 80
1, 5688, Note_on_c, 1, 43, 80
1, 5711, Note_on_c, 0, 82, 0
1, 5711, Note_on_c, 0, 70, 0
1, 5711, Note_on_c, 1, 55, 0
1, 5711, Note_on_c, 1, 43, 0
1, 5712, Note_on_c, 0, 81, 80
1, 5712, Note_on_c, 0, 69, 80
1, 5712, Note_on_c, 1, 53, 80
1, 5712, Note_on_c, 1, 41, 80
1, 5735, Note_on_c, 0, 81, 0
1, 5735, Note_on_c, 0, 69, 0
1, 5735, Note_on_c, 1, 53, 0
1, 5735, Note_on_c, 1, 41, 0
1, 5736, Note_on_c, 0, 79, 80
1, 5736, Note_on_c, 0, 67, 80
1, 5736, Note_on_c, 1, 51, 80
1, 5736, Note_on_c, 1, 39, 80
1, 5759, Note_on_c, 0, 79, 0
1, 5759, Note_on_c, 0, 67, 0
1, 5759, Note_on_c, 1, 51, 0
1, 5759, Note_on_c, 1, 39, 0
1, 5760, Note_on_c, 0, 77, 80
1, 5760, Note_on_c, 0, 65, 80
1, 5760, Note_on_c, 1, 50, 80
1, 5760, Note_on_c, 1, 38, 80
1, 5783, Note_on_c, 0, 77, 0
1, 5783, Note_on_c, 0, 65, 0
1, 5784, Note_on_c, 0, 78, 75
1, 5805, Note_on_c, 1, 50, 0
1, 5805, Note_on_c, 1, 38, 0
1, 5808, Note_on_c, 0, 78, 0
1, 5808, Note_on_c, 0, 79, 75
1, 5808, Note_on_c, 1, 59, 75
1, 5808, Note_on_c, 1, 47, 75
1, 5831, Note_on_c, 0, 79, 0
1, 5832, Note_on_c, 0, 74, 75
1, 5853, Note_on_c, 1, 59, 0
1, 5853, Note_on_c, 1, 47, 0
1, 5856, Note_on_c, 0, 74, 0
1, 5856, Note_on_c, 0, 75, 75
1, 5856, Note_on_c, 1, 60, 75
1, 5856, Note_on_c, 1, 48, 75
1, 5879, Note_on_c, 0, 75, 0
1, 5880, Note_on_c, 0, 76, 75
1, 5901, Note_on_c, 1, 60, 0
1, 5901, Note_on_c, 1, 48, 0
1, 5904, Note_on_c, 0, 76, 0
1, 5904, Note_on_c, 0, 77, 75
1, 5904, Note_on_c, 1, 57, 75
1, 5904, Note_on_c, 1, 45, 75
1, 5927, Note_on_c, 0, 77, 0
1, 5928, Note_on_c, 0, 72, 75
1, 5949, Note_on_c, 1, 57, 0
1, 5949, Note_on_c, 1, 45, 0
1, 5952, Note_on_c, 0, 72, 0
1, 5952, Note_on_c, 0, 73, 75
1, 5952, Note_on_c, 1, 58, 75
1, 5952, Note_on_c, 1, 46, 75
1, 5975, Note_on_c, 0, 73, 0
1, 5976, Note_on_c, 0, 74, 75
1, 5997, Note_on_c, 1, 58, 0
1, 5997, Note_on_c, 1, 46, 0
1, 5999, Note_on_c, 0, 74, 0
1, 6000, Note_on_c, 0, 67, 75
1, 6000, Note_on_c, 1, 51, 75
1, 6000, Note_on_c, 1, 39, 75
1, 6023, Note_on_c, 0, 67, 0
1, 6024, Note_on_c, 0, 75, 75
1, 6045, Note_on_c, 1, 51, 0
1, 6045, Note_on_c, 1, 39, 0
1, 6047, Note_on_c, 0, 75, 0
1, 6048, Tempo, 1132075
1, 6048, Note_on_c, 0, 70, 75
1, 6048, Note_on_c, 0, 62, 75
1, 6048, Note_on_c, 1, 53, 75
1, 6048, Note_on_c, 1, 41, 75
1, 6071, Note_on_c, 0, 70, 0
1, 6071, Note_on_c, 0, 62, 0
1, 6071, Note_on_c, 1, 53, 0
1, 6071, Note_on_c, 1, 41, 0
1, 6072, Tempo, 1250000
1, 6072, Note_on_c, 0, 70, 75
1, 6072, Note_on_c, 0, 62, 75
1, 6072, Note_on_c, 1, 54, 75
1, 6072, Note_on_c, 1, 42, 75
1, 6095, Note_on_c, 1, 54, 0
1, 6095, Note_on_c, 1, 42, 0
1, 6096, Note_on_c, 1, 55, 75
1, 6096, Note_on_c, 1, 43, 75
1, 6117, Note_on_c, 0, 70, 0
1, 6117, Note_on_c, 0, 62, 0
1, 6119, Note_on_c, 1, 55, 0
1, 6119, Note_on_c, 1, 43, 0
1, 6120, Tempo, 1395348
1, 6120, Note_on_c, 0, 70, 76
1, 6120, Note_on_c, 0, 62, 76
1, 6120, Note_on_c, 1, 50, 76
1, 6120, Note_on_c, 1, 38, 76
1, 6143, Note_on_c, 1, 50, 0
1, 6143, Note_on_c, 1, 38, 0
1, 6144, Note_on_c, 1, 51, 76
1, 6144, Note_on_c, 1, 39, 76
1, 6165, Note_on_c, 0, 70, 0
1, 6165, Note_on_c, 0, 62, 0
1, 6167, Note_on_c, 1, 51, 0
1, 6167, Note_on_c, 1, 39, 0
1, 6168, Tempo, 2000000
1, 6168, Note_on_c, 0, 70, 77
1, 6168, Note_on_c, 0, 62, 77
1, 6168, Note_on_c, 1, 52, 77
1, 6168, Note_on_c, 1, 40, 77
1, 6191, Note_on_c, 0, 70, 0
1, 6191, Note_on_c, 0, 62, 0
1, 6191, Note_on_c, 1, 52, 0
1, 6191, Note_on_c, 1, 40, 0
1, 6192, Tempo, 1395348
1, 6192, Note_on_c, 0, 70, 77
1, 6192, Note_on_c, 0, 62, 77
1, 6192, Note_on_c, 1, 53, 77
1, 6192, Note_on_c, 1, 41, 77
1, 6325, Note_on_c, 0, 70, 0
1, 6325, Note_on_c, 0, 62, 0
1, 6325, Note_on_c, 1, 53, 0
1, 6325, Note_on_c, 1, 41, 0
1, 6336, Tempo, 1090909
1, 6336, Note_on_c, 0, 65, 80
1, 6359, Note_on_c, 0, 65, 0
1, 6360, Note_on_c, 0, 67, 80
1, 6372, Note_on_c, 0, 67, 0
1, 6372, Note_on_c, 0, 69, 80
1, 6384, Note_on_c, 0, 69, 0
1, 6384, Note_on_c, 0, 70, 80
1, 6396, Note_on_c, 0, 70, 0
1, 6396, Note_on_c, 0, 72, 80
1, 6408, Note_on_c, 0, 72, 0
1, 6408, Note_on_c, 0, 74, 80
1, 6420, Note_on_c, 0, 74, 0
1, 6420, Note_on_c, 0, 75, 80
1, 6432, Note_on_c, 0, 75, 0
1, 6432, Note_on_c, 0, 77, 80
1, 6444, Note_on_c, 0, 77, 0
1, 6444, Note_on_c, 0, 79, 80
1, 6456, Note_on_c, 0, 79, 0
1, 6456, Note_on_c, 0, 81, 80
1, 6468, Note_on_c, 0, 81, 0
1, 6468, Note_on_c, 0, 82, 80
1, 6480, Note_on_c, 0, 82, 0
1, 6480, Note_on_c, 0, 81, 80
1, 6492, Note_on_c, 0, 81, 0
1, 6492, Note_on_c, 0, 82, 80
1, 6504, Note_on_c, 0, 82, 0
1, 6504, Note_on_c, 0, 81, 80
1, 6516, Note_on_c, 0, 81, 0
1, 6516, Note_on_c, 0, 82, 80
1, 6528, Note_on_c, 0, 82, 0
1, 6528, Note_on_c, 0, 74, 80
1, 6544, Note_on_c, 0, 74, 0
1, 6544, Note_on_c, 0, 72, 80
1, 6552, Note_on_c, 0, 72, 0
1, 6552, Note_on_c, 0, 74, 80
1, 6560, Note_on_c, 0, 74, 0
1, 6560, Note_on_c, 0, 72, 80
1, 6568, Note_on_c, 0, 72, 0
1, 6568, Note_on_c, 0, 74, 80
1, 6576, Note_on_c, 0, 74, 0
1, 6576, Note_on_c, 0, 72, 80
1, 6584, Note_on_c, 0, 72, 0
1, 6584, Note_on_c, 0, 74, 80
1, 6592, Note_on_c, 0, 74, 0
1, 6592, Note_on_c, 0, 72, 80
1, 6600, Note_on_c, 0, 72, 0
1, 6600, Note_on_c, 0, 74, 80
1, 6608, Note_on_c, 0, 74, 0
1, 6608, Note_on_c, 0, 72, 80
1, 6616, Note_on_c, 0, 72, 0
1, 6616, Note_on_c, 0, 74, 80
1, 6624, Note_on_c, 0, 74, 0
1, 6624, Note_on_c, 0, 72, 80
1, 6624, Note_on_c, 1, 63, 80
1, 6624, Note_on_c, 1, 57, 80
1, 6624, Note_on_c, 1, 53, 80
1, 6632, Note_on_c, 0, 72, 0
1, 6632, Note_on_c, 0, 74, 80
1, 6640, Note_on_c, 0, 74, 0
1, 6640, Note_on_c, 0, 72, 80
1, 6648, Note_on_c, 0, 72, 0
1, 6648, Note_on_c, 0, 74, 80
1, 6656, Note_on_c, 0, 74, 0
1, 6656, Note_on_c, 0, 72, 80
1, 6664, Note_on_c, 0, 72, 0
1, 6664, Note_on_c, 0, 74, 80
1, 6671, Note_on_c, 0, 74, 0
1, 6671, Note_on_c, 0, 72, 80
1, 6678, Note_on_c, 0, 72, 0
1, 6678, Note_on_c, 0, 74, 80
1, 6685, Note_on_c, 0, 74, 0
1, 6685, Note_on_c, 0, 72, 80
1, 6692, Note_on_c, 0, 72, 0
1, 6692, Note_on_c, 0, 70, 80
1, 6706, Note_on_c, 0, 70, 0
1, 6706, Note_on_c, 0, 72, 80
1, 6713, Note_on_c, 1, 63, 0
1, 6713, Note_on_c, 1, 57, 0
1, 6713, Note_on_c, 1, 53, 0
1, 6720, Note_on_c, 0, 72, 0
1, 6720, Note_on_c, 0, 70, 80
1, 6720, Note_on_c, 1, 58, 80
1, 6743, Note_on_c, 0, 70, 0
1, 6744, Note_on_c, 0, 65, 78
1, 6744, Note_on_c, 0, 62, 78
1, 6765, Note_on_c, 1, 58, 0
1, 6767, Note_on_c, 0, 65, 0
1, 6767, Note_on_c, 0, 62, 0
1, 6768, Note_on_c, 0, 65, 77
1, 6768, Note_on_c, 0, 62, 77
1, 6768, Note_on_c, 1, 46, 77
1, 6792, Note_on_c, 0, 65, 0
1, 6792, Note_on_c, 0, 62, 0
1, 6792, Note_on_c, 0, 67, 76
1, 6792, Note_on_c, 0, 63, 76
1, 6813, Note_on_c, 1, 46, 0
1, 6815, Note_on_c, 0, 67, 0
1, 6815, Note_on_c, 0, 63, 0
1, 6816, Note_on_c, 0, 67, 74
1, 6816, Note_on_c, 0, 63, 74
1, 6816, Note_on_c, 1, 46, 74
1, 6840, Note_on_c, 0, 67, 0
1, 6840, Note_on_c, 0, 60, 73
1, 6861, Note_on_c, 1, 46, 0
1, 6863, Note_on_c, 0, 63, 0
1, 6863, Note_on_c, 0, 60, 0
1, 6864, Note_on_c, 0, 63, 72
1, 6864, Note_on_c, 0, 60, 72
1, 6864, Note_on_c, 1, 46, 72
1, 6888, Note_on_c, 0, 63, 0
1, 6888, Note_on_c, 0, 60, 0
1, 6888, Note_on_c, 0, 65, 70
1, 6888, Note_on_c, 0, 62, 70
1, 6909, Note_on_c, 1, 46, 0
1, 6911, Note_on_c, 0, 65, 0
1, 6911, Note_on_c, 0, 62, 0
1, 6912, Note_on_c, 0, 65, 69
1, 6912, Note_on_c, 0, 62, 69
1, 6912, Note_on_c, 1, 46, 69
1, 6936, Note_on_c, 0, 65, 0
1, 6936, Note_on_c, 0, 62, 0
1, 6936, Note_on_c, 0, 60, 68
1, 6936, Note_on_c, 0, 57, 68
1, 6957, Note_on_c, 1, 46, 0
1, 6959, Note_on_c, 0, 60, 0
1, 6959, Note_on_c, 0, 57, 0
1, 6960, Note_on_c, 0, 62, 66
1, 6960, Note_on_c, 0, 58, 66
1, 6960, Note_on_c, 1, 46, 66
1, 6984, Note_on_c, 0, 62, 0
1, 6984, Note_on_c, 0, 58, 0
1, 6984, Note_on_c, 0, 63, 65
1, 6984, Note_on_c, 0, 60, 65
1, 7005, Note_on_c, 1, 46, 0
1, 7007, Note_on_c, 0, 63, 0
1, 7007, Note_on_c, 0, 60, 0
1, 7008, Tempo, 1500000
1, 7008, Note_on_c, 0, 63, 64
1, 7008, Note_on_c, 0, 60, 64
1, 7008, Note_on_c, 0, 57, 64
1, 7008, Note_on_c, 1, 46, 64
1, 7104, Note_on_c, 0, 63, 0
1, 7104, Note_on_c, 0, 60, 0
1, 7104, Note_on_c, 0, 57, 0
1, 7104, Note_on_c, 0, 62, 64
1, 7104, Note_on_c, 0, 58, 64
1, 7185, Note_on_c, 1, 46, 0
1, 7193, Note_on_c, 0, 62, 0
1, 7193, Note_on_c, 0, 58, 0
1, 7200, Tempo, 1090909
1, 7296, Note_on_c, 0, 58, 64
1, 7296, Note_on_c, 0, 55, 64
1, 7296, Note_on_c, 1, 51, 64
1, 7385, Note_on_c, 0, 58, 0
1, 7385, Note_on_c, 0, 55, 0
1, 7385, Note_on_c, 1, 51, 0
1, 7392, Note_on_c, 0, 63, 64
1, 7392, Note_on_c, 0, 60, 64
1, 7481, Note_on_c, 0, 63, 0
1, 7481, Note_on_c, 0, 60, 0
1, 7488, Note_on_c, 0, 62, 64
1, 7488, Note_on_c, 0, 58, 64
1, 7577, Note_on_c, 0, 62, 0
1, 7577, Note_on_c, 0, 58, 0
1, 7584, Note_on_c, 0, 60, 64
1, 7584, Note_on_c, 0, 56, 64
1, 7623, Note_on_c, 0, 60, 0
1, 7623, Note_on_c, 0, 56, 0
1, 7680, Note_on_c, 0, 58, 64
1, 7680, Note_on_c, 0, 55, 64
1, 7719, Note_on_c, 0, 58, 0
1, 7719, Note_on_c, 0, 55, 0
1, 7872, Note_on_c, 0, 65, 75
1, 7872, Note_on_c, 0, 62, 75
1, 7872, Note_on_c, 1, 58, 75
1, 7961, Note_on_c, 0, 65, 0
1, 7961, Note_on_c, 0, 62, 0
1, 7968, Note_on_c, 0, 67, 76
1, 7968, Note_on_c, 0, 63, 76
1, 8013, Note_on_c, 0, 67, 0
1, 8013, Note_on_c, 0, 63, 0
1, 8016, Note_on_c, 0, 68, 77
1, 8016, Note_on_c, 0, 65, 77
1, 8049, Note_on_c, 1, 58, 0
1, 8061, Note_on_c, 0, 68, 0
1, 8061, Note_on_c, 0, 65, 0
1, 8064, Note_on_c, 0, 70, 78
1, 8064, Note_on_c, 0, 67, 64
1, 8064, Note_on_c, 1, 59, 78
1, 8082, Note_on_c, 0, 70, 0
1, 8082, Note_on_c, 0, 68, 78
1, 8082, Note_on_c, 0, 67, 0
1, 8082, Note_on_c, 0, 65, 64
1, 8153, Note_on_c, 0, 68, 0
1, 8153, Note_on_c, 0, 65, 0
1, 8153, Note_on_c, 1, 59, 0
1, 8160, Note_on_c, 0, 67, 80
1, 8160, Note_on_c, 0, 63, 80
1, 8160, Note_on_c, 1, 60, 80
1, 8347, Note_on_c, 0, 67, 0
1, 8347, Note_on_c, 0, 63, 0
1, 8347, Note_on_c, 1, 60, 0
1, 8448, Note_on_c, 0, 65, 75
1, 8493, Note_on_c, 0, 65, 0
1, 8496, Note_on_c, 0, 72, 91
1, 8544, Note_on_c, 1, 56, 70
1, 8567, Note_on_c, 0, 72, 0
1, 8568, Note_on_c, 0, 70, 75
1, 8583, Note_on_c, 1, 56, 0
1, 8591, Note_on_c, 0, 70, 0
1, 8592, Note_on_c, 0, 68, 75
1, 8640, Note_on_c, 1, 53, 70
1, 8659, Note_on_c, 0, 68, 0
1, 8664, Note_on_c, 0, 67, 75
1, 8679, Note_on_c, 1, 53, 0
1, 8687, Note_on_c, 0, 67, 0
1, 8688, Note_on_c, 0, 65, 75
1, 8711, Note_on_c, 0, 65, 0
1, 8712, Note_on_c, 0, 63, 75
1, 8735, Note_on_c, 0, 63, 0
1, 8736, Note_on_c, 0, 62, 75
1, 8736, Note_on_c, 1, 58, 70
1, 8781, Note_on_c, 0, 62, 0
1, 8784, Note_on_c, 0, 70, 75
1, 8790, Note_on_c, 0, 70, 0
1, 8790, Note_on_c, 0, 72, 75
1, 8796, Note_on_c, 0, 72, 0
1, 8796, Note_on_c, 0, 70, 75
1, 8825, Note_on_c, 1, 58, 0
1, 8832, Note_on_c, 1, 55, 70
1, 8855, Note_on_c, 0, 70, 0
1, 8856, Note_on_c, 0, 68, 75
1, 8871, Note_on_c, 1, 55, 0
1, 8879, Note_on_c, 0, 68, 0
1, 8880, Note_on_c, 0, 67, 75
1, 8928, Note_on_c, 1, 51, 70
1, 8947, Note_on_c, 0, 67, 0
1, 8952, Note_on_c, 0, 65, 75
1, 8967, Note_on_c, 1, 51, 0
1, 8975, Note_on_c, 0, 65, 0
1, 8976, Note_on_c, 0, 63, 75
1, 8999, Note_on_c, 0, 63, 0
1, 9000, Note_on_c, 0, 62, 75
1, 9023, Note_on_c, 0, 62, 0
1, 9024, Note_on_c, 0, 60, 75
1, 9024, Note_on_c, 1, 56, 70
1, 9030, Note_on_c, 0, 60, 0
1, 9030, Note_on_c, 0, 62, 75
1, 9036, Note_on_c, 0, 62, 0
1, 9036, Note_on_c, 0, 60, 75
1, 9069, Note_on_c, 0, 60, 0
1, 9069, Note_on_c, 1, 56, 0
1, 9072, Note_on_c, 0, 68, 76
1, 9072, Note_on_c, 1, 44, 70
1, 9095, Note_on_c, 0, 68, 0
1, 9096, Note_on_c, 0, 67, 76
1, 9117, Note_on_c, 1, 44, 0
1, 9119, Note_on_c, 0, 67, 0
1, 9120, Note_on_c, 0, 65, 77
1, 9120, Note_on_c, 1, 44, 70
1, 9143, Note_on_c, 0, 65, 0
1, 9144, Note_on_c, 0, 63, 77
1, 9165, Note_on_c, 1, 44, 0
1, 9167, Note_on_c, 0, 63, 0
1, 9168, Note_on_c, 0, 62, 78
1, 9168, Note_on_c, 1, 44, 70
1, 9191, Note_on_c, 0, 62, 0
1, 9192, Note_on_c, 0, 60, 78
1, 9213, Note_on_c, 1, 44, 0
1, 9215, Note_on_c, 0, 60, 0
1, 9216, Note_on_c, 0, 58, 79
1, 9216, Note_on_c, 1, 46, 70
1, 9239, Note_on_c, 0, 58, 0
1, 9240, Note_on_c, 0, 62, 80
1, 9261, Note_on_c, 1, 46, 0
1, 9263, Note_on_c, 0, 62, 0
1, 9264, Note_on_c, 0, 63, 79
1, 9264, Note_on_c, 1, 46, 70
1, 9287, Note_on_c, 0, 63, 0
1, 9288, Note_on_c, 0, 55, 79
1, 9309, Note_on_c, 1, 46, 0
1, 9311, Note_on_c, 0, 55, 0
1, 9312, Note_on_c, 0, 58, 79
1, 9312, Note_on_c, 0, 55, 64
1, 9312, Note_on_c, 1, 46, 70
1, 9357, Note_on_c, 1, 46, 0
1, 9360, Note_on_c, 1, 46, 70
1, 9401, Note_on_c, 0, 58, 0
1, 9401, Note_on_c, 0, 55, 0
1, 9405, Note_on_c, 1, 46, 0
1, 9408, Note_on_c, 0, 56, 77
1, 9408, Note_on_c, 0, 53, 64
1, 9408, Note_on_c, 1, 46, 70
1, 9414, Note_on_c, 0, 56, 0
1, 9414, Note_on_c, 0, 58, 77
1, 9420, Note_on_c, 0, 58, 0
1, 9420, Note_on_c, 0, 56, 77
1, 9431, Note_on_c, 0, 56, 0
1, 9432, Note_on_c, 0, 55, 77
1, 9453, Note_on_c, 1, 46, 0
1, 9455, Note_on_c, 0, 55, 0
1, 9456, Note_on_c, 0, 56, 77
1, 9456, Note_on_c, 1, 46, 70
1, 9497, Note_on_c, 0, 53, 0
1, 9501, Note_on_c, 0, 56, 0
1, 9501, Note_on_c, 1, 46, 0
1, 9504, Note_on_c, 0, 55, 76
1, 9504, Note_on_c, 0, 51, 64
1, 9504, Note_on_c, 1, 39, 70
1, 9549, Note_on_c, 1, 39, 0
1, 9552, Note_on_c, 1, 39, 70
1, 9593, Note_on_c, 0, 55, 0
1, 9593, Note_on_c, 0, 51, 0
1, 9597, Note_on_c, 1, 39, 0
1, 9600, Note_on_c, 0, 60, 75
1, 9600, Note_on_c, 0, 56, 75
1, 9600, Note_on_c, 1, 39, 70
1, 9645, Note_on_c, 1, 39, 0
1, 9648, Note_on_c, 1, 39, 70
1, 9693, Note_on_c, 1, 39, 0
1, 9696, Note_on_c, 1, 39, 70
1, 9719, Note_on_c, 0, 60, 0
1, 9719, Note_on_c, 0, 56, 0
1, 9720, Note_on_c, 0, 56, 75
1, 9720, Note_on_c, 0, 53, 75
1, 9741, Note_on_c, 1, 39, 0
1, 9743, Note_on_c, 0, 56, 0
1, 9743, Note_on_c, 0, 53, 0
1, 9744, Note_on_c, 0, 56, 75
1, 9744, Note_on_c, 0, 53, 75
1, 9744, Note_on_c, 1, 39, 70
1, 9767, Note_on_c, 0, 56, 0
1, 9767, Note_on_c, 0, 53, 0
1, 9768, Note_on_c, 0, 60, 75
1, 9768, Note_on_c, 0, 56, 75
1, 9789, Note_on_c, 1, 39, 0
1, 9791, Note_on_c, 0, 60, 0
1, 9791, Note_on_c, 0, 56, 0
1, 9792, Note_on_c, 0, 60, 75
1, 9792, Note_on_c, 0, 56, 75
1, 9792, Note_on_c, 1, 39, 70
1, 9815, Note_on_c, 0, 60, 0
1, 9815, Note_on_c, 0, 56, 0
1, 9816, Note_on_c, 0, 56, 75
1, 9816, Note_on_c, 0, 53, 75
1, 9837, Note_on_c, 1, 39, 0
1, 9839, Note_on_c, 0, 56, 0
1, 9839, Note_on_c, 0, 53, 0
1, 9840, Note_on_c, 0, 56, 75
1, 9840, Note_on_c, 0, 53, 75
1, 9840, Note_on_c, 1, 39, 70
1, 9863, Note_on_c, 0, 56, 0
1, 9863, Note_on_c, 0, 53, 0
1, 9864, Note_on_c, 0, 60, 75
1, 9864, Note_on_c, 0, 56, 75
1, 9885, Note_on_c, 1, 39, 0
1, 9887, Note_on_c, 0, 60, 0
1, 9887, Note_on_c, 0, 56, 0
1, 9888, Note_on_c, 0, 58, 75
1, 9888, Note_on_c, 0, 55, 75
1, 9888, Note_on_c, 1, 39, 70
1, 9933, Note_on_c, 1, 39, 0
1, 9936, Note_on_c, 1, 39, 70
1, 9981, Note_on_c, 1, 39, 0
1, 9984, Note_on_c, 1, 39, 70
1, 10007, Note_on_c, 0, 58, 0
1, 10007, Note_on_c, 0, 55, 0
1, 10008, Note_on_c, 0, 55, 75
1, 10008, Note_on_c, 0, 51, 75
1, 10029, Note_on_c, 1, 39, 0
1, 10031, Note_on_c, 0, 55, 0
1, 10031, Note_on_c, 0, 51, 0
1, 10032, Note_on_c, 0, 55, 75
1, 10032, Note_on_c, 0, 51, 75
1, 10032, Note_on_c, 1, 39, 70
1, 10055, Note_on_c, 0, 55, 0
1, 10055, Note_on_c, 0, 51, 0
1, 10056, Note_on_c, 0, 58, 75
1, 10056, Note_on_c, 0, 55, 75
1, 10077, Note_on_c, 1, 39, 0
1, 10079, Note_on_c, 0, 58, 0
1, 10079, Note_on_c, 0, 55, 0
1, 10080, Note_on_c, 0, 58, 75
1, 10080, Note_on_c, 0, 55, 75
1, 10080, Note_on_c, 1, 39, 70
1, 10103, Note_on_c, 0, 58, 0
1, 10103, Note_on_c, 0, 55, 0
1, 10104, Note_on_c, 0, 55, 75
1, 10104, Note_on_c, 0, 51, 75
1, 10125, Note_on_c, 1, 39, 0
1, 10127, Note_on_c, 0, 55, 0
1, 10127, Note_on_c, 0, 51, 0
1, 10128, Note_on_c, 0, 55, 75
1, 10128, Note_on_c, 0, 51, 75
1, 10128, Note_on_c, 1, 39, 70
1, 10151, Note_on_c, 0, 55, 0
1, 10151, Note_on_c, 0, 51, 0
1, 10152, Note_on_c, 0, 58, 75
1, 10152, Note_on_c, 0, 55, 75
1, 10173, Note_on_c, 1, 39, 0
1, 10175, Note_on_c, 0, 58, 0
1, 10175, Note_on_c, 0, 55, 0
1, 10176, Note_on_c, 0, 56, 75
1, 10176, Note_on_c, 0, 53, 75
1, 10176, Note_on_c, 1, 39, 70
1, 10221, Note_on_c, 1, 39, 0
1, 10224, Note_on_c, 1, 39, 70
1, 10269, Note_on_c, 1, 39, 0
1, 10272, Note_on_c, 1, 39, 70
1, 10295, Note_on_c, 0, 56, 0
1, 10295, Note_on_c, 0, 53, 0
1, 10296, Note_on_c, 0, 53, 75
1, 10296, Note_on_c, 0, 50, 75
1, 10317, Note_on_c, 1, 39, 0
1, 10319, Note_on_c, 0, 53, 0
1, 10319, Note_on_c, 0, 50, 0
1, 10320, Note_on_c, 0, 53, 75
1, 10320, Note_on_c, 0, 50, 75
1, 10320, Note_on_c, 1, 39, 70
1, 10343, Note_on_c, 0, 53, 0
1, 10343, Note_on_c, 0, 50, 0
1, 10344, Note_on_c, 0, 56, 75
1, 10344, Note_on_c, 0, 53, 75
1, 10365, Note_on_c, 1, 39, 0
1, 10367, Note_on_c, 0, 56, 0
1, 10367, Note_on_c, 0, 53, 0
1, 10368, Note_on_c, 0, 56, 75
1, 10368, Note_on_c, 0, 53, 75
1, 10368, Note_on_c, 1, 39, 70
1, 10391, Note_on_c, 0, 56, 0
1, 10391, Note_on_c, 0, 53, 0
1, 10392, Note_on_c, 0, 55, 75
1, 10392, Note_on_c, 0, 51, 75
1, 10413, Note_on_c, 1, 39, 0
1, 10415, Note_on_c, 0, 55, 0
1, 10415, Note_on_c, 0, 51, 0
1, 10416, Note_on_c, 0, 55, 75
1, 10416, Note_on_c, 0, 51, 75
1, 10416, Note_on_c, 1, 39, 70
1, 10439, Note_on_c, 0, 55, 0
1, 10439, Note_on_c, 0, 51, 0
1, 10440, Note_on_c, 0, 53, 75
1, 10440, Note_on_c, 0, 50, 75
1, 10461, Note_on_c, 1, 39, 0
1, 10463, Note_on_c, 0, 53, 0
1, 10463, Note_on_c, 0, 50, 0
1, 10464, Note_on_c, 0, 55, 75
1, 10464, Note_on_c, 0, 51, 75
1, 10464, Note_on_c, 1, 39, 75
1, 10509, Note_on_c, 0, 55, 0
1, 10509, Note_on_c, 0, 51, 0
1, 10512, Note_on_c, 0, 68, 91
1, 10512, Note_on_c, 0, 65, 91
1, 10553, Note_on_c, 1, 39, 0
1, 10560, Note_on_c, 1, 46, 76
1, 10608, Note_on_c, 0, 68, 0
1, 10608, Note_on_c, 0, 65, 0
1, 10608, Note_on_c, 0, 67, 77
1, 10608, Note_on_c, 0, 63, 77
1, 10649, Note_on_c, 1, 46, 0
1, 10656, Note_on_c, 1, 47, 78
1, 10697, Note_on_c, 0, 67, 0
1, 10697, Note_on_c, 0, 63, 0
1, 10704, Note_on_c, 0, 65, 79
1, 10704, Note_on_c, 0, 62, 79
1, 10745, Note_on_c, 1, 47, 0
1, 10749, Note_on_c, 0, 65, 0
1, 10749, Note_on_c, 0, 62, 0
1, 10752, Note_on_c, 0, 63, 80
1, 10752, Note_on_c, 0, 60, 64
1, 10752, Note_on_c, 1, 48, 80
1, 10819, Note_on_c, 0, 63, 0
1, 10824, Note_on_c, 0, 69, 80
1, 10841, Note_on_c, 0, 60, 0
1, 10841, Note_on_c, 1, 48, 0
1, 10847, Note_on_c, 0, 69, 0
1, 10848, Note_on_c, 0, 69, 80
1, 10854, Note_on_c, 0, 69, 0
1, 10854, Note_on_c, 0, 70, 80
1, 10860, Note_on_c, 0, 70, 0
1, 10860, Note_on_c, 0, 69, 80
1, 10866, Note_on_c, 0, 69, 0
1, 10866, Note_on_c, 0, 67, 80
1, 10872, Note_on_c, 0, 67, 0
1, 10872, Note_on_c, 0, 69, 80
1, 11025, Note_on_c, 0, 69, 0
1, 11040, Note_on_c, 0, 84, 75
1, 11063, Note_on_c, 0, 84, 0
1, 11064, Note_on_c, 0, 81, 75
1, 11087, Note_on_c, 0, 81, 0
1, 11088, Note_on_c, 0, 77, 75
1, 11111, Note_on_c, 0, 77, 0
1, 11112, Note_on_c, 0, 75, 75
1, 11135, Note_on_c, 0, 75, 0
1, 11136, Note_on_c, 0, 74, 75
1, 11159, Note_on_c, 0, 74, 0
1, 11160, Note_on_c, 0, 82, 75
1, 11170, Note_on_c, 0, 82, 0
1, 11184, Note_on_c, 0, 78, 75
1, 11208, Note_on_c, 0, 78, 0
1, 11208, Note_on_c, 0, 79, 75
1, 11231, Note_on_c, 0, 79, 0
1, 11232, Note_on_c, 0, 72, 75
1, 11255, Note_on_c, 0, 72, 0
1, 11256, Note_on_c, 0, 74, 75
1, 11279, Note_on_c, 0, 74, 0
1, 11280, Note_on_c, 0, 75, 75
1, 11303, Note_on_c, 0, 75, 0
1, 11304, Note_on_c, 0, 74, 75
1, 11327, Note_on_c, 0, 74, 0
1, 11328, Note_on_c, 0, 75, 75
1, 11328, Note_on_c, 1, 60, 75
1, 11351, Note_on_c, 1, 60, 0
1, 11352, Note_on_c, 1, 57, 75
1, 11373, Note_on_c, 0, 75, 0
1, 11375, Note_on_c, 1, 57, 0
1, 11376, Note_on_c, 0, 84, 91
1, 11376, Note_on_c, 1, 53, 75
1, 11399, Note_on_c, 1, 53, 0
1, 11400, Note_on_c, 1, 51, 75
1, 11423, Note_on_c, 1, 51, 0
1, 11424, Note_on_c, 1, 50, 75
1, 11447, Note_on_c, 1, 50, 0
1, 11448, Note_on_c, 1, 58, 75
1, 11458, Note_on_c, 1, 58, 0
1, 11472, Note_on_c, 0, 84, 0
1, 11472, Note_on_c, 0, 81, 75
1, 11472, Note_on_c, 1, 54, 75
1, 11496, Note_on_c, 0, 81, 0
1, 11496, Note_on_c, 0, 82, 75
1, 11496, Note_on_c, 1, 54, 0
1, 11496, Note_on_c, 1, 55, 75
1, 11519, Note_on_c, 0, 82, 0
1, 11519, Note_on_c, 1, 55, 0
1, 11520, Note_on_c, 0, 75, 75
1, 11520, Note_on_c, 0, 74, 75
1, 11520, Note_on_c, 1, 48, 75
1, 11543, Note_on_c, 1, 48, 0
1, 11544, Note_on_c, 1, 50, 75
1, 11565, Note_on_c, 0, 75, 0
1, 11565, Note_on_c, 0, 74, 0
1, 11567, Note_on_c, 1, 50, 0
1, 11568, Note_on_c, 0, 75, 75
1, 11568, Note_on_c, 0, 72, 75
1, 11568, Note_on_c, 0, 67, 75
1, 11568, Note_on_c, 1, 51, 75
1, 11591, Note_on_c, 1, 51, 0
1, 11592, Note_on_c, 1, 50, 75
1, 11615, Note_on_c, 1, 50, 0
1, 11616, Note_on_c, 1, 48, 75
1, 11639, Note_on_c, 1, 48, 0
1, 11640, Note_on_c, 1, 50, 75
1, 11661, Note_on_c, 0, 75, 0
1, 11661, Note_on_c, 0, 72, 0
1, 11661, Note_on_c, 0, 67, 0
1, 11663, Note_on_c, 1, 50, 0
1, 11664, Note_on_c, 0, 75, 75
1, 11664, Note_on_c, 0, 72, 75
1, 11664, Note_on_c, 0, 67, 75
1, 11664, Note_on_c, 1, 51, 75
1, 11687, Note_on_c, 1, 51, 0
1, 11688, Note_on_c, 1, 50, 76
1, 11711, Note_on_c, 1, 50, 0
1, 11712, Note_on_c, 1, 48, 76
1, 11735, Note_on_c, 1, 48, 0
1, 11736, Note_on_c, 1, 50, 77
1, 11753, Note_on_c, 0, 75, 0
1, 11753, Note_on_c, 0, 72, 0
1, 11753, Note_on_c, 0, 67, 0
1, 11759, Note_on_c, 1, 50, 0
1, 11760, Note_on_c, 0, 75, 77
1, 11760, Note_on_c, 0, 72, 77
1, 11760, Note_on_c, 0, 67, 77
1, 11760, Note_on_c, 1, 51, 77
1, 11783, Note_on_c, 1, 51, 0
1, 11784, Note_on_c, 1, 48, 77
1, 11807, Note_on_c, 1, 48, 0
1, 11808, Note_on_c, 1, 46, 78
1, 11831, Note_on_c, 1, 46, 0
1, 11832, Note_on_c, 1, 50, 78
1, 11849, Note_on_c, 0, 75, 0
1, 11849, Note_on_c, 0, 72, 0
1, 11849, Note_on_c, 0, 67, 0
1, 11855, Note_on_c, 1, 50, 0
1, 11856, Note_on_c, 0, 75, 79
1, 11856, Note_on_c, 0, 72, 79
1, 11856, Note_on_c, 0, 67, 79
1, 11856, Note_on_c, 1, 51, 79
1, 11879, Note_on_c, 1, 51, 0
1, 11880, Note_on_c, 1, 46, 79
1, 11901, Note_on_c, 0, 75, 0
1, 11901, Note_on_c, 0, 72, 0
1, 11901, Note_on_c, 0, 67, 0
1, 11903, Note_on_c, 1, 46, 0
1, 11904, Note_on_c, 0, 65, 80
1, 11904, Note_on_c, 1, 45, 80
1, 11910, Note_on_c, 0, 69, 80
1, 11910, Note_on_c, 1, 48, 80
1, 11916, Note_on_c, 0, 72, 80
1, 11916, Note_on_c, 1, 53, 80
1, 11922, Note_on_c, 0, 75, 80
1, 11922, Note_on_c, 1, 57, 80
1, 11952, Tempo, 3000000
1, 11975, Note_on_c, 0, 75, 0
1, 11975, Note_on_c, 0, 72, 0
1, 11975, Note_on_c, 0, 69, 0
1, 11975, Note_on_c, 0, 65, 0
1, 11975, Note_on_c, 1, 57, 0
1, 11975, Note_on_c, 1, 53, 0
1, 11975, Note_on_c, 1, 48, 0
1, 11975, Note_on_c, 1, 45, 0
1, 11976, Tempo, 1090909
1, 11976, Note_on_c, 0, 72, 75
1, 11999, Note_on_c, 0, 72, 0
1, 12000, Note_on_c, 0, 74, 76
1, 12000, Note_on_c, 1, 46, 80
1, 12015, Note_on_c, 0, 74, 0
1, 12016, Note_on_c, 0, 72, 77
1, 12031, Note_on_c, 0, 72, 0
1, 12032, Note_on_c, 0, 74, 78
1, 12045, Note_on_c, 1, 46, 0
1, 12047, Note_on_c, 0, 74, 0
1, 12048, Note_on_c, 0, 75, 79
1, 12048, Note_on_c, 1, 51, 81
1, 12063, Note_on_c, 0, 75, 0
1, 12064, Note_on_c, 0, 74, 80
1, 12079, Note_on_c, 0, 74, 0
1, 12080, Note_on_c, 0, 72, 79
1, 12093, Note_on_c, 1, 51, 0
1, 12095, Note_on_c, 0, 72, 0
1, 12096, Note_on_c, 0, 70, 79
1, 12096, Note_on_c, 1, 53, 83
1, 12141, Note_on_c, 0, 70, 0
1, 12141, Note_on_c, 1, 53, 0
1, 12144, Note_on_c, 0, 69, 77
1, 12144, Note_on_c, 1, 54, 84
1, 12150, Note_on_c, 0, 69, 0
1, 12150, Note_on_c, 0, 70, 77
1, 12156, Note_on_c, 0, 70, 0
1, 12156, Note_on_c, 0, 69, 77
1, 12189, Note_on_c, 0, 69, 0
1, 12189, Note_on_c, 1, 54, 0
1, 12192, Note_on_c, 0, 70, 75
1, 12192, Note_on_c, 1, 55, 86
1, 12216, Note_on_c, 0, 70, 0
1, 12216, Note_on_c, 0, 64, 75
1, 12237, Note_on_c, 1, 55, 0
1, 12239, Note_on_c, 0, 64, 0
1, 12240, Note_on_c, 0, 64, 76
1, 12240, Note_on_c, 0, 60, 76
1, 12240, Note_on_c, 0, 58, 76
1, 12240, Note_on_c, 0, 55, 76
1, 12240, Note_on_c, 1, 52, 86
1, 12240, Note_on_c, 1, 48, 86
1, 12329, Note_on_c, 0, 64, 0
1, 12329, Note_on_c, 0, 60, 0
1, 12329, Note_on_c, 0, 58, 0
1, 12329, Note_on_c, 0, 55, 0
1, 12329, Note_on_c, 1, 52, 0
1, 12329, Note_on_c, 1, 48, 0
1, 12408, Note_on_c, 0, 67, 64
1, 12408, Note_on_c, 0, 63, 64
1, 12408, Note_on_c, 1, 51, 64
1, 12408, Note_on_c, 1, 48, 64
1, 12431, Note_on_c, 0, 67, 0
1, 12431, Note_on_c, 0, 63, 0
1, 12431, Note_on_c, 1, 51, 0
1, 12431, Note_on_c, 1, 48, 0
1, 12432, Note_on_c, 0, 65, 64
1, 12432, Note_on_c, 0, 62, 64
1, 12432, Note_on_c, 1, 53, 64
1, 12432, Note_on_c, 1, 50, 64
1, 12455, Note_on_c, 0, 65, 0
1, 12455, Note_on_c, 0, 62, 0
1, 12455, Note_on_c, 1, 53, 0
1, 12455, Note_on_c, 1, 50, 0
1, 12456, Note_on_c, 0, 63, 64
1, 12456, Note_on_c, 0, 60, 64
1, 12456, Note_on_c, 1, 55, 64
1, 12456, Note_on_c, 1, 51, 64
1, 12479, Note_on_c, 0, 63, 0
1, 12479, Note_on_c, 0, 60, 0
1, 12479, Note_on_c, 1, 55, 0
1, 12479, Note_on_c, 1, 51, 0
1, 12480, Note_on_c, 0, 62, 64
1, 12480, Note_on_c, 0, 58, 64
1, 12480, Note_on_c, 1, 50, 64
1, 12480, Note_on_c, 1, 46, 64
1, 12503, Note_on_c, 0, 62, 0
1, 12503, Note_on_c, 0, 58, 0
1, 12504, Note_on_c, 0, 89, 64
1, 12504, Note_on_c, 0, 86, 64
1, 12525, Note_on_c, 1, 50, 0
1, 12525, Note_on_c, 1, 46, 0
1, 12527, Note_on_c, 0, 89, 0
1, 12527, Note_on_c, 0, 86, 0
1, 12528, Note_on_c, 0, 87, 64
1, 12528, Note_on_c, 0, 84, 64
1, 12551, Note_on_c, 0, 87, 0
1, 12551, Note_on_c, 0, 84, 0
1, 12552, Note_on_c, 0, 86, 64
1, 12552, Note_on_c, 0, 82, 64
1, 12575, Note_on_c, 0, 86, 0
1, 12575, Note_on_c, 0, 82, 0
1, 12576, Note_on_c, 0, 84, 64
1, 12576, Note_on_c, 0, 81, 64
1, 12599, Note_on_c, 0, 84, 0
1, 12599, Note_on_c, 0, 81, 0
1, 12600, Note_on_c, 0, 82, 65
1, 12600, Note_on_c, 0, 79, 65
1, 12623, Note_on_c, 0, 82, 0
1, 12623, Note_on_c, 0, 79, 0
1, 12624, Note_on_c, 0, 81, 65
1, 12624, Note_on_c, 0, 77, 65
1, 12647, Note_on_c, 0, 81, 0
1, 12647, Note_on_c, 0, 77, 0
1, 12648, Note_on_c, 0, 79, 65
1, 12648, Note_on_c, 0, 75, 65
1, 12671, Note_on_c, 0, 79, 0
1, 12671, Note_on_c, 0, 75, 0
1, 12672, Note_on_c, 0, 77, 66
1, 12672, Note_on_c, 0, 74, 66
1, 12695, Note_on_c, 0, 77, 0
1, 12695, Note_on_c, 0, 74, 0
1, 12696, Note_on_c, 0, 75, 66
1, 12696, Note_on_c, 0, 72, 66
1, 12719, Note_on_c, 0, 75, 0
1, 12719, Note_on_c, 0, 72, 0
1, 12720, Note_on_c, 0, 74, 66
1, 12720, Note_on_c, 0, 70, 66
1, 12743, Note_on_c, 0, 74, 0
1, 12743, Note_on_c, 0, 70, 0
1, 12744, Note_on_c, 0, 72, 67
1, 12744, Note_on_c, 0, 69, 67
1, 12767, Note_on_c, 0, 72, 0
1, 12767, Note_on_c, 0, 69, 0
1, 12768, Note_on_c, 0, 70, 67
1, 12768, Note_on_c, 0, 67, 67
1, 12791, Note_on_c, 0, 70, 0
1, 12791, Note_on_c, 0, 67, 0
1, 12792, Note_on_c, 0, 69, 67
1, 12792, Note_on_c, 0, 65, 67
1, 12815, Note_on_c, 0, 69, 0
1, 12815, Note_on_c, 0, 65, 0
1, 12816, Note_on_c, 0, 67, 68
1, 12816, Note_on_c, 0, 63, 68
1, 12839, Note_on_c, 0, 67, 0
1, 12839, Note_on_c, 0, 63, 0
1, 12840, Note_on_c, 0, 65, 68
1, 12840, Note_on_c, 0, 62, 68
1, 12863, Note_on_c, 0, 65, 0
1, 12863, Note_on_c, 0, 62, 0
1, 12864, Note_on_c, 0, 63, 68
1, 12864, Note_on_c, 0, 60, 68
1, 12864, Note_on_c, 1, 51, 80
1, 12887, Note_on_c, 1, 51, 0
1, 12888, Note_on_c, 1, 50, 80
1, 12909, Note_on_c, 0, 63, 0
1, 12909, Note_on_c, 0, 60, 0
1, 12911, Note_on_c, 1, 50, 0
1, 12912, Note_on_c, 1, 60, 80
1, 12912, Note_on_c, 1, 48, 80
1, 12935, Note_on_c, 1, 60, 0
1, 12935, Note_on_c, 1, 48, 0
1, 12936, Note_on_c, 1, 58, 80
1, 12936, Note_on_c, 1, 46, 80
1, 12959, Note_on_c, 1, 58, 0
1, 12959, Note_on_c, 1, 46, 0
1, 12960, Note_on_c, 1, 57, 80
1, 12960, Note_on_c, 1, 45, 80
1, 12983, Note_on_c, 1, 57, 0
1, 12983, Note_on_c, 1, 45, 0
1, 12984, Note_on_c, 0, 82, 80
1, 12984, Note_on_c, 0, 70, 80
1, 12984, Note_on_c, 1, 55, 80
1, 12984, Note_on_c, 1, 43, 80
1, 13007, Note_on_c, 0, 82, 0
1, 13007, Note_on_c, 0, 70, 0
1, 13007, Note_on_c, 1, 55, 0
1, 13007, Note_on_c, 1, 43, 0
1, 13008, Note_on_c, 0, 81, 80
1, 13008, Note_on_c, 0, 69, 80
1, 13008, Note_on_c, 1, 53, 80
1, 13008, Note_on_c, 1, 41, 80
1, 13031, Note_on_c, 0, 81, 0
1, 13031, Note_on_c, 0, 69, 0
1, 13031, Note_on_c, 1, 53, 0
1, 13031, Note_on_c, 1, 41, 0
1, 13032, Note_on_c, 0, 79, 80
1, 13032, Note_on_c, 0, 67, 80
1, 13032, Note_on_c, 1, 51, 80
1, 13032, Note_on_c, 1, 39, 80
1, 13055, Note_on_c, 0, 79, 0
1, 13055, Note_on_c, 0, 67, 0
1, 13055, Note_on_c, 1, 51, 0
1, 13055, Note_on_c, 1, 39, 0
1, 13056, Note_on_c, 0, 77, 80
1, 13056, Note_on_c, 0, 65, 80
1, 13056, Note_on_c, 1, 50, 80
1, 13056, Note_on_c, 1, 38, 80
1, 13079, Note_on_c, 0, 77, 0
1, 13079, Note_on_c, 0, 65, 0
1, 13080, Note_on_c, 0, 78, 75
1, 13101, Note_on_c, 1, 50, 0
1, 13101, Note_on_c, 1, 38, 0
1, 13104, Note_on_c, 0, 78, 0
1, 13104, Note_on_c, 0, 79, 75
1, 13104, Note_on_c, 1, 59, 75
1, 13104, Note_on_c, 1, 47, 75
1, 13127, Note_on_c, 0, 79, 0
1, 13128, Note_on_c, 0, 74, 75
1, 13149, Note_on_c, 1, 59, 0
1, 13149, Note_on_c, 1, 47, 0
1, 13152, Note_on_c, 0, 74, 0
1, 13152, Note_on_c, 0, 75, 75
1, 13152, Note_on_c, 1, 60, 75
1, 13152, Note_on_c, 1, 48, 75
1, 13175, Note_on_c, 0, 75, 0
1, 13176, Note_on_c, 0, 76, 75
1, 13197, Note_on_c, 1, 60, 0
1, 13197, Note_on_c, 1, 48, 0
1, 13200, Note_on_c, 0, 76, 0
1, 13200, Note_on_c, 0, 77, 75
1, 13200, Note_on_c, 1, 57, 75
1, 13200, Note_on_c, 1, 45, 75
1, 13223, Note_on_c, 0, 77, 0
1, 13224, Note_on_c, 0, 72, 75
1, 13245, Note_on_c, 1, 57, 0
1, 13245, Note_on_c, 1, 45, 0
1, 13248, Note_on_c, 0, 72, 0
1, 13248, Note_on_c, 0, 73, 75
1, 13248, Note_on_c, 1, 58, 75
1, 13248, Note_on_c, 1, 46, 75
1, 13271, Note_on_c, 0, 73, 0
1, 13272, Note_on_c, 0, 74, 75
1, 13293, Note_on_c, 1, 58, 0
1, 13293, Note_on_c, 1, 46, 0
1, 13295, Note_on_c, 0, 74, 0
1, 13296, Note_on_c, 0, 67, 75
1, 13296, Note_on_c, 1, 51, 75
1, 13296, Note_on_c, 1, 39, 75
1, 13319, Note_on_c, 0, 67, 0
1, 13320, Note_on_c, 0, 75, 75
1, 13341, Note_on_c, 1, 51, 0
1, 13341, Note_on_c, 1, 39, 0
1, 13343, Note_on_c, 0, 75, 0
1, 13344, Tempo, 1132075
1, 13344, Note_on_c, 0, 70, 75
1, 13344, Note_on_c, 0, 62, 75
1, 13344, Note_on_c, 1, 53, 75
1, 13344, Note_on_c, 1, 41, 75
1, 13367, Note_on_c, 0, 70, 0
1, 13367, Note_on_c, 0, 62, 0
1, 13367, Note_on_c, 1, 53, 0
1, 13367, Note_on_c, 1, 41, 0
1, 13368, Tempo, 1250000
1, 13368, Note_on_c, 0, 70, 75
1, 13368, Note_on_c, 0, 62, 75
1, 13368, Note_on_c, 1, 54, 75
1, 13368, Note_on_c, 1, 42, 75
1, 13391, Note_on_c, 1, 54, 0
1, 13391, Note_on_c, 1, 42, 0
1, 13392, Note_on_c, 1, 55, 75
1, 13392, Note_on_c, 1, 43, 75
1, 13413, Note_on_c, 0, 70, 0
1, 13413, Note_on_c, 0, 62, 0
1, 13415, Note_on_c, 1, 55, 0
1, 13415, Note_on_c, 1, 43, 0
1, 13416, Tempo, 1395348
1, 13416, Note_on_c, 0, 70, 76
1, 13416, Note_on_c, 0, 62, 76
1, 13416, Note_on_c, 1, 50, 76
1, 13416, Note_on_c, 1, 38, 76
1, 13439, Note_on_c, 1, 50, 0
1, 13439, Note_on_c, 1, 38, 0
1, 13440, Note_on_c, 1, 51, 76
1, 13440, Note_on_c, 1, 39, 76
1, 13461, Note_on_c, 0, 70, 0
1, 13461, Note_on_c, 0, 62, 0
1, 13463, Note_on_c, 1, 51, 0
1, 13463, Note_on_c, 1, 39, 0
1, 13464, Tempo, 2000000
1, 13464, Note_on_c, 0, 70, 77
1, 13464, Note_on_c, 0, 62, 77
1, 13464, Note_on_c, 1, 52, 77
1, 13464, Note_on_c, 1, 40, 77
1, 13487, Note_on_c, 0, 70, 0
1, 13487, Note_on_c, 0, 62, 0
1, 13487, Note_on_c, 1, 52, 0
1, 13487, Note_on_c, 1, 40, 0
1, 13488, Tempo, 1395348
1, 13488, Note_on_c, 0, 70, 77
1, 13488, Note_on_c, 0, 62, 77
1, 13488, Note_on_c, 1, 53, 77
1, 13488, Note_on_c, 1, 41, 77
1, 13621, Note_on_c, 0, 70, 0
1, 13621, Note_on_c, 0, 62, 0
1, 13621, Note_on_c, 1, 53, 0
1, 13621, Note_on_c, 1, 41, 0
1, 13632, Tempo, 1090909
1, 13632, Note_on_c, 0, 65, 80
1, 13655, Note_on_c, 0, 65, 0
1, 13656, Note_on_c, 0, 67, 80
1, 13668, Note_on_c, 0, 67, 0
1, 13668, Note_on_c, 0, 69, 80
1, 13680, Note_on_c, 0, 69, 0
1, 13680, Note_on_c, 0, 70, 80
1, 13692, Note_on_c, 0, 70, 0
1, 13692, Note_on_c, 0, 72, 80
1, 13704, Note_on_c, 0, 72, 0
1, 13704, Note_on_c, 0, 74, 80
1, 13716, Note_on_c, 0, 74, 0
1, 13716, Note_on_c, 0, 75, 80
1, 13728, Note_on_c, 0, 75, 0
1, 13728, Note_on_c, 0, 77, 80
1, 13740, Note_on_c, 0, 77, 0
1, 13740, Note_on_c, 0, 79, 80
1, 13752, Note_on_c, 0, 79, 0
1, 13752, Note_on_c, 0, 81, 80
1, 13764, Note_on_c, 0, 81, 0
1, 13764, Note_on_c, 0, 82, 80
1, 13776, Note_on_c, 0, 82, 0
1, 13776, Note_on_c, 0, 81, 80
1, 13788, Note_on_c, 0, 81, 0
1, 13788, Note_on_c, 0, 82, 80
1, 13800, Note_on_c, 0, 82, 0
1, 13800, Note_on_c, 0, 81, 80
1, 13812, Note_on_c, 0, 81, 0
1, 13812, Note_on_c, 0, 82, 80
1, 13824, Note_on_c, 0, 82, 0
1, 13824, Note_on_c, 0, 74, 80
1, 13840, Note_on_c, 0, 74, 0
1, 13840, Note_on_c, 0, 72, 80
1, 13848, Note_on_c, 0, 72, 0
1, 13848, Note_on_c, 0, 74, 80
1, 13856, Note_on_c, 0, 74, 0
1, 13856, Note_on_c, 0, 72, 80
1, 13864, Note_on_c, 0, 72, 0
1, 13864, Note_on_c, 0, 74, 80
1, 13872, Note_on_c, 0, 74, 0
1, 13872, Note_on_c, 0, 72, 80
1, 13880, Note_on_c, 0, 72, 0
1, 13880, Note_on_c, 0, 74, 80
1, 13888, Note_on_c, 0, 74, 0
1, 13888, Note_on_c, 0, 72, 80
1, 13896, Note_on_c, 0, 72, 0
1, 13896, Note_on_c, 0, 74, 80
1, 13904, Note_on_c, 0, 74, 0
1, 13904, Note_on_c, 0, 72, 80
1, 13912, Note_on_c, 0, 72, 0
1, 13912, Note_on_c, 0, 74, 80
1, 13920, Note_on_c, 0, 74, 0
1, 13920, Note_on_c, 0, 72, 80
1, 13920, Note_on_c, 1, 63, 80
1, 13920, Note_on_c, 1, 57, 80
1, 13920, Note_on_c, 1, 53, 80
1, 13928, Note_on_c, 0, 72, 0
1, 13928, Note_on_c, 0, 74, 80
1, 13936, Note_on_c, 0, 74, 0
1, 13936, Note_on_c, 0, 72, 80
1, 13944, Note_on_c, 0, 72, 0
1, 13944, Note_on_c, 0, 74, 80
1, 13952, Note_on_c, 0, 74, 0
1, 13952, Note_on_c, 0, 72, 80
1, 13960, Note_on_c, 0, 72, 0
1, 13960, Note_on_c, 0, 74, 80
1, 13967, Note_on_c, 0, 74, 0
1, 13967, Note_on_c, 0, 72, 80
1, 13974, Note_on_c, 0, 72, 0
1, 13974, Note_on_c, 0, 74, 80
1, 13981, Note_on_c, 0, 74, 0
1, 13981, Note_on_c, 0, 72, 80
1, 13988, Note_on_c, 0, 72, 0
1, 13988, Note_on_c, 0, 70, 80
1, 14002, Note_on_c, 0, 70, 0
1, 14002, Note_on_c, 0, 72, 80
1, 14009, Note_on_c, 1, 63, 0
1, 14009, Note_on_c, 1, 57, 0
1, 14009, Note_on_c, 1, 53, 0
1, 14016, Note_on_c, 0, 72, 0
1, 14016, Note_on_c, 0, 70, 80
1, 14016, Note_on_c, 1, 58, 80
1, 14039, Note_on_c, 0, 70, 0
1, 14040, Note_on_c, 0, 65, 78
1, 14040, Note_on_c, 0, 62, 78
1, 14061, Note_on_c, 1, 58, 0
1, 14063, Note_on_c, 0, 65, 0
1, 14063, Note_on_c, 0, 62, 0
1, 14064, Note_on_c, 0, 65, 77
1, 14064, Note_on_c, 0, 62, 77
1, 14064, Note_on_c, 1, 46, 77
1, 14088, Note_on_c, 0, 65, 0
1, 14088, Note_on_c, 0, 62, 0
1, 14088, Note_on_c, 0, 67, 76
1, 14088, Note_on_c, 0, 63, 76
1, 14109, Note_on_c, 1, 46, 0
1, 14111, Note_on_c, 0, 67, 0
1, 14111, Note_on_c, 0, 63, 0
1, 14112, Note_on_c, 0, 67, 74
1, 14112, Note_on_c, 0, 63, 74
1, 14112, Note_on_c, 1, 46, 74
1, 14136, Note_on_c, 0, 67, 0
1, 14136, Note_on_c, 0, 60, 73
1, 14157, Note_on_c, 1, 46, 0
1, 14159, Note_on_c, 0, 63, 0
1, 14159, Note_on_c, 0, 60, 0
1, 14160, Note_on_c, 0, 63, 72
1, 14160, Note_on_c, 0, 60, 72
1, 14160, Note_on_c, 1, 46, 72
1, 14184, Note_on_c, 0, 63, 0
1, 14184, Note_on_c, 0, 60, 0
1, 14184, Note_on_c, 0, 65, 70
1, 14184, Note_on_c, 0, 62, 70
1, 14205, Note_on_c, 1, 46, 0
1, 14207, Note_on_c, 0, 65, 0
1, 14207, Note_on_c, 0, 62, 0
1, 14208, Note_on_c, 0, 65, 69
1, 14208, Note_on_c, 0, 62, 69
1, 14208, Note_on_c, 1, 46, 69
1, 14232, Note_on_c, 0, 65, 0
1, 14232, Note_on_c, 0, 62, 0
1, 14232, Note_on_c, 0, 60, 68
1, 14232, Note_on_c, 0, 57, 68
1, 14253, Note_on_c, 1, 46, 0
1, 14255, Note_on_c, 0, 60, 0
1, 14255, Note_on_c, 0, 57, 0
1, 14256, Note_on_c, 0, 62, 66
1, 14256, Note_on_c, 0, 58, 66
1, 14256, Note_on_c, 1, 46, 66
1, 14280, Note_on_c, 0, 62, 0
1, 14280, Note_on_c, 0, 58, 0
1, 14280, Note_on_c, 0, 63, 65
1, 14280, Note_on_c, 0, 60, 65
1, 14301, Note_on_c, 1, 46, 0
1, 14303, Note_on_c, 0, 63, 0
1, 14303, Note_on_c, 0, 60, 0
1, 14304, Tempo, 1500000
1, 14304, Note_on_c, 0, 63, 64
1, 14304, Note_on_c, 0, 60, 64
1, 14304, Note_on_c, 0, 57, 64
1, 14304, Note_on_c, 1, 46, 64
1, 14400, Note_on_c, 0, 63, 0
1, 14400, Note_on_c, 0, 60, 0
1, 14400, Note_on_c, 0, 57, 0
1, 14400, Note_on_c, 0, 62, 64
1, 14400, Note_on_c, 0, 58, 64
1, 14481, Note_on_c, 1, 46, 0
1, 14489, Note_on_c, 0, 62, 0
1, 14489, Note_on_c, 0, 58, 0
1, 14496, Tempo, 1090909
1, 14592, Note_on_c, 1, 53, 75
1, 14592, Note_on_c, 1, 50, 75
1, 14681, Note_on_c, 1, 53, 0
1, 14681, Note_on_c, 1, 50, 0
1, 14688, Note_on_c, 1, 56, 75
1, 14688, Note_on_c, 1, 53, 75
1, 14777, Note_on_c, 1, 56, 0
1, 14777, Note_on_c, 1, 53, 0
1, 14784, Note_on_c, 1, 55, 75
1, 14784, Note_on_c, 1, 51, 75
1, 14873, Note_on_c, 1, 55, 0
1, 14873, Note_on_c, 1, 51, 0
1, 14880, Note_on_c, 0, 71, 75
1, 14880, Note_on_c, 1, 53, 75
1, 14880, Note_on_c, 1, 50, 75
1, 14947, Note_on_c, 0, 71, 0
1, 14952, Note_on_c, 0, 72, 75
1, 14964, Note_on_c, 0, 72, 0
1, 14964, Note_on_c, 0, 74, 75
1, 14969, Note_on_c, 1, 53, 0
1, 14969, Note_on_c, 1, 50, 0
1, 14976, Note_on_c, 0, 74, 0
1, 14976, Note_on_c, 0, 72, 75
1, 14976, Note_on_c, 1, 55, 75
1, 14976, Note_on_c, 1, 51, 75
1, 15065, Note_on_c, 0, 72, 0
1, 15065, Note_on_c, 1, 55, 0
1, 15065, Note_on_c, 1, 51, 0
1, 15168, Note_on_c, 1, 67, 75
1, 15168, Note_on_c, 1, 64, 75
1, 15257, Note_on_c, 1, 67, 0
1, 15257, Note_on_c, 1, 64, 0
1, 15264, Note_on_c, 1, 73, 75
1, 15264, Note_on_c, 1, 70, 75
1, 15353, Note_on_c, 1, 73, 0
1, 15353, Note_on_c, 1, 70, 0
1, 15360, Note_on_c, 1, 72, 75
1, 15360, Note_on_c, 1, 68, 75
1, 15408, Note_on_c, 0, 77, 75
1, 15449, Note_on_c, 1, 72, 0
1, 15449, Note_on_c, 1, 68, 0
1, 15453, Note_on_c, 0, 77, 0
1, 15456, Note_on_c, 1, 70, 75
1, 15456, Note_on_c, 1, 67, 75
1, 15480, Note_on_c, 0, 76, 75
1, 15503, Note_on_c, 0, 76, 0
1, 15504, Note_on_c, 0, 77, 75
1, 15527, Note_on_c, 0, 77, 0
1, 15528, Note_on_c, 0, 79, 75
1, 15545, Note_on_c, 1, 70, 0
1, 15545, Note_on_c, 1, 67, 0
1, 15551, Note_on_c, 0, 79, 0
1, 15552, Note_on_c, 0, 80, 75
1, 15552, Note_on_c, 1, 68, 75
1, 15552, Note_on_c, 1, 65, 75
1, 15575, Note_on_c, 0, 80, 0
1, 15576, Note_on_c, 0, 77, 75
1, 15599, Note_on_c, 0, 77, 0
1, 15600, Note_on_c, 0, 76, 75
1, 15623, Note_on_c, 0, 76, 0
1, 15624, Note_on_c, 0, 77, 75
1, 15641, Note_on_c, 1, 68, 0
1, 15641, Note_on_c, 1, 65, 0
1, 15647, Note_on_c, 0, 77, 0
1, 15648, Note_on_c, 0, 72, 75
1, 15671, Note_on_c, 0, 72, 0
1, 15672, Note_on_c, 0, 77, 75
1, 15695, Note_on_c, 0, 77, 0
1, 15696, Note_on_c, 0, 76, 75
1, 15696, Note_on_c, 1, 44, 75
1, 15719, Note_on_c, 0, 76, 0
1, 15720, Note_on_c, 0, 77, 75
1, 15741, Note_on_c, 1, 44, 0
1, 15743, Note_on_c, 0, 77, 0
1, 15744, Note_on_c, 0, 73, 75
1, 15767, Note_on_c, 0, 73, 0
1, 15768, Note_on_c, 0, 77, 75
1, 15791, Note_on_c, 0, 77, 0
1, 15792, Note_on_c, 0, 76, 75
1, 15792, Note_on_c, 1, 56, 91
1, 15815, Note_on_c, 0, 76, 0
1, 15816, Note_on_c, 0, 77, 75
1, 15839, Note_on_c, 0, 77, 0
1, 15840, Note_on_c, 0, 72, 75
1, 15863, Note_on_c, 0, 72, 0
1, 15864, Note_on_c, 0, 77, 75
1, 15864, Note_on_c, 1, 56, 0
1, 15864, Note_on_c, 1, 55, 75
1, 15887, Note_on_c, 0, 77, 0
1, 15887, Note_on_c, 1, 55, 0
1, 15888, Note_on_c, 0, 76, 75
1, 15888, Note_on_c, 1, 53, 75
1, 15911, Note_on_c, 0, 76, 0
1, 15912, Note_on_c, 0, 77, 75
1, 15935, Note_on_c, 0, 77, 0
1, 15936, Note_on_c, 0, 80, 75
1, 15955, Note_on_c, 1, 53, 0
1, 15959, Note_on_c, 0, 80, 0
1, 15960, Note_on_c, 0, 79, 75
1, 15960, Note_on_c, 1, 51, 75
1, 15983, Note_on_c, 0, 79, 0
1, 15983, Note_on_c, 1, 51, 0
1, 15984, Note_on_c, 0, 77, 75
1, 15984, Note_on_c, 1, 50, 75
1, 16007, Note_on_c, 0, 77, 0
1, 16007, Note_on_c, 1, 50, 0
1, 16008, Note_on_c, 0, 75, 75
1, 16008, Note_on_c, 1, 48, 75
1, 16031, Note_on_c, 0, 75, 0
1, 16031, Note_on_c, 1, 48, 0
1, 16032, Note_on_c, 0, 74, 75
1, 16032, Note_on_c, 1, 47, 75
1, 16055, Note_on_c, 0, 74, 0
1, 16056, Note_on_c, 0, 77, 75
1, 16077, Note_on_c, 1, 47, 0
1, 16079, Note_on_c, 0, 77, 0
1, 16080, Note_on_c, 0, 83, 75
1, 16080, Note_on_c, 1, 55, 91
1, 16086, Note_on_c, 1, 55, 0
1, 16086, Note_on_c, 1, 56, 91
1, 16092, Note_on_c, 1, 56, 0
1, 16092, Note_on_c, 1, 55, 91
1, 16103, Note_on_c, 0, 83, 0
1, 16104, Note_on_c, 0, 77, 75
1, 16127, Note_on_c, 0, 77, 0
1, 16128, Note_on_c, 0, 75, 75
1, 16151, Note_on_c, 0, 75, 0
1, 16152, Note_on_c, 0, 79, 75
1, 16152, Note_on_c, 1, 55, 0
1, 16152, Note_on_c, 1, 53, 75
1, 16175, Note_on_c, 0, 79, 0
1, 16175, Note_on_c, 1, 53, 0
1, 16176, Note_on_c, 0, 84, 75
1, 16176, Note_on_c, 1, 51, 75
1, 16199, Note_on_c, 0, 84, 0
1, 16200, Note_on_c, 0, 72, 75
1, 16223, Note_on_c, 0, 72, 0
1, 16224, Note_on_c, 0, 71, 75
1, 16243, Note_on_c, 1, 51, 0
1, 16247, Note_on_c, 0, 71, 0
1, 16248, Note_on_c, 0, 74, 75
1, 16248, Note_on_c, 1, 50, 75
1, 16271, Note_on_c, 0, 74, 0
1, 16271, Note_on_c, 1, 50, 0
1, 16272, Note_on_c, 0, 80, 75
1, 16272, Note_on_c, 1, 48, 75
1, 16295, Note_on_c, 0, 80, 0
1, 16295, Note_on_c, 1, 48, 0
1, 16296, Note_on_c, 0, 79, 75
1, 16296, Note_on_c, 1, 46, 75
1, 16319, Note_on_c, 0, 79, 0
1, 16319, Note_on_c, 1, 46, 0
1, 16320, Note_on_c, 0, 77, 75
1, 16320, Note_on_c, 1, 44, 75
1, 16343, Note_on_c, 0, 77, 0
1, 16344, Note_on_c, 0, 75, 75
1, 16365, Note_on_c, 1, 44, 0
1, 16367, Note_on_c, 0, 75, 0
1, 16368, Note_on_c, 0, 74, 75
1, 16368, Note_on_c, 1, 53, 91
1, 16374, Note_on_c, 1, 53, 0
1, 16374, Note_on_c, 1, 55, 91
1, 16380, Note_on_c, 1, 55, 0
1, 16380, Note_on_c, 1, 53, 91
1, 16391, Note_on_c, 0, 74, 0
1, 16392, Note_on_c, 0, 72, 75
1, 16415, Note_on_c, 0, 72, 0
1, 16416, Note_on_c, 0, 71, 75
1, 16439, Note_on_c, 0, 71, 0
1, 16440, Note_on_c, 0, 80, 75
1, 16440, Note_on_c, 1, 53, 0
1, 16440, Note_on_c, 1, 53, 75
1, 16463, Note_on_c, 0, 80, 0
1, 16463, Note_on_c, 1, 53, 0
1, 16464, Note_on_c, 0, 79, 75
1, 16464, Note_on_c, 1, 51, 75
1, 16487, Note_on_c, 0, 79, 0
1, 16487, Note_on_c, 1, 51, 0
1, 16488, Note_on_c, 0, 77, 75
1, 16488, Note_on_c, 1, 50, 75
1, 16511, Note_on_c, 0, 77, 0
1, 16511, Note_on_c, 1, 50, 0
1, 16512, Note_on_c, 0, 75, 75
1, 16512, Note_on_c, 1, 48, 75
1, 16535, Note_on_c, 0, 75, 0
1, 16535, Note_on_c, 1, 48, 0
1, 16536, Note_on_c, 0, 74, 75
1, 16536, Note_on_c, 1, 46, 75
1, 16559, Note_on_c, 0, 74, 0
1, 16559, Note_on_c, 1, 46, 0
1, 16560, Tempo, 1200000
1, 16560, Note_on_c, 0, 72, 75
1, 16560, Note_on_c, 1, 44, 75
1, 16583, Note_on_c, 0, 72, 0
1, 16583, Note_on_c, 1, 44, 0
1, 16584, Tempo, 1333333
1, 16584, Note_on_c, 0, 74, 75
1, 16584, Note_on_c, 0, 70, 75
1, 16584, Note_on_c, 1, 43, 75
1, 16607, Note_on_c, 0, 74, 0
1, 16607, Note_on_c, 0, 70, 0
1, 16607, Note_on_c, 1, 43, 0
1, 16608, Tempo, 1500000
1, 16608, Note_on_c, 0, 66, 75
1, 16608, Note_on_c, 1, 42, 75
1, 16614, Note_on_c, 0, 69, 75
1, 16614, Note_on_c, 1, 45, 75
1, 16620, Note_on_c, 0, 72, 75
1, 16620, Note_on_c, 1, 48, 75
1, 16626, Note_on_c, 0, 75, 75
1, 16626, Note_on_c, 1, 51, 75
1, 16701, Note_on_c, 0, 75, 0
1, 16701, Note_on_c, 0, 72, 0
1, 16701, Note_on_c, 0, 69, 0
1, 16701, Note_on_c, 0, 66, 0
1, 16701, Note_on_c, 1, 51, 0
1, 16701, Note_on_c, 1, 48, 0
1, 16701, Note_on_c, 1, 45, 0
1, 16701, Note_on_c, 1, 42, 0
1, 16752, Tempo, 1090909
1, 16752, Note_on_c, 0, 74, 75
1, 16775, Note_on_c, 0, 74, 0
1, 16776, Note_on_c, 0, 75, 75
1, 16799, Note_on_c, 0, 75, 0
1, 16800, Note_on_c, 0, 77, 75
1, 16823, Note_on_c, 0, 77, 0
1, 16824, Note_on_c, 0, 75, 75
1, 16847, Note_on_c, 0, 75, 0
1, 16848, Note_on_c, 0, 74, 75
1, 16871, Note_on_c, 0, 74, 0
1, 16872, Note_on_c, 0, 75, 75
1, 16895, Note_on_c, 0, 75, 0
1, 16896, Note_on_c, 0, 74, 75
1, 16896, Note_on_c, 0, 71, 75
1, 16896, Note_on_c, 1, 43, 75
1, 17073, Note_on_c, 0, 74, 0
1, 17073, Note_on_c, 0, 71, 0
1, 17073, Note_on_c, 1, 43, 0
1, 17184, Note_on_c, 0, 67, 64
1, 17184, Note_on_c, 0, 63, 64
1, 17184, Note_on_c, 1, 43, 64
1, 17184, Note_on_c, 1, 31, 64
1, 17229, Note_on_c, 1, 43, 0
1, 17229, Note_on_c, 1, 31, 0
1, 17232, Note_on_c, 1, 43, 64
1, 17232, Note_on_c, 1, 31, 64
1, 17277, Note_on_c, 1, 43, 0
1, 17277, Note_on_c, 1, 31, 0
1, 17280, Note_on_c, 1, 43, 64
1, 17280, Note_on_c, 1, 31, 64
1, 17303, Note_on_c, 0, 67, 0
1, 17303, Note_on_c, 0, 63, 0
1, 17304, Note_on_c, 0, 63, 64
1, 17304, Note_on_c, 0, 60, 64
1, 17325, Note_on_c, 1, 43, 0
1, 17325, Note_on_c, 1, 31, 0
1, 17327, Note_on_c, 0, 63, 0
1, 17327, Note_on_c, 0, 60, 0
1, 17328, Note_on_c, 0, 63, 64
1, 17328, Note_on_c, 0, 60, 64
1, 17328, Note_on_c, 1, 43, 64
1, 17328, Note_on_c, 1, 31, 64
1, 17351, Note_on_c, 0, 63, 0
1, 17351, Note_on_c, 0, 60, 0
1, 17352, Note_on_c, 0, 67, 64
1, 17352, Note_on_c, 0, 63, 64
1, 17373, Note_on_c, 1, 43, 0
1, 17373, Note_on_c, 1, 31, 0
1, 17375, Note_on_c, 0, 67, 0
1, 17375, Note_on_c, 0, 63, 0
1, 17376, Note_on_c, 0, 67, 64
1, 17376, Note_on_c, 0, 63, 64
1, 17376, Note_on_c, 1, 43, 64
1, 17376, Note_on_c, 1, 31, 64
1, 17399, Note_on_c, 0, 67, 0
1, 17399, Note_on_c, 0, 63, 0
1, 17400, Note_on_c, 0, 63, 64
1, 17400, Note_on_c, 0, 60, 64
1, 17421, Note_on_c, 1, 43, 0
1, 17421, Note_on_c, 1, 31, 0
1, 17423, Note_on_c, 0, 63, 0
1, 17423, Note_on_c, 0, 60, 0
1, 17424, Note_on_c, 0, 63, 64
1, 17424, Note_on_c, 0, 60, 64
1, 17424, Note_on_c, 1, 43, 64
1, 17424, Note_on_c, 1, 31, 64
1, 17447, Note_on_c, 0, 63, 0
1, 17447, Note_on_c, 0, 60, 0
1, 17448, Note_on_c, 0, 67, 64
1, 17448, Note_on_c, 0, 63, 64
1, 17469, Note_on_c, 1, 43, 0
1, 17469, Note_on_c, 1, 31, 0
1, 17471, Note_on_c, 0, 67, 0
1, 17471, Note_on_c, 0, 63, 0
1, 17472, Note_on_c, 0, 65, 64
1, 17472, Note_on_c, 0, 62, 64
1, 17472, Note_on_c, 1, 43, 64
1, 17472, Note_on_c, 1, 31, 64
1, 17517, Note_on_c, 1, 43, 0
1, 17517, Note_on_c, 1, 31, 0
1, 17520, Note_on_c, 1, 43, 64
1, 17520, Note_on_c, 1, 31, 64
1, 17565, Note_on_c, 1, 43, 0
1, 17565, Note_on_c, 1, 31, 0
1, 17568, Note_on_c, 1, 43, 64
1, 17568, Note_on_c, 1, 31, 64
1, 17591, Note_on_c, 0, 65, 0
1, 17591, Note_on_c, 0, 62, 0
1, 17592, Note_on_c, 0, 62, 64
1, 17592, Note_on_c, 0, 59, 64
1, 17613, Note_on_c, 1, 43, 0
1, 17613, Note_on_c, 1, 31, 0
1, 17615, Note_on_c, 0, 62, 0
1, 17615, Note_on_c, 0, 59, 0
1, 17616, Note_on_c, 0, 62, 64
1, 17616, Note_on_c, 0, 59, 64
1, 17616, Note_on_c, 1, 43, 64
1, 17616, Note_on_c, 1, 31, 64
1, 17639, Note_on_c, 0, 62, 0
1, 17639, Note_on_c, 0, 59, 0
1, 17640, Note_on_c, 0, 65, 64
1, 17640, Note_on_c, 0, 62, 64
1, 17661, Note_on_c, 1, 43, 0
1, 17661, Note_on_c, 1, 31, 0
1, 17663, Note_on_c, 0, 65, 0
1, 17663, Note_on_c, 0, 62, 0
1, 17664, Note_on_c, 0, 65, 64
1, 17664, Note_on_c, 0, 62, 64
1, 17664, Note_on_c, 1, 43, 64
1, 17664, Note_on_c, 1, 31, 64
1, 17687, Note_on_c, 0, 65, 0
1, 17687, Note_on_c, 0, 62, 0
1, 17688, Note_on_c, 0, 62, 64
1, 17688, Note_on_c, 0, 59, 64
1, 17709, Note_on_c, 1, 43, 0
1, 17709, Note_on_c, 1, 31, 0
1, 17711, Note_on_c, 0, 62, 0
1, 17711, Note_on_c, 0, 59, 0
1, 17712, Note_on_c, 0, 62, 64
1, 17712, Note_on_c, 0, 59, 64
1, 17712, Note_on_c, 1, 43, 64
1, 17712, Note_on_c, 1, 31, 64
1, 17735, Note_on_c, 0, 62, 0
1, 17735, Note_on_c, 0, 59, 0
1, 17736, Note_on_c, 0, 65, 64
1, 17736, Note_on_c, 0, 62, 64
1, 17757, Note_on_c, 1, 43, 0
1, 17757, Note_on_c, 1, 31, 0
1, 17759, Note_on_c, 0, 65, 0
1, 17759, Note_on_c, 0, 62, 0
1, 17760, Note_on_c, 0, 68, 64
1, 17760, Note_on_c, 0, 65, 64
1, 17760, Note_on_c, 1, 43, 64
1, 17760, Note_on_c, 1, 31, 64
1, 17805, Note_on_c, 1, 43, 0
1, 17805, Note_on_c, 1, 31, 0
1, 17808, Note_on_c, 1, 43, 64
1, 17808, Note_on_c, 1, 31, 64
1, 17853, Note_on_c, 1, 43, 0
1, 17853, Note_on_c, 1, 31, 0
1, 17856, Note_on_c, 1, 43, 64
1, 17856, Note_on_c, 1, 31, 64
1, 17879, Note_on_c, 0, 68, 0
1, 17879, Note_on_c, 0, 65, 0
1, 17880, Note_on_c, 0, 65, 64
1, 17880, Note_on_c, 0, 62, 64
1, 17901, Note_on_c, 1, 43, 0
1, 17901, Note_on_c, 1, 31, 0
1, 17903, Note_on_c, 0, 65, 0
1, 17903, Note_on_c, 0, 62, 0
1, 17904, Note_on_c, 0, 65, 64
1, 17904, Note_on_c, 0, 62, 64
1, 17904, Note_on_c, 1, 43, 64
1, 17904, Note_on_c, 1, 31, 64
1, 17927, Note_on_c, 0, 65, 0
1, 17927, Note_on_c, 0, 62, 0
1, 17928, Note_on_c, 0, 68, 64
1, 17928, Note_on_c, 0, 65, 64
1, 17949, Note_on_c, 1, 43, 0
1, 17949, Note_on_c, 1, 31, 0
1, 17951, Note_on_c, 0, 68, 0
1, 17951, Note_on_c, 0, 65, 0
1, 17952, Note_on_c, 0, 71, 64
1, 17952, Note_on_c, 0, 65, 64
1, 17952, Note_on_c, 1, 43, 64
1, 17952, Note_on_c, 1, 31, 64
1, 17975, Note_on_c, 0, 71, 0
1, 17975, Note_on_c, 0, 65, 0
1, 17976, Note_on_c, 0, 65, 64
1, 17976, Note_on_c, 0, 62, 64
1, 17997, Note_on_c, 1, 43, 0
1, 17997, Note_on_c, 1, 31, 0
1, 17999, Note_on_c, 0, 65, 0
1, 17999, Note_on_c, 0, 62, 0
1, 18000, Note_on_c, 0, 65, 64
1, 18000, Note_on_c, 0, 62, 64
1, 18000, Note_on_c, 1, 43, 64
1, 18000, Note_on_c, 1, 31, 64
1, 18023, Note_on_c, 0, 65, 0
1, 18023, Note_on_c, 0, 62, 0
1, 18024, Note_on_c, 0, 71, 64
1, 18024, Note_on_c, 0, 65, 64
1, 18045, Note_on_c, 1, 43, 0
1, 18045, Note_on_c, 1, 31, 0
1, 18047, Note_on_c, 0, 71, 0
1, 18047, Note_on_c, 0, 65, 0
1, 18048, Note_on_c, 0, 72, 64
1, 18048, Note_on_c, 0, 67, 64
1, 18048, Note_on_c, 1, 43, 64
1, 18048, Note_on_c, 1, 31, 64
1, 18071, Note_on_c, 0, 72, 0
1, 18071, Note_on_c, 0, 67, 0
1, 18072, Note_on_c, 0, 67, 64
1, 18072, Note_on_c, 0, 63, 64
1, 18093, Note_on_c, 1, 43, 0
1, 18093, Note_on_c, 1, 31, 0
1, 18095, Note_on_c, 0, 67, 0
1, 18095, Note_on_c, 0, 63, 0
1, 18096, Note_on_c, 0, 67, 65
1, 18096, Note_on_c, 0, 63, 65
1, 18096, Note_on_c, 1, 43, 65
1, 18096, Note_on_c, 1, 31, 65
1, 18119, Note_on_c, 0, 67, 0
1, 18119, Note_on_c, 0, 63, 0
1, 18120, Note_on_c, 0, 72, 65
1, 18120, Note_on_c, 0, 67, 65
1, 18141, Note_on_c, 1, 43, 0
1, 18141, Note_on_c, 1, 31, 0
1, 18143, Note_on_c, 0, 72, 0
1, 18143, Note_on_c, 0, 67, 0
1, 18144, Note_on_c, 0, 74, 66
1, 18144, Note_on_c, 0, 71, 66
1, 18144, Note_on_c, 1, 43, 66
1, 18144, Note_on_c, 1, 31, 66
1, 18167, Note_on_c, 0, 74, 0
1, 18167, Note_on_c, 0, 71, 0
1, 18168, Note_on_c, 0, 71, 67
1, 18168, Note_on_c, 0, 67, 67
1, 18189, Note_on_c, 1, 43, 0
1, 18189, Note_on_c, 1, 31, 0
1, 18191, Note_on_c, 0, 71, 0
1, 18191, Note_on_c, 0, 67, 0
1, 18192, Note_on_c, 0, 71, 67
1, 18192, Note_on_c, 0, 67, 67
1, 18192, Note_on_c, 1, 43, 67
1, 18192, Note_on_c, 1, 31, 67
1, 18215, Note_on_c, 0, 71, 0
1, 18215, Note_on_c, 0, 67, 0
1, 18216, Note_on_c, 0, 74, 68
1, 18216, Note_on_c, 0, 71, 68
1, 18237, Note_on_c, 1, 43, 0
1, 18237, Note_on_c, 1, 31, 0
1, 18239, Note_on_c, 0, 74, 0
1, 18239, Note_on_c, 0, 71, 0
1, 18240, Note_on_c, 0, 75, 68
1, 18240, Note_on_c, 0, 72, 68
1, 18240, Note_on_c, 1, 43, 68
1, 18240, Note_on_c, 1, 31, 68
1, 18263, Note_on_c, 0, 75, 0
1, 18263, Note_on_c, 0, 72, 0
1, 18264, Note_on_c, 0, 72, 69
1, 18264, Note_on_c, 0, 67, 69
1, 18285, Note_on_c, 1, 43, 0
1, 18285, Note_on_c, 1, 31, 0
1, 18287, Note_on_c, 0, 72, 0
1, 18287, Note_on_c, 0, 67, 0
1, 18288, Note_on_c, 0, 72, 70
1, 18288, Note_on_c, 0, 67, 70
1, 18288, Note_on_c, 1, 43, 70
1, 18288, Note_on_c, 1, 31, 70
1, 18311, Note_on_c, 0, 72, 0
1, 18311, Note_on_c, 0, 67, 0
1, 18312, Note_on_c, 0, 75, 70
1, 18312, Note_on_c, 0, 72, 70
1, 18333, Note_on_c, 1, 43, 0
1, 18333, Note_on_c, 1, 31, 0
1, 18335, Note_on_c, 0, 75, 0
1, 18335, Note_on_c, 0, 72, 0
1, 18336, Note_on_c, 0, 78, 71
1, 18336, Note_on_c, 0, 72, 71
1, 18336, Note_on_c, 1, 43, 71
1, 18336, Note_on_c, 1, 31, 71
1, 18359, Note_on_c, 0, 78, 0
1, 18359, Note_on_c, 0, 72, 0
1, 18360, Note_on_c, 0, 72, 71
1, 18360, Note_on_c, 0, 69, 71
1, 18381, Note_on_c, 1, 43, 0
1, 18381, Note_on_c, 1, 31, 0
1, 18383, Note_on_c, 0, 72, 0
1, 18383, Note_on_c, 0, 69, 0
1, 18384, Note_on_c, 0, 72, 72
1, 18384, Note_on_c, 0, 69, 72
1, 18384, Note_on_c, 1, 43, 72
1, 18384, Note_on_c, 1, 31, 72
1, 18407, Note_on_c, 0, 72, 0
1, 18407, Note_on_c, 0, 69, 0
1, 18408, Note_on_c, 0, 78, 73
1, 18408, Note_on_c, 0, 72, 73
1, 18429, Note_on_c, 1, 43, 0
1, 18429, Note_on_c, 1, 31, 0
1, 18431, Note_on_c, 0, 78, 0
1, 18431, Note_on_c, 0, 72, 0
1, 18432, Note_on_c, 0, 79, 73
1, 18432, Note_on_c, 0, 74, 73
1, 18432, Note_on_c, 1, 43, 73
1, 18432, Note_on_c, 1, 31, 73
1, 18455, Note_on_c, 0, 79, 0
1, 18455, Note_on_c, 0, 74, 0
1, 18456, Note_on_c, 0, 74, 74
1, 18456, Note_on_c, 0, 71, 74
1, 18477, Note_on_c, 1, 43, 0
1, 18477, Note_on_c, 1, 31, 0
1, 18479, Note_on_c, 0, 74, 0
1, 18479, Note_on_c, 0, 71, 0
1, 18480, Note_on_c, 0, 74, 75
1, 18480, Note_on_c, 0, 71, 75
1, 18480, Note_on_c, 1, 43, 75
1, 18480, Note_on_c, 1, 31, 75
1, 18503, Note_on_c, 0, 74, 0
1, 18503, Note_on_c, 0, 71, 0
1, 18504, Note_on_c, 0, 79, 75
1, 18504, Note_on_c, 0, 74, 75
1, 18525, Note_on_c, 1, 43, 0
1, 18525, Note_on_c, 1, 31, 0
1, 18527, Note_on_c, 0, 79, 0
1, 18527, Note_on_c, 0, 74, 0
1, 18528, Note_on_c, 0, 80, 76
1, 18528, Note_on_c, 0, 77, 76
1, 18528, Note_on_c, 1, 43, 76
1, 18528, Note_on_c, 1, 31, 76
1, 18551, Note_on_c, 0, 80, 0
1, 18551, Note_on_c, 0, 77, 0
1, 18552, Note_on_c, 0, 77, 76
1, 18552, Note_on_c, 0, 74, 76
1, 18573, Note_on_c, 1, 43, 0
1, 18573, Note_on_c, 1, 31, 0
1, 18575, Note_on_c, 0, 77, 0
1, 18575, Note_on_c, 0, 74, 0
1, 18576, Note_on_c, 0, 77, 77
1, 18576, Note_on_c, 0, 74, 77
1, 18576, Note_on_c, 1, 43, 77
1, 18576, Note_on_c, 1, 31, 77
1, 18599, Note_on_c, 0, 77, 0
1, 18599, Note_on_c, 0, 74, 0
1, 18600, Note_on_c, 0, 80, 78
1, 18600, Note_on_c, 0, 77, 78
1, 18621, Note_on_c, 1, 43, 0
1, 18621, Note_on_c, 1, 31, 0
1, 18623, Note_on_c, 0, 80, 0
1, 18623, Note_on_c, 0, 77, 0
1, 18624, Note_on_c, 0, 83, 78
1, 18624, Note_on_c, 0, 77, 78
1, 18624, Note_on_c, 1, 43, 78
1, 18624, Note_on_c, 1, 31, 78
1, 18647, Note_on_c, 0, 83, 0
1, 18647, Note_on_c, 0, 77, 0
1, 18648, Note_on_c, 0, 77, 79
1, 18648, Note_on_c, 0, 74, 79
1, 18669, Note_on_c, 1, 43, 0
1, 18669, Note_on_c, 1, 31, 0
1, 18671, Note_on_c, 0, 77, 0
1, 18671, Note_on_c, 0, 74, 0
1, 18672, Note_on_c, 0, 77, 79
1, 18672, Note_on_c, 0, 74, 79
1, 18672, Note_on_c, 1, 43, 79
1, 18672, Note_on_c, 1, 31, 79
1, 18695, Note_on_c, 0, 77, 0
1, 18695, Note_on_c, 0, 74, 0
1, 18696, Note_on_c, 0, 83, 80
1, 18696, Note_on_c, 0, 77, 80
1, 18717, Note_on_c, 1, 43, 0
1, 18717, Note_on_c, 1, 31, 0
1, 18719, Note_on_c, 0, 83, 0
1, 18719, Note_on_c, 0, 77, 0
1, 18720, Note_on_c, 0, 84, 81
1, 18720, Note_on_c, 0, 79, 81
1, 18720, Note_on_c, 1, 43, 81
1, 18720, Note_on_c, 1, 31, 81
1, 18743, Note_on_c, 0, 84, 0
1, 18743, Note_on_c, 0, 79, 0
1, 18744, Note_on_c, 0, 79, 81
1, 18744, Note_on_c, 0, 75, 81
1, 18765, Note_on_c, 1, 43, 0
1, 18765, Note_on_c, 1, 31, 0
1, 18767, Note_on_c, 0, 79, 0
1, 18767, Note_on_c, 0, 75, 0
1, 18768, Note_on_c, 0, 79, 82
1, 18768, Note_on_c, 0, 75, 82
1, 18768, Note_on_c, 1, 43, 82
1, 18768, Note_on_c, 1, 31, 82
1, 18791, Note_on_c, 0, 79, 0
1, 18791, Note_on_c, 0, 75, 0
1, 18792, Note_on_c, 0, 84, 82
1, 18792, Note_on_c, 0, 79, 82
1, 18813, Note_on_c, 1, 43, 0
1, 18813, Note_on_c, 1, 31, 0
1, 18815, Note_on_c, 0, 84, 0
1, 18815, Note_on_c, 0, 79, 0
1, 18816, Note_on_c, 0, 86, 83
1, 18816, Note_on_c, 0, 83, 83
1, 18816, Note_on_c, 1, 43, 83
1, 18816, Note_on_c, 1, 31, 83
1, 18839, Note_on_c, 0, 86, 0
1, 18839, Note_on_c, 0, 83, 0
1, 18840, Note_on_c, 0, 83, 84
1, 18840, Note_on_c, 0, 79, 84
1, 18861, Note_on_c, 1, 43, 0
1, 18861, Note_on_c, 1, 31, 0
1, 18863, Note_on_c, 0, 83, 0
1, 18863, Note_on_c, 0, 79, 0
1, 18864, Note_on_c, 0, 83, 84
1, 18864, Note_on_c, 0, 79, 84
1, 18864, Note_on_c, 1, 43, 84
1, 18864, Note_on_c, 1, 31, 84
1, 18887, Note_on_c, 0, 83, 0
1, 18887, Note_on_c, 0, 79, 0
1, 18888, Note_on_c, 0, 86, 85
1, 18888, Note_on_c, 0, 83, 85
1, 18909, Note_on_c, 1, 43, 0
1, 18909, Note_on_c, 1, 31, 0
1, 18911, Note_on_c, 0, 86, 0
1, 18911, Note_on_c, 0, 83, 0
1, 18912, Note_on_c, 0, 87, 86
1, 18912, Note_on_c, 1, 42, 86
1, 18912, Note_on_c, 1, 30, 86
1, 19001, Note_on_c, 1, 42, 0
1, 19001, Note_on_c, 1, 30, 0
1, 19008, Tempo, 1500000
1, 19031, Note_on_c, 0, 87, 0
1, 19032, Note_on_c, 0, 86, 86
1, 19055, Note_on_c, 0, 86, 0
1, 19056, Note_on_c, 0, 84, 86
1, 19079, Note_on_c, 0, 84, 0
1, 19080, Note_on_c, 0, 82, 86
1, 19103, Note_on_c, 0, 82, 0
1, 19104, Note_on_c, 0, 81, 86
1, 19127, Note_on_c, 0, 81, 0
1, 19128, Note_on_c, 0, 79, 86
1, 19151, Note_on_c, 0, 79, 0
1, 19152, Note_on_c, 0, 78, 86
1, 19175, Note_on_c, 0, 78, 0
1, 19176, Note_on_c, 0, 79, 86
1, 19199, Note_on_c, 0, 79, 0
1, 19200, Note_on_c, 0, 82, 86
1, 19200, Note_on_c, 0, 79, 86
1, 19200, Note_on_c, 1, 49, 86
1, 19200, Note_on_c, 1, 37, 86
1, 19239, Note_on_c, 0, 82, 0
1, 19239, Note_on_c, 0, 79, 0
1, 19239, Note_on_c, 1, 49, 0
1, 19239, Note_on_c, 1, 37, 0
1, 19296, Note_on_c, 0, 81, 86
1, 19296, Note_on_c, 0, 78, 86
1, 19296, Note_on_c, 1, 50, 86
1, 19296, Note_on_c, 1, 38, 86
1, 19335, Note_on_c, 0, 81, 0
1, 19335, Note_on_c, 0, 78, 0
1, 19335, Note_on_c, 1, 50, 0
1, 19335, Note_on_c, 1, 38, 0
1, 19488, Tempo, 1090909
1, 19488, Note_on_c, 0, 65, 75
1, 19488, Note_on_c, 0, 62, 75
1, 19488, Note_on_c, 1, 46, 75
1, 19577, Note_on_c, 0, 65, 0
1, 19577, Note_on_c, 0, 62, 0
1, 19577, Note_on_c, 1, 46, 0
1, 19584, Note_on_c, 0, 70, 75
1, 19584, Note_on_c, 0, 67, 75
1, 19673, Note_on_c, 0, 70, 0
1, 19673, Note_on_c, 0, 67, 0
1, 19680, Note_on_c, 0, 69, 75
1, 19680, Note_on_c, 0, 65, 75
1, 19769, Note_on_c, 0, 69, 0
1, 19769, Note_on_c, 0, 65, 0
1, 19776, Note_on_c, 0, 67, 75
1, 19776, Note_on_c, 0, 63, 75
1, 19815, Note_on_c, 0, 67, 0
1, 19815, Note_on_c, 0, 63, 0
1, 19872, Note_on_c, 0, 65, 75
1, 19872, Note_on_c, 0, 62, 75
1, 19911, Note_on_c, 0, 65, 0
1, 19911, Note_on_c, 0, 62, 0
1, 20064, Note_on_c, 0, 77, 64
1, 20064, Note_on_c, 0, 74, 64
1, 20064, Note_on_c, 1, 58, 64
1, 20153, Note_on_c, 0, 77, 0
1, 20153, Note_on_c, 0, 74, 0
1, 20160, Note_on_c, 0, 79, 64
1, 20160, Note_on_c, 0, 75, 64
1, 20205, Note_on_c, 0, 79, 0
1, 20205, Note_on_c, 0, 75, 0
1, 20208, Note_on_c, 0, 80, 64
1, 20208, Note_on_c, 0, 77, 64
1, 20241, Note_on_c, 1, 58, 0
1, 20256, Note_on_c, 1, 63, 64
1, 20345, Note_on_c, 0, 80, 0
1, 20345, Note_on_c, 0, 77, 0
1, 20352, Note_on_c, 0, 79, 64
1, 20352, Note_on_c, 0, 75, 64
1, 20529, Note_on_c, 0, 79, 0
1, 20529, Note_on_c, 0, 75, 0
1, 20529, Note_on_c, 1, 63, 0
1, 20640, Note_on_c, 0, 82, 75
1, 20640, Note_on_c, 0, 79, 75
1, 20640, Note_on_c, 1, 75, 75
1, 20729, Note_on_c, 0, 82, 0
1, 20729, Note_on_c, 0, 79, 0
1, 20736, Note_on_c, 0, 84, 76
1, 20736, Note_on_c, 0, 80, 76
1, 20781, Note_on_c, 0, 84, 0
1, 20781, Note_on_c, 0, 80, 0
1, 20784, Note_on_c, 0, 85, 77
1, 20784, Note_on_c, 0, 82, 77
1, 20829, Note_on_c, 0, 85, 0
1, 20829, Note_on_c, 0, 82, 0
1, 20832, Note_on_c, 0, 87, 78
1, 20832, Note_on_c, 0, 84, 64
1, 20832, Note_on_c, 1, 75, 0
1, 20832, Note_on_c, 1, 76, 78
1, 20850, Note_on_c, 0, 87, 0
1, 20850, Note_on_c, 0, 85, 78
1, 20850, Note_on_c, 0, 84, 0
1, 20850, Note_on_c, 0, 82, 64
1, 20921, Note_on_c, 0, 85, 0
1, 20921, Note_on_c, 0, 82, 0
1, 20921, Note_on_c, 1, 76, 0
1, 20928, Note_on_c, 0, 84, 70
1, 20928, Note_on_c, 0, 80, 70
1, 20928, Note_on_c, 1, 77, 80
1, 21115, Note_on_c, 0, 84, 0
1, 21115, Note_on_c, 0, 80, 0
1, 21115, Note_on_c, 1, 77, 0
1, 21216, Note_on_c, 0, 70, 75
1, 21261, Note_on_c, 0, 70, 0
1, 21264, Note_on_c, 0, 77, 75
1, 21312, Note_on_c, 1, 61, 70
1, 21335, Note_on_c, 0, 77, 0
1, 21336, Note_on_c, 0, 75, 75
1, 21351, Note_on_c, 1, 61, 0
1, 21359, Note_on_c, 0, 75, 0
1, 21360, Note_on_c, 0, 73, 75
1, 21408, Note_on_c, 1, 58, 70
1, 21427, Note_on_c, 0, 73, 0
1, 21432, Note_on_c, 0, 72, 75
1, 21447, Note_on_c, 1, 58, 0
1, 21455, Note_on_c, 0, 72, 0
1, 21456, Note_on_c, 0, 70, 75
1, 21479, Note_on_c, 0, 70, 0
1, 21480, Note_on_c, 0, 68, 75
1, 21503, Note_on_c, 0, 68, 0
1, 21504, Note_on_c, 0, 67, 75
1, 21504, Note_on_c, 1, 51, 70
1, 21549, Note_on_c, 0, 67, 0
1, 21552, Note_on_c, 0, 75, 75
1, 21593, Note_on_c, 1, 51, 0
1, 21600, Note_on_c, 1, 60, 70
1, 21623, Note_on_c, 0, 75, 0
1, 21624, Note_on_c, 0, 73, 75
1, 21639, Note_on_c, 1, 60, 0
1, 21647, Note_on_c, 0, 73, 0
1, 21648, Note_on_c, 0, 72, 75
1, 21696, Note_on_c, 1, 56, 70
1, 21715, Note_on_c, 0, 72, 0
1, 21720, Note_on_c, 0, 70, 75
1, 21735, Note_on_c, 1, 56, 0
1, 21743, Note_on_c, 0, 70, 0
1, 21744, Note_on_c, 0, 68, 75
1, 21767, Note_on_c, 0, 68, 0
1, 21768, Note_on_c, 0, 67, 75
1, 21791, Note_on_c, 0, 67, 0
1, 21792, Note_on_c, 0, 65, 75
1, 21792, Note_on_c, 1, 49, 70
1, 21798, Note_on_c, 0, 65, 0
1, 21798, Note_on_c, 0, 67, 75
1, 21804, Note_on_c, 0, 67, 0
1, 21804, Note_on_c, 0, 65, 75
1, 21837, Note_on_c, 0, 65, 0
1, 21837, Note_on_c, 1, 49, 0
1, 21840, Note_on_c, 0, 73, 74
1, 21840, Note_on_c, 1, 49, 70
1, 21863, Note_on_c, 0, 73, 0
1, 21864, Note_on_c, 0, 72, 73
1, 21885, Note_on_c, 1, 49, 0
1, 21887, Note_on_c, 0, 72, 0
1, 21888, Note_on_c, 0, 70, 73
1, 21888, Note_on_c, 1, 49, 70
1, 21911, Note_on_c, 0, 70, 0
1, 21912, Note_on_c, 0, 68, 72
1, 21933, Note_on_c, 1, 49, 0
1, 21935, Note_on_c, 0, 68, 0
1, 21936, Note_on_c, 0, 67, 72
1, 21936, Note_on_c, 1, 49, 70
1, 21959, Note_on_c, 0, 67, 0
1, 21960, Note_on_c, 0, 65, 72
1, 21981, Note_on_c, 1, 49, 0
1, 21983, Note_on_c, 0, 65, 0
1, 21984, Note_on_c, 0, 63, 71
1, 21984, Note_on_c, 1, 51, 70
1, 22007, Note_on_c, 0, 63, 0
1, 22008, Note_on_c, 0, 67, 71
1, 22029, Note_on_c, 1, 51, 0
1, 22031, Note_on_c, 0, 67, 0
1, 22032, Note_on_c, 0, 68, 70
1, 22032, Note_on_c, 1, 51, 70
1, 22055, Note_on_c, 0, 68, 0
1, 22056, Note_on_c, 0, 60, 70
1, 22077, Note_on_c, 1, 51, 0
1, 22079, Note_on_c, 0, 60, 0
1, 22080, Note_on_c, 0, 63, 70
1, 22080, Note_on_c, 0, 60, 64
1, 22080, Note_on_c, 1, 51, 70
1, 22125, Note_on_c, 1, 51, 0
1, 22128, Note_on_c, 1, 51, 71
1, 22169, Note_on_c, 0, 63, 0
1, 22169, Note_on_c, 0, 60, 0
1, 22173, Note_on_c, 1, 51, 0
1, 22176, Note_on_c, 0, 61, 67
1, 22176, Note_on_c, 0, 58, 64
1, 22176, Note_on_c, 1, 52, 72
1, 22182, Note_on_c, 0, 61, 0
1, 22182, Note_on_c, 0, 63, 67
1, 22188, Note_on_c, 0, 63, 0
1, 22188, Note_on_c, 0, 61, 67
1, 22199, Note_on_c, 0, 61, 0
1, 22200, Note_on_c, 0, 60, 67
1, 22221, Note_on_c, 1, 52, 0
1, 22223, Note_on_c, 0, 60, 0
1, 22224, Note_on_c, 0, 61, 66
1, 22224, Note_on_c, 1, 52, 73
1, 22265, Note_on_c, 0, 58, 0
1, 22269, Note_on_c, 0, 61, 0
1, 22269, Note_on_c, 1, 52, 0
1, 22272, Note_on_c, 0, 60, 65
1, 22272, Note_on_c, 0, 56, 64
1, 22272, Note_on_c, 1, 53, 75
1, 22319, Note_on_c, 0, 60, 0
1, 22320, Note_on_c, 0, 68, 80
1, 22326, Note_on_c, 0, 68, 0
1, 22326, Note_on_c, 0, 70, 80
1, 22332, Note_on_c, 0, 70, 0
1, 22332, Note_on_c, 0, 68, 80
1, 22366, Note_on_c, 0, 56, 0
1, 22366, Note_on_c, 1, 53, 0
1, 22368, Note_on_c, 1, 58, 75
1, 22368, Note_on_c, 1, 53, 75
1, 22368, Note_on_c, 1, 50, 75
1, 22380, Note_on_c, 0, 68, 0
1, 22380, Note_on_c, 0, 67, 64
1, 22392, Note_on_c, 0, 67, 0
1, 22392, Note_on_c, 0, 65, 64
1, 22404, Note_on_c, 0, 65, 0
1, 22404, Note_on_c, 0, 63, 64
1, 22416, Note_on_c, 0, 63, 0
1, 22416, Note_on_c, 0, 62, 64
1, 22501, Note_on_c, 1, 58, 0
1, 22501, Note_on_c, 1, 53, 0
1, 22501, Note_on_c, 1, 50, 0
1, 22505, Note_on_c, 0, 62, 0
1, 22584, Note_on_c, 0, 72, 75
1, 22584, Note_on_c, 0, 68, 75
1, 22584, Note_on_c, 1, 50, 75
1, 22584, Note_on_c, 1, 46, 75
1, 22607, Note_on_c, 0, 72, 0
1, 22607, Note_on_c, 0, 68, 0
1, 22607, Note_on_c, 1, 50, 0
1, 22607, Note_on_c, 1, 46, 0
1, 22608, Note_on_c, 0, 70, 75
1, 22608, Note_on_c, 0, 67, 75
1, 22608, Note_on_c, 1, 51, 75
1, 22608, Note_on_c, 1, 48, 75
1, 22631, Note_on_c, 0, 70, 0
1, 22631, Note_on_c, 0, 67, 0
1, 22631, Note_on_c, 1, 51, 0
1, 22631, Note_on_c, 1, 48, 0
1, 22632, Note_on_c, 0, 68, 75
1, 22632, Note_on_c, 0, 65, 75
1, 22632, Note_on_c, 1, 53, 75
1, 22632, Note_on_c, 1, 50, 75
1, 22655, Note_on_c, 0, 68, 0
1, 22655, Note_on_c, 0, 65, 0
1, 22655, Note_on_c, 1, 53, 0
1, 22655, Note_on_c, 1, 50, 0
1, 22656, Note_on_c, 0, 67, 75
1, 22656, Note_on_c, 0, 63, 75
1, 22656, Note_on_c, 1, 55, 75
1, 22656, Note_on_c, 1, 51, 75
1, 22679, Note_on_c, 0, 67, 0
1, 22679, Note_on_c, 0, 63, 0
1, 22680, Note_on_c, 0, 82, 75
1, 22680, Note_on_c, 0, 79, 75
1, 22701, Note_on_c, 1, 55, 0
1, 22701, Note_on_c, 1, 51, 0
1, 22703, Note_on_c, 0, 82, 0
1, 22703, Note_on_c, 0, 79, 0
1, 22704, Note_on_c, 0, 80, 75
1, 22704, Note_on_c, 0, 77, 75
1, 22727, Note_on_c, 0, 80, 0
1, 22727, Note_on_c, 0, 77, 0
1, 22728, Note_on_c, 0, 79, 75
1, 22728, Note_on_c, 0, 75, 75
1, 22751, Note_on_c, 0, 79, 0
1, 22751, Note_on_c, 0, 75, 0
1, 22752, Note_on_c, 0, 77, 75
1, 22752, Note_on_c, 0, 74, 75
1, 22775, Note_on_c, 0, 77, 0
1, 22775, Note_on_c, 0, 74, 0
1, 22776, Note_on_c, 0, 75, 76
1, 22776, Note_on_c, 0, 72, 76
1, 22799, Note_on_c, 0, 75, 0
1, 22799, Note_on_c, 0, 72, 0
1, 22800, Note_on_c, 0, 74, 76
1, 22800, Note_on_c, 0, 70, 76
1, 22823, Note_on_c, 0, 74, 0
1, 22823, Note_on_c, 0, 70, 0
1, 22824, Note_on_c, 0, 72, 76
1, 22824, Note_on_c, 0, 68, 76
1, 22847, Note_on_c, 0, 72, 0
1, 22847, Note_on_c, 0, 68, 0
1, 22848, Note_on_c, 0, 70, 76
1, 22848, Note_on_c, 0, 67, 76
1, 22871, Note_on_c, 0, 70, 0
1, 22871, Note_on_c, 0, 67, 0
1, 22872, Note_on_c, 0, 68, 77
1, 22872, Note_on_c, 0, 65, 77
1, 22895, Note_on_c, 0, 68, 0
1, 22895, Note_on_c, 0, 65, 0
1, 22896, Note_on_c, 0, 67, 77
1, 22896, Note_on_c, 0, 63, 77
1, 22919, Note_on_c, 0, 67, 0
1, 22919, Note_on_c, 0, 63, 0
1, 22920, Note_on_c, 0, 65, 77
1, 22920, Note_on_c, 0, 62, 77
1, 22943, Note_on_c, 0, 65, 0
1, 22943, Note_on_c, 0, 62, 0
1, 22944, Note_on_c, 0, 63, 77
1, 22944, Note_on_c, 0, 60, 77
1, 22967, Note_on_c, 0, 63, 0
1, 22967, Note_on_c, 0, 60, 0
1, 22968, Note_on_c, 0, 62, 78
1, 22968, Note_on_c, 0, 58, 78
1, 22991, Note_on_c, 0, 62, 0
1, 22991, Note_on_c, 0, 58, 0
1, 22992, Note_on_c, 0, 60, 78
1, 22992, Note_on_c, 0, 56, 78
1, 23015, Note_on_c, 0, 60, 0
1, 23015, Note_on_c, 0, 56, 0
1, 23016, Note_on_c, 0, 58, 78
1, 23016, Note_on_c, 0, 55, 78
1, 23039, Note_on_c, 0, 58, 0
1, 23039, Note_on_c, 0, 55, 0
1, 23040, Note_on_c, 0, 56, 78
1, 23040, Note_on_c, 1, 56, 75
1, 23040, Note_on_c, 1, 53, 75
1, 23052, Note_on_c, 0, 56, 0
1, 23052, Note_on_c, 0, 68, 94
1, 23063, Note_on_c, 1, 56, 0
1, 23063, Note_on_c, 1, 53, 0
1, 23064, Note_on_c, 1, 55, 75
1, 23064, Note_on_c, 1, 51, 75
1, 23087, Note_on_c, 1, 55, 0
1, 23087, Note_on_c, 1, 51, 0
1, 23088, Note_on_c, 1, 53, 76
1, 23088, Note_on_c, 1, 50, 76
1, 23111, Note_on_c, 1, 53, 0
1, 23111, Note_on_c, 1, 50, 0
1, 23112, Note_on_c, 1, 51, 77
1, 23112, Note_on_c, 1, 48, 77
1, 23135, Note_on_c, 1, 51, 0
1, 23135, Note_on_c, 1, 48, 0
1, 23136, Note_on_c, 1, 50, 78
1, 23136, Note_on_c, 1, 38, 78
1, 23159, Note_on_c, 0, 68, 0
1, 23159, Note_on_c, 1, 50, 0
1, 23159, Note_on_c, 1, 38, 0
1, 23160, Note_on_c, 0, 87, 80
1, 23160, Note_on_c, 0, 75, 80
1, 23160, Note_on_c, 1, 48, 79
1, 23160, Note_on_c, 1, 36, 79
1, 23183, Note_on_c, 0, 87, 0
1, 23183, Note_on_c, 0, 75, 0
1, 23183, Note_on_c, 1, 48, 0
1, 23183, Note_on_c, 1, 36, 0
1, 23184, Note_on_c, 0, 86, 80
1, 23184, Note_on_c, 0, 74, 80
1, 23184, Note_on_c, 1, 46, 80
1, 23184, Note_on_c, 1, 34, 80
1, 23207, Note_on_c, 0, 86, 0
1, 23207, Note_on_c, 0, 74, 0
1, 23207, Note_on_c, 1, 46, 0
1, 23207, Note_on_c, 1, 34, 0
1, 23208, Note_on_c, 0, 84, 80
1, 23208, Note_on_c, 0, 72, 80
1, 23208, Note_on_c, 1, 44, 80
1, 23208, Note_on_c, 1, 32, 80
1, 23231, Note_on_c, 0, 84, 0
1, 23231, Note_on_c, 0, 72, 0
1, 23231, Note_on_c, 1, 44, 0
1, 23231, Note_on_c, 1, 32, 0
1, 23232, Note_on_c, 0, 82, 80
1, 23232, Note_on_c, 0, 70, 80
1, 23232, Note_on_c, 1, 43, 80
1, 23232, Note_on_c, 1, 31, 80
1, 23255, Note_on_c, 0, 82, 0
1, 23255, Note_on_c, 0, 70, 0
1, 23256, Note_on_c, 0, 83, 75
1, 23277, Note_on_c, 1, 43, 0
1, 23277, Note_on_c, 1, 31, 0
1, 23280, Note_on_c, 0, 83, 0
1, 23280, Note_on_c, 0, 84, 75
1, 23280, Note_on_c, 1, 52, 75
1, 23280, Note_on_c, 1, 40, 75
1, 23303, Note_on_c, 0, 84, 0
1, 23304, Note_on_c, 0, 79, 75
1, 23325, Note_on_c, 1, 52, 0
1, 23325, Note_on_c, 1, 40, 0
1, 23328, Note_on_c, 0, 79, 0
1, 23328, Note_on_c, 0, 80, 75
1, 23328, Note_on_c, 1, 53, 75
1, 23328, Note_on_c, 1, 41, 75
1, 23351, Note_on_c, 0, 80, 0
1, 23352, Note_on_c, 0, 81, 75
1, 23373, Note_on_c, 1, 53, 0
1, 23373, Note_on_c, 1, 41, 0
1, 23376, Note_on_c, 0, 81, 0
1, 23376, Note_on_c, 0, 82, 75
1, 23376, Note_on_c, 1, 50, 75
1, 23376, Note_on_c, 1, 38, 75
1, 23399, Note_on_c, 0, 82, 0
1, 23400, Note_on_c, 0, 77, 75
1, 23421, Note_on_c, 1, 50, 0
1, 23421, Note_on_c, 1, 38, 0
1, 23424, Note_on_c, 0, 77, 0
1, 23424, Note_on_c, 0, 78, 75
1, 23424, Note_on_c, 1, 51, 75
1, 23424, Note_on_c, 1, 39, 75
1, 23447, Note_on_c, 0, 78, 0
1, 23448, Note_on_c, 0, 79, 76
1, 23469, Note_on_c, 1, 51, 0
1, 23469, Note_on_c, 1, 39, 0
1, 23471, Note_on_c, 0, 79, 0
1, 23472, Note_on_c, 0, 72, 77
1, 23472, Note_on_c, 1, 44, 77
1, 23472, Note_on_c, 1, 32, 77
1, 23495, Note_on_c, 0, 72, 0
1, 23496, Note_on_c, 0, 80, 78
1, 23517, Note_on_c, 1, 44, 0
1, 23517, Note_on_c, 1, 32, 0
1, 23519, Note_on_c, 0, 80, 0
1, 23520, Tempo, 1132075
1, 23520, Note_on_c, 0, 75, 80
1, 23520, Note_on_c, 0, 67, 80
1, 23520, Note_on_c, 1, 46, 80
1, 23543, Note_on_c, 0, 75, 0
1, 23543, Note_on_c, 0, 67, 0
1, 23543, Note_on_c, 1, 46, 0
1, 23544, Tempo, 1250000
1, 23544, Note_on_c, 0, 75, 80
1, 23544, Note_on_c, 0, 67, 80
1, 23544, Note_on_c, 1, 47, 80
1, 23567, Note_on_c, 1, 47, 0
1, 23568, Note_on_c, 1, 48, 80
1, 23589, Note_on_c, 0, 75, 0
1, 23589, Note_on_c, 0, 67, 0
1, 23591, Note_on_c, 1, 48, 0
1, 23592, Tempo, 1395348
1, 23592, Note_on_c, 0, 75, 80
1, 23592, Note_on_c, 0, 67, 80
1, 23592, Note_on_c, 1, 43, 80
1, 23615, Note_on_c, 1, 43, 0
1, 23616, Note_on_c, 1, 44, 80
1, 23637, Note_on_c, 0, 75, 0
1, 23637, Note_on_c, 0, 67, 0
1, 23639, Note_on_c, 1, 44, 0
1, 23640, Tempo, 2000000
1, 23640, Note_on_c, 0, 75, 80
1, 23640, Note_on_c, 0, 67, 80
1, 23640, Note_on_c, 1, 45, 80
1, 23663, Note_on_c, 0, 75, 0
1, 23663, Note_on_c, 0, 67, 0
1, 23663, Note_on_c, 1, 45, 0
1, 23664, Tempo, 1395348
1, 23664, Note_on_c, 0, 75, 80
1, 23664, Note_on_c, 0, 67, 80
1, 23664, Note_on_c, 1, 46, 80
1, 23797, Note_on_c, 0, 75, 0
1, 23797, Note_on_c, 0, 67, 0
1, 23797, Note_on_c, 1, 46, 0
1, 23808, Tempo, 1090909
1, 23808, Note_on_c, 0, 87, 75
1, 23831, Note_on_c, 0, 87, 0
1, 23832, Note_on_c, 0, 84, 75
1, 23855, Note_on_c, 0, 84, 0
1, 23856, Note_on_c, 0, 82, 75
1, 23879, Note_on_c, 0, 82, 0
1, 23880, Note_on_c, 0, 80, 75
1, 23903, Note_on_c, 0, 80, 0
1, 23904, Note_on_c, 0, 79, 75
1, 23927, Note_on_c, 0, 79, 0
1, 23928, Note_on_c, 0, 87, 75
1, 23951, Note_on_c, 0, 87, 0
1, 23952, Note_on_c, 0, 83, 75
1, 23976, Note_on_c, 0, 83, 0
1, 23976, Note_on_c, 0, 84, 75
1, 23999, Note_on_c, 0, 84, 0
1, 24000, Note_on_c, 0, 77, 75
1, 24023, Note_on_c, 0, 77, 0
1, 24024, Note_on_c, 0, 79, 75
1, 24047, Note_on_c, 0, 79, 0
1, 24048, Note_on_c, 0, 80, 75
1, 24071, Note_on_c, 0, 80, 0
1, 24072, Note_on_c, 0, 77, 75
1, 24095, Note_on_c, 0, 77, 0
1, 24096, Note_on_c, 0, 79, 75
1, 24096, Note_on_c, 1, 75, 75
1, 24119, Note_on_c, 1, 75, 0
1, 24120, Note_on_c, 1, 72, 75
1, 24141, Note_on_c, 0, 79, 0
1, 24143, Note_on_c, 1, 72, 0
1, 24144, Note_on_c, 0, 87, 91
1, 24144, Note_on_c, 1, 70, 75
1, 24167, Note_on_c, 1, 70, 0
1, 24168, Note_on_c, 1, 68, 75
1, 24191, Note_on_c, 1, 68, 0
1, 24192, Note_on_c, 1, 67, 75
1, 24215, Note_on_c, 0, 87, 0
1, 24215, Note_on_c, 1, 67, 0
1, 24216, Note_on_c, 0, 79, 75
1, 24216, Note_on_c, 1, 75, 75
1, 24239, Note_on_c, 0, 79, 0
1, 24239, Note_on_c, 1, 75, 0
1, 24240, Note_on_c, 0, 74, 75
1, 24240, Note_on_c, 1, 71, 75
1, 24264, Note_on_c, 0, 74, 0
1, 24264, Note_on_c, 0, 75, 75
1, 24264, Note_on_c, 1, 71, 0
1, 24264, Note_on_c, 1, 72, 75
1, 24287, Note_on_c, 0, 75, 0
1, 24287, Note_on_c, 1, 72, 0
1, 24288, Note_on_c, 0, 80, 75
1, 24288, Note_on_c, 0, 79, 75
1, 24288, Note_on_c, 0, 72, 75
1, 24288, Note_on_c, 1, 65, 75
1, 24311, Note_on_c, 1, 65, 0
1, 24312, Note_on_c, 1, 67, 75
1, 24333, Note_on_c, 0, 80, 0
1, 24333, Note_on_c, 0, 79, 0
1, 24333, Note_on_c, 0, 72, 0
1, 24335, Note_on_c, 1, 67, 0
1, 24336, Note_on_c, 0, 80, 75
1, 24336, Note_on_c, 0, 77, 75
1, 24336, Note_on_c, 0, 72, 75
1, 24336, Note_on_c, 1, 68, 75
1, 24359, Note_on_c, 1, 68, 0
1, 24360, Note_on_c, 1, 67, 75
1, 24383, Note_on_c, 1, 67, 0
1, 24384, Note_on_c, 1, 65, 75
1, 24407, Note_on_c, 1, 65, 0
1, 24408, Note_on_c, 1, 67, 75
1, 24429, Note_on_c, 0, 80, 0
1, 24429, Note_on_c, 0, 77, 0
1, 24429, Note_on_c, 0, 72, 0
1, 24431, Note_on_c, 1, 67, 0
1, 24432, Note_on_c, 0, 80, 75
1, 24432, Note_on_c, 0, 77, 75
1, 24432, Note_on_c, 0, 72, 75
1, 24432, Note_on_c, 1, 68, 75
1, 24455, Note_on_c, 1, 68, 0
1, 24456, Note_on_c, 1, 67, 75
1, 24479, Note_on_c, 1, 67, 0
1, 24480, Note_on_c, 1, 65, 75
1, 24503, Note_on_c, 1, 65, 0
1, 24504, Note_on_c, 1, 67, 75
1, 24521, Note_on_c, 0, 80, 0
1, 24521, Note_on_c, 0, 77, 0
1, 24521, Note_on_c, 0, 72, 0
1, 24527, Note_on_c, 1, 67, 0
1, 24528, Note_on_c, 0, 80, 75
1, 24528, Note_on_c, 0, 77, 75
1, 24528, Note_on_c, 0, 72, 75
1, 24528, Note_on_c, 1, 68, 75
1, 24551, Note_on_c, 1, 68, 0
1, 24552, Note_on_c, 1, 65, 75
1, 24575, Note_on_c, 1, 65, 0
1, 24576, Note_on_c, 1, 63, 75
1, 24599, Note_on_c, 1, 63, 0
1, 24600, Note_on_c, 1, 67, 75
1, 24617, Note_on_c, 0, 80, 0
1, 24617, Note_on_c, 0, 77, 0
1, 24617, Note_on_c, 0, 72, 0
1, 24623, Note_on_c, 1, 67, 0
1, 24624, Tempo, 1200000
1, 24624, Note_on_c, 0, 80, 75
1, 24624, Note_on_c, 0, 77, 75
1, 24624, Note_on_c, 0, 72, 75
1, 24624, Note_on_c, 1, 68, 75
1, 24647, Note_on_c, 1, 68, 0
1, 24648, Note_on_c, 1, 63, 75
1, 24669, Note_on_c, 0, 80, 0
1, 24669, Note_on_c, 0, 77, 0
1, 24669, Note_on_c, 0, 72, 0
1, 24671, Note_on_c, 1, 63, 0
1, 24672, Note_on_c, 0, 74, 75
1, 24672, Note_on_c, 1, 62, 75
1, 24678, Note_on_c, 1, 65, 75
1, 24680, Note_on_c, 0, 77, 75
1, 24684, Note_on_c, 1, 68, 75
1, 24688, Note_on_c, 0, 80, 75
1, 24690, Note_on_c, 1, 74, 75
1, 24720, Tempo, 3000000
1, 24743, Note_on_c, 0, 80, 0
1, 24743, Note_on_c, 0, 77, 0
1, 24743, Note_on_c, 0, 74, 0
1, 24743, Note_on_c, 1, 74, 0
1, 24743, Note_on_c, 1, 68, 0
1, 24743, Note_on_c, 1, 65, 0
1, 24743, Note_on_c, 1, 62, 0
1, 24744, Tempo, 1090909
1, 24744, Note_on_c, 0, 77, 75
1, 24767, Note_on_c, 0, 77, 0
1, 24768, Note_on_c, 0, 79, 75
1, 24768, Note_on_c, 1, 63, 75
1, 24783, Note_on_c, 0, 79, 0
1, 24784, Note_on_c, 0, 77, 75
1, 24799, Note_on_c, 0, 77, 0
1, 24800, Note_on_c, 0, 79, 75
1, 24813, Note_on_c, 1, 63, 0
1, 24815, Note_on_c, 0, 79, 0
1, 24816, Note_on_c, 0, 80, 75
1, 24816, Note_on_c, 1, 56, 75
1, 24831, Note_on_c, 0, 80, 0
1, 24832, Note_on_c, 0, 79, 75
1, 24847, Note_on_c, 0, 79, 0
1, 24848, Note_on_c, 0, 77, 75
1, 24861, Note_on_c, 1, 56, 0
1, 24863, Note_on_c, 0, 77, 0
1, 24864, Note_on_c, 0, 75, 75
1, 24864, Note_on_c, 0, 67, 64
1, 24864, Note_on_c, 1, 58, 75
1, 24909, Note_on_c, 0, 75, 0
1, 24909, Note_on_c, 0, 67, 0
1, 24909, Note_on_c, 1, 58, 0
1, 24912, Note_on_c, 0, 74, 75
1, 24912, Note_on_c, 0, 65, 64
1, 24912, Note_on_c, 1, 46, 75
1, 24918, Note_on_c, 0, 74, 0
1, 24918, Note_on_c, 0, 75, 75
1, 24924, Note_on_c, 0, 75, 0
1, 24924, Note_on_c, 0, 74, 75
1, 24957, Note_on_c, 0, 74, 0
1, 24957, Note_on_c, 0, 65, 0
1, 24957, Note_on_c, 1, 46, 0
1, 24960, Note_on_c, 0, 63, 75
1, 24960, Note_on_c, 1, 55, 64
1, 24960, Note_on_c, 1, 51, 64
1, 24975, Note_on_c, 0, 63, 0
1, 24976, Note_on_c, 0, 58, 75
1, 24991, Note_on_c, 0, 58, 0
1, 24992, Note_on_c, 0, 63, 75
1, 25005, Note_on_c, 1, 55, 0
1, 25005, Note_on_c, 1, 51, 0
1, 25007, Note_on_c, 0, 63, 0
1, 25008, Note_on_c, 0, 67, 75
1, 25008, Note_on_c, 1, 55, 64
1, 25008, Note_on_c, 1, 51, 64
1, 25023, Note_on_c, 0, 67, 0
1, 25024, Note_on_c, 0, 63, 75
1, 25039, Note_on_c, 0, 63, 0
1, 25040, Note_on_c, 0, 67, 75
1, 25053, Note_on_c, 1, 55, 0
1, 25053, Note_on_c, 1, 51, 0
1, 25055, Note_on_c, 0, 67, 0
1, 25056, Note_on_c, 0, 70, 76
1, 25056, Note_on_c, 1, 55, 64
1, 25056, Note_on_c, 1, 51, 64
1, 25071, Note_on_c, 0, 70, 0
1, 25072, Note_on_c, 0, 67, 76
1, 25087, Note_on_c, 0, 67, 0
1, 25088, Note_on_c, 0, 70, 76
1, 25101, Note_on_c, 1, 55, 0
1, 25101, Note_on_c, 1, 51, 0
1, 25103, Note_on_c, 0, 70, 0
1, 25104, Note_on_c, 0, 75, 76
1, 25104, Note_on_c, 1, 55, 64
1, 25104, Note_on_c, 1, 51, 64
1, 25119, Note_on_c, 0, 75, 0
1, 25120, Note_on_c, 0, 70, 76
1, 25135, Note_on_c, 0, 70, 0
1, 25136, Note_on_c, 0, 75, 76
1, 25149, Note_on_c, 1, 55, 0
1, 25149, Note_on_c, 1, 51, 0
1, 25151, Note_on_c, 0, 75, 0
1, 25152, Note_on_c, 0, 79, 77
1, 25152, Note_on_c, 1, 51, 64
1, 25152, Note_on_c, 1, 43, 64
1, 25167, Note_on_c, 0, 79, 0
1, 25168, Note_on_c, 0, 75, 77
1, 25183, Note_on_c, 0, 75, 0
1, 25184, Note_on_c, 0, 79, 77
1, 25197, Note_on_c, 1, 51, 0
1, 25197, Note_on_c, 1, 43, 0
1, 25199, Note_on_c, 0, 79, 0
1, 25200, Note_on_c, 0, 82, 77
1, 25200, Note_on_c, 1, 51, 64
1, 25200, Note_on_c, 1, 43, 64
1, 25215, Note_on_c, 0, 82, 0
1, 25216, Note_on_c, 0, 79, 77
1, 25231, Note_on_c, 0, 79, 0
1, 25232, Note_on_c, 0, 82, 78
1, 25245, Note_on_c, 1, 51, 0
1, 25245, Note_on_c, 1, 43, 0
1, 25247, Note_on_c, 0, 82, 0
1, 25248, Note_on_c, 0, 87, 78
1, 25248, Note_on_c, 1, 51, 64
1, 25248, Note_on_c, 1, 43, 64
1, 25293, Note_on_c, 0, 87, 0
1, 25293, Note_on_c, 1, 51, 0
1, 25293, Note_on_c, 1, 43, 0
1, 25296, Note_on_c, 0, 79, 80
1, 25296, Note_on_c, 1, 51, 64
1, 25296, Note_on_c, 1, 43, 64
1, 25341, Note_on_c, 0, 79, 0
1, 25341, Note_on_c, 1, 51, 0
1, 25341, Note_on_c, 1, 43, 0
1, 25344, Note_on_c, 0, 76, 80
1, 25344, Note_on_c, 1, 53, 64
1, 25344, Note_on_c, 1, 44, 64
1, 25359, Note_on_c, 0, 76, 0
1, 25360, Note_on_c, 0, 77, 79
1, 25375, Note_on_c, 0, 77, 0
1, 25376, Note_on_c, 0, 80, 79
1, 25389, Note_on_c, 1, 53, 0
1, 25389, Note_on_c, 1, 44, 0
1, 25391, Note_on_c, 0, 80, 0
1, 25392, Note_on_c, 0, 84, 79
1, 25392, Note_on_c, 1, 53, 64
1, 25392, Note_on_c, 1, 44, 64
1, 25407, Note_on_c, 0, 84, 0
1, 25408, Note_on_c, 0, 80, 78
1, 25423, Note_on_c, 0, 80, 0
1, 25424, Note_on_c, 0, 77, 78
1, 25437, Note_on_c, 1, 53, 0
1, 25437, Note_on_c, 1, 44, 0
1, 25439, Note_on_c, 0, 77, 0
1, 25440, Note_on_c, 0, 82, 78
1, 25440, Note_on_c, 1, 55, 64
1, 25440, Note_on_c, 1, 46, 64
1, 25455, Note_on_c, 0, 82, 0
1, 25456, Note_on_c, 0, 79, 77
1, 25471, Note_on_c, 0, 79, 0
1, 25472, Note_on_c, 0, 75, 77
1, 25485, Note_on_c, 1, 55, 0
1, 25485, Note_on_c, 1, 46, 0
1, 25487, Note_on_c, 0, 75, 0
1, 25488, Note_on_c, 0, 80, 77
1, 25488, Note_on_c, 1, 53, 64
1, 25488, Note_on_c, 1, 46, 64
1, 25503, Note_on_c, 0, 80, 0
1, 25504, Note_on_c, 0, 77, 76
1, 25519, Note_on_c, 0, 77, 0
1, 25520, Note_on_c, 0, 74, 76
1, 25533, Note_on_c, 1, 53, 0
1, 25533, Note_on_c, 1, 46, 0
1, 25535, Note_on_c, 0, 74, 0
1, 25536, Note_on_c, 0, 75, 80
1, 25536, Note_on_c, 1, 51, 80
1, 25559, Note_on_c, 0, 75, 0
1, 25560, Note_on_c, 0, 70, 78
1, 25560, Note_on_c, 0, 67, 78
1, 25581, Note_on_c, 1, 51, 0
1, 25583, Note_on_c, 0, 70, 0
1, 25583, Note_on_c, 0, 67, 0
1, 25584, Note_on_c, 0, 70, 77
1, 25584, Note_on_c, 0, 67, 77
1, 25584, Note_on_c, 1, 39, 77
1, 25608, Note_on_c, 0, 70, 0
1, 25608, Note_on_c, 0, 67, 0
1, 25608, Note_on_c, 0, 72, 76
1, 25608, Note_on_c, 0, 68, 76
1, 25629, Note_on_c, 1, 39, 0
1, 25631, Note_on_c, 0, 72, 0
1, 25631, Note_on_c, 0, 68, 0
1, 25632, Note_on_c, 0, 72, 74
1, 25632, Note_on_c, 0, 68, 74
1, 25632, Note_on_c, 1, 39, 74
1, 25656, Note_on_c, 0, 72, 0
1, 25656, Note_on_c, 0, 65, 73
1, 25677, Note_on_c, 1, 39, 0
1, 25679, Note_on_c, 0, 68, 0
1, 25679, Note_on_c, 0, 65, 0
1, 25680, Note_on_c, 0, 68, 72
1, 25680, Note_on_c, 0, 65, 72
1, 25680, Note_on_c, 1, 39, 72
1, 25704, Note_on_c, 0, 68, 0
1, 25704, Note_on_c, 0, 65, 0
1, 25704, Note_on_c, 0, 70, 70
1, 25704, Note_on_c, 0, 67, 70
1, 25725, Note_on_c, 1, 39, 0
1, 25727, Note_on_c, 0, 70, 0
1, 25727, Note_on_c, 0, 67, 0
1, 25728, Note_on_c, 0, 70, 69
1, 25728, Note_on_c, 0, 67, 69
1, 25728, Note_on_c, 1, 39, 69
1, 25752, Note_on_c, 0, 70, 0
1, 25752, Note_on_c, 0, 67, 0
1, 25752, Note_on_c, 0, 65, 68
1, 25752, Note_on_c, 0, 62, 68
1, 25773, Note_on_c, 1, 39, 0
1, 25775, Note_on_c, 0, 65, 0
1, 25775, Note_on_c, 0, 62, 0
1, 25776, Note_on_c, 0, 67, 66
1, 25776, Note_on_c, 0, 63, 66
1, 25776, Note_on_c, 1, 39, 66
1, 25800, Note_on_c, 0, 67, 0
1, 25800, Note_on_c, 0, 63, 0
1, 25800, Note_on_c, 0, 68, 65
1, 25800, Note_on_c, 0, 65, 65
1, 25821, Note_on_c, 1, 39, 0
1, 25823, Note_on_c, 0, 68, 0
1, 25823, Note_on_c, 0, 65, 0
1, 25824, Tempo, 1500000
1, 25824, Note_on_c, 0, 68, 64
1, 25824, Note_on_c, 0, 65, 64
1, 25824, Note_on_c, 0, 62, 64
1, 25824, Note_on_c, 1, 39, 64
1, 25920, Note_on_c, 0, 68, 0
1, 25920, Note_on_c, 0, 65, 0
1, 25920, Note_on_c, 0, 62, 0
1, 25920, Note_on_c, 0, 67, 64
1, 25920, Note_on_c, 0, 63, 64
1, 26001, Note_on_c, 1, 39, 0
1, 26009, Note_on_c, 0, 67, 0
1, 26009, Note_on_c, 0, 63, 0
1, 26016, Tempo, 1090909
1, 26112, Note_on_c, 1, 53, 75
1, 26112, Note_on_c, 1, 50, 75
1, 26201, Note_on_c, 1, 53, 0
1, 26201, Note_on_c, 1, 50, 0
1, 26208, Note_on_c, 1, 56, 75
1, 26208, Note_on_c, 1, 53, 75
1, 26297, Note_on_c, 1, 56, 0
1, 26297, Note_on_c, 1, 53, 0
1, 26304, Note_on_c, 1, 55, 75
1, 26304, Note_on_c, 1, 51, 75
1, 26393, Note_on_c, 1, 55, 0
1, 26393, Note_on_c, 1, 51, 0
1, 26400, Note_on_c, 0, 71, 75
1, 26400, Note_on_c, 1, 53, 75
1, 26400, Note_on_c, 1, 50, 75
1, 26467, Note_on_c, 0, 71, 0
1, 26472, Note_on_c, 0, 72, 75
1, 26484, Note_on_c, 0, 72, 0
1, 26484, Note_on_c, 0, 74, 75
1, 26489, Note_on_c, 1, 53, 0
1, 26489, Note_on_c, 1, 50, 0
1, 26496, Note_on_c, 0, 74, 0
1, 26496, Note_on_c, 0, 72, 75
1, 26496, Note_on_c, 1, 55, 75
1, 26496, Note_on_c, 1, 51, 75
1, 26585, Note_on_c, 0, 72, 0
1, 26585, Note_on_c, 1, 55, 0
1, 26585, Note_on_c, 1, 51, 0
1, 26688, Note_on_c, 1, 67, 75
1, 26688, Note_on_c, 1, 64, 75
1, 26777, Note_on_c, 1, 67, 0
1, 26777, Note_on_c, 1, 64, 0
1, 26784, Note_on_c, 1, 73, 75
1, 26784, Note_on_c, 1, 70, 75
1, 26873, Note_on_c, 1, 73, 0
1, 26873, Note_on_c, 1, 70, 0
1, 26880, Note_on_c, 1, 72, 75
1, 26880, Note_on_c, 1, 68, 75
1, 26928, Note_on_c, 0, 77, 75
1, 26969, Note_on_c, 1, 72, 0
1, 26969, Note_on_c, 1, 68, 0
1, 26973, Note_on_c, 0, 77, 0
1, 26976, Note_on_c, 1, 70, 75
1, 26976, Note_on_c, 1, 67, 75
1, 27000, Note_on_c, 0, 76, 75
1, 27023, Note_on_c, 0, 76, 0
1, 27024, Note_on_c, 0, 77, 75
1, 27047, Note_on_c, 0, 77, 0
1, 27048, Note_on_c, 0, 79, 75
1, 27065, Note_on_c, 1, 70, 0
1, 27065, Note_on_c, 1, 67, 0
1, 27071, Note_on_c, 0, 79, 0
1, 27072, Note_on_c, 0, 80, 75
1, 27072, Note_on_c, 1, 68, 75
1, 27072, Note_on_c, 1, 65, 75
1, 27095, Note_on_c, 0, 80, 0
1, 27096, Note_on_c, 0, 77, 75
1, 27119, Note_on_c, 0, 77, 0
1, 27120, Note_on_c, 0, 76, 75
1, 27143, Note_on_c, 0, 76, 0
1, 27144, Note_on_c, 0, 77, 75
1, 27161, Note_on_c, 1, 68, 0
1, 27161, Note_on_c, 1, 65, 0
1, 27167, Note_on_c, 0, 77, 0
1, 27168, Note_on_c, 0, 72, 75
1, 27191, Note_on_c, 0, 72, 0
1, 27192, Note_on_c, 0, 77, 75
1, 27215, Note_on_c, 0, 77, 0
1, 27216, Note_on_c, 0, 76, 75
1, 27216, Note_on_c, 1, 44, 75
1, 27239, Note_on_c, 0, 76, 0
1, 27240, Note_on_c, 0, 77, 75
1, 27261, Note_on_c, 1, 44, 0
1, 27263, Note_on_c, 0, 77, 0
1, 27264, Note_on_c, 0, 73, 75
1, 27287, Note_on_c, 0, 73, 0
1, 27288, Note_on_c, 0, 77, 75
1, 27311, Note_on_c, 0, 77, 0
1, 27312, Note_on_c, 0, 76, 75
1, 27312, Note_on_c, 1, 56, 91
1, 27335, Note_on_c, 0, 76, 0
1, 27336, Note_on_c, 0, 77, 75
1, 27359, Note_on_c, 0, 77, 0
1, 27360, Note_on_c, 0, 72, 75
1, 27383, Note_on_c, 0, 72, 0
1, 27384, Note_on_c, 0, 77, 75
1, 27384, Note_on_c, 1, 56, 0
1, 27384, Note_on_c, 1, 55, 75
1, 27407, Note_on_c, 0, 77, 0
1, 27407, Note_on_c, 1, 55, 0
1, 27408, Note_on_c, 0, 76, 75
1, 27408, Note_on_c, 1, 53, 75
1, 27431, Note_on_c, 0, 76, 0
1, 27432, Note_on_c, 0, 77, 75
1, 27455, Note_on_c, 0, 77, 0
1, 27456, Note_on_c, 0, 80, 75
1, 27475, Note_on_c, 1, 53, 0
1, 27479, Note_on_c, 0, 80, 0
1, 27480, Note_on_c, 0, 79, 75
1, 27480, Note_on_c, 1, 51, 75
1, 27503, Note_on_c, 0, 79, 0
1, 27503, Note_on_c, 1, 51, 0
1, 27504, Note_on_c, 0, 77, 75
1, 27504, Note_on_c, 1, 50, 75
1, 27527, Note_on_c, 0, 77, 0
1, 27527, Note_on_c, 1, 50, 0
1, 27528, Note_on_c, 0, 75, 75
1, 27528, Note_on_c, 1, 48, 75
1, 27551, Note_on_c, 0, 75, 0
1, 27551, Note_on_c, 1, 48, 0
1, 27552, Note_on_c, 0, 74, 75
1, 27552, Note_on_c, 1, 47, 75
1, 27575, Note_on_c, 0, 74, 0
1, 27576, Note_on_c, 0, 77, 75
1, 27597, Note_on_c, 1, 47, 0
1, 27599, Note_on_c, 0, 77, 0
1, 27600, Note_on_c, 0, 83, 75
1, 27600, Note_on_c, 1, 55, 91
1, 27606, Note_on_c, 1, 55, 0
1, 27606, Note_on_c, 1, 56, 91
1, 27612, Note_on_c, 1, 56, 0
1, 27612, Note_on_c, 1, 55, 91
1, 27623, Note_on_c, 0, 83, 0
1, 27624, Note_on_c, 0, 77, 75
1, 27647, Note_on_c, 0, 77, 0
1, 27648, Note_on_c, 0, 75, 75
1, 27671, Note_on_c, 0, 75, 0
1, 27672, Note_on_c, 0, 79, 75
1, 27672, Note_on_c, 1, 55, 0
1, 27672, Note_on_c, 1, 53, 75
1, 27695, Note_on_c, 0, 79, 0
1, 27695, Note_on_c, 1, 53, 0
1, 27696, Note_on_c, 0, 84, 75
1, 27696, Note_on_c, 1, 51, 75
1, 27719, Note_on_c, 0, 84, 0
1, 27720, Note_on_c, 0, 72, 75
1, 27743, Note_on_c, 0, 72, 0
1, 27744, Note_on_c, 0, 71, 75
1, 27763, Note_on_c, 1, 51, 0
1, 27767, Note_on_c, 0, 71, 0
1, 27768, Note_on_c, 0, 74, 75
1, 27768, Note_on_c, 1, 50, 75
1, 27791, Note_on_c, 0, 74, 0
1, 27791, Note_on_c, 1, 50, 0
1, 27792, Note_on_c, 0, 80, 75
1, 27792, Note_on_c, 1, 48, 75
1, 27815, Note_on_c, 0, 80, 0
1, 27815, Note_on_c, 1, 48, 0
1, 27816, Note_on_c, 0, 79, 75
1, 27816, Note_on_c, 1, 46, 75
1, 27839, Note_on_c, 0, 79, 0
1, 27839, Note_on_c, 1, 46, 0
1, 27840, Note_on_c, 0, 77, 75
1, 27840, Note_on_c, 1, 44, 75
1, 27863, Note_on_c, 0, 77, 0
1, 27864, Note_on_c, 0, 75, 75
1, 27885, Note_on_c, 1, 44, 0
1, 27887, Note_on_c, 0, 75, 0
1, 27888, Note_on_c, 0, 74, 75
1, 27888, Note_on_c, 1, 53, 91
1, 27894, Note_on_c, 1, 53, 0
1, 27894, Note_on_c, 1, 55, 91
1, 27900, Note_on_c, 1, 55, 0
1, 27900, Note_on_c, 1, 53, 91
1, 27911, Note_on_c, 0, 74, 0
1, 27912, Note_on_c, 0, 72, 75
1, 27935, Note_on_c, 0, 72, 0
1, 27936, Note_on_c, 0, 71, 75
1, 27959, Note_on_c, 0, 71, 0
1, 27960, Note_on_c, 0, 80, 75
1, 27960, Note_on_c, 1, 53, 0
1, 27960, Note_on_c, 1, 53, 75
1, 27983, Note_on_c, 0, 80, 0
1, 27983, Note_on_c, 1, 53, 0
1, 27984, Note_on_c, 0, 79, 75
1, 27984, Note_on_c, 1, 51, 75
1, 28007, Note_on_c, 0, 79, 0
1, 28007, Note_on_c, 1, 51, 0
1, 28008, Note_on_c, 0, 77, 75
1, 28008, Note_on_c, 1, 50, 75
1, 28031, Note_on_c, 0, 77, 0
1, 28031, Note_on_c, 1, 50, 0
1, 28032, Note_on_c, 0, 75, 75
1, 28032, Note_on_c, 1, 48, 75
1, 28055, Note_on_c, 0, 75, 0
1, 28055, Note_on_c, 1, 48, 0
1, 28056, Note_on_c, 0, 74, 75
1, 28056, Note_on_c, 1, 46, 75
1, 28079, Note_on_c, 0, 74, 0
1, 28079, Note_on_c, 1, 46, 0
1, 28080, Tempo, 1200000
1, 28080, Note_on_c, 0, 72, 75
1, 28080, Note_on_c, 1, 44, 75
1, 28103, Note_on_c, 0, 72, 0
1, 28103, Note_on_c, 1, 44, 0
1, 28104, Tempo, 1333333
1, 28104, Note_on_c, 0, 74, 75
1, 28104, Note_on_c, 0, 70, 75
1, 28104, Note_on_c, 1, 43, 75
1, 28127, Note_on_c, 0, 74, 0
1, 28127, Note_on_c, 0, 70, 0
1, 28127, Note_on_c, 1, 43, 0
1, 28128, Tempo, 1500000
1, 28128, Note_on_c, 0, 66, 75
1, 28128, Note_on_c, 1, 42, 75
1, 28134, Note_on_c, 0, 69, 75
1, 28134, Note_on_c, 1, 45, 75
1, 28140, Note_on_c, 0, 72, 75
1, 28140, Note_on_c, 1, 48, 75
1, 28146, Note_on_c, 0, 75, 75
1, 28146, Note_on_c, 1, 51, 75
1, 28221, Note_on_c, 0, 75, 0
1, 28221, Note_on_c, 0, 72, 0
1, 28221, Note_on_c, 0, 69, 0
1, 28221, Note_on_c, 0, 66, 0
1, 28221, Note_on_c, 1, 51, 0
1, 28221, Note_on_c, 1, 48, 0
1, 28221, Note_on_c, 1, 45, 0
1, 28221, Note_on_c, 1, 42, 0
1, 28272, Tempo, 1090909
1, 28272, Note_on_c, 0, 74, 75
1, 28295, Note_on_c, 0, 74, 0
1, 28296, Note_on_c, 0, 75, 75
1, 28319, Note_on_c, 0, 75, 0
1, 28320, Note_on_c, 0, 77, 75
1, 28343, Note_on_c, 0, 77, 0
1, 28344, Note_on_c, 0, 75, 75
1, 28367, Note_on_c, 0, 75, 0
1, 28368, Note_on_c, 0, 74, 75
1, 28391, Note_on_c, 0, 74, 0
1, 28392, Note_on_c, 0, 75, 75
1, 28415, Note_on_c, 0, 75, 0
1, 28416, Note_on_c, 0, 74, 75
1, 28416, Note_on_c, 0, 71, 75
1, 28416, Note_on_c, 1, 43, 75
1, 28593, Note_on_c, 0, 74, 0
1, 28593, Note_on_c, 0, 71, 0
1, 28593, Note_on_c, 1, 43, 0
1, 28704, Note_on_c, 0, 67, 64
1, 28704, Note_on_c, 0, 63, 64
1, 28704, Note_on_c, 1, 43, 64
1, 28704, Note_on_c, 1, 31, 64
1, 28749, Note_on_c, 1, 43, 0
1, 28749, Note_on_c, 1, 31, 0
1, 28752, Note_on_c, 1, 43, 64
1, 28752, Note_on_c, 1, 31, 64
1, 28797, Note_on_c, 1, 43, 0
1, 28797, Note_on_c, 1, 31, 0
1, 28800, Note_on_c, 1, 43, 64
1, 28800, Note_on_c, 1, 31, 64
1, 28823, Note_on_c, 0, 67, 0
1, 28823, Note_on_c, 0, 63, 0
1, 28824, Note_on_c, 0, 63, 64
1, 28824, Note_on_c, 0, 60, 64
1, 28845, Note_on_c, 1, 43, 0
1, 28845, Note_on_c, 1, 31, 0
1, 28847, Note_on_c, 0, 63, 0
1, 28847, Note_on_c, 0, 60, 0
1, 28848, Note_on_c, 0, 63, 64
1, 28848, Note_on_c, 0, 60, 64
1, 28848, Note_on_c, 1, 43, 64
1, 28848, Note_on_c, 1, 31, 64
1, 28871, Note_on_c, 0, 63, 0
1, 28871, Note_on_c, 0, 60, 0
1, 28872, Note_on_c, 0, 67, 64
1, 28872, Note_on_c, 0, 63, 64
1, 28893, Note_on_c, 1, 43, 0
1, 28893, Note_on_c, 1, 31, 0
1, 28895, Note_on_c, 0, 67, 0
1, 28895, Note_on_c, 0, 63, 0
1, 28896, Note_on_c, 0, 67, 64
1, 28896, Note_on_c, 0, 63, 64
1, 28896, Note_on_c, 1, 43, 64
1, 28896, Note_on_c, 1, 31, 64
1, 28919, Note_on_c, 0, 67, 0
1, 28919, Note_on_c, 0, 63, 0
1, 28920, Note_on_c, 0, 63, 64
1, 28920, Note_on_c, 0, 60, 64
1, 28941, Note_on_c, 1, 43, 0
1, 28941, Note_on_c, 1, 31, 0
1, 28943, Note_on_c, 0, 63, 0
1, 28943, Note_on_c, 0, 60, 0
1, 28944, Note_on_c, 0, 63, 64
1, 28944, Note_on_c, 0, 60, 64
1, 28944, Note_on_c, 1, 43, 64
1, 28944, Note_on_c, 1, 31, 64
1, 28967, Note_on_c, 0, 63, 0
1, 28967, Note_on_c, 0, 60, 0
1, 28968, Note_on_c, 0, 67, 64
1, 28968, Note_on_c, 0, 63, 64
1, 28989, Note_on_c, 1, 43, 0
1, 28989, Note_on_c, 1, 31, 0
1, 28991, Note_on_c, 0, 67, 0
1, 28991, Note_on_c, 0, 63, 0
1, 28992, Note_on_c, 0, 65, 64
1, 28992, Note_on_c, 0, 62, 64
1, 28992, Note_on_c, 1, 43, 64
1, 28992, Note_on_c, 1, 31, 64
1, 29037, Note_on_c, 1, 43, 0
1, 29037, Note_on_c, 1, 31, 0
1, 29040, Note_on_c, 1, 43, 64
1, 29040, Note_on_c, 1, 31, 64
1, 29085, Note_on_c, 1, 43, 0
1, 29085, Note_on_c, 1, 31, 0
1, 29088, Note_on_c, 1, 43, 64
1, 29088, Note_on_c, 1, 31, 64
1, 29111, Note_on_c, 0, 65, 0
1, 29111, Note_on_c, 0, 62, 0
1, 29112, Note_on_c, 0, 62, 64
1, 29112, Note_on_c, 0, 59, 64
1, 29133, Note_on_c, 1, 43, 0
1, 29133, Note_on_c, 1, 31, 0
1, 29135, Note_on_c, 0, 62, 0
1, 29135, Note_on_c, 0, 59, 0
1, 29136, Note_on_c, 0, 62, 64
1, 29136, Note_on_c, 0, 59, 64
1, 29136, Note_on_c, 1, 43, 64
1, 29136, Note_on_c, 1, 31, 64
1, 29159, Note_on_c, 0, 62, 0
1, 29159, Note_on_c, 0, 59, 0
1, 29160, Note_on_c, 0, 65, 64
1, 29160, Note_on_c, 0, 62, 64
1, 29181, Note_on_c, 1, 43, 0
1, 29181, Note_on_c, 1, 31, 0
1, 29183, Note_on_c, 0, 65, 0
1, 29183, Note_on_c, 0, 62, 0
1, 29184, Note_on_c, 0, 65, 64
1, 29184, Note_on_c, 0, 62, 64
1, 29184, Note_on_c, 1, 43, 64
1, 29184, Note_on_c, 1, 31, 64
1, 29207, Note_on_c, 0, 65, 0
1, 29207, Note_on_c, 0, 62, 0
1, 29208, Note_on_c, 0, 62, 64
1, 29208, Note_on_c, 0, 59, 64
1, 29229, Note_on_c, 1, 43, 0
1, 29229, Note_on_c, 1, 31, 0
1, 29231, Note_on_c, 0, 62, 0
1, 29231, Note_on_c, 0, 59, 0
1, 29232, Note_on_c, 0, 62, 64
1, 29232, Note_on_c, 0, 59, 64
1, 29232, Note_on_c, 1, 43, 64
1, 29232, Note_on_c, 1, 31, 64
1, 29255, Note_on_c, 0, 62, 0
1, 29255, Note_on_c, 0, 59, 0
1, 29256, Note_on_c, 0, 65, 64
1, 29256, Note_on_c, 0, 62, 64
1, 29277, Note_on_c, 1, 43, 0
1, 29277, Note_on_c, 1, 31, 0
1, 29279, Note_on_c, 0, 65, 0
1, 29279, Note_on_c, 0, 62, 0
1, 29280, Note_on_c, 0, 68, 64
1, 29280, Note_on_c, 0, 65, 64
1, 29280, Note_on_c, 1, 43, 64
1, 29280, Note_on_c, 1, 31, 64
1, 29325, Note_on_c, 1, 43, 0
1, 29325, Note_on_c, 1, 31, 0
1, 29328, Note_on_c, 1, 43, 64
1, 29328, Note_on_c, 1, 31, 64
1, 29373, Note_on_c, 1, 43, 0
1, 29373, Note_on_c, 1, 31, 0
1, 29376, Note_on_c, 1, 43, 64
1, 29376, Note_on_c, 1, 31, 64
1, 29399, Note_on_c, 0, 68, 0
1, 29399, Note_on_c, 0, 65, 0
1, 29400, Note_on_c, 0, 65, 64
1, 29400, Note_on_c, 0, 62, 64
1, 29421, Note_on_c, 1, 43, 0
1, 29421, Note_on_c, 1, 31, 0
1, 29423, Note_on_c, 0, 65, 0
1, 29423, Note_on_c, 0, 62, 0
1, 29424, Note_on_c, 0, 65, 64
1, 29424, Note_on_c, 0, 62, 64
1, 29424, Note_on_c, 1, 43, 64
1, 29424, Note_on_c, 1, 31, 64
1, 29447, Note_on_c, 0, 65, 0
1, 29447, Note_on_c, 0, 62, 0
1, 29448, Note_on_c, 0, 68, 64
1, 29448, Note_on_c, 0, 65, 64
1, 29469, Note_on_c, 1, 43, 0
1, 29469, Note_on_c, 1, 31, 0
1, 29471, Note_on_c, 0, 68, 0
1, 29471, Note_on_c, 0, 65, 0
1, 29472, Note_on_c, 0, 71, 64
1, 29472, Note_on_c, 0, 65, 64
1, 29472, Note_on_c, 1, 43, 64
1, 29472, Note_on_c, 1, 31, 64
1, 29495, Note_on_c, 0, 71, 0
1, 29495, Note_on_c, 0, 65, 0
1, 29496, Note_on_c, 0, 65, 64
1, 29496, Note_on_c, 0, 62, 64
1, 29517, Note_on_c, 1, 43, 0
1, 29517, Note_on_c, 1, 31, 0
1, 29519, Note_on_c, 0, 65, 0
1, 29519, Note_on_c, 0, 62, 0
1, 29520, Note_on_c, 0, 65, 64
1, 29520, Note_on_c, 0, 62, 64
1, 29520, Note_on_c, 1, 43, 64
1, 29520, Note_on_c, 1, 31, 64
1, 29543, Note_on_c, 0, 65, 0
1, 29543, Note_on_c, 0, 62, 0
1, 29544, Note_on_c, 0, 71, 64
1, 29544, Note_on_c, 0, 65, 64
1, 29565, Note_on_c, 1, 43, 0
1, 29565, Note_on_c, 1, 31, 0
1, 29567, Note_on_c, 0, 71, 0
1, 29567, Note_on_c, 0, 65, 0
1, 29568, Note_on_c, 0, 72, 64
1, 29568, Note_on_c, 0, 67, 64
1, 29568, Note_on_c, 1, 43, 64
1, 29568, Note_on_c, 1, 31, 64
1, 29591, Note_on_c, 0, 72, 0
1, 29591, Note_on_c, 0, 67, 0
1, 29592, Note_on_c, 0, 67, 64
1, 29592, Note_on_c, 0, 63, 64
1, 29613, Note_on_c, 1, 43, 0
1, 29613, Note_on_c, 1, 31, 0
1, 29615, Note_on_c, 0, 67, 0
1, 29615, Note_on_c, 0, 63, 0
1, 29616, Note_on_c, 0, 67, 65
1, 29616, Note_on_c, 0, 63, 65
1, 29616, Note_on_c, 1, 43, 65
1, 29616, Note_on_c, 1, 31, 65
1, 29639, Note_on_c, 0, 67, 0
1, 29639, Note_on_c, 0, 63, 0
1, 29640, Note_on_c, 0, 72, 65
1, 29640, Note_on_c, 0, 67, 65
1, 29661, Note_on_c, 1, 43, 0
1, 29661, Note_on_c, 1, 31, 0
1, 29663, Note_on_c, 0, 72, 0
1, 29663, Note_on_c, 0, 67, 0
1, 29664, Note_on_c, 0, 74, 66
1, 29664, Note_on_c, 0, 71, 66
1, 29664, Note_on_c, 1, 43, 66
1, 29664, Note_on_c, 1, 31, 66
1, 29687, Note_on_c, 0, 74, 0
1, 29687, Note_on_c, 0, 71, 0
1, 29688, Note_on_c, 0, 71, 67
1, 29688, Note_on_c, 0, 67, 67
1, 29709, Note_on_c, 1, 43, 0
1, 29709, Note_on_c, 1, 31, 0
1, 29711, Note_on_c, 0, 71, 0
1, 29711, Note_on_c, 0, 67, 0
1, 29712, Note_on_c, 0, 71, 67
1, 29712, Note_on_c, 0, 67, 67
1, 29712, Note_on_c, 1, 43, 67
1, 29712, Note_on_c, 1, 31, 67
1, 29735, Note_on_c, 0, 71, 0
1, 29735, Note_on_c, 0, 67, 0
1, 29736, Note_on_c, 0, 74, 68
1, 29736, Note_on_c, 0, 71, 68
1, 29757, Note_on_c, 1, 43, 0
1, 29757, Note_on_c, 1, 31, 0
1, 29759, Note_on_c, 0, 74, 0
1, 29759, Note_on_c, 0, 71, 0
1, 29760, Note_on_c, 0, 75, 68
1, 29760, Note_on_c, 0, 72, 68
1, 29760, Note_on_c, 1, 43, 68
1, 29760, Note_on_c, 1, 31, 68
1, 29783, Note_on_c, 0, 75, 0
1, 29783, Note_on_c, 0, 72, 0
1, 29784, Note_on_c, 0, 72, 69
1, 29784, Note_on_c, 0, 67, 69
1, 29805, Note_on_c, 1, 43, 0
1, 29805, Note_on_c, 1, 31, 0
1, 29807, Note_on_c, 0, 72, 0
1, 29807, Note_on_c, 0, 67, 0
1, 29808, Note_on_c, 0, 72, 70
1, 29808, Note_on_c, 0, 67, 70
1, 29808, Note_on_c, 1, 43, 70
1, 29808, Note_on_c, 1, 31, 70
1, 29831, Note_on_c, 0, 72, 0
1, 29831, Note_on_c, 0, 67, 0
1, 29832, Note_on_c, 0, 75, 70
1, 29832, Note_on_c, 0, 72, 70
1, 29853, Note_on_c, 1, 43, 0
1, 29853, Note_on_c, 1, 31, 0
1, 29855, Note_on_c, 0, 75, 0
1, 29855, Note_on_c, 0, 72, 0
1, 29856, Note_on_c, 0, 78, 71
1, 29856, Note_on_c, 0, 72, 71
1, 29856, Note_on_c, 1, 43, 71
1, 29856, Note_on_c, 1, 31, 71
1, 29879, Note_on_c, 0, 78, 0
1, 29879, Note_on_c, 0, 72, 0
1, 29880, Note_on_c, 0, 72, 71
1, 29880, Note_on_c, 0, 69, 71
1, 29901, Note_on_c, 1, 43, 0
1, 29901, Note_on_c, 1, 31, 0
1, 29903, Note_on_c, 0, 72, 0
1, 29903, Note_on_c, 0, 69, 0
1, 29904, Note_on_c, 0, 72, 72
1, 29904, Note_on_c, 0, 69, 72
1, 29904, Note_on_c, 1, 43, 72
1, 29904, Note_on_c, 1, 31, 72
1, 29927, Note_on_c, 0, 72, 0
1, 29927, Note_on_c, 0, 69, 0
1, 29928, Note_on_c, 0, 78, 73
1, 29928, Note_on_c, 0, 72, 73
1, 29949, Note_on_c, 1, 43, 0
1, 29949, Note_on_c, 1, 31, 0
1, 29951, Note_on_c, 0, 78, 0
1, 29951, Note_on_c, 0, 72, 0
1, 29952, Note_on_c, 0, 79, 73
1, 29952, Note_on_c, 0, 74, 73
1, 29952, Note_on_c, 1, 43, 73
1, 29952, Note_on_c, 1, 31, 73
1, 29975, Note_on_c, 0, 79, 0
1, 29975, Note_on_c, 0, 74, 0
1, 29976, Note_on_c, 0, 74, 74
1, 29976, Note_on_c, 0, 71, 74
1, 29997, Note_on_c, 1, 43, 0
1, 29997, Note_on_c, 1, 31, 0
1, 29999, Note_on_c, 0, 74, 0
1, 29999, Note_on_c, 0, 71, 0
1, 30000, Note_on_c, 0, 74, 75
1, 30000, Note_on_c, 0, 71, 75
1, 30000, Note_on_c, 1, 43, 75
1, 30000, Note_on_c, 1, 31, 75
1, 30023, Note_on_c, 0, 74, 0
1, 30023, Note_on_c, 0, 71, 0
1, 30024, Note_on_c, 0, 79, 75
1, 30024, Note_on_c, 0, 74, 75
1, 30045, Note_on_c, 1, 43, 0
1, 30045, Note_on_c, 1, 31, 0
1, 30047, Note_on_c, 0, 79, 0
1, 30047, Note_on_c, 0, 74, 0
1, 30048, Note_on_c, 0, 80, 76
1, 30048, Note_on_c, 0, 77, 76
1, 30048, Note_on_c, 1, 43, 76
1, 30048, Note_on_c, 1, 31, 76
1, 30071, Note_on_c, 0, 80, 0
1, 30071, Note_on_c, 0, 77, 0
1, 30072, Note_on_c, 0, 77, 76
1, 30072, Note_on_c, 0, 74, 76
1, 30093, Note_on_c, 1, 43, 0
1, 30093, Note_on_c, 1, 31, 0
1, 30095, Note_on_c, 0, 77, 0
1, 30095, Note_on_c, 0, 74, 0
1, 30096, Note_on_c, 0, 77, 77
1, 30096, Note_on_c, 0, 74, 77
1, 30096, Note_on_c, 1, 43, 77
1, 30096, Note_on_c, 1, 31, 77
1, 30119, Note_on_c, 0, 77, 0
1, 30119, Note_on_c, 0, 74, 0
1, 30120, Note_on_c, 0, 80, 78
1, 30120, Note_on_c, 0, 77, 78
1, 30141, Note_on_c, 1, 43, 0
1, 30141, Note_on_c, 1, 31, 0
1, 30143, Note_on_c, 0, 80, 0
1, 30143, Note_on_c, 0, 77, 0
1, 30144, Note_on_c, 0, 83, 78
1, 30144, Note_on_c, 0, 77, 78
1, 30144, Note_on_c, 1, 43, 78
1, 30144, Note_on_c, 1, 31, 78
1, 30167, Note_on_c, 0, 83, 0
1, 30167, Note_on_c, 0, 77, 0
1, 30168, Note_on_c, 0, 77, 79
1, 30168, Note_on_c, 0, 74, 79
1, 30189, Note_on_c, 1, 43, 0
1, 30189, Note_on_c, 1, 31, 0
1, 30191, Note_on_c, 0, 77, 0
1, 30191, Note_on_c, 0, 74, 0
1, 30192, Note_on_c, 0, 77, 79
1, 30192, Note_on_c, 0, 74, 79
1, 30192, Note_on_c, 1, 43, 79
1, 30192, Note_on_c, 1, 31, 79
1, 30215, Note_on_c, 0, 77, 0
1, 30215, Note_on_c, 0, 74, 0
1, 30216, Note_on_c, 0, 83, 80
1, 30216, Note_on_c, 0, 77, 80
1, 30237, Note_on_c, 1, 43, 0
1, 30237, Note_on_c, 1, 31, 0
1, 30239, Note_on_c, 0, 83, 0
1, 30239, Note_on_c, 0, 77, 0
1, 30240, Note_on_c, 0, 84, 81
1, 30240, Note_on_c, 0, 79, 81
1, 30240, Note_on_c, 1, 43, 81
1, 30240, Note_on_c, 1, 31, 81
1, 30263, Note_on_c, 0, 84, 0
1, 30263, Note_on_c, 0, 79, 0
1, 30264, Note_on_c, 0, 79, 81
1, 30264, Note_on_c, 0, 75, 81
1, 30285, Note_on_c, 1, 43, 0
1, 30285, Note_on_c, 1, 31, 0
1, 30287, Note_on_c, 0, 79, 0
1, 30287, Note_on_c, 0, 75, 0
1, 30288, Note_on_c, 0, 79, 82
1, 30288, Note_on_c, 0, 75, 82
1, 30288, Note_on_c, 1, 43, 82
1, 30288, Note_on_c, 1, 31, 82
1, 30311, Note_on_c, 0, 79, 0
1, 30311, Note_on_c, 0, 75, 0
1, 30312, Note_on_c, 0, 84, 82
1, 30312, Note_on_c, 0, 79, 82
1, 30333, Note_on_c, 1, 43, 0
1, 30333, Note_on_c, 1, 31, 0
1, 30335, Note_on_c, 0, 84, 0
1, 30335, Note_on_c, 0, 79, 0
1, 30336, Note_on_c, 0, 86, 83
1, 30336, Note_on_c, 0, 83, 83
1, 30336, Note_on_c, 1, 43, 83
1, 30336, Note_on_c, 1, 31, 83
1, 30359, Note_on_c, 0, 86, 0
1, 30359, Note_on_c, 0, 83, 0
1, 30360, Note_on_c, 0, 83, 84
1, 30360, Note_on_c, 0, 79, 84
1, 30381, Note_on_c, 1, 43, 0
1, 30381, Note_on_c, 1, 31, 0
1, 30383, Note_on_c, 0, 83, 0
1, 30383, Note_on_c, 0, 79, 0
1, 30384, Note_on_c, 0, 83, 84
1, 30384, Note_on_c, 0, 79, 84
1, 30384, Note_on_c, 1, 43, 84
1, 30384, Note_on_c, 1, 31, 84
1, 30407, Note_on_c, 0, 83, 0
1, 30407, Note_on_c, 0, 79, 0
1, 30408, Note_on_c, 0, 86, 85
1, 30408, Note_on_c, 0, 83, 85
1, 30429, Note_on_c, 1, 43, 0
1, 30429, Note_on_c, 1, 31, 0
1, 30431, Note_on_c, 0, 86, 0
1, 30431, Note_on_c, 0, 83, 0
1, 30432, Note_on_c, 0, 87, 86
1, 30432, Note_on_c, 1, 42, 86
1, 30432, Note_on_c, 1, 30, 86
1, 30521, Note_on_c, 1, 42, 0
1, 30521, Note_on_c, 1, 30, 0
1, 30528, Tempo, 1500000
1, 30551, Note_on_c, 0, 87, 0
1, 30552, Note_on_c, 0, 86, 86
1, 30575, Note_on_c, 0, 86, 0
1, 30576, Note_on_c, 0, 84, 86
1, 30599, Note_on_c, 0, 84, 0
1, 30600, Note_on_c, 0, 82, 86
1, 30623, Note_on_c, 0, 82, 0
1, 30624, Note_on_c, 0, 81, 86
1, 30647, Note_on_c, 0, 81, 0
1, 30648, Note_on_c, 0, 79, 86
1, 30671, Note_on_c, 0, 79, 0
1, 30672, Note_on_c, 0, 78, 86
1, 30695, Note_on_c, 0, 78, 0
1, 30696, Note_on_c, 0, 79, 86
1, 30719, Note_on_c, 0, 79, 0
1, 30720, Note_on_c, 0, 82, 86
1, 30720, Note_on_c, 0, 79, 86
1, 30720, Note_on_c, 1, 49, 86
1, 30720, Note_on_c, 1, 37, 86
1, 30759, Note_on_c, 0, 82, 0
1, 30759, Note_on_c, 0, 79, 0
1, 30759, Note_on_c, 1, 49, 0
1, 30759, Note_on_c, 1, 37, 0
1, 30816, Note_on_c, 0, 81, 86
1, 30816, Note_on_c, 0, 78, 86
1, 30816, Note_on_c, 1, 50, 86
1, 30816, Note_on_c, 1, 38, 86
1, 30855, Note_on_c, 0, 81, 0
1, 30855, Note_on_c, 0, 78, 0
1, 30855, Note_on_c, 1, 50, 0
1, 30855, Note_on_c, 1, 38, 0
1, 31008, Tempo, 1090909
1, 31008, Note_on_c, 0, 65, 75
1, 31008, Note_on_c, 0, 62, 75
1, 31008, Note_on_c, 1, 46, 75
1, 31097, Note_on_c, 0, 65, 0
1, 31097, Note_on_c, 0, 62, 0
1, 31097, Note_on_c, 1, 46, 0
1, 31104, Note_on_c, 0, 70, 75
1, 31104, Note_on_c, 0, 67, 75
1, 31193, Note_on_c, 0, 70, 0
1, 31193, Note_on_c, 0, 67, 0
1, 31200, Note_on_c, 0, 69, 75
1, 31200, Note_on_c, 0, 65, 75
1, 31289, Note_on_c, 0, 69, 0
1, 31289, Note_on_c, 0, 65, 0
1, 31296, Note_on_c, 0, 67, 75
1, 31296, Note_on_c, 0, 63, 75
1, 31335, Note_on_c, 0, 67, 0
1, 31335, Note_on_c, 0, 63, 0
1, 31392, Note_on_c, 0, 65, 75
1, 31392, Note_on_c, 0, 62, 75
1, 31431, Note_on_c, 0, 65, 0
1, 31431, Note_on_c, 0, 62, 0
1, 31584, Note_on_c, 0, 77, 64
1, 31584, Note_on_c, 0, 74, 64
1, 31584, Note_on_c, 1, 58, 64
1, 31673, Note_on_c, 0, 77, 0
1, 31673, Note_on_c, 0, 74, 0
1, 31680, Note_on_c, 0, 79, 64
1, 31680, Note_on_c, 0, 75, 64
1, 31725, Note_on_c, 0, 79, 0
1, 31725, Note_on_c, 0, 75, 0
1, 31728, Note_on_c, 0, 80, 64
1, 31728, Note_on_c, 0, 77, 64
1, 31761, Note_on_c, 1, 58, 0
1, 31776, Note_on_c, 1, 63, 64
1, 31865, Note_on_c, 0, 80, 0
1, 31865, Note_on_c, 0, 77, 0
1, 31872, Note_on_c, 0, 79, 64
1, 31872, Note_on_c, 0, 75, 64
1, 32049, Note_on_c, 0, 79, 0
1, 32049, Note_on_c, 0, 75, 0
1, 32049, Note_on_c, 1, 63, 0
1, 32160, Note_on_c, 0, 82, 75
1, 32160, Note_on_c, 0, 79, 75
1, 32160, Note_on_c, 1, 75, 75
1, 32249, Note_on_c, 0, 82, 0
1, 32249, Note_on_c, 0, 79, 0
1, 32256, Note_on_c, 0, 84, 76
1, 32256, Note_on_c, 0, 80, 76
1, 32301, Note_on_c, 0, 84, 0
1, 32301, Note_on_c, 0, 80, 0
1, 32304, Note_on_c, 0, 85, 77
1, 32304, Note_on_c, 0, 82, 77
1, 32349, Note_on_c, 0, 85, 0
1, 32349, Note_on_c, 0, 82, 0
1, 32352, Note_on_c, 0, 87, 78
1, 32352, Note_on_c, 0, 84, 64
1, 32352, Note_on_c, 1, 75, 0
1, 32352, Note_on_c, 1, 76, 78
1, 32370, Note_on_c, 0, 87, 0
1, 32370, Note_on_c, 0, 85, 78
1, 32370, Note_on_c, 0, 84, 0
1, 32370, Note_on_c, 0, 82, 64
1, 32441, Note_on_c, 0, 85, 0
1, 32441, Note_on_c, 0, 82, 0
1, 32441, Note_on_c, 1, 76, 0
1, 32448, Note_on_c, 0, 84, 70
1, 32448, Note_on_c, 0, 80, 70
1, 32448, Note_on_c, 1, 77, 80
1, 32635, Note_on_c, 0, 84, 0
1, 32635, Note_on_c, 0, 80, 0
1, 32635, Note_on_c, 1, 77, 0
1, 32736, Note_on_c, 0, 70, 75
1, 32781, Note_on_c, 0, 70, 0
1, 32784, Note_on_c, 0, 77, 75
1, 32832, Note_on_c, 1, 61, 70
1, 32855, Note_on_c, 0, 77, 0
1, 32856, Note_on_c, 0, 75, 75
1, 32871, Note_on_c, 1, 61, 0
1, 32879, Note_on_c, 0, 75, 0
1, 32880, Note_on_c, 0, 73, 75
1, 32928, Note_on_c, 1, 58, 70
1, 32947, Note_on_c, 0, 73, 0
1, 32952, Note_on_c, 0, 72, 75
1, 32967, Note_on_c, 1, 58, 0
1, 32975, Note_on_c, 0, 72, 0
1, 32976, Note_on_c, 0, 70, 75
1, 32999, Note_on_c, 0, 70, 0
1, 33000, Note_on_c, 0, 68, 75
1, 33023, Note_on_c, 0, 68, 0
1, 33024, Note_on_c, 0, 67, 75
1, 33024, Note_on_c, 1, 51, 70
1, 33069, Note_on_c, 0, 67, 0
1, 33072, Note_on_c, 0, 75, 75
1, 33113, Note_on_c, 1, 51, 0
1, 33120, Note_on_c, 1, 60, 70
1, 33143, Note_on_c, 0, 75, 0
1, 33144, Note_on_c, 0, 73, 75
1, 33159, Note_on_c, 1, 60, 0
1, 33167, Note_on_c, 0, 73, 0
1, 33168, Note_on_c, 0, 72, 75
1, 33216, Note_on_c, 1, 56, 70
1, 33235, Note_on_c, 0, 72, 0
1, 33240, Note_on_c, 0, 70, 75
1, 33255, Note_on_c, 1, 56, 0
1, 33263, Note_on_c, 0, 70, 0
1, 33264, Note_on_c, 0, 68, 75
1, 33287, Note_on_c, 0, 68, 0
1, 33288, Note_on_c, 0, 67, 75
1, 33311, Note_on_c, 0, 67, 0
1, 33312, Note_on_c, 0, 65, 75
1, 33312, Note_on_c, 1, 49, 70
1, 33318, Note_on_c, 0, 65, 0
1, 33318, Note_on_c, 0, 67, 75
1, 33324, Note_on_c, 0, 67, 0
1, 33324, Note_on_c, 0, 65, 75
1, 33357, Note_on_c, 0, 65, 0
1, 33357, Note_on_c, 1, 49, 0
1, 33360, Note_on_c, 0, 73, 74
1, 33360, Note_on_c, 1, 49, 70
1, 33383, Note_on_c, 0, 73, 0
1, 33384, Note_on_c, 0, 72, 73
1, 33405, Note_on_c, 1, 49, 0
1, 33407, Note_on_c, 0, 72, 0
1, 33408, Note_on_c, 0, 70, 73
1, 33408, Note_on_c, 1, 49, 70
1, 33431, Note_on_c, 0, 70, 0
1, 33432, Note_on_c, 0, 68, 72
1, 33453, Note_on_c, 1, 49, 0
1, 33455, Note_on_c, 0, 68, 0
1, 33456, Note_on_c, 0, 67, 72
1, 33456, Note_on_c, 1, 49, 70
1, 33479, Note_on_c, 0, 67, 0
1, 33480, Note_on_c, 0, 65, 72
1, 33501, Note_on_c, 1, 49, 0
1, 33503, Note_on_c, 0, 65, 0
1, 33504, Note_on_c, 0, 63, 71
1, 33504, Note_on_c, 1, 51, 70
1, 33527, Note_on_c, 0, 63, 0
1, 33528, Note_on_c, 0, 67, 71
1, 33549, Note_on_c, 1, 51, 0
1, 33551, Note_on_c, 0, 67, 0
1, 33552, Note_on_c, 0, 68, 70
1, 33552, Note_on_c, 1, 51, 70
1, 33575, Note_on_c, 0, 68, 0
1, 33576, Note_on_c, 0, 60, 70
1, 33597, Note_on_c, 1, 51, 0
1, 33599, Note_on_c, 0, 60, 0
1, 33600, Note_on_c, 0, 63, 70
1, 33600, Note_on_c, 0, 60, 64
1, 33600, Note_on_c, 1, 51, 70
1, 33645, Note_on_c, 1, 51, 0
1, 33648, Note_on_c, 1, 51, 71
1, 33689, Note_on_c, 0, 63, 0
1, 33689, Note_on_c, 0, 60, 0
1, 33693, Note_on_c, 1, 51, 0
1, 33696, Note_on_c, 0, 61, 67
1, 33696, Note_on_c, 0, 58, 64
1, 33696, Note_on_c, 1, 52, 72
1, 33702, Note_on_c, 0, 61, 0
1, 33702, Note_on_c, 0, 63, 67
1, 33708, Note_on_c, 0, 63, 0
1, 33708, Note_on_c, 0, 61, 67
1, 33719, Note_on_c, 0, 61, 0
1, 33720, Note_on_c, 0, 60, 67
1, 33741, Note_on_c, 1, 52, 0
1, 33743, Note_on_c, 0, 60, 0
1, 33744, Note_on_c, 0, 61, 66
1, 33744, Note_on_c, 1, 52, 73
1, 33785, Note_on_c, 0, 58, 0
1, 33789, Note_on_c, 0, 61, 0
1, 33789, Note_on_c, 1, 52, 0
1, 33792, Note_on_c, 0, 60, 65
1, 33792, Note_on_c, 0, 56, 64
1, 33792, Note_on_c, 1, 53, 75
1, 33839, Note_on_c, 0, 60, 0
1, 33840, Note_on_c, 0, 68, 80
1, 33846, Note_on_c, 0, 68, 0
1, 33846, Note_on_c, 0, 70, 80
1, 33852, Note_on_c, 0, 70, 0
1, 33852, Note_on_c, 0, 68, 80
1, 33886, Note_on_c, 0, 56, 0
1, 33886, Note_on_c, 1, 53, 0
1, 33888, Note_on_c, 1, 58, 75
1, 33888, Note_on_c, 1, 53, 75
1, 33888, Note_on_c, 1, 50, 75
1, 33900, Note_on_c, 0, 68, 0
1, 33900, Note_on_c, 0, 67, 64
1, 33912, Note_on_c, 0, 67, 0
1, 33912, Note_on_c, 0, 65, 64
1, 33924, Note_on_c, 0, 65, 0
1, 33924, Note_on_c, 0, 63, 64
1, 33936, Note_on_c, 0, 63, 0
1, 33936, Note_on_c, 0, 62, 64
1, 34021, Note_on_c, 1, 58, 0
1, 34021, Note_on_c, 1, 53, 0
1, 34021, Note_on_c, 1, 50, 0
1, 34025, Note_on_c, 0, 62, 0
1, 34104, Note_on_c, 0, 72, 75
1, 34104, Note_on_c, 0, 68, 75
1, 34104, Note_on_c, 1, 50, 75
1, 34104, Note_on_c, 1, 46, 75
1, 34127, Note_on_c, 0, 72, 0
1, 34127, Note_on_c, 0, 68, 0
1, 34127, Note_on_c, 1, 50, 0
1, 34127, Note_on_c, 1, 46, 0
1, 34128, Note_on_c, 0, 70, 75
1, 34128, Note_on_c, 0, 67, 75
1, 34128, Note_on_c, 1, 51, 75
1, 34128, Note_on_c, 1, 48, 75
1, 34151, Note_on_c, 0, 70, 0
1, 34151, Note_on_c, 0, 67, 0
1, 34151, Note_on_c, 1, 51, 0
1, 34151, Note_on_c, 1, 48, 0
1, 34152, Note_on_c, 0, 68, 75
1, 34152, Note_on_c, 0, 65, 75
1, 34152, Note_on_c, 1, 53, 75
1, 34152, Note_on_c, 1, 50, 75
1, 34175, Note_on_c, 0, 68, 0
1, 34175, Note_on_c, 0, 65, 0
1, 34175, Note_on_c, 1, 53, 0
1, 34175, Note_on_c, 1, 50, 0
1, 34176, Note_on_c, 0, 67, 75
1, 34176, Note_on_c, 0, 63, 75
1, 34176, Note_on_c, 1, 55, 75
1, 34176, Note_on_c, 1, 51, 75
1, 34199, Note_on_c, 0, 67, 0
1, 34199, Note_on_c, 0, 63, 0
1, 34200, Note_on_c, 0, 82, 75
1, 34200, Note_on_c, 0, 79, 75
1, 34221, Note_on_c, 1, 55, 0
1, 34221, Note_on_c, 1, 51, 0
1, 34223, Note_on_c, 0, 82, 0
1, 34223, Note_on_c, 0, 79, 0
1, 34224, Note_on_c, 0, 80, 75
1, 34224, Note_on_c, 0, 77, 75
1, 34247, Note_on_c, 0, 80, 0
1, 34247, Note_on_c, 0, 77, 0
1, 34248, Note_on_c, 0, 79, 75
1, 34248, Note_on_c, 0, 75, 75
1, 34271, Note_on_c, 0, 79, 0
1, 34271, Note_on_c, 0, 75, 0
1, 34272, Note_on_c, 0, 77, 75
1, 34272, Note_on_c, 0, 74, 75
1, 34295, Note_on_c, 0, 77, 0
1, 34295, Note_on_c, 0, 74, 0
1, 34296, Note_on_c, 0, 75, 76
1, 34296, Note_on_c, 0, 72, 76
1, 34319, Note_on_c, 0, 75, 0
1, 34319, Note_on_c, 0, 72, 0
1, 34320, Note_on_c, 0, 74, 76
1, 34320, Note_on_c, 0, 70, 76
1, 34343, Note_on_c, 0, 74, 0
1, 34343, Note_on_c, 0, 70, 0
1, 34344, Note_on_c, 0, 72, 76
1, 34344, Note_on_c, 0, 68, 76
1, 34367, Note_on_c, 0, 72, 0
1, 34367, Note_on_c, 0, 68, 0
1, 34368, Note_on_c, 0, 70, 76
1, 34368, Note_on_c, 0, 67, 76
1, 34391, Note_on_c, 0, 70, 0
1, 34391, Note_on_c, 0, 67, 0
1, 34392, Note_on_c, 0, 68, 77
1, 34392, Note_on_c, 0, 65, 77
1, 34415, Note_on_c, 0, 68, 0
1, 34415, Note_on_c, 0, 65, 0
1, 34416, Note_on_c, 0, 67, 77
1, 34416, Note_on_c, 0, 63, 77
1, 34439, Note_on_c, 0, 67, 0
1, 34439, Note_on_c, 0, 63, 0
1, 34440, Note_on_c, 0, 65, 77
1, 34440, Note_on_c, 0, 62, 77
1, 34463, Note_on_c, 0, 65, 0
1, 34463, Note_on_c, 0, 62, 0
1, 34464, Note_on_c, 0, 63, 77
1, 34464, Note_on_c, 0, 60, 77
1, 34487, Note_on_c, 0, 63, 0
1, 34487, Note_on_c, 0, 60, 0
1, 34488, Note_on_c, 0, 62, 78
1, 34488, Note_on_c, 0, 58, 78
1, 34511, Note_on_c, 0, 62, 0
1, 34511, Note_on_c, 0, 58, 0
1, 34512, Note_on_c, 0, 60, 78
1, 34512, Note_on_c, 0, 56, 78
1, 34535, Note_on_c, 0, 60, 0
1, 34535, Note_on_c, 0, 56, 0
1, 34536, Note_on_c, 0, 58, 78
1, 34536, Note_on_c, 0, 55, 78
1, 34559, Note_on_c, 0, 58, 0
1, 34559, Note_on_c, 0, 55, 0
1, 34560, Note_on_c, 0, 56, 78
1, 34560, Note_on_c, 1, 56, 75
1, 34560, Note_on_c, 1, 53, 75
1, 34572, Note_on_c, 0, 56, 0
1, 34572, Note_on_c, 0, 68, 94
1, 34583, Note_on_c, 1, 56, 0
1, 34583, Note_on_c, 1, 53, 0
1, 34584, Note_on_c, 1, 55, 75
1, 34584, Note_on_c, 1, 51, 75
1, 34607, Note_on_c, 1, 55, 0
1, 34607, Note_on_c, 1, 51, 0
1, 34608, Note_on_c, 1, 53, 76
1, 34608, Note_on_c, 1, 50, 76
1, 34631, Note_on_c, 1, 53, 0
1, 34631, Note_on_c, 1, 50, 0
1, 34632, Note_on_c, 1, 51, 77
1, 34632, Note_on_c, 1, 48, 77
1, 34655, Note_on_c, 1, 51, 0
1, 34655, Note_on_c, 1, 48, 0
1, 34656, Note_on_c, 1, 50, 78
1, 34656, Note_on_c, 1, 38, 78
1, 34679, Note_on_c, 0, 68, 0
1, 34679, Note_on_c, 1, 50, 0
1, 34679, Note_on_c, 1, 38, 0
1, 34680, Note_on_c, 0, 87, 80
1, 34680, Note_on_c, 0, 75, 80
1, 34680, Note_on_c, 1, 48, 79
1, 34680, Note_on_c, 1, 36, 79
1, 34703, Note_on_c, 0, 87, 0
1, 34703, Note_on_c, 0, 75, 0
1, 34703, Note_on_c, 1, 48, 0
1, 34703, Note_on_c, 1, 36, 0
1, 34704, Note_on_c, 0, 86, 80
1, 34704, Note_on_c, 0, 74, 80
1, 34704, Note_on_c, 1, 46, 80
1, 34704, Note_on_c, 1, 34, 80
1, 34727, Note_on_c, 0, 86, 0
1, 34727, Note_on_c, 0, 74, 0
1, 34727, Note_on_c, 1, 46, 0
1, 34727, Note_on_c, 1, 34, 0
1, 34728, Note_on_c, 0, 84, 80
1, 34728, Note_on_c, 0, 72, 80
1, 34728, Note_on_c, 1, 44, 80
1, 34728, Note_on_c, 1, 32, 80
1, 34751, Note_on_c, 0, 84, 0
1, 34751, Note_on_c, 0, 72, 0
1, 34751, Note_on_c, 1, 44, 0
1, 34751, Note_on_c, 1, 32, 0
1, 34752, Note_on_c, 0, 82, 80
1, 34752, Note_on_c, 0, 70, 80
1, 34752, Note_on_c, 1, 43, 80
1, 34752, Note_on_c, 1, 31, 80
1, 34775, Note_on_c, 0, 82, 0
1, 34775, Note_on_c, 0, 70, 0
1, 34776, Note_on_c, 0, 83, 75
1, 34797, Note_on_c, 1, 43, 0
1, 34797, Note_on_c, 1, 31, 0
1, 34800, Note_on_c, 0, 83, 0
1, 34800, Note_on_c, 0, 84, 75
1, 34800, Note_on_c, 1, 52, 75
1, 34800, Note_on_c, 1, 40, 75
1, 34823, Note_on_c, 0, 84, 0
1, 34824, Note_on_c, 0, 79, 75
1, 34845, Note_on_c, 1, 52, 0
1, 34845, Note_on_c, 1, 40, 0
1, 34848, Note_on_c, 0, 79, 0
1, 34848, Note_on_c, 0, 80, 75
1, 34848, Note_on_c, 1, 53, 75
1, 34848, Note_on_c, 1, 41, 75
1, 34871, Note_on_c, 0, 80, 0
1, 34872, Note_on_c, 0, 81, 75
1, 34893, Note_on_c, 1, 53, 0
1, 34893, Note_on_c, 1, 41, 0
1, 34896, Note_on_c, 0, 81, 0
1, 34896, Note_on_c, 0, 82, 75
1, 34896, Note_on_c, 1, 50, 75
1, 34896, Note_on_c, 1, 38, 75
1, 34919, Note_on_c, 0, 82, 0
1, 34920, Note_on_c, 0, 77, 75
1, 34941, Note_on_c, 1, 50, 0
1, 34941, Note_on_c, 1, 38, 0
1, 34944, Note_on_c, 0, 77, 0
1, 34944, Note_on_c, 0, 78, 75
1, 34944, Note_on_c, 1, 51, 75
1, 34944, Note_on_c, 1, 39, 75
1, 34967, Note_on_c, 0, 78, 0
1, 34968, Note_on_c, 0, 79, 76
1, 34989, Note_on_c, 1, 51, 0
1, 34989, Note_on_c, 1, 39, 0
1, 34991, Note_on_c, 0, 79, 0
1, 34992, Note_on_c, 0, 72, 77
1, 34992, Note_on_c, 1, 44, 77
1, 34992, Note_on_c, 1, 32, 77
1, 35015, Note_on_c, 0, 72, 0
1, 35016, Note_on_c, 0, 80, 78
1, 35037, Note_on_c, 1, 44, 0
1, 35037, Note_on_c, 1, 32, 0
1, 35039, Note_on_c, 0, 80, 0
1, 35040, Tempo, 1132075
1, 35040, Note_on_c, 0, 75, 80
1, 35040, Note_on_c, 0, 67, 80
1, 35040, Note_on_c, 1, 46, 80
1, 35063, Note_on_c, 0, 75, 0
1, 35063, Note_on_c, 0, 67, 0
1, 35063, Note_on_c, 1, 46, 0
1, 35064, Tempo, 1250000
1, 35064, Note_on_c, 0, 75, 80
1, 35064, Note_on_c, 0, 67, 80
1, 35064, Note_on_c, 1, 47, 80
1, 35087, Note_on_c, 1, 47, 0
1, 35088, Note_on_c, 1, 48, 80
1, 35109, Note_on_c, 0, 75, 0
1, 35109, Note_on_c, 0, 67, 0
1, 35111, Note_on_c, 1, 48, 0
1, 35112, Tempo, 1395348
1, 35112, Note_on_c, 0, 75, 80
1, 35112, Note_on_c, 0, 67, 80
1, 35112, Note_on_c, 1, 43, 80
1, 35135, Note_on_c, 1, 43, 0
1, 35136, Note_on_c, 1, 44, 80
1, 35157, Note_on_c, 0, 75, 0
1, 35157, Note_on_c, 0, 67, 0
1, 35159, Note_on_c, 1, 44, 0
1, 35160, Tempo, 2000000
1, 35160, Note_on_c, 0, 75, 80
1, 35160, Note_on_c, 0, 67, 80
1, 35160, Note_on_c, 1, 45, 80
1, 35183, Note_on_c, 0, 75, 0
1, 35183, Note_on_c, 0, 67, 0
1, 35183, Note_on_c, 1, 45, 0
1, 35184, Tempo, 1395348
1, 35184, Note_on_c, 0, 75, 80
1, 35184, Note_on_c, 0, 67, 80
1, 35184, Note_on_c, 1, 46, 80
1, 35317, Note_on_c, 0, 75, 0
1, 35317, Note_on_c, 0, 67, 0
1, 35317, Note_on_c, 1, 46, 0
1, 35328, Tempo, 1090909
1, 35328, Note_on_c, 0, 87, 75
1, 35351, Note_on_c, 0, 87, 0
1, 35352, Note_on_c, 0, 84, 75
1, 35375, Note_on_c, 0, 84, 0
1, 35376, Note_on_c, 0, 82, 75
1, 35399, Note_on_c, 0, 82, 0
1, 35400, Note_on_c, 0, 80, 75
1, 35423, Note_on_c, 0, 80, 0
1, 35424, Note_on_c, 0, 79, 75
1, 35447, Note_on_c, 0, 79, 0
1, 35448, Note_on_c, 0, 87, 75
1, 35471, Note_on_c, 0, 87, 0
1, 35472, Note_on_c, 0, 83, 75
1, 35496, Note_on_c, 0, 83, 0
1, 35496, Note_on_c, 0, 84, 75
1, 35519, Note_on_c, 0, 84, 0
1, 35520, Note_on_c, 0, 77, 75
1, 35543, Note_on_c, 0, 77, 0
1, 35544, Note_on_c, 0, 79, 75
1, 35567, Note_on_c, 0, 79, 0
1, 35568, Note_on_c, 0, 80, 75
1, 35591, Note_on_c, 0, 80, 0
1, 35592, Note_on_c, 0, 77, 75
1, 35615, Note_on_c, 0, 77, 0
1, 35616, Note_on_c, 0, 79, 75
1, 35616, Note_on_c, 1, 75, 75
1, 35639, Note_on_c, 1, 75, 0
1, 35640, Note_on_c, 1, 72, 75
1, 35661, Note_on_c, 0, 79, 0
1, 35663, Note_on_c, 1, 72, 0
1, 35664, Note_on_c, 0, 87, 91
1, 35664, Note_on_c, 1, 70, 75
1, 35687, Note_on_c, 1, 70, 0
1, 35688, Note_on_c, 1, 68, 75
1, 35711, Note_on_c, 1, 68, 0
1, 35712, Note_on_c, 1, 67, 75
1, 35735, Note_on_c, 0, 87, 0
1, 35735, Note_on_c, 1, 67, 0
1, 35736, Note_on_c, 0, 79, 75
1, 35736, Note_on_c, 1, 75, 75
1, 35759, Note_on_c, 0, 79, 0
1, 35759, Note_on_c, 1, 75, 0
1, 35760, Note_on_c, 0, 74, 75
1, 35760, Note_on_c, 1, 71, 75
1, 35784, Note_on_c, 0, 74, 0
1, 35784, Note_on_c, 0, 75, 75
1, 35784, Note_on_c, 1, 71, 0
1, 35784, Note_on_c, 1, 72, 75
1, 35807, Note_on_c, 0, 75, 0
1, 35807, Note_on_c, 1, 72, 0
1, 35808, Note_on_c, 0, 80, 75
1, 35808, Note_on_c, 0, 79, 75
1, 35808, Note_on_c, 0, 72, 75
1, 35808, Note_on_c, 1, 65, 75
1, 35831, Note_on_c, 1, 65, 0
1, 35832, Note_on_c, 1, 67, 75
1, 35853, Note_on_c, 0, 80, 0
1, 35853, Note_on_c, 0, 79, 0
1, 35853, Note_on_c, 0, 72, 0
1, 35855, Note_on_c, 1, 67, 0
1, 35856, Note_on_c, 0, 80, 75
1, 35856, Note_on_c, 0, 77, 75
1, 35856, Note_on_c, 0, 72, 75
1, 35856, Note_on_c, 1, 68, 75
1, 35879, Note_on_c, 1, 68, 0
1, 35880, Note_on_c, 1, 67, 75
1, 35903, Note_on_c, 1, 67, 0
1, 35904, Note_on_c, 1, 65, 75
1, 35927, Note_on_c, 1, 65, 0
1, 35928, Note_on_c, 1, 67, 75
1, 35949, Note_on_c, 0, 80, 0
1, 35949, Note_on_c, 0, 77, 0
1, 35949, Note_on_c, 0, 72, 0
1, 35951, Note_on_c, 1, 67, 0
1, 35952, Note_on_c, 0, 80, 75
1, 35952, Note_on_c, 0, 77, 75
1, 35952, Note_on_c, 0, 72, 75
1, 35952, Note_on_c, 1, 68, 75
1, 35975, Note_on_c, 1, 68, 0
1, 35976, Note_on_c, 1, 67, 75
1, 35999, Note_on_c, 1, 67, 0
1, 36000, Note_on_c, 1, 65, 75
1, 36023, Note_on_c, 1, 65, 0
1, 36024, Note_on_c, 1, 67, 75
1, 36041, Note_on_c, 0, 80, 0
1, 36041, Note_on_c, 0, 77, 0
1, 36041, Note_on_c, 0, 72, 0
1, 36047, Note_on_c, 1, 67, 0
1, 36048, Note_on_c, 0, 80, 75
1, 36048, Note_on_c, 0, 77, 75
1, 36048, Note_on_c, 0, 72, 75
1, 36048, Note_on_c, 1, 68, 75
1, 36071, Note_on_c, 1, 68, 0
1, 36072, Note_on_c, 1, 65, 75
1, 36095, Note_on_c, 1, 65, 0
1, 36096, Note_on_c, 1, 63, 75
1, 36119, Note_on_c, 1, 63, 0
1, 36120, Note_on_c, 1, 67, 75
1, 36137, Note_on_c, 0, 80, 0
1, 36137, Note_on_c, 0, 77, 0
1, 36137, Note_on_c, 0, 72, 0
1, 36143, Note_on_c, 1, 67, 0
1, 36144, Tempo, 1200000
1, 36144, Note_on_c, 0, 80, 75
1, 36144, Note_on_c, 0, 77, 75
1, 36144, Note_on_c, 0, 72, 75
1, 36144, Note_on_c, 1, 68, 75
1, 36167, Note_on_c, 1, 68, 0
1, 36168, Note_on_c, 1, 63, 75
1, 36189, Note_on_c, 0, 80, 0
1, 36189, Note_on_c, 0, 77, 0
1, 36189, Note_on_c, 0, 72, 0
1, 36191, Note_on_c, 1, 63, 0
1, 36192, Note_on_c, 0, 74, 75
1, 36192, Note_on_c, 1, 62, 75
1, 36198, Note_on_c, 1, 65, 75
1, 36200, Note_on_c, 0, 77, 75
1, 36204, Note_on_c, 1, 68, 75
1, 36208, Note_on_c, 0, 80, 75
1, 36210, Note_on_c, 1, 74, 75
1, 36240, Tempo, 3000000
1, 36263, Note_on_c, 0, 80, 0
1, 36263, Note_on_c, 0, 77, 0
1, 36263, Note_on_c, 0, 74, 0
1, 36263, Note_on_c, 1, 74, 0
1, 36263, Note_on_c, 1, 68, 0
1, 36263, Note_on_c, 1, 65, 0
1, 36263, Note_on_c, 1, 62, 0
1, 36264, Tempo, 1090909
1, 36264, Note_on_c, 0, 77, 75
1, 36287, Note_on_c, 0, 77, 0
1, 36288, Note_on_c, 0, 79, 75
1, 36288, Note_on_c, 1, 63, 75
1, 36303, Note_on_c, 0, 79, 0
1, 36304, Note_on_c, 0, 77, 75
1, 36319, Note_on_c, 0, 77, 0
1, 36320, Note_on_c, 0, 79, 75
1, 36333, Note_on_c, 1, 63, 0
1, 36335, Note_on_c, 0, 79, 0
1, 36336, Note_on_c, 0, 80, 75
1, 36336, Note_on_c, 1, 56, 75
1, 36351, Note_on_c, 0, 80, 0
1, 36352, Note_on_c, 0, 79, 75
1, 36367, Note_on_c, 0, 79, 0
1, 36368, Note_on_c, 0, 77, 75
1, 36381, Note_on_c, 1, 56, 0
1, 36383, Note_on_c, 0, 77, 0
1, 36384, Note_on_c, 0, 75, 75
1, 36384, Note_on_c, 0, 67, 64
1, 36384, Note_on_c, 1, 58, 75
1, 36429, Note_on_c, 0, 75, 0
1, 36429, Note_on_c, 0, 67, 0
1, 36429, Note_on_c, 1, 58, 0
1, 36432, Note_on_c, 0, 74, 75
1, 36432, Note_on_c, 0, 65, 64
1, 36432, Note_on_c, 1, 46, 75
1, 36438, Note_on_c, 0, 74, 0
1, 36438, Note_on_c, 0, 75, 75
1, 36444, Note_on_c, 0, 75, 0
1, 36444, Note_on_c, 0, 74, 75
1, 36477, Note_on_c, 0, 74, 0
1, 36477, Note_on_c, 0, 65, 0
1, 36477, Note_on_c, 1, 46, 0
1, 36480, Note_on_c, 0, 63, 75
1, 36480, Note_on_c, 1, 55, 64
1, 36480, Note_on_c, 1, 51, 64
1, 36495, Note_on_c, 0, 63, 0
1, 36496, Note_on_c, 0, 58, 75
1, 36511, Note_on_c, 0, 58, 0
1, 36512, Note_on_c, 0, 63, 75
1, 36525, Note_on_c, 1, 55, 0
1, 36525, Note_on_c, 1, 51, 0
1, 36527, Note_on_c, 0, 63, 0
1, 36528, Note_on_c, 0, 67, 75
1, 36528, Note_on_c, 1, 55, 64
1, 36528, Note_on_c, 1, 51, 64
1, 36543, Note_on_c, 0, 67, 0
1, 36544, Note_on_c, 0, 63, 75
1, 36559, Note_on_c, 0, 63, 0
1, 36560, Note_on_c, 0, 67, 75
1, 36573, Note_on_c, 1, 55, 0
1, 36573, Note_on_c, 1, 51, 0
1, 36575, Note_on_c, 0, 67, 0
1, 36576, Note_on_c, 0, 70, 76
1, 36576, Note_on_c, 1, 55, 64
1, 36576, Note_on_c, 1, 51, 64
1, 36591, Note_on_c, 0, 70, 0
1, 36592, Note_on_c, 0, 67, 76
1, 36607, Note_on_c, 0, 67, 0
1, 36608, Note_on_c, 0, 70, 76
1, 36621, Note_on_c, 1, 55, 0
1, 36621, Note_on_c, 1, 51, 0
1, 36623, Note_on_c, 0, 70, 0
1, 36624, Note_on_c, 0, 75, 76
1, 36624, Note_on_c, 1, 55, 64
1, 36624, Note_on_c, 1, 51, 64
1, 36639, Note_on_c, 0, 75, 0
1, 36640, Note_on_c, 0, 70, 76
1, 36655, Note_on_c, 0, 70, 0
1, 36656, Note_on_c, 0, 75, 76
1, 36669, Note_on_c, 1, 55, 0
1, 36669, Note_on_c, 1, 51, 0
1, 36671, Note_on_c, 0, 75, 0
1, 36672, Note_on_c, 0, 79, 77
1, 36672, Note_on_c, 1, 51, 64
1, 36672, Note_on_c, 1, 43, 64
1, 36687, Note_on_c, 0, 79, 0
1, 36688, Note_on_c, 0, 75, 77
1, 36703, Note_on_c, 0, 75, 0
1, 36704, Note_on_c, 0, 79, 77
1, 36717, Note_on_c, 1, 51, 0
1, 36717, Note_on_c, 1, 43, 0
1, 36719, Note_on_c, 0, 79, 0
1, 36720, Note_on_c, 0, 82, 77
1, 36720, Note_on_c, 1, 51, 64
1, 36720, Note_on_c, 1, 43, 64
1, 36735, Note_on_c, 0, 82, 0
1, 36736, Note_on_c, 0, 79, 77
1, 36751, Note_on_c, 0, 79, 0
1, 36752, Note_on_c, 0, 82, 78
1, 36765, Note_on_c, 1, 51, 0
1, 36765, Note_on_c, 1, 43, 0
1, 36767, Note_on_c, 0, 82, 0
1, 36768, Note_on_c, 0, 87, 78
1, 36768, Note_on_c, 1, 51, 64
1, 36768, Note_on_c, 1, 43, 64
1, 36813, Note_on_c, 0, 87, 0
1, 36813, Note_on_c, 1, 51, 0
1, 36813, Note_on_c, 1, 43, 0
1, 36816, Note_on_c, 0, 79, 80
1, 36816, Note_on_c, 1, 51, 64
1, 36816, Note_on_c, 1, 43, 64
1, 36861, Note_on_c, 0, 79, 0
1, 36861, Note_on_c, 1, 51, 0
1, 36861, Note_on_c, 1, 43, 0
1, 36864, Note_on_c, 0, 76, 80
1, 36864, Note_on_c, 1, 53, 64
1, 36864, Note_on_c, 1, 44, 64
1, 36879, Note_on_c, 0, 76, 0
1, 36880, Note_on_c, 0, 77, 79
1, 36895, Note_on_c, 0, 77, 0
1, 36896, Note_on_c, 0, 80, 79
1, 36909, Note_on_c, 1, 53, 0
1, 36909, Note_on_c, 1, 44, 0
1, 36911, Note_on_c, 0, 80, 0
1, 36912, Note_on_c, 0, 84, 79
1, 36912, Note_on_c, 1, 53, 64
1, 36912, Note_on_c, 1, 44, 64
1, 36927, Note_on_c, 0, 84, 0
1, 36928, Note_on_c, 0, 80, 78
1, 36943, Note_on_c, 0, 80, 0
1, 36944, Note_on_c, 0, 77, 78
1, 36957, Note_on_c, 1, 53, 0
1, 36957, Note_on_c, 1, 44, 0
1, 36959, Note_on_c, 0, 77, 0
1, 36960, Note_on_c, 0, 82, 78
1, 36960, Note_on_c, 1, 55, 64
1, 36960, Note_on_c, 1, 46, 64
1, 36975, Note_on_c, 0, 82, 0
1, 36976, Note_on_c, 0, 79, 77
1, 36991, Note_on_c, 0, 79, 0
1, 36992, Note_on_c, 0, 75, 77
1, 37005, Note_on_c, 1, 55, 0
1, 37005, Note_on_c, 1, 46, 0
1, 37007, Note_on_c, 0, 75, 0
1, 37008, Note_on_c, 0, 80, 77
1, 37008, Note_on_c, 1, 53, 64
1, 37008, Note_on_c, 1, 46, 64
1, 37023, Note_on_c, 0, 80, 0
1, 37024, Note_on_c, 0, 77, 76
1, 37039, Note_on_c, 0, 77, 0
1, 37040, Note_on_c, 0, 74, 76
1, 37053, Note_on_c, 1, 53, 0
1, 37053, Note_on_c, 1, 46, 0
1, 37055, Note_on_c, 0, 74, 0
1, 37056, Note_on_c, 0, 75, 80
1, 37056, Note_on_c, 1, 51, 80
1, 37079, Note_on_c, 0, 75, 0
1, 37080, Note_on_c, 0, 70, 78
1, 37080, Note_on_c, 0, 67, 78
1, 37101, Note_on_c, 1, 51, 0
1, 37103, Note_on_c, 0, 70, 0
1, 37103, Note_on_c, 0, 67, 0
1, 37104, Note_on_c, 0, 70, 77
1, 37104, Note_on_c, 0, 67, 77
1, 37104, Note_on_c, 1, 39, 77
1, 37128, Note_on_c, 0, 70, 0
1, 37128, Note_on_c, 0, 67, 0
1, 37128, Note_on_c, 0, 72, 76
1, 37128, Note_on_c, 0, 68, 76
1, 37149, Note_on_c, 1, 39, 0
1, 37151, Note_on_c, 0, 72, 0
1, 37151, Note_on_c, 0, 68, 0
1, 37152, Note_on_c, 0, 72, 74
1, 37152, Note_on_c, 0, 68, 74
1, 37152, Note_on_c, 1, 39, 74
1, 37176, Note_on_c, 0, 72, 0
1, 37176, Note_on_c, 0, 65, 73
1, 37197, Note_on_c, 1, 39, 0
1, 37199, Note_on_c, 0, 68, 0
1, 37199, Note_on_c, 0, 65, 0
1, 37200, Note_on_c, 0, 68, 72
1, 37200, Note_on_c, 0, 65, 72
1, 37200, Note_on_c, 1, 39, 72
1, 37224, Note_on_c, 0, 68, 0
1, 37224, Note_on_c, 0, 65, 0
1, 37224, Note_on_c, 0, 70, 70
1, 37224, Note_on_c, 0, 67, 70
1, 37245, Note_on_c, 1, 39, 0
1, 37247, Note_on_c, 0, 70, 0
1, 37247, Note_on_c, 0, 67, 0
1, 37248, Note_on_c, 0, 70, 69
1, 37248, Note_on_c, 0, 67, 69
1, 37248, Note_on_c, 1, 39, 69
1, 37272, Note_on_c, 0, 70, 0
1, 37272, Note_on_c, 0, 67, 0
1, 37272, Note_on_c, 0, 65, 68
1, 37272, Note_on_c, 0, 62, 68
1, 37293, Note_on_c, 1, 39, 0
1, 37295, Note_on_c, 0, 65, 0
1, 37295, Note_on_c, 0, 62, 0
1, 37296, Note_on_c, 0, 67, 66
1, 37296, Note_on_c, 0, 63, 66
1, 37296, Note_on_c, 1, 39, 66
1, 37320, Note_on_c, 0, 67, 0
1, 37320, Note_on_c, 0, 63, 0
1, 37320, Note_on_c, 0, 68, 65
1, 37320, Note_on_c, 0, 65, 65
1, 37341, Note_on_c, 1, 39, 0
1, 37343, Note_on_c, 0, 68, 0
1, 37343, Note_on_c, 0, 65, 0
1, 37344, Tempo, 1500000
1, 37344, Note_on_c, 0, 68, 64
1, 37344, Note_on_c, 0, 65, 64
1, 37344, Note_on_c, 0, 62, 64
1, 37344, Note_on_c, 1, 39, 64
1, 37440, Note_on_c, 0, 68, 0
1, 37440, Note_on_c, 0, 65, 0
1, 37440, Note_on_c, 0, 62, 0
1, 37440, Note_on_c, 0, 67, 64
1, 37440, Note_on_c, 0, 63, 64
1, 37521, Note_on_c, 1, 39, 0
1, 37529, Note_on_c, 0, 67, 0
1, 37529, Note_on_c, 0, 63, 0
1, 37536, Tempo, 1090909
1, 37632, Note_on_c, 1, 39, 0
1, 37809, Note_on_c, 1, 39, 0
1, 37819, End_track
0, 0, End_of_file