0, 0, Header, 0, 1, 96
1, 0, Start_track
1, 0, Tempo, 428571
1, 144, Tempo, 444444
1, 144, Note_on_c, 0, 70, 75
1, 159, Note_on_c, 0, 70, 0
1, 160, Note_on_c, 0, 72, 75
1, 175, Note_on_c, 0, 72, 0
1, 176, Note_on_c, 0, 70, 75
1, 191, Note_on_c, 0, 70, 0
1, 192, Note_on_c, 0, 75, 75
1, 192, Note_on_c, 1, 67, 75
1, 192, Note_on_c, 1, 63, 75
1, 237, Note_on_c, 0, 75, 0
1, 240, Note_on_c, 0, 75, 75
1, 255, Note_on_c, 0, 75, 0
1, 256, Note_on_c, 0, 77, 75
1, 271, Note_on_c, 0, 77, 0
1, 272, Note_on_c, 0, 75, 75
1, 281, Note_on_c, 1, 67, 0
1, 281, Note_on_c, 1, 63, 0
1, 287, Note_on_c, 0, 75, 0
1, 288, Note_on_c, 0, 79, 75
1, 333, Note_on_c, 0, 79, 0
1, 336, Note_on_c, 0, 79, 75
1, 351, Note_on_c, 0, 79, 0
1, 352, Note_on_c, 0, 80, 75
1, 367, Note_on_c, 0, 80, 0
1, 368, Note_on_c, 0, 79, 75
1, 383, Note_on_c, 0, 79, 0
1, 384, Note_on_c, 0, 82, 75
1, 432, Note_on_c, 1, 63, 75
1, 477, Note_on_c, 1, 63, 0
1, 480, Note_on_c, 1, 67, 75
1, 517, Note_on_c, 0, 82, 0
1, 528, Note_on_c, 0, 79, 75
1, 543, Note_on_c, 0, 79, 0
1, 544, Note_on_c, 0, 80, 75
1, 559, Note_on_c, 0, 80, 0
1, 560, Note_on_c, 0, 79, 75
1, 569, Note_on_c, 1, 67, 0
1, 575, Note_on_c, 0, 79, 0
1, 576, Note_on_c, 0, 82, 75
1, 624, Note_on_c, 1, 63, 75
1, 669, Note_on_c, 1, 63, 0
1, 672, Note_on_c, 1, 67, 75
1, 709, Note_on_c, 0, 82, 0
1, 720, Note_on_c, 0, 79, 75
1, 743, Note_on_c, 0, 79, 0
1, 744, Note_on_c, 0, 82, 75
1, 761, Note_on_c, 1, 67, 0
1, 767, Note_on_c, 0, 82, 0
1, 768, Note_on_c, 0, 80, 75
1, 768, Note_on_c, 1, 65, 75
1, 768, Note_on_c, 1, 58, 75
1, 813, Note_on_c, 0, 80, 0
1, 816, Note_on_c, 0, 80, 75
1, 857, Note_on_c, 1, 65, 0
1, 857, Note_on_c, 1, 58, 0
1, 861, Note_on_c, 0, 80, 0
1, 864, Note_on_c, 0, 80, 75
1, 864, Note_on_c, 1, 62, 75
1, 864, Note_on_c, 1, 58, 75
1, 876, Note_on_c, 0, 80, 0
1, 876, Note_on_c, 0, 82, 75
1, 888, Note_on_c, 0, 82, 0
1, 888, Note_on_c, 0, 80, 75
1, 900, Note_on_c, 0, 80, 0
1, 900, Note_on_c, 0, 82, 75
1, 909, Note_on_c, 0, 82, 0
1, 912, Note_on_c, 0, 79, 75
1, 935, Note_on_c, 0, 79, 0
1, 936, Note_on_c, 0, 77, 75
1, 953, Note_on_c, 1, 62, 0
1, 953, Note_on_c, 1, 58, 0
1, 959, Note_on_c, 0, 77, 0
1, 960, Note_on_c, 0, 79, 75
1, 960, Note_on_c, 1, 63, 75
1, 960, Note_on_c, 1, 58, 75
1, 1005, Note_on_c, 0, 79, 0
1, 1008, Note_on_c, 0, 75, 75
1, 1049, Note_on_c, 1, 63, 0
1, 1049, Note_on_c, 1, 58, 0
1, 1053, Note_on_c, 0, 75, 0
1, 1056, Note_on_c, 0, 75, 75
1, 1056, Note_on_c, 1, 67, 75
1, 1056, Note_on_c, 1, 58, 75
1, 1101, Note_on_c, 0, 75, 0
1, 1104, Note_on_c, 0, 79, 75
1, 1119, Note_on_c, 0, 79, 0
1, 1120, Note_on_c, 0, 80, 75
1, 1135, Note_on_c, 0, 80, 0
1, 1136, Note_on_c, 0, 82, 75
1, 1145, Note_on_c, 1, 67, 0
1, 1145, Note_on_c, 1, 58, 0
1, 1151, Note_on_c, 0, 82, 0
1, 1152, Note_on_c, 0, 80, 75
1, 1152, Note_on_c, 1, 65, 75
1, 1152, Note_on_c, 1, 58, 75
1, 1197, Note_on_c, 0, 80, 0
1, 1200, Note_on_c, 0, 80, 75
1, 1241, Note_on_c, 1, 65, 0
1, 1241, Note_on_c, 1, 58, 0
1, 1245, Note_on_c, 0, 80, 0
1, 1248, Note_on_c, 0, 80, 75
1, 1248, Note_on_c, 1, 62, 75
1, 1248, Note_on_c, 1, 58, 75
1, 1260, Note_on_c, 0, 80, 0
1, 1260, Note_on_c, 0, 82, 75
1, 1272, Note_on_c, 0, 82, 0
1, 1272, Note_on_c, 0, 80, 75
1, 1284, Note_on_c, 0, 80, 0
1, 1284, Note_on_c, 0, 82, 75
1, 1293, Note_on_c, 0, 82, 0
1, 1296, Note_on_c, 0, 79, 75
1, 1319, Note_on_c, 0, 79, 0
1, 1320, Note_on_c, 0, 77, 75
1, 1337, Note_on_c, 1, 62, 0
1, 1337, Note_on_c, 1, 58, 0
1, 1343, Note_on_c, 0, 77, 0
1, 1344, Note_on_c, 0, 79, 75
1, 1344, Note_on_c, 1, 63, 75
1, 1367, Note_on_c, 0, 79, 0
1, 1368, Note_on_c, 0, 75, 75
1, 1391, Note_on_c, 0, 75, 0
1, 1392, Note_on_c, 0, 74, 75
1, 1415, Note_on_c, 0, 74, 0
1, 1416, Note_on_c, 0, 75, 75
1, 1433, Note_on_c, 1, 63, 0
1, 1439, Note_on_c, 0, 75, 0
1, 1440, Note_on_c, 0, 77, 75
1, 1463, Note_on_c, 0, 77, 0
1, 1464, Note_on_c, 0, 75, 75
1, 1487, Note_on_c, 0, 75, 0
1, 1488, Note_on_c, 0, 74, 75
1, 1488, Note_on_c, 1, 55, 75
1, 1511, Note_on_c, 0, 74, 0
1, 1512, Note_on_c, 0, 75, 75
1, 1533, Note_on_c, 1, 55, 0
1, 1535, Note_on_c, 0, 75, 0
1, 1536, Note_on_c, 0, 72, 75
1, 1536, Note_on_c, 1, 63, 75
1, 1536, Note_on_c, 1, 56, 75
1, 1559, Note_on_c, 0, 72, 0
1, 1560, Note_on_c, 0, 75, 75
1, 1583, Note_on_c, 0, 75, 0
1, 1584, Note_on_c, 0, 74, 75
1, 1607, Note_on_c, 0, 74, 0
1, 1608, Note_on_c, 0, 72, 75
1, 1625, Note_on_c, 1, 63, 0
1, 1625, Note_on_c, 1, 56, 0
1, 1631, Note_on_c, 0, 72, 0
1, 1632, Note_on_c, 0, 70, 75
1, 1632, Note_on_c, 1, 63, 75
1, 1632, Note_on_c, 1, 55, 75
1, 1677, Note_on_c, 0, 70, 0
1, 1680, Note_on_c, 0, 75, 75
1, 1721, Note_on_c, 1, 63, 0
1, 1721, Note_on_c, 1, 55, 0
1, 1725, Note_on_c, 0, 75, 0
1, 1728, Note_on_c, 0, 68, 75
1, 1728, Note_on_c, 1, 62, 75
1, 1728, Note_on_c, 1, 53, 75
1, 1751, Note_on_c, 0, 68, 0
1, 1752, Note_on_c, 0, 72, 75
1, 1775, Note_on_c, 0, 72, 0
1, 1776, Note_on_c, 0, 70, 75
1, 1799, Note_on_c, 0, 70, 0
1, 1800, Note_on_c, 0, 68, 75
1, 1817, Note_on_c, 1, 62, 0
1, 1817, Note_on_c, 1, 53, 0
1, 1823, Note_on_c, 0, 68, 0
1, 1824, Note_on_c, 0, 67, 75
1, 1824, Note_on_c, 1, 63, 75
1, 1824, Note_on_c, 1, 51, 75
1, 1847, Note_on_c, 0, 67, 0
1, 1848, Note_on_c, 0, 70, 75
1, 1871, Note_on_c, 0, 70, 0
1, 1872, Note_on_c, 0, 68, 75
1, 1895, Note_on_c, 0, 68, 0
1, 1896, Note_on_c, 0, 67, 75
1, 1913, Note_on_c, 1, 63, 0
1, 1913, Note_on_c, 1, 51, 0
1, 1919, Note_on_c, 0, 67, 0
1, 1920, Note_on_c, 0, 65, 75
1, 1920, Note_on_c, 1, 56, 75
1, 1943, Note_on_c, 0, 65, 0
1, 1944, Note_on_c, 0, 68, 75
1, 1967, Note_on_c, 0, 68, 0
1, 1968, Note_on_c, 0, 67, 75
1, 1991, Note_on_c, 0, 67, 0
1, 1992, Note_on_c, 0, 65, 75
1, 2015, Note_on_c, 0, 65, 0
1, 2016, Note_on_c, 0, 72, 75
1, 2053, Note_on_c, 1, 56, 0
1, 2061, Note_on_c, 0, 72, 0
1, 2064, Note_on_c, 0, 63, 75
1, 2064, Note_on_c, 1, 57, 75
1, 2109, Note_on_c, 0, 63, 0
1, 2109, Note_on_c, 1, 57, 0
1, 2112, Note_on_c, 0, 63, 75
1, 2112, Note_on_c, 1, 58, 75
1, 2124, Note_on_c, 0, 63, 0
1, 2124, Note_on_c, 0, 65, 75
1, 2136, Note_on_c, 0, 65, 0
1, 2136, Note_on_c, 0, 63, 75
1, 2148, Note_on_c, 0, 63, 0
1, 2148, Note_on_c, 0, 65, 75
1, 2157, Note_on_c, 0, 65, 0
1, 2157, Note_on_c, 1, 58, 0
1, 2160, Note_on_c, 0, 62, 75
1, 2160, Note_on_c, 1, 53, 75
1, 2205, Note_on_c, 0, 62, 0
1, 2205, Note_on_c, 1, 53, 0
1, 2208, Note_on_c, 1, 46, 75
1, 2256, Note_on_c, 0, 77, 70
1, 2271, Note_on_c, 0, 77, 0
1, 2272, Note_on_c, 0, 79, 70
1, 2287, Note_on_c, 0, 79, 0
1, 2288, Note_on_c, 0, 77, 70
1, 2297, Note_on_c, 1, 46, 0
1, 2303, Note_on_c, 0, 77, 0
1, 2304, Note_on_c, 0, 82, 70
1, 2352, Note_on_c, 1, 70, 70
1, 2393, Note_on_c, 0, 82, 0
1, 2397, Note_on_c, 1, 70, 0
1, 2400, Note_on_c, 1, 74, 70
1, 2448, Note_on_c, 0, 78, 70
1, 2489, Note_on_c, 1, 74, 0
1, 2496, Note_on_c, 0, 78, 0
1, 2496, Note_on_c, 0, 79, 70
1, 2544, Note_on_c, 1, 63, 70
1, 2585, Note_on_c, 0, 79, 0
1, 2589, Note_on_c, 1, 63, 0
1, 2592, Note_on_c, 1, 51, 70
1, 2640, Note_on_c, 0, 79, 70
1, 2655, Note_on_c, 0, 79, 0
1, 2656, Note_on_c, 0, 81, 70
1, 2671, Note_on_c, 0, 81, 0
1, 2672, Note_on_c, 0, 79, 70
1, 2681, Note_on_c, 1, 51, 0
1, 2687, Note_on_c, 0, 79, 0
1, 2688, Note_on_c, 0, 84, 70
1, 2736, Note_on_c, 1, 72, 70
1, 2777, Note_on_c, 0, 84, 0
1, 2781, Note_on_c, 1, 72, 0
1, 2784, Note_on_c, 1, 76, 70
1, 2832, Note_on_c, 0, 79, 70
1, 2873, Note_on_c, 1, 76, 0
1, 2880, Note_on_c, 0, 79, 0
1, 2880, Note_on_c, 0, 81, 70
1, 2928, Note_on_c, 1, 65, 70
1, 2969, Note_on_c, 0, 81, 0
1, 2973, Note_on_c, 1, 65, 0
1, 2976, Note_on_c, 1, 53, 70
1, 3024, Note_on_c, 0, 84, 70
1, 3047, Note_on_c, 0, 84, 0
1, 3048, Note_on_c, 0, 81, 70
1, 3065, Note_on_c, 1, 53, 0
1, 3071, Note_on_c, 0, 81, 0
1, 3072, Note_on_c, 0, 75, 75
1, 3072, Note_on_c, 1, 69, 66
1, 3072, Note_on_c, 1, 65, 66
1, 3119, Note_on_c, 1, 69, 0
1, 3119, Note_on_c, 1, 65, 0
1, 3120, Note_on_c, 1, 69, 66
1, 3120, Note_on_c, 1, 65, 66
1, 3167, Note_on_c, 1, 69, 0
1, 3167, Note_on_c, 1, 65, 0
1, 3168, Note_on_c, 1, 69, 66
1, 3168, Note_on_c, 1, 65, 66
1, 3205, Note_on_c, 0, 75, 0
1, 3215, Note_on_c, 1, 69, 0
1, 3215, Note_on_c, 1, 65, 0
1, 3216, Note_on_c, 0, 79, 75
1, 3216, Note_on_c, 1, 69, 66
1, 3216, Note_on_c, 1, 65, 66
1, 3231, Note_on_c, 0, 79, 0
1, 3232, Note_on_c, 0, 77, 75
1, 3247, Note_on_c, 0, 77, 0
1, 3248, Note_on_c, 0, 75, 75
1, 3263, Note_on_c, 0, 75, 0
1, 3263, Note_on_c, 1, 69, 0
1, 3263, Note_on_c, 1, 65, 0
1, 3264, Note_on_c, 0, 74, 75
1, 3264, Note_on_c, 1, 70, 66
1, 3264, Note_on_c, 1, 65, 66
1, 3309, Note_on_c, 0, 74, 0
1, 3311, Note_on_c, 1, 70, 0
1, 3311, Note_on_c, 1, 65, 0
1, 3312, Note_on_c, 0, 77, 75
1, 3312, Note_on_c, 1, 70, 66
1, 3312, Note_on_c, 1, 65, 66
1, 3357, Note_on_c, 0, 77, 0
1, 3359, Note_on_c, 1, 70, 0
1, 3359, Note_on_c, 1, 65, 0
1, 3360, Note_on_c, 1, 70, 66
1, 3360, Note_on_c, 1, 65, 66
1, 3407, Note_on_c, 1, 70, 0
1, 3407, Note_on_c, 1, 65, 0
1, 3408, Note_on_c, 0, 82, 75
1, 3408, Note_on_c, 1, 70, 66
1, 3408, Note_on_c, 1, 65, 66
1, 3423, Note_on_c, 0, 82, 0
1, 3424, Note_on_c, 0, 84, 75
1, 3439, Note_on_c, 0, 84, 0
1, 3440, Note_on_c, 0, 86, 75
1, 3455, Note_on_c, 0, 86, 0
1, 3455, Note_on_c, 1, 70, 0
1, 3455, Note_on_c, 1, 65, 0
1, 3456, Note_on_c, 0, 84, 75
1, 3456, Note_on_c, 1, 69, 66
1, 3456, Note_on_c, 1, 65, 66
1, 3501, Note_on_c, 0, 84, 0
1, 3503, Note_on_c, 1, 69, 0
1, 3503, Note_on_c, 1, 65, 0
1, 3504, Note_on_c, 0, 81, 75
1, 3504, Note_on_c, 1, 69, 66
1, 3504, Note_on_c, 1, 65, 66
1, 3549, Note_on_c, 0, 81, 0
1, 3551, Note_on_c, 1, 69, 0
1, 3551, Note_on_c, 1, 65, 0
1, 3552, Note_on_c, 0, 77, 75
1, 3552, Note_on_c, 1, 69, 66
1, 3552, Note_on_c, 1, 65, 66
1, 3597, Note_on_c, 0, 77, 0
1, 3599, Note_on_c, 1, 69, 0
1, 3599, Note_on_c, 1, 65, 0
1, 3600, Note_on_c, 0, 75, 75
1, 3600, Note_on_c, 1, 69, 66
1, 3600, Note_on_c, 1, 65, 66
1, 3645, Note_on_c, 0, 75, 0
1, 3647, Note_on_c, 1, 69, 0
1, 3647, Note_on_c, 1, 65, 0
1, 3648, Note_on_c, 0, 74, 75
1, 3648, Note_on_c, 1, 70, 75
1, 3671, Note_on_c, 0, 74, 0
1, 3672, Note_on_c, 0, 82, 75
1, 3695, Note_on_c, 0, 82, 0
1, 3696, Note_on_c, 0, 81, 75
1, 3719, Note_on_c, 0, 81, 0
1, 3720, Note_on_c, 0, 79, 75
1, 3737, Note_on_c, 1, 70, 0
1, 3743, Note_on_c, 0, 79, 0
1, 3744, Note_on_c, 0, 77, 75
1, 3764, Note_on_c, 0, 77, 0
1, 3792, Note_on_c, 0, 77, 75
1, 3837, Note_on_c, 0, 77, 0
1, 3840, Note_on_c, 0, 79, 75
1, 3853, Note_on_c, 0, 79, 0
1, 3854, Note_on_c, 0, 77, 75
1, 3867, Note_on_c, 0, 77, 0
1, 3868, Note_on_c, 0, 79, 75
1, 3881, Note_on_c, 0, 79, 0
1, 3882, Note_on_c, 0, 77, 75
1, 3888, Note_on_c, 1, 69, 75
1, 3888, Note_on_c, 1, 65, 75
1, 3895, Note_on_c, 0, 77, 0
1, 3896, Note_on_c, 0, 79, 75
1, 3909, Note_on_c, 0, 79, 0
1, 3910, Note_on_c, 0, 77, 75
1, 3923, Note_on_c, 0, 77, 0
1, 3924, Note_on_c, 0, 79, 75
1, 3933, Note_on_c, 1, 69, 0
1, 3933, Note_on_c, 1, 65, 0
1, 3936, Note_on_c, 1, 70, 75
1, 3936, Note_on_c, 1, 67, 75
1, 3937, Note_on_c, 0, 79, 0
1, 3938, Note_on_c, 0, 77, 75
1, 3951, Note_on_c, 0, 77, 0
1, 3952, Note_on_c, 0, 79, 75
1, 3965, Note_on_c, 0, 79, 0
1, 3966, Note_on_c, 0, 77, 75
1, 3979, Note_on_c, 0, 77, 0
1, 3980, Note_on_c, 0, 75, 75
1, 3981, Note_on_c, 1, 70, 0
1, 3981, Note_on_c, 1, 67, 0
1, 3984, Note_on_c, 1, 72, 75
1, 3984, Note_on_c, 1, 69, 75
1, 4029, Note_on_c, 1, 72, 0
1, 4029, Note_on_c, 1, 69, 0
1, 4031, Note_on_c, 0, 75, 0
1, 4032, Note_on_c, 0, 74, 75
1, 4032, Note_on_c, 1, 70, 75
1, 4055, Note_on_c, 0, 74, 0
1, 4056, Note_on_c, 0, 77, 75
1, 4077, Note_on_c, 1, 70, 0
1, 4079, Note_on_c, 0, 77, 0
1, 4080, Note_on_c, 0, 75, 75
1, 4103, Note_on_c, 0, 75, 0
1, 4104, Note_on_c, 0, 74, 75
1, 4127, Note_on_c, 0, 74, 0
1, 4128, Note_on_c, 0, 79, 75
1, 4128, Note_on_c, 1, 63, 75
1, 4128, Note_on_c, 1, 51, 75
1, 4151, Note_on_c, 0, 79, 0
1, 4152, Note_on_c, 0, 75, 75
1, 4175, Note_on_c, 0, 75, 0
1, 4176, Note_on_c, 0, 74, 75
1, 4199, Note_on_c, 0, 74, 0
1, 4200, Note_on_c, 0, 72, 75
1, 4217, Note_on_c, 1, 63, 0
1, 4217, Note_on_c, 1, 51, 0
1, 4223, Note_on_c, 0, 72, 0
1, 4224, Note_on_c, 0, 77, 75
1, 4224, Note_on_c, 1, 62, 75
1, 4224, Note_on_c, 1, 50, 75
1, 4247, Note_on_c, 0, 77, 0
1, 4248, Note_on_c, 0, 74, 75
1, 4271, Note_on_c, 0, 74, 0
1, 4272, Note_on_c, 0, 72, 75
1, 4295, Note_on_c, 0, 72, 0
1, 4296, Note_on_c, 0, 70, 75
1, 4313, Note_on_c, 1, 62, 0
1, 4313, Note_on_c, 1, 50, 0
1, 4319, Note_on_c, 0, 70, 0
1, 4320, Note_on_c, 0, 75, 75
1, 4320, Note_on_c, 1, 60, 75
1, 4320, Note_on_c, 1, 48, 75
1, 4343, Note_on_c, 0, 75, 0
1, 4344, Note_on_c, 0, 72, 75
1, 4367, Note_on_c, 0, 72, 0
1, 4368, Note_on_c, 0, 70, 75
1, 4391, Note_on_c, 0, 70, 0
1, 4392, Note_on_c, 0, 69, 75
1, 4409, Note_on_c, 1, 60, 0
1, 4409, Note_on_c, 1, 48, 0
1, 4415, Note_on_c, 0, 69, 0
1, 4416, Note_on_c, 0, 70, 75
1, 4416, Note_on_c, 1, 58, 75
1, 4416, Note_on_c, 1, 46, 75
1, 4439, Note_on_c, 0, 70, 0
1, 4440, Note_on_c, 0, 65, 75
1, 4463, Note_on_c, 0, 65, 0
1, 4464, Note_on_c, 0, 63, 75
1, 4487, Note_on_c, 0, 63, 0
1, 4488, Note_on_c, 0, 62, 75
1, 4505, Note_on_c, 1, 58, 0
1, 4505, Note_on_c, 1, 46, 0
1, 4511, Note_on_c, 0, 62, 0
1, 4512, Note_on_c, 0, 67, 75
1, 4512, Note_on_c, 1, 51, 75
1, 4512, Note_on_c, 1, 39, 75
1, 4535, Note_on_c, 0, 67, 0
1, 4536, Note_on_c, 0, 63, 75
1, 4559, Note_on_c, 0, 63, 0
1, 4560, Note_on_c, 0, 62, 75
1, 4583, Note_on_c, 0, 62, 0
1, 4584, Note_on_c, 0, 60, 75
1, 4601, Note_on_c, 1, 51, 0
1, 4601, Note_on_c, 1, 39, 0
1, 4607, Note_on_c, 0, 60, 0
1, 4608, Note_on_c, 0, 65, 75
1, 4608, Note_on_c, 1, 50, 75
1, 4608, Note_on_c, 1, 38, 75
1, 4631, Note_on_c, 0, 65, 0
1, 4632, Note_on_c, 0, 62, 75
1, 4655, Note_on_c, 0, 62, 0
1, 4656, Note_on_c, 0, 60, 75
1, 4679, Note_on_c, 0, 60, 0
1, 4680, Note_on_c, 0, 58, 75
1, 4697, Note_on_c, 1, 50, 0
1, 4697, Note_on_c, 1, 38, 0
1, 4703, Note_on_c, 0, 58, 0
1, 4704, Note_on_c, 0, 63, 75
1, 4704, Note_on_c, 1, 48, 75
1, 4704, Note_on_c, 1, 36, 75
1, 4727, Note_on_c, 0, 63, 0
1, 4728, Note_on_c, 0, 60, 75
1, 4751, Note_on_c, 0, 60, 0
1, 4752, Note_on_c, 0, 58, 75
1, 4775, Note_on_c, 0, 58, 0
1, 4776, Note_on_c, 0, 57, 75
1, 4793, Note_on_c, 1, 48, 0
1, 4793, Note_on_c, 1, 36, 0
1, 4799, Note_on_c, 0, 57, 0
1, 4800, Note_on_c, 1, 46, 75
1, 4800, Note_on_c, 1, 34, 75
1, 4824, Note_on_c, 0, 58, 75
1, 4847, Note_on_c, 0, 58, 0
1, 4848, Note_on_c, 0, 60, 75
1, 4871, Note_on_c, 0, 60, 0
1, 4872, Note_on_c, 0, 62, 75
1, 4889, Note_on_c, 1, 46, 0
1, 4889, Note_on_c, 1, 34, 0
1, 4895, Note_on_c, 0, 62, 0
1, 4896, Note_on_c, 0, 63, 75
1, 4919, Note_on_c, 0, 63, 0
1, 4920, Note_on_c, 0, 65, 75
1, 4943, Note_on_c, 0, 65, 0
1, 4944, Note_on_c, 0, 67, 75
1, 4967, Note_on_c, 0, 67, 0
1, 4968, Note_on_c, 0, 69, 75
1, 4991, Note_on_c, 0, 69, 0
1, 4992, Note_on_c, 0, 70, 75
1, 5016, Note_on_c, 1, 46, 75
1, 5039, Note_on_c, 1, 46, 0
1, 5040, Note_on_c, 1, 48, 75
1, 5063, Note_on_c, 1, 48, 0
1, 5064, Note_on_c, 1, 50, 75
1, 5081, Note_on_c, 0, 70, 0
1, 5087, Note_on_c, 1, 50, 0
1, 5088, Note_on_c, 1, 51, 75
1, 5111, Note_on_c, 1, 51, 0
1, 5112, Note_on_c, 1, 53, 75
1, 5135, Note_on_c, 1, 53, 0
1, 5136, Note_on_c, 1, 55, 75
1, 5159, Note_on_c, 1, 55, 0
1, 5160, Note_on_c, 1, 57, 75
1, 5183, Note_on_c, 1, 57, 0
1, 5184, Note_on_c, 1, 58, 75
1, 5208, Note_on_c, 0, 70, 75
1, 5231, Note_on_c, 0, 70, 0
1, 5232, Note_on_c, 0, 72, 75
1, 5255, Note_on_c, 0, 72, 0
1, 5256, Note_on_c, 0, 74, 75
1, 5273, Note_on_c, 1, 58, 0
1, 5279, Note_on_c, 0, 74, 0
1, 5280, Note_on_c, 0, 75, 75
1, 5303, Note_on_c, 0, 75, 0
1, 5304, Note_on_c, 0, 77, 75
1, 5327, Note_on_c, 0, 77, 0
1, 5328, Note_on_c, 0, 79, 75
1, 5351, Note_on_c, 0, 79, 0
1, 5352, Note_on_c, 0, 81, 75
1, 5375, Note_on_c, 0, 81, 0
1, 5376, Note_on_c, 0, 82, 75
1, 5376, Note_on_c, 1, 55, 70
1, 5399, Note_on_c, 1, 55, 0
1, 5400, Note_on_c, 1, 64, 70
1, 5423, Note_on_c, 1, 64, 0
1, 5424, Note_on_c, 1, 58, 70
1, 5447, Note_on_c, 1, 58, 0
1, 5448, Note_on_c, 1, 64, 70
1, 5471, Note_on_c, 1, 64, 0
1, 5472, Note_on_c, 1, 55, 70
1, 5495, Note_on_c, 1, 55, 0
1, 5496, Note_on_c, 1, 64, 70
1, 5509, Note_on_c, 0, 82, 0
1, 5519, Note_on_c, 1, 64, 0
1, 5520, Note_on_c, 0, 86, 75
1, 5520, Note_on_c, 1, 58, 70
1, 5535, Note_on_c, 0, 86, 0
1, 5536, Note_on_c, 0, 84, 75
1, 5543, Note_on_c, 1, 58, 0
1, 5544, Note_on_c, 1, 64, 70
1, 5551, Note_on_c, 0, 84, 0
1, 5552, Note_on_c, 0, 82, 75
1, 5567, Note_on_c, 0, 82, 0
1, 5567, Note_on_c, 1, 64, 0
1, 5568, Note_on_c, 0, 81, 75
1, 5568, Note_on_c, 1, 53, 70
1, 5591, Note_on_c, 1, 53, 0
1, 5592, Note_on_c, 1, 65, 70
1, 5615, Note_on_c, 1, 65, 0
1, 5616, Note_on_c, 1, 57, 70
1, 5639, Note_on_c, 1, 57, 0
1, 5640, Note_on_c, 1, 65, 70
1, 5657, Note_on_c, 0, 81, 0
1, 5663, Note_on_c, 1, 65, 0
1, 5664, Note_on_c, 0, 84, 75
1, 5664, Note_on_c, 1, 53, 70
1, 5687, Note_on_c, 1, 53, 0
1, 5688, Note_on_c, 1, 65, 70
1, 5711, Note_on_c, 1, 65, 0
1, 5712, Note_on_c, 1, 57, 70
1, 5735, Note_on_c, 1, 57, 0
1, 5736, Note_on_c, 1, 65, 70
1, 5753, Note_on_c, 0, 84, 0
1, 5759, Note_on_c, 1, 65, 0
1, 5760, Note_on_c, 0, 75, 75
1, 5760, Note_on_c, 1, 57, 70
1, 5783, Note_on_c, 1, 57, 0
1, 5784, Note_on_c, 1, 65, 70
1, 5807, Note_on_c, 1, 65, 0
1, 5808, Note_on_c, 1, 60, 70
1, 5831, Note_on_c, 1, 60, 0
1, 5832, Note_on_c, 1, 65, 70
1, 5855, Note_on_c, 1, 65, 0
1, 5856, Note_on_c, 1, 57, 70
1, 5879, Note_on_c, 1, 57, 0
1, 5880, Note_on_c, 1, 65, 70
1, 5893, Note_on_c, 0, 75, 0
1, 5903, Note_on_c, 1, 65, 0
1, 5904, Note_on_c, 0, 79, 75
1, 5904, Note_on_c, 1, 60, 70
1, 5919, Note_on_c, 0, 79, 0
1, 5920, Note_on_c, 0, 77, 75
1, 5927, Note_on_c, 1, 60, 0
1, 5928, Note_on_c, 1, 65, 70
1, 5935, Note_on_c, 0, 77, 0
1, 5936, Note_on_c, 0, 75, 75
1, 5951, Note_on_c, 0, 75, 0
1, 5951, Note_on_c, 1, 65, 0
1, 5952, Note_on_c, 0, 74, 75
1, 5952, Note_on_c, 1, 58, 70
1, 5975, Note_on_c, 1, 58, 0
1, 5976, Note_on_c, 1, 65, 70
1, 5999, Note_on_c, 1, 65, 0
1, 6000, Note_on_c, 1, 62, 70
1, 6023, Note_on_c, 1, 62, 0
1, 6024, Note_on_c, 1, 65, 70
1, 6041, Note_on_c, 0, 74, 0
1, 6047, Note_on_c, 1, 65, 0
1, 6048, Note_on_c, 0, 77, 75
1, 6048, Note_on_c, 1, 58, 70
1, 6071, Note_on_c, 1, 58, 0
1, 6072, Note_on_c, 1, 65, 70
1, 6095, Note_on_c, 1, 65, 0
1, 6096, Note_on_c, 1, 62, 70
1, 6119, Note_on_c, 1, 62, 0
1, 6120, Note_on_c, 1, 65, 70
1, 6137, Note_on_c, 0, 77, 0
1, 6143, Note_on_c, 1, 65, 0
1, 6144, Note_on_c, 0, 75, 75
1, 6144, Note_on_c, 1, 57, 70
1, 6167, Note_on_c, 1, 57, 0
1, 6168, Note_on_c, 1, 65, 70
1, 6191, Note_on_c, 1, 65, 0
1, 6192, Note_on_c, 1, 60, 70
1, 6215, Note_on_c, 1, 60, 0
1, 6216, Note_on_c, 1, 65, 70
1, 6239, Note_on_c, 1, 65, 0
1, 6240, Note_on_c, 1, 57, 70
1, 6263, Note_on_c, 1, 57, 0
1, 6264, Note_on_c, 1, 65, 70
1, 6277, Note_on_c, 0, 75, 0
1, 6287, Note_on_c, 1, 65, 0
1, 6288, Note_on_c, 0, 79, 75
1, 6288, Note_on_c, 1, 60, 70
1, 6303, Note_on_c, 0, 79, 0
1, 6304, Note_on_c, 0, 77, 75
1, 6311, Note_on_c, 1, 60, 0
1, 6312, Note_on_c, 1, 65, 70
1, 6319, Note_on_c, 0, 77, 0
1, 6320, Note_on_c, 0, 75, 75
1, 6335, Note_on_c, 0, 75, 0
1, 6335, Note_on_c, 1, 65, 0
1, 6336, Note_on_c, 0, 74, 75
1, 6336, Note_on_c, 1, 58, 70
1, 6359, Note_on_c, 1, 58, 0
1, 6360, Note_on_c, 1, 65, 70
1, 6383, Note_on_c, 1, 65, 0
1, 6384, Note_on_c, 1, 62, 70
1, 6407, Note_on_c, 1, 62, 0
1, 6408, Note_on_c, 1, 65, 70
1, 6431, Note_on_c, 1, 65, 0
1, 6432, Note_on_c, 1, 58, 70
1, 6455, Note_on_c, 1, 58, 0
1, 6456, Note_on_c, 1, 65, 70
1, 6469, Note_on_c, 0, 74, 0
1, 6479, Note_on_c, 1, 65, 0
1, 6480, Note_on_c, 0, 77, 75
1, 6480, Note_on_c, 1, 62, 70
1, 6495, Note_on_c, 0, 77, 0
1, 6496, Note_on_c, 0, 75, 75
1, 6503, Note_on_c, 1, 62, 0
1, 6504, Note_on_c, 1, 65, 70
1, 6511, Note_on_c, 0, 75, 0
1, 6512, Note_on_c, 0, 74, 75
1, 6527, Note_on_c, 0, 74, 0
1, 6527, Note_on_c, 1, 65, 0
1, 6528, Note_on_c, 0, 72, 75
1, 6528, Note_on_c, 1, 63, 70
1, 6573, Note_on_c, 0, 72, 0
1, 6576, Note_on_c, 0, 78, 75
1, 6600, Note_on_c, 0, 78, 0
1, 6600, Note_on_c, 0, 79, 75
1, 6617, Note_on_c, 1, 63, 0
1, 6623, Note_on_c, 0, 79, 0
1, 6624, Note_on_c, 0, 77, 75
1, 6647, Note_on_c, 0, 77, 0
1, 6648, Note_on_c, 0, 75, 75
1, 6671, Note_on_c, 0, 75, 0
1, 6672, Note_on_c, 0, 74, 75
1, 6695, Note_on_c, 0, 74, 0
1, 6696, Note_on_c, 0, 72, 75
1, 6719, Note_on_c, 0, 72, 0
1, 6720, Note_on_c, 0, 70, 75
1, 6768, Note_on_c, 1, 62, 70
1, 6809, Note_on_c, 0, 70, 0
1, 6813, Note_on_c, 1, 62, 0
1, 6816, Note_on_c, 0, 74, 75
1, 6816, Note_on_c, 1, 63, 70
1, 6839, Note_on_c, 0, 74, 0
1, 6840, Note_on_c, 0, 72, 75
1, 6861, Note_on_c, 1, 63, 0
1, 6863, Note_on_c, 0, 72, 0
1, 6864, Note_on_c, 0, 70, 75
1, 6864, Note_on_c, 1, 65, 70
1, 6887, Note_on_c, 0, 70, 0
1, 6888, Note_on_c, 0, 69, 75
1, 6909, Note_on_c, 1, 65, 0
1, 6911, Note_on_c, 0, 69, 0
1, 6912, Note_on_c, 0, 70, 75
1, 6912, Note_on_c, 1, 67, 75
1, 6912, Note_on_c, 1, 70, 64
1, 6957, Note_on_c, 0, 70, 0
1, 6960, Note_on_c, 0, 81, 73
1, 6984, Note_on_c, 0, 81, 0
1, 6984, Note_on_c, 0, 82, 72
1, 7001, Note_on_c, 1, 67, 0
1, 7001, Note_on_c, 1, 70, 0
1, 7007, Note_on_c, 0, 82, 0
1, 7008, Note_on_c, 0, 81, 71
1, 7031, Note_on_c, 0, 81, 0
1, 7032, Note_on_c, 0, 79, 71
1, 7055, Note_on_c, 0, 79, 0
1, 7056, Note_on_c, 0, 77, 70
1, 7056, Note_on_c, 1, 70, 70
1, 7056, Note_on_c, 1, 67, 70
1, 7079, Note_on_c, 0, 77, 0
1, 7080, Note_on_c, 0, 76, 69
1, 7101, Note_on_c, 1, 70, 0
1, 7101, Note_on_c, 1, 67, 0
1, 7103, Note_on_c, 0, 76, 0
1, 7104, Note_on_c, 0, 77, 68
1, 7104, Note_on_c, 1, 69, 68
1, 7104, Note_on_c, 1, 65, 68
1, 7149, Note_on_c, 0, 77, 0
1, 7152, Note_on_c, 0, 81, 67
1, 7176, Note_on_c, 0, 81, 0
1, 7176, Note_on_c, 0, 82, 66
1, 7193, Note_on_c, 1, 69, 0
1, 7193, Note_on_c, 1, 65, 0
1, 7199, Note_on_c, 0, 82, 0
1, 7200, Note_on_c, 0, 81, 65
1, 7223, Note_on_c, 0, 81, 0
1, 7224, Note_on_c, 0, 79, 64
1, 7247, Note_on_c, 0, 79, 0
1, 7248, Note_on_c, 0, 77, 63
1, 7248, Note_on_c, 1, 70, 63
1, 7248, Note_on_c, 1, 67, 63
1, 7271, Note_on_c, 0, 77, 0
1, 7272, Note_on_c, 0, 76, 63
1, 7293, Note_on_c, 1, 70, 0
1, 7293, Note_on_c, 1, 67, 0
1, 7295, Note_on_c, 0, 76, 0
1, 7296, Note_on_c, 0, 77, 62
1, 7296, Note_on_c, 1, 69, 62
1, 7296, Note_on_c, 1, 65, 62
1, 7385, Note_on_c, 0, 77, 0
1, 7385, Note_on_c, 1, 69, 0
1, 7385, Note_on_c, 1, 65, 0
1, 7440, Note_on_c, 0, 77, 80
1, 7455, Note_on_c, 0, 77, 0
1, 7456, Note_on_c, 0, 79, 80
1, 7471, Note_on_c, 0, 79, 0
1, 7472, Note_on_c, 0, 77, 80
1, 7487, Note_on_c, 0, 77, 0
1, 7488, Note_on_c, 0, 82, 80
1, 7488, Note_on_c, 1, 58, 80
1, 7488, Note_on_c, 1, 53, 80
1, 7488, Note_on_c, 1, 50, 80
1, 7488, Note_on_c, 1, 46, 80
1, 7533, Note_on_c, 0, 82, 0
1, 7536, Note_on_c, 0, 74, 80
1, 7551, Note_on_c, 0, 74, 0
1, 7552, Note_on_c, 0, 75, 80
1, 7567, Note_on_c, 0, 75, 0
1, 7568, Note_on_c, 0, 74, 80
1, 7577, Note_on_c, 1, 58, 0
1, 7577, Note_on_c, 1, 53, 0
1, 7577, Note_on_c, 1, 50, 0
1, 7577, Note_on_c, 1, 46, 0
1, 7583, Note_on_c, 0, 74, 0
1, 7584, Note_on_c, 0, 77, 80
1, 7629, Note_on_c, 0, 77, 0
1, 7632, Note_on_c, 0, 70, 80
1, 7647, Note_on_c, 0, 70, 0
1, 7648, Note_on_c, 0, 72, 80
1, 7663, Note_on_c, 0, 72, 0
1, 7664, Note_on_c, 0, 70, 80
1, 7679, Note_on_c, 0, 70, 0
1, 7680, Note_on_c, 0, 74, 80
1, 7725, Note_on_c, 0, 74, 0
1, 7728, Note_on_c, 0, 65, 80
1, 7743, Note_on_c, 0, 65, 0
1, 7744, Note_on_c, 0, 67, 80
1, 7759, Note_on_c, 0, 67, 0
1, 7760, Note_on_c, 0, 65, 80
1, 7775, Note_on_c, 0, 65, 0
1, 7776, Note_on_c, 0, 70, 80
1, 7821, Note_on_c, 0, 70, 0
1, 7824, Note_on_c, 0, 62, 80
1, 7824, Note_on_c, 1, 50, 80
1, 7824, Note_on_c, 1, 38, 80
1, 7869, Note_on_c, 0, 62, 0
1, 7869, Note_on_c, 1, 50, 0
1, 7869, Note_on_c, 1, 38, 0
1, 7872, Note_on_c, 0, 63, 80
1, 7872, Note_on_c, 1, 51, 80
1, 7872, Note_on_c, 1, 39, 80
1, 7884, Note_on_c, 0, 63, 0
1, 7884, Note_on_c, 0, 65, 80
1, 7896, Note_on_c, 0, 65, 0
1, 7896, Note_on_c, 0, 63, 80
1, 7908, Note_on_c, 0, 63, 0
1, 7908, Note_on_c, 0, 65, 80
1, 7917, Note_on_c, 0, 65, 0
1, 7920, Note_on_c, 0, 62, 80
1, 7943, Note_on_c, 0, 62, 0
1, 7944, Note_on_c, 0, 63, 80
1, 7961, Note_on_c, 1, 51, 0
1, 7961, Note_on_c, 1, 39, 0
1, 7967, Note_on_c, 0, 63, 0
1, 7968, Note_on_c, 0, 65, 80
1, 7968, Note_on_c, 1, 53, 80
1, 7968, Note_on_c, 1, 41, 80
1, 7988, Note_on_c, 0, 65, 0
1, 8016, Note_on_c, 0, 65, 80
1, 8057, Note_on_c, 1, 53, 0
1, 8057, Note_on_c, 1, 41, 0
1, 8061, Note_on_c, 0, 65, 0
1, 8064, Note_on_c, 0, 67, 80
1, 8064, Note_on_c, 1, 55, 80
1, 8064, Note_on_c, 1, 43, 80
1, 8153, Note_on_c, 0, 67, 0
1, 8153, Note_on_c, 1, 55, 0
1, 8153, Note_on_c, 1, 43, 0
1, 8208, Note_on_c, 0, 77, 80
1, 8223, Note_on_c, 0, 77, 0
1, 8224, Note_on_c, 0, 79, 80
1, 8239, Note_on_c, 0, 79, 0
1, 8240, Note_on_c, 0, 77, 80
1, 8255, Note_on_c, 0, 77, 0
1, 8256, Note_on_c, 0, 82, 80
1, 8256, Note_on_c, 1, 58, 80
1, 8256, Note_on_c, 1, 53, 80
1, 8256, Note_on_c, 1, 50, 80
1, 8256, Note_on_c, 1, 46, 80
1, 8301, Note_on_c, 0, 82, 0
1, 8304, Note_on_c, 0, 74, 80
1, 8319, Note_on_c, 0, 74, 0
1, 8320, Note_on_c, 0, 75, 80
1, 8335, Note_on_c, 0, 75, 0
1, 8336, Note_on_c, 0, 74, 80
1, 8345, Note_on_c, 1, 58, 0
1, 8345, Note_on_c, 1, 53, 0
1, 8345, Note_on_c, 1, 50, 0
1, 8345, Note_on_c, 1, 46, 0
1, 8351, Note_on_c, 0, 74, 0
1, 8352, Note_on_c, 0, 77, 80
1, 8397, Note_on_c, 0, 77, 0
1, 8400, Note_on_c, 0, 70, 80
1, 8415, Note_on_c, 0, 70, 0
1, 8416, Note_on_c, 0, 72, 80
1, 8431, Note_on_c, 0, 72, 0
1, 8432, Note_on_c, 0, 70, 80
1, 8447, Note_on_c, 0, 70, 0
1, 8448, Note_on_c, 0, 74, 80
1, 8493, Note_on_c, 0, 74, 0
1, 8496, Note_on_c, 0, 65, 80
1, 8511, Note_on_c, 0, 65, 0
1, 8512, Note_on_c, 0, 67, 80
1, 8527, Note_on_c, 0, 67, 0
1, 8528, Note_on_c, 0, 65, 80
1, 8543, Note_on_c, 0, 65, 0
1, 8544, Note_on_c, 0, 70, 80
1, 8589, Note_on_c, 0, 70, 0
1, 8592, Note_on_c, 0, 62, 80
1, 8592, Note_on_c, 1, 50, 80
1, 8592, Note_on_c, 1, 38, 80
1, 8637, Note_on_c, 0, 62, 0
1, 8637, Note_on_c, 1, 50, 0
1, 8637, Note_on_c, 1, 38, 0
1, 8640, Note_on_c, 0, 63, 80
1, 8640, Note_on_c, 1, 51, 80
1, 8640, Note_on_c, 1, 39, 80
1, 8652, Note_on_c, 0, 63, 0
1, 8652, Note_on_c, 0, 65, 80
1, 8664, Note_on_c, 0, 65, 0
1, 8664, Note_on_c, 0, 63, 80
1, 8676, Note_on_c, 0, 63, 0
1, 8676, Note_on_c, 0, 65, 80
1, 8685, Note_on_c, 0, 65, 0
1, 8688, Note_on_c, 0, 62, 80
1, 8711, Note_on_c, 0, 62, 0
1, 8712, Note_on_c, 0, 63, 80
1, 8729, Note_on_c, 1, 51, 0
1, 8729, Note_on_c, 1, 39, 0
1, 8735, Note_on_c, 0, 63, 0
1, 8736, Note_on_c, 0, 65, 80
1, 8736, Note_on_c, 1, 53, 80
1, 8736, Note_on_c, 1, 41, 80
1, 8756, Note_on_c, 0, 65, 0
1, 8784, Note_on_c, 0, 65, 80
1, 8825, Note_on_c, 1, 53, 0
1, 8825, Note_on_c, 1, 41, 0
1, 8829, Note_on_c, 0, 65, 0
1, 8832, Note_on_c, 0, 58, 80
1, 8832, Note_on_c, 1, 46, 80
1, 8921, Note_on_c, 0, 58, 0
1, 8921, Note_on_c, 1, 46, 0
1, 8976, Tempo, 444444
1, 8976, Note_on_c, 0, 70, 75
1, 8991, Note_on_c, 0, 70, 0
1, 8992, Note_on_c, 0, 72, 75
1, 9007, Note_on_c, 0, 72, 0
1, 9008, Note_on_c, 0, 70, 75
1, 9023, Note_on_c, 0, 70, 0
1, 9024, Note_on_c, 0, 75, 75
1, 9024, Note_on_c, 1, 67, 75
1, 9024, Note_on_c, 1, 63, 75
1, 9069, Note_on_c, 0, 75, 0
1, 9072, Note_on_c, 0, 75, 75
1, 9087, Note_on_c, 0, 75, 0
1, 9088, Note_on_c, 0, 77, 75
1, 9103, Note_on_c, 0, 77, 0
1, 9104, Note_on_c, 0, 75, 75
1, 9113, Note_on_c, 1, 67, 0
1, 9113, Note_on_c, 1, 63, 0
1, 9119, Note_on_c, 0, 75, 0
1, 9120, Note_on_c, 0, 79, 75
1, 9165, Note_on_c, 0, 79, 0
1, 9168, Note_on_c, 0, 79, 75
1, 9183, Note_on_c, 0, 79, 0
1, 9184, Note_on_c, 0, 80, 75
1, 9199, Note_on_c, 0, 80, 0
1, 9200, Note_on_c, 0, 79, 75
1, 9215, Note_on_c, 0, 79, 0
1, 9216, Note_on_c, 0, 82, 75
1, 9264, Note_on_c, 1, 63, 75
1, 9309, Note_on_c, 1, 63, 0
1, 9312, Note_on_c, 1, 67, 75
1, 9349, Note_on_c, 0, 82, 0
1, 9360, Note_on_c, 0, 79, 75
1, 9375, Note_on_c, 0, 79, 0
1, 9376, Note_on_c, 0, 80, 75
1, 9391, Note_on_c, 0, 80, 0
1, 9392, Note_on_c, 0, 79, 75
1, 9401, Note_on_c, 1, 67, 0
1, 9407, Note_on_c, 0, 79, 0
1, 9408, Note_on_c, 0, 82, 75
1, 9456, Note_on_c, 1, 63, 75
1, 9501, Note_on_c, 1, 63, 0
1, 9504, Note_on_c, 1, 67, 75
1, 9541, Note_on_c, 0, 82, 0
1, 9552, Note_on_c, 0, 79, 75
1, 9575, Note_on_c, 0, 79, 0
1, 9576, Note_on_c, 0, 82, 75
1, 9593, Note_on_c, 1, 67, 0
1, 9599, Note_on_c, 0, 82, 0
1, 9600, Note_on_c, 0, 80, 75
1, 9600, Note_on_c, 1, 65, 75
1, 9600, Note_on_c, 1, 58, 75
1, 9645, Note_on_c, 0, 80, 0
1, 9648, Note_on_c, 0, 80, 75
1, 9689, Note_on_c, 1, 65, 0
1, 9689, Note_on_c, 1, 58, 0
1, 9693, Note_on_c, 0, 80, 0
1, 9696, Note_on_c, 0, 80, 75
1, 9696, Note_on_c, 1, 62, 75
1, 9696, Note_on_c, 1, 58, 75
1, 9708, Note_on_c, 0, 80, 0
1, 9708, Note_on_c, 0, 82, 75
1, 9720, Note_on_c, 0, 82, 0
1, 9720, Note_on_c, 0, 80, 75
1, 9732, Note_on_c, 0, 80, 0
1, 9732, Note_on_c, 0, 82, 75
1, 9741, Note_on_c, 0, 82, 0
1, 9744, Note_on_c, 0, 79, 75
1, 9767, Note_on_c, 0, 79, 0
1, 9768, Note_on_c, 0, 77, 75
1, 9785, Note_on_c, 1, 62, 0
1, 9785, Note_on_c, 1, 58, 0
1, 9791, Note_on_c, 0, 77, 0
1, 9792, Note_on_c, 0, 79, 75
1, 9792, Note_on_c, 1, 63, 75
1, 9792, Note_on_c, 1, 58, 75
1, 9837, Note_on_c, 0, 79, 0
1, 9840, Note_on_c, 0, 75, 75
1, 9881, Note_on_c, 1, 63, 0
1, 9881, Note_on_c, 1, 58, 0
1, 9885, Note_on_c, 0, 75, 0
1, 9888, Note_on_c, 0, 75, 75
1, 9888, Note_on_c, 1, 67, 75
1, 9888, Note_on_c, 1, 58, 75
1, 9933, Note_on_c, 0, 75, 0
1, 9936, Note_on_c, 0, 79, 75
1, 9951, Note_on_c, 0, 79, 0
1, 9952, Note_on_c, 0, 80, 75
1, 9967, Note_on_c, 0, 80, 0
1, 9968, Note_on_c, 0, 82, 75
1, 9977, Note_on_c, 1, 67, 0
1, 9977, Note_on_c, 1, 58, 0
1, 9983, Note_on_c, 0, 82, 0
1, 9984, Note_on_c, 0, 80, 75
1, 9984, Note_on_c, 1, 65, 75
1, 9984, Note_on_c, 1, 58, 75
1, 10029, Note_on_c, 0, 80, 0
1, 10032, Note_on_c, 0, 80, 75
1, 10073, Note_on_c, 1, 65, 0
1, 10073, Note_on_c, 1, 58, 0
1, 10077, Note_on_c, 0, 80, 0
1, 10080, Note_on_c, 0, 80, 75
1, 10080, Note_on_c, 1, 62, 75
1, 10080, Note_on_c, 1, 58, 75
1, 10092, Note_on_c, 0, 80, 0
1, 10092, Note_on_c, 0, 82, 75
1, 10104, Note_on_c, 0, 82, 0
1, 10104, Note_on_c, 0, 80, 75
1, 10116, Note_on_c, 0, 80, 0
1, 10116, Note_on_c, 0, 82, 75
1, 10125, Note_on_c, 0, 82, 0
1, 10128, Note_on_c, 0, 79, 75
1, 10151, Note_on_c, 0, 79, 0
1, 10152, Note_on_c, 0, 77, 75
1, 10169, Note_on_c, 1, 62, 0
1, 10169, Note_on_c, 1, 58, 0
1, 10175, Note_on_c, 0, 77, 0
1, 10176, Note_on_c, 0, 79, 75
1, 10176, Note_on_c, 1, 63, 75
1, 10199, Note_on_c, 0, 79, 0
1, 10200, Note_on_c, 0, 75, 75
1, 10223, Note_on_c, 0, 75, 0
1, 10224, Note_on_c, 0, 74, 75
1, 10247, Note_on_c, 0, 74, 0
1, 10248, Note_on_c, 0, 75, 75
1, 10265, Note_on_c, 1, 63, 0
1, 10271, Note_on_c, 0, 75, 0
1, 10272, Note_on_c, 0, 77, 75
1, 10295, Note_on_c, 0, 77, 0
1, 10296, Note_on_c, 0, 75, 75
1, 10319, Note_on_c, 0, 75, 0
1, 10320, Note_on_c, 0, 74, 75
1, 10320, Note_on_c, 1, 55, 75
1, 10343, Note_on_c, 0, 74, 0
1, 10344, Note_on_c, 0, 75, 75
1, 10365, Note_on_c, 1, 55, 0
1, 10367, Note_on_c, 0, 75, 0
1, 10368, Note_on_c, 0, 72, 75
1, 10368, Note_on_c, 1, 63, 75
1, 10368, Note_on_c, 1, 56, 75
1, 10391, Note_on_c, 0, 72, 0
1, 10392, Note_on_c, 0, 75, 75
1, 10415, Note_on_c, 0, 75, 0
1, 10416, Note_on_c, 0, 74, 75
1, 10439, Note_on_c, 0, 74, 0
1, 10440, Note_on_c, 0, 72, 75
1, 10457, Note_on_c, 1, 63, 0
1, 10457, Note_on_c, 1, 56, 0
1, 10463, Note_on_c, 0, 72, 0
1, 10464, Note_on_c, 0, 70, 75
1, 10464, Note_on_c, 1, 63, 75
1, 10464, Note_on_c, 1, 55, 75
1, 10509, Note_on_c, 0, 70, 0
1, 10512, Note_on_c, 0, 75, 75
1, 10553, Note_on_c, 1, 63, 0
1, 10553, Note_on_c, 1, 55, 0
1, 10557, Note_on_c, 0, 75, 0
1, 10560, Note_on_c, 0, 68, 75
1, 10560, Note_on_c, 1, 62, 75
1, 10560, Note_on_c, 1, 53, 75
1, 10583, Note_on_c, 0, 68, 0
1, 10584, Note_on_c, 0, 72, 75
1, 10607, Note_on_c, 0, 72, 0
1, 10608, Note_on_c, 0, 70, 75
1, 10631, Note_on_c, 0, 70, 0
1, 10632, Note_on_c, 0, 68, 75
1, 10649, Note_on_c, 1, 62, 0
1, 10649, Note_on_c, 1, 53, 0
1, 10655, Note_on_c, 0, 68, 0
1, 10656, Note_on_c, 0, 67, 75
1, 10656, Note_on_c, 1, 63, 75
1, 10656, Note_on_c, 1, 51, 75
1, 10679, Note_on_c, 0, 67, 0
1, 10680, Note_on_c, 0, 70, 75
1, 10703, Note_on_c, 0, 70, 0
1, 10704, Note_on_c, 0, 68, 75
1, 10727, Note_on_c, 0, 68, 0
1, 10728, Note_on_c, 0, 67, 75
1, 10745, Note_on_c, 1, 63, 0
1, 10745, Note_on_c, 1, 51, 0
1, 10751, Note_on_c, 0, 67, 0
1, 10752, Note_on_c, 0, 65, 75
1, 10752, Note_on_c, 1, 56, 75
1, 10775, Note_on_c, 0, 65, 0
1, 10776, Note_on_c, 0, 68, 75
1, 10799, Note_on_c, 0, 68, 0
1, 10800, Note_on_c, 0, 67, 75
1, 10823, Note_on_c, 0, 67, 0
1, 10824, Note_on_c, 0, 65, 75
1, 10847, Note_on_c, 0, 65, 0
1, 10848, Note_on_c, 0, 72, 75
1, 10885, Note_on_c, 1, 56, 0
1, 10893, Note_on_c, 0, 72, 0
1, 10896, Note_on_c, 0, 63, 75
1, 10896, Note_on_c, 1, 57, 75
1, 10941, Note_on_c, 0, 63, 0
1, 10941, Note_on_c, 1, 57, 0
1, 10944, Note_on_c, 0, 63, 75
1, 10944, Note_on_c, 1, 58, 75
1, 10956, Note_on_c, 0, 63, 0
1, 10956, Note_on_c, 0, 65, 75
1, 10968, Note_on_c, 0, 65, 0
1, 10968, Note_on_c, 0, 63, 75
1, 10980, Note_on_c, 0, 63, 0
1, 10980, Note_on_c, 0, 65, 75
1, 10989, Note_on_c, 0, 65, 0
1, 10989, Note_on_c, 1, 58, 0
1, 10992, Note_on_c, 0, 62, 75
1, 10992, Note_on_c, 1, 53, 75
1, 11037, Note_on_c, 0, 62, 0
1, 11037, Note_on_c, 1, 53, 0
1, 11040, Note_on_c, 1, 46, 75
1, 11088, Note_on_c, 0, 77, 70
1, 11103, Note_on_c, 0, 77, 0
1, 11104, Note_on_c, 0, 79, 70
1, 11119, Note_on_c, 0, 79, 0
1, 11120, Note_on_c, 0, 77, 70
1, 11129, Note_on_c, 1, 46, 0
1, 11135, Note_on_c, 0, 77, 0
1, 11136, Note_on_c, 0, 82, 70
1, 11184, Note_on_c, 1, 70, 70
1, 11225, Note_on_c, 0, 82, 0
1, 11229, Note_on_c, 1, 70, 0
1, 11232, Note_on_c, 1, 74, 70
1, 11280, Note_on_c, 0, 78, 70
1, 11321, Note_on_c, 1, 74, 0
1, 11328, Note_on_c, 0, 78, 0
1, 11328, Note_on_c, 0, 79, 70
1, 11376, Note_on_c, 1, 63, 70
1, 11417, Note_on_c, 0, 79, 0
1, 11421, Note_on_c, 1, 63, 0
1, 11424, Note_on_c, 1, 51, 70
1, 11472, Note_on_c, 0, 79, 70
1, 11487, Note_on_c, 0, 79, 0
1, 11488, Note_on_c, 0, 81, 70
1, 11503, Note_on_c, 0, 81, 0
1, 11504, Note_on_c, 0, 79, 70
1, 11513, Note_on_c, 1, 51, 0
1, 11519, Note_on_c, 0, 79, 0
1, 11520, Note_on_c, 0, 84, 70
1, 11568, Note_on_c, 1, 72, 70
1, 11609, Note_on_c, 0, 84, 0
1, 11613, Note_on_c, 1, 72, 0
1, 11616, Note_on_c, 1, 76, 70
1, 11664, Note_on_c, 0, 79, 70
1, 11705, Note_on_c, 1, 76, 0
1, 11712, Note_on_c, 0, 79, 0
1, 11712, Note_on_c, 0, 81, 70
1, 11760, Note_on_c, 1, 65, 70
1, 11801, Note_on_c, 0, 81, 0
1, 11805, Note_on_c, 1, 65, 0
1, 11808, Note_on_c, 1, 53, 70
1, 11856, Note_on_c, 0, 84, 70
1, 11879, Note_on_c, 0, 84, 0
1, 11880, Note_on_c, 0, 81, 70
1, 11897, Note_on_c, 1, 53, 0
1, 11903, Note_on_c, 0, 81, 0
1, 11904, Note_on_c, 0, 75, 75
1, 11904, Note_on_c, 1, 69, 66
1, 11904, Note_on_c, 1, 65, 66
1, 11951, Note_on_c, 1, 69, 0
1, 11951, Note_on_c, 1, 65, 0
1, 11952, Note_on_c, 1, 69, 66
1, 11952, Note_on_c, 1, 65, 66
1, 11999, Note_on_c, 1, 69, 0
1, 11999, Note_on_c, 1, 65, 0
1, 12000, Note_on_c, 1, 69, 66
1, 12000, Note_on_c, 1, 65, 66
1, 12037, Note_on_c, 0, 75, 0
1, 12047, Note_on_c, 1, 69, 0
1, 12047, Note_on_c, 1, 65, 0
1, 12048, Note_on_c, 0, 79, 75
1, 12048, Note_on_c, 1, 69, 66
1, 12048, Note_on_c, 1, 65, 66
1, 12063, Note_on_c, 0, 79, 0
1, 12064, Note_on_c, 0, 77, 75
1, 12079, Note_on_c, 0, 77, 0
1, 12080, Note_on_c, 0, 75, 75
1, 12095, Note_on_c, 0, 75, 0
1, 12095, Note_on_c, 1, 69, 0
1, 12095, Note_on_c, 1, 65, 0
1, 12096, Note_on_c, 0, 74, 75
1, 12096, Note_on_c, 1, 70, 66
1, 12096, Note_on_c, 1, 65, 66
1, 12141, Note_on_c, 0, 74, 0
1, 12143, Note_on_c, 1, 70, 0
1, 12143, Note_on_c, 1, 65, 0
1, 12144, Note_on_c, 0, 77, 75
1, 12144, Note_on_c, 1, 70, 66
1, 12144, Note_on_c, 1, 65, 66
1, 12189, Note_on_c, 0, 77, 0
1, 12191, Note_on_c, 1, 70, 0
1, 12191, Note_on_c, 1, 65, 0
1, 12192, Note_on_c, 1, 70, 66
1, 12192, Note_on_c, 1, 65, 66
1, 12239, Note_on_c, 1, 70, 0
1, 12239, Note_on_c, 1, 65, 0
1, 12240, Note_on_c, 0, 82, 75
1, 12240, Note_on_c, 1, 70, 66
1, 12240, Note_on_c, 1, 65, 66
1, 12255, Note_on_c, 0, 82, 0
1, 12256, Note_on_c, 0, 84, 75
1, 12271, Note_on_c, 0, 84, 0
1, 12272, Note_on_c, 0, 86, 75
1, 12287, Note_on_c, 0, 86, 0
1, 12287, Note_on_c, 1, 70, 0
1, 12287, Note_on_c, 1, 65, 0
1, 12288, Note_on_c, 0, 84, 75
1, 12288, Note_on_c, 1, 69, 66
1, 12288, Note_on_c, 1, 65, 66
1, 12333, Note_on_c, 0, 84, 0
1, 12335, Note_on_c, 1, 69, 0
1, 12335, Note_on_c, 1, 65, 0
1, 12336, Note_on_c, 0, 81, 75
1, 12336, Note_on_c, 1, 69, 66
1, 12336, Note_on_c, 1, 65, 66
1, 12381, Note_on_c, 0, 81, 0
1, 12383, Note_on_c, 1, 69, 0
1, 12383, Note_on_c, 1, 65, 0
1, 12384, Note_on_c, 0, 77, 75
1, 12384, Note_on_c, 1, 69, 66
1, 12384, Note_on_c, 1, 65, 66
1, 12429, Note_on_c, 0, 77, 0
1, 12431, Note_on_c, 1, 69, 0
1, 12431, Note_on_c, 1, 65, 0
1, 12432, Note_on_c, 0, 75, 75
1, 12432, Note_on_c, 1, 69, 66
1, 12432, Note_on_c, 1, 65, 66
1, 12477, Note_on_c, 0, 75, 0
1, 12479, Note_on_c, 1, 69, 0
1, 12479, Note_on_c, 1, 65, 0
1, 12480, Note_on_c, 0, 74, 75
1, 12480, Note_on_c, 1, 70, 75
1, 12503, Note_on_c, 0, 74, 0
1, 12504, Note_on_c, 0, 82, 75
1, 12527, Note_on_c, 0, 82, 0
1, 12528, Note_on_c, 0, 81, 75
1, 12551, Note_on_c, 0, 81, 0
1, 12552, Note_on_c, 0, 79, 75
1, 12569, Note_on_c, 1, 70, 0
1, 12575, Note_on_c, 0, 79, 0
1, 12576, Note_on_c, 0, 77, 75
1, 12596, Note_on_c, 0, 77, 0
1, 12624, Note_on_c, 0, 77, 75
1, 12669, Note_on_c, 0, 77, 0
1, 12672, Note_on_c, 0, 79, 75
1, 12685, Note_on_c, 0, 79, 0
1, 12686, Note_on_c, 0, 77, 75
1, 12699, Note_on_c, 0, 77, 0
1, 12700, Note_on_c, 0, 79, 75
1, 12713, Note_on_c, 0, 79, 0
1, 12714, Note_on_c, 0, 77, 75
1, 12720, Note_on_c, 1, 69, 75
1, 12720, Note_on_c, 1, 65, 75
1, 12727, Note_on_c, 0, 77, 0
1, 12728, Note_on_c, 0, 79, 75
1, 12741, Note_on_c, 0, 79, 0
1, 12742, Note_on_c, 0, 77, 75
1, 12755, Note_on_c, 0, 77, 0
1, 12756, Note_on_c, 0, 79, 75
1, 12765, Note_on_c, 1, 69, 0
1, 12765, Note_on_c, 1, 65, 0
1, 12768, Note_on_c, 1, 70, 75
1, 12768, Note_on_c, 1, 67, 75
1, 12769, Note_on_c, 0, 79, 0
1, 12770, Note_on_c, 0, 77, 75
1, 12783, Note_on_c, 0, 77, 0
1, 12784, Note_on_c, 0, 79, 75
1, 12797, Note_on_c, 0, 79, 0
1, 12798, Note_on_c, 0, 77, 75
1, 12811, Note_on_c, 0, 77, 0
1, 12812, Note_on_c, 0, 75, 75
1, 12813, Note_on_c, 1, 70, 0
1, 12813, Note_on_c, 1, 67, 0
1, 12816, Note_on_c, 1, 72, 75
1, 12816, Note_on_c, 1, 69, 75
1, 12861, Note_on_c, 1, 72, 0
1, 12861, Note_on_c, 1, 69, 0
1, 12863, Note_on_c, 0, 75, 0
1, 12864, Note_on_c, 0, 74, 75
1, 12864, Note_on_c, 1, 70, 75
1, 12887, Note_on_c, 0, 74, 0
1, 12888, Note_on_c, 0, 77, 75
1, 12909, Note_on_c, 1, 70, 0
1, 12911, Note_on_c, 0, 77, 0
1, 12912, Note_on_c, 0, 75, 75
1, 12935, Note_on_c, 0, 75, 0
1, 12936, Note_on_c, 0, 74, 75
1, 12959, Note_on_c, 0, 74, 0
1, 12960, Note_on_c, 0, 79, 75
1, 12960, Note_on_c, 1, 63, 75
1, 12960, Note_on_c, 1, 51, 75
1, 12983, Note_on_c, 0, 79, 0
1, 12984, Note_on_c, 0, 75, 75
1, 13007, Note_on_c, 0, 75, 0
1, 13008, Note_on_c, 0, 74, 75
1, 13031, Note_on_c, 0, 74, 0
1, 13032, Note_on_c, 0, 72, 75
1, 13049, Note_on_c, 1, 63, 0
1, 13049, Note_on_c, 1, 51, 0
1, 13055, Note_on_c, 0, 72, 0
1, 13056, Note_on_c, 0, 77, 75
1, 13056, Note_on_c, 1, 62, 75
1, 13056, Note_on_c, 1, 50, 75
1, 13079, Note_on_c, 0, 77, 0
1, 13080, Note_on_c, 0, 74, 75
1, 13103, Note_on_c, 0, 74, 0
1, 13104, Note_on_c, 0, 72, 75
1, 13127, Note_on_c, 0, 72, 0
1, 13128, Note_on_c, 0, 70, 75
1, 13145, Note_on_c, 1, 62, 0
1, 13145, Note_on_c, 1, 50, 0
1, 13151, Note_on_c, 0, 70, 0
1, 13152, Note_on_c, 0, 75, 75
1, 13152, Note_on_c, 1, 60, 75
1, 13152, Note_on_c, 1, 48, 75
1, 13175, Note_on_c, 0, 75, 0
1, 13176, Note_on_c, 0, 72, 75
1, 13199, Note_on_c, 0, 72, 0
1, 13200, Note_on_c, 0, 70, 75
1, 13223, Note_on_c, 0, 70, 0
1, 13224, Note_on_c, 0, 69, 75
1, 13241, Note_on_c, 1, 60, 0
1, 13241, Note_on_c, 1, 48, 0
1, 13247, Note_on_c, 0, 69, 0
1, 13248, Note_on_c, 0, 70, 75
1, 13248, Note_on_c, 1, 58, 75
1, 13248, Note_on_c, 1, 46, 75
1, 13271, Note_on_c, 0, 70, 0
1, 13272, Note_on_c, 0, 65, 75
1, 13295, Note_on_c, 0, 65, 0
1, 13296, Note_on_c, 0, 63, 75
1, 13319, Note_on_c, 0, 63, 0
1, 13320, Note_on_c, 0, 62, 75
1, 13337, Note_on_c, 1, 58, 0
1, 13337, Note_on_c, 1, 46, 0
1, 13343, Note_on_c, 0, 62, 0
1, 13344, Note_on_c, 0, 67, 75
1, 13344, Note_on_c, 1, 51, 75
1, 13344, Note_on_c, 1, 39, 75
1, 13367, Note_on_c, 0, 67, 0
1, 13368, Note_on_c, 0, 63, 75
1, 13391, Note_on_c, 0, 63, 0
1, 13392, Note_on_c, 0, 62, 75
1, 13415, Note_on_c, 0, 62, 0
1, 13416, Note_on_c, 0, 60, 75
1, 13433, Note_on_c, 1, 51, 0
1, 13433, Note_on_c, 1, 39, 0
1, 13439, Note_on_c, 0, 60, 0
1, 13440, Note_on_c, 0, 65, 75
1, 13440, Note_on_c, 1, 50, 75
1, 13440, Note_on_c, 1, 38, 75
1, 13463, Note_on_c, 0, 65, 0
1, 13464, Note_on_c, 0, 62, 75
1, 13487, Note_on_c, 0, 62, 0
1, 13488, Note_on_c, 0, 60, 75
1, 13511, Note_on_c, 0, 60, 0
1, 13512, Note_on_c, 0, 58, 75
1, 13529, Note_on_c, 1, 50, 0
1, 13529, Note_on_c, 1, 38, 0
1, 13535, Note_on_c, 0, 58, 0
1, 13536, Note_on_c, 0, 63, 75
1, 13536, Note_on_c, 1, 48, 75
1, 13536, Note_on_c, 1, 36, 75
1, 13559, Note_on_c, 0, 63, 0
1, 13560, Note_on_c, 0, 60, 75
1, 13583, Note_on_c, 0, 60, 0
1, 13584, Note_on_c, 0, 58, 75
1, 13607, Note_on_c, 0, 58, 0
1, 13608, Note_on_c, 0, 57, 75
1, 13625, Note_on_c, 1, 48, 0
1, 13625, Note_on_c, 1, 36, 0
1, 13631, Note_on_c, 0, 57, 0
1, 13632, Note_on_c, 1, 46, 75
1, 13632, Note_on_c, 1, 34, 75
1, 13656, Note_on_c, 0, 58, 75
1, 13679, Note_on_c, 0, 58, 0
1, 13680, Note_on_c, 0, 60, 75
1, 13703, Note_on_c, 0, 60, 0
1, 13704, Note_on_c, 0, 62, 75
1, 13721, Note_on_c, 1, 46, 0
1, 13721, Note_on_c, 1, 34, 0
1, 13727, Note_on_c, 0, 62, 0
1, 13728, Note_on_c, 0, 63, 75
1, 13751, Note_on_c, 0, 63, 0
1, 13752, Note_on_c, 0, 65, 75
1, 13775, Note_on_c, 0, 65, 0
1, 13776, Note_on_c, 0, 67, 75
1, 13799, Note_on_c, 0, 67, 0
1, 13800, Note_on_c, 0, 69, 75
1, 13823, Note_on_c, 0, 69, 0
1, 13824, Note_on_c, 0, 70, 75
1, 13848, Note_on_c, 1, 46, 75
1, 13871, Note_on_c, 1, 46, 0
1, 13872, Note_on_c, 1, 48, 75
1, 13895, Note_on_c, 1, 48, 0
1, 13896, Note_on_c, 1, 50, 75
1, 13913, Note_on_c, 0, 70, 0
1, 13919, Note_on_c, 1, 50, 0
1, 13920, Note_on_c, 1, 51, 75
1, 13943, Note_on_c, 1, 51, 0
1, 13944, Note_on_c, 1, 53, 75
1, 13967, Note_on_c, 1, 53, 0
1, 13968, Note_on_c, 1, 55, 75
1, 13991, Note_on_c, 1, 55, 0
1, 13992, Note_on_c, 1, 57, 75
1, 14015, Note_on_c, 1, 57, 0
1, 14016, Note_on_c, 1, 58, 75
1, 14040, Note_on_c, 0, 70, 75
1, 14063, Note_on_c, 0, 70, 0
1, 14064, Note_on_c, 0, 72, 75
1, 14087, Note_on_c, 0, 72, 0
1, 14088, Note_on_c, 0, 74, 75
1, 14105, Note_on_c, 1, 58, 0
1, 14111, Note_on_c, 0, 74, 0
1, 14112, Note_on_c, 0, 75, 75
1, 14135, Note_on_c, 0, 75, 0
1, 14136, Note_on_c, 0, 77, 75
1, 14159, Note_on_c, 0, 77, 0
1, 14160, Note_on_c, 0, 79, 75
1, 14183, Note_on_c, 0, 79, 0
1, 14184, Note_on_c, 0, 81, 75
1, 14207, Note_on_c, 0, 81, 0
1, 14208, Note_on_c, 0, 82, 75
1, 14208, Note_on_c, 1, 55, 70
1, 14231, Note_on_c, 1, 55, 0
1, 14232, Note_on_c, 1, 64, 70
1, 14255, Note_on_c, 1, 64, 0
1, 14256, Note_on_c, 1, 58, 70
1, 14279, Note_on_c, 1, 58, 0
1, 14280, Note_on_c, 1, 64, 70
1, 14303, Note_on_c, 1, 64, 0
1, 14304, Note_on_c, 1, 55, 70
1, 14327, Note_on_c, 1, 55, 0
1, 14328, Note_on_c, 1, 64, 70
1, 14341, Note_on_c, 0, 82, 0
1, 14351, Note_on_c, 1, 64, 0
1, 14352, Note_on_c, 0, 86, 75
1, 14352, Note_on_c, 1, 58, 70
1, 14367, Note_on_c, 0, 86, 0
1, 14368, Note_on_c, 0, 84, 75
1, 14375, Note_on_c, 1, 58, 0
1, 14376, Note_on_c, 1, 64, 70
1, 14383, Note_on_c, 0, 84, 0
1, 14384, Note_on_c, 0, 82, 75
1, 14399, Note_on_c, 0, 82, 0
1, 14399, Note_on_c, 1, 64, 0
1, 14400, Note_on_c, 0, 81, 75
1, 14400, Note_on_c, 1, 53, 70
1, 14423, Note_on_c, 1, 53, 0
1, 14424, Note_on_c, 1, 65, 70
1, 14447, Note_on_c, 1, 65, 0
1, 14448, Note_on_c, 1, 57, 70
1, 14471, Note_on_c, 1, 57, 0
1, 14472, Note_on_c, 1, 65, 70
1, 14489, Note_on_c, 0, 81, 0
1, 14495, Note_on_c, 1, 65, 0
1, 14496, Note_on_c, 0, 84, 75
1, 14496, Note_on_c, 1, 53, 70
1, 14519, Note_on_c, 1, 53, 0
1, 14520, Note_on_c, 1, 65, 70
1, 14543, Note_on_c, 1, 65, 0
1, 14544, Note_on_c, 1, 57, 70
1, 14567, Note_on_c, 1, 57, 0
1, 14568, Note_on_c, 1, 65, 70
1, 14585, Note_on_c, 0, 84, 0
1, 14591, Note_on_c, 1, 65, 0
1, 14592, Note_on_c, 0, 75, 75
1, 14592, Note_on_c, 1, 57, 70
1, 14615, Note_on_c, 1, 57, 0
1, 14616, Note_on_c, 1, 65, 70
1, 14639, Note_on_c, 1, 65, 0
1, 14640, Note_on_c, 1, 60, 70
1, 14663, Note_on_c, 1, 60, 0
1, 14664, Note_on_c, 1, 65, 70
1, 14687, Note_on_c, 1, 65, 0
1, 14688, Note_on_c, 1, 57, 70
1, 14711, Note_on_c, 1, 57, 0
1, 14712, Note_on_c, 1, 65, 70
1, 14725, Note_on_c, 0, 75, 0
1, 14735, Note_on_c, 1, 65, 0
1, 14736, Note_on_c, 0, 79, 75
1, 14736, Note_on_c, 1, 60, 70
1, 14751, Note_on_c, 0, 79, 0
1, 14752, Note_on_c, 0, 77, 75
1, 14759, Note_on_c, 1, 60, 0
1, 14760, Note_on_c, 1, 65, 70
1, 14767, Note_on_c, 0, 77, 0
1, 14768, Note_on_c, 0, 75, 75
1, 14783, Note_on_c, 0, 75, 0
1, 14783, Note_on_c, 1, 65, 0
1, 14784, Note_on_c, 0, 74, 75
1, 14784, Note_on_c, 1, 58, 70
1, 14807, Note_on_c, 1, 58, 0
1, 14808, Note_on_c, 1, 65, 70
1, 14831, Note_on_c, 1, 65, 0
1, 14832, Note_on_c, 1, 62, 70
1, 14855, Note_on_c, 1, 62, 0
1, 14856, Note_on_c, 1, 65, 70
1, 14873, Note_on_c, 0, 74, 0
1, 14879, Note_on_c, 1, 65, 0
1, 14880, Note_on_c, 0, 77, 75
1, 14880, Note_on_c, 1, 58, 70
1, 14903, Note_on_c, 1, 58, 0
1, 14904, Note_on_c, 1, 65, 70
1, 14927, Note_on_c, 1, 65, 0
1, 14928, Note_on_c, 1, 62, 70
1, 14951, Note_on_c, 1, 62, 0
1, 14952, Note_on_c, 1, 65, 70
1, 14969, Note_on_c, 0, 77, 0
1, 14975, Note_on_c, 1, 65, 0
1, 14976, Note_on_c, 0, 75, 75
1, 14976, Note_on_c, 1, 57, 70
1, 14999, Note_on_c, 1, 57, 0
1, 15000, Note_on_c, 1, 65, 70
1, 15023, Note_on_c, 1, 65, 0
1, 15024, Note_on_c, 1, 60, 70
1, 15047, Note_on_c, 1, 60, 0
1, 15048, Note_on_c, 1, 65, 70
1, 15071, Note_on_c, 1, 65, 0
1, 15072, Note_on_c, 1, 57, 70
1, 15095, Note_on_c, 1, 57, 0
1, 15096, Note_on_c, 1, 65, 70
1, 15109, Note_on_c, 0, 75, 0
1, 15119, Note_on_c, 1, 65, 0
1, 15120, Note_on_c, 0, 79, 75
1, 15120, Note_on_c, 1, 60, 70
1, 15135, Note_on_c, 0, 79, 0
1, 15136, Note_on_c, 0, 77, 75
1, 15143, Note_on_c, 1, 60, 0
1, 15144, Note_on_c, 1, 65, 70
1, 15151, Note_on_c, 0, 77, 0
1, 15152, Note_on_c, 0, 75, 75
1, 15167, Note_on_c, 0, 75, 0
1, 15167, Note_on_c, 1, 65, 0
1, 15168, Note_on_c, 0, 74, 75
1, 15168, Note_on_c, 1, 58, 70
1, 15191, Note_on_c, 1, 58, 0
1, 15192, Note_on_c, 1, 65, 70
1, 15215, Note_on_c, 1, 65, 0
1, 15216, Note_on_c, 1, 62, 70
1, 15239, Note_on_c, 1, 62, 0
1, 15240, Note_on_c, 1, 65, 70
1, 15263, Note_on_c, 1, 65, 0
1, 15264, Note_on_c, 1, 58, 70
1, 15287, Note_on_c, 1, 58, 0
1, 15288, Note_on_c, 1, 65, 70
1, 15301, Note_on_c, 0, 74, 0
1, 15311, Note_on_c, 1, 65, 0
1, 15312, Note_on_c, 0, 77, 75
1, 15312, Note_on_c, 1, 62, 70
1, 15327, Note_on_c, 0, 77, 0
1, 15328, Note_on_c, 0, 75, 75
1, 15335, Note_on_c, 1, 62, 0
1, 15336, Note_on_c, 1, 65, 70
1, 15343, Note_on_c, 0, 75, 0
1, 15344, Note_on_c, 0, 74, 75
1, 15359, Note_on_c, 0, 74, 0
1, 15359, Note_on_c, 1, 65, 0
1, 15360, Note_on_c, 0, 72, 75
1, 15360, Note_on_c, 1, 63, 70
1, 15405, Note_on_c, 0, 72, 0
1, 15408, Note_on_c, 0, 78, 75
1, 15432, Note_on_c, 0, 78, 0
1, 15432, Note_on_c, 0, 79, 75
1, 15449, Note_on_c, 1, 63, 0
1, 15455, Note_on_c, 0, 79, 0
1, 15456, Note_on_c, 0, 77, 75
1, 15479, Note_on_c, 0, 77, 0
1, 15480, Note_on_c, 0, 75, 75
1, 15503, Note_on_c, 0, 75, 0
1, 15504, Note_on_c, 0, 74, 75
1, 15527, Note_on_c, 0, 74, 0
1, 15528, Note_on_c, 0, 72, 75
1, 15551, Note_on_c, 0, 72, 0
1, 15552, Note_on_c, 0, 70, 75
1, 15600, Note_on_c, 1, 62, 70
1, 15641, Note_on_c, 0, 70, 0
1, 15645, Note_on_c, 1, 62, 0
1, 15648, Note_on_c, 0, 74, 75
1, 15648, Note_on_c, 1, 63, 70
1, 15671, Note_on_c, 0, 74, 0
1, 15672, Note_on_c, 0, 72, 75
1, 15693, Note_on_c, 1, 63, 0
1, 15695, Note_on_c, 0, 72, 0
1, 15696, Note_on_c, 0, 70, 75
1, 15696, Note_on_c, 1, 65, 70
1, 15719, Note_on_c, 0, 70, 0
1, 15720, Note_on_c, 0, 69, 75
1, 15741, Note_on_c, 1, 65, 0
1, 15743, Note_on_c, 0, 69, 0
1, 15744, Note_on_c, 0, 70, 75
1, 15744, Note_on_c, 1, 67, 75
1, 15744, Note_on_c, 1, 70, 64
1, 15789, Note_on_c, 0, 70, 0
1, 15792, Note_on_c, 0, 81, 73
1, 15816, Note_on_c, 0, 81, 0
1, 15816, Note_on_c, 0, 82, 72
1, 15833, Note_on_c, 1, 67, 0
1, 15833, Note_on_c, 1, 70, 0
1, 15839, Note_on_c, 0, 82, 0
1, 15840, Note_on_c, 0, 81, 71
1, 15863, Note_on_c, 0, 81, 0
1, 15864, Note_on_c, 0, 79, 71
1, 15887, Note_on_c, 0, 79, 0
1, 15888, Note_on_c, 0, 77, 70
1, 15888, Note_on_c, 1, 70, 70
1, 15888, Note_on_c, 1, 67, 70
1, 15911, Note_on_c, 0, 77, 0
1, 15912, Note_on_c, 0, 76, 69
1, 15933, Note_on_c, 1, 70, 0
1, 15933, Note_on_c, 1, 67, 0
1, 15935, Note_on_c, 0, 76, 0
1, 15936, Note_on_c, 0, 77, 68
1, 15936, Note_on_c, 1, 69, 68
1, 15936, Note_on_c, 1, 65, 68
1, 15981, Note_on_c, 0, 77, 0
1, 15984, Note_on_c, 0, 81, 67
1, 16008, Note_on_c, 0, 81, 0
1, 16008, Note_on_c, 0, 82, 66
1, 16025, Note_on_c, 1, 69, 0
1, 16025, Note_on_c, 1, 65, 0
1, 16031, Note_on_c, 0, 82, 0
1, 16032, Note_on_c, 0, 81, 65
1, 16055, Note_on_c, 0, 81, 0
1, 16056, Note_on_c, 0, 79, 64
1, 16079, Note_on_c, 0, 79, 0
1, 16080, Note_on_c, 0, 77, 63
1, 16080, Note_on_c, 1, 70, 63
1, 16080, Note_on_c, 1, 67, 63
1, 16103, Note_on_c, 0, 77, 0
1, 16104, Note_on_c, 0, 76, 63
1, 16125, Note_on_c, 1, 70, 0
1, 16125, Note_on_c, 1, 67, 0
1, 16127, Note_on_c, 0, 76, 0
1, 16128, Note_on_c, 0, 77, 62
1, 16128, Note_on_c, 1, 69, 62
1, 16128, Note_on_c, 1, 65, 62
1, 16217, Note_on_c, 0, 77, 0
1, 16217, Note_on_c, 1, 69, 0
1, 16217, Note_on_c, 1, 65, 0
1, 16272, Note_on_c, 0, 77, 80
1, 16287, Note_on_c, 0, 77, 0
1, 16288, Note_on_c, 0, 79, 80
1, 16303, Note_on_c, 0, 79, 0
1, 16304, Note_on_c, 0, 77, 80
1, 16319, Note_on_c, 0, 77, 0
1, 16320, Note_on_c, 0, 82, 80
1, 16320, Note_on_c, 1, 58, 80
1, 16320, Note_on_c, 1, 53, 80
1, 16320, Note_on_c, 1, 50, 80
1, 16320, Note_on_c, 1, 46, 80
1, 16365, Note_on_c, 0, 82, 0
1, 16368, Note_on_c, 0, 74, 80
1, 16383, Note_on_c, 0, 74, 0
1, 16384, Note_on_c, 0, 75, 80
1, 16399, Note_on_c, 0, 75, 0
1, 16400, Note_on_c, 0, 74, 80
1, 16409, Note_on_c, 1, 58, 0
1, 16409, Note_on_c, 1, 53, 0
1, 16409, Note_on_c, 1, 50, 0
1, 16409, Note_on_c, 1, 46, 0
1, 16415, Note_on_c, 0, 74, 0
1, 16416, Note_on_c, 0, 77, 80
1, 16461, Note_on_c, 0, 77, 0
1, 16464, Note_on_c, 0, 70, 80
1, 16479, Note_on_c, 0, 70, 0
1, 16480, Note_on_c, 0, 72, 80
1, 16495, Note_on_c, 0, 72, 0
1, 16496, Note_on_c, 0, 70, 80
1, 16511, Note_on_c, 0, 70, 0
1, 16512, Note_on_c, 0, 74, 80
1, 16557, Note_on_c, 0, 74, 0
1, 16560, Note_on_c, 0, 65, 80
1, 16575, Note_on_c, 0, 65, 0
1, 16576, Note_on_c, 0, 67, 80
1, 16591, Note_on_c, 0, 67, 0
1, 16592, Note_on_c, 0, 65, 80
1, 16607, Note_on_c, 0, 65, 0
1, 16608, Note_on_c, 0, 70, 80
1, 16653, Note_on_c, 0, 70, 0
1, 16656, Note_on_c, 0, 62, 80
1, 16656, Note_on_c, 1, 50, 80
1, 16656, Note_on_c, 1, 38, 80
1, 16701, Note_on_c, 0, 62, 0
1, 16701, Note_on_c, 1, 50, 0
1, 16701, Note_on_c, 1, 38, 0
1, 16704, Note_on_c, 0, 63, 80
1, 16704, Note_on_c, 1, 51, 80
1, 16704, Note_on_c, 1, 39, 80
1, 16716, Note_on_c, 0, 63, 0
1, 16716, Note_on_c, 0, 65, 80
1, 16728, Note_on_c, 0, 65, 0
1, 16728, Note_on_c, 0, 63, 80
1, 16740, Note_on_c, 0, 63, 0
1, 16740, Note_on_c, 0, 65, 80
1, 16749, Note_on_c, 0, 65, 0
1, 16752, Note_on_c, 0, 62, 80
1, 16775, Note_on_c, 0, 62, 0
1, 16776, Note_on_c, 0, 63, 80
1, 16793, Note_on_c, 1, 51, 0
1, 16793, Note_on_c, 1, 39, 0
1, 16799, Note_on_c, 0, 63, 0
1, 16800, Note_on_c, 0, 65, 80
1, 16800, Note_on_c, 1, 53, 80
1, 16800, Note_on_c, 1, 41, 80
1, 16820, Note_on_c, 0, 65, 0
1, 16848, Note_on_c, 0, 65, 80
1, 16889, Note_on_c, 1, 53, 0
1, 16889, Note_on_c, 1, 41, 0
1, 16893, Note_on_c, 0, 65, 0
1, 16896, Note_on_c, 0, 67, 80
1, 16896, Note_on_c, 1, 55, 80
1, 16896, Note_on_c, 1, 43, 80
1, 16985, Note_on_c, 0, 67, 0
1, 16985, Note_on_c, 1, 55, 0
1, 16985, Note_on_c, 1, 43, 0
1, 17040, Note_on_c, 0, 77, 80
1, 17055, Note_on_c, 0, 77, 0
1, 17056, Note_on_c, 0, 79, 80
1, 17071, Note_on_c, 0, 79, 0
1, 17072, Note_on_c, 0, 77, 80
1, 17087, Note_on_c, 0, 77, 0
1, 17088, Note_on_c, 0, 82, 80
1, 17088, Note_on_c, 1, 58, 80
1, 17088, Note_on_c, 1, 53, 80
1, 17088, Note_on_c, 1, 50, 80
1, 17088, Note_on_c, 1, 46, 80
1, 17133, Note_on_c, 0, 82, 0
1, 17136, Note_on_c, 0, 74, 80
1, 17151, Note_on_c, 0, 74, 0
1, 17152, Note_on_c, 0, 75, 80
1, 17167, Note_on_c, 0, 75, 0
1, 17168, Note_on_c, 0, 74, 80
1, 17177, Note_on_c, 1, 58, 0
1, 17177, Note_on_c, 1, 53, 0
1, 17177, Note_on_c, 1, 50, 0
1, 17177, Note_on_c, 1, 46, 0
1, 17183, Note_on_c, 0, 74, 0
1, 17184, Note_on_c, 0, 77, 80
1, 17229, Note_on_c, 0, 77, 0
1, 17232, Note_on_c, 0, 70, 80
1, 17247, Note_on_c, 0, 70, 0
1, 17248, Note_on_c, 0, 72, 80
1, 17263, Note_on_c, 0, 72, 0
1, 17264, Note_on_c, 0, 70, 80
1, 17279, Note_on_c, 0, 70, 0
1, 17280, Note_on_c, 0, 74, 80
1, 17325, Note_on_c, 0, 74, 0
1, 17328, Note_on_c, 0, 65, 80
1, 17343, Note_on_c, 0, 65, 0
1, 17344, Note_on_c, 0, 67, 80
1, 17359, Note_on_c, 0, 67, 0
1, 17360, Note_on_c, 0, 65, 80
1, 17375, Note_on_c, 0, 65, 0
1, 17376, Note_on_c, 0, 70, 80
1, 17421, Note_on_c, 0, 70, 0
1, 17424, Note_on_c, 0, 62, 80
1, 17424, Note_on_c, 1, 50, 80
1, 17424, Note_on_c, 1, 38, 80
1, 17469, Note_on_c, 0, 62, 0
1, 17469, Note_on_c, 1, 50, 0
1, 17469, Note_on_c, 1, 38, 0
1, 17472, Note_on_c, 0, 63, 80
1, 17472, Note_on_c, 1, 51, 80
1, 17472, Note_on_c, 1, 39, 80
1, 17484, Note_on_c, 0, 63, 0
1, 17484, Note_on_c, 0, 65, 80
1, 17496, Note_on_c, 0, 65, 0
1, 17496, Note_on_c, 0, 63, 80
1, 17508, Note_on_c, 0, 63, 0
1, 17508, Note_on_c, 0, 65, 80
1, 17517, Note_on_c, 0, 65, 0
1, 17520, Note_on_c, 0, 62, 80
1, 17543, Note_on_c, 0, 62, 0
1, 17544, Note_on_c, 0, 63, 80
1, 17561, Note_on_c, 1, 51, 0
1, 17561, Note_on_c, 1, 39, 0
1, 17567, Note_on_c, 0, 63, 0
1, 17568, Note_on_c, 0, 65, 80
1, 17568, Note_on_c, 1, 53, 80
1, 17568, Note_on_c, 1, 41, 80
1, 17588, Note_on_c, 0, 65, 0
1, 17616, Note_on_c, 0, 65, 80
1, 17657, Note_on_c, 1, 53, 0
1, 17657, Note_on_c, 1, 41, 0
1, 17661, Note_on_c, 0, 65, 0
1, 17664, Note_on_c, 0, 58, 80
1, 17664, Note_on_c, 1, 46, 80
1, 17753, Note_on_c, 0, 58, 0
1, 17753, Note_on_c, 1, 46, 0
1, 17808, Note_on_c, 0, 65, 75
1, 17823, Note_on_c, 0, 65, 0
1, 17824, Note_on_c, 0, 67, 75
1, 17839, Note_on_c, 0, 67, 0
1, 17840, Note_on_c, 0, 65, 75
1, 17855, Note_on_c, 0, 65, 0
1, 17856, Note_on_c, 0, 70, 75
1, 17856, Note_on_c, 1, 62, 75
1, 17856, Note_on_c, 1, 58, 75
1, 17901, Note_on_c, 0, 70, 0
1, 17904, Note_on_c, 0, 70, 75
1, 17919, Note_on_c, 0, 70, 0
1, 17920, Note_on_c, 0, 72, 75
1, 17935, Note_on_c, 0, 72, 0
1, 17936, Note_on_c, 0, 70, 75
1, 17945, Note_on_c, 1, 62, 0
1, 17945, Note_on_c, 1, 58, 0
1, 17951, Note_on_c, 0, 70, 0
1, 17952, Note_on_c, 0, 74, 75
1, 17997, Note_on_c, 0, 74, 0
1, 18000, Note_on_c, 0, 74, 75
1, 18015, Note_on_c, 0, 74, 0
1, 18016, Note_on_c, 0, 75, 75
1, 18031, Note_on_c, 0, 75, 0
1, 18032, Note_on_c, 0, 74, 75
1, 18047, Note_on_c, 0, 74, 0
1, 18048, Note_on_c, 0, 77, 75
1, 18096, Note_on_c, 1, 58, 75
1, 18141, Note_on_c, 1, 58, 0
1, 18144, Note_on_c, 1, 62, 75
1, 18181, Note_on_c, 0, 77, 0
1, 18192, Note_on_c, 0, 74, 75
1, 18207, Note_on_c, 0, 74, 0
1, 18208, Note_on_c, 0, 75, 75
1, 18223, Note_on_c, 0, 75, 0
1, 18224, Note_on_c, 0, 74, 75
1, 18233, Note_on_c, 1, 62, 0
1, 18239, Note_on_c, 0, 74, 0
1, 18240, Note_on_c, 0, 77, 75
1, 18288, Note_on_c, 1, 58, 75
1, 18333, Note_on_c, 1, 58, 0
1, 18336, Note_on_c, 1, 62, 75
1, 18373, Note_on_c, 0, 77, 0
1, 18384, Note_on_c, 0, 74, 75
1, 18407, Note_on_c, 0, 74, 0
1, 18408, Note_on_c, 0, 77, 75
1, 18425, Note_on_c, 1, 62, 0
1, 18431, Note_on_c, 0, 77, 0
1, 18432, Note_on_c, 0, 75, 75
1, 18432, Note_on_c, 1, 60, 75
1, 18432, Note_on_c, 1, 53, 75
1, 18452, Note_on_c, 0, 75, 0
1, 18480, Note_on_c, 0, 75, 75
1, 18521, Note_on_c, 1, 60, 0
1, 18521, Note_on_c, 1, 53, 0
1, 18525, Note_on_c, 0, 75, 0
1, 18528, Note_on_c, 0, 75, 75
1, 18528, Note_on_c, 1, 57, 75
1, 18528, Note_on_c, 1, 53, 75
1, 18540, Note_on_c, 0, 75, 0
1, 18540, Note_on_c, 0, 77, 75
1, 18552, Note_on_c, 0, 77, 0
1, 18552, Note_on_c, 0, 75, 75
1, 18564, Note_on_c, 0, 75, 0
1, 18564, Note_on_c, 0, 77, 75
1, 18573, Note_on_c, 0, 77, 0
1, 18576, Note_on_c, 0, 74, 75
1, 18599, Note_on_c, 0, 74, 0
1, 18600, Note_on_c, 0, 72, 75
1, 18617, Note_on_c, 1, 57, 0
1, 18617, Note_on_c, 1, 53, 0
1, 18623, Note_on_c, 0, 72, 0
1, 18624, Note_on_c, 0, 74, 75
1, 18624, Note_on_c, 1, 58, 75
1, 18624, Note_on_c, 1, 53, 75
1, 18669, Note_on_c, 0, 74, 0
1, 18672, Note_on_c, 0, 70, 75
1, 18713, Note_on_c, 1, 58, 0
1, 18713, Note_on_c, 1, 53, 0
1, 18717, Note_on_c, 0, 70, 0
1, 18720, Note_on_c, 0, 70, 75
1, 18720, Note_on_c, 1, 62, 75
1, 18720, Note_on_c, 1, 53, 75
1, 18765, Note_on_c, 0, 70, 0
1, 18768, Note_on_c, 0, 74, 75
1, 18783, Note_on_c, 0, 74, 0
1, 18784, Note_on_c, 0, 75, 75
1, 18799, Note_on_c, 0, 75, 0
1, 18800, Note_on_c, 0, 77, 75
1, 18809, Note_on_c, 1, 62, 0
1, 18809, Note_on_c, 1, 53, 0
1, 18815, Note_on_c, 0, 77, 0
1, 18816, Note_on_c, 0, 75, 75
1, 18816, Note_on_c, 1, 60, 75
1, 18816, Note_on_c, 1, 53, 75
1, 18836, Note_on_c, 0, 75, 0
1, 18864, Note_on_c, 0, 75, 75
1, 18905, Note_on_c, 1, 60, 0
1, 18905, Note_on_c, 1, 53, 0
1, 18909, Note_on_c, 0, 75, 0
1, 18912, Note_on_c, 0, 75, 75
1, 18912, Note_on_c, 1, 57, 75
1, 18912, Note_on_c, 1, 53, 75
1, 18924, Note_on_c, 0, 75, 0
1, 18924, Note_on_c, 0, 77, 75
1, 18936, Note_on_c, 0, 77, 0
1, 18936, Note_on_c, 0, 75, 75
1, 18948, Note_on_c, 0, 75, 0
1, 18948, Note_on_c, 0, 77, 75
1, 18957, Note_on_c, 0, 77, 0
1, 18960, Note_on_c, 0, 74, 75
1, 18983, Note_on_c, 0, 74, 0
1, 18984, Note_on_c, 0, 72, 75
1, 19001, Note_on_c, 1, 57, 0
1, 19001, Note_on_c, 1, 53, 0
1, 19007, Note_on_c, 0, 72, 0
1, 19008, Note_on_c, 0, 74, 80
1, 19008, Note_on_c, 1, 58, 80
1, 19008, Note_on_c, 1, 46, 80
1, 19031, Note_on_c, 0, 74, 0
1, 19032, Note_on_c, 0, 70, 80
1, 19055, Note_on_c, 0, 70, 0
1, 19056, Note_on_c, 0, 69, 80
1, 19079, Note_on_c, 0, 69, 0
1, 19080, Note_on_c, 0, 70, 80
1, 19103, Note_on_c, 0, 70, 0
1, 19104, Note_on_c, 0, 72, 80
1, 19127, Note_on_c, 0, 72, 0
1, 19128, Note_on_c, 0, 70, 80
1, 19151, Note_on_c, 0, 70, 0
1, 19152, Note_on_c, 0, 69, 80
1, 19175, Note_on_c, 0, 69, 0
1, 19176, Note_on_c, 0, 70, 80
1, 19185, Note_on_c, 1, 58, 0
1, 19185, Note_on_c, 1, 46, 0
1, 19199, Note_on_c, 0, 70, 0
1, 19200, Note_on_c, 0, 77, 80
1, 19200, Note_on_c, 1, 56, 80
1, 19200, Note_on_c, 1, 44, 80
1, 19223, Note_on_c, 0, 77, 0
1, 19224, Note_on_c, 0, 74, 80
1, 19247, Note_on_c, 0, 74, 0
1, 19248, Note_on_c, 0, 72, 80
1, 19271, Note_on_c, 0, 72, 0
1, 19272, Note_on_c, 0, 70, 80
1, 19289, Note_on_c, 1, 56, 0
1, 19289, Note_on_c, 1, 44, 0
1, 19295, Note_on_c, 0, 70, 0
1, 19296, Note_on_c, 0, 77, 80
1, 19296, Note_on_c, 1, 56, 80
1, 19296, Note_on_c, 1, 44, 80
1, 19319, Note_on_c, 0, 77, 0
1, 19320, Note_on_c, 0, 74, 80
1, 19343, Note_on_c, 0, 74, 0
1, 19344, Note_on_c, 0, 72, 80
1, 19367, Note_on_c, 0, 72, 0
1, 19368, Note_on_c, 0, 70, 80
1, 19385, Note_on_c, 1, 56, 0
1, 19385, Note_on_c, 1, 44, 0
1, 19391, Note_on_c, 0, 70, 0
1, 19392, Note_on_c, 0, 75, 80
1, 19392, Note_on_c, 1, 55, 80
1, 19392, Note_on_c, 1, 43, 80
1, 19415, Note_on_c, 0, 75, 0
1, 19416, Note_on_c, 0, 70, 80
1, 19439, Note_on_c, 0, 70, 0
1, 19440, Note_on_c, 0, 69, 80
1, 19463, Note_on_c, 0, 69, 0
1, 19464, Note_on_c, 0, 70, 80
1, 19487, Note_on_c, 0, 70, 0
1, 19488, Note_on_c, 0, 72, 80
1, 19511, Note_on_c, 0, 72, 0
1, 19512, Note_on_c, 0, 70, 80
1, 19535, Note_on_c, 0, 70, 0
1, 19536, Note_on_c, 0, 69, 80
1, 19559, Note_on_c, 0, 69, 0
1, 19560, Note_on_c, 0, 70, 80
1, 19569, Note_on_c, 1, 55, 0
1, 19569, Note_on_c, 1, 43, 0
1, 19583, Note_on_c, 0, 70, 0
1, 19584, Note_on_c, 0, 75, 80
1, 19584, Note_on_c, 1, 67, 80
1, 19584, Note_on_c, 1, 55, 80
1, 19607, Note_on_c, 0, 75, 0
1, 19608, Note_on_c, 0, 74, 80
1, 19631, Note_on_c, 0, 74, 0
1, 19632, Note_on_c, 0, 75, 80
1, 19655, Note_on_c, 0, 75, 0
1, 19656, Note_on_c, 0, 77, 80
1, 19679, Note_on_c, 0, 77, 0
1, 19680, Note_on_c, 0, 79, 80
1, 19703, Note_on_c, 0, 79, 0
1, 19704, Note_on_c, 0, 75, 80
1, 19727, Note_on_c, 0, 75, 0
1, 19728, Note_on_c, 0, 74, 80
1, 19751, Note_on_c, 0, 74, 0
1, 19752, Note_on_c, 0, 75, 80
1, 19761, Note_on_c, 1, 67, 0
1, 19761, Note_on_c, 1, 55, 0
1, 19775, Note_on_c, 0, 75, 0
1, 19776, Note_on_c, 0, 77, 80
1, 19776, Note_on_c, 1, 62, 80
1, 19776, Note_on_c, 1, 50, 80
1, 19799, Note_on_c, 0, 77, 0
1, 19800, Note_on_c, 0, 74, 80
1, 19823, Note_on_c, 0, 74, 0
1, 19824, Note_on_c, 0, 72, 80
1, 19847, Note_on_c, 0, 72, 0
1, 19848, Note_on_c, 0, 70, 80
1, 19871, Note_on_c, 0, 70, 0
1, 19872, Note_on_c, 0, 69, 80
1, 19895, Note_on_c, 0, 69, 0
1, 19896, Note_on_c, 0, 70, 80
1, 19919, Note_on_c, 0, 70, 0
1, 19920, Note_on_c, 0, 69, 80
1, 19943, Note_on_c, 0, 69, 0
1, 19944, Note_on_c, 0, 70, 80
1, 19953, Note_on_c, 1, 62, 0
1, 19953, Note_on_c, 1, 50, 0
1, 19967, Note_on_c, 0, 70, 0
1, 19968, Note_on_c, 0, 80, 80
1, 19968, Note_on_c, 1, 58, 80
1, 19968, Note_on_c, 1, 46, 80
1, 19991, Note_on_c, 0, 80, 0
1, 19992, Note_on_c, 0, 79, 80
1, 20015, Note_on_c, 0, 79, 0
1, 20016, Note_on_c, 0, 80, 80
1, 20039, Note_on_c, 0, 80, 0
1, 20040, Note_on_c, 0, 82, 80
1, 20063, Note_on_c, 0, 82, 0
1, 20064, Note_on_c, 0, 84, 80
1, 20087, Note_on_c, 0, 84, 0
1, 20088, Note_on_c, 0, 80, 80
1, 20111, Note_on_c, 0, 80, 0
1, 20112, Note_on_c, 0, 79, 80
1, 20135, Note_on_c, 0, 79, 0
1, 20136, Note_on_c, 0, 77, 80
1, 20145, Note_on_c, 1, 58, 0
1, 20145, Note_on_c, 1, 46, 0
1, 20159, Note_on_c, 0, 77, 0
1, 20160, Note_on_c, 0, 79, 80
1, 20160, Note_on_c, 1, 63, 80
1, 20160, Note_on_c, 1, 51, 80
1, 20183, Note_on_c, 0, 79, 0
1, 20184, Note_on_c, 0, 75, 80
1, 20207, Note_on_c, 0, 75, 0
1, 20208, Note_on_c, 0, 74, 80
1, 20231, Note_on_c, 0, 74, 0
1, 20232, Note_on_c, 0, 75, 80
1, 20255, Note_on_c, 0, 75, 0
1, 20256, Note_on_c, 0, 77, 80
1, 20279, Note_on_c, 0, 77, 0
1, 20280, Note_on_c, 0, 75, 80
1, 20303, Note_on_c, 0, 75, 0
1, 20304, Note_on_c, 0, 74, 80
1, 20327, Note_on_c, 0, 74, 0
1, 20328, Note_on_c, 0, 75, 80
1, 20337, Note_on_c, 1, 63, 0
1, 20337, Note_on_c, 1, 51, 0
1, 20351, Note_on_c, 0, 75, 0
1, 20352, Note_on_c, 0, 79, 80
1, 20352, Note_on_c, 1, 61, 80
1, 20352, Note_on_c, 1, 49, 80
1, 20375, Note_on_c, 0, 79, 0
1, 20376, Note_on_c, 0, 77, 80
1, 20399, Note_on_c, 0, 77, 0
1, 20400, Note_on_c, 0, 79, 80
1, 20423, Note_on_c, 0, 79, 0
1, 20424, Note_on_c, 0, 80, 80
1, 20447, Note_on_c, 0, 80, 0
1, 20448, Note_on_c, 0, 82, 80
1, 20471, Note_on_c, 0, 82, 0
1, 20472, Note_on_c, 0, 80, 80
1, 20495, Note_on_c, 0, 80, 0
1, 20496, Note_on_c, 0, 79, 80
1, 20519, Note_on_c, 0, 79, 0
1, 20520, Note_on_c, 0, 77, 80
1, 20529, Note_on_c, 1, 61, 0
1, 20529, Note_on_c, 1, 49, 0
1, 20543, Note_on_c, 0, 77, 0
1, 20544, Note_on_c, 0, 76, 80
1, 20544, Note_on_c, 1, 60, 80
1, 20544, Note_on_c, 1, 48, 80
1, 20567, Note_on_c, 0, 76, 0
1, 20568, Note_on_c, 0, 72, 80
1, 20591, Note_on_c, 0, 72, 0
1, 20592, Note_on_c, 0, 71, 80
1, 20615, Note_on_c, 0, 71, 0
1, 20616, Note_on_c, 0, 72, 80
1, 20639, Note_on_c, 0, 72, 0
1, 20640, Note_on_c, 0, 74, 80
1, 20663, Note_on_c, 0, 74, 0
1, 20664, Note_on_c, 0, 72, 80
1, 20687, Note_on_c, 0, 72, 0
1, 20688, Note_on_c, 0, 71, 80
1, 20711, Note_on_c, 0, 71, 0
1, 20712, Note_on_c, 0, 72, 80
1, 20721, Note_on_c, 1, 60, 0
1, 20721, Note_on_c, 1, 48, 0
1, 20735, Note_on_c, 0, 72, 0
1, 20736, Note_on_c, 0, 79, 80
1, 20736, Note_on_c, 1, 52, 80
1, 20736, Note_on_c, 1, 40, 80
1, 20759, Note_on_c, 0, 79, 0
1, 20760, Note_on_c, 0, 76, 80
1, 20783, Note_on_c, 0, 76, 0
1, 20784, Note_on_c, 0, 74, 80
1, 20807, Note_on_c, 0, 74, 0
1, 20808, Note_on_c, 0, 72, 80
1, 20831, Note_on_c, 0, 72, 0
1, 20832, Note_on_c, 0, 84, 80
1, 20855, Note_on_c, 0, 84, 0
1, 20856, Note_on_c, 0, 82, 78
1, 20879, Note_on_c, 0, 82, 0
1, 20880, Note_on_c, 0, 80, 77
1, 20903, Note_on_c, 0, 80, 0
1, 20904, Note_on_c, 0, 79, 76
1, 20913, Note_on_c, 1, 52, 0
1, 20913, Note_on_c, 1, 40, 0
1, 20927, Note_on_c, 0, 79, 0
1, 20928, Note_on_c, 0, 80, 75
1, 20928, Note_on_c, 1, 53, 75
1, 20928, Note_on_c, 1, 41, 75
1, 20973, Note_on_c, 0, 80, 0
1, 20976, Note_on_c, 0, 80, 75
1, 20991, Note_on_c, 0, 80, 0
1, 20992, Note_on_c, 0, 82, 75
1, 21007, Note_on_c, 0, 82, 0
1, 21008, Note_on_c, 0, 80, 75
1, 21023, Note_on_c, 0, 80, 0
1, 21024, Note_on_c, 0, 84, 75
1, 21061, Note_on_c, 1, 53, 0
1, 21061, Note_on_c, 1, 41, 0
1, 21072, Note_on_c, 1, 63, 75
1, 21072, Note_on_c, 1, 51, 75
1, 21113, Note_on_c, 0, 84, 0
1, 21117, Note_on_c, 1, 63, 0
1, 21117, Note_on_c, 1, 51, 0
1, 21120, Note_on_c, 1, 62, 75
1, 21120, Note_on_c, 1, 50, 75
1, 21168, Note_on_c, 0, 77, 75
1, 21183, Note_on_c, 0, 77, 0
1, 21184, Note_on_c, 0, 79, 75
1, 21199, Note_on_c, 0, 79, 0
1, 21200, Note_on_c, 0, 77, 75
1, 21215, Note_on_c, 0, 77, 0
1, 21216, Note_on_c, 0, 82, 75
1, 21253, Note_on_c, 1, 62, 0
1, 21253, Note_on_c, 1, 50, 0
1, 21261, Note_on_c, 0, 82, 0
1, 21264, Note_on_c, 0, 80, 75
1, 21264, Note_on_c, 1, 58, 75
1, 21264, Note_on_c, 1, 46, 75
1, 21309, Note_on_c, 0, 80, 0
1, 21309, Note_on_c, 1, 58, 0
1, 21309, Note_on_c, 1, 46, 0
1, 21312, Note_on_c, 1, 63, 75
1, 21312, Note_on_c, 1, 51, 75
1, 21360, Note_on_c, 0, 79, 75
1, 21375, Note_on_c, 0, 79, 0
1, 21376, Note_on_c, 0, 80, 75
1, 21391, Note_on_c, 0, 80, 0
1, 21392, Note_on_c, 0, 79, 75
1, 21407, Note_on_c, 0, 79, 0
1, 21408, Note_on_c, 0, 82, 75
1, 21445, Note_on_c, 1, 63, 0
1, 21445, Note_on_c, 1, 51, 0
1, 21456, Note_on_c, 1, 62, 75
1, 21456, Note_on_c, 1, 50, 75
1, 21497, Note_on_c, 0, 82, 0
1, 21501, Note_on_c, 1, 62, 0
1, 21501, Note_on_c, 1, 50, 0
1, 21504, Note_on_c, 1, 60, 75
1, 21504, Note_on_c, 1, 48, 75
1, 21552, Note_on_c, 0, 75, 75
1, 21567, Note_on_c, 0, 75, 0
1, 21568, Note_on_c, 0, 77, 75
1, 21583, Note_on_c, 0, 77, 0
1, 21584, Note_on_c, 0, 75, 75
1, 21599, Note_on_c, 0, 75, 0
1, 21600, Note_on_c, 0, 80, 75
1, 21637, Note_on_c, 1, 60, 0
1, 21637, Note_on_c, 1, 48, 0
1, 21645, Note_on_c, 0, 80, 0
1, 21648, Note_on_c, 0, 79, 75
1, 21648, Note_on_c, 1, 56, 75
1, 21648, Note_on_c, 1, 44, 75
1, 21693, Note_on_c, 0, 79, 0
1, 21693, Note_on_c, 1, 56, 0
1, 21693, Note_on_c, 1, 44, 0
1, 21696, Note_on_c, 1, 62, 75
1, 21696, Note_on_c, 1, 50, 75
1, 21744, Note_on_c, 0, 77, 75
1, 21759, Note_on_c, 0, 77, 0
1, 21760, Note_on_c, 0, 79, 75
1, 21775, Note_on_c, 0, 79, 0
1, 21776, Note_on_c, 0, 77, 75
1, 21791, Note_on_c, 0, 77, 0
1, 21792, Note_on_c, 0, 80, 75
1, 21829, Note_on_c, 1, 62, 0
1, 21829, Note_on_c, 1, 50, 0
1, 21840, Note_on_c, 1, 60, 75
1, 21840, Note_on_c, 1, 48, 75
1, 21881, Note_on_c, 0, 80, 0
1, 21885, Note_on_c, 1, 60, 0
1, 21885, Note_on_c, 1, 48, 0
1, 21888, Note_on_c, 1, 59, 75
1, 21888, Note_on_c, 1, 47, 75
1, 21936, Note_on_c, 0, 74, 75
1, 21951, Note_on_c, 0, 74, 0
1, 21952, Note_on_c, 0, 75, 75
1, 21967, Note_on_c, 0, 75, 0
1, 21968, Note_on_c, 0, 74, 75
1, 21983, Note_on_c, 0, 74, 0
1, 21984, Note_on_c, 0, 79, 75
1, 22021, Note_on_c, 1, 59, 0
1, 22021, Note_on_c, 1, 47, 0
1, 22029, Note_on_c, 0, 79, 0
1, 22032, Note_on_c, 0, 77, 75
1, 22032, Note_on_c, 1, 55, 75
1, 22032, Note_on_c, 1, 43, 75
1, 22077, Note_on_c, 0, 77, 0
1, 22077, Note_on_c, 1, 55, 0
1, 22077, Note_on_c, 1, 43, 0
1, 22080, Note_on_c, 1, 60, 75
1, 22080, Note_on_c, 1, 48, 75
1, 22128, Note_on_c, 0, 75, 75
1, 22143, Note_on_c, 0, 75, 0
1, 22144, Note_on_c, 0, 77, 75
1, 22159, Note_on_c, 0, 77, 0
1, 22160, Note_on_c, 0, 75, 75
1, 22175, Note_on_c, 0, 75, 0
1, 22176, Note_on_c, 0, 79, 75
1, 22213, Note_on_c, 1, 60, 0
1, 22213, Note_on_c, 1, 48, 0
1, 22224, Note_on_c, 1, 58, 75
1, 22224, Note_on_c, 1, 46, 75
1, 22265, Note_on_c, 0, 79, 0
1, 22269, Note_on_c, 1, 58, 0
1, 22269, Note_on_c, 1, 46, 0
1, 22272, Note_on_c, 1, 57, 75
1, 22272, Note_on_c, 1, 45, 75
1, 22320, Note_on_c, 0, 72, 75
1, 22335, Note_on_c, 0, 72, 0
1, 22336, Note_on_c, 0, 74, 75
1, 22351, Note_on_c, 0, 74, 0
1, 22352, Note_on_c, 0, 72, 75
1, 22361, Note_on_c, 1, 57, 0
1, 22361, Note_on_c, 1, 45, 0
1, 22367, Note_on_c, 0, 72, 0
1, 22368, Note_on_c, 0, 77, 75
1, 22368, Note_on_c, 1, 57, 75
1, 22368, Note_on_c, 1, 45, 75
1, 22413, Note_on_c, 0, 77, 0
1, 22416, Note_on_c, 0, 75, 75
1, 22457, Note_on_c, 1, 57, 0
1, 22457, Note_on_c, 1, 45, 0
1, 22461, Note_on_c, 0, 75, 0
1, 22464, Note_on_c, 0, 74, 91
1, 22464, Note_on_c, 1, 65, 66
1, 22464, Note_on_c, 1, 62, 66
1, 22464, Note_on_c, 1, 58, 66
1, 22511, Note_on_c, 1, 65, 0
1, 22511, Note_on_c, 1, 62, 0
1, 22511, Note_on_c, 1, 58, 0
1, 22512, Note_on_c, 1, 65, 66
1, 22512, Note_on_c, 1, 62, 66
1, 22512, Note_on_c, 1, 58, 66
1, 22559, Note_on_c, 1, 65, 0
1, 22559, Note_on_c, 1, 62, 0
1, 22559, Note_on_c, 1, 58, 0
1, 22560, Note_on_c, 0, 74, 0
1, 22560, Note_on_c, 0, 77, 75
1, 22560, Note_on_c, 1, 65, 66
1, 22560, Note_on_c, 1, 62, 66
1, 22560, Note_on_c, 1, 58, 66
1, 22607, Note_on_c, 1, 65, 0
1, 22607, Note_on_c, 1, 62, 0
1, 22607, Note_on_c, 1, 58, 0
1, 22608, Note_on_c, 1, 65, 66
1, 22608, Note_on_c, 1, 62, 66
1, 22608, Note_on_c, 1, 58, 66
1, 22649, Note_on_c, 0, 77, 0
1, 22655, Note_on_c, 1, 65, 0
1, 22655, Note_on_c, 1, 62, 0
1, 22655, Note_on_c, 1, 58, 0
1, 22656, Note_on_c, 1, 65, 66
1, 22656, Note_on_c, 1, 62, 66
1, 22656, Note_on_c, 1, 58, 66
1, 22703, Note_on_c, 1, 65, 0
1, 22703, Note_on_c, 1, 62, 0
1, 22703, Note_on_c, 1, 58, 0
1, 22704, Note_on_c, 0, 79, 75
1, 22704, Note_on_c, 1, 65, 66
1, 22704, Note_on_c, 1, 62, 66
1, 22704, Note_on_c, 1, 58, 66
1, 22727, Note_on_c, 0, 79, 0
1, 22728, Note_on_c, 0, 80, 75
1, 22751, Note_on_c, 0, 80, 0
1, 22751, Note_on_c, 1, 65, 0
1, 22751, Note_on_c, 1, 62, 0
1, 22751, Note_on_c, 1, 58, 0
1, 22752, Note_on_c, 0, 79, 75
1, 22752, Note_on_c, 1, 65, 66
1, 22752, Note_on_c, 1, 62, 66
1, 22752, Note_on_c, 1, 58, 66
1, 22775, Note_on_c, 0, 79, 0
1, 22776, Note_on_c, 0, 77, 75
1, 22799, Note_on_c, 0, 77, 0
1, 22799, Note_on_c, 1, 65, 0
1, 22799, Note_on_c, 1, 62, 0
1, 22799, Note_on_c, 1, 58, 0
1, 22800, Note_on_c, 0, 75, 75
1, 22800, Note_on_c, 1, 65, 66
1, 22800, Note_on_c, 1, 62, 66
1, 22800, Note_on_c, 1, 58, 66
1, 22823, Note_on_c, 0, 75, 0
1, 22824, Note_on_c, 0, 74, 75
1, 22847, Note_on_c, 0, 74, 0
1, 22847, Note_on_c, 1, 65, 0
1, 22847, Note_on_c, 1, 62, 0
1, 22847, Note_on_c, 1, 58, 0
1, 22848, Note_on_c, 0, 74, 91
1, 22848, Note_on_c, 1, 67, 66
1, 22848, Note_on_c, 1, 63, 66
1, 22848, Note_on_c, 1, 58, 66
1, 22895, Note_on_c, 1, 67, 0
1, 22895, Note_on_c, 1, 63, 0
1, 22895, Note_on_c, 1, 58, 0
1, 22896, Note_on_c, 1, 67, 66
1, 22896, Note_on_c, 1, 63, 66
1, 22896, Note_on_c, 1, 58, 66
1, 22943, Note_on_c, 1, 67, 0
1, 22943, Note_on_c, 1, 63, 0
1, 22943, Note_on_c, 1, 58, 0
1, 22944, Note_on_c, 0, 74, 0
1, 22944, Note_on_c, 0, 75, 75
1, 22944, Note_on_c, 1, 67, 66
1, 22944, Note_on_c, 1, 63, 66
1, 22944, Note_on_c, 1, 58, 66
1, 22991, Note_on_c, 1, 67, 0
1, 22991, Note_on_c, 1, 63, 0
1, 22991, Note_on_c, 1, 58, 0
1, 22992, Note_on_c, 1, 67, 66
1, 22992, Note_on_c, 1, 63, 66
1, 22992, Note_on_c, 1, 58, 66
1, 23033, Note_on_c, 0, 75, 0
1, 23039, Note_on_c, 1, 67, 0
1, 23039, Note_on_c, 1, 63, 0
1, 23039, Note_on_c, 1, 58, 0
1, 23040, Note_on_c, 1, 67, 66
1, 23040, Note_on_c, 1, 58, 66
1, 23087, Note_on_c, 1, 67, 0
1, 23087, Note_on_c, 1, 58, 0
1, 23088, Note_on_c, 0, 81, 75
1, 23088, Note_on_c, 1, 67, 66
1, 23088, Note_on_c, 1, 58, 66
1, 23111, Note_on_c, 0, 81, 0
1, 23112, Note_on_c, 0, 82, 75
1, 23135, Note_on_c, 0, 82, 0
1, 23135, Note_on_c, 1, 67, 0
1, 23135, Note_on_c, 1, 58, 0
1, 23136, Note_on_c, 0, 80, 75
1, 23136, Note_on_c, 1, 67, 66
1, 23136, Note_on_c, 1, 58, 66
1, 23159, Note_on_c, 0, 80, 0
1, 23160, Note_on_c, 0, 79, 75
1, 23183, Note_on_c, 0, 79, 0
1, 23183, Note_on_c, 1, 67, 0
1, 23183, Note_on_c, 1, 58, 0
1, 23184, Note_on_c, 0, 77, 75
1, 23184, Note_on_c, 1, 67, 66
1, 23184, Note_on_c, 1, 58, 66
1, 23207, Note_on_c, 0, 77, 0
1, 23208, Note_on_c, 0, 75, 75
1, 23231, Note_on_c, 0, 75, 0
1, 23231, Note_on_c, 1, 67, 0
1, 23231, Note_on_c, 1, 58, 0
1, 23232, Note_on_c, 0, 76, 91
1, 23232, Note_on_c, 1, 65, 66
1, 23232, Note_on_c, 1, 62, 66
1, 23232, Note_on_c, 1, 58, 66
1, 23279, Note_on_c, 1, 65, 0
1, 23279, Note_on_c, 1, 62, 0
1, 23279, Note_on_c, 1, 58, 0
1, 23280, Note_on_c, 1, 65, 66
1, 23280, Note_on_c, 1, 62, 66
1, 23280, Note_on_c, 1, 58, 66
1, 23327, Note_on_c, 1, 65, 0
1, 23327, Note_on_c, 1, 62, 0
1, 23327, Note_on_c, 1, 58, 0
1, 23328, Note_on_c, 0, 76, 0
1, 23328, Note_on_c, 0, 77, 75
1, 23328, Note_on_c, 1, 65, 66
1, 23328, Note_on_c, 1, 62, 66
1, 23328, Note_on_c, 1, 58, 66
1, 23375, Note_on_c, 1, 65, 0
1, 23375, Note_on_c, 1, 62, 0
1, 23375, Note_on_c, 1, 58, 0
1, 23376, Note_on_c, 1, 65, 66
1, 23376, Note_on_c, 1, 62, 66
1, 23376, Note_on_c, 1, 58, 66
1, 23417, Note_on_c, 0, 77, 0
1, 23423, Note_on_c, 1, 65, 0
1, 23423, Note_on_c, 1, 62, 0
1, 23423, Note_on_c, 1, 58, 0
1, 23424, Note_on_c, 1, 65, 66
1, 23424, Note_on_c, 1, 62, 66
1, 23424, Note_on_c, 1, 58, 66
1, 23471, Note_on_c, 1, 65, 0
1, 23471, Note_on_c, 1, 62, 0
1, 23471, Note_on_c, 1, 58, 0
1, 23472, Note_on_c, 0, 79, 75
1, 23472, Note_on_c, 1, 65, 66
1, 23472, Note_on_c, 1, 62, 66
1, 23472, Note_on_c, 1, 58, 66
1, 23495, Note_on_c, 0, 79, 0
1, 23496, Note_on_c, 0, 80, 75
1, 23519, Note_on_c, 0, 80, 0
1, 23519, Note_on_c, 1, 65, 0
1, 23519, Note_on_c, 1, 62, 0
1, 23519, Note_on_c, 1, 58, 0
1, 23520, Note_on_c, 0, 79, 75
1, 23520, Note_on_c, 1, 65, 66
1, 23520, Note_on_c, 1, 62, 66
1, 23520, Note_on_c, 1, 58, 66
1, 23543, Note_on_c, 0, 79, 0
1, 23544, Note_on_c, 0, 77, 75
1, 23567, Note_on_c, 0, 77, 0
1, 23567, Note_on_c, 1, 65, 0
1, 23567, Note_on_c, 1, 62, 0
1, 23567, Note_on_c, 1, 58, 0
1, 23568, Note_on_c, 0, 75, 75
1, 23568, Note_on_c, 1, 65, 66
1, 23568, Note_on_c, 1, 62, 66
1, 23568, Note_on_c, 1, 58, 66
1, 23591, Note_on_c, 0, 75, 0
1, 23592, Note_on_c, 0, 74, 75
1, 23615, Note_on_c, 0, 74, 0
1, 23615, Note_on_c, 1, 65, 0
1, 23615, Note_on_c, 1, 62, 0
1, 23615, Note_on_c, 1, 58, 0
1, 23616, Note_on_c, 0, 75, 75
1, 23616, Note_on_c, 1, 63, 75
1, 23661, Note_on_c, 0, 75, 0
1, 23664, Note_on_c, 0, 67, 75
1, 23679, Note_on_c, 0, 67, 0
1, 23680, Note_on_c, 0, 68, 75
1, 23695, Note_on_c, 0, 68, 0
1, 23696, Note_on_c, 0, 67, 75
1, 23705, Note_on_c, 1, 63, 0
1, 23711, Note_on_c, 0, 67, 0
1, 23712, Note_on_c, 0, 70, 75
1, 23757, Note_on_c, 0, 70, 0
1, 23760, Note_on_c, 0, 70, 75
1, 23775, Note_on_c, 0, 70, 0
1, 23776, Note_on_c, 0, 72, 75
1, 23791, Note_on_c, 0, 72, 0
1, 23792, Note_on_c, 0, 70, 75
1, 23807, Note_on_c, 0, 70, 0
1, 23808, Note_on_c, 0, 75, 75
1, 23853, Note_on_c, 0, 75, 0
1, 23856, Note_on_c, 0, 75, 75
1, 23871, Note_on_c, 0, 75, 0
1, 23872, Note_on_c, 0, 77, 75
1, 23887, Note_on_c, 0, 77, 0
1, 23888, Note_on_c, 0, 75, 75
1, 23903, Note_on_c, 0, 75, 0
1, 23904, Note_on_c, 0, 79, 75
1, 23949, Note_on_c, 0, 79, 0
1, 23952, Note_on_c, 0, 79, 75
1, 23967, Note_on_c, 0, 79, 0
1, 23968, Note_on_c, 0, 80, 75
1, 23983, Note_on_c, 0, 80, 0
1, 23984, Note_on_c, 0, 79, 75
1, 23999, Note_on_c, 0, 79, 0
1, 24000, Note_on_c, 0, 82, 75
1, 24048, Note_on_c, 1, 63, 75
1, 24093, Note_on_c, 1, 63, 0
1, 24096, Note_on_c, 1, 67, 75
1, 24133, Note_on_c, 0, 82, 0
1, 24144, Note_on_c, 0, 79, 75
1, 24159, Note_on_c, 0, 79, 0
1, 24160, Note_on_c, 0, 80, 75
1, 24175, Note_on_c, 0, 80, 0
1, 24176, Note_on_c, 0, 79, 75
1, 24185, Note_on_c, 1, 67, 0
1, 24191, Note_on_c, 0, 79, 0
1, 24192, Note_on_c, 0, 82, 75
1, 24240, Note_on_c, 1, 63, 75
1, 24285, Note_on_c, 1, 63, 0
1, 24288, Note_on_c, 1, 67, 75
1, 24325, Note_on_c, 0, 82, 0
1, 24336, Note_on_c, 0, 79, 75
1, 24359, Note_on_c, 0, 79, 0
1, 24360, Note_on_c, 0, 82, 75
1, 24377, Note_on_c, 1, 67, 0
1, 24383, Note_on_c, 0, 82, 0
1, 24384, Note_on_c, 0, 80, 75
1, 24384, Note_on_c, 1, 65, 75
1, 24384, Note_on_c, 1, 58, 75
1, 24429, Note_on_c, 0, 80, 0
1, 24432, Note_on_c, 0, 80, 75
1, 24473, Note_on_c, 1, 65, 0
1, 24473, Note_on_c, 1, 58, 0
1, 24477, Note_on_c, 0, 80, 0
1, 24480, Note_on_c, 0, 80, 75
1, 24480, Note_on_c, 1, 62, 75
1, 24480, Note_on_c, 1, 58, 75
1, 24492, Note_on_c, 0, 80, 0
1, 24492, Note_on_c, 0, 82, 75
1, 24504, Note_on_c, 0, 82, 0
1, 24504, Note_on_c, 0, 80, 75
1, 24516, Note_on_c, 0, 80, 0
1, 24516, Note_on_c, 0, 82, 75
1, 24525, Note_on_c, 0, 82, 0
1, 24528, Note_on_c, 0, 79, 75
1, 24551, Note_on_c, 0, 79, 0
1, 24552, Note_on_c, 0, 77, 75
1, 24569, Note_on_c, 1, 62, 0
1, 24569, Note_on_c, 1, 58, 0
1, 24575, Note_on_c, 0, 77, 0
1, 24576, Note_on_c, 0, 79, 75
1, 24576, Note_on_c, 1, 63, 75
1, 24576, Note_on_c, 1, 58, 75
1, 24621, Note_on_c, 0, 79, 0
1, 24624, Note_on_c, 0, 75, 75
1, 24665, Note_on_c, 1, 63, 0
1, 24665, Note_on_c, 1, 58, 0
1, 24669, Note_on_c, 0, 75, 0
1, 24672, Note_on_c, 0, 75, 75
1, 24672, Note_on_c, 1, 67, 75
1, 24672, Note_on_c, 1, 58, 75
1, 24717, Note_on_c, 0, 75, 0
1, 24720, Note_on_c, 0, 79, 75
1, 24735, Note_on_c, 0, 79, 0
1, 24736, Note_on_c, 0, 80, 75
1, 24751, Note_on_c, 0, 80, 0
1, 24752, Note_on_c, 0, 82, 75
1, 24761, Note_on_c, 1, 67, 0
1, 24761, Note_on_c, 1, 58, 0
1, 24767, Note_on_c, 0, 82, 0
1, 24768, Note_on_c, 0, 80, 75
1, 24768, Note_on_c, 1, 65, 75
1, 24768, Note_on_c, 1, 58, 75
1, 24813, Note_on_c, 0, 80, 0
1, 24816, Note_on_c, 0, 80, 75
1, 24857, Note_on_c, 1, 65, 0
1, 24857, Note_on_c, 1, 58, 0
1, 24861, Note_on_c, 0, 80, 0
1, 24864, Note_on_c, 0, 80, 75
1, 24864, Note_on_c, 1, 62, 75
1, 24864, Note_on_c, 1, 58, 75
1, 24876, Note_on_c, 0, 80, 0
1, 24876, Note_on_c, 0, 82, 75
1, 24888, Note_on_c, 0, 82, 0
1, 24888, Note_on_c, 0, 80, 75
1, 24900, Note_on_c, 0, 80, 0
1, 24900, Note_on_c, 0, 82, 75
1, 24909, Note_on_c, 0, 82, 0
1, 24912, Note_on_c, 0, 79, 75
1, 24935, Note_on_c, 0, 79, 0
1, 24936, Note_on_c, 0, 77, 75
1, 24953, Note_on_c, 1, 62, 0
1, 24953, Note_on_c, 1, 58, 0
1, 24959, Note_on_c, 0, 77, 0
1, 24960, Note_on_c, 0, 79, 75
1, 24960, Note_on_c, 1, 39, 75
1, 24983, Note_on_c, 0, 79, 0
1, 24984, Note_on_c, 0, 75, 75
1, 25007, Note_on_c, 0, 75, 0
1, 25008, Note_on_c, 0, 74, 75
1, 25031, Note_on_c, 0, 74, 0
1, 25032, Note_on_c, 0, 75, 75
1, 25049, Note_on_c, 1, 39, 0
1, 25055, Note_on_c, 0, 75, 0
1, 25056, Note_on_c, 0, 77, 75
1, 25079, Note_on_c, 0, 77, 0
1, 25080, Note_on_c, 0, 75, 75
1, 25103, Note_on_c, 0, 75, 0
1, 25104, Note_on_c, 0, 74, 75
1, 25104, Note_on_c, 1, 63, 75
1, 25104, Note_on_c, 1, 55, 75
1, 25127, Note_on_c, 0, 74, 0
1, 25128, Note_on_c, 0, 75, 75
1, 25149, Note_on_c, 1, 63, 0
1, 25149, Note_on_c, 1, 55, 0
1, 25151, Note_on_c, 0, 75, 0
1, 25152, Note_on_c, 0, 72, 75
1, 25152, Note_on_c, 1, 63, 75
1, 25152, Note_on_c, 1, 56, 75
1, 25175, Note_on_c, 0, 72, 0
1, 25176, Note_on_c, 0, 75, 75
1, 25199, Note_on_c, 0, 75, 0
1, 25200, Note_on_c, 0, 74, 75
1, 25223, Note_on_c, 0, 74, 0
1, 25224, Note_on_c, 0, 72, 75
1, 25241, Note_on_c, 1, 63, 0
1, 25241, Note_on_c, 1, 56, 0
1, 25247, Note_on_c, 0, 72, 0
1, 25248, Note_on_c, 0, 70, 75
1, 25248, Note_on_c, 1, 63, 75
1, 25248, Note_on_c, 1, 55, 75
1, 25293, Note_on_c, 0, 70, 0
1, 25296, Note_on_c, 0, 75, 75
1, 25337, Note_on_c, 1, 63, 0
1, 25337, Note_on_c, 1, 55, 0
1, 25341, Note_on_c, 0, 75, 0
1, 25344, Note_on_c, 0, 68, 75
1, 25344, Note_on_c, 1, 62, 75
1, 25344, Note_on_c, 1, 53, 75
1, 25367, Note_on_c, 0, 68, 0
1, 25368, Note_on_c, 0, 72, 75
1, 25391, Note_on_c, 0, 72, 0
1, 25392, Note_on_c, 0, 70, 75
1, 25415, Note_on_c, 0, 70, 0
1, 25416, Note_on_c, 0, 68, 75
1, 25433, Note_on_c, 1, 62, 0
1, 25433, Note_on_c, 1, 53, 0
1, 25439, Note_on_c, 0, 68, 0
1, 25440, Note_on_c, 0, 67, 75
1, 25440, Note_on_c, 1, 63, 75
1, 25440, Note_on_c, 1, 51, 75
1, 25463, Note_on_c, 0, 67, 0
1, 25464, Note_on_c, 0, 70, 75
1, 25487, Note_on_c, 0, 70, 0
1, 25488, Note_on_c, 0, 68, 75
1, 25511, Note_on_c, 0, 68, 0
1, 25512, Note_on_c, 0, 67, 75
1, 25529, Note_on_c, 1, 63, 0
1, 25529, Note_on_c, 1, 51, 0
1, 25535, Note_on_c, 0, 67, 0
1, 25536, Note_on_c, 0, 65, 75
1, 25536, Note_on_c, 1, 56, 75
1, 25559, Note_on_c, 0, 65, 0
1, 25560, Note_on_c, 0, 68, 75
1, 25583, Note_on_c, 0, 68, 0
1, 25584, Note_on_c, 0, 67, 75
1, 25607, Note_on_c, 0, 67, 0
1, 25608, Note_on_c, 0, 65, 75
1, 25631, Note_on_c, 0, 65, 0
1, 25632, Note_on_c, 0, 72, 75
1, 25669, Note_on_c, 1, 56, 0
1, 25677, Note_on_c, 0, 72, 0
1, 25680, Note_on_c, 0, 63, 75
1, 25680, Note_on_c, 1, 57, 75
1, 25725, Note_on_c, 0, 63, 0
1, 25725, Note_on_c, 1, 57, 0
1, 25728, Note_on_c, 0, 63, 75
1, 25728, Note_on_c, 1, 58, 75
1, 25740, Note_on_c, 0, 63, 0
1, 25740, Note_on_c, 0, 65, 75
1, 25752, Note_on_c, 0, 65, 0
1, 25752, Note_on_c, 0, 63, 75
1, 25764, Note_on_c, 0, 63, 0
1, 25764, Note_on_c, 0, 65, 75
1, 25773, Note_on_c, 0, 65, 0
1, 25773, Note_on_c, 1, 58, 0
1, 25776, Note_on_c, 0, 62, 75
1, 25776, Note_on_c, 1, 53, 75
1, 25821, Note_on_c, 0, 62, 0
1, 25821, Note_on_c, 1, 53, 0
1, 25824, Note_on_c, 1, 46, 75
1, 25872, Note_on_c, 0, 58, 70
1, 25887, Note_on_c, 0, 58, 0
1, 25888, Note_on_c, 0, 60, 70
1, 25903, Note_on_c, 0, 60, 0
1, 25904, Note_on_c, 0, 58, 70
1, 25913, Note_on_c, 1, 46, 0
1, 25919, Note_on_c, 0, 58, 0
1, 25920, Note_on_c, 0, 63, 70
1, 25968, Note_on_c, 1, 51, 70
1, 26009, Note_on_c, 0, 63, 0
1, 26013, Note_on_c, 1, 51, 0
1, 26016, Note_on_c, 1, 55, 70
1, 26064, Note_on_c, 0, 59, 70
1, 26105, Note_on_c, 1, 55, 0
1, 26112, Note_on_c, 0, 59, 0
1, 26112, Note_on_c, 0, 60, 70
1, 26160, Note_on_c, 1, 56, 70
1, 26201, Note_on_c, 0, 60, 0
1, 26205, Note_on_c, 1, 56, 0
1, 26208, Note_on_c, 1, 44, 70
1, 26256, Note_on_c, 0, 60, 70
1, 26271, Note_on_c, 0, 60, 0
1, 26272, Note_on_c, 0, 62, 70
1, 26287, Note_on_c, 0, 62, 0
1, 26288, Note_on_c, 0, 60, 70
1, 26297, Note_on_c, 1, 44, 0
1, 26303, Note_on_c, 0, 60, 0
1, 26304, Note_on_c, 0, 65, 70
1, 26352, Note_on_c, 1, 53, 70
1, 26393, Note_on_c, 0, 65, 0
1, 26397, Note_on_c, 1, 53, 0
1, 26400, Note_on_c, 1, 57, 70
1, 26448, Note_on_c, 0, 61, 70
1, 26489, Note_on_c, 1, 57, 0
1, 26496, Note_on_c, 0, 61, 0
1, 26496, Note_on_c, 0, 62, 70
1, 26544, Note_on_c, 1, 58, 70
1, 26585, Note_on_c, 0, 62, 0
1, 26589, Note_on_c, 1, 58, 0
1, 26592, Note_on_c, 1, 46, 70
1, 26640, Note_on_c, 0, 77, 70
1, 26663, Note_on_c, 0, 77, 0
1, 26664, Note_on_c, 0, 74, 70
1, 26681, Note_on_c, 1, 46, 0
1, 26687, Note_on_c, 0, 74, 0
1, 26688, Note_on_c, 0, 68, 75
1, 26688, Note_on_c, 1, 62, 66
1, 26688, Note_on_c, 1, 58, 66
1, 26733, Note_on_c, 1, 62, 0
1, 26733, Note_on_c, 1, 58, 0
1, 26736, Note_on_c, 1, 62, 66
1, 26736, Note_on_c, 1, 58, 66
1, 26781, Note_on_c, 1, 62, 0
1, 26781, Note_on_c, 1, 58, 0
1, 26784, Note_on_c, 1, 62, 66
1, 26784, Note_on_c, 1, 58, 66
1, 26821, Note_on_c, 0, 68, 0
1, 26829, Note_on_c, 1, 62, 0
1, 26829, Note_on_c, 1, 58, 0
1, 26832, Note_on_c, 0, 72, 75
1, 26832, Note_on_c, 1, 62, 66
1, 26832, Note_on_c, 1, 58, 66
1, 26847, Note_on_c, 0, 72, 0
1, 26848, Note_on_c, 0, 70, 75
1, 26863, Note_on_c, 0, 70, 0
1, 26864, Note_on_c, 0, 68, 75
1, 26877, Note_on_c, 1, 62, 0
1, 26877, Note_on_c, 1, 58, 0
1, 26879, Note_on_c, 0, 68, 0
1, 26880, Note_on_c, 0, 67, 75
1, 26880, Note_on_c, 1, 63, 66
1, 26880, Note_on_c, 1, 58, 66
1, 26925, Note_on_c, 0, 67, 0
1, 26925, Note_on_c, 1, 63, 0
1, 26925, Note_on_c, 1, 58, 0
1, 26928, Note_on_c, 0, 70, 75
1, 26928, Note_on_c, 1, 63, 66
1, 26928, Note_on_c, 1, 58, 66
1, 26973, Note_on_c, 0, 70, 0
1, 26973, Note_on_c, 1, 63, 0
1, 26973, Note_on_c, 1, 58, 0
1, 26976, Note_on_c, 1, 63, 66
1, 26976, Note_on_c, 1, 58, 66
1, 27021, Note_on_c, 1, 63, 0
1, 27021, Note_on_c, 1, 58, 0
1, 27024, Note_on_c, 0, 75, 75
1, 27024, Note_on_c, 1, 63, 66
1, 27024, Note_on_c, 1, 58, 66
1, 27039, Note_on_c, 0, 75, 0
1, 27040, Note_on_c, 0, 77, 75
1, 27055, Note_on_c, 0, 77, 0
1, 27056, Note_on_c, 0, 79, 75
1, 27069, Note_on_c, 1, 63, 0
1, 27069, Note_on_c, 1, 58, 0
1, 27071, Note_on_c, 0, 79, 0
1, 27072, Note_on_c, 0, 77, 75
1, 27072, Note_on_c, 1, 62, 66
1, 27072, Note_on_c, 1, 58, 66
1, 27117, Note_on_c, 0, 77, 0
1, 27117, Note_on_c, 1, 62, 0
1, 27117, Note_on_c, 1, 58, 0
1, 27120, Note_on_c, 0, 74, 75
1, 27120, Note_on_c, 1, 62, 66
1, 27120, Note_on_c, 1, 58, 66
1, 27165, Note_on_c, 0, 74, 0
1, 27165, Note_on_c, 1, 62, 0
1, 27165, Note_on_c, 1, 58, 0
1, 27168, Note_on_c, 0, 70, 75
1, 27168, Note_on_c, 1, 62, 66
1, 27168, Note_on_c, 1, 58, 66
1, 27213, Note_on_c, 0, 70, 0
1, 27213, Note_on_c, 1, 62, 0
1, 27213, Note_on_c, 1, 58, 0
1, 27216, Note_on_c, 0, 68, 75
1, 27216, Note_on_c, 1, 62, 66
1, 27216, Note_on_c, 1, 58, 66
1, 27261, Note_on_c, 0, 68, 0
1, 27261, Note_on_c, 1, 62, 0
1, 27261, Note_on_c, 1, 58, 0
1, 27264, Note_on_c, 0, 67, 75
1, 27264, Note_on_c, 1, 63, 75
1, 27287, Note_on_c, 0, 67, 0
1, 27288, Note_on_c, 0, 75, 75
1, 27311, Note_on_c, 0, 75, 0
1, 27312, Note_on_c, 0, 74, 75
1, 27335, Note_on_c, 0, 74, 0
1, 27336, Note_on_c, 0, 72, 75
1, 27353, Note_on_c, 1, 63, 0
1, 27359, Note_on_c, 0, 72, 0
1, 27360, Note_on_c, 0, 70, 75
1, 27380, Note_on_c, 0, 70, 0
1, 27408, Note_on_c, 0, 70, 75
1, 27453, Note_on_c, 0, 70, 0
1, 27456, Note_on_c, 0, 72, 75
1, 27469, Note_on_c, 0, 72, 0
1, 27470, Note_on_c, 0, 70, 75
1, 27483, Note_on_c, 0, 70, 0
1, 27484, Note_on_c, 0, 72, 75
1, 27497, Note_on_c, 0, 72, 0
1, 27498, Note_on_c, 0, 70, 75
1, 27504, Note_on_c, 1, 62, 75
1, 27504, Note_on_c, 1, 58, 75
1, 27511, Note_on_c, 0, 70, 0
1, 27512, Note_on_c, 0, 72, 75
1, 27525, Note_on_c, 0, 72, 0
1, 27526, Note_on_c, 0, 70, 75
1, 27539, Note_on_c, 0, 70, 0
1, 27540, Note_on_c, 0, 72, 75
1, 27549, Note_on_c, 1, 62, 0
1, 27549, Note_on_c, 1, 58, 0
1, 27552, Note_on_c, 1, 63, 75
1, 27552, Note_on_c, 1, 60, 75
1, 27553, Note_on_c, 0, 72, 0
1, 27554, Note_on_c, 0, 70, 75
1, 27567, Note_on_c, 0, 70, 0
1, 27568, Note_on_c, 0, 72, 75
1, 27581, Note_on_c, 0, 72, 0
1, 27582, Note_on_c, 0, 70, 75
1, 27595, Note_on_c, 0, 70, 0
1, 27596, Note_on_c, 0, 68, 75
1, 27597, Note_on_c, 1, 63, 0
1, 27597, Note_on_c, 1, 60, 0
1, 27600, Note_on_c, 1, 65, 75
1, 27600, Note_on_c, 1, 62, 75
1, 27645, Note_on_c, 1, 65, 0
1, 27645, Note_on_c, 1, 62, 0
1, 27647, Note_on_c, 0, 68, 0
1, 27648, Note_on_c, 0, 67, 75
1, 27648, Note_on_c, 1, 63, 75
1, 27671, Note_on_c, 0, 67, 0
1, 27672, Note_on_c, 0, 70, 75
1, 27695, Note_on_c, 0, 70, 0
1, 27696, Note_on_c, 0, 68, 75
1, 27719, Note_on_c, 0, 68, 0
1, 27720, Note_on_c, 0, 67, 75
1, 27737, Note_on_c, 1, 63, 0
1, 27743, Note_on_c, 0, 67, 0
1, 27744, Note_on_c, 0, 72, 75
1, 27744, Note_on_c, 1, 56, 75
1, 27767, Note_on_c, 0, 72, 0
1, 27768, Note_on_c, 0, 68, 75
1, 27791, Note_on_c, 0, 68, 0
1, 27792, Note_on_c, 0, 67, 75
1, 27815, Note_on_c, 0, 67, 0
1, 27816, Note_on_c, 0, 65, 75
1, 27833, Note_on_c, 1, 56, 0
1, 27839, Note_on_c, 0, 65, 0
1, 27840, Note_on_c, 0, 63, 75
1, 27888, Note_on_c, 1, 55, 75
1, 27929, Note_on_c, 0, 63, 0
1, 27933, Note_on_c, 1, 55, 0
1, 27936, Note_on_c, 0, 67, 75
1, 27936, Note_on_c, 1, 56, 75
1, 27959, Note_on_c, 0, 67, 0
1, 27960, Note_on_c, 0, 65, 75
1, 27981, Note_on_c, 1, 56, 0
1, 27983, Note_on_c, 0, 65, 0
1, 27984, Note_on_c, 0, 63, 75
1, 27984, Note_on_c, 1, 58, 75
1, 28007, Note_on_c, 0, 63, 0
1, 28008, Note_on_c, 0, 62, 75
1, 28029, Note_on_c, 1, 58, 0
1, 28031, Note_on_c, 0, 62, 0
1, 28032, Note_on_c, 0, 63, 75
1, 28032, Note_on_c, 1, 60, 75
1, 28077, Note_on_c, 0, 63, 0
1, 28080, Note_on_c, 0, 74, 73
1, 28104, Note_on_c, 0, 74, 0
1, 28104, Note_on_c, 0, 75, 72
1, 28121, Note_on_c, 1, 60, 0
1, 28127, Note_on_c, 0, 75, 0
1, 28128, Note_on_c, 0, 74, 71
1, 28151, Note_on_c, 0, 74, 0
1, 28152, Note_on_c, 0, 72, 71
1, 28175, Note_on_c, 0, 72, 0
1, 28176, Note_on_c, 0, 70, 70
1, 28176, Note_on_c, 1, 63, 70
1, 28176, Note_on_c, 1, 60, 70
1, 28199, Note_on_c, 0, 70, 0
1, 28200, Note_on_c, 0, 69, 69
1, 28221, Note_on_c, 1, 63, 0
1, 28221, Note_on_c, 1, 60, 0
1, 28223, Note_on_c, 0, 69, 0
1, 28224, Note_on_c, 0, 70, 68
1, 28224, Note_on_c, 1, 62, 68
1, 28224, Note_on_c, 1, 58, 68
1, 28269, Note_on_c, 0, 70, 0
1, 28272, Note_on_c, 0, 74, 67
1, 28296, Note_on_c, 0, 74, 0
1, 28296, Note_on_c, 0, 75, 66
1, 28313, Note_on_c, 1, 62, 0
1, 28313, Note_on_c, 1, 58, 0
1, 28319, Note_on_c, 0, 75, 0
1, 28320, Note_on_c, 0, 74, 65
1, 28343, Note_on_c, 0, 74, 0
1, 28344, Note_on_c, 0, 72, 64
1, 28367, Note_on_c, 0, 72, 0
1, 28368, Note_on_c, 0, 70, 63
1, 28368, Note_on_c, 1, 63, 63
1, 28368, Note_on_c, 1, 60, 63
1, 28391, Note_on_c, 0, 70, 0
1, 28392, Note_on_c, 0, 69, 63
1, 28413, Note_on_c, 1, 63, 0
1, 28413, Note_on_c, 1, 60, 0
1, 28415, Note_on_c, 0, 69, 0
1, 28416, Note_on_c, 0, 70, 62
1, 28416, Note_on_c, 1, 62, 62
1, 28416, Note_on_c, 1, 58, 62
1, 28505, Note_on_c, 0, 70, 0
1, 28505, Note_on_c, 1, 62, 0
1, 28505, Note_on_c, 1, 58, 0
1, 28560, Note_on_c, 0, 82, 80
1, 28575, Note_on_c, 0, 82, 0
1, 28576, Note_on_c, 0, 84, 80
1, 28591, Note_on_c, 0, 84, 0
1, 28592, Note_on_c, 0, 82, 80
1, 28607, Note_on_c, 0, 82, 0
1, 28608, Note_on_c, 0, 87, 80
1, 28608, Note_on_c, 1, 63, 80
1, 28608, Note_on_c, 1, 58, 80
1, 28608, Note_on_c, 1, 55, 80
1, 28608, Note_on_c, 1, 51, 80
1, 28653, Note_on_c, 0, 87, 0
1, 28656, Note_on_c, 0, 79, 80
1, 28671, Note_on_c, 0, 79, 0
1, 28672, Note_on_c, 0, 80, 80
1, 28687, Note_on_c, 0, 80, 0
1, 28688, Note_on_c, 0, 79, 80
1, 28697, Note_on_c, 1, 63, 0
1, 28697, Note_on_c, 1, 58, 0
1, 28697, Note_on_c, 1, 55, 0
1, 28697, Note_on_c, 1, 51, 0
1, 28703, Note_on_c, 0, 79, 0
1, 28704, Note_on_c, 0, 82, 80
1, 28749, Note_on_c, 0, 82, 0
1, 28752, Note_on_c, 0, 75, 80
1, 28767, Note_on_c, 0, 75, 0
1, 28768, Note_on_c, 0, 77, 80
1, 28783, Note_on_c, 0, 77, 0
1, 28784, Note_on_c, 0, 75, 80
1, 28799, Note_on_c, 0, 75, 0
1, 28800, Note_on_c, 0, 79, 80
1, 28845, Note_on_c, 0, 79, 0
1, 28848, Note_on_c, 0, 70, 80
1, 28863, Note_on_c, 0, 70, 0
1, 28864, Note_on_c, 0, 72, 80
1, 28879, Note_on_c, 0, 72, 0
1, 28880, Note_on_c, 0, 70, 80
1, 28895, Note_on_c, 0, 70, 0
1, 28896, Note_on_c, 0, 75, 80
1, 28941, Note_on_c, 0, 75, 0
1, 28944, Note_on_c, 0, 67, 80
1, 28944, Note_on_c, 1, 55, 80
1, 28944, Note_on_c, 1, 43, 80
1, 28989, Note_on_c, 0, 67, 0
1, 28989, Note_on_c, 1, 55, 0
1, 28989, Note_on_c, 1, 43, 0
1, 28992, Note_on_c, 0, 68, 80
1, 28992, Note_on_c, 1, 56, 80
1, 28992, Note_on_c, 1, 44, 80
1, 29004, Note_on_c, 0, 68, 0
1, 29004, Note_on_c, 0, 70, 80
1, 29016, Note_on_c, 0, 70, 0
1, 29016, Note_on_c, 0, 68, 80
1, 29028, Note_on_c, 0, 68, 0
1, 29028, Note_on_c, 0, 70, 80
1, 29040, Note_on_c, 0, 70, 0
1, 29040, Note_on_c, 0, 68, 80
1, 29052, Note_on_c, 0, 68, 0
1, 29052, Note_on_c, 0, 70, 80
1, 29059, Note_on_c, 0, 70, 0
1, 29064, Note_on_c, 0, 67, 80
1, 29076, Note_on_c, 0, 67, 0
1, 29076, Note_on_c, 0, 68, 80
1, 29081, Note_on_c, 1, 56, 0
1, 29081, Note_on_c, 1, 44, 0
1, 29088, Note_on_c, 0, 68, 0
1, 29088, Note_on_c, 0, 70, 80
1, 29088, Note_on_c, 1, 58, 80
1, 29088, Note_on_c, 1, 46, 80
1, 29108, Note_on_c, 0, 70, 0
1, 29136, Note_on_c, 0, 70, 80
1, 29177, Note_on_c, 1, 58, 0
1, 29177, Note_on_c, 1, 46, 0
1, 29181, Note_on_c, 0, 70, 0
1, 29184, Note_on_c, 0, 72, 80
1, 29184, Note_on_c, 1, 60, 80
1, 29184, Note_on_c, 1, 48, 80
1, 29273, Note_on_c, 0, 72, 0
1, 29273, Note_on_c, 1, 60, 0
1, 29273, Note_on_c, 1, 48, 0
1, 29328, Note_on_c, 0, 82, 80
1, 29343, Note_on_c, 0, 82, 0
1, 29344, Note_on_c, 0, 84, 80
1, 29359, Note_on_c, 0, 84, 0
1, 29360, Note_on_c, 0, 82, 80
1, 29375, Note_on_c, 0, 82, 0
1, 29376, Note_on_c, 0, 87, 80
1, 29376, Note_on_c, 1, 63, 80
1, 29376, Note_on_c, 1, 58, 80
1, 29376, Note_on_c, 1, 55, 80
1, 29376, Note_on_c, 1, 51, 80
1, 29421, Note_on_c, 0, 87, 0
1, 29424, Note_on_c, 0, 79, 80
1, 29439, Note_on_c, 0, 79, 0
1, 29440, Note_on_c, 0, 80, 80
1, 29455, Note_on_c, 0, 80, 0
1, 29456, Note_on_c, 0, 79, 80
1, 29465, Note_on_c, 1, 63, 0
1, 29465, Note_on_c, 1, 58, 0
1, 29465, Note_on_c, 1, 55, 0
1, 29465, Note_on_c, 1, 51, 0
1, 29471, Note_on_c, 0, 79, 0
1, 29472, Note_on_c, 0, 82, 80
1, 29517, Note_on_c, 0, 82, 0
1, 29520, Note_on_c, 0, 75, 80
1, 29535, Note_on_c, 0, 75, 0
1, 29536, Note_on_c, 0, 77, 80
1, 29551, Note_on_c, 0, 77, 0
1, 29552, Note_on_c, 0, 75, 80
1, 29567, Note_on_c, 0, 75, 0
1, 29568, Note_on_c, 0, 79, 80
1, 29613, Note_on_c, 0, 79, 0
1, 29616, Note_on_c, 0, 70, 80
1, 29631, Note_on_c, 0, 70, 0
1, 29632, Note_on_c, 0, 72, 80
1, 29647, Note_on_c, 0, 72, 0
1, 29648, Note_on_c, 0, 70, 80
1, 29663, Note_on_c, 0, 70, 0
1, 29664, Note_on_c, 0, 75, 80
1, 29709, Note_on_c, 0, 75, 0
1, 29712, Note_on_c, 0, 67, 80
1, 29712, Note_on_c, 1, 55, 80
1, 29712, Note_on_c, 1, 43, 80
1, 29757, Note_on_c, 0, 67, 0
1, 29757, Note_on_c, 1, 55, 0
1, 29757, Note_on_c, 1, 43, 0
1, 29760, Note_on_c, 0, 68, 80
1, 29760, Note_on_c, 1, 56, 80
1, 29760, Note_on_c, 1, 44, 80
1, 29772, Note_on_c, 0, 68, 0
1, 29772, Note_on_c, 0, 70, 80
1, 29784, Note_on_c, 0, 70, 0
1, 29784, Note_on_c, 0, 68, 80
1, 29796, Note_on_c, 0, 68, 0
1, 29796, Note_on_c, 0, 70, 80
1, 29808, Note_on_c, 0, 70, 0
1, 29808, Note_on_c, 0, 68, 80
1, 29820, Note_on_c, 0, 68, 0
1, 29820, Note_on_c, 0, 70, 80
1, 29827, Note_on_c, 0, 70, 0
1, 29832, Note_on_c, 0, 67, 80
1, 29844, Note_on_c, 0, 67, 0
1, 29844, Note_on_c, 0, 68, 80
1, 29849, Note_on_c, 1, 56, 0
1, 29849, Note_on_c, 1, 44, 0
1, 29856, Note_on_c, 0, 68, 0
1, 29856, Note_on_c, 0, 70, 80
1, 29856, Note_on_c, 1, 58, 80
1, 29856, Note_on_c, 1, 46, 80
1, 29876, Note_on_c, 0, 70, 0
1, 29904, Note_on_c, 0, 70, 80
1, 29945, Note_on_c, 1, 58, 0
1, 29945, Note_on_c, 1, 46, 0
1, 29949, Note_on_c, 0, 70, 0
1, 29952, Note_on_c, 0, 63, 80
1, 29952, Note_on_c, 1, 51, 80
1, 29952, Note_on_c, 1, 39, 80
1, 30041, Note_on_c, 0, 63, 0
1, 30041, Note_on_c, 1, 51, 0
1, 30041, Note_on_c, 1, 39, 0
1, 30096, Note_on_c, 0, 65, 75
1, 30111, Note_on_c, 0, 65, 0
1, 30112, Note_on_c, 0, 67, 75
1, 30127, Note_on_c, 0, 67, 0
1, 30128, Note_on_c, 0, 65, 75
1, 30143, Note_on_c, 0, 65, 0
1, 30144, Note_on_c, 0, 70, 75
1, 30144, Note_on_c, 1, 62, 75
1, 30144, Note_on_c, 1, 58, 75
1, 30189, Note_on_c, 0, 70, 0
1, 30192, Note_on_c, 0, 70, 75
1, 30207, Note_on_c, 0, 70, 0
1, 30208, Note_on_c, 0, 72, 75
1, 30223, Note_on_c, 0, 72, 0
1, 30224, Note_on_c, 0, 70, 75
1, 30233, Note_on_c, 1, 62, 0
1, 30233, Note_on_c, 1, 58, 0
1, 30239, Note_on_c, 0, 70, 0
1, 30240, Note_on_c, 0, 74, 75
1, 30285, Note_on_c, 0, 74, 0
1, 30288, Note_on_c, 0, 74, 75
1, 30303, Note_on_c, 0, 74, 0
1, 30304, Note_on_c, 0, 75, 75
1, 30319, Note_on_c, 0, 75, 0
1, 30320, Note_on_c, 0, 74, 75
1, 30335, Note_on_c, 0, 74, 0
1, 30336, Note_on_c, 0, 77, 75
1, 30384, Note_on_c, 1, 58, 75
1, 30429, Note_on_c, 1, 58, 0
1, 30432, Note_on_c, 1, 62, 75
1, 30469, Note_on_c, 0, 77, 0
1, 30480, Note_on_c, 0, 74, 75
1, 30495, Note_on_c, 0, 74, 0
1, 30496, Note_on_c, 0, 75, 75
1, 30511, Note_on_c, 0, 75, 0
1, 30512, Note_on_c, 0, 74, 75
1, 30521, Note_on_c, 1, 62, 0
1, 30527, Note_on_c, 0, 74, 0
1, 30528, Note_on_c, 0, 77, 75
1, 30576, Note_on_c, 1, 58, 75
1, 30621, Note_on_c, 1, 58, 0
1, 30624, Note_on_c, 1, 62, 75
1, 30661, Note_on_c, 0, 77, 0
1, 30672, Note_on_c, 0, 74, 75
1, 30695, Note_on_c, 0, 74, 0
1, 30696, Note_on_c, 0, 77, 75
1, 30713, Note_on_c, 1, 62, 0
1, 30719, Note_on_c, 0, 77, 0
1, 30720, Note_on_c, 0, 75, 75
1, 30720, Note_on_c, 1, 60, 75
1, 30720, Note_on_c, 1, 53, 75
1, 30740, Note_on_c, 0, 75, 0
1, 30768, Note_on_c, 0, 75, 75
1, 30809, Note_on_c, 1, 60, 0
1, 30809, Note_on_c, 1, 53, 0
1, 30813, Note_on_c, 0, 75, 0
1, 30816, Note_on_c, 0, 75, 75
1, 30816, Note_on_c, 1, 57, 75
1, 30816, Note_on_c, 1, 53, 75
1, 30828, Note_on_c, 0, 75, 0
1, 30828, Note_on_c, 0, 77, 75
1, 30840, Note_on_c, 0, 77, 0
1, 30840, Note_on_c, 0, 75, 75
1, 30852, Note_on_c, 0, 75, 0
1, 30852, Note_on_c, 0, 77, 75
1, 30861, Note_on_c, 0, 77, 0
1, 30864, Note_on_c, 0, 74, 75
1, 30887, Note_on_c, 0, 74, 0
1, 30888, Note_on_c, 0, 72, 75
1, 30905, Note_on_c, 1, 57, 0
1, 30905, Note_on_c, 1, 53, 0
1, 30911, Note_on_c, 0, 72, 0
1, 30912, Note_on_c, 0, 74, 75
1, 30912, Note_on_c, 1, 58, 75
1, 30912, Note_on_c, 1, 53, 75
1, 30957, Note_on_c, 0, 74, 0
1, 30960, Note_on_c, 0, 70, 75
1, 31001, Note_on_c, 1, 58, 0
1, 31001, Note_on_c, 1, 53, 0
1, 31005, Note_on_c, 0, 70, 0
1, 31008, Note_on_c, 0, 70, 75
1, 31008, Note_on_c, 1, 62, 75
1, 31008, Note_on_c, 1, 53, 75
1, 31053, Note_on_c, 0, 70, 0
1, 31056, Note_on_c, 0, 74, 75
1, 31071, Note_on_c, 0, 74, 0
1, 31072, Note_on_c, 0, 75, 75
1, 31087, Note_on_c, 0, 75, 0
1, 31088, Note_on_c, 0, 77, 75
1, 31097, Note_on_c, 1, 62, 0
1, 31097, Note_on_c, 1, 53, 0
1, 31103, Note_on_c, 0, 77, 0
1, 31104, Note_on_c, 0, 75, 75
1, 31104, Note_on_c, 1, 60, 75
1, 31104, Note_on_c, 1, 53, 75
1, 31124, Note_on_c, 0, 75, 0
1, 31152, Note_on_c, 0, 75, 75
1, 31193, Note_on_c, 1, 60, 0
1, 31193, Note_on_c, 1, 53, 0
1, 31197, Note_on_c, 0, 75, 0
1, 31200, Note_on_c, 0, 75, 75
1, 31200, Note_on_c, 1, 57, 75
1, 31200, Note_on_c, 1, 53, 75
1, 31212, Note_on_c, 0, 75, 0
1, 31212, Note_on_c, 0, 77, 75
1, 31224, Note_on_c, 0, 77, 0
1, 31224, Note_on_c, 0, 75, 75
1, 31236, Note_on_c, 0, 75, 0
1, 31236, Note_on_c, 0, 77, 75
1, 31245, Note_on_c, 0, 77, 0
1, 31248, Note_on_c, 0, 74, 75
1, 31271, Note_on_c, 0, 74, 0
1, 31272, Note_on_c, 0, 72, 75
1, 31289, Note_on_c, 1, 57, 0
1, 31289, Note_on_c, 1, 53, 0
1, 31295, Note_on_c, 0, 72, 0
1, 31296, Note_on_c, 0, 74, 80
1, 31296, Note_on_c, 1, 58, 80
1, 31296, Note_on_c, 1, 46, 80
1, 31319, Note_on_c, 0, 74, 0
1, 31320, Note_on_c, 0, 70, 80
1, 31343, Note_on_c, 0, 70, 0
1, 31344, Note_on_c, 0, 69, 80
1, 31367, Note_on_c, 0, 69, 0
1, 31368, Note_on_c, 0, 70, 80
1, 31391, Note_on_c, 0, 70, 0
1, 31392, Note_on_c, 0, 72, 80
1, 31415, Note_on_c, 0, 72, 0
1, 31416, Note_on_c, 0, 70, 80
1, 31439, Note_on_c, 0, 70, 0
1, 31440, Note_on_c, 0, 69, 80
1, 31463, Note_on_c, 0, 69, 0
1, 31464, Note_on_c, 0, 70, 80
1, 31473, Note_on_c, 1, 58, 0
1, 31473, Note_on_c, 1, 46, 0
1, 31487, Note_on_c, 0, 70, 0
1, 31488, Note_on_c, 0, 77, 80
1, 31488, Note_on_c, 1, 56, 80
1, 31488, Note_on_c, 1, 44, 80
1, 31511, Note_on_c, 0, 77, 0
1, 31512, Note_on_c, 0, 74, 80
1, 31535, Note_on_c, 0, 74, 0
1, 31536, Note_on_c, 0, 72, 80
1, 31559, Note_on_c, 0, 72, 0
1, 31560, Note_on_c, 0, 70, 80
1, 31577, Note_on_c, 1, 56, 0
1, 31577, Note_on_c, 1, 44, 0
1, 31583, Note_on_c, 0, 70, 0
1, 31584, Note_on_c, 0, 77, 80
1, 31584, Note_on_c, 1, 56, 80
1, 31584, Note_on_c, 1, 44, 80
1, 31607, Note_on_c, 0, 77, 0
1, 31608, Note_on_c, 0, 74, 80
1, 31631, Note_on_c, 0, 74, 0
1, 31632, Note_on_c, 0, 72, 80
1, 31655, Note_on_c, 0, 72, 0
1, 31656, Note_on_c, 0, 70, 80
1, 31673, Note_on_c, 1, 56, 0
1, 31673, Note_on_c, 1, 44, 0
1, 31679, Note_on_c, 0, 70, 0
1, 31680, Note_on_c, 0, 75, 80
1, 31680, Note_on_c, 1, 55, 80
1, 31680, Note_on_c, 1, 43, 80
1, 31703, Note_on_c, 0, 75, 0
1, 31704, Note_on_c, 0, 70, 80
1, 31727, Note_on_c, 0, 70, 0
1, 31728, Note_on_c, 0, 69, 80
1, 31751, Note_on_c, 0, 69, 0
1, 31752, Note_on_c, 0, 70, 80
1, 31775, Note_on_c, 0, 70, 0
1, 31776, Note_on_c, 0, 72, 80
1, 31799, Note_on_c, 0, 72, 0
1, 31800, Note_on_c, 0, 70, 80
1, 31823, Note_on_c, 0, 70, 0
1, 31824, Note_on_c, 0, 69, 80
1, 31847, Note_on_c, 0, 69, 0
1, 31848, Note_on_c, 0, 70, 80
1, 31857, Note_on_c, 1, 55, 0
1, 31857, Note_on_c, 1, 43, 0
1, 31871, Note_on_c, 0, 70, 0
1, 31872, Note_on_c, 0, 75, 80
1, 31872, Note_on_c, 1, 67, 80
1, 31872, Note_on_c, 1, 55, 80
1, 31895, Note_on_c, 0, 75, 0
1, 31896, Note_on_c, 0, 74, 80
1, 31919, Note_on_c, 0, 74, 0
1, 31920, Note_on_c, 0, 75, 80
1, 31943, Note_on_c, 0, 75, 0
1, 31944, Note_on_c, 0, 77, 80
1, 31967, Note_on_c, 0, 77, 0
1, 31968, Note_on_c, 0, 79, 80
1, 31991, Note_on_c, 0, 79, 0
1, 31992, Note_on_c, 0, 75, 80
1, 32015, Note_on_c, 0, 75, 0
1, 32016, Note_on_c, 0, 74, 80
1, 32039, Note_on_c, 0, 74, 0
1, 32040, Note_on_c, 0, 75, 80
1, 32049, Note_on_c, 1, 67, 0
1, 32049, Note_on_c, 1, 55, 0
1, 32063, Note_on_c, 0, 75, 0
1, 32064, Note_on_c, 0, 77, 80
1, 32064, Note_on_c, 1, 62, 80
1, 32064, Note_on_c, 1, 50, 80
1, 32087, Note_on_c, 0, 77, 0
1, 32088, Note_on_c, 0, 74, 80
1, 32111, Note_on_c, 0, 74, 0
1, 32112, Note_on_c, 0, 72, 80
1, 32135, Note_on_c, 0, 72, 0
1, 32136, Note_on_c, 0, 70, 80
1, 32159, Note_on_c, 0, 70, 0
1, 32160, Note_on_c, 0, 69, 80
1, 32183, Note_on_c, 0, 69, 0
1, 32184, Note_on_c, 0, 70, 80
1, 32207, Note_on_c, 0, 70, 0
1, 32208, Note_on_c, 0, 69, 80
1, 32231, Note_on_c, 0, 69, 0
1, 32232, Note_on_c, 0, 70, 80
1, 32241, Note_on_c, 1, 62, 0
1, 32241, Note_on_c, 1, 50, 0
1, 32255, Note_on_c, 0, 70, 0
1, 32256, Note_on_c, 0, 80, 80
1, 32256, Note_on_c, 1, 58, 80
1, 32256, Note_on_c, 1, 46, 80
1, 32279, Note_on_c, 0, 80, 0
1, 32280, Note_on_c, 0, 79, 80
1, 32303, Note_on_c, 0, 79, 0
1, 32304, Note_on_c, 0, 80, 80
1, 32327, Note_on_c, 0, 80, 0
1, 32328, Note_on_c, 0, 82, 80
1, 32351, Note_on_c, 0, 82, 0
1, 32352, Note_on_c, 0, 84, 80
1, 32375, Note_on_c, 0, 84, 0
1, 32376, Note_on_c, 0, 80, 80
1, 32399, Note_on_c, 0, 80, 0
1, 32400, Note_on_c, 0, 79, 80
1, 32423, Note_on_c, 0, 79, 0
1, 32424, Note_on_c, 0, 77, 80
1, 32433, Note_on_c, 1, 58, 0
1, 32433, Note_on_c, 1, 46, 0
1, 32447, Note_on_c, 0, 77, 0
1, 32448, Note_on_c, 0, 79, 80
1, 32448, Note_on_c, 1, 63, 80
1, 32448, Note_on_c, 1, 51, 80
1, 32471, Note_on_c, 0, 79, 0
1, 32472, Note_on_c, 0, 75, 80
1, 32495, Note_on_c, 0, 75, 0
1, 32496, Note_on_c, 0, 74, 80
1, 32519, Note_on_c, 0, 74, 0
1, 32520, Note_on_c, 0, 75, 80
1, 32543, Note_on_c, 0, 75, 0
1, 32544, Note_on_c, 0, 77, 80
1, 32567, Note_on_c, 0, 77, 0
1, 32568, Note_on_c, 0, 75, 80
1, 32591, Note_on_c, 0, 75, 0
1, 32592, Note_on_c, 0, 74, 80
1, 32615, Note_on_c, 0, 74, 0
1, 32616, Note_on_c, 0, 75, 80
1, 32625, Note_on_c, 1, 63, 0
1, 32625, Note_on_c, 1, 51, 0
1, 32639, Note_on_c, 0, 75, 0
1, 32640, Note_on_c, 0, 79, 80
1, 32640, Note_on_c, 1, 61, 80
1, 32640, Note_on_c, 1, 49, 80
1, 32663, Note_on_c, 0, 79, 0
1, 32664, Note_on_c, 0, 77, 80
1, 32687, Note_on_c, 0, 77, 0
1, 32688, Note_on_c, 0, 79, 80
1, 32711, Note_on_c, 0, 79, 0
1, 32712, Note_on_c, 0, 80, 80
1, 32735, Note_on_c, 0, 80, 0
1, 32736, Note_on_c, 0, 82, 80
1, 32759, Note_on_c, 0, 82, 0
1, 32760, Note_on_c, 0, 80, 80
1, 32783, Note_on_c, 0, 80, 0
1, 32784, Note_on_c, 0, 79, 80
1, 32807, Note_on_c, 0, 79, 0
1, 32808, Note_on_c, 0, 77, 80
1, 32817, Note_on_c, 1, 61, 0
1, 32817, Note_on_c, 1, 49, 0
1, 32831, Note_on_c, 0, 77, 0
1, 32832, Note_on_c, 0, 76, 80
1, 32832, Note_on_c, 1, 60, 80
1, 32832, Note_on_c, 1, 48, 80
1, 32855, Note_on_c, 0, 76, 0
1, 32856, Note_on_c, 0, 72, 80
1, 32879, Note_on_c, 0, 72, 0
1, 32880, Note_on_c, 0, 71, 80
1, 32903, Note_on_c, 0, 71, 0
1, 32904, Note_on_c, 0, 72, 80
1, 32927, Note_on_c, 0, 72, 0
1, 32928, Note_on_c, 0, 74, 80
1, 32951, Note_on_c, 0, 74, 0
1, 32952, Note_on_c, 0, 72, 80
1, 32975, Note_on_c, 0, 72, 0
1, 32976, Note_on_c, 0, 71, 80
1, 32999, Note_on_c, 0, 71, 0
1, 33000, Note_on_c, 0, 72, 80
1, 33009, Note_on_c, 1, 60, 0
1, 33009, Note_on_c, 1, 48, 0
1, 33023, Note_on_c, 0, 72, 0
1, 33024, Note_on_c, 0, 79, 80
1, 33024, Note_on_c, 1, 52, 80
1, 33024, Note_on_c, 1, 40, 80
1, 33047, Note_on_c, 0, 79, 0
1, 33048, Note_on_c, 0, 76, 80
1, 33071, Note_on_c, 0, 76, 0
1, 33072, Note_on_c, 0, 74, 80
1, 33095, Note_on_c, 0, 74, 0
1, 33096, Note_on_c, 0, 72, 80
1, 33119, Note_on_c, 0, 72, 0
1, 33120, Note_on_c, 0, 84, 80
1, 33143, Note_on_c, 0, 84, 0
1, 33144, Note_on_c, 0, 82, 78
1, 33167, Note_on_c, 0, 82, 0
1, 33168, Note_on_c, 0, 80, 77
1, 33191, Note_on_c, 0, 80, 0
1, 33192, Note_on_c, 0, 79, 76
1, 33201, Note_on_c, 1, 52, 0
1, 33201, Note_on_c, 1, 40, 0
1, 33215, Note_on_c, 0, 79, 0
1, 33216, Note_on_c, 0, 80, 75
1, 33216, Note_on_c, 1, 53, 75
1, 33216, Note_on_c, 1, 41, 75
1, 33261, Note_on_c, 0, 80, 0
1, 33264, Note_on_c, 0, 80, 75
1, 33279, Note_on_c, 0, 80, 0
1, 33280, Note_on_c, 0, 82, 75
1, 33295, Note_on_c, 0, 82, 0
1, 33296, Note_on_c, 0, 80, 75
1, 33311, Note_on_c, 0, 80, 0
1, 33312, Note_on_c, 0, 84, 75
1, 33349, Note_on_c, 1, 53, 0
1, 33349, Note_on_c, 1, 41, 0
1, 33360, Note_on_c, 1, 63, 75
1, 33360, Note_on_c, 1, 51, 75
1, 33401, Note_on_c, 0, 84, 0
1, 33405, Note_on_c, 1, 63, 0
1, 33405, Note_on_c, 1, 51, 0
1, 33408, Note_on_c, 1, 62, 75
1, 33408, Note_on_c, 1, 50, 75
1, 33456, Note_on_c, 0, 77, 75
1, 33471, Note_on_c, 0, 77, 0
1, 33472, Note_on_c, 0, 79, 75
1, 33487, Note_on_c, 0, 79, 0
1, 33488, Note_on_c, 0, 77, 75
1, 33503, Note_on_c, 0, 77, 0
1, 33504, Note_on_c, 0, 82, 75
1, 33541, Note_on_c, 1, 62, 0
1, 33541, Note_on_c, 1, 50, 0
1, 33549, Note_on_c, 0, 82, 0
1, 33552, Note_on_c, 0, 80, 75
1, 33552, Note_on_c, 1, 58, 75
1, 33552, Note_on_c, 1, 46, 75
1, 33597, Note_on_c, 0, 80, 0
1, 33597, Note_on_c, 1, 58, 0
1, 33597, Note_on_c, 1, 46, 0
1, 33600, Note_on_c, 1, 63, 75
1, 33600, Note_on_c, 1, 51, 75
1, 33648, Note_on_c, 0, 79, 75
1, 33663, Note_on_c, 0, 79, 0
1, 33664, Note_on_c, 0, 80, 75
1, 33679, Note_on_c, 0, 80, 0
1, 33680, Note_on_c, 0, 79, 75
1, 33695, Note_on_c, 0, 79, 0
1, 33696, Note_on_c, 0, 82, 75
1, 33733, Note_on_c, 1, 63, 0
1, 33733, Note_on_c, 1, 51, 0
1, 33744, Note_on_c, 1, 62, 75
1, 33744, Note_on_c, 1, 50, 75
1, 33785, Note_on_c, 0, 82, 0
1, 33789, Note_on_c, 1, 62, 0
1, 33789, Note_on_c, 1, 50, 0
1, 33792, Note_on_c, 1, 60, 75
1, 33792, Note_on_c, 1, 48, 75
1, 33840, Note_on_c, 0, 75, 75
1, 33855, Note_on_c, 0, 75, 0
1, 33856, Note_on_c, 0, 77, 75
1, 33871, Note_on_c, 0, 77, 0
1, 33872, Note_on_c, 0, 75, 75
1, 33887, Note_on_c, 0, 75, 0
1, 33888, Note_on_c, 0, 80, 75
1, 33925, Note_on_c, 1, 60, 0
1, 33925, Note_on_c, 1, 48, 0
1, 33933, Note_on_c, 0, 80, 0
1, 33936, Note_on_c, 0, 79, 75
1, 33936, Note_on_c, 1, 56, 75
1, 33936, Note_on_c, 1, 44, 75
1, 33981, Note_on_c, 0, 79, 0
1, 33981, Note_on_c, 1, 56, 0
1, 33981, Note_on_c, 1, 44, 0
1, 33984, Note_on_c, 1, 62, 75
1, 33984, Note_on_c, 1, 50, 75
1, 34032, Note_on_c, 0, 77, 75
1, 34047, Note_on_c, 0, 77, 0
1, 34048, Note_on_c, 0, 79, 75
1, 34063, Note_on_c, 0, 79, 0
1, 34064, Note_on_c, 0, 77, 75
1, 34079, Note_on_c, 0, 77, 0
1, 34080, Note_on_c, 0, 80, 75
1, 34117, Note_on_c, 1, 62, 0
1, 34117, Note_on_c, 1, 50, 0
1, 34128, Note_on_c, 1, 60, 75
1, 34128, Note_on_c, 1, 48, 75
1, 34169, Note_on_c, 0, 80, 0
1, 34173, Note_on_c, 1, 60, 0
1, 34173, Note_on_c, 1, 48, 0
1, 34176, Note_on_c, 1, 59, 75
1, 34176, Note_on_c, 1, 47, 75
1, 34224, Note_on_c, 0, 74, 75
1, 34239, Note_on_c, 0, 74, 0
1, 34240, Note_on_c, 0, 75, 75
1, 34255, Note_on_c, 0, 75, 0
1, 34256, Note_on_c, 0, 74, 75
1, 34271, Note_on_c, 0, 74, 0
1, 34272, Note_on_c, 0, 79, 75
1, 34309, Note_on_c, 1, 59, 0
1, 34309, Note_on_c, 1, 47, 0
1, 34317, Note_on_c, 0, 79, 0
1, 34320, Note_on_c, 0, 77, 75
1, 34320, Note_on_c, 1, 55, 75
1, 34320, Note_on_c, 1, 43, 75
1, 34365, Note_on_c, 0, 77, 0
1, 34365, Note_on_c, 1, 55, 0
1, 34365, Note_on_c, 1, 43, 0
1, 34368, Note_on_c, 1, 60, 75
1, 34368, Note_on_c, 1, 48, 75
1, 34416, Note_on_c, 0, 75, 75
1, 34431, Note_on_c, 0, 75, 0
1, 34432, Note_on_c, 0, 77, 75
1, 34447, Note_on_c, 0, 77, 0
1, 34448, Note_on_c, 0, 75, 75
1, 34463, Note_on_c, 0, 75, 0
1, 34464, Note_on_c, 0, 79, 75
1, 34501, Note_on_c, 1, 60, 0
1, 34501, Note_on_c, 1, 48, 0
1, 34512, Note_on_c, 1, 58, 75
1, 34512, Note_on_c, 1, 46, 75
1, 34553, Note_on_c, 0, 79, 0
1, 34557, Note_on_c, 1, 58, 0
1, 34557, Note_on_c, 1, 46, 0
1, 34560, Note_on_c, 1, 57, 75
1, 34560, Note_on_c, 1, 45, 75
1, 34608, Note_on_c, 0, 72, 75
1, 34623, Note_on_c, 0, 72, 0
1, 34624, Note_on_c, 0, 74, 75
1, 34639, Note_on_c, 0, 74, 0
1, 34640, Note_on_c, 0, 72, 75
1, 34649, Note_on_c, 1, 57, 0
1, 34649, Note_on_c, 1, 45, 0
1, 34655, Note_on_c, 0, 72, 0
1, 34656, Note_on_c, 0, 77, 75
1, 34656, Note_on_c, 1, 57, 75
1, 34656, Note_on_c, 1, 45, 75
1, 34701, Note_on_c, 0, 77, 0
1, 34704, Note_on_c, 0, 75, 75
1, 34745, Note_on_c, 1, 57, 0
1, 34745, Note_on_c, 1, 45, 0
1, 34749, Note_on_c, 0, 75, 0
1, 34752, Note_on_c, 0, 74, 91
1, 34752, Note_on_c, 1, 65, 66
1, 34752, Note_on_c, 1, 62, 66
1, 34752, Note_on_c, 1, 58, 66
1, 34799, Note_on_c, 1, 65, 0
1, 34799, Note_on_c, 1, 62, 0
1, 34799, Note_on_c, 1, 58, 0
1, 34800, Note_on_c, 1, 65, 66
1, 34800, Note_on_c, 1, 62, 66
1, 34800, Note_on_c, 1, 58, 66
1, 34847, Note_on_c, 1, 65, 0
1, 34847, Note_on_c, 1, 62, 0
1, 34847, Note_on_c, 1, 58, 0
1, 34848, Note_on_c, 0, 74, 0
1, 34848, Note_on_c, 0, 77, 75
1, 34848, Note_on_c, 1, 65, 66
1, 34848, Note_on_c, 1, 62, 66
1, 34848, Note_on_c, 1, 58, 66
1, 34895, Note_on_c, 1, 65, 0
1, 34895, Note_on_c, 1, 62, 0
1, 34895, Note_on_c, 1, 58, 0
1, 34896, Note_on_c, 1, 65, 66
1, 34896, Note_on_c, 1, 62, 66
1, 34896, Note_on_c, 1, 58, 66
1, 34937, Note_on_c, 0, 77, 0
1, 34943, Note_on_c, 1, 65, 0
1, 34943, Note_on_c, 1, 62, 0
1, 34943, Note_on_c, 1, 58, 0
1, 34944, Note_on_c, 1, 65, 66
1, 34944, Note_on_c, 1, 62, 66
1, 34944, Note_on_c, 1, 58, 66
1, 34991, Note_on_c, 1, 65, 0
1, 34991, Note_on_c, 1, 62, 0
1, 34991, Note_on_c, 1, 58, 0
1, 34992, Note_on_c, 0, 79, 75
1, 34992, Note_on_c, 1, 65, 66
1, 34992, Note_on_c, 1, 62, 66
1, 34992, Note_on_c, 1, 58, 66
1, 35015, Note_on_c, 0, 79, 0
1, 35016, Note_on_c, 0, 80, 75
1, 35039, Note_on_c, 0, 80, 0
1, 35039, Note_on_c, 1, 65, 0
1, 35039, Note_on_c, 1, 62, 0
1, 35039, Note_on_c, 1, 58, 0
1, 35040, Note_on_c, 0, 79, 75
1, 35040, Note_on_c, 1, 65, 66
1, 35040, Note_on_c, 1, 62, 66
1, 35040, Note_on_c, 1, 58, 66
1, 35063, Note_on_c, 0, 79, 0
1, 35064, Note_on_c, 0, 77, 75
1, 35087, Note_on_c, 0, 77, 0
1, 35087, Note_on_c, 1, 65, 0
1, 35087, Note_on_c, 1, 62, 0
1, 35087, Note_on_c, 1, 58, 0
1, 35088, Note_on_c, 0, 75, 75
1, 35088, Note_on_c, 1, 65, 66
1, 35088, Note_on_c, 1, 62, 66
1, 35088, Note_on_c, 1, 58, 66
1, 35111, Note_on_c, 0, 75, 0
1, 35112, Note_on_c, 0, 74, 75
1, 35135, Note_on_c, 0, 74, 0
1, 35135, Note_on_c, 1, 65, 0
1, 35135, Note_on_c, 1, 62, 0
1, 35135, Note_on_c, 1, 58, 0
1, 35136, Note_on_c, 0, 74, 91
1, 35136, Note_on_c, 1, 67, 66
1, 35136, Note_on_c, 1, 63, 66
1, 35136, Note_on_c, 1, 58, 66
1, 35183, Note_on_c, 1, 67, 0
1, 35183, Note_on_c, 1, 63, 0
1, 35183, Note_on_c, 1, 58, 0
1, 35184, Note_on_c, 1, 67, 66
1, 35184, Note_on_c, 1, 63, 66
1, 35184, Note_on_c, 1, 58, 66
1, 35231, Note_on_c, 1, 67, 0
1, 35231, Note_on_c, 1, 63, 0
1, 35231, Note_on_c, 1, 58, 0
1, 35232, Note_on_c, 0, 74, 0
1, 35232, Note_on_c, 0, 75, 75
1, 35232, Note_on_c, 1, 67, 66
1, 35232, Note_on_c, 1, 63, 66
1, 35232, Note_on_c, 1, 58, 66
1, 35279, Note_on_c, 1, 67, 0
1, 35279, Note_on_c, 1, 63, 0
1, 35279, Note_on_c, 1, 58, 0
1, 35280, Note_on_c, 1, 67, 66
1, 35280, Note_on_c, 1, 63, 66
1, 35280, Note_on_c, 1, 58, 66
1, 35321, Note_on_c, 0, 75, 0
1, 35327, Note_on_c, 1, 67, 0
1, 35327, Note_on_c, 1, 63, 0
1, 35327, Note_on_c, 1, 58, 0
1, 35328, Note_on_c, 1, 67, 66
1, 35328, Note_on_c, 1, 58, 66
1, 35375, Note_on_c, 1, 67, 0
1, 35375, Note_on_c, 1, 58, 0
1, 35376, Note_on_c, 0, 81, 75
1, 35376, Note_on_c, 1, 67, 66
1, 35376, Note_on_c, 1, 58, 66
1, 35399, Note_on_c, 0, 81, 0
1, 35400, Note_on_c, 0, 82, 75
1, 35423, Note_on_c, 0, 82, 0
1, 35423, Note_on_c, 1, 67, 0
1, 35423, Note_on_c, 1, 58, 0
1, 35424, Note_on_c, 0, 80, 75
1, 35424, Note_on_c, 1, 67, 66
1, 35424, Note_on_c, 1, 58, 66
1, 35447, Note_on_c, 0, 80, 0
1, 35448, Note_on_c, 0, 79, 75
1, 35471, Note_on_c, 0, 79, 0
1, 35471, Note_on_c, 1, 67, 0
1, 35471, Note_on_c, 1, 58, 0
1, 35472, Note_on_c, 0, 77, 75
1, 35472, Note_on_c, 1, 67, 66
1, 35472, Note_on_c, 1, 58, 66
1, 35495, Note_on_c, 0, 77, 0
1, 35496, Note_on_c, 0, 75, 75
1, 35519, Note_on_c, 0, 75, 0
1, 35519, Note_on_c, 1, 67, 0
1, 35519, Note_on_c, 1, 58, 0
1, 35520, Note_on_c, 0, 76, 91
1, 35520, Note_on_c, 1, 65, 66
1, 35520, Note_on_c, 1, 62, 66
1, 35520, Note_on_c, 1, 58, 66
1, 35567, Note_on_c, 1, 65, 0
1, 35567, Note_on_c, 1, 62, 0
1, 35567, Note_on_c, 1, 58, 0
1, 35568, Note_on_c, 1, 65, 66
1, 35568, Note_on_c, 1, 62, 66
1, 35568, Note_on_c, 1, 58, 66
1, 35615, Note_on_c, 1, 65, 0
1, 35615, Note_on_c, 1, 62, 0
1, 35615, Note_on_c, 1, 58, 0
1, 35616, Note_on_c, 0, 76, 0
1, 35616, Note_on_c, 0, 77, 75
1, 35616, Note_on_c, 1, 65, 66
1, 35616, Note_on_c, 1, 62, 66
1, 35616, Note_on_c, 1, 58, 66
1, 35663, Note_on_c, 1, 65, 0
1, 35663, Note_on_c, 1, 62, 0
1, 35663, Note_on_c, 1, 58, 0
1, 35664, Note_on_c, 1, 65, 66
1, 35664, Note_on_c, 1, 62, 66
1, 35664, Note_on_c, 1, 58, 66
1, 35705, Note_on_c, 0, 77, 0
1, 35711, Note_on_c, 1, 65, 0
1, 35711, Note_on_c, 1, 62, 0
1, 35711, Note_on_c, 1, 58, 0
1, 35712, Note_on_c, 1, 65, 66
1, 35712, Note_on_c, 1, 62, 66
1, 35712, Note_on_c, 1, 58, 66
1, 35759, Note_on_c, 1, 65, 0
1, 35759, Note_on_c, 1, 62, 0
1, 35759, Note_on_c, 1, 58, 0
1, 35760, Note_on_c, 0, 79, 75
1, 35760, Note_on_c, 1, 65, 66
1, 35760, Note_on_c, 1, 62, 66
1, 35760, Note_on_c, 1, 58, 66
1, 35783, Note_on_c, 0, 79, 0
1, 35784, Note_on_c, 0, 80, 75
1, 35807, Note_on_c, 0, 80, 0
1, 35807, Note_on_c, 1, 65, 0
1, 35807, Note_on_c, 1, 62, 0
1, 35807, Note_on_c, 1, 58, 0
1, 35808, Note_on_c, 0, 79, 75
1, 35808, Note_on_c, 1, 65, 66
1, 35808, Note_on_c, 1, 62, 66
1, 35808, Note_on_c, 1, 58, 66
1, 35831, Note_on_c, 0, 79, 0
1, 35832, Note_on_c, 0, 77, 75
1, 35855, Note_on_c, 0, 77, 0
1, 35855, Note_on_c, 1, 65, 0
1, 35855, Note_on_c, 1, 62, 0
1, 35855, Note_on_c, 1, 58, 0
1, 35856, Note_on_c, 0, 75, 75
1, 35856, Note_on_c, 1, 65, 66
1, 35856, Note_on_c, 1, 62, 66
1, 35856, Note_on_c, 1, 58, 66
1, 35879, Note_on_c, 0, 75, 0
1, 35880, Note_on_c, 0, 74, 75
1, 35903, Note_on_c, 0, 74, 0
1, 35903, Note_on_c, 1, 65, 0
1, 35903, Note_on_c, 1, 62, 0
1, 35903, Note_on_c, 1, 58, 0
1, 35904, Note_on_c, 0, 75, 75
1, 35904, Note_on_c, 1, 63, 75
1, 35949, Note_on_c, 0, 75, 0
1, 35952, Note_on_c, 0, 67, 75
1, 35967, Note_on_c, 0, 67, 0
1, 35968, Note_on_c, 0, 68, 75
1, 35983, Note_on_c, 0, 68, 0
1, 35984, Note_on_c, 0, 67, 75
1, 35993, Note_on_c, 1, 63, 0
1, 35999, Note_on_c, 0, 67, 0
1, 36000, Note_on_c, 0, 70, 75
1, 36045, Note_on_c, 0, 70, 0
1, 36048, Note_on_c, 0, 70, 75
1, 36063, Note_on_c, 0, 70, 0
1, 36064, Note_on_c, 0, 72, 75
1, 36079, Note_on_c, 0, 72, 0
1, 36080, Note_on_c, 0, 70, 75
1, 36095, Note_on_c, 0, 70, 0
1, 36096, Note_on_c, 0, 75, 75
1, 36141, Note_on_c, 0, 75, 0
1, 36144, Note_on_c, 0, 75, 75
1, 36159, Note_on_c, 0, 75, 0
1, 36160, Note_on_c, 0, 77, 75
1, 36175, Note_on_c, 0, 77, 0
1, 36176, Note_on_c, 0, 75, 75
1, 36191, Note_on_c, 0, 75, 0
1, 36192, Note_on_c, 0, 79, 75
1, 36237, Note_on_c, 0, 79, 0
1, 36240, Note_on_c, 0, 79, 75
1, 36255, Note_on_c, 0, 79, 0
1, 36256, Note_on_c, 0, 80, 75
1, 36271, Note_on_c, 0, 80, 0
1, 36272, Note_on_c, 0, 79, 75
1, 36287, Note_on_c, 0, 79, 0
1, 36288, Note_on_c, 0, 82, 75
1, 36336, Note_on_c, 1, 63, 75
1, 36381, Note_on_c, 1, 63, 0
1, 36384, Note_on_c, 1, 67, 75
1, 36421, Note_on_c, 0, 82, 0
1, 36432, Note_on_c, 0, 79, 75
1, 36447, Note_on_c, 0, 79, 0
1, 36448, Note_on_c, 0, 80, 75
1, 36463, Note_on_c, 0, 80, 0
1, 36464, Note_on_c, 0, 79, 75
1, 36473, Note_on_c, 1, 67, 0
1, 36479, Note_on_c, 0, 79, 0
1, 36480, Note_on_c, 0, 82, 75
1, 36528, Note_on_c, 1, 63, 75
1, 36573, Note_on_c, 1, 63, 0
1, 36576, Note_on_c, 1, 67, 75
1, 36613, Note_on_c, 0, 82, 0
1, 36624, Note_on_c, 0, 79, 75
1, 36647, Note_on_c, 0, 79, 0
1, 36648, Note_on_c, 0, 82, 75
1, 36665, Note_on_c, 1, 67, 0
1, 36671, Note_on_c, 0, 82, 0
1, 36672, Note_on_c, 0, 80, 75
1, 36672, Note_on_c, 1, 65, 75
1, 36672, Note_on_c, 1, 58, 75
1, 36717, Note_on_c, 0, 80, 0
1, 36720, Note_on_c, 0, 80, 75
1, 36761, Note_on_c, 1, 65, 0
1, 36761, Note_on_c, 1, 58, 0
1, 36765, Note_on_c, 0, 80, 0
1, 36768, Note_on_c, 0, 80, 75
1, 36768, Note_on_c, 1, 62, 75
1, 36768, Note_on_c, 1, 58, 75
1, 36780, Note_on_c, 0, 80, 0
1, 36780, Note_on_c, 0, 82, 75
1, 36792, Note_on_c, 0, 82, 0
1, 36792, Note_on_c, 0, 80, 75
1, 36804, Note_on_c, 0, 80, 0
1, 36804, Note_on_c, 0, 82, 75
1, 36813, Note_on_c, 0, 82, 0
1, 36816, Note_on_c, 0, 79, 75
1, 36839, Note_on_c, 0, 79, 0
1, 36840, Note_on_c, 0, 77, 75
1, 36857, Note_on_c, 1, 62, 0
1, 36857, Note_on_c, 1, 58, 0
1, 36863, Note_on_c, 0, 77, 0
1, 36864, Note_on_c, 0, 79, 75
1, 36864, Note_on_c, 1, 63, 75
1, 36864, Note_on_c, 1, 58, 75
1, 36909, Note_on_c, 0, 79, 0
1, 36912, Note_on_c, 0, 75, 75
1, 36953, Note_on_c, 1, 63, 0
1, 36953, Note_on_c, 1, 58, 0
1, 36957, Note_on_c, 0, 75, 0
1, 36960, Note_on_c, 0, 75, 75
1, 36960, Note_on_c, 1, 67, 75
1, 36960, Note_on_c, 1, 58, 75
1, 37005, Note_on_c, 0, 75, 0
1, 37008, Note_on_c, 0, 79, 75
1, 37023, Note_on_c, 0, 79, 0
1, 37024, Note_on_c, 0, 80, 75
1, 37039, Note_on_c, 0, 80, 0
1, 37040, Note_on_c, 0, 82, 75
1, 37049, Note_on_c, 1, 67, 0
1, 37049, Note_on_c, 1, 58, 0
1, 37055, Note_on_c, 0, 82, 0
1, 37056, Note_on_c, 0, 80, 75
1, 37056, Note_on_c, 1, 65, 75
1, 37056, Note_on_c, 1, 58, 75
1, 37101, Note_on_c, 0, 80, 0
1, 37104, Note_on_c, 0, 80, 75
1, 37145, Note_on_c, 1, 65, 0
1, 37145, Note_on_c, 1, 58, 0
1, 37149, Note_on_c, 0, 80, 0
1, 37152, Note_on_c, 0, 80, 75
1, 37152, Note_on_c, 1, 62, 75
1, 37152, Note_on_c, 1, 58, 75
1, 37164, Note_on_c, 0, 80, 0
1, 37164, Note_on_c, 0, 82, 75
1, 37176, Note_on_c, 0, 82, 0
1, 37176, Note_on_c, 0, 80, 75
1, 37188, Note_on_c, 0, 80, 0
1, 37188, Note_on_c, 0, 82, 75
1, 37197, Note_on_c, 0, 82, 0
1, 37200, Note_on_c, 0, 79, 75
1, 37223, Note_on_c, 0, 79, 0
1, 37224, Note_on_c, 0, 77, 75
1, 37241, Note_on_c, 1, 62, 0
1, 37241, Note_on_c, 1, 58, 0
1, 37247, Note_on_c, 0, 77, 0
1, 37248, Note_on_c, 0, 79, 75
1, 37248, Note_on_c, 1, 39, 75
1, 37271, Note_on_c, 0, 79, 0
1, 37272, Note_on_c, 0, 75, 75
1, 37295, Note_on_c, 0, 75, 0
1, 37296, Note_on_c, 0, 74, 75
1, 37319, Note_on_c, 0, 74, 0
1, 37320, Note_on_c, 0, 75, 75
1, 37337, Note_on_c, 1, 39, 0
1, 37343, Note_on_c, 0, 75, 0
1, 37344, Note_on_c, 0, 77, 75
1, 37367, Note_on_c, 0, 77, 0
1, 37368, Note_on_c, 0, 75, 75
1, 37391, Note_on_c, 0, 75, 0
1, 37392, Note_on_c, 0, 74, 75
1, 37392, Note_on_c, 1, 63, 75
1, 37392, Note_on_c, 1, 55, 75
1, 37415, Note_on_c, 0, 74, 0
1, 37416, Note_on_c, 0, 75, 75
1, 37437, Note_on_c, 1, 63, 0
1, 37437, Note_on_c, 1, 55, 0
1, 37439, Note_on_c, 0, 75, 0
1, 37440, Note_on_c, 0, 72, 75
1, 37440, Note_on_c, 1, 63, 75
1, 37440, Note_on_c, 1, 56, 75
1, 37463, Note_on_c, 0, 72, 0
1, 37464, Note_on_c, 0, 75, 75
1, 37487, Note_on_c, 0, 75, 0
1, 37488, Note_on_c, 0, 74, 75
1, 37511, Note_on_c, 0, 74, 0
1, 37512, Note_on_c, 0, 72, 75
1, 37529, Note_on_c, 1, 63, 0
1, 37529, Note_on_c, 1, 56, 0
1, 37535, Note_on_c, 0, 72, 0
1, 37536, Note_on_c, 0, 70, 75
1, 37536, Note_on_c, 1, 63, 75
1, 37536, Note_on_c, 1, 55, 75
1, 37581, Note_on_c, 0, 70, 0
1, 37584, Note_on_c, 0, 75, 75
1, 37625, Note_on_c, 1, 63, 0
1, 37625, Note_on_c, 1, 55, 0
1, 37629, Note_on_c, 0, 75, 0
1, 37632, Note_on_c, 0, 68, 75
1, 37632, Note_on_c, 1, 62, 75
1, 37632, Note_on_c, 1, 53, 75
1, 37655, Note_on_c, 0, 68, 0
1, 37656, Note_on_c, 0, 72, 75
1, 37679, Note_on_c, 0, 72, 0
1, 37680, Note_on_c, 0, 70, 75
1, 37703, Note_on_c, 0, 70, 0
1, 37704, Note_on_c, 0, 68, 75
1, 37721, Note_on_c, 1, 62, 0
1, 37721, Note_on_c, 1, 53, 0
1, 37727, Note_on_c, 0, 68, 0
1, 37728, Note_on_c, 0, 67, 75
1, 37728, Note_on_c, 1, 63, 75
1, 37728, Note_on_c, 1, 51, 75
1, 37751, Note_on_c, 0, 67, 0
1, 37752, Note_on_c, 0, 70, 75
1, 37775, Note_on_c, 0, 70, 0
1, 37776, Note_on_c, 0, 68, 75
1, 37799, Note_on_c, 0, 68, 0
1, 37800, Note_on_c, 0, 67, 75
1, 37817, Note_on_c, 1, 63, 0
1, 37817, Note_on_c, 1, 51, 0
1, 37823, Note_on_c, 0, 67, 0
1, 37824, Note_on_c, 0, 65, 75
1, 37824, Note_on_c, 1, 56, 75
1, 37847, Note_on_c, 0, 65, 0
1, 37848, Note_on_c, 0, 68, 75
1, 37871, Note_on_c, 0, 68, 0
1, 37872, Note_on_c, 0, 67, 75
1, 37895, Note_on_c, 0, 67, 0
1, 37896, Note_on_c, 0, 65, 75
1, 37919, Note_on_c, 0, 65, 0
1, 37920, Note_on_c, 0, 72, 75
1, 37957, Note_on_c, 1, 56, 0
1, 37965, Note_on_c, 0, 72, 0
1, 37968, Note_on_c, 0, 63, 75
1, 37968, Note_on_c, 1, 57, 75
1, 38013, Note_on_c, 0, 63, 0
1, 38013, Note_on_c, 1, 57, 0
1, 38016, Note_on_c, 0, 63, 75
1, 38016, Note_on_c, 1, 58, 75
1, 38028, Note_on_c, 0, 63, 0
1, 38028, Note_on_c, 0, 65, 75
1, 38040, Note_on_c, 0, 65, 0
1, 38040, Note_on_c, 0, 63, 75
1, 38052, Note_on_c, 0, 63, 0
1, 38052, Note_on_c, 0, 65, 75
1, 38061, Note_on_c, 0, 65, 0
1, 38061, Note_on_c, 1, 58, 0
1, 38064, Note_on_c, 0, 62, 75
1, 38064, Note_on_c, 1, 53, 75
1, 38109, Note_on_c, 0, 62, 0
1, 38109, Note_on_c, 1, 53, 0
1, 38112, Note_on_c, 1, 46, 75
1, 38160, Note_on_c, 0, 58, 70
1, 38175, Note_on_c, 0, 58, 0
1, 38176, Note_on_c, 0, 60, 70
1, 38191, Note_on_c, 0, 60, 0
1, 38192, Note_on_c, 0, 58, 70
1, 38201, Note_on_c, 1, 46, 0
1, 38207, Note_on_c, 0, 58, 0
1, 38208, Note_on_c, 0, 63, 70
1, 38256, Note_on_c, 1, 51, 70
1, 38297, Note_on_c, 0, 63, 0
1, 38301, Note_on_c, 1, 51, 0
1, 38304, Note_on_c, 1, 55, 70
1, 38352, Note_on_c, 0, 59, 70
1, 38393, Note_on_c, 1, 55, 0
1, 38400, Note_on_c, 0, 59, 0
1, 38400, Note_on_c, 0, 60, 70
1, 38448, Note_on_c, 1, 56, 70
1, 38489, Note_on_c, 0, 60, 0
1, 38493, Note_on_c, 1, 56, 0
1, 38496, Note_on_c, 1, 44, 70
1, 38544, Note_on_c, 0, 60, 70
1, 38559, Note_on_c, 0, 60, 0
1, 38560, Note_on_c, 0, 62, 70
1, 38575, Note_on_c, 0, 62, 0
1, 38576, Note_on_c, 0, 60, 70
1, 38585, Note_on_c, 1, 44, 0
1, 38591, Note_on_c, 0, 60, 0
1, 38592, Note_on_c, 0, 65, 70
1, 38640, Note_on_c, 1, 53, 70
1, 38681, Note_on_c, 0, 65, 0
1, 38685, Note_on_c, 1, 53, 0
1, 38688, Note_on_c, 1, 57, 70
1, 38736, Note_on_c, 0, 61, 70
1, 38777, Note_on_c, 1, 57, 0
1, 38784, Note_on_c, 0, 61, 0
1, 38784, Note_on_c, 0, 62, 70
1, 38832, Note_on_c, 1, 58, 70
1, 38873, Note_on_c, 0, 62, 0
1, 38877, Note_on_c, 1, 58, 0
1, 38880, Note_on_c, 1, 46, 70
1, 38928, Note_on_c, 0, 77, 70
1, 38951, Note_on_c, 0, 77, 0
1, 38952, Note_on_c, 0, 74, 70
1, 38969, Note_on_c, 1, 46, 0
1, 38975, Note_on_c, 0, 74, 0
1, 38976, Note_on_c, 0, 68, 75
1, 38976, Note_on_c, 1, 62, 66
1, 38976, Note_on_c, 1, 58, 66
1, 39021, Note_on_c, 1, 62, 0
1, 39021, Note_on_c, 1, 58, 0
1, 39024, Note_on_c, 1, 62, 66
1, 39024, Note_on_c, 1, 58, 66
1, 39069, Note_on_c, 1, 62, 0
1, 39069, Note_on_c, 1, 58, 0
1, 39072, Note_on_c, 1, 62, 66
1, 39072, Note_on_c, 1, 58, 66
1, 39109, Note_on_c, 0, 68, 0
1, 39117, Note_on_c, 1, 62, 0
1, 39117, Note_on_c, 1, 58, 0
1, 39120, Note_on_c, 0, 72, 75
1, 39120, Note_on_c, 1, 62, 66
1, 39120, Note_on_c, 1, 58, 66
1, 39135, Note_on_c, 0, 72, 0
1, 39136, Note_on_c, 0, 70, 75
1, 39151, Note_on_c, 0, 70, 0
1, 39152, Note_on_c, 0, 68, 75
1, 39165, Note_on_c, 1, 62, 0
1, 39165, Note_on_c, 1, 58, 0
1, 39167, Note_on_c, 0, 68, 0
1, 39168, Note_on_c, 0, 67, 75
1, 39168, Note_on_c, 1, 63, 66
1, 39168, Note_on_c, 1, 58, 66
1, 39213, Note_on_c, 0, 67, 0
1, 39213, Note_on_c, 1, 63, 0
1, 39213, Note_on_c, 1, 58, 0
1, 39216, Note_on_c, 0, 70, 75
1, 39216, Note_on_c, 1, 63, 66
1, 39216, Note_on_c, 1, 58, 66
1, 39261, Note_on_c, 0, 70, 0
1, 39261, Note_on_c, 1, 63, 0
1, 39261, Note_on_c, 1, 58, 0
1, 39264, Note_on_c, 1, 63, 66
1, 39264, Note_on_c, 1, 58, 66
1, 39309, Note_on_c, 1, 63, 0
1, 39309, Note_on_c, 1, 58, 0
1, 39312, Note_on_c, 0, 75, 75
1, 39312, Note_on_c, 1, 63, 66
1, 39312, Note_on_c, 1, 58, 66
1, 39327, Note_on_c, 0, 75, 0
1, 39328, Note_on_c, 0, 77, 75
1, 39343, Note_on_c, 0, 77, 0
1, 39344, Note_on_c, 0, 79, 75
1, 39357, Note_on_c, 1, 63, 0
1, 39357, Note_on_c, 1, 58, 0
1, 39359, Note_on_c, 0, 79, 0
1, 39360, Note_on_c, 0, 77, 75
1, 39360, Note_on_c, 1, 62, 66
1, 39360, Note_on_c, 1, 58, 66
1, 39405, Note_on_c, 0, 77, 0
1, 39405, Note_on_c, 1, 62, 0
1, 39405, Note_on_c, 1, 58, 0
1, 39408, Note_on_c, 0, 74, 75
1, 39408, Note_on_c, 1, 62, 66
1, 39408, Note_on_c, 1, 58, 66
1, 39453, Note_on_c, 0, 74, 0
1, 39453, Note_on_c, 1, 62, 0
1, 39453, Note_on_c, 1, 58, 0
1, 39456, Note_on_c, 0, 70, 75
1, 39456, Note_on_c, 1, 62, 66
1, 39456, Note_on_c, 1, 58, 66
1, 39501, Note_on_c, 0, 70, 0
1, 39501, Note_on_c, 1, 62, 0
1, 39501, Note_on_c, 1, 58, 0
1, 39504, Note_on_c, 0, 68, 75
1, 39504, Note_on_c, 1, 62, 66
1, 39504, Note_on_c, 1, 58, 66
1, 39549, Note_on_c, 0, 68, 0
1, 39549, Note_on_c, 1, 62, 0
1, 39549, Note_on_c, 1, 58, 0
1, 39552, Note_on_c, 0, 67, 75
1, 39552, Note_on_c, 1, 63, 75
1, 39575, Note_on_c, 0, 67, 0
1, 39576, Note_on_c, 0, 75, 75
1, 39599, Note_on_c, 0, 75, 0
1, 39600, Note_on_c, 0, 74, 75
1, 39623, Note_on_c, 0, 74, 0
1, 39624, Note_on_c, 0, 72, 75
1, 39641, Note_on_c, 1, 63, 0
1, 39647, Note_on_c, 0, 72, 0
1, 39648, Note_on_c, 0, 70, 75
1, 39668, Note_on_c, 0, 70, 0
1, 39696, Note_on_c, 0, 70, 75
1, 39741, Note_on_c, 0, 70, 0
1, 39744, Note_on_c, 0, 72, 75
1, 39757, Note_on_c, 0, 72, 0
1, 39758, Note_on_c, 0, 70, 75
1, 39771, Note_on_c, 0, 70, 0
1, 39772, Note_on_c, 0, 72, 75
1, 39785, Note_on_c, 0, 72, 0
1, 39786, Note_on_c, 0, 70, 75
1, 39792, Note_on_c, 1, 62, 75
1, 39792, Note_on_c, 1, 58, 75
1, 39799, Note_on_c, 0, 70, 0
1, 39800, Note_on_c, 0, 72, 75
1, 39813, Note_on_c, 0, 72, 0
1, 39814, Note_on_c, 0, 70, 75
1, 39827, Note_on_c, 0, 70, 0
1, 39828, Note_on_c, 0, 72, 75
1, 39837, Note_on_c, 1, 62, 0
1, 39837, Note_on_c, 1, 58, 0
1, 39840, Note_on_c, 1, 63, 75
1, 39840, Note_on_c, 1, 60, 75
1, 39841, Note_on_c, 0, 72, 0
1, 39842, Note_on_c, 0, 70, 75
1, 39855, Note_on_c, 0, 70, 0
1, 39856, Note_on_c, 0, 72, 75
1, 39869, Note_on_c, 0, 72, 0
1, 39870, Note_on_c, 0, 70, 75
1, 39883, Note_on_c, 0, 70, 0
1, 39884, Note_on_c, 0, 68, 75
1, 39885, Note_on_c, 1, 63, 0
1, 39885, Note_on_c, 1, 60, 0
1, 39888, Note_on_c, 1, 65, 75
1, 39888, Note_on_c, 1, 62, 75
1, 39933, Note_on_c, 1, 65, 0
1, 39933, Note_on_c, 1, 62, 0
1, 39935, Note_on_c, 0, 68, 0
1, 39936, Note_on_c, 0, 67, 75
1, 39936, Note_on_c, 1, 63, 75
1, 39959, Note_on_c, 0, 67, 0
1, 39960, Note_on_c, 0, 70, 75
1, 39983, Note_on_c, 0, 70, 0
1, 39984, Note_on_c, 0, 68, 75
1, 40007, Note_on_c, 0, 68, 0
1, 40008, Note_on_c, 0, 67, 75
1, 40025, Note_on_c, 1, 63, 0
1, 40031, Note_on_c, 0, 67, 0
1, 40032, Note_on_c, 0, 72, 75
1, 40032, Note_on_c, 1, 56, 75
1, 40055, Note_on_c, 0, 72, 0
1, 40056, Note_on_c, 0, 68, 75
1, 40079, Note_on_c, 0, 68, 0
1, 40080, Note_on_c, 0, 67, 75
1, 40103, Note_on_c, 0, 67, 0
1, 40104, Note_on_c, 0, 65, 75
1, 40121, Note_on_c, 1, 56, 0
1, 40127, Note_on_c, 0, 65, 0
1, 40128, Note_on_c, 0, 63, 75
1, 40176, Note_on_c, 1, 55, 75
1, 40217, Note_on_c, 0, 63, 0
1, 40221, Note_on_c, 1, 55, 0
1, 40224, Note_on_c, 0, 67, 75
1, 40224, Note_on_c, 1, 56, 75
1, 40247, Note_on_c, 0, 67, 0
1, 40248, Note_on_c, 0, 65, 75
1, 40269, Note_on_c, 1, 56, 0
1, 40271, Note_on_c, 0, 65, 0
1, 40272, Note_on_c, 0, 63, 75
1, 40272, Note_on_c, 1, 58, 75
1, 40295, Note_on_c, 0, 63, 0
1, 40296, Note_on_c, 0, 62, 75
1, 40317, Note_on_c, 1, 58, 0
1, 40319, Note_on_c, 0, 62, 0
1, 40320, Note_on_c, 0, 63, 75
1, 40320, Note_on_c, 1, 60, 75
1, 40365, Note_on_c, 0, 63, 0
1, 40368, Note_on_c, 0, 74, 73
1, 40392, Note_on_c, 0, 74, 0
1, 40392, Note_on_c, 0, 75, 72
1, 40409, Note_on_c, 1, 60, 0
1, 40415, Note_on_c, 0, 75, 0
1, 40416, Note_on_c, 0, 74, 71
1, 40439, Note_on_c, 0, 74, 0
1, 40440, Note_on_c, 0, 72, 71
1, 40463, Note_on_c, 0, 72, 0
1, 40464, Note_on_c, 0, 70, 70
1, 40464, Note_on_c, 1, 63, 70
1, 40464, Note_on_c, 1, 60, 70
1, 40487, Note_on_c, 0, 70, 0
1, 40488, Note_on_c, 0, 69, 69
1, 40509, Note_on_c, 1, 63, 0
1, 40509, Note_on_c, 1, 60, 0
1, 40511, Note_on_c, 0, 69, 0
1, 40512, Note_on_c, 0, 70, 68
1, 40512, Note_on_c, 1, 62, 68
1, 40512, Note_on_c, 1, 58, 68
1, 40557, Note_on_c, 0, 70, 0
1, 40560, Note_on_c, 0, 74, 67
1, 40584, Note_on_c, 0, 74, 0
1, 40584, Note_on_c, 0, 75, 66
1, 40601, Note_on_c, 1, 62, 0
1, 40601, Note_on_c, 1, 58, 0
1, 40607, Note_on_c, 0, 75, 0
1, 40608, Note_on_c, 0, 74, 65
1, 40631, Note_on_c, 0, 74, 0
1, 40632, Note_on_c, 0, 72, 64
1, 40655, Note_on_c, 0, 72, 0
1, 40656, Note_on_c, 0, 70, 63
1, 40656, Note_on_c, 1, 63, 63
1, 40656, Note_on_c, 1, 60, 63
1, 40679, Note_on_c, 0, 70, 0
1, 40680, Note_on_c, 0, 69, 63
1, 40701, Note_on_c, 1, 63, 0
1, 40701, Note_on_c, 1, 60, 0
1, 40703, Note_on_c, 0, 69, 0
1, 40704, Note_on_c, 0, 70, 62
1, 40704, Note_on_c, 1, 62, 62
1, 40704, Note_on_c, 1, 58, 62
1, 40793, Note_on_c, 0, 70, 0
1, 40793, Note_on_c, 1, 62, 0
1, 40793, Note_on_c, 1, 58, 0
1, 40848, Note_on_c, 0, 82, 80
1, 40863, Note_on_c, 0, 82, 0
1, 40864, Note_on_c, 0, 84, 80
1, 40879, Note_on_c, 0, 84, 0
1, 40880, Note_on_c, 0, 82, 80
1, 40895, Note_on_c, 0, 82, 0
1, 40896, Note_on_c, 0, 87, 80
1, 40896, Note_on_c, 1, 63, 80
1, 40896, Note_on_c, 1, 58, 80
1, 40896, Note_on_c, 1, 55, 80
1, 40896, Note_on_c, 1, 51, 80
1, 40941, Note_on_c, 0, 87, 0
1, 40944, Note_on_c, 0, 79, 80
1, 40959, Note_on_c, 0, 79, 0
1, 40960, Note_on_c, 0, 80, 80
1, 40975, Note_on_c, 0, 80, 0
1, 40976, Note_on_c, 0, 79, 80
1, 40985, Note_on_c, 1, 63, 0
1, 40985, Note_on_c, 1, 58, 0
1, 40985, Note_on_c, 1, 55, 0
1, 40985, Note_on_c, 1, 51, 0
1, 40991, Note_on_c, 0, 79, 0
1, 40992, Note_on_c, 0, 82, 80
1, 41037, Note_on_c, 0, 82, 0
1, 41040, Note_on_c, 0, 75, 80
1, 41055, Note_on_c, 0, 75, 0
1, 41056, Note_on_c, 0, 77, 80
1, 41071, Note_on_c, 0, 77, 0
1, 41072, Note_on_c, 0, 75, 80
1, 41087, Note_on_c, 0, 75, 0
1, 41088, Note_on_c, 0, 79, 80
1, 41133, Note_on_c, 0, 79, 0
1, 41136, Note_on_c, 0, 70, 80
1, 41151, Note_on_c, 0, 70, 0
1, 41152, Note_on_c, 0, 72, 80
1, 41167, Note_on_c, 0, 72, 0
1, 41168, Note_on_c, 0, 70, 80
1, 41183, Note_on_c, 0, 70, 0
1, 41184, Note_on_c, 0, 75, 80
1, 41229, Note_on_c, 0, 75, 0
1, 41232, Note_on_c, 0, 67, 80
1, 41232, Note_on_c, 1, 55, 80
1, 41232, Note_on_c, 1, 43, 80
1, 41277, Note_on_c, 0, 67, 0
1, 41277, Note_on_c, 1, 55, 0
1, 41277, Note_on_c, 1, 43, 0
1, 41280, Note_on_c, 0, 68, 80
1, 41280, Note_on_c, 1, 56, 80
1, 41280, Note_on_c, 1, 44, 80
1, 41292, Note_on_c, 0, 68, 0
1, 41292, Note_on_c, 0, 70, 80
1, 41304, Note_on_c, 0, 70, 0
1, 41304, Note_on_c, 0, 68, 80
1, 41316, Note_on_c, 0, 68, 0
1, 41316, Note_on_c, 0, 70, 80
1, 41328, Note_on_c, 0, 70, 0
1, 41328, Note_on_c, 0, 68, 80
1, 41340, Note_on_c, 0, 68, 0
1, 41340, Note_on_c, 0, 70, 80
1, 41347, Note_on_c, 0, 70, 0
1, 41352, Note_on_c, 0, 67, 80
1, 41364, Note_on_c, 0, 67, 0
1, 41364, Note_on_c, 0, 68, 80
1, 41369, Note_on_c, 1, 56, 0
1, 41369, Note_on_c, 1, 44, 0
1, 41376, Note_on_c, 0, 68, 0
1, 41376, Note_on_c, 0, 70, 80
1, 41376, Note_on_c, 1, 58, 80
1, 41376, Note_on_c, 1, 46, 80
1, 41396, Note_on_c, 0, 70, 0
1, 41424, Note_on_c, 0, 70, 80
1, 41465, Note_on_c, 1, 58, 0
1, 41465, Note_on_c, 1, 46, 0
1, 41469, Note_on_c, 0, 70, 0
1, 41472, Note_on_c, 0, 72, 80
1, 41472, Note_on_c, 1, 60, 80
1, 41472, Note_on_c, 1, 48, 80
1, 41561, Note_on_c, 0, 72, 0
1, 41561, Note_on_c, 1, 60, 0
1, 41561, Note_on_c, 1, 48, 0
1, 41616, Note_on_c, 0, 82, 80
1, 41631, Note_on_c, 0, 82, 0
1, 41632, Note_on_c, 0, 84, 80
1, 41647, Note_on_c, 0, 84, 0
1, 41648, Note_on_c, 0, 82, 80
1, 41663, Note_on_c, 0, 82, 0
1, 41664, Note_on_c, 0, 87, 80
1, 41664, Note_on_c, 1, 63, 80
1, 41664, Note_on_c, 1, 58, 80
1, 41664, Note_on_c, 1, 55, 80
1, 41664, Note_on_c, 1, 51, 80
1, 41709, Note_on_c, 0, 87, 0
1, 41712, Note_on_c, 0, 79, 80
1, 41727, Note_on_c, 0, 79, 0
1, 41728, Note_on_c, 0, 80, 80
1, 41743, Note_on_c, 0, 80, 0
1, 41744, Note_on_c, 0, 79, 80
1, 41753, Note_on_c, 1, 63, 0
1, 41753, Note_on_c, 1, 58, 0
1, 41753, Note_on_c, 1, 55, 0
1, 41753, Note_on_c, 1, 51, 0
1, 41759, Note_on_c, 0, 79, 0
1, 41760, Note_on_c, 0, 82, 80
1, 41805, Note_on_c, 0, 82, 0
1, 41808, Note_on_c, 0, 75, 80
1, 41823, Note_on_c, 0, 75, 0
1, 41824, Note_on_c, 0, 77, 80
1, 41839, Note_on_c, 0, 77, 0
1, 41840, Note_on_c, 0, 75, 80
1, 41855, Note_on_c, 0, 75, 0
1, 41856, Note_on_c, 0, 79, 80
1, 41901, Note_on_c, 0, 79, 0
1, 41904, Note_on_c, 0, 70, 80
1, 41919, Note_on_c, 0, 70, 0
1, 41920, Note_on_c, 0, 72, 80
1, 41935, Note_on_c, 0, 72, 0
1, 41936, Note_on_c, 0, 70, 80
1, 41951, Note_on_c, 0, 70, 0
1, 41952, Note_on_c, 0, 75, 80
1, 41997, Note_on_c, 0, 75, 0
1, 42000, Note_on_c, 0, 67, 80
1, 42000, Note_on_c, 1, 55, 80
1, 42000, Note_on_c, 1, 43, 80
1, 42045, Note_on_c, 0, 67, 0
1, 42045, Note_on_c, 1, 55, 0
1, 42045, Note_on_c, 1, 43, 0
1, 42048, Note_on_c, 0, 68, 80
1, 42048, Note_on_c, 1, 56, 80
1, 42048, Note_on_c, 1, 44, 80
1, 42060, Note_on_c, 0, 68, 0
1, 42060, Note_on_c, 0, 70, 80
1, 42072, Note_on_c, 0, 70, 0
1, 42072, Note_on_c, 0, 68, 80
1, 42084, Note_on_c, 0, 68, 0
1, 42084, Note_on_c, 0, 70, 80
1, 42096, Note_on_c, 0, 70, 0
1, 42096, Note_on_c, 0, 68, 80
1, 42108, Note_on_c, 0, 68, 0
1, 42108, Note_on_c, 0, 70, 80
1, 42115, Note_on_c, 0, 70, 0
1, 42120, Note_on_c, 0, 67, 80
1, 42132, Note_on_c, 0, 67, 0
1, 42132, Note_on_c, 0, 68, 80
1, 42137, Note_on_c, 1, 56, 0
1, 42137, Note_on_c, 1, 44, 0
1, 42144, Note_on_c, 0, 68, 0
1, 42144, Note_on_c, 0, 70, 80
1, 42144, Note_on_c, 1, 58, 80
1, 42144, Note_on_c, 1, 46, 80
1, 42164, Note_on_c, 0, 70, 0
1, 42192, Note_on_c, 0, 70, 80
1, 42233, Note_on_c, 1, 58, 0
1, 42233, Note_on_c, 1, 46, 0
1, 42237, Note_on_c, 0, 70, 0
1, 42240, Note_on_c, 0, 63, 80
1, 42240, Note_on_c, 1, 51, 80
1, 42240, Note_on_c, 1, 39, 80
1, 42329, Note_on_c, 0, 63, 0
1, 42329, Note_on_c, 1, 51, 0
1, 42329, Note_on_c, 1, 39, 0
1, 42384, Note_on_c, 1, 39, 0
1, 42429, Note_on_c, 1, 39, 0
1, 42439, End_track
0, 0, End_of_file