0, 0, Header, 0, 1, 96
1, 0, Start_track
1, 0, Tempo, 50000
1, 288, Note_on_c, 0, 71, 75
1, 327, Note_on_c, 0, 71, 0
1, 384, Note_on_c, 0, 76, 75
1, 384, Note_on_c, 1, 64, 64
1, 423, Note_on_c, 1, 64, 0
1, 429, Note_on_c, 0, 76, 0
1, 432, Note_on_c, 0, 79, 75
1, 477, Note_on_c, 0, 79, 0
1, 480, Note_on_c, 0, 78, 75
1, 480, Note_on_c, 1, 67, 64
1, 519, Note_on_c, 1, 67, 0
1, 525, Note_on_c, 0, 78, 0
1, 528, Note_on_c, 0, 76, 76
1, 573, Note_on_c, 0, 76, 0
1, 576, Note_on_c, 0, 75, 77
1, 576, Note_on_c, 1, 66, 64
1, 615, Note_on_c, 1, 66, 0
1, 621, Note_on_c, 0, 75, 0
1, 624, Note_on_c, 0, 78, 77
1, 669, Note_on_c, 0, 78, 0
1, 672, Note_on_c, 0, 76, 78
1, 672, Note_on_c, 1, 69, 64
1, 711, Note_on_c, 1, 69, 0
1, 717, Note_on_c, 0, 76, 0
1, 720, Note_on_c, 0, 75, 79
1, 765, Note_on_c, 0, 75, 0
1, 768, Note_on_c, 0, 76, 80
1, 768, Note_on_c, 1, 67, 64
1, 813, Note_on_c, 0, 76, 0
1, 816, Note_on_c, 0, 83, 79
1, 836, Note_on_c, 0, 83, 0
1, 864, Note_on_c, 0, 81, 78
1, 884, Note_on_c, 0, 81, 0
1, 912, Note_on_c, 0, 79, 78
1, 932, Note_on_c, 0, 79, 0
1, 945, Note_on_c, 1, 67, 0
1, 960, Note_on_c, 0, 78, 77
1, 980, Note_on_c, 0, 78, 0
1, 1008, Note_on_c, 0, 76, 76
1, 1028, Note_on_c, 0, 76, 0
1, 1056, Note_on_c, 0, 75, 76
1, 1104, Note_on_c, 0, 75, 0
1, 1104, Note_on_c, 0, 76, 75
1, 1149, Note_on_c, 0, 76, 0
1, 1152, Note_on_c, 0, 71, 75
1, 1152, Note_on_c, 1, 64, 64
1, 1191, Note_on_c, 1, 64, 0
1, 1197, Note_on_c, 0, 71, 0
1, 1200, Note_on_c, 0, 79, 75
1, 1245, Note_on_c, 0, 79, 0
1, 1248, Note_on_c, 0, 78, 75
1, 1248, Note_on_c, 1, 67, 64
1, 1287, Note_on_c, 1, 67, 0
1, 1293, Note_on_c, 0, 78, 0
1, 1296, Note_on_c, 0, 76, 75
1, 1341, Note_on_c, 0, 76, 0
1, 1344, Note_on_c, 0, 75, 76
1, 1344, Note_on_c, 1, 66, 64
1, 1383, Note_on_c, 1, 66, 0
1, 1389, Note_on_c, 0, 75, 0
1, 1392, Note_on_c, 0, 78, 76
1, 1437, Note_on_c, 0, 78, 0
1, 1440, Note_on_c, 0, 76, 76
1, 1440, Note_on_c, 1, 69, 64
1, 1479, Note_on_c, 1, 69, 0
1, 1485, Note_on_c, 0, 76, 0
1, 1488, Note_on_c, 0, 75, 77
1, 1533, Note_on_c, 0, 75, 0
1, 1536, Note_on_c, 0, 76, 77
1, 1536, Note_on_c, 1, 67, 64
1, 1581, Note_on_c, 0, 76, 0
1, 1584, Note_on_c, 0, 83, 77
1, 1604, Note_on_c, 0, 83, 0
1, 1632, Note_on_c, 0, 81, 78
1, 1652, Note_on_c, 0, 81, 0
1, 1680, Note_on_c, 0, 79, 78
1, 1700, Note_on_c, 0, 79, 0
1, 1713, Note_on_c, 1, 67, 0
1, 1728, Note_on_c, 0, 78, 78
1, 1748, Note_on_c, 0, 78, 0
1, 1776, Note_on_c, 0, 76, 79
1, 1796, Note_on_c, 0, 76, 0
1, 1824, Note_on_c, 0, 75, 79
1, 1872, Note_on_c, 0, 75, 0
1, 1872, Note_on_c, 0, 76, 75
1, 1917, Note_on_c, 0, 76, 0
1, 1920, Note_on_c, 0, 72, 75
1, 1920, Note_on_c, 1, 69, 70
1, 1932, Note_on_c, 0, 72, 0
1, 1932, Note_on_c, 0, 74, 75
1, 1944, Note_on_c, 0, 74, 0
1, 1944, Note_on_c, 0, 72, 75
1, 1959, Note_on_c, 1, 69, 0
1, 1965, Note_on_c, 0, 72, 0
1, 1968, Note_on_c, 0, 71, 75
1, 2013, Note_on_c, 0, 71, 0
1, 2016, Note_on_c, 0, 72, 76
1, 2016, Note_on_c, 1, 67, 70
1, 2055, Note_on_c, 1, 67, 0
1, 2105, Note_on_c, 0, 72, 0
1, 2112, Note_on_c, 0, 72, 78
1, 2112, Note_on_c, 1, 66, 70
1, 2124, Note_on_c, 0, 72, 0
1, 2124, Note_on_c, 0, 74, 78
1, 2136, Note_on_c, 0, 74, 0
1, 2136, Note_on_c, 0, 72, 78
1, 2151, Note_on_c, 1, 66, 0
1, 2157, Note_on_c, 0, 72, 0
1, 2160, Note_on_c, 0, 71, 79
1, 2205, Note_on_c, 0, 71, 0
1, 2208, Note_on_c, 0, 72, 80
1, 2208, Note_on_c, 1, 64, 70
1, 2247, Note_on_c, 1, 64, 0
1, 2297, Note_on_c, 0, 72, 0
1, 2304, Note_on_c, 0, 81, 96
1, 2304, Note_on_c, 1, 62, 70
1, 2343, Note_on_c, 1, 62, 0
1, 2352, Note_on_c, 0, 81, 0
1, 2352, Note_on_c, 0, 79, 79
1, 2397, Note_on_c, 0, 79, 0
1, 2400, Note_on_c, 0, 78, 78
1, 2400, Note_on_c, 1, 74, 70
1, 2439, Note_on_c, 1, 74, 0
1, 2445, Note_on_c, 0, 78, 0
1, 2448, Note_on_c, 0, 76, 78
1, 2493, Note_on_c, 0, 76, 0
1, 2496, Note_on_c, 0, 74, 77
1, 2541, Note_on_c, 0, 74, 0
1, 2544, Note_on_c, 0, 72, 76
1, 2589, Note_on_c, 0, 72, 0
1, 2592, Note_on_c, 0, 71, 76
1, 2637, Note_on_c, 0, 71, 0
1, 2640, Note_on_c, 0, 69, 75
1, 2685, Note_on_c, 0, 69, 0
1, 2688, Note_on_c, 0, 71, 75
1, 2688, Note_on_c, 1, 67, 70
1, 2700, Note_on_c, 0, 71, 0
1, 2700, Note_on_c, 0, 72, 75
1, 2712, Note_on_c, 0, 72, 0
1, 2712, Note_on_c, 0, 71, 75
1, 2727, Note_on_c, 1, 67, 0
1, 2733, Note_on_c, 0, 71, 0
1, 2736, Note_on_c, 0, 69, 75
1, 2781, Note_on_c, 0, 69, 0
1, 2784, Note_on_c, 0, 71, 76
1, 2784, Note_on_c, 1, 66, 70
1, 2823, Note_on_c, 1, 66, 0
1, 2873, Note_on_c, 0, 71, 0
1, 2880, Note_on_c, 0, 71, 77
1, 2880, Note_on_c, 1, 64, 70
1, 2892, Note_on_c, 0, 71, 0
1, 2892, Note_on_c, 0, 72, 77
1, 2904, Note_on_c, 0, 72, 0
1, 2904, Note_on_c, 0, 71, 77
1, 2919, Note_on_c, 1, 64, 0
1, 2925, Note_on_c, 0, 71, 0
1, 2928, Note_on_c, 0, 69, 78
1, 2973, Note_on_c, 0, 69, 0
1, 2976, Note_on_c, 0, 71, 78
1, 2976, Note_on_c, 1, 62, 70
1, 3015, Note_on_c, 1, 62, 0
1, 3065, Note_on_c, 0, 71, 0
1, 3072, Note_on_c, 0, 79, 96
1, 3072, Note_on_c, 1, 60, 70
1, 3111, Note_on_c, 1, 60, 0
1, 3120, Note_on_c, 0, 79, 0
1, 3120, Note_on_c, 0, 78, 79
1, 3165, Note_on_c, 0, 78, 0
1, 3168, Note_on_c, 0, 76, 78
1, 3168, Note_on_c, 1, 72, 70
1, 3207, Note_on_c, 1, 72, 0
1, 3213, Note_on_c, 0, 76, 0
1, 3216, Note_on_c, 0, 74, 78
1, 3261, Note_on_c, 0, 74, 0
1, 3264, Note_on_c, 0, 72, 77
1, 3309, Note_on_c, 0, 72, 0
1, 3312, Note_on_c, 0, 71, 76
1, 3357, Note_on_c, 0, 71, 0
1, 3360, Note_on_c, 0, 69, 76
1, 3405, Note_on_c, 0, 69, 0
1, 3408, Note_on_c, 0, 67, 75
1, 3453, Note_on_c, 0, 67, 0
1, 3456, Note_on_c, 0, 69, 75
1, 3456, Note_on_c, 1, 66, 70
1, 3468, Note_on_c, 0, 69, 0
1, 3468, Note_on_c, 0, 71, 75
1, 3480, Note_on_c, 0, 71, 0
1, 3480, Note_on_c, 0, 69, 75
1, 3495, Note_on_c, 1, 66, 0
1, 3501, Note_on_c, 0, 69, 0
1, 3504, Note_on_c, 0, 67, 75
1, 3549, Note_on_c, 0, 67, 0
1, 3552, Note_on_c, 0, 69, 76
1, 3552, Note_on_c, 1, 64, 70
1, 3591, Note_on_c, 1, 64, 0
1, 3641, Note_on_c, 0, 69, 0
1, 3648, Note_on_c, 0, 69, 77
1, 3648, Note_on_c, 1, 63, 70
1, 3660, Note_on_c, 0, 69, 0
1, 3660, Note_on_c, 0, 71, 77
1, 3672, Note_on_c, 0, 71, 0
1, 3672, Note_on_c, 0, 69, 77
1, 3687, Note_on_c, 1, 63, 0
1, 3693, Note_on_c, 0, 69, 0
1, 3696, Note_on_c, 0, 67, 78
1, 3741, Note_on_c, 0, 67, 0
1, 3744, Note_on_c, 0, 69, 78
1, 3744, Note_on_c, 1, 61, 70
1, 3783, Note_on_c, 1, 61, 0
1, 3833, Note_on_c, 0, 69, 0
1, 3840, Note_on_c, 0, 78, 80
1, 3840, Note_on_c, 1, 59, 70
1, 3879, Note_on_c, 1, 59, 0
1, 3885, Note_on_c, 0, 78, 0
1, 3888, Note_on_c, 0, 76, 79
1, 3933, Note_on_c, 0, 76, 0
1, 3936, Note_on_c, 0, 75, 78
1, 3936, Note_on_c, 1, 71, 70
1, 3975, Note_on_c, 1, 71, 0
1, 3981, Note_on_c, 0, 75, 0
1, 3984, Note_on_c, 0, 76, 78
1, 4029, Note_on_c, 0, 76, 0
1, 4032, Note_on_c, 0, 78, 77
1, 4080, Note_on_c, 1, 57, 75
1, 4121, Note_on_c, 0, 78, 0
1, 4125, Note_on_c, 1, 57, 0
1, 4128, Note_on_c, 0, 72, 92
1, 4128, Note_on_c, 1, 59, 75
1, 4173, Note_on_c, 1, 59, 0
1, 4176, Note_on_c, 1, 60, 75
1, 4221, Note_on_c, 1, 60, 0
1, 4224, Note_on_c, 1, 51, 75
1, 4269, Note_on_c, 0, 72, 0
1, 4272, Note_on_c, 0, 66, 75
1, 4317, Note_on_c, 0, 66, 0
1, 4320, Note_on_c, 0, 71, 75
1, 4365, Note_on_c, 0, 71, 0
1, 4368, Note_on_c, 0, 69, 75
1, 4401, Note_on_c, 1, 51, 0
1, 4413, Note_on_c, 0, 69, 0
1, 4416, Note_on_c, 0, 67, 75
1, 4461, Note_on_c, 0, 67, 0
1, 4464, Note_on_c, 0, 66, 75
1, 4464, Note_on_c, 1, 54, 75
1, 4509, Note_on_c, 0, 66, 0
1, 4509, Note_on_c, 1, 54, 0
1, 4512, Note_on_c, 0, 64, 76
1, 4512, Note_on_c, 1, 52, 75
1, 4557, Note_on_c, 0, 64, 0
1, 4557, Note_on_c, 1, 52, 0
1, 4560, Note_on_c, 0, 63, 76
1, 4560, Note_on_c, 1, 51, 75
1, 4605, Note_on_c, 0, 63, 0
1, 4605, Note_on_c, 1, 51, 0
1, 4608, Note_on_c, 0, 64, 76
1, 4608, Note_on_c, 1, 52, 76
1, 4653, Note_on_c, 0, 64, 0
1, 4653, Note_on_c, 1, 52, 0
1, 4656, Note_on_c, 0, 59, 76
1, 4656, Note_on_c, 1, 47, 76
1, 4701, Note_on_c, 0, 59, 0
1, 4701, Note_on_c, 1, 47, 0
1, 4704, Note_on_c, 0, 60, 77
1, 4704, Note_on_c, 1, 48, 76
1, 4749, Note_on_c, 0, 60, 0
1, 4749, Note_on_c, 1, 48, 0
1, 4752, Note_on_c, 0, 59, 77
1, 4752, Note_on_c, 1, 47, 76
1, 4797, Note_on_c, 0, 59, 0
1, 4797, Note_on_c, 1, 47, 0
1, 4800, Note_on_c, 0, 57, 77
1, 4800, Note_on_c, 1, 45, 77
1, 4845, Note_on_c, 0, 57, 0
1, 4845, Note_on_c, 1, 45, 0
1, 4848, Note_on_c, 0, 55, 77
1, 4848, Note_on_c, 1, 43, 77
1, 4893, Note_on_c, 0, 55, 0
1, 4893, Note_on_c, 1, 43, 0
1, 4896, Note_on_c, 0, 54, 78
1, 4896, Note_on_c, 1, 42, 77
1, 4941, Note_on_c, 0, 54, 0
1, 4941, Note_on_c, 1, 42, 0
1, 4944, Note_on_c, 0, 52, 78
1, 4944, Note_on_c, 1, 40, 78
1, 4989, Note_on_c, 0, 52, 0
1, 4989, Note_on_c, 1, 40, 0
1, 4992, Note_on_c, 0, 51, 78
1, 4992, Note_on_c, 1, 39, 78
1, 5037, Note_on_c, 0, 51, 0
1, 5037, Note_on_c, 1, 39, 0
1, 5040, Note_on_c, 0, 60, 78
1, 5040, Note_on_c, 1, 48, 78
1, 5085, Note_on_c, 0, 60, 0
1, 5085, Note_on_c, 1, 48, 0
1, 5088, Note_on_c, 0, 59, 79
1, 5088, Note_on_c, 1, 47, 78
1, 5133, Note_on_c, 0, 59, 0
1, 5133, Note_on_c, 1, 47, 0
1, 5136, Note_on_c, 0, 57, 79
1, 5136, Note_on_c, 1, 45, 79
1, 5181, Note_on_c, 0, 57, 0
1, 5181, Note_on_c, 1, 45, 0
1, 5184, Note_on_c, 0, 59, 79
1, 5184, Note_on_c, 1, 47, 79
1, 5223, Note_on_c, 0, 59, 0
1, 5223, Note_on_c, 1, 47, 0
1, 5280, Note_on_c, 0, 59, 96
1, 5280, Note_on_c, 1, 54, 96
1, 5280, Note_on_c, 1, 51, 96
1, 5280, Note_on_c, 1, 47, 96
1, 5319, Note_on_c, 0, 59, 0
1, 5319, Note_on_c, 1, 54, 0
1, 5319, Note_on_c, 1, 51, 0
1, 5319, Note_on_c, 1, 47, 0
1, 5376, Note_on_c, 0, 59, 97
1, 5376, Note_on_c, 0, 55, 97
1, 5376, Note_on_c, 0, 52, 97
1, 5376, Note_on_c, 1, 47, 80
1, 5376, Note_on_c, 1, 43, 80
1, 5376, Note_on_c, 1, 40, 80
1, 5641, Note_on_c, 0, 59, 0
1, 5641, Note_on_c, 0, 55, 0
1, 5641, Note_on_c, 0, 52, 0
1, 5641, Note_on_c, 1, 47, 0
1, 5641, Note_on_c, 1, 43, 0
1, 5641, Note_on_c, 1, 40, 0
1, 5760, Note_on_c, 1, 59, 80
1, 5760, Note_on_c, 1, 55, 80
1, 5760, Note_on_c, 1, 52, 80
1, 5808, Note_on_c, 0, 71, 80
1, 5828, Note_on_c, 0, 71, 0
1, 5856, Note_on_c, 0, 71, 80
1, 5868, Note_on_c, 0, 71, 0
1, 5868, Note_on_c, 0, 72, 80
1, 5880, Note_on_c, 0, 72, 0
1, 5880, Note_on_c, 0, 71, 80
1, 5901, Note_on_c, 0, 71, 0
1, 5904, Note_on_c, 0, 69, 80
1, 5927, Note_on_c, 0, 69, 0
1, 5928, Note_on_c, 0, 71, 80
1, 5937, Note_on_c, 1, 59, 0
1, 5937, Note_on_c, 1, 55, 0
1, 5937, Note_on_c, 1, 52, 0
1, 5951, Note_on_c, 0, 71, 0
1, 5952, Note_on_c, 0, 76, 80
1, 6000, Note_on_c, 0, 76, 0
1, 6000, Note_on_c, 0, 71, 80
1, 6020, Note_on_c, 0, 71, 0
1, 6048, Note_on_c, 0, 71, 80
1, 6137, Note_on_c, 0, 71, 0
1, 6144, Note_on_c, 1, 59, 80
1, 6144, Note_on_c, 1, 54, 80
1, 6144, Note_on_c, 1, 51, 80
1, 6192, Note_on_c, 0, 71, 80
1, 6212, Note_on_c, 0, 71, 0
1, 6240, Note_on_c, 0, 71, 80
1, 6252, Note_on_c, 0, 71, 0
1, 6252, Note_on_c, 0, 72, 80
1, 6264, Note_on_c, 0, 72, 0
1, 6264, Note_on_c, 0, 71, 80
1, 6285, Note_on_c, 0, 71, 0
1, 6288, Note_on_c, 0, 69, 80
1, 6311, Note_on_c, 0, 69, 0
1, 6312, Note_on_c, 0, 71, 80
1, 6321, Note_on_c, 1, 59, 0
1, 6321, Note_on_c, 1, 54, 0
1, 6321, Note_on_c, 1, 51, 0
1, 6335, Note_on_c, 0, 71, 0
1, 6336, Note_on_c, 0, 78, 80
1, 6384, Note_on_c, 0, 78, 0
1, 6384, Note_on_c, 0, 71, 80
1, 6404, Note_on_c, 0, 71, 0
1, 6432, Note_on_c, 0, 71, 80
1, 6521, Note_on_c, 0, 71, 0
1, 6528, Note_on_c, 0, 79, 80
1, 6528, Note_on_c, 1, 40, 80
1, 6573, Note_on_c, 0, 79, 0
1, 6576, Note_on_c, 0, 81, 80
1, 6617, Note_on_c, 1, 40, 0
1, 6621, Note_on_c, 0, 81, 0
1, 6624, Note_on_c, 0, 83, 80
1, 6624, Note_on_c, 1, 67, 80
1, 6669, Note_on_c, 0, 83, 0
1, 6672, Note_on_c, 0, 79, 80
1, 6717, Note_on_c, 0, 79, 0
1, 6720, Note_on_c, 0, 76, 80
1, 6765, Note_on_c, 0, 76, 0
1, 6765, Note_on_c, 1, 67, 0
1, 6768, Note_on_c, 0, 78, 80
1, 6768, Note_on_c, 1, 69, 80
1, 6813, Note_on_c, 0, 78, 0
1, 6813, Note_on_c, 1, 69, 0
1, 6816, Note_on_c, 0, 79, 80
1, 6816, Note_on_c, 1, 71, 80
1, 6861, Note_on_c, 0, 79, 0
1, 6861, Note_on_c, 1, 71, 0
1, 6864, Note_on_c, 0, 76, 80
1, 6864, Note_on_c, 1, 67, 80
1, 6909, Note_on_c, 0, 76, 0
1, 6909, Note_on_c, 1, 67, 0
1, 6912, Note_on_c, 0, 72, 80
1, 6912, Note_on_c, 1, 64, 80
1, 6957, Note_on_c, 0, 72, 0
1, 6957, Note_on_c, 1, 64, 0
1, 6960, Note_on_c, 0, 74, 80
1, 6960, Note_on_c, 1, 66, 80
1, 7005, Note_on_c, 0, 74, 0
1, 7005, Note_on_c, 1, 66, 0
1, 7008, Note_on_c, 0, 76, 80
1, 7008, Note_on_c, 1, 67, 80
1, 7053, Note_on_c, 0, 76, 0
1, 7053, Note_on_c, 1, 67, 0
1, 7056, Note_on_c, 0, 72, 80
1, 7056, Note_on_c, 1, 64, 80
1, 7101, Note_on_c, 0, 72, 0
1, 7101, Note_on_c, 1, 64, 0
1, 7104, Note_on_c, 0, 69, 80
1, 7104, Note_on_c, 1, 60, 80
1, 7149, Note_on_c, 0, 69, 0
1, 7149, Note_on_c, 1, 60, 0
1, 7152, Note_on_c, 0, 71, 80
1, 7152, Note_on_c, 1, 62, 80
1, 7197, Note_on_c, 0, 71, 0
1, 7197, Note_on_c, 1, 62, 0
1, 7200, Note_on_c, 0, 72, 80
1, 7200, Note_on_c, 1, 64, 80
1, 7245, Note_on_c, 0, 72, 0
1, 7245, Note_on_c, 1, 64, 0
1, 7248, Note_on_c, 0, 69, 80
1, 7248, Note_on_c, 1, 60, 80
1, 7293, Note_on_c, 0, 69, 0
1, 7293, Note_on_c, 1, 60, 0
1, 7296, Note_on_c, 1, 57, 96
1, 7344, Note_on_c, 0, 81, 80
1, 7367, Note_on_c, 0, 81, 0
1, 7368, Note_on_c, 0, 83, 80
1, 7390, Note_on_c, 1, 57, 0
1, 7391, Note_on_c, 0, 83, 0
1, 7392, Note_on_c, 0, 84, 80
1, 7437, Note_on_c, 0, 84, 0
1, 7440, Note_on_c, 0, 81, 80
1, 7485, Note_on_c, 0, 81, 0
1, 7488, Note_on_c, 0, 78, 80
1, 7533, Note_on_c, 0, 78, 0
1, 7536, Note_on_c, 0, 78, 80
1, 7536, Note_on_c, 1, 69, 80
1, 7559, Note_on_c, 0, 78, 0
1, 7559, Note_on_c, 1, 69, 0
1, 7560, Note_on_c, 0, 79, 80
1, 7560, Note_on_c, 1, 71, 80
1, 7583, Note_on_c, 0, 79, 0
1, 7583, Note_on_c, 1, 71, 0
1, 7584, Note_on_c, 0, 81, 80
1, 7584, Note_on_c, 1, 72, 80
1, 7629, Note_on_c, 0, 81, 0
1, 7629, Note_on_c, 1, 72, 0
1, 7632, Note_on_c, 0, 78, 80
1, 7632, Note_on_c, 1, 69, 80
1, 7677, Note_on_c, 0, 78, 0
1, 7677, Note_on_c, 1, 69, 0
1, 7680, Note_on_c, 0, 75, 80
1, 7680, Note_on_c, 1, 66, 80
1, 7725, Note_on_c, 0, 75, 0
1, 7725, Note_on_c, 1, 66, 0
1, 7728, Note_on_c, 0, 75, 80
1, 7728, Note_on_c, 1, 66, 80
1, 7751, Note_on_c, 0, 75, 0
1, 7751, Note_on_c, 1, 66, 0
1, 7752, Note_on_c, 0, 76, 80
1, 7752, Note_on_c, 1, 67, 80
1, 7775, Note_on_c, 0, 76, 0
1, 7775, Note_on_c, 1, 67, 0
1, 7776, Note_on_c, 0, 78, 80
1, 7776, Note_on_c, 1, 69, 80
1, 7821, Note_on_c, 0, 78, 0
1, 7821, Note_on_c, 1, 69, 0
1, 7824, Note_on_c, 0, 75, 80
1, 7824, Note_on_c, 1, 66, 80
1, 7869, Note_on_c, 0, 75, 0
1, 7869, Note_on_c, 1, 66, 0
1, 7872, Note_on_c, 0, 71, 80
1, 7872, Note_on_c, 1, 67, 80
1, 7917, Note_on_c, 1, 67, 0
1, 7920, Note_on_c, 1, 64, 80
1, 7961, Note_on_c, 0, 71, 0
1, 7965, Note_on_c, 1, 64, 0
1, 7968, Note_on_c, 0, 76, 80
1, 7968, Note_on_c, 1, 67, 80
1, 8013, Note_on_c, 1, 67, 0
1, 8016, Note_on_c, 1, 64, 80
1, 8057, Note_on_c, 0, 76, 0
1, 8061, Note_on_c, 1, 64, 0
1, 8064, Note_on_c, 1, 58, 80
1, 8112, Note_on_c, 0, 79, 80
1, 8157, Note_on_c, 0, 79, 0
1, 8160, Note_on_c, 0, 78, 80
1, 8205, Note_on_c, 0, 78, 0
1, 8208, Note_on_c, 0, 76, 80
1, 8241, Note_on_c, 1, 58, 0
1, 8253, Note_on_c, 0, 76, 0
1, 8256, Note_on_c, 0, 85, 80
1, 8304, Note_on_c, 1, 76, 80
1, 8304, Note_on_c, 1, 73, 80
1, 8345, Note_on_c, 0, 85, 0
1, 8349, Note_on_c, 1, 76, 0
1, 8349, Note_on_c, 1, 73, 0
1, 8352, Note_on_c, 1, 78, 80
1, 8352, Note_on_c, 1, 74, 80
1, 8397, Note_on_c, 1, 78, 0
1, 8397, Note_on_c, 1, 74, 0
1, 8400, Note_on_c, 1, 76, 80
1, 8400, Note_on_c, 1, 73, 80
1, 8445, Note_on_c, 1, 76, 0
1, 8445, Note_on_c, 1, 73, 0
1, 8448, Note_on_c, 1, 73, 80
1, 8448, Note_on_c, 1, 74, 64
1, 8496, Note_on_c, 0, 78, 80
1, 8541, Note_on_c, 0, 78, 0
1, 8544, Note_on_c, 0, 76, 80
1, 8544, Note_on_c, 1, 73, 0
1, 8544, Note_on_c, 1, 71, 80
1, 8589, Note_on_c, 0, 76, 0
1, 8592, Note_on_c, 0, 74, 80
1, 8625, Note_on_c, 1, 74, 0
1, 8633, Note_on_c, 1, 71, 0
1, 8637, Note_on_c, 0, 74, 0
1, 8640, Note_on_c, 0, 83, 80
1, 8688, Note_on_c, 1, 74, 80
1, 8688, Note_on_c, 1, 71, 80
1, 8729, Note_on_c, 0, 83, 0
1, 8733, Note_on_c, 1, 74, 0
1, 8733, Note_on_c, 1, 71, 0
1, 8736, Note_on_c, 1, 76, 80
1, 8736, Note_on_c, 1, 72, 80
1, 8781, Note_on_c, 1, 76, 0
1, 8781, Note_on_c, 1, 72, 0
1, 8784, Note_on_c, 1, 74, 80
1, 8784, Note_on_c, 1, 71, 80
1, 8829, Note_on_c, 1, 74, 0
1, 8829, Note_on_c, 1, 71, 0
1, 8832, Note_on_c, 1, 71, 80
1, 8832, Note_on_c, 1, 72, 64
1, 8880, Note_on_c, 0, 76, 80
1, 8925, Note_on_c, 0, 76, 0
1, 8928, Note_on_c, 0, 74, 80
1, 8928, Note_on_c, 1, 71, 0
1, 8928, Note_on_c, 1, 69, 80
1, 8940, Note_on_c, 0, 74, 0
1, 8940, Note_on_c, 0, 76, 80
1, 8952, Note_on_c, 0, 76, 0
1, 8952, Note_on_c, 0, 74, 80
1, 8973, Note_on_c, 0, 74, 0
1, 8976, Note_on_c, 0, 72, 80
1, 9009, Note_on_c, 1, 72, 0
1, 9017, Note_on_c, 1, 69, 0
1, 9021, Note_on_c, 0, 72, 0
1, 9024, Note_on_c, 0, 81, 80
1, 9072, Note_on_c, 1, 72, 80
1, 9072, Note_on_c, 1, 69, 80
1, 9113, Note_on_c, 0, 81, 0
1, 9117, Note_on_c, 1, 72, 0
1, 9117, Note_on_c, 1, 69, 0
1, 9120, Note_on_c, 1, 74, 80
1, 9120, Note_on_c, 1, 71, 80
1, 9165, Note_on_c, 1, 74, 0
1, 9165, Note_on_c, 1, 71, 0
1, 9168, Note_on_c, 1, 72, 80
1, 9168, Note_on_c, 1, 69, 80
1, 9213, Note_on_c, 1, 72, 0
1, 9213, Note_on_c, 1, 69, 0
1, 9216, Note_on_c, 1, 69, 80
1, 9216, Note_on_c, 1, 71, 64
1, 9264, Note_on_c, 0, 74, 80
1, 9309, Note_on_c, 0, 74, 0
1, 9312, Note_on_c, 0, 72, 80
1, 9312, Note_on_c, 1, 69, 0
1, 9312, Note_on_c, 1, 67, 80
1, 9357, Note_on_c, 0, 72, 0
1, 9360, Note_on_c, 0, 71, 80
1, 9393, Note_on_c, 1, 71, 0
1, 9401, Note_on_c, 1, 67, 0
1, 9405, Note_on_c, 0, 71, 0
1, 9408, Note_on_c, 0, 79, 80
1, 9456, Note_on_c, 1, 71, 80
1, 9456, Note_on_c, 1, 67, 80
1, 9497, Note_on_c, 0, 79, 0
1, 9501, Note_on_c, 1, 71, 0
1, 9501, Note_on_c, 1, 67, 0
1, 9504, Note_on_c, 1, 72, 80
1, 9504, Note_on_c, 1, 69, 80
1, 9549, Note_on_c, 1, 72, 0
1, 9549, Note_on_c, 1, 69, 0
1, 9552, Note_on_c, 1, 71, 80
1, 9552, Note_on_c, 1, 67, 80
1, 9597, Note_on_c, 1, 71, 0
1, 9597, Note_on_c, 1, 67, 0
1, 9600, Note_on_c, 1, 67, 80
1, 9600, Note_on_c, 1, 69, 64
1, 9648, Note_on_c, 0, 72, 80
1, 9693, Note_on_c, 0, 72, 0
1, 9696, Note_on_c, 0, 70, 80
1, 9696, Note_on_c, 1, 67, 0
1, 9696, Note_on_c, 1, 65, 80
1, 9708, Note_on_c, 0, 70, 0
1, 9708, Note_on_c, 0, 72, 80
1, 9720, Note_on_c, 0, 72, 0
1, 9720, Note_on_c, 0, 70, 80
1, 9741, Note_on_c, 0, 70, 0
1, 9744, Note_on_c, 0, 69, 80
1, 9777, Note_on_c, 1, 69, 0
1, 9785, Note_on_c, 1, 65, 0
1, 9789, Note_on_c, 0, 69, 0
1, 9792, Note_on_c, 0, 77, 80
1, 9837, Note_on_c, 0, 77, 0
1, 9840, Note_on_c, 0, 69, 80
1, 9885, Note_on_c, 0, 69, 0
1, 9888, Note_on_c, 0, 70, 80
1, 9888, Note_on_c, 1, 39, 80
1, 9933, Note_on_c, 0, 70, 0
1, 9936, Note_on_c, 0, 69, 80
1, 9977, Note_on_c, 1, 39, 0
1, 9981, Note_on_c, 0, 69, 0
1, 9984, Note_on_c, 0, 69, 80
1, 9984, Note_on_c, 1, 40, 80
1, 10080, Note_on_c, 0, 69, 0
1, 10080, Note_on_c, 0, 68, 80
1, 10092, Note_on_c, 0, 68, 0
1, 10092, Note_on_c, 0, 69, 80
1, 10104, Note_on_c, 0, 69, 0
1, 10104, Note_on_c, 0, 68, 80
1, 10117, Note_on_c, 1, 40, 0
1, 10128, Note_on_c, 1, 44, 80
1, 10151, Note_on_c, 1, 44, 0
1, 10152, Note_on_c, 1, 47, 80
1, 10175, Note_on_c, 1, 47, 0
1, 10176, Note_on_c, 1, 52, 80
1, 10257, Note_on_c, 0, 68, 0
1, 10272, Note_on_c, 0, 64, 80
1, 10295, Note_on_c, 0, 64, 0
1, 10296, Note_on_c, 0, 66, 80
1, 10319, Note_on_c, 0, 66, 0
1, 10320, Note_on_c, 0, 68, 80
1, 10343, Note_on_c, 0, 68, 0
1, 10344, Note_on_c, 0, 69, 80
1, 10367, Note_on_c, 0, 69, 0
1, 10368, Note_on_c, 0, 71, 80
1, 10457, Note_on_c, 0, 71, 0
1, 10457, Note_on_c, 1, 52, 0
1, 10464, Note_on_c, 0, 68, 80
1, 10479, Note_on_c, 0, 68, 0
1, 10480, Note_on_c, 0, 69, 80
1, 10495, Note_on_c, 0, 69, 0
1, 10496, Note_on_c, 0, 71, 80
1, 10511, Note_on_c, 0, 71, 0
1, 10512, Note_on_c, 0, 72, 80
1, 10527, Note_on_c, 0, 72, 0
1, 10528, Note_on_c, 0, 74, 80
1, 10543, Note_on_c, 0, 74, 0
1, 10544, Note_on_c, 0, 76, 80
1, 10559, Note_on_c, 0, 76, 0
1, 10560, Note_on_c, 0, 77, 80
1, 10649, Note_on_c, 0, 77, 0
1, 10656, Note_on_c, 0, 71, 80
1, 10668, Note_on_c, 0, 71, 0
1, 10668, Note_on_c, 0, 72, 80
1, 10680, Note_on_c, 0, 72, 0
1, 10680, Note_on_c, 0, 74, 80
1, 10692, Note_on_c, 0, 74, 0
1, 10692, Note_on_c, 0, 76, 80
1, 10704, Note_on_c, 0, 76, 0
1, 10704, Note_on_c, 0, 78, 80
1, 10716, Note_on_c, 0, 78, 0
1, 10716, Note_on_c, 0, 80, 80
1, 10728, Note_on_c, 0, 80, 0
1, 10728, Note_on_c, 0, 81, 80
1, 10740, Note_on_c, 0, 81, 0
1, 10740, Note_on_c, 0, 83, 80
1, 10752, Note_on_c, 0, 83, 0
1, 10752, Note_on_c, 0, 84, 96
1, 10800, Note_on_c, 0, 84, 0
1, 10800, Note_on_c, 0, 83, 80
1, 10845, Note_on_c, 0, 83, 0
1, 10848, Note_on_c, 0, 81, 80
1, 10893, Note_on_c, 0, 81, 0
1, 10896, Note_on_c, 0, 80, 80
1, 10941, Note_on_c, 0, 80, 0
1, 10944, Note_on_c, 0, 81, 80
1, 10989, Note_on_c, 0, 81, 0
1, 10992, Note_on_c, 0, 83, 80
1, 11037, Note_on_c, 0, 83, 0
1, 11040, Note_on_c, 0, 81, 80
1, 11085, Note_on_c, 0, 81, 0
1, 11088, Note_on_c, 0, 80, 80
1, 11133, Note_on_c, 0, 80, 0
1, 11136, Note_on_c, 0, 81, 96
1, 11184, Note_on_c, 0, 81, 0
1, 11184, Note_on_c, 0, 79, 80
1, 11229, Note_on_c, 0, 79, 0
1, 11232, Note_on_c, 0, 77, 80
1, 11277, Note_on_c, 0, 77, 0
1, 11280, Note_on_c, 0, 76, 80
1, 11325, Note_on_c, 0, 76, 0
1, 11328, Note_on_c, 0, 77, 80
1, 11373, Note_on_c, 0, 77, 0
1, 11376, Note_on_c, 0, 79, 80
1, 11421, Note_on_c, 0, 79, 0
1, 11424, Note_on_c, 0, 77, 80
1, 11469, Note_on_c, 0, 77, 0
1, 11472, Note_on_c, 0, 76, 80
1, 11517, Note_on_c, 0, 76, 0
1, 11520, Note_on_c, 0, 77, 96
1, 11568, Note_on_c, 0, 77, 0
1, 11568, Note_on_c, 0, 76, 80
1, 11613, Note_on_c, 0, 76, 0
1, 11616, Note_on_c, 0, 74, 80
1, 11661, Note_on_c, 0, 74, 0
1, 11664, Note_on_c, 0, 73, 80
1, 11709, Note_on_c, 0, 73, 0
1, 11712, Note_on_c, 0, 74, 80
1, 11757, Note_on_c, 0, 74, 0
1, 11760, Note_on_c, 0, 77, 80
1, 11760, Note_on_c, 0, 69, 80
1, 11805, Note_on_c, 0, 77, 0
1, 11805, Note_on_c, 0, 69, 0
1, 11808, Note_on_c, 0, 76, 80
1, 11808, Note_on_c, 0, 67, 80
1, 11853, Note_on_c, 0, 76, 0
1, 11853, Note_on_c, 0, 67, 0
1, 11856, Note_on_c, 0, 74, 80
1, 11856, Note_on_c, 0, 65, 80
1, 11901, Note_on_c, 0, 74, 0
1, 11901, Note_on_c, 0, 65, 0
1, 11904, Note_on_c, 0, 73, 96
1, 11904, Note_on_c, 0, 64, 96
1, 11952, Note_on_c, 0, 73, 0
1, 11952, Note_on_c, 0, 64, 0
1, 11952, Note_on_c, 0, 74, 80
1, 11952, Note_on_c, 0, 65, 80
1, 11997, Note_on_c, 0, 74, 0
1, 11997, Note_on_c, 0, 65, 0
1, 12000, Note_on_c, 0, 74, 80
1, 12000, Note_on_c, 0, 65, 80
1, 12000, Note_on_c, 1, 46, 80
1, 12000, Note_on_c, 1, 34, 80
1, 12048, Note_on_c, 0, 74, 0
1, 12048, Note_on_c, 0, 65, 0
1, 12048, Note_on_c, 0, 73, 80
1, 12048, Note_on_c, 0, 64, 80
1, 12093, Note_on_c, 0, 73, 0
1, 12093, Note_on_c, 0, 64, 0
1, 12096, Note_on_c, 0, 73, 80
1, 12096, Note_on_c, 0, 64, 80
1, 12144, Note_on_c, 0, 73, 0
1, 12144, Note_on_c, 0, 64, 0
1, 12144, Note_on_c, 0, 74, 80
1, 12144, Note_on_c, 0, 65, 80
1, 12185, Note_on_c, 1, 46, 0
1, 12185, Note_on_c, 1, 34, 0
1, 12189, Note_on_c, 0, 74, 0
1, 12189, Note_on_c, 0, 65, 0
1, 12192, Note_on_c, 0, 74, 80
1, 12192, Note_on_c, 0, 65, 80
1, 12192, Note_on_c, 1, 45, 80
1, 12192, Note_on_c, 1, 33, 80
1, 12240, Note_on_c, 0, 74, 0
1, 12240, Note_on_c, 0, 65, 0
1, 12240, Note_on_c, 0, 73, 80
1, 12240, Note_on_c, 0, 64, 80
1, 12281, Note_on_c, 1, 45, 0
1, 12281, Note_on_c, 1, 33, 0
1, 12285, Note_on_c, 0, 73, 0
1, 12285, Note_on_c, 0, 64, 0
1, 12288, Note_on_c, 0, 74, 96
1, 12288, Note_on_c, 0, 71, 96
1, 12288, Note_on_c, 0, 64, 96
1, 12288, Note_on_c, 1, 44, 80
1, 12311, Note_on_c, 1, 44, 0
1, 12312, Note_on_c, 1, 47, 80
1, 12335, Note_on_c, 1, 47, 0
1, 12336, Note_on_c, 1, 50, 80
1, 12359, Note_on_c, 1, 50, 0
1, 12360, Note_on_c, 1, 56, 80
1, 12383, Note_on_c, 1, 56, 0
1, 12384, Note_on_c, 0, 74, 0
1, 12384, Note_on_c, 0, 71, 0
1, 12384, Note_on_c, 0, 64, 0
1, 12384, Note_on_c, 1, 44, 80
1, 12432, Note_on_c, 0, 71, 80
1, 12455, Note_on_c, 0, 71, 0
1, 12456, Note_on_c, 0, 72, 80
1, 12473, Note_on_c, 1, 44, 0
1, 12479, Note_on_c, 0, 72, 0
1, 12480, Note_on_c, 0, 74, 80
1, 12525, Note_on_c, 0, 74, 0
1, 12528, Note_on_c, 0, 71, 80
1, 12551, Note_on_c, 0, 71, 0
1, 12552, Note_on_c, 0, 72, 80
1, 12575, Note_on_c, 0, 72, 0
1, 12576, Note_on_c, 0, 74, 80
1, 12621, Note_on_c, 0, 74, 0
1, 12624, Note_on_c, 0, 72, 80
1, 12647, Note_on_c, 0, 72, 0
1, 12648, Note_on_c, 0, 71, 80
1, 12671, Note_on_c, 0, 71, 0
1, 12672, Note_on_c, 0, 72, 96
1, 12672, Note_on_c, 0, 69, 96
1, 12672, Note_on_c, 0, 62, 96
1, 12672, Note_on_c, 1, 42, 80
1, 12695, Note_on_c, 1, 42, 0
1, 12696, Note_on_c, 1, 45, 80
1, 12719, Note_on_c, 1, 45, 0
1, 12720, Note_on_c, 1, 50, 80
1, 12743, Note_on_c, 1, 50, 0
1, 12744, Note_on_c, 1, 54, 80
1, 12767, Note_on_c, 1, 54, 0
1, 12768, Note_on_c, 0, 72, 0
1, 12768, Note_on_c, 0, 69, 0
1, 12768, Note_on_c, 0, 62, 0
1, 12768, Note_on_c, 1, 42, 80
1, 12816, Note_on_c, 0, 69, 80
1, 12839, Note_on_c, 0, 69, 0
1, 12840, Note_on_c, 0, 71, 80
1, 12857, Note_on_c, 1, 42, 0
1, 12863, Note_on_c, 0, 71, 0
1, 12864, Note_on_c, 0, 72, 80
1, 12909, Note_on_c, 0, 72, 0
1, 12912, Note_on_c, 0, 69, 80
1, 12935, Note_on_c, 0, 69, 0
1, 12936, Note_on_c, 0, 71, 80
1, 12959, Note_on_c, 0, 71, 0
1, 12960, Note_on_c, 0, 72, 80
1, 13005, Note_on_c, 0, 72, 0
1, 13008, Note_on_c, 0, 71, 80
1, 13031, Note_on_c, 0, 71, 0
1, 13032, Note_on_c, 0, 69, 80
1, 13055, Note_on_c, 0, 69, 0
1, 13056, Note_on_c, 0, 71, 96
1, 13056, Note_on_c, 0, 68, 96
1, 13056, Note_on_c, 1, 41, 80
1, 13079, Note_on_c, 1, 41, 0
1, 13080, Note_on_c, 1, 44, 80
1, 13103, Note_on_c, 1, 44, 0
1, 13104, Note_on_c, 1, 47, 80
1, 13127, Note_on_c, 1, 47, 0
1, 13128, Note_on_c, 1, 53, 80
1, 13151, Note_on_c, 1, 53, 0
1, 13152, Note_on_c, 0, 71, 0
1, 13152, Note_on_c, 0, 68, 0
1, 13152, Note_on_c, 1, 41, 80
1, 13200, Note_on_c, 0, 68, 80
1, 13223, Note_on_c, 0, 68, 0
1, 13224, Note_on_c, 0, 70, 80
1, 13241, Note_on_c, 1, 41, 0
1, 13247, Note_on_c, 0, 70, 0
1, 13248, Note_on_c, 0, 71, 80
1, 13293, Note_on_c, 0, 71, 0
1, 13296, Note_on_c, 0, 74, 80
1, 13341, Note_on_c, 0, 74, 0
1, 13344, Note_on_c, 0, 73, 80
1, 13389, Note_on_c, 0, 73, 0
1, 13392, Note_on_c, 0, 71, 80
1, 13437, Note_on_c, 0, 71, 0
1, 13440, Note_on_c, 0, 71, 80
1, 13440, Note_on_c, 1, 66, 80
1, 13440, Note_on_c, 1, 61, 80
1, 13440, Note_on_c, 1, 59, 80
1, 13440, Note_on_c, 1, 52, 80
1, 13632, Note_on_c, 0, 71, 0
1, 13632, Note_on_c, 0, 70, 80
1, 13703, Note_on_c, 0, 70, 0
1, 13703, Note_on_c, 1, 66, 0
1, 13703, Note_on_c, 1, 61, 0
1, 13703, Note_on_c, 1, 59, 0
1, 13703, Note_on_c, 1, 52, 0
1, 13728, Note_on_c, 0, 62, 80
1, 13728, Note_on_c, 1, 50, 80
1, 13728, Note_on_c, 1, 38, 80
1, 13767, Note_on_c, 0, 62, 0
1, 13817, Note_on_c, 1, 50, 0
1, 13817, Note_on_c, 1, 38, 0
1, 13824, Note_on_c, 0, 62, 96
1, 13824, Note_on_c, 1, 50, 96
1, 13824, Note_on_c, 1, 38, 96
1, 13836, Note_on_c, 0, 62, 0
1, 13836, Note_on_c, 0, 64, 96
1, 13848, Note_on_c, 0, 64, 0
1, 13848, Note_on_c, 0, 62, 96
1, 13920, Note_on_c, 0, 62, 0
1, 13920, Note_on_c, 0, 62, 80
1, 13920, Note_on_c, 1, 50, 0
1, 13920, Note_on_c, 1, 38, 0
1, 13920, Note_on_c, 1, 50, 80
1, 13920, Note_on_c, 1, 38, 80
1, 13950, Note_on_c, 0, 62, 0
1, 13952, Note_on_c, 0, 66, 80
1, 13959, Note_on_c, 1, 50, 0
1, 13959, Note_on_c, 1, 38, 0
1, 13982, Note_on_c, 0, 66, 0
1, 13984, Note_on_c, 0, 69, 80
1, 14014, Note_on_c, 0, 69, 0
1, 14016, Note_on_c, 0, 60, 96
1, 14016, Note_on_c, 1, 48, 96
1, 14016, Note_on_c, 1, 36, 96
1, 14112, Note_on_c, 0, 60, 0
1, 14112, Note_on_c, 0, 60, 80
1, 14112, Note_on_c, 1, 48, 0
1, 14112, Note_on_c, 1, 36, 0
1, 14112, Note_on_c, 1, 48, 80
1, 14112, Note_on_c, 1, 36, 80
1, 14142, Note_on_c, 0, 60, 0
1, 14144, Note_on_c, 0, 66, 80
1, 14151, Note_on_c, 1, 48, 0
1, 14151, Note_on_c, 1, 36, 0
1, 14174, Note_on_c, 0, 66, 0
1, 14176, Note_on_c, 0, 69, 80
1, 14206, Note_on_c, 0, 69, 0
1, 14208, Note_on_c, 0, 59, 96
1, 14208, Note_on_c, 1, 47, 96
1, 14208, Note_on_c, 1, 35, 96
1, 14400, Note_on_c, 0, 59, 0
1, 14400, Note_on_c, 1, 47, 0
1, 14400, Note_on_c, 1, 35, 0
1, 14496, Note_on_c, 0, 59, 80
1, 14496, Note_on_c, 1, 47, 80
1, 14496, Note_on_c, 1, 35, 80
1, 14535, Note_on_c, 0, 59, 0
1, 14535, Note_on_c, 1, 47, 0
1, 14535, Note_on_c, 1, 35, 0
1, 14592, Note_on_c, 0, 59, 96
1, 14592, Note_on_c, 1, 47, 96
1, 14592, Note_on_c, 1, 35, 96
1, 14688, Note_on_c, 0, 59, 0
1, 14688, Note_on_c, 0, 59, 80
1, 14688, Note_on_c, 1, 47, 0
1, 14688, Note_on_c, 1, 35, 0
1, 14688, Note_on_c, 1, 47, 80
1, 14688, Note_on_c, 1, 35, 80
1, 14718, Note_on_c, 0, 59, 0
1, 14720, Note_on_c, 0, 63, 80
1, 14727, Note_on_c, 1, 47, 0
1, 14727, Note_on_c, 1, 35, 0
1, 14750, Note_on_c, 0, 63, 0
1, 14752, Note_on_c, 0, 66, 80
1, 14782, Note_on_c, 0, 66, 0
1, 14784, Note_on_c, 0, 57, 96
1, 14784, Note_on_c, 1, 45, 96
1, 14784, Note_on_c, 1, 33, 96
1, 14880, Note_on_c, 0, 57, 0
1, 14880, Note_on_c, 0, 57, 80
1, 14880, Note_on_c, 1, 45, 0
1, 14880, Note_on_c, 1, 33, 0
1, 14880, Note_on_c, 1, 45, 80
1, 14880, Note_on_c, 1, 33, 80
1, 14910, Note_on_c, 0, 57, 0
1, 14912, Note_on_c, 0, 63, 80
1, 14919, Note_on_c, 1, 45, 0
1, 14919, Note_on_c, 1, 33, 0
1, 14942, Note_on_c, 0, 63, 0
1, 14944, Note_on_c, 0, 66, 80
1, 14974, Note_on_c, 0, 66, 0
1, 14976, Note_on_c, 0, 55, 96
1, 14976, Note_on_c, 1, 43, 96
1, 14976, Note_on_c, 1, 31, 96
1, 15264, Note_on_c, 0, 55, 0
1, 15264, Note_on_c, 1, 43, 0
1, 15264, Note_on_c, 1, 31, 0
1, 15360, Note_on_c, 0, 53, 80
1, 15456, Note_on_c, 1, 45, 75
1, 15537, Note_on_c, 0, 53, 0
1, 15545, Note_on_c, 1, 45, 0
1, 15552, Note_on_c, 0, 51, 80
1, 15648, Note_on_c, 1, 43, 75
1, 15729, Note_on_c, 0, 51, 0
1, 15737, Note_on_c, 1, 43, 0
1, 15744, Note_on_c, 0, 52, 80
1, 15840, Note_on_c, 1, 48, 75
1, 15877, Note_on_c, 0, 52, 0
1, 15888, Note_on_c, 0, 54, 80
1, 15929, Note_on_c, 1, 48, 0
1, 15933, Note_on_c, 0, 54, 0
1, 15936, Note_on_c, 0, 55, 80
1, 15936, Note_on_c, 1, 48, 75
1, 15981, Note_on_c, 0, 55, 0
1, 15984, Note_on_c, 0, 54, 80
1, 16025, Note_on_c, 1, 48, 0
1, 16029, Note_on_c, 0, 54, 0
1, 16032, Note_on_c, 0, 55, 80
1, 16032, Note_on_c, 1, 48, 75
1, 16032, Note_on_c, 1, 36, 75
1, 16077, Note_on_c, 0, 55, 0
1, 16080, Note_on_c, 0, 57, 80
1, 16121, Note_on_c, 1, 48, 0
1, 16121, Note_on_c, 1, 36, 0
1, 16125, Note_on_c, 0, 57, 0
1, 16128, Note_on_c, 0, 58, 80
1, 16128, Note_on_c, 1, 51, 75
1, 16128, Note_on_c, 1, 47, 75
1, 16128, Note_on_c, 1, 35, 75
1, 16320, Note_on_c, 0, 58, 0
1, 16320, Note_on_c, 0, 59, 80
1, 16387, Note_on_c, 0, 59, 0
1, 16390, Note_on_c, 1, 51, 0
1, 16390, Note_on_c, 1, 47, 0
1, 16390, Note_on_c, 1, 35, 0
1, 16416, Note_on_c, 0, 71, 75
1, 16455, Note_on_c, 0, 71, 0
1, 16512, Note_on_c, 0, 76, 75
1, 16512, Note_on_c, 1, 64, 64
1, 16551, Note_on_c, 1, 64, 0
1, 16557, Note_on_c, 0, 76, 0
1, 16560, Note_on_c, 0, 79, 75
1, 16605, Note_on_c, 0, 79, 0
1, 16608, Note_on_c, 0, 78, 75
1, 16608, Note_on_c, 1, 67, 64
1, 16647, Note_on_c, 1, 67, 0
1, 16653, Note_on_c, 0, 78, 0
1, 16656, Note_on_c, 0, 76, 76
1, 16701, Note_on_c, 0, 76, 0
1, 16704, Note_on_c, 0, 75, 77
1, 16704, Note_on_c, 1, 66, 64
1, 16743, Note_on_c, 1, 66, 0
1, 16749, Note_on_c, 0, 75, 0
1, 16752, Note_on_c, 0, 78, 77
1, 16797, Note_on_c, 0, 78, 0
1, 16800, Note_on_c, 0, 76, 78
1, 16800, Note_on_c, 1, 69, 64
1, 16839, Note_on_c, 1, 69, 0
1, 16845, Note_on_c, 0, 76, 0
1, 16848, Note_on_c, 0, 75, 79
1, 16893, Note_on_c, 0, 75, 0
1, 16896, Note_on_c, 0, 76, 80
1, 16896, Note_on_c, 1, 67, 64
1, 16941, Note_on_c, 0, 76, 0
1, 16944, Note_on_c, 0, 83, 79
1, 16964, Note_on_c, 0, 83, 0
1, 16992, Note_on_c, 0, 81, 78
1, 17012, Note_on_c, 0, 81, 0
1, 17040, Note_on_c, 0, 79, 78
1, 17060, Note_on_c, 0, 79, 0
1, 17073, Note_on_c, 1, 67, 0
1, 17088, Note_on_c, 0, 78, 77
1, 17108, Note_on_c, 0, 78, 0
1, 17136, Note_on_c, 0, 76, 76
1, 17156, Note_on_c, 0, 76, 0
1, 17184, Note_on_c, 0, 75, 76
1, 17232, Note_on_c, 0, 75, 0
1, 17232, Note_on_c, 0, 76, 75
1, 17277, Note_on_c, 0, 76, 0
1, 17280, Note_on_c, 0, 71, 75
1, 17280, Note_on_c, 1, 64, 64
1, 17319, Note_on_c, 1, 64, 0
1, 17325, Note_on_c, 0, 71, 0
1, 17328, Note_on_c, 0, 79, 75
1, 17373, Note_on_c, 0, 79, 0
1, 17376, Note_on_c, 0, 78, 75
1, 17376, Note_on_c, 1, 67, 64
1, 17415, Note_on_c, 1, 67, 0
1, 17421, Note_on_c, 0, 78, 0
1, 17424, Note_on_c, 0, 76, 75
1, 17469, Note_on_c, 0, 76, 0
1, 17472, Note_on_c, 0, 75, 76
1, 17472, Note_on_c, 1, 66, 64
1, 17511, Note_on_c, 1, 66, 0
1, 17517, Note_on_c, 0, 75, 0
1, 17520, Note_on_c, 0, 78, 76
1, 17565, Note_on_c, 0, 78, 0
1, 17568, Note_on_c, 0, 76, 76
1, 17568, Note_on_c, 1, 69, 64
1, 17607, Note_on_c, 1, 69, 0
1, 17613, Note_on_c, 0, 76, 0
1, 17616, Note_on_c, 0, 75, 77
1, 17661, Note_on_c, 0, 75, 0
1, 17664, Note_on_c, 0, 76, 77
1, 17664, Note_on_c, 1, 67, 64
1, 17709, Note_on_c, 0, 76, 0
1, 17712, Note_on_c, 0, 83, 77
1, 17732, Note_on_c, 0, 83, 0
1, 17760, Note_on_c, 0, 81, 78
1, 17780, Note_on_c, 0, 81, 0
1, 17808, Note_on_c, 0, 79, 78
1, 17828, Note_on_c, 0, 79, 0
1, 17841, Note_on_c, 1, 67, 0
1, 17856, Note_on_c, 0, 78, 78
1, 17876, Note_on_c, 0, 78, 0
1, 17904, Note_on_c, 0, 76, 79
1, 17924, Note_on_c, 0, 76, 0
1, 17952, Note_on_c, 0, 75, 79
1, 18000, Note_on_c, 0, 75, 0
1, 18000, Note_on_c, 0, 76, 75
1, 18045, Note_on_c, 0, 76, 0
1, 18048, Note_on_c, 0, 72, 75
1, 18048, Note_on_c, 1, 69, 70
1, 18060, Note_on_c, 0, 72, 0
1, 18060, Note_on_c, 0, 74, 75
1, 18072, Note_on_c, 0, 74, 0
1, 18072, Note_on_c, 0, 72, 75
1, 18087, Note_on_c, 1, 69, 0
1, 18093, Note_on_c, 0, 72, 0
1, 18096, Note_on_c, 0, 71, 75
1, 18141, Note_on_c, 0, 71, 0
1, 18144, Note_on_c, 0, 72, 76
1, 18144, Note_on_c, 1, 67, 70
1, 18183, Note_on_c, 1, 67, 0
1, 18233, Note_on_c, 0, 72, 0
1, 18240, Note_on_c, 0, 72, 78
1, 18240, Note_on_c, 1, 66, 70
1, 18252, Note_on_c, 0, 72, 0
1, 18252, Note_on_c, 0, 74, 78
1, 18264, Note_on_c, 0, 74, 0
1, 18264, Note_on_c, 0, 72, 78
1, 18279, Note_on_c, 1, 66, 0
1, 18285, Note_on_c, 0, 72, 0
1, 18288, Note_on_c, 0, 71, 79
1, 18333, Note_on_c, 0, 71, 0
1, 18336, Note_on_c, 0, 72, 80
1, 18336, Note_on_c, 1, 64, 70
1, 18375, Note_on_c, 1, 64, 0
1, 18425, Note_on_c, 0, 72, 0
1, 18432, Note_on_c, 0, 81, 96
1, 18432, Note_on_c, 1, 62, 70
1, 18471, Note_on_c, 1, 62, 0
1, 18480, Note_on_c, 0, 81, 0
1, 18480, Note_on_c, 0, 79, 79
1, 18525, Note_on_c, 0, 79, 0
1, 18528, Note_on_c, 0, 78, 78
1, 18528, Note_on_c, 1, 74, 70
1, 18567, Note_on_c, 1, 74, 0
1, 18573, Note_on_c, 0, 78, 0
1, 18576, Note_on_c, 0, 76, 78
1, 18621, Note_on_c, 0, 76, 0
1, 18624, Note_on_c, 0, 74, 77
1, 18669, Note_on_c, 0, 74, 0
1, 18672, Note_on_c, 0, 72, 76
1, 18717, Note_on_c, 0, 72, 0
1, 18720, Note_on_c, 0, 71, 76
1, 18765, Note_on_c, 0, 71, 0
1, 18768, Note_on_c, 0, 69, 75
1, 18813, Note_on_c, 0, 69, 0
1, 18816, Note_on_c, 0, 71, 75
1, 18816, Note_on_c, 1, 67, 70
1, 18828, Note_on_c, 0, 71, 0
1, 18828, Note_on_c, 0, 72, 75
1, 18840, Note_on_c, 0, 72, 0
1, 18840, Note_on_c, 0, 71, 75
1, 18855, Note_on_c, 1, 67, 0
1, 18861, Note_on_c, 0, 71, 0
1, 18864, Note_on_c, 0, 69, 75
1, 18909, Note_on_c, 0, 69, 0
1, 18912, Note_on_c, 0, 71, 76
1, 18912, Note_on_c, 1, 66, 70
1, 18951, Note_on_c, 1, 66, 0
1, 19001, Note_on_c, 0, 71, 0
1, 19008, Note_on_c, 0, 71, 77
1, 19008, Note_on_c, 1, 64, 70
1, 19020, Note_on_c, 0, 71, 0
1, 19020, Note_on_c, 0, 72, 77
1, 19032, Note_on_c, 0, 72, 0
1, 19032, Note_on_c, 0, 71, 77
1, 19047, Note_on_c, 1, 64, 0
1, 19053, Note_on_c, 0, 71, 0
1, 19056, Note_on_c, 0, 69, 78
1, 19101, Note_on_c, 0, 69, 0
1, 19104, Note_on_c, 0, 71, 78
1, 19104, Note_on_c, 1, 62, 70
1, 19143, Note_on_c, 1, 62, 0
1, 19193, Note_on_c, 0, 71, 0
1, 19200, Note_on_c, 0, 79, 96
1, 19200, Note_on_c, 1, 60, 70
1, 19239, Note_on_c, 1, 60, 0
1, 19248, Note_on_c, 0, 79, 0
1, 19248, Note_on_c, 0, 78, 79
1, 19293, Note_on_c, 0, 78, 0
1, 19296, Note_on_c, 0, 76, 78
1, 19296, Note_on_c, 1, 72, 70
1, 19335, Note_on_c, 1, 72, 0
1, 19341, Note_on_c, 0, 76, 0
1, 19344, Note_on_c, 0, 74, 78
1, 19389, Note_on_c, 0, 74, 0
1, 19392, Note_on_c, 0, 72, 77
1, 19437, Note_on_c, 0, 72, 0
1, 19440, Note_on_c, 0, 71, 76
1, 19485, Note_on_c, 0, 71, 0
1, 19488, Note_on_c, 0, 69, 76
1, 19533, Note_on_c, 0, 69, 0
1, 19536, Note_on_c, 0, 67, 75
1, 19581, Note_on_c, 0, 67, 0
1, 19584, Note_on_c, 0, 69, 75
1, 19584, Note_on_c, 1, 66, 70
1, 19596, Note_on_c, 0, 69, 0
1, 19596, Note_on_c, 0, 71, 75
1, 19608, Note_on_c, 0, 71, 0
1, 19608, Note_on_c, 0, 69, 75
1, 19623, Note_on_c, 1, 66, 0
1, 19629, Note_on_c, 0, 69, 0
1, 19632, Note_on_c, 0, 67, 75
1, 19677, Note_on_c, 0, 67, 0
1, 19680, Note_on_c, 0, 69, 76
1, 19680, Note_on_c, 1, 64, 70
1, 19719, Note_on_c, 1, 64, 0
1, 19769, Note_on_c, 0, 69, 0
1, 19776, Note_on_c, 0, 69, 77
1, 19776, Note_on_c, 1, 63, 70
1, 19788, Note_on_c, 0, 69, 0
1, 19788, Note_on_c, 0, 71, 77
1, 19800, Note_on_c, 0, 71, 0
1, 19800, Note_on_c, 0, 69, 77
1, 19815, Note_on_c, 1, 63, 0
1, 19821, Note_on_c, 0, 69, 0
1, 19824, Note_on_c, 0, 67, 78
1, 19869, Note_on_c, 0, 67, 0
1, 19872, Note_on_c, 0, 69, 78
1, 19872, Note_on_c, 1, 61, 70
1, 19911, Note_on_c, 1, 61, 0
1, 19961, Note_on_c, 0, 69, 0
1, 19968, Note_on_c, 0, 78, 80
1, 19968, Note_on_c, 1, 59, 70
1, 20007, Note_on_c, 1, 59, 0
1, 20013, Note_on_c, 0, 78, 0
1, 20016, Note_on_c, 0, 76, 79
1, 20061, Note_on_c, 0, 76, 0
1, 20064, Note_on_c, 0, 75, 78
1, 20064, Note_on_c, 1, 71, 70
1, 20103, Note_on_c, 1, 71, 0
1, 20109, Note_on_c, 0, 75, 0
1, 20112, Note_on_c, 0, 76, 78
1, 20157, Note_on_c, 0, 76, 0
1, 20160, Note_on_c, 0, 78, 77
1, 20208, Note_on_c, 1, 57, 75
1, 20249, Note_on_c, 0, 78, 0
1, 20253, Note_on_c, 1, 57, 0
1, 20256, Note_on_c, 0, 72, 92
1, 20256, Note_on_c, 1, 59, 75
1, 20301, Note_on_c, 1, 59, 0
1, 20304, Note_on_c, 1, 60, 75
1, 20349, Note_on_c, 1, 60, 0
1, 20352, Note_on_c, 1, 51, 75
1, 20397, Note_on_c, 0, 72, 0
1, 20400, Note_on_c, 0, 66, 75
1, 20445, Note_on_c, 0, 66, 0
1, 20448, Note_on_c, 0, 71, 75
1, 20493, Note_on_c, 0, 71, 0
1, 20496, Note_on_c, 0, 69, 75
1, 20529, Note_on_c, 1, 51, 0
1, 20541, Note_on_c, 0, 69, 0
1, 20544, Note_on_c, 0, 67, 75
1, 20589, Note_on_c, 0, 67, 0
1, 20592, Note_on_c, 0, 66, 75
1, 20592, Note_on_c, 1, 54, 75
1, 20637, Note_on_c, 0, 66, 0
1, 20637, Note_on_c, 1, 54, 0
1, 20640, Note_on_c, 0, 64, 76
1, 20640, Note_on_c, 1, 52, 75
1, 20685, Note_on_c, 0, 64, 0
1, 20685, Note_on_c, 1, 52, 0
1, 20688, Note_on_c, 0, 63, 76
1, 20688, Note_on_c, 1, 51, 75
1, 20733, Note_on_c, 0, 63, 0
1, 20733, Note_on_c, 1, 51, 0
1, 20736, Note_on_c, 0, 64, 76
1, 20736, Note_on_c, 1, 52, 76
1, 20781, Note_on_c, 0, 64, 0
1, 20781, Note_on_c, 1, 52, 0
1, 20784, Note_on_c, 0, 59, 76
1, 20784, Note_on_c, 1, 47, 76
1, 20829, Note_on_c, 0, 59, 0
1, 20829, Note_on_c, 1, 47, 0
1, 20832, Note_on_c, 0, 60, 77
1, 20832, Note_on_c, 1, 48, 76
1, 20877, Note_on_c, 0, 60, 0
1, 20877, Note_on_c, 1, 48, 0
1, 20880, Note_on_c, 0, 59, 77
1, 20880, Note_on_c, 1, 47, 76
1, 20925, Note_on_c, 0, 59, 0
1, 20925, Note_on_c, 1, 47, 0
1, 20928, Note_on_c, 0, 57, 77
1, 20928, Note_on_c, 1, 45, 77
1, 20973, Note_on_c, 0, 57, 0
1, 20973, Note_on_c, 1, 45, 0
1, 20976, Note_on_c, 0, 55, 77
1, 20976, Note_on_c, 1, 43, 77
1, 21021, Note_on_c, 0, 55, 0
1, 21021, Note_on_c, 1, 43, 0
1, 21024, Note_on_c, 0, 54, 78
1, 21024, Note_on_c, 1, 42, 77
1, 21069, Note_on_c, 0, 54, 0
1, 21069, Note_on_c, 1, 42, 0
1, 21072, Note_on_c, 0, 52, 78
1, 21072, Note_on_c, 1, 40, 78
1, 21117, Note_on_c, 0, 52, 0
1, 21117, Note_on_c, 1, 40, 0
1, 21120, Note_on_c, 0, 51, 78
1, 21120, Note_on_c, 1, 39, 78
1, 21165, Note_on_c, 0, 51, 0
1, 21165, Note_on_c, 1, 39, 0
1, 21168, Note_on_c, 0, 60, 78
1, 21168, Note_on_c, 1, 48, 78
1, 21213, Note_on_c, 0, 60, 0
1, 21213, Note_on_c, 1, 48, 0
1, 21216, Note_on_c, 0, 59, 79
1, 21216, Note_on_c, 1, 47, 78
1, 21261, Note_on_c, 0, 59, 0
1, 21261, Note_on_c, 1, 47, 0
1, 21264, Note_on_c, 0, 57, 79
1, 21264, Note_on_c, 1, 45, 79
1, 21309, Note_on_c, 0, 57, 0
1, 21309, Note_on_c, 1, 45, 0
1, 21312, Note_on_c, 0, 59, 79
1, 21312, Note_on_c, 1, 47, 79
1, 21351, Note_on_c, 0, 59, 0
1, 21351, Note_on_c, 1, 47, 0
1, 21408, Note_on_c, 0, 59, 96
1, 21408, Note_on_c, 1, 54, 96
1, 21408, Note_on_c, 1, 51, 96
1, 21408, Note_on_c, 1, 47, 96
1, 21447, Note_on_c, 0, 59, 0
1, 21447, Note_on_c, 1, 54, 0
1, 21447, Note_on_c, 1, 51, 0
1, 21447, Note_on_c, 1, 47, 0
1, 21504, Note_on_c, 0, 59, 97
1, 21504, Note_on_c, 0, 55, 97
1, 21504, Note_on_c, 0, 52, 97
1, 21504, Note_on_c, 1, 47, 80
1, 21504, Note_on_c, 1, 43, 80
1, 21504, Note_on_c, 1, 40, 80
1, 21769, Note_on_c, 0, 59, 0
1, 21769, Note_on_c, 0, 55, 0
1, 21769, Note_on_c, 0, 52, 0
1, 21769, Note_on_c, 1, 47, 0
1, 21769, Note_on_c, 1, 43, 0
1, 21769, Note_on_c, 1, 40, 0
1, 21888, Note_on_c, 1, 59, 80
1, 21888, Note_on_c, 1, 55, 80
1, 21888, Note_on_c, 1, 52, 80
1, 21936, Note_on_c, 0, 71, 80
1, 21956, Note_on_c, 0, 71, 0
1, 21984, Note_on_c, 0, 71, 80
1, 21996, Note_on_c, 0, 71, 0
1, 21996, Note_on_c, 0, 72, 80
1, 22008, Note_on_c, 0, 72, 0
1, 22008, Note_on_c, 0, 71, 80
1, 22029, Note_on_c, 0, 71, 0
1, 22032, Note_on_c, 0, 69, 80
1, 22055, Note_on_c, 0, 69, 0
1, 22056, Note_on_c, 0, 71, 80
1, 22065, Note_on_c, 1, 59, 0
1, 22065, Note_on_c, 1, 55, 0
1, 22065, Note_on_c, 1, 52, 0
1, 22079, Note_on_c, 0, 71, 0
1, 22080, Note_on_c, 0, 76, 80
1, 22128, Note_on_c, 0, 76, 0
1, 22128, Note_on_c, 0, 71, 80
1, 22148, Note_on_c, 0, 71, 0
1, 22176, Note_on_c, 0, 71, 80
1, 22265, Note_on_c, 0, 71, 0
1, 22272, Note_on_c, 1, 59, 80
1, 22272, Note_on_c, 1, 54, 80
1, 22272, Note_on_c, 1, 51, 80
1, 22320, Note_on_c, 0, 71, 80
1, 22340, Note_on_c, 0, 71, 0
1, 22368, Note_on_c, 0, 71, 80
1, 22380, Note_on_c, 0, 71, 0
1, 22380, Note_on_c, 0, 72, 80
1, 22392, Note_on_c, 0, 72, 0
1, 22392, Note_on_c, 0, 71, 80
1, 22413, Note_on_c, 0, 71, 0
1, 22416, Note_on_c, 0, 69, 80
1, 22439, Note_on_c, 0, 69, 0
1, 22440, Note_on_c, 0, 71, 80
1, 22449, Note_on_c, 1, 59, 0
1, 22449, Note_on_c, 1, 54, 0
1, 22449, Note_on_c, 1, 51, 0
1, 22463, Note_on_c, 0, 71, 0
1, 22464, Note_on_c, 0, 78, 80
1, 22512, Note_on_c, 0, 78, 0
1, 22512, Note_on_c, 0, 71, 80
1, 22532, Note_on_c, 0, 71, 0
1, 22560, Note_on_c, 0, 71, 80
1, 22649, Note_on_c, 0, 71, 0
1, 22656, Note_on_c, 0, 79, 80
1, 22656, Note_on_c, 1, 40, 80
1, 22701, Note_on_c, 0, 79, 0
1, 22704, Note_on_c, 0, 81, 80
1, 22745, Note_on_c, 1, 40, 0
1, 22749, Note_on_c, 0, 81, 0
1, 22752, Note_on_c, 0, 83, 80
1, 22752, Note_on_c, 1, 67, 80
1, 22797, Note_on_c, 0, 83, 0
1, 22800, Note_on_c, 0, 79, 80
1, 22845, Note_on_c, 0, 79, 0
1, 22848, Note_on_c, 0, 76, 80
1, 22893, Note_on_c, 0, 76, 0
1, 22893, Note_on_c, 1, 67, 0
1, 22896, Note_on_c, 0, 78, 80
1, 22896, Note_on_c, 1, 69, 80
1, 22941, Note_on_c, 0, 78, 0
1, 22941, Note_on_c, 1, 69, 0
1, 22944, Note_on_c, 0, 79, 80
1, 22944, Note_on_c, 1, 71, 80
1, 22989, Note_on_c, 0, 79, 0
1, 22989, Note_on_c, 1, 71, 0
1, 22992, Note_on_c, 0, 76, 80
1, 22992, Note_on_c, 1, 67, 80
1, 23037, Note_on_c, 0, 76, 0
1, 23037, Note_on_c, 1, 67, 0
1, 23040, Note_on_c, 0, 72, 80
1, 23040, Note_on_c, 1, 64, 80
1, 23085, Note_on_c, 0, 72, 0
1, 23085, Note_on_c, 1, 64, 0
1, 23088, Note_on_c, 0, 74, 80
1, 23088, Note_on_c, 1, 66, 80
1, 23133, Note_on_c, 0, 74, 0
1, 23133, Note_on_c, 1, 66, 0
1, 23136, Note_on_c, 0, 76, 80
1, 23136, Note_on_c, 1, 67, 80
1, 23181, Note_on_c, 0, 76, 0
1, 23181, Note_on_c, 1, 67, 0
1, 23184, Note_on_c, 0, 72, 80
1, 23184, Note_on_c, 1, 64, 80
1, 23229, Note_on_c, 0, 72, 0
1, 23229, Note_on_c, 1, 64, 0
1, 23232, Note_on_c, 0, 69, 80
1, 23232, Note_on_c, 1, 60, 80
1, 23277, Note_on_c, 0, 69, 0
1, 23277, Note_on_c, 1, 60, 0
1, 23280, Note_on_c, 0, 71, 80
1, 23280, Note_on_c, 1, 62, 80
1, 23325, Note_on_c, 0, 71, 0
1, 23325, Note_on_c, 1, 62, 0
1, 23328, Note_on_c, 0, 72, 80
1, 23328, Note_on_c, 1, 64, 80
1, 23373, Note_on_c, 0, 72, 0
1, 23373, Note_on_c, 1, 64, 0
1, 23376, Note_on_c, 0, 69, 80
1, 23376, Note_on_c, 1, 60, 80
1, 23421, Note_on_c, 0, 69, 0
1, 23421, Note_on_c, 1, 60, 0
1, 23424, Note_on_c, 1, 57, 96
1, 23472, Note_on_c, 0, 81, 80
1, 23495, Note_on_c, 0, 81, 0
1, 23496, Note_on_c, 0, 83, 80
1, 23518, Note_on_c, 1, 57, 0
1, 23519, Note_on_c, 0, 83, 0
1, 23520, Note_on_c, 0, 84, 80
1, 23565, Note_on_c, 0, 84, 0
1, 23568, Note_on_c, 0, 81, 80
1, 23613, Note_on_c, 0, 81, 0
1, 23616, Note_on_c, 0, 78, 80
1, 23661, Note_on_c, 0, 78, 0
1, 23664, Note_on_c, 0, 78, 80
1, 23664, Note_on_c, 1, 69, 80
1, 23687, Note_on_c, 0, 78, 0
1, 23687, Note_on_c, 1, 69, 0
1, 23688, Note_on_c, 0, 79, 80
1, 23688, Note_on_c, 1, 71, 80
1, 23711, Note_on_c, 0, 79, 0
1, 23711, Note_on_c, 1, 71, 0
1, 23712, Note_on_c, 0, 81, 80
1, 23712, Note_on_c, 1, 72, 80
1, 23757, Note_on_c, 0, 81, 0
1, 23757, Note_on_c, 1, 72, 0
1, 23760, Note_on_c, 0, 78, 80
1, 23760, Note_on_c, 1, 69, 80
1, 23805, Note_on_c, 0, 78, 0
1, 23805, Note_on_c, 1, 69, 0
1, 23808, Note_on_c, 0, 75, 80
1, 23808, Note_on_c, 1, 66, 80
1, 23853, Note_on_c, 0, 75, 0
1, 23853, Note_on_c, 1, 66, 0
1, 23856, Note_on_c, 0, 75, 80
1, 23856, Note_on_c, 1, 66, 80
1, 23879, Note_on_c, 0, 75, 0
1, 23879, Note_on_c, 1, 66, 0
1, 23880, Note_on_c, 0, 76, 80
1, 23880, Note_on_c, 1, 67, 80
1, 23903, Note_on_c, 0, 76, 0
1, 23903, Note_on_c, 1, 67, 0
1, 23904, Note_on_c, 0, 78, 80
1, 23904, Note_on_c, 1, 69, 80
1, 23949, Note_on_c, 0, 78, 0
1, 23949, Note_on_c, 1, 69, 0
1, 23952, Note_on_c, 0, 75, 80
1, 23952, Note_on_c, 1, 66, 80
1, 23997, Note_on_c, 0, 75, 0
1, 23997, Note_on_c, 1, 66, 0
1, 24000, Note_on_c, 0, 71, 80
1, 24000, Note_on_c, 1, 67, 80
1, 24045, Note_on_c, 1, 67, 0
1, 24048, Note_on_c, 1, 64, 80
1, 24089, Note_on_c, 0, 71, 0
1, 24093, Note_on_c, 1, 64, 0
1, 24096, Note_on_c, 0, 76, 80
1, 24096, Note_on_c, 1, 67, 80
1, 24141, Note_on_c, 1, 67, 0
1, 24144, Note_on_c, 1, 64, 80
1, 24185, Note_on_c, 0, 76, 0
1, 24189, Note_on_c, 1, 64, 0
1, 24192, Note_on_c, 1, 58, 80
1, 24240, Note_on_c, 0, 79, 80
1, 24285, Note_on_c, 0, 79, 0
1, 24288, Note_on_c, 0, 78, 80
1, 24333, Note_on_c, 0, 78, 0
1, 24336, Note_on_c, 0, 76, 80
1, 24369, Note_on_c, 1, 58, 0
1, 24381, Note_on_c, 0, 76, 0
1, 24384, Note_on_c, 0, 85, 80
1, 24432, Note_on_c, 1, 76, 80
1, 24432, Note_on_c, 1, 73, 80
1, 24473, Note_on_c, 0, 85, 0
1, 24477, Note_on_c, 1, 76, 0
1, 24477, Note_on_c, 1, 73, 0
1, 24480, Note_on_c, 1, 78, 80
1, 24480, Note_on_c, 1, 74, 80
1, 24525, Note_on_c, 1, 78, 0
1, 24525, Note_on_c, 1, 74, 0
1, 24528, Note_on_c, 1, 76, 80
1, 24528, Note_on_c, 1, 73, 80
1, 24573, Note_on_c, 1, 76, 0
1, 24573, Note_on_c, 1, 73, 0
1, 24576, Note_on_c, 1, 73, 80
1, 24576, Note_on_c, 1, 74, 64
1, 24624, Note_on_c, 0, 78, 80
1, 24669, Note_on_c, 0, 78, 0
1, 24672, Note_on_c, 0, 76, 80
1, 24672, Note_on_c, 1, 73, 0
1, 24672, Note_on_c, 1, 71, 80
1, 24717, Note_on_c, 0, 76, 0
1, 24720, Note_on_c, 0, 74, 80
1, 24753, Note_on_c, 1, 74, 0
1, 24761, Note_on_c, 1, 71, 0
1, 24765, Note_on_c, 0, 74, 0
1, 24768, Note_on_c, 0, 83, 80
1, 24816, Note_on_c, 1, 74, 80
1, 24816, Note_on_c, 1, 71, 80
1, 24857, Note_on_c, 0, 83, 0
1, 24861, Note_on_c, 1, 74, 0
1, 24861, Note_on_c, 1, 71, 0
1, 24864, Note_on_c, 1, 76, 80
1, 24864, Note_on_c, 1, 72, 80
1, 24909, Note_on_c, 1, 76, 0
1, 24909, Note_on_c, 1, 72, 0
1, 24912, Note_on_c, 1, 74, 80
1, 24912, Note_on_c, 1, 71, 80
1, 24957, Note_on_c, 1, 74, 0
1, 24957, Note_on_c, 1, 71, 0
1, 24960, Note_on_c, 1, 71, 80
1, 24960, Note_on_c, 1, 72, 64
1, 25008, Note_on_c, 0, 76, 80
1, 25053, Note_on_c, 0, 76, 0
1, 25056, Note_on_c, 0, 74, 80
1, 25056, Note_on_c, 1, 71, 0
1, 25056, Note_on_c, 1, 69, 80
1, 25068, Note_on_c, 0, 74, 0
1, 25068, Note_on_c, 0, 76, 80
1, 25080, Note_on_c, 0, 76, 0
1, 25080, Note_on_c, 0, 74, 80
1, 25101, Note_on_c, 0, 74, 0
1, 25104, Note_on_c, 0, 72, 80
1, 25137, Note_on_c, 1, 72, 0
1, 25145, Note_on_c, 1, 69, 0
1, 25149, Note_on_c, 0, 72, 0
1, 25152, Note_on_c, 0, 81, 80
1, 25200, Note_on_c, 1, 72, 80
1, 25200, Note_on_c, 1, 69, 80
1, 25241, Note_on_c, 0, 81, 0
1, 25245, Note_on_c, 1, 72, 0
1, 25245, Note_on_c, 1, 69, 0
1, 25248, Note_on_c, 1, 74, 80
1, 25248, Note_on_c, 1, 71, 80
1, 25293, Note_on_c, 1, 74, 0
1, 25293, Note_on_c, 1, 71, 0
1, 25296, Note_on_c, 1, 72, 80
1, 25296, Note_on_c, 1, 69, 80
1, 25341, Note_on_c, 1, 72, 0
1, 25341, Note_on_c, 1, 69, 0
1, 25344, Note_on_c, 1, 69, 80
1, 25344, Note_on_c, 1, 71, 64
1, 25392, Note_on_c, 0, 74, 80
1, 25437, Note_on_c, 0, 74, 0
1, 25440, Note_on_c, 0, 72, 80
1, 25440, Note_on_c, 1, 69, 0
1, 25440, Note_on_c, 1, 67, 80
1, 25485, Note_on_c, 0, 72, 0
1, 25488, Note_on_c, 0, 71, 80
1, 25521, Note_on_c, 1, 71, 0
1, 25529, Note_on_c, 1, 67, 0
1, 25533, Note_on_c, 0, 71, 0
1, 25536, Note_on_c, 0, 79, 80
1, 25584, Note_on_c, 1, 71, 80
1, 25584, Note_on_c, 1, 67, 80
1, 25625, Note_on_c, 0, 79, 0
1, 25629, Note_on_c, 1, 71, 0
1, 25629, Note_on_c, 1, 67, 0
1, 25632, Note_on_c, 1, 72, 80
1, 25632, Note_on_c, 1, 69, 80
1, 25677, Note_on_c, 1, 72, 0
1, 25677, Note_on_c, 1, 69, 0
1, 25680, Note_on_c, 1, 71, 80
1, 25680, Note_on_c, 1, 67, 80
1, 25725, Note_on_c, 1, 71, 0
1, 25725, Note_on_c, 1, 67, 0
1, 25728, Note_on_c, 1, 67, 80
1, 25728, Note_on_c, 1, 69, 64
1, 25776, Note_on_c, 0, 72, 80
1, 25821, Note_on_c, 0, 72, 0
1, 25824, Note_on_c, 0, 70, 80
1, 25824, Note_on_c, 1, 67, 0
1, 25824, Note_on_c, 1, 65, 80
1, 25836, Note_on_c, 0, 70, 0
1, 25836, Note_on_c, 0, 72, 80
1, 25848, Note_on_c, 0, 72, 0
1, 25848, Note_on_c, 0, 70, 80
1, 25869, Note_on_c, 0, 70, 0
1, 25872, Note_on_c, 0, 69, 80
1, 25905, Note_on_c, 1, 69, 0
1, 25913, Note_on_c, 1, 65, 0
1, 25917, Note_on_c, 0, 69, 0
1, 25920, Note_on_c, 0, 77, 80
1, 25965, Note_on_c, 0, 77, 0
1, 25968, Note_on_c, 0, 69, 80
1, 26013, Note_on_c, 0, 69, 0
1, 26016, Note_on_c, 0, 70, 80
1, 26016, Note_on_c, 1, 39, 80
1, 26061, Note_on_c, 0, 70, 0
1, 26064, Note_on_c, 0, 69, 80
1, 26105, Note_on_c, 1, 39, 0
1, 26109, Note_on_c, 0, 69, 0
1, 26112, Note_on_c, 0, 69, 80
1, 26112, Note_on_c, 1, 40, 80
1, 26208, Note_on_c, 0, 69, 0
1, 26208, Note_on_c, 0, 68, 80
1, 26220, Note_on_c, 0, 68, 0
1, 26220, Note_on_c, 0, 69, 80
1, 26232, Note_on_c, 0, 69, 0
1, 26232, Note_on_c, 0, 68, 80
1, 26245, Note_on_c, 1, 40, 0
1, 26256, Note_on_c, 1, 44, 80
1, 26279, Note_on_c, 1, 44, 0
1, 26280, Note_on_c, 1, 47, 80
1, 26303, Note_on_c, 1, 47, 0
1, 26304, Note_on_c, 1, 52, 80
1, 26385, Note_on_c, 0, 68, 0
1, 26400, Note_on_c, 0, 64, 80
1, 26423, Note_on_c, 0, 64, 0
1, 26424, Note_on_c, 0, 66, 80
1, 26447, Note_on_c, 0, 66, 0
1, 26448, Note_on_c, 0, 68, 80
1, 26471, Note_on_c, 0, 68, 0
1, 26472, Note_on_c, 0, 69, 80
1, 26495, Note_on_c, 0, 69, 0
1, 26496, Note_on_c, 0, 71, 80
1, 26585, Note_on_c, 0, 71, 0
1, 26585, Note_on_c, 1, 52, 0
1, 26592, Note_on_c, 0, 68, 80
1, 26607, Note_on_c, 0, 68, 0
1, 26608, Note_on_c, 0, 69, 80
1, 26623, Note_on_c, 0, 69, 0
1, 26624, Note_on_c, 0, 71, 80
1, 26639, Note_on_c, 0, 71, 0
1, 26640, Note_on_c, 0, 72, 80
1, 26655, Note_on_c, 0, 72, 0
1, 26656, Note_on_c, 0, 74, 80
1, 26671, Note_on_c, 0, 74, 0
1, 26672, Note_on_c, 0, 76, 80
1, 26687, Note_on_c, 0, 76, 0
1, 26688, Note_on_c, 0, 77, 80
1, 26777, Note_on_c, 0, 77, 0
1, 26784, Note_on_c, 0, 71, 80
1, 26796, Note_on_c, 0, 71, 0
1, 26796, Note_on_c, 0, 72, 80
1, 26808, Note_on_c, 0, 72, 0
1, 26808, Note_on_c, 0, 74, 80
1, 26820, Note_on_c, 0, 74, 0
1, 26820, Note_on_c, 0, 76, 80
1, 26832, Note_on_c, 0, 76, 0
1, 26832, Note_on_c, 0, 78, 80
1, 26844, Note_on_c, 0, 78, 0
1, 26844, Note_on_c, 0, 80, 80
1, 26856, Note_on_c, 0, 80, 0
1, 26856, Note_on_c, 0, 81, 80
1, 26868, Note_on_c, 0, 81, 0
1, 26868, Note_on_c, 0, 83, 80
1, 26880, Note_on_c, 0, 83, 0
1, 26880, Note_on_c, 0, 84, 96
1, 26928, Note_on_c, 0, 84, 0
1, 26928, Note_on_c, 0, 83, 80
1, 26973, Note_on_c, 0, 83, 0
1, 26976, Note_on_c, 0, 81, 80
1, 27021, Note_on_c, 0, 81, 0
1, 27024, Note_on_c, 0, 80, 80
1, 27069, Note_on_c, 0, 80, 0
1, 27072, Note_on_c, 0, 81, 80
1, 27117, Note_on_c, 0, 81, 0
1, 27120, Note_on_c, 0, 83, 80
1, 27165, Note_on_c, 0, 83, 0
1, 27168, Note_on_c, 0, 81, 80
1, 27213, Note_on_c, 0, 81, 0
1, 27216, Note_on_c, 0, 80, 80
1, 27261, Note_on_c, 0, 80, 0
1, 27264, Note_on_c, 0, 81, 96
1, 27312, Note_on_c, 0, 81, 0
1, 27312, Note_on_c, 0, 79, 80
1, 27357, Note_on_c, 0, 79, 0
1, 27360, Note_on_c, 0, 77, 80
1, 27405, Note_on_c, 0, 77, 0
1, 27408, Note_on_c, 0, 76, 80
1, 27453, Note_on_c, 0, 76, 0
1, 27456, Note_on_c, 0, 77, 80
1, 27501, Note_on_c, 0, 77, 0
1, 27504, Note_on_c, 0, 79, 80
1, 27549, Note_on_c, 0, 79, 0
1, 27552, Note_on_c, 0, 77, 80
1, 27597, Note_on_c, 0, 77, 0
1, 27600, Note_on_c, 0, 76, 80
1, 27645, Note_on_c, 0, 76, 0
1, 27648, Note_on_c, 0, 77, 96
1, 27696, Note_on_c, 0, 77, 0
1, 27696, Note_on_c, 0, 76, 80
1, 27741, Note_on_c, 0, 76, 0
1, 27744, Note_on_c, 0, 74, 80
1, 27789, Note_on_c, 0, 74, 0
1, 27792, Note_on_c, 0, 73, 80
1, 27837, Note_on_c, 0, 73, 0
1, 27840, Note_on_c, 0, 74, 80
1, 27885, Note_on_c, 0, 74, 0
1, 27888, Note_on_c, 0, 77, 80
1, 27888, Note_on_c, 0, 69, 80
1, 27933, Note_on_c, 0, 77, 0
1, 27933, Note_on_c, 0, 69, 0
1, 27936, Note_on_c, 0, 76, 80
1, 27936, Note_on_c, 0, 67, 80
1, 27981, Note_on_c, 0, 76, 0
1, 27981, Note_on_c, 0, 67, 0
1, 27984, Note_on_c, 0, 74, 80
1, 27984, Note_on_c, 0, 65, 80
1, 28029, Note_on_c, 0, 74, 0
1, 28029, Note_on_c, 0, 65, 0
1, 28032, Note_on_c, 0, 73, 96
1, 28032, Note_on_c, 0, 64, 96
1, 28080, Note_on_c, 0, 73, 0
1, 28080, Note_on_c, 0, 64, 0
1, 28080, Note_on_c, 0, 74, 80
1, 28080, Note_on_c, 0, 65, 80
1, 28125, Note_on_c, 0, 74, 0
1, 28125, Note_on_c, 0, 65, 0
1, 28128, Note_on_c, 0, 74, 80
1, 28128, Note_on_c, 0, 65, 80
1, 28128, Note_on_c, 1, 46, 80
1, 28128, Note_on_c, 1, 34, 80
1, 28176, Note_on_c, 0, 74, 0
1, 28176, Note_on_c, 0, 65, 0
1, 28176, Note_on_c, 0, 73, 80
1, 28176, Note_on_c, 0, 64, 80
1, 28221, Note_on_c, 0, 73, 0
1, 28221, Note_on_c, 0, 64, 0
1, 28224, Note_on_c, 0, 73, 80
1, 28224, Note_on_c, 0, 64, 80
1, 28272, Note_on_c, 0, 73, 0
1, 28272, Note_on_c, 0, 64, 0
1, 28272, Note_on_c, 0, 74, 80
1, 28272, Note_on_c, 0, 65, 80
1, 28313, Note_on_c, 1, 46, 0
1, 28313, Note_on_c, 1, 34, 0
1, 28317, Note_on_c, 0, 74, 0
1, 28317, Note_on_c, 0, 65, 0
1, 28320, Note_on_c, 0, 74, 80
1, 28320, Note_on_c, 0, 65, 80
1, 28320, Note_on_c, 1, 45, 80
1, 28320, Note_on_c, 1, 33, 80
1, 28368, Note_on_c, 0, 74, 0
1, 28368, Note_on_c, 0, 65, 0
1, 28368, Note_on_c, 0, 73, 80
1, 28368, Note_on_c, 0, 64, 80
1, 28409, Note_on_c, 1, 45, 0
1, 28409, Note_on_c, 1, 33, 0
1, 28413, Note_on_c, 0, 73, 0
1, 28413, Note_on_c, 0, 64, 0
1, 28416, Note_on_c, 0, 74, 96
1, 28416, Note_on_c, 0, 71, 96
1, 28416, Note_on_c, 0, 64, 96
1, 28416, Note_on_c, 1, 44, 80
1, 28439, Note_on_c, 1, 44, 0
1, 28440, Note_on_c, 1, 47, 80
1, 28463, Note_on_c, 1, 47, 0
1, 28464, Note_on_c, 1, 50, 80
1, 28487, Note_on_c, 1, 50, 0
1, 28488, Note_on_c, 1, 56, 80
1, 28511, Note_on_c, 1, 56, 0
1, 28512, Note_on_c, 0, 74, 0
1, 28512, Note_on_c, 0, 71, 0
1, 28512, Note_on_c, 0, 64, 0
1, 28512, Note_on_c, 1, 44, 80
1, 28560, Note_on_c, 0, 71, 80
1, 28583, Note_on_c, 0, 71, 0
1, 28584, Note_on_c, 0, 72, 80
1, 28601, Note_on_c, 1, 44, 0
1, 28607, Note_on_c, 0, 72, 0
1, 28608, Note_on_c, 0, 74, 80
1, 28653, Note_on_c, 0, 74, 0
1, 28656, Note_on_c, 0, 71, 80
1, 28679, Note_on_c, 0, 71, 0
1, 28680, Note_on_c, 0, 72, 80
1, 28703, Note_on_c, 0, 72, 0
1, 28704, Note_on_c, 0, 74, 80
1, 28749, Note_on_c, 0, 74, 0
1, 28752, Note_on_c, 0, 72, 80
1, 28775, Note_on_c, 0, 72, 0
1, 28776, Note_on_c, 0, 71, 80
1, 28799, Note_on_c, 0, 71, 0
1, 28800, Note_on_c, 0, 72, 96
1, 28800, Note_on_c, 0, 69, 96
1, 28800, Note_on_c, 0, 62, 96
1, 28800, Note_on_c, 1, 42, 80
1, 28823, Note_on_c, 1, 42, 0
1, 28824, Note_on_c, 1, 45, 80
1, 28847, Note_on_c, 1, 45, 0
1, 28848, Note_on_c, 1, 50, 80
1, 28871, Note_on_c, 1, 50, 0
1, 28872, Note_on_c, 1, 54, 80
1, 28895, Note_on_c, 1, 54, 0
1, 28896, Note_on_c, 0, 72, 0
1, 28896, Note_on_c, 0, 69, 0
1, 28896, Note_on_c, 0, 62, 0
1, 28896, Note_on_c, 1, 42, 80
1, 28944, Note_on_c, 0, 69, 80
1, 28967, Note_on_c, 0, 69, 0
1, 28968, Note_on_c, 0, 71, 80
1, 28985, Note_on_c, 1, 42, 0
1, 28991, Note_on_c, 0, 71, 0
1, 28992, Note_on_c, 0, 72, 80
1, 29037, Note_on_c, 0, 72, 0
1, 29040, Note_on_c, 0, 69, 80
1, 29063, Note_on_c, 0, 69, 0
1, 29064, Note_on_c, 0, 71, 80
1, 29087, Note_on_c, 0, 71, 0
1, 29088, Note_on_c, 0, 72, 80
1, 29133, Note_on_c, 0, 72, 0
1, 29136, Note_on_c, 0, 71, 80
1, 29159, Note_on_c, 0, 71, 0
1, 29160, Note_on_c, 0, 69, 80
1, 29183, Note_on_c, 0, 69, 0
1, 29184, Note_on_c, 0, 71, 96
1, 29184, Note_on_c, 0, 68, 96
1, 29184, Note_on_c, 1, 41, 80
1, 29207, Note_on_c, 1, 41, 0
1, 29208, Note_on_c, 1, 44, 80
1, 29231, Note_on_c, 1, 44, 0
1, 29232, Note_on_c, 1, 47, 80
1, 29255, Note_on_c, 1, 47, 0
1, 29256, Note_on_c, 1, 53, 80
1, 29279, Note_on_c, 1, 53, 0
1, 29280, Note_on_c, 0, 71, 0
1, 29280, Note_on_c, 0, 68, 0
1, 29280, Note_on_c, 1, 41, 80
1, 29328, Note_on_c, 0, 68, 80
1, 29351, Note_on_c, 0, 68, 0
1, 29352, Note_on_c, 0, 70, 80
1, 29369, Note_on_c, 1, 41, 0
1, 29375, Note_on_c, 0, 70, 0
1, 29376, Note_on_c, 0, 71, 80
1, 29421, Note_on_c, 0, 71, 0
1, 29424, Note_on_c, 0, 74, 80
1, 29469, Note_on_c, 0, 74, 0
1, 29472, Note_on_c, 0, 73, 80
1, 29517, Note_on_c, 0, 73, 0
1, 29520, Note_on_c, 0, 71, 80
1, 29565, Note_on_c, 0, 71, 0
1, 29568, Note_on_c, 0, 71, 80
1, 29568, Note_on_c, 1, 66, 80
1, 29568, Note_on_c, 1, 61, 80
1, 29568, Note_on_c, 1, 59, 80
1, 29568, Note_on_c, 1, 52, 80
1, 29760, Note_on_c, 0, 71, 0
1, 29760, Note_on_c, 0, 70, 80
1, 29831, Note_on_c, 0, 70, 0
1, 29831, Note_on_c, 1, 66, 0
1, 29831, Note_on_c, 1, 61, 0
1, 29831, Note_on_c, 1, 59, 0
1, 29831, Note_on_c, 1, 52, 0
1, 29856, Note_on_c, 0, 62, 80
1, 29856, Note_on_c, 1, 50, 80
1, 29856, Note_on_c, 1, 38, 80
1, 29895, Note_on_c, 0, 62, 0
1, 29945, Note_on_c, 1, 50, 0
1, 29945, Note_on_c, 1, 38, 0
1, 29952, Note_on_c, 0, 62, 96
1, 29952, Note_on_c, 1, 50, 96
1, 29952, Note_on_c, 1, 38, 96
1, 29964, Note_on_c, 0, 62, 0
1, 29964, Note_on_c, 0, 64, 96
1, 29976, Note_on_c, 0, 64, 0
1, 29976, Note_on_c, 0, 62, 96
1, 30048, Note_on_c, 0, 62, 0
1, 30048, Note_on_c, 0, 62, 80
1, 30048, Note_on_c, 1, 50, 0
1, 30048, Note_on_c, 1, 38, 0
1, 30048, Note_on_c, 1, 50, 80
1, 30048, Note_on_c, 1, 38, 80
1, 30078, Note_on_c, 0, 62, 0
1, 30080, Note_on_c, 0, 66, 80
1, 30087, Note_on_c, 1, 50, 0
1, 30087, Note_on_c, 1, 38, 0
1, 30110, Note_on_c, 0, 66, 0
1, 30112, Note_on_c, 0, 69, 80
1, 30142, Note_on_c, 0, 69, 0
1, 30144, Note_on_c, 0, 60, 96
1, 30144, Note_on_c, 1, 48, 96
1, 30144, Note_on_c, 1, 36, 96
1, 30240, Note_on_c, 0, 60, 0
1, 30240, Note_on_c, 0, 60, 80
1, 30240, Note_on_c, 1, 48, 0
1, 30240, Note_on_c, 1, 36, 0
1, 30240, Note_on_c, 1, 48, 80
1, 30240, Note_on_c, 1, 36, 80
1, 30270, Note_on_c, 0, 60, 0
1, 30272, Note_on_c, 0, 66, 80
1, 30279, Note_on_c, 1, 48, 0
1, 30279, Note_on_c, 1, 36, 0
1, 30302, Note_on_c, 0, 66, 0
1, 30304, Note_on_c, 0, 69, 80
1, 30334, Note_on_c, 0, 69, 0
1, 30336, Note_on_c, 0, 59, 96
1, 30336, Note_on_c, 1, 47, 96
1, 30336, Note_on_c, 1, 35, 96
1, 30528, Note_on_c, 0, 59, 0
1, 30528, Note_on_c, 1, 47, 0
1, 30528, Note_on_c, 1, 35, 0
1, 30624, Note_on_c, 0, 59, 80
1, 30624, Note_on_c, 1, 47, 80
1, 30624, Note_on_c, 1, 35, 80
1, 30663, Note_on_c, 0, 59, 0
1, 30663, Note_on_c, 1, 47, 0
1, 30663, Note_on_c, 1, 35, 0
1, 30720, Note_on_c, 0, 59, 96
1, 30720, Note_on_c, 1, 47, 96
1, 30720, Note_on_c, 1, 35, 96
1, 30816, Note_on_c, 0, 59, 0
1, 30816, Note_on_c, 0, 59, 80
1, 30816, Note_on_c, 1, 47, 0
1, 30816, Note_on_c, 1, 35, 0
1, 30816, Note_on_c, 1, 47, 80
1, 30816, Note_on_c, 1, 35, 80
1, 30846, Note_on_c, 0, 59, 0
1, 30848, Note_on_c, 0, 63, 80
1, 30855, Note_on_c, 1, 47, 0
1, 30855, Note_on_c, 1, 35, 0
1, 30878, Note_on_c, 0, 63, 0
1, 30880, Note_on_c, 0, 66, 80
1, 30910, Note_on_c, 0, 66, 0
1, 30912, Note_on_c, 0, 57, 96
1, 30912, Note_on_c, 1, 45, 96
1, 30912, Note_on_c, 1, 33, 96
1, 31008, Note_on_c, 0, 57, 0
1, 31008, Note_on_c, 0, 57, 80
1, 31008, Note_on_c, 1, 45, 0
1, 31008, Note_on_c, 1, 33, 0
1, 31008, Note_on_c, 1, 45, 80
1, 31008, Note_on_c, 1, 33, 80
1, 31038, Note_on_c, 0, 57, 0
1, 31040, Note_on_c, 0, 63, 80
1, 31047, Note_on_c, 1, 45, 0
1, 31047, Note_on_c, 1, 33, 0
1, 31070, Note_on_c, 0, 63, 0
1, 31072, Note_on_c, 0, 66, 80
1, 31102, Note_on_c, 0, 66, 0
1, 31104, Note_on_c, 0, 55, 96
1, 31104, Note_on_c, 1, 43, 96
1, 31104, Note_on_c, 1, 31, 96
1, 31392, Note_on_c, 0, 55, 0
1, 31392, Note_on_c, 1, 43, 0
1, 31392, Note_on_c, 1, 31, 0
1, 31488, Note_on_c, 0, 53, 80
1, 31584, Note_on_c, 1, 45, 75
1, 31665, Note_on_c, 0, 53, 0
1, 31673, Note_on_c, 1, 45, 0
1, 31680, Note_on_c, 0, 51, 80
1, 31776, Note_on_c, 1, 43, 75
1, 31857, Note_on_c, 0, 51, 0
1, 31865, Note_on_c, 1, 43, 0
1, 31872, Note_on_c, 0, 52, 80
1, 31968, Note_on_c, 1, 48, 75
1, 32005, Note_on_c, 0, 52, 0
1, 32016, Note_on_c, 0, 54, 80
1, 32057, Note_on_c, 1, 48, 0
1, 32061, Note_on_c, 0, 54, 0
1, 32064, Note_on_c, 0, 55, 80
1, 32064, Note_on_c, 1, 48, 75
1, 32109, Note_on_c, 0, 55, 0
1, 32112, Note_on_c, 0, 54, 80
1, 32153, Note_on_c, 1, 48, 0
1, 32157, Note_on_c, 0, 54, 0
1, 32160, Note_on_c, 0, 55, 80
1, 32160, Note_on_c, 1, 48, 75
1, 32160, Note_on_c, 1, 36, 75
1, 32205, Note_on_c, 0, 55, 0
1, 32208, Note_on_c, 0, 57, 80
1, 32249, Note_on_c, 1, 48, 0
1, 32249, Note_on_c, 1, 36, 0
1, 32253, Note_on_c, 0, 57, 0
1, 32256, Note_on_c, 0, 58, 64
1, 32256, Note_on_c, 1, 51, 58
1, 32256, Note_on_c, 1, 47, 58
1, 32256, Note_on_c, 1, 35, 58
1, 32448, Note_on_c, 0, 58, 0
1, 32448, Note_on_c, 0, 59, 64
1, 32515, Note_on_c, 0, 59, 0
1, 32518, Note_on_c, 1, 51, 0
1, 32518, Note_on_c, 1, 47, 0
1, 32518, Note_on_c, 1, 35, 0
1, 32544, Note_on_c, 0, 74, 75
1, 32583, Note_on_c, 0, 74, 0
1, 32640, Note_on_c, 0, 79, 75
1, 32640, Note_on_c, 1, 55, 64
1, 32679, Note_on_c, 1, 55, 0
1, 32685, Note_on_c, 0, 79, 0
1, 32688, Note_on_c, 0, 83, 75
1, 32733, Note_on_c, 0, 83, 0
1, 32736, Note_on_c, 0, 81, 76
1, 32736, Note_on_c, 1, 59, 64
1, 32775, Note_on_c, 1, 59, 0
1, 32781, Note_on_c, 0, 81, 0
1, 32784, Note_on_c, 0, 79, 76
1, 32829, Note_on_c, 0, 79, 0
1, 32832, Note_on_c, 0, 78, 77
1, 32832, Note_on_c, 1, 57, 64
1, 32877, Note_on_c, 0, 78, 0
1, 32880, Note_on_c, 0, 81, 78
1, 32921, Note_on_c, 1, 57, 0
1, 32925, Note_on_c, 0, 81, 0
1, 32928, Note_on_c, 0, 79, 78
1, 32928, Note_on_c, 1, 60, 64
1, 32973, Note_on_c, 0, 79, 0
1, 32976, Note_on_c, 0, 78, 79
1, 33017, Note_on_c, 1, 60, 0
1, 33021, Note_on_c, 0, 78, 0
1, 33024, Note_on_c, 0, 79, 80
1, 33024, Note_on_c, 1, 59, 64
1, 33069, Note_on_c, 0, 79, 0
1, 33072, Note_on_c, 0, 86, 79
1, 33092, Note_on_c, 0, 86, 0
1, 33120, Note_on_c, 0, 84, 78
1, 33140, Note_on_c, 0, 84, 0
1, 33168, Note_on_c, 0, 83, 78
1, 33188, Note_on_c, 0, 83, 0
1, 33201, Note_on_c, 1, 59, 0
1, 33216, Note_on_c, 0, 81, 77
1, 33236, Note_on_c, 0, 81, 0
1, 33264, Note_on_c, 0, 79, 76
1, 33284, Note_on_c, 0, 79, 0
1, 33312, Note_on_c, 0, 78, 76
1, 33312, Note_on_c, 1, 50, 70
1, 33351, Note_on_c, 1, 50, 0
1, 33360, Note_on_c, 0, 78, 0
1, 33360, Note_on_c, 0, 81, 75
1, 33405, Note_on_c, 0, 81, 0
1, 33408, Note_on_c, 1, 55, 70
1, 33453, Note_on_c, 1, 55, 0
1, 33456, Note_on_c, 0, 79, 75
1, 33456, Note_on_c, 1, 59, 70
1, 33501, Note_on_c, 0, 79, 0
1, 33501, Note_on_c, 1, 59, 0
1, 33504, Note_on_c, 0, 78, 75
1, 33504, Note_on_c, 1, 57, 70
1, 33549, Note_on_c, 0, 78, 0
1, 33549, Note_on_c, 1, 57, 0
1, 33552, Note_on_c, 0, 76, 75
1, 33552, Note_on_c, 1, 55, 70
1, 33597, Note_on_c, 0, 76, 0
1, 33597, Note_on_c, 1, 55, 0
1, 33600, Note_on_c, 0, 74, 75
1, 33600, Note_on_c, 1, 54, 70
1, 33645, Note_on_c, 0, 74, 0
1, 33645, Note_on_c, 1, 54, 0
1, 33648, Note_on_c, 0, 72, 75
1, 33648, Note_on_c, 1, 57, 70
1, 33693, Note_on_c, 0, 72, 0
1, 33693, Note_on_c, 1, 57, 0
1, 33696, Note_on_c, 0, 71, 75
1, 33696, Note_on_c, 1, 55, 70
1, 33741, Note_on_c, 0, 71, 0
1, 33741, Note_on_c, 1, 55, 0
1, 33744, Note_on_c, 0, 69, 75
1, 33744, Note_on_c, 1, 54, 70
1, 33789, Note_on_c, 0, 69, 0
1, 33789, Note_on_c, 1, 54, 0
1, 33792, Note_on_c, 0, 72, 75
1, 33792, Note_on_c, 1, 55, 70
1, 33837, Note_on_c, 1, 55, 0
1, 33840, Note_on_c, 0, 72, 0
1, 33840, Note_on_c, 0, 71, 75
1, 33840, Note_on_c, 1, 62, 70
1, 33885, Note_on_c, 0, 71, 0
1, 33885, Note_on_c, 1, 62, 0
1, 33888, Note_on_c, 0, 69, 75
1, 33888, Note_on_c, 1, 60, 70
1, 33933, Note_on_c, 0, 69, 0
1, 33933, Note_on_c, 1, 60, 0
1, 33936, Note_on_c, 0, 67, 75
1, 33936, Note_on_c, 1, 59, 70
1, 33981, Note_on_c, 0, 67, 0
1, 33981, Note_on_c, 1, 59, 0
1, 33984, Note_on_c, 0, 66, 75
1, 33984, Note_on_c, 1, 57, 70
1, 34029, Note_on_c, 0, 66, 0
1, 34029, Note_on_c, 1, 57, 0
1, 34032, Note_on_c, 0, 64, 75
1, 34032, Note_on_c, 1, 55, 71
1, 34077, Note_on_c, 0, 64, 0
1, 34077, Note_on_c, 1, 55, 0
1, 34080, Note_on_c, 0, 62, 75
1, 34080, Note_on_c, 1, 54, 72
1, 34125, Note_on_c, 0, 62, 0
1, 34125, Note_on_c, 1, 54, 0
1, 34128, Note_on_c, 0, 72, 91
1, 34128, Note_on_c, 1, 52, 73
1, 34173, Note_on_c, 1, 52, 0
1, 34176, Note_on_c, 1, 50, 75
1, 34215, Note_on_c, 1, 50, 0
1, 34221, Note_on_c, 0, 72, 0
1, 34224, Note_on_c, 0, 62, 75
1, 34269, Note_on_c, 0, 62, 0
1, 34272, Note_on_c, 0, 71, 74
1, 34272, Note_on_c, 1, 62, 75
1, 34292, Note_on_c, 0, 71, 0
1, 34311, Note_on_c, 1, 62, 0
1, 34320, Note_on_c, 0, 71, 74
1, 34340, Note_on_c, 0, 71, 0
1, 34368, Note_on_c, 1, 48, 75
1, 34407, Note_on_c, 1, 48, 0
1, 34416, Note_on_c, 0, 64, 73
1, 34461, Note_on_c, 0, 64, 0
1, 34464, Note_on_c, 0, 69, 73
1, 34464, Note_on_c, 1, 60, 75
1, 34484, Note_on_c, 0, 69, 0
1, 34503, Note_on_c, 1, 60, 0
1, 34512, Note_on_c, 0, 69, 73
1, 34532, Note_on_c, 0, 69, 0
1, 34560, Note_on_c, 1, 47, 75
1, 34599, Note_on_c, 1, 47, 0
1, 34608, Note_on_c, 0, 62, 72
1, 34653, Note_on_c, 0, 62, 0
1, 34656, Note_on_c, 0, 67, 72
1, 34656, Note_on_c, 1, 59, 75
1, 34676, Note_on_c, 0, 67, 0
1, 34695, Note_on_c, 1, 59, 0
1, 34704, Note_on_c, 0, 67, 71
1, 34724, Note_on_c, 0, 67, 0
1, 34752, Note_on_c, 1, 45, 75
1, 34791, Note_on_c, 1, 45, 0
1, 34800, Note_on_c, 0, 60, 71
1, 34845, Note_on_c, 0, 60, 0
1, 34848, Note_on_c, 0, 65, 70
1, 34848, Note_on_c, 1, 57, 75
1, 34868, Note_on_c, 0, 65, 0
1, 34887, Note_on_c, 1, 57, 0
1, 34896, Note_on_c, 0, 65, 70
1, 34916, Note_on_c, 0, 65, 0
1, 34944, Note_on_c, 0, 65, 70
1, 34944, Note_on_c, 1, 44, 91
1, 34956, Note_on_c, 0, 65, 0
1, 34956, Note_on_c, 0, 67, 70
1, 34968, Note_on_c, 0, 67, 0
1, 34968, Note_on_c, 0, 65, 70
1, 34989, Note_on_c, 0, 65, 0
1, 34992, Note_on_c, 0, 64, 70
1, 35037, Note_on_c, 0, 64, 0
1, 35040, Note_on_c, 0, 65, 71
1, 35129, Note_on_c, 0, 65, 0
1, 35136, Note_on_c, 0, 65, 72
1, 35136, Note_on_c, 1, 44, 0
1, 35136, Note_on_c, 1, 62, 64
1, 35148, Note_on_c, 0, 65, 0
1, 35148, Note_on_c, 0, 67, 72
1, 35148, Note_on_c, 1, 62, 0
1, 35148, Note_on_c, 1, 64, 64
1, 35160, Note_on_c, 0, 67, 0
1, 35160, Note_on_c, 0, 65, 72
1, 35160, Note_on_c, 1, 64, 0
1, 35160, Note_on_c, 1, 62, 64
1, 35181, Note_on_c, 0, 65, 0
1, 35181, Note_on_c, 1, 62, 0
1, 35184, Note_on_c, 0, 64, 73
1, 35184, Note_on_c, 1, 60, 64
1, 35229, Note_on_c, 0, 64, 0
1, 35229, Note_on_c, 1, 60, 0
1, 35232, Note_on_c, 0, 65, 73
1, 35232, Note_on_c, 1, 62, 64
1, 35321, Note_on_c, 0, 65, 0
1, 35321, Note_on_c, 1, 62, 0
1, 35328, Note_on_c, 0, 74, 91
1, 35328, Note_on_c, 1, 52, 96
1, 35328, Note_on_c, 1, 47, 96
1, 35328, Note_on_c, 1, 44, 96
1, 35328, Note_on_c, 1, 40, 96
1, 35376, Note_on_c, 0, 74, 0
1, 35376, Note_on_c, 0, 72, 74
1, 35421, Note_on_c, 0, 72, 0
1, 35424, Note_on_c, 0, 71, 73
1, 35469, Note_on_c, 0, 71, 0
1, 35472, Note_on_c, 0, 69, 73
1, 35517, Note_on_c, 0, 69, 0
1, 35520, Note_on_c, 0, 68, 72
1, 35565, Note_on_c, 0, 68, 0
1, 35568, Note_on_c, 0, 65, 71
1, 35608, Note_on_c, 1, 52, 0
1, 35608, Note_on_c, 1, 47, 0
1, 35608, Note_on_c, 1, 44, 0
1, 35608, Note_on_c, 1, 40, 0
1, 35613, Note_on_c, 0, 65, 0
1, 35616, Note_on_c, 0, 64, 71
1, 35661, Note_on_c, 0, 64, 0
1, 35664, Note_on_c, 0, 62, 70
1, 35709, Note_on_c, 0, 62, 0
1, 35712, Note_on_c, 0, 64, 70
1, 35712, Note_on_c, 1, 36, 91
1, 35724, Note_on_c, 0, 64, 0
1, 35724, Note_on_c, 0, 66, 70
1, 35736, Note_on_c, 0, 66, 0
1, 35736, Note_on_c, 0, 64, 70
1, 35757, Note_on_c, 0, 64, 0
1, 35760, Note_on_c, 0, 62, 70
1, 35805, Note_on_c, 0, 62, 0
1, 35808, Note_on_c, 0, 64, 71
1, 35897, Note_on_c, 0, 64, 0
1, 35904, Note_on_c, 0, 64, 72
1, 35904, Note_on_c, 1, 36, 0
1, 35904, Note_on_c, 1, 60, 70
1, 35916, Note_on_c, 0, 64, 0
1, 35916, Note_on_c, 0, 66, 72
1, 35916, Note_on_c, 1, 60, 0
1, 35916, Note_on_c, 1, 62, 70
1, 35928, Note_on_c, 0, 66, 0
1, 35928, Note_on_c, 0, 64, 72
1, 35928, Note_on_c, 1, 62, 0
1, 35928, Note_on_c, 1, 60, 70
1, 35949, Note_on_c, 0, 64, 0
1, 35949, Note_on_c, 1, 60, 0
1, 35952, Note_on_c, 0, 62, 73
1, 35952, Note_on_c, 1, 59, 70
1, 35997, Note_on_c, 0, 62, 0
1, 35997, Note_on_c, 1, 59, 0
1, 36000, Note_on_c, 0, 64, 73
1, 36000, Note_on_c, 1, 60, 70
1, 36089, Note_on_c, 0, 64, 0
1, 36089, Note_on_c, 1, 60, 0
1, 36096, Note_on_c, 0, 72, 91
1, 36096, Note_on_c, 1, 57, 96
1, 36096, Note_on_c, 1, 52, 96
1, 36096, Note_on_c, 1, 48, 96
1, 36096, Note_on_c, 1, 45, 96
1, 36144, Note_on_c, 0, 72, 0
1, 36144, Note_on_c, 0, 71, 74
1, 36189, Note_on_c, 0, 71, 0
1, 36192, Note_on_c, 0, 69, 73
1, 36237, Note_on_c, 0, 69, 0
1, 36240, Note_on_c, 0, 67, 73
1, 36285, Note_on_c, 0, 67, 0
1, 36288, Note_on_c, 0, 65, 72
1, 36333, Note_on_c, 0, 65, 0
1, 36336, Note_on_c, 0, 64, 71
1, 36376, Note_on_c, 1, 57, 0
1, 36376, Note_on_c, 1, 52, 0
1, 36376, Note_on_c, 1, 48, 0
1, 36376, Note_on_c, 1, 45, 0
1, 36381, Note_on_c, 0, 64, 0
1, 36384, Note_on_c, 0, 62, 71
1, 36429, Note_on_c, 0, 62, 0
1, 36432, Note_on_c, 0, 60, 70
1, 36477, Note_on_c, 0, 60, 0
1, 36480, Note_on_c, 0, 59, 86
1, 36480, Note_on_c, 1, 47, 96
1, 36500, Note_on_c, 0, 59, 0
1, 36500, Note_on_c, 1, 47, 0
1, 36528, Note_on_c, 0, 59, 70
1, 36528, Note_on_c, 1, 47, 70
1, 36551, Note_on_c, 0, 59, 0
1, 36551, Note_on_c, 1, 47, 0
1, 36552, Note_on_c, 0, 60, 70
1, 36552, Note_on_c, 1, 48, 70
1, 36575, Note_on_c, 0, 60, 0
1, 36575, Note_on_c, 1, 48, 0
1, 36576, Note_on_c, 0, 62, 70
1, 36576, Note_on_c, 1, 50, 70
1, 36596, Note_on_c, 0, 62, 0
1, 36596, Note_on_c, 1, 50, 0
1, 36624, Note_on_c, 0, 59, 71
1, 36624, Note_on_c, 1, 47, 71
1, 36644, Note_on_c, 0, 59, 0
1, 36644, Note_on_c, 1, 47, 0
1, 36672, Note_on_c, 0, 56, 88
1, 36672, Note_on_c, 1, 44, 88
1, 36692, Note_on_c, 0, 56, 0
1, 36692, Note_on_c, 1, 44, 0
1, 36720, Note_on_c, 0, 56, 72
1, 36720, Note_on_c, 1, 44, 72
1, 36743, Note_on_c, 0, 56, 0
1, 36743, Note_on_c, 1, 44, 0
1, 36744, Note_on_c, 0, 57, 73
1, 36744, Note_on_c, 1, 45, 73
1, 36767, Note_on_c, 0, 57, 0
1, 36767, Note_on_c, 1, 45, 0
1, 36768, Note_on_c, 0, 59, 73
1, 36768, Note_on_c, 1, 47, 73
1, 36788, Note_on_c, 0, 59, 0
1, 36788, Note_on_c, 1, 47, 0
1, 36816, Note_on_c, 0, 56, 74
1, 36816, Note_on_c, 1, 44, 74
1, 36836, Note_on_c, 0, 56, 0
1, 36836, Note_on_c, 1, 44, 0
1, 36864, Note_on_c, 0, 69, 90
1, 36864, Note_on_c, 1, 57, 90
1, 36884, Note_on_c, 0, 69, 0
1, 36884, Note_on_c, 1, 57, 0
1, 36912, Note_on_c, 0, 69, 75
1, 36912, Note_on_c, 1, 57, 75
1, 36935, Note_on_c, 0, 69, 0
1, 36935, Note_on_c, 1, 57, 0
1, 36936, Note_on_c, 0, 71, 75
1, 36936, Note_on_c, 1, 59, 75
1, 36959, Note_on_c, 0, 71, 0
1, 36959, Note_on_c, 1, 59, 0
1, 36960, Note_on_c, 0, 72, 76
1, 36960, Note_on_c, 1, 60, 76
1, 36980, Note_on_c, 0, 72, 0
1, 36980, Note_on_c, 1, 60, 0
1, 37008, Note_on_c, 0, 69, 76
1, 37008, Note_on_c, 1, 57, 76
1, 37028, Note_on_c, 0, 69, 0
1, 37028, Note_on_c, 1, 57, 0
1, 37056, Note_on_c, 0, 65, 93
1, 37056, Note_on_c, 1, 53, 93
1, 37076, Note_on_c, 0, 65, 0
1, 37076, Note_on_c, 1, 53, 0
1, 37104, Note_on_c, 0, 65, 78
1, 37104, Note_on_c, 1, 53, 78
1, 37127, Note_on_c, 0, 65, 0
1, 37127, Note_on_c, 1, 53, 0
1, 37128, Note_on_c, 0, 67, 78
1, 37128, Note_on_c, 1, 55, 78
1, 37151, Note_on_c, 0, 67, 0
1, 37151, Note_on_c, 1, 55, 0
1, 37152, Note_on_c, 0, 69, 78
1, 37152, Note_on_c, 1, 57, 78
1, 37172, Note_on_c, 0, 69, 0
1, 37172, Note_on_c, 1, 57, 0
1, 37200, Note_on_c, 0, 65, 79
1, 37200, Note_on_c, 1, 53, 79
1, 37220, Note_on_c, 0, 65, 0
1, 37220, Note_on_c, 1, 53, 0
1, 37248, Note_on_c, 0, 70, 96
1, 37248, Note_on_c, 0, 65, 96
1, 37248, Note_on_c, 0, 62, 96
1, 37248, Note_on_c, 0, 58, 96
1, 37248, Note_on_c, 1, 34, 80
1, 37271, Note_on_c, 1, 34, 0
1, 37272, Note_on_c, 1, 38, 80
1, 37295, Note_on_c, 1, 38, 0
1, 37296, Note_on_c, 1, 41, 80
1, 37319, Note_on_c, 1, 41, 0
1, 37320, Note_on_c, 1, 46, 80
1, 37343, Note_on_c, 1, 46, 0
1, 37344, Note_on_c, 0, 70, 0
1, 37344, Note_on_c, 0, 65, 0
1, 37344, Note_on_c, 0, 62, 0
1, 37344, Note_on_c, 0, 58, 0
1, 37344, Note_on_c, 1, 34, 80
1, 37392, Note_on_c, 0, 77, 80
1, 37415, Note_on_c, 0, 77, 0
1, 37416, Note_on_c, 0, 76, 80
1, 37433, Note_on_c, 1, 34, 0
1, 37439, Note_on_c, 0, 76, 0
1, 37440, Note_on_c, 0, 74, 80
1, 37485, Note_on_c, 0, 74, 0
1, 37488, Note_on_c, 0, 74, 80
1, 37511, Note_on_c, 0, 74, 0
1, 37512, Note_on_c, 0, 72, 80
1, 37535, Note_on_c, 0, 72, 0
1, 37536, Note_on_c, 0, 70, 80
1, 37581, Note_on_c, 0, 70, 0
1, 37584, Note_on_c, 0, 70, 80
1, 37607, Note_on_c, 0, 70, 0
1, 37608, Note_on_c, 0, 69, 80
1, 37631, Note_on_c, 0, 69, 0
1, 37632, Note_on_c, 0, 68, 96
1, 37632, Note_on_c, 0, 62, 96
1, 37632, Note_on_c, 0, 59, 96
1, 37632, Note_on_c, 1, 35, 80
1, 37655, Note_on_c, 1, 35, 0
1, 37656, Note_on_c, 1, 38, 80
1, 37679, Note_on_c, 1, 38, 0
1, 37680, Note_on_c, 1, 41, 80
1, 37703, Note_on_c, 1, 41, 0
1, 37704, Note_on_c, 1, 44, 80
1, 37727, Note_on_c, 1, 44, 0
1, 37728, Note_on_c, 0, 68, 0
1, 37728, Note_on_c, 0, 62, 0
1, 37728, Note_on_c, 0, 59, 0
1, 37728, Note_on_c, 1, 35, 86
1, 37773, Note_on_c, 1, 35, 0
1, 37776, Note_on_c, 1, 35, 86
1, 37799, Note_on_c, 1, 35, 0
1, 37800, Note_on_c, 1, 36, 86
1, 37823, Note_on_c, 1, 36, 0
1, 37824, Note_on_c, 1, 38, 86
1, 37844, Note_on_c, 1, 38, 0
1, 37872, Note_on_c, 1, 38, 86
1, 37895, Note_on_c, 1, 38, 0
1, 37896, Note_on_c, 1, 40, 86
1, 37919, Note_on_c, 1, 40, 0
1, 37920, Note_on_c, 1, 41, 86
1, 37940, Note_on_c, 1, 41, 0
1, 37968, Note_on_c, 1, 38, 86
1, 37988, Note_on_c, 1, 38, 0
1, 38016, Note_on_c, 0, 69, 96
1, 38016, Note_on_c, 0, 64, 96
1, 38016, Note_on_c, 0, 60, 96
1, 38016, Note_on_c, 1, 36, 80
1, 38039, Note_on_c, 1, 36, 0
1, 38040, Note_on_c, 1, 40, 80
1, 38063, Note_on_c, 1, 40, 0
1, 38064, Note_on_c, 1, 45, 80
1, 38087, Note_on_c, 1, 45, 0
1, 38088, Note_on_c, 1, 48, 80
1, 38111, Note_on_c, 1, 48, 0
1, 38112, Note_on_c, 0, 69, 0
1, 38112, Note_on_c, 0, 64, 0
1, 38112, Note_on_c, 0, 60, 0
1, 38112, Note_on_c, 1, 36, 80
1, 38160, Note_on_c, 0, 76, 80
1, 38183, Note_on_c, 0, 76, 0
1, 38184, Note_on_c, 0, 74, 80
1, 38201, Note_on_c, 1, 36, 0
1, 38207, Note_on_c, 0, 74, 0
1, 38208, Note_on_c, 0, 72, 80
1, 38253, Note_on_c, 0, 72, 0
1, 38256, Note_on_c, 0, 72, 80
1, 38279, Note_on_c, 0, 72, 0
1, 38280, Note_on_c, 0, 71, 80
1, 38303, Note_on_c, 0, 71, 0
1, 38304, Note_on_c, 0, 69, 80
1, 38349, Note_on_c, 0, 69, 0
1, 38352, Note_on_c, 0, 74, 80
1, 38397, Note_on_c, 0, 74, 0
1, 38400, Note_on_c, 0, 63, 96
1, 38400, Note_on_c, 0, 67, 96
1, 38400, Note_on_c, 0, 70, 96
1, 38400, Note_on_c, 0, 73, 96
1, 38400, Note_on_c, 1, 39, 80
1, 38423, Note_on_c, 1, 39, 0
1, 38424, Note_on_c, 1, 43, 80
1, 38447, Note_on_c, 1, 43, 0
1, 38448, Note_on_c, 1, 46, 80
1, 38471, Note_on_c, 1, 46, 0
1, 38472, Note_on_c, 1, 49, 80
1, 38495, Note_on_c, 1, 49, 0
1, 38496, Note_on_c, 0, 73, 0
1, 38496, Note_on_c, 0, 70, 0
1, 38496, Note_on_c, 0, 67, 0
1, 38496, Note_on_c, 0, 63, 0
1, 38496, Note_on_c, 1, 39, 80
1, 38544, Note_on_c, 0, 67, 80
1, 38567, Note_on_c, 0, 67, 0
1, 38568, Note_on_c, 0, 69, 80
1, 38585, Note_on_c, 1, 39, 0
1, 38591, Note_on_c, 0, 69, 0
1, 38592, Note_on_c, 0, 70, 80
1, 38637, Note_on_c, 0, 70, 0
1, 38640, Note_on_c, 0, 79, 80
1, 38663, Note_on_c, 0, 79, 0
1, 38664, Note_on_c, 0, 81, 80
1, 38687, Note_on_c, 0, 81, 0
1, 38688, Note_on_c, 0, 82, 80
1, 38733, Note_on_c, 0, 82, 0
1, 38736, Note_on_c, 0, 73, 80
1, 38781, Note_on_c, 0, 73, 0
1, 38784, Note_on_c, 0, 74, 80
1, 38784, Note_on_c, 1, 50, 80
1, 38784, Note_on_c, 1, 45, 80
1, 38784, Note_on_c, 1, 42, 80
1, 38784, Note_on_c, 1, 38, 80
1, 38832, Note_on_c, 0, 74, 0
1, 38832, Note_on_c, 0, 62, 78
1, 38877, Note_on_c, 0, 62, 0
1, 38880, Note_on_c, 0, 74, 77
1, 38925, Note_on_c, 0, 74, 0
1, 38928, Note_on_c, 0, 74, 76
1, 38961, Note_on_c, 1, 50, 0
1, 38961, Note_on_c, 1, 45, 0
1, 38961, Note_on_c, 1, 42, 0
1, 38961, Note_on_c, 1, 38, 0
1, 38973, Note_on_c, 0, 74, 0
1, 38976, Note_on_c, 0, 74, 75
1, 39024, Note_on_c, 0, 74, 0
1, 39024, Note_on_c, 0, 62, 74
1, 39069, Note_on_c, 0, 62, 0
1, 39072, Note_on_c, 0, 74, 73
1, 39117, Note_on_c, 0, 74, 0
1, 39120, Note_on_c, 0, 74, 72
1, 39165, Note_on_c, 0, 74, 0
1, 39168, Note_on_c, 0, 74, 71
1, 39216, Note_on_c, 0, 74, 0
1, 39216, Note_on_c, 0, 62, 70
1, 39261, Note_on_c, 0, 62, 0
1, 39264, Note_on_c, 0, 74, 69
1, 39309, Note_on_c, 0, 74, 0
1, 39312, Note_on_c, 0, 74, 68
1, 39357, Note_on_c, 0, 74, 0
1, 39360, Note_on_c, 0, 74, 67
1, 39408, Note_on_c, 0, 74, 0
1, 39408, Note_on_c, 0, 62, 66
1, 39453, Note_on_c, 0, 62, 0
1, 39456, Note_on_c, 0, 74, 65
1, 39456, Note_on_c, 1, 50, 75
1, 39495, Note_on_c, 1, 50, 0
1, 39501, Note_on_c, 0, 74, 0
1, 39504, Note_on_c, 0, 74, 64
1, 39549, Note_on_c, 0, 74, 0
1, 39552, Note_on_c, 0, 76, 64
1, 39552, Note_on_c, 1, 55, 75
1, 39572, Note_on_c, 0, 76, 0
1, 39573, Note_on_c, 0, 74, 64
1, 39593, Note_on_c, 0, 74, 0
1, 39594, Note_on_c, 0, 76, 64
1, 39597, Note_on_c, 1, 55, 0
1, 39600, Note_on_c, 1, 58, 75
1, 39614, Note_on_c, 0, 76, 0
1, 39615, Note_on_c, 0, 74, 64
1, 39635, Note_on_c, 0, 74, 0
1, 39636, Note_on_c, 0, 76, 64
1, 39645, Note_on_c, 1, 58, 0
1, 39648, Note_on_c, 1, 57, 76
1, 39655, Note_on_c, 0, 76, 0
1, 39656, Note_on_c, 0, 74, 64
1, 39675, Note_on_c, 0, 74, 0
1, 39676, Note_on_c, 0, 76, 64
1, 39693, Note_on_c, 1, 57, 0
1, 39695, Note_on_c, 0, 76, 0
1, 39696, Note_on_c, 0, 74, 64
1, 39696, Note_on_c, 1, 55, 76
1, 39715, Note_on_c, 0, 74, 0
1, 39716, Note_on_c, 0, 76, 64
1, 39735, Note_on_c, 0, 76, 0
1, 39736, Note_on_c, 0, 74, 64
1, 39741, Note_on_c, 1, 55, 0
1, 39744, Note_on_c, 1, 54, 77
1, 39755, Note_on_c, 0, 74, 0
1, 39756, Note_on_c, 0, 76, 64
1, 39775, Note_on_c, 0, 76, 0
1, 39776, Note_on_c, 0, 74, 64
1, 39789, Note_on_c, 1, 54, 0
1, 39792, Note_on_c, 1, 57, 78
1, 39795, Note_on_c, 0, 74, 0
1, 39796, Note_on_c, 0, 76, 64
1, 39815, Note_on_c, 0, 76, 0
1, 39816, Note_on_c, 0, 74, 64
1, 39835, Note_on_c, 0, 74, 0
1, 39836, Note_on_c, 0, 76, 64
1, 39837, Note_on_c, 1, 57, 0
1, 39840, Note_on_c, 1, 55, 78
1, 39855, Note_on_c, 0, 76, 0
1, 39856, Note_on_c, 0, 74, 64
1, 39875, Note_on_c, 0, 74, 0
1, 39876, Note_on_c, 0, 76, 64
1, 39885, Note_on_c, 1, 55, 0
1, 39888, Note_on_c, 1, 54, 79
1, 39895, Note_on_c, 0, 76, 0
1, 39896, Note_on_c, 0, 74, 64
1, 39933, Note_on_c, 1, 54, 0
1, 39936, Note_on_c, 1, 58, 80
1, 39981, Note_on_c, 1, 58, 0
1, 39984, Note_on_c, 0, 74, 0
1, 39984, Note_on_c, 0, 79, 64
1, 39984, Note_on_c, 1, 62, 79
1, 40007, Note_on_c, 0, 79, 0
1, 40008, Note_on_c, 0, 81, 64
1, 40029, Note_on_c, 1, 62, 0
1, 40031, Note_on_c, 0, 81, 0
1, 40032, Note_on_c, 0, 82, 64
1, 40032, Note_on_c, 1, 60, 78
1, 40077, Note_on_c, 0, 82, 0
1, 40077, Note_on_c, 1, 60, 0
1, 40080, Note_on_c, 0, 74, 64
1, 40080, Note_on_c, 1, 58, 78
1, 40125, Note_on_c, 0, 74, 0
1, 40125, Note_on_c, 1, 58, 0
1, 40128, Note_on_c, 0, 77, 64
1, 40128, Note_on_c, 1, 57, 77
1, 40147, Note_on_c, 0, 77, 0
1, 40148, Note_on_c, 0, 75, 64
1, 40167, Note_on_c, 0, 75, 0
1, 40168, Note_on_c, 0, 77, 64
1, 40173, Note_on_c, 1, 57, 0
1, 40176, Note_on_c, 1, 55, 76
1, 40186, Note_on_c, 0, 77, 0
1, 40187, Note_on_c, 0, 75, 64
1, 40205, Note_on_c, 0, 75, 0
1, 40206, Note_on_c, 0, 77, 64
1, 40221, Note_on_c, 1, 55, 0
1, 40224, Note_on_c, 0, 77, 0
1, 40224, Note_on_c, 1, 54, 76
1, 40225, Note_on_c, 0, 75, 64
1, 40243, Note_on_c, 0, 75, 0
1, 40244, Note_on_c, 0, 77, 64
1, 40262, Note_on_c, 0, 77, 0
1, 40263, Note_on_c, 0, 75, 64
1, 40269, Note_on_c, 1, 54, 0
1, 40272, Note_on_c, 1, 57, 75
1, 40281, Note_on_c, 0, 75, 0
1, 40282, Note_on_c, 0, 74, 64
1, 40301, Note_on_c, 0, 74, 0
1, 40301, Note_on_c, 0, 75, 64
1, 40317, Note_on_c, 1, 57, 0
1, 40320, Note_on_c, 1, 60, 75
1, 40365, Note_on_c, 1, 60, 0
1, 40368, Note_on_c, 0, 75, 0
1, 40368, Note_on_c, 0, 74, 75
1, 40368, Note_on_c, 1, 58, 75
1, 40413, Note_on_c, 0, 74, 0
1, 40413, Note_on_c, 1, 58, 0
1, 40416, Note_on_c, 0, 72, 75
1, 40416, Note_on_c, 1, 57, 75
1, 40461, Note_on_c, 0, 72, 0
1, 40461, Note_on_c, 1, 57, 0
1, 40464, Note_on_c, 0, 70, 75
1, 40464, Note_on_c, 1, 55, 75
1, 40509, Note_on_c, 0, 70, 0
1, 40509, Note_on_c, 1, 55, 0
1, 40512, Note_on_c, 0, 74, 75
1, 40512, Note_on_c, 1, 58, 75
1, 40557, Note_on_c, 0, 74, 0
1, 40557, Note_on_c, 1, 58, 0
1, 40560, Note_on_c, 0, 72, 75
1, 40560, Note_on_c, 1, 57, 75
1, 40605, Note_on_c, 0, 72, 0
1, 40605, Note_on_c, 1, 57, 0
1, 40608, Note_on_c, 0, 70, 75
1, 40608, Note_on_c, 1, 55, 75
1, 40653, Note_on_c, 0, 70, 0
1, 40653, Note_on_c, 1, 55, 0
1, 40656, Note_on_c, 0, 69, 75
1, 40656, Note_on_c, 1, 54, 75
1, 40701, Note_on_c, 0, 69, 0
1, 40701, Note_on_c, 1, 54, 0
1, 40704, Note_on_c, 0, 84, 75
1, 40704, Note_on_c, 1, 51, 75
1, 40749, Note_on_c, 0, 84, 0
1, 40749, Note_on_c, 1, 51, 0
1, 40752, Note_on_c, 0, 82, 75
1, 40752, Note_on_c, 1, 62, 75
1, 40797, Note_on_c, 0, 82, 0
1, 40797, Note_on_c, 1, 62, 0
1, 40800, Note_on_c, 0, 81, 76
1, 40800, Note_on_c, 1, 60, 76
1, 40845, Note_on_c, 0, 81, 0
1, 40845, Note_on_c, 1, 60, 0
1, 40848, Note_on_c, 0, 79, 76
1, 40848, Note_on_c, 1, 58, 76
1, 40893, Note_on_c, 0, 79, 0
1, 40893, Note_on_c, 1, 58, 0
1, 40896, Note_on_c, 0, 78, 77
1, 40896, Note_on_c, 1, 57, 77
1, 40941, Note_on_c, 0, 78, 0
1, 40941, Note_on_c, 1, 57, 0
1, 40944, Note_on_c, 0, 75, 78
1, 40944, Note_on_c, 1, 55, 78
1, 40989, Note_on_c, 0, 75, 0
1, 40989, Note_on_c, 1, 55, 0
1, 40992, Note_on_c, 0, 74, 78
1, 40992, Note_on_c, 1, 54, 78
1, 41037, Note_on_c, 0, 74, 0
1, 41037, Note_on_c, 1, 54, 0
1, 41040, Note_on_c, 0, 72, 79
1, 41040, Note_on_c, 1, 51, 79
1, 41085, Note_on_c, 0, 72, 0
1, 41085, Note_on_c, 1, 51, 0
1, 41088, Note_on_c, 0, 71, 96
1, 41088, Note_on_c, 0, 65, 96
1, 41088, Note_on_c, 0, 62, 96
1, 41088, Note_on_c, 0, 59, 96
1, 41088, Note_on_c, 1, 41, 80
1, 41111, Note_on_c, 1, 41, 0
1, 41112, Note_on_c, 1, 47, 80
1, 41135, Note_on_c, 1, 47, 0
1, 41136, Note_on_c, 1, 50, 80
1, 41159, Note_on_c, 1, 50, 0
1, 41160, Note_on_c, 1, 53, 80
1, 41183, Note_on_c, 1, 53, 0
1, 41184, Note_on_c, 0, 71, 0
1, 41184, Note_on_c, 0, 65, 0
1, 41184, Note_on_c, 0, 62, 0
1, 41184, Note_on_c, 0, 59, 0
1, 41184, Note_on_c, 1, 41, 80
1, 41232, Note_on_c, 0, 74, 80
1, 41255, Note_on_c, 0, 74, 0
1, 41256, Note_on_c, 0, 72, 80
1, 41273, Note_on_c, 1, 41, 0
1, 41279, Note_on_c, 0, 72, 0
1, 41280, Note_on_c, 0, 71, 80
1, 41325, Note_on_c, 0, 71, 0
1, 41328, Note_on_c, 0, 71, 80
1, 41351, Note_on_c, 0, 71, 0
1, 41352, Note_on_c, 0, 69, 80
1, 41375, Note_on_c, 0, 69, 0
1, 41376, Note_on_c, 0, 67, 80
1, 41421, Note_on_c, 0, 67, 0
1, 41424, Note_on_c, 0, 67, 80
1, 41447, Note_on_c, 0, 67, 0
1, 41448, Note_on_c, 0, 65, 80
1, 41471, Note_on_c, 0, 65, 0
1, 41472, Note_on_c, 0, 72, 96
1, 41472, Note_on_c, 0, 67, 96
1, 41472, Note_on_c, 0, 64, 96
1, 41472, Note_on_c, 1, 40, 80
1, 41495, Note_on_c, 1, 40, 0
1, 41496, Note_on_c, 1, 43, 80
1, 41519, Note_on_c, 1, 43, 0
1, 41520, Note_on_c, 1, 48, 80
1, 41543, Note_on_c, 1, 48, 0
1, 41544, Note_on_c, 1, 52, 80
1, 41549, Note_on_c, 0, 72, 0
1, 41549, Note_on_c, 0, 67, 0
1, 41549, Note_on_c, 0, 64, 0
1, 41567, Note_on_c, 1, 52, 0
1, 41568, Note_on_c, 1, 40, 80
1, 41657, Note_on_c, 1, 40, 0
1, 41856, Note_on_c, 0, 74, 98
1, 41856, Note_on_c, 0, 69, 98
1, 41856, Note_on_c, 0, 65, 98
1, 41856, Note_on_c, 1, 41, 82
1, 41879, Note_on_c, 1, 41, 0
1, 41880, Note_on_c, 1, 45, 82
1, 41903, Note_on_c, 1, 45, 0
1, 41904, Note_on_c, 1, 50, 82
1, 41927, Note_on_c, 1, 50, 0
1, 41928, Note_on_c, 1, 53, 82
1, 41933, Note_on_c, 0, 74, 0
1, 41933, Note_on_c, 0, 69, 0
1, 41933, Note_on_c, 0, 65, 0
1, 41951, Note_on_c, 1, 53, 0
1, 41952, Note_on_c, 1, 41, 82
1, 42041, Note_on_c, 1, 41, 0
1, 42240, Note_on_c, 0, 75, 100
1, 42240, Note_on_c, 0, 72, 100
1, 42240, Note_on_c, 0, 69, 100
1, 42240, Note_on_c, 0, 65, 100
1, 42240, Note_on_c, 1, 41, 84
1, 42263, Note_on_c, 1, 41, 0
1, 42264, Note_on_c, 1, 45, 84
1, 42287, Note_on_c, 1, 45, 0
1, 42288, Note_on_c, 1, 48, 84
1, 42311, Note_on_c, 1, 48, 0
1, 42312, Note_on_c, 1, 51, 84
1, 42317, Note_on_c, 0, 75, 0
1, 42317, Note_on_c, 0, 72, 0
1, 42317, Note_on_c, 0, 69, 0
1, 42317, Note_on_c, 0, 65, 0
1, 42335, Note_on_c, 1, 51, 0
1, 42336, Note_on_c, 1, 41, 84
1, 42425, Note_on_c, 1, 41, 0
1, 42624, Note_on_c, 0, 76, 102
1, 42624, Note_on_c, 0, 71, 102
1, 42624, Note_on_c, 0, 68, 102
1, 42624, Note_on_c, 0, 64, 102
1, 42624, Note_on_c, 1, 52, 96
1, 42672, Note_on_c, 1, 52, 0
1, 42672, Note_on_c, 1, 40, 79
1, 42717, Note_on_c, 1, 40, 0
1, 42720, Note_on_c, 1, 52, 78
1, 42765, Note_on_c, 1, 52, 0
1, 42768, Note_on_c, 1, 52, 77
1, 42813, Note_on_c, 1, 52, 0
1, 42816, Note_on_c, 0, 76, 0
1, 42816, Note_on_c, 0, 71, 0
1, 42816, Note_on_c, 0, 68, 0
1, 42816, Note_on_c, 0, 64, 0
1, 42816, Note_on_c, 1, 52, 76
1, 42861, Note_on_c, 1, 52, 0
1, 42864, Note_on_c, 1, 40, 75
1, 42909, Note_on_c, 1, 40, 0
1, 42912, Note_on_c, 1, 52, 74
1, 42957, Note_on_c, 1, 52, 0
1, 42960, Note_on_c, 1, 52, 73
1, 43005, Note_on_c, 1, 52, 0
1, 43008, Note_on_c, 1, 52, 72
1, 43053, Note_on_c, 1, 52, 0
1, 43056, Note_on_c, 1, 40, 71
1, 43101, Note_on_c, 1, 40, 0
1, 43104, Note_on_c, 1, 52, 70
1, 43149, Note_on_c, 1, 52, 0
1, 43152, Note_on_c, 1, 52, 69
1, 43197, Note_on_c, 1, 52, 0
1, 43200, Note_on_c, 1, 52, 68
1, 43245, Note_on_c, 1, 52, 0
1, 43248, Note_on_c, 1, 40, 67
1, 43293, Note_on_c, 1, 40, 0
1, 43296, Note_on_c, 0, 64, 75
1, 43296, Note_on_c, 1, 52, 66
1, 43335, Note_on_c, 0, 64, 0
1, 43341, Note_on_c, 1, 52, 0
1, 43344, Note_on_c, 1, 52, 65
1, 43389, Note_on_c, 1, 52, 0
1, 43392, Note_on_c, 0, 69, 75
1, 43392, Note_on_c, 1, 53, 64
1, 43413, Note_on_c, 1, 53, 0
1, 43414, Note_on_c, 1, 52, 64
1, 43435, Note_on_c, 1, 52, 0
1, 43436, Note_on_c, 1, 53, 64
1, 43437, Note_on_c, 0, 69, 0
1, 43440, Note_on_c, 0, 72, 76
1, 43457, Note_on_c, 1, 53, 0
1, 43458, Note_on_c, 1, 52, 64
1, 43479, Note_on_c, 1, 52, 0
1, 43480, Note_on_c, 1, 53, 64
1, 43485, Note_on_c, 0, 72, 0
1, 43488, Note_on_c, 0, 71, 77
1, 43501, Note_on_c, 1, 53, 0
1, 43502, Note_on_c, 1, 52, 64
1, 43523, Note_on_c, 1, 52, 0
1, 43524, Note_on_c, 1, 53, 64
1, 43533, Note_on_c, 0, 71, 0
1, 43536, Note_on_c, 0, 69, 78
1, 43544, Note_on_c, 1, 53, 0
1, 43545, Note_on_c, 1, 52, 64
1, 43565, Note_on_c, 1, 52, 0
1, 43566, Note_on_c, 1, 53, 64
1, 43581, Note_on_c, 0, 69, 0
1, 43584, Note_on_c, 0, 68, 80
1, 43586, Note_on_c, 1, 53, 0
1, 43587, Note_on_c, 1, 52, 64
1, 43607, Note_on_c, 1, 52, 0
1, 43608, Note_on_c, 1, 53, 64
1, 43628, Note_on_c, 1, 53, 0
1, 43629, Note_on_c, 0, 68, 0
1, 43629, Note_on_c, 1, 52, 64
1, 43632, Note_on_c, 0, 71, 78
1, 43649, Note_on_c, 1, 52, 0
1, 43650, Note_on_c, 1, 53, 64
1, 43670, Note_on_c, 1, 53, 0
1, 43671, Note_on_c, 1, 52, 64
1, 43677, Note_on_c, 0, 71, 0
1, 43680, Note_on_c, 0, 69, 77
1, 43691, Note_on_c, 1, 52, 0
1, 43692, Note_on_c, 1, 53, 64
1, 43712, Note_on_c, 1, 53, 0
1, 43713, Note_on_c, 1, 52, 64
1, 43725, Note_on_c, 0, 69, 0
1, 43728, Note_on_c, 0, 68, 76
1, 43733, Note_on_c, 1, 52, 0
1, 43734, Note_on_c, 1, 53, 64
1, 43754, Note_on_c, 1, 53, 0
1, 43755, Note_on_c, 1, 52, 64
1, 43773, Note_on_c, 0, 68, 0
1, 43775, Note_on_c, 1, 52, 0
1, 43776, Note_on_c, 0, 69, 75
1, 43776, Note_on_c, 1, 53, 64
1, 43821, Note_on_c, 0, 69, 0
1, 43821, Note_on_c, 1, 53, 0
1, 43824, Note_on_c, 0, 72, 75
1, 43824, Note_on_c, 1, 64, 64
1, 43869, Note_on_c, 0, 72, 0
1, 43869, Note_on_c, 1, 64, 0
1, 43872, Note_on_c, 0, 71, 75
1, 43872, Note_on_c, 1, 62, 64
1, 43917, Note_on_c, 0, 71, 0
1, 43917, Note_on_c, 1, 62, 0
1, 43920, Note_on_c, 0, 69, 75
1, 43920, Note_on_c, 1, 60, 64
1, 43965, Note_on_c, 0, 69, 0
1, 43965, Note_on_c, 1, 60, 0
1, 43968, Note_on_c, 0, 71, 75
1, 43968, Note_on_c, 1, 62, 64
1, 44013, Note_on_c, 0, 71, 0
1, 44013, Note_on_c, 1, 62, 0
1, 44016, Note_on_c, 0, 69, 75
1, 44016, Note_on_c, 1, 60, 64
1, 44061, Note_on_c, 0, 69, 0
1, 44061, Note_on_c, 1, 60, 0
1, 44064, Note_on_c, 0, 68, 75
1, 44064, Note_on_c, 1, 59, 64
1, 44109, Note_on_c, 0, 68, 0
1, 44109, Note_on_c, 1, 59, 0
1, 44112, Note_on_c, 0, 71, 75
1, 44112, Note_on_c, 1, 62, 64
1, 44157, Note_on_c, 0, 71, 0
1, 44157, Note_on_c, 1, 62, 0
1, 44160, Note_on_c, 0, 69, 75
1, 44160, Note_on_c, 1, 60, 64
1, 44205, Note_on_c, 0, 69, 0
1, 44205, Note_on_c, 1, 60, 0
1, 44208, Note_on_c, 0, 76, 75
1, 44208, Note_on_c, 1, 60, 65
1, 44253, Note_on_c, 0, 76, 0
1, 44253, Note_on_c, 1, 60, 0
1, 44256, Note_on_c, 0, 74, 75
1, 44256, Note_on_c, 1, 59, 66
1, 44301, Note_on_c, 0, 74, 0
1, 44301, Note_on_c, 1, 59, 0
1, 44304, Note_on_c, 0, 72, 75
1, 44304, Note_on_c, 1, 57, 67
1, 44349, Note_on_c, 0, 72, 0
1, 44349, Note_on_c, 1, 57, 0
1, 44352, Note_on_c, 0, 71, 76
1, 44352, Note_on_c, 1, 56, 68
1, 44397, Note_on_c, 0, 71, 0
1, 44397, Note_on_c, 1, 56, 0
1, 44400, Note_on_c, 0, 74, 76
1, 44400, Note_on_c, 1, 59, 69
1, 44445, Note_on_c, 0, 74, 0
1, 44445, Note_on_c, 1, 59, 0
1, 44448, Note_on_c, 0, 72, 76
1, 44448, Note_on_c, 1, 57, 70
1, 44493, Note_on_c, 0, 72, 0
1, 44493, Note_on_c, 1, 57, 0
1, 44496, Note_on_c, 0, 71, 77
1, 44496, Note_on_c, 1, 56, 71
1, 44541, Note_on_c, 0, 71, 0
1, 44541, Note_on_c, 1, 56, 0
1, 44544, Note_on_c, 0, 72, 77
1, 44544, Note_on_c, 1, 57, 72
1, 44589, Note_on_c, 0, 72, 0
1, 44589, Note_on_c, 1, 57, 0
1, 44592, Note_on_c, 0, 76, 77
1, 44592, Note_on_c, 1, 60, 73
1, 44637, Note_on_c, 0, 76, 0
1, 44637, Note_on_c, 1, 60, 0
1, 44640, Note_on_c, 0, 74, 78
1, 44640, Note_on_c, 1, 59, 74
1, 44685, Note_on_c, 0, 74, 0
1, 44685, Note_on_c, 1, 59, 0
1, 44688, Note_on_c, 0, 72, 78
1, 44688, Note_on_c, 1, 57, 75
1, 44733, Note_on_c, 0, 72, 0
1, 44733, Note_on_c, 1, 57, 0
1, 44736, Note_on_c, 0, 74, 78
1, 44736, Note_on_c, 1, 59, 76
1, 44781, Note_on_c, 0, 74, 0
1, 44781, Note_on_c, 1, 59, 0
1, 44784, Note_on_c, 0, 77, 79
1, 44784, Note_on_c, 1, 62, 77
1, 44829, Note_on_c, 0, 77, 0
1, 44829, Note_on_c, 1, 62, 0
1, 44832, Note_on_c, 0, 76, 79
1, 44832, Note_on_c, 1, 60, 78
1, 44877, Note_on_c, 0, 76, 0
1, 44877, Note_on_c, 1, 60, 0
1, 44880, Note_on_c, 0, 74, 79
1, 44880, Note_on_c, 1, 59, 79
1, 44925, Note_on_c, 0, 74, 0
1, 44925, Note_on_c, 1, 59, 0
1, 44928, Note_on_c, 1, 60, 80
1, 44928, Note_on_c, 1, 55, 80
1, 44928, Note_on_c, 1, 52, 80
1, 44928, Note_on_c, 1, 48, 80
1, 44976, Note_on_c, 0, 79, 80
1, 44996, Note_on_c, 0, 79, 0
1, 45024, Note_on_c, 0, 79, 80
1, 45036, Note_on_c, 0, 79, 0
1, 45036, Note_on_c, 0, 81, 80
1, 45048, Note_on_c, 0, 81, 0
1, 45048, Note_on_c, 0, 79, 80
1, 45069, Note_on_c, 0, 79, 0
1, 45072, Note_on_c, 0, 78, 80
1, 45095, Note_on_c, 0, 78, 0
1, 45096, Note_on_c, 0, 79, 80
1, 45105, Note_on_c, 1, 60, 0
1, 45105, Note_on_c, 1, 55, 0
1, 45105, Note_on_c, 1, 52, 0
1, 45105, Note_on_c, 1, 48, 0
1, 45119, Note_on_c, 0, 79, 0
1, 45120, Note_on_c, 0, 84, 80
1, 45168, Note_on_c, 0, 84, 0
1, 45168, Note_on_c, 0, 79, 80
1, 45188, Note_on_c, 0, 79, 0
1, 45216, Note_on_c, 0, 79, 80
1, 45305, Note_on_c, 0, 79, 0
1, 45312, Note_on_c, 1, 55, 80
1, 45312, Note_on_c, 1, 52, 80
1, 45312, Note_on_c, 1, 48, 80
1, 45360, Note_on_c, 0, 67, 80
1, 45380, Note_on_c, 0, 67, 0
1, 45408, Note_on_c, 0, 67, 80
1, 45420, Note_on_c, 0, 67, 0
1, 45420, Note_on_c, 0, 69, 80
1, 45432, Note_on_c, 0, 69, 0
1, 45432, Note_on_c, 0, 67, 80
1, 45453, Note_on_c, 0, 67, 0
1, 45456, Note_on_c, 0, 66, 80
1, 45479, Note_on_c, 0, 66, 0
1, 45480, Note_on_c, 0, 67, 80
1, 45489, Note_on_c, 1, 55, 0
1, 45489, Note_on_c, 1, 52, 0
1, 45489, Note_on_c, 1, 48, 0
1, 45503, Note_on_c, 0, 67, 0
1, 45504, Note_on_c, 0, 72, 80
1, 45552, Note_on_c, 0, 72, 0
1, 45552, Note_on_c, 0, 67, 80
1, 45572, Note_on_c, 0, 67, 0
1, 45600, Note_on_c, 0, 67, 80
1, 45689, Note_on_c, 0, 67, 0
1, 45696, Note_on_c, 1, 53, 80
1, 45696, Note_on_c, 1, 48, 80
1, 45696, Note_on_c, 1, 45, 80
1, 45744, Note_on_c, 0, 77, 80
1, 45764, Note_on_c, 0, 77, 0
1, 45792, Note_on_c, 0, 77, 80
1, 45804, Note_on_c, 0, 77, 0
1, 45804, Note_on_c, 0, 79, 80
1, 45816, Note_on_c, 0, 79, 0
1, 45816, Note_on_c, 0, 77, 80
1, 45837, Note_on_c, 0, 77, 0
1, 45840, Note_on_c, 0, 76, 80
1, 45863, Note_on_c, 0, 76, 0
1, 45864, Note_on_c, 0, 77, 80
1, 45873, Note_on_c, 1, 53, 0
1, 45873, Note_on_c, 1, 48, 0
1, 45873, Note_on_c, 1, 45, 0
1, 45887, Note_on_c, 0, 77, 0
1, 45888, Note_on_c, 0, 84, 80
1, 45936, Note_on_c, 0, 84, 0
1, 45936, Note_on_c, 0, 77, 80
1, 45956, Note_on_c, 0, 77, 0
1, 45984, Note_on_c, 0, 77, 80
1, 46073, Note_on_c, 0, 77, 0
1, 46080, Note_on_c, 1, 50, 80
1, 46080, Note_on_c, 1, 47, 80
1, 46080, Note_on_c, 1, 44, 80
1, 46128, Note_on_c, 0, 77, 80
1, 46148, Note_on_c, 0, 77, 0
1, 46176, Note_on_c, 0, 77, 80
1, 46188, Note_on_c, 0, 77, 0
1, 46188, Note_on_c, 0, 79, 80
1, 46200, Note_on_c, 0, 79, 0
1, 46200, Note_on_c, 0, 77, 80
1, 46221, Note_on_c, 0, 77, 0
1, 46224, Note_on_c, 0, 76, 80
1, 46247, Note_on_c, 0, 76, 0
1, 46248, Note_on_c, 0, 77, 80
1, 46257, Note_on_c, 1, 50, 0
1, 46257, Note_on_c, 1, 47, 0
1, 46257, Note_on_c, 1, 44, 0
1, 46271, Note_on_c, 0, 77, 0
1, 46272, Note_on_c, 0, 86, 80
1, 46320, Note_on_c, 0, 86, 0
1, 46320, Note_on_c, 0, 77, 80
1, 46340, Note_on_c, 0, 77, 0
1, 46368, Note_on_c, 0, 77, 80
1, 46457, Note_on_c, 0, 77, 0
1, 46464, Note_on_c, 1, 52, 80
1, 46464, Note_on_c, 1, 48, 80
1, 46464, Note_on_c, 1, 45, 80
1, 46512, Note_on_c, 0, 76, 80
1, 46532, Note_on_c, 0, 76, 0
1, 46560, Note_on_c, 0, 76, 80
1, 46572, Note_on_c, 0, 76, 0
1, 46572, Note_on_c, 0, 77, 80
1, 46584, Note_on_c, 0, 77, 0
1, 46584, Note_on_c, 0, 76, 80
1, 46605, Note_on_c, 0, 76, 0
1, 46608, Note_on_c, 0, 75, 80
1, 46631, Note_on_c, 0, 75, 0
1, 46632, Note_on_c, 0, 76, 80
1, 46641, Note_on_c, 1, 52, 0
1, 46641, Note_on_c, 1, 48, 0
1, 46641, Note_on_c, 1, 45, 0
1, 46655, Note_on_c, 0, 76, 0
1, 46656, Note_on_c, 0, 84, 80
1, 46704, Note_on_c, 0, 84, 0
1, 46704, Note_on_c, 0, 76, 80
1, 46724, Note_on_c, 0, 76, 0
1, 46752, Note_on_c, 0, 76, 80
1, 46841, Note_on_c, 0, 76, 0
1, 46848, Note_on_c, 1, 52, 80
1, 46848, Note_on_c, 1, 48, 80
1, 46848, Note_on_c, 1, 43, 80
1, 46896, Note_on_c, 0, 76, 80
1, 46916, Note_on_c, 0, 76, 0
1, 46944, Note_on_c, 0, 76, 80
1, 46956, Note_on_c, 0, 76, 0
1, 46956, Note_on_c, 0, 77, 80
1, 46968, Note_on_c, 0, 77, 0
1, 46968, Note_on_c, 0, 76, 80
1, 46989, Note_on_c, 0, 76, 0
1, 46992, Note_on_c, 0, 75, 80
1, 47015, Note_on_c, 0, 75, 0
1, 47016, Note_on_c, 0, 76, 80
1, 47025, Note_on_c, 1, 52, 0
1, 47025, Note_on_c, 1, 48, 0
1, 47025, Note_on_c, 1, 43, 0
1, 47039, Note_on_c, 0, 76, 0
1, 47040, Note_on_c, 0, 84, 80
1, 47088, Note_on_c, 0, 84, 0
1, 47088, Note_on_c, 0, 76, 80
1, 47108, Note_on_c, 0, 76, 0
1, 47136, Note_on_c, 0, 76, 80
1, 47225, Note_on_c, 0, 76, 0
1, 47232, Note_on_c, 1, 50, 80
1, 47232, Note_on_c, 1, 45, 80
1, 47232, Note_on_c, 1, 42, 80
1, 47280, Note_on_c, 0, 74, 80
1, 47300, Note_on_c, 0, 74, 0
1, 47328, Note_on_c, 0, 74, 80
1, 47340, Note_on_c, 0, 74, 0
1, 47340, Note_on_c, 0, 76, 80
1, 47352, Note_on_c, 0, 76, 0
1, 47352, Note_on_c, 0, 74, 80
1, 47373, Note_on_c, 0, 74, 0
1, 47376, Note_on_c, 0, 73, 80
1, 47399, Note_on_c, 0, 73, 0
1, 47400, Note_on_c, 0, 74, 80
1, 47409, Note_on_c, 1, 50, 0
1, 47409, Note_on_c, 1, 45, 0
1, 47409, Note_on_c, 1, 42, 0
1, 47423, Note_on_c, 0, 74, 0
1, 47424, Note_on_c, 0, 81, 80
1, 47472, Note_on_c, 0, 81, 0
1, 47472, Note_on_c, 0, 74, 80
1, 47492, Note_on_c, 0, 74, 0
1, 47520, Note_on_c, 0, 74, 80
1, 47609, Note_on_c, 0, 74, 0
1, 47616, Note_on_c, 1, 45, 80
1, 47616, Note_on_c, 1, 42, 80
1, 47616, Note_on_c, 1, 38, 80
1, 47664, Note_on_c, 0, 72, 80
1, 47684, Note_on_c, 0, 72, 0
1, 47712, Note_on_c, 0, 72, 80
1, 47724, Note_on_c, 0, 72, 0
1, 47724, Note_on_c, 0, 74, 80
1, 47736, Note_on_c, 0, 74, 0
1, 47736, Note_on_c, 0, 72, 80
1, 47757, Note_on_c, 0, 72, 0
1, 47760, Note_on_c, 0, 71, 80
1, 47783, Note_on_c, 0, 71, 0
1, 47784, Note_on_c, 0, 72, 80
1, 47793, Note_on_c, 1, 45, 0
1, 47793, Note_on_c, 1, 42, 0
1, 47793, Note_on_c, 1, 38, 0
1, 47807, Note_on_c, 0, 72, 0
1, 47808, Note_on_c, 0, 81, 80
1, 47856, Note_on_c, 0, 81, 0
1, 47856, Note_on_c, 0, 72, 80
1, 47876, Note_on_c, 0, 72, 0
1, 47904, Note_on_c, 0, 72, 80
1, 47993, Note_on_c, 0, 72, 0
1, 48000, Note_on_c, 1, 50, 80
1, 48000, Note_on_c, 1, 47, 80
1, 48000, Note_on_c, 1, 43, 80
1, 48048, Note_on_c, 0, 71, 80
1, 48068, Note_on_c, 0, 71, 0
1, 48096, Note_on_c, 0, 71, 80
1, 48108, Note_on_c, 0, 71, 0
1, 48108, Note_on_c, 0, 72, 80
1, 48120, Note_on_c, 0, 72, 0
1, 48120, Note_on_c, 0, 71, 80
1, 48141, Note_on_c, 0, 71, 0
1, 48144, Note_on_c, 0, 69, 80
1, 48167, Note_on_c, 0, 69, 0
1, 48168, Note_on_c, 0, 71, 80
1, 48177, Note_on_c, 1, 50, 0
1, 48177, Note_on_c, 1, 47, 0
1, 48177, Note_on_c, 1, 43, 0
1, 48191, Note_on_c, 0, 71, 0
1, 48192, Note_on_c, 0, 79, 80
1, 48240, Note_on_c, 0, 79, 0
1, 48240, Note_on_c, 0, 71, 80
1, 48260, Note_on_c, 0, 71, 0
1, 48288, Note_on_c, 0, 71, 80
1, 48377, Note_on_c, 0, 71, 0
1, 48384, Note_on_c, 1, 49, 80
1, 48432, Note_on_c, 0, 67, 80
1, 48452, Note_on_c, 0, 67, 0
1, 48480, Note_on_c, 0, 67, 79
1, 48492, Note_on_c, 0, 67, 0
1, 48492, Note_on_c, 0, 69, 79
1, 48504, Note_on_c, 0, 69, 0
1, 48504, Note_on_c, 0, 67, 79
1, 48525, Note_on_c, 0, 67, 0
1, 48528, Note_on_c, 0, 66, 78
1, 48551, Note_on_c, 0, 66, 0
1, 48552, Note_on_c, 0, 67, 78
1, 48575, Note_on_c, 0, 67, 0
1, 48576, Note_on_c, 0, 76, 77
1, 48624, Note_on_c, 0, 76, 0
1, 48624, Note_on_c, 0, 67, 76
1, 48644, Note_on_c, 0, 67, 0
1, 48672, Note_on_c, 0, 67, 76
1, 48684, Note_on_c, 0, 67, 0
1, 48684, Note_on_c, 0, 69, 76
1, 48696, Note_on_c, 0, 69, 0
1, 48696, Note_on_c, 0, 67, 76
1, 48717, Note_on_c, 0, 67, 0
1, 48720, Note_on_c, 0, 66, 75
1, 48738, Note_on_c, 1, 49, 0
1, 48743, Note_on_c, 0, 66, 0
1, 48744, Note_on_c, 0, 67, 75
1, 48767, Note_on_c, 0, 67, 0
1, 48768, Note_on_c, 0, 67, 74
1, 48768, Note_on_c, 1, 50, 80
1, 48960, Note_on_c, 0, 67, 0
1, 48960, Note_on_c, 0, 66, 71
1, 49033, Note_on_c, 1, 50, 0
1, 49049, Note_on_c, 0, 66, 0
1, 49152, Note_on_c, 0, 74, 80
1, 49152, Note_on_c, 1, 62, 80
1, 49191, Note_on_c, 0, 74, 0
1, 49191, Note_on_c, 1, 62, 0
1, 49248, Note_on_c, 0, 74, 96
1, 49248, Note_on_c, 1, 62, 96
1, 49344, Note_on_c, 0, 74, 0
1, 49344, Note_on_c, 0, 74, 80
1, 49344, Note_on_c, 1, 62, 0
1, 49344, Note_on_c, 1, 62, 80
1, 49374, Note_on_c, 0, 74, 0
1, 49376, Note_on_c, 0, 78, 80
1, 49383, Note_on_c, 1, 62, 0
1, 49406, Note_on_c, 0, 78, 0
1, 49408, Note_on_c, 0, 81, 80
1, 49438, Note_on_c, 0, 81, 0
1, 49440, Note_on_c, 0, 72, 96
1, 49440, Note_on_c, 1, 60, 96
1, 49536, Note_on_c, 0, 72, 0
1, 49536, Note_on_c, 0, 72, 80
1, 49536, Note_on_c, 1, 60, 0
1, 49536, Note_on_c, 1, 60, 80
1, 49566, Note_on_c, 0, 72, 0
1, 49568, Note_on_c, 0, 78, 80
1, 49575, Note_on_c, 1, 60, 0
1, 49598, Note_on_c, 0, 78, 0
1, 49600, Note_on_c, 0, 81, 80
1, 49630, Note_on_c, 0, 81, 0
1, 49632, Note_on_c, 0, 71, 96
1, 49632, Note_on_c, 1, 59, 96
1, 49726, Note_on_c, 0, 71, 0
1, 49726, Note_on_c, 1, 59, 0
1, 50112, Note_on_c, 0, 71, 64
1, 50112, Note_on_c, 1, 59, 80
1, 50142, Note_on_c, 0, 71, 0
1, 50144, Note_on_c, 0, 76, 64
1, 50151, Note_on_c, 1, 59, 0
1, 50174, Note_on_c, 0, 76, 0
1, 50176, Note_on_c, 0, 79, 64
1, 50206, Note_on_c, 0, 79, 0
1, 50208, Note_on_c, 0, 71, 80
1, 50208, Note_on_c, 1, 59, 96
1, 50304, Note_on_c, 0, 71, 0
1, 50304, Note_on_c, 0, 71, 64
1, 50304, Note_on_c, 1, 59, 0
1, 50304, Note_on_c, 1, 59, 80
1, 50334, Note_on_c, 0, 71, 0
1, 50336, Note_on_c, 0, 76, 64
1, 50366, Note_on_c, 0, 76, 0
1, 50368, Note_on_c, 0, 79, 64
1, 50393, Note_on_c, 1, 59, 0
1, 50398, Note_on_c, 0, 79, 0
1, 50400, Note_on_c, 0, 70, 80
1, 50400, Note_on_c, 1, 58, 96
1, 50494, Note_on_c, 0, 70, 0
1, 50494, Note_on_c, 1, 58, 0
1, 50688, Note_on_c, 1, 47, 75
1, 50727, Note_on_c, 1, 47, 0
1, 50784, Note_on_c, 0, 64, 70
1, 50784, Note_on_c, 1, 52, 75
1, 50823, Note_on_c, 0, 64, 0
1, 50829, Note_on_c, 1, 52, 0
1, 50832, Note_on_c, 1, 55, 75
1, 50877, Note_on_c, 1, 55, 0
1, 50880, Note_on_c, 0, 67, 71
1, 50880, Note_on_c, 1, 54, 75
1, 50919, Note_on_c, 0, 67, 0
1, 50925, Note_on_c, 1, 54, 0
1, 50928, Note_on_c, 1, 52, 75
1, 50973, Note_on_c, 1, 52, 0
1, 50976, Note_on_c, 0, 66, 72
1, 50976, Note_on_c, 1, 51, 75
1, 51015, Note_on_c, 0, 66, 0
1, 51021, Note_on_c, 1, 51, 0
1, 51024, Note_on_c, 1, 54, 75
1, 51069, Note_on_c, 1, 54, 0
1, 51072, Note_on_c, 0, 69, 73
1, 51072, Note_on_c, 1, 52, 75
1, 51111, Note_on_c, 0, 69, 0
1, 51117, Note_on_c, 1, 52, 0
1, 51120, Note_on_c, 1, 51, 75
1, 51165, Note_on_c, 1, 51, 0
1, 51168, Note_on_c, 0, 67, 75
1, 51168, Note_on_c, 1, 52, 75
1, 51213, Note_on_c, 0, 67, 0
1, 51216, Note_on_c, 0, 83, 74
1, 51236, Note_on_c, 0, 83, 0
1, 51257, Note_on_c, 1, 52, 0
1, 51264, Note_on_c, 0, 81, 73
1, 51264, Note_on_c, 1, 47, 75
1, 51284, Note_on_c, 0, 81, 0
1, 51312, Note_on_c, 0, 79, 73
1, 51332, Note_on_c, 0, 79, 0
1, 51353, Note_on_c, 1, 47, 0
1, 51360, Note_on_c, 0, 78, 72
1, 51380, Note_on_c, 0, 78, 0
1, 51408, Note_on_c, 0, 76, 71
1, 51428, Note_on_c, 0, 76, 0
1, 51456, Note_on_c, 0, 75, 71
1, 51456, Note_on_c, 1, 47, 75
1, 51495, Note_on_c, 1, 47, 0
1, 51504, Note_on_c, 0, 75, 0
1, 51504, Note_on_c, 0, 76, 70
1, 51549, Note_on_c, 0, 76, 0
1, 51552, Note_on_c, 0, 71, 75
1, 51552, Note_on_c, 1, 52, 75
1, 51591, Note_on_c, 1, 52, 0
1, 51597, Note_on_c, 0, 71, 0
1, 51600, Note_on_c, 0, 79, 75
1, 51645, Note_on_c, 0, 79, 0
1, 51648, Note_on_c, 0, 78, 75
1, 51648, Note_on_c, 1, 55, 75
1, 51687, Note_on_c, 1, 55, 0
1, 51693, Note_on_c, 0, 78, 0
1, 51696, Note_on_c, 0, 76, 75
1, 51741, Note_on_c, 0, 76, 0
1, 51744, Note_on_c, 0, 75, 76
1, 51744, Note_on_c, 1, 54, 75
1, 51783, Note_on_c, 1, 54, 0
1, 51789, Note_on_c, 0, 75, 0
1, 51792, Note_on_c, 0, 78, 76
1, 51837, Note_on_c, 0, 78, 0
1, 51840, Note_on_c, 0, 76, 76
1, 51840, Note_on_c, 1, 57, 75
1, 51879, Note_on_c, 1, 57, 0
1, 51885, Note_on_c, 0, 76, 0
1, 51888, Note_on_c, 0, 75, 77
1, 51933, Note_on_c, 0, 75, 0
1, 51936, Note_on_c, 0, 76, 77
1, 51936, Note_on_c, 1, 55, 75
1, 51981, Note_on_c, 0, 76, 0
1, 51981, Note_on_c, 1, 55, 0
1, 51984, Note_on_c, 0, 83, 77
1, 51984, Note_on_c, 1, 67, 75
1, 52029, Note_on_c, 0, 83, 0
1, 52029, Note_on_c, 1, 67, 0
1, 52032, Note_on_c, 0, 81, 78
1, 52032, Note_on_c, 1, 66, 75
1, 52077, Note_on_c, 0, 81, 0
1, 52077, Note_on_c, 1, 66, 0
1, 52080, Note_on_c, 0, 79, 78
1, 52080, Note_on_c, 1, 64, 75
1, 52125, Note_on_c, 0, 79, 0
1, 52125, Note_on_c, 1, 64, 0
1, 52128, Note_on_c, 0, 78, 78
1, 52128, Note_on_c, 1, 63, 75
1, 52173, Note_on_c, 0, 78, 0
1, 52176, Note_on_c, 0, 76, 79
1, 52217, Note_on_c, 1, 63, 0
1, 52221, Note_on_c, 0, 76, 0
1, 52224, Note_on_c, 0, 75, 79
1, 52224, Note_on_c, 1, 59, 75
1, 52269, Note_on_c, 0, 75, 0
1, 52272, Note_on_c, 0, 76, 75
1, 52313, Note_on_c, 1, 59, 0
1, 52317, Note_on_c, 0, 76, 0
1, 52320, Note_on_c, 0, 72, 75
1, 52320, Note_on_c, 1, 57, 70
1, 52332, Note_on_c, 0, 72, 0
1, 52332, Note_on_c, 0, 74, 75
1, 52344, Note_on_c, 0, 74, 0
1, 52344, Note_on_c, 0, 72, 75
1, 52359, Note_on_c, 1, 57, 0
1, 52365, Note_on_c, 0, 72, 0
1, 52368, Note_on_c, 0, 71, 75
1, 52413, Note_on_c, 0, 71, 0
1, 52416, Note_on_c, 0, 72, 76
1, 52416, Note_on_c, 1, 55, 70
1, 52436, Note_on_c, 0, 72, 0
1, 52455, Note_on_c, 1, 55, 0
1, 52464, Note_on_c, 0, 72, 77
1, 52484, Note_on_c, 0, 72, 0
1, 52512, Note_on_c, 0, 72, 78
1, 52512, Note_on_c, 1, 54, 70
1, 52524, Note_on_c, 0, 72, 0
1, 52524, Note_on_c, 0, 74, 78
1, 52536, Note_on_c, 0, 74, 0
1, 52536, Note_on_c, 0, 72, 78
1, 52551, Note_on_c, 1, 54, 0
1, 52557, Note_on_c, 0, 72, 0
1, 52560, Note_on_c, 0, 71, 79
1, 52605, Note_on_c, 0, 71, 0
1, 52608, Note_on_c, 0, 72, 80
1, 52608, Note_on_c, 1, 52, 70
1, 52628, Note_on_c, 0, 72, 0
1, 52647, Note_on_c, 1, 52, 0
1, 52656, Note_on_c, 0, 72, 80
1, 52676, Note_on_c, 0, 72, 0
1, 52704, Note_on_c, 0, 81, 80
1, 52704, Note_on_c, 1, 50, 70
1, 52891, Note_on_c, 0, 81, 0
1, 52891, Note_on_c, 1, 50, 0
1, 52992, Note_on_c, 0, 72, 80
1, 53004, Note_on_c, 0, 72, 0
1, 53004, Note_on_c, 0, 74, 80
1, 53016, Note_on_c, 0, 74, 0
1, 53016, Note_on_c, 0, 72, 80
1, 53081, Note_on_c, 0, 72, 0
1, 53088, Note_on_c, 0, 71, 75
1, 53088, Note_on_c, 1, 55, 70
1, 53100, Note_on_c, 0, 71, 0
1, 53100, Note_on_c, 0, 72, 75
1, 53112, Note_on_c, 0, 72, 0
1, 53112, Note_on_c, 0, 71, 75
1, 53127, Note_on_c, 1, 55, 0
1, 53133, Note_on_c, 0, 71, 0
1, 53136, Note_on_c, 0, 69, 75
1, 53181, Note_on_c, 0, 69, 0
1, 53184, Note_on_c, 0, 71, 76
1, 53184, Note_on_c, 1, 54, 70
1, 53204, Note_on_c, 0, 71, 0
1, 53223, Note_on_c, 1, 54, 0
1, 53232, Note_on_c, 0, 71, 76
1, 53252, Note_on_c, 0, 71, 0
1, 53280, Note_on_c, 0, 71, 77
1, 53280, Note_on_c, 1, 52, 70
1, 53292, Note_on_c, 0, 71, 0
1, 53292, Note_on_c, 0, 72, 77
1, 53304, Note_on_c, 0, 72, 0
1, 53304, Note_on_c, 0, 71, 77
1, 53319, Note_on_c, 1, 52, 0
1, 53325, Note_on_c, 0, 71, 0
1, 53328, Note_on_c, 0, 69, 78
1, 53373, Note_on_c, 0, 69, 0
1, 53376, Note_on_c, 0, 71, 78
1, 53376, Note_on_c, 1, 50, 70
1, 53396, Note_on_c, 0, 71, 0
1, 53415, Note_on_c, 1, 50, 0
1, 53424, Note_on_c, 0, 71, 79
1, 53444, Note_on_c, 0, 71, 0
1, 53472, Note_on_c, 0, 79, 80
1, 53472, Note_on_c, 1, 48, 70
1, 53659, Note_on_c, 0, 79, 0
1, 53659, Note_on_c, 1, 48, 0
1, 53760, Note_on_c, 0, 71, 80
1, 53772, Note_on_c, 0, 71, 0
1, 53772, Note_on_c, 0, 72, 80
1, 53784, Note_on_c, 0, 72, 0
1, 53784, Note_on_c, 0, 71, 80
1, 53849, Note_on_c, 0, 71, 0
1, 53856, Note_on_c, 0, 69, 75
1, 53856, Note_on_c, 1, 54, 70
1, 53868, Note_on_c, 0, 69, 0
1, 53868, Note_on_c, 0, 71, 75
1, 53880, Note_on_c, 0, 71, 0
1, 53880, Note_on_c, 0, 69, 75
1, 53895, Note_on_c, 1, 54, 0
1, 53901, Note_on_c, 0, 69, 0
1, 53904, Note_on_c, 0, 67, 75
1, 53949, Note_on_c, 0, 67, 0
1, 53952, Note_on_c, 0, 69, 76
1, 53952, Note_on_c, 1, 52, 70
1, 53972, Note_on_c, 0, 69, 0
1, 53991, Note_on_c, 1, 52, 0
1, 54000, Note_on_c, 0, 69, 76
1, 54020, Note_on_c, 0, 69, 0
1, 54048, Note_on_c, 0, 69, 77
1, 54048, Note_on_c, 1, 51, 70
1, 54060, Note_on_c, 0, 69, 0
1, 54060, Note_on_c, 0, 71, 77
1, 54072, Note_on_c, 0, 71, 0
1, 54072, Note_on_c, 0, 69, 77
1, 54087, Note_on_c, 1, 51, 0
1, 54093, Note_on_c, 0, 69, 0
1, 54096, Note_on_c, 0, 67, 78
1, 54141, Note_on_c, 0, 67, 0
1, 54144, Note_on_c, 0, 69, 78
1, 54144, Note_on_c, 1, 49, 70
1, 54164, Note_on_c, 0, 69, 0
1, 54183, Note_on_c, 1, 49, 0
1, 54192, Note_on_c, 0, 69, 79
1, 54212, Note_on_c, 0, 69, 0
1, 54240, Note_on_c, 0, 78, 80
1, 54240, Note_on_c, 1, 47, 70
1, 54245, Note_on_c, 1, 51, 70
1, 54250, Note_on_c, 1, 54, 70
1, 54255, Note_on_c, 1, 59, 70
1, 54285, Note_on_c, 0, 78, 0
1, 54288, Note_on_c, 0, 76, 79
1, 54333, Note_on_c, 0, 76, 0
1, 54336, Note_on_c, 0, 75, 78
1, 54381, Note_on_c, 0, 75, 0
1, 54384, Note_on_c, 0, 76, 78
1, 54428, Note_on_c, 1, 59, 0
1, 54428, Note_on_c, 1, 54, 0
1, 54428, Note_on_c, 1, 51, 0
1, 54428, Note_on_c, 1, 47, 0
1, 54429, Note_on_c, 0, 76, 0
1, 54432, Note_on_c, 0, 78, 77
1, 54477, Note_on_c, 0, 78, 0
1, 54480, Note_on_c, 0, 71, 76
1, 54480, Note_on_c, 1, 59, 70
1, 54525, Note_on_c, 0, 71, 0
1, 54525, Note_on_c, 1, 59, 0
1, 54528, Note_on_c, 0, 72, 76
1, 54528, Note_on_c, 1, 60, 70
1, 54573, Note_on_c, 0, 72, 0
1, 54573, Note_on_c, 1, 60, 0
1, 54576, Note_on_c, 0, 71, 75
1, 54576, Note_on_c, 1, 59, 70
1, 54621, Note_on_c, 0, 71, 0
1, 54621, Note_on_c, 1, 59, 0
1, 54624, Note_on_c, 0, 69, 75
1, 54624, Note_on_c, 1, 57, 70
1, 54669, Note_on_c, 0, 69, 0
1, 54669, Note_on_c, 1, 57, 0
1, 54672, Note_on_c, 0, 67, 75
1, 54672, Note_on_c, 1, 55, 70
1, 54717, Note_on_c, 0, 67, 0
1, 54717, Note_on_c, 1, 55, 0
1, 54720, Note_on_c, 0, 66, 75
1, 54720, Note_on_c, 1, 54, 70
1, 54765, Note_on_c, 0, 66, 0
1, 54765, Note_on_c, 1, 54, 0
1, 54768, Note_on_c, 0, 64, 75
1, 54768, Note_on_c, 1, 52, 70
1, 54813, Note_on_c, 0, 64, 0
1, 54813, Note_on_c, 1, 52, 0
1, 54816, Note_on_c, 0, 63, 75
1, 54816, Note_on_c, 1, 51, 70
1, 54861, Note_on_c, 0, 63, 0
1, 54861, Note_on_c, 1, 51, 0
1, 54864, Note_on_c, 0, 60, 75
1, 54864, Note_on_c, 1, 48, 70
1, 54909, Note_on_c, 0, 60, 0
1, 54909, Note_on_c, 1, 48, 0
1, 54912, Note_on_c, 0, 59, 75
1, 54912, Note_on_c, 1, 47, 70
1, 54957, Note_on_c, 0, 59, 0
1, 54957, Note_on_c, 1, 47, 0
1, 54960, Note_on_c, 0, 57, 75
1, 54960, Note_on_c, 1, 45, 70
1, 55005, Note_on_c, 0, 57, 0
1, 55005, Note_on_c, 1, 45, 0
1, 55008, Note_on_c, 0, 55, 75
1, 55008, Note_on_c, 1, 43, 70
1, 55028, Note_on_c, 0, 55, 0
1, 55028, Note_on_c, 1, 43, 0
1, 55056, Note_on_c, 0, 59, 75
1, 55056, Note_on_c, 1, 47, 70
1, 55101, Note_on_c, 0, 59, 0
1, 55101, Note_on_c, 1, 47, 0
1, 55104, Note_on_c, 0, 60, 75
1, 55104, Note_on_c, 1, 48, 70
1, 55149, Note_on_c, 0, 60, 0
1, 55149, Note_on_c, 1, 48, 0
1, 55152, Note_on_c, 0, 59, 75
1, 55152, Note_on_c, 1, 47, 70
1, 55197, Note_on_c, 0, 59, 0
1, 55197, Note_on_c, 1, 47, 0
1, 55200, Note_on_c, 0, 57, 76
1, 55200, Note_on_c, 1, 45, 71
1, 55245, Note_on_c, 0, 57, 0
1, 55245, Note_on_c, 1, 45, 0
1, 55248, Note_on_c, 0, 55, 76
1, 55248, Note_on_c, 1, 43, 71
1, 55293, Note_on_c, 0, 55, 0
1, 55293, Note_on_c, 1, 43, 0
1, 55296, Note_on_c, 0, 54, 76
1, 55296, Note_on_c, 1, 42, 71
1, 55341, Note_on_c, 0, 54, 0
1, 55341, Note_on_c, 1, 42, 0
1, 55344, Note_on_c, 0, 52, 77
1, 55344, Note_on_c, 1, 40, 72
1, 55389, Note_on_c, 0, 52, 0
1, 55389, Note_on_c, 1, 40, 0
1, 55392, Note_on_c, 0, 51, 77
1, 55392, Note_on_c, 1, 39, 72
1, 55412, Note_on_c, 0, 51, 0
1, 55412, Note_on_c, 1, 39, 0
1, 55440, Note_on_c, 0, 60, 77
1, 55440, Note_on_c, 1, 48, 72
1, 55485, Note_on_c, 0, 60, 0
1, 55485, Note_on_c, 1, 48, 0
1, 55488, Note_on_c, 0, 59, 78
1, 55488, Note_on_c, 1, 47, 73
1, 55533, Note_on_c, 0, 59, 0
1, 55533, Note_on_c, 1, 47, 0
1, 55536, Note_on_c, 0, 57, 78
1, 55536, Note_on_c, 1, 45, 73
1, 55581, Note_on_c, 0, 57, 0
1, 55581, Note_on_c, 1, 45, 0
1, 55584, Note_on_c, 0, 59, 78
1, 55584, Note_on_c, 1, 47, 73
1, 55623, Note_on_c, 0, 59, 0
1, 55623, Note_on_c, 1, 47, 0
1, 55680, Note_on_c, 0, 59, 95
1, 55680, Note_on_c, 1, 54, 90
1, 55680, Note_on_c, 1, 51, 90
1, 55680, Note_on_c, 1, 47, 90
1, 55719, Note_on_c, 0, 59, 0
1, 55719, Note_on_c, 1, 54, 0
1, 55719, Note_on_c, 1, 51, 0
1, 55719, Note_on_c, 1, 47, 0
1, 55776, Note_on_c, 0, 59, 97
1, 55776, Note_on_c, 0, 55, 97
1, 55776, Note_on_c, 0, 52, 97
1, 55776, Note_on_c, 1, 47, 75
1, 55776, Note_on_c, 1, 43, 75
1, 55776, Note_on_c, 1, 40, 75
1, 56041, Note_on_c, 0, 59, 0
1, 56041, Note_on_c, 0, 55, 0
1, 56041, Note_on_c, 0, 52, 0
1, 56041, Note_on_c, 1, 47, 0
1, 56041, Note_on_c, 1, 43, 0
1, 56041, Note_on_c, 1, 40, 0
1, 56160, Note_on_c, 1, 62, 75
1, 56160, Note_on_c, 1, 59, 75
1, 56160, Note_on_c, 1, 55, 75
1, 56208, Note_on_c, 0, 74, 80
1, 56228, Note_on_c, 0, 74, 0
1, 56256, Note_on_c, 0, 74, 80
1, 56268, Note_on_c, 0, 74, 0
1, 56268, Note_on_c, 0, 76, 80
1, 56280, Note_on_c, 0, 76, 0
1, 56280, Note_on_c, 0, 74, 80
1, 56301, Note_on_c, 0, 74, 0
1, 56304, Note_on_c, 0, 73, 80
1, 56327, Note_on_c, 0, 73, 0
1, 56328, Note_on_c, 0, 74, 80
1, 56337, Note_on_c, 1, 62, 0
1, 56337, Note_on_c, 1, 59, 0
1, 56337, Note_on_c, 1, 55, 0
1, 56351, Note_on_c, 0, 74, 0
1, 56352, Note_on_c, 0, 79, 80
1, 56400, Note_on_c, 0, 79, 0
1, 56400, Note_on_c, 0, 74, 80
1, 56420, Note_on_c, 0, 74, 0
1, 56448, Note_on_c, 0, 74, 80
1, 56537, Note_on_c, 0, 74, 0
1, 56544, Note_on_c, 1, 62, 75
1, 56544, Note_on_c, 1, 57, 75
1, 56544, Note_on_c, 1, 54, 75
1, 56592, Note_on_c, 0, 74, 80
1, 56612, Note_on_c, 0, 74, 0
1, 56640, Note_on_c, 0, 74, 80
1, 56652, Note_on_c, 0, 74, 0
1, 56652, Note_on_c, 0, 76, 80
1, 56664, Note_on_c, 0, 76, 0
1, 56664, Note_on_c, 0, 74, 80
1, 56685, Note_on_c, 0, 74, 0
1, 56688, Note_on_c, 0, 73, 80
1, 56711, Note_on_c, 0, 73, 0
1, 56712, Note_on_c, 0, 74, 80
1, 56721, Note_on_c, 1, 62, 0
1, 56721, Note_on_c, 1, 57, 0
1, 56721, Note_on_c, 1, 54, 0
1, 56735, Note_on_c, 0, 74, 0
1, 56736, Note_on_c, 0, 81, 80
1, 56784, Note_on_c, 0, 81, 0
1, 56784, Note_on_c, 0, 74, 80
1, 56804, Note_on_c, 0, 74, 0
1, 56832, Note_on_c, 0, 74, 80
1, 56921, Note_on_c, 0, 74, 0
1, 56928, Note_on_c, 0, 83, 80
1, 56928, Note_on_c, 1, 43, 75
1, 56973, Note_on_c, 0, 83, 0
1, 56976, Note_on_c, 0, 84, 80
1, 57017, Note_on_c, 1, 43, 0
1, 57021, Note_on_c, 0, 84, 0
1, 57024, Note_on_c, 0, 86, 80
1, 57024, Note_on_c, 1, 55, 75
1, 57069, Note_on_c, 0, 86, 0
1, 57072, Note_on_c, 0, 83, 80
1, 57113, Note_on_c, 1, 55, 0
1, 57117, Note_on_c, 0, 83, 0
1, 57120, Note_on_c, 0, 79, 80
1, 57165, Note_on_c, 0, 79, 0
1, 57168, Note_on_c, 0, 81, 80
1, 57168, Note_on_c, 1, 72, 75
1, 57213, Note_on_c, 0, 81, 0
1, 57213, Note_on_c, 1, 72, 0
1, 57216, Note_on_c, 0, 83, 80
1, 57216, Note_on_c, 1, 74, 75
1, 57261, Note_on_c, 0, 83, 0
1, 57261, Note_on_c, 1, 74, 0
1, 57264, Note_on_c, 0, 79, 80
1, 57264, Note_on_c, 1, 71, 75
1, 57309, Note_on_c, 0, 79, 0
1, 57309, Note_on_c, 1, 71, 0
1, 57312, Note_on_c, 0, 76, 80
1, 57312, Note_on_c, 1, 67, 75
1, 57357, Note_on_c, 0, 76, 0
1, 57357, Note_on_c, 1, 67, 0
1, 57360, Note_on_c, 0, 78, 80
1, 57360, Note_on_c, 1, 69, 75
1, 57405, Note_on_c, 0, 78, 0
1, 57405, Note_on_c, 1, 69, 0
1, 57408, Note_on_c, 0, 79, 80
1, 57408, Note_on_c, 1, 71, 75
1, 57453, Note_on_c, 0, 79, 0
1, 57453, Note_on_c, 1, 71, 0
1, 57456, Note_on_c, 0, 76, 80
1, 57456, Note_on_c, 1, 67, 75
1, 57501, Note_on_c, 0, 76, 0
1, 57501, Note_on_c, 1, 67, 0
1, 57504, Note_on_c, 0, 72, 80
1, 57504, Note_on_c, 1, 64, 75
1, 57549, Note_on_c, 0, 72, 0
1, 57549, Note_on_c, 1, 64, 0
1, 57552, Note_on_c, 0, 74, 80
1, 57552, Note_on_c, 1, 66, 75
1, 57597, Note_on_c, 0, 74, 0
1, 57597, Note_on_c, 1, 66, 0
1, 57600, Note_on_c, 0, 76, 80
1, 57600, Note_on_c, 1, 67, 75
1, 57645, Note_on_c, 0, 76, 0
1, 57645, Note_on_c, 1, 67, 0
1, 57648, Note_on_c, 0, 72, 80
1, 57648, Note_on_c, 1, 64, 75
1, 57693, Note_on_c, 0, 72, 0
1, 57693, Note_on_c, 1, 64, 0
1, 57696, Note_on_c, 1, 60, 75
1, 57744, Note_on_c, 0, 84, 80
1, 57767, Note_on_c, 0, 84, 0
1, 57768, Note_on_c, 0, 86, 80
1, 57791, Note_on_c, 0, 86, 0
1, 57792, Note_on_c, 0, 88, 80
1, 57837, Note_on_c, 0, 88, 0
1, 57840, Note_on_c, 0, 84, 80
1, 57873, Note_on_c, 1, 60, 0
1, 57885, Note_on_c, 0, 84, 0
1, 57888, Note_on_c, 0, 81, 80
1, 57933, Note_on_c, 0, 81, 0
1, 57936, Note_on_c, 0, 81, 80
1, 57936, Note_on_c, 1, 72, 75
1, 57959, Note_on_c, 0, 81, 0
1, 57959, Note_on_c, 1, 72, 0
1, 57960, Note_on_c, 0, 83, 80
1, 57960, Note_on_c, 1, 74, 75
1, 57983, Note_on_c, 0, 83, 0
1, 57983, Note_on_c, 1, 74, 0
1, 57984, Note_on_c, 0, 84, 80
1, 57984, Note_on_c, 1, 76, 75
1, 58029, Note_on_c, 0, 84, 0
1, 58029, Note_on_c, 1, 76, 0
1, 58032, Note_on_c, 0, 81, 80
1, 58032, Note_on_c, 1, 72, 75
1, 58077, Note_on_c, 0, 81, 0
1, 58077, Note_on_c, 1, 72, 0
1, 58080, Note_on_c, 0, 78, 80
1, 58080, Note_on_c, 1, 69, 75
1, 58125, Note_on_c, 0, 78, 0
1, 58125, Note_on_c, 1, 69, 0
1, 58128, Note_on_c, 0, 78, 80
1, 58128, Note_on_c, 1, 69, 75
1, 58151, Note_on_c, 0, 78, 0
1, 58151, Note_on_c, 1, 69, 0
1, 58152, Note_on_c, 0, 79, 80
1, 58152, Note_on_c, 1, 71, 75
1, 58175, Note_on_c, 0, 79, 0
1, 58175, Note_on_c, 1, 71, 0
1, 58176, Note_on_c, 0, 81, 80
1, 58176, Note_on_c, 1, 72, 75
1, 58221, Note_on_c, 0, 81, 0
1, 58221, Note_on_c, 1, 72, 0
1, 58224, Note_on_c, 0, 78, 80
1, 58224, Note_on_c, 1, 69, 75
1, 58269, Note_on_c, 0, 78, 0
1, 58269, Note_on_c, 1, 69, 0
1, 58272, Note_on_c, 0, 75, 80
1, 58272, Note_on_c, 1, 66, 75
1, 58317, Note_on_c, 0, 75, 0
1, 58317, Note_on_c, 1, 66, 0
1, 58320, Note_on_c, 0, 75, 80
1, 58320, Note_on_c, 1, 66, 75
1, 58343, Note_on_c, 0, 75, 0
1, 58343, Note_on_c, 1, 66, 0
1, 58344, Note_on_c, 0, 76, 80
1, 58344, Note_on_c, 1, 67, 75
1, 58367, Note_on_c, 0, 76, 0
1, 58367, Note_on_c, 1, 67, 0
1, 58368, Note_on_c, 0, 78, 80
1, 58368, Note_on_c, 1, 69, 75
1, 58413, Note_on_c, 0, 78, 0
1, 58413, Note_on_c, 1, 69, 0
1, 58416, Note_on_c, 0, 75, 80
1, 58416, Note_on_c, 1, 66, 75
1, 58461, Note_on_c, 0, 75, 0
1, 58461, Note_on_c, 1, 66, 0
1, 58464, Note_on_c, 0, 76, 80
1, 58464, Note_on_c, 1, 67, 75
1, 58509, Note_on_c, 0, 76, 0
1, 58512, Note_on_c, 0, 71, 80
1, 58553, Note_on_c, 1, 67, 0
1, 58557, Note_on_c, 0, 71, 0
1, 58560, Note_on_c, 0, 79, 80
1, 58560, Note_on_c, 1, 40, 75
1, 58605, Note_on_c, 0, 79, 0
1, 58608, Note_on_c, 0, 71, 80
1, 58649, Note_on_c, 1, 40, 0
1, 58653, Note_on_c, 0, 71, 0
1, 58656, Note_on_c, 0, 76, 80
1, 58701, Note_on_c, 0, 76, 0
1, 58704, Note_on_c, 0, 71, 80
1, 58749, Note_on_c, 0, 71, 0
1, 58752, Note_on_c, 0, 83, 96
1, 58752, Note_on_c, 1, 52, 75
1, 58791, Note_on_c, 1, 52, 0
1, 58800, Note_on_c, 0, 83, 0
1, 58800, Note_on_c, 0, 71, 80
1, 58845, Note_on_c, 0, 71, 0
1, 58848, Note_on_c, 0, 75, 80
1, 58848, Note_on_c, 1, 47, 75
1, 58887, Note_on_c, 1, 47, 0
1, 58893, Note_on_c, 0, 75, 0
1, 58896, Note_on_c, 0, 71, 80
1, 58941, Note_on_c, 0, 71, 0
1, 58944, Note_on_c, 0, 78, 80
1, 58944, Note_on_c, 1, 59, 75
1, 58983, Note_on_c, 1, 59, 0
1, 58989, Note_on_c, 0, 78, 0
1, 58992, Note_on_c, 0, 71, 80
1, 59037, Note_on_c, 0, 71, 0
1, 59040, Note_on_c, 0, 75, 80
1, 59085, Note_on_c, 0, 75, 0
1, 59088, Note_on_c, 0, 71, 80
1, 59133, Note_on_c, 0, 71, 0
1, 59136, Note_on_c, 0, 81, 96
1, 59136, Note_on_c, 1, 51, 75
1, 59175, Note_on_c, 1, 51, 0
1, 59184, Note_on_c, 0, 81, 0
1, 59184, Note_on_c, 0, 78, 80
1, 59229, Note_on_c, 0, 78, 0
1, 59232, Note_on_c, 0, 79, 80
1, 59232, Note_on_c, 1, 52, 75
1, 59271, Note_on_c, 1, 52, 0
1, 59277, Note_on_c, 0, 79, 0
1, 59280, Note_on_c, 0, 76, 80
1, 59325, Note_on_c, 0, 76, 0
1, 59328, Note_on_c, 0, 83, 80
1, 59328, Note_on_c, 1, 40, 75
1, 59367, Note_on_c, 1, 40, 0
1, 59373, Note_on_c, 0, 83, 0
1, 59376, Note_on_c, 0, 76, 80
1, 59421, Note_on_c, 0, 76, 0
1, 59424, Note_on_c, 0, 79, 80
1, 59469, Note_on_c, 0, 79, 0
1, 59472, Note_on_c, 0, 76, 80
1, 59517, Note_on_c, 0, 76, 0
1, 59520, Note_on_c, 0, 88, 96
1, 59520, Note_on_c, 1, 52, 75
1, 59559, Note_on_c, 1, 52, 0
1, 59568, Note_on_c, 0, 88, 0
1, 59568, Note_on_c, 0, 76, 80
1, 59613, Note_on_c, 0, 76, 0
1, 59616, Note_on_c, 0, 80, 80
1, 59616, Note_on_c, 1, 50, 75
1, 59655, Note_on_c, 1, 50, 0
1, 59661, Note_on_c, 0, 80, 0
1, 59664, Note_on_c, 0, 76, 80
1, 59709, Note_on_c, 0, 76, 0
1, 59712, Note_on_c, 0, 83, 80
1, 59712, Note_on_c, 1, 56, 75
1, 59751, Note_on_c, 1, 56, 0
1, 59757, Note_on_c, 0, 83, 0
1, 59760, Note_on_c, 0, 76, 80
1, 59805, Note_on_c, 0, 76, 0
1, 59808, Note_on_c, 0, 80, 80
1, 59853, Note_on_c, 0, 80, 0
1, 59856, Note_on_c, 0, 76, 80
1, 59901, Note_on_c, 0, 76, 0
1, 59904, Note_on_c, 0, 86, 80
1, 59904, Note_on_c, 1, 44, 75
1, 59943, Note_on_c, 1, 44, 0
1, 59949, Note_on_c, 0, 86, 0
1, 59952, Note_on_c, 0, 76, 80
1, 59997, Note_on_c, 0, 76, 0
1, 60000, Note_on_c, 0, 84, 80
1, 60000, Note_on_c, 1, 45, 75
1, 60039, Note_on_c, 1, 45, 0
1, 60045, Note_on_c, 0, 84, 0
1, 60048, Note_on_c, 0, 81, 80
1, 60093, Note_on_c, 0, 81, 0
1, 60096, Note_on_c, 0, 88, 80
1, 60096, Note_on_c, 1, 33, 75
1, 60135, Note_on_c, 1, 33, 0
1, 60141, Note_on_c, 0, 88, 0
1, 60144, Note_on_c, 0, 76, 80
1, 60189, Note_on_c, 0, 76, 0
1, 60192, Note_on_c, 0, 84, 80
1, 60237, Note_on_c, 0, 84, 0
1, 60240, Note_on_c, 0, 81, 80
1, 60285, Note_on_c, 0, 81, 0
1, 60288, Note_on_c, 0, 88, 80
1, 60288, Note_on_c, 1, 72, 75
1, 60327, Note_on_c, 1, 72, 0
1, 60333, Note_on_c, 0, 88, 0
1, 60336, Note_on_c, 0, 76, 80
1, 60381, Note_on_c, 0, 76, 0
1, 60384, Note_on_c, 0, 77, 80
1, 60384, Note_on_c, 1, 74, 75
1, 60396, Note_on_c, 0, 77, 0
1, 60396, Note_on_c, 0, 79, 80
1, 60408, Note_on_c, 0, 79, 0
1, 60408, Note_on_c, 0, 77, 80
1, 60423, Note_on_c, 1, 74, 0
1, 60429, Note_on_c, 0, 77, 0
1, 60432, Note_on_c, 0, 76, 80
1, 60477, Note_on_c, 0, 76, 0
1, 60480, Note_on_c, 0, 77, 80
1, 60480, Note_on_c, 1, 72, 75
1, 60519, Note_on_c, 1, 72, 0
1, 60569, Note_on_c, 0, 77, 0
1, 60576, Note_on_c, 0, 77, 80
1, 60576, Note_on_c, 1, 71, 75
1, 60588, Note_on_c, 0, 77, 0
1, 60588, Note_on_c, 0, 79, 80
1, 60600, Note_on_c, 0, 79, 0
1, 60600, Note_on_c, 0, 77, 80
1, 60615, Note_on_c, 1, 71, 0
1, 60621, Note_on_c, 0, 77, 0
1, 60624, Note_on_c, 0, 76, 80
1, 60669, Note_on_c, 0, 76, 0
1, 60672, Note_on_c, 0, 77, 80
1, 60672, Note_on_c, 1, 69, 75
1, 60711, Note_on_c, 1, 69, 0
1, 60761, Note_on_c, 0, 77, 0
1, 60768, Note_on_c, 0, 86, 96
1, 60768, Note_on_c, 1, 67, 75
1, 60807, Note_on_c, 1, 67, 0
1, 60816, Note_on_c, 0, 86, 0
1, 60816, Note_on_c, 0, 84, 80
1, 60861, Note_on_c, 0, 84, 0
1, 60864, Note_on_c, 0, 83, 80
1, 60864, Note_on_c, 1, 55, 75
1, 60903, Note_on_c, 1, 55, 0
1, 60909, Note_on_c, 0, 83, 0
1, 60912, Note_on_c, 0, 81, 80
1, 60957, Note_on_c, 0, 81, 0
1, 60960, Note_on_c, 0, 79, 80
1, 61005, Note_on_c, 0, 79, 0
1, 61008, Note_on_c, 0, 77, 80
1, 61053, Note_on_c, 0, 77, 0
1, 61056, Note_on_c, 0, 76, 80
1, 61101, Note_on_c, 0, 76, 0
1, 61104, Note_on_c, 0, 74, 80
1, 61149, Note_on_c, 0, 74, 0
1, 61152, Note_on_c, 0, 76, 80
1, 61152, Note_on_c, 1, 60, 75
1, 61164, Note_on_c, 0, 76, 0
1, 61164, Note_on_c, 0, 77, 80
1, 61176, Note_on_c, 0, 77, 0
1, 61176, Note_on_c, 0, 76, 80
1, 61191, Note_on_c, 1, 60, 0
1, 61197, Note_on_c, 0, 76, 0
1, 61200, Note_on_c, 0, 74, 80
1, 61245, Note_on_c, 0, 74, 0
1, 61248, Note_on_c, 0, 76, 80
1, 61248, Note_on_c, 1, 71, 75
1, 61287, Note_on_c, 1, 71, 0
1, 61337, Note_on_c, 0, 76, 0
1, 61344, Note_on_c, 0, 76, 80
1, 61344, Note_on_c, 1, 69, 75
1, 61356, Note_on_c, 0, 76, 0
1, 61356, Note_on_c, 0, 77, 80
1, 61368, Note_on_c, 0, 77, 0
1, 61368, Note_on_c, 0, 76, 80
1, 61383, Note_on_c, 1, 69, 0
1, 61389, Note_on_c, 0, 76, 0
1, 61392, Note_on_c, 0, 74, 80
1, 61437, Note_on_c, 0, 74, 0
1, 61440, Note_on_c, 0, 76, 80
1, 61440, Note_on_c, 1, 67, 75
1, 61479, Note_on_c, 1, 67, 0
1, 61529, Note_on_c, 0, 76, 0
1, 61536, Note_on_c, 0, 84, 96
1, 61536, Note_on_c, 1, 69, 75
1, 61575, Note_on_c, 1, 69, 0
1, 61584, Note_on_c, 0, 84, 0
1, 61584, Note_on_c, 0, 83, 80
1, 61629, Note_on_c, 0, 83, 0
1, 61632, Note_on_c, 0, 81, 80
1, 61632, Note_on_c, 1, 57, 75
1, 61671, Note_on_c, 1, 57, 0
1, 61677, Note_on_c, 0, 81, 0
1, 61680, Note_on_c, 0, 79, 80
1, 61725, Note_on_c, 0, 79, 0
1, 61728, Note_on_c, 0, 78, 80
1, 61773, Note_on_c, 0, 78, 0
1, 61776, Note_on_c, 0, 76, 80
1, 61821, Note_on_c, 0, 76, 0
1, 61824, Note_on_c, 0, 75, 80
1, 61824, Note_on_c, 1, 48, 75
1, 61869, Note_on_c, 0, 75, 0
1, 61872, Note_on_c, 0, 76, 80
1, 61913, Note_on_c, 1, 48, 0
1, 61917, Note_on_c, 0, 76, 0
1, 61920, Note_on_c, 0, 71, 80
1, 61920, Note_on_c, 1, 47, 75
1, 61932, Note_on_c, 0, 75, 80
1, 61944, Note_on_c, 0, 78, 80
1, 61956, Note_on_c, 0, 81, 80
1, 62149, Note_on_c, 0, 81, 0
1, 62149, Note_on_c, 0, 78, 0
1, 62149, Note_on_c, 0, 75, 0
1, 62149, Note_on_c, 0, 71, 0
1, 62193, Note_on_c, 1, 47, 0
1, 62208, Note_on_c, 0, 63, 80
1, 62223, Note_on_c, 0, 63, 0
1, 62224, Note_on_c, 0, 64, 80
1, 62239, Note_on_c, 0, 64, 0
1, 62240, Note_on_c, 0, 66, 80
1, 62255, Note_on_c, 0, 66, 0
1, 62256, Note_on_c, 0, 67, 80
1, 62271, Note_on_c, 0, 67, 0
1, 62272, Note_on_c, 0, 69, 80
1, 62287, Note_on_c, 0, 69, 0
1, 62288, Note_on_c, 0, 71, 80
1, 62303, Note_on_c, 0, 71, 0
1, 62304, Note_on_c, 0, 72, 96
1, 62400, Note_on_c, 0, 72, 0
1, 62400, Note_on_c, 0, 66, 80
1, 62419, Note_on_c, 0, 66, 0
1, 62420, Note_on_c, 0, 67, 80
1, 62438, Note_on_c, 0, 67, 0
1, 62439, Note_on_c, 0, 69, 80
1, 62457, Note_on_c, 0, 69, 0
1, 62458, Note_on_c, 0, 71, 80
1, 62476, Note_on_c, 0, 71, 0
1, 62477, Note_on_c, 0, 73, 80
1, 62495, Note_on_c, 0, 73, 0
1, 62496, Note_on_c, 0, 75, 96
1, 62592, Note_on_c, 0, 75, 0
1, 62592, Note_on_c, 0, 75, 80
1, 62607, Note_on_c, 0, 75, 0
1, 62608, Note_on_c, 0, 76, 80
1, 62623, Note_on_c, 0, 76, 0
1, 62624, Note_on_c, 0, 78, 80
1, 62639, Note_on_c, 0, 78, 0
1, 62640, Note_on_c, 0, 79, 80
1, 62655, Note_on_c, 0, 79, 0
1, 62656, Note_on_c, 0, 81, 80
1, 62671, Note_on_c, 0, 81, 0
1, 62672, Note_on_c, 0, 83, 80
1, 62687, Note_on_c, 0, 83, 0
1, 62688, Note_on_c, 0, 84, 96
1, 62688, Note_on_c, 0, 81, 96
1, 62688, Note_on_c, 0, 77, 96
1, 62688, Note_on_c, 0, 72, 96
1, 62688, Note_on_c, 1, 45, 75
1, 62711, Note_on_c, 1, 45, 0
1, 62712, Note_on_c, 1, 48, 75
1, 62735, Note_on_c, 1, 48, 0
1, 62736, Note_on_c, 1, 53, 75
1, 62759, Note_on_c, 1, 53, 0
1, 62760, Note_on_c, 1, 57, 75
1, 62783, Note_on_c, 1, 57, 0
1, 62784, Note_on_c, 0, 84, 0
1, 62784, Note_on_c, 0, 81, 0
1, 62784, Note_on_c, 0, 77, 0
1, 62784, Note_on_c, 0, 72, 0
1, 62784, Note_on_c, 1, 45, 75
1, 62832, Note_on_c, 0, 81, 80
1, 62855, Note_on_c, 0, 81, 0
1, 62856, Note_on_c, 0, 83, 80
1, 62873, Note_on_c, 1, 45, 0
1, 62879, Note_on_c, 0, 83, 0
1, 62880, Note_on_c, 0, 84, 80
1, 62925, Note_on_c, 0, 84, 0
1, 62928, Note_on_c, 0, 81, 80
1, 62951, Note_on_c, 0, 81, 0
1, 62952, Note_on_c, 0, 83, 80
1, 62975, Note_on_c, 0, 83, 0
1, 62976, Note_on_c, 0, 84, 80
1, 63021, Note_on_c, 0, 84, 0
1, 63024, Note_on_c, 0, 83, 80
1, 63047, Note_on_c, 0, 83, 0
1, 63048, Note_on_c, 0, 81, 80
1, 63071, Note_on_c, 0, 81, 0
1, 63072, Note_on_c, 0, 87, 96
1, 63072, Note_on_c, 0, 84, 96
1, 63072, Note_on_c, 0, 81, 96
1, 63072, Note_on_c, 0, 78, 96
1, 63072, Note_on_c, 1, 45, 75
1, 63095, Note_on_c, 1, 45, 0
1, 63096, Note_on_c, 1, 48, 75
1, 63119, Note_on_c, 1, 48, 0
1, 63120, Note_on_c, 1, 54, 75
1, 63143, Note_on_c, 1, 54, 0
1, 63144, Note_on_c, 1, 57, 75
1, 63167, Note_on_c, 1, 57, 0
1, 63168, Note_on_c, 0, 87, 0
1, 63168, Note_on_c, 0, 84, 0
1, 63168, Note_on_c, 0, 81, 0
1, 63168, Note_on_c, 0, 78, 0
1, 63168, Note_on_c, 1, 45, 75
1, 63216, Note_on_c, 0, 81, 80
1, 63239, Note_on_c, 0, 81, 0
1, 63240, Note_on_c, 0, 83, 80
1, 63257, Note_on_c, 1, 45, 0
1, 63263, Note_on_c, 0, 83, 0
1, 63264, Note_on_c, 0, 84, 80
1, 63309, Note_on_c, 0, 84, 0
1, 63312, Note_on_c, 0, 78, 80
1, 63335, Note_on_c, 0, 78, 0
1, 63336, Note_on_c, 0, 79, 80
1, 63359, Note_on_c, 0, 79, 0
1, 63360, Note_on_c, 0, 81, 80
1, 63405, Note_on_c, 0, 81, 0
1, 63408, Note_on_c, 0, 79, 80
1, 63431, Note_on_c, 0, 79, 0
1, 63432, Note_on_c, 0, 78, 80
1, 63455, Note_on_c, 0, 78, 0
1, 63456, Note_on_c, 0, 79, 96
1, 63456, Note_on_c, 0, 76, 96
1, 63456, Note_on_c, 0, 71, 96
1, 63456, Note_on_c, 1, 47, 75
1, 63479, Note_on_c, 1, 47, 0
1, 63480, Note_on_c, 1, 52, 75
1, 63503, Note_on_c, 1, 52, 0
1, 63504, Note_on_c, 1, 55, 75
1, 63527, Note_on_c, 1, 55, 0
1, 63528, Note_on_c, 1, 59, 75
1, 63551, Note_on_c, 1, 59, 0
1, 63552, Note_on_c, 0, 79, 0
1, 63552, Note_on_c, 0, 76, 0
1, 63552, Note_on_c, 0, 71, 0
1, 63552, Note_on_c, 1, 47, 75
1, 63600, Note_on_c, 0, 76, 80
1, 63623, Note_on_c, 0, 76, 0
1, 63624, Note_on_c, 0, 78, 80
1, 63641, Note_on_c, 1, 47, 0
1, 63647, Note_on_c, 0, 78, 0
1, 63648, Note_on_c, 0, 79, 80
1, 63693, Note_on_c, 0, 79, 0
1, 63696, Note_on_c, 0, 84, 78
1, 63741, Note_on_c, 0, 84, 0
1, 63744, Note_on_c, 0, 81, 76
1, 63789, Note_on_c, 0, 81, 0
1, 63792, Note_on_c, 0, 77, 74
1, 63837, Note_on_c, 0, 77, 0
1, 63840, Note_on_c, 0, 76, 72
1, 63840, Note_on_c, 1, 66, 64
1, 63840, Note_on_c, 1, 45, 64
1, 64032, Note_on_c, 0, 76, 0
1, 64032, Note_on_c, 0, 75, 65
1, 64077, Note_on_c, 0, 75, 0
1, 64077, Note_on_c, 1, 66, 0
1, 64077, Note_on_c, 1, 45, 0
1, 64128, Note_on_c, 0, 60, 80
1, 64128, Note_on_c, 1, 48, 80
1, 64128, Note_on_c, 1, 36, 80
1, 64167, Note_on_c, 0, 60, 0
1, 64167, Note_on_c, 1, 48, 0
1, 64167, Note_on_c, 1, 36, 0
1, 64224, Note_on_c, 0, 60, 96
1, 64224, Note_on_c, 1, 48, 96
1, 64224, Note_on_c, 1, 36, 96
1, 64320, Note_on_c, 0, 60, 0
1, 64320, Note_on_c, 0, 60, 80
1, 64320, Note_on_c, 1, 48, 0
1, 64320, Note_on_c, 1, 36, 0
1, 64320, Note_on_c, 1, 48, 80
1, 64320, Note_on_c, 1, 36, 80
1, 64350, Note_on_c, 0, 60, 0
1, 64352, Note_on_c, 0, 64, 80
1, 64359, Note_on_c, 1, 48, 0
1, 64359, Note_on_c, 1, 36, 0
1, 64382, Note_on_c, 0, 64, 0
1, 64384, Note_on_c, 0, 67, 80
1, 64414, Note_on_c, 0, 67, 0
1, 64416, Note_on_c, 0, 59, 96
1, 64416, Note_on_c, 1, 47, 96
1, 64416, Note_on_c, 1, 35, 96
1, 64512, Note_on_c, 0, 59, 0
1, 64512, Note_on_c, 0, 59, 80
1, 64512, Note_on_c, 1, 47, 0
1, 64512, Note_on_c, 1, 35, 0
1, 64512, Note_on_c, 1, 47, 80
1, 64512, Note_on_c, 1, 35, 80
1, 64542, Note_on_c, 0, 59, 0
1, 64544, Note_on_c, 0, 64, 80
1, 64551, Note_on_c, 1, 47, 0
1, 64551, Note_on_c, 1, 35, 0
1, 64574, Note_on_c, 0, 64, 0
1, 64576, Note_on_c, 0, 67, 80
1, 64606, Note_on_c, 0, 67, 0
1, 64608, Note_on_c, 0, 57, 96
1, 64608, Note_on_c, 1, 45, 96
1, 64608, Note_on_c, 1, 33, 96
1, 64800, Note_on_c, 0, 57, 0
1, 64800, Note_on_c, 1, 45, 0
1, 64800, Note_on_c, 1, 33, 0
1, 65088, Note_on_c, 0, 57, 70
1, 65088, Note_on_c, 1, 45, 70
1, 65118, Note_on_c, 0, 57, 0
1, 65120, Note_on_c, 0, 60, 70
1, 65127, Note_on_c, 1, 45, 0
1, 65150, Note_on_c, 0, 60, 0
1, 65152, Note_on_c, 0, 64, 70
1, 65182, Note_on_c, 0, 64, 0
1, 65184, Note_on_c, 0, 55, 86
1, 65184, Note_on_c, 1, 43, 86
1, 65280, Note_on_c, 0, 55, 0
1, 65280, Note_on_c, 0, 55, 70
1, 65280, Note_on_c, 1, 43, 0
1, 65280, Note_on_c, 1, 43, 70
1, 65310, Note_on_c, 0, 55, 0
1, 65312, Note_on_c, 0, 60, 70
1, 65319, Note_on_c, 1, 43, 0
1, 65342, Note_on_c, 0, 60, 0
1, 65344, Note_on_c, 0, 64, 70
1, 65374, Note_on_c, 0, 64, 0
1, 65376, Note_on_c, 0, 53, 86
1, 65376, Note_on_c, 1, 41, 86
1, 65563, Note_on_c, 0, 53, 0
1, 65563, Note_on_c, 1, 41, 0
1, 65760, Note_on_c, 0, 63, 64
1, 65760, Note_on_c, 0, 57, 64
1, 66040, Note_on_c, 0, 63, 0
1, 66040, Note_on_c, 0, 57, 0
1, 66144, Note_on_c, 0, 64, 64
1, 66144, Note_on_c, 0, 55, 64
1, 66144, Note_on_c, 1, 52, 70
1, 66192, Note_on_c, 0, 64, 0
1, 66192, Note_on_c, 0, 55, 0
1, 66192, Note_on_c, 0, 63, 64
1, 66192, Note_on_c, 0, 54, 64
1, 66233, Note_on_c, 1, 52, 0
1, 66237, Note_on_c, 0, 63, 0
1, 66237, Note_on_c, 0, 54, 0
1, 66240, Note_on_c, 0, 63, 64
1, 66240, Note_on_c, 0, 54, 64
1, 66240, Note_on_c, 1, 40, 70
1, 66288, Note_on_c, 0, 63, 0
1, 66288, Note_on_c, 0, 54, 0
1, 66288, Note_on_c, 0, 64, 64
1, 66288, Note_on_c, 0, 55, 64
1, 66329, Note_on_c, 1, 40, 0
1, 66333, Note_on_c, 0, 64, 0
1, 66333, Note_on_c, 0, 55, 0
1, 66336, Note_on_c, 0, 64, 64
1, 66336, Note_on_c, 0, 55, 64
1, 66384, Note_on_c, 0, 64, 0
1, 66384, Note_on_c, 0, 55, 0
1, 66384, Note_on_c, 0, 63, 64
1, 66384, Note_on_c, 0, 54, 64
1, 66429, Note_on_c, 0, 63, 0
1, 66429, Note_on_c, 0, 54, 0
1, 66432, Note_on_c, 0, 63, 64
1, 66432, Note_on_c, 0, 54, 64
1, 66432, Note_on_c, 1, 52, 70
1, 66480, Note_on_c, 0, 63, 0
1, 66480, Note_on_c, 0, 54, 0
1, 66480, Note_on_c, 0, 64, 64
1, 66480, Note_on_c, 0, 55, 64
1, 66521, Note_on_c, 1, 52, 0
1, 66525, Note_on_c, 0, 64, 0
1, 66525, Note_on_c, 0, 55, 0
1, 66528, Note_on_c, 0, 65, 64
1, 66528, Note_on_c, 0, 57, 64
1, 66528, Note_on_c, 1, 52, 70
1, 66576, Note_on_c, 0, 65, 0
1, 66576, Note_on_c, 0, 57, 0
1, 66576, Note_on_c, 0, 64, 64
1, 66576, Note_on_c, 0, 55, 64
1, 66617, Note_on_c, 1, 52, 0
1, 66621, Note_on_c, 0, 64, 0
1, 66621, Note_on_c, 0, 55, 0
1, 66624, Note_on_c, 0, 64, 64
1, 66624, Note_on_c, 0, 55, 64
1, 66624, Note_on_c, 1, 40, 70
1, 66672, Note_on_c, 0, 64, 0
1, 66672, Note_on_c, 0, 55, 0
1, 66672, Note_on_c, 0, 65, 64
1, 66672, Note_on_c, 0, 57, 64
1, 66713, Note_on_c, 1, 40, 0
1, 66717, Note_on_c, 0, 65, 0
1, 66717, Note_on_c, 0, 57, 0
1, 66720, Note_on_c, 0, 65, 64
1, 66720, Note_on_c, 0, 57, 64
1, 66765, Note_on_c, 0, 65, 0
1, 66765, Note_on_c, 0, 57, 0
1, 66768, Note_on_c, 0, 69, 64
1, 66768, Note_on_c, 0, 60, 64
1, 66813, Note_on_c, 0, 69, 0
1, 66813, Note_on_c, 0, 60, 0
1, 66816, Note_on_c, 0, 67, 64
1, 66816, Note_on_c, 0, 59, 64
1, 66816, Note_on_c, 1, 47, 64
1, 66861, Note_on_c, 0, 67, 0
1, 66861, Note_on_c, 0, 59, 0
1, 66864, Note_on_c, 0, 65, 64
1, 66864, Note_on_c, 0, 57, 64
1, 66905, Note_on_c, 1, 47, 0
1, 66909, Note_on_c, 0, 65, 0
1, 66909, Note_on_c, 0, 57, 0
1, 66912, Note_on_c, 0, 64, 64
1, 66912, Note_on_c, 0, 55, 64
1, 66912, Note_on_c, 1, 52, 64
1, 66960, Note_on_c, 0, 64, 0
1, 66960, Note_on_c, 0, 55, 0
1, 66960, Note_on_c, 0, 63, 63
1, 66960, Note_on_c, 0, 57, 63
1, 66960, Note_on_c, 1, 52, 0
1, 66960, Note_on_c, 1, 53, 63
1, 67005, Note_on_c, 0, 63, 0
1, 67005, Note_on_c, 0, 57, 0
1, 67005, Note_on_c, 1, 53, 0
1, 67008, Note_on_c, 0, 64, 63
1, 67008, Note_on_c, 0, 55, 63
1, 67008, Note_on_c, 1, 52, 63
1, 67056, Note_on_c, 0, 64, 0
1, 67056, Note_on_c, 0, 55, 0
1, 67056, Note_on_c, 0, 63, 62
1, 67056, Note_on_c, 0, 57, 62
1, 67056, Note_on_c, 1, 52, 0
1, 67056, Note_on_c, 1, 53, 62
1, 67101, Note_on_c, 0, 63, 0
1, 67101, Note_on_c, 0, 57, 0
1, 67101, Note_on_c, 1, 53, 0
1, 67104, Note_on_c, 0, 64, 62
1, 67104, Note_on_c, 0, 55, 62
1, 67104, Note_on_c, 1, 52, 62
1, 67152, Note_on_c, 0, 64, 0
1, 67152, Note_on_c, 0, 55, 0
1, 67152, Note_on_c, 0, 63, 61
1, 67152, Note_on_c, 0, 57, 61
1, 67152, Note_on_c, 1, 52, 0
1, 67152, Note_on_c, 1, 53, 61
1, 67197, Note_on_c, 0, 63, 0
1, 67197, Note_on_c, 0, 57, 0
1, 67197, Note_on_c, 1, 53, 0
1, 67200, Note_on_c, 0, 64, 61
1, 67200, Note_on_c, 0, 55, 61
1, 67200, Note_on_c, 1, 52, 61
1, 67248, Note_on_c, 0, 64, 0
1, 67248, Note_on_c, 0, 55, 0
1, 67248, Note_on_c, 0, 63, 60
1, 67248, Note_on_c, 0, 57, 60
1, 67248, Note_on_c, 1, 52, 0
1, 67248, Note_on_c, 1, 53, 60
1, 67293, Note_on_c, 0, 63, 0
1, 67293, Note_on_c, 0, 57, 0
1, 67293, Note_on_c, 1, 53, 0
1, 67296, Note_on_c, 0, 64, 60
1, 67296, Note_on_c, 0, 55, 60
1, 67296, Note_on_c, 1, 52, 60
1, 67385, Note_on_c, 1, 52, 0
1, 67392, Note_on_c, 1, 51, 59
1, 67488, Note_on_c, 1, 51, 0
1, 67488, Note_on_c, 1, 52, 58
1, 67533, Note_on_c, 0, 64, 0
1, 67533, Note_on_c, 0, 55, 0
1, 67533, Note_on_c, 1, 52, 0
1, 67584, Note_on_c, 0, 74, 75
1, 67623, Note_on_c, 0, 74, 0
1, 67680, Note_on_c, 0, 79, 75
1, 67680, Note_on_c, 1, 55, 64
1, 67719, Note_on_c, 1, 55, 0
1, 67725, Note_on_c, 0, 79, 0
1, 67728, Note_on_c, 0, 83, 75
1, 67773, Note_on_c, 0, 83, 0
1, 67776, Note_on_c, 0, 81, 76
1, 67776, Note_on_c, 1, 59, 64
1, 67815, Note_on_c, 1, 59, 0
1, 67821, Note_on_c, 0, 81, 0
1, 67824, Note_on_c, 0, 79, 76
1, 67869, Note_on_c, 0, 79, 0
1, 67872, Note_on_c, 0, 78, 77
1, 67872, Note_on_c, 1, 57, 64
1, 67917, Note_on_c, 0, 78, 0
1, 67920, Note_on_c, 0, 81, 78
1, 67961, Note_on_c, 1, 57, 0
1, 67965, Note_on_c, 0, 81, 0
1, 67968, Note_on_c, 0, 79, 78
1, 67968, Note_on_c, 1, 60, 64
1, 68013, Note_on_c, 0, 79, 0
1, 68016, Note_on_c, 0, 78, 79
1, 68057, Note_on_c, 1, 60, 0
1, 68061, Note_on_c, 0, 78, 0
1, 68064, Note_on_c, 0, 79, 80
1, 68064, Note_on_c, 1, 59, 64
1, 68109, Note_on_c, 0, 79, 0
1, 68112, Note_on_c, 0, 86, 79
1, 68132, Note_on_c, 0, 86, 0
1, 68160, Note_on_c, 0, 84, 78
1, 68180, Note_on_c, 0, 84, 0
1, 68208, Note_on_c, 0, 83, 78
1, 68228, Note_on_c, 0, 83, 0
1, 68241, Note_on_c, 1, 59, 0
1, 68256, Note_on_c, 0, 81, 77
1, 68276, Note_on_c, 0, 81, 0
1, 68304, Note_on_c, 0, 79, 76
1, 68324, Note_on_c, 0, 79, 0
1, 68352, Note_on_c, 0, 78, 76
1, 68352, Note_on_c, 1, 50, 70
1, 68391, Note_on_c, 1, 50, 0
1, 68400, Note_on_c, 0, 78, 0
1, 68400, Note_on_c, 0, 81, 75
1, 68445, Note_on_c, 0, 81, 0
1, 68448, Note_on_c, 1, 55, 70
1, 68493, Note_on_c, 1, 55, 0
1, 68496, Note_on_c, 0, 79, 75
1, 68496, Note_on_c, 1, 59, 70
1, 68541, Note_on_c, 0, 79, 0
1, 68541, Note_on_c, 1, 59, 0
1, 68544, Note_on_c, 0, 78, 75
1, 68544, Note_on_c, 1, 57, 70
1, 68589, Note_on_c, 0, 78, 0
1, 68589, Note_on_c, 1, 57, 0
1, 68592, Note_on_c, 0, 76, 75
1, 68592, Note_on_c, 1, 55, 70
1, 68637, Note_on_c, 0, 76, 0
1, 68637, Note_on_c, 1, 55, 0
1, 68640, Note_on_c, 0, 74, 75
1, 68640, Note_on_c, 1, 54, 70
1, 68685, Note_on_c, 0, 74, 0
1, 68685, Note_on_c, 1, 54, 0
1, 68688, Note_on_c, 0, 72, 75
1, 68688, Note_on_c, 1, 57, 70
1, 68733, Note_on_c, 0, 72, 0
1, 68733, Note_on_c, 1, 57, 0
1, 68736, Note_on_c, 0, 71, 75
1, 68736, Note_on_c, 1, 55, 70
1, 68781, Note_on_c, 0, 71, 0
1, 68781, Note_on_c, 1, 55, 0
1, 68784, Note_on_c, 0, 69, 75
1, 68784, Note_on_c, 1, 54, 70
1, 68829, Note_on_c, 0, 69, 0
1, 68829, Note_on_c, 1, 54, 0
1, 68832, Note_on_c, 0, 72, 75
1, 68832, Note_on_c, 1, 55, 70
1, 68877, Note_on_c, 1, 55, 0
1, 68880, Note_on_c, 0, 72, 0
1, 68880, Note_on_c, 0, 71, 75
1, 68880, Note_on_c, 1, 62, 70
1, 68925, Note_on_c, 0, 71, 0
1, 68925, Note_on_c, 1, 62, 0
1, 68928, Note_on_c, 0, 69, 75
1, 68928, Note_on_c, 1, 60, 70
1, 68973, Note_on_c, 0, 69, 0
1, 68973, Note_on_c, 1, 60, 0
1, 68976, Note_on_c, 0, 67, 75
1, 68976, Note_on_c, 1, 59, 70
1, 69021, Note_on_c, 0, 67, 0
1, 69021, Note_on_c, 1, 59, 0
1, 69024, Note_on_c, 0, 66, 75
1, 69024, Note_on_c, 1, 57, 70
1, 69069, Note_on_c, 0, 66, 0
1, 69069, Note_on_c, 1, 57, 0
1, 69072, Note_on_c, 0, 64, 75
1, 69072, Note_on_c, 1, 55, 71
1, 69117, Note_on_c, 0, 64, 0
1, 69117, Note_on_c, 1, 55, 0
1, 69120, Note_on_c, 0, 62, 75
1, 69120, Note_on_c, 1, 54, 72
1, 69165, Note_on_c, 0, 62, 0
1, 69165, Note_on_c, 1, 54, 0
1, 69168, Note_on_c, 0, 72, 91
1, 69168, Note_on_c, 1, 52, 73
1, 69213, Note_on_c, 1, 52, 0
1, 69216, Note_on_c, 1, 50, 75
1, 69255, Note_on_c, 1, 50, 0
1, 69261, Note_on_c, 0, 72, 0
1, 69264, Note_on_c, 0, 62, 75
1, 69309, Note_on_c, 0, 62, 0
1, 69312, Note_on_c, 0, 71, 74
1, 69312, Note_on_c, 1, 62, 75
1, 69332, Note_on_c, 0, 71, 0
1, 69351, Note_on_c, 1, 62, 0
1, 69360, Note_on_c, 0, 71, 74
1, 69380, Note_on_c, 0, 71, 0
1, 69408, Note_on_c, 1, 48, 75
1, 69447, Note_on_c, 1, 48, 0
1, 69456, Note_on_c, 0, 64, 73
1, 69501, Note_on_c, 0, 64, 0
1, 69504, Note_on_c, 0, 69, 73
1, 69504, Note_on_c, 1, 60, 75
1, 69524, Note_on_c, 0, 69, 0
1, 69543, Note_on_c, 1, 60, 0
1, 69552, Note_on_c, 0, 69, 73
1, 69572, Note_on_c, 0, 69, 0
1, 69600, Note_on_c, 1, 47, 75
1, 69639, Note_on_c, 1, 47, 0
1, 69648, Note_on_c, 0, 62, 72
1, 69693, Note_on_c, 0, 62, 0
1, 69696, Note_on_c, 0, 67, 72
1, 69696, Note_on_c, 1, 59, 75
1, 69716, Note_on_c, 0, 67, 0
1, 69735, Note_on_c, 1, 59, 0
1, 69744, Note_on_c, 0, 67, 71
1, 69764, Note_on_c, 0, 67, 0
1, 69792, Note_on_c, 1, 45, 75
1, 69831, Note_on_c, 1, 45, 0
1, 69840, Note_on_c, 0, 60, 71
1, 69885, Note_on_c, 0, 60, 0
1, 69888, Note_on_c, 0, 65, 70
1, 69888, Note_on_c, 1, 57, 75
1, 69908, Note_on_c, 0, 65, 0
1, 69927, Note_on_c, 1, 57, 0
1, 69936, Note_on_c, 0, 65, 70
1, 69956, Note_on_c, 0, 65, 0
1, 69984, Note_on_c, 0, 65, 70
1, 69984, Note_on_c, 1, 44, 91
1, 69996, Note_on_c, 0, 65, 0
1, 69996, Note_on_c, 0, 67, 70
1, 70008, Note_on_c, 0, 67, 0
1, 70008, Note_on_c, 0, 65, 70
1, 70029, Note_on_c, 0, 65, 0
1, 70032, Note_on_c, 0, 64, 70
1, 70077, Note_on_c, 0, 64, 0
1, 70080, Note_on_c, 0, 65, 71
1, 70169, Note_on_c, 0, 65, 0
1, 70176, Note_on_c, 0, 65, 72
1, 70176, Note_on_c, 1, 44, 0
1, 70176, Note_on_c, 1, 62, 64
1, 70188, Note_on_c, 0, 65, 0
1, 70188, Note_on_c, 0, 67, 72
1, 70188, Note_on_c, 1, 62, 0
1, 70188, Note_on_c, 1, 64, 64
1, 70200, Note_on_c, 0, 67, 0
1, 70200, Note_on_c, 0, 65, 72
1, 70200, Note_on_c, 1, 64, 0
1, 70200, Note_on_c, 1, 62, 64
1, 70221, Note_on_c, 0, 65, 0
1, 70221, Note_on_c, 1, 62, 0
1, 70224, Note_on_c, 0, 64, 73
1, 70224, Note_on_c, 1, 60, 64
1, 70269, Note_on_c, 0, 64, 0
1, 70269, Note_on_c, 1, 60, 0
1, 70272, Note_on_c, 0, 65, 73
1, 70272, Note_on_c, 1, 62, 64
1, 70361, Note_on_c, 0, 65, 0
1, 70361, Note_on_c, 1, 62, 0
1, 70368, Note_on_c, 0, 74, 91
1, 70368, Note_on_c, 1, 52, 96
1, 70368, Note_on_c, 1, 47, 96
1, 70368, Note_on_c, 1, 44, 96
1, 70368, Note_on_c, 1, 40, 96
1, 70416, Note_on_c, 0, 74, 0
1, 70416, Note_on_c, 0, 72, 74
1, 70461, Note_on_c, 0, 72, 0
1, 70464, Note_on_c, 0, 71, 73
1, 70509, Note_on_c, 0, 71, 0
1, 70512, Note_on_c, 0, 69, 73
1, 70557, Note_on_c, 0, 69, 0
1, 70560, Note_on_c, 0, 68, 72
1, 70605, Note_on_c, 0, 68, 0
1, 70608, Note_on_c, 0, 65, 71
1, 70648, Note_on_c, 1, 52, 0
1, 70648, Note_on_c, 1, 47, 0
1, 70648, Note_on_c, 1, 44, 0
1, 70648, Note_on_c, 1, 40, 0
1, 70653, Note_on_c, 0, 65, 0
1, 70656, Note_on_c, 0, 64, 71
1, 70701, Note_on_c, 0, 64, 0
1, 70704, Note_on_c, 0, 62, 70
1, 70749, Note_on_c, 0, 62, 0
1, 70752, Note_on_c, 0, 64, 70
1, 70752, Note_on_c, 1, 36, 91
1, 70764, Note_on_c, 0, 64, 0
1, 70764, Note_on_c, 0, 66, 70
1, 70776, Note_on_c, 0, 66, 0
1, 70776, Note_on_c, 0, 64, 70
1, 70797, Note_on_c, 0, 64, 0
1, 70800, Note_on_c, 0, 62, 70
1, 70845, Note_on_c, 0, 62, 0
1, 70848, Note_on_c, 0, 64, 71
1, 70937, Note_on_c, 0, 64, 0
1, 70944, Note_on_c, 0, 64, 72
1, 70944, Note_on_c, 1, 36, 0
1, 70944, Note_on_c, 1, 60, 70
1, 70956, Note_on_c, 0, 64, 0
1, 70956, Note_on_c, 0, 66, 72
1, 70956, Note_on_c, 1, 60, 0
1, 70956, Note_on_c, 1, 62, 70
1, 70968, Note_on_c, 0, 66, 0
1, 70968, Note_on_c, 0, 64, 72
1, 70968, Note_on_c, 1, 62, 0
1, 70968, Note_on_c, 1, 60, 70
1, 70989, Note_on_c, 0, 64, 0
1, 70989, Note_on_c, 1, 60, 0
1, 70992, Note_on_c, 0, 62, 73
1, 70992, Note_on_c, 1, 59, 70
1, 71037, Note_on_c, 0, 62, 0
1, 71037, Note_on_c, 1, 59, 0
1, 71040, Note_on_c, 0, 64, 73
1, 71040, Note_on_c, 1, 60, 70
1, 71129, Note_on_c, 0, 64, 0
1, 71129, Note_on_c, 1, 60, 0
1, 71136, Note_on_c, 0, 72, 91
1, 71136, Note_on_c, 1, 57, 96
1, 71136, Note_on_c, 1, 52, 96
1, 71136, Note_on_c, 1, 48, 96
1, 71136, Note_on_c, 1, 45, 96
1, 71184, Note_on_c, 0, 72, 0
1, 71184, Note_on_c, 0, 71, 74
1, 71229, Note_on_c, 0, 71, 0
1, 71232, Note_on_c, 0, 69, 73
1, 71277, Note_on_c, 0, 69, 0
1, 71280, Note_on_c, 0, 67, 73
1, 71325, Note_on_c, 0, 67, 0
1, 71328, Note_on_c, 0, 65, 72
1, 71373, Note_on_c, 0, 65, 0
1, 71376, Note_on_c, 0, 64, 71
1, 71416, Note_on_c, 1, 57, 0
1, 71416, Note_on_c, 1, 52, 0
1, 71416, Note_on_c, 1, 48, 0
1, 71416, Note_on_c, 1, 45, 0
1, 71421, Note_on_c, 0, 64, 0
1, 71424, Note_on_c, 0, 62, 71
1, 71469, Note_on_c, 0, 62, 0
1, 71472, Note_on_c, 0, 60, 70
1, 71517, Note_on_c, 0, 60, 0
1, 71520, Note_on_c, 0, 59, 86
1, 71520, Note_on_c, 1, 47, 96
1, 71540, Note_on_c, 0, 59, 0
1, 71540, Note_on_c, 1, 47, 0
1, 71568, Note_on_c, 0, 59, 70
1, 71568, Note_on_c, 1, 47, 70
1, 71591, Note_on_c, 0, 59, 0
1, 71591, Note_on_c, 1, 47, 0
1, 71592, Note_on_c, 0, 60, 70
1, 71592, Note_on_c, 1, 48, 70
1, 71615, Note_on_c, 0, 60, 0
1, 71615, Note_on_c, 1, 48, 0
1, 71616, Note_on_c, 0, 62, 70
1, 71616, Note_on_c, 1, 50, 70
1, 71636, Note_on_c, 0, 62, 0
1, 71636, Note_on_c, 1, 50, 0
1, 71664, Note_on_c, 0, 59, 71
1, 71664, Note_on_c, 1, 47, 71
1, 71684, Note_on_c, 0, 59, 0
1, 71684, Note_on_c, 1, 47, 0
1, 71712, Note_on_c, 0, 56, 88
1, 71712, Note_on_c, 1, 44, 88
1, 71732, Note_on_c, 0, 56, 0
1, 71732, Note_on_c, 1, 44, 0
1, 71760, Note_on_c, 0, 56, 72
1, 71760, Note_on_c, 1, 44, 72
1, 71783, Note_on_c, 0, 56, 0
1, 71783, Note_on_c, 1, 44, 0
1, 71784, Note_on_c, 0, 57, 73
1, 71784, Note_on_c, 1, 45, 73
1, 71807, Note_on_c, 0, 57, 0
1, 71807, Note_on_c, 1, 45, 0
1, 71808, Note_on_c, 0, 59, 73
1, 71808, Note_on_c, 1, 47, 73
1, 71828, Note_on_c, 0, 59, 0
1, 71828, Note_on_c, 1, 47, 0
1, 71856, Note_on_c, 0, 56, 74
1, 71856, Note_on_c, 1, 44, 74
1, 71876, Note_on_c, 0, 56, 0
1, 71876, Note_on_c, 1, 44, 0
1, 71904, Note_on_c, 0, 69, 90
1, 71904, Note_on_c, 1, 57, 90
1, 71924, Note_on_c, 0, 69, 0
1, 71924, Note_on_c, 1, 57, 0
1, 71952, Note_on_c, 0, 69, 75
1, 71952, Note_on_c, 1, 57, 75
1, 71975, Note_on_c, 0, 69, 0
1, 71975, Note_on_c, 1, 57, 0
1, 71976, Note_on_c, 0, 71, 75
1, 71976, Note_on_c, 1, 59, 75
1, 71999, Note_on_c, 0, 71, 0
1, 71999, Note_on_c, 1, 59, 0
1, 72000, Note_on_c, 0, 72, 76
1, 72000, Note_on_c, 1, 60, 76
1, 72020, Note_on_c, 0, 72, 0
1, 72020, Note_on_c, 1, 60, 0
1, 72048, Note_on_c, 0, 69, 76
1, 72048, Note_on_c, 1, 57, 76
1, 72068, Note_on_c, 0, 69, 0
1, 72068, Note_on_c, 1, 57, 0
1, 72096, Note_on_c, 0, 65, 93
1, 72096, Note_on_c, 1, 53, 93
1, 72116, Note_on_c, 0, 65, 0
1, 72116, Note_on_c, 1, 53, 0
1, 72144, Note_on_c, 0, 65, 78
1, 72144, Note_on_c, 1, 53, 78
1, 72167, Note_on_c, 0, 65, 0
1, 72167, Note_on_c, 1, 53, 0
1, 72168, Note_on_c, 0, 67, 78
1, 72168, Note_on_c, 1, 55, 78
1, 72191, Note_on_c, 0, 67, 0
1, 72191, Note_on_c, 1, 55, 0
1, 72192, Note_on_c, 0, 69, 78
1, 72192, Note_on_c, 1, 57, 78
1, 72212, Note_on_c, 0, 69, 0
1, 72212, Note_on_c, 1, 57, 0
1, 72240, Note_on_c, 0, 65, 79
1, 72240, Note_on_c, 1, 53, 79
1, 72260, Note_on_c, 0, 65, 0
1, 72260, Note_on_c, 1, 53, 0
1, 72288, Note_on_c, 0, 70, 96
1, 72288, Note_on_c, 0, 65, 96
1, 72288, Note_on_c, 0, 62, 96
1, 72288, Note_on_c, 0, 58, 96
1, 72288, Note_on_c, 1, 34, 80
1, 72311, Note_on_c, 1, 34, 0
1, 72312, Note_on_c, 1, 38, 80
1, 72335, Note_on_c, 1, 38, 0
1, 72336, Note_on_c, 1, 41, 80
1, 72359, Note_on_c, 1, 41, 0
1, 72360, Note_on_c, 1, 46, 80
1, 72383, Note_on_c, 1, 46, 0
1, 72384, Note_on_c, 0, 70, 0
1, 72384, Note_on_c, 0, 65, 0
1, 72384, Note_on_c, 0, 62, 0
1, 72384, Note_on_c, 0, 58, 0
1, 72384, Note_on_c, 1, 34, 80
1, 72432, Note_on_c, 0, 77, 80
1, 72455, Note_on_c, 0, 77, 0
1, 72456, Note_on_c, 0, 76, 80
1, 72473, Note_on_c, 1, 34, 0
1, 72479, Note_on_c, 0, 76, 0
1, 72480, Note_on_c, 0, 74, 80
1, 72525, Note_on_c, 0, 74, 0
1, 72528, Note_on_c, 0, 74, 80
1, 72551, Note_on_c, 0, 74, 0
1, 72552, Note_on_c, 0, 72, 80
1, 72575, Note_on_c, 0, 72, 0
1, 72576, Note_on_c, 0, 70, 80
1, 72621, Note_on_c, 0, 70, 0
1, 72624, Note_on_c, 0, 70, 80
1, 72647, Note_on_c, 0, 70, 0
1, 72648, Note_on_c, 0, 69, 80
1, 72671, Note_on_c, 0, 69, 0
1, 72672, Note_on_c, 0, 68, 96
1, 72672, Note_on_c, 0, 62, 96
1, 72672, Note_on_c, 0, 59, 96
1, 72672, Note_on_c, 1, 35, 80
1, 72695, Note_on_c, 1, 35, 0
1, 72696, Note_on_c, 1, 38, 80
1, 72719, Note_on_c, 1, 38, 0
1, 72720, Note_on_c, 1, 41, 80
1, 72743, Note_on_c, 1, 41, 0
1, 72744, Note_on_c, 1, 44, 80
1, 72767, Note_on_c, 1, 44, 0
1, 72768, Note_on_c, 0, 68, 0
1, 72768, Note_on_c, 0, 62, 0
1, 72768, Note_on_c, 0, 59, 0
1, 72768, Note_on_c, 1, 35, 86
1, 72813, Note_on_c, 1, 35, 0
1, 72816, Note_on_c, 1, 35, 86
1, 72839, Note_on_c, 1, 35, 0
1, 72840, Note_on_c, 1, 36, 86
1, 72863, Note_on_c, 1, 36, 0
1, 72864, Note_on_c, 1, 38, 86
1, 72884, Note_on_c, 1, 38, 0
1, 72912, Note_on_c, 1, 38, 86
1, 72935, Note_on_c, 1, 38, 0
1, 72936, Note_on_c, 1, 40, 86
1, 72959, Note_on_c, 1, 40, 0
1, 72960, Note_on_c, 1, 41, 86
1, 72980, Note_on_c, 1, 41, 0
1, 73008, Note_on_c, 1, 38, 86
1, 73028, Note_on_c, 1, 38, 0
1, 73056, Note_on_c, 0, 69, 96
1, 73056, Note_on_c, 0, 64, 96
1, 73056, Note_on_c, 0, 60, 96
1, 73056, Note_on_c, 1, 36, 80
1, 73079, Note_on_c, 1, 36, 0
1, 73080, Note_on_c, 1, 40, 80
1, 73103, Note_on_c, 1, 40, 0
1, 73104, Note_on_c, 1, 45, 80
1, 73127, Note_on_c, 1, 45, 0
1, 73128, Note_on_c, 1, 48, 80
1, 73151, Note_on_c, 1, 48, 0
1, 73152, Note_on_c, 0, 69, 0
1, 73152, Note_on_c, 0, 64, 0
1, 73152, Note_on_c, 0, 60, 0
1, 73152, Note_on_c, 1, 36, 80
1, 73200, Note_on_c, 0, 76, 80
1, 73223, Note_on_c, 0, 76, 0
1, 73224, Note_on_c, 0, 74, 80
1, 73241, Note_on_c, 1, 36, 0
1, 73247, Note_on_c, 0, 74, 0
1, 73248, Note_on_c, 0, 72, 80
1, 73293, Note_on_c, 0, 72, 0
1, 73296, Note_on_c, 0, 72, 80
1, 73319, Note_on_c, 0, 72, 0
1, 73320, Note_on_c, 0, 71, 80
1, 73343, Note_on_c, 0, 71, 0
1, 73344, Note_on_c, 0, 69, 80
1, 73389, Note_on_c, 0, 69, 0
1, 73392, Note_on_c, 0, 74, 80
1, 73437, Note_on_c, 0, 74, 0
1, 73440, Note_on_c, 0, 63, 96
1, 73440, Note_on_c, 0, 67, 96
1, 73440, Note_on_c, 0, 70, 96
1, 73440, Note_on_c, 0, 73, 96
1, 73440, Note_on_c, 1, 39, 80
1, 73463, Note_on_c, 1, 39, 0
1, 73464, Note_on_c, 1, 43, 80
1, 73487, Note_on_c, 1, 43, 0
1, 73488, Note_on_c, 1, 46, 80
1, 73511, Note_on_c, 1, 46, 0
1, 73512, Note_on_c, 1, 49, 80
1, 73535, Note_on_c, 1, 49, 0
1, 73536, Note_on_c, 0, 73, 0
1, 73536, Note_on_c, 0, 70, 0
1, 73536, Note_on_c, 0, 67, 0
1, 73536, Note_on_c, 0, 63, 0
1, 73536, Note_on_c, 1, 39, 80
1, 73584, Note_on_c, 0, 67, 80
1, 73607, Note_on_c, 0, 67, 0
1, 73608, Note_on_c, 0, 69, 80
1, 73625, Note_on_c, 1, 39, 0
1, 73631, Note_on_c, 0, 69, 0
1, 73632, Note_on_c, 0, 70, 80
1, 73677, Note_on_c, 0, 70, 0
1, 73680, Note_on_c, 0, 79, 80
1, 73703, Note_on_c, 0, 79, 0
1, 73704, Note_on_c, 0, 81, 80
1, 73727, Note_on_c, 0, 81, 0
1, 73728, Note_on_c, 0, 82, 80
1, 73773, Note_on_c, 0, 82, 0
1, 73776, Note_on_c, 0, 73, 80
1, 73821, Note_on_c, 0, 73, 0
1, 73824, Note_on_c, 0, 74, 80
1, 73824, Note_on_c, 1, 50, 80
1, 73824, Note_on_c, 1, 45, 80
1, 73824, Note_on_c, 1, 42, 80
1, 73824, Note_on_c, 1, 38, 80
1, 73872, Note_on_c, 0, 74, 0
1, 73872, Note_on_c, 0, 62, 78
1, 73917, Note_on_c, 0, 62, 0
1, 73920, Note_on_c, 0, 74, 77
1, 73965, Note_on_c, 0, 74, 0
1, 73968, Note_on_c, 0, 74, 76
1, 74001, Note_on_c, 1, 50, 0
1, 74001, Note_on_c, 1, 45, 0
1, 74001, Note_on_c, 1, 42, 0
1, 74001, Note_on_c, 1, 38, 0
1, 74013, Note_on_c, 0, 74, 0
1, 74016, Note_on_c, 0, 74, 75
1, 74064, Note_on_c, 0, 74, 0
1, 74064, Note_on_c, 0, 62, 74
1, 74109, Note_on_c, 0, 62, 0
1, 74112, Note_on_c, 0, 74, 73
1, 74157, Note_on_c, 0, 74, 0
1, 74160, Note_on_c, 0, 74, 72
1, 74205, Note_on_c, 0, 74, 0
1, 74208, Note_on_c, 0, 74, 71
1, 74256, Note_on_c, 0, 74, 0
1, 74256, Note_on_c, 0, 62, 70
1, 74301, Note_on_c, 0, 62, 0
1, 74304, Note_on_c, 0, 74, 69
1, 74349, Note_on_c, 0, 74, 0
1, 74352, Note_on_c, 0, 74, 68
1, 74397, Note_on_c, 0, 74, 0
1, 74400, Note_on_c, 0, 74, 67
1, 74448, Note_on_c, 0, 74, 0
1, 74448, Note_on_c, 0, 62, 66
1, 74493, Note_on_c, 0, 62, 0
1, 74496, Note_on_c, 0, 74, 65
1, 74496, Note_on_c, 1, 50, 75
1, 74535, Note_on_c, 1, 50, 0
1, 74541, Note_on_c, 0, 74, 0
1, 74544, Note_on_c, 0, 74, 64
1, 74589, Note_on_c, 0, 74, 0
1, 74592, Note_on_c, 0, 76, 64
1, 74592, Note_on_c, 1, 55, 75
1, 74612, Note_on_c, 0, 76, 0
1, 74613, Note_on_c, 0, 74, 64
1, 74633, Note_on_c, 0, 74, 0
1, 74634, Note_on_c, 0, 76, 64
1, 74637, Note_on_c, 1, 55, 0
1, 74640, Note_on_c, 1, 58, 75
1, 74654, Note_on_c, 0, 76, 0
1, 74655, Note_on_c, 0, 74, 64
1, 74675, Note_on_c, 0, 74, 0
1, 74676, Note_on_c, 0, 76, 64
1, 74685, Note_on_c, 1, 58, 0
1, 74688, Note_on_c, 1, 57, 76
1, 74695, Note_on_c, 0, 76, 0
1, 74696, Note_on_c, 0, 74, 64
1, 74715, Note_on_c, 0, 74, 0
1, 74716, Note_on_c, 0, 76, 64
1, 74733, Note_on_c, 1, 57, 0
1, 74735, Note_on_c, 0, 76, 0
1, 74736, Note_on_c, 0, 74, 64
1, 74736, Note_on_c, 1, 55, 76
1, 74755, Note_on_c, 0, 74, 0
1, 74756, Note_on_c, 0, 76, 64
1, 74775, Note_on_c, 0, 76, 0
1, 74776, Note_on_c, 0, 74, 64
1, 74781, Note_on_c, 1, 55, 0
1, 74784, Note_on_c, 1, 54, 77
1, 74795, Note_on_c, 0, 74, 0
1, 74796, Note_on_c, 0, 76, 64
1, 74815, Note_on_c, 0, 76, 0
1, 74816, Note_on_c, 0, 74, 64
1, 74829, Note_on_c, 1, 54, 0
1, 74832, Note_on_c, 1, 57, 78
1, 74835, Note_on_c, 0, 74, 0
1, 74836, Note_on_c, 0, 76, 64
1, 74855, Note_on_c, 0, 76, 0
1, 74856, Note_on_c, 0, 74, 64
1, 74875, Note_on_c, 0, 74, 0
1, 74876, Note_on_c, 0, 76, 64
1, 74877, Note_on_c, 1, 57, 0
1, 74880, Note_on_c, 1, 55, 78
1, 74895, Note_on_c, 0, 76, 0
1, 74896, Note_on_c, 0, 74, 64
1, 74915, Note_on_c, 0, 74, 0
1, 74916, Note_on_c, 0, 76, 64
1, 74925, Note_on_c, 1, 55, 0
1, 74928, Note_on_c, 1, 54, 79
1, 74935, Note_on_c, 0, 76, 0
1, 74936, Note_on_c, 0, 74, 64
1, 74973, Note_on_c, 1, 54, 0
1, 74976, Note_on_c, 1, 58, 80
1, 75021, Note_on_c, 1, 58, 0
1, 75024, Note_on_c, 0, 74, 0
1, 75024, Note_on_c, 0, 79, 64
1, 75024, Note_on_c, 1, 62, 79
1, 75047, Note_on_c, 0, 79, 0
1, 75048, Note_on_c, 0, 81, 64
1, 75069, Note_on_c, 1, 62, 0
1, 75071, Note_on_c, 0, 81, 0
1, 75072, Note_on_c, 0, 82, 64
1, 75072, Note_on_c, 1, 60, 78
1, 75117, Note_on_c, 0, 82, 0
1, 75117, Note_on_c, 1, 60, 0
1, 75120, Note_on_c, 0, 74, 64
1, 75120, Note_on_c, 1, 58, 78
1, 75165, Note_on_c, 0, 74, 0
1, 75165, Note_on_c, 1, 58, 0
1, 75168, Note_on_c, 0, 77, 64
1, 75168, Note_on_c, 1, 57, 77
1, 75187, Note_on_c, 0, 77, 0
1, 75188, Note_on_c, 0, 75, 64
1, 75207, Note_on_c, 0, 75, 0
1, 75208, Note_on_c, 0, 77, 64
1, 75213, Note_on_c, 1, 57, 0
1, 75216, Note_on_c, 1, 55, 76
1, 75226, Note_on_c, 0, 77, 0
1, 75227, Note_on_c, 0, 75, 64
1, 75245, Note_on_c, 0, 75, 0
1, 75246, Note_on_c, 0, 77, 64
1, 75261, Note_on_c, 1, 55, 0
1, 75264, Note_on_c, 0, 77, 0
1, 75264, Note_on_c, 1, 54, 76
1, 75265, Note_on_c, 0, 75, 64
1, 75283, Note_on_c, 0, 75, 0
1, 75284, Note_on_c, 0, 77, 64
1, 75302, Note_on_c, 0, 77, 0
1, 75303, Note_on_c, 0, 75, 64
1, 75309, Note_on_c, 1, 54, 0
1, 75312, Note_on_c, 1, 57, 75
1, 75321, Note_on_c, 0, 75, 0
1, 75322, Note_on_c, 0, 74, 64
1, 75341, Note_on_c, 0, 74, 0
1, 75341, Note_on_c, 0, 75, 64
1, 75357, Note_on_c, 1, 57, 0
1, 75360, Note_on_c, 1, 60, 75
1, 75405, Note_on_c, 1, 60, 0
1, 75408, Note_on_c, 0, 75, 0
1, 75408, Note_on_c, 0, 74, 75
1, 75408, Note_on_c, 1, 58, 75
1, 75453, Note_on_c, 0, 74, 0
1, 75453, Note_on_c, 1, 58, 0
1, 75456, Note_on_c, 0, 72, 75
1, 75456, Note_on_c, 1, 57, 75
1, 75501, Note_on_c, 0, 72, 0
1, 75501, Note_on_c, 1, 57, 0
1, 75504, Note_on_c, 0, 70, 75
1, 75504, Note_on_c, 1, 55, 75
1, 75549, Note_on_c, 0, 70, 0
1, 75549, Note_on_c, 1, 55, 0
1, 75552, Note_on_c, 0, 74, 75
1, 75552, Note_on_c, 1, 58, 75
1, 75597, Note_on_c, 0, 74, 0
1, 75597, Note_on_c, 1, 58, 0
1, 75600, Note_on_c, 0, 72, 75
1, 75600, Note_on_c, 1, 57, 75
1, 75645, Note_on_c, 0, 72, 0
1, 75645, Note_on_c, 1, 57, 0
1, 75648, Note_on_c, 0, 70, 75
1, 75648, Note_on_c, 1, 55, 75
1, 75693, Note_on_c, 0, 70, 0
1, 75693, Note_on_c, 1, 55, 0
1, 75696, Note_on_c, 0, 69, 75
1, 75696, Note_on_c, 1, 54, 75
1, 75741, Note_on_c, 0, 69, 0
1, 75741, Note_on_c, 1, 54, 0
1, 75744, Note_on_c, 0, 84, 75
1, 75744, Note_on_c, 1, 51, 75
1, 75789, Note_on_c, 0, 84, 0
1, 75789, Note_on_c, 1, 51, 0
1, 75792, Note_on_c, 0, 82, 75
1, 75792, Note_on_c, 1, 62, 75
1, 75837, Note_on_c, 0, 82, 0
1, 75837, Note_on_c, 1, 62, 0
1, 75840, Note_on_c, 0, 81, 76
1, 75840, Note_on_c, 1, 60, 76
1, 75885, Note_on_c, 0, 81, 0
1, 75885, Note_on_c, 1, 60, 0
1, 75888, Note_on_c, 0, 79, 76
1, 75888, Note_on_c, 1, 58, 76
1, 75933, Note_on_c, 0, 79, 0
1, 75933, Note_on_c, 1, 58, 0
1, 75936, Note_on_c, 0, 78, 77
1, 75936, Note_on_c, 1, 57, 77
1, 75981, Note_on_c, 0, 78, 0
1, 75981, Note_on_c, 1, 57, 0
1, 75984, Note_on_c, 0, 75, 78
1, 75984, Note_on_c, 1, 55, 78
1, 76029, Note_on_c, 0, 75, 0
1, 76029, Note_on_c, 1, 55, 0
1, 76032, Note_on_c, 0, 74, 78
1, 76032, Note_on_c, 1, 54, 78
1, 76077, Note_on_c, 0, 74, 0
1, 76077, Note_on_c, 1, 54, 0
1, 76080, Note_on_c, 0, 72, 79
1, 76080, Note_on_c, 1, 51, 79
1, 76125, Note_on_c, 0, 72, 0
1, 76125, Note_on_c, 1, 51, 0
1, 76128, Note_on_c, 0, 71, 96
1, 76128, Note_on_c, 0, 65, 96
1, 76128, Note_on_c, 0, 62, 96
1, 76128, Note_on_c, 0, 59, 96
1, 76128, Note_on_c, 1, 41, 80
1, 76151, Note_on_c, 1, 41, 0
1, 76152, Note_on_c, 1, 47, 80
1, 76175, Note_on_c, 1, 47, 0
1, 76176, Note_on_c, 1, 50, 80
1, 76199, Note_on_c, 1, 50, 0
1, 76200, Note_on_c, 1, 53, 80
1, 76223, Note_on_c, 1, 53, 0
1, 76224, Note_on_c, 0, 71, 0
1, 76224, Note_on_c, 0, 65, 0
1, 76224, Note_on_c, 0, 62, 0
1, 76224, Note_on_c, 0, 59, 0
1, 76224, Note_on_c, 1, 41, 80
1, 76272, Note_on_c, 0, 74, 80
1, 76295, Note_on_c, 0, 74, 0
1, 76296, Note_on_c, 0, 72, 80
1, 76313, Note_on_c, 1, 41, 0
1, 76319, Note_on_c, 0, 72, 0
1, 76320, Note_on_c, 0, 71, 80
1, 76365, Note_on_c, 0, 71, 0
1, 76368, Note_on_c, 0, 71, 80
1, 76391, Note_on_c, 0, 71, 0
1, 76392, Note_on_c, 0, 69, 80
1, 76415, Note_on_c, 0, 69, 0
1, 76416, Note_on_c, 0, 67, 80
1, 76461, Note_on_c, 0, 67, 0
1, 76464, Note_on_c, 0, 67, 80
1, 76487, Note_on_c, 0, 67, 0
1, 76488, Note_on_c, 0, 65, 80
1, 76511, Note_on_c, 0, 65, 0
1, 76512, Note_on_c, 0, 72, 96
1, 76512, Note_on_c, 0, 67, 96
1, 76512, Note_on_c, 0, 64, 96
1, 76512, Note_on_c, 1, 40, 80
1, 76535, Note_on_c, 1, 40, 0
1, 76536, Note_on_c, 1, 43, 80
1, 76559, Note_on_c, 1, 43, 0
1, 76560, Note_on_c, 1, 48, 80
1, 76583, Note_on_c, 1, 48, 0
1, 76584, Note_on_c, 1, 52, 80
1, 76589, Note_on_c, 0, 72, 0
1, 76589, Note_on_c, 0, 67, 0
1, 76589, Note_on_c, 0, 64, 0
1, 76607, Note_on_c, 1, 52, 0
1, 76608, Note_on_c, 1, 40, 80
1, 76697, Note_on_c, 1, 40, 0
1, 76896, Note_on_c, 0, 74, 98
1, 76896, Note_on_c, 0, 69, 98
1, 76896, Note_on_c, 0, 65, 98
1, 76896, Note_on_c, 1, 41, 82
1, 76919, Note_on_c, 1, 41, 0
1, 76920, Note_on_c, 1, 45, 82
1, 76943, Note_on_c, 1, 45, 0
1, 76944, Note_on_c, 1, 50, 82
1, 76967, Note_on_c, 1, 50, 0
1, 76968, Note_on_c, 1, 53, 82
1, 76973, Note_on_c, 0, 74, 0
1, 76973, Note_on_c, 0, 69, 0
1, 76973, Note_on_c, 0, 65, 0
1, 76991, Note_on_c, 1, 53, 0
1, 76992, Note_on_c, 1, 41, 82
1, 77081, Note_on_c, 1, 41, 0
1, 77280, Note_on_c, 0, 75, 100
1, 77280, Note_on_c, 0, 72, 100
1, 77280, Note_on_c, 0, 69, 100
1, 77280, Note_on_c, 0, 65, 100
1, 77280, Note_on_c, 1, 41, 84
1, 77303, Note_on_c, 1, 41, 0
1, 77304, Note_on_c, 1, 45, 84
1, 77327, Note_on_c, 1, 45, 0
1, 77328, Note_on_c, 1, 48, 84
1, 77351, Note_on_c, 1, 48, 0
1, 77352, Note_on_c, 1, 51, 84
1, 77357, Note_on_c, 0, 75, 0
1, 77357, Note_on_c, 0, 72, 0
1, 77357, Note_on_c, 0, 69, 0
1, 77357, Note_on_c, 0, 65, 0
1, 77375, Note_on_c, 1, 51, 0
1, 77376, Note_on_c, 1, 41, 84
1, 77465, Note_on_c, 1, 41, 0
1, 77664, Note_on_c, 0, 76, 102
1, 77664, Note_on_c, 0, 71, 102
1, 77664, Note_on_c, 0, 68, 102
1, 77664, Note_on_c, 0, 64, 102
1, 77664, Note_on_c, 1, 52, 96
1, 77712, Note_on_c, 1, 52, 0
1, 77712, Note_on_c, 1, 40, 79
1, 77757, Note_on_c, 1, 40, 0
1, 77760, Note_on_c, 1, 52, 78
1, 77805, Note_on_c, 1, 52, 0
1, 77808, Note_on_c, 1, 52, 77
1, 77853, Note_on_c, 1, 52, 0
1, 77856, Note_on_c, 0, 76, 0
1, 77856, Note_on_c, 0, 71, 0
1, 77856, Note_on_c, 0, 68, 0
1, 77856, Note_on_c, 0, 64, 0
1, 77856, Note_on_c, 1, 52, 76
1, 77901, Note_on_c, 1, 52, 0
1, 77904, Note_on_c, 1, 40, 75
1, 77949, Note_on_c, 1, 40, 0
1, 77952, Note_on_c, 1, 52, 74
1, 77997, Note_on_c, 1, 52, 0
1, 78000, Note_on_c, 1, 52, 73
1, 78045, Note_on_c, 1, 52, 0
1, 78048, Note_on_c, 1, 52, 72
1, 78093, Note_on_c, 1, 52, 0
1, 78096, Note_on_c, 1, 40, 71
1, 78141, Note_on_c, 1, 40, 0
1, 78144, Note_on_c, 1, 52, 70
1, 78189, Note_on_c, 1, 52, 0
1, 78192, Note_on_c, 1, 52, 69
1, 78237, Note_on_c, 1, 52, 0
1, 78240, Note_on_c, 1, 52, 68
1, 78285, Note_on_c, 1, 52, 0
1, 78288, Note_on_c, 1, 40, 67
1, 78333, Note_on_c, 1, 40, 0
1, 78336, Note_on_c, 0, 64, 75
1, 78336, Note_on_c, 1, 52, 66
1, 78375, Note_on_c, 0, 64, 0
1, 78381, Note_on_c, 1, 52, 0
1, 78384, Note_on_c, 1, 52, 65
1, 78429, Note_on_c, 1, 52, 0
1, 78432, Note_on_c, 0, 69, 75
1, 78432, Note_on_c, 1, 53, 64
1, 78453, Note_on_c, 1, 53, 0
1, 78454, Note_on_c, 1, 52, 64
1, 78475, Note_on_c, 1, 52, 0
1, 78476, Note_on_c, 1, 53, 64
1, 78477, Note_on_c, 0, 69, 0
1, 78480, Note_on_c, 0, 72, 76
1, 78497, Note_on_c, 1, 53, 0
1, 78498, Note_on_c, 1, 52, 64
1, 78519, Note_on_c, 1, 52, 0
1, 78520, Note_on_c, 1, 53, 64
1, 78525, Note_on_c, 0, 72, 0
1, 78528, Note_on_c, 0, 71, 77
1, 78541, Note_on_c, 1, 53, 0
1, 78542, Note_on_c, 1, 52, 64
1, 78563, Note_on_c, 1, 52, 0
1, 78564, Note_on_c, 1, 53, 64
1, 78573, Note_on_c, 0, 71, 0
1, 78576, Note_on_c, 0, 69, 78
1, 78584, Note_on_c, 1, 53, 0
1, 78585, Note_on_c, 1, 52, 64
1, 78605, Note_on_c, 1, 52, 0
1, 78606, Note_on_c, 1, 53, 64
1, 78621, Note_on_c, 0, 69, 0
1, 78624, Note_on_c, 0, 68, 80
1, 78626, Note_on_c, 1, 53, 0
1, 78627, Note_on_c, 1, 52, 64
1, 78647, Note_on_c, 1, 52, 0
1, 78648, Note_on_c, 1, 53, 64
1, 78668, Note_on_c, 1, 53, 0
1, 78669, Note_on_c, 0, 68, 0
1, 78669, Note_on_c, 1, 52, 64
1, 78672, Note_on_c, 0, 71, 78
1, 78689, Note_on_c, 1, 52, 0
1, 78690, Note_on_c, 1, 53, 64
1, 78710, Note_on_c, 1, 53, 0
1, 78711, Note_on_c, 1, 52, 64
1, 78717, Note_on_c, 0, 71, 0
1, 78720, Note_on_c, 0, 69, 77
1, 78731, Note_on_c, 1, 52, 0
1, 78732, Note_on_c, 1, 53, 64
1, 78752, Note_on_c, 1, 53, 0
1, 78753, Note_on_c, 1, 52, 64
1, 78765, Note_on_c, 0, 69, 0
1, 78768, Note_on_c, 0, 68, 76
1, 78773, Note_on_c, 1, 52, 0
1, 78774, Note_on_c, 1, 53, 64
1, 78794, Note_on_c, 1, 53, 0
1, 78795, Note_on_c, 1, 52, 64
1, 78813, Note_on_c, 0, 68, 0
1, 78815, Note_on_c, 1, 52, 0
1, 78816, Note_on_c, 0, 69, 75
1, 78816, Note_on_c, 1, 53, 64
1, 78861, Note_on_c, 0, 69, 0
1, 78861, Note_on_c, 1, 53, 0
1, 78864, Note_on_c, 0, 72, 75
1, 78864, Note_on_c, 1, 64, 64
1, 78909, Note_on_c, 0, 72, 0
1, 78909, Note_on_c, 1, 64, 0
1, 78912, Note_on_c, 0, 71, 75
1, 78912, Note_on_c, 1, 62, 64
1, 78957, Note_on_c, 0, 71, 0
1, 78957, Note_on_c, 1, 62, 0
1, 78960, Note_on_c, 0, 69, 75
1, 78960, Note_on_c, 1, 60, 64
1, 79005, Note_on_c, 0, 69, 0
1, 79005, Note_on_c, 1, 60, 0
1, 79008, Note_on_c, 0, 71, 75
1, 79008, Note_on_c, 1, 62, 64
1, 79053, Note_on_c, 0, 71, 0
1, 79053, Note_on_c, 1, 62, 0
1, 79056, Note_on_c, 0, 69, 75
1, 79056, Note_on_c, 1, 60, 64
1, 79101, Note_on_c, 0, 69, 0
1, 79101, Note_on_c, 1, 60, 0
1, 79104, Note_on_c, 0, 68, 75
1, 79104, Note_on_c, 1, 59, 64
1, 79149, Note_on_c, 0, 68, 0
1, 79149, Note_on_c, 1, 59, 0
1, 79152, Note_on_c, 0, 71, 75
1, 79152, Note_on_c, 1, 62, 64
1, 79197, Note_on_c, 0, 71, 0
1, 79197, Note_on_c, 1, 62, 0
1, 79200, Note_on_c, 0, 69, 75
1, 79200, Note_on_c, 1, 60, 64
1, 79245, Note_on_c, 0, 69, 0
1, 79245, Note_on_c, 1, 60, 0
1, 79248, Note_on_c, 0, 76, 75
1, 79248, Note_on_c, 1, 60, 65
1, 79293, Note_on_c, 0, 76, 0
1, 79293, Note_on_c, 1, 60, 0
1, 79296, Note_on_c, 0, 74, 75
1, 79296, Note_on_c, 1, 59, 66
1, 79341, Note_on_c, 0, 74, 0
1, 79341, Note_on_c, 1, 59, 0
1, 79344, Note_on_c, 0, 72, 75
1, 79344, Note_on_c, 1, 57, 67
1, 79389, Note_on_c, 0, 72, 0
1, 79389, Note_on_c, 1, 57, 0
1, 79392, Note_on_c, 0, 71, 76
1, 79392, Note_on_c, 1, 56, 68
1, 79437, Note_on_c, 0, 71, 0
1, 79437, Note_on_c, 1, 56, 0
1, 79440, Note_on_c, 0, 74, 76
1, 79440, Note_on_c, 1, 59, 69
1, 79485, Note_on_c, 0, 74, 0
1, 79485, Note_on_c, 1, 59, 0
1, 79488, Note_on_c, 0, 72, 76
1, 79488, Note_on_c, 1, 57, 70
1, 79533, Note_on_c, 0, 72, 0
1, 79533, Note_on_c, 1, 57, 0
1, 79536, Note_on_c, 0, 71, 77
1, 79536, Note_on_c, 1, 56, 71
1, 79581, Note_on_c, 0, 71, 0
1, 79581, Note_on_c, 1, 56, 0
1, 79584, Note_on_c, 0, 72, 77
1, 79584, Note_on_c, 1, 57, 72
1, 79629, Note_on_c, 0, 72, 0
1, 79629, Note_on_c, 1, 57, 0
1, 79632, Note_on_c, 0, 76, 77
1, 79632, Note_on_c, 1, 60, 73
1, 79677, Note_on_c, 0, 76, 0
1, 79677, Note_on_c, 1, 60, 0
1, 79680, Note_on_c, 0, 74, 78
1, 79680, Note_on_c, 1, 59, 74
1, 79725, Note_on_c, 0, 74, 0
1, 79725, Note_on_c, 1, 59, 0
1, 79728, Note_on_c, 0, 72, 78
1, 79728, Note_on_c, 1, 57, 75
1, 79773, Note_on_c, 0, 72, 0
1, 79773, Note_on_c, 1, 57, 0
1, 79776, Note_on_c, 0, 74, 78
1, 79776, Note_on_c, 1, 59, 76
1, 79821, Note_on_c, 0, 74, 0
1, 79821, Note_on_c, 1, 59, 0
1, 79824, Note_on_c, 0, 77, 79
1, 79824, Note_on_c, 1, 62, 77
1, 79869, Note_on_c, 0, 77, 0
1, 79869, Note_on_c, 1, 62, 0
1, 79872, Note_on_c, 0, 76, 79
1, 79872, Note_on_c, 1, 60, 78
1, 79917, Note_on_c, 0, 76, 0
1, 79917, Note_on_c, 1, 60, 0
1, 79920, Note_on_c, 0, 74, 79
1, 79920, Note_on_c, 1, 59, 79
1, 79965, Note_on_c, 0, 74, 0
1, 79965, Note_on_c, 1, 59, 0
1, 79968, Note_on_c, 1, 60, 80
1, 79968, Note_on_c, 1, 55, 80
1, 79968, Note_on_c, 1, 52, 80
1, 79968, Note_on_c, 1, 48, 80
1, 80016, Note_on_c, 0, 79, 80
1, 80036, Note_on_c, 0, 79, 0
1, 80064, Note_on_c, 0, 79, 80
1, 80076, Note_on_c, 0, 79, 0
1, 80076, Note_on_c, 0, 81, 80
1, 80088, Note_on_c, 0, 81, 0
1, 80088, Note_on_c, 0, 79, 80
1, 80109, Note_on_c, 0, 79, 0
1, 80112, Note_on_c, 0, 78, 80
1, 80135, Note_on_c, 0, 78, 0
1, 80136, Note_on_c, 0, 79, 80
1, 80145, Note_on_c, 1, 60, 0
1, 80145, Note_on_c, 1, 55, 0
1, 80145, Note_on_c, 1, 52, 0
1, 80145, Note_on_c, 1, 48, 0
1, 80159, Note_on_c, 0, 79, 0
1, 80160, Note_on_c, 0, 84, 80
1, 80208, Note_on_c, 0, 84, 0
1, 80208, Note_on_c, 0, 79, 80
1, 80228, Note_on_c, 0, 79, 0
1, 80256, Note_on_c, 0, 79, 80
1, 80345, Note_on_c, 0, 79, 0
1, 80352, Note_on_c, 1, 55, 80
1, 80352, Note_on_c, 1, 52, 80
1, 80352, Note_on_c, 1, 48, 80
1, 80400, Note_on_c, 0, 67, 80
1, 80420, Note_on_c, 0, 67, 0
1, 80448, Note_on_c, 0, 67, 80
1, 80460, Note_on_c, 0, 67, 0
1, 80460, Note_on_c, 0, 69, 80
1, 80472, Note_on_c, 0, 69, 0
1, 80472, Note_on_c, 0, 67, 80
1, 80493, Note_on_c, 0, 67, 0
1, 80496, Note_on_c, 0, 66, 80
1, 80519, Note_on_c, 0, 66, 0
1, 80520, Note_on_c, 0, 67, 80
1, 80529, Note_on_c, 1, 55, 0
1, 80529, Note_on_c, 1, 52, 0
1, 80529, Note_on_c, 1, 48, 0
1, 80543, Note_on_c, 0, 67, 0
1, 80544, Note_on_c, 0, 72, 80
1, 80592, Note_on_c, 0, 72, 0
1, 80592, Note_on_c, 0, 67, 80
1, 80612, Note_on_c, 0, 67, 0
1, 80640, Note_on_c, 0, 67, 80
1, 80729, Note_on_c, 0, 67, 0
1, 80736, Note_on_c, 1, 53, 80
1, 80736, Note_on_c, 1, 48, 80
1, 80736, Note_on_c, 1, 45, 80
1, 80784, Note_on_c, 0, 77, 80
1, 80804, Note_on_c, 0, 77, 0
1, 80832, Note_on_c, 0, 77, 80
1, 80844, Note_on_c, 0, 77, 0
1, 80844, Note_on_c, 0, 79, 80
1, 80856, Note_on_c, 0, 79, 0
1, 80856, Note_on_c, 0, 77, 80
1, 80877, Note_on_c, 0, 77, 0
1, 80880, Note_on_c, 0, 76, 80
1, 80903, Note_on_c, 0, 76, 0
1, 80904, Note_on_c, 0, 77, 80
1, 80913, Note_on_c, 1, 53, 0
1, 80913, Note_on_c, 1, 48, 0
1, 80913, Note_on_c, 1, 45, 0
1, 80927, Note_on_c, 0, 77, 0
1, 80928, Note_on_c, 0, 84, 80
1, 80976, Note_on_c, 0, 84, 0
1, 80976, Note_on_c, 0, 77, 80
1, 80996, Note_on_c, 0, 77, 0
1, 81024, Note_on_c, 0, 77, 80
1, 81113, Note_on_c, 0, 77, 0
1, 81120, Note_on_c, 1, 50, 80
1, 81120, Note_on_c, 1, 47, 80
1, 81120, Note_on_c, 1, 44, 80
1, 81168, Note_on_c, 0, 77, 80
1, 81188, Note_on_c, 0, 77, 0
1, 81216, Note_on_c, 0, 77, 80
1, 81228, Note_on_c, 0, 77, 0
1, 81228, Note_on_c, 0, 79, 80
1, 81240, Note_on_c, 0, 79, 0
1, 81240, Note_on_c, 0, 77, 80
1, 81261, Note_on_c, 0, 77, 0
1, 81264, Note_on_c, 0, 76, 80
1, 81287, Note_on_c, 0, 76, 0
1, 81288, Note_on_c, 0, 77, 80
1, 81297, Note_on_c, 1, 50, 0
1, 81297, Note_on_c, 1, 47, 0
1, 81297, Note_on_c, 1, 44, 0
1, 81311, Note_on_c, 0, 77, 0
1, 81312, Note_on_c, 0, 86, 80
1, 81360, Note_on_c, 0, 86, 0
1, 81360, Note_on_c, 0, 77, 80
1, 81380, Note_on_c, 0, 77, 0
1, 81408, Note_on_c, 0, 77, 80
1, 81497, Note_on_c, 0, 77, 0
1, 81504, Note_on_c, 1, 52, 80
1, 81504, Note_on_c, 1, 48, 80
1, 81504, Note_on_c, 1, 45, 80
1, 81552, Note_on_c, 0, 76, 80
1, 81572, Note_on_c, 0, 76, 0
1, 81600, Note_on_c, 0, 76, 80
1, 81612, Note_on_c, 0, 76, 0
1, 81612, Note_on_c, 0, 77, 80
1, 81624, Note_on_c, 0, 77, 0
1, 81624, Note_on_c, 0, 76, 80
1, 81645, Note_on_c, 0, 76, 0
1, 81648, Note_on_c, 0, 75, 80
1, 81671, Note_on_c, 0, 75, 0
1, 81672, Note_on_c, 0, 76, 80
1, 81681, Note_on_c, 1, 52, 0
1, 81681, Note_on_c, 1, 48, 0
1, 81681, Note_on_c, 1, 45, 0
1, 81695, Note_on_c, 0, 76, 0
1, 81696, Note_on_c, 0, 84, 80
1, 81744, Note_on_c, 0, 84, 0
1, 81744, Note_on_c, 0, 76, 80
1, 81764, Note_on_c, 0, 76, 0
1, 81792, Note_on_c, 0, 76, 80
1, 81881, Note_on_c, 0, 76, 0
1, 81888, Note_on_c, 1, 52, 80
1, 81888, Note_on_c, 1, 48, 80
1, 81888, Note_on_c, 1, 43, 80
1, 81936, Note_on_c, 0, 76, 80
1, 81956, Note_on_c, 0, 76, 0
1, 81984, Note_on_c, 0, 76, 80
1, 81996, Note_on_c, 0, 76, 0
1, 81996, Note_on_c, 0, 77, 80
1, 82008, Note_on_c, 0, 77, 0
1, 82008, Note_on_c, 0, 76, 80
1, 82029, Note_on_c, 0, 76, 0
1, 82032, Note_on_c, 0, 75, 80
1, 82055, Note_on_c, 0, 75, 0
1, 82056, Note_on_c, 0, 76, 80
1, 82065, Note_on_c, 1, 52, 0
1, 82065, Note_on_c, 1, 48, 0
1, 82065, Note_on_c, 1, 43, 0
1, 82079, Note_on_c, 0, 76, 0
1, 82080, Note_on_c, 0, 84, 80
1, 82128, Note_on_c, 0, 84, 0
1, 82128, Note_on_c, 0, 76, 80
1, 82148, Note_on_c, 0, 76, 0
1, 82176, Note_on_c, 0, 76, 80
1, 82265, Note_on_c, 0, 76, 0
1, 82272, Note_on_c, 1, 50, 80
1, 82272, Note_on_c, 1, 45, 80
1, 82272, Note_on_c, 1, 42, 80
1, 82320, Note_on_c, 0, 74, 80
1, 82340, Note_on_c, 0, 74, 0
1, 82368, Note_on_c, 0, 74, 80
1, 82380, Note_on_c, 0, 74, 0
1, 82380, Note_on_c, 0, 76, 80
1, 82392, Note_on_c, 0, 76, 0
1, 82392, Note_on_c, 0, 74, 80
1, 82413, Note_on_c, 0, 74, 0
1, 82416, Note_on_c, 0, 73, 80
1, 82439, Note_on_c, 0, 73, 0
1, 82440, Note_on_c, 0, 74, 80
1, 82449, Note_on_c, 1, 50, 0
1, 82449, Note_on_c, 1, 45, 0
1, 82449, Note_on_c, 1, 42, 0
1, 82463, Note_on_c, 0, 74, 0
1, 82464, Note_on_c, 0, 81, 80
1, 82512, Note_on_c, 0, 81, 0
1, 82512, Note_on_c, 0, 74, 80
1, 82532, Note_on_c, 0, 74, 0
1, 82560, Note_on_c, 0, 74, 80
1, 82649, Note_on_c, 0, 74, 0
1, 82656, Note_on_c, 1, 45, 80
1, 82656, Note_on_c, 1, 42, 80
1, 82656, Note_on_c, 1, 38, 80
1, 82704, Note_on_c, 0, 72, 80
1, 82724, Note_on_c, 0, 72, 0
1, 82752, Note_on_c, 0, 72, 80
1, 82764, Note_on_c, 0, 72, 0
1, 82764, Note_on_c, 0, 74, 80
1, 82776, Note_on_c, 0, 74, 0
1, 82776, Note_on_c, 0, 72, 80
1, 82797, Note_on_c, 0, 72, 0
1, 82800, Note_on_c, 0, 71, 80
1, 82823, Note_on_c, 0, 71, 0
1, 82824, Note_on_c, 0, 72, 80
1, 82833, Note_on_c, 1, 45, 0
1, 82833, Note_on_c, 1, 42, 0
1, 82833, Note_on_c, 1, 38, 0
1, 82847, Note_on_c, 0, 72, 0
1, 82848, Note_on_c, 0, 81, 80
1, 82896, Note_on_c, 0, 81, 0
1, 82896, Note_on_c, 0, 72, 80
1, 82916, Note_on_c, 0, 72, 0
1, 82944, Note_on_c, 0, 72, 80
1, 83033, Note_on_c, 0, 72, 0
1, 83040, Note_on_c, 1, 50, 80
1, 83040, Note_on_c, 1, 47, 80
1, 83040, Note_on_c, 1, 43, 80
1, 83088, Note_on_c, 0, 71, 80
1, 83108, Note_on_c, 0, 71, 0
1, 83136, Note_on_c, 0, 71, 80
1, 83148, Note_on_c, 0, 71, 0
1, 83148, Note_on_c, 0, 72, 80
1, 83160, Note_on_c, 0, 72, 0
1, 83160, Note_on_c, 0, 71, 80
1, 83181, Note_on_c, 0, 71, 0
1, 83184, Note_on_c, 0, 69, 80
1, 83207, Note_on_c, 0, 69, 0
1, 83208, Note_on_c, 0, 71, 80
1, 83217, Note_on_c, 1, 50, 0
1, 83217, Note_on_c, 1, 47, 0
1, 83217, Note_on_c, 1, 43, 0
1, 83231, Note_on_c, 0, 71, 0
1, 83232, Note_on_c, 0, 79, 80
1, 83280, Note_on_c, 0, 79, 0
1, 83280, Note_on_c, 0, 71, 80
1, 83300, Note_on_c, 0, 71, 0
1, 83328, Note_on_c, 0, 71, 80
1, 83417, Note_on_c, 0, 71, 0
1, 83424, Note_on_c, 1, 49, 80
1, 83472, Note_on_c, 0, 67, 80
1, 83492, Note_on_c, 0, 67, 0
1, 83520, Note_on_c, 0, 67, 79
1, 83532, Note_on_c, 0, 67, 0
1, 83532, Note_on_c, 0, 69, 79
1, 83544, Note_on_c, 0, 69, 0
1, 83544, Note_on_c, 0, 67, 79
1, 83565, Note_on_c, 0, 67, 0
1, 83568, Note_on_c, 0, 66, 78
1, 83591, Note_on_c, 0, 66, 0
1, 83592, Note_on_c, 0, 67, 78
1, 83615, Note_on_c, 0, 67, 0
1, 83616, Note_on_c, 0, 76, 77
1, 83664, Note_on_c, 0, 76, 0
1, 83664, Note_on_c, 0, 67, 76
1, 83684, Note_on_c, 0, 67, 0
1, 83712, Note_on_c, 0, 67, 76
1, 83724, Note_on_c, 0, 67, 0
1, 83724, Note_on_c, 0, 69, 76
1, 83736, Note_on_c, 0, 69, 0
1, 83736, Note_on_c, 0, 67, 76
1, 83757, Note_on_c, 0, 67, 0
1, 83760, Note_on_c, 0, 66, 75
1, 83778, Note_on_c, 1, 49, 0
1, 83783, Note_on_c, 0, 66, 0
1, 83784, Note_on_c, 0, 67, 75
1, 83807, Note_on_c, 0, 67, 0
1, 83808, Note_on_c, 0, 67, 74
1, 83808, Note_on_c, 1, 50, 80
1, 84000, Note_on_c, 0, 67, 0
1, 84000, Note_on_c, 0, 66, 71
1, 84073, Note_on_c, 1, 50, 0
1, 84089, Note_on_c, 0, 66, 0
1, 84192, Note_on_c, 0, 74, 80
1, 84192, Note_on_c, 1, 62, 80
1, 84231, Note_on_c, 0, 74, 0
1, 84231, Note_on_c, 1, 62, 0
1, 84288, Note_on_c, 0, 74, 96
1, 84288, Note_on_c, 1, 62, 96
1, 84384, Note_on_c, 0, 74, 0
1, 84384, Note_on_c, 0, 74, 80
1, 84384, Note_on_c, 1, 62, 0
1, 84384, Note_on_c, 1, 62, 80
1, 84414, Note_on_c, 0, 74, 0
1, 84416, Note_on_c, 0, 78, 80
1, 84423, Note_on_c, 1, 62, 0
1, 84446, Note_on_c, 0, 78, 0
1, 84448, Note_on_c, 0, 81, 80
1, 84478, Note_on_c, 0, 81, 0
1, 84480, Note_on_c, 0, 72, 96
1, 84480, Note_on_c, 1, 60, 96
1, 84576, Note_on_c, 0, 72, 0
1, 84576, Note_on_c, 0, 72, 80
1, 84576, Note_on_c, 1, 60, 0
1, 84576, Note_on_c, 1, 60, 80
1, 84606, Note_on_c, 0, 72, 0
1, 84608, Note_on_c, 0, 78, 80
1, 84615, Note_on_c, 1, 60, 0
1, 84638, Note_on_c, 0, 78, 0
1, 84640, Note_on_c, 0, 81, 80
1, 84670, Note_on_c, 0, 81, 0
1, 84672, Note_on_c, 0, 71, 96
1, 84672, Note_on_c, 1, 59, 96
1, 84766, Note_on_c, 0, 71, 0
1, 84766, Note_on_c, 1, 59, 0
1, 85152, Note_on_c, 0, 71, 64
1, 85152, Note_on_c, 1, 59, 80
1, 85182, Note_on_c, 0, 71, 0
1, 85184, Note_on_c, 0, 76, 64
1, 85191, Note_on_c, 1, 59, 0
1, 85214, Note_on_c, 0, 76, 0
1, 85216, Note_on_c, 0, 79, 64
1, 85246, Note_on_c, 0, 79, 0
1, 85248, Note_on_c, 0, 71, 80
1, 85248, Note_on_c, 1, 59, 96
1, 85344, Note_on_c, 0, 71, 0
1, 85344, Note_on_c, 0, 71, 64
1, 85344, Note_on_c, 1, 59, 0
1, 85344, Note_on_c, 1, 59, 80
1, 85374, Note_on_c, 0, 71, 0
1, 85376, Note_on_c, 0, 76, 64
1, 85406, Note_on_c, 0, 76, 0
1, 85408, Note_on_c, 0, 79, 64
1, 85433, Note_on_c, 1, 59, 0
1, 85438, Note_on_c, 0, 79, 0
1, 85440, Note_on_c, 0, 70, 80
1, 85440, Note_on_c, 1, 58, 96
1, 85534, Note_on_c, 0, 70, 0
1, 85534, Note_on_c, 1, 58, 0
1, 85728, Note_on_c, 1, 47, 75
1, 85767, Note_on_c, 1, 47, 0
1, 85824, Note_on_c, 0, 64, 70
1, 85824, Note_on_c, 1, 52, 75
1, 85863, Note_on_c, 0, 64, 0
1, 85869, Note_on_c, 1, 52, 0
1, 85872, Note_on_c, 1, 55, 75
1, 85917, Note_on_c, 1, 55, 0
1, 85920, Note_on_c, 0, 67, 71
1, 85920, Note_on_c, 1, 54, 75
1, 85959, Note_on_c, 0, 67, 0
1, 85965, Note_on_c, 1, 54, 0
1, 85968, Note_on_c, 1, 52, 75
1, 86013, Note_on_c, 1, 52, 0
1, 86016, Note_on_c, 0, 66, 72
1, 86016, Note_on_c, 1, 51, 75
1, 86055, Note_on_c, 0, 66, 0
1, 86061, Note_on_c, 1, 51, 0
1, 86064, Note_on_c, 1, 54, 75
1, 86109, Note_on_c, 1, 54, 0
1, 86112, Note_on_c, 0, 69, 73
1, 86112, Note_on_c, 1, 52, 75
1, 86151, Note_on_c, 0, 69, 0
1, 86157, Note_on_c, 1, 52, 0
1, 86160, Note_on_c, 1, 51, 75
1, 86205, Note_on_c, 1, 51, 0
1, 86208, Note_on_c, 0, 67, 75
1, 86208, Note_on_c, 1, 52, 75
1, 86253, Note_on_c, 0, 67, 0
1, 86256, Note_on_c, 0, 83, 74
1, 86276, Note_on_c, 0, 83, 0
1, 86297, Note_on_c, 1, 52, 0
1, 86304, Note_on_c, 0, 81, 73
1, 86304, Note_on_c, 1, 47, 75
1, 86324, Note_on_c, 0, 81, 0
1, 86352, Note_on_c, 0, 79, 73
1, 86372, Note_on_c, 0, 79, 0
1, 86393, Note_on_c, 1, 47, 0
1, 86400, Note_on_c, 0, 78, 72
1, 86420, Note_on_c, 0, 78, 0
1, 86448, Note_on_c, 0, 76, 71
1, 86468, Note_on_c, 0, 76, 0
1, 86496, Note_on_c, 0, 75, 71
1, 86496, Note_on_c, 1, 47, 75
1, 86535, Note_on_c, 1, 47, 0
1, 86544, Note_on_c, 0, 75, 0
1, 86544, Note_on_c, 0, 76, 70
1, 86589, Note_on_c, 0, 76, 0
1, 86592, Note_on_c, 0, 71, 75
1, 86592, Note_on_c, 1, 52, 75
1, 86631, Note_on_c, 1, 52, 0
1, 86637, Note_on_c, 0, 71, 0
1, 86640, Note_on_c, 0, 79, 75
1, 86685, Note_on_c, 0, 79, 0
1, 86688, Note_on_c, 0, 78, 75
1, 86688, Note_on_c, 1, 55, 75
1, 86727, Note_on_c, 1, 55, 0
1, 86733, Note_on_c, 0, 78, 0
1, 86736, Note_on_c, 0, 76, 75
1, 86781, Note_on_c, 0, 76, 0
1, 86784, Note_on_c, 0, 75, 76
1, 86784, Note_on_c, 1, 54, 75
1, 86823, Note_on_c, 1, 54, 0
1, 86829, Note_on_c, 0, 75, 0
1, 86832, Note_on_c, 0, 78, 76
1, 86877, Note_on_c, 0, 78, 0
1, 86880, Note_on_c, 0, 76, 76
1, 86880, Note_on_c, 1, 57, 75
1, 86919, Note_on_c, 1, 57, 0
1, 86925, Note_on_c, 0, 76, 0
1, 86928, Note_on_c, 0, 75, 77
1, 86973, Note_on_c, 0, 75, 0
1, 86976, Note_on_c, 0, 76, 77
1, 86976, Note_on_c, 1, 55, 75
1, 87021, Note_on_c, 0, 76, 0
1, 87021, Note_on_c, 1, 55, 0
1, 87024, Note_on_c, 0, 83, 77
1, 87024, Note_on_c, 1, 67, 75
1, 87069, Note_on_c, 0, 83, 0
1, 87069, Note_on_c, 1, 67, 0
1, 87072, Note_on_c, 0, 81, 78
1, 87072, Note_on_c, 1, 66, 75
1, 87117, Note_on_c, 0, 81, 0
1, 87117, Note_on_c, 1, 66, 0
1, 87120, Note_on_c, 0, 79, 78
1, 87120, Note_on_c, 1, 64, 75
1, 87165, Note_on_c, 0, 79, 0
1, 87165, Note_on_c, 1, 64, 0
1, 87168, Note_on_c, 0, 78, 78
1, 87168, Note_on_c, 1, 63, 75
1, 87213, Note_on_c, 0, 78, 0
1, 87216, Note_on_c, 0, 76, 79
1, 87257, Note_on_c, 1, 63, 0
1, 87261, Note_on_c, 0, 76, 0
1, 87264, Note_on_c, 0, 75, 79
1, 87264, Note_on_c, 1, 59, 75
1, 87309, Note_on_c, 0, 75, 0
1, 87312, Note_on_c, 0, 76, 75
1, 87353, Note_on_c, 1, 59, 0
1, 87357, Note_on_c, 0, 76, 0
1, 87360, Note_on_c, 0, 72, 75
1, 87360, Note_on_c, 1, 57, 70
1, 87372, Note_on_c, 0, 72, 0
1, 87372, Note_on_c, 0, 74, 75
1, 87384, Note_on_c, 0, 74, 0
1, 87384, Note_on_c, 0, 72, 75
1, 87399, Note_on_c, 1, 57, 0
1, 87405, Note_on_c, 0, 72, 0
1, 87408, Note_on_c, 0, 71, 75
1, 87453, Note_on_c, 0, 71, 0
1, 87456, Note_on_c, 0, 72, 76
1, 87456, Note_on_c, 1, 55, 70
1, 87476, Note_on_c, 0, 72, 0
1, 87495, Note_on_c, 1, 55, 0
1, 87504, Note_on_c, 0, 72, 77
1, 87524, Note_on_c, 0, 72, 0
1, 87552, Note_on_c, 0, 72, 78
1, 87552, Note_on_c, 1, 54, 70
1, 87564, Note_on_c, 0, 72, 0
1, 87564, Note_on_c, 0, 74, 78
1, 87576, Note_on_c, 0, 74, 0
1, 87576, Note_on_c, 0, 72, 78
1, 87591, Note_on_c, 1, 54, 0
1, 87597, Note_on_c, 0, 72, 0
1, 87600, Note_on_c, 0, 71, 79
1, 87645, Note_on_c, 0, 71, 0
1, 87648, Note_on_c, 0, 72, 80
1, 87648, Note_on_c, 1, 52, 70
1, 87668, Note_on_c, 0, 72, 0
1, 87687, Note_on_c, 1, 52, 0
1, 87696, Note_on_c, 0, 72, 80
1, 87716, Note_on_c, 0, 72, 0
1, 87744, Note_on_c, 0, 81, 80
1, 87744, Note_on_c, 1, 50, 70
1, 87931, Note_on_c, 0, 81, 0
1, 87931, Note_on_c, 1, 50, 0
1, 88032, Note_on_c, 0, 72, 80
1, 88044, Note_on_c, 0, 72, 0
1, 88044, Note_on_c, 0, 74, 80
1, 88056, Note_on_c, 0, 74, 0
1, 88056, Note_on_c, 0, 72, 80
1, 88121, Note_on_c, 0, 72, 0
1, 88128, Note_on_c, 0, 71, 75
1, 88128, Note_on_c, 1, 55, 70
1, 88140, Note_on_c, 0, 71, 0
1, 88140, Note_on_c, 0, 72, 75
1, 88152, Note_on_c, 0, 72, 0
1, 88152, Note_on_c, 0, 71, 75
1, 88167, Note_on_c, 1, 55, 0
1, 88173, Note_on_c, 0, 71, 0
1, 88176, Note_on_c, 0, 69, 75
1, 88221, Note_on_c, 0, 69, 0
1, 88224, Note_on_c, 0, 71, 76
1, 88224, Note_on_c, 1, 54, 70
1, 88244, Note_on_c, 0, 71, 0
1, 88263, Note_on_c, 1, 54, 0
1, 88272, Note_on_c, 0, 71, 76
1, 88292, Note_on_c, 0, 71, 0
1, 88320, Note_on_c, 0, 71, 77
1, 88320, Note_on_c, 1, 52, 70
1, 88332, Note_on_c, 0, 71, 0
1, 88332, Note_on_c, 0, 72, 77
1, 88344, Note_on_c, 0, 72, 0
1, 88344, Note_on_c, 0, 71, 77
1, 88359, Note_on_c, 1, 52, 0
1, 88365, Note_on_c, 0, 71, 0
1, 88368, Note_on_c, 0, 69, 78
1, 88413, Note_on_c, 0, 69, 0
1, 88416, Note_on_c, 0, 71, 78
1, 88416, Note_on_c, 1, 50, 70
1, 88436, Note_on_c, 0, 71, 0
1, 88455, Note_on_c, 1, 50, 0
1, 88464, Note_on_c, 0, 71, 79
1, 88484, Note_on_c, 0, 71, 0
1, 88512, Note_on_c, 0, 79, 80
1, 88512, Note_on_c, 1, 48, 70
1, 88699, Note_on_c, 0, 79, 0
1, 88699, Note_on_c, 1, 48, 0
1, 88800, Note_on_c, 0, 71, 80
1, 88812, Note_on_c, 0, 71, 0
1, 88812, Note_on_c, 0, 72, 80
1, 88824, Note_on_c, 0, 72, 0
1, 88824, Note_on_c, 0, 71, 80
1, 88889, Note_on_c, 0, 71, 0
1, 88896, Note_on_c, 0, 69, 75
1, 88896, Note_on_c, 1, 54, 70
1, 88908, Note_on_c, 0, 69, 0
1, 88908, Note_on_c, 0, 71, 75
1, 88920, Note_on_c, 0, 71, 0
1, 88920, Note_on_c, 0, 69, 75
1, 88935, Note_on_c, 1, 54, 0
1, 88941, Note_on_c, 0, 69, 0
1, 88944, Note_on_c, 0, 67, 75
1, 88989, Note_on_c, 0, 67, 0
1, 88992, Note_on_c, 0, 69, 76
1, 88992, Note_on_c, 1, 52, 70
1, 89012, Note_on_c, 0, 69, 0
1, 89031, Note_on_c, 1, 52, 0
1, 89040, Note_on_c, 0, 69, 76
1, 89060, Note_on_c, 0, 69, 0
1, 89088, Note_on_c, 0, 69, 77
1, 89088, Note_on_c, 1, 51, 70
1, 89100, Note_on_c, 0, 69, 0
1, 89100, Note_on_c, 0, 71, 77
1, 89112, Note_on_c, 0, 71, 0
1, 89112, Note_on_c, 0, 69, 77
1, 89127, Note_on_c, 1, 51, 0
1, 89133, Note_on_c, 0, 69, 0
1, 89136, Note_on_c, 0, 67, 78
1, 89181, Note_on_c, 0, 67, 0
1, 89184, Note_on_c, 0, 69, 78
1, 89184, Note_on_c, 1, 49, 70
1, 89204, Note_on_c, 0, 69, 0
1, 89223, Note_on_c, 1, 49, 0
1, 89232, Note_on_c, 0, 69, 79
1, 89252, Note_on_c, 0, 69, 0
1, 89280, Note_on_c, 0, 78, 80
1, 89280, Note_on_c, 1, 47, 70
1, 89285, Note_on_c, 1, 51, 70
1, 89290, Note_on_c, 1, 54, 70
1, 89295, Note_on_c, 1, 59, 70
1, 89325, Note_on_c, 0, 78, 0
1, 89328, Note_on_c, 0, 76, 79
1, 89373, Note_on_c, 0, 76, 0
1, 89376, Note_on_c, 0, 75, 78
1, 89421, Note_on_c, 0, 75, 0
1, 89424, Note_on_c, 0, 76, 78
1, 89468, Note_on_c, 1, 59, 0
1, 89468, Note_on_c, 1, 54, 0
1, 89468, Note_on_c, 1, 51, 0
1, 89468, Note_on_c, 1, 47, 0
1, 89469, Note_on_c, 0, 76, 0
1, 89472, Note_on_c, 0, 78, 77
1, 89517, Note_on_c, 0, 78, 0
1, 89520, Note_on_c, 0, 71, 76
1, 89520, Note_on_c, 1, 59, 70
1, 89565, Note_on_c, 0, 71, 0
1, 89565, Note_on_c, 1, 59, 0
1, 89568, Note_on_c, 0, 72, 76
1, 89568, Note_on_c, 1, 60, 70
1, 89613, Note_on_c, 0, 72, 0
1, 89613, Note_on_c, 1, 60, 0
1, 89616, Note_on_c, 0, 71, 75
1, 89616, Note_on_c, 1, 59, 70
1, 89661, Note_on_c, 0, 71, 0
1, 89661, Note_on_c, 1, 59, 0
1, 89664, Note_on_c, 0, 69, 75
1, 89664, Note_on_c, 1, 57, 70
1, 89709, Note_on_c, 0, 69, 0
1, 89709, Note_on_c, 1, 57, 0
1, 89712, Note_on_c, 0, 67, 75
1, 89712, Note_on_c, 1, 55, 70
1, 89757, Note_on_c, 0, 67, 0
1, 89757, Note_on_c, 1, 55, 0
1, 89760, Note_on_c, 0, 66, 75
1, 89760, Note_on_c, 1, 54, 70
1, 89805, Note_on_c, 0, 66, 0
1, 89805, Note_on_c, 1, 54, 0
1, 89808, Note_on_c, 0, 64, 75
1, 89808, Note_on_c, 1, 52, 70
1, 89853, Note_on_c, 0, 64, 0
1, 89853, Note_on_c, 1, 52, 0
1, 89856, Note_on_c, 0, 63, 75
1, 89856, Note_on_c, 1, 51, 70
1, 89901, Note_on_c, 0, 63, 0
1, 89901, Note_on_c, 1, 51, 0
1, 89904, Note_on_c, 0, 60, 75
1, 89904, Note_on_c, 1, 48, 70
1, 89949, Note_on_c, 0, 60, 0
1, 89949, Note_on_c, 1, 48, 0
1, 89952, Note_on_c, 0, 59, 75
1, 89952, Note_on_c, 1, 47, 70
1, 89997, Note_on_c, 0, 59, 0
1, 89997, Note_on_c, 1, 47, 0
1, 90000, Note_on_c, 0, 57, 75
1, 90000, Note_on_c, 1, 45, 70
1, 90045, Note_on_c, 0, 57, 0
1, 90045, Note_on_c, 1, 45, 0
1, 90048, Note_on_c, 0, 55, 75
1, 90048, Note_on_c, 1, 43, 70
1, 90068, Note_on_c, 0, 55, 0
1, 90068, Note_on_c, 1, 43, 0
1, 90096, Note_on_c, 0, 59, 75
1, 90096, Note_on_c, 1, 47, 70
1, 90141, Note_on_c, 0, 59, 0
1, 90141, Note_on_c, 1, 47, 0
1, 90144, Note_on_c, 0, 60, 75
1, 90144, Note_on_c, 1, 48, 70
1, 90189, Note_on_c, 0, 60, 0
1, 90189, Note_on_c, 1, 48, 0
1, 90192, Note_on_c, 0, 59, 75
1, 90192, Note_on_c, 1, 47, 70
1, 90237, Note_on_c, 0, 59, 0
1, 90237, Note_on_c, 1, 47, 0
1, 90240, Note_on_c, 0, 57, 76
1, 90240, Note_on_c, 1, 45, 71
1, 90285, Note_on_c, 0, 57, 0
1, 90285, Note_on_c, 1, 45, 0
1, 90288, Note_on_c, 0, 55, 76
1, 90288, Note_on_c, 1, 43, 71
1, 90333, Note_on_c, 0, 55, 0
1, 90333, Note_on_c, 1, 43, 0
1, 90336, Note_on_c, 0, 54, 76
1, 90336, Note_on_c, 1, 42, 71
1, 90381, Note_on_c, 0, 54, 0
1, 90381, Note_on_c, 1, 42, 0
1, 90384, Note_on_c, 0, 52, 77
1, 90384, Note_on_c, 1, 40, 72
1, 90429, Note_on_c, 0, 52, 0
1, 90429, Note_on_c, 1, 40, 0
1, 90432, Note_on_c, 0, 51, 77
1, 90432, Note_on_c, 1, 39, 72
1, 90452, Note_on_c, 0, 51, 0
1, 90452, Note_on_c, 1, 39, 0
1, 90480, Note_on_c, 0, 60, 77
1, 90480, Note_on_c, 1, 48, 72
1, 90525, Note_on_c, 0, 60, 0
1, 90525, Note_on_c, 1, 48, 0
1, 90528, Note_on_c, 0, 59, 78
1, 90528, Note_on_c, 1, 47, 73
1, 90573, Note_on_c, 0, 59, 0
1, 90573, Note_on_c, 1, 47, 0
1, 90576, Note_on_c, 0, 57, 78
1, 90576, Note_on_c, 1, 45, 73
1, 90621, Note_on_c, 0, 57, 0
1, 90621, Note_on_c, 1, 45, 0
1, 90624, Note_on_c, 0, 59, 78
1, 90624, Note_on_c, 1, 47, 73
1, 90663, Note_on_c, 0, 59, 0
1, 90663, Note_on_c, 1, 47, 0
1, 90720, Note_on_c, 0, 59, 95
1, 90720, Note_on_c, 1, 54, 90
1, 90720, Note_on_c, 1, 51, 90
1, 90720, Note_on_c, 1, 47, 90
1, 90759, Note_on_c, 0, 59, 0
1, 90759, Note_on_c, 1, 54, 0
1, 90759, Note_on_c, 1, 51, 0
1, 90759, Note_on_c, 1, 47, 0
1, 90816, Note_on_c, 0, 59, 97
1, 90816, Note_on_c, 0, 55, 97
1, 90816, Note_on_c, 0, 52, 97
1, 90816, Note_on_c, 1, 47, 75
1, 90816, Note_on_c, 1, 43, 75
1, 90816, Note_on_c, 1, 40, 75
1, 91081, Note_on_c, 0, 59, 0
1, 91081, Note_on_c, 0, 55, 0
1, 91081, Note_on_c, 0, 52, 0
1, 91081, Note_on_c, 1, 47, 0
1, 91081, Note_on_c, 1, 43, 0
1, 91081, Note_on_c, 1, 40, 0
1, 91200, Note_on_c, 1, 62, 75
1, 91200, Note_on_c, 1, 59, 75
1, 91200, Note_on_c, 1, 55, 75
1, 91248, Note_on_c, 0, 74, 80
1, 91268, Note_on_c, 0, 74, 0
1, 91296, Note_on_c, 0, 74, 80
1, 91308, Note_on_c, 0, 74, 0
1, 91308, Note_on_c, 0, 76, 80
1, 91320, Note_on_c, 0, 76, 0
1, 91320, Note_on_c, 0, 74, 80
1, 91341, Note_on_c, 0, 74, 0
1, 91344, Note_on_c, 0, 73, 80
1, 91367, Note_on_c, 0, 73, 0
1, 91368, Note_on_c, 0, 74, 80
1, 91377, Note_on_c, 1, 62, 0
1, 91377, Note_on_c, 1, 59, 0
1, 91377, Note_on_c, 1, 55, 0
1, 91391, Note_on_c, 0, 74, 0
1, 91392, Note_on_c, 0, 79, 80
1, 91440, Note_on_c, 0, 79, 0
1, 91440, Note_on_c, 0, 74, 80
1, 91460, Note_on_c, 0, 74, 0
1, 91488, Note_on_c, 0, 74, 80
1, 91577, Note_on_c, 0, 74, 0
1, 91584, Note_on_c, 1, 62, 75
1, 91584, Note_on_c, 1, 57, 75
1, 91584, Note_on_c, 1, 54, 75
1, 91632, Note_on_c, 0, 74, 80
1, 91652, Note_on_c, 0, 74, 0
1, 91680, Note_on_c, 0, 74, 80
1, 91692, Note_on_c, 0, 74, 0
1, 91692, Note_on_c, 0, 76, 80
1, 91704, Note_on_c, 0, 76, 0
1, 91704, Note_on_c, 0, 74, 80
1, 91725, Note_on_c, 0, 74, 0
1, 91728, Note_on_c, 0, 73, 80
1, 91751, Note_on_c, 0, 73, 0
1, 91752, Note_on_c, 0, 74, 80
1, 91761, Note_on_c, 1, 62, 0
1, 91761, Note_on_c, 1, 57, 0
1, 91761, Note_on_c, 1, 54, 0
1, 91775, Note_on_c, 0, 74, 0
1, 91776, Note_on_c, 0, 81, 80
1, 91824, Note_on_c, 0, 81, 0
1, 91824, Note_on_c, 0, 74, 80
1, 91844, Note_on_c, 0, 74, 0
1, 91872, Note_on_c, 0, 74, 80
1, 91961, Note_on_c, 0, 74, 0
1, 91968, Note_on_c, 0, 83, 80
1, 91968, Note_on_c, 1, 43, 75
1, 92013, Note_on_c, 0, 83, 0
1, 92016, Note_on_c, 0, 84, 80
1, 92057, Note_on_c, 1, 43, 0
1, 92061, Note_on_c, 0, 84, 0
1, 92064, Note_on_c, 0, 86, 80
1, 92064, Note_on_c, 1, 55, 75
1, 92109, Note_on_c, 0, 86, 0
1, 92112, Note_on_c, 0, 83, 80
1, 92153, Note_on_c, 1, 55, 0
1, 92157, Note_on_c, 0, 83, 0
1, 92160, Note_on_c, 0, 79, 80
1, 92205, Note_on_c, 0, 79, 0
1, 92208, Note_on_c, 0, 81, 80
1, 92208, Note_on_c, 1, 72, 75
1, 92253, Note_on_c, 0, 81, 0
1, 92253, Note_on_c, 1, 72, 0
1, 92256, Note_on_c, 0, 83, 80
1, 92256, Note_on_c, 1, 74, 75
1, 92301, Note_on_c, 0, 83, 0
1, 92301, Note_on_c, 1, 74, 0
1, 92304, Note_on_c, 0, 79, 80
1, 92304, Note_on_c, 1, 71, 75
1, 92349, Note_on_c, 0, 79, 0
1, 92349, Note_on_c, 1, 71, 0
1, 92352, Note_on_c, 0, 76, 80
1, 92352, Note_on_c, 1, 67, 75
1, 92397, Note_on_c, 0, 76, 0
1, 92397, Note_on_c, 1, 67, 0
1, 92400, Note_on_c, 0, 78, 80
1, 92400, Note_on_c, 1, 69, 75
1, 92445, Note_on_c, 0, 78, 0
1, 92445, Note_on_c, 1, 69, 0
1, 92448, Note_on_c, 0, 79, 80
1, 92448, Note_on_c, 1, 71, 75
1, 92493, Note_on_c, 0, 79, 0
1, 92493, Note_on_c, 1, 71, 0
1, 92496, Note_on_c, 0, 76, 80
1, 92496, Note_on_c, 1, 67, 75
1, 92541, Note_on_c, 0, 76, 0
1, 92541, Note_on_c, 1, 67, 0
1, 92544, Note_on_c, 0, 72, 80
1, 92544, Note_on_c, 1, 64, 75
1, 92589, Note_on_c, 0, 72, 0
1, 92589, Note_on_c, 1, 64, 0
1, 92592, Note_on_c, 0, 74, 80
1, 92592, Note_on_c, 1, 66, 75
1, 92637, Note_on_c, 0, 74, 0
1, 92637, Note_on_c, 1, 66, 0
1, 92640, Note_on_c, 0, 76, 80
1, 92640, Note_on_c, 1, 67, 75
1, 92685, Note_on_c, 0, 76, 0
1, 92685, Note_on_c, 1, 67, 0
1, 92688, Note_on_c, 0, 72, 80
1, 92688, Note_on_c, 1, 64, 75
1, 92733, Note_on_c, 0, 72, 0
1, 92733, Note_on_c, 1, 64, 0
1, 92736, Note_on_c, 1, 60, 75
1, 92784, Note_on_c, 0, 84, 80
1, 92807, Note_on_c, 0, 84, 0
1, 92808, Note_on_c, 0, 86, 80
1, 92831, Note_on_c, 0, 86, 0
1, 92832, Note_on_c, 0, 88, 80
1, 92877, Note_on_c, 0, 88, 0
1, 92880, Note_on_c, 0, 84, 80
1, 92913, Note_on_c, 1, 60, 0
1, 92925, Note_on_c, 0, 84, 0
1, 92928, Note_on_c, 0, 81, 80
1, 92973, Note_on_c, 0, 81, 0
1, 92976, Note_on_c, 0, 81, 80
1, 92976, Note_on_c, 1, 72, 75
1, 92999, Note_on_c, 0, 81, 0
1, 92999, Note_on_c, 1, 72, 0
1, 93000, Note_on_c, 0, 83, 80
1, 93000, Note_on_c, 1, 74, 75
1, 93023, Note_on_c, 0, 83, 0
1, 93023, Note_on_c, 1, 74, 0
1, 93024, Note_on_c, 0, 84, 80
1, 93024, Note_on_c, 1, 76, 75
1, 93069, Note_on_c, 0, 84, 0
1, 93069, Note_on_c, 1, 76, 0
1, 93072, Note_on_c, 0, 81, 80
1, 93072, Note_on_c, 1, 72, 75
1, 93117, Note_on_c, 0, 81, 0
1, 93117, Note_on_c, 1, 72, 0
1, 93120, Note_on_c, 0, 78, 80
1, 93120, Note_on_c, 1, 69, 75
1, 93165, Note_on_c, 0, 78, 0
1, 93165, Note_on_c, 1, 69, 0
1, 93168, Note_on_c, 0, 78, 80
1, 93168, Note_on_c, 1, 69, 75
1, 93191, Note_on_c, 0, 78, 0
1, 93191, Note_on_c, 1, 69, 0
1, 93192, Note_on_c, 0, 79, 80
1, 93192, Note_on_c, 1, 71, 75
1, 93215, Note_on_c, 0, 79, 0
1, 93215, Note_on_c, 1, 71, 0
1, 93216, Note_on_c, 0, 81, 80
1, 93216, Note_on_c, 1, 72, 75
1, 93261, Note_on_c, 0, 81, 0
1, 93261, Note_on_c, 1, 72, 0
1, 93264, Note_on_c, 0, 78, 80
1, 93264, Note_on_c, 1, 69, 75
1, 93309, Note_on_c, 0, 78, 0
1, 93309, Note_on_c, 1, 69, 0
1, 93312, Note_on_c, 0, 75, 80
1, 93312, Note_on_c, 1, 66, 75
1, 93357, Note_on_c, 0, 75, 0
1, 93357, Note_on_c, 1, 66, 0
1, 93360, Note_on_c, 0, 75, 80
1, 93360, Note_on_c, 1, 66, 75
1, 93383, Note_on_c, 0, 75, 0
1, 93383, Note_on_c, 1, 66, 0
1, 93384, Note_on_c, 0, 76, 80
1, 93384, Note_on_c, 1, 67, 75
1, 93407, Note_on_c, 0, 76, 0
1, 93407, Note_on_c, 1, 67, 0
1, 93408, Note_on_c, 0, 78, 80
1, 93408, Note_on_c, 1, 69, 75
1, 93453, Note_on_c, 0, 78, 0
1, 93453, Note_on_c, 1, 69, 0
1, 93456, Note_on_c, 0, 75, 80
1, 93456, Note_on_c, 1, 66, 75
1, 93501, Note_on_c, 0, 75, 0
1, 93501, Note_on_c, 1, 66, 0
1, 93504, Note_on_c, 0, 76, 80
1, 93504, Note_on_c, 1, 67, 75
1, 93549, Note_on_c, 0, 76, 0
1, 93552, Note_on_c, 0, 71, 80
1, 93593, Note_on_c, 1, 67, 0
1, 93597, Note_on_c, 0, 71, 0
1, 93600, Note_on_c, 0, 79, 80
1, 93600, Note_on_c, 1, 40, 75
1, 93645, Note_on_c, 0, 79, 0
1, 93648, Note_on_c, 0, 71, 80
1, 93689, Note_on_c, 1, 40, 0
1, 93693, Note_on_c, 0, 71, 0
1, 93696, Note_on_c, 0, 76, 80
1, 93741, Note_on_c, 0, 76, 0
1, 93744, Note_on_c, 0, 71, 80
1, 93789, Note_on_c, 0, 71, 0
1, 93792, Note_on_c, 0, 83, 96
1, 93792, Note_on_c, 1, 52, 75
1, 93831, Note_on_c, 1, 52, 0
1, 93840, Note_on_c, 0, 83, 0
1, 93840, Note_on_c, 0, 71, 80
1, 93885, Note_on_c, 0, 71, 0
1, 93888, Note_on_c, 0, 75, 80
1, 93888, Note_on_c, 1, 47, 75
1, 93927, Note_on_c, 1, 47, 0
1, 93933, Note_on_c, 0, 75, 0
1, 93936, Note_on_c, 0, 71, 80
1, 93981, Note_on_c, 0, 71, 0
1, 93984, Note_on_c, 0, 78, 80
1, 93984, Note_on_c, 1, 59, 75
1, 94023, Note_on_c, 1, 59, 0
1, 94029, Note_on_c, 0, 78, 0
1, 94032, Note_on_c, 0, 71, 80
1, 94077, Note_on_c, 0, 71, 0
1, 94080, Note_on_c, 0, 75, 80
1, 94125, Note_on_c, 0, 75, 0
1, 94128, Note_on_c, 0, 71, 80
1, 94173, Note_on_c, 0, 71, 0
1, 94176, Note_on_c, 0, 81, 96
1, 94176, Note_on_c, 1, 51, 75
1, 94215, Note_on_c, 1, 51, 0
1, 94224, Note_on_c, 0, 81, 0
1, 94224, Note_on_c, 0, 78, 80
1, 94269, Note_on_c, 0, 78, 0
1, 94272, Note_on_c, 0, 79, 80
1, 94272, Note_on_c, 1, 52, 75
1, 94311, Note_on_c, 1, 52, 0
1, 94317, Note_on_c, 0, 79, 0
1, 94320, Note_on_c, 0, 76, 80
1, 94365, Note_on_c, 0, 76, 0
1, 94368, Note_on_c, 0, 83, 80
1, 94368, Note_on_c, 1, 40, 75
1, 94407, Note_on_c, 1, 40, 0
1, 94413, Note_on_c, 0, 83, 0
1, 94416, Note_on_c, 0, 76, 80
1, 94461, Note_on_c, 0, 76, 0
1, 94464, Note_on_c, 0, 79, 80
1, 94509, Note_on_c, 0, 79, 0
1, 94512, Note_on_c, 0, 76, 80
1, 94557, Note_on_c, 0, 76, 0
1, 94560, Note_on_c, 0, 88, 96
1, 94560, Note_on_c, 1, 52, 75
1, 94599, Note_on_c, 1, 52, 0
1, 94608, Note_on_c, 0, 88, 0
1, 94608, Note_on_c, 0, 76, 80
1, 94653, Note_on_c, 0, 76, 0
1, 94656, Note_on_c, 0, 80, 80
1, 94656, Note_on_c, 1, 50, 75
1, 94695, Note_on_c, 1, 50, 0
1, 94701, Note_on_c, 0, 80, 0
1, 94704, Note_on_c, 0, 76, 80
1, 94749, Note_on_c, 0, 76, 0
1, 94752, Note_on_c, 0, 83, 80
1, 94752, Note_on_c, 1, 56, 75
1, 94791, Note_on_c, 1, 56, 0
1, 94797, Note_on_c, 0, 83, 0
1, 94800, Note_on_c, 0, 76, 80
1, 94845, Note_on_c, 0, 76, 0
1, 94848, Note_on_c, 0, 80, 80
1, 94893, Note_on_c, 0, 80, 0
1, 94896, Note_on_c, 0, 76, 80
1, 94941, Note_on_c, 0, 76, 0
1, 94944, Note_on_c, 0, 86, 80
1, 94944, Note_on_c, 1, 44, 75
1, 94983, Note_on_c, 1, 44, 0
1, 94989, Note_on_c, 0, 86, 0
1, 94992, Note_on_c, 0, 76, 80
1, 95037, Note_on_c, 0, 76, 0
1, 95040, Note_on_c, 0, 84, 80
1, 95040, Note_on_c, 1, 45, 75
1, 95079, Note_on_c, 1, 45, 0
1, 95085, Note_on_c, 0, 84, 0
1, 95088, Note_on_c, 0, 81, 80
1, 95133, Note_on_c, 0, 81, 0
1, 95136, Note_on_c, 0, 88, 80
1, 95136, Note_on_c, 1, 33, 75
1, 95175, Note_on_c, 1, 33, 0
1, 95181, Note_on_c, 0, 88, 0
1, 95184, Note_on_c, 0, 76, 80
1, 95229, Note_on_c, 0, 76, 0
1, 95232, Note_on_c, 0, 84, 80
1, 95277, Note_on_c, 0, 84, 0
1, 95280, Note_on_c, 0, 81, 80
1, 95325, Note_on_c, 0, 81, 0
1, 95328, Note_on_c, 0, 88, 80
1, 95328, Note_on_c, 1, 72, 75
1, 95367, Note_on_c, 1, 72, 0
1, 95373, Note_on_c, 0, 88, 0
1, 95376, Note_on_c, 0, 76, 80
1, 95421, Note_on_c, 0, 76, 0
1, 95424, Note_on_c, 0, 77, 80
1, 95424, Note_on_c, 1, 74, 75
1, 95436, Note_on_c, 0, 77, 0
1, 95436, Note_on_c, 0, 79, 80
1, 95448, Note_on_c, 0, 79, 0
1, 95448, Note_on_c, 0, 77, 80
1, 95463, Note_on_c, 1, 74, 0
1, 95469, Note_on_c, 0, 77, 0
1, 95472, Note_on_c, 0, 76, 80
1, 95517, Note_on_c, 0, 76, 0
1, 95520, Note_on_c, 0, 77, 80
1, 95520, Note_on_c, 1, 72, 75
1, 95559, Note_on_c, 1, 72, 0
1, 95609, Note_on_c, 0, 77, 0
1, 95616, Note_on_c, 0, 77, 80
1, 95616, Note_on_c, 1, 71, 75
1, 95628, Note_on_c, 0, 77, 0
1, 95628, Note_on_c, 0, 79, 80
1, 95640, Note_on_c, 0, 79, 0
1, 95640, Note_on_c, 0, 77, 80
1, 95655, Note_on_c, 1, 71, 0
1, 95661, Note_on_c, 0, 77, 0
1, 95664, Note_on_c, 0, 76, 80
1, 95709, Note_on_c, 0, 76, 0
1, 95712, Note_on_c, 0, 77, 80
1, 95712, Note_on_c, 1, 69, 75
1, 95751, Note_on_c, 1, 69, 0
1, 95801, Note_on_c, 0, 77, 0
1, 95808, Note_on_c, 0, 86, 96
1, 95808, Note_on_c, 1, 67, 75
1, 95847, Note_on_c, 1, 67, 0
1, 95856, Note_on_c, 0, 86, 0
1, 95856, Note_on_c, 0, 84, 80
1, 95901, Note_on_c, 0, 84, 0
1, 95904, Note_on_c, 0, 83, 80
1, 95904, Note_on_c, 1, 55, 75
1, 95943, Note_on_c, 1, 55, 0
1, 95949, Note_on_c, 0, 83, 0
1, 95952, Note_on_c, 0, 81, 80
1, 95997, Note_on_c, 0, 81, 0
1, 96000, Note_on_c, 0, 79, 80
1, 96045, Note_on_c, 0, 79, 0
1, 96048, Note_on_c, 0, 77, 80
1, 96093, Note_on_c, 0, 77, 0
1, 96096, Note_on_c, 0, 76, 80
1, 96141, Note_on_c, 0, 76, 0
1, 96144, Note_on_c, 0, 74, 80
1, 96189, Note_on_c, 0, 74, 0
1, 96192, Note_on_c, 0, 76, 80
1, 96192, Note_on_c, 1, 60, 75
1, 96204, Note_on_c, 0, 76, 0
1, 96204, Note_on_c, 0, 77, 80
1, 96216, Note_on_c, 0, 77, 0
1, 96216, Note_on_c, 0, 76, 80
1, 96231, Note_on_c, 1, 60, 0
1, 96237, Note_on_c, 0, 76, 0
1, 96240, Note_on_c, 0, 74, 80
1, 96285, Note_on_c, 0, 74, 0
1, 96288, Note_on_c, 0, 76, 80
1, 96288, Note_on_c, 1, 71, 75
1, 96327, Note_on_c, 1, 71, 0
1, 96377, Note_on_c, 0, 76, 0
1, 96384, Note_on_c, 0, 76, 80
1, 96384, Note_on_c, 1, 69, 75
1, 96396, Note_on_c, 0, 76, 0
1, 96396, Note_on_c, 0, 77, 80
1, 96408, Note_on_c, 0, 77, 0
1, 96408, Note_on_c, 0, 76, 80
1, 96423, Note_on_c, 1, 69, 0
1, 96429, Note_on_c, 0, 76, 0
1, 96432, Note_on_c, 0, 74, 80
1, 96477, Note_on_c, 0, 74, 0
1, 96480, Note_on_c, 0, 76, 80
1, 96480, Note_on_c, 1, 67, 75
1, 96519, Note_on_c, 1, 67, 0
1, 96569, Note_on_c, 0, 76, 0
1, 96576, Note_on_c, 0, 84, 96
1, 96576, Note_on_c, 1, 69, 75
1, 96615, Note_on_c, 1, 69, 0
1, 96624, Note_on_c, 0, 84, 0
1, 96624, Note_on_c, 0, 83, 80
1, 96669, Note_on_c, 0, 83, 0
1, 96672, Note_on_c, 0, 81, 80
1, 96672, Note_on_c, 1, 57, 75
1, 96711, Note_on_c, 1, 57, 0
1, 96717, Note_on_c, 0, 81, 0
1, 96720, Note_on_c, 0, 79, 80
1, 96765, Note_on_c, 0, 79, 0
1, 96768, Note_on_c, 0, 78, 80
1, 96813, Note_on_c, 0, 78, 0
1, 96816, Note_on_c, 0, 76, 80
1, 96861, Note_on_c, 0, 76, 0
1, 96864, Note_on_c, 0, 75, 80
1, 96864, Note_on_c, 1, 48, 75
1, 96909, Note_on_c, 0, 75, 0
1, 96912, Note_on_c, 0, 76, 80
1, 96953, Note_on_c, 1, 48, 0
1, 96957, Note_on_c, 0, 76, 0
1, 96960, Note_on_c, 0, 71, 80
1, 96960, Note_on_c, 1, 47, 75
1, 96972, Note_on_c, 0, 75, 80
1, 96984, Note_on_c, 0, 78, 80
1, 96996, Note_on_c, 0, 81, 80
1, 97189, Note_on_c, 0, 81, 0
1, 97189, Note_on_c, 0, 78, 0
1, 97189, Note_on_c, 0, 75, 0
1, 97189, Note_on_c, 0, 71, 0
1, 97233, Note_on_c, 1, 47, 0
1, 97248, Note_on_c, 0, 63, 80
1, 97263, Note_on_c, 0, 63, 0
1, 97264, Note_on_c, 0, 64, 80
1, 97279, Note_on_c, 0, 64, 0
1, 97280, Note_on_c, 0, 66, 80
1, 97295, Note_on_c, 0, 66, 0
1, 97296, Note_on_c, 0, 67, 80
1, 97311, Note_on_c, 0, 67, 0
1, 97312, Note_on_c, 0, 69, 80
1, 97327, Note_on_c, 0, 69, 0
1, 97328, Note_on_c, 0, 71, 80
1, 97343, Note_on_c, 0, 71, 0
1, 97344, Note_on_c, 0, 72, 96
1, 97440, Note_on_c, 0, 72, 0
1, 97440, Note_on_c, 0, 66, 80
1, 97459, Note_on_c, 0, 66, 0
1, 97460, Note_on_c, 0, 67, 80
1, 97478, Note_on_c, 0, 67, 0
1, 97479, Note_on_c, 0, 69, 80
1, 97497, Note_on_c, 0, 69, 0
1, 97498, Note_on_c, 0, 71, 80
1, 97516, Note_on_c, 0, 71, 0
1, 97517, Note_on_c, 0, 73, 80
1, 97535, Note_on_c, 0, 73, 0
1, 97536, Note_on_c, 0, 75, 96
1, 97632, Note_on_c, 0, 75, 0
1, 97632, Note_on_c, 0, 75, 80
1, 97647, Note_on_c, 0, 75, 0
1, 97648, Note_on_c, 0, 76, 80
1, 97663, Note_on_c, 0, 76, 0
1, 97664, Note_on_c, 0, 78, 80
1, 97679, Note_on_c, 0, 78, 0
1, 97680, Note_on_c, 0, 79, 80
1, 97695, Note_on_c, 0, 79, 0
1, 97696, Note_on_c, 0, 81, 80
1, 97711, Note_on_c, 0, 81, 0
1, 97712, Note_on_c, 0, 83, 80
1, 97727, Note_on_c, 0, 83, 0
1, 97728, Note_on_c, 0, 84, 96
1, 97728, Note_on_c, 0, 81, 96
1, 97728, Note_on_c, 0, 77, 96
1, 97728, Note_on_c, 0, 72, 96
1, 97728, Note_on_c, 1, 45, 75
1, 97751, Note_on_c, 1, 45, 0
1, 97752, Note_on_c, 1, 48, 75
1, 97775, Note_on_c, 1, 48, 0
1, 97776, Note_on_c, 1, 53, 75
1, 97799, Note_on_c, 1, 53, 0
1, 97800, Note_on_c, 1, 57, 75
1, 97823, Note_on_c, 1, 57, 0
1, 97824, Note_on_c, 0, 84, 0
1, 97824, Note_on_c, 0, 81, 0
1, 97824, Note_on_c, 0, 77, 0
1, 97824, Note_on_c, 0, 72, 0
1, 97824, Note_on_c, 1, 45, 75
1, 97872, Note_on_c, 0, 81, 80
1, 97895, Note_on_c, 0, 81, 0
1, 97896, Note_on_c, 0, 83, 80
1, 97913, Note_on_c, 1, 45, 0
1, 97919, Note_on_c, 0, 83, 0
1, 97920, Note_on_c, 0, 84, 80
1, 97965, Note_on_c, 0, 84, 0
1, 97968, Note_on_c, 0, 81, 80
1, 97991, Note_on_c, 0, 81, 0
1, 97992, Note_on_c, 0, 83, 80
1, 98015, Note_on_c, 0, 83, 0
1, 98016, Note_on_c, 0, 84, 80
1, 98061, Note_on_c, 0, 84, 0
1, 98064, Note_on_c, 0, 83, 80
1, 98087, Note_on_c, 0, 83, 0
1, 98088, Note_on_c, 0, 81, 80
1, 98111, Note_on_c, 0, 81, 0
1, 98112, Note_on_c, 0, 87, 96
1, 98112, Note_on_c, 0, 84, 96
1, 98112, Note_on_c, 0, 81, 96
1, 98112, Note_on_c, 0, 78, 96
1, 98112, Note_on_c, 1, 45, 75
1, 98135, Note_on_c, 1, 45, 0
1, 98136, Note_on_c, 1, 48, 75
1, 98159, Note_on_c, 1, 48, 0
1, 98160, Note_on_c, 1, 54, 75
1, 98183, Note_on_c, 1, 54, 0
1, 98184, Note_on_c, 1, 57, 75
1, 98207, Note_on_c, 1, 57, 0
1, 98208, Note_on_c, 0, 87, 0
1, 98208, Note_on_c, 0, 84, 0
1, 98208, Note_on_c, 0, 81, 0
1, 98208, Note_on_c, 0, 78, 0
1, 98208, Note_on_c, 1, 45, 75
1, 98256, Note_on_c, 0, 81, 80
1, 98279, Note_on_c, 0, 81, 0
1, 98280, Note_on_c, 0, 83, 80
1, 98297, Note_on_c, 1, 45, 0
1, 98303, Note_on_c, 0, 83, 0
1, 98304, Note_on_c, 0, 84, 80
1, 98349, Note_on_c, 0, 84, 0
1, 98352, Note_on_c, 0, 78, 80
1, 98375, Note_on_c, 0, 78, 0
1, 98376, Note_on_c, 0, 79, 80
1, 98399, Note_on_c, 0, 79, 0
1, 98400, Note_on_c, 0, 81, 80
1, 98445, Note_on_c, 0, 81, 0
1, 98448, Note_on_c, 0, 79, 80
1, 98471, Note_on_c, 0, 79, 0
1, 98472, Note_on_c, 0, 78, 80
1, 98495, Note_on_c, 0, 78, 0
1, 98496, Note_on_c, 0, 79, 96
1, 98496, Note_on_c, 0, 76, 96
1, 98496, Note_on_c, 0, 71, 96
1, 98496, Note_on_c, 1, 47, 75
1, 98519, Note_on_c, 1, 47, 0
1, 98520, Note_on_c, 1, 52, 75
1, 98543, Note_on_c, 1, 52, 0
1, 98544, Note_on_c, 1, 55, 75
1, 98567, Note_on_c, 1, 55, 0
1, 98568, Note_on_c, 1, 59, 75
1, 98591, Note_on_c, 1, 59, 0
1, 98592, Note_on_c, 0, 79, 0
1, 98592, Note_on_c, 0, 76, 0
1, 98592, Note_on_c, 0, 71, 0
1, 98592, Note_on_c, 1, 47, 75
1, 98640, Note_on_c, 0, 76, 80
1, 98663, Note_on_c, 0, 76, 0
1, 98664, Note_on_c, 0, 78, 80
1, 98681, Note_on_c, 1, 47, 0
1, 98687, Note_on_c, 0, 78, 0
1, 98688, Note_on_c, 0, 79, 80
1, 98733, Note_on_c, 0, 79, 0
1, 98736, Note_on_c, 0, 84, 78
1, 98781, Note_on_c, 0, 84, 0
1, 98784, Note_on_c, 0, 81, 76
1, 98829, Note_on_c, 0, 81, 0
1, 98832, Note_on_c, 0, 77, 74
1, 98877, Note_on_c, 0, 77, 0
1, 98880, Note_on_c, 0, 76, 72
1, 98880, Note_on_c, 1, 66, 64
1, 98880, Note_on_c, 1, 45, 64
1, 99072, Note_on_c, 0, 76, 0
1, 99072, Note_on_c, 0, 75, 65
1, 99117, Note_on_c, 0, 75, 0
1, 99117, Note_on_c, 1, 66, 0
1, 99117, Note_on_c, 1, 45, 0
1, 99168, Note_on_c, 0, 60, 80
1, 99168, Note_on_c, 1, 48, 80
1, 99168, Note_on_c, 1, 36, 80
1, 99207, Note_on_c, 0, 60, 0
1, 99207, Note_on_c, 1, 48, 0
1, 99207, Note_on_c, 1, 36, 0
1, 99264, Note_on_c, 0, 60, 96
1, 99264, Note_on_c, 1, 48, 96
1, 99264, Note_on_c, 1, 36, 96
1, 99360, Note_on_c, 0, 60, 0
1, 99360, Note_on_c, 0, 60, 80
1, 99360, Note_on_c, 1, 48, 0
1, 99360, Note_on_c, 1, 36, 0
1, 99360, Note_on_c, 1, 48, 80
1, 99360, Note_on_c, 1, 36, 80
1, 99390, Note_on_c, 0, 60, 0
1, 99392, Note_on_c, 0, 64, 80
1, 99399, Note_on_c, 1, 48, 0
1, 99399, Note_on_c, 1, 36, 0
1, 99422, Note_on_c, 0, 64, 0
1, 99424, Note_on_c, 0, 67, 80
1, 99454, Note_on_c, 0, 67, 0
1, 99456, Note_on_c, 0, 59, 96
1, 99456, Note_on_c, 1, 47, 96
1, 99456, Note_on_c, 1, 35, 96
1, 99552, Note_on_c, 0, 59, 0
1, 99552, Note_on_c, 0, 59, 80
1, 99552, Note_on_c, 1, 47, 0
1, 99552, Note_on_c, 1, 35, 0
1, 99552, Note_on_c, 1, 47, 80
1, 99552, Note_on_c, 1, 35, 80
1, 99582, Note_on_c, 0, 59, 0
1, 99584, Note_on_c, 0, 64, 80
1, 99591, Note_on_c, 1, 47, 0
1, 99591, Note_on_c, 1, 35, 0
1, 99614, Note_on_c, 0, 64, 0
1, 99616, Note_on_c, 0, 67, 80
1, 99646, Note_on_c, 0, 67, 0
1, 99648, Note_on_c, 0, 57, 96
1, 99648, Note_on_c, 1, 45, 96
1, 99648, Note_on_c, 1, 33, 96
1, 99840, Note_on_c, 0, 57, 0
1, 99840, Note_on_c, 1, 45, 0
1, 99840, Note_on_c, 1, 33, 0
1, 100128, Note_on_c, 0, 57, 70
1, 100128, Note_on_c, 1, 45, 70
1, 100158, Note_on_c, 0, 57, 0
1, 100160, Note_on_c, 0, 60, 70
1, 100167, Note_on_c, 1, 45, 0
1, 100190, Note_on_c, 0, 60, 0
1, 100192, Note_on_c, 0, 64, 70
1, 100222, Note_on_c, 0, 64, 0
1, 100224, Note_on_c, 0, 55, 86
1, 100224, Note_on_c, 1, 43, 86
1, 100320, Note_on_c, 0, 55, 0
1, 100320, Note_on_c, 0, 55, 70
1, 100320, Note_on_c, 1, 43, 0
1, 100320, Note_on_c, 1, 43, 70
1, 100350, Note_on_c, 0, 55, 0
1, 100352, Note_on_c, 0, 60, 70
1, 100359, Note_on_c, 1, 43, 0
1, 100382, Note_on_c, 0, 60, 0
1, 100384, Note_on_c, 0, 64, 70
1, 100414, Note_on_c, 0, 64, 0
1, 100416, Note_on_c, 0, 53, 86
1, 100416, Note_on_c, 1, 41, 86
1, 100603, Note_on_c, 0, 53, 0
1, 100603, Note_on_c, 1, 41, 0
1, 100800, Note_on_c, 0, 63, 64
1, 100800, Note_on_c, 0, 57, 64
1, 101080, Note_on_c, 0, 63, 0
1, 101080, Note_on_c, 0, 57, 0
1, 101184, Note_on_c, 0, 64, 64
1, 101184, Note_on_c, 0, 55, 64
1, 101184, Note_on_c, 1, 52, 70
1, 101232, Note_on_c, 0, 64, 0
1, 101232, Note_on_c, 0, 55, 0
1, 101232, Note_on_c, 0, 63, 64
1, 101232, Note_on_c, 0, 54, 64
1, 101273, Note_on_c, 1, 52, 0
1, 101277, Note_on_c, 0, 63, 0
1, 101277, Note_on_c, 0, 54, 0
1, 101280, Note_on_c, 0, 63, 64
1, 101280, Note_on_c, 0, 54, 64
1, 101280, Note_on_c, 1, 40, 70
1, 101328, Note_on_c, 0, 63, 0
1, 101328, Note_on_c, 0, 54, 0
1, 101328, Note_on_c, 0, 64, 64
1, 101328, Note_on_c, 0, 55, 64
1, 101369, Note_on_c, 1, 40, 0
1, 101373, Note_on_c, 0, 64, 0
1, 101373, Note_on_c, 0, 55, 0
1, 101376, Note_on_c, 0, 64, 64
1, 101376, Note_on_c, 0, 55, 64
1, 101424, Note_on_c, 0, 64, 0
1, 101424, Note_on_c, 0, 55, 0
1, 101424, Note_on_c, 0, 63, 64
1, 101424, Note_on_c, 0, 54, 64
1, 101469, Note_on_c, 0, 63, 0
1, 101469, Note_on_c, 0, 54, 0
1, 101472, Note_on_c, 0, 63, 64
1, 101472, Note_on_c, 0, 54, 64
1, 101472, Note_on_c, 1, 52, 70
1, 101520, Note_on_c, 0, 63, 0
1, 101520, Note_on_c, 0, 54, 0
1, 101520, Note_on_c, 0, 64, 64
1, 101520, Note_on_c, 0, 55, 64
1, 101561, Note_on_c, 1, 52, 0
1, 101565, Note_on_c, 0, 64, 0
1, 101565, Note_on_c, 0, 55, 0
1, 101568, Note_on_c, 0, 65, 64
1, 101568, Note_on_c, 0, 57, 64
1, 101568, Note_on_c, 1, 52, 70
1, 101616, Note_on_c, 0, 65, 0
1, 101616, Note_on_c, 0, 57, 0
1, 101616, Note_on_c, 0, 64, 64
1, 101616, Note_on_c, 0, 55, 64
1, 101657, Note_on_c, 1, 52, 0
1, 101661, Note_on_c, 0, 64, 0
1, 101661, Note_on_c, 0, 55, 0
1, 101664, Note_on_c, 0, 64, 64
1, 101664, Note_on_c, 0, 55, 64
1, 101664, Note_on_c, 1, 40, 70
1, 101712, Note_on_c, 0, 64, 0
1, 101712, Note_on_c, 0, 55, 0
1, 101712, Note_on_c, 0, 65, 64
1, 101712, Note_on_c, 0, 57, 64
1, 101753, Note_on_c, 1, 40, 0
1, 101757, Note_on_c, 0, 65, 0
1, 101757, Note_on_c, 0, 57, 0
1, 101760, Note_on_c, 0, 65, 64
1, 101760, Note_on_c, 0, 57, 64
1, 101805, Note_on_c, 0, 65, 0
1, 101805, Note_on_c, 0, 57, 0
1, 101808, Note_on_c, 0, 69, 64
1, 101808, Note_on_c, 0, 60, 64
1, 101853, Note_on_c, 0, 69, 0
1, 101853, Note_on_c, 0, 60, 0
1, 101856, Note_on_c, 0, 67, 64
1, 101856, Note_on_c, 0, 59, 64
1, 101856, Note_on_c, 1, 47, 64
1, 101901, Note_on_c, 0, 67, 0
1, 101901, Note_on_c, 0, 59, 0
1, 101904, Note_on_c, 0, 65, 64
1, 101904, Note_on_c, 0, 57, 64
1, 101945, Note_on_c, 1, 47, 0
1, 101949, Note_on_c, 0, 65, 0
1, 101949, Note_on_c, 0, 57, 0
1, 101952, Note_on_c, 0, 64, 64
1, 101952, Note_on_c, 0, 55, 64
1, 101952, Note_on_c, 1, 52, 64
1, 102000, Note_on_c, 0, 64, 0
1, 102000, Note_on_c, 0, 55, 0
1, 102000, Note_on_c, 0, 63, 63
1, 102000, Note_on_c, 0, 57, 63
1, 102000, Note_on_c, 1, 52, 0
1, 102000, Note_on_c, 1, 53, 63
1, 102045, Note_on_c, 0, 63, 0
1, 102045, Note_on_c, 0, 57, 0
1, 102045, Note_on_c, 1, 53, 0
1, 102048, Note_on_c, 0, 64, 63
1, 102048, Note_on_c, 0, 55, 63
1, 102048, Note_on_c, 1, 52, 63
1, 102096, Note_on_c, 0, 64, 0
1, 102096, Note_on_c, 0, 55, 0
1, 102096, Note_on_c, 0, 63, 62
1, 102096, Note_on_c, 0, 57, 62
1, 102096, Note_on_c, 1, 52, 0
1, 102096, Note_on_c, 1, 53, 62
1, 102141, Note_on_c, 0, 63, 0
1, 102141, Note_on_c, 0, 57, 0
1, 102141, Note_on_c, 1, 53, 0
1, 102144, Note_on_c, 0, 64, 62
1, 102144, Note_on_c, 0, 55, 62
1, 102144, Note_on_c, 1, 52, 62
1, 102192, Note_on_c, 0, 64, 0
1, 102192, Note_on_c, 0, 55, 0
1, 102192, Note_on_c, 0, 63, 61
1, 102192, Note_on_c, 0, 57, 61
1, 102192, Note_on_c, 1, 52, 0
1, 102192, Note_on_c, 1, 53, 61
1, 102237, Note_on_c, 0, 63, 0
1, 102237, Note_on_c, 0, 57, 0
1, 102237, Note_on_c, 1, 53, 0
1, 102240, Note_on_c, 0, 64, 61
1, 102240, Note_on_c, 0, 55, 61
1, 102240, Note_on_c, 1, 52, 61
1, 102288, Note_on_c, 0, 64, 0
1, 102288, Note_on_c, 0, 55, 0
1, 102288, Note_on_c, 0, 63, 60
1, 102288, Note_on_c, 0, 57, 60
1, 102288, Note_on_c, 1, 52, 0
1, 102288, Note_on_c, 1, 53, 60
1, 102333, Note_on_c, 0, 63, 0
1, 102333, Note_on_c, 0, 57, 0
1, 102333, Note_on_c, 1, 53, 0
1, 102336, Note_on_c, 0, 64, 60
1, 102336, Note_on_c, 0, 55, 60
1, 102336, Note_on_c, 1, 52, 60
1, 102425, Note_on_c, 1, 52, 0
1, 102432, Note_on_c, 1, 51, 59
1, 102528, Note_on_c, 1, 51, 0
1, 102528, Note_on_c, 1, 52, 58
1, 102609, Note_on_c, 0, 64, 0
1, 102609, Note_on_c, 0, 55, 0
1, 102617, Note_on_c, 1, 52, 0
1, 102720, Note_on_c, 1, 52, 58
1, 102809, Note_on_c, 1, 52, 0
1, 102819, End_track
0, 0, End_of_file