0, 0, Header, 0, 1, 96
1, 0, Start_track
1, 0, Tempo, 1090909
1, 0, Note_on_c, 0, 84, 80
1, 0, Note_on_c, 1, 48, 70
1, 15, Note_on_c, 1, 48, 0
1, 16, Note_on_c, 1, 52, 70
1, 31, Note_on_c, 1, 52, 0
1, 32, Note_on_c, 1, 48, 70
1, 47, Note_on_c, 1, 48, 0
1, 48, Note_on_c, 1, 50, 71
1, 63, Note_on_c, 1, 50, 0
1, 64, Note_on_c, 1, 53, 71
1, 79, Note_on_c, 1, 53, 0
1, 80, Note_on_c, 1, 50, 72
1, 95, Note_on_c, 1, 50, 0
1, 96, Note_on_c, 0, 84, 0
1, 96, Note_on_c, 0, 72, 75
1, 96, Note_on_c, 1, 52, 72
1, 102, Note_on_c, 0, 72, 0
1, 102, Note_on_c, 0, 71, 75
1, 108, Note_on_c, 0, 71, 0
1, 108, Note_on_c, 0, 72, 75
1, 111, Note_on_c, 1, 52, 0
1, 112, Note_on_c, 1, 55, 72
1, 127, Note_on_c, 1, 55, 0
1, 128, Note_on_c, 1, 52, 73
1, 143, Note_on_c, 1, 52, 0
1, 144, Note_on_c, 1, 53, 73
1, 159, Note_on_c, 1, 53, 0
1, 160, Note_on_c, 1, 57, 74
1, 175, Note_on_c, 1, 57, 0
1, 176, Note_on_c, 1, 53, 74
1, 191, Note_on_c, 1, 53, 0
1, 192, Note_on_c, 1, 52, 75
1, 207, Note_on_c, 1, 52, 0
1, 208, Note_on_c, 1, 55, 74
1, 215, Note_on_c, 0, 72, 0
1, 216, Note_on_c, 0, 74, 78
1, 223, Note_on_c, 1, 55, 0
1, 224, Note_on_c, 1, 52, 74
1, 228, Note_on_c, 0, 74, 0
1, 228, Note_on_c, 0, 76, 78
1, 239, Note_on_c, 1, 52, 0
1, 240, Note_on_c, 0, 76, 0
1, 240, Note_on_c, 0, 77, 78
1, 240, Note_on_c, 1, 50, 73
1, 252, Note_on_c, 0, 77, 0
1, 252, Note_on_c, 0, 79, 79
1, 255, Note_on_c, 1, 50, 0
1, 256, Note_on_c, 1, 53, 73
1, 264, Note_on_c, 0, 79, 0
1, 264, Note_on_c, 0, 81, 79
1, 271, Note_on_c, 1, 53, 0
1, 272, Note_on_c, 1, 50, 72
1, 276, Note_on_c, 0, 81, 0
1, 276, Note_on_c, 0, 83, 79
1, 287, Note_on_c, 1, 50, 0
1, 288, Note_on_c, 0, 83, 0
1, 288, Note_on_c, 0, 84, 96
1, 288, Note_on_c, 1, 48, 70
1, 303, Note_on_c, 1, 48, 0
1, 304, Note_on_c, 1, 52, 70
1, 319, Note_on_c, 1, 52, 0
1, 320, Note_on_c, 1, 48, 70
1, 335, Note_on_c, 1, 48, 0
1, 336, Note_on_c, 1, 50, 71
1, 351, Note_on_c, 1, 50, 0
1, 352, Note_on_c, 1, 53, 71
1, 367, Note_on_c, 1, 53, 0
1, 368, Note_on_c, 1, 50, 71
1, 383, Note_on_c, 1, 50, 0
1, 384, Note_on_c, 0, 84, 0
1, 384, Note_on_c, 0, 72, 75
1, 384, Note_on_c, 1, 52, 72
1, 390, Note_on_c, 0, 72, 0
1, 390, Note_on_c, 0, 71, 75
1, 396, Note_on_c, 0, 71, 0
1, 396, Note_on_c, 0, 72, 75
1, 399, Note_on_c, 1, 52, 0
1, 400, Note_on_c, 1, 55, 72
1, 415, Note_on_c, 1, 55, 0
1, 416, Note_on_c, 1, 52, 73
1, 431, Note_on_c, 1, 52, 0
1, 432, Note_on_c, 1, 53, 73
1, 447, Note_on_c, 1, 53, 0
1, 448, Note_on_c, 1, 57, 73
1, 463, Note_on_c, 1, 57, 0
1, 464, Note_on_c, 1, 53, 74
1, 479, Note_on_c, 1, 53, 0
1, 480, Note_on_c, 1, 52, 74
1, 495, Note_on_c, 1, 52, 0
1, 496, Note_on_c, 1, 55, 75
1, 503, Note_on_c, 0, 72, 0
1, 504, Note_on_c, 0, 74, 78
1, 511, Note_on_c, 1, 55, 0
1, 512, Note_on_c, 1, 52, 74
1, 516, Note_on_c, 0, 74, 0
1, 516, Note_on_c, 0, 76, 78
1, 527, Note_on_c, 1, 52, 0
1, 528, Note_on_c, 0, 76, 0
1, 528, Note_on_c, 0, 77, 78
1, 528, Note_on_c, 1, 50, 74
1, 540, Note_on_c, 0, 77, 0
1, 540, Note_on_c, 0, 79, 79
1, 543, Note_on_c, 1, 50, 0
1, 544, Note_on_c, 1, 53, 73
1, 552, Note_on_c, 0, 79, 0
1, 552, Note_on_c, 0, 81, 79
1, 559, Note_on_c, 1, 53, 0
1, 560, Note_on_c, 1, 50, 73
1, 564, Note_on_c, 0, 81, 0
1, 564, Note_on_c, 0, 83, 79
1, 575, Note_on_c, 1, 50, 0
1, 576, Note_on_c, 0, 83, 0
1, 576, Note_on_c, 0, 84, 96
1, 576, Note_on_c, 1, 48, 70
1, 592, Note_on_c, 0, 84, 0
1, 592, Note_on_c, 0, 79, 70
1, 599, Note_on_c, 1, 48, 0
1, 607, Note_on_c, 0, 79, 0
1, 608, Note_on_c, 0, 79, 70
1, 623, Note_on_c, 0, 79, 0
1, 624, Note_on_c, 0, 79, 70
1, 624, Note_on_c, 1, 72, 64
1, 624, Note_on_c, 1, 69, 64
1, 630, Note_on_c, 0, 79, 0
1, 630, Note_on_c, 0, 81, 70
1, 636, Note_on_c, 0, 81, 0
1, 636, Note_on_c, 0, 79, 70
1, 640, Note_on_c, 0, 79, 0
1, 640, Note_on_c, 0, 77, 70
1, 644, Note_on_c, 1, 72, 0
1, 644, Note_on_c, 1, 69, 0
1, 655, Note_on_c, 0, 77, 0
1, 656, Note_on_c, 0, 77, 70
1, 671, Note_on_c, 0, 77, 0
1, 672, Note_on_c, 0, 77, 70
1, 672, Note_on_c, 1, 71, 64
1, 672, Note_on_c, 1, 67, 64
1, 678, Note_on_c, 0, 77, 0
1, 678, Note_on_c, 0, 79, 70
1, 684, Note_on_c, 0, 79, 0
1, 684, Note_on_c, 0, 77, 70
1, 688, Note_on_c, 0, 77, 0
1, 688, Note_on_c, 0, 76, 70
1, 692, Note_on_c, 1, 71, 0
1, 692, Note_on_c, 1, 67, 0
1, 703, Note_on_c, 0, 76, 0
1, 704, Note_on_c, 0, 76, 70
1, 719, Note_on_c, 0, 76, 0
1, 720, Note_on_c, 0, 76, 70
1, 720, Note_on_c, 1, 69, 64
1, 720, Note_on_c, 1, 65, 64
1, 736, Note_on_c, 0, 76, 0
1, 736, Note_on_c, 0, 74, 70
1, 751, Note_on_c, 0, 74, 0
1, 752, Note_on_c, 0, 74, 70
1, 767, Note_on_c, 0, 74, 0
1, 768, Note_on_c, 0, 74, 70
1, 768, Note_on_c, 1, 69, 0
1, 768, Note_on_c, 1, 65, 0
1, 768, Note_on_c, 1, 67, 64
1, 768, Note_on_c, 1, 64, 64
1, 774, Note_on_c, 0, 74, 0
1, 774, Note_on_c, 0, 76, 70
1, 780, Note_on_c, 0, 76, 0
1, 780, Note_on_c, 0, 74, 70
1, 784, Note_on_c, 0, 74, 0
1, 784, Note_on_c, 0, 72, 70
1, 788, Note_on_c, 1, 67, 0
1, 788, Note_on_c, 1, 64, 0
1, 799, Note_on_c, 0, 72, 0
1, 800, Note_on_c, 0, 72, 70
1, 815, Note_on_c, 0, 72, 0
1, 816, Note_on_c, 0, 67, 86
1, 816, Note_on_c, 1, 60, 64
1, 816, Note_on_c, 1, 57, 64
1, 832, Note_on_c, 0, 67, 0
1, 832, Note_on_c, 0, 64, 70
1, 836, Note_on_c, 1, 60, 0
1, 836, Note_on_c, 1, 57, 0
1, 847, Note_on_c, 0, 64, 0
1, 848, Note_on_c, 0, 65, 86
1, 864, Note_on_c, 1, 59, 64
1, 864, Note_on_c, 1, 55, 64
1, 879, Note_on_c, 0, 65, 0
1, 880, Note_on_c, 0, 63, 70
1, 884, Note_on_c, 1, 59, 0
1, 884, Note_on_c, 1, 55, 0
1, 895, Note_on_c, 0, 63, 0
1, 896, Note_on_c, 0, 64, 86
1, 912, Note_on_c, 1, 57, 64
1, 912, Note_on_c, 1, 53, 64
1, 927, Note_on_c, 0, 64, 0
1, 928, Note_on_c, 0, 61, 70
1, 943, Note_on_c, 0, 61, 0
1, 944, Note_on_c, 0, 62, 86
1, 960, Note_on_c, 1, 57, 0
1, 960, Note_on_c, 1, 53, 0
1, 960, Note_on_c, 1, 55, 64
1, 960, Note_on_c, 1, 52, 64
1, 975, Note_on_c, 0, 62, 0
1, 976, Note_on_c, 0, 59, 70
1, 980, Note_on_c, 1, 55, 0
1, 980, Note_on_c, 1, 52, 0
1, 991, Note_on_c, 0, 59, 0
1, 992, Note_on_c, 0, 60, 70
1, 1007, Note_on_c, 0, 60, 0
1, 1008, Note_on_c, 0, 65, 80
1, 1008, Note_on_c, 0, 62, 80
1, 1008, Note_on_c, 1, 47, 80
1, 1008, Note_on_c, 1, 35, 80
1, 1042, Note_on_c, 0, 65, 0
1, 1042, Note_on_c, 0, 62, 0
1, 1042, Note_on_c, 1, 47, 0
1, 1042, Note_on_c, 1, 35, 0
1, 1044, Note_on_c, 0, 64, 80
1, 1044, Note_on_c, 0, 60, 80
1, 1044, Note_on_c, 1, 48, 80
1, 1044, Note_on_c, 1, 36, 80
1, 1056, Note_on_c, 0, 64, 0
1, 1056, Note_on_c, 0, 60, 0
1, 1056, Note_on_c, 0, 69, 80
1, 1056, Note_on_c, 0, 65, 80
1, 1056, Note_on_c, 0, 60, 80
1, 1056, Note_on_c, 1, 48, 0
1, 1056, Note_on_c, 1, 36, 0
1, 1056, Note_on_c, 1, 41, 80
1, 1056, Note_on_c, 1, 29, 80
1, 1066, Note_on_c, 0, 69, 0
1, 1066, Note_on_c, 0, 65, 0
1, 1066, Note_on_c, 0, 60, 0
1, 1066, Note_on_c, 1, 41, 0
1, 1066, Note_on_c, 1, 29, 0
1, 1104, Note_on_c, 0, 59, 80
1, 1104, Note_on_c, 0, 55, 80
1, 1104, Note_on_c, 0, 50, 80
1, 1104, Note_on_c, 1, 43, 80
1, 1104, Note_on_c, 1, 31, 80
1, 1114, Note_on_c, 0, 59, 0
1, 1114, Note_on_c, 0, 55, 0
1, 1114, Note_on_c, 0, 50, 0
1, 1114, Note_on_c, 1, 43, 0
1, 1114, Note_on_c, 1, 31, 0
1, 1152, Note_on_c, 1, 48, 80
1, 1152, Note_on_c, 1, 36, 80
1, 1184, Note_on_c, 0, 84, 80
1, 1191, Note_on_c, 0, 84, 0
1, 1200, Note_on_c, 0, 76, 70
1, 1216, Note_on_c, 0, 76, 0
1, 1216, Note_on_c, 0, 77, 70
1, 1231, Note_on_c, 0, 77, 0
1, 1232, Note_on_c, 0, 81, 70
1, 1239, Note_on_c, 0, 81, 0
1, 1241, Note_on_c, 1, 48, 0
1, 1241, Note_on_c, 1, 36, 0
1, 1248, Note_on_c, 0, 75, 70
1, 1264, Note_on_c, 0, 75, 0
1, 1264, Note_on_c, 0, 76, 70
1, 1279, Note_on_c, 0, 76, 0
1, 1280, Note_on_c, 0, 79, 70
1, 1287, Note_on_c, 0, 79, 0
1, 1296, Note_on_c, 0, 73, 70
1, 1312, Note_on_c, 0, 73, 0
1, 1312, Note_on_c, 0, 74, 70
1, 1327, Note_on_c, 0, 74, 0
1, 1328, Note_on_c, 0, 77, 70
1, 1335, Note_on_c, 0, 77, 0
1, 1344, Note_on_c, 0, 71, 70
1, 1344, Note_on_c, 1, 59, 70
1, 1360, Note_on_c, 0, 71, 0
1, 1360, Note_on_c, 0, 72, 70
1, 1360, Note_on_c, 1, 59, 0
1, 1360, Note_on_c, 1, 60, 70
1, 1375, Note_on_c, 0, 72, 0
1, 1375, Note_on_c, 1, 60, 0
1, 1376, Note_on_c, 0, 76, 70
1, 1376, Note_on_c, 1, 64, 70
1, 1383, Note_on_c, 0, 76, 0
1, 1383, Note_on_c, 1, 64, 0
1, 1392, Note_on_c, 0, 68, 70
1, 1392, Note_on_c, 1, 56, 70
1, 1408, Note_on_c, 0, 68, 0
1, 1408, Note_on_c, 0, 69, 70
1, 1408, Note_on_c, 1, 56, 0
1, 1408, Note_on_c, 1, 57, 70
1, 1423, Note_on_c, 0, 69, 0
1, 1423, Note_on_c, 1, 57, 0
1, 1424, Note_on_c, 0, 64, 71
1, 1424, Note_on_c, 1, 52, 71
1, 1439, Note_on_c, 0, 64, 0
1, 1439, Note_on_c, 1, 52, 0
1, 1440, Note_on_c, 0, 65, 71
1, 1440, Note_on_c, 1, 53, 71
1, 1456, Note_on_c, 0, 69, 58
1, 1470, Note_on_c, 0, 65, 0
1, 1470, Note_on_c, 1, 53, 0
1, 1471, Note_on_c, 0, 69, 0
1, 1472, Note_on_c, 0, 64, 71
1, 1472, Note_on_c, 1, 52, 71
1, 1487, Note_on_c, 0, 64, 0
1, 1487, Note_on_c, 1, 52, 0
1, 1488, Note_on_c, 0, 65, 71
1, 1488, Note_on_c, 1, 53, 71
1, 1504, Note_on_c, 0, 69, 58
1, 1518, Note_on_c, 0, 65, 0
1, 1518, Note_on_c, 1, 53, 0
1, 1519, Note_on_c, 0, 69, 0
1, 1520, Note_on_c, 0, 61, 72
1, 1520, Note_on_c, 1, 49, 72
1, 1535, Note_on_c, 0, 61, 0
1, 1535, Note_on_c, 1, 49, 0
1, 1536, Note_on_c, 0, 62, 72
1, 1536, Note_on_c, 1, 50, 72
1, 1546, Note_on_c, 1, 50, 0
1, 1548, Note_on_c, 0, 62, 0
1, 1548, Note_on_c, 0, 64, 72
1, 1560, Note_on_c, 0, 64, 0
1, 1560, Note_on_c, 0, 65, 73
1, 1560, Note_on_c, 1, 38, 73
1, 1570, Note_on_c, 1, 38, 0
1, 1572, Note_on_c, 0, 65, 0
1, 1572, Note_on_c, 0, 64, 73
1, 1584, Note_on_c, 0, 64, 0
1, 1584, Note_on_c, 0, 62, 73
1, 1584, Note_on_c, 1, 42, 73
1, 1594, Note_on_c, 1, 42, 0
1, 1596, Note_on_c, 0, 62, 0
1, 1596, Note_on_c, 0, 60, 73
1, 1608, Note_on_c, 0, 60, 0
1, 1608, Note_on_c, 0, 59, 73
1, 1608, Note_on_c, 1, 45, 73
1, 1618, Note_on_c, 1, 45, 0
1, 1620, Note_on_c, 0, 59, 0
1, 1620, Note_on_c, 0, 57, 74
1, 1632, Note_on_c, 0, 57, 0
1, 1632, Note_on_c, 0, 59, 75
1, 1632, Note_on_c, 1, 43, 75
1, 1648, Note_on_c, 0, 59, 0
1, 1648, Note_on_c, 0, 69, 76
1, 1663, Note_on_c, 0, 69, 0
1, 1664, Note_on_c, 0, 72, 77
1, 1667, Note_on_c, 1, 43, 0
1, 1679, Note_on_c, 0, 72, 0
1, 1680, Note_on_c, 0, 71, 78
1, 1680, Note_on_c, 1, 49, 75
1, 1695, Note_on_c, 0, 71, 0
1, 1696, Note_on_c, 0, 69, 80
1, 1711, Note_on_c, 0, 69, 0
1, 1712, Note_on_c, 0, 67, 78
1, 1727, Note_on_c, 0, 67, 0
1, 1728, Note_on_c, 0, 66, 75
1, 1728, Note_on_c, 1, 49, 0
1, 1728, Note_on_c, 1, 50, 75
1, 1743, Note_on_c, 0, 66, 0
1, 1743, Note_on_c, 1, 50, 0
1, 1744, Note_on_c, 0, 57, 75
1, 1744, Note_on_c, 1, 45, 75
1, 1759, Note_on_c, 0, 57, 0
1, 1759, Note_on_c, 1, 45, 0
1, 1760, Note_on_c, 0, 60, 76
1, 1760, Note_on_c, 1, 48, 76
1, 1775, Note_on_c, 0, 60, 0
1, 1775, Note_on_c, 1, 48, 0
1, 1776, Note_on_c, 0, 59, 78
1, 1776, Note_on_c, 1, 47, 78
1, 1791, Note_on_c, 0, 59, 0
1, 1791, Note_on_c, 1, 47, 0
1, 1792, Note_on_c, 0, 57, 80
1, 1792, Note_on_c, 1, 45, 80
1, 1807, Note_on_c, 0, 57, 0
1, 1807, Note_on_c, 1, 45, 0
1, 1808, Note_on_c, 0, 55, 79
1, 1808, Note_on_c, 1, 43, 78
1, 1823, Note_on_c, 0, 55, 0
1, 1823, Note_on_c, 1, 43, 0
1, 1824, Note_on_c, 0, 62, 78
1, 1824, Note_on_c, 0, 57, 78
1, 1824, Note_on_c, 0, 54, 78
1, 1824, Note_on_c, 1, 50, 75
1, 1834, Note_on_c, 1, 50, 0
1, 1847, Note_on_c, 0, 62, 0
1, 1847, Note_on_c, 0, 57, 0
1, 1847, Note_on_c, 0, 54, 0
1, 1872, Note_on_c, 0, 62, 75
1, 1872, Note_on_c, 0, 57, 75
1, 1872, Note_on_c, 0, 54, 75
1, 1872, Note_on_c, 1, 38, 70
1, 1917, Note_on_c, 0, 62, 0
1, 1917, Note_on_c, 0, 57, 0
1, 1917, Note_on_c, 0, 54, 0
1, 1917, Note_on_c, 1, 38, 0
1, 2016, Note_on_c, 0, 71, 70
1, 2016, Note_on_c, 1, 55, 64
1, 2017, Note_on_c, 1, 59, 64
1, 2018, Note_on_c, 1, 62, 64
1, 2019, Note_on_c, 1, 67, 64
1, 2031, Note_on_c, 0, 71, 0
1, 2032, Note_on_c, 0, 74, 70
1, 2047, Note_on_c, 0, 74, 0
1, 2048, Note_on_c, 0, 79, 70
1, 2063, Note_on_c, 0, 79, 0
1, 2064, Note_on_c, 0, 71, 71
1, 2079, Note_on_c, 0, 71, 0
1, 2080, Note_on_c, 0, 74, 71
1, 2095, Note_on_c, 0, 74, 0
1, 2096, Note_on_c, 0, 79, 72
1, 2106, Note_on_c, 1, 67, 0
1, 2106, Note_on_c, 1, 62, 0
1, 2106, Note_on_c, 1, 59, 0
1, 2106, Note_on_c, 1, 55, 0
1, 2111, Note_on_c, 0, 79, 0
1, 2112, Note_on_c, 0, 72, 72
1, 2127, Note_on_c, 0, 72, 0
1, 2128, Note_on_c, 0, 76, 73
1, 2143, Note_on_c, 0, 76, 0
1, 2144, Note_on_c, 0, 79, 73
1, 2159, Note_on_c, 0, 79, 0
1, 2160, Note_on_c, 0, 72, 74
1, 2160, Note_on_c, 1, 67, 64
1, 2160, Note_on_c, 1, 64, 64
1, 2175, Note_on_c, 0, 72, 0
1, 2176, Note_on_c, 0, 76, 74
1, 2191, Note_on_c, 0, 76, 0
1, 2192, Note_on_c, 0, 79, 74
1, 2205, Note_on_c, 1, 67, 0
1, 2205, Note_on_c, 1, 64, 0
1, 2207, Note_on_c, 0, 79, 0
1, 2208, Note_on_c, 0, 71, 74
1, 2208, Note_on_c, 1, 67, 62
1, 2208, Note_on_c, 1, 62, 62
1, 2223, Note_on_c, 0, 71, 0
1, 2224, Note_on_c, 0, 74, 74
1, 2239, Note_on_c, 0, 74, 0
1, 2240, Note_on_c, 0, 79, 73
1, 2253, Note_on_c, 1, 67, 0
1, 2253, Note_on_c, 1, 62, 0
1, 2255, Note_on_c, 0, 79, 0
1, 2256, Note_on_c, 0, 69, 73
1, 2256, Note_on_c, 1, 66, 60
1, 2256, Note_on_c, 1, 62, 60
1, 2271, Note_on_c, 0, 69, 0
1, 2272, Note_on_c, 0, 72, 72
1, 2287, Note_on_c, 0, 72, 0
1, 2288, Note_on_c, 0, 81, 72
1, 2301, Note_on_c, 1, 66, 0
1, 2301, Note_on_c, 1, 62, 0
1, 2303, Note_on_c, 0, 81, 0
1, 2304, Note_on_c, 1, 59, 64
1, 2319, Note_on_c, 1, 59, 0
1, 2320, Note_on_c, 0, 78, 70
1, 2320, Note_on_c, 1, 62, 64
1, 2335, Note_on_c, 1, 62, 0
1, 2336, Note_on_c, 0, 78, 0
1, 2336, Note_on_c, 0, 79, 70
1, 2336, Note_on_c, 1, 67, 64
1, 2351, Note_on_c, 0, 79, 0
1, 2351, Note_on_c, 1, 67, 0
1, 2352, Note_on_c, 1, 59, 64
1, 2367, Note_on_c, 1, 59, 0
1, 2368, Note_on_c, 0, 79, 70
1, 2368, Note_on_c, 1, 62, 64
1, 2383, Note_on_c, 1, 62, 0
1, 2384, Note_on_c, 0, 79, 0
1, 2384, Note_on_c, 0, 77, 70
1, 2384, Note_on_c, 1, 67, 64
1, 2399, Note_on_c, 0, 77, 0
1, 2399, Note_on_c, 1, 67, 0
1, 2400, Note_on_c, 0, 76, 70
1, 2400, Note_on_c, 1, 60, 64
1, 2415, Note_on_c, 0, 76, 0
1, 2415, Note_on_c, 1, 60, 0
1, 2416, Note_on_c, 0, 84, 70
1, 2416, Note_on_c, 1, 64, 64
1, 2431, Note_on_c, 1, 64, 0
1, 2432, Note_on_c, 0, 84, 0
1, 2432, Note_on_c, 0, 83, 70
1, 2432, Note_on_c, 1, 67, 64
1, 2447, Note_on_c, 0, 83, 0
1, 2447, Note_on_c, 1, 67, 0
1, 2448, Note_on_c, 1, 61, 65
1, 2463, Note_on_c, 1, 61, 0
1, 2464, Note_on_c, 0, 81, 71
1, 2464, Note_on_c, 1, 64, 65
1, 2479, Note_on_c, 1, 64, 0
1, 2480, Note_on_c, 0, 81, 0
1, 2480, Note_on_c, 0, 79, 72
1, 2480, Note_on_c, 1, 67, 66
1, 2495, Note_on_c, 0, 79, 0
1, 2495, Note_on_c, 1, 67, 0
1, 2496, Note_on_c, 0, 78, 72
1, 2496, Note_on_c, 1, 62, 66
1, 2511, Note_on_c, 0, 78, 0
1, 2511, Note_on_c, 1, 62, 0
1, 2512, Note_on_c, 0, 86, 72
1, 2512, Note_on_c, 1, 66, 67
1, 2527, Note_on_c, 1, 66, 0
1, 2528, Note_on_c, 0, 86, 0
1, 2528, Note_on_c, 0, 84, 73
1, 2528, Note_on_c, 1, 69, 67
1, 2543, Note_on_c, 0, 84, 0
1, 2543, Note_on_c, 1, 69, 0
1, 2544, Note_on_c, 1, 63, 68
1, 2559, Note_on_c, 1, 63, 0
1, 2560, Note_on_c, 0, 83, 74
1, 2560, Note_on_c, 1, 66, 68
1, 2575, Note_on_c, 1, 66, 0
1, 2576, Note_on_c, 0, 83, 0
1, 2576, Note_on_c, 0, 81, 74
1, 2576, Note_on_c, 1, 69, 69
1, 2591, Note_on_c, 0, 81, 0
1, 2591, Note_on_c, 1, 69, 0
1, 2592, Note_on_c, 0, 79, 75
1, 2592, Note_on_c, 1, 64, 69
1, 2607, Note_on_c, 0, 79, 0
1, 2607, Note_on_c, 1, 64, 0
1, 2608, Note_on_c, 0, 88, 75
1, 2608, Note_on_c, 1, 67, 69
1, 2623, Note_on_c, 1, 67, 0
1, 2624, Note_on_c, 0, 88, 0
1, 2624, Note_on_c, 0, 86, 75
1, 2624, Note_on_c, 1, 71, 70
1, 2639, Note_on_c, 0, 86, 0
1, 2639, Note_on_c, 1, 71, 0
1, 2640, Note_on_c, 1, 64, 70
1, 2655, Note_on_c, 1, 64, 0
1, 2656, Note_on_c, 0, 84, 76
1, 2656, Note_on_c, 1, 67, 71
1, 2671, Note_on_c, 1, 67, 0
1, 2672, Note_on_c, 0, 84, 0
1, 2672, Note_on_c, 0, 83, 77
1, 2672, Note_on_c, 1, 71, 71
1, 2687, Note_on_c, 0, 83, 0
1, 2687, Note_on_c, 1, 71, 0
1, 2688, Note_on_c, 0, 81, 80
1, 2688, Note_on_c, 1, 66, 75
1, 2700, Note_on_c, 0, 81, 0
1, 2700, Note_on_c, 0, 83, 80
1, 2712, Note_on_c, 0, 83, 0
1, 2712, Note_on_c, 0, 84, 80
1, 2724, Note_on_c, 0, 84, 0
1, 2724, Note_on_c, 0, 83, 80
1, 2733, Note_on_c, 1, 66, 0
1, 2736, Note_on_c, 0, 83, 0
1, 2736, Note_on_c, 0, 81, 80
1, 2748, Note_on_c, 0, 81, 0
1, 2748, Note_on_c, 0, 79, 80
1, 2760, Note_on_c, 0, 79, 0
1, 2760, Note_on_c, 0, 78, 80
1, 2772, Note_on_c, 0, 78, 0
1, 2772, Note_on_c, 0, 76, 80
1, 2784, Note_on_c, 0, 76, 0
1, 2784, Note_on_c, 0, 74, 80
1, 2796, Note_on_c, 0, 74, 0
1, 2796, Note_on_c, 0, 78, 80
1, 2808, Note_on_c, 0, 78, 0
1, 2808, Note_on_c, 0, 81, 80
1, 2820, Note_on_c, 0, 81, 0
1, 2820, Note_on_c, 0, 79, 80
1, 2832, Note_on_c, 0, 79, 0
1, 2832, Note_on_c, 0, 78, 80
1, 2844, Note_on_c, 0, 78, 0
1, 2844, Note_on_c, 0, 76, 80
1, 2856, Note_on_c, 0, 76, 0
1, 2856, Note_on_c, 0, 74, 80
1, 2868, Note_on_c, 0, 74, 0
1, 2868, Note_on_c, 0, 72, 80
1, 2880, Note_on_c, 0, 72, 0
1, 2880, Note_on_c, 0, 79, 80
1, 2880, Note_on_c, 1, 71, 75
1, 2892, Note_on_c, 0, 79, 0
1, 2892, Note_on_c, 0, 81, 80
1, 2904, Note_on_c, 0, 81, 0
1, 2904, Note_on_c, 0, 83, 80
1, 2916, Note_on_c, 0, 83, 0
1, 2916, Note_on_c, 0, 81, 80
1, 2925, Note_on_c, 1, 71, 0
1, 2928, Note_on_c, 0, 81, 0
1, 2928, Note_on_c, 0, 79, 80
1, 2940, Note_on_c, 0, 79, 0
1, 2940, Note_on_c, 0, 78, 80
1, 2952, Note_on_c, 0, 78, 0
1, 2952, Note_on_c, 0, 76, 80
1, 2964, Note_on_c, 0, 76, 0
1, 2964, Note_on_c, 0, 74, 80
1, 2976, Note_on_c, 0, 74, 0
1, 2976, Note_on_c, 0, 76, 80
1, 2976, Note_on_c, 1, 60, 80
1, 2988, Note_on_c, 0, 76, 0
1, 2988, Note_on_c, 0, 78, 80
1, 2988, Note_on_c, 1, 60, 0
1, 2988, Note_on_c, 1, 62, 80
1, 3000, Note_on_c, 0, 78, 0
1, 3000, Note_on_c, 0, 79, 80
1, 3000, Note_on_c, 1, 62, 0
1, 3000, Note_on_c, 1, 64, 80
1, 3012, Note_on_c, 0, 79, 0
1, 3012, Note_on_c, 0, 78, 80
1, 3012, Note_on_c, 1, 64, 0
1, 3012, Note_on_c, 1, 62, 80
1, 3024, Note_on_c, 0, 78, 0
1, 3024, Note_on_c, 0, 76, 80
1, 3024, Note_on_c, 1, 62, 0
1, 3024, Note_on_c, 1, 60, 80
1, 3036, Note_on_c, 0, 76, 0
1, 3036, Note_on_c, 0, 74, 80
1, 3036, Note_on_c, 1, 60, 0
1, 3036, Note_on_c, 1, 59, 80
1, 3048, Note_on_c, 0, 74, 0
1, 3048, Note_on_c, 0, 72, 80
1, 3048, Note_on_c, 1, 59, 0
1, 3048, Note_on_c, 1, 57, 80
1, 3060, Note_on_c, 0, 72, 0
1, 3060, Note_on_c, 0, 71, 80
1, 3060, Note_on_c, 1, 57, 0
1, 3060, Note_on_c, 1, 55, 80
1, 3072, Note_on_c, 0, 71, 0
1, 3072, Note_on_c, 0, 69, 80
1, 3072, Note_on_c, 1, 55, 0
1, 3072, Note_on_c, 1, 54, 80
1, 3084, Note_on_c, 0, 69, 0
1, 3084, Note_on_c, 0, 71, 80
1, 3084, Note_on_c, 1, 54, 0
1, 3084, Note_on_c, 1, 55, 80
1, 3096, Note_on_c, 0, 71, 0
1, 3096, Note_on_c, 0, 72, 80
1, 3096, Note_on_c, 1, 55, 0
1, 3096, Note_on_c, 1, 57, 80
1, 3108, Note_on_c, 0, 72, 0
1, 3108, Note_on_c, 0, 71, 80
1, 3108, Note_on_c, 1, 57, 0
1, 3108, Note_on_c, 1, 55, 80
1, 3120, Note_on_c, 0, 71, 0
1, 3120, Note_on_c, 0, 69, 80
1, 3120, Note_on_c, 1, 55, 0
1, 3120, Note_on_c, 1, 54, 80
1, 3132, Note_on_c, 0, 69, 0
1, 3132, Note_on_c, 0, 67, 80
1, 3132, Note_on_c, 1, 54, 0
1, 3132, Note_on_c, 1, 52, 80
1, 3144, Note_on_c, 0, 67, 0
1, 3144, Note_on_c, 0, 66, 80
1, 3144, Note_on_c, 1, 52, 0
1, 3144, Note_on_c, 1, 50, 80
1, 3156, Note_on_c, 0, 66, 0
1, 3156, Note_on_c, 0, 64, 80
1, 3156, Note_on_c, 1, 50, 0
1, 3156, Note_on_c, 1, 48, 80
1, 3168, Note_on_c, 0, 64, 0
1, 3168, Note_on_c, 0, 66, 96
1, 3168, Note_on_c, 1, 48, 0
1, 3168, Note_on_c, 1, 50, 80
1, 3183, Note_on_c, 1, 50, 0
1, 3184, Note_on_c, 1, 54, 80
1, 3199, Note_on_c, 1, 54, 0
1, 3200, Note_on_c, 1, 57, 80
1, 3215, Note_on_c, 1, 57, 0
1, 3216, Note_on_c, 0, 66, 0
1, 3216, Note_on_c, 0, 81, 81
1, 3216, Note_on_c, 0, 78, 81
1, 3216, Note_on_c, 1, 50, 80
1, 3231, Note_on_c, 1, 50, 0
1, 3232, Note_on_c, 1, 54, 80
1, 3236, Note_on_c, 0, 81, 0
1, 3236, Note_on_c, 0, 78, 0
1, 3247, Note_on_c, 1, 54, 0
1, 3248, Note_on_c, 1, 57, 80
1, 3263, Note_on_c, 1, 57, 0
1, 3264, Note_on_c, 0, 67, 82
1, 3264, Note_on_c, 1, 50, 80
1, 3270, Note_on_c, 0, 67, 0
1, 3270, Note_on_c, 0, 66, 82
1, 3276, Note_on_c, 0, 66, 0
1, 3276, Note_on_c, 0, 67, 98
1, 3279, Note_on_c, 1, 50, 0
1, 3280, Note_on_c, 1, 55, 80
1, 3295, Note_on_c, 1, 55, 0
1, 3296, Note_on_c, 1, 59, 80
1, 3311, Note_on_c, 1, 59, 0
1, 3312, Note_on_c, 0, 67, 0
1, 3312, Note_on_c, 0, 83, 83
1, 3312, Note_on_c, 0, 79, 83
1, 3312, Note_on_c, 1, 50, 80
1, 3327, Note_on_c, 1, 50, 0
1, 3328, Note_on_c, 1, 55, 80
1, 3332, Note_on_c, 0, 83, 0
1, 3332, Note_on_c, 0, 79, 0
1, 3343, Note_on_c, 1, 55, 0
1, 3344, Note_on_c, 1, 59, 80
1, 3359, Note_on_c, 1, 59, 0
1, 3360, Note_on_c, 0, 69, 84
1, 3360, Note_on_c, 1, 50, 80
1, 3366, Note_on_c, 0, 69, 0
1, 3366, Note_on_c, 0, 67, 84
1, 3372, Note_on_c, 0, 67, 0
1, 3372, Note_on_c, 0, 69, 100
1, 3375, Note_on_c, 1, 50, 0
1, 3376, Note_on_c, 1, 57, 80
1, 3391, Note_on_c, 1, 57, 0
1, 3392, Note_on_c, 1, 60, 80
1, 3407, Note_on_c, 1, 60, 0
1, 3408, Note_on_c, 0, 69, 0
1, 3408, Note_on_c, 0, 84, 86
1, 3408, Note_on_c, 0, 81, 86
1, 3408, Note_on_c, 1, 50, 80
1, 3423, Note_on_c, 1, 50, 0
1, 3424, Note_on_c, 1, 57, 78
1, 3428, Note_on_c, 0, 84, 0
1, 3428, Note_on_c, 0, 81, 0
1, 3439, Note_on_c, 1, 57, 0
1, 3440, Note_on_c, 1, 60, 77
1, 3455, Note_on_c, 1, 60, 0
1, 3456, Note_on_c, 0, 85, 80
1, 3456, Note_on_c, 1, 69, 75
1, 3479, Note_on_c, 0, 85, 0
1, 3480, Note_on_c, 0, 86, 80
1, 3503, Note_on_c, 0, 86, 0
1, 3504, Note_on_c, 0, 88, 80
1, 3527, Note_on_c, 0, 88, 0
1, 3528, Note_on_c, 0, 86, 80
1, 3545, Note_on_c, 1, 69, 0
1, 3551, Note_on_c, 0, 86, 0
1, 3552, Note_on_c, 0, 84, 80
1, 3641, Note_on_c, 0, 84, 0
1, 3696, Tempo, 545454
1, 3744, Tempo, 1090909
1, 3744, Note_on_c, 0, 69, 80
1, 3744, Note_on_c, 0, 66, 80
1, 3744, Note_on_c, 1, 50, 75
1, 3760, Note_on_c, 1, 50, 0
1, 3760, Note_on_c, 1, 54, 75
1, 3775, Note_on_c, 1, 54, 0
1, 3776, Note_on_c, 1, 57, 75
1, 3791, Note_on_c, 0, 69, 0
1, 3791, Note_on_c, 0, 66, 0
1, 3791, Note_on_c, 1, 57, 0
1, 3792, Note_on_c, 0, 38, 80
1, 3792, Note_on_c, 1, 50, 75
1, 3807, Note_on_c, 1, 50, 0
1, 3808, Note_on_c, 1, 54, 75
1, 3823, Note_on_c, 1, 54, 0
1, 3824, Note_on_c, 1, 57, 75
1, 3837, Note_on_c, 0, 38, 0
1, 3839, Note_on_c, 1, 57, 0
1, 3840, Note_on_c, 0, 70, 80
1, 3840, Note_on_c, 0, 67, 80
1, 3840, Note_on_c, 1, 50, 75
1, 3855, Note_on_c, 1, 50, 0
1, 3856, Note_on_c, 1, 55, 75
1, 3871, Note_on_c, 1, 55, 0
1, 3872, Note_on_c, 1, 58, 75
1, 3885, Note_on_c, 0, 70, 0
1, 3885, Note_on_c, 0, 67, 0
1, 3887, Note_on_c, 1, 58, 0
1, 3888, Note_on_c, 0, 38, 80
1, 3888, Note_on_c, 1, 50, 75
1, 3903, Note_on_c, 1, 50, 0
1, 3904, Note_on_c, 1, 55, 75
1, 3919, Note_on_c, 1, 55, 0
1, 3920, Note_on_c, 1, 58, 75
1, 3933, Note_on_c, 0, 38, 0
1, 3935, Note_on_c, 1, 58, 0
1, 3936, Note_on_c, 0, 72, 80
1, 3936, Note_on_c, 0, 69, 80
1, 3936, Note_on_c, 1, 50, 75
1, 3951, Note_on_c, 1, 50, 0
1, 3952, Note_on_c, 1, 57, 75
1, 3967, Note_on_c, 1, 57, 0
1, 3968, Note_on_c, 1, 60, 75
1, 3981, Note_on_c, 0, 72, 0
1, 3981, Note_on_c, 0, 69, 0
1, 3983, Note_on_c, 1, 60, 0
1, 3984, Note_on_c, 0, 38, 80
1, 3984, Note_on_c, 1, 50, 75
1, 3999, Note_on_c, 1, 50, 0
1, 4000, Note_on_c, 1, 57, 75
1, 4015, Note_on_c, 1, 57, 0
1, 4016, Note_on_c, 1, 60, 75
1, 4029, Note_on_c, 0, 38, 0
1, 4031, Note_on_c, 1, 60, 0
1, 4032, Tempo, 1500000
1, 4032, Note_on_c, 0, 75, 80
1, 4032, Note_on_c, 0, 72, 80
1, 4032, Note_on_c, 1, 69, 75
1, 4032, Note_on_c, 1, 66, 75
1, 4121, Note_on_c, 1, 69, 0
1, 4121, Note_on_c, 1, 66, 0
1, 4128, Tempo, 1090909
1, 4128, Note_on_c, 0, 75, 0
1, 4128, Note_on_c, 0, 72, 0
1, 4128, Note_on_c, 0, 74, 96
1, 4144, Note_on_c, 0, 74, 0
1, 4144, Note_on_c, 0, 79, 79
1, 4159, Note_on_c, 0, 79, 0
1, 4160, Note_on_c, 0, 71, 78
1, 4175, Note_on_c, 0, 71, 0
1, 4176, Note_on_c, 0, 72, 78
1, 4191, Note_on_c, 0, 72, 0
1, 4192, Note_on_c, 0, 76, 77
1, 4207, Note_on_c, 0, 76, 0
1, 4208, Note_on_c, 0, 68, 76
1, 4223, Note_on_c, 0, 68, 0
1, 4224, Note_on_c, 0, 69, 76
1, 4239, Note_on_c, 0, 69, 0
1, 4240, Note_on_c, 0, 71, 75
1, 4255, Note_on_c, 0, 71, 0
1, 4256, Note_on_c, 0, 72, 75
1, 4271, Note_on_c, 0, 72, 0
1, 4272, Note_on_c, 0, 74, 74
1, 4287, Note_on_c, 0, 74, 0
1, 4288, Note_on_c, 0, 72, 73
1, 4303, Note_on_c, 0, 72, 0
1, 4304, Note_on_c, 0, 71, 73
1, 4319, Note_on_c, 0, 71, 0
1, 4320, Note_on_c, 0, 69, 70
1, 4320, Note_on_c, 0, 67, 70
1, 4320, Note_on_c, 1, 61, 70
1, 4330, Note_on_c, 0, 69, 0
1, 4330, Note_on_c, 0, 67, 0
1, 4344, Note_on_c, 0, 69, 86
1, 4344, Note_on_c, 0, 67, 86
1, 4368, Note_on_c, 1, 61, 0
1, 4368, Note_on_c, 1, 64, 70
1, 4392, Note_on_c, 0, 69, 0
1, 4392, Note_on_c, 0, 67, 0
1, 4392, Note_on_c, 0, 69, 70
1, 4392, Note_on_c, 0, 67, 70
1, 4413, Note_on_c, 1, 64, 0
1, 4415, Note_on_c, 0, 69, 0
1, 4415, Note_on_c, 0, 67, 0
1, 4416, Note_on_c, 0, 70, 70
1, 4416, Note_on_c, 0, 67, 70
1, 4416, Note_on_c, 1, 61, 70
1, 4426, Note_on_c, 0, 70, 0
1, 4426, Note_on_c, 0, 67, 0
1, 4440, Note_on_c, 0, 70, 86
1, 4440, Note_on_c, 0, 67, 86
1, 4464, Note_on_c, 1, 61, 0
1, 4464, Note_on_c, 1, 64, 70
1, 4488, Note_on_c, 0, 70, 0
1, 4488, Note_on_c, 0, 67, 0
1, 4488, Note_on_c, 0, 70, 70
1, 4488, Note_on_c, 0, 67, 70
1, 4509, Note_on_c, 1, 64, 0
1, 4511, Note_on_c, 0, 70, 0
1, 4511, Note_on_c, 0, 67, 0
1, 4512, Note_on_c, 0, 76, 70
1, 4512, Note_on_c, 0, 70, 70
1, 4512, Note_on_c, 0, 67, 70
1, 4512, Note_on_c, 1, 61, 70
1, 4522, Note_on_c, 0, 76, 0
1, 4522, Note_on_c, 0, 70, 0
1, 4522, Note_on_c, 0, 67, 0
1, 4536, Note_on_c, 0, 76, 86
1, 4536, Note_on_c, 0, 70, 86
1, 4536, Note_on_c, 0, 67, 86
1, 4560, Note_on_c, 1, 61, 0
1, 4560, Note_on_c, 1, 64, 70
1, 4584, Note_on_c, 0, 76, 0
1, 4584, Note_on_c, 0, 70, 0
1, 4584, Note_on_c, 0, 67, 0
1, 4584, Note_on_c, 0, 76, 70
1, 4584, Note_on_c, 0, 70, 70
1, 4584, Note_on_c, 0, 67, 70
1, 4605, Note_on_c, 1, 64, 0
1, 4607, Note_on_c, 0, 76, 0
1, 4607, Note_on_c, 0, 70, 0
1, 4607, Note_on_c, 0, 67, 0
1, 4608, Tempo, 1200000
1, 4608, Note_on_c, 0, 79, 87
1, 4620, Note_on_c, 0, 79, 0
1, 4620, Note_on_c, 0, 81, 87
1, 4632, Note_on_c, 0, 81, 0
1, 4632, Note_on_c, 0, 82, 103
1, 4704, Tempo, 1090909
1, 4704, Note_on_c, 0, 82, 0
1, 4704, Note_on_c, 1, 50, 64
1, 4719, Note_on_c, 1, 50, 0
1, 4720, Note_on_c, 1, 55, 64
1, 4735, Note_on_c, 1, 55, 0
1, 4736, Note_on_c, 1, 59, 64
1, 4751, Note_on_c, 1, 59, 0
1, 4752, Note_on_c, 0, 79, 64
1, 4752, Note_on_c, 0, 74, 64
1, 4752, Note_on_c, 1, 62, 64
1, 4767, Note_on_c, 1, 62, 0
1, 4768, Note_on_c, 1, 59, 64
1, 4772, Note_on_c, 0, 79, 0
1, 4772, Note_on_c, 0, 74, 0
1, 4783, Note_on_c, 1, 59, 0
1, 4784, Note_on_c, 1, 55, 64
1, 4799, Note_on_c, 1, 55, 0
1, 4800, Note_on_c, 1, 50, 64
1, 4815, Note_on_c, 1, 50, 0
1, 4816, Note_on_c, 1, 54, 64
1, 4831, Note_on_c, 1, 54, 0
1, 4832, Note_on_c, 1, 57, 64
1, 4847, Note_on_c, 1, 57, 0
1, 4848, Note_on_c, 0, 81, 64
1, 4848, Note_on_c, 0, 78, 64
1, 4848, Note_on_c, 1, 62, 64
1, 4863, Note_on_c, 1, 62, 0
1, 4864, Note_on_c, 1, 57, 64
1, 4879, Note_on_c, 1, 57, 0
1, 4880, Note_on_c, 1, 54, 64
1, 4893, Note_on_c, 0, 81, 0
1, 4893, Note_on_c, 0, 78, 0
1, 4895, Note_on_c, 1, 54, 0
1, 4896, Note_on_c, 0, 79, 64
1, 4896, Note_on_c, 0, 74, 64
1, 4896, Note_on_c, 0, 71, 64
1, 4896, Note_on_c, 1, 55, 64
1, 4911, Note_on_c, 1, 55, 0
1, 4912, Note_on_c, 1, 59, 64
1, 4927, Note_on_c, 1, 59, 0
1, 4928, Note_on_c, 1, 62, 64
1, 4941, Note_on_c, 0, 79, 0
1, 4941, Note_on_c, 0, 74, 0
1, 4941, Note_on_c, 0, 71, 0
1, 4943, Note_on_c, 1, 62, 0
1, 4944, Note_on_c, 0, 47, 58
1, 4944, Note_on_c, 0, 43, 58
1, 4944, Note_on_c, 1, 67, 64
1, 4959, Note_on_c, 1, 67, 0
1, 4960, Note_on_c, 1, 62, 64
1, 4975, Note_on_c, 1, 62, 0
1, 4976, Note_on_c, 1, 59, 64
1, 4989, Note_on_c, 0, 47, 0
1, 4989, Note_on_c, 0, 43, 0
1, 4991, Note_on_c, 1, 59, 0
1, 4992, Note_on_c, 0, 47, 58
1, 4992, Note_on_c, 0, 43, 58
1, 4992, Note_on_c, 1, 55, 64
1, 5081, Note_on_c, 0, 47, 0
1, 5081, Note_on_c, 0, 43, 0
1, 5081, Note_on_c, 1, 55, 0
1, 5136, Note_on_c, 0, 84, 80
1, 5136, Note_on_c, 1, 48, 70
1, 5151, Note_on_c, 1, 48, 0
1, 5152, Note_on_c, 1, 52, 70
1, 5167, Note_on_c, 1, 52, 0
1, 5168, Note_on_c, 1, 48, 70
1, 5183, Note_on_c, 1, 48, 0
1, 5184, Note_on_c, 1, 50, 71
1, 5199, Note_on_c, 1, 50, 0
1, 5200, Note_on_c, 1, 53, 71
1, 5215, Note_on_c, 1, 53, 0
1, 5216, Note_on_c, 1, 50, 72
1, 5231, Note_on_c, 1, 50, 0
1, 5232, Note_on_c, 0, 84, 0
1, 5232, Note_on_c, 0, 72, 75
1, 5232, Note_on_c, 1, 52, 72
1, 5238, Note_on_c, 0, 72, 0
1, 5238, Note_on_c, 0, 71, 75
1, 5244, Note_on_c, 0, 71, 0
1, 5244, Note_on_c, 0, 72, 75
1, 5247, Note_on_c, 1, 52, 0
1, 5248, Note_on_c, 1, 55, 72
1, 5263, Note_on_c, 1, 55, 0
1, 5264, Note_on_c, 1, 52, 73
1, 5279, Note_on_c, 1, 52, 0
1, 5280, Note_on_c, 1, 53, 73
1, 5295, Note_on_c, 1, 53, 0
1, 5296, Note_on_c, 1, 57, 74
1, 5311, Note_on_c, 1, 57, 0
1, 5312, Note_on_c, 1, 53, 74
1, 5327, Note_on_c, 1, 53, 0
1, 5328, Note_on_c, 1, 52, 75
1, 5343, Note_on_c, 1, 52, 0
1, 5344, Note_on_c, 1, 55, 74
1, 5351, Note_on_c, 0, 72, 0
1, 5352, Note_on_c, 0, 74, 78
1, 5359, Note_on_c, 1, 55, 0
1, 5360, Note_on_c, 1, 52, 74
1, 5364, Note_on_c, 0, 74, 0
1, 5364, Note_on_c, 0, 76, 78
1, 5375, Note_on_c, 1, 52, 0
1, 5376, Note_on_c, 0, 76, 0
1, 5376, Note_on_c, 0, 77, 78
1, 5376, Note_on_c, 1, 50, 73
1, 5388, Note_on_c, 0, 77, 0
1, 5388, Note_on_c, 0, 79, 79
1, 5391, Note_on_c, 1, 50, 0
1, 5392, Note_on_c, 1, 53, 73
1, 5400, Note_on_c, 0, 79, 0
1, 5400, Note_on_c, 0, 81, 79
1, 5407, Note_on_c, 1, 53, 0
1, 5408, Note_on_c, 1, 50, 72
1, 5412, Note_on_c, 0, 81, 0
1, 5412, Note_on_c, 0, 83, 79
1, 5423, Note_on_c, 1, 50, 0
1, 5424, Note_on_c, 0, 83, 0
1, 5424, Note_on_c, 0, 84, 96
1, 5424, Note_on_c, 1, 48, 70
1, 5439, Note_on_c, 1, 48, 0
1, 5440, Note_on_c, 1, 52, 70
1, 5455, Note_on_c, 1, 52, 0
1, 5456, Note_on_c, 1, 48, 70
1, 5471, Note_on_c, 1, 48, 0
1, 5472, Note_on_c, 1, 50, 71
1, 5487, Note_on_c, 1, 50, 0
1, 5488, Note_on_c, 1, 53, 71
1, 5503, Note_on_c, 1, 53, 0
1, 5504, Note_on_c, 1, 50, 71
1, 5519, Note_on_c, 1, 50, 0
1, 5520, Note_on_c, 0, 84, 0
1, 5520, Note_on_c, 0, 72, 75
1, 5520, Note_on_c, 1, 52, 72
1, 5526, Note_on_c, 0, 72, 0
1, 5526, Note_on_c, 0, 71, 75
1, 5532, Note_on_c, 0, 71, 0
1, 5532, Note_on_c, 0, 72, 75
1, 5535, Note_on_c, 1, 52, 0
1, 5536, Note_on_c, 1, 55, 72
1, 5551, Note_on_c, 1, 55, 0
1, 5552, Note_on_c, 1, 52, 73
1, 5567, Note_on_c, 1, 52, 0
1, 5568, Note_on_c, 1, 53, 73
1, 5583, Note_on_c, 1, 53, 0
1, 5584, Note_on_c, 1, 57, 73
1, 5599, Note_on_c, 1, 57, 0
1, 5600, Note_on_c, 1, 53, 74
1, 5615, Note_on_c, 1, 53, 0
1, 5616, Note_on_c, 1, 52, 74
1, 5631, Note_on_c, 1, 52, 0
1, 5632, Note_on_c, 1, 55, 75
1, 5639, Note_on_c, 0, 72, 0
1, 5640, Note_on_c, 0, 74, 78
1, 5647, Note_on_c, 1, 55, 0
1, 5648, Note_on_c, 1, 52, 74
1, 5652, Note_on_c, 0, 74, 0
1, 5652, Note_on_c, 0, 76, 78
1, 5663, Note_on_c, 1, 52, 0
1, 5664, Note_on_c, 0, 76, 0
1, 5664, Note_on_c, 0, 77, 78
1, 5664, Note_on_c, 1, 50, 74
1, 5676, Note_on_c, 0, 77, 0
1, 5676, Note_on_c, 0, 79, 79
1, 5679, Note_on_c, 1, 50, 0
1, 5680, Note_on_c, 1, 53, 73
1, 5688, Note_on_c, 0, 79, 0
1, 5688, Note_on_c, 0, 81, 79
1, 5695, Note_on_c, 1, 53, 0
1, 5696, Note_on_c, 1, 50, 73
1, 5700, Note_on_c, 0, 81, 0
1, 5700, Note_on_c, 0, 83, 79
1, 5711, Note_on_c, 1, 50, 0
1, 5712, Note_on_c, 0, 83, 0
1, 5712, Note_on_c, 0, 84, 96
1, 5712, Note_on_c, 1, 48, 70
1, 5728, Note_on_c, 0, 84, 0
1, 5728, Note_on_c, 0, 79, 70
1, 5735, Note_on_c, 1, 48, 0
1, 5743, Note_on_c, 0, 79, 0
1, 5744, Note_on_c, 0, 79, 70
1, 5759, Note_on_c, 0, 79, 0
1, 5760, Note_on_c, 0, 79, 70
1, 5760, Note_on_c, 1, 72, 64
1, 5760, Note_on_c, 1, 69, 64
1, 5766, Note_on_c, 0, 79, 0
1, 5766, Note_on_c, 0, 81, 70
1, 5772, Note_on_c, 0, 81, 0
1, 5772, Note_on_c, 0, 79, 70
1, 5776, Note_on_c, 0, 79, 0
1, 5776, Note_on_c, 0, 77, 70
1, 5780, Note_on_c, 1, 72, 0
1, 5780, Note_on_c, 1, 69, 0
1, 5791, Note_on_c, 0, 77, 0
1, 5792, Note_on_c, 0, 77, 70
1, 5807, Note_on_c, 0, 77, 0
1, 5808, Note_on_c, 0, 77, 70
1, 5808, Note_on_c, 1, 71, 64
1, 5808, Note_on_c, 1, 67, 64
1, 5814, Note_on_c, 0, 77, 0
1, 5814, Note_on_c, 0, 79, 70
1, 5820, Note_on_c, 0, 79, 0
1, 5820, Note_on_c, 0, 77, 70
1, 5824, Note_on_c, 0, 77, 0
1, 5824, Note_on_c, 0, 76, 70
1, 5828, Note_on_c, 1, 71, 0
1, 5828, Note_on_c, 1, 67, 0
1, 5839, Note_on_c, 0, 76, 0
1, 5840, Note_on_c, 0, 76, 70
1, 5855, Note_on_c, 0, 76, 0
1, 5856, Note_on_c, 0, 76, 70
1, 5856, Note_on_c, 1, 69, 64
1, 5856, Note_on_c, 1, 65, 64
1, 5872, Note_on_c, 0, 76, 0
1, 5872, Note_on_c, 0, 74, 70
1, 5887, Note_on_c, 0, 74, 0
1, 5888, Note_on_c, 0, 74, 70
1, 5903, Note_on_c, 0, 74, 0
1, 5904, Note_on_c, 0, 74, 70
1, 5904, Note_on_c, 1, 69, 0
1, 5904, Note_on_c, 1, 65, 0
1, 5904, Note_on_c, 1, 67, 64
1, 5904, Note_on_c, 1, 64, 64
1, 5910, Note_on_c, 0, 74, 0
1, 5910, Note_on_c, 0, 76, 70
1, 5916, Note_on_c, 0, 76, 0
1, 5916, Note_on_c, 0, 74, 70
1, 5920, Note_on_c, 0, 74, 0
1, 5920, Note_on_c, 0, 72, 70
1, 5924, Note_on_c, 1, 67, 0
1, 5924, Note_on_c, 1, 64, 0
1, 5935, Note_on_c, 0, 72, 0
1, 5936, Note_on_c, 0, 72, 70
1, 5951, Note_on_c, 0, 72, 0
1, 5952, Note_on_c, 0, 67, 86
1, 5952, Note_on_c, 1, 60, 64
1, 5952, Note_on_c, 1, 57, 64
1, 5968, Note_on_c, 0, 67, 0
1, 5968, Note_on_c, 0, 64, 70
1, 5972, Note_on_c, 1, 60, 0
1, 5972, Note_on_c, 1, 57, 0
1, 5983, Note_on_c, 0, 64, 0
1, 5984, Note_on_c, 0, 65, 86
1, 6000, Note_on_c, 1, 59, 64
1, 6000, Note_on_c, 1, 55, 64
1, 6015, Note_on_c, 0, 65, 0
1, 6016, Note_on_c, 0, 63, 70
1, 6020, Note_on_c, 1, 59, 0
1, 6020, Note_on_c, 1, 55, 0
1, 6031, Note_on_c, 0, 63, 0
1, 6032, Note_on_c, 0, 64, 86
1, 6048, Note_on_c, 1, 57, 64
1, 6048, Note_on_c, 1, 53, 64
1, 6063, Note_on_c, 0, 64, 0
1, 6064, Note_on_c, 0, 61, 70
1, 6079, Note_on_c, 0, 61, 0
1, 6080, Note_on_c, 0, 62, 86
1, 6096, Note_on_c, 1, 57, 0
1, 6096, Note_on_c, 1, 53, 0
1, 6096, Note_on_c, 1, 55, 64
1, 6096, Note_on_c, 1, 52, 64
1, 6111, Note_on_c, 0, 62, 0
1, 6112, Note_on_c, 0, 59, 70
1, 6116, Note_on_c, 1, 55, 0
1, 6116, Note_on_c, 1, 52, 0
1, 6127, Note_on_c, 0, 59, 0
1, 6128, Note_on_c, 0, 60, 70
1, 6143, Note_on_c, 0, 60, 0
1, 6144, Note_on_c, 0, 65, 80
1, 6144, Note_on_c, 0, 62, 80
1, 6144, Note_on_c, 1, 47, 80
1, 6144, Note_on_c, 1, 35, 80
1, 6178, Note_on_c, 0, 65, 0
1, 6178, Note_on_c, 0, 62, 0
1, 6178, Note_on_c, 1, 47, 0
1, 6178, Note_on_c, 1, 35, 0
1, 6180, Note_on_c, 0, 64, 80
1, 6180, Note_on_c, 0, 60, 80
1, 6180, Note_on_c, 1, 48, 80
1, 6180, Note_on_c, 1, 36, 80
1, 6192, Note_on_c, 0, 64, 0
1, 6192, Note_on_c, 0, 60, 0
1, 6192, Note_on_c, 0, 69, 80
1, 6192, Note_on_c, 0, 65, 80
1, 6192, Note_on_c, 0, 60, 80
1, 6192, Note_on_c, 1, 48, 0
1, 6192, Note_on_c, 1, 36, 0
1, 6192, Note_on_c, 1, 41, 80
1, 6192, Note_on_c, 1, 29, 80
1, 6202, Note_on_c, 0, 69, 0
1, 6202, Note_on_c, 0, 65, 0
1, 6202, Note_on_c, 0, 60, 0
1, 6202, Note_on_c, 1, 41, 0
1, 6202, Note_on_c, 1, 29, 0
1, 6240, Note_on_c, 0, 59, 80
1, 6240, Note_on_c, 0, 55, 80
1, 6240, Note_on_c, 0, 50, 80
1, 6240, Note_on_c, 1, 43, 80
1, 6240, Note_on_c, 1, 31, 80
1, 6250, Note_on_c, 0, 59, 0
1, 6250, Note_on_c, 0, 55, 0
1, 6250, Note_on_c, 0, 50, 0
1, 6250, Note_on_c, 1, 43, 0
1, 6250, Note_on_c, 1, 31, 0
1, 6288, Note_on_c, 1, 48, 80
1, 6288, Note_on_c, 1, 36, 80
1, 6320, Note_on_c, 0, 84, 80
1, 6327, Note_on_c, 0, 84, 0
1, 6336, Note_on_c, 0, 76, 70
1, 6352, Note_on_c, 0, 76, 0
1, 6352, Note_on_c, 0, 77, 70
1, 6367, Note_on_c, 0, 77, 0
1, 6368, Note_on_c, 0, 81, 70
1, 6375, Note_on_c, 0, 81, 0
1, 6377, Note_on_c, 1, 48, 0
1, 6377, Note_on_c, 1, 36, 0
1, 6384, Note_on_c, 0, 75, 70
1, 6400, Note_on_c, 0, 75, 0
1, 6400, Note_on_c, 0, 76, 70
1, 6415, Note_on_c, 0, 76, 0
1, 6416, Note_on_c, 0, 79, 70
1, 6423, Note_on_c, 0, 79, 0
1, 6432, Note_on_c, 0, 73, 70
1, 6448, Note_on_c, 0, 73, 0
1, 6448, Note_on_c, 0, 74, 70
1, 6463, Note_on_c, 0, 74, 0
1, 6464, Note_on_c, 0, 77, 70
1, 6471, Note_on_c, 0, 77, 0
1, 6480, Note_on_c, 0, 71, 70
1, 6480, Note_on_c, 1, 59, 70
1, 6496, Note_on_c, 0, 71, 0
1, 6496, Note_on_c, 0, 72, 70
1, 6496, Note_on_c, 1, 59, 0
1, 6496, Note_on_c, 1, 60, 70
1, 6511, Note_on_c, 0, 72, 0
1, 6511, Note_on_c, 1, 60, 0
1, 6512, Note_on_c, 0, 76, 70
1, 6512, Note_on_c, 1, 64, 70
1, 6519, Note_on_c, 0, 76, 0
1, 6519, Note_on_c, 1, 64, 0
1, 6528, Note_on_c, 0, 68, 70
1, 6528, Note_on_c, 1, 56, 70
1, 6544, Note_on_c, 0, 68, 0
1, 6544, Note_on_c, 0, 69, 70
1, 6544, Note_on_c, 1, 56, 0
1, 6544, Note_on_c, 1, 57, 70
1, 6559, Note_on_c, 0, 69, 0
1, 6559, Note_on_c, 1, 57, 0
1, 6560, Note_on_c, 0, 64, 71
1, 6560, Note_on_c, 1, 52, 71
1, 6575, Note_on_c, 0, 64, 0
1, 6575, Note_on_c, 1, 52, 0
1, 6576, Note_on_c, 0, 65, 71
1, 6576, Note_on_c, 1, 53, 71
1, 6592, Note_on_c, 0, 69, 58
1, 6606, Note_on_c, 0, 65, 0
1, 6606, Note_on_c, 1, 53, 0
1, 6607, Note_on_c, 0, 69, 0
1, 6608, Note_on_c, 0, 64, 71
1, 6608, Note_on_c, 1, 52, 71
1, 6623, Note_on_c, 0, 64, 0
1, 6623, Note_on_c, 1, 52, 0
1, 6624, Note_on_c, 0, 65, 71
1, 6624, Note_on_c, 1, 53, 71
1, 6640, Note_on_c, 0, 69, 58
1, 6654, Note_on_c, 0, 65, 0
1, 6654, Note_on_c, 1, 53, 0
1, 6655, Note_on_c, 0, 69, 0
1, 6656, Note_on_c, 0, 61, 72
1, 6656, Note_on_c, 1, 49, 72
1, 6671, Note_on_c, 0, 61, 0
1, 6671, Note_on_c, 1, 49, 0
1, 6672, Note_on_c, 0, 62, 72
1, 6672, Note_on_c, 1, 50, 72
1, 6682, Note_on_c, 1, 50, 0
1, 6684, Note_on_c, 0, 62, 0
1, 6684, Note_on_c, 0, 64, 72
1, 6696, Note_on_c, 0, 64, 0
1, 6696, Note_on_c, 0, 65, 73
1, 6696, Note_on_c, 1, 38, 73
1, 6706, Note_on_c, 1, 38, 0
1, 6708, Note_on_c, 0, 65, 0
1, 6708, Note_on_c, 0, 64, 73
1, 6720, Note_on_c, 0, 64, 0
1, 6720, Note_on_c, 0, 62, 73
1, 6720, Note_on_c, 1, 42, 73
1, 6730, Note_on_c, 1, 42, 0
1, 6732, Note_on_c, 0, 62, 0
1, 6732, Note_on_c, 0, 60, 73
1, 6744, Note_on_c, 0, 60, 0
1, 6744, Note_on_c, 0, 59, 73
1, 6744, Note_on_c, 1, 45, 73
1, 6754, Note_on_c, 1, 45, 0
1, 6756, Note_on_c, 0, 59, 0
1, 6756, Note_on_c, 0, 57, 74
1, 6768, Note_on_c, 0, 57, 0
1, 6768, Note_on_c, 0, 59, 75
1, 6768, Note_on_c, 1, 43, 75
1, 6784, Note_on_c, 0, 59, 0
1, 6784, Note_on_c, 0, 69, 76
1, 6799, Note_on_c, 0, 69, 0
1, 6800, Note_on_c, 0, 72, 77
1, 6803, Note_on_c, 1, 43, 0
1, 6815, Note_on_c, 0, 72, 0
1, 6816, Note_on_c, 0, 71, 78
1, 6816, Note_on_c, 1, 49, 75
1, 6831, Note_on_c, 0, 71, 0
1, 6832, Note_on_c, 0, 69, 80
1, 6847, Note_on_c, 0, 69, 0
1, 6848, Note_on_c, 0, 67, 78
1, 6863, Note_on_c, 0, 67, 0
1, 6864, Note_on_c, 0, 66, 75
1, 6864, Note_on_c, 1, 49, 0
1, 6864, Note_on_c, 1, 50, 75
1, 6879, Note_on_c, 0, 66, 0
1, 6879, Note_on_c, 1, 50, 0
1, 6880, Note_on_c, 0, 57, 75
1, 6880, Note_on_c, 1, 45, 75
1, 6895, Note_on_c, 0, 57, 0
1, 6895, Note_on_c, 1, 45, 0
1, 6896, Note_on_c, 0, 60, 76
1, 6896, Note_on_c, 1, 48, 76
1, 6911, Note_on_c, 0, 60, 0
1, 6911, Note_on_c, 1, 48, 0
1, 6912, Note_on_c, 0, 59, 78
1, 6912, Note_on_c, 1, 47, 78
1, 6927, Note_on_c, 0, 59, 0
1, 6927, Note_on_c, 1, 47, 0
1, 6928, Note_on_c, 0, 57, 80
1, 6928, Note_on_c, 1, 45, 80
1, 6943, Note_on_c, 0, 57, 0
1, 6943, Note_on_c, 1, 45, 0
1, 6944, Note_on_c, 0, 55, 79
1, 6944, Note_on_c, 1, 43, 78
1, 6959, Note_on_c, 0, 55, 0
1, 6959, Note_on_c, 1, 43, 0
1, 6960, Note_on_c, 0, 62, 78
1, 6960, Note_on_c, 0, 57, 78
1, 6960, Note_on_c, 0, 54, 78
1, 6960, Note_on_c, 1, 50, 75
1, 6970, Note_on_c, 1, 50, 0
1, 6983, Note_on_c, 0, 62, 0
1, 6983, Note_on_c, 0, 57, 0
1, 6983, Note_on_c, 0, 54, 0
1, 7008, Note_on_c, 0, 62, 75
1, 7008, Note_on_c, 0, 57, 75
1, 7008, Note_on_c, 0, 54, 75
1, 7008, Note_on_c, 1, 38, 70
1, 7053, Note_on_c, 0, 62, 0
1, 7053, Note_on_c, 0, 57, 0
1, 7053, Note_on_c, 0, 54, 0
1, 7053, Note_on_c, 1, 38, 0
1, 7152, Note_on_c, 0, 71, 70
1, 7152, Note_on_c, 1, 55, 64
1, 7153, Note_on_c, 1, 59, 64
1, 7154, Note_on_c, 1, 62, 64
1, 7155, Note_on_c, 1, 67, 64
1, 7167, Note_on_c, 0, 71, 0
1, 7168, Note_on_c, 0, 74, 70
1, 7183, Note_on_c, 0, 74, 0
1, 7184, Note_on_c, 0, 79, 70
1, 7199, Note_on_c, 0, 79, 0
1, 7200, Note_on_c, 0, 71, 71
1, 7215, Note_on_c, 0, 71, 0
1, 7216, Note_on_c, 0, 74, 71
1, 7231, Note_on_c, 0, 74, 0
1, 7232, Note_on_c, 0, 79, 72
1, 7242, Note_on_c, 1, 67, 0
1, 7242, Note_on_c, 1, 62, 0
1, 7242, Note_on_c, 1, 59, 0
1, 7242, Note_on_c, 1, 55, 0
1, 7247, Note_on_c, 0, 79, 0
1, 7248, Note_on_c, 0, 72, 72
1, 7263, Note_on_c, 0, 72, 0
1, 7264, Note_on_c, 0, 76, 73
1, 7279, Note_on_c, 0, 76, 0
1, 7280, Note_on_c, 0, 79, 73
1, 7295, Note_on_c, 0, 79, 0
1, 7296, Note_on_c, 0, 72, 74
1, 7296, Note_on_c, 1, 67, 64
1, 7296, Note_on_c, 1, 64, 64
1, 7311, Note_on_c, 0, 72, 0
1, 7312, Note_on_c, 0, 76, 74
1, 7327, Note_on_c, 0, 76, 0
1, 7328, Note_on_c, 0, 79, 74
1, 7341, Note_on_c, 1, 67, 0
1, 7341, Note_on_c, 1, 64, 0
1, 7343, Note_on_c, 0, 79, 0
1, 7344, Note_on_c, 0, 71, 74
1, 7344, Note_on_c, 1, 67, 62
1, 7344, Note_on_c, 1, 62, 62
1, 7359, Note_on_c, 0, 71, 0
1, 7360, Note_on_c, 0, 74, 74
1, 7375, Note_on_c, 0, 74, 0
1, 7376, Note_on_c, 0, 79, 73
1, 7389, Note_on_c, 1, 67, 0
1, 7389, Note_on_c, 1, 62, 0
1, 7391, Note_on_c, 0, 79, 0
1, 7392, Note_on_c, 0, 69, 73
1, 7392, Note_on_c, 1, 66, 60
1, 7392, Note_on_c, 1, 62, 60
1, 7407, Note_on_c, 0, 69, 0
1, 7408, Note_on_c, 0, 72, 72
1, 7423, Note_on_c, 0, 72, 0
1, 7424, Note_on_c, 0, 81, 72
1, 7437, Note_on_c, 1, 66, 0
1, 7437, Note_on_c, 1, 62, 0
1, 7439, Note_on_c, 0, 81, 0
1, 7440, Note_on_c, 1, 59, 64
1, 7455, Note_on_c, 1, 59, 0
1, 7456, Note_on_c, 0, 78, 70
1, 7456, Note_on_c, 1, 62, 64
1, 7471, Note_on_c, 1, 62, 0
1, 7472, Note_on_c, 0, 78, 0
1, 7472, Note_on_c, 0, 79, 70
1, 7472, Note_on_c, 1, 67, 64
1, 7487, Note_on_c, 0, 79, 0
1, 7487, Note_on_c, 1, 67, 0
1, 7488, Note_on_c, 1, 59, 64
1, 7503, Note_on_c, 1, 59, 0
1, 7504, Note_on_c, 0, 79, 70
1, 7504, Note_on_c, 1, 62, 64
1, 7519, Note_on_c, 1, 62, 0
1, 7520, Note_on_c, 0, 79, 0
1, 7520, Note_on_c, 0, 77, 70
1, 7520, Note_on_c, 1, 67, 64
1, 7535, Note_on_c, 0, 77, 0
1, 7535, Note_on_c, 1, 67, 0
1, 7536, Note_on_c, 0, 76, 70
1, 7536, Note_on_c, 1, 60, 64
1, 7551, Note_on_c, 0, 76, 0
1, 7551, Note_on_c, 1, 60, 0
1, 7552, Note_on_c, 0, 84, 70
1, 7552, Note_on_c, 1, 64, 64
1, 7567, Note_on_c, 1, 64, 0
1, 7568, Note_on_c, 0, 84, 0
1, 7568, Note_on_c, 0, 83, 70
1, 7568, Note_on_c, 1, 67, 64
1, 7583, Note_on_c, 0, 83, 0
1, 7583, Note_on_c, 1, 67, 0
1, 7584, Note_on_c, 1, 61, 65
1, 7599, Note_on_c, 1, 61, 0
1, 7600, Note_on_c, 0, 81, 71
1, 7600, Note_on_c, 1, 64, 65
1, 7615, Note_on_c, 1, 64, 0
1, 7616, Note_on_c, 0, 81, 0
1, 7616, Note_on_c, 0, 79, 72
1, 7616, Note_on_c, 1, 67, 66
1, 7631, Note_on_c, 0, 79, 0
1, 7631, Note_on_c, 1, 67, 0
1, 7632, Note_on_c, 0, 78, 72
1, 7632, Note_on_c, 1, 62, 66
1, 7647, Note_on_c, 0, 78, 0
1, 7647, Note_on_c, 1, 62, 0
1, 7648, Note_on_c, 0, 86, 72
1, 7648, Note_on_c, 1, 66, 67
1, 7663, Note_on_c, 1, 66, 0
1, 7664, Note_on_c, 0, 86, 0
1, 7664, Note_on_c, 0, 84, 73
1, 7664, Note_on_c, 1, 69, 67
1, 7679, Note_on_c, 0, 84, 0
1, 7679, Note_on_c, 1, 69, 0
1, 7680, Note_on_c, 1, 63, 68
1, 7695, Note_on_c, 1, 63, 0
1, 7696, Note_on_c, 0, 83, 74
1, 7696, Note_on_c, 1, 66, 68
1, 7711, Note_on_c, 1, 66, 0
1, 7712, Note_on_c, 0, 83, 0
1, 7712, Note_on_c, 0, 81, 74
1, 7712, Note_on_c, 1, 69, 69
1, 7727, Note_on_c, 0, 81, 0
1, 7727, Note_on_c, 1, 69, 0
1, 7728, Note_on_c, 0, 79, 75
1, 7728, Note_on_c, 1, 64, 69
1, 7743, Note_on_c, 0, 79, 0
1, 7743, Note_on_c, 1, 64, 0
1, 7744, Note_on_c, 0, 88, 75
1, 7744, Note_on_c, 1, 67, 69
1, 7759, Note_on_c, 1, 67, 0
1, 7760, Note_on_c, 0, 88, 0
1, 7760, Note_on_c, 0, 86, 75
1, 7760, Note_on_c, 1, 71, 70
1, 7775, Note_on_c, 0, 86, 0
1, 7775, Note_on_c, 1, 71, 0
1, 7776, Note_on_c, 1, 64, 70
1, 7791, Note_on_c, 1, 64, 0
1, 7792, Note_on_c, 0, 84, 76
1, 7792, Note_on_c, 1, 67, 71
1, 7807, Note_on_c, 1, 67, 0
1, 7808, Note_on_c, 0, 84, 0
1, 7808, Note_on_c, 0, 83, 77
1, 7808, Note_on_c, 1, 71, 71
1, 7823, Note_on_c, 0, 83, 0
1, 7823, Note_on_c, 1, 71, 0
1, 7824, Note_on_c, 0, 81, 80
1, 7824, Note_on_c, 1, 66, 75
1, 7836, Note_on_c, 0, 81, 0
1, 7836, Note_on_c, 0, 83, 80
1, 7848, Note_on_c, 0, 83, 0
1, 7848, Note_on_c, 0, 84, 80
1, 7860, Note_on_c, 0, 84, 0
1, 7860, Note_on_c, 0, 83, 80
1, 7869, Note_on_c, 1, 66, 0
1, 7872, Note_on_c, 0, 83, 0
1, 7872, Note_on_c, 0, 81, 80
1, 7884, Note_on_c, 0, 81, 0
1, 7884, Note_on_c, 0, 79, 80
1, 7896, Note_on_c, 0, 79, 0
1, 7896, Note_on_c, 0, 78, 80
1, 7908, Note_on_c, 0, 78, 0
1, 7908, Note_on_c, 0, 76, 80
1, 7920, Note_on_c, 0, 76, 0
1, 7920, Note_on_c, 0, 74, 80
1, 7932, Note_on_c, 0, 74, 0
1, 7932, Note_on_c, 0, 78, 80
1, 7944, Note_on_c, 0, 78, 0
1, 7944, Note_on_c, 0, 81, 80
1, 7956, Note_on_c, 0, 81, 0
1, 7956, Note_on_c, 0, 79, 80
1, 7968, Note_on_c, 0, 79, 0
1, 7968, Note_on_c, 0, 78, 80
1, 7980, Note_on_c, 0, 78, 0
1, 7980, Note_on_c, 0, 76, 80
1, 7992, Note_on_c, 0, 76, 0
1, 7992, Note_on_c, 0, 74, 80
1, 8004, Note_on_c, 0, 74, 0
1, 8004, Note_on_c, 0, 72, 80
1, 8016, Note_on_c, 0, 72, 0
1, 8016, Note_on_c, 0, 79, 80
1, 8016, Note_on_c, 1, 71, 75
1, 8028, Note_on_c, 0, 79, 0
1, 8028, Note_on_c, 0, 81, 80
1, 8040, Note_on_c, 0, 81, 0
1, 8040, Note_on_c, 0, 83, 80
1, 8052, Note_on_c, 0, 83, 0
1, 8052, Note_on_c, 0, 81, 80
1, 8061, Note_on_c, 1, 71, 0
1, 8064, Note_on_c, 0, 81, 0
1, 8064, Note_on_c, 0, 79, 80
1, 8076, Note_on_c, 0, 79, 0
1, 8076, Note_on_c, 0, 78, 80
1, 8088, Note_on_c, 0, 78, 0
1, 8088, Note_on_c, 0, 76, 80
1, 8100, Note_on_c, 0, 76, 0
1, 8100, Note_on_c, 0, 74, 80
1, 8112, Note_on_c, 0, 74, 0
1, 8112, Note_on_c, 0, 76, 80
1, 8112, Note_on_c, 1, 60, 80
1, 8124, Note_on_c, 0, 76, 0
1, 8124, Note_on_c, 0, 78, 80
1, 8124, Note_on_c, 1, 60, 0
1, 8124, Note_on_c, 1, 62, 80
1, 8136, Note_on_c, 0, 78, 0
1, 8136, Note_on_c, 0, 79, 80
1, 8136, Note_on_c, 1, 62, 0
1, 8136, Note_on_c, 1, 64, 80
1, 8148, Note_on_c, 0, 79, 0
1, 8148, Note_on_c, 0, 78, 80
1, 8148, Note_on_c, 1, 64, 0
1, 8148, Note_on_c, 1, 62, 80
1, 8160, Note_on_c, 0, 78, 0
1, 8160, Note_on_c, 0, 76, 80
1, 8160, Note_on_c, 1, 62, 0
1, 8160, Note_on_c, 1, 60, 80
1, 8172, Note_on_c, 0, 76, 0
1, 8172, Note_on_c, 0, 74, 80
1, 8172, Note_on_c, 1, 60, 0
1, 8172, Note_on_c, 1, 59, 80
1, 8184, Note_on_c, 0, 74, 0
1, 8184, Note_on_c, 0, 72, 80
1, 8184, Note_on_c, 1, 59, 0
1, 8184, Note_on_c, 1, 57, 80
1, 8196, Note_on_c, 0, 72, 0
1, 8196, Note_on_c, 0, 71, 80
1, 8196, Note_on_c, 1, 57, 0
1, 8196, Note_on_c, 1, 55, 80
1, 8208, Note_on_c, 0, 71, 0
1, 8208, Note_on_c, 0, 69, 80
1, 8208, Note_on_c, 1, 55, 0
1, 8208, Note_on_c, 1, 54, 80
1, 8220, Note_on_c, 0, 69, 0
1, 8220, Note_on_c, 0, 71, 80
1, 8220, Note_on_c, 1, 54, 0
1, 8220, Note_on_c, 1, 55, 80
1, 8232, Note_on_c, 0, 71, 0
1, 8232, Note_on_c, 0, 72, 80
1, 8232, Note_on_c, 1, 55, 0
1, 8232, Note_on_c, 1, 57, 80
1, 8244, Note_on_c, 0, 72, 0
1, 8244, Note_on_c, 0, 71, 80
1, 8244, Note_on_c, 1, 57, 0
1, 8244, Note_on_c, 1, 55, 80
1, 8256, Note_on_c, 0, 71, 0
1, 8256, Note_on_c, 0, 69, 80
1, 8256, Note_on_c, 1, 55, 0
1, 8256, Note_on_c, 1, 54, 80
1, 8268, Note_on_c, 0, 69, 0
1, 8268, Note_on_c, 0, 67, 80
1, 8268, Note_on_c, 1, 54, 0
1, 8268, Note_on_c, 1, 52, 80
1, 8280, Note_on_c, 0, 67, 0
1, 8280, Note_on_c, 0, 66, 80
1, 8280, Note_on_c, 1, 52, 0
1, 8280, Note_on_c, 1, 50, 80
1, 8292, Note_on_c, 0, 66, 0
1, 8292, Note_on_c, 0, 64, 80
1, 8292, Note_on_c, 1, 50, 0
1, 8292, Note_on_c, 1, 48, 80
1, 8304, Note_on_c, 0, 64, 0
1, 8304, Note_on_c, 0, 66, 96
1, 8304, Note_on_c, 1, 48, 0
1, 8304, Note_on_c, 1, 50, 80
1, 8319, Note_on_c, 1, 50, 0
1, 8320, Note_on_c, 1, 54, 80
1, 8335, Note_on_c, 1, 54, 0
1, 8336, Note_on_c, 1, 57, 80
1, 8351, Note_on_c, 1, 57, 0
1, 8352, Note_on_c, 0, 66, 0
1, 8352, Note_on_c, 0, 81, 81
1, 8352, Note_on_c, 0, 78, 81
1, 8352, Note_on_c, 1, 50, 80
1, 8367, Note_on_c, 1, 50, 0
1, 8368, Note_on_c, 1, 54, 80
1, 8372, Note_on_c, 0, 81, 0
1, 8372, Note_on_c, 0, 78, 0
1, 8383, Note_on_c, 1, 54, 0
1, 8384, Note_on_c, 1, 57, 80
1, 8399, Note_on_c, 1, 57, 0
1, 8400, Note_on_c, 0, 67, 82
1, 8400, Note_on_c, 1, 50, 80
1, 8406, Note_on_c, 0, 67, 0
1, 8406, Note_on_c, 0, 66, 82
1, 8412, Note_on_c, 0, 66, 0
1, 8412, Note_on_c, 0, 67, 98
1, 8415, Note_on_c, 1, 50, 0
1, 8416, Note_on_c, 1, 55, 80
1, 8431, Note_on_c, 1, 55, 0
1, 8432, Note_on_c, 1, 59, 80
1, 8447, Note_on_c, 1, 59, 0
1, 8448, Note_on_c, 0, 67, 0
1, 8448, Note_on_c, 0, 83, 83
1, 8448, Note_on_c, 0, 79, 83
1, 8448, Note_on_c, 1, 50, 80
1, 8463, Note_on_c, 1, 50, 0
1, 8464, Note_on_c, 1, 55, 80
1, 8468, Note_on_c, 0, 83, 0
1, 8468, Note_on_c, 0, 79, 0
1, 8479, Note_on_c, 1, 55, 0
1, 8480, Note_on_c, 1, 59, 80
1, 8495, Note_on_c, 1, 59, 0
1, 8496, Note_on_c, 0, 69, 84
1, 8496, Note_on_c, 1, 50, 80
1, 8502, Note_on_c, 0, 69, 0
1, 8502, Note_on_c, 0, 67, 84
1, 8508, Note_on_c, 0, 67, 0
1, 8508, Note_on_c, 0, 69, 100
1, 8511, Note_on_c, 1, 50, 0
1, 8512, Note_on_c, 1, 57, 80
1, 8527, Note_on_c, 1, 57, 0
1, 8528, Note_on_c, 1, 60, 80
1, 8543, Note_on_c, 1, 60, 0
1, 8544, Note_on_c, 0, 69, 0
1, 8544, Note_on_c, 0, 84, 86
1, 8544, Note_on_c, 0, 81, 86
1, 8544, Note_on_c, 1, 50, 80
1, 8559, Note_on_c, 1, 50, 0
1, 8560, Note_on_c, 1, 57, 78
1, 8564, Note_on_c, 0, 84, 0
1, 8564, Note_on_c, 0, 81, 0
1, 8575, Note_on_c, 1, 57, 0
1, 8576, Note_on_c, 1, 60, 77
1, 8591, Note_on_c, 1, 60, 0
1, 8592, Note_on_c, 0, 85, 80
1, 8592, Note_on_c, 1, 69, 75
1, 8615, Note_on_c, 0, 85, 0
1, 8616, Note_on_c, 0, 86, 80
1, 8639, Note_on_c, 0, 86, 0
1, 8640, Note_on_c, 0, 88, 80
1, 8663, Note_on_c, 0, 88, 0
1, 8664, Note_on_c, 0, 86, 80
1, 8681, Note_on_c, 1, 69, 0
1, 8687, Note_on_c, 0, 86, 0
1, 8688, Note_on_c, 0, 84, 80
1, 8777, Note_on_c, 0, 84, 0
1, 8832, Tempo, 545454
1, 8880, Tempo, 1090909
1, 8880, Note_on_c, 0, 69, 80
1, 8880, Note_on_c, 0, 66, 80
1, 8880, Note_on_c, 1, 50, 75
1, 8896, Note_on_c, 1, 50, 0
1, 8896, Note_on_c, 1, 54, 75
1, 8911, Note_on_c, 1, 54, 0
1, 8912, Note_on_c, 1, 57, 75
1, 8927, Note_on_c, 0, 69, 0
1, 8927, Note_on_c, 0, 66, 0
1, 8927, Note_on_c, 1, 57, 0
1, 8928, Note_on_c, 0, 38, 80
1, 8928, Note_on_c, 1, 50, 75
1, 8943, Note_on_c, 1, 50, 0
1, 8944, Note_on_c, 1, 54, 75
1, 8959, Note_on_c, 1, 54, 0
1, 8960, Note_on_c, 1, 57, 75
1, 8973, Note_on_c, 0, 38, 0
1, 8975, Note_on_c, 1, 57, 0
1, 8976, Note_on_c, 0, 70, 80
1, 8976, Note_on_c, 0, 67, 80
1, 8976, Note_on_c, 1, 50, 75
1, 8991, Note_on_c, 1, 50, 0
1, 8992, Note_on_c, 1, 55, 75
1, 9007, Note_on_c, 1, 55, 0
1, 9008, Note_on_c, 1, 58, 75
1, 9021, Note_on_c, 0, 70, 0
1, 9021, Note_on_c, 0, 67, 0
1, 9023, Note_on_c, 1, 58, 0
1, 9024, Note_on_c, 0, 38, 80
1, 9024, Note_on_c, 1, 50, 75
1, 9039, Note_on_c, 1, 50, 0
1, 9040, Note_on_c, 1, 55, 75
1, 9055, Note_on_c, 1, 55, 0
1, 9056, Note_on_c, 1, 58, 75
1, 9069, Note_on_c, 0, 38, 0
1, 9071, Note_on_c, 1, 58, 0
1, 9072, Note_on_c, 0, 72, 80
1, 9072, Note_on_c, 0, 69, 80
1, 9072, Note_on_c, 1, 50, 75
1, 9087, Note_on_c, 1, 50, 0
1, 9088, Note_on_c, 1, 57, 75
1, 9103, Note_on_c, 1, 57, 0
1, 9104, Note_on_c, 1, 60, 75
1, 9117, Note_on_c, 0, 72, 0
1, 9117, Note_on_c, 0, 69, 0
1, 9119, Note_on_c, 1, 60, 0
1, 9120, Note_on_c, 0, 38, 80
1, 9120, Note_on_c, 1, 50, 75
1, 9135, Note_on_c, 1, 50, 0
1, 9136, Note_on_c, 1, 57, 75
1, 9151, Note_on_c, 1, 57, 0
1, 9152, Note_on_c, 1, 60, 75
1, 9165, Note_on_c, 0, 38, 0
1, 9167, Note_on_c, 1, 60, 0
1, 9168, Tempo, 1500000
1, 9168, Note_on_c, 0, 75, 80
1, 9168, Note_on_c, 0, 72, 80
1, 9168, Note_on_c, 1, 69, 75
1, 9168, Note_on_c, 1, 66, 75
1, 9257, Note_on_c, 1, 69, 0
1, 9257, Note_on_c, 1, 66, 0
1, 9264, Tempo, 1090909
1, 9264, Note_on_c, 0, 75, 0
1, 9264, Note_on_c, 0, 72, 0
1, 9264, Note_on_c, 0, 74, 96
1, 9280, Note_on_c, 0, 74, 0
1, 9280, Note_on_c, 0, 79, 79
1, 9295, Note_on_c, 0, 79, 0
1, 9296, Note_on_c, 0, 71, 78
1, 9311, Note_on_c, 0, 71, 0
1, 9312, Note_on_c, 0, 72, 78
1, 9327, Note_on_c, 0, 72, 0
1, 9328, Note_on_c, 0, 76, 77
1, 9343, Note_on_c, 0, 76, 0
1, 9344, Note_on_c, 0, 68, 76
1, 9359, Note_on_c, 0, 68, 0
1, 9360, Note_on_c, 0, 69, 76
1, 9375, Note_on_c, 0, 69, 0
1, 9376, Note_on_c, 0, 71, 75
1, 9391, Note_on_c, 0, 71, 0
1, 9392, Note_on_c, 0, 72, 75
1, 9407, Note_on_c, 0, 72, 0
1, 9408, Note_on_c, 0, 74, 74
1, 9423, Note_on_c, 0, 74, 0
1, 9424, Note_on_c, 0, 72, 73
1, 9439, Note_on_c, 0, 72, 0
1, 9440, Note_on_c, 0, 71, 73
1, 9455, Note_on_c, 0, 71, 0
1, 9456, Note_on_c, 0, 69, 70
1, 9456, Note_on_c, 0, 67, 70
1, 9456, Note_on_c, 1, 61, 70
1, 9466, Note_on_c, 0, 69, 0
1, 9466, Note_on_c, 0, 67, 0
1, 9480, Note_on_c, 0, 69, 86
1, 9480, Note_on_c, 0, 67, 86
1, 9504, Note_on_c, 1, 61, 0
1, 9504, Note_on_c, 1, 64, 70
1, 9528, Note_on_c, 0, 69, 0
1, 9528, Note_on_c, 0, 67, 0
1, 9528, Note_on_c, 0, 69, 70
1, 9528, Note_on_c, 0, 67, 70
1, 9549, Note_on_c, 1, 64, 0
1, 9551, Note_on_c, 0, 69, 0
1, 9551, Note_on_c, 0, 67, 0
1, 9552, Note_on_c, 0, 70, 70
1, 9552, Note_on_c, 0, 67, 70
1, 9552, Note_on_c, 1, 61, 70
1, 9562, Note_on_c, 0, 70, 0
1, 9562, Note_on_c, 0, 67, 0
1, 9576, Note_on_c, 0, 70, 86
1, 9576, Note_on_c, 0, 67, 86
1, 9600, Note_on_c, 1, 61, 0
1, 9600, Note_on_c, 1, 64, 70
1, 9624, Note_on_c, 0, 70, 0
1, 9624, Note_on_c, 0, 67, 0
1, 9624, Note_on_c, 0, 70, 70
1, 9624, Note_on_c, 0, 67, 70
1, 9645, Note_on_c, 1, 64, 0
1, 9647, Note_on_c, 0, 70, 0
1, 9647, Note_on_c, 0, 67, 0
1, 9648, Note_on_c, 0, 76, 70
1, 9648, Note_on_c, 0, 70, 70
1, 9648, Note_on_c, 0, 67, 70
1, 9648, Note_on_c, 1, 61, 70
1, 9658, Note_on_c, 0, 76, 0
1, 9658, Note_on_c, 0, 70, 0
1, 9658, Note_on_c, 0, 67, 0
1, 9672, Note_on_c, 0, 76, 86
1, 9672, Note_on_c, 0, 70, 86
1, 9672, Note_on_c, 0, 67, 86
1, 9696, Note_on_c, 1, 61, 0
1, 9696, Note_on_c, 1, 64, 70
1, 9720, Note_on_c, 0, 76, 0
1, 9720, Note_on_c, 0, 70, 0
1, 9720, Note_on_c, 0, 67, 0
1, 9720, Note_on_c, 0, 76, 70
1, 9720, Note_on_c, 0, 70, 70
1, 9720, Note_on_c, 0, 67, 70
1, 9741, Note_on_c, 1, 64, 0
1, 9743, Note_on_c, 0, 76, 0
1, 9743, Note_on_c, 0, 70, 0
1, 9743, Note_on_c, 0, 67, 0
1, 9744, Tempo, 1200000
1, 9744, Note_on_c, 0, 79, 87
1, 9756, Note_on_c, 0, 79, 0
1, 9756, Note_on_c, 0, 81, 87
1, 9768, Note_on_c, 0, 81, 0
1, 9768, Note_on_c, 0, 82, 103
1, 9840, Tempo, 1090909
1, 9840, Note_on_c, 0, 82, 0
1, 9840, Note_on_c, 1, 50, 64
1, 9855, Note_on_c, 1, 50, 0
1, 9856, Note_on_c, 1, 55, 64
1, 9871, Note_on_c, 1, 55, 0
1, 9872, Note_on_c, 1, 59, 64
1, 9887, Note_on_c, 1, 59, 0
1, 9888, Note_on_c, 0, 79, 64
1, 9888, Note_on_c, 0, 74, 64
1, 9888, Note_on_c, 1, 62, 64
1, 9903, Note_on_c, 1, 62, 0
1, 9904, Note_on_c, 1, 59, 64
1, 9908, Note_on_c, 0, 79, 0
1, 9908, Note_on_c, 0, 74, 0
1, 9919, Note_on_c, 1, 59, 0
1, 9920, Note_on_c, 1, 55, 64
1, 9935, Note_on_c, 1, 55, 0
1, 9936, Note_on_c, 1, 50, 64
1, 9951, Note_on_c, 1, 50, 0
1, 9952, Note_on_c, 1, 54, 64
1, 9967, Note_on_c, 1, 54, 0
1, 9968, Note_on_c, 1, 57, 64
1, 9983, Note_on_c, 1, 57, 0
1, 9984, Note_on_c, 0, 81, 64
1, 9984, Note_on_c, 0, 78, 64
1, 9984, Note_on_c, 1, 62, 64
1, 9999, Note_on_c, 1, 62, 0
1, 10000, Note_on_c, 1, 57, 64
1, 10015, Note_on_c, 1, 57, 0
1, 10016, Note_on_c, 1, 54, 64
1, 10029, Note_on_c, 0, 81, 0
1, 10029, Note_on_c, 0, 78, 0
1, 10031, Note_on_c, 1, 54, 0
1, 10032, Note_on_c, 0, 79, 64
1, 10032, Note_on_c, 0, 74, 64
1, 10032, Note_on_c, 0, 71, 64
1, 10032, Note_on_c, 1, 55, 64
1, 10047, Note_on_c, 1, 55, 0
1, 10048, Note_on_c, 1, 59, 64
1, 10063, Note_on_c, 1, 59, 0
1, 10064, Note_on_c, 1, 62, 64
1, 10077, Note_on_c, 0, 79, 0
1, 10077, Note_on_c, 0, 74, 0
1, 10077, Note_on_c, 0, 71, 0
1, 10079, Note_on_c, 1, 62, 0
1, 10080, Note_on_c, 0, 47, 58
1, 10080, Note_on_c, 0, 43, 58
1, 10080, Note_on_c, 1, 67, 64
1, 10095, Note_on_c, 1, 67, 0
1, 10096, Note_on_c, 1, 62, 64
1, 10111, Note_on_c, 1, 62, 0
1, 10112, Note_on_c, 1, 59, 64
1, 10125, Note_on_c, 0, 47, 0
1, 10125, Note_on_c, 0, 43, 0
1, 10127, Note_on_c, 1, 59, 0
1, 10128, Note_on_c, 0, 47, 58
1, 10128, Note_on_c, 0, 43, 58
1, 10128, Note_on_c, 1, 55, 64
1, 10217, Note_on_c, 0, 47, 0
1, 10217, Note_on_c, 0, 43, 0
1, 10217, Note_on_c, 1, 55, 0
1, 10272, Note_on_c, 0, 53, 75
1, 10272, Note_on_c, 1, 41, 75
1, 10287, Note_on_c, 0, 53, 0
1, 10287, Note_on_c, 1, 41, 0
1, 10288, Note_on_c, 0, 59, 76
1, 10288, Note_on_c, 1, 47, 77
1, 10303, Note_on_c, 0, 59, 0
1, 10303, Note_on_c, 1, 47, 0
1, 10304, Note_on_c, 0, 62, 77
1, 10304, Note_on_c, 1, 50, 79
1, 10319, Note_on_c, 0, 62, 0
1, 10319, Note_on_c, 1, 50, 0
1, 10320, Note_on_c, 0, 65, 78
1, 10320, Note_on_c, 1, 53, 79
1, 10335, Note_on_c, 0, 65, 0
1, 10335, Note_on_c, 1, 53, 0
1, 10336, Note_on_c, 0, 62, 80
1, 10336, Note_on_c, 1, 50, 78
1, 10351, Note_on_c, 0, 62, 0
1, 10351, Note_on_c, 1, 50, 0
1, 10352, Note_on_c, 0, 59, 78
1, 10352, Note_on_c, 1, 47, 77
1, 10367, Note_on_c, 0, 59, 0
1, 10367, Note_on_c, 1, 47, 0
1, 10368, Tempo, 1200000
1, 10368, Note_on_c, 0, 53, 75
1, 10368, Note_on_c, 1, 41, 75
1, 10413, Note_on_c, 0, 53, 0
1, 10413, Note_on_c, 1, 41, 0
1, 10416, Tempo, 1333333
1, 10416, Note_on_c, 0, 52, 75
1, 10416, Note_on_c, 1, 40, 75
1, 10439, Note_on_c, 0, 52, 0
1, 10439, Note_on_c, 1, 40, 0
1, 10440, Note_on_c, 0, 51, 75
1, 10440, Note_on_c, 1, 39, 75
1, 10463, Note_on_c, 0, 51, 0
1, 10463, Note_on_c, 1, 39, 0
1, 10464, Tempo, 2000000
1, 10464, Note_on_c, 0, 52, 75
1, 10464, Note_on_c, 1, 40, 75
1, 10470, Note_on_c, 0, 52, 0
1, 10470, Note_on_c, 0, 60, 91
1, 10470, Note_on_c, 1, 40, 0
1, 10470, Note_on_c, 1, 54, 75
1, 10470, Note_on_c, 1, 51, 75
1, 10470, Note_on_c, 1, 48, 75
1, 10531, Note_on_c, 1, 54, 0
1, 10531, Note_on_c, 1, 51, 0
1, 10531, Note_on_c, 1, 48, 0
1, 10536, Tempo, 3000000
1, 10536, Note_on_c, 0, 60, 0
1, 10560, Tempo, 1090909
1, 10560, Note_on_c, 1, 52, 70
1, 10575, Note_on_c, 1, 52, 0
1, 10576, Note_on_c, 1, 55, 70
1, 10591, Note_on_c, 1, 55, 0
1, 10592, Note_on_c, 1, 52, 70
1, 10607, Note_on_c, 1, 52, 0
1, 10608, Note_on_c, 0, 88, 91
1, 10608, Note_on_c, 1, 54, 71
1, 10623, Note_on_c, 1, 54, 0
1, 10624, Note_on_c, 1, 57, 71
1, 10639, Note_on_c, 1, 57, 0
1, 10640, Note_on_c, 1, 54, 72
1, 10655, Note_on_c, 1, 54, 0
1, 10656, Note_on_c, 0, 88, 0
1, 10656, Note_on_c, 0, 76, 75
1, 10656, Note_on_c, 1, 55, 72
1, 10671, Note_on_c, 1, 55, 0
1, 10672, Note_on_c, 1, 59, 72
1, 10687, Note_on_c, 1, 59, 0
1, 10688, Note_on_c, 1, 55, 73
1, 10703, Note_on_c, 1, 55, 0
1, 10704, Note_on_c, 1, 57, 73
1, 10719, Note_on_c, 1, 57, 0
1, 10720, Note_on_c, 1, 60, 74
1, 10735, Note_on_c, 1, 60, 0
1, 10736, Note_on_c, 1, 57, 74
1, 10751, Note_on_c, 1, 57, 0
1, 10752, Note_on_c, 1, 55, 75
1, 10767, Note_on_c, 1, 55, 0
1, 10768, Note_on_c, 1, 59, 74
1, 10775, Note_on_c, 0, 76, 0
1, 10776, Note_on_c, 0, 78, 75
1, 10783, Note_on_c, 1, 59, 0
1, 10784, Note_on_c, 1, 55, 74
1, 10788, Note_on_c, 0, 78, 0
1, 10788, Note_on_c, 0, 79, 76
1, 10799, Note_on_c, 1, 55, 0
1, 10800, Note_on_c, 0, 79, 0
1, 10800, Note_on_c, 0, 81, 76
1, 10800, Note_on_c, 1, 54, 73
1, 10812, Note_on_c, 0, 81, 0
1, 10812, Note_on_c, 0, 83, 77
1, 10815, Note_on_c, 1, 54, 0
1, 10816, Note_on_c, 1, 57, 73
1, 10824, Note_on_c, 0, 83, 0
1, 10824, Note_on_c, 0, 85, 77
1, 10831, Note_on_c, 1, 57, 0
1, 10832, Note_on_c, 1, 54, 72
1, 10836, Note_on_c, 0, 85, 0
1, 10836, Note_on_c, 0, 87, 77
1, 10847, Note_on_c, 1, 54, 0
1, 10848, Note_on_c, 0, 87, 0
1, 10848, Note_on_c, 0, 88, 94
1, 10848, Note_on_c, 1, 52, 70
1, 10863, Note_on_c, 1, 52, 0
1, 10864, Note_on_c, 1, 55, 70
1, 10879, Note_on_c, 1, 55, 0
1, 10880, Note_on_c, 1, 52, 70
1, 10895, Note_on_c, 1, 52, 0
1, 10896, Note_on_c, 0, 88, 0
1, 10896, Note_on_c, 0, 40, 80
1, 10896, Note_on_c, 1, 54, 71
1, 10911, Note_on_c, 1, 54, 0
1, 10912, Note_on_c, 1, 57, 71
1, 10927, Note_on_c, 1, 57, 0
1, 10928, Note_on_c, 1, 54, 71
1, 10943, Note_on_c, 1, 54, 0
1, 10944, Note_on_c, 1, 55, 72
1, 10959, Note_on_c, 1, 55, 0
1, 10960, Note_on_c, 1, 59, 72
1, 10975, Note_on_c, 1, 59, 0
1, 10976, Note_on_c, 1, 55, 73
1, 10985, Note_on_c, 0, 40, 0
1, 10991, Note_on_c, 1, 55, 0
1, 10992, Note_on_c, 0, 89, 80
1, 10992, Note_on_c, 1, 57, 73
1, 10998, Note_on_c, 0, 89, 0
1, 10998, Note_on_c, 0, 88, 80
1, 11004, Note_on_c, 0, 88, 0
1, 11004, Note_on_c, 0, 87, 80
1, 11007, Note_on_c, 1, 57, 0
1, 11008, Note_on_c, 1, 60, 73
1, 11010, Note_on_c, 0, 87, 0
1, 11010, Note_on_c, 0, 88, 96
1, 11023, Note_on_c, 1, 60, 0
1, 11024, Note_on_c, 1, 57, 74
1, 11039, Note_on_c, 1, 57, 0
1, 11040, Note_on_c, 0, 88, 0
1, 11040, Note_on_c, 0, 76, 80
1, 11040, Note_on_c, 1, 55, 74
1, 11055, Note_on_c, 1, 55, 0
1, 11056, Note_on_c, 1, 59, 75
1, 11063, Note_on_c, 0, 76, 0
1, 11064, Note_on_c, 0, 78, 80
1, 11071, Note_on_c, 1, 59, 0
1, 11072, Note_on_c, 1, 55, 74
1, 11076, Note_on_c, 0, 78, 0
1, 11076, Note_on_c, 0, 79, 80
1, 11087, Note_on_c, 1, 55, 0
1, 11088, Note_on_c, 0, 79, 0
1, 11088, Note_on_c, 0, 81, 80
1, 11088, Note_on_c, 1, 54, 74
1, 11100, Note_on_c, 0, 81, 0
1, 11100, Note_on_c, 0, 83, 80
1, 11103, Note_on_c, 1, 54, 0
1, 11104, Note_on_c, 1, 57, 73
1, 11112, Note_on_c, 0, 83, 0
1, 11112, Note_on_c, 0, 85, 80
1, 11119, Note_on_c, 1, 57, 0
1, 11120, Note_on_c, 1, 54, 73
1, 11124, Note_on_c, 0, 85, 0
1, 11124, Note_on_c, 0, 87, 80
1, 11135, Note_on_c, 1, 54, 0
1, 11136, Note_on_c, 0, 87, 0
1, 11136, Note_on_c, 0, 88, 96
1, 11136, Note_on_c, 1, 52, 70
1, 11136, Note_on_c, 1, 52, 64
1, 11151, Note_on_c, 1, 52, 0
1, 11152, Note_on_c, 1, 55, 70
1, 11167, Note_on_c, 1, 55, 0
1, 11168, Note_on_c, 1, 52, 70
1, 11181, Note_on_c, 1, 52, 0
1, 11183, Note_on_c, 1, 52, 0
1, 11184, Note_on_c, 0, 88, 0
1, 11184, Note_on_c, 0, 88, 80
1, 11184, Note_on_c, 0, 76, 80
1, 11184, Note_on_c, 1, 50, 70
1, 11184, Note_on_c, 1, 50, 64
1, 11199, Note_on_c, 1, 50, 0
1, 11200, Note_on_c, 1, 54, 70
1, 11215, Note_on_c, 1, 54, 0
1, 11216, Note_on_c, 1, 50, 70
1, 11229, Note_on_c, 1, 50, 0
1, 11231, Note_on_c, 1, 50, 0
1, 11232, Note_on_c, 1, 48, 70
1, 11232, Note_on_c, 1, 48, 64
1, 11247, Note_on_c, 1, 48, 0
1, 11248, Note_on_c, 1, 52, 70
1, 11263, Note_on_c, 1, 52, 0
1, 11264, Note_on_c, 1, 48, 70
1, 11273, Note_on_c, 0, 88, 0
1, 11273, Note_on_c, 0, 76, 0
1, 11277, Note_on_c, 1, 48, 0
1, 11279, Note_on_c, 1, 48, 0
1, 11280, Note_on_c, 0, 88, 84
1, 11280, Note_on_c, 0, 76, 84
1, 11280, Note_on_c, 1, 47, 70
1, 11280, Note_on_c, 1, 47, 64
1, 11295, Note_on_c, 1, 47, 0
1, 11296, Note_on_c, 1, 50, 70
1, 11311, Note_on_c, 1, 50, 0
1, 11312, Note_on_c, 1, 47, 70
1, 11325, Note_on_c, 0, 88, 0
1, 11325, Note_on_c, 0, 76, 0
1, 11325, Note_on_c, 1, 47, 0
1, 11327, Note_on_c, 1, 47, 0
1, 11328, Note_on_c, 0, 89, 86
1, 11328, Note_on_c, 0, 84, 58
1, 11328, Note_on_c, 1, 45, 75
1, 11351, Note_on_c, 0, 89, 0
1, 11352, Note_on_c, 0, 88, 85
1, 11375, Note_on_c, 0, 88, 0
1, 11376, Note_on_c, 0, 87, 84
1, 11399, Note_on_c, 0, 87, 0
1, 11400, Note_on_c, 0, 88, 83
1, 11417, Note_on_c, 1, 45, 0
1, 11423, Note_on_c, 0, 88, 0
1, 11424, Note_on_c, 0, 87, 82
1, 11424, Note_on_c, 0, 84, 0
1, 11424, Note_on_c, 0, 83, 58
1, 11424, Note_on_c, 1, 47, 71
1, 11447, Note_on_c, 1, 47, 0
1, 11448, Note_on_c, 1, 59, 70
1, 11469, Note_on_c, 0, 87, 0
1, 11469, Note_on_c, 0, 83, 0
1, 11471, Note_on_c, 1, 59, 0
1, 11472, Note_on_c, 1, 47, 70
1, 11495, Note_on_c, 1, 47, 0
1, 11496, Note_on_c, 1, 47, 70
1, 11519, Note_on_c, 1, 47, 0
1, 11520, Note_on_c, 1, 47, 70
1, 11543, Note_on_c, 1, 47, 0
1, 11544, Note_on_c, 1, 59, 70
1, 11567, Note_on_c, 1, 59, 0
1, 11568, Note_on_c, 1, 47, 70
1, 11591, Note_on_c, 1, 47, 0
1, 11592, Note_on_c, 1, 47, 70
1, 11615, Note_on_c, 1, 47, 0
1, 11616, Note_on_c, 0, 72, 70
1, 11616, Note_on_c, 0, 67, 70
1, 11616, Note_on_c, 0, 64, 70
1, 11616, Note_on_c, 1, 47, 70
1, 11639, Note_on_c, 1, 47, 0
1, 11640, Note_on_c, 1, 59, 70
1, 11663, Note_on_c, 1, 59, 0
1, 11664, Note_on_c, 1, 47, 70
1, 11687, Note_on_c, 1, 47, 0
1, 11688, Note_on_c, 1, 47, 70
1, 11705, Note_on_c, 0, 72, 0
1, 11705, Note_on_c, 0, 67, 0
1, 11705, Note_on_c, 0, 64, 0
1, 11711, Note_on_c, 1, 47, 0
1, 11712, Note_on_c, 1, 47, 70
1, 11735, Note_on_c, 1, 47, 0
1, 11736, Note_on_c, 1, 59, 70
1, 11759, Note_on_c, 1, 59, 0
1, 11760, Note_on_c, 1, 47, 70
1, 11783, Note_on_c, 1, 47, 0
1, 11784, Note_on_c, 1, 47, 70
1, 11796, Note_on_c, 0, 75, 70
1, 11807, Note_on_c, 1, 47, 0
1, 11808, Note_on_c, 0, 75, 0
1, 11808, Note_on_c, 0, 76, 86
1, 11808, Note_on_c, 0, 71, 86
1, 11808, Note_on_c, 0, 67, 86
1, 11808, Note_on_c, 1, 47, 70
1, 11831, Note_on_c, 1, 47, 0
1, 11832, Note_on_c, 1, 59, 70
1, 11855, Note_on_c, 1, 59, 0
1, 11856, Note_on_c, 1, 47, 70
1, 11879, Note_on_c, 1, 47, 0
1, 11880, Note_on_c, 0, 76, 0
1, 11880, Note_on_c, 0, 71, 0
1, 11880, Note_on_c, 0, 67, 0
1, 11880, Note_on_c, 1, 47, 71
1, 11892, Note_on_c, 0, 76, 71
1, 11903, Note_on_c, 1, 47, 0
1, 11904, Note_on_c, 0, 76, 0
1, 11904, Note_on_c, 0, 78, 87
1, 11904, Note_on_c, 0, 72, 87
1, 11904, Note_on_c, 0, 69, 87
1, 11904, Note_on_c, 1, 47, 71
1, 11927, Note_on_c, 1, 47, 0
1, 11928, Note_on_c, 1, 59, 72
1, 11951, Note_on_c, 1, 59, 0
1, 11952, Note_on_c, 1, 47, 72
1, 11975, Note_on_c, 1, 47, 0
1, 11976, Note_on_c, 0, 78, 0
1, 11976, Note_on_c, 0, 72, 0
1, 11976, Note_on_c, 0, 69, 0
1, 11976, Note_on_c, 1, 47, 72
1, 11988, Note_on_c, 0, 78, 73
1, 11999, Note_on_c, 1, 47, 0
1, 12000, Note_on_c, 0, 78, 0
1, 12000, Note_on_c, 0, 79, 89
1, 12000, Note_on_c, 0, 76, 89
1, 12000, Note_on_c, 0, 71, 89
1, 12000, Note_on_c, 1, 47, 73
1, 12023, Note_on_c, 1, 47, 0
1, 12024, Note_on_c, 1, 59, 73
1, 12047, Note_on_c, 1, 59, 0
1, 12048, Note_on_c, 1, 47, 74
1, 12071, Note_on_c, 1, 47, 0
1, 12072, Note_on_c, 0, 79, 0
1, 12072, Note_on_c, 0, 76, 0
1, 12072, Note_on_c, 0, 71, 0
1, 12072, Note_on_c, 1, 47, 74
1, 12084, Note_on_c, 0, 79, 75
1, 12095, Note_on_c, 1, 47, 0
1, 12096, Note_on_c, 0, 79, 0
1, 12096, Note_on_c, 0, 77, 91
1, 12096, Note_on_c, 0, 72, 91
1, 12096, Note_on_c, 0, 69, 91
1, 12096, Note_on_c, 1, 45, 75
1, 12119, Note_on_c, 1, 45, 0
1, 12120, Note_on_c, 1, 57, 75
1, 12143, Note_on_c, 1, 57, 0
1, 12144, Note_on_c, 1, 45, 75
1, 12167, Note_on_c, 1, 45, 0
1, 12168, Note_on_c, 0, 77, 0
1, 12168, Note_on_c, 0, 72, 0
1, 12168, Note_on_c, 0, 69, 0
1, 12168, Note_on_c, 1, 45, 75
1, 12180, Note_on_c, 0, 77, 75
1, 12191, Note_on_c, 1, 45, 0
1, 12192, Note_on_c, 0, 77, 0
1, 12192, Note_on_c, 0, 75, 91
1, 12192, Note_on_c, 0, 71, 91
1, 12192, Note_on_c, 0, 69, 91
1, 12192, Note_on_c, 1, 45, 75
1, 12215, Note_on_c, 1, 45, 0
1, 12216, Note_on_c, 1, 57, 75
1, 12239, Note_on_c, 1, 57, 0
1, 12240, Note_on_c, 1, 45, 75
1, 12263, Note_on_c, 1, 45, 0
1, 12264, Note_on_c, 0, 75, 0
1, 12264, Note_on_c, 0, 71, 0
1, 12264, Note_on_c, 0, 69, 0
1, 12264, Note_on_c, 1, 45, 75
1, 12276, Note_on_c, 0, 75, 75
1, 12287, Note_on_c, 1, 45, 0
1, 12288, Note_on_c, 0, 75, 0
1, 12288, Note_on_c, 0, 76, 91
1, 12288, Note_on_c, 0, 71, 91
1, 12288, Note_on_c, 0, 67, 91
1, 12288, Note_on_c, 1, 43, 75
1, 12311, Note_on_c, 1, 43, 0
1, 12312, Note_on_c, 1, 55, 75
1, 12335, Note_on_c, 1, 55, 0
1, 12336, Note_on_c, 1, 43, 75
1, 12359, Note_on_c, 1, 43, 0
1, 12360, Note_on_c, 0, 76, 0
1, 12360, Note_on_c, 0, 71, 0
1, 12360, Note_on_c, 0, 67, 0
1, 12360, Note_on_c, 1, 43, 75
1, 12372, Note_on_c, 0, 76, 75
1, 12383, Note_on_c, 1, 43, 0
1, 12384, Note_on_c, 0, 76, 0
1, 12384, Note_on_c, 0, 75, 91
1, 12384, Note_on_c, 0, 70, 91
1, 12384, Note_on_c, 0, 67, 91
1, 12384, Note_on_c, 1, 43, 75
1, 12407, Note_on_c, 1, 43, 0
1, 12408, Note_on_c, 1, 55, 75
1, 12431, Note_on_c, 1, 55, 0
1, 12432, Note_on_c, 1, 43, 75
1, 12455, Note_on_c, 1, 43, 0
1, 12456, Note_on_c, 0, 75, 0
1, 12456, Note_on_c, 0, 70, 0
1, 12456, Note_on_c, 0, 67, 0
1, 12456, Note_on_c, 1, 43, 75
1, 12468, Note_on_c, 0, 75, 75
1, 12479, Note_on_c, 1, 43, 0
1, 12480, Note_on_c, 0, 75, 0
1, 12480, Note_on_c, 0, 75, 91
1, 12480, Note_on_c, 0, 68, 91
1, 12480, Note_on_c, 0, 65, 91
1, 12480, Note_on_c, 1, 41, 75
1, 12503, Note_on_c, 1, 41, 0
1, 12504, Note_on_c, 0, 75, 0
1, 12504, Note_on_c, 0, 74, 74
1, 12504, Note_on_c, 1, 53, 74
1, 12527, Note_on_c, 1, 53, 0
1, 12528, Note_on_c, 1, 41, 74
1, 12538, Note_on_c, 0, 74, 0
1, 12538, Note_on_c, 0, 68, 0
1, 12538, Note_on_c, 0, 65, 0
1, 12551, Note_on_c, 1, 41, 0
1, 12552, Note_on_c, 1, 41, 73
1, 12564, Note_on_c, 0, 74, 73
1, 12575, Note_on_c, 1, 41, 0
1, 12576, Note_on_c, 0, 74, 0
1, 12576, Note_on_c, 0, 74, 73
1, 12576, Note_on_c, 0, 70, 73
1, 12576, Note_on_c, 0, 67, 73
1, 12576, Note_on_c, 1, 39, 73
1, 12599, Note_on_c, 1, 39, 0
1, 12600, Note_on_c, 0, 74, 0
1, 12600, Note_on_c, 0, 73, 72
1, 12600, Note_on_c, 1, 51, 72
1, 12623, Note_on_c, 1, 51, 0
1, 12624, Note_on_c, 1, 39, 72
1, 12634, Note_on_c, 0, 73, 0
1, 12634, Note_on_c, 0, 70, 0
1, 12634, Note_on_c, 0, 67, 0
1, 12647, Note_on_c, 1, 39, 0
1, 12648, Note_on_c, 1, 39, 71
1, 12660, Note_on_c, 0, 73, 71
1, 12671, Note_on_c, 1, 39, 0
1, 12672, Note_on_c, 0, 73, 0
1, 12672, Note_on_c, 0, 74, 87
1, 12672, Note_on_c, 0, 69, 87
1, 12672, Note_on_c, 0, 66, 87
1, 12672, Note_on_c, 1, 38, 71
1, 12695, Note_on_c, 1, 38, 0
1, 12696, Note_on_c, 1, 50, 70
1, 12719, Note_on_c, 1, 50, 0
1, 12720, Note_on_c, 1, 38, 70
1, 12743, Note_on_c, 1, 38, 0
1, 12744, Note_on_c, 0, 74, 0
1, 12744, Note_on_c, 0, 69, 0
1, 12744, Note_on_c, 0, 66, 0
1, 12744, Note_on_c, 1, 38, 69
1, 12756, Note_on_c, 0, 69, 69
1, 12767, Note_on_c, 1, 38, 0
1, 12768, Note_on_c, 0, 69, 0
1, 12768, Note_on_c, 0, 70, 85
1, 12768, Note_on_c, 0, 67, 85
1, 12768, Note_on_c, 0, 64, 85
1, 12768, Note_on_c, 1, 37, 69
1, 12791, Note_on_c, 1, 37, 0
1, 12792, Note_on_c, 1, 49, 69
1, 12815, Note_on_c, 1, 49, 0
1, 12816, Note_on_c, 1, 37, 68
1, 12839, Note_on_c, 1, 37, 0
1, 12840, Note_on_c, 0, 70, 0
1, 12840, Note_on_c, 0, 67, 0
1, 12840, Note_on_c, 0, 64, 0
1, 12840, Note_on_c, 1, 37, 68
1, 12852, Note_on_c, 0, 70, 67
1, 12863, Note_on_c, 1, 37, 0
1, 12864, Tempo, 1200000
1, 12864, Note_on_c, 0, 70, 0
1, 12864, Note_on_c, 0, 69, 83
1, 12864, Note_on_c, 0, 67, 83
1, 12864, Note_on_c, 0, 64, 83
1, 12864, Note_on_c, 1, 36, 67
1, 12887, Note_on_c, 1, 36, 0
1, 12888, Note_on_c, 1, 48, 67
1, 12911, Note_on_c, 1, 48, 0
1, 12912, Note_on_c, 1, 36, 66
1, 12935, Note_on_c, 1, 36, 0
1, 12936, Note_on_c, 0, 69, 0
1, 12936, Note_on_c, 0, 67, 0
1, 12936, Note_on_c, 0, 64, 0
1, 12936, Note_on_c, 1, 36, 66
1, 12948, Tempo, 1500000
1, 12948, Note_on_c, 0, 69, 65
1, 12960, Note_on_c, 0, 69, 0
1, 12960, Note_on_c, 0, 68, 65
1, 12960, Note_on_c, 0, 62, 65
1, 12960, Note_on_c, 0, 59, 65
1, 12960, Note_on_c, 1, 36, 0
1, 12960, Note_on_c, 1, 35, 65
1, 13008, Note_on_c, 0, 68, 0
1, 13008, Note_on_c, 0, 62, 0
1, 13008, Note_on_c, 0, 59, 0
1, 13008, Note_on_c, 0, 86, 97
1, 13049, Note_on_c, 1, 35, 0
1, 13056, Note_on_c, 0, 86, 0
1, 13056, Note_on_c, 0, 84, 64
1, 13079, Note_on_c, 0, 84, 0
1, 13080, Note_on_c, 0, 83, 64
1, 13088, Note_on_c, 0, 83, 0
1, 13088, Note_on_c, 0, 82, 64
1, 13096, Note_on_c, 0, 82, 0
1, 13096, Note_on_c, 0, 81, 64
1, 13104, Tempo, 3000000
1, 13104, Note_on_c, 0, 81, 0
1, 13104, Note_on_c, 0, 80, 64
1, 13138, Note_on_c, 0, 80, 0
1, 13152, Tempo, 1090909
1, 13152, Note_on_c, 0, 53, 75
1, 13152, Note_on_c, 1, 50, 75
1, 13152, Note_on_c, 1, 47, 75
1, 13152, Note_on_c, 1, 43, 75
1, 13167, Note_on_c, 0, 53, 0
1, 13168, Note_on_c, 0, 59, 76
1, 13183, Note_on_c, 0, 59, 0
1, 13184, Note_on_c, 0, 62, 77
1, 13199, Note_on_c, 0, 62, 0
1, 13200, Note_on_c, 0, 65, 78
1, 13215, Note_on_c, 0, 65, 0
1, 13216, Note_on_c, 0, 62, 80
1, 13231, Note_on_c, 0, 62, 0
1, 13232, Note_on_c, 0, 59, 78
1, 13241, Note_on_c, 1, 50, 0
1, 13241, Note_on_c, 1, 47, 0
1, 13241, Note_on_c, 1, 43, 0
1, 13247, Note_on_c, 0, 59, 0
1, 13248, Note_on_c, 0, 53, 75
1, 13248, Note_on_c, 1, 50, 75
1, 13248, Note_on_c, 1, 47, 75
1, 13248, Note_on_c, 1, 43, 75
1, 13258, Note_on_c, 0, 53, 0
1, 13272, Note_on_c, 0, 59, 91
1, 13293, Note_on_c, 1, 50, 0
1, 13293, Note_on_c, 1, 47, 0
1, 13293, Note_on_c, 1, 43, 0
1, 13296, Note_on_c, 1, 50, 76
1, 13296, Note_on_c, 1, 47, 76
1, 13296, Note_on_c, 1, 43, 76
1, 13320, Note_on_c, 0, 59, 0
1, 13320, Note_on_c, 0, 62, 92
1, 13320, Note_on_c, 0, 59, 92
1, 13341, Note_on_c, 1, 50, 0
1, 13341, Note_on_c, 1, 47, 0
1, 13341, Note_on_c, 1, 43, 0
1, 13344, Note_on_c, 1, 50, 77
1, 13344, Note_on_c, 1, 47, 77
1, 13344, Note_on_c, 1, 43, 77
1, 13368, Note_on_c, 0, 62, 0
1, 13368, Note_on_c, 0, 59, 0
1, 13368, Note_on_c, 0, 65, 94
1, 13368, Note_on_c, 0, 62, 94
1, 13389, Note_on_c, 1, 50, 0
1, 13389, Note_on_c, 1, 47, 0
1, 13389, Note_on_c, 1, 43, 0
1, 13392, Note_on_c, 1, 50, 78
1, 13392, Note_on_c, 1, 47, 78
1, 13392, Note_on_c, 1, 43, 78
1, 13416, Note_on_c, 0, 65, 0
1, 13416, Note_on_c, 0, 62, 0
1, 13416, Note_on_c, 0, 68, 79
1, 13416, Note_on_c, 0, 65, 79
1, 13437, Note_on_c, 1, 50, 0
1, 13437, Note_on_c, 1, 47, 0
1, 13437, Note_on_c, 1, 43, 0
1, 13439, Note_on_c, 0, 68, 0
1, 13439, Note_on_c, 0, 65, 0
1, 13440, Note_on_c, 0, 67, 80
1, 13440, Note_on_c, 0, 64, 80
1, 13440, Note_on_c, 1, 36, 70
1, 13455, Note_on_c, 1, 36, 0
1, 13456, Note_on_c, 1, 40, 70
1, 13463, Note_on_c, 0, 67, 0
1, 13463, Note_on_c, 0, 64, 0
1, 13464, Note_on_c, 0, 72, 78
1, 13471, Note_on_c, 1, 40, 0
1, 13472, Note_on_c, 1, 36, 70
1, 13487, Note_on_c, 0, 72, 0
1, 13487, Note_on_c, 1, 36, 0
1, 13488, Note_on_c, 0, 60, 93
1, 13488, Note_on_c, 1, 38, 71
1, 13503, Note_on_c, 1, 38, 0
1, 13504, Note_on_c, 1, 41, 71
1, 13519, Note_on_c, 1, 41, 0
1, 13520, Note_on_c, 1, 38, 72
1, 13535, Note_on_c, 1, 38, 0
1, 13536, Note_on_c, 0, 60, 0
1, 13536, Note_on_c, 0, 60, 75
1, 13536, Note_on_c, 1, 40, 72
1, 13542, Note_on_c, 0, 60, 0
1, 13542, Note_on_c, 0, 59, 75
1, 13548, Note_on_c, 0, 59, 0
1, 13548, Note_on_c, 0, 60, 75
1, 13551, Note_on_c, 1, 40, 0
1, 13552, Note_on_c, 1, 43, 72
1, 13567, Note_on_c, 1, 43, 0
1, 13568, Note_on_c, 1, 40, 73
1, 13583, Note_on_c, 1, 40, 0
1, 13584, Note_on_c, 1, 41, 73
1, 13599, Note_on_c, 1, 41, 0
1, 13600, Note_on_c, 1, 45, 74
1, 13615, Note_on_c, 1, 45, 0
1, 13616, Note_on_c, 1, 41, 74
1, 13631, Note_on_c, 1, 41, 0
1, 13632, Note_on_c, 1, 40, 75
1, 13647, Note_on_c, 1, 40, 0
1, 13648, Note_on_c, 1, 43, 74
1, 13655, Note_on_c, 0, 60, 0
1, 13656, Note_on_c, 0, 62, 78
1, 13663, Note_on_c, 1, 43, 0
1, 13664, Note_on_c, 1, 40, 74
1, 13668, Note_on_c, 0, 62, 0
1, 13668, Note_on_c, 0, 64, 78
1, 13679, Note_on_c, 1, 40, 0
1, 13680, Note_on_c, 0, 64, 0
1, 13680, Note_on_c, 0, 65, 78
1, 13680, Note_on_c, 1, 38, 73
1, 13692, Note_on_c, 0, 65, 0
1, 13692, Note_on_c, 0, 67, 79
1, 13695, Note_on_c, 1, 38, 0
1, 13696, Note_on_c, 1, 41, 73
1, 13704, Note_on_c, 0, 67, 0
1, 13704, Note_on_c, 0, 69, 79
1, 13711, Note_on_c, 1, 41, 0
1, 13712, Note_on_c, 1, 38, 72
1, 13716, Note_on_c, 0, 69, 0
1, 13716, Note_on_c, 0, 71, 79
1, 13727, Note_on_c, 1, 38, 0
1, 13728, Note_on_c, 0, 71, 0
1, 13728, Note_on_c, 0, 72, 80
1, 13728, Note_on_c, 1, 36, 70
1, 13743, Note_on_c, 1, 36, 0
1, 13744, Note_on_c, 1, 40, 70
1, 13759, Note_on_c, 1, 40, 0
1, 13760, Note_on_c, 1, 36, 70
1, 13773, Note_on_c, 0, 72, 0
1, 13775, Note_on_c, 1, 36, 0
1, 13776, Note_on_c, 0, 70, 75
1, 13776, Note_on_c, 0, 67, 75
1, 13776, Note_on_c, 0, 60, 75
1, 13776, Note_on_c, 1, 40, 70
1, 13791, Note_on_c, 1, 40, 0
1, 13792, Note_on_c, 1, 43, 70
1, 13807, Note_on_c, 1, 43, 0
1, 13808, Note_on_c, 1, 40, 70
1, 13823, Note_on_c, 1, 40, 0
1, 13824, Note_on_c, 0, 70, 0
1, 13824, Note_on_c, 0, 67, 0
1, 13824, Note_on_c, 0, 69, 75
1, 13824, Note_on_c, 0, 65, 75
1, 13824, Note_on_c, 1, 41, 70
1, 13839, Note_on_c, 1, 41, 0
1, 13840, Note_on_c, 1, 45, 70
1, 13855, Note_on_c, 1, 45, 0
1, 13856, Note_on_c, 1, 41, 71
1, 13869, Note_on_c, 0, 69, 0
1, 13869, Note_on_c, 0, 65, 0
1, 13869, Note_on_c, 0, 60, 0
1, 13871, Note_on_c, 1, 41, 0
1, 13872, Note_on_c, 0, 72, 76
1, 13872, Note_on_c, 0, 69, 76
1, 13872, Note_on_c, 0, 62, 76
1, 13872, Note_on_c, 1, 42, 71
1, 13887, Note_on_c, 1, 42, 0
1, 13888, Note_on_c, 1, 45, 71
1, 13903, Note_on_c, 1, 45, 0
1, 13904, Note_on_c, 1, 42, 71
1, 13919, Note_on_c, 1, 42, 0
1, 13920, Note_on_c, 0, 72, 0
1, 13920, Note_on_c, 0, 69, 0
1, 13920, Note_on_c, 0, 71, 77
1, 13920, Note_on_c, 0, 67, 77
1, 13920, Note_on_c, 1, 43, 71
1, 13935, Note_on_c, 1, 43, 0
1, 13936, Note_on_c, 1, 47, 72
1, 13951, Note_on_c, 1, 47, 0
1, 13952, Note_on_c, 1, 43, 72
1, 13965, Note_on_c, 0, 71, 0
1, 13965, Note_on_c, 0, 67, 0
1, 13965, Note_on_c, 0, 62, 0
1, 13967, Note_on_c, 1, 43, 0
1, 13968, Note_on_c, 0, 77, 77
1, 13968, Note_on_c, 0, 74, 77
1, 13968, Note_on_c, 0, 67, 77
1, 13968, Note_on_c, 1, 47, 72
1, 13983, Note_on_c, 1, 47, 0
1, 13984, Note_on_c, 1, 50, 72
1, 13999, Note_on_c, 1, 50, 0
1, 14000, Note_on_c, 1, 47, 72
1, 14015, Note_on_c, 1, 47, 0
1, 14016, Note_on_c, 0, 77, 0
1, 14016, Note_on_c, 0, 74, 0
1, 14016, Note_on_c, 0, 76, 78
1, 14016, Note_on_c, 0, 72, 78
1, 14016, Note_on_c, 1, 48, 73
1, 14031, Note_on_c, 1, 48, 0
1, 14032, Note_on_c, 1, 52, 73
1, 14047, Note_on_c, 1, 52, 0
1, 14048, Note_on_c, 1, 55, 73
1, 14061, Note_on_c, 0, 76, 0
1, 14061, Note_on_c, 0, 72, 0
1, 14061, Note_on_c, 0, 67, 0
1, 14063, Note_on_c, 1, 55, 0
1, 14064, Note_on_c, 0, 82, 79
1, 14064, Note_on_c, 0, 79, 79
1, 14064, Note_on_c, 0, 72, 79
1, 14064, Note_on_c, 1, 52, 75
1, 14079, Note_on_c, 1, 52, 0
1, 14080, Note_on_c, 1, 55, 75
1, 14095, Note_on_c, 1, 55, 0
1, 14096, Note_on_c, 1, 60, 75
1, 14111, Note_on_c, 1, 60, 0
1, 14112, Note_on_c, 0, 82, 0
1, 14112, Note_on_c, 0, 79, 0
1, 14112, Note_on_c, 0, 72, 0
1, 14112, Note_on_c, 0, 80, 80
1, 14112, Note_on_c, 0, 77, 80
1, 14112, Note_on_c, 1, 53, 75
1, 14127, Note_on_c, 1, 53, 0
1, 14128, Note_on_c, 1, 56, 74
1, 14143, Note_on_c, 1, 56, 0
1, 14144, Note_on_c, 1, 60, 73
1, 14157, Note_on_c, 0, 80, 0
1, 14157, Note_on_c, 0, 77, 0
1, 14159, Note_on_c, 1, 60, 0
1, 14160, Note_on_c, 0, 80, 76
1, 14160, Note_on_c, 0, 77, 76
1, 14160, Note_on_c, 1, 51, 73
1, 14175, Note_on_c, 1, 51, 0
1, 14176, Note_on_c, 1, 56, 72
1, 14191, Note_on_c, 1, 56, 0
1, 14192, Note_on_c, 1, 60, 72
1, 14205, Note_on_c, 0, 80, 0
1, 14205, Note_on_c, 0, 77, 0
1, 14207, Note_on_c, 1, 60, 0
1, 14208, Note_on_c, 0, 80, 72
1, 14208, Note_on_c, 0, 77, 72
1, 14208, Note_on_c, 1, 49, 71
1, 14223, Note_on_c, 1, 49, 0
1, 14224, Note_on_c, 1, 56, 71
1, 14239, Note_on_c, 1, 56, 0
1, 14240, Note_on_c, 1, 60, 70
1, 14253, Note_on_c, 0, 80, 0
1, 14253, Note_on_c, 0, 77, 0
1, 14255, Note_on_c, 1, 60, 0
1, 14256, Note_on_c, 0, 80, 68
1, 14256, Note_on_c, 0, 77, 68
1, 14256, Note_on_c, 1, 48, 70
1, 14271, Note_on_c, 1, 48, 0
1, 14272, Note_on_c, 1, 56, 69
1, 14287, Note_on_c, 1, 56, 0
1, 14288, Note_on_c, 1, 60, 68
1, 14301, Note_on_c, 0, 80, 0
1, 14301, Note_on_c, 0, 77, 0
1, 14303, Note_on_c, 1, 60, 0
1, 14304, Note_on_c, 0, 79, 80
1, 14304, Note_on_c, 0, 77, 80
1, 14304, Note_on_c, 1, 47, 68
1, 14320, Note_on_c, 0, 79, 0
1, 14320, Note_on_c, 0, 77, 0
1, 14320, Note_on_c, 0, 74, 64
1, 14335, Note_on_c, 0, 74, 0
1, 14336, Note_on_c, 0, 77, 64
1, 14349, Note_on_c, 1, 47, 0
1, 14351, Note_on_c, 0, 77, 0
1, 14352, Note_on_c, 0, 75, 64
1, 14367, Note_on_c, 0, 75, 0
1, 14368, Note_on_c, 0, 74, 64
1, 14383, Note_on_c, 0, 74, 0
1, 14384, Note_on_c, 0, 72, 64
1, 14399, Note_on_c, 0, 72, 0
1, 14400, Note_on_c, 0, 79, 64
1, 14415, Note_on_c, 0, 79, 0
1, 14416, Note_on_c, 0, 62, 70
1, 14416, Note_on_c, 1, 50, 70
1, 14431, Note_on_c, 0, 62, 0
1, 14431, Note_on_c, 1, 50, 0
1, 14432, Note_on_c, 0, 65, 70
1, 14432, Note_on_c, 1, 53, 70
1, 14447, Note_on_c, 0, 65, 0
1, 14447, Note_on_c, 1, 53, 0
1, 14448, Note_on_c, 0, 63, 70
1, 14448, Note_on_c, 1, 51, 70
1, 14463, Note_on_c, 0, 63, 0
1, 14463, Note_on_c, 1, 51, 0
1, 14464, Note_on_c, 0, 62, 70
1, 14464, Note_on_c, 1, 50, 70
1, 14479, Note_on_c, 0, 62, 0
1, 14479, Note_on_c, 1, 50, 0
1, 14480, Note_on_c, 0, 60, 70
1, 14480, Note_on_c, 1, 48, 70
1, 14495, Note_on_c, 0, 60, 0
1, 14495, Note_on_c, 1, 48, 0
1, 14496, Note_on_c, 0, 67, 70
1, 14496, Note_on_c, 1, 55, 70
1, 14541, Note_on_c, 0, 67, 0
1, 14541, Note_on_c, 1, 55, 0
1, 14544, Tempo, 1200000
1, 14592, Tempo, 1090909
1, 14592, Note_on_c, 0, 76, 70
1, 14592, Note_on_c, 1, 60, 64
1, 14593, Note_on_c, 1, 64, 64
1, 14594, Note_on_c, 1, 67, 64
1, 14595, Note_on_c, 1, 72, 64
1, 14607, Note_on_c, 0, 76, 0
1, 14608, Note_on_c, 0, 79, 70
1, 14623, Note_on_c, 0, 79, 0
1, 14624, Note_on_c, 0, 84, 70
1, 14639, Note_on_c, 0, 84, 0
1, 14640, Note_on_c, 0, 76, 70
1, 14655, Note_on_c, 0, 76, 0
1, 14656, Note_on_c, 0, 79, 71
1, 14671, Note_on_c, 0, 79, 0
1, 14672, Note_on_c, 0, 84, 71
1, 14682, Note_on_c, 1, 72, 0
1, 14682, Note_on_c, 1, 67, 0
1, 14682, Note_on_c, 1, 64, 0
1, 14682, Note_on_c, 1, 60, 0
1, 14687, Note_on_c, 0, 84, 0
1, 14688, Note_on_c, 0, 77, 72
1, 14703, Note_on_c, 0, 77, 0
1, 14704, Note_on_c, 0, 81, 72
1, 14719, Note_on_c, 0, 81, 0
1, 14720, Note_on_c, 0, 84, 73
1, 14735, Note_on_c, 0, 84, 0
1, 14736, Note_on_c, 0, 77, 73
1, 14736, Note_on_c, 1, 72, 64
1, 14736, Note_on_c, 1, 69, 64
1, 14751, Note_on_c, 0, 77, 0
1, 14752, Note_on_c, 0, 81, 74
1, 14767, Note_on_c, 0, 81, 0
1, 14768, Note_on_c, 0, 84, 74
1, 14781, Note_on_c, 1, 72, 0
1, 14781, Note_on_c, 1, 69, 0
1, 14783, Note_on_c, 0, 84, 0
1, 14784, Note_on_c, 0, 76, 75
1, 14784, Note_on_c, 1, 72, 62
1, 14784, Note_on_c, 1, 67, 62
1, 14799, Note_on_c, 0, 76, 0
1, 14800, Note_on_c, 0, 79, 74
1, 14815, Note_on_c, 0, 79, 0
1, 14816, Note_on_c, 0, 84, 74
1, 14829, Note_on_c, 1, 72, 0
1, 14829, Note_on_c, 1, 67, 0
1, 14831, Note_on_c, 0, 84, 0
1, 14832, Note_on_c, 0, 74, 73
1, 14832, Note_on_c, 1, 71, 60
1, 14832, Note_on_c, 1, 65, 60
1, 14847, Note_on_c, 0, 74, 0
1, 14848, Note_on_c, 0, 77, 73
1, 14863, Note_on_c, 0, 77, 0
1, 14864, Note_on_c, 0, 86, 72
1, 14877, Note_on_c, 1, 71, 0
1, 14877, Note_on_c, 1, 65, 0
1, 14879, Note_on_c, 0, 86, 0
1, 14880, Note_on_c, 1, 64, 64
1, 14895, Note_on_c, 1, 64, 0
1, 14896, Note_on_c, 0, 83, 70
1, 14896, Note_on_c, 1, 67, 64
1, 14911, Note_on_c, 1, 67, 0
1, 14912, Note_on_c, 0, 83, 0
1, 14912, Note_on_c, 0, 84, 70
1, 14912, Note_on_c, 1, 72, 64
1, 14927, Note_on_c, 0, 84, 0
1, 14927, Note_on_c, 1, 72, 0
1, 14928, Note_on_c, 1, 52, 64
1, 14943, Note_on_c, 1, 52, 0
1, 14944, Note_on_c, 0, 72, 70
1, 14944, Note_on_c, 1, 55, 64
1, 14959, Note_on_c, 1, 55, 0
1, 14960, Note_on_c, 0, 72, 0
1, 14960, Note_on_c, 0, 70, 70
1, 14960, Note_on_c, 1, 60, 64
1, 14975, Note_on_c, 0, 70, 0
1, 14975, Note_on_c, 1, 60, 0
1, 14976, Note_on_c, 0, 69, 70
1, 14976, Note_on_c, 1, 53, 64
1, 14991, Note_on_c, 0, 69, 0
1, 14991, Note_on_c, 1, 53, 0
1, 14992, Note_on_c, 0, 77, 70
1, 14992, Note_on_c, 1, 57, 65
1, 15007, Note_on_c, 1, 57, 0
1, 15008, Note_on_c, 0, 77, 0
1, 15008, Note_on_c, 0, 76, 70
1, 15008, Note_on_c, 1, 60, 65
1, 15023, Note_on_c, 0, 76, 0
1, 15023, Note_on_c, 1, 60, 0
1, 15024, Note_on_c, 1, 54, 65
1, 15039, Note_on_c, 1, 54, 0
1, 15040, Note_on_c, 0, 74, 71
1, 15040, Note_on_c, 1, 57, 66
1, 15055, Note_on_c, 1, 57, 0
1, 15056, Note_on_c, 0, 74, 0
1, 15056, Note_on_c, 0, 72, 71
1, 15056, Note_on_c, 1, 60, 66
1, 15071, Note_on_c, 0, 72, 0
1, 15071, Note_on_c, 1, 60, 0
1, 15072, Note_on_c, 0, 71, 71
1, 15072, Note_on_c, 1, 55, 66
1, 15087, Note_on_c, 0, 71, 0
1, 15087, Note_on_c, 1, 55, 0
1, 15088, Note_on_c, 0, 79, 71
1, 15088, Note_on_c, 1, 59, 67
1, 15103, Note_on_c, 1, 59, 0
1, 15104, Note_on_c, 0, 79, 0
1, 15104, Note_on_c, 0, 77, 71
1, 15104, Note_on_c, 1, 62, 67
1, 15119, Note_on_c, 0, 77, 0
1, 15119, Note_on_c, 1, 62, 0
1, 15120, Note_on_c, 1, 56, 67
1, 15135, Note_on_c, 1, 56, 0
1, 15136, Note_on_c, 0, 76, 72
1, 15136, Note_on_c, 1, 59, 68
1, 15151, Note_on_c, 1, 59, 0
1, 15152, Note_on_c, 0, 76, 0
1, 15152, Note_on_c, 0, 74, 72
1, 15152, Note_on_c, 1, 62, 68
1, 15167, Note_on_c, 0, 74, 0
1, 15167, Note_on_c, 1, 62, 0
1, 15168, Note_on_c, 0, 72, 72
1, 15168, Note_on_c, 1, 57, 68
1, 15183, Note_on_c, 0, 72, 0
1, 15183, Note_on_c, 1, 57, 0
1, 15184, Note_on_c, 0, 81, 72
1, 15184, Note_on_c, 1, 60, 69
1, 15199, Note_on_c, 0, 81, 0
1, 15199, Note_on_c, 1, 60, 0
1, 15200, Note_on_c, 0, 79, 72
1, 15200, Note_on_c, 1, 64, 69
1, 15215, Note_on_c, 0, 79, 0
1, 15215, Note_on_c, 1, 64, 0
1, 15216, Note_on_c, 1, 57, 70
1, 15231, Note_on_c, 1, 57, 0
1, 15232, Note_on_c, 0, 77, 73
1, 15232, Note_on_c, 1, 60, 70
1, 15247, Note_on_c, 1, 60, 0
1, 15248, Note_on_c, 0, 77, 0
1, 15248, Note_on_c, 0, 76, 73
1, 15248, Note_on_c, 1, 64, 70
1, 15263, Note_on_c, 0, 76, 0
1, 15263, Note_on_c, 1, 64, 0
1, 15264, Note_on_c, 0, 74, 73
1, 15264, Note_on_c, 1, 59, 71
1, 15276, Note_on_c, 0, 74, 0
1, 15276, Note_on_c, 0, 84, 75
1, 15288, Note_on_c, 0, 84, 0
1, 15288, Note_on_c, 0, 83, 75
1, 15300, Note_on_c, 0, 83, 0
1, 15300, Note_on_c, 0, 81, 75
1, 15309, Note_on_c, 1, 59, 0
1, 15312, Note_on_c, 0, 81, 0
1, 15312, Note_on_c, 0, 79, 75
1, 15324, Note_on_c, 0, 79, 0
1, 15324, Note_on_c, 0, 77, 75
1, 15336, Note_on_c, 0, 77, 0
1, 15336, Note_on_c, 0, 76, 75
1, 15348, Note_on_c, 0, 76, 0
1, 15348, Note_on_c, 0, 74, 75
1, 15360, Note_on_c, 0, 74, 0
1, 15360, Note_on_c, 0, 72, 75
1, 15372, Note_on_c, 0, 72, 0
1, 15372, Note_on_c, 0, 71, 75
1, 15384, Note_on_c, 0, 71, 0
1, 15384, Note_on_c, 0, 69, 75
1, 15396, Note_on_c, 0, 69, 0
1, 15396, Note_on_c, 0, 67, 75
1, 15408, Note_on_c, 0, 67, 0
1, 15408, Note_on_c, 0, 65, 75
1, 15420, Note_on_c, 0, 65, 0
1, 15420, Note_on_c, 0, 64, 75
1, 15432, Note_on_c, 0, 64, 0
1, 15432, Note_on_c, 0, 62, 75
1, 15444, Note_on_c, 0, 62, 0
1, 15444, Note_on_c, 0, 60, 75
1, 15456, Note_on_c, 0, 60, 0
1, 15456, Note_on_c, 0, 59, 91
1, 15456, Note_on_c, 1, 43, 75
1, 15471, Note_on_c, 1, 43, 0
1, 15472, Note_on_c, 1, 50, 75
1, 15487, Note_on_c, 1, 50, 0
1, 15488, Note_on_c, 1, 55, 75
1, 15503, Note_on_c, 1, 55, 0
1, 15504, Note_on_c, 0, 59, 0
1, 15504, Note_on_c, 0, 74, 75
1, 15504, Note_on_c, 0, 71, 75
1, 15504, Note_on_c, 1, 43, 75
1, 15519, Note_on_c, 1, 43, 0
1, 15520, Note_on_c, 1, 50, 76
1, 15524, Note_on_c, 0, 74, 0
1, 15524, Note_on_c, 0, 71, 0
1, 15535, Note_on_c, 1, 50, 0
1, 15536, Note_on_c, 1, 55, 76
1, 15551, Note_on_c, 1, 55, 0
1, 15552, Note_on_c, 0, 60, 76
1, 15552, Note_on_c, 1, 43, 76
1, 15558, Note_on_c, 0, 60, 0
1, 15558, Note_on_c, 0, 62, 76
1, 15564, Note_on_c, 0, 62, 0
1, 15564, Note_on_c, 0, 60, 92
1, 15567, Note_on_c, 1, 43, 0
1, 15568, Note_on_c, 1, 52, 76
1, 15583, Note_on_c, 1, 52, 0
1, 15584, Note_on_c, 1, 55, 77
1, 15599, Note_on_c, 1, 55, 0
1, 15600, Note_on_c, 0, 60, 0
1, 15600, Note_on_c, 0, 76, 77
1, 15600, Note_on_c, 0, 72, 77
1, 15600, Note_on_c, 1, 43, 77
1, 15615, Note_on_c, 1, 43, 0
1, 15616, Note_on_c, 1, 52, 77
1, 15620, Note_on_c, 0, 76, 0
1, 15620, Note_on_c, 0, 72, 0
1, 15631, Note_on_c, 1, 52, 0
1, 15632, Note_on_c, 1, 55, 77
1, 15647, Note_on_c, 1, 55, 0
1, 15648, Note_on_c, 0, 62, 78
1, 15648, Note_on_c, 1, 43, 78
1, 15654, Note_on_c, 0, 62, 0
1, 15654, Note_on_c, 0, 64, 78
1, 15660, Note_on_c, 0, 64, 0
1, 15660, Note_on_c, 0, 62, 94
1, 15663, Note_on_c, 1, 43, 0
1, 15664, Note_on_c, 1, 53, 78
1, 15679, Note_on_c, 1, 53, 0
1, 15680, Note_on_c, 1, 55, 78
1, 15695, Note_on_c, 1, 55, 0
1, 15696, Note_on_c, 0, 62, 0
1, 15696, Note_on_c, 0, 77, 79
1, 15696, Note_on_c, 0, 74, 79
1, 15696, Note_on_c, 1, 43, 80
1, 15711, Note_on_c, 1, 43, 0
1, 15712, Note_on_c, 1, 53, 80
1, 15716, Note_on_c, 0, 77, 0
1, 15716, Note_on_c, 0, 74, 0
1, 15727, Note_on_c, 1, 53, 0
1, 15728, Note_on_c, 1, 55, 80
1, 15743, Note_on_c, 1, 55, 0
1, 15744, Note_on_c, 0, 78, 96
1, 15744, Note_on_c, 0, 74, 58
1, 15744, Note_on_c, 1, 43, 80
1, 15768, Note_on_c, 0, 78, 0
1, 15768, Note_on_c, 0, 79, 79
1, 15791, Note_on_c, 0, 79, 0
1, 15792, Note_on_c, 0, 81, 78
1, 15815, Note_on_c, 0, 81, 0
1, 15816, Note_on_c, 0, 79, 78
1, 15833, Note_on_c, 1, 43, 0
1, 15839, Note_on_c, 0, 79, 0
1, 15840, Note_on_c, 0, 77, 77
1, 15885, Note_on_c, 0, 74, 0
1, 15929, Note_on_c, 0, 77, 0
1, 15984, Tempo, 428571
1, 16080, Tempo, 1090909
1, 16080, Note_on_c, 0, 72, 91
1, 16112, Note_on_c, 0, 72, 0
1, 16112, Note_on_c, 0, 64, 75
1, 16127, Note_on_c, 0, 64, 0
1, 16128, Note_on_c, 0, 65, 75
1, 16143, Note_on_c, 0, 65, 0
1, 16144, Note_on_c, 0, 69, 75
1, 16159, Note_on_c, 0, 69, 0
1, 16160, Note_on_c, 0, 64, 75
1, 16175, Note_on_c, 0, 64, 0
1, 16176, Note_on_c, 0, 65, 75
1, 16191, Note_on_c, 0, 65, 0
1, 16192, Note_on_c, 0, 69, 75
1, 16207, Note_on_c, 0, 69, 0
1, 16208, Note_on_c, 0, 61, 75
1, 16223, Note_on_c, 0, 61, 0
1, 16224, Note_on_c, 0, 62, 75
1, 16239, Note_on_c, 0, 62, 0
1, 16240, Note_on_c, 0, 64, 75
1, 16255, Note_on_c, 0, 64, 0
1, 16256, Note_on_c, 0, 65, 75
1, 16271, Note_on_c, 0, 65, 0
1, 16272, Note_on_c, 0, 67, 75
1, 16287, Note_on_c, 0, 67, 0
1, 16288, Note_on_c, 0, 65, 75
1, 16303, Note_on_c, 0, 65, 0
1, 16304, Note_on_c, 0, 64, 75
1, 16319, Note_on_c, 0, 64, 0
1, 16320, Note_on_c, 0, 62, 75
1, 16320, Note_on_c, 0, 60, 75
1, 16320, Note_on_c, 1, 54, 70
1, 16330, Note_on_c, 0, 62, 0
1, 16330, Note_on_c, 0, 60, 0
1, 16344, Note_on_c, 0, 62, 86
1, 16344, Note_on_c, 0, 60, 86
1, 16368, Note_on_c, 1, 54, 0
1, 16368, Note_on_c, 1, 57, 70
1, 16392, Note_on_c, 0, 62, 0
1, 16392, Note_on_c, 0, 60, 0
1, 16392, Note_on_c, 0, 62, 70
1, 16392, Note_on_c, 0, 60, 70
1, 16413, Note_on_c, 1, 57, 0
1, 16415, Note_on_c, 0, 62, 0
1, 16415, Note_on_c, 0, 60, 0
1, 16416, Note_on_c, 0, 63, 70
1, 16416, Note_on_c, 0, 60, 70
1, 16416, Note_on_c, 1, 54, 70
1, 16426, Note_on_c, 0, 63, 0
1, 16426, Note_on_c, 0, 60, 0
1, 16440, Note_on_c, 0, 63, 86
1, 16440, Note_on_c, 0, 60, 86
1, 16464, Note_on_c, 1, 54, 0
1, 16464, Note_on_c, 1, 57, 70
1, 16488, Note_on_c, 0, 63, 0
1, 16488, Note_on_c, 0, 60, 0
1, 16488, Note_on_c, 0, 63, 70
1, 16488, Note_on_c, 0, 60, 70
1, 16509, Note_on_c, 1, 57, 0
1, 16511, Note_on_c, 0, 63, 0
1, 16511, Note_on_c, 0, 60, 0
1, 16512, Note_on_c, 0, 69, 70
1, 16512, Note_on_c, 0, 63, 70
1, 16512, Note_on_c, 0, 60, 70
1, 16512, Note_on_c, 1, 54, 70
1, 16522, Note_on_c, 0, 69, 0
1, 16522, Note_on_c, 0, 63, 0
1, 16522, Note_on_c, 0, 60, 0
1, 16536, Note_on_c, 0, 69, 86
1, 16536, Note_on_c, 0, 63, 86
1, 16536, Note_on_c, 0, 60, 86
1, 16560, Note_on_c, 1, 54, 0
1, 16560, Note_on_c, 1, 57, 70
1, 16584, Note_on_c, 0, 69, 0
1, 16584, Note_on_c, 0, 63, 0
1, 16584, Note_on_c, 0, 60, 0
1, 16584, Note_on_c, 0, 69, 70
1, 16584, Note_on_c, 0, 63, 70
1, 16584, Note_on_c, 0, 60, 70
1, 16605, Note_on_c, 1, 57, 0
1, 16607, Note_on_c, 0, 69, 0
1, 16607, Note_on_c, 0, 63, 0
1, 16607, Note_on_c, 0, 60, 0
1, 16608, Tempo, 1200000
1, 16608, Note_on_c, 0, 84, 70
1, 16620, Note_on_c, 0, 84, 0
1, 16620, Note_on_c, 0, 86, 70
1, 16632, Note_on_c, 0, 86, 0
1, 16632, Note_on_c, 0, 87, 86
1, 16704, Tempo, 1090909
1, 16704, Note_on_c, 0, 87, 0
1, 16704, Note_on_c, 1, 43, 64
1, 16719, Note_on_c, 1, 43, 0
1, 16720, Note_on_c, 1, 48, 64
1, 16735, Note_on_c, 1, 48, 0
1, 16736, Note_on_c, 1, 52, 64
1, 16751, Note_on_c, 1, 52, 0
1, 16752, Note_on_c, 0, 72, 64
1, 16752, Note_on_c, 0, 67, 64
1, 16752, Note_on_c, 0, 64, 64
1, 16752, Note_on_c, 1, 55, 64
1, 16767, Note_on_c, 1, 55, 0
1, 16768, Note_on_c, 1, 52, 64
1, 16772, Note_on_c, 0, 72, 0
1, 16772, Note_on_c, 0, 67, 0
1, 16772, Note_on_c, 0, 64, 0
1, 16783, Note_on_c, 1, 52, 0
1, 16784, Note_on_c, 1, 48, 64
1, 16799, Note_on_c, 1, 48, 0
1, 16800, Note_on_c, 1, 43, 64
1, 16815, Note_on_c, 1, 43, 0
1, 16816, Note_on_c, 1, 47, 64
1, 16831, Note_on_c, 1, 47, 0
1, 16832, Note_on_c, 1, 50, 64
1, 16847, Note_on_c, 1, 50, 0
1, 16848, Note_on_c, 0, 74, 64
1, 16848, Note_on_c, 0, 71, 64
1, 16848, Note_on_c, 0, 65, 64
1, 16848, Note_on_c, 1, 53, 64
1, 16863, Note_on_c, 1, 53, 0
1, 16864, Note_on_c, 1, 50, 64
1, 16879, Note_on_c, 1, 50, 0
1, 16880, Note_on_c, 1, 47, 64
1, 16893, Note_on_c, 0, 74, 0
1, 16893, Note_on_c, 0, 71, 0
1, 16893, Note_on_c, 0, 65, 0
1, 16895, Note_on_c, 1, 47, 0
1, 16896, Note_on_c, 0, 72, 64
1, 16896, Note_on_c, 0, 67, 64
1, 16896, Note_on_c, 0, 64, 64
1, 16896, Note_on_c, 1, 48, 64
1, 16911, Note_on_c, 1, 48, 0
1, 16912, Note_on_c, 1, 52, 64
1, 16927, Note_on_c, 1, 52, 0
1, 16928, Note_on_c, 1, 55, 64
1, 16941, Note_on_c, 0, 72, 0
1, 16941, Note_on_c, 0, 67, 0
1, 16941, Note_on_c, 0, 64, 0
1, 16943, Note_on_c, 1, 55, 0
1, 16944, Note_on_c, 0, 40, 58
1, 16944, Note_on_c, 0, 36, 58
1, 16944, Note_on_c, 1, 60, 64
1, 16959, Note_on_c, 1, 60, 0
1, 16960, Note_on_c, 1, 55, 64
1, 16975, Note_on_c, 1, 55, 0
1, 16976, Note_on_c, 1, 52, 64
1, 16989, Note_on_c, 0, 40, 0
1, 16989, Note_on_c, 0, 36, 0
1, 16991, Note_on_c, 1, 52, 0
1, 16992, Note_on_c, 0, 40, 58
1, 16992, Note_on_c, 0, 36, 58
1, 16992, Note_on_c, 1, 48, 64
1, 17081, Note_on_c, 0, 40, 0
1, 17081, Note_on_c, 0, 36, 0
1, 17081, Note_on_c, 1, 48, 0
1, 17136, Note_on_c, 0, 53, 75
1, 17136, Note_on_c, 1, 41, 75
1, 17151, Note_on_c, 0, 53, 0
1, 17151, Note_on_c, 1, 41, 0
1, 17152, Note_on_c, 0, 59, 76
1, 17152, Note_on_c, 1, 47, 77
1, 17167, Note_on_c, 0, 59, 0
1, 17167, Note_on_c, 1, 47, 0
1, 17168, Note_on_c, 0, 62, 77
1, 17168, Note_on_c, 1, 50, 79
1, 17183, Note_on_c, 0, 62, 0
1, 17183, Note_on_c, 1, 50, 0
1, 17184, Note_on_c, 0, 65, 78
1, 17184, Note_on_c, 1, 53, 79
1, 17199, Note_on_c, 0, 65, 0
1, 17199, Note_on_c, 1, 53, 0
1, 17200, Note_on_c, 0, 62, 80
1, 17200, Note_on_c, 1, 50, 78
1, 17215, Note_on_c, 0, 62, 0
1, 17215, Note_on_c, 1, 50, 0
1, 17216, Note_on_c, 0, 59, 78
1, 17216, Note_on_c, 1, 47, 77
1, 17231, Note_on_c, 0, 59, 0
1, 17231, Note_on_c, 1, 47, 0
1, 17232, Tempo, 1200000
1, 17232, Note_on_c, 0, 53, 75
1, 17232, Note_on_c, 1, 41, 75
1, 17277, Note_on_c, 0, 53, 0
1, 17277, Note_on_c, 1, 41, 0
1, 17280, Tempo, 1333333
1, 17280, Note_on_c, 0, 52, 75
1, 17280, Note_on_c, 1, 40, 75
1, 17303, Note_on_c, 0, 52, 0
1, 17303, Note_on_c, 1, 40, 0
1, 17304, Note_on_c, 0, 51, 75
1, 17304, Note_on_c, 1, 39, 75
1, 17327, Note_on_c, 0, 51, 0
1, 17327, Note_on_c, 1, 39, 0
1, 17328, Tempo, 2000000
1, 17328, Note_on_c, 0, 52, 75
1, 17328, Note_on_c, 1, 40, 75
1, 17334, Note_on_c, 0, 52, 0
1, 17334, Note_on_c, 0, 60, 91
1, 17334, Note_on_c, 1, 40, 0
1, 17334, Note_on_c, 1, 54, 75
1, 17334, Note_on_c, 1, 51, 75
1, 17334, Note_on_c, 1, 48, 75
1, 17395, Note_on_c, 1, 54, 0
1, 17395, Note_on_c, 1, 51, 0
1, 17395, Note_on_c, 1, 48, 0
1, 17400, Tempo, 3000000
1, 17400, Note_on_c, 0, 60, 0
1, 17424, Tempo, 1090909
1, 17424, Note_on_c, 1, 52, 70
1, 17439, Note_on_c, 1, 52, 0
1, 17440, Note_on_c, 1, 55, 70
1, 17455, Note_on_c, 1, 55, 0
1, 17456, Note_on_c, 1, 52, 70
1, 17471, Note_on_c, 1, 52, 0
1, 17472, Note_on_c, 0, 88, 91
1, 17472, Note_on_c, 1, 54, 71
1, 17487, Note_on_c, 1, 54, 0
1, 17488, Note_on_c, 1, 57, 71
1, 17503, Note_on_c, 1, 57, 0
1, 17504, Note_on_c, 1, 54, 72
1, 17519, Note_on_c, 1, 54, 0
1, 17520, Note_on_c, 0, 88, 0
1, 17520, Note_on_c, 0, 76, 75
1, 17520, Note_on_c, 1, 55, 72
1, 17535, Note_on_c, 1, 55, 0
1, 17536, Note_on_c, 1, 59, 72
1, 17551, Note_on_c, 1, 59, 0
1, 17552, Note_on_c, 1, 55, 73
1, 17567, Note_on_c, 1, 55, 0
1, 17568, Note_on_c, 1, 57, 73
1, 17583, Note_on_c, 1, 57, 0
1, 17584, Note_on_c, 1, 60, 74
1, 17599, Note_on_c, 1, 60, 0
1, 17600, Note_on_c, 1, 57, 74
1, 17615, Note_on_c, 1, 57, 0
1, 17616, Note_on_c, 1, 55, 75
1, 17631, Note_on_c, 1, 55, 0
1, 17632, Note_on_c, 1, 59, 74
1, 17639, Note_on_c, 0, 76, 0
1, 17640, Note_on_c, 0, 78, 75
1, 17647, Note_on_c, 1, 59, 0
1, 17648, Note_on_c, 1, 55, 74
1, 17652, Note_on_c, 0, 78, 0
1, 17652, Note_on_c, 0, 79, 76
1, 17663, Note_on_c, 1, 55, 0
1, 17664, Note_on_c, 0, 79, 0
1, 17664, Note_on_c, 0, 81, 76
1, 17664, Note_on_c, 1, 54, 73
1, 17676, Note_on_c, 0, 81, 0
1, 17676, Note_on_c, 0, 83, 77
1, 17679, Note_on_c, 1, 54, 0
1, 17680, Note_on_c, 1, 57, 73
1, 17688, Note_on_c, 0, 83, 0
1, 17688, Note_on_c, 0, 85, 77
1, 17695, Note_on_c, 1, 57, 0
1, 17696, Note_on_c, 1, 54, 72
1, 17700, Note_on_c, 0, 85, 0
1, 17700, Note_on_c, 0, 87, 77
1, 17711, Note_on_c, 1, 54, 0
1, 17712, Note_on_c, 0, 87, 0
1, 17712, Note_on_c, 0, 88, 94
1, 17712, Note_on_c, 1, 52, 70
1, 17727, Note_on_c, 1, 52, 0
1, 17728, Note_on_c, 1, 55, 70
1, 17743, Note_on_c, 1, 55, 0
1, 17744, Note_on_c, 1, 52, 70
1, 17759, Note_on_c, 1, 52, 0
1, 17760, Note_on_c, 0, 88, 0
1, 17760, Note_on_c, 0, 40, 80
1, 17760, Note_on_c, 1, 54, 71
1, 17775, Note_on_c, 1, 54, 0
1, 17776, Note_on_c, 1, 57, 71
1, 17791, Note_on_c, 1, 57, 0
1, 17792, Note_on_c, 1, 54, 71
1, 17807, Note_on_c, 1, 54, 0
1, 17808, Note_on_c, 1, 55, 72
1, 17823, Note_on_c, 1, 55, 0
1, 17824, Note_on_c, 1, 59, 72
1, 17839, Note_on_c, 1, 59, 0
1, 17840, Note_on_c, 1, 55, 73
1, 17849, Note_on_c, 0, 40, 0
1, 17855, Note_on_c, 1, 55, 0
1, 17856, Note_on_c, 0, 89, 80
1, 17856, Note_on_c, 1, 57, 73
1, 17862, Note_on_c, 0, 89, 0
1, 17862, Note_on_c, 0, 88, 80
1, 17868, Note_on_c, 0, 88, 0
1, 17868, Note_on_c, 0, 87, 80
1, 17871, Note_on_c, 1, 57, 0
1, 17872, Note_on_c, 1, 60, 73
1, 17874, Note_on_c, 0, 87, 0
1, 17874, Note_on_c, 0, 88, 96
1, 17887, Note_on_c, 1, 60, 0
1, 17888, Note_on_c, 1, 57, 74
1, 17903, Note_on_c, 1, 57, 0
1, 17904, Note_on_c, 0, 88, 0
1, 17904, Note_on_c, 0, 76, 80
1, 17904, Note_on_c, 1, 55, 74
1, 17919, Note_on_c, 1, 55, 0
1, 17920, Note_on_c, 1, 59, 75
1, 17927, Note_on_c, 0, 76, 0
1, 17928, Note_on_c, 0, 78, 80
1, 17935, Note_on_c, 1, 59, 0
1, 17936, Note_on_c, 1, 55, 74
1, 17940, Note_on_c, 0, 78, 0
1, 17940, Note_on_c, 0, 79, 80
1, 17951, Note_on_c, 1, 55, 0
1, 17952, Note_on_c, 0, 79, 0
1, 17952, Note_on_c, 0, 81, 80
1, 17952, Note_on_c, 1, 54, 74
1, 17964, Note_on_c, 0, 81, 0
1, 17964, Note_on_c, 0, 83, 80
1, 17967, Note_on_c, 1, 54, 0
1, 17968, Note_on_c, 1, 57, 73
1, 17976, Note_on_c, 0, 83, 0
1, 17976, Note_on_c, 0, 85, 80
1, 17983, Note_on_c, 1, 57, 0
1, 17984, Note_on_c, 1, 54, 73
1, 17988, Note_on_c, 0, 85, 0
1, 17988, Note_on_c, 0, 87, 80
1, 17999, Note_on_c, 1, 54, 0
1, 18000, Note_on_c, 0, 87, 0
1, 18000, Note_on_c, 0, 88, 96
1, 18000, Note_on_c, 1, 52, 70
1, 18000, Note_on_c, 1, 52, 64
1, 18015, Note_on_c, 1, 52, 0
1, 18016, Note_on_c, 1, 55, 70
1, 18031, Note_on_c, 1, 55, 0
1, 18032, Note_on_c, 1, 52, 70
1, 18045, Note_on_c, 1, 52, 0
1, 18047, Note_on_c, 1, 52, 0
1, 18048, Note_on_c, 0, 88, 0
1, 18048, Note_on_c, 0, 88, 80
1, 18048, Note_on_c, 0, 76, 80
1, 18048, Note_on_c, 1, 50, 70
1, 18048, Note_on_c, 1, 50, 64
1, 18063, Note_on_c, 1, 50, 0
1, 18064, Note_on_c, 1, 54, 70
1, 18079, Note_on_c, 1, 54, 0
1, 18080, Note_on_c, 1, 50, 70
1, 18093, Note_on_c, 1, 50, 0
1, 18095, Note_on_c, 1, 50, 0
1, 18096, Note_on_c, 1, 48, 70
1, 18096, Note_on_c, 1, 48, 64
1, 18111, Note_on_c, 1, 48, 0
1, 18112, Note_on_c, 1, 52, 70
1, 18127, Note_on_c, 1, 52, 0
1, 18128, Note_on_c, 1, 48, 70
1, 18137, Note_on_c, 0, 88, 0
1, 18137, Note_on_c, 0, 76, 0
1, 18141, Note_on_c, 1, 48, 0
1, 18143, Note_on_c, 1, 48, 0
1, 18144, Note_on_c, 0, 88, 84
1, 18144, Note_on_c, 0, 76, 84
1, 18144, Note_on_c, 1, 47, 70
1, 18144, Note_on_c, 1, 47, 64
1, 18159, Note_on_c, 1, 47, 0
1, 18160, Note_on_c, 1, 50, 70
1, 18175, Note_on_c, 1, 50, 0
1, 18176, Note_on_c, 1, 47, 70
1, 18189, Note_on_c, 0, 88, 0
1, 18189, Note_on_c, 0, 76, 0
1, 18189, Note_on_c, 1, 47, 0
1, 18191, Note_on_c, 1, 47, 0
1, 18192, Note_on_c, 0, 89, 86
1, 18192, Note_on_c, 0, 84, 58
1, 18192, Note_on_c, 1, 45, 75
1, 18215, Note_on_c, 0, 89, 0
1, 18216, Note_on_c, 0, 88, 85
1, 18239, Note_on_c, 0, 88, 0
1, 18240, Note_on_c, 0, 87, 84
1, 18263, Note_on_c, 0, 87, 0
1, 18264, Note_on_c, 0, 88, 83
1, 18281, Note_on_c, 1, 45, 0
1, 18287, Note_on_c, 0, 88, 0
1, 18288, Note_on_c, 0, 87, 82
1, 18288, Note_on_c, 0, 84, 0
1, 18288, Note_on_c, 0, 83, 58
1, 18288, Note_on_c, 1, 47, 71
1, 18311, Note_on_c, 1, 47, 0
1, 18312, Note_on_c, 1, 59, 70
1, 18333, Note_on_c, 0, 87, 0
1, 18333, Note_on_c, 0, 83, 0
1, 18335, Note_on_c, 1, 59, 0
1, 18336, Note_on_c, 1, 47, 70
1, 18359, Note_on_c, 1, 47, 0
1, 18360, Note_on_c, 1, 47, 70
1, 18383, Note_on_c, 1, 47, 0
1, 18384, Note_on_c, 1, 47, 70
1, 18407, Note_on_c, 1, 47, 0
1, 18408, Note_on_c, 1, 59, 70
1, 18431, Note_on_c, 1, 59, 0
1, 18432, Note_on_c, 1, 47, 70
1, 18455, Note_on_c, 1, 47, 0
1, 18456, Note_on_c, 1, 47, 70
1, 18479, Note_on_c, 1, 47, 0
1, 18480, Note_on_c, 0, 72, 70
1, 18480, Note_on_c, 0, 67, 70
1, 18480, Note_on_c, 0, 64, 70
1, 18480, Note_on_c, 1, 47, 70
1, 18503, Note_on_c, 1, 47, 0
1, 18504, Note_on_c, 1, 59, 70
1, 18527, Note_on_c, 1, 59, 0
1, 18528, Note_on_c, 1, 47, 70
1, 18551, Note_on_c, 1, 47, 0
1, 18552, Note_on_c, 1, 47, 70
1, 18569, Note_on_c, 0, 72, 0
1, 18569, Note_on_c, 0, 67, 0
1, 18569, Note_on_c, 0, 64, 0
1, 18575, Note_on_c, 1, 47, 0
1, 18576, Note_on_c, 1, 47, 70
1, 18599, Note_on_c, 1, 47, 0
1, 18600, Note_on_c, 1, 59, 70
1, 18623, Note_on_c, 1, 59, 0
1, 18624, Note_on_c, 1, 47, 70
1, 18647, Note_on_c, 1, 47, 0
1, 18648, Note_on_c, 1, 47, 70
1, 18660, Note_on_c, 0, 75, 70
1, 18671, Note_on_c, 1, 47, 0
1, 18672, Note_on_c, 0, 75, 0
1, 18672, Note_on_c, 0, 76, 86
1, 18672, Note_on_c, 0, 71, 86
1, 18672, Note_on_c, 0, 67, 86
1, 18672, Note_on_c, 1, 47, 70
1, 18695, Note_on_c, 1, 47, 0
1, 18696, Note_on_c, 1, 59, 70
1, 18719, Note_on_c, 1, 59, 0
1, 18720, Note_on_c, 1, 47, 70
1, 18743, Note_on_c, 1, 47, 0
1, 18744, Note_on_c, 0, 76, 0
1, 18744, Note_on_c, 0, 71, 0
1, 18744, Note_on_c, 0, 67, 0
1, 18744, Note_on_c, 1, 47, 71
1, 18756, Note_on_c, 0, 76, 71
1, 18767, Note_on_c, 1, 47, 0
1, 18768, Note_on_c, 0, 76, 0
1, 18768, Note_on_c, 0, 78, 87
1, 18768, Note_on_c, 0, 72, 87
1, 18768, Note_on_c, 0, 69, 87
1, 18768, Note_on_c, 1, 47, 71
1, 18791, Note_on_c, 1, 47, 0
1, 18792, Note_on_c, 1, 59, 72
1, 18815, Note_on_c, 1, 59, 0
1, 18816, Note_on_c, 1, 47, 72
1, 18839, Note_on_c, 1, 47, 0
1, 18840, Note_on_c, 0, 78, 0
1, 18840, Note_on_c, 0, 72, 0
1, 18840, Note_on_c, 0, 69, 0
1, 18840, Note_on_c, 1, 47, 72
1, 18852, Note_on_c, 0, 78, 73
1, 18863, Note_on_c, 1, 47, 0
1, 18864, Note_on_c, 0, 78, 0
1, 18864, Note_on_c, 0, 79, 89
1, 18864, Note_on_c, 0, 76, 89
1, 18864, Note_on_c, 0, 71, 89
1, 18864, Note_on_c, 1, 47, 73
1, 18887, Note_on_c, 1, 47, 0
1, 18888, Note_on_c, 1, 59, 73
1, 18911, Note_on_c, 1, 59, 0
1, 18912, Note_on_c, 1, 47, 74
1, 18935, Note_on_c, 1, 47, 0
1, 18936, Note_on_c, 0, 79, 0
1, 18936, Note_on_c, 0, 76, 0
1, 18936, Note_on_c, 0, 71, 0
1, 18936, Note_on_c, 1, 47, 74
1, 18948, Note_on_c, 0, 79, 75
1, 18959, Note_on_c, 1, 47, 0
1, 18960, Note_on_c, 0, 79, 0
1, 18960, Note_on_c, 0, 77, 91
1, 18960, Note_on_c, 0, 72, 91
1, 18960, Note_on_c, 0, 69, 91
1, 18960, Note_on_c, 1, 45, 75
1, 18983, Note_on_c, 1, 45, 0
1, 18984, Note_on_c, 1, 57, 75
1, 19007, Note_on_c, 1, 57, 0
1, 19008, Note_on_c, 1, 45, 75
1, 19031, Note_on_c, 1, 45, 0
1, 19032, Note_on_c, 0, 77, 0
1, 19032, Note_on_c, 0, 72, 0
1, 19032, Note_on_c, 0, 69, 0
1, 19032, Note_on_c, 1, 45, 75
1, 19044, Note_on_c, 0, 77, 75
1, 19055, Note_on_c, 1, 45, 0
1, 19056, Note_on_c, 0, 77, 0
1, 19056, Note_on_c, 0, 75, 91
1, 19056, Note_on_c, 0, 71, 91
1, 19056, Note_on_c, 0, 69, 91
1, 19056, Note_on_c, 1, 45, 75
1, 19079, Note_on_c, 1, 45, 0
1, 19080, Note_on_c, 1, 57, 75
1, 19103, Note_on_c, 1, 57, 0
1, 19104, Note_on_c, 1, 45, 75
1, 19127, Note_on_c, 1, 45, 0
1, 19128, Note_on_c, 0, 75, 0
1, 19128, Note_on_c, 0, 71, 0
1, 19128, Note_on_c, 0, 69, 0
1, 19128, Note_on_c, 1, 45, 75
1, 19140, Note_on_c, 0, 75, 75
1, 19151, Note_on_c, 1, 45, 0
1, 19152, Note_on_c, 0, 75, 0
1, 19152, Note_on_c, 0, 76, 91
1, 19152, Note_on_c, 0, 71, 91
1, 19152, Note_on_c, 0, 67, 91
1, 19152, Note_on_c, 1, 43, 75
1, 19175, Note_on_c, 1, 43, 0
1, 19176, Note_on_c, 1, 55, 75
1, 19199, Note_on_c, 1, 55, 0
1, 19200, Note_on_c, 1, 43, 75
1, 19223, Note_on_c, 1, 43, 0
1, 19224, Note_on_c, 0, 76, 0
1, 19224, Note_on_c, 0, 71, 0
1, 19224, Note_on_c, 0, 67, 0
1, 19224, Note_on_c, 1, 43, 75
1, 19236, Note_on_c, 0, 76, 75
1, 19247, Note_on_c, 1, 43, 0
1, 19248, Note_on_c, 0, 76, 0
1, 19248, Note_on_c, 0, 75, 91
1, 19248, Note_on_c, 0, 70, 91
1, 19248, Note_on_c, 0, 67, 91
1, 19248, Note_on_c, 1, 43, 75
1, 19271, Note_on_c, 1, 43, 0
1, 19272, Note_on_c, 1, 55, 75
1, 19295, Note_on_c, 1, 55, 0
1, 19296, Note_on_c, 1, 43, 75
1, 19319, Note_on_c, 1, 43, 0
1, 19320, Note_on_c, 0, 75, 0
1, 19320, Note_on_c, 0, 70, 0
1, 19320, Note_on_c, 0, 67, 0
1, 19320, Note_on_c, 1, 43, 75
1, 19332, Note_on_c, 0, 75, 75
1, 19343, Note_on_c, 1, 43, 0
1, 19344, Note_on_c, 0, 75, 0
1, 19344, Note_on_c, 0, 75, 91
1, 19344, Note_on_c, 0, 68, 91
1, 19344, Note_on_c, 0, 65, 91
1, 19344, Note_on_c, 1, 41, 75
1, 19367, Note_on_c, 1, 41, 0
1, 19368, Note_on_c, 0, 75, 0
1, 19368, Note_on_c, 0, 74, 74
1, 19368, Note_on_c, 1, 53, 74
1, 19391, Note_on_c, 1, 53, 0
1, 19392, Note_on_c, 1, 41, 74
1, 19402, Note_on_c, 0, 74, 0
1, 19402, Note_on_c, 0, 68, 0
1, 19402, Note_on_c, 0, 65, 0
1, 19415, Note_on_c, 1, 41, 0
1, 19416, Note_on_c, 1, 41, 73
1, 19428, Note_on_c, 0, 74, 73
1, 19439, Note_on_c, 1, 41, 0
1, 19440, Note_on_c, 0, 74, 0
1, 19440, Note_on_c, 0, 74, 73
1, 19440, Note_on_c, 0, 70, 73
1, 19440, Note_on_c, 0, 67, 73
1, 19440, Note_on_c, 1, 39, 73
1, 19463, Note_on_c, 1, 39, 0
1, 19464, Note_on_c, 0, 74, 0
1, 19464, Note_on_c, 0, 73, 72
1, 19464, Note_on_c, 1, 51, 72
1, 19487, Note_on_c, 1, 51, 0
1, 19488, Note_on_c, 1, 39, 72
1, 19498, Note_on_c, 0, 73, 0
1, 19498, Note_on_c, 0, 70, 0
1, 19498, Note_on_c, 0, 67, 0
1, 19511, Note_on_c, 1, 39, 0
1, 19512, Note_on_c, 1, 39, 71
1, 19524, Note_on_c, 0, 73, 71
1, 19535, Note_on_c, 1, 39, 0
1, 19536, Note_on_c, 0, 73, 0
1, 19536, Note_on_c, 0, 74, 87
1, 19536, Note_on_c, 0, 69, 87
1, 19536, Note_on_c, 0, 66, 87
1, 19536, Note_on_c, 1, 38, 71
1, 19559, Note_on_c, 1, 38, 0
1, 19560, Note_on_c, 1, 50, 70
1, 19583, Note_on_c, 1, 50, 0
1, 19584, Note_on_c, 1, 38, 70
1, 19607, Note_on_c, 1, 38, 0
1, 19608, Note_on_c, 0, 74, 0
1, 19608, Note_on_c, 0, 69, 0
1, 19608, Note_on_c, 0, 66, 0
1, 19608, Note_on_c, 1, 38, 69
1, 19620, Note_on_c, 0, 69, 69
1, 19631, Note_on_c, 1, 38, 0
1, 19632, Note_on_c, 0, 69, 0
1, 19632, Note_on_c, 0, 70, 85
1, 19632, Note_on_c, 0, 67, 85
1, 19632, Note_on_c, 0, 64, 85
1, 19632, Note_on_c, 1, 37, 69
1, 19655, Note_on_c, 1, 37, 0
1, 19656, Note_on_c, 1, 49, 69
1, 19679, Note_on_c, 1, 49, 0
1, 19680, Note_on_c, 1, 37, 68
1, 19703, Note_on_c, 1, 37, 0
1, 19704, Note_on_c, 0, 70, 0
1, 19704, Note_on_c, 0, 67, 0
1, 19704, Note_on_c, 0, 64, 0
1, 19704, Note_on_c, 1, 37, 68
1, 19716, Note_on_c, 0, 70, 67
1, 19727, Note_on_c, 1, 37, 0
1, 19728, Tempo, 1200000
1, 19728, Note_on_c, 0, 70, 0
1, 19728, Note_on_c, 0, 69, 83
1, 19728, Note_on_c, 0, 67, 83
1, 19728, Note_on_c, 0, 64, 83
1, 19728, Note_on_c, 1, 36, 67
1, 19751, Note_on_c, 1, 36, 0
1, 19752, Note_on_c, 1, 48, 67
1, 19775, Note_on_c, 1, 48, 0
1, 19776, Note_on_c, 1, 36, 66
1, 19799, Note_on_c, 1, 36, 0
1, 19800, Note_on_c, 0, 69, 0
1, 19800, Note_on_c, 0, 67, 0
1, 19800, Note_on_c, 0, 64, 0
1, 19800, Note_on_c, 1, 36, 66
1, 19812, Tempo, 1500000
1, 19812, Note_on_c, 0, 69, 65
1, 19824, Note_on_c, 0, 69, 0
1, 19824, Note_on_c, 0, 68, 65
1, 19824, Note_on_c, 0, 62, 65
1, 19824, Note_on_c, 0, 59, 65
1, 19824, Note_on_c, 1, 36, 0
1, 19824, Note_on_c, 1, 35, 65
1, 19872, Note_on_c, 0, 68, 0
1, 19872, Note_on_c, 0, 62, 0
1, 19872, Note_on_c, 0, 59, 0
1, 19872, Note_on_c, 0, 86, 97
1, 19913, Note_on_c, 1, 35, 0
1, 19920, Note_on_c, 0, 86, 0
1, 19920, Note_on_c, 0, 84, 64
1, 19943, Note_on_c, 0, 84, 0
1, 19944, Note_on_c, 0, 83, 64
1, 19952, Note_on_c, 0, 83, 0
1, 19952, Note_on_c, 0, 82, 64
1, 19960, Note_on_c, 0, 82, 0
1, 19960, Note_on_c, 0, 81, 64
1, 19968, Tempo, 3000000
1, 19968, Note_on_c, 0, 81, 0
1, 19968, Note_on_c, 0, 80, 64
1, 20002, Note_on_c, 0, 80, 0
1, 20016, Tempo, 1090909
1, 20016, Note_on_c, 0, 53, 75
1, 20016, Note_on_c, 1, 50, 75
1, 20016, Note_on_c, 1, 47, 75
1, 20016, Note_on_c, 1, 43, 75
1, 20031, Note_on_c, 0, 53, 0
1, 20032, Note_on_c, 0, 59, 76
1, 20047, Note_on_c, 0, 59, 0
1, 20048, Note_on_c, 0, 62, 77
1, 20063, Note_on_c, 0, 62, 0
1, 20064, Note_on_c, 0, 65, 78
1, 20079, Note_on_c, 0, 65, 0
1, 20080, Note_on_c, 0, 62, 80
1, 20095, Note_on_c, 0, 62, 0
1, 20096, Note_on_c, 0, 59, 78
1, 20105, Note_on_c, 1, 50, 0
1, 20105, Note_on_c, 1, 47, 0
1, 20105, Note_on_c, 1, 43, 0
1, 20111, Note_on_c, 0, 59, 0
1, 20112, Note_on_c, 0, 53, 75
1, 20112, Note_on_c, 1, 50, 75
1, 20112, Note_on_c, 1, 47, 75
1, 20112, Note_on_c, 1, 43, 75
1, 20122, Note_on_c, 0, 53, 0
1, 20136, Note_on_c, 0, 59, 91
1, 20157, Note_on_c, 1, 50, 0
1, 20157, Note_on_c, 1, 47, 0
1, 20157, Note_on_c, 1, 43, 0
1, 20160, Note_on_c, 1, 50, 76
1, 20160, Note_on_c, 1, 47, 76
1, 20160, Note_on_c, 1, 43, 76
1, 20184, Note_on_c, 0, 59, 0
1, 20184, Note_on_c, 0, 62, 92
1, 20184, Note_on_c, 0, 59, 92
1, 20205, Note_on_c, 1, 50, 0
1, 20205, Note_on_c, 1, 47, 0
1, 20205, Note_on_c, 1, 43, 0
1, 20208, Note_on_c, 1, 50, 77
1, 20208, Note_on_c, 1, 47, 77
1, 20208, Note_on_c, 1, 43, 77
1, 20232, Note_on_c, 0, 62, 0
1, 20232, Note_on_c, 0, 59, 0
1, 20232, Note_on_c, 0, 65, 94
1, 20232, Note_on_c, 0, 62, 94
1, 20253, Note_on_c, 1, 50, 0
1, 20253, Note_on_c, 1, 47, 0
1, 20253, Note_on_c, 1, 43, 0
1, 20256, Note_on_c, 1, 50, 78
1, 20256, Note_on_c, 1, 47, 78
1, 20256, Note_on_c, 1, 43, 78
1, 20280, Note_on_c, 0, 65, 0
1, 20280, Note_on_c, 0, 62, 0
1, 20280, Note_on_c, 0, 68, 79
1, 20280, Note_on_c, 0, 65, 79
1, 20301, Note_on_c, 1, 50, 0
1, 20301, Note_on_c, 1, 47, 0
1, 20301, Note_on_c, 1, 43, 0
1, 20303, Note_on_c, 0, 68, 0
1, 20303, Note_on_c, 0, 65, 0
1, 20304, Note_on_c, 0, 67, 80
1, 20304, Note_on_c, 0, 64, 80
1, 20304, Note_on_c, 1, 36, 70
1, 20319, Note_on_c, 1, 36, 0
1, 20320, Note_on_c, 1, 40, 70
1, 20327, Note_on_c, 0, 67, 0
1, 20327, Note_on_c, 0, 64, 0
1, 20328, Note_on_c, 0, 72, 78
1, 20335, Note_on_c, 1, 40, 0
1, 20336, Note_on_c, 1, 36, 70
1, 20351, Note_on_c, 0, 72, 0
1, 20351, Note_on_c, 1, 36, 0
1, 20352, Note_on_c, 0, 60, 93
1, 20352, Note_on_c, 1, 38, 71
1, 20367, Note_on_c, 1, 38, 0
1, 20368, Note_on_c, 1, 41, 71
1, 20383, Note_on_c, 1, 41, 0
1, 20384, Note_on_c, 1, 38, 72
1, 20399, Note_on_c, 1, 38, 0
1, 20400, Note_on_c, 0, 60, 0
1, 20400, Note_on_c, 0, 60, 75
1, 20400, Note_on_c, 1, 40, 72
1, 20406, Note_on_c, 0, 60, 0
1, 20406, Note_on_c, 0, 59, 75
1, 20412, Note_on_c, 0, 59, 0
1, 20412, Note_on_c, 0, 60, 75
1, 20415, Note_on_c, 1, 40, 0
1, 20416, Note_on_c, 1, 43, 72
1, 20431, Note_on_c, 1, 43, 0
1, 20432, Note_on_c, 1, 40, 73
1, 20447, Note_on_c, 1, 40, 0
1, 20448, Note_on_c, 1, 41, 73
1, 20463, Note_on_c, 1, 41, 0
1, 20464, Note_on_c, 1, 45, 74
1, 20479, Note_on_c, 1, 45, 0
1, 20480, Note_on_c, 1, 41, 74
1, 20495, Note_on_c, 1, 41, 0
1, 20496, Note_on_c, 1, 40, 75
1, 20511, Note_on_c, 1, 40, 0
1, 20512, Note_on_c, 1, 43, 74
1, 20519, Note_on_c, 0, 60, 0
1, 20520, Note_on_c, 0, 62, 78
1, 20527, Note_on_c, 1, 43, 0
1, 20528, Note_on_c, 1, 40, 74
1, 20532, Note_on_c, 0, 62, 0
1, 20532, Note_on_c, 0, 64, 78
1, 20543, Note_on_c, 1, 40, 0
1, 20544, Note_on_c, 0, 64, 0
1, 20544, Note_on_c, 0, 65, 78
1, 20544, Note_on_c, 1, 38, 73
1, 20556, Note_on_c, 0, 65, 0
1, 20556, Note_on_c, 0, 67, 79
1, 20559, Note_on_c, 1, 38, 0
1, 20560, Note_on_c, 1, 41, 73
1, 20568, Note_on_c, 0, 67, 0
1, 20568, Note_on_c, 0, 69, 79
1, 20575, Note_on_c, 1, 41, 0
1, 20576, Note_on_c, 1, 38, 72
1, 20580, Note_on_c, 0, 69, 0
1, 20580, Note_on_c, 0, 71, 79
1, 20591, Note_on_c, 1, 38, 0
1, 20592, Note_on_c, 0, 71, 0
1, 20592, Note_on_c, 0, 72, 80
1, 20592, Note_on_c, 1, 36, 70
1, 20607, Note_on_c, 1, 36, 0
1, 20608, Note_on_c, 1, 40, 70
1, 20623, Note_on_c, 1, 40, 0
1, 20624, Note_on_c, 1, 36, 70
1, 20637, Note_on_c, 0, 72, 0
1, 20639, Note_on_c, 1, 36, 0
1, 20640, Note_on_c, 0, 70, 75
1, 20640, Note_on_c, 0, 67, 75
1, 20640, Note_on_c, 0, 60, 75
1, 20640, Note_on_c, 1, 40, 70
1, 20655, Note_on_c, 1, 40, 0
1, 20656, Note_on_c, 1, 43, 70
1, 20671, Note_on_c, 1, 43, 0
1, 20672, Note_on_c, 1, 40, 70
1, 20687, Note_on_c, 1, 40, 0
1, 20688, Note_on_c, 0, 70, 0
1, 20688, Note_on_c, 0, 67, 0
1, 20688, Note_on_c, 0, 69, 75
1, 20688, Note_on_c, 0, 65, 75
1, 20688, Note_on_c, 1, 41, 70
1, 20703, Note_on_c, 1, 41, 0
1, 20704, Note_on_c, 1, 45, 70
1, 20719, Note_on_c, 1, 45, 0
1, 20720, Note_on_c, 1, 41, 71
1, 20733, Note_on_c, 0, 69, 0
1, 20733, Note_on_c, 0, 65, 0
1, 20733, Note_on_c, 0, 60, 0
1, 20735, Note_on_c, 1, 41, 0
1, 20736, Note_on_c, 0, 72, 76
1, 20736, Note_on_c, 0, 69, 76
1, 20736, Note_on_c, 0, 62, 76
1, 20736, Note_on_c, 1, 42, 71
1, 20751, Note_on_c, 1, 42, 0
1, 20752, Note_on_c, 1, 45, 71
1, 20767, Note_on_c, 1, 45, 0
1, 20768, Note_on_c, 1, 42, 71
1, 20783, Note_on_c, 1, 42, 0
1, 20784, Note_on_c, 0, 72, 0
1, 20784, Note_on_c, 0, 69, 0
1, 20784, Note_on_c, 0, 71, 77
1, 20784, Note_on_c, 0, 67, 77
1, 20784, Note_on_c, 1, 43, 71
1, 20799, Note_on_c, 1, 43, 0
1, 20800, Note_on_c, 1, 47, 72
1, 20815, Note_on_c, 1, 47, 0
1, 20816, Note_on_c, 1, 43, 72
1, 20829, Note_on_c, 0, 71, 0
1, 20829, Note_on_c, 0, 67, 0
1, 20829, Note_on_c, 0, 62, 0
1, 20831, Note_on_c, 1, 43, 0
1, 20832, Note_on_c, 0, 77, 77
1, 20832, Note_on_c, 0, 74, 77
1, 20832, Note_on_c, 0, 67, 77
1, 20832, Note_on_c, 1, 47, 72
1, 20847, Note_on_c, 1, 47, 0
1, 20848, Note_on_c, 1, 50, 72
1, 20863, Note_on_c, 1, 50, 0
1, 20864, Note_on_c, 1, 47, 72
1, 20879, Note_on_c, 1, 47, 0
1, 20880, Note_on_c, 0, 77, 0
1, 20880, Note_on_c, 0, 74, 0
1, 20880, Note_on_c, 0, 76, 78
1, 20880, Note_on_c, 0, 72, 78
1, 20880, Note_on_c, 1, 48, 73
1, 20895, Note_on_c, 1, 48, 0
1, 20896, Note_on_c, 1, 52, 73
1, 20911, Note_on_c, 1, 52, 0
1, 20912, Note_on_c, 1, 55, 73
1, 20925, Note_on_c, 0, 76, 0
1, 20925, Note_on_c, 0, 72, 0
1, 20925, Note_on_c, 0, 67, 0
1, 20927, Note_on_c, 1, 55, 0
1, 20928, Note_on_c, 0, 82, 79
1, 20928, Note_on_c, 0, 79, 79
1, 20928, Note_on_c, 0, 72, 79
1, 20928, Note_on_c, 1, 52, 75
1, 20943, Note_on_c, 1, 52, 0
1, 20944, Note_on_c, 1, 55, 75
1, 20959, Note_on_c, 1, 55, 0
1, 20960, Note_on_c, 1, 60, 75
1, 20975, Note_on_c, 1, 60, 0
1, 20976, Note_on_c, 0, 82, 0
1, 20976, Note_on_c, 0, 79, 0
1, 20976, Note_on_c, 0, 72, 0
1, 20976, Note_on_c, 0, 80, 80
1, 20976, Note_on_c, 0, 77, 80
1, 20976, Note_on_c, 1, 53, 75
1, 20991, Note_on_c, 1, 53, 0
1, 20992, Note_on_c, 1, 56, 74
1, 21007, Note_on_c, 1, 56, 0
1, 21008, Note_on_c, 1, 60, 73
1, 21021, Note_on_c, 0, 80, 0
1, 21021, Note_on_c, 0, 77, 0
1, 21023, Note_on_c, 1, 60, 0
1, 21024, Note_on_c, 0, 80, 76
1, 21024, Note_on_c, 0, 77, 76
1, 21024, Note_on_c, 1, 51, 73
1, 21039, Note_on_c, 1, 51, 0
1, 21040, Note_on_c, 1, 56, 72
1, 21055, Note_on_c, 1, 56, 0
1, 21056, Note_on_c, 1, 60, 72
1, 21069, Note_on_c, 0, 80, 0
1, 21069, Note_on_c, 0, 77, 0
1, 21071, Note_on_c, 1, 60, 0
1, 21072, Note_on_c, 0, 80, 72
1, 21072, Note_on_c, 0, 77, 72
1, 21072, Note_on_c, 1, 49, 71
1, 21087, Note_on_c, 1, 49, 0
1, 21088, Note_on_c, 1, 56, 71
1, 21103, Note_on_c, 1, 56, 0
1, 21104, Note_on_c, 1, 60, 70
1, 21117, Note_on_c, 0, 80, 0
1, 21117, Note_on_c, 0, 77, 0
1, 21119, Note_on_c, 1, 60, 0
1, 21120, Note_on_c, 0, 80, 68
1, 21120, Note_on_c, 0, 77, 68
1, 21120, Note_on_c, 1, 48, 70
1, 21135, Note_on_c, 1, 48, 0
1, 21136, Note_on_c, 1, 56, 69
1, 21151, Note_on_c, 1, 56, 0
1, 21152, Note_on_c, 1, 60, 68
1, 21165, Note_on_c, 0, 80, 0
1, 21165, Note_on_c, 0, 77, 0
1, 21167, Note_on_c, 1, 60, 0
1, 21168, Note_on_c, 0, 79, 80
1, 21168, Note_on_c, 0, 77, 80
1, 21168, Note_on_c, 1, 47, 68
1, 21184, Note_on_c, 0, 79, 0
1, 21184, Note_on_c, 0, 77, 0
1, 21184, Note_on_c, 0, 74, 64
1, 21199, Note_on_c, 0, 74, 0
1, 21200, Note_on_c, 0, 77, 64
1, 21213, Note_on_c, 1, 47, 0
1, 21215, Note_on_c, 0, 77, 0
1, 21216, Note_on_c, 0, 75, 64
1, 21231, Note_on_c, 0, 75, 0
1, 21232, Note_on_c, 0, 74, 64
1, 21247, Note_on_c, 0, 74, 0
1, 21248, Note_on_c, 0, 72, 64
1, 21263, Note_on_c, 0, 72, 0
1, 21264, Note_on_c, 0, 79, 64
1, 21279, Note_on_c, 0, 79, 0
1, 21280, Note_on_c, 0, 62, 70
1, 21280, Note_on_c, 1, 50, 70
1, 21295, Note_on_c, 0, 62, 0
1, 21295, Note_on_c, 1, 50, 0
1, 21296, Note_on_c, 0, 65, 70
1, 21296, Note_on_c, 1, 53, 70
1, 21311, Note_on_c, 0, 65, 0
1, 21311, Note_on_c, 1, 53, 0
1, 21312, Note_on_c, 0, 63, 70
1, 21312, Note_on_c, 1, 51, 70
1, 21327, Note_on_c, 0, 63, 0
1, 21327, Note_on_c, 1, 51, 0
1, 21328, Note_on_c, 0, 62, 70
1, 21328, Note_on_c, 1, 50, 70
1, 21343, Note_on_c, 0, 62, 0
1, 21343, Note_on_c, 1, 50, 0
1, 21344, Note_on_c, 0, 60, 70
1, 21344, Note_on_c, 1, 48, 70
1, 21359, Note_on_c, 0, 60, 0
1, 21359, Note_on_c, 1, 48, 0
1, 21360, Note_on_c, 0, 67, 70
1, 21360, Note_on_c, 1, 55, 70
1, 21405, Note_on_c, 0, 67, 0
1, 21405, Note_on_c, 1, 55, 0
1, 21408, Tempo, 1200000
1, 21456, Tempo, 1090909
1, 21456, Note_on_c, 0, 76, 70
1, 21456, Note_on_c, 1, 60, 64
1, 21457, Note_on_c, 1, 64, 64
1, 21458, Note_on_c, 1, 67, 64
1, 21459, Note_on_c, 1, 72, 64
1, 21471, Note_on_c, 0, 76, 0
1, 21472, Note_on_c, 0, 79, 70
1, 21487, Note_on_c, 0, 79, 0
1, 21488, Note_on_c, 0, 84, 70
1, 21503, Note_on_c, 0, 84, 0
1, 21504, Note_on_c, 0, 76, 70
1, 21519, Note_on_c, 0, 76, 0
1, 21520, Note_on_c, 0, 79, 71
1, 21535, Note_on_c, 0, 79, 0
1, 21536, Note_on_c, 0, 84, 71
1, 21546, Note_on_c, 1, 72, 0
1, 21546, Note_on_c, 1, 67, 0
1, 21546, Note_on_c, 1, 64, 0
1, 21546, Note_on_c, 1, 60, 0
1, 21551, Note_on_c, 0, 84, 0
1, 21552, Note_on_c, 0, 77, 72
1, 21567, Note_on_c, 0, 77, 0
1, 21568, Note_on_c, 0, 81, 72
1, 21583, Note_on_c, 0, 81, 0
1, 21584, Note_on_c, 0, 84, 73
1, 21599, Note_on_c, 0, 84, 0
1, 21600, Note_on_c, 0, 77, 73
1, 21600, Note_on_c, 1, 72, 64
1, 21600, Note_on_c, 1, 69, 64
1, 21615, Note_on_c, 0, 77, 0
1, 21616, Note_on_c, 0, 81, 74
1, 21631, Note_on_c, 0, 81, 0
1, 21632, Note_on_c, 0, 84, 74
1, 21645, Note_on_c, 1, 72, 0
1, 21645, Note_on_c, 1, 69, 0
1, 21647, Note_on_c, 0, 84, 0
1, 21648, Note_on_c, 0, 76, 75
1, 21648, Note_on_c, 1, 72, 62
1, 21648, Note_on_c, 1, 67, 62
1, 21663, Note_on_c, 0, 76, 0
1, 21664, Note_on_c, 0, 79, 74
1, 21679, Note_on_c, 0, 79, 0
1, 21680, Note_on_c, 0, 84, 74
1, 21693, Note_on_c, 1, 72, 0
1, 21693, Note_on_c, 1, 67, 0
1, 21695, Note_on_c, 0, 84, 0
1, 21696, Note_on_c, 0, 74, 73
1, 21696, Note_on_c, 1, 71, 60
1, 21696, Note_on_c, 1, 65, 60
1, 21711, Note_on_c, 0, 74, 0
1, 21712, Note_on_c, 0, 77, 73
1, 21727, Note_on_c, 0, 77, 0
1, 21728, Note_on_c, 0, 86, 72
1, 21741, Note_on_c, 1, 71, 0
1, 21741, Note_on_c, 1, 65, 0
1, 21743, Note_on_c, 0, 86, 0
1, 21744, Note_on_c, 1, 64, 64
1, 21759, Note_on_c, 1, 64, 0
1, 21760, Note_on_c, 0, 83, 70
1, 21760, Note_on_c, 1, 67, 64
1, 21775, Note_on_c, 1, 67, 0
1, 21776, Note_on_c, 0, 83, 0
1, 21776, Note_on_c, 0, 84, 70
1, 21776, Note_on_c, 1, 72, 64
1, 21791, Note_on_c, 0, 84, 0
1, 21791, Note_on_c, 1, 72, 0
1, 21792, Note_on_c, 1, 52, 64
1, 21807, Note_on_c, 1, 52, 0
1, 21808, Note_on_c, 0, 72, 70
1, 21808, Note_on_c, 1, 55, 64
1, 21823, Note_on_c, 1, 55, 0
1, 21824, Note_on_c, 0, 72, 0
1, 21824, Note_on_c, 0, 70, 70
1, 21824, Note_on_c, 1, 60, 64
1, 21839, Note_on_c, 0, 70, 0
1, 21839, Note_on_c, 1, 60, 0
1, 21840, Note_on_c, 0, 69, 70
1, 21840, Note_on_c, 1, 53, 64
1, 21855, Note_on_c, 0, 69, 0
1, 21855, Note_on_c, 1, 53, 0
1, 21856, Note_on_c, 0, 77, 70
1, 21856, Note_on_c, 1, 57, 65
1, 21871, Note_on_c, 1, 57, 0
1, 21872, Note_on_c, 0, 77, 0
1, 21872, Note_on_c, 0, 76, 70
1, 21872, Note_on_c, 1, 60, 65
1, 21887, Note_on_c, 0, 76, 0
1, 21887, Note_on_c, 1, 60, 0
1, 21888, Note_on_c, 1, 54, 65
1, 21903, Note_on_c, 1, 54, 0
1, 21904, Note_on_c, 0, 74, 71
1, 21904, Note_on_c, 1, 57, 66
1, 21919, Note_on_c, 1, 57, 0
1, 21920, Note_on_c, 0, 74, 0
1, 21920, Note_on_c, 0, 72, 71
1, 21920, Note_on_c, 1, 60, 66
1, 21935, Note_on_c, 0, 72, 0
1, 21935, Note_on_c, 1, 60, 0
1, 21936, Note_on_c, 0, 71, 71
1, 21936, Note_on_c, 1, 55, 66
1, 21951, Note_on_c, 0, 71, 0
1, 21951, Note_on_c, 1, 55, 0
1, 21952, Note_on_c, 0, 79, 71
1, 21952, Note_on_c, 1, 59, 67
1, 21967, Note_on_c, 1, 59, 0
1, 21968, Note_on_c, 0, 79, 0
1, 21968, Note_on_c, 0, 77, 71
1, 21968, Note_on_c, 1, 62, 67
1, 21983, Note_on_c, 0, 77, 0
1, 21983, Note_on_c, 1, 62, 0
1, 21984, Note_on_c, 1, 56, 67
1, 21999, Note_on_c, 1, 56, 0
1, 22000, Note_on_c, 0, 76, 72
1, 22000, Note_on_c, 1, 59, 68
1, 22015, Note_on_c, 1, 59, 0
1, 22016, Note_on_c, 0, 76, 0
1, 22016, Note_on_c, 0, 74, 72
1, 22016, Note_on_c, 1, 62, 68
1, 22031, Note_on_c, 0, 74, 0
1, 22031, Note_on_c, 1, 62, 0
1, 22032, Note_on_c, 0, 72, 72
1, 22032, Note_on_c, 1, 57, 68
1, 22047, Note_on_c, 0, 72, 0
1, 22047, Note_on_c, 1, 57, 0
1, 22048, Note_on_c, 0, 81, 72
1, 22048, Note_on_c, 1, 60, 69
1, 22063, Note_on_c, 0, 81, 0
1, 22063, Note_on_c, 1, 60, 0
1, 22064, Note_on_c, 0, 79, 72
1, 22064, Note_on_c, 1, 64, 69
1, 22079, Note_on_c, 0, 79, 0
1, 22079, Note_on_c, 1, 64, 0
1, 22080, Note_on_c, 1, 57, 70
1, 22095, Note_on_c, 1, 57, 0
1, 22096, Note_on_c, 0, 77, 73
1, 22096, Note_on_c, 1, 60, 70
1, 22111, Note_on_c, 1, 60, 0
1, 22112, Note_on_c, 0, 77, 0
1, 22112, Note_on_c, 0, 76, 73
1, 22112, Note_on_c, 1, 64, 70
1, 22127, Note_on_c, 0, 76, 0
1, 22127, Note_on_c, 1, 64, 0
1, 22128, Note_on_c, 0, 74, 73
1, 22128, Note_on_c, 1, 59, 71
1, 22140, Note_on_c, 0, 74, 0
1, 22140, Note_on_c, 0, 84, 75
1, 22152, Note_on_c, 0, 84, 0
1, 22152, Note_on_c, 0, 83, 75
1, 22164, Note_on_c, 0, 83, 0
1, 22164, Note_on_c, 0, 81, 75
1, 22173, Note_on_c, 1, 59, 0
1, 22176, Note_on_c, 0, 81, 0
1, 22176, Note_on_c, 0, 79, 75
1, 22188, Note_on_c, 0, 79, 0
1, 22188, Note_on_c, 0, 77, 75
1, 22200, Note_on_c, 0, 77, 0
1, 22200, Note_on_c, 0, 76, 75
1, 22212, Note_on_c, 0, 76, 0
1, 22212, Note_on_c, 0, 74, 75
1, 22224, Note_on_c, 0, 74, 0
1, 22224, Note_on_c, 0, 72, 75
1, 22236, Note_on_c, 0, 72, 0
1, 22236, Note_on_c, 0, 71, 75
1, 22248, Note_on_c, 0, 71, 0
1, 22248, Note_on_c, 0, 69, 75
1, 22260, Note_on_c, 0, 69, 0
1, 22260, Note_on_c, 0, 67, 75
1, 22272, Note_on_c, 0, 67, 0
1, 22272, Note_on_c, 0, 65, 75
1, 22284, Note_on_c, 0, 65, 0
1, 22284, Note_on_c, 0, 64, 75
1, 22296, Note_on_c, 0, 64, 0
1, 22296, Note_on_c, 0, 62, 75
1, 22308, Note_on_c, 0, 62, 0
1, 22308, Note_on_c, 0, 60, 75
1, 22320, Note_on_c, 0, 60, 0
1, 22320, Note_on_c, 0, 59, 91
1, 22320, Note_on_c, 1, 43, 75
1, 22335, Note_on_c, 1, 43, 0
1, 22336, Note_on_c, 1, 50, 75
1, 22351, Note_on_c, 1, 50, 0
1, 22352, Note_on_c, 1, 55, 75
1, 22367, Note_on_c, 1, 55, 0
1, 22368, Note_on_c, 0, 59, 0
1, 22368, Note_on_c, 0, 74, 75
1, 22368, Note_on_c, 0, 71, 75
1, 22368, Note_on_c, 1, 43, 75
1, 22383, Note_on_c, 1, 43, 0
1, 22384, Note_on_c, 1, 50, 76
1, 22388, Note_on_c, 0, 74, 0
1, 22388, Note_on_c, 0, 71, 0
1, 22399, Note_on_c, 1, 50, 0
1, 22400, Note_on_c, 1, 55, 76
1, 22415, Note_on_c, 1, 55, 0
1, 22416, Note_on_c, 0, 60, 76
1, 22416, Note_on_c, 1, 43, 76
1, 22422, Note_on_c, 0, 60, 0
1, 22422, Note_on_c, 0, 62, 76
1, 22428, Note_on_c, 0, 62, 0
1, 22428, Note_on_c, 0, 60, 92
1, 22431, Note_on_c, 1, 43, 0
1, 22432, Note_on_c, 1, 52, 76
1, 22447, Note_on_c, 1, 52, 0
1, 22448, Note_on_c, 1, 55, 77
1, 22463, Note_on_c, 1, 55, 0
1, 22464, Note_on_c, 0, 60, 0
1, 22464, Note_on_c, 0, 76, 77
1, 22464, Note_on_c, 0, 72, 77
1, 22464, Note_on_c, 1, 43, 77
1, 22479, Note_on_c, 1, 43, 0
1, 22480, Note_on_c, 1, 52, 77
1, 22484, Note_on_c, 0, 76, 0
1, 22484, Note_on_c, 0, 72, 0
1, 22495, Note_on_c, 1, 52, 0
1, 22496, Note_on_c, 1, 55, 77
1, 22511, Note_on_c, 1, 55, 0
1, 22512, Note_on_c, 0, 62, 78
1, 22512, Note_on_c, 1, 43, 78
1, 22518, Note_on_c, 0, 62, 0
1, 22518, Note_on_c, 0, 64, 78
1, 22524, Note_on_c, 0, 64, 0
1, 22524, Note_on_c, 0, 62, 94
1, 22527, Note_on_c, 1, 43, 0
1, 22528, Note_on_c, 1, 53, 78
1, 22543, Note_on_c, 1, 53, 0
1, 22544, Note_on_c, 1, 55, 78
1, 22559, Note_on_c, 1, 55, 0
1, 22560, Note_on_c, 0, 62, 0
1, 22560, Note_on_c, 0, 77, 79
1, 22560, Note_on_c, 0, 74, 79
1, 22560, Note_on_c, 1, 43, 80
1, 22575, Note_on_c, 1, 43, 0
1, 22576, Note_on_c, 1, 53, 80
1, 22580, Note_on_c, 0, 77, 0
1, 22580, Note_on_c, 0, 74, 0
1, 22591, Note_on_c, 1, 53, 0
1, 22592, Note_on_c, 1, 55, 80
1, 22607, Note_on_c, 1, 55, 0
1, 22608, Note_on_c, 0, 78, 96
1, 22608, Note_on_c, 0, 74, 58
1, 22608, Note_on_c, 1, 43, 80
1, 22632, Note_on_c, 0, 78, 0
1, 22632, Note_on_c, 0, 79, 79
1, 22655, Note_on_c, 0, 79, 0
1, 22656, Note_on_c, 0, 81, 78
1, 22679, Note_on_c, 0, 81, 0
1, 22680, Note_on_c, 0, 79, 78
1, 22697, Note_on_c, 1, 43, 0
1, 22703, Note_on_c, 0, 79, 0
1, 22704, Note_on_c, 0, 77, 77
1, 22749, Note_on_c, 0, 74, 0
1, 22793, Note_on_c, 0, 77, 0
1, 22848, Tempo, 428571
1, 22944, Tempo, 1090909
1, 22944, Note_on_c, 0, 72, 91
1, 22976, Note_on_c, 0, 72, 0
1, 22976, Note_on_c, 0, 64, 75
1, 22991, Note_on_c, 0, 64, 0
1, 22992, Note_on_c, 0, 65, 75
1, 23007, Note_on_c, 0, 65, 0
1, 23008, Note_on_c, 0, 69, 75
1, 23023, Note_on_c, 0, 69, 0
1, 23024, Note_on_c, 0, 64, 75
1, 23039, Note_on_c, 0, 64, 0
1, 23040, Note_on_c, 0, 65, 75
1, 23055, Note_on_c, 0, 65, 0
1, 23056, Note_on_c, 0, 69, 75
1, 23071, Note_on_c, 0, 69, 0
1, 23072, Note_on_c, 0, 61, 75
1, 23087, Note_on_c, 0, 61, 0
1, 23088, Note_on_c, 0, 62, 75
1, 23103, Note_on_c, 0, 62, 0
1, 23104, Note_on_c, 0, 64, 75
1, 23119, Note_on_c, 0, 64, 0
1, 23120, Note_on_c, 0, 65, 75
1, 23135, Note_on_c, 0, 65, 0
1, 23136, Note_on_c, 0, 67, 75
1, 23151, Note_on_c, 0, 67, 0
1, 23152, Note_on_c, 0, 65, 75
1, 23167, Note_on_c, 0, 65, 0
1, 23168, Note_on_c, 0, 64, 75
1, 23183, Note_on_c, 0, 64, 0
1, 23184, Note_on_c, 0, 62, 75
1, 23184, Note_on_c, 0, 60, 75
1, 23184, Note_on_c, 1, 54, 70
1, 23194, Note_on_c, 0, 62, 0
1, 23194, Note_on_c, 0, 60, 0
1, 23208, Note_on_c, 0, 62, 86
1, 23208, Note_on_c, 0, 60, 86
1, 23232, Note_on_c, 1, 54, 0
1, 23232, Note_on_c, 1, 57, 70
1, 23256, Note_on_c, 0, 62, 0
1, 23256, Note_on_c, 0, 60, 0
1, 23256, Note_on_c, 0, 62, 70
1, 23256, Note_on_c, 0, 60, 70
1, 23277, Note_on_c, 1, 57, 0
1, 23279, Note_on_c, 0, 62, 0
1, 23279, Note_on_c, 0, 60, 0
1, 23280, Note_on_c, 0, 63, 70
1, 23280, Note_on_c, 0, 60, 70
1, 23280, Note_on_c, 1, 54, 70
1, 23290, Note_on_c, 0, 63, 0
1, 23290, Note_on_c, 0, 60, 0
1, 23304, Note_on_c, 0, 63, 86
1, 23304, Note_on_c, 0, 60, 86
1, 23328, Note_on_c, 1, 54, 0
1, 23328, Note_on_c, 1, 57, 70
1, 23352, Note_on_c, 0, 63, 0
1, 23352, Note_on_c, 0, 60, 0
1, 23352, Note_on_c, 0, 63, 70
1, 23352, Note_on_c, 0, 60, 70
1, 23373, Note_on_c, 1, 57, 0
1, 23375, Note_on_c, 0, 63, 0
1, 23375, Note_on_c, 0, 60, 0
1, 23376, Note_on_c, 0, 69, 70
1, 23376, Note_on_c, 0, 63, 70
1, 23376, Note_on_c, 0, 60, 70
1, 23376, Note_on_c, 1, 54, 70
1, 23386, Note_on_c, 0, 69, 0
1, 23386, Note_on_c, 0, 63, 0
1, 23386, Note_on_c, 0, 60, 0
1, 23400, Note_on_c, 0, 69, 86
1, 23400, Note_on_c, 0, 63, 86
1, 23400, Note_on_c, 0, 60, 86
1, 23424, Note_on_c, 1, 54, 0
1, 23424, Note_on_c, 1, 57, 70
1, 23448, Note_on_c, 0, 69, 0
1, 23448, Note_on_c, 0, 63, 0
1, 23448, Note_on_c, 0, 60, 0
1, 23448, Note_on_c, 0, 69, 70
1, 23448, Note_on_c, 0, 63, 70
1, 23448, Note_on_c, 0, 60, 70
1, 23469, Note_on_c, 1, 57, 0
1, 23471, Note_on_c, 0, 69, 0
1, 23471, Note_on_c, 0, 63, 0
1, 23471, Note_on_c, 0, 60, 0
1, 23472, Tempo, 1200000
1, 23472, Note_on_c, 0, 84, 70
1, 23484, Note_on_c, 0, 84, 0
1, 23484, Note_on_c, 0, 86, 70
1, 23496, Note_on_c, 0, 86, 0
1, 23496, Note_on_c, 0, 87, 86
1, 23568, Tempo, 1090909
1, 23568, Note_on_c, 0, 87, 0
1, 23568, Note_on_c, 1, 43, 64
1, 23583, Note_on_c, 1, 43, 0
1, 23584, Note_on_c, 1, 48, 64
1, 23599, Note_on_c, 1, 48, 0
1, 23600, Note_on_c, 1, 52, 64
1, 23615, Note_on_c, 1, 52, 0
1, 23616, Note_on_c, 0, 72, 64
1, 23616, Note_on_c, 0, 67, 64
1, 23616, Note_on_c, 0, 64, 64
1, 23616, Note_on_c, 1, 55, 64
1, 23631, Note_on_c, 1, 55, 0
1, 23632, Note_on_c, 1, 52, 64
1, 23636, Note_on_c, 0, 72, 0
1, 23636, Note_on_c, 0, 67, 0
1, 23636, Note_on_c, 0, 64, 0
1, 23647, Note_on_c, 1, 52, 0
1, 23648, Note_on_c, 1, 48, 64
1, 23663, Note_on_c, 1, 48, 0
1, 23664, Note_on_c, 1, 43, 64
1, 23679, Note_on_c, 1, 43, 0
1, 23680, Note_on_c, 1, 47, 64
1, 23695, Note_on_c, 1, 47, 0
1, 23696, Note_on_c, 1, 50, 64
1, 23711, Note_on_c, 1, 50, 0
1, 23712, Note_on_c, 0, 74, 64
1, 23712, Note_on_c, 0, 71, 64
1, 23712, Note_on_c, 0, 65, 64
1, 23712, Note_on_c, 1, 53, 64
1, 23727, Note_on_c, 1, 53, 0
1, 23728, Note_on_c, 1, 50, 64
1, 23743, Note_on_c, 1, 50, 0
1, 23744, Note_on_c, 1, 47, 64
1, 23757, Note_on_c, 0, 74, 0
1, 23757, Note_on_c, 0, 71, 0
1, 23757, Note_on_c, 0, 65, 0
1, 23759, Note_on_c, 1, 47, 0
1, 23760, Note_on_c, 0, 72, 64
1, 23760, Note_on_c, 0, 67, 64
1, 23760, Note_on_c, 0, 64, 64
1, 23760, Note_on_c, 1, 48, 64
1, 23775, Note_on_c, 1, 48, 0
1, 23776, Note_on_c, 1, 52, 64
1, 23791, Note_on_c, 1, 52, 0
1, 23792, Note_on_c, 1, 55, 64
1, 23805, Note_on_c, 0, 72, 0
1, 23805, Note_on_c, 0, 67, 0
1, 23805, Note_on_c, 0, 64, 0
1, 23807, Note_on_c, 1, 55, 0
1, 23808, Note_on_c, 0, 40, 58
1, 23808, Note_on_c, 0, 36, 58
1, 23808, Note_on_c, 1, 60, 64
1, 23823, Note_on_c, 1, 60, 0
1, 23824, Note_on_c, 1, 55, 64
1, 23839, Note_on_c, 1, 55, 0
1, 23840, Note_on_c, 1, 52, 64
1, 23853, Note_on_c, 0, 40, 0
1, 23853, Note_on_c, 0, 36, 0
1, 23855, Note_on_c, 1, 52, 0
1, 23856, Note_on_c, 0, 40, 58
1, 23856, Note_on_c, 0, 36, 58
1, 23856, Note_on_c, 1, 48, 64
1, 23945, Note_on_c, 0, 40, 0
1, 23945, Note_on_c, 0, 36, 0
1, 23945, Note_on_c, 1, 48, 0
1, 24000, Note_on_c, 1, 48, 0
1, 24089, Note_on_c, 1, 48, 0
1, 24099, End_track
0, 0, End_of_file