0, 0, Header, 0, 1, 96
1, 0, Start_track
1, 0, Tempo, 120000
1, 288, Tempo, 468750
1, 288, Note_on_c, 0, 72, 81
1, 288, Note_on_c, 1, 60, 81
1, 288, Note_on_c, 1, 48, 81
1, 377, Note_on_c, 0, 72, 0
1, 384, Note_on_c, 0, 84, 81
1, 465, Note_on_c, 1, 60, 0
1, 465, Note_on_c, 1, 48, 0
1, 473, Note_on_c, 0, 84, 0
1, 480, Note_on_c, 0, 76, 81
1, 480, Note_on_c, 1, 60, 81
1, 547, Note_on_c, 0, 76, 0
1, 552, Note_on_c, 0, 79, 81
1, 569, Note_on_c, 1, 60, 0
1, 575, Note_on_c, 0, 79, 0
1, 576, Note_on_c, 0, 77, 81
1, 576, Note_on_c, 1, 62, 81
1, 665, Note_on_c, 0, 77, 0
1, 665, Note_on_c, 1, 62, 0
1, 672, Note_on_c, 0, 74, 81
1, 672, Note_on_c, 1, 59, 81
1, 761, Note_on_c, 0, 74, 0
1, 761, Note_on_c, 1, 59, 0
1, 768, Note_on_c, 0, 74, 81
1, 768, Note_on_c, 1, 55, 81
1, 835, Note_on_c, 0, 74, 0
1, 840, Note_on_c, 0, 77, 81
1, 857, Note_on_c, 1, 55, 0
1, 863, Note_on_c, 0, 77, 0
1, 864, Note_on_c, 0, 76, 81
1, 864, Note_on_c, 1, 60, 81
1, 953, Note_on_c, 0, 76, 0
1, 953, Note_on_c, 1, 60, 0
1, 960, Note_on_c, 0, 72, 81
1, 960, Note_on_c, 1, 52, 81
1, 1049, Note_on_c, 0, 72, 0
1, 1049, Note_on_c, 1, 52, 0
1, 1056, Note_on_c, 0, 69, 81
1, 1056, Note_on_c, 1, 53, 81
1, 1123, Note_on_c, 0, 69, 0
1, 1128, Note_on_c, 0, 74, 81
1, 1145, Note_on_c, 1, 53, 0
1, 1151, Note_on_c, 0, 74, 0
1, 1152, Note_on_c, 0, 72, 81
1, 1152, Note_on_c, 1, 55, 81
1, 1241, Note_on_c, 0, 72, 0
1, 1241, Note_on_c, 1, 55, 0
1, 1248, Note_on_c, 0, 71, 81
1, 1248, Note_on_c, 1, 50, 81
1, 1337, Note_on_c, 0, 71, 0
1, 1337, Note_on_c, 1, 50, 0
1, 1344, Note_on_c, 1, 43, 81
1, 1433, Note_on_c, 1, 43, 0
1, 1440, Note_on_c, 0, 67, 81
1, 1440, Note_on_c, 1, 59, 81
1, 1440, Note_on_c, 1, 55, 81
1, 1456, Note_on_c, 0, 71, 81
1, 1472, Note_on_c, 0, 74, 81
1, 1529, Note_on_c, 0, 74, 0
1, 1529, Note_on_c, 0, 71, 0
1, 1529, Note_on_c, 0, 67, 0
1, 1529, Note_on_c, 1, 59, 0
1, 1529, Note_on_c, 1, 55, 0
1, 1536, Note_on_c, 0, 79, 81
1, 1559, Note_on_c, 0, 79, 0
1, 1560, Note_on_c, 0, 78, 81
1, 1583, Note_on_c, 0, 78, 0
1, 1584, Note_on_c, 0, 79, 81
1, 1607, Note_on_c, 0, 79, 0
1, 1608, Note_on_c, 0, 81, 81
1, 1631, Note_on_c, 0, 81, 0
1, 1632, Note_on_c, 0, 83, 81
1, 1655, Note_on_c, 0, 83, 0
1, 1656, Note_on_c, 0, 81, 81
1, 1679, Note_on_c, 0, 81, 0
1, 1680, Note_on_c, 0, 83, 81
1, 1703, Note_on_c, 0, 83, 0
1, 1704, Note_on_c, 0, 84, 81
1, 1727, Note_on_c, 0, 84, 0
1, 1728, Note_on_c, 0, 86, 81
1, 1728, Note_on_c, 1, 59, 81
1, 1728, Note_on_c, 1, 55, 81
1, 1817, Note_on_c, 0, 86, 0
1, 1817, Note_on_c, 1, 59, 0
1, 1817, Note_on_c, 1, 55, 0
1, 1824, Note_on_c, 0, 79, 81
1, 1847, Note_on_c, 0, 79, 0
1, 1848, Note_on_c, 0, 78, 81
1, 1871, Note_on_c, 0, 78, 0
1, 1872, Note_on_c, 0, 79, 81
1, 1895, Note_on_c, 0, 79, 0
1, 1896, Note_on_c, 0, 81, 81
1, 1919, Note_on_c, 0, 81, 0
1, 1920, Note_on_c, 0, 83, 81
1, 1943, Note_on_c, 0, 83, 0
1, 1944, Note_on_c, 0, 81, 81
1, 1967, Note_on_c, 0, 81, 0
1, 1968, Note_on_c, 0, 83, 81
1, 1991, Note_on_c, 0, 83, 0
1, 1992, Note_on_c, 0, 84, 81
1, 2015, Note_on_c, 0, 84, 0
1, 2016, Note_on_c, 0, 86, 81
1, 2016, Note_on_c, 1, 59, 81
1, 2016, Note_on_c, 1, 55, 81
1, 2105, Note_on_c, 0, 86, 0
1, 2105, Note_on_c, 1, 59, 0
1, 2105, Note_on_c, 1, 55, 0
1, 2112, Note_on_c, 0, 71, 81
1, 2112, Note_on_c, 1, 62, 81
1, 2201, Note_on_c, 0, 71, 0
1, 2201, Note_on_c, 1, 62, 0
1, 2208, Note_on_c, 0, 69, 81
1, 2208, Note_on_c, 1, 50, 81
1, 2221, Note_on_c, 0, 69, 0
1, 2222, Note_on_c, 0, 71, 81
1, 2235, Note_on_c, 0, 71, 0
1, 2236, Note_on_c, 0, 69, 81
1, 2249, Note_on_c, 0, 69, 0
1, 2250, Note_on_c, 0, 71, 81
1, 2263, Note_on_c, 0, 71, 0
1, 2264, Note_on_c, 0, 69, 81
1, 2277, Note_on_c, 0, 69, 0
1, 2278, Note_on_c, 0, 67, 81
1, 2290, Note_on_c, 0, 67, 0
1, 2291, Note_on_c, 0, 69, 81
1, 2297, Note_on_c, 1, 50, 0
1, 2303, Note_on_c, 0, 69, 0
1, 2304, Note_on_c, 0, 67, 81
1, 2304, Note_on_c, 1, 55, 81
1, 2393, Note_on_c, 1, 55, 0
1, 2400, Note_on_c, 1, 50, 81
1, 2481, Note_on_c, 0, 67, 0
1, 2489, Note_on_c, 1, 50, 0
1, 2496, Note_on_c, 1, 43, 81
1, 2585, Note_on_c, 1, 43, 0
1, 2592, Tempo, 468750
1, 2592, Note_on_c, 0, 72, 81
1, 2592, Note_on_c, 1, 60, 81
1, 2592, Note_on_c, 1, 48, 81
1, 2681, Note_on_c, 0, 72, 0
1, 2688, Note_on_c, 0, 84, 81
1, 2769, Note_on_c, 1, 60, 0
1, 2769, Note_on_c, 1, 48, 0
1, 2777, Note_on_c, 0, 84, 0
1, 2784, Note_on_c, 0, 76, 81
1, 2784, Note_on_c, 1, 60, 81
1, 2851, Note_on_c, 0, 76, 0
1, 2856, Note_on_c, 0, 79, 81
1, 2873, Note_on_c, 1, 60, 0
1, 2879, Note_on_c, 0, 79, 0
1, 2880, Note_on_c, 0, 77, 81
1, 2880, Note_on_c, 1, 62, 81
1, 2969, Note_on_c, 0, 77, 0
1, 2969, Note_on_c, 1, 62, 0
1, 2976, Note_on_c, 0, 74, 81
1, 2976, Note_on_c, 1, 59, 81
1, 3065, Note_on_c, 0, 74, 0
1, 3065, Note_on_c, 1, 59, 0
1, 3072, Note_on_c, 0, 74, 81
1, 3072, Note_on_c, 1, 55, 81
1, 3139, Note_on_c, 0, 74, 0
1, 3144, Note_on_c, 0, 77, 81
1, 3161, Note_on_c, 1, 55, 0
1, 3167, Note_on_c, 0, 77, 0
1, 3168, Note_on_c, 0, 76, 81
1, 3168, Note_on_c, 1, 60, 81
1, 3257, Note_on_c, 0, 76, 0
1, 3257, Note_on_c, 1, 60, 0
1, 3264, Note_on_c, 0, 72, 81
1, 3264, Note_on_c, 1, 52, 81
1, 3353, Note_on_c, 0, 72, 0
1, 3353, Note_on_c, 1, 52, 0
1, 3360, Note_on_c, 0, 69, 81
1, 3360, Note_on_c, 1, 53, 81
1, 3427, Note_on_c, 0, 69, 0
1, 3432, Note_on_c, 0, 74, 81
1, 3449, Note_on_c, 1, 53, 0
1, 3455, Note_on_c, 0, 74, 0
1, 3456, Note_on_c, 0, 72, 81
1, 3456, Note_on_c, 1, 55, 81
1, 3545, Note_on_c, 0, 72, 0
1, 3545, Note_on_c, 1, 55, 0
1, 3552, Note_on_c, 0, 71, 81
1, 3552, Note_on_c, 1, 50, 81
1, 3641, Note_on_c, 0, 71, 0
1, 3641, Note_on_c, 1, 50, 0
1, 3648, Note_on_c, 1, 43, 81
1, 3737, Note_on_c, 1, 43, 0
1, 3744, Note_on_c, 0, 67, 81
1, 3744, Note_on_c, 1, 59, 81
1, 3744, Note_on_c, 1, 55, 81
1, 3760, Note_on_c, 0, 71, 81
1, 3776, Note_on_c, 0, 74, 81
1, 3833, Note_on_c, 0, 74, 0
1, 3833, Note_on_c, 0, 71, 0
1, 3833, Note_on_c, 0, 67, 0
1, 3833, Note_on_c, 1, 59, 0
1, 3833, Note_on_c, 1, 55, 0
1, 3840, Note_on_c, 0, 79, 81
1, 3863, Note_on_c, 0, 79, 0
1, 3864, Note_on_c, 0, 78, 81
1, 3887, Note_on_c, 0, 78, 0
1, 3888, Note_on_c, 0, 79, 81
1, 3911, Note_on_c, 0, 79, 0
1, 3912, Note_on_c, 0, 81, 81
1, 3935, Note_on_c, 0, 81, 0
1, 3936, Note_on_c, 0, 83, 81
1, 3959, Note_on_c, 0, 83, 0
1, 3960, Note_on_c, 0, 81, 81
1, 3983, Note_on_c, 0, 81, 0
1, 3984, Note_on_c, 0, 83, 81
1, 4007, Note_on_c, 0, 83, 0
1, 4008, Note_on_c, 0, 84, 81
1, 4031, Note_on_c, 0, 84, 0
1, 4032, Note_on_c, 0, 86, 81
1, 4032, Note_on_c, 1, 59, 81
1, 4032, Note_on_c, 1, 55, 81
1, 4121, Note_on_c, 0, 86, 0
1, 4121, Note_on_c, 1, 59, 0
1, 4121, Note_on_c, 1, 55, 0
1, 4128, Note_on_c, 0, 79, 81
1, 4151, Note_on_c, 0, 79, 0
1, 4152, Note_on_c, 0, 78, 81
1, 4175, Note_on_c, 0, 78, 0
1, 4176, Note_on_c, 0, 79, 81
1, 4199, Note_on_c, 0, 79, 0
1, 4200, Note_on_c, 0, 81, 81
1, 4223, Note_on_c, 0, 81, 0
1, 4224, Note_on_c, 0, 83, 81
1, 4247, Note_on_c, 0, 83, 0
1, 4248, Note_on_c, 0, 81, 81
1, 4271, Note_on_c, 0, 81, 0
1, 4272, Note_on_c, 0, 83, 81
1, 4295, Note_on_c, 0, 83, 0
1, 4296, Note_on_c, 0, 84, 81
1, 4319, Note_on_c, 0, 84, 0
1, 4320, Note_on_c, 0, 86, 81
1, 4320, Note_on_c, 1, 59, 81
1, 4320, Note_on_c, 1, 55, 81
1, 4409, Note_on_c, 0, 86, 0
1, 4409, Note_on_c, 1, 59, 0
1, 4409, Note_on_c, 1, 55, 0
1, 4416, Note_on_c, 0, 71, 81
1, 4416, Note_on_c, 1, 62, 81
1, 4505, Note_on_c, 0, 71, 0
1, 4505, Note_on_c, 1, 62, 0
1, 4512, Note_on_c, 0, 69, 81
1, 4512, Note_on_c, 1, 50, 81
1, 4525, Note_on_c, 0, 69, 0
1, 4526, Note_on_c, 0, 71, 81
1, 4539, Note_on_c, 0, 71, 0
1, 4540, Note_on_c, 0, 69, 81
1, 4553, Note_on_c, 0, 69, 0
1, 4554, Note_on_c, 0, 71, 81
1, 4567, Note_on_c, 0, 71, 0
1, 4568, Note_on_c, 0, 69, 81
1, 4581, Note_on_c, 0, 69, 0
1, 4582, Note_on_c, 0, 67, 81
1, 4594, Note_on_c, 0, 67, 0
1, 4595, Note_on_c, 0, 69, 81
1, 4601, Note_on_c, 1, 50, 0
1, 4607, Note_on_c, 0, 69, 0
1, 4608, Note_on_c, 0, 67, 81
1, 4608, Note_on_c, 1, 55, 81
1, 4697, Note_on_c, 1, 55, 0
1, 4704, Note_on_c, 1, 50, 81
1, 4785, Note_on_c, 0, 67, 0
1, 4793, Note_on_c, 1, 50, 0
1, 4800, Note_on_c, 1, 43, 81
1, 4889, Note_on_c, 1, 43, 0
1, 4896, Note_on_c, 0, 79, 75
1, 4896, Note_on_c, 1, 76, 75
1, 4985, Note_on_c, 0, 79, 0
1, 4992, Note_on_c, 0, 84, 75
1, 5073, Note_on_c, 1, 76, 0
1, 5081, Note_on_c, 0, 84, 0
1, 5088, Note_on_c, 0, 76, 75
1, 5088, Note_on_c, 1, 72, 75
1, 5155, Note_on_c, 0, 76, 0
1, 5160, Note_on_c, 0, 79, 75
1, 5177, Note_on_c, 1, 72, 0
1, 5183, Note_on_c, 0, 79, 0
1, 5184, Note_on_c, 0, 77, 75
1, 5184, Note_on_c, 1, 74, 75
1, 5273, Note_on_c, 0, 77, 0
1, 5273, Note_on_c, 1, 74, 0
1, 5280, Note_on_c, 0, 86, 75
1, 5280, Note_on_c, 1, 71, 75
1, 5369, Note_on_c, 0, 86, 0
1, 5369, Note_on_c, 1, 71, 0
1, 5376, Note_on_c, 0, 74, 75
1, 5376, Note_on_c, 1, 67, 75
1, 5443, Note_on_c, 0, 74, 0
1, 5448, Note_on_c, 0, 77, 75
1, 5465, Note_on_c, 1, 67, 0
1, 5471, Note_on_c, 0, 77, 0
1, 5472, Note_on_c, 0, 76, 75
1, 5472, Note_on_c, 1, 72, 75
1, 5561, Note_on_c, 0, 76, 0
1, 5561, Note_on_c, 1, 72, 0
1, 5568, Note_on_c, 0, 79, 75
1, 5568, Note_on_c, 1, 64, 75
1, 5657, Note_on_c, 0, 79, 0
1, 5657, Note_on_c, 1, 64, 0
1, 5664, Note_on_c, 0, 80, 75
1, 5664, Note_on_c, 1, 65, 75
1, 5731, Note_on_c, 0, 80, 0
1, 5736, Note_on_c, 0, 81, 75
1, 5753, Note_on_c, 1, 65, 0
1, 5759, Note_on_c, 0, 81, 0
1, 5760, Note_on_c, 0, 72, 75
1, 5760, Note_on_c, 1, 67, 75
1, 5849, Note_on_c, 0, 72, 0
1, 5849, Note_on_c, 1, 67, 0
1, 5856, Note_on_c, 0, 71, 75
1, 5856, Note_on_c, 1, 62, 75
1, 5945, Note_on_c, 0, 71, 0
1, 5945, Note_on_c, 1, 62, 0
1, 5952, Note_on_c, 1, 55, 75
1, 6041, Note_on_c, 1, 55, 0
1, 6048, Note_on_c, 0, 60, 81
1, 6048, Note_on_c, 1, 48, 81
1, 6064, Note_on_c, 0, 64, 81
1, 6072, Note_on_c, 1, 52, 81
1, 6080, Note_on_c, 0, 67, 81
1, 6096, Note_on_c, 1, 55, 81
1, 6137, Note_on_c, 0, 67, 0
1, 6137, Note_on_c, 0, 64, 0
1, 6137, Note_on_c, 0, 60, 0
1, 6144, Note_on_c, 0, 72, 81
1, 6167, Note_on_c, 0, 72, 0
1, 6168, Note_on_c, 0, 71, 81
1, 6181, Note_on_c, 1, 55, 0
1, 6181, Note_on_c, 1, 52, 0
1, 6181, Note_on_c, 1, 48, 0
1, 6191, Note_on_c, 0, 71, 0
1, 6192, Note_on_c, 0, 72, 81
1, 6215, Note_on_c, 0, 72, 0
1, 6216, Note_on_c, 0, 74, 81
1, 6239, Note_on_c, 0, 74, 0
1, 6240, Note_on_c, 0, 76, 81
1, 6263, Note_on_c, 0, 76, 0
1, 6264, Note_on_c, 0, 74, 81
1, 6287, Note_on_c, 0, 74, 0
1, 6288, Note_on_c, 0, 76, 81
1, 6311, Note_on_c, 0, 76, 0
1, 6312, Note_on_c, 0, 77, 81
1, 6335, Note_on_c, 0, 77, 0
1, 6336, Note_on_c, 0, 72, 81
1, 6336, Note_on_c, 1, 48, 81
1, 6352, Note_on_c, 0, 76, 81
1, 6354, Note_on_c, 1, 52, 81
1, 6368, Note_on_c, 0, 79, 81
1, 6372, Note_on_c, 1, 55, 81
1, 6390, Note_on_c, 1, 60, 81
1, 6425, Note_on_c, 0, 79, 0
1, 6425, Note_on_c, 0, 76, 0
1, 6425, Note_on_c, 0, 72, 0
1, 6432, Note_on_c, 0, 72, 81
1, 6469, Note_on_c, 1, 60, 0
1, 6469, Note_on_c, 1, 55, 0
1, 6469, Note_on_c, 1, 52, 0
1, 6469, Note_on_c, 1, 48, 0
1, 6477, Note_on_c, 0, 72, 0
1, 6480, Note_on_c, 0, 74, 81
1, 6503, Note_on_c, 0, 74, 0
1, 6504, Note_on_c, 0, 76, 81
1, 6527, Note_on_c, 0, 76, 0
1, 6528, Note_on_c, 0, 77, 81
1, 6551, Note_on_c, 0, 77, 0
1, 6552, Note_on_c, 0, 79, 81
1, 6575, Note_on_c, 0, 79, 0
1, 6576, Note_on_c, 0, 81, 81
1, 6599, Note_on_c, 0, 81, 0
1, 6600, Note_on_c, 0, 83, 81
1, 6623, Note_on_c, 0, 83, 0
1, 6624, Note_on_c, 0, 84, 81
1, 6624, Note_on_c, 1, 52, 81
1, 6713, Note_on_c, 0, 84, 0
1, 6713, Note_on_c, 1, 52, 0
1, 6720, Note_on_c, 0, 76, 81
1, 6720, Note_on_c, 0, 72, 81
1, 6720, Note_on_c, 1, 55, 81
1, 6809, Note_on_c, 0, 76, 0
1, 6809, Note_on_c, 0, 72, 0
1, 6809, Note_on_c, 1, 55, 0
1, 6816, Note_on_c, 0, 74, 81
1, 6816, Note_on_c, 0, 71, 81
1, 6816, Note_on_c, 1, 43, 81
1, 6905, Note_on_c, 0, 74, 0
1, 6905, Note_on_c, 0, 71, 0
1, 6905, Note_on_c, 1, 43, 0
1, 6912, Note_on_c, 0, 72, 81
1, 6912, Note_on_c, 0, 67, 81
1, 6912, Note_on_c, 0, 64, 81
1, 6912, Note_on_c, 1, 48, 81
1, 7001, Note_on_c, 1, 48, 0
1, 7008, Note_on_c, 1, 43, 81
1, 7097, Note_on_c, 1, 43, 0
1, 7104, Note_on_c, 1, 36, 81
1, 7171, Note_on_c, 1, 36, 0
1, 7177, Note_on_c, 0, 72, 0
1, 7177, Note_on_c, 0, 67, 0
1, 7177, Note_on_c, 0, 64, 0
1, 7200, Note_on_c, 0, 79, 75
1, 7200, Note_on_c, 1, 76, 75
1, 7289, Note_on_c, 0, 79, 0
1, 7296, Note_on_c, 0, 84, 75
1, 7377, Note_on_c, 1, 76, 0
1, 7385, Note_on_c, 0, 84, 0
1, 7392, Note_on_c, 0, 76, 75
1, 7392, Note_on_c, 1, 72, 75
1, 7459, Note_on_c, 0, 76, 0
1, 7464, Note_on_c, 0, 79, 75
1, 7481, Note_on_c, 1, 72, 0
1, 7487, Note_on_c, 0, 79, 0
1, 7488, Note_on_c, 0, 77, 75
1, 7488, Note_on_c, 1, 74, 75
1, 7577, Note_on_c, 0, 77, 0
1, 7577, Note_on_c, 1, 74, 0
1, 7584, Note_on_c, 0, 86, 75
1, 7584, Note_on_c, 1, 71, 75
1, 7673, Note_on_c, 0, 86, 0
1, 7673, Note_on_c, 1, 71, 0
1, 7680, Note_on_c, 0, 74, 75
1, 7680, Note_on_c, 1, 67, 75
1, 7747, Note_on_c, 0, 74, 0
1, 7752, Note_on_c, 0, 77, 75
1, 7769, Note_on_c, 1, 67, 0
1, 7775, Note_on_c, 0, 77, 0
1, 7776, Note_on_c, 0, 76, 75
1, 7776, Note_on_c, 1, 72, 75
1, 7865, Note_on_c, 0, 76, 0
1, 7865, Note_on_c, 1, 72, 0
1, 7872, Note_on_c, 0, 79, 75
1, 7872, Note_on_c, 1, 64, 75
1, 7961, Note_on_c, 0, 79, 0
1, 7961, Note_on_c, 1, 64, 0
1, 7968, Note_on_c, 0, 80, 75
1, 7968, Note_on_c, 1, 65, 75
1, 8035, Note_on_c, 0, 80, 0
1, 8040, Note_on_c, 0, 81, 75
1, 8057, Note_on_c, 1, 65, 0
1, 8063, Note_on_c, 0, 81, 0
1, 8064, Note_on_c, 0, 72, 75
1, 8064, Note_on_c, 1, 67, 75
1, 8153, Note_on_c, 0, 72, 0
1, 8153, Note_on_c, 1, 67, 0
1, 8160, Note_on_c, 0, 71, 75
1, 8160, Note_on_c, 1, 62, 75
1, 8249, Note_on_c, 0, 71, 0
1, 8249, Note_on_c, 1, 62, 0
1, 8256, Note_on_c, 1, 55, 75
1, 8345, Note_on_c, 1, 55, 0
1, 8352, Note_on_c, 0, 60, 81
1, 8352, Note_on_c, 1, 48, 81
1, 8368, Note_on_c, 0, 64, 81
1, 8376, Note_on_c, 1, 52, 81
1, 8384, Note_on_c, 0, 67, 81
1, 8400, Note_on_c, 1, 55, 81
1, 8441, Note_on_c, 0, 67, 0
1, 8441, Note_on_c, 0, 64, 0
1, 8441, Note_on_c, 0, 60, 0
1, 8448, Note_on_c, 0, 72, 81
1, 8471, Note_on_c, 0, 72, 0
1, 8472, Note_on_c, 0, 71, 81
1, 8485, Note_on_c, 1, 55, 0
1, 8485, Note_on_c, 1, 52, 0
1, 8485, Note_on_c, 1, 48, 0
1, 8495, Note_on_c, 0, 71, 0
1, 8496, Note_on_c, 0, 72, 81
1, 8519, Note_on_c, 0, 72, 0
1, 8520, Note_on_c, 0, 74, 81
1, 8543, Note_on_c, 0, 74, 0
1, 8544, Note_on_c, 0, 76, 81
1, 8567, Note_on_c, 0, 76, 0
1, 8568, Note_on_c, 0, 74, 81
1, 8591, Note_on_c, 0, 74, 0
1, 8592, Note_on_c, 0, 76, 81
1, 8615, Note_on_c, 0, 76, 0
1, 8616, Note_on_c, 0, 77, 81
1, 8639, Note_on_c, 0, 77, 0
1, 8640, Note_on_c, 0, 72, 81
1, 8640, Note_on_c, 1, 48, 81
1, 8656, Note_on_c, 0, 76, 81
1, 8658, Note_on_c, 1, 52, 81
1, 8672, Note_on_c, 0, 79, 81
1, 8676, Note_on_c, 1, 55, 81
1, 8694, Note_on_c, 1, 60, 81
1, 8729, Note_on_c, 0, 79, 0
1, 8729, Note_on_c, 0, 76, 0
1, 8729, Note_on_c, 0, 72, 0
1, 8736, Note_on_c, 0, 72, 81
1, 8773, Note_on_c, 1, 60, 0
1, 8773, Note_on_c, 1, 55, 0
1, 8773, Note_on_c, 1, 52, 0
1, 8773, Note_on_c, 1, 48, 0
1, 8781, Note_on_c, 0, 72, 0
1, 8784, Note_on_c, 0, 74, 81
1, 8807, Note_on_c, 0, 74, 0
1, 8808, Note_on_c, 0, 76, 81
1, 8831, Note_on_c, 0, 76, 0
1, 8832, Note_on_c, 0, 77, 81
1, 8855, Note_on_c, 0, 77, 0
1, 8856, Note_on_c, 0, 79, 81
1, 8879, Note_on_c, 0, 79, 0
1, 8880, Note_on_c, 0, 81, 81
1, 8903, Note_on_c, 0, 81, 0
1, 8904, Note_on_c, 0, 83, 81
1, 8927, Note_on_c, 0, 83, 0
1, 8928, Note_on_c, 0, 84, 81
1, 8928, Note_on_c, 1, 52, 81
1, 9017, Note_on_c, 0, 84, 0
1, 9017, Note_on_c, 1, 52, 0
1, 9024, Note_on_c, 0, 76, 81
1, 9024, Note_on_c, 0, 72, 81
1, 9024, Note_on_c, 1, 55, 81
1, 9113, Note_on_c, 0, 76, 0
1, 9113, Note_on_c, 0, 72, 0
1, 9113, Note_on_c, 1, 55, 0
1, 9120, Note_on_c, 0, 74, 81
1, 9120, Note_on_c, 0, 71, 81
1, 9120, Note_on_c, 1, 43, 81
1, 9209, Note_on_c, 0, 74, 0
1, 9209, Note_on_c, 0, 71, 0
1, 9209, Note_on_c, 1, 43, 0
1, 9216, Note_on_c, 0, 72, 81
1, 9216, Note_on_c, 0, 67, 81
1, 9216, Note_on_c, 0, 64, 81
1, 9216, Note_on_c, 1, 48, 81
1, 9305, Note_on_c, 1, 48, 0
1, 9312, Note_on_c, 1, 43, 81
1, 9401, Note_on_c, 1, 43, 0
1, 9408, Note_on_c, 1, 36, 81
1, 9475, Note_on_c, 1, 36, 0
1, 9481, Note_on_c, 0, 72, 0
1, 9481, Note_on_c, 0, 67, 0
1, 9481, Note_on_c, 0, 64, 0
1, 9504, Note_on_c, 1, 36, 69
1, 9552, Note_on_c, 0, 67, 69
1, 9593, Note_on_c, 1, 36, 0
1, 9597, Note_on_c, 0, 67, 0
1, 9600, Note_on_c, 1, 55, 75
1, 9600, Note_on_c, 1, 51, 75
1, 9648, Note_on_c, 0, 67, 69
1, 9689, Note_on_c, 1, 55, 0
1, 9689, Note_on_c, 1, 51, 0
1, 9693, Note_on_c, 0, 67, 0
1, 9696, Note_on_c, 1, 53, 75
1, 9696, Note_on_c, 1, 50, 75
1, 9744, Note_on_c, 0, 67, 69
1, 9785, Note_on_c, 1, 53, 0
1, 9785, Note_on_c, 1, 50, 0
1, 9789, Note_on_c, 0, 67, 0
1, 9792, Note_on_c, 1, 51, 75
1, 9792, Note_on_c, 1, 48, 75
1, 9840, Note_on_c, 0, 79, 75
1, 9840, Note_on_c, 0, 75, 75
1, 9860, Note_on_c, 0, 79, 0
1, 9860, Note_on_c, 0, 75, 0
1, 9881, Note_on_c, 1, 51, 0
1, 9881, Note_on_c, 1, 48, 0
1, 9888, Note_on_c, 0, 79, 75
1, 9888, Note_on_c, 0, 75, 75
1, 9936, Note_on_c, 0, 79, 0
1, 9936, Note_on_c, 0, 75, 0
1, 9936, Note_on_c, 0, 77, 75
1, 9936, Note_on_c, 0, 74, 75
1, 9981, Note_on_c, 0, 77, 0
1, 9981, Note_on_c, 0, 74, 0
1, 9984, Note_on_c, 0, 77, 75
1, 9984, Note_on_c, 0, 74, 75
1, 10032, Note_on_c, 0, 77, 0
1, 10032, Note_on_c, 0, 74, 0
1, 10032, Note_on_c, 0, 75, 75
1, 10032, Note_on_c, 0, 72, 75
1, 10077, Note_on_c, 0, 75, 0
1, 10077, Note_on_c, 0, 72, 0
1, 10080, Note_on_c, 1, 55, 69
1, 10128, Note_on_c, 0, 67, 69
1, 10169, Note_on_c, 1, 55, 0
1, 10173, Note_on_c, 0, 67, 0
1, 10176, Note_on_c, 1, 62, 75
1, 10176, Note_on_c, 1, 59, 75
1, 10224, Note_on_c, 0, 67, 69
1, 10265, Note_on_c, 1, 62, 0
1, 10265, Note_on_c, 1, 59, 0
1, 10269, Note_on_c, 0, 67, 0
1, 10272, Note_on_c, 1, 60, 75
1, 10272, Note_on_c, 1, 57, 75
1, 10320, Note_on_c, 0, 67, 69
1, 10361, Note_on_c, 1, 60, 0
1, 10361, Note_on_c, 1, 57, 0
1, 10365, Note_on_c, 0, 67, 0
1, 10368, Note_on_c, 1, 59, 75
1, 10368, Note_on_c, 1, 55, 75
1, 10416, Note_on_c, 0, 77, 75
1, 10416, Note_on_c, 0, 74, 75
1, 10436, Note_on_c, 0, 77, 0
1, 10436, Note_on_c, 0, 74, 0
1, 10457, Note_on_c, 1, 59, 0
1, 10457, Note_on_c, 1, 55, 0
1, 10464, Note_on_c, 0, 77, 75
1, 10464, Note_on_c, 0, 74, 75
1, 10512, Note_on_c, 0, 77, 0
1, 10512, Note_on_c, 0, 74, 0
1, 10512, Note_on_c, 0, 75, 75
1, 10512, Note_on_c, 0, 72, 75
1, 10557, Note_on_c, 0, 75, 0
1, 10557, Note_on_c, 0, 72, 0
1, 10560, Note_on_c, 0, 75, 75
1, 10560, Note_on_c, 0, 72, 75
1, 10608, Note_on_c, 0, 75, 0
1, 10608, Note_on_c, 0, 72, 0
1, 10608, Note_on_c, 0, 74, 75
1, 10608, Note_on_c, 0, 71, 75
1, 10653, Note_on_c, 0, 74, 0
1, 10653, Note_on_c, 0, 71, 0
1, 10656, Note_on_c, 1, 60, 75
1, 10680, Note_on_c, 0, 72, 75
1, 10703, Note_on_c, 0, 72, 0
1, 10704, Note_on_c, 0, 75, 75
1, 10727, Note_on_c, 0, 75, 0
1, 10728, Note_on_c, 0, 72, 75
1, 10745, Note_on_c, 1, 60, 0
1, 10751, Note_on_c, 0, 72, 0
1, 10752, Note_on_c, 1, 63, 75
1, 10776, Note_on_c, 0, 72, 75
1, 10799, Note_on_c, 0, 72, 0
1, 10800, Note_on_c, 0, 75, 75
1, 10823, Note_on_c, 0, 75, 0
1, 10824, Note_on_c, 0, 72, 75
1, 10841, Note_on_c, 1, 63, 0
1, 10847, Note_on_c, 0, 72, 0
1, 10848, Note_on_c, 1, 60, 75
1, 10872, Note_on_c, 0, 72, 75
1, 10895, Note_on_c, 0, 72, 0
1, 10896, Note_on_c, 0, 75, 75
1, 10919, Note_on_c, 0, 75, 0
1, 10920, Note_on_c, 0, 72, 75
1, 10937, Note_on_c, 1, 60, 0
1, 10943, Note_on_c, 0, 72, 0
1, 10944, Note_on_c, 1, 54, 75
1, 10992, Note_on_c, 0, 84, 75
1, 10992, Note_on_c, 0, 81, 75
1, 11012, Note_on_c, 0, 84, 0
1, 11012, Note_on_c, 0, 81, 0
1, 11040, Note_on_c, 0, 84, 75
1, 11040, Note_on_c, 0, 81, 75
1, 11088, Note_on_c, 0, 84, 0
1, 11088, Note_on_c, 0, 81, 0
1, 11088, Note_on_c, 0, 82, 75
1, 11088, Note_on_c, 0, 79, 75
1, 11121, Note_on_c, 1, 54, 0
1, 11133, Note_on_c, 0, 82, 0
1, 11133, Note_on_c, 0, 79, 0
1, 11136, Note_on_c, 0, 82, 75
1, 11136, Note_on_c, 0, 79, 75
1, 11184, Note_on_c, 0, 82, 0
1, 11184, Note_on_c, 0, 79, 0
1, 11184, Note_on_c, 0, 81, 75
1, 11184, Note_on_c, 0, 78, 75
1, 11229, Note_on_c, 0, 81, 0
1, 11229, Note_on_c, 0, 78, 0
1, 11232, Note_on_c, 0, 82, 75
1, 11232, Note_on_c, 0, 79, 75
1, 11232, Note_on_c, 1, 55, 75
1, 11321, Note_on_c, 0, 82, 0
1, 11321, Note_on_c, 0, 79, 0
1, 11321, Note_on_c, 1, 55, 0
1, 11328, Note_on_c, 0, 79, 75
1, 11328, Note_on_c, 0, 70, 75
1, 11328, Note_on_c, 1, 62, 75
1, 11417, Note_on_c, 0, 79, 0
1, 11417, Note_on_c, 0, 70, 0
1, 11417, Note_on_c, 1, 62, 0
1, 11424, Note_on_c, 0, 78, 75
1, 11424, Note_on_c, 0, 69, 75
1, 11424, Note_on_c, 1, 50, 75
1, 11513, Note_on_c, 0, 78, 0
1, 11513, Note_on_c, 0, 69, 0
1, 11513, Note_on_c, 1, 50, 0
1, 11520, Note_on_c, 0, 79, 75
1, 11520, Note_on_c, 0, 70, 75
1, 11520, Note_on_c, 1, 55, 75
1, 11565, Note_on_c, 1, 55, 0
1, 11568, Note_on_c, 1, 43, 74
1, 11609, Note_on_c, 0, 79, 0
1, 11609, Note_on_c, 0, 70, 0
1, 11613, Note_on_c, 1, 43, 0
1, 11616, Note_on_c, 1, 55, 73
1, 11661, Note_on_c, 1, 55, 0
1, 11664, Note_on_c, 1, 53, 72
1, 11709, Note_on_c, 1, 53, 0
1, 11712, Note_on_c, 1, 51, 71
1, 11757, Note_on_c, 1, 51, 0
1, 11760, Note_on_c, 1, 50, 70
1, 11805, Note_on_c, 1, 50, 0
1, 11808, Note_on_c, 1, 36, 69
1, 11856, Note_on_c, 0, 67, 69
1, 11897, Note_on_c, 1, 36, 0
1, 11901, Note_on_c, 0, 67, 0
1, 11904, Note_on_c, 1, 55, 75
1, 11904, Note_on_c, 1, 51, 75
1, 11952, Note_on_c, 0, 67, 69
1, 11993, Note_on_c, 1, 55, 0
1, 11993, Note_on_c, 1, 51, 0
1, 11997, Note_on_c, 0, 67, 0
1, 12000, Note_on_c, 1, 53, 75
1, 12000, Note_on_c, 1, 50, 75
1, 12048, Note_on_c, 0, 67, 69
1, 12089, Note_on_c, 1, 53, 0
1, 12089, Note_on_c, 1, 50, 0
1, 12093, Note_on_c, 0, 67, 0
1, 12096, Note_on_c, 1, 51, 75
1, 12096, Note_on_c, 1, 48, 75
1, 12144, Note_on_c, 0, 79, 75
1, 12144, Note_on_c, 0, 75, 75
1, 12164, Note_on_c, 0, 79, 0
1, 12164, Note_on_c, 0, 75, 0
1, 12185, Note_on_c, 1, 51, 0
1, 12185, Note_on_c, 1, 48, 0
1, 12192, Note_on_c, 0, 79, 75
1, 12192, Note_on_c, 0, 75, 75
1, 12240, Note_on_c, 0, 79, 0
1, 12240, Note_on_c, 0, 75, 0
1, 12240, Note_on_c, 0, 77, 75
1, 12240, Note_on_c, 0, 74, 75
1, 12285, Note_on_c, 0, 77, 0
1, 12285, Note_on_c, 0, 74, 0
1, 12288, Note_on_c, 0, 77, 75
1, 12288, Note_on_c, 0, 74, 75
1, 12336, Note_on_c, 0, 77, 0
1, 12336, Note_on_c, 0, 74, 0
1, 12336, Note_on_c, 0, 75, 75
1, 12336, Note_on_c, 0, 72, 75
1, 12381, Note_on_c, 0, 75, 0
1, 12381, Note_on_c, 0, 72, 0
1, 12384, Note_on_c, 1, 55, 69
1, 12432, Note_on_c, 0, 67, 69
1, 12473, Note_on_c, 1, 55, 0
1, 12477, Note_on_c, 0, 67, 0
1, 12480, Note_on_c, 1, 62, 75
1, 12480, Note_on_c, 1, 59, 75
1, 12528, Note_on_c, 0, 67, 69
1, 12569, Note_on_c, 1, 62, 0
1, 12569, Note_on_c, 1, 59, 0
1, 12573, Note_on_c, 0, 67, 0
1, 12576, Note_on_c, 1, 60, 75
1, 12576, Note_on_c, 1, 57, 75
1, 12624, Note_on_c, 0, 67, 69
1, 12665, Note_on_c, 1, 60, 0
1, 12665, Note_on_c, 1, 57, 0
1, 12669, Note_on_c, 0, 67, 0
1, 12672, Note_on_c, 1, 59, 75
1, 12672, Note_on_c, 1, 55, 75
1, 12720, Note_on_c, 0, 77, 75
1, 12720, Note_on_c, 0, 74, 75
1, 12740, Note_on_c, 0, 77, 0
1, 12740, Note_on_c, 0, 74, 0
1, 12761, Note_on_c, 1, 59, 0
1, 12761, Note_on_c, 1, 55, 0
1, 12768, Note_on_c, 0, 77, 75
1, 12768, Note_on_c, 0, 74, 75
1, 12816, Note_on_c, 0, 77, 0
1, 12816, Note_on_c, 0, 74, 0
1, 12816, Note_on_c, 0, 75, 75
1, 12816, Note_on_c, 0, 72, 75
1, 12861, Note_on_c, 0, 75, 0
1, 12861, Note_on_c, 0, 72, 0
1, 12864, Note_on_c, 0, 75, 75
1, 12864, Note_on_c, 0, 72, 75
1, 12912, Note_on_c, 0, 75, 0
1, 12912, Note_on_c, 0, 72, 0
1, 12912, Note_on_c, 0, 74, 75
1, 12912, Note_on_c, 0, 71, 75
1, 12957, Note_on_c, 0, 74, 0
1, 12957, Note_on_c, 0, 71, 0
1, 12960, Note_on_c, 1, 60, 75
1, 12984, Note_on_c, 0, 72, 75
1, 13007, Note_on_c, 0, 72, 0
1, 13008, Note_on_c, 0, 75, 75
1, 13031, Note_on_c, 0, 75, 0
1, 13032, Note_on_c, 0, 72, 75
1, 13049, Note_on_c, 1, 60, 0
1, 13055, Note_on_c, 0, 72, 0
1, 13056, Note_on_c, 1, 63, 75
1, 13080, Note_on_c, 0, 72, 75
1, 13103, Note_on_c, 0, 72, 0
1, 13104, Note_on_c, 0, 75, 75
1, 13127, Note_on_c, 0, 75, 0
1, 13128, Note_on_c, 0, 72, 75
1, 13145, Note_on_c, 1, 63, 0
1, 13151, Note_on_c, 0, 72, 0
1, 13152, Note_on_c, 1, 60, 75
1, 13176, Note_on_c, 0, 72, 75
1, 13199, Note_on_c, 0, 72, 0
1, 13200, Note_on_c, 0, 75, 75
1, 13223, Note_on_c, 0, 75, 0
1, 13224, Note_on_c, 0, 72, 75
1, 13241, Note_on_c, 1, 60, 0
1, 13247, Note_on_c, 0, 72, 0
1, 13248, Note_on_c, 1, 54, 75
1, 13296, Note_on_c, 0, 84, 75
1, 13296, Note_on_c, 0, 81, 75
1, 13316, Note_on_c, 0, 84, 0
1, 13316, Note_on_c, 0, 81, 0
1, 13344, Note_on_c, 0, 84, 75
1, 13344, Note_on_c, 0, 81, 75
1, 13392, Note_on_c, 0, 84, 0
1, 13392, Note_on_c, 0, 81, 0
1, 13392, Note_on_c, 0, 82, 75
1, 13392, Note_on_c, 0, 79, 75
1, 13425, Note_on_c, 1, 54, 0
1, 13437, Note_on_c, 0, 82, 0
1, 13437, Note_on_c, 0, 79, 0
1, 13440, Note_on_c, 0, 82, 75
1, 13440, Note_on_c, 0, 79, 75
1, 13488, Note_on_c, 0, 82, 0
1, 13488, Note_on_c, 0, 79, 0
1, 13488, Note_on_c, 0, 81, 75
1, 13488, Note_on_c, 0, 78, 75
1, 13533, Note_on_c, 0, 81, 0
1, 13533, Note_on_c, 0, 78, 0
1, 13536, Note_on_c, 0, 82, 75
1, 13536, Note_on_c, 0, 79, 75
1, 13536, Note_on_c, 1, 55, 75
1, 13625, Note_on_c, 0, 82, 0
1, 13625, Note_on_c, 0, 79, 0
1, 13625, Note_on_c, 1, 55, 0
1, 13632, Note_on_c, 0, 79, 75
1, 13632, Note_on_c, 0, 70, 75
1, 13632, Note_on_c, 1, 62, 75
1, 13721, Note_on_c, 0, 79, 0
1, 13721, Note_on_c, 0, 70, 0
1, 13721, Note_on_c, 1, 62, 0
1, 13728, Note_on_c, 0, 78, 75
1, 13728, Note_on_c, 0, 69, 75
1, 13728, Note_on_c, 1, 50, 75
1, 13817, Note_on_c, 0, 78, 0
1, 13817, Note_on_c, 0, 69, 0
1, 13817, Note_on_c, 1, 50, 0
1, 13824, Note_on_c, 0, 79, 75
1, 13824, Note_on_c, 0, 70, 75
1, 13824, Note_on_c, 1, 55, 75
1, 13869, Note_on_c, 1, 55, 0
1, 13872, Note_on_c, 1, 43, 74
1, 13913, Note_on_c, 0, 79, 0
1, 13913, Note_on_c, 0, 70, 0
1, 13917, Note_on_c, 1, 43, 0
1, 13920, Note_on_c, 1, 55, 73
1, 13965, Note_on_c, 1, 55, 0
1, 13968, Note_on_c, 1, 53, 72
1, 14013, Note_on_c, 1, 53, 0
1, 14016, Note_on_c, 1, 51, 71
1, 14061, Note_on_c, 1, 51, 0
1, 14064, Note_on_c, 1, 50, 70
1, 14109, Note_on_c, 1, 50, 0
1, 14112, Note_on_c, 1, 48, 69
1, 14160, Note_on_c, 0, 72, 69
1, 14201, Note_on_c, 1, 48, 0
1, 14205, Note_on_c, 0, 72, 0
1, 14208, Note_on_c, 1, 64, 75
1, 14208, Note_on_c, 1, 60, 75
1, 14256, Note_on_c, 0, 72, 69
1, 14297, Note_on_c, 1, 64, 0
1, 14297, Note_on_c, 1, 60, 0
1, 14301, Note_on_c, 0, 72, 0
1, 14304, Note_on_c, 1, 65, 75
1, 14304, Note_on_c, 1, 62, 75
1, 14352, Note_on_c, 0, 72, 69
1, 14393, Note_on_c, 1, 65, 0
1, 14393, Note_on_c, 1, 62, 0
1, 14397, Note_on_c, 0, 72, 0
1, 14400, Note_on_c, 0, 72, 75
1, 14400, Note_on_c, 1, 67, 75
1, 14400, Note_on_c, 1, 64, 75
1, 14423, Note_on_c, 0, 72, 0
1, 14424, Note_on_c, 0, 74, 75
1, 14447, Note_on_c, 0, 74, 0
1, 14448, Note_on_c, 0, 76, 75
1, 14471, Note_on_c, 0, 76, 0
1, 14472, Note_on_c, 0, 77, 75
1, 14489, Note_on_c, 1, 67, 0
1, 14489, Note_on_c, 1, 64, 0
1, 14495, Note_on_c, 0, 77, 0
1, 14496, Note_on_c, 0, 79, 75
1, 14519, Note_on_c, 0, 79, 0
1, 14520, Note_on_c, 0, 80, 75
1, 14543, Note_on_c, 0, 80, 0
1, 14544, Note_on_c, 0, 82, 75
1, 14567, Note_on_c, 0, 82, 0
1, 14568, Note_on_c, 0, 84, 75
1, 14591, Note_on_c, 0, 84, 0
1, 14592, Note_on_c, 0, 80, 75
1, 14592, Note_on_c, 1, 65, 75
1, 14681, Note_on_c, 0, 80, 0
1, 14681, Note_on_c, 1, 65, 0
1, 14688, Note_on_c, 1, 50, 75
1, 14736, Note_on_c, 0, 74, 75
1, 14777, Note_on_c, 1, 50, 0
1, 14781, Note_on_c, 0, 74, 0
1, 14784, Note_on_c, 1, 66, 81
1, 14784, Note_on_c, 1, 62, 81
1, 14832, Note_on_c, 0, 74, 75
1, 14873, Note_on_c, 1, 66, 0
1, 14873, Note_on_c, 1, 62, 0
1, 14877, Note_on_c, 0, 74, 0
1, 14880, Note_on_c, 1, 67, 81
1, 14880, Note_on_c, 1, 64, 81
1, 14928, Note_on_c, 0, 74, 75
1, 14969, Note_on_c, 1, 67, 0
1, 14969, Note_on_c, 1, 64, 0
1, 14973, Note_on_c, 0, 74, 0
1, 14976, Note_on_c, 0, 74, 75
1, 14976, Note_on_c, 1, 69, 81
1, 14976, Note_on_c, 1, 66, 81
1, 14999, Note_on_c, 0, 74, 0
1, 15000, Note_on_c, 0, 76, 81
1, 15023, Note_on_c, 0, 76, 0
1, 15024, Note_on_c, 0, 78, 81
1, 15047, Note_on_c, 0, 78, 0
1, 15048, Note_on_c, 0, 79, 81
1, 15065, Note_on_c, 1, 69, 0
1, 15065, Note_on_c, 1, 66, 0
1, 15071, Note_on_c, 0, 79, 0
1, 15072, Note_on_c, 0, 81, 81
1, 15095, Note_on_c, 0, 81, 0
1, 15096, Note_on_c, 0, 82, 81
1, 15119, Note_on_c, 0, 82, 0
1, 15120, Note_on_c, 0, 84, 81
1, 15143, Note_on_c, 0, 84, 0
1, 15144, Note_on_c, 0, 86, 81
1, 15167, Note_on_c, 0, 86, 0
1, 15168, Note_on_c, 0, 82, 81
1, 15168, Note_on_c, 1, 67, 75
1, 15257, Note_on_c, 0, 82, 0
1, 15257, Note_on_c, 1, 67, 0
1, 15264, Note_on_c, 1, 48, 69
1, 15312, Note_on_c, 0, 67, 69
1, 15353, Note_on_c, 1, 48, 0
1, 15357, Note_on_c, 0, 67, 0
1, 15360, Note_on_c, 1, 55, 75
1, 15360, Note_on_c, 1, 51, 75
1, 15408, Note_on_c, 0, 67, 69
1, 15449, Note_on_c, 1, 55, 0
1, 15449, Note_on_c, 1, 51, 0
1, 15453, Note_on_c, 0, 67, 0
1, 15456, Note_on_c, 1, 53, 75
1, 15456, Note_on_c, 1, 50, 75
1, 15504, Note_on_c, 0, 67, 69
1, 15545, Note_on_c, 1, 53, 0
1, 15545, Note_on_c, 1, 50, 0
1, 15549, Note_on_c, 0, 67, 0
1, 15552, Note_on_c, 1, 51, 75
1, 15552, Note_on_c, 1, 48, 75
1, 15600, Note_on_c, 0, 79, 75
1, 15600, Note_on_c, 0, 75, 75
1, 15620, Note_on_c, 0, 79, 0
1, 15620, Note_on_c, 0, 75, 0
1, 15641, Note_on_c, 1, 51, 0
1, 15641, Note_on_c, 1, 48, 0
1, 15648, Note_on_c, 0, 79, 75
1, 15648, Note_on_c, 0, 75, 75
1, 15696, Note_on_c, 0, 79, 0
1, 15696, Note_on_c, 0, 75, 0
1, 15696, Note_on_c, 0, 77, 75
1, 15696, Note_on_c, 0, 74, 75
1, 15741, Note_on_c, 0, 77, 0
1, 15741, Note_on_c, 0, 74, 0
1, 15744, Note_on_c, 0, 77, 75
1, 15744, Note_on_c, 0, 74, 75
1, 15792, Note_on_c, 0, 77, 0
1, 15792, Note_on_c, 0, 74, 0
1, 15792, Note_on_c, 0, 75, 75
1, 15792, Note_on_c, 0, 72, 75
1, 15837, Note_on_c, 0, 75, 0
1, 15837, Note_on_c, 0, 72, 0
1, 15840, Note_on_c, 1, 55, 69
1, 15888, Note_on_c, 0, 67, 69
1, 15929, Note_on_c, 1, 55, 0
1, 15933, Note_on_c, 0, 67, 0
1, 15936, Note_on_c, 1, 62, 69
1, 15936, Note_on_c, 1, 59, 69
1, 15984, Note_on_c, 0, 67, 69
1, 16025, Note_on_c, 1, 62, 0
1, 16025, Note_on_c, 1, 59, 0
1, 16029, Note_on_c, 0, 67, 0
1, 16032, Note_on_c, 1, 60, 69
1, 16032, Note_on_c, 1, 57, 69
1, 16080, Note_on_c, 0, 67, 69
1, 16121, Note_on_c, 1, 60, 0
1, 16121, Note_on_c, 1, 57, 0
1, 16125, Note_on_c, 0, 67, 0
1, 16128, Note_on_c, 1, 59, 69
1, 16128, Note_on_c, 1, 55, 69
1, 16176, Note_on_c, 0, 77, 75
1, 16176, Note_on_c, 0, 74, 75
1, 16196, Note_on_c, 0, 77, 0
1, 16196, Note_on_c, 0, 74, 0
1, 16217, Note_on_c, 1, 59, 0
1, 16217, Note_on_c, 1, 55, 0
1, 16224, Note_on_c, 0, 77, 75
1, 16224, Note_on_c, 0, 74, 75
1, 16272, Note_on_c, 0, 77, 0
1, 16272, Note_on_c, 0, 74, 0
1, 16272, Note_on_c, 0, 75, 75
1, 16272, Note_on_c, 0, 72, 75
1, 16317, Note_on_c, 0, 75, 0
1, 16317, Note_on_c, 0, 72, 0
1, 16320, Note_on_c, 0, 75, 75
1, 16320, Note_on_c, 0, 72, 75
1, 16368, Note_on_c, 0, 75, 0
1, 16368, Note_on_c, 0, 72, 0
1, 16368, Note_on_c, 0, 74, 75
1, 16368, Note_on_c, 0, 71, 75
1, 16413, Note_on_c, 0, 74, 0
1, 16413, Note_on_c, 0, 71, 0
1, 16416, Note_on_c, 1, 60, 69
1, 16440, Note_on_c, 0, 72, 75
1, 16463, Note_on_c, 0, 72, 0
1, 16464, Note_on_c, 0, 75, 75
1, 16487, Note_on_c, 0, 75, 0
1, 16488, Note_on_c, 0, 72, 75
1, 16505, Note_on_c, 1, 60, 0
1, 16511, Note_on_c, 0, 72, 0
1, 16512, Note_on_c, 1, 63, 69
1, 16536, Note_on_c, 0, 72, 75
1, 16559, Note_on_c, 0, 72, 0
1, 16560, Note_on_c, 0, 75, 75
1, 16583, Note_on_c, 0, 75, 0
1, 16584, Note_on_c, 0, 72, 75
1, 16601, Note_on_c, 1, 63, 0
1, 16607, Note_on_c, 0, 72, 0
1, 16608, Note_on_c, 1, 60, 69
1, 16632, Note_on_c, 0, 72, 75
1, 16655, Note_on_c, 0, 72, 0
1, 16656, Note_on_c, 0, 75, 75
1, 16679, Note_on_c, 0, 75, 0
1, 16680, Note_on_c, 0, 72, 75
1, 16697, Note_on_c, 1, 60, 0
1, 16703, Note_on_c, 0, 72, 0
1, 16704, Note_on_c, 1, 59, 69
1, 16752, Note_on_c, 0, 80, 75
1, 16752, Note_on_c, 0, 77, 75
1, 16772, Note_on_c, 0, 80, 0
1, 16772, Note_on_c, 0, 77, 0
1, 16800, Note_on_c, 0, 80, 75
1, 16800, Note_on_c, 0, 77, 75
1, 16848, Note_on_c, 0, 80, 0
1, 16848, Note_on_c, 0, 77, 0
1, 16848, Note_on_c, 0, 79, 75
1, 16848, Note_on_c, 0, 75, 75
1, 16881, Note_on_c, 1, 59, 0
1, 16893, Note_on_c, 0, 79, 0
1, 16893, Note_on_c, 0, 75, 0
1, 16896, Note_on_c, 0, 79, 75
1, 16896, Note_on_c, 0, 75, 75
1, 16944, Note_on_c, 0, 79, 0
1, 16944, Note_on_c, 0, 75, 0
1, 16944, Note_on_c, 0, 77, 75
1, 16944, Note_on_c, 0, 74, 75
1, 16989, Note_on_c, 0, 77, 0
1, 16989, Note_on_c, 0, 74, 0
1, 16992, Note_on_c, 0, 75, 75
1, 16992, Note_on_c, 0, 72, 75
1, 16992, Note_on_c, 1, 60, 69
1, 17081, Note_on_c, 0, 75, 0
1, 17081, Note_on_c, 0, 72, 0
1, 17081, Note_on_c, 1, 60, 0
1, 17088, Note_on_c, 0, 72, 75
1, 17088, Note_on_c, 0, 63, 75
1, 17088, Note_on_c, 1, 55, 69
1, 17177, Note_on_c, 0, 72, 0
1, 17177, Note_on_c, 0, 63, 0
1, 17177, Note_on_c, 1, 55, 0
1, 17184, Note_on_c, 0, 71, 75
1, 17184, Note_on_c, 0, 62, 75
1, 17184, Note_on_c, 1, 43, 69
1, 17273, Note_on_c, 0, 71, 0
1, 17273, Note_on_c, 0, 62, 0
1, 17273, Note_on_c, 1, 43, 0
1, 17280, Note_on_c, 0, 72, 75
1, 17280, Note_on_c, 0, 60, 75
1, 17280, Note_on_c, 1, 48, 69
1, 17369, Note_on_c, 0, 72, 0
1, 17369, Note_on_c, 0, 60, 0
1, 17369, Note_on_c, 1, 48, 0
1, 17376, Note_on_c, 1, 55, 69
1, 17421, Note_on_c, 1, 55, 0
1, 17424, Note_on_c, 1, 53, 67
1, 17469, Note_on_c, 1, 53, 0
1, 17472, Note_on_c, 1, 51, 66
1, 17517, Note_on_c, 1, 51, 0
1, 17520, Note_on_c, 1, 50, 64
1, 17565, Note_on_c, 1, 50, 0
1, 17568, Note_on_c, 1, 48, 69
1, 17616, Note_on_c, 0, 72, 69
1, 17657, Note_on_c, 1, 48, 0
1, 17661, Note_on_c, 0, 72, 0
1, 17664, Note_on_c, 1, 64, 75
1, 17664, Note_on_c, 1, 60, 75
1, 17712, Note_on_c, 0, 72, 69
1, 17753, Note_on_c, 1, 64, 0
1, 17753, Note_on_c, 1, 60, 0
1, 17757, Note_on_c, 0, 72, 0
1, 17760, Note_on_c, 1, 65, 75
1, 17760, Note_on_c, 1, 62, 75
1, 17808, Note_on_c, 0, 72, 69
1, 17849, Note_on_c, 1, 65, 0
1, 17849, Note_on_c, 1, 62, 0
1, 17853, Note_on_c, 0, 72, 0
1, 17856, Note_on_c, 0, 72, 75
1, 17856, Note_on_c, 1, 67, 75
1, 17856, Note_on_c, 1, 64, 75
1, 17879, Note_on_c, 0, 72, 0
1, 17880, Note_on_c, 0, 74, 75
1, 17903, Note_on_c, 0, 74, 0
1, 17904, Note_on_c, 0, 76, 75
1, 17927, Note_on_c, 0, 76, 0
1, 17928, Note_on_c, 0, 77, 75
1, 17945, Note_on_c, 1, 67, 0
1, 17945, Note_on_c, 1, 64, 0
1, 17951, Note_on_c, 0, 77, 0
1, 17952, Note_on_c, 0, 79, 75
1, 17975, Note_on_c, 0, 79, 0
1, 17976, Note_on_c, 0, 80, 75
1, 17999, Note_on_c, 0, 80, 0
1, 18000, Note_on_c, 0, 82, 75
1, 18023, Note_on_c, 0, 82, 0
1, 18024, Note_on_c, 0, 84, 75
1, 18047, Note_on_c, 0, 84, 0
1, 18048, Note_on_c, 0, 80, 75
1, 18048, Note_on_c, 1, 65, 75
1, 18137, Note_on_c, 0, 80, 0
1, 18137, Note_on_c, 1, 65, 0
1, 18144, Note_on_c, 1, 50, 75
1, 18192, Note_on_c, 0, 74, 75
1, 18233, Note_on_c, 1, 50, 0
1, 18237, Note_on_c, 0, 74, 0
1, 18240, Note_on_c, 1, 66, 81
1, 18240, Note_on_c, 1, 62, 81
1, 18288, Note_on_c, 0, 74, 75
1, 18329, Note_on_c, 1, 66, 0
1, 18329, Note_on_c, 1, 62, 0
1, 18333, Note_on_c, 0, 74, 0
1, 18336, Note_on_c, 1, 67, 81
1, 18336, Note_on_c, 1, 64, 81
1, 18384, Note_on_c, 0, 74, 75
1, 18425, Note_on_c, 1, 67, 0
1, 18425, Note_on_c, 1, 64, 0
1, 18429, Note_on_c, 0, 74, 0
1, 18432, Note_on_c, 0, 74, 75
1, 18432, Note_on_c, 1, 69, 81
1, 18432, Note_on_c, 1, 66, 81
1, 18455, Note_on_c, 0, 74, 0
1, 18456, Note_on_c, 0, 76, 81
1, 18479, Note_on_c, 0, 76, 0
1, 18480, Note_on_c, 0, 78, 81
1, 18503, Note_on_c, 0, 78, 0
1, 18504, Note_on_c, 0, 79, 81
1, 18521, Note_on_c, 1, 69, 0
1, 18521, Note_on_c, 1, 66, 0
1, 18527, Note_on_c, 0, 79, 0
1, 18528, Note_on_c, 0, 81, 81
1, 18551, Note_on_c, 0, 81, 0
1, 18552, Note_on_c, 0, 82, 81
1, 18575, Note_on_c, 0, 82, 0
1, 18576, Note_on_c, 0, 84, 81
1, 18599, Note_on_c, 0, 84, 0
1, 18600, Note_on_c, 0, 86, 81
1, 18623, Note_on_c, 0, 86, 0
1, 18624, Note_on_c, 0, 82, 81
1, 18624, Note_on_c, 1, 67, 75
1, 18713, Note_on_c, 0, 82, 0
1, 18713, Note_on_c, 1, 67, 0
1, 18720, Note_on_c, 1, 48, 69
1, 18768, Note_on_c, 0, 67, 69
1, 18809, Note_on_c, 1, 48, 0
1, 18813, Note_on_c, 0, 67, 0
1, 18816, Note_on_c, 1, 55, 75
1, 18816, Note_on_c, 1, 51, 75
1, 18864, Note_on_c, 0, 67, 69
1, 18905, Note_on_c, 1, 55, 0
1, 18905, Note_on_c, 1, 51, 0
1, 18909, Note_on_c, 0, 67, 0
1, 18912, Note_on_c, 1, 53, 75
1, 18912, Note_on_c, 1, 50, 75
1, 18960, Note_on_c, 0, 67, 69
1, 19001, Note_on_c, 1, 53, 0
1, 19001, Note_on_c, 1, 50, 0
1, 19005, Note_on_c, 0, 67, 0
1, 19008, Note_on_c, 1, 51, 75
1, 19008, Note_on_c, 1, 48, 75
1, 19056, Note_on_c, 0, 79, 75
1, 19056, Note_on_c, 0, 75, 75
1, 19076, Note_on_c, 0, 79, 0
1, 19076, Note_on_c, 0, 75, 0
1, 19097, Note_on_c, 1, 51, 0
1, 19097, Note_on_c, 1, 48, 0
1, 19104, Note_on_c, 0, 79, 75
1, 19104, Note_on_c, 0, 75, 75
1, 19152, Note_on_c, 0, 79, 0
1, 19152, Note_on_c, 0, 75, 0
1, 19152, Note_on_c, 0, 77, 75
1, 19152, Note_on_c, 0, 74, 75
1, 19197, Note_on_c, 0, 77, 0
1, 19197, Note_on_c, 0, 74, 0
1, 19200, Note_on_c, 0, 77, 75
1, 19200, Note_on_c, 0, 74, 75
1, 19248, Note_on_c, 0, 77, 0
1, 19248, Note_on_c, 0, 74, 0
1, 19248, Note_on_c, 0, 75, 75
1, 19248, Note_on_c, 0, 72, 75
1, 19293, Note_on_c, 0, 75, 0
1, 19293, Note_on_c, 0, 72, 0
1, 19296, Note_on_c, 1, 55, 69
1, 19344, Note_on_c, 0, 67, 69
1, 19385, Note_on_c, 1, 55, 0
1, 19389, Note_on_c, 0, 67, 0
1, 19392, Note_on_c, 1, 62, 69
1, 19392, Note_on_c, 1, 59, 69
1, 19440, Note_on_c, 0, 67, 69
1, 19481, Note_on_c, 1, 62, 0
1, 19481, Note_on_c, 1, 59, 0
1, 19485, Note_on_c, 0, 67, 0
1, 19488, Note_on_c, 1, 60, 69
1, 19488, Note_on_c, 1, 57, 69
1, 19536, Note_on_c, 0, 67, 69
1, 19577, Note_on_c, 1, 60, 0
1, 19577, Note_on_c, 1, 57, 0
1, 19581, Note_on_c, 0, 67, 0
1, 19584, Note_on_c, 1, 59, 69
1, 19584, Note_on_c, 1, 55, 69
1, 19632, Note_on_c, 0, 77, 75
1, 19632, Note_on_c, 0, 74, 75
1, 19652, Note_on_c, 0, 77, 0
1, 19652, Note_on_c, 0, 74, 0
1, 19673, Note_on_c, 1, 59, 0
1, 19673, Note_on_c, 1, 55, 0
1, 19680, Note_on_c, 0, 77, 75
1, 19680, Note_on_c, 0, 74, 75
1, 19728, Note_on_c, 0, 77, 0
1, 19728, Note_on_c, 0, 74, 0
1, 19728, Note_on_c, 0, 75, 75
1, 19728, Note_on_c, 0, 72, 75
1, 19773, Note_on_c, 0, 75, 0
1, 19773, Note_on_c, 0, 72, 0
1, 19776, Note_on_c, 0, 75, 75
1, 19776, Note_on_c, 0, 72, 75
1, 19824, Note_on_c, 0, 75, 0
1, 19824, Note_on_c, 0, 72, 0
1, 19824, Note_on_c, 0, 74, 75
1, 19824, Note_on_c, 0, 71, 75
1, 19869, Note_on_c, 0, 74, 0
1, 19869, Note_on_c, 0, 71, 0
1, 19872, Note_on_c, 1, 60, 69
1, 19896, Note_on_c, 0, 72, 75
1, 19919, Note_on_c, 0, 72, 0
1, 19920, Note_on_c, 0, 75, 75
1, 19943, Note_on_c, 0, 75, 0
1, 19944, Note_on_c, 0, 72, 75
1, 19961, Note_on_c, 1, 60, 0
1, 19967, Note_on_c, 0, 72, 0
1, 19968, Note_on_c, 1, 63, 69
1, 19992, Note_on_c, 0, 72, 75
1, 20015, Note_on_c, 0, 72, 0
1, 20016, Note_on_c, 0, 75, 75
1, 20039, Note_on_c, 0, 75, 0
1, 20040, Note_on_c, 0, 72, 75
1, 20057, Note_on_c, 1, 63, 0
1, 20063, Note_on_c, 0, 72, 0
1, 20064, Note_on_c, 1, 60, 69
1, 20088, Note_on_c, 0, 72, 75
1, 20111, Note_on_c, 0, 72, 0
1, 20112, Note_on_c, 0, 75, 75
1, 20135, Note_on_c, 0, 75, 0
1, 20136, Note_on_c, 0, 72, 75
1, 20153, Note_on_c, 1, 60, 0
1, 20159, Note_on_c, 0, 72, 0
1, 20160, Note_on_c, 1, 59, 69
1, 20208, Note_on_c, 0, 80, 75
1, 20208, Note_on_c, 0, 77, 75
1, 20228, Note_on_c, 0, 80, 0
1, 20228, Note_on_c, 0, 77, 0
1, 20256, Note_on_c, 0, 80, 75
1, 20256, Note_on_c, 0, 77, 75
1, 20304, Note_on_c, 0, 80, 0
1, 20304, Note_on_c, 0, 77, 0
1, 20304, Note_on_c, 0, 79, 75
1, 20304, Note_on_c, 0, 75, 75
1, 20337, Note_on_c, 1, 59, 0
1, 20349, Note_on_c, 0, 79, 0
1, 20349, Note_on_c, 0, 75, 0
1, 20352, Note_on_c, 0, 79, 75
1, 20352, Note_on_c, 0, 75, 75
1, 20400, Note_on_c, 0, 79, 0
1, 20400, Note_on_c, 0, 75, 0
1, 20400, Note_on_c, 0, 77, 75
1, 20400, Note_on_c, 0, 74, 75
1, 20445, Note_on_c, 0, 77, 0
1, 20445, Note_on_c, 0, 74, 0
1, 20448, Note_on_c, 0, 75, 75
1, 20448, Note_on_c, 0, 72, 75
1, 20448, Note_on_c, 1, 60, 69
1, 20537, Note_on_c, 0, 75, 0
1, 20537, Note_on_c, 0, 72, 0
1, 20537, Note_on_c, 1, 60, 0
1, 20544, Note_on_c, 0, 72, 75
1, 20544, Note_on_c, 0, 63, 75
1, 20544, Note_on_c, 1, 55, 69
1, 20633, Note_on_c, 0, 72, 0
1, 20633, Note_on_c, 0, 63, 0
1, 20633, Note_on_c, 1, 55, 0
1, 20640, Note_on_c, 0, 71, 75
1, 20640, Note_on_c, 0, 62, 75
1, 20640, Note_on_c, 1, 43, 69
1, 20729, Note_on_c, 0, 71, 0
1, 20729, Note_on_c, 0, 62, 0
1, 20729, Note_on_c, 1, 43, 0
1, 20736, Note_on_c, 0, 72, 75
1, 20736, Note_on_c, 0, 60, 75
1, 20736, Note_on_c, 1, 48, 69
1, 20825, Note_on_c, 0, 72, 0
1, 20825, Note_on_c, 0, 60, 0
1, 20825, Note_on_c, 1, 48, 0
1, 20832, Note_on_c, 1, 43, 69
1, 20921, Note_on_c, 1, 43, 0
1, 20928, Note_on_c, 1, 36, 69
1, 21017, Note_on_c, 1, 36, 0
1, 21024, Note_on_c, 0, 72, 81
1, 21024, Note_on_c, 1, 60, 81
1, 21024, Note_on_c, 1, 48, 81
1, 21113, Note_on_c, 0, 72, 0
1, 21120, Note_on_c, 0, 84, 81
1, 21201, Note_on_c, 1, 60, 0
1, 21201, Note_on_c, 1, 48, 0
1, 21209, Note_on_c, 0, 84, 0
1, 21216, Note_on_c, 0, 76, 81
1, 21216, Note_on_c, 1, 60, 81
1, 21283, Note_on_c, 0, 76, 0
1, 21288, Note_on_c, 0, 79, 81
1, 21305, Note_on_c, 1, 60, 0
1, 21311, Note_on_c, 0, 79, 0
1, 21312, Note_on_c, 0, 77, 81
1, 21312, Note_on_c, 1, 62, 81
1, 21401, Note_on_c, 0, 77, 0
1, 21401, Note_on_c, 1, 62, 0
1, 21408, Note_on_c, 0, 74, 81
1, 21408, Note_on_c, 1, 59, 81
1, 21497, Note_on_c, 0, 74, 0
1, 21497, Note_on_c, 1, 59, 0
1, 21504, Note_on_c, 0, 74, 81
1, 21504, Note_on_c, 1, 55, 81
1, 21571, Note_on_c, 0, 74, 0
1, 21576, Note_on_c, 0, 77, 81
1, 21593, Note_on_c, 1, 55, 0
1, 21599, Note_on_c, 0, 77, 0
1, 21600, Note_on_c, 0, 76, 81
1, 21600, Note_on_c, 1, 60, 81
1, 21689, Note_on_c, 0, 76, 0
1, 21689, Note_on_c, 1, 60, 0
1, 21696, Note_on_c, 0, 72, 81
1, 21696, Note_on_c, 1, 52, 81
1, 21785, Note_on_c, 0, 72, 0
1, 21785, Note_on_c, 1, 52, 0
1, 21792, Note_on_c, 0, 69, 81
1, 21792, Note_on_c, 1, 53, 81
1, 21859, Note_on_c, 0, 69, 0
1, 21864, Note_on_c, 0, 74, 81
1, 21881, Note_on_c, 1, 53, 0
1, 21887, Note_on_c, 0, 74, 0
1, 21888, Note_on_c, 0, 72, 81
1, 21888, Note_on_c, 1, 55, 81
1, 21977, Note_on_c, 0, 72, 0
1, 21977, Note_on_c, 1, 55, 0
1, 21984, Note_on_c, 0, 71, 81
1, 21984, Note_on_c, 1, 50, 81
1, 22073, Note_on_c, 0, 71, 0
1, 22073, Note_on_c, 1, 50, 0
1, 22080, Note_on_c, 1, 43, 81
1, 22169, Note_on_c, 1, 43, 0
1, 22176, Note_on_c, 0, 67, 81
1, 22176, Note_on_c, 1, 59, 81
1, 22176, Note_on_c, 1, 55, 81
1, 22192, Note_on_c, 0, 71, 81
1, 22208, Note_on_c, 0, 74, 81
1, 22265, Note_on_c, 0, 74, 0
1, 22265, Note_on_c, 0, 71, 0
1, 22265, Note_on_c, 0, 67, 0
1, 22265, Note_on_c, 1, 59, 0
1, 22265, Note_on_c, 1, 55, 0
1, 22272, Note_on_c, 0, 79, 81
1, 22295, Note_on_c, 0, 79, 0
1, 22296, Note_on_c, 0, 78, 81
1, 22319, Note_on_c, 0, 78, 0
1, 22320, Note_on_c, 0, 79, 81
1, 22343, Note_on_c, 0, 79, 0
1, 22344, Note_on_c, 0, 81, 81
1, 22367, Note_on_c, 0, 81, 0
1, 22368, Note_on_c, 0, 83, 81
1, 22391, Note_on_c, 0, 83, 0
1, 22392, Note_on_c, 0, 81, 81
1, 22415, Note_on_c, 0, 81, 0
1, 22416, Note_on_c, 0, 83, 81
1, 22439, Note_on_c, 0, 83, 0
1, 22440, Note_on_c, 0, 84, 81
1, 22463, Note_on_c, 0, 84, 0
1, 22464, Note_on_c, 0, 86, 81
1, 22464, Note_on_c, 1, 59, 81
1, 22464, Note_on_c, 1, 55, 81
1, 22553, Note_on_c, 0, 86, 0
1, 22553, Note_on_c, 1, 59, 0
1, 22553, Note_on_c, 1, 55, 0
1, 22560, Note_on_c, 0, 79, 81
1, 22583, Note_on_c, 0, 79, 0
1, 22584, Note_on_c, 0, 78, 81
1, 22607, Note_on_c, 0, 78, 0
1, 22608, Note_on_c, 0, 79, 81
1, 22631, Note_on_c, 0, 79, 0
1, 22632, Note_on_c, 0, 81, 81
1, 22655, Note_on_c, 0, 81, 0
1, 22656, Note_on_c, 0, 83, 81
1, 22679, Note_on_c, 0, 83, 0
1, 22680, Note_on_c, 0, 81, 81
1, 22703, Note_on_c, 0, 81, 0
1, 22704, Note_on_c, 0, 83, 81
1, 22727, Note_on_c, 0, 83, 0
1, 22728, Note_on_c, 0, 84, 81
1, 22751, Note_on_c, 0, 84, 0
1, 22752, Note_on_c, 0, 86, 81
1, 22752, Note_on_c, 1, 59, 81
1, 22752, Note_on_c, 1, 55, 81
1, 22841, Note_on_c, 0, 86, 0
1, 22841, Note_on_c, 1, 59, 0
1, 22841, Note_on_c, 1, 55, 0
1, 22848, Note_on_c, 0, 71, 81
1, 22848, Note_on_c, 1, 62, 81
1, 22937, Note_on_c, 0, 71, 0
1, 22937, Note_on_c, 1, 62, 0
1, 22944, Note_on_c, 0, 69, 81
1, 22944, Note_on_c, 1, 50, 81
1, 22957, Note_on_c, 0, 69, 0
1, 22958, Note_on_c, 0, 71, 81
1, 22971, Note_on_c, 0, 71, 0
1, 22972, Note_on_c, 0, 69, 81
1, 22985, Note_on_c, 0, 69, 0
1, 22986, Note_on_c, 0, 71, 81
1, 22999, Note_on_c, 0, 71, 0
1, 23000, Note_on_c, 0, 69, 81
1, 23013, Note_on_c, 0, 69, 0
1, 23014, Note_on_c, 0, 67, 81
1, 23026, Note_on_c, 0, 67, 0
1, 23027, Note_on_c, 0, 69, 81
1, 23033, Note_on_c, 1, 50, 0
1, 23039, Note_on_c, 0, 69, 0
1, 23040, Note_on_c, 0, 67, 81
1, 23040, Note_on_c, 1, 55, 81
1, 23129, Note_on_c, 1, 55, 0
1, 23136, Note_on_c, 1, 50, 81
1, 23217, Note_on_c, 0, 67, 0
1, 23225, Note_on_c, 1, 50, 0
1, 23232, Note_on_c, 1, 43, 81
1, 23321, Note_on_c, 1, 43, 0
1, 23328, Note_on_c, 0, 72, 81
1, 23328, Note_on_c, 1, 60, 81
1, 23328, Note_on_c, 1, 48, 81
1, 23417, Note_on_c, 0, 72, 0
1, 23424, Note_on_c, 0, 84, 81
1, 23505, Note_on_c, 1, 60, 0
1, 23505, Note_on_c, 1, 48, 0
1, 23513, Note_on_c, 0, 84, 0
1, 23520, Note_on_c, 0, 76, 81
1, 23520, Note_on_c, 1, 60, 81
1, 23587, Note_on_c, 0, 76, 0
1, 23592, Note_on_c, 0, 79, 81
1, 23609, Note_on_c, 1, 60, 0
1, 23615, Note_on_c, 0, 79, 0
1, 23616, Note_on_c, 0, 77, 81
1, 23616, Note_on_c, 1, 62, 81
1, 23705, Note_on_c, 0, 77, 0
1, 23705, Note_on_c, 1, 62, 0
1, 23712, Note_on_c, 0, 74, 81
1, 23712, Note_on_c, 1, 59, 81
1, 23801, Note_on_c, 0, 74, 0
1, 23801, Note_on_c, 1, 59, 0
1, 23808, Note_on_c, 0, 74, 81
1, 23808, Note_on_c, 1, 55, 81
1, 23875, Note_on_c, 0, 74, 0
1, 23880, Note_on_c, 0, 77, 81
1, 23897, Note_on_c, 1, 55, 0
1, 23903, Note_on_c, 0, 77, 0
1, 23904, Note_on_c, 0, 76, 81
1, 23904, Note_on_c, 1, 60, 81
1, 23993, Note_on_c, 0, 76, 0
1, 23993, Note_on_c, 1, 60, 0
1, 24000, Note_on_c, 0, 72, 81
1, 24000, Note_on_c, 1, 52, 81
1, 24089, Note_on_c, 0, 72, 0
1, 24089, Note_on_c, 1, 52, 0
1, 24096, Note_on_c, 0, 69, 81
1, 24096, Note_on_c, 1, 53, 81
1, 24163, Note_on_c, 0, 69, 0
1, 24168, Note_on_c, 0, 74, 81
1, 24185, Note_on_c, 1, 53, 0
1, 24191, Note_on_c, 0, 74, 0
1, 24192, Note_on_c, 0, 72, 81
1, 24192, Note_on_c, 1, 55, 81
1, 24281, Note_on_c, 0, 72, 0
1, 24281, Note_on_c, 1, 55, 0
1, 24288, Note_on_c, 0, 71, 81
1, 24288, Note_on_c, 1, 50, 81
1, 24377, Note_on_c, 0, 71, 0
1, 24377, Note_on_c, 1, 50, 0
1, 24384, Note_on_c, 1, 43, 81
1, 24473, Note_on_c, 1, 43, 0
1, 24480, Note_on_c, 0, 67, 81
1, 24480, Note_on_c, 1, 59, 81
1, 24480, Note_on_c, 1, 55, 81
1, 24496, Note_on_c, 0, 71, 81
1, 24512, Note_on_c, 0, 74, 81
1, 24569, Note_on_c, 0, 74, 0
1, 24569, Note_on_c, 0, 71, 0
1, 24569, Note_on_c, 0, 67, 0
1, 24569, Note_on_c, 1, 59, 0
1, 24569, Note_on_c, 1, 55, 0
1, 24576, Note_on_c, 0, 79, 81
1, 24599, Note_on_c, 0, 79, 0
1, 24600, Note_on_c, 0, 78, 81
1, 24623, Note_on_c, 0, 78, 0
1, 24624, Note_on_c, 0, 79, 81
1, 24647, Note_on_c, 0, 79, 0
1, 24648, Note_on_c, 0, 81, 81
1, 24671, Note_on_c, 0, 81, 0
1, 24672, Note_on_c, 0, 83, 81
1, 24695, Note_on_c, 0, 83, 0
1, 24696, Note_on_c, 0, 81, 81
1, 24719, Note_on_c, 0, 81, 0
1, 24720, Note_on_c, 0, 83, 81
1, 24743, Note_on_c, 0, 83, 0
1, 24744, Note_on_c, 0, 84, 81
1, 24767, Note_on_c, 0, 84, 0
1, 24768, Note_on_c, 0, 86, 81
1, 24768, Note_on_c, 1, 59, 81
1, 24768, Note_on_c, 1, 55, 81
1, 24857, Note_on_c, 0, 86, 0
1, 24857, Note_on_c, 1, 59, 0
1, 24857, Note_on_c, 1, 55, 0
1, 24864, Note_on_c, 0, 79, 81
1, 24887, Note_on_c, 0, 79, 0
1, 24888, Note_on_c, 0, 78, 81
1, 24911, Note_on_c, 0, 78, 0
1, 24912, Note_on_c, 0, 79, 81
1, 24935, Note_on_c, 0, 79, 0
1, 24936, Note_on_c, 0, 81, 81
1, 24959, Note_on_c, 0, 81, 0
1, 24960, Note_on_c, 0, 83, 81
1, 24983, Note_on_c, 0, 83, 0
1, 24984, Note_on_c, 0, 81, 81
1, 25007, Note_on_c, 0, 81, 0
1, 25008, Note_on_c, 0, 83, 81
1, 25031, Note_on_c, 0, 83, 0
1, 25032, Note_on_c, 0, 84, 81
1, 25055, Note_on_c, 0, 84, 0
1, 25056, Note_on_c, 0, 86, 81
1, 25056, Note_on_c, 1, 59, 81
1, 25056, Note_on_c, 1, 55, 81
1, 25145, Note_on_c, 0, 86, 0
1, 25145, Note_on_c, 1, 59, 0
1, 25145, Note_on_c, 1, 55, 0
1, 25152, Note_on_c, 0, 71, 81
1, 25152, Note_on_c, 1, 62, 81
1, 25241, Note_on_c, 0, 71, 0
1, 25241, Note_on_c, 1, 62, 0
1, 25248, Note_on_c, 0, 69, 81
1, 25248, Note_on_c, 1, 50, 81
1, 25261, Note_on_c, 0, 69, 0
1, 25262, Note_on_c, 0, 71, 81
1, 25275, Note_on_c, 0, 71, 0
1, 25276, Note_on_c, 0, 69, 81
1, 25289, Note_on_c, 0, 69, 0
1, 25290, Note_on_c, 0, 71, 81
1, 25303, Note_on_c, 0, 71, 0
1, 25304, Note_on_c, 0, 69, 81
1, 25317, Note_on_c, 0, 69, 0
1, 25318, Note_on_c, 0, 67, 81
1, 25330, Note_on_c, 0, 67, 0
1, 25331, Note_on_c, 0, 69, 81
1, 25337, Note_on_c, 1, 50, 0
1, 25343, Note_on_c, 0, 69, 0
1, 25344, Note_on_c, 0, 67, 81
1, 25344, Note_on_c, 1, 55, 81
1, 25433, Note_on_c, 1, 55, 0
1, 25440, Note_on_c, 1, 50, 81
1, 25521, Note_on_c, 0, 67, 0
1, 25529, Note_on_c, 1, 50, 0
1, 25536, Note_on_c, 1, 43, 81
1, 25625, Note_on_c, 1, 43, 0
1, 25632, Note_on_c, 0, 79, 75
1, 25632, Note_on_c, 1, 76, 75
1, 25721, Note_on_c, 0, 79, 0
1, 25728, Note_on_c, 0, 84, 75
1, 25809, Note_on_c, 1, 76, 0
1, 25817, Note_on_c, 0, 84, 0
1, 25824, Note_on_c, 0, 76, 75
1, 25824, Note_on_c, 1, 72, 75
1, 25891, Note_on_c, 0, 76, 0
1, 25896, Note_on_c, 0, 79, 75
1, 25913, Note_on_c, 1, 72, 0
1, 25919, Note_on_c, 0, 79, 0
1, 25920, Note_on_c, 0, 77, 75
1, 25920, Note_on_c, 1, 74, 75
1, 26009, Note_on_c, 0, 77, 0
1, 26009, Note_on_c, 1, 74, 0
1, 26016, Note_on_c, 0, 86, 75
1, 26016, Note_on_c, 1, 71, 75
1, 26105, Note_on_c, 0, 86, 0
1, 26105, Note_on_c, 1, 71, 0
1, 26112, Note_on_c, 0, 74, 75
1, 26112, Note_on_c, 1, 67, 75
1, 26179, Note_on_c, 0, 74, 0
1, 26184, Note_on_c, 0, 77, 75
1, 26201, Note_on_c, 1, 67, 0
1, 26207, Note_on_c, 0, 77, 0
1, 26208, Note_on_c, 0, 76, 75
1, 26208, Note_on_c, 1, 72, 75
1, 26297, Note_on_c, 0, 76, 0
1, 26297, Note_on_c, 1, 72, 0
1, 26304, Note_on_c, 0, 79, 75
1, 26304, Note_on_c, 1, 64, 75
1, 26393, Note_on_c, 0, 79, 0
1, 26393, Note_on_c, 1, 64, 0
1, 26400, Note_on_c, 0, 80, 75
1, 26400, Note_on_c, 1, 65, 75
1, 26467, Note_on_c, 0, 80, 0
1, 26472, Note_on_c, 0, 81, 75
1, 26489, Note_on_c, 1, 65, 0
1, 26495, Note_on_c, 0, 81, 0
1, 26496, Note_on_c, 0, 72, 75
1, 26496, Note_on_c, 1, 67, 75
1, 26585, Note_on_c, 0, 72, 0
1, 26585, Note_on_c, 1, 67, 0
1, 26592, Note_on_c, 0, 71, 75
1, 26592, Note_on_c, 1, 62, 75
1, 26681, Note_on_c, 0, 71, 0
1, 26681, Note_on_c, 1, 62, 0
1, 26688, Note_on_c, 1, 55, 75
1, 26777, Note_on_c, 1, 55, 0
1, 26784, Note_on_c, 0, 60, 81
1, 26784, Note_on_c, 1, 48, 81
1, 26800, Note_on_c, 0, 64, 81
1, 26800, Note_on_c, 1, 52, 81
1, 26816, Note_on_c, 0, 67, 81
1, 26816, Note_on_c, 1, 55, 81
1, 26873, Note_on_c, 0, 67, 0
1, 26873, Note_on_c, 0, 64, 0
1, 26873, Note_on_c, 0, 60, 0
1, 26873, Note_on_c, 1, 55, 0
1, 26873, Note_on_c, 1, 52, 0
1, 26873, Note_on_c, 1, 48, 0
1, 26880, Note_on_c, 0, 72, 81
1, 26903, Note_on_c, 0, 72, 0
1, 26904, Note_on_c, 0, 71, 81
1, 26927, Note_on_c, 0, 71, 0
1, 26928, Note_on_c, 0, 72, 81
1, 26951, Note_on_c, 0, 72, 0
1, 26952, Note_on_c, 0, 74, 81
1, 26975, Note_on_c, 0, 74, 0
1, 26976, Note_on_c, 0, 76, 81
1, 26999, Note_on_c, 0, 76, 0
1, 27000, Note_on_c, 0, 74, 81
1, 27023, Note_on_c, 0, 74, 0
1, 27024, Note_on_c, 0, 76, 81
1, 27047, Note_on_c, 0, 76, 0
1, 27048, Note_on_c, 0, 77, 81
1, 27071, Note_on_c, 0, 77, 0
1, 27072, Note_on_c, 0, 72, 81
1, 27072, Note_on_c, 1, 48, 81
1, 27088, Note_on_c, 0, 76, 81
1, 27090, Note_on_c, 1, 52, 81
1, 27104, Note_on_c, 0, 79, 81
1, 27108, Note_on_c, 1, 55, 81
1, 27126, Note_on_c, 1, 60, 81
1, 27161, Note_on_c, 0, 79, 0
1, 27161, Note_on_c, 0, 76, 0
1, 27161, Note_on_c, 0, 72, 0
1, 27168, Note_on_c, 0, 72, 81
1, 27205, Note_on_c, 1, 60, 0
1, 27205, Note_on_c, 1, 55, 0
1, 27205, Note_on_c, 1, 52, 0
1, 27205, Note_on_c, 1, 48, 0
1, 27213, Note_on_c, 0, 72, 0
1, 27216, Note_on_c, 0, 74, 81
1, 27239, Note_on_c, 0, 74, 0
1, 27240, Note_on_c, 0, 76, 81
1, 27263, Note_on_c, 0, 76, 0
1, 27264, Note_on_c, 0, 77, 81
1, 27287, Note_on_c, 0, 77, 0
1, 27288, Note_on_c, 0, 79, 81
1, 27311, Note_on_c, 0, 79, 0
1, 27312, Note_on_c, 0, 81, 81
1, 27335, Note_on_c, 0, 81, 0
1, 27336, Note_on_c, 0, 83, 81
1, 27359, Note_on_c, 0, 83, 0
1, 27360, Note_on_c, 0, 84, 81
1, 27360, Note_on_c, 1, 52, 81
1, 27449, Note_on_c, 0, 84, 0
1, 27449, Note_on_c, 1, 52, 0
1, 27456, Note_on_c, 0, 76, 81
1, 27456, Note_on_c, 0, 72, 81
1, 27456, Note_on_c, 1, 55, 81
1, 27545, Note_on_c, 0, 76, 0
1, 27545, Note_on_c, 0, 72, 0
1, 27545, Note_on_c, 1, 55, 0
1, 27552, Note_on_c, 0, 74, 81
1, 27552, Note_on_c, 0, 71, 81
1, 27552, Note_on_c, 1, 43, 81
1, 27641, Note_on_c, 0, 74, 0
1, 27641, Note_on_c, 0, 71, 0
1, 27641, Note_on_c, 1, 43, 0
1, 27648, Note_on_c, 0, 72, 81
1, 27648, Note_on_c, 0, 67, 81
1, 27648, Note_on_c, 0, 64, 81
1, 27648, Note_on_c, 1, 48, 81
1, 27737, Note_on_c, 1, 48, 0
1, 27744, Note_on_c, 1, 43, 81
1, 27833, Note_on_c, 1, 43, 0
1, 27840, Note_on_c, 1, 36, 81
1, 27913, Note_on_c, 0, 72, 0
1, 27913, Note_on_c, 0, 67, 0
1, 27913, Note_on_c, 0, 64, 0
1, 27929, Note_on_c, 1, 36, 0
1, 27936, Note_on_c, 0, 79, 75
1, 27936, Note_on_c, 1, 76, 75
1, 28025, Note_on_c, 0, 79, 0
1, 28032, Note_on_c, 0, 84, 75
1, 28113, Note_on_c, 1, 76, 0
1, 28121, Note_on_c, 0, 84, 0
1, 28128, Note_on_c, 0, 76, 75
1, 28128, Note_on_c, 1, 72, 75
1, 28195, Note_on_c, 0, 76, 0
1, 28200, Note_on_c, 0, 79, 75
1, 28217, Note_on_c, 1, 72, 0
1, 28223, Note_on_c, 0, 79, 0
1, 28224, Note_on_c, 0, 77, 75
1, 28224, Note_on_c, 1, 74, 75
1, 28313, Note_on_c, 0, 77, 0
1, 28313, Note_on_c, 1, 74, 0
1, 28320, Note_on_c, 0, 86, 75
1, 28320, Note_on_c, 1, 71, 75
1, 28409, Note_on_c, 0, 86, 0
1, 28409, Note_on_c, 1, 71, 0
1, 28416, Note_on_c, 0, 74, 75
1, 28416, Note_on_c, 1, 67, 75
1, 28483, Note_on_c, 0, 74, 0
1, 28488, Note_on_c, 0, 77, 75
1, 28505, Note_on_c, 1, 67, 0
1, 28511, Note_on_c, 0, 77, 0
1, 28512, Note_on_c, 0, 76, 75
1, 28512, Note_on_c, 1, 72, 75
1, 28601, Note_on_c, 0, 76, 0
1, 28601, Note_on_c, 1, 72, 0
1, 28608, Note_on_c, 0, 79, 75
1, 28608, Note_on_c, 1, 64, 75
1, 28697, Note_on_c, 0, 79, 0
1, 28697, Note_on_c, 1, 64, 0
1, 28704, Note_on_c, 0, 80, 75
1, 28704, Note_on_c, 1, 65, 75
1, 28771, Note_on_c, 0, 80, 0
1, 28776, Note_on_c, 0, 81, 75
1, 28793, Note_on_c, 1, 65, 0
1, 28799, Note_on_c, 0, 81, 0
1, 28800, Note_on_c, 0, 72, 75
1, 28800, Note_on_c, 1, 67, 75
1, 28889, Note_on_c, 0, 72, 0
1, 28889, Note_on_c, 1, 67, 0
1, 28896, Note_on_c, 0, 71, 75
1, 28896, Note_on_c, 1, 62, 75
1, 28985, Note_on_c, 0, 71, 0
1, 28985, Note_on_c, 1, 62, 0
1, 28992, Note_on_c, 1, 55, 75
1, 29081, Note_on_c, 1, 55, 0
1, 29088, Note_on_c, 0, 60, 81
1, 29088, Note_on_c, 1, 48, 81
1, 29104, Note_on_c, 0, 64, 81
1, 29104, Note_on_c, 1, 52, 81
1, 29120, Note_on_c, 0, 67, 81
1, 29120, Note_on_c, 1, 55, 81
1, 29177, Note_on_c, 0, 67, 0
1, 29177, Note_on_c, 0, 64, 0
1, 29177, Note_on_c, 0, 60, 0
1, 29177, Note_on_c, 1, 55, 0
1, 29177, Note_on_c, 1, 52, 0
1, 29177, Note_on_c, 1, 48, 0
1, 29184, Note_on_c, 0, 72, 81
1, 29207, Note_on_c, 0, 72, 0
1, 29208, Note_on_c, 0, 71, 81
1, 29231, Note_on_c, 0, 71, 0
1, 29232, Note_on_c, 0, 72, 81
1, 29255, Note_on_c, 0, 72, 0
1, 29256, Note_on_c, 0, 74, 81
1, 29279, Note_on_c, 0, 74, 0
1, 29280, Note_on_c, 0, 76, 81
1, 29303, Note_on_c, 0, 76, 0
1, 29304, Note_on_c, 0, 74, 81
1, 29327, Note_on_c, 0, 74, 0
1, 29328, Note_on_c, 0, 76, 81
1, 29351, Note_on_c, 0, 76, 0
1, 29352, Note_on_c, 0, 77, 81
1, 29375, Note_on_c, 0, 77, 0
1, 29376, Note_on_c, 0, 72, 81
1, 29376, Note_on_c, 1, 48, 81
1, 29392, Note_on_c, 0, 76, 81
1, 29394, Note_on_c, 1, 52, 81
1, 29408, Note_on_c, 0, 79, 81
1, 29412, Note_on_c, 1, 55, 81
1, 29430, Note_on_c, 1, 60, 81
1, 29465, Note_on_c, 0, 79, 0
1, 29465, Note_on_c, 0, 76, 0
1, 29465, Note_on_c, 0, 72, 0
1, 29472, Note_on_c, 0, 72, 81
1, 29509, Note_on_c, 1, 60, 0
1, 29509, Note_on_c, 1, 55, 0
1, 29509, Note_on_c, 1, 52, 0
1, 29509, Note_on_c, 1, 48, 0
1, 29517, Note_on_c, 0, 72, 0
1, 29520, Note_on_c, 0, 74, 81
1, 29543, Note_on_c, 0, 74, 0
1, 29544, Note_on_c, 0, 76, 81
1, 29567, Note_on_c, 0, 76, 0
1, 29568, Note_on_c, 0, 77, 81
1, 29591, Note_on_c, 0, 77, 0
1, 29592, Note_on_c, 0, 79, 81
1, 29615, Note_on_c, 0, 79, 0
1, 29616, Note_on_c, 0, 81, 81
1, 29639, Note_on_c, 0, 81, 0
1, 29640, Note_on_c, 0, 83, 81
1, 29663, Note_on_c, 0, 83, 0
1, 29664, Note_on_c, 0, 84, 81
1, 29664, Note_on_c, 1, 52, 81
1, 29753, Note_on_c, 0, 84, 0
1, 29753, Note_on_c, 1, 52, 0
1, 29760, Note_on_c, 0, 76, 81
1, 29760, Note_on_c, 0, 72, 81
1, 29760, Note_on_c, 1, 55, 81
1, 29849, Note_on_c, 0, 76, 0
1, 29849, Note_on_c, 0, 72, 0
1, 29849, Note_on_c, 1, 55, 0
1, 29856, Note_on_c, 0, 74, 81
1, 29856, Note_on_c, 0, 71, 81
1, 29856, Note_on_c, 1, 43, 81
1, 29945, Note_on_c, 0, 74, 0
1, 29945, Note_on_c, 0, 71, 0
1, 29945, Note_on_c, 1, 43, 0
1, 29952, Note_on_c, 0, 72, 81
1, 29952, Note_on_c, 0, 67, 81
1, 29952, Note_on_c, 0, 64, 81
1, 29952, Note_on_c, 1, 48, 81
1, 30041, Note_on_c, 1, 48, 0
1, 30048, Note_on_c, 1, 43, 81
1, 30137, Note_on_c, 1, 43, 0
1, 30144, Note_on_c, 1, 36, 81
1, 30217, Note_on_c, 0, 72, 0
1, 30217, Note_on_c, 0, 67, 0
1, 30217, Note_on_c, 0, 64, 0
1, 30233, Note_on_c, 1, 36, 0
1, 30240, Note_on_c, 1, 36, 0
1, 30329, Note_on_c, 1, 36, 0
1, 30339, End_track
0, 0, End_of_file