0, 0, Header, 0, 1, 96
1, 0, Start_track
1, 0, Tempo, 500000
1, 168, Note_on_c, 0, 72, 77
1, 191, Note_on_c, 0, 72, 0
1, 192, Note_on_c, 0, 72, 77
1, 205, Note_on_c, 0, 72, 0
1, 206, Note_on_c, 0, 74, 77
1, 219, Note_on_c, 0, 74, 0
1, 220, Note_on_c, 0, 72, 77
1, 233, Note_on_c, 0, 72, 0
1, 234, Note_on_c, 0, 74, 77
1, 247, Note_on_c, 0, 74, 0
1, 248, Note_on_c, 0, 72, 77
1, 261, Note_on_c, 0, 72, 0
1, 262, Note_on_c, 0, 71, 77
1, 274, Note_on_c, 0, 71, 0
1, 275, Note_on_c, 0, 72, 77
1, 287, Note_on_c, 0, 72, 0
1, 288, Note_on_c, 0, 77, 77
1, 288, Note_on_c, 1, 69, 77
1, 288, Note_on_c, 1, 65, 77
1, 308, Note_on_c, 0, 77, 0
1, 336, Note_on_c, 0, 76, 77
1, 356, Note_on_c, 0, 76, 0
1, 377, Note_on_c, 1, 69, 0
1, 377, Note_on_c, 1, 65, 0
1, 384, Note_on_c, 0, 74, 77
1, 404, Note_on_c, 0, 74, 0
1, 432, Note_on_c, 0, 72, 77
1, 452, Note_on_c, 0, 72, 0
1, 480, Note_on_c, 0, 70, 77
1, 500, Note_on_c, 0, 70, 0
1, 528, Note_on_c, 0, 69, 77
1, 548, Note_on_c, 0, 69, 0
1, 576, Note_on_c, 0, 67, 77
1, 576, Note_on_c, 1, 62, 77
1, 576, Note_on_c, 1, 58, 77
1, 589, Note_on_c, 0, 67, 0
1, 590, Note_on_c, 0, 69, 77
1, 603, Note_on_c, 0, 69, 0
1, 604, Note_on_c, 0, 67, 77
1, 617, Note_on_c, 0, 67, 0
1, 618, Note_on_c, 0, 69, 77
1, 631, Note_on_c, 0, 69, 0
1, 632, Note_on_c, 0, 67, 77
1, 645, Note_on_c, 0, 67, 0
1, 646, Note_on_c, 0, 69, 77
1, 658, Note_on_c, 0, 69, 0
1, 659, Note_on_c, 0, 67, 77
1, 672, Note_on_c, 0, 67, 0
1, 672, Note_on_c, 0, 65, 77
1, 672, Note_on_c, 1, 62, 0
1, 672, Note_on_c, 1, 58, 0
1, 672, Note_on_c, 1, 60, 77
1, 672, Note_on_c, 1, 57, 77
1, 692, Note_on_c, 0, 65, 0
1, 717, Note_on_c, 1, 60, 0
1, 717, Note_on_c, 1, 57, 0
1, 744, Note_on_c, 0, 72, 77
1, 767, Note_on_c, 0, 72, 0
1, 768, Note_on_c, 0, 72, 77
1, 781, Note_on_c, 0, 72, 0
1, 782, Note_on_c, 0, 74, 77
1, 795, Note_on_c, 0, 74, 0
1, 796, Note_on_c, 0, 72, 77
1, 809, Note_on_c, 0, 72, 0
1, 810, Note_on_c, 0, 74, 77
1, 823, Note_on_c, 0, 74, 0
1, 824, Note_on_c, 0, 72, 77
1, 837, Note_on_c, 0, 72, 0
1, 838, Note_on_c, 0, 71, 77
1, 850, Note_on_c, 0, 71, 0
1, 851, Note_on_c, 0, 72, 77
1, 863, Note_on_c, 0, 72, 0
1, 864, Note_on_c, 0, 81, 77
1, 864, Note_on_c, 1, 69, 77
1, 864, Note_on_c, 1, 65, 77
1, 884, Note_on_c, 0, 81, 0
1, 912, Note_on_c, 0, 79, 77
1, 932, Note_on_c, 0, 79, 0
1, 953, Note_on_c, 1, 69, 0
1, 953, Note_on_c, 1, 65, 0
1, 960, Note_on_c, 0, 77, 77
1, 980, Note_on_c, 0, 77, 0
1, 1008, Note_on_c, 0, 76, 77
1, 1028, Note_on_c, 0, 76, 0
1, 1056, Note_on_c, 0, 74, 77
1, 1076, Note_on_c, 0, 74, 0
1, 1104, Note_on_c, 0, 72, 77
1, 1124, Note_on_c, 0, 72, 0
1, 1152, Note_on_c, 0, 70, 77
1, 1152, Note_on_c, 1, 67, 77
1, 1152, Note_on_c, 1, 60, 77
1, 1165, Note_on_c, 0, 70, 0
1, 1166, Note_on_c, 0, 72, 77
1, 1179, Note_on_c, 0, 72, 0
1, 1180, Note_on_c, 0, 70, 77
1, 1193, Note_on_c, 0, 70, 0
1, 1194, Note_on_c, 0, 72, 77
1, 1207, Note_on_c, 0, 72, 0
1, 1208, Note_on_c, 0, 70, 77
1, 1221, Note_on_c, 0, 70, 0
1, 1222, Note_on_c, 0, 72, 77
1, 1234, Note_on_c, 0, 72, 0
1, 1235, Note_on_c, 0, 70, 77
1, 1248, Note_on_c, 0, 70, 0
1, 1248, Note_on_c, 0, 69, 77
1, 1248, Note_on_c, 1, 67, 0
1, 1248, Note_on_c, 1, 60, 0
1, 1248, Note_on_c, 1, 65, 77
1, 1268, Note_on_c, 0, 69, 0
1, 1293, Note_on_c, 1, 65, 0
1, 1320, Note_on_c, 0, 72, 77
1, 1343, Note_on_c, 0, 72, 0
1, 1344, Note_on_c, 0, 72, 77
1, 1357, Note_on_c, 0, 72, 0
1, 1358, Note_on_c, 0, 74, 77
1, 1371, Note_on_c, 0, 74, 0
1, 1372, Note_on_c, 0, 72, 77
1, 1385, Note_on_c, 0, 72, 0
1, 1386, Note_on_c, 0, 74, 77
1, 1399, Note_on_c, 0, 74, 0
1, 1400, Note_on_c, 0, 72, 77
1, 1413, Note_on_c, 0, 72, 0
1, 1414, Note_on_c, 0, 71, 77
1, 1426, Note_on_c, 0, 71, 0
1, 1427, Note_on_c, 0, 72, 77
1, 1439, Note_on_c, 0, 72, 0
1, 1440, Note_on_c, 0, 84, 77
1, 1488, Note_on_c, 1, 69, 77
1, 1533, Note_on_c, 1, 69, 0
1, 1536, Note_on_c, 1, 66, 77
1, 1573, Note_on_c, 0, 84, 0
1, 1581, Note_on_c, 1, 66, 0
1, 1584, Note_on_c, 0, 82, 77
1, 1584, Note_on_c, 1, 67, 77
1, 1629, Note_on_c, 1, 67, 0
1, 1632, Note_on_c, 1, 64, 77
1, 1673, Note_on_c, 0, 82, 0
1, 1677, Note_on_c, 1, 64, 0
1, 1680, Note_on_c, 0, 81, 77
1, 1680, Note_on_c, 1, 65, 77
1, 1725, Note_on_c, 0, 81, 0
1, 1725, Note_on_c, 1, 65, 0
1, 1728, Note_on_c, 0, 81, 77
1, 1728, Note_on_c, 1, 58, 77
1, 1773, Note_on_c, 0, 81, 0
1, 1776, Note_on_c, 0, 74, 77
1, 1821, Note_on_c, 0, 74, 0
1, 1824, Note_on_c, 0, 79, 77
1, 1869, Note_on_c, 0, 79, 0
1, 1872, Note_on_c, 0, 76, 77
1, 1905, Note_on_c, 1, 58, 0
1, 1917, Note_on_c, 0, 76, 0
1, 1920, Note_on_c, 0, 77, 77
1, 1920, Note_on_c, 1, 57, 77
1, 1965, Note_on_c, 0, 77, 0
1, 1968, Note_on_c, 0, 72, 77
1, 2013, Note_on_c, 0, 72, 0
1, 2016, Note_on_c, 0, 72, 77
1, 2028, Note_on_c, 0, 72, 0
1, 2028, Note_on_c, 0, 70, 77
1, 2040, Note_on_c, 0, 70, 0
1, 2040, Note_on_c, 0, 69, 77
1, 2052, Note_on_c, 0, 69, 0
1, 2052, Note_on_c, 0, 70, 77
1, 2061, Note_on_c, 1, 57, 0
1, 2064, Note_on_c, 1, 50, 77
1, 2109, Note_on_c, 1, 50, 0
1, 2112, Note_on_c, 1, 55, 77
1, 2157, Note_on_c, 1, 55, 0
1, 2160, Note_on_c, 1, 52, 77
1, 2193, Note_on_c, 0, 70, 0
1, 2205, Note_on_c, 1, 52, 0
1, 2208, Note_on_c, 0, 69, 77
1, 2208, Note_on_c, 1, 53, 77
1, 2208, Note_on_c, 1, 53, 64
1, 2253, Note_on_c, 1, 53, 0
1, 2256, Note_on_c, 1, 47, 77
1, 2297, Note_on_c, 0, 69, 0
1, 2301, Note_on_c, 1, 47, 0
1, 2304, Note_on_c, 0, 69, 77
1, 2304, Note_on_c, 1, 48, 77
1, 2317, Note_on_c, 0, 69, 0
1, 2318, Note_on_c, 0, 70, 77
1, 2331, Note_on_c, 0, 70, 0
1, 2332, Note_on_c, 0, 69, 77
1, 2345, Note_on_c, 0, 69, 0
1, 2346, Note_on_c, 0, 70, 77
1, 2359, Note_on_c, 0, 70, 0
1, 2360, Note_on_c, 0, 69, 77
1, 2373, Note_on_c, 0, 69, 0
1, 2374, Note_on_c, 0, 67, 77
1, 2386, Note_on_c, 0, 67, 0
1, 2387, Note_on_c, 0, 69, 77
1, 2393, Note_on_c, 1, 53, 0
1, 2399, Note_on_c, 0, 69, 0
1, 2400, Note_on_c, 0, 67, 77
1, 2400, Note_on_c, 1, 52, 64
1, 2437, Note_on_c, 1, 48, 0
1, 2445, Note_on_c, 0, 67, 0
1, 2445, Note_on_c, 1, 52, 0
1, 2472, Note_on_c, 0, 72, 77
1, 2495, Note_on_c, 0, 72, 0
1, 2496, Note_on_c, 0, 72, 77
1, 2509, Note_on_c, 0, 72, 0
1, 2510, Note_on_c, 0, 74, 77
1, 2523, Note_on_c, 0, 74, 0
1, 2524, Note_on_c, 0, 72, 77
1, 2537, Note_on_c, 0, 72, 0
1, 2538, Note_on_c, 0, 74, 77
1, 2551, Note_on_c, 0, 74, 0
1, 2552, Note_on_c, 0, 72, 77
1, 2565, Note_on_c, 0, 72, 0
1, 2566, Note_on_c, 0, 71, 77
1, 2578, Note_on_c, 0, 71, 0
1, 2579, Note_on_c, 0, 72, 77
1, 2591, Note_on_c, 0, 72, 0
1, 2592, Note_on_c, 0, 77, 77
1, 2592, Note_on_c, 1, 69, 77
1, 2592, Note_on_c, 1, 65, 77
1, 2612, Note_on_c, 0, 77, 0
1, 2640, Note_on_c, 0, 76, 77
1, 2660, Note_on_c, 0, 76, 0
1, 2681, Note_on_c, 1, 69, 0
1, 2681, Note_on_c, 1, 65, 0
1, 2688, Note_on_c, 0, 74, 77
1, 2708, Note_on_c, 0, 74, 0
1, 2736, Note_on_c, 0, 72, 77
1, 2756, Note_on_c, 0, 72, 0
1, 2784, Note_on_c, 0, 70, 77
1, 2804, Note_on_c, 0, 70, 0
1, 2832, Note_on_c, 0, 69, 77
1, 2852, Note_on_c, 0, 69, 0
1, 2880, Note_on_c, 0, 67, 77
1, 2880, Note_on_c, 1, 62, 77
1, 2880, Note_on_c, 1, 58, 77
1, 2893, Note_on_c, 0, 67, 0
1, 2894, Note_on_c, 0, 69, 77
1, 2907, Note_on_c, 0, 69, 0
1, 2908, Note_on_c, 0, 67, 77
1, 2921, Note_on_c, 0, 67, 0
1, 2922, Note_on_c, 0, 69, 77
1, 2935, Note_on_c, 0, 69, 0
1, 2936, Note_on_c, 0, 67, 77
1, 2949, Note_on_c, 0, 67, 0
1, 2950, Note_on_c, 0, 69, 77
1, 2962, Note_on_c, 0, 69, 0
1, 2963, Note_on_c, 0, 67, 77
1, 2976, Note_on_c, 0, 67, 0
1, 2976, Note_on_c, 0, 65, 77
1, 2976, Note_on_c, 1, 62, 0
1, 2976, Note_on_c, 1, 58, 0
1, 2976, Note_on_c, 1, 60, 77
1, 2976, Note_on_c, 1, 57, 77
1, 2996, Note_on_c, 0, 65, 0
1, 3021, Note_on_c, 1, 60, 0
1, 3021, Note_on_c, 1, 57, 0
1, 3048, Note_on_c, 0, 72, 77
1, 3071, Note_on_c, 0, 72, 0
1, 3072, Note_on_c, 0, 72, 77
1, 3085, Note_on_c, 0, 72, 0
1, 3086, Note_on_c, 0, 74, 77
1, 3099, Note_on_c, 0, 74, 0
1, 3100, Note_on_c, 0, 72, 77
1, 3113, Note_on_c, 0, 72, 0
1, 3114, Note_on_c, 0, 74, 77
1, 3127, Note_on_c, 0, 74, 0
1, 3128, Note_on_c, 0, 72, 77
1, 3141, Note_on_c, 0, 72, 0
1, 3142, Note_on_c, 0, 71, 77
1, 3154, Note_on_c, 0, 71, 0
1, 3155, Note_on_c, 0, 72, 77
1, 3167, Note_on_c, 0, 72, 0
1, 3168, Note_on_c, 0, 81, 77
1, 3168, Note_on_c, 1, 69, 77
1, 3168, Note_on_c, 1, 65, 77
1, 3188, Note_on_c, 0, 81, 0
1, 3216, Note_on_c, 0, 79, 77
1, 3236, Note_on_c, 0, 79, 0
1, 3257, Note_on_c, 1, 69, 0
1, 3257, Note_on_c, 1, 65, 0
1, 3264, Note_on_c, 0, 77, 77
1, 3284, Note_on_c, 0, 77, 0
1, 3312, Note_on_c, 0, 76, 77
1, 3332, Note_on_c, 0, 76, 0
1, 3360, Note_on_c, 0, 74, 77
1, 3380, Note_on_c, 0, 74, 0
1, 3408, Note_on_c, 0, 72, 77
1, 3428, Note_on_c, 0, 72, 0
1, 3456, Note_on_c, 0, 70, 77
1, 3456, Note_on_c, 1, 67, 77
1, 3456, Note_on_c, 1, 60, 77
1, 3469, Note_on_c, 0, 70, 0
1, 3470, Note_on_c, 0, 72, 77
1, 3483, Note_on_c, 0, 72, 0
1, 3484, Note_on_c, 0, 70, 77
1, 3497, Note_on_c, 0, 70, 0
1, 3498, Note_on_c, 0, 72, 77
1, 3511, Note_on_c, 0, 72, 0
1, 3512, Note_on_c, 0, 70, 77
1, 3525, Note_on_c, 0, 70, 0
1, 3526, Note_on_c, 0, 72, 77
1, 3538, Note_on_c, 0, 72, 0
1, 3539, Note_on_c, 0, 70, 77
1, 3552, Note_on_c, 0, 70, 0
1, 3552, Note_on_c, 0, 69, 77
1, 3552, Note_on_c, 1, 67, 0
1, 3552, Note_on_c, 1, 60, 0
1, 3552, Note_on_c, 1, 65, 77
1, 3572, Note_on_c, 0, 69, 0
1, 3597, Note_on_c, 1, 65, 0
1, 3624, Note_on_c, 0, 72, 77
1, 3647, Note_on_c, 0, 72, 0
1, 3648, Note_on_c, 0, 72, 77
1, 3661, Note_on_c, 0, 72, 0
1, 3662, Note_on_c, 0, 74, 77
1, 3675, Note_on_c, 0, 74, 0
1, 3676, Note_on_c, 0, 72, 77
1, 3689, Note_on_c, 0, 72, 0
1, 3690, Note_on_c, 0, 74, 77
1, 3703, Note_on_c, 0, 74, 0
1, 3704, Note_on_c, 0, 72, 77
1, 3717, Note_on_c, 0, 72, 0
1, 3718, Note_on_c, 0, 71, 77
1, 3730, Note_on_c, 0, 71, 0
1, 3731, Note_on_c, 0, 72, 77
1, 3743, Note_on_c, 0, 72, 0
1, 3744, Note_on_c, 0, 84, 77
1, 3792, Note_on_c, 1, 69, 77
1, 3837, Note_on_c, 1, 69, 0
1, 3840, Note_on_c, 1, 66, 77
1, 3877, Note_on_c, 0, 84, 0
1, 3885, Note_on_c, 1, 66, 0
1, 3888, Note_on_c, 0, 82, 77
1, 3888, Note_on_c, 1, 67, 77
1, 3933, Note_on_c, 1, 67, 0
1, 3936, Note_on_c, 1, 64, 77
1, 3977, Note_on_c, 0, 82, 0
1, 3981, Note_on_c, 1, 64, 0
1, 3984, Note_on_c, 0, 81, 77
1, 3984, Note_on_c, 1, 65, 77
1, 4029, Note_on_c, 0, 81, 0
1, 4029, Note_on_c, 1, 65, 0
1, 4032, Note_on_c, 0, 81, 77
1, 4032, Note_on_c, 1, 58, 77
1, 4077, Note_on_c, 0, 81, 0
1, 4080, Note_on_c, 0, 74, 77
1, 4125, Note_on_c, 0, 74, 0
1, 4128, Note_on_c, 0, 79, 77
1, 4173, Note_on_c, 0, 79, 0
1, 4176, Note_on_c, 0, 76, 77
1, 4209, Note_on_c, 1, 58, 0
1, 4221, Note_on_c, 0, 76, 0
1, 4224, Note_on_c, 0, 77, 77
1, 4224, Note_on_c, 1, 57, 77
1, 4269, Note_on_c, 0, 77, 0
1, 4272, Note_on_c, 0, 72, 77
1, 4317, Note_on_c, 0, 72, 0
1, 4320, Note_on_c, 0, 72, 77
1, 4332, Note_on_c, 0, 72, 0
1, 4332, Note_on_c, 0, 70, 77
1, 4344, Note_on_c, 0, 70, 0
1, 4344, Note_on_c, 0, 69, 77
1, 4356, Note_on_c, 0, 69, 0
1, 4356, Note_on_c, 0, 70, 77
1, 4365, Note_on_c, 1, 57, 0
1, 4368, Note_on_c, 1, 50, 77
1, 4413, Note_on_c, 1, 50, 0
1, 4416, Note_on_c, 1, 55, 77
1, 4461, Note_on_c, 1, 55, 0
1, 4464, Note_on_c, 1, 52, 77
1, 4497, Note_on_c, 0, 70, 0
1, 4509, Note_on_c, 1, 52, 0
1, 4512, Note_on_c, 0, 69, 77
1, 4512, Note_on_c, 1, 53, 77
1, 4512, Note_on_c, 1, 53, 64
1, 4557, Note_on_c, 1, 53, 0
1, 4560, Note_on_c, 1, 47, 77
1, 4601, Note_on_c, 0, 69, 0
1, 4605, Note_on_c, 1, 47, 0
1, 4608, Note_on_c, 0, 69, 77
1, 4608, Note_on_c, 1, 48, 77
1, 4621, Note_on_c, 0, 69, 0
1, 4622, Note_on_c, 0, 70, 77
1, 4635, Note_on_c, 0, 70, 0
1, 4636, Note_on_c, 0, 69, 77
1, 4649, Note_on_c, 0, 69, 0
1, 4650, Note_on_c, 0, 70, 77
1, 4663, Note_on_c, 0, 70, 0
1, 4664, Note_on_c, 0, 69, 77
1, 4677, Note_on_c, 0, 69, 0
1, 4678, Note_on_c, 0, 67, 77
1, 4690, Note_on_c, 0, 67, 0
1, 4691, Note_on_c, 0, 69, 77
1, 4697, Note_on_c, 1, 53, 0
1, 4703, Note_on_c, 0, 69, 0
1, 4704, Note_on_c, 0, 67, 77
1, 4704, Note_on_c, 1, 52, 64
1, 4741, Note_on_c, 1, 48, 0
1, 4749, Note_on_c, 0, 67, 0
1, 4749, Note_on_c, 1, 52, 0
1, 4776, Note_on_c, 1, 48, 77
1, 4799, Note_on_c, 1, 48, 0
1, 4800, Note_on_c, 1, 48, 77
1, 4813, Note_on_c, 1, 48, 0
1, 4814, Note_on_c, 1, 50, 77
1, 4827, Note_on_c, 1, 50, 0
1, 4828, Note_on_c, 1, 48, 77
1, 4841, Note_on_c, 1, 48, 0
1, 4842, Note_on_c, 1, 50, 77
1, 4855, Note_on_c, 1, 50, 0
1, 4856, Note_on_c, 1, 48, 77
1, 4869, Note_on_c, 1, 48, 0
1, 4870, Note_on_c, 1, 47, 77
1, 4882, Note_on_c, 1, 47, 0
1, 4883, Note_on_c, 1, 48, 77
1, 4895, Note_on_c, 1, 48, 0
1, 4896, Note_on_c, 1, 60, 77
1, 4941, Note_on_c, 1, 60, 0
1, 4944, Note_on_c, 1, 58, 77
1, 4989, Note_on_c, 1, 58, 0
1, 4992, Note_on_c, 1, 57, 77
1, 5037, Note_on_c, 1, 57, 0
1, 5040, Note_on_c, 0, 63, 77
1, 5040, Note_on_c, 1, 55, 77
1, 5085, Note_on_c, 0, 63, 0
1, 5085, Note_on_c, 1, 55, 0
1, 5088, Note_on_c, 0, 62, 77
1, 5088, Note_on_c, 1, 54, 77
1, 5133, Note_on_c, 0, 62, 0
1, 5133, Note_on_c, 1, 54, 0
1, 5136, Note_on_c, 0, 72, 77
1, 5136, Note_on_c, 1, 57, 77
1, 5184, Note_on_c, 0, 72, 0
1, 5184, Note_on_c, 0, 70, 77
1, 5184, Note_on_c, 1, 57, 0
1, 5184, Note_on_c, 1, 55, 77
1, 5229, Note_on_c, 0, 70, 0
1, 5229, Note_on_c, 1, 55, 0
1, 5232, Note_on_c, 0, 61, 77
1, 5232, Note_on_c, 1, 53, 77
1, 5280, Note_on_c, 0, 61, 0
1, 5280, Note_on_c, 0, 60, 77
1, 5280, Note_on_c, 1, 53, 0
1, 5280, Note_on_c, 1, 52, 77
1, 5325, Note_on_c, 0, 60, 0
1, 5325, Note_on_c, 1, 52, 0
1, 5328, Note_on_c, 0, 70, 77
1, 5328, Note_on_c, 1, 55, 77
1, 5376, Note_on_c, 0, 70, 0
1, 5376, Note_on_c, 0, 69, 77
1, 5376, Note_on_c, 1, 55, 0
1, 5376, Note_on_c, 1, 53, 77
1, 5421, Note_on_c, 0, 69, 0
1, 5421, Note_on_c, 1, 53, 0
1, 5424, Note_on_c, 0, 65, 77
1, 5424, Note_on_c, 1, 45, 77
1, 5469, Note_on_c, 0, 65, 0
1, 5469, Note_on_c, 1, 45, 0
1, 5472, Note_on_c, 0, 62, 77
1, 5472, Note_on_c, 1, 46, 77
1, 5517, Note_on_c, 0, 62, 0
1, 5520, Note_on_c, 0, 66, 77
1, 5565, Note_on_c, 0, 66, 0
1, 5568, Note_on_c, 0, 67, 79
1, 5605, Note_on_c, 1, 46, 0
1, 5613, Note_on_c, 0, 67, 0
1, 5616, Note_on_c, 0, 69, 81
1, 5616, Note_on_c, 1, 45, 77
1, 5661, Note_on_c, 0, 69, 0
1, 5661, Note_on_c, 1, 45, 0
1, 5664, Note_on_c, 0, 72, 83
1, 5664, Note_on_c, 1, 43, 77
1, 5687, Note_on_c, 0, 72, 0
1, 5688, Note_on_c, 0, 70, 84
1, 5709, Note_on_c, 1, 43, 0
1, 5711, Note_on_c, 0, 70, 0
1, 5712, Note_on_c, 0, 69, 85
1, 5712, Note_on_c, 1, 46, 77
1, 5735, Note_on_c, 0, 69, 0
1, 5736, Note_on_c, 0, 67, 84
1, 5757, Note_on_c, 1, 46, 0
1, 5759, Note_on_c, 0, 67, 0
1, 5760, Note_on_c, 0, 65, 83
1, 5760, Note_on_c, 1, 48, 77
1, 5849, Note_on_c, 1, 48, 0
1, 5856, Note_on_c, 0, 65, 0
1, 5856, Note_on_c, 0, 64, 79
1, 5856, Note_on_c, 1, 36, 77
1, 5901, Note_on_c, 0, 64, 0
1, 5901, Note_on_c, 1, 36, 0
1, 5928, Note_on_c, 0, 60, 77
1, 5951, Note_on_c, 0, 60, 0
1, 5952, Note_on_c, 0, 60, 77
1, 5965, Note_on_c, 0, 60, 0
1, 5966, Note_on_c, 0, 62, 77
1, 5979, Note_on_c, 0, 62, 0
1, 5980, Note_on_c, 0, 60, 77
1, 5993, Note_on_c, 0, 60, 0
1, 5994, Note_on_c, 0, 62, 77
1, 6007, Note_on_c, 0, 62, 0
1, 6008, Note_on_c, 0, 60, 77
1, 6021, Note_on_c, 0, 60, 0
1, 6022, Note_on_c, 0, 59, 77
1, 6034, Note_on_c, 0, 59, 0
1, 6035, Note_on_c, 0, 60, 77
1, 6047, Note_on_c, 0, 60, 0
1, 6048, Note_on_c, 0, 70, 77
1, 6048, Note_on_c, 0, 67, 77
1, 6048, Note_on_c, 1, 48, 77
1, 6096, Note_on_c, 0, 70, 0
1, 6096, Note_on_c, 0, 67, 0
1, 6096, Note_on_c, 0, 69, 77
1, 6096, Note_on_c, 0, 65, 77
1, 6137, Note_on_c, 1, 48, 0
1, 6141, Note_on_c, 0, 69, 0
1, 6141, Note_on_c, 0, 65, 0
1, 6144, Note_on_c, 0, 67, 77
1, 6144, Note_on_c, 0, 64, 77
1, 6189, Note_on_c, 0, 67, 0
1, 6189, Note_on_c, 0, 64, 0
1, 6192, Note_on_c, 0, 72, 77
1, 6215, Note_on_c, 0, 72, 0
1, 6216, Note_on_c, 0, 74, 77
1, 6239, Note_on_c, 0, 74, 0
1, 6240, Note_on_c, 0, 76, 77
1, 6263, Note_on_c, 0, 76, 0
1, 6264, Note_on_c, 0, 77, 77
1, 6287, Note_on_c, 0, 77, 0
1, 6288, Note_on_c, 0, 79, 77
1, 6311, Note_on_c, 0, 79, 0
1, 6312, Note_on_c, 0, 81, 77
1, 6335, Note_on_c, 0, 81, 0
1, 6336, Note_on_c, 0, 82, 77
1, 6336, Note_on_c, 0, 79, 77
1, 6336, Note_on_c, 1, 60, 77
1, 6384, Note_on_c, 0, 82, 0
1, 6384, Note_on_c, 0, 79, 0
1, 6384, Note_on_c, 0, 81, 77
1, 6384, Note_on_c, 0, 77, 77
1, 6425, Note_on_c, 1, 60, 0
1, 6429, Note_on_c, 0, 81, 0
1, 6429, Note_on_c, 0, 77, 0
1, 6432, Note_on_c, 0, 79, 77
1, 6432, Note_on_c, 0, 76, 77
1, 6477, Note_on_c, 0, 79, 0
1, 6477, Note_on_c, 0, 76, 0
1, 6480, Note_on_c, 0, 76, 77
1, 6480, Note_on_c, 1, 60, 77
1, 6503, Note_on_c, 0, 76, 0
1, 6503, Note_on_c, 1, 60, 0
1, 6504, Note_on_c, 0, 77, 78
1, 6504, Note_on_c, 1, 62, 77
1, 6527, Note_on_c, 0, 77, 0
1, 6527, Note_on_c, 1, 62, 0
1, 6528, Note_on_c, 0, 79, 79
1, 6528, Note_on_c, 1, 64, 77
1, 6551, Note_on_c, 0, 79, 0
1, 6551, Note_on_c, 1, 64, 0
1, 6552, Note_on_c, 0, 81, 81
1, 6552, Note_on_c, 1, 65, 77
1, 6575, Note_on_c, 0, 81, 0
1, 6575, Note_on_c, 1, 65, 0
1, 6576, Note_on_c, 0, 82, 82
1, 6576, Note_on_c, 1, 67, 77
1, 6599, Note_on_c, 0, 82, 0
1, 6599, Note_on_c, 1, 67, 0
1, 6600, Note_on_c, 0, 84, 83
1, 6600, Note_on_c, 1, 69, 77
1, 6623, Note_on_c, 0, 84, 0
1, 6623, Note_on_c, 1, 69, 0
1, 6624, Note_on_c, 0, 86, 85
1, 6624, Note_on_c, 1, 70, 77
1, 6669, Note_on_c, 0, 86, 0
1, 6672, Note_on_c, 0, 82, 85
1, 6717, Note_on_c, 0, 82, 0
1, 6720, Note_on_c, 0, 79, 85
1, 6765, Note_on_c, 0, 79, 0
1, 6768, Note_on_c, 0, 88, 85
1, 6801, Note_on_c, 1, 70, 0
1, 6813, Note_on_c, 0, 88, 0
1, 6816, Note_on_c, 0, 89, 85
1, 6816, Note_on_c, 1, 69, 77
1, 6861, Note_on_c, 0, 89, 0
1, 6864, Note_on_c, 0, 77, 85
1, 6909, Note_on_c, 0, 77, 0
1, 6912, Note_on_c, 0, 84, 85
1, 6924, Note_on_c, 0, 84, 0
1, 6924, Note_on_c, 0, 82, 85
1, 6936, Note_on_c, 0, 82, 0
1, 6936, Note_on_c, 0, 81, 85
1, 6948, Note_on_c, 0, 81, 0
1, 6948, Note_on_c, 0, 82, 85
1, 6957, Note_on_c, 1, 69, 0
1, 6960, Note_on_c, 1, 62, 77
1, 7005, Note_on_c, 1, 62, 0
1, 7008, Note_on_c, 1, 67, 77
1, 7053, Note_on_c, 1, 67, 0
1, 7056, Note_on_c, 1, 64, 77
1, 7101, Note_on_c, 1, 64, 0
1, 7104, Note_on_c, 0, 82, 0
1, 7104, Note_on_c, 0, 81, 85
1, 7104, Note_on_c, 1, 65, 77
1, 7149, Note_on_c, 1, 65, 0
1, 7152, Note_on_c, 1, 57, 77
1, 7193, Note_on_c, 0, 81, 0
1, 7197, Note_on_c, 1, 57, 0
1, 7200, Note_on_c, 1, 58, 77
1, 7248, Note_on_c, 0, 66, 83
1, 7289, Note_on_c, 1, 58, 0
1, 7293, Note_on_c, 0, 66, 0
1, 7296, Note_on_c, 0, 67, 82
1, 7341, Note_on_c, 0, 67, 0
1, 7344, Note_on_c, 0, 74, 81
1, 7389, Note_on_c, 0, 74, 0
1, 7392, Note_on_c, 1, 48, 77
1, 7440, Note_on_c, 0, 64, 78
1, 7440, Note_on_c, 0, 58, 78
1, 7481, Note_on_c, 1, 48, 0
1, 7485, Note_on_c, 0, 64, 0
1, 7485, Note_on_c, 0, 58, 0
1, 7488, Note_on_c, 0, 65, 77
1, 7488, Note_on_c, 0, 57, 77
1, 7488, Note_on_c, 1, 53, 77
1, 7577, Note_on_c, 0, 65, 0
1, 7577, Note_on_c, 0, 57, 0
1, 7577, Note_on_c, 1, 53, 0
1, 7584, Note_on_c, 1, 41, 77
1, 7629, Note_on_c, 1, 41, 0
1, 7656, Note_on_c, 1, 48, 77
1, 7679, Note_on_c, 1, 48, 0
1, 7680, Note_on_c, 1, 48, 77
1, 7693, Note_on_c, 1, 48, 0
1, 7694, Note_on_c, 1, 50, 77
1, 7707, Note_on_c, 1, 50, 0
1, 7708, Note_on_c, 1, 48, 77
1, 7721, Note_on_c, 1, 48, 0
1, 7722, Note_on_c, 1, 50, 77
1, 7735, Note_on_c, 1, 50, 0
1, 7736, Note_on_c, 1, 48, 77
1, 7749, Note_on_c, 1, 48, 0
1, 7750, Note_on_c, 1, 47, 77
1, 7762, Note_on_c, 1, 47, 0
1, 7763, Note_on_c, 1, 48, 77
1, 7775, Note_on_c, 1, 48, 0
1, 7776, Note_on_c, 1, 60, 77
1, 7821, Note_on_c, 1, 60, 0
1, 7824, Note_on_c, 1, 58, 77
1, 7869, Note_on_c, 1, 58, 0
1, 7872, Note_on_c, 1, 57, 77
1, 7917, Note_on_c, 1, 57, 0
1, 7920, Note_on_c, 0, 63, 77
1, 7920, Note_on_c, 1, 55, 77
1, 7965, Note_on_c, 0, 63, 0
1, 7965, Note_on_c, 1, 55, 0
1, 7968, Note_on_c, 0, 62, 77
1, 7968, Note_on_c, 1, 54, 77
1, 8013, Note_on_c, 0, 62, 0
1, 8013, Note_on_c, 1, 54, 0
1, 8016, Note_on_c, 0, 72, 77
1, 8016, Note_on_c, 1, 57, 77
1, 8064, Note_on_c, 0, 72, 0
1, 8064, Note_on_c, 0, 70, 77
1, 8064, Note_on_c, 1, 57, 0
1, 8064, Note_on_c, 1, 55, 77
1, 8109, Note_on_c, 0, 70, 0
1, 8109, Note_on_c, 1, 55, 0
1, 8112, Note_on_c, 0, 61, 77
1, 8112, Note_on_c, 1, 53, 77
1, 8160, Note_on_c, 0, 61, 0
1, 8160, Note_on_c, 0, 60, 77
1, 8160, Note_on_c, 1, 53, 0
1, 8160, Note_on_c, 1, 52, 77
1, 8205, Note_on_c, 0, 60, 0
1, 8205, Note_on_c, 1, 52, 0
1, 8208, Note_on_c, 0, 70, 77
1, 8208, Note_on_c, 1, 55, 77
1, 8256, Note_on_c, 0, 70, 0
1, 8256, Note_on_c, 0, 69, 77
1, 8256, Note_on_c, 1, 55, 0
1, 8256, Note_on_c, 1, 53, 77
1, 8301, Note_on_c, 0, 69, 0
1, 8301, Note_on_c, 1, 53, 0
1, 8304, Note_on_c, 0, 65, 77
1, 8304, Note_on_c, 1, 45, 77
1, 8349, Note_on_c, 0, 65, 0
1, 8349, Note_on_c, 1, 45, 0
1, 8352, Note_on_c, 0, 62, 77
1, 8352, Note_on_c, 1, 46, 77
1, 8397, Note_on_c, 0, 62, 0
1, 8400, Note_on_c, 0, 66, 77
1, 8445, Note_on_c, 0, 66, 0
1, 8448, Note_on_c, 0, 67, 79
1, 8485, Note_on_c, 1, 46, 0
1, 8493, Note_on_c, 0, 67, 0
1, 8496, Note_on_c, 0, 69, 81
1, 8496, Note_on_c, 1, 45, 77
1, 8541, Note_on_c, 0, 69, 0
1, 8541, Note_on_c, 1, 45, 0
1, 8544, Note_on_c, 0, 72, 83
1, 8544, Note_on_c, 1, 43, 77
1, 8567, Note_on_c, 0, 72, 0
1, 8568, Note_on_c, 0, 70, 84
1, 8589, Note_on_c, 1, 43, 0
1, 8591, Note_on_c, 0, 70, 0
1, 8592, Note_on_c, 0, 69, 85
1, 8592, Note_on_c, 1, 46, 77
1, 8615, Note_on_c, 0, 69, 0
1, 8616, Note_on_c, 0, 67, 84
1, 8637, Note_on_c, 1, 46, 0
1, 8639, Note_on_c, 0, 67, 0
1, 8640, Note_on_c, 0, 65, 83
1, 8640, Note_on_c, 1, 48, 77
1, 8729, Note_on_c, 1, 48, 0
1, 8736, Note_on_c, 0, 65, 0
1, 8736, Note_on_c, 0, 64, 79
1, 8736, Note_on_c, 1, 36, 77
1, 8781, Note_on_c, 0, 64, 0
1, 8781, Note_on_c, 1, 36, 0
1, 8808, Note_on_c, 0, 60, 77
1, 8831, Note_on_c, 0, 60, 0
1, 8832, Note_on_c, 0, 60, 77
1, 8845, Note_on_c, 0, 60, 0
1, 8846, Note_on_c, 0, 62, 77
1, 8859, Note_on_c, 0, 62, 0
1, 8860, Note_on_c, 0, 60, 77
1, 8873, Note_on_c, 0, 60, 0
1, 8874, Note_on_c, 0, 62, 77
1, 8887, Note_on_c, 0, 62, 0
1, 8888, Note_on_c, 0, 60, 77
1, 8901, Note_on_c, 0, 60, 0
1, 8902, Note_on_c, 0, 59, 77
1, 8914, Note_on_c, 0, 59, 0
1, 8915, Note_on_c, 0, 60, 77
1, 8927, Note_on_c, 0, 60, 0
1, 8928, Note_on_c, 0, 70, 77
1, 8928, Note_on_c, 0, 67, 77
1, 8928, Note_on_c, 1, 48, 77
1, 8976, Note_on_c, 0, 70, 0
1, 8976, Note_on_c, 0, 67, 0
1, 8976, Note_on_c, 0, 69, 77
1, 8976, Note_on_c, 0, 65, 77
1, 9017, Note_on_c, 1, 48, 0
1, 9021, Note_on_c, 0, 69, 0
1, 9021, Note_on_c, 0, 65, 0
1, 9024, Note_on_c, 0, 67, 77
1, 9024, Note_on_c, 0, 64, 77
1, 9069, Note_on_c, 0, 67, 0
1, 9069, Note_on_c, 0, 64, 0
1, 9072, Note_on_c, 0, 72, 77
1, 9095, Note_on_c, 0, 72, 0
1, 9096, Note_on_c, 0, 74, 77
1, 9119, Note_on_c, 0, 74, 0
1, 9120, Note_on_c, 0, 76, 77
1, 9143, Note_on_c, 0, 76, 0
1, 9144, Note_on_c, 0, 77, 77
1, 9167, Note_on_c, 0, 77, 0
1, 9168, Note_on_c, 0, 79, 77
1, 9191, Note_on_c, 0, 79, 0
1, 9192, Note_on_c, 0, 81, 77
1, 9215, Note_on_c, 0, 81, 0
1, 9216, Note_on_c, 0, 82, 77
1, 9216, Note_on_c, 0, 79, 77
1, 9216, Note_on_c, 1, 60, 77
1, 9264, Note_on_c, 0, 82, 0
1, 9264, Note_on_c, 0, 79, 0
1, 9264, Note_on_c, 0, 81, 77
1, 9264, Note_on_c, 0, 77, 77
1, 9305, Note_on_c, 1, 60, 0
1, 9309, Note_on_c, 0, 81, 0
1, 9309, Note_on_c, 0, 77, 0
1, 9312, Note_on_c, 0, 79, 77
1, 9312, Note_on_c, 0, 76, 77
1, 9357, Note_on_c, 0, 79, 0
1, 9357, Note_on_c, 0, 76, 0
1, 9360, Note_on_c, 0, 76, 77
1, 9360, Note_on_c, 1, 60, 77
1, 9383, Note_on_c, 0, 76, 0
1, 9383, Note_on_c, 1, 60, 0
1, 9384, Note_on_c, 0, 77, 78
1, 9384, Note_on_c, 1, 62, 77
1, 9407, Note_on_c, 0, 77, 0
1, 9407, Note_on_c, 1, 62, 0
1, 9408, Note_on_c, 0, 79, 79
1, 9408, Note_on_c, 1, 64, 77
1, 9431, Note_on_c, 0, 79, 0
1, 9431, Note_on_c, 1, 64, 0
1, 9432, Note_on_c, 0, 81, 81
1, 9432, Note_on_c, 1, 65, 77
1, 9455, Note_on_c, 0, 81, 0
1, 9455, Note_on_c, 1, 65, 0
1, 9456, Note_on_c, 0, 82, 82
1, 9456, Note_on_c, 1, 67, 77
1, 9479, Note_on_c, 0, 82, 0
1, 9479, Note_on_c, 1, 67, 0
1, 9480, Note_on_c, 0, 84, 83
1, 9480, Note_on_c, 1, 69, 77
1, 9503, Note_on_c, 0, 84, 0
1, 9503, Note_on_c, 1, 69, 0
1, 9504, Note_on_c, 0, 86, 85
1, 9504, Note_on_c, 1, 70, 77
1, 9549, Note_on_c, 0, 86, 0
1, 9552, Note_on_c, 0, 82, 85
1, 9597, Note_on_c, 0, 82, 0
1, 9600, Note_on_c, 0, 79, 85
1, 9645, Note_on_c, 0, 79, 0
1, 9648, Note_on_c, 0, 88, 85
1, 9681, Note_on_c, 1, 70, 0
1, 9693, Note_on_c, 0, 88, 0
1, 9696, Note_on_c, 0, 89, 85
1, 9696, Note_on_c, 1, 69, 77
1, 9741, Note_on_c, 0, 89, 0
1, 9744, Note_on_c, 0, 77, 85
1, 9789, Note_on_c, 0, 77, 0
1, 9792, Note_on_c, 0, 84, 85
1, 9804, Note_on_c, 0, 84, 0
1, 9804, Note_on_c, 0, 82, 85
1, 9816, Note_on_c, 0, 82, 0
1, 9816, Note_on_c, 0, 81, 85
1, 9828, Note_on_c, 0, 81, 0
1, 9828, Note_on_c, 0, 82, 85
1, 9837, Note_on_c, 1, 69, 0
1, 9840, Note_on_c, 1, 62, 77
1, 9885, Note_on_c, 1, 62, 0
1, 9888, Note_on_c, 1, 67, 77
1, 9933, Note_on_c, 1, 67, 0
1, 9936, Note_on_c, 1, 64, 77
1, 9981, Note_on_c, 1, 64, 0
1, 9984, Note_on_c, 0, 82, 0
1, 9984, Note_on_c, 0, 81, 85
1, 9984, Note_on_c, 1, 65, 77
1, 10029, Note_on_c, 1, 65, 0
1, 10032, Note_on_c, 1, 57, 77
1, 10073, Note_on_c, 0, 81, 0
1, 10077, Note_on_c, 1, 57, 0
1, 10080, Note_on_c, 1, 58, 77
1, 10128, Note_on_c, 0, 66, 83
1, 10169, Note_on_c, 1, 58, 0
1, 10173, Note_on_c, 0, 66, 0
1, 10176, Note_on_c, 0, 67, 82
1, 10221, Note_on_c, 0, 67, 0
1, 10224, Note_on_c, 0, 74, 81
1, 10269, Note_on_c, 0, 74, 0
1, 10272, Note_on_c, 1, 48, 77
1, 10320, Note_on_c, 0, 64, 78
1, 10320, Note_on_c, 0, 58, 78
1, 10361, Note_on_c, 1, 48, 0
1, 10365, Note_on_c, 0, 64, 0
1, 10365, Note_on_c, 0, 58, 0
1, 10368, Note_on_c, 0, 65, 77
1, 10368, Note_on_c, 0, 57, 77
1, 10368, Note_on_c, 1, 53, 77
1, 10457, Note_on_c, 0, 65, 0
1, 10457, Note_on_c, 0, 57, 0
1, 10457, Note_on_c, 1, 53, 0
1, 10464, Note_on_c, 1, 41, 77
1, 10509, Note_on_c, 1, 41, 0
1, 10560, Note_on_c, 0, 72, 69
1, 10605, Note_on_c, 0, 72, 0
1, 10608, Note_on_c, 0, 68, 69
1, 10653, Note_on_c, 0, 68, 0
1, 10656, Note_on_c, 0, 65, 69
1, 10704, Note_on_c, 1, 60, 61
1, 10704, Note_on_c, 1, 56, 61
1, 10752, Note_on_c, 1, 60, 0
1, 10752, Note_on_c, 1, 56, 0
1, 10752, Note_on_c, 1, 58, 61
1, 10752, Note_on_c, 1, 55, 61
1, 10789, Note_on_c, 0, 65, 0
1, 10800, Note_on_c, 0, 64, 69
1, 10845, Note_on_c, 0, 64, 0
1, 10848, Note_on_c, 0, 70, 69
1, 10885, Note_on_c, 1, 58, 0
1, 10885, Note_on_c, 1, 55, 0
1, 10896, Note_on_c, 1, 52, 61
1, 10896, Note_on_c, 1, 48, 61
1, 10944, Note_on_c, 1, 52, 0
1, 10944, Note_on_c, 1, 48, 0
1, 10944, Note_on_c, 1, 53, 61
1, 10944, Note_on_c, 1, 49, 61
1, 10989, Note_on_c, 0, 70, 0
1, 10992, Note_on_c, 0, 68, 69
1, 11037, Note_on_c, 0, 68, 0
1, 11040, Note_on_c, 0, 77, 69
1, 11077, Note_on_c, 1, 53, 0
1, 11077, Note_on_c, 1, 49, 0
1, 11088, Note_on_c, 1, 48, 61
1, 11088, Note_on_c, 1, 44, 61
1, 11136, Note_on_c, 1, 48, 0
1, 11136, Note_on_c, 1, 44, 0
1, 11136, Note_on_c, 1, 49, 61
1, 11136, Note_on_c, 1, 46, 61
1, 11173, Note_on_c, 0, 77, 0
1, 11184, Note_on_c, 0, 65, 69
1, 11229, Note_on_c, 0, 65, 0
1, 11232, Note_on_c, 0, 73, 69
1, 11277, Note_on_c, 1, 49, 0
1, 11277, Note_on_c, 1, 46, 0
1, 11280, Note_on_c, 1, 56, 61
1, 11280, Note_on_c, 1, 53, 61
1, 11325, Note_on_c, 1, 56, 0
1, 11325, Note_on_c, 1, 53, 0
1, 11328, Note_on_c, 1, 55, 61
1, 11328, Note_on_c, 1, 52, 64
1, 11365, Note_on_c, 0, 73, 0
1, 11376, Note_on_c, 0, 60, 69
1, 11417, Note_on_c, 1, 55, 0
1, 11421, Note_on_c, 0, 60, 0
1, 11424, Note_on_c, 0, 72, 69
1, 11424, Note_on_c, 1, 60, 61
1, 11469, Note_on_c, 0, 72, 0
1, 11472, Note_on_c, 0, 70, 69
1, 11505, Note_on_c, 1, 52, 0
1, 11513, Note_on_c, 1, 60, 0
1, 11517, Note_on_c, 0, 70, 0
1, 11520, Note_on_c, 0, 68, 69
1, 11520, Note_on_c, 1, 60, 61
1, 11520, Note_on_c, 1, 53, 64
1, 11533, Note_on_c, 0, 68, 0
1, 11534, Note_on_c, 0, 70, 69
1, 11547, Note_on_c, 0, 70, 0
1, 11548, Note_on_c, 0, 68, 69
1, 11561, Note_on_c, 0, 68, 0
1, 11562, Note_on_c, 0, 70, 69
1, 11575, Note_on_c, 0, 70, 0
1, 11576, Note_on_c, 0, 68, 69
1, 11589, Note_on_c, 0, 68, 0
1, 11590, Note_on_c, 0, 67, 69
1, 11602, Note_on_c, 0, 67, 0
1, 11603, Note_on_c, 0, 68, 69
1, 11609, Note_on_c, 1, 60, 0
1, 11609, Note_on_c, 1, 53, 0
1, 11615, Note_on_c, 0, 68, 0
1, 11616, Note_on_c, 0, 67, 69
1, 11616, Note_on_c, 1, 60, 61
1, 11616, Note_on_c, 1, 48, 64
1, 11705, Note_on_c, 0, 67, 0
1, 11705, Note_on_c, 1, 60, 0
1, 11705, Note_on_c, 1, 48, 0
1, 11712, Note_on_c, 0, 72, 69
1, 11757, Note_on_c, 0, 72, 0
1, 11760, Note_on_c, 0, 68, 69
1, 11805, Note_on_c, 0, 68, 0
1, 11808, Note_on_c, 0, 65, 69
1, 11856, Note_on_c, 1, 60, 61
1, 11856, Note_on_c, 1, 56, 61
1, 11904, Note_on_c, 1, 60, 0
1, 11904, Note_on_c, 1, 56, 0
1, 11904, Note_on_c, 1, 58, 61
1, 11904, Note_on_c, 1, 55, 61
1, 11941, Note_on_c, 0, 65, 0
1, 11952, Note_on_c, 0, 64, 69
1, 11997, Note_on_c, 0, 64, 0
1, 12000, Note_on_c, 0, 70, 69
1, 12037, Note_on_c, 1, 58, 0
1, 12037, Note_on_c, 1, 55, 0
1, 12048, Note_on_c, 1, 52, 61
1, 12048, Note_on_c, 1, 48, 61
1, 12096, Note_on_c, 1, 52, 0
1, 12096, Note_on_c, 1, 48, 0
1, 12096, Note_on_c, 1, 53, 61
1, 12096, Note_on_c, 1, 49, 61
1, 12141, Note_on_c, 0, 70, 0
1, 12144, Note_on_c, 0, 68, 69
1, 12189, Note_on_c, 0, 68, 0
1, 12192, Note_on_c, 0, 73, 69
1, 12229, Note_on_c, 1, 53, 0
1, 12229, Note_on_c, 1, 49, 0
1, 12240, Note_on_c, 1, 68, 61
1, 12240, Note_on_c, 1, 65, 61
1, 12288, Note_on_c, 1, 68, 0
1, 12288, Note_on_c, 1, 65, 0
1, 12288, Note_on_c, 1, 67, 61
1, 12288, Note_on_c, 1, 63, 61
1, 12325, Note_on_c, 0, 73, 0
1, 12336, Note_on_c, 0, 70, 69
1, 12336, Note_on_c, 0, 67, 69
1, 12381, Note_on_c, 0, 70, 0
1, 12381, Note_on_c, 0, 67, 0
1, 12384, Note_on_c, 0, 72, 69
1, 12384, Note_on_c, 0, 68, 69
1, 12429, Note_on_c, 1, 67, 0
1, 12429, Note_on_c, 1, 63, 0
1, 12432, Note_on_c, 1, 50, 61
1, 12432, Note_on_c, 1, 38, 61
1, 12477, Note_on_c, 1, 50, 0
1, 12477, Note_on_c, 1, 38, 0
1, 12480, Note_on_c, 1, 51, 61
1, 12480, Note_on_c, 1, 39, 61
1, 12517, Note_on_c, 0, 72, 0
1, 12517, Note_on_c, 0, 68, 0
1, 12528, Note_on_c, 0, 73, 69
1, 12528, Note_on_c, 0, 70, 69
1, 12569, Note_on_c, 1, 51, 0
1, 12569, Note_on_c, 1, 39, 0
1, 12573, Note_on_c, 0, 73, 0
1, 12573, Note_on_c, 0, 70, 0
1, 12576, Note_on_c, 0, 72, 69
1, 12576, Note_on_c, 0, 68, 69
1, 12576, Note_on_c, 1, 51, 61
1, 12621, Note_on_c, 0, 72, 0
1, 12621, Note_on_c, 0, 68, 0
1, 12624, Note_on_c, 0, 70, 69
1, 12624, Note_on_c, 0, 67, 69
1, 12665, Note_on_c, 1, 51, 0
1, 12669, Note_on_c, 0, 70, 0
1, 12669, Note_on_c, 0, 67, 0
1, 12672, Note_on_c, 0, 70, 69
1, 12672, Note_on_c, 1, 56, 61
1, 12684, Note_on_c, 0, 70, 0
1, 12684, Note_on_c, 0, 68, 69
1, 12696, Note_on_c, 0, 68, 0
1, 12696, Note_on_c, 0, 67, 69
1, 12708, Note_on_c, 0, 67, 0
1, 12708, Note_on_c, 0, 68, 69
1, 12761, Note_on_c, 1, 56, 0
1, 12768, Note_on_c, 1, 44, 61
1, 12849, Note_on_c, 0, 68, 0
1, 12857, Note_on_c, 1, 44, 0
1, 12864, Note_on_c, 0, 72, 69
1, 12909, Note_on_c, 0, 72, 0
1, 12912, Note_on_c, 0, 68, 69
1, 12957, Note_on_c, 0, 68, 0
1, 12960, Note_on_c, 0, 65, 69
1, 13008, Note_on_c, 1, 60, 61
1, 13008, Note_on_c, 1, 56, 61
1, 13056, Note_on_c, 1, 60, 0
1, 13056, Note_on_c, 1, 56, 0
1, 13056, Note_on_c, 1, 58, 61
1, 13056, Note_on_c, 1, 55, 61
1, 13093, Note_on_c, 0, 65, 0
1, 13104, Note_on_c, 0, 64, 69
1, 13149, Note_on_c, 0, 64, 0
1, 13152, Note_on_c, 0, 70, 69
1, 13189, Note_on_c, 1, 58, 0
1, 13189, Note_on_c, 1, 55, 0
1, 13200, Note_on_c, 1, 52, 61
1, 13200, Note_on_c, 1, 48, 61
1, 13248, Note_on_c, 1, 52, 0
1, 13248, Note_on_c, 1, 48, 0
1, 13248, Note_on_c, 1, 53, 61
1, 13248, Note_on_c, 1, 49, 61
1, 13293, Note_on_c, 0, 70, 0
1, 13296, Note_on_c, 0, 68, 69
1, 13341, Note_on_c, 0, 68, 0
1, 13344, Note_on_c, 0, 77, 69
1, 13381, Note_on_c, 1, 53, 0
1, 13381, Note_on_c, 1, 49, 0
1, 13392, Note_on_c, 1, 48, 61
1, 13392, Note_on_c, 1, 44, 61
1, 13440, Note_on_c, 1, 48, 0
1, 13440, Note_on_c, 1, 44, 0
1, 13440, Note_on_c, 1, 49, 61
1, 13440, Note_on_c, 1, 46, 61
1, 13477, Note_on_c, 0, 77, 0
1, 13488, Note_on_c, 0, 65, 69
1, 13533, Note_on_c, 0, 65, 0
1, 13536, Note_on_c, 0, 73, 69
1, 13581, Note_on_c, 1, 49, 0
1, 13581, Note_on_c, 1, 46, 0
1, 13584, Note_on_c, 1, 56, 61
1, 13584, Note_on_c, 1, 53, 61
1, 13629, Note_on_c, 1, 56, 0
1, 13629, Note_on_c, 1, 53, 0
1, 13632, Note_on_c, 1, 55, 61
1, 13632, Note_on_c, 1, 52, 64
1, 13669, Note_on_c, 0, 73, 0
1, 13680, Note_on_c, 0, 60, 69
1, 13721, Note_on_c, 1, 55, 0
1, 13725, Note_on_c, 0, 60, 0
1, 13728, Note_on_c, 0, 72, 69
1, 13728, Note_on_c, 1, 60, 61
1, 13773, Note_on_c, 0, 72, 0
1, 13776, Note_on_c, 0, 70, 69
1, 13809, Note_on_c, 1, 52, 0
1, 13817, Note_on_c, 1, 60, 0
1, 13821, Note_on_c, 0, 70, 0
1, 13824, Note_on_c, 0, 68, 69
1, 13824, Note_on_c, 1, 60, 61
1, 13824, Note_on_c, 1, 53, 64
1, 13837, Note_on_c, 0, 68, 0
1, 13838, Note_on_c, 0, 70, 69
1, 13851, Note_on_c, 0, 70, 0
1, 13852, Note_on_c, 0, 68, 69
1, 13865, Note_on_c, 0, 68, 0
1, 13866, Note_on_c, 0, 70, 69
1, 13879, Note_on_c, 0, 70, 0
1, 13880, Note_on_c, 0, 68, 69
1, 13893, Note_on_c, 0, 68, 0
1, 13894, Note_on_c, 0, 67, 69
1, 13906, Note_on_c, 0, 67, 0
1, 13907, Note_on_c, 0, 68, 69
1, 13913, Note_on_c, 1, 60, 0
1, 13913, Note_on_c, 1, 53, 0
1, 13919, Note_on_c, 0, 68, 0
1, 13920, Note_on_c, 0, 67, 69
1, 13920, Note_on_c, 1, 60, 61
1, 13920, Note_on_c, 1, 48, 64
1, 14009, Note_on_c, 0, 67, 0
1, 14009, Note_on_c, 1, 60, 0
1, 14009, Note_on_c, 1, 48, 0
1, 14016, Note_on_c, 0, 72, 69
1, 14061, Note_on_c, 0, 72, 0
1, 14064, Note_on_c, 0, 68, 69
1, 14109, Note_on_c, 0, 68, 0
1, 14112, Note_on_c, 0, 65, 69
1, 14160, Note_on_c, 1, 60, 61
1, 14160, Note_on_c, 1, 56, 61
1, 14208, Note_on_c, 1, 60, 0
1, 14208, Note_on_c, 1, 56, 0
1, 14208, Note_on_c, 1, 58, 61
1, 14208, Note_on_c, 1, 55, 61
1, 14245, Note_on_c, 0, 65, 0
1, 14256, Note_on_c, 0, 64, 69
1, 14301, Note_on_c, 0, 64, 0
1, 14304, Note_on_c, 0, 70, 69
1, 14341, Note_on_c, 1, 58, 0
1, 14341, Note_on_c, 1, 55, 0
1, 14352, Note_on_c, 1, 52, 61
1, 14352, Note_on_c, 1, 48, 61
1, 14400, Note_on_c, 1, 52, 0
1, 14400, Note_on_c, 1, 48, 0
1, 14400, Note_on_c, 1, 53, 61
1, 14400, Note_on_c, 1, 49, 61
1, 14445, Note_on_c, 0, 70, 0
1, 14448, Note_on_c, 0, 68, 69
1, 14493, Note_on_c, 0, 68, 0
1, 14496, Note_on_c, 0, 73, 69
1, 14533, Note_on_c, 1, 53, 0
1, 14533, Note_on_c, 1, 49, 0
1, 14544, Note_on_c, 1, 68, 61
1, 14544, Note_on_c, 1, 65, 61
1, 14592, Note_on_c, 1, 68, 0
1, 14592, Note_on_c, 1, 65, 0
1, 14592, Note_on_c, 1, 67, 61
1, 14592, Note_on_c, 1, 63, 61
1, 14629, Note_on_c, 0, 73, 0
1, 14640, Note_on_c, 0, 70, 69
1, 14640, Note_on_c, 0, 67, 69
1, 14685, Note_on_c, 0, 70, 0
1, 14685, Note_on_c, 0, 67, 0
1, 14688, Note_on_c, 0, 72, 69
1, 14688, Note_on_c, 0, 68, 69
1, 14733, Note_on_c, 1, 67, 0
1, 14733, Note_on_c, 1, 63, 0
1, 14736, Note_on_c, 1, 50, 61
1, 14736, Note_on_c, 1, 38, 61
1, 14781, Note_on_c, 1, 50, 0
1, 14781, Note_on_c, 1, 38, 0
1, 14784, Note_on_c, 1, 51, 61
1, 14784, Note_on_c, 1, 39, 61
1, 14821, Note_on_c, 0, 72, 0
1, 14821, Note_on_c, 0, 68, 0
1, 14832, Note_on_c, 0, 73, 69
1, 14832, Note_on_c, 0, 70, 69
1, 14873, Note_on_c, 1, 51, 0
1, 14873, Note_on_c, 1, 39, 0
1, 14877, Note_on_c, 0, 73, 0
1, 14877, Note_on_c, 0, 70, 0
1, 14880, Note_on_c, 0, 72, 69
1, 14880, Note_on_c, 0, 68, 69
1, 14880, Note_on_c, 1, 51, 61
1, 14925, Note_on_c, 0, 72, 0
1, 14925, Note_on_c, 0, 68, 0
1, 14928, Note_on_c, 0, 70, 69
1, 14928, Note_on_c, 0, 67, 69
1, 14969, Note_on_c, 1, 51, 0
1, 14973, Note_on_c, 0, 70, 0
1, 14973, Note_on_c, 0, 67, 0
1, 14976, Note_on_c, 0, 70, 69
1, 14976, Note_on_c, 1, 56, 61
1, 14988, Note_on_c, 0, 70, 0
1, 14988, Note_on_c, 0, 68, 69
1, 15000, Note_on_c, 0, 68, 0
1, 15000, Note_on_c, 0, 67, 69
1, 15012, Note_on_c, 0, 67, 0
1, 15012, Note_on_c, 0, 68, 69
1, 15065, Note_on_c, 1, 56, 0
1, 15072, Note_on_c, 1, 44, 61
1, 15153, Note_on_c, 0, 68, 0
1, 15161, Note_on_c, 1, 44, 0
1, 15168, Note_on_c, 1, 63, 61
1, 15213, Note_on_c, 1, 63, 0
1, 15216, Note_on_c, 1, 60, 61
1, 15261, Note_on_c, 1, 60, 0
1, 15264, Note_on_c, 1, 54, 69
1, 15312, Note_on_c, 0, 70, 69
1, 15312, Note_on_c, 0, 61, 69
1, 15357, Note_on_c, 0, 70, 0
1, 15357, Note_on_c, 0, 61, 0
1, 15360, Note_on_c, 0, 69, 69
1, 15360, Note_on_c, 0, 60, 69
1, 15397, Note_on_c, 1, 54, 0
1, 15408, Note_on_c, 1, 53, 69
1, 15453, Note_on_c, 1, 53, 0
1, 15456, Note_on_c, 1, 51, 69
1, 15493, Note_on_c, 0, 69, 0
1, 15493, Note_on_c, 0, 60, 0
1, 15501, Note_on_c, 1, 51, 0
1, 15504, Note_on_c, 0, 70, 69
1, 15504, Note_on_c, 0, 61, 69
1, 15504, Note_on_c, 1, 49, 69
1, 15549, Note_on_c, 0, 70, 0
1, 15549, Note_on_c, 0, 61, 0
1, 15549, Note_on_c, 1, 49, 0
1, 15552, Note_on_c, 0, 72, 69
1, 15552, Note_on_c, 0, 63, 69
1, 15552, Note_on_c, 1, 48, 69
1, 15597, Note_on_c, 1, 48, 0
1, 15600, Note_on_c, 1, 46, 69
1, 15645, Note_on_c, 1, 46, 0
1, 15648, Note_on_c, 1, 45, 69
1, 15685, Note_on_c, 0, 72, 0
1, 15685, Note_on_c, 0, 63, 0
1, 15696, Note_on_c, 0, 66, 69
1, 15696, Note_on_c, 0, 63, 69
1, 15741, Note_on_c, 0, 66, 0
1, 15741, Note_on_c, 0, 63, 0
1, 15744, Note_on_c, 0, 65, 69
1, 15744, Note_on_c, 0, 61, 69
1, 15789, Note_on_c, 0, 65, 0
1, 15789, Note_on_c, 0, 61, 0
1, 15792, Note_on_c, 0, 63, 69
1, 15792, Note_on_c, 0, 60, 69
1, 15825, Note_on_c, 1, 45, 0
1, 15837, Note_on_c, 0, 63, 0
1, 15837, Note_on_c, 0, 60, 0
1, 15840, Note_on_c, 0, 61, 69
1, 15840, Note_on_c, 1, 46, 64
1, 15885, Note_on_c, 0, 61, 0
1, 15888, Note_on_c, 0, 65, 69
1, 15929, Note_on_c, 1, 46, 0
1, 15933, Note_on_c, 0, 65, 0
1, 15936, Note_on_c, 0, 70, 69
1, 15984, Note_on_c, 1, 46, 64
1, 16029, Note_on_c, 1, 46, 0
1, 16032, Note_on_c, 1, 58, 64
1, 16069, Note_on_c, 0, 70, 0
1, 16080, Note_on_c, 0, 67, 69
1, 16125, Note_on_c, 0, 67, 0
1, 16128, Note_on_c, 0, 76, 69
1, 16173, Note_on_c, 0, 76, 0
1, 16176, Note_on_c, 0, 72, 69
1, 16176, Note_on_c, 1, 64, 69
1, 16221, Note_on_c, 0, 72, 0
1, 16221, Note_on_c, 1, 64, 0
1, 16224, Note_on_c, 0, 80, 69
1, 16224, Note_on_c, 1, 65, 69
1, 16269, Note_on_c, 0, 80, 0
1, 16272, Note_on_c, 0, 77, 69
1, 16305, Note_on_c, 1, 58, 0
1, 16317, Note_on_c, 0, 77, 0
1, 16320, Note_on_c, 0, 84, 69
1, 16320, Note_on_c, 1, 56, 64
1, 16365, Note_on_c, 0, 84, 0
1, 16368, Note_on_c, 0, 79, 69
1, 16401, Note_on_c, 1, 65, 0
1, 16413, Note_on_c, 0, 79, 0
1, 16416, Note_on_c, 0, 80, 69
1, 16416, Note_on_c, 1, 65, 69
1, 16428, Note_on_c, 0, 80, 0
1, 16428, Note_on_c, 0, 79, 69
1, 16440, Note_on_c, 0, 79, 0
1, 16440, Note_on_c, 0, 80, 69
1, 16461, Note_on_c, 0, 80, 0
1, 16464, Note_on_c, 0, 76, 69
1, 16509, Note_on_c, 0, 76, 0
1, 16512, Note_on_c, 0, 77, 69
1, 16557, Note_on_c, 0, 77, 0
1, 16560, Note_on_c, 0, 73, 69
1, 16593, Note_on_c, 1, 56, 0
1, 16605, Note_on_c, 0, 73, 0
1, 16608, Note_on_c, 0, 72, 69
1, 16608, Note_on_c, 1, 61, 64
1, 16653, Note_on_c, 0, 72, 0
1, 16656, Note_on_c, 0, 71, 69
1, 16697, Note_on_c, 1, 61, 0
1, 16701, Note_on_c, 0, 71, 0
1, 16704, Note_on_c, 0, 71, 69
1, 16704, Note_on_c, 1, 60, 64
1, 16793, Note_on_c, 0, 71, 0
1, 16793, Note_on_c, 1, 65, 0
1, 16800, Note_on_c, 0, 72, 69
1, 16800, Note_on_c, 1, 64, 69
1, 16881, Note_on_c, 1, 60, 0
1, 16889, Note_on_c, 0, 72, 0
1, 16889, Note_on_c, 1, 64, 0
1, 16896, Note_on_c, 0, 72, 69
1, 16941, Note_on_c, 0, 72, 0
1, 16944, Note_on_c, 0, 68, 69
1, 16989, Note_on_c, 0, 68, 0
1, 16992, Note_on_c, 0, 65, 69
1, 17040, Note_on_c, 1, 60, 61
1, 17040, Note_on_c, 1, 56, 61
1, 17088, Note_on_c, 1, 60, 0
1, 17088, Note_on_c, 1, 56, 0
1, 17088, Note_on_c, 1, 58, 61
1, 17088, Note_on_c, 1, 55, 61
1, 17125, Note_on_c, 0, 65, 0
1, 17136, Note_on_c, 0, 64, 69
1, 17181, Note_on_c, 0, 64, 0
1, 17184, Note_on_c, 0, 70, 69
1, 17221, Note_on_c, 1, 58, 0
1, 17221, Note_on_c, 1, 55, 0
1, 17232, Note_on_c, 1, 52, 61
1, 17232, Note_on_c, 1, 48, 61
1, 17280, Note_on_c, 1, 52, 0
1, 17280, Note_on_c, 1, 48, 0
1, 17280, Note_on_c, 1, 53, 61
1, 17280, Note_on_c, 1, 49, 61
1, 17325, Note_on_c, 0, 70, 0
1, 17328, Note_on_c, 0, 68, 69
1, 17373, Note_on_c, 0, 68, 0
1, 17376, Note_on_c, 0, 77, 69
1, 17413, Note_on_c, 1, 53, 0
1, 17413, Note_on_c, 1, 49, 0
1, 17424, Note_on_c, 1, 48, 61
1, 17424, Note_on_c, 1, 44, 61
1, 17469, Note_on_c, 1, 48, 0
1, 17469, Note_on_c, 1, 44, 0
1, 17472, Note_on_c, 1, 49, 61
1, 17472, Note_on_c, 1, 46, 61
1, 17509, Note_on_c, 0, 77, 0
1, 17520, Note_on_c, 0, 65, 69
1, 17565, Note_on_c, 0, 65, 0
1, 17568, Note_on_c, 0, 73, 69
1, 17613, Note_on_c, 1, 49, 0
1, 17613, Note_on_c, 1, 46, 0
1, 17616, Note_on_c, 1, 56, 61
1, 17616, Note_on_c, 1, 53, 61
1, 17661, Note_on_c, 1, 56, 0
1, 17661, Note_on_c, 1, 53, 0
1, 17664, Note_on_c, 1, 55, 61
1, 17664, Note_on_c, 1, 52, 64
1, 17701, Note_on_c, 0, 73, 0
1, 17712, Note_on_c, 0, 60, 69
1, 17753, Note_on_c, 1, 55, 0
1, 17757, Note_on_c, 0, 60, 0
1, 17760, Note_on_c, 0, 72, 69
1, 17760, Note_on_c, 1, 60, 61
1, 17805, Note_on_c, 0, 72, 0
1, 17808, Note_on_c, 0, 70, 69
1, 17841, Note_on_c, 1, 52, 0
1, 17849, Note_on_c, 1, 60, 0
1, 17853, Note_on_c, 0, 70, 0
1, 17856, Note_on_c, 0, 68, 69
1, 17856, Note_on_c, 1, 60, 61
1, 17856, Note_on_c, 1, 53, 64
1, 17869, Note_on_c, 0, 68, 0
1, 17870, Note_on_c, 0, 70, 69
1, 17883, Note_on_c, 0, 70, 0
1, 17884, Note_on_c, 0, 68, 69
1, 17897, Note_on_c, 0, 68, 0
1, 17898, Note_on_c, 0, 70, 69
1, 17911, Note_on_c, 0, 70, 0
1, 17912, Note_on_c, 0, 68, 69
1, 17925, Note_on_c, 0, 68, 0
1, 17926, Note_on_c, 0, 67, 69
1, 17938, Note_on_c, 0, 67, 0
1, 17939, Note_on_c, 0, 68, 69
1, 17945, Note_on_c, 1, 60, 0
1, 17945, Note_on_c, 1, 53, 0
1, 17951, Note_on_c, 0, 68, 0
1, 17952, Note_on_c, 0, 67, 69
1, 17952, Note_on_c, 1, 60, 61
1, 17952, Note_on_c, 1, 48, 64
1, 18041, Note_on_c, 0, 67, 0
1, 18041, Note_on_c, 1, 60, 0
1, 18041, Note_on_c, 1, 48, 0
1, 18048, Note_on_c, 0, 72, 69
1, 18093, Note_on_c, 0, 72, 0
1, 18096, Note_on_c, 0, 68, 69
1, 18141, Note_on_c, 0, 68, 0
1, 18144, Note_on_c, 0, 65, 69
1, 18192, Note_on_c, 1, 60, 61
1, 18192, Note_on_c, 1, 56, 61
1, 18240, Note_on_c, 1, 60, 0
1, 18240, Note_on_c, 1, 56, 0
1, 18240, Note_on_c, 1, 58, 61
1, 18240, Note_on_c, 1, 55, 61
1, 18277, Note_on_c, 0, 65, 0
1, 18288, Note_on_c, 0, 64, 69
1, 18333, Note_on_c, 0, 64, 0
1, 18336, Note_on_c, 0, 70, 69
1, 18373, Note_on_c, 1, 58, 0
1, 18373, Note_on_c, 1, 55, 0
1, 18384, Note_on_c, 1, 52, 61
1, 18384, Note_on_c, 1, 48, 61
1, 18432, Note_on_c, 1, 52, 0
1, 18432, Note_on_c, 1, 48, 0
1, 18432, Note_on_c, 1, 53, 61
1, 18432, Note_on_c, 1, 49, 61
1, 18477, Note_on_c, 0, 70, 0
1, 18480, Note_on_c, 0, 68, 69
1, 18525, Note_on_c, 0, 68, 0
1, 18528, Note_on_c, 0, 77, 69
1, 18565, Note_on_c, 1, 53, 0
1, 18565, Note_on_c, 1, 49, 0
1, 18576, Note_on_c, 1, 72, 61
1, 18576, Note_on_c, 1, 68, 61
1, 18621, Note_on_c, 1, 72, 0
1, 18621, Note_on_c, 1, 68, 0
1, 18624, Note_on_c, 1, 70, 61
1, 18624, Note_on_c, 1, 67, 61
1, 18661, Note_on_c, 0, 77, 0
1, 18672, Note_on_c, 0, 76, 69
1, 18717, Note_on_c, 0, 76, 0
1, 18720, Note_on_c, 0, 82, 69
1, 18765, Note_on_c, 1, 70, 0
1, 18765, Note_on_c, 1, 67, 0
1, 18768, Note_on_c, 1, 60, 61
1, 18813, Note_on_c, 1, 60, 0
1, 18816, Note_on_c, 1, 67, 61
1, 18853, Note_on_c, 0, 82, 0
1, 18864, Note_on_c, 0, 70, 69
1, 18909, Note_on_c, 0, 70, 0
1, 18912, Note_on_c, 0, 79, 69
1, 18949, Note_on_c, 1, 67, 0
1, 18960, Note_on_c, 1, 64, 61
1, 19005, Note_on_c, 1, 64, 0
1, 19008, Note_on_c, 1, 73, 61
1, 19053, Note_on_c, 0, 79, 0
1, 19056, Note_on_c, 0, 76, 69
1, 19101, Note_on_c, 0, 76, 0
1, 19104, Note_on_c, 0, 85, 69
1, 19104, Note_on_c, 0, 76, 69
1, 19141, Note_on_c, 1, 73, 0
1, 19152, Note_on_c, 1, 70, 61
1, 19197, Note_on_c, 1, 70, 0
1, 19200, Note_on_c, 1, 79, 61
1, 19200, Note_on_c, 1, 70, 61
1, 19535, Note_on_c, 0, 85, 0
1, 19535, Note_on_c, 0, 76, 0
1, 19535, Note_on_c, 1, 79, 0
1, 19535, Note_on_c, 1, 70, 0
1, 19536, Note_on_c, 0, 72, 61
1, 19584, Note_on_c, 0, 72, 0
1, 19584, Note_on_c, 0, 80, 61
1, 19604, Note_on_c, 0, 80, 0
1, 19632, Note_on_c, 1, 68, 61
1, 19680, Note_on_c, 1, 68, 0
1, 19680, Note_on_c, 1, 65, 62
1, 19725, Note_on_c, 1, 65, 0
1, 19728, Note_on_c, 0, 72, 69
1, 19773, Note_on_c, 0, 72, 0
1, 19776, Note_on_c, 0, 80, 69
1, 19821, Note_on_c, 0, 80, 0
1, 19824, Note_on_c, 0, 72, 69
1, 19872, Note_on_c, 0, 72, 0
1, 19872, Note_on_c, 0, 80, 69
1, 19892, Note_on_c, 0, 80, 0
1, 19920, Note_on_c, 1, 68, 71
1, 19968, Note_on_c, 1, 68, 0
1, 19968, Note_on_c, 1, 65, 73
1, 20013, Note_on_c, 1, 65, 0
1, 20016, Note_on_c, 0, 72, 77
1, 20061, Note_on_c, 0, 72, 0
1, 20064, Note_on_c, 0, 80, 77
1, 20109, Note_on_c, 0, 80, 0
1, 20112, Note_on_c, 0, 72, 77
1, 20160, Note_on_c, 0, 72, 0
1, 20160, Note_on_c, 0, 80, 77
1, 20180, Note_on_c, 0, 80, 0
1, 20208, Note_on_c, 1, 68, 81
1, 20256, Note_on_c, 1, 68, 0
1, 20256, Note_on_c, 1, 65, 83
1, 20301, Note_on_c, 1, 65, 0
1, 20304, Note_on_c, 0, 80, 85
1, 20304, Note_on_c, 0, 77, 85
1, 20304, Note_on_c, 1, 72, 85
1, 20304, Note_on_c, 1, 68, 85
1, 20324, Note_on_c, 0, 80, 0
1, 20324, Note_on_c, 0, 77, 0
1, 20324, Note_on_c, 1, 72, 0
1, 20324, Note_on_c, 1, 68, 0
1, 20352, Note_on_c, 0, 84, 85
1, 20352, Note_on_c, 0, 80, 85
1, 20352, Note_on_c, 1, 68, 85
1, 20352, Note_on_c, 1, 65, 85
1, 20372, Note_on_c, 0, 84, 0
1, 20372, Note_on_c, 0, 80, 0
1, 20372, Note_on_c, 1, 68, 0
1, 20372, Note_on_c, 1, 65, 0
1, 20400, Note_on_c, 0, 80, 85
1, 20400, Note_on_c, 0, 77, 85
1, 20400, Note_on_c, 1, 72, 85
1, 20400, Note_on_c, 1, 68, 85
1, 20420, Note_on_c, 0, 80, 0
1, 20420, Note_on_c, 0, 77, 0
1, 20420, Note_on_c, 1, 72, 0
1, 20420, Note_on_c, 1, 68, 0
1, 20448, Note_on_c, 0, 84, 85
1, 20448, Note_on_c, 0, 80, 85
1, 20448, Note_on_c, 1, 68, 85
1, 20448, Note_on_c, 1, 65, 85
1, 20537, Note_on_c, 0, 84, 0
1, 20537, Note_on_c, 0, 80, 0
1, 20537, Note_on_c, 1, 68, 0
1, 20537, Note_on_c, 1, 65, 0
1, 20592, Note_on_c, 0, 68, 77
1, 20592, Note_on_c, 0, 65, 77
1, 20592, Note_on_c, 1, 61, 77
1, 20612, Note_on_c, 0, 68, 0
1, 20612, Note_on_c, 0, 65, 0
1, 20612, Note_on_c, 1, 61, 0
1, 20640, Note_on_c, 0, 70, 77
1, 20640, Note_on_c, 0, 67, 77
1, 20640, Note_on_c, 1, 58, 77
1, 20660, Note_on_c, 0, 70, 0
1, 20660, Note_on_c, 0, 67, 0
1, 20660, Note_on_c, 1, 58, 0
1, 20688, Note_on_c, 0, 67, 77
1, 20688, Note_on_c, 0, 64, 77
1, 20688, Note_on_c, 1, 60, 77
1, 20708, Note_on_c, 0, 67, 0
1, 20708, Note_on_c, 0, 64, 0
1, 20708, Note_on_c, 1, 60, 0
1, 20736, Note_on_c, 0, 65, 77
1, 20736, Note_on_c, 1, 53, 77
1, 20825, Note_on_c, 0, 65, 0
1, 20825, Note_on_c, 1, 53, 0
1, 20928, Note_on_c, 1, 63, 77
1, 20973, Note_on_c, 1, 63, 0
1, 20976, Note_on_c, 1, 60, 77
1, 21021, Note_on_c, 1, 60, 0
1, 21024, Note_on_c, 1, 54, 69
1, 21072, Note_on_c, 0, 70, 69
1, 21072, Note_on_c, 0, 61, 69
1, 21117, Note_on_c, 0, 70, 0
1, 21117, Note_on_c, 0, 61, 0
1, 21120, Note_on_c, 0, 69, 69
1, 21120, Note_on_c, 0, 60, 69
1, 21157, Note_on_c, 1, 54, 0
1, 21168, Note_on_c, 1, 53, 69
1, 21213, Note_on_c, 1, 53, 0
1, 21216, Note_on_c, 1, 51, 69
1, 21253, Note_on_c, 0, 69, 0
1, 21253, Note_on_c, 0, 60, 0
1, 21261, Note_on_c, 1, 51, 0
1, 21264, Note_on_c, 0, 70, 69
1, 21264, Note_on_c, 0, 61, 69
1, 21264, Note_on_c, 1, 49, 69
1, 21309, Note_on_c, 0, 70, 0
1, 21309, Note_on_c, 0, 61, 0
1, 21309, Note_on_c, 1, 49, 0
1, 21312, Note_on_c, 0, 72, 69
1, 21312, Note_on_c, 0, 63, 69
1, 21312, Note_on_c, 1, 48, 69
1, 21357, Note_on_c, 1, 48, 0
1, 21360, Note_on_c, 1, 46, 69
1, 21405, Note_on_c, 1, 46, 0
1, 21408, Note_on_c, 1, 45, 69
1, 21445, Note_on_c, 0, 72, 0
1, 21445, Note_on_c, 0, 63, 0
1, 21456, Note_on_c, 0, 66, 69
1, 21456, Note_on_c, 0, 63, 69
1, 21501, Note_on_c, 0, 66, 0
1, 21501, Note_on_c, 0, 63, 0
1, 21504, Note_on_c, 0, 65, 69
1, 21504, Note_on_c, 0, 61, 69
1, 21549, Note_on_c, 0, 65, 0
1, 21549, Note_on_c, 0, 61, 0
1, 21552, Note_on_c, 0, 63, 69
1, 21552, Note_on_c, 0, 60, 69
1, 21585, Note_on_c, 1, 45, 0
1, 21597, Note_on_c, 0, 63, 0
1, 21597, Note_on_c, 0, 60, 0
1, 21600, Note_on_c, 0, 61, 69
1, 21600, Note_on_c, 1, 46, 64
1, 21645, Note_on_c, 0, 61, 0
1, 21648, Note_on_c, 0, 65, 69
1, 21689, Note_on_c, 1, 46, 0
1, 21693, Note_on_c, 0, 65, 0
1, 21696, Note_on_c, 0, 70, 69
1, 21744, Note_on_c, 1, 46, 64
1, 21789, Note_on_c, 1, 46, 0
1, 21792, Note_on_c, 1, 58, 64
1, 21829, Note_on_c, 0, 70, 0
1, 21840, Note_on_c, 0, 67, 69
1, 21885, Note_on_c, 0, 67, 0
1, 21888, Note_on_c, 0, 76, 69
1, 21933, Note_on_c, 0, 76, 0
1, 21936, Note_on_c, 0, 72, 69
1, 21936, Note_on_c, 1, 64, 69
1, 21981, Note_on_c, 0, 72, 0
1, 21981, Note_on_c, 1, 64, 0
1, 21984, Note_on_c, 0, 80, 69
1, 21984, Note_on_c, 1, 65, 69
1, 22029, Note_on_c, 0, 80, 0
1, 22032, Note_on_c, 0, 77, 69
1, 22065, Note_on_c, 1, 58, 0
1, 22077, Note_on_c, 0, 77, 0
1, 22080, Note_on_c, 0, 84, 69
1, 22080, Note_on_c, 1, 56, 64
1, 22125, Note_on_c, 0, 84, 0
1, 22128, Note_on_c, 0, 79, 69
1, 22161, Note_on_c, 1, 65, 0
1, 22173, Note_on_c, 0, 79, 0
1, 22176, Note_on_c, 0, 80, 69
1, 22176, Note_on_c, 1, 65, 69
1, 22188, Note_on_c, 0, 80, 0
1, 22188, Note_on_c, 0, 79, 69
1, 22200, Note_on_c, 0, 79, 0
1, 22200, Note_on_c, 0, 80, 69
1, 22221, Note_on_c, 0, 80, 0
1, 22224, Note_on_c, 0, 76, 69
1, 22269, Note_on_c, 0, 76, 0
1, 22272, Note_on_c, 0, 77, 69
1, 22317, Note_on_c, 0, 77, 0
1, 22320, Note_on_c, 0, 73, 69
1, 22353, Note_on_c, 1, 56, 0
1, 22365, Note_on_c, 0, 73, 0
1, 22368, Note_on_c, 0, 72, 69
1, 22368, Note_on_c, 1, 61, 64
1, 22413, Note_on_c, 0, 72, 0
1, 22416, Note_on_c, 0, 71, 69
1, 22457, Note_on_c, 1, 61, 0
1, 22461, Note_on_c, 0, 71, 0
1, 22464, Note_on_c, 0, 71, 69
1, 22464, Note_on_c, 1, 60, 64
1, 22553, Note_on_c, 0, 71, 0
1, 22553, Note_on_c, 1, 65, 0
1, 22560, Note_on_c, 0, 72, 69
1, 22560, Note_on_c, 1, 64, 69
1, 22641, Note_on_c, 1, 60, 0
1, 22649, Note_on_c, 0, 72, 0
1, 22649, Note_on_c, 1, 64, 0
1, 22656, Note_on_c, 0, 72, 69
1, 22701, Note_on_c, 0, 72, 0
1, 22704, Note_on_c, 0, 68, 69
1, 22749, Note_on_c, 0, 68, 0
1, 22752, Note_on_c, 0, 65, 69
1, 22800, Note_on_c, 1, 60, 61
1, 22800, Note_on_c, 1, 56, 61
1, 22848, Note_on_c, 1, 60, 0
1, 22848, Note_on_c, 1, 56, 0
1, 22848, Note_on_c, 1, 58, 61
1, 22848, Note_on_c, 1, 55, 61
1, 22885, Note_on_c, 0, 65, 0
1, 22896, Note_on_c, 0, 64, 69
1, 22941, Note_on_c, 0, 64, 0
1, 22944, Note_on_c, 0, 70, 69
1, 22981, Note_on_c, 1, 58, 0
1, 22981, Note_on_c, 1, 55, 0
1, 22992, Note_on_c, 1, 52, 61
1, 22992, Note_on_c, 1, 48, 61
1, 23040, Note_on_c, 1, 52, 0
1, 23040, Note_on_c, 1, 48, 0
1, 23040, Note_on_c, 1, 53, 61
1, 23040, Note_on_c, 1, 49, 61
1, 23085, Note_on_c, 0, 70, 0
1, 23088, Note_on_c, 0, 68, 69
1, 23133, Note_on_c, 0, 68, 0
1, 23136, Note_on_c, 0, 77, 69
1, 23173, Note_on_c, 1, 53, 0
1, 23173, Note_on_c, 1, 49, 0
1, 23184, Note_on_c, 1, 48, 61
1, 23184, Note_on_c, 1, 44, 61
1, 23229, Note_on_c, 1, 48, 0
1, 23229, Note_on_c, 1, 44, 0
1, 23232, Note_on_c, 1, 49, 61
1, 23232, Note_on_c, 1, 46, 61
1, 23269, Note_on_c, 0, 77, 0
1, 23280, Note_on_c, 0, 65, 69
1, 23325, Note_on_c, 0, 65, 0
1, 23328, Note_on_c, 0, 73, 69
1, 23373, Note_on_c, 1, 49, 0
1, 23373, Note_on_c, 1, 46, 0
1, 23376, Note_on_c, 1, 56, 61
1, 23376, Note_on_c, 1, 53, 61
1, 23421, Note_on_c, 1, 56, 0
1, 23421, Note_on_c, 1, 53, 0
1, 23424, Note_on_c, 1, 55, 61
1, 23424, Note_on_c, 1, 52, 64
1, 23461, Note_on_c, 0, 73, 0
1, 23472, Note_on_c, 0, 60, 69
1, 23513, Note_on_c, 1, 55, 0
1, 23517, Note_on_c, 0, 60, 0
1, 23520, Note_on_c, 0, 72, 69
1, 23520, Note_on_c, 1, 60, 61
1, 23565, Note_on_c, 0, 72, 0
1, 23568, Note_on_c, 0, 70, 69
1, 23601, Note_on_c, 1, 52, 0
1, 23609, Note_on_c, 1, 60, 0
1, 23613, Note_on_c, 0, 70, 0
1, 23616, Note_on_c, 0, 68, 69
1, 23616, Note_on_c, 1, 60, 61
1, 23616, Note_on_c, 1, 53, 64
1, 23629, Note_on_c, 0, 68, 0
1, 23630, Note_on_c, 0, 70, 69
1, 23643, Note_on_c, 0, 70, 0
1, 23644, Note_on_c, 0, 68, 69
1, 23657, Note_on_c, 0, 68, 0
1, 23658, Note_on_c, 0, 70, 69
1, 23671, Note_on_c, 0, 70, 0
1, 23672, Note_on_c, 0, 68, 69
1, 23685, Note_on_c, 0, 68, 0
1, 23686, Note_on_c, 0, 67, 69
1, 23698, Note_on_c, 0, 67, 0
1, 23699, Note_on_c, 0, 68, 69
1, 23705, Note_on_c, 1, 60, 0
1, 23705, Note_on_c, 1, 53, 0
1, 23711, Note_on_c, 0, 68, 0
1, 23712, Note_on_c, 0, 67, 69
1, 23712, Note_on_c, 1, 60, 61
1, 23712, Note_on_c, 1, 48, 64
1, 23801, Note_on_c, 0, 67, 0
1, 23801, Note_on_c, 1, 60, 0
1, 23801, Note_on_c, 1, 48, 0
1, 23808, Note_on_c, 0, 72, 69
1, 23853, Note_on_c, 0, 72, 0
1, 23856, Note_on_c, 0, 68, 69
1, 23901, Note_on_c, 0, 68, 0
1, 23904, Note_on_c, 0, 65, 69
1, 23952, Note_on_c, 1, 60, 61
1, 23952, Note_on_c, 1, 56, 61
1, 24000, Note_on_c, 1, 60, 0
1, 24000, Note_on_c, 1, 56, 0
1, 24000, Note_on_c, 1, 58, 61
1, 24000, Note_on_c, 1, 55, 61
1, 24037, Note_on_c, 0, 65, 0
1, 24048, Note_on_c, 0, 64, 69
1, 24093, Note_on_c, 0, 64, 0
1, 24096, Note_on_c, 0, 70, 69
1, 24133, Note_on_c, 1, 58, 0
1, 24133, Note_on_c, 1, 55, 0
1, 24144, Note_on_c, 1, 52, 61
1, 24144, Note_on_c, 1, 48, 61
1, 24192, Note_on_c, 1, 52, 0
1, 24192, Note_on_c, 1, 48, 0
1, 24192, Note_on_c, 1, 53, 61
1, 24192, Note_on_c, 1, 49, 61
1, 24237, Note_on_c, 0, 70, 0
1, 24240, Note_on_c, 0, 68, 69
1, 24285, Note_on_c, 0, 68, 0
1, 24288, Note_on_c, 0, 77, 69
1, 24325, Note_on_c, 1, 53, 0
1, 24325, Note_on_c, 1, 49, 0
1, 24336, Note_on_c, 1, 72, 61
1, 24336, Note_on_c, 1, 68, 61
1, 24381, Note_on_c, 1, 72, 0
1, 24381, Note_on_c, 1, 68, 0
1, 24384, Note_on_c, 1, 70, 61
1, 24384, Note_on_c, 1, 67, 61
1, 24421, Note_on_c, 0, 77, 0
1, 24432, Note_on_c, 0, 76, 69
1, 24477, Note_on_c, 0, 76, 0
1, 24480, Note_on_c, 0, 82, 69
1, 24525, Note_on_c, 1, 70, 0
1, 24525, Note_on_c, 1, 67, 0
1, 24528, Note_on_c, 1, 60, 61
1, 24573, Note_on_c, 1, 60, 0
1, 24576, Note_on_c, 1, 67, 61
1, 24613, Note_on_c, 0, 82, 0
1, 24624, Note_on_c, 0, 70, 69
1, 24669, Note_on_c, 0, 70, 0
1, 24672, Note_on_c, 0, 79, 69
1, 24709, Note_on_c, 1, 67, 0
1, 24720, Note_on_c, 1, 64, 61
1, 24765, Note_on_c, 1, 64, 0
1, 24768, Note_on_c, 1, 73, 61
1, 24813, Note_on_c, 0, 79, 0
1, 24816, Note_on_c, 0, 76, 69
1, 24861, Note_on_c, 0, 76, 0
1, 24864, Note_on_c, 0, 85, 69
1, 24864, Note_on_c, 0, 76, 69
1, 24901, Note_on_c, 1, 73, 0
1, 24912, Note_on_c, 1, 70, 61
1, 24957, Note_on_c, 1, 70, 0
1, 24960, Note_on_c, 1, 79, 61
1, 24960, Note_on_c, 1, 70, 61
1, 25295, Note_on_c, 0, 85, 0
1, 25295, Note_on_c, 0, 76, 0
1, 25295, Note_on_c, 1, 79, 0
1, 25295, Note_on_c, 1, 70, 0
1, 25296, Note_on_c, 0, 72, 61
1, 25344, Note_on_c, 0, 72, 0
1, 25344, Note_on_c, 0, 80, 61
1, 25364, Note_on_c, 0, 80, 0
1, 25392, Note_on_c, 1, 68, 61
1, 25440, Note_on_c, 1, 68, 0
1, 25440, Note_on_c, 1, 65, 62
1, 25485, Note_on_c, 1, 65, 0
1, 25488, Note_on_c, 0, 72, 69
1, 25533, Note_on_c, 0, 72, 0
1, 25536, Note_on_c, 0, 80, 69
1, 25581, Note_on_c, 0, 80, 0
1, 25584, Note_on_c, 0, 72, 69
1, 25632, Note_on_c, 0, 72, 0
1, 25632, Note_on_c, 0, 80, 69
1, 25652, Note_on_c, 0, 80, 0
1, 25680, Note_on_c, 1, 68, 71
1, 25728, Note_on_c, 1, 68, 0
1, 25728, Note_on_c, 1, 65, 73
1, 25773, Note_on_c, 1, 65, 0
1, 25776, Note_on_c, 0, 72, 77
1, 25821, Note_on_c, 0, 72, 0
1, 25824, Note_on_c, 0, 80, 77
1, 25869, Note_on_c, 0, 80, 0
1, 25872, Note_on_c, 0, 72, 77
1, 25920, Note_on_c, 0, 72, 0
1, 25920, Note_on_c, 0, 80, 77
1, 25940, Note_on_c, 0, 80, 0
1, 25968, Note_on_c, 1, 68, 81
1, 26016, Note_on_c, 1, 68, 0
1, 26016, Note_on_c, 1, 65, 83
1, 26061, Note_on_c, 1, 65, 0
1, 26064, Note_on_c, 0, 80, 85
1, 26064, Note_on_c, 0, 77, 85
1, 26064, Note_on_c, 1, 72, 85
1, 26064, Note_on_c, 1, 68, 85
1, 26084, Note_on_c, 0, 80, 0
1, 26084, Note_on_c, 0, 77, 0
1, 26084, Note_on_c, 1, 72, 0
1, 26084, Note_on_c, 1, 68, 0
1, 26112, Note_on_c, 0, 84, 85
1, 26112, Note_on_c, 0, 80, 85
1, 26112, Note_on_c, 1, 68, 85
1, 26112, Note_on_c, 1, 65, 85
1, 26132, Note_on_c, 0, 84, 0
1, 26132, Note_on_c, 0, 80, 0
1, 26132, Note_on_c, 1, 68, 0
1, 26132, Note_on_c, 1, 65, 0
1, 26160, Note_on_c, 0, 80, 85
1, 26160, Note_on_c, 0, 77, 85
1, 26160, Note_on_c, 1, 72, 85
1, 26160, Note_on_c, 1, 68, 85
1, 26180, Note_on_c, 0, 80, 0
1, 26180, Note_on_c, 0, 77, 0
1, 26180, Note_on_c, 1, 72, 0
1, 26180, Note_on_c, 1, 68, 0
1, 26208, Note_on_c, 0, 84, 85
1, 26208, Note_on_c, 0, 80, 85
1, 26208, Note_on_c, 1, 68, 85
1, 26208, Note_on_c, 1, 65, 85
1, 26297, Note_on_c, 0, 84, 0
1, 26297, Note_on_c, 0, 80, 0
1, 26297, Note_on_c, 1, 68, 0
1, 26297, Note_on_c, 1, 65, 0
1, 26352, Note_on_c, 0, 68, 77
1, 26352, Note_on_c, 0, 65, 77
1, 26352, Note_on_c, 1, 61, 77
1, 26372, Note_on_c, 0, 68, 0
1, 26372, Note_on_c, 0, 65, 0
1, 26372, Note_on_c, 1, 61, 0
1, 26400, Note_on_c, 0, 70, 77
1, 26400, Note_on_c, 0, 67, 77
1, 26400, Note_on_c, 1, 58, 77
1, 26420, Note_on_c, 0, 70, 0
1, 26420, Note_on_c, 0, 67, 0
1, 26420, Note_on_c, 1, 58, 0
1, 26448, Note_on_c, 0, 67, 77
1, 26448, Note_on_c, 0, 64, 77
1, 26448, Note_on_c, 1, 60, 77
1, 26468, Note_on_c, 0, 67, 0
1, 26468, Note_on_c, 0, 64, 0
1, 26468, Note_on_c, 1, 60, 0
1, 26496, Note_on_c, 0, 65, 77
1, 26496, Note_on_c, 1, 53, 77
1, 26585, Note_on_c, 0, 65, 0
1, 26585, Note_on_c, 1, 53, 0
1, 26664, Note_on_c, 0, 72, 77
1, 26687, Note_on_c, 0, 72, 0
1, 26688, Note_on_c, 0, 72, 77
1, 26701, Note_on_c, 0, 72, 0
1, 26702, Note_on_c, 0, 74, 77
1, 26715, Note_on_c, 0, 74, 0
1, 26716, Note_on_c, 0, 72, 77
1, 26729, Note_on_c, 0, 72, 0
1, 26730, Note_on_c, 0, 74, 77
1, 26743, Note_on_c, 0, 74, 0
1, 26744, Note_on_c, 0, 72, 77
1, 26757, Note_on_c, 0, 72, 0
1, 26758, Note_on_c, 0, 70, 77
1, 26770, Note_on_c, 0, 70, 0
1, 26771, Note_on_c, 0, 72, 77
1, 26783, Note_on_c, 0, 72, 0
1, 26784, Note_on_c, 0, 77, 77
1, 26784, Note_on_c, 1, 57, 77
1, 26784, Note_on_c, 1, 53, 77
1, 26814, Note_on_c, 0, 77, 0
1, 26816, Note_on_c, 0, 81, 77
1, 26846, Note_on_c, 0, 81, 0
1, 26848, Note_on_c, 0, 79, 77
1, 26873, Note_on_c, 1, 57, 0
1, 26873, Note_on_c, 1, 53, 0
1, 26878, Note_on_c, 0, 79, 0
1, 26880, Note_on_c, 0, 77, 77
1, 26910, Note_on_c, 0, 77, 0
1, 26912, Note_on_c, 0, 76, 77
1, 26942, Note_on_c, 0, 76, 0
1, 26944, Note_on_c, 0, 74, 77
1, 26974, Note_on_c, 0, 74, 0
1, 26976, Note_on_c, 0, 72, 77
1, 27006, Note_on_c, 0, 72, 0
1, 27008, Note_on_c, 0, 70, 77
1, 27038, Note_on_c, 0, 70, 0
1, 27040, Note_on_c, 0, 69, 77
1, 27070, Note_on_c, 0, 69, 0
1, 27072, Note_on_c, 0, 67, 77
1, 27072, Note_on_c, 1, 62, 77
1, 27072, Note_on_c, 1, 58, 77
1, 27085, Note_on_c, 0, 67, 0
1, 27086, Note_on_c, 0, 69, 77
1, 27099, Note_on_c, 0, 69, 0
1, 27100, Note_on_c, 0, 67, 77
1, 27113, Note_on_c, 0, 67, 0
1, 27114, Note_on_c, 0, 69, 77
1, 27127, Note_on_c, 0, 69, 0
1, 27128, Note_on_c, 0, 67, 77
1, 27141, Note_on_c, 0, 67, 0
1, 27142, Note_on_c, 0, 65, 77
1, 27154, Note_on_c, 0, 65, 0
1, 27155, Note_on_c, 0, 67, 77
1, 27167, Note_on_c, 0, 67, 0
1, 27168, Note_on_c, 0, 65, 77
1, 27168, Note_on_c, 1, 62, 0
1, 27168, Note_on_c, 1, 58, 0
1, 27168, Note_on_c, 1, 60, 77
1, 27168, Note_on_c, 1, 57, 77
1, 27213, Note_on_c, 0, 65, 0
1, 27213, Note_on_c, 1, 60, 0
1, 27213, Note_on_c, 1, 57, 0
1, 27240, Note_on_c, 0, 72, 77
1, 27263, Note_on_c, 0, 72, 0
1, 27264, Note_on_c, 0, 72, 77
1, 27277, Note_on_c, 0, 72, 0
1, 27278, Note_on_c, 0, 74, 77
1, 27291, Note_on_c, 0, 74, 0
1, 27292, Note_on_c, 0, 72, 77
1, 27305, Note_on_c, 0, 72, 0
1, 27306, Note_on_c, 0, 74, 77
1, 27319, Note_on_c, 0, 74, 0
1, 27320, Note_on_c, 0, 72, 77
1, 27333, Note_on_c, 0, 72, 0
1, 27334, Note_on_c, 0, 71, 77
1, 27346, Note_on_c, 0, 71, 0
1, 27347, Note_on_c, 0, 72, 77
1, 27359, Note_on_c, 0, 72, 0
1, 27360, Note_on_c, 0, 77, 77
1, 27360, Note_on_c, 1, 57, 77
1, 27360, Note_on_c, 1, 53, 77
1, 27390, Note_on_c, 0, 77, 0
1, 27392, Note_on_c, 0, 84, 77
1, 27422, Note_on_c, 0, 84, 0
1, 27424, Note_on_c, 0, 82, 77
1, 27449, Note_on_c, 1, 57, 0
1, 27449, Note_on_c, 1, 53, 0
1, 27454, Note_on_c, 0, 82, 0
1, 27456, Note_on_c, 0, 81, 77
1, 27486, Note_on_c, 0, 81, 0
1, 27488, Note_on_c, 0, 79, 77
1, 27518, Note_on_c, 0, 79, 0
1, 27520, Note_on_c, 0, 77, 77
1, 27550, Note_on_c, 0, 77, 0
1, 27552, Note_on_c, 0, 76, 77
1, 27582, Note_on_c, 0, 76, 0
1, 27584, Note_on_c, 0, 74, 77
1, 27614, Note_on_c, 0, 74, 0
1, 27616, Note_on_c, 0, 72, 77
1, 27646, Note_on_c, 0, 72, 0
1, 27648, Note_on_c, 0, 70, 77
1, 27648, Note_on_c, 1, 67, 77
1, 27648, Note_on_c, 1, 60, 77
1, 27661, Note_on_c, 0, 70, 0
1, 27662, Note_on_c, 0, 72, 77
1, 27675, Note_on_c, 0, 72, 0
1, 27676, Note_on_c, 0, 70, 77
1, 27689, Note_on_c, 0, 70, 0
1, 27690, Note_on_c, 0, 72, 77
1, 27703, Note_on_c, 0, 72, 0
1, 27704, Note_on_c, 0, 70, 77
1, 27717, Note_on_c, 0, 70, 0
1, 27718, Note_on_c, 0, 69, 77
1, 27730, Note_on_c, 0, 69, 0
1, 27731, Note_on_c, 0, 70, 77
1, 27743, Note_on_c, 0, 70, 0
1, 27744, Note_on_c, 0, 69, 77
1, 27744, Note_on_c, 1, 67, 0
1, 27744, Note_on_c, 1, 60, 0
1, 27744, Note_on_c, 1, 65, 77
1, 27789, Note_on_c, 0, 69, 0
1, 27789, Note_on_c, 1, 65, 0
1, 27816, Note_on_c, 0, 72, 77
1, 27839, Note_on_c, 0, 72, 0
1, 27840, Note_on_c, 0, 72, 77
1, 27853, Note_on_c, 0, 72, 0
1, 27854, Note_on_c, 0, 74, 77
1, 27867, Note_on_c, 0, 74, 0
1, 27868, Note_on_c, 0, 72, 77
1, 27881, Note_on_c, 0, 72, 0
1, 27882, Note_on_c, 0, 74, 77
1, 27895, Note_on_c, 0, 74, 0
1, 27896, Note_on_c, 0, 72, 77
1, 27909, Note_on_c, 0, 72, 0
1, 27910, Note_on_c, 0, 71, 77
1, 27922, Note_on_c, 0, 71, 0
1, 27923, Note_on_c, 0, 72, 77
1, 27935, Note_on_c, 0, 72, 0
1, 27936, Note_on_c, 0, 84, 77
1, 27968, Note_on_c, 1, 69, 77
1, 27998, Note_on_c, 1, 69, 0
1, 28000, Note_on_c, 1, 67, 77
1, 28030, Note_on_c, 1, 67, 0
1, 28032, Note_on_c, 1, 66, 77
1, 28062, Note_on_c, 1, 66, 0
1, 28064, Note_on_c, 1, 67, 77
1, 28077, Note_on_c, 0, 84, 0
1, 28080, Note_on_c, 0, 82, 77
1, 28094, Note_on_c, 1, 67, 0
1, 28096, Note_on_c, 1, 65, 77
1, 28126, Note_on_c, 1, 65, 0
1, 28128, Note_on_c, 1, 64, 77
1, 28158, Note_on_c, 1, 64, 0
1, 28160, Note_on_c, 1, 65, 77
1, 28169, Note_on_c, 0, 82, 0
1, 28176, Note_on_c, 0, 81, 77
1, 28190, Note_on_c, 1, 65, 0
1, 28192, Note_on_c, 1, 57, 77
1, 28222, Note_on_c, 1, 57, 0
1, 28224, Note_on_c, 1, 58, 77
1, 28254, Note_on_c, 0, 81, 0
1, 28256, Note_on_c, 0, 78, 77
1, 28286, Note_on_c, 0, 78, 0
1, 28288, Note_on_c, 0, 79, 77
1, 28318, Note_on_c, 0, 79, 0
1, 28320, Note_on_c, 0, 86, 77
1, 28350, Note_on_c, 0, 86, 0
1, 28352, Note_on_c, 0, 82, 77
1, 28382, Note_on_c, 0, 82, 0
1, 28384, Note_on_c, 0, 79, 77
1, 28401, Note_on_c, 1, 58, 0
1, 28414, Note_on_c, 0, 79, 0
1, 28416, Note_on_c, 0, 79, 77
1, 28416, Note_on_c, 1, 57, 77
1, 28446, Note_on_c, 0, 79, 0
1, 28448, Note_on_c, 0, 76, 77
1, 28478, Note_on_c, 0, 76, 0
1, 28480, Note_on_c, 0, 77, 77
1, 28510, Note_on_c, 0, 77, 0
1, 28512, Note_on_c, 0, 70, 77
1, 28542, Note_on_c, 1, 57, 0
1, 28544, Note_on_c, 1, 50, 77
1, 28574, Note_on_c, 1, 50, 0
1, 28576, Note_on_c, 1, 54, 77
1, 28606, Note_on_c, 1, 54, 0
1, 28608, Note_on_c, 1, 55, 77
1, 28638, Note_on_c, 1, 55, 0
1, 28640, Note_on_c, 1, 48, 77
1, 28670, Note_on_c, 1, 48, 0
1, 28672, Note_on_c, 1, 52, 77
1, 28689, Note_on_c, 0, 70, 0
1, 28702, Note_on_c, 1, 52, 0
1, 28704, Note_on_c, 0, 69, 77
1, 28704, Note_on_c, 1, 53, 77
1, 28734, Note_on_c, 1, 53, 0
1, 28736, Note_on_c, 1, 50, 77
1, 28766, Note_on_c, 1, 50, 0
1, 28768, Note_on_c, 1, 47, 77
1, 28793, Note_on_c, 0, 69, 0
1, 28798, Note_on_c, 1, 47, 0
1, 28800, Note_on_c, 0, 69, 77
1, 28800, Note_on_c, 1, 53, 77
1, 28800, Note_on_c, 1, 48, 64
1, 28813, Note_on_c, 0, 69, 0
1, 28814, Note_on_c, 0, 70, 77
1, 28827, Note_on_c, 0, 70, 0
1, 28828, Note_on_c, 0, 69, 77
1, 28841, Note_on_c, 0, 69, 0
1, 28842, Note_on_c, 0, 70, 77
1, 28855, Note_on_c, 0, 70, 0
1, 28856, Note_on_c, 0, 69, 77
1, 28869, Note_on_c, 0, 69, 0
1, 28870, Note_on_c, 0, 67, 77
1, 28882, Note_on_c, 0, 67, 0
1, 28883, Note_on_c, 0, 69, 77
1, 28889, Note_on_c, 1, 53, 0
1, 28895, Note_on_c, 0, 69, 0
1, 28896, Note_on_c, 0, 67, 77
1, 28896, Note_on_c, 1, 52, 77
1, 28933, Note_on_c, 1, 48, 0
1, 28941, Note_on_c, 0, 67, 0
1, 28941, Note_on_c, 1, 52, 0
1, 28968, Note_on_c, 0, 72, 77
1, 28991, Note_on_c, 0, 72, 0
1, 28992, Note_on_c, 0, 72, 77
1, 29005, Note_on_c, 0, 72, 0
1, 29006, Note_on_c, 0, 74, 77
1, 29019, Note_on_c, 0, 74, 0
1, 29020, Note_on_c, 0, 72, 77
1, 29033, Note_on_c, 0, 72, 0
1, 29034, Note_on_c, 0, 74, 77
1, 29047, Note_on_c, 0, 74, 0
1, 29048, Note_on_c, 0, 72, 77
1, 29061, Note_on_c, 0, 72, 0
1, 29062, Note_on_c, 0, 70, 77
1, 29074, Note_on_c, 0, 70, 0
1, 29075, Note_on_c, 0, 72, 77
1, 29087, Note_on_c, 0, 72, 0
1, 29088, Note_on_c, 0, 77, 77
1, 29088, Note_on_c, 1, 57, 77
1, 29088, Note_on_c, 1, 53, 77
1, 29118, Note_on_c, 0, 77, 0
1, 29120, Note_on_c, 0, 81, 77
1, 29150, Note_on_c, 0, 81, 0
1, 29152, Note_on_c, 0, 79, 77
1, 29177, Note_on_c, 1, 57, 0
1, 29177, Note_on_c, 1, 53, 0
1, 29182, Note_on_c, 0, 79, 0
1, 29184, Note_on_c, 0, 77, 77
1, 29214, Note_on_c, 0, 77, 0
1, 29216, Note_on_c, 0, 76, 77
1, 29246, Note_on_c, 0, 76, 0
1, 29248, Note_on_c, 0, 74, 77
1, 29278, Note_on_c, 0, 74, 0
1, 29280, Note_on_c, 0, 72, 77
1, 29310, Note_on_c, 0, 72, 0
1, 29312, Note_on_c, 0, 70, 77
1, 29342, Note_on_c, 0, 70, 0
1, 29344, Note_on_c, 0, 69, 77
1, 29374, Note_on_c, 0, 69, 0
1, 29376, Note_on_c, 0, 67, 77
1, 29376, Note_on_c, 1, 62, 77
1, 29376, Note_on_c, 1, 58, 77
1, 29389, Note_on_c, 0, 67, 0
1, 29390, Note_on_c, 0, 69, 77
1, 29403, Note_on_c, 0, 69, 0
1, 29404, Note_on_c, 0, 67, 77
1, 29417, Note_on_c, 0, 67, 0
1, 29418, Note_on_c, 0, 69, 77
1, 29431, Note_on_c, 0, 69, 0
1, 29432, Note_on_c, 0, 67, 77
1, 29445, Note_on_c, 0, 67, 0
1, 29446, Note_on_c, 0, 65, 77
1, 29458, Note_on_c, 0, 65, 0
1, 29459, Note_on_c, 0, 67, 77
1, 29471, Note_on_c, 0, 67, 0
1, 29472, Note_on_c, 0, 65, 77
1, 29472, Note_on_c, 1, 62, 0
1, 29472, Note_on_c, 1, 58, 0
1, 29472, Note_on_c, 1, 60, 77
1, 29472, Note_on_c, 1, 57, 77
1, 29517, Note_on_c, 0, 65, 0
1, 29517, Note_on_c, 1, 60, 0
1, 29517, Note_on_c, 1, 57, 0
1, 29544, Note_on_c, 0, 72, 77
1, 29567, Note_on_c, 0, 72, 0
1, 29568, Note_on_c, 0, 72, 77
1, 29581, Note_on_c, 0, 72, 0
1, 29582, Note_on_c, 0, 74, 77
1, 29595, Note_on_c, 0, 74, 0
1, 29596, Note_on_c, 0, 72, 77
1, 29609, Note_on_c, 0, 72, 0
1, 29610, Note_on_c, 0, 74, 77
1, 29623, Note_on_c, 0, 74, 0
1, 29624, Note_on_c, 0, 72, 77
1, 29637, Note_on_c, 0, 72, 0
1, 29638, Note_on_c, 0, 71, 77
1, 29650, Note_on_c, 0, 71, 0
1, 29651, Note_on_c, 0, 72, 77
1, 29663, Note_on_c, 0, 72, 0
1, 29664, Note_on_c, 0, 77, 77
1, 29664, Note_on_c, 1, 57, 77
1, 29664, Note_on_c, 1, 53, 77
1, 29694, Note_on_c, 0, 77, 0
1, 29696, Note_on_c, 0, 84, 77
1, 29726, Note_on_c, 0, 84, 0
1, 29728, Note_on_c, 0, 82, 77
1, 29753, Note_on_c, 1, 57, 0
1, 29753, Note_on_c, 1, 53, 0
1, 29758, Note_on_c, 0, 82, 0
1, 29760, Note_on_c, 0, 81, 77
1, 29790, Note_on_c, 0, 81, 0
1, 29792, Note_on_c, 0, 79, 77
1, 29822, Note_on_c, 0, 79, 0
1, 29824, Note_on_c, 0, 77, 77
1, 29854, Note_on_c, 0, 77, 0
1, 29856, Note_on_c, 0, 76, 77
1, 29886, Note_on_c, 0, 76, 0
1, 29888, Note_on_c, 0, 74, 77
1, 29918, Note_on_c, 0, 74, 0
1, 29920, Note_on_c, 0, 72, 77
1, 29950, Note_on_c, 0, 72, 0
1, 29952, Note_on_c, 0, 70, 77
1, 29952, Note_on_c, 1, 67, 77
1, 29952, Note_on_c, 1, 60, 77
1, 29965, Note_on_c, 0, 70, 0
1, 29966, Note_on_c, 0, 72, 77
1, 29979, Note_on_c, 0, 72, 0
1, 29980, Note_on_c, 0, 70, 77
1, 29993, Note_on_c, 0, 70, 0
1, 29994, Note_on_c, 0, 72, 77
1, 30007, Note_on_c, 0, 72, 0
1, 30008, Note_on_c, 0, 70, 77
1, 30021, Note_on_c, 0, 70, 0
1, 30022, Note_on_c, 0, 69, 77
1, 30034, Note_on_c, 0, 69, 0
1, 30035, Note_on_c, 0, 70, 77
1, 30047, Note_on_c, 0, 70, 0
1, 30048, Note_on_c, 0, 69, 77
1, 30048, Note_on_c, 1, 67, 0
1, 30048, Note_on_c, 1, 60, 0
1, 30048, Note_on_c, 1, 65, 77
1, 30093, Note_on_c, 0, 69, 0
1, 30093, Note_on_c, 1, 65, 0
1, 30120, Note_on_c, 0, 72, 77
1, 30143, Note_on_c, 0, 72, 0
1, 30144, Note_on_c, 0, 72, 77
1, 30157, Note_on_c, 0, 72, 0
1, 30158, Note_on_c, 0, 74, 77
1, 30171, Note_on_c, 0, 74, 0
1, 30172, Note_on_c, 0, 72, 77
1, 30185, Note_on_c, 0, 72, 0
1, 30186, Note_on_c, 0, 74, 77
1, 30199, Note_on_c, 0, 74, 0
1, 30200, Note_on_c, 0, 72, 77
1, 30213, Note_on_c, 0, 72, 0
1, 30214, Note_on_c, 0, 71, 77
1, 30226, Note_on_c, 0, 71, 0
1, 30227, Note_on_c, 0, 72, 77
1, 30239, Note_on_c, 0, 72, 0
1, 30240, Note_on_c, 0, 84, 77
1, 30272, Note_on_c, 1, 69, 77
1, 30302, Note_on_c, 1, 69, 0
1, 30304, Note_on_c, 1, 67, 77
1, 30334, Note_on_c, 1, 67, 0
1, 30336, Note_on_c, 1, 66, 77
1, 30366, Note_on_c, 1, 66, 0
1, 30368, Note_on_c, 1, 67, 77
1, 30381, Note_on_c, 0, 84, 0
1, 30384, Note_on_c, 0, 82, 77
1, 30398, Note_on_c, 1, 67, 0
1, 30400, Note_on_c, 1, 65, 77
1, 30430, Note_on_c, 1, 65, 0
1, 30432, Note_on_c, 1, 64, 77
1, 30462, Note_on_c, 1, 64, 0
1, 30464, Note_on_c, 1, 65, 77
1, 30473, Note_on_c, 0, 82, 0
1, 30480, Note_on_c, 0, 81, 77
1, 30494, Note_on_c, 1, 65, 0
1, 30496, Note_on_c, 1, 57, 77
1, 30526, Note_on_c, 1, 57, 0
1, 30528, Note_on_c, 1, 58, 77
1, 30558, Note_on_c, 0, 81, 0
1, 30560, Note_on_c, 0, 78, 77
1, 30590, Note_on_c, 0, 78, 0
1, 30592, Note_on_c, 0, 79, 77
1, 30622, Note_on_c, 0, 79, 0
1, 30624, Note_on_c, 0, 86, 77
1, 30654, Note_on_c, 0, 86, 0
1, 30656, Note_on_c, 0, 82, 77
1, 30686, Note_on_c, 0, 82, 0
1, 30688, Note_on_c, 0, 79, 77
1, 30705, Note_on_c, 1, 58, 0
1, 30718, Note_on_c, 0, 79, 0
1, 30720, Note_on_c, 0, 79, 77
1, 30720, Note_on_c, 1, 57, 77
1, 30750, Note_on_c, 0, 79, 0
1, 30752, Note_on_c, 0, 76, 77
1, 30782, Note_on_c, 0, 76, 0
1, 30784, Note_on_c, 0, 77, 77
1, 30814, Note_on_c, 0, 77, 0
1, 30816, Note_on_c, 0, 70, 77
1, 30846, Note_on_c, 1, 57, 0
1, 30848, Note_on_c, 1, 50, 77
1, 30878, Note_on_c, 1, 50, 0
1, 30880, Note_on_c, 1, 54, 77
1, 30910, Note_on_c, 1, 54, 0
1, 30912, Note_on_c, 1, 55, 77
1, 30942, Note_on_c, 1, 55, 0
1, 30944, Note_on_c, 1, 48, 77
1, 30974, Note_on_c, 1, 48, 0
1, 30976, Note_on_c, 1, 52, 77
1, 30993, Note_on_c, 0, 70, 0
1, 31006, Note_on_c, 1, 52, 0
1, 31008, Note_on_c, 0, 69, 77
1, 31008, Note_on_c, 1, 53, 77
1, 31038, Note_on_c, 1, 53, 0
1, 31040, Note_on_c, 1, 50, 77
1, 31070, Note_on_c, 1, 50, 0
1, 31072, Note_on_c, 1, 47, 77
1, 31097, Note_on_c, 0, 69, 0
1, 31102, Note_on_c, 1, 47, 0
1, 31104, Note_on_c, 0, 69, 77
1, 31104, Note_on_c, 1, 48, 77
1, 31104, Note_on_c, 1, 53, 64
1, 31117, Note_on_c, 0, 69, 0
1, 31118, Note_on_c, 0, 70, 77
1, 31131, Note_on_c, 0, 70, 0
1, 31132, Note_on_c, 0, 69, 77
1, 31145, Note_on_c, 0, 69, 0
1, 31146, Note_on_c, 0, 70, 77
1, 31159, Note_on_c, 0, 70, 0
1, 31160, Note_on_c, 0, 69, 77
1, 31173, Note_on_c, 0, 69, 0
1, 31174, Note_on_c, 0, 67, 77
1, 31186, Note_on_c, 0, 67, 0
1, 31187, Note_on_c, 0, 69, 77
1, 31193, Note_on_c, 1, 53, 0
1, 31199, Note_on_c, 0, 69, 0
1, 31200, Note_on_c, 0, 67, 77
1, 31200, Note_on_c, 1, 52, 64
1, 31237, Note_on_c, 1, 48, 0
1, 31245, Note_on_c, 0, 67, 0
1, 31245, Note_on_c, 1, 52, 0
1, 31272, Note_on_c, 1, 48, 77
1, 31295, Note_on_c, 1, 48, 0
1, 31296, Note_on_c, 1, 50, 77
1, 31308, Note_on_c, 1, 50, 0
1, 31308, Note_on_c, 1, 48, 77
1, 31320, Note_on_c, 1, 48, 0
1, 31320, Note_on_c, 1, 50, 77
1, 31332, Note_on_c, 1, 50, 0
1, 31332, Note_on_c, 1, 48, 77
1, 31344, Note_on_c, 1, 48, 0
1, 31344, Note_on_c, 1, 50, 77
1, 31356, Note_on_c, 1, 50, 0
1, 31356, Note_on_c, 1, 48, 77
1, 31368, Note_on_c, 1, 48, 0
1, 31368, Note_on_c, 1, 47, 77
1, 31380, Note_on_c, 1, 47, 0
1, 31380, Note_on_c, 1, 48, 77
1, 31392, Note_on_c, 1, 48, 0
1, 31392, Note_on_c, 1, 60, 77
1, 31422, Note_on_c, 1, 60, 0
1, 31424, Note_on_c, 1, 58, 77
1, 31454, Note_on_c, 1, 58, 0
1, 31456, Note_on_c, 1, 57, 77
1, 31486, Note_on_c, 1, 57, 0
1, 31488, Note_on_c, 0, 63, 77
1, 31488, Note_on_c, 1, 55, 77
1, 31518, Note_on_c, 1, 55, 0
1, 31520, Note_on_c, 1, 54, 77
1, 31550, Note_on_c, 1, 54, 0
1, 31552, Note_on_c, 1, 57, 77
1, 31582, Note_on_c, 1, 57, 0
1, 31584, Note_on_c, 1, 50, 77
1, 31614, Note_on_c, 0, 63, 0
1, 31614, Note_on_c, 1, 50, 0
1, 31616, Note_on_c, 0, 62, 77
1, 31616, Note_on_c, 1, 52, 77
1, 31646, Note_on_c, 0, 62, 0
1, 31646, Note_on_c, 1, 52, 0
1, 31648, Note_on_c, 0, 60, 77
1, 31648, Note_on_c, 1, 54, 77
1, 31678, Note_on_c, 0, 60, 0
1, 31678, Note_on_c, 1, 54, 0
1, 31680, Note_on_c, 0, 58, 77
1, 31680, Note_on_c, 1, 55, 77
1, 31710, Note_on_c, 1, 55, 0
1, 31712, Note_on_c, 1, 57, 77
1, 31742, Note_on_c, 1, 57, 0
1, 31744, Note_on_c, 1, 58, 77
1, 31769, Note_on_c, 0, 58, 0
1, 31774, Note_on_c, 1, 58, 0
1, 31776, Note_on_c, 0, 62, 77
1, 31776, Note_on_c, 1, 52, 77
1, 31806, Note_on_c, 1, 52, 0
1, 31808, Note_on_c, 1, 53, 77
1, 31838, Note_on_c, 1, 53, 0
1, 31840, Note_on_c, 1, 55, 77
1, 31870, Note_on_c, 1, 55, 0
1, 31872, Note_on_c, 1, 48, 77
1, 31902, Note_on_c, 0, 62, 0
1, 31902, Note_on_c, 1, 48, 0
1, 31904, Note_on_c, 0, 60, 77
1, 31904, Note_on_c, 1, 50, 77
1, 31934, Note_on_c, 0, 60, 0
1, 31934, Note_on_c, 1, 50, 0
1, 31936, Note_on_c, 0, 58, 77
1, 31936, Note_on_c, 1, 52, 77
1, 31966, Note_on_c, 0, 58, 0
1, 31966, Note_on_c, 1, 52, 0
1, 31968, Note_on_c, 0, 57, 77
1, 31968, Note_on_c, 1, 53, 77
1, 31998, Note_on_c, 0, 57, 0
1, 32000, Note_on_c, 0, 60, 78
1, 32030, Note_on_c, 0, 60, 0
1, 32032, Note_on_c, 0, 65, 79
1, 32057, Note_on_c, 1, 53, 0
1, 32062, Note_on_c, 0, 65, 0
1, 32064, Note_on_c, 0, 61, 80
1, 32064, Note_on_c, 1, 46, 79
1, 32094, Note_on_c, 0, 61, 0
1, 32096, Note_on_c, 0, 62, 82
1, 32126, Note_on_c, 0, 62, 0
1, 32128, Note_on_c, 0, 70, 83
1, 32153, Note_on_c, 1, 46, 0
1, 32158, Note_on_c, 0, 70, 0
1, 32160, Note_on_c, 0, 66, 85
1, 32160, Note_on_c, 1, 46, 82
1, 32190, Note_on_c, 0, 66, 0
1, 32192, Note_on_c, 0, 67, 85
1, 32222, Note_on_c, 0, 67, 0
1, 32224, Note_on_c, 0, 74, 85
1, 32227, Note_on_c, 1, 46, 0
1, 32232, Note_on_c, 1, 47, 85
1, 32254, Note_on_c, 0, 74, 0
1, 32255, Note_on_c, 1, 47, 0
1, 32256, Note_on_c, 0, 65, 85
1, 32256, Note_on_c, 1, 48, 85
1, 32345, Note_on_c, 1, 48, 0
1, 32352, Note_on_c, 0, 65, 0
1, 32352, Note_on_c, 0, 64, 79
1, 32352, Note_on_c, 1, 36, 77
1, 32397, Note_on_c, 0, 64, 0
1, 32424, Note_on_c, 0, 60, 77
1, 32441, Note_on_c, 1, 36, 0
1, 32447, Note_on_c, 0, 60, 0
1, 32448, Note_on_c, 0, 60, 77
1, 32461, Note_on_c, 0, 60, 0
1, 32462, Note_on_c, 0, 62, 77
1, 32475, Note_on_c, 0, 62, 0
1, 32476, Note_on_c, 0, 60, 77
1, 32489, Note_on_c, 0, 60, 0
1, 32490, Note_on_c, 0, 62, 77
1, 32503, Note_on_c, 0, 62, 0
1, 32504, Note_on_c, 0, 60, 77
1, 32517, Note_on_c, 0, 60, 0
1, 32518, Note_on_c, 0, 58, 77
1, 32530, Note_on_c, 0, 58, 0
1, 32531, Note_on_c, 0, 60, 77
1, 32543, Note_on_c, 0, 60, 0
1, 32544, Note_on_c, 0, 70, 77
1, 32544, Note_on_c, 1, 55, 77
1, 32574, Note_on_c, 0, 70, 0
1, 32574, Note_on_c, 1, 55, 0
1, 32576, Note_on_c, 0, 72, 77
1, 32576, Note_on_c, 1, 57, 77
1, 32606, Note_on_c, 0, 72, 0
1, 32606, Note_on_c, 1, 57, 0
1, 32608, Note_on_c, 0, 69, 77
1, 32608, Note_on_c, 1, 53, 77
1, 32638, Note_on_c, 0, 69, 0
1, 32638, Note_on_c, 1, 53, 0
1, 32640, Note_on_c, 0, 67, 77
1, 32640, Note_on_c, 1, 52, 77
1, 32670, Note_on_c, 0, 67, 0
1, 32672, Note_on_c, 0, 71, 77
1, 32702, Note_on_c, 0, 71, 0
1, 32704, Note_on_c, 0, 72, 77
1, 32729, Note_on_c, 1, 52, 0
1, 32734, Note_on_c, 0, 72, 0
1, 32736, Note_on_c, 0, 74, 77
1, 32766, Note_on_c, 0, 74, 0
1, 32768, Note_on_c, 0, 76, 77
1, 32798, Note_on_c, 0, 76, 0
1, 32800, Note_on_c, 0, 77, 77
1, 32830, Note_on_c, 0, 77, 0
1, 32832, Note_on_c, 0, 79, 77
1, 32832, Note_on_c, 1, 64, 77
1, 32862, Note_on_c, 0, 79, 0
1, 32862, Note_on_c, 1, 64, 0
1, 32864, Note_on_c, 0, 81, 77
1, 32864, Note_on_c, 1, 65, 77
1, 32894, Note_on_c, 0, 81, 0
1, 32894, Note_on_c, 1, 65, 0
1, 32896, Note_on_c, 0, 77, 77
1, 32896, Note_on_c, 1, 62, 77
1, 32926, Note_on_c, 0, 77, 0
1, 32926, Note_on_c, 1, 62, 0
1, 32928, Note_on_c, 0, 76, 77
1, 32928, Note_on_c, 1, 60, 77
1, 32958, Note_on_c, 0, 76, 0
1, 32960, Note_on_c, 0, 79, 77
1, 32990, Note_on_c, 0, 79, 0
1, 32992, Note_on_c, 0, 77, 77
1, 33017, Note_on_c, 1, 60, 0
1, 33022, Note_on_c, 0, 77, 0
1, 33024, Note_on_c, 0, 76, 77
1, 33054, Note_on_c, 0, 76, 0
1, 33056, Note_on_c, 0, 79, 77
1, 33086, Note_on_c, 0, 79, 0
1, 33088, Note_on_c, 0, 82, 77
1, 33118, Note_on_c, 0, 82, 0
1, 33120, Note_on_c, 0, 86, 77
1, 33120, Note_on_c, 1, 70, 77
1, 33150, Note_on_c, 0, 86, 0
1, 33152, Note_on_c, 0, 82, 78
1, 33182, Note_on_c, 0, 82, 0
1, 33184, Note_on_c, 0, 79, 79
1, 33214, Note_on_c, 0, 79, 0
1, 33216, Note_on_c, 0, 88, 80
1, 33246, Note_on_c, 0, 88, 0
1, 33248, Note_on_c, 0, 84, 82
1, 33278, Note_on_c, 0, 84, 0
1, 33280, Note_on_c, 0, 79, 83
1, 33297, Note_on_c, 1, 70, 0
1, 33310, Note_on_c, 0, 79, 0
1, 33312, Note_on_c, 0, 89, 85
1, 33312, Note_on_c, 1, 69, 77
1, 33342, Note_on_c, 0, 89, 0
1, 33344, Note_on_c, 0, 84, 85
1, 33374, Note_on_c, 0, 84, 0
1, 33376, Note_on_c, 0, 77, 85
1, 33406, Note_on_c, 0, 77, 0
1, 33408, Note_on_c, 0, 82, 85
1, 33438, Note_on_c, 1, 69, 0
1, 33440, Note_on_c, 1, 62, 77
1, 33470, Note_on_c, 1, 62, 0
1, 33472, Note_on_c, 1, 66, 77
1, 33502, Note_on_c, 1, 66, 0
1, 33504, Note_on_c, 1, 67, 77
1, 33534, Note_on_c, 1, 67, 0
1, 33536, Note_on_c, 1, 60, 77
1, 33566, Note_on_c, 1, 60, 0
1, 33568, Note_on_c, 1, 64, 77
1, 33585, Note_on_c, 0, 82, 0
1, 33598, Note_on_c, 1, 64, 0
1, 33600, Note_on_c, 0, 81, 79
1, 33600, Note_on_c, 1, 65, 77
1, 33630, Note_on_c, 1, 65, 0
1, 33632, Note_on_c, 1, 60, 77
1, 33662, Note_on_c, 1, 60, 0
1, 33664, Note_on_c, 1, 57, 77
1, 33689, Note_on_c, 0, 81, 0
1, 33694, Note_on_c, 1, 57, 0
1, 33696, Note_on_c, 1, 58, 77
1, 33728, Note_on_c, 0, 78, 77
1, 33758, Note_on_c, 0, 78, 0
1, 33760, Note_on_c, 0, 79, 77
1, 33790, Note_on_c, 0, 79, 0
1, 33792, Note_on_c, 0, 86, 77
1, 33822, Note_on_c, 0, 86, 0
1, 33824, Note_on_c, 0, 82, 77
1, 33854, Note_on_c, 0, 82, 0
1, 33856, Note_on_c, 0, 79, 77
1, 33873, Note_on_c, 1, 58, 0
1, 33886, Note_on_c, 0, 79, 0
1, 33888, Note_on_c, 0, 82, 77
1, 33888, Note_on_c, 1, 70, 77
1, 33888, Note_on_c, 1, 60, 77
1, 33918, Note_on_c, 0, 82, 0
1, 33920, Note_on_c, 0, 79, 77
1, 33950, Note_on_c, 0, 79, 0
1, 33952, Note_on_c, 0, 76, 77
1, 33977, Note_on_c, 1, 70, 0
1, 33977, Note_on_c, 1, 60, 0
1, 33982, Note_on_c, 0, 76, 0
1, 33984, Note_on_c, 0, 76, 77
1, 33984, Note_on_c, 1, 70, 77
1, 33984, Note_on_c, 1, 65, 77
1, 34080, Note_on_c, 0, 76, 0
1, 34080, Note_on_c, 0, 77, 77
1, 34080, Note_on_c, 1, 70, 0
1, 34080, Note_on_c, 1, 69, 77
1, 34125, Note_on_c, 0, 77, 0
1, 34125, Note_on_c, 1, 69, 0
1, 34125, Note_on_c, 1, 65, 0
1, 34152, Note_on_c, 1, 48, 77
1, 34175, Note_on_c, 1, 48, 0
1, 34176, Note_on_c, 1, 48, 77
1, 34189, Note_on_c, 1, 48, 0
1, 34190, Note_on_c, 1, 50, 77
1, 34203, Note_on_c, 1, 50, 0
1, 34204, Note_on_c, 1, 48, 77
1, 34217, Note_on_c, 1, 48, 0
1, 34218, Note_on_c, 1, 50, 77
1, 34231, Note_on_c, 1, 50, 0
1, 34232, Note_on_c, 1, 48, 77
1, 34245, Note_on_c, 1, 48, 0
1, 34246, Note_on_c, 1, 47, 77
1, 34258, Note_on_c, 1, 47, 0
1, 34259, Note_on_c, 1, 48, 77
1, 34271, Note_on_c, 1, 48, 0
1, 34272, Note_on_c, 1, 60, 77
1, 34302, Note_on_c, 1, 60, 0
1, 34304, Note_on_c, 1, 58, 77
1, 34334, Note_on_c, 1, 58, 0
1, 34336, Note_on_c, 1, 57, 77
1, 34366, Note_on_c, 1, 57, 0
1, 34368, Note_on_c, 0, 63, 77
1, 34368, Note_on_c, 1, 55, 77
1, 34398, Note_on_c, 1, 55, 0
1, 34400, Note_on_c, 1, 54, 77
1, 34430, Note_on_c, 1, 54, 0
1, 34432, Note_on_c, 1, 57, 77
1, 34462, Note_on_c, 1, 57, 0
1, 34464, Note_on_c, 1, 50, 77
1, 34494, Note_on_c, 0, 63, 0
1, 34494, Note_on_c, 1, 50, 0
1, 34496, Note_on_c, 0, 62, 77
1, 34496, Note_on_c, 1, 52, 77
1, 34526, Note_on_c, 0, 62, 0
1, 34526, Note_on_c, 1, 52, 0
1, 34528, Note_on_c, 0, 60, 77
1, 34528, Note_on_c, 1, 54, 77
1, 34558, Note_on_c, 0, 60, 0
1, 34558, Note_on_c, 1, 54, 0
1, 34560, Note_on_c, 0, 58, 77
1, 34560, Note_on_c, 1, 55, 77
1, 34590, Note_on_c, 1, 55, 0
1, 34592, Note_on_c, 1, 57, 77
1, 34622, Note_on_c, 1, 57, 0
1, 34624, Note_on_c, 1, 58, 77
1, 34649, Note_on_c, 0, 58, 0
1, 34654, Note_on_c, 1, 58, 0
1, 34656, Note_on_c, 0, 62, 77
1, 34656, Note_on_c, 1, 52, 77
1, 34686, Note_on_c, 1, 52, 0
1, 34688, Note_on_c, 1, 53, 77
1, 34718, Note_on_c, 1, 53, 0
1, 34720, Note_on_c, 1, 55, 77
1, 34750, Note_on_c, 1, 55, 0
1, 34752, Note_on_c, 1, 48, 77
1, 34782, Note_on_c, 0, 62, 0
1, 34782, Note_on_c, 1, 48, 0
1, 34784, Note_on_c, 0, 60, 77
1, 34784, Note_on_c, 1, 50, 77
1, 34814, Note_on_c, 0, 60, 0
1, 34814, Note_on_c, 1, 50, 0
1, 34816, Note_on_c, 0, 58, 77
1, 34816, Note_on_c, 1, 52, 77
1, 34846, Note_on_c, 0, 58, 0
1, 34846, Note_on_c, 1, 52, 0
1, 34848, Note_on_c, 0, 57, 77
1, 34848, Note_on_c, 1, 53, 77
1, 34878, Note_on_c, 0, 57, 0
1, 34880, Note_on_c, 0, 60, 78
1, 34910, Note_on_c, 0, 60, 0
1, 34912, Note_on_c, 0, 65, 79
1, 34937, Note_on_c, 1, 53, 0
1, 34942, Note_on_c, 0, 65, 0
1, 34944, Note_on_c, 0, 61, 80
1, 34944, Note_on_c, 1, 46, 79
1, 34974, Note_on_c, 0, 61, 0
1, 34976, Note_on_c, 0, 62, 82
1, 35006, Note_on_c, 0, 62, 0
1, 35008, Note_on_c, 0, 70, 83
1, 35033, Note_on_c, 1, 46, 0
1, 35038, Note_on_c, 0, 70, 0
1, 35040, Note_on_c, 0, 66, 85
1, 35040, Note_on_c, 1, 46, 82
1, 35070, Note_on_c, 0, 66, 0
1, 35072, Note_on_c, 0, 67, 85
1, 35102, Note_on_c, 0, 67, 0
1, 35104, Note_on_c, 0, 74, 85
1, 35107, Note_on_c, 1, 46, 0
1, 35112, Note_on_c, 1, 47, 85
1, 35134, Note_on_c, 0, 74, 0
1, 35135, Note_on_c, 1, 47, 0
1, 35136, Note_on_c, 0, 65, 85
1, 35136, Note_on_c, 1, 48, 85
1, 35225, Note_on_c, 1, 48, 0
1, 35232, Note_on_c, 0, 65, 0
1, 35232, Note_on_c, 0, 64, 79
1, 35232, Note_on_c, 1, 36, 77
1, 35277, Note_on_c, 0, 64, 0
1, 35304, Note_on_c, 0, 60, 77
1, 35321, Note_on_c, 1, 36, 0
1, 35327, Note_on_c, 0, 60, 0
1, 35328, Note_on_c, 0, 60, 77
1, 35341, Note_on_c, 0, 60, 0
1, 35342, Note_on_c, 0, 62, 77
1, 35355, Note_on_c, 0, 62, 0
1, 35356, Note_on_c, 0, 60, 77
1, 35369, Note_on_c, 0, 60, 0
1, 35370, Note_on_c, 0, 62, 77
1, 35383, Note_on_c, 0, 62, 0
1, 35384, Note_on_c, 0, 60, 77
1, 35397, Note_on_c, 0, 60, 0
1, 35398, Note_on_c, 0, 58, 77
1, 35410, Note_on_c, 0, 58, 0
1, 35411, Note_on_c, 0, 60, 77
1, 35423, Note_on_c, 0, 60, 0
1, 35424, Note_on_c, 0, 70, 77
1, 35424, Note_on_c, 1, 55, 77
1, 35454, Note_on_c, 0, 70, 0
1, 35454, Note_on_c, 1, 55, 0
1, 35456, Note_on_c, 0, 72, 77
1, 35456, Note_on_c, 1, 57, 77
1, 35486, Note_on_c, 0, 72, 0
1, 35486, Note_on_c, 1, 57, 0
1, 35488, Note_on_c, 0, 69, 77
1, 35488, Note_on_c, 1, 53, 77
1, 35518, Note_on_c, 0, 69, 0
1, 35518, Note_on_c, 1, 53, 0
1, 35520, Note_on_c, 0, 67, 77
1, 35520, Note_on_c, 1, 52, 77
1, 35550, Note_on_c, 0, 67, 0
1, 35552, Note_on_c, 0, 71, 77
1, 35582, Note_on_c, 0, 71, 0
1, 35584, Note_on_c, 0, 72, 77
1, 35609, Note_on_c, 1, 52, 0
1, 35614, Note_on_c, 0, 72, 0
1, 35616, Note_on_c, 0, 74, 77
1, 35646, Note_on_c, 0, 74, 0
1, 35648, Note_on_c, 0, 76, 77
1, 35678, Note_on_c, 0, 76, 0
1, 35680, Note_on_c, 0, 77, 77
1, 35710, Note_on_c, 0, 77, 0
1, 35712, Note_on_c, 0, 79, 77
1, 35712, Note_on_c, 1, 64, 77
1, 35742, Note_on_c, 0, 79, 0
1, 35742, Note_on_c, 1, 64, 0
1, 35744, Note_on_c, 0, 81, 77
1, 35744, Note_on_c, 1, 65, 77
1, 35774, Note_on_c, 0, 81, 0
1, 35774, Note_on_c, 1, 65, 0
1, 35776, Note_on_c, 0, 77, 77
1, 35776, Note_on_c, 1, 62, 77
1, 35806, Note_on_c, 0, 77, 0
1, 35806, Note_on_c, 1, 62, 0
1, 35808, Note_on_c, 0, 76, 77
1, 35808, Note_on_c, 1, 60, 77
1, 35838, Note_on_c, 0, 76, 0
1, 35840, Note_on_c, 0, 79, 77
1, 35870, Note_on_c, 0, 79, 0
1, 35872, Note_on_c, 0, 77, 77
1, 35897, Note_on_c, 1, 60, 0
1, 35902, Note_on_c, 0, 77, 0
1, 35904, Note_on_c, 0, 76, 77
1, 35934, Note_on_c, 0, 76, 0
1, 35936, Note_on_c, 0, 79, 77
1, 35966, Note_on_c, 0, 79, 0
1, 35968, Note_on_c, 0, 82, 77
1, 35998, Note_on_c, 0, 82, 0
1, 36000, Note_on_c, 0, 86, 77
1, 36000, Note_on_c, 1, 70, 77
1, 36030, Note_on_c, 0, 86, 0
1, 36032, Note_on_c, 0, 82, 78
1, 36062, Note_on_c, 0, 82, 0
1, 36064, Note_on_c, 0, 79, 79
1, 36094, Note_on_c, 0, 79, 0
1, 36096, Note_on_c, 0, 88, 80
1, 36126, Note_on_c, 0, 88, 0
1, 36128, Note_on_c, 0, 84, 82
1, 36158, Note_on_c, 0, 84, 0
1, 36160, Note_on_c, 0, 79, 83
1, 36177, Note_on_c, 1, 70, 0
1, 36190, Note_on_c, 0, 79, 0
1, 36192, Note_on_c, 0, 89, 85
1, 36192, Note_on_c, 1, 69, 77
1, 36222, Note_on_c, 0, 89, 0
1, 36224, Note_on_c, 0, 84, 85
1, 36254, Note_on_c, 0, 84, 0
1, 36256, Note_on_c, 0, 77, 85
1, 36286, Note_on_c, 0, 77, 0
1, 36288, Note_on_c, 0, 82, 85
1, 36318, Note_on_c, 1, 69, 0
1, 36320, Note_on_c, 1, 62, 77
1, 36350, Note_on_c, 1, 62, 0
1, 36352, Note_on_c, 1, 66, 77
1, 36382, Note_on_c, 1, 66, 0
1, 36384, Note_on_c, 1, 67, 77
1, 36414, Note_on_c, 1, 67, 0
1, 36416, Note_on_c, 1, 60, 77
1, 36446, Note_on_c, 1, 60, 0
1, 36448, Note_on_c, 1, 64, 77
1, 36465, Note_on_c, 0, 82, 0
1, 36478, Note_on_c, 1, 64, 0
1, 36480, Note_on_c, 0, 81, 79
1, 36480, Note_on_c, 1, 65, 77
1, 36510, Note_on_c, 1, 65, 0
1, 36512, Note_on_c, 1, 60, 77
1, 36542, Note_on_c, 1, 60, 0
1, 36544, Note_on_c, 1, 57, 77
1, 36569, Note_on_c, 0, 81, 0
1, 36574, Note_on_c, 1, 57, 0
1, 36576, Note_on_c, 1, 58, 77
1, 36608, Note_on_c, 0, 78, 77
1, 36638, Note_on_c, 0, 78, 0
1, 36640, Note_on_c, 0, 79, 77
1, 36670, Note_on_c, 0, 79, 0
1, 36672, Note_on_c, 0, 86, 77
1, 36702, Note_on_c, 0, 86, 0
1, 36704, Note_on_c, 0, 82, 77
1, 36734, Note_on_c, 0, 82, 0
1, 36736, Note_on_c, 0, 79, 77
1, 36753, Note_on_c, 1, 58, 0
1, 36766, Note_on_c, 0, 79, 0
1, 36768, Note_on_c, 0, 82, 77
1, 36768, Note_on_c, 1, 70, 77
1, 36768, Note_on_c, 1, 60, 77
1, 36798, Note_on_c, 0, 82, 0
1, 36800, Note_on_c, 0, 79, 77
1, 36830, Note_on_c, 0, 79, 0
1, 36832, Note_on_c, 0, 76, 77
1, 36857, Note_on_c, 1, 70, 0
1, 36857, Note_on_c, 1, 60, 0
1, 36862, Note_on_c, 0, 76, 0
1, 36864, Note_on_c, 0, 76, 77
1, 36864, Note_on_c, 1, 70, 77
1, 36864, Note_on_c, 1, 65, 77
1, 36960, Note_on_c, 0, 76, 0
1, 36960, Note_on_c, 0, 77, 77
1, 36960, Note_on_c, 1, 70, 0
1, 36960, Note_on_c, 1, 69, 77
1, 37005, Note_on_c, 0, 77, 0
1, 37005, Note_on_c, 1, 69, 0
1, 37005, Note_on_c, 1, 65, 0
1, 37032, Note_on_c, 0, 72, 77
1, 37055, Note_on_c, 0, 72, 0
1, 37056, Note_on_c, 0, 72, 77
1, 37069, Note_on_c, 0, 72, 0
1, 37070, Note_on_c, 0, 74, 77
1, 37083, Note_on_c, 0, 74, 0
1, 37084, Note_on_c, 0, 72, 77
1, 37097, Note_on_c, 0, 72, 0
1, 37098, Note_on_c, 0, 74, 77
1, 37111, Note_on_c, 0, 74, 0
1, 37112, Note_on_c, 0, 72, 77
1, 37125, Note_on_c, 0, 72, 0
1, 37126, Note_on_c, 0, 71, 77
1, 37138, Note_on_c, 0, 71, 0
1, 37139, Note_on_c, 0, 72, 77
1, 37151, Note_on_c, 0, 72, 0
1, 37152, Note_on_c, 0, 77, 77
1, 37152, Note_on_c, 1, 57, 77
1, 37152, Note_on_c, 1, 53, 77
1, 37172, Note_on_c, 0, 77, 0
1, 37200, Note_on_c, 0, 76, 77
1, 37220, Note_on_c, 0, 76, 0
1, 37241, Note_on_c, 1, 57, 0
1, 37241, Note_on_c, 1, 53, 0
1, 37248, Note_on_c, 0, 74, 77
1, 37268, Note_on_c, 0, 74, 0
1, 37296, Note_on_c, 0, 72, 77
1, 37316, Note_on_c, 0, 72, 0
1, 37344, Note_on_c, 0, 70, 77
1, 37364, Note_on_c, 0, 70, 0
1, 37392, Note_on_c, 0, 69, 77
1, 37412, Note_on_c, 0, 69, 0
1, 37440, Note_on_c, 0, 67, 77
1, 37440, Note_on_c, 1, 62, 77
1, 37440, Note_on_c, 1, 58, 77
1, 37453, Note_on_c, 0, 67, 0
1, 37454, Note_on_c, 0, 69, 77
1, 37467, Note_on_c, 0, 69, 0
1, 37468, Note_on_c, 0, 67, 77
1, 37481, Note_on_c, 0, 67, 0
1, 37482, Note_on_c, 0, 69, 77
1, 37495, Note_on_c, 0, 69, 0
1, 37496, Note_on_c, 0, 67, 77
1, 37509, Note_on_c, 0, 67, 0
1, 37510, Note_on_c, 0, 65, 77
1, 37522, Note_on_c, 0, 65, 0
1, 37523, Note_on_c, 0, 67, 77
1, 37536, Note_on_c, 0, 67, 0
1, 37536, Note_on_c, 0, 65, 77
1, 37536, Note_on_c, 1, 62, 0
1, 37536, Note_on_c, 1, 58, 0
1, 37536, Note_on_c, 1, 60, 77
1, 37536, Note_on_c, 1, 57, 77
1, 37556, Note_on_c, 0, 65, 0
1, 37581, Note_on_c, 1, 60, 0
1, 37581, Note_on_c, 1, 57, 0
1, 37608, Note_on_c, 0, 72, 77
1, 37631, Note_on_c, 0, 72, 0
1, 37632, Note_on_c, 0, 72, 77
1, 37645, Note_on_c, 0, 72, 0
1, 37646, Note_on_c, 0, 74, 77
1, 37659, Note_on_c, 0, 74, 0
1, 37660, Note_on_c, 0, 72, 77
1, 37673, Note_on_c, 0, 72, 0
1, 37674, Note_on_c, 0, 74, 77
1, 37687, Note_on_c, 0, 74, 0
1, 37688, Note_on_c, 0, 72, 77
1, 37701, Note_on_c, 0, 72, 0
1, 37702, Note_on_c, 0, 71, 77
1, 37714, Note_on_c, 0, 71, 0
1, 37715, Note_on_c, 0, 72, 77
1, 37727, Note_on_c, 0, 72, 0
1, 37728, Note_on_c, 0, 81, 77
1, 37728, Note_on_c, 1, 57, 77
1, 37728, Note_on_c, 1, 53, 77
1, 37748, Note_on_c, 0, 81, 0
1, 37776, Note_on_c, 0, 79, 77
1, 37796, Note_on_c, 0, 79, 0
1, 37817, Note_on_c, 1, 57, 0
1, 37817, Note_on_c, 1, 53, 0
1, 37824, Note_on_c, 0, 77, 77
1, 37844, Note_on_c, 0, 77, 0
1, 37872, Note_on_c, 0, 76, 77
1, 37892, Note_on_c, 0, 76, 0
1, 37920, Note_on_c, 0, 74, 77
1, 37940, Note_on_c, 0, 74, 0
1, 37968, Note_on_c, 0, 72, 77
1, 37988, Note_on_c, 0, 72, 0
1, 38016, Note_on_c, 0, 70, 77
1, 38016, Note_on_c, 1, 67, 77
1, 38016, Note_on_c, 1, 60, 77
1, 38029, Note_on_c, 0, 70, 0
1, 38030, Note_on_c, 0, 72, 77
1, 38043, Note_on_c, 0, 72, 0
1, 38044, Note_on_c, 0, 70, 77
1, 38057, Note_on_c, 0, 70, 0
1, 38058, Note_on_c, 0, 72, 77
1, 38071, Note_on_c, 0, 72, 0
1, 38072, Note_on_c, 0, 70, 77
1, 38085, Note_on_c, 0, 70, 0
1, 38086, Note_on_c, 0, 69, 77
1, 38098, Note_on_c, 0, 69, 0
1, 38099, Note_on_c, 0, 70, 77
1, 38112, Note_on_c, 0, 70, 0
1, 38112, Note_on_c, 0, 69, 77
1, 38112, Note_on_c, 1, 67, 0
1, 38112, Note_on_c, 1, 60, 0
1, 38112, Note_on_c, 1, 65, 77
1, 38132, Note_on_c, 0, 69, 0
1, 38157, Note_on_c, 1, 65, 0
1, 38184, Note_on_c, 0, 72, 77
1, 38207, Note_on_c, 0, 72, 0
1, 38208, Note_on_c, 0, 72, 77
1, 38221, Note_on_c, 0, 72, 0
1, 38222, Note_on_c, 0, 74, 77
1, 38235, Note_on_c, 0, 74, 0
1, 38236, Note_on_c, 0, 72, 77
1, 38249, Note_on_c, 0, 72, 0
1, 38250, Note_on_c, 0, 74, 77
1, 38263, Note_on_c, 0, 74, 0
1, 38264, Note_on_c, 0, 72, 77
1, 38277, Note_on_c, 0, 72, 0
1, 38278, Note_on_c, 0, 71, 77
1, 38290, Note_on_c, 0, 71, 0
1, 38291, Note_on_c, 0, 72, 77
1, 38303, Note_on_c, 0, 72, 0
1, 38304, Note_on_c, 0, 84, 77
1, 38352, Note_on_c, 1, 69, 77
1, 38397, Note_on_c, 1, 69, 0
1, 38400, Note_on_c, 1, 66, 77
1, 38437, Note_on_c, 0, 84, 0
1, 38445, Note_on_c, 1, 66, 0
1, 38448, Note_on_c, 0, 82, 77
1, 38448, Note_on_c, 1, 67, 77
1, 38493, Note_on_c, 1, 67, 0
1, 38496, Note_on_c, 1, 65, 77
1, 38537, Note_on_c, 0, 82, 0
1, 38541, Note_on_c, 1, 65, 0
1, 38544, Note_on_c, 0, 81, 77
1, 38544, Note_on_c, 1, 65, 77
1, 38589, Note_on_c, 1, 65, 0
1, 38592, Note_on_c, 1, 58, 77
1, 38637, Note_on_c, 0, 81, 0
1, 38640, Note_on_c, 0, 74, 77
1, 38685, Note_on_c, 0, 74, 0
1, 38688, Note_on_c, 0, 79, 77
1, 38733, Note_on_c, 0, 79, 0
1, 38736, Note_on_c, 0, 76, 77
1, 38769, Note_on_c, 1, 58, 0
1, 38781, Note_on_c, 0, 76, 0
1, 38784, Note_on_c, 0, 77, 77
1, 38784, Note_on_c, 1, 57, 77
1, 38829, Note_on_c, 0, 77, 0
1, 38832, Note_on_c, 0, 72, 77
1, 38877, Note_on_c, 0, 72, 0
1, 38880, Note_on_c, 0, 72, 77
1, 38892, Note_on_c, 0, 72, 0
1, 38892, Note_on_c, 0, 70, 77
1, 38904, Note_on_c, 0, 70, 0
1, 38904, Note_on_c, 0, 69, 77
1, 38916, Note_on_c, 0, 69, 0
1, 38916, Note_on_c, 0, 70, 77
1, 38925, Note_on_c, 1, 57, 0
1, 38928, Note_on_c, 1, 50, 77
1, 38973, Note_on_c, 1, 50, 0
1, 38976, Note_on_c, 1, 55, 77
1, 39021, Note_on_c, 1, 55, 0
1, 39024, Note_on_c, 1, 52, 77
1, 39057, Note_on_c, 0, 70, 0
1, 39069, Note_on_c, 1, 52, 0
1, 39072, Note_on_c, 0, 69, 77
1, 39072, Note_on_c, 1, 53, 77
1, 39072, Note_on_c, 1, 53, 64
1, 39117, Note_on_c, 1, 53, 0
1, 39120, Note_on_c, 1, 47, 77
1, 39161, Note_on_c, 0, 69, 0
1, 39165, Note_on_c, 1, 47, 0
1, 39168, Note_on_c, 0, 69, 77
1, 39168, Note_on_c, 1, 48, 77
1, 39181, Note_on_c, 0, 69, 0
1, 39182, Note_on_c, 0, 70, 77
1, 39195, Note_on_c, 0, 70, 0
1, 39196, Note_on_c, 0, 69, 77
1, 39209, Note_on_c, 0, 69, 0
1, 39210, Note_on_c, 0, 70, 77
1, 39223, Note_on_c, 0, 70, 0
1, 39224, Note_on_c, 0, 69, 77
1, 39237, Note_on_c, 0, 69, 0
1, 39238, Note_on_c, 0, 67, 77
1, 39250, Note_on_c, 0, 67, 0
1, 39251, Note_on_c, 0, 69, 77
1, 39257, Note_on_c, 1, 53, 0
1, 39263, Note_on_c, 0, 69, 0
1, 39264, Note_on_c, 0, 67, 77
1, 39264, Note_on_c, 1, 52, 64
1, 39301, Note_on_c, 1, 48, 0
1, 39309, Note_on_c, 0, 67, 0
1, 39309, Note_on_c, 1, 52, 0
1, 39336, Note_on_c, 0, 72, 77
1, 39359, Note_on_c, 0, 72, 0
1, 39360, Note_on_c, 0, 72, 77
1, 39373, Note_on_c, 0, 72, 0
1, 39374, Note_on_c, 0, 74, 77
1, 39387, Note_on_c, 0, 74, 0
1, 39388, Note_on_c, 0, 72, 77
1, 39401, Note_on_c, 0, 72, 0
1, 39402, Note_on_c, 0, 74, 77
1, 39415, Note_on_c, 0, 74, 0
1, 39416, Note_on_c, 0, 72, 77
1, 39429, Note_on_c, 0, 72, 0
1, 39430, Note_on_c, 0, 71, 77
1, 39442, Note_on_c, 0, 71, 0
1, 39443, Note_on_c, 0, 72, 77
1, 39455, Note_on_c, 0, 72, 0
1, 39456, Note_on_c, 0, 77, 77
1, 39456, Note_on_c, 1, 57, 77
1, 39456, Note_on_c, 1, 53, 77
1, 39479, Note_on_c, 0, 77, 0
1, 39480, Note_on_c, 0, 72, 77
1, 39503, Note_on_c, 0, 72, 0
1, 39504, Note_on_c, 0, 81, 77
1, 39527, Note_on_c, 0, 81, 0
1, 39528, Note_on_c, 0, 79, 77
1, 39545, Note_on_c, 1, 57, 0
1, 39545, Note_on_c, 1, 53, 0
1, 39551, Note_on_c, 0, 79, 0
1, 39552, Note_on_c, 0, 77, 77
1, 39575, Note_on_c, 0, 77, 0
1, 39576, Note_on_c, 0, 76, 77
1, 39599, Note_on_c, 0, 76, 0
1, 39600, Note_on_c, 0, 74, 77
1, 39623, Note_on_c, 0, 74, 0
1, 39624, Note_on_c, 0, 72, 77
1, 39647, Note_on_c, 0, 72, 0
1, 39648, Note_on_c, 0, 70, 77
1, 39671, Note_on_c, 0, 70, 0
1, 39672, Note_on_c, 0, 69, 77
1, 39695, Note_on_c, 0, 69, 0
1, 39696, Note_on_c, 0, 67, 77
1, 39719, Note_on_c, 0, 67, 0
1, 39720, Note_on_c, 0, 65, 77
1, 39743, Note_on_c, 0, 65, 0
1, 39744, Note_on_c, 0, 67, 77
1, 39744, Note_on_c, 1, 62, 77
1, 39744, Note_on_c, 1, 58, 77
1, 39757, Note_on_c, 0, 67, 0
1, 39758, Note_on_c, 0, 69, 77
1, 39771, Note_on_c, 0, 69, 0
1, 39772, Note_on_c, 0, 67, 77
1, 39785, Note_on_c, 0, 67, 0
1, 39786, Note_on_c, 0, 69, 77
1, 39799, Note_on_c, 0, 69, 0
1, 39800, Note_on_c, 0, 67, 77
1, 39813, Note_on_c, 0, 67, 0
1, 39814, Note_on_c, 0, 65, 77
1, 39826, Note_on_c, 0, 65, 0
1, 39827, Note_on_c, 0, 67, 77
1, 39840, Note_on_c, 0, 67, 0
1, 39840, Note_on_c, 0, 65, 77
1, 39840, Note_on_c, 1, 62, 0
1, 39840, Note_on_c, 1, 58, 0
1, 39840, Note_on_c, 1, 60, 77
1, 39840, Note_on_c, 1, 57, 77
1, 39860, Note_on_c, 0, 65, 0
1, 39885, Note_on_c, 1, 60, 0
1, 39885, Note_on_c, 1, 57, 0
1, 39912, Note_on_c, 0, 72, 77
1, 39935, Note_on_c, 0, 72, 0
1, 39936, Note_on_c, 0, 72, 77
1, 39949, Note_on_c, 0, 72, 0
1, 39950, Note_on_c, 0, 74, 77
1, 39963, Note_on_c, 0, 74, 0
1, 39964, Note_on_c, 0, 72, 77
1, 39977, Note_on_c, 0, 72, 0
1, 39978, Note_on_c, 0, 74, 77
1, 39991, Note_on_c, 0, 74, 0
1, 39992, Note_on_c, 0, 72, 77
1, 40005, Note_on_c, 0, 72, 0
1, 40006, Note_on_c, 0, 71, 77
1, 40018, Note_on_c, 0, 71, 0
1, 40019, Note_on_c, 0, 72, 77
1, 40031, Note_on_c, 0, 72, 0
1, 40032, Note_on_c, 0, 77, 77
1, 40032, Note_on_c, 1, 57, 77
1, 40032, Note_on_c, 1, 53, 77
1, 40055, Note_on_c, 0, 77, 0
1, 40056, Note_on_c, 0, 72, 77
1, 40079, Note_on_c, 0, 72, 0
1, 40080, Note_on_c, 0, 84, 77
1, 40103, Note_on_c, 0, 84, 0
1, 40104, Note_on_c, 0, 82, 77
1, 40121, Note_on_c, 1, 57, 0
1, 40121, Note_on_c, 1, 53, 0
1, 40127, Note_on_c, 0, 82, 0
1, 40128, Note_on_c, 0, 81, 77
1, 40151, Note_on_c, 0, 81, 0
1, 40152, Note_on_c, 0, 79, 77
1, 40175, Note_on_c, 0, 79, 0
1, 40176, Note_on_c, 0, 77, 77
1, 40199, Note_on_c, 0, 77, 0
1, 40200, Note_on_c, 0, 76, 77
1, 40223, Note_on_c, 0, 76, 0
1, 40224, Note_on_c, 0, 74, 77
1, 40247, Note_on_c, 0, 74, 0
1, 40248, Note_on_c, 0, 72, 77
1, 40271, Note_on_c, 0, 72, 0
1, 40272, Note_on_c, 0, 70, 77
1, 40295, Note_on_c, 0, 70, 0
1, 40296, Note_on_c, 0, 69, 77
1, 40319, Note_on_c, 0, 69, 0
1, 40320, Note_on_c, 0, 70, 77
1, 40320, Note_on_c, 1, 67, 77
1, 40320, Note_on_c, 1, 60, 77
1, 40333, Note_on_c, 0, 70, 0
1, 40334, Note_on_c, 0, 72, 77
1, 40347, Note_on_c, 0, 72, 0
1, 40348, Note_on_c, 0, 70, 77
1, 40361, Note_on_c, 0, 70, 0
1, 40362, Note_on_c, 0, 72, 77
1, 40375, Note_on_c, 0, 72, 0
1, 40376, Note_on_c, 0, 70, 77
1, 40389, Note_on_c, 0, 70, 0
1, 40390, Note_on_c, 0, 69, 77
1, 40402, Note_on_c, 0, 69, 0
1, 40403, Note_on_c, 0, 70, 77
1, 40416, Note_on_c, 0, 70, 0
1, 40416, Note_on_c, 0, 69, 77
1, 40416, Note_on_c, 1, 67, 0
1, 40416, Note_on_c, 1, 60, 0
1, 40416, Note_on_c, 1, 65, 77
1, 40436, Note_on_c, 0, 69, 0
1, 40461, Note_on_c, 1, 65, 0
1, 40488, Note_on_c, 0, 72, 77
1, 40511, Note_on_c, 0, 72, 0
1, 40512, Note_on_c, 0, 72, 77
1, 40525, Note_on_c, 0, 72, 0
1, 40526, Note_on_c, 0, 74, 77
1, 40539, Note_on_c, 0, 74, 0
1, 40540, Note_on_c, 0, 72, 77
1, 40553, Note_on_c, 0, 72, 0
1, 40554, Note_on_c, 0, 74, 77
1, 40567, Note_on_c, 0, 74, 0
1, 40568, Note_on_c, 0, 72, 77
1, 40581, Note_on_c, 0, 72, 0
1, 40582, Note_on_c, 0, 71, 77
1, 40594, Note_on_c, 0, 71, 0
1, 40595, Note_on_c, 0, 72, 77
1, 40607, Note_on_c, 0, 72, 0
1, 40608, Note_on_c, 0, 84, 77
1, 40632, Note_on_c, 1, 69, 77
1, 40655, Note_on_c, 1, 69, 0
1, 40656, Note_on_c, 1, 67, 77
1, 40679, Note_on_c, 1, 67, 0
1, 40680, Note_on_c, 1, 69, 77
1, 40703, Note_on_c, 1, 69, 0
1, 40704, Note_on_c, 1, 66, 77
1, 40741, Note_on_c, 0, 84, 0
1, 40749, Note_on_c, 1, 66, 0
1, 40752, Note_on_c, 0, 82, 77
1, 40752, Note_on_c, 1, 67, 77
1, 40797, Note_on_c, 1, 67, 0
1, 40800, Note_on_c, 1, 65, 77
1, 40841, Note_on_c, 0, 82, 0
1, 40845, Note_on_c, 1, 65, 0
1, 40848, Note_on_c, 0, 81, 77
1, 40848, Note_on_c, 1, 65, 77
1, 40893, Note_on_c, 0, 81, 0
1, 40893, Note_on_c, 1, 65, 0
1, 40896, Note_on_c, 0, 81, 77
1, 40896, Note_on_c, 1, 58, 77
1, 40919, Note_on_c, 0, 81, 0
1, 40920, Note_on_c, 0, 78, 77
1, 40943, Note_on_c, 0, 78, 0
1, 40944, Note_on_c, 0, 79, 77
1, 40967, Note_on_c, 0, 79, 0
1, 40968, Note_on_c, 0, 86, 77
1, 40991, Note_on_c, 0, 86, 0
1, 40992, Note_on_c, 0, 84, 77
1, 41015, Note_on_c, 0, 84, 0
1, 41016, Note_on_c, 0, 82, 77
1, 41039, Note_on_c, 0, 82, 0
1, 41040, Note_on_c, 0, 81, 77
1, 41063, Note_on_c, 0, 81, 0
1, 41064, Note_on_c, 0, 79, 77
1, 41073, Note_on_c, 1, 58, 0
1, 41087, Note_on_c, 0, 79, 0
1, 41088, Note_on_c, 0, 77, 77
1, 41088, Note_on_c, 1, 57, 77
1, 41111, Note_on_c, 0, 77, 0
1, 41112, Note_on_c, 0, 76, 77
1, 41135, Note_on_c, 0, 76, 0
1, 41136, Note_on_c, 0, 74, 77
1, 41159, Note_on_c, 0, 74, 0
1, 41160, Note_on_c, 0, 72, 77
1, 41177, Note_on_c, 1, 57, 0
1, 41183, Note_on_c, 0, 72, 0
1, 41184, Note_on_c, 0, 70, 77
1, 41184, Note_on_c, 1, 57, 77
1, 41207, Note_on_c, 1, 57, 0
1, 41208, Note_on_c, 1, 50, 77
1, 41231, Note_on_c, 1, 50, 0
1, 41232, Note_on_c, 1, 52, 77
1, 41255, Note_on_c, 1, 52, 0
1, 41256, Note_on_c, 1, 54, 77
1, 41279, Note_on_c, 1, 54, 0
1, 41280, Note_on_c, 1, 55, 77
1, 41303, Note_on_c, 1, 55, 0
1, 41304, Note_on_c, 1, 48, 77
1, 41327, Note_on_c, 1, 48, 0
1, 41328, Note_on_c, 1, 50, 77
1, 41351, Note_on_c, 1, 50, 0
1, 41352, Note_on_c, 1, 52, 77
1, 41375, Note_on_c, 1, 52, 0
1, 41376, Note_on_c, 0, 70, 0
1, 41376, Note_on_c, 0, 69, 77
1, 41376, Note_on_c, 1, 53, 77
1, 41376, Note_on_c, 1, 53, 64
1, 41421, Note_on_c, 1, 53, 0
1, 41424, Note_on_c, 1, 47, 77
1, 41465, Note_on_c, 0, 69, 0
1, 41469, Note_on_c, 1, 47, 0
1, 41472, Note_on_c, 0, 69, 77
1, 41472, Note_on_c, 1, 48, 77
1, 41485, Note_on_c, 0, 69, 0
1, 41486, Note_on_c, 0, 70, 77
1, 41499, Note_on_c, 0, 70, 0
1, 41500, Note_on_c, 0, 69, 77
1, 41513, Note_on_c, 0, 69, 0
1, 41514, Note_on_c, 0, 70, 77
1, 41527, Note_on_c, 0, 70, 0
1, 41528, Note_on_c, 0, 69, 77
1, 41541, Note_on_c, 0, 69, 0
1, 41542, Note_on_c, 0, 67, 77
1, 41554, Note_on_c, 0, 67, 0
1, 41555, Note_on_c, 0, 69, 77
1, 41561, Note_on_c, 1, 53, 0
1, 41568, Note_on_c, 0, 69, 0
1, 41568, Note_on_c, 0, 67, 77
1, 41568, Note_on_c, 1, 52, 64
1, 41588, Note_on_c, 0, 67, 0
1, 41613, Note_on_c, 1, 48, 0
1, 41613, Note_on_c, 1, 52, 0
1, 41640, Note_on_c, 1, 48, 77
1, 41663, Note_on_c, 1, 48, 0
1, 41664, Note_on_c, 1, 48, 77
1, 41677, Note_on_c, 1, 48, 0
1, 41678, Note_on_c, 1, 50, 77
1, 41691, Note_on_c, 1, 50, 0
1, 41692, Note_on_c, 1, 48, 77
1, 41705, Note_on_c, 1, 48, 0
1, 41706, Note_on_c, 1, 50, 77
1, 41719, Note_on_c, 1, 50, 0
1, 41720, Note_on_c, 1, 48, 77
1, 41733, Note_on_c, 1, 48, 0
1, 41734, Note_on_c, 1, 47, 77
1, 41746, Note_on_c, 1, 47, 0
1, 41747, Note_on_c, 1, 48, 77
1, 41759, Note_on_c, 1, 48, 0
1, 41760, Note_on_c, 1, 60, 77
1, 41805, Note_on_c, 1, 60, 0
1, 41808, Note_on_c, 1, 58, 77
1, 41853, Note_on_c, 1, 58, 0
1, 41856, Note_on_c, 1, 57, 77
1, 41901, Note_on_c, 1, 57, 0
1, 41904, Note_on_c, 0, 63, 77
1, 41904, Note_on_c, 1, 55, 77
1, 41952, Note_on_c, 0, 63, 0
1, 41952, Note_on_c, 0, 62, 77
1, 41952, Note_on_c, 1, 55, 0
1, 41952, Note_on_c, 1, 54, 77
1, 41997, Note_on_c, 0, 62, 0
1, 41997, Note_on_c, 1, 54, 0
1, 42000, Note_on_c, 0, 72, 77
1, 42000, Note_on_c, 1, 57, 77
1, 42048, Note_on_c, 0, 72, 0
1, 42048, Note_on_c, 0, 70, 77
1, 42048, Note_on_c, 1, 57, 0
1, 42048, Note_on_c, 1, 55, 77
1, 42093, Note_on_c, 0, 70, 0
1, 42093, Note_on_c, 1, 55, 0
1, 42096, Note_on_c, 0, 61, 77
1, 42096, Note_on_c, 1, 53, 77
1, 42144, Note_on_c, 0, 61, 0
1, 42144, Note_on_c, 0, 60, 77
1, 42144, Note_on_c, 1, 53, 0
1, 42144, Note_on_c, 1, 52, 77
1, 42189, Note_on_c, 0, 60, 0
1, 42189, Note_on_c, 1, 52, 0
1, 42192, Note_on_c, 0, 70, 77
1, 42192, Note_on_c, 1, 55, 77
1, 42237, Note_on_c, 0, 70, 0
1, 42237, Note_on_c, 1, 55, 0
1, 42240, Note_on_c, 0, 69, 77
1, 42240, Note_on_c, 1, 53, 77
1, 42285, Note_on_c, 0, 69, 0
1, 42285, Note_on_c, 1, 53, 0
1, 42288, Note_on_c, 0, 65, 77
1, 42288, Note_on_c, 1, 45, 77
1, 42333, Note_on_c, 0, 65, 0
1, 42333, Note_on_c, 1, 45, 0
1, 42336, Note_on_c, 0, 62, 77
1, 42336, Note_on_c, 1, 46, 77
1, 42381, Note_on_c, 0, 62, 0
1, 42384, Note_on_c, 0, 66, 78
1, 42429, Note_on_c, 0, 66, 0
1, 42432, Note_on_c, 0, 67, 80
1, 42469, Note_on_c, 1, 46, 0
1, 42477, Note_on_c, 0, 67, 0
1, 42480, Note_on_c, 0, 69, 82
1, 42480, Note_on_c, 1, 45, 77
1, 42525, Note_on_c, 0, 69, 0
1, 42525, Note_on_c, 1, 45, 0
1, 42528, Note_on_c, 0, 72, 84
1, 42528, Note_on_c, 1, 43, 77
1, 42551, Note_on_c, 0, 72, 0
1, 42552, Note_on_c, 0, 70, 85
1, 42573, Note_on_c, 1, 43, 0
1, 42575, Note_on_c, 0, 70, 0
1, 42576, Note_on_c, 0, 69, 84
1, 42576, Note_on_c, 1, 46, 77
1, 42599, Note_on_c, 0, 69, 0
1, 42600, Note_on_c, 0, 67, 83
1, 42621, Note_on_c, 1, 46, 0
1, 42623, Note_on_c, 0, 67, 0
1, 42624, Note_on_c, 0, 65, 82
1, 42624, Note_on_c, 1, 48, 77
1, 42713, Note_on_c, 1, 48, 0
1, 42720, Note_on_c, 0, 65, 0
1, 42720, Note_on_c, 0, 64, 78
1, 42720, Note_on_c, 1, 36, 77
1, 42765, Note_on_c, 0, 64, 0
1, 42765, Note_on_c, 1, 36, 0
1, 42792, Note_on_c, 0, 60, 77
1, 42815, Note_on_c, 0, 60, 0
1, 42816, Note_on_c, 0, 60, 77
1, 42829, Note_on_c, 0, 60, 0
1, 42830, Note_on_c, 0, 62, 77
1, 42843, Note_on_c, 0, 62, 0
1, 42844, Note_on_c, 0, 60, 77
1, 42857, Note_on_c, 0, 60, 0
1, 42858, Note_on_c, 0, 62, 77
1, 42871, Note_on_c, 0, 62, 0
1, 42872, Note_on_c, 0, 60, 77
1, 42885, Note_on_c, 0, 60, 0
1, 42886, Note_on_c, 0, 59, 77
1, 42898, Note_on_c, 0, 59, 0
1, 42899, Note_on_c, 0, 60, 77
1, 42911, Note_on_c, 0, 60, 0
1, 42912, Note_on_c, 0, 70, 77
1, 42912, Note_on_c, 0, 67, 77
1, 42912, Note_on_c, 1, 48, 77
1, 42960, Note_on_c, 0, 70, 0
1, 42960, Note_on_c, 0, 67, 0
1, 42960, Note_on_c, 0, 69, 77
1, 42960, Note_on_c, 0, 65, 77
1, 43001, Note_on_c, 1, 48, 0
1, 43005, Note_on_c, 0, 69, 0
1, 43005, Note_on_c, 0, 65, 0
1, 43008, Note_on_c, 0, 67, 77
1, 43008, Note_on_c, 0, 64, 77
1, 43053, Note_on_c, 0, 67, 0
1, 43053, Note_on_c, 0, 64, 0
1, 43056, Note_on_c, 0, 72, 77
1, 43079, Note_on_c, 0, 72, 0
1, 43080, Note_on_c, 0, 74, 77
1, 43103, Note_on_c, 0, 74, 0
1, 43104, Note_on_c, 0, 76, 77
1, 43127, Note_on_c, 0, 76, 0
1, 43128, Note_on_c, 0, 77, 77
1, 43151, Note_on_c, 0, 77, 0
1, 43152, Note_on_c, 0, 79, 77
1, 43175, Note_on_c, 0, 79, 0
1, 43176, Note_on_c, 0, 81, 77
1, 43199, Note_on_c, 0, 81, 0
1, 43200, Note_on_c, 0, 82, 77
1, 43200, Note_on_c, 0, 79, 77
1, 43200, Note_on_c, 1, 60, 77
1, 43245, Note_on_c, 0, 82, 0
1, 43245, Note_on_c, 0, 79, 0
1, 43248, Note_on_c, 0, 81, 77
1, 43248, Note_on_c, 0, 77, 77
1, 43289, Note_on_c, 1, 60, 0
1, 43293, Note_on_c, 0, 81, 0
1, 43293, Note_on_c, 0, 77, 0
1, 43296, Note_on_c, 0, 79, 77
1, 43296, Note_on_c, 0, 76, 77
1, 43341, Note_on_c, 0, 79, 0
1, 43341, Note_on_c, 0, 76, 0
1, 43344, Note_on_c, 0, 76, 77
1, 43344, Note_on_c, 1, 60, 77
1, 43367, Note_on_c, 0, 76, 0
1, 43367, Note_on_c, 1, 60, 0
1, 43368, Note_on_c, 0, 77, 78
1, 43368, Note_on_c, 1, 62, 77
1, 43391, Note_on_c, 0, 77, 0
1, 43391, Note_on_c, 1, 62, 0
1, 43392, Note_on_c, 0, 79, 79
1, 43392, Note_on_c, 1, 64, 77
1, 43415, Note_on_c, 0, 79, 0
1, 43415, Note_on_c, 1, 64, 0
1, 43416, Note_on_c, 0, 81, 81
1, 43416, Note_on_c, 1, 65, 77
1, 43439, Note_on_c, 0, 81, 0
1, 43439, Note_on_c, 1, 65, 0
1, 43440, Note_on_c, 0, 82, 82
1, 43440, Note_on_c, 1, 67, 77
1, 43463, Note_on_c, 0, 82, 0
1, 43463, Note_on_c, 1, 67, 0
1, 43464, Note_on_c, 0, 84, 83
1, 43464, Note_on_c, 1, 69, 77
1, 43487, Note_on_c, 0, 84, 0
1, 43487, Note_on_c, 1, 69, 0
1, 43488, Note_on_c, 0, 86, 85
1, 43488, Note_on_c, 1, 70, 77
1, 43533, Note_on_c, 0, 86, 0
1, 43536, Note_on_c, 0, 82, 85
1, 43581, Note_on_c, 0, 82, 0
1, 43584, Note_on_c, 0, 79, 85
1, 43629, Note_on_c, 0, 79, 0
1, 43632, Note_on_c, 0, 88, 85
1, 43665, Note_on_c, 1, 70, 0
1, 43677, Note_on_c, 0, 88, 0
1, 43680, Note_on_c, 0, 89, 85
1, 43680, Note_on_c, 1, 69, 77
1, 43725, Note_on_c, 0, 89, 0
1, 43728, Note_on_c, 0, 77, 85
1, 43769, Note_on_c, 1, 69, 0
1, 43773, Note_on_c, 0, 77, 0
1, 43776, Note_on_c, 0, 84, 85
1, 43776, Note_on_c, 1, 69, 77
1, 43788, Note_on_c, 0, 84, 0
1, 43788, Note_on_c, 0, 82, 85
1, 43800, Note_on_c, 0, 82, 0
1, 43800, Note_on_c, 0, 81, 85
1, 43812, Note_on_c, 0, 81, 0
1, 43812, Note_on_c, 0, 82, 85
1, 43821, Note_on_c, 1, 69, 0
1, 43824, Note_on_c, 1, 62, 77
1, 43869, Note_on_c, 1, 62, 0
1, 43872, Note_on_c, 1, 67, 77
1, 43917, Note_on_c, 1, 67, 0
1, 43920, Note_on_c, 1, 64, 77
1, 43965, Note_on_c, 1, 64, 0
1, 43968, Note_on_c, 0, 82, 0
1, 43968, Note_on_c, 0, 81, 85
1, 43968, Note_on_c, 1, 65, 77
1, 44013, Note_on_c, 1, 65, 0
1, 44016, Note_on_c, 1, 57, 77
1, 44057, Note_on_c, 0, 81, 0
1, 44061, Note_on_c, 1, 57, 0
1, 44064, Note_on_c, 1, 58, 77
1, 44112, Note_on_c, 0, 66, 83
1, 44153, Note_on_c, 1, 58, 0
1, 44157, Note_on_c, 0, 66, 0
1, 44160, Note_on_c, 0, 67, 81
1, 44205, Note_on_c, 0, 67, 0
1, 44208, Note_on_c, 0, 74, 79
1, 44253, Note_on_c, 0, 74, 0
1, 44256, Note_on_c, 1, 60, 77
1, 44304, Note_on_c, 0, 64, 77
1, 44304, Note_on_c, 0, 58, 77
1, 44345, Note_on_c, 1, 60, 0
1, 44349, Note_on_c, 0, 64, 0
1, 44349, Note_on_c, 0, 58, 0
1, 44352, Note_on_c, 0, 65, 77
1, 44352, Note_on_c, 0, 57, 77
1, 44352, Note_on_c, 1, 53, 77
1, 44441, Note_on_c, 0, 65, 0
1, 44441, Note_on_c, 0, 57, 0
1, 44441, Note_on_c, 1, 53, 0
1, 44448, Note_on_c, 1, 41, 77
1, 44520, Note_on_c, 0, 60, 85
1, 44537, Note_on_c, 1, 41, 0
1, 44543, Note_on_c, 0, 60, 0
1, 44544, Note_on_c, 0, 60, 85
1, 44557, Note_on_c, 0, 60, 0
1, 44558, Note_on_c, 0, 62, 85
1, 44571, Note_on_c, 0, 62, 0
1, 44572, Note_on_c, 0, 60, 85
1, 44585, Note_on_c, 0, 60, 0
1, 44586, Note_on_c, 0, 62, 85
1, 44599, Note_on_c, 0, 62, 0
1, 44600, Note_on_c, 0, 60, 85
1, 44613, Note_on_c, 0, 60, 0
1, 44614, Note_on_c, 0, 59, 85
1, 44626, Note_on_c, 0, 59, 0
1, 44627, Note_on_c, 0, 60, 85
1, 44639, Note_on_c, 0, 60, 0
1, 44640, Note_on_c, 0, 72, 85
1, 44640, Note_on_c, 1, 57, 85
1, 44663, Note_on_c, 0, 72, 0
1, 44664, Note_on_c, 0, 60, 85
1, 44685, Note_on_c, 1, 57, 0
1, 44687, Note_on_c, 0, 60, 0
1, 44688, Note_on_c, 0, 70, 85
1, 44688, Note_on_c, 1, 55, 85
1, 44711, Note_on_c, 0, 70, 0
1, 44712, Note_on_c, 0, 60, 85
1, 44733, Note_on_c, 1, 55, 0
1, 44735, Note_on_c, 0, 60, 0
1, 44736, Note_on_c, 0, 69, 85
1, 44736, Note_on_c, 1, 54, 85
1, 44759, Note_on_c, 0, 69, 0
1, 44760, Note_on_c, 0, 60, 85
1, 44781, Note_on_c, 1, 54, 0
1, 44783, Note_on_c, 0, 60, 0
1, 44784, Note_on_c, 0, 67, 85
1, 44784, Note_on_c, 1, 51, 85
1, 44807, Note_on_c, 0, 67, 0
1, 44808, Note_on_c, 0, 60, 85
1, 44829, Note_on_c, 1, 51, 0
1, 44831, Note_on_c, 0, 60, 0
1, 44832, Note_on_c, 0, 66, 85
1, 44832, Note_on_c, 1, 50, 85
1, 44855, Note_on_c, 0, 66, 0
1, 44856, Note_on_c, 0, 60, 85
1, 44877, Note_on_c, 1, 50, 0
1, 44879, Note_on_c, 0, 60, 0
1, 44880, Note_on_c, 0, 72, 85
1, 44880, Note_on_c, 1, 54, 85
1, 44903, Note_on_c, 0, 72, 0
1, 44904, Note_on_c, 0, 60, 85
1, 44925, Note_on_c, 1, 54, 0
1, 44927, Note_on_c, 0, 60, 0
1, 44928, Note_on_c, 0, 70, 85
1, 44928, Note_on_c, 1, 43, 85
1, 44951, Note_on_c, 1, 43, 0
1, 44952, Note_on_c, 1, 55, 85
1, 44973, Note_on_c, 0, 70, 0
1, 44975, Note_on_c, 1, 55, 0
1, 44976, Note_on_c, 0, 69, 85
1, 44976, Note_on_c, 1, 45, 85
1, 44999, Note_on_c, 1, 45, 0
1, 45000, Note_on_c, 1, 55, 85
1, 45021, Note_on_c, 0, 69, 0
1, 45023, Note_on_c, 1, 55, 0
1, 45024, Note_on_c, 0, 67, 85
1, 45024, Note_on_c, 1, 46, 85
1, 45047, Note_on_c, 1, 46, 0
1, 45048, Note_on_c, 1, 55, 85
1, 45069, Note_on_c, 0, 67, 0
1, 45071, Note_on_c, 1, 55, 0
1, 45072, Note_on_c, 0, 65, 85
1, 45072, Note_on_c, 1, 47, 85
1, 45095, Note_on_c, 1, 47, 0
1, 45096, Note_on_c, 1, 55, 85
1, 45117, Note_on_c, 0, 65, 0
1, 45119, Note_on_c, 1, 55, 0
1, 45120, Note_on_c, 0, 64, 85
1, 45120, Note_on_c, 1, 48, 85
1, 45143, Note_on_c, 1, 48, 0
1, 45144, Note_on_c, 1, 55, 85
1, 45165, Note_on_c, 0, 64, 0
1, 45167, Note_on_c, 1, 55, 0
1, 45168, Note_on_c, 0, 70, 85
1, 45168, Note_on_c, 1, 52, 85
1, 45191, Note_on_c, 1, 52, 0
1, 45192, Note_on_c, 1, 55, 85
1, 45213, Note_on_c, 0, 70, 0
1, 45215, Note_on_c, 1, 55, 0
1, 45216, Note_on_c, 0, 69, 85
1, 45216, Note_on_c, 1, 41, 85
1, 45239, Note_on_c, 1, 41, 0
1, 45240, Note_on_c, 1, 53, 85
1, 45261, Note_on_c, 0, 69, 0
1, 45263, Note_on_c, 1, 53, 0
1, 45264, Note_on_c, 0, 67, 85
1, 45264, Note_on_c, 1, 43, 85
1, 45287, Note_on_c, 1, 43, 0
1, 45288, Note_on_c, 1, 53, 85
1, 45309, Note_on_c, 0, 67, 0
1, 45311, Note_on_c, 1, 53, 0
1, 45312, Note_on_c, 0, 65, 85
1, 45312, Note_on_c, 1, 45, 85
1, 45335, Note_on_c, 1, 45, 0
1, 45336, Note_on_c, 1, 53, 85
1, 45357, Note_on_c, 0, 65, 0
1, 45359, Note_on_c, 1, 53, 0
1, 45360, Note_on_c, 0, 63, 85
1, 45360, Note_on_c, 1, 48, 85
1, 45383, Note_on_c, 1, 48, 0
1, 45384, Note_on_c, 1, 53, 85
1, 45405, Note_on_c, 0, 63, 0
1, 45407, Note_on_c, 1, 53, 0
1, 45408, Note_on_c, 0, 62, 85
1, 45408, Note_on_c, 1, 46, 85
1, 45431, Note_on_c, 1, 46, 0
1, 45432, Note_on_c, 1, 55, 85
1, 45453, Note_on_c, 0, 62, 0
1, 45455, Note_on_c, 1, 55, 0
1, 45456, Note_on_c, 0, 74, 85
1, 45456, Note_on_c, 1, 50, 85
1, 45479, Note_on_c, 1, 50, 0
1, 45480, Note_on_c, 1, 55, 85
1, 45501, Note_on_c, 0, 74, 0
1, 45503, Note_on_c, 1, 55, 0
1, 45504, Note_on_c, 0, 65, 82
1, 45504, Note_on_c, 1, 57, 83
1, 45504, Note_on_c, 1, 48, 83
1, 45600, Note_on_c, 0, 65, 0
1, 45600, Note_on_c, 0, 64, 77
1, 45600, Note_on_c, 1, 57, 0
1, 45600, Note_on_c, 1, 55, 79
1, 45645, Note_on_c, 0, 64, 0
1, 45645, Note_on_c, 1, 55, 0
1, 45645, Note_on_c, 1, 48, 0
1, 45648, Note_on_c, 0, 60, 77
1, 45671, Note_on_c, 0, 60, 0
1, 45672, Note_on_c, 0, 62, 77
1, 45695, Note_on_c, 0, 62, 0
1, 45696, Note_on_c, 0, 64, 77
1, 45719, Note_on_c, 0, 64, 0
1, 45720, Note_on_c, 0, 65, 77
1, 45743, Note_on_c, 0, 65, 0
1, 45744, Note_on_c, 0, 67, 77
1, 45767, Note_on_c, 0, 67, 0
1, 45768, Note_on_c, 0, 69, 77
1, 45791, Note_on_c, 0, 69, 0
1, 45792, Note_on_c, 0, 70, 77
1, 45792, Note_on_c, 1, 55, 77
1, 45815, Note_on_c, 0, 70, 0
1, 45816, Note_on_c, 0, 60, 77
1, 45837, Note_on_c, 1, 55, 0
1, 45839, Note_on_c, 0, 60, 0
1, 45840, Note_on_c, 0, 69, 77
1, 45840, Note_on_c, 1, 53, 77
1, 45863, Note_on_c, 0, 69, 0
1, 45864, Note_on_c, 0, 60, 77
1, 45885, Note_on_c, 1, 53, 0
1, 45887, Note_on_c, 0, 60, 0
1, 45888, Note_on_c, 0, 67, 77
1, 45888, Note_on_c, 1, 52, 77
1, 45933, Note_on_c, 0, 67, 0
1, 45933, Note_on_c, 1, 52, 0
1, 45936, Note_on_c, 0, 72, 77
1, 45959, Note_on_c, 0, 72, 0
1, 45960, Note_on_c, 0, 74, 77
1, 45983, Note_on_c, 0, 74, 0
1, 45984, Note_on_c, 0, 76, 77
1, 46007, Note_on_c, 0, 76, 0
1, 46008, Note_on_c, 0, 77, 77
1, 46031, Note_on_c, 0, 77, 0
1, 46032, Note_on_c, 0, 79, 77
1, 46055, Note_on_c, 0, 79, 0
1, 46056, Note_on_c, 0, 81, 77
1, 46079, Note_on_c, 0, 81, 0
1, 46080, Note_on_c, 0, 82, 77
1, 46080, Note_on_c, 1, 67, 77
1, 46103, Note_on_c, 0, 82, 0
1, 46104, Note_on_c, 0, 72, 77
1, 46125, Note_on_c, 1, 67, 0
1, 46127, Note_on_c, 0, 72, 0
1, 46128, Note_on_c, 0, 81, 77
1, 46128, Note_on_c, 1, 65, 77
1, 46151, Note_on_c, 0, 81, 0
1, 46152, Note_on_c, 0, 72, 77
1, 46173, Note_on_c, 1, 65, 0
1, 46175, Note_on_c, 0, 72, 0
1, 46176, Note_on_c, 0, 79, 77
1, 46176, Note_on_c, 1, 64, 77
1, 46221, Note_on_c, 0, 79, 0
1, 46221, Note_on_c, 1, 64, 0
1, 46224, Note_on_c, 0, 76, 77
1, 46224, Note_on_c, 1, 60, 77
1, 46247, Note_on_c, 0, 76, 0
1, 46247, Note_on_c, 1, 60, 0
1, 46248, Note_on_c, 0, 77, 77
1, 46248, Note_on_c, 1, 62, 77
1, 46271, Note_on_c, 0, 77, 0
1, 46271, Note_on_c, 1, 62, 0
1, 46272, Note_on_c, 0, 79, 77
1, 46272, Note_on_c, 1, 64, 77
1, 46295, Note_on_c, 0, 79, 0
1, 46295, Note_on_c, 1, 64, 0
1, 46296, Note_on_c, 0, 81, 79
1, 46296, Note_on_c, 1, 65, 77
1, 46319, Note_on_c, 0, 81, 0
1, 46319, Note_on_c, 1, 65, 0
1, 46320, Note_on_c, 0, 82, 81
1, 46320, Note_on_c, 1, 67, 77
1, 46343, Note_on_c, 0, 82, 0
1, 46343, Note_on_c, 1, 67, 0
1, 46344, Note_on_c, 0, 84, 83
1, 46344, Note_on_c, 1, 69, 77
1, 46367, Note_on_c, 0, 84, 0
1, 46367, Note_on_c, 1, 69, 0
1, 46368, Note_on_c, 0, 86, 85
1, 46368, Note_on_c, 1, 70, 77
1, 46391, Note_on_c, 0, 86, 0
1, 46392, Note_on_c, 0, 84, 85
1, 46415, Note_on_c, 0, 84, 0
1, 46416, Note_on_c, 0, 82, 85
1, 46439, Note_on_c, 0, 82, 0
1, 46440, Note_on_c, 0, 81, 85
1, 46463, Note_on_c, 0, 81, 0
1, 46464, Note_on_c, 0, 82, 85
1, 46487, Note_on_c, 0, 82, 0
1, 46488, Note_on_c, 0, 84, 85
1, 46511, Note_on_c, 0, 84, 0
1, 46512, Note_on_c, 0, 86, 85
1, 46535, Note_on_c, 0, 86, 0
1, 46536, Note_on_c, 0, 88, 85
1, 46545, Note_on_c, 1, 70, 0
1, 46559, Note_on_c, 0, 88, 0
1, 46560, Note_on_c, 0, 89, 85
1, 46560, Note_on_c, 1, 69, 77
1, 46583, Note_on_c, 0, 89, 0
1, 46584, Note_on_c, 0, 88, 85
1, 46607, Note_on_c, 0, 88, 0
1, 46608, Note_on_c, 0, 86, 85
1, 46631, Note_on_c, 0, 86, 0
1, 46632, Note_on_c, 0, 84, 85
1, 46649, Note_on_c, 1, 69, 0
1, 46655, Note_on_c, 0, 84, 0
1, 46656, Note_on_c, 0, 82, 85
1, 46656, Note_on_c, 1, 69, 77
1, 46679, Note_on_c, 1, 69, 0
1, 46680, Note_on_c, 1, 62, 77
1, 46703, Note_on_c, 1, 62, 0
1, 46704, Note_on_c, 1, 64, 77
1, 46727, Note_on_c, 1, 64, 0
1, 46728, Note_on_c, 1, 66, 77
1, 46751, Note_on_c, 1, 66, 0
1, 46752, Note_on_c, 1, 67, 77
1, 46775, Note_on_c, 1, 67, 0
1, 46776, Note_on_c, 1, 60, 77
1, 46799, Note_on_c, 1, 60, 0
1, 46800, Note_on_c, 1, 62, 77
1, 46823, Note_on_c, 1, 62, 0
1, 46824, Note_on_c, 1, 64, 77
1, 46847, Note_on_c, 1, 64, 0
1, 46848, Note_on_c, 0, 82, 0
1, 46848, Note_on_c, 0, 81, 85
1, 46848, Note_on_c, 1, 65, 77
1, 46871, Note_on_c, 1, 65, 0
1, 46872, Note_on_c, 1, 53, 77
1, 46895, Note_on_c, 1, 53, 0
1, 46896, Note_on_c, 1, 55, 77
1, 46919, Note_on_c, 1, 55, 0
1, 46920, Note_on_c, 1, 57, 77
1, 46937, Note_on_c, 0, 81, 0
1, 46943, Note_on_c, 1, 57, 0
1, 46944, Note_on_c, 1, 58, 77
1, 46992, Note_on_c, 0, 66, 85
1, 47004, Note_on_c, 0, 66, 0
1, 47004, Note_on_c, 0, 78, 85
1, 47033, Note_on_c, 1, 58, 0
1, 47038, Note_on_c, 0, 78, 0
1, 47040, Note_on_c, 0, 67, 85
1, 47052, Note_on_c, 0, 67, 0
1, 47052, Note_on_c, 0, 79, 85
1, 47086, Note_on_c, 0, 79, 0
1, 47088, Note_on_c, 0, 70, 85
1, 47100, Note_on_c, 0, 70, 0
1, 47100, Note_on_c, 0, 82, 85
1, 47134, Note_on_c, 0, 82, 0
1, 47136, Note_on_c, 1, 55, 77
1, 47136, Note_on_c, 1, 48, 77
1, 47184, Note_on_c, 0, 64, 83
1, 47184, Note_on_c, 0, 58, 83
1, 47225, Note_on_c, 1, 55, 0
1, 47225, Note_on_c, 1, 48, 0
1, 47229, Note_on_c, 0, 64, 0
1, 47229, Note_on_c, 0, 58, 0
1, 47232, Note_on_c, 0, 65, 81
1, 47232, Note_on_c, 0, 57, 81
1, 47232, Note_on_c, 1, 53, 77
1, 47321, Note_on_c, 0, 65, 0
1, 47321, Note_on_c, 0, 57, 0
1, 47321, Note_on_c, 1, 53, 0
1, 47328, Note_on_c, 1, 29, 77
1, 47417, Note_on_c, 1, 29, 0
1, 47520, Note_on_c, 1, 29, 4
1, 47609, Note_on_c, 1, 29, 0
1, 47619, End_track
0, 0, End_of_file