0, 0, Header, 0, 1, 96
1, 0, Start_track
1, 0, Tempo, 120000
1, 168, Tempo, 882352
1, 168, Note_on_c, 0, 62, 74
1, 191, Note_on_c, 0, 62, 0
1, 192, Note_on_c, 0, 66, 74
1, 192, Note_on_c, 1, 50, 74
1, 237, Note_on_c, 1, 50, 0
1, 240, Note_on_c, 1, 57, 74
1, 259, Note_on_c, 0, 66, 0
1, 264, Note_on_c, 0, 62, 75
1, 285, Note_on_c, 1, 57, 0
1, 287, Note_on_c, 0, 62, 0
1, 288, Note_on_c, 0, 67, 75
1, 288, Note_on_c, 1, 52, 74
1, 333, Note_on_c, 1, 52, 0
1, 336, Note_on_c, 1, 57, 74
1, 355, Note_on_c, 0, 67, 0
1, 360, Note_on_c, 0, 61, 76
1, 381, Note_on_c, 1, 57, 0
1, 383, Note_on_c, 0, 61, 0
1, 384, Note_on_c, 0, 62, 92
1, 384, Note_on_c, 1, 54, 74
1, 429, Note_on_c, 1, 54, 0
1, 432, Note_on_c, 1, 57, 74
1, 456, Note_on_c, 0, 62, 0
1, 456, Note_on_c, 0, 66, 77
1, 468, Note_on_c, 0, 66, 0
1, 468, Note_on_c, 0, 64, 77
1, 477, Note_on_c, 1, 57, 0
1, 480, Note_on_c, 0, 64, 0
1, 480, Note_on_c, 0, 62, 78
1, 514, Note_on_c, 0, 62, 0
1, 516, Note_on_c, 0, 62, 77
1, 528, Note_on_c, 0, 62, 0
1, 528, Note_on_c, 0, 74, 77
1, 528, Note_on_c, 1, 54, 74
1, 562, Note_on_c, 0, 74, 0
1, 564, Note_on_c, 0, 73, 76
1, 573, Note_on_c, 1, 54, 0
1, 576, Note_on_c, 0, 73, 0
1, 576, Note_on_c, 0, 71, 76
1, 576, Note_on_c, 1, 55, 74
1, 610, Note_on_c, 0, 71, 0
1, 612, Note_on_c, 0, 61, 76
1, 621, Note_on_c, 1, 55, 0
1, 624, Note_on_c, 0, 61, 0
1, 624, Note_on_c, 0, 62, 76
1, 624, Note_on_c, 1, 54, 74
1, 658, Note_on_c, 0, 62, 0
1, 660, Note_on_c, 0, 69, 75
1, 669, Note_on_c, 1, 54, 0
1, 672, Note_on_c, 0, 69, 0
1, 672, Note_on_c, 0, 69, 75
1, 672, Note_on_c, 1, 52, 74
1, 717, Note_on_c, 0, 69, 0
1, 717, Note_on_c, 1, 52, 0
1, 720, Note_on_c, 0, 67, 74
1, 720, Note_on_c, 1, 61, 74
1, 727, Note_on_c, 0, 67, 0
1, 727, Note_on_c, 0, 69, 74
1, 734, Note_on_c, 0, 69, 0
1, 734, Note_on_c, 0, 67, 74
1, 741, Note_on_c, 0, 67, 0
1, 741, Note_on_c, 0, 69, 74
1, 748, Note_on_c, 0, 69, 0
1, 748, Note_on_c, 0, 67, 74
1, 755, Note_on_c, 0, 67, 0
1, 755, Note_on_c, 0, 66, 74
1, 762, Note_on_c, 0, 66, 0
1, 762, Note_on_c, 0, 67, 74
1, 765, Note_on_c, 1, 61, 0
1, 768, Note_on_c, 0, 67, 0
1, 768, Note_on_c, 0, 67, 74
1, 768, Note_on_c, 1, 62, 74
1, 813, Note_on_c, 1, 62, 0
1, 816, Note_on_c, 0, 67, 0
1, 816, Note_on_c, 0, 66, 74
1, 816, Note_on_c, 1, 57, 74
1, 850, Note_on_c, 1, 57, 0
1, 852, Note_on_c, 1, 54, 74
1, 861, Note_on_c, 0, 66, 0
1, 864, Note_on_c, 1, 54, 0
1, 864, Note_on_c, 1, 50, 74
1, 936, Note_on_c, 0, 74, 74
1, 953, Note_on_c, 1, 50, 0
1, 959, Note_on_c, 0, 74, 0
1, 960, Note_on_c, 0, 78, 74
1, 960, Note_on_c, 1, 62, 74
1, 1005, Note_on_c, 1, 62, 0
1, 1008, Note_on_c, 1, 69, 74
1, 1027, Note_on_c, 0, 78, 0
1, 1032, Note_on_c, 0, 74, 74
1, 1053, Note_on_c, 1, 69, 0
1, 1055, Note_on_c, 0, 74, 0
1, 1056, Note_on_c, 0, 79, 75
1, 1056, Note_on_c, 1, 64, 74
1, 1101, Note_on_c, 1, 64, 0
1, 1104, Note_on_c, 1, 69, 74
1, 1123, Note_on_c, 0, 79, 0
1, 1128, Note_on_c, 0, 73, 76
1, 1149, Note_on_c, 1, 69, 0
1, 1151, Note_on_c, 0, 73, 0
1, 1152, Note_on_c, 0, 74, 92
1, 1152, Note_on_c, 1, 66, 74
1, 1197, Note_on_c, 1, 66, 0
1, 1200, Note_on_c, 1, 69, 74
1, 1224, Note_on_c, 0, 74, 0
1, 1224, Note_on_c, 0, 78, 77
1, 1236, Note_on_c, 0, 78, 0
1, 1236, Note_on_c, 0, 76, 77
1, 1245, Note_on_c, 1, 69, 0
1, 1248, Note_on_c, 0, 76, 0
1, 1248, Note_on_c, 0, 74, 77
1, 1282, Note_on_c, 0, 74, 0
1, 1284, Note_on_c, 0, 74, 77
1, 1296, Note_on_c, 0, 74, 0
1, 1296, Note_on_c, 0, 86, 78
1, 1296, Note_on_c, 1, 66, 74
1, 1330, Note_on_c, 0, 86, 0
1, 1332, Note_on_c, 0, 85, 77
1, 1341, Note_on_c, 1, 66, 0
1, 1344, Note_on_c, 0, 85, 0
1, 1344, Note_on_c, 0, 85, 77
1, 1344, Note_on_c, 1, 67, 74
1, 1378, Note_on_c, 0, 85, 0
1, 1380, Note_on_c, 0, 83, 76
1, 1389, Note_on_c, 1, 67, 0
1, 1392, Note_on_c, 0, 83, 0
1, 1392, Note_on_c, 0, 83, 76
1, 1392, Note_on_c, 1, 66, 74
1, 1426, Note_on_c, 0, 83, 0
1, 1428, Note_on_c, 0, 81, 75
1, 1437, Note_on_c, 1, 66, 0
1, 1440, Note_on_c, 0, 81, 0
1, 1440, Note_on_c, 0, 81, 75
1, 1440, Note_on_c, 1, 64, 74
1, 1474, Note_on_c, 0, 81, 0
1, 1476, Note_on_c, 0, 79, 75
1, 1485, Note_on_c, 1, 64, 0
1, 1488, Note_on_c, 0, 79, 0
1, 1488, Note_on_c, 0, 79, 74
1, 1488, Note_on_c, 1, 62, 74
1, 1522, Note_on_c, 0, 79, 0
1, 1524, Note_on_c, 0, 78, 74
1, 1533, Note_on_c, 1, 62, 0
1, 1536, Note_on_c, 0, 78, 0
1, 1536, Note_on_c, 0, 78, 74
1, 1536, Note_on_c, 1, 69, 74
1, 1581, Note_on_c, 1, 69, 0
1, 1584, Note_on_c, 0, 78, 0
1, 1584, Note_on_c, 0, 76, 74
1, 1584, Note_on_c, 1, 64, 74
1, 1629, Note_on_c, 0, 76, 0
1, 1629, Note_on_c, 1, 64, 0
1, 1632, Note_on_c, 1, 57, 74
1, 1721, Note_on_c, 1, 57, 0
1, 1728, Note_on_c, 1, 57, 64
1, 1752, Note_on_c, 0, 76, 74
1, 1752, Note_on_c, 1, 67, 74
1, 1775, Note_on_c, 0, 76, 0
1, 1775, Note_on_c, 1, 67, 0
1, 1776, Note_on_c, 0, 73, 74
1, 1776, Note_on_c, 1, 64, 74
1, 1799, Note_on_c, 0, 73, 0
1, 1799, Note_on_c, 1, 64, 0
1, 1800, Note_on_c, 0, 76, 74
1, 1800, Note_on_c, 1, 67, 74
1, 1817, Note_on_c, 1, 57, 0
1, 1823, Note_on_c, 0, 76, 0
1, 1823, Note_on_c, 1, 67, 0
1, 1824, Note_on_c, 1, 57, 64
1, 1848, Note_on_c, 0, 76, 74
1, 1848, Note_on_c, 1, 67, 74
1, 1871, Note_on_c, 0, 76, 0
1, 1871, Note_on_c, 1, 67, 0
1, 1872, Note_on_c, 0, 73, 74
1, 1872, Note_on_c, 1, 64, 74
1, 1895, Note_on_c, 0, 73, 0
1, 1895, Note_on_c, 1, 64, 0
1, 1896, Note_on_c, 0, 76, 74
1, 1896, Note_on_c, 1, 67, 74
1, 1913, Note_on_c, 1, 57, 0
1, 1919, Note_on_c, 0, 76, 0
1, 1919, Note_on_c, 1, 67, 0
1, 1920, Note_on_c, 1, 66, 74
1, 1944, Note_on_c, 0, 74, 74
1, 1965, Note_on_c, 1, 66, 0
1, 1968, Note_on_c, 1, 66, 74
1, 1989, Note_on_c, 0, 74, 0
1, 1992, Note_on_c, 0, 69, 74
1, 2013, Note_on_c, 1, 66, 0
1, 2016, Note_on_c, 1, 64, 74
1, 2037, Note_on_c, 0, 69, 0
1, 2040, Note_on_c, 0, 67, 74
1, 2061, Note_on_c, 1, 64, 0
1, 2064, Note_on_c, 1, 62, 74
1, 2085, Note_on_c, 0, 67, 0
1, 2088, Note_on_c, 0, 66, 74
1, 2109, Note_on_c, 1, 62, 0
1, 2111, Note_on_c, 0, 66, 0
1, 2112, Note_on_c, 1, 57, 64
1, 2128, Note_on_c, 0, 76, 74
1, 2136, Note_on_c, 1, 67, 74
1, 2143, Note_on_c, 0, 76, 0
1, 2144, Note_on_c, 0, 74, 74
1, 2159, Note_on_c, 0, 74, 0
1, 2159, Note_on_c, 1, 67, 0
1, 2160, Note_on_c, 0, 73, 74
1, 2160, Note_on_c, 1, 64, 74
1, 2175, Note_on_c, 0, 73, 0
1, 2176, Note_on_c, 0, 74, 74
1, 2183, Note_on_c, 1, 64, 0
1, 2184, Note_on_c, 1, 67, 74
1, 2191, Note_on_c, 0, 74, 0
1, 2192, Note_on_c, 0, 76, 74
1, 2201, Note_on_c, 1, 57, 0
1, 2207, Note_on_c, 0, 76, 0
1, 2207, Note_on_c, 1, 67, 0
1, 2208, Note_on_c, 1, 57, 64
1, 2224, Note_on_c, 0, 76, 74
1, 2232, Note_on_c, 1, 67, 74
1, 2239, Note_on_c, 0, 76, 0
1, 2240, Note_on_c, 0, 74, 74
1, 2255, Note_on_c, 0, 74, 0
1, 2255, Note_on_c, 1, 67, 0
1, 2256, Note_on_c, 0, 73, 74
1, 2256, Note_on_c, 1, 64, 74
1, 2271, Note_on_c, 0, 73, 0
1, 2272, Note_on_c, 0, 74, 74
1, 2279, Note_on_c, 1, 64, 0
1, 2280, Note_on_c, 1, 67, 74
1, 2287, Note_on_c, 0, 74, 0
1, 2288, Note_on_c, 0, 76, 74
1, 2297, Note_on_c, 1, 57, 0
1, 2303, Note_on_c, 0, 76, 0
1, 2303, Note_on_c, 1, 67, 0
1, 2304, Note_on_c, 1, 66, 74
1, 2328, Note_on_c, 0, 74, 74
1, 2349, Note_on_c, 1, 66, 0
1, 2352, Note_on_c, 1, 66, 74
1, 2373, Note_on_c, 0, 74, 0
1, 2376, Note_on_c, 0, 69, 74
1, 2397, Note_on_c, 1, 66, 0
1, 2400, Note_on_c, 1, 64, 74
1, 2421, Note_on_c, 0, 69, 0
1, 2424, Note_on_c, 0, 67, 74
1, 2445, Note_on_c, 1, 64, 0
1, 2448, Note_on_c, 1, 62, 74
1, 2469, Note_on_c, 0, 67, 0
1, 2472, Note_on_c, 0, 66, 74
1, 2493, Note_on_c, 1, 62, 0
1, 2495, Note_on_c, 0, 66, 0
1, 2496, Note_on_c, 1, 59, 78
1, 2520, Note_on_c, 0, 78, 78
1, 2520, Note_on_c, 1, 69, 78
1, 2543, Note_on_c, 0, 78, 0
1, 2543, Note_on_c, 1, 69, 0
1, 2544, Note_on_c, 0, 75, 78
1, 2544, Note_on_c, 1, 66, 78
1, 2567, Note_on_c, 0, 75, 0
1, 2567, Note_on_c, 1, 66, 0
1, 2568, Note_on_c, 0, 78, 78
1, 2568, Note_on_c, 1, 69, 78
1, 2585, Note_on_c, 1, 59, 0
1, 2591, Note_on_c, 0, 78, 0
1, 2591, Note_on_c, 1, 69, 0
1, 2592, Note_on_c, 1, 59, 78
1, 2616, Note_on_c, 0, 78, 78
1, 2616, Note_on_c, 1, 69, 78
1, 2639, Note_on_c, 0, 78, 0
1, 2639, Note_on_c, 1, 69, 0
1, 2640, Note_on_c, 0, 75, 78
1, 2640, Note_on_c, 1, 66, 78
1, 2663, Note_on_c, 0, 75, 0
1, 2663, Note_on_c, 1, 66, 0
1, 2664, Note_on_c, 0, 78, 78
1, 2664, Note_on_c, 1, 69, 78
1, 2681, Note_on_c, 1, 59, 0
1, 2687, Note_on_c, 0, 78, 0
1, 2687, Note_on_c, 1, 69, 0
1, 2688, Note_on_c, 1, 68, 78
1, 2712, Note_on_c, 0, 76, 78
1, 2733, Note_on_c, 1, 68, 0
1, 2736, Note_on_c, 1, 68, 78
1, 2757, Note_on_c, 0, 76, 0
1, 2760, Note_on_c, 0, 71, 78
1, 2781, Note_on_c, 1, 68, 0
1, 2784, Note_on_c, 1, 66, 78
1, 2805, Note_on_c, 0, 71, 0
1, 2808, Note_on_c, 0, 69, 78
1, 2829, Note_on_c, 1, 66, 0
1, 2832, Note_on_c, 1, 64, 78
1, 2853, Note_on_c, 0, 69, 0
1, 2856, Note_on_c, 0, 68, 78
1, 2877, Note_on_c, 1, 64, 0
1, 2879, Note_on_c, 0, 68, 0
1, 2880, Note_on_c, 1, 59, 78
1, 2896, Note_on_c, 0, 78, 78
1, 2904, Note_on_c, 1, 69, 78
1, 2911, Note_on_c, 0, 78, 0
1, 2912, Note_on_c, 0, 76, 78
1, 2927, Note_on_c, 0, 76, 0
1, 2927, Note_on_c, 1, 69, 0
1, 2928, Note_on_c, 0, 75, 78
1, 2928, Note_on_c, 1, 66, 78
1, 2943, Note_on_c, 0, 75, 0
1, 2944, Note_on_c, 0, 76, 78
1, 2951, Note_on_c, 1, 66, 0
1, 2952, Note_on_c, 1, 69, 78
1, 2959, Note_on_c, 0, 76, 0
1, 2960, Note_on_c, 0, 78, 78
1, 2969, Note_on_c, 1, 59, 0
1, 2975, Note_on_c, 0, 78, 0
1, 2975, Note_on_c, 1, 69, 0
1, 2976, Note_on_c, 1, 59, 78
1, 2992, Note_on_c, 0, 78, 78
1, 3000, Note_on_c, 1, 69, 78
1, 3007, Note_on_c, 0, 78, 0
1, 3008, Note_on_c, 0, 76, 78
1, 3023, Note_on_c, 0, 76, 0
1, 3023, Note_on_c, 1, 69, 0
1, 3024, Note_on_c, 0, 75, 78
1, 3024, Note_on_c, 1, 66, 78
1, 3039, Note_on_c, 0, 75, 0
1, 3040, Note_on_c, 0, 76, 78
1, 3047, Note_on_c, 1, 66, 0
1, 3048, Note_on_c, 1, 69, 78
1, 3055, Note_on_c, 0, 76, 0
1, 3056, Note_on_c, 0, 78, 78
1, 3065, Note_on_c, 1, 59, 0
1, 3071, Note_on_c, 0, 78, 0
1, 3071, Note_on_c, 1, 69, 0
1, 3072, Note_on_c, 1, 68, 78
1, 3096, Note_on_c, 0, 76, 78
1, 3117, Note_on_c, 1, 68, 0
1, 3120, Note_on_c, 1, 68, 78
1, 3141, Note_on_c, 0, 76, 0
1, 3144, Note_on_c, 0, 71, 78
1, 3165, Note_on_c, 1, 68, 0
1, 3168, Note_on_c, 1, 66, 78
1, 3189, Note_on_c, 0, 71, 0
1, 3192, Note_on_c, 0, 69, 78
1, 3213, Note_on_c, 1, 66, 0
1, 3216, Note_on_c, 1, 64, 78
1, 3237, Note_on_c, 0, 69, 0
1, 3240, Note_on_c, 0, 68, 78
1, 3261, Note_on_c, 1, 64, 0
1, 3263, Note_on_c, 0, 68, 0
1, 3264, Note_on_c, 0, 66, 74
1, 3312, Note_on_c, 1, 62, 69
1, 3346, Note_on_c, 1, 62, 0
1, 3348, Note_on_c, 1, 61, 69
1, 3360, Note_on_c, 1, 61, 0
1, 3360, Note_on_c, 1, 62, 69
1, 3405, Note_on_c, 1, 62, 0
1, 3408, Note_on_c, 1, 59, 69
1, 3427, Note_on_c, 0, 66, 0
1, 3432, Note_on_c, 0, 74, 74
1, 3444, Note_on_c, 0, 74, 0
1, 3444, Note_on_c, 0, 71, 74
1, 3455, Note_on_c, 1, 59, 0
1, 3456, Note_on_c, 0, 71, 0
1, 3456, Note_on_c, 0, 69, 74
1, 3504, Note_on_c, 1, 64, 69
1, 3538, Note_on_c, 1, 64, 0
1, 3540, Note_on_c, 1, 62, 69
1, 3552, Note_on_c, 0, 69, 0
1, 3552, Note_on_c, 0, 68, 74
1, 3552, Note_on_c, 1, 62, 0
1, 3552, Note_on_c, 1, 64, 69
1, 3597, Note_on_c, 0, 68, 0
1, 3597, Note_on_c, 1, 64, 0
1, 3600, Note_on_c, 0, 78, 74
1, 3600, Note_on_c, 1, 61, 69
1, 3612, Note_on_c, 0, 78, 0
1, 3612, Note_on_c, 0, 76, 74
1, 3624, Note_on_c, 0, 76, 0
1, 3624, Note_on_c, 0, 74, 74
1, 3636, Note_on_c, 0, 74, 0
1, 3636, Note_on_c, 0, 73, 74
1, 3647, Note_on_c, 1, 61, 0
1, 3648, Note_on_c, 0, 73, 0
1, 3648, Note_on_c, 0, 71, 74
1, 3696, Note_on_c, 1, 66, 69
1, 3730, Note_on_c, 1, 66, 0
1, 3732, Note_on_c, 1, 64, 69
1, 3744, Note_on_c, 0, 71, 0
1, 3744, Note_on_c, 0, 69, 74
1, 3744, Note_on_c, 1, 64, 0
1, 3744, Note_on_c, 1, 66, 69
1, 3767, Note_on_c, 0, 69, 0
1, 3768, Note_on_c, 0, 74, 74
1, 3780, Note_on_c, 0, 74, 0
1, 3780, Note_on_c, 0, 76, 74
1, 3789, Note_on_c, 1, 66, 0
1, 3792, Note_on_c, 0, 76, 0
1, 3792, Note_on_c, 0, 80, 74
1, 3792, Note_on_c, 1, 62, 69
1, 3804, Note_on_c, 0, 80, 0
1, 3804, Note_on_c, 0, 78, 74
1, 3816, Note_on_c, 0, 78, 0
1, 3816, Note_on_c, 0, 76, 74
1, 3828, Note_on_c, 0, 76, 0
1, 3828, Note_on_c, 0, 74, 74
1, 3839, Note_on_c, 1, 62, 0
1, 3840, Note_on_c, 0, 74, 0
1, 3840, Note_on_c, 0, 73, 74
1, 3888, Note_on_c, 1, 68, 69
1, 3922, Note_on_c, 1, 68, 0
1, 3924, Note_on_c, 1, 66, 69
1, 3936, Note_on_c, 0, 73, 0
1, 3936, Note_on_c, 0, 71, 74
1, 3936, Note_on_c, 1, 66, 0
1, 3936, Note_on_c, 1, 68, 69
1, 3959, Note_on_c, 0, 71, 0
1, 3960, Note_on_c, 0, 80, 74
1, 3972, Note_on_c, 0, 80, 0
1, 3972, Note_on_c, 0, 81, 74
1, 3981, Note_on_c, 1, 68, 0
1, 3984, Note_on_c, 0, 81, 0
1, 3984, Note_on_c, 0, 83, 74
1, 3984, Note_on_c, 1, 64, 69
1, 4007, Note_on_c, 0, 83, 0
1, 4008, Note_on_c, 0, 74, 74
1, 4031, Note_on_c, 0, 74, 0
1, 4031, Note_on_c, 1, 64, 0
1, 4032, Note_on_c, 0, 73, 74
1, 4032, Note_on_c, 1, 69, 74
1, 4055, Note_on_c, 0, 73, 0
1, 4056, Note_on_c, 0, 78, 90
1, 4077, Note_on_c, 1, 69, 0
1, 4080, Note_on_c, 1, 68, 74
1, 4104, Note_on_c, 0, 78, 0
1, 4104, Note_on_c, 0, 76, 74
1, 4125, Note_on_c, 1, 68, 0
1, 4127, Note_on_c, 0, 76, 0
1, 4128, Note_on_c, 0, 69, 74
1, 4128, Note_on_c, 1, 66, 74
1, 4151, Note_on_c, 0, 69, 0
1, 4152, Note_on_c, 0, 74, 90
1, 4173, Note_on_c, 1, 66, 0
1, 4176, Note_on_c, 1, 64, 74
1, 4200, Note_on_c, 0, 74, 0
1, 4200, Note_on_c, 0, 73, 74
1, 4221, Note_on_c, 1, 64, 0
1, 4223, Note_on_c, 0, 73, 0
1, 4224, Note_on_c, 0, 66, 74
1, 4224, Note_on_c, 1, 62, 74
1, 4247, Note_on_c, 0, 66, 0
1, 4248, Note_on_c, 0, 71, 90
1, 4269, Note_on_c, 1, 62, 0
1, 4272, Note_on_c, 1, 61, 74
1, 4296, Note_on_c, 0, 71, 0
1, 4296, Note_on_c, 0, 69, 74
1, 4317, Note_on_c, 1, 61, 0
1, 4319, Note_on_c, 0, 69, 0
1, 4320, Note_on_c, 0, 68, 74
1, 4320, Note_on_c, 1, 59, 74
1, 4343, Note_on_c, 0, 68, 0
1, 4344, Note_on_c, 0, 74, 90
1, 4365, Note_on_c, 1, 59, 0
1, 4368, Note_on_c, 1, 57, 74
1, 4392, Note_on_c, 0, 74, 0
1, 4392, Note_on_c, 0, 73, 74
1, 4413, Note_on_c, 1, 57, 0
1, 4415, Note_on_c, 0, 73, 0
1, 4416, Note_on_c, 0, 66, 74
1, 4416, Note_on_c, 1, 62, 74
1, 4439, Note_on_c, 0, 66, 0
1, 4440, Note_on_c, 0, 71, 90
1, 4461, Note_on_c, 1, 62, 0
1, 4464, Note_on_c, 1, 61, 74
1, 4488, Note_on_c, 0, 71, 0
1, 4488, Note_on_c, 0, 69, 74
1, 4509, Note_on_c, 1, 61, 0
1, 4511, Note_on_c, 0, 69, 0
1, 4512, Note_on_c, 0, 68, 74
1, 4512, Note_on_c, 1, 59, 74
1, 4535, Note_on_c, 0, 68, 0
1, 4536, Note_on_c, 0, 74, 90
1, 4557, Note_on_c, 1, 59, 0
1, 4560, Note_on_c, 1, 57, 74
1, 4584, Note_on_c, 0, 74, 0
1, 4584, Note_on_c, 0, 73, 74
1, 4605, Note_on_c, 1, 57, 0
1, 4607, Note_on_c, 0, 73, 0
1, 4608, Note_on_c, 0, 73, 74
1, 4608, Note_on_c, 1, 64, 74
1, 4653, Note_on_c, 1, 64, 0
1, 4656, Note_on_c, 0, 73, 0
1, 4656, Note_on_c, 0, 71, 74
1, 4656, Note_on_c, 1, 52, 74
1, 4701, Note_on_c, 0, 71, 0
1, 4701, Note_on_c, 1, 52, 0
1, 4704, Note_on_c, 0, 76, 74
1, 4716, Note_on_c, 0, 76, 0
1, 4716, Note_on_c, 0, 73, 75
1, 4728, Note_on_c, 0, 73, 0
1, 4728, Note_on_c, 0, 70, 76
1, 4740, Note_on_c, 0, 70, 0
1, 4740, Note_on_c, 0, 67, 78
1, 4752, Note_on_c, 0, 67, 0
1, 4752, Note_on_c, 0, 64, 77
1, 4752, Note_on_c, 1, 61, 74
1, 4752, Note_on_c, 1, 58, 74
1, 4799, Note_on_c, 1, 61, 0
1, 4799, Note_on_c, 1, 58, 0
1, 4800, Note_on_c, 1, 59, 74
1, 4845, Note_on_c, 0, 64, 0
1, 4845, Note_on_c, 1, 59, 0
1, 4848, Note_on_c, 0, 63, 75
1, 4848, Note_on_c, 1, 47, 74
1, 4893, Note_on_c, 0, 63, 0
1, 4893, Note_on_c, 1, 47, 0
1, 4896, Note_on_c, 0, 74, 74
1, 4908, Note_on_c, 0, 74, 0
1, 4908, Note_on_c, 0, 71, 75
1, 4920, Note_on_c, 0, 71, 0
1, 4920, Note_on_c, 0, 68, 76
1, 4932, Note_on_c, 0, 68, 0
1, 4932, Note_on_c, 0, 65, 78
1, 4944, Note_on_c, 0, 65, 0
1, 4944, Note_on_c, 0, 62, 77
1, 4944, Note_on_c, 1, 59, 74
1, 4944, Note_on_c, 1, 56, 74
1, 4991, Note_on_c, 1, 59, 0
1, 4991, Note_on_c, 1, 56, 0
1, 4992, Note_on_c, 1, 57, 74
1, 5037, Note_on_c, 0, 62, 0
1, 5037, Note_on_c, 1, 57, 0
1, 5040, Note_on_c, 0, 61, 75
1, 5040, Note_on_c, 1, 45, 74
1, 5085, Note_on_c, 0, 61, 0
1, 5085, Note_on_c, 1, 45, 0
1, 5088, Note_on_c, 0, 81, 74
1, 5100, Note_on_c, 0, 81, 0
1, 5100, Note_on_c, 0, 76, 74
1, 5112, Note_on_c, 0, 76, 0
1, 5112, Note_on_c, 0, 73, 74
1, 5124, Note_on_c, 0, 73, 0
1, 5124, Note_on_c, 0, 69, 74
1, 5136, Note_on_c, 0, 69, 0
1, 5136, Note_on_c, 0, 64, 74
1, 5136, Note_on_c, 1, 57, 74
1, 5136, Note_on_c, 1, 49, 78
1, 5181, Note_on_c, 0, 64, 0
1, 5181, Note_on_c, 1, 57, 0
1, 5181, Note_on_c, 1, 49, 0
1, 5184, Note_on_c, 0, 65, 74
1, 5184, Note_on_c, 1, 57, 74
1, 5184, Note_on_c, 1, 50, 78
1, 5208, Note_on_c, 0, 65, 0
1, 5208, Note_on_c, 0, 66, 74
1, 5229, Note_on_c, 1, 57, 0
1, 5231, Note_on_c, 0, 66, 0
1, 5232, Note_on_c, 0, 76, 74
1, 5232, Note_on_c, 1, 62, 74
1, 5244, Note_on_c, 0, 76, 0
1, 5244, Note_on_c, 0, 74, 74
1, 5256, Note_on_c, 0, 74, 0
1, 5256, Note_on_c, 0, 73, 74
1, 5268, Note_on_c, 0, 73, 0
1, 5268, Note_on_c, 0, 71, 74
1, 5273, Note_on_c, 1, 50, 0
1, 5277, Note_on_c, 1, 62, 0
1, 5280, Note_on_c, 0, 71, 0
1, 5280, Note_on_c, 0, 69, 74
1, 5280, Note_on_c, 1, 61, 74
1, 5280, Note_on_c, 1, 52, 78
1, 5325, Note_on_c, 0, 69, 0
1, 5325, Note_on_c, 1, 61, 0
1, 5328, Note_on_c, 0, 68, 74
1, 5328, Note_on_c, 1, 59, 74
1, 5335, Note_on_c, 0, 68, 0
1, 5335, Note_on_c, 0, 69, 74
1, 5342, Note_on_c, 0, 69, 0
1, 5342, Note_on_c, 0, 68, 74
1, 5349, Note_on_c, 0, 68, 0
1, 5349, Note_on_c, 0, 69, 74
1, 5356, Note_on_c, 0, 69, 0
1, 5356, Note_on_c, 0, 68, 74
1, 5363, Note_on_c, 0, 68, 0
1, 5363, Note_on_c, 0, 66, 74
1, 5369, Note_on_c, 1, 52, 0
1, 5370, Note_on_c, 0, 66, 0
1, 5370, Note_on_c, 0, 68, 74
1, 5373, Note_on_c, 1, 59, 0
1, 5376, Note_on_c, 0, 68, 0
1, 5376, Note_on_c, 0, 69, 74
1, 5376, Note_on_c, 1, 57, 74
1, 5376, Note_on_c, 1, 45, 78
1, 5421, Note_on_c, 0, 69, 0
1, 5424, Note_on_c, 0, 76, 63
1, 5465, Note_on_c, 1, 57, 0
1, 5465, Note_on_c, 1, 45, 0
1, 5472, Note_on_c, 1, 69, 63
1, 5495, Note_on_c, 0, 76, 0
1, 5496, Note_on_c, 0, 72, 63
1, 5519, Note_on_c, 0, 72, 0
1, 5520, Note_on_c, 0, 77, 63
1, 5543, Note_on_c, 0, 77, 0
1, 5544, Note_on_c, 0, 76, 63
1, 5567, Note_on_c, 0, 76, 0
1, 5568, Note_on_c, 0, 75, 63
1, 5591, Note_on_c, 1, 69, 0
1, 5592, Note_on_c, 1, 66, 63
1, 5615, Note_on_c, 1, 66, 0
1, 5616, Note_on_c, 1, 71, 63
1, 5639, Note_on_c, 1, 71, 0
1, 5640, Note_on_c, 1, 69, 63
1, 5663, Note_on_c, 1, 69, 0
1, 5664, Note_on_c, 0, 75, 0
1, 5664, Note_on_c, 0, 74, 63
1, 5664, Note_on_c, 1, 68, 63
1, 5687, Note_on_c, 0, 74, 0
1, 5688, Note_on_c, 0, 71, 63
1, 5711, Note_on_c, 0, 71, 0
1, 5712, Note_on_c, 0, 76, 63
1, 5735, Note_on_c, 0, 76, 0
1, 5736, Note_on_c, 0, 74, 63
1, 5759, Note_on_c, 0, 74, 0
1, 5760, Note_on_c, 0, 72, 63
1, 5783, Note_on_c, 1, 68, 0
1, 5784, Note_on_c, 1, 64, 63
1, 5807, Note_on_c, 1, 64, 0
1, 5808, Note_on_c, 1, 69, 63
1, 5831, Note_on_c, 1, 69, 0
1, 5832, Note_on_c, 1, 67, 63
1, 5855, Note_on_c, 1, 67, 0
1, 5856, Note_on_c, 1, 65, 63
1, 5879, Note_on_c, 0, 72, 0
1, 5880, Note_on_c, 0, 69, 63
1, 5903, Note_on_c, 0, 69, 0
1, 5904, Note_on_c, 0, 81, 63
1, 5927, Note_on_c, 0, 81, 0
1, 5928, Note_on_c, 0, 75, 63
1, 5945, Note_on_c, 1, 65, 0
1, 5951, Note_on_c, 0, 75, 0
1, 5952, Note_on_c, 0, 76, 63
1, 5976, Note_on_c, 1, 52, 69
1, 5999, Note_on_c, 1, 52, 0
1, 6000, Note_on_c, 1, 64, 69
1, 6023, Note_on_c, 1, 64, 0
1, 6024, Note_on_c, 1, 62, 69
1, 6041, Note_on_c, 0, 76, 0
1, 6047, Note_on_c, 1, 62, 0
1, 6048, Note_on_c, 1, 60, 69
1, 6072, Note_on_c, 0, 69, 69
1, 6093, Note_on_c, 1, 60, 0
1, 6095, Note_on_c, 0, 69, 0
1, 6096, Note_on_c, 0, 81, 69
1, 6096, Note_on_c, 1, 53, 69
1, 6096, Note_on_c, 1, 41, 69
1, 6119, Note_on_c, 0, 81, 0
1, 6120, Note_on_c, 0, 75, 69
1, 6141, Note_on_c, 1, 53, 0
1, 6141, Note_on_c, 1, 41, 0
1, 6143, Note_on_c, 0, 75, 0
1, 6144, Note_on_c, 0, 78, 69
1, 6144, Note_on_c, 1, 52, 69
1, 6150, Note_on_c, 0, 78, 0
1, 6150, Note_on_c, 0, 76, 69
1, 6156, Note_on_c, 0, 76, 0
1, 6156, Note_on_c, 0, 75, 69
1, 6162, Note_on_c, 0, 75, 0
1, 6162, Note_on_c, 0, 76, 69
1, 6189, Note_on_c, 1, 52, 0
1, 6192, Note_on_c, 1, 40, 69
1, 6233, Note_on_c, 0, 76, 0
1, 6237, Note_on_c, 1, 40, 0
1, 6240, Note_on_c, 0, 64, 74
1, 6255, Note_on_c, 0, 64, 0
1, 6256, Note_on_c, 0, 76, 74
1, 6256, Note_on_c, 0, 73, 74
1, 6271, Note_on_c, 0, 76, 0
1, 6271, Note_on_c, 0, 73, 0
1, 6272, Note_on_c, 0, 76, 74
1, 6272, Note_on_c, 0, 73, 74
1, 6287, Note_on_c, 0, 76, 0
1, 6287, Note_on_c, 0, 73, 0
1, 6288, Note_on_c, 0, 76, 74
1, 6288, Note_on_c, 0, 73, 74
1, 6288, Note_on_c, 1, 58, 74
1, 6303, Note_on_c, 0, 76, 0
1, 6303, Note_on_c, 0, 73, 0
1, 6304, Note_on_c, 0, 76, 74
1, 6304, Note_on_c, 0, 73, 74
1, 6319, Note_on_c, 0, 76, 0
1, 6319, Note_on_c, 0, 73, 0
1, 6320, Note_on_c, 0, 76, 74
1, 6320, Note_on_c, 0, 73, 74
1, 6333, Note_on_c, 1, 58, 0
1, 6335, Note_on_c, 0, 76, 0
1, 6335, Note_on_c, 0, 73, 0
1, 6336, Note_on_c, 0, 76, 74
1, 6336, Note_on_c, 0, 73, 74
1, 6336, Note_on_c, 1, 59, 74
1, 6381, Note_on_c, 1, 59, 0
1, 6384, Note_on_c, 0, 76, 0
1, 6384, Note_on_c, 0, 73, 0
1, 6384, Note_on_c, 0, 75, 74
1, 6384, Note_on_c, 0, 71, 74
1, 6384, Note_on_c, 1, 47, 74
1, 6429, Note_on_c, 0, 75, 0
1, 6429, Note_on_c, 0, 71, 0
1, 6429, Note_on_c, 1, 47, 0
1, 6432, Note_on_c, 0, 64, 74
1, 6447, Note_on_c, 0, 64, 0
1, 6448, Note_on_c, 0, 74, 74
1, 6448, Note_on_c, 0, 71, 74
1, 6463, Note_on_c, 0, 74, 0
1, 6463, Note_on_c, 0, 71, 0
1, 6464, Note_on_c, 0, 74, 74
1, 6464, Note_on_c, 0, 71, 74
1, 6479, Note_on_c, 0, 74, 0
1, 6479, Note_on_c, 0, 71, 0
1, 6480, Note_on_c, 0, 74, 74
1, 6480, Note_on_c, 0, 71, 74
1, 6480, Note_on_c, 1, 56, 74
1, 6495, Note_on_c, 0, 74, 0
1, 6495, Note_on_c, 0, 71, 0
1, 6496, Note_on_c, 0, 74, 74
1, 6496, Note_on_c, 0, 71, 74
1, 6511, Note_on_c, 0, 74, 0
1, 6511, Note_on_c, 0, 71, 0
1, 6512, Note_on_c, 0, 74, 74
1, 6512, Note_on_c, 0, 71, 74
1, 6525, Note_on_c, 1, 56, 0
1, 6527, Note_on_c, 0, 74, 0
1, 6527, Note_on_c, 0, 71, 0
1, 6528, Note_on_c, 0, 74, 74
1, 6528, Note_on_c, 0, 71, 74
1, 6528, Note_on_c, 1, 57, 74
1, 6573, Note_on_c, 1, 57, 0
1, 6576, Note_on_c, 0, 74, 0
1, 6576, Note_on_c, 0, 71, 0
1, 6576, Note_on_c, 0, 73, 74
1, 6576, Note_on_c, 0, 69, 74
1, 6576, Note_on_c, 1, 45, 74
1, 6621, Note_on_c, 0, 73, 0
1, 6621, Note_on_c, 0, 69, 0
1, 6621, Note_on_c, 1, 45, 0
1, 6624, Note_on_c, 0, 69, 74
1, 6636, Note_on_c, 0, 69, 0
1, 6636, Note_on_c, 0, 71, 74
1, 6648, Note_on_c, 0, 71, 0
1, 6648, Note_on_c, 0, 73, 74
1, 6660, Note_on_c, 0, 73, 0
1, 6660, Note_on_c, 0, 74, 75
1, 6672, Note_on_c, 0, 74, 0
1, 6672, Note_on_c, 0, 76, 75
1, 6672, Note_on_c, 1, 57, 74
1, 6672, Note_on_c, 1, 49, 74
1, 6684, Note_on_c, 0, 76, 0
1, 6684, Note_on_c, 0, 78, 75
1, 6696, Note_on_c, 0, 78, 0
1, 6696, Note_on_c, 0, 80, 76
1, 6708, Note_on_c, 0, 80, 0
1, 6708, Note_on_c, 0, 81, 76
1, 6717, Note_on_c, 1, 57, 0
1, 6717, Note_on_c, 1, 49, 0
1, 6720, Note_on_c, 0, 81, 0
1, 6720, Note_on_c, 0, 71, 76
1, 6720, Note_on_c, 1, 57, 74
1, 6720, Note_on_c, 1, 50, 78
1, 6765, Note_on_c, 0, 71, 0
1, 6768, Note_on_c, 0, 80, 78
1, 6780, Note_on_c, 0, 80, 0
1, 6780, Note_on_c, 0, 78, 77
1, 6792, Note_on_c, 0, 78, 0
1, 6792, Note_on_c, 0, 76, 77
1, 6804, Note_on_c, 0, 76, 0
1, 6804, Note_on_c, 0, 74, 76
1, 6809, Note_on_c, 1, 57, 0
1, 6809, Note_on_c, 1, 50, 0
1, 6816, Note_on_c, 0, 74, 0
1, 6816, Note_on_c, 0, 73, 76
1, 6816, Note_on_c, 1, 57, 74
1, 6816, Note_on_c, 1, 52, 78
1, 6861, Note_on_c, 0, 73, 0
1, 6861, Note_on_c, 1, 57, 0
1, 6864, Note_on_c, 0, 71, 74
1, 6864, Note_on_c, 1, 56, 74
1, 6871, Note_on_c, 0, 71, 0
1, 6871, Note_on_c, 0, 73, 74
1, 6878, Note_on_c, 0, 73, 0
1, 6878, Note_on_c, 0, 71, 74
1, 6885, Note_on_c, 0, 71, 0
1, 6885, Note_on_c, 0, 73, 74
1, 6892, Note_on_c, 0, 73, 0
1, 6892, Note_on_c, 0, 71, 74
1, 6899, Note_on_c, 0, 71, 0
1, 6899, Note_on_c, 0, 69, 74
1, 6905, Note_on_c, 1, 52, 0
1, 6906, Note_on_c, 0, 69, 0
1, 6906, Note_on_c, 0, 71, 74
1, 6909, Note_on_c, 1, 56, 0
1, 6912, Note_on_c, 0, 71, 0
1, 6912, Note_on_c, 0, 69, 74
1, 6912, Note_on_c, 1, 57, 74
1, 6957, Note_on_c, 1, 57, 0
1, 6960, Note_on_c, 1, 52, 74
1, 7001, Note_on_c, 0, 69, 0
1, 7005, Note_on_c, 1, 52, 0
1, 7008, Note_on_c, 1, 45, 74
1, 7053, Note_on_c, 1, 45, 0
1, 7080, Tempo, 882352
1, 7080, Note_on_c, 0, 62, 74
1, 7103, Note_on_c, 0, 62, 0
1, 7104, Note_on_c, 0, 66, 74
1, 7104, Note_on_c, 1, 50, 74
1, 7149, Note_on_c, 1, 50, 0
1, 7152, Note_on_c, 1, 57, 74
1, 7171, Note_on_c, 0, 66, 0
1, 7176, Note_on_c, 0, 62, 75
1, 7197, Note_on_c, 1, 57, 0
1, 7199, Note_on_c, 0, 62, 0
1, 7200, Note_on_c, 0, 67, 75
1, 7200, Note_on_c, 1, 52, 74
1, 7245, Note_on_c, 1, 52, 0
1, 7248, Note_on_c, 1, 57, 74
1, 7267, Note_on_c, 0, 67, 0
1, 7272, Note_on_c, 0, 61, 76
1, 7293, Note_on_c, 1, 57, 0
1, 7295, Note_on_c, 0, 61, 0
1, 7296, Note_on_c, 0, 62, 92
1, 7296, Note_on_c, 1, 54, 74
1, 7341, Note_on_c, 1, 54, 0
1, 7344, Note_on_c, 1, 57, 74
1, 7368, Note_on_c, 0, 62, 0
1, 7368, Note_on_c, 0, 66, 77
1, 7380, Note_on_c, 0, 66, 0
1, 7380, Note_on_c, 0, 64, 77
1, 7389, Note_on_c, 1, 57, 0
1, 7392, Note_on_c, 0, 64, 0
1, 7392, Note_on_c, 0, 62, 78
1, 7426, Note_on_c, 0, 62, 0
1, 7428, Note_on_c, 0, 62, 77
1, 7440, Note_on_c, 0, 62, 0
1, 7440, Note_on_c, 0, 74, 77
1, 7440, Note_on_c, 1, 54, 74
1, 7474, Note_on_c, 0, 74, 0
1, 7476, Note_on_c, 0, 73, 76
1, 7485, Note_on_c, 1, 54, 0
1, 7488, Note_on_c, 0, 73, 0
1, 7488, Note_on_c, 0, 71, 76
1, 7488, Note_on_c, 1, 55, 74
1, 7522, Note_on_c, 0, 71, 0
1, 7524, Note_on_c, 0, 61, 76
1, 7533, Note_on_c, 1, 55, 0
1, 7536, Note_on_c, 0, 61, 0
1, 7536, Note_on_c, 0, 62, 76
1, 7536, Note_on_c, 1, 54, 74
1, 7570, Note_on_c, 0, 62, 0
1, 7572, Note_on_c, 0, 69, 75
1, 7581, Note_on_c, 1, 54, 0
1, 7584, Note_on_c, 0, 69, 0
1, 7584, Note_on_c, 0, 69, 75
1, 7584, Note_on_c, 1, 52, 74
1, 7629, Note_on_c, 0, 69, 0
1, 7629, Note_on_c, 1, 52, 0
1, 7632, Note_on_c, 0, 67, 74
1, 7632, Note_on_c, 1, 61, 74
1, 7639, Note_on_c, 0, 67, 0
1, 7639, Note_on_c, 0, 69, 74
1, 7646, Note_on_c, 0, 69, 0
1, 7646, Note_on_c, 0, 67, 74
1, 7653, Note_on_c, 0, 67, 0
1, 7653, Note_on_c, 0, 69, 74
1, 7660, Note_on_c, 0, 69, 0
1, 7660, Note_on_c, 0, 67, 74
1, 7667, Note_on_c, 0, 67, 0
1, 7667, Note_on_c, 0, 66, 74
1, 7674, Note_on_c, 0, 66, 0
1, 7674, Note_on_c, 0, 67, 74
1, 7677, Note_on_c, 1, 61, 0
1, 7680, Note_on_c, 0, 67, 0
1, 7680, Note_on_c, 0, 67, 74
1, 7680, Note_on_c, 1, 62, 74
1, 7725, Note_on_c, 1, 62, 0
1, 7728, Note_on_c, 0, 67, 0
1, 7728, Note_on_c, 0, 66, 74
1, 7728, Note_on_c, 1, 57, 74
1, 7762, Note_on_c, 1, 57, 0
1, 7764, Note_on_c, 1, 54, 74
1, 7773, Note_on_c, 0, 66, 0
1, 7776, Note_on_c, 1, 54, 0
1, 7776, Note_on_c, 1, 50, 74
1, 7848, Note_on_c, 0, 74, 74
1, 7865, Note_on_c, 1, 50, 0
1, 7871, Note_on_c, 0, 74, 0
1, 7872, Note_on_c, 0, 78, 74
1, 7872, Note_on_c, 1, 62, 74
1, 7917, Note_on_c, 1, 62, 0
1, 7920, Note_on_c, 1, 69, 74
1, 7939, Note_on_c, 0, 78, 0
1, 7944, Note_on_c, 0, 74, 74
1, 7965, Note_on_c, 1, 69, 0
1, 7967, Note_on_c, 0, 74, 0
1, 7968, Note_on_c, 0, 79, 75
1, 7968, Note_on_c, 1, 64, 74
1, 8013, Note_on_c, 1, 64, 0
1, 8016, Note_on_c, 1, 69, 74
1, 8035, Note_on_c, 0, 79, 0
1, 8040, Note_on_c, 0, 73, 76
1, 8061, Note_on_c, 1, 69, 0
1, 8063, Note_on_c, 0, 73, 0
1, 8064, Note_on_c, 0, 74, 92
1, 8064, Note_on_c, 1, 66, 74
1, 8109, Note_on_c, 1, 66, 0
1, 8112, Note_on_c, 1, 69, 74
1, 8136, Note_on_c, 0, 74, 0
1, 8136, Note_on_c, 0, 78, 77
1, 8148, Note_on_c, 0, 78, 0
1, 8148, Note_on_c, 0, 76, 77
1, 8157, Note_on_c, 1, 69, 0
1, 8160, Note_on_c, 0, 76, 0
1, 8160, Note_on_c, 0, 74, 77
1, 8194, Note_on_c, 0, 74, 0
1, 8196, Note_on_c, 0, 74, 77
1, 8208, Note_on_c, 0, 74, 0
1, 8208, Note_on_c, 0, 86, 78
1, 8208, Note_on_c, 1, 66, 74
1, 8242, Note_on_c, 0, 86, 0
1, 8244, Note_on_c, 0, 85, 77
1, 8253, Note_on_c, 1, 66, 0
1, 8256, Note_on_c, 0, 85, 0
1, 8256, Note_on_c, 0, 85, 77
1, 8256, Note_on_c, 1, 67, 74
1, 8290, Note_on_c, 0, 85, 0
1, 8292, Note_on_c, 0, 83, 76
1, 8301, Note_on_c, 1, 67, 0
1, 8304, Note_on_c, 0, 83, 0
1, 8304, Note_on_c, 0, 83, 76
1, 8304, Note_on_c, 1, 66, 74
1, 8338, Note_on_c, 0, 83, 0
1, 8340, Note_on_c, 0, 81, 75
1, 8349, Note_on_c, 1, 66, 0
1, 8352, Note_on_c, 0, 81, 0
1, 8352, Note_on_c, 0, 81, 75
1, 8352, Note_on_c, 1, 64, 74
1, 8386, Note_on_c, 0, 81, 0
1, 8388, Note_on_c, 0, 79, 75
1, 8397, Note_on_c, 1, 64, 0
1, 8400, Note_on_c, 0, 79, 0
1, 8400, Note_on_c, 0, 79, 74
1, 8400, Note_on_c, 1, 62, 74
1, 8434, Note_on_c, 0, 79, 0
1, 8436, Note_on_c, 0, 78, 74
1, 8445, Note_on_c, 1, 62, 0
1, 8448, Note_on_c, 0, 78, 0
1, 8448, Note_on_c, 0, 78, 74
1, 8448, Note_on_c, 1, 69, 74
1, 8493, Note_on_c, 1, 69, 0
1, 8496, Note_on_c, 0, 78, 0
1, 8496, Note_on_c, 0, 76, 74
1, 8496, Note_on_c, 1, 64, 74
1, 8541, Note_on_c, 0, 76, 0
1, 8541, Note_on_c, 1, 64, 0
1, 8544, Note_on_c, 1, 57, 74
1, 8633, Note_on_c, 1, 57, 0
1, 8640, Note_on_c, 1, 57, 64
1, 8664, Note_on_c, 0, 76, 74
1, 8664, Note_on_c, 1, 67, 74
1, 8687, Note_on_c, 0, 76, 0
1, 8687, Note_on_c, 1, 67, 0
1, 8688, Note_on_c, 0, 73, 74
1, 8688, Note_on_c, 1, 64, 74
1, 8711, Note_on_c, 0, 73, 0
1, 8711, Note_on_c, 1, 64, 0
1, 8712, Note_on_c, 0, 76, 74
1, 8712, Note_on_c, 1, 67, 74
1, 8729, Note_on_c, 1, 57, 0
1, 8735, Note_on_c, 0, 76, 0
1, 8735, Note_on_c, 1, 67, 0
1, 8736, Note_on_c, 1, 57, 64
1, 8760, Note_on_c, 0, 76, 74
1, 8760, Note_on_c, 1, 67, 74
1, 8783, Note_on_c, 0, 76, 0
1, 8783, Note_on_c, 1, 67, 0
1, 8784, Note_on_c, 0, 73, 74
1, 8784, Note_on_c, 1, 64, 74
1, 8807, Note_on_c, 0, 73, 0
1, 8807, Note_on_c, 1, 64, 0
1, 8808, Note_on_c, 0, 76, 74
1, 8808, Note_on_c, 1, 67, 74
1, 8825, Note_on_c, 1, 57, 0
1, 8831, Note_on_c, 0, 76, 0
1, 8831, Note_on_c, 1, 67, 0
1, 8832, Note_on_c, 1, 66, 74
1, 8856, Note_on_c, 0, 74, 74
1, 8877, Note_on_c, 1, 66, 0
1, 8880, Note_on_c, 1, 66, 74
1, 8901, Note_on_c, 0, 74, 0
1, 8904, Note_on_c, 0, 69, 74
1, 8925, Note_on_c, 1, 66, 0
1, 8928, Note_on_c, 1, 64, 74
1, 8949, Note_on_c, 0, 69, 0
1, 8952, Note_on_c, 0, 67, 74
1, 8973, Note_on_c, 1, 64, 0
1, 8976, Note_on_c, 1, 62, 74
1, 8997, Note_on_c, 0, 67, 0
1, 9000, Note_on_c, 0, 66, 74
1, 9021, Note_on_c, 1, 62, 0
1, 9023, Note_on_c, 0, 66, 0
1, 9024, Note_on_c, 1, 57, 64
1, 9040, Note_on_c, 0, 76, 74
1, 9048, Note_on_c, 1, 67, 74
1, 9055, Note_on_c, 0, 76, 0
1, 9056, Note_on_c, 0, 74, 74
1, 9071, Note_on_c, 0, 74, 0
1, 9071, Note_on_c, 1, 67, 0
1, 9072, Note_on_c, 0, 73, 74
1, 9072, Note_on_c, 1, 64, 74
1, 9087, Note_on_c, 0, 73, 0
1, 9088, Note_on_c, 0, 74, 74
1, 9095, Note_on_c, 1, 64, 0
1, 9096, Note_on_c, 1, 67, 74
1, 9103, Note_on_c, 0, 74, 0
1, 9104, Note_on_c, 0, 76, 74
1, 9113, Note_on_c, 1, 57, 0
1, 9119, Note_on_c, 0, 76, 0
1, 9119, Note_on_c, 1, 67, 0
1, 9120, Note_on_c, 1, 57, 64
1, 9136, Note_on_c, 0, 76, 74
1, 9144, Note_on_c, 1, 67, 74
1, 9151, Note_on_c, 0, 76, 0
1, 9152, Note_on_c, 0, 74, 74
1, 9167, Note_on_c, 0, 74, 0
1, 9167, Note_on_c, 1, 67, 0
1, 9168, Note_on_c, 0, 73, 74
1, 9168, Note_on_c, 1, 64, 74
1, 9183, Note_on_c, 0, 73, 0
1, 9184, Note_on_c, 0, 74, 74
1, 9191, Note_on_c, 1, 64, 0
1, 9192, Note_on_c, 1, 67, 74
1, 9199, Note_on_c, 0, 74, 0
1, 9200, Note_on_c, 0, 76, 74
1, 9209, Note_on_c, 1, 57, 0
1, 9215, Note_on_c, 0, 76, 0
1, 9215, Note_on_c, 1, 67, 0
1, 9216, Note_on_c, 1, 66, 74
1, 9240, Note_on_c, 0, 74, 74
1, 9261, Note_on_c, 1, 66, 0
1, 9264, Note_on_c, 1, 66, 74
1, 9285, Note_on_c, 0, 74, 0
1, 9288, Note_on_c, 0, 69, 74
1, 9309, Note_on_c, 1, 66, 0
1, 9312, Note_on_c, 1, 64, 74
1, 9333, Note_on_c, 0, 69, 0
1, 9336, Note_on_c, 0, 67, 74
1, 9357, Note_on_c, 1, 64, 0
1, 9360, Note_on_c, 1, 62, 74
1, 9381, Note_on_c, 0, 67, 0
1, 9384, Note_on_c, 0, 66, 74
1, 9405, Note_on_c, 1, 62, 0
1, 9407, Note_on_c, 0, 66, 0
1, 9408, Note_on_c, 1, 59, 78
1, 9432, Note_on_c, 0, 78, 78
1, 9432, Note_on_c, 1, 69, 78
1, 9455, Note_on_c, 0, 78, 0
1, 9455, Note_on_c, 1, 69, 0
1, 9456, Note_on_c, 0, 75, 78
1, 9456, Note_on_c, 1, 66, 78
1, 9479, Note_on_c, 0, 75, 0
1, 9479, Note_on_c, 1, 66, 0
1, 9480, Note_on_c, 0, 78, 78
1, 9480, Note_on_c, 1, 69, 78
1, 9497, Note_on_c, 1, 59, 0
1, 9503, Note_on_c, 0, 78, 0
1, 9503, Note_on_c, 1, 69, 0
1, 9504, Note_on_c, 1, 59, 78
1, 9528, Note_on_c, 0, 78, 78
1, 9528, Note_on_c, 1, 69, 78
1, 9551, Note_on_c, 0, 78, 0
1, 9551, Note_on_c, 1, 69, 0
1, 9552, Note_on_c, 0, 75, 78
1, 9552, Note_on_c, 1, 66, 78
1, 9575, Note_on_c, 0, 75, 0
1, 9575, Note_on_c, 1, 66, 0
1, 9576, Note_on_c, 0, 78, 78
1, 9576, Note_on_c, 1, 69, 78
1, 9593, Note_on_c, 1, 59, 0
1, 9599, Note_on_c, 0, 78, 0
1, 9599, Note_on_c, 1, 69, 0
1, 9600, Note_on_c, 1, 68, 78
1, 9624, Note_on_c, 0, 76, 78
1, 9645, Note_on_c, 1, 68, 0
1, 9648, Note_on_c, 1, 68, 78
1, 9669, Note_on_c, 0, 76, 0
1, 9672, Note_on_c, 0, 71, 78
1, 9693, Note_on_c, 1, 68, 0
1, 9696, Note_on_c, 1, 66, 78
1, 9717, Note_on_c, 0, 71, 0
1, 9720, Note_on_c, 0, 69, 78
1, 9741, Note_on_c, 1, 66, 0
1, 9744, Note_on_c, 1, 64, 78
1, 9765, Note_on_c, 0, 69, 0
1, 9768, Note_on_c, 0, 68, 78
1, 9789, Note_on_c, 1, 64, 0
1, 9791, Note_on_c, 0, 68, 0
1, 9792, Note_on_c, 1, 59, 78
1, 9808, Note_on_c, 0, 78, 78
1, 9816, Note_on_c, 1, 69, 78
1, 9823, Note_on_c, 0, 78, 0
1, 9824, Note_on_c, 0, 76, 78
1, 9839, Note_on_c, 0, 76, 0
1, 9839, Note_on_c, 1, 69, 0
1, 9840, Note_on_c, 0, 75, 78
1, 9840, Note_on_c, 1, 66, 78
1, 9855, Note_on_c, 0, 75, 0
1, 9856, Note_on_c, 0, 76, 78
1, 9863, Note_on_c, 1, 66, 0
1, 9864, Note_on_c, 1, 69, 78
1, 9871, Note_on_c, 0, 76, 0
1, 9872, Note_on_c, 0, 78, 78
1, 9881, Note_on_c, 1, 59, 0
1, 9887, Note_on_c, 0, 78, 0
1, 9887, Note_on_c, 1, 69, 0
1, 9888, Note_on_c, 1, 59, 78
1, 9904, Note_on_c, 0, 78, 78
1, 9912, Note_on_c, 1, 69, 78
1, 9919, Note_on_c, 0, 78, 0
1, 9920, Note_on_c, 0, 76, 78
1, 9935, Note_on_c, 0, 76, 0
1, 9935, Note_on_c, 1, 69, 0
1, 9936, Note_on_c, 0, 75, 78
1, 9936, Note_on_c, 1, 66, 78
1, 9951, Note_on_c, 0, 75, 0
1, 9952, Note_on_c, 0, 76, 78
1, 9959, Note_on_c, 1, 66, 0
1, 9960, Note_on_c, 1, 69, 78
1, 9967, Note_on_c, 0, 76, 0
1, 9968, Note_on_c, 0, 78, 78
1, 9977, Note_on_c, 1, 59, 0
1, 9983, Note_on_c, 0, 78, 0
1, 9983, Note_on_c, 1, 69, 0
1, 9984, Note_on_c, 1, 68, 78
1, 10008, Note_on_c, 0, 76, 78
1, 10029, Note_on_c, 1, 68, 0
1, 10032, Note_on_c, 1, 68, 78
1, 10053, Note_on_c, 0, 76, 0
1, 10056, Note_on_c, 0, 71, 78
1, 10077, Note_on_c, 1, 68, 0
1, 10080, Note_on_c, 1, 66, 78
1, 10101, Note_on_c, 0, 71, 0
1, 10104, Note_on_c, 0, 69, 78
1, 10125, Note_on_c, 1, 66, 0
1, 10128, Note_on_c, 1, 64, 78
1, 10149, Note_on_c, 0, 69, 0
1, 10152, Note_on_c, 0, 68, 78
1, 10173, Note_on_c, 1, 64, 0
1, 10175, Note_on_c, 0, 68, 0
1, 10176, Note_on_c, 0, 66, 74
1, 10224, Note_on_c, 1, 62, 69
1, 10258, Note_on_c, 1, 62, 0
1, 10260, Note_on_c, 1, 61, 69
1, 10272, Note_on_c, 1, 61, 0
1, 10272, Note_on_c, 1, 62, 69
1, 10317, Note_on_c, 1, 62, 0
1, 10320, Note_on_c, 1, 59, 69
1, 10339, Note_on_c, 0, 66, 0
1, 10344, Note_on_c, 0, 74, 74
1, 10356, Note_on_c, 0, 74, 0
1, 10356, Note_on_c, 0, 71, 74
1, 10367, Note_on_c, 1, 59, 0
1, 10368, Note_on_c, 0, 71, 0
1, 10368, Note_on_c, 0, 69, 74
1, 10416, Note_on_c, 1, 64, 69
1, 10450, Note_on_c, 1, 64, 0
1, 10452, Note_on_c, 1, 62, 69
1, 10464, Note_on_c, 0, 69, 0
1, 10464, Note_on_c, 0, 68, 74
1, 10464, Note_on_c, 1, 62, 0
1, 10464, Note_on_c, 1, 64, 69
1, 10509, Note_on_c, 0, 68, 0
1, 10509, Note_on_c, 1, 64, 0
1, 10512, Note_on_c, 0, 78, 74
1, 10512, Note_on_c, 1, 61, 69
1, 10524, Note_on_c, 0, 78, 0
1, 10524, Note_on_c, 0, 76, 74
1, 10536, Note_on_c, 0, 76, 0
1, 10536, Note_on_c, 0, 74, 74
1, 10548, Note_on_c, 0, 74, 0
1, 10548, Note_on_c, 0, 73, 74
1, 10559, Note_on_c, 1, 61, 0
1, 10560, Note_on_c, 0, 73, 0
1, 10560, Note_on_c, 0, 71, 74
1, 10608, Note_on_c, 1, 66, 69
1, 10642, Note_on_c, 1, 66, 0
1, 10644, Note_on_c, 1, 64, 69
1, 10656, Note_on_c, 0, 71, 0
1, 10656, Note_on_c, 0, 69, 74
1, 10656, Note_on_c, 1, 64, 0
1, 10656, Note_on_c, 1, 66, 69
1, 10679, Note_on_c, 0, 69, 0
1, 10680, Note_on_c, 0, 74, 74
1, 10692, Note_on_c, 0, 74, 0
1, 10692, Note_on_c, 0, 76, 74
1, 10701, Note_on_c, 1, 66, 0
1, 10704, Note_on_c, 0, 76, 0
1, 10704, Note_on_c, 0, 80, 74
1, 10704, Note_on_c, 1, 62, 69
1, 10716, Note_on_c, 0, 80, 0
1, 10716, Note_on_c, 0, 78, 74
1, 10728, Note_on_c, 0, 78, 0
1, 10728, Note_on_c, 0, 76, 74
1, 10740, Note_on_c, 0, 76, 0
1, 10740, Note_on_c, 0, 74, 74
1, 10751, Note_on_c, 1, 62, 0
1, 10752, Note_on_c, 0, 74, 0
1, 10752, Note_on_c, 0, 73, 74
1, 10800, Note_on_c, 1, 68, 69
1, 10834, Note_on_c, 1, 68, 0
1, 10836, Note_on_c, 1, 66, 69
1, 10848, Note_on_c, 0, 73, 0
1, 10848, Note_on_c, 0, 71, 74
1, 10848, Note_on_c, 1, 66, 0
1, 10848, Note_on_c, 1, 68, 69
1, 10871, Note_on_c, 0, 71, 0
1, 10872, Note_on_c, 0, 80, 74
1, 10884, Note_on_c, 0, 80, 0
1, 10884, Note_on_c, 0, 81, 74
1, 10893, Note_on_c, 1, 68, 0
1, 10896, Note_on_c, 0, 81, 0
1, 10896, Note_on_c, 0, 83, 74
1, 10896, Note_on_c, 1, 64, 69
1, 10919, Note_on_c, 0, 83, 0
1, 10920, Note_on_c, 0, 74, 74
1, 10943, Note_on_c, 0, 74, 0
1, 10943, Note_on_c, 1, 64, 0
1, 10944, Note_on_c, 0, 73, 74
1, 10944, Note_on_c, 1, 69, 74
1, 10967, Note_on_c, 0, 73, 0
1, 10968, Note_on_c, 0, 78, 90
1, 10989, Note_on_c, 1, 69, 0
1, 10992, Note_on_c, 1, 68, 74
1, 11016, Note_on_c, 0, 78, 0
1, 11016, Note_on_c, 0, 76, 74
1, 11037, Note_on_c, 1, 68, 0
1, 11039, Note_on_c, 0, 76, 0
1, 11040, Note_on_c, 0, 69, 74
1, 11040, Note_on_c, 1, 66, 74
1, 11063, Note_on_c, 0, 69, 0
1, 11064, Note_on_c, 0, 74, 90
1, 11085, Note_on_c, 1, 66, 0
1, 11088, Note_on_c, 1, 64, 74
1, 11112, Note_on_c, 0, 74, 0
1, 11112, Note_on_c, 0, 73, 74
1, 11133, Note_on_c, 1, 64, 0
1, 11135, Note_on_c, 0, 73, 0
1, 11136, Note_on_c, 0, 66, 74
1, 11136, Note_on_c, 1, 62, 74
1, 11159, Note_on_c, 0, 66, 0
1, 11160, Note_on_c, 0, 71, 90
1, 11181, Note_on_c, 1, 62, 0
1, 11184, Note_on_c, 1, 61, 74
1, 11208, Note_on_c, 0, 71, 0
1, 11208, Note_on_c, 0, 69, 74
1, 11229, Note_on_c, 1, 61, 0
1, 11231, Note_on_c, 0, 69, 0
1, 11232, Note_on_c, 0, 68, 74
1, 11232, Note_on_c, 1, 59, 74
1, 11255, Note_on_c, 0, 68, 0
1, 11256, Note_on_c, 0, 74, 90
1, 11277, Note_on_c, 1, 59, 0
1, 11280, Note_on_c, 1, 57, 74
1, 11304, Note_on_c, 0, 74, 0
1, 11304, Note_on_c, 0, 73, 74
1, 11325, Note_on_c, 1, 57, 0
1, 11327, Note_on_c, 0, 73, 0
1, 11328, Note_on_c, 0, 66, 74
1, 11328, Note_on_c, 1, 62, 74
1, 11351, Note_on_c, 0, 66, 0
1, 11352, Note_on_c, 0, 71, 90
1, 11373, Note_on_c, 1, 62, 0
1, 11376, Note_on_c, 1, 61, 74
1, 11400, Note_on_c, 0, 71, 0
1, 11400, Note_on_c, 0, 69, 74
1, 11421, Note_on_c, 1, 61, 0
1, 11423, Note_on_c, 0, 69, 0
1, 11424, Note_on_c, 0, 68, 74
1, 11424, Note_on_c, 1, 59, 74
1, 11447, Note_on_c, 0, 68, 0
1, 11448, Note_on_c, 0, 74, 90
1, 11469, Note_on_c, 1, 59, 0
1, 11472, Note_on_c, 1, 57, 74
1, 11496, Note_on_c, 0, 74, 0
1, 11496, Note_on_c, 0, 73, 74
1, 11517, Note_on_c, 1, 57, 0
1, 11519, Note_on_c, 0, 73, 0
1, 11520, Note_on_c, 0, 73, 74
1, 11520, Note_on_c, 1, 64, 74
1, 11565, Note_on_c, 1, 64, 0
1, 11568, Note_on_c, 0, 73, 0
1, 11568, Note_on_c, 0, 71, 74
1, 11568, Note_on_c, 1, 52, 74
1, 11613, Note_on_c, 0, 71, 0
1, 11613, Note_on_c, 1, 52, 0
1, 11616, Note_on_c, 0, 76, 74
1, 11628, Note_on_c, 0, 76, 0
1, 11628, Note_on_c, 0, 73, 75
1, 11640, Note_on_c, 0, 73, 0
1, 11640, Note_on_c, 0, 70, 76
1, 11652, Note_on_c, 0, 70, 0
1, 11652, Note_on_c, 0, 67, 78
1, 11664, Note_on_c, 0, 67, 0
1, 11664, Note_on_c, 0, 64, 77
1, 11664, Note_on_c, 1, 61, 74
1, 11664, Note_on_c, 1, 58, 74
1, 11711, Note_on_c, 1, 61, 0
1, 11711, Note_on_c, 1, 58, 0
1, 11712, Note_on_c, 1, 59, 74
1, 11757, Note_on_c, 0, 64, 0
1, 11757, Note_on_c, 1, 59, 0
1, 11760, Note_on_c, 0, 63, 75
1, 11760, Note_on_c, 1, 47, 74
1, 11805, Note_on_c, 0, 63, 0
1, 11805, Note_on_c, 1, 47, 0
1, 11808, Note_on_c, 0, 74, 74
1, 11820, Note_on_c, 0, 74, 0
1, 11820, Note_on_c, 0, 71, 75
1, 11832, Note_on_c, 0, 71, 0
1, 11832, Note_on_c, 0, 68, 76
1, 11844, Note_on_c, 0, 68, 0
1, 11844, Note_on_c, 0, 65, 78
1, 11856, Note_on_c, 0, 65, 0
1, 11856, Note_on_c, 0, 62, 77
1, 11856, Note_on_c, 1, 59, 74
1, 11856, Note_on_c, 1, 56, 74
1, 11903, Note_on_c, 1, 59, 0
1, 11903, Note_on_c, 1, 56, 0
1, 11904, Note_on_c, 1, 57, 74
1, 11949, Note_on_c, 0, 62, 0
1, 11949, Note_on_c, 1, 57, 0
1, 11952, Note_on_c, 0, 61, 75
1, 11952, Note_on_c, 1, 45, 74
1, 11997, Note_on_c, 0, 61, 0
1, 11997, Note_on_c, 1, 45, 0
1, 12000, Note_on_c, 0, 81, 74
1, 12012, Note_on_c, 0, 81, 0
1, 12012, Note_on_c, 0, 76, 74
1, 12024, Note_on_c, 0, 76, 0
1, 12024, Note_on_c, 0, 73, 74
1, 12036, Note_on_c, 0, 73, 0
1, 12036, Note_on_c, 0, 69, 74
1, 12048, Note_on_c, 0, 69, 0
1, 12048, Note_on_c, 0, 64, 74
1, 12048, Note_on_c, 1, 57, 74
1, 12048, Note_on_c, 1, 49, 78
1, 12093, Note_on_c, 0, 64, 0
1, 12093, Note_on_c, 1, 57, 0
1, 12093, Note_on_c, 1, 49, 0
1, 12096, Note_on_c, 0, 65, 74
1, 12096, Note_on_c, 1, 57, 74
1, 12096, Note_on_c, 1, 50, 78
1, 12120, Note_on_c, 0, 65, 0
1, 12120, Note_on_c, 0, 66, 74
1, 12141, Note_on_c, 1, 57, 0
1, 12143, Note_on_c, 0, 66, 0
1, 12144, Note_on_c, 0, 76, 74
1, 12144, Note_on_c, 1, 62, 74
1, 12156, Note_on_c, 0, 76, 0
1, 12156, Note_on_c, 0, 74, 74
1, 12168, Note_on_c, 0, 74, 0
1, 12168, Note_on_c, 0, 73, 74
1, 12180, Note_on_c, 0, 73, 0
1, 12180, Note_on_c, 0, 71, 74
1, 12185, Note_on_c, 1, 50, 0
1, 12189, Note_on_c, 1, 62, 0
1, 12192, Note_on_c, 0, 71, 0
1, 12192, Note_on_c, 0, 69, 74
1, 12192, Note_on_c, 1, 61, 74
1, 12192, Note_on_c, 1, 52, 78
1, 12237, Note_on_c, 0, 69, 0
1, 12237, Note_on_c, 1, 61, 0
1, 12240, Note_on_c, 0, 68, 74
1, 12240, Note_on_c, 1, 59, 74
1, 12247, Note_on_c, 0, 68, 0
1, 12247, Note_on_c, 0, 69, 74
1, 12254, Note_on_c, 0, 69, 0
1, 12254, Note_on_c, 0, 68, 74
1, 12261, Note_on_c, 0, 68, 0
1, 12261, Note_on_c, 0, 69, 74
1, 12268, Note_on_c, 0, 69, 0
1, 12268, Note_on_c, 0, 68, 74
1, 12275, Note_on_c, 0, 68, 0
1, 12275, Note_on_c, 0, 66, 74
1, 12281, Note_on_c, 1, 52, 0
1, 12282, Note_on_c, 0, 66, 0
1, 12282, Note_on_c, 0, 68, 74
1, 12285, Note_on_c, 1, 59, 0
1, 12288, Note_on_c, 0, 68, 0
1, 12288, Note_on_c, 0, 69, 74
1, 12288, Note_on_c, 1, 57, 74
1, 12288, Note_on_c, 1, 45, 78
1, 12333, Note_on_c, 0, 69, 0
1, 12336, Note_on_c, 0, 76, 63
1, 12377, Note_on_c, 1, 57, 0
1, 12377, Note_on_c, 1, 45, 0
1, 12384, Note_on_c, 1, 69, 63
1, 12407, Note_on_c, 0, 76, 0
1, 12408, Note_on_c, 0, 72, 63
1, 12431, Note_on_c, 0, 72, 0
1, 12432, Note_on_c, 0, 77, 63
1, 12455, Note_on_c, 0, 77, 0
1, 12456, Note_on_c, 0, 76, 63
1, 12479, Note_on_c, 0, 76, 0
1, 12480, Note_on_c, 0, 75, 63
1, 12503, Note_on_c, 1, 69, 0
1, 12504, Note_on_c, 1, 66, 63
1, 12527, Note_on_c, 1, 66, 0
1, 12528, Note_on_c, 1, 71, 63
1, 12551, Note_on_c, 1, 71, 0
1, 12552, Note_on_c, 1, 69, 63
1, 12575, Note_on_c, 1, 69, 0
1, 12576, Note_on_c, 0, 75, 0
1, 12576, Note_on_c, 0, 74, 63
1, 12576, Note_on_c, 1, 68, 63
1, 12599, Note_on_c, 0, 74, 0
1, 12600, Note_on_c, 0, 71, 63
1, 12623, Note_on_c, 0, 71, 0
1, 12624, Note_on_c, 0, 76, 63
1, 12647, Note_on_c, 0, 76, 0
1, 12648, Note_on_c, 0, 74, 63
1, 12671, Note_on_c, 0, 74, 0
1, 12672, Note_on_c, 0, 72, 63
1, 12695, Note_on_c, 1, 68, 0
1, 12696, Note_on_c, 1, 64, 63
1, 12719, Note_on_c, 1, 64, 0
1, 12720, Note_on_c, 1, 69, 63
1, 12743, Note_on_c, 1, 69, 0
1, 12744, Note_on_c, 1, 67, 63
1, 12767, Note_on_c, 1, 67, 0
1, 12768, Note_on_c, 1, 65, 63
1, 12791, Note_on_c, 0, 72, 0
1, 12792, Note_on_c, 0, 69, 63
1, 12815, Note_on_c, 0, 69, 0
1, 12816, Note_on_c, 0, 81, 63
1, 12839, Note_on_c, 0, 81, 0
1, 12840, Note_on_c, 0, 75, 63
1, 12857, Note_on_c, 1, 65, 0
1, 12863, Note_on_c, 0, 75, 0
1, 12864, Note_on_c, 0, 76, 63
1, 12888, Note_on_c, 1, 52, 69
1, 12911, Note_on_c, 1, 52, 0
1, 12912, Note_on_c, 1, 64, 69
1, 12935, Note_on_c, 1, 64, 0
1, 12936, Note_on_c, 1, 62, 69
1, 12953, Note_on_c, 0, 76, 0
1, 12959, Note_on_c, 1, 62, 0
1, 12960, Note_on_c, 1, 60, 69
1, 12984, Note_on_c, 0, 69, 69
1, 13005, Note_on_c, 1, 60, 0
1, 13007, Note_on_c, 0, 69, 0
1, 13008, Note_on_c, 0, 81, 69
1, 13008, Note_on_c, 1, 53, 69
1, 13008, Note_on_c, 1, 41, 69
1, 13031, Note_on_c, 0, 81, 0
1, 13032, Note_on_c, 0, 75, 69
1, 13053, Note_on_c, 1, 53, 0
1, 13053, Note_on_c, 1, 41, 0
1, 13055, Note_on_c, 0, 75, 0
1, 13056, Note_on_c, 0, 78, 69
1, 13056, Note_on_c, 1, 52, 69
1, 13062, Note_on_c, 0, 78, 0
1, 13062, Note_on_c, 0, 76, 69
1, 13068, Note_on_c, 0, 76, 0
1, 13068, Note_on_c, 0, 75, 69
1, 13074, Note_on_c, 0, 75, 0
1, 13074, Note_on_c, 0, 76, 69
1, 13101, Note_on_c, 1, 52, 0
1, 13104, Note_on_c, 1, 40, 69
1, 13145, Note_on_c, 0, 76, 0
1, 13149, Note_on_c, 1, 40, 0
1, 13152, Note_on_c, 0, 64, 74
1, 13167, Note_on_c, 0, 64, 0
1, 13168, Note_on_c, 0, 76, 74
1, 13168, Note_on_c, 0, 73, 74
1, 13183, Note_on_c, 0, 76, 0
1, 13183, Note_on_c, 0, 73, 0
1, 13184, Note_on_c, 0, 76, 74
1, 13184, Note_on_c, 0, 73, 74
1, 13199, Note_on_c, 0, 76, 0
1, 13199, Note_on_c, 0, 73, 0
1, 13200, Note_on_c, 0, 76, 74
1, 13200, Note_on_c, 0, 73, 74
1, 13200, Note_on_c, 1, 58, 74
1, 13215, Note_on_c, 0, 76, 0
1, 13215, Note_on_c, 0, 73, 0
1, 13216, Note_on_c, 0, 76, 74
1, 13216, Note_on_c, 0, 73, 74
1, 13231, Note_on_c, 0, 76, 0
1, 13231, Note_on_c, 0, 73, 0
1, 13232, Note_on_c, 0, 76, 74
1, 13232, Note_on_c, 0, 73, 74
1, 13245, Note_on_c, 1, 58, 0
1, 13247, Note_on_c, 0, 76, 0
1, 13247, Note_on_c, 0, 73, 0
1, 13248, Note_on_c, 0, 76, 74
1, 13248, Note_on_c, 0, 73, 74
1, 13248, Note_on_c, 1, 59, 74
1, 13293, Note_on_c, 1, 59, 0
1, 13296, Note_on_c, 0, 76, 0
1, 13296, Note_on_c, 0, 73, 0
1, 13296, Note_on_c, 0, 75, 74
1, 13296, Note_on_c, 0, 71, 74
1, 13296, Note_on_c, 1, 47, 74
1, 13341, Note_on_c, 0, 75, 0
1, 13341, Note_on_c, 0, 71, 0
1, 13341, Note_on_c, 1, 47, 0
1, 13344, Note_on_c, 0, 64, 74
1, 13359, Note_on_c, 0, 64, 0
1, 13360, Note_on_c, 0, 74, 74
1, 13360, Note_on_c, 0, 71, 74
1, 13375, Note_on_c, 0, 74, 0
1, 13375, Note_on_c, 0, 71, 0
1, 13376, Note_on_c, 0, 74, 74
1, 13376, Note_on_c, 0, 71, 74
1, 13391, Note_on_c, 0, 74, 0
1, 13391, Note_on_c, 0, 71, 0
1, 13392, Note_on_c, 0, 74, 74
1, 13392, Note_on_c, 0, 71, 74
1, 13392, Note_on_c, 1, 56, 74
1, 13407, Note_on_c, 0, 74, 0
1, 13407, Note_on_c, 0, 71, 0
1, 13408, Note_on_c, 0, 74, 74
1, 13408, Note_on_c, 0, 71, 74
1, 13423, Note_on_c, 0, 74, 0
1, 13423, Note_on_c, 0, 71, 0
1, 13424, Note_on_c, 0, 74, 74
1, 13424, Note_on_c, 0, 71, 74
1, 13437, Note_on_c, 1, 56, 0
1, 13439, Note_on_c, 0, 74, 0
1, 13439, Note_on_c, 0, 71, 0
1, 13440, Note_on_c, 0, 74, 74
1, 13440, Note_on_c, 0, 71, 74
1, 13440, Note_on_c, 1, 57, 74
1, 13485, Note_on_c, 1, 57, 0
1, 13488, Note_on_c, 0, 74, 0
1, 13488, Note_on_c, 0, 71, 0
1, 13488, Note_on_c, 0, 73, 74
1, 13488, Note_on_c, 0, 69, 74
1, 13488, Note_on_c, 1, 45, 74
1, 13533, Note_on_c, 0, 73, 0
1, 13533, Note_on_c, 0, 69, 0
1, 13533, Note_on_c, 1, 45, 0
1, 13536, Note_on_c, 0, 69, 74
1, 13548, Note_on_c, 0, 69, 0
1, 13548, Note_on_c, 0, 71, 74
1, 13560, Note_on_c, 0, 71, 0
1, 13560, Note_on_c, 0, 73, 74
1, 13572, Note_on_c, 0, 73, 0
1, 13572, Note_on_c, 0, 74, 75
1, 13584, Note_on_c, 0, 74, 0
1, 13584, Note_on_c, 0, 76, 75
1, 13584, Note_on_c, 1, 57, 74
1, 13584, Note_on_c, 1, 49, 74
1, 13596, Note_on_c, 0, 76, 0
1, 13596, Note_on_c, 0, 78, 75
1, 13608, Note_on_c, 0, 78, 0
1, 13608, Note_on_c, 0, 80, 76
1, 13620, Note_on_c, 0, 80, 0
1, 13620, Note_on_c, 0, 81, 76
1, 13629, Note_on_c, 1, 57, 0
1, 13629, Note_on_c, 1, 49, 0
1, 13632, Note_on_c, 0, 81, 0
1, 13632, Note_on_c, 0, 71, 76
1, 13632, Note_on_c, 1, 57, 74
1, 13632, Note_on_c, 1, 50, 78
1, 13677, Note_on_c, 0, 71, 0
1, 13680, Note_on_c, 0, 80, 78
1, 13692, Note_on_c, 0, 80, 0
1, 13692, Note_on_c, 0, 78, 77
1, 13704, Note_on_c, 0, 78, 0
1, 13704, Note_on_c, 0, 76, 77
1, 13716, Note_on_c, 0, 76, 0
1, 13716, Note_on_c, 0, 74, 76
1, 13721, Note_on_c, 1, 57, 0
1, 13721, Note_on_c, 1, 50, 0
1, 13728, Note_on_c, 0, 74, 0
1, 13728, Note_on_c, 0, 73, 76
1, 13728, Note_on_c, 1, 57, 74
1, 13728, Note_on_c, 1, 52, 78
1, 13773, Note_on_c, 0, 73, 0
1, 13773, Note_on_c, 1, 57, 0
1, 13776, Note_on_c, 0, 71, 74
1, 13776, Note_on_c, 1, 56, 74
1, 13783, Note_on_c, 0, 71, 0
1, 13783, Note_on_c, 0, 73, 74
1, 13790, Note_on_c, 0, 73, 0
1, 13790, Note_on_c, 0, 71, 74
1, 13797, Note_on_c, 0, 71, 0
1, 13797, Note_on_c, 0, 73, 74
1, 13804, Note_on_c, 0, 73, 0
1, 13804, Note_on_c, 0, 71, 74
1, 13811, Note_on_c, 0, 71, 0
1, 13811, Note_on_c, 0, 69, 74
1, 13817, Note_on_c, 1, 52, 0
1, 13818, Note_on_c, 0, 69, 0
1, 13818, Note_on_c, 0, 71, 74
1, 13821, Note_on_c, 1, 56, 0
1, 13824, Note_on_c, 0, 71, 0
1, 13824, Note_on_c, 0, 69, 74
1, 13824, Note_on_c, 1, 57, 74
1, 13869, Note_on_c, 1, 57, 0
1, 13872, Note_on_c, 1, 52, 74
1, 13913, Note_on_c, 0, 69, 0
1, 13917, Note_on_c, 1, 52, 0
1, 13920, Note_on_c, 1, 45, 74
1, 13965, Note_on_c, 1, 45, 0
1, 13992, Note_on_c, 0, 69, 74
1, 14015, Note_on_c, 0, 69, 0
1, 14016, Note_on_c, 0, 73, 74
1, 14016, Note_on_c, 1, 57, 74
1, 14061, Note_on_c, 1, 57, 0
1, 14064, Note_on_c, 1, 64, 74
1, 14083, Note_on_c, 0, 73, 0
1, 14088, Note_on_c, 0, 71, 74
1, 14109, Note_on_c, 1, 64, 0
1, 14111, Note_on_c, 0, 71, 0
1, 14112, Note_on_c, 0, 74, 75
1, 14112, Note_on_c, 1, 59, 74
1, 14157, Note_on_c, 1, 59, 0
1, 14160, Note_on_c, 1, 64, 74
1, 14179, Note_on_c, 0, 74, 0
1, 14184, Note_on_c, 0, 68, 75
1, 14205, Note_on_c, 1, 64, 0
1, 14207, Note_on_c, 0, 68, 0
1, 14208, Note_on_c, 0, 69, 92
1, 14208, Note_on_c, 1, 61, 74
1, 14253, Note_on_c, 1, 61, 0
1, 14256, Note_on_c, 1, 64, 74
1, 14280, Note_on_c, 0, 69, 0
1, 14280, Note_on_c, 0, 73, 76
1, 14292, Note_on_c, 0, 73, 0
1, 14292, Note_on_c, 0, 71, 76
1, 14301, Note_on_c, 1, 64, 0
1, 14304, Note_on_c, 0, 71, 0
1, 14304, Note_on_c, 0, 69, 77
1, 14338, Note_on_c, 0, 69, 0
1, 14340, Note_on_c, 0, 69, 77
1, 14352, Note_on_c, 0, 69, 0
1, 14352, Note_on_c, 0, 81, 77
1, 14352, Note_on_c, 1, 61, 74
1, 14386, Note_on_c, 0, 81, 0
1, 14388, Note_on_c, 0, 80, 78
1, 14397, Note_on_c, 1, 61, 0
1, 14400, Note_on_c, 0, 80, 0
1, 14400, Note_on_c, 0, 78, 77
1, 14400, Note_on_c, 1, 62, 74
1, 14434, Note_on_c, 0, 78, 0
1, 14436, Note_on_c, 0, 68, 77
1, 14445, Note_on_c, 1, 62, 0
1, 14448, Note_on_c, 0, 68, 0
1, 14448, Note_on_c, 0, 69, 76
1, 14448, Note_on_c, 1, 61, 74
1, 14482, Note_on_c, 0, 69, 0
1, 14484, Note_on_c, 0, 76, 76
1, 14493, Note_on_c, 1, 61, 0
1, 14496, Note_on_c, 0, 76, 0
1, 14496, Note_on_c, 0, 76, 75
1, 14496, Note_on_c, 1, 59, 74
1, 14541, Note_on_c, 0, 76, 0
1, 14541, Note_on_c, 1, 59, 0
1, 14544, Note_on_c, 0, 74, 74
1, 14544, Note_on_c, 1, 68, 74
1, 14551, Note_on_c, 0, 74, 0
1, 14551, Note_on_c, 0, 76, 74
1, 14558, Note_on_c, 0, 76, 0
1, 14558, Note_on_c, 0, 74, 74
1, 14565, Note_on_c, 0, 74, 0
1, 14565, Note_on_c, 0, 76, 74
1, 14572, Note_on_c, 0, 76, 0
1, 14572, Note_on_c, 0, 74, 74
1, 14579, Note_on_c, 0, 74, 0
1, 14579, Note_on_c, 0, 73, 74
1, 14586, Note_on_c, 0, 73, 0
1, 14586, Note_on_c, 0, 74, 74
1, 14589, Note_on_c, 1, 68, 0
1, 14592, Note_on_c, 0, 74, 0
1, 14592, Note_on_c, 0, 74, 74
1, 14592, Note_on_c, 1, 69, 74
1, 14637, Note_on_c, 1, 69, 0
1, 14640, Note_on_c, 0, 74, 0
1, 14640, Note_on_c, 0, 73, 74
1, 14640, Note_on_c, 1, 64, 74
1, 14674, Note_on_c, 1, 64, 0
1, 14676, Note_on_c, 1, 61, 74
1, 14685, Note_on_c, 0, 73, 0
1, 14688, Note_on_c, 1, 61, 0
1, 14688, Note_on_c, 1, 57, 74
1, 14760, Note_on_c, 0, 69, 74
1, 14777, Note_on_c, 1, 57, 0
1, 14783, Note_on_c, 0, 69, 0
1, 14784, Note_on_c, 0, 73, 74
1, 14784, Note_on_c, 1, 57, 74
1, 14829, Note_on_c, 1, 57, 0
1, 14832, Note_on_c, 1, 64, 74
1, 14851, Note_on_c, 0, 73, 0
1, 14856, Note_on_c, 0, 71, 74
1, 14877, Note_on_c, 1, 64, 0
1, 14879, Note_on_c, 0, 71, 0
1, 14880, Note_on_c, 0, 74, 75
1, 14880, Note_on_c, 1, 59, 74
1, 14925, Note_on_c, 1, 59, 0
1, 14928, Note_on_c, 1, 64, 74
1, 14947, Note_on_c, 0, 74, 0
1, 14952, Note_on_c, 0, 68, 76
1, 14973, Note_on_c, 1, 64, 0
1, 14975, Note_on_c, 0, 68, 0
1, 14976, Note_on_c, 0, 69, 92
1, 14976, Note_on_c, 1, 61, 74
1, 15021, Note_on_c, 1, 61, 0
1, 15024, Note_on_c, 1, 64, 74
1, 15048, Note_on_c, 0, 69, 0
1, 15048, Note_on_c, 0, 73, 77
1, 15060, Note_on_c, 0, 73, 0
1, 15060, Note_on_c, 0, 71, 77
1, 15069, Note_on_c, 1, 64, 0
1, 15072, Note_on_c, 0, 71, 0
1, 15072, Note_on_c, 0, 69, 77
1, 15106, Note_on_c, 0, 69, 0
1, 15108, Note_on_c, 0, 69, 77
1, 15120, Note_on_c, 0, 69, 0
1, 15120, Note_on_c, 0, 81, 78
1, 15120, Note_on_c, 1, 61, 74
1, 15154, Note_on_c, 0, 81, 0
1, 15156, Note_on_c, 0, 80, 77
1, 15165, Note_on_c, 1, 61, 0
1, 15168, Note_on_c, 0, 80, 0
1, 15168, Note_on_c, 0, 80, 77
1, 15168, Note_on_c, 1, 62, 74
1, 15202, Note_on_c, 0, 80, 0
1, 15204, Note_on_c, 0, 78, 76
1, 15213, Note_on_c, 1, 62, 0
1, 15216, Note_on_c, 0, 78, 0
1, 15216, Note_on_c, 0, 78, 76
1, 15216, Note_on_c, 1, 61, 74
1, 15250, Note_on_c, 0, 78, 0
1, 15252, Note_on_c, 0, 76, 75
1, 15261, Note_on_c, 1, 61, 0
1, 15264, Note_on_c, 0, 76, 0
1, 15264, Note_on_c, 0, 76, 75
1, 15264, Note_on_c, 1, 59, 74
1, 15298, Note_on_c, 0, 76, 0
1, 15300, Note_on_c, 0, 74, 75
1, 15309, Note_on_c, 1, 59, 0
1, 15312, Note_on_c, 0, 74, 0
1, 15312, Note_on_c, 0, 74, 74
1, 15312, Note_on_c, 1, 57, 74
1, 15346, Note_on_c, 0, 74, 0
1, 15348, Note_on_c, 0, 73, 74
1, 15357, Note_on_c, 1, 57, 0
1, 15360, Note_on_c, 0, 73, 0
1, 15360, Note_on_c, 0, 73, 74
1, 15360, Note_on_c, 1, 64, 74
1, 15405, Note_on_c, 1, 64, 0
1, 15408, Note_on_c, 0, 73, 0
1, 15408, Note_on_c, 0, 71, 74
1, 15408, Note_on_c, 1, 59, 74
1, 15442, Note_on_c, 1, 59, 0
1, 15444, Note_on_c, 1, 56, 74
1, 15453, Note_on_c, 0, 71, 0
1, 15456, Note_on_c, 1, 56, 0
1, 15456, Note_on_c, 1, 52, 74
1, 15545, Note_on_c, 1, 52, 0
1, 15552, Note_on_c, 0, 78, 74
1, 15558, Note_on_c, 0, 78, 0
1, 15558, Note_on_c, 0, 76, 74
1, 15564, Note_on_c, 0, 76, 0
1, 15564, Note_on_c, 0, 75, 74
1, 15570, Note_on_c, 0, 75, 0
1, 15570, Note_on_c, 0, 76, 74
1, 15600, Note_on_c, 1, 64, 69
1, 15634, Note_on_c, 1, 64, 0
1, 15636, Note_on_c, 1, 66, 69
1, 15648, Note_on_c, 1, 66, 0
1, 15648, Note_on_c, 1, 67, 69
1, 15671, Note_on_c, 0, 76, 0
1, 15672, Note_on_c, 0, 76, 76
1, 15684, Note_on_c, 0, 76, 0
1, 15684, Note_on_c, 0, 78, 77
1, 15693, Note_on_c, 1, 67, 0
1, 15696, Note_on_c, 0, 78, 0
1, 15696, Note_on_c, 0, 79, 78
1, 15708, Note_on_c, 0, 79, 0
1, 15708, Note_on_c, 0, 78, 77
1, 15720, Note_on_c, 0, 78, 0
1, 15720, Note_on_c, 0, 76, 76
1, 15732, Note_on_c, 0, 76, 0
1, 15732, Note_on_c, 0, 74, 75
1, 15744, Note_on_c, 0, 74, 0
1, 15744, Note_on_c, 0, 73, 74
1, 15792, Note_on_c, 1, 64, 69
1, 15826, Note_on_c, 1, 64, 0
1, 15828, Note_on_c, 1, 66, 69
1, 15840, Note_on_c, 1, 66, 0
1, 15840, Note_on_c, 1, 67, 69
1, 15863, Note_on_c, 0, 73, 0
1, 15864, Note_on_c, 0, 73, 76
1, 15876, Note_on_c, 0, 73, 0
1, 15876, Note_on_c, 0, 74, 77
1, 15885, Note_on_c, 1, 67, 0
1, 15888, Note_on_c, 0, 74, 0
1, 15888, Note_on_c, 0, 76, 78
1, 15900, Note_on_c, 0, 76, 0
1, 15900, Note_on_c, 0, 74, 77
1, 15912, Note_on_c, 0, 74, 0
1, 15912, Note_on_c, 0, 73, 76
1, 15924, Note_on_c, 0, 73, 0
1, 15924, Note_on_c, 0, 71, 75
1, 15936, Note_on_c, 0, 71, 0
1, 15936, Note_on_c, 0, 70, 74
1, 15984, Note_on_c, 1, 64, 69
1, 16018, Note_on_c, 1, 64, 0
1, 16020, Note_on_c, 1, 66, 69
1, 16032, Note_on_c, 1, 66, 0
1, 16032, Note_on_c, 1, 67, 69
1, 16047, Note_on_c, 0, 70, 0
1, 16048, Note_on_c, 0, 73, 75
1, 16063, Note_on_c, 0, 73, 0
1, 16064, Note_on_c, 0, 76, 76
1, 16077, Note_on_c, 1, 67, 0
1, 16079, Note_on_c, 0, 76, 0
1, 16080, Note_on_c, 0, 79, 77
1, 16095, Note_on_c, 0, 79, 0
1, 16096, Note_on_c, 0, 76, 78
1, 16111, Note_on_c, 0, 76, 0
1, 16112, Note_on_c, 0, 73, 77
1, 16127, Note_on_c, 0, 73, 0
1, 16128, Note_on_c, 0, 70, 74
1, 16176, Note_on_c, 1, 64, 69
1, 16210, Note_on_c, 1, 64, 0
1, 16212, Note_on_c, 1, 66, 69
1, 16224, Note_on_c, 1, 66, 0
1, 16224, Note_on_c, 1, 67, 69
1, 16239, Note_on_c, 0, 70, 0
1, 16240, Note_on_c, 0, 70, 75
1, 16255, Note_on_c, 0, 70, 0
1, 16256, Note_on_c, 0, 73, 76
1, 16269, Note_on_c, 1, 67, 0
1, 16271, Note_on_c, 0, 73, 0
1, 16272, Note_on_c, 0, 76, 77
1, 16287, Note_on_c, 0, 76, 0
1, 16288, Note_on_c, 0, 73, 78
1, 16303, Note_on_c, 0, 73, 0
1, 16304, Note_on_c, 0, 70, 77
1, 16319, Note_on_c, 0, 70, 0
1, 16320, Note_on_c, 0, 71, 78
1, 16320, Note_on_c, 1, 62, 78
1, 16343, Note_on_c, 0, 71, 0
1, 16344, Note_on_c, 0, 78, 77
1, 16367, Note_on_c, 0, 78, 0
1, 16368, Note_on_c, 0, 74, 77
1, 16368, Note_on_c, 1, 71, 77
1, 16391, Note_on_c, 0, 74, 0
1, 16392, Note_on_c, 0, 78, 76
1, 16413, Note_on_c, 1, 71, 0
1, 16415, Note_on_c, 0, 78, 0
1, 16416, Note_on_c, 0, 83, 92
1, 16416, Note_on_c, 1, 66, 76
1, 16432, Note_on_c, 0, 83, 0
1, 16432, Note_on_c, 0, 74, 76
1, 16447, Note_on_c, 0, 74, 0
1, 16448, Note_on_c, 0, 76, 76
1, 16461, Note_on_c, 1, 66, 0
1, 16463, Note_on_c, 0, 76, 0
1, 16464, Note_on_c, 0, 78, 76
1, 16464, Note_on_c, 1, 71, 75
1, 16479, Note_on_c, 0, 78, 0
1, 16480, Note_on_c, 0, 76, 75
1, 16495, Note_on_c, 0, 76, 0
1, 16496, Note_on_c, 0, 74, 75
1, 16497, Note_on_c, 1, 62, 0
1, 16509, Note_on_c, 1, 71, 0
1, 16511, Note_on_c, 0, 74, 0
1, 16512, Note_on_c, 1, 64, 75
1, 16536, Note_on_c, 0, 79, 75
1, 16559, Note_on_c, 0, 79, 0
1, 16560, Note_on_c, 0, 76, 74
1, 16560, Note_on_c, 1, 71, 74
1, 16583, Note_on_c, 0, 76, 0
1, 16584, Note_on_c, 0, 79, 74
1, 16605, Note_on_c, 1, 71, 0
1, 16607, Note_on_c, 0, 79, 0
1, 16608, Note_on_c, 0, 83, 90
1, 16608, Note_on_c, 1, 67, 73
1, 16624, Note_on_c, 0, 83, 0
1, 16624, Note_on_c, 0, 76, 73
1, 16639, Note_on_c, 0, 76, 0
1, 16640, Note_on_c, 0, 78, 73
1, 16653, Note_on_c, 1, 67, 0
1, 16655, Note_on_c, 0, 78, 0
1, 16656, Note_on_c, 0, 79, 73
1, 16656, Note_on_c, 1, 71, 73
1, 16671, Note_on_c, 0, 79, 0
1, 16672, Note_on_c, 0, 78, 73
1, 16687, Note_on_c, 0, 78, 0
1, 16688, Note_on_c, 0, 76, 73
1, 16689, Note_on_c, 1, 64, 0
1, 16701, Note_on_c, 1, 71, 0
1, 16703, Note_on_c, 0, 76, 0
1, 16704, Note_on_c, 1, 61, 73
1, 16728, Note_on_c, 0, 76, 72
1, 16751, Note_on_c, 0, 76, 0
1, 16752, Note_on_c, 0, 73, 72
1, 16752, Note_on_c, 1, 69, 71
1, 16775, Note_on_c, 0, 73, 0
1, 16776, Note_on_c, 0, 76, 71
1, 16797, Note_on_c, 1, 69, 0
1, 16799, Note_on_c, 0, 76, 0
1, 16800, Note_on_c, 0, 81, 87
1, 16800, Note_on_c, 1, 64, 70
1, 16816, Note_on_c, 0, 81, 0
1, 16816, Note_on_c, 0, 73, 71
1, 16831, Note_on_c, 0, 73, 0
1, 16832, Note_on_c, 0, 74, 71
1, 16845, Note_on_c, 1, 64, 0
1, 16847, Note_on_c, 0, 74, 0
1, 16848, Note_on_c, 0, 76, 71
1, 16848, Note_on_c, 1, 69, 70
1, 16863, Note_on_c, 0, 76, 0
1, 16864, Note_on_c, 0, 74, 70
1, 16879, Note_on_c, 0, 74, 0
1, 16880, Note_on_c, 0, 73, 70
1, 16881, Note_on_c, 1, 61, 0
1, 16893, Note_on_c, 1, 69, 0
1, 16895, Note_on_c, 0, 73, 0
1, 16896, Note_on_c, 1, 62, 70
1, 16920, Note_on_c, 0, 78, 70
1, 16943, Note_on_c, 0, 78, 0
1, 16944, Note_on_c, 0, 74, 69
1, 16944, Note_on_c, 1, 69, 68
1, 16967, Note_on_c, 0, 74, 0
1, 16968, Note_on_c, 0, 78, 69
1, 16989, Note_on_c, 1, 69, 0
1, 16991, Note_on_c, 0, 78, 0
1, 16992, Note_on_c, 0, 81, 85
1, 16992, Note_on_c, 1, 66, 68
1, 17008, Note_on_c, 0, 81, 0
1, 17008, Note_on_c, 0, 74, 68
1, 17023, Note_on_c, 0, 74, 0
1, 17024, Note_on_c, 0, 76, 68
1, 17037, Note_on_c, 1, 66, 0
1, 17039, Note_on_c, 0, 76, 0
1, 17040, Note_on_c, 0, 78, 68
1, 17040, Note_on_c, 1, 69, 67
1, 17055, Note_on_c, 0, 78, 0
1, 17056, Note_on_c, 0, 76, 68
1, 17071, Note_on_c, 0, 76, 0
1, 17072, Note_on_c, 0, 74, 68
1, 17073, Note_on_c, 1, 62, 0
1, 17085, Note_on_c, 1, 69, 0
1, 17087, Note_on_c, 0, 74, 0
1, 17088, Note_on_c, 1, 59, 68
1, 17112, Note_on_c, 0, 74, 67
1, 17135, Note_on_c, 0, 74, 0
1, 17136, Note_on_c, 0, 71, 67
1, 17136, Note_on_c, 1, 67, 65
1, 17159, Note_on_c, 0, 71, 0
1, 17160, Note_on_c, 0, 74, 66
1, 17181, Note_on_c, 1, 67, 0
1, 17183, Note_on_c, 0, 74, 0
1, 17184, Note_on_c, 0, 79, 82
1, 17184, Note_on_c, 1, 62, 65
1, 17200, Note_on_c, 0, 79, 0
1, 17200, Note_on_c, 0, 71, 66
1, 17215, Note_on_c, 0, 71, 0
1, 17216, Note_on_c, 0, 73, 66
1, 17229, Note_on_c, 1, 62, 0
1, 17231, Note_on_c, 0, 73, 0
1, 17232, Note_on_c, 0, 74, 66
1, 17232, Note_on_c, 1, 67, 64
1, 17247, Note_on_c, 0, 74, 0
1, 17248, Note_on_c, 0, 73, 65
1, 17263, Note_on_c, 0, 73, 0
1, 17264, Note_on_c, 0, 71, 65
1, 17265, Note_on_c, 1, 59, 0
1, 17277, Note_on_c, 1, 67, 0
1, 17279, Note_on_c, 0, 71, 0
1, 17280, Note_on_c, 1, 61, 65
1, 17304, Note_on_c, 0, 76, 65
1, 17327, Note_on_c, 0, 76, 0
1, 17328, Note_on_c, 0, 73, 64
1, 17328, Note_on_c, 1, 67, 63
1, 17351, Note_on_c, 0, 73, 0
1, 17352, Note_on_c, 0, 76, 64
1, 17373, Note_on_c, 1, 67, 0
1, 17375, Note_on_c, 0, 76, 0
1, 17376, Note_on_c, 0, 79, 80
1, 17376, Note_on_c, 1, 64, 63
1, 17392, Note_on_c, 0, 79, 0
1, 17392, Note_on_c, 0, 73, 63
1, 17407, Note_on_c, 0, 73, 0
1, 17408, Note_on_c, 0, 74, 63
1, 17421, Note_on_c, 1, 64, 0
1, 17423, Note_on_c, 0, 74, 0
1, 17424, Note_on_c, 0, 76, 63
1, 17424, Note_on_c, 1, 67, 64
1, 17439, Note_on_c, 0, 76, 0
1, 17440, Note_on_c, 0, 74, 63
1, 17455, Note_on_c, 0, 74, 0
1, 17456, Note_on_c, 0, 73, 63
1, 17457, Note_on_c, 1, 61, 0
1, 17469, Note_on_c, 1, 67, 0
1, 17471, Note_on_c, 0, 73, 0
1, 17472, Note_on_c, 1, 58, 63
1, 17496, Note_on_c, 0, 73, 63
1, 17519, Note_on_c, 0, 73, 0
1, 17520, Note_on_c, 0, 70, 63
1, 17520, Note_on_c, 1, 66, 66
1, 17543, Note_on_c, 0, 70, 0
1, 17544, Note_on_c, 0, 73, 64
1, 17565, Note_on_c, 1, 66, 0
1, 17567, Note_on_c, 0, 73, 0
1, 17568, Note_on_c, 0, 78, 80
1, 17568, Note_on_c, 1, 61, 66
1, 17584, Note_on_c, 0, 78, 0
1, 17584, Note_on_c, 0, 73, 64
1, 17599, Note_on_c, 0, 73, 0
1, 17600, Note_on_c, 0, 74, 64
1, 17613, Note_on_c, 1, 61, 0
1, 17615, Note_on_c, 0, 74, 0
1, 17616, Note_on_c, 0, 76, 65
1, 17616, Note_on_c, 1, 66, 67
1, 17631, Note_on_c, 0, 76, 0
1, 17632, Note_on_c, 0, 74, 65
1, 17647, Note_on_c, 0, 74, 0
1, 17648, Note_on_c, 0, 73, 65
1, 17649, Note_on_c, 1, 58, 0
1, 17661, Note_on_c, 1, 66, 0
1, 17663, Note_on_c, 0, 73, 0
1, 17664, Note_on_c, 1, 59, 66
1, 17680, Note_on_c, 0, 71, 65
1, 17695, Note_on_c, 0, 71, 0
1, 17696, Note_on_c, 0, 73, 66
1, 17711, Note_on_c, 0, 73, 0
1, 17712, Note_on_c, 0, 74, 66
1, 17712, Note_on_c, 1, 66, 69
1, 17727, Note_on_c, 0, 74, 0
1, 17728, Note_on_c, 0, 73, 66
1, 17743, Note_on_c, 0, 73, 0
1, 17744, Note_on_c, 0, 71, 66
1, 17753, Note_on_c, 1, 59, 0
1, 17759, Note_on_c, 0, 71, 0
1, 17760, Note_on_c, 1, 61, 68
1, 17776, Note_on_c, 0, 70, 67
1, 17791, Note_on_c, 0, 70, 0
1, 17792, Note_on_c, 0, 71, 67
1, 17801, Note_on_c, 1, 66, 0
1, 17807, Note_on_c, 0, 71, 0
1, 17808, Note_on_c, 0, 73, 67
1, 17808, Note_on_c, 1, 66, 70
1, 17823, Note_on_c, 0, 73, 0
1, 17824, Note_on_c, 0, 71, 67
1, 17839, Note_on_c, 0, 71, 0
1, 17840, Note_on_c, 0, 70, 67
1, 17849, Note_on_c, 1, 61, 0
1, 17855, Note_on_c, 0, 70, 0
1, 17856, Note_on_c, 1, 62, 70
1, 17872, Note_on_c, 0, 71, 68
1, 17887, Note_on_c, 0, 71, 0
1, 17888, Note_on_c, 0, 73, 68
1, 17901, Note_on_c, 1, 66, 0
1, 17903, Note_on_c, 0, 73, 0
1, 17904, Note_on_c, 0, 74, 68
1, 17904, Note_on_c, 1, 66, 72
1, 17919, Note_on_c, 0, 74, 0
1, 17920, Note_on_c, 0, 73, 68
1, 17935, Note_on_c, 0, 73, 0
1, 17936, Note_on_c, 0, 71, 69
1, 17945, Note_on_c, 1, 62, 0
1, 17951, Note_on_c, 0, 71, 0
1, 17952, Note_on_c, 1, 58, 72
1, 17968, Note_on_c, 0, 73, 69
1, 17983, Note_on_c, 0, 73, 0
1, 17984, Note_on_c, 0, 74, 69
1, 17993, Note_on_c, 1, 66, 0
1, 17999, Note_on_c, 0, 74, 0
1, 18000, Note_on_c, 0, 76, 69
1, 18000, Note_on_c, 1, 66, 74
1, 18015, Note_on_c, 0, 76, 0
1, 18016, Note_on_c, 0, 74, 70
1, 18031, Note_on_c, 0, 74, 0
1, 18032, Note_on_c, 0, 73, 70
1, 18041, Note_on_c, 1, 58, 0
1, 18047, Note_on_c, 0, 73, 0
1, 18048, Note_on_c, 1, 59, 74
1, 18064, Note_on_c, 0, 74, 70
1, 18079, Note_on_c, 0, 74, 0
1, 18080, Note_on_c, 0, 76, 70
1, 18093, Note_on_c, 1, 66, 0
1, 18095, Note_on_c, 0, 76, 0
1, 18096, Note_on_c, 0, 78, 71
1, 18096, Note_on_c, 1, 66, 75
1, 18111, Note_on_c, 0, 78, 0
1, 18112, Note_on_c, 0, 76, 71
1, 18127, Note_on_c, 0, 76, 0
1, 18128, Note_on_c, 0, 74, 71
1, 18137, Note_on_c, 1, 59, 0
1, 18143, Note_on_c, 0, 74, 0
1, 18144, Note_on_c, 1, 61, 76
1, 18160, Note_on_c, 0, 76, 71
1, 18175, Note_on_c, 0, 76, 0
1, 18176, Note_on_c, 0, 78, 72
1, 18185, Note_on_c, 1, 66, 0
1, 18191, Note_on_c, 0, 78, 0
1, 18192, Note_on_c, 0, 79, 72
1, 18192, Note_on_c, 1, 66, 77
1, 18207, Note_on_c, 0, 79, 0
1, 18208, Note_on_c, 0, 78, 72
1, 18223, Note_on_c, 0, 78, 0
1, 18224, Note_on_c, 0, 76, 72
1, 18233, Note_on_c, 1, 61, 0
1, 18239, Note_on_c, 0, 76, 0
1, 18240, Note_on_c, 0, 78, 78
1, 18240, Note_on_c, 1, 62, 78
1, 18274, Note_on_c, 0, 78, 0
1, 18276, Note_on_c, 0, 71, 78
1, 18288, Note_on_c, 0, 71, 0
1, 18288, Note_on_c, 0, 74, 78
1, 18322, Note_on_c, 0, 74, 0
1, 18324, Note_on_c, 0, 78, 78
1, 18329, Note_on_c, 1, 66, 0
1, 18329, Note_on_c, 1, 62, 0
1, 18336, Note_on_c, 0, 78, 0
1, 18336, Note_on_c, 0, 83, 94
1, 18384, Note_on_c, 1, 59, 78
1, 18384, Note_on_c, 1, 50, 78
1, 18429, Note_on_c, 1, 59, 0
1, 18429, Note_on_c, 1, 50, 0
1, 18432, Note_on_c, 1, 59, 78
1, 18432, Note_on_c, 1, 52, 78
1, 18466, Note_on_c, 0, 83, 0
1, 18468, Note_on_c, 0, 78, 78
1, 18480, Note_on_c, 0, 78, 0
1, 18480, Note_on_c, 0, 81, 78
1, 18492, Note_on_c, 0, 81, 0
1, 18492, Note_on_c, 0, 79, 78
1, 18504, Note_on_c, 0, 79, 0
1, 18504, Note_on_c, 0, 78, 78
1, 18516, Note_on_c, 0, 78, 0
1, 18516, Note_on_c, 0, 76, 78
1, 18521, Note_on_c, 1, 59, 0
1, 18521, Note_on_c, 1, 52, 0
1, 18528, Note_on_c, 0, 76, 0
1, 18528, Note_on_c, 0, 74, 78
1, 18528, Note_on_c, 1, 59, 78
1, 18528, Note_on_c, 1, 54, 78
1, 18573, Note_on_c, 0, 74, 0
1, 18573, Note_on_c, 1, 59, 0
1, 18576, Note_on_c, 0, 73, 78
1, 18576, Note_on_c, 1, 58, 78
1, 18583, Note_on_c, 0, 73, 0
1, 18583, Note_on_c, 0, 74, 77
1, 18590, Note_on_c, 0, 74, 0
1, 18590, Note_on_c, 0, 73, 77
1, 18597, Note_on_c, 0, 73, 0
1, 18597, Note_on_c, 0, 74, 76
1, 18604, Note_on_c, 0, 74, 0
1, 18604, Note_on_c, 0, 73, 76
1, 18611, Note_on_c, 0, 73, 0
1, 18611, Note_on_c, 0, 71, 75
1, 18617, Note_on_c, 1, 54, 0
1, 18618, Note_on_c, 0, 71, 0
1, 18618, Note_on_c, 0, 73, 75
1, 18621, Note_on_c, 1, 58, 0
1, 18624, Note_on_c, 0, 73, 0
1, 18624, Note_on_c, 0, 71, 74
1, 18624, Note_on_c, 1, 59, 78
1, 18669, Note_on_c, 1, 59, 0
1, 18672, Note_on_c, 1, 47, 78
1, 18713, Note_on_c, 0, 71, 0
1, 18717, Note_on_c, 1, 47, 0
1, 18720, Note_on_c, 0, 66, 74
1, 18735, Note_on_c, 0, 66, 0
1, 18736, Note_on_c, 0, 78, 74
1, 18736, Note_on_c, 0, 74, 74
1, 18751, Note_on_c, 0, 78, 0
1, 18751, Note_on_c, 0, 74, 0
1, 18752, Note_on_c, 0, 78, 74
1, 18752, Note_on_c, 0, 74, 74
1, 18767, Note_on_c, 0, 78, 0
1, 18767, Note_on_c, 0, 74, 0
1, 18768, Note_on_c, 0, 78, 74
1, 18768, Note_on_c, 0, 74, 74
1, 18768, Note_on_c, 1, 59, 74
1, 18783, Note_on_c, 0, 78, 0
1, 18783, Note_on_c, 0, 74, 0
1, 18784, Note_on_c, 0, 78, 74
1, 18784, Note_on_c, 0, 74, 74
1, 18799, Note_on_c, 0, 78, 0
1, 18799, Note_on_c, 0, 74, 0
1, 18800, Note_on_c, 0, 78, 74
1, 18800, Note_on_c, 0, 74, 74
1, 18813, Note_on_c, 1, 59, 0
1, 18815, Note_on_c, 0, 78, 0
1, 18815, Note_on_c, 0, 74, 0
1, 18816, Note_on_c, 0, 78, 74
1, 18816, Note_on_c, 0, 74, 74
1, 18816, Note_on_c, 1, 61, 74
1, 18861, Note_on_c, 1, 61, 0
1, 18864, Note_on_c, 0, 78, 0
1, 18864, Note_on_c, 0, 74, 0
1, 18864, Note_on_c, 0, 76, 74
1, 18864, Note_on_c, 0, 73, 74
1, 18864, Note_on_c, 1, 49, 74
1, 18909, Note_on_c, 0, 76, 0
1, 18909, Note_on_c, 0, 73, 0
1, 18909, Note_on_c, 1, 49, 0
1, 18912, Note_on_c, 0, 66, 74
1, 18927, Note_on_c, 0, 66, 0
1, 18928, Note_on_c, 0, 76, 74
1, 18928, Note_on_c, 0, 73, 74
1, 18943, Note_on_c, 0, 76, 0
1, 18943, Note_on_c, 0, 73, 0
1, 18944, Note_on_c, 0, 76, 74
1, 18944, Note_on_c, 0, 73, 74
1, 18959, Note_on_c, 0, 76, 0
1, 18959, Note_on_c, 0, 73, 0
1, 18960, Note_on_c, 0, 76, 74
1, 18960, Note_on_c, 0, 73, 74
1, 18960, Note_on_c, 1, 58, 74
1, 18975, Note_on_c, 0, 76, 0
1, 18975, Note_on_c, 0, 73, 0
1, 18976, Note_on_c, 0, 76, 74
1, 18976, Note_on_c, 0, 73, 74
1, 18991, Note_on_c, 0, 76, 0
1, 18991, Note_on_c, 0, 73, 0
1, 18992, Note_on_c, 0, 76, 74
1, 18992, Note_on_c, 0, 73, 74
1, 19005, Note_on_c, 1, 58, 0
1, 19007, Note_on_c, 0, 76, 0
1, 19007, Note_on_c, 0, 73, 0
1, 19008, Note_on_c, 0, 76, 74
1, 19008, Note_on_c, 0, 73, 74
1, 19008, Note_on_c, 1, 59, 74
1, 19053, Note_on_c, 1, 59, 0
1, 19056, Note_on_c, 0, 76, 0
1, 19056, Note_on_c, 0, 73, 0
1, 19056, Note_on_c, 0, 74, 74
1, 19056, Note_on_c, 0, 71, 74
1, 19056, Note_on_c, 1, 47, 74
1, 19101, Note_on_c, 0, 74, 0
1, 19101, Note_on_c, 0, 71, 0
1, 19101, Note_on_c, 1, 47, 0
1, 19104, Note_on_c, 0, 71, 74
1, 19116, Note_on_c, 0, 71, 0
1, 19116, Note_on_c, 0, 73, 74
1, 19128, Note_on_c, 0, 73, 0
1, 19128, Note_on_c, 0, 74, 74
1, 19140, Note_on_c, 0, 74, 0
1, 19140, Note_on_c, 0, 76, 75
1, 19152, Note_on_c, 0, 76, 0
1, 19152, Note_on_c, 0, 78, 75
1, 19152, Note_on_c, 1, 59, 74
1, 19152, Note_on_c, 1, 50, 74
1, 19164, Note_on_c, 0, 78, 0
1, 19164, Note_on_c, 0, 80, 75
1, 19176, Note_on_c, 0, 80, 0
1, 19176, Note_on_c, 0, 82, 76
1, 19188, Note_on_c, 0, 82, 0
1, 19188, Note_on_c, 0, 83, 76
1, 19197, Note_on_c, 1, 59, 0
1, 19197, Note_on_c, 1, 50, 0
1, 19200, Note_on_c, 0, 83, 0
1, 19200, Note_on_c, 0, 81, 76
1, 19200, Note_on_c, 1, 59, 74
1, 19200, Note_on_c, 1, 52, 78
1, 19214, Note_on_c, 0, 81, 0
1, 19215, Note_on_c, 0, 79, 77
1, 19223, Note_on_c, 0, 79, 0
1, 19223, Note_on_c, 0, 81, 77
1, 19231, Note_on_c, 0, 81, 0
1, 19231, Note_on_c, 0, 79, 77
1, 19239, Note_on_c, 0, 79, 0
1, 19239, Note_on_c, 0, 81, 77
1, 19247, Note_on_c, 0, 81, 0
1, 19247, Note_on_c, 0, 79, 77
1, 19254, Note_on_c, 0, 79, 0
1, 19254, Note_on_c, 0, 81, 78
1, 19261, Note_on_c, 0, 81, 0
1, 19261, Note_on_c, 0, 79, 77
1, 19268, Note_on_c, 0, 79, 0
1, 19268, Note_on_c, 0, 81, 77
1, 19275, Note_on_c, 0, 81, 0
1, 19275, Note_on_c, 0, 79, 77
1, 19282, Note_on_c, 0, 79, 0
1, 19282, Note_on_c, 0, 78, 77
1, 19289, Note_on_c, 0, 78, 0
1, 19289, Note_on_c, 0, 76, 77
1, 19289, Note_on_c, 1, 59, 0
1, 19289, Note_on_c, 1, 52, 0
1, 19296, Note_on_c, 0, 76, 0
1, 19296, Note_on_c, 0, 74, 77
1, 19296, Note_on_c, 1, 59, 74
1, 19296, Note_on_c, 1, 54, 78
1, 19341, Note_on_c, 0, 74, 0
1, 19341, Note_on_c, 1, 59, 0
1, 19344, Note_on_c, 0, 73, 75
1, 19344, Note_on_c, 1, 58, 74
1, 19351, Note_on_c, 0, 73, 0
1, 19351, Note_on_c, 0, 74, 75
1, 19358, Note_on_c, 0, 74, 0
1, 19358, Note_on_c, 0, 73, 75
1, 19365, Note_on_c, 0, 73, 0
1, 19365, Note_on_c, 0, 74, 75
1, 19372, Note_on_c, 0, 74, 0
1, 19372, Note_on_c, 0, 73, 75
1, 19379, Note_on_c, 0, 73, 0
1, 19379, Note_on_c, 0, 71, 74
1, 19385, Note_on_c, 1, 54, 0
1, 19386, Note_on_c, 0, 71, 0
1, 19386, Note_on_c, 0, 73, 74
1, 19389, Note_on_c, 1, 58, 0
1, 19392, Note_on_c, 0, 73, 0
1, 19392, Note_on_c, 0, 71, 74
1, 19392, Note_on_c, 1, 59, 74
1, 19437, Note_on_c, 0, 71, 0
1, 19437, Note_on_c, 1, 59, 0
1, 19440, Note_on_c, 1, 71, 63
1, 19464, Note_on_c, 0, 78, 63
1, 19485, Note_on_c, 1, 71, 0
1, 19488, Note_on_c, 1, 73, 63
1, 19509, Note_on_c, 0, 78, 0
1, 19512, Note_on_c, 0, 76, 63
1, 19533, Note_on_c, 1, 73, 0
1, 19536, Note_on_c, 1, 66, 63
1, 19557, Note_on_c, 0, 76, 0
1, 19560, Note_on_c, 0, 73, 63
1, 19581, Note_on_c, 1, 66, 0
1, 19584, Note_on_c, 1, 71, 63
1, 19607, Note_on_c, 0, 73, 0
1, 19608, Note_on_c, 0, 74, 63
1, 19629, Note_on_c, 1, 71, 0
1, 19632, Note_on_c, 1, 62, 63
1, 19653, Note_on_c, 0, 74, 0
1, 19656, Note_on_c, 0, 71, 63
1, 19677, Note_on_c, 1, 62, 0
1, 19680, Note_on_c, 1, 64, 63
1, 19701, Note_on_c, 0, 71, 0
1, 19704, Note_on_c, 0, 73, 64
1, 19725, Note_on_c, 1, 64, 0
1, 19728, Note_on_c, 1, 66, 64
1, 19749, Note_on_c, 0, 73, 0
1, 19752, Note_on_c, 0, 70, 65
1, 19773, Note_on_c, 1, 66, 0
1, 19776, Note_on_c, 1, 67, 65
1, 19799, Note_on_c, 0, 70, 0
1, 19800, Note_on_c, 0, 71, 66
1, 19821, Note_on_c, 1, 67, 0
1, 19824, Note_on_c, 1, 64, 66
1, 19845, Note_on_c, 0, 71, 0
1, 19848, Note_on_c, 0, 83, 66
1, 19869, Note_on_c, 1, 64, 0
1, 19872, Note_on_c, 1, 66, 66
1, 19893, Note_on_c, 0, 83, 0
1, 19896, Note_on_c, 0, 81, 67
1, 19917, Note_on_c, 1, 66, 0
1, 19920, Note_on_c, 1, 59, 67
1, 19941, Note_on_c, 0, 81, 0
1, 19944, Note_on_c, 0, 78, 68
1, 19965, Note_on_c, 1, 59, 0
1, 19968, Note_on_c, 1, 64, 68
1, 19991, Note_on_c, 0, 78, 0
1, 19992, Note_on_c, 0, 79, 69
1, 20013, Note_on_c, 1, 64, 0
1, 20016, Note_on_c, 1, 67, 69
1, 20037, Note_on_c, 0, 79, 0
1, 20040, Note_on_c, 0, 76, 69
1, 20061, Note_on_c, 1, 67, 0
1, 20064, Note_on_c, 1, 69, 70
1, 20085, Note_on_c, 0, 76, 0
1, 20088, Note_on_c, 0, 77, 70
1, 20109, Note_on_c, 1, 69, 0
1, 20112, Note_on_c, 1, 71, 70
1, 20133, Note_on_c, 0, 77, 0
1, 20136, Note_on_c, 0, 74, 71
1, 20157, Note_on_c, 1, 71, 0
1, 20160, Note_on_c, 1, 72, 71
1, 20183, Note_on_c, 0, 74, 0
1, 20184, Note_on_c, 0, 76, 72
1, 20205, Note_on_c, 1, 72, 0
1, 20208, Note_on_c, 1, 64, 72
1, 20229, Note_on_c, 0, 76, 0
1, 20232, Note_on_c, 0, 72, 73
1, 20253, Note_on_c, 1, 64, 0
1, 20256, Note_on_c, 1, 66, 73
1, 20277, Note_on_c, 0, 72, 0
1, 20280, Note_on_c, 0, 74, 73
1, 20301, Note_on_c, 1, 66, 0
1, 20304, Note_on_c, 1, 68, 74
1, 20325, Note_on_c, 0, 74, 0
1, 20328, Note_on_c, 0, 71, 74
1, 20349, Note_on_c, 1, 68, 0
1, 20352, Note_on_c, 1, 69, 74
1, 20375, Note_on_c, 0, 71, 0
1, 20376, Note_on_c, 0, 72, 75
1, 20397, Note_on_c, 1, 69, 0
1, 20400, Note_on_c, 1, 62, 75
1, 20421, Note_on_c, 0, 72, 0
1, 20424, Note_on_c, 0, 74, 76
1, 20445, Note_on_c, 1, 62, 0
1, 20448, Note_on_c, 1, 64, 76
1, 20469, Note_on_c, 0, 74, 0
1, 20472, Note_on_c, 0, 72, 76
1, 20493, Note_on_c, 1, 64, 0
1, 20496, Note_on_c, 1, 66, 77
1, 20517, Note_on_c, 0, 72, 0
1, 20520, Note_on_c, 0, 69, 77
1, 20541, Note_on_c, 1, 66, 0
1, 20543, Note_on_c, 0, 69, 0
1, 20544, Note_on_c, 0, 71, 78
1, 20544, Note_on_c, 1, 67, 78
1, 20567, Note_on_c, 0, 71, 0
1, 20568, Note_on_c, 0, 76, 94
1, 20589, Note_on_c, 1, 67, 0
1, 20592, Note_on_c, 1, 66, 78
1, 20616, Note_on_c, 0, 76, 0
1, 20616, Note_on_c, 0, 74, 78
1, 20637, Note_on_c, 1, 66, 0
1, 20639, Note_on_c, 0, 74, 0
1, 20640, Note_on_c, 0, 73, 78
1, 20640, Note_on_c, 1, 64, 78
1, 20663, Note_on_c, 0, 73, 0
1, 20664, Note_on_c, 0, 79, 94
1, 20685, Note_on_c, 1, 64, 0
1, 20688, Note_on_c, 1, 62, 78
1, 20712, Note_on_c, 0, 79, 0
1, 20712, Note_on_c, 0, 78, 78
1, 20733, Note_on_c, 1, 62, 0
1, 20735, Note_on_c, 0, 78, 0
1, 20736, Note_on_c, 0, 71, 78
1, 20736, Note_on_c, 1, 67, 78
1, 20759, Note_on_c, 0, 71, 0
1, 20760, Note_on_c, 0, 76, 94
1, 20781, Note_on_c, 1, 67, 0
1, 20784, Note_on_c, 1, 66, 78
1, 20808, Note_on_c, 0, 76, 0
1, 20808, Note_on_c, 0, 74, 78
1, 20829, Note_on_c, 1, 66, 0
1, 20831, Note_on_c, 0, 74, 0
1, 20832, Note_on_c, 0, 73, 78
1, 20832, Note_on_c, 1, 64, 78
1, 20855, Note_on_c, 0, 73, 0
1, 20856, Note_on_c, 0, 79, 94
1, 20877, Note_on_c, 1, 64, 0
1, 20880, Note_on_c, 1, 62, 78
1, 20904, Note_on_c, 0, 79, 0
1, 20904, Note_on_c, 0, 78, 78
1, 20925, Note_on_c, 1, 62, 0
1, 20927, Note_on_c, 0, 78, 0
1, 20928, Note_on_c, 0, 74, 78
1, 20928, Note_on_c, 1, 67, 78
1, 20951, Note_on_c, 0, 74, 0
1, 20952, Note_on_c, 0, 83, 94
1, 20973, Note_on_c, 1, 67, 0
1, 20976, Note_on_c, 1, 66, 78
1, 21000, Note_on_c, 0, 83, 0
1, 21000, Note_on_c, 0, 81, 78
1, 21021, Note_on_c, 1, 66, 0
1, 21023, Note_on_c, 0, 81, 0
1, 21024, Note_on_c, 0, 73, 78
1, 21024, Note_on_c, 1, 64, 78
1, 21047, Note_on_c, 0, 73, 0
1, 21048, Note_on_c, 0, 79, 92
1, 21069, Note_on_c, 1, 64, 0
1, 21072, Note_on_c, 1, 62, 75
1, 21096, Note_on_c, 0, 79, 0
1, 21096, Note_on_c, 0, 78, 74
1, 21117, Note_on_c, 1, 62, 0
1, 21119, Note_on_c, 0, 78, 0
1, 21120, Note_on_c, 0, 78, 73
1, 21120, Note_on_c, 1, 69, 73
1, 21165, Note_on_c, 1, 69, 0
1, 21168, Note_on_c, 0, 78, 0
1, 21168, Note_on_c, 0, 76, 71
1, 21168, Note_on_c, 1, 64, 70
1, 21202, Note_on_c, 1, 64, 0
1, 21204, Note_on_c, 1, 61, 69
1, 21213, Note_on_c, 0, 76, 0
1, 21216, Note_on_c, 1, 61, 0
1, 21216, Note_on_c, 1, 57, 69
1, 21288, Note_on_c, 0, 62, 74
1, 21305, Note_on_c, 1, 57, 0
1, 21311, Note_on_c, 0, 62, 0
1, 21312, Note_on_c, 0, 66, 74
1, 21312, Note_on_c, 1, 50, 74
1, 21357, Note_on_c, 1, 50, 0
1, 21360, Note_on_c, 1, 57, 74
1, 21379, Note_on_c, 0, 66, 0
1, 21384, Note_on_c, 0, 62, 74
1, 21405, Note_on_c, 1, 57, 0
1, 21407, Note_on_c, 0, 62, 0
1, 21408, Note_on_c, 0, 67, 75
1, 21408, Note_on_c, 1, 52, 74
1, 21453, Note_on_c, 1, 52, 0
1, 21456, Note_on_c, 1, 57, 74
1, 21475, Note_on_c, 0, 67, 0
1, 21480, Note_on_c, 0, 61, 75
1, 21501, Note_on_c, 1, 57, 0
1, 21503, Note_on_c, 0, 61, 0
1, 21504, Note_on_c, 0, 62, 92
1, 21504, Note_on_c, 1, 54, 74
1, 21549, Note_on_c, 1, 54, 0
1, 21552, Note_on_c, 1, 57, 74
1, 21576, Note_on_c, 0, 62, 0
1, 21576, Note_on_c, 0, 66, 76
1, 21588, Note_on_c, 0, 66, 0
1, 21588, Note_on_c, 0, 64, 76
1, 21597, Note_on_c, 1, 57, 0
1, 21600, Note_on_c, 0, 64, 0
1, 21600, Note_on_c, 0, 62, 77
1, 21634, Note_on_c, 0, 62, 0
1, 21636, Note_on_c, 0, 62, 77
1, 21648, Note_on_c, 0, 62, 0
1, 21648, Note_on_c, 0, 74, 77
1, 21648, Note_on_c, 1, 54, 74
1, 21682, Note_on_c, 0, 74, 0
1, 21684, Note_on_c, 0, 73, 78
1, 21693, Note_on_c, 1, 54, 0
1, 21696, Note_on_c, 0, 73, 0
1, 21696, Note_on_c, 0, 71, 77
1, 21696, Note_on_c, 1, 55, 74
1, 21730, Note_on_c, 0, 71, 0
1, 21732, Note_on_c, 0, 61, 77
1, 21741, Note_on_c, 1, 55, 0
1, 21744, Note_on_c, 0, 61, 0
1, 21744, Note_on_c, 0, 62, 76
1, 21744, Note_on_c, 1, 54, 74
1, 21778, Note_on_c, 0, 62, 0
1, 21780, Note_on_c, 0, 69, 76
1, 21789, Note_on_c, 1, 54, 0
1, 21792, Note_on_c, 0, 69, 0
1, 21792, Note_on_c, 0, 69, 75
1, 21792, Note_on_c, 1, 52, 74
1, 21837, Note_on_c, 0, 69, 0
1, 21837, Note_on_c, 1, 52, 0
1, 21840, Note_on_c, 0, 67, 74
1, 21840, Note_on_c, 1, 61, 74
1, 21847, Note_on_c, 0, 67, 0
1, 21847, Note_on_c, 0, 69, 74
1, 21854, Note_on_c, 0, 69, 0
1, 21854, Note_on_c, 0, 67, 74
1, 21861, Note_on_c, 0, 67, 0
1, 21861, Note_on_c, 0, 69, 74
1, 21868, Note_on_c, 0, 69, 0
1, 21868, Note_on_c, 0, 67, 74
1, 21875, Note_on_c, 0, 67, 0
1, 21875, Note_on_c, 0, 66, 74
1, 21882, Note_on_c, 0, 66, 0
1, 21882, Note_on_c, 0, 67, 74
1, 21885, Note_on_c, 1, 61, 0
1, 21888, Note_on_c, 0, 67, 0
1, 21888, Note_on_c, 0, 67, 74
1, 21888, Note_on_c, 1, 62, 74
1, 21933, Note_on_c, 1, 62, 0
1, 21936, Note_on_c, 0, 67, 0
1, 21936, Note_on_c, 0, 66, 74
1, 21936, Note_on_c, 1, 57, 74
1, 21970, Note_on_c, 1, 57, 0
1, 21972, Note_on_c, 1, 54, 74
1, 21981, Note_on_c, 0, 66, 0
1, 21984, Note_on_c, 1, 54, 0
1, 21984, Note_on_c, 1, 50, 74
1, 22056, Note_on_c, 0, 74, 74
1, 22073, Note_on_c, 1, 50, 0
1, 22079, Note_on_c, 0, 74, 0
1, 22080, Note_on_c, 0, 78, 74
1, 22080, Note_on_c, 1, 62, 74
1, 22125, Note_on_c, 1, 62, 0
1, 22128, Note_on_c, 1, 69, 74
1, 22147, Note_on_c, 0, 78, 0
1, 22152, Note_on_c, 0, 74, 74
1, 22173, Note_on_c, 1, 69, 0
1, 22175, Note_on_c, 0, 74, 0
1, 22176, Note_on_c, 0, 79, 75
1, 22176, Note_on_c, 1, 64, 74
1, 22221, Note_on_c, 1, 64, 0
1, 22224, Note_on_c, 1, 69, 74
1, 22243, Note_on_c, 0, 79, 0
1, 22248, Note_on_c, 0, 73, 76
1, 22269, Note_on_c, 1, 69, 0
1, 22271, Note_on_c, 0, 73, 0
1, 22272, Note_on_c, 0, 74, 92
1, 22272, Note_on_c, 1, 66, 74
1, 22317, Note_on_c, 1, 66, 0
1, 22320, Note_on_c, 1, 69, 74
1, 22344, Note_on_c, 0, 74, 0
1, 22344, Note_on_c, 0, 78, 77
1, 22356, Note_on_c, 0, 78, 0
1, 22356, Note_on_c, 0, 76, 77
1, 22365, Note_on_c, 1, 69, 0
1, 22368, Note_on_c, 0, 76, 0
1, 22368, Note_on_c, 0, 74, 77
1, 22402, Note_on_c, 0, 74, 0
1, 22404, Note_on_c, 0, 74, 78
1, 22416, Note_on_c, 0, 74, 0
1, 22416, Note_on_c, 0, 86, 77
1, 22416, Note_on_c, 1, 66, 74
1, 22450, Note_on_c, 0, 86, 0
1, 22452, Note_on_c, 0, 85, 77
1, 22461, Note_on_c, 1, 66, 0
1, 22464, Note_on_c, 0, 85, 0
1, 22464, Note_on_c, 0, 85, 77
1, 22464, Note_on_c, 1, 67, 74
1, 22498, Note_on_c, 0, 85, 0
1, 22500, Note_on_c, 0, 83, 76
1, 22509, Note_on_c, 1, 67, 0
1, 22512, Note_on_c, 0, 83, 0
1, 22512, Note_on_c, 0, 83, 76
1, 22512, Note_on_c, 1, 66, 74
1, 22546, Note_on_c, 0, 83, 0
1, 22548, Note_on_c, 0, 81, 75
1, 22557, Note_on_c, 1, 66, 0
1, 22560, Note_on_c, 0, 81, 0
1, 22560, Note_on_c, 0, 81, 75
1, 22560, Note_on_c, 1, 64, 74
1, 22594, Note_on_c, 0, 81, 0
1, 22596, Note_on_c, 0, 79, 74
1, 22605, Note_on_c, 1, 64, 0
1, 22608, Note_on_c, 0, 79, 0
1, 22608, Note_on_c, 0, 79, 74
1, 22608, Note_on_c, 1, 62, 74
1, 22642, Note_on_c, 0, 79, 0
1, 22644, Note_on_c, 0, 78, 74
1, 22653, Note_on_c, 1, 62, 0
1, 22656, Note_on_c, 0, 78, 0
1, 22656, Note_on_c, 0, 78, 74
1, 22656, Note_on_c, 1, 69, 74
1, 22701, Note_on_c, 1, 69, 0
1, 22704, Note_on_c, 0, 78, 0
1, 22704, Note_on_c, 0, 76, 74
1, 22704, Note_on_c, 1, 64, 74
1, 22749, Note_on_c, 0, 76, 0
1, 22749, Note_on_c, 1, 64, 0
1, 22752, Note_on_c, 1, 57, 74
1, 22841, Note_on_c, 1, 57, 0
1, 22848, Note_on_c, 1, 57, 78
1, 22872, Note_on_c, 0, 76, 74
1, 22872, Note_on_c, 1, 67, 74
1, 22895, Note_on_c, 0, 76, 0
1, 22895, Note_on_c, 1, 67, 0
1, 22896, Note_on_c, 0, 73, 74
1, 22896, Note_on_c, 1, 64, 74
1, 22919, Note_on_c, 0, 73, 0
1, 22919, Note_on_c, 1, 64, 0
1, 22920, Note_on_c, 0, 76, 74
1, 22920, Note_on_c, 1, 67, 74
1, 22937, Note_on_c, 1, 57, 0
1, 22943, Note_on_c, 0, 76, 0
1, 22943, Note_on_c, 1, 67, 0
1, 22944, Note_on_c, 1, 57, 78
1, 22968, Note_on_c, 0, 76, 74
1, 22968, Note_on_c, 1, 67, 74
1, 22991, Note_on_c, 0, 76, 0
1, 22991, Note_on_c, 1, 67, 0
1, 22992, Note_on_c, 0, 73, 74
1, 22992, Note_on_c, 1, 64, 74
1, 23015, Note_on_c, 0, 73, 0
1, 23015, Note_on_c, 1, 64, 0
1, 23016, Note_on_c, 0, 76, 74
1, 23016, Note_on_c, 1, 67, 74
1, 23033, Note_on_c, 1, 57, 0
1, 23039, Note_on_c, 0, 76, 0
1, 23039, Note_on_c, 1, 67, 0
1, 23040, Note_on_c, 1, 66, 74
1, 23064, Note_on_c, 0, 74, 74
1, 23085, Note_on_c, 1, 66, 0
1, 23088, Note_on_c, 1, 66, 74
1, 23109, Note_on_c, 0, 74, 0
1, 23112, Note_on_c, 0, 69, 74
1, 23133, Note_on_c, 1, 66, 0
1, 23136, Note_on_c, 1, 64, 74
1, 23157, Note_on_c, 0, 69, 0
1, 23160, Note_on_c, 0, 67, 74
1, 23181, Note_on_c, 1, 64, 0
1, 23184, Note_on_c, 1, 62, 74
1, 23205, Note_on_c, 0, 67, 0
1, 23208, Note_on_c, 0, 66, 74
1, 23229, Note_on_c, 1, 62, 0
1, 23231, Note_on_c, 0, 66, 0
1, 23232, Note_on_c, 1, 57, 78
1, 23248, Note_on_c, 0, 76, 74
1, 23256, Note_on_c, 1, 67, 74
1, 23263, Note_on_c, 0, 76, 0
1, 23264, Note_on_c, 0, 74, 74
1, 23279, Note_on_c, 0, 74, 0
1, 23279, Note_on_c, 1, 67, 0
1, 23280, Note_on_c, 0, 73, 74
1, 23280, Note_on_c, 1, 64, 74
1, 23295, Note_on_c, 0, 73, 0
1, 23296, Note_on_c, 0, 74, 74
1, 23303, Note_on_c, 1, 64, 0
1, 23304, Note_on_c, 1, 67, 74
1, 23311, Note_on_c, 0, 74, 0
1, 23312, Note_on_c, 0, 76, 74
1, 23321, Note_on_c, 1, 57, 0
1, 23327, Note_on_c, 0, 76, 0
1, 23327, Note_on_c, 1, 67, 0
1, 23328, Note_on_c, 1, 57, 78
1, 23344, Note_on_c, 0, 76, 74
1, 23352, Note_on_c, 1, 67, 74
1, 23359, Note_on_c, 0, 76, 0
1, 23360, Note_on_c, 0, 74, 74
1, 23375, Note_on_c, 0, 74, 0
1, 23375, Note_on_c, 1, 67, 0
1, 23376, Note_on_c, 0, 73, 74
1, 23376, Note_on_c, 1, 64, 74
1, 23391, Note_on_c, 0, 73, 0
1, 23392, Note_on_c, 0, 74, 74
1, 23399, Note_on_c, 1, 64, 0
1, 23400, Note_on_c, 1, 67, 74
1, 23407, Note_on_c, 0, 74, 0
1, 23408, Note_on_c, 0, 76, 74
1, 23417, Note_on_c, 1, 57, 0
1, 23423, Note_on_c, 0, 76, 0
1, 23423, Note_on_c, 1, 67, 0
1, 23424, Note_on_c, 1, 66, 74
1, 23448, Note_on_c, 0, 74, 74
1, 23469, Note_on_c, 1, 66, 0
1, 23472, Note_on_c, 1, 66, 74
1, 23493, Note_on_c, 0, 74, 0
1, 23496, Note_on_c, 0, 69, 74
1, 23517, Note_on_c, 1, 66, 0
1, 23520, Note_on_c, 1, 64, 74
1, 23541, Note_on_c, 0, 69, 0
1, 23544, Note_on_c, 0, 67, 74
1, 23565, Note_on_c, 1, 64, 0
1, 23568, Note_on_c, 1, 62, 74
1, 23589, Note_on_c, 0, 67, 0
1, 23592, Note_on_c, 0, 66, 74
1, 23613, Note_on_c, 1, 62, 0
1, 23615, Note_on_c, 0, 66, 0
1, 23616, Note_on_c, 0, 71, 74
1, 23664, Note_on_c, 1, 67, 69
1, 23698, Note_on_c, 1, 67, 0
1, 23700, Note_on_c, 1, 66, 69
1, 23712, Note_on_c, 1, 66, 0
1, 23712, Note_on_c, 1, 67, 69
1, 23757, Note_on_c, 1, 67, 0
1, 23760, Note_on_c, 1, 64, 69
1, 23779, Note_on_c, 0, 71, 0
1, 23784, Note_on_c, 0, 79, 74
1, 23796, Note_on_c, 0, 79, 0
1, 23796, Note_on_c, 0, 76, 74
1, 23807, Note_on_c, 1, 64, 0
1, 23808, Note_on_c, 0, 76, 0
1, 23808, Note_on_c, 0, 74, 74
1, 23856, Note_on_c, 1, 69, 69
1, 23890, Note_on_c, 1, 69, 0
1, 23892, Note_on_c, 1, 67, 69
1, 23904, Note_on_c, 0, 74, 0
1, 23904, Note_on_c, 0, 73, 74
1, 23904, Note_on_c, 1, 67, 0
1, 23904, Note_on_c, 1, 69, 69
1, 23949, Note_on_c, 0, 73, 0
1, 23949, Note_on_c, 1, 69, 0
1, 23952, Note_on_c, 0, 83, 74
1, 23952, Note_on_c, 1, 66, 69
1, 23964, Note_on_c, 0, 83, 0
1, 23964, Note_on_c, 0, 81, 74
1, 23976, Note_on_c, 0, 81, 0
1, 23976, Note_on_c, 0, 79, 74
1, 23988, Note_on_c, 0, 79, 0
1, 23988, Note_on_c, 0, 78, 74
1, 23999, Note_on_c, 1, 66, 0
1, 24000, Note_on_c, 0, 78, 0
1, 24000, Note_on_c, 0, 76, 74
1, 24048, Note_on_c, 1, 71, 69
1, 24082, Note_on_c, 1, 71, 0
1, 24084, Note_on_c, 1, 69, 69
1, 24096, Note_on_c, 0, 76, 0
1, 24096, Note_on_c, 0, 74, 74
1, 24096, Note_on_c, 1, 69, 0
1, 24096, Note_on_c, 1, 71, 69
1, 24119, Note_on_c, 0, 74, 0
1, 24120, Note_on_c, 0, 79, 74
1, 24132, Note_on_c, 0, 79, 0
1, 24132, Note_on_c, 0, 81, 74
1, 24141, Note_on_c, 1, 71, 0
1, 24144, Note_on_c, 0, 81, 0
1, 24144, Note_on_c, 0, 83, 74
1, 24144, Note_on_c, 1, 67, 69
1, 24178, Note_on_c, 0, 83, 0
1, 24180, Note_on_c, 0, 79, 74
1, 24191, Note_on_c, 1, 67, 0
1, 24192, Note_on_c, 0, 79, 0
1, 24192, Note_on_c, 0, 78, 74
1, 24240, Note_on_c, 1, 73, 69
1, 24274, Note_on_c, 1, 73, 0
1, 24276, Note_on_c, 1, 71, 69
1, 24288, Note_on_c, 0, 78, 0
1, 24288, Note_on_c, 0, 76, 74
1, 24288, Note_on_c, 1, 71, 0
1, 24288, Note_on_c, 1, 73, 69
1, 24311, Note_on_c, 0, 76, 0
1, 24312, Note_on_c, 0, 78, 74
1, 24324, Note_on_c, 0, 78, 0
1, 24324, Note_on_c, 0, 79, 74
1, 24333, Note_on_c, 1, 73, 0
1, 24336, Note_on_c, 0, 79, 0
1, 24336, Note_on_c, 0, 81, 74
1, 24336, Note_on_c, 1, 69, 69
1, 24348, Note_on_c, 0, 81, 0
1, 24348, Note_on_c, 0, 79, 74
1, 24360, Note_on_c, 0, 79, 0
1, 24360, Note_on_c, 0, 78, 74
1, 24372, Note_on_c, 0, 78, 0
1, 24372, Note_on_c, 0, 79, 74
1, 24383, Note_on_c, 1, 69, 0
1, 24384, Note_on_c, 0, 79, 0
1, 24384, Note_on_c, 0, 78, 74
1, 24384, Note_on_c, 1, 74, 74
1, 24407, Note_on_c, 0, 78, 0
1, 24408, Note_on_c, 0, 83, 90
1, 24429, Note_on_c, 1, 74, 0
1, 24432, Note_on_c, 1, 73, 74
1, 24456, Note_on_c, 0, 83, 0
1, 24456, Note_on_c, 0, 81, 74
1, 24477, Note_on_c, 1, 73, 0
1, 24479, Note_on_c, 0, 81, 0
1, 24480, Note_on_c, 0, 74, 74
1, 24480, Note_on_c, 1, 71, 74
1, 24503, Note_on_c, 0, 74, 0
1, 24504, Note_on_c, 0, 79, 90
1, 24525, Note_on_c, 1, 71, 0
1, 24528, Note_on_c, 1, 69, 74
1, 24552, Note_on_c, 0, 79, 0
1, 24552, Note_on_c, 0, 78, 74
1, 24573, Note_on_c, 1, 69, 0
1, 24575, Note_on_c, 0, 78, 0
1, 24576, Note_on_c, 0, 71, 74
1, 24576, Note_on_c, 1, 67, 74
1, 24599, Note_on_c, 0, 71, 0
1, 24600, Note_on_c, 0, 76, 90
1, 24621, Note_on_c, 1, 67, 0
1, 24624, Note_on_c, 1, 66, 74
1, 24648, Note_on_c, 0, 76, 0
1, 24648, Note_on_c, 0, 74, 74
1, 24669, Note_on_c, 1, 66, 0
1, 24671, Note_on_c, 0, 74, 0
1, 24672, Note_on_c, 0, 73, 74
1, 24672, Note_on_c, 1, 64, 74
1, 24695, Note_on_c, 0, 73, 0
1, 24696, Note_on_c, 0, 79, 90
1, 24717, Note_on_c, 1, 64, 0
1, 24720, Note_on_c, 1, 62, 74
1, 24744, Note_on_c, 0, 79, 0
1, 24744, Note_on_c, 0, 78, 74
1, 24765, Note_on_c, 1, 62, 0
1, 24767, Note_on_c, 0, 78, 0
1, 24768, Note_on_c, 0, 71, 74
1, 24768, Note_on_c, 1, 67, 74
1, 24791, Note_on_c, 0, 71, 0
1, 24792, Note_on_c, 0, 76, 90
1, 24813, Note_on_c, 1, 67, 0
1, 24816, Note_on_c, 1, 66, 74
1, 24840, Note_on_c, 0, 76, 0
1, 24840, Note_on_c, 0, 74, 74
1, 24861, Note_on_c, 1, 66, 0
1, 24863, Note_on_c, 0, 74, 0
1, 24864, Note_on_c, 0, 73, 74
1, 24864, Note_on_c, 1, 64, 74
1, 24887, Note_on_c, 0, 73, 0
1, 24888, Note_on_c, 0, 79, 90
1, 24909, Note_on_c, 1, 64, 0
1, 24912, Note_on_c, 1, 62, 74
1, 24936, Note_on_c, 0, 79, 0
1, 24936, Note_on_c, 0, 78, 74
1, 24957, Note_on_c, 1, 62, 0
1, 24959, Note_on_c, 0, 78, 0
1, 24960, Note_on_c, 0, 78, 74
1, 24960, Note_on_c, 1, 69, 74
1, 25005, Note_on_c, 1, 69, 0
1, 25008, Note_on_c, 0, 78, 0
1, 25008, Note_on_c, 0, 76, 74
1, 25008, Note_on_c, 1, 57, 74
1, 25053, Note_on_c, 0, 76, 0
1, 25053, Note_on_c, 1, 57, 0
1, 25056, Note_on_c, 0, 81, 74
1, 25068, Note_on_c, 0, 81, 0
1, 25068, Note_on_c, 0, 78, 75
1, 25080, Note_on_c, 0, 78, 0
1, 25080, Note_on_c, 0, 75, 76
1, 25092, Note_on_c, 0, 75, 0
1, 25092, Note_on_c, 0, 72, 77
1, 25104, Note_on_c, 0, 72, 0
1, 25104, Note_on_c, 0, 69, 78
1, 25104, Note_on_c, 1, 66, 74
1, 25104, Note_on_c, 1, 63, 74
1, 25151, Note_on_c, 1, 66, 0
1, 25151, Note_on_c, 1, 63, 0
1, 25152, Note_on_c, 1, 64, 74
1, 25197, Note_on_c, 0, 69, 0
1, 25197, Note_on_c, 1, 64, 0
1, 25200, Note_on_c, 0, 68, 75
1, 25200, Note_on_c, 1, 52, 74
1, 25245, Note_on_c, 0, 68, 0
1, 25245, Note_on_c, 1, 52, 0
1, 25248, Note_on_c, 0, 79, 74
1, 25260, Note_on_c, 0, 79, 0
1, 25260, Note_on_c, 0, 76, 75
1, 25272, Note_on_c, 0, 76, 0
1, 25272, Note_on_c, 0, 73, 76
1, 25284, Note_on_c, 0, 73, 0
1, 25284, Note_on_c, 0, 69, 78
1, 25296, Note_on_c, 0, 69, 0
1, 25296, Note_on_c, 0, 67, 77
1, 25296, Note_on_c, 1, 64, 74
1, 25296, Note_on_c, 1, 61, 74
1, 25343, Note_on_c, 1, 64, 0
1, 25343, Note_on_c, 1, 61, 0
1, 25344, Note_on_c, 1, 62, 74
1, 25389, Note_on_c, 0, 67, 0
1, 25389, Note_on_c, 1, 62, 0
1, 25392, Note_on_c, 0, 66, 75
1, 25392, Note_on_c, 1, 50, 74
1, 25437, Note_on_c, 0, 66, 0
1, 25437, Note_on_c, 1, 50, 0
1, 25440, Note_on_c, 0, 86, 74
1, 25452, Note_on_c, 0, 86, 0
1, 25452, Note_on_c, 0, 81, 74
1, 25464, Note_on_c, 0, 81, 0
1, 25464, Note_on_c, 0, 78, 74
1, 25476, Note_on_c, 0, 78, 0
1, 25476, Note_on_c, 0, 74, 74
1, 25488, Note_on_c, 0, 74, 0
1, 25488, Note_on_c, 0, 69, 74
1, 25488, Note_on_c, 1, 62, 74
1, 25488, Note_on_c, 1, 54, 74
1, 25533, Note_on_c, 0, 69, 0
1, 25536, Note_on_c, 0, 70, 74
1, 25536, Note_on_c, 1, 54, 0
1, 25536, Note_on_c, 1, 55, 78
1, 25560, Note_on_c, 0, 70, 0
1, 25560, Note_on_c, 0, 71, 74
1, 25581, Note_on_c, 1, 62, 0
1, 25583, Note_on_c, 0, 71, 0
1, 25584, Note_on_c, 0, 81, 74
1, 25584, Note_on_c, 1, 67, 74
1, 25596, Note_on_c, 0, 81, 0
1, 25596, Note_on_c, 0, 79, 74
1, 25608, Note_on_c, 0, 79, 0
1, 25608, Note_on_c, 0, 78, 74
1, 25620, Note_on_c, 0, 78, 0
1, 25620, Note_on_c, 0, 76, 74
1, 25625, Note_on_c, 1, 55, 0
1, 25629, Note_on_c, 1, 67, 0
1, 25632, Note_on_c, 0, 76, 0
1, 25632, Note_on_c, 0, 74, 74
1, 25632, Note_on_c, 1, 66, 74
1, 25632, Note_on_c, 1, 57, 78
1, 25677, Note_on_c, 0, 74, 0
1, 25677, Note_on_c, 1, 66, 0
1, 25680, Note_on_c, 0, 73, 74
1, 25680, Note_on_c, 1, 64, 74
1, 25687, Note_on_c, 0, 73, 0
1, 25687, Note_on_c, 0, 74, 74
1, 25694, Note_on_c, 0, 74, 0
1, 25694, Note_on_c, 0, 73, 74
1, 25701, Note_on_c, 0, 73, 0
1, 25701, Note_on_c, 0, 74, 74
1, 25708, Note_on_c, 0, 74, 0
1, 25708, Note_on_c, 0, 73, 74
1, 25715, Note_on_c, 0, 73, 0
1, 25715, Note_on_c, 0, 71, 74
1, 25721, Note_on_c, 1, 57, 0
1, 25722, Note_on_c, 0, 71, 0
1, 25722, Note_on_c, 0, 73, 74
1, 25725, Note_on_c, 1, 64, 0
1, 25728, Note_on_c, 0, 73, 0
1, 25728, Note_on_c, 0, 74, 74
1, 25728, Note_on_c, 1, 62, 74
1, 25773, Note_on_c, 0, 74, 0
1, 25773, Note_on_c, 1, 62, 0
1, 25776, Note_on_c, 0, 69, 63
1, 25824, Note_on_c, 1, 62, 74
1, 25847, Note_on_c, 0, 69, 0
1, 25848, Note_on_c, 0, 65, 63
1, 25871, Note_on_c, 0, 65, 0
1, 25872, Note_on_c, 0, 70, 63
1, 25895, Note_on_c, 0, 70, 0
1, 25896, Note_on_c, 0, 69, 63
1, 25913, Note_on_c, 1, 62, 0
1, 25919, Note_on_c, 0, 69, 0
1, 25920, Note_on_c, 0, 68, 63
1, 25920, Note_on_c, 1, 62, 74
1, 25943, Note_on_c, 1, 62, 0
1, 25944, Note_on_c, 1, 59, 74
1, 25967, Note_on_c, 1, 59, 0
1, 25968, Note_on_c, 1, 64, 74
1, 25991, Note_on_c, 1, 64, 0
1, 25992, Note_on_c, 1, 62, 74
1, 26015, Note_on_c, 1, 62, 0
1, 26016, Note_on_c, 0, 68, 0
1, 26016, Note_on_c, 0, 67, 63
1, 26016, Note_on_c, 1, 61, 74
1, 26039, Note_on_c, 0, 67, 0
1, 26040, Note_on_c, 0, 64, 63
1, 26063, Note_on_c, 0, 64, 0
1, 26064, Note_on_c, 0, 69, 63
1, 26087, Note_on_c, 0, 69, 0
1, 26088, Note_on_c, 0, 67, 63
1, 26111, Note_on_c, 0, 67, 0
1, 26112, Note_on_c, 0, 65, 63
1, 26135, Note_on_c, 1, 61, 0
1, 26136, Note_on_c, 1, 57, 74
1, 26159, Note_on_c, 1, 57, 0
1, 26160, Note_on_c, 1, 62, 74
1, 26183, Note_on_c, 1, 62, 0
1, 26184, Note_on_c, 1, 60, 74
1, 26207, Note_on_c, 1, 60, 0
1, 26208, Note_on_c, 1, 58, 74
1, 26231, Note_on_c, 0, 65, 0
1, 26232, Note_on_c, 0, 62, 63
1, 26255, Note_on_c, 0, 62, 0
1, 26256, Note_on_c, 0, 74, 63
1, 26279, Note_on_c, 0, 74, 0
1, 26280, Note_on_c, 0, 68, 63
1, 26297, Note_on_c, 1, 58, 0
1, 26303, Note_on_c, 0, 68, 0
1, 26304, Note_on_c, 0, 69, 63
1, 26328, Note_on_c, 1, 45, 74
1, 26351, Note_on_c, 1, 45, 0
1, 26352, Note_on_c, 1, 57, 74
1, 26375, Note_on_c, 1, 57, 0
1, 26376, Note_on_c, 1, 55, 74
1, 26399, Note_on_c, 1, 55, 0
1, 26400, Note_on_c, 1, 53, 69
1, 26423, Note_on_c, 0, 69, 0
1, 26424, Note_on_c, 0, 62, 69
1, 26445, Note_on_c, 1, 53, 0
1, 26447, Note_on_c, 0, 62, 0
1, 26448, Note_on_c, 0, 74, 69
1, 26448, Note_on_c, 1, 58, 69
1, 26448, Note_on_c, 1, 46, 69
1, 26471, Note_on_c, 0, 74, 0
1, 26472, Note_on_c, 0, 68, 69
1, 26493, Note_on_c, 1, 58, 0
1, 26493, Note_on_c, 1, 46, 0
1, 26495, Note_on_c, 0, 68, 0
1, 26496, Note_on_c, 0, 71, 69
1, 26496, Note_on_c, 1, 57, 69
1, 26496, Note_on_c, 1, 45, 69
1, 26502, Note_on_c, 0, 71, 0
1, 26502, Note_on_c, 0, 69, 69
1, 26508, Note_on_c, 0, 69, 0
1, 26508, Note_on_c, 0, 68, 69
1, 26514, Note_on_c, 0, 68, 0
1, 26514, Note_on_c, 0, 69, 69
1, 26585, Note_on_c, 0, 69, 0
1, 26585, Note_on_c, 1, 57, 0
1, 26585, Note_on_c, 1, 45, 0
1, 26592, Note_on_c, 0, 69, 74
1, 26607, Note_on_c, 0, 69, 0
1, 26608, Note_on_c, 0, 81, 74
1, 26608, Note_on_c, 0, 78, 74
1, 26623, Note_on_c, 0, 81, 0
1, 26623, Note_on_c, 0, 78, 0
1, 26624, Note_on_c, 0, 81, 74
1, 26624, Note_on_c, 0, 78, 74
1, 26639, Note_on_c, 0, 81, 0
1, 26639, Note_on_c, 0, 78, 0
1, 26640, Note_on_c, 0, 81, 74
1, 26640, Note_on_c, 0, 78, 74
1, 26640, Note_on_c, 1, 63, 69
1, 26655, Note_on_c, 0, 81, 0
1, 26655, Note_on_c, 0, 78, 0
1, 26656, Note_on_c, 0, 81, 74
1, 26656, Note_on_c, 0, 78, 74
1, 26671, Note_on_c, 0, 81, 0
1, 26671, Note_on_c, 0, 78, 0
1, 26672, Note_on_c, 0, 81, 74
1, 26672, Note_on_c, 0, 78, 74
1, 26685, Note_on_c, 1, 63, 0
1, 26687, Note_on_c, 0, 81, 0
1, 26687, Note_on_c, 0, 78, 0
1, 26688, Note_on_c, 0, 81, 74
1, 26688, Note_on_c, 0, 78, 74
1, 26688, Note_on_c, 1, 64, 69
1, 26733, Note_on_c, 1, 64, 0
1, 26736, Note_on_c, 0, 81, 0
1, 26736, Note_on_c, 0, 78, 0
1, 26736, Note_on_c, 0, 80, 74
1, 26736, Note_on_c, 0, 76, 74
1, 26736, Note_on_c, 1, 52, 69
1, 26781, Note_on_c, 0, 80, 0
1, 26781, Note_on_c, 0, 76, 0
1, 26781, Note_on_c, 1, 52, 0
1, 26784, Note_on_c, 0, 69, 74
1, 26799, Note_on_c, 0, 69, 0
1, 26800, Note_on_c, 0, 79, 74
1, 26800, Note_on_c, 0, 76, 74
1, 26815, Note_on_c, 0, 79, 0
1, 26815, Note_on_c, 0, 76, 0
1, 26816, Note_on_c, 0, 79, 74
1, 26816, Note_on_c, 0, 76, 74
1, 26831, Note_on_c, 0, 79, 0
1, 26831, Note_on_c, 0, 76, 0
1, 26832, Note_on_c, 0, 79, 74
1, 26832, Note_on_c, 0, 76, 74
1, 26832, Note_on_c, 1, 61, 69
1, 26847, Note_on_c, 0, 79, 0
1, 26847, Note_on_c, 0, 76, 0
1, 26848, Note_on_c, 0, 79, 74
1, 26848, Note_on_c, 0, 76, 74
1, 26863, Note_on_c, 0, 79, 0
1, 26863, Note_on_c, 0, 76, 0
1, 26864, Note_on_c, 0, 79, 74
1, 26864, Note_on_c, 0, 76, 74
1, 26877, Note_on_c, 1, 61, 0
1, 26879, Note_on_c, 0, 79, 0
1, 26879, Note_on_c, 0, 76, 0
1, 26880, Note_on_c, 0, 79, 74
1, 26880, Note_on_c, 0, 76, 74
1, 26880, Note_on_c, 1, 62, 69
1, 26925, Note_on_c, 1, 62, 0
1, 26928, Note_on_c, 0, 79, 0
1, 26928, Note_on_c, 0, 76, 0
1, 26928, Note_on_c, 0, 78, 74
1, 26928, Note_on_c, 0, 74, 74
1, 26928, Note_on_c, 1, 50, 69
1, 26973, Note_on_c, 0, 78, 0
1, 26973, Note_on_c, 0, 74, 0
1, 26973, Note_on_c, 1, 50, 0
1, 26976, Note_on_c, 0, 74, 74
1, 26988, Note_on_c, 0, 74, 0
1, 26988, Note_on_c, 0, 76, 74
1, 27000, Note_on_c, 0, 76, 0
1, 27000, Note_on_c, 0, 78, 74
1, 27012, Note_on_c, 0, 78, 0
1, 27012, Note_on_c, 0, 79, 75
1, 27024, Note_on_c, 0, 79, 0
1, 27024, Note_on_c, 0, 81, 75
1, 27024, Note_on_c, 1, 62, 69
1, 27024, Note_on_c, 1, 54, 69
1, 27036, Note_on_c, 0, 81, 0
1, 27036, Note_on_c, 0, 83, 75
1, 27048, Note_on_c, 0, 83, 0
1, 27048, Note_on_c, 0, 85, 76
1, 27060, Note_on_c, 0, 85, 0
1, 27060, Note_on_c, 0, 86, 76
1, 27069, Note_on_c, 1, 62, 0
1, 27069, Note_on_c, 1, 54, 0
1, 27072, Note_on_c, 0, 86, 0
1, 27072, Note_on_c, 0, 76, 76
1, 27072, Note_on_c, 1, 62, 69
1, 27072, Note_on_c, 1, 55, 78
1, 27117, Note_on_c, 0, 76, 0
1, 27120, Note_on_c, 0, 85, 78
1, 27132, Note_on_c, 0, 85, 0
1, 27132, Note_on_c, 0, 83, 77
1, 27144, Note_on_c, 0, 83, 0
1, 27144, Note_on_c, 0, 81, 77
1, 27156, Note_on_c, 0, 81, 0
1, 27156, Note_on_c, 0, 79, 76
1, 27161, Note_on_c, 1, 62, 0
1, 27161, Note_on_c, 1, 55, 0
1, 27168, Note_on_c, 0, 79, 0
1, 27168, Note_on_c, 0, 78, 76
1, 27168, Note_on_c, 1, 62, 69
1, 27168, Note_on_c, 1, 57, 78
1, 27213, Note_on_c, 0, 78, 0
1, 27213, Note_on_c, 1, 62, 0
1, 27216, Note_on_c, 0, 76, 74
1, 27216, Note_on_c, 1, 61, 69
1, 27223, Note_on_c, 0, 76, 0
1, 27223, Note_on_c, 0, 78, 74
1, 27230, Note_on_c, 0, 78, 0
1, 27230, Note_on_c, 0, 76, 74
1, 27237, Note_on_c, 0, 76, 0
1, 27237, Note_on_c, 0, 78, 74
1, 27244, Note_on_c, 0, 78, 0
1, 27244, Note_on_c, 0, 76, 74
1, 27251, Note_on_c, 0, 76, 0
1, 27251, Note_on_c, 0, 74, 74
1, 27257, Note_on_c, 1, 57, 0
1, 27258, Note_on_c, 0, 74, 0
1, 27258, Note_on_c, 0, 76, 74
1, 27261, Note_on_c, 1, 61, 0
1, 27264, Note_on_c, 0, 76, 0
1, 27264, Note_on_c, 0, 74, 74
1, 27264, Note_on_c, 1, 62, 69
1, 27309, Note_on_c, 1, 62, 0
1, 27312, Note_on_c, 1, 50, 69
1, 27353, Note_on_c, 0, 74, 0
1, 27357, Note_on_c, 1, 50, 0
1, 27360, Note_on_c, 0, 57, 74
1, 27375, Note_on_c, 0, 57, 0
1, 27376, Note_on_c, 0, 69, 74
1, 27376, Note_on_c, 0, 66, 74
1, 27391, Note_on_c, 0, 69, 0
1, 27391, Note_on_c, 0, 66, 0
1, 27392, Note_on_c, 0, 69, 74
1, 27392, Note_on_c, 0, 66, 74
1, 27407, Note_on_c, 0, 69, 0
1, 27407, Note_on_c, 0, 66, 0
1, 27408, Note_on_c, 0, 69, 74
1, 27408, Note_on_c, 0, 66, 74
1, 27408, Note_on_c, 1, 51, 69
1, 27423, Note_on_c, 0, 69, 0
1, 27423, Note_on_c, 0, 66, 0
1, 27424, Note_on_c, 0, 69, 74
1, 27424, Note_on_c, 0, 66, 74
1, 27439, Note_on_c, 0, 69, 0
1, 27439, Note_on_c, 0, 66, 0
1, 27440, Note_on_c, 0, 69, 74
1, 27440, Note_on_c, 0, 66, 74
1, 27453, Note_on_c, 1, 51, 0
1, 27455, Note_on_c, 0, 69, 0
1, 27455, Note_on_c, 0, 66, 0
1, 27456, Note_on_c, 0, 69, 74
1, 27456, Note_on_c, 0, 66, 74
1, 27456, Note_on_c, 1, 52, 69
1, 27501, Note_on_c, 1, 52, 0
1, 27504, Note_on_c, 0, 69, 0
1, 27504, Note_on_c, 0, 66, 0
1, 27504, Note_on_c, 0, 68, 74
1, 27504, Note_on_c, 0, 64, 74
1, 27504, Note_on_c, 1, 40, 69
1, 27549, Note_on_c, 0, 68, 0
1, 27549, Note_on_c, 0, 64, 0
1, 27549, Note_on_c, 1, 40, 0
1, 27552, Note_on_c, 0, 57, 74
1, 27567, Note_on_c, 0, 57, 0
1, 27568, Note_on_c, 0, 67, 74
1, 27568, Note_on_c, 0, 64, 74
1, 27583, Note_on_c, 0, 67, 0
1, 27583, Note_on_c, 0, 64, 0
1, 27584, Note_on_c, 0, 67, 74
1, 27584, Note_on_c, 0, 64, 74
1, 27599, Note_on_c, 0, 67, 0
1, 27599, Note_on_c, 0, 64, 0
1, 27600, Note_on_c, 0, 67, 74
1, 27600, Note_on_c, 0, 64, 74
1, 27600, Note_on_c, 1, 49, 69
1, 27615, Note_on_c, 0, 67, 0
1, 27615, Note_on_c, 0, 64, 0
1, 27616, Note_on_c, 0, 67, 74
1, 27616, Note_on_c, 0, 64, 74
1, 27631, Note_on_c, 0, 67, 0
1, 27631, Note_on_c, 0, 64, 0
1, 27632, Note_on_c, 0, 67, 74
1, 27632, Note_on_c, 0, 64, 74
1, 27645, Note_on_c, 1, 49, 0
1, 27647, Note_on_c, 0, 67, 0
1, 27647, Note_on_c, 0, 64, 0
1, 27648, Note_on_c, 0, 67, 74
1, 27648, Note_on_c, 0, 64, 74
1, 27648, Note_on_c, 1, 50, 69
1, 27693, Note_on_c, 1, 50, 0
1, 27696, Note_on_c, 0, 67, 0
1, 27696, Note_on_c, 0, 64, 0
1, 27696, Note_on_c, 0, 66, 74
1, 27696, Note_on_c, 0, 62, 74
1, 27696, Note_on_c, 1, 38, 69
1, 27741, Note_on_c, 0, 66, 0
1, 27741, Note_on_c, 0, 62, 0
1, 27741, Note_on_c, 1, 38, 0
1, 27744, Note_on_c, 0, 62, 74
1, 27756, Note_on_c, 0, 62, 0
1, 27756, Note_on_c, 0, 64, 74
1, 27768, Note_on_c, 0, 64, 0
1, 27768, Note_on_c, 0, 66, 74
1, 27780, Note_on_c, 0, 66, 0
1, 27780, Note_on_c, 0, 67, 75
1, 27792, Note_on_c, 0, 67, 0
1, 27792, Note_on_c, 0, 69, 75
1, 27792, Note_on_c, 1, 50, 69
1, 27792, Note_on_c, 1, 42, 69
1, 27804, Note_on_c, 0, 69, 0
1, 27804, Note_on_c, 0, 71, 75
1, 27816, Note_on_c, 0, 71, 0
1, 27816, Note_on_c, 0, 73, 76
1, 27828, Note_on_c, 0, 73, 0
1, 27828, Note_on_c, 0, 74, 76
1, 27837, Note_on_c, 1, 50, 0
1, 27837, Note_on_c, 1, 42, 0
1, 27840, Note_on_c, 0, 74, 0
1, 27840, Note_on_c, 0, 73, 76
1, 27840, Note_on_c, 1, 50, 69
1, 27840, Note_on_c, 1, 43, 78
1, 27848, Note_on_c, 0, 73, 0
1, 27848, Note_on_c, 0, 71, 77
1, 27856, Note_on_c, 0, 71, 0
1, 27856, Note_on_c, 0, 73, 77
1, 27864, Note_on_c, 0, 73, 0
1, 27864, Note_on_c, 0, 71, 77
1, 27872, Note_on_c, 0, 71, 0
1, 27872, Note_on_c, 0, 73, 77
1, 27880, Note_on_c, 0, 73, 0
1, 27880, Note_on_c, 0, 71, 77
1, 27888, Note_on_c, 0, 71, 0
1, 27888, Note_on_c, 0, 73, 78
1, 27896, Note_on_c, 0, 73, 0
1, 27896, Note_on_c, 0, 71, 77
1, 27904, Note_on_c, 0, 71, 0
1, 27904, Note_on_c, 0, 73, 77
1, 27912, Note_on_c, 0, 73, 0
1, 27912, Note_on_c, 0, 71, 77
1, 27920, Note_on_c, 0, 71, 0
1, 27920, Note_on_c, 0, 69, 77
1, 27928, Note_on_c, 0, 69, 0
1, 27928, Note_on_c, 0, 67, 77
1, 27929, Note_on_c, 1, 50, 0
1, 27929, Note_on_c, 1, 43, 0
1, 27936, Note_on_c, 0, 67, 0
1, 27936, Note_on_c, 0, 66, 76
1, 27936, Note_on_c, 1, 50, 69
1, 27936, Note_on_c, 1, 45, 78
1, 27981, Note_on_c, 0, 66, 0
1, 27981, Note_on_c, 1, 50, 0
1, 27984, Note_on_c, 0, 64, 75
1, 27984, Note_on_c, 1, 49, 69
1, 27991, Note_on_c, 0, 64, 0
1, 27991, Note_on_c, 0, 66, 75
1, 27998, Note_on_c, 0, 66, 0
1, 27998, Note_on_c, 0, 64, 75
1, 28005, Note_on_c, 0, 64, 0
1, 28005, Note_on_c, 0, 66, 75
1, 28012, Note_on_c, 0, 66, 0
1, 28012, Note_on_c, 0, 64, 74
1, 28019, Note_on_c, 0, 64, 0
1, 28019, Note_on_c, 0, 62, 74
1, 28025, Note_on_c, 1, 45, 0
1, 28026, Note_on_c, 0, 62, 0
1, 28026, Note_on_c, 0, 64, 74
1, 28029, Note_on_c, 1, 49, 0
1, 28032, Note_on_c, 0, 64, 0
1, 28032, Note_on_c, 0, 62, 74
1, 28032, Note_on_c, 1, 50, 69
1, 28032, Note_on_c, 1, 50, 78
1, 28077, Note_on_c, 1, 50, 0
1, 28080, Note_on_c, 1, 45, 78
1, 28121, Note_on_c, 0, 62, 0
1, 28121, Note_on_c, 1, 50, 0
1, 28125, Note_on_c, 1, 45, 0
1, 28128, Note_on_c, 1, 38, 78
1, 28173, Note_on_c, 1, 38, 0
1, 28200, Note_on_c, 0, 69, 74
1, 28223, Note_on_c, 0, 69, 0
1, 28224, Note_on_c, 0, 73, 74
1, 28224, Note_on_c, 1, 57, 74
1, 28269, Note_on_c, 1, 57, 0
1, 28272, Note_on_c, 1, 64, 74
1, 28291, Note_on_c, 0, 73, 0
1, 28296, Note_on_c, 0, 71, 74
1, 28317, Note_on_c, 1, 64, 0
1, 28319, Note_on_c, 0, 71, 0
1, 28320, Note_on_c, 0, 74, 75
1, 28320, Note_on_c, 1, 59, 74
1, 28365, Note_on_c, 1, 59, 0
1, 28368, Note_on_c, 1, 64, 74
1, 28387, Note_on_c, 0, 74, 0
1, 28392, Note_on_c, 0, 68, 75
1, 28413, Note_on_c, 1, 64, 0
1, 28415, Note_on_c, 0, 68, 0
1, 28416, Note_on_c, 0, 69, 92
1, 28416, Note_on_c, 1, 61, 74
1, 28461, Note_on_c, 1, 61, 0
1, 28464, Note_on_c, 1, 64, 74
1, 28488, Note_on_c, 0, 69, 0
1, 28488, Note_on_c, 0, 73, 76
1, 28500, Note_on_c, 0, 73, 0
1, 28500, Note_on_c, 0, 71, 76
1, 28509, Note_on_c, 1, 64, 0
1, 28512, Note_on_c, 0, 71, 0
1, 28512, Note_on_c, 0, 69, 77
1, 28546, Note_on_c, 0, 69, 0
1, 28548, Note_on_c, 0, 69, 77
1, 28560, Note_on_c, 0, 69, 0
1, 28560, Note_on_c, 0, 81, 77
1, 28560, Note_on_c, 1, 61, 74
1, 28594, Note_on_c, 0, 81, 0
1, 28596, Note_on_c, 0, 80, 78
1, 28605, Note_on_c, 1, 61, 0
1, 28608, Note_on_c, 0, 80, 0
1, 28608, Note_on_c, 0, 78, 77
1, 28608, Note_on_c, 1, 62, 74
1, 28642, Note_on_c, 0, 78, 0
1, 28644, Note_on_c, 0, 68, 77
1, 28653, Note_on_c, 1, 62, 0
1, 28656, Note_on_c, 0, 68, 0
1, 28656, Note_on_c, 0, 69, 76
1, 28656, Note_on_c, 1, 61, 74
1, 28690, Note_on_c, 0, 69, 0
1, 28692, Note_on_c, 0, 76, 76
1, 28701, Note_on_c, 1, 61, 0
1, 28704, Note_on_c, 0, 76, 0
1, 28704, Note_on_c, 0, 76, 75
1, 28704, Note_on_c, 1, 59, 74
1, 28749, Note_on_c, 0, 76, 0
1, 28749, Note_on_c, 1, 59, 0
1, 28752, Note_on_c, 0, 74, 74
1, 28752, Note_on_c, 1, 68, 74
1, 28759, Note_on_c, 0, 74, 0
1, 28759, Note_on_c, 0, 76, 74
1, 28766, Note_on_c, 0, 76, 0
1, 28766, Note_on_c, 0, 74, 74
1, 28773, Note_on_c, 0, 74, 0
1, 28773, Note_on_c, 0, 76, 74
1, 28780, Note_on_c, 0, 76, 0
1, 28780, Note_on_c, 0, 74, 74
1, 28787, Note_on_c, 0, 74, 0
1, 28787, Note_on_c, 0, 73, 74
1, 28794, Note_on_c, 0, 73, 0
1, 28794, Note_on_c, 0, 74, 74
1, 28797, Note_on_c, 1, 68, 0
1, 28800, Note_on_c, 0, 74, 0
1, 28800, Note_on_c, 0, 74, 74
1, 28800, Note_on_c, 1, 69, 74
1, 28845, Note_on_c, 1, 69, 0
1, 28848, Note_on_c, 0, 74, 0
1, 28848, Note_on_c, 0, 73, 74
1, 28848, Note_on_c, 1, 64, 74
1, 28882, Note_on_c, 1, 64, 0
1, 28884, Note_on_c, 1, 61, 74
1, 28893, Note_on_c, 0, 73, 0
1, 28896, Note_on_c, 1, 61, 0
1, 28896, Note_on_c, 1, 57, 74
1, 28968, Note_on_c, 0, 69, 74
1, 28985, Note_on_c, 1, 57, 0
1, 28991, Note_on_c, 0, 69, 0
1, 28992, Note_on_c, 0, 73, 74
1, 28992, Note_on_c, 1, 57, 74
1, 29037, Note_on_c, 1, 57, 0
1, 29040, Note_on_c, 1, 64, 74
1, 29059, Note_on_c, 0, 73, 0
1, 29064, Note_on_c, 0, 71, 74
1, 29085, Note_on_c, 1, 64, 0
1, 29087, Note_on_c, 0, 71, 0
1, 29088, Note_on_c, 0, 74, 75
1, 29088, Note_on_c, 1, 59, 74
1, 29133, Note_on_c, 1, 59, 0
1, 29136, Note_on_c, 1, 64, 74
1, 29155, Note_on_c, 0, 74, 0
1, 29160, Note_on_c, 0, 68, 76
1, 29181, Note_on_c, 1, 64, 0
1, 29183, Note_on_c, 0, 68, 0
1, 29184, Note_on_c, 0, 69, 92
1, 29184, Note_on_c, 1, 61, 74
1, 29229, Note_on_c, 1, 61, 0
1, 29232, Note_on_c, 1, 64, 74
1, 29256, Note_on_c, 0, 69, 0
1, 29256, Note_on_c, 0, 73, 77
1, 29268, Note_on_c, 0, 73, 0
1, 29268, Note_on_c, 0, 71, 77
1, 29277, Note_on_c, 1, 64, 0
1, 29280, Note_on_c, 0, 71, 0
1, 29280, Note_on_c, 0, 69, 77
1, 29314, Note_on_c, 0, 69, 0
1, 29316, Note_on_c, 0, 69, 77
1, 29328, Note_on_c, 0, 69, 0
1, 29328, Note_on_c, 0, 81, 78
1, 29328, Note_on_c, 1, 61, 74
1, 29362, Note_on_c, 0, 81, 0
1, 29364, Note_on_c, 0, 80, 77
1, 29373, Note_on_c, 1, 61, 0
1, 29376, Note_on_c, 0, 80, 0
1, 29376, Note_on_c, 0, 80, 77
1, 29376, Note_on_c, 1, 62, 74
1, 29410, Note_on_c, 0, 80, 0
1, 29412, Note_on_c, 0, 78, 76
1, 29421, Note_on_c, 1, 62, 0
1, 29424, Note_on_c, 0, 78, 0
1, 29424, Note_on_c, 0, 78, 76
1, 29424, Note_on_c, 1, 61, 74
1, 29458, Note_on_c, 0, 78, 0
1, 29460, Note_on_c, 0, 76, 75
1, 29469, Note_on_c, 1, 61, 0
1, 29472, Note_on_c, 0, 76, 0
1, 29472, Note_on_c, 0, 76, 75
1, 29472, Note_on_c, 1, 59, 74
1, 29506, Note_on_c, 0, 76, 0
1, 29508, Note_on_c, 0, 74, 75
1, 29517, Note_on_c, 1, 59, 0
1, 29520, Note_on_c, 0, 74, 0
1, 29520, Note_on_c, 0, 74, 74
1, 29520, Note_on_c, 1, 57, 74
1, 29554, Note_on_c, 0, 74, 0
1, 29556, Note_on_c, 0, 73, 74
1, 29565, Note_on_c, 1, 57, 0
1, 29568, Note_on_c, 0, 73, 0
1, 29568, Note_on_c, 0, 73, 74
1, 29568, Note_on_c, 1, 64, 74
1, 29613, Note_on_c, 1, 64, 0
1, 29616, Note_on_c, 0, 73, 0
1, 29616, Note_on_c, 0, 71, 74
1, 29616, Note_on_c, 1, 59, 74
1, 29650, Note_on_c, 1, 59, 0
1, 29652, Note_on_c, 1, 56, 74
1, 29661, Note_on_c, 0, 71, 0
1, 29664, Note_on_c, 1, 56, 0
1, 29664, Note_on_c, 1, 52, 74
1, 29753, Note_on_c, 1, 52, 0
1, 29760, Note_on_c, 0, 78, 74
1, 29766, Note_on_c, 0, 78, 0
1, 29766, Note_on_c, 0, 76, 74
1, 29772, Note_on_c, 0, 76, 0
1, 29772, Note_on_c, 0, 75, 74
1, 29778, Note_on_c, 0, 75, 0
1, 29778, Note_on_c, 0, 76, 74
1, 29808, Note_on_c, 1, 64, 69
1, 29842, Note_on_c, 1, 64, 0
1, 29844, Note_on_c, 1, 66, 69
1, 29856, Note_on_c, 1, 66, 0
1, 29856, Note_on_c, 1, 67, 69
1, 29879, Note_on_c, 0, 76, 0
1, 29880, Note_on_c, 0, 76, 76
1, 29892, Note_on_c, 0, 76, 0
1, 29892, Note_on_c, 0, 78, 77
1, 29901, Note_on_c, 1, 67, 0
1, 29904, Note_on_c, 0, 78, 0
1, 29904, Note_on_c, 0, 79, 78
1, 29916, Note_on_c, 0, 79, 0
1, 29916, Note_on_c, 0, 78, 77
1, 29928, Note_on_c, 0, 78, 0
1, 29928, Note_on_c, 0, 76, 76
1, 29940, Note_on_c, 0, 76, 0
1, 29940, Note_on_c, 0, 74, 75
1, 29952, Note_on_c, 0, 74, 0
1, 29952, Note_on_c, 0, 73, 74
1, 30000, Note_on_c, 1, 64, 69
1, 30034, Note_on_c, 1, 64, 0
1, 30036, Note_on_c, 1, 66, 69
1, 30048, Note_on_c, 1, 66, 0
1, 30048, Note_on_c, 1, 67, 69
1, 30071, Note_on_c, 0, 73, 0
1, 30072, Note_on_c, 0, 73, 76
1, 30084, Note_on_c, 0, 73, 0
1, 30084, Note_on_c, 0, 74, 77
1, 30093, Note_on_c, 1, 67, 0
1, 30096, Note_on_c, 0, 74, 0
1, 30096, Note_on_c, 0, 76, 78
1, 30108, Note_on_c, 0, 76, 0
1, 30108, Note_on_c, 0, 74, 77
1, 30120, Note_on_c, 0, 74, 0
1, 30120, Note_on_c, 0, 73, 76
1, 30132, Note_on_c, 0, 73, 0
1, 30132, Note_on_c, 0, 71, 75
1, 30144, Note_on_c, 0, 71, 0
1, 30144, Note_on_c, 0, 70, 74
1, 30192, Note_on_c, 1, 64, 69
1, 30226, Note_on_c, 1, 64, 0
1, 30228, Note_on_c, 1, 66, 69
1, 30240, Note_on_c, 1, 66, 0
1, 30240, Note_on_c, 1, 67, 69
1, 30255, Note_on_c, 0, 70, 0
1, 30256, Note_on_c, 0, 73, 75
1, 30271, Note_on_c, 0, 73, 0
1, 30272, Note_on_c, 0, 76, 76
1, 30285, Note_on_c, 1, 67, 0
1, 30287, Note_on_c, 0, 76, 0
1, 30288, Note_on_c, 0, 79, 77
1, 30303, Note_on_c, 0, 79, 0
1, 30304, Note_on_c, 0, 76, 78
1, 30319, Note_on_c, 0, 76, 0
1, 30320, Note_on_c, 0, 73, 77
1, 30335, Note_on_c, 0, 73, 0
1, 30336, Note_on_c, 0, 70, 74
1, 30384, Note_on_c, 1, 64, 69
1, 30418, Note_on_c, 1, 64, 0
1, 30420, Note_on_c, 1, 66, 69
1, 30432, Note_on_c, 1, 66, 0
1, 30432, Note_on_c, 1, 67, 69
1, 30447, Note_on_c, 0, 70, 0
1, 30448, Note_on_c, 0, 70, 75
1, 30463, Note_on_c, 0, 70, 0
1, 30464, Note_on_c, 0, 73, 76
1, 30477, Note_on_c, 1, 67, 0
1, 30479, Note_on_c, 0, 73, 0
1, 30480, Note_on_c, 0, 76, 77
1, 30495, Note_on_c, 0, 76, 0
1, 30496, Note_on_c, 0, 73, 78
1, 30511, Note_on_c, 0, 73, 0
1, 30512, Note_on_c, 0, 70, 77
1, 30527, Note_on_c, 0, 70, 0
1, 30528, Note_on_c, 0, 71, 78
1, 30528, Note_on_c, 1, 62, 78
1, 30551, Note_on_c, 0, 71, 0
1, 30552, Note_on_c, 0, 78, 77
1, 30575, Note_on_c, 0, 78, 0
1, 30576, Note_on_c, 0, 74, 77
1, 30576, Note_on_c, 1, 71, 77
1, 30599, Note_on_c, 0, 74, 0
1, 30600, Note_on_c, 0, 78, 76
1, 30621, Note_on_c, 1, 71, 0
1, 30623, Note_on_c, 0, 78, 0
1, 30624, Note_on_c, 0, 83, 92
1, 30624, Note_on_c, 1, 66, 76
1, 30640, Note_on_c, 0, 83, 0
1, 30640, Note_on_c, 0, 74, 76
1, 30655, Note_on_c, 0, 74, 0
1, 30656, Note_on_c, 0, 76, 76
1, 30669, Note_on_c, 1, 66, 0
1, 30671, Note_on_c, 0, 76, 0
1, 30672, Note_on_c, 0, 78, 76
1, 30672, Note_on_c, 1, 71, 75
1, 30687, Note_on_c, 0, 78, 0
1, 30688, Note_on_c, 0, 76, 75
1, 30703, Note_on_c, 0, 76, 0
1, 30704, Note_on_c, 0, 74, 75
1, 30705, Note_on_c, 1, 62, 0
1, 30717, Note_on_c, 1, 71, 0
1, 30719, Note_on_c, 0, 74, 0
1, 30720, Note_on_c, 1, 64, 75
1, 30744, Note_on_c, 0, 79, 75
1, 30767, Note_on_c, 0, 79, 0
1, 30768, Note_on_c, 0, 76, 74
1, 30768, Note_on_c, 1, 71, 74
1, 30791, Note_on_c, 0, 76, 0
1, 30792, Note_on_c, 0, 79, 74
1, 30813, Note_on_c, 1, 71, 0
1, 30815, Note_on_c, 0, 79, 0
1, 30816, Note_on_c, 0, 83, 90
1, 30816, Note_on_c, 1, 67, 73
1, 30832, Note_on_c, 0, 83, 0
1, 30832, Note_on_c, 0, 76, 73
1, 30847, Note_on_c, 0, 76, 0
1, 30848, Note_on_c, 0, 78, 73
1, 30861, Note_on_c, 1, 67, 0
1, 30863, Note_on_c, 0, 78, 0
1, 30864, Note_on_c, 0, 79, 73
1, 30864, Note_on_c, 1, 71, 73
1, 30879, Note_on_c, 0, 79, 0
1, 30880, Note_on_c, 0, 78, 73
1, 30895, Note_on_c, 0, 78, 0
1, 30896, Note_on_c, 0, 76, 73
1, 30897, Note_on_c, 1, 64, 0
1, 30909, Note_on_c, 1, 71, 0
1, 30911, Note_on_c, 0, 76, 0
1, 30912, Note_on_c, 1, 61, 73
1, 30936, Note_on_c, 0, 76, 72
1, 30959, Note_on_c, 0, 76, 0
1, 30960, Note_on_c, 0, 73, 72
1, 30960, Note_on_c, 1, 69, 71
1, 30983, Note_on_c, 0, 73, 0
1, 30984, Note_on_c, 0, 76, 71
1, 31005, Note_on_c, 1, 69, 0
1, 31007, Note_on_c, 0, 76, 0
1, 31008, Note_on_c, 0, 81, 87
1, 31008, Note_on_c, 1, 64, 70
1, 31024, Note_on_c, 0, 81, 0
1, 31024, Note_on_c, 0, 73, 71
1, 31039, Note_on_c, 0, 73, 0
1, 31040, Note_on_c, 0, 74, 71
1, 31053, Note_on_c, 1, 64, 0
1, 31055, Note_on_c, 0, 74, 0
1, 31056, Note_on_c, 0, 76, 71
1, 31056, Note_on_c, 1, 69, 70
1, 31071, Note_on_c, 0, 76, 0
1, 31072, Note_on_c, 0, 74, 70
1, 31087, Note_on_c, 0, 74, 0
1, 31088, Note_on_c, 0, 73, 70
1, 31089, Note_on_c, 1, 61, 0
1, 31101, Note_on_c, 1, 69, 0
1, 31103, Note_on_c, 0, 73, 0
1, 31104, Note_on_c, 1, 62, 70
1, 31128, Note_on_c, 0, 78, 70
1, 31151, Note_on_c, 0, 78, 0
1, 31152, Note_on_c, 0, 74, 69
1, 31152, Note_on_c, 1, 69, 68
1, 31175, Note_on_c, 0, 74, 0
1, 31176, Note_on_c, 0, 78, 69
1, 31197, Note_on_c, 1, 69, 0
1, 31199, Note_on_c, 0, 78, 0
1, 31200, Note_on_c, 0, 81, 85
1, 31200, Note_on_c, 1, 66, 68
1, 31216, Note_on_c, 0, 81, 0
1, 31216, Note_on_c, 0, 74, 68
1, 31231, Note_on_c, 0, 74, 0
1, 31232, Note_on_c, 0, 76, 68
1, 31245, Note_on_c, 1, 66, 0
1, 31247, Note_on_c, 0, 76, 0
1, 31248, Note_on_c, 0, 78, 68
1, 31248, Note_on_c, 1, 69, 67
1, 31263, Note_on_c, 0, 78, 0
1, 31264, Note_on_c, 0, 76, 68
1, 31279, Note_on_c, 0, 76, 0
1, 31280, Note_on_c, 0, 74, 68
1, 31281, Note_on_c, 1, 62, 0
1, 31293, Note_on_c, 1, 69, 0
1, 31295, Note_on_c, 0, 74, 0
1, 31296, Note_on_c, 1, 59, 68
1, 31320, Note_on_c, 0, 74, 67
1, 31343, Note_on_c, 0, 74, 0
1, 31344, Note_on_c, 0, 71, 67
1, 31344, Note_on_c, 1, 67, 65
1, 31367, Note_on_c, 0, 71, 0
1, 31368, Note_on_c, 0, 74, 66
1, 31389, Note_on_c, 1, 67, 0
1, 31391, Note_on_c, 0, 74, 0
1, 31392, Note_on_c, 0, 79, 82
1, 31392, Note_on_c, 1, 62, 65
1, 31408, Note_on_c, 0, 79, 0
1, 31408, Note_on_c, 0, 71, 66
1, 31423, Note_on_c, 0, 71, 0
1, 31424, Note_on_c, 0, 73, 66
1, 31437, Note_on_c, 1, 62, 0
1, 31439, Note_on_c, 0, 73, 0
1, 31440, Note_on_c, 0, 74, 66
1, 31440, Note_on_c, 1, 67, 64
1, 31455, Note_on_c, 0, 74, 0
1, 31456, Note_on_c, 0, 73, 65
1, 31471, Note_on_c, 0, 73, 0
1, 31472, Note_on_c, 0, 71, 65
1, 31473, Note_on_c, 1, 59, 0
1, 31485, Note_on_c, 1, 67, 0
1, 31487, Note_on_c, 0, 71, 0
1, 31488, Note_on_c, 1, 61, 65
1, 31512, Note_on_c, 0, 76, 65
1, 31535, Note_on_c, 0, 76, 0
1, 31536, Note_on_c, 0, 73, 64
1, 31536, Note_on_c, 1, 67, 63
1, 31559, Note_on_c, 0, 73, 0
1, 31560, Note_on_c, 0, 76, 64
1, 31581, Note_on_c, 1, 67, 0
1, 31583, Note_on_c, 0, 76, 0
1, 31584, Note_on_c, 0, 79, 80
1, 31584, Note_on_c, 1, 64, 63
1, 31600, Note_on_c, 0, 79, 0
1, 31600, Note_on_c, 0, 73, 63
1, 31615, Note_on_c, 0, 73, 0
1, 31616, Note_on_c, 0, 74, 63
1, 31629, Note_on_c, 1, 64, 0
1, 31631, Note_on_c, 0, 74, 0
1, 31632, Note_on_c, 0, 76, 63
1, 31632, Note_on_c, 1, 67, 64
1, 31647, Note_on_c, 0, 76, 0
1, 31648, Note_on_c, 0, 74, 63
1, 31663, Note_on_c, 0, 74, 0
1, 31664, Note_on_c, 0, 73, 63
1, 31665, Note_on_c, 1, 61, 0
1, 31677, Note_on_c, 1, 67, 0
1, 31679, Note_on_c, 0, 73, 0
1, 31680, Note_on_c, 1, 58, 63
1, 31704, Note_on_c, 0, 73, 63
1, 31727, Note_on_c, 0, 73, 0
1, 31728, Note_on_c, 0, 70, 63
1, 31728, Note_on_c, 1, 66, 66
1, 31751, Note_on_c, 0, 70, 0
1, 31752, Note_on_c, 0, 73, 64
1, 31773, Note_on_c, 1, 66, 0
1, 31775, Note_on_c, 0, 73, 0
1, 31776, Note_on_c, 0, 78, 80
1, 31776, Note_on_c, 1, 61, 66
1, 31792, Note_on_c, 0, 78, 0
1, 31792, Note_on_c, 0, 73, 64
1, 31807, Note_on_c, 0, 73, 0
1, 31808, Note_on_c, 0, 74, 64
1, 31821, Note_on_c, 1, 61, 0
1, 31823, Note_on_c, 0, 74, 0
1, 31824, Note_on_c, 0, 76, 65
1, 31824, Note_on_c, 1, 66, 67
1, 31839, Note_on_c, 0, 76, 0
1, 31840, Note_on_c, 0, 74, 65
1, 31855, Note_on_c, 0, 74, 0
1, 31856, Note_on_c, 0, 73, 65
1, 31857, Note_on_c, 1, 58, 0
1, 31869, Note_on_c, 1, 66, 0
1, 31871, Note_on_c, 0, 73, 0
1, 31872, Note_on_c, 1, 59, 66
1, 31888, Note_on_c, 0, 71, 65
1, 31903, Note_on_c, 0, 71, 0
1, 31904, Note_on_c, 0, 73, 66
1, 31919, Note_on_c, 0, 73, 0
1, 31920, Note_on_c, 0, 74, 66
1, 31920, Note_on_c, 1, 66, 69
1, 31935, Note_on_c, 0, 74, 0
1, 31936, Note_on_c, 0, 73, 66
1, 31951, Note_on_c, 0, 73, 0
1, 31952, Note_on_c, 0, 71, 66
1, 31961, Note_on_c, 1, 59, 0
1, 31967, Note_on_c, 0, 71, 0
1, 31968, Note_on_c, 1, 61, 68
1, 31984, Note_on_c, 0, 70, 67
1, 31999, Note_on_c, 0, 70, 0
1, 32000, Note_on_c, 0, 71, 67
1, 32009, Note_on_c, 1, 66, 0
1, 32015, Note_on_c, 0, 71, 0
1, 32016, Note_on_c, 0, 73, 67
1, 32016, Note_on_c, 1, 66, 70
1, 32031, Note_on_c, 0, 73, 0
1, 32032, Note_on_c, 0, 71, 67
1, 32047, Note_on_c, 0, 71, 0
1, 32048, Note_on_c, 0, 70, 67
1, 32057, Note_on_c, 1, 61, 0
1, 32063, Note_on_c, 0, 70, 0
1, 32064, Note_on_c, 1, 62, 70
1, 32080, Note_on_c, 0, 71, 68
1, 32095, Note_on_c, 0, 71, 0
1, 32096, Note_on_c, 0, 73, 68
1, 32109, Note_on_c, 1, 66, 0
1, 32111, Note_on_c, 0, 73, 0
1, 32112, Note_on_c, 0, 74, 68
1, 32112, Note_on_c, 1, 66, 72
1, 32127, Note_on_c, 0, 74, 0
1, 32128, Note_on_c, 0, 73, 68
1, 32143, Note_on_c, 0, 73, 0
1, 32144, Note_on_c, 0, 71, 69
1, 32153, Note_on_c, 1, 62, 0
1, 32159, Note_on_c, 0, 71, 0
1, 32160, Note_on_c, 1, 58, 72
1, 32176, Note_on_c, 0, 73, 69
1, 32191, Note_on_c, 0, 73, 0
1, 32192, Note_on_c, 0, 74, 69
1, 32201, Note_on_c, 1, 66, 0
1, 32207, Note_on_c, 0, 74, 0
1, 32208, Note_on_c, 0, 76, 69
1, 32208, Note_on_c, 1, 66, 74
1, 32223, Note_on_c, 0, 76, 0
1, 32224, Note_on_c, 0, 74, 70
1, 32239, Note_on_c, 0, 74, 0
1, 32240, Note_on_c, 0, 73, 70
1, 32249, Note_on_c, 1, 58, 0
1, 32255, Note_on_c, 0, 73, 0
1, 32256, Note_on_c, 1, 59, 74
1, 32272, Note_on_c, 0, 74, 70
1, 32287, Note_on_c, 0, 74, 0
1, 32288, Note_on_c, 0, 76, 70
1, 32301, Note_on_c, 1, 66, 0
1, 32303, Note_on_c, 0, 76, 0
1, 32304, Note_on_c, 0, 78, 71
1, 32304, Note_on_c, 1, 66, 75
1, 32319, Note_on_c, 0, 78, 0
1, 32320, Note_on_c, 0, 76, 71
1, 32335, Note_on_c, 0, 76, 0
1, 32336, Note_on_c, 0, 74, 71
1, 32345, Note_on_c, 1, 59, 0
1, 32351, Note_on_c, 0, 74, 0
1, 32352, Note_on_c, 1, 61, 76
1, 32368, Note_on_c, 0, 76, 71
1, 32383, Note_on_c, 0, 76, 0
1, 32384, Note_on_c, 0, 78, 72
1, 32393, Note_on_c, 1, 66, 0
1, 32399, Note_on_c, 0, 78, 0
1, 32400, Note_on_c, 0, 79, 72
1, 32400, Note_on_c, 1, 66, 77
1, 32415, Note_on_c, 0, 79, 0
1, 32416, Note_on_c, 0, 78, 72
1, 32431, Note_on_c, 0, 78, 0
1, 32432, Note_on_c, 0, 76, 72
1, 32441, Note_on_c, 1, 61, 0
1, 32447, Note_on_c, 0, 76, 0
1, 32448, Note_on_c, 0, 78, 78
1, 32448, Note_on_c, 1, 62, 78
1, 32482, Note_on_c, 0, 78, 0
1, 32484, Note_on_c, 0, 71, 78
1, 32496, Note_on_c, 0, 71, 0
1, 32496, Note_on_c, 0, 74, 78
1, 32530, Note_on_c, 0, 74, 0
1, 32532, Note_on_c, 0, 78, 78
1, 32537, Note_on_c, 1, 66, 0
1, 32537, Note_on_c, 1, 62, 0
1, 32544, Note_on_c, 0, 78, 0
1, 32544, Note_on_c, 0, 83, 94
1, 32592, Note_on_c, 1, 59, 78
1, 32592, Note_on_c, 1, 50, 78
1, 32637, Note_on_c, 1, 59, 0
1, 32637, Note_on_c, 1, 50, 0
1, 32640, Note_on_c, 1, 59, 78
1, 32640, Note_on_c, 1, 52, 78
1, 32674, Note_on_c, 0, 83, 0
1, 32676, Note_on_c, 0, 78, 78
1, 32688, Note_on_c, 0, 78, 0
1, 32688, Note_on_c, 0, 81, 78
1, 32700, Note_on_c, 0, 81, 0
1, 32700, Note_on_c, 0, 79, 78
1, 32712, Note_on_c, 0, 79, 0
1, 32712, Note_on_c, 0, 78, 78
1, 32724, Note_on_c, 0, 78, 0
1, 32724, Note_on_c, 0, 76, 78
1, 32729, Note_on_c, 1, 59, 0
1, 32729, Note_on_c, 1, 52, 0
1, 32736, Note_on_c, 0, 76, 0
1, 32736, Note_on_c, 0, 74, 78
1, 32736, Note_on_c, 1, 59, 78
1, 32736, Note_on_c, 1, 54, 78
1, 32781, Note_on_c, 0, 74, 0
1, 32781, Note_on_c, 1, 59, 0
1, 32784, Note_on_c, 0, 73, 78
1, 32784, Note_on_c, 1, 58, 78
1, 32791, Note_on_c, 0, 73, 0
1, 32791, Note_on_c, 0, 74, 77
1, 32798, Note_on_c, 0, 74, 0
1, 32798, Note_on_c, 0, 73, 77
1, 32805, Note_on_c, 0, 73, 0
1, 32805, Note_on_c, 0, 74, 76
1, 32812, Note_on_c, 0, 74, 0
1, 32812, Note_on_c, 0, 73, 76
1, 32819, Note_on_c, 0, 73, 0
1, 32819, Note_on_c, 0, 71, 75
1, 32825, Note_on_c, 1, 54, 0
1, 32826, Note_on_c, 0, 71, 0
1, 32826, Note_on_c, 0, 73, 75
1, 32829, Note_on_c, 1, 58, 0
1, 32832, Note_on_c, 0, 73, 0
1, 32832, Note_on_c, 0, 71, 74
1, 32832, Note_on_c, 1, 59, 78
1, 32877, Note_on_c, 1, 59, 0
1, 32880, Note_on_c, 1, 47, 78
1, 32921, Note_on_c, 0, 71, 0
1, 32925, Note_on_c, 1, 47, 0
1, 32928, Note_on_c, 0, 66, 74
1, 32943, Note_on_c, 0, 66, 0
1, 32944, Note_on_c, 0, 78, 74
1, 32944, Note_on_c, 0, 74, 74
1, 32959, Note_on_c, 0, 78, 0
1, 32959, Note_on_c, 0, 74, 0
1, 32960, Note_on_c, 0, 78, 74
1, 32960, Note_on_c, 0, 74, 74
1, 32975, Note_on_c, 0, 78, 0
1, 32975, Note_on_c, 0, 74, 0
1, 32976, Note_on_c, 0, 78, 74
1, 32976, Note_on_c, 0, 74, 74
1, 32976, Note_on_c, 1, 59, 74
1, 32991, Note_on_c, 0, 78, 0
1, 32991, Note_on_c, 0, 74, 0
1, 32992, Note_on_c, 0, 78, 74
1, 32992, Note_on_c, 0, 74, 74
1, 33007, Note_on_c, 0, 78, 0
1, 33007, Note_on_c, 0, 74, 0
1, 33008, Note_on_c, 0, 78, 74
1, 33008, Note_on_c, 0, 74, 74
1, 33021, Note_on_c, 1, 59, 0
1, 33023, Note_on_c, 0, 78, 0
1, 33023, Note_on_c, 0, 74, 0
1, 33024, Note_on_c, 0, 78, 74
1, 33024, Note_on_c, 0, 74, 74
1, 33024, Note_on_c, 1, 61, 74
1, 33069, Note_on_c, 1, 61, 0
1, 33072, Note_on_c, 0, 78, 0
1, 33072, Note_on_c, 0, 74, 0
1, 33072, Note_on_c, 0, 76, 74
1, 33072, Note_on_c, 0, 73, 74
1, 33072, Note_on_c, 1, 49, 74
1, 33117, Note_on_c, 0, 76, 0
1, 33117, Note_on_c, 0, 73, 0
1, 33117, Note_on_c, 1, 49, 0
1, 33120, Note_on_c, 0, 66, 74
1, 33135, Note_on_c, 0, 66, 0
1, 33136, Note_on_c, 0, 76, 74
1, 33136, Note_on_c, 0, 73, 74
1, 33151, Note_on_c, 0, 76, 0
1, 33151, Note_on_c, 0, 73, 0
1, 33152, Note_on_c, 0, 76, 74
1, 33152, Note_on_c, 0, 73, 74
1, 33167, Note_on_c, 0, 76, 0
1, 33167, Note_on_c, 0, 73, 0
1, 33168, Note_on_c, 0, 76, 74
1, 33168, Note_on_c, 0, 73, 74
1, 33168, Note_on_c, 1, 58, 74
1, 33183, Note_on_c, 0, 76, 0
1, 33183, Note_on_c, 0, 73, 0
1, 33184, Note_on_c, 0, 76, 74
1, 33184, Note_on_c, 0, 73, 74
1, 33199, Note_on_c, 0, 76, 0
1, 33199, Note_on_c, 0, 73, 0
1, 33200, Note_on_c, 0, 76, 74
1, 33200, Note_on_c, 0, 73, 74
1, 33213, Note_on_c, 1, 58, 0
1, 33215, Note_on_c, 0, 76, 0
1, 33215, Note_on_c, 0, 73, 0
1, 33216, Note_on_c, 0, 76, 74
1, 33216, Note_on_c, 0, 73, 74
1, 33216, Note_on_c, 1, 59, 74
1, 33261, Note_on_c, 1, 59, 0
1, 33264, Note_on_c, 0, 76, 0
1, 33264, Note_on_c, 0, 73, 0
1, 33264, Note_on_c, 0, 74, 74
1, 33264, Note_on_c, 0, 71, 74
1, 33264, Note_on_c, 1, 47, 74
1, 33309, Note_on_c, 0, 74, 0
1, 33309, Note_on_c, 0, 71, 0
1, 33309, Note_on_c, 1, 47, 0
1, 33312, Note_on_c, 0, 71, 74
1, 33324, Note_on_c, 0, 71, 0
1, 33324, Note_on_c, 0, 73, 74
1, 33336, Note_on_c, 0, 73, 0
1, 33336, Note_on_c, 0, 74, 74
1, 33348, Note_on_c, 0, 74, 0
1, 33348, Note_on_c, 0, 76, 75
1, 33360, Note_on_c, 0, 76, 0
1, 33360, Note_on_c, 0, 78, 75
1, 33360, Note_on_c, 1, 59, 74
1, 33360, Note_on_c, 1, 50, 74
1, 33372, Note_on_c, 0, 78, 0
1, 33372, Note_on_c, 0, 80, 75
1, 33384, Note_on_c, 0, 80, 0
1, 33384, Note_on_c, 0, 82, 76
1, 33396, Note_on_c, 0, 82, 0
1, 33396, Note_on_c, 0, 83, 76
1, 33405, Note_on_c, 1, 59, 0
1, 33405, Note_on_c, 1, 50, 0
1, 33408, Note_on_c, 0, 83, 0
1, 33408, Note_on_c, 0, 81, 76
1, 33408, Note_on_c, 1, 59, 74
1, 33408, Note_on_c, 1, 52, 78
1, 33422, Note_on_c, 0, 81, 0
1, 33423, Note_on_c, 0, 79, 77
1, 33431, Note_on_c, 0, 79, 0
1, 33431, Note_on_c, 0, 81, 77
1, 33439, Note_on_c, 0, 81, 0
1, 33439, Note_on_c, 0, 79, 77
1, 33447, Note_on_c, 0, 79, 0
1, 33447, Note_on_c, 0, 81, 77
1, 33455, Note_on_c, 0, 81, 0
1, 33455, Note_on_c, 0, 79, 77
1, 33462, Note_on_c, 0, 79, 0
1, 33462, Note_on_c, 0, 81, 78
1, 33469, Note_on_c, 0, 81, 0
1, 33469, Note_on_c, 0, 79, 77
1, 33476, Note_on_c, 0, 79, 0
1, 33476, Note_on_c, 0, 81, 77
1, 33483, Note_on_c, 0, 81, 0
1, 33483, Note_on_c, 0, 79, 77
1, 33490, Note_on_c, 0, 79, 0
1, 33490, Note_on_c, 0, 78, 77
1, 33497, Note_on_c, 0, 78, 0
1, 33497, Note_on_c, 0, 76, 77
1, 33497, Note_on_c, 1, 59, 0
1, 33497, Note_on_c, 1, 52, 0
1, 33504, Note_on_c, 0, 76, 0
1, 33504, Note_on_c, 0, 74, 77
1, 33504, Note_on_c, 1, 59, 74
1, 33504, Note_on_c, 1, 54, 78
1, 33549, Note_on_c, 0, 74, 0
1, 33549, Note_on_c, 1, 59, 0
1, 33552, Note_on_c, 0, 73, 75
1, 33552, Note_on_c, 1, 58, 74
1, 33559, Note_on_c, 0, 73, 0
1, 33559, Note_on_c, 0, 74, 75
1, 33566, Note_on_c, 0, 74, 0
1, 33566, Note_on_c, 0, 73, 75
1, 33573, Note_on_c, 0, 73, 0
1, 33573, Note_on_c, 0, 74, 75
1, 33580, Note_on_c, 0, 74, 0
1, 33580, Note_on_c, 0, 73, 75
1, 33587, Note_on_c, 0, 73, 0
1, 33587, Note_on_c, 0, 71, 74
1, 33593, Note_on_c, 1, 54, 0
1, 33594, Note_on_c, 0, 71, 0
1, 33594, Note_on_c, 0, 73, 74
1, 33597, Note_on_c, 1, 58, 0
1, 33600, Note_on_c, 0, 73, 0
1, 33600, Note_on_c, 0, 71, 74
1, 33600, Note_on_c, 1, 59, 74
1, 33645, Note_on_c, 0, 71, 0
1, 33645, Note_on_c, 1, 59, 0
1, 33648, Note_on_c, 1, 71, 63
1, 33672, Note_on_c, 0, 78, 63
1, 33693, Note_on_c, 1, 71, 0
1, 33696, Note_on_c, 1, 73, 63
1, 33717, Note_on_c, 0, 78, 0
1, 33720, Note_on_c, 0, 76, 63
1, 33741, Note_on_c, 1, 73, 0
1, 33744, Note_on_c, 1, 66, 63
1, 33765, Note_on_c, 0, 76, 0
1, 33768, Note_on_c, 0, 73, 63
1, 33789, Note_on_c, 1, 66, 0
1, 33792, Note_on_c, 1, 71, 63
1, 33815, Note_on_c, 0, 73, 0
1, 33816, Note_on_c, 0, 74, 63
1, 33837, Note_on_c, 1, 71, 0
1, 33840, Note_on_c, 1, 62, 63
1, 33861, Note_on_c, 0, 74, 0
1, 33864, Note_on_c, 0, 71, 63
1, 33885, Note_on_c, 1, 62, 0
1, 33888, Note_on_c, 1, 64, 63
1, 33909, Note_on_c, 0, 71, 0
1, 33912, Note_on_c, 0, 73, 64
1, 33933, Note_on_c, 1, 64, 0
1, 33936, Note_on_c, 1, 66, 64
1, 33957, Note_on_c, 0, 73, 0
1, 33960, Note_on_c, 0, 70, 65
1, 33981, Note_on_c, 1, 66, 0
1, 33984, Note_on_c, 1, 67, 65
1, 34007, Note_on_c, 0, 70, 0
1, 34008, Note_on_c, 0, 71, 66
1, 34029, Note_on_c, 1, 67, 0
1, 34032, Note_on_c, 1, 64, 66
1, 34053, Note_on_c, 0, 71, 0
1, 34056, Note_on_c, 0, 83, 66
1, 34077, Note_on_c, 1, 64, 0
1, 34080, Note_on_c, 1, 66, 66
1, 34101, Note_on_c, 0, 83, 0
1, 34104, Note_on_c, 0, 81, 67
1, 34125, Note_on_c, 1, 66, 0
1, 34128, Note_on_c, 1, 59, 67
1, 34149, Note_on_c, 0, 81, 0
1, 34152, Note_on_c, 0, 78, 68
1, 34173, Note_on_c, 1, 59, 0
1, 34176, Note_on_c, 1, 64, 68
1, 34199, Note_on_c, 0, 78, 0
1, 34200, Note_on_c, 0, 79, 69
1, 34221, Note_on_c, 1, 64, 0
1, 34224, Note_on_c, 1, 67, 69
1, 34245, Note_on_c, 0, 79, 0
1, 34248, Note_on_c, 0, 76, 69
1, 34269, Note_on_c, 1, 67, 0
1, 34272, Note_on_c, 1, 69, 70
1, 34293, Note_on_c, 0, 76, 0
1, 34296, Note_on_c, 0, 77, 70
1, 34317, Note_on_c, 1, 69, 0
1, 34320, Note_on_c, 1, 71, 70
1, 34341, Note_on_c, 0, 77, 0
1, 34344, Note_on_c, 0, 74, 71
1, 34365, Note_on_c, 1, 71, 0
1, 34368, Note_on_c, 1, 72, 71
1, 34391, Note_on_c, 0, 74, 0
1, 34392, Note_on_c, 0, 76, 72
1, 34413, Note_on_c, 1, 72, 0
1, 34416, Note_on_c, 1, 64, 72
1, 34437, Note_on_c, 0, 76, 0
1, 34440, Note_on_c, 0, 72, 73
1, 34461, Note_on_c, 1, 64, 0
1, 34464, Note_on_c, 1, 66, 73
1, 34485, Note_on_c, 0, 72, 0
1, 34488, Note_on_c, 0, 74, 73
1, 34509, Note_on_c, 1, 66, 0
1, 34512, Note_on_c, 1, 68, 74
1, 34533, Note_on_c, 0, 74, 0
1, 34536, Note_on_c, 0, 71, 74
1, 34557, Note_on_c, 1, 68, 0
1, 34560, Note_on_c, 1, 69, 74
1, 34583, Note_on_c, 0, 71, 0
1, 34584, Note_on_c, 0, 72, 75
1, 34605, Note_on_c, 1, 69, 0
1, 34608, Note_on_c, 1, 62, 75
1, 34629, Note_on_c, 0, 72, 0
1, 34632, Note_on_c, 0, 74, 76
1, 34653, Note_on_c, 1, 62, 0
1, 34656, Note_on_c, 1, 64, 76
1, 34677, Note_on_c, 0, 74, 0
1, 34680, Note_on_c, 0, 72, 76
1, 34701, Note_on_c, 1, 64, 0
1, 34704, Note_on_c, 1, 66, 77
1, 34725, Note_on_c, 0, 72, 0
1, 34728, Note_on_c, 0, 69, 77
1, 34749, Note_on_c, 1, 66, 0
1, 34751, Note_on_c, 0, 69, 0
1, 34752, Note_on_c, 0, 71, 78
1, 34752, Note_on_c, 1, 67, 78
1, 34775, Note_on_c, 0, 71, 0
1, 34776, Note_on_c, 0, 76, 94
1, 34797, Note_on_c, 1, 67, 0
1, 34800, Note_on_c, 1, 66, 78
1, 34824, Note_on_c, 0, 76, 0
1, 34824, Note_on_c, 0, 74, 78
1, 34845, Note_on_c, 1, 66, 0
1, 34847, Note_on_c, 0, 74, 0
1, 34848, Note_on_c, 0, 73, 78
1, 34848, Note_on_c, 1, 64, 78
1, 34871, Note_on_c, 0, 73, 0
1, 34872, Note_on_c, 0, 79, 94
1, 34893, Note_on_c, 1, 64, 0
1, 34896, Note_on_c, 1, 62, 78
1, 34920, Note_on_c, 0, 79, 0
1, 34920, Note_on_c, 0, 78, 78
1, 34941, Note_on_c, 1, 62, 0
1, 34943, Note_on_c, 0, 78, 0
1, 34944, Note_on_c, 0, 71, 78
1, 34944, Note_on_c, 1, 67, 78
1, 34967, Note_on_c, 0, 71, 0
1, 34968, Note_on_c, 0, 76, 94
1, 34989, Note_on_c, 1, 67, 0
1, 34992, Note_on_c, 1, 66, 78
1, 35016, Note_on_c, 0, 76, 0
1, 35016, Note_on_c, 0, 74, 78
1, 35037, Note_on_c, 1, 66, 0
1, 35039, Note_on_c, 0, 74, 0
1, 35040, Note_on_c, 0, 73, 78
1, 35040, Note_on_c, 1, 64, 78
1, 35063, Note_on_c, 0, 73, 0
1, 35064, Note_on_c, 0, 79, 94
1, 35085, Note_on_c, 1, 64, 0
1, 35088, Note_on_c, 1, 62, 78
1, 35112, Note_on_c, 0, 79, 0
1, 35112, Note_on_c, 0, 78, 78
1, 35133, Note_on_c, 1, 62, 0
1, 35135, Note_on_c, 0, 78, 0
1, 35136, Note_on_c, 0, 74, 78
1, 35136, Note_on_c, 1, 67, 78
1, 35159, Note_on_c, 0, 74, 0
1, 35160, Note_on_c, 0, 83, 94
1, 35181, Note_on_c, 1, 67, 0
1, 35184, Note_on_c, 1, 66, 78
1, 35208, Note_on_c, 0, 83, 0
1, 35208, Note_on_c, 0, 81, 78
1, 35229, Note_on_c, 1, 66, 0
1, 35231, Note_on_c, 0, 81, 0
1, 35232, Note_on_c, 0, 73, 78
1, 35232, Note_on_c, 1, 64, 78
1, 35255, Note_on_c, 0, 73, 0
1, 35256, Note_on_c, 0, 79, 92
1, 35277, Note_on_c, 1, 64, 0
1, 35280, Note_on_c, 1, 62, 75
1, 35304, Note_on_c, 0, 79, 0
1, 35304, Note_on_c, 0, 78, 74
1, 35325, Note_on_c, 1, 62, 0
1, 35327, Note_on_c, 0, 78, 0
1, 35328, Note_on_c, 0, 78, 73
1, 35328, Note_on_c, 1, 69, 73
1, 35373, Note_on_c, 1, 69, 0
1, 35376, Note_on_c, 0, 78, 0
1, 35376, Note_on_c, 0, 76, 71
1, 35376, Note_on_c, 1, 64, 70
1, 35410, Note_on_c, 1, 64, 0
1, 35412, Note_on_c, 1, 61, 69
1, 35421, Note_on_c, 0, 76, 0
1, 35424, Note_on_c, 1, 61, 0
1, 35424, Note_on_c, 1, 57, 69
1, 35496, Note_on_c, 0, 62, 74
1, 35513, Note_on_c, 1, 57, 0
1, 35519, Note_on_c, 0, 62, 0
1, 35520, Note_on_c, 0, 66, 74
1, 35520, Note_on_c, 1, 50, 74
1, 35565, Note_on_c, 1, 50, 0
1, 35568, Note_on_c, 1, 57, 74
1, 35587, Note_on_c, 0, 66, 0
1, 35592, Note_on_c, 0, 62, 74
1, 35613, Note_on_c, 1, 57, 0
1, 35615, Note_on_c, 0, 62, 0
1, 35616, Note_on_c, 0, 67, 75
1, 35616, Note_on_c, 1, 52, 74
1, 35661, Note_on_c, 1, 52, 0
1, 35664, Note_on_c, 1, 57, 74
1, 35683, Note_on_c, 0, 67, 0
1, 35688, Note_on_c, 0, 61, 75
1, 35709, Note_on_c, 1, 57, 0
1, 35711, Note_on_c, 0, 61, 0
1, 35712, Note_on_c, 0, 62, 92
1, 35712, Note_on_c, 1, 54, 74
1, 35757, Note_on_c, 1, 54, 0
1, 35760, Note_on_c, 1, 57, 74
1, 35784, Note_on_c, 0, 62, 0
1, 35784, Note_on_c, 0, 66, 76
1, 35796, Note_on_c, 0, 66, 0
1, 35796, Note_on_c, 0, 64, 76
1, 35805, Note_on_c, 1, 57, 0
1, 35808, Note_on_c, 0, 64, 0
1, 35808, Note_on_c, 0, 62, 77
1, 35842, Note_on_c, 0, 62, 0
1, 35844, Note_on_c, 0, 62, 77
1, 35856, Note_on_c, 0, 62, 0
1, 35856, Note_on_c, 0, 74, 77
1, 35856, Note_on_c, 1, 54, 74
1, 35890, Note_on_c, 0, 74, 0
1, 35892, Note_on_c, 0, 73, 78
1, 35901, Note_on_c, 1, 54, 0
1, 35904, Note_on_c, 0, 73, 0
1, 35904, Note_on_c, 0, 71, 77
1, 35904, Note_on_c, 1, 55, 74
1, 35938, Note_on_c, 0, 71, 0
1, 35940, Note_on_c, 0, 61, 77
1, 35949, Note_on_c, 1, 55, 0
1, 35952, Note_on_c, 0, 61, 0
1, 35952, Note_on_c, 0, 62, 76
1, 35952, Note_on_c, 1, 54, 74
1, 35986, Note_on_c, 0, 62, 0
1, 35988, Note_on_c, 0, 69, 76
1, 35997, Note_on_c, 1, 54, 0
1, 36000, Note_on_c, 0, 69, 0
1, 36000, Note_on_c, 0, 69, 75
1, 36000, Note_on_c, 1, 52, 74
1, 36045, Note_on_c, 0, 69, 0
1, 36045, Note_on_c, 1, 52, 0
1, 36048, Note_on_c, 0, 67, 74
1, 36048, Note_on_c, 1, 61, 74
1, 36055, Note_on_c, 0, 67, 0
1, 36055, Note_on_c, 0, 69, 74
1, 36062, Note_on_c, 0, 69, 0
1, 36062, Note_on_c, 0, 67, 74
1, 36069, Note_on_c, 0, 67, 0
1, 36069, Note_on_c, 0, 69, 74
1, 36076, Note_on_c, 0, 69, 0
1, 36076, Note_on_c, 0, 67, 74
1, 36083, Note_on_c, 0, 67, 0
1, 36083, Note_on_c, 0, 66, 74
1, 36090, Note_on_c, 0, 66, 0
1, 36090, Note_on_c, 0, 67, 74
1, 36093, Note_on_c, 1, 61, 0
1, 36096, Note_on_c, 0, 67, 0
1, 36096, Note_on_c, 0, 67, 74
1, 36096, Note_on_c, 1, 62, 74
1, 36141, Note_on_c, 1, 62, 0
1, 36144, Note_on_c, 0, 67, 0
1, 36144, Note_on_c, 0, 66, 74
1, 36144, Note_on_c, 1, 57, 74
1, 36178, Note_on_c, 1, 57, 0
1, 36180, Note_on_c, 1, 54, 74
1, 36189, Note_on_c, 0, 66, 0
1, 36192, Note_on_c, 1, 54, 0
1, 36192, Note_on_c, 1, 50, 74
1, 36264, Note_on_c, 0, 74, 74
1, 36281, Note_on_c, 1, 50, 0
1, 36287, Note_on_c, 0, 74, 0
1, 36288, Note_on_c, 0, 78, 74
1, 36288, Note_on_c, 1, 62, 74
1, 36333, Note_on_c, 1, 62, 0
1, 36336, Note_on_c, 1, 69, 74
1, 36355, Note_on_c, 0, 78, 0
1, 36360, Note_on_c, 0, 74, 74
1, 36381, Note_on_c, 1, 69, 0
1, 36383, Note_on_c, 0, 74, 0
1, 36384, Note_on_c, 0, 79, 75
1, 36384, Note_on_c, 1, 64, 74
1, 36429, Note_on_c, 1, 64, 0
1, 36432, Note_on_c, 1, 69, 74
1, 36451, Note_on_c, 0, 79, 0
1, 36456, Note_on_c, 0, 73, 76
1, 36477, Note_on_c, 1, 69, 0
1, 36479, Note_on_c, 0, 73, 0
1, 36480, Note_on_c, 0, 74, 92
1, 36480, Note_on_c, 1, 66, 74
1, 36525, Note_on_c, 1, 66, 0
1, 36528, Note_on_c, 1, 69, 74
1, 36552, Note_on_c, 0, 74, 0
1, 36552, Note_on_c, 0, 78, 77
1, 36564, Note_on_c, 0, 78, 0
1, 36564, Note_on_c, 0, 76, 77
1, 36573, Note_on_c, 1, 69, 0
1, 36576, Note_on_c, 0, 76, 0
1, 36576, Note_on_c, 0, 74, 77
1, 36610, Note_on_c, 0, 74, 0
1, 36612, Note_on_c, 0, 74, 78
1, 36624, Note_on_c, 0, 74, 0
1, 36624, Note_on_c, 0, 86, 77
1, 36624, Note_on_c, 1, 66, 74
1, 36658, Note_on_c, 0, 86, 0
1, 36660, Note_on_c, 0, 85, 77
1, 36669, Note_on_c, 1, 66, 0
1, 36672, Note_on_c, 0, 85, 0
1, 36672, Note_on_c, 0, 85, 77
1, 36672, Note_on_c, 1, 67, 74
1, 36706, Note_on_c, 0, 85, 0
1, 36708, Note_on_c, 0, 83, 76
1, 36717, Note_on_c, 1, 67, 0
1, 36720, Note_on_c, 0, 83, 0
1, 36720, Note_on_c, 0, 83, 76
1, 36720, Note_on_c, 1, 66, 74
1, 36754, Note_on_c, 0, 83, 0
1, 36756, Note_on_c, 0, 81, 75
1, 36765, Note_on_c, 1, 66, 0
1, 36768, Note_on_c, 0, 81, 0
1, 36768, Note_on_c, 0, 81, 75
1, 36768, Note_on_c, 1, 64, 74
1, 36802, Note_on_c, 0, 81, 0
1, 36804, Note_on_c, 0, 79, 74
1, 36813, Note_on_c, 1, 64, 0
1, 36816, Note_on_c, 0, 79, 0
1, 36816, Note_on_c, 0, 79, 74
1, 36816, Note_on_c, 1, 62, 74
1, 36850, Note_on_c, 0, 79, 0
1, 36852, Note_on_c, 0, 78, 74
1, 36861, Note_on_c, 1, 62, 0
1, 36864, Note_on_c, 0, 78, 0
1, 36864, Note_on_c, 0, 78, 74
1, 36864, Note_on_c, 1, 69, 74
1, 36909, Note_on_c, 1, 69, 0
1, 36912, Note_on_c, 0, 78, 0
1, 36912, Note_on_c, 0, 76, 74
1, 36912, Note_on_c, 1, 64, 74
1, 36957, Note_on_c, 0, 76, 0
1, 36957, Note_on_c, 1, 64, 0
1, 36960, Note_on_c, 1, 57, 74
1, 37049, Note_on_c, 1, 57, 0
1, 37056, Note_on_c, 1, 57, 78
1, 37080, Note_on_c, 0, 76, 74
1, 37080, Note_on_c, 1, 67, 74
1, 37103, Note_on_c, 0, 76, 0
1, 37103, Note_on_c, 1, 67, 0
1, 37104, Note_on_c, 0, 73, 74
1, 37104, Note_on_c, 1, 64, 74
1, 37127, Note_on_c, 0, 73, 0
1, 37127, Note_on_c, 1, 64, 0
1, 37128, Note_on_c, 0, 76, 74
1, 37128, Note_on_c, 1, 67, 74
1, 37145, Note_on_c, 1, 57, 0
1, 37151, Note_on_c, 0, 76, 0
1, 37151, Note_on_c, 1, 67, 0
1, 37152, Note_on_c, 1, 57, 78
1, 37176, Note_on_c, 0, 76, 74
1, 37176, Note_on_c, 1, 67, 74
1, 37199, Note_on_c, 0, 76, 0
1, 37199, Note_on_c, 1, 67, 0
1, 37200, Note_on_c, 0, 73, 74
1, 37200, Note_on_c, 1, 64, 74
1, 37223, Note_on_c, 0, 73, 0
1, 37223, Note_on_c, 1, 64, 0
1, 37224, Note_on_c, 0, 76, 74
1, 37224, Note_on_c, 1, 67, 74
1, 37241, Note_on_c, 1, 57, 0
1, 37247, Note_on_c, 0, 76, 0
1, 37247, Note_on_c, 1, 67, 0
1, 37248, Note_on_c, 1, 66, 74
1, 37272, Note_on_c, 0, 74, 74
1, 37293, Note_on_c, 1, 66, 0
1, 37296, Note_on_c, 1, 66, 74
1, 37317, Note_on_c, 0, 74, 0
1, 37320, Note_on_c, 0, 69, 74
1, 37341, Note_on_c, 1, 66, 0
1, 37344, Note_on_c, 1, 64, 74
1, 37365, Note_on_c, 0, 69, 0
1, 37368, Note_on_c, 0, 67, 74
1, 37389, Note_on_c, 1, 64, 0
1, 37392, Note_on_c, 1, 62, 74
1, 37413, Note_on_c, 0, 67, 0
1, 37416, Note_on_c, 0, 66, 74
1, 37437, Note_on_c, 1, 62, 0
1, 37439, Note_on_c, 0, 66, 0
1, 37440, Note_on_c, 1, 57, 78
1, 37456, Note_on_c, 0, 76, 74
1, 37464, Note_on_c, 1, 67, 74
1, 37471, Note_on_c, 0, 76, 0
1, 37472, Note_on_c, 0, 74, 74
1, 37487, Note_on_c, 0, 74, 0
1, 37487, Note_on_c, 1, 67, 0
1, 37488, Note_on_c, 0, 73, 74
1, 37488, Note_on_c, 1, 64, 74
1, 37503, Note_on_c, 0, 73, 0
1, 37504, Note_on_c, 0, 74, 74
1, 37511, Note_on_c, 1, 64, 0
1, 37512, Note_on_c, 1, 67, 74
1, 37519, Note_on_c, 0, 74, 0
1, 37520, Note_on_c, 0, 76, 74
1, 37529, Note_on_c, 1, 57, 0
1, 37535, Note_on_c, 0, 76, 0
1, 37535, Note_on_c, 1, 67, 0
1, 37536, Note_on_c, 1, 57, 78
1, 37552, Note_on_c, 0, 76, 74
1, 37560, Note_on_c, 1, 67, 74
1, 37567, Note_on_c, 0, 76, 0
1, 37568, Note_on_c, 0, 74, 74
1, 37583, Note_on_c, 0, 74, 0
1, 37583, Note_on_c, 1, 67, 0
1, 37584, Note_on_c, 0, 73, 74
1, 37584, Note_on_c, 1, 64, 74
1, 37599, Note_on_c, 0, 73, 0
1, 37600, Note_on_c, 0, 74, 74
1, 37607, Note_on_c, 1, 64, 0
1, 37608, Note_on_c, 1, 67, 74
1, 37615, Note_on_c, 0, 74, 0
1, 37616, Note_on_c, 0, 76, 74
1, 37625, Note_on_c, 1, 57, 0
1, 37631, Note_on_c, 0, 76, 0
1, 37631, Note_on_c, 1, 67, 0
1, 37632, Note_on_c, 1, 66, 74
1, 37656, Note_on_c, 0, 74, 74
1, 37677, Note_on_c, 1, 66, 0
1, 37680, Note_on_c, 1, 66, 74
1, 37701, Note_on_c, 0, 74, 0
1, 37704, Note_on_c, 0, 69, 74
1, 37725, Note_on_c, 1, 66, 0
1, 37728, Note_on_c, 1, 64, 74
1, 37749, Note_on_c, 0, 69, 0
1, 37752, Note_on_c, 0, 67, 74
1, 37773, Note_on_c, 1, 64, 0
1, 37776, Note_on_c, 1, 62, 74
1, 37797, Note_on_c, 0, 67, 0
1, 37800, Note_on_c, 0, 66, 74
1, 37821, Note_on_c, 1, 62, 0
1, 37823, Note_on_c, 0, 66, 0
1, 37824, Note_on_c, 0, 71, 74
1, 37872, Note_on_c, 1, 67, 69
1, 37906, Note_on_c, 1, 67, 0
1, 37908, Note_on_c, 1, 66, 69
1, 37920, Note_on_c, 1, 66, 0
1, 37920, Note_on_c, 1, 67, 69
1, 37965, Note_on_c, 1, 67, 0
1, 37968, Note_on_c, 1, 64, 69
1, 37987, Note_on_c, 0, 71, 0
1, 37992, Note_on_c, 0, 79, 74
1, 38004, Note_on_c, 0, 79, 0
1, 38004, Note_on_c, 0, 76, 74
1, 38015, Note_on_c, 1, 64, 0
1, 38016, Note_on_c, 0, 76, 0
1, 38016, Note_on_c, 0, 74, 74
1, 38064, Note_on_c, 1, 69, 69
1, 38098, Note_on_c, 1, 69, 0
1, 38100, Note_on_c, 1, 67, 69
1, 38112, Note_on_c, 0, 74, 0
1, 38112, Note_on_c, 0, 73, 74
1, 38112, Note_on_c, 1, 67, 0
1, 38112, Note_on_c, 1, 69, 69
1, 38157, Note_on_c, 0, 73, 0
1, 38157, Note_on_c, 1, 69, 0
1, 38160, Note_on_c, 0, 83, 74
1, 38160, Note_on_c, 1, 66, 69
1, 38172, Note_on_c, 0, 83, 0
1, 38172, Note_on_c, 0, 81, 74
1, 38184, Note_on_c, 0, 81, 0
1, 38184, Note_on_c, 0, 79, 74
1, 38196, Note_on_c, 0, 79, 0
1, 38196, Note_on_c, 0, 78, 74
1, 38207, Note_on_c, 1, 66, 0
1, 38208, Note_on_c, 0, 78, 0
1, 38208, Note_on_c, 0, 76, 74
1, 38256, Note_on_c, 1, 71, 69
1, 38290, Note_on_c, 1, 71, 0
1, 38292, Note_on_c, 1, 69, 69
1, 38304, Note_on_c, 0, 76, 0
1, 38304, Note_on_c, 0, 74, 74
1, 38304, Note_on_c, 1, 69, 0
1, 38304, Note_on_c, 1, 71, 69
1, 38327, Note_on_c, 0, 74, 0
1, 38328, Note_on_c, 0, 79, 74
1, 38340, Note_on_c, 0, 79, 0
1, 38340, Note_on_c, 0, 81, 74
1, 38349, Note_on_c, 1, 71, 0
1, 38352, Note_on_c, 0, 81, 0
1, 38352, Note_on_c, 0, 83, 74
1, 38352, Note_on_c, 1, 67, 69
1, 38386, Note_on_c, 0, 83, 0
1, 38388, Note_on_c, 0, 79, 74
1, 38399, Note_on_c, 1, 67, 0
1, 38400, Note_on_c, 0, 79, 0
1, 38400, Note_on_c, 0, 78, 74
1, 38448, Note_on_c, 1, 73, 69
1, 38482, Note_on_c, 1, 73, 0
1, 38484, Note_on_c, 1, 71, 69
1, 38496, Note_on_c, 0, 78, 0
1, 38496, Note_on_c, 0, 76, 74
1, 38496, Note_on_c, 1, 71, 0
1, 38496, Note_on_c, 1, 73, 69
1, 38519, Note_on_c, 0, 76, 0
1, 38520, Note_on_c, 0, 78, 74
1, 38532, Note_on_c, 0, 78, 0
1, 38532, Note_on_c, 0, 79, 74
1, 38541, Note_on_c, 1, 73, 0
1, 38544, Note_on_c, 0, 79, 0
1, 38544, Note_on_c, 0, 81, 74
1, 38544, Note_on_c, 1, 69, 69
1, 38556, Note_on_c, 0, 81, 0
1, 38556, Note_on_c, 0, 79, 74
1, 38568, Note_on_c, 0, 79, 0
1, 38568, Note_on_c, 0, 78, 74
1, 38580, Note_on_c, 0, 78, 0
1, 38580, Note_on_c, 0, 79, 74
1, 38591, Note_on_c, 1, 69, 0
1, 38592, Note_on_c, 0, 79, 0
1, 38592, Note_on_c, 0, 78, 74
1, 38592, Note_on_c, 1, 74, 74
1, 38615, Note_on_c, 0, 78, 0
1, 38616, Note_on_c, 0, 83, 90
1, 38637, Note_on_c, 1, 74, 0
1, 38640, Note_on_c, 1, 73, 74
1, 38664, Note_on_c, 0, 83, 0
1, 38664, Note_on_c, 0, 81, 74
1, 38685, Note_on_c, 1, 73, 0
1, 38687, Note_on_c, 0, 81, 0
1, 38688, Note_on_c, 0, 74, 74
1, 38688, Note_on_c, 1, 71, 74
1, 38711, Note_on_c, 0, 74, 0
1, 38712, Note_on_c, 0, 79, 90
1, 38733, Note_on_c, 1, 71, 0
1, 38736, Note_on_c, 1, 69, 74
1, 38760, Note_on_c, 0, 79, 0
1, 38760, Note_on_c, 0, 78, 74
1, 38781, Note_on_c, 1, 69, 0
1, 38783, Note_on_c, 0, 78, 0
1, 38784, Note_on_c, 0, 71, 74
1, 38784, Note_on_c, 1, 67, 74
1, 38807, Note_on_c, 0, 71, 0
1, 38808, Note_on_c, 0, 76, 90
1, 38829, Note_on_c, 1, 67, 0
1, 38832, Note_on_c, 1, 66, 74
1, 38856, Note_on_c, 0, 76, 0
1, 38856, Note_on_c, 0, 74, 74
1, 38877, Note_on_c, 1, 66, 0
1, 38879, Note_on_c, 0, 74, 0
1, 38880, Note_on_c, 0, 73, 74
1, 38880, Note_on_c, 1, 64, 74
1, 38903, Note_on_c, 0, 73, 0
1, 38904, Note_on_c, 0, 79, 90
1, 38925, Note_on_c, 1, 64, 0
1, 38928, Note_on_c, 1, 62, 74
1, 38952, Note_on_c, 0, 79, 0
1, 38952, Note_on_c, 0, 78, 74
1, 38973, Note_on_c, 1, 62, 0
1, 38975, Note_on_c, 0, 78, 0
1, 38976, Note_on_c, 0, 71, 74
1, 38976, Note_on_c, 1, 67, 74
1, 38999, Note_on_c, 0, 71, 0
1, 39000, Note_on_c, 0, 76, 90
1, 39021, Note_on_c, 1, 67, 0
1, 39024, Note_on_c, 1, 66, 74
1, 39048, Note_on_c, 0, 76, 0
1, 39048, Note_on_c, 0, 74, 74
1, 39069, Note_on_c, 1, 66, 0
1, 39071, Note_on_c, 0, 74, 0
1, 39072, Note_on_c, 0, 73, 74
1, 39072, Note_on_c, 1, 64, 74
1, 39095, Note_on_c, 0, 73, 0
1, 39096, Note_on_c, 0, 79, 90
1, 39117, Note_on_c, 1, 64, 0
1, 39120, Note_on_c, 1, 62, 74
1, 39144, Note_on_c, 0, 79, 0
1, 39144, Note_on_c, 0, 78, 74
1, 39165, Note_on_c, 1, 62, 0
1, 39167, Note_on_c, 0, 78, 0
1, 39168, Note_on_c, 0, 78, 74
1, 39168, Note_on_c, 1, 69, 74
1, 39213, Note_on_c, 1, 69, 0
1, 39216, Note_on_c, 0, 78, 0
1, 39216, Note_on_c, 0, 76, 74
1, 39216, Note_on_c, 1, 57, 74
1, 39261, Note_on_c, 0, 76, 0
1, 39261, Note_on_c, 1, 57, 0
1, 39264, Note_on_c, 0, 81, 74
1, 39276, Note_on_c, 0, 81, 0
1, 39276, Note_on_c, 0, 78, 75
1, 39288, Note_on_c, 0, 78, 0
1, 39288, Note_on_c, 0, 75, 76
1, 39300, Note_on_c, 0, 75, 0
1, 39300, Note_on_c, 0, 72, 77
1, 39312, Note_on_c, 0, 72, 0
1, 39312, Note_on_c, 0, 69, 78
1, 39312, Note_on_c, 1, 66, 74
1, 39312, Note_on_c, 1, 63, 74
1, 39359, Note_on_c, 1, 66, 0
1, 39359, Note_on_c, 1, 63, 0
1, 39360, Note_on_c, 1, 64, 74
1, 39405, Note_on_c, 0, 69, 0
1, 39405, Note_on_c, 1, 64, 0
1, 39408, Note_on_c, 0, 68, 75
1, 39408, Note_on_c, 1, 52, 74
1, 39453, Note_on_c, 0, 68, 0
1, 39453, Note_on_c, 1, 52, 0
1, 39456, Note_on_c, 0, 79, 74
1, 39468, Note_on_c, 0, 79, 0
1, 39468, Note_on_c, 0, 76, 75
1, 39480, Note_on_c, 0, 76, 0
1, 39480, Note_on_c, 0, 73, 76
1, 39492, Note_on_c, 0, 73, 0
1, 39492, Note_on_c, 0, 69, 78
1, 39504, Note_on_c, 0, 69, 0
1, 39504, Note_on_c, 0, 67, 77
1, 39504, Note_on_c, 1, 64, 74
1, 39504, Note_on_c, 1, 61, 74
1, 39551, Note_on_c, 1, 64, 0
1, 39551, Note_on_c, 1, 61, 0
1, 39552, Note_on_c, 1, 62, 74
1, 39597, Note_on_c, 0, 67, 0
1, 39597, Note_on_c, 1, 62, 0
1, 39600, Note_on_c, 0, 66, 75
1, 39600, Note_on_c, 1, 50, 74
1, 39645, Note_on_c, 0, 66, 0
1, 39645, Note_on_c, 1, 50, 0
1, 39648, Note_on_c, 0, 86, 74
1, 39660, Note_on_c, 0, 86, 0
1, 39660, Note_on_c, 0, 81, 74
1, 39672, Note_on_c, 0, 81, 0
1, 39672, Note_on_c, 0, 78, 74
1, 39684, Note_on_c, 0, 78, 0
1, 39684, Note_on_c, 0, 74, 74
1, 39696, Note_on_c, 0, 74, 0
1, 39696, Note_on_c, 0, 69, 74
1, 39696, Note_on_c, 1, 62, 74
1, 39696, Note_on_c, 1, 54, 74
1, 39741, Note_on_c, 0, 69, 0
1, 39744, Note_on_c, 0, 70, 74
1, 39744, Note_on_c, 1, 54, 0
1, 39744, Note_on_c, 1, 55, 78
1, 39768, Note_on_c, 0, 70, 0
1, 39768, Note_on_c, 0, 71, 74
1, 39789, Note_on_c, 1, 62, 0
1, 39791, Note_on_c, 0, 71, 0
1, 39792, Note_on_c, 0, 81, 74
1, 39792, Note_on_c, 1, 67, 74
1, 39804, Note_on_c, 0, 81, 0
1, 39804, Note_on_c, 0, 79, 74
1, 39816, Note_on_c, 0, 79, 0
1, 39816, Note_on_c, 0, 78, 74
1, 39828, Note_on_c, 0, 78, 0
1, 39828, Note_on_c, 0, 76, 74
1, 39833, Note_on_c, 1, 55, 0
1, 39837, Note_on_c, 1, 67, 0
1, 39840, Note_on_c, 0, 76, 0
1, 39840, Note_on_c, 0, 74, 74
1, 39840, Note_on_c, 1, 66, 74
1, 39840, Note_on_c, 1, 57, 78
1, 39885, Note_on_c, 0, 74, 0
1, 39885, Note_on_c, 1, 66, 0
1, 39888, Note_on_c, 0, 73, 74
1, 39888, Note_on_c, 1, 64, 74
1, 39895, Note_on_c, 0, 73, 0
1, 39895, Note_on_c, 0, 74, 74
1, 39902, Note_on_c, 0, 74, 0
1, 39902, Note_on_c, 0, 73, 74
1, 39909, Note_on_c, 0, 73, 0
1, 39909, Note_on_c, 0, 74, 74
1, 39916, Note_on_c, 0, 74, 0
1, 39916, Note_on_c, 0, 73, 74
1, 39923, Note_on_c, 0, 73, 0
1, 39923, Note_on_c, 0, 71, 74
1, 39929, Note_on_c, 1, 57, 0
1, 39930, Note_on_c, 0, 71, 0
1, 39930, Note_on_c, 0, 73, 74
1, 39933, Note_on_c, 1, 64, 0
1, 39936, Note_on_c, 0, 73, 0
1, 39936, Note_on_c, 0, 74, 74
1, 39936, Note_on_c, 1, 62, 74
1, 39981, Note_on_c, 0, 74, 0
1, 39981, Note_on_c, 1, 62, 0
1, 39984, Note_on_c, 0, 69, 63
1, 40032, Note_on_c, 1, 62, 74
1, 40055, Note_on_c, 0, 69, 0
1, 40056, Note_on_c, 0, 65, 63
1, 40079, Note_on_c, 0, 65, 0
1, 40080, Note_on_c, 0, 70, 63
1, 40103, Note_on_c, 0, 70, 0
1, 40104, Note_on_c, 0, 69, 63
1, 40121, Note_on_c, 1, 62, 0
1, 40127, Note_on_c, 0, 69, 0
1, 40128, Note_on_c, 0, 68, 63
1, 40128, Note_on_c, 1, 62, 74
1, 40151, Note_on_c, 1, 62, 0
1, 40152, Note_on_c, 1, 59, 74
1, 40175, Note_on_c, 1, 59, 0
1, 40176, Note_on_c, 1, 64, 74
1, 40199, Note_on_c, 1, 64, 0
1, 40200, Note_on_c, 1, 62, 74
1, 40223, Note_on_c, 1, 62, 0
1, 40224, Note_on_c, 0, 68, 0
1, 40224, Note_on_c, 0, 67, 63
1, 40224, Note_on_c, 1, 61, 74
1, 40247, Note_on_c, 0, 67, 0
1, 40248, Note_on_c, 0, 64, 63
1, 40271, Note_on_c, 0, 64, 0
1, 40272, Note_on_c, 0, 69, 63
1, 40295, Note_on_c, 0, 69, 0
1, 40296, Note_on_c, 0, 67, 63
1, 40319, Note_on_c, 0, 67, 0
1, 40320, Note_on_c, 0, 65, 63
1, 40343, Note_on_c, 1, 61, 0
1, 40344, Note_on_c, 1, 57, 74
1, 40367, Note_on_c, 1, 57, 0
1, 40368, Note_on_c, 1, 62, 74
1, 40391, Note_on_c, 1, 62, 0
1, 40392, Note_on_c, 1, 60, 74
1, 40415, Note_on_c, 1, 60, 0
1, 40416, Note_on_c, 1, 58, 74
1, 40439, Note_on_c, 0, 65, 0
1, 40440, Note_on_c, 0, 62, 63
1, 40463, Note_on_c, 0, 62, 0
1, 40464, Note_on_c, 0, 74, 63
1, 40487, Note_on_c, 0, 74, 0
1, 40488, Note_on_c, 0, 68, 63
1, 40505, Note_on_c, 1, 58, 0
1, 40511, Note_on_c, 0, 68, 0
1, 40512, Note_on_c, 0, 69, 63
1, 40536, Note_on_c, 1, 45, 74
1, 40559, Note_on_c, 1, 45, 0
1, 40560, Note_on_c, 1, 57, 74
1, 40583, Note_on_c, 1, 57, 0
1, 40584, Note_on_c, 1, 55, 74
1, 40607, Note_on_c, 1, 55, 0
1, 40608, Note_on_c, 1, 53, 69
1, 40631, Note_on_c, 0, 69, 0
1, 40632, Note_on_c, 0, 62, 69
1, 40653, Note_on_c, 1, 53, 0
1, 40655, Note_on_c, 0, 62, 0
1, 40656, Note_on_c, 0, 74, 69
1, 40656, Note_on_c, 1, 58, 69
1, 40656, Note_on_c, 1, 46, 69
1, 40679, Note_on_c, 0, 74, 0
1, 40680, Note_on_c, 0, 68, 69
1, 40701, Note_on_c, 1, 58, 0
1, 40701, Note_on_c, 1, 46, 0
1, 40703, Note_on_c, 0, 68, 0
1, 40704, Note_on_c, 0, 71, 69
1, 40704, Note_on_c, 1, 57, 69
1, 40704, Note_on_c, 1, 45, 69
1, 40710, Note_on_c, 0, 71, 0
1, 40710, Note_on_c, 0, 69, 69
1, 40716, Note_on_c, 0, 69, 0
1, 40716, Note_on_c, 0, 68, 69
1, 40722, Note_on_c, 0, 68, 0
1, 40722, Note_on_c, 0, 69, 69
1, 40793, Note_on_c, 0, 69, 0
1, 40793, Note_on_c, 1, 57, 0
1, 40793, Note_on_c, 1, 45, 0
1, 40800, Note_on_c, 0, 69, 74
1, 40815, Note_on_c, 0, 69, 0
1, 40816, Note_on_c, 0, 81, 74
1, 40816, Note_on_c, 0, 78, 74
1, 40831, Note_on_c, 0, 81, 0
1, 40831, Note_on_c, 0, 78, 0
1, 40832, Note_on_c, 0, 81, 74
1, 40832, Note_on_c, 0, 78, 74
1, 40847, Note_on_c, 0, 81, 0
1, 40847, Note_on_c, 0, 78, 0
1, 40848, Note_on_c, 0, 81, 74
1, 40848, Note_on_c, 0, 78, 74
1, 40848, Note_on_c, 1, 63, 69
1, 40863, Note_on_c, 0, 81, 0
1, 40863, Note_on_c, 0, 78, 0
1, 40864, Note_on_c, 0, 81, 74
1, 40864, Note_on_c, 0, 78, 74
1, 40879, Note_on_c, 0, 81, 0
1, 40879, Note_on_c, 0, 78, 0
1, 40880, Note_on_c, 0, 81, 74
1, 40880, Note_on_c, 0, 78, 74
1, 40893, Note_on_c, 1, 63, 0
1, 40895, Note_on_c, 0, 81, 0
1, 40895, Note_on_c, 0, 78, 0
1, 40896, Note_on_c, 0, 81, 74
1, 40896, Note_on_c, 0, 78, 74
1, 40896, Note_on_c, 1, 64, 69
1, 40941, Note_on_c, 1, 64, 0
1, 40944, Note_on_c, 0, 81, 0
1, 40944, Note_on_c, 0, 78, 0
1, 40944, Note_on_c, 0, 80, 74
1, 40944, Note_on_c, 0, 76, 74
1, 40944, Note_on_c, 1, 52, 69
1, 40989, Note_on_c, 0, 80, 0
1, 40989, Note_on_c, 0, 76, 0
1, 40989, Note_on_c, 1, 52, 0
1, 40992, Note_on_c, 0, 69, 74
1, 41007, Note_on_c, 0, 69, 0
1, 41008, Note_on_c, 0, 79, 74
1, 41008, Note_on_c, 0, 76, 74
1, 41023, Note_on_c, 0, 79, 0
1, 41023, Note_on_c, 0, 76, 0
1, 41024, Note_on_c, 0, 79, 74
1, 41024, Note_on_c, 0, 76, 74
1, 41039, Note_on_c, 0, 79, 0
1, 41039, Note_on_c, 0, 76, 0
1, 41040, Note_on_c, 0, 79, 74
1, 41040, Note_on_c, 0, 76, 74
1, 41040, Note_on_c, 1, 61, 69
1, 41055, Note_on_c, 0, 79, 0
1, 41055, Note_on_c, 0, 76, 0
1, 41056, Note_on_c, 0, 79, 74
1, 41056, Note_on_c, 0, 76, 74
1, 41071, Note_on_c, 0, 79, 0
1, 41071, Note_on_c, 0, 76, 0
1, 41072, Note_on_c, 0, 79, 74
1, 41072, Note_on_c, 0, 76, 74
1, 41085, Note_on_c, 1, 61, 0
1, 41087, Note_on_c, 0, 79, 0
1, 41087, Note_on_c, 0, 76, 0
1, 41088, Note_on_c, 0, 79, 74
1, 41088, Note_on_c, 0, 76, 74
1, 41088, Note_on_c, 1, 62, 69
1, 41133, Note_on_c, 1, 62, 0
1, 41136, Note_on_c, 0, 79, 0
1, 41136, Note_on_c, 0, 76, 0
1, 41136, Note_on_c, 0, 78, 74
1, 41136, Note_on_c, 0, 74, 74
1, 41136, Note_on_c, 1, 50, 69
1, 41181, Note_on_c, 0, 78, 0
1, 41181, Note_on_c, 0, 74, 0
1, 41181, Note_on_c, 1, 50, 0
1, 41184, Note_on_c, 0, 74, 74
1, 41196, Note_on_c, 0, 74, 0
1, 41196, Note_on_c, 0, 76, 74
1, 41208, Note_on_c, 0, 76, 0
1, 41208, Note_on_c, 0, 78, 74
1, 41220, Note_on_c, 0, 78, 0
1, 41220, Note_on_c, 0, 79, 75
1, 41232, Note_on_c, 0, 79, 0
1, 41232, Note_on_c, 0, 81, 75
1, 41232, Note_on_c, 1, 62, 69
1, 41232, Note_on_c, 1, 54, 69
1, 41244, Note_on_c, 0, 81, 0
1, 41244, Note_on_c, 0, 83, 75
1, 41256, Note_on_c, 0, 83, 0
1, 41256, Note_on_c, 0, 85, 76
1, 41268, Note_on_c, 0, 85, 0
1, 41268, Note_on_c, 0, 86, 76
1, 41277, Note_on_c, 1, 62, 0
1, 41277, Note_on_c, 1, 54, 0
1, 41280, Note_on_c, 0, 86, 0
1, 41280, Note_on_c, 0, 76, 76
1, 41280, Note_on_c, 1, 62, 69
1, 41280, Note_on_c, 1, 55, 78
1, 41325, Note_on_c, 0, 76, 0
1, 41328, Note_on_c, 0, 85, 78
1, 41340, Note_on_c, 0, 85, 0
1, 41340, Note_on_c, 0, 83, 77
1, 41352, Note_on_c, 0, 83, 0
1, 41352, Note_on_c, 0, 81, 77
1, 41364, Note_on_c, 0, 81, 0
1, 41364, Note_on_c, 0, 79, 76
1, 41369, Note_on_c, 1, 62, 0
1, 41369, Note_on_c, 1, 55, 0
1, 41376, Note_on_c, 0, 79, 0
1, 41376, Note_on_c, 0, 78, 76
1, 41376, Note_on_c, 1, 62, 69
1, 41376, Note_on_c, 1, 57, 78
1, 41421, Note_on_c, 0, 78, 0
1, 41421, Note_on_c, 1, 62, 0
1, 41424, Note_on_c, 0, 76, 74
1, 41424, Note_on_c, 1, 61, 69
1, 41431, Note_on_c, 0, 76, 0
1, 41431, Note_on_c, 0, 78, 74
1, 41438, Note_on_c, 0, 78, 0
1, 41438, Note_on_c, 0, 76, 74
1, 41445, Note_on_c, 0, 76, 0
1, 41445, Note_on_c, 0, 78, 74
1, 41452, Note_on_c, 0, 78, 0
1, 41452, Note_on_c, 0, 76, 74
1, 41459, Note_on_c, 0, 76, 0
1, 41459, Note_on_c, 0, 74, 74
1, 41465, Note_on_c, 1, 57, 0
1, 41466, Note_on_c, 0, 74, 0
1, 41466, Note_on_c, 0, 76, 74
1, 41469, Note_on_c, 1, 61, 0
1, 41472, Note_on_c, 0, 76, 0
1, 41472, Note_on_c, 0, 74, 74
1, 41472, Note_on_c, 1, 62, 69
1, 41517, Note_on_c, 1, 62, 0
1, 41520, Note_on_c, 1, 50, 69
1, 41561, Note_on_c, 0, 74, 0
1, 41565, Note_on_c, 1, 50, 0
1, 41568, Note_on_c, 0, 57, 74
1, 41583, Note_on_c, 0, 57, 0
1, 41584, Note_on_c, 0, 69, 74
1, 41584, Note_on_c, 0, 66, 74
1, 41599, Note_on_c, 0, 69, 0
1, 41599, Note_on_c, 0, 66, 0
1, 41600, Note_on_c, 0, 69, 74
1, 41600, Note_on_c, 0, 66, 74
1, 41615, Note_on_c, 0, 69, 0
1, 41615, Note_on_c, 0, 66, 0
1, 41616, Note_on_c, 0, 69, 74
1, 41616, Note_on_c, 0, 66, 74
1, 41616, Note_on_c, 1, 51, 69
1, 41631, Note_on_c, 0, 69, 0
1, 41631, Note_on_c, 0, 66, 0
1, 41632, Note_on_c, 0, 69, 74
1, 41632, Note_on_c, 0, 66, 74
1, 41647, Note_on_c, 0, 69, 0
1, 41647, Note_on_c, 0, 66, 0
1, 41648, Note_on_c, 0, 69, 74
1, 41648, Note_on_c, 0, 66, 74
1, 41661, Note_on_c, 1, 51, 0
1, 41663, Note_on_c, 0, 69, 0
1, 41663, Note_on_c, 0, 66, 0
1, 41664, Note_on_c, 0, 69, 74
1, 41664, Note_on_c, 0, 66, 74
1, 41664, Note_on_c, 1, 52, 69
1, 41709, Note_on_c, 1, 52, 0
1, 41712, Note_on_c, 0, 69, 0
1, 41712, Note_on_c, 0, 66, 0
1, 41712, Note_on_c, 0, 68, 74
1, 41712, Note_on_c, 0, 64, 74
1, 41712, Note_on_c, 1, 40, 69
1, 41757, Note_on_c, 0, 68, 0
1, 41757, Note_on_c, 0, 64, 0
1, 41757, Note_on_c, 1, 40, 0
1, 41760, Note_on_c, 0, 57, 74
1, 41775, Note_on_c, 0, 57, 0
1, 41776, Note_on_c, 0, 67, 74
1, 41776, Note_on_c, 0, 64, 74
1, 41791, Note_on_c, 0, 67, 0
1, 41791, Note_on_c, 0, 64, 0
1, 41792, Note_on_c, 0, 67, 74
1, 41792, Note_on_c, 0, 64, 74
1, 41807, Note_on_c, 0, 67, 0
1, 41807, Note_on_c, 0, 64, 0
1, 41808, Note_on_c, 0, 67, 74
1, 41808, Note_on_c, 0, 64, 74
1, 41808, Note_on_c, 1, 49, 69
1, 41823, Note_on_c, 0, 67, 0
1, 41823, Note_on_c, 0, 64, 0
1, 41824, Note_on_c, 0, 67, 74
1, 41824, Note_on_c, 0, 64, 74
1, 41839, Note_on_c, 0, 67, 0
1, 41839, Note_on_c, 0, 64, 0
1, 41840, Note_on_c, 0, 67, 74
1, 41840, Note_on_c, 0, 64, 74
1, 41853, Note_on_c, 1, 49, 0
1, 41855, Note_on_c, 0, 67, 0
1, 41855, Note_on_c, 0, 64, 0
1, 41856, Note_on_c, 0, 67, 74
1, 41856, Note_on_c, 0, 64, 74
1, 41856, Note_on_c, 1, 50, 69
1, 41901, Note_on_c, 1, 50, 0
1, 41904, Note_on_c, 0, 67, 0
1, 41904, Note_on_c, 0, 64, 0
1, 41904, Note_on_c, 0, 66, 74
1, 41904, Note_on_c, 0, 62, 74
1, 41904, Note_on_c, 1, 38, 69
1, 41949, Note_on_c, 0, 66, 0
1, 41949, Note_on_c, 0, 62, 0
1, 41949, Note_on_c, 1, 38, 0
1, 41952, Note_on_c, 0, 62, 74
1, 41964, Note_on_c, 0, 62, 0
1, 41964, Note_on_c, 0, 64, 74
1, 41976, Note_on_c, 0, 64, 0
1, 41976, Note_on_c, 0, 66, 74
1, 41988, Note_on_c, 0, 66, 0
1, 41988, Note_on_c, 0, 67, 75
1, 42000, Note_on_c, 0, 67, 0
1, 42000, Note_on_c, 0, 69, 75
1, 42000, Note_on_c, 1, 50, 69
1, 42000, Note_on_c, 1, 42, 69
1, 42012, Note_on_c, 0, 69, 0
1, 42012, Note_on_c, 0, 71, 75
1, 42024, Note_on_c, 0, 71, 0
1, 42024, Note_on_c, 0, 73, 76
1, 42036, Note_on_c, 0, 73, 0
1, 42036, Note_on_c, 0, 74, 76
1, 42045, Note_on_c, 1, 50, 0
1, 42045, Note_on_c, 1, 42, 0
1, 42048, Note_on_c, 0, 74, 0
1, 42048, Note_on_c, 0, 73, 76
1, 42048, Note_on_c, 1, 50, 69
1, 42048, Note_on_c, 1, 43, 78
1, 42056, Note_on_c, 0, 73, 0
1, 42056, Note_on_c, 0, 71, 77
1, 42064, Note_on_c, 0, 71, 0
1, 42064, Note_on_c, 0, 73, 77
1, 42072, Note_on_c, 0, 73, 0
1, 42072, Note_on_c, 0, 71, 77
1, 42080, Note_on_c, 0, 71, 0
1, 42080, Note_on_c, 0, 73, 77
1, 42088, Note_on_c, 0, 73, 0
1, 42088, Note_on_c, 0, 71, 77
1, 42096, Note_on_c, 0, 71, 0
1, 42096, Note_on_c, 0, 73, 78
1, 42104, Note_on_c, 0, 73, 0
1, 42104, Note_on_c, 0, 71, 77
1, 42112, Note_on_c, 0, 71, 0
1, 42112, Note_on_c, 0, 73, 77
1, 42120, Note_on_c, 0, 73, 0
1, 42120, Note_on_c, 0, 71, 77
1, 42128, Note_on_c, 0, 71, 0
1, 42128, Note_on_c, 0, 69, 77
1, 42136, Note_on_c, 0, 69, 0
1, 42136, Note_on_c, 0, 67, 77
1, 42137, Note_on_c, 1, 50, 0
1, 42137, Note_on_c, 1, 43, 0
1, 42144, Note_on_c, 0, 67, 0
1, 42144, Note_on_c, 0, 66, 76
1, 42144, Note_on_c, 1, 50, 69
1, 42144, Note_on_c, 1, 45, 78
1, 42189, Note_on_c, 0, 66, 0
1, 42189, Note_on_c, 1, 50, 0
1, 42192, Note_on_c, 0, 64, 75
1, 42192, Note_on_c, 1, 49, 69
1, 42199, Note_on_c, 0, 64, 0
1, 42199, Note_on_c, 0, 66, 75
1, 42206, Note_on_c, 0, 66, 0
1, 42206, Note_on_c, 0, 64, 75
1, 42213, Note_on_c, 0, 64, 0
1, 42213, Note_on_c, 0, 66, 75
1, 42220, Note_on_c, 0, 66, 0
1, 42220, Note_on_c, 0, 64, 74
1, 42227, Note_on_c, 0, 64, 0
1, 42227, Note_on_c, 0, 62, 74
1, 42233, Note_on_c, 1, 45, 0
1, 42234, Note_on_c, 0, 62, 0
1, 42234, Note_on_c, 0, 64, 74
1, 42237, Note_on_c, 1, 49, 0
1, 42240, Note_on_c, 0, 64, 0
1, 42240, Note_on_c, 0, 62, 74
1, 42240, Note_on_c, 1, 50, 69
1, 42240, Note_on_c, 1, 50, 78
1, 42285, Note_on_c, 1, 50, 0
1, 42288, Note_on_c, 1, 45, 78
1, 42329, Note_on_c, 0, 62, 0
1, 42329, Note_on_c, 1, 50, 0
1, 42333, Note_on_c, 1, 45, 0
1, 42336, Note_on_c, 1, 38, 78
1, 42381, Note_on_c, 1, 38, 0
1, 42408, Note_on_c, 1, 38, 0
1, 42431, Note_on_c, 1, 38, 0
1, 42441, End_track
0, 0, End_of_file