0, 0, Header, 0, 1, 96
1, 0, Start_track
1, 0, Tempo, 461538
1, 0, Note_on_c, 0, 76, 78
1, 0, Note_on_c, 1, 59, 78
1, 0, Note_on_c, 1, 55, 78
1, 18, Note_on_c, 0, 76, 0
1, 18, Note_on_c, 0, 74, 78
1, 36, Note_on_c, 0, 74, 0
1, 36, Note_on_c, 0, 72, 78
1, 54, Note_on_c, 0, 72, 0
1, 54, Note_on_c, 0, 74, 78
1, 89, Note_on_c, 0, 74, 0
1, 89, Note_on_c, 1, 59, 0
1, 89, Note_on_c, 1, 55, 0
1, 96, Note_on_c, 0, 79, 78
1, 126, Note_on_c, 0, 79, 0
1, 128, Note_on_c, 0, 74, 78
1, 158, Note_on_c, 0, 74, 0
1, 160, Note_on_c, 0, 71, 78
1, 190, Note_on_c, 0, 71, 0
1, 192, Note_on_c, 0, 74, 78
1, 192, Note_on_c, 1, 62, 78
1, 192, Note_on_c, 1, 59, 78
1, 222, Note_on_c, 0, 74, 0
1, 224, Note_on_c, 0, 71, 78
1, 254, Note_on_c, 0, 71, 0
1, 256, Note_on_c, 0, 67, 78
1, 281, Note_on_c, 1, 62, 0
1, 281, Note_on_c, 1, 59, 0
1, 286, Note_on_c, 0, 67, 0
1, 288, Note_on_c, 0, 67, 78
1, 288, Note_on_c, 1, 60, 78
1, 288, Note_on_c, 1, 57, 78
1, 318, Note_on_c, 0, 67, 0
1, 320, Note_on_c, 0, 66, 78
1, 350, Note_on_c, 0, 66, 0
1, 352, Note_on_c, 0, 62, 78
1, 377, Note_on_c, 1, 60, 0
1, 377, Note_on_c, 1, 57, 0
1, 382, Note_on_c, 0, 62, 0
1, 384, Note_on_c, 0, 72, 78
1, 384, Note_on_c, 0, 69, 78
1, 384, Note_on_c, 1, 54, 78
1, 480, Note_on_c, 0, 72, 0
1, 480, Note_on_c, 0, 69, 0
1, 480, Note_on_c, 0, 71, 78
1, 480, Note_on_c, 0, 67, 78
1, 480, Note_on_c, 1, 54, 0
1, 480, Note_on_c, 1, 55, 78
1, 569, Note_on_c, 0, 71, 0
1, 569, Note_on_c, 0, 67, 0
1, 569, Note_on_c, 1, 55, 0
1, 576, Note_on_c, 0, 64, 78
1, 576, Note_on_c, 1, 48, 78
1, 606, Note_on_c, 0, 64, 0
1, 608, Note_on_c, 0, 68, 79
1, 638, Note_on_c, 0, 68, 0
1, 640, Note_on_c, 0, 69, 80
1, 670, Note_on_c, 0, 69, 0
1, 672, Note_on_c, 0, 71, 81
1, 702, Note_on_c, 0, 71, 0
1, 704, Note_on_c, 0, 72, 82
1, 734, Note_on_c, 0, 72, 0
1, 736, Note_on_c, 0, 74, 83
1, 766, Note_on_c, 0, 74, 0
1, 768, Note_on_c, 0, 76, 85
1, 798, Note_on_c, 0, 76, 0
1, 800, Note_on_c, 0, 72, 82
1, 830, Note_on_c, 0, 72, 0
1, 832, Note_on_c, 0, 69, 80
1, 841, Note_on_c, 1, 48, 0
1, 862, Note_on_c, 0, 69, 0
1, 864, Note_on_c, 0, 67, 78
1, 864, Note_on_c, 1, 50, 78
1, 953, Note_on_c, 1, 50, 0
1, 960, Note_on_c, 1, 62, 78
1, 990, Note_on_c, 1, 62, 0
1, 992, Note_on_c, 1, 64, 78
1, 1022, Note_on_c, 1, 64, 0
1, 1024, Note_on_c, 1, 62, 78
1, 1054, Note_on_c, 1, 62, 0
1, 1056, Note_on_c, 0, 67, 0
1, 1056, Note_on_c, 0, 66, 78
1, 1056, Note_on_c, 1, 60, 78
1, 1086, Note_on_c, 1, 60, 0
1, 1088, Note_on_c, 1, 59, 78
1, 1118, Note_on_c, 1, 59, 0
1, 1120, Note_on_c, 1, 57, 78
1, 1145, Note_on_c, 0, 66, 0
1, 1150, Note_on_c, 1, 57, 0
1, 1152, Note_on_c, 0, 76, 78
1, 1152, Note_on_c, 1, 59, 78
1, 1152, Note_on_c, 1, 55, 78
1, 1170, Note_on_c, 0, 76, 0
1, 1170, Note_on_c, 0, 74, 78
1, 1188, Note_on_c, 0, 74, 0
1, 1188, Note_on_c, 0, 72, 78
1, 1206, Note_on_c, 0, 72, 0
1, 1206, Note_on_c, 0, 74, 78
1, 1241, Note_on_c, 0, 74, 0
1, 1241, Note_on_c, 1, 59, 0
1, 1241, Note_on_c, 1, 55, 0
1, 1248, Note_on_c, 0, 79, 78
1, 1278, Note_on_c, 0, 79, 0
1, 1280, Note_on_c, 0, 74, 78
1, 1310, Note_on_c, 0, 74, 0
1, 1312, Note_on_c, 0, 71, 78
1, 1342, Note_on_c, 0, 71, 0
1, 1344, Note_on_c, 0, 74, 78
1, 1344, Note_on_c, 1, 62, 78
1, 1344, Note_on_c, 1, 59, 78
1, 1374, Note_on_c, 0, 74, 0
1, 1376, Note_on_c, 0, 71, 78
1, 1406, Note_on_c, 0, 71, 0
1, 1408, Note_on_c, 0, 67, 78
1, 1433, Note_on_c, 1, 62, 0
1, 1433, Note_on_c, 1, 59, 0
1, 1438, Note_on_c, 0, 67, 0
1, 1440, Note_on_c, 0, 67, 78
1, 1440, Note_on_c, 1, 60, 78
1, 1440, Note_on_c, 1, 57, 78
1, 1470, Note_on_c, 0, 67, 0
1, 1472, Note_on_c, 0, 66, 78
1, 1502, Note_on_c, 0, 66, 0
1, 1504, Note_on_c, 0, 62, 78
1, 1529, Note_on_c, 1, 60, 0
1, 1529, Note_on_c, 1, 57, 0
1, 1534, Note_on_c, 0, 62, 0
1, 1536, Note_on_c, 0, 72, 78
1, 1536, Note_on_c, 0, 69, 78
1, 1536, Note_on_c, 1, 54, 78
1, 1632, Note_on_c, 0, 72, 0
1, 1632, Note_on_c, 0, 69, 0
1, 1632, Note_on_c, 0, 71, 78
1, 1632, Note_on_c, 0, 67, 78
1, 1632, Note_on_c, 1, 54, 0
1, 1632, Note_on_c, 1, 55, 78
1, 1721, Note_on_c, 0, 71, 0
1, 1721, Note_on_c, 0, 67, 0
1, 1721, Note_on_c, 1, 55, 0
1, 1728, Note_on_c, 0, 67, 78
1, 1758, Note_on_c, 0, 67, 0
1, 1760, Note_on_c, 0, 66, 78
1, 1790, Note_on_c, 0, 66, 0
1, 1792, Note_on_c, 0, 62, 78
1, 1822, Note_on_c, 0, 62, 0
1, 1824, Note_on_c, 0, 79, 78
1, 1824, Note_on_c, 0, 73, 78
1, 1824, Note_on_c, 1, 64, 78
1, 1913, Note_on_c, 1, 64, 0
1, 1920, Note_on_c, 0, 79, 0
1, 1920, Note_on_c, 0, 73, 0
1, 1920, Note_on_c, 0, 78, 78
1, 1920, Note_on_c, 0, 74, 78
1, 1920, Note_on_c, 1, 62, 78
1, 2009, Note_on_c, 0, 78, 0
1, 2009, Note_on_c, 0, 74, 0
1, 2009, Note_on_c, 1, 62, 0
1, 2016, Note_on_c, 0, 71, 78
1, 2016, Note_on_c, 1, 67, 78
1, 2046, Note_on_c, 0, 71, 0
1, 2048, Note_on_c, 0, 76, 78
1, 2078, Note_on_c, 0, 76, 0
1, 2080, Note_on_c, 0, 75, 78
1, 2110, Note_on_c, 0, 75, 0
1, 2112, Note_on_c, 0, 78, 78
1, 2142, Note_on_c, 0, 78, 0
1, 2144, Note_on_c, 0, 76, 78
1, 2174, Note_on_c, 0, 76, 0
1, 2176, Note_on_c, 0, 79, 78
1, 2193, Note_on_c, 1, 67, 0
1, 2206, Note_on_c, 0, 79, 0
1, 2208, Note_on_c, 0, 83, 78
1, 2238, Note_on_c, 0, 83, 0
1, 2240, Note_on_c, 0, 79, 78
1, 2270, Note_on_c, 0, 79, 0
1, 2272, Note_on_c, 0, 76, 78
1, 2302, Note_on_c, 0, 76, 0
1, 2304, Note_on_c, 0, 74, 78
1, 2334, Note_on_c, 0, 74, 0
1, 2336, Note_on_c, 0, 73, 78
1, 2366, Note_on_c, 0, 73, 0
1, 2368, Note_on_c, 0, 76, 78
1, 2398, Note_on_c, 0, 76, 0
1, 2400, Note_on_c, 0, 81, 94
1, 2400, Note_on_c, 1, 67, 78
1, 2400, Note_on_c, 1, 61, 78
1, 2496, Note_on_c, 1, 67, 0
1, 2496, Note_on_c, 1, 61, 0
1, 2496, Note_on_c, 1, 66, 78
1, 2496, Note_on_c, 1, 62, 78
1, 2526, Note_on_c, 0, 81, 0
1, 2528, Note_on_c, 0, 78, 78
1, 2558, Note_on_c, 0, 78, 0
1, 2560, Note_on_c, 0, 74, 78
1, 2585, Note_on_c, 1, 66, 0
1, 2585, Note_on_c, 1, 62, 0
1, 2590, Note_on_c, 0, 74, 0
1, 2592, Note_on_c, 0, 73, 78
1, 2622, Note_on_c, 0, 73, 0
1, 2624, Note_on_c, 0, 69, 78
1, 2654, Note_on_c, 0, 69, 0
1, 2656, Note_on_c, 0, 76, 78
1, 2686, Note_on_c, 0, 76, 0
1, 2688, Note_on_c, 0, 81, 94
1, 2688, Note_on_c, 1, 67, 78
1, 2688, Note_on_c, 1, 61, 78
1, 2784, Note_on_c, 1, 67, 0
1, 2784, Note_on_c, 1, 61, 0
1, 2784, Note_on_c, 1, 66, 78
1, 2784, Note_on_c, 1, 62, 78
1, 2814, Note_on_c, 0, 81, 0
1, 2816, Note_on_c, 0, 78, 78
1, 2846, Note_on_c, 0, 78, 0
1, 2848, Note_on_c, 0, 74, 78
1, 2873, Note_on_c, 1, 66, 0
1, 2873, Note_on_c, 1, 62, 0
1, 2878, Note_on_c, 0, 74, 0
1, 2880, Note_on_c, 0, 74, 78
1, 2910, Note_on_c, 0, 74, 0
1, 2912, Note_on_c, 0, 73, 78
1, 2942, Note_on_c, 0, 73, 0
1, 2944, Note_on_c, 0, 76, 78
1, 2974, Note_on_c, 0, 76, 0
1, 2976, Note_on_c, 0, 81, 94
1, 2976, Note_on_c, 1, 61, 78
1, 2976, Note_on_c, 1, 55, 78
1, 3072, Note_on_c, 1, 61, 0
1, 3072, Note_on_c, 1, 55, 0
1, 3072, Note_on_c, 1, 62, 78
1, 3072, Note_on_c, 1, 54, 78
1, 3102, Note_on_c, 0, 81, 0
1, 3104, Note_on_c, 0, 78, 78
1, 3134, Note_on_c, 0, 78, 0
1, 3136, Note_on_c, 0, 74, 78
1, 3161, Note_on_c, 1, 62, 0
1, 3161, Note_on_c, 1, 54, 0
1, 3166, Note_on_c, 0, 74, 0
1, 3168, Note_on_c, 0, 73, 78
1, 3198, Note_on_c, 0, 73, 0
1, 3200, Note_on_c, 0, 69, 78
1, 3230, Note_on_c, 0, 69, 0
1, 3232, Note_on_c, 0, 76, 78
1, 3262, Note_on_c, 0, 76, 0
1, 3264, Note_on_c, 0, 81, 94
1, 3264, Note_on_c, 1, 61, 78
1, 3264, Note_on_c, 1, 55, 78
1, 3360, Note_on_c, 1, 61, 0
1, 3360, Note_on_c, 1, 55, 0
1, 3360, Note_on_c, 1, 62, 78
1, 3360, Note_on_c, 1, 54, 78
1, 3390, Note_on_c, 0, 81, 0
1, 3392, Note_on_c, 0, 78, 78
1, 3422, Note_on_c, 0, 78, 0
1, 3424, Note_on_c, 0, 74, 78
1, 3449, Note_on_c, 1, 62, 0
1, 3449, Note_on_c, 1, 54, 0
1, 3454, Note_on_c, 0, 74, 0
1, 3456, Note_on_c, 0, 73, 78
1, 3456, Note_on_c, 1, 55, 78
1, 3486, Note_on_c, 0, 73, 0
1, 3488, Note_on_c, 0, 71, 78
1, 3518, Note_on_c, 0, 71, 0
1, 3520, Note_on_c, 0, 82, 78
1, 3545, Note_on_c, 1, 55, 0
1, 3550, Note_on_c, 0, 82, 0
1, 3552, Note_on_c, 0, 83, 78
1, 3582, Note_on_c, 0, 83, 0
1, 3584, Note_on_c, 0, 79, 78
1, 3614, Note_on_c, 0, 79, 0
1, 3616, Note_on_c, 0, 76, 78
1, 3646, Note_on_c, 0, 76, 0
1, 3648, Note_on_c, 0, 79, 78
1, 3648, Note_on_c, 1, 67, 78
1, 3648, Note_on_c, 1, 57, 78
1, 3678, Note_on_c, 0, 79, 0
1, 3680, Note_on_c, 0, 76, 78
1, 3710, Note_on_c, 0, 76, 0
1, 3712, Note_on_c, 0, 73, 78
1, 3737, Note_on_c, 1, 67, 0
1, 3737, Note_on_c, 1, 57, 0
1, 3742, Note_on_c, 0, 73, 0
1, 3744, Note_on_c, 0, 73, 78
1, 3744, Note_on_c, 1, 67, 78
1, 3744, Note_on_c, 1, 62, 64
1, 3921, Note_on_c, 1, 67, 0
1, 3936, Note_on_c, 0, 73, 0
1, 3936, Note_on_c, 0, 74, 78
1, 3936, Note_on_c, 1, 66, 78
1, 4009, Note_on_c, 1, 62, 0
1, 4025, Note_on_c, 0, 74, 0
1, 4025, Note_on_c, 1, 66, 0
1, 4032, Note_on_c, 0, 76, 78
1, 4032, Note_on_c, 1, 59, 78
1, 4032, Note_on_c, 1, 55, 78
1, 4050, Note_on_c, 0, 76, 0
1, 4050, Note_on_c, 0, 74, 78
1, 4068, Note_on_c, 0, 74, 0
1, 4068, Note_on_c, 0, 72, 78
1, 4086, Note_on_c, 0, 72, 0
1, 4086, Note_on_c, 0, 74, 78
1, 4121, Note_on_c, 0, 74, 0
1, 4121, Note_on_c, 1, 59, 0
1, 4121, Note_on_c, 1, 55, 0
1, 4128, Note_on_c, 0, 79, 78
1, 4158, Note_on_c, 0, 79, 0
1, 4160, Note_on_c, 0, 74, 78
1, 4190, Note_on_c, 0, 74, 0
1, 4192, Note_on_c, 0, 71, 78
1, 4222, Note_on_c, 0, 71, 0
1, 4224, Note_on_c, 0, 74, 78
1, 4224, Note_on_c, 1, 62, 78
1, 4224, Note_on_c, 1, 59, 78
1, 4254, Note_on_c, 0, 74, 0
1, 4256, Note_on_c, 0, 71, 78
1, 4286, Note_on_c, 0, 71, 0
1, 4288, Note_on_c, 0, 67, 78
1, 4313, Note_on_c, 1, 62, 0
1, 4313, Note_on_c, 1, 59, 0
1, 4318, Note_on_c, 0, 67, 0
1, 4320, Note_on_c, 0, 67, 78
1, 4320, Note_on_c, 1, 60, 78
1, 4320, Note_on_c, 1, 57, 78
1, 4350, Note_on_c, 0, 67, 0
1, 4352, Note_on_c, 0, 66, 78
1, 4382, Note_on_c, 0, 66, 0
1, 4384, Note_on_c, 0, 62, 78
1, 4409, Note_on_c, 1, 60, 0
1, 4409, Note_on_c, 1, 57, 0
1, 4414, Note_on_c, 0, 62, 0
1, 4416, Note_on_c, 0, 72, 78
1, 4416, Note_on_c, 0, 69, 78
1, 4416, Note_on_c, 1, 54, 78
1, 4512, Note_on_c, 0, 72, 0
1, 4512, Note_on_c, 0, 69, 0
1, 4512, Note_on_c, 0, 71, 78
1, 4512, Note_on_c, 0, 67, 78
1, 4512, Note_on_c, 1, 54, 0
1, 4512, Note_on_c, 1, 55, 78
1, 4601, Note_on_c, 0, 71, 0
1, 4601, Note_on_c, 0, 67, 0
1, 4601, Note_on_c, 1, 55, 0
1, 4608, Note_on_c, 0, 64, 78
1, 4608, Note_on_c, 1, 48, 78
1, 4638, Note_on_c, 0, 64, 0
1, 4640, Note_on_c, 0, 68, 79
1, 4670, Note_on_c, 0, 68, 0
1, 4672, Note_on_c, 0, 69, 80
1, 4702, Note_on_c, 0, 69, 0
1, 4704, Note_on_c, 0, 71, 81
1, 4734, Note_on_c, 0, 71, 0
1, 4736, Note_on_c, 0, 72, 82
1, 4766, Note_on_c, 0, 72, 0
1, 4768, Note_on_c, 0, 74, 83
1, 4798, Note_on_c, 0, 74, 0
1, 4800, Note_on_c, 0, 76, 85
1, 4830, Note_on_c, 0, 76, 0
1, 4832, Note_on_c, 0, 72, 82
1, 4862, Note_on_c, 0, 72, 0
1, 4864, Note_on_c, 0, 69, 80
1, 4873, Note_on_c, 1, 48, 0
1, 4894, Note_on_c, 0, 69, 0
1, 4896, Note_on_c, 0, 67, 78
1, 4896, Note_on_c, 1, 50, 78
1, 4985, Note_on_c, 1, 50, 0
1, 4992, Note_on_c, 1, 62, 78
1, 5022, Note_on_c, 1, 62, 0
1, 5024, Note_on_c, 1, 64, 78
1, 5054, Note_on_c, 1, 64, 0
1, 5056, Note_on_c, 1, 62, 78
1, 5086, Note_on_c, 1, 62, 0
1, 5088, Note_on_c, 0, 67, 0
1, 5088, Note_on_c, 0, 66, 78
1, 5088, Note_on_c, 1, 60, 78
1, 5118, Note_on_c, 1, 60, 0
1, 5120, Note_on_c, 1, 59, 78
1, 5150, Note_on_c, 1, 59, 0
1, 5152, Note_on_c, 1, 57, 78
1, 5177, Note_on_c, 0, 66, 0
1, 5182, Note_on_c, 1, 57, 0
1, 5184, Note_on_c, 0, 76, 78
1, 5184, Note_on_c, 1, 59, 78
1, 5184, Note_on_c, 1, 55, 78
1, 5202, Note_on_c, 0, 76, 0
1, 5202, Note_on_c, 0, 74, 78
1, 5220, Note_on_c, 0, 74, 0
1, 5220, Note_on_c, 0, 72, 78
1, 5238, Note_on_c, 0, 72, 0
1, 5238, Note_on_c, 0, 74, 78
1, 5273, Note_on_c, 0, 74, 0
1, 5273, Note_on_c, 1, 59, 0
1, 5273, Note_on_c, 1, 55, 0
1, 5280, Note_on_c, 0, 79, 78
1, 5310, Note_on_c, 0, 79, 0
1, 5312, Note_on_c, 0, 74, 78
1, 5342, Note_on_c, 0, 74, 0
1, 5344, Note_on_c, 0, 71, 78
1, 5374, Note_on_c, 0, 71, 0
1, 5376, Note_on_c, 0, 74, 78
1, 5376, Note_on_c, 1, 62, 78
1, 5376, Note_on_c, 1, 59, 78
1, 5406, Note_on_c, 0, 74, 0
1, 5408, Note_on_c, 0, 71, 78
1, 5438, Note_on_c, 0, 71, 0
1, 5440, Note_on_c, 0, 67, 78
1, 5465, Note_on_c, 1, 62, 0
1, 5465, Note_on_c, 1, 59, 0
1, 5470, Note_on_c, 0, 67, 0
1, 5472, Note_on_c, 0, 67, 78
1, 5472, Note_on_c, 1, 60, 78
1, 5472, Note_on_c, 1, 57, 78
1, 5502, Note_on_c, 0, 67, 0
1, 5504, Note_on_c, 0, 66, 78
1, 5534, Note_on_c, 0, 66, 0
1, 5536, Note_on_c, 0, 62, 78
1, 5561, Note_on_c, 1, 60, 0
1, 5561, Note_on_c, 1, 57, 0
1, 5566, Note_on_c, 0, 62, 0
1, 5568, Note_on_c, 0, 72, 78
1, 5568, Note_on_c, 0, 69, 78
1, 5568, Note_on_c, 1, 54, 78
1, 5664, Note_on_c, 0, 72, 0
1, 5664, Note_on_c, 0, 69, 0
1, 5664, Note_on_c, 0, 71, 78
1, 5664, Note_on_c, 0, 67, 78
1, 5664, Note_on_c, 1, 54, 0
1, 5664, Note_on_c, 1, 55, 78
1, 5753, Note_on_c, 0, 71, 0
1, 5753, Note_on_c, 0, 67, 0
1, 5753, Note_on_c, 1, 55, 0
1, 5760, Note_on_c, 0, 67, 78
1, 5790, Note_on_c, 0, 67, 0
1, 5792, Note_on_c, 0, 66, 78
1, 5822, Note_on_c, 0, 66, 0
1, 5824, Note_on_c, 0, 62, 78
1, 5854, Note_on_c, 0, 62, 0
1, 5856, Note_on_c, 0, 79, 78
1, 5856, Note_on_c, 0, 73, 78
1, 5856, Note_on_c, 1, 64, 78
1, 5945, Note_on_c, 1, 64, 0
1, 5952, Note_on_c, 0, 79, 0
1, 5952, Note_on_c, 0, 73, 0
1, 5952, Note_on_c, 0, 78, 78
1, 5952, Note_on_c, 0, 74, 78
1, 5952, Note_on_c, 1, 62, 78
1, 6041, Note_on_c, 0, 78, 0
1, 6041, Note_on_c, 0, 74, 0
1, 6041, Note_on_c, 1, 62, 0
1, 6048, Note_on_c, 0, 71, 78
1, 6048, Note_on_c, 1, 67, 78
1, 6078, Note_on_c, 0, 71, 0
1, 6080, Note_on_c, 0, 76, 78
1, 6110, Note_on_c, 0, 76, 0
1, 6112, Note_on_c, 0, 75, 78
1, 6142, Note_on_c, 0, 75, 0
1, 6144, Note_on_c, 0, 78, 78
1, 6174, Note_on_c, 0, 78, 0
1, 6176, Note_on_c, 0, 76, 78
1, 6206, Note_on_c, 0, 76, 0
1, 6208, Note_on_c, 0, 79, 78
1, 6225, Note_on_c, 1, 67, 0
1, 6238, Note_on_c, 0, 79, 0
1, 6240, Note_on_c, 0, 83, 78
1, 6270, Note_on_c, 0, 83, 0
1, 6272, Note_on_c, 0, 79, 78
1, 6302, Note_on_c, 0, 79, 0
1, 6304, Note_on_c, 0, 76, 78
1, 6334, Note_on_c, 0, 76, 0
1, 6336, Note_on_c, 0, 74, 78
1, 6366, Note_on_c, 0, 74, 0
1, 6368, Note_on_c, 0, 73, 78
1, 6398, Note_on_c, 0, 73, 0
1, 6400, Note_on_c, 0, 76, 78
1, 6430, Note_on_c, 0, 76, 0
1, 6432, Note_on_c, 0, 81, 94
1, 6432, Note_on_c, 1, 67, 78
1, 6432, Note_on_c, 1, 61, 78
1, 6528, Note_on_c, 1, 67, 0
1, 6528, Note_on_c, 1, 61, 0
1, 6528, Note_on_c, 1, 66, 78
1, 6528, Note_on_c, 1, 62, 78
1, 6558, Note_on_c, 0, 81, 0
1, 6560, Note_on_c, 0, 78, 78
1, 6590, Note_on_c, 0, 78, 0
1, 6592, Note_on_c, 0, 74, 78
1, 6617, Note_on_c, 1, 66, 0
1, 6617, Note_on_c, 1, 62, 0
1, 6622, Note_on_c, 0, 74, 0
1, 6624, Note_on_c, 0, 73, 78
1, 6654, Note_on_c, 0, 73, 0
1, 6656, Note_on_c, 0, 69, 78
1, 6686, Note_on_c, 0, 69, 0
1, 6688, Note_on_c, 0, 76, 78
1, 6718, Note_on_c, 0, 76, 0
1, 6720, Note_on_c, 0, 81, 94
1, 6720, Note_on_c, 1, 67, 78
1, 6720, Note_on_c, 1, 61, 78
1, 6816, Note_on_c, 1, 67, 0
1, 6816, Note_on_c, 1, 61, 0
1, 6816, Note_on_c, 1, 66, 78
1, 6816, Note_on_c, 1, 62, 78
1, 6846, Note_on_c, 0, 81, 0
1, 6848, Note_on_c, 0, 78, 78
1, 6878, Note_on_c, 0, 78, 0
1, 6880, Note_on_c, 0, 74, 78
1, 6905, Note_on_c, 1, 66, 0
1, 6905, Note_on_c, 1, 62, 0
1, 6910, Note_on_c, 0, 74, 0
1, 6912, Note_on_c, 0, 74, 78
1, 6942, Note_on_c, 0, 74, 0
1, 6944, Note_on_c, 0, 73, 78
1, 6974, Note_on_c, 0, 73, 0
1, 6976, Note_on_c, 0, 76, 78
1, 7006, Note_on_c, 0, 76, 0
1, 7008, Note_on_c, 0, 81, 94
1, 7008, Note_on_c, 1, 61, 78
1, 7008, Note_on_c, 1, 55, 78
1, 7104, Note_on_c, 1, 61, 0
1, 7104, Note_on_c, 1, 55, 0
1, 7104, Note_on_c, 1, 62, 78
1, 7104, Note_on_c, 1, 54, 78
1, 7134, Note_on_c, 0, 81, 0
1, 7136, Note_on_c, 0, 78, 78
1, 7166, Note_on_c, 0, 78, 0
1, 7168, Note_on_c, 0, 74, 78
1, 7193, Note_on_c, 1, 62, 0
1, 7193, Note_on_c, 1, 54, 0
1, 7198, Note_on_c, 0, 74, 0
1, 7200, Note_on_c, 0, 73, 78
1, 7230, Note_on_c, 0, 73, 0
1, 7232, Note_on_c, 0, 69, 78
1, 7262, Note_on_c, 0, 69, 0
1, 7264, Note_on_c, 0, 76, 78
1, 7294, Note_on_c, 0, 76, 0
1, 7296, Note_on_c, 0, 81, 94
1, 7296, Note_on_c, 1, 61, 78
1, 7296, Note_on_c, 1, 55, 78
1, 7392, Note_on_c, 1, 61, 0
1, 7392, Note_on_c, 1, 55, 0
1, 7392, Note_on_c, 1, 62, 78
1, 7392, Note_on_c, 1, 54, 78
1, 7422, Note_on_c, 0, 81, 0
1, 7424, Note_on_c, 0, 78, 78
1, 7454, Note_on_c, 0, 78, 0
1, 7456, Note_on_c, 0, 74, 78
1, 7481, Note_on_c, 1, 62, 0
1, 7481, Note_on_c, 1, 54, 0
1, 7486, Note_on_c, 0, 74, 0
1, 7488, Note_on_c, 0, 73, 78
1, 7488, Note_on_c, 1, 55, 78
1, 7518, Note_on_c, 0, 73, 0
1, 7520, Note_on_c, 0, 71, 78
1, 7550, Note_on_c, 0, 71, 0
1, 7552, Note_on_c, 0, 82, 78
1, 7577, Note_on_c, 1, 55, 0
1, 7582, Note_on_c, 0, 82, 0
1, 7584, Note_on_c, 0, 83, 78
1, 7614, Note_on_c, 0, 83, 0
1, 7616, Note_on_c, 0, 79, 78
1, 7646, Note_on_c, 0, 79, 0
1, 7648, Note_on_c, 0, 76, 78
1, 7678, Note_on_c, 0, 76, 0
1, 7680, Note_on_c, 0, 79, 78
1, 7680, Note_on_c, 1, 67, 78
1, 7680, Note_on_c, 1, 57, 78
1, 7710, Note_on_c, 0, 79, 0
1, 7712, Note_on_c, 0, 76, 78
1, 7742, Note_on_c, 0, 76, 0
1, 7744, Note_on_c, 0, 73, 78
1, 7769, Note_on_c, 1, 67, 0
1, 7769, Note_on_c, 1, 57, 0
1, 7774, Note_on_c, 0, 73, 0
1, 7776, Note_on_c, 0, 73, 78
1, 7776, Note_on_c, 1, 67, 78
1, 7776, Note_on_c, 1, 62, 64
1, 7953, Note_on_c, 1, 67, 0
1, 7968, Note_on_c, 0, 73, 0
1, 7968, Note_on_c, 0, 74, 78
1, 7968, Note_on_c, 1, 66, 78
1, 8041, Note_on_c, 1, 62, 0
1, 8057, Note_on_c, 0, 74, 0
1, 8057, Note_on_c, 1, 66, 0
1, 8064, Note_on_c, 0, 76, 78
1, 8064, Note_on_c, 1, 62, 71
1, 8082, Note_on_c, 0, 76, 0
1, 8082, Note_on_c, 0, 74, 78
1, 8094, Note_on_c, 1, 62, 0
1, 8096, Note_on_c, 1, 66, 71
1, 8100, Note_on_c, 0, 74, 0
1, 8100, Note_on_c, 0, 72, 78
1, 8118, Note_on_c, 0, 72, 0
1, 8118, Note_on_c, 0, 74, 78
1, 8126, Note_on_c, 1, 66, 0
1, 8128, Note_on_c, 1, 69, 71
1, 8153, Note_on_c, 0, 74, 0
1, 8158, Note_on_c, 1, 69, 0
1, 8160, Note_on_c, 0, 86, 78
1, 8160, Note_on_c, 1, 62, 71
1, 8190, Note_on_c, 0, 86, 0
1, 8190, Note_on_c, 1, 62, 0
1, 8192, Note_on_c, 0, 81, 78
1, 8192, Note_on_c, 1, 66, 71
1, 8222, Note_on_c, 0, 81, 0
1, 8222, Note_on_c, 1, 66, 0
1, 8224, Note_on_c, 0, 78, 78
1, 8224, Note_on_c, 1, 69, 71
1, 8254, Note_on_c, 0, 78, 0
1, 8254, Note_on_c, 1, 69, 0
1, 8256, Note_on_c, 0, 81, 78
1, 8256, Note_on_c, 1, 62, 71
1, 8286, Note_on_c, 0, 81, 0
1, 8286, Note_on_c, 1, 62, 0
1, 8288, Note_on_c, 0, 78, 78
1, 8288, Note_on_c, 1, 66, 71
1, 8318, Note_on_c, 0, 78, 0
1, 8318, Note_on_c, 1, 66, 0
1, 8320, Note_on_c, 0, 74, 78
1, 8320, Note_on_c, 1, 69, 71
1, 8350, Note_on_c, 0, 74, 0
1, 8350, Note_on_c, 1, 69, 0
1, 8352, Note_on_c, 0, 74, 78
1, 8352, Note_on_c, 1, 64, 71
1, 8382, Note_on_c, 1, 64, 0
1, 8384, Note_on_c, 1, 67, 71
1, 8414, Note_on_c, 1, 67, 0
1, 8416, Note_on_c, 1, 69, 71
1, 8446, Note_on_c, 1, 69, 0
1, 8448, Note_on_c, 1, 64, 71
1, 8478, Note_on_c, 1, 64, 0
1, 8480, Note_on_c, 1, 67, 71
1, 8510, Note_on_c, 1, 67, 0
1, 8512, Note_on_c, 1, 69, 71
1, 8542, Note_on_c, 1, 69, 0
1, 8544, Note_on_c, 0, 74, 0
1, 8544, Note_on_c, 0, 73, 78
1, 8544, Note_on_c, 1, 64, 71
1, 8556, Note_on_c, 0, 73, 0
1, 8556, Note_on_c, 0, 74, 78
1, 8568, Note_on_c, 0, 74, 0
1, 8568, Note_on_c, 0, 73, 78
1, 8574, Note_on_c, 1, 64, 0
1, 8576, Note_on_c, 1, 67, 71
1, 8606, Note_on_c, 1, 67, 0
1, 8608, Note_on_c, 1, 69, 71
1, 8633, Note_on_c, 0, 73, 0
1, 8638, Note_on_c, 1, 69, 0
1, 8640, Note_on_c, 1, 66, 78
1, 8670, Note_on_c, 1, 66, 0
1, 8672, Note_on_c, 1, 69, 78
1, 8702, Note_on_c, 1, 69, 0
1, 8704, Note_on_c, 1, 72, 78
1, 8734, Note_on_c, 1, 72, 0
1, 8736, Note_on_c, 0, 74, 78
1, 8766, Note_on_c, 0, 74, 0
1, 8768, Note_on_c, 0, 78, 78
1, 8798, Note_on_c, 0, 78, 0
1, 8800, Note_on_c, 0, 81, 78
1, 8830, Note_on_c, 0, 81, 0
1, 8832, Note_on_c, 0, 84, 78
1, 8862, Note_on_c, 0, 84, 0
1, 8864, Note_on_c, 0, 81, 78
1, 8894, Note_on_c, 0, 81, 0
1, 8896, Note_on_c, 0, 78, 78
1, 8926, Note_on_c, 0, 78, 0
1, 8928, Note_on_c, 0, 72, 78
1, 8928, Note_on_c, 1, 55, 71
1, 8958, Note_on_c, 1, 55, 0
1, 8960, Note_on_c, 1, 62, 71
1, 8990, Note_on_c, 1, 62, 0
1, 8992, Note_on_c, 1, 67, 71
1, 9022, Note_on_c, 1, 67, 0
1, 9024, Note_on_c, 0, 72, 0
1, 9024, Note_on_c, 0, 71, 78
1, 9024, Note_on_c, 1, 55, 71
1, 9036, Note_on_c, 0, 71, 0
1, 9036, Note_on_c, 0, 72, 78
1, 9048, Note_on_c, 0, 72, 0
1, 9048, Note_on_c, 0, 71, 78
1, 9054, Note_on_c, 1, 55, 0
1, 9056, Note_on_c, 1, 62, 71
1, 9086, Note_on_c, 1, 62, 0
1, 9088, Note_on_c, 1, 67, 71
1, 9113, Note_on_c, 0, 71, 0
1, 9118, Note_on_c, 1, 67, 0
1, 9120, Note_on_c, 0, 79, 78
1, 9120, Note_on_c, 1, 59, 71
1, 9150, Note_on_c, 1, 59, 0
1, 9152, Note_on_c, 1, 62, 71
1, 9182, Note_on_c, 1, 62, 0
1, 9184, Note_on_c, 1, 67, 71
1, 9209, Note_on_c, 0, 79, 0
1, 9214, Note_on_c, 1, 67, 0
1, 9216, Note_on_c, 0, 75, 78
1, 9216, Note_on_c, 1, 60, 71
1, 9246, Note_on_c, 1, 60, 0
1, 9248, Note_on_c, 1, 64, 71
1, 9264, Note_on_c, 0, 75, 0
1, 9264, Note_on_c, 0, 76, 78
1, 9278, Note_on_c, 1, 64, 0
1, 9280, Note_on_c, 1, 67, 71
1, 9309, Note_on_c, 0, 76, 0
1, 9310, Note_on_c, 1, 67, 0
1, 9312, Note_on_c, 0, 76, 78
1, 9312, Note_on_c, 1, 60, 71
1, 9342, Note_on_c, 1, 60, 0
1, 9344, Note_on_c, 1, 64, 71
1, 9374, Note_on_c, 1, 64, 0
1, 9376, Note_on_c, 1, 67, 71
1, 9401, Note_on_c, 0, 76, 0
1, 9406, Note_on_c, 1, 67, 0
1, 9408, Note_on_c, 0, 79, 78
1, 9408, Note_on_c, 1, 60, 71
1, 9438, Note_on_c, 1, 60, 0
1, 9440, Note_on_c, 1, 64, 71
1, 9470, Note_on_c, 1, 64, 0
1, 9472, Note_on_c, 1, 67, 71
1, 9497, Note_on_c, 0, 79, 0
1, 9502, Note_on_c, 1, 67, 0
1, 9504, Note_on_c, 0, 73, 78
1, 9504, Note_on_c, 1, 59, 71
1, 9534, Note_on_c, 1, 59, 0
1, 9536, Note_on_c, 1, 62, 71
1, 9552, Note_on_c, 0, 73, 0
1, 9552, Note_on_c, 0, 74, 78
1, 9566, Note_on_c, 1, 62, 0
1, 9568, Note_on_c, 1, 67, 71
1, 9597, Note_on_c, 0, 74, 0
1, 9598, Note_on_c, 1, 67, 0
1, 9600, Note_on_c, 0, 74, 78
1, 9600, Note_on_c, 1, 59, 71
1, 9630, Note_on_c, 1, 59, 0
1, 9632, Note_on_c, 1, 62, 71
1, 9662, Note_on_c, 1, 62, 0
1, 9664, Note_on_c, 1, 67, 71
1, 9689, Note_on_c, 0, 74, 0
1, 9694, Note_on_c, 1, 67, 0
1, 9696, Note_on_c, 0, 86, 78
1, 9696, Note_on_c, 1, 59, 71
1, 9726, Note_on_c, 0, 86, 0
1, 9726, Note_on_c, 1, 59, 0
1, 9728, Note_on_c, 0, 83, 78
1, 9728, Note_on_c, 1, 62, 71
1, 9758, Note_on_c, 0, 83, 0
1, 9758, Note_on_c, 1, 62, 0
1, 9760, Note_on_c, 0, 79, 78
1, 9760, Note_on_c, 1, 67, 71
1, 9790, Note_on_c, 0, 79, 0
1, 9790, Note_on_c, 1, 67, 0
1, 9792, Note_on_c, 0, 78, 78
1, 9792, Note_on_c, 1, 60, 71
1, 9822, Note_on_c, 1, 60, 0
1, 9824, Note_on_c, 1, 64, 71
1, 9854, Note_on_c, 1, 64, 0
1, 9856, Note_on_c, 1, 67, 71
1, 9881, Note_on_c, 0, 78, 0
1, 9886, Note_on_c, 1, 67, 0
1, 9888, Note_on_c, 0, 76, 78
1, 9888, Note_on_c, 1, 60, 71
1, 9900, Note_on_c, 0, 76, 0
1, 9900, Note_on_c, 0, 78, 78
1, 9912, Note_on_c, 0, 78, 0
1, 9912, Note_on_c, 0, 76, 78
1, 9918, Note_on_c, 1, 60, 0
1, 9920, Note_on_c, 1, 64, 71
1, 9950, Note_on_c, 1, 64, 0
1, 9952, Note_on_c, 1, 67, 71
1, 9977, Note_on_c, 0, 76, 0
1, 9982, Note_on_c, 1, 67, 0
1, 9984, Note_on_c, 0, 79, 78
1, 9984, Note_on_c, 1, 60, 71
1, 10014, Note_on_c, 0, 79, 0
1, 10014, Note_on_c, 1, 60, 0
1, 10016, Note_on_c, 0, 78, 78
1, 10016, Note_on_c, 1, 64, 71
1, 10046, Note_on_c, 0, 78, 0
1, 10046, Note_on_c, 1, 64, 0
1, 10048, Note_on_c, 0, 76, 78
1, 10048, Note_on_c, 1, 67, 71
1, 10078, Note_on_c, 0, 76, 0
1, 10078, Note_on_c, 1, 67, 0
1, 10080, Note_on_c, 0, 76, 78
1, 10080, Note_on_c, 1, 59, 71
1, 10110, Note_on_c, 1, 59, 0
1, 10112, Note_on_c, 1, 62, 71
1, 10142, Note_on_c, 1, 62, 0
1, 10144, Note_on_c, 1, 67, 71
1, 10169, Note_on_c, 0, 76, 0
1, 10174, Note_on_c, 1, 67, 0
1, 10176, Note_on_c, 0, 74, 78
1, 10176, Note_on_c, 1, 59, 71
1, 10188, Note_on_c, 0, 74, 0
1, 10188, Note_on_c, 0, 76, 78
1, 10200, Note_on_c, 0, 76, 0
1, 10200, Note_on_c, 0, 74, 78
1, 10206, Note_on_c, 1, 59, 0
1, 10208, Note_on_c, 1, 62, 71
1, 10238, Note_on_c, 1, 62, 0
1, 10240, Note_on_c, 1, 67, 71
1, 10265, Note_on_c, 0, 74, 0
1, 10270, Note_on_c, 1, 67, 0
1, 10272, Note_on_c, 0, 78, 78
1, 10272, Note_on_c, 1, 59, 71
1, 10302, Note_on_c, 0, 78, 0
1, 10302, Note_on_c, 1, 59, 0
1, 10304, Note_on_c, 0, 79, 78
1, 10304, Note_on_c, 1, 62, 71
1, 10334, Note_on_c, 0, 79, 0
1, 10334, Note_on_c, 1, 62, 0
1, 10336, Note_on_c, 0, 83, 78
1, 10336, Note_on_c, 1, 67, 71
1, 10366, Note_on_c, 0, 83, 0
1, 10366, Note_on_c, 1, 67, 0
1, 10368, Note_on_c, 0, 75, 78
1, 10368, Note_on_c, 1, 60, 71
1, 10398, Note_on_c, 0, 75, 0
1, 10400, Note_on_c, 0, 76, 78
1, 10430, Note_on_c, 0, 76, 0
1, 10432, Note_on_c, 0, 79, 79
1, 10457, Note_on_c, 1, 60, 0
1, 10462, Note_on_c, 0, 79, 0
1, 10464, Note_on_c, 0, 71, 80
1, 10494, Note_on_c, 0, 71, 0
1, 10496, Note_on_c, 0, 72, 80
1, 10526, Note_on_c, 0, 72, 0
1, 10528, Note_on_c, 0, 76, 81
1, 10558, Note_on_c, 0, 76, 0
1, 10560, Note_on_c, 0, 68, 82
1, 10590, Note_on_c, 0, 68, 0
1, 10592, Note_on_c, 0, 69, 83
1, 10622, Note_on_c, 0, 69, 0
1, 10624, Note_on_c, 0, 72, 83
1, 10654, Note_on_c, 0, 72, 0
1, 10656, Note_on_c, 0, 67, 85
1, 10656, Note_on_c, 1, 50, 71
1, 10745, Note_on_c, 1, 50, 0
1, 10752, Note_on_c, 1, 62, 64
1, 10782, Note_on_c, 1, 62, 0
1, 10784, Note_on_c, 1, 64, 66
1, 10814, Note_on_c, 1, 64, 0
1, 10816, Note_on_c, 1, 62, 68
1, 10846, Note_on_c, 1, 62, 0
1, 10848, Note_on_c, 0, 67, 0
1, 10848, Note_on_c, 0, 66, 80
1, 10848, Note_on_c, 1, 60, 70
1, 10860, Note_on_c, 0, 66, 0
1, 10860, Note_on_c, 0, 67, 80
1, 10872, Note_on_c, 0, 67, 0
1, 10872, Note_on_c, 0, 66, 80
1, 10878, Note_on_c, 1, 60, 0
1, 10880, Note_on_c, 1, 59, 72
1, 10910, Note_on_c, 1, 59, 0
1, 10912, Note_on_c, 1, 57, 74
1, 10937, Note_on_c, 0, 66, 0
1, 10942, Note_on_c, 1, 57, 0
1, 10944, Note_on_c, 0, 76, 78
1, 10944, Note_on_c, 1, 59, 78
1, 10944, Note_on_c, 1, 55, 78
1, 10962, Note_on_c, 0, 76, 0
1, 10962, Note_on_c, 0, 74, 78
1, 10980, Note_on_c, 0, 74, 0
1, 10980, Note_on_c, 0, 72, 78
1, 10998, Note_on_c, 0, 72, 0
1, 10998, Note_on_c, 0, 74, 78
1, 11033, Note_on_c, 0, 74, 0
1, 11033, Note_on_c, 1, 59, 0
1, 11033, Note_on_c, 1, 55, 0
1, 11040, Note_on_c, 0, 79, 78
1, 11070, Note_on_c, 0, 79, 0
1, 11072, Note_on_c, 0, 74, 78
1, 11102, Note_on_c, 0, 74, 0
1, 11104, Note_on_c, 0, 71, 78
1, 11134, Note_on_c, 0, 71, 0
1, 11136, Note_on_c, 0, 74, 78
1, 11136, Note_on_c, 1, 62, 78
1, 11136, Note_on_c, 1, 59, 78
1, 11166, Note_on_c, 0, 74, 0
1, 11168, Note_on_c, 0, 71, 78
1, 11198, Note_on_c, 0, 71, 0
1, 11200, Note_on_c, 0, 67, 78
1, 11225, Note_on_c, 1, 62, 0
1, 11225, Note_on_c, 1, 59, 0
1, 11230, Note_on_c, 0, 67, 0
1, 11232, Note_on_c, 0, 67, 78
1, 11232, Note_on_c, 1, 60, 78
1, 11232, Note_on_c, 1, 57, 78
1, 11262, Note_on_c, 0, 67, 0
1, 11264, Note_on_c, 0, 66, 78
1, 11294, Note_on_c, 0, 66, 0
1, 11296, Note_on_c, 0, 62, 78
1, 11321, Note_on_c, 1, 60, 0
1, 11321, Note_on_c, 1, 57, 0
1, 11326, Note_on_c, 0, 62, 0
1, 11328, Note_on_c, 0, 72, 78
1, 11328, Note_on_c, 0, 69, 78
1, 11328, Note_on_c, 1, 54, 78
1, 11424, Note_on_c, 0, 72, 0
1, 11424, Note_on_c, 0, 69, 0
1, 11424, Note_on_c, 0, 71, 78
1, 11424, Note_on_c, 0, 67, 78
1, 11424, Note_on_c, 1, 54, 0
1, 11424, Note_on_c, 1, 55, 78
1, 11513, Note_on_c, 0, 71, 0
1, 11513, Note_on_c, 0, 67, 0
1, 11513, Note_on_c, 1, 55, 0
1, 11520, Note_on_c, 0, 64, 78
1, 11520, Note_on_c, 1, 48, 78
1, 11550, Note_on_c, 0, 64, 0
1, 11552, Note_on_c, 0, 68, 78
1, 11582, Note_on_c, 0, 68, 0
1, 11584, Note_on_c, 0, 69, 78
1, 11614, Note_on_c, 0, 69, 0
1, 11616, Note_on_c, 0, 71, 78
1, 11646, Note_on_c, 0, 71, 0
1, 11648, Note_on_c, 0, 72, 78
1, 11678, Note_on_c, 0, 72, 0
1, 11680, Note_on_c, 0, 74, 78
1, 11710, Note_on_c, 0, 74, 0
1, 11712, Note_on_c, 0, 76, 78
1, 11742, Note_on_c, 0, 76, 0
1, 11744, Note_on_c, 0, 72, 78
1, 11774, Note_on_c, 0, 72, 0
1, 11776, Note_on_c, 0, 69, 78
1, 11785, Note_on_c, 1, 48, 0
1, 11806, Note_on_c, 0, 69, 0
1, 11808, Note_on_c, 0, 67, 78
1, 11808, Note_on_c, 1, 50, 78
1, 11897, Note_on_c, 1, 50, 0
1, 11904, Note_on_c, 1, 45, 78
1, 11993, Note_on_c, 1, 45, 0
1, 12000, Note_on_c, 0, 67, 0
1, 12000, Note_on_c, 0, 66, 78
1, 12000, Note_on_c, 1, 38, 78
1, 12089, Note_on_c, 0, 66, 0
1, 12089, Note_on_c, 1, 38, 0
1, 12096, Note_on_c, 1, 55, 78
1, 12126, Note_on_c, 1, 55, 0
1, 12128, Note_on_c, 1, 54, 78
1, 12158, Note_on_c, 1, 54, 0
1, 12160, Note_on_c, 1, 50, 78
1, 12190, Note_on_c, 1, 50, 0
1, 12192, Note_on_c, 1, 60, 78
1, 12192, Note_on_c, 1, 54, 78
1, 12192, Note_on_c, 1, 45, 78
1, 12288, Note_on_c, 1, 60, 0
1, 12288, Note_on_c, 1, 54, 0
1, 12288, Note_on_c, 1, 45, 0
1, 12288, Note_on_c, 1, 59, 78
1, 12288, Note_on_c, 1, 55, 78
1, 12288, Note_on_c, 1, 43, 78
1, 12377, Note_on_c, 1, 59, 0
1, 12377, Note_on_c, 1, 55, 0
1, 12377, Note_on_c, 1, 43, 0
1, 12384, Note_on_c, 0, 67, 78
1, 12414, Note_on_c, 0, 67, 0
1, 12416, Note_on_c, 0, 66, 78
1, 12446, Note_on_c, 0, 66, 0
1, 12448, Note_on_c, 0, 62, 78
1, 12478, Note_on_c, 0, 62, 0
1, 12480, Note_on_c, 0, 72, 78
1, 12480, Note_on_c, 0, 66, 78
1, 12480, Note_on_c, 0, 57, 78
1, 12576, Note_on_c, 0, 72, 0
1, 12576, Note_on_c, 0, 66, 0
1, 12576, Note_on_c, 0, 57, 0
1, 12576, Note_on_c, 0, 71, 78
1, 12576, Note_on_c, 0, 67, 78
1, 12576, Note_on_c, 0, 55, 78
1, 12665, Note_on_c, 0, 71, 0
1, 12665, Note_on_c, 0, 67, 0
1, 12665, Note_on_c, 0, 55, 0
1, 12672, Note_on_c, 0, 79, 78
1, 12702, Note_on_c, 0, 79, 0
1, 12704, Note_on_c, 0, 78, 78
1, 12734, Note_on_c, 0, 78, 0
1, 12736, Note_on_c, 0, 74, 78
1, 12766, Note_on_c, 0, 74, 0
1, 12768, Note_on_c, 0, 84, 78
1, 12768, Note_on_c, 0, 78, 78
1, 12768, Note_on_c, 0, 69, 78
1, 12864, Note_on_c, 0, 84, 0
1, 12864, Note_on_c, 0, 78, 0
1, 12864, Note_on_c, 0, 69, 0
1, 12864, Note_on_c, 0, 83, 78
1, 12864, Note_on_c, 0, 79, 78
1, 12864, Note_on_c, 0, 67, 78
1, 12953, Note_on_c, 0, 83, 0
1, 12953, Note_on_c, 0, 79, 0
1, 12953, Note_on_c, 0, 67, 0
1, 12960, Note_on_c, 0, 67, 78
1, 12990, Note_on_c, 0, 67, 0
1, 12992, Note_on_c, 0, 66, 78
1, 13022, Note_on_c, 0, 66, 0
1, 13024, Note_on_c, 0, 62, 78
1, 13054, Note_on_c, 0, 62, 0
1, 13056, Note_on_c, 0, 76, 78
1, 13056, Note_on_c, 0, 72, 78
1, 13056, Note_on_c, 1, 54, 78
1, 13164, Note_on_c, 0, 76, 0
1, 13164, Note_on_c, 0, 72, 0
1, 13164, Note_on_c, 0, 74, 78
1, 13164, Note_on_c, 0, 71, 78
1, 13164, Note_on_c, 1, 54, 0
1, 13164, Note_on_c, 1, 55, 78
1, 13425, Note_on_c, 0, 74, 0
1, 13425, Note_on_c, 0, 71, 0
1, 13425, Note_on_c, 1, 55, 0
1, 13536, Note_on_c, 0, 68, 78
1, 13536, Note_on_c, 1, 48, 78
1, 13566, Note_on_c, 0, 68, 0
1, 13568, Note_on_c, 0, 69, 79
1, 13598, Note_on_c, 0, 69, 0
1, 13600, Note_on_c, 0, 72, 80
1, 13625, Note_on_c, 1, 48, 0
1, 13630, Note_on_c, 0, 72, 0
1, 13632, Note_on_c, 0, 76, 81
1, 13662, Note_on_c, 0, 76, 0
1, 13664, Note_on_c, 0, 72, 82
1, 13694, Note_on_c, 0, 72, 0
1, 13696, Note_on_c, 0, 69, 83
1, 13726, Note_on_c, 0, 69, 0
1, 13728, Note_on_c, 0, 72, 84
1, 13728, Note_on_c, 1, 50, 78
1, 13758, Note_on_c, 0, 72, 0
1, 13760, Note_on_c, 0, 69, 84
1, 13790, Note_on_c, 0, 69, 0
1, 13792, Note_on_c, 0, 66, 84
1, 13817, Note_on_c, 1, 50, 0
1, 13822, Note_on_c, 0, 66, 0
1, 13824, Note_on_c, 0, 66, 83
1, 13824, Note_on_c, 0, 60, 83
1, 13824, Note_on_c, 1, 52, 78
1, 14016, Note_on_c, 0, 66, 0
1, 14016, Note_on_c, 0, 60, 0
1, 14016, Note_on_c, 0, 67, 80
1, 14016, Note_on_c, 0, 59, 80
1, 14089, Note_on_c, 1, 52, 0
1, 14105, Note_on_c, 0, 67, 0
1, 14105, Note_on_c, 0, 59, 0
1, 14112, Note_on_c, 0, 79, 78
1, 14142, Note_on_c, 0, 79, 0
1, 14144, Note_on_c, 0, 78, 78
1, 14174, Note_on_c, 0, 78, 0
1, 14176, Note_on_c, 0, 81, 78
1, 14206, Note_on_c, 0, 81, 0
1, 14208, Note_on_c, 0, 86, 94
1, 14208, Note_on_c, 1, 72, 78
1, 14208, Note_on_c, 1, 66, 78
1, 14304, Note_on_c, 1, 72, 0
1, 14304, Note_on_c, 1, 66, 0
1, 14304, Note_on_c, 1, 71, 78
1, 14304, Note_on_c, 1, 67, 78
1, 14334, Note_on_c, 0, 86, 0
1, 14336, Note_on_c, 0, 83, 78
1, 14366, Note_on_c, 0, 83, 0
1, 14368, Note_on_c, 0, 79, 78
1, 14393, Note_on_c, 1, 71, 0
1, 14393, Note_on_c, 1, 67, 0
1, 14398, Note_on_c, 0, 79, 0
1, 14400, Note_on_c, 0, 78, 78
1, 14430, Note_on_c, 0, 78, 0
1, 14432, Note_on_c, 0, 74, 78
1, 14462, Note_on_c, 0, 74, 0
1, 14464, Note_on_c, 0, 81, 78
1, 14494, Note_on_c, 0, 81, 0
1, 14496, Note_on_c, 0, 86, 94
1, 14496, Note_on_c, 1, 72, 78
1, 14496, Note_on_c, 1, 66, 78
1, 14592, Note_on_c, 1, 72, 0
1, 14592, Note_on_c, 1, 66, 0
1, 14592, Note_on_c, 1, 71, 78
1, 14592, Note_on_c, 1, 67, 78
1, 14622, Note_on_c, 0, 86, 0
1, 14624, Note_on_c, 0, 83, 78
1, 14654, Note_on_c, 0, 83, 0
1, 14656, Note_on_c, 0, 79, 78
1, 14681, Note_on_c, 1, 71, 0
1, 14681, Note_on_c, 1, 67, 0
1, 14686, Note_on_c, 0, 79, 0
1, 14688, Note_on_c, 0, 79, 78
1, 14718, Note_on_c, 0, 79, 0
1, 14720, Note_on_c, 0, 78, 78
1, 14750, Note_on_c, 0, 78, 0
1, 14752, Note_on_c, 0, 81, 78
1, 14782, Note_on_c, 0, 81, 0
1, 14784, Note_on_c, 0, 86, 94
1, 14784, Note_on_c, 1, 66, 78
1, 14784, Note_on_c, 1, 60, 78
1, 14880, Note_on_c, 1, 66, 0
1, 14880, Note_on_c, 1, 60, 0
1, 14880, Note_on_c, 1, 67, 78
1, 14880, Note_on_c, 1, 59, 78
1, 14910, Note_on_c, 0, 86, 0
1, 14912, Note_on_c, 0, 83, 78
1, 14942, Note_on_c, 0, 83, 0
1, 14944, Note_on_c, 0, 79, 78
1, 14969, Note_on_c, 1, 67, 0
1, 14969, Note_on_c, 1, 59, 0
1, 14974, Note_on_c, 0, 79, 0
1, 14976, Note_on_c, 0, 78, 78
1, 15006, Note_on_c, 0, 78, 0
1, 15008, Note_on_c, 0, 74, 78
1, 15038, Note_on_c, 0, 74, 0
1, 15040, Note_on_c, 0, 81, 78
1, 15070, Note_on_c, 0, 81, 0
1, 15072, Note_on_c, 0, 86, 94
1, 15072, Note_on_c, 1, 66, 78
1, 15072, Note_on_c, 1, 60, 78
1, 15168, Note_on_c, 1, 66, 0
1, 15168, Note_on_c, 1, 60, 0
1, 15168, Note_on_c, 1, 67, 78
1, 15168, Note_on_c, 1, 59, 78
1, 15198, Note_on_c, 0, 86, 0
1, 15200, Note_on_c, 0, 83, 78
1, 15230, Note_on_c, 0, 83, 0
1, 15232, Note_on_c, 0, 79, 78
1, 15262, Note_on_c, 0, 79, 0
1, 15264, Note_on_c, 0, 76, 78
1, 15264, Note_on_c, 1, 59, 0
1, 15264, Note_on_c, 1, 60, 64
1, 15294, Note_on_c, 0, 76, 0
1, 15296, Note_on_c, 0, 78, 78
1, 15326, Note_on_c, 0, 78, 0
1, 15328, Note_on_c, 0, 79, 78
1, 15353, Note_on_c, 1, 60, 0
1, 15358, Note_on_c, 0, 79, 0
1, 15360, Note_on_c, 0, 74, 78
1, 15360, Note_on_c, 1, 59, 64
1, 15390, Note_on_c, 0, 74, 0
1, 15392, Note_on_c, 0, 78, 78
1, 15422, Note_on_c, 0, 78, 0
1, 15424, Note_on_c, 0, 79, 78
1, 15441, Note_on_c, 1, 67, 0
1, 15449, Note_on_c, 1, 59, 0
1, 15454, Note_on_c, 0, 79, 0
1, 15456, Note_on_c, 0, 72, 78
1, 15456, Note_on_c, 1, 66, 78
1, 15456, Note_on_c, 1, 57, 64
1, 15486, Note_on_c, 0, 72, 0
1, 15488, Note_on_c, 0, 80, 78
1, 15518, Note_on_c, 0, 80, 0
1, 15520, Note_on_c, 0, 81, 78
1, 15545, Note_on_c, 1, 66, 0
1, 15545, Note_on_c, 1, 57, 0
1, 15550, Note_on_c, 0, 81, 0
1, 15552, Note_on_c, 0, 71, 78
1, 15552, Note_on_c, 1, 67, 78
1, 15552, Note_on_c, 1, 55, 64
1, 15582, Note_on_c, 0, 71, 0
1, 15584, Note_on_c, 0, 83, 78
1, 15614, Note_on_c, 0, 83, 0
1, 15616, Note_on_c, 0, 81, 78
1, 15641, Note_on_c, 1, 67, 0
1, 15641, Note_on_c, 1, 55, 0
1, 15646, Note_on_c, 0, 81, 0
1, 15648, Note_on_c, 0, 79, 78
1, 15678, Note_on_c, 0, 79, 0
1, 15680, Note_on_c, 0, 78, 78
1, 15710, Note_on_c, 0, 78, 0
1, 15712, Note_on_c, 0, 76, 78
1, 15742, Note_on_c, 0, 76, 0
1, 15744, Note_on_c, 0, 74, 78
1, 15774, Note_on_c, 0, 74, 0
1, 15776, Note_on_c, 0, 72, 78
1, 15806, Note_on_c, 0, 72, 0
1, 15808, Note_on_c, 0, 71, 78
1, 15838, Note_on_c, 0, 71, 0
1, 15840, Note_on_c, 0, 69, 78
1, 15840, Note_on_c, 1, 60, 78
1, 15840, Note_on_c, 1, 48, 78
1, 15870, Note_on_c, 0, 69, 0
1, 15872, Note_on_c, 0, 72, 78
1, 15902, Note_on_c, 0, 72, 0
1, 15904, Note_on_c, 0, 76, 78
1, 15929, Note_on_c, 1, 60, 0
1, 15929, Note_on_c, 1, 48, 0
1, 15934, Note_on_c, 0, 76, 0
1, 15936, Note_on_c, 0, 67, 78
1, 15936, Note_on_c, 1, 59, 78
1, 15936, Note_on_c, 1, 50, 78
1, 16025, Note_on_c, 0, 67, 0
1, 16025, Note_on_c, 1, 59, 0
1, 16025, Note_on_c, 1, 50, 0
1, 16032, Note_on_c, 0, 66, 78
1, 16032, Note_on_c, 0, 60, 64
1, 16032, Note_on_c, 1, 57, 78
1, 16032, Note_on_c, 1, 50, 78
1, 16044, Note_on_c, 0, 66, 0
1, 16044, Note_on_c, 0, 67, 78
1, 16056, Note_on_c, 0, 67, 0
1, 16056, Note_on_c, 0, 66, 78
1, 16121, Note_on_c, 0, 66, 0
1, 16121, Note_on_c, 0, 60, 0
1, 16121, Note_on_c, 1, 57, 0
1, 16121, Note_on_c, 1, 50, 0
1, 16128, Note_on_c, 0, 66, 78
1, 16128, Note_on_c, 0, 60, 78
1, 16128, Note_on_c, 1, 55, 78
1, 16217, Note_on_c, 1, 55, 0
1, 16224, Note_on_c, 1, 50, 78
1, 16313, Note_on_c, 1, 50, 0
1, 16320, Note_on_c, 0, 66, 0
1, 16320, Note_on_c, 0, 60, 0
1, 16320, Note_on_c, 0, 67, 78
1, 16320, Note_on_c, 0, 59, 78
1, 16320, Note_on_c, 1, 43, 78
1, 16409, Note_on_c, 0, 67, 0
1, 16409, Note_on_c, 0, 59, 0
1, 16409, Note_on_c, 1, 43, 0
1, 16416, Note_on_c, 0, 76, 78
1, 16416, Note_on_c, 1, 62, 71
1, 16434, Note_on_c, 0, 76, 0
1, 16434, Note_on_c, 0, 74, 78
1, 16446, Note_on_c, 1, 62, 0
1, 16448, Note_on_c, 1, 66, 71
1, 16452, Note_on_c, 0, 74, 0
1, 16452, Note_on_c, 0, 72, 78
1, 16470, Note_on_c, 0, 72, 0
1, 16470, Note_on_c, 0, 74, 78
1, 16478, Note_on_c, 1, 66, 0
1, 16480, Note_on_c, 1, 69, 71
1, 16505, Note_on_c, 0, 74, 0
1, 16510, Note_on_c, 1, 69, 0
1, 16512, Note_on_c, 0, 86, 78
1, 16512, Note_on_c, 1, 62, 71
1, 16542, Note_on_c, 0, 86, 0
1, 16542, Note_on_c, 1, 62, 0
1, 16544, Note_on_c, 0, 81, 78
1, 16544, Note_on_c, 1, 66, 71
1, 16574, Note_on_c, 0, 81, 0
1, 16574, Note_on_c, 1, 66, 0
1, 16576, Note_on_c, 0, 78, 78
1, 16576, Note_on_c, 1, 69, 71
1, 16606, Note_on_c, 0, 78, 0
1, 16606, Note_on_c, 1, 69, 0
1, 16608, Note_on_c, 0, 81, 78
1, 16608, Note_on_c, 1, 62, 71
1, 16638, Note_on_c, 0, 81, 0
1, 16638, Note_on_c, 1, 62, 0
1, 16640, Note_on_c, 0, 78, 78
1, 16640, Note_on_c, 1, 66, 71
1, 16670, Note_on_c, 0, 78, 0
1, 16670, Note_on_c, 1, 66, 0
1, 16672, Note_on_c, 0, 74, 78
1, 16672, Note_on_c, 1, 69, 71
1, 16702, Note_on_c, 0, 74, 0
1, 16702, Note_on_c, 1, 69, 0
1, 16704, Note_on_c, 0, 74, 78
1, 16704, Note_on_c, 1, 64, 71
1, 16734, Note_on_c, 1, 64, 0
1, 16736, Note_on_c, 1, 67, 71
1, 16766, Note_on_c, 1, 67, 0
1, 16768, Note_on_c, 1, 69, 71
1, 16798, Note_on_c, 1, 69, 0
1, 16800, Note_on_c, 1, 64, 71
1, 16830, Note_on_c, 1, 64, 0
1, 16832, Note_on_c, 1, 67, 71
1, 16862, Note_on_c, 1, 67, 0
1, 16864, Note_on_c, 1, 69, 71
1, 16894, Note_on_c, 1, 69, 0
1, 16896, Note_on_c, 0, 74, 0
1, 16896, Note_on_c, 0, 73, 78
1, 16896, Note_on_c, 1, 64, 71
1, 16908, Note_on_c, 0, 73, 0
1, 16908, Note_on_c, 0, 74, 78
1, 16920, Note_on_c, 0, 74, 0
1, 16920, Note_on_c, 0, 73, 78
1, 16926, Note_on_c, 1, 64, 0
1, 16928, Note_on_c, 1, 67, 71
1, 16958, Note_on_c, 1, 67, 0
1, 16960, Note_on_c, 1, 69, 71
1, 16985, Note_on_c, 0, 73, 0
1, 16990, Note_on_c, 1, 69, 0
1, 16992, Note_on_c, 1, 66, 78
1, 17022, Note_on_c, 1, 66, 0
1, 17024, Note_on_c, 1, 69, 78
1, 17054, Note_on_c, 1, 69, 0
1, 17056, Note_on_c, 1, 72, 78
1, 17086, Note_on_c, 1, 72, 0
1, 17088, Note_on_c, 0, 74, 78
1, 17118, Note_on_c, 0, 74, 0
1, 17120, Note_on_c, 0, 78, 78
1, 17150, Note_on_c, 0, 78, 0
1, 17152, Note_on_c, 0, 81, 78
1, 17182, Note_on_c, 0, 81, 0
1, 17184, Note_on_c, 0, 84, 78
1, 17214, Note_on_c, 0, 84, 0
1, 17216, Note_on_c, 0, 81, 78
1, 17246, Note_on_c, 0, 81, 0
1, 17248, Note_on_c, 0, 78, 78
1, 17278, Note_on_c, 0, 78, 0
1, 17280, Note_on_c, 0, 72, 78
1, 17280, Note_on_c, 1, 55, 71
1, 17310, Note_on_c, 1, 55, 0
1, 17312, Note_on_c, 1, 62, 71
1, 17342, Note_on_c, 1, 62, 0
1, 17344, Note_on_c, 1, 67, 71
1, 17374, Note_on_c, 1, 67, 0
1, 17376, Note_on_c, 0, 72, 0
1, 17376, Note_on_c, 0, 71, 78
1, 17376, Note_on_c, 1, 55, 71
1, 17388, Note_on_c, 0, 71, 0
1, 17388, Note_on_c, 0, 72, 78
1, 17400, Note_on_c, 0, 72, 0
1, 17400, Note_on_c, 0, 71, 78
1, 17406, Note_on_c, 1, 55, 0
1, 17408, Note_on_c, 1, 62, 71
1, 17438, Note_on_c, 1, 62, 0
1, 17440, Note_on_c, 1, 67, 71
1, 17465, Note_on_c, 0, 71, 0
1, 17470, Note_on_c, 1, 67, 0
1, 17472, Note_on_c, 0, 79, 78
1, 17472, Note_on_c, 1, 59, 71
1, 17502, Note_on_c, 1, 59, 0
1, 17504, Note_on_c, 1, 62, 71
1, 17534, Note_on_c, 1, 62, 0
1, 17536, Note_on_c, 1, 67, 71
1, 17561, Note_on_c, 0, 79, 0
1, 17566, Note_on_c, 1, 67, 0
1, 17568, Note_on_c, 0, 75, 78
1, 17568, Note_on_c, 1, 60, 71
1, 17598, Note_on_c, 1, 60, 0
1, 17600, Note_on_c, 1, 64, 71
1, 17616, Note_on_c, 0, 75, 0
1, 17616, Note_on_c, 0, 76, 78
1, 17630, Note_on_c, 1, 64, 0
1, 17632, Note_on_c, 1, 67, 71
1, 17661, Note_on_c, 0, 76, 0
1, 17662, Note_on_c, 1, 67, 0
1, 17664, Note_on_c, 0, 76, 78
1, 17664, Note_on_c, 1, 60, 71
1, 17694, Note_on_c, 1, 60, 0
1, 17696, Note_on_c, 1, 64, 71
1, 17726, Note_on_c, 1, 64, 0
1, 17728, Note_on_c, 1, 67, 71
1, 17753, Note_on_c, 0, 76, 0
1, 17758, Note_on_c, 1, 67, 0
1, 17760, Note_on_c, 0, 79, 78
1, 17760, Note_on_c, 1, 60, 71
1, 17790, Note_on_c, 1, 60, 0
1, 17792, Note_on_c, 1, 64, 71
1, 17822, Note_on_c, 1, 64, 0
1, 17824, Note_on_c, 1, 67, 71
1, 17849, Note_on_c, 0, 79, 0
1, 17854, Note_on_c, 1, 67, 0
1, 17856, Note_on_c, 0, 73, 78
1, 17856, Note_on_c, 1, 59, 71
1, 17886, Note_on_c, 1, 59, 0
1, 17888, Note_on_c, 1, 62, 71
1, 17904, Note_on_c, 0, 73, 0
1, 17904, Note_on_c, 0, 74, 78
1, 17918, Note_on_c, 1, 62, 0
1, 17920, Note_on_c, 1, 67, 71
1, 17949, Note_on_c, 0, 74, 0
1, 17950, Note_on_c, 1, 67, 0
1, 17952, Note_on_c, 0, 74, 78
1, 17952, Note_on_c, 1, 59, 71
1, 17982, Note_on_c, 1, 59, 0
1, 17984, Note_on_c, 1, 62, 71
1, 18014, Note_on_c, 1, 62, 0
1, 18016, Note_on_c, 1, 67, 71
1, 18041, Note_on_c, 0, 74, 0
1, 18046, Note_on_c, 1, 67, 0
1, 18048, Note_on_c, 0, 86, 78
1, 18048, Note_on_c, 1, 59, 71
1, 18078, Note_on_c, 0, 86, 0
1, 18078, Note_on_c, 1, 59, 0
1, 18080, Note_on_c, 0, 83, 78
1, 18080, Note_on_c, 1, 62, 71
1, 18110, Note_on_c, 0, 83, 0
1, 18110, Note_on_c, 1, 62, 0
1, 18112, Note_on_c, 0, 79, 78
1, 18112, Note_on_c, 1, 67, 71
1, 18142, Note_on_c, 0, 79, 0
1, 18142, Note_on_c, 1, 67, 0
1, 18144, Note_on_c, 0, 78, 78
1, 18144, Note_on_c, 1, 60, 71
1, 18174, Note_on_c, 1, 60, 0
1, 18176, Note_on_c, 1, 64, 71
1, 18206, Note_on_c, 1, 64, 0
1, 18208, Note_on_c, 1, 67, 71
1, 18233, Note_on_c, 0, 78, 0
1, 18238, Note_on_c, 1, 67, 0
1, 18240, Note_on_c, 0, 76, 78
1, 18240, Note_on_c, 1, 60, 71
1, 18252, Note_on_c, 0, 76, 0
1, 18252, Note_on_c, 0, 78, 78
1, 18264, Note_on_c, 0, 78, 0
1, 18264, Note_on_c, 0, 76, 78
1, 18270, Note_on_c, 1, 60, 0
1, 18272, Note_on_c, 1, 64, 71
1, 18302, Note_on_c, 1, 64, 0
1, 18304, Note_on_c, 1, 67, 71
1, 18329, Note_on_c, 0, 76, 0
1, 18334, Note_on_c, 1, 67, 0
1, 18336, Note_on_c, 0, 79, 78
1, 18336, Note_on_c, 1, 60, 71
1, 18366, Note_on_c, 0, 79, 0
1, 18366, Note_on_c, 1, 60, 0
1, 18368, Note_on_c, 0, 78, 78
1, 18368, Note_on_c, 1, 64, 71
1, 18398, Note_on_c, 0, 78, 0
1, 18398, Note_on_c, 1, 64, 0
1, 18400, Note_on_c, 0, 76, 78
1, 18400, Note_on_c, 1, 67, 71
1, 18430, Note_on_c, 0, 76, 0
1, 18430, Note_on_c, 1, 67, 0
1, 18432, Note_on_c, 0, 76, 78
1, 18432, Note_on_c, 1, 59, 71
1, 18462, Note_on_c, 1, 59, 0
1, 18464, Note_on_c, 1, 62, 71
1, 18494, Note_on_c, 1, 62, 0
1, 18496, Note_on_c, 1, 67, 71
1, 18521, Note_on_c, 0, 76, 0
1, 18526, Note_on_c, 1, 67, 0
1, 18528, Note_on_c, 0, 74, 78
1, 18528, Note_on_c, 1, 59, 71
1, 18540, Note_on_c, 0, 74, 0
1, 18540, Note_on_c, 0, 76, 78
1, 18552, Note_on_c, 0, 76, 0
1, 18552, Note_on_c, 0, 74, 78
1, 18558, Note_on_c, 1, 59, 0
1, 18560, Note_on_c, 1, 62, 71
1, 18590, Note_on_c, 1, 62, 0
1, 18592, Note_on_c, 1, 67, 71
1, 18617, Note_on_c, 0, 74, 0
1, 18622, Note_on_c, 1, 67, 0
1, 18624, Note_on_c, 0, 78, 78
1, 18624, Note_on_c, 1, 59, 71
1, 18654, Note_on_c, 0, 78, 0
1, 18654, Note_on_c, 1, 59, 0
1, 18656, Note_on_c, 0, 79, 78
1, 18656, Note_on_c, 1, 62, 71
1, 18686, Note_on_c, 0, 79, 0
1, 18686, Note_on_c, 1, 62, 0
1, 18688, Note_on_c, 0, 83, 78
1, 18688, Note_on_c, 1, 67, 71
1, 18718, Note_on_c, 0, 83, 0
1, 18718, Note_on_c, 1, 67, 0
1, 18720, Note_on_c, 0, 75, 78
1, 18720, Note_on_c, 1, 60, 71
1, 18750, Note_on_c, 0, 75, 0
1, 18752, Note_on_c, 0, 76, 78
1, 18782, Note_on_c, 0, 76, 0
1, 18784, Note_on_c, 0, 79, 79
1, 18809, Note_on_c, 1, 60, 0
1, 18814, Note_on_c, 0, 79, 0
1, 18816, Note_on_c, 0, 71, 80
1, 18846, Note_on_c, 0, 71, 0
1, 18848, Note_on_c, 0, 72, 80
1, 18878, Note_on_c, 0, 72, 0
1, 18880, Note_on_c, 0, 76, 81
1, 18910, Note_on_c, 0, 76, 0
1, 18912, Note_on_c, 0, 68, 82
1, 18942, Note_on_c, 0, 68, 0
1, 18944, Note_on_c, 0, 69, 83
1, 18974, Note_on_c, 0, 69, 0
1, 18976, Note_on_c, 0, 72, 83
1, 19006, Note_on_c, 0, 72, 0
1, 19008, Note_on_c, 0, 67, 85
1, 19008, Note_on_c, 1, 50, 71
1, 19097, Note_on_c, 1, 50, 0
1, 19104, Note_on_c, 1, 62, 64
1, 19134, Note_on_c, 1, 62, 0
1, 19136, Note_on_c, 1, 64, 66
1, 19166, Note_on_c, 1, 64, 0
1, 19168, Note_on_c, 1, 62, 68
1, 19198, Note_on_c, 1, 62, 0
1, 19200, Note_on_c, 0, 67, 0
1, 19200, Note_on_c, 0, 66, 80
1, 19200, Note_on_c, 1, 60, 70
1, 19212, Note_on_c, 0, 66, 0
1, 19212, Note_on_c, 0, 67, 80
1, 19224, Note_on_c, 0, 67, 0
1, 19224, Note_on_c, 0, 66, 80
1, 19230, Note_on_c, 1, 60, 0
1, 19232, Note_on_c, 1, 59, 72
1, 19262, Note_on_c, 1, 59, 0
1, 19264, Note_on_c, 1, 57, 74
1, 19289, Note_on_c, 0, 66, 0
1, 19294, Note_on_c, 1, 57, 0
1, 19296, Note_on_c, 0, 76, 78
1, 19296, Note_on_c, 1, 59, 78
1, 19296, Note_on_c, 1, 55, 78
1, 19314, Note_on_c, 0, 76, 0
1, 19314, Note_on_c, 0, 74, 78
1, 19332, Note_on_c, 0, 74, 0
1, 19332, Note_on_c, 0, 72, 78
1, 19350, Note_on_c, 0, 72, 0
1, 19350, Note_on_c, 0, 74, 78
1, 19385, Note_on_c, 0, 74, 0
1, 19385, Note_on_c, 1, 59, 0
1, 19385, Note_on_c, 1, 55, 0
1, 19392, Note_on_c, 0, 79, 78
1, 19422, Note_on_c, 0, 79, 0
1, 19424, Note_on_c, 0, 74, 78
1, 19454, Note_on_c, 0, 74, 0
1, 19456, Note_on_c, 0, 71, 78
1, 19486, Note_on_c, 0, 71, 0
1, 19488, Note_on_c, 0, 74, 78
1, 19488, Note_on_c, 1, 62, 78
1, 19488, Note_on_c, 1, 59, 78
1, 19518, Note_on_c, 0, 74, 0
1, 19520, Note_on_c, 0, 71, 78
1, 19550, Note_on_c, 0, 71, 0
1, 19552, Note_on_c, 0, 67, 78
1, 19577, Note_on_c, 1, 62, 0
1, 19577, Note_on_c, 1, 59, 0
1, 19582, Note_on_c, 0, 67, 0
1, 19584, Note_on_c, 0, 67, 78
1, 19584, Note_on_c, 1, 60, 78
1, 19584, Note_on_c, 1, 57, 78
1, 19614, Note_on_c, 0, 67, 0
1, 19616, Note_on_c, 0, 66, 78
1, 19646, Note_on_c, 0, 66, 0
1, 19648, Note_on_c, 0, 62, 78
1, 19673, Note_on_c, 1, 60, 0
1, 19673, Note_on_c, 1, 57, 0
1, 19678, Note_on_c, 0, 62, 0
1, 19680, Note_on_c, 0, 72, 78
1, 19680, Note_on_c, 0, 69, 78
1, 19680, Note_on_c, 1, 54, 78
1, 19776, Note_on_c, 0, 72, 0
1, 19776, Note_on_c, 0, 69, 0
1, 19776, Note_on_c, 0, 71, 78
1, 19776, Note_on_c, 0, 67, 78
1, 19776, Note_on_c, 1, 54, 0
1, 19776, Note_on_c, 1, 55, 78
1, 19865, Note_on_c, 0, 71, 0
1, 19865, Note_on_c, 0, 67, 0
1, 19865, Note_on_c, 1, 55, 0
1, 19872, Note_on_c, 0, 64, 78
1, 19872, Note_on_c, 1, 48, 78
1, 19902, Note_on_c, 0, 64, 0
1, 19904, Note_on_c, 0, 68, 78
1, 19934, Note_on_c, 0, 68, 0
1, 19936, Note_on_c, 0, 69, 78
1, 19966, Note_on_c, 0, 69, 0
1, 19968, Note_on_c, 0, 71, 78
1, 19998, Note_on_c, 0, 71, 0
1, 20000, Note_on_c, 0, 72, 78
1, 20030, Note_on_c, 0, 72, 0
1, 20032, Note_on_c, 0, 74, 78
1, 20062, Note_on_c, 0, 74, 0
1, 20064, Note_on_c, 0, 76, 78
1, 20094, Note_on_c, 0, 76, 0
1, 20096, Note_on_c, 0, 72, 78
1, 20126, Note_on_c, 0, 72, 0
1, 20128, Note_on_c, 0, 69, 78
1, 20137, Note_on_c, 1, 48, 0
1, 20158, Note_on_c, 0, 69, 0
1, 20160, Note_on_c, 0, 67, 78
1, 20160, Note_on_c, 1, 50, 78
1, 20249, Note_on_c, 1, 50, 0
1, 20256, Note_on_c, 1, 45, 78
1, 20345, Note_on_c, 1, 45, 0
1, 20352, Note_on_c, 0, 67, 0
1, 20352, Note_on_c, 0, 66, 78
1, 20352, Note_on_c, 1, 38, 78
1, 20441, Note_on_c, 0, 66, 0
1, 20441, Note_on_c, 1, 38, 0
1, 20448, Note_on_c, 1, 55, 78
1, 20478, Note_on_c, 1, 55, 0
1, 20480, Note_on_c, 1, 54, 78
1, 20510, Note_on_c, 1, 54, 0
1, 20512, Note_on_c, 1, 50, 78
1, 20542, Note_on_c, 1, 50, 0
1, 20544, Note_on_c, 1, 60, 78
1, 20544, Note_on_c, 1, 54, 78
1, 20544, Note_on_c, 1, 45, 78
1, 20640, Note_on_c, 1, 60, 0
1, 20640, Note_on_c, 1, 54, 0
1, 20640, Note_on_c, 1, 45, 0
1, 20640, Note_on_c, 1, 59, 78
1, 20640, Note_on_c, 1, 55, 78
1, 20640, Note_on_c, 1, 43, 78
1, 20729, Note_on_c, 1, 59, 0
1, 20729, Note_on_c, 1, 55, 0
1, 20729, Note_on_c, 1, 43, 0
1, 20736, Note_on_c, 0, 67, 78
1, 20766, Note_on_c, 0, 67, 0
1, 20768, Note_on_c, 0, 66, 78
1, 20798, Note_on_c, 0, 66, 0
1, 20800, Note_on_c, 0, 62, 78
1, 20830, Note_on_c, 0, 62, 0
1, 20832, Note_on_c, 0, 72, 78
1, 20832, Note_on_c, 0, 66, 78
1, 20832, Note_on_c, 0, 57, 78
1, 20928, Note_on_c, 0, 72, 0
1, 20928, Note_on_c, 0, 66, 0
1, 20928, Note_on_c, 0, 57, 0
1, 20928, Note_on_c, 0, 71, 78
1, 20928, Note_on_c, 0, 67, 78
1, 20928, Note_on_c, 0, 55, 78
1, 21017, Note_on_c, 0, 71, 0
1, 21017, Note_on_c, 0, 67, 0
1, 21017, Note_on_c, 0, 55, 0
1, 21024, Note_on_c, 0, 79, 78
1, 21054, Note_on_c, 0, 79, 0
1, 21056, Note_on_c, 0, 78, 78
1, 21086, Note_on_c, 0, 78, 0
1, 21088, Note_on_c, 0, 74, 78
1, 21118, Note_on_c, 0, 74, 0
1, 21120, Note_on_c, 0, 84, 78
1, 21120, Note_on_c, 0, 78, 78
1, 21120, Note_on_c, 0, 69, 78
1, 21216, Note_on_c, 0, 84, 0
1, 21216, Note_on_c, 0, 78, 0
1, 21216, Note_on_c, 0, 69, 0
1, 21216, Note_on_c, 0, 83, 78
1, 21216, Note_on_c, 0, 79, 78
1, 21216, Note_on_c, 0, 67, 78
1, 21305, Note_on_c, 0, 83, 0
1, 21305, Note_on_c, 0, 79, 0
1, 21305, Note_on_c, 0, 67, 0
1, 21312, Note_on_c, 0, 67, 78
1, 21342, Note_on_c, 0, 67, 0
1, 21344, Note_on_c, 0, 66, 78
1, 21374, Note_on_c, 0, 66, 0
1, 21376, Note_on_c, 0, 62, 78
1, 21406, Note_on_c, 0, 62, 0
1, 21408, Note_on_c, 0, 76, 78
1, 21408, Note_on_c, 0, 72, 78
1, 21408, Note_on_c, 1, 54, 78
1, 21516, Note_on_c, 0, 76, 0
1, 21516, Note_on_c, 0, 72, 0
1, 21516, Note_on_c, 0, 74, 78
1, 21516, Note_on_c, 0, 71, 78
1, 21516, Note_on_c, 1, 54, 0
1, 21516, Note_on_c, 1, 55, 78
1, 21777, Note_on_c, 0, 74, 0
1, 21777, Note_on_c, 0, 71, 0
1, 21777, Note_on_c, 1, 55, 0
1, 21888, Note_on_c, 0, 68, 78
1, 21888, Note_on_c, 1, 48, 78
1, 21918, Note_on_c, 0, 68, 0
1, 21920, Note_on_c, 0, 69, 79
1, 21950, Note_on_c, 0, 69, 0
1, 21952, Note_on_c, 0, 72, 80
1, 21977, Note_on_c, 1, 48, 0
1, 21982, Note_on_c, 0, 72, 0
1, 21984, Note_on_c, 0, 76, 81
1, 22014, Note_on_c, 0, 76, 0
1, 22016, Note_on_c, 0, 72, 82
1, 22046, Note_on_c, 0, 72, 0
1, 22048, Note_on_c, 0, 69, 83
1, 22078, Note_on_c, 0, 69, 0
1, 22080, Note_on_c, 0, 72, 84
1, 22080, Note_on_c, 1, 50, 78
1, 22110, Note_on_c, 0, 72, 0
1, 22112, Note_on_c, 0, 69, 84
1, 22142, Note_on_c, 0, 69, 0
1, 22144, Note_on_c, 0, 66, 84
1, 22169, Note_on_c, 1, 50, 0
1, 22174, Note_on_c, 0, 66, 0
1, 22176, Note_on_c, 0, 66, 83
1, 22176, Note_on_c, 0, 60, 83
1, 22176, Note_on_c, 1, 52, 78
1, 22368, Note_on_c, 0, 66, 0
1, 22368, Note_on_c, 0, 60, 0
1, 22368, Note_on_c, 0, 67, 80
1, 22368, Note_on_c, 0, 59, 80
1, 22441, Note_on_c, 1, 52, 0
1, 22457, Note_on_c, 0, 67, 0
1, 22457, Note_on_c, 0, 59, 0
1, 22464, Note_on_c, 0, 79, 78
1, 22494, Note_on_c, 0, 79, 0
1, 22496, Note_on_c, 0, 78, 78
1, 22526, Note_on_c, 0, 78, 0
1, 22528, Note_on_c, 0, 81, 78
1, 22558, Note_on_c, 0, 81, 0
1, 22560, Note_on_c, 0, 86, 94
1, 22560, Note_on_c, 1, 72, 78
1, 22560, Note_on_c, 1, 66, 78
1, 22656, Note_on_c, 1, 72, 0
1, 22656, Note_on_c, 1, 66, 0
1, 22656, Note_on_c, 1, 71, 78
1, 22656, Note_on_c, 1, 67, 78
1, 22686, Note_on_c, 0, 86, 0
1, 22688, Note_on_c, 0, 83, 78
1, 22718, Note_on_c, 0, 83, 0
1, 22720, Note_on_c, 0, 79, 78
1, 22745, Note_on_c, 1, 71, 0
1, 22745, Note_on_c, 1, 67, 0
1, 22750, Note_on_c, 0, 79, 0
1, 22752, Note_on_c, 0, 78, 78
1, 22782, Note_on_c, 0, 78, 0
1, 22784, Note_on_c, 0, 74, 78
1, 22814, Note_on_c, 0, 74, 0
1, 22816, Note_on_c, 0, 81, 78
1, 22846, Note_on_c, 0, 81, 0
1, 22848, Note_on_c, 0, 86, 94
1, 22848, Note_on_c, 1, 72, 78
1, 22848, Note_on_c, 1, 66, 78
1, 22944, Note_on_c, 1, 72, 0
1, 22944, Note_on_c, 1, 66, 0
1, 22944, Note_on_c, 1, 71, 78
1, 22944, Note_on_c, 1, 67, 78
1, 22974, Note_on_c, 0, 86, 0
1, 22976, Note_on_c, 0, 83, 78
1, 23006, Note_on_c, 0, 83, 0
1, 23008, Note_on_c, 0, 79, 78
1, 23033, Note_on_c, 1, 71, 0
1, 23033, Note_on_c, 1, 67, 0
1, 23038, Note_on_c, 0, 79, 0
1, 23040, Note_on_c, 0, 79, 78
1, 23070, Note_on_c, 0, 79, 0
1, 23072, Note_on_c, 0, 78, 78
1, 23102, Note_on_c, 0, 78, 0
1, 23104, Note_on_c, 0, 81, 78
1, 23134, Note_on_c, 0, 81, 0
1, 23136, Note_on_c, 0, 86, 94
1, 23136, Note_on_c, 1, 66, 78
1, 23136, Note_on_c, 1, 60, 78
1, 23232, Note_on_c, 1, 66, 0
1, 23232, Note_on_c, 1, 60, 0
1, 23232, Note_on_c, 1, 67, 78
1, 23232, Note_on_c, 1, 59, 78
1, 23262, Note_on_c, 0, 86, 0
1, 23264, Note_on_c, 0, 83, 78
1, 23294, Note_on_c, 0, 83, 0
1, 23296, Note_on_c, 0, 79, 78
1, 23321, Note_on_c, 1, 67, 0
1, 23321, Note_on_c, 1, 59, 0
1, 23326, Note_on_c, 0, 79, 0
1, 23328, Note_on_c, 0, 78, 78
1, 23358, Note_on_c, 0, 78, 0
1, 23360, Note_on_c, 0, 74, 78
1, 23390, Note_on_c, 0, 74, 0
1, 23392, Note_on_c, 0, 81, 78
1, 23422, Note_on_c, 0, 81, 0
1, 23424, Note_on_c, 0, 86, 94
1, 23424, Note_on_c, 1, 66, 78
1, 23424, Note_on_c, 1, 60, 78
1, 23520, Note_on_c, 1, 66, 0
1, 23520, Note_on_c, 1, 60, 0
1, 23520, Note_on_c, 1, 67, 78
1, 23520, Note_on_c, 1, 59, 78
1, 23550, Note_on_c, 0, 86, 0
1, 23552, Note_on_c, 0, 83, 78
1, 23582, Note_on_c, 0, 83, 0
1, 23584, Note_on_c, 0, 79, 78
1, 23614, Note_on_c, 0, 79, 0
1, 23616, Note_on_c, 0, 76, 78
1, 23616, Note_on_c, 1, 59, 0
1, 23616, Note_on_c, 1, 60, 64
1, 23646, Note_on_c, 0, 76, 0
1, 23648, Note_on_c, 0, 78, 78
1, 23678, Note_on_c, 0, 78, 0
1, 23680, Note_on_c, 0, 79, 78
1, 23705, Note_on_c, 1, 60, 0
1, 23710, Note_on_c, 0, 79, 0
1, 23712, Note_on_c, 0, 74, 78
1, 23712, Note_on_c, 1, 59, 64
1, 23742, Note_on_c, 0, 74, 0
1, 23744, Note_on_c, 0, 78, 78
1, 23774, Note_on_c, 0, 78, 0
1, 23776, Note_on_c, 0, 79, 78
1, 23793, Note_on_c, 1, 67, 0
1, 23801, Note_on_c, 1, 59, 0
1, 23806, Note_on_c, 0, 79, 0
1, 23808, Note_on_c, 0, 72, 78
1, 23808, Note_on_c, 1, 66, 78
1, 23808, Note_on_c, 1, 57, 64
1, 23838, Note_on_c, 0, 72, 0
1, 23840, Note_on_c, 0, 80, 78
1, 23870, Note_on_c, 0, 80, 0
1, 23872, Note_on_c, 0, 81, 78
1, 23897, Note_on_c, 1, 66, 0
1, 23897, Note_on_c, 1, 57, 0
1, 23902, Note_on_c, 0, 81, 0
1, 23904, Note_on_c, 0, 71, 78
1, 23904, Note_on_c, 1, 67, 78
1, 23904, Note_on_c, 1, 55, 64
1, 23934, Note_on_c, 0, 71, 0
1, 23936, Note_on_c, 0, 83, 78
1, 23966, Note_on_c, 0, 83, 0
1, 23968, Note_on_c, 0, 81, 78
1, 23993, Note_on_c, 1, 67, 0
1, 23993, Note_on_c, 1, 55, 0
1, 23998, Note_on_c, 0, 81, 0
1, 24000, Note_on_c, 0, 79, 78
1, 24030, Note_on_c, 0, 79, 0
1, 24032, Note_on_c, 0, 78, 78
1, 24062, Note_on_c, 0, 78, 0
1, 24064, Note_on_c, 0, 76, 78
1, 24094, Note_on_c, 0, 76, 0
1, 24096, Note_on_c, 0, 74, 78
1, 24126, Note_on_c, 0, 74, 0
1, 24128, Note_on_c, 0, 72, 78
1, 24158, Note_on_c, 0, 72, 0
1, 24160, Note_on_c, 0, 71, 78
1, 24190, Note_on_c, 0, 71, 0
1, 24192, Note_on_c, 0, 69, 78
1, 24192, Note_on_c, 1, 60, 78
1, 24192, Note_on_c, 1, 48, 78
1, 24222, Note_on_c, 0, 69, 0
1, 24224, Note_on_c, 0, 72, 78
1, 24254, Note_on_c, 0, 72, 0
1, 24256, Note_on_c, 0, 76, 78
1, 24281, Note_on_c, 1, 60, 0
1, 24281, Note_on_c, 1, 48, 0
1, 24286, Note_on_c, 0, 76, 0
1, 24288, Note_on_c, 0, 67, 78
1, 24288, Note_on_c, 1, 59, 78
1, 24288, Note_on_c, 1, 50, 78
1, 24377, Note_on_c, 0, 67, 0
1, 24377, Note_on_c, 1, 59, 0
1, 24377, Note_on_c, 1, 50, 0
1, 24384, Note_on_c, 0, 66, 78
1, 24384, Note_on_c, 0, 60, 64
1, 24384, Note_on_c, 1, 57, 78
1, 24384, Note_on_c, 1, 50, 78
1, 24396, Note_on_c, 0, 66, 0
1, 24396, Note_on_c, 0, 67, 78
1, 24408, Note_on_c, 0, 67, 0
1, 24408, Note_on_c, 0, 66, 78
1, 24473, Note_on_c, 0, 66, 0
1, 24473, Note_on_c, 0, 60, 0
1, 24473, Note_on_c, 1, 57, 0
1, 24473, Note_on_c, 1, 50, 0
1, 24480, Note_on_c, 0, 66, 78
1, 24480, Note_on_c, 0, 60, 78
1, 24480, Note_on_c, 1, 55, 78
1, 24569, Note_on_c, 1, 55, 0
1, 24576, Note_on_c, 1, 50, 78
1, 24665, Note_on_c, 1, 50, 0
1, 24672, Note_on_c, 0, 66, 0
1, 24672, Note_on_c, 0, 60, 0
1, 24672, Note_on_c, 0, 67, 78
1, 24672, Note_on_c, 0, 59, 78
1, 24672, Note_on_c, 1, 43, 78
1, 24761, Note_on_c, 0, 67, 0
1, 24761, Note_on_c, 0, 59, 0
1, 24761, Note_on_c, 1, 43, 0
1, 24768, Note_on_c, 0, 74, 64
1, 24768, Note_on_c, 1, 58, 64
1, 24768, Note_on_c, 1, 55, 64
1, 24857, Note_on_c, 1, 58, 0
1, 24857, Note_on_c, 1, 55, 0
1, 24864, Note_on_c, 1, 70, 64
1, 24864, Note_on_c, 1, 67, 64
1, 24945, Note_on_c, 0, 74, 0
1, 24953, Note_on_c, 1, 70, 0
1, 24953, Note_on_c, 1, 67, 0
1, 24960, Note_on_c, 0, 77, 64
1, 24960, Note_on_c, 1, 69, 64
1, 24960, Note_on_c, 1, 66, 64
1, 24978, Note_on_c, 0, 77, 0
1, 24978, Note_on_c, 0, 75, 64
1, 25049, Note_on_c, 0, 75, 0
1, 25049, Note_on_c, 1, 69, 0
1, 25049, Note_on_c, 1, 66, 0
1, 25056, Note_on_c, 0, 74, 64
1, 25056, Note_on_c, 1, 70, 64
1, 25056, Note_on_c, 1, 67, 64
1, 25101, Note_on_c, 0, 74, 0
1, 25104, Note_on_c, 0, 82, 64
1, 25145, Note_on_c, 1, 70, 0
1, 25145, Note_on_c, 1, 67, 0
1, 25149, Note_on_c, 0, 82, 0
1, 25152, Note_on_c, 0, 81, 64
1, 25197, Note_on_c, 0, 81, 0
1, 25200, Note_on_c, 0, 79, 64
1, 25245, Note_on_c, 0, 79, 0
1, 25248, Note_on_c, 0, 78, 64
1, 25293, Note_on_c, 0, 78, 0
1, 25296, Note_on_c, 0, 79, 64
1, 25341, Note_on_c, 0, 79, 0
1, 25344, Note_on_c, 0, 74, 64
1, 25344, Note_on_c, 1, 57, 64
1, 25344, Note_on_c, 1, 54, 64
1, 25433, Note_on_c, 1, 57, 0
1, 25433, Note_on_c, 1, 54, 0
1, 25440, Note_on_c, 1, 69, 64
1, 25440, Note_on_c, 1, 66, 64
1, 25521, Note_on_c, 0, 74, 0
1, 25529, Note_on_c, 1, 69, 0
1, 25529, Note_on_c, 1, 66, 0
1, 25536, Note_on_c, 0, 77, 64
1, 25536, Note_on_c, 1, 70, 64
1, 25536, Note_on_c, 1, 67, 64
1, 25554, Note_on_c, 0, 77, 0
1, 25554, Note_on_c, 0, 75, 64
1, 25625, Note_on_c, 0, 75, 0
1, 25625, Note_on_c, 1, 70, 0
1, 25625, Note_on_c, 1, 67, 0
1, 25632, Note_on_c, 0, 74, 64
1, 25632, Note_on_c, 1, 69, 64
1, 25632, Note_on_c, 1, 66, 64
1, 25677, Note_on_c, 0, 74, 0
1, 25680, Note_on_c, 0, 84, 64
1, 25721, Note_on_c, 1, 69, 0
1, 25721, Note_on_c, 1, 66, 0
1, 25725, Note_on_c, 0, 84, 0
1, 25728, Note_on_c, 0, 81, 64
1, 25773, Note_on_c, 0, 81, 0
1, 25776, Note_on_c, 0, 78, 64
1, 25821, Note_on_c, 0, 78, 0
1, 25824, Note_on_c, 0, 74, 64
1, 25869, Note_on_c, 0, 74, 0
1, 25872, Note_on_c, 0, 72, 64
1, 25917, Note_on_c, 0, 72, 0
1, 25920, Note_on_c, 0, 72, 64
1, 25933, Note_on_c, 0, 72, 0
1, 25934, Note_on_c, 0, 70, 64
1, 25947, Note_on_c, 0, 70, 0
1, 25948, Note_on_c, 0, 72, 64
1, 25961, Note_on_c, 0, 72, 0
1, 25962, Note_on_c, 0, 70, 64
1, 25975, Note_on_c, 0, 70, 0
1, 25976, Note_on_c, 0, 72, 64
1, 25989, Note_on_c, 0, 72, 0
1, 25990, Note_on_c, 0, 70, 64
1, 26003, Note_on_c, 0, 70, 0
1, 26004, Note_on_c, 0, 72, 65
1, 26016, Note_on_c, 1, 62, 65
1, 26016, Note_on_c, 1, 55, 65
1, 26017, Note_on_c, 0, 72, 0
1, 26018, Note_on_c, 0, 70, 65
1, 26031, Note_on_c, 0, 70, 0
1, 26032, Note_on_c, 0, 72, 65
1, 26045, Note_on_c, 0, 72, 0
1, 26046, Note_on_c, 0, 70, 65
1, 26059, Note_on_c, 0, 70, 0
1, 26060, Note_on_c, 0, 72, 65
1, 26072, Note_on_c, 0, 72, 0
1, 26073, Note_on_c, 0, 70, 66
1, 26085, Note_on_c, 0, 70, 0
1, 26086, Note_on_c, 0, 69, 66
1, 26098, Note_on_c, 0, 69, 0
1, 26099, Note_on_c, 0, 70, 66
1, 26105, Note_on_c, 1, 62, 0
1, 26105, Note_on_c, 1, 55, 0
1, 26111, Note_on_c, 0, 70, 0
1, 26112, Note_on_c, 0, 69, 66
1, 26112, Note_on_c, 1, 62, 67
1, 26112, Note_on_c, 1, 54, 67
1, 26132, Note_on_c, 0, 69, 0
1, 26201, Note_on_c, 1, 62, 0
1, 26201, Note_on_c, 1, 54, 0
1, 26208, Note_on_c, 0, 74, 68
1, 26221, Note_on_c, 0, 74, 0
1, 26222, Note_on_c, 0, 72, 68
1, 26235, Note_on_c, 0, 72, 0
1, 26236, Note_on_c, 0, 74, 68
1, 26249, Note_on_c, 0, 74, 0
1, 26250, Note_on_c, 0, 72, 68
1, 26263, Note_on_c, 0, 72, 0
1, 26264, Note_on_c, 0, 74, 69
1, 26277, Note_on_c, 0, 74, 0
1, 26278, Note_on_c, 0, 72, 69
1, 26291, Note_on_c, 0, 72, 0
1, 26292, Note_on_c, 0, 74, 69
1, 26304, Note_on_c, 1, 62, 70
1, 26304, Note_on_c, 1, 54, 70
1, 26305, Note_on_c, 0, 74, 0
1, 26306, Note_on_c, 0, 72, 69
1, 26319, Note_on_c, 0, 72, 0
1, 26320, Note_on_c, 0, 74, 69
1, 26333, Note_on_c, 0, 74, 0
1, 26334, Note_on_c, 0, 72, 70
1, 26347, Note_on_c, 0, 72, 0
1, 26348, Note_on_c, 0, 74, 70
1, 26360, Note_on_c, 0, 74, 0
1, 26361, Note_on_c, 0, 72, 70
1, 26373, Note_on_c, 0, 72, 0
1, 26374, Note_on_c, 0, 70, 70
1, 26386, Note_on_c, 0, 70, 0
1, 26387, Note_on_c, 0, 72, 70
1, 26393, Note_on_c, 1, 62, 0
1, 26393, Note_on_c, 1, 54, 0
1, 26399, Note_on_c, 0, 72, 0
1, 26400, Note_on_c, 0, 70, 71
1, 26400, Note_on_c, 1, 62, 71
1, 26400, Note_on_c, 1, 55, 71
1, 26420, Note_on_c, 0, 70, 0
1, 26489, Note_on_c, 1, 62, 0
1, 26489, Note_on_c, 1, 55, 0
1, 26496, Note_on_c, 0, 67, 72
1, 26496, Note_on_c, 1, 51, 73
1, 26541, Note_on_c, 0, 67, 0
1, 26544, Note_on_c, 0, 79, 73
1, 26585, Note_on_c, 1, 51, 0
1, 26589, Note_on_c, 0, 79, 0
1, 26592, Note_on_c, 0, 77, 74
1, 26637, Note_on_c, 0, 77, 0
1, 26640, Note_on_c, 0, 75, 74
1, 26685, Note_on_c, 0, 75, 0
1, 26688, Note_on_c, 0, 74, 75
1, 26688, Note_on_c, 1, 67, 76
1, 26688, Note_on_c, 1, 63, 76
1, 26733, Note_on_c, 0, 74, 0
1, 26736, Note_on_c, 0, 73, 76
1, 26777, Note_on_c, 1, 67, 0
1, 26777, Note_on_c, 1, 63, 0
1, 26781, Note_on_c, 0, 73, 0
1, 26784, Note_on_c, 0, 73, 78
1, 26784, Note_on_c, 1, 67, 78
1, 26784, Note_on_c, 1, 62, 64
1, 26976, Note_on_c, 0, 73, 0
1, 26976, Note_on_c, 0, 74, 78
1, 26976, Note_on_c, 1, 67, 0
1, 26976, Note_on_c, 1, 66, 78
1, 27049, Note_on_c, 1, 62, 0
1, 27065, Note_on_c, 0, 74, 0
1, 27065, Note_on_c, 1, 66, 0
1, 27072, Note_on_c, 0, 74, 64
1, 27072, Note_on_c, 1, 58, 64
1, 27072, Note_on_c, 1, 55, 64
1, 27161, Note_on_c, 1, 58, 0
1, 27161, Note_on_c, 1, 55, 0
1, 27168, Note_on_c, 1, 70, 64
1, 27168, Note_on_c, 1, 67, 64
1, 27249, Note_on_c, 0, 74, 0
1, 27257, Note_on_c, 1, 70, 0
1, 27257, Note_on_c, 1, 67, 0
1, 27264, Note_on_c, 0, 77, 64
1, 27264, Note_on_c, 1, 69, 64
1, 27264, Note_on_c, 1, 66, 64
1, 27282, Note_on_c, 0, 77, 0
1, 27282, Note_on_c, 0, 75, 64
1, 27353, Note_on_c, 0, 75, 0
1, 27353, Note_on_c, 1, 69, 0
1, 27353, Note_on_c, 1, 66, 0
1, 27360, Note_on_c, 0, 74, 64
1, 27360, Note_on_c, 1, 70, 64
1, 27360, Note_on_c, 1, 67, 64
1, 27405, Note_on_c, 0, 74, 0
1, 27408, Note_on_c, 0, 82, 64
1, 27449, Note_on_c, 1, 70, 0
1, 27449, Note_on_c, 1, 67, 0
1, 27453, Note_on_c, 0, 82, 0
1, 27456, Note_on_c, 0, 81, 64
1, 27501, Note_on_c, 0, 81, 0
1, 27504, Note_on_c, 0, 79, 64
1, 27549, Note_on_c, 0, 79, 0
1, 27552, Note_on_c, 0, 78, 64
1, 27597, Note_on_c, 0, 78, 0
1, 27600, Note_on_c, 0, 79, 64
1, 27645, Note_on_c, 0, 79, 0
1, 27648, Note_on_c, 0, 74, 64
1, 27648, Note_on_c, 1, 57, 64
1, 27648, Note_on_c, 1, 54, 64
1, 27737, Note_on_c, 1, 57, 0
1, 27737, Note_on_c, 1, 54, 0
1, 27744, Note_on_c, 1, 69, 64
1, 27744, Note_on_c, 1, 66, 64
1, 27825, Note_on_c, 0, 74, 0
1, 27833, Note_on_c, 1, 69, 0
1, 27833, Note_on_c, 1, 66, 0
1, 27840, Note_on_c, 0, 77, 64
1, 27840, Note_on_c, 1, 70, 64
1, 27840, Note_on_c, 1, 67, 64
1, 27858, Note_on_c, 0, 77, 0
1, 27858, Note_on_c, 0, 75, 64
1, 27929, Note_on_c, 0, 75, 0
1, 27929, Note_on_c, 1, 70, 0
1, 27929, Note_on_c, 1, 67, 0
1, 27936, Note_on_c, 0, 74, 64
1, 27936, Note_on_c, 1, 69, 64
1, 27936, Note_on_c, 1, 66, 64
1, 27981, Note_on_c, 0, 74, 0
1, 27984, Note_on_c, 0, 84, 64
1, 28025, Note_on_c, 1, 69, 0
1, 28025, Note_on_c, 1, 66, 0
1, 28029, Note_on_c, 0, 84, 0
1, 28032, Note_on_c, 0, 81, 64
1, 28077, Note_on_c, 0, 81, 0
1, 28080, Note_on_c, 0, 78, 64
1, 28125, Note_on_c, 0, 78, 0
1, 28128, Note_on_c, 0, 74, 64
1, 28173, Note_on_c, 0, 74, 0
1, 28176, Note_on_c, 0, 72, 64
1, 28221, Note_on_c, 0, 72, 0
1, 28224, Note_on_c, 0, 72, 64
1, 28237, Note_on_c, 0, 72, 0
1, 28238, Note_on_c, 0, 70, 64
1, 28251, Note_on_c, 0, 70, 0
1, 28252, Note_on_c, 0, 72, 64
1, 28265, Note_on_c, 0, 72, 0
1, 28266, Note_on_c, 0, 70, 64
1, 28279, Note_on_c, 0, 70, 0
1, 28280, Note_on_c, 0, 72, 64
1, 28293, Note_on_c, 0, 72, 0
1, 28294, Note_on_c, 0, 70, 64
1, 28307, Note_on_c, 0, 70, 0
1, 28308, Note_on_c, 0, 72, 65
1, 28320, Note_on_c, 1, 62, 65
1, 28320, Note_on_c, 1, 55, 65
1, 28321, Note_on_c, 0, 72, 0
1, 28322, Note_on_c, 0, 70, 65
1, 28335, Note_on_c, 0, 70, 0
1, 28336, Note_on_c, 0, 72, 65
1, 28349, Note_on_c, 0, 72, 0
1, 28350, Note_on_c, 0, 70, 65
1, 28363, Note_on_c, 0, 70, 0
1, 28364, Note_on_c, 0, 72, 65
1, 28376, Note_on_c, 0, 72, 0
1, 28377, Note_on_c, 0, 70, 66
1, 28389, Note_on_c, 0, 70, 0
1, 28390, Note_on_c, 0, 69, 66
1, 28402, Note_on_c, 0, 69, 0
1, 28403, Note_on_c, 0, 70, 66
1, 28409, Note_on_c, 1, 62, 0
1, 28409, Note_on_c, 1, 55, 0
1, 28415, Note_on_c, 0, 70, 0
1, 28416, Note_on_c, 0, 69, 66
1, 28416, Note_on_c, 1, 62, 67
1, 28416, Note_on_c, 1, 54, 67
1, 28436, Note_on_c, 0, 69, 0
1, 28505, Note_on_c, 1, 62, 0
1, 28505, Note_on_c, 1, 54, 0
1, 28512, Note_on_c, 0, 74, 68
1, 28525, Note_on_c, 0, 74, 0
1, 28526, Note_on_c, 0, 72, 68
1, 28539, Note_on_c, 0, 72, 0
1, 28540, Note_on_c, 0, 74, 68
1, 28553, Note_on_c, 0, 74, 0
1, 28554, Note_on_c, 0, 72, 68
1, 28567, Note_on_c, 0, 72, 0
1, 28568, Note_on_c, 0, 74, 69
1, 28581, Note_on_c, 0, 74, 0
1, 28582, Note_on_c, 0, 72, 69
1, 28595, Note_on_c, 0, 72, 0
1, 28596, Note_on_c, 0, 74, 69
1, 28608, Note_on_c, 1, 62, 70
1, 28608, Note_on_c, 1, 54, 70
1, 28609, Note_on_c, 0, 74, 0
1, 28610, Note_on_c, 0, 72, 69
1, 28623, Note_on_c, 0, 72, 0
1, 28624, Note_on_c, 0, 74, 69
1, 28637, Note_on_c, 0, 74, 0
1, 28638, Note_on_c, 0, 72, 70
1, 28651, Note_on_c, 0, 72, 0
1, 28652, Note_on_c, 0, 74, 70
1, 28664, Note_on_c, 0, 74, 0
1, 28665, Note_on_c, 0, 72, 70
1, 28677, Note_on_c, 0, 72, 0
1, 28678, Note_on_c, 0, 70, 70
1, 28690, Note_on_c, 0, 70, 0
1, 28691, Note_on_c, 0, 72, 70
1, 28697, Note_on_c, 1, 62, 0
1, 28697, Note_on_c, 1, 54, 0
1, 28703, Note_on_c, 0, 72, 0
1, 28704, Note_on_c, 0, 70, 71
1, 28704, Note_on_c, 1, 62, 71
1, 28704, Note_on_c, 1, 55, 71
1, 28724, Note_on_c, 0, 70, 0
1, 28793, Note_on_c, 1, 62, 0
1, 28793, Note_on_c, 1, 55, 0
1, 28800, Note_on_c, 0, 67, 72
1, 28800, Note_on_c, 1, 51, 73
1, 28845, Note_on_c, 0, 67, 0
1, 28848, Note_on_c, 0, 79, 73
1, 28889, Note_on_c, 1, 51, 0
1, 28893, Note_on_c, 0, 79, 0
1, 28896, Note_on_c, 0, 77, 74
1, 28941, Note_on_c, 0, 77, 0
1, 28944, Note_on_c, 0, 75, 74
1, 28989, Note_on_c, 0, 75, 0
1, 28992, Note_on_c, 0, 74, 75
1, 28992, Note_on_c, 1, 67, 76
1, 28992, Note_on_c, 1, 63, 76
1, 29037, Note_on_c, 0, 74, 0
1, 29040, Note_on_c, 0, 73, 76
1, 29081, Note_on_c, 1, 67, 0
1, 29081, Note_on_c, 1, 63, 0
1, 29085, Note_on_c, 0, 73, 0
1, 29088, Note_on_c, 0, 73, 78
1, 29088, Note_on_c, 1, 67, 78
1, 29088, Note_on_c, 1, 62, 64
1, 29280, Note_on_c, 0, 73, 0
1, 29280, Note_on_c, 0, 74, 78
1, 29280, Note_on_c, 1, 67, 0
1, 29280, Note_on_c, 1, 66, 78
1, 29353, Note_on_c, 1, 62, 0
1, 29369, Note_on_c, 0, 74, 0
1, 29369, Note_on_c, 1, 66, 0
1, 29376, Note_on_c, 0, 65, 78
1, 29376, Note_on_c, 0, 62, 64
1, 29376, Note_on_c, 1, 46, 78
1, 29421, Note_on_c, 1, 46, 0
1, 29424, Note_on_c, 1, 58, 78
1, 29469, Note_on_c, 1, 58, 0
1, 29472, Note_on_c, 1, 46, 78
1, 29517, Note_on_c, 1, 46, 0
1, 29520, Note_on_c, 1, 58, 78
1, 29553, Note_on_c, 0, 65, 0
1, 29553, Note_on_c, 0, 62, 0
1, 29565, Note_on_c, 1, 58, 0
1, 29568, Note_on_c, 0, 69, 78
1, 29568, Note_on_c, 0, 63, 64
1, 29568, Note_on_c, 1, 46, 78
1, 29586, Note_on_c, 0, 69, 0
1, 29586, Note_on_c, 0, 67, 78
1, 29613, Note_on_c, 1, 46, 0
1, 29616, Note_on_c, 1, 58, 78
1, 29657, Note_on_c, 0, 67, 0
1, 29657, Note_on_c, 0, 63, 0
1, 29661, Note_on_c, 1, 58, 0
1, 29664, Note_on_c, 0, 65, 78
1, 29664, Note_on_c, 0, 62, 64
1, 29664, Note_on_c, 1, 46, 78
1, 29709, Note_on_c, 1, 46, 0
1, 29712, Note_on_c, 1, 58, 78
1, 29753, Note_on_c, 0, 65, 0
1, 29753, Note_on_c, 0, 62, 0
1, 29757, Note_on_c, 1, 58, 0
1, 29760, Note_on_c, 1, 46, 78
1, 29805, Note_on_c, 1, 46, 0
1, 29808, Note_on_c, 1, 58, 78
1, 29853, Note_on_c, 1, 58, 0
1, 29856, Note_on_c, 0, 77, 78
1, 29856, Note_on_c, 0, 69, 64
1, 29856, Note_on_c, 1, 46, 78
1, 29874, Note_on_c, 0, 77, 0
1, 29874, Note_on_c, 0, 75, 78
1, 29901, Note_on_c, 1, 46, 0
1, 29904, Note_on_c, 1, 58, 78
1, 29945, Note_on_c, 0, 75, 0
1, 29945, Note_on_c, 0, 69, 0
1, 29949, Note_on_c, 1, 58, 0
1, 29952, Note_on_c, 0, 74, 78
1, 29952, Note_on_c, 0, 70, 64
1, 29952, Note_on_c, 1, 46, 78
1, 29997, Note_on_c, 1, 46, 0
1, 30000, Note_on_c, 1, 58, 78
1, 30041, Note_on_c, 0, 74, 0
1, 30041, Note_on_c, 0, 70, 0
1, 30045, Note_on_c, 1, 58, 0
1, 30048, Note_on_c, 1, 46, 78
1, 30093, Note_on_c, 1, 46, 0
1, 30096, Note_on_c, 1, 58, 78
1, 30141, Note_on_c, 1, 58, 0
1, 30144, Note_on_c, 0, 81, 78
1, 30144, Note_on_c, 0, 75, 64
1, 30144, Note_on_c, 1, 46, 78
1, 30162, Note_on_c, 0, 81, 0
1, 30162, Note_on_c, 0, 79, 78
1, 30189, Note_on_c, 1, 46, 0
1, 30192, Note_on_c, 1, 58, 78
1, 30233, Note_on_c, 0, 79, 0
1, 30233, Note_on_c, 0, 75, 0
1, 30237, Note_on_c, 1, 58, 0
1, 30240, Note_on_c, 0, 77, 78
1, 30240, Note_on_c, 0, 74, 64
1, 30240, Note_on_c, 1, 46, 78
1, 30285, Note_on_c, 1, 46, 0
1, 30288, Note_on_c, 1, 58, 78
1, 30329, Note_on_c, 0, 77, 0
1, 30329, Note_on_c, 0, 74, 0
1, 30333, Note_on_c, 1, 58, 0
1, 30336, Note_on_c, 1, 46, 78
1, 30381, Note_on_c, 1, 46, 0
1, 30384, Note_on_c, 1, 58, 78
1, 30432, Note_on_c, 0, 82, 78
1, 30432, Note_on_c, 1, 50, 78
1, 30480, Note_on_c, 0, 82, 0
1, 30480, Note_on_c, 0, 81, 78
1, 30521, Note_on_c, 1, 58, 0
1, 30521, Note_on_c, 1, 50, 0
1, 30525, Note_on_c, 0, 81, 0
1, 30528, Note_on_c, 0, 81, 78
1, 30528, Note_on_c, 1, 58, 78
1, 30528, Note_on_c, 1, 51, 64
1, 30576, Note_on_c, 0, 81, 0
1, 30576, Note_on_c, 0, 79, 78
1, 30617, Note_on_c, 1, 51, 0
1, 30621, Note_on_c, 0, 79, 0
1, 30624, Note_on_c, 0, 79, 78
1, 30624, Note_on_c, 1, 53, 64
1, 30672, Note_on_c, 0, 79, 0
1, 30672, Note_on_c, 0, 77, 78
1, 30713, Note_on_c, 1, 53, 0
1, 30717, Note_on_c, 0, 77, 0
1, 30720, Note_on_c, 0, 77, 78
1, 30720, Note_on_c, 1, 55, 64
1, 30768, Note_on_c, 0, 77, 0
1, 30768, Note_on_c, 0, 75, 78
1, 30793, Note_on_c, 1, 58, 0
1, 30809, Note_on_c, 1, 55, 0
1, 30813, Note_on_c, 0, 75, 0
1, 30816, Note_on_c, 0, 77, 78
1, 30816, Note_on_c, 1, 57, 64
1, 30829, Note_on_c, 0, 77, 0
1, 30830, Note_on_c, 0, 75, 78
1, 30843, Note_on_c, 0, 75, 0
1, 30844, Note_on_c, 0, 77, 78
1, 30857, Note_on_c, 0, 77, 0
1, 30858, Note_on_c, 0, 75, 78
1, 30871, Note_on_c, 0, 75, 0
1, 30872, Note_on_c, 0, 77, 78
1, 30885, Note_on_c, 0, 77, 0
1, 30886, Note_on_c, 0, 75, 78
1, 30899, Note_on_c, 0, 75, 0
1, 30900, Note_on_c, 0, 77, 78
1, 30912, Note_on_c, 1, 65, 78
1, 30913, Note_on_c, 0, 77, 0
1, 30914, Note_on_c, 0, 75, 78
1, 30927, Note_on_c, 0, 75, 0
1, 30928, Note_on_c, 0, 77, 78
1, 30941, Note_on_c, 0, 77, 0
1, 30942, Note_on_c, 0, 75, 78
1, 30955, Note_on_c, 0, 75, 0
1, 30956, Note_on_c, 0, 77, 78
1, 30968, Note_on_c, 0, 77, 0
1, 30969, Note_on_c, 0, 75, 78
1, 30981, Note_on_c, 0, 75, 0
1, 30982, Note_on_c, 0, 74, 78
1, 30993, Note_on_c, 1, 57, 0
1, 30994, Note_on_c, 0, 74, 0
1, 30995, Note_on_c, 0, 75, 78
1, 31007, Note_on_c, 0, 75, 0
1, 31008, Note_on_c, 0, 77, 78
1, 31008, Note_on_c, 1, 58, 64
1, 31020, Note_on_c, 0, 77, 0
1, 31020, Note_on_c, 0, 75, 78
1, 31053, Note_on_c, 0, 75, 0
1, 31056, Note_on_c, 0, 74, 78
1, 31089, Note_on_c, 1, 65, 0
1, 31097, Note_on_c, 1, 58, 0
1, 31101, Note_on_c, 0, 74, 0
1, 31104, Note_on_c, 0, 74, 78
1, 31104, Note_on_c, 1, 63, 78
1, 31104, Note_on_c, 1, 51, 64
1, 31116, Note_on_c, 0, 74, 0
1, 31116, Note_on_c, 0, 75, 78
1, 31128, Note_on_c, 0, 75, 0
1, 31128, Note_on_c, 0, 74, 78
1, 31149, Note_on_c, 0, 74, 0
1, 31152, Note_on_c, 0, 72, 78
1, 31193, Note_on_c, 1, 63, 0
1, 31193, Note_on_c, 1, 51, 0
1, 31197, Note_on_c, 0, 72, 0
1, 31200, Note_on_c, 0, 72, 78
1, 31200, Note_on_c, 1, 62, 78
1, 31200, Note_on_c, 1, 53, 64
1, 31212, Note_on_c, 0, 72, 0
1, 31212, Note_on_c, 0, 74, 78
1, 31224, Note_on_c, 0, 74, 0
1, 31224, Note_on_c, 0, 72, 78
1, 31245, Note_on_c, 0, 72, 0
1, 31248, Note_on_c, 0, 70, 78
1, 31289, Note_on_c, 1, 62, 0
1, 31289, Note_on_c, 1, 53, 0
1, 31293, Note_on_c, 0, 70, 0
1, 31296, Note_on_c, 0, 70, 78
1, 31296, Note_on_c, 1, 60, 78
1, 31296, Note_on_c, 1, 53, 64
1, 31308, Note_on_c, 0, 70, 0
1, 31308, Note_on_c, 0, 72, 78
1, 31320, Note_on_c, 0, 72, 0
1, 31320, Note_on_c, 0, 70, 78
1, 31341, Note_on_c, 0, 70, 0
1, 31344, Note_on_c, 0, 69, 78
1, 31385, Note_on_c, 1, 60, 0
1, 31385, Note_on_c, 1, 53, 0
1, 31389, Note_on_c, 0, 69, 0
1, 31392, Note_on_c, 0, 69, 78
1, 31392, Note_on_c, 1, 58, 78
1, 31481, Note_on_c, 1, 58, 0
1, 31488, Note_on_c, 0, 69, 0
1, 31488, Note_on_c, 0, 70, 78
1, 31488, Note_on_c, 1, 62, 78
1, 31533, Note_on_c, 1, 62, 0
1, 31536, Note_on_c, 1, 60, 74
1, 31577, Note_on_c, 0, 70, 0
1, 31581, Note_on_c, 1, 60, 0
1, 31584, Note_on_c, 1, 58, 71
1, 31629, Note_on_c, 1, 58, 0
1, 31632, Note_on_c, 1, 57, 67
1, 31677, Note_on_c, 1, 57, 0
1, 31680, Note_on_c, 0, 74, 64
1, 31680, Note_on_c, 1, 58, 64
1, 31680, Note_on_c, 1, 55, 64
1, 31680, Note_on_c, 1, 58, 64
1, 31680, Note_on_c, 1, 55, 64
1, 31769, Note_on_c, 1, 58, 0
1, 31769, Note_on_c, 1, 55, 0
1, 31769, Note_on_c, 1, 58, 0
1, 31769, Note_on_c, 1, 55, 0
1, 31776, Note_on_c, 1, 70, 64
1, 31776, Note_on_c, 1, 67, 64
1, 31857, Note_on_c, 0, 74, 0
1, 31865, Note_on_c, 1, 70, 0
1, 31865, Note_on_c, 1, 67, 0
1, 31872, Note_on_c, 0, 77, 64
1, 31872, Note_on_c, 1, 69, 64
1, 31872, Note_on_c, 1, 66, 64
1, 31890, Note_on_c, 0, 77, 0
1, 31890, Note_on_c, 0, 75, 64
1, 31961, Note_on_c, 0, 75, 0
1, 31961, Note_on_c, 1, 69, 0
1, 31961, Note_on_c, 1, 66, 0
1, 31968, Note_on_c, 0, 74, 64
1, 31968, Note_on_c, 1, 70, 64
1, 31968, Note_on_c, 1, 67, 64
1, 32013, Note_on_c, 0, 74, 0
1, 32016, Note_on_c, 0, 82, 64
1, 32057, Note_on_c, 1, 70, 0
1, 32057, Note_on_c, 1, 67, 0
1, 32061, Note_on_c, 0, 82, 0
1, 32064, Note_on_c, 0, 81, 64
1, 32109, Note_on_c, 0, 81, 0
1, 32112, Note_on_c, 0, 79, 64
1, 32157, Note_on_c, 0, 79, 0
1, 32160, Note_on_c, 0, 78, 64
1, 32205, Note_on_c, 0, 78, 0
1, 32208, Note_on_c, 0, 79, 64
1, 32253, Note_on_c, 0, 79, 0
1, 32256, Note_on_c, 0, 74, 64
1, 32256, Note_on_c, 1, 57, 64
1, 32256, Note_on_c, 1, 54, 64
1, 32345, Note_on_c, 1, 57, 0
1, 32345, Note_on_c, 1, 54, 0
1, 32352, Note_on_c, 1, 69, 64
1, 32352, Note_on_c, 1, 66, 64
1, 32433, Note_on_c, 0, 74, 0
1, 32441, Note_on_c, 1, 69, 0
1, 32441, Note_on_c, 1, 66, 0
1, 32448, Note_on_c, 0, 77, 64
1, 32448, Note_on_c, 1, 70, 64
1, 32448, Note_on_c, 1, 67, 64
1, 32466, Note_on_c, 0, 77, 0
1, 32466, Note_on_c, 0, 75, 64
1, 32537, Note_on_c, 0, 75, 0
1, 32537, Note_on_c, 1, 70, 0
1, 32537, Note_on_c, 1, 67, 0
1, 32544, Note_on_c, 0, 74, 64
1, 32544, Note_on_c, 1, 69, 64
1, 32544, Note_on_c, 1, 66, 64
1, 32589, Note_on_c, 0, 74, 0
1, 32592, Note_on_c, 0, 84, 64
1, 32633, Note_on_c, 1, 69, 0
1, 32633, Note_on_c, 1, 66, 0
1, 32637, Note_on_c, 0, 84, 0
1, 32640, Note_on_c, 0, 81, 64
1, 32685, Note_on_c, 0, 81, 0
1, 32688, Note_on_c, 0, 78, 64
1, 32733, Note_on_c, 0, 78, 0
1, 32736, Note_on_c, 0, 74, 64
1, 32781, Note_on_c, 0, 74, 0
1, 32784, Note_on_c, 0, 72, 64
1, 32829, Note_on_c, 0, 72, 0
1, 32832, Note_on_c, 0, 72, 64
1, 32845, Note_on_c, 0, 72, 0
1, 32846, Note_on_c, 0, 70, 64
1, 32859, Note_on_c, 0, 70, 0
1, 32860, Note_on_c, 0, 72, 64
1, 32873, Note_on_c, 0, 72, 0
1, 32874, Note_on_c, 0, 70, 64
1, 32887, Note_on_c, 0, 70, 0
1, 32888, Note_on_c, 0, 72, 64
1, 32901, Note_on_c, 0, 72, 0
1, 32902, Note_on_c, 0, 70, 64
1, 32915, Note_on_c, 0, 70, 0
1, 32916, Note_on_c, 0, 72, 64
1, 32928, Note_on_c, 1, 62, 64
1, 32928, Note_on_c, 1, 55, 64
1, 32929, Note_on_c, 0, 72, 0
1, 32930, Note_on_c, 0, 70, 65
1, 32943, Note_on_c, 0, 70, 0
1, 32944, Note_on_c, 0, 72, 65
1, 32957, Note_on_c, 0, 72, 0
1, 32958, Note_on_c, 0, 70, 65
1, 32971, Note_on_c, 0, 70, 0
1, 32972, Note_on_c, 0, 72, 65
1, 32984, Note_on_c, 0, 72, 0
1, 32985, Note_on_c, 0, 70, 65
1, 32997, Note_on_c, 0, 70, 0
1, 32998, Note_on_c, 0, 69, 65
1, 33010, Note_on_c, 0, 69, 0
1, 33011, Note_on_c, 0, 70, 66
1, 33017, Note_on_c, 1, 62, 0
1, 33017, Note_on_c, 1, 55, 0
1, 33023, Note_on_c, 0, 70, 0
1, 33024, Note_on_c, 0, 69, 66
1, 33024, Note_on_c, 1, 62, 64
1, 33024, Note_on_c, 1, 54, 64
1, 33044, Note_on_c, 0, 69, 0
1, 33113, Note_on_c, 1, 62, 0
1, 33113, Note_on_c, 1, 54, 0
1, 33120, Note_on_c, 0, 74, 67
1, 33133, Note_on_c, 0, 74, 0
1, 33134, Note_on_c, 0, 72, 67
1, 33147, Note_on_c, 0, 72, 0
1, 33148, Note_on_c, 0, 74, 67
1, 33161, Note_on_c, 0, 74, 0
1, 33162, Note_on_c, 0, 72, 67
1, 33175, Note_on_c, 0, 72, 0
1, 33176, Note_on_c, 0, 74, 68
1, 33189, Note_on_c, 0, 74, 0
1, 33190, Note_on_c, 0, 72, 68
1, 33203, Note_on_c, 0, 72, 0
1, 33204, Note_on_c, 0, 74, 68
1, 33216, Note_on_c, 1, 62, 64
1, 33216, Note_on_c, 1, 54, 64
1, 33217, Note_on_c, 0, 74, 0
1, 33218, Note_on_c, 0, 72, 68
1, 33231, Note_on_c, 0, 72, 0
1, 33232, Note_on_c, 0, 74, 68
1, 33245, Note_on_c, 0, 74, 0
1, 33246, Note_on_c, 0, 72, 68
1, 33259, Note_on_c, 0, 72, 0
1, 33260, Note_on_c, 0, 74, 69
1, 33272, Note_on_c, 0, 74, 0
1, 33273, Note_on_c, 0, 72, 69
1, 33285, Note_on_c, 0, 72, 0
1, 33286, Note_on_c, 0, 70, 69
1, 33298, Note_on_c, 0, 70, 0
1, 33299, Note_on_c, 0, 72, 69
1, 33305, Note_on_c, 1, 62, 0
1, 33305, Note_on_c, 1, 54, 0
1, 33311, Note_on_c, 0, 72, 0
1, 33312, Note_on_c, 0, 70, 69
1, 33312, Note_on_c, 1, 62, 64
1, 33312, Note_on_c, 1, 55, 64
1, 33332, Note_on_c, 0, 70, 0
1, 33401, Note_on_c, 1, 62, 0
1, 33401, Note_on_c, 1, 55, 0
1, 33408, Note_on_c, 0, 70, 71
1, 33408, Note_on_c, 1, 60, 64
1, 33408, Note_on_c, 1, 48, 64
1, 33420, Note_on_c, 0, 70, 0
1, 33420, Note_on_c, 0, 72, 71
1, 33432, Note_on_c, 0, 72, 0
1, 33432, Note_on_c, 0, 70, 71
1, 33453, Note_on_c, 0, 70, 0
1, 33456, Note_on_c, 0, 69, 70
1, 33497, Note_on_c, 1, 60, 0
1, 33497, Note_on_c, 1, 48, 0
1, 33501, Note_on_c, 0, 69, 0
1, 33504, Note_on_c, 0, 69, 69
1, 33504, Note_on_c, 1, 58, 64
1, 33504, Note_on_c, 1, 50, 64
1, 33516, Note_on_c, 0, 69, 0
1, 33516, Note_on_c, 0, 70, 69
1, 33528, Note_on_c, 0, 70, 0
1, 33528, Note_on_c, 0, 69, 69
1, 33549, Note_on_c, 0, 69, 0
1, 33552, Note_on_c, 0, 67, 68
1, 33593, Note_on_c, 1, 58, 0
1, 33593, Note_on_c, 1, 50, 0
1, 33597, Note_on_c, 0, 67, 0
1, 33600, Note_on_c, 0, 67, 68
1, 33600, Note_on_c, 1, 57, 64
1, 33600, Note_on_c, 1, 50, 64
1, 33612, Note_on_c, 0, 67, 0
1, 33612, Note_on_c, 0, 69, 68
1, 33624, Note_on_c, 0, 69, 0
1, 33624, Note_on_c, 0, 67, 68
1, 33645, Note_on_c, 0, 67, 0
1, 33648, Note_on_c, 0, 66, 67
1, 33689, Note_on_c, 1, 57, 0
1, 33689, Note_on_c, 1, 50, 0
1, 33693, Note_on_c, 0, 66, 0
1, 33696, Note_on_c, 0, 66, 66
1, 33696, Note_on_c, 1, 55, 64
1, 33785, Note_on_c, 1, 55, 0
1, 33792, Note_on_c, 0, 66, 0
1, 33792, Note_on_c, 0, 67, 65
1, 33792, Note_on_c, 1, 50, 64
1, 33881, Note_on_c, 0, 67, 0
1, 33881, Note_on_c, 1, 50, 0
1, 33888, Note_on_c, 1, 43, 64
1, 33977, Note_on_c, 1, 43, 0
1, 33984, Note_on_c, 0, 65, 78
1, 33984, Note_on_c, 0, 62, 64
1, 33984, Note_on_c, 1, 46, 78
1, 34029, Note_on_c, 1, 46, 0
1, 34032, Note_on_c, 1, 58, 78
1, 34077, Note_on_c, 1, 58, 0
1, 34080, Note_on_c, 1, 46, 78
1, 34125, Note_on_c, 1, 46, 0
1, 34128, Note_on_c, 1, 58, 78
1, 34161, Note_on_c, 0, 65, 0
1, 34161, Note_on_c, 0, 62, 0
1, 34173, Note_on_c, 1, 58, 0
1, 34176, Note_on_c, 0, 69, 78
1, 34176, Note_on_c, 0, 63, 64
1, 34176, Note_on_c, 1, 46, 78
1, 34194, Note_on_c, 0, 69, 0
1, 34194, Note_on_c, 0, 67, 78
1, 34221, Note_on_c, 1, 46, 0
1, 34224, Note_on_c, 1, 58, 78
1, 34265, Note_on_c, 0, 67, 0
1, 34265, Note_on_c, 0, 63, 0
1, 34269, Note_on_c, 1, 58, 0
1, 34272, Note_on_c, 0, 65, 78
1, 34272, Note_on_c, 0, 62, 64
1, 34272, Note_on_c, 1, 46, 78
1, 34317, Note_on_c, 1, 46, 0
1, 34320, Note_on_c, 1, 58, 78
1, 34361, Note_on_c, 0, 65, 0
1, 34361, Note_on_c, 0, 62, 0
1, 34365, Note_on_c, 1, 58, 0
1, 34368, Note_on_c, 1, 46, 78
1, 34413, Note_on_c, 1, 46, 0
1, 34416, Note_on_c, 1, 58, 78
1, 34461, Note_on_c, 1, 58, 0
1, 34464, Note_on_c, 0, 77, 78
1, 34464, Note_on_c, 0, 69, 64
1, 34464, Note_on_c, 1, 46, 78
1, 34482, Note_on_c, 0, 77, 0
1, 34482, Note_on_c, 0, 75, 78
1, 34509, Note_on_c, 1, 46, 0
1, 34512, Note_on_c, 1, 58, 78
1, 34553, Note_on_c, 0, 75, 0
1, 34553, Note_on_c, 0, 69, 0
1, 34557, Note_on_c, 1, 58, 0
1, 34560, Note_on_c, 0, 74, 78
1, 34560, Note_on_c, 0, 70, 64
1, 34560, Note_on_c, 1, 46, 78
1, 34605, Note_on_c, 1, 46, 0
1, 34608, Note_on_c, 1, 58, 78
1, 34649, Note_on_c, 0, 74, 0
1, 34649, Note_on_c, 0, 70, 0
1, 34653, Note_on_c, 1, 58, 0
1, 34656, Note_on_c, 1, 46, 78
1, 34701, Note_on_c, 1, 46, 0
1, 34704, Note_on_c, 1, 58, 78
1, 34749, Note_on_c, 1, 58, 0
1, 34752, Note_on_c, 0, 81, 78
1, 34752, Note_on_c, 0, 75, 64
1, 34752, Note_on_c, 1, 46, 78
1, 34770, Note_on_c, 0, 81, 0
1, 34770, Note_on_c, 0, 79, 78
1, 34797, Note_on_c, 1, 46, 0
1, 34800, Note_on_c, 1, 58, 78
1, 34841, Note_on_c, 0, 79, 0
1, 34841, Note_on_c, 0, 75, 0
1, 34845, Note_on_c, 1, 58, 0
1, 34848, Note_on_c, 0, 77, 78
1, 34848, Note_on_c, 0, 74, 64
1, 34848, Note_on_c, 1, 46, 78
1, 34893, Note_on_c, 1, 46, 0
1, 34896, Note_on_c, 1, 58, 78
1, 34937, Note_on_c, 0, 77, 0
1, 34937, Note_on_c, 0, 74, 0
1, 34941, Note_on_c, 1, 58, 0
1, 34944, Note_on_c, 1, 46, 78
1, 34989, Note_on_c, 1, 46, 0
1, 34992, Note_on_c, 1, 58, 78
1, 35040, Note_on_c, 0, 82, 78
1, 35040, Note_on_c, 1, 50, 78
1, 35088, Note_on_c, 0, 82, 0
1, 35088, Note_on_c, 0, 81, 78
1, 35129, Note_on_c, 1, 58, 0
1, 35129, Note_on_c, 1, 50, 0
1, 35133, Note_on_c, 0, 81, 0
1, 35136, Note_on_c, 0, 81, 78
1, 35136, Note_on_c, 1, 58, 78
1, 35136, Note_on_c, 1, 51, 64
1, 35184, Note_on_c, 0, 81, 0
1, 35184, Note_on_c, 0, 79, 78
1, 35225, Note_on_c, 1, 51, 0
1, 35229, Note_on_c, 0, 79, 0
1, 35232, Note_on_c, 0, 79, 78
1, 35232, Note_on_c, 1, 53, 64
1, 35280, Note_on_c, 0, 79, 0
1, 35280, Note_on_c, 0, 77, 78
1, 35321, Note_on_c, 1, 53, 0
1, 35325, Note_on_c, 0, 77, 0
1, 35328, Note_on_c, 0, 77, 78
1, 35328, Note_on_c, 1, 55, 64
1, 35376, Note_on_c, 0, 77, 0
1, 35376, Note_on_c, 0, 75, 78
1, 35401, Note_on_c, 1, 58, 0
1, 35417, Note_on_c, 1, 55, 0
1, 35421, Note_on_c, 0, 75, 0
1, 35424, Note_on_c, 0, 77, 78
1, 35424, Note_on_c, 1, 57, 64
1, 35437, Note_on_c, 0, 77, 0
1, 35438, Note_on_c, 0, 75, 78
1, 35451, Note_on_c, 0, 75, 0
1, 35452, Note_on_c, 0, 77, 78
1, 35465, Note_on_c, 0, 77, 0
1, 35466, Note_on_c, 0, 75, 78
1, 35479, Note_on_c, 0, 75, 0
1, 35480, Note_on_c, 0, 77, 78
1, 35493, Note_on_c, 0, 77, 0
1, 35494, Note_on_c, 0, 75, 78
1, 35507, Note_on_c, 0, 75, 0
1, 35508, Note_on_c, 0, 77, 78
1, 35520, Note_on_c, 1, 65, 78
1, 35521, Note_on_c, 0, 77, 0
1, 35522, Note_on_c, 0, 75, 78
1, 35535, Note_on_c, 0, 75, 0
1, 35536, Note_on_c, 0, 77, 78
1, 35549, Note_on_c, 0, 77, 0
1, 35550, Note_on_c, 0, 75, 78
1, 35563, Note_on_c, 0, 75, 0
1, 35564, Note_on_c, 0, 77, 78
1, 35576, Note_on_c, 0, 77, 0
1, 35577, Note_on_c, 0, 75, 78
1, 35589, Note_on_c, 0, 75, 0
1, 35590, Note_on_c, 0, 74, 78
1, 35601, Note_on_c, 1, 57, 0
1, 35602, Note_on_c, 0, 74, 0
1, 35603, Note_on_c, 0, 75, 78
1, 35615, Note_on_c, 0, 75, 0
1, 35616, Note_on_c, 0, 77, 78
1, 35616, Note_on_c, 1, 58, 64
1, 35628, Note_on_c, 0, 77, 0
1, 35628, Note_on_c, 0, 75, 78
1, 35661, Note_on_c, 0, 75, 0
1, 35664, Note_on_c, 0, 74, 78
1, 35697, Note_on_c, 1, 65, 0
1, 35705, Note_on_c, 1, 58, 0
1, 35709, Note_on_c, 0, 74, 0
1, 35712, Note_on_c, 0, 74, 78
1, 35712, Note_on_c, 1, 63, 78
1, 35712, Note_on_c, 1, 51, 64
1, 35724, Note_on_c, 0, 74, 0
1, 35724, Note_on_c, 0, 75, 78
1, 35736, Note_on_c, 0, 75, 0
1, 35736, Note_on_c, 0, 74, 78
1, 35757, Note_on_c, 0, 74, 0
1, 35760, Note_on_c, 0, 72, 78
1, 35801, Note_on_c, 1, 63, 0
1, 35801, Note_on_c, 1, 51, 0
1, 35805, Note_on_c, 0, 72, 0
1, 35808, Note_on_c, 0, 72, 78
1, 35808, Note_on_c, 1, 62, 78
1, 35808, Note_on_c, 1, 53, 64
1, 35820, Note_on_c, 0, 72, 0
1, 35820, Note_on_c, 0, 74, 78
1, 35832, Note_on_c, 0, 74, 0
1, 35832, Note_on_c, 0, 72, 78
1, 35853, Note_on_c, 0, 72, 0
1, 35856, Note_on_c, 0, 70, 78
1, 35897, Note_on_c, 1, 62, 0
1, 35897, Note_on_c, 1, 53, 0
1, 35901, Note_on_c, 0, 70, 0
1, 35904, Note_on_c, 0, 70, 78
1, 35904, Note_on_c, 1, 60, 78
1, 35904, Note_on_c, 1, 53, 64
1, 35916, Note_on_c, 0, 70, 0
1, 35916, Note_on_c, 0, 72, 78
1, 35928, Note_on_c, 0, 72, 0
1, 35928, Note_on_c, 0, 70, 78
1, 35949, Note_on_c, 0, 70, 0
1, 35952, Note_on_c, 0, 69, 78
1, 35993, Note_on_c, 1, 60, 0
1, 35993, Note_on_c, 1, 53, 0
1, 35997, Note_on_c, 0, 69, 0
1, 36000, Note_on_c, 0, 69, 78
1, 36000, Note_on_c, 1, 58, 78
1, 36089, Note_on_c, 1, 58, 0
1, 36096, Note_on_c, 0, 69, 0
1, 36096, Note_on_c, 0, 70, 78
1, 36096, Note_on_c, 1, 62, 78
1, 36141, Note_on_c, 1, 62, 0
1, 36144, Note_on_c, 1, 60, 74
1, 36185, Note_on_c, 0, 70, 0
1, 36189, Note_on_c, 1, 60, 0
1, 36192, Note_on_c, 1, 58, 71
1, 36237, Note_on_c, 1, 58, 0
1, 36240, Note_on_c, 1, 57, 67
1, 36285, Note_on_c, 1, 57, 0
1, 36288, Note_on_c, 0, 74, 64
1, 36288, Note_on_c, 1, 58, 64
1, 36288, Note_on_c, 1, 55, 64
1, 36288, Note_on_c, 1, 58, 64
1, 36288, Note_on_c, 1, 55, 64
1, 36377, Note_on_c, 1, 58, 0
1, 36377, Note_on_c, 1, 55, 0
1, 36377, Note_on_c, 1, 58, 0
1, 36377, Note_on_c, 1, 55, 0
1, 36384, Note_on_c, 1, 70, 64
1, 36384, Note_on_c, 1, 67, 64
1, 36465, Note_on_c, 0, 74, 0
1, 36473, Note_on_c, 1, 70, 0
1, 36473, Note_on_c, 1, 67, 0
1, 36480, Note_on_c, 0, 77, 64
1, 36480, Note_on_c, 1, 69, 64
1, 36480, Note_on_c, 1, 66, 64
1, 36498, Note_on_c, 0, 77, 0
1, 36498, Note_on_c, 0, 75, 64
1, 36569, Note_on_c, 0, 75, 0
1, 36569, Note_on_c, 1, 69, 0
1, 36569, Note_on_c, 1, 66, 0
1, 36576, Note_on_c, 0, 74, 64
1, 36576, Note_on_c, 1, 70, 64
1, 36576, Note_on_c, 1, 67, 64
1, 36621, Note_on_c, 0, 74, 0
1, 36624, Note_on_c, 0, 82, 64
1, 36665, Note_on_c, 1, 70, 0
1, 36665, Note_on_c, 1, 67, 0
1, 36669, Note_on_c, 0, 82, 0
1, 36672, Note_on_c, 0, 81, 64
1, 36717, Note_on_c, 0, 81, 0
1, 36720, Note_on_c, 0, 79, 64
1, 36765, Note_on_c, 0, 79, 0
1, 36768, Note_on_c, 0, 78, 64
1, 36813, Note_on_c, 0, 78, 0
1, 36816, Note_on_c, 0, 79, 64
1, 36861, Note_on_c, 0, 79, 0
1, 36864, Note_on_c, 0, 74, 64
1, 36864, Note_on_c, 1, 57, 64
1, 36864, Note_on_c, 1, 54, 64
1, 36953, Note_on_c, 1, 57, 0
1, 36953, Note_on_c, 1, 54, 0
1, 36960, Note_on_c, 1, 69, 64
1, 36960, Note_on_c, 1, 66, 64
1, 37041, Note_on_c, 0, 74, 0
1, 37049, Note_on_c, 1, 69, 0
1, 37049, Note_on_c, 1, 66, 0
1, 37056, Note_on_c, 0, 77, 64
1, 37056, Note_on_c, 1, 70, 64
1, 37056, Note_on_c, 1, 67, 64
1, 37074, Note_on_c, 0, 77, 0
1, 37074, Note_on_c, 0, 75, 64
1, 37145, Note_on_c, 0, 75, 0
1, 37145, Note_on_c, 1, 70, 0
1, 37145, Note_on_c, 1, 67, 0
1, 37152, Note_on_c, 0, 74, 64
1, 37152, Note_on_c, 1, 69, 64
1, 37152, Note_on_c, 1, 66, 64
1, 37197, Note_on_c, 0, 74, 0
1, 37200, Note_on_c, 0, 84, 64
1, 37241, Note_on_c, 1, 69, 0
1, 37241, Note_on_c, 1, 66, 0
1, 37245, Note_on_c, 0, 84, 0
1, 37248, Note_on_c, 0, 81, 64
1, 37293, Note_on_c, 0, 81, 0
1, 37296, Note_on_c, 0, 78, 64
1, 37341, Note_on_c, 0, 78, 0
1, 37344, Note_on_c, 0, 74, 64
1, 37389, Note_on_c, 0, 74, 0
1, 37392, Note_on_c, 0, 72, 64
1, 37437, Note_on_c, 0, 72, 0
1, 37440, Note_on_c, 0, 72, 64
1, 37453, Note_on_c, 0, 72, 0
1, 37454, Note_on_c, 0, 70, 64
1, 37467, Note_on_c, 0, 70, 0
1, 37468, Note_on_c, 0, 72, 64
1, 37481, Note_on_c, 0, 72, 0
1, 37482, Note_on_c, 0, 70, 64
1, 37495, Note_on_c, 0, 70, 0
1, 37496, Note_on_c, 0, 72, 64
1, 37509, Note_on_c, 0, 72, 0
1, 37510, Note_on_c, 0, 70, 64
1, 37523, Note_on_c, 0, 70, 0
1, 37524, Note_on_c, 0, 72, 64
1, 37536, Note_on_c, 1, 62, 64
1, 37536, Note_on_c, 1, 55, 64
1, 37537, Note_on_c, 0, 72, 0
1, 37538, Note_on_c, 0, 70, 65
1, 37551, Note_on_c, 0, 70, 0
1, 37552, Note_on_c, 0, 72, 65
1, 37565, Note_on_c, 0, 72, 0
1, 37566, Note_on_c, 0, 70, 65
1, 37579, Note_on_c, 0, 70, 0
1, 37580, Note_on_c, 0, 72, 65
1, 37592, Note_on_c, 0, 72, 0
1, 37593, Note_on_c, 0, 70, 65
1, 37605, Note_on_c, 0, 70, 0
1, 37606, Note_on_c, 0, 69, 65
1, 37618, Note_on_c, 0, 69, 0
1, 37619, Note_on_c, 0, 70, 66
1, 37625, Note_on_c, 1, 62, 0
1, 37625, Note_on_c, 1, 55, 0
1, 37631, Note_on_c, 0, 70, 0
1, 37632, Note_on_c, 0, 69, 66
1, 37632, Note_on_c, 1, 62, 64
1, 37632, Note_on_c, 1, 54, 64
1, 37652, Note_on_c, 0, 69, 0
1, 37721, Note_on_c, 1, 62, 0
1, 37721, Note_on_c, 1, 54, 0
1, 37728, Note_on_c, 0, 74, 67
1, 37741, Note_on_c, 0, 74, 0
1, 37742, Note_on_c, 0, 72, 67
1, 37755, Note_on_c, 0, 72, 0
1, 37756, Note_on_c, 0, 74, 67
1, 37769, Note_on_c, 0, 74, 0
1, 37770, Note_on_c, 0, 72, 67
1, 37783, Note_on_c, 0, 72, 0
1, 37784, Note_on_c, 0, 74, 68
1, 37797, Note_on_c, 0, 74, 0
1, 37798, Note_on_c, 0, 72, 68
1, 37811, Note_on_c, 0, 72, 0
1, 37812, Note_on_c, 0, 74, 68
1, 37824, Note_on_c, 1, 62, 64
1, 37824, Note_on_c, 1, 54, 64
1, 37825, Note_on_c, 0, 74, 0
1, 37826, Note_on_c, 0, 72, 68
1, 37839, Note_on_c, 0, 72, 0
1, 37840, Note_on_c, 0, 74, 68
1, 37853, Note_on_c, 0, 74, 0
1, 37854, Note_on_c, 0, 72, 68
1, 37867, Note_on_c, 0, 72, 0
1, 37868, Note_on_c, 0, 74, 69
1, 37880, Note_on_c, 0, 74, 0
1, 37881, Note_on_c, 0, 72, 69
1, 37893, Note_on_c, 0, 72, 0
1, 37894, Note_on_c, 0, 70, 69
1, 37906, Note_on_c, 0, 70, 0
1, 37907, Note_on_c, 0, 72, 69
1, 37913, Note_on_c, 1, 62, 0
1, 37913, Note_on_c, 1, 54, 0
1, 37919, Note_on_c, 0, 72, 0
1, 37920, Note_on_c, 0, 70, 69
1, 37920, Note_on_c, 1, 62, 64
1, 37920, Note_on_c, 1, 55, 64
1, 37940, Note_on_c, 0, 70, 0
1, 38009, Note_on_c, 1, 62, 0
1, 38009, Note_on_c, 1, 55, 0
1, 38016, Note_on_c, 0, 70, 71
1, 38016, Note_on_c, 1, 60, 64
1, 38016, Note_on_c, 1, 48, 64
1, 38028, Note_on_c, 0, 70, 0
1, 38028, Note_on_c, 0, 72, 71
1, 38040, Note_on_c, 0, 72, 0
1, 38040, Note_on_c, 0, 70, 71
1, 38061, Note_on_c, 0, 70, 0
1, 38064, Note_on_c, 0, 69, 70
1, 38105, Note_on_c, 1, 60, 0
1, 38105, Note_on_c, 1, 48, 0
1, 38109, Note_on_c, 0, 69, 0
1, 38112, Note_on_c, 0, 69, 69
1, 38112, Note_on_c, 1, 58, 64
1, 38112, Note_on_c, 1, 50, 64
1, 38124, Note_on_c, 0, 69, 0
1, 38124, Note_on_c, 0, 70, 69
1, 38136, Note_on_c, 0, 70, 0
1, 38136, Note_on_c, 0, 69, 69
1, 38157, Note_on_c, 0, 69, 0
1, 38160, Note_on_c, 0, 67, 68
1, 38201, Note_on_c, 1, 58, 0
1, 38201, Note_on_c, 1, 50, 0
1, 38205, Note_on_c, 0, 67, 0
1, 38208, Note_on_c, 0, 67, 68
1, 38208, Note_on_c, 1, 57, 64
1, 38208, Note_on_c, 1, 50, 64
1, 38220, Note_on_c, 0, 67, 0
1, 38220, Note_on_c, 0, 69, 68
1, 38232, Note_on_c, 0, 69, 0
1, 38232, Note_on_c, 0, 67, 68
1, 38253, Note_on_c, 0, 67, 0
1, 38256, Note_on_c, 0, 66, 67
1, 38297, Note_on_c, 1, 57, 0
1, 38297, Note_on_c, 1, 50, 0
1, 38301, Note_on_c, 0, 66, 0
1, 38304, Note_on_c, 0, 66, 66
1, 38304, Note_on_c, 1, 55, 64
1, 38393, Note_on_c, 1, 55, 0
1, 38400, Note_on_c, 0, 66, 0
1, 38400, Note_on_c, 0, 67, 65
1, 38400, Note_on_c, 1, 50, 64
1, 38489, Note_on_c, 0, 67, 0
1, 38489, Note_on_c, 1, 50, 0
1, 38496, Note_on_c, 1, 43, 64
1, 38585, Note_on_c, 1, 43, 0
1, 38592, Note_on_c, 0, 76, 78
1, 38592, Note_on_c, 1, 59, 64
1, 38592, Note_on_c, 1, 55, 64
1, 38610, Note_on_c, 0, 76, 0
1, 38610, Note_on_c, 0, 74, 78
1, 38628, Note_on_c, 0, 74, 0
1, 38628, Note_on_c, 0, 72, 78
1, 38646, Note_on_c, 0, 72, 0
1, 38646, Note_on_c, 0, 74, 78
1, 38681, Note_on_c, 0, 74, 0
1, 38681, Note_on_c, 1, 59, 0
1, 38681, Note_on_c, 1, 55, 0
1, 38688, Note_on_c, 0, 79, 78
1, 38718, Note_on_c, 0, 79, 0
1, 38720, Note_on_c, 0, 74, 78
1, 38750, Note_on_c, 0, 74, 0
1, 38752, Note_on_c, 0, 71, 78
1, 38782, Note_on_c, 0, 71, 0
1, 38784, Note_on_c, 0, 74, 78
1, 38784, Note_on_c, 1, 62, 64
1, 38784, Note_on_c, 1, 59, 64
1, 38814, Note_on_c, 0, 74, 0
1, 38816, Note_on_c, 0, 71, 78
1, 38846, Note_on_c, 0, 71, 0
1, 38848, Note_on_c, 0, 67, 78
1, 38873, Note_on_c, 1, 62, 0
1, 38873, Note_on_c, 1, 59, 0
1, 38878, Note_on_c, 0, 67, 0
1, 38880, Note_on_c, 0, 67, 78
1, 38880, Note_on_c, 1, 60, 64
1, 38880, Note_on_c, 1, 57, 64
1, 38910, Note_on_c, 0, 67, 0
1, 38912, Note_on_c, 0, 66, 78
1, 38942, Note_on_c, 0, 66, 0
1, 38944, Note_on_c, 0, 62, 78
1, 38969, Note_on_c, 1, 60, 0
1, 38969, Note_on_c, 1, 57, 0
1, 38974, Note_on_c, 0, 62, 0
1, 38976, Note_on_c, 0, 72, 78
1, 38976, Note_on_c, 0, 69, 78
1, 38976, Note_on_c, 1, 54, 64
1, 39072, Note_on_c, 0, 72, 0
1, 39072, Note_on_c, 0, 69, 0
1, 39072, Note_on_c, 0, 71, 78
1, 39072, Note_on_c, 0, 67, 78
1, 39072, Note_on_c, 1, 54, 0
1, 39072, Note_on_c, 1, 55, 64
1, 39161, Note_on_c, 0, 71, 0
1, 39161, Note_on_c, 0, 67, 0
1, 39161, Note_on_c, 1, 55, 0
1, 39168, Note_on_c, 0, 64, 78
1, 39168, Note_on_c, 1, 48, 64
1, 39198, Note_on_c, 0, 64, 0
1, 39200, Note_on_c, 0, 68, 78
1, 39230, Note_on_c, 0, 68, 0
1, 39232, Note_on_c, 0, 69, 78
1, 39262, Note_on_c, 0, 69, 0
1, 39264, Note_on_c, 0, 71, 78
1, 39294, Note_on_c, 0, 71, 0
1, 39296, Note_on_c, 0, 72, 78
1, 39326, Note_on_c, 0, 72, 0
1, 39328, Note_on_c, 0, 74, 78
1, 39358, Note_on_c, 0, 74, 0
1, 39360, Note_on_c, 0, 76, 78
1, 39390, Note_on_c, 0, 76, 0
1, 39392, Note_on_c, 0, 72, 78
1, 39422, Note_on_c, 0, 72, 0
1, 39424, Note_on_c, 0, 69, 78
1, 39433, Note_on_c, 1, 48, 0
1, 39454, Note_on_c, 0, 69, 0
1, 39456, Note_on_c, 0, 67, 78
1, 39456, Note_on_c, 1, 50, 64
1, 39545, Note_on_c, 1, 50, 0
1, 39552, Note_on_c, 1, 62, 64
1, 39582, Note_on_c, 1, 62, 0
1, 39584, Note_on_c, 1, 64, 64
1, 39614, Note_on_c, 1, 64, 0
1, 39616, Note_on_c, 1, 62, 64
1, 39646, Note_on_c, 1, 62, 0
1, 39648, Note_on_c, 0, 67, 0
1, 39648, Note_on_c, 0, 66, 78
1, 39648, Note_on_c, 1, 60, 64
1, 39678, Note_on_c, 1, 60, 0
1, 39680, Note_on_c, 1, 59, 64
1, 39710, Note_on_c, 1, 59, 0
1, 39712, Note_on_c, 1, 57, 64
1, 39737, Note_on_c, 0, 66, 0
1, 39742, Note_on_c, 1, 57, 0
1, 39744, Note_on_c, 0, 76, 78
1, 39744, Note_on_c, 1, 59, 64
1, 39744, Note_on_c, 1, 55, 64
1, 39762, Note_on_c, 0, 76, 0
1, 39762, Note_on_c, 0, 74, 78
1, 39780, Note_on_c, 0, 74, 0
1, 39780, Note_on_c, 0, 72, 78
1, 39798, Note_on_c, 0, 72, 0
1, 39798, Note_on_c, 0, 74, 78
1, 39833, Note_on_c, 0, 74, 0
1, 39833, Note_on_c, 1, 59, 0
1, 39833, Note_on_c, 1, 55, 0
1, 39840, Note_on_c, 0, 79, 78
1, 39870, Note_on_c, 0, 79, 0
1, 39872, Note_on_c, 0, 74, 78
1, 39902, Note_on_c, 0, 74, 0
1, 39904, Note_on_c, 0, 71, 78
1, 39934, Note_on_c, 0, 71, 0
1, 39936, Note_on_c, 0, 74, 78
1, 39936, Note_on_c, 1, 62, 64
1, 39936, Note_on_c, 1, 59, 64
1, 39966, Note_on_c, 0, 74, 0
1, 39968, Note_on_c, 0, 71, 78
1, 39998, Note_on_c, 0, 71, 0
1, 40000, Note_on_c, 0, 67, 78
1, 40025, Note_on_c, 1, 62, 0
1, 40025, Note_on_c, 1, 59, 0
1, 40030, Note_on_c, 0, 67, 0
1, 40032, Note_on_c, 0, 67, 78
1, 40032, Note_on_c, 1, 60, 64
1, 40032, Note_on_c, 1, 57, 64
1, 40062, Note_on_c, 0, 67, 0
1, 40064, Note_on_c, 0, 66, 78
1, 40094, Note_on_c, 0, 66, 0
1, 40096, Note_on_c, 0, 62, 78
1, 40121, Note_on_c, 1, 60, 0
1, 40121, Note_on_c, 1, 57, 0
1, 40126, Note_on_c, 0, 62, 0
1, 40128, Note_on_c, 0, 72, 78
1, 40128, Note_on_c, 0, 69, 78
1, 40128, Note_on_c, 1, 54, 64
1, 40224, Note_on_c, 0, 72, 0
1, 40224, Note_on_c, 0, 69, 0
1, 40224, Note_on_c, 0, 71, 78
1, 40224, Note_on_c, 0, 67, 78
1, 40224, Note_on_c, 1, 54, 0
1, 40224, Note_on_c, 1, 55, 64
1, 40313, Note_on_c, 0, 71, 0
1, 40313, Note_on_c, 0, 67, 0
1, 40313, Note_on_c, 1, 55, 0
1, 40320, Note_on_c, 0, 67, 78
1, 40350, Note_on_c, 0, 67, 0
1, 40352, Note_on_c, 0, 66, 78
1, 40382, Note_on_c, 0, 66, 0
1, 40384, Note_on_c, 0, 62, 78
1, 40414, Note_on_c, 0, 62, 0
1, 40416, Note_on_c, 0, 79, 78
1, 40416, Note_on_c, 0, 73, 78
1, 40416, Note_on_c, 1, 64, 64
1, 40512, Note_on_c, 0, 79, 0
1, 40512, Note_on_c, 0, 73, 0
1, 40512, Note_on_c, 0, 78, 78
1, 40512, Note_on_c, 0, 74, 78
1, 40512, Note_on_c, 1, 64, 0
1, 40512, Note_on_c, 1, 62, 64
1, 40601, Note_on_c, 0, 78, 0
1, 40601, Note_on_c, 0, 74, 0
1, 40601, Note_on_c, 1, 62, 0
1, 40608, Note_on_c, 0, 71, 78
1, 40608, Note_on_c, 1, 67, 64
1, 40638, Note_on_c, 0, 71, 0
1, 40640, Note_on_c, 0, 76, 78
1, 40670, Note_on_c, 0, 76, 0
1, 40672, Note_on_c, 0, 75, 78
1, 40702, Note_on_c, 0, 75, 0
1, 40704, Note_on_c, 0, 78, 78
1, 40734, Note_on_c, 0, 78, 0
1, 40736, Note_on_c, 0, 76, 78
1, 40766, Note_on_c, 0, 76, 0
1, 40768, Note_on_c, 0, 79, 78
1, 40785, Note_on_c, 1, 67, 0
1, 40798, Note_on_c, 0, 79, 0
1, 40800, Note_on_c, 0, 83, 78
1, 40830, Note_on_c, 0, 83, 0
1, 40832, Note_on_c, 0, 79, 78
1, 40862, Note_on_c, 0, 79, 0
1, 40864, Note_on_c, 0, 76, 78
1, 40894, Note_on_c, 0, 76, 0
1, 40896, Note_on_c, 0, 74, 78
1, 40926, Note_on_c, 0, 74, 0
1, 40928, Note_on_c, 0, 73, 78
1, 40958, Note_on_c, 0, 73, 0
1, 40960, Note_on_c, 0, 76, 78
1, 40990, Note_on_c, 0, 76, 0
1, 40992, Note_on_c, 0, 81, 94
1, 40992, Note_on_c, 1, 67, 64
1, 40992, Note_on_c, 1, 61, 64
1, 41088, Note_on_c, 1, 67, 0
1, 41088, Note_on_c, 1, 61, 0
1, 41088, Note_on_c, 1, 66, 64
1, 41088, Note_on_c, 1, 62, 64
1, 41118, Note_on_c, 0, 81, 0
1, 41120, Note_on_c, 0, 78, 78
1, 41150, Note_on_c, 0, 78, 0
1, 41152, Note_on_c, 0, 74, 78
1, 41177, Note_on_c, 1, 66, 0
1, 41177, Note_on_c, 1, 62, 0
1, 41182, Note_on_c, 0, 74, 0
1, 41184, Note_on_c, 0, 73, 78
1, 41214, Note_on_c, 0, 73, 0
1, 41216, Note_on_c, 0, 69, 78
1, 41246, Note_on_c, 0, 69, 0
1, 41248, Note_on_c, 0, 76, 78
1, 41278, Note_on_c, 0, 76, 0
1, 41280, Note_on_c, 0, 81, 94
1, 41280, Note_on_c, 1, 67, 64
1, 41280, Note_on_c, 1, 61, 64
1, 41376, Note_on_c, 1, 67, 0
1, 41376, Note_on_c, 1, 61, 0
1, 41376, Note_on_c, 1, 66, 64
1, 41376, Note_on_c, 1, 62, 64
1, 41406, Note_on_c, 0, 81, 0
1, 41408, Note_on_c, 0, 78, 78
1, 41438, Note_on_c, 0, 78, 0
1, 41440, Note_on_c, 0, 74, 78
1, 41465, Note_on_c, 1, 66, 0
1, 41465, Note_on_c, 1, 62, 0
1, 41470, Note_on_c, 0, 74, 0
1, 41472, Note_on_c, 0, 74, 78
1, 41502, Note_on_c, 0, 74, 0
1, 41504, Note_on_c, 0, 73, 78
1, 41534, Note_on_c, 0, 73, 0
1, 41536, Note_on_c, 0, 76, 78
1, 41566, Note_on_c, 0, 76, 0
1, 41568, Note_on_c, 0, 81, 94
1, 41568, Note_on_c, 1, 61, 64
1, 41568, Note_on_c, 1, 55, 64
1, 41664, Note_on_c, 1, 61, 0
1, 41664, Note_on_c, 1, 55, 0
1, 41664, Note_on_c, 1, 62, 64
1, 41664, Note_on_c, 1, 54, 64
1, 41694, Note_on_c, 0, 81, 0
1, 41696, Note_on_c, 0, 78, 78
1, 41726, Note_on_c, 0, 78, 0
1, 41728, Note_on_c, 0, 74, 78
1, 41753, Note_on_c, 1, 62, 0
1, 41753, Note_on_c, 1, 54, 0
1, 41758, Note_on_c, 0, 74, 0
1, 41760, Note_on_c, 0, 73, 78
1, 41790, Note_on_c, 0, 73, 0
1, 41792, Note_on_c, 0, 69, 78
1, 41822, Note_on_c, 0, 69, 0
1, 41824, Note_on_c, 0, 76, 78
1, 41854, Note_on_c, 0, 76, 0
1, 41856, Note_on_c, 0, 81, 94
1, 41856, Note_on_c, 1, 61, 64
1, 41856, Note_on_c, 1, 55, 64
1, 41952, Note_on_c, 1, 61, 0
1, 41952, Note_on_c, 1, 55, 0
1, 41952, Note_on_c, 1, 62, 64
1, 41952, Note_on_c, 1, 54, 64
1, 41982, Note_on_c, 0, 81, 0
1, 41984, Note_on_c, 0, 78, 78
1, 42014, Note_on_c, 0, 78, 0
1, 42016, Note_on_c, 0, 74, 78
1, 42041, Note_on_c, 1, 62, 0
1, 42041, Note_on_c, 1, 54, 0
1, 42046, Note_on_c, 0, 74, 0
1, 42048, Note_on_c, 0, 73, 78
1, 42048, Note_on_c, 1, 55, 64
1, 42078, Note_on_c, 0, 73, 0
1, 42080, Note_on_c, 0, 71, 79
1, 42110, Note_on_c, 0, 71, 0
1, 42112, Note_on_c, 0, 82, 80
1, 42137, Note_on_c, 1, 55, 0
1, 42142, Note_on_c, 0, 82, 0
1, 42144, Note_on_c, 0, 83, 81
1, 42174, Note_on_c, 0, 83, 0
1, 42176, Note_on_c, 0, 79, 82
1, 42206, Note_on_c, 0, 79, 0
1, 42208, Note_on_c, 0, 76, 83
1, 42238, Note_on_c, 0, 76, 0
1, 42240, Note_on_c, 0, 79, 85
1, 42240, Note_on_c, 1, 67, 64
1, 42240, Note_on_c, 1, 57, 64
1, 42270, Note_on_c, 0, 79, 0
1, 42272, Note_on_c, 0, 76, 84
1, 42302, Note_on_c, 0, 76, 0
1, 42304, Note_on_c, 0, 73, 83
1, 42329, Note_on_c, 1, 67, 0
1, 42329, Note_on_c, 1, 57, 0
1, 42334, Note_on_c, 0, 73, 0
1, 42336, Note_on_c, 0, 73, 83
1, 42336, Note_on_c, 1, 67, 64
1, 42336, Note_on_c, 1, 62, 64
1, 42528, Note_on_c, 0, 73, 0
1, 42528, Note_on_c, 0, 74, 79
1, 42528, Note_on_c, 1, 67, 0
1, 42528, Note_on_c, 1, 66, 64
1, 42601, Note_on_c, 1, 62, 0
1, 42617, Note_on_c, 0, 74, 0
1, 42617, Note_on_c, 1, 66, 0
1, 42624, Note_on_c, 0, 76, 78
1, 42624, Note_on_c, 1, 59, 64
1, 42624, Note_on_c, 1, 55, 64
1, 42642, Note_on_c, 0, 76, 0
1, 42642, Note_on_c, 0, 74, 78
1, 42660, Note_on_c, 0, 74, 0
1, 42660, Note_on_c, 0, 72, 78
1, 42678, Note_on_c, 0, 72, 0
1, 42678, Note_on_c, 0, 74, 78
1, 42713, Note_on_c, 0, 74, 0
1, 42713, Note_on_c, 1, 59, 0
1, 42713, Note_on_c, 1, 55, 0
1, 42720, Note_on_c, 0, 79, 78
1, 42750, Note_on_c, 0, 79, 0
1, 42752, Note_on_c, 0, 74, 78
1, 42782, Note_on_c, 0, 74, 0
1, 42784, Note_on_c, 0, 71, 78
1, 42814, Note_on_c, 0, 71, 0
1, 42816, Note_on_c, 0, 74, 78
1, 42816, Note_on_c, 1, 62, 64
1, 42816, Note_on_c, 1, 59, 64
1, 42846, Note_on_c, 0, 74, 0
1, 42848, Note_on_c, 0, 71, 78
1, 42878, Note_on_c, 0, 71, 0
1, 42880, Note_on_c, 0, 67, 78
1, 42905, Note_on_c, 1, 62, 0
1, 42905, Note_on_c, 1, 59, 0
1, 42910, Note_on_c, 0, 67, 0
1, 42912, Note_on_c, 0, 67, 78
1, 42912, Note_on_c, 1, 60, 64
1, 42912, Note_on_c, 1, 57, 64
1, 42942, Note_on_c, 0, 67, 0
1, 42944, Note_on_c, 0, 66, 78
1, 42974, Note_on_c, 0, 66, 0
1, 42976, Note_on_c, 0, 62, 78
1, 43001, Note_on_c, 1, 60, 0
1, 43001, Note_on_c, 1, 57, 0
1, 43006, Note_on_c, 0, 62, 0
1, 43008, Note_on_c, 0, 72, 78
1, 43008, Note_on_c, 0, 69, 78
1, 43008, Note_on_c, 1, 54, 64
1, 43104, Note_on_c, 0, 72, 0
1, 43104, Note_on_c, 0, 69, 0
1, 43104, Note_on_c, 0, 71, 78
1, 43104, Note_on_c, 0, 67, 78
1, 43104, Note_on_c, 1, 54, 0
1, 43104, Note_on_c, 1, 55, 64
1, 43193, Note_on_c, 0, 71, 0
1, 43193, Note_on_c, 0, 67, 0
1, 43193, Note_on_c, 1, 55, 0
1, 43200, Note_on_c, 0, 64, 78
1, 43200, Note_on_c, 1, 48, 64
1, 43230, Note_on_c, 0, 64, 0
1, 43232, Note_on_c, 0, 68, 78
1, 43262, Note_on_c, 0, 68, 0
1, 43264, Note_on_c, 0, 69, 78
1, 43294, Note_on_c, 0, 69, 0
1, 43296, Note_on_c, 0, 71, 78
1, 43326, Note_on_c, 0, 71, 0
1, 43328, Note_on_c, 0, 72, 78
1, 43358, Note_on_c, 0, 72, 0
1, 43360, Note_on_c, 0, 74, 78
1, 43390, Note_on_c, 0, 74, 0
1, 43392, Note_on_c, 0, 76, 78
1, 43422, Note_on_c, 0, 76, 0
1, 43424, Note_on_c, 0, 72, 78
1, 43454, Note_on_c, 0, 72, 0
1, 43456, Note_on_c, 0, 69, 78
1, 43465, Note_on_c, 1, 48, 0
1, 43486, Note_on_c, 0, 69, 0
1, 43488, Note_on_c, 0, 67, 78
1, 43488, Note_on_c, 1, 50, 64
1, 43577, Note_on_c, 1, 50, 0
1, 43584, Note_on_c, 1, 62, 64
1, 43614, Note_on_c, 1, 62, 0
1, 43616, Note_on_c, 1, 64, 64
1, 43646, Note_on_c, 1, 64, 0
1, 43648, Note_on_c, 1, 62, 64
1, 43678, Note_on_c, 1, 62, 0
1, 43680, Note_on_c, 0, 67, 0
1, 43680, Note_on_c, 0, 66, 78
1, 43680, Note_on_c, 1, 60, 64
1, 43710, Note_on_c, 1, 60, 0
1, 43712, Note_on_c, 1, 59, 64
1, 43742, Note_on_c, 1, 59, 0
1, 43744, Note_on_c, 1, 57, 64
1, 43769, Note_on_c, 0, 66, 0
1, 43774, Note_on_c, 1, 57, 0
1, 43776, Note_on_c, 0, 76, 78
1, 43776, Note_on_c, 1, 59, 64
1, 43776, Note_on_c, 1, 55, 64
1, 43794, Note_on_c, 0, 76, 0
1, 43794, Note_on_c, 0, 74, 78
1, 43812, Note_on_c, 0, 74, 0
1, 43812, Note_on_c, 0, 72, 78
1, 43830, Note_on_c, 0, 72, 0
1, 43830, Note_on_c, 0, 74, 78
1, 43865, Note_on_c, 0, 74, 0
1, 43865, Note_on_c, 1, 59, 0
1, 43865, Note_on_c, 1, 55, 0
1, 43872, Note_on_c, 0, 79, 78
1, 43902, Note_on_c, 0, 79, 0
1, 43904, Note_on_c, 0, 74, 78
1, 43934, Note_on_c, 0, 74, 0
1, 43936, Note_on_c, 0, 71, 78
1, 43966, Note_on_c, 0, 71, 0
1, 43968, Note_on_c, 0, 74, 78
1, 43968, Note_on_c, 1, 62, 64
1, 43968, Note_on_c, 1, 59, 64
1, 43998, Note_on_c, 0, 74, 0
1, 44000, Note_on_c, 0, 71, 78
1, 44030, Note_on_c, 0, 71, 0
1, 44032, Note_on_c, 0, 67, 78
1, 44057, Note_on_c, 1, 62, 0
1, 44057, Note_on_c, 1, 59, 0
1, 44062, Note_on_c, 0, 67, 0
1, 44064, Note_on_c, 0, 67, 78
1, 44064, Note_on_c, 1, 60, 64
1, 44064, Note_on_c, 1, 57, 64
1, 44094, Note_on_c, 0, 67, 0
1, 44096, Note_on_c, 0, 66, 78
1, 44126, Note_on_c, 0, 66, 0
1, 44128, Note_on_c, 0, 62, 78
1, 44153, Note_on_c, 1, 60, 0
1, 44153, Note_on_c, 1, 57, 0
1, 44158, Note_on_c, 0, 62, 0
1, 44160, Note_on_c, 0, 72, 78
1, 44160, Note_on_c, 0, 69, 78
1, 44160, Note_on_c, 1, 54, 64
1, 44256, Note_on_c, 0, 72, 0
1, 44256, Note_on_c, 0, 69, 0
1, 44256, Note_on_c, 0, 71, 78
1, 44256, Note_on_c, 0, 67, 78
1, 44256, Note_on_c, 1, 54, 0
1, 44256, Note_on_c, 1, 55, 64
1, 44345, Note_on_c, 0, 71, 0
1, 44345, Note_on_c, 0, 67, 0
1, 44345, Note_on_c, 1, 55, 0
1, 44352, Note_on_c, 0, 67, 78
1, 44382, Note_on_c, 0, 67, 0
1, 44384, Note_on_c, 0, 66, 78
1, 44414, Note_on_c, 0, 66, 0
1, 44416, Note_on_c, 0, 62, 78
1, 44446, Note_on_c, 0, 62, 0
1, 44448, Note_on_c, 0, 79, 78
1, 44448, Note_on_c, 0, 73, 78
1, 44448, Note_on_c, 1, 64, 64
1, 44544, Note_on_c, 0, 79, 0
1, 44544, Note_on_c, 0, 73, 0
1, 44544, Note_on_c, 0, 78, 78
1, 44544, Note_on_c, 0, 74, 78
1, 44544, Note_on_c, 1, 64, 0
1, 44544, Note_on_c, 1, 62, 64
1, 44633, Note_on_c, 0, 78, 0
1, 44633, Note_on_c, 0, 74, 0
1, 44633, Note_on_c, 1, 62, 0
1, 44640, Note_on_c, 0, 71, 78
1, 44640, Note_on_c, 1, 67, 64
1, 44670, Note_on_c, 0, 71, 0
1, 44672, Note_on_c, 0, 76, 78
1, 44702, Note_on_c, 0, 76, 0
1, 44704, Note_on_c, 0, 75, 78
1, 44734, Note_on_c, 0, 75, 0
1, 44736, Note_on_c, 0, 78, 78
1, 44766, Note_on_c, 0, 78, 0
1, 44768, Note_on_c, 0, 76, 78
1, 44798, Note_on_c, 0, 76, 0
1, 44800, Note_on_c, 0, 79, 78
1, 44817, Note_on_c, 1, 67, 0
1, 44830, Note_on_c, 0, 79, 0
1, 44832, Note_on_c, 0, 83, 78
1, 44862, Note_on_c, 0, 83, 0
1, 44864, Note_on_c, 0, 79, 78
1, 44894, Note_on_c, 0, 79, 0
1, 44896, Note_on_c, 0, 76, 78
1, 44926, Note_on_c, 0, 76, 0
1, 44928, Note_on_c, 0, 74, 78
1, 44958, Note_on_c, 0, 74, 0
1, 44960, Note_on_c, 0, 73, 78
1, 44990, Note_on_c, 0, 73, 0
1, 44992, Note_on_c, 0, 76, 78
1, 45022, Note_on_c, 0, 76, 0
1, 45024, Note_on_c, 0, 81, 94
1, 45024, Note_on_c, 1, 67, 64
1, 45024, Note_on_c, 1, 61, 64
1, 45120, Note_on_c, 1, 67, 0
1, 45120, Note_on_c, 1, 61, 0
1, 45120, Note_on_c, 1, 66, 64
1, 45120, Note_on_c, 1, 62, 64
1, 45150, Note_on_c, 0, 81, 0
1, 45152, Note_on_c, 0, 78, 78
1, 45182, Note_on_c, 0, 78, 0
1, 45184, Note_on_c, 0, 74, 78
1, 45209, Note_on_c, 1, 66, 0
1, 45209, Note_on_c, 1, 62, 0
1, 45214, Note_on_c, 0, 74, 0
1, 45216, Note_on_c, 0, 73, 78
1, 45246, Note_on_c, 0, 73, 0
1, 45248, Note_on_c, 0, 69, 78
1, 45278, Note_on_c, 0, 69, 0
1, 45280, Note_on_c, 0, 76, 78
1, 45310, Note_on_c, 0, 76, 0
1, 45312, Note_on_c, 0, 81, 94
1, 45312, Note_on_c, 1, 67, 64
1, 45312, Note_on_c, 1, 61, 64
1, 45408, Note_on_c, 1, 67, 0
1, 45408, Note_on_c, 1, 61, 0
1, 45408, Note_on_c, 1, 66, 64
1, 45408, Note_on_c, 1, 62, 64
1, 45438, Note_on_c, 0, 81, 0
1, 45440, Note_on_c, 0, 78, 78
1, 45470, Note_on_c, 0, 78, 0
1, 45472, Note_on_c, 0, 74, 78
1, 45497, Note_on_c, 1, 66, 0
1, 45497, Note_on_c, 1, 62, 0
1, 45502, Note_on_c, 0, 74, 0
1, 45504, Note_on_c, 0, 74, 78
1, 45534, Note_on_c, 0, 74, 0
1, 45536, Note_on_c, 0, 73, 78
1, 45566, Note_on_c, 0, 73, 0
1, 45568, Note_on_c, 0, 76, 78
1, 45598, Note_on_c, 0, 76, 0
1, 45600, Note_on_c, 0, 81, 94
1, 45600, Note_on_c, 1, 61, 64
1, 45600, Note_on_c, 1, 55, 64
1, 45696, Note_on_c, 1, 61, 0
1, 45696, Note_on_c, 1, 55, 0
1, 45696, Note_on_c, 1, 62, 64
1, 45696, Note_on_c, 1, 54, 64
1, 45726, Note_on_c, 0, 81, 0
1, 45728, Note_on_c, 0, 78, 78
1, 45758, Note_on_c, 0, 78, 0
1, 45760, Note_on_c, 0, 74, 78
1, 45785, Note_on_c, 1, 62, 0
1, 45785, Note_on_c, 1, 54, 0
1, 45790, Note_on_c, 0, 74, 0
1, 45792, Note_on_c, 0, 73, 78
1, 45822, Note_on_c, 0, 73, 0
1, 45824, Note_on_c, 0, 69, 78
1, 45854, Note_on_c, 0, 69, 0
1, 45856, Note_on_c, 0, 76, 78
1, 45886, Note_on_c, 0, 76, 0
1, 45888, Note_on_c, 0, 81, 94
1, 45888, Note_on_c, 1, 61, 64
1, 45888, Note_on_c, 1, 55, 64
1, 45984, Note_on_c, 1, 61, 0
1, 45984, Note_on_c, 1, 55, 0
1, 45984, Note_on_c, 1, 62, 64
1, 45984, Note_on_c, 1, 54, 64
1, 46014, Note_on_c, 0, 81, 0
1, 46016, Note_on_c, 0, 78, 78
1, 46046, Note_on_c, 0, 78, 0
1, 46048, Note_on_c, 0, 74, 78
1, 46073, Note_on_c, 1, 62, 0
1, 46073, Note_on_c, 1, 54, 0
1, 46078, Note_on_c, 0, 74, 0
1, 46080, Note_on_c, 0, 73, 78
1, 46080, Note_on_c, 1, 55, 64
1, 46110, Note_on_c, 0, 73, 0
1, 46112, Note_on_c, 0, 71, 79
1, 46142, Note_on_c, 0, 71, 0
1, 46144, Note_on_c, 0, 82, 80
1, 46169, Note_on_c, 1, 55, 0
1, 46174, Note_on_c, 0, 82, 0
1, 46176, Note_on_c, 0, 83, 81
1, 46206, Note_on_c, 0, 83, 0
1, 46208, Note_on_c, 0, 79, 82
1, 46238, Note_on_c, 0, 79, 0
1, 46240, Note_on_c, 0, 76, 83
1, 46270, Note_on_c, 0, 76, 0
1, 46272, Note_on_c, 0, 79, 85
1, 46272, Note_on_c, 1, 67, 64
1, 46272, Note_on_c, 1, 57, 64
1, 46302, Note_on_c, 0, 79, 0
1, 46304, Note_on_c, 0, 76, 84
1, 46334, Note_on_c, 0, 76, 0
1, 46336, Note_on_c, 0, 73, 83
1, 46361, Note_on_c, 1, 67, 0
1, 46361, Note_on_c, 1, 57, 0
1, 46366, Note_on_c, 0, 73, 0
1, 46368, Note_on_c, 0, 73, 83
1, 46368, Note_on_c, 1, 67, 64
1, 46368, Note_on_c, 1, 62, 64
1, 46560, Note_on_c, 0, 73, 0
1, 46560, Note_on_c, 0, 74, 79
1, 46560, Note_on_c, 1, 67, 0
1, 46560, Note_on_c, 1, 66, 64
1, 46633, Note_on_c, 1, 62, 0
1, 46649, Note_on_c, 0, 74, 0
1, 46649, Note_on_c, 1, 66, 0
1, 46656, Note_on_c, 0, 76, 78
1, 46656, Note_on_c, 1, 62, 64
1, 46674, Note_on_c, 0, 76, 0
1, 46674, Note_on_c, 0, 74, 78
1, 46686, Note_on_c, 1, 62, 0
1, 46688, Note_on_c, 1, 66, 64
1, 46692, Note_on_c, 0, 74, 0
1, 46692, Note_on_c, 0, 72, 78
1, 46710, Note_on_c, 0, 72, 0
1, 46710, Note_on_c, 0, 74, 78
1, 46718, Note_on_c, 1, 66, 0
1, 46720, Note_on_c, 1, 69, 64
1, 46745, Note_on_c, 0, 74, 0
1, 46750, Note_on_c, 1, 69, 0
1, 46752, Note_on_c, 0, 86, 78
1, 46752, Note_on_c, 1, 62, 64
1, 46782, Note_on_c, 0, 86, 0
1, 46782, Note_on_c, 1, 62, 0
1, 46784, Note_on_c, 0, 81, 78
1, 46784, Note_on_c, 1, 66, 64
1, 46814, Note_on_c, 0, 81, 0
1, 46814, Note_on_c, 1, 66, 0
1, 46816, Note_on_c, 0, 78, 78
1, 46816, Note_on_c, 1, 69, 64
1, 46846, Note_on_c, 0, 78, 0
1, 46846, Note_on_c, 1, 69, 0
1, 46848, Note_on_c, 0, 81, 78
1, 46848, Note_on_c, 1, 62, 64
1, 46878, Note_on_c, 0, 81, 0
1, 46878, Note_on_c, 1, 62, 0
1, 46880, Note_on_c, 0, 78, 78
1, 46880, Note_on_c, 1, 66, 64
1, 46910, Note_on_c, 0, 78, 0
1, 46910, Note_on_c, 1, 66, 0
1, 46912, Note_on_c, 0, 74, 78
1, 46912, Note_on_c, 1, 69, 64
1, 46942, Note_on_c, 0, 74, 0
1, 46942, Note_on_c, 1, 69, 0
1, 46944, Note_on_c, 0, 74, 78
1, 46944, Note_on_c, 1, 64, 64
1, 46974, Note_on_c, 1, 64, 0
1, 46976, Note_on_c, 1, 67, 64
1, 47006, Note_on_c, 1, 67, 0
1, 47008, Note_on_c, 1, 69, 64
1, 47038, Note_on_c, 1, 69, 0
1, 47040, Note_on_c, 1, 64, 64
1, 47070, Note_on_c, 1, 64, 0
1, 47072, Note_on_c, 1, 67, 64
1, 47102, Note_on_c, 1, 67, 0
1, 47104, Note_on_c, 1, 69, 64
1, 47134, Note_on_c, 1, 69, 0
1, 47136, Note_on_c, 0, 74, 0
1, 47136, Note_on_c, 0, 73, 78
1, 47136, Note_on_c, 1, 64, 64
1, 47148, Note_on_c, 0, 73, 0
1, 47148, Note_on_c, 0, 74, 78
1, 47160, Note_on_c, 0, 74, 0
1, 47160, Note_on_c, 0, 73, 78
1, 47166, Note_on_c, 1, 64, 0
1, 47168, Note_on_c, 1, 67, 64
1, 47198, Note_on_c, 1, 67, 0
1, 47200, Note_on_c, 1, 69, 64
1, 47225, Note_on_c, 0, 73, 0
1, 47230, Note_on_c, 1, 69, 0
1, 47232, Note_on_c, 1, 66, 78
1, 47262, Note_on_c, 1, 66, 0
1, 47264, Note_on_c, 1, 69, 78
1, 47294, Note_on_c, 1, 69, 0
1, 47296, Note_on_c, 1, 72, 78
1, 47326, Note_on_c, 1, 72, 0
1, 47328, Note_on_c, 0, 74, 78
1, 47358, Note_on_c, 0, 74, 0
1, 47360, Note_on_c, 0, 78, 78
1, 47390, Note_on_c, 0, 78, 0
1, 47392, Note_on_c, 0, 81, 78
1, 47422, Note_on_c, 0, 81, 0
1, 47424, Note_on_c, 0, 84, 78
1, 47454, Note_on_c, 0, 84, 0
1, 47456, Note_on_c, 0, 81, 78
1, 47486, Note_on_c, 0, 81, 0
1, 47488, Note_on_c, 0, 78, 78
1, 47518, Note_on_c, 0, 78, 0
1, 47520, Note_on_c, 0, 72, 78
1, 47520, Note_on_c, 1, 55, 64
1, 47550, Note_on_c, 1, 55, 0
1, 47552, Note_on_c, 1, 62, 64
1, 47582, Note_on_c, 1, 62, 0
1, 47584, Note_on_c, 1, 67, 64
1, 47614, Note_on_c, 1, 67, 0
1, 47616, Note_on_c, 0, 72, 0
1, 47616, Note_on_c, 0, 71, 78
1, 47616, Note_on_c, 1, 55, 64
1, 47628, Note_on_c, 0, 71, 0
1, 47628, Note_on_c, 0, 72, 78
1, 47640, Note_on_c, 0, 72, 0
1, 47640, Note_on_c, 0, 71, 78
1, 47646, Note_on_c, 1, 55, 0
1, 47648, Note_on_c, 1, 62, 64
1, 47678, Note_on_c, 1, 62, 0
1, 47680, Note_on_c, 1, 67, 64
1, 47705, Note_on_c, 0, 71, 0
1, 47710, Note_on_c, 1, 67, 0
1, 47712, Note_on_c, 0, 79, 78
1, 47712, Note_on_c, 1, 59, 64
1, 47742, Note_on_c, 1, 59, 0
1, 47744, Note_on_c, 1, 62, 64
1, 47774, Note_on_c, 1, 62, 0
1, 47776, Note_on_c, 1, 67, 64
1, 47801, Note_on_c, 0, 79, 0
1, 47806, Note_on_c, 1, 67, 0
1, 47808, Note_on_c, 0, 75, 78
1, 47808, Note_on_c, 1, 60, 64
1, 47838, Note_on_c, 1, 60, 0
1, 47840, Note_on_c, 1, 64, 64
1, 47856, Note_on_c, 0, 75, 0
1, 47856, Note_on_c, 0, 76, 78
1, 47870, Note_on_c, 1, 64, 0
1, 47872, Note_on_c, 1, 67, 64
1, 47901, Note_on_c, 0, 76, 0
1, 47902, Note_on_c, 1, 67, 0
1, 47904, Note_on_c, 0, 76, 78
1, 47904, Note_on_c, 1, 60, 64
1, 47934, Note_on_c, 1, 60, 0
1, 47936, Note_on_c, 1, 64, 64
1, 47966, Note_on_c, 1, 64, 0
1, 47968, Note_on_c, 1, 67, 64
1, 47993, Note_on_c, 0, 76, 0
1, 47998, Note_on_c, 1, 67, 0
1, 48000, Note_on_c, 0, 79, 78
1, 48000, Note_on_c, 1, 60, 64
1, 48030, Note_on_c, 1, 60, 0
1, 48032, Note_on_c, 1, 64, 64
1, 48062, Note_on_c, 1, 64, 0
1, 48064, Note_on_c, 1, 67, 64
1, 48089, Note_on_c, 0, 79, 0
1, 48094, Note_on_c, 1, 67, 0
1, 48096, Note_on_c, 0, 73, 78
1, 48096, Note_on_c, 1, 59, 64
1, 48126, Note_on_c, 1, 59, 0
1, 48128, Note_on_c, 1, 62, 64
1, 48144, Note_on_c, 0, 73, 0
1, 48144, Note_on_c, 0, 74, 78
1, 48158, Note_on_c, 1, 62, 0
1, 48160, Note_on_c, 1, 67, 64
1, 48189, Note_on_c, 0, 74, 0
1, 48190, Note_on_c, 1, 67, 0
1, 48192, Note_on_c, 0, 74, 78
1, 48192, Note_on_c, 1, 59, 64
1, 48222, Note_on_c, 1, 59, 0
1, 48224, Note_on_c, 1, 62, 64
1, 48254, Note_on_c, 1, 62, 0
1, 48256, Note_on_c, 1, 67, 64
1, 48281, Note_on_c, 0, 74, 0
1, 48286, Note_on_c, 1, 67, 0
1, 48288, Note_on_c, 0, 86, 78
1, 48288, Note_on_c, 1, 59, 64
1, 48318, Note_on_c, 0, 86, 0
1, 48318, Note_on_c, 1, 59, 0
1, 48320, Note_on_c, 0, 83, 78
1, 48320, Note_on_c, 1, 62, 64
1, 48350, Note_on_c, 0, 83, 0
1, 48350, Note_on_c, 1, 62, 0
1, 48352, Note_on_c, 0, 79, 78
1, 48352, Note_on_c, 1, 67, 64
1, 48382, Note_on_c, 0, 79, 0
1, 48382, Note_on_c, 1, 67, 0
1, 48384, Note_on_c, 0, 78, 78
1, 48384, Note_on_c, 1, 60, 64
1, 48414, Note_on_c, 1, 60, 0
1, 48416, Note_on_c, 1, 64, 64
1, 48446, Note_on_c, 1, 64, 0
1, 48448, Note_on_c, 1, 67, 64
1, 48473, Note_on_c, 0, 78, 0
1, 48478, Note_on_c, 1, 67, 0
1, 48480, Note_on_c, 0, 76, 78
1, 48480, Note_on_c, 1, 60, 64
1, 48492, Note_on_c, 0, 76, 0
1, 48492, Note_on_c, 0, 78, 78
1, 48504, Note_on_c, 0, 78, 0
1, 48504, Note_on_c, 0, 76, 78
1, 48510, Note_on_c, 1, 60, 0
1, 48512, Note_on_c, 1, 64, 64
1, 48542, Note_on_c, 1, 64, 0
1, 48544, Note_on_c, 1, 67, 64
1, 48569, Note_on_c, 0, 76, 0
1, 48574, Note_on_c, 1, 67, 0
1, 48576, Note_on_c, 0, 79, 78
1, 48576, Note_on_c, 1, 60, 64
1, 48606, Note_on_c, 0, 79, 0
1, 48606, Note_on_c, 1, 60, 0
1, 48608, Note_on_c, 0, 78, 78
1, 48608, Note_on_c, 1, 64, 64
1, 48638, Note_on_c, 0, 78, 0
1, 48638, Note_on_c, 1, 64, 0
1, 48640, Note_on_c, 0, 76, 78
1, 48640, Note_on_c, 1, 67, 64
1, 48670, Note_on_c, 0, 76, 0
1, 48670, Note_on_c, 1, 67, 0
1, 48672, Note_on_c, 0, 76, 78
1, 48672, Note_on_c, 1, 59, 64
1, 48702, Note_on_c, 1, 59, 0
1, 48704, Note_on_c, 1, 62, 64
1, 48734, Note_on_c, 1, 62, 0
1, 48736, Note_on_c, 1, 67, 64
1, 48761, Note_on_c, 0, 76, 0
1, 48766, Note_on_c, 1, 67, 0
1, 48768, Note_on_c, 0, 74, 78
1, 48768, Note_on_c, 1, 59, 64
1, 48780, Note_on_c, 0, 74, 0
1, 48780, Note_on_c, 0, 76, 78
1, 48792, Note_on_c, 0, 76, 0
1, 48792, Note_on_c, 0, 74, 78
1, 48798, Note_on_c, 1, 59, 0
1, 48800, Note_on_c, 1, 62, 64
1, 48830, Note_on_c, 1, 62, 0
1, 48832, Note_on_c, 1, 67, 64
1, 48857, Note_on_c, 0, 74, 0
1, 48862, Note_on_c, 1, 67, 0
1, 48864, Note_on_c, 0, 78, 78
1, 48864, Note_on_c, 1, 59, 64
1, 48894, Note_on_c, 0, 78, 0
1, 48894, Note_on_c, 1, 59, 0
1, 48896, Note_on_c, 0, 79, 78
1, 48896, Note_on_c, 1, 62, 64
1, 48926, Note_on_c, 0, 79, 0
1, 48926, Note_on_c, 1, 62, 0
1, 48928, Note_on_c, 0, 83, 78
1, 48928, Note_on_c, 1, 67, 64
1, 48958, Note_on_c, 0, 83, 0
1, 48958, Note_on_c, 1, 67, 0
1, 48960, Note_on_c, 0, 75, 78
1, 48960, Note_on_c, 1, 60, 64
1, 48990, Note_on_c, 0, 75, 0
1, 48992, Note_on_c, 0, 76, 78
1, 49022, Note_on_c, 0, 76, 0
1, 49024, Note_on_c, 0, 79, 78
1, 49049, Note_on_c, 1, 60, 0
1, 49054, Note_on_c, 0, 79, 0
1, 49056, Note_on_c, 0, 71, 78
1, 49086, Note_on_c, 0, 71, 0
1, 49088, Note_on_c, 0, 72, 78
1, 49118, Note_on_c, 0, 72, 0
1, 49120, Note_on_c, 0, 76, 78
1, 49150, Note_on_c, 0, 76, 0
1, 49152, Note_on_c, 0, 68, 78
1, 49182, Note_on_c, 0, 68, 0
1, 49184, Note_on_c, 0, 69, 78
1, 49214, Note_on_c, 0, 69, 0
1, 49216, Note_on_c, 0, 72, 78
1, 49246, Note_on_c, 0, 72, 0
1, 49248, Note_on_c, 0, 67, 78
1, 49248, Note_on_c, 1, 50, 64
1, 49337, Note_on_c, 1, 50, 0
1, 49344, Note_on_c, 1, 62, 64
1, 49374, Note_on_c, 1, 62, 0
1, 49376, Note_on_c, 1, 64, 66
1, 49406, Note_on_c, 1, 64, 0
1, 49408, Note_on_c, 1, 62, 69
1, 49438, Note_on_c, 1, 62, 0
1, 49440, Note_on_c, 0, 67, 0
1, 49440, Note_on_c, 0, 66, 78
1, 49440, Note_on_c, 1, 60, 72
1, 49452, Note_on_c, 0, 66, 0
1, 49452, Note_on_c, 0, 67, 78
1, 49464, Note_on_c, 0, 67, 0
1, 49464, Note_on_c, 0, 66, 78
1, 49470, Note_on_c, 1, 60, 0
1, 49472, Note_on_c, 1, 59, 74
1, 49502, Note_on_c, 1, 59, 0
1, 49504, Note_on_c, 1, 57, 78
1, 49529, Note_on_c, 0, 66, 0
1, 49534, Note_on_c, 1, 57, 0
1, 49536, Note_on_c, 0, 76, 78
1, 49536, Note_on_c, 1, 59, 78
1, 49536, Note_on_c, 1, 55, 78
1, 49554, Note_on_c, 0, 76, 0
1, 49554, Note_on_c, 0, 74, 78
1, 49572, Note_on_c, 0, 74, 0
1, 49572, Note_on_c, 0, 72, 78
1, 49590, Note_on_c, 0, 72, 0
1, 49590, Note_on_c, 0, 74, 78
1, 49625, Note_on_c, 0, 74, 0
1, 49625, Note_on_c, 1, 59, 0
1, 49625, Note_on_c, 1, 55, 0
1, 49632, Note_on_c, 0, 79, 78
1, 49662, Note_on_c, 0, 79, 0
1, 49664, Note_on_c, 0, 74, 78
1, 49694, Note_on_c, 0, 74, 0
1, 49696, Note_on_c, 0, 71, 78
1, 49726, Note_on_c, 0, 71, 0
1, 49728, Note_on_c, 0, 74, 78
1, 49728, Note_on_c, 1, 62, 78
1, 49728, Note_on_c, 1, 59, 78
1, 49758, Note_on_c, 0, 74, 0
1, 49760, Note_on_c, 0, 71, 78
1, 49790, Note_on_c, 0, 71, 0
1, 49792, Note_on_c, 0, 67, 78
1, 49817, Note_on_c, 1, 62, 0
1, 49817, Note_on_c, 1, 59, 0
1, 49822, Note_on_c, 0, 67, 0
1, 49824, Note_on_c, 0, 67, 78
1, 49824, Note_on_c, 1, 60, 78
1, 49824, Note_on_c, 1, 57, 78
1, 49854, Note_on_c, 0, 67, 0
1, 49856, Note_on_c, 0, 66, 78
1, 49886, Note_on_c, 0, 66, 0
1, 49888, Note_on_c, 0, 62, 78
1, 49913, Note_on_c, 1, 60, 0
1, 49913, Note_on_c, 1, 57, 0
1, 49918, Note_on_c, 0, 62, 0
1, 49920, Note_on_c, 0, 72, 78
1, 49920, Note_on_c, 0, 69, 78
1, 49920, Note_on_c, 1, 54, 78
1, 50016, Note_on_c, 0, 72, 0
1, 50016, Note_on_c, 0, 69, 0
1, 50016, Note_on_c, 0, 71, 78
1, 50016, Note_on_c, 0, 67, 78
1, 50016, Note_on_c, 1, 54, 0
1, 50016, Note_on_c, 1, 55, 78
1, 50105, Note_on_c, 0, 71, 0
1, 50105, Note_on_c, 0, 67, 0
1, 50105, Note_on_c, 1, 55, 0
1, 50112, Note_on_c, 0, 64, 78
1, 50112, Note_on_c, 1, 48, 78
1, 50142, Note_on_c, 0, 64, 0
1, 50144, Note_on_c, 0, 68, 79
1, 50174, Note_on_c, 0, 68, 0
1, 50176, Note_on_c, 0, 69, 80
1, 50206, Note_on_c, 0, 69, 0
1, 50208, Note_on_c, 0, 71, 81
1, 50238, Note_on_c, 0, 71, 0
1, 50240, Note_on_c, 0, 72, 82
1, 50270, Note_on_c, 0, 72, 0
1, 50272, Note_on_c, 0, 74, 83
1, 50302, Note_on_c, 0, 74, 0
1, 50304, Note_on_c, 0, 76, 84
1, 50334, Note_on_c, 0, 76, 0
1, 50336, Note_on_c, 0, 72, 84
1, 50366, Note_on_c, 0, 72, 0
1, 50368, Note_on_c, 0, 69, 84
1, 50377, Note_on_c, 1, 48, 0
1, 50398, Note_on_c, 0, 69, 0
1, 50400, Note_on_c, 0, 67, 83
1, 50400, Note_on_c, 1, 50, 78
1, 50489, Note_on_c, 1, 50, 0
1, 50496, Note_on_c, 1, 45, 78
1, 50585, Note_on_c, 1, 45, 0
1, 50592, Note_on_c, 0, 67, 0
1, 50592, Note_on_c, 0, 66, 80
1, 50592, Note_on_c, 1, 38, 78
1, 50681, Note_on_c, 0, 66, 0
1, 50681, Note_on_c, 1, 38, 0
1, 50688, Note_on_c, 1, 55, 78
1, 50718, Note_on_c, 1, 55, 0
1, 50720, Note_on_c, 1, 54, 78
1, 50750, Note_on_c, 1, 54, 0
1, 50752, Note_on_c, 1, 50, 78
1, 50782, Note_on_c, 1, 50, 0
1, 50784, Note_on_c, 1, 60, 78
1, 50784, Note_on_c, 1, 54, 78
1, 50784, Note_on_c, 1, 45, 78
1, 50880, Note_on_c, 1, 60, 0
1, 50880, Note_on_c, 1, 54, 0
1, 50880, Note_on_c, 1, 45, 0
1, 50880, Note_on_c, 1, 59, 78
1, 50880, Note_on_c, 1, 55, 78
1, 50880, Note_on_c, 1, 43, 78
1, 50969, Note_on_c, 1, 59, 0
1, 50969, Note_on_c, 1, 55, 0
1, 50969, Note_on_c, 1, 43, 0
1, 50976, Note_on_c, 0, 67, 78
1, 51006, Note_on_c, 0, 67, 0
1, 51008, Note_on_c, 0, 66, 78
1, 51038, Note_on_c, 0, 66, 0
1, 51040, Note_on_c, 0, 62, 78
1, 51070, Note_on_c, 0, 62, 0
1, 51072, Note_on_c, 0, 72, 78
1, 51072, Note_on_c, 0, 66, 78
1, 51072, Note_on_c, 0, 57, 78
1, 51168, Note_on_c, 0, 72, 0
1, 51168, Note_on_c, 0, 66, 0
1, 51168, Note_on_c, 0, 57, 0
1, 51168, Note_on_c, 0, 71, 78
1, 51168, Note_on_c, 0, 67, 78
1, 51168, Note_on_c, 0, 55, 78
1, 51257, Note_on_c, 0, 71, 0
1, 51257, Note_on_c, 0, 67, 0
1, 51257, Note_on_c, 0, 55, 0
1, 51264, Note_on_c, 0, 79, 78
1, 51294, Note_on_c, 0, 79, 0
1, 51296, Note_on_c, 0, 78, 78
1, 51326, Note_on_c, 0, 78, 0
1, 51328, Note_on_c, 0, 74, 78
1, 51358, Note_on_c, 0, 74, 0
1, 51360, Note_on_c, 0, 84, 78
1, 51360, Note_on_c, 0, 78, 78
1, 51360, Note_on_c, 0, 69, 78
1, 51456, Note_on_c, 0, 84, 0
1, 51456, Note_on_c, 0, 78, 0
1, 51456, Note_on_c, 0, 69, 0
1, 51456, Note_on_c, 0, 83, 78
1, 51456, Note_on_c, 0, 79, 78
1, 51456, Note_on_c, 0, 67, 78
1, 51545, Note_on_c, 0, 83, 0
1, 51545, Note_on_c, 0, 79, 0
1, 51545, Note_on_c, 0, 67, 0
1, 51552, Note_on_c, 0, 67, 78
1, 51582, Note_on_c, 0, 67, 0
1, 51584, Note_on_c, 0, 66, 78
1, 51614, Note_on_c, 0, 66, 0
1, 51616, Note_on_c, 0, 62, 78
1, 51646, Note_on_c, 0, 62, 0
1, 51648, Note_on_c, 0, 76, 78
1, 51648, Note_on_c, 0, 72, 78
1, 51648, Note_on_c, 1, 54, 78
1, 51756, Note_on_c, 0, 76, 0
1, 51756, Note_on_c, 0, 72, 0
1, 51756, Note_on_c, 0, 74, 78
1, 51756, Note_on_c, 0, 71, 78
1, 51756, Note_on_c, 1, 54, 0
1, 51756, Note_on_c, 1, 55, 78
1, 52017, Note_on_c, 0, 74, 0
1, 52017, Note_on_c, 0, 71, 0
1, 52017, Note_on_c, 1, 55, 0
1, 52128, Note_on_c, 0, 68, 78
1, 52128, Note_on_c, 1, 48, 78
1, 52158, Note_on_c, 0, 68, 0
1, 52160, Note_on_c, 0, 69, 79
1, 52190, Note_on_c, 0, 69, 0
1, 52192, Note_on_c, 0, 72, 80
1, 52217, Note_on_c, 1, 48, 0
1, 52222, Note_on_c, 0, 72, 0
1, 52224, Note_on_c, 0, 76, 81
1, 52254, Note_on_c, 0, 76, 0
1, 52256, Note_on_c, 0, 72, 82
1, 52286, Note_on_c, 0, 72, 0
1, 52288, Note_on_c, 0, 69, 83
1, 52318, Note_on_c, 0, 69, 0
1, 52320, Note_on_c, 0, 72, 84
1, 52320, Note_on_c, 1, 50, 78
1, 52350, Note_on_c, 0, 72, 0
1, 52352, Note_on_c, 0, 69, 84
1, 52382, Note_on_c, 0, 69, 0
1, 52384, Note_on_c, 0, 66, 84
1, 52409, Note_on_c, 1, 50, 0
1, 52414, Note_on_c, 0, 66, 0
1, 52416, Note_on_c, 0, 66, 83
1, 52416, Note_on_c, 0, 60, 83
1, 52416, Note_on_c, 1, 52, 78
1, 52608, Note_on_c, 0, 66, 0
1, 52608, Note_on_c, 0, 60, 0
1, 52608, Note_on_c, 0, 67, 80
1, 52608, Note_on_c, 0, 59, 80
1, 52681, Note_on_c, 1, 52, 0
1, 52697, Note_on_c, 0, 67, 0
1, 52697, Note_on_c, 0, 59, 0
1, 52704, Note_on_c, 0, 79, 78
1, 52734, Note_on_c, 0, 79, 0
1, 52736, Note_on_c, 0, 78, 78
1, 52766, Note_on_c, 0, 78, 0
1, 52768, Note_on_c, 0, 81, 78
1, 52798, Note_on_c, 0, 81, 0
1, 52800, Note_on_c, 0, 86, 94
1, 52800, Note_on_c, 1, 72, 78
1, 52800, Note_on_c, 1, 66, 78
1, 52896, Note_on_c, 1, 72, 0
1, 52896, Note_on_c, 1, 66, 0
1, 52896, Note_on_c, 1, 71, 78
1, 52896, Note_on_c, 1, 67, 78
1, 52926, Note_on_c, 0, 86, 0
1, 52928, Note_on_c, 0, 83, 78
1, 52958, Note_on_c, 0, 83, 0
1, 52960, Note_on_c, 0, 79, 78
1, 52985, Note_on_c, 1, 71, 0
1, 52985, Note_on_c, 1, 67, 0
1, 52990, Note_on_c, 0, 79, 0
1, 52992, Note_on_c, 0, 78, 78
1, 53022, Note_on_c, 0, 78, 0
1, 53024, Note_on_c, 0, 74, 78
1, 53054, Note_on_c, 0, 74, 0
1, 53056, Note_on_c, 0, 81, 78
1, 53086, Note_on_c, 0, 81, 0
1, 53088, Note_on_c, 0, 86, 94
1, 53088, Note_on_c, 1, 72, 78
1, 53088, Note_on_c, 1, 66, 78
1, 53184, Note_on_c, 1, 72, 0
1, 53184, Note_on_c, 1, 66, 0
1, 53184, Note_on_c, 1, 71, 78
1, 53184, Note_on_c, 1, 67, 78
1, 53214, Note_on_c, 0, 86, 0
1, 53216, Note_on_c, 0, 83, 78
1, 53246, Note_on_c, 0, 83, 0
1, 53248, Note_on_c, 0, 79, 78
1, 53273, Note_on_c, 1, 71, 0
1, 53273, Note_on_c, 1, 67, 0
1, 53278, Note_on_c, 0, 79, 0
1, 53280, Note_on_c, 0, 79, 78
1, 53310, Note_on_c, 0, 79, 0
1, 53312, Note_on_c, 0, 78, 78
1, 53342, Note_on_c, 0, 78, 0
1, 53344, Note_on_c, 0, 81, 78
1, 53374, Note_on_c, 0, 81, 0
1, 53376, Note_on_c, 0, 86, 94
1, 53376, Note_on_c, 1, 66, 78
1, 53376, Note_on_c, 1, 60, 78
1, 53472, Note_on_c, 1, 66, 0
1, 53472, Note_on_c, 1, 60, 0
1, 53472, Note_on_c, 1, 67, 78
1, 53472, Note_on_c, 1, 59, 78
1, 53502, Note_on_c, 0, 86, 0
1, 53504, Note_on_c, 0, 83, 78
1, 53534, Note_on_c, 0, 83, 0
1, 53536, Note_on_c, 0, 79, 78
1, 53561, Note_on_c, 1, 67, 0
1, 53561, Note_on_c, 1, 59, 0
1, 53566, Note_on_c, 0, 79, 0
1, 53568, Note_on_c, 0, 78, 78
1, 53598, Note_on_c, 0, 78, 0
1, 53600, Note_on_c, 0, 74, 78
1, 53630, Note_on_c, 0, 74, 0
1, 53632, Note_on_c, 0, 81, 78
1, 53662, Note_on_c, 0, 81, 0
1, 53664, Note_on_c, 0, 86, 94
1, 53664, Note_on_c, 1, 66, 78
1, 53664, Note_on_c, 1, 60, 78
1, 53760, Note_on_c, 1, 66, 0
1, 53760, Note_on_c, 1, 60, 0
1, 53760, Note_on_c, 1, 67, 78
1, 53760, Note_on_c, 1, 59, 78
1, 53790, Note_on_c, 0, 86, 0
1, 53792, Note_on_c, 0, 83, 78
1, 53822, Note_on_c, 0, 83, 0
1, 53824, Note_on_c, 0, 79, 78
1, 53854, Note_on_c, 0, 79, 0
1, 53856, Note_on_c, 0, 76, 78
1, 53856, Note_on_c, 1, 59, 0
1, 53856, Note_on_c, 1, 60, 64
1, 53886, Note_on_c, 0, 76, 0
1, 53888, Note_on_c, 0, 78, 78
1, 53918, Note_on_c, 0, 78, 0
1, 53920, Note_on_c, 0, 79, 78
1, 53945, Note_on_c, 1, 60, 0
1, 53950, Note_on_c, 0, 79, 0
1, 53952, Note_on_c, 0, 74, 78
1, 53952, Note_on_c, 1, 59, 64
1, 53982, Note_on_c, 0, 74, 0
1, 53984, Note_on_c, 0, 78, 78
1, 54014, Note_on_c, 0, 78, 0
1, 54016, Note_on_c, 0, 79, 78
1, 54033, Note_on_c, 1, 67, 0
1, 54041, Note_on_c, 1, 59, 0
1, 54046, Note_on_c, 0, 79, 0
1, 54048, Note_on_c, 0, 72, 78
1, 54048, Note_on_c, 1, 66, 78
1, 54048, Note_on_c, 1, 57, 64
1, 54078, Note_on_c, 0, 72, 0
1, 54080, Note_on_c, 0, 80, 78
1, 54110, Note_on_c, 0, 80, 0
1, 54112, Note_on_c, 0, 81, 78
1, 54137, Note_on_c, 1, 66, 0
1, 54137, Note_on_c, 1, 57, 0
1, 54142, Note_on_c, 0, 81, 0
1, 54144, Note_on_c, 0, 71, 78
1, 54144, Note_on_c, 1, 67, 78
1, 54144, Note_on_c, 1, 55, 64
1, 54174, Note_on_c, 0, 71, 0
1, 54176, Note_on_c, 0, 83, 78
1, 54206, Note_on_c, 0, 83, 0
1, 54208, Note_on_c, 0, 81, 78
1, 54233, Note_on_c, 1, 67, 0
1, 54233, Note_on_c, 1, 55, 0
1, 54238, Note_on_c, 0, 81, 0
1, 54240, Note_on_c, 0, 79, 78
1, 54270, Note_on_c, 0, 79, 0
1, 54272, Note_on_c, 0, 78, 78
1, 54302, Note_on_c, 0, 78, 0
1, 54304, Note_on_c, 0, 76, 78
1, 54334, Note_on_c, 0, 76, 0
1, 54336, Note_on_c, 0, 74, 78
1, 54366, Note_on_c, 0, 74, 0
1, 54368, Note_on_c, 0, 72, 78
1, 54398, Note_on_c, 0, 72, 0
1, 54400, Note_on_c, 0, 71, 78
1, 54430, Note_on_c, 0, 71, 0
1, 54432, Note_on_c, 0, 69, 78
1, 54432, Note_on_c, 1, 60, 78
1, 54432, Note_on_c, 1, 48, 78
1, 54462, Note_on_c, 0, 69, 0
1, 54464, Note_on_c, 0, 72, 78
1, 54494, Note_on_c, 0, 72, 0
1, 54496, Note_on_c, 0, 76, 78
1, 54521, Note_on_c, 1, 60, 0
1, 54521, Note_on_c, 1, 48, 0
1, 54526, Note_on_c, 0, 76, 0
1, 54528, Note_on_c, 0, 67, 78
1, 54528, Note_on_c, 1, 59, 78
1, 54528, Note_on_c, 1, 50, 78
1, 54617, Note_on_c, 0, 67, 0
1, 54617, Note_on_c, 1, 59, 0
1, 54617, Note_on_c, 1, 50, 0
1, 54624, Note_on_c, 0, 66, 78
1, 54624, Note_on_c, 0, 60, 64
1, 54624, Note_on_c, 1, 57, 78
1, 54624, Note_on_c, 1, 50, 78
1, 54636, Note_on_c, 0, 66, 0
1, 54636, Note_on_c, 0, 67, 78
1, 54648, Note_on_c, 0, 67, 0
1, 54648, Note_on_c, 0, 66, 78
1, 54713, Note_on_c, 0, 66, 0
1, 54713, Note_on_c, 0, 60, 0
1, 54713, Note_on_c, 1, 57, 0
1, 54713, Note_on_c, 1, 50, 0
1, 54720, Note_on_c, 0, 66, 78
1, 54720, Note_on_c, 0, 60, 78
1, 54720, Note_on_c, 1, 55, 78
1, 54809, Note_on_c, 1, 55, 0
1, 54816, Note_on_c, 1, 50, 78
1, 54905, Note_on_c, 1, 50, 0
1, 54912, Note_on_c, 0, 66, 0
1, 54912, Note_on_c, 0, 60, 0
1, 54912, Note_on_c, 0, 67, 78
1, 54912, Note_on_c, 0, 59, 78
1, 54912, Note_on_c, 1, 43, 78
1, 55001, Note_on_c, 0, 67, 0
1, 55001, Note_on_c, 0, 59, 0
1, 55001, Note_on_c, 1, 43, 0
1, 55008, Note_on_c, 0, 76, 78
1, 55008, Note_on_c, 1, 62, 64
1, 55026, Note_on_c, 0, 76, 0
1, 55026, Note_on_c, 0, 74, 78
1, 55038, Note_on_c, 1, 62, 0
1, 55040, Note_on_c, 1, 66, 64
1, 55044, Note_on_c, 0, 74, 0
1, 55044, Note_on_c, 0, 72, 78
1, 55062, Note_on_c, 0, 72, 0
1, 55062, Note_on_c, 0, 74, 78
1, 55070, Note_on_c, 1, 66, 0
1, 55072, Note_on_c, 1, 69, 64
1, 55097, Note_on_c, 0, 74, 0
1, 55102, Note_on_c, 1, 69, 0
1, 55104, Note_on_c, 0, 86, 78
1, 55104, Note_on_c, 1, 62, 64
1, 55134, Note_on_c, 0, 86, 0
1, 55134, Note_on_c, 1, 62, 0
1, 55136, Note_on_c, 0, 81, 78
1, 55136, Note_on_c, 1, 66, 64
1, 55166, Note_on_c, 0, 81, 0
1, 55166, Note_on_c, 1, 66, 0
1, 55168, Note_on_c, 0, 78, 78
1, 55168, Note_on_c, 1, 69, 64
1, 55198, Note_on_c, 0, 78, 0
1, 55198, Note_on_c, 1, 69, 0
1, 55200, Note_on_c, 0, 81, 78
1, 55200, Note_on_c, 1, 62, 64
1, 55230, Note_on_c, 0, 81, 0
1, 55230, Note_on_c, 1, 62, 0
1, 55232, Note_on_c, 0, 78, 78
1, 55232, Note_on_c, 1, 66, 64
1, 55262, Note_on_c, 0, 78, 0
1, 55262, Note_on_c, 1, 66, 0
1, 55264, Note_on_c, 0, 74, 78
1, 55264, Note_on_c, 1, 69, 64
1, 55294, Note_on_c, 0, 74, 0
1, 55294, Note_on_c, 1, 69, 0
1, 55296, Note_on_c, 0, 74, 78
1, 55296, Note_on_c, 1, 64, 64
1, 55326, Note_on_c, 1, 64, 0
1, 55328, Note_on_c, 1, 67, 64
1, 55358, Note_on_c, 1, 67, 0
1, 55360, Note_on_c, 1, 69, 64
1, 55390, Note_on_c, 1, 69, 0
1, 55392, Note_on_c, 1, 64, 64
1, 55422, Note_on_c, 1, 64, 0
1, 55424, Note_on_c, 1, 67, 64
1, 55454, Note_on_c, 1, 67, 0
1, 55456, Note_on_c, 1, 69, 64
1, 55486, Note_on_c, 1, 69, 0
1, 55488, Note_on_c, 0, 74, 0
1, 55488, Note_on_c, 0, 73, 78
1, 55488, Note_on_c, 1, 64, 64
1, 55500, Note_on_c, 0, 73, 0
1, 55500, Note_on_c, 0, 74, 78
1, 55512, Note_on_c, 0, 74, 0
1, 55512, Note_on_c, 0, 73, 78
1, 55518, Note_on_c, 1, 64, 0
1, 55520, Note_on_c, 1, 67, 64
1, 55550, Note_on_c, 1, 67, 0
1, 55552, Note_on_c, 1, 69, 64
1, 55577, Note_on_c, 0, 73, 0
1, 55582, Note_on_c, 1, 69, 0
1, 55584, Note_on_c, 1, 66, 78
1, 55614, Note_on_c, 1, 66, 0
1, 55616, Note_on_c, 1, 69, 78
1, 55646, Note_on_c, 1, 69, 0
1, 55648, Note_on_c, 1, 72, 78
1, 55678, Note_on_c, 1, 72, 0
1, 55680, Note_on_c, 0, 74, 78
1, 55710, Note_on_c, 0, 74, 0
1, 55712, Note_on_c, 0, 78, 78
1, 55742, Note_on_c, 0, 78, 0
1, 55744, Note_on_c, 0, 81, 78
1, 55774, Note_on_c, 0, 81, 0
1, 55776, Note_on_c, 0, 84, 78
1, 55806, Note_on_c, 0, 84, 0
1, 55808, Note_on_c, 0, 81, 78
1, 55838, Note_on_c, 0, 81, 0
1, 55840, Note_on_c, 0, 78, 78
1, 55870, Note_on_c, 0, 78, 0
1, 55872, Note_on_c, 0, 72, 78
1, 55872, Note_on_c, 1, 55, 64
1, 55902, Note_on_c, 1, 55, 0
1, 55904, Note_on_c, 1, 62, 64
1, 55934, Note_on_c, 1, 62, 0
1, 55936, Note_on_c, 1, 67, 64
1, 55966, Note_on_c, 1, 67, 0
1, 55968, Note_on_c, 0, 72, 0
1, 55968, Note_on_c, 0, 71, 78
1, 55968, Note_on_c, 1, 55, 64
1, 55980, Note_on_c, 0, 71, 0
1, 55980, Note_on_c, 0, 72, 78
1, 55992, Note_on_c, 0, 72, 0
1, 55992, Note_on_c, 0, 71, 78
1, 55998, Note_on_c, 1, 55, 0
1, 56000, Note_on_c, 1, 62, 64
1, 56030, Note_on_c, 1, 62, 0
1, 56032, Note_on_c, 1, 67, 64
1, 56057, Note_on_c, 0, 71, 0
1, 56062, Note_on_c, 1, 67, 0
1, 56064, Note_on_c, 0, 79, 78
1, 56064, Note_on_c, 1, 59, 64
1, 56094, Note_on_c, 1, 59, 0
1, 56096, Note_on_c, 1, 62, 64
1, 56126, Note_on_c, 1, 62, 0
1, 56128, Note_on_c, 1, 67, 64
1, 56153, Note_on_c, 0, 79, 0
1, 56158, Note_on_c, 1, 67, 0
1, 56160, Note_on_c, 0, 75, 78
1, 56160, Note_on_c, 1, 60, 64
1, 56190, Note_on_c, 1, 60, 0
1, 56192, Note_on_c, 1, 64, 64
1, 56208, Note_on_c, 0, 75, 0
1, 56208, Note_on_c, 0, 76, 78
1, 56222, Note_on_c, 1, 64, 0
1, 56224, Note_on_c, 1, 67, 64
1, 56253, Note_on_c, 0, 76, 0
1, 56254, Note_on_c, 1, 67, 0
1, 56256, Note_on_c, 0, 76, 78
1, 56256, Note_on_c, 1, 60, 64
1, 56286, Note_on_c, 1, 60, 0
1, 56288, Note_on_c, 1, 64, 64
1, 56318, Note_on_c, 1, 64, 0
1, 56320, Note_on_c, 1, 67, 64
1, 56345, Note_on_c, 0, 76, 0
1, 56350, Note_on_c, 1, 67, 0
1, 56352, Note_on_c, 0, 79, 78
1, 56352, Note_on_c, 1, 60, 64
1, 56382, Note_on_c, 1, 60, 0
1, 56384, Note_on_c, 1, 64, 64
1, 56414, Note_on_c, 1, 64, 0
1, 56416, Note_on_c, 1, 67, 64
1, 56441, Note_on_c, 0, 79, 0
1, 56446, Note_on_c, 1, 67, 0
1, 56448, Note_on_c, 0, 73, 78
1, 56448, Note_on_c, 1, 59, 64
1, 56478, Note_on_c, 1, 59, 0
1, 56480, Note_on_c, 1, 62, 64
1, 56496, Note_on_c, 0, 73, 0
1, 56496, Note_on_c, 0, 74, 78
1, 56510, Note_on_c, 1, 62, 0
1, 56512, Note_on_c, 1, 67, 64
1, 56541, Note_on_c, 0, 74, 0
1, 56542, Note_on_c, 1, 67, 0
1, 56544, Note_on_c, 0, 74, 78
1, 56544, Note_on_c, 1, 59, 64
1, 56574, Note_on_c, 1, 59, 0
1, 56576, Note_on_c, 1, 62, 64
1, 56606, Note_on_c, 1, 62, 0
1, 56608, Note_on_c, 1, 67, 64
1, 56633, Note_on_c, 0, 74, 0
1, 56638, Note_on_c, 1, 67, 0
1, 56640, Note_on_c, 0, 86, 78
1, 56640, Note_on_c, 1, 59, 64
1, 56670, Note_on_c, 0, 86, 0
1, 56670, Note_on_c, 1, 59, 0
1, 56672, Note_on_c, 0, 83, 78
1, 56672, Note_on_c, 1, 62, 64
1, 56702, Note_on_c, 0, 83, 0
1, 56702, Note_on_c, 1, 62, 0
1, 56704, Note_on_c, 0, 79, 78
1, 56704, Note_on_c, 1, 67, 64
1, 56734, Note_on_c, 0, 79, 0
1, 56734, Note_on_c, 1, 67, 0
1, 56736, Note_on_c, 0, 78, 78
1, 56736, Note_on_c, 1, 60, 64
1, 56766, Note_on_c, 1, 60, 0
1, 56768, Note_on_c, 1, 64, 64
1, 56798, Note_on_c, 1, 64, 0
1, 56800, Note_on_c, 1, 67, 64
1, 56825, Note_on_c, 0, 78, 0
1, 56830, Note_on_c, 1, 67, 0
1, 56832, Note_on_c, 0, 76, 78
1, 56832, Note_on_c, 1, 60, 64
1, 56844, Note_on_c, 0, 76, 0
1, 56844, Note_on_c, 0, 78, 78
1, 56856, Note_on_c, 0, 78, 0
1, 56856, Note_on_c, 0, 76, 78
1, 56862, Note_on_c, 1, 60, 0
1, 56864, Note_on_c, 1, 64, 64
1, 56894, Note_on_c, 1, 64, 0
1, 56896, Note_on_c, 1, 67, 64
1, 56921, Note_on_c, 0, 76, 0
1, 56926, Note_on_c, 1, 67, 0
1, 56928, Note_on_c, 0, 79, 78
1, 56928, Note_on_c, 1, 60, 64
1, 56958, Note_on_c, 0, 79, 0
1, 56958, Note_on_c, 1, 60, 0
1, 56960, Note_on_c, 0, 78, 78
1, 56960, Note_on_c, 1, 64, 64
1, 56990, Note_on_c, 0, 78, 0
1, 56990, Note_on_c, 1, 64, 0
1, 56992, Note_on_c, 0, 76, 78
1, 56992, Note_on_c, 1, 67, 64
1, 57022, Note_on_c, 0, 76, 0
1, 57022, Note_on_c, 1, 67, 0
1, 57024, Note_on_c, 0, 76, 78
1, 57024, Note_on_c, 1, 59, 64
1, 57054, Note_on_c, 1, 59, 0
1, 57056, Note_on_c, 1, 62, 64
1, 57086, Note_on_c, 1, 62, 0
1, 57088, Note_on_c, 1, 67, 64
1, 57113, Note_on_c, 0, 76, 0
1, 57118, Note_on_c, 1, 67, 0
1, 57120, Note_on_c, 0, 74, 78
1, 57120, Note_on_c, 1, 59, 64
1, 57132, Note_on_c, 0, 74, 0
1, 57132, Note_on_c, 0, 76, 78
1, 57144, Note_on_c, 0, 76, 0
1, 57144, Note_on_c, 0, 74, 78
1, 57150, Note_on_c, 1, 59, 0
1, 57152, Note_on_c, 1, 62, 64
1, 57182, Note_on_c, 1, 62, 0
1, 57184, Note_on_c, 1, 67, 64
1, 57209, Note_on_c, 0, 74, 0
1, 57214, Note_on_c, 1, 67, 0
1, 57216, Note_on_c, 0, 78, 78
1, 57216, Note_on_c, 1, 59, 64
1, 57246, Note_on_c, 0, 78, 0
1, 57246, Note_on_c, 1, 59, 0
1, 57248, Note_on_c, 0, 79, 78
1, 57248, Note_on_c, 1, 62, 64
1, 57278, Note_on_c, 0, 79, 0
1, 57278, Note_on_c, 1, 62, 0
1, 57280, Note_on_c, 0, 83, 78
1, 57280, Note_on_c, 1, 67, 64
1, 57310, Note_on_c, 0, 83, 0
1, 57310, Note_on_c, 1, 67, 0
1, 57312, Note_on_c, 0, 75, 78
1, 57312, Note_on_c, 1, 60, 64
1, 57342, Note_on_c, 0, 75, 0
1, 57344, Note_on_c, 0, 76, 78
1, 57374, Note_on_c, 0, 76, 0
1, 57376, Note_on_c, 0, 79, 78
1, 57401, Note_on_c, 1, 60, 0
1, 57406, Note_on_c, 0, 79, 0
1, 57408, Note_on_c, 0, 71, 78
1, 57438, Note_on_c, 0, 71, 0
1, 57440, Note_on_c, 0, 72, 78
1, 57470, Note_on_c, 0, 72, 0
1, 57472, Note_on_c, 0, 76, 78
1, 57502, Note_on_c, 0, 76, 0
1, 57504, Note_on_c, 0, 68, 78
1, 57534, Note_on_c, 0, 68, 0
1, 57536, Note_on_c, 0, 69, 78
1, 57566, Note_on_c, 0, 69, 0
1, 57568, Note_on_c, 0, 72, 78
1, 57598, Note_on_c, 0, 72, 0
1, 57600, Note_on_c, 0, 67, 78
1, 57600, Note_on_c, 1, 50, 64
1, 57689, Note_on_c, 1, 50, 0
1, 57696, Note_on_c, 1, 62, 64
1, 57726, Note_on_c, 1, 62, 0
1, 57728, Note_on_c, 1, 64, 66
1, 57758, Note_on_c, 1, 64, 0
1, 57760, Note_on_c, 1, 62, 69
1, 57790, Note_on_c, 1, 62, 0
1, 57792, Note_on_c, 0, 67, 0
1, 57792, Note_on_c, 0, 66, 78
1, 57792, Note_on_c, 1, 60, 72
1, 57804, Note_on_c, 0, 66, 0
1, 57804, Note_on_c, 0, 67, 78
1, 57816, Note_on_c, 0, 67, 0
1, 57816, Note_on_c, 0, 66, 78
1, 57822, Note_on_c, 1, 60, 0
1, 57824, Note_on_c, 1, 59, 74
1, 57854, Note_on_c, 1, 59, 0
1, 57856, Note_on_c, 1, 57, 78
1, 57881, Note_on_c, 0, 66, 0
1, 57886, Note_on_c, 1, 57, 0
1, 57888, Note_on_c, 0, 76, 78
1, 57888, Note_on_c, 1, 59, 78
1, 57888, Note_on_c, 1, 55, 78
1, 57906, Note_on_c, 0, 76, 0
1, 57906, Note_on_c, 0, 74, 78
1, 57924, Note_on_c, 0, 74, 0
1, 57924, Note_on_c, 0, 72, 78
1, 57942, Note_on_c, 0, 72, 0
1, 57942, Note_on_c, 0, 74, 78
1, 57977, Note_on_c, 0, 74, 0
1, 57977, Note_on_c, 1, 59, 0
1, 57977, Note_on_c, 1, 55, 0
1, 57984, Note_on_c, 0, 79, 78
1, 58014, Note_on_c, 0, 79, 0
1, 58016, Note_on_c, 0, 74, 78
1, 58046, Note_on_c, 0, 74, 0
1, 58048, Note_on_c, 0, 71, 78
1, 58078, Note_on_c, 0, 71, 0
1, 58080, Note_on_c, 0, 74, 78
1, 58080, Note_on_c, 1, 62, 78
1, 58080, Note_on_c, 1, 59, 78
1, 58110, Note_on_c, 0, 74, 0
1, 58112, Note_on_c, 0, 71, 78
1, 58142, Note_on_c, 0, 71, 0
1, 58144, Note_on_c, 0, 67, 78
1, 58169, Note_on_c, 1, 62, 0
1, 58169, Note_on_c, 1, 59, 0
1, 58174, Note_on_c, 0, 67, 0
1, 58176, Note_on_c, 0, 67, 78
1, 58176, Note_on_c, 1, 60, 78
1, 58176, Note_on_c, 1, 57, 78
1, 58206, Note_on_c, 0, 67, 0
1, 58208, Note_on_c, 0, 66, 78
1, 58238, Note_on_c, 0, 66, 0
1, 58240, Note_on_c, 0, 62, 78
1, 58265, Note_on_c, 1, 60, 0
1, 58265, Note_on_c, 1, 57, 0
1, 58270, Note_on_c, 0, 62, 0
1, 58272, Note_on_c, 0, 72, 78
1, 58272, Note_on_c, 0, 69, 78
1, 58272, Note_on_c, 1, 54, 78
1, 58368, Note_on_c, 0, 72, 0
1, 58368, Note_on_c, 0, 69, 0
1, 58368, Note_on_c, 0, 71, 78
1, 58368, Note_on_c, 0, 67, 78
1, 58368, Note_on_c, 1, 54, 0
1, 58368, Note_on_c, 1, 55, 78
1, 58457, Note_on_c, 0, 71, 0
1, 58457, Note_on_c, 0, 67, 0
1, 58457, Note_on_c, 1, 55, 0
1, 58464, Note_on_c, 0, 64, 78
1, 58464, Note_on_c, 1, 48, 78
1, 58494, Note_on_c, 0, 64, 0
1, 58496, Note_on_c, 0, 68, 79
1, 58526, Note_on_c, 0, 68, 0
1, 58528, Note_on_c, 0, 69, 80
1, 58558, Note_on_c, 0, 69, 0
1, 58560, Note_on_c, 0, 71, 81
1, 58590, Note_on_c, 0, 71, 0
1, 58592, Note_on_c, 0, 72, 82
1, 58622, Note_on_c, 0, 72, 0
1, 58624, Note_on_c, 0, 74, 83
1, 58654, Note_on_c, 0, 74, 0
1, 58656, Note_on_c, 0, 76, 84
1, 58686, Note_on_c, 0, 76, 0
1, 58688, Note_on_c, 0, 72, 84
1, 58718, Note_on_c, 0, 72, 0
1, 58720, Note_on_c, 0, 69, 84
1, 58729, Note_on_c, 1, 48, 0
1, 58750, Note_on_c, 0, 69, 0
1, 58752, Note_on_c, 0, 67, 83
1, 58752, Note_on_c, 1, 50, 78
1, 58841, Note_on_c, 1, 50, 0
1, 58848, Note_on_c, 1, 45, 78
1, 58937, Note_on_c, 1, 45, 0
1, 58944, Note_on_c, 0, 67, 0
1, 58944, Note_on_c, 0, 66, 80
1, 58944, Note_on_c, 1, 38, 78
1, 59033, Note_on_c, 0, 66, 0
1, 59033, Note_on_c, 1, 38, 0
1, 59040, Note_on_c, 1, 55, 78
1, 59070, Note_on_c, 1, 55, 0
1, 59072, Note_on_c, 1, 54, 78
1, 59102, Note_on_c, 1, 54, 0
1, 59104, Note_on_c, 1, 50, 78
1, 59134, Note_on_c, 1, 50, 0
1, 59136, Note_on_c, 1, 60, 78
1, 59136, Note_on_c, 1, 54, 78
1, 59136, Note_on_c, 1, 45, 78
1, 59232, Note_on_c, 1, 60, 0
1, 59232, Note_on_c, 1, 54, 0
1, 59232, Note_on_c, 1, 45, 0
1, 59232, Note_on_c, 1, 59, 78
1, 59232, Note_on_c, 1, 55, 78
1, 59232, Note_on_c, 1, 43, 78
1, 59321, Note_on_c, 1, 59, 0
1, 59321, Note_on_c, 1, 55, 0
1, 59321, Note_on_c, 1, 43, 0
1, 59328, Note_on_c, 0, 67, 78
1, 59358, Note_on_c, 0, 67, 0
1, 59360, Note_on_c, 0, 66, 78
1, 59390, Note_on_c, 0, 66, 0
1, 59392, Note_on_c, 0, 62, 78
1, 59422, Note_on_c, 0, 62, 0
1, 59424, Note_on_c, 0, 72, 78
1, 59424, Note_on_c, 0, 66, 78
1, 59424, Note_on_c, 0, 57, 78
1, 59520, Note_on_c, 0, 72, 0
1, 59520, Note_on_c, 0, 66, 0
1, 59520, Note_on_c, 0, 57, 0
1, 59520, Note_on_c, 0, 71, 78
1, 59520, Note_on_c, 0, 67, 78
1, 59520, Note_on_c, 0, 55, 78
1, 59609, Note_on_c, 0, 71, 0
1, 59609, Note_on_c, 0, 67, 0
1, 59609, Note_on_c, 0, 55, 0
1, 59616, Note_on_c, 0, 79, 78
1, 59646, Note_on_c, 0, 79, 0
1, 59648, Note_on_c, 0, 78, 78
1, 59678, Note_on_c, 0, 78, 0
1, 59680, Note_on_c, 0, 74, 78
1, 59710, Note_on_c, 0, 74, 0
1, 59712, Note_on_c, 0, 84, 78
1, 59712, Note_on_c, 0, 78, 78
1, 59712, Note_on_c, 0, 69, 78
1, 59808, Note_on_c, 0, 84, 0
1, 59808, Note_on_c, 0, 78, 0
1, 59808, Note_on_c, 0, 69, 0
1, 59808, Note_on_c, 0, 83, 78
1, 59808, Note_on_c, 0, 79, 78
1, 59808, Note_on_c, 0, 67, 78
1, 59897, Note_on_c, 0, 83, 0
1, 59897, Note_on_c, 0, 79, 0
1, 59897, Note_on_c, 0, 67, 0
1, 59904, Note_on_c, 0, 67, 78
1, 59934, Note_on_c, 0, 67, 0
1, 59936, Note_on_c, 0, 66, 78
1, 59966, Note_on_c, 0, 66, 0
1, 59968, Note_on_c, 0, 62, 78
1, 59998, Note_on_c, 0, 62, 0
1, 60000, Note_on_c, 0, 76, 78
1, 60000, Note_on_c, 0, 72, 78
1, 60000, Note_on_c, 1, 54, 78
1, 60108, Note_on_c, 0, 76, 0
1, 60108, Note_on_c, 0, 72, 0
1, 60108, Note_on_c, 0, 74, 78
1, 60108, Note_on_c, 0, 71, 78
1, 60108, Note_on_c, 1, 54, 0
1, 60108, Note_on_c, 1, 55, 78
1, 60369, Note_on_c, 0, 74, 0
1, 60369, Note_on_c, 0, 71, 0
1, 60369, Note_on_c, 1, 55, 0
1, 60480, Note_on_c, 0, 68, 78
1, 60480, Note_on_c, 1, 48, 78
1, 60510, Note_on_c, 0, 68, 0
1, 60512, Note_on_c, 0, 69, 79
1, 60542, Note_on_c, 0, 69, 0
1, 60544, Note_on_c, 0, 72, 80
1, 60569, Note_on_c, 1, 48, 0
1, 60574, Note_on_c, 0, 72, 0
1, 60576, Note_on_c, 0, 76, 81
1, 60606, Note_on_c, 0, 76, 0
1, 60608, Note_on_c, 0, 72, 82
1, 60638, Note_on_c, 0, 72, 0
1, 60640, Note_on_c, 0, 69, 83
1, 60670, Note_on_c, 0, 69, 0
1, 60672, Note_on_c, 0, 72, 84
1, 60672, Note_on_c, 1, 50, 78
1, 60702, Note_on_c, 0, 72, 0
1, 60704, Note_on_c, 0, 69, 84
1, 60734, Note_on_c, 0, 69, 0
1, 60736, Note_on_c, 0, 66, 84
1, 60761, Note_on_c, 1, 50, 0
1, 60766, Note_on_c, 0, 66, 0
1, 60768, Note_on_c, 0, 66, 83
1, 60768, Note_on_c, 0, 60, 83
1, 60768, Note_on_c, 1, 52, 78
1, 60960, Note_on_c, 0, 66, 0
1, 60960, Note_on_c, 0, 60, 0
1, 60960, Note_on_c, 0, 67, 80
1, 60960, Note_on_c, 0, 59, 80
1, 61033, Note_on_c, 1, 52, 0
1, 61049, Note_on_c, 0, 67, 0
1, 61049, Note_on_c, 0, 59, 0
1, 61056, Note_on_c, 0, 79, 78
1, 61086, Note_on_c, 0, 79, 0
1, 61088, Note_on_c, 0, 78, 78
1, 61118, Note_on_c, 0, 78, 0
1, 61120, Note_on_c, 0, 81, 78
1, 61150, Note_on_c, 0, 81, 0
1, 61152, Note_on_c, 0, 86, 94
1, 61152, Note_on_c, 1, 72, 78
1, 61152, Note_on_c, 1, 66, 78
1, 61248, Note_on_c, 1, 72, 0
1, 61248, Note_on_c, 1, 66, 0
1, 61248, Note_on_c, 1, 71, 78
1, 61248, Note_on_c, 1, 67, 78
1, 61278, Note_on_c, 0, 86, 0
1, 61280, Note_on_c, 0, 83, 78
1, 61310, Note_on_c, 0, 83, 0
1, 61312, Note_on_c, 0, 79, 78
1, 61337, Note_on_c, 1, 71, 0
1, 61337, Note_on_c, 1, 67, 0
1, 61342, Note_on_c, 0, 79, 0
1, 61344, Note_on_c, 0, 78, 78
1, 61374, Note_on_c, 0, 78, 0
1, 61376, Note_on_c, 0, 74, 78
1, 61406, Note_on_c, 0, 74, 0
1, 61408, Note_on_c, 0, 81, 78
1, 61438, Note_on_c, 0, 81, 0
1, 61440, Note_on_c, 0, 86, 94
1, 61440, Note_on_c, 1, 72, 78
1, 61440, Note_on_c, 1, 66, 78
1, 61536, Note_on_c, 1, 72, 0
1, 61536, Note_on_c, 1, 66, 0
1, 61536, Note_on_c, 1, 71, 78
1, 61536, Note_on_c, 1, 67, 78
1, 61566, Note_on_c, 0, 86, 0
1, 61568, Note_on_c, 0, 83, 78
1, 61598, Note_on_c, 0, 83, 0
1, 61600, Note_on_c, 0, 79, 78
1, 61625, Note_on_c, 1, 71, 0
1, 61625, Note_on_c, 1, 67, 0
1, 61630, Note_on_c, 0, 79, 0
1, 61632, Note_on_c, 0, 79, 78
1, 61662, Note_on_c, 0, 79, 0
1, 61664, Note_on_c, 0, 78, 78
1, 61694, Note_on_c, 0, 78, 0
1, 61696, Note_on_c, 0, 81, 78
1, 61726, Note_on_c, 0, 81, 0
1, 61728, Note_on_c, 0, 86, 94
1, 61728, Note_on_c, 1, 66, 78
1, 61728, Note_on_c, 1, 60, 78
1, 61824, Note_on_c, 1, 66, 0
1, 61824, Note_on_c, 1, 60, 0
1, 61824, Note_on_c, 1, 67, 78
1, 61824, Note_on_c, 1, 59, 78
1, 61854, Note_on_c, 0, 86, 0
1, 61856, Note_on_c, 0, 83, 78
1, 61886, Note_on_c, 0, 83, 0
1, 61888, Note_on_c, 0, 79, 78
1, 61913, Note_on_c, 1, 67, 0
1, 61913, Note_on_c, 1, 59, 0
1, 61918, Note_on_c, 0, 79, 0
1, 61920, Note_on_c, 0, 78, 78
1, 61950, Note_on_c, 0, 78, 0
1, 61952, Note_on_c, 0, 74, 78
1, 61982, Note_on_c, 0, 74, 0
1, 61984, Note_on_c, 0, 81, 78
1, 62014, Note_on_c, 0, 81, 0
1, 62016, Note_on_c, 0, 86, 94
1, 62016, Note_on_c, 1, 66, 78
1, 62016, Note_on_c, 1, 60, 78
1, 62112, Note_on_c, 1, 66, 0
1, 62112, Note_on_c, 1, 60, 0
1, 62112, Note_on_c, 1, 67, 78
1, 62112, Note_on_c, 1, 59, 78
1, 62142, Note_on_c, 0, 86, 0
1, 62144, Note_on_c, 0, 83, 78
1, 62174, Note_on_c, 0, 83, 0
1, 62176, Note_on_c, 0, 79, 78
1, 62206, Note_on_c, 0, 79, 0
1, 62208, Note_on_c, 0, 76, 78
1, 62208, Note_on_c, 1, 59, 0
1, 62208, Note_on_c, 1, 60, 64
1, 62238, Note_on_c, 0, 76, 0
1, 62240, Note_on_c, 0, 78, 78
1, 62270, Note_on_c, 0, 78, 0
1, 62272, Note_on_c, 0, 79, 78
1, 62297, Note_on_c, 1, 60, 0
1, 62302, Note_on_c, 0, 79, 0
1, 62304, Note_on_c, 0, 74, 78
1, 62304, Note_on_c, 1, 59, 64
1, 62334, Note_on_c, 0, 74, 0
1, 62336, Note_on_c, 0, 78, 78
1, 62366, Note_on_c, 0, 78, 0
1, 62368, Note_on_c, 0, 79, 78
1, 62385, Note_on_c, 1, 67, 0
1, 62393, Note_on_c, 1, 59, 0
1, 62398, Note_on_c, 0, 79, 0
1, 62400, Note_on_c, 0, 72, 78
1, 62400, Note_on_c, 1, 66, 78
1, 62400, Note_on_c, 1, 57, 64
1, 62430, Note_on_c, 0, 72, 0
1, 62432, Note_on_c, 0, 80, 78
1, 62462, Note_on_c, 0, 80, 0
1, 62464, Note_on_c, 0, 81, 78
1, 62489, Note_on_c, 1, 66, 0
1, 62489, Note_on_c, 1, 57, 0
1, 62494, Note_on_c, 0, 81, 0
1, 62496, Note_on_c, 0, 71, 78
1, 62496, Note_on_c, 1, 67, 78
1, 62496, Note_on_c, 1, 55, 64
1, 62526, Note_on_c, 0, 71, 0
1, 62528, Note_on_c, 0, 83, 78
1, 62558, Note_on_c, 0, 83, 0
1, 62560, Note_on_c, 0, 81, 78
1, 62585, Note_on_c, 1, 67, 0
1, 62585, Note_on_c, 1, 55, 0
1, 62590, Note_on_c, 0, 81, 0
1, 62592, Note_on_c, 0, 79, 78
1, 62622, Note_on_c, 0, 79, 0
1, 62624, Note_on_c, 0, 78, 78
1, 62654, Note_on_c, 0, 78, 0
1, 62656, Note_on_c, 0, 76, 78
1, 62686, Note_on_c, 0, 76, 0
1, 62688, Note_on_c, 0, 74, 78
1, 62718, Note_on_c, 0, 74, 0
1, 62720, Note_on_c, 0, 72, 78
1, 62750, Note_on_c, 0, 72, 0
1, 62752, Note_on_c, 0, 71, 78
1, 62782, Note_on_c, 0, 71, 0
1, 62784, Note_on_c, 0, 69, 78
1, 62784, Note_on_c, 1, 60, 78
1, 62784, Note_on_c, 1, 48, 78
1, 62814, Note_on_c, 0, 69, 0
1, 62816, Note_on_c, 0, 72, 78
1, 62846, Note_on_c, 0, 72, 0
1, 62848, Note_on_c, 0, 76, 78
1, 62873, Note_on_c, 1, 60, 0
1, 62873, Note_on_c, 1, 48, 0
1, 62878, Note_on_c, 0, 76, 0
1, 62880, Note_on_c, 0, 67, 78
1, 62880, Note_on_c, 1, 59, 78
1, 62880, Note_on_c, 1, 50, 78
1, 62969, Note_on_c, 0, 67, 0
1, 62969, Note_on_c, 1, 59, 0
1, 62969, Note_on_c, 1, 50, 0
1, 62976, Note_on_c, 0, 66, 78
1, 62976, Note_on_c, 0, 60, 64
1, 62976, Note_on_c, 1, 57, 78
1, 62976, Note_on_c, 1, 50, 78
1, 62988, Note_on_c, 0, 66, 0
1, 62988, Note_on_c, 0, 67, 78
1, 63000, Note_on_c, 0, 67, 0
1, 63000, Note_on_c, 0, 66, 78
1, 63065, Note_on_c, 0, 66, 0
1, 63065, Note_on_c, 0, 60, 0
1, 63065, Note_on_c, 1, 57, 0
1, 63065, Note_on_c, 1, 50, 0
1, 63072, Note_on_c, 0, 66, 78
1, 63072, Note_on_c, 0, 60, 78
1, 63072, Note_on_c, 1, 55, 78
1, 63161, Note_on_c, 1, 55, 0
1, 63168, Note_on_c, 1, 50, 78
1, 63257, Note_on_c, 1, 50, 0
1, 63264, Note_on_c, 0, 66, 0
1, 63264, Note_on_c, 0, 60, 0
1, 63264, Note_on_c, 0, 67, 78
1, 63264, Note_on_c, 0, 59, 78
1, 63264, Note_on_c, 1, 43, 78
1, 63353, Note_on_c, 0, 67, 0
1, 63353, Note_on_c, 0, 59, 0
1, 63353, Note_on_c, 1, 43, 0
1, 63360, Note_on_c, 1, 43, 0
1, 63449, Note_on_c, 1, 43, 0
1, 63459, End_track
0, 0, End_of_file