0, 0, Header, 0, 1, 96
1, 0, Start_track
1, 0, Tempo, 1304347
1, 0, Note_on_c, 0, 62, 75
1, 0, Note_on_c, 1, 58, 64
1, 0, Note_on_c, 1, 55, 64
1, 47, Note_on_c, 1, 58, 0
1, 47, Note_on_c, 1, 55, 0
1, 48, Note_on_c, 1, 58, 64
1, 48, Note_on_c, 1, 55, 64
1, 67, Note_on_c, 0, 62, 0
1, 72, Note_on_c, 0, 63, 75
1, 95, Note_on_c, 0, 63, 0
1, 95, Note_on_c, 1, 58, 0
1, 95, Note_on_c, 1, 55, 0
1, 96, Note_on_c, 0, 62, 75
1, 96, Note_on_c, 1, 58, 64
1, 96, Note_on_c, 1, 55, 64
1, 143, Note_on_c, 1, 58, 0
1, 143, Note_on_c, 1, 55, 0
1, 144, Note_on_c, 1, 58, 64
1, 144, Note_on_c, 1, 55, 64
1, 163, Note_on_c, 0, 62, 0
1, 168, Note_on_c, 0, 63, 75
1, 191, Note_on_c, 0, 63, 0
1, 191, Note_on_c, 1, 58, 0
1, 191, Note_on_c, 1, 55, 0
1, 192, Note_on_c, 0, 62, 75
1, 192, Note_on_c, 1, 58, 64
1, 192, Note_on_c, 1, 55, 64
1, 239, Note_on_c, 1, 58, 0
1, 239, Note_on_c, 1, 55, 0
1, 240, Note_on_c, 1, 58, 64
1, 240, Note_on_c, 1, 55, 64
1, 259, Note_on_c, 0, 62, 0
1, 264, Note_on_c, 0, 74, 75
1, 272, Note_on_c, 0, 74, 0
1, 272, Note_on_c, 0, 70, 75
1, 280, Note_on_c, 0, 70, 0
1, 280, Note_on_c, 0, 67, 75
1, 287, Note_on_c, 1, 58, 0
1, 287, Note_on_c, 1, 55, 0
1, 288, Note_on_c, 0, 67, 0
1, 288, Note_on_c, 0, 67, 75
1, 288, Note_on_c, 1, 60, 64
1, 288, Note_on_c, 1, 57, 64
1, 335, Note_on_c, 1, 60, 0
1, 335, Note_on_c, 1, 57, 0
1, 336, Note_on_c, 1, 60, 64
1, 336, Note_on_c, 1, 57, 64
1, 383, Note_on_c, 1, 60, 0
1, 383, Note_on_c, 1, 57, 0
1, 384, Note_on_c, 0, 67, 0
1, 384, Note_on_c, 0, 66, 75
1, 384, Note_on_c, 1, 60, 64
1, 384, Note_on_c, 1, 57, 64
1, 431, Note_on_c, 1, 60, 0
1, 431, Note_on_c, 1, 57, 0
1, 432, Note_on_c, 1, 60, 64
1, 432, Note_on_c, 1, 57, 64
1, 451, Note_on_c, 0, 66, 0
1, 456, Note_on_c, 0, 75, 75
1, 464, Note_on_c, 0, 75, 0
1, 464, Note_on_c, 0, 72, 75
1, 472, Note_on_c, 0, 72, 0
1, 472, Note_on_c, 0, 69, 75
1, 479, Note_on_c, 1, 60, 0
1, 479, Note_on_c, 1, 57, 0
1, 480, Note_on_c, 0, 69, 0
1, 480, Note_on_c, 0, 67, 75
1, 480, Note_on_c, 1, 60, 64
1, 480, Note_on_c, 1, 57, 64
1, 527, Note_on_c, 1, 60, 0
1, 527, Note_on_c, 1, 57, 0
1, 528, Note_on_c, 0, 67, 0
1, 528, Note_on_c, 0, 66, 75
1, 528, Note_on_c, 1, 60, 64
1, 528, Note_on_c, 1, 57, 64
1, 551, Note_on_c, 0, 66, 0
1, 552, Note_on_c, 0, 72, 75
1, 560, Note_on_c, 0, 72, 0
1, 560, Note_on_c, 0, 69, 75
1, 568, Note_on_c, 0, 69, 0
1, 568, Note_on_c, 0, 66, 75
1, 575, Note_on_c, 1, 60, 0
1, 575, Note_on_c, 1, 57, 0
1, 576, Note_on_c, 0, 66, 0
1, 576, Note_on_c, 0, 63, 75
1, 576, Note_on_c, 1, 57, 64
1, 576, Note_on_c, 1, 54, 64
1, 623, Note_on_c, 1, 57, 0
1, 623, Note_on_c, 1, 54, 0
1, 624, Note_on_c, 0, 63, 0
1, 624, Note_on_c, 0, 62, 75
1, 624, Note_on_c, 1, 57, 64
1, 624, Note_on_c, 1, 54, 64
1, 647, Note_on_c, 0, 62, 0
1, 648, Note_on_c, 0, 72, 75
1, 656, Note_on_c, 0, 72, 0
1, 656, Note_on_c, 0, 69, 75
1, 664, Note_on_c, 0, 69, 0
1, 664, Note_on_c, 0, 66, 75
1, 671, Note_on_c, 1, 57, 0
1, 671, Note_on_c, 1, 54, 0
1, 672, Note_on_c, 0, 66, 0
1, 672, Note_on_c, 0, 63, 75
1, 672, Note_on_c, 1, 57, 64
1, 672, Note_on_c, 1, 54, 64
1, 719, Note_on_c, 1, 57, 0
1, 719, Note_on_c, 1, 54, 0
1, 720, Note_on_c, 0, 63, 0
1, 720, Note_on_c, 0, 62, 75
1, 720, Note_on_c, 1, 57, 64
1, 720, Note_on_c, 1, 54, 64
1, 743, Note_on_c, 0, 62, 0
1, 744, Note_on_c, 0, 72, 75
1, 752, Note_on_c, 0, 72, 0
1, 752, Note_on_c, 0, 69, 75
1, 760, Note_on_c, 0, 69, 0
1, 760, Note_on_c, 0, 66, 75
1, 767, Note_on_c, 1, 57, 0
1, 767, Note_on_c, 1, 54, 0
1, 768, Note_on_c, 0, 66, 0
1, 768, Note_on_c, 0, 63, 75
1, 768, Note_on_c, 1, 57, 64
1, 768, Note_on_c, 1, 54, 64
1, 815, Note_on_c, 1, 57, 0
1, 815, Note_on_c, 1, 54, 0
1, 816, Note_on_c, 1, 57, 64
1, 816, Note_on_c, 1, 54, 64
1, 835, Note_on_c, 0, 63, 0
1, 840, Note_on_c, 0, 62, 75
1, 852, Note_on_c, 0, 62, 0
1, 852, Note_on_c, 0, 60, 75
1, 863, Note_on_c, 1, 57, 0
1, 863, Note_on_c, 1, 54, 0
1, 864, Note_on_c, 0, 60, 0
1, 864, Note_on_c, 0, 58, 75
1, 864, Note_on_c, 1, 55, 64
1, 911, Note_on_c, 1, 55, 0
1, 912, Note_on_c, 1, 43, 64
1, 931, Note_on_c, 0, 58, 0
1, 936, Note_on_c, 0, 57, 75
1, 948, Note_on_c, 0, 57, 0
1, 948, Note_on_c, 0, 55, 75
1, 959, Note_on_c, 1, 43, 0
1, 960, Note_on_c, 0, 55, 0
1, 960, Note_on_c, 0, 58, 75
1, 960, Note_on_c, 1, 43, 64
1, 966, Note_on_c, 0, 58, 0
1, 966, Note_on_c, 0, 57, 75
1, 972, Note_on_c, 0, 57, 0
1, 972, Note_on_c, 0, 55, 75
1, 978, Note_on_c, 0, 55, 0
1, 978, Note_on_c, 0, 57, 75
1, 984, Note_on_c, 0, 57, 0
1, 984, Note_on_c, 0, 55, 75
1, 1007, Note_on_c, 1, 43, 0
1, 1008, Note_on_c, 1, 43, 64
1, 1049, Note_on_c, 0, 55, 0
1, 1055, Note_on_c, 1, 43, 0
1, 1056, Note_on_c, 1, 43, 64
1, 1103, Note_on_c, 1, 43, 0
1, 1104, Note_on_c, 1, 43, 64
1, 1151, Note_on_c, 1, 43, 0
1, 1152, Note_on_c, 0, 62, 75
1, 1152, Note_on_c, 1, 58, 64
1, 1152, Note_on_c, 1, 55, 64
1, 1199, Note_on_c, 1, 58, 0
1, 1199, Note_on_c, 1, 55, 0
1, 1200, Note_on_c, 1, 58, 64
1, 1200, Note_on_c, 1, 55, 64
1, 1219, Note_on_c, 0, 62, 0
1, 1224, Note_on_c, 0, 63, 75
1, 1247, Note_on_c, 0, 63, 0
1, 1247, Note_on_c, 1, 58, 0
1, 1247, Note_on_c, 1, 55, 0
1, 1248, Note_on_c, 0, 62, 75
1, 1248, Note_on_c, 1, 58, 64
1, 1248, Note_on_c, 1, 55, 64
1, 1295, Note_on_c, 1, 58, 0
1, 1295, Note_on_c, 1, 55, 0
1, 1296, Note_on_c, 1, 58, 64
1, 1296, Note_on_c, 1, 55, 64
1, 1315, Note_on_c, 0, 62, 0
1, 1320, Note_on_c, 0, 63, 75
1, 1343, Note_on_c, 0, 63, 0
1, 1343, Note_on_c, 1, 58, 0
1, 1343, Note_on_c, 1, 55, 0
1, 1344, Note_on_c, 0, 62, 75
1, 1344, Note_on_c, 1, 58, 64
1, 1344, Note_on_c, 1, 55, 64
1, 1391, Note_on_c, 1, 58, 0
1, 1391, Note_on_c, 1, 55, 0
1, 1392, Note_on_c, 1, 58, 64
1, 1392, Note_on_c, 1, 55, 64
1, 1411, Note_on_c, 0, 62, 0
1, 1416, Note_on_c, 0, 67, 75
1, 1422, Note_on_c, 0, 67, 0
1, 1422, Note_on_c, 0, 65, 75
1, 1428, Note_on_c, 0, 65, 0
1, 1428, Note_on_c, 0, 63, 75
1, 1434, Note_on_c, 0, 63, 0
1, 1434, Note_on_c, 0, 62, 75
1, 1439, Note_on_c, 1, 58, 0
1, 1439, Note_on_c, 1, 55, 0
1, 1440, Note_on_c, 0, 62, 0
1, 1440, Note_on_c, 0, 63, 75
1, 1440, Note_on_c, 1, 60, 64
1, 1440, Note_on_c, 1, 55, 64
1, 1446, Note_on_c, 0, 63, 0
1, 1446, Note_on_c, 0, 65, 75
1, 1452, Note_on_c, 0, 65, 0
1, 1452, Note_on_c, 0, 63, 75
1, 1458, Note_on_c, 0, 63, 0
1, 1458, Note_on_c, 0, 65, 75
1, 1464, Note_on_c, 0, 65, 0
1, 1464, Note_on_c, 0, 63, 75
1, 1470, Note_on_c, 0, 63, 0
1, 1470, Note_on_c, 0, 65, 75
1, 1476, Note_on_c, 0, 65, 0
1, 1476, Note_on_c, 0, 63, 75
1, 1482, Note_on_c, 0, 63, 0
1, 1482, Note_on_c, 0, 65, 75
1, 1487, Note_on_c, 1, 60, 0
1, 1487, Note_on_c, 1, 55, 0
1, 1488, Note_on_c, 0, 65, 0
1, 1488, Note_on_c, 0, 63, 75
1, 1488, Note_on_c, 1, 60, 64
1, 1488, Note_on_c, 1, 55, 64
1, 1494, Note_on_c, 0, 63, 0
1, 1494, Note_on_c, 0, 65, 75
1, 1500, Note_on_c, 0, 65, 0
1, 1500, Note_on_c, 0, 63, 75
1, 1506, Note_on_c, 0, 63, 0
1, 1506, Note_on_c, 0, 65, 75
1, 1511, Note_on_c, 0, 65, 0
1, 1511, Note_on_c, 0, 63, 75
1, 1516, Note_on_c, 0, 63, 0
1, 1516, Note_on_c, 0, 62, 75
1, 1526, Note_on_c, 0, 62, 0
1, 1526, Note_on_c, 0, 63, 75
1, 1535, Note_on_c, 1, 60, 0
1, 1535, Note_on_c, 1, 55, 0
1, 1536, Note_on_c, 0, 63, 0
1, 1536, Note_on_c, 0, 62, 75
1, 1536, Note_on_c, 1, 58, 64
1, 1536, Note_on_c, 1, 55, 64
1, 1583, Note_on_c, 1, 58, 0
1, 1583, Note_on_c, 1, 55, 0
1, 1584, Note_on_c, 1, 58, 64
1, 1584, Note_on_c, 1, 55, 64
1, 1625, Note_on_c, 0, 62, 0
1, 1631, Note_on_c, 1, 58, 0
1, 1631, Note_on_c, 1, 55, 0
1, 1632, Note_on_c, 1, 58, 64
1, 1632, Note_on_c, 1, 55, 64
1, 1679, Note_on_c, 1, 58, 0
1, 1679, Note_on_c, 1, 55, 0
1, 1680, Note_on_c, 1, 58, 64
1, 1680, Note_on_c, 1, 55, 64
1, 1727, Note_on_c, 1, 58, 0
1, 1727, Note_on_c, 1, 55, 0
1, 1728, Note_on_c, 0, 79, 91
1, 1728, Note_on_c, 0, 73, 91
1, 1728, Note_on_c, 0, 70, 91
1, 1728, Note_on_c, 0, 67, 91
1, 1728, Note_on_c, 1, 63, 80
1, 1728, Note_on_c, 1, 58, 80
1, 1728, Note_on_c, 1, 55, 80
1, 1728, Note_on_c, 1, 51, 80
1, 1752, Note_on_c, 0, 79, 0
1, 1752, Note_on_c, 0, 73, 0
1, 1752, Note_on_c, 0, 70, 0
1, 1752, Note_on_c, 0, 67, 0
1, 1752, Note_on_c, 0, 82, 75
1, 1776, Note_on_c, 1, 63, 0
1, 1776, Note_on_c, 1, 58, 0
1, 1776, Note_on_c, 1, 55, 0
1, 1776, Note_on_c, 1, 51, 0
1, 1776, Note_on_c, 1, 55, 64
1, 1776, Note_on_c, 1, 51, 64
1, 1797, Note_on_c, 0, 82, 0
1, 1800, Note_on_c, 0, 81, 74
1, 1823, Note_on_c, 1, 55, 0
1, 1823, Note_on_c, 1, 51, 0
1, 1824, Note_on_c, 1, 55, 64
1, 1824, Note_on_c, 1, 51, 64
1, 1845, Note_on_c, 0, 81, 0
1, 1848, Note_on_c, 0, 79, 73
1, 1871, Note_on_c, 1, 55, 0
1, 1871, Note_on_c, 1, 51, 0
1, 1872, Note_on_c, 1, 55, 64
1, 1872, Note_on_c, 1, 51, 64
1, 1893, Note_on_c, 0, 79, 0
1, 1896, Note_on_c, 0, 67, 72
1, 1919, Note_on_c, 1, 55, 0
1, 1919, Note_on_c, 1, 51, 0
1, 1920, Note_on_c, 1, 55, 64
1, 1920, Note_on_c, 1, 51, 64
1, 1941, Note_on_c, 0, 67, 0
1, 1944, Note_on_c, 0, 70, 71
1, 1967, Note_on_c, 1, 55, 0
1, 1967, Note_on_c, 1, 51, 0
1, 1968, Note_on_c, 1, 55, 64
1, 1968, Note_on_c, 1, 51, 64
1, 1989, Note_on_c, 0, 70, 0
1, 1992, Note_on_c, 0, 73, 70
1, 2015, Note_on_c, 0, 73, 0
1, 2015, Note_on_c, 1, 55, 0
1, 2015, Note_on_c, 1, 51, 0
1, 2016, Note_on_c, 0, 73, 70
1, 2016, Note_on_c, 1, 54, 64
1, 2016, Note_on_c, 1, 50, 64
1, 2059, Note_on_c, 0, 73, 0
1, 2064, Note_on_c, 0, 74, 70
1, 2070, Note_on_c, 0, 74, 0
1, 2070, Note_on_c, 0, 73, 70
1, 2076, Note_on_c, 0, 73, 0
1, 2076, Note_on_c, 0, 71, 70
1, 2082, Note_on_c, 0, 71, 0
1, 2082, Note_on_c, 0, 73, 70
1, 2088, Note_on_c, 0, 73, 0
1, 2088, Note_on_c, 0, 74, 70
1, 2105, Note_on_c, 1, 54, 0
1, 2105, Note_on_c, 1, 50, 0
1, 2111, Note_on_c, 0, 74, 0
1, 2112, Note_on_c, 0, 62, 70
1, 2112, Note_on_c, 1, 38, 64
1, 2201, Note_on_c, 0, 62, 0
1, 2201, Note_on_c, 1, 38, 0
1, 2304, Note_on_c, 0, 72, 75
1, 2304, Note_on_c, 1, 65, 64
1, 2304, Note_on_c, 1, 62, 64
1, 2304, Note_on_c, 1, 58, 64
1, 2310, Note_on_c, 0, 72, 0
1, 2310, Note_on_c, 0, 70, 75
1, 2316, Note_on_c, 0, 70, 0
1, 2316, Note_on_c, 0, 69, 75
1, 2322, Note_on_c, 0, 69, 0
1, 2322, Note_on_c, 0, 70, 75
1, 2351, Note_on_c, 1, 65, 0
1, 2351, Note_on_c, 1, 62, 0
1, 2351, Note_on_c, 1, 58, 0
1, 2352, Note_on_c, 1, 65, 64
1, 2352, Note_on_c, 1, 62, 64
1, 2352, Note_on_c, 1, 58, 64
1, 2393, Note_on_c, 0, 70, 0
1, 2399, Note_on_c, 1, 65, 0
1, 2399, Note_on_c, 1, 62, 0
1, 2399, Note_on_c, 1, 58, 0
1, 2400, Note_on_c, 1, 65, 64
1, 2400, Note_on_c, 1, 62, 64
1, 2400, Note_on_c, 1, 58, 64
1, 2412, Note_on_c, 0, 70, 75
1, 2417, Note_on_c, 0, 70, 0
1, 2424, Note_on_c, 0, 72, 75
1, 2429, Note_on_c, 0, 72, 0
1, 2436, Note_on_c, 0, 74, 76
1, 2441, Note_on_c, 0, 74, 0
1, 2447, Note_on_c, 1, 65, 0
1, 2447, Note_on_c, 1, 62, 0
1, 2447, Note_on_c, 1, 58, 0
1, 2448, Note_on_c, 0, 75, 77
1, 2448, Note_on_c, 1, 65, 64
1, 2448, Note_on_c, 1, 62, 64
1, 2448, Note_on_c, 1, 58, 64
1, 2453, Note_on_c, 0, 75, 0
1, 2460, Note_on_c, 0, 77, 77
1, 2465, Note_on_c, 0, 77, 0
1, 2472, Note_on_c, 0, 79, 78
1, 2477, Note_on_c, 0, 79, 0
1, 2484, Note_on_c, 0, 81, 79
1, 2489, Note_on_c, 0, 81, 0
1, 2495, Note_on_c, 1, 65, 0
1, 2495, Note_on_c, 1, 62, 0
1, 2495, Note_on_c, 1, 58, 0
1, 2496, Note_on_c, 0, 82, 80
1, 2496, Note_on_c, 1, 65, 64
1, 2496, Note_on_c, 1, 62, 64
1, 2496, Note_on_c, 1, 58, 64
1, 2541, Note_on_c, 0, 82, 0
1, 2543, Note_on_c, 1, 65, 0
1, 2543, Note_on_c, 1, 62, 0
1, 2543, Note_on_c, 1, 58, 0
1, 2544, Note_on_c, 1, 65, 64
1, 2544, Note_on_c, 1, 62, 64
1, 2544, Note_on_c, 1, 58, 64
1, 2591, Note_on_c, 1, 65, 0
1, 2591, Note_on_c, 1, 62, 0
1, 2591, Note_on_c, 1, 58, 0
1, 2592, Note_on_c, 0, 72, 75
1, 2592, Note_on_c, 1, 67, 64
1, 2592, Note_on_c, 1, 63, 64
1, 2592, Note_on_c, 1, 58, 64
1, 2598, Note_on_c, 0, 72, 0
1, 2598, Note_on_c, 0, 70, 75
1, 2604, Note_on_c, 0, 70, 0
1, 2604, Note_on_c, 0, 69, 75
1, 2610, Note_on_c, 0, 69, 0
1, 2610, Note_on_c, 0, 70, 75
1, 2639, Note_on_c, 1, 67, 0
1, 2639, Note_on_c, 1, 63, 0
1, 2639, Note_on_c, 1, 58, 0
1, 2640, Note_on_c, 1, 67, 64
1, 2640, Note_on_c, 1, 63, 64
1, 2640, Note_on_c, 1, 58, 64
1, 2681, Note_on_c, 0, 70, 0
1, 2687, Note_on_c, 1, 67, 0
1, 2687, Note_on_c, 1, 63, 0
1, 2687, Note_on_c, 1, 58, 0
1, 2688, Note_on_c, 1, 67, 64
1, 2688, Note_on_c, 1, 63, 64
1, 2688, Note_on_c, 1, 58, 64
1, 2700, Note_on_c, 0, 70, 75
1, 2705, Note_on_c, 0, 70, 0
1, 2712, Note_on_c, 0, 72, 75
1, 2717, Note_on_c, 0, 72, 0
1, 2724, Note_on_c, 0, 74, 76
1, 2729, Note_on_c, 0, 74, 0
1, 2735, Note_on_c, 1, 67, 0
1, 2735, Note_on_c, 1, 63, 0
1, 2735, Note_on_c, 1, 58, 0
1, 2736, Note_on_c, 0, 75, 77
1, 2736, Note_on_c, 1, 67, 64
1, 2736, Note_on_c, 1, 63, 64
1, 2736, Note_on_c, 1, 58, 64
1, 2741, Note_on_c, 0, 75, 0
1, 2748, Note_on_c, 0, 77, 77
1, 2753, Note_on_c, 0, 77, 0
1, 2760, Note_on_c, 0, 79, 78
1, 2765, Note_on_c, 0, 79, 0
1, 2772, Note_on_c, 0, 81, 79
1, 2777, Note_on_c, 0, 81, 0
1, 2783, Note_on_c, 1, 67, 0
1, 2783, Note_on_c, 1, 63, 0
1, 2783, Note_on_c, 1, 58, 0
1, 2784, Note_on_c, 0, 82, 80
1, 2784, Note_on_c, 1, 67, 64
1, 2784, Note_on_c, 1, 63, 64
1, 2784, Note_on_c, 1, 58, 64
1, 2829, Note_on_c, 0, 82, 0
1, 2831, Note_on_c, 1, 67, 0
1, 2831, Note_on_c, 1, 63, 0
1, 2831, Note_on_c, 1, 58, 0
1, 2832, Note_on_c, 1, 67, 64
1, 2832, Note_on_c, 1, 63, 64
1, 2832, Note_on_c, 1, 58, 64
1, 2879, Note_on_c, 1, 67, 0
1, 2879, Note_on_c, 1, 63, 0
1, 2879, Note_on_c, 1, 58, 0
1, 2880, Note_on_c, 0, 72, 75
1, 2880, Note_on_c, 1, 65, 64
1, 2880, Note_on_c, 1, 62, 64
1, 2880, Note_on_c, 1, 58, 64
1, 2886, Note_on_c, 0, 72, 0
1, 2886, Note_on_c, 0, 70, 75
1, 2892, Note_on_c, 0, 70, 0
1, 2892, Note_on_c, 0, 69, 75
1, 2898, Note_on_c, 0, 69, 0
1, 2898, Note_on_c, 0, 70, 75
1, 2927, Note_on_c, 1, 65, 0
1, 2927, Note_on_c, 1, 62, 0
1, 2927, Note_on_c, 1, 58, 0
1, 2928, Note_on_c, 1, 65, 64
1, 2928, Note_on_c, 1, 62, 64
1, 2928, Note_on_c, 1, 58, 64
1, 2969, Note_on_c, 0, 70, 0
1, 2975, Note_on_c, 1, 65, 0
1, 2975, Note_on_c, 1, 62, 0
1, 2975, Note_on_c, 1, 58, 0
1, 2976, Note_on_c, 1, 65, 64
1, 2976, Note_on_c, 1, 62, 64
1, 2976, Note_on_c, 1, 58, 64
1, 2988, Note_on_c, 0, 70, 75
1, 2993, Note_on_c, 0, 70, 0
1, 3000, Note_on_c, 0, 72, 75
1, 3005, Note_on_c, 0, 72, 0
1, 3012, Note_on_c, 0, 74, 76
1, 3017, Note_on_c, 0, 74, 0
1, 3023, Note_on_c, 1, 65, 0
1, 3023, Note_on_c, 1, 62, 0
1, 3023, Note_on_c, 1, 58, 0
1, 3024, Note_on_c, 0, 75, 77
1, 3024, Note_on_c, 1, 65, 64
1, 3024, Note_on_c, 1, 62, 64
1, 3024, Note_on_c, 1, 58, 64
1, 3029, Note_on_c, 0, 75, 0
1, 3036, Note_on_c, 0, 77, 77
1, 3041, Note_on_c, 0, 77, 0
1, 3048, Note_on_c, 0, 79, 78
1, 3053, Note_on_c, 0, 79, 0
1, 3060, Note_on_c, 0, 81, 79
1, 3065, Note_on_c, 0, 81, 0
1, 3071, Note_on_c, 1, 65, 0
1, 3071, Note_on_c, 1, 62, 0
1, 3071, Note_on_c, 1, 58, 0
1, 3072, Note_on_c, 0, 82, 80
1, 3072, Note_on_c, 1, 65, 64
1, 3072, Note_on_c, 1, 62, 64
1, 3072, Note_on_c, 1, 58, 64
1, 3119, Note_on_c, 1, 65, 0
1, 3119, Note_on_c, 1, 62, 0
1, 3119, Note_on_c, 1, 58, 0
1, 3120, Note_on_c, 1, 65, 64
1, 3120, Note_on_c, 1, 62, 64
1, 3120, Note_on_c, 1, 58, 64
1, 3139, Note_on_c, 0, 82, 0
1, 3144, Note_on_c, 0, 77, 80
1, 3167, Note_on_c, 0, 77, 0
1, 3167, Note_on_c, 1, 65, 0
1, 3167, Note_on_c, 1, 62, 0
1, 3167, Note_on_c, 1, 58, 0
1, 3168, Note_on_c, 1, 65, 64
1, 3168, Note_on_c, 1, 60, 64
1, 3168, Note_on_c, 1, 57, 64
1, 3180, Note_on_c, 0, 77, 80
1, 3186, Note_on_c, 0, 77, 0
1, 3186, Note_on_c, 0, 75, 80
1, 3192, Note_on_c, 0, 75, 0
1, 3192, Note_on_c, 0, 84, 96
1, 3215, Note_on_c, 1, 65, 0
1, 3215, Note_on_c, 1, 60, 0
1, 3215, Note_on_c, 1, 57, 0
1, 3216, Note_on_c, 1, 65, 64
1, 3216, Note_on_c, 1, 60, 64
1, 3216, Note_on_c, 1, 57, 64
1, 3240, Note_on_c, 0, 84, 0
1, 3240, Note_on_c, 0, 82, 80
1, 3252, Note_on_c, 0, 82, 0
1, 3252, Note_on_c, 0, 81, 80
1, 3263, Note_on_c, 1, 65, 0
1, 3263, Note_on_c, 1, 60, 0
1, 3263, Note_on_c, 1, 57, 0
1, 3264, Note_on_c, 0, 81, 0
1, 3264, Note_on_c, 1, 65, 64
1, 3264, Note_on_c, 1, 60, 64
1, 3264, Note_on_c, 1, 57, 64
1, 3276, Note_on_c, 0, 79, 80
1, 3288, Note_on_c, 0, 79, 0
1, 3288, Note_on_c, 0, 77, 80
1, 3311, Note_on_c, 0, 77, 0
1, 3311, Note_on_c, 1, 65, 0
1, 3311, Note_on_c, 1, 60, 0
1, 3311, Note_on_c, 1, 57, 0
1, 3312, Note_on_c, 1, 65, 64
1, 3312, Note_on_c, 1, 60, 64
1, 3312, Note_on_c, 1, 57, 64
1, 3324, Note_on_c, 0, 77, 80
1, 3330, Note_on_c, 0, 77, 0
1, 3330, Note_on_c, 0, 75, 80
1, 3336, Note_on_c, 0, 75, 0
1, 3336, Note_on_c, 0, 84, 96
1, 3359, Note_on_c, 1, 65, 0
1, 3359, Note_on_c, 1, 60, 0
1, 3359, Note_on_c, 1, 57, 0
1, 3360, Note_on_c, 1, 65, 64
1, 3360, Note_on_c, 1, 60, 64
1, 3360, Note_on_c, 1, 57, 64
1, 3384, Note_on_c, 0, 84, 0
1, 3384, Note_on_c, 0, 82, 80
1, 3396, Note_on_c, 0, 82, 0
1, 3396, Note_on_c, 0, 81, 80
1, 3407, Note_on_c, 1, 65, 0
1, 3407, Note_on_c, 1, 60, 0
1, 3407, Note_on_c, 1, 57, 0
1, 3408, Note_on_c, 0, 81, 0
1, 3408, Note_on_c, 1, 65, 64
1, 3408, Note_on_c, 1, 60, 64
1, 3408, Note_on_c, 1, 57, 64
1, 3420, Note_on_c, 0, 77, 80
1, 3432, Note_on_c, 0, 77, 0
1, 3432, Note_on_c, 0, 75, 80
1, 3455, Note_on_c, 0, 75, 0
1, 3455, Note_on_c, 1, 65, 0
1, 3455, Note_on_c, 1, 60, 0
1, 3455, Note_on_c, 1, 57, 0
1, 3456, Note_on_c, 1, 65, 64
1, 3456, Note_on_c, 1, 62, 64
1, 3456, Note_on_c, 1, 58, 64
1, 3468, Note_on_c, 0, 75, 80
1, 3474, Note_on_c, 0, 75, 0
1, 3474, Note_on_c, 0, 74, 80
1, 3480, Note_on_c, 0, 74, 0
1, 3480, Note_on_c, 0, 86, 96
1, 3503, Note_on_c, 1, 65, 0
1, 3503, Note_on_c, 1, 62, 0
1, 3503, Note_on_c, 1, 58, 0
1, 3504, Note_on_c, 1, 65, 64
1, 3504, Note_on_c, 1, 62, 64
1, 3504, Note_on_c, 1, 58, 64
1, 3528, Note_on_c, 0, 86, 0
1, 3528, Note_on_c, 0, 84, 80
1, 3540, Note_on_c, 0, 84, 0
1, 3540, Note_on_c, 0, 82, 80
1, 3551, Note_on_c, 1, 65, 0
1, 3551, Note_on_c, 1, 62, 0
1, 3551, Note_on_c, 1, 58, 0
1, 3552, Note_on_c, 0, 82, 0
1, 3552, Note_on_c, 1, 65, 64
1, 3552, Note_on_c, 1, 62, 64
1, 3552, Note_on_c, 1, 58, 64
1, 3564, Note_on_c, 0, 79, 80
1, 3576, Note_on_c, 0, 79, 0
1, 3576, Note_on_c, 0, 77, 80
1, 3599, Note_on_c, 0, 77, 0
1, 3599, Note_on_c, 1, 65, 0
1, 3599, Note_on_c, 1, 62, 0
1, 3599, Note_on_c, 1, 58, 0
1, 3600, Note_on_c, 1, 65, 64
1, 3600, Note_on_c, 1, 62, 64
1, 3600, Note_on_c, 1, 58, 64
1, 3612, Note_on_c, 0, 75, 80
1, 3618, Note_on_c, 0, 75, 0
1, 3618, Note_on_c, 0, 74, 80
1, 3624, Note_on_c, 0, 74, 0
1, 3624, Note_on_c, 0, 86, 96
1, 3647, Note_on_c, 1, 65, 0
1, 3647, Note_on_c, 1, 62, 0
1, 3647, Note_on_c, 1, 58, 0
1, 3648, Note_on_c, 1, 65, 64
1, 3648, Note_on_c, 1, 62, 64
1, 3648, Note_on_c, 1, 58, 64
1, 3672, Note_on_c, 0, 86, 0
1, 3672, Note_on_c, 0, 84, 80
1, 3684, Note_on_c, 0, 84, 0
1, 3684, Note_on_c, 0, 82, 80
1, 3695, Note_on_c, 1, 65, 0
1, 3695, Note_on_c, 1, 62, 0
1, 3695, Note_on_c, 1, 58, 0
1, 3696, Note_on_c, 0, 82, 0
1, 3696, Note_on_c, 1, 65, 64
1, 3696, Note_on_c, 1, 62, 64
1, 3696, Note_on_c, 1, 58, 64
1, 3708, Note_on_c, 0, 77, 80
1, 3720, Note_on_c, 0, 77, 0
1, 3720, Note_on_c, 0, 74, 80
1, 3743, Note_on_c, 0, 74, 0
1, 3743, Note_on_c, 1, 65, 0
1, 3743, Note_on_c, 1, 62, 0
1, 3743, Note_on_c, 1, 58, 0
1, 3744, Note_on_c, 1, 65, 64
1, 3744, Note_on_c, 1, 60, 64
1, 3744, Note_on_c, 1, 57, 64
1, 3756, Note_on_c, 0, 77, 80
1, 3762, Note_on_c, 0, 77, 0
1, 3762, Note_on_c, 0, 75, 80
1, 3768, Note_on_c, 0, 75, 0
1, 3768, Note_on_c, 0, 84, 96
1, 3791, Note_on_c, 1, 65, 0
1, 3791, Note_on_c, 1, 60, 0
1, 3791, Note_on_c, 1, 57, 0
1, 3792, Note_on_c, 1, 65, 64
1, 3792, Note_on_c, 1, 60, 64
1, 3792, Note_on_c, 1, 57, 64
1, 3816, Note_on_c, 0, 84, 0
1, 3816, Note_on_c, 0, 82, 80
1, 3828, Note_on_c, 0, 82, 0
1, 3828, Note_on_c, 0, 81, 80
1, 3839, Note_on_c, 1, 65, 0
1, 3839, Note_on_c, 1, 60, 0
1, 3839, Note_on_c, 1, 57, 0
1, 3840, Note_on_c, 0, 81, 0
1, 3840, Note_on_c, 1, 65, 64
1, 3840, Note_on_c, 1, 60, 64
1, 3840, Note_on_c, 1, 57, 64
1, 3852, Note_on_c, 0, 79, 80
1, 3864, Note_on_c, 0, 79, 0
1, 3864, Note_on_c, 0, 77, 80
1, 3887, Note_on_c, 0, 77, 0
1, 3887, Note_on_c, 1, 65, 0
1, 3887, Note_on_c, 1, 60, 0
1, 3887, Note_on_c, 1, 57, 0
1, 3888, Note_on_c, 1, 65, 64
1, 3888, Note_on_c, 1, 60, 64
1, 3888, Note_on_c, 1, 57, 64
1, 3900, Note_on_c, 0, 77, 80
1, 3906, Note_on_c, 0, 77, 0
1, 3906, Note_on_c, 0, 75, 80
1, 3912, Note_on_c, 0, 75, 0
1, 3912, Note_on_c, 0, 84, 96
1, 3935, Note_on_c, 1, 65, 0
1, 3935, Note_on_c, 1, 60, 0
1, 3935, Note_on_c, 1, 57, 0
1, 3936, Note_on_c, 1, 65, 64
1, 3936, Note_on_c, 1, 60, 64
1, 3936, Note_on_c, 1, 57, 64
1, 3960, Note_on_c, 0, 84, 0
1, 3960, Note_on_c, 0, 82, 80
1, 3972, Note_on_c, 0, 82, 0
1, 3972, Note_on_c, 0, 81, 80
1, 3983, Note_on_c, 1, 65, 0
1, 3983, Note_on_c, 1, 60, 0
1, 3983, Note_on_c, 1, 57, 0
1, 3984, Note_on_c, 0, 81, 0
1, 3984, Note_on_c, 1, 65, 64
1, 3984, Note_on_c, 1, 60, 64
1, 3984, Note_on_c, 1, 57, 64
1, 3996, Note_on_c, 0, 77, 80
1, 4008, Note_on_c, 0, 77, 0
1, 4008, Note_on_c, 0, 75, 80
1, 4031, Note_on_c, 0, 75, 0
1, 4031, Note_on_c, 1, 65, 0
1, 4031, Note_on_c, 1, 60, 0
1, 4031, Note_on_c, 1, 57, 0
1, 4032, Note_on_c, 0, 74, 80
1, 4032, Note_on_c, 1, 65, 64
1, 4032, Note_on_c, 1, 62, 64
1, 4032, Note_on_c, 1, 58, 64
1, 4042, Note_on_c, 0, 74, 0
1, 4056, Note_on_c, 0, 82, 96
1, 4079, Note_on_c, 1, 65, 0
1, 4079, Note_on_c, 1, 62, 0
1, 4079, Note_on_c, 1, 58, 0
1, 4080, Note_on_c, 1, 65, 64
1, 4080, Note_on_c, 1, 62, 64
1, 4080, Note_on_c, 1, 58, 64
1, 4104, Note_on_c, 0, 82, 0
1, 4104, Note_on_c, 0, 77, 80
1, 4127, Note_on_c, 1, 65, 0
1, 4127, Note_on_c, 1, 62, 0
1, 4127, Note_on_c, 1, 58, 0
1, 4128, Note_on_c, 1, 65, 64
1, 4128, Note_on_c, 1, 62, 64
1, 4128, Note_on_c, 1, 58, 64
1, 4149, Note_on_c, 0, 77, 0
1, 4152, Note_on_c, 0, 74, 81
1, 4175, Note_on_c, 1, 65, 0
1, 4175, Note_on_c, 1, 62, 0
1, 4175, Note_on_c, 1, 58, 0
1, 4176, Note_on_c, 1, 65, 65
1, 4176, Note_on_c, 1, 62, 65
1, 4176, Note_on_c, 1, 58, 65
1, 4197, Note_on_c, 0, 74, 0
1, 4200, Note_on_c, 0, 70, 81
1, 4223, Note_on_c, 1, 65, 0
1, 4223, Note_on_c, 1, 62, 0
1, 4223, Note_on_c, 1, 58, 0
1, 4224, Note_on_c, 1, 58, 66
1, 4224, Note_on_c, 1, 50, 66
1, 4245, Note_on_c, 0, 70, 0
1, 4248, Note_on_c, 0, 65, 82
1, 4271, Note_on_c, 1, 58, 0
1, 4271, Note_on_c, 1, 50, 0
1, 4272, Note_on_c, 1, 58, 66
1, 4272, Note_on_c, 1, 50, 66
1, 4293, Note_on_c, 0, 65, 0
1, 4296, Note_on_c, 0, 66, 83
1, 4319, Note_on_c, 0, 66, 0
1, 4319, Note_on_c, 1, 58, 0
1, 4319, Note_on_c, 1, 50, 0
1, 4320, Note_on_c, 0, 67, 83
1, 4320, Note_on_c, 1, 55, 67
1, 4320, Note_on_c, 1, 51, 67
1, 4343, Note_on_c, 0, 67, 0
1, 4344, Note_on_c, 0, 71, 83
1, 4367, Note_on_c, 0, 71, 0
1, 4367, Note_on_c, 1, 55, 0
1, 4367, Note_on_c, 1, 51, 0
1, 4368, Note_on_c, 0, 72, 84
1, 4368, Note_on_c, 1, 55, 68
1, 4368, Note_on_c, 1, 51, 68
1, 4391, Note_on_c, 0, 72, 0
1, 4392, Note_on_c, 0, 74, 84
1, 4415, Note_on_c, 0, 74, 0
1, 4415, Note_on_c, 1, 55, 0
1, 4415, Note_on_c, 1, 51, 0
1, 4416, Note_on_c, 0, 75, 84
1, 4416, Note_on_c, 1, 55, 68
1, 4416, Note_on_c, 1, 51, 68
1, 4439, Note_on_c, 0, 75, 0
1, 4440, Note_on_c, 0, 76, 85
1, 4463, Note_on_c, 0, 76, 0
1, 4463, Note_on_c, 1, 55, 0
1, 4463, Note_on_c, 1, 51, 0
1, 4464, Note_on_c, 0, 77, 85
1, 4464, Note_on_c, 1, 55, 69
1, 4464, Note_on_c, 1, 51, 69
1, 4487, Note_on_c, 0, 77, 0
1, 4488, Note_on_c, 0, 78, 85
1, 4511, Note_on_c, 0, 78, 0
1, 4511, Note_on_c, 1, 55, 0
1, 4511, Note_on_c, 1, 51, 0
1, 4512, Note_on_c, 0, 79, 86
1, 4512, Note_on_c, 1, 55, 70
1, 4512, Note_on_c, 1, 51, 70
1, 4557, Note_on_c, 0, 79, 0
1, 4559, Note_on_c, 1, 55, 0
1, 4559, Note_on_c, 1, 51, 0
1, 4560, Note_on_c, 1, 55, 70
1, 4560, Note_on_c, 1, 51, 70
1, 4607, Note_on_c, 1, 55, 0
1, 4607, Note_on_c, 1, 51, 0
1, 4608, Note_on_c, 1, 60, 75
1, 4608, Note_on_c, 1, 55, 75
1, 4608, Note_on_c, 1, 51, 75
1, 4620, Note_on_c, 0, 71, 86
1, 4632, Note_on_c, 0, 71, 0
1, 4632, Note_on_c, 0, 72, 86
1, 4644, Note_on_c, 0, 72, 0
1, 4644, Note_on_c, 0, 74, 86
1, 4656, Note_on_c, 0, 74, 0
1, 4656, Note_on_c, 0, 75, 86
1, 4668, Note_on_c, 0, 75, 0
1, 4668, Note_on_c, 0, 76, 86
1, 4680, Note_on_c, 0, 76, 0
1, 4680, Note_on_c, 0, 77, 86
1, 4692, Note_on_c, 0, 77, 0
1, 4692, Note_on_c, 0, 78, 86
1, 4697, Note_on_c, 1, 60, 0
1, 4697, Note_on_c, 1, 55, 0
1, 4697, Note_on_c, 1, 51, 0
1, 4704, Note_on_c, 0, 78, 0
1, 4704, Note_on_c, 0, 79, 86
1, 4716, Note_on_c, 0, 79, 0
1, 4716, Note_on_c, 0, 77, 86
1, 4728, Note_on_c, 0, 77, 0
1, 4728, Note_on_c, 0, 75, 86
1, 4740, Note_on_c, 0, 75, 0
1, 4740, Note_on_c, 0, 74, 86
1, 4752, Note_on_c, 0, 74, 0
1, 4752, Note_on_c, 0, 72, 86
1, 4764, Note_on_c, 0, 72, 0
1, 4764, Note_on_c, 0, 82, 86
1, 4776, Note_on_c, 0, 82, 0
1, 4776, Note_on_c, 0, 81, 86
1, 4788, Note_on_c, 0, 81, 0
1, 4788, Note_on_c, 0, 82, 86
1, 4800, Note_on_c, 0, 82, 0
1, 4800, Note_on_c, 0, 71, 86
1, 4812, Note_on_c, 0, 71, 0
1, 4812, Note_on_c, 0, 72, 86
1, 4824, Note_on_c, 0, 72, 0
1, 4824, Note_on_c, 0, 78, 86
1, 4836, Note_on_c, 0, 78, 0
1, 4836, Note_on_c, 0, 79, 86
1, 4848, Note_on_c, 0, 79, 0
1, 4848, Note_on_c, 0, 77, 86
1, 4860, Note_on_c, 0, 77, 0
1, 4860, Note_on_c, 0, 75, 84
1, 4872, Note_on_c, 0, 75, 0
1, 4872, Note_on_c, 0, 74, 82
1, 4884, Note_on_c, 0, 74, 0
1, 4884, Note_on_c, 0, 72, 80
1, 4896, Note_on_c, 0, 72, 0
1, 4896, Note_on_c, 0, 70, 80
1, 4896, Note_on_c, 1, 62, 75
1, 4896, Note_on_c, 1, 53, 75
1, 4941, Note_on_c, 1, 62, 0
1, 4941, Note_on_c, 1, 53, 0
1, 4944, Note_on_c, 1, 62, 75
1, 4944, Note_on_c, 1, 53, 75
1, 4963, Note_on_c, 0, 70, 0
1, 4968, Note_on_c, 0, 69, 80
1, 4976, Note_on_c, 0, 69, 0
1, 4976, Note_on_c, 0, 67, 80
1, 4984, Note_on_c, 0, 67, 0
1, 4984, Note_on_c, 0, 65, 80
1, 4989, Note_on_c, 1, 62, 0
1, 4989, Note_on_c, 1, 53, 0
1, 4992, Note_on_c, 0, 65, 0
1, 4992, Note_on_c, 0, 74, 80
1, 4992, Note_on_c, 1, 57, 75
1, 4992, Note_on_c, 1, 53, 75
1, 4998, Note_on_c, 0, 74, 0
1, 4998, Note_on_c, 0, 72, 80
1, 5004, Note_on_c, 0, 72, 0
1, 5004, Note_on_c, 0, 74, 80
1, 5010, Note_on_c, 0, 74, 0
1, 5010, Note_on_c, 0, 72, 80
1, 5016, Note_on_c, 0, 72, 0
1, 5016, Note_on_c, 0, 74, 80
1, 5022, Note_on_c, 0, 74, 0
1, 5022, Note_on_c, 0, 72, 80
1, 5028, Note_on_c, 0, 72, 0
1, 5028, Note_on_c, 0, 74, 80
1, 5034, Note_on_c, 0, 74, 0
1, 5034, Note_on_c, 0, 72, 80
1, 5037, Note_on_c, 1, 57, 0
1, 5037, Note_on_c, 1, 53, 0
1, 5040, Note_on_c, 0, 72, 0
1, 5040, Note_on_c, 0, 74, 80
1, 5040, Note_on_c, 1, 57, 75
1, 5040, Note_on_c, 1, 53, 75
1, 5046, Note_on_c, 0, 74, 0
1, 5046, Note_on_c, 0, 72, 80
1, 5052, Note_on_c, 0, 72, 0
1, 5052, Note_on_c, 0, 74, 80
1, 5058, Note_on_c, 0, 74, 0
1, 5058, Note_on_c, 0, 72, 80
1, 5064, Note_on_c, 0, 72, 0
1, 5064, Note_on_c, 0, 74, 80
1, 5070, Note_on_c, 0, 74, 0
1, 5070, Note_on_c, 0, 72, 80
1, 5076, Note_on_c, 0, 72, 0
1, 5076, Note_on_c, 0, 74, 80
1, 5082, Note_on_c, 0, 74, 0
1, 5082, Note_on_c, 0, 72, 80
1, 5085, Note_on_c, 1, 57, 0
1, 5085, Note_on_c, 1, 53, 0
1, 5088, Note_on_c, 0, 72, 0
1, 5088, Note_on_c, 0, 74, 80
1, 5088, Note_on_c, 1, 57, 75
1, 5088, Note_on_c, 1, 53, 75
1, 5094, Note_on_c, 0, 74, 0
1, 5094, Note_on_c, 0, 72, 80
1, 5100, Note_on_c, 0, 72, 0
1, 5100, Note_on_c, 0, 74, 80
1, 5106, Note_on_c, 0, 74, 0
1, 5106, Note_on_c, 0, 72, 80
1, 5112, Note_on_c, 0, 72, 0
1, 5112, Note_on_c, 0, 74, 80
1, 5118, Note_on_c, 0, 74, 0
1, 5118, Note_on_c, 0, 72, 80
1, 5124, Note_on_c, 0, 72, 0
1, 5124, Note_on_c, 0, 74, 80
1, 5129, Note_on_c, 0, 74, 0
1, 5129, Note_on_c, 0, 72, 80
1, 5133, Note_on_c, 1, 57, 0
1, 5133, Note_on_c, 1, 53, 0
1, 5134, Note_on_c, 0, 72, 0
1, 5134, Note_on_c, 0, 74, 80
1, 5136, Note_on_c, 1, 57, 75
1, 5136, Note_on_c, 1, 53, 75
1, 5139, Note_on_c, 0, 74, 0
1, 5139, Note_on_c, 0, 72, 80
1, 5144, Note_on_c, 0, 72, 0
1, 5144, Note_on_c, 0, 74, 80
1, 5149, Note_on_c, 0, 74, 0
1, 5149, Note_on_c, 0, 72, 80
1, 5154, Note_on_c, 0, 72, 0
1, 5154, Note_on_c, 0, 74, 80
1, 5159, Note_on_c, 0, 74, 0
1, 5159, Note_on_c, 0, 72, 80
1, 5164, Note_on_c, 0, 72, 0
1, 5164, Note_on_c, 0, 70, 80
1, 5174, Note_on_c, 0, 70, 0
1, 5174, Note_on_c, 0, 72, 80
1, 5181, Note_on_c, 1, 57, 0
1, 5181, Note_on_c, 1, 53, 0
1, 5184, Note_on_c, 0, 72, 0
1, 5184, Note_on_c, 0, 70, 80
1, 5184, Note_on_c, 1, 58, 75
1, 5207, Note_on_c, 0, 70, 0
1, 5207, Note_on_c, 1, 58, 0
1, 5208, Note_on_c, 0, 70, 80
1, 5208, Note_on_c, 1, 62, 75
1, 5231, Note_on_c, 0, 70, 0
1, 5231, Note_on_c, 1, 62, 0
1, 5232, Note_on_c, 0, 69, 80
1, 5232, Note_on_c, 1, 60, 75
1, 5255, Note_on_c, 0, 69, 0
1, 5255, Note_on_c, 1, 60, 0
1, 5256, Note_on_c, 0, 72, 80
1, 5256, Note_on_c, 1, 63, 75
1, 5279, Note_on_c, 0, 72, 0
1, 5279, Note_on_c, 1, 63, 0
1, 5280, Note_on_c, 0, 70, 80
1, 5280, Note_on_c, 1, 62, 75
1, 5303, Note_on_c, 0, 70, 0
1, 5303, Note_on_c, 1, 62, 0
1, 5304, Note_on_c, 0, 74, 80
1, 5304, Note_on_c, 1, 70, 75
1, 5327, Note_on_c, 0, 74, 0
1, 5327, Note_on_c, 1, 70, 0
1, 5328, Note_on_c, 0, 72, 80
1, 5328, Note_on_c, 1, 69, 75
1, 5351, Note_on_c, 0, 72, 0
1, 5351, Note_on_c, 1, 69, 0
1, 5352, Note_on_c, 0, 75, 80
1, 5352, Note_on_c, 1, 72, 75
1, 5375, Note_on_c, 0, 75, 0
1, 5375, Note_on_c, 1, 72, 0
1, 5376, Note_on_c, 0, 74, 80
1, 5376, Note_on_c, 1, 70, 75
1, 5399, Note_on_c, 0, 74, 0
1, 5400, Note_on_c, 0, 79, 80
1, 5400, Note_on_c, 0, 75, 80
1, 5423, Note_on_c, 0, 79, 0
1, 5423, Note_on_c, 0, 75, 0
1, 5424, Note_on_c, 0, 77, 80
1, 5424, Note_on_c, 0, 74, 80
1, 5447, Note_on_c, 0, 77, 0
1, 5447, Note_on_c, 0, 74, 0
1, 5448, Note_on_c, 0, 81, 80
1, 5448, Note_on_c, 0, 72, 80
1, 5465, Note_on_c, 1, 70, 0
1, 5471, Note_on_c, 0, 81, 0
1, 5471, Note_on_c, 0, 72, 0
1, 5472, Note_on_c, 1, 58, 70
1, 5472, Note_on_c, 1, 53, 70
1, 5472, Note_on_c, 1, 50, 70
1, 5520, Note_on_c, 0, 84, 70
1, 5526, Note_on_c, 0, 84, 0
1, 5526, Note_on_c, 0, 82, 70
1, 5532, Note_on_c, 0, 82, 0
1, 5532, Note_on_c, 0, 81, 70
1, 5538, Note_on_c, 0, 81, 0
1, 5538, Note_on_c, 0, 82, 70
1, 5561, Note_on_c, 1, 58, 0
1, 5561, Note_on_c, 1, 53, 0
1, 5561, Note_on_c, 1, 50, 0
1, 5565, Note_on_c, 0, 82, 0
1, 5568, Note_on_c, 1, 58, 75
1, 5568, Note_on_c, 1, 55, 75
1, 5568, Note_on_c, 1, 51, 75
1, 5616, Note_on_c, 0, 84, 75
1, 5622, Note_on_c, 0, 84, 0
1, 5622, Note_on_c, 0, 82, 75
1, 5628, Note_on_c, 0, 82, 0
1, 5628, Note_on_c, 0, 81, 75
1, 5634, Note_on_c, 0, 81, 0
1, 5634, Note_on_c, 0, 82, 75
1, 5657, Note_on_c, 1, 58, 0
1, 5657, Note_on_c, 1, 55, 0
1, 5657, Note_on_c, 1, 51, 0
1, 5661, Note_on_c, 0, 82, 0
1, 5664, Note_on_c, 1, 58, 80
1, 5664, Note_on_c, 1, 55, 80
1, 5664, Note_on_c, 1, 52, 80
1, 5712, Note_on_c, 0, 84, 80
1, 5718, Note_on_c, 0, 84, 0
1, 5718, Note_on_c, 0, 82, 80
1, 5724, Note_on_c, 0, 82, 0
1, 5724, Note_on_c, 0, 81, 80
1, 5730, Note_on_c, 0, 81, 0
1, 5730, Note_on_c, 0, 82, 80
1, 5753, Note_on_c, 1, 58, 0
1, 5753, Note_on_c, 1, 55, 0
1, 5753, Note_on_c, 1, 52, 0
1, 5757, Note_on_c, 0, 82, 0
1, 5760, Note_on_c, 1, 62, 86
1, 5760, Note_on_c, 1, 58, 86
1, 5760, Note_on_c, 1, 53, 86
1, 5808, Note_on_c, 0, 82, 86
1, 5849, Note_on_c, 1, 62, 0
1, 5849, Note_on_c, 1, 58, 0
1, 5849, Note_on_c, 1, 53, 0
1, 5853, Note_on_c, 0, 82, 0
1, 5856, Note_on_c, 0, 65, 75
1, 5856, Note_on_c, 1, 58, 70
1, 5856, Note_on_c, 1, 53, 70
1, 5903, Note_on_c, 1, 58, 0
1, 5903, Note_on_c, 1, 53, 0
1, 5904, Note_on_c, 1, 58, 70
1, 5904, Note_on_c, 1, 53, 70
1, 5950, Note_on_c, 0, 65, 0
1, 5951, Note_on_c, 1, 58, 0
1, 5951, Note_on_c, 1, 53, 0
1, 5952, Note_on_c, 0, 74, 75
1, 5952, Note_on_c, 1, 58, 70
1, 5952, Note_on_c, 1, 53, 70
1, 5958, Note_on_c, 0, 74, 0
1, 5958, Note_on_c, 0, 72, 75
1, 5964, Note_on_c, 0, 72, 0
1, 5964, Note_on_c, 0, 74, 75
1, 5970, Note_on_c, 0, 74, 0
1, 5970, Note_on_c, 0, 72, 75
1, 5976, Note_on_c, 0, 72, 0
1, 5976, Note_on_c, 0, 74, 75
1, 5982, Note_on_c, 0, 74, 0
1, 5982, Note_on_c, 0, 72, 75
1, 5988, Note_on_c, 0, 72, 0
1, 5988, Note_on_c, 0, 74, 75
1, 5993, Note_on_c, 0, 74, 0
1, 5993, Note_on_c, 0, 72, 75
1, 5998, Note_on_c, 0, 72, 0
1, 5998, Note_on_c, 0, 74, 75
1, 5999, Note_on_c, 1, 58, 0
1, 5999, Note_on_c, 1, 53, 0
1, 6000, Note_on_c, 1, 58, 67
1, 6000, Note_on_c, 1, 53, 67
1, 6003, Note_on_c, 0, 74, 0
1, 6003, Note_on_c, 0, 72, 75
1, 6008, Note_on_c, 0, 72, 0
1, 6008, Note_on_c, 0, 74, 75
1, 6013, Note_on_c, 0, 74, 0
1, 6013, Note_on_c, 0, 72, 75
1, 6018, Note_on_c, 0, 72, 0
1, 6018, Note_on_c, 0, 74, 75
1, 6023, Note_on_c, 0, 74, 0
1, 6023, Note_on_c, 0, 72, 75
1, 6028, Note_on_c, 0, 72, 0
1, 6028, Note_on_c, 0, 74, 75
1, 6033, Note_on_c, 0, 74, 0
1, 6033, Note_on_c, 0, 72, 75
1, 6038, Note_on_c, 0, 72, 0
1, 6038, Note_on_c, 0, 70, 75
1, 6043, Note_on_c, 0, 70, 0
1, 6043, Note_on_c, 0, 72, 75
1, 6047, Note_on_c, 1, 58, 0
1, 6047, Note_on_c, 1, 53, 0
1, 6048, Note_on_c, 0, 72, 0
1, 6048, Note_on_c, 0, 70, 70
1, 6048, Note_on_c, 1, 58, 64
1, 6048, Note_on_c, 1, 46, 64
1, 6118, Note_on_c, 0, 70, 0
1, 6120, Note_on_c, 0, 77, 70
1, 6128, Note_on_c, 0, 77, 0
1, 6128, Note_on_c, 0, 74, 70
1, 6136, Note_on_c, 0, 74, 0
1, 6136, Note_on_c, 0, 70, 70
1, 6142, Note_on_c, 1, 58, 0
1, 6142, Note_on_c, 1, 46, 0
1, 6144, Note_on_c, 0, 70, 0
1, 6144, Note_on_c, 0, 65, 70
1, 6192, Note_on_c, 1, 62, 64
1, 6192, Note_on_c, 1, 53, 64
1, 6237, Note_on_c, 1, 62, 0
1, 6240, Note_on_c, 1, 60, 64
1, 6263, Note_on_c, 0, 65, 0
1, 6264, Note_on_c, 0, 64, 70
1, 6285, Note_on_c, 1, 60, 0
1, 6288, Note_on_c, 1, 57, 64
1, 6309, Note_on_c, 0, 64, 0
1, 6312, Note_on_c, 0, 63, 70
1, 6333, Note_on_c, 1, 57, 0
1, 6335, Note_on_c, 0, 63, 0
1, 6336, Note_on_c, 0, 63, 70
1, 6336, Note_on_c, 1, 58, 64
1, 6359, Note_on_c, 0, 63, 0
1, 6360, Note_on_c, 0, 62, 70
1, 6370, Note_on_c, 0, 62, 0
1, 6381, Note_on_c, 1, 58, 0
1, 6384, Note_on_c, 1, 62, 64
1, 6408, Note_on_c, 0, 77, 70
1, 6416, Note_on_c, 0, 77, 0
1, 6416, Note_on_c, 0, 74, 70
1, 6424, Note_on_c, 0, 74, 0
1, 6424, Note_on_c, 0, 70, 70
1, 6425, Note_on_c, 1, 53, 0
1, 6431, Note_on_c, 1, 62, 0
1, 6432, Note_on_c, 0, 70, 0
1, 6432, Note_on_c, 0, 65, 70
1, 6480, Note_on_c, 1, 62, 64
1, 6480, Note_on_c, 1, 53, 64
1, 6525, Note_on_c, 1, 62, 0
1, 6528, Note_on_c, 1, 60, 64
1, 6551, Note_on_c, 0, 65, 0
1, 6552, Note_on_c, 0, 64, 70
1, 6573, Note_on_c, 1, 60, 0
1, 6576, Note_on_c, 1, 57, 64
1, 6597, Note_on_c, 0, 64, 0
1, 6600, Note_on_c, 0, 63, 70
1, 6621, Note_on_c, 1, 57, 0
1, 6623, Note_on_c, 0, 63, 0
1, 6624, Note_on_c, 0, 62, 70
1, 6624, Note_on_c, 1, 58, 64
1, 6647, Note_on_c, 0, 62, 0
1, 6648, Note_on_c, 0, 63, 70
1, 6671, Note_on_c, 0, 63, 0
1, 6672, Note_on_c, 0, 64, 70
1, 6695, Note_on_c, 0, 64, 0
1, 6696, Note_on_c, 0, 65, 70
1, 6713, Note_on_c, 1, 58, 0
1, 6713, Note_on_c, 1, 53, 0
1, 6719, Note_on_c, 0, 65, 0
1, 6720, Note_on_c, 0, 66, 70
1, 6720, Note_on_c, 1, 58, 64
1, 6720, Note_on_c, 1, 51, 64
1, 6754, Note_on_c, 0, 66, 0
1, 6756, Note_on_c, 0, 67, 70
1, 6768, Note_on_c, 0, 67, 0
1, 6768, Note_on_c, 0, 65, 70
1, 6780, Note_on_c, 0, 65, 0
1, 6780, Note_on_c, 0, 63, 70
1, 6792, Note_on_c, 0, 63, 0
1, 6792, Note_on_c, 0, 62, 70
1, 6804, Note_on_c, 0, 62, 0
1, 6804, Note_on_c, 0, 60, 70
1, 6809, Note_on_c, 1, 58, 0
1, 6809, Note_on_c, 1, 51, 0
1, 6816, Note_on_c, 0, 60, 0
1, 6816, Note_on_c, 0, 58, 70
1, 6816, Note_on_c, 1, 53, 64
1, 6861, Note_on_c, 0, 58, 0
1, 6861, Note_on_c, 1, 53, 0
1, 6864, Note_on_c, 0, 62, 70
1, 6864, Note_on_c, 1, 41, 64
1, 6870, Note_on_c, 0, 62, 0
1, 6870, Note_on_c, 0, 60, 70
1, 6870, Note_on_c, 0, 57, 70
1, 6909, Note_on_c, 0, 60, 0
1, 6909, Note_on_c, 0, 57, 0
1, 6909, Note_on_c, 1, 41, 0
1, 6912, Note_on_c, 0, 58, 70
1, 6912, Note_on_c, 1, 46, 64
1, 6912, Note_on_c, 1, 34, 64
1, 6979, Note_on_c, 0, 58, 0
1, 6984, Note_on_c, 0, 58, 70
1, 6996, Note_on_c, 0, 58, 0
1, 6996, Note_on_c, 0, 60, 70
1, 7001, Note_on_c, 1, 46, 0
1, 7001, Note_on_c, 1, 34, 0
1, 7008, Note_on_c, 0, 60, 0
1, 7008, Note_on_c, 0, 62, 70
1, 7008, Note_on_c, 1, 50, 64
1, 7008, Note_on_c, 1, 38, 64
1, 7075, Note_on_c, 0, 62, 0
1, 7080, Note_on_c, 0, 62, 70
1, 7092, Note_on_c, 0, 62, 0
1, 7092, Note_on_c, 0, 63, 70
1, 7097, Note_on_c, 1, 50, 0
1, 7097, Note_on_c, 1, 38, 0
1, 7104, Note_on_c, 0, 63, 0
1, 7104, Note_on_c, 0, 65, 70
1, 7104, Note_on_c, 1, 53, 64
1, 7104, Note_on_c, 1, 41, 64
1, 7171, Note_on_c, 0, 65, 0
1, 7176, Note_on_c, 0, 65, 70
1, 7184, Note_on_c, 0, 65, 0
1, 7184, Note_on_c, 0, 67, 70
1, 7192, Note_on_c, 0, 67, 0
1, 7192, Note_on_c, 0, 69, 70
1, 7193, Note_on_c, 1, 53, 0
1, 7193, Note_on_c, 1, 41, 0
1, 7200, Note_on_c, 0, 69, 0
1, 7200, Note_on_c, 0, 70, 70
1, 7200, Note_on_c, 1, 58, 64
1, 7289, Note_on_c, 0, 70, 0
1, 7289, Note_on_c, 1, 58, 0
1, 7296, Note_on_c, 0, 60, 70
1, 7296, Note_on_c, 1, 46, 64
1, 7302, Note_on_c, 0, 60, 0
1, 7302, Note_on_c, 0, 58, 70
1, 7308, Note_on_c, 0, 58, 0
1, 7308, Note_on_c, 0, 57, 70
1, 7314, Note_on_c, 0, 57, 0
1, 7314, Note_on_c, 0, 58, 70
1, 7385, Note_on_c, 0, 58, 0
1, 7385, Note_on_c, 1, 46, 0
1, 7488, Note_on_c, 0, 65, 75
1, 7488, Note_on_c, 1, 62, 64
1, 7488, Note_on_c, 1, 58, 64
1, 7535, Note_on_c, 1, 62, 0
1, 7535, Note_on_c, 1, 58, 0
1, 7536, Note_on_c, 1, 62, 64
1, 7536, Note_on_c, 1, 58, 64
1, 7555, Note_on_c, 0, 65, 0
1, 7560, Note_on_c, 0, 67, 75
1, 7583, Note_on_c, 0, 67, 0
1, 7583, Note_on_c, 1, 62, 0
1, 7583, Note_on_c, 1, 58, 0
1, 7584, Note_on_c, 0, 65, 75
1, 7584, Note_on_c, 1, 62, 64
1, 7584, Note_on_c, 1, 58, 64
1, 7631, Note_on_c, 1, 62, 0
1, 7631, Note_on_c, 1, 58, 0
1, 7632, Note_on_c, 1, 62, 64
1, 7632, Note_on_c, 1, 58, 64
1, 7651, Note_on_c, 0, 65, 0
1, 7656, Note_on_c, 0, 67, 75
1, 7679, Note_on_c, 0, 67, 0
1, 7679, Note_on_c, 1, 62, 0
1, 7679, Note_on_c, 1, 58, 0
1, 7680, Note_on_c, 0, 65, 75
1, 7680, Note_on_c, 1, 62, 64
1, 7680, Note_on_c, 1, 58, 64
1, 7727, Note_on_c, 1, 62, 0
1, 7727, Note_on_c, 1, 58, 0
1, 7728, Note_on_c, 1, 62, 64
1, 7728, Note_on_c, 1, 58, 64
1, 7747, Note_on_c, 0, 65, 0
1, 7752, Note_on_c, 0, 77, 75
1, 7760, Note_on_c, 0, 77, 0
1, 7760, Note_on_c, 0, 74, 75
1, 7768, Note_on_c, 0, 74, 0
1, 7768, Note_on_c, 0, 70, 75
1, 7775, Note_on_c, 1, 62, 0
1, 7775, Note_on_c, 1, 58, 0
1, 7776, Note_on_c, 0, 70, 0
1, 7776, Note_on_c, 0, 70, 75
1, 7776, Note_on_c, 1, 63, 64
1, 7776, Note_on_c, 1, 60, 64
1, 7823, Note_on_c, 1, 63, 0
1, 7823, Note_on_c, 1, 60, 0
1, 7824, Note_on_c, 1, 63, 64
1, 7824, Note_on_c, 1, 60, 64
1, 7871, Note_on_c, 1, 63, 0
1, 7871, Note_on_c, 1, 60, 0
1, 7872, Note_on_c, 0, 70, 0
1, 7872, Note_on_c, 0, 69, 75
1, 7872, Note_on_c, 1, 63, 64
1, 7872, Note_on_c, 1, 60, 64
1, 7919, Note_on_c, 1, 63, 0
1, 7919, Note_on_c, 1, 60, 0
1, 7920, Note_on_c, 1, 63, 64
1, 7920, Note_on_c, 1, 60, 64
1, 7939, Note_on_c, 0, 69, 0
1, 7944, Note_on_c, 0, 79, 75
1, 7952, Note_on_c, 0, 79, 0
1, 7952, Note_on_c, 0, 75, 75
1, 7960, Note_on_c, 0, 75, 0
1, 7960, Note_on_c, 0, 72, 75
1, 7967, Note_on_c, 1, 63, 0
1, 7967, Note_on_c, 1, 60, 0
1, 7968, Note_on_c, 0, 72, 0
1, 7968, Note_on_c, 0, 70, 75
1, 7968, Note_on_c, 1, 63, 64
1, 7968, Note_on_c, 1, 60, 64
1, 8015, Note_on_c, 1, 63, 0
1, 8015, Note_on_c, 1, 60, 0
1, 8016, Note_on_c, 0, 70, 0
1, 8016, Note_on_c, 0, 69, 75
1, 8016, Note_on_c, 1, 63, 64
1, 8016, Note_on_c, 1, 60, 64
1, 8039, Note_on_c, 0, 69, 0
1, 8040, Note_on_c, 0, 75, 75
1, 8048, Note_on_c, 0, 75, 0
1, 8048, Note_on_c, 0, 72, 75
1, 8056, Note_on_c, 0, 72, 0
1, 8056, Note_on_c, 0, 69, 75
1, 8063, Note_on_c, 1, 63, 0
1, 8063, Note_on_c, 1, 60, 0
1, 8064, Note_on_c, 0, 69, 0
1, 8064, Note_on_c, 0, 67, 75
1, 8064, Note_on_c, 1, 60, 64
1, 8064, Note_on_c, 1, 57, 64
1, 8111, Note_on_c, 1, 60, 0
1, 8111, Note_on_c, 1, 57, 0
1, 8112, Note_on_c, 0, 67, 0
1, 8112, Note_on_c, 0, 65, 75
1, 8112, Note_on_c, 1, 60, 64
1, 8112, Note_on_c, 1, 57, 64
1, 8135, Note_on_c, 0, 65, 0
1, 8136, Note_on_c, 0, 75, 75
1, 8144, Note_on_c, 0, 75, 0
1, 8144, Note_on_c, 0, 72, 75
1, 8152, Note_on_c, 0, 72, 0
1, 8152, Note_on_c, 0, 69, 75
1, 8159, Note_on_c, 1, 60, 0
1, 8159, Note_on_c, 1, 57, 0
1, 8160, Note_on_c, 0, 69, 0
1, 8160, Note_on_c, 0, 67, 75
1, 8160, Note_on_c, 1, 60, 64
1, 8160, Note_on_c, 1, 57, 64
1, 8207, Note_on_c, 1, 60, 0
1, 8207, Note_on_c, 1, 57, 0
1, 8208, Note_on_c, 0, 67, 0
1, 8208, Note_on_c, 0, 65, 75
1, 8208, Note_on_c, 1, 60, 64
1, 8208, Note_on_c, 1, 57, 64
1, 8231, Note_on_c, 0, 65, 0
1, 8232, Note_on_c, 0, 75, 75
1, 8240, Note_on_c, 0, 75, 0
1, 8240, Note_on_c, 0, 72, 75
1, 8248, Note_on_c, 0, 72, 0
1, 8248, Note_on_c, 0, 69, 75
1, 8255, Note_on_c, 1, 60, 0
1, 8255, Note_on_c, 1, 57, 0
1, 8256, Note_on_c, 0, 69, 0
1, 8256, Note_on_c, 0, 67, 75
1, 8256, Note_on_c, 1, 60, 64
1, 8256, Note_on_c, 1, 57, 64
1, 8303, Note_on_c, 1, 60, 0
1, 8303, Note_on_c, 1, 57, 0
1, 8304, Note_on_c, 1, 60, 64
1, 8304, Note_on_c, 1, 57, 64
1, 8323, Note_on_c, 0, 67, 0
1, 8328, Note_on_c, 0, 65, 75
1, 8340, Note_on_c, 0, 65, 0
1, 8340, Note_on_c, 0, 63, 75
1, 8351, Note_on_c, 1, 60, 0
1, 8351, Note_on_c, 1, 57, 0
1, 8352, Note_on_c, 0, 63, 0
1, 8352, Note_on_c, 0, 63, 75
1, 8352, Note_on_c, 1, 58, 64
1, 8399, Note_on_c, 1, 58, 0
1, 8400, Note_on_c, 1, 50, 64
1, 8400, Note_on_c, 1, 46, 64
1, 8419, Note_on_c, 0, 63, 0
1, 8424, Note_on_c, 0, 62, 75
1, 8436, Note_on_c, 0, 62, 0
1, 8436, Note_on_c, 0, 60, 75
1, 8447, Note_on_c, 1, 50, 0
1, 8447, Note_on_c, 1, 46, 0
1, 8448, Note_on_c, 0, 60, 0
1, 8448, Note_on_c, 0, 62, 75
1, 8448, Note_on_c, 1, 50, 64
1, 8448, Note_on_c, 1, 46, 64
1, 8454, Note_on_c, 0, 62, 0
1, 8454, Note_on_c, 0, 60, 75
1, 8460, Note_on_c, 0, 60, 0
1, 8460, Note_on_c, 0, 58, 75
1, 8466, Note_on_c, 0, 58, 0
1, 8466, Note_on_c, 0, 60, 75
1, 8472, Note_on_c, 0, 60, 0
1, 8472, Note_on_c, 0, 58, 75
1, 8495, Note_on_c, 1, 50, 0
1, 8495, Note_on_c, 1, 46, 0
1, 8496, Note_on_c, 1, 50, 64
1, 8496, Note_on_c, 1, 46, 64
1, 8537, Note_on_c, 0, 58, 0
1, 8543, Note_on_c, 1, 50, 0
1, 8543, Note_on_c, 1, 46, 0
1, 8544, Note_on_c, 1, 50, 64
1, 8544, Note_on_c, 1, 46, 64
1, 8633, Note_on_c, 1, 50, 0
1, 8633, Note_on_c, 1, 46, 0
1, 8640, Note_on_c, 0, 65, 75
1, 8640, Note_on_c, 1, 62, 64
1, 8640, Note_on_c, 1, 59, 64
1, 8685, Note_on_c, 1, 62, 0
1, 8685, Note_on_c, 1, 59, 0
1, 8688, Note_on_c, 1, 62, 64
1, 8688, Note_on_c, 1, 59, 64
1, 8707, Note_on_c, 0, 65, 0
1, 8712, Note_on_c, 0, 68, 75
1, 8724, Note_on_c, 0, 68, 0
1, 8724, Note_on_c, 0, 67, 75
1, 8733, Note_on_c, 1, 62, 0
1, 8733, Note_on_c, 1, 59, 0
1, 8736, Note_on_c, 0, 67, 0
1, 8736, Note_on_c, 0, 65, 75
1, 8736, Note_on_c, 1, 62, 64
1, 8736, Note_on_c, 1, 59, 64
1, 8746, Note_on_c, 0, 65, 0
1, 8760, Note_on_c, 0, 77, 91
1, 8781, Note_on_c, 1, 62, 0
1, 8781, Note_on_c, 1, 59, 0
1, 8784, Note_on_c, 1, 62, 64
1, 8784, Note_on_c, 1, 59, 64
1, 8808, Note_on_c, 0, 77, 0
1, 8808, Note_on_c, 0, 74, 75
1, 8829, Note_on_c, 1, 62, 0
1, 8829, Note_on_c, 1, 59, 0
1, 8832, Note_on_c, 1, 62, 64
1, 8832, Note_on_c, 1, 59, 64
1, 8853, Note_on_c, 0, 74, 0
1, 8856, Note_on_c, 0, 71, 75
1, 8877, Note_on_c, 1, 62, 0
1, 8877, Note_on_c, 1, 59, 0
1, 8880, Note_on_c, 1, 62, 64
1, 8880, Note_on_c, 1, 59, 64
1, 8901, Note_on_c, 0, 71, 0
1, 8904, Note_on_c, 0, 68, 75
1, 8925, Note_on_c, 1, 62, 0
1, 8925, Note_on_c, 1, 59, 0
1, 8927, Note_on_c, 0, 68, 0
1, 8928, Note_on_c, 0, 65, 75
1, 8928, Note_on_c, 1, 62, 64
1, 8928, Note_on_c, 1, 59, 64
1, 8973, Note_on_c, 1, 62, 0
1, 8973, Note_on_c, 1, 59, 0
1, 8976, Note_on_c, 1, 62, 64
1, 8976, Note_on_c, 1, 59, 64
1, 8995, Note_on_c, 0, 65, 0
1, 9000, Note_on_c, 0, 68, 75
1, 9012, Note_on_c, 0, 68, 0
1, 9012, Note_on_c, 0, 67, 75
1, 9021, Note_on_c, 1, 62, 0
1, 9021, Note_on_c, 1, 59, 0
1, 9024, Note_on_c, 0, 67, 0
1, 9024, Note_on_c, 0, 65, 75
1, 9024, Note_on_c, 1, 62, 64
1, 9024, Note_on_c, 1, 59, 64
1, 9034, Note_on_c, 0, 65, 0
1, 9048, Note_on_c, 0, 80, 75
1, 9069, Note_on_c, 1, 62, 0
1, 9069, Note_on_c, 1, 59, 0
1, 9071, Note_on_c, 0, 80, 0
1, 9072, Note_on_c, 0, 77, 75
1, 9072, Note_on_c, 1, 62, 64
1, 9072, Note_on_c, 1, 59, 64
1, 9095, Note_on_c, 0, 77, 0
1, 9096, Note_on_c, 0, 74, 75
1, 9117, Note_on_c, 1, 62, 0
1, 9117, Note_on_c, 1, 59, 0
1, 9119, Note_on_c, 0, 74, 0
1, 9120, Note_on_c, 0, 71, 75
1, 9120, Note_on_c, 1, 62, 64
1, 9120, Note_on_c, 1, 59, 64
1, 9143, Note_on_c, 0, 71, 0
1, 9144, Note_on_c, 0, 68, 75
1, 9165, Note_on_c, 1, 62, 0
1, 9165, Note_on_c, 1, 59, 0
1, 9167, Note_on_c, 0, 68, 0
1, 9168, Note_on_c, 0, 67, 75
1, 9168, Note_on_c, 1, 62, 64
1, 9168, Note_on_c, 1, 59, 64
1, 9191, Note_on_c, 0, 67, 0
1, 9192, Note_on_c, 0, 65, 75
1, 9213, Note_on_c, 1, 62, 0
1, 9213, Note_on_c, 1, 59, 0
1, 9215, Note_on_c, 0, 65, 0
1, 9216, Note_on_c, 0, 63, 75
1, 9216, Note_on_c, 1, 60, 64
1, 9239, Note_on_c, 0, 63, 0
1, 9240, Note_on_c, 0, 64, 75
1, 9263, Note_on_c, 0, 64, 0
1, 9264, Note_on_c, 0, 65, 76
1, 9287, Note_on_c, 0, 65, 0
1, 9288, Note_on_c, 0, 66, 76
1, 9305, Note_on_c, 1, 60, 0
1, 9311, Note_on_c, 0, 66, 0
1, 9312, Note_on_c, 0, 67, 77
1, 9336, Note_on_c, 1, 63, 73
1, 9359, Note_on_c, 1, 63, 0
1, 9360, Note_on_c, 1, 62, 72
1, 9383, Note_on_c, 1, 62, 0
1, 9384, Note_on_c, 1, 60, 70
1, 9407, Note_on_c, 1, 60, 0
1, 9408, Note_on_c, 1, 59, 69
1, 9431, Note_on_c, 0, 67, 0
1, 9432, Note_on_c, 0, 68, 78
1, 9455, Note_on_c, 0, 68, 0
1, 9456, Note_on_c, 0, 67, 77
1, 9479, Note_on_c, 0, 67, 0
1, 9480, Note_on_c, 0, 65, 76
1, 9497, Note_on_c, 1, 59, 0
1, 9503, Note_on_c, 0, 65, 0
1, 9504, Note_on_c, 0, 63, 75
1, 9504, Note_on_c, 1, 60, 64
1, 9527, Note_on_c, 0, 63, 0
1, 9528, Note_on_c, 0, 64, 75
1, 9551, Note_on_c, 0, 64, 0
1, 9552, Note_on_c, 0, 65, 76
1, 9575, Note_on_c, 0, 65, 0
1, 9576, Note_on_c, 0, 66, 76
1, 9593, Note_on_c, 1, 60, 0
1, 9599, Note_on_c, 0, 66, 0
1, 9600, Note_on_c, 0, 67, 77
1, 9624, Note_on_c, 1, 63, 73
1, 9647, Note_on_c, 1, 63, 0
1, 9648, Note_on_c, 1, 62, 72
1, 9671, Note_on_c, 1, 62, 0
1, 9672, Note_on_c, 1, 60, 70
1, 9695, Note_on_c, 1, 60, 0
1, 9696, Note_on_c, 1, 59, 69
1, 9719, Note_on_c, 0, 67, 0
1, 9720, Note_on_c, 0, 68, 78
1, 9743, Note_on_c, 0, 68, 0
1, 9744, Note_on_c, 0, 67, 77
1, 9767, Note_on_c, 0, 67, 0
1, 9768, Note_on_c, 0, 65, 76
1, 9785, Note_on_c, 1, 59, 0
1, 9791, Note_on_c, 0, 65, 0
1, 9792, Note_on_c, 0, 64, 75
1, 9792, Note_on_c, 1, 60, 64
1, 9815, Note_on_c, 0, 64, 0
1, 9816, Note_on_c, 0, 65, 75
1, 9839, Note_on_c, 0, 65, 0
1, 9840, Note_on_c, 0, 67, 76
1, 9863, Note_on_c, 0, 67, 0
1, 9864, Note_on_c, 0, 68, 76
1, 9881, Note_on_c, 1, 60, 0
1, 9887, Note_on_c, 0, 68, 0
1, 9888, Note_on_c, 0, 70, 77
1, 9912, Note_on_c, 1, 68, 73
1, 9935, Note_on_c, 1, 68, 0
1, 9936, Note_on_c, 1, 67, 72
1, 9959, Note_on_c, 1, 67, 0
1, 9960, Note_on_c, 1, 65, 70
1, 9983, Note_on_c, 1, 65, 0
1, 9984, Note_on_c, 1, 64, 69
1, 10007, Note_on_c, 0, 70, 0
1, 10008, Note_on_c, 0, 73, 78
1, 10031, Note_on_c, 0, 73, 0
1, 10032, Note_on_c, 0, 72, 77
1, 10055, Note_on_c, 0, 72, 0
1, 10056, Note_on_c, 0, 70, 76
1, 10073, Note_on_c, 1, 64, 0
1, 10079, Note_on_c, 0, 70, 0
1, 10080, Note_on_c, 0, 68, 75
1, 10080, Note_on_c, 1, 65, 64
1, 10103, Note_on_c, 0, 68, 0
1, 10104, Note_on_c, 0, 69, 75
1, 10127, Note_on_c, 0, 69, 0
1, 10128, Note_on_c, 0, 70, 76
1, 10151, Note_on_c, 0, 70, 0
1, 10152, Note_on_c, 0, 71, 76
1, 10169, Note_on_c, 1, 65, 0
1, 10175, Note_on_c, 0, 71, 0
1, 10176, Note_on_c, 0, 72, 77
1, 10200, Note_on_c, 1, 70, 73
1, 10223, Note_on_c, 1, 70, 0
1, 10224, Note_on_c, 1, 69, 72
1, 10247, Note_on_c, 1, 69, 0
1, 10248, Note_on_c, 1, 67, 70
1, 10271, Note_on_c, 1, 67, 0
1, 10272, Note_on_c, 1, 66, 69
1, 10295, Note_on_c, 0, 72, 0
1, 10296, Note_on_c, 0, 75, 78
1, 10319, Note_on_c, 0, 75, 0
1, 10320, Note_on_c, 0, 74, 77
1, 10343, Note_on_c, 0, 74, 0
1, 10344, Note_on_c, 0, 72, 76
1, 10361, Note_on_c, 1, 66, 0
1, 10367, Note_on_c, 0, 72, 0
1, 10368, Note_on_c, 0, 70, 75
1, 10368, Note_on_c, 0, 67, 75
1, 10392, Note_on_c, 1, 55, 64
1, 10415, Note_on_c, 1, 55, 0
1, 10416, Note_on_c, 1, 58, 67
1, 10439, Note_on_c, 1, 58, 0
1, 10440, Note_on_c, 1, 57, 71
1, 10457, Note_on_c, 0, 70, 0
1, 10457, Note_on_c, 0, 67, 0
1, 10463, Note_on_c, 1, 57, 0
1, 10464, Note_on_c, 0, 79, 77
1, 10464, Note_on_c, 0, 70, 77
1, 10464, Note_on_c, 1, 55, 75
1, 10487, Note_on_c, 1, 55, 0
1, 10488, Note_on_c, 1, 53, 72
1, 10511, Note_on_c, 1, 53, 0
1, 10512, Note_on_c, 1, 51, 69
1, 10535, Note_on_c, 1, 51, 0
1, 10536, Note_on_c, 1, 50, 66
1, 10553, Note_on_c, 0, 79, 0
1, 10553, Note_on_c, 0, 70, 0
1, 10559, Note_on_c, 1, 50, 0
1, 10560, Note_on_c, 0, 82, 80
1, 10560, Note_on_c, 0, 79, 80
1, 10560, Note_on_c, 1, 49, 64
1, 10605, Note_on_c, 1, 49, 0
1, 10608, Note_on_c, 1, 61, 64
1, 10627, Note_on_c, 0, 82, 0
1, 10627, Note_on_c, 0, 79, 0
1, 10632, Note_on_c, 0, 70, 80
1, 10632, Note_on_c, 0, 67, 80
1, 10653, Note_on_c, 1, 61, 0
1, 10655, Note_on_c, 0, 70, 0
1, 10655, Note_on_c, 0, 67, 0
1, 10656, Note_on_c, 0, 72, 79
1, 10656, Note_on_c, 0, 67, 64
1, 10656, Note_on_c, 1, 62, 64
1, 10662, Note_on_c, 0, 72, 0
1, 10662, Note_on_c, 0, 70, 79
1, 10668, Note_on_c, 0, 70, 0
1, 10668, Note_on_c, 0, 69, 79
1, 10674, Note_on_c, 0, 69, 0
1, 10674, Note_on_c, 0, 70, 79
1, 10745, Note_on_c, 0, 70, 0
1, 10745, Note_on_c, 0, 67, 0
1, 10745, Note_on_c, 1, 62, 0
1, 10752, Note_on_c, 0, 69, 75
1, 10752, Note_on_c, 0, 66, 75
1, 10752, Note_on_c, 1, 50, 64
1, 10841, Note_on_c, 0, 69, 0
1, 10841, Note_on_c, 0, 66, 0
1, 10841, Note_on_c, 1, 50, 0
1, 10944, Note_on_c, 0, 69, 75
1, 10944, Note_on_c, 1, 58, 64
1, 10944, Note_on_c, 1, 55, 64
1, 10950, Note_on_c, 0, 69, 0
1, 10950, Note_on_c, 0, 67, 75
1, 10956, Note_on_c, 0, 67, 0
1, 10956, Note_on_c, 0, 66, 75
1, 10962, Note_on_c, 0, 66, 0
1, 10962, Note_on_c, 0, 67, 75
1, 10991, Note_on_c, 1, 58, 0
1, 10991, Note_on_c, 1, 55, 0
1, 10992, Note_on_c, 1, 58, 64
1, 10992, Note_on_c, 1, 55, 64
1, 11033, Note_on_c, 0, 67, 0
1, 11039, Note_on_c, 1, 58, 0
1, 11039, Note_on_c, 1, 55, 0
1, 11040, Note_on_c, 1, 58, 64
1, 11040, Note_on_c, 1, 55, 64
1, 11052, Note_on_c, 0, 62, 75
1, 11064, Note_on_c, 0, 62, 0
1, 11064, Note_on_c, 0, 64, 75
1, 11076, Note_on_c, 0, 64, 0
1, 11076, Note_on_c, 0, 66, 75
1, 11087, Note_on_c, 1, 58, 0
1, 11087, Note_on_c, 1, 55, 0
1, 11088, Note_on_c, 0, 66, 0
1, 11088, Note_on_c, 0, 67, 75
1, 11088, Note_on_c, 1, 58, 64
1, 11088, Note_on_c, 1, 55, 64
1, 11100, Note_on_c, 0, 67, 0
1, 11100, Note_on_c, 0, 69, 76
1, 11112, Note_on_c, 0, 69, 0
1, 11112, Note_on_c, 0, 70, 76
1, 11124, Note_on_c, 0, 70, 0
1, 11124, Note_on_c, 0, 72, 76
1, 11135, Note_on_c, 1, 58, 0
1, 11135, Note_on_c, 1, 55, 0
1, 11136, Note_on_c, 0, 72, 0
1, 11136, Note_on_c, 0, 74, 76
1, 11136, Note_on_c, 1, 58, 64
1, 11136, Note_on_c, 1, 55, 64
1, 11148, Note_on_c, 0, 74, 0
1, 11148, Note_on_c, 0, 76, 77
1, 11160, Note_on_c, 0, 76, 0
1, 11160, Note_on_c, 0, 78, 77
1, 11172, Note_on_c, 0, 78, 0
1, 11172, Note_on_c, 0, 79, 77
1, 11183, Note_on_c, 1, 58, 0
1, 11183, Note_on_c, 1, 55, 0
1, 11184, Note_on_c, 0, 79, 0
1, 11184, Note_on_c, 0, 81, 77
1, 11184, Note_on_c, 1, 58, 64
1, 11184, Note_on_c, 1, 55, 64
1, 11196, Note_on_c, 0, 81, 0
1, 11196, Note_on_c, 0, 82, 78
1, 11208, Note_on_c, 0, 82, 0
1, 11208, Note_on_c, 0, 84, 78
1, 11220, Note_on_c, 0, 84, 0
1, 11220, Note_on_c, 0, 86, 78
1, 11231, Note_on_c, 1, 58, 0
1, 11231, Note_on_c, 1, 55, 0
1, 11232, Note_on_c, 0, 86, 0
1, 11232, Note_on_c, 0, 84, 78
1, 11232, Note_on_c, 1, 62, 64
1, 11232, Note_on_c, 1, 57, 64
1, 11232, Note_on_c, 1, 54, 64
1, 11279, Note_on_c, 1, 62, 0
1, 11279, Note_on_c, 1, 57, 0
1, 11279, Note_on_c, 1, 54, 0
1, 11280, Note_on_c, 1, 62, 64
1, 11280, Note_on_c, 1, 57, 64
1, 11280, Note_on_c, 1, 54, 64
1, 11327, Note_on_c, 1, 62, 0
1, 11327, Note_on_c, 1, 57, 0
1, 11327, Note_on_c, 1, 54, 0
1, 11328, Note_on_c, 1, 62, 64
1, 11328, Note_on_c, 1, 57, 64
1, 11328, Note_on_c, 1, 54, 64
1, 11340, Note_on_c, 0, 84, 0
1, 11340, Note_on_c, 0, 82, 78
1, 11352, Note_on_c, 0, 82, 0
1, 11352, Note_on_c, 0, 81, 78
1, 11375, Note_on_c, 0, 81, 0
1, 11375, Note_on_c, 1, 62, 0
1, 11375, Note_on_c, 1, 57, 0
1, 11375, Note_on_c, 1, 54, 0
1, 11376, Note_on_c, 1, 62, 64
1, 11376, Note_on_c, 1, 57, 64
1, 11376, Note_on_c, 1, 54, 64
1, 11388, Note_on_c, 0, 79, 77
1, 11400, Note_on_c, 0, 79, 0
1, 11400, Note_on_c, 0, 78, 77
1, 11423, Note_on_c, 0, 78, 0
1, 11423, Note_on_c, 1, 62, 0
1, 11423, Note_on_c, 1, 57, 0
1, 11423, Note_on_c, 1, 54, 0
1, 11424, Note_on_c, 1, 62, 64
1, 11424, Note_on_c, 1, 57, 64
1, 11424, Note_on_c, 1, 54, 64
1, 11436, Note_on_c, 0, 75, 76
1, 11448, Note_on_c, 0, 75, 0
1, 11448, Note_on_c, 0, 74, 76
1, 11471, Note_on_c, 0, 74, 0
1, 11471, Note_on_c, 1, 62, 0
1, 11471, Note_on_c, 1, 57, 0
1, 11471, Note_on_c, 1, 54, 0
1, 11472, Note_on_c, 1, 62, 64
1, 11472, Note_on_c, 1, 57, 64
1, 11472, Note_on_c, 1, 54, 64
1, 11484, Note_on_c, 0, 72, 75
1, 11496, Note_on_c, 0, 72, 0
1, 11496, Note_on_c, 0, 69, 75
1, 11519, Note_on_c, 0, 69, 0
1, 11519, Note_on_c, 1, 62, 0
1, 11519, Note_on_c, 1, 57, 0
1, 11519, Note_on_c, 1, 54, 0
1, 11520, Note_on_c, 0, 70, 75
1, 11520, Note_on_c, 1, 58, 64
1, 11520, Note_on_c, 1, 55, 64
1, 11567, Note_on_c, 1, 58, 0
1, 11567, Note_on_c, 1, 55, 0
1, 11568, Note_on_c, 0, 70, 0
1, 11568, Note_on_c, 0, 67, 75
1, 11568, Note_on_c, 1, 58, 64
1, 11568, Note_on_c, 1, 55, 64
1, 11613, Note_on_c, 0, 67, 0
1, 11615, Note_on_c, 1, 58, 0
1, 11615, Note_on_c, 1, 55, 0
1, 11616, Note_on_c, 1, 58, 64
1, 11616, Note_on_c, 1, 55, 64
1, 11628, Note_on_c, 0, 62, 75
1, 11640, Note_on_c, 0, 62, 0
1, 11640, Note_on_c, 0, 64, 75
1, 11652, Note_on_c, 0, 64, 0
1, 11652, Note_on_c, 0, 66, 75
1, 11663, Note_on_c, 1, 58, 0
1, 11663, Note_on_c, 1, 55, 0
1, 11664, Note_on_c, 0, 66, 0
1, 11664, Note_on_c, 0, 67, 75
1, 11664, Note_on_c, 1, 58, 64
1, 11664, Note_on_c, 1, 55, 64
1, 11676, Note_on_c, 0, 67, 0
1, 11676, Note_on_c, 0, 69, 76
1, 11688, Note_on_c, 0, 69, 0
1, 11688, Note_on_c, 0, 70, 76
1, 11700, Note_on_c, 0, 70, 0
1, 11700, Note_on_c, 0, 72, 76
1, 11711, Note_on_c, 1, 58, 0
1, 11711, Note_on_c, 1, 55, 0
1, 11712, Note_on_c, 0, 72, 0
1, 11712, Note_on_c, 0, 74, 76
1, 11712, Note_on_c, 1, 58, 64
1, 11712, Note_on_c, 1, 55, 64
1, 11724, Note_on_c, 0, 74, 0
1, 11724, Note_on_c, 0, 76, 77
1, 11736, Note_on_c, 0, 76, 0
1, 11736, Note_on_c, 0, 78, 77
1, 11748, Note_on_c, 0, 78, 0
1, 11748, Note_on_c, 0, 79, 77
1, 11759, Note_on_c, 1, 58, 0
1, 11759, Note_on_c, 1, 55, 0
1, 11760, Note_on_c, 0, 79, 0
1, 11760, Note_on_c, 0, 81, 77
1, 11760, Note_on_c, 1, 58, 64
1, 11760, Note_on_c, 1, 55, 64
1, 11772, Note_on_c, 0, 81, 0
1, 11772, Note_on_c, 0, 82, 78
1, 11784, Note_on_c, 0, 82, 0
1, 11784, Note_on_c, 0, 84, 78
1, 11796, Note_on_c, 0, 84, 0
1, 11796, Note_on_c, 0, 86, 78
1, 11807, Note_on_c, 1, 58, 0
1, 11807, Note_on_c, 1, 55, 0
1, 11808, Note_on_c, 0, 86, 0
1, 11808, Note_on_c, 0, 84, 78
1, 11808, Note_on_c, 1, 62, 64
1, 11808, Note_on_c, 1, 57, 64
1, 11808, Note_on_c, 1, 54, 64
1, 11855, Note_on_c, 1, 62, 0
1, 11855, Note_on_c, 1, 57, 0
1, 11855, Note_on_c, 1, 54, 0
1, 11856, Note_on_c, 1, 62, 64
1, 11856, Note_on_c, 1, 57, 64
1, 11856, Note_on_c, 1, 54, 64
1, 11903, Note_on_c, 1, 62, 0
1, 11903, Note_on_c, 1, 57, 0
1, 11903, Note_on_c, 1, 54, 0
1, 11904, Note_on_c, 1, 62, 64
1, 11904, Note_on_c, 1, 57, 64
1, 11904, Note_on_c, 1, 54, 64
1, 11916, Note_on_c, 0, 84, 0
1, 11916, Note_on_c, 0, 82, 78
1, 11928, Note_on_c, 0, 82, 0
1, 11928, Note_on_c, 0, 81, 78
1, 11951, Note_on_c, 0, 81, 0
1, 11951, Note_on_c, 1, 62, 0
1, 11951, Note_on_c, 1, 57, 0
1, 11951, Note_on_c, 1, 54, 0
1, 11952, Note_on_c, 1, 62, 64
1, 11952, Note_on_c, 1, 57, 64
1, 11952, Note_on_c, 1, 54, 64
1, 11964, Note_on_c, 0, 79, 77
1, 11976, Note_on_c, 0, 79, 0
1, 11976, Note_on_c, 0, 78, 77
1, 11999, Note_on_c, 0, 78, 0
1, 11999, Note_on_c, 1, 62, 0
1, 11999, Note_on_c, 1, 57, 0
1, 11999, Note_on_c, 1, 54, 0
1, 12000, Note_on_c, 1, 62, 64
1, 12000, Note_on_c, 1, 57, 64
1, 12000, Note_on_c, 1, 54, 64
1, 12012, Note_on_c, 0, 75, 76
1, 12024, Note_on_c, 0, 75, 0
1, 12024, Note_on_c, 0, 74, 76
1, 12047, Note_on_c, 0, 74, 0
1, 12047, Note_on_c, 1, 62, 0
1, 12047, Note_on_c, 1, 57, 0
1, 12047, Note_on_c, 1, 54, 0
1, 12048, Note_on_c, 1, 62, 64
1, 12048, Note_on_c, 1, 57, 64
1, 12048, Note_on_c, 1, 54, 64
1, 12060, Note_on_c, 0, 72, 75
1, 12072, Note_on_c, 0, 72, 0
1, 12072, Note_on_c, 0, 69, 75
1, 12095, Note_on_c, 0, 69, 0
1, 12095, Note_on_c, 1, 62, 0
1, 12095, Note_on_c, 1, 57, 0
1, 12095, Note_on_c, 1, 54, 0
1, 12096, Note_on_c, 0, 70, 75
1, 12096, Note_on_c, 1, 62, 64
1, 12096, Note_on_c, 1, 58, 64
1, 12096, Note_on_c, 1, 55, 64
1, 12106, Note_on_c, 0, 70, 0
1, 12120, Note_on_c, 0, 79, 91
1, 12143, Note_on_c, 1, 62, 0
1, 12143, Note_on_c, 1, 58, 0
1, 12143, Note_on_c, 1, 55, 0
1, 12144, Note_on_c, 1, 62, 64
1, 12144, Note_on_c, 1, 58, 64
1, 12144, Note_on_c, 1, 55, 64
1, 12168, Note_on_c, 0, 79, 0
1, 12168, Note_on_c, 0, 74, 75
1, 12191, Note_on_c, 1, 62, 0
1, 12191, Note_on_c, 1, 58, 0
1, 12191, Note_on_c, 1, 55, 0
1, 12192, Note_on_c, 1, 62, 64
1, 12192, Note_on_c, 1, 58, 64
1, 12192, Note_on_c, 1, 55, 64
1, 12213, Note_on_c, 0, 74, 0
1, 12216, Note_on_c, 0, 70, 75
1, 12239, Note_on_c, 1, 62, 0
1, 12239, Note_on_c, 1, 58, 0
1, 12239, Note_on_c, 1, 55, 0
1, 12240, Note_on_c, 1, 62, 64
1, 12240, Note_on_c, 1, 58, 64
1, 12240, Note_on_c, 1, 55, 64
1, 12261, Note_on_c, 0, 70, 0
1, 12264, Note_on_c, 0, 67, 75
1, 12287, Note_on_c, 1, 62, 0
1, 12287, Note_on_c, 1, 58, 0
1, 12287, Note_on_c, 1, 55, 0
1, 12288, Note_on_c, 1, 55, 64
1, 12288, Note_on_c, 1, 46, 64
1, 12309, Note_on_c, 0, 67, 0
1, 12312, Note_on_c, 0, 62, 75
1, 12335, Note_on_c, 1, 55, 0
1, 12335, Note_on_c, 1, 46, 0
1, 12336, Note_on_c, 1, 55, 64
1, 12336, Note_on_c, 1, 46, 64
1, 12357, Note_on_c, 0, 62, 0
1, 12360, Note_on_c, 0, 62, 75
1, 12383, Note_on_c, 0, 62, 0
1, 12383, Note_on_c, 1, 55, 0
1, 12383, Note_on_c, 1, 46, 0
1, 12384, Note_on_c, 0, 63, 75
1, 12384, Note_on_c, 1, 48, 64
1, 12407, Note_on_c, 0, 63, 0
1, 12408, Note_on_c, 0, 66, 75
1, 12429, Note_on_c, 1, 48, 0
1, 12432, Note_on_c, 1, 51, 64
1, 12453, Note_on_c, 0, 66, 0
1, 12456, Note_on_c, 0, 69, 77
1, 12477, Note_on_c, 1, 51, 0
1, 12480, Note_on_c, 1, 54, 64
1, 12501, Note_on_c, 0, 69, 0
1, 12504, Note_on_c, 0, 72, 78
1, 12525, Note_on_c, 1, 54, 0
1, 12528, Note_on_c, 1, 57, 64
1, 12549, Note_on_c, 0, 72, 0
1, 12552, Note_on_c, 0, 75, 80
1, 12573, Note_on_c, 1, 57, 0
1, 12576, Note_on_c, 1, 60, 64
1, 12599, Note_on_c, 0, 75, 0
1, 12600, Note_on_c, 0, 66, 78
1, 12623, Note_on_c, 0, 66, 0
1, 12624, Note_on_c, 0, 66, 77
1, 12647, Note_on_c, 0, 66, 0
1, 12648, Note_on_c, 0, 66, 76
1, 12665, Note_on_c, 1, 60, 0
1, 12671, Note_on_c, 0, 66, 0
1, 12672, Note_on_c, 0, 67, 75
1, 12672, Note_on_c, 1, 58, 64
1, 12695, Note_on_c, 0, 67, 0
1, 12696, Note_on_c, 0, 78, 75
1, 12720, Note_on_c, 0, 78, 0
1, 12720, Note_on_c, 0, 79, 75
1, 12730, Note_on_c, 0, 79, 0
1, 12744, Note_on_c, 0, 74, 75
1, 12761, Note_on_c, 1, 58, 0
1, 12768, Note_on_c, 0, 74, 0
1, 12768, Note_on_c, 0, 75, 75
1, 12778, Note_on_c, 0, 75, 0
1, 12792, Note_on_c, 0, 73, 75
1, 12816, Note_on_c, 0, 73, 0
1, 12816, Note_on_c, 0, 74, 75
1, 12826, Note_on_c, 0, 74, 0
1, 12840, Note_on_c, 0, 69, 75
1, 12864, Note_on_c, 0, 69, 0
1, 12864, Note_on_c, 0, 70, 75
1, 12874, Note_on_c, 0, 70, 0
1, 12888, Note_on_c, 0, 66, 75
1, 12912, Note_on_c, 0, 66, 0
1, 12912, Note_on_c, 0, 67, 75
1, 12935, Note_on_c, 0, 67, 0
1, 12936, Note_on_c, 0, 61, 75
1, 12960, Note_on_c, 0, 61, 0
1, 12960, Note_on_c, 0, 62, 75
1, 12960, Note_on_c, 1, 55, 64
1, 12960, Note_on_c, 1, 50, 64
1, 13005, Note_on_c, 1, 55, 0
1, 13005, Note_on_c, 1, 50, 0
1, 13008, Note_on_c, 1, 55, 64
1, 13008, Note_on_c, 1, 50, 64
1, 13049, Note_on_c, 0, 62, 0
1, 13053, Note_on_c, 1, 55, 0
1, 13053, Note_on_c, 1, 50, 0
1, 13056, Note_on_c, 0, 70, 75
1, 13056, Note_on_c, 1, 54, 64
1, 13056, Note_on_c, 1, 50, 64
1, 13062, Note_on_c, 0, 70, 0
1, 13062, Note_on_c, 0, 69, 75
1, 13068, Note_on_c, 0, 69, 0
1, 13068, Note_on_c, 0, 70, 75
1, 13074, Note_on_c, 0, 70, 0
1, 13074, Note_on_c, 0, 69, 75
1, 13080, Note_on_c, 0, 69, 0
1, 13080, Note_on_c, 0, 70, 75
1, 13086, Note_on_c, 0, 70, 0
1, 13086, Note_on_c, 0, 69, 75
1, 13092, Note_on_c, 0, 69, 0
1, 13092, Note_on_c, 0, 70, 75
1, 13098, Note_on_c, 0, 70, 0
1, 13098, Note_on_c, 0, 69, 75
1, 13101, Note_on_c, 1, 54, 0
1, 13101, Note_on_c, 1, 50, 0
1, 13104, Note_on_c, 0, 69, 0
1, 13104, Note_on_c, 0, 70, 75
1, 13104, Note_on_c, 1, 54, 64
1, 13104, Note_on_c, 1, 50, 64
1, 13110, Note_on_c, 0, 70, 0
1, 13110, Note_on_c, 0, 69, 75
1, 13116, Note_on_c, 0, 69, 0
1, 13116, Note_on_c, 0, 70, 75
1, 13122, Note_on_c, 0, 70, 0
1, 13122, Note_on_c, 0, 69, 75
1, 13128, Note_on_c, 0, 69, 0
1, 13128, Note_on_c, 0, 70, 75
1, 13134, Note_on_c, 0, 70, 0
1, 13134, Note_on_c, 0, 69, 75
1, 13140, Note_on_c, 0, 69, 0
1, 13140, Note_on_c, 0, 70, 75
1, 13146, Note_on_c, 0, 70, 0
1, 13146, Note_on_c, 0, 69, 75
1, 13149, Note_on_c, 1, 54, 0
1, 13149, Note_on_c, 1, 50, 0
1, 13152, Note_on_c, 0, 69, 0
1, 13152, Note_on_c, 0, 70, 75
1, 13152, Note_on_c, 1, 54, 64
1, 13152, Note_on_c, 1, 50, 64
1, 13158, Note_on_c, 0, 70, 0
1, 13158, Note_on_c, 0, 69, 75
1, 13164, Note_on_c, 0, 69, 0
1, 13164, Note_on_c, 0, 70, 75
1, 13170, Note_on_c, 0, 70, 0
1, 13170, Note_on_c, 0, 69, 75
1, 13176, Note_on_c, 0, 69, 0
1, 13176, Note_on_c, 0, 70, 75
1, 13182, Note_on_c, 0, 70, 0
1, 13182, Note_on_c, 0, 69, 75
1, 13188, Note_on_c, 0, 69, 0
1, 13188, Note_on_c, 0, 70, 75
1, 13193, Note_on_c, 0, 70, 0
1, 13193, Note_on_c, 0, 69, 75
1, 13197, Note_on_c, 1, 54, 0
1, 13197, Note_on_c, 1, 50, 0
1, 13198, Note_on_c, 0, 69, 0
1, 13198, Note_on_c, 0, 70, 75
1, 13200, Note_on_c, 1, 54, 64
1, 13200, Note_on_c, 1, 50, 64
1, 13203, Note_on_c, 0, 70, 0
1, 13203, Note_on_c, 0, 69, 75
1, 13208, Note_on_c, 0, 69, 0
1, 13208, Note_on_c, 0, 70, 75
1, 13213, Note_on_c, 0, 70, 0
1, 13213, Note_on_c, 0, 69, 75
1, 13218, Note_on_c, 0, 69, 0
1, 13218, Note_on_c, 0, 70, 75
1, 13223, Note_on_c, 0, 70, 0
1, 13223, Note_on_c, 0, 69, 75
1, 13228, Note_on_c, 0, 69, 0
1, 13228, Note_on_c, 0, 67, 75
1, 13238, Note_on_c, 0, 67, 0
1, 13238, Note_on_c, 0, 69, 75
1, 13245, Note_on_c, 1, 54, 0
1, 13245, Note_on_c, 1, 50, 0
1, 13248, Note_on_c, 0, 69, 0
1, 13248, Note_on_c, 0, 67, 75
1, 13248, Note_on_c, 1, 55, 64
1, 13271, Note_on_c, 0, 67, 0
1, 13271, Note_on_c, 1, 55, 0
1, 13272, Note_on_c, 0, 67, 75
1, 13272, Note_on_c, 1, 58, 64
1, 13295, Note_on_c, 0, 67, 0
1, 13295, Note_on_c, 1, 58, 0
1, 13296, Note_on_c, 0, 66, 75
1, 13296, Note_on_c, 1, 57, 64
1, 13319, Note_on_c, 0, 66, 0
1, 13319, Note_on_c, 1, 57, 0
1, 13320, Note_on_c, 0, 69, 75
1, 13320, Note_on_c, 1, 60, 64
1, 13343, Note_on_c, 0, 69, 0
1, 13343, Note_on_c, 1, 60, 0
1, 13344, Note_on_c, 0, 67, 75
1, 13344, Note_on_c, 1, 58, 64
1, 13367, Note_on_c, 0, 67, 0
1, 13367, Note_on_c, 1, 58, 0
1, 13368, Note_on_c, 0, 70, 75
1, 13368, Note_on_c, 1, 67, 64
1, 13391, Note_on_c, 0, 70, 0
1, 13391, Note_on_c, 1, 67, 0
1, 13392, Note_on_c, 0, 69, 75
1, 13392, Note_on_c, 1, 66, 64
1, 13415, Note_on_c, 0, 69, 0
1, 13415, Note_on_c, 1, 66, 0
1, 13416, Note_on_c, 0, 72, 75
1, 13416, Note_on_c, 1, 69, 64
1, 13439, Note_on_c, 0, 72, 0
1, 13439, Note_on_c, 1, 69, 0
1, 13440, Note_on_c, 0, 70, 75
1, 13440, Note_on_c, 1, 67, 64
1, 13463, Note_on_c, 0, 70, 0
1, 13464, Note_on_c, 0, 75, 75
1, 13464, Note_on_c, 0, 72, 75
1, 13487, Note_on_c, 0, 75, 0
1, 13487, Note_on_c, 0, 72, 0
1, 13488, Note_on_c, 0, 74, 75
1, 13488, Note_on_c, 0, 70, 75
1, 13511, Note_on_c, 0, 74, 0
1, 13511, Note_on_c, 0, 70, 0
1, 13512, Note_on_c, 0, 78, 75
1, 13512, Note_on_c, 0, 69, 75
1, 13529, Note_on_c, 1, 67, 0
1, 13535, Note_on_c, 0, 78, 0
1, 13535, Note_on_c, 0, 69, 0
1, 13536, Note_on_c, 1, 55, 70
1, 13536, Note_on_c, 1, 50, 70
1, 13536, Note_on_c, 1, 46, 70
1, 13584, Note_on_c, 0, 81, 64
1, 13590, Note_on_c, 0, 81, 0
1, 13590, Note_on_c, 0, 79, 64
1, 13596, Note_on_c, 0, 79, 0
1, 13596, Note_on_c, 0, 78, 64
1, 13602, Note_on_c, 0, 78, 0
1, 13602, Note_on_c, 0, 79, 64
1, 13625, Note_on_c, 1, 55, 0
1, 13625, Note_on_c, 1, 50, 0
1, 13625, Note_on_c, 1, 46, 0
1, 13629, Note_on_c, 0, 79, 0
1, 13632, Note_on_c, 1, 55, 75
1, 13632, Note_on_c, 1, 51, 75
1, 13632, Note_on_c, 1, 48, 75
1, 13680, Note_on_c, 0, 81, 75
1, 13686, Note_on_c, 0, 81, 0
1, 13686, Note_on_c, 0, 79, 75
1, 13692, Note_on_c, 0, 79, 0
1, 13692, Note_on_c, 0, 78, 75
1, 13698, Note_on_c, 0, 78, 0
1, 13698, Note_on_c, 0, 79, 75
1, 13721, Note_on_c, 1, 55, 0
1, 13721, Note_on_c, 1, 51, 0
1, 13721, Note_on_c, 1, 48, 0
1, 13725, Note_on_c, 0, 79, 0
1, 13728, Note_on_c, 1, 55, 80
1, 13728, Note_on_c, 1, 52, 80
1, 13728, Note_on_c, 1, 49, 80
1, 13776, Note_on_c, 0, 81, 80
1, 13782, Note_on_c, 0, 81, 0
1, 13782, Note_on_c, 0, 79, 80
1, 13788, Note_on_c, 0, 79, 0
1, 13788, Note_on_c, 0, 78, 80
1, 13794, Note_on_c, 0, 78, 0
1, 13794, Note_on_c, 0, 79, 80
1, 13817, Note_on_c, 1, 55, 0
1, 13817, Note_on_c, 1, 52, 0
1, 13817, Note_on_c, 1, 49, 0
1, 13821, Note_on_c, 0, 79, 0
1, 13824, Note_on_c, 1, 58, 86
1, 13824, Note_on_c, 1, 55, 86
1, 13824, Note_on_c, 1, 50, 86
1, 13872, Note_on_c, 0, 79, 86
1, 13913, Note_on_c, 1, 58, 0
1, 13913, Note_on_c, 1, 55, 0
1, 13913, Note_on_c, 1, 50, 0
1, 13917, Note_on_c, 0, 79, 0
1, 13920, Note_on_c, 0, 62, 75
1, 13920, Note_on_c, 1, 58, 70
1, 13920, Note_on_c, 1, 50, 70
1, 13967, Note_on_c, 1, 58, 0
1, 13967, Note_on_c, 1, 50, 0
1, 13968, Note_on_c, 1, 58, 70
1, 13968, Note_on_c, 1, 50, 70
1, 14014, Note_on_c, 0, 62, 0
1, 14015, Note_on_c, 1, 58, 0
1, 14015, Note_on_c, 1, 50, 0
1, 14016, Note_on_c, 0, 70, 75
1, 14016, Note_on_c, 1, 54, 70
1, 14016, Note_on_c, 1, 50, 70
1, 14022, Note_on_c, 0, 70, 0
1, 14022, Note_on_c, 0, 69, 75
1, 14028, Note_on_c, 0, 69, 0
1, 14028, Note_on_c, 0, 70, 75
1, 14034, Note_on_c, 0, 70, 0
1, 14034, Note_on_c, 0, 69, 75
1, 14040, Note_on_c, 0, 69, 0
1, 14040, Note_on_c, 0, 70, 75
1, 14046, Note_on_c, 0, 70, 0
1, 14046, Note_on_c, 0, 69, 75
1, 14052, Note_on_c, 0, 69, 0
1, 14052, Note_on_c, 0, 70, 75
1, 14057, Note_on_c, 0, 70, 0
1, 14057, Note_on_c, 0, 69, 75
1, 14062, Note_on_c, 0, 69, 0
1, 14062, Note_on_c, 0, 70, 75
1, 14063, Note_on_c, 1, 54, 0
1, 14063, Note_on_c, 1, 50, 0
1, 14064, Note_on_c, 1, 54, 67
1, 14064, Note_on_c, 1, 50, 67
1, 14067, Note_on_c, 0, 70, 0
1, 14067, Note_on_c, 0, 69, 75
1, 14072, Note_on_c, 0, 69, 0
1, 14072, Note_on_c, 0, 70, 75
1, 14077, Note_on_c, 0, 70, 0
1, 14077, Note_on_c, 0, 69, 75
1, 14082, Note_on_c, 0, 69, 0
1, 14082, Note_on_c, 0, 70, 75
1, 14087, Note_on_c, 0, 70, 0
1, 14087, Note_on_c, 0, 69, 75
1, 14092, Note_on_c, 0, 69, 0
1, 14092, Note_on_c, 0, 70, 75
1, 14097, Note_on_c, 0, 70, 0
1, 14097, Note_on_c, 0, 69, 75
1, 14102, Note_on_c, 0, 69, 0
1, 14102, Note_on_c, 0, 67, 75
1, 14107, Note_on_c, 0, 67, 0
1, 14107, Note_on_c, 0, 69, 75
1, 14111, Note_on_c, 1, 54, 0
1, 14111, Note_on_c, 1, 50, 0
1, 14112, Note_on_c, 0, 69, 0
1, 14112, Note_on_c, 0, 67, 70
1, 14112, Note_on_c, 1, 55, 64
1, 14112, Note_on_c, 1, 43, 64
1, 14182, Note_on_c, 0, 67, 0
1, 14184, Note_on_c, 0, 74, 70
1, 14192, Note_on_c, 0, 74, 0
1, 14192, Note_on_c, 0, 70, 70
1, 14200, Note_on_c, 0, 70, 0
1, 14200, Note_on_c, 0, 67, 70
1, 14206, Note_on_c, 1, 55, 0
1, 14206, Note_on_c, 1, 43, 0
1, 14208, Note_on_c, 0, 67, 0
1, 14208, Note_on_c, 0, 62, 70
1, 14256, Note_on_c, 1, 58, 64
1, 14256, Note_on_c, 1, 50, 64
1, 14301, Note_on_c, 1, 58, 0
1, 14304, Note_on_c, 1, 57, 64
1, 14327, Note_on_c, 0, 62, 0
1, 14328, Note_on_c, 0, 61, 70
1, 14349, Note_on_c, 1, 57, 0
1, 14352, Note_on_c, 1, 54, 64
1, 14373, Note_on_c, 0, 61, 0
1, 14376, Note_on_c, 0, 60, 70
1, 14397, Note_on_c, 1, 54, 0
1, 14400, Note_on_c, 1, 55, 64
1, 14423, Note_on_c, 0, 60, 0
1, 14424, Note_on_c, 0, 58, 70
1, 14434, Note_on_c, 0, 58, 0
1, 14445, Note_on_c, 1, 55, 0
1, 14448, Note_on_c, 1, 58, 64
1, 14472, Note_on_c, 0, 74, 70
1, 14480, Note_on_c, 0, 74, 0
1, 14480, Note_on_c, 0, 70, 70
1, 14488, Note_on_c, 0, 70, 0
1, 14488, Note_on_c, 0, 67, 70
1, 14489, Note_on_c, 1, 50, 0
1, 14495, Note_on_c, 1, 58, 0
1, 14496, Note_on_c, 0, 67, 0
1, 14496, Note_on_c, 0, 62, 70
1, 14544, Note_on_c, 1, 58, 64
1, 14544, Note_on_c, 1, 50, 64
1, 14589, Note_on_c, 1, 58, 0
1, 14592, Note_on_c, 1, 57, 64
1, 14615, Note_on_c, 0, 62, 0
1, 14616, Note_on_c, 0, 61, 70
1, 14637, Note_on_c, 1, 57, 0
1, 14640, Note_on_c, 1, 54, 64
1, 14661, Note_on_c, 0, 61, 0
1, 14664, Note_on_c, 0, 60, 70
1, 14681, Note_on_c, 1, 50, 0
1, 14685, Note_on_c, 1, 54, 0
1, 14687, Note_on_c, 0, 60, 0
1, 14688, Note_on_c, 0, 58, 70
1, 14688, Note_on_c, 1, 55, 64
1, 14711, Note_on_c, 0, 58, 0
1, 14712, Note_on_c, 0, 60, 71
1, 14735, Note_on_c, 0, 60, 0
1, 14736, Note_on_c, 0, 61, 72
1, 14759, Note_on_c, 0, 61, 0
1, 14760, Note_on_c, 0, 62, 73
1, 14777, Note_on_c, 1, 55, 0
1, 14783, Note_on_c, 0, 62, 0
1, 14784, Note_on_c, 0, 63, 75
1, 14784, Note_on_c, 1, 55, 75
1, 14784, Note_on_c, 1, 48, 75
1, 14829, Note_on_c, 0, 63, 0
1, 14832, Note_on_c, 0, 62, 72
1, 14844, Note_on_c, 0, 62, 0
1, 14844, Note_on_c, 0, 60, 71
1, 14856, Note_on_c, 0, 60, 0
1, 14856, Note_on_c, 0, 58, 71
1, 14868, Note_on_c, 0, 58, 0
1, 14868, Note_on_c, 0, 57, 70
1, 14873, Note_on_c, 1, 55, 0
1, 14873, Note_on_c, 1, 48, 0
1, 14880, Note_on_c, 0, 57, 0
1, 14880, Note_on_c, 0, 55, 70
1, 14880, Note_on_c, 1, 50, 64
1, 14925, Note_on_c, 0, 55, 0
1, 14925, Note_on_c, 1, 50, 0
1, 14928, Note_on_c, 0, 57, 70
1, 14928, Note_on_c, 1, 38, 64
1, 14934, Note_on_c, 0, 57, 0
1, 14934, Note_on_c, 0, 58, 70
1, 14940, Note_on_c, 0, 58, 0
1, 14940, Note_on_c, 0, 57, 70
1, 14946, Note_on_c, 0, 57, 0
1, 14946, Note_on_c, 0, 58, 70
1, 14951, Note_on_c, 0, 58, 0
1, 14951, Note_on_c, 0, 57, 70
1, 14956, Note_on_c, 0, 57, 0
1, 14956, Note_on_c, 0, 58, 70
1, 14961, Note_on_c, 0, 58, 0
1, 14961, Note_on_c, 0, 57, 70
1, 14966, Note_on_c, 0, 57, 0
1, 14966, Note_on_c, 0, 55, 70
1, 14971, Note_on_c, 0, 55, 0
1, 14971, Note_on_c, 0, 57, 70
1, 14973, Note_on_c, 1, 38, 0
1, 14976, Note_on_c, 0, 57, 0
1, 14976, Note_on_c, 0, 55, 70
1, 14976, Note_on_c, 1, 43, 64
1, 14976, Note_on_c, 1, 31, 64
1, 15043, Note_on_c, 0, 55, 0
1, 15048, Note_on_c, 0, 55, 68
1, 15060, Note_on_c, 0, 55, 0
1, 15060, Note_on_c, 0, 57, 68
1, 15065, Note_on_c, 1, 43, 0
1, 15065, Note_on_c, 1, 31, 0
1, 15072, Note_on_c, 0, 57, 0
1, 15072, Note_on_c, 0, 58, 68
1, 15072, Note_on_c, 1, 46, 62
1, 15072, Note_on_c, 1, 34, 62
1, 15139, Note_on_c, 0, 58, 0
1, 15144, Note_on_c, 0, 58, 66
1, 15156, Note_on_c, 0, 58, 0
1, 15156, Note_on_c, 0, 60, 66
1, 15161, Note_on_c, 1, 46, 0
1, 15161, Note_on_c, 1, 34, 0
1, 15168, Note_on_c, 0, 60, 0
1, 15168, Note_on_c, 0, 62, 66
1, 15168, Note_on_c, 1, 50, 60
1, 15168, Note_on_c, 1, 38, 60
1, 15235, Note_on_c, 0, 62, 0
1, 15240, Note_on_c, 0, 64, 64
1, 15252, Note_on_c, 0, 64, 0
1, 15252, Note_on_c, 0, 66, 64
1, 15257, Note_on_c, 1, 50, 0
1, 15257, Note_on_c, 1, 38, 0
1, 15264, Note_on_c, 0, 66, 0
1, 15264, Note_on_c, 0, 67, 64
1, 15264, Note_on_c, 1, 55, 58
1, 15264, Note_on_c, 1, 43, 58
1, 15353, Note_on_c, 0, 67, 0
1, 15353, Note_on_c, 1, 55, 0
1, 15353, Note_on_c, 1, 43, 0
1, 15552, Note_on_c, 1, 43, 0
1, 15641, Note_on_c, 1, 43, 0
1, 15651, End_track
0, 0, End_of_file