0, 0, Header, 0, 1, 96
1, 0, Start_track
1, 0, Tempo, 200000
1, 168, Note_on_c, 0, 74, 75
1, 191, Note_on_c, 0, 74, 0
1, 192, Note_on_c, 0, 75, 75
1, 192, Note_on_c, 1, 58, 75
1, 192, Note_on_c, 1, 55, 75
1, 204, Note_on_c, 0, 75, 0
1, 204, Note_on_c, 0, 74, 75
1, 216, Note_on_c, 0, 74, 0
1, 216, Note_on_c, 0, 73, 75
1, 228, Note_on_c, 0, 73, 0
1, 228, Note_on_c, 0, 74, 75
1, 259, Note_on_c, 0, 74, 0
1, 264, Note_on_c, 0, 79, 75
1, 281, Note_on_c, 1, 58, 0
1, 281, Note_on_c, 1, 55, 0
1, 287, Note_on_c, 0, 79, 0
1, 288, Note_on_c, 0, 79, 75
1, 288, Note_on_c, 1, 57, 75
1, 288, Note_on_c, 1, 50, 75
1, 384, Note_on_c, 0, 79, 0
1, 384, Note_on_c, 0, 78, 75
1, 451, Note_on_c, 0, 78, 0
1, 456, Note_on_c, 0, 74, 75
1, 465, Note_on_c, 1, 57, 0
1, 465, Note_on_c, 1, 50, 0
1, 479, Note_on_c, 0, 74, 0
1, 480, Note_on_c, 0, 75, 75
1, 480, Note_on_c, 1, 58, 75
1, 480, Note_on_c, 1, 55, 75
1, 492, Note_on_c, 0, 75, 0
1, 492, Note_on_c, 0, 74, 75
1, 504, Note_on_c, 0, 74, 0
1, 504, Note_on_c, 0, 73, 75
1, 516, Note_on_c, 0, 73, 0
1, 516, Note_on_c, 0, 74, 75
1, 547, Note_on_c, 0, 74, 0
1, 552, Note_on_c, 0, 82, 75
1, 569, Note_on_c, 1, 58, 0
1, 569, Note_on_c, 1, 55, 0
1, 575, Note_on_c, 0, 82, 0
1, 576, Note_on_c, 0, 82, 75
1, 576, Note_on_c, 1, 55, 75
1, 576, Note_on_c, 1, 50, 64
1, 672, Note_on_c, 0, 82, 0
1, 672, Note_on_c, 0, 81, 75
1, 672, Note_on_c, 1, 55, 0
1, 672, Note_on_c, 1, 54, 75
1, 739, Note_on_c, 0, 81, 0
1, 744, Note_on_c, 0, 74, 75
1, 753, Note_on_c, 1, 50, 0
1, 761, Note_on_c, 1, 54, 0
1, 767, Note_on_c, 0, 74, 0
1, 768, Note_on_c, 0, 75, 75
1, 768, Note_on_c, 1, 67, 75
1, 768, Note_on_c, 1, 58, 64
1, 780, Note_on_c, 0, 75, 0
1, 780, Note_on_c, 0, 74, 75
1, 792, Note_on_c, 0, 74, 0
1, 792, Note_on_c, 0, 73, 75
1, 804, Note_on_c, 0, 73, 0
1, 804, Note_on_c, 0, 74, 75
1, 835, Note_on_c, 0, 74, 0
1, 840, Note_on_c, 0, 75, 75
1, 857, Note_on_c, 1, 58, 0
1, 863, Note_on_c, 0, 75, 0
1, 864, Note_on_c, 0, 75, 75
1, 864, Note_on_c, 1, 60, 64
1, 953, Note_on_c, 1, 67, 0
1, 960, Note_on_c, 0, 75, 0
1, 960, Note_on_c, 0, 72, 75
1, 960, Note_on_c, 1, 69, 75
1, 1005, Note_on_c, 0, 72, 0
1, 1008, Note_on_c, 0, 84, 75
1, 1028, Note_on_c, 0, 84, 0
1, 1041, Note_on_c, 1, 60, 0
1, 1049, Note_on_c, 1, 69, 0
1, 1056, Note_on_c, 0, 86, 75
1, 1079, Note_on_c, 0, 86, 0
1, 1080, Note_on_c, 0, 84, 75
1, 1103, Note_on_c, 0, 84, 0
1, 1104, Note_on_c, 0, 82, 75
1, 1127, Note_on_c, 0, 82, 0
1, 1128, Note_on_c, 0, 81, 75
1, 1151, Note_on_c, 0, 81, 0
1, 1152, Note_on_c, 0, 79, 75
1, 1248, Note_on_c, 1, 62, 75
1, 1248, Note_on_c, 1, 60, 64
1, 1282, Note_on_c, 0, 79, 0
1, 1284, Note_on_c, 0, 78, 75
1, 1296, Note_on_c, 0, 78, 0
1, 1296, Note_on_c, 0, 79, 75
1, 1308, Note_on_c, 0, 79, 0
1, 1308, Note_on_c, 0, 78, 75
1, 1320, Note_on_c, 0, 78, 0
1, 1320, Note_on_c, 0, 76, 75
1, 1332, Note_on_c, 0, 76, 0
1, 1332, Note_on_c, 0, 78, 75
1, 1337, Note_on_c, 1, 60, 0
1, 1344, Note_on_c, 0, 78, 0
1, 1344, Note_on_c, 0, 79, 75
1, 1344, Note_on_c, 1, 58, 64
1, 1411, Note_on_c, 0, 79, 0
1, 1416, Note_on_c, 0, 74, 75
1, 1425, Note_on_c, 1, 62, 0
1, 1433, Note_on_c, 1, 58, 0
1, 1439, Note_on_c, 0, 74, 0
1, 1440, Note_on_c, 0, 62, 75
1, 1536, Note_on_c, 1, 54, 75
1, 1603, Note_on_c, 0, 62, 0
1, 1608, Note_on_c, 0, 72, 75
1, 1608, Note_on_c, 0, 69, 75
1, 1625, Note_on_c, 1, 54, 0
1, 1631, Note_on_c, 0, 72, 0
1, 1631, Note_on_c, 0, 69, 0
1, 1632, Note_on_c, 0, 72, 75
1, 1632, Note_on_c, 0, 69, 75
1, 1632, Note_on_c, 1, 55, 75
1, 1699, Note_on_c, 0, 72, 0
1, 1699, Note_on_c, 0, 69, 0
1, 1704, Note_on_c, 0, 70, 75
1, 1704, Note_on_c, 0, 67, 75
1, 1721, Note_on_c, 1, 55, 0
1, 1727, Note_on_c, 0, 70, 0
1, 1727, Note_on_c, 0, 67, 0
1, 1728, Note_on_c, 0, 70, 75
1, 1728, Note_on_c, 0, 67, 64
1, 1728, Note_on_c, 1, 50, 75
1, 1817, Note_on_c, 1, 50, 0
1, 1824, Note_on_c, 0, 70, 0
1, 1824, Note_on_c, 0, 69, 75
1, 1824, Note_on_c, 0, 67, 0
1, 1824, Note_on_c, 0, 66, 64
1, 1824, Note_on_c, 1, 62, 75
1, 1861, Note_on_c, 0, 69, 0
1, 1861, Note_on_c, 0, 66, 0
1, 1869, Note_on_c, 1, 62, 0
1, 1896, Note_on_c, 0, 74, 75
1, 1919, Note_on_c, 0, 74, 0
1, 1920, Note_on_c, 0, 75, 75
1, 1920, Note_on_c, 1, 58, 75
1, 1920, Note_on_c, 1, 55, 75
1, 1932, Note_on_c, 0, 75, 0
1, 1932, Note_on_c, 0, 74, 75
1, 1944, Note_on_c, 0, 74, 0
1, 1944, Note_on_c, 0, 73, 75
1, 1956, Note_on_c, 0, 73, 0
1, 1956, Note_on_c, 0, 74, 75
1, 1987, Note_on_c, 0, 74, 0
1, 1992, Note_on_c, 0, 79, 75
1, 2009, Note_on_c, 1, 58, 0
1, 2009, Note_on_c, 1, 55, 0
1, 2015, Note_on_c, 0, 79, 0
1, 2016, Note_on_c, 0, 79, 75
1, 2016, Note_on_c, 1, 57, 75
1, 2016, Note_on_c, 1, 50, 75
1, 2112, Note_on_c, 0, 79, 0
1, 2112, Note_on_c, 0, 78, 75
1, 2179, Note_on_c, 0, 78, 0
1, 2184, Note_on_c, 0, 74, 75
1, 2193, Note_on_c, 1, 57, 0
1, 2193, Note_on_c, 1, 50, 0
1, 2207, Note_on_c, 0, 74, 0
1, 2208, Note_on_c, 0, 75, 75
1, 2208, Note_on_c, 1, 58, 75
1, 2208, Note_on_c, 1, 55, 75
1, 2220, Note_on_c, 0, 75, 0
1, 2220, Note_on_c, 0, 74, 75
1, 2232, Note_on_c, 0, 74, 0
1, 2232, Note_on_c, 0, 73, 75
1, 2244, Note_on_c, 0, 73, 0
1, 2244, Note_on_c, 0, 74, 75
1, 2275, Note_on_c, 0, 74, 0
1, 2280, Note_on_c, 0, 82, 75
1, 2297, Note_on_c, 1, 58, 0
1, 2297, Note_on_c, 1, 55, 0
1, 2303, Note_on_c, 0, 82, 0
1, 2304, Note_on_c, 0, 82, 75
1, 2304, Note_on_c, 1, 55, 75
1, 2304, Note_on_c, 1, 50, 64
1, 2400, Note_on_c, 0, 82, 0
1, 2400, Note_on_c, 0, 81, 75
1, 2400, Note_on_c, 1, 55, 0
1, 2400, Note_on_c, 1, 54, 75
1, 2467, Note_on_c, 0, 81, 0
1, 2472, Note_on_c, 0, 74, 75
1, 2481, Note_on_c, 1, 50, 0
1, 2489, Note_on_c, 1, 54, 0
1, 2495, Note_on_c, 0, 74, 0
1, 2496, Note_on_c, 0, 75, 75
1, 2496, Note_on_c, 1, 67, 75
1, 2496, Note_on_c, 1, 58, 64
1, 2508, Note_on_c, 0, 75, 0
1, 2508, Note_on_c, 0, 74, 75
1, 2520, Note_on_c, 0, 74, 0
1, 2520, Note_on_c, 0, 73, 75
1, 2532, Note_on_c, 0, 73, 0
1, 2532, Note_on_c, 0, 74, 75
1, 2563, Note_on_c, 0, 74, 0
1, 2568, Note_on_c, 0, 75, 75
1, 2585, Note_on_c, 1, 58, 0
1, 2591, Note_on_c, 0, 75, 0
1, 2592, Note_on_c, 0, 75, 75
1, 2592, Note_on_c, 1, 60, 64
1, 2681, Note_on_c, 1, 67, 0
1, 2688, Note_on_c, 0, 75, 0
1, 2688, Note_on_c, 0, 72, 75
1, 2688, Note_on_c, 1, 69, 75
1, 2733, Note_on_c, 0, 72, 0
1, 2736, Note_on_c, 0, 84, 75
1, 2756, Note_on_c, 0, 84, 0
1, 2769, Note_on_c, 1, 60, 0
1, 2777, Note_on_c, 1, 69, 0
1, 2784, Note_on_c, 0, 86, 75
1, 2807, Note_on_c, 0, 86, 0
1, 2808, Note_on_c, 0, 84, 75
1, 2831, Note_on_c, 0, 84, 0
1, 2832, Note_on_c, 0, 82, 75
1, 2855, Note_on_c, 0, 82, 0
1, 2856, Note_on_c, 0, 81, 75
1, 2879, Note_on_c, 0, 81, 0
1, 2880, Note_on_c, 0, 79, 75
1, 2976, Note_on_c, 1, 62, 75
1, 2976, Note_on_c, 1, 60, 64
1, 3010, Note_on_c, 0, 79, 0
1, 3012, Note_on_c, 0, 78, 75
1, 3024, Note_on_c, 0, 78, 0
1, 3024, Note_on_c, 0, 79, 75
1, 3036, Note_on_c, 0, 79, 0
1, 3036, Note_on_c, 0, 78, 75
1, 3048, Note_on_c, 0, 78, 0
1, 3048, Note_on_c, 0, 76, 75
1, 3060, Note_on_c, 0, 76, 0
1, 3060, Note_on_c, 0, 78, 75
1, 3065, Note_on_c, 1, 60, 0
1, 3072, Note_on_c, 0, 78, 0
1, 3072, Note_on_c, 0, 79, 75
1, 3072, Note_on_c, 1, 58, 64
1, 3139, Note_on_c, 0, 79, 0
1, 3144, Note_on_c, 0, 74, 75
1, 3153, Note_on_c, 1, 62, 0
1, 3161, Note_on_c, 1, 58, 0
1, 3167, Note_on_c, 0, 74, 0
1, 3168, Note_on_c, 0, 62, 75
1, 3264, Note_on_c, 1, 54, 75
1, 3331, Note_on_c, 0, 62, 0
1, 3336, Note_on_c, 0, 72, 75
1, 3336, Note_on_c, 0, 69, 75
1, 3353, Note_on_c, 1, 54, 0
1, 3359, Note_on_c, 0, 72, 0
1, 3359, Note_on_c, 0, 69, 0
1, 3360, Note_on_c, 0, 72, 75
1, 3360, Note_on_c, 0, 69, 75
1, 3360, Note_on_c, 1, 55, 75
1, 3427, Note_on_c, 0, 72, 0
1, 3427, Note_on_c, 0, 69, 0
1, 3432, Note_on_c, 0, 70, 75
1, 3432, Note_on_c, 0, 67, 75
1, 3449, Note_on_c, 1, 55, 0
1, 3455, Note_on_c, 0, 70, 0
1, 3455, Note_on_c, 0, 67, 0
1, 3456, Note_on_c, 0, 70, 75
1, 3456, Note_on_c, 0, 67, 64
1, 3456, Note_on_c, 1, 50, 75
1, 3545, Note_on_c, 1, 50, 0
1, 3552, Note_on_c, 0, 70, 0
1, 3552, Note_on_c, 0, 69, 75
1, 3552, Note_on_c, 0, 67, 0
1, 3552, Note_on_c, 0, 66, 64
1, 3552, Note_on_c, 1, 62, 75
1, 3589, Note_on_c, 0, 69, 0
1, 3589, Note_on_c, 0, 66, 0
1, 3597, Note_on_c, 1, 62, 0
1, 3624, Note_on_c, 0, 70, 75
1, 3647, Note_on_c, 0, 70, 0
1, 3648, Note_on_c, 0, 72, 75
1, 3660, Note_on_c, 0, 72, 0
1, 3660, Note_on_c, 0, 70, 75
1, 3672, Note_on_c, 0, 70, 0
1, 3672, Note_on_c, 0, 69, 75
1, 3684, Note_on_c, 0, 69, 0
1, 3684, Note_on_c, 0, 70, 75
1, 3715, Note_on_c, 0, 70, 0
1, 3720, Note_on_c, 0, 74, 75
1, 3743, Note_on_c, 0, 74, 0
1, 3744, Note_on_c, 0, 72, 75
1, 3840, Note_on_c, 0, 72, 0
1, 3840, Note_on_c, 0, 70, 75
1, 3840, Note_on_c, 1, 65, 75
1, 3840, Note_on_c, 1, 62, 75
1, 3860, Note_on_c, 0, 70, 0
1, 3888, Note_on_c, 0, 72, 75
1, 3900, Note_on_c, 0, 72, 0
1, 3900, Note_on_c, 0, 70, 75
1, 3912, Note_on_c, 0, 70, 0
1, 3912, Note_on_c, 0, 69, 75
1, 3924, Note_on_c, 0, 69, 0
1, 3924, Note_on_c, 0, 70, 75
1, 3929, Note_on_c, 1, 65, 0
1, 3929, Note_on_c, 1, 62, 0
1, 3936, Note_on_c, 0, 70, 0
1, 3936, Note_on_c, 0, 77, 75
1, 4003, Note_on_c, 0, 77, 0
1, 4008, Note_on_c, 0, 74, 75
1, 4031, Note_on_c, 0, 74, 0
1, 4032, Note_on_c, 0, 71, 75
1, 4128, Note_on_c, 0, 71, 0
1, 4128, Note_on_c, 0, 72, 75
1, 4128, Note_on_c, 1, 67, 75
1, 4128, Note_on_c, 1, 63, 75
1, 4195, Note_on_c, 0, 72, 0
1, 4200, Note_on_c, 0, 72, 75
1, 4217, Note_on_c, 1, 67, 0
1, 4217, Note_on_c, 1, 63, 0
1, 4223, Note_on_c, 0, 72, 0
1, 4224, Note_on_c, 0, 74, 75
1, 4236, Note_on_c, 0, 74, 0
1, 4236, Note_on_c, 0, 72, 75
1, 4248, Note_on_c, 0, 72, 0
1, 4248, Note_on_c, 0, 71, 75
1, 4260, Note_on_c, 0, 71, 0
1, 4260, Note_on_c, 0, 72, 75
1, 4291, Note_on_c, 0, 72, 0
1, 4296, Note_on_c, 0, 75, 75
1, 4319, Note_on_c, 0, 75, 0
1, 4320, Note_on_c, 0, 74, 75
1, 4416, Note_on_c, 0, 74, 0
1, 4416, Note_on_c, 0, 72, 75
1, 4416, Note_on_c, 1, 69, 75
1, 4416, Note_on_c, 1, 65, 75
1, 4436, Note_on_c, 0, 72, 0
1, 4464, Note_on_c, 0, 74, 75
1, 4476, Note_on_c, 0, 74, 0
1, 4476, Note_on_c, 0, 72, 75
1, 4488, Note_on_c, 0, 72, 0
1, 4488, Note_on_c, 0, 71, 75
1, 4500, Note_on_c, 0, 71, 0
1, 4500, Note_on_c, 0, 72, 75
1, 4505, Note_on_c, 1, 69, 0
1, 4505, Note_on_c, 1, 65, 0
1, 4512, Note_on_c, 0, 72, 0
1, 4512, Note_on_c, 0, 79, 75
1, 4579, Note_on_c, 0, 79, 0
1, 4584, Note_on_c, 0, 75, 75
1, 4607, Note_on_c, 0, 75, 0
1, 4608, Note_on_c, 0, 73, 75
1, 4704, Note_on_c, 0, 73, 0
1, 4704, Note_on_c, 0, 74, 75
1, 4704, Note_on_c, 1, 65, 75
1, 4704, Note_on_c, 1, 58, 75
1, 4771, Note_on_c, 0, 74, 0
1, 4776, Note_on_c, 0, 74, 75
1, 4793, Note_on_c, 1, 65, 0
1, 4793, Note_on_c, 1, 58, 0
1, 4799, Note_on_c, 0, 74, 0
1, 4800, Note_on_c, 0, 82, 75
1, 4829, Note_on_c, 0, 82, 0
1, 4872, Note_on_c, 0, 81, 75
1, 4872, Note_on_c, 1, 58, 75
1, 4896, Note_on_c, 0, 81, 0
1, 4896, Note_on_c, 0, 79, 75
1, 4896, Note_on_c, 1, 58, 0
1, 4896, Note_on_c, 1, 63, 75
1, 4925, Note_on_c, 0, 79, 0
1, 4925, Note_on_c, 1, 63, 0
1, 4968, Note_on_c, 0, 77, 75
1, 4968, Note_on_c, 1, 62, 75
1, 4992, Note_on_c, 0, 77, 0
1, 4992, Note_on_c, 0, 75, 75
1, 4992, Note_on_c, 1, 62, 0
1, 4992, Note_on_c, 1, 67, 75
1, 5021, Note_on_c, 0, 75, 0
1, 5021, Note_on_c, 1, 67, 0
1, 5064, Note_on_c, 0, 74, 75
1, 5064, Note_on_c, 1, 65, 75
1, 5088, Note_on_c, 0, 74, 0
1, 5088, Note_on_c, 0, 72, 75
1, 5088, Note_on_c, 1, 65, 0
1, 5088, Note_on_c, 1, 63, 75
1, 5117, Note_on_c, 0, 72, 0
1, 5117, Note_on_c, 1, 63, 0
1, 5160, Note_on_c, 0, 70, 75
1, 5160, Note_on_c, 1, 62, 75
1, 5184, Note_on_c, 0, 70, 0
1, 5184, Note_on_c, 0, 69, 75
1, 5184, Note_on_c, 1, 62, 0
1, 5184, Note_on_c, 1, 60, 75
1, 5213, Note_on_c, 0, 69, 0
1, 5213, Note_on_c, 1, 60, 0
1, 5256, Note_on_c, 0, 79, 75
1, 5256, Note_on_c, 1, 58, 75
1, 5280, Note_on_c, 0, 79, 0
1, 5280, Note_on_c, 0, 77, 75
1, 5280, Note_on_c, 1, 58, 0
1, 5280, Note_on_c, 1, 57, 75
1, 5309, Note_on_c, 0, 77, 0
1, 5309, Note_on_c, 1, 57, 0
1, 5352, Note_on_c, 0, 75, 75
1, 5352, Note_on_c, 1, 53, 75
1, 5376, Note_on_c, 0, 75, 0
1, 5376, Note_on_c, 0, 74, 75
1, 5376, Note_on_c, 1, 53, 0
1, 5376, Note_on_c, 1, 58, 75
1, 5396, Note_on_c, 0, 74, 0
1, 5405, Note_on_c, 1, 58, 0
1, 5448, Note_on_c, 1, 50, 75
1, 5472, Note_on_c, 1, 50, 0
1, 5472, Note_on_c, 1, 51, 75
1, 5511, Note_on_c, 1, 51, 0
1, 5544, Note_on_c, 0, 72, 75
1, 5568, Note_on_c, 0, 72, 0
1, 5568, Note_on_c, 0, 75, 75
1, 5597, Note_on_c, 0, 75, 0
1, 5640, Note_on_c, 0, 72, 75
1, 5664, Note_on_c, 0, 72, 0
1, 5664, Note_on_c, 0, 70, 75
1, 5664, Note_on_c, 1, 53, 75
1, 5693, Note_on_c, 0, 70, 0
1, 5703, Note_on_c, 1, 53, 0
1, 5736, Note_on_c, 0, 69, 75
1, 5760, Note_on_c, 0, 69, 0
1, 5760, Note_on_c, 0, 70, 75
1, 5832, Note_on_c, 1, 46, 75
1, 5849, Note_on_c, 0, 70, 0
1, 5855, Note_on_c, 1, 46, 0
1, 5856, Note_on_c, 1, 58, 75
1, 5895, Note_on_c, 1, 58, 0
1, 5928, Note_on_c, 0, 74, 75
1, 5951, Note_on_c, 0, 74, 0
1, 5952, Note_on_c, 0, 75, 75
1, 5964, Note_on_c, 0, 75, 0
1, 5964, Note_on_c, 0, 74, 75
1, 5976, Note_on_c, 0, 74, 0
1, 5976, Note_on_c, 0, 72, 75
1, 5988, Note_on_c, 0, 72, 0
1, 5988, Note_on_c, 0, 74, 75
1, 6019, Note_on_c, 0, 74, 0
1, 6024, Note_on_c, 0, 75, 75
1, 6036, Note_on_c, 0, 75, 0
1, 6036, Note_on_c, 0, 77, 75
1, 6048, Note_on_c, 0, 77, 0
1, 6048, Note_on_c, 0, 72, 75
1, 6144, Note_on_c, 0, 72, 0
1, 6144, Note_on_c, 0, 71, 75
1, 6144, Note_on_c, 1, 65, 75
1, 6144, Note_on_c, 1, 62, 75
1, 6144, Note_on_c, 1, 55, 75
1, 6211, Note_on_c, 0, 71, 0
1, 6216, Note_on_c, 0, 80, 75
1, 6233, Note_on_c, 1, 65, 0
1, 6233, Note_on_c, 1, 62, 0
1, 6233, Note_on_c, 1, 55, 0
1, 6239, Note_on_c, 0, 80, 0
1, 6240, Note_on_c, 0, 82, 75
1, 6264, Note_on_c, 0, 82, 0
1, 6264, Note_on_c, 0, 80, 75
1, 6287, Note_on_c, 0, 80, 0
1, 6288, Note_on_c, 0, 79, 75
1, 6311, Note_on_c, 0, 79, 0
1, 6312, Note_on_c, 0, 77, 75
1, 6335, Note_on_c, 0, 77, 0
1, 6336, Note_on_c, 0, 77, 75
1, 6408, Note_on_c, 1, 59, 75
1, 6432, Note_on_c, 0, 77, 0
1, 6432, Note_on_c, 0, 75, 75
1, 6432, Note_on_c, 1, 59, 0
1, 6432, Note_on_c, 1, 60, 75
1, 6471, Note_on_c, 1, 60, 0
1, 6499, Note_on_c, 0, 75, 0
1, 6504, Note_on_c, 0, 75, 75
1, 6527, Note_on_c, 0, 75, 0
1, 6528, Note_on_c, 0, 77, 75
1, 6540, Note_on_c, 0, 77, 0
1, 6540, Note_on_c, 0, 75, 75
1, 6552, Note_on_c, 0, 75, 0
1, 6552, Note_on_c, 0, 74, 75
1, 6564, Note_on_c, 0, 74, 0
1, 6564, Note_on_c, 0, 75, 75
1, 6595, Note_on_c, 0, 75, 0
1, 6600, Note_on_c, 0, 77, 75
1, 6612, Note_on_c, 0, 77, 0
1, 6612, Note_on_c, 0, 79, 75
1, 6624, Note_on_c, 0, 79, 0
1, 6624, Note_on_c, 0, 74, 75
1, 6720, Note_on_c, 0, 74, 0
1, 6720, Note_on_c, 0, 73, 75
1, 6720, Note_on_c, 1, 67, 75
1, 6720, Note_on_c, 1, 64, 75
1, 6720, Note_on_c, 1, 57, 75
1, 6743, Note_on_c, 0, 73, 0
1, 6744, Note_on_c, 0, 82, 75
1, 6767, Note_on_c, 0, 82, 0
1, 6768, Note_on_c, 0, 81, 75
1, 6791, Note_on_c, 0, 81, 0
1, 6792, Note_on_c, 0, 82, 75
1, 6809, Note_on_c, 1, 67, 0
1, 6809, Note_on_c, 1, 64, 0
1, 6809, Note_on_c, 1, 57, 0
1, 6815, Note_on_c, 0, 82, 0
1, 6816, Note_on_c, 0, 84, 75
1, 6840, Note_on_c, 0, 84, 0
1, 6840, Note_on_c, 0, 82, 75
1, 6863, Note_on_c, 0, 82, 0
1, 6864, Note_on_c, 0, 81, 75
1, 6887, Note_on_c, 0, 81, 0
1, 6888, Note_on_c, 0, 79, 75
1, 6911, Note_on_c, 0, 79, 0
1, 6912, Note_on_c, 0, 79, 75
1, 6984, Note_on_c, 1, 61, 75
1, 7008, Note_on_c, 0, 79, 0
1, 7008, Note_on_c, 0, 78, 75
1, 7008, Note_on_c, 1, 61, 0
1, 7008, Note_on_c, 1, 62, 75
1, 7047, Note_on_c, 1, 62, 0
1, 7075, Note_on_c, 0, 78, 0
1, 7080, Note_on_c, 0, 74, 75
1, 7103, Note_on_c, 0, 74, 0
1, 7104, Note_on_c, 0, 75, 75
1, 7104, Note_on_c, 1, 70, 75
1, 7104, Note_on_c, 1, 67, 75
1, 7116, Note_on_c, 0, 75, 0
1, 7116, Note_on_c, 0, 74, 75
1, 7128, Note_on_c, 0, 74, 0
1, 7128, Note_on_c, 0, 73, 75
1, 7140, Note_on_c, 0, 73, 0
1, 7140, Note_on_c, 0, 74, 75
1, 7171, Note_on_c, 0, 74, 0
1, 7176, Note_on_c, 0, 79, 75
1, 7199, Note_on_c, 0, 79, 0
1, 7200, Note_on_c, 0, 79, 75
1, 7200, Note_on_c, 1, 70, 0
1, 7200, Note_on_c, 1, 67, 0
1, 7200, Note_on_c, 1, 69, 75
1, 7200, Note_on_c, 1, 62, 75
1, 7296, Note_on_c, 0, 79, 0
1, 7296, Note_on_c, 0, 78, 75
1, 7325, Note_on_c, 0, 78, 0
1, 7368, Note_on_c, 0, 74, 75
1, 7377, Note_on_c, 1, 69, 0
1, 7377, Note_on_c, 1, 62, 0
1, 7391, Note_on_c, 0, 74, 0
1, 7392, Note_on_c, 0, 75, 75
1, 7392, Note_on_c, 1, 70, 75
1, 7392, Note_on_c, 1, 67, 75
1, 7404, Note_on_c, 0, 75, 0
1, 7404, Note_on_c, 0, 74, 75
1, 7416, Note_on_c, 0, 74, 0
1, 7416, Note_on_c, 0, 73, 75
1, 7428, Note_on_c, 0, 73, 0
1, 7428, Note_on_c, 0, 74, 75
1, 7459, Note_on_c, 0, 74, 0
1, 7464, Note_on_c, 0, 82, 75
1, 7481, Note_on_c, 1, 70, 0
1, 7481, Note_on_c, 1, 67, 0
1, 7487, Note_on_c, 0, 82, 0
1, 7488, Note_on_c, 0, 82, 75
1, 7488, Note_on_c, 1, 67, 75
1, 7488, Note_on_c, 1, 62, 64
1, 7584, Note_on_c, 0, 82, 0
1, 7584, Note_on_c, 0, 81, 75
1, 7584, Note_on_c, 1, 67, 0
1, 7584, Note_on_c, 1, 66, 75
1, 7613, Note_on_c, 0, 81, 0
1, 7656, Note_on_c, 0, 74, 75
1, 7665, Note_on_c, 1, 62, 0
1, 7673, Note_on_c, 1, 66, 0
1, 7679, Note_on_c, 0, 74, 0
1, 7680, Note_on_c, 0, 75, 75
1, 7680, Note_on_c, 1, 67, 75
1, 7680, Note_on_c, 1, 58, 64
1, 7692, Note_on_c, 0, 75, 0
1, 7692, Note_on_c, 0, 74, 75
1, 7704, Note_on_c, 0, 74, 0
1, 7704, Note_on_c, 0, 73, 75
1, 7716, Note_on_c, 0, 73, 0
1, 7716, Note_on_c, 0, 74, 75
1, 7747, Note_on_c, 0, 74, 0
1, 7752, Note_on_c, 0, 86, 75
1, 7769, Note_on_c, 1, 58, 0
1, 7775, Note_on_c, 0, 86, 0
1, 7776, Note_on_c, 0, 86, 75
1, 7776, Note_on_c, 1, 60, 64
1, 7865, Note_on_c, 1, 67, 0
1, 7872, Note_on_c, 0, 86, 0
1, 7872, Note_on_c, 0, 75, 75
1, 7872, Note_on_c, 1, 69, 75
1, 7917, Note_on_c, 0, 75, 0
1, 7920, Note_on_c, 0, 84, 75
1, 7953, Note_on_c, 1, 60, 0
1, 7961, Note_on_c, 1, 69, 0
1, 7965, Note_on_c, 0, 84, 0
1, 7968, Note_on_c, 0, 86, 75
1, 7980, Note_on_c, 0, 86, 0
1, 7980, Note_on_c, 0, 84, 75
1, 7992, Note_on_c, 0, 84, 0
1, 7992, Note_on_c, 0, 83, 75
1, 8004, Note_on_c, 0, 83, 0
1, 8004, Note_on_c, 0, 84, 75
1, 8016, Note_on_c, 0, 84, 0
1, 8016, Note_on_c, 0, 86, 75
1, 8039, Note_on_c, 0, 86, 0
1, 8040, Note_on_c, 0, 87, 75
1, 8063, Note_on_c, 0, 87, 0
1, 8064, Note_on_c, 0, 87, 75
1, 8160, Note_on_c, 0, 87, 0
1, 8160, Note_on_c, 0, 78, 75
1, 8160, Note_on_c, 1, 72, 75
1, 8160, Note_on_c, 1, 69, 75
1, 8199, Note_on_c, 0, 78, 0
1, 8249, Note_on_c, 1, 72, 0
1, 8249, Note_on_c, 1, 69, 0
1, 8328, Note_on_c, 0, 79, 75
1, 8328, Note_on_c, 1, 67, 75
1, 8328, Note_on_c, 1, 58, 75
1, 8351, Note_on_c, 0, 79, 0
1, 8351, Note_on_c, 1, 67, 0
1, 8351, Note_on_c, 1, 58, 0
1, 8352, Note_on_c, 0, 77, 75
1, 8352, Note_on_c, 1, 67, 75
1, 8352, Note_on_c, 1, 60, 64
1, 8375, Note_on_c, 0, 77, 0
1, 8376, Note_on_c, 0, 75, 75
1, 8399, Note_on_c, 0, 75, 0
1, 8400, Note_on_c, 0, 74, 75
1, 8423, Note_on_c, 0, 74, 0
1, 8424, Note_on_c, 0, 72, 75
1, 8441, Note_on_c, 1, 60, 0
1, 8447, Note_on_c, 0, 72, 0
1, 8448, Note_on_c, 0, 70, 75
1, 8448, Note_on_c, 1, 62, 64
1, 8529, Note_on_c, 1, 67, 0
1, 8544, Note_on_c, 1, 66, 75
1, 8581, Note_on_c, 0, 70, 0
1, 8592, Note_on_c, 0, 69, 75
1, 8604, Note_on_c, 0, 69, 0
1, 8604, Note_on_c, 0, 70, 75
1, 8616, Note_on_c, 0, 70, 0
1, 8616, Note_on_c, 0, 69, 75
1, 8625, Note_on_c, 1, 62, 0
1, 8633, Note_on_c, 1, 66, 0
1, 8637, Note_on_c, 0, 69, 0
1, 8640, Note_on_c, 0, 67, 75
1, 8640, Note_on_c, 1, 55, 75
1, 8679, Note_on_c, 1, 55, 0
1, 8729, Note_on_c, 0, 67, 0
1, 8736, Note_on_c, 1, 43, 75
1, 8756, Note_on_c, 1, 43, 0
1, 8808, Note_on_c, 0, 70, 75
1, 8831, Note_on_c, 0, 70, 0
1, 8832, Note_on_c, 0, 72, 75
1, 8844, Note_on_c, 0, 72, 0
1, 8844, Note_on_c, 0, 70, 75
1, 8856, Note_on_c, 0, 70, 0
1, 8856, Note_on_c, 0, 69, 75
1, 8868, Note_on_c, 0, 69, 0
1, 8868, Note_on_c, 0, 70, 75
1, 8899, Note_on_c, 0, 70, 0
1, 8904, Note_on_c, 0, 74, 75
1, 8927, Note_on_c, 0, 74, 0
1, 8928, Note_on_c, 0, 72, 75
1, 9024, Note_on_c, 0, 72, 0
1, 9024, Note_on_c, 0, 70, 75
1, 9024, Note_on_c, 1, 65, 75
1, 9024, Note_on_c, 1, 62, 75
1, 9044, Note_on_c, 0, 70, 0
1, 9072, Note_on_c, 0, 72, 75
1, 9084, Note_on_c, 0, 72, 0
1, 9084, Note_on_c, 0, 70, 75
1, 9096, Note_on_c, 0, 70, 0
1, 9096, Note_on_c, 0, 69, 75
1, 9108, Note_on_c, 0, 69, 0
1, 9108, Note_on_c, 0, 70, 75
1, 9113, Note_on_c, 1, 65, 0
1, 9113, Note_on_c, 1, 62, 0
1, 9120, Note_on_c, 0, 70, 0
1, 9120, Note_on_c, 0, 77, 75
1, 9187, Note_on_c, 0, 77, 0
1, 9192, Note_on_c, 0, 74, 75
1, 9215, Note_on_c, 0, 74, 0
1, 9216, Note_on_c, 0, 71, 75
1, 9312, Note_on_c, 0, 71, 0
1, 9312, Note_on_c, 0, 72, 75
1, 9312, Note_on_c, 1, 67, 75
1, 9312, Note_on_c, 1, 63, 75
1, 9379, Note_on_c, 0, 72, 0
1, 9384, Note_on_c, 0, 72, 75
1, 9401, Note_on_c, 1, 67, 0
1, 9401, Note_on_c, 1, 63, 0
1, 9407, Note_on_c, 0, 72, 0
1, 9408, Note_on_c, 0, 74, 75
1, 9420, Note_on_c, 0, 74, 0
1, 9420, Note_on_c, 0, 72, 75
1, 9432, Note_on_c, 0, 72, 0
1, 9432, Note_on_c, 0, 71, 75
1, 9444, Note_on_c, 0, 71, 0
1, 9444, Note_on_c, 0, 72, 75
1, 9475, Note_on_c, 0, 72, 0
1, 9480, Note_on_c, 0, 75, 75
1, 9503, Note_on_c, 0, 75, 0
1, 9504, Note_on_c, 0, 74, 75
1, 9600, Note_on_c, 0, 74, 0
1, 9600, Note_on_c, 0, 72, 75
1, 9600, Note_on_c, 1, 69, 75
1, 9600, Note_on_c, 1, 65, 75
1, 9620, Note_on_c, 0, 72, 0
1, 9648, Note_on_c, 0, 74, 75
1, 9660, Note_on_c, 0, 74, 0
1, 9660, Note_on_c, 0, 72, 75
1, 9672, Note_on_c, 0, 72, 0
1, 9672, Note_on_c, 0, 71, 75
1, 9684, Note_on_c, 0, 71, 0
1, 9684, Note_on_c, 0, 72, 75
1, 9689, Note_on_c, 1, 69, 0
1, 9689, Note_on_c, 1, 65, 0
1, 9696, Note_on_c, 0, 72, 0
1, 9696, Note_on_c, 0, 79, 75
1, 9763, Note_on_c, 0, 79, 0
1, 9768, Note_on_c, 0, 75, 75
1, 9791, Note_on_c, 0, 75, 0
1, 9792, Note_on_c, 0, 73, 75
1, 9888, Note_on_c, 0, 73, 0
1, 9888, Note_on_c, 0, 74, 75
1, 9888, Note_on_c, 1, 65, 75
1, 9888, Note_on_c, 1, 58, 75
1, 9955, Note_on_c, 0, 74, 0
1, 9960, Note_on_c, 0, 74, 75
1, 9977, Note_on_c, 1, 65, 0
1, 9977, Note_on_c, 1, 58, 0
1, 9983, Note_on_c, 0, 74, 0
1, 9984, Note_on_c, 0, 82, 75
1, 10013, Note_on_c, 0, 82, 0
1, 10056, Note_on_c, 0, 81, 75
1, 10056, Note_on_c, 1, 58, 75
1, 10080, Note_on_c, 0, 81, 0
1, 10080, Note_on_c, 0, 79, 75
1, 10080, Note_on_c, 1, 58, 0
1, 10080, Note_on_c, 1, 63, 75
1, 10109, Note_on_c, 0, 79, 0
1, 10109, Note_on_c, 1, 63, 0
1, 10152, Note_on_c, 0, 77, 75
1, 10152, Note_on_c, 1, 62, 75
1, 10176, Note_on_c, 0, 77, 0
1, 10176, Note_on_c, 0, 75, 75
1, 10176, Note_on_c, 1, 62, 0
1, 10176, Note_on_c, 1, 67, 75
1, 10205, Note_on_c, 0, 75, 0
1, 10205, Note_on_c, 1, 67, 0
1, 10248, Note_on_c, 0, 74, 75
1, 10248, Note_on_c, 1, 65, 75
1, 10272, Note_on_c, 0, 74, 0
1, 10272, Note_on_c, 0, 72, 75
1, 10272, Note_on_c, 1, 65, 0
1, 10272, Note_on_c, 1, 63, 75
1, 10301, Note_on_c, 0, 72, 0
1, 10301, Note_on_c, 1, 63, 0
1, 10344, Note_on_c, 0, 70, 75
1, 10344, Note_on_c, 1, 62, 75
1, 10368, Note_on_c, 0, 70, 0
1, 10368, Note_on_c, 0, 69, 75
1, 10368, Note_on_c, 1, 62, 0
1, 10368, Note_on_c, 1, 60, 75
1, 10397, Note_on_c, 0, 69, 0
1, 10397, Note_on_c, 1, 60, 0
1, 10440, Note_on_c, 0, 79, 75
1, 10440, Note_on_c, 1, 58, 75
1, 10464, Note_on_c, 0, 79, 0
1, 10464, Note_on_c, 0, 77, 75
1, 10464, Note_on_c, 1, 58, 0
1, 10464, Note_on_c, 1, 57, 75
1, 10493, Note_on_c, 0, 77, 0
1, 10493, Note_on_c, 1, 57, 0
1, 10536, Note_on_c, 0, 75, 75
1, 10536, Note_on_c, 1, 53, 75
1, 10560, Note_on_c, 0, 75, 0
1, 10560, Note_on_c, 0, 74, 75
1, 10560, Note_on_c, 1, 53, 0
1, 10560, Note_on_c, 1, 58, 75
1, 10580, Note_on_c, 0, 74, 0
1, 10589, Note_on_c, 1, 58, 0
1, 10632, Note_on_c, 1, 50, 75
1, 10656, Note_on_c, 1, 50, 0
1, 10656, Note_on_c, 1, 51, 75
1, 10695, Note_on_c, 1, 51, 0
1, 10728, Note_on_c, 0, 72, 75
1, 10752, Note_on_c, 0, 72, 0
1, 10752, Note_on_c, 0, 75, 75
1, 10781, Note_on_c, 0, 75, 0
1, 10824, Note_on_c, 0, 72, 75
1, 10848, Note_on_c, 0, 72, 0
1, 10848, Note_on_c, 0, 70, 75
1, 10848, Note_on_c, 1, 53, 75
1, 10877, Note_on_c, 0, 70, 0
1, 10887, Note_on_c, 1, 53, 0
1, 10920, Note_on_c, 0, 69, 75
1, 10944, Note_on_c, 0, 69, 0
1, 10944, Note_on_c, 0, 70, 75
1, 11016, Note_on_c, 1, 46, 75
1, 11033, Note_on_c, 0, 70, 0
1, 11039, Note_on_c, 1, 46, 0
1, 11040, Note_on_c, 1, 58, 75
1, 11079, Note_on_c, 1, 58, 0
1, 11112, Note_on_c, 0, 74, 75
1, 11135, Note_on_c, 0, 74, 0
1, 11136, Note_on_c, 0, 75, 75
1, 11148, Note_on_c, 0, 75, 0
1, 11148, Note_on_c, 0, 74, 75
1, 11160, Note_on_c, 0, 74, 0
1, 11160, Note_on_c, 0, 72, 75
1, 11172, Note_on_c, 0, 72, 0
1, 11172, Note_on_c, 0, 74, 75
1, 11203, Note_on_c, 0, 74, 0
1, 11208, Note_on_c, 0, 75, 75
1, 11220, Note_on_c, 0, 75, 0
1, 11220, Note_on_c, 0, 77, 75
1, 11232, Note_on_c, 0, 77, 0
1, 11232, Note_on_c, 0, 72, 75
1, 11328, Note_on_c, 0, 72, 0
1, 11328, Note_on_c, 0, 71, 75
1, 11328, Note_on_c, 1, 65, 75
1, 11328, Note_on_c, 1, 62, 75
1, 11328, Note_on_c, 1, 55, 75
1, 11395, Note_on_c, 0, 71, 0
1, 11400, Note_on_c, 0, 80, 75
1, 11417, Note_on_c, 1, 65, 0
1, 11417, Note_on_c, 1, 62, 0
1, 11417, Note_on_c, 1, 55, 0
1, 11423, Note_on_c, 0, 80, 0
1, 11424, Note_on_c, 0, 82, 75
1, 11448, Note_on_c, 0, 82, 0
1, 11448, Note_on_c, 0, 80, 75
1, 11471, Note_on_c, 0, 80, 0
1, 11472, Note_on_c, 0, 79, 75
1, 11495, Note_on_c, 0, 79, 0
1, 11496, Note_on_c, 0, 77, 75
1, 11519, Note_on_c, 0, 77, 0
1, 11520, Note_on_c, 0, 77, 75
1, 11592, Note_on_c, 1, 59, 75
1, 11616, Note_on_c, 0, 77, 0
1, 11616, Note_on_c, 0, 75, 75
1, 11616, Note_on_c, 1, 59, 0
1, 11616, Note_on_c, 1, 60, 75
1, 11655, Note_on_c, 1, 60, 0
1, 11683, Note_on_c, 0, 75, 0
1, 11688, Note_on_c, 0, 75, 75
1, 11711, Note_on_c, 0, 75, 0
1, 11712, Note_on_c, 0, 77, 75
1, 11724, Note_on_c, 0, 77, 0
1, 11724, Note_on_c, 0, 75, 75
1, 11736, Note_on_c, 0, 75, 0
1, 11736, Note_on_c, 0, 74, 75
1, 11748, Note_on_c, 0, 74, 0
1, 11748, Note_on_c, 0, 75, 75
1, 11779, Note_on_c, 0, 75, 0
1, 11784, Note_on_c, 0, 77, 75
1, 11796, Note_on_c, 0, 77, 0
1, 11796, Note_on_c, 0, 79, 75
1, 11808, Note_on_c, 0, 79, 0
1, 11808, Note_on_c, 0, 74, 75
1, 11904, Note_on_c, 0, 74, 0
1, 11904, Note_on_c, 0, 73, 75
1, 11904, Note_on_c, 1, 67, 75
1, 11904, Note_on_c, 1, 64, 75
1, 11904, Note_on_c, 1, 57, 75
1, 11927, Note_on_c, 0, 73, 0
1, 11928, Note_on_c, 0, 82, 75
1, 11951, Note_on_c, 0, 82, 0
1, 11952, Note_on_c, 0, 81, 75
1, 11975, Note_on_c, 0, 81, 0
1, 11976, Note_on_c, 0, 82, 75
1, 11993, Note_on_c, 1, 67, 0
1, 11993, Note_on_c, 1, 64, 0
1, 11993, Note_on_c, 1, 57, 0
1, 11999, Note_on_c, 0, 82, 0
1, 12000, Note_on_c, 0, 84, 75
1, 12024, Note_on_c, 0, 84, 0
1, 12024, Note_on_c, 0, 82, 75
1, 12047, Note_on_c, 0, 82, 0
1, 12048, Note_on_c, 0, 81, 75
1, 12071, Note_on_c, 0, 81, 0
1, 12072, Note_on_c, 0, 79, 75
1, 12095, Note_on_c, 0, 79, 0
1, 12096, Note_on_c, 0, 79, 75
1, 12168, Note_on_c, 1, 61, 75
1, 12192, Note_on_c, 0, 79, 0
1, 12192, Note_on_c, 0, 78, 75
1, 12192, Note_on_c, 1, 61, 0
1, 12192, Note_on_c, 1, 62, 75
1, 12231, Note_on_c, 1, 62, 0
1, 12259, Note_on_c, 0, 78, 0
1, 12264, Note_on_c, 0, 74, 75
1, 12287, Note_on_c, 0, 74, 0
1, 12288, Note_on_c, 0, 75, 75
1, 12288, Note_on_c, 1, 70, 75
1, 12288, Note_on_c, 1, 67, 75
1, 12300, Note_on_c, 0, 75, 0
1, 12300, Note_on_c, 0, 74, 75
1, 12312, Note_on_c, 0, 74, 0
1, 12312, Note_on_c, 0, 73, 75
1, 12324, Note_on_c, 0, 73, 0
1, 12324, Note_on_c, 0, 74, 75
1, 12355, Note_on_c, 0, 74, 0
1, 12360, Note_on_c, 0, 79, 75
1, 12383, Note_on_c, 0, 79, 0
1, 12384, Note_on_c, 0, 79, 75
1, 12384, Note_on_c, 1, 70, 0
1, 12384, Note_on_c, 1, 67, 0
1, 12384, Note_on_c, 1, 69, 75
1, 12384, Note_on_c, 1, 62, 75
1, 12480, Note_on_c, 0, 79, 0
1, 12480, Note_on_c, 0, 78, 75
1, 12509, Note_on_c, 0, 78, 0
1, 12552, Note_on_c, 0, 74, 75
1, 12561, Note_on_c, 1, 69, 0
1, 12561, Note_on_c, 1, 62, 0
1, 12575, Note_on_c, 0, 74, 0
1, 12576, Note_on_c, 0, 75, 75
1, 12576, Note_on_c, 1, 70, 75
1, 12576, Note_on_c, 1, 67, 75
1, 12588, Note_on_c, 0, 75, 0
1, 12588, Note_on_c, 0, 74, 75
1, 12600, Note_on_c, 0, 74, 0
1, 12600, Note_on_c, 0, 73, 75
1, 12612, Note_on_c, 0, 73, 0
1, 12612, Note_on_c, 0, 74, 75
1, 12643, Note_on_c, 0, 74, 0
1, 12648, Note_on_c, 0, 82, 75
1, 12665, Note_on_c, 1, 70, 0
1, 12665, Note_on_c, 1, 67, 0
1, 12671, Note_on_c, 0, 82, 0
1, 12672, Note_on_c, 0, 82, 75
1, 12672, Note_on_c, 1, 67, 75
1, 12672, Note_on_c, 1, 62, 64
1, 12768, Note_on_c, 0, 82, 0
1, 12768, Note_on_c, 0, 81, 75
1, 12768, Note_on_c, 1, 67, 0
1, 12768, Note_on_c, 1, 66, 75
1, 12797, Note_on_c, 0, 81, 0
1, 12840, Note_on_c, 0, 74, 75
1, 12849, Note_on_c, 1, 62, 0
1, 12857, Note_on_c, 1, 66, 0
1, 12863, Note_on_c, 0, 74, 0
1, 12864, Note_on_c, 0, 75, 75
1, 12864, Note_on_c, 1, 67, 75
1, 12864, Note_on_c, 1, 58, 64
1, 12876, Note_on_c, 0, 75, 0
1, 12876, Note_on_c, 0, 74, 75
1, 12888, Note_on_c, 0, 74, 0
1, 12888, Note_on_c, 0, 73, 75
1, 12900, Note_on_c, 0, 73, 0
1, 12900, Note_on_c, 0, 74, 75
1, 12931, Note_on_c, 0, 74, 0
1, 12936, Note_on_c, 0, 86, 75
1, 12953, Note_on_c, 1, 58, 0
1, 12959, Note_on_c, 0, 86, 0
1, 12960, Note_on_c, 0, 86, 75
1, 12960, Note_on_c, 1, 60, 64
1, 13049, Note_on_c, 1, 67, 0
1, 13056, Note_on_c, 0, 86, 0
1, 13056, Note_on_c, 0, 75, 75
1, 13056, Note_on_c, 1, 69, 75
1, 13101, Note_on_c, 0, 75, 0
1, 13104, Note_on_c, 0, 84, 75
1, 13137, Note_on_c, 1, 60, 0
1, 13145, Note_on_c, 1, 69, 0
1, 13149, Note_on_c, 0, 84, 0
1, 13152, Note_on_c, 0, 86, 75
1, 13164, Note_on_c, 0, 86, 0
1, 13164, Note_on_c, 0, 84, 75
1, 13176, Note_on_c, 0, 84, 0
1, 13176, Note_on_c, 0, 83, 75
1, 13188, Note_on_c, 0, 83, 0
1, 13188, Note_on_c, 0, 84, 75
1, 13200, Note_on_c, 0, 84, 0
1, 13200, Note_on_c, 0, 86, 75
1, 13223, Note_on_c, 0, 86, 0
1, 13224, Note_on_c, 0, 87, 75
1, 13247, Note_on_c, 0, 87, 0
1, 13248, Note_on_c, 0, 87, 75
1, 13344, Note_on_c, 0, 87, 0
1, 13344, Note_on_c, 0, 78, 75
1, 13344, Note_on_c, 1, 72, 75
1, 13344, Note_on_c, 1, 69, 75
1, 13383, Note_on_c, 0, 78, 0
1, 13433, Note_on_c, 1, 72, 0
1, 13433, Note_on_c, 1, 69, 0
1, 13512, Note_on_c, 0, 79, 75
1, 13512, Note_on_c, 1, 67, 75
1, 13512, Note_on_c, 1, 58, 75
1, 13535, Note_on_c, 0, 79, 0
1, 13535, Note_on_c, 1, 67, 0
1, 13535, Note_on_c, 1, 58, 0
1, 13536, Note_on_c, 0, 77, 75
1, 13536, Note_on_c, 1, 67, 75
1, 13536, Note_on_c, 1, 60, 64
1, 13559, Note_on_c, 0, 77, 0
1, 13560, Note_on_c, 0, 75, 75
1, 13583, Note_on_c, 0, 75, 0
1, 13584, Note_on_c, 0, 74, 75
1, 13607, Note_on_c, 0, 74, 0
1, 13608, Note_on_c, 0, 72, 75
1, 13625, Note_on_c, 1, 60, 0
1, 13631, Note_on_c, 0, 72, 0
1, 13632, Note_on_c, 0, 70, 75
1, 13632, Note_on_c, 1, 62, 64
1, 13713, Note_on_c, 1, 67, 0
1, 13728, Note_on_c, 1, 66, 75
1, 13765, Note_on_c, 0, 70, 0
1, 13776, Note_on_c, 0, 69, 75
1, 13788, Note_on_c, 0, 69, 0
1, 13788, Note_on_c, 0, 70, 75
1, 13800, Note_on_c, 0, 70, 0
1, 13800, Note_on_c, 0, 69, 75
1, 13809, Note_on_c, 1, 62, 0
1, 13817, Note_on_c, 1, 66, 0
1, 13821, Note_on_c, 0, 69, 0
1, 13824, Note_on_c, 0, 67, 75
1, 13824, Note_on_c, 1, 55, 75
1, 13863, Note_on_c, 1, 55, 0
1, 13913, Note_on_c, 0, 67, 0
1, 13920, Note_on_c, 1, 43, 75
1, 13940, Note_on_c, 1, 43, 0
1, 13992, Note_on_c, 0, 62, 75
1, 14015, Note_on_c, 0, 62, 0
1, 14016, Note_on_c, 0, 64, 75
1, 14028, Note_on_c, 0, 64, 0
1, 14028, Note_on_c, 0, 62, 75
1, 14040, Note_on_c, 0, 62, 0
1, 14040, Note_on_c, 0, 61, 75
1, 14052, Note_on_c, 0, 61, 0
1, 14052, Note_on_c, 0, 62, 75
1, 14083, Note_on_c, 0, 62, 0
1, 14088, Note_on_c, 0, 71, 75
1, 14111, Note_on_c, 0, 71, 0
1, 14112, Note_on_c, 0, 71, 75
1, 14208, Note_on_c, 0, 71, 0
1, 14208, Note_on_c, 0, 60, 75
1, 14208, Note_on_c, 1, 57, 75
1, 14275, Note_on_c, 0, 60, 0
1, 14280, Note_on_c, 0, 60, 75
1, 14297, Note_on_c, 1, 57, 0
1, 14303, Note_on_c, 0, 60, 0
1, 14304, Note_on_c, 0, 62, 75
1, 14304, Note_on_c, 1, 54, 75
1, 14316, Note_on_c, 0, 62, 0
1, 14316, Note_on_c, 0, 60, 75
1, 14328, Note_on_c, 0, 60, 0
1, 14328, Note_on_c, 0, 59, 75
1, 14340, Note_on_c, 0, 59, 0
1, 14340, Note_on_c, 0, 60, 75
1, 14371, Note_on_c, 0, 60, 0
1, 14376, Note_on_c, 0, 69, 75
1, 14393, Note_on_c, 1, 54, 0
1, 14399, Note_on_c, 0, 69, 0
1, 14400, Note_on_c, 0, 60, 75
1, 14400, Note_on_c, 1, 55, 75
1, 14489, Note_on_c, 1, 55, 0
1, 14496, Note_on_c, 1, 43, 75
1, 14519, Note_on_c, 0, 60, 0
1, 14520, Note_on_c, 0, 59, 75
1, 14543, Note_on_c, 0, 59, 0
1, 14544, Note_on_c, 0, 64, 76
1, 14568, Note_on_c, 0, 64, 0
1, 14568, Note_on_c, 0, 62, 76
1, 14585, Note_on_c, 1, 43, 0
1, 14591, Note_on_c, 0, 62, 0
1, 14592, Note_on_c, 0, 67, 77
1, 14616, Note_on_c, 0, 67, 0
1, 14616, Note_on_c, 0, 66, 77
1, 14639, Note_on_c, 0, 66, 0
1, 14640, Note_on_c, 0, 69, 78
1, 14664, Note_on_c, 0, 69, 0
1, 14664, Note_on_c, 0, 67, 78
1, 14687, Note_on_c, 0, 67, 0
1, 14688, Note_on_c, 0, 71, 79
1, 14711, Note_on_c, 0, 71, 0
1, 14712, Note_on_c, 0, 69, 79
1, 14735, Note_on_c, 0, 69, 0
1, 14736, Note_on_c, 0, 72, 80
1, 14759, Note_on_c, 0, 72, 0
1, 14760, Note_on_c, 0, 71, 81
1, 14783, Note_on_c, 0, 71, 0
1, 14784, Note_on_c, 0, 74, 80
1, 14807, Note_on_c, 0, 74, 0
1, 14808, Note_on_c, 0, 72, 80
1, 14831, Note_on_c, 0, 72, 0
1, 14832, Note_on_c, 0, 71, 79
1, 14855, Note_on_c, 0, 71, 0
1, 14856, Note_on_c, 0, 69, 79
1, 14879, Note_on_c, 0, 69, 0
1, 14880, Note_on_c, 0, 67, 79
1, 14903, Note_on_c, 0, 67, 0
1, 14904, Note_on_c, 0, 66, 78
1, 14927, Note_on_c, 0, 66, 0
1, 14928, Note_on_c, 0, 64, 78
1, 14951, Note_on_c, 0, 64, 0
1, 14952, Note_on_c, 0, 62, 78
1, 14975, Note_on_c, 0, 62, 0
1, 14976, Note_on_c, 0, 62, 93
1, 15072, Note_on_c, 1, 57, 75
1, 15072, Note_on_c, 1, 54, 75
1, 15117, Note_on_c, 0, 62, 0
1, 15120, Note_on_c, 0, 60, 75
1, 15161, Note_on_c, 1, 57, 0
1, 15161, Note_on_c, 1, 54, 0
1, 15165, Note_on_c, 0, 60, 0
1, 15168, Note_on_c, 0, 62, 75
1, 15168, Note_on_c, 1, 55, 75
1, 15180, Note_on_c, 0, 62, 0
1, 15180, Note_on_c, 0, 60, 75
1, 15213, Note_on_c, 0, 60, 0
1, 15216, Note_on_c, 0, 59, 75
1, 15261, Note_on_c, 0, 59, 0
1, 15264, Note_on_c, 0, 59, 75
1, 15264, Note_on_c, 1, 50, 64
1, 15353, Note_on_c, 1, 55, 0
1, 15360, Note_on_c, 0, 59, 0
1, 15360, Note_on_c, 0, 57, 75
1, 15360, Note_on_c, 1, 54, 75
1, 15427, Note_on_c, 0, 57, 0
1, 15432, Note_on_c, 0, 62, 75
1, 15441, Note_on_c, 1, 50, 0
1, 15449, Note_on_c, 1, 54, 0
1, 15455, Note_on_c, 0, 62, 0
1, 15456, Note_on_c, 0, 64, 75
1, 15468, Note_on_c, 0, 64, 0
1, 15468, Note_on_c, 0, 62, 75
1, 15480, Note_on_c, 0, 62, 0
1, 15480, Note_on_c, 0, 61, 75
1, 15492, Note_on_c, 0, 61, 0
1, 15492, Note_on_c, 0, 62, 75
1, 15523, Note_on_c, 0, 62, 0
1, 15528, Note_on_c, 0, 71, 75
1, 15551, Note_on_c, 0, 71, 0
1, 15552, Note_on_c, 0, 71, 75
1, 15641, Note_on_c, 0, 71, 0
1, 15648, Note_on_c, 0, 60, 75
1, 15648, Note_on_c, 1, 57, 75
1, 15715, Note_on_c, 0, 60, 0
1, 15720, Note_on_c, 0, 60, 75
1, 15737, Note_on_c, 1, 57, 0
1, 15743, Note_on_c, 0, 60, 0
1, 15744, Note_on_c, 0, 62, 75
1, 15744, Note_on_c, 1, 54, 75
1, 15756, Note_on_c, 0, 62, 0
1, 15756, Note_on_c, 0, 60, 75
1, 15768, Note_on_c, 0, 60, 0
1, 15768, Note_on_c, 0, 59, 75
1, 15780, Note_on_c, 0, 59, 0
1, 15780, Note_on_c, 0, 60, 75
1, 15811, Note_on_c, 0, 60, 0
1, 15816, Note_on_c, 0, 69, 75
1, 15833, Note_on_c, 1, 54, 0
1, 15839, Note_on_c, 0, 69, 0
1, 15840, Note_on_c, 0, 60, 75
1, 15840, Note_on_c, 1, 55, 75
1, 15929, Note_on_c, 1, 55, 0
1, 15936, Note_on_c, 1, 43, 75
1, 15959, Note_on_c, 0, 60, 0
1, 15960, Note_on_c, 0, 59, 76
1, 15983, Note_on_c, 0, 59, 0
1, 15984, Note_on_c, 0, 64, 77
1, 16008, Note_on_c, 0, 64, 0
1, 16008, Note_on_c, 0, 62, 77
1, 16025, Note_on_c, 1, 43, 0
1, 16031, Note_on_c, 0, 62, 0
1, 16032, Note_on_c, 0, 67, 78
1, 16056, Note_on_c, 0, 67, 0
1, 16056, Note_on_c, 0, 66, 78
1, 16079, Note_on_c, 0, 66, 0
1, 16080, Note_on_c, 0, 69, 78
1, 16104, Note_on_c, 0, 69, 0
1, 16104, Note_on_c, 0, 67, 79
1, 16127, Note_on_c, 0, 67, 0
1, 16128, Note_on_c, 0, 71, 79
1, 16152, Note_on_c, 0, 71, 0
1, 16152, Note_on_c, 0, 69, 79
1, 16175, Note_on_c, 0, 69, 0
1, 16176, Note_on_c, 0, 72, 80
1, 16200, Note_on_c, 0, 72, 0
1, 16200, Note_on_c, 0, 71, 80
1, 16223, Note_on_c, 0, 71, 0
1, 16224, Note_on_c, 0, 74, 81
1, 16247, Note_on_c, 0, 74, 0
1, 16248, Note_on_c, 0, 72, 80
1, 16271, Note_on_c, 0, 72, 0
1, 16272, Note_on_c, 0, 71, 80
1, 16295, Note_on_c, 0, 71, 0
1, 16296, Note_on_c, 0, 69, 80
1, 16319, Note_on_c, 0, 69, 0
1, 16320, Note_on_c, 0, 67, 79
1, 16343, Note_on_c, 0, 67, 0
1, 16344, Note_on_c, 0, 66, 79
1, 16367, Note_on_c, 0, 66, 0
1, 16368, Note_on_c, 0, 64, 79
1, 16368, Note_on_c, 1, 55, 75
1, 16368, Note_on_c, 1, 47, 75
1, 16391, Note_on_c, 0, 64, 0
1, 16392, Note_on_c, 0, 62, 78
1, 16413, Note_on_c, 1, 55, 0
1, 16413, Note_on_c, 1, 47, 0
1, 16415, Note_on_c, 0, 62, 0
1, 16416, Note_on_c, 0, 62, 78
1, 16416, Note_on_c, 1, 55, 75
1, 16416, Note_on_c, 1, 48, 64
1, 16439, Note_on_c, 0, 62, 0
1, 16440, Note_on_c, 0, 60, 78
1, 16463, Note_on_c, 0, 60, 0
1, 16464, Note_on_c, 0, 64, 77
1, 16487, Note_on_c, 0, 64, 0
1, 16488, Note_on_c, 0, 60, 77
1, 16505, Note_on_c, 1, 48, 0
1, 16511, Note_on_c, 0, 60, 0
1, 16512, Note_on_c, 0, 59, 77
1, 16512, Note_on_c, 1, 50, 64
1, 16593, Note_on_c, 1, 55, 0
1, 16608, Note_on_c, 1, 54, 75
1, 16645, Note_on_c, 0, 59, 0
1, 16656, Note_on_c, 0, 57, 75
1, 16666, Note_on_c, 0, 57, 0
1, 16666, Note_on_c, 0, 59, 75
1, 16676, Note_on_c, 0, 59, 0
1, 16676, Note_on_c, 0, 57, 75
1, 16686, Note_on_c, 0, 57, 0
1, 16686, Note_on_c, 0, 55, 75
1, 16689, Note_on_c, 1, 50, 0
1, 16695, Note_on_c, 0, 55, 0
1, 16695, Note_on_c, 0, 57, 75
1, 16697, Note_on_c, 1, 54, 0
1, 16704, Note_on_c, 0, 57, 0
1, 16704, Note_on_c, 0, 55, 75
1, 16704, Note_on_c, 1, 43, 75
1, 16793, Note_on_c, 0, 55, 0
1, 16793, Note_on_c, 1, 43, 0
1, 16800, Note_on_c, 1, 31, 75
1, 16872, Note_on_c, 0, 71, 75
1, 16889, Note_on_c, 1, 31, 0
1, 16895, Note_on_c, 0, 71, 0
1, 16896, Note_on_c, 0, 72, 75
1, 16902, Note_on_c, 0, 72, 0
1, 16902, Note_on_c, 0, 71, 75
1, 16908, Note_on_c, 0, 71, 0
1, 16908, Note_on_c, 0, 70, 75
1, 16914, Note_on_c, 0, 70, 0
1, 16914, Note_on_c, 0, 71, 75
1, 16963, Note_on_c, 0, 71, 0
1, 16968, Note_on_c, 0, 83, 75
1, 16991, Note_on_c, 0, 83, 0
1, 16992, Note_on_c, 0, 83, 75
1, 17040, Note_on_c, 0, 83, 0
1, 17040, Note_on_c, 0, 81, 75
1, 17085, Note_on_c, 0, 81, 0
1, 17088, Note_on_c, 1, 75, 70
1, 17088, Note_on_c, 1, 66, 70
1, 17136, Note_on_c, 0, 81, 75
1, 17156, Note_on_c, 0, 81, 0
1, 17177, Note_on_c, 1, 75, 0
1, 17177, Note_on_c, 1, 66, 0
1, 17184, Note_on_c, 0, 81, 75
1, 17184, Note_on_c, 1, 76, 70
1, 17184, Note_on_c, 1, 64, 70
1, 17232, Note_on_c, 0, 81, 0
1, 17232, Note_on_c, 0, 79, 75
1, 17273, Note_on_c, 1, 76, 0
1, 17273, Note_on_c, 1, 64, 0
1, 17277, Note_on_c, 0, 79, 0
1, 17280, Note_on_c, 0, 79, 75
1, 17280, Note_on_c, 1, 72, 70
1, 17280, Note_on_c, 1, 69, 70
1, 17328, Note_on_c, 0, 79, 0
1, 17328, Note_on_c, 0, 78, 75
1, 17369, Note_on_c, 1, 72, 0
1, 17369, Note_on_c, 1, 69, 0
1, 17373, Note_on_c, 0, 78, 0
1, 17376, Note_on_c, 0, 78, 75
1, 17376, Note_on_c, 1, 71, 70
1, 17376, Note_on_c, 1, 67, 70
1, 17424, Note_on_c, 0, 78, 0
1, 17424, Note_on_c, 0, 76, 75
1, 17465, Note_on_c, 1, 71, 0
1, 17465, Note_on_c, 1, 67, 0
1, 17469, Note_on_c, 0, 76, 0
1, 17472, Note_on_c, 0, 78, 75
1, 17484, Note_on_c, 0, 78, 0
1, 17484, Note_on_c, 0, 76, 75
1, 17496, Note_on_c, 0, 76, 0
1, 17496, Note_on_c, 0, 74, 75
1, 17508, Note_on_c, 0, 74, 0
1, 17508, Note_on_c, 0, 76, 75
1, 17539, Note_on_c, 0, 76, 0
1, 17544, Note_on_c, 0, 83, 75
1, 17567, Note_on_c, 0, 83, 0
1, 17568, Note_on_c, 0, 83, 75
1, 17616, Note_on_c, 0, 83, 0
1, 17616, Note_on_c, 0, 81, 75
1, 17661, Note_on_c, 0, 81, 0
1, 17664, Note_on_c, 1, 73, 70
1, 17664, Note_on_c, 1, 64, 70
1, 17712, Note_on_c, 0, 79, 75
1, 17732, Note_on_c, 0, 79, 0
1, 17753, Note_on_c, 1, 73, 0
1, 17753, Note_on_c, 1, 64, 0
1, 17760, Note_on_c, 0, 79, 75
1, 17760, Note_on_c, 1, 74, 70
1, 17760, Note_on_c, 1, 62, 70
1, 17808, Note_on_c, 0, 79, 0
1, 17808, Note_on_c, 0, 78, 75
1, 17849, Note_on_c, 1, 74, 0
1, 17849, Note_on_c, 1, 62, 0
1, 17853, Note_on_c, 0, 78, 0
1, 17856, Note_on_c, 0, 78, 75
1, 17856, Note_on_c, 1, 71, 70
1, 17856, Note_on_c, 1, 67, 70
1, 17904, Note_on_c, 0, 78, 0
1, 17904, Note_on_c, 0, 76, 75
1, 17945, Note_on_c, 1, 71, 0
1, 17945, Note_on_c, 1, 67, 0
1, 17949, Note_on_c, 0, 76, 0
1, 17952, Note_on_c, 0, 76, 75
1, 17952, Note_on_c, 1, 69, 70
1, 17952, Note_on_c, 1, 66, 70
1, 18000, Note_on_c, 0, 76, 0
1, 18000, Note_on_c, 0, 74, 75
1, 18041, Note_on_c, 1, 69, 0
1, 18041, Note_on_c, 1, 66, 0
1, 18045, Note_on_c, 0, 74, 0
1, 18048, Note_on_c, 0, 76, 75
1, 18060, Note_on_c, 0, 76, 0
1, 18060, Note_on_c, 0, 74, 75
1, 18072, Note_on_c, 0, 74, 0
1, 18072, Note_on_c, 0, 73, 75
1, 18084, Note_on_c, 0, 73, 0
1, 18084, Note_on_c, 0, 74, 75
1, 18115, Note_on_c, 0, 74, 0
1, 18120, Note_on_c, 0, 81, 75
1, 18143, Note_on_c, 0, 81, 0
1, 18144, Note_on_c, 0, 81, 75
1, 18192, Note_on_c, 0, 81, 0
1, 18192, Note_on_c, 0, 76, 75
1, 18237, Note_on_c, 0, 76, 0
1, 18240, Note_on_c, 1, 69, 70
1, 18240, Note_on_c, 1, 61, 70
1, 18288, Note_on_c, 0, 77, 75
1, 18300, Note_on_c, 0, 77, 0
1, 18300, Note_on_c, 0, 76, 75
1, 18312, Note_on_c, 0, 76, 0
1, 18312, Note_on_c, 0, 74, 75
1, 18324, Note_on_c, 0, 74, 0
1, 18324, Note_on_c, 0, 76, 75
1, 18329, Note_on_c, 1, 69, 0
1, 18329, Note_on_c, 1, 61, 0
1, 18336, Note_on_c, 0, 76, 0
1, 18336, Note_on_c, 0, 77, 75
1, 18336, Note_on_c, 1, 69, 70
1, 18336, Note_on_c, 1, 62, 70
1, 18384, Note_on_c, 0, 77, 0
1, 18384, Note_on_c, 0, 74, 75
1, 18425, Note_on_c, 1, 69, 0
1, 18425, Note_on_c, 1, 62, 0
1, 18429, Note_on_c, 0, 74, 0
1, 18432, Note_on_c, 0, 73, 75
1, 18432, Note_on_c, 1, 69, 70
1, 18480, Note_on_c, 0, 73, 0
1, 18480, Note_on_c, 0, 76, 75
1, 18521, Note_on_c, 1, 69, 0
1, 18525, Note_on_c, 0, 76, 0
1, 18528, Note_on_c, 1, 57, 70
1, 18576, Note_on_c, 0, 69, 75
1, 18617, Note_on_c, 1, 57, 0
1, 18621, Note_on_c, 0, 69, 0
1, 18624, Note_on_c, 0, 70, 75
1, 18624, Note_on_c, 1, 67, 70
1, 18647, Note_on_c, 0, 70, 0
1, 18648, Note_on_c, 0, 71, 75
1, 18669, Note_on_c, 1, 67, 0
1, 18671, Note_on_c, 0, 71, 0
1, 18672, Note_on_c, 0, 72, 75
1, 18672, Note_on_c, 1, 64, 70
1, 18695, Note_on_c, 0, 72, 0
1, 18696, Note_on_c, 0, 73, 75
1, 18717, Note_on_c, 1, 64, 0
1, 18719, Note_on_c, 0, 73, 0
1, 18720, Note_on_c, 0, 74, 75
1, 18720, Note_on_c, 1, 62, 70
1, 18720, Note_on_c, 1, 62, 75
1, 18765, Note_on_c, 0, 74, 0
1, 18768, Note_on_c, 0, 74, 75
1, 18809, Note_on_c, 1, 62, 0
1, 18816, Note_on_c, 1, 61, 75
1, 18857, Note_on_c, 0, 74, 0
1, 18864, Note_on_c, 0, 76, 76
1, 18905, Note_on_c, 1, 61, 0
1, 18912, Note_on_c, 1, 60, 76
1, 18953, Note_on_c, 0, 76, 0
1, 18960, Note_on_c, 0, 78, 77
1, 19001, Note_on_c, 1, 60, 0
1, 19008, Note_on_c, 1, 59, 77
1, 19053, Note_on_c, 0, 78, 0
1, 19056, Note_on_c, 0, 79, 77
1, 19097, Note_on_c, 1, 59, 0
1, 19104, Note_on_c, 1, 58, 78
1, 19145, Note_on_c, 0, 79, 0
1, 19152, Note_on_c, 0, 80, 78
1, 19193, Note_on_c, 1, 58, 0
1, 19200, Note_on_c, 1, 57, 79
1, 19241, Note_on_c, 0, 80, 0
1, 19248, Note_on_c, 0, 81, 79
1, 19289, Note_on_c, 1, 57, 0
1, 19296, Note_on_c, 1, 55, 80
1, 19341, Note_on_c, 0, 81, 0
1, 19344, Note_on_c, 0, 83, 80
1, 19385, Note_on_c, 1, 62, 0
1, 19385, Note_on_c, 1, 55, 0
1, 19392, Note_on_c, 1, 63, 75
1, 19392, Note_on_c, 1, 54, 81
1, 19433, Note_on_c, 0, 83, 0
1, 19440, Note_on_c, 0, 84, 97
1, 19481, Note_on_c, 1, 63, 0
1, 19481, Note_on_c, 1, 54, 0
1, 19488, Note_on_c, 1, 64, 74
1, 19488, Note_on_c, 1, 55, 79
1, 19536, Note_on_c, 0, 84, 0
1, 19536, Note_on_c, 0, 83, 79
1, 19577, Note_on_c, 1, 64, 0
1, 19581, Note_on_c, 0, 83, 0
1, 19584, Note_on_c, 0, 81, 78
1, 19584, Note_on_c, 1, 67, 73
1, 19607, Note_on_c, 0, 81, 0
1, 19608, Note_on_c, 0, 79, 78
1, 19631, Note_on_c, 0, 79, 0
1, 19632, Note_on_c, 0, 78, 78
1, 19655, Note_on_c, 0, 78, 0
1, 19656, Note_on_c, 0, 76, 77
1, 19673, Note_on_c, 1, 67, 0
1, 19673, Note_on_c, 1, 55, 0
1, 19679, Note_on_c, 0, 76, 0
1, 19680, Note_on_c, 0, 74, 77
1, 19680, Note_on_c, 1, 66, 72
1, 19680, Note_on_c, 1, 57, 77
1, 19769, Note_on_c, 0, 74, 0
1, 19769, Note_on_c, 1, 66, 0
1, 19776, Note_on_c, 0, 73, 75
1, 19776, Note_on_c, 1, 64, 71
1, 19789, Note_on_c, 0, 73, 0
1, 19790, Note_on_c, 0, 74, 75
1, 19803, Note_on_c, 0, 74, 0
1, 19804, Note_on_c, 0, 73, 75
1, 19817, Note_on_c, 0, 73, 0
1, 19818, Note_on_c, 0, 74, 75
1, 19831, Note_on_c, 0, 74, 0
1, 19832, Note_on_c, 0, 73, 75
1, 19845, Note_on_c, 0, 73, 0
1, 19846, Note_on_c, 0, 71, 75
1, 19857, Note_on_c, 1, 57, 0
1, 19858, Note_on_c, 0, 71, 0
1, 19859, Note_on_c, 0, 73, 75
1, 19865, Note_on_c, 1, 64, 0
1, 19871, Note_on_c, 0, 73, 0
1, 19872, Note_on_c, 0, 74, 75
1, 19920, Note_on_c, 1, 62, 70
1, 19920, Note_on_c, 1, 62, 74
1, 19961, Note_on_c, 0, 74, 0
1, 19968, Note_on_c, 0, 76, 75
1, 20009, Note_on_c, 1, 62, 0
1, 20016, Note_on_c, 1, 61, 74
1, 20057, Note_on_c, 0, 76, 0
1, 20064, Note_on_c, 0, 78, 76
1, 20105, Note_on_c, 1, 61, 0
1, 20112, Note_on_c, 1, 60, 73
1, 20153, Note_on_c, 0, 78, 0
1, 20160, Note_on_c, 0, 79, 77
1, 20205, Note_on_c, 1, 60, 0
1, 20208, Note_on_c, 1, 59, 72
1, 20249, Note_on_c, 0, 79, 0
1, 20256, Note_on_c, 0, 80, 78
1, 20297, Note_on_c, 1, 59, 0
1, 20304, Note_on_c, 1, 58, 72
1, 20345, Note_on_c, 0, 80, 0
1, 20352, Note_on_c, 0, 81, 79
1, 20393, Note_on_c, 1, 58, 0
1, 20400, Note_on_c, 1, 57, 71
1, 20441, Note_on_c, 0, 81, 0
1, 20448, Note_on_c, 0, 83, 80
1, 20493, Note_on_c, 1, 57, 0
1, 20496, Note_on_c, 1, 55, 70
1, 20537, Note_on_c, 0, 83, 0
1, 20544, Note_on_c, 0, 84, 97
1, 20581, Note_on_c, 1, 62, 0
1, 20585, Note_on_c, 1, 55, 0
1, 20592, Note_on_c, 1, 63, 75
1, 20592, Note_on_c, 1, 54, 70
1, 20640, Note_on_c, 0, 84, 0
1, 20640, Note_on_c, 0, 83, 79
1, 20681, Note_on_c, 1, 63, 0
1, 20681, Note_on_c, 1, 54, 0
1, 20688, Note_on_c, 1, 64, 73
1, 20688, Note_on_c, 1, 55, 71
1, 20729, Note_on_c, 0, 83, 0
1, 20733, Note_on_c, 1, 64, 0
1, 20736, Note_on_c, 0, 81, 78
1, 20736, Note_on_c, 1, 67, 73
1, 20759, Note_on_c, 0, 81, 0
1, 20760, Note_on_c, 0, 79, 78
1, 20783, Note_on_c, 0, 79, 0
1, 20784, Note_on_c, 0, 78, 77
1, 20807, Note_on_c, 0, 78, 0
1, 20808, Note_on_c, 0, 76, 77
1, 20825, Note_on_c, 1, 67, 0
1, 20825, Note_on_c, 1, 55, 0
1, 20831, Note_on_c, 0, 76, 0
1, 20832, Note_on_c, 0, 74, 77
1, 20832, Note_on_c, 1, 66, 72
1, 20832, Note_on_c, 1, 57, 72
1, 20921, Note_on_c, 0, 74, 0
1, 20921, Note_on_c, 1, 66, 0
1, 20928, Note_on_c, 0, 73, 75
1, 20928, Note_on_c, 1, 64, 71
1, 20941, Note_on_c, 0, 73, 0
1, 20942, Note_on_c, 0, 74, 75
1, 20955, Note_on_c, 0, 74, 0
1, 20956, Note_on_c, 0, 73, 75
1, 20969, Note_on_c, 0, 73, 0
1, 20970, Note_on_c, 0, 74, 75
1, 20983, Note_on_c, 0, 74, 0
1, 20984, Note_on_c, 0, 73, 75
1, 20997, Note_on_c, 0, 73, 0
1, 20998, Note_on_c, 0, 71, 75
1, 21009, Note_on_c, 1, 57, 0
1, 21010, Note_on_c, 0, 71, 0
1, 21011, Note_on_c, 0, 73, 75
1, 21017, Note_on_c, 1, 64, 0
1, 21023, Note_on_c, 0, 73, 0
1, 21024, Note_on_c, 0, 74, 75
1, 21024, Note_on_c, 1, 62, 70
1, 21024, Note_on_c, 1, 62, 75
1, 21047, Note_on_c, 0, 74, 0
1, 21048, Note_on_c, 0, 78, 75
1, 21071, Note_on_c, 0, 78, 0
1, 21072, Note_on_c, 0, 81, 76
1, 21095, Note_on_c, 0, 81, 0
1, 21096, Note_on_c, 0, 86, 76
1, 21113, Note_on_c, 1, 62, 0
1, 21113, Note_on_c, 1, 62, 0
1, 21119, Note_on_c, 0, 86, 0
1, 21120, Note_on_c, 0, 85, 77
1, 21143, Note_on_c, 0, 85, 0
1, 21144, Note_on_c, 0, 83, 77
1, 21167, Note_on_c, 0, 83, 0
1, 21168, Note_on_c, 0, 81, 78
1, 21191, Note_on_c, 0, 81, 0
1, 21192, Note_on_c, 0, 79, 78
1, 21215, Note_on_c, 0, 79, 0
1, 21216, Note_on_c, 0, 78, 79
1, 21239, Note_on_c, 0, 78, 0
1, 21240, Note_on_c, 0, 76, 79
1, 21263, Note_on_c, 0, 76, 0
1, 21264, Note_on_c, 0, 74, 80
1, 21287, Note_on_c, 0, 74, 0
1, 21288, Note_on_c, 0, 73, 80
1, 21311, Note_on_c, 0, 73, 0
1, 21312, Note_on_c, 0, 74, 81
1, 21312, Note_on_c, 1, 62, 81
1, 21335, Note_on_c, 0, 74, 0
1, 21335, Note_on_c, 1, 62, 0
1, 21336, Note_on_c, 0, 78, 81
1, 21336, Note_on_c, 1, 66, 81
1, 21359, Note_on_c, 0, 78, 0
1, 21359, Note_on_c, 1, 66, 0
1, 21360, Note_on_c, 0, 81, 81
1, 21360, Note_on_c, 1, 69, 81
1, 21383, Note_on_c, 0, 81, 0
1, 21383, Note_on_c, 1, 69, 0
1, 21384, Note_on_c, 0, 79, 81
1, 21384, Note_on_c, 1, 67, 81
1, 21407, Note_on_c, 0, 79, 0
1, 21407, Note_on_c, 1, 67, 0
1, 21408, Note_on_c, 0, 78, 81
1, 21408, Note_on_c, 1, 66, 81
1, 21431, Note_on_c, 0, 78, 0
1, 21431, Note_on_c, 1, 66, 0
1, 21432, Note_on_c, 0, 76, 81
1, 21432, Note_on_c, 1, 64, 81
1, 21455, Note_on_c, 0, 76, 0
1, 21455, Note_on_c, 1, 64, 0
1, 21456, Note_on_c, 0, 74, 81
1, 21456, Note_on_c, 1, 62, 81
1, 21479, Note_on_c, 0, 74, 0
1, 21479, Note_on_c, 1, 62, 0
1, 21480, Note_on_c, 0, 73, 81
1, 21480, Note_on_c, 1, 61, 81
1, 21503, Note_on_c, 0, 73, 0
1, 21503, Note_on_c, 1, 61, 0
1, 21504, Note_on_c, 0, 71, 81
1, 21504, Note_on_c, 1, 59, 81
1, 21527, Note_on_c, 0, 71, 0
1, 21527, Note_on_c, 1, 59, 0
1, 21528, Note_on_c, 0, 69, 81
1, 21528, Note_on_c, 1, 57, 81
1, 21551, Note_on_c, 0, 69, 0
1, 21551, Note_on_c, 1, 57, 0
1, 21552, Note_on_c, 0, 67, 81
1, 21552, Note_on_c, 1, 55, 81
1, 21575, Note_on_c, 0, 67, 0
1, 21575, Note_on_c, 1, 55, 0
1, 21576, Note_on_c, 0, 66, 81
1, 21576, Note_on_c, 1, 54, 81
1, 21599, Note_on_c, 0, 66, 0
1, 21599, Note_on_c, 1, 54, 0
1, 21600, Note_on_c, 0, 64, 81
1, 21600, Note_on_c, 1, 55, 81
1, 21623, Note_on_c, 0, 64, 0
1, 21624, Note_on_c, 0, 71, 80
1, 21647, Note_on_c, 0, 71, 0
1, 21648, Note_on_c, 0, 67, 79
1, 21671, Note_on_c, 0, 67, 0
1, 21672, Note_on_c, 0, 64, 78
1, 21689, Note_on_c, 1, 55, 0
1, 21695, Note_on_c, 0, 64, 0
1, 21696, Note_on_c, 0, 62, 78
1, 21696, Note_on_c, 1, 54, 79
1, 21696, Note_on_c, 1, 45, 75
1, 21785, Note_on_c, 0, 62, 0
1, 21792, Note_on_c, 0, 61, 75
1, 21792, Note_on_c, 1, 54, 0
1, 21792, Note_on_c, 1, 52, 77
1, 21805, Note_on_c, 0, 61, 0
1, 21806, Note_on_c, 0, 62, 75
1, 21819, Note_on_c, 0, 62, 0
1, 21820, Note_on_c, 0, 61, 75
1, 21833, Note_on_c, 0, 61, 0
1, 21834, Note_on_c, 0, 62, 75
1, 21847, Note_on_c, 0, 62, 0
1, 21848, Note_on_c, 0, 61, 75
1, 21861, Note_on_c, 0, 61, 0
1, 21862, Note_on_c, 0, 59, 75
1, 21873, Note_on_c, 1, 45, 0
1, 21874, Note_on_c, 0, 59, 0
1, 21875, Note_on_c, 0, 61, 75
1, 21881, Note_on_c, 1, 52, 0
1, 21887, Note_on_c, 0, 61, 0
1, 21888, Note_on_c, 0, 62, 75
1, 21912, Note_on_c, 1, 50, 75
1, 21935, Note_on_c, 1, 50, 0
1, 21936, Note_on_c, 1, 45, 75
1, 21959, Note_on_c, 1, 45, 0
1, 21960, Note_on_c, 1, 42, 75
1, 21977, Note_on_c, 0, 62, 0
1, 21983, Note_on_c, 1, 42, 0
1, 21984, Note_on_c, 1, 38, 75
1, 22056, Note_on_c, 0, 62, 75
1, 22073, Note_on_c, 1, 38, 0
1, 22079, Note_on_c, 0, 62, 0
1, 22080, Note_on_c, 0, 63, 75
1, 22092, Note_on_c, 0, 63, 0
1, 22092, Note_on_c, 0, 62, 75
1, 22104, Note_on_c, 0, 62, 0
1, 22104, Note_on_c, 0, 61, 75
1, 22116, Note_on_c, 0, 61, 0
1, 22116, Note_on_c, 0, 62, 75
1, 22147, Note_on_c, 0, 62, 0
1, 22152, Note_on_c, 0, 74, 75
1, 22175, Note_on_c, 0, 74, 0
1, 22176, Note_on_c, 0, 74, 75
1, 22200, Note_on_c, 1, 41, 75
1, 22223, Note_on_c, 1, 41, 0
1, 22224, Note_on_c, 1, 45, 75
1, 22247, Note_on_c, 1, 45, 0
1, 22248, Note_on_c, 1, 50, 75
1, 22271, Note_on_c, 1, 50, 0
1, 22272, Note_on_c, 0, 74, 0
1, 22272, Note_on_c, 0, 62, 75
1, 22272, Note_on_c, 1, 53, 75
1, 22342, Note_on_c, 0, 62, 0
1, 22344, Note_on_c, 0, 62, 75
1, 22361, Note_on_c, 1, 53, 0
1, 22367, Note_on_c, 0, 62, 0
1, 22368, Note_on_c, 0, 63, 75
1, 22380, Note_on_c, 0, 63, 0
1, 22380, Note_on_c, 0, 62, 75
1, 22392, Note_on_c, 0, 62, 0
1, 22392, Note_on_c, 0, 61, 75
1, 22404, Note_on_c, 0, 61, 0
1, 22404, Note_on_c, 0, 62, 75
1, 22435, Note_on_c, 0, 62, 0
1, 22440, Note_on_c, 0, 74, 75
1, 22463, Note_on_c, 0, 74, 0
1, 22464, Note_on_c, 0, 74, 75
1, 22488, Note_on_c, 1, 43, 75
1, 22511, Note_on_c, 1, 43, 0
1, 22512, Note_on_c, 1, 46, 75
1, 22535, Note_on_c, 1, 46, 0
1, 22536, Note_on_c, 1, 51, 75
1, 22559, Note_on_c, 1, 51, 0
1, 22560, Note_on_c, 0, 74, 0
1, 22560, Note_on_c, 0, 63, 75
1, 22560, Note_on_c, 1, 55, 75
1, 22630, Note_on_c, 0, 63, 0
1, 22632, Note_on_c, 0, 63, 75
1, 22649, Note_on_c, 1, 55, 0
1, 22655, Note_on_c, 0, 63, 0
1, 22656, Note_on_c, 0, 65, 75
1, 22668, Note_on_c, 0, 65, 0
1, 22668, Note_on_c, 0, 63, 75
1, 22680, Note_on_c, 0, 63, 0
1, 22680, Note_on_c, 0, 62, 75
1, 22692, Note_on_c, 0, 62, 0
1, 22692, Note_on_c, 0, 63, 75
1, 22723, Note_on_c, 0, 63, 0
1, 22728, Note_on_c, 0, 74, 75
1, 22751, Note_on_c, 0, 74, 0
1, 22752, Note_on_c, 0, 74, 75
1, 22776, Note_on_c, 1, 45, 75
1, 22799, Note_on_c, 1, 45, 0
1, 22800, Note_on_c, 1, 48, 75
1, 22823, Note_on_c, 1, 48, 0
1, 22824, Note_on_c, 1, 54, 75
1, 22847, Note_on_c, 1, 54, 0
1, 22848, Note_on_c, 0, 74, 0
1, 22848, Note_on_c, 0, 66, 75
1, 22848, Note_on_c, 1, 57, 75
1, 22918, Note_on_c, 0, 66, 0
1, 22920, Note_on_c, 0, 66, 75
1, 22937, Note_on_c, 1, 57, 0
1, 22943, Note_on_c, 0, 66, 0
1, 22944, Note_on_c, 0, 67, 75
1, 22956, Note_on_c, 0, 67, 0
1, 22956, Note_on_c, 0, 66, 75
1, 22968, Note_on_c, 0, 66, 0
1, 22968, Note_on_c, 0, 65, 75
1, 22980, Note_on_c, 0, 65, 0
1, 22980, Note_on_c, 0, 66, 75
1, 23011, Note_on_c, 0, 66, 0
1, 23016, Note_on_c, 0, 74, 75
1, 23039, Note_on_c, 0, 74, 0
1, 23040, Note_on_c, 0, 74, 75
1, 23064, Note_on_c, 1, 46, 75
1, 23087, Note_on_c, 1, 46, 0
1, 23088, Note_on_c, 1, 50, 75
1, 23111, Note_on_c, 1, 50, 0
1, 23112, Note_on_c, 1, 55, 75
1, 23135, Note_on_c, 1, 55, 0
1, 23136, Note_on_c, 0, 74, 0
1, 23136, Note_on_c, 0, 67, 75
1, 23136, Note_on_c, 1, 58, 75
1, 23203, Note_on_c, 0, 67, 0
1, 23208, Note_on_c, 0, 74, 75
1, 23225, Note_on_c, 1, 58, 0
1, 23231, Note_on_c, 0, 74, 0
1, 23232, Note_on_c, 0, 75, 75
1, 23232, Note_on_c, 1, 70, 75
1, 23232, Note_on_c, 1, 67, 75
1, 23244, Note_on_c, 0, 75, 0
1, 23244, Note_on_c, 0, 74, 75
1, 23256, Note_on_c, 0, 74, 0
1, 23256, Note_on_c, 0, 73, 75
1, 23268, Note_on_c, 0, 73, 0
1, 23268, Note_on_c, 0, 74, 75
1, 23299, Note_on_c, 0, 74, 0
1, 23304, Note_on_c, 0, 79, 75
1, 23321, Note_on_c, 1, 70, 0
1, 23321, Note_on_c, 1, 67, 0
1, 23327, Note_on_c, 0, 79, 0
1, 23328, Note_on_c, 0, 79, 75
1, 23328, Note_on_c, 1, 69, 75
1, 23328, Note_on_c, 1, 62, 75
1, 23424, Note_on_c, 0, 79, 0
1, 23424, Note_on_c, 0, 78, 75
1, 23491, Note_on_c, 0, 78, 0
1, 23496, Note_on_c, 0, 74, 75
1, 23505, Note_on_c, 1, 69, 0
1, 23505, Note_on_c, 1, 62, 0
1, 23519, Note_on_c, 0, 74, 0
1, 23520, Note_on_c, 0, 75, 75
1, 23520, Note_on_c, 1, 70, 75
1, 23520, Note_on_c, 1, 67, 75
1, 23532, Note_on_c, 0, 75, 0
1, 23532, Note_on_c, 0, 74, 75
1, 23544, Note_on_c, 0, 74, 0
1, 23544, Note_on_c, 0, 73, 75
1, 23556, Note_on_c, 0, 73, 0
1, 23556, Note_on_c, 0, 74, 75
1, 23587, Note_on_c, 0, 74, 0
1, 23592, Note_on_c, 0, 82, 75
1, 23609, Note_on_c, 1, 70, 0
1, 23609, Note_on_c, 1, 67, 0
1, 23615, Note_on_c, 0, 82, 0
1, 23616, Note_on_c, 0, 82, 75
1, 23616, Note_on_c, 1, 67, 75
1, 23616, Note_on_c, 1, 62, 75
1, 23712, Note_on_c, 0, 82, 0
1, 23712, Note_on_c, 0, 81, 75
1, 23712, Note_on_c, 1, 67, 0
1, 23712, Note_on_c, 1, 66, 75
1, 23741, Note_on_c, 0, 81, 0
1, 23784, Note_on_c, 0, 74, 75
1, 23793, Note_on_c, 1, 62, 0
1, 23801, Note_on_c, 1, 66, 0
1, 23807, Note_on_c, 0, 74, 0
1, 23808, Note_on_c, 0, 75, 75
1, 23808, Note_on_c, 1, 67, 75
1, 23808, Note_on_c, 1, 58, 75
1, 23820, Note_on_c, 0, 75, 0
1, 23820, Note_on_c, 0, 74, 75
1, 23832, Note_on_c, 0, 74, 0
1, 23832, Note_on_c, 0, 73, 75
1, 23844, Note_on_c, 0, 73, 0
1, 23844, Note_on_c, 0, 74, 75
1, 23875, Note_on_c, 0, 74, 0
1, 23880, Note_on_c, 0, 75, 75
1, 23897, Note_on_c, 1, 58, 0
1, 23903, Note_on_c, 0, 75, 0
1, 23904, Note_on_c, 0, 75, 75
1, 23904, Note_on_c, 1, 60, 75
1, 23993, Note_on_c, 1, 67, 0
1, 24000, Note_on_c, 0, 75, 0
1, 24000, Note_on_c, 0, 72, 75
1, 24000, Note_on_c, 1, 69, 75
1, 24045, Note_on_c, 0, 72, 0
1, 24048, Note_on_c, 0, 84, 75
1, 24081, Note_on_c, 1, 60, 0
1, 24089, Note_on_c, 1, 69, 0
1, 24093, Note_on_c, 0, 84, 0
1, 24096, Note_on_c, 0, 86, 75
1, 24119, Note_on_c, 0, 86, 0
1, 24120, Note_on_c, 0, 84, 75
1, 24143, Note_on_c, 0, 84, 0
1, 24144, Note_on_c, 0, 82, 75
1, 24167, Note_on_c, 0, 82, 0
1, 24168, Note_on_c, 0, 81, 75
1, 24191, Note_on_c, 0, 81, 0
1, 24192, Note_on_c, 0, 79, 75
1, 24288, Note_on_c, 1, 62, 75
1, 24288, Note_on_c, 1, 60, 75
1, 24322, Note_on_c, 0, 79, 0
1, 24324, Note_on_c, 0, 78, 75
1, 24336, Note_on_c, 0, 78, 0
1, 24336, Note_on_c, 0, 79, 75
1, 24348, Note_on_c, 0, 79, 0
1, 24348, Note_on_c, 0, 78, 75
1, 24360, Note_on_c, 0, 78, 0
1, 24360, Note_on_c, 0, 76, 75
1, 24372, Note_on_c, 0, 76, 0
1, 24372, Note_on_c, 0, 78, 75
1, 24377, Note_on_c, 1, 60, 0
1, 24384, Note_on_c, 0, 78, 0
1, 24384, Note_on_c, 0, 79, 75
1, 24384, Note_on_c, 1, 58, 75
1, 24451, Note_on_c, 0, 79, 0
1, 24456, Note_on_c, 0, 74, 75
1, 24465, Note_on_c, 1, 62, 0
1, 24473, Note_on_c, 1, 58, 0
1, 24479, Note_on_c, 0, 74, 0
1, 24480, Note_on_c, 0, 62, 75
1, 24576, Note_on_c, 1, 54, 75
1, 24643, Note_on_c, 0, 62, 0
1, 24648, Note_on_c, 0, 72, 75
1, 24648, Note_on_c, 0, 69, 75
1, 24665, Note_on_c, 1, 54, 0
1, 24671, Note_on_c, 0, 72, 0
1, 24671, Note_on_c, 0, 69, 0
1, 24672, Note_on_c, 0, 72, 75
1, 24672, Note_on_c, 0, 69, 75
1, 24672, Note_on_c, 1, 55, 75
1, 24739, Note_on_c, 0, 72, 0
1, 24739, Note_on_c, 0, 69, 0
1, 24744, Note_on_c, 0, 70, 75
1, 24744, Note_on_c, 0, 67, 75
1, 24761, Note_on_c, 1, 55, 0
1, 24767, Note_on_c, 0, 70, 0
1, 24767, Note_on_c, 0, 67, 0
1, 24768, Note_on_c, 0, 70, 75
1, 24768, Note_on_c, 0, 67, 75
1, 24768, Note_on_c, 1, 50, 75
1, 24857, Note_on_c, 1, 50, 0
1, 24864, Note_on_c, 0, 70, 0
1, 24864, Note_on_c, 0, 67, 0
1, 24864, Note_on_c, 0, 69, 75
1, 24864, Note_on_c, 0, 66, 75
1, 24864, Note_on_c, 1, 62, 75
1, 24909, Note_on_c, 0, 69, 0
1, 24909, Note_on_c, 0, 66, 0
1, 24909, Note_on_c, 1, 62, 0
1, 24912, Note_on_c, 0, 74, 75
1, 24957, Note_on_c, 0, 74, 0
1, 24960, Note_on_c, 0, 86, 75
1, 24983, Note_on_c, 0, 86, 0
1, 24984, Note_on_c, 0, 84, 75
1, 25007, Note_on_c, 0, 84, 0
1, 25008, Note_on_c, 0, 82, 75
1, 25031, Note_on_c, 0, 82, 0
1, 25032, Note_on_c, 0, 81, 75
1, 25055, Note_on_c, 0, 81, 0
1, 25056, Note_on_c, 0, 79, 75
1, 25152, Note_on_c, 0, 79, 0
1, 25152, Note_on_c, 0, 78, 75
1, 25152, Note_on_c, 1, 72, 64
1, 25152, Note_on_c, 1, 69, 64
1, 25152, Note_on_c, 1, 62, 64
1, 25175, Note_on_c, 0, 78, 0
1, 25176, Note_on_c, 0, 74, 75
1, 25199, Note_on_c, 0, 74, 0
1, 25200, Note_on_c, 0, 85, 75
1, 25224, Note_on_c, 0, 85, 0
1, 25224, Note_on_c, 0, 86, 75
1, 25246, Note_on_c, 1, 72, 0
1, 25246, Note_on_c, 1, 69, 0
1, 25246, Note_on_c, 1, 62, 0
1, 25247, Note_on_c, 0, 86, 0
1, 25248, Note_on_c, 0, 85, 75
1, 25272, Note_on_c, 0, 85, 0
1, 25272, Note_on_c, 0, 86, 75
1, 25295, Note_on_c, 0, 86, 0
1, 25296, Note_on_c, 0, 84, 75
1, 25320, Note_on_c, 0, 84, 0
1, 25320, Note_on_c, 0, 82, 75
1, 25343, Note_on_c, 0, 82, 0
1, 25344, Note_on_c, 0, 82, 91
1, 25440, Note_on_c, 0, 82, 0
1, 25440, Note_on_c, 0, 81, 75
1, 25440, Note_on_c, 1, 66, 64
1, 25440, Note_on_c, 1, 62, 64
1, 25485, Note_on_c, 0, 81, 0
1, 25488, Note_on_c, 0, 74, 91
1, 25529, Note_on_c, 1, 66, 0
1, 25529, Note_on_c, 1, 62, 0
1, 25536, Note_on_c, 1, 67, 75
1, 25536, Note_on_c, 1, 58, 75
1, 25584, Note_on_c, 0, 74, 0
1, 25584, Note_on_c, 0, 86, 91
1, 25632, Note_on_c, 1, 58, 0
1, 25632, Note_on_c, 1, 60, 75
1, 25677, Note_on_c, 0, 86, 0
1, 25680, Note_on_c, 0, 75, 91
1, 25721, Note_on_c, 1, 67, 0
1, 25728, Note_on_c, 1, 68, 75
1, 25776, Note_on_c, 0, 75, 0
1, 25776, Note_on_c, 0, 84, 91
1, 25817, Note_on_c, 1, 68, 0
1, 25824, Note_on_c, 1, 72, 75
1, 25872, Note_on_c, 0, 84, 0
1, 25872, Note_on_c, 0, 87, 91
1, 25897, Note_on_c, 1, 60, 0
1, 25920, Note_on_c, 1, 62, 75
1, 25965, Note_on_c, 0, 87, 0
1, 25968, Note_on_c, 0, 78, 91
1, 26009, Note_on_c, 1, 72, 0
1, 26016, Note_on_c, 1, 69, 75
1, 26064, Note_on_c, 0, 78, 0
1, 26064, Note_on_c, 0, 84, 91
1, 26097, Note_on_c, 1, 62, 0
1, 26105, Note_on_c, 1, 69, 0
1, 26112, Note_on_c, 1, 67, 75
1, 26112, Note_on_c, 1, 63, 75
1, 26160, Note_on_c, 0, 84, 0
1, 26160, Note_on_c, 0, 82, 91
1, 26201, Note_on_c, 1, 63, 0
1, 26208, Note_on_c, 0, 82, 0
1, 26208, Note_on_c, 1, 60, 75
1, 26232, Note_on_c, 0, 75, 75
1, 26255, Note_on_c, 0, 75, 0
1, 26256, Note_on_c, 0, 74, 75
1, 26279, Note_on_c, 0, 74, 0
1, 26280, Note_on_c, 0, 72, 75
1, 26297, Note_on_c, 1, 60, 0
1, 26303, Note_on_c, 0, 72, 0
1, 26304, Note_on_c, 0, 70, 75
1, 26304, Note_on_c, 1, 62, 75
1, 26385, Note_on_c, 1, 67, 0
1, 26400, Note_on_c, 1, 66, 75
1, 26437, Note_on_c, 0, 70, 0
1, 26448, Note_on_c, 0, 69, 75
1, 26460, Note_on_c, 0, 69, 0
1, 26460, Note_on_c, 0, 70, 75
1, 26472, Note_on_c, 0, 70, 0
1, 26472, Note_on_c, 0, 69, 75
1, 26481, Note_on_c, 1, 62, 0
1, 26489, Note_on_c, 1, 66, 0
1, 26493, Note_on_c, 0, 69, 0
1, 26496, Note_on_c, 0, 67, 75
1, 26520, Note_on_c, 1, 43, 75
1, 26543, Note_on_c, 1, 43, 0
1, 26544, Note_on_c, 1, 46, 75
1, 26567, Note_on_c, 1, 46, 0
1, 26568, Note_on_c, 1, 50, 75
1, 26585, Note_on_c, 0, 67, 0
1, 26591, Note_on_c, 1, 50, 0
1, 26592, Note_on_c, 1, 55, 75
1, 26664, Note_on_c, 0, 70, 75
1, 26681, Note_on_c, 1, 55, 0
1, 26687, Note_on_c, 0, 70, 0
1, 26688, Note_on_c, 0, 72, 75
1, 26700, Note_on_c, 0, 72, 0
1, 26700, Note_on_c, 0, 70, 75
1, 26712, Note_on_c, 0, 70, 0
1, 26712, Note_on_c, 0, 69, 75
1, 26724, Note_on_c, 0, 69, 0
1, 26724, Note_on_c, 0, 70, 75
1, 26755, Note_on_c, 0, 70, 0
1, 26760, Note_on_c, 0, 74, 75
1, 26783, Note_on_c, 0, 74, 0
1, 26784, Note_on_c, 0, 72, 75
1, 26808, Note_on_c, 1, 50, 75
1, 26831, Note_on_c, 1, 50, 0
1, 26832, Note_on_c, 1, 53, 75
1, 26855, Note_on_c, 1, 53, 0
1, 26856, Note_on_c, 1, 58, 75
1, 26879, Note_on_c, 1, 58, 0
1, 26880, Note_on_c, 0, 72, 0
1, 26880, Note_on_c, 0, 70, 75
1, 26880, Note_on_c, 1, 62, 75
1, 26903, Note_on_c, 0, 70, 0
1, 26904, Note_on_c, 0, 65, 75
1, 26927, Note_on_c, 0, 65, 0
1, 26928, Note_on_c, 0, 74, 75
1, 26951, Note_on_c, 0, 74, 0
1, 26952, Note_on_c, 0, 70, 75
1, 26969, Note_on_c, 1, 62, 0
1, 26975, Note_on_c, 0, 70, 0
1, 26976, Note_on_c, 0, 77, 75
1, 26999, Note_on_c, 0, 77, 0
1, 27000, Note_on_c, 0, 74, 75
1, 27023, Note_on_c, 0, 74, 0
1, 27024, Note_on_c, 0, 72, 75
1, 27047, Note_on_c, 0, 72, 0
1, 27048, Note_on_c, 0, 70, 75
1, 27071, Note_on_c, 0, 70, 0
1, 27072, Note_on_c, 0, 71, 75
1, 27168, Note_on_c, 0, 71, 0
1, 27168, Note_on_c, 0, 72, 75
1, 27168, Note_on_c, 1, 67, 75
1, 27168, Note_on_c, 1, 63, 75
1, 27235, Note_on_c, 0, 72, 0
1, 27240, Note_on_c, 0, 72, 75
1, 27257, Note_on_c, 1, 67, 0
1, 27257, Note_on_c, 1, 63, 0
1, 27263, Note_on_c, 0, 72, 0
1, 27264, Note_on_c, 0, 74, 75
1, 27276, Note_on_c, 0, 74, 0
1, 27276, Note_on_c, 0, 72, 75
1, 27288, Note_on_c, 0, 72, 0
1, 27288, Note_on_c, 0, 71, 75
1, 27300, Note_on_c, 0, 71, 0
1, 27300, Note_on_c, 0, 72, 75
1, 27331, Note_on_c, 0, 72, 0
1, 27336, Note_on_c, 0, 75, 75
1, 27359, Note_on_c, 0, 75, 0
1, 27360, Note_on_c, 0, 74, 75
1, 27384, Note_on_c, 1, 53, 75
1, 27407, Note_on_c, 1, 53, 0
1, 27408, Note_on_c, 1, 57, 75
1, 27431, Note_on_c, 1, 57, 0
1, 27432, Note_on_c, 1, 60, 75
1, 27449, Note_on_c, 0, 74, 0
1, 27455, Note_on_c, 1, 60, 0
1, 27456, Note_on_c, 0, 72, 75
1, 27456, Note_on_c, 1, 65, 75
1, 27479, Note_on_c, 0, 72, 0
1, 27480, Note_on_c, 0, 69, 75
1, 27503, Note_on_c, 0, 69, 0
1, 27504, Note_on_c, 0, 75, 75
1, 27527, Note_on_c, 0, 75, 0
1, 27528, Note_on_c, 0, 72, 75
1, 27545, Note_on_c, 1, 65, 0
1, 27551, Note_on_c, 0, 72, 0
1, 27552, Note_on_c, 0, 79, 75
1, 27575, Note_on_c, 0, 79, 0
1, 27576, Note_on_c, 0, 75, 75
1, 27599, Note_on_c, 0, 75, 0
1, 27600, Note_on_c, 0, 74, 75
1, 27623, Note_on_c, 0, 74, 0
1, 27624, Note_on_c, 0, 72, 75
1, 27647, Note_on_c, 0, 72, 0
1, 27648, Note_on_c, 0, 73, 75
1, 27744, Note_on_c, 0, 73, 0
1, 27744, Note_on_c, 0, 74, 75
1, 27744, Note_on_c, 1, 65, 75
1, 27744, Note_on_c, 1, 58, 75
1, 27811, Note_on_c, 0, 74, 0
1, 27816, Note_on_c, 0, 74, 75
1, 27833, Note_on_c, 1, 65, 0
1, 27833, Note_on_c, 1, 58, 0
1, 27840, Note_on_c, 0, 74, 0
1, 27840, Note_on_c, 0, 82, 75
1, 27869, Note_on_c, 0, 82, 0
1, 27912, Note_on_c, 0, 81, 75
1, 27912, Note_on_c, 1, 58, 75
1, 27936, Note_on_c, 0, 81, 0
1, 27936, Note_on_c, 0, 79, 75
1, 27936, Note_on_c, 1, 58, 0
1, 27936, Note_on_c, 1, 63, 75
1, 27965, Note_on_c, 0, 79, 0
1, 27965, Note_on_c, 1, 63, 0
1, 28008, Note_on_c, 0, 77, 75
1, 28008, Note_on_c, 1, 62, 75
1, 28032, Note_on_c, 0, 77, 0
1, 28032, Note_on_c, 0, 75, 75
1, 28032, Note_on_c, 1, 62, 0
1, 28032, Note_on_c, 1, 67, 75
1, 28061, Note_on_c, 0, 75, 0
1, 28061, Note_on_c, 1, 67, 0
1, 28104, Note_on_c, 0, 74, 75
1, 28104, Note_on_c, 1, 65, 75
1, 28127, Note_on_c, 0, 74, 0
1, 28127, Note_on_c, 1, 65, 0
1, 28128, Note_on_c, 0, 72, 75
1, 28128, Note_on_c, 1, 63, 75
1, 28151, Note_on_c, 0, 72, 0
1, 28151, Note_on_c, 1, 63, 0
1, 28152, Note_on_c, 0, 74, 75
1, 28152, Note_on_c, 1, 65, 75
1, 28175, Note_on_c, 0, 74, 0
1, 28175, Note_on_c, 1, 65, 0
1, 28176, Note_on_c, 0, 72, 75
1, 28176, Note_on_c, 1, 63, 75
1, 28199, Note_on_c, 0, 72, 0
1, 28199, Note_on_c, 1, 63, 0
1, 28200, Note_on_c, 0, 70, 75
1, 28200, Note_on_c, 1, 62, 75
1, 28223, Note_on_c, 0, 70, 0
1, 28223, Note_on_c, 1, 62, 0
1, 28224, Note_on_c, 0, 69, 75
1, 28224, Note_on_c, 1, 60, 75
1, 28247, Note_on_c, 0, 69, 0
1, 28247, Note_on_c, 1, 60, 0
1, 28248, Note_on_c, 0, 70, 75
1, 28248, Note_on_c, 1, 62, 75
1, 28271, Note_on_c, 0, 70, 0
1, 28271, Note_on_c, 1, 62, 0
1, 28272, Note_on_c, 0, 69, 75
1, 28272, Note_on_c, 1, 60, 75
1, 28295, Note_on_c, 0, 69, 0
1, 28295, Note_on_c, 1, 60, 0
1, 28296, Note_on_c, 0, 67, 75
1, 28296, Note_on_c, 1, 58, 75
1, 28319, Note_on_c, 0, 67, 0
1, 28319, Note_on_c, 1, 58, 0
1, 28320, Note_on_c, 0, 65, 75
1, 28320, Note_on_c, 1, 57, 75
1, 28387, Note_on_c, 0, 65, 0
1, 28387, Note_on_c, 1, 57, 0
1, 28392, Note_on_c, 0, 75, 75
1, 28392, Note_on_c, 1, 53, 75
1, 28416, Note_on_c, 0, 75, 0
1, 28416, Note_on_c, 0, 74, 75
1, 28416, Note_on_c, 1, 53, 0
1, 28416, Note_on_c, 1, 58, 75
1, 28436, Note_on_c, 0, 74, 0
1, 28445, Note_on_c, 1, 58, 0
1, 28488, Note_on_c, 1, 50, 75
1, 28511, Note_on_c, 1, 50, 0
1, 28512, Note_on_c, 1, 51, 75
1, 28584, Note_on_c, 0, 72, 75
1, 28601, Note_on_c, 1, 51, 0
1, 28608, Note_on_c, 0, 72, 0
1, 28608, Note_on_c, 0, 75, 75
1, 28637, Note_on_c, 0, 75, 0
1, 28680, Note_on_c, 0, 72, 75
1, 28704, Note_on_c, 0, 72, 0
1, 28704, Note_on_c, 0, 70, 75
1, 28704, Note_on_c, 1, 53, 75
1, 28733, Note_on_c, 0, 70, 0
1, 28776, Note_on_c, 0, 69, 75
1, 28793, Note_on_c, 1, 53, 0
1, 28799, Note_on_c, 0, 69, 0
1, 28800, Note_on_c, 0, 70, 75
1, 28872, Note_on_c, 1, 46, 75
1, 28889, Note_on_c, 0, 70, 0
1, 28895, Note_on_c, 1, 46, 0
1, 28896, Note_on_c, 1, 58, 75
1, 28968, Note_on_c, 0, 74, 75
1, 28985, Note_on_c, 1, 58, 0
1, 28991, Note_on_c, 0, 74, 0
1, 28992, Note_on_c, 0, 75, 75
1, 29004, Note_on_c, 0, 75, 0
1, 29004, Note_on_c, 0, 74, 75
1, 29016, Note_on_c, 0, 74, 0
1, 29016, Note_on_c, 0, 72, 75
1, 29028, Note_on_c, 0, 72, 0
1, 29028, Note_on_c, 0, 74, 75
1, 29040, Note_on_c, 0, 74, 0
1, 29040, Note_on_c, 0, 75, 75
1, 29063, Note_on_c, 0, 75, 0
1, 29064, Note_on_c, 0, 77, 75
1, 29087, Note_on_c, 0, 77, 0
1, 29088, Note_on_c, 0, 72, 75
1, 29112, Note_on_c, 1, 55, 75
1, 29135, Note_on_c, 1, 55, 0
1, 29136, Note_on_c, 1, 62, 75
1, 29159, Note_on_c, 1, 62, 0
1, 29160, Note_on_c, 1, 65, 75
1, 29183, Note_on_c, 1, 65, 0
1, 29184, Note_on_c, 1, 68, 75
1, 29207, Note_on_c, 0, 72, 0
1, 29208, Note_on_c, 0, 71, 75
1, 29231, Note_on_c, 0, 71, 0
1, 29232, Note_on_c, 0, 74, 75
1, 29255, Note_on_c, 0, 74, 0
1, 29256, Note_on_c, 0, 77, 75
1, 29273, Note_on_c, 1, 68, 0
1, 29279, Note_on_c, 0, 77, 0
1, 29280, Note_on_c, 0, 80, 75
1, 29303, Note_on_c, 0, 80, 0
1, 29304, Note_on_c, 0, 77, 75
1, 29327, Note_on_c, 0, 77, 0
1, 29328, Note_on_c, 0, 75, 75
1, 29351, Note_on_c, 0, 75, 0
1, 29352, Note_on_c, 0, 74, 75
1, 29375, Note_on_c, 0, 74, 0
1, 29376, Note_on_c, 0, 77, 75
1, 29400, Note_on_c, 1, 48, 75
1, 29423, Note_on_c, 1, 48, 0
1, 29424, Note_on_c, 1, 51, 75
1, 29447, Note_on_c, 1, 51, 0
1, 29448, Note_on_c, 1, 55, 75
1, 29471, Note_on_c, 1, 55, 0
1, 29472, Note_on_c, 0, 77, 0
1, 29472, Note_on_c, 0, 75, 75
1, 29472, Note_on_c, 1, 60, 75
1, 29539, Note_on_c, 0, 75, 0
1, 29544, Note_on_c, 0, 75, 75
1, 29561, Note_on_c, 1, 60, 0
1, 29567, Note_on_c, 0, 75, 0
1, 29568, Note_on_c, 0, 77, 75
1, 29580, Note_on_c, 0, 77, 0
1, 29580, Note_on_c, 0, 75, 75
1, 29592, Note_on_c, 0, 75, 0
1, 29592, Note_on_c, 0, 74, 75
1, 29604, Note_on_c, 0, 74, 0
1, 29604, Note_on_c, 0, 75, 75
1, 29616, Note_on_c, 0, 75, 0
1, 29616, Note_on_c, 0, 77, 75
1, 29639, Note_on_c, 0, 77, 0
1, 29640, Note_on_c, 0, 79, 75
1, 29663, Note_on_c, 0, 79, 0
1, 29664, Note_on_c, 0, 74, 75
1, 29688, Note_on_c, 1, 57, 75
1, 29711, Note_on_c, 1, 57, 0
1, 29712, Note_on_c, 1, 64, 75
1, 29735, Note_on_c, 1, 64, 0
1, 29736, Note_on_c, 1, 67, 75
1, 29759, Note_on_c, 1, 67, 0
1, 29760, Note_on_c, 1, 70, 75
1, 29783, Note_on_c, 0, 74, 0
1, 29784, Note_on_c, 0, 73, 75
1, 29807, Note_on_c, 0, 73, 0
1, 29808, Note_on_c, 0, 76, 75
1, 29831, Note_on_c, 0, 76, 0
1, 29832, Note_on_c, 0, 79, 75
1, 29849, Note_on_c, 1, 70, 0
1, 29855, Note_on_c, 0, 79, 0
1, 29856, Note_on_c, 0, 82, 75
1, 29879, Note_on_c, 0, 82, 0
1, 29880, Note_on_c, 0, 79, 75
1, 29903, Note_on_c, 0, 79, 0
1, 29904, Note_on_c, 0, 77, 75
1, 29927, Note_on_c, 0, 77, 0
1, 29928, Note_on_c, 0, 76, 75
1, 29951, Note_on_c, 0, 76, 0
1, 29952, Note_on_c, 0, 79, 75
1, 29976, Note_on_c, 1, 50, 75
1, 29999, Note_on_c, 1, 50, 0
1, 30000, Note_on_c, 1, 54, 75
1, 30023, Note_on_c, 1, 54, 0
1, 30024, Note_on_c, 1, 57, 75
1, 30047, Note_on_c, 1, 57, 0
1, 30048, Note_on_c, 0, 79, 0
1, 30048, Note_on_c, 0, 78, 75
1, 30048, Note_on_c, 1, 62, 75
1, 30115, Note_on_c, 0, 78, 0
1, 30120, Note_on_c, 0, 74, 75
1, 30137, Note_on_c, 1, 62, 0
1, 30143, Note_on_c, 0, 74, 0
1, 30144, Note_on_c, 0, 75, 75
1, 30144, Note_on_c, 1, 70, 75
1, 30144, Note_on_c, 1, 67, 75
1, 30156, Note_on_c, 0, 75, 0
1, 30156, Note_on_c, 0, 74, 75
1, 30168, Note_on_c, 0, 74, 0
1, 30168, Note_on_c, 0, 73, 75
1, 30180, Note_on_c, 0, 73, 0
1, 30180, Note_on_c, 0, 74, 75
1, 30211, Note_on_c, 0, 74, 0
1, 30216, Note_on_c, 0, 79, 75
1, 30233, Note_on_c, 1, 70, 0
1, 30233, Note_on_c, 1, 67, 0
1, 30239, Note_on_c, 0, 79, 0
1, 30240, Note_on_c, 0, 79, 75
1, 30240, Note_on_c, 1, 69, 75
1, 30240, Note_on_c, 1, 62, 75
1, 30336, Note_on_c, 0, 79, 0
1, 30336, Note_on_c, 0, 78, 75
1, 30403, Note_on_c, 0, 78, 0
1, 30408, Note_on_c, 0, 74, 75
1, 30417, Note_on_c, 1, 69, 0
1, 30417, Note_on_c, 1, 62, 0
1, 30431, Note_on_c, 0, 74, 0
1, 30432, Note_on_c, 0, 75, 75
1, 30432, Note_on_c, 1, 70, 75
1, 30432, Note_on_c, 1, 67, 75
1, 30444, Note_on_c, 0, 75, 0
1, 30444, Note_on_c, 0, 74, 75
1, 30456, Note_on_c, 0, 74, 0
1, 30456, Note_on_c, 0, 73, 75
1, 30468, Note_on_c, 0, 73, 0
1, 30468, Note_on_c, 0, 74, 75
1, 30499, Note_on_c, 0, 74, 0
1, 30504, Note_on_c, 0, 82, 75
1, 30521, Note_on_c, 1, 70, 0
1, 30521, Note_on_c, 1, 67, 0
1, 30527, Note_on_c, 0, 82, 0
1, 30528, Note_on_c, 0, 82, 75
1, 30528, Note_on_c, 1, 67, 75
1, 30528, Note_on_c, 1, 62, 75
1, 30624, Note_on_c, 0, 82, 0
1, 30624, Note_on_c, 0, 81, 75
1, 30624, Note_on_c, 1, 67, 0
1, 30624, Note_on_c, 1, 66, 75
1, 30653, Note_on_c, 0, 81, 0
1, 30696, Note_on_c, 0, 74, 75
1, 30705, Note_on_c, 1, 62, 0
1, 30713, Note_on_c, 1, 66, 0
1, 30719, Note_on_c, 0, 74, 0
1, 30720, Note_on_c, 0, 75, 75
1, 30720, Note_on_c, 1, 67, 75
1, 30720, Note_on_c, 1, 58, 75
1, 30732, Note_on_c, 0, 75, 0
1, 30732, Note_on_c, 0, 74, 75
1, 30744, Note_on_c, 0, 74, 0
1, 30744, Note_on_c, 0, 73, 75
1, 30756, Note_on_c, 0, 73, 0
1, 30756, Note_on_c, 0, 74, 75
1, 30787, Note_on_c, 0, 74, 0
1, 30792, Note_on_c, 0, 86, 75
1, 30809, Note_on_c, 1, 58, 0
1, 30815, Note_on_c, 0, 86, 0
1, 30816, Note_on_c, 0, 86, 75
1, 30816, Note_on_c, 1, 60, 75
1, 30905, Note_on_c, 1, 67, 0
1, 30912, Note_on_c, 0, 86, 0
1, 30912, Note_on_c, 0, 75, 75
1, 30912, Note_on_c, 1, 69, 75
1, 30957, Note_on_c, 0, 75, 0
1, 30960, Note_on_c, 0, 84, 75
1, 30993, Note_on_c, 1, 60, 0
1, 31001, Note_on_c, 1, 69, 0
1, 31005, Note_on_c, 0, 84, 0
1, 31008, Note_on_c, 0, 86, 75
1, 31020, Note_on_c, 0, 86, 0
1, 31020, Note_on_c, 0, 84, 75
1, 31032, Note_on_c, 0, 84, 0
1, 31032, Note_on_c, 0, 83, 75
1, 31044, Note_on_c, 0, 83, 0
1, 31044, Note_on_c, 0, 84, 75
1, 31056, Note_on_c, 0, 84, 0
1, 31056, Note_on_c, 0, 86, 75
1, 31079, Note_on_c, 0, 86, 0
1, 31080, Note_on_c, 0, 87, 75
1, 31103, Note_on_c, 0, 87, 0
1, 31104, Note_on_c, 0, 87, 75
1, 31200, Note_on_c, 0, 87, 0
1, 31200, Note_on_c, 0, 78, 75
1, 31200, Note_on_c, 1, 72, 75
1, 31200, Note_on_c, 1, 69, 75
1, 31239, Note_on_c, 0, 78, 0
1, 31289, Note_on_c, 1, 72, 0
1, 31289, Note_on_c, 1, 69, 0
1, 31368, Note_on_c, 0, 79, 75
1, 31368, Note_on_c, 1, 67, 75
1, 31368, Note_on_c, 1, 58, 75
1, 31391, Note_on_c, 0, 79, 0
1, 31391, Note_on_c, 1, 67, 0
1, 31391, Note_on_c, 1, 58, 0
1, 31392, Note_on_c, 0, 77, 75
1, 31392, Note_on_c, 1, 67, 75
1, 31392, Note_on_c, 1, 60, 75
1, 31415, Note_on_c, 0, 77, 0
1, 31416, Note_on_c, 0, 75, 75
1, 31439, Note_on_c, 0, 75, 0
1, 31440, Note_on_c, 0, 74, 75
1, 31463, Note_on_c, 0, 74, 0
1, 31464, Note_on_c, 0, 72, 75
1, 31481, Note_on_c, 1, 60, 0
1, 31487, Note_on_c, 0, 72, 0
1, 31488, Note_on_c, 0, 70, 75
1, 31488, Note_on_c, 1, 62, 75
1, 31569, Note_on_c, 1, 67, 0
1, 31584, Note_on_c, 1, 66, 75
1, 31621, Note_on_c, 0, 70, 0
1, 31632, Note_on_c, 0, 69, 75
1, 31644, Note_on_c, 0, 69, 0
1, 31644, Note_on_c, 0, 70, 75
1, 31656, Note_on_c, 0, 70, 0
1, 31656, Note_on_c, 0, 69, 75
1, 31665, Note_on_c, 1, 62, 0
1, 31673, Note_on_c, 1, 66, 0
1, 31677, Note_on_c, 0, 69, 0
1, 31680, Note_on_c, 0, 67, 75
1, 31704, Note_on_c, 1, 43, 75
1, 31727, Note_on_c, 1, 43, 0
1, 31728, Note_on_c, 1, 46, 75
1, 31751, Note_on_c, 1, 46, 0
1, 31752, Note_on_c, 1, 50, 75
1, 31769, Note_on_c, 0, 67, 0
1, 31775, Note_on_c, 1, 50, 0
1, 31776, Note_on_c, 1, 55, 75
1, 31800, Note_on_c, 0, 62, 75
1, 31823, Note_on_c, 0, 62, 0
1, 31824, Note_on_c, 0, 67, 75
1, 31847, Note_on_c, 0, 67, 0
1, 31848, Note_on_c, 0, 70, 75
1, 31865, Note_on_c, 1, 55, 0
1, 31871, Note_on_c, 0, 70, 0
1, 31872, Note_on_c, 1, 67, 75
1, 31895, Note_on_c, 1, 67, 0
1, 31896, Note_on_c, 1, 70, 75
1, 31919, Note_on_c, 1, 70, 0
1, 31920, Note_on_c, 0, 74, 75
1, 31943, Note_on_c, 0, 74, 0
1, 31944, Note_on_c, 0, 82, 75
1, 31967, Note_on_c, 0, 82, 0
1, 31968, Note_on_c, 0, 79, 75
1, 31968, Note_on_c, 1, 69, 75
1, 31968, Note_on_c, 1, 62, 75
1, 32064, Note_on_c, 0, 79, 0
1, 32064, Note_on_c, 0, 78, 75
1, 32076, Note_on_c, 0, 78, 0
1, 32076, Note_on_c, 0, 79, 75
1, 32088, Note_on_c, 0, 79, 0
1, 32088, Note_on_c, 0, 78, 75
1, 32145, Note_on_c, 1, 69, 0
1, 32145, Note_on_c, 1, 62, 0
1, 32153, Note_on_c, 0, 78, 0
1, 32160, Note_on_c, 1, 67, 75
1, 32183, Note_on_c, 1, 67, 0
1, 32184, Note_on_c, 1, 70, 75
1, 32207, Note_on_c, 1, 70, 0
1, 32208, Note_on_c, 0, 74, 75
1, 32231, Note_on_c, 0, 74, 0
1, 32232, Note_on_c, 0, 86, 75
1, 32255, Note_on_c, 0, 86, 0
1, 32256, Note_on_c, 0, 82, 75
1, 32256, Note_on_c, 1, 67, 75
1, 32256, Note_on_c, 1, 62, 75
1, 32345, Note_on_c, 1, 67, 0
1, 32352, Note_on_c, 0, 82, 0
1, 32352, Note_on_c, 0, 81, 75
1, 32352, Note_on_c, 1, 66, 75
1, 32364, Note_on_c, 0, 81, 0
1, 32364, Note_on_c, 0, 82, 75
1, 32376, Note_on_c, 0, 82, 0
1, 32376, Note_on_c, 0, 81, 75
1, 32433, Note_on_c, 1, 62, 0
1, 32441, Note_on_c, 0, 81, 0
1, 32441, Note_on_c, 1, 66, 0
1, 32448, Note_on_c, 1, 58, 75
1, 32471, Note_on_c, 1, 58, 0
1, 32472, Note_on_c, 1, 67, 75
1, 32495, Note_on_c, 1, 67, 0
1, 32496, Note_on_c, 0, 74, 75
1, 32519, Note_on_c, 0, 74, 0
1, 32520, Note_on_c, 0, 86, 75
1, 32543, Note_on_c, 0, 86, 0
1, 32544, Note_on_c, 1, 60, 75
1, 32567, Note_on_c, 1, 60, 0
1, 32568, Note_on_c, 1, 67, 75
1, 32591, Note_on_c, 1, 67, 0
1, 32592, Note_on_c, 0, 75, 75
1, 32615, Note_on_c, 0, 75, 0
1, 32616, Note_on_c, 0, 86, 75
1, 32639, Note_on_c, 0, 86, 0
1, 32640, Note_on_c, 1, 72, 75
1, 32640, Note_on_c, 1, 69, 75
1, 32664, Note_on_c, 0, 75, 75
1, 32685, Note_on_c, 1, 72, 0
1, 32685, Note_on_c, 1, 69, 0
1, 32687, Note_on_c, 0, 75, 0
1, 32688, Note_on_c, 0, 81, 75
1, 32711, Note_on_c, 0, 81, 0
1, 32712, Note_on_c, 0, 84, 75
1, 32735, Note_on_c, 0, 84, 0
1, 32736, Note_on_c, 0, 87, 75
1, 32759, Note_on_c, 0, 87, 0
1, 32760, Note_on_c, 0, 84, 75
1, 32783, Note_on_c, 0, 84, 0
1, 32784, Note_on_c, 0, 82, 75
1, 32807, Note_on_c, 0, 82, 0
1, 32808, Note_on_c, 0, 81, 75
1, 32831, Note_on_c, 0, 81, 0
1, 32832, Note_on_c, 0, 79, 75
1, 32855, Note_on_c, 0, 79, 0
1, 32856, Note_on_c, 0, 78, 75
1, 32879, Note_on_c, 0, 78, 0
1, 32880, Note_on_c, 0, 79, 75
1, 32903, Note_on_c, 0, 79, 0
1, 32904, Note_on_c, 0, 81, 75
1, 32927, Note_on_c, 0, 81, 0
1, 32928, Note_on_c, 0, 75, 75
1, 32928, Note_on_c, 1, 72, 75
1, 32928, Note_on_c, 1, 66, 75
1, 33072, Note_on_c, 0, 75, 0
1, 33072, Note_on_c, 0, 74, 75
1, 33072, Note_on_c, 1, 72, 0
1, 33072, Note_on_c, 1, 66, 0
1, 33072, Note_on_c, 1, 70, 75
1, 33072, Note_on_c, 1, 67, 75
1, 33095, Note_on_c, 0, 74, 0
1, 33096, Note_on_c, 0, 79, 75
1, 33117, Note_on_c, 1, 70, 0
1, 33117, Note_on_c, 1, 67, 0
1, 33119, Note_on_c, 0, 79, 0
1, 33120, Note_on_c, 0, 77, 75
1, 33120, Note_on_c, 1, 67, 75
1, 33120, Note_on_c, 1, 60, 75
1, 33143, Note_on_c, 0, 77, 0
1, 33144, Note_on_c, 0, 75, 75
1, 33167, Note_on_c, 0, 75, 0
1, 33168, Note_on_c, 0, 74, 75
1, 33191, Note_on_c, 0, 74, 0
1, 33192, Note_on_c, 0, 72, 75
1, 33209, Note_on_c, 1, 60, 0
1, 33215, Note_on_c, 0, 72, 0
1, 33216, Note_on_c, 0, 70, 75
1, 33216, Note_on_c, 1, 62, 75
1, 33297, Note_on_c, 1, 67, 0
1, 33312, Note_on_c, 1, 66, 75
1, 33349, Note_on_c, 0, 70, 0
1, 33360, Note_on_c, 0, 69, 75
1, 33372, Note_on_c, 0, 69, 0
1, 33372, Note_on_c, 0, 70, 75
1, 33384, Note_on_c, 0, 70, 0
1, 33384, Note_on_c, 0, 69, 75
1, 33393, Note_on_c, 1, 62, 0
1, 33401, Note_on_c, 1, 66, 0
1, 33405, Note_on_c, 0, 69, 0
1, 33408, Note_on_c, 0, 67, 75
1, 33408, Note_on_c, 1, 55, 75
1, 33497, Note_on_c, 0, 67, 0
1, 33497, Note_on_c, 1, 55, 0
1, 33504, Note_on_c, 1, 43, 75
1, 33576, Note_on_c, 0, 62, 75
1, 33593, Note_on_c, 1, 43, 0
1, 33599, Note_on_c, 0, 62, 0
1, 33600, Note_on_c, 0, 63, 75
1, 33612, Note_on_c, 0, 63, 0
1, 33612, Note_on_c, 0, 62, 75
1, 33624, Note_on_c, 0, 62, 0
1, 33624, Note_on_c, 0, 61, 75
1, 33636, Note_on_c, 0, 61, 0
1, 33636, Note_on_c, 0, 62, 75
1, 33667, Note_on_c, 0, 62, 0
1, 33672, Note_on_c, 0, 71, 75
1, 33695, Note_on_c, 0, 71, 0
1, 33696, Note_on_c, 0, 71, 75
1, 33792, Note_on_c, 0, 71, 0
1, 33792, Note_on_c, 0, 60, 75
1, 33792, Note_on_c, 1, 57, 75
1, 33859, Note_on_c, 0, 60, 0
1, 33864, Note_on_c, 0, 60, 75
1, 33881, Note_on_c, 1, 57, 0
1, 33887, Note_on_c, 0, 60, 0
1, 33888, Note_on_c, 0, 62, 75
1, 33888, Note_on_c, 1, 54, 75
1, 33900, Note_on_c, 0, 62, 0
1, 33900, Note_on_c, 0, 60, 75
1, 33912, Note_on_c, 0, 60, 0
1, 33912, Note_on_c, 0, 59, 75
1, 33924, Note_on_c, 0, 59, 0
1, 33924, Note_on_c, 0, 60, 75
1, 33955, Note_on_c, 0, 60, 0
1, 33960, Note_on_c, 0, 69, 75
1, 33977, Note_on_c, 1, 54, 0
1, 33983, Note_on_c, 0, 69, 0
1, 33984, Note_on_c, 0, 60, 75
1, 33984, Note_on_c, 1, 55, 75
1, 34073, Note_on_c, 1, 55, 0
1, 34080, Note_on_c, 1, 43, 75
1, 34103, Note_on_c, 0, 60, 0
1, 34104, Note_on_c, 0, 59, 75
1, 34127, Note_on_c, 0, 59, 0
1, 34128, Note_on_c, 0, 64, 75
1, 34152, Note_on_c, 0, 64, 0
1, 34152, Note_on_c, 0, 62, 76
1, 34169, Note_on_c, 1, 43, 0
1, 34175, Note_on_c, 0, 62, 0
1, 34176, Note_on_c, 0, 67, 76
1, 34200, Note_on_c, 0, 67, 0
1, 34200, Note_on_c, 0, 66, 77
1, 34223, Note_on_c, 0, 66, 0
1, 34224, Note_on_c, 0, 69, 77
1, 34248, Note_on_c, 0, 69, 0
1, 34248, Note_on_c, 0, 67, 78
1, 34271, Note_on_c, 0, 67, 0
1, 34272, Note_on_c, 0, 71, 78
1, 34295, Note_on_c, 0, 71, 0
1, 34296, Note_on_c, 0, 69, 79
1, 34319, Note_on_c, 0, 69, 0
1, 34320, Note_on_c, 0, 72, 79
1, 34343, Note_on_c, 0, 72, 0
1, 34344, Note_on_c, 0, 71, 80
1, 34367, Note_on_c, 0, 71, 0
1, 34368, Note_on_c, 0, 74, 81
1, 34391, Note_on_c, 0, 74, 0
1, 34392, Note_on_c, 0, 72, 80
1, 34415, Note_on_c, 0, 72, 0
1, 34416, Note_on_c, 0, 71, 80
1, 34439, Note_on_c, 0, 71, 0
1, 34440, Note_on_c, 0, 69, 79
1, 34463, Note_on_c, 0, 69, 0
1, 34464, Note_on_c, 0, 67, 79
1, 34487, Note_on_c, 0, 67, 0
1, 34488, Note_on_c, 0, 66, 79
1, 34511, Note_on_c, 0, 66, 0
1, 34512, Note_on_c, 0, 64, 78
1, 34535, Note_on_c, 0, 64, 0
1, 34536, Note_on_c, 0, 62, 78
1, 34559, Note_on_c, 0, 62, 0
1, 34560, Note_on_c, 0, 62, 78
1, 34656, Note_on_c, 1, 57, 75
1, 34656, Note_on_c, 1, 54, 75
1, 34701, Note_on_c, 0, 62, 0
1, 34704, Note_on_c, 0, 60, 75
1, 34745, Note_on_c, 1, 57, 0
1, 34745, Note_on_c, 1, 54, 0
1, 34749, Note_on_c, 0, 60, 0
1, 34752, Note_on_c, 0, 62, 75
1, 34752, Note_on_c, 1, 55, 75
1, 34764, Note_on_c, 0, 62, 0
1, 34764, Note_on_c, 0, 60, 75
1, 34797, Note_on_c, 0, 60, 0
1, 34800, Note_on_c, 0, 59, 75
1, 34845, Note_on_c, 0, 59, 0
1, 34848, Note_on_c, 0, 59, 75
1, 34848, Note_on_c, 1, 50, 75
1, 34937, Note_on_c, 1, 55, 0
1, 34944, Note_on_c, 0, 59, 0
1, 34944, Note_on_c, 0, 57, 75
1, 34944, Note_on_c, 1, 54, 75
1, 35011, Note_on_c, 0, 57, 0
1, 35016, Note_on_c, 0, 62, 75
1, 35025, Note_on_c, 1, 50, 0
1, 35033, Note_on_c, 1, 54, 0
1, 35039, Note_on_c, 0, 62, 0
1, 35040, Note_on_c, 0, 64, 75
1, 35052, Note_on_c, 0, 64, 0
1, 35052, Note_on_c, 0, 62, 75
1, 35064, Note_on_c, 0, 62, 0
1, 35064, Note_on_c, 0, 61, 75
1, 35076, Note_on_c, 0, 61, 0
1, 35076, Note_on_c, 0, 62, 75
1, 35107, Note_on_c, 0, 62, 0
1, 35112, Note_on_c, 0, 71, 75
1, 35135, Note_on_c, 0, 71, 0
1, 35136, Note_on_c, 0, 71, 75
1, 35184, Note_on_c, 0, 71, 0
1, 35184, Note_on_c, 0, 61, 75
1, 35231, Note_on_c, 0, 61, 0
1, 35232, Note_on_c, 1, 55, 75
1, 35232, Note_on_c, 1, 52, 75
1, 35304, Note_on_c, 0, 60, 75
1, 35321, Note_on_c, 1, 55, 0
1, 35321, Note_on_c, 1, 52, 0
1, 35327, Note_on_c, 0, 60, 0
1, 35328, Note_on_c, 0, 62, 75
1, 35328, Note_on_c, 1, 57, 75
1, 35328, Note_on_c, 1, 54, 75
1, 35340, Note_on_c, 0, 62, 0
1, 35340, Note_on_c, 0, 60, 75
1, 35352, Note_on_c, 0, 60, 0
1, 35352, Note_on_c, 0, 59, 75
1, 35364, Note_on_c, 0, 59, 0
1, 35364, Note_on_c, 0, 60, 75
1, 35395, Note_on_c, 0, 60, 0
1, 35400, Note_on_c, 0, 69, 75
1, 35417, Note_on_c, 1, 57, 0
1, 35417, Note_on_c, 1, 54, 0
1, 35423, Note_on_c, 0, 69, 0
1, 35424, Note_on_c, 0, 60, 75
1, 35424, Note_on_c, 1, 55, 75
1, 35513, Note_on_c, 1, 55, 0
1, 35520, Note_on_c, 1, 43, 75
1, 35544, Note_on_c, 0, 60, 0
1, 35544, Note_on_c, 0, 59, 75
1, 35567, Note_on_c, 0, 59, 0
1, 35568, Note_on_c, 0, 64, 76
1, 35592, Note_on_c, 0, 64, 0
1, 35592, Note_on_c, 0, 62, 76
1, 35609, Note_on_c, 1, 43, 0
1, 35615, Note_on_c, 0, 62, 0
1, 35616, Note_on_c, 0, 67, 77
1, 35640, Note_on_c, 0, 67, 0
1, 35640, Note_on_c, 0, 66, 77
1, 35663, Note_on_c, 0, 66, 0
1, 35664, Note_on_c, 0, 69, 78
1, 35688, Note_on_c, 0, 69, 0
1, 35688, Note_on_c, 0, 67, 78
1, 35711, Note_on_c, 0, 67, 0
1, 35712, Note_on_c, 0, 71, 79
1, 35735, Note_on_c, 0, 71, 0
1, 35736, Note_on_c, 0, 69, 79
1, 35759, Note_on_c, 0, 69, 0
1, 35760, Note_on_c, 0, 72, 80
1, 35783, Note_on_c, 0, 72, 0
1, 35784, Note_on_c, 0, 71, 80
1, 35807, Note_on_c, 0, 71, 0
1, 35808, Note_on_c, 0, 74, 81
1, 35831, Note_on_c, 0, 74, 0
1, 35832, Note_on_c, 0, 72, 80
1, 35855, Note_on_c, 0, 72, 0
1, 35856, Note_on_c, 0, 71, 80
1, 35879, Note_on_c, 0, 71, 0
1, 35880, Note_on_c, 0, 69, 79
1, 35903, Note_on_c, 0, 69, 0
1, 35904, Note_on_c, 0, 67, 79
1, 35927, Note_on_c, 0, 67, 0
1, 35928, Note_on_c, 0, 66, 78
1, 35951, Note_on_c, 0, 66, 0
1, 35952, Note_on_c, 0, 64, 78
1, 35952, Note_on_c, 1, 55, 75
1, 35952, Note_on_c, 1, 47, 75
1, 35975, Note_on_c, 0, 64, 0
1, 35976, Note_on_c, 0, 62, 77
1, 35997, Note_on_c, 1, 55, 0
1, 35997, Note_on_c, 1, 47, 0
1, 35999, Note_on_c, 0, 62, 0
1, 36000, Note_on_c, 0, 62, 77
1, 36000, Note_on_c, 1, 55, 75
1, 36000, Note_on_c, 1, 48, 75
1, 36023, Note_on_c, 0, 62, 0
1, 36024, Note_on_c, 0, 60, 76
1, 36047, Note_on_c, 0, 60, 0
1, 36048, Note_on_c, 0, 64, 76
1, 36071, Note_on_c, 0, 64, 0
1, 36072, Note_on_c, 0, 60, 75
1, 36089, Note_on_c, 1, 48, 0
1, 36095, Note_on_c, 0, 60, 0
1, 36096, Note_on_c, 0, 59, 75
1, 36096, Note_on_c, 1, 50, 75
1, 36177, Note_on_c, 1, 55, 0
1, 36192, Note_on_c, 1, 54, 75
1, 36229, Note_on_c, 0, 59, 0
1, 36240, Note_on_c, 0, 57, 75
1, 36252, Note_on_c, 0, 57, 0
1, 36252, Note_on_c, 0, 59, 75
1, 36264, Note_on_c, 0, 59, 0
1, 36264, Note_on_c, 0, 57, 75
1, 36273, Note_on_c, 1, 50, 0
1, 36281, Note_on_c, 1, 54, 0
1, 36285, Note_on_c, 0, 57, 0
1, 36288, Note_on_c, 0, 55, 75
1, 36312, Note_on_c, 1, 52, 75
1, 36333, Note_on_c, 0, 55, 0
1, 36335, Note_on_c, 1, 52, 0
1, 36336, Note_on_c, 1, 55, 75
1, 36359, Note_on_c, 1, 55, 0
1, 36360, Note_on_c, 1, 61, 75
1, 36383, Note_on_c, 1, 61, 0
1, 36384, Note_on_c, 1, 64, 75
1, 36408, Note_on_c, 0, 67, 75
1, 36429, Note_on_c, 1, 64, 0
1, 36431, Note_on_c, 0, 67, 0
1, 36432, Note_on_c, 0, 73, 75
1, 36455, Note_on_c, 0, 73, 0
1, 36456, Note_on_c, 0, 76, 75
1, 36479, Note_on_c, 0, 76, 0
1, 36480, Note_on_c, 0, 79, 75
1, 36503, Note_on_c, 0, 79, 0
1, 36504, Note_on_c, 0, 76, 75
1, 36527, Note_on_c, 0, 76, 0
1, 36528, Note_on_c, 0, 74, 75
1, 36551, Note_on_c, 0, 74, 0
1, 36552, Note_on_c, 0, 73, 75
1, 36575, Note_on_c, 0, 73, 0
1, 36576, Note_on_c, 0, 74, 75
1, 36600, Note_on_c, 1, 62, 75
1, 36621, Note_on_c, 0, 74, 0
1, 36623, Note_on_c, 1, 62, 0
1, 36624, Note_on_c, 1, 66, 75
1, 36647, Note_on_c, 1, 66, 0
1, 36648, Note_on_c, 1, 69, 75
1, 36671, Note_on_c, 1, 69, 0
1, 36672, Note_on_c, 1, 72, 75
1, 36696, Note_on_c, 0, 74, 75
1, 36717, Note_on_c, 1, 72, 0
1, 36719, Note_on_c, 0, 74, 0
1, 36720, Note_on_c, 0, 78, 75
1, 36743, Note_on_c, 0, 78, 0
1, 36744, Note_on_c, 0, 81, 75
1, 36767, Note_on_c, 0, 81, 0
1, 36768, Note_on_c, 0, 84, 75
1, 36791, Note_on_c, 0, 84, 0
1, 36792, Note_on_c, 0, 83, 75
1, 36815, Note_on_c, 0, 83, 0
1, 36816, Note_on_c, 0, 81, 75
1, 36839, Note_on_c, 0, 81, 0
1, 36840, Note_on_c, 0, 79, 75
1, 36863, Note_on_c, 0, 79, 0
1, 36864, Note_on_c, 0, 78, 75
1, 36888, Note_on_c, 1, 74, 75
1, 36909, Note_on_c, 0, 78, 0
1, 36911, Note_on_c, 1, 74, 0
1, 36912, Note_on_c, 1, 78, 75
1, 36935, Note_on_c, 1, 78, 0
1, 36936, Note_on_c, 1, 81, 75
1, 36959, Note_on_c, 1, 81, 0
1, 36960, Note_on_c, 0, 84, 75
1, 36983, Note_on_c, 0, 84, 0
1, 36984, Note_on_c, 0, 86, 75
1, 37007, Note_on_c, 0, 86, 0
1, 37008, Note_on_c, 0, 88, 75
1, 37031, Note_on_c, 0, 88, 0
1, 37032, Note_on_c, 0, 86, 75
1, 37055, Note_on_c, 0, 86, 0
1, 37056, Note_on_c, 0, 84, 75
1, 37079, Note_on_c, 0, 84, 0
1, 37080, Note_on_c, 0, 83, 75
1, 37103, Note_on_c, 0, 83, 0
1, 37104, Note_on_c, 0, 81, 75
1, 37127, Note_on_c, 0, 81, 0
1, 37128, Note_on_c, 0, 79, 75
1, 37151, Note_on_c, 0, 79, 0
1, 37152, Note_on_c, 0, 78, 75
1, 37175, Note_on_c, 0, 78, 0
1, 37176, Note_on_c, 1, 74, 75
1, 37199, Note_on_c, 1, 74, 0
1, 37200, Note_on_c, 1, 78, 75
1, 37223, Note_on_c, 1, 78, 0
1, 37224, Note_on_c, 1, 81, 75
1, 37247, Note_on_c, 1, 81, 0
1, 37248, Note_on_c, 0, 84, 75
1, 37271, Note_on_c, 0, 84, 0
1, 37272, Note_on_c, 0, 86, 75
1, 37295, Note_on_c, 0, 86, 0
1, 37296, Note_on_c, 0, 88, 75
1, 37319, Note_on_c, 0, 88, 0
1, 37320, Note_on_c, 0, 86, 75
1, 37343, Note_on_c, 0, 86, 0
1, 37344, Note_on_c, 0, 84, 75
1, 37367, Note_on_c, 0, 84, 0
1, 37368, Note_on_c, 0, 83, 75
1, 37391, Note_on_c, 0, 83, 0
1, 37392, Note_on_c, 0, 81, 75
1, 37415, Note_on_c, 0, 81, 0
1, 37416, Note_on_c, 0, 79, 75
1, 37439, Note_on_c, 0, 79, 0
1, 37440, Note_on_c, 0, 78, 75
1, 37452, Note_on_c, 1, 50, 75
1, 37464, Note_on_c, 1, 50, 0
1, 37464, Note_on_c, 1, 54, 75
1, 37476, Note_on_c, 1, 54, 0
1, 37476, Note_on_c, 1, 57, 75
1, 37485, Note_on_c, 0, 78, 0
1, 37488, Note_on_c, 1, 57, 0
1, 37488, Note_on_c, 1, 60, 75
1, 37500, Note_on_c, 0, 62, 75
1, 37500, Note_on_c, 1, 60, 0
1, 37512, Note_on_c, 0, 62, 0
1, 37512, Note_on_c, 0, 66, 75
1, 37524, Note_on_c, 0, 66, 0
1, 37524, Note_on_c, 0, 69, 75
1, 37536, Note_on_c, 0, 69, 0
1, 37536, Note_on_c, 0, 72, 75
1, 37548, Note_on_c, 0, 72, 0
1, 37548, Note_on_c, 0, 62, 75
1, 37560, Note_on_c, 0, 62, 0
1, 37560, Note_on_c, 0, 66, 75
1, 37572, Note_on_c, 0, 66, 0
1, 37572, Note_on_c, 0, 69, 75
1, 37584, Note_on_c, 0, 69, 0
1, 37584, Note_on_c, 0, 72, 75
1, 37596, Note_on_c, 0, 72, 0
1, 37596, Note_on_c, 0, 74, 75
1, 37608, Note_on_c, 0, 74, 0
1, 37608, Note_on_c, 0, 78, 75
1, 37620, Note_on_c, 0, 78, 0
1, 37620, Note_on_c, 0, 81, 75
1, 37632, Note_on_c, 0, 81, 0
1, 37632, Note_on_c, 0, 84, 91
1, 37680, Note_on_c, 0, 84, 0
1, 37968, Note_on_c, 0, 71, 91
1, 37968, Note_on_c, 1, 55, 64
1, 37968, Note_on_c, 1, 43, 64
1, 37992, Note_on_c, 0, 71, 0
1, 37992, Note_on_c, 0, 67, 75
1, 38015, Note_on_c, 0, 67, 0
1, 38015, Note_on_c, 1, 55, 0
1, 38015, Note_on_c, 1, 43, 0
1, 38016, Note_on_c, 0, 66, 75
1, 38016, Note_on_c, 1, 55, 64
1, 38016, Note_on_c, 1, 48, 75
1, 38039, Note_on_c, 0, 66, 0
1, 38040, Note_on_c, 0, 64, 75
1, 38063, Note_on_c, 0, 64, 0
1, 38064, Note_on_c, 0, 62, 75
1, 38087, Note_on_c, 0, 62, 0
1, 38088, Note_on_c, 0, 60, 75
1, 38105, Note_on_c, 1, 48, 0
1, 38111, Note_on_c, 0, 60, 0
1, 38112, Note_on_c, 0, 59, 75
1, 38112, Note_on_c, 1, 50, 75
1, 38193, Note_on_c, 1, 55, 0
1, 38208, Note_on_c, 1, 54, 64
1, 38245, Note_on_c, 0, 59, 0
1, 38256, Note_on_c, 0, 57, 75
1, 38268, Note_on_c, 0, 57, 0
1, 38268, Note_on_c, 0, 59, 75
1, 38280, Note_on_c, 0, 59, 0
1, 38280, Note_on_c, 0, 57, 75
1, 38289, Note_on_c, 1, 50, 0
1, 38297, Note_on_c, 1, 54, 0
1, 38301, Note_on_c, 0, 57, 0
1, 38304, Note_on_c, 0, 55, 75
1, 38304, Note_on_c, 1, 43, 64
1, 38393, Note_on_c, 0, 55, 0
1, 38393, Note_on_c, 1, 43, 0
1, 38400, Note_on_c, 1, 31, 64
1, 38489, Note_on_c, 1, 31, 0
1, 38592, Note_on_c, 1, 31, 0
1, 38681, Note_on_c, 1, 31, 0
1, 38691, End_track
0, 0, End_of_file