0, 0, Header, 0, 1, 96
1, 0, Start_track
1, 0, Tempo, 461538
1, 0, Note_on_c, 0, 75, 75
1, 0, Note_on_c, 1, 67, 75
1, 0, Note_on_c, 1, 63, 75
1, 12, Note_on_c, 0, 75, 0
1, 12, Note_on_c, 0, 77, 75
1, 24, Note_on_c, 0, 77, 0
1, 24, Note_on_c, 0, 75, 75
1, 36, Note_on_c, 0, 75, 0
1, 36, Note_on_c, 0, 77, 75
1, 48, Note_on_c, 0, 77, 0
1, 48, Note_on_c, 0, 75, 75
1, 60, Note_on_c, 0, 75, 0
1, 60, Note_on_c, 0, 77, 75
1, 67, Note_on_c, 0, 77, 0
1, 72, Note_on_c, 0, 74, 75
1, 84, Note_on_c, 0, 74, 0
1, 84, Note_on_c, 0, 75, 75
1, 89, Note_on_c, 1, 67, 0
1, 89, Note_on_c, 1, 63, 0
1, 96, Note_on_c, 0, 75, 0
1, 96, Note_on_c, 0, 77, 75
1, 96, Note_on_c, 1, 70, 75
1, 96, Note_on_c, 1, 62, 75
1, 185, Note_on_c, 0, 77, 0
1, 185, Note_on_c, 1, 70, 0
1, 185, Note_on_c, 1, 62, 0
1, 288, Note_on_c, 0, 77, 75
1, 288, Note_on_c, 1, 70, 75
1, 288, Note_on_c, 1, 62, 75
1, 300, Note_on_c, 0, 77, 0
1, 300, Note_on_c, 0, 79, 75
1, 312, Note_on_c, 0, 79, 0
1, 312, Note_on_c, 0, 77, 75
1, 324, Note_on_c, 0, 77, 0
1, 324, Note_on_c, 0, 79, 75
1, 336, Note_on_c, 0, 79, 0
1, 336, Note_on_c, 0, 77, 75
1, 348, Note_on_c, 0, 77, 0
1, 348, Note_on_c, 0, 79, 75
1, 355, Note_on_c, 0, 79, 0
1, 360, Note_on_c, 0, 75, 75
1, 372, Note_on_c, 0, 75, 0
1, 372, Note_on_c, 0, 77, 75
1, 377, Note_on_c, 1, 70, 0
1, 377, Note_on_c, 1, 62, 0
1, 384, Note_on_c, 0, 77, 0
1, 384, Note_on_c, 0, 79, 75
1, 384, Note_on_c, 1, 70, 75
1, 384, Note_on_c, 1, 63, 75
1, 473, Note_on_c, 0, 79, 0
1, 473, Note_on_c, 1, 70, 0
1, 473, Note_on_c, 1, 63, 0
1, 576, Note_on_c, 0, 79, 75
1, 576, Note_on_c, 1, 65, 75
1, 576, Note_on_c, 1, 56, 75
1, 594, Note_on_c, 0, 79, 0
1, 594, Note_on_c, 0, 80, 75
1, 594, Note_on_c, 0, 72, 75
1, 665, Note_on_c, 0, 80, 0
1, 665, Note_on_c, 0, 72, 0
1, 672, Note_on_c, 0, 80, 75
1, 739, Note_on_c, 0, 80, 0
1, 744, Note_on_c, 0, 79, 75
1, 767, Note_on_c, 0, 79, 0
1, 768, Note_on_c, 0, 77, 75
1, 835, Note_on_c, 0, 77, 0
1, 840, Note_on_c, 0, 75, 75
1, 841, Note_on_c, 1, 65, 0
1, 841, Note_on_c, 1, 56, 0
1, 863, Note_on_c, 0, 75, 0
1, 864, Note_on_c, 0, 75, 75
1, 864, Note_on_c, 1, 67, 75
1, 864, Note_on_c, 0, 58, 75
1, 953, Note_on_c, 0, 75, 0
1, 953, Note_on_c, 1, 67, 0
1, 960, Note_on_c, 0, 74, 75
1, 960, Note_on_c, 1, 65, 75
1, 1041, Note_on_c, 0, 58, 0
1, 1049, Note_on_c, 0, 74, 0
1, 1049, Note_on_c, 1, 65, 0
1, 1056, Note_on_c, 0, 75, 75
1, 1056, Note_on_c, 1, 63, 75
1, 1056, Note_on_c, 0, 63, 75
1, 1145, Note_on_c, 0, 75, 0
1, 1145, Note_on_c, 1, 63, 0
1, 1145, Note_on_c, 0, 63, 0
1, 1152, Note_on_c, 0, 80, 75
1, 1152, Note_on_c, 0, 72, 75
1, 1152, Note_on_c, 1, 65, 75
1, 1152, Note_on_c, 0, 56, 75
1, 1241, Note_on_c, 0, 80, 0
1, 1241, Note_on_c, 0, 72, 0
1, 1248, Note_on_c, 0, 84, 75
1, 1278, Note_on_c, 0, 84, 0
1, 1280, Note_on_c, 0, 82, 75
1, 1310, Note_on_c, 0, 82, 0
1, 1312, Note_on_c, 0, 80, 75
1, 1342, Note_on_c, 0, 80, 0
1, 1344, Note_on_c, 0, 79, 75
1, 1374, Note_on_c, 0, 79, 0
1, 1376, Note_on_c, 0, 77, 75
1, 1406, Note_on_c, 0, 77, 0
1, 1408, Note_on_c, 0, 75, 75
1, 1417, Note_on_c, 1, 65, 0
1, 1417, Note_on_c, 0, 56, 0
1, 1438, Note_on_c, 0, 75, 0
1, 1440, Note_on_c, 0, 75, 75
1, 1440, Note_on_c, 1, 67, 75
1, 1440, Note_on_c, 0, 58, 75
1, 1529, Note_on_c, 0, 75, 0
1, 1529, Note_on_c, 1, 67, 0
1, 1536, Note_on_c, 0, 74, 75
1, 1536, Note_on_c, 1, 65, 75
1, 1549, Note_on_c, 0, 74, 0
1, 1550, Note_on_c, 0, 75, 75
1, 1563, Note_on_c, 0, 75, 0
1, 1564, Note_on_c, 0, 74, 75
1, 1577, Note_on_c, 0, 74, 0
1, 1578, Note_on_c, 0, 75, 75
1, 1591, Note_on_c, 0, 75, 0
1, 1592, Note_on_c, 0, 74, 75
1, 1605, Note_on_c, 0, 74, 0
1, 1606, Note_on_c, 0, 72, 75
1, 1617, Note_on_c, 0, 58, 0
1, 1618, Note_on_c, 0, 72, 0
1, 1619, Note_on_c, 0, 74, 75
1, 1625, Note_on_c, 1, 65, 0
1, 1631, Note_on_c, 0, 74, 0
1, 1632, Note_on_c, 0, 75, 75
1, 1632, Note_on_c, 1, 63, 75
1, 1632, Note_on_c, 0, 63, 75
1, 1699, Note_on_c, 0, 75, 0
1, 1704, Note_on_c, 0, 70, 75
1, 1704, Note_on_c, 0, 67, 75
1, 1721, Note_on_c, 1, 63, 0
1, 1721, Note_on_c, 0, 63, 0
1, 1727, Note_on_c, 0, 70, 0
1, 1727, Note_on_c, 0, 67, 0
1, 1728, Note_on_c, 0, 70, 75
1, 1728, Note_on_c, 0, 67, 75
1, 1817, Note_on_c, 0, 70, 0
1, 1817, Note_on_c, 0, 67, 0
1, 1824, Note_on_c, 0, 68, 73
1, 1824, Note_on_c, 0, 65, 73
1, 1824, Note_on_c, 1, 50, 73
1, 1913, Note_on_c, 0, 68, 0
1, 1913, Note_on_c, 0, 65, 0
1, 1913, Note_on_c, 1, 50, 0
1, 1920, Note_on_c, 0, 67, 71
1, 1920, Note_on_c, 0, 63, 71
1, 1920, Note_on_c, 1, 51, 71
1, 2009, Note_on_c, 0, 67, 0
1, 2009, Note_on_c, 0, 63, 0
1, 2009, Note_on_c, 1, 51, 0
1, 2016, Note_on_c, 0, 65, 70
1, 2016, Note_on_c, 0, 62, 70
1, 2016, Note_on_c, 1, 46, 70
1, 2105, Note_on_c, 1, 46, 0
1, 2112, Note_on_c, 1, 58, 70
1, 2193, Note_on_c, 0, 65, 0
1, 2193, Note_on_c, 0, 62, 0
1, 2201, Note_on_c, 1, 58, 0
1, 2304, Note_on_c, 0, 75, 75
1, 2304, Note_on_c, 1, 67, 75
1, 2304, Note_on_c, 1, 63, 75
1, 2316, Note_on_c, 0, 75, 0
1, 2316, Note_on_c, 0, 77, 75
1, 2328, Note_on_c, 0, 77, 0
1, 2328, Note_on_c, 0, 75, 75
1, 2340, Note_on_c, 0, 75, 0
1, 2340, Note_on_c, 0, 77, 75
1, 2352, Note_on_c, 0, 77, 0
1, 2352, Note_on_c, 0, 75, 75
1, 2364, Note_on_c, 0, 75, 0
1, 2364, Note_on_c, 0, 77, 75
1, 2371, Note_on_c, 0, 77, 0
1, 2376, Note_on_c, 0, 74, 75
1, 2388, Note_on_c, 0, 74, 0
1, 2388, Note_on_c, 0, 75, 75
1, 2393, Note_on_c, 1, 67, 0
1, 2393, Note_on_c, 1, 63, 0
1, 2400, Note_on_c, 0, 75, 0
1, 2400, Note_on_c, 0, 77, 75
1, 2400, Note_on_c, 1, 70, 75
1, 2400, Note_on_c, 1, 62, 75
1, 2489, Note_on_c, 0, 77, 0
1, 2489, Note_on_c, 1, 70, 0
1, 2489, Note_on_c, 1, 62, 0
1, 2592, Note_on_c, 0, 77, 75
1, 2592, Note_on_c, 1, 70, 75
1, 2592, Note_on_c, 1, 62, 75
1, 2604, Note_on_c, 0, 77, 0
1, 2604, Note_on_c, 0, 79, 75
1, 2616, Note_on_c, 0, 79, 0
1, 2616, Note_on_c, 0, 77, 75
1, 2628, Note_on_c, 0, 77, 0
1, 2628, Note_on_c, 0, 79, 75
1, 2640, Note_on_c, 0, 79, 0
1, 2640, Note_on_c, 0, 77, 75
1, 2652, Note_on_c, 0, 77, 0
1, 2652, Note_on_c, 0, 79, 75
1, 2659, Note_on_c, 0, 79, 0
1, 2664, Note_on_c, 0, 75, 75
1, 2676, Note_on_c, 0, 75, 0
1, 2676, Note_on_c, 0, 77, 75
1, 2681, Note_on_c, 1, 70, 0
1, 2681, Note_on_c, 1, 62, 0
1, 2688, Note_on_c, 0, 77, 0
1, 2688, Note_on_c, 0, 79, 75
1, 2688, Note_on_c, 1, 70, 75
1, 2688, Note_on_c, 1, 63, 75
1, 2777, Note_on_c, 0, 79, 0
1, 2777, Note_on_c, 1, 70, 0
1, 2777, Note_on_c, 1, 63, 0
1, 2880, Note_on_c, 0, 79, 75
1, 2880, Note_on_c, 1, 65, 75
1, 2880, Note_on_c, 1, 56, 75
1, 2898, Note_on_c, 0, 79, 0
1, 2898, Note_on_c, 0, 80, 75
1, 2898, Note_on_c, 0, 72, 75
1, 2969, Note_on_c, 0, 80, 0
1, 2969, Note_on_c, 0, 72, 0
1, 2976, Note_on_c, 0, 80, 75
1, 3043, Note_on_c, 0, 80, 0
1, 3048, Note_on_c, 0, 79, 75
1, 3071, Note_on_c, 0, 79, 0
1, 3072, Note_on_c, 0, 77, 75
1, 3139, Note_on_c, 0, 77, 0
1, 3144, Note_on_c, 0, 75, 75
1, 3145, Note_on_c, 1, 65, 0
1, 3145, Note_on_c, 1, 56, 0
1, 3167, Note_on_c, 0, 75, 0
1, 3168, Note_on_c, 0, 75, 75
1, 3168, Note_on_c, 1, 67, 75
1, 3168, Note_on_c, 0, 58, 75
1, 3257, Note_on_c, 0, 75, 0
1, 3257, Note_on_c, 1, 67, 0
1, 3264, Note_on_c, 0, 74, 75
1, 3264, Note_on_c, 1, 65, 75
1, 3345, Note_on_c, 0, 58, 0
1, 3353, Note_on_c, 0, 74, 0
1, 3353, Note_on_c, 1, 65, 0
1, 3360, Note_on_c, 0, 75, 75
1, 3360, Note_on_c, 1, 63, 75
1, 3360, Note_on_c, 0, 63, 75
1, 3449, Note_on_c, 0, 75, 0
1, 3449, Note_on_c, 1, 63, 0
1, 3449, Note_on_c, 0, 63, 0
1, 3456, Note_on_c, 0, 80, 75
1, 3456, Note_on_c, 0, 72, 75
1, 3456, Note_on_c, 1, 65, 75
1, 3456, Note_on_c, 0, 56, 75
1, 3545, Note_on_c, 0, 80, 0
1, 3545, Note_on_c, 0, 72, 0
1, 3552, Note_on_c, 0, 84, 75
1, 3582, Note_on_c, 0, 84, 0
1, 3584, Note_on_c, 0, 82, 75
1, 3614, Note_on_c, 0, 82, 0
1, 3616, Note_on_c, 0, 80, 75
1, 3646, Note_on_c, 0, 80, 0
1, 3648, Note_on_c, 0, 79, 75
1, 3678, Note_on_c, 0, 79, 0
1, 3680, Note_on_c, 0, 77, 75
1, 3710, Note_on_c, 0, 77, 0
1, 3712, Note_on_c, 0, 75, 75
1, 3721, Note_on_c, 1, 65, 0
1, 3721, Note_on_c, 0, 56, 0
1, 3742, Note_on_c, 0, 75, 0
1, 3744, Note_on_c, 0, 75, 75
1, 3744, Note_on_c, 1, 67, 75
1, 3744, Note_on_c, 0, 58, 75
1, 3833, Note_on_c, 0, 75, 0
1, 3833, Note_on_c, 1, 67, 0
1, 3840, Note_on_c, 0, 74, 75
1, 3840, Note_on_c, 1, 65, 75
1, 3853, Note_on_c, 0, 74, 0
1, 3854, Note_on_c, 0, 75, 75
1, 3867, Note_on_c, 0, 75, 0
1, 3868, Note_on_c, 0, 74, 75
1, 3881, Note_on_c, 0, 74, 0
1, 3882, Note_on_c, 0, 75, 75
1, 3895, Note_on_c, 0, 75, 0
1, 3896, Note_on_c, 0, 74, 75
1, 3909, Note_on_c, 0, 74, 0
1, 3910, Note_on_c, 0, 72, 75
1, 3921, Note_on_c, 0, 58, 0
1, 3922, Note_on_c, 0, 72, 0
1, 3923, Note_on_c, 0, 74, 75
1, 3929, Note_on_c, 1, 65, 0
1, 3935, Note_on_c, 0, 74, 0
1, 3936, Note_on_c, 0, 75, 75
1, 3936, Note_on_c, 1, 63, 75
1, 3936, Note_on_c, 0, 63, 75
1, 4003, Note_on_c, 0, 75, 0
1, 4008, Note_on_c, 0, 70, 75
1, 4008, Note_on_c, 0, 67, 75
1, 4025, Note_on_c, 1, 63, 0
1, 4025, Note_on_c, 0, 63, 0
1, 4031, Note_on_c, 0, 70, 0
1, 4031, Note_on_c, 0, 67, 0
1, 4032, Note_on_c, 0, 70, 75
1, 4032, Note_on_c, 0, 67, 75
1, 4121, Note_on_c, 0, 70, 0
1, 4121, Note_on_c, 0, 67, 0
1, 4128, Note_on_c, 0, 68, 73
1, 4128, Note_on_c, 0, 65, 73
1, 4128, Note_on_c, 1, 50, 73
1, 4217, Note_on_c, 0, 68, 0
1, 4217, Note_on_c, 0, 65, 0
1, 4217, Note_on_c, 1, 50, 0
1, 4224, Note_on_c, 0, 67, 71
1, 4224, Note_on_c, 0, 63, 71
1, 4224, Note_on_c, 1, 51, 71
1, 4313, Note_on_c, 0, 67, 0
1, 4313, Note_on_c, 0, 63, 0
1, 4313, Note_on_c, 1, 51, 0
1, 4320, Note_on_c, 0, 65, 70
1, 4320, Note_on_c, 0, 62, 70
1, 4320, Note_on_c, 1, 46, 70
1, 4409, Note_on_c, 1, 46, 0
1, 4416, Note_on_c, 1, 58, 70
1, 4497, Note_on_c, 0, 65, 0
1, 4497, Note_on_c, 0, 62, 0
1, 4505, Note_on_c, 1, 58, 0
1, 4608, Note_on_c, 1, 46, 81
1, 4638, Note_on_c, 1, 46, 0
1, 4640, Note_on_c, 1, 50, 81
1, 4670, Note_on_c, 1, 50, 0
1, 4672, Note_on_c, 1, 53, 81
1, 4702, Note_on_c, 1, 53, 0
1, 4704, Note_on_c, 1, 50, 81
1, 4734, Note_on_c, 1, 50, 0
1, 4736, Note_on_c, 1, 53, 81
1, 4766, Note_on_c, 1, 53, 0
1, 4768, Note_on_c, 1, 58, 81
1, 4798, Note_on_c, 1, 58, 0
1, 4800, Note_on_c, 1, 53, 81
1, 4830, Note_on_c, 1, 53, 0
1, 4832, Note_on_c, 1, 58, 81
1, 4862, Note_on_c, 1, 58, 0
1, 4864, Note_on_c, 1, 62, 81
1, 4894, Note_on_c, 1, 62, 0
1, 4896, Note_on_c, 1, 65, 81
1, 4992, Note_on_c, 0, 74, 70
1, 4992, Note_on_c, 0, 68, 70
1, 5088, Note_on_c, 0, 74, 0
1, 5088, Note_on_c, 0, 68, 0
1, 5088, Note_on_c, 0, 75, 70
1, 5088, Note_on_c, 0, 67, 70
1, 5088, Note_on_c, 1, 65, 0
1, 5088, Note_on_c, 1, 63, 70
1, 5182, Note_on_c, 0, 75, 0
1, 5182, Note_on_c, 0, 67, 0
1, 5182, Note_on_c, 1, 63, 0
1, 5184, Note_on_c, 1, 46, 81
1, 5214, Note_on_c, 1, 46, 0
1, 5216, Note_on_c, 1, 50, 81
1, 5246, Note_on_c, 1, 50, 0
1, 5248, Note_on_c, 1, 53, 81
1, 5278, Note_on_c, 1, 53, 0
1, 5280, Note_on_c, 1, 50, 81
1, 5310, Note_on_c, 1, 50, 0
1, 5312, Note_on_c, 1, 53, 81
1, 5342, Note_on_c, 1, 53, 0
1, 5344, Note_on_c, 1, 58, 81
1, 5374, Note_on_c, 1, 58, 0
1, 5376, Note_on_c, 1, 53, 81
1, 5406, Note_on_c, 1, 53, 0
1, 5408, Note_on_c, 1, 58, 81
1, 5438, Note_on_c, 1, 58, 0
1, 5440, Note_on_c, 1, 62, 81
1, 5470, Note_on_c, 1, 62, 0
1, 5472, Note_on_c, 1, 65, 81
1, 5561, Note_on_c, 1, 65, 0
1, 5568, Note_on_c, 0, 80, 70
1, 5568, Note_on_c, 0, 77, 70
1, 5568, Note_on_c, 1, 62, 81
1, 5664, Note_on_c, 0, 80, 0
1, 5664, Note_on_c, 0, 77, 0
1, 5664, Note_on_c, 0, 79, 70
1, 5664, Note_on_c, 0, 75, 70
1, 5664, Note_on_c, 1, 62, 0
1, 5664, Note_on_c, 1, 63, 70
1, 5758, Note_on_c, 0, 79, 0
1, 5758, Note_on_c, 0, 75, 0
1, 5758, Note_on_c, 1, 63, 0
1, 5760, Note_on_c, 1, 63, 70
1, 5760, Note_on_c, 1, 60, 70
1, 5760, Note_on_c, 1, 57, 70
1, 5808, Note_on_c, 0, 78, 70
1, 5849, Note_on_c, 1, 63, 0
1, 5849, Note_on_c, 1, 60, 0
1, 5849, Note_on_c, 1, 57, 0
1, 5853, Note_on_c, 0, 78, 0
1, 5856, Note_on_c, 0, 77, 71
1, 5901, Note_on_c, 0, 77, 0
1, 5904, Note_on_c, 0, 75, 71
1, 5949, Note_on_c, 0, 75, 0
1, 5952, Note_on_c, 0, 74, 72
1, 5997, Note_on_c, 0, 74, 0
1, 6000, Note_on_c, 0, 75, 72
1, 6045, Note_on_c, 0, 75, 0
1, 6048, Note_on_c, 1, 66, 73
1, 6048, Note_on_c, 1, 63, 73
1, 6048, Note_on_c, 1, 58, 73
1, 6096, Note_on_c, 0, 78, 74
1, 6137, Note_on_c, 1, 66, 0
1, 6137, Note_on_c, 1, 63, 0
1, 6137, Note_on_c, 1, 58, 0
1, 6141, Note_on_c, 0, 78, 0
1, 6144, Note_on_c, 0, 77, 74
1, 6189, Note_on_c, 0, 77, 0
1, 6192, Note_on_c, 0, 75, 75
1, 6237, Note_on_c, 0, 75, 0
1, 6240, Note_on_c, 0, 74, 75
1, 6285, Note_on_c, 0, 74, 0
1, 6288, Note_on_c, 0, 75, 76
1, 6333, Note_on_c, 0, 75, 0
1, 6336, Note_on_c, 1, 66, 76
1, 6336, Note_on_c, 1, 63, 76
1, 6336, Note_on_c, 1, 59, 76
1, 6384, Note_on_c, 0, 78, 77
1, 6425, Note_on_c, 1, 66, 0
1, 6425, Note_on_c, 1, 63, 0
1, 6425, Note_on_c, 1, 59, 0
1, 6429, Note_on_c, 0, 78, 0
1, 6432, Note_on_c, 0, 77, 78
1, 6477, Note_on_c, 0, 77, 0
1, 6480, Note_on_c, 0, 75, 78
1, 6525, Note_on_c, 0, 75, 0
1, 6528, Note_on_c, 0, 74, 79
1, 6528, Note_on_c, 1, 66, 78
1, 6528, Note_on_c, 1, 63, 78
1, 6528, Note_on_c, 1, 57, 78
1, 6573, Note_on_c, 0, 74, 0
1, 6576, Note_on_c, 0, 75, 80
1, 6617, Note_on_c, 1, 66, 0
1, 6617, Note_on_c, 1, 63, 0
1, 6617, Note_on_c, 1, 57, 0
1, 6621, Note_on_c, 0, 75, 0
1, 6624, Note_on_c, 0, 74, 80
1, 6624, Note_on_c, 1, 65, 79
1, 6624, Note_on_c, 1, 58, 79
1, 6654, Note_on_c, 0, 74, 0
1, 6656, Note_on_c, 0, 75, 81
1, 6686, Note_on_c, 0, 75, 0
1, 6688, Note_on_c, 0, 77, 81
1, 6718, Note_on_c, 0, 77, 0
1, 6720, Note_on_c, 0, 70, 81
1, 6801, Note_on_c, 1, 65, 0
1, 6801, Note_on_c, 1, 58, 0
1, 6809, Note_on_c, 0, 70, 0
1, 6912, Note_on_c, 0, 75, 75
1, 6912, Note_on_c, 1, 67, 75
1, 6912, Note_on_c, 1, 63, 75
1, 6924, Note_on_c, 0, 75, 0
1, 6924, Note_on_c, 0, 77, 75
1, 6936, Note_on_c, 0, 77, 0
1, 6936, Note_on_c, 0, 75, 75
1, 6948, Note_on_c, 0, 75, 0
1, 6948, Note_on_c, 0, 77, 75
1, 6960, Note_on_c, 0, 77, 0
1, 6960, Note_on_c, 0, 75, 75
1, 6972, Note_on_c, 0, 75, 0
1, 6972, Note_on_c, 0, 77, 75
1, 6979, Note_on_c, 0, 77, 0
1, 6984, Note_on_c, 0, 74, 75
1, 6996, Note_on_c, 0, 74, 0
1, 6996, Note_on_c, 0, 75, 75
1, 7001, Note_on_c, 1, 67, 0
1, 7001, Note_on_c, 1, 63, 0
1, 7008, Note_on_c, 0, 75, 0
1, 7008, Note_on_c, 0, 77, 75
1, 7008, Note_on_c, 1, 70, 75
1, 7008, Note_on_c, 1, 62, 75
1, 7097, Note_on_c, 0, 77, 0
1, 7097, Note_on_c, 1, 70, 0
1, 7097, Note_on_c, 1, 62, 0
1, 7200, Note_on_c, 0, 77, 75
1, 7200, Note_on_c, 1, 70, 75
1, 7200, Note_on_c, 1, 62, 75
1, 7212, Note_on_c, 0, 77, 0
1, 7212, Note_on_c, 0, 79, 75
1, 7224, Note_on_c, 0, 79, 0
1, 7224, Note_on_c, 0, 77, 75
1, 7236, Note_on_c, 0, 77, 0
1, 7236, Note_on_c, 0, 79, 75
1, 7248, Note_on_c, 0, 79, 0
1, 7248, Note_on_c, 0, 77, 75
1, 7260, Note_on_c, 0, 77, 0
1, 7260, Note_on_c, 0, 79, 75
1, 7267, Note_on_c, 0, 79, 0
1, 7272, Note_on_c, 0, 75, 75
1, 7284, Note_on_c, 0, 75, 0
1, 7284, Note_on_c, 0, 77, 75
1, 7289, Note_on_c, 1, 70, 0
1, 7289, Note_on_c, 1, 62, 0
1, 7296, Note_on_c, 0, 77, 0
1, 7296, Note_on_c, 0, 79, 75
1, 7296, Note_on_c, 1, 70, 75
1, 7296, Note_on_c, 1, 63, 75
1, 7385, Note_on_c, 0, 79, 0
1, 7385, Note_on_c, 1, 70, 0
1, 7385, Note_on_c, 1, 63, 0
1, 7488, Note_on_c, 0, 79, 75
1, 7488, Note_on_c, 1, 65, 75
1, 7488, Note_on_c, 1, 56, 75
1, 7506, Note_on_c, 0, 79, 0
1, 7506, Note_on_c, 0, 80, 75
1, 7506, Note_on_c, 0, 72, 75
1, 7577, Note_on_c, 0, 80, 0
1, 7577, Note_on_c, 0, 72, 0
1, 7584, Note_on_c, 0, 80, 75
1, 7651, Note_on_c, 0, 80, 0
1, 7656, Note_on_c, 0, 79, 75
1, 7679, Note_on_c, 0, 79, 0
1, 7680, Note_on_c, 0, 77, 75
1, 7747, Note_on_c, 0, 77, 0
1, 7752, Note_on_c, 0, 75, 75
1, 7753, Note_on_c, 1, 65, 0
1, 7753, Note_on_c, 1, 56, 0
1, 7775, Note_on_c, 0, 75, 0
1, 7776, Note_on_c, 0, 75, 75
1, 7776, Note_on_c, 1, 67, 75
1, 7776, Note_on_c, 0, 58, 75
1, 7865, Note_on_c, 0, 75, 0
1, 7865, Note_on_c, 1, 67, 0
1, 7872, Note_on_c, 0, 74, 75
1, 7872, Note_on_c, 1, 65, 75
1, 7953, Note_on_c, 0, 58, 0
1, 7961, Note_on_c, 0, 74, 0
1, 7961, Note_on_c, 1, 65, 0
1, 7968, Note_on_c, 0, 75, 75
1, 7968, Note_on_c, 1, 63, 75
1, 7968, Note_on_c, 0, 63, 75
1, 8057, Note_on_c, 0, 75, 0
1, 8057, Note_on_c, 1, 63, 0
1, 8057, Note_on_c, 0, 63, 0
1, 8064, Note_on_c, 0, 80, 75
1, 8064, Note_on_c, 0, 72, 75
1, 8064, Note_on_c, 1, 65, 75
1, 8064, Note_on_c, 0, 56, 75
1, 8153, Note_on_c, 0, 80, 0
1, 8153, Note_on_c, 0, 72, 0
1, 8160, Note_on_c, 0, 84, 75
1, 8190, Note_on_c, 0, 84, 0
1, 8192, Note_on_c, 0, 82, 75
1, 8222, Note_on_c, 0, 82, 0
1, 8224, Note_on_c, 0, 80, 75
1, 8254, Note_on_c, 0, 80, 0
1, 8256, Note_on_c, 0, 79, 75
1, 8286, Note_on_c, 0, 79, 0
1, 8288, Note_on_c, 0, 77, 75
1, 8318, Note_on_c, 0, 77, 0
1, 8320, Note_on_c, 0, 75, 75
1, 8329, Note_on_c, 1, 65, 0
1, 8329, Note_on_c, 0, 56, 0
1, 8350, Note_on_c, 0, 75, 0
1, 8352, Note_on_c, 0, 75, 75
1, 8352, Note_on_c, 1, 67, 75
1, 8352, Note_on_c, 0, 58, 75
1, 8441, Note_on_c, 0, 75, 0
1, 8441, Note_on_c, 1, 67, 0
1, 8448, Note_on_c, 0, 74, 75
1, 8448, Note_on_c, 1, 65, 75
1, 8461, Note_on_c, 0, 74, 0
1, 8462, Note_on_c, 0, 75, 75
1, 8475, Note_on_c, 0, 75, 0
1, 8476, Note_on_c, 0, 74, 75
1, 8489, Note_on_c, 0, 74, 0
1, 8490, Note_on_c, 0, 75, 75
1, 8503, Note_on_c, 0, 75, 0
1, 8504, Note_on_c, 0, 74, 75
1, 8517, Note_on_c, 0, 74, 0
1, 8518, Note_on_c, 0, 72, 75
1, 8529, Note_on_c, 0, 58, 0
1, 8530, Note_on_c, 0, 72, 0
1, 8531, Note_on_c, 0, 74, 75
1, 8537, Note_on_c, 1, 65, 0
1, 8543, Note_on_c, 0, 74, 0
1, 8544, Note_on_c, 0, 75, 75
1, 8544, Note_on_c, 1, 63, 75
1, 8544, Note_on_c, 0, 63, 75
1, 8633, Note_on_c, 0, 75, 0
1, 8633, Note_on_c, 1, 63, 0
1, 8633, Note_on_c, 0, 63, 0
1, 8640, Note_on_c, 0, 56, 75
1, 8688, Note_on_c, 0, 72, 75
1, 8733, Note_on_c, 0, 72, 0
1, 8736, Note_on_c, 0, 71, 75
1, 8736, Note_on_c, 1, 63, 75
1, 8781, Note_on_c, 0, 71, 0
1, 8784, Note_on_c, 0, 72, 75
1, 8817, Note_on_c, 0, 56, 0
1, 8829, Note_on_c, 0, 72, 0
1, 8832, Note_on_c, 0, 75, 75
1, 8832, Note_on_c, 0, 56, 75
1, 8877, Note_on_c, 0, 75, 0
1, 8880, Note_on_c, 0, 72, 75
1, 8913, Note_on_c, 1, 63, 0
1, 8921, Note_on_c, 0, 56, 0
1, 8925, Note_on_c, 0, 72, 0
1, 8928, Note_on_c, 0, 55, 75
1, 8976, Note_on_c, 0, 70, 75
1, 9021, Note_on_c, 0, 70, 0
1, 9024, Note_on_c, 0, 69, 75
1, 9024, Note_on_c, 1, 63, 75
1, 9069, Note_on_c, 0, 69, 0
1, 9072, Note_on_c, 0, 70, 75
1, 9105, Note_on_c, 0, 55, 0
1, 9117, Note_on_c, 0, 70, 0
1, 9120, Note_on_c, 0, 75, 75
1, 9120, Note_on_c, 0, 55, 75
1, 9165, Note_on_c, 0, 75, 0
1, 9168, Note_on_c, 0, 70, 75
1, 9201, Note_on_c, 1, 63, 0
1, 9209, Note_on_c, 0, 55, 0
1, 9213, Note_on_c, 0, 70, 0
1, 9216, Note_on_c, 0, 74, 75
1, 9216, Note_on_c, 1, 56, 75
1, 9239, Note_on_c, 0, 74, 0
1, 9240, Note_on_c, 0, 72, 75
1, 9263, Note_on_c, 0, 72, 0
1, 9264, Note_on_c, 0, 70, 75
1, 9287, Note_on_c, 0, 70, 0
1, 9288, Note_on_c, 0, 68, 75
1, 9305, Note_on_c, 1, 56, 0
1, 9311, Note_on_c, 0, 68, 0
1, 9312, Note_on_c, 0, 67, 75
1, 9312, Note_on_c, 1, 58, 75
1, 9401, Note_on_c, 0, 67, 0
1, 9401, Note_on_c, 1, 58, 0
1, 9408, Note_on_c, 0, 65, 75
1, 9408, Note_on_c, 1, 46, 75
1, 9421, Note_on_c, 0, 65, 0
1, 9422, Note_on_c, 0, 67, 75
1, 9435, Note_on_c, 0, 67, 0
1, 9436, Note_on_c, 0, 65, 75
1, 9449, Note_on_c, 0, 65, 0
1, 9450, Note_on_c, 0, 67, 75
1, 9463, Note_on_c, 0, 67, 0
1, 9464, Note_on_c, 0, 65, 75
1, 9477, Note_on_c, 0, 65, 0
1, 9478, Note_on_c, 0, 63, 75
1, 9490, Note_on_c, 0, 63, 0
1, 9491, Note_on_c, 0, 65, 75
1, 9497, Note_on_c, 1, 46, 0
1, 9503, Note_on_c, 0, 65, 0
1, 9504, Note_on_c, 0, 63, 75
1, 9504, Note_on_c, 1, 51, 75
1, 9593, Note_on_c, 1, 51, 0
1, 9600, Note_on_c, 1, 39, 75
1, 9681, Note_on_c, 0, 63, 0
1, 9689, Note_on_c, 1, 39, 0
1, 9792, Note_on_c, 1, 46, 81
1, 9822, Note_on_c, 1, 46, 0
1, 9824, Note_on_c, 1, 50, 81
1, 9854, Note_on_c, 1, 50, 0
1, 9856, Note_on_c, 1, 53, 81
1, 9886, Note_on_c, 1, 53, 0
1, 9888, Note_on_c, 1, 50, 81
1, 9918, Note_on_c, 1, 50, 0
1, 9920, Note_on_c, 1, 53, 81
1, 9950, Note_on_c, 1, 53, 0
1, 9952, Note_on_c, 1, 58, 81
1, 9982, Note_on_c, 1, 58, 0
1, 9984, Note_on_c, 1, 53, 81
1, 10014, Note_on_c, 1, 53, 0
1, 10016, Note_on_c, 1, 58, 81
1, 10046, Note_on_c, 1, 58, 0
1, 10048, Note_on_c, 1, 62, 81
1, 10078, Note_on_c, 1, 62, 0
1, 10080, Note_on_c, 1, 65, 81
1, 10176, Note_on_c, 0, 74, 70
1, 10176, Note_on_c, 0, 68, 70
1, 10272, Note_on_c, 0, 74, 0
1, 10272, Note_on_c, 0, 68, 0
1, 10272, Note_on_c, 0, 75, 70
1, 10272, Note_on_c, 0, 67, 70
1, 10272, Note_on_c, 1, 65, 0
1, 10272, Note_on_c, 1, 63, 70
1, 10366, Note_on_c, 0, 75, 0
1, 10366, Note_on_c, 0, 67, 0
1, 10366, Note_on_c, 1, 63, 0
1, 10368, Note_on_c, 1, 46, 81
1, 10398, Note_on_c, 1, 46, 0
1, 10400, Note_on_c, 1, 50, 81
1, 10430, Note_on_c, 1, 50, 0
1, 10432, Note_on_c, 1, 53, 81
1, 10462, Note_on_c, 1, 53, 0
1, 10464, Note_on_c, 1, 50, 81
1, 10494, Note_on_c, 1, 50, 0
1, 10496, Note_on_c, 1, 53, 81
1, 10526, Note_on_c, 1, 53, 0
1, 10528, Note_on_c, 1, 58, 81
1, 10558, Note_on_c, 1, 58, 0
1, 10560, Note_on_c, 1, 53, 81
1, 10590, Note_on_c, 1, 53, 0
1, 10592, Note_on_c, 1, 58, 81
1, 10622, Note_on_c, 1, 58, 0
1, 10624, Note_on_c, 1, 62, 81
1, 10654, Note_on_c, 1, 62, 0
1, 10656, Note_on_c, 1, 65, 81
1, 10745, Note_on_c, 1, 65, 0
1, 10752, Note_on_c, 0, 80, 70
1, 10752, Note_on_c, 0, 77, 70
1, 10752, Note_on_c, 1, 62, 81
1, 10848, Note_on_c, 0, 80, 0
1, 10848, Note_on_c, 0, 77, 0
1, 10848, Note_on_c, 0, 79, 70
1, 10848, Note_on_c, 0, 75, 70
1, 10848, Note_on_c, 1, 62, 0
1, 10848, Note_on_c, 1, 63, 70
1, 10942, Note_on_c, 0, 79, 0
1, 10942, Note_on_c, 0, 75, 0
1, 10942, Note_on_c, 1, 63, 0
1, 10944, Note_on_c, 1, 63, 70
1, 10944, Note_on_c, 1, 60, 70
1, 10944, Note_on_c, 1, 57, 70
1, 10992, Note_on_c, 0, 78, 70
1, 11033, Note_on_c, 1, 63, 0
1, 11033, Note_on_c, 1, 60, 0
1, 11033, Note_on_c, 1, 57, 0
1, 11037, Note_on_c, 0, 78, 0
1, 11040, Note_on_c, 0, 77, 71
1, 11085, Note_on_c, 0, 77, 0
1, 11088, Note_on_c, 0, 75, 71
1, 11133, Note_on_c, 0, 75, 0
1, 11136, Note_on_c, 0, 74, 72
1, 11181, Note_on_c, 0, 74, 0
1, 11184, Note_on_c, 0, 75, 72
1, 11229, Note_on_c, 0, 75, 0
1, 11232, Note_on_c, 1, 66, 73
1, 11232, Note_on_c, 1, 63, 73
1, 11232, Note_on_c, 1, 58, 73
1, 11280, Note_on_c, 0, 78, 74
1, 11321, Note_on_c, 1, 66, 0
1, 11321, Note_on_c, 1, 63, 0
1, 11321, Note_on_c, 1, 58, 0
1, 11325, Note_on_c, 0, 78, 0
1, 11328, Note_on_c, 0, 77, 74
1, 11373, Note_on_c, 0, 77, 0
1, 11376, Note_on_c, 0, 75, 75
1, 11421, Note_on_c, 0, 75, 0
1, 11424, Note_on_c, 0, 74, 75
1, 11469, Note_on_c, 0, 74, 0
1, 11472, Note_on_c, 0, 75, 76
1, 11517, Note_on_c, 0, 75, 0
1, 11520, Note_on_c, 1, 66, 76
1, 11520, Note_on_c, 1, 63, 76
1, 11520, Note_on_c, 1, 59, 76
1, 11568, Note_on_c, 0, 78, 77
1, 11609, Note_on_c, 1, 66, 0
1, 11609, Note_on_c, 1, 63, 0
1, 11609, Note_on_c, 1, 59, 0
1, 11613, Note_on_c, 0, 78, 0
1, 11616, Note_on_c, 0, 77, 78
1, 11661, Note_on_c, 0, 77, 0
1, 11664, Note_on_c, 0, 75, 78
1, 11709, Note_on_c, 0, 75, 0
1, 11712, Note_on_c, 0, 74, 79
1, 11712, Note_on_c, 1, 66, 78
1, 11712, Note_on_c, 1, 63, 78
1, 11712, Note_on_c, 1, 57, 78
1, 11757, Note_on_c, 0, 74, 0
1, 11760, Note_on_c, 0, 75, 80
1, 11801, Note_on_c, 1, 66, 0
1, 11801, Note_on_c, 1, 63, 0
1, 11801, Note_on_c, 1, 57, 0
1, 11805, Note_on_c, 0, 75, 0
1, 11808, Note_on_c, 0, 74, 80
1, 11808, Note_on_c, 1, 65, 79
1, 11808, Note_on_c, 1, 58, 79
1, 11838, Note_on_c, 0, 74, 0
1, 11840, Note_on_c, 0, 75, 81
1, 11870, Note_on_c, 0, 75, 0
1, 11872, Note_on_c, 0, 77, 81
1, 11902, Note_on_c, 0, 77, 0
1, 11904, Note_on_c, 0, 70, 81
1, 11985, Note_on_c, 1, 65, 0
1, 11985, Note_on_c, 1, 58, 0
1, 11993, Note_on_c, 0, 70, 0
1, 12096, Note_on_c, 0, 75, 75
1, 12096, Note_on_c, 1, 67, 75
1, 12096, Note_on_c, 1, 63, 75
1, 12108, Note_on_c, 0, 75, 0
1, 12108, Note_on_c, 0, 77, 75
1, 12120, Note_on_c, 0, 77, 0
1, 12120, Note_on_c, 0, 75, 75
1, 12132, Note_on_c, 0, 75, 0
1, 12132, Note_on_c, 0, 77, 75
1, 12144, Note_on_c, 0, 77, 0
1, 12144, Note_on_c, 0, 75, 75
1, 12156, Note_on_c, 0, 75, 0
1, 12156, Note_on_c, 0, 77, 75
1, 12163, Note_on_c, 0, 77, 0
1, 12168, Note_on_c, 0, 74, 75
1, 12180, Note_on_c, 0, 74, 0
1, 12180, Note_on_c, 0, 75, 75
1, 12185, Note_on_c, 1, 67, 0
1, 12185, Note_on_c, 1, 63, 0
1, 12192, Note_on_c, 0, 75, 0
1, 12192, Note_on_c, 0, 77, 75
1, 12192, Note_on_c, 1, 70, 75
1, 12192, Note_on_c, 1, 62, 75
1, 12281, Note_on_c, 0, 77, 0
1, 12281, Note_on_c, 1, 70, 0
1, 12281, Note_on_c, 1, 62, 0
1, 12384, Note_on_c, 0, 77, 75
1, 12384, Note_on_c, 1, 70, 75
1, 12384, Note_on_c, 1, 62, 75
1, 12396, Note_on_c, 0, 77, 0
1, 12396, Note_on_c, 0, 79, 75
1, 12408, Note_on_c, 0, 79, 0
1, 12408, Note_on_c, 0, 77, 75
1, 12420, Note_on_c, 0, 77, 0
1, 12420, Note_on_c, 0, 79, 75
1, 12432, Note_on_c, 0, 79, 0
1, 12432, Note_on_c, 0, 77, 75
1, 12444, Note_on_c, 0, 77, 0
1, 12444, Note_on_c, 0, 79, 75
1, 12451, Note_on_c, 0, 79, 0
1, 12456, Note_on_c, 0, 75, 75
1, 12468, Note_on_c, 0, 75, 0
1, 12468, Note_on_c, 0, 77, 75
1, 12473, Note_on_c, 1, 70, 0
1, 12473, Note_on_c, 1, 62, 0
1, 12480, Note_on_c, 0, 77, 0
1, 12480, Note_on_c, 0, 79, 75
1, 12480, Note_on_c, 1, 70, 75
1, 12480, Note_on_c, 1, 63, 75
1, 12569, Note_on_c, 0, 79, 0
1, 12569, Note_on_c, 1, 70, 0
1, 12569, Note_on_c, 1, 63, 0
1, 12672, Note_on_c, 0, 79, 75
1, 12672, Note_on_c, 1, 65, 75
1, 12672, Note_on_c, 1, 56, 75
1, 12690, Note_on_c, 0, 79, 0
1, 12690, Note_on_c, 0, 80, 75
1, 12690, Note_on_c, 0, 72, 75
1, 12761, Note_on_c, 0, 80, 0
1, 12761, Note_on_c, 0, 72, 0
1, 12768, Note_on_c, 0, 80, 75
1, 12835, Note_on_c, 0, 80, 0
1, 12840, Note_on_c, 0, 79, 75
1, 12863, Note_on_c, 0, 79, 0
1, 12864, Note_on_c, 0, 77, 75
1, 12931, Note_on_c, 0, 77, 0
1, 12936, Note_on_c, 0, 75, 75
1, 12937, Note_on_c, 1, 65, 0
1, 12937, Note_on_c, 1, 56, 0
1, 12959, Note_on_c, 0, 75, 0
1, 12960, Note_on_c, 0, 75, 75
1, 12960, Note_on_c, 1, 67, 75
1, 12960, Note_on_c, 0, 58, 75
1, 13049, Note_on_c, 0, 75, 0
1, 13049, Note_on_c, 1, 67, 0
1, 13056, Note_on_c, 0, 74, 75
1, 13056, Note_on_c, 1, 65, 75
1, 13137, Note_on_c, 0, 58, 0
1, 13145, Note_on_c, 0, 74, 0
1, 13145, Note_on_c, 1, 65, 0
1, 13152, Note_on_c, 0, 75, 75
1, 13152, Note_on_c, 1, 63, 75
1, 13152, Note_on_c, 0, 63, 75
1, 13241, Note_on_c, 0, 75, 0
1, 13241, Note_on_c, 1, 63, 0
1, 13241, Note_on_c, 0, 63, 0
1, 13248, Note_on_c, 0, 80, 75
1, 13248, Note_on_c, 0, 72, 75
1, 13248, Note_on_c, 1, 65, 75
1, 13248, Note_on_c, 0, 56, 75
1, 13337, Note_on_c, 0, 80, 0
1, 13337, Note_on_c, 0, 72, 0
1, 13344, Note_on_c, 0, 84, 75
1, 13374, Note_on_c, 0, 84, 0
1, 13376, Note_on_c, 0, 82, 75
1, 13406, Note_on_c, 0, 82, 0
1, 13408, Note_on_c, 0, 80, 75
1, 13438, Note_on_c, 0, 80, 0
1, 13440, Note_on_c, 0, 79, 75
1, 13470, Note_on_c, 0, 79, 0
1, 13472, Note_on_c, 0, 77, 75
1, 13502, Note_on_c, 0, 77, 0
1, 13504, Note_on_c, 0, 75, 75
1, 13513, Note_on_c, 1, 65, 0
1, 13513, Note_on_c, 0, 56, 0
1, 13534, Note_on_c, 0, 75, 0
1, 13536, Note_on_c, 0, 75, 75
1, 13536, Note_on_c, 1, 67, 75
1, 13536, Note_on_c, 0, 58, 75
1, 13625, Note_on_c, 0, 75, 0
1, 13625, Note_on_c, 1, 67, 0
1, 13632, Note_on_c, 0, 74, 75
1, 13632, Note_on_c, 1, 65, 75
1, 13645, Note_on_c, 0, 74, 0
1, 13646, Note_on_c, 0, 75, 75
1, 13659, Note_on_c, 0, 75, 0
1, 13660, Note_on_c, 0, 74, 75
1, 13673, Note_on_c, 0, 74, 0
1, 13674, Note_on_c, 0, 75, 75
1, 13687, Note_on_c, 0, 75, 0
1, 13688, Note_on_c, 0, 74, 75
1, 13701, Note_on_c, 0, 74, 0
1, 13702, Note_on_c, 0, 72, 75
1, 13713, Note_on_c, 0, 58, 0
1, 13714, Note_on_c, 0, 72, 0
1, 13715, Note_on_c, 0, 74, 75
1, 13721, Note_on_c, 1, 65, 0
1, 13727, Note_on_c, 0, 74, 0
1, 13728, Note_on_c, 0, 75, 75
1, 13728, Note_on_c, 1, 63, 75
1, 13728, Note_on_c, 0, 63, 75
1, 13817, Note_on_c, 0, 75, 0
1, 13817, Note_on_c, 1, 63, 0
1, 13817, Note_on_c, 0, 63, 0
1, 13824, Note_on_c, 0, 56, 75
1, 13872, Note_on_c, 0, 72, 75
1, 13917, Note_on_c, 0, 72, 0
1, 13920, Note_on_c, 0, 71, 75
1, 13920, Note_on_c, 1, 63, 75
1, 13965, Note_on_c, 0, 71, 0
1, 13968, Note_on_c, 0, 72, 75
1, 14001, Note_on_c, 0, 56, 0
1, 14013, Note_on_c, 0, 72, 0
1, 14016, Note_on_c, 0, 75, 75
1, 14016, Note_on_c, 0, 56, 75
1, 14061, Note_on_c, 0, 75, 0
1, 14064, Note_on_c, 0, 72, 75
1, 14097, Note_on_c, 1, 63, 0
1, 14105, Note_on_c, 0, 56, 0
1, 14109, Note_on_c, 0, 72, 0
1, 14112, Note_on_c, 0, 55, 75
1, 14160, Note_on_c, 0, 70, 75
1, 14205, Note_on_c, 0, 70, 0
1, 14208, Note_on_c, 0, 69, 75
1, 14208, Note_on_c, 1, 63, 75
1, 14253, Note_on_c, 0, 69, 0
1, 14256, Note_on_c, 0, 70, 75
1, 14289, Note_on_c, 0, 55, 0
1, 14301, Note_on_c, 0, 70, 0
1, 14304, Note_on_c, 0, 75, 75
1, 14304, Note_on_c, 0, 55, 75
1, 14349, Note_on_c, 0, 75, 0
1, 14352, Note_on_c, 0, 70, 75
1, 14385, Note_on_c, 1, 63, 0
1, 14393, Note_on_c, 0, 55, 0
1, 14397, Note_on_c, 0, 70, 0
1, 14400, Note_on_c, 0, 74, 75
1, 14400, Note_on_c, 1, 56, 75
1, 14423, Note_on_c, 0, 74, 0
1, 14424, Note_on_c, 0, 72, 75
1, 14447, Note_on_c, 0, 72, 0
1, 14448, Note_on_c, 0, 70, 75
1, 14471, Note_on_c, 0, 70, 0
1, 14472, Note_on_c, 0, 68, 75
1, 14489, Note_on_c, 1, 56, 0
1, 14495, Note_on_c, 0, 68, 0
1, 14496, Note_on_c, 0, 67, 75
1, 14496, Note_on_c, 1, 58, 75
1, 14585, Note_on_c, 0, 67, 0
1, 14585, Note_on_c, 1, 58, 0
1, 14592, Note_on_c, 0, 65, 75
1, 14592, Note_on_c, 1, 46, 75
1, 14605, Note_on_c, 0, 65, 0
1, 14606, Note_on_c, 0, 67, 75
1, 14619, Note_on_c, 0, 67, 0
1, 14620, Note_on_c, 0, 65, 75
1, 14633, Note_on_c, 0, 65, 0
1, 14634, Note_on_c, 0, 67, 75
1, 14647, Note_on_c, 0, 67, 0
1, 14648, Note_on_c, 0, 65, 75
1, 14661, Note_on_c, 0, 65, 0
1, 14662, Note_on_c, 0, 63, 75
1, 14674, Note_on_c, 0, 63, 0
1, 14675, Note_on_c, 0, 65, 75
1, 14681, Note_on_c, 1, 46, 0
1, 14687, Note_on_c, 0, 65, 0
1, 14688, Note_on_c, 0, 63, 75
1, 14688, Note_on_c, 1, 51, 75
1, 14777, Note_on_c, 1, 51, 0
1, 14784, Note_on_c, 1, 39, 75
1, 14865, Note_on_c, 0, 63, 0
1, 14873, Note_on_c, 1, 39, 0
1, 14976, Note_on_c, 0, 72, 75
1, 14976, Note_on_c, 1, 60, 75
1, 14976, Note_on_c, 1, 48, 75
1, 15024, Note_on_c, 0, 79, 75
1, 15044, Note_on_c, 0, 79, 0
1, 15065, Note_on_c, 0, 72, 0
1, 15065, Note_on_c, 1, 60, 0
1, 15065, Note_on_c, 1, 48, 0
1, 15072, Note_on_c, 0, 79, 74
1, 15120, Note_on_c, 0, 79, 0
1, 15120, Note_on_c, 0, 80, 74
1, 15165, Note_on_c, 0, 80, 0
1, 15168, Note_on_c, 0, 80, 74
1, 15216, Note_on_c, 0, 80, 0
1, 15216, Note_on_c, 0, 79, 73
1, 15261, Note_on_c, 0, 79, 0
1, 15264, Note_on_c, 0, 78, 73
1, 15264, Note_on_c, 1, 62, 73
1, 15264, Note_on_c, 1, 50, 73
1, 15312, Note_on_c, 0, 72, 73
1, 15332, Note_on_c, 0, 72, 0
1, 15353, Note_on_c, 1, 62, 0
1, 15353, Note_on_c, 1, 50, 0
1, 15360, Note_on_c, 0, 72, 73
1, 15408, Note_on_c, 0, 72, 0
1, 15408, Note_on_c, 0, 74, 73
1, 15453, Note_on_c, 0, 74, 0
1, 15456, Note_on_c, 0, 74, 72
1, 15504, Note_on_c, 0, 74, 0
1, 15504, Note_on_c, 0, 72, 72
1, 15529, Note_on_c, 0, 78, 0
1, 15549, Note_on_c, 0, 72, 0
1, 15552, Note_on_c, 0, 71, 72
1, 15552, Note_on_c, 1, 55, 72
1, 15552, Note_on_c, 1, 43, 72
1, 15600, Note_on_c, 0, 77, 71
1, 15620, Note_on_c, 0, 77, 0
1, 15641, Note_on_c, 1, 55, 0
1, 15641, Note_on_c, 1, 43, 0
1, 15648, Note_on_c, 0, 77, 71
1, 15696, Note_on_c, 0, 77, 0
1, 15696, Note_on_c, 0, 79, 71
1, 15741, Note_on_c, 0, 79, 0
1, 15744, Note_on_c, 0, 79, 71
1, 15792, Note_on_c, 0, 79, 0
1, 15792, Note_on_c, 0, 77, 70
1, 15817, Note_on_c, 0, 71, 0
1, 15837, Note_on_c, 0, 77, 0
1, 15840, Note_on_c, 0, 76, 70
1, 15840, Note_on_c, 1, 60, 70
1, 15840, Note_on_c, 1, 48, 70
1, 15888, Note_on_c, 0, 70, 70
1, 15908, Note_on_c, 0, 70, 0
1, 15929, Note_on_c, 1, 60, 0
1, 15929, Note_on_c, 1, 48, 0
1, 15936, Note_on_c, 0, 70, 70
1, 15984, Note_on_c, 0, 70, 0
1, 15984, Note_on_c, 0, 72, 69
1, 16029, Note_on_c, 0, 72, 0
1, 16032, Note_on_c, 0, 72, 69
1, 16080, Note_on_c, 0, 72, 0
1, 16080, Note_on_c, 0, 70, 69
1, 16105, Note_on_c, 0, 76, 0
1, 16125, Note_on_c, 0, 70, 0
1, 16128, Note_on_c, 0, 69, 69
1, 16128, Note_on_c, 1, 53, 69
1, 16128, Note_on_c, 1, 41, 69
1, 16176, Note_on_c, 0, 75, 68
1, 16196, Note_on_c, 0, 75, 0
1, 16217, Note_on_c, 1, 53, 0
1, 16217, Note_on_c, 1, 41, 0
1, 16224, Note_on_c, 0, 75, 68
1, 16272, Note_on_c, 0, 75, 0
1, 16272, Note_on_c, 0, 77, 68
1, 16317, Note_on_c, 0, 77, 0
1, 16320, Note_on_c, 0, 77, 68
1, 16368, Note_on_c, 0, 77, 0
1, 16368, Note_on_c, 0, 75, 67
1, 16393, Note_on_c, 0, 69, 0
1, 16413, Note_on_c, 0, 75, 0
1, 16416, Note_on_c, 0, 74, 67
1, 16416, Note_on_c, 1, 58, 67
1, 16416, Note_on_c, 1, 46, 67
1, 16464, Note_on_c, 0, 68, 67
1, 16484, Note_on_c, 0, 68, 0
1, 16505, Note_on_c, 1, 58, 0
1, 16505, Note_on_c, 1, 46, 0
1, 16512, Note_on_c, 0, 68, 67
1, 16560, Note_on_c, 0, 68, 0
1, 16560, Note_on_c, 0, 70, 66
1, 16605, Note_on_c, 0, 70, 0
1, 16608, Note_on_c, 0, 70, 66
1, 16656, Note_on_c, 0, 70, 0
1, 16656, Note_on_c, 0, 68, 66
1, 16681, Note_on_c, 0, 74, 0
1, 16701, Note_on_c, 0, 68, 0
1, 16704, Note_on_c, 1, 63, 81
1, 16704, Note_on_c, 1, 51, 81
1, 16752, Note_on_c, 0, 75, 81
1, 16752, Note_on_c, 0, 67, 81
1, 16772, Note_on_c, 0, 75, 0
1, 16772, Note_on_c, 0, 67, 0
1, 16793, Note_on_c, 1, 63, 0
1, 16793, Note_on_c, 1, 51, 0
1, 16800, Note_on_c, 0, 75, 81
1, 16800, Note_on_c, 0, 67, 81
1, 16845, Note_on_c, 0, 75, 0
1, 16845, Note_on_c, 0, 67, 0
1, 16848, Note_on_c, 0, 79, 81
1, 16848, Note_on_c, 0, 75, 81
1, 16893, Note_on_c, 0, 79, 0
1, 16893, Note_on_c, 0, 75, 0
1, 16896, Note_on_c, 0, 79, 81
1, 16896, Note_on_c, 0, 75, 81
1, 16941, Note_on_c, 0, 79, 0
1, 16941, Note_on_c, 0, 75, 0
1, 16944, Note_on_c, 0, 75, 81
1, 16944, Note_on_c, 0, 67, 81
1, 16989, Note_on_c, 0, 75, 0
1, 16989, Note_on_c, 0, 67, 0
1, 16992, Note_on_c, 1, 60, 81
1, 16992, Note_on_c, 1, 48, 81
1, 17040, Note_on_c, 0, 75, 81
1, 17040, Note_on_c, 0, 67, 81
1, 17060, Note_on_c, 0, 75, 0
1, 17060, Note_on_c, 0, 67, 0
1, 17081, Note_on_c, 1, 60, 0
1, 17081, Note_on_c, 1, 48, 0
1, 17088, Note_on_c, 0, 75, 81
1, 17088, Note_on_c, 0, 67, 81
1, 17133, Note_on_c, 0, 75, 0
1, 17133, Note_on_c, 0, 67, 0
1, 17136, Note_on_c, 0, 79, 81
1, 17136, Note_on_c, 0, 75, 81
1, 17181, Note_on_c, 0, 79, 0
1, 17181, Note_on_c, 0, 75, 0
1, 17184, Note_on_c, 0, 79, 81
1, 17184, Note_on_c, 0, 75, 81
1, 17229, Note_on_c, 0, 79, 0
1, 17229, Note_on_c, 0, 75, 0
1, 17232, Note_on_c, 0, 75, 81
1, 17232, Note_on_c, 0, 67, 81
1, 17277, Note_on_c, 0, 75, 0
1, 17277, Note_on_c, 0, 67, 0
1, 17280, Note_on_c, 0, 72, 81
1, 17280, Note_on_c, 1, 56, 81
1, 17310, Note_on_c, 0, 72, 0
1, 17312, Note_on_c, 0, 77, 80
1, 17342, Note_on_c, 0, 77, 0
1, 17344, Note_on_c, 0, 80, 79
1, 17369, Note_on_c, 1, 56, 0
1, 17374, Note_on_c, 0, 80, 0
1, 17376, Note_on_c, 0, 79, 78
1, 17376, Note_on_c, 0, 75, 78
1, 17376, Note_on_c, 1, 58, 77
1, 17465, Note_on_c, 1, 58, 0
1, 17472, Note_on_c, 0, 79, 0
1, 17472, Note_on_c, 0, 75, 0
1, 17472, Note_on_c, 0, 77, 75
1, 17472, Note_on_c, 0, 74, 75
1, 17472, Note_on_c, 1, 46, 73
1, 17561, Note_on_c, 0, 77, 0
1, 17561, Note_on_c, 0, 74, 0
1, 17561, Note_on_c, 1, 46, 0
1, 17568, Note_on_c, 0, 75, 72
1, 17568, Note_on_c, 1, 51, 69
1, 17657, Note_on_c, 1, 51, 0
1, 17664, Note_on_c, 1, 46, 66
1, 17745, Note_on_c, 0, 75, 0
1, 17753, Note_on_c, 1, 46, 0
1, 17760, Note_on_c, 1, 39, 66
1, 17849, Note_on_c, 1, 39, 0
1, 17856, Note_on_c, 0, 72, 75
1, 17856, Note_on_c, 1, 60, 75
1, 17856, Note_on_c, 1, 48, 75
1, 17904, Note_on_c, 0, 79, 75
1, 17924, Note_on_c, 0, 79, 0
1, 17945, Note_on_c, 0, 72, 0
1, 17945, Note_on_c, 1, 60, 0
1, 17945, Note_on_c, 1, 48, 0
1, 17952, Note_on_c, 0, 79, 74
1, 18000, Note_on_c, 0, 79, 0
1, 18000, Note_on_c, 0, 80, 74
1, 18045, Note_on_c, 0, 80, 0
1, 18048, Note_on_c, 0, 80, 74
1, 18096, Note_on_c, 0, 80, 0
1, 18096, Note_on_c, 0, 79, 73
1, 18141, Note_on_c, 0, 79, 0
1, 18144, Note_on_c, 0, 78, 73
1, 18144, Note_on_c, 1, 62, 73
1, 18144, Note_on_c, 1, 50, 73
1, 18192, Note_on_c, 0, 72, 73
1, 18212, Note_on_c, 0, 72, 0
1, 18233, Note_on_c, 1, 62, 0
1, 18233, Note_on_c, 1, 50, 0
1, 18240, Note_on_c, 0, 72, 73
1, 18288, Note_on_c, 0, 72, 0
1, 18288, Note_on_c, 0, 74, 73
1, 18333, Note_on_c, 0, 74, 0
1, 18336, Note_on_c, 0, 74, 72
1, 18384, Note_on_c, 0, 74, 0
1, 18384, Note_on_c, 0, 72, 72
1, 18409, Note_on_c, 0, 78, 0
1, 18429, Note_on_c, 0, 72, 0
1, 18432, Note_on_c, 0, 71, 72
1, 18432, Note_on_c, 1, 55, 72
1, 18432, Note_on_c, 1, 43, 72
1, 18480, Note_on_c, 0, 77, 71
1, 18500, Note_on_c, 0, 77, 0
1, 18521, Note_on_c, 1, 55, 0
1, 18521, Note_on_c, 1, 43, 0
1, 18528, Note_on_c, 0, 77, 71
1, 18576, Note_on_c, 0, 77, 0
1, 18576, Note_on_c, 0, 79, 71
1, 18621, Note_on_c, 0, 79, 0
1, 18624, Note_on_c, 0, 79, 71
1, 18672, Note_on_c, 0, 79, 0
1, 18672, Note_on_c, 0, 77, 70
1, 18697, Note_on_c, 0, 71, 0
1, 18717, Note_on_c, 0, 77, 0
1, 18720, Note_on_c, 0, 76, 70
1, 18720, Note_on_c, 1, 60, 70
1, 18720, Note_on_c, 1, 48, 70
1, 18768, Note_on_c, 0, 70, 70
1, 18788, Note_on_c, 0, 70, 0
1, 18809, Note_on_c, 1, 60, 0
1, 18809, Note_on_c, 1, 48, 0
1, 18816, Note_on_c, 0, 70, 70
1, 18864, Note_on_c, 0, 70, 0
1, 18864, Note_on_c, 0, 72, 69
1, 18909, Note_on_c, 0, 72, 0
1, 18912, Note_on_c, 0, 72, 69
1, 18960, Note_on_c, 0, 72, 0
1, 18960, Note_on_c, 0, 70, 69
1, 18985, Note_on_c, 0, 76, 0
1, 19005, Note_on_c, 0, 70, 0
1, 19008, Note_on_c, 0, 69, 69
1, 19008, Note_on_c, 1, 53, 69
1, 19008, Note_on_c, 1, 41, 69
1, 19056, Note_on_c, 0, 75, 68
1, 19076, Note_on_c, 0, 75, 0
1, 19097, Note_on_c, 1, 53, 0
1, 19097, Note_on_c, 1, 41, 0
1, 19104, Note_on_c, 0, 75, 68
1, 19152, Note_on_c, 0, 75, 0
1, 19152, Note_on_c, 0, 77, 68
1, 19197, Note_on_c, 0, 77, 0
1, 19200, Note_on_c, 0, 77, 68
1, 19248, Note_on_c, 0, 77, 0
1, 19248, Note_on_c, 0, 75, 67
1, 19273, Note_on_c, 0, 69, 0
1, 19293, Note_on_c, 0, 75, 0
1, 19296, Note_on_c, 0, 74, 67
1, 19296, Note_on_c, 1, 58, 67
1, 19296, Note_on_c, 1, 46, 67
1, 19344, Note_on_c, 0, 68, 67
1, 19364, Note_on_c, 0, 68, 0
1, 19385, Note_on_c, 1, 58, 0
1, 19385, Note_on_c, 1, 46, 0
1, 19392, Note_on_c, 0, 68, 67
1, 19440, Note_on_c, 0, 68, 0
1, 19440, Note_on_c, 0, 70, 66
1, 19485, Note_on_c, 0, 70, 0
1, 19488, Note_on_c, 0, 70, 66
1, 19536, Note_on_c, 0, 70, 0
1, 19536, Note_on_c, 0, 68, 66
1, 19561, Note_on_c, 0, 74, 0
1, 19581, Note_on_c, 0, 68, 0
1, 19584, Note_on_c, 1, 63, 81
1, 19584, Note_on_c, 1, 51, 81
1, 19632, Note_on_c, 0, 75, 81
1, 19632, Note_on_c, 0, 67, 81
1, 19652, Note_on_c, 0, 75, 0
1, 19652, Note_on_c, 0, 67, 0
1, 19673, Note_on_c, 1, 63, 0
1, 19673, Note_on_c, 1, 51, 0
1, 19680, Note_on_c, 0, 75, 81
1, 19680, Note_on_c, 0, 67, 81
1, 19725, Note_on_c, 0, 75, 0
1, 19725, Note_on_c, 0, 67, 0
1, 19728, Note_on_c, 0, 79, 81
1, 19728, Note_on_c, 0, 75, 81
1, 19773, Note_on_c, 0, 79, 0
1, 19773, Note_on_c, 0, 75, 0
1, 19776, Note_on_c, 0, 79, 81
1, 19776, Note_on_c, 0, 75, 81
1, 19821, Note_on_c, 0, 79, 0
1, 19821, Note_on_c, 0, 75, 0
1, 19824, Note_on_c, 0, 75, 81
1, 19824, Note_on_c, 0, 67, 81
1, 19869, Note_on_c, 0, 75, 0
1, 19869, Note_on_c, 0, 67, 0
1, 19872, Note_on_c, 1, 60, 81
1, 19872, Note_on_c, 1, 48, 81
1, 19920, Note_on_c, 0, 75, 81
1, 19920, Note_on_c, 0, 67, 81
1, 19940, Note_on_c, 0, 75, 0
1, 19940, Note_on_c, 0, 67, 0
1, 19961, Note_on_c, 1, 60, 0
1, 19961, Note_on_c, 1, 48, 0
1, 19968, Note_on_c, 0, 75, 81
1, 19968, Note_on_c, 0, 67, 81
1, 20013, Note_on_c, 0, 75, 0
1, 20013, Note_on_c, 0, 67, 0
1, 20016, Note_on_c, 0, 79, 81
1, 20016, Note_on_c, 0, 75, 81
1, 20061, Note_on_c, 0, 79, 0
1, 20061, Note_on_c, 0, 75, 0
1, 20064, Note_on_c, 0, 79, 81
1, 20064, Note_on_c, 0, 75, 81
1, 20109, Note_on_c, 0, 79, 0
1, 20109, Note_on_c, 0, 75, 0
1, 20112, Note_on_c, 0, 75, 81
1, 20112, Note_on_c, 0, 67, 81
1, 20157, Note_on_c, 0, 75, 0
1, 20157, Note_on_c, 0, 67, 0
1, 20160, Note_on_c, 0, 72, 81
1, 20160, Note_on_c, 1, 56, 81
1, 20190, Note_on_c, 0, 72, 0
1, 20192, Note_on_c, 0, 77, 80
1, 20222, Note_on_c, 0, 77, 0
1, 20224, Note_on_c, 0, 80, 79
1, 20249, Note_on_c, 1, 56, 0
1, 20254, Note_on_c, 0, 80, 0
1, 20256, Note_on_c, 0, 79, 78
1, 20256, Note_on_c, 0, 75, 78
1, 20256, Note_on_c, 1, 58, 77
1, 20345, Note_on_c, 1, 58, 0
1, 20352, Note_on_c, 0, 79, 0
1, 20352, Note_on_c, 0, 75, 0
1, 20352, Note_on_c, 0, 77, 75
1, 20352, Note_on_c, 0, 74, 75
1, 20352, Note_on_c, 1, 46, 73
1, 20441, Note_on_c, 0, 77, 0
1, 20441, Note_on_c, 0, 74, 0
1, 20441, Note_on_c, 1, 46, 0
1, 20448, Note_on_c, 0, 75, 72
1, 20448, Note_on_c, 1, 51, 69
1, 20537, Note_on_c, 1, 51, 0
1, 20544, Note_on_c, 1, 46, 66
1, 20625, Note_on_c, 0, 75, 0
1, 20633, Note_on_c, 1, 46, 0
1, 20640, Note_on_c, 1, 39, 66
1, 20729, Note_on_c, 1, 39, 0
1, 20736, Note_on_c, 1, 52, 70
1, 20736, Note_on_c, 1, 40, 70
1, 20784, Note_on_c, 0, 67, 70
1, 20804, Note_on_c, 0, 67, 0
1, 20825, Note_on_c, 1, 52, 0
1, 20825, Note_on_c, 1, 40, 0
1, 20832, Note_on_c, 0, 67, 70
1, 20880, Note_on_c, 0, 67, 0
1, 20880, Note_on_c, 0, 72, 70
1, 20925, Note_on_c, 0, 72, 0
1, 20928, Note_on_c, 0, 72, 71
1, 20976, Note_on_c, 0, 72, 0
1, 20976, Note_on_c, 0, 70, 71
1, 21021, Note_on_c, 0, 70, 0
1, 21024, Note_on_c, 0, 69, 72
1, 21024, Note_on_c, 1, 53, 72
1, 21024, Note_on_c, 1, 41, 72
1, 21072, Note_on_c, 0, 60, 71
1, 21092, Note_on_c, 0, 60, 0
1, 21113, Note_on_c, 1, 53, 0
1, 21113, Note_on_c, 1, 41, 0
1, 21120, Note_on_c, 0, 60, 72
1, 21168, Note_on_c, 0, 60, 0
1, 21168, Note_on_c, 0, 65, 72
1, 21213, Note_on_c, 0, 65, 0
1, 21216, Note_on_c, 0, 65, 73
1, 21264, Note_on_c, 0, 65, 0
1, 21264, Note_on_c, 0, 63, 73
1, 21289, Note_on_c, 0, 69, 0
1, 21309, Note_on_c, 0, 63, 0
1, 21312, Note_on_c, 0, 62, 74
1, 21312, Note_on_c, 1, 54, 75
1, 21312, Note_on_c, 1, 42, 75
1, 21360, Note_on_c, 0, 69, 75
1, 21380, Note_on_c, 0, 69, 0
1, 21401, Note_on_c, 1, 54, 0
1, 21401, Note_on_c, 1, 42, 0
1, 21408, Note_on_c, 0, 69, 76
1, 21456, Note_on_c, 0, 69, 0
1, 21456, Note_on_c, 0, 74, 76
1, 21501, Note_on_c, 0, 74, 0
1, 21504, Note_on_c, 0, 74, 77
1, 21552, Note_on_c, 0, 74, 0
1, 21552, Note_on_c, 0, 72, 77
1, 21577, Note_on_c, 0, 62, 0
1, 21597, Note_on_c, 0, 72, 0
1, 21600, Note_on_c, 0, 71, 78
1, 21600, Note_on_c, 1, 55, 78
1, 21600, Note_on_c, 1, 43, 78
1, 21648, Note_on_c, 0, 62, 78
1, 21668, Note_on_c, 0, 62, 0
1, 21689, Note_on_c, 1, 55, 0
1, 21689, Note_on_c, 1, 43, 0
1, 21696, Note_on_c, 0, 62, 78
1, 21744, Note_on_c, 0, 62, 0
1, 21744, Note_on_c, 0, 67, 79
1, 21789, Note_on_c, 0, 67, 0
1, 21792, Note_on_c, 0, 67, 79
1, 21840, Note_on_c, 0, 67, 0
1, 21840, Note_on_c, 0, 65, 80
1, 21865, Note_on_c, 0, 71, 0
1, 21885, Note_on_c, 0, 65, 0
1, 21888, Note_on_c, 0, 63, 81
1, 21888, Note_on_c, 1, 55, 81
1, 21888, Note_on_c, 1, 43, 81
1, 21936, Note_on_c, 0, 71, 81
1, 21956, Note_on_c, 0, 71, 0
1, 21977, Note_on_c, 1, 55, 0
1, 21977, Note_on_c, 1, 43, 0
1, 21984, Note_on_c, 0, 71, 81
1, 22032, Note_on_c, 0, 71, 0
1, 22032, Note_on_c, 0, 75, 81
1, 22077, Note_on_c, 0, 75, 0
1, 22080, Note_on_c, 0, 75, 81
1, 22128, Note_on_c, 0, 75, 0
1, 22128, Note_on_c, 0, 74, 81
1, 22153, Note_on_c, 0, 63, 0
1, 22173, Note_on_c, 0, 74, 0
1, 22176, Note_on_c, 0, 72, 81
1, 22176, Note_on_c, 1, 63, 81
1, 22176, Note_on_c, 1, 56, 81
1, 22224, Note_on_c, 0, 72, 0
1, 22224, Note_on_c, 0, 71, 81
1, 22269, Note_on_c, 0, 71, 0
1, 22272, Note_on_c, 0, 72, 78
1, 22320, Note_on_c, 0, 72, 0
1, 22320, Note_on_c, 0, 68, 76
1, 22353, Note_on_c, 1, 63, 0
1, 22353, Note_on_c, 1, 56, 0
1, 22365, Note_on_c, 0, 68, 0
1, 22368, Note_on_c, 0, 67, 74
1, 22368, Note_on_c, 1, 60, 81
1, 22368, Note_on_c, 1, 56, 81
1, 22416, Note_on_c, 0, 67, 0
1, 22416, Note_on_c, 0, 66, 72
1, 22457, Note_on_c, 1, 60, 0
1, 22457, Note_on_c, 1, 56, 0
1, 22461, Note_on_c, 0, 66, 0
1, 22464, Note_on_c, 0, 66, 70
1, 22464, Note_on_c, 1, 59, 76
1, 22464, Note_on_c, 1, 55, 76
1, 22560, Note_on_c, 0, 66, 0
1, 22560, Note_on_c, 0, 67, 66
1, 22641, Note_on_c, 1, 59, 0
1, 22641, Note_on_c, 1, 55, 0
1, 22649, Note_on_c, 0, 67, 0
1, 22752, Note_on_c, 1, 60, 75
1, 22800, Note_on_c, 0, 79, 81
1, 22800, Note_on_c, 0, 63, 81
1, 22820, Note_on_c, 0, 79, 0
1, 22820, Note_on_c, 0, 63, 0
1, 22848, Note_on_c, 0, 79, 80
1, 22848, Note_on_c, 0, 63, 80
1, 22896, Note_on_c, 0, 79, 0
1, 22896, Note_on_c, 0, 80, 79
1, 22896, Note_on_c, 0, 63, 0
1, 22896, Note_on_c, 0, 65, 79
1, 22941, Note_on_c, 0, 80, 0
1, 22941, Note_on_c, 0, 65, 0
1, 22944, Note_on_c, 0, 80, 78
1, 22944, Note_on_c, 0, 65, 78
1, 22992, Note_on_c, 0, 80, 0
1, 22992, Note_on_c, 0, 79, 77
1, 22992, Note_on_c, 0, 65, 0
1, 22992, Note_on_c, 0, 63, 77
1, 23017, Note_on_c, 1, 60, 0
1, 23037, Note_on_c, 0, 79, 0
1, 23037, Note_on_c, 0, 63, 0
1, 23040, Note_on_c, 0, 78, 76
1, 23040, Note_on_c, 1, 62, 81
1, 23088, Note_on_c, 0, 72, 76
1, 23088, Note_on_c, 0, 69, 75
1, 23108, Note_on_c, 0, 72, 0
1, 23108, Note_on_c, 0, 69, 0
1, 23136, Note_on_c, 0, 72, 75
1, 23136, Note_on_c, 0, 69, 74
1, 23184, Note_on_c, 0, 72, 0
1, 23184, Note_on_c, 0, 74, 74
1, 23184, Note_on_c, 0, 69, 0
1, 23184, Note_on_c, 0, 70, 73
1, 23229, Note_on_c, 0, 74, 0
1, 23229, Note_on_c, 0, 70, 0
1, 23232, Note_on_c, 0, 74, 73
1, 23232, Note_on_c, 0, 70, 73
1, 23280, Note_on_c, 0, 74, 0
1, 23280, Note_on_c, 0, 72, 72
1, 23280, Note_on_c, 0, 70, 0
1, 23280, Note_on_c, 0, 69, 72
1, 23305, Note_on_c, 0, 78, 0
1, 23305, Note_on_c, 1, 62, 0
1, 23325, Note_on_c, 0, 72, 0
1, 23325, Note_on_c, 0, 69, 0
1, 23328, Note_on_c, 0, 71, 71
1, 23328, Note_on_c, 1, 67, 73
1, 23376, Note_on_c, 0, 77, 70
1, 23376, Note_on_c, 0, 62, 70
1, 23396, Note_on_c, 0, 77, 0
1, 23396, Note_on_c, 0, 62, 0
1, 23424, Note_on_c, 0, 77, 69
1, 23424, Note_on_c, 0, 62, 69
1, 23472, Note_on_c, 0, 77, 0
1, 23472, Note_on_c, 0, 79, 68
1, 23472, Note_on_c, 0, 62, 0
1, 23472, Note_on_c, 0, 63, 68
1, 23517, Note_on_c, 0, 79, 0
1, 23517, Note_on_c, 0, 63, 0
1, 23520, Note_on_c, 0, 79, 67
1, 23520, Note_on_c, 0, 63, 67
1, 23568, Note_on_c, 0, 79, 0
1, 23568, Note_on_c, 0, 77, 66
1, 23568, Note_on_c, 0, 63, 0
1, 23568, Note_on_c, 0, 62, 66
1, 23593, Note_on_c, 0, 71, 0
1, 23593, Note_on_c, 1, 67, 0
1, 23613, Note_on_c, 0, 77, 0
1, 23613, Note_on_c, 0, 62, 0
1, 23616, Note_on_c, 1, 60, 81
1, 23616, Note_on_c, 1, 48, 81
1, 23664, Note_on_c, 0, 75, 81
1, 23664, Note_on_c, 0, 72, 81
1, 23684, Note_on_c, 0, 75, 0
1, 23684, Note_on_c, 0, 72, 0
1, 23705, Note_on_c, 1, 60, 0
1, 23705, Note_on_c, 1, 48, 0
1, 23712, Note_on_c, 0, 75, 81
1, 23712, Note_on_c, 0, 72, 81
1, 23757, Note_on_c, 0, 75, 0
1, 23757, Note_on_c, 0, 72, 0
1, 23760, Note_on_c, 0, 84, 81
1, 23760, Note_on_c, 0, 75, 81
1, 23805, Note_on_c, 0, 84, 0
1, 23805, Note_on_c, 0, 75, 0
1, 23808, Note_on_c, 0, 84, 81
1, 23808, Note_on_c, 0, 75, 81
1, 23853, Note_on_c, 0, 84, 0
1, 23853, Note_on_c, 0, 75, 0
1, 23856, Note_on_c, 0, 75, 81
1, 23856, Note_on_c, 0, 72, 81
1, 23901, Note_on_c, 0, 75, 0
1, 23901, Note_on_c, 0, 72, 0
1, 23904, Note_on_c, 1, 56, 81
1, 23904, Note_on_c, 1, 44, 81
1, 23952, Note_on_c, 0, 75, 81
1, 23952, Note_on_c, 0, 72, 81
1, 23972, Note_on_c, 0, 75, 0
1, 23972, Note_on_c, 0, 72, 0
1, 23993, Note_on_c, 1, 56, 0
1, 23993, Note_on_c, 1, 44, 0
1, 24000, Note_on_c, 0, 75, 81
1, 24000, Note_on_c, 0, 72, 81
1, 24045, Note_on_c, 0, 75, 0
1, 24045, Note_on_c, 0, 72, 0
1, 24048, Note_on_c, 0, 84, 81
1, 24048, Note_on_c, 0, 75, 81
1, 24093, Note_on_c, 0, 84, 0
1, 24093, Note_on_c, 0, 75, 0
1, 24096, Note_on_c, 0, 84, 81
1, 24096, Note_on_c, 0, 75, 81
1, 24141, Note_on_c, 0, 84, 0
1, 24141, Note_on_c, 0, 75, 0
1, 24144, Note_on_c, 0, 75, 81
1, 24144, Note_on_c, 0, 72, 81
1, 24189, Note_on_c, 0, 75, 0
1, 24189, Note_on_c, 0, 72, 0
1, 24192, Note_on_c, 0, 80, 81
1, 24192, Note_on_c, 1, 53, 81
1, 24222, Note_on_c, 0, 80, 0
1, 24224, Note_on_c, 0, 77, 79
1, 24254, Note_on_c, 0, 77, 0
1, 24256, Note_on_c, 0, 74, 78
1, 24281, Note_on_c, 1, 53, 0
1, 24286, Note_on_c, 0, 74, 0
1, 24288, Note_on_c, 0, 75, 77
1, 24288, Note_on_c, 0, 72, 77
1, 24288, Note_on_c, 1, 55, 77
1, 24377, Note_on_c, 1, 55, 0
1, 24384, Note_on_c, 0, 75, 0
1, 24384, Note_on_c, 0, 72, 0
1, 24384, Note_on_c, 0, 74, 73
1, 24384, Note_on_c, 0, 71, 73
1, 24384, Note_on_c, 1, 43, 73
1, 24473, Note_on_c, 0, 74, 0
1, 24473, Note_on_c, 0, 71, 0
1, 24473, Note_on_c, 1, 43, 0
1, 24480, Note_on_c, 0, 72, 69
1, 24480, Note_on_c, 1, 48, 69
1, 24569, Note_on_c, 0, 72, 0
1, 24569, Note_on_c, 1, 48, 0
1, 24576, Note_on_c, 1, 43, 66
1, 24665, Note_on_c, 1, 43, 0
1, 24672, Note_on_c, 1, 36, 66
1, 24761, Note_on_c, 1, 36, 0
1, 24768, Note_on_c, 1, 52, 70
1, 24768, Note_on_c, 1, 40, 70
1, 24816, Note_on_c, 0, 67, 70
1, 24836, Note_on_c, 0, 67, 0
1, 24857, Note_on_c, 1, 52, 0
1, 24857, Note_on_c, 1, 40, 0
1, 24864, Note_on_c, 0, 67, 70
1, 24912, Note_on_c, 0, 67, 0
1, 24912, Note_on_c, 0, 72, 70
1, 24957, Note_on_c, 0, 72, 0
1, 24960, Note_on_c, 0, 72, 71
1, 25008, Note_on_c, 0, 72, 0
1, 25008, Note_on_c, 0, 70, 71
1, 25053, Note_on_c, 0, 70, 0
1, 25056, Note_on_c, 0, 69, 72
1, 25056, Note_on_c, 1, 53, 72
1, 25056, Note_on_c, 1, 41, 72
1, 25104, Note_on_c, 0, 60, 71
1, 25124, Note_on_c, 0, 60, 0
1, 25145, Note_on_c, 1, 53, 0
1, 25145, Note_on_c, 1, 41, 0
1, 25152, Note_on_c, 0, 60, 72
1, 25200, Note_on_c, 0, 60, 0
1, 25200, Note_on_c, 0, 65, 72
1, 25245, Note_on_c, 0, 65, 0
1, 25248, Note_on_c, 0, 65, 73
1, 25296, Note_on_c, 0, 65, 0
1, 25296, Note_on_c, 0, 63, 73
1, 25321, Note_on_c, 0, 69, 0
1, 25341, Note_on_c, 0, 63, 0
1, 25344, Note_on_c, 0, 62, 74
1, 25344, Note_on_c, 1, 54, 75
1, 25344, Note_on_c, 1, 42, 75
1, 25392, Note_on_c, 0, 69, 75
1, 25412, Note_on_c, 0, 69, 0
1, 25433, Note_on_c, 1, 54, 0
1, 25433, Note_on_c, 1, 42, 0
1, 25440, Note_on_c, 0, 69, 76
1, 25488, Note_on_c, 0, 69, 0
1, 25488, Note_on_c, 0, 74, 76
1, 25533, Note_on_c, 0, 74, 0
1, 25536, Note_on_c, 0, 74, 77
1, 25584, Note_on_c, 0, 74, 0
1, 25584, Note_on_c, 0, 72, 77
1, 25609, Note_on_c, 0, 62, 0
1, 25629, Note_on_c, 0, 72, 0
1, 25632, Note_on_c, 0, 71, 78
1, 25632, Note_on_c, 1, 55, 78
1, 25632, Note_on_c, 1, 43, 78
1, 25680, Note_on_c, 0, 62, 78
1, 25700, Note_on_c, 0, 62, 0
1, 25721, Note_on_c, 1, 55, 0
1, 25721, Note_on_c, 1, 43, 0
1, 25728, Note_on_c, 0, 62, 78
1, 25776, Note_on_c, 0, 62, 0
1, 25776, Note_on_c, 0, 67, 79
1, 25821, Note_on_c, 0, 67, 0
1, 25824, Note_on_c, 0, 67, 79
1, 25872, Note_on_c, 0, 67, 0
1, 25872, Note_on_c, 0, 65, 80
1, 25897, Note_on_c, 0, 71, 0
1, 25917, Note_on_c, 0, 65, 0
1, 25920, Note_on_c, 0, 63, 81
1, 25920, Note_on_c, 1, 55, 81
1, 25920, Note_on_c, 1, 43, 81
1, 25968, Note_on_c, 0, 71, 81
1, 25988, Note_on_c, 0, 71, 0
1, 26009, Note_on_c, 1, 55, 0
1, 26009, Note_on_c, 1, 43, 0
1, 26016, Note_on_c, 0, 71, 81
1, 26064, Note_on_c, 0, 71, 0
1, 26064, Note_on_c, 0, 75, 81
1, 26109, Note_on_c, 0, 75, 0
1, 26112, Note_on_c, 0, 75, 81
1, 26160, Note_on_c, 0, 75, 0
1, 26160, Note_on_c, 0, 74, 81
1, 26185, Note_on_c, 0, 63, 0
1, 26205, Note_on_c, 0, 74, 0
1, 26208, Note_on_c, 0, 72, 81
1, 26208, Note_on_c, 1, 63, 81
1, 26208, Note_on_c, 1, 56, 81
1, 26256, Note_on_c, 0, 72, 0
1, 26256, Note_on_c, 0, 71, 81
1, 26301, Note_on_c, 0, 71, 0
1, 26304, Note_on_c, 0, 72, 78
1, 26352, Note_on_c, 0, 72, 0
1, 26352, Note_on_c, 0, 68, 76
1, 26385, Note_on_c, 1, 63, 0
1, 26385, Note_on_c, 1, 56, 0
1, 26397, Note_on_c, 0, 68, 0
1, 26400, Note_on_c, 0, 67, 74
1, 26400, Note_on_c, 1, 60, 81
1, 26400, Note_on_c, 1, 56, 81
1, 26448, Note_on_c, 0, 67, 0
1, 26448, Note_on_c, 0, 66, 72
1, 26489, Note_on_c, 1, 60, 0
1, 26489, Note_on_c, 1, 56, 0
1, 26493, Note_on_c, 0, 66, 0
1, 26496, Note_on_c, 0, 66, 70
1, 26496, Note_on_c, 1, 59, 76
1, 26496, Note_on_c, 1, 55, 76
1, 26592, Note_on_c, 0, 66, 0
1, 26592, Note_on_c, 0, 67, 66
1, 26673, Note_on_c, 1, 59, 0
1, 26673, Note_on_c, 1, 55, 0
1, 26681, Note_on_c, 0, 67, 0
1, 26784, Note_on_c, 1, 60, 75
1, 26832, Note_on_c, 0, 79, 81
1, 26832, Note_on_c, 0, 63, 81
1, 26852, Note_on_c, 0, 79, 0
1, 26852, Note_on_c, 0, 63, 0
1, 26880, Note_on_c, 0, 79, 80
1, 26880, Note_on_c, 0, 63, 80
1, 26928, Note_on_c, 0, 79, 0
1, 26928, Note_on_c, 0, 80, 79
1, 26928, Note_on_c, 0, 63, 0
1, 26928, Note_on_c, 0, 65, 79
1, 26973, Note_on_c, 0, 80, 0
1, 26973, Note_on_c, 0, 65, 0
1, 26976, Note_on_c, 0, 80, 78
1, 26976, Note_on_c, 0, 65, 78
1, 27024, Note_on_c, 0, 80, 0
1, 27024, Note_on_c, 0, 79, 77
1, 27024, Note_on_c, 0, 65, 0
1, 27024, Note_on_c, 0, 63, 77
1, 27049, Note_on_c, 1, 60, 0
1, 27069, Note_on_c, 0, 79, 0
1, 27069, Note_on_c, 0, 63, 0
1, 27072, Note_on_c, 0, 78, 76
1, 27072, Note_on_c, 1, 62, 81
1, 27120, Note_on_c, 0, 72, 76
1, 27120, Note_on_c, 0, 69, 75
1, 27140, Note_on_c, 0, 72, 0
1, 27140, Note_on_c, 0, 69, 0
1, 27168, Note_on_c, 0, 72, 75
1, 27168, Note_on_c, 0, 69, 74
1, 27216, Note_on_c, 0, 72, 0
1, 27216, Note_on_c, 0, 74, 74
1, 27216, Note_on_c, 0, 69, 0
1, 27216, Note_on_c, 0, 70, 73
1, 27261, Note_on_c, 0, 74, 0
1, 27261, Note_on_c, 0, 70, 0
1, 27264, Note_on_c, 0, 74, 73
1, 27264, Note_on_c, 0, 70, 73
1, 27312, Note_on_c, 0, 74, 0
1, 27312, Note_on_c, 0, 72, 72
1, 27312, Note_on_c, 0, 70, 0
1, 27312, Note_on_c, 0, 69, 72
1, 27337, Note_on_c, 0, 78, 0
1, 27337, Note_on_c, 1, 62, 0
1, 27357, Note_on_c, 0, 72, 0
1, 27357, Note_on_c, 0, 69, 0
1, 27360, Note_on_c, 0, 71, 71
1, 27360, Note_on_c, 1, 67, 73
1, 27408, Note_on_c, 0, 77, 70
1, 27408, Note_on_c, 0, 62, 70
1, 27428, Note_on_c, 0, 77, 0
1, 27428, Note_on_c, 0, 62, 0
1, 27456, Note_on_c, 0, 77, 69
1, 27456, Note_on_c, 0, 62, 69
1, 27504, Note_on_c, 0, 77, 0
1, 27504, Note_on_c, 0, 79, 68
1, 27504, Note_on_c, 0, 62, 0
1, 27504, Note_on_c, 0, 63, 68
1, 27549, Note_on_c, 0, 79, 0
1, 27549, Note_on_c, 0, 63, 0
1, 27552, Note_on_c, 0, 79, 67
1, 27552, Note_on_c, 0, 63, 67
1, 27600, Note_on_c, 0, 79, 0
1, 27600, Note_on_c, 0, 77, 66
1, 27600, Note_on_c, 0, 63, 0
1, 27600, Note_on_c, 0, 62, 66
1, 27625, Note_on_c, 0, 71, 0
1, 27625, Note_on_c, 1, 67, 0
1, 27645, Note_on_c, 0, 77, 0
1, 27645, Note_on_c, 0, 62, 0
1, 27648, Note_on_c, 1, 60, 81
1, 27648, Note_on_c, 1, 48, 81
1, 27696, Note_on_c, 0, 75, 81
1, 27696, Note_on_c, 0, 72, 81
1, 27716, Note_on_c, 0, 75, 0
1, 27716, Note_on_c, 0, 72, 0
1, 27737, Note_on_c, 1, 60, 0
1, 27737, Note_on_c, 1, 48, 0
1, 27744, Note_on_c, 0, 75, 81
1, 27744, Note_on_c, 0, 72, 81
1, 27789, Note_on_c, 0, 75, 0
1, 27789, Note_on_c, 0, 72, 0
1, 27792, Note_on_c, 0, 84, 81
1, 27792, Note_on_c, 0, 75, 81
1, 27837, Note_on_c, 0, 84, 0
1, 27837, Note_on_c, 0, 75, 0
1, 27840, Note_on_c, 0, 84, 81
1, 27840, Note_on_c, 0, 75, 81
1, 27885, Note_on_c, 0, 84, 0
1, 27885, Note_on_c, 0, 75, 0
1, 27888, Note_on_c, 0, 75, 81
1, 27888, Note_on_c, 0, 72, 81
1, 27933, Note_on_c, 0, 75, 0
1, 27933, Note_on_c, 0, 72, 0
1, 27936, Note_on_c, 1, 56, 81
1, 27936, Note_on_c, 1, 44, 81
1, 27984, Note_on_c, 0, 75, 81
1, 27984, Note_on_c, 0, 72, 81
1, 28004, Note_on_c, 0, 75, 0
1, 28004, Note_on_c, 0, 72, 0
1, 28025, Note_on_c, 1, 56, 0
1, 28025, Note_on_c, 1, 44, 0
1, 28032, Note_on_c, 0, 75, 81
1, 28032, Note_on_c, 0, 72, 81
1, 28077, Note_on_c, 0, 75, 0
1, 28077, Note_on_c, 0, 72, 0
1, 28080, Note_on_c, 0, 84, 81
1, 28080, Note_on_c, 0, 75, 81
1, 28125, Note_on_c, 0, 84, 0
1, 28125, Note_on_c, 0, 75, 0
1, 28128, Note_on_c, 0, 84, 81
1, 28128, Note_on_c, 0, 75, 81
1, 28173, Note_on_c, 0, 84, 0
1, 28173, Note_on_c, 0, 75, 0
1, 28176, Note_on_c, 0, 75, 81
1, 28176, Note_on_c, 0, 72, 81
1, 28221, Note_on_c, 0, 75, 0
1, 28221, Note_on_c, 0, 72, 0
1, 28224, Note_on_c, 0, 80, 81
1, 28224, Note_on_c, 1, 53, 81
1, 28254, Note_on_c, 0, 80, 0
1, 28256, Note_on_c, 0, 77, 79
1, 28286, Note_on_c, 0, 77, 0
1, 28288, Note_on_c, 0, 74, 78
1, 28313, Note_on_c, 1, 53, 0
1, 28318, Note_on_c, 0, 74, 0
1, 28320, Note_on_c, 0, 75, 77
1, 28320, Note_on_c, 0, 72, 77
1, 28320, Note_on_c, 1, 55, 77
1, 28409, Note_on_c, 1, 55, 0
1, 28416, Note_on_c, 0, 75, 0
1, 28416, Note_on_c, 0, 72, 0
1, 28416, Note_on_c, 0, 74, 73
1, 28416, Note_on_c, 0, 71, 73
1, 28416, Note_on_c, 1, 43, 73
1, 28505, Note_on_c, 0, 74, 0
1, 28505, Note_on_c, 0, 71, 0
1, 28505, Note_on_c, 1, 43, 0
1, 28512, Note_on_c, 0, 72, 69
1, 28512, Note_on_c, 1, 48, 69
1, 28601, Note_on_c, 0, 72, 0
1, 28601, Note_on_c, 1, 48, 0
1, 28608, Note_on_c, 1, 43, 66
1, 28697, Note_on_c, 1, 43, 0
1, 28704, Note_on_c, 1, 36, 66
1, 28793, Note_on_c, 1, 36, 0
1, 28800, Note_on_c, 0, 75, 75
1, 28800, Note_on_c, 1, 67, 75
1, 28800, Note_on_c, 1, 63, 75
1, 28812, Note_on_c, 0, 75, 0
1, 28812, Note_on_c, 0, 77, 75
1, 28824, Note_on_c, 0, 77, 0
1, 28824, Note_on_c, 0, 75, 75
1, 28836, Note_on_c, 0, 75, 0
1, 28836, Note_on_c, 0, 77, 75
1, 28848, Note_on_c, 0, 77, 0
1, 28848, Note_on_c, 0, 75, 75
1, 28860, Note_on_c, 0, 75, 0
1, 28860, Note_on_c, 0, 77, 75
1, 28867, Note_on_c, 0, 77, 0
1, 28872, Note_on_c, 0, 74, 75
1, 28884, Note_on_c, 0, 74, 0
1, 28884, Note_on_c, 0, 75, 75
1, 28889, Note_on_c, 1, 67, 0
1, 28889, Note_on_c, 1, 63, 0
1, 28896, Note_on_c, 0, 75, 0
1, 28896, Note_on_c, 0, 77, 75
1, 28896, Note_on_c, 1, 70, 75
1, 28896, Note_on_c, 1, 62, 75
1, 28985, Note_on_c, 0, 77, 0
1, 28985, Note_on_c, 1, 70, 0
1, 28985, Note_on_c, 1, 62, 0
1, 29088, Note_on_c, 0, 77, 75
1, 29088, Note_on_c, 1, 70, 75
1, 29088, Note_on_c, 1, 62, 75
1, 29100, Note_on_c, 0, 77, 0
1, 29100, Note_on_c, 0, 79, 75
1, 29112, Note_on_c, 0, 79, 0
1, 29112, Note_on_c, 0, 77, 75
1, 29124, Note_on_c, 0, 77, 0
1, 29124, Note_on_c, 0, 79, 75
1, 29136, Note_on_c, 0, 79, 0
1, 29136, Note_on_c, 0, 77, 75
1, 29148, Note_on_c, 0, 77, 0
1, 29148, Note_on_c, 0, 79, 75
1, 29155, Note_on_c, 0, 79, 0
1, 29160, Note_on_c, 0, 75, 75
1, 29172, Note_on_c, 0, 75, 0
1, 29172, Note_on_c, 0, 77, 75
1, 29177, Note_on_c, 1, 70, 0
1, 29177, Note_on_c, 1, 62, 0
1, 29184, Note_on_c, 0, 77, 0
1, 29184, Note_on_c, 0, 79, 75
1, 29184, Note_on_c, 1, 70, 75
1, 29184, Note_on_c, 1, 63, 75
1, 29273, Note_on_c, 0, 79, 0
1, 29273, Note_on_c, 1, 70, 0
1, 29273, Note_on_c, 1, 63, 0
1, 29376, Note_on_c, 0, 79, 75
1, 29376, Note_on_c, 1, 65, 75
1, 29376, Note_on_c, 1, 56, 75
1, 29394, Note_on_c, 0, 79, 0
1, 29394, Note_on_c, 0, 80, 75
1, 29394, Note_on_c, 0, 72, 75
1, 29465, Note_on_c, 0, 80, 0
1, 29465, Note_on_c, 0, 72, 0
1, 29472, Note_on_c, 0, 80, 75
1, 29539, Note_on_c, 0, 80, 0
1, 29544, Note_on_c, 0, 79, 75
1, 29567, Note_on_c, 0, 79, 0
1, 29568, Note_on_c, 0, 77, 75
1, 29635, Note_on_c, 0, 77, 0
1, 29640, Note_on_c, 0, 75, 75
1, 29641, Note_on_c, 1, 65, 0
1, 29641, Note_on_c, 1, 56, 0
1, 29663, Note_on_c, 0, 75, 0
1, 29664, Note_on_c, 0, 75, 75
1, 29664, Note_on_c, 1, 67, 75
1, 29664, Note_on_c, 0, 58, 75
1, 29753, Note_on_c, 0, 75, 0
1, 29753, Note_on_c, 1, 67, 0
1, 29760, Note_on_c, 0, 74, 75
1, 29760, Note_on_c, 1, 65, 75
1, 29841, Note_on_c, 0, 58, 0
1, 29849, Note_on_c, 0, 74, 0
1, 29849, Note_on_c, 1, 65, 0
1, 29856, Note_on_c, 0, 75, 75
1, 29856, Note_on_c, 1, 63, 75
1, 29856, Note_on_c, 0, 63, 75
1, 29945, Note_on_c, 0, 75, 0
1, 29945, Note_on_c, 1, 63, 0
1, 29945, Note_on_c, 0, 63, 0
1, 29952, Note_on_c, 0, 80, 75
1, 29952, Note_on_c, 0, 72, 75
1, 29952, Note_on_c, 1, 65, 75
1, 29952, Note_on_c, 0, 56, 75
1, 30041, Note_on_c, 0, 80, 0
1, 30041, Note_on_c, 0, 72, 0
1, 30048, Note_on_c, 0, 84, 75
1, 30078, Note_on_c, 0, 84, 0
1, 30080, Note_on_c, 0, 82, 75
1, 30110, Note_on_c, 0, 82, 0
1, 30112, Note_on_c, 0, 80, 75
1, 30142, Note_on_c, 0, 80, 0
1, 30144, Note_on_c, 0, 79, 75
1, 30174, Note_on_c, 0, 79, 0
1, 30176, Note_on_c, 0, 77, 75
1, 30206, Note_on_c, 0, 77, 0
1, 30208, Note_on_c, 0, 75, 75
1, 30217, Note_on_c, 1, 65, 0
1, 30217, Note_on_c, 0, 56, 0
1, 30238, Note_on_c, 0, 75, 0
1, 30240, Note_on_c, 0, 75, 75
1, 30240, Note_on_c, 1, 67, 75
1, 30240, Note_on_c, 0, 58, 75
1, 30329, Note_on_c, 0, 75, 0
1, 30329, Note_on_c, 1, 67, 0
1, 30336, Note_on_c, 0, 74, 75
1, 30336, Note_on_c, 1, 65, 75
1, 30349, Note_on_c, 0, 74, 0
1, 30350, Note_on_c, 0, 75, 75
1, 30363, Note_on_c, 0, 75, 0
1, 30364, Note_on_c, 0, 74, 75
1, 30377, Note_on_c, 0, 74, 0
1, 30378, Note_on_c, 0, 75, 75
1, 30391, Note_on_c, 0, 75, 0
1, 30392, Note_on_c, 0, 74, 75
1, 30405, Note_on_c, 0, 74, 0
1, 30406, Note_on_c, 0, 72, 75
1, 30417, Note_on_c, 0, 58, 0
1, 30418, Note_on_c, 0, 72, 0
1, 30419, Note_on_c, 0, 74, 75
1, 30425, Note_on_c, 1, 65, 0
1, 30431, Note_on_c, 0, 74, 0
1, 30432, Note_on_c, 0, 75, 75
1, 30432, Note_on_c, 1, 63, 75
1, 30432, Note_on_c, 0, 63, 75
1, 30499, Note_on_c, 0, 75, 0
1, 30504, Note_on_c, 0, 70, 75
1, 30504, Note_on_c, 0, 67, 75
1, 30521, Note_on_c, 1, 63, 0
1, 30521, Note_on_c, 0, 63, 0
1, 30527, Note_on_c, 0, 70, 0
1, 30527, Note_on_c, 0, 67, 0
1, 30528, Note_on_c, 0, 70, 75
1, 30528, Note_on_c, 0, 67, 75
1, 30617, Note_on_c, 0, 70, 0
1, 30617, Note_on_c, 0, 67, 0
1, 30624, Note_on_c, 0, 68, 73
1, 30624, Note_on_c, 0, 65, 73
1, 30624, Note_on_c, 1, 50, 73
1, 30713, Note_on_c, 0, 68, 0
1, 30713, Note_on_c, 0, 65, 0
1, 30713, Note_on_c, 1, 50, 0
1, 30720, Note_on_c, 0, 67, 71
1, 30720, Note_on_c, 0, 63, 71
1, 30720, Note_on_c, 1, 51, 71
1, 30809, Note_on_c, 0, 67, 0
1, 30809, Note_on_c, 0, 63, 0
1, 30809, Note_on_c, 1, 51, 0
1, 30816, Note_on_c, 0, 65, 70
1, 30816, Note_on_c, 0, 62, 70
1, 30816, Note_on_c, 1, 46, 70
1, 30905, Note_on_c, 1, 46, 0
1, 30912, Note_on_c, 1, 58, 70
1, 30993, Note_on_c, 0, 65, 0
1, 30993, Note_on_c, 0, 62, 0
1, 31001, Note_on_c, 1, 58, 0
1, 31104, Note_on_c, 0, 75, 75
1, 31104, Note_on_c, 1, 67, 75
1, 31104, Note_on_c, 1, 63, 75
1, 31116, Note_on_c, 0, 75, 0
1, 31116, Note_on_c, 0, 77, 75
1, 31128, Note_on_c, 0, 77, 0
1, 31128, Note_on_c, 0, 75, 75
1, 31140, Note_on_c, 0, 75, 0
1, 31140, Note_on_c, 0, 77, 75
1, 31152, Note_on_c, 0, 77, 0
1, 31152, Note_on_c, 0, 75, 75
1, 31164, Note_on_c, 0, 75, 0
1, 31164, Note_on_c, 0, 77, 75
1, 31171, Note_on_c, 0, 77, 0
1, 31176, Note_on_c, 0, 74, 75
1, 31188, Note_on_c, 0, 74, 0
1, 31188, Note_on_c, 0, 75, 75
1, 31193, Note_on_c, 1, 67, 0
1, 31193, Note_on_c, 1, 63, 0
1, 31200, Note_on_c, 0, 75, 0
1, 31200, Note_on_c, 0, 77, 75
1, 31200, Note_on_c, 1, 70, 75
1, 31200, Note_on_c, 1, 62, 75
1, 31289, Note_on_c, 0, 77, 0
1, 31289, Note_on_c, 1, 70, 0
1, 31289, Note_on_c, 1, 62, 0
1, 31392, Note_on_c, 0, 77, 75
1, 31392, Note_on_c, 1, 70, 75
1, 31392, Note_on_c, 1, 62, 75
1, 31404, Note_on_c, 0, 77, 0
1, 31404, Note_on_c, 0, 79, 75
1, 31416, Note_on_c, 0, 79, 0
1, 31416, Note_on_c, 0, 77, 75
1, 31428, Note_on_c, 0, 77, 0
1, 31428, Note_on_c, 0, 79, 75
1, 31440, Note_on_c, 0, 79, 0
1, 31440, Note_on_c, 0, 77, 75
1, 31452, Note_on_c, 0, 77, 0
1, 31452, Note_on_c, 0, 79, 75
1, 31459, Note_on_c, 0, 79, 0
1, 31464, Note_on_c, 0, 75, 75
1, 31476, Note_on_c, 0, 75, 0
1, 31476, Note_on_c, 0, 77, 75
1, 31481, Note_on_c, 1, 70, 0
1, 31481, Note_on_c, 1, 62, 0
1, 31488, Note_on_c, 0, 77, 0
1, 31488, Note_on_c, 0, 79, 75
1, 31488, Note_on_c, 1, 70, 75
1, 31488, Note_on_c, 1, 63, 75
1, 31577, Note_on_c, 0, 79, 0
1, 31577, Note_on_c, 1, 70, 0
1, 31577, Note_on_c, 1, 63, 0
1, 31680, Note_on_c, 0, 79, 75
1, 31680, Note_on_c, 1, 65, 75
1, 31680, Note_on_c, 1, 56, 75
1, 31698, Note_on_c, 0, 79, 0
1, 31698, Note_on_c, 0, 80, 75
1, 31698, Note_on_c, 0, 72, 75
1, 31769, Note_on_c, 0, 80, 0
1, 31769, Note_on_c, 0, 72, 0
1, 31776, Note_on_c, 0, 80, 75
1, 31843, Note_on_c, 0, 80, 0
1, 31848, Note_on_c, 0, 79, 75
1, 31871, Note_on_c, 0, 79, 0
1, 31872, Note_on_c, 0, 77, 75
1, 31939, Note_on_c, 0, 77, 0
1, 31944, Note_on_c, 0, 75, 75
1, 31945, Note_on_c, 1, 65, 0
1, 31945, Note_on_c, 1, 56, 0
1, 31967, Note_on_c, 0, 75, 0
1, 31968, Note_on_c, 0, 75, 75
1, 31968, Note_on_c, 1, 67, 75
1, 31968, Note_on_c, 0, 58, 75
1, 32057, Note_on_c, 0, 75, 0
1, 32057, Note_on_c, 1, 67, 0
1, 32064, Note_on_c, 0, 74, 75
1, 32064, Note_on_c, 1, 65, 75
1, 32145, Note_on_c, 0, 58, 0
1, 32153, Note_on_c, 0, 74, 0
1, 32153, Note_on_c, 1, 65, 0
1, 32160, Note_on_c, 0, 75, 75
1, 32160, Note_on_c, 1, 63, 75
1, 32160, Note_on_c, 0, 63, 75
1, 32249, Note_on_c, 0, 75, 0
1, 32249, Note_on_c, 1, 63, 0
1, 32249, Note_on_c, 0, 63, 0
1, 32256, Note_on_c, 0, 80, 75
1, 32256, Note_on_c, 0, 72, 75
1, 32256, Note_on_c, 1, 65, 75
1, 32256, Note_on_c, 0, 56, 75
1, 32345, Note_on_c, 0, 80, 0
1, 32345, Note_on_c, 0, 72, 0
1, 32352, Note_on_c, 0, 84, 75
1, 32382, Note_on_c, 0, 84, 0
1, 32384, Note_on_c, 0, 82, 75
1, 32414, Note_on_c, 0, 82, 0
1, 32416, Note_on_c, 0, 80, 75
1, 32446, Note_on_c, 0, 80, 0
1, 32448, Note_on_c, 0, 79, 75
1, 32478, Note_on_c, 0, 79, 0
1, 32480, Note_on_c, 0, 77, 75
1, 32510, Note_on_c, 0, 77, 0
1, 32512, Note_on_c, 0, 75, 75
1, 32521, Note_on_c, 1, 65, 0
1, 32521, Note_on_c, 0, 56, 0
1, 32542, Note_on_c, 0, 75, 0
1, 32544, Note_on_c, 0, 75, 75
1, 32544, Note_on_c, 1, 67, 75
1, 32544, Note_on_c, 0, 58, 75
1, 32633, Note_on_c, 0, 75, 0
1, 32633, Note_on_c, 1, 67, 0
1, 32640, Note_on_c, 0, 74, 75
1, 32640, Note_on_c, 1, 65, 75
1, 32653, Note_on_c, 0, 74, 0
1, 32654, Note_on_c, 0, 75, 75
1, 32667, Note_on_c, 0, 75, 0
1, 32668, Note_on_c, 0, 74, 75
1, 32681, Note_on_c, 0, 74, 0
1, 32682, Note_on_c, 0, 75, 75
1, 32695, Note_on_c, 0, 75, 0
1, 32696, Note_on_c, 0, 74, 75
1, 32709, Note_on_c, 0, 74, 0
1, 32710, Note_on_c, 0, 72, 75
1, 32721, Note_on_c, 0, 58, 0
1, 32722, Note_on_c, 0, 72, 0
1, 32723, Note_on_c, 0, 74, 75
1, 32729, Note_on_c, 1, 65, 0
1, 32735, Note_on_c, 0, 74, 0
1, 32736, Note_on_c, 0, 75, 75
1, 32736, Note_on_c, 1, 63, 75
1, 32736, Note_on_c, 0, 63, 75
1, 32803, Note_on_c, 0, 75, 0
1, 32808, Note_on_c, 0, 70, 75
1, 32808, Note_on_c, 0, 67, 75
1, 32825, Note_on_c, 1, 63, 0
1, 32825, Note_on_c, 0, 63, 0
1, 32831, Note_on_c, 0, 70, 0
1, 32831, Note_on_c, 0, 67, 0
1, 32832, Note_on_c, 0, 70, 75
1, 32832, Note_on_c, 0, 67, 75
1, 32921, Note_on_c, 0, 70, 0
1, 32921, Note_on_c, 0, 67, 0
1, 32928, Note_on_c, 0, 68, 73
1, 32928, Note_on_c, 0, 65, 73
1, 32928, Note_on_c, 1, 50, 73
1, 33017, Note_on_c, 0, 68, 0
1, 33017, Note_on_c, 0, 65, 0
1, 33017, Note_on_c, 1, 50, 0
1, 33024, Note_on_c, 0, 67, 71
1, 33024, Note_on_c, 0, 63, 71
1, 33024, Note_on_c, 1, 51, 71
1, 33113, Note_on_c, 0, 67, 0
1, 33113, Note_on_c, 0, 63, 0
1, 33113, Note_on_c, 1, 51, 0
1, 33120, Note_on_c, 0, 65, 70
1, 33120, Note_on_c, 0, 62, 70
1, 33120, Note_on_c, 1, 46, 70
1, 33209, Note_on_c, 1, 46, 0
1, 33216, Note_on_c, 1, 58, 70
1, 33297, Note_on_c, 0, 65, 0
1, 33297, Note_on_c, 0, 62, 0
1, 33305, Note_on_c, 1, 58, 0
1, 33408, Note_on_c, 1, 46, 81
1, 33438, Note_on_c, 1, 46, 0
1, 33440, Note_on_c, 1, 50, 81
1, 33470, Note_on_c, 1, 50, 0
1, 33472, Note_on_c, 1, 53, 81
1, 33502, Note_on_c, 1, 53, 0
1, 33504, Note_on_c, 1, 50, 81
1, 33534, Note_on_c, 1, 50, 0
1, 33536, Note_on_c, 1, 53, 81
1, 33566, Note_on_c, 1, 53, 0
1, 33568, Note_on_c, 1, 58, 81
1, 33598, Note_on_c, 1, 58, 0
1, 33600, Note_on_c, 1, 53, 81
1, 33630, Note_on_c, 1, 53, 0
1, 33632, Note_on_c, 1, 58, 81
1, 33662, Note_on_c, 1, 58, 0
1, 33664, Note_on_c, 1, 62, 81
1, 33694, Note_on_c, 1, 62, 0
1, 33696, Note_on_c, 1, 65, 81
1, 33792, Note_on_c, 0, 74, 70
1, 33792, Note_on_c, 0, 68, 70
1, 33888, Note_on_c, 0, 74, 0
1, 33888, Note_on_c, 0, 68, 0
1, 33888, Note_on_c, 0, 75, 70
1, 33888, Note_on_c, 0, 67, 70
1, 33888, Note_on_c, 1, 65, 0
1, 33888, Note_on_c, 1, 63, 70
1, 33982, Note_on_c, 0, 75, 0
1, 33982, Note_on_c, 0, 67, 0
1, 33982, Note_on_c, 1, 63, 0
1, 33984, Note_on_c, 1, 46, 81
1, 34014, Note_on_c, 1, 46, 0
1, 34016, Note_on_c, 1, 50, 81
1, 34046, Note_on_c, 1, 50, 0
1, 34048, Note_on_c, 1, 53, 81
1, 34078, Note_on_c, 1, 53, 0
1, 34080, Note_on_c, 1, 50, 81
1, 34110, Note_on_c, 1, 50, 0
1, 34112, Note_on_c, 1, 53, 81
1, 34142, Note_on_c, 1, 53, 0
1, 34144, Note_on_c, 1, 58, 81
1, 34174, Note_on_c, 1, 58, 0
1, 34176, Note_on_c, 1, 53, 81
1, 34206, Note_on_c, 1, 53, 0
1, 34208, Note_on_c, 1, 58, 81
1, 34238, Note_on_c, 1, 58, 0
1, 34240, Note_on_c, 1, 62, 81
1, 34270, Note_on_c, 1, 62, 0
1, 34272, Note_on_c, 1, 65, 81
1, 34361, Note_on_c, 1, 65, 0
1, 34368, Note_on_c, 0, 80, 70
1, 34368, Note_on_c, 0, 77, 70
1, 34368, Note_on_c, 1, 62, 81
1, 34464, Note_on_c, 0, 80, 0
1, 34464, Note_on_c, 0, 77, 0
1, 34464, Note_on_c, 0, 79, 70
1, 34464, Note_on_c, 0, 75, 70
1, 34464, Note_on_c, 1, 62, 0
1, 34464, Note_on_c, 1, 63, 70
1, 34558, Note_on_c, 0, 79, 0
1, 34558, Note_on_c, 0, 75, 0
1, 34558, Note_on_c, 1, 63, 0
1, 34560, Note_on_c, 1, 63, 70
1, 34560, Note_on_c, 1, 60, 70
1, 34560, Note_on_c, 1, 57, 70
1, 34608, Note_on_c, 0, 78, 70
1, 34649, Note_on_c, 1, 63, 0
1, 34649, Note_on_c, 1, 60, 0
1, 34649, Note_on_c, 1, 57, 0
1, 34653, Note_on_c, 0, 78, 0
1, 34656, Note_on_c, 0, 77, 71
1, 34701, Note_on_c, 0, 77, 0
1, 34704, Note_on_c, 0, 75, 71
1, 34749, Note_on_c, 0, 75, 0
1, 34752, Note_on_c, 0, 74, 72
1, 34797, Note_on_c, 0, 74, 0
1, 34800, Note_on_c, 0, 75, 72
1, 34845, Note_on_c, 0, 75, 0
1, 34848, Note_on_c, 1, 66, 73
1, 34848, Note_on_c, 1, 63, 73
1, 34848, Note_on_c, 1, 58, 73
1, 34896, Note_on_c, 0, 78, 74
1, 34937, Note_on_c, 1, 66, 0
1, 34937, Note_on_c, 1, 63, 0
1, 34937, Note_on_c, 1, 58, 0
1, 34941, Note_on_c, 0, 78, 0
1, 34944, Note_on_c, 0, 77, 74
1, 34989, Note_on_c, 0, 77, 0
1, 34992, Note_on_c, 0, 75, 75
1, 35037, Note_on_c, 0, 75, 0
1, 35040, Note_on_c, 0, 74, 75
1, 35085, Note_on_c, 0, 74, 0
1, 35088, Note_on_c, 0, 75, 76
1, 35133, Note_on_c, 0, 75, 0
1, 35136, Note_on_c, 1, 66, 76
1, 35136, Note_on_c, 1, 63, 76
1, 35136, Note_on_c, 1, 59, 76
1, 35184, Note_on_c, 0, 78, 77
1, 35225, Note_on_c, 1, 66, 0
1, 35225, Note_on_c, 1, 63, 0
1, 35225, Note_on_c, 1, 59, 0
1, 35229, Note_on_c, 0, 78, 0
1, 35232, Note_on_c, 0, 77, 78
1, 35277, Note_on_c, 0, 77, 0
1, 35280, Note_on_c, 0, 75, 78
1, 35325, Note_on_c, 0, 75, 0
1, 35328, Note_on_c, 0, 74, 79
1, 35328, Note_on_c, 1, 66, 78
1, 35328, Note_on_c, 1, 63, 78
1, 35328, Note_on_c, 1, 57, 78
1, 35373, Note_on_c, 0, 74, 0
1, 35376, Note_on_c, 0, 75, 80
1, 35417, Note_on_c, 1, 66, 0
1, 35417, Note_on_c, 1, 63, 0
1, 35417, Note_on_c, 1, 57, 0
1, 35421, Note_on_c, 0, 75, 0
1, 35424, Note_on_c, 0, 74, 80
1, 35424, Note_on_c, 1, 65, 79
1, 35424, Note_on_c, 1, 58, 79
1, 35454, Note_on_c, 0, 74, 0
1, 35456, Note_on_c, 0, 75, 81
1, 35486, Note_on_c, 0, 75, 0
1, 35488, Note_on_c, 0, 77, 81
1, 35518, Note_on_c, 0, 77, 0
1, 35520, Note_on_c, 0, 70, 81
1, 35601, Note_on_c, 1, 65, 0
1, 35601, Note_on_c, 1, 58, 0
1, 35609, Note_on_c, 0, 70, 0
1, 35712, Note_on_c, 0, 75, 75
1, 35712, Note_on_c, 1, 67, 75
1, 35712, Note_on_c, 1, 63, 75
1, 35724, Note_on_c, 0, 75, 0
1, 35724, Note_on_c, 0, 77, 75
1, 35736, Note_on_c, 0, 77, 0
1, 35736, Note_on_c, 0, 75, 75
1, 35748, Note_on_c, 0, 75, 0
1, 35748, Note_on_c, 0, 77, 75
1, 35760, Note_on_c, 0, 77, 0
1, 35760, Note_on_c, 0, 75, 75
1, 35772, Note_on_c, 0, 75, 0
1, 35772, Note_on_c, 0, 77, 75
1, 35779, Note_on_c, 0, 77, 0
1, 35784, Note_on_c, 0, 74, 75
1, 35796, Note_on_c, 0, 74, 0
1, 35796, Note_on_c, 0, 75, 75
1, 35801, Note_on_c, 1, 67, 0
1, 35801, Note_on_c, 1, 63, 0
1, 35808, Note_on_c, 0, 75, 0
1, 35808, Note_on_c, 0, 77, 75
1, 35808, Note_on_c, 1, 70, 75
1, 35808, Note_on_c, 1, 62, 75
1, 35897, Note_on_c, 0, 77, 0
1, 35897, Note_on_c, 1, 70, 0
1, 35897, Note_on_c, 1, 62, 0
1, 36000, Note_on_c, 0, 77, 75
1, 36000, Note_on_c, 1, 70, 75
1, 36000, Note_on_c, 1, 62, 75
1, 36012, Note_on_c, 0, 77, 0
1, 36012, Note_on_c, 0, 79, 75
1, 36024, Note_on_c, 0, 79, 0
1, 36024, Note_on_c, 0, 77, 75
1, 36036, Note_on_c, 0, 77, 0
1, 36036, Note_on_c, 0, 79, 75
1, 36048, Note_on_c, 0, 79, 0
1, 36048, Note_on_c, 0, 77, 75
1, 36060, Note_on_c, 0, 77, 0
1, 36060, Note_on_c, 0, 79, 75
1, 36067, Note_on_c, 0, 79, 0
1, 36072, Note_on_c, 0, 75, 75
1, 36084, Note_on_c, 0, 75, 0
1, 36084, Note_on_c, 0, 77, 75
1, 36089, Note_on_c, 1, 70, 0
1, 36089, Note_on_c, 1, 62, 0
1, 36096, Note_on_c, 0, 77, 0
1, 36096, Note_on_c, 0, 79, 75
1, 36096, Note_on_c, 1, 70, 75
1, 36096, Note_on_c, 1, 63, 75
1, 36185, Note_on_c, 0, 79, 0
1, 36185, Note_on_c, 1, 70, 0
1, 36185, Note_on_c, 1, 63, 0
1, 36288, Note_on_c, 0, 79, 75
1, 36288, Note_on_c, 1, 65, 75
1, 36288, Note_on_c, 1, 56, 75
1, 36306, Note_on_c, 0, 79, 0
1, 36306, Note_on_c, 0, 80, 75
1, 36306, Note_on_c, 0, 72, 75
1, 36377, Note_on_c, 0, 80, 0
1, 36377, Note_on_c, 0, 72, 0
1, 36384, Note_on_c, 0, 80, 75
1, 36451, Note_on_c, 0, 80, 0
1, 36456, Note_on_c, 0, 79, 75
1, 36479, Note_on_c, 0, 79, 0
1, 36480, Note_on_c, 0, 77, 75
1, 36547, Note_on_c, 0, 77, 0
1, 36552, Note_on_c, 0, 75, 75
1, 36553, Note_on_c, 1, 65, 0
1, 36553, Note_on_c, 1, 56, 0
1, 36575, Note_on_c, 0, 75, 0
1, 36576, Note_on_c, 0, 75, 75
1, 36576, Note_on_c, 1, 67, 75
1, 36576, Note_on_c, 0, 58, 75
1, 36665, Note_on_c, 0, 75, 0
1, 36665, Note_on_c, 1, 67, 0
1, 36672, Note_on_c, 0, 74, 75
1, 36672, Note_on_c, 1, 65, 75
1, 36753, Note_on_c, 0, 58, 0
1, 36761, Note_on_c, 0, 74, 0
1, 36761, Note_on_c, 1, 65, 0
1, 36768, Note_on_c, 0, 75, 75
1, 36768, Note_on_c, 1, 63, 75
1, 36768, Note_on_c, 0, 63, 75
1, 36857, Note_on_c, 0, 75, 0
1, 36857, Note_on_c, 1, 63, 0
1, 36857, Note_on_c, 0, 63, 0
1, 36864, Note_on_c, 0, 80, 75
1, 36864, Note_on_c, 0, 72, 75
1, 36864, Note_on_c, 1, 65, 75
1, 36864, Note_on_c, 0, 56, 75
1, 36953, Note_on_c, 0, 80, 0
1, 36953, Note_on_c, 0, 72, 0
1, 36960, Note_on_c, 0, 84, 75
1, 36990, Note_on_c, 0, 84, 0
1, 36992, Note_on_c, 0, 82, 75
1, 37022, Note_on_c, 0, 82, 0
1, 37024, Note_on_c, 0, 80, 75
1, 37054, Note_on_c, 0, 80, 0
1, 37056, Note_on_c, 0, 79, 75
1, 37086, Note_on_c, 0, 79, 0
1, 37088, Note_on_c, 0, 77, 75
1, 37118, Note_on_c, 0, 77, 0
1, 37120, Note_on_c, 0, 75, 75
1, 37129, Note_on_c, 1, 65, 0
1, 37129, Note_on_c, 0, 56, 0
1, 37150, Note_on_c, 0, 75, 0
1, 37152, Note_on_c, 0, 75, 75
1, 37152, Note_on_c, 1, 67, 75
1, 37152, Note_on_c, 0, 58, 75
1, 37241, Note_on_c, 0, 75, 0
1, 37241, Note_on_c, 1, 67, 0
1, 37248, Note_on_c, 0, 74, 75
1, 37248, Note_on_c, 1, 65, 75
1, 37261, Note_on_c, 0, 74, 0
1, 37262, Note_on_c, 0, 75, 75
1, 37275, Note_on_c, 0, 75, 0
1, 37276, Note_on_c, 0, 74, 75
1, 37289, Note_on_c, 0, 74, 0
1, 37290, Note_on_c, 0, 75, 75
1, 37303, Note_on_c, 0, 75, 0
1, 37304, Note_on_c, 0, 74, 75
1, 37317, Note_on_c, 0, 74, 0
1, 37318, Note_on_c, 0, 72, 75
1, 37329, Note_on_c, 0, 58, 0
1, 37330, Note_on_c, 0, 72, 0
1, 37331, Note_on_c, 0, 74, 75
1, 37337, Note_on_c, 1, 65, 0
1, 37343, Note_on_c, 0, 74, 0
1, 37344, Note_on_c, 0, 75, 75
1, 37344, Note_on_c, 1, 63, 75
1, 37344, Note_on_c, 0, 63, 75
1, 37433, Note_on_c, 0, 75, 0
1, 37433, Note_on_c, 1, 63, 0
1, 37433, Note_on_c, 0, 63, 0
1, 37440, Note_on_c, 0, 56, 75
1, 37488, Note_on_c, 0, 72, 75
1, 37533, Note_on_c, 0, 72, 0
1, 37536, Note_on_c, 0, 71, 75
1, 37536, Note_on_c, 1, 63, 75
1, 37581, Note_on_c, 0, 71, 0
1, 37584, Note_on_c, 0, 72, 75
1, 37617, Note_on_c, 0, 56, 0
1, 37629, Note_on_c, 0, 72, 0
1, 37632, Note_on_c, 0, 75, 75
1, 37632, Note_on_c, 0, 56, 75
1, 37677, Note_on_c, 0, 75, 0
1, 37680, Note_on_c, 0, 72, 75
1, 37713, Note_on_c, 1, 63, 0
1, 37721, Note_on_c, 0, 56, 0
1, 37725, Note_on_c, 0, 72, 0
1, 37728, Note_on_c, 0, 55, 75
1, 37776, Note_on_c, 0, 70, 75
1, 37821, Note_on_c, 0, 70, 0
1, 37824, Note_on_c, 0, 69, 75
1, 37824, Note_on_c, 1, 63, 75
1, 37869, Note_on_c, 0, 69, 0
1, 37872, Note_on_c, 0, 70, 75
1, 37905, Note_on_c, 0, 55, 0
1, 37917, Note_on_c, 0, 70, 0
1, 37920, Note_on_c, 0, 75, 75
1, 37920, Note_on_c, 0, 55, 75
1, 37965, Note_on_c, 0, 75, 0
1, 37968, Note_on_c, 0, 70, 75
1, 38001, Note_on_c, 1, 63, 0
1, 38009, Note_on_c, 0, 55, 0
1, 38013, Note_on_c, 0, 70, 0
1, 38016, Note_on_c, 0, 74, 75
1, 38016, Note_on_c, 1, 56, 75
1, 38039, Note_on_c, 0, 74, 0
1, 38040, Note_on_c, 0, 72, 75
1, 38063, Note_on_c, 0, 72, 0
1, 38064, Note_on_c, 0, 70, 75
1, 38087, Note_on_c, 0, 70, 0
1, 38088, Note_on_c, 0, 68, 75
1, 38105, Note_on_c, 1, 56, 0
1, 38111, Note_on_c, 0, 68, 0
1, 38112, Note_on_c, 0, 67, 75
1, 38112, Note_on_c, 1, 58, 75
1, 38201, Note_on_c, 0, 67, 0
1, 38201, Note_on_c, 1, 58, 0
1, 38208, Note_on_c, 0, 65, 75
1, 38208, Note_on_c, 1, 46, 75
1, 38221, Note_on_c, 0, 65, 0
1, 38222, Note_on_c, 0, 67, 75
1, 38235, Note_on_c, 0, 67, 0
1, 38236, Note_on_c, 0, 65, 75
1, 38249, Note_on_c, 0, 65, 0
1, 38250, Note_on_c, 0, 67, 75
1, 38263, Note_on_c, 0, 67, 0
1, 38264, Note_on_c, 0, 65, 75
1, 38277, Note_on_c, 0, 65, 0
1, 38278, Note_on_c, 0, 63, 75
1, 38290, Note_on_c, 0, 63, 0
1, 38291, Note_on_c, 0, 65, 75
1, 38297, Note_on_c, 1, 46, 0
1, 38303, Note_on_c, 0, 65, 0
1, 38304, Note_on_c, 0, 63, 75
1, 38304, Note_on_c, 1, 51, 75
1, 38393, Note_on_c, 1, 51, 0
1, 38400, Note_on_c, 1, 39, 75
1, 38481, Note_on_c, 0, 63, 0
1, 38489, Note_on_c, 1, 39, 0
1, 38592, Note_on_c, 1, 46, 81
1, 38622, Note_on_c, 1, 46, 0
1, 38624, Note_on_c, 1, 50, 81
1, 38654, Note_on_c, 1, 50, 0
1, 38656, Note_on_c, 1, 53, 81
1, 38686, Note_on_c, 1, 53, 0
1, 38688, Note_on_c, 1, 50, 81
1, 38718, Note_on_c, 1, 50, 0
1, 38720, Note_on_c, 1, 53, 81
1, 38750, Note_on_c, 1, 53, 0
1, 38752, Note_on_c, 1, 58, 81
1, 38782, Note_on_c, 1, 58, 0
1, 38784, Note_on_c, 1, 53, 81
1, 38814, Note_on_c, 1, 53, 0
1, 38816, Note_on_c, 1, 58, 81
1, 38846, Note_on_c, 1, 58, 0
1, 38848, Note_on_c, 1, 62, 81
1, 38878, Note_on_c, 1, 62, 0
1, 38880, Note_on_c, 1, 65, 81
1, 38976, Note_on_c, 0, 74, 70
1, 38976, Note_on_c, 0, 68, 70
1, 39072, Note_on_c, 0, 74, 0
1, 39072, Note_on_c, 0, 68, 0
1, 39072, Note_on_c, 0, 75, 70
1, 39072, Note_on_c, 0, 67, 70
1, 39072, Note_on_c, 1, 65, 0
1, 39072, Note_on_c, 1, 63, 70
1, 39166, Note_on_c, 0, 75, 0
1, 39166, Note_on_c, 0, 67, 0
1, 39166, Note_on_c, 1, 63, 0
1, 39168, Note_on_c, 1, 46, 81
1, 39198, Note_on_c, 1, 46, 0
1, 39200, Note_on_c, 1, 50, 81
1, 39230, Note_on_c, 1, 50, 0
1, 39232, Note_on_c, 1, 53, 81
1, 39262, Note_on_c, 1, 53, 0
1, 39264, Note_on_c, 1, 50, 81
1, 39294, Note_on_c, 1, 50, 0
1, 39296, Note_on_c, 1, 53, 81
1, 39326, Note_on_c, 1, 53, 0
1, 39328, Note_on_c, 1, 58, 81
1, 39358, Note_on_c, 1, 58, 0
1, 39360, Note_on_c, 1, 53, 81
1, 39390, Note_on_c, 1, 53, 0
1, 39392, Note_on_c, 1, 58, 81
1, 39422, Note_on_c, 1, 58, 0
1, 39424, Note_on_c, 1, 62, 81
1, 39454, Note_on_c, 1, 62, 0
1, 39456, Note_on_c, 1, 65, 81
1, 39545, Note_on_c, 1, 65, 0
1, 39552, Note_on_c, 0, 80, 70
1, 39552, Note_on_c, 0, 77, 70
1, 39552, Note_on_c, 1, 62, 81
1, 39648, Note_on_c, 0, 80, 0
1, 39648, Note_on_c, 0, 77, 0
1, 39648, Note_on_c, 0, 79, 70
1, 39648, Note_on_c, 0, 75, 70
1, 39648, Note_on_c, 1, 62, 0
1, 39648, Note_on_c, 1, 63, 70
1, 39742, Note_on_c, 0, 79, 0
1, 39742, Note_on_c, 0, 75, 0
1, 39742, Note_on_c, 1, 63, 0
1, 39744, Note_on_c, 1, 63, 70
1, 39744, Note_on_c, 1, 60, 70
1, 39744, Note_on_c, 1, 57, 70
1, 39792, Note_on_c, 0, 78, 70
1, 39833, Note_on_c, 1, 63, 0
1, 39833, Note_on_c, 1, 60, 0
1, 39833, Note_on_c, 1, 57, 0
1, 39837, Note_on_c, 0, 78, 0
1, 39840, Note_on_c, 0, 77, 71
1, 39885, Note_on_c, 0, 77, 0
1, 39888, Note_on_c, 0, 75, 71
1, 39933, Note_on_c, 0, 75, 0
1, 39936, Note_on_c, 0, 74, 72
1, 39981, Note_on_c, 0, 74, 0
1, 39984, Note_on_c, 0, 75, 72
1, 40029, Note_on_c, 0, 75, 0
1, 40032, Note_on_c, 1, 66, 73
1, 40032, Note_on_c, 1, 63, 73
1, 40032, Note_on_c, 1, 58, 73
1, 40080, Note_on_c, 0, 78, 74
1, 40121, Note_on_c, 1, 66, 0
1, 40121, Note_on_c, 1, 63, 0
1, 40121, Note_on_c, 1, 58, 0
1, 40125, Note_on_c, 0, 78, 0
1, 40128, Note_on_c, 0, 77, 74
1, 40173, Note_on_c, 0, 77, 0
1, 40176, Note_on_c, 0, 75, 75
1, 40221, Note_on_c, 0, 75, 0
1, 40224, Note_on_c, 0, 74, 75
1, 40269, Note_on_c, 0, 74, 0
1, 40272, Note_on_c, 0, 75, 76
1, 40317, Note_on_c, 0, 75, 0
1, 40320, Note_on_c, 1, 66, 76
1, 40320, Note_on_c, 1, 63, 76
1, 40320, Note_on_c, 1, 59, 76
1, 40368, Note_on_c, 0, 78, 77
1, 40409, Note_on_c, 1, 66, 0
1, 40409, Note_on_c, 1, 63, 0
1, 40409, Note_on_c, 1, 59, 0
1, 40413, Note_on_c, 0, 78, 0
1, 40416, Note_on_c, 0, 77, 78
1, 40461, Note_on_c, 0, 77, 0
1, 40464, Note_on_c, 0, 75, 78
1, 40509, Note_on_c, 0, 75, 0
1, 40512, Note_on_c, 0, 74, 79
1, 40512, Note_on_c, 1, 66, 78
1, 40512, Note_on_c, 1, 63, 78
1, 40512, Note_on_c, 1, 57, 78
1, 40557, Note_on_c, 0, 74, 0
1, 40560, Note_on_c, 0, 75, 80
1, 40601, Note_on_c, 1, 66, 0
1, 40601, Note_on_c, 1, 63, 0
1, 40601, Note_on_c, 1, 57, 0
1, 40605, Note_on_c, 0, 75, 0
1, 40608, Note_on_c, 0, 74, 80
1, 40608, Note_on_c, 1, 65, 79
1, 40608, Note_on_c, 1, 58, 79
1, 40638, Note_on_c, 0, 74, 0
1, 40640, Note_on_c, 0, 75, 81
1, 40670, Note_on_c, 0, 75, 0
1, 40672, Note_on_c, 0, 77, 81
1, 40702, Note_on_c, 0, 77, 0
1, 40704, Note_on_c, 0, 70, 81
1, 40785, Note_on_c, 1, 65, 0
1, 40785, Note_on_c, 1, 58, 0
1, 40793, Note_on_c, 0, 70, 0
1, 40896, Note_on_c, 0, 75, 75
1, 40896, Note_on_c, 1, 67, 75
1, 40896, Note_on_c, 1, 63, 75
1, 40908, Note_on_c, 0, 75, 0
1, 40908, Note_on_c, 0, 77, 75
1, 40920, Note_on_c, 0, 77, 0
1, 40920, Note_on_c, 0, 75, 75
1, 40932, Note_on_c, 0, 75, 0
1, 40932, Note_on_c, 0, 77, 75
1, 40944, Note_on_c, 0, 77, 0
1, 40944, Note_on_c, 0, 75, 75
1, 40956, Note_on_c, 0, 75, 0
1, 40956, Note_on_c, 0, 77, 75
1, 40963, Note_on_c, 0, 77, 0
1, 40968, Note_on_c, 0, 74, 75
1, 40980, Note_on_c, 0, 74, 0
1, 40980, Note_on_c, 0, 75, 75
1, 40985, Note_on_c, 1, 67, 0
1, 40985, Note_on_c, 1, 63, 0
1, 40992, Note_on_c, 0, 75, 0
1, 40992, Note_on_c, 0, 77, 75
1, 40992, Note_on_c, 1, 70, 75
1, 40992, Note_on_c, 1, 62, 75
1, 41081, Note_on_c, 0, 77, 0
1, 41081, Note_on_c, 1, 70, 0
1, 41081, Note_on_c, 1, 62, 0
1, 41184, Note_on_c, 0, 77, 75
1, 41184, Note_on_c, 1, 70, 75
1, 41184, Note_on_c, 1, 62, 75
1, 41196, Note_on_c, 0, 77, 0
1, 41196, Note_on_c, 0, 79, 75
1, 41208, Note_on_c, 0, 79, 0
1, 41208, Note_on_c, 0, 77, 75
1, 41220, Note_on_c, 0, 77, 0
1, 41220, Note_on_c, 0, 79, 75
1, 41232, Note_on_c, 0, 79, 0
1, 41232, Note_on_c, 0, 77, 75
1, 41244, Note_on_c, 0, 77, 0
1, 41244, Note_on_c, 0, 79, 75
1, 41251, Note_on_c, 0, 79, 0
1, 41256, Note_on_c, 0, 75, 75
1, 41268, Note_on_c, 0, 75, 0
1, 41268, Note_on_c, 0, 77, 75
1, 41273, Note_on_c, 1, 70, 0
1, 41273, Note_on_c, 1, 62, 0
1, 41280, Note_on_c, 0, 77, 0
1, 41280, Note_on_c, 0, 79, 75
1, 41280, Note_on_c, 1, 70, 75
1, 41280, Note_on_c, 1, 63, 75
1, 41369, Note_on_c, 0, 79, 0
1, 41369, Note_on_c, 1, 70, 0
1, 41369, Note_on_c, 1, 63, 0
1, 41472, Note_on_c, 0, 79, 75
1, 41472, Note_on_c, 1, 65, 75
1, 41472, Note_on_c, 1, 56, 75
1, 41490, Note_on_c, 0, 79, 0
1, 41490, Note_on_c, 0, 80, 75
1, 41490, Note_on_c, 0, 72, 75
1, 41561, Note_on_c, 0, 80, 0
1, 41561, Note_on_c, 0, 72, 0
1, 41568, Note_on_c, 0, 80, 75
1, 41635, Note_on_c, 0, 80, 0
1, 41640, Note_on_c, 0, 79, 75
1, 41663, Note_on_c, 0, 79, 0
1, 41664, Note_on_c, 0, 77, 75
1, 41731, Note_on_c, 0, 77, 0
1, 41736, Note_on_c, 0, 75, 75
1, 41737, Note_on_c, 1, 65, 0
1, 41737, Note_on_c, 1, 56, 0
1, 41759, Note_on_c, 0, 75, 0
1, 41760, Note_on_c, 0, 75, 75
1, 41760, Note_on_c, 1, 67, 75
1, 41760, Note_on_c, 0, 58, 75
1, 41849, Note_on_c, 0, 75, 0
1, 41849, Note_on_c, 1, 67, 0
1, 41856, Note_on_c, 0, 74, 75
1, 41856, Note_on_c, 1, 65, 75
1, 41937, Note_on_c, 0, 58, 0
1, 41945, Note_on_c, 0, 74, 0
1, 41945, Note_on_c, 1, 65, 0
1, 41952, Note_on_c, 0, 75, 75
1, 41952, Note_on_c, 1, 63, 75
1, 41952, Note_on_c, 0, 63, 75
1, 42041, Note_on_c, 0, 75, 0
1, 42041, Note_on_c, 1, 63, 0
1, 42041, Note_on_c, 0, 63, 0
1, 42048, Note_on_c, 0, 80, 75
1, 42048, Note_on_c, 0, 72, 75
1, 42048, Note_on_c, 1, 65, 75
1, 42048, Note_on_c, 0, 56, 75
1, 42137, Note_on_c, 0, 80, 0
1, 42137, Note_on_c, 0, 72, 0
1, 42144, Note_on_c, 0, 84, 75
1, 42174, Note_on_c, 0, 84, 0
1, 42176, Note_on_c, 0, 82, 75
1, 42206, Note_on_c, 0, 82, 0
1, 42208, Note_on_c, 0, 80, 75
1, 42238, Note_on_c, 0, 80, 0
1, 42240, Note_on_c, 0, 79, 75
1, 42270, Note_on_c, 0, 79, 0
1, 42272, Note_on_c, 0, 77, 75
1, 42302, Note_on_c, 0, 77, 0
1, 42304, Note_on_c, 0, 75, 75
1, 42313, Note_on_c, 1, 65, 0
1, 42313, Note_on_c, 0, 56, 0
1, 42334, Note_on_c, 0, 75, 0
1, 42336, Note_on_c, 0, 75, 75
1, 42336, Note_on_c, 1, 67, 75
1, 42336, Note_on_c, 0, 58, 75
1, 42425, Note_on_c, 0, 75, 0
1, 42425, Note_on_c, 1, 67, 0
1, 42432, Note_on_c, 0, 74, 75
1, 42432, Note_on_c, 1, 65, 75
1, 42445, Note_on_c, 0, 74, 0
1, 42446, Note_on_c, 0, 75, 75
1, 42459, Note_on_c, 0, 75, 0
1, 42460, Note_on_c, 0, 74, 75
1, 42473, Note_on_c, 0, 74, 0
1, 42474, Note_on_c, 0, 75, 75
1, 42487, Note_on_c, 0, 75, 0
1, 42488, Note_on_c, 0, 74, 75
1, 42501, Note_on_c, 0, 74, 0
1, 42502, Note_on_c, 0, 72, 75
1, 42513, Note_on_c, 0, 58, 0
1, 42514, Note_on_c, 0, 72, 0
1, 42515, Note_on_c, 0, 74, 75
1, 42521, Note_on_c, 1, 65, 0
1, 42527, Note_on_c, 0, 74, 0
1, 42528, Note_on_c, 0, 75, 75
1, 42528, Note_on_c, 1, 63, 75
1, 42528, Note_on_c, 0, 63, 75
1, 42617, Note_on_c, 0, 75, 0
1, 42617, Note_on_c, 1, 63, 0
1, 42617, Note_on_c, 0, 63, 0
1, 42624, Note_on_c, 0, 56, 75
1, 42672, Note_on_c, 0, 72, 75
1, 42717, Note_on_c, 0, 72, 0
1, 42720, Note_on_c, 0, 71, 75
1, 42720, Note_on_c, 1, 63, 75
1, 42765, Note_on_c, 0, 71, 0
1, 42768, Note_on_c, 0, 72, 75
1, 42801, Note_on_c, 0, 56, 0
1, 42813, Note_on_c, 0, 72, 0
1, 42816, Note_on_c, 0, 75, 75
1, 42816, Note_on_c, 0, 56, 75
1, 42861, Note_on_c, 0, 75, 0
1, 42864, Note_on_c, 0, 72, 75
1, 42897, Note_on_c, 1, 63, 0
1, 42905, Note_on_c, 0, 56, 0
1, 42909, Note_on_c, 0, 72, 0
1, 42912, Note_on_c, 0, 55, 75
1, 42960, Note_on_c, 0, 70, 75
1, 43005, Note_on_c, 0, 70, 0
1, 43008, Note_on_c, 0, 69, 75
1, 43008, Note_on_c, 1, 63, 75
1, 43053, Note_on_c, 0, 69, 0
1, 43056, Note_on_c, 0, 70, 75
1, 43089, Note_on_c, 0, 55, 0
1, 43101, Note_on_c, 0, 70, 0
1, 43104, Note_on_c, 0, 75, 75
1, 43104, Note_on_c, 0, 55, 75
1, 43149, Note_on_c, 0, 75, 0
1, 43152, Note_on_c, 0, 70, 75
1, 43185, Note_on_c, 1, 63, 0
1, 43193, Note_on_c, 0, 55, 0
1, 43197, Note_on_c, 0, 70, 0
1, 43200, Note_on_c, 0, 74, 75
1, 43200, Note_on_c, 1, 56, 75
1, 43223, Note_on_c, 0, 74, 0
1, 43224, Note_on_c, 0, 72, 75
1, 43247, Note_on_c, 0, 72, 0
1, 43248, Note_on_c, 0, 70, 75
1, 43271, Note_on_c, 0, 70, 0
1, 43272, Note_on_c, 0, 68, 75
1, 43289, Note_on_c, 1, 56, 0
1, 43295, Note_on_c, 0, 68, 0
1, 43296, Note_on_c, 0, 67, 75
1, 43296, Note_on_c, 1, 58, 75
1, 43385, Note_on_c, 0, 67, 0
1, 43385, Note_on_c, 1, 58, 0
1, 43392, Note_on_c, 0, 65, 75
1, 43392, Note_on_c, 1, 46, 75
1, 43405, Note_on_c, 0, 65, 0
1, 43406, Note_on_c, 0, 67, 75
1, 43419, Note_on_c, 0, 67, 0
1, 43420, Note_on_c, 0, 65, 75
1, 43433, Note_on_c, 0, 65, 0
1, 43434, Note_on_c, 0, 67, 75
1, 43447, Note_on_c, 0, 67, 0
1, 43448, Note_on_c, 0, 65, 75
1, 43461, Note_on_c, 0, 65, 0
1, 43462, Note_on_c, 0, 63, 75
1, 43474, Note_on_c, 0, 63, 0
1, 43475, Note_on_c, 0, 65, 75
1, 43481, Note_on_c, 1, 46, 0
1, 43487, Note_on_c, 0, 65, 0
1, 43488, Note_on_c, 0, 63, 75
1, 43488, Note_on_c, 1, 51, 75
1, 43577, Note_on_c, 1, 51, 0
1, 43584, Note_on_c, 1, 39, 75
1, 43665, Note_on_c, 0, 63, 0
1, 43673, Note_on_c, 1, 39, 0
1, 43776, Note_on_c, 1, 39, 0
1, 43865, Note_on_c, 1, 39, 0
1, 43875, End_track
0, 0, End_of_file