0, 0, Header, 0, 1, 96
1, 0, Start_track
1, 0, Tempo, 120000
1, 336, Tempo, 1333333
1, 336, Note_on_c, 0, 74, 75
1, 381, Note_on_c, 0, 74, 0
1, 384, Note_on_c, 0, 79, 75
1, 384, Note_on_c, 1, 62, 66
1, 384, Note_on_c, 1, 58, 66
1, 384, Note_on_c, 1, 55, 66
1, 399, Note_on_c, 0, 79, 0
1, 400, Note_on_c, 0, 82, 75
1, 415, Note_on_c, 0, 82, 0
1, 416, Note_on_c, 0, 81, 75
1, 429, Note_on_c, 1, 62, 0
1, 429, Note_on_c, 1, 58, 0
1, 429, Note_on_c, 1, 55, 0
1, 431, Note_on_c, 0, 81, 0
1, 432, Note_on_c, 0, 79, 75
1, 432, Note_on_c, 1, 62, 66
1, 432, Note_on_c, 1, 58, 66
1, 432, Note_on_c, 1, 55, 66
1, 447, Note_on_c, 0, 79, 0
1, 448, Note_on_c, 0, 78, 75
1, 463, Note_on_c, 0, 78, 0
1, 464, Note_on_c, 0, 79, 75
1, 477, Note_on_c, 1, 62, 0
1, 477, Note_on_c, 1, 58, 0
1, 477, Note_on_c, 1, 55, 0
1, 480, Note_on_c, 1, 62, 66
1, 480, Note_on_c, 1, 58, 66
1, 480, Note_on_c, 1, 55, 66
1, 495, Note_on_c, 0, 79, 0
1, 496, Note_on_c, 0, 78, 75
1, 511, Note_on_c, 0, 78, 0
1, 512, Note_on_c, 0, 79, 75
1, 525, Note_on_c, 1, 62, 0
1, 525, Note_on_c, 1, 58, 0
1, 525, Note_on_c, 1, 55, 0
1, 527, Note_on_c, 0, 79, 0
1, 528, Note_on_c, 0, 86, 75
1, 528, Note_on_c, 1, 62, 66
1, 528, Note_on_c, 1, 58, 66
1, 528, Note_on_c, 1, 55, 66
1, 543, Note_on_c, 0, 86, 0
1, 544, Note_on_c, 0, 78, 75
1, 559, Note_on_c, 0, 78, 0
1, 560, Note_on_c, 0, 79, 75
1, 573, Note_on_c, 1, 62, 0
1, 573, Note_on_c, 1, 58, 0
1, 573, Note_on_c, 1, 55, 0
1, 575, Note_on_c, 0, 79, 0
1, 576, Note_on_c, 0, 77, 75
1, 576, Note_on_c, 1, 60, 66
1, 576, Note_on_c, 1, 55, 66
1, 581, Note_on_c, 0, 77, 0
1, 581, Note_on_c, 0, 75, 75
1, 586, Note_on_c, 0, 75, 0
1, 586, Note_on_c, 0, 77, 75
1, 591, Note_on_c, 0, 77, 0
1, 591, Note_on_c, 0, 75, 75
1, 596, Note_on_c, 0, 75, 0
1, 596, Note_on_c, 0, 77, 75
1, 601, Note_on_c, 0, 77, 0
1, 601, Note_on_c, 0, 75, 75
1, 606, Note_on_c, 0, 75, 0
1, 606, Note_on_c, 0, 77, 75
1, 611, Note_on_c, 0, 77, 0
1, 611, Note_on_c, 0, 75, 75
1, 616, Note_on_c, 0, 75, 0
1, 616, Note_on_c, 0, 74, 75
1, 620, Note_on_c, 0, 74, 0
1, 620, Note_on_c, 0, 75, 75
1, 621, Note_on_c, 1, 60, 0
1, 621, Note_on_c, 1, 55, 0
1, 624, Note_on_c, 0, 75, 0
1, 624, Note_on_c, 0, 74, 75
1, 624, Note_on_c, 1, 58, 66
1, 624, Note_on_c, 1, 55, 66
1, 669, Note_on_c, 1, 58, 0
1, 669, Note_on_c, 1, 55, 0
1, 672, Note_on_c, 1, 58, 66
1, 672, Note_on_c, 1, 55, 66
1, 687, Note_on_c, 0, 74, 0
1, 688, Note_on_c, 0, 76, 75
1, 703, Note_on_c, 0, 76, 0
1, 704, Note_on_c, 0, 78, 75
1, 717, Note_on_c, 1, 58, 0
1, 717, Note_on_c, 1, 55, 0
1, 719, Note_on_c, 0, 78, 0
1, 720, Note_on_c, 0, 79, 75
1, 720, Note_on_c, 1, 58, 66
1, 720, Note_on_c, 1, 55, 66
1, 735, Note_on_c, 0, 79, 0
1, 736, Note_on_c, 0, 81, 75
1, 751, Note_on_c, 0, 81, 0
1, 752, Note_on_c, 0, 82, 75
1, 765, Note_on_c, 1, 58, 0
1, 765, Note_on_c, 1, 55, 0
1, 767, Note_on_c, 0, 82, 0
1, 768, Note_on_c, 0, 81, 91
1, 768, Note_on_c, 1, 62, 66
1, 768, Note_on_c, 1, 57, 66
1, 768, Note_on_c, 1, 54, 66
1, 784, Note_on_c, 0, 81, 0
1, 784, Note_on_c, 0, 73, 75
1, 799, Note_on_c, 0, 73, 0
1, 800, Note_on_c, 0, 74, 75
1, 813, Note_on_c, 1, 62, 0
1, 813, Note_on_c, 1, 57, 0
1, 813, Note_on_c, 1, 54, 0
1, 816, Note_on_c, 1, 62, 66
1, 816, Note_on_c, 1, 57, 66
1, 816, Note_on_c, 1, 54, 66
1, 831, Note_on_c, 0, 74, 0
1, 832, Note_on_c, 0, 73, 75
1, 847, Note_on_c, 0, 73, 0
1, 848, Note_on_c, 0, 74, 75
1, 861, Note_on_c, 1, 62, 0
1, 861, Note_on_c, 1, 57, 0
1, 861, Note_on_c, 1, 54, 0
1, 864, Note_on_c, 1, 62, 66
1, 864, Note_on_c, 1, 57, 66
1, 864, Note_on_c, 1, 54, 66
1, 879, Note_on_c, 0, 74, 0
1, 880, Note_on_c, 0, 84, 75
1, 895, Note_on_c, 0, 84, 0
1, 896, Note_on_c, 0, 81, 75
1, 909, Note_on_c, 1, 62, 0
1, 909, Note_on_c, 1, 57, 0
1, 909, Note_on_c, 1, 54, 0
1, 911, Note_on_c, 0, 81, 0
1, 912, Note_on_c, 0, 78, 75
1, 912, Note_on_c, 1, 62, 66
1, 912, Note_on_c, 1, 57, 66
1, 912, Note_on_c, 1, 54, 66
1, 927, Note_on_c, 0, 78, 0
1, 928, Note_on_c, 0, 75, 75
1, 943, Note_on_c, 0, 75, 0
1, 944, Note_on_c, 0, 72, 75
1, 957, Note_on_c, 1, 62, 0
1, 957, Note_on_c, 1, 57, 0
1, 957, Note_on_c, 1, 54, 0
1, 959, Note_on_c, 0, 72, 0
1, 960, Note_on_c, 0, 70, 75
1, 960, Note_on_c, 1, 62, 66
1, 960, Note_on_c, 1, 58, 66
1, 960, Note_on_c, 1, 55, 66
1, 975, Note_on_c, 0, 70, 0
1, 976, Note_on_c, 0, 74, 75
1, 991, Note_on_c, 0, 74, 0
1, 992, Note_on_c, 0, 66, 75
1, 1005, Note_on_c, 1, 62, 0
1, 1005, Note_on_c, 1, 58, 0
1, 1005, Note_on_c, 1, 55, 0
1, 1007, Note_on_c, 0, 66, 0
1, 1008, Note_on_c, 0, 67, 75
1, 1008, Note_on_c, 1, 62, 66
1, 1008, Note_on_c, 1, 58, 66
1, 1008, Note_on_c, 1, 55, 66
1, 1053, Note_on_c, 0, 67, 0
1, 1053, Note_on_c, 1, 62, 0
1, 1053, Note_on_c, 1, 58, 0
1, 1053, Note_on_c, 1, 55, 0
1, 1056, Note_on_c, 1, 62, 66
1, 1056, Note_on_c, 1, 58, 66
1, 1056, Note_on_c, 1, 55, 66
1, 1101, Note_on_c, 1, 62, 0
1, 1101, Note_on_c, 1, 58, 0
1, 1101, Note_on_c, 1, 55, 0
1, 1104, Note_on_c, 0, 74, 75
1, 1104, Note_on_c, 1, 62, 66
1, 1104, Note_on_c, 1, 58, 66
1, 1104, Note_on_c, 1, 55, 66
1, 1149, Note_on_c, 0, 74, 0
1, 1149, Note_on_c, 1, 62, 0
1, 1149, Note_on_c, 1, 58, 0
1, 1149, Note_on_c, 1, 55, 0
1, 1152, Note_on_c, 0, 75, 75
1, 1152, Note_on_c, 1, 58, 66
1, 1152, Note_on_c, 1, 55, 66
1, 1167, Note_on_c, 0, 75, 0
1, 1168, Note_on_c, 0, 79, 75
1, 1183, Note_on_c, 0, 79, 0
1, 1184, Note_on_c, 0, 77, 75
1, 1197, Note_on_c, 1, 58, 0
1, 1197, Note_on_c, 1, 55, 0
1, 1199, Note_on_c, 0, 77, 0
1, 1200, Note_on_c, 0, 75, 75
1, 1200, Note_on_c, 1, 58, 66
1, 1200, Note_on_c, 1, 55, 66
1, 1206, Note_on_c, 0, 75, 0
1, 1206, Note_on_c, 0, 77, 75
1, 1212, Note_on_c, 0, 77, 0
1, 1212, Note_on_c, 0, 75, 75
1, 1215, Note_on_c, 0, 75, 0
1, 1216, Note_on_c, 0, 74, 75
1, 1231, Note_on_c, 0, 74, 0
1, 1232, Note_on_c, 0, 75, 75
1, 1245, Note_on_c, 1, 58, 0
1, 1245, Note_on_c, 1, 55, 0
1, 1247, Note_on_c, 0, 75, 0
1, 1248, Note_on_c, 0, 84, 75
1, 1248, Note_on_c, 1, 65, 66
1, 1248, Note_on_c, 1, 60, 66
1, 1248, Note_on_c, 1, 57, 66
1, 1263, Note_on_c, 0, 84, 0
1, 1264, Note_on_c, 0, 82, 75
1, 1279, Note_on_c, 0, 82, 0
1, 1280, Note_on_c, 0, 81, 75
1, 1293, Note_on_c, 1, 65, 0
1, 1293, Note_on_c, 1, 60, 0
1, 1293, Note_on_c, 1, 57, 0
1, 1295, Note_on_c, 0, 81, 0
1, 1296, Note_on_c, 0, 79, 75
1, 1296, Note_on_c, 1, 65, 66
1, 1296, Note_on_c, 1, 60, 66
1, 1296, Note_on_c, 1, 57, 66
1, 1311, Note_on_c, 0, 79, 0
1, 1312, Note_on_c, 0, 77, 75
1, 1327, Note_on_c, 0, 77, 0
1, 1328, Note_on_c, 0, 75, 75
1, 1341, Note_on_c, 1, 65, 0
1, 1341, Note_on_c, 1, 60, 0
1, 1341, Note_on_c, 1, 57, 0
1, 1343, Note_on_c, 0, 75, 0
1, 1344, Note_on_c, 0, 74, 75
1, 1344, Note_on_c, 1, 65, 66
1, 1344, Note_on_c, 1, 62, 66
1, 1344, Note_on_c, 1, 58, 66
1, 1359, Note_on_c, 0, 74, 0
1, 1360, Note_on_c, 0, 77, 75
1, 1375, Note_on_c, 0, 77, 0
1, 1376, Note_on_c, 0, 75, 75
1, 1389, Note_on_c, 1, 65, 0
1, 1389, Note_on_c, 1, 62, 0
1, 1389, Note_on_c, 1, 58, 0
1, 1391, Note_on_c, 0, 75, 0
1, 1392, Note_on_c, 0, 74, 75
1, 1392, Note_on_c, 1, 65, 66
1, 1392, Note_on_c, 1, 62, 66
1, 1392, Note_on_c, 1, 58, 66
1, 1398, Note_on_c, 0, 74, 0
1, 1398, Note_on_c, 0, 75, 75
1, 1404, Note_on_c, 0, 75, 0
1, 1404, Note_on_c, 0, 74, 75
1, 1407, Note_on_c, 0, 74, 0
1, 1408, Note_on_c, 0, 72, 75
1, 1423, Note_on_c, 0, 72, 0
1, 1424, Note_on_c, 0, 74, 75
1, 1437, Note_on_c, 1, 65, 0
1, 1437, Note_on_c, 1, 62, 0
1, 1437, Note_on_c, 1, 58, 0
1, 1439, Note_on_c, 0, 74, 0
1, 1440, Note_on_c, 0, 82, 75
1, 1440, Note_on_c, 1, 58, 66
1, 1440, Note_on_c, 1, 53, 66
1, 1440, Note_on_c, 1, 50, 66
1, 1455, Note_on_c, 0, 82, 0
1, 1456, Note_on_c, 0, 86, 75
1, 1471, Note_on_c, 0, 86, 0
1, 1472, Note_on_c, 0, 84, 75
1, 1485, Note_on_c, 1, 58, 0
1, 1485, Note_on_c, 1, 53, 0
1, 1485, Note_on_c, 1, 50, 0
1, 1487, Note_on_c, 0, 84, 0
1, 1488, Note_on_c, 0, 82, 75
1, 1488, Note_on_c, 1, 58, 66
1, 1488, Note_on_c, 1, 53, 66
1, 1488, Note_on_c, 1, 50, 66
1, 1503, Note_on_c, 0, 82, 0
1, 1504, Note_on_c, 0, 77, 75
1, 1519, Note_on_c, 0, 77, 0
1, 1520, Note_on_c, 0, 74, 75
1, 1533, Note_on_c, 1, 58, 0
1, 1533, Note_on_c, 1, 53, 0
1, 1533, Note_on_c, 1, 50, 0
1, 1535, Note_on_c, 0, 74, 0
1, 1536, Note_on_c, 0, 72, 75
1, 1536, Note_on_c, 1, 58, 66
1, 1536, Note_on_c, 1, 55, 66
1, 1536, Note_on_c, 1, 51, 66
1, 1542, Note_on_c, 0, 72, 0
1, 1542, Note_on_c, 0, 74, 75
1, 1548, Note_on_c, 0, 74, 0
1, 1548, Note_on_c, 0, 72, 75
1, 1551, Note_on_c, 0, 72, 0
1, 1552, Note_on_c, 0, 71, 75
1, 1567, Note_on_c, 0, 71, 0
1, 1568, Note_on_c, 0, 72, 76
1, 1581, Note_on_c, 1, 58, 0
1, 1581, Note_on_c, 1, 55, 0
1, 1581, Note_on_c, 1, 51, 0
1, 1583, Note_on_c, 0, 72, 0
1, 1584, Note_on_c, 0, 75, 76
1, 1584, Note_on_c, 1, 58, 67
1, 1584, Note_on_c, 1, 55, 67
1, 1584, Note_on_c, 1, 51, 67
1, 1599, Note_on_c, 0, 75, 0
1, 1600, Note_on_c, 0, 74, 77
1, 1615, Note_on_c, 0, 74, 0
1, 1616, Note_on_c, 0, 72, 77
1, 1629, Note_on_c, 1, 58, 0
1, 1629, Note_on_c, 1, 55, 0
1, 1629, Note_on_c, 1, 51, 0
1, 1631, Note_on_c, 0, 72, 0
1, 1632, Note_on_c, 0, 78, 94
1, 1632, Note_on_c, 1, 60, 68
1, 1632, Note_on_c, 1, 55, 68
1, 1632, Note_on_c, 1, 51, 68
1, 1648, Note_on_c, 0, 78, 0
1, 1648, Note_on_c, 0, 79, 78
1, 1663, Note_on_c, 0, 79, 0
1, 1664, Note_on_c, 0, 77, 79
1, 1677, Note_on_c, 1, 60, 0
1, 1677, Note_on_c, 1, 55, 0
1, 1677, Note_on_c, 1, 51, 0
1, 1679, Note_on_c, 0, 77, 0
1, 1680, Note_on_c, 0, 75, 81
1, 1680, Note_on_c, 1, 60, 70
1, 1680, Note_on_c, 1, 55, 70
1, 1680, Note_on_c, 1, 51, 70
1, 1695, Note_on_c, 0, 75, 0
1, 1696, Note_on_c, 0, 74, 80
1, 1711, Note_on_c, 0, 74, 0
1, 1712, Note_on_c, 0, 72, 80
1, 1725, Note_on_c, 1, 60, 0
1, 1725, Note_on_c, 1, 55, 0
1, 1725, Note_on_c, 1, 51, 0
1, 1727, Note_on_c, 0, 72, 0
1, 1728, Note_on_c, 0, 70, 95
1, 1728, Note_on_c, 1, 62, 68
1, 1728, Note_on_c, 1, 53, 68
1, 1776, Note_on_c, 0, 70, 0
1, 1776, Note_on_c, 0, 69, 77
1, 1776, Note_on_c, 1, 62, 0
1, 1776, Note_on_c, 1, 60, 67
1, 1821, Note_on_c, 0, 69, 0
1, 1821, Note_on_c, 1, 60, 0
1, 1821, Note_on_c, 1, 53, 0
1, 1824, Note_on_c, 0, 77, 75
1, 1824, Note_on_c, 1, 57, 66
1, 1824, Note_on_c, 1, 53, 66
1, 1839, Note_on_c, 0, 77, 0
1, 1840, Note_on_c, 0, 81, 76
1, 1855, Note_on_c, 0, 81, 0
1, 1856, Note_on_c, 0, 82, 78
1, 1869, Note_on_c, 1, 57, 0
1, 1869, Note_on_c, 1, 53, 0
1, 1871, Note_on_c, 0, 82, 0
1, 1872, Note_on_c, 0, 84, 79
1, 1872, Note_on_c, 1, 57, 66
1, 1872, Note_on_c, 1, 53, 66
1, 1887, Note_on_c, 0, 84, 0
1, 1888, Note_on_c, 0, 81, 81
1, 1903, Note_on_c, 0, 81, 0
1, 1904, Note_on_c, 0, 75, 79
1, 1911, Note_on_c, 0, 75, 0
1, 1917, Note_on_c, 1, 57, 0
1, 1917, Note_on_c, 1, 53, 0
1, 1920, Note_on_c, 0, 74, 75
1, 1920, Note_on_c, 1, 58, 66
1, 1920, Note_on_c, 1, 53, 66
1, 1935, Note_on_c, 0, 74, 0
1, 1936, Note_on_c, 0, 79, 75
1, 1951, Note_on_c, 0, 79, 0
1, 1952, Note_on_c, 0, 77, 75
1, 1965, Note_on_c, 1, 58, 0
1, 1965, Note_on_c, 1, 53, 0
1, 1967, Note_on_c, 0, 77, 0
1, 1968, Note_on_c, 0, 79, 75
1, 1968, Note_on_c, 1, 62, 66
1, 1968, Note_on_c, 1, 53, 66
1, 1973, Note_on_c, 0, 79, 0
1, 1973, Note_on_c, 0, 77, 75
1, 1978, Note_on_c, 0, 77, 0
1, 1978, Note_on_c, 0, 79, 75
1, 1983, Note_on_c, 0, 79, 0
1, 1983, Note_on_c, 0, 77, 75
1, 1988, Note_on_c, 0, 77, 0
1, 1988, Note_on_c, 0, 79, 75
1, 1993, Note_on_c, 0, 79, 0
1, 1993, Note_on_c, 0, 77, 75
1, 1998, Note_on_c, 0, 77, 0
1, 1998, Note_on_c, 0, 79, 75
1, 2003, Note_on_c, 0, 79, 0
1, 2003, Note_on_c, 0, 77, 75
1, 2008, Note_on_c, 0, 77, 0
1, 2008, Note_on_c, 0, 79, 75
1, 2012, Note_on_c, 0, 79, 0
1, 2012, Note_on_c, 0, 77, 75
1, 2013, Note_on_c, 1, 62, 0
1, 2013, Note_on_c, 1, 53, 0
1, 2016, Note_on_c, 1, 57, 66
1, 2016, Note_on_c, 1, 53, 66
1, 2031, Note_on_c, 0, 77, 0
1, 2032, Note_on_c, 0, 81, 76
1, 2047, Note_on_c, 0, 81, 0
1, 2048, Note_on_c, 0, 82, 78
1, 2061, Note_on_c, 1, 57, 0
1, 2061, Note_on_c, 1, 53, 0
1, 2063, Note_on_c, 0, 82, 0
1, 2064, Note_on_c, 0, 84, 79
1, 2064, Note_on_c, 1, 57, 66
1, 2064, Note_on_c, 1, 53, 66
1, 2079, Note_on_c, 0, 84, 0
1, 2080, Note_on_c, 0, 81, 81
1, 2095, Note_on_c, 0, 81, 0
1, 2096, Note_on_c, 0, 75, 79
1, 2103, Note_on_c, 0, 75, 0
1, 2109, Note_on_c, 1, 57, 0
1, 2109, Note_on_c, 1, 53, 0
1, 2112, Note_on_c, 0, 74, 75
1, 2112, Note_on_c, 1, 58, 66
1, 2112, Note_on_c, 1, 53, 66
1, 2127, Note_on_c, 0, 74, 0
1, 2128, Note_on_c, 0, 79, 75
1, 2143, Note_on_c, 0, 79, 0
1, 2144, Note_on_c, 0, 77, 75
1, 2157, Note_on_c, 1, 58, 0
1, 2157, Note_on_c, 1, 53, 0
1, 2159, Note_on_c, 0, 77, 0
1, 2160, Note_on_c, 0, 79, 75
1, 2160, Note_on_c, 1, 62, 66
1, 2160, Note_on_c, 1, 53, 66
1, 2165, Note_on_c, 0, 79, 0
1, 2165, Note_on_c, 0, 77, 75
1, 2170, Note_on_c, 0, 77, 0
1, 2170, Note_on_c, 0, 79, 75
1, 2175, Note_on_c, 0, 79, 0
1, 2175, Note_on_c, 0, 77, 75
1, 2180, Note_on_c, 0, 77, 0
1, 2180, Note_on_c, 0, 79, 75
1, 2185, Note_on_c, 0, 79, 0
1, 2185, Note_on_c, 0, 77, 75
1, 2190, Note_on_c, 0, 77, 0
1, 2190, Note_on_c, 0, 79, 75
1, 2195, Note_on_c, 0, 79, 0
1, 2195, Note_on_c, 0, 77, 75
1, 2200, Note_on_c, 0, 77, 0
1, 2200, Note_on_c, 0, 79, 75
1, 2204, Note_on_c, 0, 79, 0
1, 2204, Note_on_c, 0, 77, 75
1, 2205, Note_on_c, 1, 62, 0
1, 2205, Note_on_c, 1, 53, 0
1, 2208, Note_on_c, 1, 57, 66
1, 2208, Note_on_c, 1, 53, 66
1, 2223, Note_on_c, 0, 77, 0
1, 2224, Note_on_c, 0, 81, 76
1, 2239, Note_on_c, 0, 81, 0
1, 2240, Note_on_c, 0, 82, 78
1, 2253, Note_on_c, 1, 57, 0
1, 2253, Note_on_c, 1, 53, 0
1, 2255, Note_on_c, 0, 82, 0
1, 2256, Note_on_c, 0, 84, 79
1, 2256, Note_on_c, 1, 57, 66
1, 2256, Note_on_c, 1, 53, 66
1, 2271, Note_on_c, 0, 84, 0
1, 2272, Note_on_c, 0, 81, 81
1, 2287, Note_on_c, 0, 81, 0
1, 2288, Note_on_c, 0, 75, 79
1, 2295, Note_on_c, 0, 75, 0
1, 2301, Note_on_c, 1, 57, 0
1, 2301, Note_on_c, 1, 53, 0
1, 2304, Note_on_c, 0, 74, 75
1, 2304, Note_on_c, 1, 58, 66
1, 2304, Note_on_c, 1, 46, 66
1, 2319, Note_on_c, 0, 74, 0
1, 2320, Note_on_c, 0, 77, 76
1, 2336, Note_on_c, 0, 77, 0
1, 2336, Note_on_c, 0, 78, 78
1, 2349, Note_on_c, 1, 58, 0
1, 2349, Note_on_c, 1, 46, 0
1, 2351, Note_on_c, 0, 78, 0
1, 2352, Note_on_c, 0, 79, 79
1, 2352, Note_on_c, 1, 63, 66
1, 2352, Note_on_c, 1, 51, 66
1, 2367, Note_on_c, 0, 79, 0
1, 2368, Note_on_c, 0, 75, 81
1, 2383, Note_on_c, 0, 75, 0
1, 2384, Note_on_c, 0, 72, 79
1, 2391, Note_on_c, 0, 72, 0
1, 2397, Note_on_c, 1, 63, 0
1, 2397, Note_on_c, 1, 51, 0
1, 2400, Note_on_c, 0, 70, 75
1, 2400, Note_on_c, 1, 62, 66
1, 2400, Note_on_c, 1, 53, 66
1, 2445, Note_on_c, 0, 70, 0
1, 2445, Note_on_c, 1, 62, 0
1, 2445, Note_on_c, 1, 53, 0
1, 2448, Note_on_c, 0, 69, 75
1, 2448, Note_on_c, 1, 60, 66
1, 2448, Note_on_c, 1, 53, 66
1, 2454, Note_on_c, 0, 69, 0
1, 2454, Note_on_c, 0, 70, 75
1, 2460, Note_on_c, 0, 70, 0
1, 2460, Note_on_c, 0, 69, 75
1, 2466, Note_on_c, 0, 69, 0
1, 2466, Note_on_c, 0, 70, 75
1, 2471, Note_on_c, 0, 70, 0
1, 2471, Note_on_c, 0, 69, 75
1, 2476, Note_on_c, 0, 69, 0
1, 2476, Note_on_c, 0, 70, 75
1, 2481, Note_on_c, 0, 70, 0
1, 2481, Note_on_c, 0, 69, 75
1, 2486, Note_on_c, 0, 69, 0
1, 2486, Note_on_c, 0, 67, 75
1, 2491, Note_on_c, 0, 67, 0
1, 2491, Note_on_c, 0, 69, 75
1, 2493, Note_on_c, 1, 60, 0
1, 2493, Note_on_c, 1, 53, 0
1, 2496, Note_on_c, 0, 69, 0
1, 2496, Note_on_c, 0, 77, 66
1, 2496, Note_on_c, 1, 53, 91
1, 2502, Note_on_c, 0, 77, 0
1, 2502, Note_on_c, 0, 79, 66
1, 2508, Note_on_c, 0, 79, 0
1, 2508, Note_on_c, 0, 77, 66
1, 2512, Note_on_c, 1, 53, 0
1, 2512, Note_on_c, 1, 63, 75
1, 2512, Note_on_c, 1, 60, 75
1, 2514, Note_on_c, 0, 77, 0
1, 2514, Note_on_c, 0, 79, 66
1, 2520, Note_on_c, 0, 79, 0
1, 2520, Note_on_c, 0, 77, 66
1, 2526, Note_on_c, 0, 77, 0
1, 2526, Note_on_c, 0, 79, 66
1, 2527, Note_on_c, 1, 63, 0
1, 2527, Note_on_c, 1, 60, 0
1, 2528, Note_on_c, 1, 63, 75
1, 2528, Note_on_c, 1, 60, 75
1, 2532, Note_on_c, 0, 79, 0
1, 2532, Note_on_c, 0, 77, 66
1, 2538, Note_on_c, 0, 77, 0
1, 2538, Note_on_c, 0, 79, 66
1, 2543, Note_on_c, 1, 63, 0
1, 2543, Note_on_c, 1, 60, 0
1, 2544, Note_on_c, 0, 79, 0
1, 2544, Note_on_c, 0, 77, 66
1, 2544, Note_on_c, 1, 63, 75
1, 2544, Note_on_c, 1, 60, 75
1, 2550, Note_on_c, 0, 77, 0
1, 2550, Note_on_c, 0, 79, 66
1, 2556, Note_on_c, 0, 79, 0
1, 2556, Note_on_c, 0, 77, 66
1, 2562, Note_on_c, 0, 77, 0
1, 2562, Note_on_c, 0, 79, 66
1, 2568, Note_on_c, 0, 79, 0
1, 2568, Note_on_c, 0, 77, 66
1, 2574, Note_on_c, 0, 77, 0
1, 2574, Note_on_c, 0, 79, 66
1, 2580, Note_on_c, 0, 79, 0
1, 2580, Note_on_c, 0, 77, 66
1, 2586, Note_on_c, 0, 77, 0
1, 2586, Note_on_c, 0, 79, 66
1, 2589, Note_on_c, 1, 63, 0
1, 2589, Note_on_c, 1, 60, 0
1, 2592, Note_on_c, 0, 79, 0
1, 2592, Note_on_c, 0, 77, 66
1, 2592, Note_on_c, 1, 53, 91
1, 2598, Note_on_c, 0, 77, 0
1, 2598, Note_on_c, 0, 79, 66
1, 2604, Note_on_c, 0, 79, 0
1, 2604, Note_on_c, 0, 77, 66
1, 2608, Note_on_c, 1, 53, 0
1, 2608, Note_on_c, 1, 63, 75
1, 2608, Note_on_c, 1, 60, 75
1, 2610, Note_on_c, 0, 77, 0
1, 2610, Note_on_c, 0, 79, 66
1, 2616, Note_on_c, 0, 79, 0
1, 2616, Note_on_c, 0, 77, 66
1, 2622, Note_on_c, 0, 77, 0
1, 2622, Note_on_c, 0, 79, 66
1, 2623, Note_on_c, 1, 63, 0
1, 2623, Note_on_c, 1, 60, 0
1, 2624, Note_on_c, 1, 63, 75
1, 2624, Note_on_c, 1, 60, 75
1, 2628, Note_on_c, 0, 79, 0
1, 2628, Note_on_c, 0, 77, 66
1, 2634, Note_on_c, 0, 77, 0
1, 2634, Note_on_c, 0, 79, 66
1, 2639, Note_on_c, 1, 63, 0
1, 2639, Note_on_c, 1, 60, 0
1, 2640, Note_on_c, 0, 79, 0
1, 2640, Note_on_c, 0, 77, 66
1, 2640, Note_on_c, 1, 63, 75
1, 2640, Note_on_c, 1, 60, 75
1, 2646, Note_on_c, 0, 77, 0
1, 2646, Note_on_c, 0, 79, 66
1, 2652, Note_on_c, 0, 79, 0
1, 2652, Note_on_c, 0, 77, 66
1, 2655, Note_on_c, 1, 63, 0
1, 2655, Note_on_c, 1, 60, 0
1, 2656, Note_on_c, 1, 62, 75
1, 2656, Note_on_c, 1, 58, 75
1, 2658, Note_on_c, 0, 77, 0
1, 2658, Note_on_c, 0, 79, 66
1, 2664, Note_on_c, 0, 79, 0
1, 2664, Note_on_c, 0, 77, 66
1, 2670, Note_on_c, 0, 77, 0
1, 2670, Note_on_c, 0, 79, 66
1, 2671, Note_on_c, 1, 62, 0
1, 2671, Note_on_c, 1, 58, 0
1, 2672, Note_on_c, 1, 60, 75
1, 2672, Note_on_c, 1, 57, 75
1, 2676, Note_on_c, 0, 79, 0
1, 2676, Note_on_c, 0, 77, 66
1, 2682, Note_on_c, 0, 77, 0
1, 2682, Note_on_c, 0, 79, 66
1, 2687, Note_on_c, 1, 60, 0
1, 2687, Note_on_c, 1, 57, 0
1, 2688, Note_on_c, 0, 79, 0
1, 2688, Note_on_c, 0, 77, 66
1, 2688, Note_on_c, 1, 53, 91
1, 2694, Note_on_c, 0, 77, 0
1, 2694, Note_on_c, 0, 79, 66
1, 2700, Note_on_c, 0, 79, 0
1, 2700, Note_on_c, 0, 77, 66
1, 2704, Note_on_c, 1, 53, 0
1, 2704, Note_on_c, 1, 62, 75
1, 2704, Note_on_c, 1, 58, 75
1, 2706, Note_on_c, 0, 77, 0
1, 2706, Note_on_c, 0, 79, 66
1, 2712, Note_on_c, 0, 79, 0
1, 2712, Note_on_c, 0, 77, 66
1, 2718, Note_on_c, 0, 77, 0
1, 2718, Note_on_c, 0, 79, 66
1, 2719, Note_on_c, 1, 62, 0
1, 2719, Note_on_c, 1, 58, 0
1, 2720, Note_on_c, 1, 62, 75
1, 2720, Note_on_c, 1, 58, 75
1, 2724, Note_on_c, 0, 79, 0
1, 2724, Note_on_c, 0, 77, 66
1, 2730, Note_on_c, 0, 77, 0
1, 2730, Note_on_c, 0, 79, 66
1, 2735, Note_on_c, 1, 62, 0
1, 2735, Note_on_c, 1, 58, 0
1, 2736, Note_on_c, 0, 79, 0
1, 2736, Note_on_c, 0, 77, 66
1, 2736, Note_on_c, 1, 62, 75
1, 2736, Note_on_c, 1, 58, 75
1, 2742, Note_on_c, 0, 77, 0
1, 2742, Note_on_c, 0, 79, 66
1, 2748, Note_on_c, 0, 79, 0
1, 2748, Note_on_c, 0, 77, 66
1, 2754, Note_on_c, 0, 77, 0
1, 2754, Note_on_c, 0, 79, 66
1, 2760, Note_on_c, 0, 79, 0
1, 2760, Note_on_c, 0, 77, 66
1, 2766, Note_on_c, 0, 77, 0
1, 2766, Note_on_c, 0, 79, 66
1, 2772, Note_on_c, 0, 79, 0
1, 2772, Note_on_c, 0, 77, 66
1, 2778, Note_on_c, 0, 77, 0
1, 2778, Note_on_c, 0, 79, 66
1, 2781, Note_on_c, 1, 62, 0
1, 2781, Note_on_c, 1, 58, 0
1, 2784, Note_on_c, 0, 79, 0
1, 2784, Note_on_c, 0, 77, 66
1, 2784, Note_on_c, 1, 53, 91
1, 2790, Note_on_c, 0, 77, 0
1, 2790, Note_on_c, 0, 79, 66
1, 2796, Note_on_c, 0, 79, 0
1, 2796, Note_on_c, 0, 77, 66
1, 2800, Note_on_c, 1, 53, 0
1, 2800, Note_on_c, 1, 65, 75
1, 2800, Note_on_c, 1, 62, 75
1, 2802, Note_on_c, 0, 77, 0
1, 2802, Note_on_c, 0, 79, 66
1, 2808, Note_on_c, 0, 79, 0
1, 2808, Note_on_c, 0, 77, 66
1, 2814, Note_on_c, 0, 77, 0
1, 2814, Note_on_c, 0, 79, 66
1, 2815, Note_on_c, 1, 65, 0
1, 2815, Note_on_c, 1, 62, 0
1, 2816, Note_on_c, 1, 65, 75
1, 2816, Note_on_c, 1, 62, 75
1, 2820, Note_on_c, 0, 79, 0
1, 2820, Note_on_c, 0, 77, 66
1, 2826, Note_on_c, 0, 77, 0
1, 2826, Note_on_c, 0, 79, 66
1, 2831, Note_on_c, 1, 65, 0
1, 2831, Note_on_c, 1, 62, 0
1, 2832, Note_on_c, 0, 79, 0
1, 2832, Note_on_c, 0, 77, 66
1, 2832, Note_on_c, 1, 65, 75
1, 2832, Note_on_c, 1, 62, 75
1, 2838, Note_on_c, 0, 77, 0
1, 2838, Note_on_c, 0, 79, 66
1, 2844, Note_on_c, 0, 79, 0
1, 2844, Note_on_c, 0, 77, 66
1, 2847, Note_on_c, 1, 65, 0
1, 2847, Note_on_c, 1, 62, 0
1, 2848, Note_on_c, 1, 63, 75
1, 2848, Note_on_c, 1, 60, 75
1, 2850, Note_on_c, 0, 77, 0
1, 2850, Note_on_c, 0, 79, 66
1, 2856, Note_on_c, 0, 79, 0
1, 2856, Note_on_c, 0, 77, 66
1, 2862, Note_on_c, 0, 77, 0
1, 2862, Note_on_c, 0, 79, 66
1, 2863, Note_on_c, 1, 63, 0
1, 2863, Note_on_c, 1, 60, 0
1, 2864, Note_on_c, 1, 62, 75
1, 2864, Note_on_c, 1, 58, 75
1, 2868, Note_on_c, 0, 79, 0
1, 2868, Note_on_c, 0, 77, 66
1, 2874, Note_on_c, 0, 77, 0
1, 2874, Note_on_c, 0, 79, 66
1, 2879, Note_on_c, 1, 62, 0
1, 2879, Note_on_c, 1, 58, 0
1, 2880, Note_on_c, 0, 79, 0
1, 2880, Note_on_c, 0, 77, 66
1, 2880, Note_on_c, 1, 53, 91
1, 2886, Note_on_c, 0, 77, 0
1, 2886, Note_on_c, 0, 79, 66
1, 2892, Note_on_c, 0, 79, 0
1, 2892, Note_on_c, 0, 77, 66
1, 2896, Note_on_c, 1, 53, 0
1, 2896, Note_on_c, 1, 63, 75
1, 2896, Note_on_c, 1, 60, 75
1, 2898, Note_on_c, 0, 77, 0
1, 2898, Note_on_c, 0, 79, 66
1, 2904, Note_on_c, 0, 79, 0
1, 2904, Note_on_c, 0, 77, 66
1, 2910, Note_on_c, 0, 77, 0
1, 2910, Note_on_c, 0, 79, 66
1, 2911, Note_on_c, 1, 63, 0
1, 2911, Note_on_c, 1, 60, 0
1, 2912, Note_on_c, 1, 63, 75
1, 2912, Note_on_c, 1, 60, 75
1, 2916, Note_on_c, 0, 79, 0
1, 2916, Note_on_c, 0, 77, 66
1, 2922, Note_on_c, 0, 77, 0
1, 2922, Note_on_c, 0, 79, 66
1, 2927, Note_on_c, 1, 63, 0
1, 2927, Note_on_c, 1, 60, 0
1, 2928, Note_on_c, 0, 79, 0
1, 2928, Note_on_c, 0, 77, 66
1, 2928, Note_on_c, 1, 63, 75
1, 2928, Note_on_c, 1, 60, 75
1, 2934, Note_on_c, 0, 77, 0
1, 2934, Note_on_c, 0, 79, 66
1, 2940, Note_on_c, 0, 79, 0
1, 2940, Note_on_c, 0, 77, 66
1, 2946, Note_on_c, 0, 77, 0
1, 2946, Note_on_c, 0, 79, 66
1, 2952, Note_on_c, 0, 79, 0
1, 2952, Note_on_c, 0, 77, 66
1, 2958, Note_on_c, 0, 77, 0
1, 2958, Note_on_c, 0, 79, 66
1, 2964, Note_on_c, 0, 79, 0
1, 2964, Note_on_c, 0, 77, 66
1, 2970, Note_on_c, 0, 77, 0
1, 2970, Note_on_c, 0, 79, 66
1, 2973, Note_on_c, 1, 63, 0
1, 2973, Note_on_c, 1, 60, 0
1, 2976, Note_on_c, 0, 79, 0
1, 2976, Note_on_c, 0, 77, 66
1, 2976, Note_on_c, 1, 53, 91
1, 2982, Note_on_c, 0, 77, 0
1, 2982, Note_on_c, 0, 79, 66
1, 2988, Note_on_c, 0, 79, 0
1, 2988, Note_on_c, 0, 77, 66
1, 2992, Note_on_c, 1, 53, 0
1, 2992, Note_on_c, 1, 63, 75
1, 2992, Note_on_c, 1, 60, 75
1, 2994, Note_on_c, 0, 77, 0
1, 2994, Note_on_c, 0, 79, 66
1, 3000, Note_on_c, 0, 79, 0
1, 3000, Note_on_c, 0, 77, 66
1, 3006, Note_on_c, 0, 77, 0
1, 3006, Note_on_c, 0, 79, 66
1, 3007, Note_on_c, 1, 63, 0
1, 3007, Note_on_c, 1, 60, 0
1, 3008, Note_on_c, 1, 63, 75
1, 3008, Note_on_c, 1, 60, 75
1, 3012, Note_on_c, 0, 79, 0
1, 3012, Note_on_c, 0, 77, 66
1, 3018, Note_on_c, 0, 77, 0
1, 3018, Note_on_c, 0, 79, 66
1, 3023, Note_on_c, 1, 63, 0
1, 3023, Note_on_c, 1, 60, 0
1, 3024, Note_on_c, 0, 79, 0
1, 3024, Note_on_c, 0, 77, 66
1, 3024, Note_on_c, 1, 63, 75
1, 3024, Note_on_c, 1, 60, 75
1, 3030, Note_on_c, 0, 77, 0
1, 3030, Note_on_c, 0, 79, 66
1, 3036, Note_on_c, 0, 79, 0
1, 3036, Note_on_c, 0, 77, 66
1, 3039, Note_on_c, 1, 63, 0
1, 3039, Note_on_c, 1, 60, 0
1, 3040, Note_on_c, 1, 62, 75
1, 3040, Note_on_c, 1, 58, 75
1, 3042, Note_on_c, 0, 77, 0
1, 3042, Note_on_c, 0, 79, 66
1, 3048, Note_on_c, 0, 79, 0
1, 3048, Note_on_c, 0, 77, 66
1, 3054, Note_on_c, 0, 77, 0
1, 3054, Note_on_c, 0, 79, 66
1, 3055, Note_on_c, 1, 62, 0
1, 3055, Note_on_c, 1, 58, 0
1, 3056, Note_on_c, 1, 60, 75
1, 3056, Note_on_c, 1, 57, 75
1, 3060, Note_on_c, 0, 79, 0
1, 3060, Note_on_c, 0, 77, 66
1, 3066, Note_on_c, 0, 77, 0
1, 3066, Note_on_c, 0, 79, 66
1, 3071, Note_on_c, 1, 60, 0
1, 3071, Note_on_c, 1, 57, 0
1, 3072, Note_on_c, 0, 79, 0
1, 3072, Note_on_c, 0, 77, 66
1, 3072, Note_on_c, 1, 62, 70
1, 3072, Note_on_c, 1, 58, 70
1, 3078, Note_on_c, 0, 77, 0
1, 3078, Note_on_c, 0, 79, 66
1, 3084, Note_on_c, 0, 79, 0
1, 3084, Note_on_c, 0, 77, 66
1, 3087, Note_on_c, 0, 77, 0
1, 3088, Note_on_c, 0, 86, 75
1, 3088, Note_on_c, 0, 82, 75
1, 3103, Note_on_c, 0, 86, 0
1, 3103, Note_on_c, 0, 82, 0
1, 3104, Note_on_c, 0, 86, 75
1, 3104, Note_on_c, 0, 82, 75
1, 3119, Note_on_c, 0, 86, 0
1, 3119, Note_on_c, 0, 82, 0
1, 3120, Note_on_c, 0, 86, 75
1, 3120, Note_on_c, 0, 82, 75
1, 3135, Note_on_c, 0, 86, 0
1, 3135, Note_on_c, 0, 82, 0
1, 3136, Note_on_c, 0, 82, 75
1, 3136, Note_on_c, 0, 74, 75
1, 3151, Note_on_c, 0, 82, 0
1, 3151, Note_on_c, 0, 74, 0
1, 3152, Note_on_c, 0, 82, 75
1, 3152, Note_on_c, 0, 74, 75
1, 3161, Note_on_c, 1, 62, 0
1, 3161, Note_on_c, 1, 58, 0
1, 3167, Note_on_c, 0, 82, 0
1, 3167, Note_on_c, 0, 74, 0
1, 3168, Note_on_c, 1, 60, 70
1, 3168, Note_on_c, 1, 55, 70
1, 3168, Note_on_c, 1, 51, 70
1, 3184, Note_on_c, 0, 79, 75
1, 3184, Note_on_c, 0, 75, 75
1, 3199, Note_on_c, 0, 79, 0
1, 3199, Note_on_c, 0, 75, 0
1, 3200, Note_on_c, 0, 79, 75
1, 3200, Note_on_c, 0, 75, 75
1, 3215, Note_on_c, 0, 79, 0
1, 3215, Note_on_c, 0, 75, 0
1, 3216, Note_on_c, 0, 79, 75
1, 3216, Note_on_c, 0, 75, 75
1, 3231, Note_on_c, 0, 79, 0
1, 3231, Note_on_c, 0, 75, 0
1, 3232, Note_on_c, 0, 75, 75
1, 3232, Note_on_c, 0, 67, 75
1, 3247, Note_on_c, 0, 75, 0
1, 3247, Note_on_c, 0, 67, 0
1, 3248, Note_on_c, 0, 75, 75
1, 3248, Note_on_c, 0, 67, 75
1, 3257, Note_on_c, 1, 60, 0
1, 3257, Note_on_c, 1, 55, 0
1, 3257, Note_on_c, 1, 51, 0
1, 3263, Note_on_c, 0, 75, 0
1, 3263, Note_on_c, 0, 67, 0
1, 3264, Note_on_c, 0, 75, 75
1, 3264, Note_on_c, 1, 58, 70
1, 3264, Note_on_c, 1, 53, 70
1, 3280, Note_on_c, 0, 75, 0
1, 3281, Note_on_c, 0, 74, 75
1, 3287, Note_on_c, 0, 74, 0
1, 3287, Note_on_c, 0, 75, 75
1, 3293, Note_on_c, 0, 75, 0
1, 3293, Note_on_c, 0, 74, 75
1, 3299, Note_on_c, 0, 74, 0
1, 3299, Note_on_c, 0, 75, 75
1, 3305, Note_on_c, 0, 75, 0
1, 3305, Note_on_c, 0, 74, 75
1, 3309, Note_on_c, 1, 58, 0
1, 3309, Note_on_c, 1, 53, 0
1, 3311, Note_on_c, 0, 74, 0
1, 3311, Note_on_c, 0, 75, 75
1, 3312, Note_on_c, 1, 58, 70
1, 3312, Note_on_c, 1, 53, 70
1, 3316, Note_on_c, 0, 75, 0
1, 3316, Note_on_c, 0, 74, 75
1, 3321, Note_on_c, 0, 74, 0
1, 3321, Note_on_c, 0, 75, 75
1, 3326, Note_on_c, 0, 75, 0
1, 3326, Note_on_c, 0, 74, 75
1, 3331, Note_on_c, 0, 74, 0
1, 3331, Note_on_c, 0, 75, 75
1, 3336, Note_on_c, 0, 75, 0
1, 3336, Note_on_c, 0, 74, 75
1, 3341, Note_on_c, 0, 74, 0
1, 3341, Note_on_c, 0, 75, 75
1, 3346, Note_on_c, 0, 75, 0
1, 3346, Note_on_c, 0, 74, 75
1, 3351, Note_on_c, 0, 74, 0
1, 3351, Note_on_c, 0, 75, 75
1, 3356, Note_on_c, 0, 75, 0
1, 3356, Note_on_c, 0, 74, 75
1, 3357, Note_on_c, 1, 58, 0
1, 3357, Note_on_c, 1, 53, 0
1, 3360, Note_on_c, 1, 58, 70
1, 3360, Note_on_c, 1, 55, 70
1, 3360, Note_on_c, 1, 52, 70
1, 3361, Note_on_c, 0, 74, 0
1, 3361, Note_on_c, 0, 75, 75
1, 3367, Note_on_c, 0, 75, 0
1, 3367, Note_on_c, 0, 73, 75
1, 3373, Note_on_c, 0, 73, 0
1, 3373, Note_on_c, 0, 75, 75
1, 3379, Note_on_c, 0, 75, 0
1, 3379, Note_on_c, 0, 73, 75
1, 3385, Note_on_c, 0, 73, 0
1, 3385, Note_on_c, 0, 75, 75
1, 3391, Note_on_c, 0, 75, 0
1, 3391, Note_on_c, 0, 73, 75
1, 3397, Note_on_c, 0, 73, 0
1, 3397, Note_on_c, 0, 75, 75
1, 3402, Note_on_c, 0, 75, 0
1, 3402, Note_on_c, 0, 73, 75
1, 3405, Note_on_c, 1, 58, 0
1, 3405, Note_on_c, 1, 55, 0
1, 3405, Note_on_c, 1, 52, 0
1, 3407, Note_on_c, 0, 73, 0
1, 3407, Note_on_c, 0, 75, 75
1, 3408, Note_on_c, 1, 58, 70
1, 3408, Note_on_c, 1, 55, 70
1, 3408, Note_on_c, 1, 52, 70
1, 3412, Note_on_c, 0, 75, 0
1, 3412, Note_on_c, 0, 73, 75
1, 3417, Note_on_c, 0, 73, 0
1, 3417, Note_on_c, 0, 75, 75
1, 3422, Note_on_c, 0, 75, 0
1, 3422, Note_on_c, 0, 73, 75
1, 3427, Note_on_c, 0, 73, 0
1, 3427, Note_on_c, 0, 75, 75
1, 3432, Note_on_c, 0, 75, 0
1, 3432, Note_on_c, 0, 73, 75
1, 3437, Note_on_c, 0, 73, 0
1, 3437, Note_on_c, 0, 72, 75
1, 3447, Note_on_c, 0, 72, 0
1, 3447, Note_on_c, 0, 73, 75
1, 3453, Note_on_c, 1, 58, 0
1, 3453, Note_on_c, 1, 55, 0
1, 3453, Note_on_c, 1, 52, 0
1, 3456, Note_on_c, 1, 60, 70
1, 3456, Note_on_c, 1, 57, 70
1, 3456, Note_on_c, 1, 53, 70
1, 3456, Note_on_c, 1, 51, 70
1, 3457, Note_on_c, 0, 73, 0
1, 3457, Note_on_c, 0, 72, 75
1, 3472, Note_on_c, 0, 72, 0
1, 3473, Note_on_c, 0, 84, 75
1, 3488, Note_on_c, 0, 84, 0
1, 3489, Note_on_c, 0, 81, 75
1, 3504, Note_on_c, 0, 81, 0
1, 3505, Note_on_c, 0, 77, 75
1, 3520, Note_on_c, 0, 77, 0
1, 3521, Note_on_c, 0, 72, 75
1, 3536, Note_on_c, 0, 72, 0
1, 3537, Note_on_c, 0, 69, 75
1, 3545, Note_on_c, 1, 60, 0
1, 3545, Note_on_c, 1, 57, 0
1, 3545, Note_on_c, 1, 53, 0
1, 3545, Note_on_c, 1, 51, 0
1, 3552, Note_on_c, 0, 69, 0
1, 3552, Note_on_c, 1, 58, 70
1, 3552, Note_on_c, 1, 53, 70
1, 3552, Note_on_c, 1, 50, 70
1, 3553, Note_on_c, 0, 70, 75
1, 3568, Note_on_c, 0, 70, 0
1, 3569, Note_on_c, 0, 82, 75
1, 3584, Note_on_c, 0, 82, 0
1, 3585, Note_on_c, 0, 77, 75
1, 3600, Note_on_c, 0, 77, 0
1, 3601, Note_on_c, 0, 74, 75
1, 3616, Note_on_c, 0, 74, 0
1, 3617, Note_on_c, 0, 70, 75
1, 3632, Note_on_c, 0, 70, 0
1, 3633, Note_on_c, 0, 65, 75
1, 3641, Note_on_c, 1, 58, 0
1, 3641, Note_on_c, 1, 53, 0
1, 3641, Note_on_c, 1, 50, 0
1, 3648, Note_on_c, 0, 65, 0
1, 3648, Note_on_c, 1, 58, 70
1, 3648, Note_on_c, 1, 51, 70
1, 3649, Note_on_c, 0, 67, 75
1, 3664, Note_on_c, 0, 67, 0
1, 3665, Note_on_c, 0, 79, 75
1, 3680, Note_on_c, 0, 79, 0
1, 3681, Note_on_c, 0, 78, 75
1, 3693, Note_on_c, 1, 58, 0
1, 3693, Note_on_c, 1, 51, 0
1, 3696, Note_on_c, 0, 78, 0
1, 3696, Note_on_c, 1, 63, 70
1, 3696, Note_on_c, 1, 51, 70
1, 3697, Note_on_c, 0, 79, 75
1, 3712, Note_on_c, 0, 79, 0
1, 3713, Note_on_c, 0, 75, 75
1, 3728, Note_on_c, 0, 75, 0
1, 3729, Note_on_c, 0, 72, 75
1, 3741, Note_on_c, 1, 63, 0
1, 3741, Note_on_c, 1, 51, 0
1, 3744, Note_on_c, 0, 72, 0
1, 3744, Note_on_c, 1, 62, 70
1, 3744, Note_on_c, 1, 53, 70
1, 3745, Note_on_c, 0, 70, 75
1, 3789, Note_on_c, 1, 62, 0
1, 3789, Note_on_c, 1, 53, 0
1, 3790, Note_on_c, 0, 70, 0
1, 3792, Note_on_c, 1, 60, 70
1, 3792, Note_on_c, 1, 53, 70
1, 3793, Note_on_c, 0, 69, 75
1, 3799, Note_on_c, 0, 69, 0
1, 3799, Note_on_c, 0, 70, 75
1, 3805, Note_on_c, 0, 70, 0
1, 3805, Note_on_c, 0, 69, 75
1, 3811, Note_on_c, 0, 69, 0
1, 3811, Note_on_c, 0, 70, 75
1, 3816, Note_on_c, 0, 70, 0
1, 3816, Note_on_c, 0, 69, 75
1, 3821, Note_on_c, 0, 69, 0
1, 3821, Note_on_c, 0, 70, 75
1, 3826, Note_on_c, 0, 70, 0
1, 3826, Note_on_c, 0, 69, 75
1, 3831, Note_on_c, 0, 69, 0
1, 3831, Note_on_c, 0, 67, 75
1, 3836, Note_on_c, 0, 67, 0
1, 3836, Note_on_c, 0, 69, 75
1, 3837, Note_on_c, 1, 60, 0
1, 3837, Note_on_c, 1, 53, 0
1, 3840, Note_on_c, 1, 58, 70
1, 3840, Note_on_c, 1, 46, 70
1, 3841, Note_on_c, 0, 69, 0
1, 3841, Note_on_c, 0, 70, 75
1, 3887, Note_on_c, 1, 58, 0
1, 3887, Note_on_c, 1, 46, 0
1, 3888, Note_on_c, 0, 70, 0
1, 3888, Note_on_c, 1, 62, 70
1, 3888, Note_on_c, 1, 55, 70
1, 3889, Note_on_c, 0, 70, 75
1, 3895, Note_on_c, 0, 70, 0
1, 3895, Note_on_c, 0, 72, 75
1, 3901, Note_on_c, 0, 72, 0
1, 3901, Note_on_c, 0, 70, 75
1, 3904, Note_on_c, 0, 70, 0
1, 3905, Note_on_c, 0, 69, 75
1, 3920, Note_on_c, 0, 69, 0
1, 3921, Note_on_c, 0, 70, 75
1, 3933, Note_on_c, 1, 62, 0
1, 3933, Note_on_c, 1, 55, 0
1, 3936, Note_on_c, 0, 70, 0
1, 3936, Note_on_c, 1, 62, 70
1, 3936, Note_on_c, 1, 53, 70
1, 3937, Tempo, 1538461
1, 3937, Note_on_c, 0, 70, 75
1, 3943, Note_on_c, 0, 70, 0
1, 3943, Note_on_c, 0, 72, 75
1, 3949, Note_on_c, 0, 72, 0
1, 3949, Note_on_c, 0, 70, 75
1, 3952, Note_on_c, 0, 70, 0
1, 3953, Note_on_c, 0, 69, 75
1, 3968, Note_on_c, 0, 69, 0
1, 3969, Note_on_c, 0, 70, 75
1, 3981, Note_on_c, 1, 62, 0
1, 3981, Note_on_c, 1, 53, 0
1, 3984, Note_on_c, 0, 70, 0
1, 3984, Note_on_c, 1, 62, 70
1, 3984, Note_on_c, 1, 52, 70
1, 3985, Tempo, 1666666
1, 3985, Note_on_c, 0, 70, 75
1, 3991, Note_on_c, 0, 70, 0
1, 3991, Note_on_c, 0, 72, 75
1, 3997, Note_on_c, 0, 72, 0
1, 3997, Note_on_c, 0, 70, 75
1, 4000, Note_on_c, 0, 70, 0
1, 4001, Note_on_c, 0, 69, 75
1, 4016, Note_on_c, 0, 69, 0
1, 4017, Note_on_c, 0, 70, 75
1, 4029, Note_on_c, 1, 62, 0
1, 4029, Note_on_c, 1, 52, 0
1, 4032, Note_on_c, 0, 70, 0
1, 4032, Note_on_c, 1, 62, 70
1, 4032, Note_on_c, 1, 53, 70
1, 4033, Tempo, 1333333
1, 4033, Note_on_c, 0, 70, 75
1, 4100, Note_on_c, 0, 70, 0
1, 4105, Note_on_c, 0, 72, 75
1, 4117, Note_on_c, 0, 72, 0
1, 4117, Note_on_c, 0, 74, 75
1, 4129, Note_on_c, 0, 74, 0
1, 4129, Note_on_c, 0, 75, 75
1, 4141, Note_on_c, 0, 75, 0
1, 4141, Note_on_c, 0, 77, 75
1, 4153, Note_on_c, 0, 77, 0
1, 4153, Note_on_c, 0, 79, 75
1, 4165, Note_on_c, 0, 79, 0
1, 4165, Note_on_c, 0, 81, 75
1, 4177, Note_on_c, 0, 81, 0
1, 4177, Note_on_c, 0, 82, 75
1, 4187, Note_on_c, 0, 82, 0
1, 4201, Note_on_c, 0, 77, 75
1, 4209, Note_on_c, 1, 62, 0
1, 4209, Note_on_c, 1, 53, 0
1, 4211, Note_on_c, 0, 77, 0
1, 4225, Note_on_c, 0, 86, 70
1, 4235, Note_on_c, 0, 86, 0
1, 4249, Note_on_c, 0, 82, 70
1, 4259, Note_on_c, 0, 82, 0
1, 4273, Note_on_c, 0, 77, 70
1, 4283, Note_on_c, 0, 77, 0
1, 4297, Note_on_c, 0, 74, 70
1, 4307, Note_on_c, 0, 74, 0
1, 4321, Note_on_c, 0, 72, 70
1, 4327, Note_on_c, 0, 72, 0
1, 4327, Note_on_c, 0, 74, 70
1, 4333, Note_on_c, 0, 74, 0
1, 4333, Note_on_c, 0, 72, 70
1, 4339, Note_on_c, 0, 72, 0
1, 4339, Note_on_c, 0, 74, 70
1, 4345, Note_on_c, 0, 74, 0
1, 4345, Note_on_c, 0, 72, 70
1, 4351, Note_on_c, 0, 72, 0
1, 4351, Note_on_c, 0, 74, 70
1, 4357, Note_on_c, 0, 74, 0
1, 4357, Note_on_c, 0, 72, 70
1, 4363, Note_on_c, 0, 72, 0
1, 4363, Note_on_c, 0, 74, 70
1, 4368, Note_on_c, 0, 74, 0
1, 4368, Note_on_c, 0, 72, 70
1, 4373, Note_on_c, 0, 72, 0
1, 4373, Note_on_c, 0, 74, 70
1, 4378, Note_on_c, 0, 74, 0
1, 4378, Note_on_c, 0, 72, 70
1, 4383, Note_on_c, 0, 72, 0
1, 4383, Note_on_c, 0, 74, 70
1, 4388, Note_on_c, 0, 74, 0
1, 4388, Note_on_c, 0, 72, 70
1, 4393, Note_on_c, 0, 72, 0
1, 4393, Note_on_c, 0, 74, 70
1, 4398, Note_on_c, 0, 74, 0
1, 4398, Note_on_c, 0, 72, 70
1, 4403, Note_on_c, 0, 72, 0
1, 4403, Note_on_c, 0, 74, 70
1, 4408, Note_on_c, 0, 74, 0
1, 4408, Note_on_c, 0, 72, 70
1, 4413, Note_on_c, 0, 72, 0
1, 4413, Note_on_c, 0, 74, 70
1, 4416, Note_on_c, 1, 57, 70
1, 4416, Note_on_c, 1, 53, 70
1, 4418, Note_on_c, 0, 74, 0
1, 4418, Note_on_c, 0, 72, 70
1, 4423, Note_on_c, 0, 72, 0
1, 4423, Note_on_c, 0, 74, 70
1, 4428, Note_on_c, 0, 74, 0
1, 4428, Note_on_c, 0, 72, 70
1, 4433, Note_on_c, 0, 72, 0
1, 4433, Note_on_c, 0, 74, 70
1, 4438, Note_on_c, 0, 74, 0
1, 4438, Note_on_c, 0, 72, 70
1, 4443, Note_on_c, 0, 72, 0
1, 4443, Note_on_c, 0, 74, 70
1, 4448, Note_on_c, 0, 74, 0
1, 4448, Note_on_c, 0, 72, 70
1, 4453, Note_on_c, 0, 72, 0
1, 4453, Note_on_c, 0, 74, 70
1, 4458, Note_on_c, 0, 74, 0
1, 4458, Note_on_c, 0, 72, 70
1, 4463, Note_on_c, 0, 72, 0
1, 4463, Note_on_c, 0, 74, 70
1, 4468, Note_on_c, 0, 74, 0
1, 4468, Note_on_c, 0, 72, 70
1, 4473, Note_on_c, 0, 72, 0
1, 4473, Note_on_c, 0, 74, 70
1, 4478, Note_on_c, 0, 74, 0
1, 4478, Note_on_c, 0, 72, 70
1, 4483, Note_on_c, 0, 72, 0
1, 4483, Note_on_c, 0, 74, 70
1, 4488, Note_on_c, 0, 74, 0
1, 4488, Note_on_c, 0, 72, 70
1, 4493, Note_on_c, 0, 72, 0
1, 4493, Note_on_c, 0, 70, 70
1, 4503, Note_on_c, 0, 70, 0
1, 4503, Note_on_c, 0, 72, 70
1, 4505, Note_on_c, 1, 57, 0
1, 4505, Note_on_c, 1, 53, 0
1, 4512, Note_on_c, 1, 58, 70
1, 4513, Note_on_c, 0, 72, 0
1, 4513, Note_on_c, 0, 70, 70
1, 4557, Note_on_c, 1, 58, 0
1, 4560, Note_on_c, 1, 53, 70
1, 4602, Note_on_c, 0, 70, 0
1, 4605, Note_on_c, 1, 53, 0
1, 4608, Note_on_c, 1, 46, 70
1, 4657, Note_on_c, 0, 77, 75
1, 4697, Note_on_c, 1, 46, 0
1, 4702, Note_on_c, 0, 77, 0
1, 4704, Note_on_c, 1, 53, 66
1, 4704, Note_on_c, 1, 50, 66
1, 4704, Note_on_c, 1, 46, 66
1, 4705, Note_on_c, 0, 82, 75
1, 4720, Note_on_c, 0, 82, 0
1, 4721, Note_on_c, 0, 86, 75
1, 4736, Note_on_c, 0, 86, 0
1, 4737, Note_on_c, 0, 84, 75
1, 4749, Note_on_c, 1, 53, 0
1, 4749, Note_on_c, 1, 50, 0
1, 4749, Note_on_c, 1, 46, 0
1, 4752, Note_on_c, 0, 84, 0
1, 4752, Note_on_c, 1, 53, 66
1, 4752, Note_on_c, 1, 50, 66
1, 4752, Note_on_c, 1, 46, 66
1, 4753, Note_on_c, 0, 82, 75
1, 4768, Note_on_c, 0, 82, 0
1, 4769, Note_on_c, 0, 81, 75
1, 4784, Note_on_c, 0, 81, 0
1, 4785, Note_on_c, 0, 82, 75
1, 4797, Note_on_c, 1, 53, 0
1, 4797, Note_on_c, 1, 50, 0
1, 4797, Note_on_c, 1, 46, 0
1, 4800, Note_on_c, 0, 82, 0
1, 4800, Note_on_c, 1, 53, 66
1, 4800, Note_on_c, 1, 50, 66
1, 4800, Note_on_c, 1, 46, 66
1, 4801, Note_on_c, 0, 86, 75
1, 4816, Note_on_c, 0, 86, 0
1, 4817, Note_on_c, 0, 81, 75
1, 4832, Note_on_c, 0, 81, 0
1, 4833, Note_on_c, 0, 82, 75
1, 4845, Note_on_c, 1, 53, 0
1, 4845, Note_on_c, 1, 50, 0
1, 4845, Note_on_c, 1, 46, 0
1, 4848, Note_on_c, 0, 82, 0
1, 4848, Note_on_c, 1, 53, 66
1, 4848, Note_on_c, 1, 50, 66
1, 4848, Note_on_c, 1, 46, 66
1, 4849, Note_on_c, 0, 86, 75
1, 4864, Note_on_c, 0, 86, 0
1, 4865, Note_on_c, 0, 81, 75
1, 4880, Note_on_c, 0, 81, 0
1, 4881, Note_on_c, 0, 82, 75
1, 4893, Note_on_c, 1, 53, 0
1, 4893, Note_on_c, 1, 50, 0
1, 4893, Note_on_c, 1, 46, 0
1, 4896, Note_on_c, 0, 82, 0
1, 4896, Note_on_c, 1, 51, 66
1, 4896, Note_on_c, 1, 46, 66
1, 4897, Note_on_c, 0, 81, 75
1, 4902, Note_on_c, 0, 81, 0
1, 4902, Note_on_c, 0, 79, 75
1, 4907, Note_on_c, 0, 79, 0
1, 4907, Note_on_c, 0, 81, 75
1, 4912, Note_on_c, 0, 81, 0
1, 4912, Note_on_c, 0, 79, 75
1, 4917, Note_on_c, 0, 79, 0
1, 4917, Note_on_c, 0, 81, 75
1, 4922, Note_on_c, 0, 81, 0
1, 4922, Note_on_c, 0, 79, 75
1, 4927, Note_on_c, 0, 79, 0
1, 4927, Note_on_c, 0, 81, 75
1, 4932, Note_on_c, 0, 81, 0
1, 4932, Note_on_c, 0, 79, 75
1, 4937, Note_on_c, 0, 79, 0
1, 4937, Note_on_c, 0, 77, 75
1, 4941, Note_on_c, 0, 77, 0
1, 4941, Note_on_c, 0, 79, 75
1, 4941, Note_on_c, 1, 51, 0
1, 4941, Note_on_c, 1, 46, 0
1, 4944, Note_on_c, 1, 50, 66
1, 4944, Note_on_c, 1, 46, 66
1, 4945, Note_on_c, 0, 79, 0
1, 4945, Note_on_c, 0, 77, 75
1, 4989, Note_on_c, 1, 50, 0
1, 4989, Note_on_c, 1, 46, 0
1, 4992, Note_on_c, 1, 50, 66
1, 4992, Note_on_c, 1, 46, 66
1, 5008, Note_on_c, 0, 77, 0
1, 5009, Note_on_c, 0, 70, 75
1, 5024, Note_on_c, 0, 70, 0
1, 5025, Note_on_c, 0, 72, 75
1, 5037, Note_on_c, 1, 50, 0
1, 5037, Note_on_c, 1, 46, 0
1, 5040, Note_on_c, 0, 72, 0
1, 5040, Note_on_c, 1, 50, 66
1, 5040, Note_on_c, 1, 46, 66
1, 5041, Note_on_c, 0, 74, 75
1, 5056, Note_on_c, 0, 74, 0
1, 5057, Note_on_c, 0, 75, 75
1, 5072, Note_on_c, 0, 75, 0
1, 5073, Note_on_c, 0, 77, 75
1, 5085, Note_on_c, 1, 50, 0
1, 5085, Note_on_c, 1, 46, 0
1, 5088, Note_on_c, 0, 77, 0
1, 5088, Note_on_c, 1, 55, 66
1, 5088, Note_on_c, 1, 48, 66
1, 5088, Note_on_c, 1, 46, 66
1, 5089, Note_on_c, 0, 75, 75
1, 5095, Note_on_c, 0, 75, 0
1, 5095, Note_on_c, 0, 77, 75
1, 5101, Note_on_c, 0, 77, 0
1, 5101, Note_on_c, 0, 75, 75
1, 5104, Note_on_c, 0, 75, 0
1, 5105, Note_on_c, 0, 74, 75
1, 5120, Note_on_c, 0, 74, 0
1, 5121, Note_on_c, 0, 75, 75
1, 5133, Note_on_c, 1, 55, 0
1, 5133, Note_on_c, 1, 48, 0
1, 5133, Note_on_c, 1, 46, 0
1, 5136, Note_on_c, 0, 75, 0
1, 5136, Note_on_c, 1, 55, 66
1, 5136, Note_on_c, 1, 48, 66
1, 5136, Note_on_c, 1, 46, 66
1, 5137, Note_on_c, 0, 75, 75
1, 5143, Note_on_c, 0, 75, 0
1, 5143, Note_on_c, 0, 77, 75
1, 5149, Note_on_c, 0, 77, 0
1, 5149, Note_on_c, 0, 75, 75
1, 5152, Note_on_c, 0, 75, 0
1, 5153, Note_on_c, 0, 74, 75
1, 5168, Note_on_c, 0, 74, 0
1, 5169, Note_on_c, 0, 75, 75
1, 5181, Note_on_c, 1, 55, 0
1, 5181, Note_on_c, 1, 48, 0
1, 5181, Note_on_c, 1, 46, 0
1, 5184, Note_on_c, 0, 75, 0
1, 5184, Note_on_c, 1, 53, 66
1, 5184, Note_on_c, 1, 48, 66
1, 5184, Note_on_c, 1, 45, 66
1, 5185, Note_on_c, 0, 84, 75
1, 5200, Note_on_c, 0, 84, 0
1, 5201, Note_on_c, 0, 82, 75
1, 5216, Note_on_c, 0, 82, 0
1, 5217, Note_on_c, 0, 81, 75
1, 5229, Note_on_c, 1, 53, 0
1, 5229, Note_on_c, 1, 48, 0
1, 5229, Note_on_c, 1, 45, 0
1, 5232, Note_on_c, 0, 81, 0
1, 5232, Note_on_c, 1, 53, 66
1, 5232, Note_on_c, 1, 48, 66
1, 5232, Note_on_c, 1, 45, 66
1, 5233, Note_on_c, 0, 79, 75
1, 5248, Note_on_c, 0, 79, 0
1, 5249, Note_on_c, 0, 77, 75
1, 5264, Note_on_c, 0, 77, 0
1, 5265, Note_on_c, 0, 75, 75
1, 5277, Note_on_c, 1, 53, 0
1, 5277, Note_on_c, 1, 48, 0
1, 5277, Note_on_c, 1, 45, 0
1, 5280, Note_on_c, 0, 75, 0
1, 5280, Note_on_c, 1, 53, 66
1, 5280, Note_on_c, 1, 50, 66
1, 5280, Note_on_c, 1, 46, 66
1, 5281, Note_on_c, 0, 74, 75
1, 5296, Note_on_c, 0, 74, 0
1, 5297, Note_on_c, 0, 77, 75
1, 5312, Note_on_c, 0, 77, 0
1, 5313, Note_on_c, 0, 69, 75
1, 5325, Note_on_c, 1, 53, 0
1, 5325, Note_on_c, 1, 50, 0
1, 5325, Note_on_c, 1, 46, 0
1, 5328, Note_on_c, 0, 69, 0
1, 5328, Note_on_c, 1, 53, 66
1, 5328, Note_on_c, 1, 50, 66
1, 5328, Note_on_c, 1, 46, 66
1, 5329, Note_on_c, 0, 70, 75
1, 5373, Note_on_c, 1, 53, 0
1, 5373, Note_on_c, 1, 50, 0
1, 5373, Note_on_c, 1, 46, 0
1, 5374, Note_on_c, 0, 70, 0
1, 5376, Note_on_c, 1, 53, 66
1, 5376, Note_on_c, 1, 50, 66
1, 5376, Note_on_c, 1, 46, 66
1, 5421, Note_on_c, 1, 53, 0
1, 5421, Note_on_c, 1, 50, 0
1, 5421, Note_on_c, 1, 46, 0
1, 5424, Note_on_c, 1, 53, 66
1, 5424, Note_on_c, 1, 50, 66
1, 5424, Note_on_c, 1, 46, 66
1, 5425, Note_on_c, 0, 77, 75
1, 5469, Note_on_c, 1, 53, 0
1, 5469, Note_on_c, 1, 50, 0
1, 5469, Note_on_c, 1, 46, 0
1, 5470, Note_on_c, 0, 77, 0
1, 5472, Note_on_c, 1, 50, 66
1, 5472, Note_on_c, 1, 47, 66
1, 5473, Note_on_c, 0, 77, 75
1, 5488, Note_on_c, 0, 77, 0
1, 5489, Note_on_c, 0, 80, 75
1, 5504, Note_on_c, 0, 80, 0
1, 5505, Note_on_c, 0, 79, 75
1, 5517, Note_on_c, 1, 50, 0
1, 5517, Note_on_c, 1, 47, 0
1, 5520, Note_on_c, 0, 79, 0
1, 5520, Note_on_c, 1, 50, 66
1, 5520, Note_on_c, 1, 47, 66
1, 5521, Note_on_c, 0, 77, 75
1, 5527, Note_on_c, 0, 77, 0
1, 5527, Note_on_c, 0, 79, 75
1, 5533, Note_on_c, 0, 79, 0
1, 5533, Note_on_c, 0, 77, 75
1, 5536, Note_on_c, 0, 77, 0
1, 5537, Note_on_c, 0, 76, 75
1, 5552, Note_on_c, 0, 76, 0
1, 5553, Note_on_c, 0, 77, 75
1, 5565, Note_on_c, 1, 50, 0
1, 5565, Note_on_c, 1, 47, 0
1, 5568, Note_on_c, 0, 77, 0
1, 5568, Note_on_c, 1, 50, 66
1, 5568, Note_on_c, 1, 47, 66
1, 5585, Note_on_c, 0, 80, 75
1, 5600, Note_on_c, 0, 80, 0
1, 5601, Note_on_c, 0, 79, 75
1, 5613, Note_on_c, 1, 50, 0
1, 5613, Note_on_c, 1, 47, 0
1, 5616, Note_on_c, 0, 79, 0
1, 5616, Note_on_c, 1, 50, 66
1, 5616, Note_on_c, 1, 47, 66
1, 5617, Note_on_c, 0, 77, 75
1, 5623, Note_on_c, 0, 77, 0
1, 5623, Note_on_c, 0, 79, 75
1, 5629, Note_on_c, 0, 79, 0
1, 5629, Note_on_c, 0, 77, 75
1, 5632, Note_on_c, 0, 77, 0
1, 5633, Note_on_c, 0, 76, 75
1, 5648, Note_on_c, 0, 76, 0
1, 5649, Note_on_c, 0, 77, 75
1, 5661, Note_on_c, 1, 50, 0
1, 5661, Note_on_c, 1, 47, 0
1, 5664, Note_on_c, 0, 77, 0
1, 5664, Note_on_c, 1, 55, 66
1, 5664, Note_on_c, 1, 50, 66
1, 5664, Note_on_c, 1, 47, 66
1, 5665, Note_on_c, 0, 67, 75
1, 5680, Note_on_c, 0, 67, 0
1, 5681, Note_on_c, 0, 74, 75
1, 5681, Note_on_c, 0, 71, 75
1, 5696, Note_on_c, 0, 74, 0
1, 5696, Note_on_c, 0, 71, 0
1, 5697, Note_on_c, 0, 74, 76
1, 5697, Note_on_c, 0, 71, 76
1, 5709, Note_on_c, 1, 55, 0
1, 5709, Note_on_c, 1, 50, 0
1, 5709, Note_on_c, 1, 47, 0
1, 5712, Note_on_c, 0, 74, 0
1, 5712, Note_on_c, 0, 71, 0
1, 5712, Note_on_c, 1, 55, 67
1, 5712, Note_on_c, 1, 50, 67
1, 5712, Note_on_c, 1, 47, 67
1, 5713, Note_on_c, 0, 67, 77
1, 5728, Note_on_c, 0, 67, 0
1, 5729, Note_on_c, 0, 77, 77
1, 5729, Note_on_c, 0, 74, 77
1, 5744, Note_on_c, 0, 77, 0
1, 5744, Note_on_c, 0, 74, 0
1, 5745, Note_on_c, 0, 77, 78
1, 5745, Note_on_c, 0, 74, 78
1, 5757, Note_on_c, 1, 55, 0
1, 5757, Note_on_c, 1, 50, 0
1, 5757, Note_on_c, 1, 47, 0
1, 5760, Note_on_c, 0, 77, 0
1, 5760, Note_on_c, 0, 74, 0
1, 5760, Note_on_c, 1, 55, 68
1, 5760, Note_on_c, 1, 50, 68
1, 5760, Note_on_c, 1, 47, 68
1, 5761, Note_on_c, 0, 67, 79
1, 5776, Note_on_c, 0, 67, 0
1, 5777, Note_on_c, 0, 86, 81
1, 5777, Note_on_c, 0, 77, 81
1, 5792, Note_on_c, 0, 86, 0
1, 5792, Note_on_c, 0, 77, 0
1, 5793, Note_on_c, 0, 86, 81
1, 5793, Note_on_c, 0, 77, 81
1, 5805, Note_on_c, 1, 55, 0
1, 5805, Note_on_c, 1, 50, 0
1, 5805, Note_on_c, 1, 47, 0
1, 5808, Note_on_c, 0, 86, 0
1, 5808, Note_on_c, 0, 77, 0
1, 5808, Note_on_c, 1, 55, 70
1, 5808, Note_on_c, 1, 50, 70
1, 5808, Note_on_c, 1, 47, 70
1, 5809, Note_on_c, 0, 86, 81
1, 5809, Note_on_c, 0, 77, 81
1, 5824, Note_on_c, 0, 86, 0
1, 5824, Note_on_c, 0, 77, 0
1, 5825, Note_on_c, 0, 77, 81
1, 5825, Note_on_c, 0, 74, 81
1, 5840, Note_on_c, 0, 77, 0
1, 5840, Note_on_c, 0, 74, 0
1, 5841, Note_on_c, 0, 77, 81
1, 5841, Note_on_c, 0, 74, 81
1, 5853, Note_on_c, 1, 55, 0
1, 5853, Note_on_c, 1, 50, 0
1, 5853, Note_on_c, 1, 47, 0
1, 5856, Note_on_c, 0, 77, 0
1, 5856, Note_on_c, 0, 74, 0
1, 5856, Note_on_c, 1, 55, 70
1, 5856, Note_on_c, 1, 51, 70
1, 5856, Note_on_c, 1, 48, 70
1, 5857, Note_on_c, 0, 75, 81
1, 5872, Note_on_c, 0, 75, 0
1, 5873, Note_on_c, 0, 79, 80
1, 5888, Note_on_c, 0, 79, 0
1, 5889, Note_on_c, 0, 71, 79
1, 5901, Note_on_c, 1, 55, 0
1, 5901, Note_on_c, 1, 51, 0
1, 5901, Note_on_c, 1, 48, 0
1, 5904, Note_on_c, 0, 71, 0
1, 5904, Note_on_c, 1, 55, 68
1, 5904, Note_on_c, 1, 51, 68
1, 5904, Note_on_c, 1, 48, 68
1, 5905, Note_on_c, 0, 74, 78
1, 5911, Note_on_c, 0, 74, 0
1, 5911, Note_on_c, 0, 72, 78
1, 5917, Note_on_c, 0, 72, 0
1, 5917, Note_on_c, 0, 71, 78
1, 5923, Note_on_c, 0, 71, 0
1, 5923, Note_on_c, 0, 72, 78
1, 5949, Note_on_c, 1, 55, 0
1, 5949, Note_on_c, 1, 51, 0
1, 5949, Note_on_c, 1, 48, 0
1, 5950, Note_on_c, 0, 72, 0
1, 5952, Note_on_c, 1, 55, 66
1, 5952, Note_on_c, 1, 51, 66
1, 5952, Note_on_c, 1, 48, 66
1, 5997, Note_on_c, 1, 55, 0
1, 5997, Note_on_c, 1, 51, 0
1, 5997, Note_on_c, 1, 48, 0
1, 6000, Note_on_c, 1, 55, 66
1, 6000, Note_on_c, 1, 51, 66
1, 6000, Note_on_c, 1, 48, 66
1, 6001, Note_on_c, 0, 75, 75
1, 6045, Note_on_c, 1, 55, 0
1, 6045, Note_on_c, 1, 51, 0
1, 6045, Note_on_c, 1, 48, 0
1, 6046, Note_on_c, 0, 75, 0
1, 6048, Note_on_c, 1, 55, 66
1, 6048, Note_on_c, 1, 48, 66
1, 6049, Note_on_c, 0, 75, 75
1, 6064, Note_on_c, 0, 75, 0
1, 6065, Note_on_c, 0, 79, 75
1, 6080, Note_on_c, 0, 79, 0
1, 6081, Note_on_c, 0, 77, 75
1, 6093, Note_on_c, 1, 55, 0
1, 6093, Note_on_c, 1, 48, 0
1, 6096, Note_on_c, 0, 77, 0
1, 6096, Note_on_c, 1, 55, 66
1, 6096, Note_on_c, 1, 48, 66
1, 6097, Note_on_c, 0, 75, 75
1, 6103, Note_on_c, 0, 75, 0
1, 6103, Note_on_c, 0, 77, 75
1, 6109, Note_on_c, 0, 77, 0
1, 6109, Note_on_c, 0, 75, 75
1, 6112, Note_on_c, 0, 75, 0
1, 6113, Note_on_c, 0, 74, 75
1, 6128, Note_on_c, 0, 74, 0
1, 6129, Note_on_c, 0, 75, 75
1, 6141, Note_on_c, 1, 55, 0
1, 6141, Note_on_c, 1, 48, 0
1, 6144, Note_on_c, 0, 75, 0
1, 6144, Note_on_c, 1, 55, 66
1, 6144, Note_on_c, 1, 48, 66
1, 6161, Note_on_c, 0, 79, 75
1, 6176, Note_on_c, 0, 79, 0
1, 6177, Note_on_c, 0, 77, 75
1, 6189, Note_on_c, 1, 55, 0
1, 6189, Note_on_c, 1, 48, 0
1, 6192, Note_on_c, 0, 77, 0
1, 6192, Note_on_c, 1, 55, 66
1, 6192, Note_on_c, 1, 48, 66
1, 6193, Note_on_c, 0, 75, 75
1, 6199, Note_on_c, 0, 75, 0
1, 6199, Note_on_c, 0, 77, 75
1, 6205, Note_on_c, 0, 77, 0
1, 6205, Note_on_c, 0, 75, 75
1, 6208, Note_on_c, 0, 75, 0
1, 6209, Note_on_c, 0, 74, 75
1, 6224, Note_on_c, 0, 74, 0
1, 6225, Note_on_c, 0, 75, 75
1, 6237, Note_on_c, 1, 55, 0
1, 6237, Note_on_c, 1, 48, 0
1, 6240, Note_on_c, 0, 75, 0
1, 6240, Note_on_c, 1, 53, 66
1, 6240, Note_on_c, 1, 48, 66
1, 6240, Note_on_c, 1, 45, 66
1, 6241, Note_on_c, 0, 65, 75
1, 6256, Note_on_c, 0, 65, 0
1, 6257, Note_on_c, 0, 72, 75
1, 6257, Note_on_c, 0, 69, 75
1, 6272, Note_on_c, 0, 72, 0
1, 6272, Note_on_c, 0, 69, 0
1, 6273, Note_on_c, 0, 72, 76
1, 6273, Note_on_c, 0, 69, 76
1, 6285, Note_on_c, 1, 53, 0
1, 6285, Note_on_c, 1, 48, 0
1, 6285, Note_on_c, 1, 45, 0
1, 6288, Note_on_c, 0, 72, 0
1, 6288, Note_on_c, 0, 69, 0
1, 6288, Note_on_c, 1, 53, 67
1, 6288, Note_on_c, 1, 48, 67
1, 6288, Note_on_c, 1, 45, 67
1, 6289, Note_on_c, 0, 65, 77
1, 6304, Note_on_c, 0, 65, 0
1, 6305, Note_on_c, 0, 75, 77
1, 6305, Note_on_c, 0, 72, 77
1, 6320, Note_on_c, 0, 75, 0
1, 6320, Note_on_c, 0, 72, 0
1, 6321, Note_on_c, 0, 75, 78
1, 6321, Note_on_c, 0, 72, 78
1, 6333, Note_on_c, 1, 53, 0
1, 6333, Note_on_c, 1, 48, 0
1, 6333, Note_on_c, 1, 45, 0
1, 6336, Note_on_c, 0, 75, 0
1, 6336, Note_on_c, 0, 72, 0
1, 6336, Note_on_c, 1, 53, 68
1, 6336, Note_on_c, 1, 48, 68
1, 6336, Note_on_c, 1, 45, 68
1, 6337, Note_on_c, 0, 65, 79
1, 6352, Note_on_c, 0, 65, 0
1, 6353, Note_on_c, 0, 84, 81
1, 6353, Note_on_c, 0, 75, 81
1, 6368, Note_on_c, 0, 84, 0
1, 6368, Note_on_c, 0, 75, 0
1, 6369, Note_on_c, 0, 84, 81
1, 6369, Note_on_c, 0, 75, 81
1, 6381, Note_on_c, 1, 53, 0
1, 6381, Note_on_c, 1, 48, 0
1, 6381, Note_on_c, 1, 45, 0
1, 6384, Note_on_c, 0, 84, 0
1, 6384, Note_on_c, 0, 75, 0
1, 6384, Note_on_c, 1, 53, 70
1, 6384, Note_on_c, 1, 48, 70
1, 6384, Note_on_c, 1, 45, 70
1, 6385, Note_on_c, 0, 84, 81
1, 6385, Note_on_c, 0, 75, 81
1, 6400, Note_on_c, 0, 84, 0
1, 6400, Note_on_c, 0, 75, 0
1, 6401, Note_on_c, 0, 75, 81
1, 6401, Note_on_c, 0, 72, 81
1, 6416, Note_on_c, 0, 75, 0
1, 6416, Note_on_c, 0, 72, 0
1, 6417, Note_on_c, 0, 75, 81
1, 6417, Note_on_c, 0, 72, 81
1, 6429, Note_on_c, 1, 53, 0
1, 6429, Note_on_c, 1, 48, 0
1, 6429, Note_on_c, 1, 45, 0
1, 6432, Note_on_c, 0, 75, 0
1, 6432, Note_on_c, 0, 72, 0
1, 6432, Note_on_c, 1, 53, 70
1, 6432, Note_on_c, 1, 50, 70
1, 6432, Note_on_c, 1, 46, 70
1, 6433, Note_on_c, 0, 74, 81
1, 6448, Note_on_c, 0, 74, 0
1, 6449, Note_on_c, 0, 77, 80
1, 6464, Note_on_c, 0, 77, 0
1, 6465, Note_on_c, 0, 69, 79
1, 6477, Note_on_c, 1, 53, 0
1, 6477, Note_on_c, 1, 50, 0
1, 6477, Note_on_c, 1, 46, 0
1, 6480, Note_on_c, 0, 69, 0
1, 6480, Note_on_c, 1, 53, 68
1, 6480, Note_on_c, 1, 50, 68
1, 6480, Note_on_c, 1, 46, 68
1, 6481, Note_on_c, 0, 70, 78
1, 6525, Note_on_c, 1, 53, 0
1, 6525, Note_on_c, 1, 50, 0
1, 6525, Note_on_c, 1, 46, 0
1, 6526, Note_on_c, 0, 70, 0
1, 6528, Note_on_c, 1, 62, 66
1, 6528, Note_on_c, 1, 58, 66
1, 6545, Note_on_c, 0, 79, 75
1, 6560, Note_on_c, 0, 79, 0
1, 6561, Note_on_c, 0, 81, 75
1, 6573, Note_on_c, 1, 62, 0
1, 6573, Note_on_c, 1, 58, 0
1, 6576, Note_on_c, 0, 81, 0
1, 6576, Note_on_c, 1, 62, 66
1, 6576, Note_on_c, 1, 55, 66
1, 6577, Note_on_c, 0, 82, 75
1, 6592, Note_on_c, 0, 82, 0
1, 6593, Note_on_c, 0, 78, 75
1, 6608, Note_on_c, 0, 78, 0
1, 6609, Note_on_c, 0, 79, 75
1, 6621, Note_on_c, 1, 62, 0
1, 6621, Note_on_c, 1, 55, 0
1, 6624, Note_on_c, 0, 79, 0
1, 6624, Note_on_c, 1, 57, 66
1, 6624, Note_on_c, 1, 55, 66
1, 6625, Note_on_c, 0, 72, 75
1, 6631, Note_on_c, 0, 72, 0
1, 6631, Note_on_c, 0, 74, 75
1, 6637, Note_on_c, 0, 74, 0
1, 6637, Note_on_c, 0, 72, 75
1, 6640, Note_on_c, 0, 72, 0
1, 6641, Note_on_c, 0, 71, 75
1, 6656, Note_on_c, 0, 71, 0
1, 6657, Note_on_c, 0, 72, 75
1, 6669, Note_on_c, 1, 57, 0
1, 6669, Note_on_c, 1, 55, 0
1, 6672, Note_on_c, 0, 72, 0
1, 6672, Note_on_c, 1, 57, 66
1, 6672, Note_on_c, 1, 55, 66
1, 6673, Note_on_c, 0, 72, 75
1, 6717, Note_on_c, 1, 57, 0
1, 6717, Note_on_c, 1, 55, 0
1, 6718, Note_on_c, 0, 72, 0
1, 6720, Note_on_c, 1, 57, 66
1, 6720, Note_on_c, 1, 54, 66
1, 6737, Note_on_c, 0, 78, 75
1, 6752, Note_on_c, 0, 78, 0
1, 6753, Note_on_c, 0, 79, 75
1, 6765, Note_on_c, 1, 57, 0
1, 6765, Note_on_c, 1, 54, 0
1, 6768, Note_on_c, 0, 79, 0
1, 6768, Note_on_c, 1, 62, 66
1, 6768, Note_on_c, 1, 54, 66
1, 6769, Note_on_c, 0, 81, 75
1, 6784, Note_on_c, 0, 81, 0
1, 6785, Note_on_c, 0, 78, 75
1, 6800, Note_on_c, 0, 78, 0
1, 6801, Note_on_c, 0, 69, 75
1, 6813, Note_on_c, 1, 62, 0
1, 6813, Note_on_c, 1, 54, 0
1, 6816, Note_on_c, 0, 69, 0
1, 6816, Note_on_c, 1, 62, 66
1, 6816, Note_on_c, 1, 55, 66
1, 6817, Note_on_c, 0, 70, 75
1, 6823, Note_on_c, 0, 70, 0
1, 6823, Note_on_c, 0, 72, 75
1, 6829, Note_on_c, 0, 72, 0
1, 6829, Note_on_c, 0, 70, 75
1, 6832, Note_on_c, 0, 70, 0
1, 6833, Note_on_c, 0, 69, 75
1, 6848, Note_on_c, 0, 69, 0
1, 6849, Note_on_c, 0, 70, 75
1, 6861, Note_on_c, 1, 62, 0
1, 6861, Note_on_c, 1, 55, 0
1, 6864, Note_on_c, 0, 70, 0
1, 6864, Note_on_c, 1, 62, 66
1, 6864, Note_on_c, 1, 55, 66
1, 6865, Note_on_c, 0, 70, 75
1, 6909, Note_on_c, 1, 62, 0
1, 6909, Note_on_c, 1, 55, 0
1, 6910, Note_on_c, 0, 70, 0
1, 6912, Note_on_c, 1, 58, 66
1, 6912, Note_on_c, 1, 55, 66
1, 6913, Note_on_c, 0, 79, 75
1, 6928, Note_on_c, 0, 79, 0
1, 6929, Note_on_c, 0, 82, 75
1, 6944, Note_on_c, 0, 82, 0
1, 6945, Note_on_c, 0, 78, 75
1, 6957, Note_on_c, 1, 58, 0
1, 6957, Note_on_c, 1, 55, 0
1, 6960, Note_on_c, 0, 78, 0
1, 6960, Note_on_c, 1, 58, 66
1, 6960, Note_on_c, 1, 55, 66
1, 6961, Note_on_c, 0, 79, 75
1, 6976, Note_on_c, 0, 79, 0
1, 6977, Note_on_c, 0, 67, 75
1, 6992, Note_on_c, 0, 67, 0
1, 6993, Note_on_c, 0, 74, 75
1, 7005, Note_on_c, 1, 58, 0
1, 7005, Note_on_c, 1, 55, 0
1, 7008, Note_on_c, 0, 74, 0
1, 7008, Note_on_c, 1, 55, 66
1, 7008, Note_on_c, 1, 50, 66
1, 7009, Note_on_c, 0, 72, 75
1, 7014, Note_on_c, 0, 72, 0
1, 7014, Note_on_c, 0, 70, 75
1, 7019, Note_on_c, 0, 70, 0
1, 7019, Note_on_c, 0, 72, 75
1, 7024, Note_on_c, 0, 72, 0
1, 7024, Note_on_c, 0, 70, 75
1, 7029, Note_on_c, 0, 70, 0
1, 7029, Note_on_c, 0, 72, 75
1, 7034, Note_on_c, 0, 72, 0
1, 7034, Note_on_c, 0, 70, 75
1, 7039, Note_on_c, 0, 70, 0
1, 7039, Note_on_c, 0, 72, 75
1, 7044, Note_on_c, 0, 72, 0
1, 7044, Note_on_c, 0, 70, 75
1, 7049, Note_on_c, 0, 70, 0
1, 7049, Note_on_c, 0, 69, 75
1, 7053, Note_on_c, 0, 69, 0
1, 7053, Note_on_c, 0, 70, 75
1, 7053, Note_on_c, 1, 55, 0
1, 7053, Note_on_c, 1, 50, 0
1, 7056, Note_on_c, 1, 54, 66
1, 7056, Note_on_c, 1, 50, 66
1, 7057, Note_on_c, 0, 70, 0
1, 7057, Note_on_c, 0, 69, 75
1, 7101, Note_on_c, 1, 54, 0
1, 7101, Note_on_c, 1, 50, 0
1, 7102, Note_on_c, 0, 69, 0
1, 7104, Note_on_c, 1, 55, 66
1, 7104, Note_on_c, 1, 46, 66
1, 7149, Note_on_c, 1, 55, 0
1, 7149, Note_on_c, 1, 46, 0
1, 7152, Note_on_c, 1, 55, 66
1, 7152, Note_on_c, 1, 46, 66
1, 7153, Note_on_c, 0, 74, 75
1, 7197, Note_on_c, 1, 55, 0
1, 7197, Note_on_c, 1, 46, 0
1, 7198, Note_on_c, 0, 74, 0
1, 7200, Note_on_c, 1, 55, 66
1, 7200, Note_on_c, 1, 48, 66
1, 7201, Note_on_c, 0, 75, 75
1, 7216, Note_on_c, 0, 75, 0
1, 7217, Note_on_c, 0, 79, 75
1, 7232, Note_on_c, 0, 79, 0
1, 7233, Note_on_c, 0, 77, 75
1, 7245, Note_on_c, 1, 55, 0
1, 7245, Note_on_c, 1, 48, 0
1, 7248, Note_on_c, 0, 77, 0
1, 7248, Note_on_c, 1, 55, 66
1, 7248, Note_on_c, 1, 48, 66
1, 7249, Note_on_c, 0, 75, 75
1, 7255, Note_on_c, 0, 75, 0
1, 7255, Note_on_c, 0, 77, 75
1, 7261, Note_on_c, 0, 77, 0
1, 7261, Note_on_c, 0, 75, 75
1, 7264, Note_on_c, 0, 75, 0
1, 7265, Note_on_c, 0, 74, 75
1, 7280, Note_on_c, 0, 74, 0
1, 7281, Note_on_c, 0, 75, 75
1, 7293, Note_on_c, 1, 55, 0
1, 7293, Note_on_c, 1, 48, 0
1, 7296, Note_on_c, 0, 75, 0
1, 7296, Note_on_c, 1, 55, 66
1, 7296, Note_on_c, 1, 46, 66
1, 7297, Note_on_c, 0, 77, 75
1, 7313, Note_on_c, 0, 77, 0
1, 7314, Note_on_c, 0, 76, 75
1, 7320, Note_on_c, 0, 76, 0
1, 7320, Note_on_c, 0, 77, 75
1, 7326, Note_on_c, 0, 77, 0
1, 7326, Note_on_c, 0, 76, 75
1, 7332, Note_on_c, 0, 76, 0
1, 7332, Note_on_c, 0, 77, 75
1, 7338, Note_on_c, 0, 77, 0
1, 7338, Note_on_c, 0, 76, 75
1, 7341, Note_on_c, 1, 55, 0
1, 7341, Note_on_c, 1, 46, 0
1, 7344, Note_on_c, 0, 76, 0
1, 7344, Note_on_c, 0, 77, 75
1, 7344, Note_on_c, 1, 55, 66
1, 7344, Note_on_c, 1, 46, 66
1, 7349, Note_on_c, 0, 77, 0
1, 7349, Note_on_c, 0, 76, 75
1, 7354, Note_on_c, 0, 76, 0
1, 7354, Note_on_c, 0, 77, 75
1, 7359, Note_on_c, 0, 77, 0
1, 7359, Note_on_c, 0, 76, 75
1, 7364, Note_on_c, 0, 76, 0
1, 7364, Note_on_c, 0, 77, 75
1, 7369, Note_on_c, 0, 77, 0
1, 7369, Note_on_c, 0, 76, 75
1, 7374, Note_on_c, 0, 76, 0
1, 7374, Note_on_c, 0, 77, 75
1, 7379, Note_on_c, 0, 77, 0
1, 7379, Note_on_c, 0, 76, 75
1, 7384, Note_on_c, 0, 76, 0
1, 7384, Note_on_c, 0, 74, 75
1, 7389, Note_on_c, 0, 74, 0
1, 7389, Note_on_c, 0, 76, 75
1, 7389, Note_on_c, 1, 55, 0
1, 7389, Note_on_c, 1, 46, 0
1, 7392, Note_on_c, 1, 57, 66
1, 7392, Note_on_c, 1, 45, 66
1, 7394, Note_on_c, 0, 76, 0
1, 7394, Note_on_c, 0, 77, 75
1, 7409, Note_on_c, 0, 77, 0
1, 7410, Note_on_c, 0, 81, 75
1, 7425, Note_on_c, 0, 81, 0
1, 7426, Note_on_c, 0, 79, 75
1, 7437, Note_on_c, 1, 57, 0
1, 7437, Note_on_c, 1, 45, 0
1, 7440, Note_on_c, 1, 57, 66
1, 7440, Note_on_c, 1, 45, 66
1, 7441, Note_on_c, 0, 79, 0
1, 7442, Note_on_c, 0, 77, 75
1, 7457, Note_on_c, 0, 77, 0
1, 7458, Note_on_c, 0, 76, 75
1, 7473, Note_on_c, 0, 76, 0
1, 7474, Note_on_c, 0, 77, 75
1, 7485, Note_on_c, 1, 57, 0
1, 7485, Note_on_c, 1, 45, 0
1, 7488, Note_on_c, 1, 57, 66
1, 7488, Note_on_c, 1, 48, 66
1, 7489, Note_on_c, 0, 77, 0
1, 7490, Note_on_c, 0, 79, 75
1, 7506, Note_on_c, 0, 79, 0
1, 7507, Note_on_c, 0, 78, 75
1, 7513, Note_on_c, 0, 78, 0
1, 7513, Note_on_c, 0, 79, 75
1, 7519, Note_on_c, 0, 79, 0
1, 7519, Note_on_c, 0, 78, 75
1, 7525, Note_on_c, 0, 78, 0
1, 7525, Note_on_c, 0, 79, 75
1, 7531, Note_on_c, 0, 79, 0
1, 7531, Note_on_c, 0, 78, 75
1, 7533, Note_on_c, 1, 57, 0
1, 7533, Note_on_c, 1, 48, 0
1, 7536, Note_on_c, 1, 57, 66
1, 7536, Note_on_c, 1, 48, 66
1, 7537, Note_on_c, 0, 78, 0
1, 7537, Note_on_c, 0, 79, 75
1, 7542, Note_on_c, 0, 79, 0
1, 7542, Note_on_c, 0, 78, 75
1, 7547, Note_on_c, 0, 78, 0
1, 7547, Note_on_c, 0, 79, 75
1, 7552, Note_on_c, 0, 79, 0
1, 7552, Note_on_c, 0, 78, 75
1, 7557, Note_on_c, 0, 78, 0
1, 7557, Note_on_c, 0, 79, 75
1, 7562, Note_on_c, 0, 79, 0
1, 7562, Note_on_c, 0, 78, 75
1, 7567, Note_on_c, 0, 78, 0
1, 7567, Note_on_c, 0, 79, 75
1, 7572, Note_on_c, 0, 79, 0
1, 7572, Note_on_c, 0, 78, 75
1, 7577, Note_on_c, 0, 78, 0
1, 7577, Note_on_c, 0, 76, 75
1, 7581, Note_on_c, 1, 57, 0
1, 7581, Note_on_c, 1, 48, 0
1, 7582, Note_on_c, 0, 76, 0
1, 7582, Note_on_c, 0, 78, 75
1, 7584, Note_on_c, 1, 50, 66
1, 7584, Note_on_c, 1, 46, 66
1, 7587, Note_on_c, 0, 78, 0
1, 7587, Note_on_c, 0, 79, 75
1, 7602, Note_on_c, 0, 79, 0
1, 7603, Note_on_c, 0, 78, 75
1, 7618, Note_on_c, 0, 78, 0
1, 7619, Note_on_c, 0, 79, 75
1, 7629, Note_on_c, 1, 50, 0
1, 7629, Note_on_c, 1, 46, 0
1, 7632, Note_on_c, 1, 50, 67
1, 7632, Note_on_c, 1, 42, 67
1, 7634, Note_on_c, 0, 79, 0
1, 7635, Note_on_c, 0, 81, 76
1, 7650, Note_on_c, 0, 81, 0
1, 7651, Note_on_c, 0, 78, 76
1, 7666, Note_on_c, 0, 78, 0
1, 7667, Note_on_c, 0, 74, 76
1, 7677, Note_on_c, 1, 50, 0
1, 7677, Note_on_c, 1, 42, 0
1, 7680, Note_on_c, 1, 50, 68
1, 7680, Note_on_c, 1, 43, 68
1, 7682, Note_on_c, 0, 74, 0
1, 7683, Note_on_c, 0, 82, 77
1, 7698, Note_on_c, 0, 82, 0
1, 7699, Note_on_c, 0, 81, 77
1, 7714, Note_on_c, 0, 81, 0
1, 7715, Note_on_c, 0, 82, 78
1, 7725, Note_on_c, 1, 50, 0
1, 7725, Note_on_c, 1, 43, 0
1, 7728, Note_on_c, 1, 55, 69
1, 7728, Note_on_c, 1, 43, 69
1, 7730, Note_on_c, 0, 82, 0
1, 7731, Note_on_c, 0, 86, 78
1, 7746, Note_on_c, 0, 86, 0
1, 7747, Note_on_c, 0, 84, 78
1, 7762, Note_on_c, 0, 84, 0
1, 7763, Note_on_c, 0, 82, 79
1, 7773, Note_on_c, 1, 55, 0
1, 7773, Note_on_c, 1, 43, 0
1, 7776, Note_on_c, 1, 55, 70
1, 7776, Note_on_c, 1, 50, 70
1, 7778, Note_on_c, 0, 82, 0
1, 7779, Note_on_c, 0, 84, 81
1, 7784, Note_on_c, 0, 84, 0
1, 7784, Note_on_c, 0, 82, 81
1, 7789, Note_on_c, 0, 82, 0
1, 7789, Note_on_c, 0, 84, 81
1, 7794, Note_on_c, 0, 84, 0
1, 7794, Note_on_c, 0, 82, 81
1, 7799, Note_on_c, 0, 82, 0
1, 7799, Note_on_c, 0, 84, 81
1, 7804, Note_on_c, 0, 84, 0
1, 7804, Note_on_c, 0, 82, 81
1, 7809, Note_on_c, 0, 82, 0
1, 7809, Note_on_c, 0, 84, 81
1, 7814, Note_on_c, 0, 84, 0
1, 7814, Note_on_c, 0, 82, 81
1, 7819, Note_on_c, 0, 82, 0
1, 7819, Note_on_c, 0, 81, 81
1, 7821, Note_on_c, 1, 55, 0
1, 7821, Note_on_c, 1, 50, 0
1, 7823, Note_on_c, 0, 81, 0
1, 7823, Note_on_c, 0, 82, 81
1, 7824, Note_on_c, 1, 54, 68
1, 7824, Note_on_c, 1, 50, 68
1, 7827, Note_on_c, 0, 82, 0
1, 7827, Note_on_c, 0, 81, 75
1, 7869, Note_on_c, 1, 54, 0
1, 7869, Note_on_c, 1, 50, 0
1, 7872, Note_on_c, 0, 81, 0
1, 7872, Note_on_c, 1, 54, 66
1, 7872, Note_on_c, 1, 50, 66
1, 7875, Note_on_c, 0, 74, 75
1, 7890, Note_on_c, 0, 74, 0
1, 7891, Note_on_c, 0, 78, 76
1, 7906, Note_on_c, 0, 78, 0
1, 7907, Note_on_c, 0, 79, 78
1, 7917, Note_on_c, 1, 54, 0
1, 7917, Note_on_c, 1, 50, 0
1, 7920, Note_on_c, 1, 54, 66
1, 7920, Note_on_c, 1, 50, 66
1, 7922, Note_on_c, 0, 79, 0
1, 7923, Note_on_c, 0, 81, 79
1, 7938, Note_on_c, 0, 81, 0
1, 7939, Note_on_c, 0, 78, 81
1, 7954, Note_on_c, 0, 78, 0
1, 7955, Note_on_c, 0, 74, 79
1, 7962, Note_on_c, 0, 74, 0
1, 7965, Note_on_c, 1, 54, 0
1, 7965, Note_on_c, 1, 50, 0
1, 7968, Note_on_c, 1, 55, 66
1, 7968, Note_on_c, 1, 50, 66
1, 7971, Note_on_c, 0, 70, 75
1, 7986, Note_on_c, 0, 70, 0
1, 7987, Note_on_c, 0, 75, 75
1, 8002, Note_on_c, 0, 75, 0
1, 8003, Note_on_c, 0, 74, 75
1, 8013, Note_on_c, 1, 55, 0
1, 8013, Note_on_c, 1, 50, 0
1, 8016, Note_on_c, 1, 58, 66
1, 8016, Note_on_c, 1, 50, 66
1, 8018, Note_on_c, 0, 74, 0
1, 8019, Note_on_c, 0, 75, 75
1, 8024, Note_on_c, 0, 75, 0
1, 8024, Note_on_c, 0, 74, 75
1, 8029, Note_on_c, 0, 74, 0
1, 8029, Note_on_c, 0, 75, 75
1, 8034, Note_on_c, 0, 75, 0
1, 8034, Note_on_c, 0, 74, 75
1, 8039, Note_on_c, 0, 74, 0
1, 8039, Note_on_c, 0, 75, 75
1, 8044, Note_on_c, 0, 75, 0
1, 8044, Note_on_c, 0, 74, 75
1, 8049, Note_on_c, 0, 74, 0
1, 8049, Note_on_c, 0, 75, 75
1, 8054, Note_on_c, 0, 75, 0
1, 8054, Note_on_c, 0, 74, 75
1, 8059, Note_on_c, 0, 74, 0
1, 8059, Note_on_c, 0, 75, 75
1, 8061, Note_on_c, 1, 58, 0
1, 8061, Note_on_c, 1, 50, 0
1, 8063, Note_on_c, 0, 75, 0
1, 8063, Note_on_c, 0, 74, 75
1, 8064, Note_on_c, 1, 54, 66
1, 8064, Note_on_c, 1, 50, 66
1, 8082, Note_on_c, 0, 74, 0
1, 8083, Note_on_c, 0, 78, 76
1, 8098, Note_on_c, 0, 78, 0
1, 8099, Note_on_c, 0, 79, 78
1, 8109, Note_on_c, 1, 54, 0
1, 8109, Note_on_c, 1, 50, 0
1, 8112, Note_on_c, 1, 54, 66
1, 8112, Note_on_c, 1, 50, 66
1, 8114, Note_on_c, 0, 79, 0
1, 8115, Note_on_c, 0, 81, 79
1, 8130, Note_on_c, 0, 81, 0
1, 8131, Note_on_c, 0, 78, 81
1, 8146, Note_on_c, 0, 78, 0
1, 8147, Note_on_c, 0, 72, 79
1, 8157, Note_on_c, 1, 54, 0
1, 8157, Note_on_c, 1, 50, 0
1, 8160, Note_on_c, 1, 55, 66
1, 8160, Note_on_c, 1, 50, 66
1, 8162, Note_on_c, 0, 72, 0
1, 8163, Note_on_c, 0, 70, 75
1, 8178, Note_on_c, 0, 70, 0
1, 8179, Note_on_c, 0, 75, 75
1, 8194, Note_on_c, 0, 75, 0
1, 8195, Note_on_c, 0, 74, 75
1, 8205, Note_on_c, 1, 55, 0
1, 8205, Note_on_c, 1, 50, 0
1, 8208, Note_on_c, 1, 58, 66
1, 8208, Note_on_c, 1, 50, 66
1, 8210, Note_on_c, 0, 74, 0
1, 8211, Note_on_c, 0, 75, 75
1, 8216, Note_on_c, 0, 75, 0
1, 8216, Note_on_c, 0, 74, 75
1, 8221, Note_on_c, 0, 74, 0
1, 8221, Note_on_c, 0, 75, 75
1, 8226, Note_on_c, 0, 75, 0
1, 8226, Note_on_c, 0, 74, 75
1, 8231, Note_on_c, 0, 74, 0
1, 8231, Note_on_c, 0, 75, 75
1, 8236, Note_on_c, 0, 75, 0
1, 8236, Note_on_c, 0, 74, 75
1, 8241, Note_on_c, 0, 74, 0
1, 8241, Note_on_c, 0, 75, 75
1, 8246, Note_on_c, 0, 75, 0
1, 8246, Note_on_c, 0, 74, 75
1, 8251, Note_on_c, 0, 74, 0
1, 8251, Note_on_c, 0, 75, 75
1, 8253, Note_on_c, 1, 58, 0
1, 8253, Note_on_c, 1, 50, 0
1, 8255, Note_on_c, 0, 75, 0
1, 8255, Note_on_c, 0, 74, 75
1, 8256, Note_on_c, 1, 54, 66
1, 8256, Note_on_c, 1, 50, 66
1, 8274, Note_on_c, 0, 74, 0
1, 8275, Note_on_c, 0, 78, 76
1, 8290, Note_on_c, 0, 78, 0
1, 8291, Note_on_c, 0, 79, 78
1, 8301, Note_on_c, 1, 54, 0
1, 8301, Note_on_c, 1, 50, 0
1, 8304, Note_on_c, 1, 54, 66
1, 8304, Note_on_c, 1, 50, 66
1, 8306, Note_on_c, 0, 79, 0
1, 8307, Note_on_c, 0, 81, 79
1, 8322, Note_on_c, 0, 81, 0
1, 8323, Note_on_c, 0, 78, 81
1, 8338, Note_on_c, 0, 78, 0
1, 8339, Note_on_c, 0, 72, 79
1, 8349, Note_on_c, 1, 54, 0
1, 8349, Note_on_c, 1, 50, 0
1, 8352, Note_on_c, 1, 55, 66
1, 8352, Note_on_c, 1, 43, 66
1, 8354, Note_on_c, 0, 72, 0
1, 8355, Note_on_c, 0, 70, 75
1, 8370, Note_on_c, 0, 70, 0
1, 8371, Note_on_c, 0, 79, 75
1, 8386, Note_on_c, 0, 79, 0
1, 8387, Note_on_c, 0, 74, 75
1, 8397, Note_on_c, 1, 55, 0
1, 8397, Note_on_c, 1, 43, 0
1, 8400, Note_on_c, 1, 60, 66
1, 8400, Note_on_c, 1, 48, 66
1, 8402, Note_on_c, 0, 74, 0
1, 8403, Note_on_c, 0, 75, 75
1, 8418, Note_on_c, 0, 75, 0
1, 8419, Note_on_c, 0, 72, 75
1, 8434, Note_on_c, 0, 72, 0
1, 8435, Note_on_c, 0, 69, 75
1, 8445, Note_on_c, 1, 60, 0
1, 8445, Note_on_c, 1, 48, 0
1, 8448, Note_on_c, 1, 58, 66
1, 8448, Note_on_c, 1, 50, 66
1, 8450, Note_on_c, 0, 69, 0
1, 8451, Note_on_c, 0, 67, 75
1, 8493, Note_on_c, 1, 58, 0
1, 8493, Note_on_c, 1, 50, 0
1, 8496, Note_on_c, 0, 67, 0
1, 8496, Note_on_c, 1, 57, 66
1, 8496, Note_on_c, 1, 50, 66
1, 8499, Note_on_c, 0, 66, 75
1, 8505, Note_on_c, 0, 66, 0
1, 8505, Note_on_c, 0, 67, 75
1, 8511, Note_on_c, 0, 67, 0
1, 8511, Note_on_c, 0, 66, 75
1, 8517, Note_on_c, 0, 66, 0
1, 8517, Note_on_c, 0, 67, 75
1, 8522, Note_on_c, 0, 67, 0
1, 8522, Note_on_c, 0, 66, 75
1, 8527, Note_on_c, 0, 66, 0
1, 8527, Note_on_c, 0, 67, 75
1, 8532, Note_on_c, 0, 67, 0
1, 8532, Note_on_c, 0, 66, 75
1, 8537, Note_on_c, 0, 66, 0
1, 8537, Note_on_c, 0, 64, 75
1, 8541, Note_on_c, 1, 57, 0
1, 8541, Note_on_c, 1, 50, 0
1, 8542, Note_on_c, 0, 64, 0
1, 8542, Note_on_c, 0, 66, 75
1, 8544, Note_on_c, 1, 50, 91
1, 8547, Note_on_c, 0, 66, 0
1, 8547, Note_on_c, 0, 74, 66
1, 8553, Note_on_c, 0, 74, 0
1, 8553, Note_on_c, 0, 75, 66
1, 8559, Note_on_c, 0, 75, 0
1, 8559, Note_on_c, 0, 74, 66
1, 8560, Note_on_c, 1, 50, 0
1, 8560, Note_on_c, 1, 60, 75
1, 8560, Note_on_c, 1, 57, 75
1, 8565, Note_on_c, 0, 74, 0
1, 8565, Note_on_c, 0, 75, 66
1, 8571, Note_on_c, 0, 75, 0
1, 8571, Note_on_c, 0, 74, 66
1, 8575, Note_on_c, 1, 60, 0
1, 8575, Note_on_c, 1, 57, 0
1, 8576, Note_on_c, 1, 60, 75
1, 8576, Note_on_c, 1, 57, 75
1, 8577, Note_on_c, 0, 74, 0
1, 8577, Note_on_c, 0, 75, 66
1, 8583, Note_on_c, 0, 75, 0
1, 8583, Note_on_c, 0, 74, 66
1, 8589, Note_on_c, 0, 74, 0
1, 8589, Note_on_c, 0, 75, 66
1, 8591, Note_on_c, 1, 60, 0
1, 8591, Note_on_c, 1, 57, 0
1, 8592, Note_on_c, 1, 60, 75
1, 8592, Note_on_c, 1, 57, 75
1, 8595, Note_on_c, 0, 75, 0
1, 8595, Note_on_c, 0, 74, 66
1, 8601, Note_on_c, 0, 74, 0
1, 8601, Note_on_c, 0, 75, 66
1, 8607, Note_on_c, 0, 75, 0
1, 8607, Note_on_c, 0, 74, 66
1, 8613, Note_on_c, 0, 74, 0
1, 8613, Note_on_c, 0, 75, 66
1, 8619, Note_on_c, 0, 75, 0
1, 8619, Note_on_c, 0, 74, 66
1, 8625, Note_on_c, 0, 74, 0
1, 8625, Note_on_c, 0, 75, 66
1, 8631, Note_on_c, 0, 75, 0
1, 8631, Note_on_c, 0, 74, 66
1, 8637, Note_on_c, 0, 74, 0
1, 8637, Note_on_c, 0, 75, 66
1, 8637, Note_on_c, 1, 60, 0
1, 8637, Note_on_c, 1, 57, 0
1, 8640, Note_on_c, 1, 50, 91
1, 8643, Note_on_c, 0, 75, 0
1, 8643, Note_on_c, 0, 74, 66
1, 8649, Note_on_c, 0, 74, 0
1, 8649, Note_on_c, 0, 75, 66
1, 8655, Note_on_c, 0, 75, 0
1, 8655, Note_on_c, 0, 74, 66
1, 8656, Note_on_c, 1, 50, 0
1, 8656, Note_on_c, 1, 60, 75
1, 8656, Note_on_c, 1, 57, 75
1, 8661, Note_on_c, 0, 74, 0
1, 8661, Note_on_c, 0, 75, 66
1, 8667, Note_on_c, 0, 75, 0
1, 8667, Note_on_c, 0, 74, 66
1, 8671, Note_on_c, 1, 60, 0
1, 8671, Note_on_c, 1, 57, 0
1, 8672, Note_on_c, 1, 60, 75
1, 8672, Note_on_c, 1, 57, 75
1, 8673, Note_on_c, 0, 74, 0
1, 8673, Note_on_c, 0, 75, 66
1, 8679, Note_on_c, 0, 75, 0
1, 8679, Note_on_c, 0, 74, 66
1, 8685, Note_on_c, 0, 74, 0
1, 8685, Note_on_c, 0, 75, 66
1, 8687, Note_on_c, 1, 60, 0
1, 8687, Note_on_c, 1, 57, 0
1, 8688, Note_on_c, 1, 60, 75
1, 8688, Note_on_c, 1, 57, 75
1, 8691, Note_on_c, 0, 75, 0
1, 8691, Note_on_c, 0, 74, 66
1, 8697, Note_on_c, 0, 74, 0
1, 8697, Note_on_c, 0, 75, 66
1, 8703, Note_on_c, 0, 75, 0
1, 8703, Note_on_c, 0, 74, 66
1, 8703, Note_on_c, 1, 60, 0
1, 8703, Note_on_c, 1, 57, 0
1, 8704, Note_on_c, 1, 58, 75
1, 8704, Note_on_c, 1, 55, 75
1, 8709, Note_on_c, 0, 74, 0
1, 8709, Note_on_c, 0, 75, 66
1, 8715, Note_on_c, 0, 75, 0
1, 8715, Note_on_c, 0, 74, 66
1, 8719, Note_on_c, 1, 58, 0
1, 8719, Note_on_c, 1, 55, 0
1, 8720, Note_on_c, 1, 57, 75
1, 8720, Note_on_c, 1, 54, 75
1, 8721, Note_on_c, 0, 74, 0
1, 8721, Note_on_c, 0, 75, 66
1, 8727, Note_on_c, 0, 75, 0
1, 8727, Note_on_c, 0, 74, 66
1, 8733, Note_on_c, 0, 74, 0
1, 8733, Note_on_c, 0, 75, 66
1, 8735, Note_on_c, 1, 57, 0
1, 8735, Note_on_c, 1, 54, 0
1, 8736, Note_on_c, 1, 50, 91
1, 8739, Note_on_c, 0, 75, 0
1, 8739, Note_on_c, 0, 74, 66
1, 8745, Note_on_c, 0, 74, 0
1, 8745, Note_on_c, 0, 75, 66
1, 8751, Note_on_c, 0, 75, 0
1, 8751, Note_on_c, 0, 74, 66
1, 8752, Note_on_c, 1, 50, 0
1, 8752, Note_on_c, 1, 58, 75
1, 8752, Note_on_c, 1, 55, 75
1, 8757, Note_on_c, 0, 74, 0
1, 8757, Note_on_c, 0, 75, 66
1, 8763, Note_on_c, 0, 75, 0
1, 8763, Note_on_c, 0, 74, 66
1, 8767, Note_on_c, 1, 58, 0
1, 8767, Note_on_c, 1, 55, 0
1, 8768, Note_on_c, 1, 58, 75
1, 8768, Note_on_c, 1, 55, 75
1, 8769, Note_on_c, 0, 74, 0
1, 8769, Note_on_c, 0, 75, 66
1, 8775, Note_on_c, 0, 75, 0
1, 8775, Note_on_c, 0, 74, 66
1, 8781, Note_on_c, 0, 74, 0
1, 8781, Note_on_c, 0, 75, 66
1, 8783, Note_on_c, 1, 58, 0
1, 8783, Note_on_c, 1, 55, 0
1, 8784, Note_on_c, 1, 58, 75
1, 8784, Note_on_c, 1, 55, 75
1, 8787, Note_on_c, 0, 75, 0
1, 8787, Note_on_c, 0, 74, 66
1, 8793, Note_on_c, 0, 74, 0
1, 8793, Note_on_c, 0, 75, 66
1, 8799, Note_on_c, 0, 75, 0
1, 8799, Note_on_c, 0, 74, 66
1, 8805, Note_on_c, 0, 74, 0
1, 8805, Note_on_c, 0, 75, 66
1, 8811, Note_on_c, 0, 75, 0
1, 8811, Note_on_c, 0, 74, 66
1, 8817, Note_on_c, 0, 74, 0
1, 8817, Note_on_c, 0, 75, 66
1, 8823, Note_on_c, 0, 75, 0
1, 8823, Note_on_c, 0, 74, 66
1, 8829, Note_on_c, 0, 74, 0
1, 8829, Note_on_c, 0, 75, 66
1, 8829, Note_on_c, 1, 58, 0
1, 8829, Note_on_c, 1, 55, 0
1, 8832, Note_on_c, 1, 50, 91
1, 8835, Note_on_c, 0, 75, 0
1, 8835, Note_on_c, 0, 74, 66
1, 8841, Note_on_c, 0, 74, 0
1, 8841, Note_on_c, 0, 75, 66
1, 8847, Note_on_c, 0, 75, 0
1, 8847, Note_on_c, 0, 74, 66
1, 8848, Note_on_c, 1, 50, 0
1, 8848, Note_on_c, 1, 62, 75
1, 8848, Note_on_c, 1, 58, 75
1, 8853, Note_on_c, 0, 74, 0
1, 8853, Note_on_c, 0, 75, 66
1, 8859, Note_on_c, 0, 75, 0
1, 8859, Note_on_c, 0, 74, 66
1, 8863, Note_on_c, 1, 62, 0
1, 8863, Note_on_c, 1, 58, 0
1, 8864, Note_on_c, 1, 62, 75
1, 8864, Note_on_c, 1, 58, 75
1, 8865, Note_on_c, 0, 74, 0
1, 8865, Note_on_c, 0, 75, 66
1, 8871, Note_on_c, 0, 75, 0
1, 8871, Note_on_c, 0, 74, 66
1, 8877, Note_on_c, 0, 74, 0
1, 8877, Note_on_c, 0, 75, 66
1, 8879, Note_on_c, 1, 62, 0
1, 8879, Note_on_c, 1, 58, 0
1, 8880, Note_on_c, 1, 62, 75
1, 8880, Note_on_c, 1, 58, 75
1, 8883, Note_on_c, 0, 75, 0
1, 8883, Note_on_c, 0, 74, 66
1, 8889, Note_on_c, 0, 74, 0
1, 8889, Note_on_c, 0, 75, 66
1, 8895, Note_on_c, 0, 75, 0
1, 8895, Note_on_c, 0, 74, 66
1, 8895, Note_on_c, 1, 62, 0
1, 8895, Note_on_c, 1, 58, 0
1, 8896, Note_on_c, 1, 60, 75
1, 8896, Note_on_c, 1, 57, 75
1, 8901, Note_on_c, 0, 74, 0
1, 8901, Note_on_c, 0, 75, 66
1, 8907, Note_on_c, 0, 75, 0
1, 8907, Note_on_c, 0, 74, 66
1, 8911, Note_on_c, 1, 60, 0
1, 8911, Note_on_c, 1, 57, 0
1, 8912, Note_on_c, 1, 58, 75
1, 8912, Note_on_c, 1, 55, 75
1, 8913, Note_on_c, 0, 74, 0
1, 8913, Note_on_c, 0, 75, 66
1, 8919, Note_on_c, 0, 75, 0
1, 8919, Note_on_c, 0, 74, 66
1, 8925, Note_on_c, 0, 74, 0
1, 8925, Note_on_c, 0, 75, 66
1, 8927, Note_on_c, 1, 58, 0
1, 8927, Note_on_c, 1, 55, 0
1, 8928, Note_on_c, 1, 50, 91
1, 8931, Note_on_c, 0, 75, 0
1, 8931, Note_on_c, 0, 74, 66
1, 8937, Note_on_c, 0, 74, 0
1, 8937, Note_on_c, 0, 75, 66
1, 8943, Note_on_c, 0, 75, 0
1, 8943, Note_on_c, 0, 74, 66
1, 8944, Note_on_c, 1, 50, 0
1, 8944, Note_on_c, 1, 60, 75
1, 8944, Note_on_c, 1, 57, 75
1, 8949, Note_on_c, 0, 74, 0
1, 8949, Note_on_c, 0, 75, 66
1, 8955, Note_on_c, 0, 75, 0
1, 8955, Note_on_c, 0, 74, 66
1, 8959, Note_on_c, 1, 60, 0
1, 8959, Note_on_c, 1, 57, 0
1, 8960, Note_on_c, 1, 60, 75
1, 8960, Note_on_c, 1, 57, 75
1, 8961, Note_on_c, 0, 74, 0
1, 8961, Note_on_c, 0, 75, 66
1, 8967, Note_on_c, 0, 75, 0
1, 8967, Note_on_c, 0, 74, 66
1, 8973, Note_on_c, 0, 74, 0
1, 8973, Note_on_c, 0, 75, 66
1, 8975, Note_on_c, 1, 60, 0
1, 8975, Note_on_c, 1, 57, 0
1, 8976, Note_on_c, 1, 60, 75
1, 8976, Note_on_c, 1, 57, 75
1, 8979, Note_on_c, 0, 75, 0
1, 8979, Note_on_c, 0, 74, 66
1, 8985, Note_on_c, 0, 74, 0
1, 8985, Note_on_c, 0, 75, 66
1, 8991, Note_on_c, 0, 75, 0
1, 8991, Note_on_c, 0, 74, 66
1, 8997, Note_on_c, 0, 74, 0
1, 8997, Note_on_c, 0, 75, 66
1, 9003, Note_on_c, 0, 75, 0
1, 9003, Note_on_c, 0, 74, 66
1, 9009, Note_on_c, 0, 74, 0
1, 9009, Note_on_c, 0, 75, 66
1, 9015, Note_on_c, 0, 75, 0
1, 9015, Note_on_c, 0, 74, 66
1, 9021, Note_on_c, 0, 74, 0
1, 9021, Note_on_c, 0, 75, 66
1, 9021, Note_on_c, 1, 60, 0
1, 9021, Note_on_c, 1, 57, 0
1, 9024, Note_on_c, 1, 50, 91
1, 9027, Note_on_c, 0, 75, 0
1, 9027, Note_on_c, 0, 74, 66
1, 9033, Note_on_c, 0, 74, 0
1, 9033, Note_on_c, 0, 75, 66
1, 9039, Note_on_c, 0, 75, 0
1, 9039, Note_on_c, 0, 74, 66
1, 9040, Note_on_c, 1, 50, 0
1, 9040, Note_on_c, 1, 60, 75
1, 9040, Note_on_c, 1, 57, 75
1, 9045, Note_on_c, 0, 74, 0
1, 9045, Note_on_c, 0, 75, 66
1, 9051, Note_on_c, 0, 75, 0
1, 9051, Note_on_c, 0, 74, 66
1, 9055, Note_on_c, 1, 60, 0
1, 9055, Note_on_c, 1, 57, 0
1, 9056, Note_on_c, 1, 60, 75
1, 9056, Note_on_c, 1, 57, 75
1, 9057, Note_on_c, 0, 74, 0
1, 9057, Note_on_c, 0, 75, 66
1, 9063, Note_on_c, 0, 75, 0
1, 9063, Note_on_c, 0, 74, 66
1, 9069, Note_on_c, 0, 74, 0
1, 9069, Note_on_c, 0, 75, 66
1, 9071, Note_on_c, 1, 60, 0
1, 9071, Note_on_c, 1, 57, 0
1, 9072, Note_on_c, 1, 60, 75
1, 9072, Note_on_c, 1, 57, 75
1, 9075, Note_on_c, 0, 75, 0
1, 9075, Note_on_c, 0, 74, 66
1, 9081, Note_on_c, 0, 74, 0
1, 9081, Note_on_c, 0, 75, 66
1, 9087, Note_on_c, 0, 75, 0
1, 9087, Note_on_c, 0, 74, 66
1, 9087, Note_on_c, 1, 60, 0
1, 9087, Note_on_c, 1, 57, 0
1, 9088, Note_on_c, 1, 58, 75
1, 9088, Note_on_c, 1, 55, 75
1, 9093, Note_on_c, 0, 74, 0
1, 9093, Note_on_c, 0, 75, 66
1, 9099, Note_on_c, 0, 75, 0
1, 9099, Note_on_c, 0, 74, 66
1, 9103, Note_on_c, 1, 58, 0
1, 9103, Note_on_c, 1, 55, 0
1, 9104, Note_on_c, 1, 57, 75
1, 9104, Note_on_c, 1, 54, 75
1, 9105, Note_on_c, 0, 74, 0
1, 9105, Note_on_c, 0, 75, 66
1, 9111, Note_on_c, 0, 75, 0
1, 9111, Note_on_c, 0, 74, 66
1, 9117, Note_on_c, 0, 74, 0
1, 9117, Note_on_c, 0, 75, 66
1, 9119, Note_on_c, 1, 57, 0
1, 9119, Note_on_c, 1, 54, 0
1, 9120, Note_on_c, 1, 58, 75
1, 9120, Note_on_c, 1, 55, 75
1, 9123, Note_on_c, 0, 75, 0
1, 9123, Note_on_c, 0, 74, 66
1, 9129, Note_on_c, 0, 74, 0
1, 9129, Note_on_c, 0, 75, 66
1, 9135, Note_on_c, 0, 75, 0
1, 9135, Note_on_c, 0, 74, 66
1, 9138, Note_on_c, 0, 74, 0
1, 9139, Note_on_c, 0, 82, 75
1, 9139, Note_on_c, 0, 79, 75
1, 9154, Note_on_c, 0, 82, 0
1, 9154, Note_on_c, 0, 79, 0
1, 9155, Note_on_c, 0, 82, 75
1, 9155, Note_on_c, 0, 79, 75
1, 9170, Note_on_c, 0, 82, 0
1, 9170, Note_on_c, 0, 79, 0
1, 9171, Note_on_c, 0, 82, 75
1, 9171, Note_on_c, 0, 79, 75
1, 9186, Note_on_c, 0, 82, 0
1, 9186, Note_on_c, 0, 79, 0
1, 9187, Note_on_c, 0, 79, 75
1, 9187, Note_on_c, 0, 70, 75
1, 9202, Note_on_c, 0, 79, 0
1, 9202, Note_on_c, 0, 70, 0
1, 9203, Note_on_c, 0, 79, 75
1, 9203, Note_on_c, 0, 70, 75
1, 9209, Note_on_c, 1, 58, 0
1, 9209, Note_on_c, 1, 55, 0
1, 9216, Note_on_c, 1, 60, 75
1, 9216, Note_on_c, 1, 48, 75
1, 9218, Note_on_c, 0, 79, 0
1, 9218, Note_on_c, 0, 70, 0
1, 9235, Note_on_c, 0, 75, 75
1, 9235, Note_on_c, 0, 72, 75
1, 9250, Note_on_c, 0, 75, 0
1, 9250, Note_on_c, 0, 72, 0
1, 9251, Note_on_c, 0, 75, 75
1, 9251, Note_on_c, 0, 72, 75
1, 9266, Note_on_c, 0, 75, 0
1, 9266, Note_on_c, 0, 72, 0
1, 9267, Note_on_c, 0, 75, 75
1, 9267, Note_on_c, 0, 72, 75
1, 9282, Note_on_c, 0, 75, 0
1, 9282, Note_on_c, 0, 72, 0
1, 9283, Note_on_c, 0, 72, 75
1, 9283, Note_on_c, 0, 69, 75
1, 9298, Note_on_c, 0, 72, 0
1, 9298, Note_on_c, 0, 69, 0
1, 9299, Note_on_c, 0, 72, 75
1, 9299, Note_on_c, 0, 69, 75
1, 9305, Note_on_c, 1, 60, 0
1, 9305, Note_on_c, 1, 48, 0
1, 9312, Note_on_c, 1, 55, 75
1, 9312, Note_on_c, 1, 50, 75
1, 9314, Note_on_c, 0, 72, 0
1, 9314, Note_on_c, 0, 69, 0
1, 9315, Note_on_c, 0, 70, 75
1, 9357, Note_on_c, 1, 55, 0
1, 9357, Note_on_c, 1, 50, 0
1, 9360, Note_on_c, 1, 55, 75
1, 9360, Note_on_c, 1, 50, 75
1, 9382, Note_on_c, 0, 70, 0
1, 9387, Note_on_c, 0, 69, 75
1, 9399, Note_on_c, 0, 69, 0
1, 9399, Note_on_c, 0, 67, 75
1, 9405, Note_on_c, 1, 55, 0
1, 9405, Note_on_c, 1, 50, 0
1, 9408, Note_on_c, 1, 54, 75
1, 9408, Note_on_c, 1, 50, 75
1, 9411, Note_on_c, 0, 67, 0
1, 9411, Note_on_c, 0, 70, 75
1, 9417, Note_on_c, 0, 70, 0
1, 9417, Note_on_c, 0, 69, 75
1, 9423, Note_on_c, 0, 69, 0
1, 9423, Note_on_c, 0, 70, 75
1, 9429, Note_on_c, 0, 70, 0
1, 9429, Note_on_c, 0, 69, 75
1, 9435, Note_on_c, 0, 69, 0
1, 9435, Note_on_c, 0, 70, 75
1, 9441, Note_on_c, 0, 70, 0
1, 9441, Note_on_c, 0, 69, 75
1, 9447, Note_on_c, 0, 69, 0
1, 9447, Note_on_c, 0, 70, 75
1, 9452, Note_on_c, 0, 70, 0
1, 9452, Note_on_c, 0, 69, 75
1, 9453, Note_on_c, 1, 54, 0
1, 9453, Note_on_c, 1, 50, 0
1, 9456, Note_on_c, 1, 54, 75
1, 9456, Note_on_c, 1, 50, 75
1, 9457, Note_on_c, 0, 69, 0
1, 9457, Note_on_c, 0, 70, 75
1, 9462, Note_on_c, 0, 70, 0
1, 9462, Note_on_c, 0, 69, 75
1, 9467, Note_on_c, 0, 69, 0
1, 9467, Note_on_c, 0, 70, 75
1, 9472, Note_on_c, 0, 70, 0
1, 9472, Note_on_c, 0, 69, 75
1, 9477, Note_on_c, 0, 69, 0
1, 9477, Note_on_c, 0, 70, 75
1, 9482, Note_on_c, 0, 70, 0
1, 9482, Note_on_c, 0, 69, 75
1, 9487, Note_on_c, 0, 69, 0
1, 9487, Note_on_c, 0, 67, 75
1, 9497, Note_on_c, 0, 67, 0
1, 9497, Note_on_c, 0, 69, 75
1, 9501, Note_on_c, 1, 54, 0
1, 9501, Note_on_c, 1, 50, 0
1, 9504, Note_on_c, 1, 55, 75
1, 9504, Note_on_c, 1, 43, 75
1, 9507, Note_on_c, 0, 69, 0
1, 9507, Note_on_c, 0, 67, 75
1, 9551, Note_on_c, 1, 55, 0
1, 9551, Note_on_c, 1, 43, 0
1, 9552, Note_on_c, 1, 58, 75
1, 9552, Note_on_c, 1, 51, 75
1, 9554, Note_on_c, 0, 67, 0
1, 9555, Note_on_c, 0, 67, 75
1, 9561, Note_on_c, 0, 67, 0
1, 9561, Note_on_c, 0, 69, 75
1, 9567, Note_on_c, 0, 69, 0
1, 9567, Note_on_c, 0, 67, 75
1, 9570, Note_on_c, 0, 67, 0
1, 9571, Note_on_c, 0, 66, 75
1, 9586, Note_on_c, 0, 66, 0
1, 9587, Note_on_c, 0, 67, 75
1, 9597, Note_on_c, 1, 58, 0
1, 9597, Note_on_c, 1, 51, 0
1, 9600, Note_on_c, 1, 58, 75
1, 9600, Note_on_c, 1, 50, 75
1, 9602, Note_on_c, 0, 67, 0
1, 9603, Tempo, 1538461
1, 9603, Note_on_c, 0, 67, 75
1, 9609, Note_on_c, 0, 67, 0
1, 9609, Note_on_c, 0, 69, 75
1, 9615, Note_on_c, 0, 69, 0
1, 9615, Note_on_c, 0, 67, 75
1, 9618, Note_on_c, 0, 67, 0
1, 9619, Note_on_c, 0, 66, 75
1, 9634, Note_on_c, 0, 66, 0
1, 9635, Note_on_c, 0, 67, 75
1, 9645, Note_on_c, 1, 58, 0
1, 9645, Note_on_c, 1, 50, 0
1, 9648, Note_on_c, 1, 58, 75
1, 9648, Note_on_c, 1, 49, 75
1, 9650, Note_on_c, 0, 67, 0
1, 9651, Tempo, 1666666
1, 9651, Note_on_c, 0, 67, 75
1, 9657, Note_on_c, 0, 67, 0
1, 9657, Note_on_c, 0, 69, 75
1, 9663, Note_on_c, 0, 69, 0
1, 9663, Note_on_c, 0, 67, 75
1, 9666, Note_on_c, 0, 67, 0
1, 9667, Note_on_c, 0, 66, 75
1, 9682, Note_on_c, 0, 66, 0
1, 9683, Note_on_c, 0, 67, 75
1, 9693, Note_on_c, 1, 58, 0
1, 9693, Note_on_c, 1, 49, 0
1, 9696, Note_on_c, 1, 58, 75
1, 9696, Note_on_c, 1, 50, 75
1, 9698, Note_on_c, 0, 67, 0
1, 9699, Tempo, 1333333
1, 9699, Note_on_c, 0, 67, 75
1, 9777, Note_on_c, 0, 67, 0
1, 9783, Note_on_c, 0, 62, 75
1, 9807, Note_on_c, 0, 62, 0
1, 9807, Note_on_c, 0, 64, 75
1, 9813, Note_on_c, 0, 64, 0
1, 9813, Note_on_c, 0, 66, 75
1, 9819, Note_on_c, 0, 66, 0
1, 9819, Note_on_c, 0, 67, 75
1, 9825, Note_on_c, 0, 67, 0
1, 9825, Note_on_c, 0, 69, 75
1, 9831, Note_on_c, 0, 69, 0
1, 9831, Note_on_c, 0, 70, 75
1, 9837, Note_on_c, 0, 70, 0
1, 9837, Note_on_c, 0, 72, 75
1, 9843, Note_on_c, 0, 72, 0
1, 9843, Note_on_c, 0, 74, 75
1, 9849, Note_on_c, 0, 74, 0
1, 9849, Note_on_c, 0, 76, 75
1, 9855, Note_on_c, 0, 76, 0
1, 9855, Note_on_c, 0, 78, 75
1, 9861, Note_on_c, 0, 78, 0
1, 9861, Note_on_c, 0, 79, 75
1, 9867, Note_on_c, 0, 79, 0
1, 9867, Note_on_c, 0, 81, 75
1, 9873, Note_on_c, 0, 81, 0
1, 9873, Note_on_c, 0, 82, 75
1, 9873, Note_on_c, 1, 58, 0
1, 9873, Note_on_c, 1, 50, 0
1, 9879, Note_on_c, 0, 82, 0
1, 9879, Note_on_c, 0, 84, 75
1, 9885, Note_on_c, 0, 84, 0
1, 9885, Note_on_c, 0, 86, 75
1, 9936, Note_on_c, 0, 86, 0
1, 9939, Note_on_c, 0, 84, 75
1, 9951, Note_on_c, 0, 84, 0
1, 9951, Note_on_c, 0, 82, 75
1, 9963, Note_on_c, 0, 82, 0
1, 9963, Note_on_c, 0, 81, 75
1, 9975, Note_on_c, 0, 81, 0
1, 9975, Note_on_c, 0, 79, 75
1, 9987, Note_on_c, 0, 79, 0
1, 9987, Note_on_c, 0, 82, 75
1, 9993, Note_on_c, 0, 82, 0
1, 9993, Note_on_c, 0, 81, 75
1, 9999, Note_on_c, 0, 81, 0
1, 9999, Note_on_c, 0, 82, 75
1, 10005, Note_on_c, 0, 82, 0
1, 10005, Note_on_c, 0, 81, 75
1, 10011, Note_on_c, 0, 81, 0
1, 10011, Note_on_c, 0, 82, 75
1, 10017, Note_on_c, 0, 82, 0
1, 10017, Note_on_c, 0, 81, 75
1, 10023, Note_on_c, 0, 81, 0
1, 10023, Note_on_c, 0, 82, 75
1, 10029, Note_on_c, 0, 82, 0
1, 10029, Note_on_c, 0, 81, 75
1, 10035, Note_on_c, 0, 81, 0
1, 10035, Note_on_c, 0, 82, 75
1, 10041, Note_on_c, 0, 82, 0
1, 10041, Note_on_c, 0, 81, 75
1, 10047, Note_on_c, 0, 81, 0
1, 10047, Note_on_c, 0, 82, 75
1, 10053, Note_on_c, 0, 82, 0
1, 10053, Note_on_c, 0, 81, 75
1, 10059, Note_on_c, 0, 81, 0
1, 10059, Note_on_c, 0, 82, 75
1, 10064, Note_on_c, 0, 82, 0
1, 10064, Note_on_c, 0, 81, 75
1, 10069, Note_on_c, 0, 81, 0
1, 10069, Note_on_c, 0, 82, 75
1, 10074, Note_on_c, 0, 82, 0
1, 10074, Note_on_c, 0, 81, 75
1, 10079, Note_on_c, 0, 81, 0
1, 10079, Note_on_c, 0, 82, 75
1, 10080, Note_on_c, 1, 54, 75
1, 10080, Note_on_c, 1, 50, 75
1, 10084, Note_on_c, 0, 82, 0
1, 10084, Note_on_c, 0, 81, 75
1, 10089, Note_on_c, 0, 81, 0
1, 10089, Note_on_c, 0, 82, 75
1, 10094, Note_on_c, 0, 82, 0
1, 10094, Note_on_c, 0, 81, 75
1, 10099, Note_on_c, 0, 81, 0
1, 10099, Note_on_c, 0, 82, 75
1, 10104, Note_on_c, 0, 82, 0
1, 10104, Note_on_c, 0, 81, 75
1, 10109, Note_on_c, 0, 81, 0
1, 10109, Note_on_c, 0, 82, 75
1, 10114, Note_on_c, 0, 82, 0
1, 10114, Note_on_c, 0, 81, 75
1, 10119, Note_on_c, 0, 81, 0
1, 10119, Note_on_c, 0, 82, 75
1, 10124, Note_on_c, 0, 82, 0
1, 10124, Note_on_c, 0, 81, 75
1, 10129, Note_on_c, 0, 81, 0
1, 10129, Note_on_c, 0, 82, 75
1, 10134, Note_on_c, 0, 82, 0
1, 10134, Note_on_c, 0, 81, 75
1, 10139, Note_on_c, 0, 81, 0
1, 10139, Note_on_c, 0, 82, 75
1, 10144, Note_on_c, 0, 82, 0
1, 10144, Note_on_c, 0, 81, 75
1, 10149, Note_on_c, 0, 81, 0
1, 10149, Note_on_c, 0, 82, 75
1, 10154, Note_on_c, 0, 82, 0
1, 10154, Note_on_c, 0, 81, 75
1, 10159, Note_on_c, 0, 81, 0
1, 10159, Note_on_c, 0, 79, 75
1, 10169, Note_on_c, 0, 79, 0
1, 10169, Note_on_c, 0, 81, 75
1, 10169, Note_on_c, 1, 54, 0
1, 10169, Note_on_c, 1, 50, 0
1, 10176, Note_on_c, 1, 55, 75
1, 10179, Note_on_c, 0, 81, 0
1, 10179, Note_on_c, 0, 79, 75
1, 10221, Note_on_c, 1, 55, 0
1, 10224, Note_on_c, 1, 50, 75
1, 10268, Note_on_c, 0, 79, 0
1, 10269, Note_on_c, 1, 50, 0
1, 10272, Note_on_c, 1, 43, 75
1, 10361, Note_on_c, 1, 43, 0
1, 10560, Note_on_c, 1, 43, 0
1, 10737, Note_on_c, 1, 43, 0
1, 10747, End_track
0, 0, End_of_file