0, 0, Header, 0, 1, 96
1, 0, Start_track
1, 0, Tempo, 375000
1, 144, Note_on_c, 0, 62, 77
1, 189, Note_on_c, 0, 62, 0
1, 192, Note_on_c, 0, 67, 77
1, 192, Note_on_c, 1, 59, 77
1, 192, Note_on_c, 1, 55, 77
1, 237, Note_on_c, 0, 67, 0
1, 240, Note_on_c, 0, 71, 79
1, 281, Note_on_c, 1, 59, 0
1, 281, Note_on_c, 1, 55, 0
1, 285, Note_on_c, 0, 71, 0
1, 288, Note_on_c, 0, 74, 81
1, 333, Note_on_c, 0, 74, 0
1, 336, Note_on_c, 0, 67, 83
1, 336, Note_on_c, 1, 62, 77
1, 336, Note_on_c, 1, 59, 77
1, 381, Note_on_c, 0, 67, 0
1, 381, Note_on_c, 1, 62, 0
1, 381, Note_on_c, 1, 59, 0
1, 384, Note_on_c, 0, 67, 101
1, 384, Note_on_c, 1, 60, 77
1, 384, Note_on_c, 1, 57, 77
1, 473, Note_on_c, 1, 60, 0
1, 473, Note_on_c, 1, 57, 0
1, 480, Note_on_c, 0, 67, 0
1, 480, Note_on_c, 0, 66, 81
1, 525, Note_on_c, 0, 66, 0
1, 528, Note_on_c, 0, 62, 79
1, 573, Note_on_c, 0, 62, 0
1, 576, Note_on_c, 0, 69, 77
1, 621, Note_on_c, 0, 69, 0
1, 624, Note_on_c, 0, 72, 79
1, 669, Note_on_c, 0, 72, 0
1, 672, Note_on_c, 0, 76, 81
1, 717, Note_on_c, 0, 76, 0
1, 720, Note_on_c, 0, 72, 83
1, 720, Note_on_c, 0, 69, 83
1, 720, Note_on_c, 1, 54, 77
1, 765, Note_on_c, 0, 72, 0
1, 765, Note_on_c, 0, 69, 0
1, 765, Note_on_c, 1, 54, 0
1, 768, Note_on_c, 0, 72, 101
1, 768, Note_on_c, 0, 69, 101
1, 768, Note_on_c, 1, 55, 77
1, 857, Note_on_c, 1, 55, 0
1, 864, Note_on_c, 0, 72, 0
1, 864, Note_on_c, 0, 69, 0
1, 864, Note_on_c, 0, 71, 77
1, 864, Note_on_c, 0, 67, 77
1, 864, Note_on_c, 1, 43, 77
1, 909, Note_on_c, 0, 71, 0
1, 909, Note_on_c, 0, 67, 0
1, 912, Note_on_c, 0, 71, 73
1, 953, Note_on_c, 1, 43, 0
1, 957, Note_on_c, 0, 71, 0
1, 960, Note_on_c, 0, 83, 69
1, 960, Note_on_c, 1, 67, 69
1, 1008, Note_on_c, 0, 83, 0
1, 1008, Note_on_c, 0, 79, 69
1, 1049, Note_on_c, 1, 67, 0
1, 1053, Note_on_c, 0, 79, 0
1, 1056, Note_on_c, 0, 75, 69
1, 1104, Note_on_c, 0, 75, 0
1, 1104, Note_on_c, 0, 76, 69
1, 1104, Note_on_c, 1, 67, 69
1, 1149, Note_on_c, 0, 76, 0
1, 1149, Note_on_c, 1, 67, 0
1, 1152, Note_on_c, 0, 81, 69
1, 1152, Note_on_c, 1, 66, 69
1, 1200, Note_on_c, 0, 81, 0
1, 1200, Note_on_c, 0, 78, 69
1, 1241, Note_on_c, 1, 66, 0
1, 1245, Note_on_c, 0, 78, 0
1, 1248, Note_on_c, 0, 73, 69
1, 1296, Note_on_c, 0, 73, 0
1, 1296, Note_on_c, 0, 74, 69
1, 1296, Note_on_c, 1, 66, 69
1, 1341, Note_on_c, 0, 74, 0
1, 1341, Note_on_c, 1, 66, 0
1, 1344, Note_on_c, 0, 76, 69
1, 1344, Note_on_c, 1, 67, 69
1, 1389, Note_on_c, 0, 76, 0
1, 1392, Note_on_c, 0, 79, 85
1, 1433, Note_on_c, 1, 67, 0
1, 1440, Note_on_c, 1, 69, 69
1, 1488, Note_on_c, 0, 79, 0
1, 1488, Note_on_c, 0, 73, 69
1, 1529, Note_on_c, 1, 69, 0
1, 1533, Note_on_c, 0, 73, 0
1, 1536, Note_on_c, 0, 76, 69
1, 1536, Note_on_c, 1, 62, 69
1, 1542, Note_on_c, 0, 76, 0
1, 1542, Note_on_c, 0, 74, 69
1, 1548, Note_on_c, 0, 74, 0
1, 1548, Note_on_c, 0, 73, 69
1, 1554, Note_on_c, 0, 73, 0
1, 1554, Note_on_c, 0, 74, 69
1, 1625, Note_on_c, 0, 74, 0
1, 1625, Note_on_c, 1, 62, 0
1, 1632, Note_on_c, 1, 50, 69
1, 1677, Note_on_c, 1, 50, 0
1, 1680, Note_on_c, 0, 62, 77
1, 1725, Note_on_c, 0, 62, 0
1, 1728, Note_on_c, 0, 67, 77
1, 1728, Note_on_c, 1, 59, 77
1, 1728, Note_on_c, 1, 55, 77
1, 1773, Note_on_c, 0, 67, 0
1, 1776, Note_on_c, 0, 71, 79
1, 1817, Note_on_c, 1, 59, 0
1, 1817, Note_on_c, 1, 55, 0
1, 1821, Note_on_c, 0, 71, 0
1, 1824, Note_on_c, 0, 74, 81
1, 1869, Note_on_c, 0, 74, 0
1, 1872, Note_on_c, 0, 67, 83
1, 1872, Note_on_c, 1, 62, 77
1, 1872, Note_on_c, 1, 59, 77
1, 1917, Note_on_c, 0, 67, 0
1, 1917, Note_on_c, 1, 62, 0
1, 1917, Note_on_c, 1, 59, 0
1, 1920, Note_on_c, 0, 67, 101
1, 1920, Note_on_c, 1, 60, 77
1, 1920, Note_on_c, 1, 57, 77
1, 2009, Note_on_c, 1, 60, 0
1, 2009, Note_on_c, 1, 57, 0
1, 2016, Note_on_c, 0, 67, 0
1, 2016, Note_on_c, 0, 66, 81
1, 2061, Note_on_c, 0, 66, 0
1, 2064, Note_on_c, 0, 62, 79
1, 2109, Note_on_c, 0, 62, 0
1, 2112, Note_on_c, 0, 69, 77
1, 2157, Note_on_c, 0, 69, 0
1, 2160, Note_on_c, 0, 72, 79
1, 2205, Note_on_c, 0, 72, 0
1, 2208, Note_on_c, 0, 76, 81
1, 2253, Note_on_c, 0, 76, 0
1, 2256, Note_on_c, 0, 72, 83
1, 2256, Note_on_c, 0, 69, 83
1, 2256, Note_on_c, 1, 54, 77
1, 2301, Note_on_c, 0, 72, 0
1, 2301, Note_on_c, 0, 69, 0
1, 2301, Note_on_c, 1, 54, 0
1, 2304, Note_on_c, 0, 72, 101
1, 2304, Note_on_c, 0, 69, 101
1, 2304, Note_on_c, 1, 55, 77
1, 2393, Note_on_c, 1, 55, 0
1, 2400, Note_on_c, 0, 72, 0
1, 2400, Note_on_c, 0, 69, 0
1, 2400, Note_on_c, 0, 71, 77
1, 2400, Note_on_c, 0, 67, 77
1, 2400, Note_on_c, 1, 43, 77
1, 2445, Note_on_c, 0, 71, 0
1, 2445, Note_on_c, 0, 67, 0
1, 2448, Note_on_c, 0, 71, 73
1, 2489, Note_on_c, 1, 43, 0
1, 2493, Note_on_c, 0, 71, 0
1, 2496, Note_on_c, 0, 83, 69
1, 2496, Note_on_c, 1, 67, 69
1, 2544, Note_on_c, 0, 83, 0
1, 2544, Note_on_c, 0, 79, 69
1, 2585, Note_on_c, 1, 67, 0
1, 2589, Note_on_c, 0, 79, 0
1, 2592, Note_on_c, 0, 75, 69
1, 2640, Note_on_c, 0, 75, 0
1, 2640, Note_on_c, 0, 76, 69
1, 2640, Note_on_c, 1, 67, 69
1, 2685, Note_on_c, 0, 76, 0
1, 2685, Note_on_c, 1, 67, 0
1, 2688, Note_on_c, 0, 81, 69
1, 2688, Note_on_c, 1, 66, 69
1, 2736, Note_on_c, 0, 81, 0
1, 2736, Note_on_c, 0, 78, 69
1, 2777, Note_on_c, 1, 66, 0
1, 2781, Note_on_c, 0, 78, 0
1, 2784, Note_on_c, 0, 73, 69
1, 2832, Note_on_c, 0, 73, 0
1, 2832, Note_on_c, 0, 74, 69
1, 2832, Note_on_c, 1, 66, 69
1, 2877, Note_on_c, 0, 74, 0
1, 2877, Note_on_c, 1, 66, 0
1, 2880, Note_on_c, 0, 76, 69
1, 2880, Note_on_c, 1, 67, 69
1, 2925, Note_on_c, 0, 76, 0
1, 2928, Note_on_c, 0, 79, 85
1, 2969, Note_on_c, 1, 67, 0
1, 2976, Note_on_c, 1, 69, 69
1, 3024, Note_on_c, 0, 79, 0
1, 3024, Note_on_c, 0, 73, 69
1, 3065, Note_on_c, 1, 69, 0
1, 3069, Note_on_c, 0, 73, 0
1, 3072, Note_on_c, 0, 76, 69
1, 3072, Note_on_c, 1, 62, 69
1, 3078, Note_on_c, 0, 76, 0
1, 3078, Note_on_c, 0, 74, 69
1, 3084, Note_on_c, 0, 74, 0
1, 3084, Note_on_c, 0, 73, 69
1, 3090, Note_on_c, 0, 73, 0
1, 3090, Note_on_c, 0, 74, 69
1, 3161, Note_on_c, 0, 74, 0
1, 3161, Note_on_c, 1, 62, 0
1, 3168, Note_on_c, 1, 50, 69
1, 3213, Note_on_c, 1, 50, 0
1, 3216, Note_on_c, 0, 62, 77
1, 3261, Note_on_c, 0, 62, 0
1, 3264, Note_on_c, 0, 74, 77
1, 3309, Note_on_c, 0, 74, 0
1, 3312, Note_on_c, 0, 71, 77
1, 3357, Note_on_c, 0, 71, 0
1, 3360, Note_on_c, 0, 68, 77
1, 3405, Note_on_c, 0, 68, 0
1, 3408, Note_on_c, 0, 64, 77
1, 3453, Note_on_c, 0, 64, 0
1, 3456, Note_on_c, 0, 62, 77
1, 3504, Note_on_c, 1, 56, 77
1, 3549, Note_on_c, 1, 56, 0
1, 3552, Note_on_c, 0, 62, 0
1, 3552, Note_on_c, 0, 61, 77
1, 3552, Note_on_c, 1, 57, 77
1, 3597, Note_on_c, 0, 61, 0
1, 3597, Note_on_c, 1, 57, 0
1, 3600, Note_on_c, 0, 60, 77
1, 3600, Note_on_c, 1, 45, 77
1, 3645, Note_on_c, 0, 60, 0
1, 3645, Note_on_c, 1, 45, 0
1, 3648, Note_on_c, 0, 72, 77
1, 3693, Note_on_c, 0, 72, 0
1, 3696, Note_on_c, 0, 69, 77
1, 3741, Note_on_c, 0, 69, 0
1, 3744, Note_on_c, 0, 66, 77
1, 3789, Note_on_c, 0, 66, 0
1, 3792, Note_on_c, 0, 62, 77
1, 3837, Note_on_c, 0, 62, 0
1, 3840, Note_on_c, 0, 60, 77
1, 3888, Note_on_c, 1, 54, 77
1, 3933, Note_on_c, 1, 54, 0
1, 3936, Note_on_c, 0, 60, 0
1, 3936, Note_on_c, 0, 59, 77
1, 3936, Note_on_c, 1, 55, 77
1, 3981, Note_on_c, 0, 59, 0
1, 3981, Note_on_c, 1, 55, 0
1, 3984, Note_on_c, 0, 62, 77
1, 3984, Note_on_c, 1, 47, 77
1, 4029, Note_on_c, 0, 62, 0
1, 4029, Note_on_c, 1, 47, 0
1, 4032, Note_on_c, 0, 64, 77
1, 4032, Note_on_c, 1, 48, 77
1, 4080, Note_on_c, 0, 64, 0
1, 4080, Note_on_c, 0, 68, 77
1, 4121, Note_on_c, 1, 48, 0
1, 4125, Note_on_c, 0, 68, 0
1, 4128, Note_on_c, 0, 69, 78
1, 4176, Note_on_c, 0, 69, 0
1, 4176, Note_on_c, 0, 67, 78
1, 4176, Note_on_c, 1, 61, 78
1, 4221, Note_on_c, 0, 67, 0
1, 4221, Note_on_c, 1, 61, 0
1, 4224, Note_on_c, 0, 66, 79
1, 4224, Note_on_c, 1, 62, 79
1, 4272, Note_on_c, 0, 66, 0
1, 4272, Note_on_c, 0, 70, 79
1, 4313, Note_on_c, 1, 62, 0
1, 4317, Note_on_c, 0, 70, 0
1, 4320, Note_on_c, 0, 71, 80
1, 4368, Note_on_c, 0, 71, 0
1, 4368, Note_on_c, 0, 69, 81
1, 4368, Note_on_c, 1, 63, 81
1, 4413, Note_on_c, 0, 69, 0
1, 4413, Note_on_c, 1, 63, 0
1, 4416, Note_on_c, 0, 67, 81
1, 4416, Note_on_c, 1, 64, 81
1, 4461, Note_on_c, 0, 67, 0
1, 4461, Note_on_c, 1, 64, 0
1, 4464, Note_on_c, 0, 74, 82
1, 4464, Note_on_c, 1, 66, 82
1, 4509, Note_on_c, 0, 74, 0
1, 4509, Note_on_c, 1, 66, 0
1, 4512, Note_on_c, 0, 72, 82
1, 4512, Note_on_c, 1, 67, 82
1, 4557, Note_on_c, 0, 72, 0
1, 4560, Note_on_c, 0, 71, 83
1, 4560, Note_on_c, 1, 61, 83
1, 4601, Note_on_c, 1, 67, 0
1, 4605, Note_on_c, 0, 71, 0
1, 4605, Note_on_c, 1, 61, 0
1, 4608, Note_on_c, 0, 71, 99
1, 4608, Note_on_c, 1, 67, 83
1, 4608, Note_on_c, 1, 62, 83
1, 4704, Note_on_c, 0, 71, 0
1, 4704, Note_on_c, 0, 69, 85
1, 4704, Note_on_c, 1, 67, 0
1, 4704, Note_on_c, 1, 66, 85
1, 4749, Note_on_c, 0, 69, 0
1, 4749, Note_on_c, 1, 66, 0
1, 4749, Note_on_c, 1, 62, 0
1, 4752, Note_on_c, 0, 62, 77
1, 4797, Note_on_c, 0, 62, 0
1, 4800, Note_on_c, 0, 67, 77
1, 4800, Note_on_c, 1, 59, 77
1, 4800, Note_on_c, 1, 55, 77
1, 4845, Note_on_c, 0, 67, 0
1, 4848, Note_on_c, 0, 71, 79
1, 4889, Note_on_c, 1, 59, 0
1, 4889, Note_on_c, 1, 55, 0
1, 4893, Note_on_c, 0, 71, 0
1, 4896, Note_on_c, 0, 74, 81
1, 4941, Note_on_c, 0, 74, 0
1, 4944, Note_on_c, 0, 67, 83
1, 4944, Note_on_c, 1, 62, 77
1, 4944, Note_on_c, 1, 59, 77
1, 4989, Note_on_c, 0, 67, 0
1, 4989, Note_on_c, 1, 62, 0
1, 4989, Note_on_c, 1, 59, 0
1, 4992, Note_on_c, 0, 67, 101
1, 4992, Note_on_c, 1, 60, 77
1, 4992, Note_on_c, 1, 57, 77
1, 5081, Note_on_c, 1, 60, 0
1, 5081, Note_on_c, 1, 57, 0
1, 5088, Note_on_c, 0, 67, 0
1, 5088, Note_on_c, 0, 66, 81
1, 5133, Note_on_c, 0, 66, 0
1, 5136, Note_on_c, 0, 62, 79
1, 5181, Note_on_c, 0, 62, 0
1, 5184, Note_on_c, 0, 69, 77
1, 5229, Note_on_c, 0, 69, 0
1, 5232, Note_on_c, 0, 72, 79
1, 5277, Note_on_c, 0, 72, 0
1, 5280, Note_on_c, 0, 76, 81
1, 5325, Note_on_c, 0, 76, 0
1, 5328, Note_on_c, 0, 72, 83
1, 5328, Note_on_c, 0, 69, 83
1, 5328, Note_on_c, 1, 54, 77
1, 5373, Note_on_c, 0, 72, 0
1, 5373, Note_on_c, 0, 69, 0
1, 5373, Note_on_c, 1, 54, 0
1, 5376, Note_on_c, 0, 72, 101
1, 5376, Note_on_c, 0, 69, 101
1, 5376, Note_on_c, 1, 55, 77
1, 5465, Note_on_c, 1, 55, 0
1, 5472, Note_on_c, 0, 72, 0
1, 5472, Note_on_c, 0, 69, 0
1, 5472, Note_on_c, 0, 71, 81
1, 5472, Note_on_c, 0, 67, 81
1, 5472, Note_on_c, 1, 43, 77
1, 5517, Note_on_c, 0, 71, 0
1, 5517, Note_on_c, 0, 67, 0
1, 5520, Note_on_c, 0, 67, 79
1, 5561, Note_on_c, 1, 43, 0
1, 5565, Note_on_c, 0, 67, 0
1, 5568, Note_on_c, 0, 72, 77
1, 5613, Note_on_c, 0, 72, 0
1, 5616, Note_on_c, 0, 76, 77
1, 5661, Note_on_c, 0, 76, 0
1, 5664, Note_on_c, 0, 79, 77
1, 5709, Note_on_c, 0, 79, 0
1, 5712, Note_on_c, 0, 76, 77
1, 5712, Note_on_c, 1, 60, 77
1, 5757, Note_on_c, 0, 76, 0
1, 5757, Note_on_c, 1, 60, 0
1, 5760, Note_on_c, 0, 73, 77
1, 5760, Note_on_c, 1, 59, 77
1, 5805, Note_on_c, 0, 73, 0
1, 5808, Note_on_c, 0, 74, 79
1, 5849, Note_on_c, 1, 59, 0
1, 5853, Note_on_c, 0, 74, 0
1, 5856, Note_on_c, 0, 79, 81
1, 5901, Note_on_c, 0, 79, 0
1, 5904, Note_on_c, 0, 83, 83
1, 5904, Note_on_c, 1, 55, 77
1, 5949, Note_on_c, 0, 83, 0
1, 5949, Note_on_c, 1, 55, 0
1, 5952, Note_on_c, 0, 75, 85
1, 5952, Note_on_c, 1, 60, 77
1, 6000, Note_on_c, 0, 75, 0
1, 6000, Note_on_c, 0, 76, 83
1, 6041, Note_on_c, 1, 60, 0
1, 6045, Note_on_c, 0, 76, 0
1, 6048, Note_on_c, 0, 84, 81
1, 6093, Note_on_c, 0, 84, 0
1, 6096, Note_on_c, 0, 78, 79
1, 6096, Note_on_c, 0, 72, 79
1, 6096, Note_on_c, 1, 50, 77
1, 6141, Note_on_c, 0, 78, 0
1, 6141, Note_on_c, 0, 72, 0
1, 6141, Note_on_c, 1, 50, 0
1, 6144, Note_on_c, 0, 79, 77
1, 6144, Note_on_c, 0, 71, 77
1, 6144, Note_on_c, 1, 55, 77
1, 6233, Note_on_c, 0, 79, 0
1, 6233, Note_on_c, 0, 71, 0
1, 6233, Note_on_c, 1, 55, 0
1, 6240, Note_on_c, 1, 43, 77
1, 6285, Note_on_c, 1, 43, 0
1, 6288, Note_on_c, 0, 62, 77
1, 6333, Note_on_c, 0, 62, 0
1, 6336, Note_on_c, 0, 74, 77
1, 6381, Note_on_c, 0, 74, 0
1, 6384, Note_on_c, 0, 71, 77
1, 6429, Note_on_c, 0, 71, 0
1, 6432, Note_on_c, 0, 68, 77
1, 6477, Note_on_c, 0, 68, 0
1, 6480, Note_on_c, 0, 64, 77
1, 6525, Note_on_c, 0, 64, 0
1, 6528, Note_on_c, 0, 62, 77
1, 6576, Note_on_c, 1, 56, 77
1, 6621, Note_on_c, 1, 56, 0
1, 6624, Note_on_c, 0, 62, 0
1, 6624, Note_on_c, 0, 61, 77
1, 6624, Note_on_c, 1, 57, 77
1, 6669, Note_on_c, 0, 61, 0
1, 6669, Note_on_c, 1, 57, 0
1, 6672, Note_on_c, 0, 60, 77
1, 6672, Note_on_c, 1, 45, 77
1, 6717, Note_on_c, 0, 60, 0
1, 6717, Note_on_c, 1, 45, 0
1, 6720, Note_on_c, 0, 72, 77
1, 6765, Note_on_c, 0, 72, 0
1, 6768, Note_on_c, 0, 69, 77
1, 6813, Note_on_c, 0, 69, 0
1, 6816, Note_on_c, 0, 66, 77
1, 6861, Note_on_c, 0, 66, 0
1, 6864, Note_on_c, 0, 62, 77
1, 6909, Note_on_c, 0, 62, 0
1, 6912, Note_on_c, 0, 60, 77
1, 6960, Note_on_c, 1, 54, 77
1, 7005, Note_on_c, 1, 54, 0
1, 7008, Note_on_c, 0, 60, 0
1, 7008, Note_on_c, 0, 59, 77
1, 7008, Note_on_c, 1, 55, 77
1, 7053, Note_on_c, 0, 59, 0
1, 7053, Note_on_c, 1, 55, 0
1, 7056, Note_on_c, 0, 62, 77
1, 7056, Note_on_c, 1, 47, 77
1, 7101, Note_on_c, 0, 62, 0
1, 7101, Note_on_c, 1, 47, 0
1, 7104, Note_on_c, 0, 64, 77
1, 7104, Note_on_c, 1, 48, 77
1, 7152, Note_on_c, 0, 64, 0
1, 7152, Note_on_c, 0, 68, 77
1, 7193, Note_on_c, 1, 48, 0
1, 7197, Note_on_c, 0, 68, 0
1, 7200, Note_on_c, 0, 69, 78
1, 7248, Note_on_c, 0, 69, 0
1, 7248, Note_on_c, 0, 67, 78
1, 7248, Note_on_c, 1, 61, 78
1, 7293, Note_on_c, 0, 67, 0
1, 7293, Note_on_c, 1, 61, 0
1, 7296, Note_on_c, 0, 66, 79
1, 7296, Note_on_c, 1, 62, 79
1, 7344, Note_on_c, 0, 66, 0
1, 7344, Note_on_c, 0, 70, 79
1, 7385, Note_on_c, 1, 62, 0
1, 7389, Note_on_c, 0, 70, 0
1, 7392, Note_on_c, 0, 71, 80
1, 7440, Note_on_c, 0, 71, 0
1, 7440, Note_on_c, 0, 69, 81
1, 7440, Note_on_c, 1, 63, 81
1, 7485, Note_on_c, 0, 69, 0
1, 7485, Note_on_c, 1, 63, 0
1, 7488, Note_on_c, 0, 67, 81
1, 7488, Note_on_c, 1, 64, 81
1, 7533, Note_on_c, 0, 67, 0
1, 7533, Note_on_c, 1, 64, 0
1, 7536, Note_on_c, 0, 74, 82
1, 7536, Note_on_c, 1, 66, 82
1, 7581, Note_on_c, 0, 74, 0
1, 7581, Note_on_c, 1, 66, 0
1, 7584, Note_on_c, 0, 72, 82
1, 7584, Note_on_c, 1, 67, 82
1, 7629, Note_on_c, 0, 72, 0
1, 7632, Note_on_c, 0, 71, 83
1, 7632, Note_on_c, 1, 61, 83
1, 7673, Note_on_c, 1, 67, 0
1, 7677, Note_on_c, 0, 71, 0
1, 7677, Note_on_c, 1, 61, 0
1, 7680, Note_on_c, 0, 71, 99
1, 7680, Note_on_c, 1, 67, 83
1, 7680, Note_on_c, 1, 62, 83
1, 7776, Note_on_c, 0, 71, 0
1, 7776, Note_on_c, 0, 69, 85
1, 7776, Note_on_c, 1, 67, 0
1, 7776, Note_on_c, 1, 66, 85
1, 7821, Note_on_c, 0, 69, 0
1, 7821, Note_on_c, 1, 66, 0
1, 7821, Note_on_c, 1, 62, 0
1, 7824, Note_on_c, 0, 62, 77
1, 7869, Note_on_c, 0, 62, 0
1, 7872, Note_on_c, 0, 67, 77
1, 7872, Note_on_c, 1, 59, 77
1, 7872, Note_on_c, 1, 55, 77
1, 7917, Note_on_c, 0, 67, 0
1, 7920, Note_on_c, 0, 71, 79
1, 7961, Note_on_c, 1, 59, 0
1, 7961, Note_on_c, 1, 55, 0
1, 7965, Note_on_c, 0, 71, 0
1, 7968, Note_on_c, 0, 74, 81
1, 8013, Note_on_c, 0, 74, 0
1, 8016, Note_on_c, 0, 67, 83
1, 8016, Note_on_c, 1, 62, 77
1, 8016, Note_on_c, 1, 59, 77
1, 8061, Note_on_c, 0, 67, 0
1, 8061, Note_on_c, 1, 62, 0
1, 8061, Note_on_c, 1, 59, 0
1, 8064, Note_on_c, 0, 67, 101
1, 8064, Note_on_c, 1, 60, 77
1, 8064, Note_on_c, 1, 57, 77
1, 8153, Note_on_c, 1, 60, 0
1, 8153, Note_on_c, 1, 57, 0
1, 8160, Note_on_c, 0, 67, 0
1, 8160, Note_on_c, 0, 66, 81
1, 8205, Note_on_c, 0, 66, 0
1, 8208, Note_on_c, 0, 62, 79
1, 8253, Note_on_c, 0, 62, 0
1, 8256, Note_on_c, 0, 69, 77
1, 8301, Note_on_c, 0, 69, 0
1, 8304, Note_on_c, 0, 72, 79
1, 8349, Note_on_c, 0, 72, 0
1, 8352, Note_on_c, 0, 76, 81
1, 8397, Note_on_c, 0, 76, 0
1, 8400, Note_on_c, 0, 72, 83
1, 8400, Note_on_c, 0, 69, 83
1, 8400, Note_on_c, 1, 54, 77
1, 8445, Note_on_c, 0, 72, 0
1, 8445, Note_on_c, 0, 69, 0
1, 8445, Note_on_c, 1, 54, 0
1, 8448, Note_on_c, 0, 72, 101
1, 8448, Note_on_c, 0, 69, 101
1, 8448, Note_on_c, 1, 55, 77
1, 8537, Note_on_c, 1, 55, 0
1, 8544, Note_on_c, 0, 72, 0
1, 8544, Note_on_c, 0, 69, 0
1, 8544, Note_on_c, 0, 71, 81
1, 8544, Note_on_c, 0, 67, 81
1, 8544, Note_on_c, 1, 43, 77
1, 8589, Note_on_c, 0, 71, 0
1, 8589, Note_on_c, 0, 67, 0
1, 8592, Note_on_c, 0, 67, 79
1, 8633, Note_on_c, 1, 43, 0
1, 8637, Note_on_c, 0, 67, 0
1, 8640, Note_on_c, 0, 72, 77
1, 8685, Note_on_c, 0, 72, 0
1, 8688, Note_on_c, 0, 76, 77
1, 8733, Note_on_c, 0, 76, 0
1, 8736, Note_on_c, 0, 79, 77
1, 8781, Note_on_c, 0, 79, 0
1, 8784, Note_on_c, 0, 76, 77
1, 8784, Note_on_c, 1, 60, 77
1, 8829, Note_on_c, 0, 76, 0
1, 8829, Note_on_c, 1, 60, 0
1, 8832, Note_on_c, 0, 73, 77
1, 8832, Note_on_c, 1, 59, 77
1, 8877, Note_on_c, 0, 73, 0
1, 8880, Note_on_c, 0, 74, 79
1, 8921, Note_on_c, 1, 59, 0
1, 8925, Note_on_c, 0, 74, 0
1, 8928, Note_on_c, 0, 79, 81
1, 8973, Note_on_c, 0, 79, 0
1, 8976, Note_on_c, 0, 83, 83
1, 8976, Note_on_c, 1, 55, 77
1, 9021, Note_on_c, 0, 83, 0
1, 9021, Note_on_c, 1, 55, 0
1, 9024, Note_on_c, 0, 75, 85
1, 9024, Note_on_c, 1, 60, 77
1, 9072, Note_on_c, 0, 75, 0
1, 9072, Note_on_c, 0, 76, 83
1, 9113, Note_on_c, 1, 60, 0
1, 9117, Note_on_c, 0, 76, 0
1, 9120, Note_on_c, 0, 84, 81
1, 9165, Note_on_c, 0, 84, 0
1, 9168, Note_on_c, 0, 78, 79
1, 9168, Note_on_c, 0, 72, 79
1, 9168, Note_on_c, 1, 50, 77
1, 9213, Note_on_c, 0, 78, 0
1, 9213, Note_on_c, 0, 72, 0
1, 9213, Note_on_c, 1, 50, 0
1, 9216, Note_on_c, 0, 79, 77
1, 9216, Note_on_c, 0, 71, 77
1, 9216, Note_on_c, 1, 55, 77
1, 9305, Note_on_c, 0, 79, 0
1, 9305, Note_on_c, 0, 71, 0
1, 9305, Note_on_c, 1, 55, 0
1, 9312, Note_on_c, 1, 43, 77
1, 9357, Note_on_c, 1, 43, 0
1, 9360, Note_on_c, 0, 62, 77
1, 9405, Note_on_c, 0, 62, 0
1, 9408, Note_on_c, 0, 67, 77
1, 9408, Note_on_c, 1, 59, 77
1, 9408, Note_on_c, 1, 55, 77
1, 9431, Note_on_c, 0, 67, 0
1, 9432, Note_on_c, 0, 62, 79
1, 9455, Note_on_c, 0, 62, 0
1, 9456, Note_on_c, 0, 71, 81
1, 9479, Note_on_c, 0, 71, 0
1, 9480, Note_on_c, 0, 67, 83
1, 9497, Note_on_c, 1, 59, 0
1, 9497, Note_on_c, 1, 55, 0
1, 9503, Note_on_c, 0, 67, 0
1, 9504, Note_on_c, 0, 74, 85
1, 9549, Note_on_c, 0, 74, 0
1, 9552, Note_on_c, 0, 67, 83
1, 9552, Note_on_c, 1, 62, 77
1, 9552, Note_on_c, 1, 59, 77
1, 9597, Note_on_c, 0, 67, 0
1, 9597, Note_on_c, 1, 62, 0
1, 9597, Note_on_c, 1, 59, 0
1, 9600, Note_on_c, 0, 67, 97
1, 9600, Note_on_c, 1, 60, 77
1, 9600, Note_on_c, 1, 57, 77
1, 9689, Note_on_c, 1, 60, 0
1, 9689, Note_on_c, 1, 57, 0
1, 9696, Note_on_c, 0, 67, 0
1, 9696, Note_on_c, 0, 66, 78
1, 9741, Note_on_c, 0, 66, 0
1, 9744, Note_on_c, 0, 69, 77
1, 9789, Note_on_c, 0, 69, 0
1, 9792, Note_on_c, 0, 72, 77
1, 9837, Note_on_c, 0, 72, 0
1, 9840, Note_on_c, 0, 76, 77
1, 9840, Note_on_c, 0, 72, 77
1, 9885, Note_on_c, 0, 76, 0
1, 9885, Note_on_c, 0, 72, 0
1, 9888, Note_on_c, 0, 74, 79
1, 9888, Note_on_c, 0, 71, 79
1, 9933, Note_on_c, 0, 74, 0
1, 9933, Note_on_c, 0, 71, 0
1, 9936, Note_on_c, 0, 72, 82
1, 9936, Note_on_c, 0, 69, 82
1, 9936, Note_on_c, 1, 54, 77
1, 9981, Note_on_c, 0, 72, 0
1, 9981, Note_on_c, 0, 69, 0
1, 9981, Note_on_c, 1, 54, 0
1, 9984, Note_on_c, 0, 72, 101
1, 9984, Note_on_c, 0, 69, 101
1, 9984, Note_on_c, 1, 55, 77
1, 10073, Note_on_c, 1, 55, 0
1, 10080, Note_on_c, 0, 72, 0
1, 10080, Note_on_c, 0, 69, 0
1, 10080, Note_on_c, 0, 71, 79
1, 10080, Note_on_c, 0, 67, 79
1, 10080, Note_on_c, 1, 43, 77
1, 10125, Note_on_c, 0, 71, 0
1, 10125, Note_on_c, 0, 67, 0
1, 10128, Note_on_c, 0, 71, 69
1, 10169, Note_on_c, 1, 43, 0
1, 10173, Note_on_c, 0, 71, 0
1, 10176, Note_on_c, 0, 83, 69
1, 10176, Note_on_c, 1, 67, 69
1, 10199, Note_on_c, 0, 83, 0
1, 10200, Note_on_c, 0, 79, 69
1, 10223, Note_on_c, 0, 79, 0
1, 10224, Note_on_c, 0, 78, 69
1, 10247, Note_on_c, 0, 78, 0
1, 10248, Note_on_c, 0, 76, 69
1, 10265, Note_on_c, 1, 67, 0
1, 10271, Note_on_c, 0, 76, 0
1, 10272, Note_on_c, 0, 75, 69
1, 10295, Note_on_c, 0, 75, 0
1, 10296, Note_on_c, 0, 76, 69
1, 10319, Note_on_c, 0, 76, 0
1, 10320, Note_on_c, 0, 75, 69
1, 10343, Note_on_c, 0, 75, 0
1, 10344, Note_on_c, 0, 76, 69
1, 10367, Note_on_c, 0, 76, 0
1, 10368, Note_on_c, 0, 81, 69
1, 10368, Note_on_c, 1, 66, 69
1, 10391, Note_on_c, 0, 81, 0
1, 10392, Note_on_c, 0, 78, 69
1, 10415, Note_on_c, 0, 78, 0
1, 10416, Note_on_c, 0, 76, 69
1, 10439, Note_on_c, 0, 76, 0
1, 10440, Note_on_c, 0, 74, 69
1, 10457, Note_on_c, 1, 66, 0
1, 10463, Note_on_c, 0, 74, 0
1, 10464, Note_on_c, 0, 73, 69
1, 10487, Note_on_c, 0, 73, 0
1, 10488, Note_on_c, 0, 74, 69
1, 10511, Note_on_c, 0, 74, 0
1, 10512, Note_on_c, 0, 73, 69
1, 10535, Note_on_c, 0, 73, 0
1, 10536, Note_on_c, 0, 74, 69
1, 10559, Note_on_c, 0, 74, 0
1, 10560, Note_on_c, 0, 71, 69
1, 10560, Note_on_c, 1, 67, 69
1, 10605, Note_on_c, 0, 71, 0
1, 10605, Note_on_c, 1, 67, 0
1, 10608, Note_on_c, 0, 79, 69
1, 10653, Note_on_c, 0, 79, 0
1, 10656, Note_on_c, 1, 57, 69
1, 10701, Note_on_c, 1, 57, 0
1, 10704, Note_on_c, 0, 73, 69
1, 10704, Note_on_c, 0, 67, 69
1, 10749, Note_on_c, 0, 73, 0
1, 10749, Note_on_c, 0, 67, 0
1, 10752, Note_on_c, 0, 74, 69
1, 10752, Note_on_c, 0, 66, 69
1, 10752, Note_on_c, 1, 50, 69
1, 10775, Note_on_c, 1, 50, 0
1, 10776, Note_on_c, 1, 54, 69
1, 10799, Note_on_c, 1, 54, 0
1, 10800, Note_on_c, 1, 57, 69
1, 10823, Note_on_c, 1, 57, 0
1, 10824, Note_on_c, 1, 62, 69
1, 10841, Note_on_c, 0, 74, 0
1, 10841, Note_on_c, 0, 66, 0
1, 10847, Note_on_c, 1, 62, 0
1, 10848, Note_on_c, 1, 50, 69
1, 10893, Note_on_c, 1, 50, 0
1, 10896, Note_on_c, 0, 62, 77
1, 10941, Note_on_c, 0, 62, 0
1, 10944, Note_on_c, 0, 67, 77
1, 10944, Note_on_c, 1, 59, 77
1, 10944, Note_on_c, 1, 55, 77
1, 10967, Note_on_c, 0, 67, 0
1, 10968, Note_on_c, 0, 62, 79
1, 10991, Note_on_c, 0, 62, 0
1, 10992, Note_on_c, 0, 71, 81
1, 11015, Note_on_c, 0, 71, 0
1, 11016, Note_on_c, 0, 67, 83
1, 11033, Note_on_c, 1, 59, 0
1, 11033, Note_on_c, 1, 55, 0
1, 11039, Note_on_c, 0, 67, 0
1, 11040, Note_on_c, 0, 74, 85
1, 11085, Note_on_c, 0, 74, 0
1, 11088, Note_on_c, 0, 67, 83
1, 11088, Note_on_c, 1, 62, 77
1, 11088, Note_on_c, 1, 59, 77
1, 11133, Note_on_c, 0, 67, 0
1, 11133, Note_on_c, 1, 62, 0
1, 11133, Note_on_c, 1, 59, 0
1, 11136, Note_on_c, 0, 67, 97
1, 11136, Note_on_c, 1, 60, 77
1, 11136, Note_on_c, 1, 57, 77
1, 11225, Note_on_c, 1, 60, 0
1, 11225, Note_on_c, 1, 57, 0
1, 11232, Note_on_c, 0, 67, 0
1, 11232, Note_on_c, 0, 66, 78
1, 11277, Note_on_c, 0, 66, 0
1, 11280, Note_on_c, 0, 69, 77
1, 11325, Note_on_c, 0, 69, 0
1, 11328, Note_on_c, 0, 72, 77
1, 11373, Note_on_c, 0, 72, 0
1, 11376, Note_on_c, 0, 76, 77
1, 11376, Note_on_c, 0, 72, 77
1, 11421, Note_on_c, 0, 76, 0
1, 11421, Note_on_c, 0, 72, 0
1, 11424, Note_on_c, 0, 74, 79
1, 11424, Note_on_c, 0, 71, 79
1, 11469, Note_on_c, 0, 74, 0
1, 11469, Note_on_c, 0, 71, 0
1, 11472, Note_on_c, 0, 72, 82
1, 11472, Note_on_c, 0, 69, 82
1, 11472, Note_on_c, 1, 54, 77
1, 11517, Note_on_c, 0, 72, 0
1, 11517, Note_on_c, 0, 69, 0
1, 11517, Note_on_c, 1, 54, 0
1, 11520, Note_on_c, 0, 72, 101
1, 11520, Note_on_c, 0, 69, 101
1, 11520, Note_on_c, 1, 55, 77
1, 11609, Note_on_c, 1, 55, 0
1, 11616, Note_on_c, 0, 72, 0
1, 11616, Note_on_c, 0, 69, 0
1, 11616, Note_on_c, 0, 71, 79
1, 11616, Note_on_c, 0, 67, 79
1, 11616, Note_on_c, 1, 43, 77
1, 11661, Note_on_c, 0, 71, 0
1, 11661, Note_on_c, 0, 67, 0
1, 11664, Note_on_c, 0, 71, 69
1, 11705, Note_on_c, 1, 43, 0
1, 11709, Note_on_c, 0, 71, 0
1, 11712, Note_on_c, 0, 83, 69
1, 11712, Note_on_c, 1, 67, 69
1, 11735, Note_on_c, 0, 83, 0
1, 11736, Note_on_c, 0, 79, 69
1, 11759, Note_on_c, 0, 79, 0
1, 11760, Note_on_c, 0, 78, 69
1, 11783, Note_on_c, 0, 78, 0
1, 11784, Note_on_c, 0, 76, 69
1, 11801, Note_on_c, 1, 67, 0
1, 11807, Note_on_c, 0, 76, 0
1, 11808, Note_on_c, 0, 75, 69
1, 11831, Note_on_c, 0, 75, 0
1, 11832, Note_on_c, 0, 76, 69
1, 11855, Note_on_c, 0, 76, 0
1, 11856, Note_on_c, 0, 75, 69
1, 11879, Note_on_c, 0, 75, 0
1, 11880, Note_on_c, 0, 76, 69
1, 11903, Note_on_c, 0, 76, 0
1, 11904, Note_on_c, 0, 81, 69
1, 11904, Note_on_c, 1, 66, 69
1, 11927, Note_on_c, 0, 81, 0
1, 11928, Note_on_c, 0, 78, 69
1, 11951, Note_on_c, 0, 78, 0
1, 11952, Note_on_c, 0, 76, 69
1, 11975, Note_on_c, 0, 76, 0
1, 11976, Note_on_c, 0, 74, 69
1, 11993, Note_on_c, 1, 66, 0
1, 11999, Note_on_c, 0, 74, 0
1, 12000, Note_on_c, 0, 73, 69
1, 12023, Note_on_c, 0, 73, 0
1, 12024, Note_on_c, 0, 74, 69
1, 12047, Note_on_c, 0, 74, 0
1, 12048, Note_on_c, 0, 73, 69
1, 12071, Note_on_c, 0, 73, 0
1, 12072, Note_on_c, 0, 74, 69
1, 12095, Note_on_c, 0, 74, 0
1, 12096, Note_on_c, 0, 71, 69
1, 12096, Note_on_c, 1, 67, 69
1, 12141, Note_on_c, 0, 71, 0
1, 12141, Note_on_c, 1, 67, 0
1, 12144, Note_on_c, 0, 79, 69
1, 12189, Note_on_c, 0, 79, 0
1, 12192, Note_on_c, 1, 57, 69
1, 12237, Note_on_c, 1, 57, 0
1, 12240, Note_on_c, 0, 73, 69
1, 12240, Note_on_c, 0, 67, 69
1, 12285, Note_on_c, 0, 73, 0
1, 12285, Note_on_c, 0, 67, 0
1, 12288, Note_on_c, 0, 74, 69
1, 12288, Note_on_c, 0, 66, 69
1, 12288, Note_on_c, 1, 50, 69
1, 12311, Note_on_c, 1, 50, 0
1, 12312, Note_on_c, 1, 54, 69
1, 12335, Note_on_c, 1, 54, 0
1, 12336, Note_on_c, 1, 57, 69
1, 12359, Note_on_c, 1, 57, 0
1, 12360, Note_on_c, 1, 62, 69
1, 12377, Note_on_c, 0, 74, 0
1, 12377, Note_on_c, 0, 66, 0
1, 12383, Note_on_c, 1, 62, 0
1, 12384, Note_on_c, 1, 50, 69
1, 12429, Note_on_c, 1, 50, 0
1, 12432, Note_on_c, 0, 62, 77
1, 12477, Note_on_c, 0, 62, 0
1, 12480, Note_on_c, 0, 74, 77
1, 12503, Note_on_c, 0, 74, 0
1, 12504, Note_on_c, 0, 71, 77
1, 12527, Note_on_c, 0, 71, 0
1, 12528, Note_on_c, 0, 69, 77
1, 12551, Note_on_c, 0, 69, 0
1, 12552, Note_on_c, 0, 71, 77
1, 12575, Note_on_c, 0, 71, 0
1, 12576, Note_on_c, 0, 64, 77
1, 12621, Note_on_c, 0, 64, 0
1, 12624, Note_on_c, 0, 71, 77
1, 12624, Note_on_c, 1, 62, 77
1, 12624, Note_on_c, 1, 56, 77
1, 12669, Note_on_c, 0, 71, 0
1, 12669, Note_on_c, 1, 62, 0
1, 12669, Note_on_c, 1, 56, 0
1, 12672, Note_on_c, 0, 71, 93
1, 12672, Note_on_c, 1, 62, 77
1, 12672, Note_on_c, 1, 57, 77
1, 12768, Note_on_c, 0, 71, 0
1, 12768, Note_on_c, 0, 72, 77
1, 12768, Note_on_c, 1, 62, 0
1, 12768, Note_on_c, 1, 60, 77
1, 12788, Note_on_c, 0, 72, 0
1, 12813, Note_on_c, 1, 60, 0
1, 12813, Note_on_c, 1, 57, 0
1, 12816, Note_on_c, 0, 60, 77
1, 12861, Note_on_c, 0, 60, 0
1, 12864, Note_on_c, 0, 72, 77
1, 12887, Note_on_c, 0, 72, 0
1, 12888, Note_on_c, 0, 69, 77
1, 12911, Note_on_c, 0, 69, 0
1, 12912, Note_on_c, 0, 67, 77
1, 12935, Note_on_c, 0, 67, 0
1, 12936, Note_on_c, 0, 69, 77
1, 12959, Note_on_c, 0, 69, 0
1, 12960, Note_on_c, 0, 62, 77
1, 13005, Note_on_c, 0, 62, 0
1, 13008, Note_on_c, 0, 69, 77
1, 13008, Note_on_c, 1, 60, 77
1, 13008, Note_on_c, 1, 54, 77
1, 13053, Note_on_c, 0, 69, 0
1, 13053, Note_on_c, 1, 60, 0
1, 13053, Note_on_c, 1, 54, 0
1, 13056, Note_on_c, 0, 69, 77
1, 13056, Note_on_c, 1, 60, 77
1, 13056, Note_on_c, 1, 55, 77
1, 13152, Note_on_c, 0, 69, 0
1, 13152, Note_on_c, 0, 71, 77
1, 13152, Note_on_c, 1, 60, 0
1, 13152, Note_on_c, 1, 59, 77
1, 13172, Note_on_c, 0, 71, 0
1, 13197, Note_on_c, 1, 59, 0
1, 13197, Note_on_c, 1, 55, 0
1, 13200, Note_on_c, 0, 67, 77
1, 13200, Note_on_c, 1, 59, 77
1, 13245, Note_on_c, 0, 67, 0
1, 13245, Note_on_c, 1, 59, 0
1, 13248, Note_on_c, 0, 66, 77
1, 13248, Note_on_c, 1, 60, 77
1, 13271, Note_on_c, 0, 66, 0
1, 13272, Note_on_c, 0, 64, 77
1, 13295, Note_on_c, 0, 64, 0
1, 13296, Note_on_c, 0, 63, 77
1, 13319, Note_on_c, 0, 63, 0
1, 13320, Note_on_c, 0, 64, 77
1, 13337, Note_on_c, 1, 60, 0
1, 13343, Note_on_c, 0, 64, 0
1, 13344, Note_on_c, 0, 69, 78
1, 13392, Note_on_c, 1, 61, 78
1, 13433, Note_on_c, 0, 69, 0
1, 13437, Note_on_c, 1, 61, 0
1, 13440, Note_on_c, 0, 67, 79
1, 13440, Note_on_c, 1, 62, 79
1, 13463, Note_on_c, 0, 67, 0
1, 13464, Note_on_c, 0, 66, 79
1, 13487, Note_on_c, 0, 66, 0
1, 13488, Note_on_c, 0, 65, 79
1, 13511, Note_on_c, 0, 65, 0
1, 13512, Note_on_c, 0, 66, 80
1, 13529, Note_on_c, 1, 62, 0
1, 13535, Note_on_c, 0, 66, 0
1, 13536, Note_on_c, 0, 71, 80
1, 13584, Note_on_c, 1, 63, 81
1, 13625, Note_on_c, 0, 71, 0
1, 13629, Note_on_c, 1, 63, 0
1, 13632, Note_on_c, 0, 67, 81
1, 13632, Note_on_c, 1, 64, 81
1, 13677, Note_on_c, 0, 67, 0
1, 13677, Note_on_c, 1, 64, 0
1, 13680, Note_on_c, 0, 74, 82
1, 13680, Note_on_c, 1, 66, 82
1, 13725, Note_on_c, 0, 74, 0
1, 13725, Note_on_c, 1, 66, 0
1, 13728, Note_on_c, 0, 72, 82
1, 13728, Note_on_c, 1, 67, 82
1, 13773, Note_on_c, 0, 72, 0
1, 13776, Note_on_c, 0, 71, 83
1, 13776, Note_on_c, 1, 61, 83
1, 13821, Note_on_c, 0, 71, 0
1, 13821, Note_on_c, 1, 61, 0
1, 13824, Note_on_c, 0, 71, 83
1, 13824, Note_on_c, 1, 62, 83
1, 13913, Note_on_c, 1, 62, 0
1, 13920, Note_on_c, 0, 71, 0
1, 13920, Note_on_c, 0, 69, 85
1, 13920, Note_on_c, 1, 67, 0
1, 13920, Note_on_c, 1, 66, 85
1, 13920, Note_on_c, 1, 62, 85
1, 13965, Note_on_c, 0, 69, 0
1, 13965, Note_on_c, 1, 66, 0
1, 13965, Note_on_c, 1, 62, 0
1, 13968, Note_on_c, 0, 62, 77
1, 14013, Note_on_c, 0, 62, 0
1, 14016, Note_on_c, 0, 67, 77
1, 14016, Note_on_c, 1, 59, 77
1, 14016, Note_on_c, 1, 55, 77
1, 14039, Note_on_c, 0, 67, 0
1, 14040, Note_on_c, 0, 62, 79
1, 14063, Note_on_c, 0, 62, 0
1, 14064, Note_on_c, 0, 71, 81
1, 14087, Note_on_c, 0, 71, 0
1, 14088, Note_on_c, 0, 67, 83
1, 14105, Note_on_c, 1, 59, 0
1, 14105, Note_on_c, 1, 55, 0
1, 14111, Note_on_c, 0, 67, 0
1, 14112, Note_on_c, 0, 74, 85
1, 14157, Note_on_c, 0, 74, 0
1, 14160, Note_on_c, 0, 67, 83
1, 14160, Note_on_c, 1, 62, 77
1, 14160, Note_on_c, 1, 59, 77
1, 14205, Note_on_c, 0, 67, 0
1, 14205, Note_on_c, 1, 62, 0
1, 14205, Note_on_c, 1, 59, 0
1, 14208, Note_on_c, 0, 67, 97
1, 14208, Note_on_c, 1, 60, 77
1, 14208, Note_on_c, 1, 57, 77
1, 14297, Note_on_c, 1, 60, 0
1, 14297, Note_on_c, 1, 57, 0
1, 14304, Note_on_c, 0, 67, 0
1, 14304, Note_on_c, 0, 66, 77
1, 14349, Note_on_c, 0, 66, 0
1, 14352, Note_on_c, 0, 69, 77
1, 14397, Note_on_c, 0, 69, 0
1, 14400, Note_on_c, 0, 72, 77
1, 14445, Note_on_c, 0, 72, 0
1, 14448, Note_on_c, 0, 76, 77
1, 14448, Note_on_c, 0, 72, 77
1, 14493, Note_on_c, 0, 76, 0
1, 14493, Note_on_c, 0, 72, 0
1, 14496, Note_on_c, 0, 74, 79
1, 14496, Note_on_c, 0, 71, 79
1, 14541, Note_on_c, 0, 74, 0
1, 14541, Note_on_c, 0, 71, 0
1, 14544, Note_on_c, 0, 72, 82
1, 14544, Note_on_c, 0, 69, 82
1, 14544, Note_on_c, 1, 54, 77
1, 14589, Note_on_c, 0, 72, 0
1, 14589, Note_on_c, 0, 69, 0
1, 14589, Note_on_c, 1, 54, 0
1, 14592, Note_on_c, 0, 72, 101
1, 14592, Note_on_c, 0, 69, 101
1, 14592, Note_on_c, 1, 55, 77
1, 14681, Note_on_c, 1, 55, 0
1, 14688, Note_on_c, 0, 72, 0
1, 14688, Note_on_c, 0, 69, 0
1, 14688, Note_on_c, 0, 71, 79
1, 14688, Note_on_c, 0, 67, 79
1, 14688, Note_on_c, 1, 43, 77
1, 14733, Note_on_c, 0, 71, 0
1, 14733, Note_on_c, 0, 67, 0
1, 14736, Note_on_c, 0, 67, 77
1, 14777, Note_on_c, 1, 43, 0
1, 14781, Note_on_c, 0, 67, 0
1, 14784, Note_on_c, 0, 76, 77
1, 14784, Note_on_c, 1, 60, 77
1, 14784, Note_on_c, 1, 48, 77
1, 14807, Note_on_c, 0, 76, 0
1, 14808, Note_on_c, 0, 75, 77
1, 14831, Note_on_c, 0, 75, 0
1, 14832, Note_on_c, 0, 76, 77
1, 14855, Note_on_c, 0, 76, 0
1, 14856, Note_on_c, 0, 78, 77
1, 14873, Note_on_c, 1, 60, 0
1, 14873, Note_on_c, 1, 48, 0
1, 14879, Note_on_c, 0, 78, 0
1, 14880, Note_on_c, 0, 79, 77
1, 14903, Note_on_c, 0, 79, 0
1, 14904, Note_on_c, 0, 76, 77
1, 14927, Note_on_c, 0, 76, 0
1, 14928, Note_on_c, 0, 74, 77
1, 14951, Note_on_c, 0, 74, 0
1, 14952, Note_on_c, 0, 72, 77
1, 14975, Note_on_c, 0, 72, 0
1, 14976, Note_on_c, 0, 74, 77
1, 14976, Note_on_c, 1, 59, 77
1, 14976, Note_on_c, 1, 47, 77
1, 15021, Note_on_c, 0, 74, 0
1, 15024, Note_on_c, 0, 79, 79
1, 15047, Note_on_c, 0, 79, 0
1, 15048, Note_on_c, 0, 83, 81
1, 15065, Note_on_c, 1, 59, 0
1, 15065, Note_on_c, 1, 47, 0
1, 15071, Note_on_c, 0, 83, 0
1, 15072, Note_on_c, 0, 86, 82
1, 15092, Note_on_c, 0, 86, 0
1, 15120, Note_on_c, 0, 74, 85
1, 15120, Note_on_c, 0, 71, 85
1, 15165, Note_on_c, 0, 74, 0
1, 15165, Note_on_c, 0, 71, 0
1, 15168, Note_on_c, 0, 74, 85
1, 15168, Note_on_c, 0, 71, 85
1, 15168, Note_on_c, 1, 60, 77
1, 15192, Note_on_c, 0, 74, 0
1, 15192, Note_on_c, 0, 71, 0
1, 15192, Note_on_c, 0, 72, 84
1, 15192, Note_on_c, 0, 69, 84
1, 15215, Note_on_c, 0, 72, 0
1, 15215, Note_on_c, 0, 69, 0
1, 15216, Note_on_c, 0, 71, 83
1, 15216, Note_on_c, 0, 67, 83
1, 15257, Note_on_c, 1, 60, 0
1, 15264, Note_on_c, 1, 62, 77
1, 15305, Note_on_c, 0, 71, 0
1, 15305, Note_on_c, 0, 67, 0
1, 15312, Note_on_c, 0, 69, 79
1, 15312, Note_on_c, 0, 66, 79
1, 15353, Note_on_c, 1, 62, 0
1, 15357, Note_on_c, 0, 69, 0
1, 15357, Note_on_c, 0, 66, 0
1, 15360, Note_on_c, 0, 67, 77
1, 15360, Note_on_c, 1, 55, 77
1, 15449, Note_on_c, 0, 67, 0
1, 15449, Note_on_c, 1, 55, 0
1, 15504, Note_on_c, 0, 62, 77
1, 15549, Note_on_c, 0, 62, 0
1, 15552, Note_on_c, 0, 74, 77
1, 15575, Note_on_c, 0, 74, 0
1, 15576, Note_on_c, 0, 71, 77
1, 15599, Note_on_c, 0, 71, 0
1, 15600, Note_on_c, 0, 69, 77
1, 15623, Note_on_c, 0, 69, 0
1, 15624, Note_on_c, 0, 71, 77
1, 15647, Note_on_c, 0, 71, 0
1, 15648, Note_on_c, 0, 64, 77
1, 15693, Note_on_c, 0, 64, 0
1, 15696, Note_on_c, 0, 71, 77
1, 15696, Note_on_c, 1, 62, 77
1, 15696, Note_on_c, 1, 56, 77
1, 15741, Note_on_c, 0, 71, 0
1, 15741, Note_on_c, 1, 62, 0
1, 15741, Note_on_c, 1, 56, 0
1, 15744, Note_on_c, 0, 71, 93
1, 15744, Note_on_c, 1, 62, 77
1, 15744, Note_on_c, 1, 57, 77
1, 15840, Note_on_c, 0, 71, 0
1, 15840, Note_on_c, 0, 72, 77
1, 15840, Note_on_c, 1, 62, 0
1, 15840, Note_on_c, 1, 60, 77
1, 15860, Note_on_c, 0, 72, 0
1, 15885, Note_on_c, 1, 60, 0
1, 15885, Note_on_c, 1, 57, 0
1, 15888, Note_on_c, 0, 60, 77
1, 15933, Note_on_c, 0, 60, 0
1, 15936, Note_on_c, 0, 72, 77
1, 15959, Note_on_c, 0, 72, 0
1, 15960, Note_on_c, 0, 69, 77
1, 15983, Note_on_c, 0, 69, 0
1, 15984, Note_on_c, 0, 67, 77
1, 16007, Note_on_c, 0, 67, 0
1, 16008, Note_on_c, 0, 69, 77
1, 16031, Note_on_c, 0, 69, 0
1, 16032, Note_on_c, 0, 62, 77
1, 16077, Note_on_c, 0, 62, 0
1, 16080, Note_on_c, 0, 69, 77
1, 16080, Note_on_c, 1, 60, 77
1, 16080, Note_on_c, 1, 54, 77
1, 16125, Note_on_c, 0, 69, 0
1, 16125, Note_on_c, 1, 60, 0
1, 16125, Note_on_c, 1, 54, 0
1, 16128, Note_on_c, 0, 69, 77
1, 16128, Note_on_c, 1, 60, 77
1, 16128, Note_on_c, 1, 55, 77
1, 16224, Note_on_c, 0, 69, 0
1, 16224, Note_on_c, 0, 71, 77
1, 16224, Note_on_c, 1, 60, 0
1, 16224, Note_on_c, 1, 59, 77
1, 16244, Note_on_c, 0, 71, 0
1, 16269, Note_on_c, 1, 59, 0
1, 16269, Note_on_c, 1, 55, 0
1, 16272, Note_on_c, 0, 67, 77
1, 16272, Note_on_c, 1, 59, 77
1, 16317, Note_on_c, 0, 67, 0
1, 16317, Note_on_c, 1, 59, 0
1, 16320, Note_on_c, 0, 66, 77
1, 16320, Note_on_c, 1, 60, 77
1, 16343, Note_on_c, 0, 66, 0
1, 16344, Note_on_c, 0, 64, 77
1, 16367, Note_on_c, 0, 64, 0
1, 16368, Note_on_c, 0, 63, 77
1, 16391, Note_on_c, 0, 63, 0
1, 16392, Note_on_c, 0, 64, 77
1, 16409, Note_on_c, 1, 60, 0
1, 16415, Note_on_c, 0, 64, 0
1, 16416, Note_on_c, 0, 69, 78
1, 16464, Note_on_c, 1, 61, 78
1, 16505, Note_on_c, 0, 69, 0
1, 16509, Note_on_c, 1, 61, 0
1, 16512, Note_on_c, 0, 67, 79
1, 16512, Note_on_c, 1, 62, 79
1, 16535, Note_on_c, 0, 67, 0
1, 16536, Note_on_c, 0, 66, 79
1, 16559, Note_on_c, 0, 66, 0
1, 16560, Note_on_c, 0, 65, 79
1, 16583, Note_on_c, 0, 65, 0
1, 16584, Note_on_c, 0, 66, 80
1, 16601, Note_on_c, 1, 62, 0
1, 16607, Note_on_c, 0, 66, 0
1, 16608, Note_on_c, 0, 71, 80
1, 16656, Note_on_c, 1, 63, 81
1, 16697, Note_on_c, 0, 71, 0
1, 16701, Note_on_c, 1, 63, 0
1, 16704, Note_on_c, 0, 67, 81
1, 16704, Note_on_c, 1, 64, 81
1, 16749, Note_on_c, 0, 67, 0
1, 16749, Note_on_c, 1, 64, 0
1, 16752, Note_on_c, 0, 74, 82
1, 16752, Note_on_c, 1, 66, 82
1, 16797, Note_on_c, 0, 74, 0
1, 16797, Note_on_c, 1, 66, 0
1, 16800, Note_on_c, 0, 72, 82
1, 16800, Note_on_c, 1, 67, 82
1, 16845, Note_on_c, 0, 72, 0
1, 16848, Note_on_c, 0, 71, 83
1, 16848, Note_on_c, 1, 61, 83
1, 16893, Note_on_c, 0, 71, 0
1, 16893, Note_on_c, 1, 61, 0
1, 16896, Note_on_c, 0, 71, 83
1, 16896, Note_on_c, 1, 62, 83
1, 16985, Note_on_c, 1, 62, 0
1, 16992, Note_on_c, 0, 71, 0
1, 16992, Note_on_c, 0, 69, 85
1, 16992, Note_on_c, 1, 67, 0
1, 16992, Note_on_c, 1, 66, 85
1, 16992, Note_on_c, 1, 62, 85
1, 17037, Note_on_c, 0, 69, 0
1, 17037, Note_on_c, 1, 66, 0
1, 17037, Note_on_c, 1, 62, 0
1, 17040, Note_on_c, 0, 62, 77
1, 17085, Note_on_c, 0, 62, 0
1, 17088, Note_on_c, 0, 67, 77
1, 17088, Note_on_c, 1, 59, 77
1, 17088, Note_on_c, 1, 55, 77
1, 17111, Note_on_c, 0, 67, 0
1, 17112, Note_on_c, 0, 62, 79
1, 17135, Note_on_c, 0, 62, 0
1, 17136, Note_on_c, 0, 71, 81
1, 17159, Note_on_c, 0, 71, 0
1, 17160, Note_on_c, 0, 67, 83
1, 17177, Note_on_c, 1, 59, 0
1, 17177, Note_on_c, 1, 55, 0
1, 17183, Note_on_c, 0, 67, 0
1, 17184, Note_on_c, 0, 74, 85
1, 17229, Note_on_c, 0, 74, 0
1, 17232, Note_on_c, 0, 67, 83
1, 17232, Note_on_c, 1, 62, 77
1, 17232, Note_on_c, 1, 59, 77
1, 17277, Note_on_c, 0, 67, 0
1, 17277, Note_on_c, 1, 62, 0
1, 17277, Note_on_c, 1, 59, 0
1, 17280, Note_on_c, 0, 67, 97
1, 17280, Note_on_c, 1, 60, 77
1, 17280, Note_on_c, 1, 57, 77
1, 17369, Note_on_c, 1, 60, 0
1, 17369, Note_on_c, 1, 57, 0
1, 17376, Note_on_c, 0, 67, 0
1, 17376, Note_on_c, 0, 66, 77
1, 17421, Note_on_c, 0, 66, 0
1, 17424, Note_on_c, 0, 69, 77
1, 17469, Note_on_c, 0, 69, 0
1, 17472, Note_on_c, 0, 72, 77
1, 17517, Note_on_c, 0, 72, 0
1, 17520, Note_on_c, 0, 76, 77
1, 17520, Note_on_c, 0, 72, 77
1, 17565, Note_on_c, 0, 76, 0
1, 17565, Note_on_c, 0, 72, 0
1, 17568, Note_on_c, 0, 74, 79
1, 17568, Note_on_c, 0, 71, 79
1, 17613, Note_on_c, 0, 74, 0
1, 17613, Note_on_c, 0, 71, 0
1, 17616, Note_on_c, 0, 72, 82
1, 17616, Note_on_c, 0, 69, 82
1, 17616, Note_on_c, 1, 54, 77
1, 17661, Note_on_c, 0, 72, 0
1, 17661, Note_on_c, 0, 69, 0
1, 17661, Note_on_c, 1, 54, 0
1, 17664, Note_on_c, 0, 72, 101
1, 17664, Note_on_c, 0, 69, 101
1, 17664, Note_on_c, 1, 55, 77
1, 17753, Note_on_c, 1, 55, 0
1, 17760, Note_on_c, 0, 72, 0
1, 17760, Note_on_c, 0, 69, 0
1, 17760, Note_on_c, 0, 71, 79
1, 17760, Note_on_c, 0, 67, 79
1, 17760, Note_on_c, 1, 43, 77
1, 17805, Note_on_c, 0, 71, 0
1, 17805, Note_on_c, 0, 67, 0
1, 17808, Note_on_c, 0, 67, 77
1, 17849, Note_on_c, 1, 43, 0
1, 17853, Note_on_c, 0, 67, 0
1, 17856, Note_on_c, 0, 76, 77
1, 17856, Note_on_c, 1, 60, 77
1, 17856, Note_on_c, 1, 48, 77
1, 17879, Note_on_c, 0, 76, 0
1, 17880, Note_on_c, 0, 75, 77
1, 17903, Note_on_c, 0, 75, 0
1, 17904, Note_on_c, 0, 76, 77
1, 17927, Note_on_c, 0, 76, 0
1, 17928, Note_on_c, 0, 78, 77
1, 17945, Note_on_c, 1, 60, 0
1, 17945, Note_on_c, 1, 48, 0
1, 17951, Note_on_c, 0, 78, 0
1, 17952, Note_on_c, 0, 79, 77
1, 17975, Note_on_c, 0, 79, 0
1, 17976, Note_on_c, 0, 76, 77
1, 17999, Note_on_c, 0, 76, 0
1, 18000, Note_on_c, 0, 74, 77
1, 18023, Note_on_c, 0, 74, 0
1, 18024, Note_on_c, 0, 72, 77
1, 18047, Note_on_c, 0, 72, 0
1, 18048, Note_on_c, 0, 74, 77
1, 18048, Note_on_c, 1, 59, 77
1, 18048, Note_on_c, 1, 47, 77
1, 18093, Note_on_c, 0, 74, 0
1, 18096, Note_on_c, 0, 79, 79
1, 18119, Note_on_c, 0, 79, 0
1, 18120, Note_on_c, 0, 83, 81
1, 18137, Note_on_c, 1, 59, 0
1, 18137, Note_on_c, 1, 47, 0
1, 18143, Note_on_c, 0, 83, 0
1, 18144, Note_on_c, 0, 86, 82
1, 18164, Note_on_c, 0, 86, 0
1, 18192, Note_on_c, 0, 74, 85
1, 18192, Note_on_c, 0, 71, 85
1, 18237, Note_on_c, 0, 74, 0
1, 18237, Note_on_c, 0, 71, 0
1, 18240, Note_on_c, 0, 74, 85
1, 18240, Note_on_c, 0, 71, 85
1, 18240, Note_on_c, 1, 60, 77
1, 18264, Note_on_c, 0, 74, 0
1, 18264, Note_on_c, 0, 71, 0
1, 18264, Note_on_c, 0, 72, 84
1, 18264, Note_on_c, 0, 69, 84
1, 18287, Note_on_c, 0, 72, 0
1, 18287, Note_on_c, 0, 69, 0
1, 18288, Note_on_c, 0, 71, 83
1, 18288, Note_on_c, 0, 67, 83
1, 18329, Note_on_c, 1, 60, 0
1, 18336, Note_on_c, 1, 62, 77
1, 18377, Note_on_c, 0, 71, 0
1, 18377, Note_on_c, 0, 67, 0
1, 18384, Note_on_c, 0, 69, 79
1, 18384, Note_on_c, 0, 66, 79
1, 18425, Note_on_c, 1, 62, 0
1, 18429, Note_on_c, 0, 69, 0
1, 18429, Note_on_c, 0, 66, 0
1, 18432, Note_on_c, 0, 67, 77
1, 18432, Note_on_c, 1, 55, 77
1, 18521, Note_on_c, 0, 67, 0
1, 18521, Note_on_c, 1, 55, 0
1, 18528, Note_on_c, 1, 55, 77
1, 18576, Note_on_c, 0, 74, 77
1, 18617, Note_on_c, 1, 55, 0
1, 18621, Note_on_c, 0, 74, 0
1, 18624, Note_on_c, 0, 79, 77
1, 18624, Note_on_c, 1, 59, 77
1, 18624, Note_on_c, 1, 55, 77
1, 18647, Note_on_c, 0, 79, 0
1, 18648, Note_on_c, 0, 78, 76
1, 18671, Note_on_c, 0, 78, 0
1, 18672, Note_on_c, 0, 76, 75
1, 18695, Note_on_c, 0, 76, 0
1, 18696, Note_on_c, 0, 74, 74
1, 18713, Note_on_c, 1, 59, 0
1, 18713, Note_on_c, 1, 55, 0
1, 18719, Note_on_c, 0, 74, 0
1, 18720, Note_on_c, 0, 72, 73
1, 18743, Note_on_c, 0, 72, 0
1, 18744, Note_on_c, 0, 71, 72
1, 18767, Note_on_c, 0, 71, 0
1, 18768, Note_on_c, 0, 69, 71
1, 18791, Note_on_c, 0, 69, 0
1, 18792, Note_on_c, 0, 67, 70
1, 18815, Note_on_c, 0, 67, 0
1, 18816, Note_on_c, 0, 66, 69
1, 18816, Note_on_c, 1, 60, 77
1, 18816, Note_on_c, 1, 57, 77
1, 18839, Note_on_c, 0, 66, 0
1, 18840, Note_on_c, 0, 62, 70
1, 18861, Note_on_c, 1, 60, 0
1, 18861, Note_on_c, 1, 57, 0
1, 18863, Note_on_c, 0, 62, 0
1, 18864, Note_on_c, 0, 67, 71
1, 18864, Note_on_c, 1, 59, 77
1, 18864, Note_on_c, 1, 55, 77
1, 18887, Note_on_c, 0, 67, 0
1, 18888, Note_on_c, 0, 62, 72
1, 18909, Note_on_c, 1, 59, 0
1, 18909, Note_on_c, 1, 55, 0
1, 18911, Note_on_c, 0, 62, 0
1, 18912, Note_on_c, 0, 62, 73
1, 18912, Note_on_c, 1, 57, 77
1, 18912, Note_on_c, 1, 54, 77
1, 18935, Note_on_c, 0, 62, 0
1, 18936, Note_on_c, 0, 69, 74
1, 18957, Note_on_c, 1, 57, 0
1, 18957, Note_on_c, 1, 54, 0
1, 18959, Note_on_c, 0, 69, 0
1, 18960, Note_on_c, 0, 62, 75
1, 18960, Note_on_c, 1, 55, 77
1, 18960, Note_on_c, 1, 52, 77
1, 18983, Note_on_c, 0, 62, 0
1, 18984, Note_on_c, 0, 71, 76
1, 19005, Note_on_c, 1, 55, 0
1, 19005, Note_on_c, 1, 52, 0
1, 19007, Note_on_c, 0, 71, 0
1, 19008, Note_on_c, 0, 72, 77
1, 19008, Note_on_c, 1, 54, 77
1, 19008, Note_on_c, 1, 50, 77
1, 19031, Note_on_c, 0, 72, 0
1, 19032, Note_on_c, 0, 71, 76
1, 19055, Note_on_c, 0, 71, 0
1, 19056, Note_on_c, 0, 69, 75
1, 19079, Note_on_c, 0, 69, 0
1, 19080, Note_on_c, 0, 67, 75
1, 19097, Note_on_c, 1, 54, 0
1, 19097, Note_on_c, 1, 50, 0
1, 19103, Note_on_c, 0, 67, 0
1, 19104, Note_on_c, 0, 66, 74
1, 19127, Note_on_c, 0, 66, 0
1, 19128, Note_on_c, 0, 64, 73
1, 19151, Note_on_c, 0, 64, 0
1, 19152, Note_on_c, 0, 62, 73
1, 19175, Note_on_c, 0, 62, 0
1, 19176, Note_on_c, 0, 60, 72
1, 19199, Note_on_c, 0, 60, 0
1, 19200, Note_on_c, 0, 59, 71
1, 19224, Note_on_c, 1, 43, 77
1, 19247, Note_on_c, 1, 43, 0
1, 19248, Note_on_c, 1, 47, 77
1, 19271, Note_on_c, 1, 47, 0
1, 19272, Note_on_c, 1, 50, 77
1, 19289, Note_on_c, 0, 59, 0
1, 19295, Note_on_c, 1, 50, 0
1, 19296, Note_on_c, 1, 55, 77
1, 19344, Note_on_c, 0, 71, 77
1, 19385, Note_on_c, 1, 55, 0
1, 19389, Note_on_c, 0, 71, 0
1, 19392, Note_on_c, 0, 83, 77
1, 19392, Note_on_c, 1, 67, 77
1, 19415, Note_on_c, 0, 83, 0
1, 19416, Note_on_c, 0, 71, 76
1, 19437, Note_on_c, 1, 67, 0
1, 19439, Note_on_c, 0, 71, 0
1, 19440, Note_on_c, 0, 81, 75
1, 19440, Note_on_c, 1, 66, 75
1, 19463, Note_on_c, 0, 81, 0
1, 19464, Note_on_c, 0, 71, 74
1, 19485, Note_on_c, 1, 66, 0
1, 19487, Note_on_c, 0, 71, 0
1, 19488, Note_on_c, 0, 79, 73
1, 19488, Note_on_c, 1, 64, 73
1, 19511, Note_on_c, 0, 79, 0
1, 19512, Note_on_c, 0, 71, 72
1, 19533, Note_on_c, 1, 64, 0
1, 19535, Note_on_c, 0, 71, 0
1, 19536, Note_on_c, 0, 78, 71
1, 19536, Note_on_c, 1, 63, 71
1, 19559, Note_on_c, 0, 78, 0
1, 19560, Note_on_c, 0, 71, 70
1, 19581, Note_on_c, 1, 63, 0
1, 19583, Note_on_c, 0, 71, 0
1, 19584, Note_on_c, 0, 79, 69
1, 19584, Note_on_c, 1, 64, 69
1, 19607, Note_on_c, 0, 79, 0
1, 19608, Note_on_c, 0, 71, 70
1, 19629, Note_on_c, 1, 64, 0
1, 19631, Note_on_c, 0, 71, 0
1, 19632, Note_on_c, 0, 80, 71
1, 19632, Note_on_c, 1, 62, 71
1, 19655, Note_on_c, 0, 80, 0
1, 19656, Note_on_c, 0, 71, 72
1, 19677, Note_on_c, 1, 62, 0
1, 19679, Note_on_c, 0, 71, 0
1, 19680, Note_on_c, 0, 81, 73
1, 19680, Note_on_c, 1, 61, 73
1, 19703, Note_on_c, 0, 81, 0
1, 19704, Note_on_c, 0, 69, 74
1, 19725, Note_on_c, 1, 61, 0
1, 19727, Note_on_c, 0, 69, 0
1, 19728, Note_on_c, 0, 79, 75
1, 19728, Note_on_c, 1, 64, 75
1, 19751, Note_on_c, 0, 79, 0
1, 19752, Note_on_c, 0, 69, 76
1, 19773, Note_on_c, 1, 64, 0
1, 19775, Note_on_c, 0, 69, 0
1, 19776, Note_on_c, 0, 78, 77
1, 19776, Note_on_c, 1, 62, 77
1, 19799, Note_on_c, 0, 78, 0
1, 19800, Note_on_c, 0, 69, 76
1, 19821, Note_on_c, 1, 62, 0
1, 19823, Note_on_c, 0, 69, 0
1, 19824, Note_on_c, 0, 79, 75
1, 19824, Note_on_c, 1, 55, 75
1, 19847, Note_on_c, 0, 79, 0
1, 19848, Note_on_c, 0, 76, 75
1, 19869, Note_on_c, 1, 55, 0
1, 19871, Note_on_c, 0, 76, 0
1, 19872, Note_on_c, 0, 78, 74
1, 19872, Note_on_c, 1, 57, 73
1, 19895, Note_on_c, 0, 78, 0
1, 19896, Note_on_c, 0, 74, 73
1, 19917, Note_on_c, 1, 57, 0
1, 19919, Note_on_c, 0, 74, 0
1, 19920, Note_on_c, 0, 76, 73
1, 19920, Note_on_c, 1, 45, 72
1, 19943, Note_on_c, 0, 76, 0
1, 19944, Note_on_c, 0, 73, 72
1, 19965, Note_on_c, 1, 45, 0
1, 19967, Note_on_c, 0, 73, 0
1, 19968, Note_on_c, 0, 74, 71
1, 19968, Note_on_c, 1, 50, 70
1, 20013, Note_on_c, 1, 50, 0
1, 20016, Note_on_c, 1, 45, 69
1, 20057, Note_on_c, 0, 74, 0
1, 20061, Note_on_c, 1, 45, 0
1, 20064, Note_on_c, 1, 38, 69
1, 20109, Note_on_c, 1, 38, 0
1, 20112, Note_on_c, 0, 74, 77
1, 20157, Note_on_c, 0, 74, 0
1, 20160, Note_on_c, 0, 79, 77
1, 20160, Note_on_c, 1, 59, 77
1, 20160, Note_on_c, 1, 55, 77
1, 20183, Note_on_c, 0, 79, 0
1, 20184, Note_on_c, 0, 78, 76
1, 20207, Note_on_c, 0, 78, 0
1, 20208, Note_on_c, 0, 76, 75
1, 20231, Note_on_c, 0, 76, 0
1, 20232, Note_on_c, 0, 74, 74
1, 20249, Note_on_c, 1, 59, 0
1, 20249, Note_on_c, 1, 55, 0
1, 20255, Note_on_c, 0, 74, 0
1, 20256, Note_on_c, 0, 72, 73
1, 20279, Note_on_c, 0, 72, 0
1, 20280, Note_on_c, 0, 71, 72
1, 20303, Note_on_c, 0, 71, 0
1, 20304, Note_on_c, 0, 69, 71
1, 20327, Note_on_c, 0, 69, 0
1, 20328, Note_on_c, 0, 67, 70
1, 20351, Note_on_c, 0, 67, 0
1, 20352, Note_on_c, 0, 66, 69
1, 20352, Note_on_c, 1, 60, 77
1, 20352, Note_on_c, 1, 57, 77
1, 20375, Note_on_c, 0, 66, 0
1, 20376, Note_on_c, 0, 62, 70
1, 20397, Note_on_c, 1, 60, 0
1, 20397, Note_on_c, 1, 57, 0
1, 20399, Note_on_c, 0, 62, 0
1, 20400, Note_on_c, 0, 67, 71
1, 20400, Note_on_c, 1, 59, 77
1, 20400, Note_on_c, 1, 55, 77
1, 20423, Note_on_c, 0, 67, 0
1, 20424, Note_on_c, 0, 62, 72
1, 20445, Note_on_c, 1, 59, 0
1, 20445, Note_on_c, 1, 55, 0
1, 20447, Note_on_c, 0, 62, 0
1, 20448, Note_on_c, 0, 62, 73
1, 20448, Note_on_c, 1, 57, 77
1, 20448, Note_on_c, 1, 54, 77
1, 20471, Note_on_c, 0, 62, 0
1, 20472, Note_on_c, 0, 69, 74
1, 20493, Note_on_c, 1, 57, 0
1, 20493, Note_on_c, 1, 54, 0
1, 20495, Note_on_c, 0, 69, 0
1, 20496, Note_on_c, 0, 62, 75
1, 20496, Note_on_c, 1, 55, 77
1, 20496, Note_on_c, 1, 52, 77
1, 20519, Note_on_c, 0, 62, 0
1, 20520, Note_on_c, 0, 71, 76
1, 20541, Note_on_c, 1, 55, 0
1, 20541, Note_on_c, 1, 52, 0
1, 20543, Note_on_c, 0, 71, 0
1, 20544, Note_on_c, 0, 72, 77
1, 20544, Note_on_c, 1, 54, 77
1, 20544, Note_on_c, 1, 50, 77
1, 20567, Note_on_c, 0, 72, 0
1, 20568, Note_on_c, 0, 71, 76
1, 20591, Note_on_c, 0, 71, 0
1, 20592, Note_on_c, 0, 69, 75
1, 20615, Note_on_c, 0, 69, 0
1, 20616, Note_on_c, 0, 67, 75
1, 20633, Note_on_c, 1, 54, 0
1, 20633, Note_on_c, 1, 50, 0
1, 20639, Note_on_c, 0, 67, 0
1, 20640, Note_on_c, 0, 66, 74
1, 20663, Note_on_c, 0, 66, 0
1, 20664, Note_on_c, 0, 64, 73
1, 20687, Note_on_c, 0, 64, 0
1, 20688, Note_on_c, 0, 62, 73
1, 20711, Note_on_c, 0, 62, 0
1, 20712, Note_on_c, 0, 60, 72
1, 20735, Note_on_c, 0, 60, 0
1, 20736, Note_on_c, 0, 59, 71
1, 20760, Note_on_c, 1, 43, 77
1, 20783, Note_on_c, 1, 43, 0
1, 20784, Note_on_c, 1, 47, 77
1, 20807, Note_on_c, 1, 47, 0
1, 20808, Note_on_c, 1, 50, 77
1, 20825, Note_on_c, 0, 59, 0
1, 20831, Note_on_c, 1, 50, 0
1, 20832, Note_on_c, 1, 55, 77
1, 20880, Note_on_c, 0, 71, 77
1, 20921, Note_on_c, 1, 55, 0
1, 20925, Note_on_c, 0, 71, 0
1, 20928, Note_on_c, 0, 83, 77
1, 20928, Note_on_c, 1, 67, 77
1, 20951, Note_on_c, 0, 83, 0
1, 20952, Note_on_c, 0, 71, 76
1, 20973, Note_on_c, 1, 67, 0
1, 20975, Note_on_c, 0, 71, 0
1, 20976, Note_on_c, 0, 81, 75
1, 20976, Note_on_c, 1, 66, 75
1, 20999, Note_on_c, 0, 81, 0
1, 21000, Note_on_c, 0, 71, 74
1, 21021, Note_on_c, 1, 66, 0
1, 21023, Note_on_c, 0, 71, 0
1, 21024, Note_on_c, 0, 79, 73
1, 21024, Note_on_c, 1, 64, 73
1, 21047, Note_on_c, 0, 79, 0
1, 21048, Note_on_c, 0, 71, 72
1, 21069, Note_on_c, 1, 64, 0
1, 21071, Note_on_c, 0, 71, 0
1, 21072, Note_on_c, 0, 78, 71
1, 21072, Note_on_c, 1, 63, 71
1, 21095, Note_on_c, 0, 78, 0
1, 21096, Note_on_c, 0, 71, 70
1, 21117, Note_on_c, 1, 63, 0
1, 21119, Note_on_c, 0, 71, 0
1, 21120, Note_on_c, 0, 79, 69
1, 21120, Note_on_c, 1, 64, 69
1, 21143, Note_on_c, 0, 79, 0
1, 21144, Note_on_c, 0, 71, 70
1, 21165, Note_on_c, 1, 64, 0
1, 21167, Note_on_c, 0, 71, 0
1, 21168, Note_on_c, 0, 80, 71
1, 21168, Note_on_c, 1, 62, 71
1, 21191, Note_on_c, 0, 80, 0
1, 21192, Note_on_c, 0, 71, 72
1, 21213, Note_on_c, 1, 62, 0
1, 21215, Note_on_c, 0, 71, 0
1, 21216, Note_on_c, 0, 81, 73
1, 21216, Note_on_c, 1, 61, 73
1, 21239, Note_on_c, 0, 81, 0
1, 21240, Note_on_c, 0, 69, 74
1, 21261, Note_on_c, 1, 61, 0
1, 21263, Note_on_c, 0, 69, 0
1, 21264, Note_on_c, 0, 79, 75
1, 21264, Note_on_c, 1, 64, 75
1, 21287, Note_on_c, 0, 79, 0
1, 21288, Note_on_c, 0, 69, 76
1, 21309, Note_on_c, 1, 64, 0
1, 21311, Note_on_c, 0, 69, 0
1, 21312, Note_on_c, 0, 78, 77
1, 21312, Note_on_c, 1, 62, 77
1, 21335, Note_on_c, 0, 78, 0
1, 21336, Note_on_c, 0, 69, 76
1, 21357, Note_on_c, 1, 62, 0
1, 21359, Note_on_c, 0, 69, 0
1, 21360, Note_on_c, 0, 79, 75
1, 21360, Note_on_c, 1, 55, 75
1, 21383, Note_on_c, 0, 79, 0
1, 21384, Note_on_c, 0, 76, 75
1, 21405, Note_on_c, 1, 55, 0
1, 21407, Note_on_c, 0, 76, 0
1, 21408, Note_on_c, 0, 78, 74
1, 21408, Note_on_c, 1, 57, 73
1, 21431, Note_on_c, 0, 78, 0
1, 21432, Note_on_c, 0, 74, 73
1, 21453, Note_on_c, 1, 57, 0
1, 21455, Note_on_c, 0, 74, 0
1, 21456, Note_on_c, 0, 76, 73
1, 21456, Note_on_c, 1, 45, 72
1, 21479, Note_on_c, 0, 76, 0
1, 21480, Note_on_c, 0, 73, 72
1, 21501, Note_on_c, 1, 45, 0
1, 21503, Note_on_c, 0, 73, 0
1, 21504, Note_on_c, 0, 74, 71
1, 21504, Note_on_c, 1, 50, 70
1, 21549, Note_on_c, 1, 50, 0
1, 21552, Note_on_c, 1, 45, 69
1, 21593, Note_on_c, 0, 74, 0
1, 21597, Note_on_c, 1, 45, 0
1, 21600, Note_on_c, 1, 38, 69
1, 21645, Note_on_c, 1, 38, 0
1, 21648, Note_on_c, 0, 74, 69
1, 21693, Note_on_c, 0, 74, 0
1, 21696, Note_on_c, 0, 86, 77
1, 21696, Note_on_c, 1, 71, 77
1, 21719, Note_on_c, 0, 86, 0
1, 21720, Note_on_c, 0, 74, 75
1, 21741, Note_on_c, 1, 71, 0
1, 21743, Note_on_c, 0, 74, 0
1, 21744, Note_on_c, 0, 84, 74
1, 21744, Note_on_c, 1, 69, 75
1, 21767, Note_on_c, 0, 84, 0
1, 21768, Note_on_c, 0, 74, 73
1, 21789, Note_on_c, 1, 69, 0
1, 21791, Note_on_c, 0, 74, 0
1, 21792, Note_on_c, 0, 83, 72
1, 21792, Note_on_c, 1, 68, 73
1, 21812, Note_on_c, 0, 83, 0
1, 21837, Note_on_c, 1, 68, 0
1, 21840, Note_on_c, 0, 80, 70
1, 21840, Note_on_c, 1, 74, 71
1, 21863, Note_on_c, 0, 80, 0
1, 21864, Note_on_c, 0, 76, 69
1, 21885, Note_on_c, 1, 74, 0
1, 21887, Note_on_c, 0, 76, 0
1, 21888, Note_on_c, 0, 81, 70
1, 21888, Note_on_c, 1, 72, 69
1, 21911, Note_on_c, 0, 81, 0
1, 21912, Note_on_c, 0, 76, 71
1, 21933, Note_on_c, 1, 72, 0
1, 21935, Note_on_c, 0, 76, 0
1, 21936, Note_on_c, 0, 83, 72
1, 21936, Note_on_c, 1, 71, 71
1, 21959, Note_on_c, 0, 83, 0
1, 21960, Note_on_c, 0, 76, 73
1, 21981, Note_on_c, 1, 71, 0
1, 21983, Note_on_c, 0, 76, 0
1, 21984, Note_on_c, 0, 84, 74
1, 21984, Note_on_c, 1, 69, 74
1, 22004, Note_on_c, 0, 84, 0
1, 22029, Note_on_c, 1, 69, 0
1, 22032, Note_on_c, 0, 72, 77
1, 22077, Note_on_c, 0, 72, 0
1, 22080, Note_on_c, 0, 84, 77
1, 22080, Note_on_c, 1, 69, 77
1, 22103, Note_on_c, 0, 84, 0
1, 22104, Note_on_c, 0, 72, 75
1, 22125, Note_on_c, 1, 69, 0
1, 22127, Note_on_c, 0, 72, 0
1, 22128, Note_on_c, 0, 83, 74
1, 22128, Note_on_c, 1, 67, 75
1, 22151, Note_on_c, 0, 83, 0
1, 22152, Note_on_c, 0, 72, 73
1, 22173, Note_on_c, 1, 67, 0
1, 22175, Note_on_c, 0, 72, 0
1, 22176, Note_on_c, 0, 81, 72
1, 22176, Note_on_c, 1, 66, 73
1, 22196, Note_on_c, 0, 81, 0
1, 22221, Note_on_c, 1, 66, 0
1, 22224, Note_on_c, 0, 78, 70
1, 22224, Note_on_c, 1, 72, 71
1, 22247, Note_on_c, 0, 78, 0
1, 22248, Note_on_c, 0, 74, 69
1, 22269, Note_on_c, 1, 72, 0
1, 22271, Note_on_c, 0, 74, 0
1, 22272, Note_on_c, 0, 79, 70
1, 22272, Note_on_c, 1, 71, 69
1, 22295, Note_on_c, 0, 79, 0
1, 22296, Note_on_c, 0, 74, 71
1, 22317, Note_on_c, 1, 71, 0
1, 22319, Note_on_c, 0, 74, 0
1, 22320, Note_on_c, 0, 81, 72
1, 22320, Note_on_c, 1, 69, 71
1, 22343, Note_on_c, 0, 81, 0
1, 22344, Note_on_c, 0, 74, 73
1, 22365, Note_on_c, 1, 69, 0
1, 22367, Note_on_c, 0, 74, 0
1, 22368, Note_on_c, 0, 83, 74
1, 22368, Note_on_c, 1, 67, 74
1, 22388, Note_on_c, 0, 83, 0
1, 22413, Note_on_c, 1, 67, 0
1, 22416, Note_on_c, 0, 74, 77
1, 22416, Note_on_c, 1, 59, 77
1, 22439, Note_on_c, 0, 74, 0
1, 22440, Note_on_c, 0, 67, 77
1, 22461, Note_on_c, 1, 59, 0
1, 22463, Note_on_c, 0, 67, 0
1, 22464, Note_on_c, 0, 76, 77
1, 22464, Note_on_c, 1, 60, 77
1, 22487, Note_on_c, 0, 76, 0
1, 22488, Note_on_c, 0, 67, 77
1, 22509, Note_on_c, 1, 60, 0
1, 22511, Note_on_c, 0, 67, 0
1, 22512, Note_on_c, 0, 77, 77
1, 22512, Note_on_c, 1, 62, 77
1, 22535, Note_on_c, 0, 77, 0
1, 22536, Note_on_c, 0, 67, 77
1, 22557, Note_on_c, 1, 62, 0
1, 22559, Note_on_c, 0, 67, 0
1, 22560, Note_on_c, 0, 76, 78
1, 22560, Note_on_c, 1, 60, 78
1, 22580, Note_on_c, 0, 76, 0
1, 22605, Note_on_c, 1, 60, 0
1, 22608, Note_on_c, 0, 76, 78
1, 22608, Note_on_c, 1, 61, 78
1, 22631, Note_on_c, 0, 76, 0
1, 22632, Note_on_c, 0, 69, 79
1, 22653, Note_on_c, 1, 61, 0
1, 22655, Note_on_c, 0, 69, 0
1, 22656, Note_on_c, 0, 78, 79
1, 22656, Note_on_c, 1, 62, 79
1, 22679, Note_on_c, 0, 78, 0
1, 22680, Note_on_c, 0, 69, 79
1, 22701, Note_on_c, 1, 62, 0
1, 22703, Note_on_c, 0, 69, 0
1, 22704, Note_on_c, 0, 79, 80
1, 22704, Note_on_c, 1, 64, 79
1, 22727, Note_on_c, 0, 79, 0
1, 22728, Note_on_c, 0, 69, 80
1, 22749, Note_on_c, 1, 64, 0
1, 22751, Note_on_c, 0, 69, 0
1, 22752, Note_on_c, 0, 78, 80
1, 22752, Note_on_c, 1, 62, 80
1, 22772, Note_on_c, 0, 78, 0
1, 22797, Note_on_c, 1, 62, 0
1, 22800, Note_on_c, 0, 78, 81
1, 22800, Note_on_c, 1, 63, 81
1, 22823, Note_on_c, 0, 78, 0
1, 22824, Note_on_c, 0, 71, 81
1, 22845, Note_on_c, 1, 63, 0
1, 22847, Note_on_c, 0, 71, 0
1, 22848, Note_on_c, 0, 79, 82
1, 22848, Note_on_c, 1, 64, 81
1, 22871, Note_on_c, 0, 79, 0
1, 22872, Note_on_c, 0, 71, 82
1, 22895, Note_on_c, 0, 71, 0
1, 22896, Note_on_c, 0, 72, 82
1, 22919, Note_on_c, 0, 72, 0
1, 22920, Note_on_c, 0, 81, 83
1, 22937, Note_on_c, 1, 64, 0
1, 22943, Note_on_c, 0, 81, 0
1, 22944, Note_on_c, 0, 72, 83
1, 22944, Note_on_c, 1, 66, 82
1, 22989, Note_on_c, 0, 72, 0
1, 22989, Note_on_c, 1, 66, 0
1, 22992, Note_on_c, 0, 71, 84
1, 22992, Note_on_c, 1, 67, 83
1, 23037, Note_on_c, 0, 71, 0
1, 23037, Note_on_c, 1, 67, 0
1, 23040, Note_on_c, 0, 72, 84
1, 23040, Note_on_c, 1, 67, 83
1, 23040, Note_on_c, 1, 62, 83
1, 23055, Note_on_c, 0, 72, 0
1, 23056, Note_on_c, 0, 71, 85
1, 23071, Note_on_c, 0, 71, 0
1, 23072, Note_on_c, 0, 72, 85
1, 23087, Note_on_c, 0, 72, 0
1, 23088, Note_on_c, 0, 71, 85
1, 23103, Note_on_c, 0, 71, 0
1, 23104, Note_on_c, 0, 69, 85
1, 23119, Note_on_c, 0, 69, 0
1, 23120, Note_on_c, 0, 71, 85
1, 23135, Note_on_c, 0, 71, 0
1, 23136, Note_on_c, 0, 69, 85
1, 23136, Note_on_c, 1, 67, 0
1, 23136, Note_on_c, 1, 66, 85
1, 23181, Note_on_c, 0, 69, 0
1, 23181, Note_on_c, 1, 66, 0
1, 23181, Note_on_c, 1, 62, 0
1, 23184, Note_on_c, 0, 74, 77
1, 23229, Note_on_c, 0, 74, 0
1, 23232, Note_on_c, 0, 79, 77
1, 23232, Note_on_c, 1, 59, 77
1, 23232, Note_on_c, 1, 55, 77
1, 23255, Note_on_c, 0, 79, 0
1, 23256, Note_on_c, 0, 78, 76
1, 23279, Note_on_c, 0, 78, 0
1, 23280, Note_on_c, 0, 76, 75
1, 23303, Note_on_c, 0, 76, 0
1, 23304, Note_on_c, 0, 74, 74
1, 23321, Note_on_c, 1, 59, 0
1, 23321, Note_on_c, 1, 55, 0
1, 23327, Note_on_c, 0, 74, 0
1, 23328, Note_on_c, 0, 72, 73
1, 23351, Note_on_c, 0, 72, 0
1, 23352, Note_on_c, 0, 71, 72
1, 23375, Note_on_c, 0, 71, 0
1, 23376, Note_on_c, 0, 69, 71
1, 23399, Note_on_c, 0, 69, 0
1, 23400, Note_on_c, 0, 67, 70
1, 23423, Note_on_c, 0, 67, 0
1, 23424, Note_on_c, 0, 66, 69
1, 23424, Note_on_c, 1, 60, 77
1, 23424, Note_on_c, 1, 57, 77
1, 23447, Note_on_c, 0, 66, 0
1, 23448, Note_on_c, 0, 62, 70
1, 23469, Note_on_c, 1, 60, 0
1, 23469, Note_on_c, 1, 57, 0
1, 23471, Note_on_c, 0, 62, 0
1, 23472, Note_on_c, 0, 67, 71
1, 23472, Note_on_c, 1, 59, 79
1, 23472, Note_on_c, 1, 55, 79
1, 23495, Note_on_c, 0, 67, 0
1, 23496, Note_on_c, 0, 62, 72
1, 23517, Note_on_c, 1, 59, 0
1, 23517, Note_on_c, 1, 55, 0
1, 23519, Note_on_c, 0, 62, 0
1, 23520, Note_on_c, 0, 62, 73
1, 23520, Note_on_c, 1, 57, 81
1, 23520, Note_on_c, 1, 54, 81
1, 23543, Note_on_c, 0, 62, 0
1, 23544, Note_on_c, 0, 69, 74
1, 23565, Note_on_c, 1, 57, 0
1, 23565, Note_on_c, 1, 54, 0
1, 23567, Note_on_c, 0, 69, 0
1, 23568, Note_on_c, 0, 62, 75
1, 23568, Note_on_c, 1, 55, 83
1, 23568, Note_on_c, 1, 52, 83
1, 23591, Note_on_c, 0, 62, 0
1, 23592, Note_on_c, 0, 71, 76
1, 23613, Note_on_c, 1, 55, 0
1, 23613, Note_on_c, 1, 52, 0
1, 23615, Note_on_c, 0, 71, 0
1, 23616, Note_on_c, 0, 72, 77
1, 23616, Note_on_c, 1, 54, 85
1, 23616, Note_on_c, 1, 50, 85
1, 23639, Note_on_c, 0, 72, 0
1, 23640, Note_on_c, 0, 71, 76
1, 23663, Note_on_c, 0, 71, 0
1, 23664, Note_on_c, 0, 69, 75
1, 23687, Note_on_c, 0, 69, 0
1, 23688, Note_on_c, 0, 67, 74
1, 23705, Note_on_c, 1, 54, 0
1, 23705, Note_on_c, 1, 50, 0
1, 23711, Note_on_c, 0, 67, 0
1, 23712, Note_on_c, 0, 66, 73
1, 23735, Note_on_c, 0, 66, 0
1, 23736, Note_on_c, 0, 64, 72
1, 23759, Note_on_c, 0, 64, 0
1, 23760, Note_on_c, 0, 62, 71
1, 23783, Note_on_c, 0, 62, 0
1, 23784, Note_on_c, 0, 60, 70
1, 23807, Note_on_c, 0, 60, 0
1, 23808, Note_on_c, 0, 59, 69
1, 23808, Note_on_c, 1, 43, 77
1, 23831, Note_on_c, 0, 59, 0
1, 23832, Note_on_c, 0, 55, 70
1, 23853, Note_on_c, 1, 43, 0
1, 23855, Note_on_c, 0, 55, 0
1, 23856, Note_on_c, 0, 60, 71
1, 23856, Note_on_c, 1, 45, 79
1, 23879, Note_on_c, 0, 60, 0
1, 23880, Note_on_c, 0, 55, 72
1, 23901, Note_on_c, 1, 45, 0
1, 23903, Note_on_c, 0, 55, 0
1, 23904, Note_on_c, 0, 62, 73
1, 23904, Note_on_c, 1, 47, 81
1, 23927, Note_on_c, 0, 62, 0
1, 23928, Note_on_c, 0, 55, 74
1, 23949, Note_on_c, 1, 47, 0
1, 23951, Note_on_c, 0, 55, 0
1, 23952, Note_on_c, 0, 59, 75
1, 23952, Note_on_c, 1, 43, 83
1, 23975, Note_on_c, 0, 59, 0
1, 23976, Note_on_c, 0, 55, 76
1, 23997, Note_on_c, 1, 43, 0
1, 23999, Note_on_c, 0, 55, 0
1, 24000, Note_on_c, 0, 64, 77
1, 24000, Note_on_c, 1, 48, 85
1, 24023, Note_on_c, 0, 64, 0
1, 24024, Note_on_c, 0, 55, 78
1, 24045, Note_on_c, 1, 48, 0
1, 24047, Note_on_c, 0, 55, 0
1, 24048, Note_on_c, 0, 63, 79
1, 24048, Note_on_c, 1, 47, 86
1, 24071, Note_on_c, 0, 63, 0
1, 24072, Note_on_c, 0, 55, 80
1, 24093, Note_on_c, 1, 47, 0
1, 24095, Note_on_c, 0, 55, 0
1, 24096, Note_on_c, 0, 64, 81
1, 24096, Note_on_c, 1, 48, 88
1, 24119, Note_on_c, 0, 64, 0
1, 24120, Note_on_c, 0, 55, 82
1, 24141, Note_on_c, 1, 48, 0
1, 24143, Note_on_c, 0, 55, 0
1, 24144, Note_on_c, 0, 66, 83
1, 24144, Note_on_c, 1, 45, 89
1, 24167, Note_on_c, 0, 66, 0
1, 24168, Note_on_c, 0, 55, 84
1, 24189, Note_on_c, 1, 45, 0
1, 24191, Note_on_c, 0, 55, 0
1, 24192, Note_on_c, 0, 67, 85
1, 24192, Note_on_c, 1, 47, 91
1, 24215, Note_on_c, 0, 67, 0
1, 24216, Note_on_c, 0, 66, 84
1, 24239, Note_on_c, 0, 66, 0
1, 24240, Note_on_c, 0, 64, 84
1, 24263, Note_on_c, 0, 64, 0
1, 24264, Note_on_c, 0, 62, 83
1, 24281, Note_on_c, 1, 47, 0
1, 24287, Note_on_c, 0, 62, 0
1, 24288, Note_on_c, 0, 60, 83
1, 24311, Note_on_c, 0, 60, 0
1, 24312, Note_on_c, 0, 59, 82
1, 24335, Note_on_c, 0, 59, 0
1, 24336, Note_on_c, 0, 57, 82
1, 24359, Note_on_c, 0, 57, 0
1, 24360, Note_on_c, 0, 55, 81
1, 24383, Note_on_c, 0, 55, 0
1, 24384, Note_on_c, 0, 57, 81
1, 24429, Note_on_c, 0, 57, 0
1, 24432, Note_on_c, 0, 60, 80
1, 24432, Note_on_c, 1, 48, 87
1, 24455, Note_on_c, 0, 60, 0
1, 24456, Note_on_c, 0, 57, 79
1, 24477, Note_on_c, 1, 48, 0
1, 24479, Note_on_c, 0, 57, 0
1, 24480, Note_on_c, 0, 59, 79
1, 24480, Note_on_c, 1, 50, 86
1, 24503, Note_on_c, 0, 59, 0
1, 24504, Note_on_c, 0, 55, 78
1, 24525, Note_on_c, 1, 50, 0
1, 24527, Note_on_c, 0, 55, 0
1, 24528, Note_on_c, 0, 57, 78
1, 24528, Note_on_c, 1, 38, 85
1, 24551, Note_on_c, 0, 57, 0
1, 24552, Note_on_c, 0, 54, 77
1, 24573, Note_on_c, 1, 38, 0
1, 24575, Note_on_c, 0, 54, 0
1, 24576, Note_on_c, 0, 55, 77
1, 24576, Note_on_c, 1, 43, 85
1, 24621, Note_on_c, 1, 43, 0
1, 24624, Note_on_c, 1, 38, 85
1, 24665, Note_on_c, 0, 55, 0
1, 24669, Note_on_c, 1, 38, 0
1, 24672, Note_on_c, 1, 31, 85
1, 24717, Note_on_c, 1, 31, 0
1, 24720, Note_on_c, 0, 71, 77
1, 24765, Note_on_c, 0, 71, 0
1, 24768, Note_on_c, 0, 86, 77
1, 24768, Note_on_c, 1, 71, 77
1, 24791, Note_on_c, 0, 86, 0
1, 24792, Note_on_c, 0, 74, 75
1, 24813, Note_on_c, 1, 71, 0
1, 24815, Note_on_c, 0, 74, 0
1, 24816, Note_on_c, 0, 84, 74
1, 24816, Note_on_c, 1, 69, 75
1, 24839, Note_on_c, 0, 84, 0
1, 24840, Note_on_c, 0, 74, 73
1, 24861, Note_on_c, 1, 69, 0
1, 24863, Note_on_c, 0, 74, 0
1, 24864, Note_on_c, 0, 83, 72
1, 24864, Note_on_c, 1, 68, 73
1, 24884, Note_on_c, 0, 83, 0
1, 24909, Note_on_c, 1, 68, 0
1, 24912, Note_on_c, 0, 80, 70
1, 24912, Note_on_c, 1, 74, 71
1, 24935, Note_on_c, 0, 80, 0
1, 24936, Note_on_c, 0, 76, 69
1, 24957, Note_on_c, 1, 74, 0
1, 24959, Note_on_c, 0, 76, 0
1, 24960, Note_on_c, 0, 81, 70
1, 24960, Note_on_c, 1, 72, 69
1, 24983, Note_on_c, 0, 81, 0
1, 24984, Note_on_c, 0, 76, 71
1, 25005, Note_on_c, 1, 72, 0
1, 25007, Note_on_c, 0, 76, 0
1, 25008, Note_on_c, 0, 83, 72
1, 25008, Note_on_c, 1, 71, 71
1, 25031, Note_on_c, 0, 83, 0
1, 25032, Note_on_c, 0, 76, 73
1, 25053, Note_on_c, 1, 71, 0
1, 25055, Note_on_c, 0, 76, 0
1, 25056, Note_on_c, 0, 84, 74
1, 25056, Note_on_c, 1, 69, 74
1, 25076, Note_on_c, 0, 84, 0
1, 25101, Note_on_c, 1, 69, 0
1, 25104, Note_on_c, 0, 72, 77
1, 25149, Note_on_c, 0, 72, 0
1, 25152, Note_on_c, 0, 84, 77
1, 25152, Note_on_c, 1, 69, 77
1, 25175, Note_on_c, 0, 84, 0
1, 25176, Note_on_c, 0, 72, 75
1, 25197, Note_on_c, 1, 69, 0
1, 25199, Note_on_c, 0, 72, 0
1, 25200, Note_on_c, 0, 83, 74
1, 25200, Note_on_c, 1, 67, 75
1, 25223, Note_on_c, 0, 83, 0
1, 25224, Note_on_c, 0, 72, 73
1, 25245, Note_on_c, 1, 67, 0
1, 25247, Note_on_c, 0, 72, 0
1, 25248, Note_on_c, 0, 81, 72
1, 25248, Note_on_c, 1, 66, 73
1, 25268, Note_on_c, 0, 81, 0
1, 25293, Note_on_c, 1, 66, 0
1, 25296, Note_on_c, 0, 78, 70
1, 25296, Note_on_c, 1, 72, 71
1, 25319, Note_on_c, 0, 78, 0
1, 25320, Note_on_c, 0, 74, 69
1, 25341, Note_on_c, 1, 72, 0
1, 25343, Note_on_c, 0, 74, 0
1, 25344, Note_on_c, 0, 79, 70
1, 25344, Note_on_c, 1, 71, 69
1, 25367, Note_on_c, 0, 79, 0
1, 25368, Note_on_c, 0, 74, 71
1, 25389, Note_on_c, 1, 71, 0
1, 25391, Note_on_c, 0, 74, 0
1, 25392, Note_on_c, 0, 81, 72
1, 25392, Note_on_c, 1, 69, 71
1, 25415, Note_on_c, 0, 81, 0
1, 25416, Note_on_c, 0, 74, 73
1, 25437, Note_on_c, 1, 69, 0
1, 25439, Note_on_c, 0, 74, 0
1, 25440, Note_on_c, 0, 83, 74
1, 25440, Note_on_c, 1, 67, 74
1, 25460, Note_on_c, 0, 83, 0
1, 25485, Note_on_c, 1, 67, 0
1, 25488, Note_on_c, 0, 74, 77
1, 25488, Note_on_c, 1, 59, 77
1, 25511, Note_on_c, 0, 74, 0
1, 25512, Note_on_c, 0, 67, 77
1, 25533, Note_on_c, 1, 59, 0
1, 25535, Note_on_c, 0, 67, 0
1, 25536, Note_on_c, 0, 76, 77
1, 25536, Note_on_c, 1, 60, 77
1, 25559, Note_on_c, 0, 76, 0
1, 25560, Note_on_c, 0, 67, 77
1, 25581, Note_on_c, 1, 60, 0
1, 25583, Note_on_c, 0, 67, 0
1, 25584, Note_on_c, 0, 77, 77
1, 25584, Note_on_c, 1, 62, 77
1, 25607, Note_on_c, 0, 77, 0
1, 25608, Note_on_c, 0, 67, 77
1, 25629, Note_on_c, 1, 62, 0
1, 25631, Note_on_c, 0, 67, 0
1, 25632, Note_on_c, 0, 76, 78
1, 25632, Note_on_c, 1, 60, 78
1, 25652, Note_on_c, 0, 76, 0
1, 25677, Note_on_c, 1, 60, 0
1, 25680, Note_on_c, 0, 76, 78
1, 25680, Note_on_c, 1, 61, 78
1, 25703, Note_on_c, 0, 76, 0
1, 25704, Note_on_c, 0, 69, 79
1, 25725, Note_on_c, 1, 61, 0
1, 25727, Note_on_c, 0, 69, 0
1, 25728, Note_on_c, 0, 78, 79
1, 25728, Note_on_c, 1, 62, 79
1, 25751, Note_on_c, 0, 78, 0
1, 25752, Note_on_c, 0, 69, 79
1, 25773, Note_on_c, 1, 62, 0
1, 25775, Note_on_c, 0, 69, 0
1, 25776, Note_on_c, 0, 79, 80
1, 25776, Note_on_c, 1, 64, 79
1, 25799, Note_on_c, 0, 79, 0
1, 25800, Note_on_c, 0, 69, 80
1, 25821, Note_on_c, 1, 64, 0
1, 25823, Note_on_c, 0, 69, 0
1, 25824, Note_on_c, 0, 78, 80
1, 25824, Note_on_c, 1, 62, 80
1, 25844, Note_on_c, 0, 78, 0
1, 25869, Note_on_c, 1, 62, 0
1, 25872, Note_on_c, 0, 78, 81
1, 25872, Note_on_c, 1, 63, 81
1, 25895, Note_on_c, 0, 78, 0
1, 25896, Note_on_c, 0, 71, 81
1, 25917, Note_on_c, 1, 63, 0
1, 25919, Note_on_c, 0, 71, 0
1, 25920, Note_on_c, 0, 79, 82
1, 25920, Note_on_c, 1, 64, 81
1, 25943, Note_on_c, 0, 79, 0
1, 25944, Note_on_c, 0, 71, 82
1, 25967, Note_on_c, 0, 71, 0
1, 25968, Note_on_c, 0, 72, 82
1, 25991, Note_on_c, 0, 72, 0
1, 25992, Note_on_c, 0, 81, 83
1, 26009, Note_on_c, 1, 64, 0
1, 26015, Note_on_c, 0, 81, 0
1, 26016, Note_on_c, 0, 72, 83
1, 26016, Note_on_c, 1, 66, 82
1, 26061, Note_on_c, 0, 72, 0
1, 26061, Note_on_c, 1, 66, 0
1, 26064, Note_on_c, 0, 71, 84
1, 26064, Note_on_c, 1, 67, 83
1, 26109, Note_on_c, 0, 71, 0
1, 26109, Note_on_c, 1, 67, 0
1, 26112, Note_on_c, 0, 72, 84
1, 26112, Note_on_c, 1, 67, 83
1, 26112, Note_on_c, 1, 62, 83
1, 26127, Note_on_c, 0, 72, 0
1, 26128, Note_on_c, 0, 71, 85
1, 26143, Note_on_c, 0, 71, 0
1, 26144, Note_on_c, 0, 72, 85
1, 26159, Note_on_c, 0, 72, 0
1, 26160, Note_on_c, 0, 71, 85
1, 26175, Note_on_c, 0, 71, 0
1, 26176, Note_on_c, 0, 69, 85
1, 26191, Note_on_c, 0, 69, 0
1, 26192, Note_on_c, 0, 71, 85
1, 26207, Note_on_c, 0, 71, 0
1, 26208, Note_on_c, 0, 69, 85
1, 26208, Note_on_c, 1, 67, 0
1, 26208, Note_on_c, 1, 66, 85
1, 26253, Note_on_c, 0, 69, 0
1, 26253, Note_on_c, 1, 66, 0
1, 26253, Note_on_c, 1, 62, 0
1, 26256, Note_on_c, 0, 74, 77
1, 26301, Note_on_c, 0, 74, 0
1, 26304, Note_on_c, 0, 79, 77
1, 26304, Note_on_c, 1, 59, 77
1, 26304, Note_on_c, 1, 55, 77
1, 26327, Note_on_c, 0, 79, 0
1, 26328, Note_on_c, 0, 78, 76
1, 26351, Note_on_c, 0, 78, 0
1, 26352, Note_on_c, 0, 76, 75
1, 26375, Note_on_c, 0, 76, 0
1, 26376, Note_on_c, 0, 74, 74
1, 26393, Note_on_c, 1, 59, 0
1, 26393, Note_on_c, 1, 55, 0
1, 26399, Note_on_c, 0, 74, 0
1, 26400, Note_on_c, 0, 72, 73
1, 26423, Note_on_c, 0, 72, 0
1, 26424, Note_on_c, 0, 71, 72
1, 26447, Note_on_c, 0, 71, 0
1, 26448, Note_on_c, 0, 69, 71
1, 26471, Note_on_c, 0, 69, 0
1, 26472, Note_on_c, 0, 67, 70
1, 26495, Note_on_c, 0, 67, 0
1, 26496, Note_on_c, 0, 66, 69
1, 26496, Note_on_c, 1, 60, 77
1, 26496, Note_on_c, 1, 57, 77
1, 26519, Note_on_c, 0, 66, 0
1, 26520, Note_on_c, 0, 62, 70
1, 26541, Note_on_c, 1, 60, 0
1, 26541, Note_on_c, 1, 57, 0
1, 26543, Note_on_c, 0, 62, 0
1, 26544, Note_on_c, 0, 67, 71
1, 26544, Note_on_c, 1, 59, 79
1, 26544, Note_on_c, 1, 55, 79
1, 26567, Note_on_c, 0, 67, 0
1, 26568, Note_on_c, 0, 62, 72
1, 26589, Note_on_c, 1, 59, 0
1, 26589, Note_on_c, 1, 55, 0
1, 26591, Note_on_c, 0, 62, 0
1, 26592, Note_on_c, 0, 62, 73
1, 26592, Note_on_c, 1, 57, 81
1, 26592, Note_on_c, 1, 54, 81
1, 26615, Note_on_c, 0, 62, 0
1, 26616, Note_on_c, 0, 69, 74
1, 26637, Note_on_c, 1, 57, 0
1, 26637, Note_on_c, 1, 54, 0
1, 26639, Note_on_c, 0, 69, 0
1, 26640, Note_on_c, 0, 62, 75
1, 26640, Note_on_c, 1, 55, 83
1, 26640, Note_on_c, 1, 52, 83
1, 26663, Note_on_c, 0, 62, 0
1, 26664, Note_on_c, 0, 71, 76
1, 26685, Note_on_c, 1, 55, 0
1, 26685, Note_on_c, 1, 52, 0
1, 26687, Note_on_c, 0, 71, 0
1, 26688, Note_on_c, 0, 72, 77
1, 26688, Note_on_c, 1, 54, 85
1, 26688, Note_on_c, 1, 50, 85
1, 26711, Note_on_c, 0, 72, 0
1, 26712, Note_on_c, 0, 71, 76
1, 26735, Note_on_c, 0, 71, 0
1, 26736, Note_on_c, 0, 69, 75
1, 26759, Note_on_c, 0, 69, 0
1, 26760, Note_on_c, 0, 67, 74
1, 26777, Note_on_c, 1, 54, 0
1, 26777, Note_on_c, 1, 50, 0
1, 26783, Note_on_c, 0, 67, 0
1, 26784, Note_on_c, 0, 66, 73
1, 26807, Note_on_c, 0, 66, 0
1, 26808, Note_on_c, 0, 64, 72
1, 26831, Note_on_c, 0, 64, 0
1, 26832, Note_on_c, 0, 62, 71
1, 26855, Note_on_c, 0, 62, 0
1, 26856, Note_on_c, 0, 60, 70
1, 26879, Note_on_c, 0, 60, 0
1, 26880, Note_on_c, 0, 59, 69
1, 26880, Note_on_c, 1, 43, 77
1, 26903, Note_on_c, 0, 59, 0
1, 26904, Note_on_c, 0, 55, 70
1, 26925, Note_on_c, 1, 43, 0
1, 26927, Note_on_c, 0, 55, 0
1, 26928, Note_on_c, 0, 60, 71
1, 26928, Note_on_c, 1, 45, 79
1, 26951, Note_on_c, 0, 60, 0
1, 26952, Note_on_c, 0, 55, 72
1, 26973, Note_on_c, 1, 45, 0
1, 26975, Note_on_c, 0, 55, 0
1, 26976, Note_on_c, 0, 62, 73
1, 26976, Note_on_c, 1, 47, 81
1, 26999, Note_on_c, 0, 62, 0
1, 27000, Note_on_c, 0, 55, 74
1, 27021, Note_on_c, 1, 47, 0
1, 27023, Note_on_c, 0, 55, 0
1, 27024, Note_on_c, 0, 59, 75
1, 27024, Note_on_c, 1, 43, 83
1, 27047, Note_on_c, 0, 59, 0
1, 27048, Note_on_c, 0, 55, 76
1, 27069, Note_on_c, 1, 43, 0
1, 27071, Note_on_c, 0, 55, 0
1, 27072, Note_on_c, 0, 64, 77
1, 27072, Note_on_c, 1, 48, 85
1, 27095, Note_on_c, 0, 64, 0
1, 27096, Note_on_c, 0, 55, 78
1, 27117, Note_on_c, 1, 48, 0
1, 27119, Note_on_c, 0, 55, 0
1, 27120, Note_on_c, 0, 63, 79
1, 27120, Note_on_c, 1, 47, 86
1, 27143, Note_on_c, 0, 63, 0
1, 27144, Note_on_c, 0, 55, 80
1, 27165, Note_on_c, 1, 47, 0
1, 27167, Note_on_c, 0, 55, 0
1, 27168, Note_on_c, 0, 64, 81
1, 27168, Note_on_c, 1, 48, 88
1, 27191, Note_on_c, 0, 64, 0
1, 27192, Note_on_c, 0, 55, 82
1, 27213, Note_on_c, 1, 48, 0
1, 27215, Note_on_c, 0, 55, 0
1, 27216, Note_on_c, 0, 66, 83
1, 27216, Note_on_c, 1, 45, 89
1, 27239, Note_on_c, 0, 66, 0
1, 27240, Note_on_c, 0, 55, 84
1, 27261, Note_on_c, 1, 45, 0
1, 27263, Note_on_c, 0, 55, 0
1, 27264, Note_on_c, 0, 67, 85
1, 27264, Note_on_c, 1, 47, 91
1, 27287, Note_on_c, 0, 67, 0
1, 27288, Note_on_c, 0, 66, 84
1, 27311, Note_on_c, 0, 66, 0
1, 27312, Note_on_c, 0, 64, 84
1, 27335, Note_on_c, 0, 64, 0
1, 27336, Note_on_c, 0, 62, 83
1, 27353, Note_on_c, 1, 47, 0
1, 27359, Note_on_c, 0, 62, 0
1, 27360, Note_on_c, 0, 60, 83
1, 27383, Note_on_c, 0, 60, 0
1, 27384, Note_on_c, 0, 59, 82
1, 27407, Note_on_c, 0, 59, 0
1, 27408, Note_on_c, 0, 57, 82
1, 27431, Note_on_c, 0, 57, 0
1, 27432, Note_on_c, 0, 55, 81
1, 27455, Note_on_c, 0, 55, 0
1, 27456, Note_on_c, 0, 57, 81
1, 27501, Note_on_c, 0, 57, 0
1, 27504, Note_on_c, 0, 60, 80
1, 27504, Note_on_c, 1, 48, 87
1, 27527, Note_on_c, 0, 60, 0
1, 27528, Note_on_c, 0, 57, 79
1, 27549, Note_on_c, 1, 48, 0
1, 27551, Note_on_c, 0, 57, 0
1, 27552, Note_on_c, 0, 59, 79
1, 27552, Note_on_c, 1, 50, 86
1, 27575, Note_on_c, 0, 59, 0
1, 27576, Note_on_c, 0, 55, 78
1, 27597, Note_on_c, 1, 50, 0
1, 27599, Note_on_c, 0, 55, 0
1, 27600, Note_on_c, 0, 57, 78
1, 27600, Note_on_c, 1, 38, 85
1, 27623, Note_on_c, 0, 57, 0
1, 27624, Note_on_c, 0, 54, 77
1, 27645, Note_on_c, 1, 38, 0
1, 27647, Note_on_c, 0, 54, 0
1, 27648, Note_on_c, 0, 55, 77
1, 27648, Note_on_c, 1, 43, 85
1, 27693, Note_on_c, 1, 43, 0
1, 27696, Note_on_c, 1, 38, 85
1, 27737, Note_on_c, 0, 55, 0
1, 27741, Note_on_c, 1, 38, 0
1, 27744, Note_on_c, 1, 31, 85
1, 27789, Note_on_c, 1, 31, 0
1, 27792, Note_on_c, 0, 62, 77
1, 27837, Note_on_c, 0, 62, 0
1, 27840, Note_on_c, 0, 67, 77
1, 27885, Note_on_c, 0, 67, 0
1, 27888, Note_on_c, 0, 71, 79
1, 27933, Note_on_c, 0, 71, 0
1, 27936, Note_on_c, 0, 74, 81
1, 27981, Note_on_c, 0, 74, 0
1, 27984, Note_on_c, 0, 67, 83
1, 27984, Note_on_c, 1, 62, 85
1, 27984, Note_on_c, 1, 59, 85
1, 28029, Note_on_c, 0, 67, 0
1, 28029, Note_on_c, 1, 62, 0
1, 28029, Note_on_c, 1, 59, 0
1, 28032, Note_on_c, 0, 67, 101
1, 28032, Note_on_c, 1, 60, 85
1, 28032, Note_on_c, 1, 57, 85
1, 28121, Note_on_c, 1, 60, 0
1, 28121, Note_on_c, 1, 57, 0
1, 28128, Note_on_c, 0, 67, 0
1, 28128, Note_on_c, 0, 66, 81
1, 28173, Note_on_c, 0, 66, 0
1, 28176, Note_on_c, 0, 62, 79
1, 28221, Note_on_c, 0, 62, 0
1, 28224, Note_on_c, 0, 69, 77
1, 28269, Note_on_c, 0, 69, 0
1, 28272, Note_on_c, 0, 72, 79
1, 28317, Note_on_c, 0, 72, 0
1, 28320, Note_on_c, 0, 76, 82
1, 28365, Note_on_c, 0, 76, 0
1, 28368, Note_on_c, 0, 72, 85
1, 28368, Note_on_c, 0, 69, 85
1, 28368, Note_on_c, 1, 54, 85
1, 28413, Note_on_c, 0, 72, 0
1, 28413, Note_on_c, 0, 69, 0
1, 28413, Note_on_c, 1, 54, 0
1, 28416, Note_on_c, 0, 72, 99
1, 28416, Note_on_c, 0, 69, 99
1, 28416, Note_on_c, 1, 55, 85
1, 28505, Note_on_c, 1, 55, 0
1, 28512, Note_on_c, 0, 72, 0
1, 28512, Note_on_c, 0, 69, 0
1, 28512, Note_on_c, 0, 71, 79
1, 28512, Note_on_c, 0, 67, 79
1, 28512, Note_on_c, 1, 43, 85
1, 28557, Note_on_c, 0, 71, 0
1, 28557, Note_on_c, 0, 67, 0
1, 28560, Note_on_c, 0, 71, 69
1, 28601, Note_on_c, 1, 43, 0
1, 28605, Note_on_c, 0, 71, 0
1, 28608, Note_on_c, 0, 83, 69
1, 28608, Note_on_c, 1, 67, 69
1, 28656, Note_on_c, 0, 83, 0
1, 28656, Note_on_c, 0, 79, 69
1, 28697, Note_on_c, 1, 67, 0
1, 28701, Note_on_c, 0, 79, 0
1, 28704, Note_on_c, 0, 75, 69
1, 28752, Note_on_c, 0, 75, 0
1, 28752, Note_on_c, 0, 76, 69
1, 28752, Note_on_c, 1, 67, 69
1, 28797, Note_on_c, 0, 76, 0
1, 28797, Note_on_c, 1, 67, 0
1, 28800, Note_on_c, 0, 81, 69
1, 28800, Note_on_c, 1, 66, 69
1, 28848, Note_on_c, 0, 81, 0
1, 28848, Note_on_c, 0, 78, 69
1, 28889, Note_on_c, 1, 66, 0
1, 28893, Note_on_c, 0, 78, 0
1, 28896, Note_on_c, 0, 73, 69
1, 28944, Note_on_c, 0, 73, 0
1, 28944, Note_on_c, 0, 74, 69
1, 28944, Note_on_c, 1, 66, 69
1, 28989, Note_on_c, 0, 74, 0
1, 28989, Note_on_c, 1, 66, 0
1, 28992, Note_on_c, 0, 76, 69
1, 28992, Note_on_c, 1, 67, 69
1, 29037, Note_on_c, 0, 76, 0
1, 29040, Note_on_c, 0, 79, 85
1, 29081, Note_on_c, 1, 67, 0
1, 29088, Note_on_c, 1, 69, 69
1, 29136, Note_on_c, 0, 79, 0
1, 29136, Note_on_c, 0, 73, 69
1, 29177, Note_on_c, 1, 69, 0
1, 29181, Note_on_c, 0, 73, 0
1, 29184, Note_on_c, 0, 74, 69
1, 29184, Note_on_c, 1, 62, 69
1, 29196, Note_on_c, 0, 74, 0
1, 29196, Note_on_c, 0, 72, 69
1, 29208, Note_on_c, 0, 72, 0
1, 29208, Note_on_c, 0, 74, 69
1, 29273, Note_on_c, 1, 62, 0
1, 29275, Note_on_c, 0, 74, 0
1, 29280, Note_on_c, 1, 50, 69
1, 29325, Note_on_c, 1, 50, 0
1, 29328, Note_on_c, 0, 62, 77
1, 29373, Note_on_c, 0, 62, 0
1, 29376, Note_on_c, 0, 67, 77
1, 29421, Note_on_c, 0, 67, 0
1, 29424, Note_on_c, 0, 70, 79
1, 29469, Note_on_c, 0, 70, 0
1, 29472, Note_on_c, 0, 74, 81
1, 29517, Note_on_c, 0, 74, 0
1, 29520, Note_on_c, 0, 67, 83
1, 29520, Note_on_c, 1, 62, 77
1, 29520, Note_on_c, 1, 58, 77
1, 29565, Note_on_c, 0, 67, 0
1, 29565, Note_on_c, 1, 62, 0
1, 29565, Note_on_c, 1, 58, 0
1, 29568, Note_on_c, 0, 67, 101
1, 29568, Note_on_c, 1, 60, 77
1, 29568, Note_on_c, 1, 57, 77
1, 29657, Note_on_c, 1, 60, 0
1, 29657, Note_on_c, 1, 57, 0
1, 29664, Note_on_c, 0, 67, 0
1, 29664, Note_on_c, 0, 66, 81
1, 29709, Note_on_c, 0, 66, 0
1, 29712, Note_on_c, 0, 62, 79
1, 29757, Note_on_c, 0, 62, 0
1, 29760, Note_on_c, 0, 69, 77
1, 29805, Note_on_c, 0, 69, 0
1, 29808, Note_on_c, 0, 72, 79
1, 29853, Note_on_c, 0, 72, 0
1, 29856, Note_on_c, 0, 75, 81
1, 29901, Note_on_c, 0, 75, 0
1, 29904, Note_on_c, 0, 72, 83
1, 29904, Note_on_c, 0, 69, 83
1, 29949, Note_on_c, 0, 72, 0
1, 29949, Note_on_c, 0, 69, 0
1, 29952, Note_on_c, 0, 72, 101
1, 29952, Note_on_c, 0, 69, 101
1, 30000, Note_on_c, 1, 54, 77
1, 30045, Note_on_c, 1, 54, 0
1, 30048, Note_on_c, 0, 72, 0
1, 30048, Note_on_c, 0, 69, 0
1, 30048, Note_on_c, 0, 70, 79
1, 30048, Note_on_c, 0, 67, 79
1, 30048, Note_on_c, 1, 55, 77
1, 30093, Note_on_c, 0, 70, 0
1, 30093, Note_on_c, 0, 67, 0
1, 30096, Note_on_c, 0, 67, 69
1, 30137, Note_on_c, 1, 55, 0
1, 30141, Note_on_c, 0, 67, 0
1, 30144, Note_on_c, 0, 70, 69
1, 30189, Note_on_c, 0, 70, 0
1, 30192, Note_on_c, 0, 74, 69
1, 30237, Note_on_c, 0, 74, 0
1, 30240, Note_on_c, 0, 75, 69
1, 30285, Note_on_c, 0, 75, 0
1, 30288, Note_on_c, 0, 82, 69
1, 30288, Note_on_c, 1, 67, 69
1, 30333, Note_on_c, 0, 82, 0
1, 30333, Note_on_c, 1, 67, 0
1, 30336, Note_on_c, 0, 81, 69
1, 30336, Note_on_c, 1, 65, 69
1, 30381, Note_on_c, 0, 81, 0
1, 30384, Note_on_c, 0, 73, 69
1, 30425, Note_on_c, 1, 65, 0
1, 30429, Note_on_c, 0, 73, 0
1, 30432, Note_on_c, 0, 74, 69
1, 30477, Note_on_c, 0, 74, 0
1, 30480, Note_on_c, 0, 81, 69
1, 30480, Note_on_c, 0, 77, 69
1, 30480, Note_on_c, 1, 65, 69
1, 30525, Note_on_c, 0, 81, 0
1, 30525, Note_on_c, 0, 77, 0
1, 30525, Note_on_c, 1, 65, 0
1, 30528, Note_on_c, 0, 79, 69
1, 30528, Note_on_c, 0, 76, 69
1, 30528, Note_on_c, 1, 67, 69
1, 30573, Note_on_c, 0, 79, 0
1, 30573, Note_on_c, 0, 76, 0
1, 30576, Note_on_c, 0, 77, 85
1, 30576, Note_on_c, 0, 74, 85
1, 30617, Note_on_c, 1, 67, 0
1, 30624, Note_on_c, 1, 69, 69
1, 30672, Note_on_c, 0, 77, 0
1, 30672, Note_on_c, 0, 74, 0
1, 30672, Note_on_c, 0, 76, 69
1, 30672, Note_on_c, 0, 73, 69
1, 30713, Note_on_c, 1, 69, 0
1, 30717, Note_on_c, 0, 76, 0
1, 30717, Note_on_c, 0, 73, 0
1, 30720, Note_on_c, 0, 74, 69
1, 30720, Note_on_c, 1, 62, 69
1, 30809, Note_on_c, 0, 74, 0
1, 30809, Note_on_c, 1, 62, 0
1, 30816, Note_on_c, 1, 50, 69
1, 30864, Note_on_c, 0, 74, 77
1, 30905, Note_on_c, 1, 50, 0
1, 30909, Note_on_c, 0, 74, 0
1, 30912, Note_on_c, 0, 77, 77
1, 30957, Note_on_c, 0, 77, 0
1, 30960, Note_on_c, 0, 68, 77
1, 31005, Note_on_c, 0, 68, 0
1, 31008, Note_on_c, 0, 67, 77
1, 31053, Note_on_c, 0, 67, 0
1, 31056, Note_on_c, 0, 74, 77
1, 31101, Note_on_c, 0, 74, 0
1, 31104, Note_on_c, 0, 65, 77
1, 31152, Note_on_c, 1, 59, 77
1, 31200, Note_on_c, 0, 65, 0
1, 31200, Note_on_c, 0, 63, 77
1, 31200, Note_on_c, 1, 59, 0
1, 31200, Note_on_c, 1, 60, 77
1, 31245, Note_on_c, 0, 63, 0
1, 31245, Note_on_c, 1, 60, 0
1, 31248, Note_on_c, 0, 75, 77
1, 31293, Note_on_c, 0, 75, 0
1, 31296, Note_on_c, 0, 67, 77
1, 31344, Note_on_c, 1, 61, 77
1, 31392, Note_on_c, 0, 67, 0
1, 31392, Note_on_c, 0, 66, 78
1, 31392, Note_on_c, 1, 61, 0
1, 31392, Note_on_c, 1, 62, 78
1, 31437, Note_on_c, 0, 66, 0
1, 31437, Note_on_c, 1, 62, 0
1, 31440, Note_on_c, 0, 81, 79
1, 31485, Note_on_c, 0, 81, 0
1, 31488, Note_on_c, 0, 72, 79
1, 31536, Note_on_c, 1, 66, 80
1, 31584, Note_on_c, 0, 72, 0
1, 31584, Note_on_c, 0, 70, 81
1, 31584, Note_on_c, 1, 66, 0
1, 31584, Note_on_c, 1, 67, 81
1, 31629, Note_on_c, 0, 70, 0
1, 31629, Note_on_c, 1, 67, 0
1, 31632, Note_on_c, 0, 74, 82
1, 31677, Note_on_c, 0, 74, 0
1, 31680, Note_on_c, 0, 75, 82
1, 31725, Note_on_c, 0, 75, 0
1, 31728, Note_on_c, 0, 79, 83
1, 31773, Note_on_c, 0, 79, 0
1, 31776, Note_on_c, 0, 82, 84
1, 31821, Note_on_c, 0, 82, 0
1, 31824, Note_on_c, 0, 74, 85
1, 31869, Note_on_c, 0, 74, 0
1, 31872, Note_on_c, 0, 73, 84
1, 31920, Note_on_c, 1, 55, 84
1, 31965, Note_on_c, 1, 55, 0
1, 31968, Note_on_c, 0, 73, 0
1, 31968, Note_on_c, 0, 74, 82
1, 31968, Note_on_c, 1, 54, 83
1, 32013, Note_on_c, 0, 74, 0
1, 32013, Note_on_c, 1, 54, 0
1, 32016, Note_on_c, 0, 72, 82
1, 32016, Note_on_c, 1, 66, 82
1, 32061, Note_on_c, 0, 72, 0
1, 32061, Note_on_c, 1, 66, 0
1, 32064, Note_on_c, 0, 70, 81
1, 32064, Note_on_c, 1, 67, 81
1, 32109, Note_on_c, 0, 70, 0
1, 32109, Note_on_c, 1, 67, 0
1, 32112, Note_on_c, 0, 67, 80
1, 32112, Note_on_c, 1, 58, 80
1, 32157, Note_on_c, 0, 67, 0
1, 32157, Note_on_c, 1, 58, 0
1, 32160, Note_on_c, 0, 69, 79
1, 32160, Note_on_c, 1, 60, 79
1, 32205, Note_on_c, 0, 69, 0
1, 32205, Note_on_c, 1, 60, 0
1, 32208, Note_on_c, 0, 66, 79
1, 32208, Note_on_c, 1, 62, 78
1, 32253, Note_on_c, 0, 66, 0
1, 32253, Note_on_c, 1, 62, 0
1, 32256, Note_on_c, 0, 67, 78
1, 32256, Note_on_c, 1, 55, 77
1, 32301, Note_on_c, 1, 55, 0
1, 32304, Note_on_c, 1, 50, 77
1, 32345, Note_on_c, 0, 67, 0
1, 32349, Note_on_c, 1, 50, 0
1, 32352, Note_on_c, 1, 43, 77
1, 32397, Note_on_c, 1, 43, 0
1, 32400, Note_on_c, 0, 74, 77
1, 32445, Note_on_c, 0, 74, 0
1, 32448, Note_on_c, 0, 77, 77
1, 32493, Note_on_c, 0, 77, 0
1, 32496, Note_on_c, 0, 68, 77
1, 32541, Note_on_c, 0, 68, 0
1, 32544, Note_on_c, 0, 67, 77
1, 32589, Note_on_c, 0, 67, 0
1, 32592, Note_on_c, 0, 74, 77
1, 32637, Note_on_c, 0, 74, 0
1, 32640, Note_on_c, 0, 65, 77
1, 32688, Note_on_c, 1, 59, 77
1, 32736, Note_on_c, 0, 65, 0
1, 32736, Note_on_c, 0, 63, 77
1, 32736, Note_on_c, 1, 59, 0
1, 32736, Note_on_c, 1, 60, 77
1, 32781, Note_on_c, 0, 63, 0
1, 32781, Note_on_c, 1, 60, 0
1, 32784, Note_on_c, 0, 75, 77
1, 32829, Note_on_c, 0, 75, 0
1, 32832, Note_on_c, 0, 67, 77
1, 32880, Note_on_c, 1, 61, 77
1, 32928, Note_on_c, 0, 67, 0
1, 32928, Note_on_c, 0, 66, 78
1, 32928, Note_on_c, 1, 61, 0
1, 32928, Note_on_c, 1, 62, 78
1, 32973, Note_on_c, 0, 66, 0
1, 32973, Note_on_c, 1, 62, 0
1, 32976, Note_on_c, 0, 81, 79
1, 33021, Note_on_c, 0, 81, 0
1, 33024, Note_on_c, 0, 72, 80
1, 33072, Note_on_c, 1, 66, 80
1, 33120, Note_on_c, 0, 72, 0
1, 33120, Note_on_c, 0, 70, 81
1, 33120, Note_on_c, 1, 66, 0
1, 33120, Note_on_c, 1, 67, 81
1, 33165, Note_on_c, 0, 70, 0
1, 33165, Note_on_c, 1, 67, 0
1, 33168, Note_on_c, 0, 74, 82
1, 33213, Note_on_c, 0, 74, 0
1, 33216, Note_on_c, 0, 75, 83
1, 33261, Note_on_c, 0, 75, 0
1, 33264, Note_on_c, 0, 79, 84
1, 33309, Note_on_c, 0, 79, 0
1, 33312, Note_on_c, 0, 82, 85
1, 33357, Note_on_c, 0, 82, 0
1, 33360, Note_on_c, 0, 74, 84
1, 33405, Note_on_c, 0, 74, 0
1, 33408, Note_on_c, 0, 73, 83
1, 33456, Note_on_c, 1, 55, 84
1, 33501, Note_on_c, 1, 55, 0
1, 33504, Note_on_c, 0, 73, 0
1, 33504, Note_on_c, 0, 74, 81
1, 33504, Note_on_c, 1, 54, 83
1, 33549, Note_on_c, 0, 74, 0
1, 33549, Note_on_c, 1, 54, 0
1, 33552, Note_on_c, 0, 72, 81
1, 33552, Note_on_c, 1, 66, 82
1, 33597, Note_on_c, 0, 72, 0
1, 33597, Note_on_c, 1, 66, 0
1, 33600, Note_on_c, 0, 70, 80
1, 33600, Note_on_c, 1, 67, 81
1, 33645, Note_on_c, 0, 70, 0
1, 33645, Note_on_c, 1, 67, 0
1, 33648, Note_on_c, 0, 67, 79
1, 33648, Note_on_c, 1, 58, 80
1, 33693, Note_on_c, 0, 67, 0
1, 33693, Note_on_c, 1, 58, 0
1, 33696, Note_on_c, 0, 69, 78
1, 33696, Note_on_c, 1, 60, 79
1, 33741, Note_on_c, 0, 69, 0
1, 33741, Note_on_c, 1, 60, 0
1, 33744, Note_on_c, 0, 66, 77
1, 33744, Note_on_c, 1, 62, 78
1, 33789, Note_on_c, 0, 66, 0
1, 33789, Note_on_c, 1, 62, 0
1, 33792, Note_on_c, 0, 67, 77
1, 33792, Note_on_c, 1, 55, 77
1, 33837, Note_on_c, 1, 55, 0
1, 33840, Note_on_c, 1, 50, 77
1, 33881, Note_on_c, 0, 67, 0
1, 33885, Note_on_c, 1, 50, 0
1, 33888, Note_on_c, 1, 43, 77
1, 33933, Note_on_c, 1, 43, 0
1, 33936, Note_on_c, 0, 62, 77
1, 33981, Note_on_c, 0, 62, 0
1, 33984, Note_on_c, 0, 67, 77
1, 33984, Note_on_c, 1, 55, 77
1, 34007, Note_on_c, 1, 55, 0
1, 34008, Note_on_c, 1, 62, 77
1, 34029, Note_on_c, 0, 67, 0
1, 34031, Note_on_c, 1, 62, 0
1, 34032, Note_on_c, 0, 71, 79
1, 34032, Note_on_c, 1, 59, 77
1, 34055, Note_on_c, 1, 59, 0
1, 34056, Note_on_c, 1, 62, 77
1, 34077, Note_on_c, 0, 71, 0
1, 34079, Note_on_c, 1, 62, 0
1, 34080, Note_on_c, 0, 74, 81
1, 34080, Note_on_c, 1, 55, 77
1, 34103, Note_on_c, 1, 55, 0
1, 34104, Note_on_c, 1, 62, 77
1, 34125, Note_on_c, 0, 74, 0
1, 34127, Note_on_c, 1, 62, 0
1, 34128, Note_on_c, 0, 67, 83
1, 34128, Note_on_c, 1, 59, 77
1, 34151, Note_on_c, 1, 59, 0
1, 34152, Note_on_c, 1, 62, 77
1, 34173, Note_on_c, 0, 67, 0
1, 34175, Note_on_c, 1, 62, 0
1, 34176, Note_on_c, 0, 67, 101
1, 34176, Note_on_c, 1, 57, 77
1, 34199, Note_on_c, 1, 57, 0
1, 34200, Note_on_c, 1, 62, 77
1, 34223, Note_on_c, 1, 62, 0
1, 34224, Note_on_c, 1, 60, 77
1, 34247, Note_on_c, 1, 60, 0
1, 34248, Note_on_c, 1, 62, 77
1, 34271, Note_on_c, 1, 62, 0
1, 34272, Note_on_c, 0, 67, 0
1, 34272, Note_on_c, 0, 66, 81
1, 34272, Note_on_c, 1, 57, 77
1, 34295, Note_on_c, 1, 57, 0
1, 34296, Note_on_c, 1, 62, 77
1, 34317, Note_on_c, 0, 66, 0
1, 34319, Note_on_c, 1, 62, 0
1, 34320, Note_on_c, 0, 62, 79
1, 34320, Note_on_c, 1, 60, 77
1, 34343, Note_on_c, 1, 60, 0
1, 34344, Note_on_c, 1, 62, 77
1, 34365, Note_on_c, 0, 62, 0
1, 34367, Note_on_c, 1, 62, 0
1, 34368, Note_on_c, 0, 69, 77
1, 34368, Note_on_c, 1, 54, 77
1, 34391, Note_on_c, 1, 54, 0
1, 34392, Note_on_c, 1, 62, 77
1, 34413, Note_on_c, 0, 69, 0
1, 34415, Note_on_c, 1, 62, 0
1, 34416, Note_on_c, 0, 72, 79
1, 34416, Note_on_c, 1, 57, 77
1, 34439, Note_on_c, 1, 57, 0
1, 34440, Note_on_c, 1, 62, 77
1, 34461, Note_on_c, 0, 72, 0
1, 34463, Note_on_c, 1, 62, 0
1, 34464, Note_on_c, 0, 76, 81
1, 34464, Note_on_c, 1, 54, 77
1, 34487, Note_on_c, 1, 54, 0
1, 34488, Note_on_c, 1, 62, 77
1, 34509, Note_on_c, 0, 76, 0
1, 34511, Note_on_c, 1, 62, 0
1, 34512, Note_on_c, 0, 72, 83
1, 34512, Note_on_c, 1, 57, 77
1, 34535, Note_on_c, 1, 57, 0
1, 34536, Note_on_c, 1, 62, 77
1, 34557, Note_on_c, 0, 72, 0
1, 34559, Note_on_c, 1, 62, 0
1, 34560, Note_on_c, 0, 72, 101
1, 34560, Note_on_c, 1, 55, 77
1, 34583, Note_on_c, 1, 55, 0
1, 34584, Note_on_c, 1, 62, 77
1, 34607, Note_on_c, 1, 62, 0
1, 34608, Note_on_c, 1, 59, 77
1, 34631, Note_on_c, 1, 59, 0
1, 34632, Note_on_c, 1, 62, 77
1, 34655, Note_on_c, 1, 62, 0
1, 34656, Note_on_c, 0, 72, 0
1, 34656, Note_on_c, 0, 71, 79
1, 34656, Note_on_c, 1, 55, 77
1, 34679, Note_on_c, 1, 55, 0
1, 34680, Note_on_c, 1, 62, 77
1, 34701, Note_on_c, 0, 71, 0
1, 34703, Note_on_c, 1, 62, 0
1, 34704, Note_on_c, 0, 71, 77
1, 34704, Note_on_c, 1, 59, 77
1, 34727, Note_on_c, 1, 59, 0
1, 34728, Note_on_c, 1, 62, 77
1, 34749, Note_on_c, 0, 71, 0
1, 34751, Note_on_c, 1, 62, 0
1, 34752, Note_on_c, 0, 83, 77
1, 34752, Note_on_c, 1, 55, 77
1, 34775, Note_on_c, 1, 55, 0
1, 34776, Note_on_c, 1, 64, 77
1, 34799, Note_on_c, 1, 64, 0
1, 34800, Note_on_c, 0, 83, 0
1, 34800, Note_on_c, 0, 79, 78
1, 34800, Note_on_c, 1, 59, 77
1, 34823, Note_on_c, 1, 59, 0
1, 34824, Note_on_c, 1, 64, 77
1, 34845, Note_on_c, 0, 79, 0
1, 34847, Note_on_c, 1, 64, 0
1, 34848, Note_on_c, 0, 75, 79
1, 34848, Note_on_c, 1, 55, 77
1, 34871, Note_on_c, 1, 55, 0
1, 34872, Note_on_c, 1, 64, 77
1, 34895, Note_on_c, 1, 64, 0
1, 34896, Note_on_c, 0, 75, 0
1, 34896, Note_on_c, 0, 76, 80
1, 34896, Note_on_c, 1, 59, 77
1, 34919, Note_on_c, 1, 59, 0
1, 34920, Note_on_c, 1, 64, 77
1, 34941, Note_on_c, 0, 76, 0
1, 34943, Note_on_c, 1, 64, 0
1, 34944, Note_on_c, 0, 81, 81
1, 34944, Note_on_c, 1, 54, 77
1, 34967, Note_on_c, 1, 54, 0
1, 34968, Note_on_c, 1, 62, 77
1, 34991, Note_on_c, 1, 62, 0
1, 34992, Note_on_c, 0, 81, 0
1, 34992, Note_on_c, 0, 78, 82
1, 34992, Note_on_c, 1, 57, 77
1, 35015, Note_on_c, 1, 57, 0
1, 35016, Note_on_c, 1, 62, 77
1, 35037, Note_on_c, 0, 78, 0
1, 35039, Note_on_c, 1, 62, 0
1, 35040, Note_on_c, 0, 73, 83
1, 35040, Note_on_c, 1, 54, 77
1, 35063, Note_on_c, 1, 54, 0
1, 35064, Note_on_c, 1, 62, 77
1, 35087, Note_on_c, 1, 62, 0
1, 35088, Note_on_c, 0, 73, 0
1, 35088, Note_on_c, 0, 74, 84
1, 35088, Note_on_c, 1, 57, 77
1, 35111, Note_on_c, 1, 57, 0
1, 35112, Note_on_c, 1, 62, 77
1, 35133, Note_on_c, 0, 74, 0
1, 35135, Note_on_c, 1, 62, 0
1, 35136, Note_on_c, 0, 78, 85
1, 35136, Note_on_c, 1, 55, 77
1, 35142, Note_on_c, 0, 78, 0
1, 35142, Note_on_c, 0, 76, 85
1, 35148, Note_on_c, 0, 76, 0
1, 35148, Note_on_c, 0, 75, 85
1, 35154, Note_on_c, 0, 75, 0
1, 35154, Note_on_c, 0, 76, 85
1, 35184, Note_on_c, 0, 76, 0
1, 35184, Note_on_c, 0, 79, 83
1, 35225, Note_on_c, 1, 55, 0
1, 35229, Note_on_c, 0, 79, 0
1, 35232, Note_on_c, 1, 57, 77
1, 35280, Note_on_c, 0, 73, 81
1, 35280, Note_on_c, 0, 67, 81
1, 35321, Note_on_c, 1, 57, 0
1, 35325, Note_on_c, 0, 73, 0
1, 35325, Note_on_c, 0, 67, 0
1, 35328, Note_on_c, 0, 74, 79
1, 35328, Note_on_c, 0, 66, 79
1, 35328, Note_on_c, 1, 50, 77
1, 35351, Note_on_c, 1, 50, 0
1, 35352, Note_on_c, 1, 54, 77
1, 35375, Note_on_c, 1, 54, 0
1, 35376, Note_on_c, 1, 57, 77
1, 35399, Note_on_c, 1, 57, 0
1, 35400, Note_on_c, 1, 62, 77
1, 35417, Note_on_c, 0, 74, 0
1, 35417, Note_on_c, 0, 66, 0
1, 35423, Note_on_c, 1, 62, 0
1, 35424, Note_on_c, 1, 50, 77
1, 35469, Note_on_c, 1, 50, 0
1, 35472, Note_on_c, 0, 67, 77
1, 35495, Note_on_c, 0, 67, 0
1, 35496, Note_on_c, 0, 71, 77
1, 35519, Note_on_c, 0, 71, 0
1, 35520, Note_on_c, 0, 74, 77
1, 35543, Note_on_c, 0, 74, 0
1, 35544, Note_on_c, 0, 79, 78
1, 35567, Note_on_c, 0, 79, 0
1, 35568, Note_on_c, 0, 83, 80
1, 35591, Note_on_c, 0, 83, 0
1, 35592, Note_on_c, 0, 86, 81
1, 35615, Note_on_c, 0, 86, 0
1, 35616, Note_on_c, 0, 84, 83
1, 35639, Note_on_c, 0, 84, 0
1, 35640, Note_on_c, 0, 83, 85
1, 35663, Note_on_c, 0, 83, 0
1, 35664, Note_on_c, 0, 81, 84
1, 35687, Note_on_c, 0, 81, 0
1, 35688, Note_on_c, 0, 79, 83
1, 35711, Note_on_c, 0, 79, 0
1, 35712, Note_on_c, 0, 79, 98
1, 35712, Note_on_c, 1, 71, 77
1, 35712, Note_on_c, 1, 62, 77
1, 35808, Note_on_c, 0, 79, 0
1, 35808, Note_on_c, 0, 78, 78
1, 35808, Note_on_c, 1, 71, 0
1, 35808, Note_on_c, 1, 69, 77
1, 35853, Note_on_c, 0, 78, 0
1, 35853, Note_on_c, 1, 69, 0
1, 35853, Note_on_c, 1, 62, 0
1, 35856, Note_on_c, 0, 84, 77
1, 35879, Note_on_c, 0, 84, 0
1, 35880, Note_on_c, 0, 81, 78
1, 35903, Note_on_c, 0, 81, 0
1, 35904, Note_on_c, 0, 78, 80
1, 35927, Note_on_c, 0, 78, 0
1, 35928, Note_on_c, 0, 72, 81
1, 35951, Note_on_c, 0, 72, 0
1, 35952, Note_on_c, 0, 69, 83
1, 35975, Note_on_c, 0, 69, 0
1, 35976, Note_on_c, 0, 66, 85
1, 35999, Note_on_c, 0, 66, 0
1, 36000, Note_on_c, 0, 62, 84
1, 36045, Note_on_c, 0, 62, 0
1, 36048, Note_on_c, 0, 72, 82
1, 36048, Note_on_c, 0, 69, 82
1, 36048, Note_on_c, 0, 66, 82
1, 36093, Note_on_c, 0, 72, 0
1, 36093, Note_on_c, 0, 69, 0
1, 36093, Note_on_c, 0, 66, 0
1, 36096, Note_on_c, 0, 72, 97
1, 36096, Note_on_c, 0, 69, 97
1, 36096, Note_on_c, 1, 67, 77
1, 36185, Note_on_c, 1, 67, 0
1, 36192, Note_on_c, 0, 72, 0
1, 36192, Note_on_c, 0, 69, 0
1, 36192, Note_on_c, 0, 71, 78
1, 36192, Note_on_c, 0, 67, 78
1, 36192, Note_on_c, 1, 55, 77
1, 36237, Note_on_c, 0, 71, 0
1, 36237, Note_on_c, 0, 67, 0
1, 36240, Note_on_c, 0, 71, 77
1, 36281, Note_on_c, 1, 55, 0
1, 36285, Note_on_c, 0, 71, 0
1, 36288, Note_on_c, 0, 83, 77
1, 36288, Note_on_c, 1, 55, 77
1, 36288, Note_on_c, 1, 43, 77
1, 36311, Note_on_c, 0, 83, 0
1, 36312, Note_on_c, 0, 79, 77
1, 36335, Note_on_c, 0, 79, 0
1, 36336, Note_on_c, 0, 78, 77
1, 36359, Note_on_c, 0, 78, 0
1, 36360, Note_on_c, 0, 76, 77
1, 36377, Note_on_c, 1, 55, 0
1, 36377, Note_on_c, 1, 43, 0
1, 36383, Note_on_c, 0, 76, 0
1, 36384, Note_on_c, 0, 75, 77
1, 36407, Note_on_c, 0, 75, 0
1, 36408, Note_on_c, 0, 76, 77
1, 36431, Note_on_c, 0, 76, 0
1, 36432, Note_on_c, 0, 83, 77
1, 36432, Note_on_c, 1, 55, 77
1, 36455, Note_on_c, 0, 83, 0
1, 36456, Note_on_c, 0, 79, 77
1, 36477, Note_on_c, 1, 55, 0
1, 36479, Note_on_c, 0, 79, 0
1, 36480, Note_on_c, 0, 81, 77
1, 36480, Note_on_c, 1, 54, 77
1, 36503, Note_on_c, 0, 81, 0
1, 36504, Note_on_c, 0, 79, 77
1, 36519, Note_on_c, 1, 54, 0
1, 36527, Note_on_c, 0, 79, 0
1, 36528, Note_on_c, 0, 78, 77
1, 36551, Note_on_c, 0, 78, 0
1, 36552, Note_on_c, 0, 76, 77
1, 36575, Note_on_c, 0, 76, 0
1, 36576, Note_on_c, 0, 74, 77
1, 36576, Note_on_c, 1, 55, 77
1, 36599, Note_on_c, 0, 74, 0
1, 36600, Note_on_c, 0, 73, 77
1, 36615, Note_on_c, 1, 55, 0
1, 36623, Note_on_c, 0, 73, 0
1, 36624, Note_on_c, 0, 71, 77
1, 36647, Note_on_c, 0, 71, 0
1, 36648, Note_on_c, 0, 69, 77
1, 36671, Note_on_c, 0, 69, 0
1, 36672, Note_on_c, 0, 67, 77
1, 36672, Note_on_c, 1, 57, 77
1, 36695, Note_on_c, 0, 67, 0
1, 36696, Note_on_c, 0, 66, 77
1, 36711, Note_on_c, 1, 57, 0
1, 36719, Note_on_c, 0, 66, 0
1, 36720, Note_on_c, 0, 64, 77
1, 36743, Note_on_c, 0, 64, 0
1, 36744, Note_on_c, 0, 62, 77
1, 36767, Note_on_c, 0, 62, 0
1, 36768, Note_on_c, 0, 61, 77
1, 36768, Note_on_c, 1, 45, 77
1, 36791, Note_on_c, 0, 61, 0
1, 36792, Note_on_c, 0, 59, 77
1, 36815, Note_on_c, 0, 59, 0
1, 36816, Note_on_c, 0, 57, 77
1, 36839, Note_on_c, 0, 57, 0
1, 36840, Note_on_c, 0, 55, 77
1, 36857, Note_on_c, 1, 45, 0
1, 36863, Note_on_c, 0, 55, 0
1, 36864, Note_on_c, 0, 54, 77
1, 36864, Note_on_c, 1, 50, 77
1, 36953, Note_on_c, 0, 54, 0
1, 36953, Note_on_c, 1, 50, 0
1, 36960, Note_on_c, 1, 38, 77
1, 37008, Note_on_c, 0, 74, 77
1, 37049, Note_on_c, 1, 38, 0
1, 37053, Note_on_c, 0, 74, 0
1, 37056, Note_on_c, 0, 86, 77
1, 37056, Note_on_c, 1, 56, 77
1, 37079, Note_on_c, 1, 56, 0
1, 37080, Note_on_c, 1, 64, 77
1, 37101, Note_on_c, 0, 86, 0
1, 37103, Note_on_c, 1, 64, 0
1, 37104, Note_on_c, 0, 83, 77
1, 37104, Note_on_c, 1, 59, 77
1, 37127, Note_on_c, 1, 59, 0
1, 37128, Note_on_c, 1, 64, 77
1, 37149, Note_on_c, 0, 83, 0
1, 37151, Note_on_c, 1, 64, 0
1, 37152, Note_on_c, 0, 80, 77
1, 37152, Note_on_c, 1, 56, 77
1, 37175, Note_on_c, 1, 56, 0
1, 37176, Note_on_c, 1, 64, 77
1, 37197, Note_on_c, 0, 80, 0
1, 37199, Note_on_c, 1, 64, 0
1, 37200, Note_on_c, 0, 76, 77
1, 37200, Note_on_c, 1, 59, 77
1, 37223, Note_on_c, 1, 59, 0
1, 37224, Note_on_c, 1, 64, 77
1, 37245, Note_on_c, 0, 76, 0
1, 37247, Note_on_c, 1, 64, 0
1, 37248, Note_on_c, 0, 74, 77
1, 37248, Note_on_c, 1, 57, 77
1, 37271, Note_on_c, 1, 57, 0
1, 37272, Note_on_c, 1, 64, 77
1, 37295, Note_on_c, 1, 64, 0
1, 37296, Note_on_c, 1, 61, 77
1, 37319, Note_on_c, 1, 61, 0
1, 37320, Note_on_c, 1, 64, 77
1, 37337, Note_on_c, 0, 74, 0
1, 37343, Note_on_c, 1, 64, 0
1, 37344, Note_on_c, 0, 73, 77
1, 37344, Note_on_c, 1, 57, 77
1, 37367, Note_on_c, 1, 57, 0
1, 37368, Note_on_c, 1, 64, 77
1, 37389, Note_on_c, 0, 73, 0
1, 37391, Note_on_c, 1, 64, 0
1, 37392, Note_on_c, 0, 72, 77
1, 37392, Note_on_c, 1, 60, 77
1, 37415, Note_on_c, 1, 60, 0
1, 37416, Note_on_c, 1, 64, 77
1, 37437, Note_on_c, 0, 72, 0
1, 37439, Note_on_c, 1, 64, 0
1, 37440, Note_on_c, 0, 84, 77
1, 37440, Note_on_c, 1, 54, 77
1, 37463, Note_on_c, 1, 54, 0
1, 37464, Note_on_c, 1, 62, 77
1, 37485, Note_on_c, 0, 84, 0
1, 37487, Note_on_c, 1, 62, 0
1, 37488, Note_on_c, 0, 81, 77
1, 37488, Note_on_c, 1, 57, 77
1, 37511, Note_on_c, 1, 57, 0
1, 37512, Note_on_c, 1, 62, 77
1, 37533, Note_on_c, 0, 81, 0
1, 37535, Note_on_c, 1, 62, 0
1, 37536, Note_on_c, 0, 78, 77
1, 37536, Note_on_c, 1, 54, 77
1, 37559, Note_on_c, 1, 54, 0
1, 37560, Note_on_c, 1, 62, 77
1, 37581, Note_on_c, 0, 78, 0
1, 37583, Note_on_c, 1, 62, 0
1, 37584, Note_on_c, 0, 74, 77
1, 37584, Note_on_c, 1, 57, 77
1, 37607, Note_on_c, 1, 57, 0
1, 37608, Note_on_c, 1, 62, 77
1, 37629, Note_on_c, 0, 74, 0
1, 37631, Note_on_c, 1, 62, 0
1, 37632, Note_on_c, 0, 72, 77
1, 37632, Note_on_c, 1, 55, 77
1, 37655, Note_on_c, 1, 55, 0
1, 37656, Note_on_c, 1, 62, 77
1, 37679, Note_on_c, 1, 62, 0
1, 37680, Note_on_c, 1, 59, 77
1, 37703, Note_on_c, 1, 59, 0
1, 37704, Note_on_c, 1, 62, 77
1, 37727, Note_on_c, 1, 62, 0
1, 37728, Note_on_c, 0, 72, 0
1, 37728, Note_on_c, 0, 71, 77
1, 37728, Note_on_c, 1, 55, 77
1, 37751, Note_on_c, 1, 55, 0
1, 37752, Note_on_c, 1, 62, 77
1, 37773, Note_on_c, 0, 71, 0
1, 37775, Note_on_c, 1, 62, 0
1, 37776, Note_on_c, 0, 74, 77
1, 37776, Note_on_c, 1, 59, 77
1, 37799, Note_on_c, 1, 59, 0
1, 37800, Note_on_c, 1, 62, 77
1, 37821, Note_on_c, 0, 74, 0
1, 37823, Note_on_c, 1, 62, 0
1, 37824, Note_on_c, 0, 76, 77
1, 37824, Note_on_c, 1, 60, 77
1, 37847, Note_on_c, 0, 76, 0
1, 37848, Note_on_c, 0, 72, 77
1, 37871, Note_on_c, 0, 72, 0
1, 37872, Note_on_c, 0, 71, 77
1, 37895, Note_on_c, 0, 71, 0
1, 37896, Note_on_c, 0, 69, 78
1, 37913, Note_on_c, 1, 60, 0
1, 37919, Note_on_c, 0, 69, 0
1, 37920, Note_on_c, 0, 68, 78
1, 37943, Note_on_c, 0, 68, 0
1, 37944, Note_on_c, 0, 69, 78
1, 37967, Note_on_c, 0, 69, 0
1, 37968, Note_on_c, 0, 76, 79
1, 37968, Note_on_c, 1, 60, 79
1, 37991, Note_on_c, 0, 76, 0
1, 37992, Note_on_c, 0, 69, 79
1, 38013, Note_on_c, 1, 60, 0
1, 38015, Note_on_c, 0, 69, 0
1, 38016, Note_on_c, 0, 78, 79
1, 38016, Note_on_c, 1, 62, 79
1, 38039, Note_on_c, 0, 78, 0
1, 38040, Note_on_c, 0, 74, 80
1, 38063, Note_on_c, 0, 74, 0
1, 38064, Note_on_c, 0, 72, 80
1, 38087, Note_on_c, 0, 72, 0
1, 38088, Note_on_c, 0, 71, 80
1, 38105, Note_on_c, 1, 62, 0
1, 38111, Note_on_c, 0, 71, 0
1, 38112, Note_on_c, 0, 70, 81
1, 38135, Note_on_c, 0, 70, 0
1, 38136, Note_on_c, 0, 71, 81
1, 38159, Note_on_c, 0, 71, 0
1, 38160, Note_on_c, 0, 78, 81
1, 38160, Note_on_c, 1, 62, 81
1, 38183, Note_on_c, 0, 78, 0
1, 38184, Note_on_c, 0, 71, 82
1, 38205, Note_on_c, 1, 62, 0
1, 38207, Note_on_c, 0, 71, 0
1, 38208, Note_on_c, 0, 79, 82
1, 38208, Note_on_c, 1, 64, 82
1, 38231, Note_on_c, 0, 79, 0
1, 38232, Note_on_c, 0, 76, 82
1, 38255, Note_on_c, 0, 76, 0
1, 38256, Note_on_c, 0, 74, 83
1, 38279, Note_on_c, 0, 74, 0
1, 38280, Note_on_c, 0, 72, 83
1, 38297, Note_on_c, 1, 64, 0
1, 38303, Note_on_c, 0, 72, 0
1, 38304, Note_on_c, 0, 81, 83
1, 38304, Note_on_c, 1, 66, 83
1, 38327, Note_on_c, 0, 81, 0
1, 38328, Note_on_c, 0, 72, 84
1, 38349, Note_on_c, 1, 66, 0
1, 38351, Note_on_c, 0, 72, 0
1, 38352, Note_on_c, 0, 79, 84
1, 38352, Note_on_c, 1, 67, 84
1, 38375, Note_on_c, 0, 79, 0
1, 38376, Note_on_c, 0, 71, 84
1, 38399, Note_on_c, 0, 71, 0
1, 38400, Note_on_c, 0, 72, 85
1, 38400, Note_on_c, 1, 62, 85
1, 38415, Note_on_c, 0, 72, 0
1, 38416, Note_on_c, 0, 71, 84
1, 38431, Note_on_c, 0, 71, 0
1, 38432, Note_on_c, 0, 72, 83
1, 38447, Note_on_c, 0, 72, 0
1, 38448, Note_on_c, 0, 71, 83
1, 38463, Note_on_c, 0, 71, 0
1, 38464, Note_on_c, 0, 69, 82
1, 38479, Note_on_c, 0, 69, 0
1, 38480, Note_on_c, 0, 71, 81
1, 38495, Note_on_c, 0, 71, 0
1, 38496, Note_on_c, 0, 69, 81
1, 38496, Note_on_c, 1, 67, 0
1, 38496, Note_on_c, 1, 66, 79
1, 38541, Note_on_c, 0, 69, 0
1, 38541, Note_on_c, 1, 66, 0
1, 38541, Note_on_c, 1, 62, 0
1, 38544, Note_on_c, 0, 62, 77
1, 38589, Note_on_c, 0, 62, 0
1, 38592, Note_on_c, 0, 67, 77
1, 38592, Note_on_c, 1, 55, 77
1, 38615, Note_on_c, 1, 55, 0
1, 38616, Note_on_c, 1, 62, 77
1, 38637, Note_on_c, 0, 67, 0
1, 38639, Note_on_c, 1, 62, 0
1, 38640, Note_on_c, 0, 71, 77
1, 38640, Note_on_c, 1, 59, 77
1, 38663, Note_on_c, 1, 59, 0
1, 38664, Note_on_c, 1, 62, 77
1, 38685, Note_on_c, 0, 71, 0
1, 38687, Note_on_c, 1, 62, 0
1, 38688, Note_on_c, 0, 74, 79
1, 38688, Note_on_c, 1, 55, 77
1, 38711, Note_on_c, 1, 55, 0
1, 38712, Note_on_c, 1, 62, 77
1, 38733, Note_on_c, 0, 74, 0
1, 38735, Note_on_c, 1, 62, 0
1, 38736, Note_on_c, 0, 67, 82
1, 38736, Note_on_c, 1, 59, 77
1, 38759, Note_on_c, 1, 59, 0
1, 38760, Note_on_c, 1, 62, 77
1, 38781, Note_on_c, 0, 67, 0
1, 38783, Note_on_c, 1, 62, 0
1, 38784, Note_on_c, 0, 67, 101
1, 38784, Note_on_c, 1, 57, 77
1, 38807, Note_on_c, 1, 57, 0
1, 38808, Note_on_c, 1, 62, 77
1, 38831, Note_on_c, 1, 62, 0
1, 38832, Note_on_c, 1, 60, 77
1, 38855, Note_on_c, 1, 60, 0
1, 38856, Note_on_c, 1, 62, 77
1, 38879, Note_on_c, 1, 62, 0
1, 38880, Note_on_c, 0, 67, 0
1, 38880, Note_on_c, 0, 66, 81
1, 38880, Note_on_c, 1, 57, 77
1, 38903, Note_on_c, 1, 57, 0
1, 38904, Note_on_c, 1, 62, 77
1, 38925, Note_on_c, 0, 66, 0
1, 38927, Note_on_c, 1, 62, 0
1, 38928, Note_on_c, 0, 62, 79
1, 38928, Note_on_c, 1, 60, 77
1, 38951, Note_on_c, 1, 60, 0
1, 38952, Note_on_c, 1, 62, 77
1, 38973, Note_on_c, 0, 62, 0
1, 38975, Note_on_c, 1, 62, 0
1, 38976, Note_on_c, 0, 69, 77
1, 38976, Note_on_c, 1, 54, 77
1, 38999, Note_on_c, 1, 54, 0
1, 39000, Note_on_c, 1, 60, 77
1, 39021, Note_on_c, 0, 69, 0
1, 39023, Note_on_c, 1, 60, 0
1, 39024, Note_on_c, 0, 72, 79
1, 39024, Note_on_c, 1, 57, 77
1, 39047, Note_on_c, 1, 57, 0
1, 39048, Note_on_c, 1, 60, 77
1, 39069, Note_on_c, 0, 72, 0
1, 39071, Note_on_c, 1, 60, 0
1, 39072, Note_on_c, 0, 76, 81
1, 39072, Note_on_c, 1, 54, 77
1, 39095, Note_on_c, 1, 54, 0
1, 39096, Note_on_c, 1, 60, 77
1, 39117, Note_on_c, 0, 76, 0
1, 39119, Note_on_c, 1, 60, 0
1, 39120, Note_on_c, 0, 72, 83
1, 39120, Note_on_c, 1, 57, 77
1, 39143, Note_on_c, 1, 57, 0
1, 39144, Note_on_c, 1, 60, 77
1, 39165, Note_on_c, 0, 72, 0
1, 39167, Note_on_c, 1, 60, 0
1, 39168, Note_on_c, 0, 72, 101
1, 39168, Note_on_c, 1, 55, 77
1, 39191, Note_on_c, 1, 55, 0
1, 39192, Note_on_c, 1, 62, 77
1, 39215, Note_on_c, 1, 62, 0
1, 39216, Note_on_c, 1, 59, 77
1, 39239, Note_on_c, 1, 59, 0
1, 39240, Note_on_c, 1, 62, 77
1, 39263, Note_on_c, 1, 62, 0
1, 39264, Note_on_c, 0, 72, 0
1, 39264, Note_on_c, 0, 71, 79
1, 39264, Note_on_c, 1, 55, 77
1, 39287, Note_on_c, 1, 55, 0
1, 39288, Note_on_c, 1, 62, 77
1, 39309, Note_on_c, 0, 71, 0
1, 39311, Note_on_c, 1, 62, 0
1, 39312, Note_on_c, 0, 67, 77
1, 39312, Note_on_c, 1, 59, 77
1, 39335, Note_on_c, 1, 59, 0
1, 39336, Note_on_c, 1, 62, 77
1, 39357, Note_on_c, 0, 67, 0
1, 39359, Note_on_c, 1, 62, 0
1, 39360, Note_on_c, 0, 72, 78
1, 39360, Note_on_c, 1, 48, 77
1, 39383, Note_on_c, 1, 48, 0
1, 39384, Note_on_c, 1, 55, 77
1, 39405, Note_on_c, 0, 72, 0
1, 39407, Note_on_c, 1, 55, 0
1, 39408, Note_on_c, 0, 76, 79
1, 39408, Note_on_c, 1, 52, 77
1, 39431, Note_on_c, 1, 52, 0
1, 39432, Note_on_c, 1, 55, 77
1, 39453, Note_on_c, 0, 76, 0
1, 39455, Note_on_c, 1, 55, 0
1, 39456, Note_on_c, 0, 79, 80
1, 39456, Note_on_c, 1, 48, 77
1, 39479, Note_on_c, 1, 48, 0
1, 39480, Note_on_c, 1, 55, 77
1, 39501, Note_on_c, 0, 79, 0
1, 39503, Note_on_c, 1, 55, 0
1, 39504, Note_on_c, 0, 76, 81
1, 39504, Note_on_c, 1, 52, 77
1, 39527, Note_on_c, 1, 52, 0
1, 39528, Note_on_c, 1, 55, 77
1, 39549, Note_on_c, 0, 76, 0
1, 39551, Note_on_c, 1, 55, 0
1, 39552, Note_on_c, 0, 74, 82
1, 39552, Note_on_c, 1, 47, 77
1, 39597, Note_on_c, 0, 74, 0
1, 39600, Note_on_c, 0, 79, 83
1, 39623, Note_on_c, 0, 79, 0
1, 39624, Note_on_c, 0, 83, 83
1, 39641, Note_on_c, 1, 47, 0
1, 39647, Note_on_c, 0, 83, 0
1, 39648, Note_on_c, 0, 86, 100
1, 39696, Note_on_c, 0, 86, 0
1, 39696, Note_on_c, 0, 74, 85
1, 39696, Note_on_c, 0, 71, 85
1, 39696, Note_on_c, 1, 47, 77
1, 39741, Note_on_c, 0, 74, 0
1, 39741, Note_on_c, 0, 71, 0
1, 39741, Note_on_c, 1, 47, 0
1, 39744, Note_on_c, 0, 74, 83
1, 39744, Note_on_c, 0, 71, 83
1, 39744, Note_on_c, 1, 48, 77
1, 39768, Note_on_c, 0, 74, 0
1, 39768, Note_on_c, 0, 71, 0
1, 39768, Note_on_c, 0, 72, 82
1, 39768, Note_on_c, 0, 69, 82
1, 39791, Note_on_c, 0, 72, 0
1, 39791, Note_on_c, 0, 69, 0
1, 39792, Note_on_c, 0, 71, 81
1, 39792, Note_on_c, 0, 67, 81
1, 39833, Note_on_c, 1, 48, 0
1, 39840, Note_on_c, 1, 50, 77
1, 39881, Note_on_c, 0, 71, 0
1, 39881, Note_on_c, 0, 67, 0
1, 39888, Note_on_c, 0, 69, 78
1, 39888, Note_on_c, 0, 66, 78
1, 39929, Note_on_c, 1, 50, 0
1, 39933, Note_on_c, 0, 69, 0
1, 39933, Note_on_c, 0, 66, 0
1, 39936, Note_on_c, 0, 67, 77
1, 39936, Note_on_c, 1, 55, 77
1, 40025, Note_on_c, 0, 67, 0
1, 40025, Note_on_c, 1, 55, 0
1, 40032, Note_on_c, 1, 43, 77
1, 40077, Note_on_c, 1, 43, 0
1, 40080, Note_on_c, 0, 64, 77
1, 40103, Note_on_c, 0, 64, 0
1, 40104, Note_on_c, 0, 68, 77
1, 40127, Note_on_c, 0, 68, 0
1, 40128, Note_on_c, 0, 71, 77
1, 40151, Note_on_c, 0, 71, 0
1, 40152, Note_on_c, 0, 74, 79
1, 40175, Note_on_c, 0, 74, 0
1, 40176, Note_on_c, 0, 80, 81
1, 40199, Note_on_c, 0, 80, 0
1, 40200, Note_on_c, 0, 83, 83
1, 40223, Note_on_c, 0, 83, 0
1, 40224, Note_on_c, 0, 86, 85
1, 40269, Note_on_c, 0, 86, 0
1, 40272, Note_on_c, 0, 74, 83
1, 40272, Note_on_c, 0, 71, 83
1, 40272, Note_on_c, 1, 68, 77
1, 40317, Note_on_c, 0, 74, 0
1, 40317, Note_on_c, 0, 71, 0
1, 40317, Note_on_c, 1, 68, 0
1, 40320, Note_on_c, 0, 74, 97
1, 40320, Note_on_c, 0, 71, 97
1, 40320, Note_on_c, 1, 69, 77
1, 40409, Note_on_c, 1, 69, 0
1, 40416, Note_on_c, 0, 74, 0
1, 40416, Note_on_c, 0, 71, 0
1, 40416, Note_on_c, 0, 72, 78
1, 40416, Note_on_c, 0, 69, 78
1, 40416, Note_on_c, 1, 57, 77
1, 40461, Note_on_c, 0, 72, 0
1, 40461, Note_on_c, 0, 69, 0
1, 40461, Note_on_c, 1, 57, 0
1, 40464, Note_on_c, 0, 84, 77
1, 40487, Note_on_c, 0, 84, 0
1, 40488, Note_on_c, 0, 81, 78
1, 40511, Note_on_c, 0, 81, 0
1, 40512, Note_on_c, 0, 78, 80
1, 40535, Note_on_c, 0, 78, 0
1, 40536, Note_on_c, 0, 72, 81
1, 40559, Note_on_c, 0, 72, 0
1, 40560, Note_on_c, 0, 69, 83
1, 40583, Note_on_c, 0, 69, 0
1, 40584, Note_on_c, 0, 66, 85
1, 40607, Note_on_c, 0, 66, 0
1, 40608, Note_on_c, 0, 62, 84
1, 40653, Note_on_c, 0, 62, 0
1, 40656, Note_on_c, 0, 72, 82
1, 40656, Note_on_c, 0, 69, 82
1, 40656, Note_on_c, 0, 66, 82
1, 40701, Note_on_c, 0, 72, 0
1, 40701, Note_on_c, 0, 69, 0
1, 40701, Note_on_c, 0, 66, 0
1, 40704, Note_on_c, 0, 72, 97
1, 40704, Note_on_c, 0, 69, 97
1, 40704, Note_on_c, 1, 67, 77
1, 40793, Note_on_c, 1, 67, 0
1, 40800, Note_on_c, 0, 72, 0
1, 40800, Note_on_c, 0, 69, 0
1, 40800, Note_on_c, 0, 71, 78
1, 40800, Note_on_c, 0, 67, 78
1, 40800, Note_on_c, 1, 55, 77
1, 40845, Note_on_c, 0, 71, 0
1, 40845, Note_on_c, 0, 67, 0
1, 40845, Note_on_c, 1, 55, 0
1, 40848, Note_on_c, 0, 74, 77
1, 40848, Note_on_c, 1, 59, 77
1, 40893, Note_on_c, 0, 74, 0
1, 40893, Note_on_c, 1, 59, 0
1, 40896, Note_on_c, 0, 76, 77
1, 40896, Note_on_c, 1, 60, 77
1, 40919, Note_on_c, 0, 76, 0
1, 40920, Note_on_c, 0, 72, 77
1, 40943, Note_on_c, 0, 72, 0
1, 40944, Note_on_c, 0, 71, 77
1, 40967, Note_on_c, 0, 71, 0
1, 40968, Note_on_c, 0, 69, 78
1, 40985, Note_on_c, 1, 60, 0
1, 40991, Note_on_c, 0, 69, 0
1, 40992, Note_on_c, 0, 68, 78
1, 41015, Note_on_c, 0, 68, 0
1, 41016, Note_on_c, 0, 69, 78
1, 41039, Note_on_c, 0, 69, 0
1, 41040, Note_on_c, 0, 76, 79
1, 41040, Note_on_c, 1, 60, 79
1, 41063, Note_on_c, 0, 76, 0
1, 41064, Note_on_c, 0, 69, 79
1, 41085, Note_on_c, 1, 60, 0
1, 41087, Note_on_c, 0, 69, 0
1, 41088, Note_on_c, 0, 78, 79
1, 41088, Note_on_c, 1, 62, 79
1, 41111, Note_on_c, 0, 78, 0
1, 41112, Note_on_c, 0, 74, 80
1, 41135, Note_on_c, 0, 74, 0
1, 41136, Note_on_c, 0, 72, 80
1, 41159, Note_on_c, 0, 72, 0
1, 41160, Note_on_c, 0, 71, 80
1, 41177, Note_on_c, 1, 62, 0
1, 41183, Note_on_c, 0, 71, 0
1, 41184, Note_on_c, 0, 70, 81
1, 41207, Note_on_c, 0, 70, 0
1, 41208, Note_on_c, 0, 71, 81
1, 41231, Note_on_c, 0, 71, 0
1, 41232, Note_on_c, 0, 78, 81
1, 41232, Note_on_c, 1, 62, 81
1, 41255, Note_on_c, 0, 78, 0
1, 41256, Note_on_c, 0, 71, 82
1, 41277, Note_on_c, 1, 62, 0
1, 41279, Note_on_c, 0, 71, 0
1, 41280, Note_on_c, 0, 79, 82
1, 41280, Note_on_c, 1, 64, 82
1, 41303, Note_on_c, 0, 79, 0
1, 41304, Note_on_c, 0, 78, 82
1, 41327, Note_on_c, 0, 78, 0
1, 41328, Note_on_c, 0, 76, 83
1, 41351, Note_on_c, 0, 76, 0
1, 41352, Note_on_c, 0, 74, 83
1, 41369, Note_on_c, 1, 64, 0
1, 41375, Note_on_c, 0, 74, 0
1, 41376, Note_on_c, 0, 81, 83
1, 41376, Note_on_c, 1, 66, 83
1, 41399, Note_on_c, 0, 81, 0
1, 41400, Note_on_c, 0, 72, 84
1, 41421, Note_on_c, 1, 66, 0
1, 41423, Note_on_c, 0, 72, 0
1, 41424, Note_on_c, 0, 79, 84
1, 41424, Note_on_c, 1, 67, 84
1, 41447, Note_on_c, 0, 79, 0
1, 41448, Note_on_c, 0, 71, 84
1, 41471, Note_on_c, 0, 71, 0
1, 41472, Note_on_c, 0, 72, 85
1, 41472, Note_on_c, 1, 62, 85
1, 41487, Note_on_c, 0, 72, 0
1, 41488, Note_on_c, 0, 71, 84
1, 41503, Note_on_c, 0, 71, 0
1, 41504, Note_on_c, 0, 72, 83
1, 41519, Note_on_c, 0, 72, 0
1, 41520, Note_on_c, 0, 71, 83
1, 41535, Note_on_c, 0, 71, 0
1, 41536, Note_on_c, 0, 69, 82
1, 41551, Note_on_c, 0, 69, 0
1, 41552, Note_on_c, 0, 71, 81
1, 41567, Note_on_c, 0, 71, 0
1, 41568, Note_on_c, 0, 69, 81
1, 41568, Note_on_c, 1, 67, 0
1, 41568, Note_on_c, 1, 66, 79
1, 41613, Note_on_c, 0, 69, 0
1, 41613, Note_on_c, 1, 66, 0
1, 41613, Note_on_c, 1, 62, 0
1, 41616, Note_on_c, 0, 62, 77
1, 41661, Note_on_c, 0, 62, 0
1, 41664, Note_on_c, 0, 67, 77
1, 41664, Note_on_c, 1, 55, 77
1, 41687, Note_on_c, 1, 55, 0
1, 41688, Note_on_c, 1, 62, 77
1, 41709, Note_on_c, 0, 67, 0
1, 41711, Note_on_c, 1, 62, 0
1, 41712, Note_on_c, 0, 71, 79
1, 41712, Note_on_c, 1, 59, 77
1, 41735, Note_on_c, 1, 59, 0
1, 41736, Note_on_c, 1, 62, 77
1, 41757, Note_on_c, 0, 71, 0
1, 41759, Note_on_c, 1, 62, 0
1, 41760, Note_on_c, 0, 74, 81
1, 41760, Note_on_c, 1, 55, 77
1, 41783, Note_on_c, 1, 55, 0
1, 41784, Note_on_c, 1, 62, 77
1, 41805, Note_on_c, 0, 74, 0
1, 41807, Note_on_c, 1, 62, 0
1, 41808, Note_on_c, 0, 67, 83
1, 41808, Note_on_c, 1, 59, 77
1, 41831, Note_on_c, 1, 59, 0
1, 41832, Note_on_c, 1, 62, 77
1, 41853, Note_on_c, 0, 67, 0
1, 41855, Note_on_c, 1, 62, 0
1, 41856, Note_on_c, 0, 67, 101
1, 41856, Note_on_c, 1, 57, 77
1, 41879, Note_on_c, 1, 57, 0
1, 41880, Note_on_c, 1, 62, 77
1, 41903, Note_on_c, 1, 62, 0
1, 41904, Note_on_c, 1, 60, 77
1, 41927, Note_on_c, 1, 60, 0
1, 41928, Note_on_c, 1, 62, 77
1, 41951, Note_on_c, 1, 62, 0
1, 41952, Note_on_c, 0, 67, 0
1, 41952, Note_on_c, 0, 66, 79
1, 41952, Note_on_c, 1, 57, 77
1, 41975, Note_on_c, 1, 57, 0
1, 41976, Note_on_c, 1, 62, 77
1, 41997, Note_on_c, 0, 66, 0
1, 41999, Note_on_c, 1, 62, 0
1, 42000, Note_on_c, 0, 62, 77
1, 42000, Note_on_c, 1, 60, 77
1, 42023, Note_on_c, 1, 60, 0
1, 42024, Note_on_c, 1, 62, 77
1, 42045, Note_on_c, 0, 62, 0
1, 42047, Note_on_c, 1, 62, 0
1, 42048, Note_on_c, 0, 69, 77
1, 42048, Note_on_c, 1, 54, 77
1, 42071, Note_on_c, 1, 54, 0
1, 42072, Note_on_c, 1, 60, 77
1, 42093, Note_on_c, 0, 69, 0
1, 42095, Note_on_c, 1, 60, 0
1, 42096, Note_on_c, 0, 72, 79
1, 42096, Note_on_c, 1, 57, 77
1, 42119, Note_on_c, 1, 57, 0
1, 42120, Note_on_c, 1, 60, 77
1, 42141, Note_on_c, 0, 72, 0
1, 42143, Note_on_c, 1, 60, 0
1, 42144, Note_on_c, 0, 76, 81
1, 42144, Note_on_c, 1, 54, 77
1, 42167, Note_on_c, 1, 54, 0
1, 42168, Note_on_c, 1, 60, 77
1, 42189, Note_on_c, 0, 76, 0
1, 42191, Note_on_c, 1, 60, 0
1, 42192, Note_on_c, 0, 72, 83
1, 42192, Note_on_c, 1, 57, 77
1, 42215, Note_on_c, 1, 57, 0
1, 42216, Note_on_c, 1, 60, 77
1, 42237, Note_on_c, 0, 72, 0
1, 42239, Note_on_c, 1, 60, 0
1, 42240, Note_on_c, 0, 72, 101
1, 42240, Note_on_c, 1, 55, 77
1, 42263, Note_on_c, 1, 55, 0
1, 42264, Note_on_c, 1, 62, 77
1, 42287, Note_on_c, 1, 62, 0
1, 42288, Note_on_c, 1, 59, 77
1, 42311, Note_on_c, 1, 59, 0
1, 42312, Note_on_c, 1, 62, 77
1, 42335, Note_on_c, 1, 62, 0
1, 42336, Note_on_c, 0, 72, 0
1, 42336, Note_on_c, 0, 71, 79
1, 42336, Note_on_c, 1, 55, 77
1, 42359, Note_on_c, 1, 55, 0
1, 42360, Note_on_c, 1, 62, 77
1, 42381, Note_on_c, 0, 71, 0
1, 42383, Note_on_c, 1, 62, 0
1, 42384, Note_on_c, 0, 67, 77
1, 42384, Note_on_c, 1, 59, 77
1, 42407, Note_on_c, 1, 59, 0
1, 42408, Note_on_c, 1, 62, 77
1, 42429, Note_on_c, 0, 67, 0
1, 42431, Note_on_c, 1, 62, 0
1, 42432, Note_on_c, 0, 72, 77
1, 42432, Note_on_c, 1, 48, 77
1, 42455, Note_on_c, 1, 48, 0
1, 42456, Note_on_c, 1, 55, 77
1, 42477, Note_on_c, 0, 72, 0
1, 42479, Note_on_c, 1, 55, 0
1, 42480, Note_on_c, 0, 76, 78
1, 42480, Note_on_c, 1, 52, 77
1, 42503, Note_on_c, 1, 52, 0
1, 42504, Note_on_c, 1, 55, 77
1, 42525, Note_on_c, 0, 76, 0
1, 42527, Note_on_c, 1, 55, 0
1, 42528, Note_on_c, 0, 79, 79
1, 42528, Note_on_c, 1, 48, 77
1, 42551, Note_on_c, 1, 48, 0
1, 42552, Note_on_c, 1, 55, 77
1, 42573, Note_on_c, 0, 79, 0
1, 42575, Note_on_c, 1, 55, 0
1, 42576, Note_on_c, 0, 76, 81
1, 42576, Note_on_c, 1, 52, 77
1, 42599, Note_on_c, 1, 52, 0
1, 42600, Note_on_c, 1, 55, 77
1, 42621, Note_on_c, 0, 76, 0
1, 42623, Note_on_c, 1, 55, 0
1, 42624, Note_on_c, 0, 74, 82
1, 42624, Note_on_c, 1, 47, 77
1, 42669, Note_on_c, 0, 74, 0
1, 42672, Note_on_c, 0, 79, 83
1, 42695, Note_on_c, 0, 79, 0
1, 42696, Note_on_c, 0, 83, 84
1, 42713, Note_on_c, 1, 47, 0
1, 42719, Note_on_c, 0, 83, 0
1, 42720, Note_on_c, 0, 86, 101
1, 42768, Note_on_c, 0, 86, 0
1, 42768, Note_on_c, 0, 74, 85
1, 42768, Note_on_c, 0, 71, 85
1, 42768, Note_on_c, 1, 47, 77
1, 42813, Note_on_c, 0, 74, 0
1, 42813, Note_on_c, 0, 71, 0
1, 42813, Note_on_c, 1, 47, 0
1, 42816, Note_on_c, 0, 74, 85
1, 42816, Note_on_c, 0, 71, 85
1, 42816, Note_on_c, 1, 48, 77
1, 42840, Note_on_c, 0, 74, 0
1, 42840, Note_on_c, 0, 71, 0
1, 42840, Note_on_c, 0, 72, 84
1, 42840, Note_on_c, 0, 69, 84
1, 42863, Note_on_c, 0, 72, 0
1, 42863, Note_on_c, 0, 69, 0
1, 42864, Note_on_c, 0, 71, 83
1, 42864, Note_on_c, 0, 67, 83
1, 42905, Note_on_c, 1, 48, 0
1, 42912, Note_on_c, 1, 50, 77
1, 42953, Note_on_c, 0, 71, 0
1, 42953, Note_on_c, 0, 67, 0
1, 42960, Note_on_c, 0, 69, 79
1, 42960, Note_on_c, 0, 66, 79
1, 42960, Note_on_c, 0, 60, 79
1, 43001, Note_on_c, 1, 50, 0
1, 43005, Note_on_c, 0, 69, 0
1, 43005, Note_on_c, 0, 66, 0
1, 43005, Note_on_c, 0, 60, 0
1, 43008, Note_on_c, 0, 67, 77
1, 43008, Note_on_c, 0, 62, 77
1, 43008, Note_on_c, 0, 59, 77
1, 43008, Note_on_c, 1, 55, 77
1, 43141, Note_on_c, 0, 67, 0
1, 43141, Note_on_c, 0, 62, 0
1, 43141, Note_on_c, 0, 59, 0
1, 43141, Note_on_c, 1, 55, 0
1, 43200, Note_on_c, 1, 55, 4
1, 43289, Note_on_c, 1, 55, 0
1, 43299, End_track
0, 0, End_of_file