0, 0, Header, 0, 1, 96
1, 0, Start_track
1, 0, Tempo, 444444
1, 0, Note_on_c, 0, 69, 91
1, 96, Note_on_c, 1, 50, 75
1, 185, Note_on_c, 1, 50, 0
1, 192, Note_on_c, 0, 69, 0
1, 192, Note_on_c, 0, 61, 75
1, 192, Note_on_c, 1, 52, 75
1, 281, Note_on_c, 1, 52, 0
1, 288, Note_on_c, 0, 61, 0
1, 288, Note_on_c, 0, 62, 75
1, 288, Note_on_c, 1, 53, 75
1, 377, Note_on_c, 0, 62, 0
1, 377, Note_on_c, 1, 53, 0
1, 384, Note_on_c, 0, 70, 75
1, 384, Note_on_c, 1, 55, 75
1, 396, Note_on_c, 0, 70, 0
1, 396, Note_on_c, 0, 69, 75
1, 408, Note_on_c, 0, 69, 0
1, 408, Note_on_c, 0, 70, 75
1, 473, Note_on_c, 1, 55, 0
1, 480, Note_on_c, 1, 52, 75
1, 517, Note_on_c, 0, 70, 0
1, 528, Note_on_c, 0, 67, 75
1, 569, Note_on_c, 1, 52, 0
1, 573, Note_on_c, 0, 67, 0
1, 576, Note_on_c, 0, 69, 75
1, 576, Note_on_c, 1, 53, 75
1, 665, Note_on_c, 1, 53, 0
1, 672, Note_on_c, 1, 41, 75
1, 753, Note_on_c, 0, 69, 0
1, 761, Note_on_c, 1, 41, 0
1, 768, Note_on_c, 0, 67, 75
1, 768, Note_on_c, 1, 52, 75
1, 857, Note_on_c, 1, 52, 0
1, 864, Note_on_c, 1, 49, 75
1, 901, Note_on_c, 0, 67, 0
1, 912, Note_on_c, 0, 64, 75
1, 953, Note_on_c, 1, 49, 0
1, 957, Note_on_c, 0, 64, 0
1, 960, Note_on_c, 0, 67, 76
1, 960, Note_on_c, 1, 50, 75
1, 1005, Note_on_c, 0, 67, 0
1, 1008, Note_on_c, 0, 65, 77
1, 1049, Note_on_c, 1, 50, 0
1, 1053, Note_on_c, 0, 65, 0
1, 1056, Note_on_c, 0, 64, 78
1, 1056, Note_on_c, 1, 55, 75
1, 1101, Note_on_c, 0, 64, 0
1, 1104, Note_on_c, 0, 62, 79
1, 1145, Note_on_c, 1, 55, 0
1, 1149, Note_on_c, 0, 62, 0
1, 1152, Note_on_c, 0, 61, 80
1, 1152, Note_on_c, 1, 57, 75
1, 1164, Note_on_c, 0, 61, 0
1, 1164, Note_on_c, 0, 62, 80
1, 1176, Note_on_c, 0, 62, 0
1, 1176, Note_on_c, 0, 64, 80
1, 1188, Note_on_c, 0, 64, 0
1, 1188, Note_on_c, 0, 62, 80
1, 1241, Note_on_c, 1, 57, 0
1, 1248, Note_on_c, 1, 52, 75
1, 1337, Note_on_c, 1, 52, 0
1, 1344, Note_on_c, 0, 62, 0
1, 1344, Note_on_c, 0, 61, 76
1, 1344, Note_on_c, 1, 45, 75
1, 1433, Note_on_c, 0, 61, 0
1, 1433, Note_on_c, 1, 45, 0
1, 1488, Note_on_c, 0, 82, 70
1, 1508, Note_on_c, 0, 82, 0
1, 1536, Note_on_c, 0, 82, 86
1, 1536, Note_on_c, 0, 79, 86
1, 1536, Note_on_c, 1, 76, 64
1, 1536, Note_on_c, 1, 73, 64
1, 1728, Note_on_c, 0, 82, 0
1, 1728, Note_on_c, 0, 79, 0
1, 1728, Note_on_c, 0, 81, 70
1, 1728, Note_on_c, 1, 76, 0
1, 1728, Note_on_c, 1, 73, 0
1, 1728, Note_on_c, 1, 77, 64
1, 1728, Note_on_c, 1, 74, 64
1, 1767, Note_on_c, 0, 81, 0
1, 1767, Note_on_c, 1, 77, 0
1, 1767, Note_on_c, 1, 74, 0
1, 1872, Note_on_c, 0, 85, 70
1, 1892, Note_on_c, 0, 85, 0
1, 1920, Note_on_c, 0, 85, 86
1, 1920, Note_on_c, 0, 82, 86
1, 1920, Note_on_c, 1, 79, 64
1, 1920, Note_on_c, 1, 70, 64
1, 2112, Note_on_c, 0, 85, 0
1, 2112, Note_on_c, 0, 82, 0
1, 2112, Note_on_c, 0, 86, 70
1, 2112, Note_on_c, 0, 81, 70
1, 2112, Note_on_c, 1, 79, 0
1, 2112, Note_on_c, 1, 70, 0
1, 2112, Note_on_c, 1, 77, 64
1, 2112, Note_on_c, 1, 69, 64
1, 2151, Note_on_c, 0, 86, 0
1, 2151, Note_on_c, 0, 81, 0
1, 2151, Note_on_c, 1, 77, 0
1, 2151, Note_on_c, 1, 69, 0
1, 2304, Note_on_c, 0, 87, 70
1, 2304, Note_on_c, 1, 70, 64
1, 2304, Note_on_c, 1, 67, 64
1, 2343, Note_on_c, 0, 87, 0
1, 2343, Note_on_c, 1, 70, 0
1, 2343, Note_on_c, 1, 67, 0
1, 2496, Note_on_c, 0, 85, 70
1, 2496, Note_on_c, 1, 69, 64
1, 2535, Note_on_c, 0, 85, 0
1, 2535, Note_on_c, 1, 69, 0
1, 2688, Note_on_c, 1, 50, 64
1, 2718, Note_on_c, 1, 50, 0
1, 2720, Note_on_c, 1, 53, 64
1, 2750, Note_on_c, 1, 53, 0
1, 2752, Note_on_c, 1, 57, 64
1, 2782, Note_on_c, 1, 57, 0
1, 2784, Note_on_c, 0, 69, 91
1, 2784, Note_on_c, 1, 50, 64
1, 2814, Note_on_c, 1, 50, 0
1, 2816, Note_on_c, 1, 53, 64
1, 2823, Note_on_c, 0, 69, 0
1, 2846, Note_on_c, 1, 53, 0
1, 2848, Note_on_c, 1, 57, 64
1, 2878, Note_on_c, 1, 57, 0
1, 2880, Note_on_c, 0, 61, 75
1, 2880, Note_on_c, 1, 50, 64
1, 2910, Note_on_c, 1, 50, 0
1, 2912, Note_on_c, 1, 53, 64
1, 2942, Note_on_c, 1, 53, 0
1, 2944, Note_on_c, 1, 57, 64
1, 2974, Note_on_c, 1, 57, 0
1, 2976, Note_on_c, 0, 61, 0
1, 2976, Note_on_c, 0, 62, 75
1, 2976, Note_on_c, 1, 50, 64
1, 3006, Note_on_c, 1, 50, 0
1, 3008, Note_on_c, 1, 53, 64
1, 3038, Note_on_c, 1, 53, 0
1, 3040, Note_on_c, 1, 57, 64
1, 3065, Note_on_c, 0, 62, 0
1, 3070, Note_on_c, 1, 57, 0
1, 3072, Note_on_c, 0, 70, 75
1, 3072, Note_on_c, 1, 50, 64
1, 3102, Note_on_c, 1, 50, 0
1, 3104, Note_on_c, 1, 55, 64
1, 3134, Note_on_c, 1, 55, 0
1, 3136, Note_on_c, 1, 58, 64
1, 3166, Note_on_c, 1, 58, 0
1, 3168, Note_on_c, 1, 50, 64
1, 3198, Note_on_c, 1, 50, 0
1, 3200, Note_on_c, 1, 55, 64
1, 3205, Note_on_c, 0, 70, 0
1, 3216, Note_on_c, 0, 67, 75
1, 3230, Note_on_c, 1, 55, 0
1, 3232, Note_on_c, 1, 58, 64
1, 3261, Note_on_c, 0, 67, 0
1, 3262, Note_on_c, 1, 58, 0
1, 3264, Note_on_c, 0, 69, 75
1, 3264, Note_on_c, 1, 50, 64
1, 3294, Note_on_c, 1, 50, 0
1, 3296, Note_on_c, 1, 53, 64
1, 3326, Note_on_c, 1, 53, 0
1, 3328, Note_on_c, 1, 57, 64
1, 3358, Note_on_c, 1, 57, 0
1, 3360, Note_on_c, 1, 50, 64
1, 3390, Note_on_c, 1, 50, 0
1, 3392, Note_on_c, 1, 53, 64
1, 3422, Note_on_c, 1, 53, 0
1, 3424, Note_on_c, 1, 57, 64
1, 3441, Note_on_c, 0, 69, 0
1, 3454, Note_on_c, 1, 57, 0
1, 3456, Note_on_c, 0, 67, 75
1, 3456, Note_on_c, 1, 49, 64
1, 3486, Note_on_c, 1, 49, 0
1, 3488, Note_on_c, 1, 52, 64
1, 3518, Note_on_c, 1, 52, 0
1, 3520, Note_on_c, 1, 57, 64
1, 3550, Note_on_c, 1, 57, 0
1, 3552, Note_on_c, 1, 49, 64
1, 3582, Note_on_c, 1, 49, 0
1, 3584, Note_on_c, 1, 52, 64
1, 3589, Note_on_c, 0, 67, 0
1, 3600, Note_on_c, 0, 64, 75
1, 3614, Note_on_c, 1, 52, 0
1, 3616, Note_on_c, 1, 57, 64
1, 3645, Note_on_c, 0, 64, 0
1, 3646, Note_on_c, 1, 57, 0
1, 3648, Note_on_c, 0, 67, 76
1, 3648, Note_on_c, 1, 50, 75
1, 3693, Note_on_c, 0, 67, 0
1, 3696, Note_on_c, 0, 65, 77
1, 3737, Note_on_c, 1, 50, 0
1, 3741, Note_on_c, 0, 65, 0
1, 3744, Note_on_c, 0, 64, 78
1, 3744, Note_on_c, 1, 56, 75
1, 3789, Note_on_c, 0, 64, 0
1, 3792, Note_on_c, 0, 62, 79
1, 3833, Note_on_c, 1, 56, 0
1, 3837, Note_on_c, 0, 62, 0
1, 3840, Note_on_c, 0, 61, 80
1, 3840, Note_on_c, 1, 57, 75
1, 3852, Note_on_c, 0, 61, 0
1, 3852, Note_on_c, 0, 62, 80
1, 3864, Note_on_c, 0, 62, 0
1, 3864, Note_on_c, 0, 64, 80
1, 3876, Note_on_c, 0, 64, 0
1, 3876, Note_on_c, 0, 62, 80
1, 3885, Note_on_c, 1, 57, 0
1, 3888, Note_on_c, 1, 45, 75
1, 3933, Note_on_c, 1, 45, 0
1, 3936, Note_on_c, 1, 57, 75
1, 3956, Note_on_c, 1, 57, 0
1, 3984, Note_on_c, 1, 57, 75
1, 4004, Note_on_c, 1, 57, 0
1, 4032, Note_on_c, 0, 62, 0
1, 4032, Note_on_c, 0, 61, 76
1, 4032, Note_on_c, 1, 57, 91
1, 4080, Note_on_c, 1, 57, 0
1, 4080, Note_on_c, 1, 55, 75
1, 4121, Note_on_c, 0, 61, 0
1, 4125, Note_on_c, 1, 55, 0
1, 4128, Note_on_c, 1, 53, 75
1, 4173, Note_on_c, 1, 53, 0
1, 4176, Note_on_c, 1, 52, 75
1, 4221, Note_on_c, 1, 52, 0
1, 4224, Note_on_c, 1, 50, 75
1, 4256, Note_on_c, 0, 61, 75
1, 4288, Note_on_c, 0, 61, 0
1, 4288, Note_on_c, 0, 62, 75
1, 4318, Note_on_c, 0, 62, 0
1, 4320, Note_on_c, 0, 65, 91
1, 4352, Note_on_c, 0, 65, 0
1, 4352, Note_on_c, 0, 61, 76
1, 4384, Note_on_c, 0, 61, 0
1, 4384, Note_on_c, 0, 62, 76
1, 4401, Note_on_c, 1, 50, 0
1, 4414, Note_on_c, 0, 62, 0
1, 4416, Note_on_c, 0, 67, 93
1, 4416, Note_on_c, 1, 52, 77
1, 4448, Note_on_c, 0, 67, 0
1, 4448, Note_on_c, 0, 61, 77
1, 4480, Note_on_c, 0, 61, 0
1, 4480, Note_on_c, 0, 62, 77
1, 4505, Note_on_c, 1, 52, 0
1, 4510, Note_on_c, 0, 62, 0
1, 4512, Note_on_c, 0, 69, 94
1, 4512, Note_on_c, 1, 53, 78
1, 4544, Note_on_c, 0, 69, 0
1, 4544, Note_on_c, 0, 61, 78
1, 4576, Note_on_c, 0, 61, 0
1, 4576, Note_on_c, 0, 62, 79
1, 4601, Note_on_c, 1, 53, 0
1, 4606, Note_on_c, 0, 62, 0
1, 4608, Note_on_c, 1, 55, 109
1, 4608, Note_on_c, 1, 51, 109
1, 4608, Note_on_c, 1, 46, 109
1, 4608, Note_on_c, 1, 43, 109
1, 4640, Note_on_c, 0, 58, 80
1, 4670, Note_on_c, 0, 58, 0
1, 4672, Note_on_c, 0, 63, 80
1, 4702, Note_on_c, 0, 63, 0
1, 4704, Note_on_c, 0, 67, 80
1, 4734, Note_on_c, 0, 67, 0
1, 4736, Note_on_c, 0, 63, 80
1, 4766, Note_on_c, 0, 63, 0
1, 4768, Note_on_c, 0, 67, 80
1, 4798, Note_on_c, 0, 67, 0
1, 4800, Note_on_c, 0, 70, 80
1, 4830, Note_on_c, 0, 70, 0
1, 4832, Note_on_c, 0, 67, 80
1, 4862, Note_on_c, 0, 67, 0
1, 4864, Note_on_c, 0, 70, 80
1, 4894, Note_on_c, 0, 70, 0
1, 4896, Note_on_c, 0, 75, 80
1, 4926, Note_on_c, 0, 75, 0
1, 4928, Note_on_c, 0, 70, 80
1, 4958, Note_on_c, 0, 70, 0
1, 4960, Note_on_c, 0, 79, 80
1, 4990, Note_on_c, 0, 79, 0
1, 4992, Tempo, 631578
1, 4992, Note_on_c, 0, 82, 80
1, 4992, Note_on_c, 1, 55, 0
1, 4992, Note_on_c, 1, 51, 0
1, 4992, Note_on_c, 1, 46, 0
1, 4992, Note_on_c, 1, 43, 0
1, 5022, Note_on_c, 0, 82, 0
1, 5024, Note_on_c, 0, 81, 78
1, 5054, Note_on_c, 0, 81, 0
1, 5056, Note_on_c, 0, 79, 76
1, 5088, Note_on_c, 0, 79, 0
1, 5088, Note_on_c, 0, 77, 75
1, 5088, Note_on_c, 0, 74, 75
1, 5088, Note_on_c, 1, 44, 64
1, 5177, Note_on_c, 0, 77, 0
1, 5177, Note_on_c, 0, 74, 0
1, 5182, Note_on_c, 1, 44, 0
1, 5280, Note_on_c, 0, 76, 70
1, 5280, Note_on_c, 0, 73, 70
1, 5280, Note_on_c, 0, 69, 70
1, 5369, Note_on_c, 0, 76, 0
1, 5369, Note_on_c, 0, 73, 0
1, 5369, Note_on_c, 0, 69, 0
1, 5472, Tempo, 461538
1, 5472, Note_on_c, 0, 74, 70
1, 5472, Note_on_c, 0, 65, 70
1, 5520, Note_on_c, 1, 61, 64
1, 5568, Note_on_c, 1, 61, 0
1, 5568, Note_on_c, 1, 62, 64
1, 5605, Note_on_c, 0, 74, 0
1, 5605, Note_on_c, 0, 65, 0
1, 5613, Note_on_c, 1, 62, 0
1, 5616, Note_on_c, 0, 76, 70
1, 5616, Note_on_c, 0, 69, 70
1, 5616, Note_on_c, 1, 57, 64
1, 5661, Note_on_c, 0, 76, 0
1, 5661, Note_on_c, 0, 69, 0
1, 5661, Note_on_c, 1, 57, 0
1, 5664, Note_on_c, 0, 77, 70
1, 5664, Note_on_c, 0, 74, 70
1, 5664, Note_on_c, 1, 50, 64
1, 5703, Note_on_c, 0, 77, 0
1, 5703, Note_on_c, 0, 74, 0
1, 5753, Note_on_c, 1, 50, 0
1, 5856, Tempo, 444444
1, 5856, Note_on_c, 1, 41, 96
1, 5865, Note_on_c, 1, 45, 96
1, 5874, Note_on_c, 1, 48, 96
1, 5883, Note_on_c, 1, 53, 96
1, 5928, Note_on_c, 0, 81, 80
1, 5951, Note_on_c, 0, 81, 0
1, 5952, Note_on_c, 0, 84, 80
1, 5975, Note_on_c, 0, 84, 0
1, 5976, Note_on_c, 0, 82, 80
1, 5999, Note_on_c, 0, 82, 0
1, 6000, Note_on_c, 0, 81, 80
1, 6023, Note_on_c, 0, 81, 0
1, 6024, Note_on_c, 0, 79, 80
1, 6047, Note_on_c, 0, 79, 0
1, 6048, Note_on_c, 0, 77, 80
1, 6071, Note_on_c, 0, 77, 0
1, 6072, Note_on_c, 0, 76, 80
1, 6085, Note_on_c, 1, 53, 0
1, 6085, Note_on_c, 1, 48, 0
1, 6085, Note_on_c, 1, 45, 0
1, 6085, Note_on_c, 1, 41, 0
1, 6095, Note_on_c, 0, 76, 0
1, 6096, Note_on_c, 0, 74, 80
1, 6119, Note_on_c, 0, 74, 0
1, 6120, Note_on_c, 0, 72, 80
1, 6143, Note_on_c, 0, 72, 0
1, 6144, Note_on_c, 0, 70, 80
1, 6167, Note_on_c, 0, 70, 0
1, 6168, Note_on_c, 0, 69, 80
1, 6191, Note_on_c, 0, 69, 0
1, 6192, Note_on_c, 0, 67, 80
1, 6215, Note_on_c, 0, 67, 0
1, 6216, Note_on_c, 0, 65, 80
1, 6239, Note_on_c, 0, 65, 0
1, 6240, Note_on_c, 0, 76, 75
1, 6240, Note_on_c, 0, 64, 75
1, 6270, Note_on_c, 0, 76, 0
1, 6270, Note_on_c, 0, 64, 0
1, 6272, Note_on_c, 0, 74, 75
1, 6272, Note_on_c, 0, 62, 75
1, 6302, Note_on_c, 0, 74, 0
1, 6302, Note_on_c, 0, 62, 0
1, 6304, Note_on_c, 0, 72, 75
1, 6304, Note_on_c, 0, 60, 75
1, 6334, Note_on_c, 0, 72, 0
1, 6334, Note_on_c, 0, 60, 0
1, 6336, Note_on_c, 0, 70, 75
1, 6336, Note_on_c, 0, 58, 75
1, 6366, Note_on_c, 0, 70, 0
1, 6366, Note_on_c, 0, 58, 0
1, 6368, Note_on_c, 0, 69, 75
1, 6368, Note_on_c, 0, 57, 75
1, 6398, Note_on_c, 0, 69, 0
1, 6398, Note_on_c, 0, 57, 0
1, 6400, Note_on_c, 0, 67, 75
1, 6400, Note_on_c, 0, 55, 75
1, 6430, Note_on_c, 0, 67, 0
1, 6430, Note_on_c, 0, 55, 0
1, 6432, Note_on_c, 0, 66, 80
1, 6432, Note_on_c, 1, 54, 80
1, 6432, Note_on_c, 1, 42, 80
1, 6462, Note_on_c, 0, 66, 0
1, 6464, Note_on_c, 0, 63, 80
1, 6494, Note_on_c, 0, 63, 0
1, 6496, Note_on_c, 0, 62, 80
1, 6526, Note_on_c, 0, 62, 0
1, 6528, Note_on_c, 0, 60, 80
1, 6558, Note_on_c, 0, 60, 0
1, 6560, Note_on_c, 0, 58, 80
1, 6590, Note_on_c, 0, 58, 0
1, 6592, Note_on_c, 0, 57, 80
1, 6622, Note_on_c, 0, 57, 0
1, 6624, Note_on_c, 0, 58, 80
1, 6624, Note_on_c, 1, 54, 0
1, 6624, Note_on_c, 1, 42, 0
1, 6624, Note_on_c, 1, 55, 80
1, 6624, Note_on_c, 1, 43, 80
1, 6654, Note_on_c, 0, 58, 0
1, 6656, Note_on_c, 0, 55, 80
1, 6663, Note_on_c, 1, 55, 0
1, 6663, Note_on_c, 1, 43, 0
1, 6686, Note_on_c, 0, 55, 0
1, 6688, Note_on_c, 0, 58, 80
1, 6718, Note_on_c, 0, 58, 0
1, 6720, Note_on_c, 0, 62, 80
1, 6750, Note_on_c, 0, 62, 0
1, 6752, Note_on_c, 0, 58, 80
1, 6782, Note_on_c, 0, 58, 0
1, 6784, Note_on_c, 0, 62, 80
1, 6814, Note_on_c, 0, 62, 0
1, 6816, Note_on_c, 0, 67, 80
1, 6846, Note_on_c, 0, 67, 0
1, 6848, Note_on_c, 0, 62, 80
1, 6878, Note_on_c, 0, 62, 0
1, 6880, Note_on_c, 0, 67, 80
1, 6910, Note_on_c, 0, 67, 0
1, 6912, Note_on_c, 0, 70, 80
1, 6942, Note_on_c, 0, 70, 0
1, 6944, Note_on_c, 0, 67, 80
1, 6974, Note_on_c, 0, 67, 0
1, 6976, Note_on_c, 0, 70, 80
1, 7006, Note_on_c, 0, 70, 0
1, 7008, Note_on_c, 0, 64, 80
1, 7008, Note_on_c, 1, 48, 80
1, 7008, Note_on_c, 1, 40, 80
1, 7008, Note_on_c, 1, 36, 80
1, 7038, Note_on_c, 0, 64, 0
1, 7040, Note_on_c, 0, 79, 80
1, 7070, Note_on_c, 0, 79, 0
1, 7072, Note_on_c, 0, 77, 80
1, 7102, Note_on_c, 0, 77, 0
1, 7104, Note_on_c, 0, 76, 80
1, 7134, Note_on_c, 0, 76, 0
1, 7136, Note_on_c, 0, 74, 80
1, 7166, Note_on_c, 0, 74, 0
1, 7168, Note_on_c, 0, 72, 80
1, 7185, Note_on_c, 1, 48, 0
1, 7185, Note_on_c, 1, 40, 0
1, 7185, Note_on_c, 1, 36, 0
1, 7198, Note_on_c, 0, 72, 0
1, 7200, Note_on_c, 0, 70, 80
1, 7223, Note_on_c, 0, 70, 0
1, 7224, Note_on_c, 0, 69, 80
1, 7247, Note_on_c, 0, 69, 0
1, 7248, Note_on_c, 0, 67, 80
1, 7271, Note_on_c, 0, 67, 0
1, 7272, Note_on_c, 0, 65, 80
1, 7295, Note_on_c, 0, 65, 0
1, 7296, Note_on_c, 0, 64, 75
1, 7296, Note_on_c, 0, 52, 75
1, 7319, Note_on_c, 0, 64, 0
1, 7319, Note_on_c, 0, 52, 0
1, 7320, Note_on_c, 0, 62, 75
1, 7320, Note_on_c, 0, 50, 75
1, 7343, Note_on_c, 0, 62, 0
1, 7343, Note_on_c, 0, 50, 0
1, 7344, Note_on_c, 0, 60, 75
1, 7344, Note_on_c, 0, 48, 75
1, 7367, Note_on_c, 0, 60, 0
1, 7367, Note_on_c, 0, 48, 0
1, 7368, Note_on_c, 0, 58, 75
1, 7368, Note_on_c, 0, 46, 75
1, 7391, Note_on_c, 0, 58, 0
1, 7391, Note_on_c, 0, 46, 0
1, 7392, Note_on_c, 0, 72, 80
1, 7392, Note_on_c, 1, 57, 80
1, 7392, Note_on_c, 1, 53, 80
1, 7392, Note_on_c, 1, 48, 80
1, 7392, Note_on_c, 1, 45, 80
1, 7422, Note_on_c, 0, 72, 0
1, 7424, Note_on_c, 0, 69, 80
1, 7454, Note_on_c, 0, 69, 0
1, 7456, Note_on_c, 0, 60, 80
1, 7486, Note_on_c, 0, 60, 0
1, 7488, Note_on_c, 0, 72, 80
1, 7518, Note_on_c, 0, 72, 0
1, 7520, Note_on_c, 0, 69, 80
1, 7550, Note_on_c, 0, 69, 0
1, 7552, Note_on_c, 0, 60, 80
1, 7569, Note_on_c, 1, 57, 0
1, 7569, Note_on_c, 1, 53, 0
1, 7569, Note_on_c, 1, 48, 0
1, 7569, Note_on_c, 1, 45, 0
1, 7582, Note_on_c, 0, 60, 0
1, 7584, Note_on_c, 0, 70, 80
1, 7584, Note_on_c, 1, 55, 80
1, 7584, Note_on_c, 1, 52, 80
1, 7584, Note_on_c, 1, 46, 80
1, 7614, Note_on_c, 0, 70, 0
1, 7616, Note_on_c, 0, 67, 80
1, 7646, Note_on_c, 0, 67, 0
1, 7648, Note_on_c, 0, 60, 80
1, 7678, Note_on_c, 0, 60, 0
1, 7680, Note_on_c, 0, 70, 80
1, 7710, Note_on_c, 0, 70, 0
1, 7712, Note_on_c, 0, 67, 80
1, 7742, Note_on_c, 0, 67, 0
1, 7744, Note_on_c, 0, 60, 80
1, 7761, Note_on_c, 1, 55, 0
1, 7761, Note_on_c, 1, 52, 0
1, 7761, Note_on_c, 1, 46, 0
1, 7774, Note_on_c, 0, 60, 0
1, 7776, Note_on_c, 0, 69, 80
1, 7776, Note_on_c, 1, 57, 80
1, 7776, Note_on_c, 1, 53, 80
1, 7776, Note_on_c, 1, 48, 80
1, 7776, Note_on_c, 1, 45, 80
1, 7806, Note_on_c, 0, 69, 0
1, 7808, Note_on_c, 0, 65, 80
1, 7838, Note_on_c, 0, 65, 0
1, 7840, Note_on_c, 0, 60, 80
1, 7870, Note_on_c, 0, 60, 0
1, 7872, Note_on_c, 0, 69, 80
1, 7902, Note_on_c, 0, 69, 0
1, 7904, Note_on_c, 0, 65, 80
1, 7934, Note_on_c, 0, 65, 0
1, 7936, Note_on_c, 0, 60, 80
1, 7953, Note_on_c, 1, 57, 0
1, 7953, Note_on_c, 1, 53, 0
1, 7953, Note_on_c, 1, 48, 0
1, 7953, Note_on_c, 1, 45, 0
1, 7966, Note_on_c, 0, 60, 0
1, 7968, Note_on_c, 0, 67, 80
1, 7968, Note_on_c, 1, 55, 80
1, 7968, Note_on_c, 1, 52, 80
1, 7968, Note_on_c, 1, 48, 80
1, 7968, Note_on_c, 1, 43, 80
1, 7998, Note_on_c, 0, 67, 0
1, 8000, Note_on_c, 0, 64, 80
1, 8030, Note_on_c, 0, 64, 0
1, 8032, Note_on_c, 0, 60, 80
1, 8062, Note_on_c, 0, 60, 0
1, 8064, Note_on_c, 0, 67, 80
1, 8094, Note_on_c, 0, 67, 0
1, 8096, Note_on_c, 0, 64, 80
1, 8126, Note_on_c, 0, 64, 0
1, 8128, Note_on_c, 0, 60, 80
1, 8145, Note_on_c, 1, 55, 0
1, 8145, Note_on_c, 1, 52, 0
1, 8145, Note_on_c, 1, 48, 0
1, 8145, Note_on_c, 1, 43, 0
1, 8158, Note_on_c, 0, 60, 0
1, 8160, Note_on_c, 0, 72, 80
1, 8160, Note_on_c, 1, 45, 80
1, 8190, Note_on_c, 0, 72, 0
1, 8190, Note_on_c, 1, 45, 0
1, 8192, Note_on_c, 0, 69, 80
1, 8192, Note_on_c, 1, 48, 80
1, 8222, Note_on_c, 0, 69, 0
1, 8222, Note_on_c, 1, 48, 0
1, 8224, Note_on_c, 0, 60, 80
1, 8224, Note_on_c, 1, 53, 80
1, 8254, Note_on_c, 0, 60, 0
1, 8254, Note_on_c, 1, 53, 0
1, 8256, Note_on_c, 0, 72, 81
1, 8256, Note_on_c, 1, 45, 80
1, 8286, Note_on_c, 0, 72, 0
1, 8286, Note_on_c, 1, 45, 0
1, 8288, Note_on_c, 0, 69, 81
1, 8288, Note_on_c, 1, 48, 80
1, 8318, Note_on_c, 0, 69, 0
1, 8318, Note_on_c, 1, 48, 0
1, 8320, Note_on_c, 0, 60, 82
1, 8320, Note_on_c, 1, 53, 80
1, 8350, Note_on_c, 0, 60, 0
1, 8350, Note_on_c, 1, 53, 0
1, 8352, Note_on_c, 0, 70, 82
1, 8352, Note_on_c, 1, 43, 80
1, 8382, Note_on_c, 0, 70, 0
1, 8382, Note_on_c, 1, 43, 0
1, 8384, Note_on_c, 0, 67, 83
1, 8384, Note_on_c, 1, 48, 80
1, 8414, Note_on_c, 0, 67, 0
1, 8414, Note_on_c, 1, 48, 0
1, 8416, Note_on_c, 0, 60, 83
1, 8416, Note_on_c, 1, 52, 80
1, 8446, Note_on_c, 0, 60, 0
1, 8446, Note_on_c, 1, 52, 0
1, 8448, Note_on_c, 0, 70, 84
1, 8448, Note_on_c, 1, 43, 80
1, 8478, Note_on_c, 0, 70, 0
1, 8478, Note_on_c, 1, 43, 0
1, 8480, Note_on_c, 0, 67, 84
1, 8480, Note_on_c, 1, 48, 80
1, 8510, Note_on_c, 0, 67, 0
1, 8510, Note_on_c, 1, 48, 0
1, 8512, Note_on_c, 0, 60, 85
1, 8512, Note_on_c, 1, 52, 80
1, 8542, Note_on_c, 0, 60, 0
1, 8542, Note_on_c, 1, 52, 0
1, 8544, Note_on_c, 0, 69, 86
1, 8544, Note_on_c, 1, 41, 80
1, 8574, Note_on_c, 0, 69, 0
1, 8574, Note_on_c, 1, 41, 0
1, 8576, Note_on_c, 0, 65, 86
1, 8576, Note_on_c, 1, 45, 80
1, 8606, Note_on_c, 0, 65, 0
1, 8606, Note_on_c, 1, 45, 0
1, 8608, Note_on_c, 0, 60, 85
1, 8608, Note_on_c, 1, 48, 80
1, 8638, Note_on_c, 0, 60, 0
1, 8638, Note_on_c, 1, 48, 0
1, 8640, Note_on_c, 0, 69, 84
1, 8640, Note_on_c, 1, 41, 80
1, 8670, Note_on_c, 0, 69, 0
1, 8670, Note_on_c, 1, 41, 0
1, 8672, Note_on_c, 0, 65, 84
1, 8672, Note_on_c, 1, 45, 80
1, 8702, Note_on_c, 0, 65, 0
1, 8702, Note_on_c, 1, 45, 0
1, 8704, Note_on_c, 0, 60, 83
1, 8704, Note_on_c, 1, 48, 80
1, 8734, Note_on_c, 0, 60, 0
1, 8734, Note_on_c, 1, 48, 0
1, 8736, Note_on_c, 0, 67, 83
1, 8736, Note_on_c, 1, 36, 80
1, 8766, Note_on_c, 0, 67, 0
1, 8766, Note_on_c, 1, 36, 0
1, 8768, Note_on_c, 0, 64, 82
1, 8768, Note_on_c, 1, 43, 80
1, 8798, Note_on_c, 0, 64, 0
1, 8798, Note_on_c, 1, 43, 0
1, 8800, Note_on_c, 0, 60, 82
1, 8800, Note_on_c, 1, 48, 80
1, 8830, Note_on_c, 0, 60, 0
1, 8830, Note_on_c, 1, 48, 0
1, 8832, Note_on_c, 0, 67, 81
1, 8832, Note_on_c, 1, 36, 80
1, 8862, Note_on_c, 0, 67, 0
1, 8862, Note_on_c, 1, 36, 0
1, 8864, Note_on_c, 0, 64, 81
1, 8864, Note_on_c, 1, 43, 80
1, 8894, Note_on_c, 0, 64, 0
1, 8894, Note_on_c, 1, 43, 0
1, 8896, Note_on_c, 0, 60, 80
1, 8896, Note_on_c, 1, 48, 80
1, 8926, Note_on_c, 0, 60, 0
1, 8926, Note_on_c, 1, 48, 0
1, 8928, Note_on_c, 0, 65, 80
1, 8928, Note_on_c, 1, 50, 80
1, 8928, Note_on_c, 1, 38, 80
1, 8951, Note_on_c, 0, 65, 0
1, 8952, Note_on_c, 0, 62, 79
1, 8975, Note_on_c, 0, 62, 0
1, 8976, Note_on_c, 0, 59, 78
1, 8999, Note_on_c, 0, 59, 0
1, 9000, Note_on_c, 0, 62, 78
1, 9023, Note_on_c, 0, 62, 0
1, 9024, Note_on_c, 0, 65, 77
1, 9047, Note_on_c, 0, 65, 0
1, 9048, Note_on_c, 0, 62, 76
1, 9071, Note_on_c, 0, 62, 0
1, 9072, Note_on_c, 0, 59, 76
1, 9095, Note_on_c, 0, 59, 0
1, 9096, Note_on_c, 0, 62, 75
1, 9119, Note_on_c, 0, 62, 0
1, 9120, Note_on_c, 0, 64, 75
1, 9120, Note_on_c, 1, 50, 0
1, 9120, Note_on_c, 1, 38, 0
1, 9120, Note_on_c, 1, 48, 76
1, 9120, Note_on_c, 1, 36, 76
1, 9168, Note_on_c, 0, 64, 0
1, 9168, Note_on_c, 0, 72, 75
1, 9209, Note_on_c, 1, 48, 0
1, 9209, Note_on_c, 1, 36, 0
1, 9213, Note_on_c, 0, 72, 0
1, 9504, Note_on_c, 0, 64, 70
1, 9504, Note_on_c, 1, 58, 64
1, 9552, Note_on_c, 0, 64, 0
1, 9552, Note_on_c, 0, 72, 70
1, 9593, Note_on_c, 1, 58, 0
1, 9597, Note_on_c, 0, 72, 0
1, 9888, Note_on_c, 0, 66, 70
1, 9888, Note_on_c, 1, 62, 64
1, 9888, Note_on_c, 1, 60, 64
1, 9936, Note_on_c, 0, 66, 0
1, 9936, Note_on_c, 0, 74, 70
1, 9977, Note_on_c, 1, 62, 0
1, 9977, Note_on_c, 1, 60, 0
1, 9981, Note_on_c, 0, 74, 0
1, 10272, Note_on_c, 0, 67, 70
1, 10272, Note_on_c, 1, 55, 64
1, 10320, Note_on_c, 0, 67, 0
1, 10320, Note_on_c, 0, 75, 70
1, 10320, Note_on_c, 1, 55, 0
1, 10320, Note_on_c, 1, 63, 64
1, 10365, Note_on_c, 0, 75, 0
1, 10365, Note_on_c, 1, 63, 0
1, 10368, Note_on_c, 0, 66, 70
1, 10368, Note_on_c, 1, 54, 64
1, 10416, Note_on_c, 0, 66, 0
1, 10416, Note_on_c, 0, 74, 70
1, 10416, Note_on_c, 1, 54, 0
1, 10416, Note_on_c, 1, 62, 64
1, 10461, Note_on_c, 0, 74, 0
1, 10461, Note_on_c, 1, 62, 0
1, 10656, Note_on_c, 0, 64, 70
1, 10656, Note_on_c, 1, 60, 64
1, 10656, Note_on_c, 1, 58, 64
1, 10704, Note_on_c, 0, 64, 0
1, 10704, Note_on_c, 0, 72, 70
1, 10745, Note_on_c, 1, 60, 0
1, 10745, Note_on_c, 1, 58, 0
1, 10749, Note_on_c, 0, 72, 0
1, 10752, Note_on_c, 0, 65, 70
1, 10752, Note_on_c, 1, 60, 64
1, 10752, Note_on_c, 1, 57, 64
1, 10800, Note_on_c, 0, 65, 0
1, 10800, Note_on_c, 0, 72, 70
1, 10841, Note_on_c, 1, 60, 0
1, 10841, Note_on_c, 1, 57, 0
1, 10845, Note_on_c, 0, 72, 0
1, 10848, Note_on_c, 0, 64, 70
1, 10848, Note_on_c, 1, 58, 64
1, 10848, Note_on_c, 1, 55, 64
1, 10896, Note_on_c, 0, 64, 0
1, 10896, Note_on_c, 0, 73, 70
1, 10937, Note_on_c, 1, 58, 0
1, 10937, Note_on_c, 1, 55, 0
1, 10941, Note_on_c, 0, 73, 0
1, 10944, Tempo, 171428
1, 11232, Tempo, 444444
1, 11232, Note_on_c, 0, 73, 70
1, 11232, Note_on_c, 0, 70, 70
1, 11280, Note_on_c, 1, 67, 64
1, 11325, Note_on_c, 1, 67, 0
1, 11328, Note_on_c, 1, 64, 64
1, 11373, Note_on_c, 1, 64, 0
1, 11376, Note_on_c, 1, 67, 64
1, 11409, Note_on_c, 0, 73, 0
1, 11409, Note_on_c, 0, 70, 0
1, 11421, Note_on_c, 1, 67, 0
1, 11424, Note_on_c, 0, 72, 70
1, 11424, Note_on_c, 0, 70, 70
1, 11472, Note_on_c, 1, 67, 64
1, 11517, Note_on_c, 1, 67, 0
1, 11520, Note_on_c, 1, 64, 64
1, 11565, Note_on_c, 1, 64, 0
1, 11568, Note_on_c, 1, 67, 64
1, 11611, Note_on_c, 0, 72, 0
1, 11611, Note_on_c, 0, 70, 0
1, 11613, Note_on_c, 1, 67, 0
1, 11616, Note_on_c, 0, 72, 70
1, 11616, Note_on_c, 0, 70, 70
1, 11664, Note_on_c, 1, 67, 64
1, 11709, Note_on_c, 1, 67, 0
1, 11712, Note_on_c, 1, 64, 64
1, 11757, Note_on_c, 1, 64, 0
1, 11760, Note_on_c, 1, 67, 64
1, 11803, Note_on_c, 0, 72, 0
1, 11803, Note_on_c, 0, 70, 0
1, 11805, Note_on_c, 1, 67, 0
1, 11808, Note_on_c, 0, 72, 70
1, 11808, Note_on_c, 0, 68, 70
1, 11808, Note_on_c, 1, 65, 64
1, 11855, Note_on_c, 0, 72, 0
1, 11855, Note_on_c, 0, 68, 0
1, 11855, Note_on_c, 1, 65, 0
1, 11856, Note_on_c, 0, 68, 71
1, 11856, Note_on_c, 1, 65, 64
1, 11901, Note_on_c, 0, 68, 0
1, 11901, Note_on_c, 1, 65, 0
1, 11904, Note_on_c, 0, 67, 72
1, 11904, Note_on_c, 1, 64, 64
1, 11949, Note_on_c, 0, 67, 0
1, 11949, Note_on_c, 1, 64, 0
1, 11952, Note_on_c, 0, 68, 73
1, 11952, Note_on_c, 1, 65, 64
1, 11997, Note_on_c, 0, 68, 0
1, 11997, Note_on_c, 1, 65, 0
1, 12000, Note_on_c, 0, 75, 75
1, 12000, Note_on_c, 0, 72, 75
1, 12048, Note_on_c, 1, 69, 64
1, 12093, Note_on_c, 1, 69, 0
1, 12096, Note_on_c, 1, 66, 64
1, 12141, Note_on_c, 1, 66, 0
1, 12144, Note_on_c, 1, 69, 64
1, 12177, Note_on_c, 0, 75, 0
1, 12177, Note_on_c, 0, 72, 0
1, 12189, Note_on_c, 1, 69, 0
1, 12192, Note_on_c, 0, 74, 75
1, 12192, Note_on_c, 0, 72, 75
1, 12240, Note_on_c, 1, 69, 64
1, 12285, Note_on_c, 1, 69, 0
1, 12288, Note_on_c, 1, 66, 64
1, 12333, Note_on_c, 1, 66, 0
1, 12336, Note_on_c, 1, 69, 64
1, 12379, Note_on_c, 0, 74, 0
1, 12379, Note_on_c, 0, 72, 0
1, 12381, Note_on_c, 1, 69, 0
1, 12384, Note_on_c, 0, 77, 75
1, 12384, Note_on_c, 0, 74, 75
1, 12432, Note_on_c, 1, 71, 64
1, 12477, Note_on_c, 1, 71, 0
1, 12480, Note_on_c, 1, 68, 64
1, 12525, Note_on_c, 1, 68, 0
1, 12528, Note_on_c, 1, 71, 64
1, 12573, Note_on_c, 1, 71, 0
1, 12576, Note_on_c, 0, 77, 0
1, 12576, Note_on_c, 0, 74, 0
1, 12576, Note_on_c, 0, 76, 71
1, 12576, Note_on_c, 0, 73, 71
1, 12576, Note_on_c, 1, 69, 64
1, 12665, Note_on_c, 0, 76, 0
1, 12665, Note_on_c, 0, 73, 0
1, 12665, Note_on_c, 1, 69, 0
1, 12720, Note_on_c, 0, 81, 80
1, 12740, Note_on_c, 0, 81, 0
1, 12768, Note_on_c, 0, 81, 96
1, 12816, Note_on_c, 0, 81, 0
1, 12816, Note_on_c, 0, 82, 80
1, 12831, Note_on_c, 0, 82, 0
1, 12832, Note_on_c, 0, 81, 80
1, 12847, Note_on_c, 0, 81, 0
1, 12848, Note_on_c, 0, 79, 80
1, 12863, Note_on_c, 0, 79, 0
1, 12864, Note_on_c, 0, 81, 80
1, 12909, Note_on_c, 0, 81, 0
1, 12912, Note_on_c, 0, 84, 80
1, 12912, Note_on_c, 1, 60, 80
1, 12932, Note_on_c, 0, 84, 0
1, 12932, Note_on_c, 1, 60, 0
1, 12960, Note_on_c, 0, 77, 96
1, 12960, Note_on_c, 1, 53, 96
1, 13008, Note_on_c, 0, 77, 0
1, 13008, Note_on_c, 0, 79, 80
1, 13008, Note_on_c, 1, 53, 0
1, 13008, Note_on_c, 1, 55, 80
1, 13023, Note_on_c, 0, 79, 0
1, 13023, Note_on_c, 1, 55, 0
1, 13024, Note_on_c, 0, 77, 80
1, 13024, Note_on_c, 1, 53, 80
1, 13039, Note_on_c, 0, 77, 0
1, 13039, Note_on_c, 1, 53, 0
1, 13040, Note_on_c, 0, 76, 80
1, 13040, Note_on_c, 1, 52, 80
1, 13055, Note_on_c, 0, 76, 0
1, 13055, Note_on_c, 1, 52, 0
1, 13056, Note_on_c, 0, 77, 80
1, 13056, Note_on_c, 1, 53, 80
1, 13101, Note_on_c, 0, 77, 0
1, 13101, Note_on_c, 1, 53, 0
1, 13104, Note_on_c, 0, 81, 80
1, 13104, Note_on_c, 1, 57, 80
1, 13124, Note_on_c, 0, 81, 0
1, 13124, Note_on_c, 1, 57, 0
1, 13152, Note_on_c, 0, 72, 96
1, 13152, Note_on_c, 1, 48, 96
1, 13200, Note_on_c, 0, 72, 0
1, 13200, Note_on_c, 0, 74, 80
1, 13200, Note_on_c, 1, 48, 0
1, 13200, Note_on_c, 1, 50, 80
1, 13215, Note_on_c, 0, 74, 0
1, 13215, Note_on_c, 1, 50, 0
1, 13216, Note_on_c, 0, 72, 80
1, 13216, Note_on_c, 1, 48, 80
1, 13231, Note_on_c, 0, 72, 0
1, 13231, Note_on_c, 1, 48, 0
1, 13232, Note_on_c, 0, 71, 80
1, 13232, Note_on_c, 1, 47, 80
1, 13247, Note_on_c, 0, 71, 0
1, 13247, Note_on_c, 1, 47, 0
1, 13248, Note_on_c, 0, 72, 80
1, 13248, Note_on_c, 1, 48, 80
1, 13293, Note_on_c, 0, 72, 0
1, 13293, Note_on_c, 1, 48, 0
1, 13296, Note_on_c, 0, 77, 80
1, 13296, Note_on_c, 1, 53, 80
1, 13316, Note_on_c, 0, 77, 0
1, 13316, Note_on_c, 1, 53, 0
1, 13344, Note_on_c, 0, 69, 96
1, 13344, Note_on_c, 1, 45, 96
1, 13392, Note_on_c, 0, 69, 0
1, 13392, Note_on_c, 0, 70, 80
1, 13392, Note_on_c, 1, 45, 0
1, 13392, Note_on_c, 1, 46, 80
1, 13407, Note_on_c, 0, 70, 0
1, 13407, Note_on_c, 1, 46, 0
1, 13408, Note_on_c, 0, 69, 80
1, 13408, Note_on_c, 1, 45, 80
1, 13423, Note_on_c, 0, 69, 0
1, 13423, Note_on_c, 1, 45, 0
1, 13424, Note_on_c, 0, 67, 80
1, 13424, Note_on_c, 1, 43, 80
1, 13439, Note_on_c, 0, 67, 0
1, 13439, Note_on_c, 1, 43, 0
1, 13440, Note_on_c, 0, 69, 80
1, 13440, Note_on_c, 1, 45, 80
1, 13485, Note_on_c, 0, 69, 0
1, 13485, Note_on_c, 1, 45, 0
1, 13488, Note_on_c, 0, 72, 80
1, 13488, Note_on_c, 1, 48, 80
1, 13508, Note_on_c, 0, 72, 0
1, 13508, Note_on_c, 1, 48, 0
1, 13536, Note_on_c, 0, 65, 80
1, 13536, Note_on_c, 1, 41, 80
1, 13581, Note_on_c, 0, 65, 0
1, 13584, Note_on_c, 0, 69, 80
1, 13625, Note_on_c, 1, 41, 0
1, 13629, Note_on_c, 0, 69, 0
1, 13632, Note_on_c, 0, 74, 80
1, 13677, Note_on_c, 0, 74, 0
1, 13680, Note_on_c, 0, 72, 80
1, 13725, Note_on_c, 0, 72, 0
1, 13728, Note_on_c, 0, 72, 80
1, 13728, Note_on_c, 0, 69, 80
1, 13728, Note_on_c, 1, 48, 80
1, 13728, Note_on_c, 1, 36, 80
1, 13773, Note_on_c, 0, 72, 0
1, 13773, Note_on_c, 0, 69, 0
1, 13776, Note_on_c, 0, 70, 78
1, 13776, Note_on_c, 0, 67, 78
1, 13821, Note_on_c, 0, 70, 0
1, 13821, Note_on_c, 0, 67, 0
1, 13824, Note_on_c, 0, 69, 77
1, 13824, Note_on_c, 0, 65, 77
1, 13869, Note_on_c, 0, 69, 0
1, 13869, Note_on_c, 0, 65, 0
1, 13872, Note_on_c, 0, 67, 76
1, 13872, Note_on_c, 0, 64, 76
1, 13905, Note_on_c, 1, 48, 0
1, 13905, Note_on_c, 1, 36, 0
1, 13917, Note_on_c, 0, 67, 0
1, 13917, Note_on_c, 0, 64, 0
1, 13920, Note_on_c, 0, 67, 75
1, 13920, Note_on_c, 0, 64, 75
1, 13920, Note_on_c, 1, 53, 80
1, 13920, Note_on_c, 1, 41, 80
1, 14112, Note_on_c, 0, 67, 0
1, 14112, Note_on_c, 0, 64, 0
1, 14112, Note_on_c, 0, 65, 75
1, 14185, Note_on_c, 1, 53, 0
1, 14185, Note_on_c, 1, 41, 0
1, 14201, Note_on_c, 0, 65, 0
1, 14304, Note_on_c, 0, 69, 91
1, 14400, Note_on_c, 1, 50, 75
1, 14489, Note_on_c, 1, 50, 0
1, 14496, Note_on_c, 0, 69, 0
1, 14496, Note_on_c, 0, 61, 75
1, 14496, Note_on_c, 1, 52, 75
1, 14585, Note_on_c, 1, 52, 0
1, 14592, Note_on_c, 0, 61, 0
1, 14592, Note_on_c, 0, 62, 75
1, 14592, Note_on_c, 1, 53, 75
1, 14681, Note_on_c, 0, 62, 0
1, 14681, Note_on_c, 1, 53, 0
1, 14688, Note_on_c, 0, 70, 75
1, 14688, Note_on_c, 1, 55, 75
1, 14700, Note_on_c, 0, 70, 0
1, 14700, Note_on_c, 0, 69, 75
1, 14712, Note_on_c, 0, 69, 0
1, 14712, Note_on_c, 0, 70, 75
1, 14777, Note_on_c, 1, 55, 0
1, 14784, Note_on_c, 1, 52, 75
1, 14821, Note_on_c, 0, 70, 0
1, 14832, Note_on_c, 0, 67, 75
1, 14873, Note_on_c, 1, 52, 0
1, 14877, Note_on_c, 0, 67, 0
1, 14880, Note_on_c, 0, 69, 75
1, 14880, Note_on_c, 1, 53, 75
1, 14969, Note_on_c, 1, 53, 0
1, 14976, Note_on_c, 1, 41, 75
1, 15057, Note_on_c, 0, 69, 0
1, 15065, Note_on_c, 1, 41, 0
1, 15072, Note_on_c, 0, 67, 75
1, 15072, Note_on_c, 1, 52, 75
1, 15161, Note_on_c, 1, 52, 0
1, 15168, Note_on_c, 1, 49, 75
1, 15205, Note_on_c, 0, 67, 0
1, 15216, Note_on_c, 0, 64, 75
1, 15257, Note_on_c, 1, 49, 0
1, 15261, Note_on_c, 0, 64, 0
1, 15264, Note_on_c, 0, 67, 76
1, 15264, Note_on_c, 1, 50, 75
1, 15309, Note_on_c, 0, 67, 0
1, 15312, Note_on_c, 0, 65, 77
1, 15353, Note_on_c, 1, 50, 0
1, 15357, Note_on_c, 0, 65, 0
1, 15360, Note_on_c, 0, 64, 78
1, 15360, Note_on_c, 1, 55, 75
1, 15405, Note_on_c, 0, 64, 0
1, 15408, Note_on_c, 0, 62, 79
1, 15449, Note_on_c, 1, 55, 0
1, 15453, Note_on_c, 0, 62, 0
1, 15456, Note_on_c, 0, 61, 80
1, 15456, Note_on_c, 1, 57, 75
1, 15468, Note_on_c, 0, 61, 0
1, 15468, Note_on_c, 0, 62, 80
1, 15480, Note_on_c, 0, 62, 0
1, 15480, Note_on_c, 0, 64, 80
1, 15492, Note_on_c, 0, 64, 0
1, 15492, Note_on_c, 0, 62, 80
1, 15545, Note_on_c, 1, 57, 0
1, 15552, Note_on_c, 1, 52, 75
1, 15641, Note_on_c, 1, 52, 0
1, 15648, Note_on_c, 0, 62, 0
1, 15648, Note_on_c, 0, 61, 76
1, 15648, Note_on_c, 1, 45, 75
1, 15737, Note_on_c, 0, 61, 0
1, 15737, Note_on_c, 1, 45, 0
1, 15792, Note_on_c, 0, 82, 70
1, 15812, Note_on_c, 0, 82, 0
1, 15840, Note_on_c, 0, 82, 86
1, 15840, Note_on_c, 0, 79, 86
1, 15840, Note_on_c, 1, 76, 64
1, 15840, Note_on_c, 1, 73, 64
1, 16032, Note_on_c, 0, 82, 0
1, 16032, Note_on_c, 0, 79, 0
1, 16032, Note_on_c, 0, 81, 70
1, 16032, Note_on_c, 1, 76, 0
1, 16032, Note_on_c, 1, 73, 0
1, 16032, Note_on_c, 1, 77, 64
1, 16032, Note_on_c, 1, 74, 64
1, 16071, Note_on_c, 0, 81, 0
1, 16071, Note_on_c, 1, 77, 0
1, 16071, Note_on_c, 1, 74, 0
1, 16176, Note_on_c, 0, 85, 70
1, 16196, Note_on_c, 0, 85, 0
1, 16224, Note_on_c, 0, 85, 86
1, 16224, Note_on_c, 0, 82, 86
1, 16224, Note_on_c, 1, 79, 64
1, 16224, Note_on_c, 1, 70, 64
1, 16416, Note_on_c, 0, 85, 0
1, 16416, Note_on_c, 0, 82, 0
1, 16416, Note_on_c, 0, 86, 70
1, 16416, Note_on_c, 0, 81, 70
1, 16416, Note_on_c, 1, 79, 0
1, 16416, Note_on_c, 1, 70, 0
1, 16416, Note_on_c, 1, 77, 64
1, 16416, Note_on_c, 1, 69, 64
1, 16455, Note_on_c, 0, 86, 0
1, 16455, Note_on_c, 0, 81, 0
1, 16455, Note_on_c, 1, 77, 0
1, 16455, Note_on_c, 1, 69, 0
1, 16608, Note_on_c, 0, 87, 70
1, 16608, Note_on_c, 1, 70, 64
1, 16608, Note_on_c, 1, 67, 64
1, 16647, Note_on_c, 0, 87, 0
1, 16647, Note_on_c, 1, 70, 0
1, 16647, Note_on_c, 1, 67, 0
1, 16800, Note_on_c, 0, 85, 70
1, 16800, Note_on_c, 1, 69, 64
1, 16839, Note_on_c, 0, 85, 0
1, 16839, Note_on_c, 1, 69, 0
1, 16992, Note_on_c, 1, 50, 64
1, 17022, Note_on_c, 1, 50, 0
1, 17024, Note_on_c, 1, 53, 64
1, 17054, Note_on_c, 1, 53, 0
1, 17056, Note_on_c, 1, 57, 64
1, 17086, Note_on_c, 1, 57, 0
1, 17088, Note_on_c, 0, 69, 91
1, 17088, Note_on_c, 1, 50, 64
1, 17118, Note_on_c, 1, 50, 0
1, 17120, Note_on_c, 1, 53, 64
1, 17127, Note_on_c, 0, 69, 0
1, 17150, Note_on_c, 1, 53, 0
1, 17152, Note_on_c, 1, 57, 64
1, 17182, Note_on_c, 1, 57, 0
1, 17184, Note_on_c, 0, 61, 75
1, 17184, Note_on_c, 1, 50, 64
1, 17214, Note_on_c, 1, 50, 0
1, 17216, Note_on_c, 1, 53, 64
1, 17246, Note_on_c, 1, 53, 0
1, 17248, Note_on_c, 1, 57, 64
1, 17278, Note_on_c, 1, 57, 0
1, 17280, Note_on_c, 0, 61, 0
1, 17280, Note_on_c, 0, 62, 75
1, 17280, Note_on_c, 1, 50, 64
1, 17310, Note_on_c, 1, 50, 0
1, 17312, Note_on_c, 1, 53, 64
1, 17342, Note_on_c, 1, 53, 0
1, 17344, Note_on_c, 1, 57, 64
1, 17369, Note_on_c, 0, 62, 0
1, 17374, Note_on_c, 1, 57, 0
1, 17376, Note_on_c, 0, 70, 75
1, 17376, Note_on_c, 1, 50, 64
1, 17406, Note_on_c, 1, 50, 0
1, 17408, Note_on_c, 1, 55, 64
1, 17438, Note_on_c, 1, 55, 0
1, 17440, Note_on_c, 1, 58, 64
1, 17470, Note_on_c, 1, 58, 0
1, 17472, Note_on_c, 1, 50, 64
1, 17502, Note_on_c, 1, 50, 0
1, 17504, Note_on_c, 1, 55, 64
1, 17509, Note_on_c, 0, 70, 0
1, 17520, Note_on_c, 0, 67, 75
1, 17534, Note_on_c, 1, 55, 0
1, 17536, Note_on_c, 1, 58, 64
1, 17565, Note_on_c, 0, 67, 0
1, 17566, Note_on_c, 1, 58, 0
1, 17568, Note_on_c, 0, 69, 75
1, 17568, Note_on_c, 1, 50, 64
1, 17598, Note_on_c, 1, 50, 0
1, 17600, Note_on_c, 1, 53, 64
1, 17630, Note_on_c, 1, 53, 0
1, 17632, Note_on_c, 1, 57, 64
1, 17662, Note_on_c, 1, 57, 0
1, 17664, Note_on_c, 1, 50, 64
1, 17694, Note_on_c, 1, 50, 0
1, 17696, Note_on_c, 1, 53, 64
1, 17726, Note_on_c, 1, 53, 0
1, 17728, Note_on_c, 1, 57, 64
1, 17745, Note_on_c, 0, 69, 0
1, 17758, Note_on_c, 1, 57, 0
1, 17760, Note_on_c, 0, 67, 75
1, 17760, Note_on_c, 1, 49, 64
1, 17790, Note_on_c, 1, 49, 0
1, 17792, Note_on_c, 1, 52, 64
1, 17822, Note_on_c, 1, 52, 0
1, 17824, Note_on_c, 1, 57, 64
1, 17854, Note_on_c, 1, 57, 0
1, 17856, Note_on_c, 1, 49, 64
1, 17886, Note_on_c, 1, 49, 0
1, 17888, Note_on_c, 1, 52, 64
1, 17893, Note_on_c, 0, 67, 0
1, 17904, Note_on_c, 0, 64, 75
1, 17918, Note_on_c, 1, 52, 0
1, 17920, Note_on_c, 1, 57, 64
1, 17949, Note_on_c, 0, 64, 0
1, 17950, Note_on_c, 1, 57, 0
1, 17952, Note_on_c, 0, 67, 76
1, 17952, Note_on_c, 1, 50, 75
1, 17997, Note_on_c, 0, 67, 0
1, 18000, Note_on_c, 0, 65, 77
1, 18041, Note_on_c, 1, 50, 0
1, 18045, Note_on_c, 0, 65, 0
1, 18048, Note_on_c, 0, 64, 78
1, 18048, Note_on_c, 1, 56, 75
1, 18093, Note_on_c, 0, 64, 0
1, 18096, Note_on_c, 0, 62, 79
1, 18137, Note_on_c, 1, 56, 0
1, 18141, Note_on_c, 0, 62, 0
1, 18144, Note_on_c, 0, 61, 80
1, 18144, Note_on_c, 1, 57, 75
1, 18156, Note_on_c, 0, 61, 0
1, 18156, Note_on_c, 0, 62, 80
1, 18168, Note_on_c, 0, 62, 0
1, 18168, Note_on_c, 0, 64, 80
1, 18180, Note_on_c, 0, 64, 0
1, 18180, Note_on_c, 0, 62, 80
1, 18189, Note_on_c, 1, 57, 0
1, 18192, Note_on_c, 1, 45, 75
1, 18237, Note_on_c, 1, 45, 0
1, 18240, Note_on_c, 1, 57, 75
1, 18260, Note_on_c, 1, 57, 0
1, 18288, Note_on_c, 1, 57, 75
1, 18308, Note_on_c, 1, 57, 0
1, 18336, Note_on_c, 0, 62, 0
1, 18336, Note_on_c, 0, 61, 76
1, 18336, Note_on_c, 1, 57, 91
1, 18384, Note_on_c, 1, 57, 0
1, 18384, Note_on_c, 1, 55, 75
1, 18425, Note_on_c, 0, 61, 0
1, 18429, Note_on_c, 1, 55, 0
1, 18432, Note_on_c, 1, 53, 75
1, 18477, Note_on_c, 1, 53, 0
1, 18480, Note_on_c, 1, 52, 75
1, 18525, Note_on_c, 1, 52, 0
1, 18528, Note_on_c, 1, 50, 75
1, 18560, Note_on_c, 0, 61, 75
1, 18592, Note_on_c, 0, 61, 0
1, 18592, Note_on_c, 0, 62, 75
1, 18622, Note_on_c, 0, 62, 0
1, 18624, Note_on_c, 0, 65, 91
1, 18656, Note_on_c, 0, 65, 0
1, 18656, Note_on_c, 0, 61, 76
1, 18688, Note_on_c, 0, 61, 0
1, 18688, Note_on_c, 0, 62, 76
1, 18705, Note_on_c, 1, 50, 0
1, 18718, Note_on_c, 0, 62, 0
1, 18720, Note_on_c, 0, 67, 93
1, 18720, Note_on_c, 1, 52, 77
1, 18752, Note_on_c, 0, 67, 0
1, 18752, Note_on_c, 0, 61, 77
1, 18784, Note_on_c, 0, 61, 0
1, 18784, Note_on_c, 0, 62, 77
1, 18809, Note_on_c, 1, 52, 0
1, 18814, Note_on_c, 0, 62, 0
1, 18816, Note_on_c, 0, 69, 94
1, 18816, Note_on_c, 1, 53, 78
1, 18848, Note_on_c, 0, 69, 0
1, 18848, Note_on_c, 0, 61, 78
1, 18880, Note_on_c, 0, 61, 0
1, 18880, Note_on_c, 0, 62, 79
1, 18905, Note_on_c, 1, 53, 0
1, 18910, Note_on_c, 0, 62, 0
1, 18912, Note_on_c, 1, 55, 109
1, 18912, Note_on_c, 1, 51, 109
1, 18912, Note_on_c, 1, 46, 109
1, 18912, Note_on_c, 1, 43, 109
1, 18944, Note_on_c, 0, 58, 80
1, 18974, Note_on_c, 0, 58, 0
1, 18976, Note_on_c, 0, 63, 80
1, 19006, Note_on_c, 0, 63, 0
1, 19008, Note_on_c, 0, 67, 80
1, 19038, Note_on_c, 0, 67, 0
1, 19040, Note_on_c, 0, 63, 80
1, 19070, Note_on_c, 0, 63, 0
1, 19072, Note_on_c, 0, 67, 80
1, 19102, Note_on_c, 0, 67, 0
1, 19104, Note_on_c, 0, 70, 80
1, 19134, Note_on_c, 0, 70, 0
1, 19136, Note_on_c, 0, 67, 80
1, 19166, Note_on_c, 0, 67, 0
1, 19168, Note_on_c, 0, 70, 80
1, 19198, Note_on_c, 0, 70, 0
1, 19200, Note_on_c, 0, 75, 80
1, 19230, Note_on_c, 0, 75, 0
1, 19232, Note_on_c, 0, 70, 80
1, 19262, Note_on_c, 0, 70, 0
1, 19264, Note_on_c, 0, 79, 80
1, 19294, Note_on_c, 0, 79, 0
1, 19296, Tempo, 631578
1, 19296, Note_on_c, 0, 82, 80
1, 19296, Note_on_c, 1, 55, 0
1, 19296, Note_on_c, 1, 51, 0
1, 19296, Note_on_c, 1, 46, 0
1, 19296, Note_on_c, 1, 43, 0
1, 19326, Note_on_c, 0, 82, 0
1, 19328, Note_on_c, 0, 81, 78
1, 19358, Note_on_c, 0, 81, 0
1, 19360, Note_on_c, 0, 79, 76
1, 19392, Note_on_c, 0, 79, 0
1, 19392, Note_on_c, 0, 77, 75
1, 19392, Note_on_c, 0, 74, 75
1, 19392, Note_on_c, 1, 44, 64
1, 19481, Note_on_c, 0, 77, 0
1, 19481, Note_on_c, 0, 74, 0
1, 19486, Note_on_c, 1, 44, 0
1, 19584, Note_on_c, 0, 76, 70
1, 19584, Note_on_c, 0, 73, 70
1, 19584, Note_on_c, 0, 69, 70
1, 19673, Note_on_c, 0, 76, 0
1, 19673, Note_on_c, 0, 73, 0
1, 19673, Note_on_c, 0, 69, 0
1, 19776, Tempo, 461538
1, 19776, Note_on_c, 0, 74, 70
1, 19776, Note_on_c, 0, 65, 70
1, 19824, Note_on_c, 1, 61, 64
1, 19872, Note_on_c, 1, 61, 0
1, 19872, Note_on_c, 1, 62, 64
1, 19909, Note_on_c, 0, 74, 0
1, 19909, Note_on_c, 0, 65, 0
1, 19917, Note_on_c, 1, 62, 0
1, 19920, Note_on_c, 0, 76, 70
1, 19920, Note_on_c, 0, 69, 70
1, 19920, Note_on_c, 1, 57, 64
1, 19965, Note_on_c, 0, 76, 0
1, 19965, Note_on_c, 0, 69, 0
1, 19965, Note_on_c, 1, 57, 0
1, 19968, Note_on_c, 0, 77, 70
1, 19968, Note_on_c, 0, 74, 70
1, 19968, Note_on_c, 1, 50, 64
1, 20007, Note_on_c, 0, 77, 0
1, 20007, Note_on_c, 0, 74, 0
1, 20057, Note_on_c, 1, 50, 0
1, 20160, Tempo, 444444
1, 20160, Note_on_c, 1, 41, 96
1, 20169, Note_on_c, 1, 45, 96
1, 20178, Note_on_c, 1, 48, 96
1, 20187, Note_on_c, 1, 53, 96
1, 20232, Note_on_c, 0, 81, 80
1, 20255, Note_on_c, 0, 81, 0
1, 20256, Note_on_c, 0, 84, 80
1, 20279, Note_on_c, 0, 84, 0
1, 20280, Note_on_c, 0, 82, 80
1, 20303, Note_on_c, 0, 82, 0
1, 20304, Note_on_c, 0, 81, 80
1, 20327, Note_on_c, 0, 81, 0
1, 20328, Note_on_c, 0, 79, 80
1, 20351, Note_on_c, 0, 79, 0
1, 20352, Note_on_c, 0, 77, 80
1, 20375, Note_on_c, 0, 77, 0
1, 20376, Note_on_c, 0, 76, 80
1, 20389, Note_on_c, 1, 53, 0
1, 20389, Note_on_c, 1, 48, 0
1, 20389, Note_on_c, 1, 45, 0
1, 20389, Note_on_c, 1, 41, 0
1, 20399, Note_on_c, 0, 76, 0
1, 20400, Note_on_c, 0, 74, 80
1, 20423, Note_on_c, 0, 74, 0
1, 20424, Note_on_c, 0, 72, 80
1, 20447, Note_on_c, 0, 72, 0
1, 20448, Note_on_c, 0, 70, 80
1, 20471, Note_on_c, 0, 70, 0
1, 20472, Note_on_c, 0, 69, 80
1, 20495, Note_on_c, 0, 69, 0
1, 20496, Note_on_c, 0, 67, 80
1, 20519, Note_on_c, 0, 67, 0
1, 20520, Note_on_c, 0, 65, 80
1, 20543, Note_on_c, 0, 65, 0
1, 20544, Note_on_c, 0, 76, 75
1, 20544, Note_on_c, 0, 64, 75
1, 20574, Note_on_c, 0, 76, 0
1, 20574, Note_on_c, 0, 64, 0
1, 20576, Note_on_c, 0, 74, 75
1, 20576, Note_on_c, 0, 62, 75
1, 20606, Note_on_c, 0, 74, 0
1, 20606, Note_on_c, 0, 62, 0
1, 20608, Note_on_c, 0, 72, 75
1, 20608, Note_on_c, 0, 60, 75
1, 20638, Note_on_c, 0, 72, 0
1, 20638, Note_on_c, 0, 60, 0
1, 20640, Note_on_c, 0, 70, 75
1, 20640, Note_on_c, 0, 58, 75
1, 20670, Note_on_c, 0, 70, 0
1, 20670, Note_on_c, 0, 58, 0
1, 20672, Note_on_c, 0, 69, 75
1, 20672, Note_on_c, 0, 57, 75
1, 20702, Note_on_c, 0, 69, 0
1, 20702, Note_on_c, 0, 57, 0
1, 20704, Note_on_c, 0, 67, 75
1, 20704, Note_on_c, 0, 55, 75
1, 20734, Note_on_c, 0, 67, 0
1, 20734, Note_on_c, 0, 55, 0
1, 20736, Note_on_c, 0, 66, 80
1, 20736, Note_on_c, 1, 54, 80
1, 20736, Note_on_c, 1, 42, 80
1, 20766, Note_on_c, 0, 66, 0
1, 20768, Note_on_c, 0, 63, 80
1, 20798, Note_on_c, 0, 63, 0
1, 20800, Note_on_c, 0, 62, 80
1, 20830, Note_on_c, 0, 62, 0
1, 20832, Note_on_c, 0, 60, 80
1, 20862, Note_on_c, 0, 60, 0
1, 20864, Note_on_c, 0, 58, 80
1, 20894, Note_on_c, 0, 58, 0
1, 20896, Note_on_c, 0, 57, 80
1, 20926, Note_on_c, 0, 57, 0
1, 20928, Note_on_c, 0, 58, 80
1, 20928, Note_on_c, 1, 54, 0
1, 20928, Note_on_c, 1, 42, 0
1, 20928, Note_on_c, 1, 55, 80
1, 20928, Note_on_c, 1, 43, 80
1, 20958, Note_on_c, 0, 58, 0
1, 20960, Note_on_c, 0, 55, 80
1, 20967, Note_on_c, 1, 55, 0
1, 20967, Note_on_c, 1, 43, 0
1, 20990, Note_on_c, 0, 55, 0
1, 20992, Note_on_c, 0, 58, 80
1, 21022, Note_on_c, 0, 58, 0
1, 21024, Note_on_c, 0, 62, 80
1, 21054, Note_on_c, 0, 62, 0
1, 21056, Note_on_c, 0, 58, 80
1, 21086, Note_on_c, 0, 58, 0
1, 21088, Note_on_c, 0, 62, 80
1, 21118, Note_on_c, 0, 62, 0
1, 21120, Note_on_c, 0, 67, 80
1, 21150, Note_on_c, 0, 67, 0
1, 21152, Note_on_c, 0, 62, 80
1, 21182, Note_on_c, 0, 62, 0
1, 21184, Note_on_c, 0, 67, 80
1, 21214, Note_on_c, 0, 67, 0
1, 21216, Note_on_c, 0, 70, 80
1, 21246, Note_on_c, 0, 70, 0
1, 21248, Note_on_c, 0, 67, 80
1, 21278, Note_on_c, 0, 67, 0
1, 21280, Note_on_c, 0, 70, 80
1, 21310, Note_on_c, 0, 70, 0
1, 21312, Note_on_c, 0, 64, 80
1, 21312, Note_on_c, 1, 48, 80
1, 21312, Note_on_c, 1, 40, 80
1, 21312, Note_on_c, 1, 36, 80
1, 21342, Note_on_c, 0, 64, 0
1, 21344, Note_on_c, 0, 79, 80
1, 21374, Note_on_c, 0, 79, 0
1, 21376, Note_on_c, 0, 77, 80
1, 21406, Note_on_c, 0, 77, 0
1, 21408, Note_on_c, 0, 76, 80
1, 21438, Note_on_c, 0, 76, 0
1, 21440, Note_on_c, 0, 74, 80
1, 21470, Note_on_c, 0, 74, 0
1, 21472, Note_on_c, 0, 72, 80
1, 21489, Note_on_c, 1, 48, 0
1, 21489, Note_on_c, 1, 40, 0
1, 21489, Note_on_c, 1, 36, 0
1, 21502, Note_on_c, 0, 72, 0
1, 21504, Note_on_c, 0, 70, 80
1, 21527, Note_on_c, 0, 70, 0
1, 21528, Note_on_c, 0, 69, 80
1, 21551, Note_on_c, 0, 69, 0
1, 21552, Note_on_c, 0, 67, 80
1, 21575, Note_on_c, 0, 67, 0
1, 21576, Note_on_c, 0, 65, 80
1, 21599, Note_on_c, 0, 65, 0
1, 21600, Note_on_c, 0, 64, 75
1, 21600, Note_on_c, 0, 52, 75
1, 21623, Note_on_c, 0, 64, 0
1, 21623, Note_on_c, 0, 52, 0
1, 21624, Note_on_c, 0, 62, 75
1, 21624, Note_on_c, 0, 50, 75
1, 21647, Note_on_c, 0, 62, 0
1, 21647, Note_on_c, 0, 50, 0
1, 21648, Note_on_c, 0, 60, 75
1, 21648, Note_on_c, 0, 48, 75
1, 21671, Note_on_c, 0, 60, 0
1, 21671, Note_on_c, 0, 48, 0
1, 21672, Note_on_c, 0, 58, 75
1, 21672, Note_on_c, 0, 46, 75
1, 21695, Note_on_c, 0, 58, 0
1, 21695, Note_on_c, 0, 46, 0
1, 21696, Note_on_c, 0, 72, 80
1, 21696, Note_on_c, 1, 57, 80
1, 21696, Note_on_c, 1, 53, 80
1, 21696, Note_on_c, 1, 48, 80
1, 21696, Note_on_c, 1, 45, 80
1, 21726, Note_on_c, 0, 72, 0
1, 21728, Note_on_c, 0, 69, 80
1, 21758, Note_on_c, 0, 69, 0
1, 21760, Note_on_c, 0, 60, 80
1, 21790, Note_on_c, 0, 60, 0
1, 21792, Note_on_c, 0, 72, 80
1, 21822, Note_on_c, 0, 72, 0
1, 21824, Note_on_c, 0, 69, 80
1, 21854, Note_on_c, 0, 69, 0
1, 21856, Note_on_c, 0, 60, 80
1, 21873, Note_on_c, 1, 57, 0
1, 21873, Note_on_c, 1, 53, 0
1, 21873, Note_on_c, 1, 48, 0
1, 21873, Note_on_c, 1, 45, 0
1, 21886, Note_on_c, 0, 60, 0
1, 21888, Note_on_c, 0, 70, 80
1, 21888, Note_on_c, 1, 55, 80
1, 21888, Note_on_c, 1, 52, 80
1, 21888, Note_on_c, 1, 46, 80
1, 21918, Note_on_c, 0, 70, 0
1, 21920, Note_on_c, 0, 67, 80
1, 21950, Note_on_c, 0, 67, 0
1, 21952, Note_on_c, 0, 60, 80
1, 21982, Note_on_c, 0, 60, 0
1, 21984, Note_on_c, 0, 70, 80
1, 22014, Note_on_c, 0, 70, 0
1, 22016, Note_on_c, 0, 67, 80
1, 22046, Note_on_c, 0, 67, 0
1, 22048, Note_on_c, 0, 60, 80
1, 22065, Note_on_c, 1, 55, 0
1, 22065, Note_on_c, 1, 52, 0
1, 22065, Note_on_c, 1, 46, 0
1, 22078, Note_on_c, 0, 60, 0
1, 22080, Note_on_c, 0, 69, 80
1, 22080, Note_on_c, 1, 57, 80
1, 22080, Note_on_c, 1, 53, 80
1, 22080, Note_on_c, 1, 48, 80
1, 22080, Note_on_c, 1, 45, 80
1, 22110, Note_on_c, 0, 69, 0
1, 22112, Note_on_c, 0, 65, 80
1, 22142, Note_on_c, 0, 65, 0
1, 22144, Note_on_c, 0, 60, 80
1, 22174, Note_on_c, 0, 60, 0
1, 22176, Note_on_c, 0, 69, 80
1, 22206, Note_on_c, 0, 69, 0
1, 22208, Note_on_c, 0, 65, 80
1, 22238, Note_on_c, 0, 65, 0
1, 22240, Note_on_c, 0, 60, 80
1, 22257, Note_on_c, 1, 57, 0
1, 22257, Note_on_c, 1, 53, 0
1, 22257, Note_on_c, 1, 48, 0
1, 22257, Note_on_c, 1, 45, 0
1, 22270, Note_on_c, 0, 60, 0
1, 22272, Note_on_c, 0, 67, 80
1, 22272, Note_on_c, 1, 55, 80
1, 22272, Note_on_c, 1, 52, 80
1, 22272, Note_on_c, 1, 48, 80
1, 22272, Note_on_c, 1, 43, 80
1, 22302, Note_on_c, 0, 67, 0
1, 22304, Note_on_c, 0, 64, 80
1, 22334, Note_on_c, 0, 64, 0
1, 22336, Note_on_c, 0, 60, 80
1, 22366, Note_on_c, 0, 60, 0
1, 22368, Note_on_c, 0, 67, 80
1, 22398, Note_on_c, 0, 67, 0
1, 22400, Note_on_c, 0, 64, 80
1, 22430, Note_on_c, 0, 64, 0
1, 22432, Note_on_c, 0, 60, 80
1, 22449, Note_on_c, 1, 55, 0
1, 22449, Note_on_c, 1, 52, 0
1, 22449, Note_on_c, 1, 48, 0
1, 22449, Note_on_c, 1, 43, 0
1, 22462, Note_on_c, 0, 60, 0
1, 22464, Note_on_c, 0, 72, 80
1, 22464, Note_on_c, 1, 45, 80
1, 22494, Note_on_c, 0, 72, 0
1, 22494, Note_on_c, 1, 45, 0
1, 22496, Note_on_c, 0, 69, 80
1, 22496, Note_on_c, 1, 48, 80
1, 22526, Note_on_c, 0, 69, 0
1, 22526, Note_on_c, 1, 48, 0
1, 22528, Note_on_c, 0, 60, 80
1, 22528, Note_on_c, 1, 53, 80
1, 22558, Note_on_c, 0, 60, 0
1, 22558, Note_on_c, 1, 53, 0
1, 22560, Note_on_c, 0, 72, 81
1, 22560, Note_on_c, 1, 45, 80
1, 22590, Note_on_c, 0, 72, 0
1, 22590, Note_on_c, 1, 45, 0
1, 22592, Note_on_c, 0, 69, 81
1, 22592, Note_on_c, 1, 48, 80
1, 22622, Note_on_c, 0, 69, 0
1, 22622, Note_on_c, 1, 48, 0
1, 22624, Note_on_c, 0, 60, 82
1, 22624, Note_on_c, 1, 53, 80
1, 22654, Note_on_c, 0, 60, 0
1, 22654, Note_on_c, 1, 53, 0
1, 22656, Note_on_c, 0, 70, 82
1, 22656, Note_on_c, 1, 43, 80
1, 22686, Note_on_c, 0, 70, 0
1, 22686, Note_on_c, 1, 43, 0
1, 22688, Note_on_c, 0, 67, 83
1, 22688, Note_on_c, 1, 48, 80
1, 22718, Note_on_c, 0, 67, 0
1, 22718, Note_on_c, 1, 48, 0
1, 22720, Note_on_c, 0, 60, 83
1, 22720, Note_on_c, 1, 52, 80
1, 22750, Note_on_c, 0, 60, 0
1, 22750, Note_on_c, 1, 52, 0
1, 22752, Note_on_c, 0, 70, 84
1, 22752, Note_on_c, 1, 43, 80
1, 22782, Note_on_c, 0, 70, 0
1, 22782, Note_on_c, 1, 43, 0
1, 22784, Note_on_c, 0, 67, 84
1, 22784, Note_on_c, 1, 48, 80
1, 22814, Note_on_c, 0, 67, 0
1, 22814, Note_on_c, 1, 48, 0
1, 22816, Note_on_c, 0, 60, 85
1, 22816, Note_on_c, 1, 52, 80
1, 22846, Note_on_c, 0, 60, 0
1, 22846, Note_on_c, 1, 52, 0
1, 22848, Note_on_c, 0, 69, 86
1, 22848, Note_on_c, 1, 41, 80
1, 22878, Note_on_c, 0, 69, 0
1, 22878, Note_on_c, 1, 41, 0
1, 22880, Note_on_c, 0, 65, 86
1, 22880, Note_on_c, 1, 45, 80
1, 22910, Note_on_c, 0, 65, 0
1, 22910, Note_on_c, 1, 45, 0
1, 22912, Note_on_c, 0, 60, 85
1, 22912, Note_on_c, 1, 48, 80
1, 22942, Note_on_c, 0, 60, 0
1, 22942, Note_on_c, 1, 48, 0
1, 22944, Note_on_c, 0, 69, 84
1, 22944, Note_on_c, 1, 41, 80
1, 22974, Note_on_c, 0, 69, 0
1, 22974, Note_on_c, 1, 41, 0
1, 22976, Note_on_c, 0, 65, 84
1, 22976, Note_on_c, 1, 45, 80
1, 23006, Note_on_c, 0, 65, 0
1, 23006, Note_on_c, 1, 45, 0
1, 23008, Note_on_c, 0, 60, 83
1, 23008, Note_on_c, 1, 48, 80
1, 23038, Note_on_c, 0, 60, 0
1, 23038, Note_on_c, 1, 48, 0
1, 23040, Note_on_c, 0, 67, 83
1, 23040, Note_on_c, 1, 36, 80
1, 23070, Note_on_c, 0, 67, 0
1, 23070, Note_on_c, 1, 36, 0
1, 23072, Note_on_c, 0, 64, 82
1, 23072, Note_on_c, 1, 43, 80
1, 23102, Note_on_c, 0, 64, 0
1, 23102, Note_on_c, 1, 43, 0
1, 23104, Note_on_c, 0, 60, 82
1, 23104, Note_on_c, 1, 48, 80
1, 23134, Note_on_c, 0, 60, 0
1, 23134, Note_on_c, 1, 48, 0
1, 23136, Note_on_c, 0, 67, 81
1, 23136, Note_on_c, 1, 36, 80
1, 23166, Note_on_c, 0, 67, 0
1, 23166, Note_on_c, 1, 36, 0
1, 23168, Note_on_c, 0, 64, 81
1, 23168, Note_on_c, 1, 43, 80
1, 23198, Note_on_c, 0, 64, 0
1, 23198, Note_on_c, 1, 43, 0
1, 23200, Note_on_c, 0, 60, 80
1, 23200, Note_on_c, 1, 48, 80
1, 23230, Note_on_c, 0, 60, 0
1, 23230, Note_on_c, 1, 48, 0
1, 23232, Note_on_c, 0, 65, 80
1, 23232, Note_on_c, 1, 50, 80
1, 23232, Note_on_c, 1, 38, 80
1, 23255, Note_on_c, 0, 65, 0
1, 23256, Note_on_c, 0, 62, 79
1, 23279, Note_on_c, 0, 62, 0
1, 23280, Note_on_c, 0, 59, 78
1, 23303, Note_on_c, 0, 59, 0
1, 23304, Note_on_c, 0, 62, 78
1, 23327, Note_on_c, 0, 62, 0
1, 23328, Note_on_c, 0, 65, 77
1, 23351, Note_on_c, 0, 65, 0
1, 23352, Note_on_c, 0, 62, 76
1, 23375, Note_on_c, 0, 62, 0
1, 23376, Note_on_c, 0, 59, 76
1, 23399, Note_on_c, 0, 59, 0
1, 23400, Note_on_c, 0, 62, 75
1, 23423, Note_on_c, 0, 62, 0
1, 23424, Note_on_c, 0, 64, 75
1, 23424, Note_on_c, 1, 50, 0
1, 23424, Note_on_c, 1, 38, 0
1, 23424, Note_on_c, 1, 48, 76
1, 23424, Note_on_c, 1, 36, 76
1, 23472, Note_on_c, 0, 64, 0
1, 23472, Note_on_c, 0, 72, 75
1, 23513, Note_on_c, 1, 48, 0
1, 23513, Note_on_c, 1, 36, 0
1, 23517, Note_on_c, 0, 72, 0
1, 23808, Note_on_c, 0, 64, 70
1, 23808, Note_on_c, 1, 58, 64
1, 23856, Note_on_c, 0, 64, 0
1, 23856, Note_on_c, 0, 72, 70
1, 23897, Note_on_c, 1, 58, 0
1, 23901, Note_on_c, 0, 72, 0
1, 24192, Note_on_c, 0, 66, 70
1, 24192, Note_on_c, 1, 62, 64
1, 24192, Note_on_c, 1, 60, 64
1, 24240, Note_on_c, 0, 66, 0
1, 24240, Note_on_c, 0, 74, 70
1, 24281, Note_on_c, 1, 62, 0
1, 24281, Note_on_c, 1, 60, 0
1, 24285, Note_on_c, 0, 74, 0
1, 24576, Note_on_c, 0, 67, 70
1, 24576, Note_on_c, 1, 55, 64
1, 24624, Note_on_c, 0, 67, 0
1, 24624, Note_on_c, 0, 75, 70
1, 24624, Note_on_c, 1, 55, 0
1, 24624, Note_on_c, 1, 63, 64
1, 24669, Note_on_c, 0, 75, 0
1, 24669, Note_on_c, 1, 63, 0
1, 24672, Note_on_c, 0, 66, 70
1, 24672, Note_on_c, 1, 54, 64
1, 24720, Note_on_c, 0, 66, 0
1, 24720, Note_on_c, 0, 74, 70
1, 24720, Note_on_c, 1, 54, 0
1, 24720, Note_on_c, 1, 62, 64
1, 24765, Note_on_c, 0, 74, 0
1, 24765, Note_on_c, 1, 62, 0
1, 24960, Note_on_c, 0, 64, 70
1, 24960, Note_on_c, 1, 60, 64
1, 24960, Note_on_c, 1, 58, 64
1, 25008, Note_on_c, 0, 64, 0
1, 25008, Note_on_c, 0, 72, 70
1, 25049, Note_on_c, 1, 60, 0
1, 25049, Note_on_c, 1, 58, 0
1, 25053, Note_on_c, 0, 72, 0
1, 25056, Note_on_c, 0, 65, 70
1, 25056, Note_on_c, 1, 60, 64
1, 25056, Note_on_c, 1, 57, 64
1, 25104, Note_on_c, 0, 65, 0
1, 25104, Note_on_c, 0, 72, 70
1, 25145, Note_on_c, 1, 60, 0
1, 25145, Note_on_c, 1, 57, 0
1, 25149, Note_on_c, 0, 72, 0
1, 25152, Note_on_c, 0, 64, 70
1, 25152, Note_on_c, 1, 58, 64
1, 25152, Note_on_c, 1, 55, 64
1, 25200, Note_on_c, 0, 64, 0
1, 25200, Note_on_c, 0, 73, 70
1, 25241, Note_on_c, 1, 58, 0
1, 25241, Note_on_c, 1, 55, 0
1, 25245, Note_on_c, 0, 73, 0
1, 25248, Tempo, 171428
1, 25536, Tempo, 444444
1, 25536, Note_on_c, 0, 73, 70
1, 25536, Note_on_c, 0, 70, 70
1, 25584, Note_on_c, 1, 67, 64
1, 25629, Note_on_c, 1, 67, 0
1, 25632, Note_on_c, 1, 64, 64
1, 25677, Note_on_c, 1, 64, 0
1, 25680, Note_on_c, 1, 67, 64
1, 25713, Note_on_c, 0, 73, 0
1, 25713, Note_on_c, 0, 70, 0
1, 25725, Note_on_c, 1, 67, 0
1, 25728, Note_on_c, 0, 72, 70
1, 25728, Note_on_c, 0, 70, 70
1, 25776, Note_on_c, 1, 67, 64
1, 25821, Note_on_c, 1, 67, 0
1, 25824, Note_on_c, 1, 64, 64
1, 25869, Note_on_c, 1, 64, 0
1, 25872, Note_on_c, 1, 67, 64
1, 25915, Note_on_c, 0, 72, 0
1, 25915, Note_on_c, 0, 70, 0
1, 25917, Note_on_c, 1, 67, 0
1, 25920, Note_on_c, 0, 72, 70
1, 25920, Note_on_c, 0, 70, 70
1, 25968, Note_on_c, 1, 67, 64
1, 26013, Note_on_c, 1, 67, 0
1, 26016, Note_on_c, 1, 64, 64
1, 26061, Note_on_c, 1, 64, 0
1, 26064, Note_on_c, 1, 67, 64
1, 26107, Note_on_c, 0, 72, 0
1, 26107, Note_on_c, 0, 70, 0
1, 26109, Note_on_c, 1, 67, 0
1, 26112, Note_on_c, 0, 72, 70
1, 26112, Note_on_c, 0, 68, 70
1, 26112, Note_on_c, 1, 65, 64
1, 26159, Note_on_c, 0, 72, 0
1, 26159, Note_on_c, 0, 68, 0
1, 26159, Note_on_c, 1, 65, 0
1, 26160, Note_on_c, 0, 68, 71
1, 26160, Note_on_c, 1, 65, 64
1, 26205, Note_on_c, 0, 68, 0
1, 26205, Note_on_c, 1, 65, 0
1, 26208, Note_on_c, 0, 67, 72
1, 26208, Note_on_c, 1, 64, 64
1, 26253, Note_on_c, 0, 67, 0
1, 26253, Note_on_c, 1, 64, 0
1, 26256, Note_on_c, 0, 68, 73
1, 26256, Note_on_c, 1, 65, 64
1, 26301, Note_on_c, 0, 68, 0
1, 26301, Note_on_c, 1, 65, 0
1, 26304, Note_on_c, 0, 75, 75
1, 26304, Note_on_c, 0, 72, 75
1, 26352, Note_on_c, 1, 69, 64
1, 26397, Note_on_c, 1, 69, 0
1, 26400, Note_on_c, 1, 66, 64
1, 26445, Note_on_c, 1, 66, 0
1, 26448, Note_on_c, 1, 69, 64
1, 26481, Note_on_c, 0, 75, 0
1, 26481, Note_on_c, 0, 72, 0
1, 26493, Note_on_c, 1, 69, 0
1, 26496, Note_on_c, 0, 74, 75
1, 26496, Note_on_c, 0, 72, 75
1, 26544, Note_on_c, 1, 69, 64
1, 26589, Note_on_c, 1, 69, 0
1, 26592, Note_on_c, 1, 66, 64
1, 26637, Note_on_c, 1, 66, 0
1, 26640, Note_on_c, 1, 69, 64
1, 26683, Note_on_c, 0, 74, 0
1, 26683, Note_on_c, 0, 72, 0
1, 26685, Note_on_c, 1, 69, 0
1, 26688, Note_on_c, 0, 77, 75
1, 26688, Note_on_c, 0, 74, 75
1, 26736, Note_on_c, 1, 71, 64
1, 26781, Note_on_c, 1, 71, 0
1, 26784, Note_on_c, 1, 68, 64
1, 26829, Note_on_c, 1, 68, 0
1, 26832, Note_on_c, 1, 71, 64
1, 26877, Note_on_c, 1, 71, 0
1, 26880, Note_on_c, 0, 77, 0
1, 26880, Note_on_c, 0, 74, 0
1, 26880, Note_on_c, 0, 76, 71
1, 26880, Note_on_c, 0, 73, 71
1, 26880, Note_on_c, 1, 69, 64
1, 26969, Note_on_c, 0, 76, 0
1, 26969, Note_on_c, 0, 73, 0
1, 26969, Note_on_c, 1, 69, 0
1, 27024, Note_on_c, 0, 81, 80
1, 27044, Note_on_c, 0, 81, 0
1, 27072, Note_on_c, 0, 81, 96
1, 27120, Note_on_c, 0, 81, 0
1, 27120, Note_on_c, 0, 82, 80
1, 27135, Note_on_c, 0, 82, 0
1, 27136, Note_on_c, 0, 81, 80
1, 27151, Note_on_c, 0, 81, 0
1, 27152, Note_on_c, 0, 79, 80
1, 27167, Note_on_c, 0, 79, 0
1, 27168, Note_on_c, 0, 81, 80
1, 27213, Note_on_c, 0, 81, 0
1, 27216, Note_on_c, 0, 84, 80
1, 27216, Note_on_c, 1, 60, 80
1, 27236, Note_on_c, 0, 84, 0
1, 27236, Note_on_c, 1, 60, 0
1, 27264, Note_on_c, 0, 77, 96
1, 27264, Note_on_c, 1, 53, 96
1, 27312, Note_on_c, 0, 77, 0
1, 27312, Note_on_c, 0, 79, 80
1, 27312, Note_on_c, 1, 53, 0
1, 27312, Note_on_c, 1, 55, 80
1, 27327, Note_on_c, 0, 79, 0
1, 27327, Note_on_c, 1, 55, 0
1, 27328, Note_on_c, 0, 77, 80
1, 27328, Note_on_c, 1, 53, 80
1, 27343, Note_on_c, 0, 77, 0
1, 27343, Note_on_c, 1, 53, 0
1, 27344, Note_on_c, 0, 76, 80
1, 27344, Note_on_c, 1, 52, 80
1, 27359, Note_on_c, 0, 76, 0
1, 27359, Note_on_c, 1, 52, 0
1, 27360, Note_on_c, 0, 77, 80
1, 27360, Note_on_c, 1, 53, 80
1, 27405, Note_on_c, 0, 77, 0
1, 27405, Note_on_c, 1, 53, 0
1, 27408, Note_on_c, 0, 81, 80
1, 27408, Note_on_c, 1, 57, 80
1, 27428, Note_on_c, 0, 81, 0
1, 27428, Note_on_c, 1, 57, 0
1, 27456, Note_on_c, 0, 72, 96
1, 27456, Note_on_c, 1, 48, 96
1, 27504, Note_on_c, 0, 72, 0
1, 27504, Note_on_c, 0, 74, 80
1, 27504, Note_on_c, 1, 48, 0
1, 27504, Note_on_c, 1, 50, 80
1, 27519, Note_on_c, 0, 74, 0
1, 27519, Note_on_c, 1, 50, 0
1, 27520, Note_on_c, 0, 72, 80
1, 27520, Note_on_c, 1, 48, 80
1, 27535, Note_on_c, 0, 72, 0
1, 27535, Note_on_c, 1, 48, 0
1, 27536, Note_on_c, 0, 71, 80
1, 27536, Note_on_c, 1, 47, 80
1, 27551, Note_on_c, 0, 71, 0
1, 27551, Note_on_c, 1, 47, 0
1, 27552, Note_on_c, 0, 72, 80
1, 27552, Note_on_c, 1, 48, 80
1, 27597, Note_on_c, 0, 72, 0
1, 27597, Note_on_c, 1, 48, 0
1, 27600, Note_on_c, 0, 77, 80
1, 27600, Note_on_c, 1, 53, 80
1, 27620, Note_on_c, 0, 77, 0
1, 27620, Note_on_c, 1, 53, 0
1, 27648, Note_on_c, 0, 69, 96
1, 27648, Note_on_c, 1, 45, 96
1, 27696, Note_on_c, 0, 69, 0
1, 27696, Note_on_c, 0, 70, 80
1, 27696, Note_on_c, 1, 45, 0
1, 27696, Note_on_c, 1, 46, 80
1, 27711, Note_on_c, 0, 70, 0
1, 27711, Note_on_c, 1, 46, 0
1, 27712, Note_on_c, 0, 69, 80
1, 27712, Note_on_c, 1, 45, 80
1, 27727, Note_on_c, 0, 69, 0
1, 27727, Note_on_c, 1, 45, 0
1, 27728, Note_on_c, 0, 67, 80
1, 27728, Note_on_c, 1, 43, 80
1, 27743, Note_on_c, 0, 67, 0
1, 27743, Note_on_c, 1, 43, 0
1, 27744, Note_on_c, 0, 69, 80
1, 27744, Note_on_c, 1, 45, 80
1, 27789, Note_on_c, 0, 69, 0
1, 27789, Note_on_c, 1, 45, 0
1, 27792, Note_on_c, 0, 72, 80
1, 27792, Note_on_c, 1, 48, 80
1, 27812, Note_on_c, 0, 72, 0
1, 27812, Note_on_c, 1, 48, 0
1, 27840, Note_on_c, 0, 65, 80
1, 27840, Note_on_c, 1, 41, 80
1, 27885, Note_on_c, 0, 65, 0
1, 27888, Note_on_c, 0, 69, 80
1, 27929, Note_on_c, 1, 41, 0
1, 27933, Note_on_c, 0, 69, 0
1, 27936, Note_on_c, 0, 74, 80
1, 27981, Note_on_c, 0, 74, 0
1, 27984, Note_on_c, 0, 72, 80
1, 28029, Note_on_c, 0, 72, 0
1, 28032, Note_on_c, 0, 72, 80
1, 28032, Note_on_c, 0, 69, 80
1, 28032, Note_on_c, 1, 48, 80
1, 28032, Note_on_c, 1, 36, 80
1, 28077, Note_on_c, 0, 72, 0
1, 28077, Note_on_c, 0, 69, 0
1, 28080, Note_on_c, 0, 70, 78
1, 28080, Note_on_c, 0, 67, 78
1, 28125, Note_on_c, 0, 70, 0
1, 28125, Note_on_c, 0, 67, 0
1, 28128, Note_on_c, 0, 69, 77
1, 28128, Note_on_c, 0, 65, 77
1, 28173, Note_on_c, 0, 69, 0
1, 28173, Note_on_c, 0, 65, 0
1, 28176, Note_on_c, 0, 67, 76
1, 28176, Note_on_c, 0, 64, 76
1, 28209, Note_on_c, 1, 48, 0
1, 28209, Note_on_c, 1, 36, 0
1, 28221, Note_on_c, 0, 67, 0
1, 28221, Note_on_c, 0, 64, 0
1, 28224, Note_on_c, 0, 67, 75
1, 28224, Note_on_c, 0, 64, 75
1, 28224, Note_on_c, 1, 53, 80
1, 28224, Note_on_c, 1, 41, 80
1, 28416, Note_on_c, 0, 67, 0
1, 28416, Note_on_c, 0, 64, 0
1, 28416, Note_on_c, 0, 65, 75
1, 28489, Note_on_c, 1, 53, 0
1, 28489, Note_on_c, 1, 41, 0
1, 28505, Note_on_c, 0, 65, 0
1, 28608, Note_on_c, 0, 69, 80
1, 28608, Note_on_c, 1, 54, 80
1, 28608, Note_on_c, 1, 42, 80
1, 28631, Note_on_c, 0, 69, 0
1, 28632, Note_on_c, 0, 72, 80
1, 28655, Note_on_c, 0, 72, 0
1, 28656, Note_on_c, 0, 75, 80
1, 28679, Note_on_c, 0, 75, 0
1, 28680, Note_on_c, 0, 78, 80
1, 28703, Note_on_c, 0, 78, 0
1, 28704, Note_on_c, 0, 75, 80
1, 28727, Note_on_c, 0, 75, 0
1, 28728, Note_on_c, 0, 78, 80
1, 28751, Note_on_c, 0, 78, 0
1, 28752, Note_on_c, 0, 81, 80
1, 28775, Note_on_c, 0, 81, 0
1, 28776, Note_on_c, 0, 84, 80
1, 28799, Note_on_c, 0, 84, 0
1, 28800, Note_on_c, 0, 82, 80
1, 28800, Note_on_c, 0, 81, 80
1, 28800, Note_on_c, 1, 54, 0
1, 28800, Note_on_c, 1, 42, 0
1, 28800, Note_on_c, 1, 55, 80
1, 28800, Note_on_c, 1, 43, 80
1, 28848, Note_on_c, 0, 81, 0
1, 28848, Note_on_c, 0, 79, 80
1, 28889, Note_on_c, 1, 55, 0
1, 28889, Note_on_c, 1, 43, 0
1, 28893, Note_on_c, 0, 82, 0
1, 28893, Note_on_c, 0, 79, 0
1, 28992, Note_on_c, 0, 66, 70
1, 28992, Note_on_c, 1, 60, 75
1, 29022, Note_on_c, 0, 66, 0
1, 29024, Note_on_c, 0, 69, 70
1, 29054, Note_on_c, 0, 69, 0
1, 29056, Note_on_c, 0, 72, 70
1, 29086, Note_on_c, 0, 72, 0
1, 29088, Note_on_c, 0, 69, 70
1, 29118, Note_on_c, 0, 69, 0
1, 29120, Note_on_c, 0, 72, 70
1, 29150, Note_on_c, 0, 72, 0
1, 29152, Note_on_c, 0, 75, 70
1, 29169, Note_on_c, 1, 60, 0
1, 29182, Note_on_c, 0, 75, 0
1, 29184, Note_on_c, 0, 69, 70
1, 29184, Note_on_c, 1, 54, 75
1, 29214, Note_on_c, 0, 69, 0
1, 29216, Note_on_c, 0, 72, 70
1, 29246, Note_on_c, 0, 72, 0
1, 29248, Note_on_c, 0, 75, 70
1, 29273, Note_on_c, 1, 54, 0
1, 29278, Note_on_c, 0, 75, 0
1, 29280, Note_on_c, 0, 69, 70
1, 29280, Note_on_c, 1, 55, 75
1, 29310, Note_on_c, 0, 69, 0
1, 29312, Note_on_c, 0, 70, 70
1, 29342, Note_on_c, 0, 70, 0
1, 29344, Note_on_c, 0, 72, 70
1, 29369, Note_on_c, 1, 55, 0
1, 29374, Note_on_c, 0, 72, 0
1, 29376, Note_on_c, 0, 66, 70
1, 29376, Note_on_c, 1, 63, 91
1, 29406, Note_on_c, 0, 66, 0
1, 29408, Note_on_c, 0, 69, 70
1, 29438, Note_on_c, 0, 69, 0
1, 29440, Note_on_c, 0, 72, 70
1, 29470, Note_on_c, 0, 72, 0
1, 29472, Note_on_c, 0, 66, 70
1, 29502, Note_on_c, 0, 66, 0
1, 29504, Note_on_c, 0, 69, 70
1, 29520, Note_on_c, 1, 63, 0
1, 29520, Note_on_c, 1, 60, 75
1, 29534, Note_on_c, 0, 69, 0
1, 29536, Note_on_c, 0, 72, 70
1, 29565, Note_on_c, 1, 60, 0
1, 29566, Note_on_c, 0, 72, 0
1, 29568, Note_on_c, 0, 67, 70
1, 29568, Note_on_c, 1, 62, 75
1, 29598, Note_on_c, 0, 67, 0
1, 29600, Note_on_c, 0, 70, 70
1, 29630, Note_on_c, 0, 70, 0
1, 29632, Note_on_c, 0, 74, 70
1, 29657, Note_on_c, 1, 62, 0
1, 29662, Note_on_c, 0, 74, 0
1, 29664, Note_on_c, 0, 78, 70
1, 29694, Note_on_c, 0, 78, 0
1, 29696, Note_on_c, 0, 79, 70
1, 29726, Note_on_c, 0, 79, 0
1, 29728, Note_on_c, 0, 81, 70
1, 29758, Note_on_c, 0, 81, 0
1, 29760, Note_on_c, 0, 82, 70
1, 29760, Note_on_c, 1, 50, 96
1, 29790, Note_on_c, 0, 82, 0
1, 29792, Note_on_c, 0, 86, 70
1, 29822, Note_on_c, 0, 86, 0
1, 29824, Note_on_c, 0, 84, 70
1, 29854, Note_on_c, 0, 84, 0
1, 29856, Note_on_c, 0, 82, 70
1, 29886, Note_on_c, 0, 82, 0
1, 29888, Note_on_c, 0, 81, 70
1, 29918, Note_on_c, 0, 81, 0
1, 29920, Note_on_c, 0, 79, 70
1, 29950, Note_on_c, 0, 79, 0
1, 29952, Note_on_c, 0, 78, 70
1, 29952, Note_on_c, 1, 50, 0
1, 29952, Note_on_c, 1, 48, 80
1, 29982, Note_on_c, 0, 78, 0
1, 29984, Note_on_c, 0, 75, 70
1, 29997, Note_on_c, 1, 48, 0
1, 30000, Note_on_c, 1, 46, 80
1, 30014, Note_on_c, 0, 75, 0
1, 30016, Note_on_c, 0, 74, 70
1, 30045, Note_on_c, 1, 46, 0
1, 30046, Note_on_c, 0, 74, 0
1, 30048, Note_on_c, 0, 72, 70
1, 30048, Note_on_c, 1, 45, 80
1, 30078, Note_on_c, 0, 72, 0
1, 30080, Note_on_c, 0, 70, 70
1, 30093, Note_on_c, 1, 45, 0
1, 30096, Note_on_c, 1, 43, 80
1, 30110, Note_on_c, 0, 70, 0
1, 30112, Note_on_c, 0, 69, 70
1, 30141, Note_on_c, 1, 43, 0
1, 30142, Note_on_c, 0, 69, 0
1, 30144, Note_on_c, 0, 70, 70
1, 30144, Note_on_c, 1, 43, 96
1, 30174, Note_on_c, 0, 70, 0
1, 30176, Note_on_c, 0, 66, 70
1, 30208, Note_on_c, 0, 66, 0
1, 30208, Note_on_c, 0, 67, 70
1, 30238, Note_on_c, 0, 67, 0
1, 30240, Note_on_c, 0, 72, 70
1, 30270, Note_on_c, 0, 72, 0
1, 30272, Note_on_c, 0, 66, 70
1, 30304, Note_on_c, 0, 66, 0
1, 30304, Note_on_c, 0, 67, 70
1, 30334, Note_on_c, 0, 67, 0
1, 30336, Note_on_c, 0, 75, 86
1, 30336, Note_on_c, 1, 43, 0
1, 30336, Note_on_c, 1, 42, 80
1, 30368, Note_on_c, 0, 75, 0
1, 30368, Note_on_c, 0, 74, 70
1, 30398, Note_on_c, 0, 74, 0
1, 30400, Note_on_c, 0, 72, 70
1, 30425, Note_on_c, 1, 42, 0
1, 30430, Note_on_c, 0, 72, 0
1, 30432, Note_on_c, 0, 70, 70
1, 30462, Note_on_c, 0, 70, 0
1, 30464, Note_on_c, 0, 69, 70
1, 30494, Note_on_c, 0, 69, 0
1, 30496, Note_on_c, 0, 67, 70
1, 30526, Note_on_c, 0, 67, 0
1, 30528, Note_on_c, 0, 68, 70
1, 30528, Note_on_c, 1, 60, 91
1, 30558, Note_on_c, 0, 68, 0
1, 30560, Note_on_c, 0, 64, 70
1, 30592, Note_on_c, 0, 64, 0
1, 30592, Note_on_c, 0, 65, 70
1, 30622, Note_on_c, 0, 65, 0
1, 30624, Note_on_c, 0, 70, 70
1, 30654, Note_on_c, 0, 70, 0
1, 30656, Note_on_c, 0, 64, 70
1, 30688, Note_on_c, 0, 64, 0
1, 30688, Note_on_c, 0, 65, 70
1, 30718, Note_on_c, 0, 65, 0
1, 30720, Note_on_c, 0, 73, 86
1, 30720, Note_on_c, 1, 60, 0
1, 30720, Note_on_c, 1, 52, 75
1, 30752, Note_on_c, 0, 73, 0
1, 30752, Note_on_c, 0, 72, 70
1, 30782, Note_on_c, 0, 72, 0
1, 30784, Note_on_c, 0, 70, 70
1, 30809, Note_on_c, 1, 52, 0
1, 30814, Note_on_c, 0, 70, 0
1, 30816, Note_on_c, 0, 68, 70
1, 30816, Note_on_c, 1, 53, 75
1, 30846, Note_on_c, 0, 68, 0
1, 30848, Note_on_c, 0, 67, 70
1, 30878, Note_on_c, 0, 67, 0
1, 30880, Note_on_c, 0, 65, 70
1, 30905, Note_on_c, 1, 53, 0
1, 30910, Note_on_c, 0, 65, 0
1, 30912, Note_on_c, 1, 61, 75
1, 30960, Note_on_c, 0, 82, 75
1, 30960, Note_on_c, 0, 79, 75
1, 30980, Note_on_c, 0, 82, 0
1, 30980, Note_on_c, 0, 79, 0
1, 31008, Note_on_c, 0, 82, 75
1, 31008, Note_on_c, 0, 79, 75
1, 31045, Note_on_c, 1, 61, 0
1, 31053, Note_on_c, 0, 82, 0
1, 31053, Note_on_c, 0, 79, 0
1, 31056, Note_on_c, 0, 80, 75
1, 31056, Note_on_c, 0, 77, 75
1, 31056, Note_on_c, 1, 58, 75
1, 31101, Note_on_c, 0, 80, 0
1, 31101, Note_on_c, 0, 77, 0
1, 31101, Note_on_c, 1, 58, 0
1, 31104, Note_on_c, 0, 79, 75
1, 31104, Note_on_c, 0, 76, 75
1, 31104, Note_on_c, 1, 60, 75
1, 31152, Note_on_c, 0, 79, 0
1, 31152, Note_on_c, 0, 76, 0
1, 31152, Note_on_c, 0, 77, 75
1, 31152, Note_on_c, 0, 73, 75
1, 31193, Note_on_c, 1, 60, 0
1, 31197, Note_on_c, 0, 77, 0
1, 31197, Note_on_c, 0, 73, 0
1, 31200, Note_on_c, 0, 76, 75
1, 31200, Note_on_c, 0, 72, 75
1, 31248, Note_on_c, 0, 76, 0
1, 31248, Note_on_c, 0, 72, 0
1, 31248, Note_on_c, 0, 73, 75
1, 31248, Note_on_c, 0, 70, 75
1, 31293, Note_on_c, 0, 73, 0
1, 31293, Note_on_c, 0, 70, 0
1, 31296, Note_on_c, 0, 73, 75
1, 31296, Note_on_c, 0, 70, 75
1, 31296, Note_on_c, 1, 48, 96
1, 31344, Note_on_c, 0, 73, 0
1, 31344, Note_on_c, 0, 70, 0
1, 31344, Note_on_c, 0, 72, 74
1, 31344, Note_on_c, 0, 68, 74
1, 31389, Note_on_c, 0, 72, 0
1, 31389, Note_on_c, 0, 68, 0
1, 31392, Note_on_c, 0, 70, 73
1, 31392, Note_on_c, 0, 67, 73
1, 31440, Note_on_c, 0, 70, 0
1, 31440, Note_on_c, 0, 67, 0
1, 31440, Note_on_c, 0, 68, 73
1, 31440, Note_on_c, 0, 65, 73
1, 31485, Note_on_c, 0, 68, 0
1, 31485, Note_on_c, 0, 65, 0
1, 31488, Note_on_c, 0, 67, 72
1, 31488, Note_on_c, 0, 64, 72
1, 31488, Note_on_c, 1, 48, 0
1, 31488, Note_on_c, 1, 46, 80
1, 31533, Note_on_c, 0, 67, 0
1, 31533, Note_on_c, 0, 64, 0
1, 31533, Note_on_c, 1, 46, 0
1, 31536, Note_on_c, 0, 68, 71
1, 31536, Note_on_c, 0, 65, 71
1, 31536, Note_on_c, 1, 44, 80
1, 31581, Note_on_c, 0, 68, 0
1, 31581, Note_on_c, 0, 65, 0
1, 31581, Note_on_c, 1, 44, 0
1, 31584, Note_on_c, 0, 70, 71
1, 31584, Note_on_c, 0, 67, 71
1, 31584, Note_on_c, 1, 43, 80
1, 31629, Note_on_c, 0, 70, 0
1, 31629, Note_on_c, 0, 67, 0
1, 31629, Note_on_c, 1, 43, 0
1, 31632, Note_on_c, 0, 73, 70
1, 31632, Note_on_c, 0, 70, 70
1, 31632, Note_on_c, 1, 41, 80
1, 31677, Note_on_c, 0, 73, 0
1, 31677, Note_on_c, 0, 70, 0
1, 31677, Note_on_c, 1, 41, 0
1, 31680, Note_on_c, 0, 73, 70
1, 31680, Note_on_c, 0, 70, 64
1, 31680, Note_on_c, 1, 41, 96
1, 31725, Note_on_c, 0, 73, 0
1, 31728, Note_on_c, 0, 76, 69
1, 31773, Note_on_c, 0, 76, 0
1, 31776, Note_on_c, 0, 79, 68
1, 31821, Note_on_c, 0, 79, 0
1, 31824, Note_on_c, 0, 73, 67
1, 31857, Note_on_c, 0, 70, 0
1, 31869, Note_on_c, 0, 73, 0
1, 31872, Note_on_c, 0, 72, 67
1, 31872, Note_on_c, 0, 70, 64
1, 31872, Note_on_c, 1, 41, 0
1, 31872, Note_on_c, 1, 40, 80
1, 31917, Note_on_c, 0, 72, 0
1, 31920, Note_on_c, 0, 76, 66
1, 31961, Note_on_c, 0, 70, 0
1, 31961, Note_on_c, 1, 40, 0
1, 31965, Note_on_c, 0, 76, 0
1, 31968, Note_on_c, 0, 79, 65
1, 32013, Note_on_c, 0, 79, 0
1, 32016, Note_on_c, 0, 70, 64
1, 32061, Note_on_c, 0, 70, 0
1, 32064, Note_on_c, 0, 65, 64
1, 32064, Note_on_c, 1, 37, 96
1, 32109, Note_on_c, 0, 65, 0
1, 32112, Note_on_c, 0, 67, 64
1, 32157, Note_on_c, 0, 67, 0
1, 32160, Note_on_c, 0, 68, 64
1, 32205, Note_on_c, 0, 68, 0
1, 32208, Note_on_c, 0, 65, 64
1, 32253, Note_on_c, 0, 65, 0
1, 32256, Note_on_c, 0, 71, 64
1, 32301, Note_on_c, 0, 71, 0
1, 32304, Note_on_c, 0, 68, 64
1, 32349, Note_on_c, 0, 68, 0
1, 32352, Note_on_c, 0, 67, 64
1, 32397, Note_on_c, 0, 67, 0
1, 32400, Note_on_c, 0, 65, 64
1, 32445, Note_on_c, 0, 65, 0
1, 32448, Note_on_c, 0, 72, 75
1, 32448, Note_on_c, 0, 67, 75
1, 32448, Note_on_c, 0, 64, 75
1, 32448, Note_on_c, 1, 37, 0
1, 32448, Note_on_c, 1, 36, 70
1, 32471, Note_on_c, 1, 36, 0
1, 32472, Note_on_c, 1, 40, 70
1, 32495, Note_on_c, 1, 40, 0
1, 32496, Note_on_c, 1, 43, 70
1, 32519, Note_on_c, 1, 43, 0
1, 32520, Note_on_c, 1, 40, 70
1, 32543, Note_on_c, 1, 40, 0
1, 32544, Note_on_c, 1, 36, 70
1, 32567, Note_on_c, 1, 36, 0
1, 32568, Note_on_c, 1, 40, 70
1, 32591, Note_on_c, 1, 40, 0
1, 32592, Note_on_c, 1, 43, 70
1, 32615, Note_on_c, 1, 43, 0
1, 32616, Note_on_c, 1, 40, 70
1, 32625, Note_on_c, 0, 72, 0
1, 32625, Note_on_c, 0, 67, 0
1, 32625, Note_on_c, 0, 64, 0
1, 32639, Note_on_c, 1, 40, 0
1, 32640, Note_on_c, 0, 64, 75
1, 32640, Note_on_c, 1, 36, 70
1, 32663, Note_on_c, 1, 36, 0
1, 32664, Note_on_c, 1, 40, 70
1, 32687, Note_on_c, 1, 40, 0
1, 32688, Note_on_c, 1, 43, 70
1, 32711, Note_on_c, 1, 43, 0
1, 32712, Note_on_c, 1, 40, 70
1, 32729, Note_on_c, 0, 64, 0
1, 32735, Note_on_c, 1, 40, 0
1, 32736, Note_on_c, 0, 65, 75
1, 32736, Note_on_c, 1, 36, 70
1, 32759, Note_on_c, 1, 36, 0
1, 32760, Note_on_c, 1, 41, 70
1, 32783, Note_on_c, 1, 41, 0
1, 32784, Note_on_c, 1, 44, 70
1, 32807, Note_on_c, 1, 44, 0
1, 32808, Note_on_c, 1, 41, 70
1, 32825, Note_on_c, 0, 65, 0
1, 32831, Note_on_c, 1, 41, 0
1, 32832, Note_on_c, 0, 73, 75
1, 32832, Note_on_c, 0, 72, 64
1, 32832, Note_on_c, 1, 36, 70
1, 32855, Note_on_c, 1, 36, 0
1, 32856, Note_on_c, 1, 40, 70
1, 32879, Note_on_c, 1, 40, 0
1, 32880, Note_on_c, 1, 43, 70
1, 32903, Note_on_c, 1, 43, 0
1, 32904, Note_on_c, 1, 40, 70
1, 32927, Note_on_c, 1, 40, 0
1, 32928, Note_on_c, 1, 36, 70
1, 32951, Note_on_c, 1, 36, 0
1, 32952, Note_on_c, 1, 40, 70
1, 32965, Note_on_c, 0, 73, 0
1, 32975, Note_on_c, 1, 40, 0
1, 32976, Note_on_c, 0, 70, 75
1, 32976, Note_on_c, 1, 43, 70
1, 32999, Note_on_c, 1, 43, 0
1, 33000, Note_on_c, 1, 40, 70
1, 33009, Note_on_c, 0, 72, 0
1, 33021, Note_on_c, 0, 70, 0
1, 33023, Note_on_c, 1, 40, 0
1, 33024, Note_on_c, 0, 72, 75
1, 33024, Note_on_c, 0, 64, 64
1, 33024, Note_on_c, 1, 36, 70
1, 33047, Note_on_c, 1, 36, 0
1, 33048, Note_on_c, 1, 40, 70
1, 33071, Note_on_c, 1, 40, 0
1, 33072, Note_on_c, 1, 43, 70
1, 33095, Note_on_c, 1, 43, 0
1, 33096, Note_on_c, 1, 40, 70
1, 33113, Note_on_c, 0, 72, 0
1, 33113, Note_on_c, 0, 64, 0
1, 33119, Note_on_c, 1, 40, 0
1, 33120, Note_on_c, 0, 65, 64
1, 33120, Note_on_c, 1, 36, 70
1, 33143, Note_on_c, 1, 36, 0
1, 33144, Note_on_c, 1, 41, 70
1, 33167, Note_on_c, 1, 41, 0
1, 33168, Note_on_c, 1, 44, 70
1, 33191, Note_on_c, 1, 44, 0
1, 33192, Note_on_c, 1, 41, 70
1, 33209, Note_on_c, 0, 65, 0
1, 33215, Note_on_c, 1, 41, 0
1, 33216, Note_on_c, 0, 82, 75
1, 33216, Note_on_c, 0, 73, 64
1, 33216, Note_on_c, 1, 40, 70
1, 33239, Note_on_c, 1, 40, 0
1, 33240, Note_on_c, 1, 43, 70
1, 33263, Note_on_c, 1, 43, 0
1, 33264, Note_on_c, 1, 46, 70
1, 33287, Note_on_c, 1, 46, 0
1, 33288, Note_on_c, 1, 43, 70
1, 33311, Note_on_c, 1, 43, 0
1, 33312, Note_on_c, 1, 40, 70
1, 33335, Note_on_c, 1, 40, 0
1, 33336, Note_on_c, 1, 43, 70
1, 33349, Note_on_c, 0, 82, 0
1, 33349, Note_on_c, 0, 73, 0
1, 33359, Note_on_c, 1, 43, 0
1, 33360, Note_on_c, 0, 79, 76
1, 33360, Note_on_c, 0, 70, 64
1, 33360, Note_on_c, 1, 46, 70
1, 33383, Note_on_c, 1, 46, 0
1, 33384, Note_on_c, 1, 43, 70
1, 33405, Note_on_c, 0, 79, 0
1, 33405, Note_on_c, 0, 70, 0
1, 33407, Note_on_c, 1, 43, 0
1, 33408, Note_on_c, 0, 82, 77
1, 33408, Note_on_c, 0, 72, 64
1, 33408, Note_on_c, 1, 40, 70
1, 33431, Note_on_c, 1, 40, 0
1, 33432, Note_on_c, 1, 43, 70
1, 33453, Note_on_c, 0, 82, 0
1, 33455, Note_on_c, 1, 43, 0
1, 33456, Note_on_c, 0, 80, 78
1, 33456, Note_on_c, 1, 46, 70
1, 33479, Note_on_c, 1, 46, 0
1, 33480, Note_on_c, 1, 43, 70
1, 33497, Note_on_c, 0, 72, 0
1, 33501, Note_on_c, 0, 80, 0
1, 33503, Note_on_c, 1, 43, 0
1, 33504, Note_on_c, 0, 79, 78
1, 33504, Note_on_c, 1, 40, 70
1, 33527, Note_on_c, 1, 40, 0
1, 33528, Note_on_c, 1, 44, 70
1, 33549, Note_on_c, 0, 79, 0
1, 33551, Note_on_c, 1, 44, 0
1, 33552, Note_on_c, 0, 77, 79
1, 33552, Note_on_c, 1, 48, 70
1, 33575, Note_on_c, 1, 48, 0
1, 33576, Note_on_c, 1, 44, 70
1, 33597, Note_on_c, 0, 77, 0
1, 33599, Note_on_c, 1, 44, 0
1, 33600, Note_on_c, 0, 77, 80
1, 33600, Note_on_c, 0, 70, 75
1, 33600, Note_on_c, 1, 40, 70
1, 33623, Note_on_c, 1, 40, 0
1, 33624, Note_on_c, 1, 43, 70
1, 33647, Note_on_c, 1, 43, 0
1, 33648, Note_on_c, 1, 46, 70
1, 33671, Note_on_c, 1, 46, 0
1, 33672, Note_on_c, 1, 43, 70
1, 33695, Note_on_c, 1, 43, 0
1, 33696, Note_on_c, 1, 40, 70
1, 33719, Note_on_c, 1, 40, 0
1, 33720, Note_on_c, 1, 43, 70
1, 33733, Note_on_c, 0, 70, 0
1, 33743, Note_on_c, 1, 43, 0
1, 33744, Note_on_c, 0, 67, 76
1, 33744, Note_on_c, 1, 46, 70
1, 33767, Note_on_c, 1, 46, 0
1, 33768, Note_on_c, 1, 43, 70
1, 33789, Note_on_c, 0, 67, 0
1, 33791, Note_on_c, 1, 43, 0
1, 33792, Note_on_c, 0, 77, 0
1, 33792, Note_on_c, 0, 76, 76
1, 33792, Note_on_c, 0, 70, 77
1, 33792, Note_on_c, 1, 40, 70
1, 33815, Note_on_c, 1, 40, 0
1, 33816, Note_on_c, 1, 43, 70
1, 33837, Note_on_c, 0, 70, 0
1, 33839, Note_on_c, 1, 43, 0
1, 33840, Note_on_c, 0, 68, 78
1, 33840, Note_on_c, 1, 46, 70
1, 33863, Note_on_c, 1, 46, 0
1, 33864, Note_on_c, 1, 43, 70
1, 33881, Note_on_c, 0, 76, 0
1, 33885, Note_on_c, 0, 68, 0
1, 33887, Note_on_c, 1, 43, 0
1, 33888, Note_on_c, 0, 67, 78
1, 33888, Note_on_c, 1, 40, 70
1, 33911, Note_on_c, 1, 40, 0
1, 33912, Note_on_c, 1, 44, 70
1, 33933, Note_on_c, 0, 67, 0
1, 33935, Note_on_c, 1, 44, 0
1, 33936, Note_on_c, 0, 65, 79
1, 33936, Note_on_c, 1, 48, 70
1, 33959, Note_on_c, 1, 48, 0
1, 33960, Note_on_c, 1, 44, 70
1, 33981, Note_on_c, 0, 65, 0
1, 33983, Note_on_c, 1, 44, 0
1, 33984, Note_on_c, 0, 75, 75
1, 33984, Note_on_c, 0, 69, 75
1, 33984, Note_on_c, 0, 66, 75
1, 33984, Note_on_c, 1, 38, 70
1, 34007, Note_on_c, 1, 38, 0
1, 34008, Note_on_c, 1, 42, 70
1, 34031, Note_on_c, 1, 42, 0
1, 34032, Note_on_c, 1, 45, 70
1, 34055, Note_on_c, 1, 45, 0
1, 34056, Note_on_c, 1, 42, 70
1, 34079, Note_on_c, 1, 42, 0
1, 34080, Note_on_c, 1, 38, 70
1, 34103, Note_on_c, 1, 38, 0
1, 34104, Note_on_c, 1, 42, 70
1, 34127, Note_on_c, 1, 42, 0
1, 34128, Note_on_c, 1, 45, 70
1, 34151, Note_on_c, 1, 45, 0
1, 34152, Note_on_c, 1, 42, 70
1, 34161, Note_on_c, 0, 75, 0
1, 34161, Note_on_c, 0, 69, 0
1, 34161, Note_on_c, 0, 66, 0
1, 34175, Note_on_c, 1, 42, 0
1, 34176, Note_on_c, 0, 66, 75
1, 34176, Note_on_c, 1, 38, 70
1, 34199, Note_on_c, 1, 38, 0
1, 34200, Note_on_c, 1, 42, 70
1, 34223, Note_on_c, 1, 42, 0
1, 34224, Note_on_c, 1, 45, 70
1, 34247, Note_on_c, 1, 45, 0
1, 34248, Note_on_c, 1, 42, 70
1, 34265, Note_on_c, 0, 66, 0
1, 34271, Note_on_c, 1, 42, 0
1, 34272, Note_on_c, 0, 67, 75
1, 34272, Note_on_c, 1, 38, 70
1, 34295, Note_on_c, 1, 38, 0
1, 34296, Note_on_c, 1, 43, 70
1, 34319, Note_on_c, 1, 43, 0
1, 34320, Note_on_c, 1, 46, 70
1, 34343, Note_on_c, 1, 46, 0
1, 34344, Note_on_c, 1, 43, 70
1, 34361, Note_on_c, 0, 67, 0
1, 34367, Note_on_c, 1, 43, 0
1, 34368, Note_on_c, 0, 75, 75
1, 34368, Note_on_c, 0, 72, 75
1, 34368, Note_on_c, 1, 38, 70
1, 34391, Note_on_c, 1, 38, 0
1, 34392, Note_on_c, 1, 42, 70
1, 34415, Note_on_c, 1, 42, 0
1, 34416, Note_on_c, 1, 45, 70
1, 34439, Note_on_c, 1, 45, 0
1, 34440, Note_on_c, 1, 42, 70
1, 34463, Note_on_c, 1, 42, 0
1, 34464, Note_on_c, 1, 38, 70
1, 34487, Note_on_c, 1, 38, 0
1, 34488, Note_on_c, 1, 42, 70
1, 34501, Note_on_c, 0, 75, 0
1, 34511, Note_on_c, 1, 42, 0
1, 34512, Note_on_c, 0, 72, 75
1, 34512, Note_on_c, 1, 45, 70
1, 34535, Note_on_c, 1, 45, 0
1, 34536, Note_on_c, 1, 42, 70
1, 34545, Note_on_c, 0, 72, 0
1, 34557, Note_on_c, 0, 72, 0
1, 34559, Note_on_c, 1, 42, 0
1, 34560, Note_on_c, 0, 74, 75
1, 34560, Note_on_c, 0, 66, 75
1, 34560, Note_on_c, 1, 38, 70
1, 34583, Note_on_c, 1, 38, 0
1, 34584, Note_on_c, 1, 42, 70
1, 34607, Note_on_c, 1, 42, 0
1, 34608, Note_on_c, 1, 45, 70
1, 34631, Note_on_c, 1, 45, 0
1, 34632, Note_on_c, 1, 42, 70
1, 34649, Note_on_c, 0, 74, 0
1, 34649, Note_on_c, 0, 66, 0
1, 34655, Note_on_c, 1, 42, 0
1, 34656, Note_on_c, 0, 67, 75
1, 34656, Note_on_c, 1, 38, 70
1, 34679, Note_on_c, 1, 38, 0
1, 34680, Note_on_c, 1, 43, 70
1, 34703, Note_on_c, 1, 43, 0
1, 34704, Note_on_c, 1, 46, 70
1, 34727, Note_on_c, 1, 46, 0
1, 34728, Note_on_c, 1, 43, 70
1, 34745, Note_on_c, 0, 67, 0
1, 34751, Note_on_c, 1, 43, 0
1, 34752, Note_on_c, 0, 84, 75
1, 34752, Note_on_c, 0, 75, 75
1, 34752, Note_on_c, 1, 42, 70
1, 34775, Note_on_c, 1, 42, 0
1, 34776, Note_on_c, 1, 45, 70
1, 34799, Note_on_c, 1, 45, 0
1, 34800, Note_on_c, 1, 48, 70
1, 34823, Note_on_c, 1, 48, 0
1, 34824, Note_on_c, 1, 45, 70
1, 34847, Note_on_c, 1, 45, 0
1, 34848, Note_on_c, 1, 42, 70
1, 34871, Note_on_c, 1, 42, 0
1, 34872, Note_on_c, 1, 45, 70
1, 34885, Note_on_c, 0, 84, 0
1, 34885, Note_on_c, 0, 75, 0
1, 34895, Note_on_c, 1, 45, 0
1, 34896, Note_on_c, 0, 81, 76
1, 34896, Note_on_c, 0, 72, 75
1, 34896, Note_on_c, 1, 48, 70
1, 34919, Note_on_c, 1, 48, 0
1, 34920, Note_on_c, 1, 45, 70
1, 34941, Note_on_c, 0, 81, 0
1, 34941, Note_on_c, 0, 72, 0
1, 34943, Note_on_c, 1, 45, 0
1, 34944, Note_on_c, 0, 84, 77
1, 34944, Note_on_c, 0, 75, 75
1, 34944, Note_on_c, 1, 42, 70
1, 34967, Note_on_c, 1, 42, 0
1, 34968, Note_on_c, 1, 45, 70
1, 34989, Note_on_c, 0, 84, 0
1, 34991, Note_on_c, 1, 45, 0
1, 34992, Note_on_c, 0, 82, 78
1, 34992, Note_on_c, 1, 48, 70
1, 35015, Note_on_c, 1, 48, 0
1, 35016, Note_on_c, 1, 45, 70
1, 35033, Note_on_c, 0, 75, 0
1, 35037, Note_on_c, 0, 82, 0
1, 35039, Note_on_c, 1, 45, 0
1, 35040, Note_on_c, 0, 81, 78
1, 35040, Note_on_c, 1, 42, 70
1, 35063, Note_on_c, 1, 42, 0
1, 35064, Note_on_c, 1, 46, 70
1, 35085, Note_on_c, 0, 81, 0
1, 35087, Note_on_c, 1, 46, 0
1, 35088, Note_on_c, 0, 79, 79
1, 35088, Note_on_c, 1, 50, 70
1, 35111, Note_on_c, 1, 50, 0
1, 35112, Note_on_c, 1, 46, 70
1, 35133, Note_on_c, 0, 79, 0
1, 35135, Note_on_c, 1, 46, 0
1, 35136, Note_on_c, 0, 79, 80
1, 35136, Note_on_c, 0, 72, 75
1, 35136, Note_on_c, 1, 42, 70
1, 35159, Note_on_c, 1, 42, 0
1, 35160, Note_on_c, 1, 45, 70
1, 35183, Note_on_c, 1, 45, 0
1, 35184, Note_on_c, 1, 48, 70
1, 35207, Note_on_c, 1, 48, 0
1, 35208, Note_on_c, 1, 45, 70
1, 35231, Note_on_c, 1, 45, 0
1, 35232, Note_on_c, 1, 42, 70
1, 35255, Note_on_c, 1, 42, 0
1, 35256, Note_on_c, 1, 45, 70
1, 35269, Note_on_c, 0, 72, 0
1, 35279, Note_on_c, 1, 45, 0
1, 35280, Note_on_c, 0, 69, 76
1, 35280, Note_on_c, 1, 48, 70
1, 35303, Note_on_c, 1, 48, 0
1, 35304, Note_on_c, 1, 45, 70
1, 35325, Note_on_c, 0, 69, 0
1, 35327, Note_on_c, 1, 45, 0
1, 35328, Note_on_c, 0, 79, 0
1, 35328, Note_on_c, 0, 78, 76
1, 35328, Note_on_c, 0, 72, 77
1, 35328, Note_on_c, 1, 42, 70
1, 35351, Note_on_c, 1, 42, 0
1, 35352, Note_on_c, 1, 45, 70
1, 35373, Note_on_c, 0, 72, 0
1, 35375, Note_on_c, 1, 45, 0
1, 35376, Note_on_c, 0, 70, 78
1, 35376, Note_on_c, 1, 48, 70
1, 35399, Note_on_c, 1, 48, 0
1, 35400, Note_on_c, 1, 45, 70
1, 35417, Note_on_c, 0, 78, 0
1, 35421, Note_on_c, 0, 70, 0
1, 35423, Note_on_c, 1, 45, 0
1, 35424, Note_on_c, 0, 69, 78
1, 35424, Note_on_c, 1, 42, 70
1, 35447, Note_on_c, 1, 42, 0
1, 35448, Note_on_c, 1, 46, 70
1, 35469, Note_on_c, 0, 69, 0
1, 35471, Note_on_c, 1, 46, 0
1, 35472, Note_on_c, 0, 67, 79
1, 35472, Note_on_c, 1, 50, 70
1, 35495, Note_on_c, 1, 50, 0
1, 35496, Note_on_c, 1, 46, 70
1, 35517, Note_on_c, 0, 67, 0
1, 35519, Note_on_c, 1, 46, 0
1, 35520, Note_on_c, 0, 77, 75
1, 35520, Note_on_c, 0, 65, 80
1, 35520, Note_on_c, 1, 56, 83
1, 35520, Note_on_c, 1, 44, 83
1, 35550, Note_on_c, 0, 77, 0
1, 35552, Note_on_c, 0, 74, 75
1, 35565, Note_on_c, 0, 65, 0
1, 35582, Note_on_c, 0, 74, 0
1, 35584, Note_on_c, 0, 71, 75
1, 35614, Note_on_c, 0, 71, 0
1, 35616, Note_on_c, 0, 77, 75
1, 35646, Note_on_c, 0, 77, 0
1, 35648, Note_on_c, 0, 74, 75
1, 35678, Note_on_c, 0, 74, 0
1, 35680, Note_on_c, 0, 71, 75
1, 35710, Note_on_c, 0, 71, 0
1, 35712, Note_on_c, 0, 76, 75
1, 35712, Note_on_c, 1, 56, 0
1, 35712, Note_on_c, 1, 44, 0
1, 35712, Note_on_c, 1, 57, 70
1, 35712, Note_on_c, 1, 45, 70
1, 35742, Note_on_c, 0, 76, 0
1, 35744, Note_on_c, 0, 71, 75
1, 35751, Note_on_c, 1, 57, 0
1, 35751, Note_on_c, 1, 45, 0
1, 35776, Note_on_c, 0, 71, 0
1, 35776, Note_on_c, 0, 72, 75
1, 35806, Note_on_c, 0, 72, 0
1, 35808, Note_on_c, 0, 76, 75
1, 35838, Note_on_c, 0, 76, 0
1, 35840, Note_on_c, 0, 71, 75
1, 35872, Note_on_c, 0, 71, 0
1, 35872, Note_on_c, 0, 72, 75
1, 35902, Note_on_c, 0, 72, 0
1, 35904, Note_on_c, 0, 75, 75
1, 35904, Note_on_c, 1, 54, 83
1, 35904, Note_on_c, 1, 42, 83
1, 35934, Note_on_c, 0, 75, 0
1, 35936, Note_on_c, 0, 72, 75
1, 35966, Note_on_c, 0, 72, 0
1, 35968, Note_on_c, 0, 69, 75
1, 35998, Note_on_c, 0, 69, 0
1, 36000, Note_on_c, 0, 75, 75
1, 36030, Note_on_c, 0, 75, 0
1, 36032, Note_on_c, 0, 72, 75
1, 36062, Note_on_c, 0, 72, 0
1, 36064, Note_on_c, 0, 69, 75
1, 36094, Note_on_c, 0, 69, 0
1, 36096, Note_on_c, 0, 74, 75
1, 36096, Note_on_c, 1, 54, 0
1, 36096, Note_on_c, 1, 42, 0
1, 36096, Note_on_c, 1, 55, 70
1, 36096, Note_on_c, 1, 43, 70
1, 36126, Note_on_c, 0, 74, 0
1, 36128, Note_on_c, 0, 69, 75
1, 36135, Note_on_c, 1, 55, 0
1, 36135, Note_on_c, 1, 43, 0
1, 36160, Note_on_c, 0, 69, 0
1, 36160, Note_on_c, 0, 70, 75
1, 36190, Note_on_c, 0, 70, 0
1, 36192, Note_on_c, 0, 74, 75
1, 36222, Note_on_c, 0, 74, 0
1, 36224, Note_on_c, 0, 69, 75
1, 36256, Note_on_c, 0, 69, 0
1, 36256, Note_on_c, 0, 70, 75
1, 36286, Note_on_c, 0, 70, 0
1, 36288, Note_on_c, 0, 73, 75
1, 36288, Note_on_c, 1, 52, 83
1, 36288, Note_on_c, 1, 40, 83
1, 36318, Note_on_c, 0, 73, 0
1, 36320, Note_on_c, 0, 70, 75
1, 36350, Note_on_c, 0, 70, 0
1, 36352, Note_on_c, 0, 67, 75
1, 36382, Note_on_c, 0, 67, 0
1, 36384, Note_on_c, 0, 73, 75
1, 36414, Note_on_c, 0, 73, 0
1, 36416, Note_on_c, 0, 70, 75
1, 36446, Note_on_c, 0, 70, 0
1, 36448, Note_on_c, 0, 67, 75
1, 36478, Note_on_c, 0, 67, 0
1, 36480, Note_on_c, 0, 72, 75
1, 36480, Note_on_c, 1, 52, 0
1, 36480, Note_on_c, 1, 40, 0
1, 36480, Note_on_c, 1, 53, 70
1, 36480, Note_on_c, 1, 41, 70
1, 36510, Note_on_c, 0, 72, 0
1, 36512, Note_on_c, 0, 67, 75
1, 36519, Note_on_c, 1, 53, 0
1, 36519, Note_on_c, 1, 41, 0
1, 36544, Note_on_c, 0, 67, 0
1, 36544, Note_on_c, 0, 68, 75
1, 36574, Note_on_c, 0, 68, 0
1, 36576, Note_on_c, 0, 72, 75
1, 36606, Note_on_c, 0, 72, 0
1, 36608, Note_on_c, 0, 67, 75
1, 36640, Note_on_c, 0, 67, 0
1, 36640, Note_on_c, 0, 68, 75
1, 36670, Note_on_c, 0, 68, 0
1, 36672, Note_on_c, 0, 72, 75
1, 36672, Note_on_c, 1, 50, 83
1, 36672, Note_on_c, 1, 38, 83
1, 36702, Note_on_c, 0, 72, 0
1, 36704, Note_on_c, 0, 69, 75
1, 36734, Note_on_c, 0, 69, 0
1, 36736, Note_on_c, 0, 66, 75
1, 36766, Note_on_c, 0, 66, 0
1, 36768, Note_on_c, 0, 72, 75
1, 36798, Note_on_c, 0, 72, 0
1, 36800, Note_on_c, 0, 69, 75
1, 36830, Note_on_c, 0, 69, 0
1, 36832, Note_on_c, 0, 66, 75
1, 36849, Note_on_c, 1, 50, 0
1, 36849, Note_on_c, 1, 38, 0
1, 36862, Note_on_c, 0, 66, 0
1, 36864, Note_on_c, 0, 67, 75
1, 36864, Note_on_c, 1, 51, 70
1, 36864, Note_on_c, 1, 39, 70
1, 36894, Note_on_c, 0, 67, 0
1, 36896, Note_on_c, 0, 66, 75
1, 36926, Note_on_c, 0, 66, 0
1, 36928, Note_on_c, 0, 67, 75
1, 36958, Note_on_c, 0, 67, 0
1, 36960, Note_on_c, 0, 70, 75
1, 36990, Note_on_c, 0, 70, 0
1, 36992, Note_on_c, 0, 66, 75
1, 37022, Note_on_c, 0, 66, 0
1, 37024, Note_on_c, 0, 67, 75
1, 37041, Note_on_c, 1, 51, 0
1, 37041, Note_on_c, 1, 39, 0
1, 37054, Note_on_c, 0, 67, 0
1, 37056, Note_on_c, 1, 49, 83
1, 37056, Note_on_c, 1, 37, 83
1, 37104, Note_on_c, 0, 82, 96
1, 37104, Note_on_c, 0, 79, 96
1, 37124, Note_on_c, 0, 82, 0
1, 37124, Note_on_c, 0, 79, 0
1, 37152, Note_on_c, 0, 81, 80
1, 37152, Note_on_c, 0, 78, 80
1, 37172, Note_on_c, 0, 81, 0
1, 37172, Note_on_c, 0, 78, 0
1, 37200, Note_on_c, 0, 79, 80
1, 37200, Note_on_c, 0, 75, 80
1, 37220, Note_on_c, 0, 79, 0
1, 37220, Note_on_c, 0, 75, 0
1, 37248, Note_on_c, 0, 78, 80
1, 37248, Note_on_c, 0, 74, 80
1, 37268, Note_on_c, 0, 78, 0
1, 37268, Note_on_c, 0, 74, 0
1, 37296, Note_on_c, 0, 75, 80
1, 37296, Note_on_c, 0, 72, 80
1, 37316, Note_on_c, 0, 75, 0
1, 37316, Note_on_c, 0, 72, 0
1, 37344, Note_on_c, 0, 74, 80
1, 37344, Note_on_c, 0, 70, 80
1, 37364, Note_on_c, 0, 74, 0
1, 37364, Note_on_c, 0, 70, 0
1, 37392, Note_on_c, 0, 72, 80
1, 37392, Note_on_c, 0, 69, 80
1, 37410, Note_on_c, 1, 49, 0
1, 37410, Note_on_c, 1, 37, 0
1, 37412, Note_on_c, 0, 72, 0
1, 37412, Note_on_c, 0, 69, 0
1, 37440, Note_on_c, 0, 70, 96
1, 37440, Note_on_c, 1, 50, 70
1, 37440, Note_on_c, 1, 38, 70
1, 37488, Note_on_c, 0, 70, 0
1, 37488, Note_on_c, 0, 67, 80
1, 37529, Note_on_c, 1, 50, 0
1, 37529, Note_on_c, 1, 38, 0
1, 37533, Note_on_c, 0, 67, 0
1, 37536, Note_on_c, 0, 66, 80
1, 37581, Note_on_c, 0, 66, 0
1, 37584, Note_on_c, 0, 67, 80
1, 37629, Note_on_c, 0, 67, 0
1, 37632, Note_on_c, 0, 72, 80
1, 37652, Note_on_c, 0, 72, 0
1, 37680, Note_on_c, 0, 70, 80
1, 37700, Note_on_c, 0, 70, 0
1, 37728, Note_on_c, 0, 69, 80
1, 37748, Note_on_c, 0, 69, 0
1, 37776, Note_on_c, 0, 67, 80
1, 37796, Note_on_c, 0, 67, 0
1, 37824, Note_on_c, 0, 67, 96
1, 37872, Note_on_c, 1, 50, 70
1, 37917, Note_on_c, 1, 50, 0
1, 37920, Note_on_c, 1, 62, 70
1, 37940, Note_on_c, 1, 62, 0
1, 37968, Note_on_c, 1, 57, 70
1, 37988, Note_on_c, 1, 57, 0
1, 38016, Note_on_c, 0, 67, 0
1, 38016, Note_on_c, 0, 66, 80
1, 38016, Note_on_c, 1, 60, 70
1, 38061, Note_on_c, 1, 60, 0
1, 38064, Note_on_c, 1, 58, 70
1, 38105, Note_on_c, 0, 66, 0
1, 38109, Note_on_c, 1, 58, 0
1, 38112, Note_on_c, 1, 57, 70
1, 38157, Note_on_c, 1, 57, 0
1, 38160, Note_on_c, 1, 55, 70
1, 38205, Note_on_c, 1, 55, 0
1, 38208, Note_on_c, 0, 75, 91
1, 38208, Note_on_c, 1, 55, 86
1, 38352, Note_on_c, 0, 75, 0
1, 38352, Note_on_c, 0, 72, 73
1, 38397, Note_on_c, 0, 72, 0
1, 38400, Note_on_c, 0, 75, 73
1, 38400, Note_on_c, 1, 55, 0
1, 38400, Note_on_c, 1, 54, 70
1, 38445, Note_on_c, 0, 75, 0
1, 38448, Note_on_c, 0, 74, 73
1, 38489, Note_on_c, 1, 54, 0
1, 38493, Note_on_c, 0, 74, 0
1, 38496, Note_on_c, 0, 72, 72
1, 38541, Note_on_c, 0, 72, 0
1, 38544, Note_on_c, 0, 70, 72
1, 38589, Note_on_c, 0, 70, 0
1, 38592, Note_on_c, 0, 70, 88
1, 38592, Note_on_c, 1, 67, 80
1, 38725, Note_on_c, 1, 67, 0
1, 38736, Note_on_c, 1, 64, 78
1, 38781, Note_on_c, 1, 64, 0
1, 38784, Note_on_c, 0, 70, 0
1, 38784, Note_on_c, 0, 69, 70
1, 38784, Note_on_c, 1, 67, 78
1, 38829, Note_on_c, 1, 67, 0
1, 38832, Note_on_c, 1, 65, 78
1, 38873, Note_on_c, 0, 69, 0
1, 38877, Note_on_c, 1, 65, 0
1, 38880, Note_on_c, 1, 64, 77
1, 38925, Note_on_c, 1, 64, 0
1, 38928, Note_on_c, 1, 62, 77
1, 38973, Note_on_c, 1, 62, 0
1, 38976, Note_on_c, 0, 82, 86
1, 38976, Note_on_c, 1, 61, 93
1, 39264, Note_on_c, 0, 82, 0
1, 39264, Note_on_c, 0, 79, 68
1, 39264, Note_on_c, 1, 61, 0
1, 39353, Note_on_c, 0, 79, 0
1, 39360, Note_on_c, 0, 77, 68
1, 39449, Note_on_c, 0, 77, 0
1, 39456, Note_on_c, 0, 76, 67
1, 39545, Note_on_c, 0, 76, 0
1, 39552, Note_on_c, 0, 74, 67
1, 39641, Note_on_c, 0, 74, 0
1, 39648, Note_on_c, 0, 74, 66
1, 39921, Note_on_c, 0, 74, 0
1, 39936, Note_on_c, 0, 73, 65
1, 40305, Note_on_c, 0, 73, 0
1, 40608, Note_on_c, 0, 81, 91
1, 40800, Note_on_c, 0, 81, 0
1, 40800, Note_on_c, 0, 73, 75
1, 40896, Note_on_c, 0, 73, 0
1, 40896, Note_on_c, 0, 74, 75
1, 40985, Note_on_c, 0, 74, 0
1, 40992, Note_on_c, 0, 82, 75
1, 41125, Note_on_c, 0, 82, 0
1, 41136, Note_on_c, 0, 79, 75
1, 41181, Note_on_c, 0, 79, 0
1, 41184, Note_on_c, 0, 81, 75
1, 41361, Note_on_c, 0, 81, 0
1, 41376, Note_on_c, 0, 67, 75
1, 41472, Note_on_c, 1, 49, 75
1, 41509, Note_on_c, 0, 67, 0
1, 41520, Note_on_c, 0, 64, 75
1, 41561, Note_on_c, 1, 49, 0
1, 41565, Note_on_c, 0, 64, 0
1, 41568, Note_on_c, 0, 67, 76
1, 41568, Note_on_c, 1, 50, 75
1, 41613, Note_on_c, 0, 67, 0
1, 41616, Note_on_c, 0, 65, 77
1, 41657, Note_on_c, 1, 50, 0
1, 41661, Note_on_c, 0, 65, 0
1, 41664, Note_on_c, 0, 64, 78
1, 41664, Note_on_c, 1, 55, 75
1, 41709, Note_on_c, 0, 64, 0
1, 41712, Note_on_c, 0, 62, 79
1, 41753, Note_on_c, 1, 55, 0
1, 41757, Note_on_c, 0, 62, 0
1, 41760, Note_on_c, 0, 62, 80
1, 41856, Note_on_c, 1, 57, 75
1, 41945, Note_on_c, 1, 57, 0
1, 41952, Note_on_c, 0, 62, 0
1, 41952, Note_on_c, 0, 61, 76
1, 41952, Note_on_c, 1, 45, 75
1, 42041, Note_on_c, 0, 61, 0
1, 42041, Note_on_c, 1, 45, 0
1, 42096, Note_on_c, 0, 73, 70
1, 42116, Note_on_c, 0, 73, 0
1, 42144, Note_on_c, 0, 73, 86
1, 42144, Note_on_c, 0, 70, 86
1, 42144, Note_on_c, 1, 67, 64
1, 42336, Note_on_c, 0, 73, 0
1, 42336, Note_on_c, 0, 70, 0
1, 42336, Note_on_c, 0, 74, 70
1, 42336, Note_on_c, 0, 69, 70
1, 42336, Note_on_c, 1, 67, 0
1, 42336, Note_on_c, 1, 65, 64
1, 42375, Note_on_c, 0, 74, 0
1, 42375, Note_on_c, 0, 69, 0
1, 42375, Note_on_c, 1, 65, 0
1, 42480, Note_on_c, 0, 82, 70
1, 42500, Note_on_c, 0, 82, 0
1, 42528, Note_on_c, 0, 82, 86
1, 42528, Note_on_c, 0, 76, 86
1, 42528, Note_on_c, 1, 73, 64
1, 42720, Note_on_c, 0, 82, 0
1, 42720, Note_on_c, 0, 76, 0
1, 42720, Note_on_c, 0, 81, 70
1, 42720, Note_on_c, 0, 77, 70
1, 42720, Note_on_c, 1, 73, 0
1, 42720, Note_on_c, 1, 74, 64
1, 42759, Note_on_c, 0, 81, 0
1, 42759, Note_on_c, 0, 77, 0
1, 42759, Note_on_c, 1, 74, 0
1, 42912, Note_on_c, 0, 63, 96
1, 43008, Note_on_c, 0, 63, 0
1, 43008, Note_on_c, 0, 77, 80
1, 43020, Note_on_c, 0, 77, 0
1, 43020, Note_on_c, 0, 75, 80
1, 43032, Note_on_c, 0, 75, 0
1, 43032, Note_on_c, 0, 74, 80
1, 43044, Note_on_c, 0, 74, 0
1, 43044, Note_on_c, 0, 75, 96
1, 43104, Note_on_c, 1, 46, 75
1, 43104, Note_on_c, 1, 43, 75
1, 43104, Note_on_c, 1, 39, 75
1, 43104, Note_on_c, 1, 34, 75
1, 43200, Note_on_c, 0, 75, 0
1, 43200, Note_on_c, 0, 73, 80
1, 43237, Note_on_c, 1, 46, 0
1, 43237, Note_on_c, 1, 43, 0
1, 43237, Note_on_c, 1, 39, 0
1, 43237, Note_on_c, 1, 34, 0
1, 43289, Note_on_c, 0, 73, 0
1, 43296, Note_on_c, 0, 74, 96
1, 43296, Note_on_c, 1, 62, 64
1, 43326, Note_on_c, 1, 62, 0
1, 43328, Note_on_c, 1, 65, 64
1, 43358, Note_on_c, 1, 65, 0
1, 43360, Note_on_c, 1, 69, 64
1, 43390, Note_on_c, 1, 69, 0
1, 43392, Note_on_c, 0, 74, 0
1, 43392, Note_on_c, 1, 62, 64
1, 43422, Note_on_c, 1, 62, 0
1, 43424, Note_on_c, 1, 65, 64
1, 43454, Note_on_c, 1, 65, 0
1, 43456, Note_on_c, 1, 69, 64
1, 43486, Note_on_c, 1, 69, 0
1, 43488, Note_on_c, 0, 73, 75
1, 43488, Note_on_c, 1, 62, 64
1, 43518, Note_on_c, 1, 62, 0
1, 43520, Note_on_c, 1, 65, 64
1, 43550, Note_on_c, 1, 65, 0
1, 43552, Note_on_c, 1, 69, 64
1, 43582, Note_on_c, 1, 69, 0
1, 43584, Note_on_c, 0, 73, 0
1, 43584, Note_on_c, 0, 74, 77
1, 43584, Note_on_c, 1, 62, 64
1, 43614, Note_on_c, 1, 62, 0
1, 43616, Note_on_c, 1, 65, 64
1, 43646, Note_on_c, 1, 65, 0
1, 43648, Note_on_c, 1, 69, 64
1, 43673, Note_on_c, 0, 74, 0
1, 43678, Note_on_c, 1, 69, 0
1, 43680, Note_on_c, 0, 82, 80
1, 43680, Note_on_c, 1, 62, 64
1, 43692, Note_on_c, 0, 82, 0
1, 43692, Note_on_c, 0, 81, 80
1, 43704, Note_on_c, 0, 81, 0
1, 43704, Note_on_c, 0, 82, 96
1, 43710, Note_on_c, 1, 62, 0
1, 43712, Note_on_c, 1, 67, 64
1, 43742, Note_on_c, 1, 67, 0
1, 43744, Note_on_c, 1, 70, 64
1, 43774, Note_on_c, 1, 70, 0
1, 43776, Note_on_c, 1, 62, 64
1, 43806, Note_on_c, 1, 62, 0
1, 43808, Note_on_c, 1, 67, 64
1, 43824, Note_on_c, 0, 82, 0
1, 43824, Note_on_c, 0, 79, 78
1, 43838, Note_on_c, 1, 67, 0
1, 43840, Note_on_c, 1, 70, 64
1, 43869, Note_on_c, 0, 79, 0
1, 43870, Note_on_c, 1, 70, 0
1, 43872, Note_on_c, 0, 81, 77
1, 43872, Note_on_c, 1, 62, 64
1, 43902, Note_on_c, 1, 62, 0
1, 43904, Note_on_c, 1, 65, 64
1, 43934, Note_on_c, 1, 65, 0
1, 43936, Note_on_c, 1, 69, 64
1, 43966, Note_on_c, 1, 69, 0
1, 43968, Note_on_c, 1, 62, 64
1, 43998, Note_on_c, 1, 62, 0
1, 44000, Note_on_c, 1, 65, 64
1, 44030, Note_on_c, 1, 65, 0
1, 44032, Note_on_c, 1, 69, 64
1, 44049, Note_on_c, 0, 81, 0
1, 44062, Note_on_c, 1, 69, 0
1, 44064, Note_on_c, 0, 55, 96
1, 44064, Note_on_c, 1, 61, 64
1, 44094, Note_on_c, 1, 61, 0
1, 44096, Note_on_c, 1, 64, 64
1, 44126, Note_on_c, 1, 64, 0
1, 44128, Note_on_c, 1, 69, 64
1, 44158, Note_on_c, 1, 69, 0
1, 44160, Note_on_c, 1, 61, 64
1, 44190, Note_on_c, 1, 61, 0
1, 44192, Note_on_c, 1, 64, 64
1, 44208, Note_on_c, 0, 55, 0
1, 44208, Note_on_c, 0, 52, 80
1, 44222, Note_on_c, 1, 64, 0
1, 44224, Note_on_c, 1, 69, 64
1, 44253, Note_on_c, 0, 52, 0
1, 44254, Note_on_c, 1, 69, 0
1, 44256, Note_on_c, 0, 55, 81
1, 44256, Note_on_c, 1, 62, 64
1, 44286, Note_on_c, 1, 62, 0
1, 44288, Note_on_c, 1, 65, 64
1, 44301, Note_on_c, 0, 55, 0
1, 44304, Note_on_c, 0, 53, 82
1, 44318, Note_on_c, 1, 65, 0
1, 44320, Note_on_c, 1, 69, 64
1, 44349, Note_on_c, 0, 53, 0
1, 44350, Note_on_c, 1, 69, 0
1, 44352, Note_on_c, 0, 52, 83
1, 44352, Note_on_c, 1, 62, 64
1, 44382, Note_on_c, 1, 62, 0
1, 44384, Note_on_c, 1, 65, 64
1, 44397, Note_on_c, 0, 52, 0
1, 44400, Note_on_c, 0, 50, 84
1, 44414, Note_on_c, 1, 65, 0
1, 44416, Note_on_c, 1, 69, 64
1, 44445, Note_on_c, 0, 50, 0
1, 44446, Note_on_c, 1, 69, 0
1, 44448, Note_on_c, 0, 50, 102
1, 44448, Note_on_c, 1, 57, 64
1, 44478, Note_on_c, 1, 57, 0
1, 44480, Note_on_c, 1, 65, 64
1, 44510, Note_on_c, 1, 65, 0
1, 44512, Note_on_c, 1, 69, 64
1, 44542, Note_on_c, 1, 69, 0
1, 44544, Note_on_c, 1, 57, 64
1, 44574, Note_on_c, 1, 57, 0
1, 44576, Note_on_c, 1, 65, 64
1, 44606, Note_on_c, 1, 65, 0
1, 44608, Note_on_c, 1, 69, 64
1, 44638, Note_on_c, 1, 69, 0
1, 44640, Note_on_c, 0, 50, 0
1, 44640, Note_on_c, 0, 49, 82
1, 44640, Note_on_c, 1, 57, 64
1, 44670, Note_on_c, 1, 57, 0
1, 44672, Note_on_c, 1, 70, 75
1, 44702, Note_on_c, 1, 70, 0
1, 44704, Note_on_c, 1, 69, 75
1, 44729, Note_on_c, 0, 49, 0
1, 44734, Note_on_c, 1, 69, 0
1, 44736, Note_on_c, 1, 67, 76
1, 44766, Note_on_c, 1, 67, 0
1, 44768, Note_on_c, 1, 65, 77
1, 44798, Note_on_c, 1, 65, 0
1, 44800, Note_on_c, 1, 64, 78
1, 44830, Note_on_c, 1, 64, 0
1, 44832, Note_on_c, 1, 65, 80
1, 44864, Note_on_c, 0, 73, 75
1, 44896, Note_on_c, 0, 73, 0
1, 44896, Note_on_c, 0, 74, 75
1, 44921, Note_on_c, 1, 65, 0
1, 44926, Note_on_c, 0, 74, 0
1, 44928, Note_on_c, 0, 77, 91
1, 44928, Note_on_c, 1, 62, 80
1, 44960, Note_on_c, 0, 77, 0
1, 44960, Note_on_c, 0, 73, 76
1, 44992, Note_on_c, 0, 73, 0
1, 44992, Note_on_c, 0, 74, 76
1, 45017, Note_on_c, 1, 62, 0
1, 45022, Note_on_c, 0, 74, 0
1, 45024, Note_on_c, 0, 79, 93
1, 45024, Note_on_c, 1, 64, 80
1, 45056, Note_on_c, 0, 79, 0
1, 45056, Note_on_c, 0, 73, 77
1, 45088, Note_on_c, 0, 73, 0
1, 45088, Note_on_c, 0, 74, 77
1, 45113, Note_on_c, 1, 64, 0
1, 45118, Note_on_c, 0, 74, 0
1, 45120, Note_on_c, 0, 81, 94
1, 45120, Note_on_c, 1, 65, 80
1, 45152, Note_on_c, 0, 81, 0
1, 45152, Note_on_c, 0, 73, 78
1, 45184, Note_on_c, 0, 73, 0
1, 45184, Note_on_c, 0, 74, 79
1, 45209, Note_on_c, 1, 65, 0
1, 45214, Note_on_c, 0, 74, 0
1, 45216, Note_on_c, 1, 67, 93
1, 45216, Note_on_c, 1, 63, 93
1, 45216, Note_on_c, 1, 58, 93
1, 45216, Note_on_c, 1, 55, 93
1, 45248, Note_on_c, 0, 82, 80
1, 45278, Note_on_c, 0, 82, 0
1, 45280, Note_on_c, 0, 79, 80
1, 45310, Note_on_c, 0, 79, 0
1, 45312, Note_on_c, 0, 75, 80
1, 45342, Note_on_c, 0, 75, 0
1, 45344, Note_on_c, 0, 79, 80
1, 45374, Note_on_c, 0, 79, 0
1, 45376, Note_on_c, 0, 75, 80
1, 45406, Note_on_c, 0, 75, 0
1, 45408, Note_on_c, 0, 70, 80
1, 45438, Note_on_c, 0, 70, 0
1, 45440, Note_on_c, 0, 75, 80
1, 45470, Note_on_c, 0, 75, 0
1, 45472, Note_on_c, 0, 70, 80
1, 45502, Note_on_c, 0, 70, 0
1, 45504, Note_on_c, 0, 67, 80
1, 45534, Note_on_c, 0, 67, 0
1, 45536, Note_on_c, 0, 70, 80
1, 45566, Note_on_c, 0, 70, 0
1, 45568, Note_on_c, 0, 67, 80
1, 45570, Note_on_c, 1, 67, 0
1, 45570, Note_on_c, 1, 63, 0
1, 45570, Note_on_c, 1, 58, 0
1, 45570, Note_on_c, 1, 55, 0
1, 45598, Note_on_c, 0, 67, 0
1, 45600, Note_on_c, 1, 61, 80
1, 45648, Note_on_c, 0, 82, 80
1, 45648, Note_on_c, 0, 79, 80
1, 45693, Note_on_c, 0, 82, 0
1, 45693, Note_on_c, 0, 79, 0
1, 45696, Note_on_c, 0, 81, 79
1, 45696, Note_on_c, 0, 77, 79
1, 45741, Note_on_c, 0, 81, 0
1, 45741, Note_on_c, 0, 77, 0
1, 45744, Note_on_c, 0, 79, 78
1, 45744, Note_on_c, 0, 76, 78
1, 45789, Note_on_c, 0, 79, 0
1, 45789, Note_on_c, 0, 76, 0
1, 45792, Note_on_c, 0, 77, 77
1, 45792, Note_on_c, 0, 74, 77
1, 45792, Note_on_c, 1, 61, 0
1, 45792, Note_on_c, 1, 62, 76
1, 45881, Note_on_c, 0, 77, 0
1, 45881, Note_on_c, 0, 74, 0
1, 45881, Note_on_c, 1, 62, 0
1, 45984, Note_on_c, 0, 76, 70
1, 45984, Note_on_c, 0, 73, 70
1, 45984, Note_on_c, 0, 69, 70
1, 46073, Note_on_c, 0, 76, 0
1, 46073, Note_on_c, 0, 73, 0
1, 46073, Note_on_c, 0, 69, 0
1, 46176, Note_on_c, 1, 38, 96
1, 46185, Note_on_c, 1, 41, 96
1, 46194, Note_on_c, 1, 45, 96
1, 46203, Note_on_c, 1, 50, 96
1, 46248, Note_on_c, 0, 77, 80
1, 46271, Note_on_c, 0, 77, 0
1, 46272, Note_on_c, 0, 81, 80
1, 46295, Note_on_c, 0, 81, 0
1, 46296, Note_on_c, 0, 79, 80
1, 46319, Note_on_c, 0, 79, 0
1, 46320, Note_on_c, 0, 77, 80
1, 46343, Note_on_c, 0, 77, 0
1, 46344, Note_on_c, 0, 76, 80
1, 46367, Note_on_c, 0, 76, 0
1, 46368, Note_on_c, 0, 74, 80
1, 46391, Note_on_c, 0, 74, 0
1, 46392, Note_on_c, 0, 72, 80
1, 46405, Note_on_c, 1, 50, 0
1, 46405, Note_on_c, 1, 45, 0
1, 46405, Note_on_c, 1, 41, 0
1, 46405, Note_on_c, 1, 38, 0
1, 46415, Note_on_c, 0, 72, 0
1, 46416, Note_on_c, 0, 70, 80
1, 46439, Note_on_c, 0, 70, 0
1, 46440, Note_on_c, 0, 69, 80
1, 46463, Note_on_c, 0, 69, 0
1, 46464, Note_on_c, 0, 67, 80
1, 46487, Note_on_c, 0, 67, 0
1, 46488, Note_on_c, 0, 65, 80
1, 46511, Note_on_c, 0, 65, 0
1, 46512, Note_on_c, 0, 64, 80
1, 46535, Note_on_c, 0, 64, 0
1, 46536, Note_on_c, 0, 62, 80
1, 46559, Note_on_c, 0, 62, 0
1, 46560, Note_on_c, 0, 70, 80
1, 46560, Note_on_c, 1, 58, 80
1, 46583, Note_on_c, 0, 70, 0
1, 46583, Note_on_c, 1, 58, 0
1, 46584, Note_on_c, 0, 69, 80
1, 46584, Note_on_c, 1, 57, 80
1, 46607, Note_on_c, 0, 69, 0
1, 46607, Note_on_c, 1, 57, 0
1, 46608, Note_on_c, 0, 67, 80
1, 46608, Note_on_c, 1, 55, 80
1, 46631, Note_on_c, 0, 67, 0
1, 46631, Note_on_c, 1, 55, 0
1, 46632, Note_on_c, 0, 65, 80
1, 46632, Note_on_c, 1, 53, 80
1, 46655, Note_on_c, 0, 65, 0
1, 46655, Note_on_c, 1, 53, 0
1, 46656, Note_on_c, 0, 64, 80
1, 46656, Note_on_c, 1, 52, 80
1, 46686, Note_on_c, 0, 64, 0
1, 46686, Note_on_c, 1, 52, 0
1, 46688, Note_on_c, 0, 62, 80
1, 46688, Note_on_c, 1, 50, 80
1, 46718, Note_on_c, 0, 62, 0
1, 46718, Note_on_c, 1, 50, 0
1, 46720, Note_on_c, 0, 60, 80
1, 46720, Note_on_c, 1, 48, 80
1, 46750, Note_on_c, 0, 60, 0
1, 46750, Note_on_c, 1, 48, 0
1, 46752, Note_on_c, 0, 58, 80
1, 46752, Note_on_c, 1, 46, 80
1, 46782, Note_on_c, 0, 58, 0
1, 46782, Note_on_c, 1, 46, 0
1, 46784, Note_on_c, 0, 57, 80
1, 46784, Note_on_c, 1, 45, 80
1, 46814, Note_on_c, 0, 57, 0
1, 46814, Note_on_c, 1, 45, 0
1, 46816, Note_on_c, 0, 55, 80
1, 46816, Note_on_c, 1, 43, 80
1, 46846, Note_on_c, 0, 55, 0
1, 46846, Note_on_c, 1, 43, 0
1, 46848, Note_on_c, 0, 53, 80
1, 46848, Note_on_c, 1, 41, 80
1, 46878, Note_on_c, 0, 53, 0
1, 46878, Note_on_c, 1, 41, 0
1, 46880, Note_on_c, 0, 52, 80
1, 46880, Note_on_c, 1, 40, 80
1, 46910, Note_on_c, 0, 52, 0
1, 46910, Note_on_c, 1, 40, 0
1, 46912, Note_on_c, 0, 50, 80
1, 46912, Note_on_c, 1, 38, 80
1, 46942, Note_on_c, 0, 50, 0
1, 46942, Note_on_c, 1, 38, 0
1, 46944, Note_on_c, 0, 49, 80
1, 46944, Note_on_c, 1, 40, 80
1, 46974, Note_on_c, 0, 49, 0
1, 46976, Note_on_c, 0, 45, 80
1, 47006, Note_on_c, 0, 45, 0
1, 47008, Note_on_c, 0, 49, 80
1, 47038, Note_on_c, 0, 49, 0
1, 47040, Note_on_c, 0, 52, 80
1, 47070, Note_on_c, 0, 52, 0
1, 47072, Note_on_c, 0, 49, 80
1, 47102, Note_on_c, 0, 49, 0
1, 47104, Note_on_c, 0, 52, 80
1, 47121, Note_on_c, 1, 40, 0
1, 47134, Note_on_c, 0, 52, 0
1, 47136, Note_on_c, 0, 55, 80
1, 47166, Note_on_c, 0, 55, 0
1, 47168, Note_on_c, 0, 52, 80
1, 47198, Note_on_c, 0, 52, 0
1, 47200, Note_on_c, 0, 55, 80
1, 47230, Note_on_c, 0, 55, 0
1, 47232, Note_on_c, 0, 61, 80
1, 47262, Note_on_c, 0, 61, 0
1, 47264, Note_on_c, 0, 57, 80
1, 47294, Note_on_c, 0, 57, 0
1, 47296, Note_on_c, 0, 61, 80
1, 47326, Note_on_c, 0, 61, 0
1, 47328, Note_on_c, 1, 45, 80
1, 47328, Note_on_c, 1, 33, 80
1, 47360, Note_on_c, 0, 76, 80
1, 47390, Note_on_c, 0, 76, 0
1, 47392, Note_on_c, 0, 74, 80
1, 47422, Note_on_c, 0, 74, 0
1, 47424, Note_on_c, 0, 73, 80
1, 47454, Note_on_c, 0, 73, 0
1, 47456, Note_on_c, 0, 70, 80
1, 47486, Note_on_c, 0, 70, 0
1, 47488, Note_on_c, 0, 69, 80
1, 47505, Note_on_c, 1, 45, 0
1, 47505, Note_on_c, 1, 33, 0
1, 47518, Note_on_c, 0, 69, 0
1, 47520, Note_on_c, 0, 67, 80
1, 47550, Note_on_c, 0, 67, 0
1, 47552, Note_on_c, 0, 65, 80
1, 47582, Note_on_c, 0, 65, 0
1, 47584, Note_on_c, 0, 64, 80
1, 47614, Note_on_c, 0, 64, 0
1, 47616, Note_on_c, 0, 62, 80
1, 47646, Note_on_c, 0, 62, 0
1, 47648, Note_on_c, 0, 61, 80
1, 47678, Note_on_c, 0, 61, 0
1, 47680, Note_on_c, 0, 58, 80
1, 47710, Note_on_c, 0, 58, 0
1, 47712, Note_on_c, 0, 57, 80
1, 47712, Note_on_c, 1, 48, 80
1, 47712, Note_on_c, 1, 36, 80
1, 47742, Note_on_c, 0, 57, 0
1, 47744, Note_on_c, 0, 54, 80
1, 47774, Note_on_c, 0, 54, 0
1, 47776, Note_on_c, 0, 57, 80
1, 47806, Note_on_c, 0, 57, 0
1, 47808, Note_on_c, 0, 60, 80
1, 47838, Note_on_c, 0, 60, 0
1, 47840, Note_on_c, 0, 57, 80
1, 47870, Note_on_c, 0, 57, 0
1, 47872, Note_on_c, 0, 60, 80
1, 47889, Note_on_c, 1, 48, 0
1, 47889, Note_on_c, 1, 36, 0
1, 47902, Note_on_c, 0, 60, 0
1, 47904, Note_on_c, 0, 66, 80
1, 47934, Note_on_c, 0, 66, 0
1, 47936, Note_on_c, 0, 60, 80
1, 47966, Note_on_c, 0, 60, 0
1, 47968, Note_on_c, 0, 66, 80
1, 47998, Note_on_c, 0, 66, 0
1, 48000, Note_on_c, 0, 69, 80
1, 48030, Note_on_c, 0, 69, 0
1, 48032, Note_on_c, 0, 66, 80
1, 48062, Note_on_c, 0, 66, 0
1, 48064, Note_on_c, 0, 69, 80
1, 48094, Note_on_c, 0, 69, 0
1, 48096, Note_on_c, 0, 70, 80
1, 48096, Note_on_c, 1, 46, 80
1, 48126, Note_on_c, 0, 70, 0
1, 48126, Note_on_c, 1, 46, 0
1, 48128, Note_on_c, 0, 67, 80
1, 48128, Note_on_c, 1, 50, 80
1, 48158, Note_on_c, 0, 67, 0
1, 48158, Note_on_c, 1, 50, 0
1, 48160, Note_on_c, 0, 62, 81
1, 48160, Note_on_c, 1, 55, 80
1, 48190, Note_on_c, 0, 62, 0
1, 48190, Note_on_c, 1, 55, 0
1, 48192, Note_on_c, 0, 69, 81
1, 48192, Note_on_c, 1, 45, 80
1, 48222, Note_on_c, 0, 69, 0
1, 48222, Note_on_c, 1, 45, 0
1, 48224, Note_on_c, 0, 66, 82
1, 48224, Note_on_c, 1, 50, 80
1, 48254, Note_on_c, 0, 66, 0
1, 48254, Note_on_c, 1, 50, 0
1, 48256, Note_on_c, 0, 62, 82
1, 48256, Note_on_c, 1, 57, 80
1, 48286, Note_on_c, 0, 62, 0
1, 48286, Note_on_c, 1, 57, 0
1, 48288, Note_on_c, 0, 70, 83
1, 48288, Note_on_c, 1, 46, 80
1, 48318, Note_on_c, 0, 70, 0
1, 48318, Note_on_c, 1, 46, 0
1, 48320, Note_on_c, 0, 67, 83
1, 48320, Note_on_c, 1, 50, 80
1, 48350, Note_on_c, 0, 67, 0
1, 48350, Note_on_c, 1, 50, 0
1, 48352, Note_on_c, 0, 62, 84
1, 48352, Note_on_c, 1, 55, 80
1, 48382, Note_on_c, 0, 62, 0
1, 48382, Note_on_c, 1, 55, 0
1, 48384, Note_on_c, 0, 72, 84
1, 48384, Note_on_c, 1, 48, 80
1, 48414, Note_on_c, 0, 72, 0
1, 48414, Note_on_c, 1, 48, 0
1, 48416, Note_on_c, 0, 69, 85
1, 48416, Note_on_c, 1, 50, 80
1, 48446, Note_on_c, 0, 69, 0
1, 48446, Note_on_c, 1, 50, 0
1, 48448, Note_on_c, 0, 62, 86
1, 48448, Note_on_c, 1, 54, 80
1, 48478, Note_on_c, 0, 62, 0
1, 48478, Note_on_c, 1, 54, 0
1, 48480, Note_on_c, 0, 75, 86
1, 48480, Note_on_c, 1, 51, 80
1, 48510, Note_on_c, 0, 75, 0
1, 48510, Note_on_c, 1, 51, 0
1, 48512, Note_on_c, 0, 72, 86
1, 48512, Note_on_c, 1, 50, 80
1, 48542, Note_on_c, 0, 72, 0
1, 48542, Note_on_c, 1, 50, 0
1, 48544, Note_on_c, 0, 62, 86
1, 48544, Note_on_c, 1, 57, 80
1, 48574, Note_on_c, 0, 62, 0
1, 48574, Note_on_c, 1, 57, 0
1, 48576, Note_on_c, 0, 74, 86
1, 48576, Note_on_c, 1, 50, 80
1, 48606, Note_on_c, 0, 74, 0
1, 48606, Note_on_c, 1, 50, 0
1, 48608, Note_on_c, 0, 70, 86
1, 48608, Note_on_c, 1, 50, 80
1, 48638, Note_on_c, 0, 70, 0
1, 48638, Note_on_c, 1, 50, 0
1, 48640, Note_on_c, 0, 62, 86
1, 48640, Note_on_c, 1, 55, 80
1, 48670, Note_on_c, 0, 62, 0
1, 48670, Note_on_c, 1, 55, 0
1, 48672, Note_on_c, 0, 72, 86
1, 48672, Note_on_c, 1, 48, 80
1, 48702, Note_on_c, 0, 72, 0
1, 48702, Note_on_c, 1, 48, 0
1, 48704, Note_on_c, 0, 69, 86
1, 48704, Note_on_c, 1, 50, 80
1, 48734, Note_on_c, 0, 69, 0
1, 48734, Note_on_c, 1, 50, 0
1, 48736, Note_on_c, 0, 62, 86
1, 48736, Note_on_c, 1, 54, 80
1, 48766, Note_on_c, 0, 62, 0
1, 48766, Note_on_c, 1, 54, 0
1, 48768, Note_on_c, 0, 70, 86
1, 48768, Note_on_c, 1, 46, 80
1, 48798, Note_on_c, 0, 70, 0
1, 48798, Note_on_c, 1, 46, 0
1, 48800, Note_on_c, 0, 67, 86
1, 48800, Note_on_c, 1, 50, 80
1, 48830, Note_on_c, 0, 67, 0
1, 48830, Note_on_c, 1, 50, 0
1, 48832, Note_on_c, 0, 62, 86
1, 48832, Note_on_c, 1, 55, 80
1, 48862, Note_on_c, 0, 62, 0
1, 48862, Note_on_c, 1, 55, 0
1, 48864, Note_on_c, 0, 72, 86
1, 48864, Note_on_c, 1, 48, 80
1, 48894, Note_on_c, 0, 72, 0
1, 48894, Note_on_c, 1, 48, 0
1, 48896, Note_on_c, 0, 69, 87
1, 48896, Note_on_c, 1, 51, 80
1, 48926, Note_on_c, 0, 69, 0
1, 48926, Note_on_c, 1, 51, 0
1, 48928, Note_on_c, 0, 63, 88
1, 48928, Note_on_c, 1, 57, 81
1, 48958, Note_on_c, 0, 63, 0
1, 48958, Note_on_c, 1, 57, 0
1, 48960, Note_on_c, 0, 72, 89
1, 48960, Note_on_c, 1, 48, 82
1, 48990, Note_on_c, 0, 72, 0
1, 48990, Note_on_c, 1, 48, 0
1, 48992, Note_on_c, 0, 69, 90
1, 48992, Note_on_c, 1, 51, 83
1, 49022, Note_on_c, 0, 69, 0
1, 49022, Note_on_c, 1, 51, 0
1, 49024, Note_on_c, 0, 63, 91
1, 49024, Note_on_c, 1, 57, 84
1, 49054, Note_on_c, 0, 63, 0
1, 49054, Note_on_c, 1, 57, 0
1, 49056, Note_on_c, 0, 73, 92
1, 49056, Note_on_c, 1, 49, 85
1, 49079, Note_on_c, 0, 73, 0
1, 49079, Note_on_c, 1, 49, 0
1, 49080, Note_on_c, 0, 67, 94
1, 49080, Note_on_c, 1, 52, 86
1, 49103, Note_on_c, 0, 67, 0
1, 49103, Note_on_c, 1, 52, 0
1, 49104, Note_on_c, 0, 64, 94
1, 49104, Note_on_c, 1, 55, 86
1, 49127, Note_on_c, 0, 64, 0
1, 49127, Note_on_c, 1, 55, 0
1, 49128, Note_on_c, 0, 67, 94
1, 49128, Note_on_c, 1, 52, 86
1, 49151, Note_on_c, 0, 67, 0
1, 49151, Note_on_c, 1, 52, 0
1, 49152, Note_on_c, 0, 73, 94
1, 49152, Note_on_c, 1, 49, 86
1, 49175, Note_on_c, 0, 73, 0
1, 49175, Note_on_c, 1, 49, 0
1, 49176, Note_on_c, 0, 67, 94
1, 49176, Note_on_c, 1, 52, 86
1, 49199, Note_on_c, 0, 67, 0
1, 49199, Note_on_c, 1, 52, 0
1, 49200, Note_on_c, 0, 64, 94
1, 49200, Note_on_c, 1, 55, 86
1, 49223, Note_on_c, 0, 64, 0
1, 49223, Note_on_c, 1, 55, 0
1, 49224, Note_on_c, 0, 67, 94
1, 49224, Note_on_c, 1, 52, 86
1, 49247, Note_on_c, 0, 67, 0
1, 49247, Note_on_c, 1, 52, 0
1, 49248, Note_on_c, 0, 74, 94
1, 49248, Note_on_c, 1, 50, 86
1, 49293, Note_on_c, 0, 74, 0
1, 49296, Note_on_c, 0, 62, 94
1, 49337, Note_on_c, 1, 50, 0
1, 49341, Note_on_c, 0, 62, 0
1, 49632, Note_on_c, 0, 75, 70
1, 49632, Note_on_c, 0, 72, 70
1, 49680, Note_on_c, 1, 69, 64
1, 49725, Note_on_c, 1, 69, 0
1, 49728, Note_on_c, 1, 66, 64
1, 49773, Note_on_c, 1, 66, 0
1, 49776, Note_on_c, 1, 69, 64
1, 49809, Note_on_c, 0, 75, 0
1, 49809, Note_on_c, 0, 72, 0
1, 49821, Note_on_c, 1, 69, 0
1, 49824, Note_on_c, 0, 74, 70
1, 49824, Note_on_c, 0, 72, 70
1, 49872, Note_on_c, 1, 69, 64
1, 49917, Note_on_c, 1, 69, 0
1, 49920, Note_on_c, 1, 66, 64
1, 49965, Note_on_c, 1, 66, 0
1, 49968, Note_on_c, 1, 69, 64
1, 50001, Note_on_c, 0, 74, 0
1, 50001, Note_on_c, 0, 72, 0
1, 50013, Note_on_c, 1, 69, 0
1, 50016, Note_on_c, 0, 74, 70
1, 50016, Note_on_c, 0, 72, 70
1, 50064, Note_on_c, 1, 69, 64
1, 50109, Note_on_c, 1, 69, 0
1, 50112, Note_on_c, 1, 66, 64
1, 50157, Note_on_c, 1, 66, 0
1, 50160, Note_on_c, 1, 69, 64
1, 50193, Note_on_c, 0, 74, 0
1, 50193, Note_on_c, 0, 72, 0
1, 50205, Note_on_c, 1, 69, 0
1, 50208, Note_on_c, 0, 74, 70
1, 50208, Note_on_c, 0, 70, 70
1, 50208, Note_on_c, 1, 67, 64
1, 50255, Note_on_c, 0, 74, 0
1, 50255, Note_on_c, 0, 70, 0
1, 50255, Note_on_c, 1, 67, 0
1, 50256, Note_on_c, 0, 70, 71
1, 50256, Note_on_c, 1, 67, 64
1, 50301, Note_on_c, 0, 70, 0
1, 50301, Note_on_c, 1, 67, 0
1, 50304, Note_on_c, 0, 69, 72
1, 50304, Note_on_c, 1, 66, 64
1, 50349, Note_on_c, 0, 69, 0
1, 50349, Note_on_c, 1, 66, 0
1, 50352, Note_on_c, 0, 70, 73
1, 50352, Note_on_c, 1, 67, 64
1, 50397, Note_on_c, 0, 70, 0
1, 50397, Note_on_c, 1, 67, 0
1, 50400, Note_on_c, 0, 82, 75
1, 50400, Note_on_c, 0, 79, 75
1, 50448, Note_on_c, 1, 76, 64
1, 50493, Note_on_c, 1, 76, 0
1, 50496, Note_on_c, 1, 73, 64
1, 50541, Note_on_c, 1, 73, 0
1, 50544, Note_on_c, 1, 76, 64
1, 50577, Note_on_c, 0, 82, 0
1, 50577, Note_on_c, 0, 79, 0
1, 50589, Note_on_c, 1, 76, 0
1, 50592, Note_on_c, 0, 81, 71
1, 50592, Note_on_c, 0, 79, 71
1, 50592, Note_on_c, 1, 73, 64
1, 50681, Note_on_c, 0, 81, 0
1, 50681, Note_on_c, 0, 79, 0
1, 50681, Note_on_c, 1, 73, 0
1, 50736, Note_on_c, 0, 74, 80
1, 50756, Note_on_c, 0, 74, 0
1, 50784, Note_on_c, 0, 74, 96
1, 50832, Note_on_c, 0, 74, 0
1, 50832, Note_on_c, 0, 76, 80
1, 50847, Note_on_c, 0, 76, 0
1, 50848, Note_on_c, 0, 74, 80
1, 50863, Note_on_c, 0, 74, 0
1, 50864, Note_on_c, 0, 73, 80
1, 50879, Note_on_c, 0, 73, 0
1, 50880, Note_on_c, 0, 74, 80
1, 50925, Note_on_c, 0, 74, 0
1, 50928, Note_on_c, 0, 77, 80
1, 50948, Note_on_c, 0, 77, 0
1, 50976, Note_on_c, 0, 69, 96
1, 50976, Note_on_c, 1, 57, 96
1, 51024, Note_on_c, 0, 69, 0
1, 51024, Note_on_c, 0, 70, 80
1, 51024, Note_on_c, 1, 57, 0
1, 51024, Note_on_c, 1, 58, 80
1, 51039, Note_on_c, 0, 70, 0
1, 51039, Note_on_c, 1, 58, 0
1, 51040, Note_on_c, 0, 69, 80
1, 51040, Note_on_c, 1, 57, 80
1, 51055, Note_on_c, 0, 69, 0
1, 51055, Note_on_c, 1, 57, 0
1, 51056, Note_on_c, 0, 67, 80
1, 51056, Note_on_c, 1, 55, 80
1, 51071, Note_on_c, 0, 67, 0
1, 51071, Note_on_c, 1, 55, 0
1, 51072, Note_on_c, 0, 69, 80
1, 51072, Note_on_c, 1, 57, 80
1, 51117, Note_on_c, 0, 69, 0
1, 51117, Note_on_c, 1, 57, 0
1, 51120, Note_on_c, 0, 74, 80
1, 51120, Note_on_c, 1, 62, 80
1, 51140, Note_on_c, 0, 74, 0
1, 51140, Note_on_c, 1, 62, 0
1, 51168, Note_on_c, 0, 65, 96
1, 51168, Note_on_c, 1, 53, 96
1, 51216, Note_on_c, 0, 65, 0
1, 51216, Note_on_c, 0, 67, 80
1, 51216, Note_on_c, 1, 53, 0
1, 51216, Note_on_c, 1, 55, 80
1, 51231, Note_on_c, 0, 67, 0
1, 51231, Note_on_c, 1, 55, 0
1, 51232, Note_on_c, 0, 65, 80
1, 51232, Note_on_c, 1, 53, 80
1, 51247, Note_on_c, 0, 65, 0
1, 51247, Note_on_c, 1, 53, 0
1, 51248, Note_on_c, 0, 64, 80
1, 51248, Note_on_c, 1, 52, 80
1, 51263, Note_on_c, 0, 64, 0
1, 51263, Note_on_c, 1, 52, 0
1, 51264, Note_on_c, 0, 65, 80
1, 51264, Note_on_c, 1, 53, 80
1, 51309, Note_on_c, 0, 65, 0
1, 51309, Note_on_c, 1, 53, 0
1, 51312, Note_on_c, 0, 69, 80
1, 51312, Note_on_c, 1, 57, 80
1, 51332, Note_on_c, 1, 57, 0
1, 51357, Note_on_c, 0, 69, 0
1, 51360, Note_on_c, 0, 69, 96
1, 51360, Note_on_c, 1, 57, 96
1, 51408, Note_on_c, 0, 69, 0
1, 51408, Note_on_c, 0, 62, 80
1, 51453, Note_on_c, 0, 62, 0
1, 51456, Note_on_c, 0, 70, 80
1, 51456, Note_on_c, 1, 57, 0
1, 51501, Note_on_c, 0, 70, 0
1, 51504, Note_on_c, 0, 69, 80
1, 51549, Note_on_c, 0, 69, 0
1, 51552, Note_on_c, 0, 67, 80
1, 51552, Note_on_c, 0, 64, 80
1, 51552, Note_on_c, 1, 45, 80
1, 51552, Note_on_c, 1, 33, 80
1, 51597, Note_on_c, 0, 67, 0
1, 51597, Note_on_c, 0, 64, 0
1, 51600, Note_on_c, 0, 65, 80
1, 51600, Note_on_c, 0, 62, 80
1, 51645, Note_on_c, 0, 65, 0
1, 51645, Note_on_c, 0, 62, 0
1, 51648, Note_on_c, 0, 64, 81
1, 51648, Note_on_c, 0, 61, 81
1, 51693, Note_on_c, 0, 64, 0
1, 51693, Note_on_c, 0, 61, 0
1, 51696, Note_on_c, 0, 62, 82
1, 51696, Note_on_c, 0, 58, 82
1, 51741, Note_on_c, 0, 62, 0
1, 51741, Note_on_c, 0, 58, 0
1, 51744, Note_on_c, 0, 61, 83
1, 51744, Note_on_c, 0, 57, 83
1, 51789, Note_on_c, 0, 61, 0
1, 51789, Note_on_c, 0, 57, 0
1, 51792, Note_on_c, 0, 58, 83
1, 51792, Note_on_c, 0, 55, 83
1, 51837, Note_on_c, 0, 58, 0
1, 51837, Note_on_c, 0, 55, 0
1, 51840, Note_on_c, 0, 57, 84
1, 51840, Note_on_c, 0, 53, 84
1, 51885, Note_on_c, 0, 57, 0
1, 51885, Note_on_c, 0, 53, 0
1, 51888, Note_on_c, 0, 55, 85
1, 51888, Note_on_c, 0, 52, 85
1, 51906, Note_on_c, 1, 45, 0
1, 51906, Note_on_c, 1, 33, 0
1, 51933, Note_on_c, 0, 55, 0
1, 51933, Note_on_c, 0, 52, 0
1, 51936, Note_on_c, 0, 53, 86
1, 51936, Note_on_c, 0, 50, 86
1, 51936, Note_on_c, 1, 46, 86
1, 51936, Note_on_c, 1, 34, 86
1, 51975, Note_on_c, 0, 53, 0
1, 51975, Note_on_c, 0, 50, 0
1, 51975, Note_on_c, 1, 46, 0
1, 51975, Note_on_c, 1, 34, 0
1, 52128, Note_on_c, 0, 65, 86
1, 52128, Note_on_c, 0, 62, 86
1, 52128, Note_on_c, 0, 59, 86
1, 52128, Note_on_c, 1, 56, 86
1, 52128, Note_on_c, 1, 44, 86
1, 52167, Note_on_c, 0, 65, 0
1, 52167, Note_on_c, 0, 62, 0
1, 52167, Note_on_c, 0, 59, 0
1, 52167, Note_on_c, 1, 56, 0
1, 52167, Note_on_c, 1, 44, 0
1, 52320, Note_on_c, 0, 64, 86
1, 52320, Note_on_c, 0, 62, 86
1, 52320, Note_on_c, 1, 57, 86
1, 52320, Note_on_c, 1, 45, 86
1, 52359, Note_on_c, 0, 64, 0
1, 52359, Note_on_c, 0, 62, 0
1, 52359, Note_on_c, 1, 57, 0
1, 52359, Note_on_c, 1, 45, 0
1, 52512, Note_on_c, 0, 69, 86
1, 52512, Note_on_c, 0, 64, 86
1, 52512, Note_on_c, 0, 61, 86
1, 52512, Note_on_c, 1, 57, 86
1, 52512, Note_on_c, 1, 45, 86
1, 52601, Note_on_c, 0, 69, 0
1, 52601, Note_on_c, 0, 64, 0
1, 52601, Note_on_c, 0, 61, 0
1, 52601, Note_on_c, 1, 57, 0
1, 52601, Note_on_c, 1, 45, 0
1, 52704, Note_on_c, 1, 50, 86
1, 52704, Note_on_c, 1, 38, 86
1, 52752, Note_on_c, 0, 61, 75
1, 52793, Note_on_c, 1, 50, 0
1, 52793, Note_on_c, 1, 38, 0
1, 52797, Note_on_c, 0, 61, 0
1, 52800, Note_on_c, 0, 62, 74
1, 52845, Note_on_c, 0, 62, 0
1, 52848, Note_on_c, 0, 61, 73
1, 52893, Note_on_c, 0, 61, 0
1, 52896, Note_on_c, 0, 62, 73
1, 52941, Note_on_c, 0, 62, 0
1, 52944, Note_on_c, 0, 64, 72
1, 52944, Note_on_c, 0, 61, 72
1, 52989, Note_on_c, 0, 64, 0
1, 52989, Note_on_c, 0, 61, 0
1, 52992, Note_on_c, 0, 65, 72
1, 52992, Note_on_c, 0, 62, 72
1, 53037, Note_on_c, 0, 65, 0
1, 53037, Note_on_c, 0, 62, 0
1, 53040, Note_on_c, 0, 64, 71
1, 53040, Note_on_c, 0, 61, 71
1, 53085, Note_on_c, 0, 64, 0
1, 53085, Note_on_c, 0, 61, 0
1, 53088, Note_on_c, 0, 65, 71
1, 53088, Note_on_c, 0, 62, 71
1, 53088, Note_on_c, 1, 50, 86
1, 53088, Note_on_c, 1, 38, 86
1, 53133, Note_on_c, 0, 65, 0
1, 53133, Note_on_c, 0, 62, 0
1, 53136, Note_on_c, 0, 73, 70
1, 53136, Note_on_c, 0, 64, 70
1, 53177, Note_on_c, 1, 50, 0
1, 53177, Note_on_c, 1, 38, 0
1, 53181, Note_on_c, 0, 73, 0
1, 53181, Note_on_c, 0, 64, 0
1, 53184, Note_on_c, 0, 74, 70
1, 53184, Note_on_c, 0, 65, 70
1, 53229, Note_on_c, 0, 74, 0
1, 53229, Note_on_c, 0, 65, 0
1, 53232, Note_on_c, 0, 73, 69
1, 53232, Note_on_c, 0, 64, 69
1, 53277, Note_on_c, 0, 73, 0
1, 53277, Note_on_c, 0, 64, 0
1, 53280, Note_on_c, 0, 74, 69
1, 53280, Note_on_c, 0, 65, 69
1, 53325, Note_on_c, 0, 74, 0
1, 53325, Note_on_c, 0, 65, 0
1, 53328, Note_on_c, 0, 76, 68
1, 53328, Note_on_c, 0, 73, 68
1, 53373, Note_on_c, 0, 76, 0
1, 53373, Note_on_c, 0, 73, 0
1, 53376, Note_on_c, 0, 77, 68
1, 53376, Note_on_c, 0, 74, 68
1, 53421, Note_on_c, 0, 77, 0
1, 53421, Note_on_c, 0, 74, 0
1, 53424, Note_on_c, 0, 76, 67
1, 53424, Note_on_c, 0, 73, 67
1, 53469, Note_on_c, 0, 76, 0
1, 53469, Note_on_c, 0, 73, 0
1, 53472, Note_on_c, 0, 77, 67
1, 53472, Note_on_c, 0, 74, 67
1, 53517, Note_on_c, 0, 77, 0
1, 53517, Note_on_c, 0, 74, 0
1, 53520, Note_on_c, 0, 85, 66
1, 53520, Note_on_c, 0, 76, 66
1, 53565, Note_on_c, 0, 85, 0
1, 53565, Note_on_c, 0, 76, 0
1, 53568, Note_on_c, 0, 86, 66
1, 53568, Note_on_c, 0, 77, 66
1, 53613, Note_on_c, 0, 86, 0
1, 53613, Note_on_c, 0, 77, 0
1, 53616, Note_on_c, 0, 85, 65
1, 53616, Note_on_c, 0, 76, 65
1, 53661, Note_on_c, 0, 85, 0
1, 53661, Note_on_c, 0, 76, 0
1, 53664, Note_on_c, 0, 86, 65
1, 53664, Note_on_c, 0, 77, 65
1, 53753, Note_on_c, 0, 86, 0
1, 53753, Note_on_c, 0, 77, 0
1, 53808, Note_on_c, 0, 82, 64
1, 53828, Note_on_c, 0, 82, 0
1, 53856, Note_on_c, 0, 82, 64
1, 53856, Note_on_c, 0, 79, 64
1, 53856, Note_on_c, 0, 76, 64
1, 53856, Note_on_c, 0, 73, 64
1, 54144, Note_on_c, 0, 82, 0
1, 54144, Note_on_c, 0, 79, 0
1, 54144, Note_on_c, 0, 76, 0
1, 54144, Note_on_c, 0, 73, 0
1, 54144, Note_on_c, 0, 81, 64
1, 54144, Note_on_c, 0, 77, 64
1, 54144, Note_on_c, 0, 74, 64
1, 54505, Note_on_c, 0, 81, 0
1, 54505, Note_on_c, 0, 77, 0
1, 54505, Note_on_c, 0, 74, 0
1, 54624, Note_on_c, 0, 69, 80
1, 54624, Note_on_c, 1, 54, 80
1, 54624, Note_on_c, 1, 42, 80
1, 54647, Note_on_c, 0, 69, 0
1, 54648, Note_on_c, 0, 72, 80
1, 54671, Note_on_c, 0, 72, 0
1, 54672, Note_on_c, 0, 75, 80
1, 54695, Note_on_c, 0, 75, 0
1, 54696, Note_on_c, 0, 78, 80
1, 54719, Note_on_c, 0, 78, 0
1, 54720, Note_on_c, 0, 75, 80
1, 54743, Note_on_c, 0, 75, 0
1, 54744, Note_on_c, 0, 78, 80
1, 54767, Note_on_c, 0, 78, 0
1, 54768, Note_on_c, 0, 81, 80
1, 54791, Note_on_c, 0, 81, 0
1, 54792, Note_on_c, 0, 84, 80
1, 54815, Note_on_c, 0, 84, 0
1, 54816, Note_on_c, 0, 82, 80
1, 54816, Note_on_c, 0, 81, 80
1, 54816, Note_on_c, 1, 54, 0
1, 54816, Note_on_c, 1, 42, 0
1, 54816, Note_on_c, 1, 55, 80
1, 54816, Note_on_c, 1, 43, 80
1, 54864, Note_on_c, 0, 81, 0
1, 54864, Note_on_c, 0, 79, 80
1, 54905, Note_on_c, 1, 55, 0
1, 54905, Note_on_c, 1, 43, 0
1, 54909, Note_on_c, 0, 82, 0
1, 54909, Note_on_c, 0, 79, 0
1, 55008, Note_on_c, 0, 66, 70
1, 55008, Note_on_c, 1, 60, 75
1, 55038, Note_on_c, 0, 66, 0
1, 55040, Note_on_c, 0, 69, 70
1, 55070, Note_on_c, 0, 69, 0
1, 55072, Note_on_c, 0, 72, 70
1, 55102, Note_on_c, 0, 72, 0
1, 55104, Note_on_c, 0, 69, 70
1, 55134, Note_on_c, 0, 69, 0
1, 55136, Note_on_c, 0, 72, 70
1, 55166, Note_on_c, 0, 72, 0
1, 55168, Note_on_c, 0, 75, 70
1, 55185, Note_on_c, 1, 60, 0
1, 55198, Note_on_c, 0, 75, 0
1, 55200, Note_on_c, 0, 69, 70
1, 55200, Note_on_c, 1, 54, 75
1, 55230, Note_on_c, 0, 69, 0
1, 55232, Note_on_c, 0, 72, 70
1, 55262, Note_on_c, 0, 72, 0
1, 55264, Note_on_c, 0, 75, 70
1, 55289, Note_on_c, 1, 54, 0
1, 55294, Note_on_c, 0, 75, 0
1, 55296, Note_on_c, 0, 69, 70
1, 55296, Note_on_c, 1, 55, 75
1, 55326, Note_on_c, 0, 69, 0
1, 55328, Note_on_c, 0, 70, 70
1, 55358, Note_on_c, 0, 70, 0
1, 55360, Note_on_c, 0, 72, 70
1, 55385, Note_on_c, 1, 55, 0
1, 55390, Note_on_c, 0, 72, 0
1, 55392, Note_on_c, 0, 66, 70
1, 55392, Note_on_c, 1, 63, 91
1, 55422, Note_on_c, 0, 66, 0
1, 55424, Note_on_c, 0, 69, 70
1, 55454, Note_on_c, 0, 69, 0
1, 55456, Note_on_c, 0, 72, 70
1, 55486, Note_on_c, 0, 72, 0
1, 55488, Note_on_c, 0, 66, 70
1, 55518, Note_on_c, 0, 66, 0
1, 55520, Note_on_c, 0, 69, 70
1, 55536, Note_on_c, 1, 63, 0
1, 55536, Note_on_c, 1, 60, 75
1, 55550, Note_on_c, 0, 69, 0
1, 55552, Note_on_c, 0, 72, 70
1, 55581, Note_on_c, 1, 60, 0
1, 55582, Note_on_c, 0, 72, 0
1, 55584, Note_on_c, 0, 67, 70
1, 55584, Note_on_c, 1, 62, 75
1, 55614, Note_on_c, 0, 67, 0
1, 55616, Note_on_c, 0, 70, 70
1, 55646, Note_on_c, 0, 70, 0
1, 55648, Note_on_c, 0, 74, 70
1, 55673, Note_on_c, 1, 62, 0
1, 55678, Note_on_c, 0, 74, 0
1, 55680, Note_on_c, 0, 78, 70
1, 55710, Note_on_c, 0, 78, 0
1, 55712, Note_on_c, 0, 79, 70
1, 55742, Note_on_c, 0, 79, 0
1, 55744, Note_on_c, 0, 81, 70
1, 55774, Note_on_c, 0, 81, 0
1, 55776, Note_on_c, 0, 82, 70
1, 55776, Note_on_c, 1, 50, 96
1, 55806, Note_on_c, 0, 82, 0
1, 55808, Note_on_c, 0, 86, 70
1, 55838, Note_on_c, 0, 86, 0
1, 55840, Note_on_c, 0, 84, 70
1, 55870, Note_on_c, 0, 84, 0
1, 55872, Note_on_c, 0, 82, 70
1, 55902, Note_on_c, 0, 82, 0
1, 55904, Note_on_c, 0, 81, 70
1, 55934, Note_on_c, 0, 81, 0
1, 55936, Note_on_c, 0, 79, 70
1, 55966, Note_on_c, 0, 79, 0
1, 55968, Note_on_c, 0, 78, 70
1, 55968, Note_on_c, 1, 50, 0
1, 55968, Note_on_c, 1, 48, 80
1, 55998, Note_on_c, 0, 78, 0
1, 56000, Note_on_c, 0, 75, 70
1, 56013, Note_on_c, 1, 48, 0
1, 56016, Note_on_c, 1, 46, 80
1, 56030, Note_on_c, 0, 75, 0
1, 56032, Note_on_c, 0, 74, 70
1, 56061, Note_on_c, 1, 46, 0
1, 56062, Note_on_c, 0, 74, 0
1, 56064, Note_on_c, 0, 72, 70
1, 56064, Note_on_c, 1, 45, 80
1, 56094, Note_on_c, 0, 72, 0
1, 56096, Note_on_c, 0, 70, 70
1, 56109, Note_on_c, 1, 45, 0
1, 56112, Note_on_c, 1, 43, 80
1, 56126, Note_on_c, 0, 70, 0
1, 56128, Note_on_c, 0, 69, 70
1, 56157, Note_on_c, 1, 43, 0
1, 56158, Note_on_c, 0, 69, 0
1, 56160, Note_on_c, 0, 70, 70
1, 56160, Note_on_c, 1, 43, 96
1, 56190, Note_on_c, 0, 70, 0
1, 56192, Note_on_c, 0, 66, 70
1, 56224, Note_on_c, 0, 66, 0
1, 56224, Note_on_c, 0, 67, 70
1, 56254, Note_on_c, 0, 67, 0
1, 56256, Note_on_c, 0, 72, 70
1, 56286, Note_on_c, 0, 72, 0
1, 56288, Note_on_c, 0, 66, 70
1, 56320, Note_on_c, 0, 66, 0
1, 56320, Note_on_c, 0, 67, 70
1, 56350, Note_on_c, 0, 67, 0
1, 56352, Note_on_c, 0, 75, 86
1, 56352, Note_on_c, 1, 43, 0
1, 56352, Note_on_c, 1, 42, 80
1, 56384, Note_on_c, 0, 75, 0
1, 56384, Note_on_c, 0, 74, 70
1, 56414, Note_on_c, 0, 74, 0
1, 56416, Note_on_c, 0, 72, 70
1, 56441, Note_on_c, 1, 42, 0
1, 56446, Note_on_c, 0, 72, 0
1, 56448, Note_on_c, 0, 70, 70
1, 56478, Note_on_c, 0, 70, 0
1, 56480, Note_on_c, 0, 69, 70
1, 56510, Note_on_c, 0, 69, 0
1, 56512, Note_on_c, 0, 67, 70
1, 56542, Note_on_c, 0, 67, 0
1, 56544, Note_on_c, 0, 68, 70
1, 56544, Note_on_c, 1, 60, 91
1, 56574, Note_on_c, 0, 68, 0
1, 56576, Note_on_c, 0, 64, 70
1, 56608, Note_on_c, 0, 64, 0
1, 56608, Note_on_c, 0, 65, 70
1, 56638, Note_on_c, 0, 65, 0
1, 56640, Note_on_c, 0, 70, 70
1, 56670, Note_on_c, 0, 70, 0
1, 56672, Note_on_c, 0, 64, 70
1, 56704, Note_on_c, 0, 64, 0
1, 56704, Note_on_c, 0, 65, 70
1, 56734, Note_on_c, 0, 65, 0
1, 56736, Note_on_c, 0, 73, 86
1, 56736, Note_on_c, 1, 60, 0
1, 56736, Note_on_c, 1, 52, 75
1, 56768, Note_on_c, 0, 73, 0
1, 56768, Note_on_c, 0, 72, 70
1, 56798, Note_on_c, 0, 72, 0
1, 56800, Note_on_c, 0, 70, 70
1, 56825, Note_on_c, 1, 52, 0
1, 56830, Note_on_c, 0, 70, 0
1, 56832, Note_on_c, 0, 68, 70
1, 56832, Note_on_c, 1, 53, 75
1, 56862, Note_on_c, 0, 68, 0
1, 56864, Note_on_c, 0, 67, 70
1, 56894, Note_on_c, 0, 67, 0
1, 56896, Note_on_c, 0, 65, 70
1, 56921, Note_on_c, 1, 53, 0
1, 56926, Note_on_c, 0, 65, 0
1, 56928, Note_on_c, 1, 61, 75
1, 56976, Note_on_c, 0, 82, 75
1, 56976, Note_on_c, 0, 79, 75
1, 56996, Note_on_c, 0, 82, 0
1, 56996, Note_on_c, 0, 79, 0
1, 57024, Note_on_c, 0, 82, 75
1, 57024, Note_on_c, 0, 79, 75
1, 57061, Note_on_c, 1, 61, 0
1, 57069, Note_on_c, 0, 82, 0
1, 57069, Note_on_c, 0, 79, 0
1, 57072, Note_on_c, 0, 80, 75
1, 57072, Note_on_c, 0, 77, 75
1, 57072, Note_on_c, 1, 58, 75
1, 57117, Note_on_c, 0, 80, 0
1, 57117, Note_on_c, 0, 77, 0
1, 57117, Note_on_c, 1, 58, 0
1, 57120, Note_on_c, 0, 79, 75
1, 57120, Note_on_c, 0, 76, 75
1, 57120, Note_on_c, 1, 60, 75
1, 57168, Note_on_c, 0, 79, 0
1, 57168, Note_on_c, 0, 76, 0
1, 57168, Note_on_c, 0, 77, 75
1, 57168, Note_on_c, 0, 73, 75
1, 57209, Note_on_c, 1, 60, 0
1, 57213, Note_on_c, 0, 77, 0
1, 57213, Note_on_c, 0, 73, 0
1, 57216, Note_on_c, 0, 76, 75
1, 57216, Note_on_c, 0, 72, 75
1, 57264, Note_on_c, 0, 76, 0
1, 57264, Note_on_c, 0, 72, 0
1, 57264, Note_on_c, 0, 73, 75
1, 57264, Note_on_c, 0, 70, 75
1, 57309, Note_on_c, 0, 73, 0
1, 57309, Note_on_c, 0, 70, 0
1, 57312, Note_on_c, 0, 73, 75
1, 57312, Note_on_c, 0, 70, 75
1, 57312, Note_on_c, 1, 48, 96
1, 57360, Note_on_c, 0, 73, 0
1, 57360, Note_on_c, 0, 70, 0
1, 57360, Note_on_c, 0, 72, 74
1, 57360, Note_on_c, 0, 68, 74
1, 57405, Note_on_c, 0, 72, 0
1, 57405, Note_on_c, 0, 68, 0
1, 57408, Note_on_c, 0, 70, 73
1, 57408, Note_on_c, 0, 67, 73
1, 57456, Note_on_c, 0, 70, 0
1, 57456, Note_on_c, 0, 67, 0
1, 57456, Note_on_c, 0, 68, 73
1, 57456, Note_on_c, 0, 65, 73
1, 57501, Note_on_c, 0, 68, 0
1, 57501, Note_on_c, 0, 65, 0
1, 57504, Note_on_c, 0, 67, 72
1, 57504, Note_on_c, 0, 64, 72
1, 57504, Note_on_c, 1, 48, 0
1, 57504, Note_on_c, 1, 46, 80
1, 57549, Note_on_c, 0, 67, 0
1, 57549, Note_on_c, 0, 64, 0
1, 57549, Note_on_c, 1, 46, 0
1, 57552, Note_on_c, 0, 68, 71
1, 57552, Note_on_c, 0, 65, 71
1, 57552, Note_on_c, 1, 44, 80
1, 57597, Note_on_c, 0, 68, 0
1, 57597, Note_on_c, 0, 65, 0
1, 57597, Note_on_c, 1, 44, 0
1, 57600, Note_on_c, 0, 70, 71
1, 57600, Note_on_c, 0, 67, 71
1, 57600, Note_on_c, 1, 43, 80
1, 57645, Note_on_c, 0, 70, 0
1, 57645, Note_on_c, 0, 67, 0
1, 57645, Note_on_c, 1, 43, 0
1, 57648, Note_on_c, 0, 73, 70
1, 57648, Note_on_c, 0, 70, 70
1, 57648, Note_on_c, 1, 41, 80
1, 57693, Note_on_c, 0, 73, 0
1, 57693, Note_on_c, 0, 70, 0
1, 57693, Note_on_c, 1, 41, 0
1, 57696, Note_on_c, 0, 73, 70
1, 57696, Note_on_c, 0, 70, 64
1, 57696, Note_on_c, 1, 41, 96
1, 57741, Note_on_c, 0, 73, 0
1, 57744, Note_on_c, 0, 76, 69
1, 57789, Note_on_c, 0, 76, 0
1, 57792, Note_on_c, 0, 79, 68
1, 57837, Note_on_c, 0, 79, 0
1, 57840, Note_on_c, 0, 73, 67
1, 57873, Note_on_c, 0, 70, 0
1, 57885, Note_on_c, 0, 73, 0
1, 57888, Note_on_c, 0, 72, 67
1, 57888, Note_on_c, 0, 70, 64
1, 57888, Note_on_c, 1, 41, 0
1, 57888, Note_on_c, 1, 40, 80
1, 57933, Note_on_c, 0, 72, 0
1, 57936, Note_on_c, 0, 76, 66
1, 57977, Note_on_c, 0, 70, 0
1, 57977, Note_on_c, 1, 40, 0
1, 57981, Note_on_c, 0, 76, 0
1, 57984, Note_on_c, 0, 79, 65
1, 58029, Note_on_c, 0, 79, 0
1, 58032, Note_on_c, 0, 70, 64
1, 58077, Note_on_c, 0, 70, 0
1, 58080, Note_on_c, 0, 65, 64
1, 58080, Note_on_c, 1, 37, 96
1, 58125, Note_on_c, 0, 65, 0
1, 58128, Note_on_c, 0, 67, 64
1, 58173, Note_on_c, 0, 67, 0
1, 58176, Note_on_c, 0, 68, 64
1, 58221, Note_on_c, 0, 68, 0
1, 58224, Note_on_c, 0, 65, 64
1, 58269, Note_on_c, 0, 65, 0
1, 58272, Note_on_c, 0, 71, 64
1, 58317, Note_on_c, 0, 71, 0
1, 58320, Note_on_c, 0, 68, 64
1, 58365, Note_on_c, 0, 68, 0
1, 58368, Note_on_c, 0, 67, 64
1, 58413, Note_on_c, 0, 67, 0
1, 58416, Note_on_c, 0, 65, 64
1, 58461, Note_on_c, 0, 65, 0
1, 58464, Note_on_c, 0, 72, 75
1, 58464, Note_on_c, 0, 67, 75
1, 58464, Note_on_c, 0, 64, 75
1, 58464, Note_on_c, 1, 37, 0
1, 58464, Note_on_c, 1, 36, 70
1, 58487, Note_on_c, 1, 36, 0
1, 58488, Note_on_c, 1, 40, 70
1, 58511, Note_on_c, 1, 40, 0
1, 58512, Note_on_c, 1, 43, 70
1, 58535, Note_on_c, 1, 43, 0
1, 58536, Note_on_c, 1, 40, 70
1, 58559, Note_on_c, 1, 40, 0
1, 58560, Note_on_c, 1, 36, 70
1, 58583, Note_on_c, 1, 36, 0
1, 58584, Note_on_c, 1, 40, 70
1, 58607, Note_on_c, 1, 40, 0
1, 58608, Note_on_c, 1, 43, 70
1, 58631, Note_on_c, 1, 43, 0
1, 58632, Note_on_c, 1, 40, 70
1, 58641, Note_on_c, 0, 72, 0
1, 58641, Note_on_c, 0, 67, 0
1, 58641, Note_on_c, 0, 64, 0
1, 58655, Note_on_c, 1, 40, 0
1, 58656, Note_on_c, 0, 64, 75
1, 58656, Note_on_c, 1, 36, 70
1, 58679, Note_on_c, 1, 36, 0
1, 58680, Note_on_c, 1, 40, 70
1, 58703, Note_on_c, 1, 40, 0
1, 58704, Note_on_c, 1, 43, 70
1, 58727, Note_on_c, 1, 43, 0
1, 58728, Note_on_c, 1, 40, 70
1, 58745, Note_on_c, 0, 64, 0
1, 58751, Note_on_c, 1, 40, 0
1, 58752, Note_on_c, 0, 65, 75
1, 58752, Note_on_c, 1, 36, 70
1, 58775, Note_on_c, 1, 36, 0
1, 58776, Note_on_c, 1, 41, 70
1, 58799, Note_on_c, 1, 41, 0
1, 58800, Note_on_c, 1, 44, 70
1, 58823, Note_on_c, 1, 44, 0
1, 58824, Note_on_c, 1, 41, 70
1, 58841, Note_on_c, 0, 65, 0
1, 58847, Note_on_c, 1, 41, 0
1, 58848, Note_on_c, 0, 73, 75
1, 58848, Note_on_c, 0, 72, 64
1, 58848, Note_on_c, 1, 36, 70
1, 58871, Note_on_c, 1, 36, 0
1, 58872, Note_on_c, 1, 40, 70
1, 58895, Note_on_c, 1, 40, 0
1, 58896, Note_on_c, 1, 43, 70
1, 58919, Note_on_c, 1, 43, 0
1, 58920, Note_on_c, 1, 40, 70
1, 58943, Note_on_c, 1, 40, 0
1, 58944, Note_on_c, 1, 36, 70
1, 58967, Note_on_c, 1, 36, 0
1, 58968, Note_on_c, 1, 40, 70
1, 58981, Note_on_c, 0, 73, 0
1, 58991, Note_on_c, 1, 40, 0
1, 58992, Note_on_c, 0, 70, 75
1, 58992, Note_on_c, 1, 43, 70
1, 59015, Note_on_c, 1, 43, 0
1, 59016, Note_on_c, 1, 40, 70
1, 59025, Note_on_c, 0, 72, 0
1, 59037, Note_on_c, 0, 70, 0
1, 59039, Note_on_c, 1, 40, 0
1, 59040, Note_on_c, 0, 72, 75
1, 59040, Note_on_c, 0, 64, 64
1, 59040, Note_on_c, 1, 36, 70
1, 59063, Note_on_c, 1, 36, 0
1, 59064, Note_on_c, 1, 40, 70
1, 59087, Note_on_c, 1, 40, 0
1, 59088, Note_on_c, 1, 43, 70
1, 59111, Note_on_c, 1, 43, 0
1, 59112, Note_on_c, 1, 40, 70
1, 59129, Note_on_c, 0, 72, 0
1, 59129, Note_on_c, 0, 64, 0
1, 59135, Note_on_c, 1, 40, 0
1, 59136, Note_on_c, 0, 65, 64
1, 59136, Note_on_c, 1, 36, 70
1, 59159, Note_on_c, 1, 36, 0
1, 59160, Note_on_c, 1, 41, 70
1, 59183, Note_on_c, 1, 41, 0
1, 59184, Note_on_c, 1, 44, 70
1, 59207, Note_on_c, 1, 44, 0
1, 59208, Note_on_c, 1, 41, 70
1, 59225, Note_on_c, 0, 65, 0
1, 59231, Note_on_c, 1, 41, 0
1, 59232, Note_on_c, 0, 82, 75
1, 59232, Note_on_c, 0, 73, 64
1, 59232, Note_on_c, 1, 40, 70
1, 59255, Note_on_c, 1, 40, 0
1, 59256, Note_on_c, 1, 43, 70
1, 59279, Note_on_c, 1, 43, 0
1, 59280, Note_on_c, 1, 46, 70
1, 59303, Note_on_c, 1, 46, 0
1, 59304, Note_on_c, 1, 43, 70
1, 59327, Note_on_c, 1, 43, 0
1, 59328, Note_on_c, 1, 40, 70
1, 59351, Note_on_c, 1, 40, 0
1, 59352, Note_on_c, 1, 43, 70
1, 59365, Note_on_c, 0, 82, 0
1, 59365, Note_on_c, 0, 73, 0
1, 59375, Note_on_c, 1, 43, 0
1, 59376, Note_on_c, 0, 79, 76
1, 59376, Note_on_c, 0, 70, 64
1, 59376, Note_on_c, 1, 46, 70
1, 59399, Note_on_c, 1, 46, 0
1, 59400, Note_on_c, 1, 43, 70
1, 59421, Note_on_c, 0, 79, 0
1, 59421, Note_on_c, 0, 70, 0
1, 59423, Note_on_c, 1, 43, 0
1, 59424, Note_on_c, 0, 82, 77
1, 59424, Note_on_c, 0, 72, 64
1, 59424, Note_on_c, 1, 40, 70
1, 59447, Note_on_c, 1, 40, 0
1, 59448, Note_on_c, 1, 43, 70
1, 59469, Note_on_c, 0, 82, 0
1, 59471, Note_on_c, 1, 43, 0
1, 59472, Note_on_c, 0, 80, 78
1, 59472, Note_on_c, 1, 46, 70
1, 59495, Note_on_c, 1, 46, 0
1, 59496, Note_on_c, 1, 43, 70
1, 59513, Note_on_c, 0, 72, 0
1, 59517, Note_on_c, 0, 80, 0
1, 59519, Note_on_c, 1, 43, 0
1, 59520, Note_on_c, 0, 79, 78
1, 59520, Note_on_c, 1, 40, 70
1, 59543, Note_on_c, 1, 40, 0
1, 59544, Note_on_c, 1, 44, 70
1, 59565, Note_on_c, 0, 79, 0
1, 59567, Note_on_c, 1, 44, 0
1, 59568, Note_on_c, 0, 77, 79
1, 59568, Note_on_c, 1, 48, 70
1, 59591, Note_on_c, 1, 48, 0
1, 59592, Note_on_c, 1, 44, 70
1, 59613, Note_on_c, 0, 77, 0
1, 59615, Note_on_c, 1, 44, 0
1, 59616, Note_on_c, 0, 77, 80
1, 59616, Note_on_c, 0, 70, 75
1, 59616, Note_on_c, 1, 40, 70
1, 59639, Note_on_c, 1, 40, 0
1, 59640, Note_on_c, 1, 43, 70
1, 59663, Note_on_c, 1, 43, 0
1, 59664, Note_on_c, 1, 46, 70
1, 59687, Note_on_c, 1, 46, 0
1, 59688, Note_on_c, 1, 43, 70
1, 59711, Note_on_c, 1, 43, 0
1, 59712, Note_on_c, 1, 40, 70
1, 59735, Note_on_c, 1, 40, 0
1, 59736, Note_on_c, 1, 43, 70
1, 59749, Note_on_c, 0, 70, 0
1, 59759, Note_on_c, 1, 43, 0
1, 59760, Note_on_c, 0, 67, 76
1, 59760, Note_on_c, 1, 46, 70
1, 59783, Note_on_c, 1, 46, 0
1, 59784, Note_on_c, 1, 43, 70
1, 59805, Note_on_c, 0, 67, 0
1, 59807, Note_on_c, 1, 43, 0
1, 59808, Note_on_c, 0, 77, 0
1, 59808, Note_on_c, 0, 76, 76
1, 59808, Note_on_c, 0, 70, 77
1, 59808, Note_on_c, 1, 40, 70
1, 59831, Note_on_c, 1, 40, 0
1, 59832, Note_on_c, 1, 43, 70
1, 59853, Note_on_c, 0, 70, 0
1, 59855, Note_on_c, 1, 43, 0
1, 59856, Note_on_c, 0, 68, 78
1, 59856, Note_on_c, 1, 46, 70
1, 59879, Note_on_c, 1, 46, 0
1, 59880, Note_on_c, 1, 43, 70
1, 59897, Note_on_c, 0, 76, 0
1, 59901, Note_on_c, 0, 68, 0
1, 59903, Note_on_c, 1, 43, 0
1, 59904, Note_on_c, 0, 67, 78
1, 59904, Note_on_c, 1, 40, 70
1, 59927, Note_on_c, 1, 40, 0
1, 59928, Note_on_c, 1, 44, 70
1, 59949, Note_on_c, 0, 67, 0
1, 59951, Note_on_c, 1, 44, 0
1, 59952, Note_on_c, 0, 65, 79
1, 59952, Note_on_c, 1, 48, 70
1, 59975, Note_on_c, 1, 48, 0
1, 59976, Note_on_c, 1, 44, 70
1, 59997, Note_on_c, 0, 65, 0
1, 59999, Note_on_c, 1, 44, 0
1, 60000, Note_on_c, 0, 75, 75
1, 60000, Note_on_c, 0, 69, 75
1, 60000, Note_on_c, 0, 66, 75
1, 60000, Note_on_c, 1, 38, 70
1, 60023, Note_on_c, 1, 38, 0
1, 60024, Note_on_c, 1, 42, 70
1, 60047, Note_on_c, 1, 42, 0
1, 60048, Note_on_c, 1, 45, 70
1, 60071, Note_on_c, 1, 45, 0
1, 60072, Note_on_c, 1, 42, 70
1, 60095, Note_on_c, 1, 42, 0
1, 60096, Note_on_c, 1, 38, 70
1, 60119, Note_on_c, 1, 38, 0
1, 60120, Note_on_c, 1, 42, 70
1, 60143, Note_on_c, 1, 42, 0
1, 60144, Note_on_c, 1, 45, 70
1, 60167, Note_on_c, 1, 45, 0
1, 60168, Note_on_c, 1, 42, 70
1, 60177, Note_on_c, 0, 75, 0
1, 60177, Note_on_c, 0, 69, 0
1, 60177, Note_on_c, 0, 66, 0
1, 60191, Note_on_c, 1, 42, 0
1, 60192, Note_on_c, 0, 66, 75
1, 60192, Note_on_c, 1, 38, 70
1, 60215, Note_on_c, 1, 38, 0
1, 60216, Note_on_c, 1, 42, 70
1, 60239, Note_on_c, 1, 42, 0
1, 60240, Note_on_c, 1, 45, 70
1, 60263, Note_on_c, 1, 45, 0
1, 60264, Note_on_c, 1, 42, 70
1, 60281, Note_on_c, 0, 66, 0
1, 60287, Note_on_c, 1, 42, 0
1, 60288, Note_on_c, 0, 67, 75
1, 60288, Note_on_c, 1, 38, 70
1, 60311, Note_on_c, 1, 38, 0
1, 60312, Note_on_c, 1, 43, 70
1, 60335, Note_on_c, 1, 43, 0
1, 60336, Note_on_c, 1, 46, 70
1, 60359, Note_on_c, 1, 46, 0
1, 60360, Note_on_c, 1, 43, 70
1, 60377, Note_on_c, 0, 67, 0
1, 60383, Note_on_c, 1, 43, 0
1, 60384, Note_on_c, 0, 75, 75
1, 60384, Note_on_c, 0, 72, 75
1, 60384, Note_on_c, 1, 38, 70
1, 60407, Note_on_c, 1, 38, 0
1, 60408, Note_on_c, 1, 42, 70
1, 60431, Note_on_c, 1, 42, 0
1, 60432, Note_on_c, 1, 45, 70
1, 60455, Note_on_c, 1, 45, 0
1, 60456, Note_on_c, 1, 42, 70
1, 60479, Note_on_c, 1, 42, 0
1, 60480, Note_on_c, 1, 38, 70
1, 60503, Note_on_c, 1, 38, 0
1, 60504, Note_on_c, 1, 42, 70
1, 60517, Note_on_c, 0, 75, 0
1, 60527, Note_on_c, 1, 42, 0
1, 60528, Note_on_c, 0, 72, 75
1, 60528, Note_on_c, 1, 45, 70
1, 60551, Note_on_c, 1, 45, 0
1, 60552, Note_on_c, 1, 42, 70
1, 60561, Note_on_c, 0, 72, 0
1, 60573, Note_on_c, 0, 72, 0
1, 60575, Note_on_c, 1, 42, 0
1, 60576, Note_on_c, 0, 74, 75
1, 60576, Note_on_c, 0, 66, 75
1, 60576, Note_on_c, 1, 38, 70
1, 60599, Note_on_c, 1, 38, 0
1, 60600, Note_on_c, 1, 42, 70
1, 60623, Note_on_c, 1, 42, 0
1, 60624, Note_on_c, 1, 45, 70
1, 60647, Note_on_c, 1, 45, 0
1, 60648, Note_on_c, 1, 42, 70
1, 60665, Note_on_c, 0, 74, 0
1, 60665, Note_on_c, 0, 66, 0
1, 60671, Note_on_c, 1, 42, 0
1, 60672, Note_on_c, 0, 67, 75
1, 60672, Note_on_c, 1, 38, 70
1, 60695, Note_on_c, 1, 38, 0
1, 60696, Note_on_c, 1, 43, 70
1, 60719, Note_on_c, 1, 43, 0
1, 60720, Note_on_c, 1, 46, 70
1, 60743, Note_on_c, 1, 46, 0
1, 60744, Note_on_c, 1, 43, 70
1, 60761, Note_on_c, 0, 67, 0
1, 60767, Note_on_c, 1, 43, 0
1, 60768, Note_on_c, 0, 84, 75
1, 60768, Note_on_c, 0, 75, 75
1, 60768, Note_on_c, 1, 42, 70
1, 60791, Note_on_c, 1, 42, 0
1, 60792, Note_on_c, 1, 45, 70
1, 60815, Note_on_c, 1, 45, 0
1, 60816, Note_on_c, 1, 48, 70
1, 60839, Note_on_c, 1, 48, 0
1, 60840, Note_on_c, 1, 45, 70
1, 60863, Note_on_c, 1, 45, 0
1, 60864, Note_on_c, 1, 42, 70
1, 60887, Note_on_c, 1, 42, 0
1, 60888, Note_on_c, 1, 45, 70
1, 60901, Note_on_c, 0, 84, 0
1, 60901, Note_on_c, 0, 75, 0
1, 60911, Note_on_c, 1, 45, 0
1, 60912, Note_on_c, 0, 81, 76
1, 60912, Note_on_c, 0, 72, 75
1, 60912, Note_on_c, 1, 48, 70
1, 60935, Note_on_c, 1, 48, 0
1, 60936, Note_on_c, 1, 45, 70
1, 60957, Note_on_c, 0, 81, 0
1, 60957, Note_on_c, 0, 72, 0
1, 60959, Note_on_c, 1, 45, 0
1, 60960, Note_on_c, 0, 84, 77
1, 60960, Note_on_c, 0, 75, 75
1, 60960, Note_on_c, 1, 42, 70
1, 60983, Note_on_c, 1, 42, 0
1, 60984, Note_on_c, 1, 45, 70
1, 61005, Note_on_c, 0, 84, 0
1, 61007, Note_on_c, 1, 45, 0
1, 61008, Note_on_c, 0, 82, 78
1, 61008, Note_on_c, 1, 48, 70
1, 61031, Note_on_c, 1, 48, 0
1, 61032, Note_on_c, 1, 45, 70
1, 61049, Note_on_c, 0, 75, 0
1, 61053, Note_on_c, 0, 82, 0
1, 61055, Note_on_c, 1, 45, 0
1, 61056, Note_on_c, 0, 81, 78
1, 61056, Note_on_c, 1, 42, 70
1, 61079, Note_on_c, 1, 42, 0
1, 61080, Note_on_c, 1, 46, 70
1, 61101, Note_on_c, 0, 81, 0
1, 61103, Note_on_c, 1, 46, 0
1, 61104, Note_on_c, 0, 79, 79
1, 61104, Note_on_c, 1, 50, 70
1, 61127, Note_on_c, 1, 50, 0
1, 61128, Note_on_c, 1, 46, 70
1, 61149, Note_on_c, 0, 79, 0
1, 61151, Note_on_c, 1, 46, 0
1, 61152, Note_on_c, 0, 79, 80
1, 61152, Note_on_c, 0, 72, 75
1, 61152, Note_on_c, 1, 42, 70
1, 61175, Note_on_c, 1, 42, 0
1, 61176, Note_on_c, 1, 45, 70
1, 61199, Note_on_c, 1, 45, 0
1, 61200, Note_on_c, 1, 48, 70
1, 61223, Note_on_c, 1, 48, 0
1, 61224, Note_on_c, 1, 45, 70
1, 61247, Note_on_c, 1, 45, 0
1, 61248, Note_on_c, 1, 42, 70
1, 61271, Note_on_c, 1, 42, 0
1, 61272, Note_on_c, 1, 45, 70
1, 61285, Note_on_c, 0, 72, 0
1, 61295, Note_on_c, 1, 45, 0
1, 61296, Note_on_c, 0, 69, 76
1, 61296, Note_on_c, 1, 48, 70
1, 61319, Note_on_c, 1, 48, 0
1, 61320, Note_on_c, 1, 45, 70
1, 61341, Note_on_c, 0, 69, 0
1, 61343, Note_on_c, 1, 45, 0
1, 61344, Note_on_c, 0, 79, 0
1, 61344, Note_on_c, 0, 78, 76
1, 61344, Note_on_c, 0, 72, 77
1, 61344, Note_on_c, 1, 42, 70
1, 61367, Note_on_c, 1, 42, 0
1, 61368, Note_on_c, 1, 45, 70
1, 61389, Note_on_c, 0, 72, 0
1, 61391, Note_on_c, 1, 45, 0
1, 61392, Note_on_c, 0, 70, 78
1, 61392, Note_on_c, 1, 48, 70
1, 61415, Note_on_c, 1, 48, 0
1, 61416, Note_on_c, 1, 45, 70
1, 61433, Note_on_c, 0, 78, 0
1, 61437, Note_on_c, 0, 70, 0
1, 61439, Note_on_c, 1, 45, 0
1, 61440, Note_on_c, 0, 69, 78
1, 61440, Note_on_c, 1, 42, 70
1, 61463, Note_on_c, 1, 42, 0
1, 61464, Note_on_c, 1, 46, 70
1, 61485, Note_on_c, 0, 69, 0
1, 61487, Note_on_c, 1, 46, 0
1, 61488, Note_on_c, 0, 67, 79
1, 61488, Note_on_c, 1, 50, 70
1, 61511, Note_on_c, 1, 50, 0
1, 61512, Note_on_c, 1, 46, 70
1, 61533, Note_on_c, 0, 67, 0
1, 61535, Note_on_c, 1, 46, 0
1, 61536, Note_on_c, 0, 77, 75
1, 61536, Note_on_c, 0, 65, 80
1, 61536, Note_on_c, 1, 56, 83
1, 61536, Note_on_c, 1, 44, 83
1, 61566, Note_on_c, 0, 77, 0
1, 61568, Note_on_c, 0, 74, 75
1, 61581, Note_on_c, 0, 65, 0
1, 61598, Note_on_c, 0, 74, 0
1, 61600, Note_on_c, 0, 71, 75
1, 61630, Note_on_c, 0, 71, 0
1, 61632, Note_on_c, 0, 77, 75
1, 61662, Note_on_c, 0, 77, 0
1, 61664, Note_on_c, 0, 74, 75
1, 61694, Note_on_c, 0, 74, 0
1, 61696, Note_on_c, 0, 71, 75
1, 61726, Note_on_c, 0, 71, 0
1, 61728, Note_on_c, 0, 76, 75
1, 61728, Note_on_c, 1, 56, 0
1, 61728, Note_on_c, 1, 44, 0
1, 61728, Note_on_c, 1, 57, 70
1, 61728, Note_on_c, 1, 45, 70
1, 61758, Note_on_c, 0, 76, 0
1, 61760, Note_on_c, 0, 71, 75
1, 61767, Note_on_c, 1, 57, 0
1, 61767, Note_on_c, 1, 45, 0
1, 61792, Note_on_c, 0, 71, 0
1, 61792, Note_on_c, 0, 72, 75
1, 61822, Note_on_c, 0, 72, 0
1, 61824, Note_on_c, 0, 76, 75
1, 61854, Note_on_c, 0, 76, 0
1, 61856, Note_on_c, 0, 71, 75
1, 61888, Note_on_c, 0, 71, 0
1, 61888, Note_on_c, 0, 72, 75
1, 61918, Note_on_c, 0, 72, 0
1, 61920, Note_on_c, 0, 75, 75
1, 61920, Note_on_c, 1, 54, 83
1, 61920, Note_on_c, 1, 42, 83
1, 61950, Note_on_c, 0, 75, 0
1, 61952, Note_on_c, 0, 72, 75
1, 61982, Note_on_c, 0, 72, 0
1, 61984, Note_on_c, 0, 69, 75
1, 62014, Note_on_c, 0, 69, 0
1, 62016, Note_on_c, 0, 75, 75
1, 62046, Note_on_c, 0, 75, 0
1, 62048, Note_on_c, 0, 72, 75
1, 62078, Note_on_c, 0, 72, 0
1, 62080, Note_on_c, 0, 69, 75
1, 62110, Note_on_c, 0, 69, 0
1, 62112, Note_on_c, 0, 74, 75
1, 62112, Note_on_c, 1, 54, 0
1, 62112, Note_on_c, 1, 42, 0
1, 62112, Note_on_c, 1, 55, 70
1, 62112, Note_on_c, 1, 43, 70
1, 62142, Note_on_c, 0, 74, 0
1, 62144, Note_on_c, 0, 69, 75
1, 62151, Note_on_c, 1, 55, 0
1, 62151, Note_on_c, 1, 43, 0
1, 62176, Note_on_c, 0, 69, 0
1, 62176, Note_on_c, 0, 70, 75
1, 62206, Note_on_c, 0, 70, 0
1, 62208, Note_on_c, 0, 74, 75
1, 62238, Note_on_c, 0, 74, 0
1, 62240, Note_on_c, 0, 69, 75
1, 62272, Note_on_c, 0, 69, 0
1, 62272, Note_on_c, 0, 70, 75
1, 62302, Note_on_c, 0, 70, 0
1, 62304, Note_on_c, 0, 73, 75
1, 62304, Note_on_c, 1, 52, 83
1, 62304, Note_on_c, 1, 40, 83
1, 62334, Note_on_c, 0, 73, 0
1, 62336, Note_on_c, 0, 70, 75
1, 62366, Note_on_c, 0, 70, 0
1, 62368, Note_on_c, 0, 67, 75
1, 62398, Note_on_c, 0, 67, 0
1, 62400, Note_on_c, 0, 73, 75
1, 62430, Note_on_c, 0, 73, 0
1, 62432, Note_on_c, 0, 70, 75
1, 62462, Note_on_c, 0, 70, 0
1, 62464, Note_on_c, 0, 67, 75
1, 62494, Note_on_c, 0, 67, 0
1, 62496, Note_on_c, 0, 72, 75
1, 62496, Note_on_c, 1, 52, 0
1, 62496, Note_on_c, 1, 40, 0
1, 62496, Note_on_c, 1, 53, 70
1, 62496, Note_on_c, 1, 41, 70
1, 62526, Note_on_c, 0, 72, 0
1, 62528, Note_on_c, 0, 67, 75
1, 62535, Note_on_c, 1, 53, 0
1, 62535, Note_on_c, 1, 41, 0
1, 62560, Note_on_c, 0, 67, 0
1, 62560, Note_on_c, 0, 68, 75
1, 62590, Note_on_c, 0, 68, 0
1, 62592, Note_on_c, 0, 72, 75
1, 62622, Note_on_c, 0, 72, 0
1, 62624, Note_on_c, 0, 67, 75
1, 62656, Note_on_c, 0, 67, 0
1, 62656, Note_on_c, 0, 68, 75
1, 62686, Note_on_c, 0, 68, 0
1, 62688, Note_on_c, 0, 72, 75
1, 62688, Note_on_c, 1, 50, 83
1, 62688, Note_on_c, 1, 38, 83
1, 62718, Note_on_c, 0, 72, 0
1, 62720, Note_on_c, 0, 69, 75
1, 62750, Note_on_c, 0, 69, 0
1, 62752, Note_on_c, 0, 66, 75
1, 62782, Note_on_c, 0, 66, 0
1, 62784, Note_on_c, 0, 72, 75
1, 62814, Note_on_c, 0, 72, 0
1, 62816, Note_on_c, 0, 69, 75
1, 62846, Note_on_c, 0, 69, 0
1, 62848, Note_on_c, 0, 66, 75
1, 62865, Note_on_c, 1, 50, 0
1, 62865, Note_on_c, 1, 38, 0
1, 62878, Note_on_c, 0, 66, 0
1, 62880, Note_on_c, 0, 67, 75
1, 62880, Note_on_c, 1, 51, 70
1, 62880, Note_on_c, 1, 39, 70
1, 62910, Note_on_c, 0, 67, 0
1, 62912, Note_on_c, 0, 66, 75
1, 62942, Note_on_c, 0, 66, 0
1, 62944, Note_on_c, 0, 67, 75
1, 62974, Note_on_c, 0, 67, 0
1, 62976, Note_on_c, 0, 70, 75
1, 63006, Note_on_c, 0, 70, 0
1, 63008, Note_on_c, 0, 66, 75
1, 63038, Note_on_c, 0, 66, 0
1, 63040, Note_on_c, 0, 67, 75
1, 63057, Note_on_c, 1, 51, 0
1, 63057, Note_on_c, 1, 39, 0
1, 63070, Note_on_c, 0, 67, 0
1, 63072, Note_on_c, 1, 49, 83
1, 63072, Note_on_c, 1, 37, 83
1, 63120, Note_on_c, 0, 82, 96
1, 63120, Note_on_c, 0, 79, 96
1, 63140, Note_on_c, 0, 82, 0
1, 63140, Note_on_c, 0, 79, 0
1, 63168, Note_on_c, 0, 81, 80
1, 63168, Note_on_c, 0, 78, 80
1, 63188, Note_on_c, 0, 81, 0
1, 63188, Note_on_c, 0, 78, 0
1, 63216, Note_on_c, 0, 79, 80
1, 63216, Note_on_c, 0, 75, 80
1, 63236, Note_on_c, 0, 79, 0
1, 63236, Note_on_c, 0, 75, 0
1, 63264, Note_on_c, 0, 78, 80
1, 63264, Note_on_c, 0, 74, 80
1, 63284, Note_on_c, 0, 78, 0
1, 63284, Note_on_c, 0, 74, 0
1, 63312, Note_on_c, 0, 75, 80
1, 63312, Note_on_c, 0, 72, 80
1, 63332, Note_on_c, 0, 75, 0
1, 63332, Note_on_c, 0, 72, 0
1, 63360, Note_on_c, 0, 74, 80
1, 63360, Note_on_c, 0, 70, 80
1, 63380, Note_on_c, 0, 74, 0
1, 63380, Note_on_c, 0, 70, 0
1, 63408, Note_on_c, 0, 72, 80
1, 63408, Note_on_c, 0, 69, 80
1, 63426, Note_on_c, 1, 49, 0
1, 63426, Note_on_c, 1, 37, 0
1, 63428, Note_on_c, 0, 72, 0
1, 63428, Note_on_c, 0, 69, 0
1, 63456, Note_on_c, 0, 70, 96
1, 63456, Note_on_c, 1, 50, 70
1, 63456, Note_on_c, 1, 38, 70
1, 63504, Note_on_c, 0, 70, 0
1, 63504, Note_on_c, 0, 67, 80
1, 63545, Note_on_c, 1, 50, 0
1, 63545, Note_on_c, 1, 38, 0
1, 63549, Note_on_c, 0, 67, 0
1, 63552, Note_on_c, 0, 66, 80
1, 63597, Note_on_c, 0, 66, 0
1, 63600, Note_on_c, 0, 67, 80
1, 63645, Note_on_c, 0, 67, 0
1, 63648, Note_on_c, 0, 72, 80
1, 63668, Note_on_c, 0, 72, 0
1, 63696, Note_on_c, 0, 70, 80
1, 63716, Note_on_c, 0, 70, 0
1, 63744, Note_on_c, 0, 69, 80
1, 63764, Note_on_c, 0, 69, 0
1, 63792, Note_on_c, 0, 67, 80
1, 63812, Note_on_c, 0, 67, 0
1, 63840, Note_on_c, 0, 67, 96
1, 63888, Note_on_c, 1, 50, 70
1, 63933, Note_on_c, 1, 50, 0
1, 63936, Note_on_c, 1, 62, 70
1, 63956, Note_on_c, 1, 62, 0
1, 63984, Note_on_c, 1, 57, 70
1, 64004, Note_on_c, 1, 57, 0
1, 64032, Note_on_c, 0, 67, 0
1, 64032, Note_on_c, 0, 66, 80
1, 64032, Note_on_c, 1, 60, 70
1, 64077, Note_on_c, 1, 60, 0
1, 64080, Note_on_c, 1, 58, 70
1, 64121, Note_on_c, 0, 66, 0
1, 64125, Note_on_c, 1, 58, 0
1, 64128, Note_on_c, 1, 57, 70
1, 64173, Note_on_c, 1, 57, 0
1, 64176, Note_on_c, 1, 55, 70
1, 64221, Note_on_c, 1, 55, 0
1, 64224, Note_on_c, 0, 75, 91
1, 64224, Note_on_c, 1, 55, 86
1, 64368, Note_on_c, 0, 75, 0
1, 64368, Note_on_c, 0, 72, 73
1, 64413, Note_on_c, 0, 72, 0
1, 64416, Note_on_c, 0, 75, 73
1, 64416, Note_on_c, 1, 55, 0
1, 64416, Note_on_c, 1, 54, 70
1, 64461, Note_on_c, 0, 75, 0
1, 64464, Note_on_c, 0, 74, 73
1, 64505, Note_on_c, 1, 54, 0
1, 64509, Note_on_c, 0, 74, 0
1, 64512, Note_on_c, 0, 72, 72
1, 64557, Note_on_c, 0, 72, 0
1, 64560, Note_on_c, 0, 70, 72
1, 64605, Note_on_c, 0, 70, 0
1, 64608, Note_on_c, 0, 70, 88
1, 64608, Note_on_c, 1, 67, 80
1, 64741, Note_on_c, 1, 67, 0
1, 64752, Note_on_c, 1, 64, 78
1, 64797, Note_on_c, 1, 64, 0
1, 64800, Note_on_c, 0, 70, 0
1, 64800, Note_on_c, 0, 69, 70
1, 64800, Note_on_c, 1, 67, 78
1, 64845, Note_on_c, 1, 67, 0
1, 64848, Note_on_c, 1, 65, 78
1, 64889, Note_on_c, 0, 69, 0
1, 64893, Note_on_c, 1, 65, 0
1, 64896, Note_on_c, 1, 64, 77
1, 64941, Note_on_c, 1, 64, 0
1, 64944, Note_on_c, 1, 62, 77
1, 64989, Note_on_c, 1, 62, 0
1, 64992, Note_on_c, 0, 82, 86
1, 64992, Note_on_c, 1, 61, 93
1, 65280, Note_on_c, 0, 82, 0
1, 65280, Note_on_c, 0, 79, 68
1, 65280, Note_on_c, 1, 61, 0
1, 65369, Note_on_c, 0, 79, 0
1, 65376, Note_on_c, 0, 77, 68
1, 65465, Note_on_c, 0, 77, 0
1, 65472, Note_on_c, 0, 76, 67
1, 65561, Note_on_c, 0, 76, 0
1, 65568, Note_on_c, 0, 74, 67
1, 65657, Note_on_c, 0, 74, 0
1, 65664, Note_on_c, 0, 74, 66
1, 65937, Note_on_c, 0, 74, 0
1, 65952, Note_on_c, 0, 73, 65
1, 66321, Note_on_c, 0, 73, 0
1, 66624, Note_on_c, 0, 81, 91
1, 66816, Note_on_c, 0, 81, 0
1, 66816, Note_on_c, 0, 73, 75
1, 66912, Note_on_c, 0, 73, 0
1, 66912, Note_on_c, 0, 74, 75
1, 67001, Note_on_c, 0, 74, 0
1, 67008, Note_on_c, 0, 82, 75
1, 67141, Note_on_c, 0, 82, 0
1, 67152, Note_on_c, 0, 79, 75
1, 67197, Note_on_c, 0, 79, 0
1, 67200, Note_on_c, 0, 81, 75
1, 67377, Note_on_c, 0, 81, 0
1, 67392, Note_on_c, 0, 67, 75
1, 67488, Note_on_c, 1, 49, 75
1, 67525, Note_on_c, 0, 67, 0
1, 67536, Note_on_c, 0, 64, 75
1, 67577, Note_on_c, 1, 49, 0
1, 67581, Note_on_c, 0, 64, 0
1, 67584, Note_on_c, 0, 67, 76
1, 67584, Note_on_c, 1, 50, 75
1, 67629, Note_on_c, 0, 67, 0
1, 67632, Note_on_c, 0, 65, 77
1, 67673, Note_on_c, 1, 50, 0
1, 67677, Note_on_c, 0, 65, 0
1, 67680, Note_on_c, 0, 64, 78
1, 67680, Note_on_c, 1, 55, 75
1, 67725, Note_on_c, 0, 64, 0
1, 67728, Note_on_c, 0, 62, 79
1, 67769, Note_on_c, 1, 55, 0
1, 67773, Note_on_c, 0, 62, 0
1, 67776, Note_on_c, 0, 62, 80
1, 67872, Note_on_c, 1, 57, 75
1, 67961, Note_on_c, 1, 57, 0
1, 67968, Note_on_c, 0, 62, 0
1, 67968, Note_on_c, 0, 61, 76
1, 67968, Note_on_c, 1, 45, 75
1, 68057, Note_on_c, 0, 61, 0
1, 68057, Note_on_c, 1, 45, 0
1, 68112, Note_on_c, 0, 73, 70
1, 68132, Note_on_c, 0, 73, 0
1, 68160, Note_on_c, 0, 73, 86
1, 68160, Note_on_c, 0, 70, 86
1, 68160, Note_on_c, 1, 67, 64
1, 68352, Note_on_c, 0, 73, 0
1, 68352, Note_on_c, 0, 70, 0
1, 68352, Note_on_c, 0, 74, 70
1, 68352, Note_on_c, 0, 69, 70
1, 68352, Note_on_c, 1, 67, 0
1, 68352, Note_on_c, 1, 65, 64
1, 68391, Note_on_c, 0, 74, 0
1, 68391, Note_on_c, 0, 69, 0
1, 68391, Note_on_c, 1, 65, 0
1, 68496, Note_on_c, 0, 82, 70
1, 68516, Note_on_c, 0, 82, 0
1, 68544, Note_on_c, 0, 82, 86
1, 68544, Note_on_c, 0, 76, 86
1, 68544, Note_on_c, 1, 73, 64
1, 68736, Note_on_c, 0, 82, 0
1, 68736, Note_on_c, 0, 76, 0
1, 68736, Note_on_c, 0, 81, 70
1, 68736, Note_on_c, 0, 77, 70
1, 68736, Note_on_c, 1, 73, 0
1, 68736, Note_on_c, 1, 74, 64
1, 68775, Note_on_c, 0, 81, 0
1, 68775, Note_on_c, 0, 77, 0
1, 68775, Note_on_c, 1, 74, 0
1, 68928, Note_on_c, 0, 63, 96
1, 69024, Note_on_c, 0, 63, 0
1, 69024, Note_on_c, 0, 77, 80
1, 69036, Note_on_c, 0, 77, 0
1, 69036, Note_on_c, 0, 75, 80
1, 69048, Note_on_c, 0, 75, 0
1, 69048, Note_on_c, 0, 74, 80
1, 69060, Note_on_c, 0, 74, 0
1, 69060, Note_on_c, 0, 75, 96
1, 69120, Note_on_c, 1, 46, 75
1, 69120, Note_on_c, 1, 43, 75
1, 69120, Note_on_c, 1, 39, 75
1, 69120, Note_on_c, 1, 34, 75
1, 69216, Note_on_c, 0, 75, 0
1, 69216, Note_on_c, 0, 73, 80
1, 69253, Note_on_c, 1, 46, 0
1, 69253, Note_on_c, 1, 43, 0
1, 69253, Note_on_c, 1, 39, 0
1, 69253, Note_on_c, 1, 34, 0
1, 69305, Note_on_c, 0, 73, 0
1, 69312, Note_on_c, 0, 74, 96
1, 69312, Note_on_c, 1, 62, 64
1, 69342, Note_on_c, 1, 62, 0
1, 69344, Note_on_c, 1, 65, 64
1, 69374, Note_on_c, 1, 65, 0
1, 69376, Note_on_c, 1, 69, 64
1, 69406, Note_on_c, 1, 69, 0
1, 69408, Note_on_c, 0, 74, 0
1, 69408, Note_on_c, 1, 62, 64
1, 69438, Note_on_c, 1, 62, 0
1, 69440, Note_on_c, 1, 65, 64
1, 69470, Note_on_c, 1, 65, 0
1, 69472, Note_on_c, 1, 69, 64
1, 69502, Note_on_c, 1, 69, 0
1, 69504, Note_on_c, 0, 73, 75
1, 69504, Note_on_c, 1, 62, 64
1, 69534, Note_on_c, 1, 62, 0
1, 69536, Note_on_c, 1, 65, 64
1, 69566, Note_on_c, 1, 65, 0
1, 69568, Note_on_c, 1, 69, 64
1, 69598, Note_on_c, 1, 69, 0
1, 69600, Note_on_c, 0, 73, 0
1, 69600, Note_on_c, 0, 74, 77
1, 69600, Note_on_c, 1, 62, 64
1, 69630, Note_on_c, 1, 62, 0
1, 69632, Note_on_c, 1, 65, 64
1, 69662, Note_on_c, 1, 65, 0
1, 69664, Note_on_c, 1, 69, 64
1, 69689, Note_on_c, 0, 74, 0
1, 69694, Note_on_c, 1, 69, 0
1, 69696, Note_on_c, 0, 82, 80
1, 69696, Note_on_c, 1, 62, 64
1, 69708, Note_on_c, 0, 82, 0
1, 69708, Note_on_c, 0, 81, 80
1, 69720, Note_on_c, 0, 81, 0
1, 69720, Note_on_c, 0, 82, 96
1, 69726, Note_on_c, 1, 62, 0
1, 69728, Note_on_c, 1, 67, 64
1, 69758, Note_on_c, 1, 67, 0
1, 69760, Note_on_c, 1, 70, 64
1, 69790, Note_on_c, 1, 70, 0
1, 69792, Note_on_c, 1, 62, 64
1, 69822, Note_on_c, 1, 62, 0
1, 69824, Note_on_c, 1, 67, 64
1, 69840, Note_on_c, 0, 82, 0
1, 69840, Note_on_c, 0, 79, 78
1, 69854, Note_on_c, 1, 67, 0
1, 69856, Note_on_c, 1, 70, 64
1, 69885, Note_on_c, 0, 79, 0
1, 69886, Note_on_c, 1, 70, 0
1, 69888, Note_on_c, 0, 81, 77
1, 69888, Note_on_c, 1, 62, 64
1, 69918, Note_on_c, 1, 62, 0
1, 69920, Note_on_c, 1, 65, 64
1, 69950, Note_on_c, 1, 65, 0
1, 69952, Note_on_c, 1, 69, 64
1, 69982, Note_on_c, 1, 69, 0
1, 69984, Note_on_c, 1, 62, 64
1, 70014, Note_on_c, 1, 62, 0
1, 70016, Note_on_c, 1, 65, 64
1, 70046, Note_on_c, 1, 65, 0
1, 70048, Note_on_c, 1, 69, 64
1, 70065, Note_on_c, 0, 81, 0
1, 70078, Note_on_c, 1, 69, 0
1, 70080, Note_on_c, 0, 55, 96
1, 70080, Note_on_c, 1, 61, 64
1, 70110, Note_on_c, 1, 61, 0
1, 70112, Note_on_c, 1, 64, 64
1, 70142, Note_on_c, 1, 64, 0
1, 70144, Note_on_c, 1, 69, 64
1, 70174, Note_on_c, 1, 69, 0
1, 70176, Note_on_c, 1, 61, 64
1, 70206, Note_on_c, 1, 61, 0
1, 70208, Note_on_c, 1, 64, 64
1, 70224, Note_on_c, 0, 55, 0
1, 70224, Note_on_c, 0, 52, 80
1, 70238, Note_on_c, 1, 64, 0
1, 70240, Note_on_c, 1, 69, 64
1, 70269, Note_on_c, 0, 52, 0
1, 70270, Note_on_c, 1, 69, 0
1, 70272, Note_on_c, 0, 55, 81
1, 70272, Note_on_c, 1, 62, 64
1, 70302, Note_on_c, 1, 62, 0
1, 70304, Note_on_c, 1, 65, 64
1, 70317, Note_on_c, 0, 55, 0
1, 70320, Note_on_c, 0, 53, 82
1, 70334, Note_on_c, 1, 65, 0
1, 70336, Note_on_c, 1, 69, 64
1, 70365, Note_on_c, 0, 53, 0
1, 70366, Note_on_c, 1, 69, 0
1, 70368, Note_on_c, 0, 52, 83
1, 70368, Note_on_c, 1, 62, 64
1, 70398, Note_on_c, 1, 62, 0
1, 70400, Note_on_c, 1, 65, 64
1, 70413, Note_on_c, 0, 52, 0
1, 70416, Note_on_c, 0, 50, 84
1, 70430, Note_on_c, 1, 65, 0
1, 70432, Note_on_c, 1, 69, 64
1, 70461, Note_on_c, 0, 50, 0
1, 70462, Note_on_c, 1, 69, 0
1, 70464, Note_on_c, 0, 50, 102
1, 70464, Note_on_c, 1, 57, 64
1, 70494, Note_on_c, 1, 57, 0
1, 70496, Note_on_c, 1, 65, 64
1, 70526, Note_on_c, 1, 65, 0
1, 70528, Note_on_c, 1, 69, 64
1, 70558, Note_on_c, 1, 69, 0
1, 70560, Note_on_c, 1, 57, 64
1, 70590, Note_on_c, 1, 57, 0
1, 70592, Note_on_c, 1, 65, 64
1, 70622, Note_on_c, 1, 65, 0
1, 70624, Note_on_c, 1, 69, 64
1, 70654, Note_on_c, 1, 69, 0
1, 70656, Note_on_c, 0, 50, 0
1, 70656, Note_on_c, 0, 49, 82
1, 70656, Note_on_c, 1, 57, 64
1, 70686, Note_on_c, 1, 57, 0
1, 70688, Note_on_c, 1, 70, 75
1, 70718, Note_on_c, 1, 70, 0
1, 70720, Note_on_c, 1, 69, 75
1, 70745, Note_on_c, 0, 49, 0
1, 70750, Note_on_c, 1, 69, 0
1, 70752, Note_on_c, 1, 67, 76
1, 70782, Note_on_c, 1, 67, 0
1, 70784, Note_on_c, 1, 65, 77
1, 70814, Note_on_c, 1, 65, 0
1, 70816, Note_on_c, 1, 64, 78
1, 70846, Note_on_c, 1, 64, 0
1, 70848, Note_on_c, 1, 65, 80
1, 70880, Note_on_c, 0, 73, 75
1, 70912, Note_on_c, 0, 73, 0
1, 70912, Note_on_c, 0, 74, 75
1, 70937, Note_on_c, 1, 65, 0
1, 70942, Note_on_c, 0, 74, 0
1, 70944, Note_on_c, 0, 77, 91
1, 70944, Note_on_c, 1, 62, 80
1, 70976, Note_on_c, 0, 77, 0
1, 70976, Note_on_c, 0, 73, 76
1, 71008, Note_on_c, 0, 73, 0
1, 71008, Note_on_c, 0, 74, 76
1, 71033, Note_on_c, 1, 62, 0
1, 71038, Note_on_c, 0, 74, 0
1, 71040, Note_on_c, 0, 79, 93
1, 71040, Note_on_c, 1, 64, 80
1, 71072, Note_on_c, 0, 79, 0
1, 71072, Note_on_c, 0, 73, 77
1, 71104, Note_on_c, 0, 73, 0
1, 71104, Note_on_c, 0, 74, 77
1, 71129, Note_on_c, 1, 64, 0
1, 71134, Note_on_c, 0, 74, 0
1, 71136, Note_on_c, 0, 81, 94
1, 71136, Note_on_c, 1, 65, 80
1, 71168, Note_on_c, 0, 81, 0
1, 71168, Note_on_c, 0, 73, 78
1, 71200, Note_on_c, 0, 73, 0
1, 71200, Note_on_c, 0, 74, 79
1, 71225, Note_on_c, 1, 65, 0
1, 71230, Note_on_c, 0, 74, 0
1, 71232, Note_on_c, 1, 67, 93
1, 71232, Note_on_c, 1, 63, 93
1, 71232, Note_on_c, 1, 58, 93
1, 71232, Note_on_c, 1, 55, 93
1, 71264, Note_on_c, 0, 82, 80
1, 71294, Note_on_c, 0, 82, 0
1, 71296, Note_on_c, 0, 79, 80
1, 71326, Note_on_c, 0, 79, 0
1, 71328, Note_on_c, 0, 75, 80
1, 71358, Note_on_c, 0, 75, 0
1, 71360, Note_on_c, 0, 79, 80
1, 71390, Note_on_c, 0, 79, 0
1, 71392, Note_on_c, 0, 75, 80
1, 71422, Note_on_c, 0, 75, 0
1, 71424, Note_on_c, 0, 70, 80
1, 71454, Note_on_c, 0, 70, 0
1, 71456, Note_on_c, 0, 75, 80
1, 71486, Note_on_c, 0, 75, 0
1, 71488, Note_on_c, 0, 70, 80
1, 71518, Note_on_c, 0, 70, 0
1, 71520, Note_on_c, 0, 67, 80
1, 71550, Note_on_c, 0, 67, 0
1, 71552, Note_on_c, 0, 70, 80
1, 71582, Note_on_c, 0, 70, 0
1, 71584, Note_on_c, 0, 67, 80
1, 71586, Note_on_c, 1, 67, 0
1, 71586, Note_on_c, 1, 63, 0
1, 71586, Note_on_c, 1, 58, 0
1, 71586, Note_on_c, 1, 55, 0
1, 71614, Note_on_c, 0, 67, 0
1, 71616, Note_on_c, 1, 61, 80
1, 71664, Note_on_c, 0, 82, 80
1, 71664, Note_on_c, 0, 79, 80
1, 71709, Note_on_c, 0, 82, 0
1, 71709, Note_on_c, 0, 79, 0
1, 71712, Note_on_c, 0, 81, 79
1, 71712, Note_on_c, 0, 77, 79
1, 71757, Note_on_c, 0, 81, 0
1, 71757, Note_on_c, 0, 77, 0
1, 71760, Note_on_c, 0, 79, 78
1, 71760, Note_on_c, 0, 76, 78
1, 71805, Note_on_c, 0, 79, 0
1, 71805, Note_on_c, 0, 76, 0
1, 71808, Note_on_c, 0, 77, 77
1, 71808, Note_on_c, 0, 74, 77
1, 71808, Note_on_c, 1, 61, 0
1, 71808, Note_on_c, 1, 62, 76
1, 71897, Note_on_c, 0, 77, 0
1, 71897, Note_on_c, 0, 74, 0
1, 71897, Note_on_c, 1, 62, 0
1, 72000, Note_on_c, 0, 76, 70
1, 72000, Note_on_c, 0, 73, 70
1, 72000, Note_on_c, 0, 69, 70
1, 72089, Note_on_c, 0, 76, 0
1, 72089, Note_on_c, 0, 73, 0
1, 72089, Note_on_c, 0, 69, 0
1, 72192, Note_on_c, 1, 38, 96
1, 72201, Note_on_c, 1, 41, 96
1, 72210, Note_on_c, 1, 45, 96
1, 72219, Note_on_c, 1, 50, 96
1, 72264, Note_on_c, 0, 77, 80
1, 72287, Note_on_c, 0, 77, 0
1, 72288, Note_on_c, 0, 81, 80
1, 72311, Note_on_c, 0, 81, 0
1, 72312, Note_on_c, 0, 79, 80
1, 72335, Note_on_c, 0, 79, 0
1, 72336, Note_on_c, 0, 77, 80
1, 72359, Note_on_c, 0, 77, 0
1, 72360, Note_on_c, 0, 76, 80
1, 72383, Note_on_c, 0, 76, 0
1, 72384, Note_on_c, 0, 74, 80
1, 72407, Note_on_c, 0, 74, 0
1, 72408, Note_on_c, 0, 72, 80
1, 72421, Note_on_c, 1, 50, 0
1, 72421, Note_on_c, 1, 45, 0
1, 72421, Note_on_c, 1, 41, 0
1, 72421, Note_on_c, 1, 38, 0
1, 72431, Note_on_c, 0, 72, 0
1, 72432, Note_on_c, 0, 70, 80
1, 72455, Note_on_c, 0, 70, 0
1, 72456, Note_on_c, 0, 69, 80
1, 72479, Note_on_c, 0, 69, 0
1, 72480, Note_on_c, 0, 67, 80
1, 72503, Note_on_c, 0, 67, 0
1, 72504, Note_on_c, 0, 65, 80
1, 72527, Note_on_c, 0, 65, 0
1, 72528, Note_on_c, 0, 64, 80
1, 72551, Note_on_c, 0, 64, 0
1, 72552, Note_on_c, 0, 62, 80
1, 72575, Note_on_c, 0, 62, 0
1, 72576, Note_on_c, 0, 70, 80
1, 72576, Note_on_c, 1, 58, 80
1, 72599, Note_on_c, 0, 70, 0
1, 72599, Note_on_c, 1, 58, 0
1, 72600, Note_on_c, 0, 69, 80
1, 72600, Note_on_c, 1, 57, 80
1, 72623, Note_on_c, 0, 69, 0
1, 72623, Note_on_c, 1, 57, 0
1, 72624, Note_on_c, 0, 67, 80
1, 72624, Note_on_c, 1, 55, 80
1, 72647, Note_on_c, 0, 67, 0
1, 72647, Note_on_c, 1, 55, 0
1, 72648, Note_on_c, 0, 65, 80
1, 72648, Note_on_c, 1, 53, 80
1, 72671, Note_on_c, 0, 65, 0
1, 72671, Note_on_c, 1, 53, 0
1, 72672, Note_on_c, 0, 64, 80
1, 72672, Note_on_c, 1, 52, 80
1, 72702, Note_on_c, 0, 64, 0
1, 72702, Note_on_c, 1, 52, 0
1, 72704, Note_on_c, 0, 62, 80
1, 72704, Note_on_c, 1, 50, 80
1, 72734, Note_on_c, 0, 62, 0
1, 72734, Note_on_c, 1, 50, 0
1, 72736, Note_on_c, 0, 60, 80
1, 72736, Note_on_c, 1, 48, 80
1, 72766, Note_on_c, 0, 60, 0
1, 72766, Note_on_c, 1, 48, 0
1, 72768, Note_on_c, 0, 58, 80
1, 72768, Note_on_c, 1, 46, 80
1, 72798, Note_on_c, 0, 58, 0
1, 72798, Note_on_c, 1, 46, 0
1, 72800, Note_on_c, 0, 57, 80
1, 72800, Note_on_c, 1, 45, 80
1, 72830, Note_on_c, 0, 57, 0
1, 72830, Note_on_c, 1, 45, 0
1, 72832, Note_on_c, 0, 55, 80
1, 72832, Note_on_c, 1, 43, 80
1, 72862, Note_on_c, 0, 55, 0
1, 72862, Note_on_c, 1, 43, 0
1, 72864, Note_on_c, 0, 53, 80
1, 72864, Note_on_c, 1, 41, 80
1, 72894, Note_on_c, 0, 53, 0
1, 72894, Note_on_c, 1, 41, 0
1, 72896, Note_on_c, 0, 52, 80
1, 72896, Note_on_c, 1, 40, 80
1, 72926, Note_on_c, 0, 52, 0
1, 72926, Note_on_c, 1, 40, 0
1, 72928, Note_on_c, 0, 50, 80
1, 72928, Note_on_c, 1, 38, 80
1, 72958, Note_on_c, 0, 50, 0
1, 72958, Note_on_c, 1, 38, 0
1, 72960, Note_on_c, 0, 49, 80
1, 72960, Note_on_c, 1, 40, 80
1, 72990, Note_on_c, 0, 49, 0
1, 72992, Note_on_c, 0, 45, 80
1, 73022, Note_on_c, 0, 45, 0
1, 73024, Note_on_c, 0, 49, 80
1, 73054, Note_on_c, 0, 49, 0
1, 73056, Note_on_c, 0, 52, 80
1, 73086, Note_on_c, 0, 52, 0
1, 73088, Note_on_c, 0, 49, 80
1, 73118, Note_on_c, 0, 49, 0
1, 73120, Note_on_c, 0, 52, 80
1, 73137, Note_on_c, 1, 40, 0
1, 73150, Note_on_c, 0, 52, 0
1, 73152, Note_on_c, 0, 55, 80
1, 73182, Note_on_c, 0, 55, 0
1, 73184, Note_on_c, 0, 52, 80
1, 73214, Note_on_c, 0, 52, 0
1, 73216, Note_on_c, 0, 55, 80
1, 73246, Note_on_c, 0, 55, 0
1, 73248, Note_on_c, 0, 61, 80
1, 73278, Note_on_c, 0, 61, 0
1, 73280, Note_on_c, 0, 57, 80
1, 73310, Note_on_c, 0, 57, 0
1, 73312, Note_on_c, 0, 61, 80
1, 73342, Note_on_c, 0, 61, 0
1, 73344, Note_on_c, 1, 45, 80
1, 73344, Note_on_c, 1, 33, 80
1, 73376, Note_on_c, 0, 76, 80
1, 73406, Note_on_c, 0, 76, 0
1, 73408, Note_on_c, 0, 74, 80
1, 73438, Note_on_c, 0, 74, 0
1, 73440, Note_on_c, 0, 73, 80
1, 73470, Note_on_c, 0, 73, 0
1, 73472, Note_on_c, 0, 70, 80
1, 73502, Note_on_c, 0, 70, 0
1, 73504, Note_on_c, 0, 69, 80
1, 73521, Note_on_c, 1, 45, 0
1, 73521, Note_on_c, 1, 33, 0
1, 73534, Note_on_c, 0, 69, 0
1, 73536, Note_on_c, 0, 67, 80
1, 73566, Note_on_c, 0, 67, 0
1, 73568, Note_on_c, 0, 65, 80
1, 73598, Note_on_c, 0, 65, 0
1, 73600, Note_on_c, 0, 64, 80
1, 73630, Note_on_c, 0, 64, 0
1, 73632, Note_on_c, 0, 62, 80
1, 73662, Note_on_c, 0, 62, 0
1, 73664, Note_on_c, 0, 61, 80
1, 73694, Note_on_c, 0, 61, 0
1, 73696, Note_on_c, 0, 58, 80
1, 73726, Note_on_c, 0, 58, 0
1, 73728, Note_on_c, 0, 57, 80
1, 73728, Note_on_c, 1, 48, 80
1, 73728, Note_on_c, 1, 36, 80
1, 73758, Note_on_c, 0, 57, 0
1, 73760, Note_on_c, 0, 54, 80
1, 73790, Note_on_c, 0, 54, 0
1, 73792, Note_on_c, 0, 57, 80
1, 73822, Note_on_c, 0, 57, 0
1, 73824, Note_on_c, 0, 60, 80
1, 73854, Note_on_c, 0, 60, 0
1, 73856, Note_on_c, 0, 57, 80
1, 73886, Note_on_c, 0, 57, 0
1, 73888, Note_on_c, 0, 60, 80
1, 73905, Note_on_c, 1, 48, 0
1, 73905, Note_on_c, 1, 36, 0
1, 73918, Note_on_c, 0, 60, 0
1, 73920, Note_on_c, 0, 66, 80
1, 73950, Note_on_c, 0, 66, 0
1, 73952, Note_on_c, 0, 60, 80
1, 73982, Note_on_c, 0, 60, 0
1, 73984, Note_on_c, 0, 66, 80
1, 74014, Note_on_c, 0, 66, 0
1, 74016, Note_on_c, 0, 69, 80
1, 74046, Note_on_c, 0, 69, 0
1, 74048, Note_on_c, 0, 66, 80
1, 74078, Note_on_c, 0, 66, 0
1, 74080, Note_on_c, 0, 69, 80
1, 74110, Note_on_c, 0, 69, 0
1, 74112, Note_on_c, 0, 70, 80
1, 74112, Note_on_c, 1, 46, 80
1, 74142, Note_on_c, 0, 70, 0
1, 74142, Note_on_c, 1, 46, 0
1, 74144, Note_on_c, 0, 67, 80
1, 74144, Note_on_c, 1, 50, 80
1, 74174, Note_on_c, 0, 67, 0
1, 74174, Note_on_c, 1, 50, 0
1, 74176, Note_on_c, 0, 62, 81
1, 74176, Note_on_c, 1, 55, 80
1, 74206, Note_on_c, 0, 62, 0
1, 74206, Note_on_c, 1, 55, 0
1, 74208, Note_on_c, 0, 69, 81
1, 74208, Note_on_c, 1, 45, 80
1, 74238, Note_on_c, 0, 69, 0
1, 74238, Note_on_c, 1, 45, 0
1, 74240, Note_on_c, 0, 66, 82
1, 74240, Note_on_c, 1, 50, 80
1, 74270, Note_on_c, 0, 66, 0
1, 74270, Note_on_c, 1, 50, 0
1, 74272, Note_on_c, 0, 62, 82
1, 74272, Note_on_c, 1, 57, 80
1, 74302, Note_on_c, 0, 62, 0
1, 74302, Note_on_c, 1, 57, 0
1, 74304, Note_on_c, 0, 70, 83
1, 74304, Note_on_c, 1, 46, 80
1, 74334, Note_on_c, 0, 70, 0
1, 74334, Note_on_c, 1, 46, 0
1, 74336, Note_on_c, 0, 67, 83
1, 74336, Note_on_c, 1, 50, 80
1, 74366, Note_on_c, 0, 67, 0
1, 74366, Note_on_c, 1, 50, 0
1, 74368, Note_on_c, 0, 62, 84
1, 74368, Note_on_c, 1, 55, 80
1, 74398, Note_on_c, 0, 62, 0
1, 74398, Note_on_c, 1, 55, 0
1, 74400, Note_on_c, 0, 72, 84
1, 74400, Note_on_c, 1, 48, 80
1, 74430, Note_on_c, 0, 72, 0
1, 74430, Note_on_c, 1, 48, 0
1, 74432, Note_on_c, 0, 69, 85
1, 74432, Note_on_c, 1, 50, 80
1, 74462, Note_on_c, 0, 69, 0
1, 74462, Note_on_c, 1, 50, 0
1, 74464, Note_on_c, 0, 62, 86
1, 74464, Note_on_c, 1, 54, 80
1, 74494, Note_on_c, 0, 62, 0
1, 74494, Note_on_c, 1, 54, 0
1, 74496, Note_on_c, 0, 75, 86
1, 74496, Note_on_c, 1, 51, 80
1, 74526, Note_on_c, 0, 75, 0
1, 74526, Note_on_c, 1, 51, 0
1, 74528, Note_on_c, 0, 72, 86
1, 74528, Note_on_c, 1, 50, 80
1, 74558, Note_on_c, 0, 72, 0
1, 74558, Note_on_c, 1, 50, 0
1, 74560, Note_on_c, 0, 62, 86
1, 74560, Note_on_c, 1, 57, 80
1, 74590, Note_on_c, 0, 62, 0
1, 74590, Note_on_c, 1, 57, 0
1, 74592, Note_on_c, 0, 74, 86
1, 74592, Note_on_c, 1, 50, 80
1, 74622, Note_on_c, 0, 74, 0
1, 74622, Note_on_c, 1, 50, 0
1, 74624, Note_on_c, 0, 70, 86
1, 74624, Note_on_c, 1, 50, 80
1, 74654, Note_on_c, 0, 70, 0
1, 74654, Note_on_c, 1, 50, 0
1, 74656, Note_on_c, 0, 62, 86
1, 74656, Note_on_c, 1, 55, 80
1, 74686, Note_on_c, 0, 62, 0
1, 74686, Note_on_c, 1, 55, 0
1, 74688, Note_on_c, 0, 72, 86
1, 74688, Note_on_c, 1, 48, 80
1, 74718, Note_on_c, 0, 72, 0
1, 74718, Note_on_c, 1, 48, 0
1, 74720, Note_on_c, 0, 69, 86
1, 74720, Note_on_c, 1, 50, 80
1, 74750, Note_on_c, 0, 69, 0
1, 74750, Note_on_c, 1, 50, 0
1, 74752, Note_on_c, 0, 62, 86
1, 74752, Note_on_c, 1, 54, 80
1, 74782, Note_on_c, 0, 62, 0
1, 74782, Note_on_c, 1, 54, 0
1, 74784, Note_on_c, 0, 70, 86
1, 74784, Note_on_c, 1, 46, 80
1, 74814, Note_on_c, 0, 70, 0
1, 74814, Note_on_c, 1, 46, 0
1, 74816, Note_on_c, 0, 67, 86
1, 74816, Note_on_c, 1, 50, 80
1, 74846, Note_on_c, 0, 67, 0
1, 74846, Note_on_c, 1, 50, 0
1, 74848, Note_on_c, 0, 62, 86
1, 74848, Note_on_c, 1, 55, 80
1, 74878, Note_on_c, 0, 62, 0
1, 74878, Note_on_c, 1, 55, 0
1, 74880, Note_on_c, 0, 72, 86
1, 74880, Note_on_c, 1, 48, 80
1, 74910, Note_on_c, 0, 72, 0
1, 74910, Note_on_c, 1, 48, 0
1, 74912, Note_on_c, 0, 69, 87
1, 74912, Note_on_c, 1, 51, 80
1, 74942, Note_on_c, 0, 69, 0
1, 74942, Note_on_c, 1, 51, 0
1, 74944, Note_on_c, 0, 63, 88
1, 74944, Note_on_c, 1, 57, 81
1, 74974, Note_on_c, 0, 63, 0
1, 74974, Note_on_c, 1, 57, 0
1, 74976, Note_on_c, 0, 72, 89
1, 74976, Note_on_c, 1, 48, 82
1, 75006, Note_on_c, 0, 72, 0
1, 75006, Note_on_c, 1, 48, 0
1, 75008, Note_on_c, 0, 69, 90
1, 75008, Note_on_c, 1, 51, 83
1, 75038, Note_on_c, 0, 69, 0
1, 75038, Note_on_c, 1, 51, 0
1, 75040, Note_on_c, 0, 63, 91
1, 75040, Note_on_c, 1, 57, 84
1, 75070, Note_on_c, 0, 63, 0
1, 75070, Note_on_c, 1, 57, 0
1, 75072, Note_on_c, 0, 73, 92
1, 75072, Note_on_c, 1, 49, 85
1, 75095, Note_on_c, 0, 73, 0
1, 75095, Note_on_c, 1, 49, 0
1, 75096, Note_on_c, 0, 67, 94
1, 75096, Note_on_c, 1, 52, 86
1, 75119, Note_on_c, 0, 67, 0
1, 75119, Note_on_c, 1, 52, 0
1, 75120, Note_on_c, 0, 64, 94
1, 75120, Note_on_c, 1, 55, 86
1, 75143, Note_on_c, 0, 64, 0
1, 75143, Note_on_c, 1, 55, 0
1, 75144, Note_on_c, 0, 67, 94
1, 75144, Note_on_c, 1, 52, 86
1, 75167, Note_on_c, 0, 67, 0
1, 75167, Note_on_c, 1, 52, 0
1, 75168, Note_on_c, 0, 73, 94
1, 75168, Note_on_c, 1, 49, 86
1, 75191, Note_on_c, 0, 73, 0
1, 75191, Note_on_c, 1, 49, 0
1, 75192, Note_on_c, 0, 67, 94
1, 75192, Note_on_c, 1, 52, 86
1, 75215, Note_on_c, 0, 67, 0
1, 75215, Note_on_c, 1, 52, 0
1, 75216, Note_on_c, 0, 64, 94
1, 75216, Note_on_c, 1, 55, 86
1, 75239, Note_on_c, 0, 64, 0
1, 75239, Note_on_c, 1, 55, 0
1, 75240, Note_on_c, 0, 67, 94
1, 75240, Note_on_c, 1, 52, 86
1, 75263, Note_on_c, 0, 67, 0
1, 75263, Note_on_c, 1, 52, 0
1, 75264, Note_on_c, 0, 74, 94
1, 75264, Note_on_c, 1, 50, 86
1, 75309, Note_on_c, 0, 74, 0
1, 75312, Note_on_c, 0, 62, 94
1, 75353, Note_on_c, 1, 50, 0
1, 75357, Note_on_c, 0, 62, 0
1, 75648, Note_on_c, 0, 75, 70
1, 75648, Note_on_c, 0, 72, 70
1, 75696, Note_on_c, 1, 69, 64
1, 75741, Note_on_c, 1, 69, 0
1, 75744, Note_on_c, 1, 66, 64
1, 75789, Note_on_c, 1, 66, 0
1, 75792, Note_on_c, 1, 69, 64
1, 75825, Note_on_c, 0, 75, 0
1, 75825, Note_on_c, 0, 72, 0
1, 75837, Note_on_c, 1, 69, 0
1, 75840, Note_on_c, 0, 74, 70
1, 75840, Note_on_c, 0, 72, 70
1, 75888, Note_on_c, 1, 69, 64
1, 75933, Note_on_c, 1, 69, 0
1, 75936, Note_on_c, 1, 66, 64
1, 75981, Note_on_c, 1, 66, 0
1, 75984, Note_on_c, 1, 69, 64
1, 76017, Note_on_c, 0, 74, 0
1, 76017, Note_on_c, 0, 72, 0
1, 76029, Note_on_c, 1, 69, 0
1, 76032, Note_on_c, 0, 74, 70
1, 76032, Note_on_c, 0, 72, 70
1, 76080, Note_on_c, 1, 69, 64
1, 76125, Note_on_c, 1, 69, 0
1, 76128, Note_on_c, 1, 66, 64
1, 76173, Note_on_c, 1, 66, 0
1, 76176, Note_on_c, 1, 69, 64
1, 76209, Note_on_c, 0, 74, 0
1, 76209, Note_on_c, 0, 72, 0
1, 76221, Note_on_c, 1, 69, 0
1, 76224, Note_on_c, 0, 74, 70
1, 76224, Note_on_c, 0, 70, 70
1, 76224, Note_on_c, 1, 67, 64
1, 76271, Note_on_c, 0, 74, 0
1, 76271, Note_on_c, 0, 70, 0
1, 76271, Note_on_c, 1, 67, 0
1, 76272, Note_on_c, 0, 70, 71
1, 76272, Note_on_c, 1, 67, 64
1, 76317, Note_on_c, 0, 70, 0
1, 76317, Note_on_c, 1, 67, 0
1, 76320, Note_on_c, 0, 69, 72
1, 76320, Note_on_c, 1, 66, 64
1, 76365, Note_on_c, 0, 69, 0
1, 76365, Note_on_c, 1, 66, 0
1, 76368, Note_on_c, 0, 70, 73
1, 76368, Note_on_c, 1, 67, 64
1, 76413, Note_on_c, 0, 70, 0
1, 76413, Note_on_c, 1, 67, 0
1, 76416, Note_on_c, 0, 82, 75
1, 76416, Note_on_c, 0, 79, 75
1, 76464, Note_on_c, 1, 76, 64
1, 76509, Note_on_c, 1, 76, 0
1, 76512, Note_on_c, 1, 73, 64
1, 76557, Note_on_c, 1, 73, 0
1, 76560, Note_on_c, 1, 76, 64
1, 76593, Note_on_c, 0, 82, 0
1, 76593, Note_on_c, 0, 79, 0
1, 76605, Note_on_c, 1, 76, 0
1, 76608, Note_on_c, 0, 81, 71
1, 76608, Note_on_c, 0, 79, 71
1, 76608, Note_on_c, 1, 73, 64
1, 76697, Note_on_c, 0, 81, 0
1, 76697, Note_on_c, 0, 79, 0
1, 76697, Note_on_c, 1, 73, 0
1, 76752, Note_on_c, 0, 74, 80
1, 76772, Note_on_c, 0, 74, 0
1, 76800, Note_on_c, 0, 74, 96
1, 76848, Note_on_c, 0, 74, 0
1, 76848, Note_on_c, 0, 76, 80
1, 76863, Note_on_c, 0, 76, 0
1, 76864, Note_on_c, 0, 74, 80
1, 76879, Note_on_c, 0, 74, 0
1, 76880, Note_on_c, 0, 73, 80
1, 76895, Note_on_c, 0, 73, 0
1, 76896, Note_on_c, 0, 74, 80
1, 76941, Note_on_c, 0, 74, 0
1, 76944, Note_on_c, 0, 77, 80
1, 76964, Note_on_c, 0, 77, 0
1, 76992, Note_on_c, 0, 69, 96
1, 76992, Note_on_c, 1, 57, 96
1, 77040, Note_on_c, 0, 69, 0
1, 77040, Note_on_c, 0, 70, 80
1, 77040, Note_on_c, 1, 57, 0
1, 77040, Note_on_c, 1, 58, 80
1, 77055, Note_on_c, 0, 70, 0
1, 77055, Note_on_c, 1, 58, 0
1, 77056, Note_on_c, 0, 69, 80
1, 77056, Note_on_c, 1, 57, 80
1, 77071, Note_on_c, 0, 69, 0
1, 77071, Note_on_c, 1, 57, 0
1, 77072, Note_on_c, 0, 67, 80
1, 77072, Note_on_c, 1, 55, 80
1, 77087, Note_on_c, 0, 67, 0
1, 77087, Note_on_c, 1, 55, 0
1, 77088, Note_on_c, 0, 69, 80
1, 77088, Note_on_c, 1, 57, 80
1, 77133, Note_on_c, 0, 69, 0
1, 77133, Note_on_c, 1, 57, 0
1, 77136, Note_on_c, 0, 74, 80
1, 77136, Note_on_c, 1, 62, 80
1, 77156, Note_on_c, 0, 74, 0
1, 77156, Note_on_c, 1, 62, 0
1, 77184, Note_on_c, 0, 65, 96
1, 77184, Note_on_c, 1, 53, 96
1, 77232, Note_on_c, 0, 65, 0
1, 77232, Note_on_c, 0, 67, 80
1, 77232, Note_on_c, 1, 53, 0
1, 77232, Note_on_c, 1, 55, 80
1, 77247, Note_on_c, 0, 67, 0
1, 77247, Note_on_c, 1, 55, 0
1, 77248, Note_on_c, 0, 65, 80
1, 77248, Note_on_c, 1, 53, 80
1, 77263, Note_on_c, 0, 65, 0
1, 77263, Note_on_c, 1, 53, 0
1, 77264, Note_on_c, 0, 64, 80
1, 77264, Note_on_c, 1, 52, 80
1, 77279, Note_on_c, 0, 64, 0
1, 77279, Note_on_c, 1, 52, 0
1, 77280, Note_on_c, 0, 65, 80
1, 77280, Note_on_c, 1, 53, 80
1, 77325, Note_on_c, 0, 65, 0
1, 77325, Note_on_c, 1, 53, 0
1, 77328, Note_on_c, 0, 69, 80
1, 77328, Note_on_c, 1, 57, 80
1, 77348, Note_on_c, 1, 57, 0
1, 77373, Note_on_c, 0, 69, 0
1, 77376, Note_on_c, 0, 69, 96
1, 77376, Note_on_c, 1, 57, 96
1, 77424, Note_on_c, 0, 69, 0
1, 77424, Note_on_c, 0, 62, 80
1, 77469, Note_on_c, 0, 62, 0
1, 77472, Note_on_c, 0, 70, 80
1, 77472, Note_on_c, 1, 57, 0
1, 77517, Note_on_c, 0, 70, 0
1, 77520, Note_on_c, 0, 69, 80
1, 77565, Note_on_c, 0, 69, 0
1, 77568, Note_on_c, 0, 67, 80
1, 77568, Note_on_c, 0, 64, 80
1, 77568, Note_on_c, 1, 45, 80
1, 77568, Note_on_c, 1, 33, 80
1, 77613, Note_on_c, 0, 67, 0
1, 77613, Note_on_c, 0, 64, 0
1, 77616, Note_on_c, 0, 65, 80
1, 77616, Note_on_c, 0, 62, 80
1, 77661, Note_on_c, 0, 65, 0
1, 77661, Note_on_c, 0, 62, 0
1, 77664, Note_on_c, 0, 64, 81
1, 77664, Note_on_c, 0, 61, 81
1, 77709, Note_on_c, 0, 64, 0
1, 77709, Note_on_c, 0, 61, 0
1, 77712, Note_on_c, 0, 62, 82
1, 77712, Note_on_c, 0, 58, 82
1, 77757, Note_on_c, 0, 62, 0
1, 77757, Note_on_c, 0, 58, 0
1, 77760, Note_on_c, 0, 61, 83
1, 77760, Note_on_c, 0, 57, 83
1, 77805, Note_on_c, 0, 61, 0
1, 77805, Note_on_c, 0, 57, 0
1, 77808, Note_on_c, 0, 58, 83
1, 77808, Note_on_c, 0, 55, 83
1, 77853, Note_on_c, 0, 58, 0
1, 77853, Note_on_c, 0, 55, 0
1, 77856, Note_on_c, 0, 57, 84
1, 77856, Note_on_c, 0, 53, 84
1, 77901, Note_on_c, 0, 57, 0
1, 77901, Note_on_c, 0, 53, 0
1, 77904, Note_on_c, 0, 55, 85
1, 77904, Note_on_c, 0, 52, 85
1, 77922, Note_on_c, 1, 45, 0
1, 77922, Note_on_c, 1, 33, 0
1, 77949, Note_on_c, 0, 55, 0
1, 77949, Note_on_c, 0, 52, 0
1, 77952, Note_on_c, 0, 53, 86
1, 77952, Note_on_c, 0, 50, 86
1, 77952, Note_on_c, 1, 46, 86
1, 77952, Note_on_c, 1, 34, 86
1, 77991, Note_on_c, 0, 53, 0
1, 77991, Note_on_c, 0, 50, 0
1, 77991, Note_on_c, 1, 46, 0
1, 77991, Note_on_c, 1, 34, 0
1, 78144, Note_on_c, 0, 65, 86
1, 78144, Note_on_c, 0, 62, 86
1, 78144, Note_on_c, 0, 59, 86
1, 78144, Note_on_c, 1, 56, 86
1, 78144, Note_on_c, 1, 44, 86
1, 78183, Note_on_c, 0, 65, 0
1, 78183, Note_on_c, 0, 62, 0
1, 78183, Note_on_c, 0, 59, 0
1, 78183, Note_on_c, 1, 56, 0
1, 78183, Note_on_c, 1, 44, 0
1, 78336, Note_on_c, 0, 64, 86
1, 78336, Note_on_c, 0, 62, 86
1, 78336, Note_on_c, 1, 57, 86
1, 78336, Note_on_c, 1, 45, 86
1, 78375, Note_on_c, 0, 64, 0
1, 78375, Note_on_c, 0, 62, 0
1, 78375, Note_on_c, 1, 57, 0
1, 78375, Note_on_c, 1, 45, 0
1, 78528, Note_on_c, 0, 69, 86
1, 78528, Note_on_c, 0, 64, 86
1, 78528, Note_on_c, 0, 61, 86
1, 78528, Note_on_c, 1, 57, 86
1, 78528, Note_on_c, 1, 45, 86
1, 78617, Note_on_c, 0, 69, 0
1, 78617, Note_on_c, 0, 64, 0
1, 78617, Note_on_c, 0, 61, 0
1, 78617, Note_on_c, 1, 57, 0
1, 78617, Note_on_c, 1, 45, 0
1, 78720, Note_on_c, 1, 50, 86
1, 78720, Note_on_c, 1, 38, 86
1, 78768, Note_on_c, 0, 61, 75
1, 78809, Note_on_c, 1, 50, 0
1, 78809, Note_on_c, 1, 38, 0
1, 78813, Note_on_c, 0, 61, 0
1, 78816, Note_on_c, 0, 62, 74
1, 78861, Note_on_c, 0, 62, 0
1, 78864, Note_on_c, 0, 61, 73
1, 78909, Note_on_c, 0, 61, 0
1, 78912, Note_on_c, 0, 62, 73
1, 78957, Note_on_c, 0, 62, 0
1, 78960, Note_on_c, 0, 64, 72
1, 78960, Note_on_c, 0, 61, 72
1, 79005, Note_on_c, 0, 64, 0
1, 79005, Note_on_c, 0, 61, 0
1, 79008, Note_on_c, 0, 65, 72
1, 79008, Note_on_c, 0, 62, 72
1, 79053, Note_on_c, 0, 65, 0
1, 79053, Note_on_c, 0, 62, 0
1, 79056, Note_on_c, 0, 64, 71
1, 79056, Note_on_c, 0, 61, 71
1, 79101, Note_on_c, 0, 64, 0
1, 79101, Note_on_c, 0, 61, 0
1, 79104, Note_on_c, 0, 65, 71
1, 79104, Note_on_c, 0, 62, 71
1, 79104, Note_on_c, 1, 50, 86
1, 79104, Note_on_c, 1, 38, 86
1, 79149, Note_on_c, 0, 65, 0
1, 79149, Note_on_c, 0, 62, 0
1, 79152, Note_on_c, 0, 73, 70
1, 79152, Note_on_c, 0, 64, 70
1, 79193, Note_on_c, 1, 50, 0
1, 79193, Note_on_c, 1, 38, 0
1, 79197, Note_on_c, 0, 73, 0
1, 79197, Note_on_c, 0, 64, 0
1, 79200, Note_on_c, 0, 74, 70
1, 79200, Note_on_c, 0, 65, 70
1, 79245, Note_on_c, 0, 74, 0
1, 79245, Note_on_c, 0, 65, 0
1, 79248, Note_on_c, 0, 73, 69
1, 79248, Note_on_c, 0, 64, 69
1, 79293, Note_on_c, 0, 73, 0
1, 79293, Note_on_c, 0, 64, 0
1, 79296, Note_on_c, 0, 74, 69
1, 79296, Note_on_c, 0, 65, 69
1, 79341, Note_on_c, 0, 74, 0
1, 79341, Note_on_c, 0, 65, 0
1, 79344, Note_on_c, 0, 76, 68
1, 79344, Note_on_c, 0, 73, 68
1, 79389, Note_on_c, 0, 76, 0
1, 79389, Note_on_c, 0, 73, 0
1, 79392, Note_on_c, 0, 77, 68
1, 79392, Note_on_c, 0, 74, 68
1, 79437, Note_on_c, 0, 77, 0
1, 79437, Note_on_c, 0, 74, 0
1, 79440, Note_on_c, 0, 76, 67
1, 79440, Note_on_c, 0, 73, 67
1, 79485, Note_on_c, 0, 76, 0
1, 79485, Note_on_c, 0, 73, 0
1, 79488, Note_on_c, 0, 77, 67
1, 79488, Note_on_c, 0, 74, 67
1, 79533, Note_on_c, 0, 77, 0
1, 79533, Note_on_c, 0, 74, 0
1, 79536, Note_on_c, 0, 85, 66
1, 79536, Note_on_c, 0, 76, 66
1, 79581, Note_on_c, 0, 85, 0
1, 79581, Note_on_c, 0, 76, 0
1, 79584, Note_on_c, 0, 86, 66
1, 79584, Note_on_c, 0, 77, 66
1, 79629, Note_on_c, 0, 86, 0
1, 79629, Note_on_c, 0, 77, 0
1, 79632, Note_on_c, 0, 85, 65
1, 79632, Note_on_c, 0, 76, 65
1, 79677, Note_on_c, 0, 85, 0
1, 79677, Note_on_c, 0, 76, 0
1, 79680, Note_on_c, 0, 86, 65
1, 79680, Note_on_c, 0, 77, 65
1, 79769, Note_on_c, 0, 86, 0
1, 79769, Note_on_c, 0, 77, 0
1, 79824, Note_on_c, 0, 82, 64
1, 79844, Note_on_c, 0, 82, 0
1, 79872, Note_on_c, 0, 82, 64
1, 79872, Note_on_c, 0, 79, 64
1, 79872, Note_on_c, 0, 76, 64
1, 79872, Note_on_c, 0, 73, 64
1, 80160, Note_on_c, 0, 82, 0
1, 80160, Note_on_c, 0, 79, 0
1, 80160, Note_on_c, 0, 76, 0
1, 80160, Note_on_c, 0, 73, 0
1, 80160, Note_on_c, 0, 81, 64
1, 80160, Note_on_c, 0, 77, 64
1, 80160, Note_on_c, 0, 74, 64
1, 80521, Note_on_c, 0, 81, 0
1, 80521, Note_on_c, 0, 77, 0
1, 80521, Note_on_c, 0, 74, 0
1, 80640, Note_on_c, 0, 74, 0
1, 80817, Note_on_c, 0, 74, 0
1, 80827, End_track
0, 0, End_of_file