0, 0, Header, 0, 1, 96
1, 0, Start_track
1, 0, Tempo, 444444
1, 0, Note_on_c, 0, 71, 75
1, 0, Note_on_c, 1, 68, 69
1, 0, Note_on_c, 1, 64, 69
1, 89, Note_on_c, 0, 71, 0
1, 89, Note_on_c, 1, 68, 0
1, 89, Note_on_c, 1, 64, 0
1, 96, Note_on_c, 0, 71, 75
1, 96, Note_on_c, 1, 68, 69
1, 96, Note_on_c, 1, 64, 69
1, 185, Note_on_c, 0, 71, 0
1, 185, Note_on_c, 1, 68, 0
1, 185, Note_on_c, 1, 64, 0
1, 192, Note_on_c, 0, 71, 75
1, 192, Note_on_c, 1, 68, 69
1, 192, Note_on_c, 1, 64, 69
1, 281, Note_on_c, 0, 71, 0
1, 281, Note_on_c, 1, 68, 0
1, 281, Note_on_c, 1, 64, 0
1, 288, Note_on_c, 0, 73, 75
1, 288, Note_on_c, 1, 68, 69
1, 288, Note_on_c, 1, 64, 69
1, 303, Note_on_c, 0, 73, 0
1, 304, Note_on_c, 0, 71, 75
1, 319, Note_on_c, 0, 71, 0
1, 320, Note_on_c, 0, 73, 75
1, 335, Note_on_c, 0, 73, 0
1, 336, Note_on_c, 0, 71, 75
1, 351, Note_on_c, 0, 71, 0
1, 352, Note_on_c, 0, 73, 75
1, 367, Note_on_c, 0, 73, 0
1, 368, Note_on_c, 0, 71, 75
1, 377, Note_on_c, 1, 68, 0
1, 377, Note_on_c, 1, 64, 0
1, 383, Note_on_c, 0, 71, 0
1, 384, Note_on_c, 0, 73, 75
1, 384, Note_on_c, 1, 68, 69
1, 384, Note_on_c, 1, 64, 69
1, 399, Note_on_c, 0, 73, 0
1, 400, Note_on_c, 0, 71, 75
1, 415, Note_on_c, 0, 71, 0
1, 416, Note_on_c, 0, 73, 75
1, 431, Note_on_c, 0, 73, 0
1, 432, Note_on_c, 0, 71, 75
1, 447, Note_on_c, 0, 71, 0
1, 448, Note_on_c, 0, 69, 75
1, 463, Note_on_c, 0, 69, 0
1, 464, Note_on_c, 0, 71, 75
1, 473, Note_on_c, 1, 68, 0
1, 473, Note_on_c, 1, 64, 0
1, 479, Note_on_c, 0, 71, 0
1, 480, Note_on_c, 0, 76, 75
1, 480, Note_on_c, 1, 68, 69
1, 480, Note_on_c, 1, 64, 69
1, 528, Note_on_c, 0, 76, 0
1, 528, Note_on_c, 0, 75, 75
1, 548, Note_on_c, 0, 75, 0
1, 569, Note_on_c, 1, 68, 0
1, 569, Note_on_c, 1, 64, 0
1, 576, Note_on_c, 0, 75, 75
1, 576, Note_on_c, 1, 69, 69
1, 576, Note_on_c, 1, 64, 69
1, 624, Note_on_c, 0, 75, 0
1, 624, Note_on_c, 0, 73, 75
1, 644, Note_on_c, 0, 73, 0
1, 665, Note_on_c, 1, 69, 0
1, 665, Note_on_c, 1, 64, 0
1, 672, Note_on_c, 0, 73, 75
1, 672, Note_on_c, 1, 69, 69
1, 672, Note_on_c, 1, 64, 69
1, 720, Note_on_c, 0, 73, 0
1, 720, Note_on_c, 0, 81, 75
1, 740, Note_on_c, 0, 81, 0
1, 761, Note_on_c, 1, 69, 0
1, 761, Note_on_c, 1, 64, 0
1, 768, Note_on_c, 0, 81, 75
1, 768, Note_on_c, 1, 69, 69
1, 768, Note_on_c, 1, 64, 69
1, 816, Note_on_c, 0, 81, 0
1, 816, Note_on_c, 0, 73, 75
1, 836, Note_on_c, 0, 73, 0
1, 857, Note_on_c, 1, 69, 0
1, 857, Note_on_c, 1, 64, 0
1, 864, Note_on_c, 0, 73, 75
1, 864, Note_on_c, 1, 69, 69
1, 864, Note_on_c, 1, 64, 69
1, 876, Note_on_c, 0, 73, 0
1, 876, Note_on_c, 0, 75, 75
1, 888, Note_on_c, 0, 75, 0
1, 888, Note_on_c, 0, 73, 75
1, 900, Note_on_c, 0, 73, 0
1, 900, Note_on_c, 0, 75, 75
1, 912, Note_on_c, 0, 75, 0
1, 912, Note_on_c, 0, 71, 75
1, 932, Note_on_c, 0, 71, 0
1, 953, Note_on_c, 1, 69, 0
1, 953, Note_on_c, 1, 64, 0
1, 960, Note_on_c, 0, 71, 75
1, 960, Note_on_c, 1, 68, 69
1, 960, Note_on_c, 1, 64, 69
1, 1049, Note_on_c, 1, 68, 0
1, 1049, Note_on_c, 1, 64, 0
1, 1093, Note_on_c, 0, 71, 0
1, 1104, Note_on_c, 0, 83, 69
1, 1149, Note_on_c, 0, 83, 0
1, 1152, Note_on_c, 0, 83, 69
1, 1200, Note_on_c, 0, 83, 0
1, 1200, Note_on_c, 0, 81, 69
1, 1220, Note_on_c, 0, 81, 0
1, 1248, Note_on_c, 0, 81, 69
1, 1248, Note_on_c, 1, 64, 69
1, 1248, Note_on_c, 1, 61, 69
1, 1344, Note_on_c, 1, 64, 0
1, 1344, Note_on_c, 1, 61, 0
1, 1344, Note_on_c, 1, 63, 69
1, 1344, Note_on_c, 1, 59, 69
1, 1381, Note_on_c, 0, 81, 0
1, 1392, Note_on_c, 0, 80, 69
1, 1433, Note_on_c, 1, 63, 0
1, 1433, Note_on_c, 1, 59, 0
1, 1437, Note_on_c, 0, 80, 0
1, 1440, Note_on_c, 0, 80, 69
1, 1488, Note_on_c, 0, 80, 0
1, 1488, Note_on_c, 0, 78, 69
1, 1508, Note_on_c, 0, 78, 0
1, 1536, Note_on_c, 0, 78, 69
1, 1536, Note_on_c, 1, 61, 69
1, 1536, Note_on_c, 1, 57, 69
1, 1632, Note_on_c, 1, 61, 0
1, 1632, Note_on_c, 1, 57, 0
1, 1632, Note_on_c, 1, 59, 69
1, 1632, Note_on_c, 1, 56, 69
1, 1669, Note_on_c, 0, 78, 0
1, 1680, Note_on_c, 0, 76, 69
1, 1721, Note_on_c, 1, 59, 0
1, 1721, Note_on_c, 1, 56, 0
1, 1725, Note_on_c, 0, 76, 0
1, 1728, Note_on_c, 0, 75, 69
1, 1776, Note_on_c, 0, 75, 0
1, 1776, Note_on_c, 0, 78, 69
1, 1796, Note_on_c, 0, 78, 0
1, 1824, Note_on_c, 0, 78, 69
1, 1824, Note_on_c, 1, 51, 69
1, 1872, Note_on_c, 0, 78, 0
1, 1872, Note_on_c, 0, 81, 69
1, 1892, Note_on_c, 0, 81, 0
1, 1913, Note_on_c, 1, 51, 0
1, 1920, Note_on_c, 0, 81, 69
1, 1920, Note_on_c, 0, 78, 69
1, 1920, Note_on_c, 1, 52, 69
1, 1968, Note_on_c, 0, 81, 0
1, 1968, Note_on_c, 0, 78, 0
1, 1968, Note_on_c, 0, 80, 69
1, 1968, Note_on_c, 0, 76, 69
1, 1988, Note_on_c, 0, 80, 0
1, 1988, Note_on_c, 0, 76, 0
1, 2009, Note_on_c, 1, 52, 0
1, 2016, Note_on_c, 0, 80, 69
1, 2016, Note_on_c, 0, 76, 69
1, 2016, Note_on_c, 1, 59, 69
1, 2105, Note_on_c, 1, 59, 0
1, 2112, Note_on_c, 0, 80, 0
1, 2112, Note_on_c, 0, 76, 0
1, 2112, Note_on_c, 0, 78, 69
1, 2112, Note_on_c, 0, 75, 69
1, 2112, Note_on_c, 1, 54, 69
1, 2201, Note_on_c, 0, 78, 0
1, 2201, Note_on_c, 0, 75, 0
1, 2201, Note_on_c, 1, 54, 0
1, 2208, Note_on_c, 1, 47, 69
1, 2297, Note_on_c, 1, 47, 0
1, 2304, Note_on_c, 0, 71, 75
1, 2304, Note_on_c, 1, 68, 69
1, 2304, Note_on_c, 1, 64, 69
1, 2393, Note_on_c, 0, 71, 0
1, 2393, Note_on_c, 1, 68, 0
1, 2393, Note_on_c, 1, 64, 0
1, 2400, Note_on_c, 0, 71, 75
1, 2400, Note_on_c, 1, 68, 69
1, 2400, Note_on_c, 1, 64, 69
1, 2489, Note_on_c, 0, 71, 0
1, 2489, Note_on_c, 1, 68, 0
1, 2489, Note_on_c, 1, 64, 0
1, 2496, Note_on_c, 0, 71, 75
1, 2496, Note_on_c, 1, 68, 69
1, 2496, Note_on_c, 1, 64, 69
1, 2585, Note_on_c, 0, 71, 0
1, 2585, Note_on_c, 1, 68, 0
1, 2585, Note_on_c, 1, 64, 0
1, 2592, Note_on_c, 0, 73, 75
1, 2592, Note_on_c, 1, 68, 69
1, 2592, Note_on_c, 1, 64, 69
1, 2607, Note_on_c, 0, 73, 0
1, 2608, Note_on_c, 0, 71, 75
1, 2623, Note_on_c, 0, 71, 0
1, 2624, Note_on_c, 0, 73, 75
1, 2639, Note_on_c, 0, 73, 0
1, 2640, Note_on_c, 0, 71, 75
1, 2655, Note_on_c, 0, 71, 0
1, 2656, Note_on_c, 0, 73, 75
1, 2671, Note_on_c, 0, 73, 0
1, 2672, Note_on_c, 0, 71, 75
1, 2681, Note_on_c, 1, 68, 0
1, 2681, Note_on_c, 1, 64, 0
1, 2687, Note_on_c, 0, 71, 0
1, 2688, Note_on_c, 0, 73, 75
1, 2688, Note_on_c, 1, 68, 69
1, 2688, Note_on_c, 1, 64, 69
1, 2703, Note_on_c, 0, 73, 0
1, 2704, Note_on_c, 0, 71, 75
1, 2719, Note_on_c, 0, 71, 0
1, 2720, Note_on_c, 0, 73, 75
1, 2735, Note_on_c, 0, 73, 0
1, 2736, Note_on_c, 0, 71, 75
1, 2751, Note_on_c, 0, 71, 0
1, 2752, Note_on_c, 0, 69, 75
1, 2767, Note_on_c, 0, 69, 0
1, 2768, Note_on_c, 0, 71, 75
1, 2777, Note_on_c, 1, 68, 0
1, 2777, Note_on_c, 1, 64, 0
1, 2783, Note_on_c, 0, 71, 0
1, 2784, Note_on_c, 0, 76, 75
1, 2784, Note_on_c, 1, 68, 69
1, 2784, Note_on_c, 1, 64, 69
1, 2832, Note_on_c, 0, 76, 0
1, 2832, Note_on_c, 0, 75, 75
1, 2852, Note_on_c, 0, 75, 0
1, 2873, Note_on_c, 1, 68, 0
1, 2873, Note_on_c, 1, 64, 0
1, 2880, Note_on_c, 0, 75, 75
1, 2880, Note_on_c, 1, 69, 69
1, 2880, Note_on_c, 1, 64, 69
1, 2928, Note_on_c, 0, 75, 0
1, 2928, Note_on_c, 0, 73, 75
1, 2948, Note_on_c, 0, 73, 0
1, 2969, Note_on_c, 1, 69, 0
1, 2969, Note_on_c, 1, 64, 0
1, 2976, Note_on_c, 0, 73, 75
1, 2976, Note_on_c, 1, 69, 69
1, 2976, Note_on_c, 1, 64, 69
1, 3024, Note_on_c, 0, 73, 0
1, 3024, Note_on_c, 0, 81, 75
1, 3044, Note_on_c, 0, 81, 0
1, 3065, Note_on_c, 1, 69, 0
1, 3065, Note_on_c, 1, 64, 0
1, 3072, Note_on_c, 0, 81, 75
1, 3072, Note_on_c, 1, 69, 69
1, 3072, Note_on_c, 1, 64, 69
1, 3120, Note_on_c, 0, 81, 0
1, 3120, Note_on_c, 0, 73, 75
1, 3140, Note_on_c, 0, 73, 0
1, 3161, Note_on_c, 1, 69, 0
1, 3161, Note_on_c, 1, 64, 0
1, 3168, Note_on_c, 0, 73, 75
1, 3168, Note_on_c, 1, 69, 69
1, 3168, Note_on_c, 1, 64, 69
1, 3180, Note_on_c, 0, 73, 0
1, 3180, Note_on_c, 0, 75, 75
1, 3192, Note_on_c, 0, 75, 0
1, 3192, Note_on_c, 0, 73, 75
1, 3204, Note_on_c, 0, 73, 0
1, 3204, Note_on_c, 0, 75, 75
1, 3216, Note_on_c, 0, 75, 0
1, 3216, Note_on_c, 0, 71, 75
1, 3236, Note_on_c, 0, 71, 0
1, 3257, Note_on_c, 1, 69, 0
1, 3257, Note_on_c, 1, 64, 0
1, 3264, Note_on_c, 0, 71, 75
1, 3264, Note_on_c, 1, 68, 69
1, 3264, Note_on_c, 1, 64, 69
1, 3353, Note_on_c, 1, 68, 0
1, 3353, Note_on_c, 1, 64, 0
1, 3397, Note_on_c, 0, 71, 0
1, 3408, Note_on_c, 0, 83, 69
1, 3453, Note_on_c, 0, 83, 0
1, 3456, Note_on_c, 0, 83, 69
1, 3504, Note_on_c, 0, 83, 0
1, 3504, Note_on_c, 0, 81, 69
1, 3524, Note_on_c, 0, 81, 0
1, 3552, Note_on_c, 0, 81, 69
1, 3552, Note_on_c, 1, 64, 69
1, 3552, Note_on_c, 1, 61, 69
1, 3648, Note_on_c, 1, 64, 0
1, 3648, Note_on_c, 1, 61, 0
1, 3648, Note_on_c, 1, 63, 69
1, 3648, Note_on_c, 1, 59, 69
1, 3685, Note_on_c, 0, 81, 0
1, 3696, Note_on_c, 0, 80, 69
1, 3737, Note_on_c, 1, 63, 0
1, 3737, Note_on_c, 1, 59, 0
1, 3741, Note_on_c, 0, 80, 0
1, 3744, Note_on_c, 0, 80, 69
1, 3792, Note_on_c, 0, 80, 0
1, 3792, Note_on_c, 0, 78, 69
1, 3812, Note_on_c, 0, 78, 0
1, 3840, Note_on_c, 0, 78, 69
1, 3840, Note_on_c, 1, 61, 69
1, 3840, Note_on_c, 1, 57, 69
1, 3936, Note_on_c, 1, 61, 0
1, 3936, Note_on_c, 1, 57, 0
1, 3936, Note_on_c, 1, 59, 69
1, 3936, Note_on_c, 1, 56, 69
1, 3973, Note_on_c, 0, 78, 0
1, 3984, Note_on_c, 0, 76, 69
1, 4025, Note_on_c, 1, 59, 0
1, 4025, Note_on_c, 1, 56, 0
1, 4029, Note_on_c, 0, 76, 0
1, 4032, Note_on_c, 0, 75, 69
1, 4080, Note_on_c, 0, 75, 0
1, 4080, Note_on_c, 0, 78, 69
1, 4100, Note_on_c, 0, 78, 0
1, 4128, Note_on_c, 0, 78, 69
1, 4128, Note_on_c, 1, 51, 69
1, 4176, Note_on_c, 0, 78, 0
1, 4176, Note_on_c, 0, 81, 69
1, 4196, Note_on_c, 0, 81, 0
1, 4217, Note_on_c, 1, 51, 0
1, 4224, Note_on_c, 0, 81, 69
1, 4224, Note_on_c, 0, 78, 69
1, 4224, Note_on_c, 1, 52, 69
1, 4272, Note_on_c, 0, 81, 0
1, 4272, Note_on_c, 0, 78, 0
1, 4272, Note_on_c, 0, 80, 69
1, 4272, Note_on_c, 0, 76, 69
1, 4292, Note_on_c, 0, 80, 0
1, 4292, Note_on_c, 0, 76, 0
1, 4313, Note_on_c, 1, 52, 0
1, 4320, Note_on_c, 0, 80, 69
1, 4320, Note_on_c, 0, 76, 69
1, 4320, Note_on_c, 1, 59, 69
1, 4409, Note_on_c, 1, 59, 0
1, 4416, Note_on_c, 0, 80, 0
1, 4416, Note_on_c, 0, 76, 0
1, 4416, Note_on_c, 0, 78, 69
1, 4416, Note_on_c, 0, 75, 69
1, 4416, Note_on_c, 1, 54, 69
1, 4505, Note_on_c, 0, 78, 0
1, 4505, Note_on_c, 0, 75, 0
1, 4505, Note_on_c, 1, 54, 0
1, 4512, Note_on_c, 1, 47, 69
1, 4601, Note_on_c, 1, 47, 0
1, 4608, Note_on_c, 0, 71, 69
1, 4656, Note_on_c, 0, 71, 0
1, 4656, Note_on_c, 0, 75, 69
1, 4676, Note_on_c, 0, 75, 0
1, 4704, Note_on_c, 0, 75, 69
1, 4704, Note_on_c, 1, 69, 69
1, 4704, Note_on_c, 1, 59, 64
1, 4793, Note_on_c, 1, 69, 0
1, 4793, Note_on_c, 1, 59, 0
1, 4800, Note_on_c, 1, 69, 69
1, 4800, Note_on_c, 1, 59, 64
1, 4837, Note_on_c, 0, 75, 0
1, 4848, Note_on_c, 0, 71, 69
1, 4889, Note_on_c, 1, 69, 0
1, 4889, Note_on_c, 1, 59, 0
1, 4893, Note_on_c, 0, 71, 0
1, 4896, Note_on_c, 0, 71, 69
1, 4896, Note_on_c, 1, 68, 69
1, 4896, Note_on_c, 1, 59, 64
1, 4944, Note_on_c, 0, 71, 0
1, 4944, Note_on_c, 0, 76, 69
1, 4964, Note_on_c, 0, 76, 0
1, 4985, Note_on_c, 1, 68, 0
1, 4992, Note_on_c, 0, 78, 69
1, 4992, Note_on_c, 1, 63, 69
1, 5040, Note_on_c, 0, 78, 0
1, 5040, Note_on_c, 0, 81, 69
1, 5060, Note_on_c, 0, 81, 0
1, 5073, Note_on_c, 1, 59, 0
1, 5081, Note_on_c, 1, 63, 0
1, 5088, Note_on_c, 0, 81, 69
1, 5088, Note_on_c, 1, 64, 69
1, 5088, Note_on_c, 1, 64, 64
1, 5136, Note_on_c, 0, 81, 0
1, 5136, Note_on_c, 0, 80, 69
1, 5156, Note_on_c, 0, 80, 0
1, 5177, Note_on_c, 1, 64, 0
1, 5177, Note_on_c, 1, 64, 0
1, 5184, Note_on_c, 0, 80, 69
1, 5232, Note_on_c, 0, 80, 0
1, 5232, Note_on_c, 0, 78, 69
1, 5252, Note_on_c, 0, 78, 0
1, 5280, Note_on_c, 0, 78, 69
1, 5280, Note_on_c, 1, 61, 69
1, 5280, Note_on_c, 1, 57, 69
1, 5369, Note_on_c, 1, 61, 0
1, 5369, Note_on_c, 1, 57, 0
1, 5376, Note_on_c, 1, 61, 70
1, 5376, Note_on_c, 1, 57, 70
1, 5413, Note_on_c, 0, 78, 0
1, 5424, Note_on_c, 0, 81, 72
1, 5465, Note_on_c, 1, 61, 0
1, 5465, Note_on_c, 1, 57, 0
1, 5469, Note_on_c, 0, 81, 0
1, 5472, Note_on_c, 0, 80, 73
1, 5520, Note_on_c, 0, 80, 0
1, 5520, Note_on_c, 0, 78, 74
1, 5540, Note_on_c, 0, 78, 0
1, 5568, Note_on_c, 0, 78, 75
1, 5568, Note_on_c, 1, 61, 74
1, 5568, Note_on_c, 1, 57, 74
1, 5657, Note_on_c, 1, 61, 0
1, 5657, Note_on_c, 1, 57, 0
1, 5664, Note_on_c, 1, 61, 76
1, 5664, Note_on_c, 1, 57, 76
1, 5701, Note_on_c, 0, 78, 0
1, 5712, Note_on_c, 0, 81, 78
1, 5753, Note_on_c, 1, 61, 0
1, 5753, Note_on_c, 1, 57, 0
1, 5757, Note_on_c, 0, 81, 0
1, 5760, Note_on_c, 0, 80, 79
1, 5808, Note_on_c, 0, 80, 0
1, 5808, Note_on_c, 0, 78, 80
1, 5828, Note_on_c, 0, 78, 0
1, 5856, Note_on_c, 0, 78, 81
1, 5856, Note_on_c, 1, 61, 80
1, 5856, Note_on_c, 1, 57, 80
1, 5904, Note_on_c, 0, 78, 0
1, 5904, Note_on_c, 0, 85, 82
1, 5924, Note_on_c, 0, 85, 0
1, 5945, Note_on_c, 1, 61, 0
1, 5945, Note_on_c, 1, 57, 0
1, 5952, Note_on_c, 0, 85, 83
1, 5952, Note_on_c, 1, 61, 82
1, 5952, Note_on_c, 1, 58, 82
1, 6000, Note_on_c, 0, 85, 0
1, 6000, Note_on_c, 0, 76, 84
1, 6020, Note_on_c, 0, 76, 0
1, 6041, Note_on_c, 1, 61, 0
1, 6041, Note_on_c, 1, 58, 0
1, 6048, Note_on_c, 0, 76, 84
1, 6048, Note_on_c, 1, 59, 84
1, 6137, Note_on_c, 1, 59, 0
1, 6144, Note_on_c, 0, 76, 0
1, 6144, Note_on_c, 0, 75, 81
1, 6144, Note_on_c, 1, 54, 81
1, 6233, Note_on_c, 0, 75, 0
1, 6233, Note_on_c, 1, 54, 0
1, 6240, Note_on_c, 1, 47, 78
1, 6329, Note_on_c, 1, 47, 0
1, 6336, Note_on_c, 0, 71, 75
1, 6336, Note_on_c, 1, 68, 69
1, 6336, Note_on_c, 1, 64, 69
1, 6425, Note_on_c, 0, 71, 0
1, 6425, Note_on_c, 1, 68, 0
1, 6425, Note_on_c, 1, 64, 0
1, 6432, Note_on_c, 0, 71, 75
1, 6432, Note_on_c, 1, 68, 69
1, 6432, Note_on_c, 1, 64, 69
1, 6521, Note_on_c, 0, 71, 0
1, 6521, Note_on_c, 1, 68, 0
1, 6521, Note_on_c, 1, 64, 0
1, 6528, Note_on_c, 0, 71, 75
1, 6528, Note_on_c, 1, 68, 69
1, 6528, Note_on_c, 1, 64, 69
1, 6617, Note_on_c, 0, 71, 0
1, 6617, Note_on_c, 1, 68, 0
1, 6617, Note_on_c, 1, 64, 0
1, 6624, Note_on_c, 0, 73, 75
1, 6624, Note_on_c, 1, 68, 69
1, 6624, Note_on_c, 1, 64, 69
1, 6639, Note_on_c, 0, 73, 0
1, 6640, Note_on_c, 0, 71, 75
1, 6655, Note_on_c, 0, 71, 0
1, 6656, Note_on_c, 0, 73, 75
1, 6671, Note_on_c, 0, 73, 0
1, 6672, Note_on_c, 0, 71, 75
1, 6687, Note_on_c, 0, 71, 0
1, 6688, Note_on_c, 0, 73, 75
1, 6703, Note_on_c, 0, 73, 0
1, 6704, Note_on_c, 0, 71, 75
1, 6713, Note_on_c, 1, 68, 0
1, 6713, Note_on_c, 1, 64, 0
1, 6719, Note_on_c, 0, 71, 0
1, 6720, Note_on_c, 0, 73, 75
1, 6720, Note_on_c, 1, 68, 69
1, 6720, Note_on_c, 1, 64, 69
1, 6735, Note_on_c, 0, 73, 0
1, 6736, Note_on_c, 0, 71, 75
1, 6751, Note_on_c, 0, 71, 0
1, 6752, Note_on_c, 0, 73, 75
1, 6767, Note_on_c, 0, 73, 0
1, 6768, Note_on_c, 0, 71, 75
1, 6783, Note_on_c, 0, 71, 0
1, 6784, Note_on_c, 0, 69, 75
1, 6799, Note_on_c, 0, 69, 0
1, 6800, Note_on_c, 0, 71, 75
1, 6809, Note_on_c, 1, 68, 0
1, 6809, Note_on_c, 1, 64, 0
1, 6815, Note_on_c, 0, 71, 0
1, 6816, Note_on_c, 0, 76, 75
1, 6816, Note_on_c, 1, 68, 69
1, 6816, Note_on_c, 1, 64, 69
1, 6864, Note_on_c, 0, 76, 0
1, 6864, Note_on_c, 0, 75, 75
1, 6884, Note_on_c, 0, 75, 0
1, 6905, Note_on_c, 1, 68, 0
1, 6905, Note_on_c, 1, 64, 0
1, 6912, Note_on_c, 0, 75, 75
1, 6912, Note_on_c, 1, 69, 69
1, 6912, Note_on_c, 1, 64, 69
1, 6960, Note_on_c, 0, 75, 0
1, 6960, Note_on_c, 0, 73, 75
1, 6980, Note_on_c, 0, 73, 0
1, 7001, Note_on_c, 1, 69, 0
1, 7001, Note_on_c, 1, 64, 0
1, 7008, Note_on_c, 0, 73, 75
1, 7008, Note_on_c, 1, 69, 69
1, 7008, Note_on_c, 1, 64, 69
1, 7056, Note_on_c, 0, 73, 0
1, 7056, Note_on_c, 0, 81, 75
1, 7076, Note_on_c, 0, 81, 0
1, 7097, Note_on_c, 1, 69, 0
1, 7097, Note_on_c, 1, 64, 0
1, 7104, Note_on_c, 0, 81, 75
1, 7104, Note_on_c, 1, 69, 69
1, 7104, Note_on_c, 1, 64, 69
1, 7152, Note_on_c, 0, 81, 0
1, 7152, Note_on_c, 0, 73, 75
1, 7172, Note_on_c, 0, 73, 0
1, 7193, Note_on_c, 1, 69, 0
1, 7193, Note_on_c, 1, 64, 0
1, 7200, Note_on_c, 0, 73, 75
1, 7200, Note_on_c, 1, 69, 69
1, 7200, Note_on_c, 1, 64, 69
1, 7212, Note_on_c, 0, 73, 0
1, 7212, Note_on_c, 0, 75, 75
1, 7224, Note_on_c, 0, 75, 0
1, 7224, Note_on_c, 0, 73, 75
1, 7236, Note_on_c, 0, 73, 0
1, 7236, Note_on_c, 0, 75, 75
1, 7248, Note_on_c, 0, 75, 0
1, 7248, Note_on_c, 0, 71, 75
1, 7268, Note_on_c, 0, 71, 0
1, 7289, Note_on_c, 1, 69, 0
1, 7289, Note_on_c, 1, 64, 0
1, 7296, Note_on_c, 0, 71, 75
1, 7296, Note_on_c, 1, 68, 69
1, 7296, Note_on_c, 1, 64, 69
1, 7385, Note_on_c, 1, 68, 0
1, 7385, Note_on_c, 1, 64, 0
1, 7429, Note_on_c, 0, 71, 0
1, 7440, Note_on_c, 0, 83, 69
1, 7485, Note_on_c, 0, 83, 0
1, 7488, Note_on_c, 0, 83, 69
1, 7536, Note_on_c, 0, 83, 0
1, 7536, Note_on_c, 0, 81, 69
1, 7556, Note_on_c, 0, 81, 0
1, 7584, Note_on_c, 0, 81, 69
1, 7584, Note_on_c, 1, 64, 69
1, 7584, Note_on_c, 1, 61, 69
1, 7680, Note_on_c, 1, 64, 0
1, 7680, Note_on_c, 1, 61, 0
1, 7680, Note_on_c, 1, 63, 69
1, 7680, Note_on_c, 1, 59, 69
1, 7717, Note_on_c, 0, 81, 0
1, 7728, Note_on_c, 0, 80, 69
1, 7769, Note_on_c, 1, 63, 0
1, 7769, Note_on_c, 1, 59, 0
1, 7773, Note_on_c, 0, 80, 0
1, 7776, Note_on_c, 0, 80, 69
1, 7824, Note_on_c, 0, 80, 0
1, 7824, Note_on_c, 0, 78, 69
1, 7844, Note_on_c, 0, 78, 0
1, 7872, Note_on_c, 0, 78, 69
1, 7872, Note_on_c, 1, 61, 69
1, 7872, Note_on_c, 1, 57, 69
1, 7968, Note_on_c, 1, 61, 0
1, 7968, Note_on_c, 1, 57, 0
1, 7968, Note_on_c, 1, 59, 69
1, 7968, Note_on_c, 1, 56, 69
1, 8005, Note_on_c, 0, 78, 0
1, 8016, Note_on_c, 0, 76, 69
1, 8057, Note_on_c, 1, 59, 0
1, 8057, Note_on_c, 1, 56, 0
1, 8061, Note_on_c, 0, 76, 0
1, 8064, Note_on_c, 0, 76, 75
1, 8112, Note_on_c, 0, 76, 0
1, 8112, Note_on_c, 0, 85, 75
1, 8132, Note_on_c, 0, 85, 0
1, 8160, Note_on_c, 0, 85, 91
1, 8160, Note_on_c, 1, 57, 75
1, 8160, Note_on_c, 1, 45, 75
1, 8249, Note_on_c, 1, 57, 0
1, 8249, Note_on_c, 1, 45, 0
1, 8256, Note_on_c, 1, 56, 75
1, 8256, Note_on_c, 1, 44, 75
1, 8304, Note_on_c, 0, 85, 0
1, 8304, Note_on_c, 0, 83, 75
1, 8345, Note_on_c, 1, 56, 0
1, 8345, Note_on_c, 1, 44, 0
1, 8349, Note_on_c, 0, 83, 0
1, 8352, Note_on_c, 0, 83, 75
1, 8400, Note_on_c, 0, 83, 0
1, 8400, Note_on_c, 0, 81, 75
1, 8420, Note_on_c, 0, 81, 0
1, 8448, Note_on_c, 0, 81, 91
1, 8448, Note_on_c, 1, 54, 75
1, 8448, Note_on_c, 1, 42, 75
1, 8537, Note_on_c, 1, 54, 0
1, 8537, Note_on_c, 1, 42, 0
1, 8544, Note_on_c, 1, 52, 75
1, 8544, Note_on_c, 1, 40, 75
1, 8592, Note_on_c, 0, 81, 0
1, 8592, Note_on_c, 0, 80, 75
1, 8633, Note_on_c, 1, 52, 0
1, 8633, Note_on_c, 1, 40, 0
1, 8637, Note_on_c, 0, 80, 0
1, 8640, Note_on_c, 0, 80, 75
1, 8640, Note_on_c, 1, 57, 75
1, 8640, Note_on_c, 1, 45, 75
1, 8688, Note_on_c, 0, 80, 0
1, 8688, Note_on_c, 0, 78, 75
1, 8708, Note_on_c, 0, 78, 0
1, 8729, Note_on_c, 1, 57, 0
1, 8729, Note_on_c, 1, 45, 0
1, 8736, Note_on_c, 0, 78, 75
1, 8736, Note_on_c, 1, 56, 75
1, 8736, Note_on_c, 1, 47, 75
1, 8784, Note_on_c, 0, 78, 0
1, 8784, Note_on_c, 0, 76, 75
1, 8804, Note_on_c, 0, 76, 0
1, 8825, Note_on_c, 1, 56, 0
1, 8825, Note_on_c, 1, 47, 0
1, 8832, Note_on_c, 0, 76, 75
1, 8832, Note_on_c, 1, 54, 75
1, 8832, Note_on_c, 1, 47, 75
1, 8880, Note_on_c, 0, 76, 0
1, 8880, Note_on_c, 0, 75, 75
1, 8900, Note_on_c, 0, 75, 0
1, 8921, Note_on_c, 1, 54, 0
1, 8921, Note_on_c, 1, 47, 0
1, 8928, Note_on_c, 0, 75, 75
1, 8928, Note_on_c, 1, 52, 75
1, 9017, Note_on_c, 1, 52, 0
1, 9024, Note_on_c, 0, 75, 0
1, 9024, Note_on_c, 0, 76, 75
1, 9024, Note_on_c, 1, 47, 75
1, 9113, Note_on_c, 0, 76, 0
1, 9113, Note_on_c, 1, 47, 0
1, 9120, Note_on_c, 1, 40, 75
1, 9209, Note_on_c, 1, 40, 0
1, 9216, Note_on_c, 0, 71, 69
1, 9264, Note_on_c, 0, 71, 0
1, 9264, Note_on_c, 0, 75, 69
1, 9284, Note_on_c, 0, 75, 0
1, 9312, Note_on_c, 0, 75, 69
1, 9312, Note_on_c, 1, 69, 69
1, 9312, Note_on_c, 1, 59, 64
1, 9401, Note_on_c, 1, 69, 0
1, 9401, Note_on_c, 1, 59, 0
1, 9408, Note_on_c, 1, 69, 69
1, 9408, Note_on_c, 1, 59, 64
1, 9445, Note_on_c, 0, 75, 0
1, 9456, Note_on_c, 0, 71, 69
1, 9497, Note_on_c, 1, 69, 0
1, 9497, Note_on_c, 1, 59, 0
1, 9501, Note_on_c, 0, 71, 0
1, 9504, Note_on_c, 0, 71, 69
1, 9504, Note_on_c, 1, 68, 69
1, 9504, Note_on_c, 1, 59, 64
1, 9552, Note_on_c, 0, 71, 0
1, 9552, Note_on_c, 0, 76, 69
1, 9572, Note_on_c, 0, 76, 0
1, 9593, Note_on_c, 1, 68, 0
1, 9600, Note_on_c, 0, 78, 69
1, 9600, Note_on_c, 1, 63, 69
1, 9648, Note_on_c, 0, 78, 0
1, 9648, Note_on_c, 0, 81, 69
1, 9668, Note_on_c, 0, 81, 0
1, 9681, Note_on_c, 1, 59, 0
1, 9689, Note_on_c, 1, 63, 0
1, 9696, Note_on_c, 0, 81, 69
1, 9696, Note_on_c, 1, 64, 69
1, 9696, Note_on_c, 1, 64, 64
1, 9744, Note_on_c, 0, 81, 0
1, 9744, Note_on_c, 0, 80, 69
1, 9764, Note_on_c, 0, 80, 0
1, 9785, Note_on_c, 1, 64, 0
1, 9785, Note_on_c, 1, 64, 0
1, 9792, Note_on_c, 0, 80, 69
1, 9840, Note_on_c, 0, 80, 0
1, 9840, Note_on_c, 0, 78, 69
1, 9860, Note_on_c, 0, 78, 0
1, 9888, Note_on_c, 0, 78, 69
1, 9888, Note_on_c, 1, 61, 69
1, 9888, Note_on_c, 1, 57, 69
1, 9977, Note_on_c, 1, 61, 0
1, 9977, Note_on_c, 1, 57, 0
1, 9984, Note_on_c, 1, 61, 70
1, 9984, Note_on_c, 1, 57, 70
1, 10021, Note_on_c, 0, 78, 0
1, 10032, Note_on_c, 0, 81, 72
1, 10073, Note_on_c, 1, 61, 0
1, 10073, Note_on_c, 1, 57, 0
1, 10077, Note_on_c, 0, 81, 0
1, 10080, Note_on_c, 0, 80, 73
1, 10128, Note_on_c, 0, 80, 0
1, 10128, Note_on_c, 0, 78, 74
1, 10148, Note_on_c, 0, 78, 0
1, 10176, Note_on_c, 0, 78, 75
1, 10176, Note_on_c, 1, 61, 74
1, 10176, Note_on_c, 1, 57, 74
1, 10265, Note_on_c, 1, 61, 0
1, 10265, Note_on_c, 1, 57, 0
1, 10272, Note_on_c, 1, 61, 76
1, 10272, Note_on_c, 1, 57, 76
1, 10309, Note_on_c, 0, 78, 0
1, 10320, Note_on_c, 0, 81, 78
1, 10361, Note_on_c, 1, 61, 0
1, 10361, Note_on_c, 1, 57, 0
1, 10365, Note_on_c, 0, 81, 0
1, 10368, Note_on_c, 0, 80, 79
1, 10416, Note_on_c, 0, 80, 0
1, 10416, Note_on_c, 0, 78, 80
1, 10436, Note_on_c, 0, 78, 0
1, 10464, Note_on_c, 0, 78, 81
1, 10464, Note_on_c, 1, 61, 80
1, 10464, Note_on_c, 1, 57, 80
1, 10512, Note_on_c, 0, 78, 0
1, 10512, Note_on_c, 0, 85, 82
1, 10532, Note_on_c, 0, 85, 0
1, 10553, Note_on_c, 1, 61, 0
1, 10553, Note_on_c, 1, 57, 0
1, 10560, Note_on_c, 0, 85, 83
1, 10560, Note_on_c, 1, 61, 82
1, 10560, Note_on_c, 1, 58, 82
1, 10608, Note_on_c, 0, 85, 0
1, 10608, Note_on_c, 0, 76, 84
1, 10628, Note_on_c, 0, 76, 0
1, 10649, Note_on_c, 1, 61, 0
1, 10649, Note_on_c, 1, 58, 0
1, 10656, Note_on_c, 0, 76, 84
1, 10656, Note_on_c, 1, 59, 84
1, 10745, Note_on_c, 1, 59, 0
1, 10752, Note_on_c, 0, 76, 0
1, 10752, Note_on_c, 0, 75, 81
1, 10752, Note_on_c, 1, 54, 81
1, 10841, Note_on_c, 0, 75, 0
1, 10841, Note_on_c, 1, 54, 0
1, 10848, Note_on_c, 1, 47, 78
1, 10937, Note_on_c, 1, 47, 0
1, 10944, Note_on_c, 0, 71, 75
1, 10944, Note_on_c, 1, 68, 69
1, 10944, Note_on_c, 1, 64, 69
1, 11033, Note_on_c, 0, 71, 0
1, 11033, Note_on_c, 1, 68, 0
1, 11033, Note_on_c, 1, 64, 0
1, 11040, Note_on_c, 0, 71, 75
1, 11040, Note_on_c, 1, 68, 69
1, 11040, Note_on_c, 1, 64, 69
1, 11129, Note_on_c, 0, 71, 0
1, 11129, Note_on_c, 1, 68, 0
1, 11129, Note_on_c, 1, 64, 0
1, 11136, Note_on_c, 0, 71, 75
1, 11136, Note_on_c, 1, 68, 69
1, 11136, Note_on_c, 1, 64, 69
1, 11225, Note_on_c, 0, 71, 0
1, 11225, Note_on_c, 1, 68, 0
1, 11225, Note_on_c, 1, 64, 0
1, 11232, Note_on_c, 0, 73, 75
1, 11232, Note_on_c, 1, 68, 69
1, 11232, Note_on_c, 1, 64, 69
1, 11247, Note_on_c, 0, 73, 0
1, 11248, Note_on_c, 0, 71, 75
1, 11263, Note_on_c, 0, 71, 0
1, 11264, Note_on_c, 0, 73, 75
1, 11279, Note_on_c, 0, 73, 0
1, 11280, Note_on_c, 0, 71, 75
1, 11295, Note_on_c, 0, 71, 0
1, 11296, Note_on_c, 0, 73, 75
1, 11311, Note_on_c, 0, 73, 0
1, 11312, Note_on_c, 0, 71, 75
1, 11321, Note_on_c, 1, 68, 0
1, 11321, Note_on_c, 1, 64, 0
1, 11327, Note_on_c, 0, 71, 0
1, 11328, Note_on_c, 0, 73, 75
1, 11328, Note_on_c, 1, 68, 69
1, 11328, Note_on_c, 1, 64, 69
1, 11343, Note_on_c, 0, 73, 0
1, 11344, Note_on_c, 0, 71, 75
1, 11359, Note_on_c, 0, 71, 0
1, 11360, Note_on_c, 0, 73, 75
1, 11375, Note_on_c, 0, 73, 0
1, 11376, Note_on_c, 0, 71, 75
1, 11391, Note_on_c, 0, 71, 0
1, 11392, Note_on_c, 0, 69, 75
1, 11407, Note_on_c, 0, 69, 0
1, 11408, Note_on_c, 0, 71, 75
1, 11417, Note_on_c, 1, 68, 0
1, 11417, Note_on_c, 1, 64, 0
1, 11423, Note_on_c, 0, 71, 0
1, 11424, Note_on_c, 0, 76, 75
1, 11424, Note_on_c, 1, 68, 69
1, 11424, Note_on_c, 1, 64, 69
1, 11472, Note_on_c, 0, 76, 0
1, 11472, Note_on_c, 0, 75, 75
1, 11492, Note_on_c, 0, 75, 0
1, 11513, Note_on_c, 1, 68, 0
1, 11513, Note_on_c, 1, 64, 0
1, 11520, Note_on_c, 0, 75, 75
1, 11520, Note_on_c, 1, 69, 69
1, 11520, Note_on_c, 1, 64, 69
1, 11568, Note_on_c, 0, 75, 0
1, 11568, Note_on_c, 0, 73, 75
1, 11588, Note_on_c, 0, 73, 0
1, 11609, Note_on_c, 1, 69, 0
1, 11609, Note_on_c, 1, 64, 0
1, 11616, Note_on_c, 0, 73, 75
1, 11616, Note_on_c, 1, 69, 69
1, 11616, Note_on_c, 1, 64, 69
1, 11664, Note_on_c, 0, 73, 0
1, 11664, Note_on_c, 0, 81, 75
1, 11684, Note_on_c, 0, 81, 0
1, 11705, Note_on_c, 1, 69, 0
1, 11705, Note_on_c, 1, 64, 0
1, 11712, Note_on_c, 0, 81, 75
1, 11712, Note_on_c, 1, 69, 69
1, 11712, Note_on_c, 1, 64, 69
1, 11760, Note_on_c, 0, 81, 0
1, 11760, Note_on_c, 0, 73, 75
1, 11780, Note_on_c, 0, 73, 0
1, 11801, Note_on_c, 1, 69, 0
1, 11801, Note_on_c, 1, 64, 0
1, 11808, Note_on_c, 0, 73, 75
1, 11808, Note_on_c, 1, 69, 69
1, 11808, Note_on_c, 1, 64, 69
1, 11820, Note_on_c, 0, 73, 0
1, 11820, Note_on_c, 0, 75, 75
1, 11832, Note_on_c, 0, 75, 0
1, 11832, Note_on_c, 0, 73, 75
1, 11844, Note_on_c, 0, 73, 0
1, 11844, Note_on_c, 0, 75, 75
1, 11856, Note_on_c, 0, 75, 0
1, 11856, Note_on_c, 0, 71, 75
1, 11876, Note_on_c, 0, 71, 0
1, 11897, Note_on_c, 1, 69, 0
1, 11897, Note_on_c, 1, 64, 0
1, 11904, Note_on_c, 0, 71, 75
1, 11904, Note_on_c, 1, 68, 69
1, 11904, Note_on_c, 1, 64, 69
1, 11993, Note_on_c, 1, 68, 0
1, 11993, Note_on_c, 1, 64, 0
1, 12037, Note_on_c, 0, 71, 0
1, 12048, Note_on_c, 0, 83, 69
1, 12093, Note_on_c, 0, 83, 0
1, 12096, Note_on_c, 0, 83, 69
1, 12144, Note_on_c, 0, 83, 0
1, 12144, Note_on_c, 0, 81, 69
1, 12164, Note_on_c, 0, 81, 0
1, 12192, Note_on_c, 0, 81, 69
1, 12192, Note_on_c, 1, 64, 69
1, 12192, Note_on_c, 1, 61, 69
1, 12288, Note_on_c, 1, 64, 0
1, 12288, Note_on_c, 1, 61, 0
1, 12288, Note_on_c, 1, 63, 69
1, 12288, Note_on_c, 1, 59, 69
1, 12325, Note_on_c, 0, 81, 0
1, 12336, Note_on_c, 0, 80, 69
1, 12377, Note_on_c, 1, 63, 0
1, 12377, Note_on_c, 1, 59, 0
1, 12381, Note_on_c, 0, 80, 0
1, 12384, Note_on_c, 0, 80, 69
1, 12432, Note_on_c, 0, 80, 0
1, 12432, Note_on_c, 0, 78, 69
1, 12452, Note_on_c, 0, 78, 0
1, 12480, Note_on_c, 0, 78, 69
1, 12480, Note_on_c, 1, 61, 69
1, 12480, Note_on_c, 1, 57, 69
1, 12576, Note_on_c, 1, 61, 0
1, 12576, Note_on_c, 1, 57, 0
1, 12576, Note_on_c, 1, 59, 69
1, 12576, Note_on_c, 1, 56, 69
1, 12613, Note_on_c, 0, 78, 0
1, 12624, Note_on_c, 0, 76, 69
1, 12665, Note_on_c, 1, 59, 0
1, 12665, Note_on_c, 1, 56, 0
1, 12669, Note_on_c, 0, 76, 0
1, 12672, Note_on_c, 0, 76, 75
1, 12720, Note_on_c, 0, 76, 0
1, 12720, Note_on_c, 0, 85, 75
1, 12740, Note_on_c, 0, 85, 0
1, 12768, Note_on_c, 0, 85, 91
1, 12768, Note_on_c, 1, 57, 75
1, 12768, Note_on_c, 1, 45, 75
1, 12857, Note_on_c, 1, 57, 0
1, 12857, Note_on_c, 1, 45, 0
1, 12864, Note_on_c, 1, 56, 75
1, 12864, Note_on_c, 1, 44, 75
1, 12912, Note_on_c, 0, 85, 0
1, 12912, Note_on_c, 0, 83, 75
1, 12953, Note_on_c, 1, 56, 0
1, 12953, Note_on_c, 1, 44, 0
1, 12957, Note_on_c, 0, 83, 0
1, 12960, Note_on_c, 0, 83, 75
1, 13008, Note_on_c, 0, 83, 0
1, 13008, Note_on_c, 0, 81, 75
1, 13028, Note_on_c, 0, 81, 0
1, 13056, Note_on_c, 0, 81, 91
1, 13056, Note_on_c, 1, 54, 75
1, 13056, Note_on_c, 1, 42, 75
1, 13145, Note_on_c, 1, 54, 0
1, 13145, Note_on_c, 1, 42, 0
1, 13152, Note_on_c, 1, 52, 75
1, 13152, Note_on_c, 1, 40, 75
1, 13200, Note_on_c, 0, 81, 0
1, 13200, Note_on_c, 0, 80, 75
1, 13241, Note_on_c, 1, 52, 0
1, 13241, Note_on_c, 1, 40, 0
1, 13245, Note_on_c, 0, 80, 0
1, 13248, Note_on_c, 0, 80, 75
1, 13248, Note_on_c, 1, 57, 75
1, 13248, Note_on_c, 1, 45, 75
1, 13296, Note_on_c, 0, 80, 0
1, 13296, Note_on_c, 0, 78, 75
1, 13316, Note_on_c, 0, 78, 0
1, 13337, Note_on_c, 1, 57, 0
1, 13337, Note_on_c, 1, 45, 0
1, 13344, Note_on_c, 0, 78, 75
1, 13344, Note_on_c, 1, 56, 75
1, 13344, Note_on_c, 1, 47, 75
1, 13392, Note_on_c, 0, 78, 0
1, 13392, Note_on_c, 0, 76, 75
1, 13412, Note_on_c, 0, 76, 0
1, 13433, Note_on_c, 1, 56, 0
1, 13433, Note_on_c, 1, 47, 0
1, 13440, Note_on_c, 0, 76, 75
1, 13440, Note_on_c, 1, 54, 75
1, 13440, Note_on_c, 1, 47, 75
1, 13488, Note_on_c, 0, 76, 0
1, 13488, Note_on_c, 0, 75, 75
1, 13508, Note_on_c, 0, 75, 0
1, 13529, Note_on_c, 1, 54, 0
1, 13529, Note_on_c, 1, 47, 0
1, 13536, Note_on_c, 0, 75, 75
1, 13536, Note_on_c, 1, 52, 75
1, 13625, Note_on_c, 1, 52, 0
1, 13632, Note_on_c, 0, 75, 0
1, 13632, Note_on_c, 0, 76, 75
1, 13632, Note_on_c, 1, 47, 75
1, 13721, Note_on_c, 0, 76, 0
1, 13721, Note_on_c, 1, 47, 0
1, 13728, Note_on_c, 1, 40, 75
1, 13817, Note_on_c, 1, 40, 0
1, 13824, Note_on_c, 0, 71, 84
1, 13824, Note_on_c, 1, 52, 84
1, 13824, Note_on_c, 1, 40, 84
1, 13869, Note_on_c, 0, 71, 0
1, 13872, Note_on_c, 0, 72, 84
1, 13913, Note_on_c, 1, 52, 0
1, 13913, Note_on_c, 1, 40, 0
1, 13917, Note_on_c, 0, 72, 0
1, 13920, Note_on_c, 0, 71, 84
1, 13920, Note_on_c, 1, 55, 84
1, 13920, Note_on_c, 1, 43, 84
1, 13965, Note_on_c, 0, 71, 0
1, 13968, Note_on_c, 0, 67, 84
1, 14009, Note_on_c, 1, 55, 0
1, 14009, Note_on_c, 1, 43, 0
1, 14013, Note_on_c, 0, 67, 0
1, 14016, Note_on_c, 0, 69, 84
1, 14016, Note_on_c, 1, 59, 84
1, 14016, Note_on_c, 1, 47, 84
1, 14061, Note_on_c, 0, 69, 0
1, 14064, Note_on_c, 0, 66, 84
1, 14105, Note_on_c, 1, 59, 0
1, 14105, Note_on_c, 1, 47, 0
1, 14109, Note_on_c, 0, 66, 0
1, 14112, Note_on_c, 0, 67, 84
1, 14112, Note_on_c, 1, 52, 84
1, 14112, Note_on_c, 1, 40, 84
1, 14157, Note_on_c, 0, 67, 0
1, 14160, Note_on_c, 0, 69, 84
1, 14201, Note_on_c, 1, 52, 0
1, 14201, Note_on_c, 1, 40, 0
1, 14205, Note_on_c, 0, 69, 0
1, 14208, Note_on_c, 0, 67, 84
1, 14208, Note_on_c, 1, 55, 84
1, 14208, Note_on_c, 1, 43, 84
1, 14253, Note_on_c, 0, 67, 0
1, 14256, Note_on_c, 0, 64, 84
1, 14297, Note_on_c, 1, 55, 0
1, 14297, Note_on_c, 1, 43, 0
1, 14301, Note_on_c, 0, 64, 0
1, 14304, Note_on_c, 0, 66, 84
1, 14304, Note_on_c, 1, 59, 84
1, 14304, Note_on_c, 1, 47, 84
1, 14349, Note_on_c, 0, 66, 0
1, 14352, Note_on_c, 0, 63, 84
1, 14393, Note_on_c, 1, 59, 0
1, 14393, Note_on_c, 1, 47, 0
1, 14397, Note_on_c, 0, 63, 0
1, 14400, Note_on_c, 0, 64, 75
1, 14400, Note_on_c, 1, 55, 75
1, 14445, Note_on_c, 0, 64, 0
1, 14448, Note_on_c, 0, 59, 75
1, 14489, Note_on_c, 1, 55, 0
1, 14493, Note_on_c, 0, 59, 0
1, 14496, Note_on_c, 0, 66, 75
1, 14496, Note_on_c, 1, 51, 75
1, 14541, Note_on_c, 0, 66, 0
1, 14544, Note_on_c, 0, 59, 75
1, 14585, Note_on_c, 1, 51, 0
1, 14589, Note_on_c, 0, 59, 0
1, 14592, Note_on_c, 0, 67, 75
1, 14592, Note_on_c, 1, 52, 75
1, 14637, Note_on_c, 0, 67, 0
1, 14640, Note_on_c, 0, 59, 75
1, 14681, Note_on_c, 1, 52, 0
1, 14685, Note_on_c, 0, 59, 0
1, 14688, Note_on_c, 0, 69, 75
1, 14688, Note_on_c, 1, 54, 75
1, 14733, Note_on_c, 0, 69, 0
1, 14736, Note_on_c, 0, 59, 75
1, 14777, Note_on_c, 1, 54, 0
1, 14781, Note_on_c, 0, 59, 0
1, 14784, Note_on_c, 0, 66, 75
1, 14784, Note_on_c, 1, 51, 75
1, 14829, Note_on_c, 0, 66, 0
1, 14832, Note_on_c, 0, 59, 75
1, 14873, Note_on_c, 1, 51, 0
1, 14877, Note_on_c, 0, 59, 0
1, 14880, Note_on_c, 0, 67, 75
1, 14880, Note_on_c, 1, 52, 75
1, 14925, Note_on_c, 0, 67, 0
1, 14928, Note_on_c, 0, 59, 75
1, 14969, Note_on_c, 1, 52, 0
1, 14973, Note_on_c, 0, 59, 0
1, 14976, Note_on_c, 0, 71, 84
1, 14976, Note_on_c, 1, 52, 84
1, 14976, Note_on_c, 1, 40, 84
1, 15021, Note_on_c, 0, 71, 0
1, 15024, Note_on_c, 0, 72, 84
1, 15065, Note_on_c, 1, 52, 0
1, 15065, Note_on_c, 1, 40, 0
1, 15069, Note_on_c, 0, 72, 0
1, 15072, Note_on_c, 0, 71, 84
1, 15072, Note_on_c, 1, 55, 84
1, 15072, Note_on_c, 1, 43, 84
1, 15117, Note_on_c, 0, 71, 0
1, 15120, Note_on_c, 0, 67, 84
1, 15161, Note_on_c, 1, 55, 0
1, 15161, Note_on_c, 1, 43, 0
1, 15165, Note_on_c, 0, 67, 0
1, 15168, Note_on_c, 0, 69, 84
1, 15168, Note_on_c, 1, 59, 84
1, 15168, Note_on_c, 1, 47, 84
1, 15213, Note_on_c, 0, 69, 0
1, 15216, Note_on_c, 0, 66, 84
1, 15257, Note_on_c, 1, 59, 0
1, 15257, Note_on_c, 1, 47, 0
1, 15261, Note_on_c, 0, 66, 0
1, 15264, Note_on_c, 0, 67, 84
1, 15264, Note_on_c, 1, 52, 84
1, 15264, Note_on_c, 1, 40, 84
1, 15309, Note_on_c, 0, 67, 0
1, 15312, Note_on_c, 0, 69, 84
1, 15353, Note_on_c, 1, 52, 0
1, 15353, Note_on_c, 1, 40, 0
1, 15357, Note_on_c, 0, 69, 0
1, 15360, Note_on_c, 0, 67, 84
1, 15360, Note_on_c, 1, 55, 84
1, 15360, Note_on_c, 1, 43, 84
1, 15405, Note_on_c, 0, 67, 0
1, 15408, Note_on_c, 0, 64, 84
1, 15449, Note_on_c, 1, 55, 0
1, 15449, Note_on_c, 1, 43, 0
1, 15453, Note_on_c, 0, 64, 0
1, 15456, Note_on_c, 0, 66, 84
1, 15456, Note_on_c, 1, 59, 84
1, 15456, Note_on_c, 1, 47, 84
1, 15501, Note_on_c, 0, 66, 0
1, 15504, Note_on_c, 0, 63, 84
1, 15545, Note_on_c, 1, 59, 0
1, 15545, Note_on_c, 1, 47, 0
1, 15549, Note_on_c, 0, 63, 0
1, 15552, Note_on_c, 0, 64, 75
1, 15552, Note_on_c, 1, 55, 75
1, 15597, Note_on_c, 0, 64, 0
1, 15600, Note_on_c, 0, 59, 75
1, 15641, Note_on_c, 1, 55, 0
1, 15645, Note_on_c, 0, 59, 0
1, 15648, Note_on_c, 0, 69, 75
1, 15648, Note_on_c, 0, 66, 75
1, 15648, Note_on_c, 1, 51, 75
1, 15693, Note_on_c, 0, 69, 0
1, 15693, Note_on_c, 0, 66, 0
1, 15696, Note_on_c, 0, 59, 75
1, 15737, Note_on_c, 1, 51, 0
1, 15741, Note_on_c, 0, 59, 0
1, 15744, Note_on_c, 0, 67, 75
1, 15744, Note_on_c, 0, 64, 75
1, 15744, Note_on_c, 1, 52, 75
1, 15789, Note_on_c, 0, 67, 0
1, 15789, Note_on_c, 0, 64, 0
1, 15792, Note_on_c, 0, 59, 75
1, 15833, Note_on_c, 1, 52, 0
1, 15837, Note_on_c, 0, 59, 0
1, 15840, Note_on_c, 0, 66, 75
1, 15840, Note_on_c, 0, 63, 75
1, 15840, Note_on_c, 1, 47, 75
1, 15929, Note_on_c, 0, 66, 0
1, 15929, Note_on_c, 0, 63, 0
1, 15929, Note_on_c, 1, 47, 0
1, 15936, Note_on_c, 1, 35, 75
1, 16025, Note_on_c, 1, 35, 0
1, 16128, Note_on_c, 0, 71, 84
1, 16128, Note_on_c, 1, 52, 84
1, 16128, Note_on_c, 1, 40, 84
1, 16173, Note_on_c, 0, 71, 0
1, 16176, Note_on_c, 0, 72, 84
1, 16217, Note_on_c, 1, 52, 0
1, 16217, Note_on_c, 1, 40, 0
1, 16221, Note_on_c, 0, 72, 0
1, 16224, Note_on_c, 0, 71, 84
1, 16224, Note_on_c, 1, 55, 84
1, 16224, Note_on_c, 1, 43, 84
1, 16269, Note_on_c, 0, 71, 0
1, 16272, Note_on_c, 0, 67, 84
1, 16313, Note_on_c, 1, 55, 0
1, 16313, Note_on_c, 1, 43, 0
1, 16317, Note_on_c, 0, 67, 0
1, 16320, Note_on_c, 0, 69, 84
1, 16320, Note_on_c, 1, 59, 84
1, 16320, Note_on_c, 1, 47, 84
1, 16365, Note_on_c, 0, 69, 0
1, 16368, Note_on_c, 0, 66, 84
1, 16409, Note_on_c, 1, 59, 0
1, 16409, Note_on_c, 1, 47, 0
1, 16413, Note_on_c, 0, 66, 0
1, 16416, Note_on_c, 0, 67, 84
1, 16416, Note_on_c, 1, 52, 84
1, 16416, Note_on_c, 1, 40, 84
1, 16461, Note_on_c, 0, 67, 0
1, 16464, Note_on_c, 0, 69, 84
1, 16505, Note_on_c, 1, 52, 0
1, 16505, Note_on_c, 1, 40, 0
1, 16509, Note_on_c, 0, 69, 0
1, 16512, Note_on_c, 0, 67, 84
1, 16512, Note_on_c, 1, 55, 84
1, 16512, Note_on_c, 1, 43, 84
1, 16557, Note_on_c, 0, 67, 0
1, 16560, Note_on_c, 0, 64, 84
1, 16601, Note_on_c, 1, 55, 0
1, 16601, Note_on_c, 1, 43, 0
1, 16605, Note_on_c, 0, 64, 0
1, 16608, Note_on_c, 0, 66, 84
1, 16608, Note_on_c, 1, 59, 84
1, 16608, Note_on_c, 1, 47, 84
1, 16653, Note_on_c, 0, 66, 0
1, 16656, Note_on_c, 0, 63, 84
1, 16697, Note_on_c, 1, 59, 0
1, 16697, Note_on_c, 1, 47, 0
1, 16701, Note_on_c, 0, 63, 0
1, 16704, Note_on_c, 0, 64, 75
1, 16704, Note_on_c, 1, 55, 75
1, 16749, Note_on_c, 0, 64, 0
1, 16752, Note_on_c, 0, 59, 75
1, 16793, Note_on_c, 1, 55, 0
1, 16797, Note_on_c, 0, 59, 0
1, 16800, Note_on_c, 0, 66, 75
1, 16800, Note_on_c, 1, 51, 75
1, 16845, Note_on_c, 0, 66, 0
1, 16848, Note_on_c, 0, 59, 75
1, 16889, Note_on_c, 1, 51, 0
1, 16893, Note_on_c, 0, 59, 0
1, 16896, Note_on_c, 0, 67, 75
1, 16896, Note_on_c, 1, 52, 75
1, 16941, Note_on_c, 0, 67, 0
1, 16944, Note_on_c, 0, 59, 75
1, 16985, Note_on_c, 1, 52, 0
1, 16989, Note_on_c, 0, 59, 0
1, 16992, Note_on_c, 0, 69, 75
1, 16992, Note_on_c, 1, 54, 75
1, 17037, Note_on_c, 0, 69, 0
1, 17040, Note_on_c, 0, 59, 75
1, 17081, Note_on_c, 1, 54, 0
1, 17085, Note_on_c, 0, 59, 0
1, 17088, Note_on_c, 0, 66, 75
1, 17088, Note_on_c, 1, 51, 75
1, 17133, Note_on_c, 0, 66, 0
1, 17136, Note_on_c, 0, 59, 75
1, 17177, Note_on_c, 1, 51, 0
1, 17181, Note_on_c, 0, 59, 0
1, 17184, Note_on_c, 0, 67, 75
1, 17184, Note_on_c, 1, 52, 75
1, 17229, Note_on_c, 0, 67, 0
1, 17232, Note_on_c, 0, 59, 75
1, 17273, Note_on_c, 1, 52, 0
1, 17277, Note_on_c, 0, 59, 0
1, 17280, Note_on_c, 0, 71, 84
1, 17280, Note_on_c, 1, 52, 84
1, 17280, Note_on_c, 1, 40, 84
1, 17325, Note_on_c, 0, 71, 0
1, 17328, Note_on_c, 0, 72, 84
1, 17369, Note_on_c, 1, 52, 0
1, 17369, Note_on_c, 1, 40, 0
1, 17373, Note_on_c, 0, 72, 0
1, 17376, Note_on_c, 0, 71, 84
1, 17376, Note_on_c, 1, 55, 84
1, 17376, Note_on_c, 1, 43, 84
1, 17421, Note_on_c, 0, 71, 0
1, 17424, Note_on_c, 0, 67, 84
1, 17465, Note_on_c, 1, 55, 0
1, 17465, Note_on_c, 1, 43, 0
1, 17469, Note_on_c, 0, 67, 0
1, 17472, Note_on_c, 0, 69, 84
1, 17472, Note_on_c, 1, 59, 84
1, 17472, Note_on_c, 1, 47, 84
1, 17517, Note_on_c, 0, 69, 0
1, 17520, Note_on_c, 0, 66, 84
1, 17561, Note_on_c, 1, 59, 0
1, 17561, Note_on_c, 1, 47, 0
1, 17565, Note_on_c, 0, 66, 0
1, 17568, Note_on_c, 0, 67, 84
1, 17568, Note_on_c, 1, 52, 84
1, 17568, Note_on_c, 1, 40, 84
1, 17613, Note_on_c, 0, 67, 0
1, 17616, Note_on_c, 0, 69, 84
1, 17657, Note_on_c, 1, 52, 0
1, 17657, Note_on_c, 1, 40, 0
1, 17661, Note_on_c, 0, 69, 0
1, 17664, Note_on_c, 0, 67, 84
1, 17664, Note_on_c, 1, 55, 84
1, 17664, Note_on_c, 1, 43, 84
1, 17709, Note_on_c, 0, 67, 0
1, 17712, Note_on_c, 0, 64, 84
1, 17753, Note_on_c, 1, 55, 0
1, 17753, Note_on_c, 1, 43, 0
1, 17757, Note_on_c, 0, 64, 0
1, 17760, Note_on_c, 0, 66, 84
1, 17760, Note_on_c, 1, 59, 84
1, 17760, Note_on_c, 1, 47, 84
1, 17805, Note_on_c, 0, 66, 0
1, 17808, Note_on_c, 0, 63, 84
1, 17849, Note_on_c, 1, 59, 0
1, 17849, Note_on_c, 1, 47, 0
1, 17853, Note_on_c, 0, 63, 0
1, 17856, Note_on_c, 0, 64, 75
1, 17856, Note_on_c, 1, 55, 75
1, 17901, Note_on_c, 0, 64, 0
1, 17904, Note_on_c, 0, 59, 75
1, 17945, Note_on_c, 1, 55, 0
1, 17949, Note_on_c, 0, 59, 0
1, 17952, Note_on_c, 0, 69, 75
1, 17952, Note_on_c, 0, 66, 75
1, 17952, Note_on_c, 1, 51, 75
1, 17997, Note_on_c, 0, 69, 0
1, 17997, Note_on_c, 0, 66, 0
1, 18000, Note_on_c, 0, 59, 75
1, 18041, Note_on_c, 1, 51, 0
1, 18045, Note_on_c, 0, 59, 0
1, 18048, Note_on_c, 0, 67, 75
1, 18048, Note_on_c, 0, 64, 75
1, 18048, Note_on_c, 1, 52, 75
1, 18093, Note_on_c, 0, 67, 0
1, 18093, Note_on_c, 0, 64, 0
1, 18096, Note_on_c, 0, 59, 75
1, 18137, Note_on_c, 1, 52, 0
1, 18141, Note_on_c, 0, 59, 0
1, 18144, Note_on_c, 0, 66, 75
1, 18144, Note_on_c, 0, 63, 75
1, 18144, Note_on_c, 1, 47, 75
1, 18233, Note_on_c, 0, 66, 0
1, 18233, Note_on_c, 0, 63, 0
1, 18233, Note_on_c, 1, 47, 0
1, 18240, Note_on_c, 1, 35, 75
1, 18329, Note_on_c, 1, 35, 0
1, 18432, Note_on_c, 0, 68, 75
1, 18432, Note_on_c, 1, 52, 64
1, 18477, Note_on_c, 0, 68, 0
1, 18480, Note_on_c, 0, 69, 75
1, 18525, Note_on_c, 0, 69, 0
1, 18528, Note_on_c, 0, 68, 75
1, 18528, Note_on_c, 1, 59, 75
1, 18573, Note_on_c, 0, 68, 0
1, 18576, Note_on_c, 0, 64, 75
1, 18617, Note_on_c, 1, 59, 0
1, 18621, Note_on_c, 0, 64, 0
1, 18624, Note_on_c, 0, 71, 75
1, 18624, Note_on_c, 1, 56, 75
1, 18669, Note_on_c, 0, 71, 0
1, 18672, Note_on_c, 0, 64, 75
1, 18697, Note_on_c, 1, 52, 0
1, 18713, Note_on_c, 1, 56, 0
1, 18717, Note_on_c, 0, 64, 0
1, 18720, Note_on_c, 0, 72, 75
1, 18720, Note_on_c, 1, 57, 75
1, 18720, Note_on_c, 1, 52, 64
1, 18765, Note_on_c, 0, 72, 0
1, 18768, Note_on_c, 0, 64, 76
1, 18809, Note_on_c, 1, 57, 0
1, 18813, Note_on_c, 0, 64, 0
1, 18816, Note_on_c, 0, 68, 78
1, 18816, Note_on_c, 1, 59, 75
1, 18861, Note_on_c, 0, 68, 0
1, 18864, Note_on_c, 0, 64, 79
1, 18905, Note_on_c, 1, 59, 0
1, 18909, Note_on_c, 0, 64, 0
1, 18912, Note_on_c, 0, 69, 81
1, 18912, Note_on_c, 1, 60, 75
1, 18957, Note_on_c, 0, 69, 0
1, 18960, Note_on_c, 0, 64, 82
1, 18985, Note_on_c, 1, 52, 0
1, 19001, Note_on_c, 1, 60, 0
1, 19005, Note_on_c, 0, 64, 0
1, 19008, Note_on_c, 0, 66, 84
1, 19008, Note_on_c, 1, 50, 84
1, 19053, Note_on_c, 0, 66, 0
1, 19056, Note_on_c, 0, 67, 84
1, 19101, Note_on_c, 0, 67, 0
1, 19104, Note_on_c, 0, 66, 84
1, 19104, Note_on_c, 1, 57, 84
1, 19149, Note_on_c, 0, 66, 0
1, 19152, Note_on_c, 0, 62, 84
1, 19193, Note_on_c, 1, 57, 0
1, 19197, Note_on_c, 0, 62, 0
1, 19200, Note_on_c, 0, 69, 84
1, 19200, Note_on_c, 1, 54, 84
1, 19245, Note_on_c, 0, 69, 0
1, 19248, Note_on_c, 0, 62, 84
1, 19273, Note_on_c, 1, 50, 0
1, 19289, Note_on_c, 1, 54, 0
1, 19293, Note_on_c, 0, 62, 0
1, 19296, Note_on_c, 0, 71, 84
1, 19296, Note_on_c, 1, 55, 84
1, 19296, Note_on_c, 1, 50, 84
1, 19341, Note_on_c, 0, 71, 0
1, 19344, Note_on_c, 0, 62, 82
1, 19385, Note_on_c, 1, 55, 0
1, 19389, Note_on_c, 0, 62, 0
1, 19392, Note_on_c, 0, 66, 81
1, 19392, Note_on_c, 1, 57, 84
1, 19437, Note_on_c, 0, 66, 0
1, 19440, Note_on_c, 0, 62, 79
1, 19481, Note_on_c, 1, 57, 0
1, 19485, Note_on_c, 0, 62, 0
1, 19488, Note_on_c, 0, 67, 78
1, 19488, Note_on_c, 1, 59, 84
1, 19533, Note_on_c, 0, 67, 0
1, 19536, Note_on_c, 0, 62, 76
1, 19561, Note_on_c, 1, 50, 0
1, 19577, Note_on_c, 1, 59, 0
1, 19581, Note_on_c, 0, 62, 0
1, 19584, Note_on_c, 0, 64, 75
1, 19584, Note_on_c, 1, 48, 75
1, 19629, Note_on_c, 0, 64, 0
1, 19632, Note_on_c, 0, 66, 75
1, 19677, Note_on_c, 0, 66, 0
1, 19680, Note_on_c, 0, 64, 75
1, 19680, Note_on_c, 1, 55, 75
1, 19725, Note_on_c, 0, 64, 0
1, 19728, Note_on_c, 0, 60, 75
1, 19769, Note_on_c, 1, 55, 0
1, 19773, Note_on_c, 0, 60, 0
1, 19776, Note_on_c, 0, 67, 75
1, 19776, Note_on_c, 1, 52, 75
1, 19821, Note_on_c, 0, 67, 0
1, 19824, Note_on_c, 0, 60, 75
1, 19849, Note_on_c, 1, 48, 0
1, 19865, Note_on_c, 1, 52, 0
1, 19869, Note_on_c, 0, 60, 0
1, 19872, Note_on_c, 0, 69, 75
1, 19872, Note_on_c, 1, 54, 75
1, 19872, Note_on_c, 1, 48, 75
1, 19917, Note_on_c, 0, 69, 0
1, 19920, Note_on_c, 0, 60, 74
1, 19961, Note_on_c, 1, 54, 0
1, 19965, Note_on_c, 0, 60, 0
1, 19968, Note_on_c, 0, 64, 73
1, 19968, Note_on_c, 1, 55, 75
1, 20013, Note_on_c, 0, 64, 0
1, 20016, Note_on_c, 0, 60, 72
1, 20057, Note_on_c, 1, 55, 0
1, 20061, Note_on_c, 0, 60, 0
1, 20064, Note_on_c, 0, 66, 71
1, 20064, Note_on_c, 1, 57, 75
1, 20109, Note_on_c, 0, 66, 0
1, 20112, Note_on_c, 0, 60, 70
1, 20137, Note_on_c, 1, 48, 0
1, 20153, Note_on_c, 1, 57, 0
1, 20157, Note_on_c, 0, 60, 0
1, 20160, Note_on_c, 0, 63, 69
1, 20160, Note_on_c, 1, 47, 69
1, 20205, Note_on_c, 0, 63, 0
1, 20208, Note_on_c, 0, 64, 69
1, 20253, Note_on_c, 0, 64, 0
1, 20256, Note_on_c, 0, 63, 69
1, 20256, Note_on_c, 1, 54, 69
1, 20301, Note_on_c, 0, 63, 0
1, 20304, Note_on_c, 0, 59, 69
1, 20345, Note_on_c, 1, 54, 0
1, 20349, Note_on_c, 0, 59, 0
1, 20352, Note_on_c, 0, 66, 69
1, 20352, Note_on_c, 1, 51, 69
1, 20397, Note_on_c, 0, 66, 0
1, 20400, Note_on_c, 0, 59, 69
1, 20441, Note_on_c, 1, 51, 0
1, 20445, Note_on_c, 0, 59, 0
1, 20448, Note_on_c, 0, 67, 69
1, 20448, Note_on_c, 1, 52, 69
1, 20493, Note_on_c, 0, 67, 0
1, 20496, Note_on_c, 0, 59, 69
1, 20537, Note_on_c, 1, 52, 0
1, 20541, Note_on_c, 0, 59, 0
1, 20544, Note_on_c, 0, 63, 69
1, 20544, Note_on_c, 1, 54, 69
1, 20589, Note_on_c, 0, 63, 0
1, 20592, Note_on_c, 0, 59, 69
1, 20633, Note_on_c, 1, 54, 0
1, 20637, Note_on_c, 0, 59, 0
1, 20640, Note_on_c, 0, 64, 69
1, 20640, Note_on_c, 1, 55, 69
1, 20685, Note_on_c, 0, 64, 0
1, 20688, Note_on_c, 0, 59, 69
1, 20729, Note_on_c, 1, 55, 0
1, 20733, Note_on_c, 0, 59, 0
1, 20736, Note_on_c, 0, 66, 69
1, 20736, Note_on_c, 1, 51, 69
1, 20781, Note_on_c, 0, 66, 0
1, 20784, Note_on_c, 0, 59, 70
1, 20825, Note_on_c, 1, 51, 0
1, 20829, Note_on_c, 0, 59, 0
1, 20832, Note_on_c, 0, 69, 71
1, 20832, Note_on_c, 1, 54, 71
1, 20877, Note_on_c, 0, 69, 0
1, 20880, Note_on_c, 0, 59, 72
1, 20921, Note_on_c, 1, 54, 0
1, 20925, Note_on_c, 0, 59, 0
1, 20928, Note_on_c, 0, 67, 73
1, 20928, Note_on_c, 1, 52, 73
1, 20973, Note_on_c, 0, 67, 0
1, 20976, Note_on_c, 0, 59, 74
1, 21001, Note_on_c, 1, 47, 0
1, 21017, Note_on_c, 1, 52, 0
1, 21021, Note_on_c, 0, 59, 0
1, 21024, Note_on_c, 0, 67, 75
1, 21024, Note_on_c, 1, 51, 75
1, 21024, Note_on_c, 1, 47, 75
1, 21036, Note_on_c, 0, 67, 0
1, 21036, Note_on_c, 0, 66, 75
1, 21048, Note_on_c, 0, 66, 0
1, 21048, Note_on_c, 0, 64, 75
1, 21060, Note_on_c, 0, 64, 0
1, 21060, Note_on_c, 0, 66, 75
1, 21113, Note_on_c, 0, 66, 0
1, 21113, Note_on_c, 1, 51, 0
1, 21113, Note_on_c, 1, 47, 0
1, 21312, Note_on_c, 0, 71, 84
1, 21312, Note_on_c, 1, 52, 84
1, 21312, Note_on_c, 1, 40, 84
1, 21357, Note_on_c, 0, 71, 0
1, 21360, Note_on_c, 0, 72, 84
1, 21401, Note_on_c, 1, 52, 0
1, 21401, Note_on_c, 1, 40, 0
1, 21405, Note_on_c, 0, 72, 0
1, 21408, Note_on_c, 0, 71, 84
1, 21408, Note_on_c, 1, 55, 84
1, 21408, Note_on_c, 1, 43, 84
1, 21453, Note_on_c, 0, 71, 0
1, 21456, Note_on_c, 0, 67, 84
1, 21497, Note_on_c, 1, 55, 0
1, 21497, Note_on_c, 1, 43, 0
1, 21501, Note_on_c, 0, 67, 0
1, 21504, Note_on_c, 0, 69, 84
1, 21504, Note_on_c, 1, 59, 84
1, 21504, Note_on_c, 1, 47, 84
1, 21549, Note_on_c, 0, 69, 0
1, 21552, Note_on_c, 0, 66, 84
1, 21593, Note_on_c, 1, 59, 0
1, 21593, Note_on_c, 1, 47, 0
1, 21597, Note_on_c, 0, 66, 0
1, 21600, Note_on_c, 0, 67, 84
1, 21600, Note_on_c, 1, 52, 84
1, 21600, Note_on_c, 1, 40, 84
1, 21645, Note_on_c, 0, 67, 0
1, 21648, Note_on_c, 0, 69, 84
1, 21689, Note_on_c, 1, 52, 0
1, 21689, Note_on_c, 1, 40, 0
1, 21693, Note_on_c, 0, 69, 0
1, 21696, Note_on_c, 0, 67, 84
1, 21696, Note_on_c, 1, 55, 84
1, 21696, Note_on_c, 1, 43, 84
1, 21741, Note_on_c, 0, 67, 0
1, 21744, Note_on_c, 0, 64, 84
1, 21785, Note_on_c, 1, 55, 0
1, 21785, Note_on_c, 1, 43, 0
1, 21789, Note_on_c, 0, 64, 0
1, 21792, Note_on_c, 0, 66, 84
1, 21792, Note_on_c, 1, 59, 84
1, 21792, Note_on_c, 1, 47, 84
1, 21837, Note_on_c, 0, 66, 0
1, 21840, Note_on_c, 0, 63, 84
1, 21881, Note_on_c, 1, 59, 0
1, 21881, Note_on_c, 1, 47, 0
1, 21885, Note_on_c, 0, 63, 0
1, 21888, Note_on_c, 0, 64, 75
1, 21888, Note_on_c, 1, 55, 75
1, 21933, Note_on_c, 0, 64, 0
1, 21936, Note_on_c, 0, 59, 75
1, 21977, Note_on_c, 1, 55, 0
1, 21981, Note_on_c, 0, 59, 0
1, 21984, Note_on_c, 0, 66, 75
1, 21984, Note_on_c, 1, 51, 75
1, 22029, Note_on_c, 0, 66, 0
1, 22032, Note_on_c, 0, 59, 75
1, 22073, Note_on_c, 1, 51, 0
1, 22077, Note_on_c, 0, 59, 0
1, 22080, Note_on_c, 0, 67, 75
1, 22080, Note_on_c, 1, 52, 75
1, 22125, Note_on_c, 0, 67, 0
1, 22128, Note_on_c, 0, 59, 75
1, 22169, Note_on_c, 1, 52, 0
1, 22173, Note_on_c, 0, 59, 0
1, 22176, Note_on_c, 0, 69, 75
1, 22176, Note_on_c, 1, 54, 75
1, 22221, Note_on_c, 0, 69, 0
1, 22224, Note_on_c, 0, 59, 75
1, 22265, Note_on_c, 1, 54, 0
1, 22269, Note_on_c, 0, 59, 0
1, 22272, Note_on_c, 0, 66, 75
1, 22272, Note_on_c, 1, 51, 75
1, 22317, Note_on_c, 0, 66, 0
1, 22320, Note_on_c, 0, 59, 75
1, 22361, Note_on_c, 1, 51, 0
1, 22365, Note_on_c, 0, 59, 0
1, 22368, Note_on_c, 0, 67, 75
1, 22368, Note_on_c, 1, 52, 75
1, 22413, Note_on_c, 0, 67, 0
1, 22416, Note_on_c, 0, 59, 75
1, 22457, Note_on_c, 1, 52, 0
1, 22461, Note_on_c, 0, 59, 0
1, 22464, Note_on_c, 0, 71, 84
1, 22464, Note_on_c, 1, 52, 84
1, 22464, Note_on_c, 1, 40, 84
1, 22509, Note_on_c, 0, 71, 0
1, 22512, Note_on_c, 0, 72, 84
1, 22553, Note_on_c, 1, 52, 0
1, 22553, Note_on_c, 1, 40, 0
1, 22557, Note_on_c, 0, 72, 0
1, 22560, Note_on_c, 0, 71, 84
1, 22560, Note_on_c, 1, 55, 84
1, 22560, Note_on_c, 1, 43, 84
1, 22605, Note_on_c, 0, 71, 0
1, 22608, Note_on_c, 0, 67, 84
1, 22649, Note_on_c, 1, 55, 0
1, 22649, Note_on_c, 1, 43, 0
1, 22653, Note_on_c, 0, 67, 0
1, 22656, Note_on_c, 0, 69, 84
1, 22656, Note_on_c, 1, 59, 84
1, 22656, Note_on_c, 1, 47, 84
1, 22701, Note_on_c, 0, 69, 0
1, 22704, Note_on_c, 0, 66, 84
1, 22745, Note_on_c, 1, 59, 0
1, 22745, Note_on_c, 1, 47, 0
1, 22749, Note_on_c, 0, 66, 0
1, 22752, Note_on_c, 0, 67, 84
1, 22752, Note_on_c, 1, 52, 84
1, 22752, Note_on_c, 1, 40, 84
1, 22797, Note_on_c, 0, 67, 0
1, 22800, Note_on_c, 0, 69, 84
1, 22841, Note_on_c, 1, 52, 0
1, 22841, Note_on_c, 1, 40, 0
1, 22845, Note_on_c, 0, 69, 0
1, 22848, Note_on_c, 0, 67, 84
1, 22893, Note_on_c, 0, 67, 0
1, 22896, Note_on_c, 0, 64, 84
1, 22941, Note_on_c, 0, 64, 0
1, 22944, Note_on_c, 0, 68, 84
1, 22944, Note_on_c, 1, 50, 84
1, 22944, Note_on_c, 1, 38, 84
1, 22989, Note_on_c, 0, 68, 0
1, 22992, Note_on_c, 0, 64, 84
1, 23033, Note_on_c, 1, 50, 0
1, 23033, Note_on_c, 1, 38, 0
1, 23037, Note_on_c, 0, 64, 0
1, 23040, Note_on_c, 0, 69, 84
1, 23040, Note_on_c, 1, 48, 84
1, 23040, Note_on_c, 1, 36, 84
1, 23085, Note_on_c, 0, 69, 0
1, 23088, Note_on_c, 0, 64, 84
1, 23129, Note_on_c, 1, 48, 0
1, 23129, Note_on_c, 1, 36, 0
1, 23133, Note_on_c, 0, 64, 0
1, 23136, Note_on_c, 0, 71, 84
1, 23136, Note_on_c, 1, 47, 84
1, 23136, Note_on_c, 1, 35, 84
1, 23181, Note_on_c, 0, 71, 0
1, 23184, Note_on_c, 0, 64, 84
1, 23225, Note_on_c, 1, 47, 0
1, 23225, Note_on_c, 1, 35, 0
1, 23229, Note_on_c, 0, 64, 0
1, 23232, Note_on_c, 0, 72, 84
1, 23232, Note_on_c, 1, 45, 84
1, 23232, Note_on_c, 1, 33, 84
1, 23277, Note_on_c, 0, 72, 0
1, 23280, Note_on_c, 0, 64, 84
1, 23321, Note_on_c, 1, 45, 0
1, 23321, Note_on_c, 1, 33, 0
1, 23325, Note_on_c, 0, 64, 0
1, 23328, Note_on_c, 0, 72, 84
1, 23328, Note_on_c, 1, 43, 84
1, 23328, Note_on_c, 1, 31, 84
1, 23373, Note_on_c, 0, 72, 0
1, 23376, Note_on_c, 0, 71, 84
1, 23421, Note_on_c, 0, 71, 0
1, 23424, Note_on_c, 0, 69, 84
1, 23469, Note_on_c, 0, 69, 0
1, 23472, Note_on_c, 0, 67, 84
1, 23505, Note_on_c, 1, 43, 0
1, 23505, Note_on_c, 1, 31, 0
1, 23517, Note_on_c, 0, 67, 0
1, 23520, Note_on_c, 0, 66, 84
1, 23565, Note_on_c, 0, 66, 0
1, 23568, Note_on_c, 0, 64, 84
1, 23613, Note_on_c, 0, 64, 0
1, 23616, Note_on_c, 0, 66, 75
1, 23616, Note_on_c, 1, 57, 75
1, 23616, Note_on_c, 1, 45, 75
1, 23661, Note_on_c, 0, 66, 0
1, 23664, Note_on_c, 0, 69, 75
1, 23705, Note_on_c, 1, 57, 0
1, 23705, Note_on_c, 1, 45, 0
1, 23709, Note_on_c, 0, 69, 0
1, 23712, Note_on_c, 0, 67, 75
1, 23712, Note_on_c, 1, 59, 75
1, 23712, Note_on_c, 1, 47, 75
1, 23757, Note_on_c, 0, 67, 0
1, 23760, Note_on_c, 0, 64, 75
1, 23801, Note_on_c, 1, 59, 0
1, 23801, Note_on_c, 1, 47, 0
1, 23805, Note_on_c, 0, 64, 0
1, 23808, Note_on_c, 0, 66, 75
1, 23808, Note_on_c, 1, 57, 75
1, 23808, Note_on_c, 1, 47, 75
1, 23853, Note_on_c, 0, 66, 0
1, 23856, Note_on_c, 0, 63, 75
1, 23897, Note_on_c, 1, 57, 0
1, 23897, Note_on_c, 1, 47, 0
1, 23901, Note_on_c, 0, 63, 0
1, 23904, Note_on_c, 0, 66, 75
1, 23904, Note_on_c, 1, 55, 75
1, 23904, Note_on_c, 1, 52, 75
1, 23916, Note_on_c, 0, 66, 0
1, 23916, Note_on_c, 0, 64, 75
1, 23928, Note_on_c, 0, 64, 0
1, 23928, Note_on_c, 0, 63, 75
1, 23940, Note_on_c, 0, 63, 0
1, 23940, Note_on_c, 0, 64, 75
1, 23993, Note_on_c, 1, 55, 0
1, 23993, Note_on_c, 1, 52, 0
1, 24000, Note_on_c, 1, 40, 75
1, 24081, Note_on_c, 0, 64, 0
1, 24089, Note_on_c, 1, 40, 0
1, 24192, Note_on_c, 0, 68, 75
1, 24192, Note_on_c, 1, 52, 64
1, 24237, Note_on_c, 0, 68, 0
1, 24240, Note_on_c, 0, 69, 75
1, 24285, Note_on_c, 0, 69, 0
1, 24288, Note_on_c, 0, 68, 75
1, 24288, Note_on_c, 1, 59, 75
1, 24333, Note_on_c, 0, 68, 0
1, 24336, Note_on_c, 0, 64, 75
1, 24377, Note_on_c, 1, 59, 0
1, 24381, Note_on_c, 0, 64, 0
1, 24384, Note_on_c, 0, 71, 75
1, 24384, Note_on_c, 1, 56, 75
1, 24429, Note_on_c, 0, 71, 0
1, 24432, Note_on_c, 0, 64, 75
1, 24457, Note_on_c, 1, 52, 0
1, 24473, Note_on_c, 1, 56, 0
1, 24477, Note_on_c, 0, 64, 0
1, 24480, Note_on_c, 0, 72, 75
1, 24480, Note_on_c, 1, 57, 75
1, 24480, Note_on_c, 1, 52, 64
1, 24525, Note_on_c, 0, 72, 0
1, 24528, Note_on_c, 0, 64, 76
1, 24569, Note_on_c, 1, 57, 0
1, 24573, Note_on_c, 0, 64, 0
1, 24576, Note_on_c, 0, 68, 78
1, 24576, Note_on_c, 1, 59, 75
1, 24621, Note_on_c, 0, 68, 0
1, 24624, Note_on_c, 0, 64, 79
1, 24665, Note_on_c, 1, 59, 0
1, 24669, Note_on_c, 0, 64, 0
1, 24672, Note_on_c, 0, 69, 81
1, 24672, Note_on_c, 1, 60, 75
1, 24717, Note_on_c, 0, 69, 0
1, 24720, Note_on_c, 0, 64, 82
1, 24745, Note_on_c, 1, 52, 0
1, 24761, Note_on_c, 1, 60, 0
1, 24765, Note_on_c, 0, 64, 0
1, 24768, Note_on_c, 0, 66, 84
1, 24768, Note_on_c, 1, 50, 84
1, 24813, Note_on_c, 0, 66, 0
1, 24816, Note_on_c, 0, 67, 84
1, 24861, Note_on_c, 0, 67, 0
1, 24864, Note_on_c, 0, 66, 84
1, 24864, Note_on_c, 1, 57, 84
1, 24909, Note_on_c, 0, 66, 0
1, 24912, Note_on_c, 0, 62, 84
1, 24953, Note_on_c, 1, 57, 0
1, 24957, Note_on_c, 0, 62, 0
1, 24960, Note_on_c, 0, 69, 84
1, 24960, Note_on_c, 1, 54, 84
1, 25005, Note_on_c, 0, 69, 0
1, 25008, Note_on_c, 0, 62, 84
1, 25033, Note_on_c, 1, 50, 0
1, 25049, Note_on_c, 1, 54, 0
1, 25053, Note_on_c, 0, 62, 0
1, 25056, Note_on_c, 0, 71, 84
1, 25056, Note_on_c, 1, 55, 84
1, 25056, Note_on_c, 1, 50, 84
1, 25101, Note_on_c, 0, 71, 0
1, 25104, Note_on_c, 0, 62, 82
1, 25145, Note_on_c, 1, 55, 0
1, 25149, Note_on_c, 0, 62, 0
1, 25152, Note_on_c, 0, 66, 81
1, 25152, Note_on_c, 1, 57, 84
1, 25197, Note_on_c, 0, 66, 0
1, 25200, Note_on_c, 0, 62, 79
1, 25241, Note_on_c, 1, 57, 0
1, 25245, Note_on_c, 0, 62, 0
1, 25248, Note_on_c, 0, 67, 78
1, 25248, Note_on_c, 1, 59, 84
1, 25293, Note_on_c, 0, 67, 0
1, 25296, Note_on_c, 0, 62, 76
1, 25321, Note_on_c, 1, 50, 0
1, 25337, Note_on_c, 1, 59, 0
1, 25341, Note_on_c, 0, 62, 0
1, 25344, Note_on_c, 0, 64, 75
1, 25344, Note_on_c, 1, 48, 75
1, 25389, Note_on_c, 0, 64, 0
1, 25392, Note_on_c, 0, 66, 75
1, 25437, Note_on_c, 0, 66, 0
1, 25440, Note_on_c, 0, 64, 75
1, 25440, Note_on_c, 1, 55, 75
1, 25485, Note_on_c, 0, 64, 0
1, 25488, Note_on_c, 0, 60, 75
1, 25529, Note_on_c, 1, 55, 0
1, 25533, Note_on_c, 0, 60, 0
1, 25536, Note_on_c, 0, 67, 75
1, 25536, Note_on_c, 1, 52, 75
1, 25581, Note_on_c, 0, 67, 0
1, 25584, Note_on_c, 0, 60, 75
1, 25609, Note_on_c, 1, 48, 0
1, 25625, Note_on_c, 1, 52, 0
1, 25629, Note_on_c, 0, 60, 0
1, 25632, Note_on_c, 0, 69, 75
1, 25632, Note_on_c, 1, 54, 75
1, 25632, Note_on_c, 1, 48, 75
1, 25677, Note_on_c, 0, 69, 0
1, 25680, Note_on_c, 0, 60, 74
1, 25721, Note_on_c, 1, 54, 0
1, 25725, Note_on_c, 0, 60, 0
1, 25728, Note_on_c, 0, 64, 73
1, 25728, Note_on_c, 1, 55, 75
1, 25773, Note_on_c, 0, 64, 0
1, 25776, Note_on_c, 0, 60, 72
1, 25817, Note_on_c, 1, 55, 0
1, 25821, Note_on_c, 0, 60, 0
1, 25824, Note_on_c, 0, 66, 71
1, 25824, Note_on_c, 1, 57, 75
1, 25869, Note_on_c, 0, 66, 0
1, 25872, Note_on_c, 0, 60, 70
1, 25897, Note_on_c, 1, 48, 0
1, 25913, Note_on_c, 1, 57, 0
1, 25917, Note_on_c, 0, 60, 0
1, 25920, Note_on_c, 0, 63, 69
1, 25920, Note_on_c, 1, 47, 69
1, 25965, Note_on_c, 0, 63, 0
1, 25968, Note_on_c, 0, 64, 69
1, 26013, Note_on_c, 0, 64, 0
1, 26016, Note_on_c, 0, 63, 69
1, 26016, Note_on_c, 1, 54, 69
1, 26061, Note_on_c, 0, 63, 0
1, 26064, Note_on_c, 0, 59, 69
1, 26105, Note_on_c, 1, 54, 0
1, 26109, Note_on_c, 0, 59, 0
1, 26112, Note_on_c, 0, 66, 69
1, 26112, Note_on_c, 1, 51, 69
1, 26157, Note_on_c, 0, 66, 0
1, 26160, Note_on_c, 0, 59, 69
1, 26201, Note_on_c, 1, 51, 0
1, 26205, Note_on_c, 0, 59, 0
1, 26208, Note_on_c, 0, 67, 69
1, 26208, Note_on_c, 1, 52, 69
1, 26253, Note_on_c, 0, 67, 0
1, 26256, Note_on_c, 0, 59, 69
1, 26297, Note_on_c, 1, 52, 0
1, 26301, Note_on_c, 0, 59, 0
1, 26304, Note_on_c, 0, 63, 69
1, 26304, Note_on_c, 1, 54, 69
1, 26349, Note_on_c, 0, 63, 0
1, 26352, Note_on_c, 0, 59, 69
1, 26393, Note_on_c, 1, 54, 0
1, 26397, Note_on_c, 0, 59, 0
1, 26400, Note_on_c, 0, 64, 69
1, 26400, Note_on_c, 1, 55, 69
1, 26445, Note_on_c, 0, 64, 0
1, 26448, Note_on_c, 0, 59, 69
1, 26489, Note_on_c, 1, 55, 0
1, 26493, Note_on_c, 0, 59, 0
1, 26496, Note_on_c, 0, 66, 69
1, 26496, Note_on_c, 1, 51, 69
1, 26541, Note_on_c, 0, 66, 0
1, 26544, Note_on_c, 0, 59, 70
1, 26585, Note_on_c, 1, 51, 0
1, 26589, Note_on_c, 0, 59, 0
1, 26592, Note_on_c, 0, 69, 71
1, 26592, Note_on_c, 1, 54, 71
1, 26637, Note_on_c, 0, 69, 0
1, 26640, Note_on_c, 0, 59, 72
1, 26681, Note_on_c, 1, 54, 0
1, 26685, Note_on_c, 0, 59, 0
1, 26688, Note_on_c, 0, 67, 73
1, 26688, Note_on_c, 1, 52, 73
1, 26733, Note_on_c, 0, 67, 0
1, 26736, Note_on_c, 0, 59, 74
1, 26761, Note_on_c, 1, 47, 0
1, 26777, Note_on_c, 1, 52, 0
1, 26781, Note_on_c, 0, 59, 0
1, 26784, Note_on_c, 0, 67, 75
1, 26784, Note_on_c, 1, 51, 75
1, 26784, Note_on_c, 1, 47, 75
1, 26796, Note_on_c, 0, 67, 0
1, 26796, Note_on_c, 0, 66, 75
1, 26808, Note_on_c, 0, 66, 0
1, 26808, Note_on_c, 0, 64, 75
1, 26820, Note_on_c, 0, 64, 0
1, 26820, Note_on_c, 0, 66, 75
1, 26873, Note_on_c, 0, 66, 0
1, 26873, Note_on_c, 1, 51, 0
1, 26873, Note_on_c, 1, 47, 0
1, 27072, Note_on_c, 0, 71, 84
1, 27072, Note_on_c, 1, 52, 84
1, 27072, Note_on_c, 1, 40, 84
1, 27117, Note_on_c, 0, 71, 0
1, 27120, Note_on_c, 0, 72, 84
1, 27161, Note_on_c, 1, 52, 0
1, 27161, Note_on_c, 1, 40, 0
1, 27165, Note_on_c, 0, 72, 0
1, 27168, Note_on_c, 0, 71, 84
1, 27168, Note_on_c, 1, 55, 84
1, 27168, Note_on_c, 1, 43, 84
1, 27213, Note_on_c, 0, 71, 0
1, 27216, Note_on_c, 0, 67, 84
1, 27257, Note_on_c, 1, 55, 0
1, 27257, Note_on_c, 1, 43, 0
1, 27261, Note_on_c, 0, 67, 0
1, 27264, Note_on_c, 0, 69, 84
1, 27264, Note_on_c, 1, 59, 84
1, 27264, Note_on_c, 1, 47, 84
1, 27309, Note_on_c, 0, 69, 0
1, 27312, Note_on_c, 0, 66, 84
1, 27353, Note_on_c, 1, 59, 0
1, 27353, Note_on_c, 1, 47, 0
1, 27357, Note_on_c, 0, 66, 0
1, 27360, Note_on_c, 0, 67, 84
1, 27360, Note_on_c, 1, 52, 84
1, 27360, Note_on_c, 1, 40, 84
1, 27405, Note_on_c, 0, 67, 0
1, 27408, Note_on_c, 0, 69, 84
1, 27449, Note_on_c, 1, 52, 0
1, 27449, Note_on_c, 1, 40, 0
1, 27453, Note_on_c, 0, 69, 0
1, 27456, Note_on_c, 0, 67, 84
1, 27456, Note_on_c, 1, 55, 84
1, 27456, Note_on_c, 1, 43, 84
1, 27501, Note_on_c, 0, 67, 0
1, 27504, Note_on_c, 0, 64, 84
1, 27545, Note_on_c, 1, 55, 0
1, 27545, Note_on_c, 1, 43, 0
1, 27549, Note_on_c, 0, 64, 0
1, 27552, Note_on_c, 0, 66, 84
1, 27552, Note_on_c, 1, 59, 84
1, 27552, Note_on_c, 1, 47, 84
1, 27597, Note_on_c, 0, 66, 0
1, 27600, Note_on_c, 0, 63, 84
1, 27641, Note_on_c, 1, 59, 0
1, 27641, Note_on_c, 1, 47, 0
1, 27645, Note_on_c, 0, 63, 0
1, 27648, Note_on_c, 0, 64, 75
1, 27648, Note_on_c, 1, 55, 75
1, 27693, Note_on_c, 0, 64, 0
1, 27696, Note_on_c, 0, 59, 75
1, 27737, Note_on_c, 1, 55, 0
1, 27741, Note_on_c, 0, 59, 0
1, 27744, Note_on_c, 0, 66, 75
1, 27744, Note_on_c, 1, 51, 75
1, 27789, Note_on_c, 0, 66, 0
1, 27792, Note_on_c, 0, 59, 75
1, 27833, Note_on_c, 1, 51, 0
1, 27837, Note_on_c, 0, 59, 0
1, 27840, Note_on_c, 0, 67, 75
1, 27840, Note_on_c, 1, 52, 75
1, 27885, Note_on_c, 0, 67, 0
1, 27888, Note_on_c, 0, 59, 75
1, 27929, Note_on_c, 1, 52, 0
1, 27933, Note_on_c, 0, 59, 0
1, 27936, Note_on_c, 0, 69, 75
1, 27936, Note_on_c, 1, 54, 75
1, 27981, Note_on_c, 0, 69, 0
1, 27984, Note_on_c, 0, 59, 75
1, 28025, Note_on_c, 1, 54, 0
1, 28029, Note_on_c, 0, 59, 0
1, 28032, Note_on_c, 0, 66, 75
1, 28032, Note_on_c, 1, 51, 75
1, 28077, Note_on_c, 0, 66, 0
1, 28080, Note_on_c, 0, 59, 75
1, 28121, Note_on_c, 1, 51, 0
1, 28125, Note_on_c, 0, 59, 0
1, 28128, Note_on_c, 0, 67, 75
1, 28128, Note_on_c, 1, 52, 75
1, 28173, Note_on_c, 0, 67, 0
1, 28176, Note_on_c, 0, 59, 75
1, 28217, Note_on_c, 1, 52, 0
1, 28221, Note_on_c, 0, 59, 0
1, 28224, Note_on_c, 0, 71, 84
1, 28224, Note_on_c, 1, 52, 84
1, 28224, Note_on_c, 1, 40, 84
1, 28269, Note_on_c, 0, 71, 0
1, 28272, Note_on_c, 0, 72, 84
1, 28313, Note_on_c, 1, 52, 0
1, 28313, Note_on_c, 1, 40, 0
1, 28317, Note_on_c, 0, 72, 0
1, 28320, Note_on_c, 0, 71, 84
1, 28320, Note_on_c, 1, 55, 84
1, 28320, Note_on_c, 1, 43, 84
1, 28365, Note_on_c, 0, 71, 0
1, 28368, Note_on_c, 0, 67, 84
1, 28409, Note_on_c, 1, 55, 0
1, 28409, Note_on_c, 1, 43, 0
1, 28413, Note_on_c, 0, 67, 0
1, 28416, Note_on_c, 0, 69, 84
1, 28416, Note_on_c, 1, 59, 84
1, 28416, Note_on_c, 1, 47, 84
1, 28461, Note_on_c, 0, 69, 0
1, 28464, Note_on_c, 0, 66, 84
1, 28505, Note_on_c, 1, 59, 0
1, 28505, Note_on_c, 1, 47, 0
1, 28509, Note_on_c, 0, 66, 0
1, 28512, Note_on_c, 0, 67, 84
1, 28512, Note_on_c, 1, 52, 84
1, 28512, Note_on_c, 1, 40, 84
1, 28557, Note_on_c, 0, 67, 0
1, 28560, Note_on_c, 0, 69, 84
1, 28601, Note_on_c, 1, 52, 0
1, 28601, Note_on_c, 1, 40, 0
1, 28605, Note_on_c, 0, 69, 0
1, 28608, Note_on_c, 0, 67, 84
1, 28653, Note_on_c, 0, 67, 0
1, 28656, Note_on_c, 0, 64, 84
1, 28701, Note_on_c, 0, 64, 0
1, 28704, Note_on_c, 0, 68, 84
1, 28704, Note_on_c, 1, 50, 84
1, 28704, Note_on_c, 1, 38, 84
1, 28749, Note_on_c, 0, 68, 0
1, 28752, Note_on_c, 0, 64, 84
1, 28793, Note_on_c, 1, 50, 0
1, 28793, Note_on_c, 1, 38, 0
1, 28797, Note_on_c, 0, 64, 0
1, 28800, Note_on_c, 0, 69, 84
1, 28800, Note_on_c, 1, 48, 84
1, 28800, Note_on_c, 1, 36, 84
1, 28845, Note_on_c, 0, 69, 0
1, 28848, Note_on_c, 0, 64, 84
1, 28889, Note_on_c, 1, 48, 0
1, 28889, Note_on_c, 1, 36, 0
1, 28893, Note_on_c, 0, 64, 0
1, 28896, Note_on_c, 0, 71, 84
1, 28896, Note_on_c, 1, 47, 84
1, 28896, Note_on_c, 1, 35, 84
1, 28941, Note_on_c, 0, 71, 0
1, 28944, Note_on_c, 0, 64, 84
1, 28985, Note_on_c, 1, 47, 0
1, 28985, Note_on_c, 1, 35, 0
1, 28989, Note_on_c, 0, 64, 0
1, 28992, Note_on_c, 0, 72, 84
1, 28992, Note_on_c, 1, 45, 84
1, 28992, Note_on_c, 1, 33, 84
1, 29037, Note_on_c, 0, 72, 0
1, 29040, Note_on_c, 0, 64, 84
1, 29081, Note_on_c, 1, 45, 0
1, 29081, Note_on_c, 1, 33, 0
1, 29085, Note_on_c, 0, 64, 0
1, 29088, Note_on_c, 0, 72, 84
1, 29088, Note_on_c, 1, 43, 84
1, 29088, Note_on_c, 1, 31, 84
1, 29133, Note_on_c, 0, 72, 0
1, 29136, Note_on_c, 0, 71, 84
1, 29181, Note_on_c, 0, 71, 0
1, 29184, Note_on_c, 0, 69, 84
1, 29229, Note_on_c, 0, 69, 0
1, 29232, Note_on_c, 0, 67, 84
1, 29265, Note_on_c, 1, 43, 0
1, 29265, Note_on_c, 1, 31, 0
1, 29277, Note_on_c, 0, 67, 0
1, 29280, Note_on_c, 0, 66, 84
1, 29325, Note_on_c, 0, 66, 0
1, 29328, Note_on_c, 0, 64, 84
1, 29373, Note_on_c, 0, 64, 0
1, 29376, Note_on_c, 0, 66, 75
1, 29376, Note_on_c, 1, 57, 75
1, 29376, Note_on_c, 1, 45, 75
1, 29421, Note_on_c, 0, 66, 0
1, 29424, Note_on_c, 0, 69, 75
1, 29465, Note_on_c, 1, 57, 0
1, 29465, Note_on_c, 1, 45, 0
1, 29469, Note_on_c, 0, 69, 0
1, 29472, Note_on_c, 0, 67, 75
1, 29472, Note_on_c, 1, 59, 75
1, 29472, Note_on_c, 1, 47, 75
1, 29517, Note_on_c, 0, 67, 0
1, 29520, Note_on_c, 0, 64, 75
1, 29561, Note_on_c, 1, 59, 0
1, 29561, Note_on_c, 1, 47, 0
1, 29565, Note_on_c, 0, 64, 0
1, 29568, Note_on_c, 0, 66, 75
1, 29568, Note_on_c, 1, 57, 75
1, 29568, Note_on_c, 1, 47, 75
1, 29613, Note_on_c, 0, 66, 0
1, 29616, Note_on_c, 0, 63, 75
1, 29657, Note_on_c, 1, 57, 0
1, 29657, Note_on_c, 1, 47, 0
1, 29661, Note_on_c, 0, 63, 0
1, 29664, Note_on_c, 0, 66, 75
1, 29664, Note_on_c, 1, 55, 75
1, 29664, Note_on_c, 1, 52, 75
1, 29676, Note_on_c, 0, 66, 0
1, 29676, Note_on_c, 0, 64, 75
1, 29688, Note_on_c, 0, 64, 0
1, 29688, Note_on_c, 0, 63, 75
1, 29700, Note_on_c, 0, 63, 0
1, 29700, Note_on_c, 0, 64, 75
1, 29753, Note_on_c, 1, 55, 0
1, 29753, Note_on_c, 1, 52, 0
1, 29760, Note_on_c, 1, 40, 75
1, 29841, Note_on_c, 0, 64, 0
1, 29849, Note_on_c, 1, 40, 0
1, 29952, Note_on_c, 0, 71, 75
1, 29952, Note_on_c, 1, 68, 69
1, 29952, Note_on_c, 1, 64, 69
1, 30041, Note_on_c, 0, 71, 0
1, 30041, Note_on_c, 1, 68, 0
1, 30041, Note_on_c, 1, 64, 0
1, 30048, Note_on_c, 0, 71, 75
1, 30048, Note_on_c, 1, 68, 69
1, 30048, Note_on_c, 1, 64, 69
1, 30137, Note_on_c, 0, 71, 0
1, 30137, Note_on_c, 1, 68, 0
1, 30137, Note_on_c, 1, 64, 0
1, 30144, Note_on_c, 0, 71, 75
1, 30144, Note_on_c, 1, 68, 69
1, 30144, Note_on_c, 1, 64, 69
1, 30233, Note_on_c, 0, 71, 0
1, 30233, Note_on_c, 1, 68, 0
1, 30233, Note_on_c, 1, 64, 0
1, 30240, Note_on_c, 0, 73, 75
1, 30240, Note_on_c, 1, 68, 69
1, 30240, Note_on_c, 1, 64, 69
1, 30255, Note_on_c, 0, 73, 0
1, 30256, Note_on_c, 0, 71, 75
1, 30271, Note_on_c, 0, 71, 0
1, 30272, Note_on_c, 0, 73, 75
1, 30287, Note_on_c, 0, 73, 0
1, 30288, Note_on_c, 0, 71, 75
1, 30303, Note_on_c, 0, 71, 0
1, 30304, Note_on_c, 0, 73, 75
1, 30319, Note_on_c, 0, 73, 0
1, 30320, Note_on_c, 0, 71, 75
1, 30329, Note_on_c, 1, 68, 0
1, 30329, Note_on_c, 1, 64, 0
1, 30335, Note_on_c, 0, 71, 0
1, 30336, Note_on_c, 0, 73, 75
1, 30336, Note_on_c, 1, 68, 69
1, 30336, Note_on_c, 1, 64, 69
1, 30351, Note_on_c, 0, 73, 0
1, 30352, Note_on_c, 0, 71, 75
1, 30367, Note_on_c, 0, 71, 0
1, 30368, Note_on_c, 0, 73, 75
1, 30383, Note_on_c, 0, 73, 0
1, 30384, Note_on_c, 0, 71, 75
1, 30399, Note_on_c, 0, 71, 0
1, 30400, Note_on_c, 0, 69, 75
1, 30415, Note_on_c, 0, 69, 0
1, 30416, Note_on_c, 0, 71, 75
1, 30425, Note_on_c, 1, 68, 0
1, 30425, Note_on_c, 1, 64, 0
1, 30431, Note_on_c, 0, 71, 0
1, 30432, Note_on_c, 0, 76, 75
1, 30432, Note_on_c, 1, 68, 69
1, 30432, Note_on_c, 1, 64, 69
1, 30480, Note_on_c, 0, 76, 0
1, 30480, Note_on_c, 0, 75, 75
1, 30500, Note_on_c, 0, 75, 0
1, 30521, Note_on_c, 1, 68, 0
1, 30521, Note_on_c, 1, 64, 0
1, 30528, Note_on_c, 0, 75, 75
1, 30528, Note_on_c, 1, 69, 69
1, 30528, Note_on_c, 1, 64, 69
1, 30576, Note_on_c, 0, 75, 0
1, 30576, Note_on_c, 0, 73, 75
1, 30596, Note_on_c, 0, 73, 0
1, 30617, Note_on_c, 1, 69, 0
1, 30617, Note_on_c, 1, 64, 0
1, 30624, Note_on_c, 0, 73, 75
1, 30624, Note_on_c, 1, 69, 69
1, 30624, Note_on_c, 1, 64, 69
1, 30672, Note_on_c, 0, 73, 0
1, 30672, Note_on_c, 0, 81, 75
1, 30692, Note_on_c, 0, 81, 0
1, 30713, Note_on_c, 1, 69, 0
1, 30713, Note_on_c, 1, 64, 0
1, 30720, Note_on_c, 0, 81, 75
1, 30720, Note_on_c, 1, 69, 69
1, 30720, Note_on_c, 1, 64, 69
1, 30768, Note_on_c, 0, 81, 0
1, 30768, Note_on_c, 0, 73, 75
1, 30788, Note_on_c, 0, 73, 0
1, 30809, Note_on_c, 1, 69, 0
1, 30809, Note_on_c, 1, 64, 0
1, 30816, Note_on_c, 0, 73, 75
1, 30816, Note_on_c, 1, 69, 69
1, 30816, Note_on_c, 1, 64, 69
1, 30828, Note_on_c, 0, 73, 0
1, 30828, Note_on_c, 0, 75, 75
1, 30840, Note_on_c, 0, 75, 0
1, 30840, Note_on_c, 0, 73, 75
1, 30864, Note_on_c, 0, 73, 0
1, 30864, Note_on_c, 0, 71, 75
1, 30884, Note_on_c, 0, 71, 0
1, 30905, Note_on_c, 1, 69, 0
1, 30905, Note_on_c, 1, 64, 0
1, 30912, Note_on_c, 0, 71, 75
1, 30912, Note_on_c, 1, 68, 69
1, 30912, Note_on_c, 1, 64, 69
1, 31001, Note_on_c, 1, 68, 0
1, 31001, Note_on_c, 1, 64, 0
1, 31045, Note_on_c, 0, 71, 0
1, 31056, Note_on_c, 0, 83, 69
1, 31101, Note_on_c, 0, 83, 0
1, 31104, Note_on_c, 0, 83, 69
1, 31152, Note_on_c, 0, 83, 0
1, 31152, Note_on_c, 0, 81, 69
1, 31172, Note_on_c, 0, 81, 0
1, 31200, Note_on_c, 0, 81, 69
1, 31200, Note_on_c, 1, 64, 69
1, 31200, Note_on_c, 1, 61, 69
1, 31296, Note_on_c, 1, 64, 0
1, 31296, Note_on_c, 1, 61, 0
1, 31296, Note_on_c, 1, 63, 69
1, 31296, Note_on_c, 1, 59, 69
1, 31333, Note_on_c, 0, 81, 0
1, 31344, Note_on_c, 0, 80, 69
1, 31385, Note_on_c, 1, 63, 0
1, 31385, Note_on_c, 1, 59, 0
1, 31389, Note_on_c, 0, 80, 0
1, 31392, Note_on_c, 0, 80, 69
1, 31440, Note_on_c, 0, 80, 0
1, 31440, Note_on_c, 0, 78, 69
1, 31460, Note_on_c, 0, 78, 0
1, 31488, Note_on_c, 0, 78, 69
1, 31488, Note_on_c, 1, 61, 69
1, 31488, Note_on_c, 1, 57, 69
1, 31584, Note_on_c, 1, 61, 0
1, 31584, Note_on_c, 1, 57, 0
1, 31584, Note_on_c, 1, 59, 69
1, 31584, Note_on_c, 1, 56, 69
1, 31621, Note_on_c, 0, 78, 0
1, 31632, Note_on_c, 0, 76, 69
1, 31673, Note_on_c, 1, 59, 0
1, 31673, Note_on_c, 1, 56, 0
1, 31677, Note_on_c, 0, 76, 0
1, 31680, Note_on_c, 0, 75, 69
1, 31728, Note_on_c, 0, 75, 0
1, 31728, Note_on_c, 0, 78, 69
1, 31748, Note_on_c, 0, 78, 0
1, 31776, Note_on_c, 0, 78, 69
1, 31776, Note_on_c, 1, 51, 69
1, 31824, Note_on_c, 0, 78, 0
1, 31824, Note_on_c, 0, 81, 69
1, 31844, Note_on_c, 0, 81, 0
1, 31865, Note_on_c, 1, 51, 0
1, 31872, Note_on_c, 0, 81, 69
1, 31872, Note_on_c, 0, 78, 69
1, 31872, Note_on_c, 1, 52, 69
1, 31920, Note_on_c, 0, 81, 0
1, 31920, Note_on_c, 0, 78, 0
1, 31920, Note_on_c, 0, 80, 69
1, 31920, Note_on_c, 0, 76, 69
1, 31940, Note_on_c, 0, 80, 0
1, 31940, Note_on_c, 0, 76, 0
1, 31961, Note_on_c, 1, 52, 0
1, 31968, Note_on_c, 0, 80, 69
1, 31968, Note_on_c, 0, 76, 69
1, 31968, Note_on_c, 1, 59, 69
1, 32057, Note_on_c, 1, 59, 0
1, 32064, Note_on_c, 0, 80, 0
1, 32064, Note_on_c, 0, 76, 0
1, 32064, Note_on_c, 0, 78, 69
1, 32064, Note_on_c, 0, 75, 69
1, 32064, Note_on_c, 1, 54, 69
1, 32153, Note_on_c, 0, 78, 0
1, 32153, Note_on_c, 0, 75, 0
1, 32153, Note_on_c, 1, 54, 0
1, 32160, Note_on_c, 1, 47, 69
1, 32249, Note_on_c, 1, 47, 0
1, 32256, Note_on_c, 0, 71, 75
1, 32256, Note_on_c, 1, 68, 69
1, 32256, Note_on_c, 1, 64, 69
1, 32345, Note_on_c, 0, 71, 0
1, 32345, Note_on_c, 1, 68, 0
1, 32345, Note_on_c, 1, 64, 0
1, 32352, Note_on_c, 0, 71, 75
1, 32352, Note_on_c, 1, 68, 69
1, 32352, Note_on_c, 1, 64, 69
1, 32441, Note_on_c, 0, 71, 0
1, 32441, Note_on_c, 1, 68, 0
1, 32441, Note_on_c, 1, 64, 0
1, 32448, Note_on_c, 0, 71, 75
1, 32448, Note_on_c, 1, 68, 69
1, 32448, Note_on_c, 1, 64, 69
1, 32537, Note_on_c, 0, 71, 0
1, 32537, Note_on_c, 1, 68, 0
1, 32537, Note_on_c, 1, 64, 0
1, 32544, Note_on_c, 0, 73, 75
1, 32544, Note_on_c, 1, 68, 69
1, 32544, Note_on_c, 1, 64, 69
1, 32559, Note_on_c, 0, 73, 0
1, 32560, Note_on_c, 0, 71, 75
1, 32575, Note_on_c, 0, 71, 0
1, 32576, Note_on_c, 0, 73, 75
1, 32591, Note_on_c, 0, 73, 0
1, 32592, Note_on_c, 0, 71, 75
1, 32607, Note_on_c, 0, 71, 0
1, 32608, Note_on_c, 0, 73, 75
1, 32623, Note_on_c, 0, 73, 0
1, 32624, Note_on_c, 0, 71, 75
1, 32633, Note_on_c, 1, 68, 0
1, 32633, Note_on_c, 1, 64, 0
1, 32639, Note_on_c, 0, 71, 0
1, 32640, Note_on_c, 0, 73, 75
1, 32640, Note_on_c, 1, 68, 69
1, 32640, Note_on_c, 1, 64, 69
1, 32655, Note_on_c, 0, 73, 0
1, 32656, Note_on_c, 0, 71, 75
1, 32671, Note_on_c, 0, 71, 0
1, 32672, Note_on_c, 0, 73, 75
1, 32687, Note_on_c, 0, 73, 0
1, 32688, Note_on_c, 0, 71, 75
1, 32703, Note_on_c, 0, 71, 0
1, 32704, Note_on_c, 0, 69, 75
1, 32719, Note_on_c, 0, 69, 0
1, 32720, Note_on_c, 0, 71, 75
1, 32729, Note_on_c, 1, 68, 0
1, 32729, Note_on_c, 1, 64, 0
1, 32735, Note_on_c, 0, 71, 0
1, 32736, Note_on_c, 0, 76, 75
1, 32736, Note_on_c, 1, 68, 69
1, 32736, Note_on_c, 1, 64, 69
1, 32784, Note_on_c, 0, 76, 0
1, 32784, Note_on_c, 0, 75, 75
1, 32804, Note_on_c, 0, 75, 0
1, 32825, Note_on_c, 1, 68, 0
1, 32825, Note_on_c, 1, 64, 0
1, 32832, Note_on_c, 0, 75, 75
1, 32832, Note_on_c, 1, 69, 69
1, 32832, Note_on_c, 1, 64, 69
1, 32880, Note_on_c, 0, 75, 0
1, 32880, Note_on_c, 0, 73, 75
1, 32900, Note_on_c, 0, 73, 0
1, 32921, Note_on_c, 1, 69, 0
1, 32921, Note_on_c, 1, 64, 0
1, 32928, Note_on_c, 0, 73, 75
1, 32928, Note_on_c, 1, 69, 69
1, 32928, Note_on_c, 1, 64, 69
1, 32976, Note_on_c, 0, 73, 0
1, 32976, Note_on_c, 0, 81, 75
1, 32996, Note_on_c, 0, 81, 0
1, 33017, Note_on_c, 1, 69, 0
1, 33017, Note_on_c, 1, 64, 0
1, 33024, Note_on_c, 0, 81, 75
1, 33024, Note_on_c, 1, 69, 69
1, 33024, Note_on_c, 1, 64, 69
1, 33072, Note_on_c, 0, 81, 0
1, 33072, Note_on_c, 0, 73, 75
1, 33092, Note_on_c, 0, 73, 0
1, 33113, Note_on_c, 1, 69, 0
1, 33113, Note_on_c, 1, 64, 0
1, 33120, Note_on_c, 0, 73, 75
1, 33120, Note_on_c, 1, 69, 69
1, 33120, Note_on_c, 1, 64, 69
1, 33132, Note_on_c, 0, 73, 0
1, 33132, Note_on_c, 0, 75, 75
1, 33144, Note_on_c, 0, 75, 0
1, 33144, Note_on_c, 0, 73, 75
1, 33168, Note_on_c, 0, 73, 0
1, 33168, Note_on_c, 0, 71, 75
1, 33188, Note_on_c, 0, 71, 0
1, 33209, Note_on_c, 1, 69, 0
1, 33209, Note_on_c, 1, 64, 0
1, 33216, Note_on_c, 0, 71, 75
1, 33216, Note_on_c, 1, 68, 69
1, 33216, Note_on_c, 1, 64, 69
1, 33305, Note_on_c, 1, 68, 0
1, 33305, Note_on_c, 1, 64, 0
1, 33349, Note_on_c, 0, 71, 0
1, 33360, Note_on_c, 0, 83, 69
1, 33405, Note_on_c, 0, 83, 0
1, 33408, Note_on_c, 0, 83, 69
1, 33456, Note_on_c, 0, 83, 0
1, 33456, Note_on_c, 0, 81, 69
1, 33476, Note_on_c, 0, 81, 0
1, 33504, Note_on_c, 0, 81, 69
1, 33504, Note_on_c, 1, 64, 69
1, 33504, Note_on_c, 1, 61, 69
1, 33600, Note_on_c, 1, 64, 0
1, 33600, Note_on_c, 1, 61, 0
1, 33600, Note_on_c, 1, 63, 69
1, 33600, Note_on_c, 1, 59, 69
1, 33637, Note_on_c, 0, 81, 0
1, 33648, Note_on_c, 0, 80, 69
1, 33689, Note_on_c, 1, 63, 0
1, 33689, Note_on_c, 1, 59, 0
1, 33693, Note_on_c, 0, 80, 0
1, 33696, Note_on_c, 0, 80, 69
1, 33744, Note_on_c, 0, 80, 0
1, 33744, Note_on_c, 0, 78, 69
1, 33764, Note_on_c, 0, 78, 0
1, 33792, Note_on_c, 0, 78, 69
1, 33792, Note_on_c, 1, 61, 69
1, 33792, Note_on_c, 1, 57, 69
1, 33888, Note_on_c, 1, 61, 0
1, 33888, Note_on_c, 1, 57, 0
1, 33888, Note_on_c, 1, 59, 69
1, 33888, Note_on_c, 1, 56, 69
1, 33925, Note_on_c, 0, 78, 0
1, 33936, Note_on_c, 0, 76, 69
1, 33977, Note_on_c, 1, 59, 0
1, 33977, Note_on_c, 1, 56, 0
1, 33981, Note_on_c, 0, 76, 0
1, 33984, Note_on_c, 0, 75, 69
1, 34032, Note_on_c, 0, 75, 0
1, 34032, Note_on_c, 0, 78, 69
1, 34052, Note_on_c, 0, 78, 0
1, 34080, Note_on_c, 0, 78, 69
1, 34080, Note_on_c, 1, 51, 69
1, 34128, Note_on_c, 0, 78, 0
1, 34128, Note_on_c, 0, 81, 69
1, 34148, Note_on_c, 0, 81, 0
1, 34169, Note_on_c, 1, 51, 0
1, 34176, Note_on_c, 0, 81, 69
1, 34176, Note_on_c, 0, 78, 69
1, 34176, Note_on_c, 1, 52, 69
1, 34224, Note_on_c, 0, 81, 0
1, 34224, Note_on_c, 0, 78, 0
1, 34224, Note_on_c, 0, 80, 69
1, 34224, Note_on_c, 0, 76, 69
1, 34244, Note_on_c, 0, 80, 0
1, 34244, Note_on_c, 0, 76, 0
1, 34265, Note_on_c, 1, 52, 0
1, 34272, Note_on_c, 0, 80, 69
1, 34272, Note_on_c, 0, 76, 69
1, 34272, Note_on_c, 1, 59, 69
1, 34361, Note_on_c, 1, 59, 0
1, 34368, Note_on_c, 0, 80, 0
1, 34368, Note_on_c, 0, 76, 0
1, 34368, Note_on_c, 0, 78, 69
1, 34368, Note_on_c, 0, 75, 69
1, 34368, Note_on_c, 1, 54, 69
1, 34457, Note_on_c, 0, 78, 0
1, 34457, Note_on_c, 0, 75, 0
1, 34457, Note_on_c, 1, 54, 0
1, 34464, Note_on_c, 1, 47, 69
1, 34553, Note_on_c, 1, 47, 0
1, 34560, Note_on_c, 0, 71, 69
1, 34608, Note_on_c, 0, 71, 0
1, 34608, Note_on_c, 0, 75, 69
1, 34628, Note_on_c, 0, 75, 0
1, 34656, Note_on_c, 0, 75, 69
1, 34656, Note_on_c, 1, 69, 69
1, 34656, Note_on_c, 1, 59, 69
1, 34745, Note_on_c, 1, 69, 0
1, 34745, Note_on_c, 1, 59, 0
1, 34752, Note_on_c, 1, 69, 69
1, 34752, Note_on_c, 1, 59, 69
1, 34789, Note_on_c, 0, 75, 0
1, 34800, Note_on_c, 0, 71, 69
1, 34841, Note_on_c, 1, 69, 0
1, 34841, Note_on_c, 1, 59, 0
1, 34845, Note_on_c, 0, 71, 0
1, 34848, Note_on_c, 0, 71, 69
1, 34848, Note_on_c, 1, 68, 69
1, 34848, Note_on_c, 1, 59, 69
1, 34896, Note_on_c, 0, 71, 0
1, 34896, Note_on_c, 0, 76, 69
1, 34916, Note_on_c, 0, 76, 0
1, 34937, Note_on_c, 1, 68, 0
1, 34944, Note_on_c, 0, 78, 69
1, 34944, Note_on_c, 1, 63, 69
1, 34992, Note_on_c, 0, 78, 0
1, 34992, Note_on_c, 0, 81, 69
1, 35012, Note_on_c, 0, 81, 0
1, 35025, Note_on_c, 1, 59, 0
1, 35033, Note_on_c, 1, 63, 0
1, 35040, Note_on_c, 0, 81, 69
1, 35040, Note_on_c, 1, 64, 69
1, 35040, Note_on_c, 1, 64, 69
1, 35088, Note_on_c, 0, 81, 0
1, 35088, Note_on_c, 0, 80, 69
1, 35108, Note_on_c, 0, 80, 0
1, 35129, Note_on_c, 1, 64, 0
1, 35129, Note_on_c, 1, 64, 0
1, 35136, Note_on_c, 0, 80, 69
1, 35184, Note_on_c, 0, 80, 0
1, 35184, Note_on_c, 0, 78, 69
1, 35204, Note_on_c, 0, 78, 0
1, 35232, Note_on_c, 0, 78, 69
1, 35232, Note_on_c, 1, 61, 69
1, 35232, Note_on_c, 1, 57, 69
1, 35321, Note_on_c, 1, 61, 0
1, 35321, Note_on_c, 1, 57, 0
1, 35328, Note_on_c, 1, 61, 70
1, 35328, Note_on_c, 1, 57, 70
1, 35365, Note_on_c, 0, 78, 0
1, 35376, Note_on_c, 0, 81, 72
1, 35417, Note_on_c, 1, 61, 0
1, 35417, Note_on_c, 1, 57, 0
1, 35421, Note_on_c, 0, 81, 0
1, 35424, Note_on_c, 0, 80, 73
1, 35472, Note_on_c, 0, 80, 0
1, 35472, Note_on_c, 0, 78, 74
1, 35492, Note_on_c, 0, 78, 0
1, 35520, Note_on_c, 0, 78, 75
1, 35520, Note_on_c, 1, 61, 74
1, 35520, Note_on_c, 1, 57, 74
1, 35609, Note_on_c, 1, 61, 0
1, 35609, Note_on_c, 1, 57, 0
1, 35616, Note_on_c, 1, 61, 76
1, 35616, Note_on_c, 1, 57, 76
1, 35653, Note_on_c, 0, 78, 0
1, 35664, Note_on_c, 0, 81, 78
1, 35705, Note_on_c, 1, 61, 0
1, 35705, Note_on_c, 1, 57, 0
1, 35709, Note_on_c, 0, 81, 0
1, 35712, Note_on_c, 0, 80, 79
1, 35760, Note_on_c, 0, 80, 0
1, 35760, Note_on_c, 0, 78, 80
1, 35780, Note_on_c, 0, 78, 0
1, 35808, Note_on_c, 0, 78, 81
1, 35808, Note_on_c, 1, 61, 80
1, 35808, Note_on_c, 1, 57, 80
1, 35856, Note_on_c, 0, 78, 0
1, 35856, Note_on_c, 0, 85, 82
1, 35876, Note_on_c, 0, 85, 0
1, 35897, Note_on_c, 1, 61, 0
1, 35897, Note_on_c, 1, 57, 0
1, 35904, Note_on_c, 0, 85, 83
1, 35904, Note_on_c, 1, 61, 82
1, 35904, Note_on_c, 1, 58, 82
1, 35952, Note_on_c, 0, 85, 0
1, 35952, Note_on_c, 0, 76, 84
1, 35972, Note_on_c, 0, 76, 0
1, 35993, Note_on_c, 1, 61, 0
1, 35993, Note_on_c, 1, 58, 0
1, 36000, Note_on_c, 0, 76, 84
1, 36000, Note_on_c, 1, 59, 84
1, 36089, Note_on_c, 1, 59, 0
1, 36096, Note_on_c, 0, 76, 0
1, 36096, Note_on_c, 0, 75, 81
1, 36096, Note_on_c, 1, 54, 81
1, 36185, Note_on_c, 0, 75, 0
1, 36185, Note_on_c, 1, 54, 0
1, 36192, Note_on_c, 1, 47, 78
1, 36281, Note_on_c, 1, 47, 0
1, 36288, Note_on_c, 0, 71, 75
1, 36288, Note_on_c, 1, 68, 69
1, 36288, Note_on_c, 1, 64, 69
1, 36377, Note_on_c, 0, 71, 0
1, 36377, Note_on_c, 1, 68, 0
1, 36377, Note_on_c, 1, 64, 0
1, 36384, Note_on_c, 0, 71, 75
1, 36384, Note_on_c, 1, 68, 69
1, 36384, Note_on_c, 1, 64, 69
1, 36473, Note_on_c, 0, 71, 0
1, 36473, Note_on_c, 1, 68, 0
1, 36473, Note_on_c, 1, 64, 0
1, 36480, Note_on_c, 0, 71, 75
1, 36480, Note_on_c, 1, 68, 69
1, 36480, Note_on_c, 1, 64, 69
1, 36569, Note_on_c, 0, 71, 0
1, 36569, Note_on_c, 1, 68, 0
1, 36569, Note_on_c, 1, 64, 0
1, 36576, Note_on_c, 0, 73, 75
1, 36576, Note_on_c, 1, 68, 69
1, 36576, Note_on_c, 1, 64, 69
1, 36591, Note_on_c, 0, 73, 0
1, 36592, Note_on_c, 0, 71, 75
1, 36607, Note_on_c, 0, 71, 0
1, 36608, Note_on_c, 0, 73, 75
1, 36623, Note_on_c, 0, 73, 0
1, 36624, Note_on_c, 0, 71, 75
1, 36639, Note_on_c, 0, 71, 0
1, 36640, Note_on_c, 0, 73, 75
1, 36655, Note_on_c, 0, 73, 0
1, 36656, Note_on_c, 0, 71, 75
1, 36665, Note_on_c, 1, 68, 0
1, 36665, Note_on_c, 1, 64, 0
1, 36671, Note_on_c, 0, 71, 0
1, 36672, Note_on_c, 0, 73, 75
1, 36672, Note_on_c, 1, 68, 69
1, 36672, Note_on_c, 1, 64, 69
1, 36687, Note_on_c, 0, 73, 0
1, 36688, Note_on_c, 0, 71, 75
1, 36703, Note_on_c, 0, 71, 0
1, 36704, Note_on_c, 0, 73, 75
1, 36719, Note_on_c, 0, 73, 0
1, 36720, Note_on_c, 0, 71, 75
1, 36735, Note_on_c, 0, 71, 0
1, 36736, Note_on_c, 0, 69, 75
1, 36751, Note_on_c, 0, 69, 0
1, 36752, Note_on_c, 0, 71, 75
1, 36761, Note_on_c, 1, 68, 0
1, 36761, Note_on_c, 1, 64, 0
1, 36767, Note_on_c, 0, 71, 0
1, 36768, Note_on_c, 0, 76, 75
1, 36768, Note_on_c, 1, 68, 69
1, 36768, Note_on_c, 1, 64, 69
1, 36816, Note_on_c, 0, 76, 0
1, 36816, Note_on_c, 0, 75, 75
1, 36836, Note_on_c, 0, 75, 0
1, 36857, Note_on_c, 1, 68, 0
1, 36857, Note_on_c, 1, 64, 0
1, 36864, Note_on_c, 0, 75, 75
1, 36864, Note_on_c, 1, 69, 69
1, 36864, Note_on_c, 1, 64, 69
1, 36912, Note_on_c, 0, 75, 0
1, 36912, Note_on_c, 0, 73, 75
1, 36932, Note_on_c, 0, 73, 0
1, 36953, Note_on_c, 1, 69, 0
1, 36953, Note_on_c, 1, 64, 0
1, 36960, Note_on_c, 0, 73, 75
1, 36960, Note_on_c, 1, 69, 69
1, 36960, Note_on_c, 1, 64, 69
1, 37008, Note_on_c, 0, 73, 0
1, 37008, Note_on_c, 0, 81, 75
1, 37028, Note_on_c, 0, 81, 0
1, 37049, Note_on_c, 1, 69, 0
1, 37049, Note_on_c, 1, 64, 0
1, 37056, Note_on_c, 0, 81, 75
1, 37056, Note_on_c, 1, 69, 69
1, 37056, Note_on_c, 1, 64, 69
1, 37104, Note_on_c, 0, 81, 0
1, 37104, Note_on_c, 0, 73, 75
1, 37124, Note_on_c, 0, 73, 0
1, 37145, Note_on_c, 1, 69, 0
1, 37145, Note_on_c, 1, 64, 0
1, 37152, Note_on_c, 0, 73, 75
1, 37152, Note_on_c, 1, 69, 69
1, 37152, Note_on_c, 1, 64, 69
1, 37164, Note_on_c, 0, 73, 0
1, 37164, Note_on_c, 0, 75, 75
1, 37176, Note_on_c, 0, 75, 0
1, 37176, Note_on_c, 0, 73, 75
1, 37188, Note_on_c, 0, 73, 0
1, 37188, Note_on_c, 0, 75, 75
1, 37200, Note_on_c, 0, 75, 0
1, 37200, Note_on_c, 0, 71, 75
1, 37220, Note_on_c, 0, 71, 0
1, 37241, Note_on_c, 1, 69, 0
1, 37241, Note_on_c, 1, 64, 0
1, 37248, Note_on_c, 0, 71, 75
1, 37248, Note_on_c, 1, 68, 69
1, 37248, Note_on_c, 1, 64, 69
1, 37337, Note_on_c, 1, 68, 0
1, 37337, Note_on_c, 1, 64, 0
1, 37381, Note_on_c, 0, 71, 0
1, 37392, Note_on_c, 0, 83, 75
1, 37437, Note_on_c, 0, 83, 0
1, 37440, Note_on_c, 0, 83, 69
1, 37488, Note_on_c, 0, 83, 0
1, 37488, Note_on_c, 0, 81, 69
1, 37508, Note_on_c, 0, 81, 0
1, 37536, Note_on_c, 0, 81, 69
1, 37536, Note_on_c, 1, 64, 69
1, 37536, Note_on_c, 1, 61, 69
1, 37632, Note_on_c, 1, 64, 0
1, 37632, Note_on_c, 1, 61, 0
1, 37632, Note_on_c, 1, 63, 69
1, 37632, Note_on_c, 1, 59, 69
1, 37669, Note_on_c, 0, 81, 0
1, 37680, Note_on_c, 0, 80, 69
1, 37721, Note_on_c, 1, 63, 0
1, 37721, Note_on_c, 1, 59, 0
1, 37725, Note_on_c, 0, 80, 0
1, 37728, Note_on_c, 0, 80, 69
1, 37776, Note_on_c, 0, 80, 0
1, 37776, Note_on_c, 0, 78, 69
1, 37796, Note_on_c, 0, 78, 0
1, 37824, Note_on_c, 0, 78, 69
1, 37824, Note_on_c, 1, 61, 69
1, 37824, Note_on_c, 1, 57, 69
1, 37920, Note_on_c, 1, 61, 0
1, 37920, Note_on_c, 1, 57, 0
1, 37920, Note_on_c, 1, 59, 69
1, 37920, Note_on_c, 1, 56, 69
1, 37957, Note_on_c, 0, 78, 0
1, 37968, Note_on_c, 0, 76, 69
1, 38009, Note_on_c, 1, 59, 0
1, 38009, Note_on_c, 1, 56, 0
1, 38013, Note_on_c, 0, 76, 0
1, 38016, Note_on_c, 0, 76, 75
1, 38064, Note_on_c, 0, 76, 0
1, 38064, Note_on_c, 0, 85, 75
1, 38084, Note_on_c, 0, 85, 0
1, 38112, Note_on_c, 0, 85, 91
1, 38112, Note_on_c, 1, 57, 75
1, 38112, Note_on_c, 1, 45, 75
1, 38201, Note_on_c, 1, 57, 0
1, 38201, Note_on_c, 1, 45, 0
1, 38208, Note_on_c, 1, 56, 75
1, 38208, Note_on_c, 1, 44, 75
1, 38256, Note_on_c, 0, 85, 0
1, 38256, Note_on_c, 0, 83, 75
1, 38297, Note_on_c, 1, 56, 0
1, 38297, Note_on_c, 1, 44, 0
1, 38301, Note_on_c, 0, 83, 0
1, 38304, Note_on_c, 0, 83, 75
1, 38352, Note_on_c, 0, 83, 0
1, 38352, Note_on_c, 0, 81, 75
1, 38372, Note_on_c, 0, 81, 0
1, 38400, Note_on_c, 0, 81, 91
1, 38400, Note_on_c, 1, 54, 75
1, 38400, Note_on_c, 1, 42, 75
1, 38489, Note_on_c, 1, 54, 0
1, 38489, Note_on_c, 1, 42, 0
1, 38496, Note_on_c, 1, 52, 75
1, 38496, Note_on_c, 1, 40, 75
1, 38544, Note_on_c, 0, 81, 0
1, 38544, Note_on_c, 0, 80, 75
1, 38585, Note_on_c, 1, 52, 0
1, 38585, Note_on_c, 1, 40, 0
1, 38589, Note_on_c, 0, 80, 0
1, 38592, Note_on_c, 0, 80, 75
1, 38592, Note_on_c, 1, 57, 75
1, 38592, Note_on_c, 1, 45, 75
1, 38640, Note_on_c, 0, 80, 0
1, 38640, Note_on_c, 0, 78, 75
1, 38660, Note_on_c, 0, 78, 0
1, 38681, Note_on_c, 1, 57, 0
1, 38681, Note_on_c, 1, 45, 0
1, 38688, Note_on_c, 0, 78, 75
1, 38688, Note_on_c, 1, 56, 75
1, 38688, Note_on_c, 1, 47, 75
1, 38736, Note_on_c, 0, 78, 0
1, 38736, Note_on_c, 0, 76, 75
1, 38756, Note_on_c, 0, 76, 0
1, 38777, Note_on_c, 1, 56, 0
1, 38777, Note_on_c, 1, 47, 0
1, 38784, Note_on_c, 0, 76, 75
1, 38784, Note_on_c, 1, 54, 75
1, 38784, Note_on_c, 1, 47, 75
1, 38832, Note_on_c, 0, 76, 0
1, 38832, Note_on_c, 0, 75, 75
1, 38852, Note_on_c, 0, 75, 0
1, 38873, Note_on_c, 1, 54, 0
1, 38873, Note_on_c, 1, 47, 0
1, 38880, Note_on_c, 0, 75, 75
1, 38880, Note_on_c, 1, 52, 75
1, 38969, Note_on_c, 1, 52, 0
1, 38976, Note_on_c, 0, 75, 0
1, 38976, Note_on_c, 0, 76, 75
1, 38976, Note_on_c, 1, 47, 75
1, 39065, Note_on_c, 0, 76, 0
1, 39065, Note_on_c, 1, 47, 0
1, 39072, Note_on_c, 1, 40, 75
1, 39161, Note_on_c, 1, 40, 0
1, 39168, Note_on_c, 0, 71, 69
1, 39216, Note_on_c, 0, 71, 0
1, 39216, Note_on_c, 0, 75, 69
1, 39236, Note_on_c, 0, 75, 0
1, 39264, Note_on_c, 0, 75, 69
1, 39264, Note_on_c, 1, 69, 69
1, 39264, Note_on_c, 1, 59, 69
1, 39353, Note_on_c, 1, 69, 0
1, 39353, Note_on_c, 1, 59, 0
1, 39360, Note_on_c, 1, 69, 69
1, 39360, Note_on_c, 1, 59, 69
1, 39397, Note_on_c, 0, 75, 0
1, 39408, Note_on_c, 0, 71, 69
1, 39449, Note_on_c, 1, 69, 0
1, 39449, Note_on_c, 1, 59, 0
1, 39453, Note_on_c, 0, 71, 0
1, 39456, Note_on_c, 0, 71, 69
1, 39456, Note_on_c, 1, 68, 69
1, 39456, Note_on_c, 1, 59, 69
1, 39504, Note_on_c, 0, 71, 0
1, 39504, Note_on_c, 0, 76, 69
1, 39524, Note_on_c, 0, 76, 0
1, 39545, Note_on_c, 1, 68, 0
1, 39552, Note_on_c, 0, 78, 69
1, 39552, Note_on_c, 1, 63, 69
1, 39600, Note_on_c, 0, 78, 0
1, 39600, Note_on_c, 0, 81, 69
1, 39620, Note_on_c, 0, 81, 0
1, 39633, Note_on_c, 1, 59, 0
1, 39641, Note_on_c, 1, 63, 0
1, 39648, Note_on_c, 0, 81, 69
1, 39648, Note_on_c, 1, 64, 69
1, 39648, Note_on_c, 1, 64, 69
1, 39696, Note_on_c, 0, 81, 0
1, 39696, Note_on_c, 0, 80, 69
1, 39716, Note_on_c, 0, 80, 0
1, 39737, Note_on_c, 1, 64, 0
1, 39737, Note_on_c, 1, 64, 0
1, 39744, Note_on_c, 0, 80, 69
1, 39792, Note_on_c, 0, 80, 0
1, 39792, Note_on_c, 0, 78, 69
1, 39812, Note_on_c, 0, 78, 0
1, 39840, Note_on_c, 0, 78, 69
1, 39840, Note_on_c, 1, 61, 69
1, 39840, Note_on_c, 1, 57, 69
1, 39929, Note_on_c, 1, 61, 0
1, 39929, Note_on_c, 1, 57, 0
1, 39936, Note_on_c, 1, 61, 70
1, 39936, Note_on_c, 1, 57, 70
1, 39973, Note_on_c, 0, 78, 0
1, 39984, Note_on_c, 0, 81, 72
1, 40025, Note_on_c, 1, 61, 0
1, 40025, Note_on_c, 1, 57, 0
1, 40029, Note_on_c, 0, 81, 0
1, 40032, Note_on_c, 0, 80, 73
1, 40080, Note_on_c, 0, 80, 0
1, 40080, Note_on_c, 0, 78, 74
1, 40100, Note_on_c, 0, 78, 0
1, 40128, Note_on_c, 0, 78, 75
1, 40128, Note_on_c, 1, 61, 74
1, 40128, Note_on_c, 1, 57, 74
1, 40217, Note_on_c, 1, 61, 0
1, 40217, Note_on_c, 1, 57, 0
1, 40224, Note_on_c, 1, 61, 76
1, 40224, Note_on_c, 1, 57, 76
1, 40261, Note_on_c, 0, 78, 0
1, 40272, Note_on_c, 0, 81, 78
1, 40313, Note_on_c, 1, 61, 0
1, 40313, Note_on_c, 1, 57, 0
1, 40317, Note_on_c, 0, 81, 0
1, 40320, Note_on_c, 0, 80, 79
1, 40368, Note_on_c, 0, 80, 0
1, 40368, Note_on_c, 0, 78, 80
1, 40388, Note_on_c, 0, 78, 0
1, 40416, Note_on_c, 0, 78, 81
1, 40416, Note_on_c, 1, 61, 80
1, 40416, Note_on_c, 1, 57, 80
1, 40464, Note_on_c, 0, 78, 0
1, 40464, Note_on_c, 0, 85, 82
1, 40484, Note_on_c, 0, 85, 0
1, 40505, Note_on_c, 1, 61, 0
1, 40505, Note_on_c, 1, 57, 0
1, 40512, Note_on_c, 0, 85, 83
1, 40512, Note_on_c, 1, 61, 82
1, 40512, Note_on_c, 1, 58, 82
1, 40560, Note_on_c, 0, 85, 0
1, 40560, Note_on_c, 0, 76, 84
1, 40580, Note_on_c, 0, 76, 0
1, 40601, Note_on_c, 1, 61, 0
1, 40601, Note_on_c, 1, 58, 0
1, 40608, Note_on_c, 0, 76, 84
1, 40608, Note_on_c, 1, 59, 84
1, 40697, Note_on_c, 1, 59, 0
1, 40704, Note_on_c, 0, 76, 0
1, 40704, Note_on_c, 0, 75, 81
1, 40704, Note_on_c, 1, 54, 81
1, 40793, Note_on_c, 0, 75, 0
1, 40793, Note_on_c, 1, 54, 0
1, 40800, Note_on_c, 1, 47, 78
1, 40889, Note_on_c, 1, 47, 0
1, 40896, Note_on_c, 0, 71, 75
1, 40896, Note_on_c, 1, 68, 69
1, 40896, Note_on_c, 1, 64, 69
1, 40985, Note_on_c, 0, 71, 0
1, 40985, Note_on_c, 1, 68, 0
1, 40985, Note_on_c, 1, 64, 0
1, 40992, Note_on_c, 0, 71, 75
1, 40992, Note_on_c, 1, 68, 69
1, 40992, Note_on_c, 1, 64, 69
1, 41081, Note_on_c, 0, 71, 0
1, 41081, Note_on_c, 1, 68, 0
1, 41081, Note_on_c, 1, 64, 0
1, 41088, Note_on_c, 0, 71, 75
1, 41088, Note_on_c, 1, 68, 69
1, 41088, Note_on_c, 1, 64, 69
1, 41177, Note_on_c, 0, 71, 0
1, 41177, Note_on_c, 1, 68, 0
1, 41177, Note_on_c, 1, 64, 0
1, 41184, Note_on_c, 0, 73, 75
1, 41184, Note_on_c, 1, 68, 69
1, 41184, Note_on_c, 1, 64, 69
1, 41199, Note_on_c, 0, 73, 0
1, 41200, Note_on_c, 0, 71, 75
1, 41215, Note_on_c, 0, 71, 0
1, 41216, Note_on_c, 0, 73, 75
1, 41231, Note_on_c, 0, 73, 0
1, 41232, Note_on_c, 0, 71, 75
1, 41247, Note_on_c, 0, 71, 0
1, 41248, Note_on_c, 0, 73, 75
1, 41263, Note_on_c, 0, 73, 0
1, 41264, Note_on_c, 0, 71, 75
1, 41273, Note_on_c, 1, 68, 0
1, 41273, Note_on_c, 1, 64, 0
1, 41279, Note_on_c, 0, 71, 0
1, 41280, Note_on_c, 0, 73, 75
1, 41280, Note_on_c, 1, 68, 69
1, 41280, Note_on_c, 1, 64, 69
1, 41295, Note_on_c, 0, 73, 0
1, 41296, Note_on_c, 0, 71, 75
1, 41311, Note_on_c, 0, 71, 0
1, 41312, Note_on_c, 0, 73, 75
1, 41327, Note_on_c, 0, 73, 0
1, 41328, Note_on_c, 0, 71, 75
1, 41343, Note_on_c, 0, 71, 0
1, 41344, Note_on_c, 0, 69, 75
1, 41359, Note_on_c, 0, 69, 0
1, 41360, Note_on_c, 0, 71, 75
1, 41369, Note_on_c, 1, 68, 0
1, 41369, Note_on_c, 1, 64, 0
1, 41375, Note_on_c, 0, 71, 0
1, 41376, Note_on_c, 0, 76, 75
1, 41376, Note_on_c, 1, 68, 69
1, 41376, Note_on_c, 1, 64, 69
1, 41424, Note_on_c, 0, 76, 0
1, 41424, Note_on_c, 0, 75, 75
1, 41444, Note_on_c, 0, 75, 0
1, 41465, Note_on_c, 1, 68, 0
1, 41465, Note_on_c, 1, 64, 0
1, 41472, Note_on_c, 0, 75, 75
1, 41472, Note_on_c, 1, 69, 69
1, 41472, Note_on_c, 1, 64, 69
1, 41520, Note_on_c, 0, 75, 0
1, 41520, Note_on_c, 0, 73, 75
1, 41540, Note_on_c, 0, 73, 0
1, 41561, Note_on_c, 1, 69, 0
1, 41561, Note_on_c, 1, 64, 0
1, 41568, Note_on_c, 0, 73, 75
1, 41568, Note_on_c, 1, 69, 69
1, 41568, Note_on_c, 1, 64, 69
1, 41616, Note_on_c, 0, 73, 0
1, 41616, Note_on_c, 0, 81, 75
1, 41636, Note_on_c, 0, 81, 0
1, 41657, Note_on_c, 1, 69, 0
1, 41657, Note_on_c, 1, 64, 0
1, 41664, Note_on_c, 0, 81, 75
1, 41664, Note_on_c, 1, 69, 69
1, 41664, Note_on_c, 1, 64, 69
1, 41712, Note_on_c, 0, 81, 0
1, 41712, Note_on_c, 0, 73, 75
1, 41732, Note_on_c, 0, 73, 0
1, 41753, Note_on_c, 1, 69, 0
1, 41753, Note_on_c, 1, 64, 0
1, 41760, Note_on_c, 0, 73, 75
1, 41760, Note_on_c, 1, 69, 69
1, 41760, Note_on_c, 1, 64, 69
1, 41772, Note_on_c, 0, 73, 0
1, 41772, Note_on_c, 0, 75, 75
1, 41784, Note_on_c, 0, 75, 0
1, 41784, Note_on_c, 0, 73, 75
1, 41796, Note_on_c, 0, 73, 0
1, 41796, Note_on_c, 0, 75, 75
1, 41808, Note_on_c, 0, 75, 0
1, 41808, Note_on_c, 0, 71, 75
1, 41828, Note_on_c, 0, 71, 0
1, 41849, Note_on_c, 1, 69, 0
1, 41849, Note_on_c, 1, 64, 0
1, 41856, Note_on_c, 0, 71, 75
1, 41856, Note_on_c, 1, 68, 69
1, 41856, Note_on_c, 1, 64, 69
1, 41945, Note_on_c, 1, 68, 0
1, 41945, Note_on_c, 1, 64, 0
1, 41989, Note_on_c, 0, 71, 0
1, 42000, Note_on_c, 0, 83, 75
1, 42045, Note_on_c, 0, 83, 0
1, 42048, Note_on_c, 0, 83, 69
1, 42096, Note_on_c, 0, 83, 0
1, 42096, Note_on_c, 0, 81, 69
1, 42116, Note_on_c, 0, 81, 0
1, 42144, Note_on_c, 0, 81, 69
1, 42144, Note_on_c, 1, 64, 69
1, 42144, Note_on_c, 1, 61, 69
1, 42240, Note_on_c, 1, 64, 0
1, 42240, Note_on_c, 1, 61, 0
1, 42240, Note_on_c, 1, 63, 69
1, 42240, Note_on_c, 1, 59, 69
1, 42277, Note_on_c, 0, 81, 0
1, 42288, Note_on_c, 0, 80, 69
1, 42329, Note_on_c, 1, 63, 0
1, 42329, Note_on_c, 1, 59, 0
1, 42333, Note_on_c, 0, 80, 0
1, 42336, Note_on_c, 0, 80, 69
1, 42384, Note_on_c, 0, 80, 0
1, 42384, Note_on_c, 0, 78, 69
1, 42404, Note_on_c, 0, 78, 0
1, 42432, Note_on_c, 0, 78, 69
1, 42432, Note_on_c, 1, 61, 69
1, 42432, Note_on_c, 1, 57, 69
1, 42528, Note_on_c, 1, 61, 0
1, 42528, Note_on_c, 1, 57, 0
1, 42528, Note_on_c, 1, 59, 69
1, 42528, Note_on_c, 1, 56, 69
1, 42565, Note_on_c, 0, 78, 0
1, 42576, Note_on_c, 0, 76, 69
1, 42617, Note_on_c, 1, 59, 0
1, 42617, Note_on_c, 1, 56, 0
1, 42621, Note_on_c, 0, 76, 0
1, 42624, Note_on_c, 0, 76, 75
1, 42672, Note_on_c, 0, 76, 0
1, 42672, Note_on_c, 0, 85, 75
1, 42692, Note_on_c, 0, 85, 0
1, 42720, Note_on_c, 0, 85, 91
1, 42720, Note_on_c, 1, 57, 75
1, 42720, Note_on_c, 1, 45, 75
1, 42809, Note_on_c, 1, 57, 0
1, 42809, Note_on_c, 1, 45, 0
1, 42816, Note_on_c, 1, 56, 75
1, 42816, Note_on_c, 1, 44, 75
1, 42864, Note_on_c, 0, 85, 0
1, 42864, Note_on_c, 0, 83, 75
1, 42905, Note_on_c, 1, 56, 0
1, 42905, Note_on_c, 1, 44, 0
1, 42909, Note_on_c, 0, 83, 0
1, 42912, Note_on_c, 0, 83, 75
1, 42960, Note_on_c, 0, 83, 0
1, 42960, Note_on_c, 0, 81, 75
1, 42980, Note_on_c, 0, 81, 0
1, 43008, Note_on_c, 0, 81, 91
1, 43008, Note_on_c, 1, 54, 75
1, 43008, Note_on_c, 1, 42, 75
1, 43097, Note_on_c, 1, 54, 0
1, 43097, Note_on_c, 1, 42, 0
1, 43104, Note_on_c, 1, 52, 75
1, 43104, Note_on_c, 1, 40, 75
1, 43152, Note_on_c, 0, 81, 0
1, 43152, Note_on_c, 0, 80, 75
1, 43193, Note_on_c, 1, 52, 0
1, 43193, Note_on_c, 1, 40, 0
1, 43197, Note_on_c, 0, 80, 0
1, 43200, Note_on_c, 0, 80, 75
1, 43200, Note_on_c, 1, 57, 75
1, 43200, Note_on_c, 1, 45, 75
1, 43248, Note_on_c, 0, 80, 0
1, 43248, Note_on_c, 0, 78, 75
1, 43268, Note_on_c, 0, 78, 0
1, 43289, Note_on_c, 1, 57, 0
1, 43289, Note_on_c, 1, 45, 0
1, 43296, Note_on_c, 0, 78, 75
1, 43296, Note_on_c, 1, 56, 75
1, 43296, Note_on_c, 1, 47, 75
1, 43344, Note_on_c, 0, 78, 0
1, 43344, Note_on_c, 0, 76, 75
1, 43364, Note_on_c, 0, 76, 0
1, 43385, Note_on_c, 1, 56, 0
1, 43385, Note_on_c, 1, 47, 0
1, 43392, Note_on_c, 0, 76, 75
1, 43392, Note_on_c, 1, 54, 75
1, 43392, Note_on_c, 1, 47, 75
1, 43440, Note_on_c, 0, 76, 0
1, 43440, Note_on_c, 0, 75, 75
1, 43460, Note_on_c, 0, 75, 0
1, 43481, Note_on_c, 1, 54, 0
1, 43481, Note_on_c, 1, 47, 0
1, 43488, Note_on_c, 0, 75, 75
1, 43488, Note_on_c, 1, 52, 75
1, 43577, Note_on_c, 1, 52, 0
1, 43584, Note_on_c, 0, 75, 0
1, 43584, Note_on_c, 0, 76, 75
1, 43584, Note_on_c, 1, 47, 75
1, 43673, Note_on_c, 0, 76, 0
1, 43673, Note_on_c, 1, 47, 0
1, 43680, Note_on_c, 1, 40, 75
1, 43769, Note_on_c, 1, 40, 0
1, 43776, Note_on_c, 1, 40, 4
1, 43865, Note_on_c, 1, 40, 0
1, 43875, End_track
0, 0, End_of_file