0, 0, Header, 0, 1, 96
1, 0, Start_track
1, 0, Tempo, 400000
1, 0, Note_on_c, 0, 64, 84
1, 0, Note_on_c, 1, 50, 84
1, 6, Note_on_c, 0, 64, 0
1, 6, Note_on_c, 0, 62, 84
1, 12, Note_on_c, 0, 62, 0
1, 12, Note_on_c, 0, 61, 84
1, 18, Note_on_c, 0, 61, 0
1, 18, Note_on_c, 0, 62, 84
1, 45, Note_on_c, 0, 62, 0
1, 89, Note_on_c, 1, 50, 0
1, 96, Note_on_c, 0, 67, 90
1, 96, Note_on_c, 1, 54, 89
1, 102, Note_on_c, 0, 67, 0
1, 102, Note_on_c, 0, 66, 90
1, 108, Note_on_c, 0, 66, 0
1, 108, Note_on_c, 0, 64, 90
1, 114, Note_on_c, 0, 64, 0
1, 114, Note_on_c, 0, 66, 90
1, 141, Note_on_c, 0, 66, 0
1, 185, Note_on_c, 1, 54, 0
1, 192, Note_on_c, 0, 71, 96
1, 192, Note_on_c, 1, 57, 95
1, 198, Note_on_c, 0, 71, 0
1, 198, Note_on_c, 0, 69, 96
1, 204, Note_on_c, 0, 69, 0
1, 204, Note_on_c, 0, 67, 96
1, 210, Note_on_c, 0, 67, 0
1, 210, Note_on_c, 0, 69, 96
1, 237, Note_on_c, 0, 69, 0
1, 281, Note_on_c, 1, 57, 0
1, 288, Note_on_c, 0, 76, 102
1, 288, Note_on_c, 1, 62, 100
1, 294, Note_on_c, 0, 76, 0
1, 294, Note_on_c, 0, 74, 102
1, 300, Note_on_c, 0, 74, 0
1, 300, Note_on_c, 0, 73, 102
1, 306, Note_on_c, 0, 73, 0
1, 306, Note_on_c, 0, 74, 102
1, 333, Note_on_c, 0, 74, 0
1, 377, Note_on_c, 1, 62, 0
1, 384, Note_on_c, 0, 69, 75
1, 407, Note_on_c, 0, 69, 0
1, 408, Note_on_c, 0, 71, 76
1, 431, Note_on_c, 0, 71, 0
1, 432, Note_on_c, 0, 73, 78
1, 455, Note_on_c, 0, 73, 0
1, 456, Note_on_c, 0, 74, 80
1, 479, Note_on_c, 0, 74, 0
1, 480, Note_on_c, 0, 76, 82
1, 503, Note_on_c, 0, 76, 0
1, 504, Note_on_c, 0, 78, 84
1, 527, Note_on_c, 0, 78, 0
1, 528, Note_on_c, 0, 79, 83
1, 551, Note_on_c, 0, 79, 0
1, 552, Note_on_c, 0, 81, 82
1, 575, Note_on_c, 0, 81, 0
1, 576, Note_on_c, 0, 79, 97
1, 576, Note_on_c, 0, 76, 97
1, 576, Note_on_c, 1, 62, 75
1, 621, Note_on_c, 1, 62, 0
1, 624, Note_on_c, 1, 57, 75
1, 669, Note_on_c, 1, 57, 0
1, 672, Note_on_c, 0, 79, 0
1, 672, Note_on_c, 0, 76, 0
1, 672, Note_on_c, 0, 78, 77
1, 672, Note_on_c, 0, 74, 77
1, 672, Note_on_c, 1, 50, 75
1, 717, Note_on_c, 0, 78, 0
1, 717, Note_on_c, 0, 74, 0
1, 761, Note_on_c, 1, 50, 0
1, 768, Note_on_c, 0, 64, 75
1, 768, Note_on_c, 1, 50, 84
1, 774, Note_on_c, 0, 64, 0
1, 774, Note_on_c, 0, 62, 75
1, 780, Note_on_c, 0, 62, 0
1, 780, Note_on_c, 0, 61, 75
1, 786, Note_on_c, 0, 61, 0
1, 786, Note_on_c, 0, 62, 75
1, 813, Note_on_c, 0, 62, 0
1, 857, Note_on_c, 1, 50, 0
1, 864, Note_on_c, 0, 67, 77
1, 864, Note_on_c, 1, 54, 89
1, 870, Note_on_c, 0, 67, 0
1, 870, Note_on_c, 0, 66, 77
1, 876, Note_on_c, 0, 66, 0
1, 876, Note_on_c, 0, 64, 77
1, 882, Note_on_c, 0, 64, 0
1, 882, Note_on_c, 0, 66, 77
1, 909, Note_on_c, 0, 66, 0
1, 953, Note_on_c, 1, 54, 0
1, 960, Note_on_c, 0, 71, 80
1, 960, Note_on_c, 1, 57, 95
1, 966, Note_on_c, 0, 71, 0
1, 966, Note_on_c, 0, 69, 80
1, 972, Note_on_c, 0, 69, 0
1, 972, Note_on_c, 0, 67, 80
1, 978, Note_on_c, 0, 67, 0
1, 978, Note_on_c, 0, 69, 80
1, 1005, Note_on_c, 0, 69, 0
1, 1049, Note_on_c, 1, 57, 0
1, 1056, Note_on_c, 0, 76, 82
1, 1056, Note_on_c, 1, 62, 100
1, 1062, Note_on_c, 0, 76, 0
1, 1062, Note_on_c, 0, 74, 82
1, 1068, Note_on_c, 0, 74, 0
1, 1068, Note_on_c, 0, 73, 82
1, 1074, Note_on_c, 0, 73, 0
1, 1074, Note_on_c, 0, 74, 82
1, 1101, Note_on_c, 0, 74, 0
1, 1145, Note_on_c, 1, 62, 0
1, 1152, Note_on_c, 0, 78, 75
1, 1152, Note_on_c, 1, 50, 75
1, 1175, Note_on_c, 0, 78, 0
1, 1176, Note_on_c, 0, 81, 75
1, 1197, Note_on_c, 1, 50, 0
1, 1199, Note_on_c, 0, 81, 0
1, 1200, Note_on_c, 0, 80, 75
1, 1200, Note_on_c, 1, 57, 75
1, 1223, Note_on_c, 0, 80, 0
1, 1224, Note_on_c, 0, 78, 75
1, 1245, Note_on_c, 1, 57, 0
1, 1247, Note_on_c, 0, 78, 0
1, 1248, Note_on_c, 0, 76, 75
1, 1248, Note_on_c, 1, 49, 75
1, 1293, Note_on_c, 0, 76, 0
1, 1293, Note_on_c, 1, 49, 0
1, 1296, Note_on_c, 1, 57, 75
1, 1341, Note_on_c, 1, 57, 0
1, 1344, Note_on_c, 0, 74, 75
1, 1344, Note_on_c, 1, 47, 75
1, 1367, Note_on_c, 0, 74, 0
1, 1368, Note_on_c, 0, 78, 75
1, 1389, Note_on_c, 1, 47, 0
1, 1391, Note_on_c, 0, 78, 0
1, 1392, Note_on_c, 0, 76, 75
1, 1392, Note_on_c, 1, 56, 75
1, 1415, Note_on_c, 0, 76, 0
1, 1416, Note_on_c, 0, 74, 75
1, 1437, Note_on_c, 1, 56, 0
1, 1439, Note_on_c, 0, 74, 0
1, 1440, Note_on_c, 0, 73, 75
1, 1440, Note_on_c, 1, 57, 75
1, 1485, Note_on_c, 0, 73, 0
1, 1485, Note_on_c, 1, 57, 0
1, 1488, Note_on_c, 1, 45, 75
1, 1533, Note_on_c, 1, 45, 0
1, 1536, Note_on_c, 0, 78, 75
1, 1536, Note_on_c, 1, 50, 75
1, 1559, Note_on_c, 0, 78, 0
1, 1560, Note_on_c, 0, 81, 75
1, 1581, Note_on_c, 1, 50, 0
1, 1583, Note_on_c, 0, 81, 0
1, 1584, Note_on_c, 0, 80, 75
1, 1584, Note_on_c, 1, 57, 75
1, 1607, Note_on_c, 0, 80, 0
1, 1608, Note_on_c, 0, 78, 75
1, 1629, Note_on_c, 1, 57, 0
1, 1631, Note_on_c, 0, 78, 0
1, 1632, Note_on_c, 0, 76, 75
1, 1632, Note_on_c, 1, 49, 75
1, 1677, Note_on_c, 0, 76, 0
1, 1677, Note_on_c, 1, 49, 0
1, 1680, Note_on_c, 1, 57, 75
1, 1725, Note_on_c, 1, 57, 0
1, 1728, Note_on_c, 0, 74, 75
1, 1728, Note_on_c, 1, 47, 75
1, 1751, Note_on_c, 0, 74, 0
1, 1752, Note_on_c, 0, 80, 75
1, 1773, Note_on_c, 1, 47, 0
1, 1775, Note_on_c, 0, 80, 0
1, 1776, Note_on_c, 0, 83, 75
1, 1776, Note_on_c, 1, 56, 75
1, 1799, Note_on_c, 0, 83, 0
1, 1800, Note_on_c, 0, 86, 75
1, 1821, Note_on_c, 1, 56, 0
1, 1823, Note_on_c, 0, 86, 0
1, 1824, Note_on_c, 0, 85, 75
1, 1824, Note_on_c, 1, 57, 75
1, 1869, Note_on_c, 0, 85, 0
1, 1869, Note_on_c, 1, 57, 0
1, 1872, Note_on_c, 1, 45, 75
1, 1917, Note_on_c, 1, 45, 0
1, 1920, Note_on_c, 0, 81, 75
1, 1920, Note_on_c, 1, 57, 67
1, 1920, Note_on_c, 1, 49, 67
1, 1943, Note_on_c, 0, 81, 0
1, 1944, Note_on_c, 0, 80, 75
1, 1967, Note_on_c, 0, 80, 0
1, 1967, Note_on_c, 1, 57, 0
1, 1967, Note_on_c, 1, 49, 0
1, 1968, Note_on_c, 0, 78, 75
1, 1968, Note_on_c, 1, 57, 67
1, 1968, Note_on_c, 1, 49, 67
1, 1991, Note_on_c, 0, 78, 0
1, 1992, Note_on_c, 0, 76, 75
1, 2015, Note_on_c, 0, 76, 0
1, 2015, Note_on_c, 1, 57, 0
1, 2015, Note_on_c, 1, 49, 0
1, 2016, Note_on_c, 0, 74, 75
1, 2016, Note_on_c, 1, 57, 67
1, 2016, Note_on_c, 1, 49, 67
1, 2039, Note_on_c, 0, 74, 0
1, 2040, Note_on_c, 0, 73, 75
1, 2063, Note_on_c, 0, 73, 0
1, 2063, Note_on_c, 1, 57, 0
1, 2063, Note_on_c, 1, 49, 0
1, 2064, Note_on_c, 0, 71, 75
1, 2064, Note_on_c, 1, 57, 67
1, 2064, Note_on_c, 1, 49, 67
1, 2087, Note_on_c, 0, 71, 0
1, 2088, Note_on_c, 0, 69, 75
1, 2111, Note_on_c, 0, 69, 0
1, 2111, Note_on_c, 1, 57, 0
1, 2111, Note_on_c, 1, 49, 0
1, 2112, Note_on_c, 0, 78, 75
1, 2112, Note_on_c, 1, 57, 67
1, 2112, Note_on_c, 1, 50, 67
1, 2157, Note_on_c, 0, 78, 0
1, 2159, Note_on_c, 1, 57, 0
1, 2159, Note_on_c, 1, 50, 0
1, 2160, Note_on_c, 1, 57, 67
1, 2160, Note_on_c, 1, 50, 67
1, 2207, Note_on_c, 1, 57, 0
1, 2207, Note_on_c, 1, 50, 0
1, 2208, Note_on_c, 1, 57, 67
1, 2208, Note_on_c, 1, 50, 67
1, 2255, Note_on_c, 1, 57, 0
1, 2255, Note_on_c, 1, 50, 0
1, 2256, Note_on_c, 1, 57, 67
1, 2256, Note_on_c, 1, 50, 67
1, 2303, Note_on_c, 1, 57, 0
1, 2303, Note_on_c, 1, 50, 0
1, 2304, Note_on_c, 0, 81, 75
1, 2304, Note_on_c, 1, 57, 67
1, 2304, Note_on_c, 1, 50, 67
1, 2327, Note_on_c, 0, 81, 0
1, 2328, Note_on_c, 0, 80, 75
1, 2351, Note_on_c, 0, 80, 0
1, 2351, Note_on_c, 1, 57, 0
1, 2351, Note_on_c, 1, 50, 0
1, 2352, Note_on_c, 0, 78, 75
1, 2352, Note_on_c, 1, 57, 67
1, 2352, Note_on_c, 1, 50, 67
1, 2375, Note_on_c, 0, 78, 0
1, 2376, Note_on_c, 0, 76, 75
1, 2399, Note_on_c, 0, 76, 0
1, 2399, Note_on_c, 1, 57, 0
1, 2399, Note_on_c, 1, 50, 0
1, 2400, Note_on_c, 0, 74, 75
1, 2400, Note_on_c, 1, 57, 67
1, 2400, Note_on_c, 1, 50, 67
1, 2423, Note_on_c, 0, 74, 0
1, 2424, Note_on_c, 0, 73, 75
1, 2447, Note_on_c, 0, 73, 0
1, 2447, Note_on_c, 1, 57, 0
1, 2447, Note_on_c, 1, 50, 0
1, 2448, Note_on_c, 0, 71, 75
1, 2448, Note_on_c, 1, 57, 67
1, 2448, Note_on_c, 1, 50, 67
1, 2471, Note_on_c, 0, 71, 0
1, 2472, Note_on_c, 0, 69, 75
1, 2495, Note_on_c, 0, 69, 0
1, 2495, Note_on_c, 1, 57, 0
1, 2495, Note_on_c, 1, 50, 0
1, 2496, Note_on_c, 0, 76, 75
1, 2496, Note_on_c, 1, 57, 67
1, 2496, Note_on_c, 1, 49, 67
1, 2541, Note_on_c, 0, 76, 0
1, 2543, Note_on_c, 1, 57, 0
1, 2543, Note_on_c, 1, 49, 0
1, 2544, Note_on_c, 1, 57, 67
1, 2544, Note_on_c, 1, 49, 67
1, 2591, Note_on_c, 1, 57, 0
1, 2591, Note_on_c, 1, 49, 0
1, 2592, Note_on_c, 1, 57, 67
1, 2592, Note_on_c, 1, 49, 67
1, 2639, Note_on_c, 1, 57, 0
1, 2639, Note_on_c, 1, 49, 0
1, 2640, Note_on_c, 1, 57, 67
1, 2640, Note_on_c, 1, 49, 67
1, 2687, Note_on_c, 1, 57, 0
1, 2687, Note_on_c, 1, 49, 0
1, 2688, Note_on_c, 0, 81, 75
1, 2688, Note_on_c, 1, 57, 67
1, 2688, Note_on_c, 1, 49, 67
1, 2711, Note_on_c, 0, 81, 0
1, 2712, Note_on_c, 0, 80, 75
1, 2735, Note_on_c, 0, 80, 0
1, 2735, Note_on_c, 1, 57, 0
1, 2735, Note_on_c, 1, 49, 0
1, 2736, Note_on_c, 0, 78, 75
1, 2736, Note_on_c, 1, 57, 67
1, 2736, Note_on_c, 1, 49, 67
1, 2759, Note_on_c, 0, 78, 0
1, 2760, Note_on_c, 0, 76, 75
1, 2783, Note_on_c, 0, 76, 0
1, 2783, Note_on_c, 1, 57, 0
1, 2783, Note_on_c, 1, 49, 0
1, 2784, Note_on_c, 0, 74, 75
1, 2784, Note_on_c, 1, 57, 67
1, 2784, Note_on_c, 1, 49, 67
1, 2807, Note_on_c, 0, 74, 0
1, 2808, Note_on_c, 0, 73, 75
1, 2831, Note_on_c, 0, 73, 0
1, 2831, Note_on_c, 1, 57, 0
1, 2831, Note_on_c, 1, 49, 0
1, 2832, Note_on_c, 0, 71, 75
1, 2832, Note_on_c, 1, 57, 67
1, 2832, Note_on_c, 1, 49, 67
1, 2855, Note_on_c, 0, 71, 0
1, 2856, Note_on_c, 0, 69, 75
1, 2879, Note_on_c, 0, 69, 0
1, 2879, Note_on_c, 1, 57, 0
1, 2879, Note_on_c, 1, 49, 0
1, 2880, Note_on_c, 0, 78, 75
1, 2880, Note_on_c, 1, 57, 67
1, 2880, Note_on_c, 1, 50, 67
1, 2927, Note_on_c, 1, 57, 0
1, 2927, Note_on_c, 1, 50, 0
1, 2928, Note_on_c, 1, 57, 67
1, 2928, Note_on_c, 1, 50, 67
1, 2969, Note_on_c, 0, 78, 0
1, 2975, Note_on_c, 1, 57, 0
1, 2975, Note_on_c, 1, 50, 0
1, 2976, Note_on_c, 0, 76, 75
1, 2976, Note_on_c, 1, 57, 67
1, 2976, Note_on_c, 1, 50, 67
1, 2999, Note_on_c, 0, 76, 0
1, 3000, Note_on_c, 0, 74, 75
1, 3023, Note_on_c, 0, 74, 0
1, 3023, Note_on_c, 1, 57, 0
1, 3023, Note_on_c, 1, 50, 0
1, 3024, Note_on_c, 0, 73, 75
1, 3024, Note_on_c, 1, 57, 67
1, 3024, Note_on_c, 1, 50, 67
1, 3047, Note_on_c, 0, 73, 0
1, 3048, Note_on_c, 0, 71, 75
1, 3071, Note_on_c, 0, 71, 0
1, 3071, Note_on_c, 1, 57, 0
1, 3071, Note_on_c, 1, 50, 0
1, 3072, Note_on_c, 0, 69, 75
1, 3072, Note_on_c, 1, 57, 67
1, 3072, Note_on_c, 1, 52, 67
1, 3119, Note_on_c, 1, 57, 0
1, 3119, Note_on_c, 1, 52, 0
1, 3120, Note_on_c, 1, 57, 67
1, 3120, Note_on_c, 1, 52, 67
1, 3161, Note_on_c, 0, 69, 0
1, 3167, Note_on_c, 1, 57, 0
1, 3167, Note_on_c, 1, 52, 0
1, 3168, Note_on_c, 0, 73, 75
1, 3168, Note_on_c, 1, 56, 67
1, 3168, Note_on_c, 1, 52, 67
1, 3183, Note_on_c, 0, 73, 0
1, 3184, Note_on_c, 0, 71, 75
1, 3199, Note_on_c, 0, 71, 0
1, 3200, Note_on_c, 0, 73, 75
1, 3215, Note_on_c, 0, 73, 0
1, 3215, Note_on_c, 1, 56, 0
1, 3215, Note_on_c, 1, 52, 0
1, 3216, Note_on_c, 0, 71, 75
1, 3216, Note_on_c, 1, 56, 67
1, 3216, Note_on_c, 1, 52, 67
1, 3231, Note_on_c, 0, 71, 0
1, 3232, Note_on_c, 0, 69, 75
1, 3247, Note_on_c, 0, 69, 0
1, 3248, Note_on_c, 0, 71, 75
1, 3263, Note_on_c, 0, 71, 0
1, 3263, Note_on_c, 1, 56, 0
1, 3263, Note_on_c, 1, 52, 0
1, 3264, Note_on_c, 0, 69, 75
1, 3264, Note_on_c, 1, 57, 67
1, 3264, Note_on_c, 1, 45, 67
1, 3353, Note_on_c, 0, 69, 0
1, 3353, Note_on_c, 1, 57, 0
1, 3353, Note_on_c, 1, 45, 0
1, 3360, Note_on_c, 1, 61, 67
1, 3384, Note_on_c, 0, 69, 75
1, 3405, Note_on_c, 1, 61, 0
1, 3407, Note_on_c, 0, 69, 0
1, 3408, Note_on_c, 0, 73, 76
1, 3431, Note_on_c, 0, 73, 0
1, 3432, Note_on_c, 0, 69, 77
1, 3455, Note_on_c, 0, 69, 0
1, 3456, Note_on_c, 1, 62, 77
1, 3480, Note_on_c, 0, 69, 79
1, 3501, Note_on_c, 1, 62, 0
1, 3503, Note_on_c, 0, 69, 0
1, 3504, Note_on_c, 0, 73, 80
1, 3527, Note_on_c, 0, 73, 0
1, 3528, Note_on_c, 0, 69, 81
1, 3551, Note_on_c, 0, 69, 0
1, 3552, Note_on_c, 1, 64, 81
1, 3576, Note_on_c, 0, 69, 83
1, 3597, Note_on_c, 1, 64, 0
1, 3599, Note_on_c, 0, 69, 0
1, 3600, Note_on_c, 0, 73, 84
1, 3623, Note_on_c, 0, 73, 0
1, 3624, Note_on_c, 0, 69, 85
1, 3647, Note_on_c, 0, 69, 0
1, 3648, Note_on_c, 1, 66, 85
1, 3672, Note_on_c, 0, 69, 87
1, 3693, Note_on_c, 1, 66, 0
1, 3695, Note_on_c, 0, 69, 0
1, 3696, Note_on_c, 0, 73, 88
1, 3719, Note_on_c, 0, 73, 0
1, 3720, Note_on_c, 0, 69, 89
1, 3743, Note_on_c, 0, 69, 0
1, 3744, Note_on_c, 1, 49, 89
1, 3744, Note_on_c, 1, 37, 89
1, 3768, Note_on_c, 0, 57, 91
1, 3789, Note_on_c, 1, 49, 0
1, 3789, Note_on_c, 1, 37, 0
1, 3791, Note_on_c, 0, 57, 0
1, 3792, Note_on_c, 0, 61, 92
1, 3815, Note_on_c, 0, 61, 0
1, 3816, Note_on_c, 0, 57, 93
1, 3839, Note_on_c, 0, 57, 0
1, 3840, Note_on_c, 1, 50, 93
1, 3840, Note_on_c, 1, 38, 93
1, 3864, Note_on_c, 0, 57, 95
1, 3885, Note_on_c, 1, 50, 0
1, 3885, Note_on_c, 1, 38, 0
1, 3887, Note_on_c, 0, 57, 0
1, 3888, Note_on_c, 0, 59, 96
1, 3911, Note_on_c, 0, 59, 0
1, 3912, Note_on_c, 0, 57, 97
1, 3935, Note_on_c, 0, 57, 0
1, 3936, Note_on_c, 1, 52, 97
1, 3936, Note_on_c, 1, 40, 97
1, 3960, Note_on_c, 0, 56, 99
1, 3981, Note_on_c, 1, 52, 0
1, 3981, Note_on_c, 1, 40, 0
1, 3983, Note_on_c, 0, 56, 0
1, 3984, Note_on_c, 0, 59, 100
1, 4007, Note_on_c, 0, 59, 0
1, 4008, Note_on_c, 0, 56, 101
1, 4031, Note_on_c, 0, 56, 0
1, 4032, Note_on_c, 0, 57, 102
1, 4032, Note_on_c, 1, 45, 101
1, 4032, Note_on_c, 1, 33, 101
1, 4121, Note_on_c, 0, 57, 0
1, 4121, Note_on_c, 1, 45, 0
1, 4121, Note_on_c, 1, 33, 0
1, 4224, Note_on_c, 0, 64, 84
1, 4224, Note_on_c, 1, 50, 84
1, 4230, Note_on_c, 0, 64, 0
1, 4230, Note_on_c, 0, 62, 84
1, 4236, Note_on_c, 0, 62, 0
1, 4236, Note_on_c, 0, 61, 84
1, 4242, Note_on_c, 0, 61, 0
1, 4242, Note_on_c, 0, 62, 84
1, 4269, Note_on_c, 0, 62, 0
1, 4313, Note_on_c, 1, 50, 0
1, 4320, Note_on_c, 0, 67, 90
1, 4320, Note_on_c, 1, 54, 89
1, 4326, Note_on_c, 0, 67, 0
1, 4326, Note_on_c, 0, 66, 90
1, 4332, Note_on_c, 0, 66, 0
1, 4332, Note_on_c, 0, 64, 90
1, 4338, Note_on_c, 0, 64, 0
1, 4338, Note_on_c, 0, 66, 90
1, 4365, Note_on_c, 0, 66, 0
1, 4409, Note_on_c, 1, 54, 0
1, 4416, Note_on_c, 0, 71, 96
1, 4416, Note_on_c, 1, 57, 95
1, 4422, Note_on_c, 0, 71, 0
1, 4422, Note_on_c, 0, 69, 96
1, 4428, Note_on_c, 0, 69, 0
1, 4428, Note_on_c, 0, 67, 96
1, 4434, Note_on_c, 0, 67, 0
1, 4434, Note_on_c, 0, 69, 96
1, 4461, Note_on_c, 0, 69, 0
1, 4505, Note_on_c, 1, 57, 0
1, 4512, Note_on_c, 0, 76, 102
1, 4512, Note_on_c, 1, 62, 100
1, 4518, Note_on_c, 0, 76, 0
1, 4518, Note_on_c, 0, 74, 102
1, 4524, Note_on_c, 0, 74, 0
1, 4524, Note_on_c, 0, 73, 102
1, 4530, Note_on_c, 0, 73, 0
1, 4530, Note_on_c, 0, 74, 102
1, 4557, Note_on_c, 0, 74, 0
1, 4601, Note_on_c, 1, 62, 0
1, 4608, Note_on_c, 0, 69, 75
1, 4631, Note_on_c, 0, 69, 0
1, 4632, Note_on_c, 0, 71, 76
1, 4655, Note_on_c, 0, 71, 0
1, 4656, Note_on_c, 0, 73, 78
1, 4679, Note_on_c, 0, 73, 0
1, 4680, Note_on_c, 0, 74, 80
1, 4703, Note_on_c, 0, 74, 0
1, 4704, Note_on_c, 0, 76, 82
1, 4727, Note_on_c, 0, 76, 0
1, 4728, Note_on_c, 0, 78, 84
1, 4751, Note_on_c, 0, 78, 0
1, 4752, Note_on_c, 0, 79, 83
1, 4775, Note_on_c, 0, 79, 0
1, 4776, Note_on_c, 0, 81, 82
1, 4799, Note_on_c, 0, 81, 0
1, 4800, Note_on_c, 0, 79, 97
1, 4800, Note_on_c, 0, 76, 97
1, 4800, Note_on_c, 1, 62, 75
1, 4845, Note_on_c, 1, 62, 0
1, 4848, Note_on_c, 1, 57, 75
1, 4893, Note_on_c, 1, 57, 0
1, 4896, Note_on_c, 0, 79, 0
1, 4896, Note_on_c, 0, 76, 0
1, 4896, Note_on_c, 0, 78, 77
1, 4896, Note_on_c, 0, 74, 77
1, 4896, Note_on_c, 1, 50, 75
1, 4941, Note_on_c, 0, 78, 0
1, 4941, Note_on_c, 0, 74, 0
1, 4985, Note_on_c, 1, 50, 0
1, 4992, Note_on_c, 0, 64, 75
1, 4992, Note_on_c, 1, 50, 84
1, 4998, Note_on_c, 0, 64, 0
1, 4998, Note_on_c, 0, 62, 75
1, 5004, Note_on_c, 0, 62, 0
1, 5004, Note_on_c, 0, 61, 75
1, 5010, Note_on_c, 0, 61, 0
1, 5010, Note_on_c, 0, 62, 75
1, 5037, Note_on_c, 0, 62, 0
1, 5081, Note_on_c, 1, 50, 0
1, 5088, Note_on_c, 0, 67, 77
1, 5088, Note_on_c, 1, 54, 89
1, 5094, Note_on_c, 0, 67, 0
1, 5094, Note_on_c, 0, 66, 77
1, 5100, Note_on_c, 0, 66, 0
1, 5100, Note_on_c, 0, 64, 77
1, 5106, Note_on_c, 0, 64, 0
1, 5106, Note_on_c, 0, 66, 77
1, 5133, Note_on_c, 0, 66, 0
1, 5177, Note_on_c, 1, 54, 0
1, 5184, Note_on_c, 0, 71, 80
1, 5184, Note_on_c, 1, 57, 95
1, 5190, Note_on_c, 0, 71, 0
1, 5190, Note_on_c, 0, 69, 80
1, 5196, Note_on_c, 0, 69, 0
1, 5196, Note_on_c, 0, 67, 80
1, 5202, Note_on_c, 0, 67, 0
1, 5202, Note_on_c, 0, 69, 80
1, 5229, Note_on_c, 0, 69, 0
1, 5273, Note_on_c, 1, 57, 0
1, 5280, Note_on_c, 0, 76, 82
1, 5280, Note_on_c, 1, 62, 100
1, 5286, Note_on_c, 0, 76, 0
1, 5286, Note_on_c, 0, 74, 82
1, 5292, Note_on_c, 0, 74, 0
1, 5292, Note_on_c, 0, 73, 82
1, 5298, Note_on_c, 0, 73, 0
1, 5298, Note_on_c, 0, 74, 82
1, 5325, Note_on_c, 0, 74, 0
1, 5369, Note_on_c, 1, 62, 0
1, 5376, Note_on_c, 0, 78, 75
1, 5376, Note_on_c, 1, 50, 75
1, 5399, Note_on_c, 0, 78, 0
1, 5400, Note_on_c, 0, 81, 75
1, 5421, Note_on_c, 1, 50, 0
1, 5423, Note_on_c, 0, 81, 0
1, 5424, Note_on_c, 0, 80, 75
1, 5424, Note_on_c, 1, 57, 75
1, 5447, Note_on_c, 0, 80, 0
1, 5448, Note_on_c, 0, 78, 75
1, 5469, Note_on_c, 1, 57, 0
1, 5471, Note_on_c, 0, 78, 0
1, 5472, Note_on_c, 0, 76, 75
1, 5472, Note_on_c, 1, 49, 75
1, 5517, Note_on_c, 0, 76, 0
1, 5517, Note_on_c, 1, 49, 0
1, 5520, Note_on_c, 1, 57, 75
1, 5565, Note_on_c, 1, 57, 0
1, 5568, Note_on_c, 0, 74, 75
1, 5568, Note_on_c, 1, 47, 75
1, 5591, Note_on_c, 0, 74, 0
1, 5592, Note_on_c, 0, 78, 75
1, 5613, Note_on_c, 1, 47, 0
1, 5615, Note_on_c, 0, 78, 0
1, 5616, Note_on_c, 0, 76, 75
1, 5616, Note_on_c, 1, 56, 75
1, 5639, Note_on_c, 0, 76, 0
1, 5640, Note_on_c, 0, 74, 75
1, 5661, Note_on_c, 1, 56, 0
1, 5663, Note_on_c, 0, 74, 0
1, 5664, Note_on_c, 0, 73, 75
1, 5664, Note_on_c, 1, 57, 75
1, 5709, Note_on_c, 0, 73, 0
1, 5709, Note_on_c, 1, 57, 0
1, 5712, Note_on_c, 1, 45, 75
1, 5757, Note_on_c, 1, 45, 0
1, 5760, Note_on_c, 0, 78, 75
1, 5760, Note_on_c, 1, 50, 75
1, 5783, Note_on_c, 0, 78, 0
1, 5784, Note_on_c, 0, 81, 75
1, 5805, Note_on_c, 1, 50, 0
1, 5807, Note_on_c, 0, 81, 0
1, 5808, Note_on_c, 0, 80, 75
1, 5808, Note_on_c, 1, 57, 75
1, 5831, Note_on_c, 0, 80, 0
1, 5832, Note_on_c, 0, 78, 75
1, 5853, Note_on_c, 1, 57, 0
1, 5855, Note_on_c, 0, 78, 0
1, 5856, Note_on_c, 0, 76, 75
1, 5856, Note_on_c, 1, 49, 75
1, 5901, Note_on_c, 0, 76, 0
1, 5901, Note_on_c, 1, 49, 0
1, 5904, Note_on_c, 1, 57, 75
1, 5949, Note_on_c, 1, 57, 0
1, 5952, Note_on_c, 0, 74, 75
1, 5952, Note_on_c, 1, 47, 75
1, 5975, Note_on_c, 0, 74, 0
1, 5976, Note_on_c, 0, 80, 75
1, 5997, Note_on_c, 1, 47, 0
1, 5999, Note_on_c, 0, 80, 0
1, 6000, Note_on_c, 0, 83, 75
1, 6000, Note_on_c, 1, 56, 75
1, 6023, Note_on_c, 0, 83, 0
1, 6024, Note_on_c, 0, 86, 75
1, 6045, Note_on_c, 1, 56, 0
1, 6047, Note_on_c, 0, 86, 0
1, 6048, Note_on_c, 0, 85, 75
1, 6048, Note_on_c, 1, 57, 75
1, 6093, Note_on_c, 0, 85, 0
1, 6093, Note_on_c, 1, 57, 0
1, 6096, Note_on_c, 1, 45, 75
1, 6141, Note_on_c, 1, 45, 0
1, 6144, Note_on_c, 0, 81, 75
1, 6144, Note_on_c, 1, 57, 67
1, 6144, Note_on_c, 1, 49, 67
1, 6167, Note_on_c, 0, 81, 0
1, 6168, Note_on_c, 0, 80, 75
1, 6191, Note_on_c, 0, 80, 0
1, 6191, Note_on_c, 1, 57, 0
1, 6191, Note_on_c, 1, 49, 0
1, 6192, Note_on_c, 0, 78, 75
1, 6192, Note_on_c, 1, 57, 67
1, 6192, Note_on_c, 1, 49, 67
1, 6215, Note_on_c, 0, 78, 0
1, 6216, Note_on_c, 0, 76, 75
1, 6239, Note_on_c, 0, 76, 0
1, 6239, Note_on_c, 1, 57, 0
1, 6239, Note_on_c, 1, 49, 0
1, 6240, Note_on_c, 0, 74, 75
1, 6240, Note_on_c, 1, 57, 67
1, 6240, Note_on_c, 1, 49, 67
1, 6263, Note_on_c, 0, 74, 0
1, 6264, Note_on_c, 0, 73, 75
1, 6287, Note_on_c, 0, 73, 0
1, 6287, Note_on_c, 1, 57, 0
1, 6287, Note_on_c, 1, 49, 0
1, 6288, Note_on_c, 0, 71, 75
1, 6288, Note_on_c, 1, 57, 67
1, 6288, Note_on_c, 1, 49, 67
1, 6311, Note_on_c, 0, 71, 0
1, 6312, Note_on_c, 0, 69, 75
1, 6335, Note_on_c, 0, 69, 0
1, 6335, Note_on_c, 1, 57, 0
1, 6335, Note_on_c, 1, 49, 0
1, 6336, Note_on_c, 0, 78, 75
1, 6336, Note_on_c, 1, 57, 67
1, 6336, Note_on_c, 1, 50, 67
1, 6381, Note_on_c, 0, 78, 0
1, 6383, Note_on_c, 1, 57, 0
1, 6383, Note_on_c, 1, 50, 0
1, 6384, Note_on_c, 1, 57, 67
1, 6384, Note_on_c, 1, 50, 67
1, 6431, Note_on_c, 1, 57, 0
1, 6431, Note_on_c, 1, 50, 0
1, 6432, Note_on_c, 1, 57, 67
1, 6432, Note_on_c, 1, 50, 67
1, 6479, Note_on_c, 1, 57, 0
1, 6479, Note_on_c, 1, 50, 0
1, 6480, Note_on_c, 1, 57, 67
1, 6480, Note_on_c, 1, 50, 67
1, 6527, Note_on_c, 1, 57, 0
1, 6527, Note_on_c, 1, 50, 0
1, 6528, Note_on_c, 0, 81, 75
1, 6528, Note_on_c, 1, 57, 67
1, 6528, Note_on_c, 1, 50, 67
1, 6551, Note_on_c, 0, 81, 0
1, 6552, Note_on_c, 0, 80, 75
1, 6575, Note_on_c, 0, 80, 0
1, 6575, Note_on_c, 1, 57, 0
1, 6575, Note_on_c, 1, 50, 0
1, 6576, Note_on_c, 0, 78, 75
1, 6576, Note_on_c, 1, 57, 67
1, 6576, Note_on_c, 1, 50, 67
1, 6599, Note_on_c, 0, 78, 0
1, 6600, Note_on_c, 0, 76, 75
1, 6623, Note_on_c, 0, 76, 0
1, 6623, Note_on_c, 1, 57, 0
1, 6623, Note_on_c, 1, 50, 0
1, 6624, Note_on_c, 0, 74, 75
1, 6624, Note_on_c, 1, 57, 67
1, 6624, Note_on_c, 1, 50, 67
1, 6647, Note_on_c, 0, 74, 0
1, 6648, Note_on_c, 0, 73, 75
1, 6671, Note_on_c, 0, 73, 0
1, 6671, Note_on_c, 1, 57, 0
1, 6671, Note_on_c, 1, 50, 0
1, 6672, Note_on_c, 0, 71, 75
1, 6672, Note_on_c, 1, 57, 67
1, 6672, Note_on_c, 1, 50, 67
1, 6695, Note_on_c, 0, 71, 0
1, 6696, Note_on_c, 0, 69, 75
1, 6719, Note_on_c, 0, 69, 0
1, 6719, Note_on_c, 1, 57, 0
1, 6719, Note_on_c, 1, 50, 0
1, 6720, Note_on_c, 0, 76, 75
1, 6720, Note_on_c, 1, 57, 67
1, 6720, Note_on_c, 1, 49, 67
1, 6765, Note_on_c, 0, 76, 0
1, 6767, Note_on_c, 1, 57, 0
1, 6767, Note_on_c, 1, 49, 0
1, 6768, Note_on_c, 1, 57, 67
1, 6768, Note_on_c, 1, 49, 67
1, 6815, Note_on_c, 1, 57, 0
1, 6815, Note_on_c, 1, 49, 0
1, 6816, Note_on_c, 1, 57, 67
1, 6816, Note_on_c, 1, 49, 67
1, 6863, Note_on_c, 1, 57, 0
1, 6863, Note_on_c, 1, 49, 0
1, 6864, Note_on_c, 1, 57, 67
1, 6864, Note_on_c, 1, 49, 67
1, 6911, Note_on_c, 1, 57, 0
1, 6911, Note_on_c, 1, 49, 0
1, 6912, Note_on_c, 0, 81, 75
1, 6912, Note_on_c, 1, 57, 67
1, 6912, Note_on_c, 1, 49, 67
1, 6935, Note_on_c, 0, 81, 0
1, 6936, Note_on_c, 0, 80, 75
1, 6959, Note_on_c, 0, 80, 0
1, 6959, Note_on_c, 1, 57, 0
1, 6959, Note_on_c, 1, 49, 0
1, 6960, Note_on_c, 0, 78, 75
1, 6960, Note_on_c, 1, 57, 67
1, 6960, Note_on_c, 1, 49, 67
1, 6983, Note_on_c, 0, 78, 0
1, 6984, Note_on_c, 0, 76, 75
1, 7007, Note_on_c, 0, 76, 0
1, 7007, Note_on_c, 1, 57, 0
1, 7007, Note_on_c, 1, 49, 0
1, 7008, Note_on_c, 0, 74, 75
1, 7008, Note_on_c, 1, 57, 67
1, 7008, Note_on_c, 1, 49, 67
1, 7031, Note_on_c, 0, 74, 0
1, 7032, Note_on_c, 0, 73, 75
1, 7055, Note_on_c, 0, 73, 0
1, 7055, Note_on_c, 1, 57, 0
1, 7055, Note_on_c, 1, 49, 0
1, 7056, Note_on_c, 0, 71, 75
1, 7056, Note_on_c, 1, 57, 67
1, 7056, Note_on_c, 1, 49, 67
1, 7079, Note_on_c, 0, 71, 0
1, 7080, Note_on_c, 0, 69, 75
1, 7103, Note_on_c, 0, 69, 0
1, 7103, Note_on_c, 1, 57, 0
1, 7103, Note_on_c, 1, 49, 0
1, 7104, Note_on_c, 0, 78, 75
1, 7104, Note_on_c, 1, 57, 67
1, 7104, Note_on_c, 1, 50, 67
1, 7151, Note_on_c, 1, 57, 0
1, 7151, Note_on_c, 1, 50, 0
1, 7152, Note_on_c, 1, 57, 67
1, 7152, Note_on_c, 1, 50, 67
1, 7193, Note_on_c, 0, 78, 0
1, 7199, Note_on_c, 1, 57, 0
1, 7199, Note_on_c, 1, 50, 0
1, 7200, Note_on_c, 0, 76, 75
1, 7200, Note_on_c, 1, 57, 67
1, 7200, Note_on_c, 1, 50, 67
1, 7223, Note_on_c, 0, 76, 0
1, 7224, Note_on_c, 0, 74, 75
1, 7247, Note_on_c, 0, 74, 0
1, 7247, Note_on_c, 1, 57, 0
1, 7247, Note_on_c, 1, 50, 0
1, 7248, Note_on_c, 0, 73, 75
1, 7248, Note_on_c, 1, 57, 67
1, 7248, Note_on_c, 1, 50, 67
1, 7271, Note_on_c, 0, 73, 0
1, 7272, Note_on_c, 0, 71, 75
1, 7295, Note_on_c, 0, 71, 0
1, 7295, Note_on_c, 1, 57, 0
1, 7295, Note_on_c, 1, 50, 0
1, 7296, Note_on_c, 0, 69, 75
1, 7296, Note_on_c, 1, 57, 67
1, 7296, Note_on_c, 1, 52, 67
1, 7343, Note_on_c, 1, 57, 0
1, 7343, Note_on_c, 1, 52, 0
1, 7344, Note_on_c, 1, 57, 67
1, 7344, Note_on_c, 1, 52, 67
1, 7385, Note_on_c, 0, 69, 0
1, 7391, Note_on_c, 1, 57, 0
1, 7391, Note_on_c, 1, 52, 0
1, 7392, Note_on_c, 0, 73, 75
1, 7392, Note_on_c, 1, 56, 67
1, 7392, Note_on_c, 1, 52, 67
1, 7407, Note_on_c, 0, 73, 0
1, 7408, Note_on_c, 0, 71, 75
1, 7423, Note_on_c, 0, 71, 0
1, 7424, Note_on_c, 0, 73, 75
1, 7439, Note_on_c, 0, 73, 0
1, 7439, Note_on_c, 1, 56, 0
1, 7439, Note_on_c, 1, 52, 0
1, 7440, Note_on_c, 0, 71, 75
1, 7440, Note_on_c, 1, 56, 67
1, 7440, Note_on_c, 1, 52, 67
1, 7455, Note_on_c, 0, 71, 0
1, 7456, Note_on_c, 0, 69, 75
1, 7471, Note_on_c, 0, 69, 0
1, 7472, Note_on_c, 0, 71, 75
1, 7487, Note_on_c, 0, 71, 0
1, 7487, Note_on_c, 1, 56, 0
1, 7487, Note_on_c, 1, 52, 0
1, 7488, Note_on_c, 0, 69, 75
1, 7488, Note_on_c, 1, 57, 67
1, 7488, Note_on_c, 1, 45, 67
1, 7577, Note_on_c, 0, 69, 0
1, 7577, Note_on_c, 1, 57, 0
1, 7577, Note_on_c, 1, 45, 0
1, 7584, Note_on_c, 1, 61, 67
1, 7608, Note_on_c, 0, 69, 75
1, 7629, Note_on_c, 1, 61, 0
1, 7631, Note_on_c, 0, 69, 0
1, 7632, Note_on_c, 0, 73, 76
1, 7655, Note_on_c, 0, 73, 0
1, 7656, Note_on_c, 0, 69, 77
1, 7679, Note_on_c, 0, 69, 0
1, 7680, Note_on_c, 1, 62, 77
1, 7704, Note_on_c, 0, 69, 79
1, 7725, Note_on_c, 1, 62, 0
1, 7727, Note_on_c, 0, 69, 0
1, 7728, Note_on_c, 0, 73, 80
1, 7751, Note_on_c, 0, 73, 0
1, 7752, Note_on_c, 0, 69, 81
1, 7775, Note_on_c, 0, 69, 0
1, 7776, Note_on_c, 1, 64, 81
1, 7800, Note_on_c, 0, 69, 83
1, 7821, Note_on_c, 1, 64, 0
1, 7823, Note_on_c, 0, 69, 0
1, 7824, Note_on_c, 0, 73, 84
1, 7847, Note_on_c, 0, 73, 0
1, 7848, Note_on_c, 0, 69, 85
1, 7871, Note_on_c, 0, 69, 0
1, 7872, Note_on_c, 1, 66, 85
1, 7896, Note_on_c, 0, 69, 87
1, 7917, Note_on_c, 1, 66, 0
1, 7919, Note_on_c, 0, 69, 0
1, 7920, Note_on_c, 0, 73, 88
1, 7943, Note_on_c, 0, 73, 0
1, 7944, Note_on_c, 0, 69, 89
1, 7967, Note_on_c, 0, 69, 0
1, 7968, Note_on_c, 1, 49, 89
1, 7968, Note_on_c, 1, 37, 89
1, 7992, Note_on_c, 0, 57, 91
1, 8013, Note_on_c, 1, 49, 0
1, 8013, Note_on_c, 1, 37, 0
1, 8015, Note_on_c, 0, 57, 0
1, 8016, Note_on_c, 0, 61, 92
1, 8039, Note_on_c, 0, 61, 0
1, 8040, Note_on_c, 0, 57, 93
1, 8063, Note_on_c, 0, 57, 0
1, 8064, Note_on_c, 1, 50, 93
1, 8064, Note_on_c, 1, 38, 93
1, 8088, Note_on_c, 0, 57, 95
1, 8109, Note_on_c, 1, 50, 0
1, 8109, Note_on_c, 1, 38, 0
1, 8111, Note_on_c, 0, 57, 0
1, 8112, Note_on_c, 0, 59, 96
1, 8135, Note_on_c, 0, 59, 0
1, 8136, Note_on_c, 0, 57, 97
1, 8159, Note_on_c, 0, 57, 0
1, 8160, Note_on_c, 1, 52, 97
1, 8160, Note_on_c, 1, 40, 97
1, 8184, Note_on_c, 0, 56, 99
1, 8205, Note_on_c, 1, 52, 0
1, 8205, Note_on_c, 1, 40, 0
1, 8207, Note_on_c, 0, 56, 0
1, 8208, Note_on_c, 0, 59, 100
1, 8231, Note_on_c, 0, 59, 0
1, 8232, Note_on_c, 0, 56, 101
1, 8255, Note_on_c, 0, 56, 0
1, 8256, Note_on_c, 0, 57, 102
1, 8256, Note_on_c, 1, 45, 101
1, 8256, Note_on_c, 1, 33, 101
1, 8345, Note_on_c, 0, 57, 0
1, 8345, Note_on_c, 1, 45, 0
1, 8345, Note_on_c, 1, 33, 0
1, 8448, Note_on_c, 1, 57, 100
1, 8448, Note_on_c, 1, 45, 100
1, 8472, Note_on_c, 0, 61, 84
1, 8495, Note_on_c, 0, 61, 0
1, 8496, Note_on_c, 0, 69, 84
1, 8519, Note_on_c, 0, 69, 0
1, 8520, Note_on_c, 0, 61, 84
1, 8543, Note_on_c, 0, 61, 0
1, 8544, Note_on_c, 1, 57, 0
1, 8544, Note_on_c, 1, 45, 0
1, 8544, Note_on_c, 1, 81, 84
1, 8568, Note_on_c, 0, 66, 84
1, 8589, Note_on_c, 1, 81, 0
1, 8591, Note_on_c, 0, 66, 0
1, 8592, Note_on_c, 0, 69, 84
1, 8615, Note_on_c, 0, 69, 0
1, 8616, Note_on_c, 0, 66, 84
1, 8639, Note_on_c, 0, 66, 0
1, 8640, Note_on_c, 1, 79, 84
1, 8664, Note_on_c, 0, 64, 84
1, 8685, Note_on_c, 1, 79, 0
1, 8687, Note_on_c, 0, 64, 0
1, 8688, Note_on_c, 0, 69, 84
1, 8711, Note_on_c, 0, 69, 0
1, 8712, Note_on_c, 0, 64, 84
1, 8735, Note_on_c, 0, 64, 0
1, 8736, Note_on_c, 1, 78, 84
1, 8760, Note_on_c, 0, 62, 84
1, 8781, Note_on_c, 1, 78, 0
1, 8783, Note_on_c, 0, 62, 0
1, 8784, Note_on_c, 0, 69, 84
1, 8807, Note_on_c, 0, 69, 0
1, 8808, Note_on_c, 0, 62, 84
1, 8831, Note_on_c, 0, 62, 0
1, 8832, Note_on_c, 1, 76, 84
1, 8856, Note_on_c, 0, 61, 84
1, 8877, Note_on_c, 1, 76, 0
1, 8879, Note_on_c, 0, 61, 0
1, 8880, Note_on_c, 0, 69, 84
1, 8903, Note_on_c, 0, 69, 0
1, 8904, Note_on_c, 0, 61, 84
1, 8927, Note_on_c, 0, 61, 0
1, 8928, Note_on_c, 1, 54, 84
1, 8928, Note_on_c, 1, 42, 84
1, 8952, Note_on_c, 0, 62, 84
1, 8975, Note_on_c, 0, 62, 0
1, 8976, Note_on_c, 0, 69, 84
1, 8999, Note_on_c, 0, 69, 0
1, 9000, Note_on_c, 0, 62, 84
1, 9017, Note_on_c, 1, 54, 0
1, 9017, Note_on_c, 1, 42, 0
1, 9023, Note_on_c, 0, 62, 0
1, 9024, Note_on_c, 1, 52, 84
1, 9024, Note_on_c, 1, 40, 84
1, 9048, Note_on_c, 0, 61, 84
1, 9071, Note_on_c, 0, 61, 0
1, 9072, Note_on_c, 0, 67, 84
1, 9095, Note_on_c, 0, 67, 0
1, 9096, Note_on_c, 0, 61, 84
1, 9113, Note_on_c, 1, 52, 0
1, 9113, Note_on_c, 1, 40, 0
1, 9119, Note_on_c, 0, 61, 0
1, 9120, Note_on_c, 1, 50, 84
1, 9120, Note_on_c, 1, 38, 84
1, 9144, Note_on_c, 0, 62, 84
1, 9167, Note_on_c, 0, 62, 0
1, 9168, Note_on_c, 0, 66, 84
1, 9191, Note_on_c, 0, 66, 0
1, 9192, Note_on_c, 0, 62, 84
1, 9209, Note_on_c, 1, 50, 0
1, 9209, Note_on_c, 1, 38, 0
1, 9215, Note_on_c, 0, 62, 0
1, 9216, Note_on_c, 1, 45, 100
1, 9216, Note_on_c, 1, 33, 100
1, 9240, Note_on_c, 0, 61, 84
1, 9263, Note_on_c, 0, 61, 0
1, 9264, Note_on_c, 0, 69, 84
1, 9287, Note_on_c, 0, 69, 0
1, 9288, Note_on_c, 0, 61, 84
1, 9311, Note_on_c, 0, 61, 0
1, 9312, Note_on_c, 1, 45, 0
1, 9312, Note_on_c, 1, 33, 0
1, 9312, Note_on_c, 1, 81, 84
1, 9336, Note_on_c, 0, 66, 84
1, 9357, Note_on_c, 1, 81, 0
1, 9359, Note_on_c, 0, 66, 0
1, 9360, Note_on_c, 0, 69, 84
1, 9383, Note_on_c, 0, 69, 0
1, 9384, Note_on_c, 0, 66, 84
1, 9407, Note_on_c, 0, 66, 0
1, 9408, Note_on_c, 1, 79, 84
1, 9432, Note_on_c, 0, 64, 84
1, 9453, Note_on_c, 1, 79, 0
1, 9455, Note_on_c, 0, 64, 0
1, 9456, Note_on_c, 0, 69, 84
1, 9479, Note_on_c, 0, 69, 0
1, 9480, Note_on_c, 0, 64, 84
1, 9503, Note_on_c, 0, 64, 0
1, 9504, Note_on_c, 1, 78, 84
1, 9528, Note_on_c, 0, 62, 84
1, 9549, Note_on_c, 1, 78, 0
1, 9551, Note_on_c, 0, 62, 0
1, 9552, Note_on_c, 0, 69, 84
1, 9575, Note_on_c, 0, 69, 0
1, 9576, Note_on_c, 0, 62, 84
1, 9599, Note_on_c, 0, 62, 0
1, 9600, Note_on_c, 1, 76, 84
1, 9624, Note_on_c, 0, 61, 84
1, 9645, Note_on_c, 1, 76, 0
1, 9647, Note_on_c, 0, 61, 0
1, 9648, Note_on_c, 0, 69, 84
1, 9671, Note_on_c, 0, 69, 0
1, 9672, Note_on_c, 0, 61, 84
1, 9695, Note_on_c, 0, 61, 0
1, 9696, Note_on_c, 1, 54, 84
1, 9696, Note_on_c, 1, 42, 84
1, 9720, Note_on_c, 0, 62, 84
1, 9743, Note_on_c, 0, 62, 0
1, 9744, Note_on_c, 0, 69, 84
1, 9767, Note_on_c, 0, 69, 0
1, 9768, Note_on_c, 0, 62, 84
1, 9785, Note_on_c, 1, 54, 0
1, 9785, Note_on_c, 1, 42, 0
1, 9791, Note_on_c, 0, 62, 0
1, 9792, Note_on_c, 1, 52, 84
1, 9792, Note_on_c, 1, 40, 84
1, 9816, Note_on_c, 0, 61, 84
1, 9839, Note_on_c, 0, 61, 0
1, 9840, Note_on_c, 0, 67, 84
1, 9863, Note_on_c, 0, 67, 0
1, 9864, Note_on_c, 0, 61, 84
1, 9881, Note_on_c, 1, 52, 0
1, 9881, Note_on_c, 1, 40, 0
1, 9887, Note_on_c, 0, 61, 0
1, 9888, Note_on_c, 1, 50, 84
1, 9888, Note_on_c, 1, 38, 84
1, 9912, Note_on_c, 0, 62, 84
1, 9935, Note_on_c, 0, 62, 0
1, 9936, Note_on_c, 0, 66, 84
1, 9959, Note_on_c, 0, 66, 0
1, 9960, Note_on_c, 0, 62, 84
1, 9977, Note_on_c, 1, 50, 0
1, 9977, Note_on_c, 1, 38, 0
1, 9983, Note_on_c, 0, 62, 0
1, 9984, Note_on_c, 1, 45, 100
1, 9984, Note_on_c, 1, 33, 100
1, 10008, Note_on_c, 0, 61, 84
1, 10031, Note_on_c, 0, 61, 0
1, 10032, Note_on_c, 0, 69, 84
1, 10055, Note_on_c, 0, 69, 0
1, 10056, Note_on_c, 0, 61, 84
1, 10079, Note_on_c, 0, 61, 0
1, 10080, Note_on_c, 1, 45, 0
1, 10080, Note_on_c, 1, 33, 0
1, 10080, Note_on_c, 1, 48, 100
1, 10080, Note_on_c, 1, 36, 100
1, 10104, Note_on_c, 0, 64, 84
1, 10127, Note_on_c, 0, 64, 0
1, 10128, Note_on_c, 0, 69, 84
1, 10151, Note_on_c, 0, 69, 0
1, 10152, Note_on_c, 0, 64, 84
1, 10175, Note_on_c, 0, 64, 0
1, 10176, Note_on_c, 1, 48, 0
1, 10176, Note_on_c, 1, 36, 0
1, 10176, Note_on_c, 1, 47, 100
1, 10176, Note_on_c, 1, 35, 100
1, 10200, Note_on_c, 0, 63, 84
1, 10223, Note_on_c, 0, 63, 0
1, 10224, Note_on_c, 0, 69, 84
1, 10247, Note_on_c, 0, 69, 0
1, 10248, Note_on_c, 0, 63, 84
1, 10271, Note_on_c, 0, 63, 0
1, 10272, Note_on_c, 1, 47, 0
1, 10272, Note_on_c, 1, 35, 0
1, 10272, Note_on_c, 1, 51, 100
1, 10296, Note_on_c, 0, 59, 84
1, 10319, Note_on_c, 0, 59, 0
1, 10320, Note_on_c, 0, 69, 84
1, 10343, Note_on_c, 0, 69, 0
1, 10344, Note_on_c, 0, 59, 84
1, 10367, Note_on_c, 0, 59, 0
1, 10368, Note_on_c, 1, 51, 0
1, 10368, Note_on_c, 1, 52, 100
1, 10392, Note_on_c, 0, 59, 84
1, 10415, Note_on_c, 0, 59, 0
1, 10416, Note_on_c, 0, 67, 84
1, 10439, Note_on_c, 0, 67, 0
1, 10440, Note_on_c, 0, 59, 84
1, 10463, Note_on_c, 0, 59, 0
1, 10464, Note_on_c, 1, 52, 0
1, 10464, Note_on_c, 1, 46, 100
1, 10464, Note_on_c, 1, 34, 100
1, 10488, Note_on_c, 0, 62, 84
1, 10511, Note_on_c, 0, 62, 0
1, 10512, Note_on_c, 0, 67, 84
1, 10535, Note_on_c, 0, 67, 0
1, 10536, Note_on_c, 0, 62, 84
1, 10559, Note_on_c, 0, 62, 0
1, 10560, Note_on_c, 1, 46, 0
1, 10560, Note_on_c, 1, 34, 0
1, 10560, Note_on_c, 1, 45, 100
1, 10560, Note_on_c, 1, 33, 100
1, 10584, Note_on_c, 0, 61, 84
1, 10607, Note_on_c, 0, 61, 0
1, 10608, Note_on_c, 0, 67, 84
1, 10631, Note_on_c, 0, 67, 0
1, 10632, Note_on_c, 0, 61, 84
1, 10655, Note_on_c, 0, 61, 0
1, 10656, Note_on_c, 1, 45, 0
1, 10656, Note_on_c, 1, 33, 0
1, 10656, Note_on_c, 1, 49, 100
1, 10680, Note_on_c, 0, 57, 84
1, 10703, Note_on_c, 0, 57, 0
1, 10704, Note_on_c, 0, 67, 84
1, 10727, Note_on_c, 0, 67, 0
1, 10728, Note_on_c, 0, 57, 84
1, 10751, Note_on_c, 0, 57, 0
1, 10752, Note_on_c, 1, 49, 0
1, 10752, Note_on_c, 1, 50, 100
1, 10776, Note_on_c, 0, 57, 85
1, 10799, Note_on_c, 0, 57, 0
1, 10800, Note_on_c, 0, 66, 86
1, 10823, Note_on_c, 0, 66, 0
1, 10824, Note_on_c, 0, 57, 88
1, 10847, Note_on_c, 0, 57, 0
1, 10848, Note_on_c, 1, 50, 0
1, 10848, Note_on_c, 1, 54, 89
1, 10848, Note_on_c, 1, 42, 89
1, 10872, Note_on_c, 0, 62, 90
1, 10895, Note_on_c, 0, 62, 0
1, 10896, Note_on_c, 0, 66, 92
1, 10919, Note_on_c, 0, 66, 0
1, 10920, Note_on_c, 0, 62, 93
1, 10937, Note_on_c, 1, 54, 0
1, 10937, Note_on_c, 1, 42, 0
1, 10943, Note_on_c, 0, 62, 0
1, 10944, Note_on_c, 1, 55, 95
1, 10944, Note_on_c, 1, 43, 95
1, 10968, Note_on_c, 0, 62, 96
1, 10991, Note_on_c, 0, 62, 0
1, 10992, Note_on_c, 0, 66, 97
1, 11015, Note_on_c, 0, 66, 0
1, 11016, Note_on_c, 0, 62, 99
1, 11033, Note_on_c, 1, 55, 0
1, 11033, Note_on_c, 1, 43, 0
1, 11039, Note_on_c, 0, 62, 0
1, 11040, Note_on_c, 1, 57, 100
1, 11040, Note_on_c, 1, 45, 100
1, 11064, Note_on_c, 0, 62, 101
1, 11087, Note_on_c, 0, 62, 0
1, 11088, Note_on_c, 0, 66, 103
1, 11111, Note_on_c, 0, 66, 0
1, 11112, Note_on_c, 0, 62, 104
1, 11129, Note_on_c, 1, 57, 0
1, 11129, Note_on_c, 1, 45, 0
1, 11135, Note_on_c, 0, 62, 0
1, 11136, Note_on_c, 1, 59, 106
1, 11136, Note_on_c, 1, 47, 106
1, 11160, Note_on_c, 0, 62, 106
1, 11183, Note_on_c, 0, 62, 0
1, 11184, Note_on_c, 0, 66, 106
1, 11207, Note_on_c, 0, 66, 0
1, 11208, Note_on_c, 0, 62, 106
1, 11225, Note_on_c, 1, 59, 0
1, 11225, Note_on_c, 1, 47, 0
1, 11231, Note_on_c, 0, 62, 0
1, 11232, Note_on_c, 1, 54, 106
1, 11232, Note_on_c, 1, 42, 106
1, 11256, Note_on_c, 0, 62, 106
1, 11279, Note_on_c, 0, 62, 0
1, 11280, Note_on_c, 0, 69, 106
1, 11303, Note_on_c, 0, 69, 0
1, 11304, Note_on_c, 0, 62, 106
1, 11321, Note_on_c, 1, 54, 0
1, 11321, Note_on_c, 1, 42, 0
1, 11327, Note_on_c, 0, 62, 0
1, 11328, Note_on_c, 0, 71, 106
1, 11328, Note_on_c, 1, 55, 106
1, 11328, Note_on_c, 1, 43, 106
1, 11351, Note_on_c, 0, 71, 0
1, 11352, Note_on_c, 0, 69, 106
1, 11375, Note_on_c, 0, 69, 0
1, 11376, Note_on_c, 0, 67, 106
1, 11399, Note_on_c, 0, 67, 0
1, 11400, Note_on_c, 0, 66, 106
1, 11417, Note_on_c, 1, 55, 0
1, 11417, Note_on_c, 1, 43, 0
1, 11423, Note_on_c, 0, 66, 0
1, 11424, Note_on_c, 0, 64, 106
1, 11447, Note_on_c, 0, 64, 0
1, 11448, Note_on_c, 0, 62, 106
1, 11471, Note_on_c, 0, 62, 0
1, 11472, Note_on_c, 0, 61, 106
1, 11495, Note_on_c, 0, 61, 0
1, 11496, Note_on_c, 0, 59, 106
1, 11519, Note_on_c, 0, 59, 0
1, 11520, Note_on_c, 0, 57, 106
1, 11520, Note_on_c, 1, 45, 106
1, 11520, Note_on_c, 1, 33, 106
1, 11609, Note_on_c, 0, 57, 0
1, 11609, Note_on_c, 1, 45, 0
1, 11609, Note_on_c, 1, 33, 0
1, 11712, Note_on_c, 0, 64, 84
1, 11712, Note_on_c, 1, 50, 84
1, 11718, Note_on_c, 0, 64, 0
1, 11718, Note_on_c, 0, 62, 84
1, 11724, Note_on_c, 0, 62, 0
1, 11724, Note_on_c, 0, 61, 84
1, 11730, Note_on_c, 0, 61, 0
1, 11730, Note_on_c, 0, 62, 84
1, 11757, Note_on_c, 0, 62, 0
1, 11801, Note_on_c, 1, 50, 0
1, 11808, Note_on_c, 0, 67, 91
1, 11808, Note_on_c, 1, 54, 89
1, 11814, Note_on_c, 0, 67, 0
1, 11814, Note_on_c, 0, 66, 91
1, 11820, Note_on_c, 0, 66, 0
1, 11820, Note_on_c, 0, 64, 91
1, 11826, Note_on_c, 0, 64, 0
1, 11826, Note_on_c, 0, 66, 91
1, 11853, Note_on_c, 0, 66, 0
1, 11897, Note_on_c, 1, 54, 0
1, 11904, Note_on_c, 0, 71, 98
1, 11904, Note_on_c, 1, 57, 95
1, 11910, Note_on_c, 0, 71, 0
1, 11910, Note_on_c, 0, 69, 98
1, 11916, Note_on_c, 0, 69, 0
1, 11916, Note_on_c, 0, 67, 98
1, 11922, Note_on_c, 0, 67, 0
1, 11922, Note_on_c, 0, 69, 98
1, 11949, Note_on_c, 0, 69, 0
1, 11993, Note_on_c, 1, 57, 0
1, 12000, Note_on_c, 0, 76, 106
1, 12000, Note_on_c, 1, 62, 100
1, 12006, Note_on_c, 0, 76, 0
1, 12006, Note_on_c, 0, 74, 106
1, 12012, Note_on_c, 0, 74, 0
1, 12012, Note_on_c, 0, 73, 106
1, 12018, Note_on_c, 0, 73, 0
1, 12018, Note_on_c, 0, 74, 106
1, 12045, Note_on_c, 0, 74, 0
1, 12089, Note_on_c, 1, 62, 0
1, 12096, Note_on_c, 0, 69, 75
1, 12119, Note_on_c, 0, 69, 0
1, 12120, Note_on_c, 0, 71, 76
1, 12143, Note_on_c, 0, 71, 0
1, 12144, Note_on_c, 0, 73, 78
1, 12167, Note_on_c, 0, 73, 0
1, 12168, Note_on_c, 0, 74, 80
1, 12191, Note_on_c, 0, 74, 0
1, 12192, Note_on_c, 0, 76, 82
1, 12215, Note_on_c, 0, 76, 0
1, 12216, Note_on_c, 0, 78, 84
1, 12239, Note_on_c, 0, 78, 0
1, 12240, Note_on_c, 0, 79, 83
1, 12263, Note_on_c, 0, 79, 0
1, 12264, Note_on_c, 0, 81, 82
1, 12287, Note_on_c, 0, 81, 0
1, 12288, Note_on_c, 0, 79, 97
1, 12288, Note_on_c, 0, 76, 97
1, 12288, Note_on_c, 1, 62, 75
1, 12333, Note_on_c, 1, 62, 0
1, 12336, Note_on_c, 1, 57, 75
1, 12381, Note_on_c, 1, 57, 0
1, 12384, Note_on_c, 0, 79, 0
1, 12384, Note_on_c, 0, 76, 0
1, 12384, Note_on_c, 0, 78, 77
1, 12384, Note_on_c, 0, 74, 77
1, 12384, Note_on_c, 1, 50, 75
1, 12429, Note_on_c, 0, 78, 0
1, 12429, Note_on_c, 0, 74, 0
1, 12473, Note_on_c, 1, 50, 0
1, 12480, Note_on_c, 0, 64, 84
1, 12480, Note_on_c, 1, 50, 84
1, 12486, Note_on_c, 0, 64, 0
1, 12486, Note_on_c, 0, 62, 84
1, 12492, Note_on_c, 0, 62, 0
1, 12492, Note_on_c, 0, 61, 84
1, 12498, Note_on_c, 0, 61, 0
1, 12498, Note_on_c, 0, 62, 84
1, 12525, Note_on_c, 0, 62, 0
1, 12569, Note_on_c, 1, 50, 0
1, 12576, Note_on_c, 0, 67, 90
1, 12576, Note_on_c, 1, 54, 89
1, 12582, Note_on_c, 0, 67, 0
1, 12582, Note_on_c, 0, 66, 90
1, 12588, Note_on_c, 0, 66, 0
1, 12588, Note_on_c, 0, 64, 90
1, 12594, Note_on_c, 0, 64, 0
1, 12594, Note_on_c, 0, 66, 90
1, 12621, Note_on_c, 0, 66, 0
1, 12665, Note_on_c, 1, 54, 0
1, 12672, Note_on_c, 0, 71, 96
1, 12672, Note_on_c, 1, 57, 95
1, 12678, Note_on_c, 0, 71, 0
1, 12678, Note_on_c, 0, 69, 96
1, 12684, Note_on_c, 0, 69, 0
1, 12684, Note_on_c, 0, 67, 96
1, 12690, Note_on_c, 0, 67, 0
1, 12690, Note_on_c, 0, 69, 96
1, 12717, Note_on_c, 0, 69, 0
1, 12761, Note_on_c, 1, 57, 0
1, 12768, Note_on_c, 0, 76, 102
1, 12768, Note_on_c, 1, 62, 100
1, 12774, Note_on_c, 0, 76, 0
1, 12774, Note_on_c, 0, 74, 102
1, 12780, Note_on_c, 0, 74, 0
1, 12780, Note_on_c, 0, 73, 102
1, 12786, Note_on_c, 0, 73, 0
1, 12786, Note_on_c, 0, 74, 102
1, 12813, Note_on_c, 0, 74, 0
1, 12857, Note_on_c, 1, 62, 0
1, 12864, Note_on_c, 0, 83, 75
1, 12864, Note_on_c, 1, 55, 75
1, 12887, Note_on_c, 0, 83, 0
1, 12888, Note_on_c, 0, 86, 75
1, 12909, Note_on_c, 1, 55, 0
1, 12911, Note_on_c, 0, 86, 0
1, 12912, Note_on_c, 0, 85, 75
1, 12912, Note_on_c, 1, 62, 75
1, 12935, Note_on_c, 0, 85, 0
1, 12936, Note_on_c, 0, 83, 75
1, 12957, Note_on_c, 1, 62, 0
1, 12959, Note_on_c, 0, 83, 0
1, 12960, Note_on_c, 0, 81, 75
1, 12960, Note_on_c, 1, 54, 75
1, 13005, Note_on_c, 0, 81, 0
1, 13005, Note_on_c, 1, 54, 0
1, 13008, Note_on_c, 1, 62, 75
1, 13053, Note_on_c, 1, 62, 0
1, 13056, Note_on_c, 0, 79, 75
1, 13056, Note_on_c, 1, 52, 75
1, 13079, Note_on_c, 0, 79, 0
1, 13080, Note_on_c, 0, 83, 75
1, 13101, Note_on_c, 1, 52, 0
1, 13103, Note_on_c, 0, 83, 0
1, 13104, Note_on_c, 0, 81, 75
1, 13104, Note_on_c, 1, 61, 75
1, 13127, Note_on_c, 0, 81, 0
1, 13128, Note_on_c, 0, 79, 75
1, 13149, Note_on_c, 1, 61, 0
1, 13151, Note_on_c, 0, 79, 0
1, 13152, Note_on_c, 0, 78, 75
1, 13152, Note_on_c, 1, 62, 75
1, 13197, Note_on_c, 0, 78, 0
1, 13197, Note_on_c, 1, 62, 0
1, 13200, Note_on_c, 1, 50, 75
1, 13245, Note_on_c, 1, 50, 0
1, 13248, Note_on_c, 0, 71, 75
1, 13248, Note_on_c, 1, 55, 75
1, 13271, Note_on_c, 0, 71, 0
1, 13272, Note_on_c, 0, 74, 75
1, 13293, Note_on_c, 1, 55, 0
1, 13295, Note_on_c, 0, 74, 0
1, 13296, Note_on_c, 0, 73, 75
1, 13296, Note_on_c, 1, 62, 75
1, 13319, Note_on_c, 0, 73, 0
1, 13320, Note_on_c, 0, 71, 75
1, 13341, Note_on_c, 1, 62, 0
1, 13343, Note_on_c, 0, 71, 0
1, 13344, Note_on_c, 0, 69, 75
1, 13344, Note_on_c, 1, 54, 75
1, 13389, Note_on_c, 0, 69, 0
1, 13389, Note_on_c, 1, 54, 0
1, 13392, Note_on_c, 1, 62, 75
1, 13437, Note_on_c, 1, 62, 0
1, 13440, Note_on_c, 0, 67, 75
1, 13440, Note_on_c, 1, 52, 75
1, 13463, Note_on_c, 0, 67, 0
1, 13464, Note_on_c, 0, 71, 75
1, 13485, Note_on_c, 1, 52, 0
1, 13487, Note_on_c, 0, 71, 0
1, 13488, Note_on_c, 0, 69, 75
1, 13488, Note_on_c, 1, 61, 75
1, 13511, Note_on_c, 0, 69, 0
1, 13512, Note_on_c, 0, 79, 75
1, 13533, Note_on_c, 1, 61, 0
1, 13535, Note_on_c, 0, 79, 0
1, 13536, Note_on_c, 0, 78, 75
1, 13536, Note_on_c, 1, 62, 75
1, 13581, Note_on_c, 0, 78, 0
1, 13581, Note_on_c, 1, 62, 0
1, 13584, Note_on_c, 1, 50, 75
1, 13629, Note_on_c, 1, 50, 0
1, 13632, Note_on_c, 0, 86, 75
1, 13632, Note_on_c, 1, 62, 67
1, 13632, Note_on_c, 1, 54, 67
1, 13655, Note_on_c, 0, 86, 0
1, 13656, Note_on_c, 0, 85, 75
1, 13679, Note_on_c, 0, 85, 0
1, 13679, Note_on_c, 1, 62, 0
1, 13679, Note_on_c, 1, 54, 0
1, 13680, Note_on_c, 0, 83, 75
1, 13680, Note_on_c, 1, 62, 67
1, 13680, Note_on_c, 1, 54, 67
1, 13703, Note_on_c, 0, 83, 0
1, 13704, Note_on_c, 0, 81, 75
1, 13727, Note_on_c, 0, 81, 0
1, 13727, Note_on_c, 1, 62, 0
1, 13727, Note_on_c, 1, 54, 0
1, 13728, Note_on_c, 0, 79, 75
1, 13728, Note_on_c, 1, 62, 67
1, 13728, Note_on_c, 1, 54, 67
1, 13751, Note_on_c, 0, 79, 0
1, 13752, Note_on_c, 0, 78, 75
1, 13775, Note_on_c, 0, 78, 0
1, 13775, Note_on_c, 1, 62, 0
1, 13775, Note_on_c, 1, 54, 0
1, 13776, Note_on_c, 0, 76, 75
1, 13776, Note_on_c, 1, 62, 67
1, 13776, Note_on_c, 1, 54, 67
1, 13799, Note_on_c, 0, 76, 0
1, 13800, Note_on_c, 0, 74, 75
1, 13823, Note_on_c, 0, 74, 0
1, 13823, Note_on_c, 1, 62, 0
1, 13823, Note_on_c, 1, 54, 0
1, 13824, Note_on_c, 0, 83, 75
1, 13824, Note_on_c, 1, 62, 67
1, 13824, Note_on_c, 1, 55, 67
1, 13869, Note_on_c, 0, 83, 0
1, 13871, Note_on_c, 1, 62, 0
1, 13871, Note_on_c, 1, 55, 0
1, 13872, Note_on_c, 1, 62, 67
1, 13872, Note_on_c, 1, 55, 67
1, 13919, Note_on_c, 1, 62, 0
1, 13919, Note_on_c, 1, 55, 0
1, 13920, Note_on_c, 1, 62, 67
1, 13920, Note_on_c, 1, 55, 67
1, 13967, Note_on_c, 1, 62, 0
1, 13967, Note_on_c, 1, 55, 0
1, 13968, Note_on_c, 1, 62, 67
1, 13968, Note_on_c, 1, 55, 67
1, 14015, Note_on_c, 1, 62, 0
1, 14015, Note_on_c, 1, 55, 0
1, 14016, Note_on_c, 0, 86, 75
1, 14016, Note_on_c, 1, 62, 67
1, 14016, Note_on_c, 1, 55, 67
1, 14039, Note_on_c, 0, 86, 0
1, 14040, Note_on_c, 0, 85, 75
1, 14063, Note_on_c, 0, 85, 0
1, 14063, Note_on_c, 1, 62, 0
1, 14063, Note_on_c, 1, 55, 0
1, 14064, Note_on_c, 0, 83, 75
1, 14064, Note_on_c, 1, 62, 67
1, 14064, Note_on_c, 1, 55, 67
1, 14087, Note_on_c, 0, 83, 0
1, 14088, Note_on_c, 0, 81, 75
1, 14111, Note_on_c, 0, 81, 0
1, 14111, Note_on_c, 1, 62, 0
1, 14111, Note_on_c, 1, 55, 0
1, 14112, Note_on_c, 0, 79, 75
1, 14112, Note_on_c, 1, 62, 67
1, 14112, Note_on_c, 1, 55, 67
1, 14135, Note_on_c, 0, 79, 0
1, 14136, Note_on_c, 0, 78, 75
1, 14159, Note_on_c, 0, 78, 0
1, 14159, Note_on_c, 1, 62, 0
1, 14159, Note_on_c, 1, 55, 0
1, 14160, Note_on_c, 0, 76, 75
1, 14160, Note_on_c, 1, 62, 67
1, 14160, Note_on_c, 1, 55, 67
1, 14183, Note_on_c, 0, 76, 0
1, 14184, Note_on_c, 0, 74, 75
1, 14207, Note_on_c, 0, 74, 0
1, 14207, Note_on_c, 1, 62, 0
1, 14207, Note_on_c, 1, 55, 0
1, 14208, Note_on_c, 0, 81, 75
1, 14208, Note_on_c, 1, 62, 67
1, 14208, Note_on_c, 1, 54, 67
1, 14253, Note_on_c, 0, 81, 0
1, 14255, Note_on_c, 1, 62, 0
1, 14255, Note_on_c, 1, 54, 0
1, 14256, Note_on_c, 1, 62, 67
1, 14256, Note_on_c, 1, 54, 67
1, 14303, Note_on_c, 1, 62, 0
1, 14303, Note_on_c, 1, 54, 0
1, 14304, Note_on_c, 1, 62, 67
1, 14304, Note_on_c, 1, 54, 67
1, 14351, Note_on_c, 1, 62, 0
1, 14351, Note_on_c, 1, 54, 0
1, 14352, Note_on_c, 1, 62, 67
1, 14352, Note_on_c, 1, 54, 67
1, 14399, Note_on_c, 1, 62, 0
1, 14399, Note_on_c, 1, 54, 0
1, 14400, Note_on_c, 0, 86, 75
1, 14400, Note_on_c, 1, 62, 67
1, 14400, Note_on_c, 1, 54, 67
1, 14423, Note_on_c, 0, 86, 0
1, 14424, Note_on_c, 0, 85, 75
1, 14447, Note_on_c, 0, 85, 0
1, 14447, Note_on_c, 1, 62, 0
1, 14447, Note_on_c, 1, 54, 0
1, 14448, Note_on_c, 0, 83, 75
1, 14448, Note_on_c, 1, 62, 67
1, 14448, Note_on_c, 1, 54, 67
1, 14471, Note_on_c, 0, 83, 0
1, 14472, Note_on_c, 0, 81, 75
1, 14495, Note_on_c, 0, 81, 0
1, 14495, Note_on_c, 1, 62, 0
1, 14495, Note_on_c, 1, 54, 0
1, 14496, Note_on_c, 0, 79, 75
1, 14496, Note_on_c, 1, 62, 67
1, 14496, Note_on_c, 1, 54, 67
1, 14519, Note_on_c, 0, 79, 0
1, 14520, Note_on_c, 0, 78, 75
1, 14543, Note_on_c, 0, 78, 0
1, 14543, Note_on_c, 1, 62, 0
1, 14543, Note_on_c, 1, 54, 0
1, 14544, Note_on_c, 0, 76, 75
1, 14544, Note_on_c, 1, 62, 67
1, 14544, Note_on_c, 1, 54, 67
1, 14567, Note_on_c, 0, 76, 0
1, 14568, Note_on_c, 0, 74, 75
1, 14591, Note_on_c, 0, 74, 0
1, 14591, Note_on_c, 1, 62, 0
1, 14591, Note_on_c, 1, 54, 0
1, 14592, Note_on_c, 0, 83, 75
1, 14592, Note_on_c, 1, 62, 67
1, 14592, Note_on_c, 1, 55, 67
1, 14639, Note_on_c, 1, 62, 0
1, 14639, Note_on_c, 1, 55, 0
1, 14640, Note_on_c, 1, 62, 67
1, 14640, Note_on_c, 1, 55, 67
1, 14681, Note_on_c, 0, 83, 0
1, 14687, Note_on_c, 1, 62, 0
1, 14687, Note_on_c, 1, 55, 0
1, 14688, Note_on_c, 0, 81, 75
1, 14688, Note_on_c, 1, 62, 67
1, 14688, Note_on_c, 1, 55, 67
1, 14711, Note_on_c, 0, 81, 0
1, 14712, Note_on_c, 0, 79, 75
1, 14735, Note_on_c, 0, 79, 0
1, 14735, Note_on_c, 1, 62, 0
1, 14735, Note_on_c, 1, 55, 0
1, 14736, Note_on_c, 0, 78, 75
1, 14736, Note_on_c, 1, 62, 67
1, 14736, Note_on_c, 1, 55, 67
1, 14759, Note_on_c, 0, 78, 0
1, 14760, Note_on_c, 0, 76, 75
1, 14783, Note_on_c, 0, 76, 0
1, 14783, Note_on_c, 1, 62, 0
1, 14783, Note_on_c, 1, 55, 0
1, 14784, Note_on_c, 0, 74, 75
1, 14784, Note_on_c, 1, 62, 67
1, 14784, Note_on_c, 1, 57, 67
1, 14831, Note_on_c, 1, 62, 0
1, 14831, Note_on_c, 1, 57, 0
1, 14832, Note_on_c, 1, 62, 67
1, 14832, Note_on_c, 1, 57, 67
1, 14873, Note_on_c, 0, 74, 0
1, 14879, Note_on_c, 1, 62, 0
1, 14879, Note_on_c, 1, 57, 0
1, 14880, Note_on_c, 0, 78, 75
1, 14880, Note_on_c, 1, 61, 67
1, 14880, Note_on_c, 1, 57, 67
1, 14895, Note_on_c, 0, 78, 0
1, 14896, Note_on_c, 0, 76, 75
1, 14911, Note_on_c, 0, 76, 0
1, 14912, Note_on_c, 0, 78, 75
1, 14927, Note_on_c, 0, 78, 0
1, 14927, Note_on_c, 1, 61, 0
1, 14927, Note_on_c, 1, 57, 0
1, 14928, Note_on_c, 0, 76, 75
1, 14928, Note_on_c, 1, 61, 67
1, 14928, Note_on_c, 1, 57, 67
1, 14943, Note_on_c, 0, 76, 0
1, 14944, Note_on_c, 0, 74, 75
1, 14959, Note_on_c, 0, 74, 0
1, 14960, Note_on_c, 0, 76, 75
1, 14975, Note_on_c, 0, 76, 0
1, 14975, Note_on_c, 1, 61, 0
1, 14975, Note_on_c, 1, 57, 0
1, 14976, Note_on_c, 0, 74, 75
1, 14976, Note_on_c, 1, 62, 67
1, 14976, Note_on_c, 1, 50, 67
1, 15065, Note_on_c, 0, 74, 0
1, 15065, Note_on_c, 1, 62, 0
1, 15065, Note_on_c, 1, 50, 0
1, 15072, Note_on_c, 1, 66, 84
1, 15096, Note_on_c, 0, 74, 84
1, 15117, Note_on_c, 1, 66, 0
1, 15119, Note_on_c, 0, 74, 0
1, 15120, Note_on_c, 0, 78, 85
1, 15143, Note_on_c, 0, 78, 0
1, 15144, Note_on_c, 0, 74, 86
1, 15167, Note_on_c, 0, 74, 0
1, 15168, Note_on_c, 1, 67, 86
1, 15192, Note_on_c, 0, 74, 87
1, 15213, Note_on_c, 1, 67, 0
1, 15215, Note_on_c, 0, 74, 0
1, 15216, Note_on_c, 0, 78, 88
1, 15239, Note_on_c, 0, 78, 0
1, 15240, Note_on_c, 0, 74, 88
1, 15263, Note_on_c, 0, 74, 0
1, 15264, Note_on_c, 1, 69, 89
1, 15288, Note_on_c, 0, 74, 90
1, 15309, Note_on_c, 1, 69, 0
1, 15311, Note_on_c, 0, 74, 0
1, 15312, Note_on_c, 0, 78, 90
1, 15335, Note_on_c, 0, 78, 0
1, 15336, Note_on_c, 0, 74, 91
1, 15359, Note_on_c, 0, 74, 0
1, 15360, Note_on_c, 1, 71, 92
1, 15384, Note_on_c, 0, 74, 92
1, 15405, Note_on_c, 1, 71, 0
1, 15407, Note_on_c, 0, 74, 0
1, 15408, Note_on_c, 0, 78, 93
1, 15431, Note_on_c, 0, 78, 0
1, 15432, Note_on_c, 0, 74, 94
1, 15455, Note_on_c, 0, 74, 0
1, 15456, Note_on_c, 1, 54, 95
1, 15456, Note_on_c, 1, 42, 95
1, 15480, Note_on_c, 0, 62, 95
1, 15503, Note_on_c, 0, 62, 0
1, 15504, Note_on_c, 0, 66, 96
1, 15527, Note_on_c, 0, 66, 0
1, 15528, Note_on_c, 0, 62, 97
1, 15545, Note_on_c, 1, 54, 0
1, 15545, Note_on_c, 1, 42, 0
1, 15551, Note_on_c, 0, 62, 0
1, 15552, Note_on_c, 1, 55, 97
1, 15552, Note_on_c, 1, 43, 97
1, 15576, Note_on_c, 0, 62, 98
1, 15599, Note_on_c, 0, 62, 0
1, 15600, Note_on_c, 0, 64, 99
1, 15623, Note_on_c, 0, 64, 0
1, 15624, Note_on_c, 0, 62, 99
1, 15641, Note_on_c, 1, 55, 0
1, 15641, Note_on_c, 1, 43, 0
1, 15647, Note_on_c, 0, 62, 0
1, 15648, Note_on_c, 1, 57, 100
1, 15648, Note_on_c, 1, 45, 100
1, 15672, Note_on_c, 0, 61, 101
1, 15695, Note_on_c, 0, 61, 0
1, 15696, Note_on_c, 0, 64, 101
1, 15719, Note_on_c, 0, 64, 0
1, 15720, Note_on_c, 0, 61, 102
1, 15737, Note_on_c, 1, 57, 0
1, 15737, Note_on_c, 1, 45, 0
1, 15743, Note_on_c, 0, 61, 0
1, 15744, Note_on_c, 0, 62, 103
1, 15744, Note_on_c, 1, 50, 103
1, 15744, Note_on_c, 1, 38, 103
1, 15833, Note_on_c, 0, 62, 0
1, 15833, Note_on_c, 1, 50, 0
1, 15833, Note_on_c, 1, 38, 0
1, 15936, Note_on_c, 1, 57, 100
1, 15936, Note_on_c, 1, 45, 100
1, 15960, Note_on_c, 0, 61, 84
1, 15983, Note_on_c, 0, 61, 0
1, 15984, Note_on_c, 0, 69, 84
1, 16007, Note_on_c, 0, 69, 0
1, 16008, Note_on_c, 0, 61, 84
1, 16031, Note_on_c, 0, 61, 0
1, 16032, Note_on_c, 1, 57, 0
1, 16032, Note_on_c, 1, 45, 0
1, 16032, Note_on_c, 1, 81, 84
1, 16056, Note_on_c, 0, 66, 84
1, 16077, Note_on_c, 1, 81, 0
1, 16079, Note_on_c, 0, 66, 0
1, 16080, Note_on_c, 0, 69, 84
1, 16103, Note_on_c, 0, 69, 0
1, 16104, Note_on_c, 0, 66, 84
1, 16127, Note_on_c, 0, 66, 0
1, 16128, Note_on_c, 1, 79, 84
1, 16152, Note_on_c, 0, 64, 84
1, 16173, Note_on_c, 1, 79, 0
1, 16175, Note_on_c, 0, 64, 0
1, 16176, Note_on_c, 0, 69, 84
1, 16199, Note_on_c, 0, 69, 0
1, 16200, Note_on_c, 0, 64, 84
1, 16223, Note_on_c, 0, 64, 0
1, 16224, Note_on_c, 1, 78, 84
1, 16248, Note_on_c, 0, 62, 84
1, 16269, Note_on_c, 1, 78, 0
1, 16271, Note_on_c, 0, 62, 0
1, 16272, Note_on_c, 0, 69, 84
1, 16295, Note_on_c, 0, 69, 0
1, 16296, Note_on_c, 0, 62, 84
1, 16319, Note_on_c, 0, 62, 0
1, 16320, Note_on_c, 1, 76, 84
1, 16344, Note_on_c, 0, 61, 84
1, 16365, Note_on_c, 1, 76, 0
1, 16367, Note_on_c, 0, 61, 0
1, 16368, Note_on_c, 0, 69, 84
1, 16391, Note_on_c, 0, 69, 0
1, 16392, Note_on_c, 0, 61, 84
1, 16415, Note_on_c, 0, 61, 0
1, 16416, Note_on_c, 1, 54, 84
1, 16416, Note_on_c, 1, 42, 84
1, 16440, Note_on_c, 0, 62, 84
1, 16463, Note_on_c, 0, 62, 0
1, 16464, Note_on_c, 0, 69, 84
1, 16487, Note_on_c, 0, 69, 0
1, 16488, Note_on_c, 0, 62, 84
1, 16505, Note_on_c, 1, 54, 0
1, 16505, Note_on_c, 1, 42, 0
1, 16511, Note_on_c, 0, 62, 0
1, 16512, Note_on_c, 1, 52, 84
1, 16512, Note_on_c, 1, 40, 84
1, 16536, Note_on_c, 0, 61, 84
1, 16559, Note_on_c, 0, 61, 0
1, 16560, Note_on_c, 0, 67, 84
1, 16583, Note_on_c, 0, 67, 0
1, 16584, Note_on_c, 0, 61, 84
1, 16601, Note_on_c, 1, 52, 0
1, 16601, Note_on_c, 1, 40, 0
1, 16607, Note_on_c, 0, 61, 0
1, 16608, Note_on_c, 1, 50, 84
1, 16608, Note_on_c, 1, 38, 84
1, 16632, Note_on_c, 0, 62, 84
1, 16655, Note_on_c, 0, 62, 0
1, 16656, Note_on_c, 0, 66, 84
1, 16679, Note_on_c, 0, 66, 0
1, 16680, Note_on_c, 0, 62, 84
1, 16697, Note_on_c, 1, 50, 0
1, 16697, Note_on_c, 1, 38, 0
1, 16703, Note_on_c, 0, 62, 0
1, 16704, Note_on_c, 1, 45, 100
1, 16704, Note_on_c, 1, 33, 100
1, 16728, Note_on_c, 0, 61, 84
1, 16751, Note_on_c, 0, 61, 0
1, 16752, Note_on_c, 0, 69, 84
1, 16775, Note_on_c, 0, 69, 0
1, 16776, Note_on_c, 0, 61, 84
1, 16799, Note_on_c, 0, 61, 0
1, 16800, Note_on_c, 1, 45, 0
1, 16800, Note_on_c, 1, 33, 0
1, 16800, Note_on_c, 1, 81, 84
1, 16824, Note_on_c, 0, 66, 84
1, 16845, Note_on_c, 1, 81, 0
1, 16847, Note_on_c, 0, 66, 0
1, 16848, Note_on_c, 0, 69, 84
1, 16871, Note_on_c, 0, 69, 0
1, 16872, Note_on_c, 0, 66, 84
1, 16895, Note_on_c, 0, 66, 0
1, 16896, Note_on_c, 1, 79, 84
1, 16920, Note_on_c, 0, 64, 84
1, 16941, Note_on_c, 1, 79, 0
1, 16943, Note_on_c, 0, 64, 0
1, 16944, Note_on_c, 0, 69, 84
1, 16967, Note_on_c, 0, 69, 0
1, 16968, Note_on_c, 0, 64, 84
1, 16991, Note_on_c, 0, 64, 0
1, 16992, Note_on_c, 1, 78, 84
1, 17016, Note_on_c, 0, 62, 84
1, 17037, Note_on_c, 1, 78, 0
1, 17039, Note_on_c, 0, 62, 0
1, 17040, Note_on_c, 0, 69, 84
1, 17063, Note_on_c, 0, 69, 0
1, 17064, Note_on_c, 0, 62, 84
1, 17087, Note_on_c, 0, 62, 0
1, 17088, Note_on_c, 1, 76, 84
1, 17112, Note_on_c, 0, 61, 84
1, 17133, Note_on_c, 1, 76, 0
1, 17135, Note_on_c, 0, 61, 0
1, 17136, Note_on_c, 0, 69, 84
1, 17159, Note_on_c, 0, 69, 0
1, 17160, Note_on_c, 0, 61, 84
1, 17183, Note_on_c, 0, 61, 0
1, 17184, Note_on_c, 1, 54, 84
1, 17184, Note_on_c, 1, 42, 84
1, 17208, Note_on_c, 0, 62, 84
1, 17231, Note_on_c, 0, 62, 0
1, 17232, Note_on_c, 0, 69, 84
1, 17255, Note_on_c, 0, 69, 0
1, 17256, Note_on_c, 0, 62, 84
1, 17273, Note_on_c, 1, 54, 0
1, 17273, Note_on_c, 1, 42, 0
1, 17279, Note_on_c, 0, 62, 0
1, 17280, Note_on_c, 1, 52, 84
1, 17280, Note_on_c, 1, 40, 84
1, 17304, Note_on_c, 0, 61, 84
1, 17327, Note_on_c, 0, 61, 0
1, 17328, Note_on_c, 0, 67, 84
1, 17351, Note_on_c, 0, 67, 0
1, 17352, Note_on_c, 0, 61, 84
1, 17369, Note_on_c, 1, 52, 0
1, 17369, Note_on_c, 1, 40, 0
1, 17375, Note_on_c, 0, 61, 0
1, 17376, Note_on_c, 1, 50, 84
1, 17376, Note_on_c, 1, 38, 84
1, 17400, Note_on_c, 0, 62, 84
1, 17423, Note_on_c, 0, 62, 0
1, 17424, Note_on_c, 0, 66, 84
1, 17447, Note_on_c, 0, 66, 0
1, 17448, Note_on_c, 0, 62, 84
1, 17465, Note_on_c, 1, 50, 0
1, 17465, Note_on_c, 1, 38, 0
1, 17471, Note_on_c, 0, 62, 0
1, 17472, Note_on_c, 1, 45, 100
1, 17472, Note_on_c, 1, 33, 100
1, 17496, Note_on_c, 0, 61, 84
1, 17519, Note_on_c, 0, 61, 0
1, 17520, Note_on_c, 0, 69, 84
1, 17543, Note_on_c, 0, 69, 0
1, 17544, Note_on_c, 0, 61, 84
1, 17567, Note_on_c, 0, 61, 0
1, 17568, Note_on_c, 1, 45, 0
1, 17568, Note_on_c, 1, 33, 0
1, 17568, Note_on_c, 1, 48, 100
1, 17568, Note_on_c, 1, 36, 100
1, 17592, Note_on_c, 0, 64, 84
1, 17615, Note_on_c, 0, 64, 0
1, 17616, Note_on_c, 0, 69, 84
1, 17639, Note_on_c, 0, 69, 0
1, 17640, Note_on_c, 0, 64, 84
1, 17663, Note_on_c, 0, 64, 0
1, 17664, Note_on_c, 1, 48, 0
1, 17664, Note_on_c, 1, 36, 0
1, 17664, Note_on_c, 1, 47, 100
1, 17664, Note_on_c, 1, 35, 100
1, 17688, Note_on_c, 0, 63, 84
1, 17711, Note_on_c, 0, 63, 0
1, 17712, Note_on_c, 0, 69, 84
1, 17735, Note_on_c, 0, 69, 0
1, 17736, Note_on_c, 0, 63, 84
1, 17759, Note_on_c, 0, 63, 0
1, 17760, Note_on_c, 1, 47, 0
1, 17760, Note_on_c, 1, 35, 0
1, 17760, Note_on_c, 1, 51, 100
1, 17784, Note_on_c, 0, 59, 84
1, 17807, Note_on_c, 0, 59, 0
1, 17808, Note_on_c, 0, 69, 84
1, 17831, Note_on_c, 0, 69, 0
1, 17832, Note_on_c, 0, 59, 84
1, 17855, Note_on_c, 0, 59, 0
1, 17856, Note_on_c, 1, 51, 0
1, 17856, Note_on_c, 1, 52, 100
1, 17880, Note_on_c, 0, 59, 84
1, 17903, Note_on_c, 0, 59, 0
1, 17904, Note_on_c, 0, 67, 84
1, 17927, Note_on_c, 0, 67, 0
1, 17928, Note_on_c, 0, 59, 84
1, 17951, Note_on_c, 0, 59, 0
1, 17952, Note_on_c, 1, 52, 0
1, 17952, Note_on_c, 1, 46, 100
1, 17952, Note_on_c, 1, 34, 100
1, 17976, Note_on_c, 0, 62, 84
1, 17999, Note_on_c, 0, 62, 0
1, 18000, Note_on_c, 0, 67, 84
1, 18023, Note_on_c, 0, 67, 0
1, 18024, Note_on_c, 0, 62, 84
1, 18047, Note_on_c, 0, 62, 0
1, 18048, Note_on_c, 1, 46, 0
1, 18048, Note_on_c, 1, 34, 0
1, 18048, Note_on_c, 1, 45, 100
1, 18048, Note_on_c, 1, 33, 100
1, 18072, Note_on_c, 0, 61, 84
1, 18095, Note_on_c, 0, 61, 0
1, 18096, Note_on_c, 0, 67, 84
1, 18119, Note_on_c, 0, 67, 0
1, 18120, Note_on_c, 0, 61, 84
1, 18143, Note_on_c, 0, 61, 0
1, 18144, Note_on_c, 1, 45, 0
1, 18144, Note_on_c, 1, 33, 0
1, 18144, Note_on_c, 1, 49, 100
1, 18168, Note_on_c, 0, 57, 84
1, 18191, Note_on_c, 0, 57, 0
1, 18192, Note_on_c, 0, 67, 84
1, 18215, Note_on_c, 0, 67, 0
1, 18216, Note_on_c, 0, 57, 84
1, 18239, Note_on_c, 0, 57, 0
1, 18240, Note_on_c, 1, 49, 0
1, 18240, Note_on_c, 1, 50, 100
1, 18264, Note_on_c, 0, 57, 85
1, 18287, Note_on_c, 0, 57, 0
1, 18288, Note_on_c, 0, 66, 86
1, 18311, Note_on_c, 0, 66, 0
1, 18312, Note_on_c, 0, 57, 88
1, 18335, Note_on_c, 0, 57, 0
1, 18336, Note_on_c, 1, 50, 0
1, 18336, Note_on_c, 1, 54, 89
1, 18336, Note_on_c, 1, 42, 89
1, 18360, Note_on_c, 0, 62, 90
1, 18383, Note_on_c, 0, 62, 0
1, 18384, Note_on_c, 0, 66, 92
1, 18407, Note_on_c, 0, 66, 0
1, 18408, Note_on_c, 0, 62, 93
1, 18425, Note_on_c, 1, 54, 0
1, 18425, Note_on_c, 1, 42, 0
1, 18431, Note_on_c, 0, 62, 0
1, 18432, Note_on_c, 1, 55, 95
1, 18432, Note_on_c, 1, 43, 95
1, 18456, Note_on_c, 0, 62, 96
1, 18479, Note_on_c, 0, 62, 0
1, 18480, Note_on_c, 0, 66, 97
1, 18503, Note_on_c, 0, 66, 0
1, 18504, Note_on_c, 0, 62, 99
1, 18521, Note_on_c, 1, 55, 0
1, 18521, Note_on_c, 1, 43, 0
1, 18527, Note_on_c, 0, 62, 0
1, 18528, Note_on_c, 1, 57, 100
1, 18528, Note_on_c, 1, 45, 100
1, 18552, Note_on_c, 0, 62, 101
1, 18575, Note_on_c, 0, 62, 0
1, 18576, Note_on_c, 0, 66, 103
1, 18599, Note_on_c, 0, 66, 0
1, 18600, Note_on_c, 0, 62, 104
1, 18617, Note_on_c, 1, 57, 0
1, 18617, Note_on_c, 1, 45, 0
1, 18623, Note_on_c, 0, 62, 0
1, 18624, Note_on_c, 1, 59, 106
1, 18624, Note_on_c, 1, 47, 106
1, 18648, Note_on_c, 0, 62, 106
1, 18671, Note_on_c, 0, 62, 0
1, 18672, Note_on_c, 0, 66, 106
1, 18695, Note_on_c, 0, 66, 0
1, 18696, Note_on_c, 0, 62, 106
1, 18713, Note_on_c, 1, 59, 0
1, 18713, Note_on_c, 1, 47, 0
1, 18719, Note_on_c, 0, 62, 0
1, 18720, Note_on_c, 1, 54, 106
1, 18720, Note_on_c, 1, 42, 106
1, 18744, Note_on_c, 0, 62, 106
1, 18767, Note_on_c, 0, 62, 0
1, 18768, Note_on_c, 0, 69, 106
1, 18791, Note_on_c, 0, 69, 0
1, 18792, Note_on_c, 0, 62, 106
1, 18809, Note_on_c, 1, 54, 0
1, 18809, Note_on_c, 1, 42, 0
1, 18815, Note_on_c, 0, 62, 0
1, 18816, Note_on_c, 0, 71, 106
1, 18816, Note_on_c, 1, 55, 106
1, 18816, Note_on_c, 1, 43, 106
1, 18839, Note_on_c, 0, 71, 0
1, 18840, Note_on_c, 0, 69, 106
1, 18863, Note_on_c, 0, 69, 0
1, 18864, Note_on_c, 0, 67, 106
1, 18887, Note_on_c, 0, 67, 0
1, 18888, Note_on_c, 0, 66, 106
1, 18905, Note_on_c, 1, 55, 0
1, 18905, Note_on_c, 1, 43, 0
1, 18911, Note_on_c, 0, 66, 0
1, 18912, Note_on_c, 0, 64, 106
1, 18935, Note_on_c, 0, 64, 0
1, 18936, Note_on_c, 0, 62, 106
1, 18959, Note_on_c, 0, 62, 0
1, 18960, Note_on_c, 0, 61, 106
1, 18983, Note_on_c, 0, 61, 0
1, 18984, Note_on_c, 0, 59, 106
1, 19007, Note_on_c, 0, 59, 0
1, 19008, Note_on_c, 0, 57, 106
1, 19008, Note_on_c, 1, 45, 106
1, 19008, Note_on_c, 1, 33, 106
1, 19097, Note_on_c, 0, 57, 0
1, 19097, Note_on_c, 1, 45, 0
1, 19097, Note_on_c, 1, 33, 0
1, 19200, Note_on_c, 0, 64, 84
1, 19200, Note_on_c, 1, 50, 84
1, 19206, Note_on_c, 0, 64, 0
1, 19206, Note_on_c, 0, 62, 84
1, 19212, Note_on_c, 0, 62, 0
1, 19212, Note_on_c, 0, 61, 84
1, 19218, Note_on_c, 0, 61, 0
1, 19218, Note_on_c, 0, 62, 84
1, 19245, Note_on_c, 0, 62, 0
1, 19289, Note_on_c, 1, 50, 0
1, 19296, Note_on_c, 0, 67, 91
1, 19296, Note_on_c, 1, 54, 89
1, 19302, Note_on_c, 0, 67, 0
1, 19302, Note_on_c, 0, 66, 91
1, 19308, Note_on_c, 0, 66, 0
1, 19308, Note_on_c, 0, 64, 91
1, 19314, Note_on_c, 0, 64, 0
1, 19314, Note_on_c, 0, 66, 91
1, 19341, Note_on_c, 0, 66, 0
1, 19385, Note_on_c, 1, 54, 0
1, 19392, Note_on_c, 0, 71, 98
1, 19392, Note_on_c, 1, 57, 95
1, 19398, Note_on_c, 0, 71, 0
1, 19398, Note_on_c, 0, 69, 98
1, 19404, Note_on_c, 0, 69, 0
1, 19404, Note_on_c, 0, 67, 98
1, 19410, Note_on_c, 0, 67, 0
1, 19410, Note_on_c, 0, 69, 98
1, 19437, Note_on_c, 0, 69, 0
1, 19481, Note_on_c, 1, 57, 0
1, 19488, Note_on_c, 0, 76, 106
1, 19488, Note_on_c, 1, 62, 100
1, 19494, Note_on_c, 0, 76, 0
1, 19494, Note_on_c, 0, 74, 106
1, 19500, Note_on_c, 0, 74, 0
1, 19500, Note_on_c, 0, 73, 106
1, 19506, Note_on_c, 0, 73, 0
1, 19506, Note_on_c, 0, 74, 106
1, 19533, Note_on_c, 0, 74, 0
1, 19577, Note_on_c, 1, 62, 0
1, 19584, Note_on_c, 0, 69, 75
1, 19607, Note_on_c, 0, 69, 0
1, 19608, Note_on_c, 0, 71, 76
1, 19631, Note_on_c, 0, 71, 0
1, 19632, Note_on_c, 0, 73, 78
1, 19655, Note_on_c, 0, 73, 0
1, 19656, Note_on_c, 0, 74, 80
1, 19679, Note_on_c, 0, 74, 0
1, 19680, Note_on_c, 0, 76, 82
1, 19703, Note_on_c, 0, 76, 0
1, 19704, Note_on_c, 0, 78, 84
1, 19727, Note_on_c, 0, 78, 0
1, 19728, Note_on_c, 0, 79, 83
1, 19751, Note_on_c, 0, 79, 0
1, 19752, Note_on_c, 0, 81, 82
1, 19775, Note_on_c, 0, 81, 0
1, 19776, Note_on_c, 0, 79, 97
1, 19776, Note_on_c, 0, 76, 97
1, 19776, Note_on_c, 1, 62, 75
1, 19821, Note_on_c, 1, 62, 0
1, 19824, Note_on_c, 1, 57, 75
1, 19869, Note_on_c, 1, 57, 0
1, 19872, Note_on_c, 0, 79, 0
1, 19872, Note_on_c, 0, 76, 0
1, 19872, Note_on_c, 0, 78, 77
1, 19872, Note_on_c, 0, 74, 77
1, 19872, Note_on_c, 1, 50, 75
1, 19917, Note_on_c, 0, 78, 0
1, 19917, Note_on_c, 0, 74, 0
1, 19961, Note_on_c, 1, 50, 0
1, 19968, Note_on_c, 0, 64, 84
1, 19968, Note_on_c, 1, 50, 84
1, 19974, Note_on_c, 0, 64, 0
1, 19974, Note_on_c, 0, 62, 84
1, 19980, Note_on_c, 0, 62, 0
1, 19980, Note_on_c, 0, 61, 84
1, 19986, Note_on_c, 0, 61, 0
1, 19986, Note_on_c, 0, 62, 84
1, 20013, Note_on_c, 0, 62, 0
1, 20057, Note_on_c, 1, 50, 0
1, 20064, Note_on_c, 0, 67, 90
1, 20064, Note_on_c, 1, 54, 89
1, 20070, Note_on_c, 0, 67, 0
1, 20070, Note_on_c, 0, 66, 90
1, 20076, Note_on_c, 0, 66, 0
1, 20076, Note_on_c, 0, 64, 90
1, 20082, Note_on_c, 0, 64, 0
1, 20082, Note_on_c, 0, 66, 90
1, 20109, Note_on_c, 0, 66, 0
1, 20153, Note_on_c, 1, 54, 0
1, 20160, Note_on_c, 0, 71, 96
1, 20160, Note_on_c, 1, 57, 95
1, 20166, Note_on_c, 0, 71, 0
1, 20166, Note_on_c, 0, 69, 96
1, 20172, Note_on_c, 0, 69, 0
1, 20172, Note_on_c, 0, 67, 96
1, 20178, Note_on_c, 0, 67, 0
1, 20178, Note_on_c, 0, 69, 96
1, 20205, Note_on_c, 0, 69, 0
1, 20249, Note_on_c, 1, 57, 0
1, 20256, Note_on_c, 0, 76, 102
1, 20256, Note_on_c, 1, 62, 100
1, 20262, Note_on_c, 0, 76, 0
1, 20262, Note_on_c, 0, 74, 102
1, 20268, Note_on_c, 0, 74, 0
1, 20268, Note_on_c, 0, 73, 102
1, 20274, Note_on_c, 0, 73, 0
1, 20274, Note_on_c, 0, 74, 102
1, 20301, Note_on_c, 0, 74, 0
1, 20345, Note_on_c, 1, 62, 0
1, 20352, Note_on_c, 0, 83, 75
1, 20352, Note_on_c, 1, 55, 75
1, 20375, Note_on_c, 0, 83, 0
1, 20376, Note_on_c, 0, 86, 75
1, 20397, Note_on_c, 1, 55, 0
1, 20399, Note_on_c, 0, 86, 0
1, 20400, Note_on_c, 0, 85, 75
1, 20400, Note_on_c, 1, 62, 75
1, 20423, Note_on_c, 0, 85, 0
1, 20424, Note_on_c, 0, 83, 75
1, 20445, Note_on_c, 1, 62, 0
1, 20447, Note_on_c, 0, 83, 0
1, 20448, Note_on_c, 0, 81, 75
1, 20448, Note_on_c, 1, 54, 75
1, 20493, Note_on_c, 0, 81, 0
1, 20493, Note_on_c, 1, 54, 0
1, 20496, Note_on_c, 1, 62, 75
1, 20541, Note_on_c, 1, 62, 0
1, 20544, Note_on_c, 0, 79, 75
1, 20544, Note_on_c, 1, 52, 75
1, 20567, Note_on_c, 0, 79, 0
1, 20568, Note_on_c, 0, 83, 75
1, 20589, Note_on_c, 1, 52, 0
1, 20591, Note_on_c, 0, 83, 0
1, 20592, Note_on_c, 0, 81, 75
1, 20592, Note_on_c, 1, 61, 75
1, 20615, Note_on_c, 0, 81, 0
1, 20616, Note_on_c, 0, 79, 75
1, 20637, Note_on_c, 1, 61, 0
1, 20639, Note_on_c, 0, 79, 0
1, 20640, Note_on_c, 0, 78, 75
1, 20640, Note_on_c, 1, 62, 75
1, 20685, Note_on_c, 0, 78, 0
1, 20685, Note_on_c, 1, 62, 0
1, 20688, Note_on_c, 1, 50, 75
1, 20733, Note_on_c, 1, 50, 0
1, 20736, Note_on_c, 0, 71, 75
1, 20736, Note_on_c, 1, 55, 75
1, 20759, Note_on_c, 0, 71, 0
1, 20760, Note_on_c, 0, 74, 75
1, 20781, Note_on_c, 1, 55, 0
1, 20783, Note_on_c, 0, 74, 0
1, 20784, Note_on_c, 0, 73, 75
1, 20784, Note_on_c, 1, 62, 75
1, 20807, Note_on_c, 0, 73, 0
1, 20808, Note_on_c, 0, 71, 75
1, 20829, Note_on_c, 1, 62, 0
1, 20831, Note_on_c, 0, 71, 0
1, 20832, Note_on_c, 0, 69, 75
1, 20832, Note_on_c, 1, 54, 75
1, 20877, Note_on_c, 0, 69, 0
1, 20877, Note_on_c, 1, 54, 0
1, 20880, Note_on_c, 1, 62, 75
1, 20925, Note_on_c, 1, 62, 0
1, 20928, Note_on_c, 0, 67, 75
1, 20928, Note_on_c, 1, 52, 75
1, 20951, Note_on_c, 0, 67, 0
1, 20952, Note_on_c, 0, 71, 75
1, 20973, Note_on_c, 1, 52, 0
1, 20975, Note_on_c, 0, 71, 0
1, 20976, Note_on_c, 0, 69, 75
1, 20976, Note_on_c, 1, 61, 75
1, 20999, Note_on_c, 0, 69, 0
1, 21000, Note_on_c, 0, 79, 75
1, 21021, Note_on_c, 1, 61, 0
1, 21023, Note_on_c, 0, 79, 0
1, 21024, Note_on_c, 0, 78, 75
1, 21024, Note_on_c, 1, 62, 75
1, 21069, Note_on_c, 0, 78, 0
1, 21069, Note_on_c, 1, 62, 0
1, 21072, Note_on_c, 1, 50, 75
1, 21117, Note_on_c, 1, 50, 0
1, 21120, Note_on_c, 0, 86, 75
1, 21120, Note_on_c, 1, 62, 67
1, 21120, Note_on_c, 1, 54, 67
1, 21143, Note_on_c, 0, 86, 0
1, 21144, Note_on_c, 0, 85, 75
1, 21167, Note_on_c, 0, 85, 0
1, 21167, Note_on_c, 1, 62, 0
1, 21167, Note_on_c, 1, 54, 0
1, 21168, Note_on_c, 0, 83, 75
1, 21168, Note_on_c, 1, 62, 67
1, 21168, Note_on_c, 1, 54, 67
1, 21191, Note_on_c, 0, 83, 0
1, 21192, Note_on_c, 0, 81, 75
1, 21215, Note_on_c, 0, 81, 0
1, 21215, Note_on_c, 1, 62, 0
1, 21215, Note_on_c, 1, 54, 0
1, 21216, Note_on_c, 0, 79, 75
1, 21216, Note_on_c, 1, 62, 67
1, 21216, Note_on_c, 1, 54, 67
1, 21239, Note_on_c, 0, 79, 0
1, 21240, Note_on_c, 0, 78, 75
1, 21263, Note_on_c, 0, 78, 0
1, 21263, Note_on_c, 1, 62, 0
1, 21263, Note_on_c, 1, 54, 0
1, 21264, Note_on_c, 0, 76, 75
1, 21264, Note_on_c, 1, 62, 67
1, 21264, Note_on_c, 1, 54, 67
1, 21287, Note_on_c, 0, 76, 0
1, 21288, Note_on_c, 0, 74, 75
1, 21311, Note_on_c, 0, 74, 0
1, 21311, Note_on_c, 1, 62, 0
1, 21311, Note_on_c, 1, 54, 0
1, 21312, Note_on_c, 0, 83, 75
1, 21312, Note_on_c, 1, 62, 67
1, 21312, Note_on_c, 1, 55, 67
1, 21357, Note_on_c, 0, 83, 0
1, 21359, Note_on_c, 1, 62, 0
1, 21359, Note_on_c, 1, 55, 0
1, 21360, Note_on_c, 1, 62, 67
1, 21360, Note_on_c, 1, 55, 67
1, 21407, Note_on_c, 1, 62, 0
1, 21407, Note_on_c, 1, 55, 0
1, 21408, Note_on_c, 1, 62, 67
1, 21408, Note_on_c, 1, 55, 67
1, 21455, Note_on_c, 1, 62, 0
1, 21455, Note_on_c, 1, 55, 0
1, 21456, Note_on_c, 1, 62, 67
1, 21456, Note_on_c, 1, 55, 67
1, 21503, Note_on_c, 1, 62, 0
1, 21503, Note_on_c, 1, 55, 0
1, 21504, Note_on_c, 0, 86, 75
1, 21504, Note_on_c, 1, 62, 67
1, 21504, Note_on_c, 1, 55, 67
1, 21527, Note_on_c, 0, 86, 0
1, 21528, Note_on_c, 0, 85, 75
1, 21551, Note_on_c, 0, 85, 0
1, 21551, Note_on_c, 1, 62, 0
1, 21551, Note_on_c, 1, 55, 0
1, 21552, Note_on_c, 0, 83, 75
1, 21552, Note_on_c, 1, 62, 67
1, 21552, Note_on_c, 1, 55, 67
1, 21575, Note_on_c, 0, 83, 0
1, 21576, Note_on_c, 0, 81, 75
1, 21599, Note_on_c, 0, 81, 0
1, 21599, Note_on_c, 1, 62, 0
1, 21599, Note_on_c, 1, 55, 0
1, 21600, Note_on_c, 0, 79, 75
1, 21600, Note_on_c, 1, 62, 67
1, 21600, Note_on_c, 1, 55, 67
1, 21623, Note_on_c, 0, 79, 0
1, 21624, Note_on_c, 0, 78, 75
1, 21647, Note_on_c, 0, 78, 0
1, 21647, Note_on_c, 1, 62, 0
1, 21647, Note_on_c, 1, 55, 0
1, 21648, Note_on_c, 0, 76, 75
1, 21648, Note_on_c, 1, 62, 67
1, 21648, Note_on_c, 1, 55, 67
1, 21671, Note_on_c, 0, 76, 0
1, 21672, Note_on_c, 0, 74, 75
1, 21695, Note_on_c, 0, 74, 0
1, 21695, Note_on_c, 1, 62, 0
1, 21695, Note_on_c, 1, 55, 0
1, 21696, Note_on_c, 0, 81, 75
1, 21696, Note_on_c, 1, 62, 67
1, 21696, Note_on_c, 1, 54, 67
1, 21741, Note_on_c, 0, 81, 0
1, 21743, Note_on_c, 1, 62, 0
1, 21743, Note_on_c, 1, 54, 0
1, 21744, Note_on_c, 1, 62, 67
1, 21744, Note_on_c, 1, 54, 67
1, 21791, Note_on_c, 1, 62, 0
1, 21791, Note_on_c, 1, 54, 0
1, 21792, Note_on_c, 1, 62, 67
1, 21792, Note_on_c, 1, 54, 67
1, 21839, Note_on_c, 1, 62, 0
1, 21839, Note_on_c, 1, 54, 0
1, 21840, Note_on_c, 1, 62, 67
1, 21840, Note_on_c, 1, 54, 67
1, 21887, Note_on_c, 1, 62, 0
1, 21887, Note_on_c, 1, 54, 0
1, 21888, Note_on_c, 0, 86, 75
1, 21888, Note_on_c, 1, 62, 67
1, 21888, Note_on_c, 1, 54, 67
1, 21911, Note_on_c, 0, 86, 0
1, 21912, Note_on_c, 0, 85, 75
1, 21935, Note_on_c, 0, 85, 0
1, 21935, Note_on_c, 1, 62, 0
1, 21935, Note_on_c, 1, 54, 0
1, 21936, Note_on_c, 0, 83, 75
1, 21936, Note_on_c, 1, 62, 67
1, 21936, Note_on_c, 1, 54, 67
1, 21959, Note_on_c, 0, 83, 0
1, 21960, Note_on_c, 0, 81, 75
1, 21983, Note_on_c, 0, 81, 0
1, 21983, Note_on_c, 1, 62, 0
1, 21983, Note_on_c, 1, 54, 0
1, 21984, Note_on_c, 0, 79, 75
1, 21984, Note_on_c, 1, 62, 67
1, 21984, Note_on_c, 1, 54, 67
1, 22007, Note_on_c, 0, 79, 0
1, 22008, Note_on_c, 0, 78, 75
1, 22031, Note_on_c, 0, 78, 0
1, 22031, Note_on_c, 1, 62, 0
1, 22031, Note_on_c, 1, 54, 0
1, 22032, Note_on_c, 0, 76, 75
1, 22032, Note_on_c, 1, 62, 67
1, 22032, Note_on_c, 1, 54, 67
1, 22055, Note_on_c, 0, 76, 0
1, 22056, Note_on_c, 0, 74, 75
1, 22079, Note_on_c, 0, 74, 0
1, 22079, Note_on_c, 1, 62, 0
1, 22079, Note_on_c, 1, 54, 0
1, 22080, Note_on_c, 0, 83, 75
1, 22080, Note_on_c, 1, 62, 67
1, 22080, Note_on_c, 1, 55, 67
1, 22127, Note_on_c, 1, 62, 0
1, 22127, Note_on_c, 1, 55, 0
1, 22128, Note_on_c, 1, 62, 67
1, 22128, Note_on_c, 1, 55, 67
1, 22169, Note_on_c, 0, 83, 0
1, 22175, Note_on_c, 1, 62, 0
1, 22175, Note_on_c, 1, 55, 0
1, 22176, Note_on_c, 0, 81, 75
1, 22176, Note_on_c, 1, 62, 67
1, 22176, Note_on_c, 1, 55, 67
1, 22199, Note_on_c, 0, 81, 0
1, 22200, Note_on_c, 0, 79, 75
1, 22223, Note_on_c, 0, 79, 0
1, 22223, Note_on_c, 1, 62, 0
1, 22223, Note_on_c, 1, 55, 0
1, 22224, Note_on_c, 0, 78, 75
1, 22224, Note_on_c, 1, 62, 67
1, 22224, Note_on_c, 1, 55, 67
1, 22247, Note_on_c, 0, 78, 0
1, 22248, Note_on_c, 0, 76, 75
1, 22271, Note_on_c, 0, 76, 0
1, 22271, Note_on_c, 1, 62, 0
1, 22271, Note_on_c, 1, 55, 0
1, 22272, Note_on_c, 0, 74, 75
1, 22272, Note_on_c, 1, 62, 67
1, 22272, Note_on_c, 1, 57, 67
1, 22319, Note_on_c, 1, 62, 0
1, 22319, Note_on_c, 1, 57, 0
1, 22320, Note_on_c, 1, 62, 67
1, 22320, Note_on_c, 1, 57, 67
1, 22361, Note_on_c, 0, 74, 0
1, 22367, Note_on_c, 1, 62, 0
1, 22367, Note_on_c, 1, 57, 0
1, 22368, Note_on_c, 0, 78, 75
1, 22368, Note_on_c, 1, 61, 67
1, 22368, Note_on_c, 1, 57, 67
1, 22383, Note_on_c, 0, 78, 0
1, 22384, Note_on_c, 0, 76, 75
1, 22399, Note_on_c, 0, 76, 0
1, 22400, Note_on_c, 0, 78, 75
1, 22415, Note_on_c, 0, 78, 0
1, 22415, Note_on_c, 1, 61, 0
1, 22415, Note_on_c, 1, 57, 0
1, 22416, Note_on_c, 0, 76, 75
1, 22416, Note_on_c, 1, 61, 67
1, 22416, Note_on_c, 1, 57, 67
1, 22431, Note_on_c, 0, 76, 0
1, 22432, Note_on_c, 0, 74, 75
1, 22447, Note_on_c, 0, 74, 0
1, 22448, Note_on_c, 0, 76, 75
1, 22463, Note_on_c, 0, 76, 0
1, 22463, Note_on_c, 1, 61, 0
1, 22463, Note_on_c, 1, 57, 0
1, 22464, Note_on_c, 0, 74, 75
1, 22464, Note_on_c, 1, 62, 67
1, 22464, Note_on_c, 1, 50, 67
1, 22553, Note_on_c, 0, 74, 0
1, 22553, Note_on_c, 1, 62, 0
1, 22553, Note_on_c, 1, 50, 0
1, 22560, Note_on_c, 1, 66, 84
1, 22584, Note_on_c, 0, 74, 84
1, 22605, Note_on_c, 1, 66, 0
1, 22607, Note_on_c, 0, 74, 0
1, 22608, Note_on_c, 0, 78, 85
1, 22631, Note_on_c, 0, 78, 0
1, 22632, Note_on_c, 0, 74, 86
1, 22655, Note_on_c, 0, 74, 0
1, 22656, Note_on_c, 1, 67, 86
1, 22680, Note_on_c, 0, 74, 87
1, 22701, Note_on_c, 1, 67, 0
1, 22703, Note_on_c, 0, 74, 0
1, 22704, Note_on_c, 0, 78, 88
1, 22727, Note_on_c, 0, 78, 0
1, 22728, Note_on_c, 0, 74, 88
1, 22751, Note_on_c, 0, 74, 0
1, 22752, Note_on_c, 1, 69, 89
1, 22776, Note_on_c, 0, 74, 90
1, 22797, Note_on_c, 1, 69, 0
1, 22799, Note_on_c, 0, 74, 0
1, 22800, Note_on_c, 0, 78, 90
1, 22823, Note_on_c, 0, 78, 0
1, 22824, Note_on_c, 0, 74, 91
1, 22847, Note_on_c, 0, 74, 0
1, 22848, Note_on_c, 1, 71, 92
1, 22872, Note_on_c, 0, 74, 92
1, 22893, Note_on_c, 1, 71, 0
1, 22895, Note_on_c, 0, 74, 0
1, 22896, Note_on_c, 0, 78, 93
1, 22919, Note_on_c, 0, 78, 0
1, 22920, Note_on_c, 0, 74, 94
1, 22943, Note_on_c, 0, 74, 0
1, 22944, Note_on_c, 1, 54, 95
1, 22944, Note_on_c, 1, 42, 95
1, 22968, Note_on_c, 0, 62, 95
1, 22991, Note_on_c, 0, 62, 0
1, 22992, Note_on_c, 0, 66, 96
1, 23015, Note_on_c, 0, 66, 0
1, 23016, Note_on_c, 0, 62, 97
1, 23033, Note_on_c, 1, 54, 0
1, 23033, Note_on_c, 1, 42, 0
1, 23039, Note_on_c, 0, 62, 0
1, 23040, Note_on_c, 1, 55, 97
1, 23040, Note_on_c, 1, 43, 97
1, 23064, Note_on_c, 0, 62, 98
1, 23087, Note_on_c, 0, 62, 0
1, 23088, Note_on_c, 0, 64, 99
1, 23111, Note_on_c, 0, 64, 0
1, 23112, Note_on_c, 0, 62, 99
1, 23129, Note_on_c, 1, 55, 0
1, 23129, Note_on_c, 1, 43, 0
1, 23135, Note_on_c, 0, 62, 0
1, 23136, Note_on_c, 1, 57, 100
1, 23136, Note_on_c, 1, 45, 100
1, 23160, Note_on_c, 0, 61, 101
1, 23183, Note_on_c, 0, 61, 0
1, 23184, Note_on_c, 0, 64, 101
1, 23207, Note_on_c, 0, 64, 0
1, 23208, Note_on_c, 0, 61, 102
1, 23225, Note_on_c, 1, 57, 0
1, 23225, Note_on_c, 1, 45, 0
1, 23231, Note_on_c, 0, 61, 0
1, 23232, Note_on_c, 0, 62, 103
1, 23232, Note_on_c, 1, 50, 103
1, 23232, Note_on_c, 1, 38, 103
1, 23321, Note_on_c, 0, 62, 0
1, 23321, Note_on_c, 1, 50, 0
1, 23321, Note_on_c, 1, 38, 0
1, 23424, Note_on_c, 1, 38, 4
1, 23513, Note_on_c, 1, 38, 0
1, 23523, End_track
0, 0, End_of_file