0, 0, Header, 0, 1, 96
1, 0, Start_track
1, 0, Tempo, 800000
1, 0, Note_on_c, 0, 63, 64
1, 0, Note_on_c, 1, 51, 64
1, 0, Note_on_c, 1, 39, 64
1, 89, Note_on_c, 0, 63, 0
1, 96, Note_on_c, 0, 55, 64
1, 119, Note_on_c, 0, 55, 0
1, 120, Note_on_c, 0, 57, 64
1, 128, Note_on_c, 0, 57, 0
1, 128, Note_on_c, 0, 55, 64
1, 136, Note_on_c, 0, 55, 0
1, 136, Note_on_c, 0, 53, 64
1, 144, Note_on_c, 0, 53, 0
1, 144, Note_on_c, 0, 55, 64
1, 167, Note_on_c, 0, 55, 0
1, 168, Note_on_c, 0, 57, 64
1, 177, Note_on_c, 1, 51, 0
1, 177, Note_on_c, 1, 39, 0
1, 191, Note_on_c, 0, 57, 0
1, 192, Note_on_c, 0, 58, 64
1, 192, Note_on_c, 1, 50, 64
1, 192, Note_on_c, 1, 38, 64
1, 212, Note_on_c, 0, 58, 0
1, 240, Note_on_c, 0, 58, 64
1, 260, Note_on_c, 0, 58, 0
1, 288, Note_on_c, 0, 58, 64
1, 333, Note_on_c, 0, 58, 0
1, 336, Note_on_c, 0, 57, 64
1, 348, Note_on_c, 0, 57, 0
1, 348, Note_on_c, 0, 58, 64
1, 360, Note_on_c, 0, 58, 0
1, 360, Note_on_c, 0, 60, 64
1, 369, Note_on_c, 1, 50, 0
1, 369, Note_on_c, 1, 38, 0
1, 372, Note_on_c, 0, 60, 0
1, 372, Note_on_c, 0, 58, 64
1, 384, Note_on_c, 0, 58, 0
1, 384, Note_on_c, 0, 63, 64
1, 384, Note_on_c, 1, 48, 64
1, 384, Note_on_c, 1, 36, 64
1, 404, Note_on_c, 0, 63, 0
1, 423, Note_on_c, 1, 48, 0
1, 423, Note_on_c, 1, 36, 0
1, 432, Note_on_c, 0, 63, 67
1, 452, Note_on_c, 0, 63, 0
1, 480, Note_on_c, 0, 63, 71
1, 480, Note_on_c, 1, 45, 64
1, 480, Note_on_c, 1, 33, 64
1, 519, Note_on_c, 1, 45, 0
1, 519, Note_on_c, 1, 33, 0
1, 525, Note_on_c, 0, 63, 0
1, 528, Note_on_c, 0, 67, 75
1, 540, Note_on_c, 0, 67, 0
1, 540, Note_on_c, 0, 65, 75
1, 573, Note_on_c, 0, 65, 0
1, 576, Note_on_c, 0, 63, 72
1, 576, Note_on_c, 1, 46, 64
1, 576, Note_on_c, 1, 34, 64
1, 615, Note_on_c, 1, 46, 0
1, 615, Note_on_c, 1, 34, 0
1, 672, Note_on_c, 1, 58, 64
1, 711, Note_on_c, 1, 58, 0
1, 720, Note_on_c, 0, 63, 0
1, 720, Note_on_c, 0, 62, 66
1, 765, Note_on_c, 0, 62, 0
1, 768, Note_on_c, 0, 60, 80
1, 804, Note_on_c, 1, 52, 64
1, 816, Note_on_c, 1, 52, 0
1, 816, Note_on_c, 1, 55, 64
1, 850, Note_on_c, 1, 55, 0
1, 852, Note_on_c, 1, 58, 64
1, 864, Note_on_c, 1, 58, 0
1, 864, Note_on_c, 1, 58, 64
1, 898, Note_on_c, 0, 60, 0
1, 900, Note_on_c, 0, 64, 64
1, 912, Note_on_c, 0, 64, 0
1, 912, Note_on_c, 0, 65, 64
1, 912, Note_on_c, 1, 58, 0
1, 912, Note_on_c, 1, 56, 64
1, 946, Note_on_c, 0, 65, 0
1, 948, Note_on_c, 0, 68, 64
1, 957, Note_on_c, 1, 56, 0
1, 960, Note_on_c, 0, 68, 0
1, 960, Note_on_c, 0, 58, 80
1, 996, Note_on_c, 1, 50, 64
1, 1008, Note_on_c, 1, 50, 0
1, 1008, Note_on_c, 1, 53, 64
1, 1042, Note_on_c, 1, 53, 0
1, 1044, Note_on_c, 1, 56, 64
1, 1056, Note_on_c, 1, 56, 0
1, 1056, Note_on_c, 1, 56, 64
1, 1090, Note_on_c, 0, 58, 0
1, 1092, Note_on_c, 0, 62, 64
1, 1104, Note_on_c, 0, 62, 0
1, 1104, Note_on_c, 0, 63, 64
1, 1104, Note_on_c, 1, 56, 0
1, 1104, Note_on_c, 1, 55, 64
1, 1138, Note_on_c, 0, 63, 0
1, 1140, Note_on_c, 0, 67, 64
1, 1149, Note_on_c, 1, 55, 0
1, 1152, Note_on_c, 0, 67, 0
1, 1152, Note_on_c, 0, 67, 64
1, 1200, Note_on_c, 0, 67, 0
1, 1200, Note_on_c, 0, 60, 67
1, 1200, Note_on_c, 1, 44, 64
1, 1234, Note_on_c, 0, 60, 0
1, 1236, Note_on_c, 0, 68, 69
1, 1245, Note_on_c, 1, 44, 0
1, 1248, Note_on_c, 0, 68, 0
1, 1248, Note_on_c, 0, 68, 70
1, 1296, Note_on_c, 1, 56, 64
1, 1296, Note_on_c, 1, 46, 64
1, 1315, Note_on_c, 0, 68, 0
1, 1320, Note_on_c, 0, 65, 70
1, 1332, Note_on_c, 0, 65, 0
1, 1332, Note_on_c, 0, 62, 69
1, 1341, Note_on_c, 1, 56, 0
1, 1341, Note_on_c, 1, 46, 0
1, 1344, Note_on_c, 0, 62, 0
1, 1344, Note_on_c, 0, 62, 69
1, 1344, Note_on_c, 1, 56, 64
1, 1344, Note_on_c, 1, 51, 64
1, 1440, Note_on_c, 0, 62, 0
1, 1440, Note_on_c, 0, 63, 65
1, 1440, Note_on_c, 1, 56, 0
1, 1440, Note_on_c, 1, 55, 64
1, 1485, Note_on_c, 0, 63, 0
1, 1485, Note_on_c, 1, 55, 0
1, 1485, Note_on_c, 1, 51, 0
1, 1536, Note_on_c, 0, 72, 80
1, 1572, Note_on_c, 1, 64, 64
1, 1584, Note_on_c, 1, 64, 0
1, 1584, Note_on_c, 1, 67, 64
1, 1618, Note_on_c, 1, 67, 0
1, 1620, Note_on_c, 1, 70, 64
1, 1632, Note_on_c, 1, 70, 0
1, 1632, Note_on_c, 1, 70, 64
1, 1666, Note_on_c, 0, 72, 0
1, 1668, Note_on_c, 0, 76, 64
1, 1680, Note_on_c, 0, 76, 0
1, 1680, Note_on_c, 0, 77, 64
1, 1680, Note_on_c, 1, 70, 0
1, 1680, Note_on_c, 1, 68, 64
1, 1714, Note_on_c, 0, 77, 0
1, 1716, Note_on_c, 0, 80, 64
1, 1725, Note_on_c, 1, 68, 0
1, 1728, Note_on_c, 0, 80, 0
1, 1728, Note_on_c, 0, 70, 80
1, 1764, Note_on_c, 1, 62, 64
1, 1776, Note_on_c, 1, 62, 0
1, 1776, Note_on_c, 1, 65, 64
1, 1810, Note_on_c, 1, 65, 0
1, 1812, Note_on_c, 1, 68, 64
1, 1824, Note_on_c, 1, 68, 0
1, 1824, Note_on_c, 1, 68, 64
1, 1858, Note_on_c, 0, 70, 0
1, 1860, Note_on_c, 0, 74, 64
1, 1872, Note_on_c, 0, 74, 0
1, 1872, Note_on_c, 0, 75, 64
1, 1872, Note_on_c, 1, 68, 0
1, 1872, Note_on_c, 1, 67, 64
1, 1906, Note_on_c, 0, 75, 0
1, 1908, Note_on_c, 0, 79, 64
1, 1917, Note_on_c, 1, 67, 0
1, 1920, Note_on_c, 0, 79, 0
1, 1920, Note_on_c, 0, 82, 64
1, 1943, Note_on_c, 0, 82, 0
1, 1944, Note_on_c, 0, 79, 65
1, 1944, Note_on_c, 1, 75, 64
1, 1956, Note_on_c, 0, 79, 0
1, 1956, Note_on_c, 0, 82, 66
1, 1967, Note_on_c, 1, 75, 0
1, 1968, Note_on_c, 0, 82, 0
1, 1968, Note_on_c, 0, 77, 66
1, 1968, Note_on_c, 1, 74, 65
1, 1980, Note_on_c, 0, 77, 0
1, 1980, Note_on_c, 0, 82, 67
1, 1991, Note_on_c, 1, 74, 0
1, 1992, Note_on_c, 0, 82, 0
1, 1992, Note_on_c, 0, 75, 68
1, 1992, Note_on_c, 1, 72, 66
1, 2004, Note_on_c, 0, 75, 0
1, 2004, Note_on_c, 0, 82, 68
1, 2015, Note_on_c, 1, 72, 0
1, 2016, Note_on_c, 0, 82, 0
1, 2016, Note_on_c, 0, 74, 69
1, 2016, Note_on_c, 1, 70, 67
1, 2028, Note_on_c, 0, 74, 0
1, 2028, Note_on_c, 0, 82, 70
1, 2039, Note_on_c, 1, 70, 0
1, 2040, Note_on_c, 0, 82, 0
1, 2040, Note_on_c, 0, 72, 70
1, 2040, Note_on_c, 1, 68, 68
1, 2052, Note_on_c, 0, 72, 0
1, 2052, Note_on_c, 0, 82, 71
1, 2063, Note_on_c, 1, 68, 0
1, 2064, Note_on_c, 0, 82, 0
1, 2064, Note_on_c, 0, 70, 72
1, 2064, Note_on_c, 1, 67, 69
1, 2076, Note_on_c, 0, 70, 0
1, 2076, Note_on_c, 0, 82, 72
1, 2087, Note_on_c, 1, 67, 0
1, 2088, Note_on_c, 0, 82, 0
1, 2088, Note_on_c, 0, 68, 73
1, 2088, Note_on_c, 1, 65, 70
1, 2100, Note_on_c, 0, 68, 0
1, 2100, Note_on_c, 0, 82, 74
1, 2111, Note_on_c, 1, 65, 0
1, 2112, Note_on_c, 0, 82, 0
1, 2112, Note_on_c, 0, 67, 74
1, 2112, Note_on_c, 1, 63, 71
1, 2135, Note_on_c, 0, 67, 0
1, 2136, Note_on_c, 0, 68, 76
1, 2148, Note_on_c, 0, 68, 0
1, 2148, Note_on_c, 0, 70, 76
1, 2160, Note_on_c, 0, 70, 0
1, 2160, Note_on_c, 0, 72, 77
1, 2172, Note_on_c, 0, 72, 0
1, 2172, Note_on_c, 0, 74, 78
1, 2184, Note_on_c, 0, 74, 0
1, 2184, Note_on_c, 0, 75, 78
1, 2196, Note_on_c, 0, 75, 0
1, 2196, Note_on_c, 0, 77, 79
1, 2201, Note_on_c, 1, 63, 0
1, 2208, Note_on_c, 0, 77, 0
1, 2208, Note_on_c, 0, 79, 80
1, 2223, Note_on_c, 0, 79, 0
1, 2244, Note_on_c, 0, 74, 80
1, 2256, Note_on_c, 0, 74, 0
1, 2256, Note_on_c, 0, 75, 80
1, 2262, Note_on_c, 0, 75, 0
1, 2262, Note_on_c, 0, 77, 80
1, 2268, Note_on_c, 0, 77, 0
1, 2268, Note_on_c, 0, 75, 80
1, 2290, Note_on_c, 0, 75, 0
1, 2292, Note_on_c, 0, 71, 80
1, 2304, Note_on_c, 0, 71, 0
1, 2304, Note_on_c, 0, 72, 80
1, 2304, Note_on_c, 1, 56, 75
1, 2349, Note_on_c, 0, 72, 0
1, 2352, Note_on_c, 0, 84, 80
1, 2352, Note_on_c, 0, 80, 80
1, 2393, Note_on_c, 1, 56, 0
1, 2397, Note_on_c, 0, 84, 0
1, 2397, Note_on_c, 0, 80, 0
1, 2436, Note_on_c, 0, 84, 80
1, 2436, Note_on_c, 0, 80, 80
1, 2448, Note_on_c, 0, 84, 0
1, 2448, Note_on_c, 0, 80, 0
1, 2448, Note_on_c, 0, 82, 79
1, 2448, Note_on_c, 0, 79, 79
1, 2482, Note_on_c, 0, 82, 0
1, 2482, Note_on_c, 0, 79, 0
1, 2484, Note_on_c, 0, 80, 76
1, 2484, Note_on_c, 0, 77, 76
1, 2496, Note_on_c, 0, 80, 0
1, 2496, Note_on_c, 0, 77, 0
1, 2496, Note_on_c, 0, 79, 76
1, 2496, Note_on_c, 0, 75, 76
1, 2541, Note_on_c, 0, 79, 0
1, 2541, Note_on_c, 0, 75, 0
1, 2544, Note_on_c, 0, 82, 73
1, 2544, Note_on_c, 0, 79, 73
1, 2589, Note_on_c, 0, 82, 0
1, 2589, Note_on_c, 0, 79, 0
1, 2592, Note_on_c, 1, 58, 75
1, 2612, Note_on_c, 1, 58, 0
1, 2640, Note_on_c, 0, 74, 70
1, 2640, Note_on_c, 0, 68, 70
1, 2685, Note_on_c, 0, 74, 0
1, 2685, Note_on_c, 0, 68, 0
1, 2688, Note_on_c, 0, 75, 70
1, 2688, Note_on_c, 0, 67, 70
1, 2688, Note_on_c, 1, 63, 58
1, 2711, Note_on_c, 1, 63, 0
1, 2712, Note_on_c, 1, 67, 58
1, 2735, Note_on_c, 1, 67, 0
1, 2736, Note_on_c, 1, 63, 58
1, 2759, Note_on_c, 1, 63, 0
1, 2760, Note_on_c, 1, 67, 58
1, 2783, Note_on_c, 1, 67, 0
1, 2784, Note_on_c, 0, 75, 0
1, 2784, Note_on_c, 0, 67, 0
1, 2784, Note_on_c, 0, 74, 70
1, 2784, Note_on_c, 1, 63, 58
1, 2807, Note_on_c, 1, 63, 0
1, 2808, Note_on_c, 1, 67, 58
1, 2829, Note_on_c, 0, 74, 0
1, 2831, Note_on_c, 1, 67, 0
1, 2832, Note_on_c, 0, 73, 70
1, 2832, Note_on_c, 1, 63, 58
1, 2855, Note_on_c, 1, 63, 0
1, 2856, Note_on_c, 1, 67, 58
1, 2877, Note_on_c, 0, 73, 0
1, 2879, Note_on_c, 1, 67, 0
1, 2880, Note_on_c, 0, 71, 70
1, 2880, Note_on_c, 1, 63, 58
1, 2903, Note_on_c, 1, 63, 0
1, 2904, Note_on_c, 1, 68, 58
1, 2927, Note_on_c, 1, 68, 0
1, 2928, Note_on_c, 0, 71, 0
1, 2928, Note_on_c, 0, 72, 70
1, 2928, Note_on_c, 1, 63, 58
1, 2951, Note_on_c, 1, 63, 0
1, 2952, Note_on_c, 1, 68, 58
1, 2973, Note_on_c, 0, 72, 0
1, 2975, Note_on_c, 1, 68, 0
1, 2976, Note_on_c, 1, 63, 58
1, 2999, Note_on_c, 1, 63, 0
1, 3000, Note_on_c, 1, 68, 58
1, 3023, Note_on_c, 1, 68, 0
1, 3024, Note_on_c, 1, 63, 58
1, 3047, Note_on_c, 1, 63, 0
1, 3048, Note_on_c, 1, 68, 58
1, 3071, Note_on_c, 1, 68, 0
1, 3072, Note_on_c, 0, 77, 70
1, 3072, Note_on_c, 1, 62, 58
1, 3095, Note_on_c, 1, 62, 0
1, 3096, Note_on_c, 1, 68, 58
1, 3117, Note_on_c, 0, 77, 0
1, 3119, Note_on_c, 1, 68, 0
1, 3120, Note_on_c, 0, 70, 70
1, 3120, Note_on_c, 1, 62, 58
1, 3143, Note_on_c, 1, 62, 0
1, 3144, Note_on_c, 1, 68, 58
1, 3167, Note_on_c, 1, 68, 0
1, 3168, Note_on_c, 1, 62, 58
1, 3191, Note_on_c, 1, 62, 0
1, 3192, Note_on_c, 1, 68, 58
1, 3213, Note_on_c, 0, 70, 0
1, 3215, Note_on_c, 1, 68, 0
1, 3216, Note_on_c, 0, 74, 70
1, 3216, Note_on_c, 1, 62, 58
1, 3222, Note_on_c, 0, 74, 0
1, 3222, Note_on_c, 0, 72, 70
1, 3239, Note_on_c, 0, 72, 0
1, 3239, Note_on_c, 1, 62, 0
1, 3240, Note_on_c, 0, 70, 70
1, 3240, Note_on_c, 1, 68, 58
1, 3263, Note_on_c, 0, 70, 0
1, 3263, Note_on_c, 1, 68, 0
1, 3264, Note_on_c, 0, 70, 70
1, 3264, Note_on_c, 1, 63, 58
1, 3287, Note_on_c, 0, 70, 0
1, 3287, Note_on_c, 1, 63, 0
1, 3288, Note_on_c, 0, 72, 70
1, 3288, Note_on_c, 1, 67, 58
1, 3300, Note_on_c, 0, 72, 0
1, 3300, Note_on_c, 0, 74, 71
1, 3311, Note_on_c, 1, 67, 0
1, 3312, Note_on_c, 0, 74, 0
1, 3312, Note_on_c, 0, 75, 71
1, 3312, Note_on_c, 1, 63, 58
1, 3324, Note_on_c, 0, 75, 0
1, 3324, Note_on_c, 0, 77, 72
1, 3335, Note_on_c, 1, 63, 0
1, 3336, Note_on_c, 0, 77, 0
1, 3336, Note_on_c, 0, 79, 72
1, 3336, Note_on_c, 1, 67, 58
1, 3348, Note_on_c, 0, 79, 0
1, 3348, Note_on_c, 0, 80, 72
1, 3359, Note_on_c, 1, 67, 0
1, 3360, Note_on_c, 0, 80, 0
1, 3360, Note_on_c, 0, 82, 73
1, 3360, Note_on_c, 1, 63, 58
1, 3383, Note_on_c, 1, 63, 0
1, 3384, Note_on_c, 1, 67, 58
1, 3405, Note_on_c, 0, 82, 0
1, 3407, Note_on_c, 1, 67, 0
1, 3408, Note_on_c, 1, 63, 58
1, 3431, Note_on_c, 1, 63, 0
1, 3432, Note_on_c, 1, 67, 58
1, 3455, Note_on_c, 1, 67, 0
1, 3456, Note_on_c, 0, 77, 70
1, 3456, Note_on_c, 1, 62, 58
1, 3479, Note_on_c, 1, 62, 0
1, 3480, Note_on_c, 1, 68, 58
1, 3501, Note_on_c, 0, 77, 0
1, 3503, Note_on_c, 1, 68, 0
1, 3504, Note_on_c, 0, 70, 70
1, 3504, Note_on_c, 1, 62, 58
1, 3527, Note_on_c, 1, 62, 0
1, 3528, Note_on_c, 1, 68, 58
1, 3551, Note_on_c, 1, 68, 0
1, 3552, Note_on_c, 1, 62, 58
1, 3575, Note_on_c, 1, 62, 0
1, 3576, Note_on_c, 1, 68, 58
1, 3597, Note_on_c, 0, 70, 0
1, 3599, Note_on_c, 1, 68, 0
1, 3600, Note_on_c, 0, 74, 70
1, 3600, Note_on_c, 1, 62, 58
1, 3606, Note_on_c, 0, 74, 0
1, 3606, Note_on_c, 0, 72, 70
1, 3623, Note_on_c, 0, 72, 0
1, 3623, Note_on_c, 1, 62, 0
1, 3624, Note_on_c, 0, 70, 70
1, 3624, Note_on_c, 1, 68, 58
1, 3647, Note_on_c, 0, 70, 0
1, 3647, Note_on_c, 1, 68, 0
1, 3648, Note_on_c, 0, 70, 70
1, 3648, Note_on_c, 1, 63, 58
1, 3671, Note_on_c, 0, 70, 0
1, 3671, Note_on_c, 1, 63, 0
1, 3672, Note_on_c, 0, 72, 70
1, 3672, Note_on_c, 1, 67, 58
1, 3684, Note_on_c, 0, 72, 0
1, 3684, Note_on_c, 0, 74, 71
1, 3695, Note_on_c, 1, 67, 0
1, 3696, Note_on_c, 0, 74, 0
1, 3696, Note_on_c, 0, 75, 71
1, 3696, Note_on_c, 1, 63, 58
1, 3708, Note_on_c, 0, 75, 0
1, 3708, Note_on_c, 0, 77, 72
1, 3719, Note_on_c, 1, 63, 0
1, 3720, Note_on_c, 0, 77, 0
1, 3720, Note_on_c, 0, 79, 72
1, 3720, Note_on_c, 1, 67, 58
1, 3732, Note_on_c, 0, 79, 0
1, 3732, Note_on_c, 0, 80, 72
1, 3743, Note_on_c, 1, 67, 0
1, 3744, Note_on_c, 0, 80, 0
1, 3744, Note_on_c, 0, 82, 73
1, 3744, Note_on_c, 1, 63, 58
1, 3767, Note_on_c, 1, 63, 0
1, 3768, Note_on_c, 1, 67, 58
1, 3789, Note_on_c, 0, 82, 0
1, 3791, Note_on_c, 1, 67, 0
1, 3792, Note_on_c, 1, 63, 58
1, 3815, Note_on_c, 1, 63, 0
1, 3816, Note_on_c, 0, 82, 75
1, 3816, Note_on_c, 1, 67, 58
1, 3839, Note_on_c, 0, 82, 0
1, 3839, Note_on_c, 1, 67, 0
1, 3840, Note_on_c, 0, 87, 91
1, 3840, Note_on_c, 1, 60, 58
1, 3863, Note_on_c, 1, 60, 0
1, 3864, Note_on_c, 1, 63, 58
1, 3887, Note_on_c, 1, 63, 0
1, 3888, Note_on_c, 1, 68, 58
1, 3911, Note_on_c, 0, 87, 0
1, 3911, Note_on_c, 1, 68, 0
1, 3912, Note_on_c, 0, 86, 75
1, 3912, Note_on_c, 1, 72, 58
1, 3918, Note_on_c, 0, 86, 0
1, 3918, Note_on_c, 0, 84, 75
1, 3924, Note_on_c, 0, 84, 0
1, 3924, Note_on_c, 0, 82, 75
1, 3930, Note_on_c, 0, 82, 0
1, 3930, Note_on_c, 0, 80, 75
1, 3935, Note_on_c, 1, 72, 0
1, 3936, Note_on_c, 0, 80, 0
1, 3936, Note_on_c, 0, 86, 91
1, 3936, Note_on_c, 1, 58, 58
1, 3959, Note_on_c, 1, 58, 0
1, 3960, Note_on_c, 1, 62, 58
1, 3983, Note_on_c, 1, 62, 0
1, 3984, Note_on_c, 1, 67, 58
1, 4007, Note_on_c, 0, 86, 0
1, 4007, Note_on_c, 1, 67, 0
1, 4008, Note_on_c, 0, 84, 75
1, 4008, Note_on_c, 1, 70, 58
1, 4014, Note_on_c, 0, 84, 0
1, 4014, Note_on_c, 0, 82, 75
1, 4020, Note_on_c, 0, 82, 0
1, 4020, Note_on_c, 0, 80, 75
1, 4026, Note_on_c, 0, 80, 0
1, 4026, Note_on_c, 0, 79, 75
1, 4031, Note_on_c, 1, 70, 0
1, 4032, Note_on_c, 0, 79, 0
1, 4032, Note_on_c, 0, 84, 91
1, 4032, Note_on_c, 1, 56, 58
1, 4080, Note_on_c, 0, 84, 0
1, 4080, Note_on_c, 0, 82, 75
1, 4092, Note_on_c, 0, 82, 0
1, 4092, Note_on_c, 0, 80, 75
1, 4104, Note_on_c, 0, 80, 0
1, 4104, Note_on_c, 0, 79, 75
1, 4116, Note_on_c, 0, 79, 0
1, 4116, Note_on_c, 0, 77, 75
1, 4121, Note_on_c, 1, 56, 0
1, 4128, Note_on_c, 0, 77, 0
1, 4128, Note_on_c, 0, 75, 75
1, 4140, Note_on_c, 0, 75, 0
1, 4140, Note_on_c, 0, 74, 75
1, 4152, Note_on_c, 0, 74, 0
1, 4152, Note_on_c, 0, 72, 75
1, 4164, Note_on_c, 0, 72, 0
1, 4164, Note_on_c, 0, 70, 75
1, 4176, Note_on_c, 0, 70, 0
1, 4176, Note_on_c, 0, 68, 75
1, 4188, Note_on_c, 0, 68, 0
1, 4188, Note_on_c, 0, 67, 75
1, 4200, Note_on_c, 0, 67, 0
1, 4200, Note_on_c, 0, 65, 75
1, 4212, Note_on_c, 0, 65, 0
1, 4212, Note_on_c, 0, 63, 75
1, 4224, Note_on_c, 0, 63, 0
1, 4224, Note_on_c, 0, 62, 75
1, 4224, Note_on_c, 1, 56, 75
1, 4224, Note_on_c, 1, 53, 75
1, 4224, Note_on_c, 1, 46, 75
1, 4244, Note_on_c, 0, 62, 0
1, 4244, Note_on_c, 1, 56, 0
1, 4244, Note_on_c, 1, 53, 0
1, 4244, Note_on_c, 1, 46, 0
1, 4272, Note_on_c, 0, 63, 75
1, 4272, Note_on_c, 1, 55, 75
1, 4272, Note_on_c, 1, 51, 75
1, 4301, Note_on_c, 0, 63, 0
1, 4301, Note_on_c, 1, 55, 0
1, 4301, Note_on_c, 1, 51, 0
1, 4416, Note_on_c, 0, 60, 80
1, 4416, Note_on_c, 1, 48, 80
1, 4416, Note_on_c, 1, 36, 80
1, 4505, Note_on_c, 0, 60, 0
1, 4512, Note_on_c, 0, 51, 80
1, 4535, Note_on_c, 0, 51, 0
1, 4536, Note_on_c, 0, 53, 80
1, 4544, Note_on_c, 0, 53, 0
1, 4544, Note_on_c, 0, 51, 80
1, 4552, Note_on_c, 0, 51, 0
1, 4552, Note_on_c, 0, 50, 80
1, 4560, Note_on_c, 0, 50, 0
1, 4560, Note_on_c, 0, 51, 80
1, 4583, Note_on_c, 0, 51, 0
1, 4584, Note_on_c, 0, 53, 80
1, 4593, Note_on_c, 1, 48, 0
1, 4593, Note_on_c, 1, 36, 0
1, 4607, Note_on_c, 0, 53, 0
1, 4608, Note_on_c, 0, 55, 80
1, 4608, Note_on_c, 1, 47, 80
1, 4608, Note_on_c, 1, 35, 80
1, 4628, Note_on_c, 0, 55, 0
1, 4656, Note_on_c, 0, 55, 80
1, 4676, Note_on_c, 0, 55, 0
1, 4697, Note_on_c, 1, 47, 0
1, 4697, Note_on_c, 1, 35, 0
1, 4800, Note_on_c, 0, 63, 75
1, 4806, Note_on_c, 0, 63, 0
1, 4806, Note_on_c, 0, 67, 75
1, 4812, Note_on_c, 0, 67, 0
1, 4812, Note_on_c, 0, 71, 75
1, 4818, Note_on_c, 0, 71, 0
1, 4818, Note_on_c, 0, 74, 75
1, 4896, Note_on_c, 1, 59, 75
1, 4911, Note_on_c, 0, 74, 0
1, 4912, Note_on_c, 0, 72, 75
1, 4927, Note_on_c, 0, 72, 0
1, 4928, Note_on_c, 0, 71, 75
1, 4943, Note_on_c, 0, 71, 0
1, 4944, Note_on_c, 0, 68, 75
1, 4959, Note_on_c, 0, 68, 0
1, 4960, Note_on_c, 0, 67, 75
1, 4975, Note_on_c, 0, 67, 0
1, 4976, Note_on_c, 0, 65, 75
1, 4991, Note_on_c, 0, 65, 0
1, 4992, Note_on_c, 0, 65, 75
1, 4992, Note_on_c, 1, 59, 0
1, 4992, Note_on_c, 1, 60, 75
1, 5007, Note_on_c, 0, 65, 0
1, 5008, Note_on_c, 0, 63, 75
1, 5023, Note_on_c, 0, 63, 0
1, 5024, Note_on_c, 0, 62, 75
1, 5039, Note_on_c, 0, 62, 0
1, 5040, Note_on_c, 0, 63, 75
1, 5055, Note_on_c, 0, 63, 0
1, 5056, Note_on_c, 0, 67, 75
1, 5071, Note_on_c, 0, 67, 0
1, 5072, Note_on_c, 0, 72, 75
1, 5081, Note_on_c, 1, 60, 0
1, 5087, Note_on_c, 0, 72, 0
1, 5088, Note_on_c, 0, 75, 75
1, 5103, Note_on_c, 0, 75, 0
1, 5104, Note_on_c, 0, 79, 75
1, 5119, Note_on_c, 0, 79, 0
1, 5120, Note_on_c, 0, 77, 75
1, 5135, Note_on_c, 0, 77, 0
1, 5136, Note_on_c, 0, 75, 75
1, 5151, Note_on_c, 0, 75, 0
1, 5152, Note_on_c, 0, 74, 75
1, 5167, Note_on_c, 0, 74, 0
1, 5168, Note_on_c, 0, 72, 75
1, 5183, Note_on_c, 0, 72, 0
1, 5184, Note_on_c, 0, 70, 75
1, 5184, Note_on_c, 1, 62, 75
1, 5184, Note_on_c, 1, 53, 75
1, 5280, Note_on_c, 0, 70, 0
1, 5280, Note_on_c, 0, 69, 67
1, 5280, Note_on_c, 1, 62, 0
1, 5280, Note_on_c, 1, 60, 67
1, 5300, Note_on_c, 0, 69, 0
1, 5325, Note_on_c, 1, 60, 0
1, 5325, Note_on_c, 1, 53, 0
1, 5376, Note_on_c, 0, 70, 75
1, 5376, Note_on_c, 0, 62, 75
1, 5376, Note_on_c, 1, 46, 75
1, 5376, Note_on_c, 1, 34, 75
1, 5399, Note_on_c, 0, 70, 0
1, 5399, Note_on_c, 0, 62, 0
1, 5400, Note_on_c, 0, 65, 75
1, 5408, Note_on_c, 0, 65, 0
1, 5408, Note_on_c, 0, 67, 75
1, 5416, Note_on_c, 0, 67, 0
1, 5416, Note_on_c, 0, 65, 75
1, 5421, Note_on_c, 1, 46, 0
1, 5421, Note_on_c, 1, 34, 0
1, 5424, Note_on_c, 0, 65, 0
1, 5424, Note_on_c, 0, 70, 75
1, 5447, Note_on_c, 0, 70, 0
1, 5448, Note_on_c, 0, 62, 75
1, 5448, Note_on_c, 1, 58, 75
1, 5460, Note_on_c, 0, 62, 0
1, 5460, Note_on_c, 0, 70, 75
1, 5471, Note_on_c, 1, 58, 0
1, 5472, Note_on_c, 0, 70, 0
1, 5472, Note_on_c, 0, 63, 75
1, 5472, Note_on_c, 1, 60, 75
1, 5484, Note_on_c, 0, 63, 0
1, 5484, Note_on_c, 0, 70, 75
1, 5495, Note_on_c, 1, 60, 0
1, 5496, Note_on_c, 0, 70, 0
1, 5496, Note_on_c, 0, 62, 75
1, 5496, Note_on_c, 1, 58, 75
1, 5508, Note_on_c, 0, 62, 0
1, 5508, Note_on_c, 0, 70, 75
1, 5519, Note_on_c, 1, 58, 0
1, 5520, Note_on_c, 0, 70, 0
1, 5520, Note_on_c, 0, 63, 75
1, 5520, Note_on_c, 1, 60, 75
1, 5532, Note_on_c, 0, 63, 0
1, 5532, Note_on_c, 0, 70, 75
1, 5543, Note_on_c, 1, 60, 0
1, 5544, Note_on_c, 0, 70, 0
1, 5544, Note_on_c, 0, 65, 75
1, 5544, Note_on_c, 1, 62, 75
1, 5556, Note_on_c, 0, 65, 0
1, 5556, Note_on_c, 0, 70, 75
1, 5567, Note_on_c, 1, 62, 0
1, 5568, Note_on_c, 0, 70, 0
1, 5568, Note_on_c, 0, 67, 75
1, 5568, Note_on_c, 1, 63, 75
1, 5591, Note_on_c, 0, 67, 0
1, 5592, Note_on_c, 0, 75, 75
1, 5592, Note_on_c, 0, 67, 75
1, 5615, Note_on_c, 0, 75, 0
1, 5615, Note_on_c, 0, 67, 0
1, 5616, Note_on_c, 0, 75, 75
1, 5616, Note_on_c, 0, 67, 75
1, 5639, Note_on_c, 0, 75, 0
1, 5639, Note_on_c, 0, 67, 0
1, 5640, Note_on_c, 0, 75, 75
1, 5640, Note_on_c, 0, 67, 75
1, 5657, Note_on_c, 1, 63, 0
1, 5663, Note_on_c, 0, 75, 0
1, 5663, Note_on_c, 0, 67, 0
1, 5664, Note_on_c, 0, 75, 75
1, 5664, Note_on_c, 0, 67, 75
1, 5688, Note_on_c, 0, 75, 0
1, 5688, Note_on_c, 0, 67, 0
1, 5688, Note_on_c, 0, 74, 75
1, 5688, Note_on_c, 0, 65, 75
1, 5711, Note_on_c, 0, 74, 0
1, 5711, Note_on_c, 0, 65, 0
1, 5712, Note_on_c, 0, 74, 75
1, 5712, Note_on_c, 0, 65, 75
1, 5736, Note_on_c, 0, 74, 0
1, 5736, Note_on_c, 0, 65, 0
1, 5736, Note_on_c, 0, 72, 75
1, 5736, Note_on_c, 0, 63, 75
1, 5759, Note_on_c, 0, 72, 0
1, 5759, Note_on_c, 0, 63, 0
1, 5760, Note_on_c, 0, 70, 75
1, 5760, Note_on_c, 0, 62, 75
1, 5760, Note_on_c, 1, 46, 75
1, 5760, Note_on_c, 1, 34, 75
1, 5783, Note_on_c, 0, 70, 0
1, 5783, Note_on_c, 0, 62, 0
1, 5784, Note_on_c, 0, 65, 75
1, 5792, Note_on_c, 0, 65, 0
1, 5792, Note_on_c, 0, 67, 75
1, 5800, Note_on_c, 0, 67, 0
1, 5800, Note_on_c, 0, 65, 75
1, 5805, Note_on_c, 1, 46, 0
1, 5805, Note_on_c, 1, 34, 0
1, 5808, Note_on_c, 0, 65, 0
1, 5808, Note_on_c, 0, 70, 75
1, 5831, Note_on_c, 0, 70, 0
1, 5832, Note_on_c, 0, 62, 75
1, 5832, Note_on_c, 1, 58, 75
1, 5844, Note_on_c, 0, 62, 0
1, 5844, Note_on_c, 0, 70, 75
1, 5855, Note_on_c, 1, 58, 0
1, 5856, Note_on_c, 0, 70, 0
1, 5856, Note_on_c, 0, 63, 75
1, 5856, Note_on_c, 1, 60, 75
1, 5868, Note_on_c, 0, 63, 0
1, 5868, Note_on_c, 0, 70, 75
1, 5879, Note_on_c, 1, 60, 0
1, 5880, Note_on_c, 0, 70, 0
1, 5880, Note_on_c, 0, 62, 75
1, 5880, Note_on_c, 1, 58, 75
1, 5892, Note_on_c, 0, 62, 0
1, 5892, Note_on_c, 0, 70, 75
1, 5903, Note_on_c, 1, 58, 0
1, 5904, Note_on_c, 0, 70, 0
1, 5904, Note_on_c, 0, 63, 75
1, 5904, Note_on_c, 1, 60, 75
1, 5916, Note_on_c, 0, 63, 0
1, 5916, Note_on_c, 0, 70, 75
1, 5927, Note_on_c, 1, 60, 0
1, 5928, Note_on_c, 0, 70, 0
1, 5928, Note_on_c, 0, 65, 75
1, 5928, Note_on_c, 1, 62, 75
1, 5940, Note_on_c, 0, 65, 0
1, 5940, Note_on_c, 0, 70, 75
1, 5951, Note_on_c, 1, 62, 0
1, 5952, Note_on_c, 0, 70, 0
1, 5952, Note_on_c, 0, 67, 75
1, 5952, Note_on_c, 1, 63, 75
1, 5975, Note_on_c, 0, 67, 0
1, 5976, Note_on_c, 0, 79, 75
1, 5976, Note_on_c, 0, 75, 75
1, 5999, Note_on_c, 0, 79, 0
1, 5999, Note_on_c, 0, 75, 0
1, 6000, Note_on_c, 0, 79, 75
1, 6000, Note_on_c, 0, 75, 75
1, 6023, Note_on_c, 0, 79, 0
1, 6023, Note_on_c, 0, 75, 0
1, 6024, Note_on_c, 0, 79, 75
1, 6024, Note_on_c, 0, 75, 75
1, 6041, Note_on_c, 1, 63, 0
1, 6047, Note_on_c, 0, 79, 0
1, 6047, Note_on_c, 0, 75, 0
1, 6048, Note_on_c, 0, 79, 75
1, 6048, Note_on_c, 0, 75, 75
1, 6072, Note_on_c, 0, 79, 0
1, 6072, Note_on_c, 0, 75, 0
1, 6072, Note_on_c, 0, 77, 75
1, 6072, Note_on_c, 0, 74, 75
1, 6095, Note_on_c, 0, 77, 0
1, 6095, Note_on_c, 0, 74, 0
1, 6096, Note_on_c, 0, 77, 75
1, 6096, Note_on_c, 0, 74, 75
1, 6120, Note_on_c, 0, 77, 0
1, 6120, Note_on_c, 0, 74, 0
1, 6120, Note_on_c, 0, 75, 75
1, 6120, Note_on_c, 0, 72, 75
1, 6143, Note_on_c, 0, 75, 0
1, 6143, Note_on_c, 0, 72, 0
1, 6144, Note_on_c, 0, 74, 75
1, 6144, Note_on_c, 0, 70, 75
1, 6144, Note_on_c, 1, 46, 75
1, 6144, Note_on_c, 1, 34, 75
1, 6167, Note_on_c, 0, 74, 0
1, 6167, Note_on_c, 0, 70, 0
1, 6168, Note_on_c, 0, 77, 75
1, 6176, Note_on_c, 0, 77, 0
1, 6176, Note_on_c, 0, 79, 75
1, 6184, Note_on_c, 0, 79, 0
1, 6184, Note_on_c, 0, 77, 75
1, 6189, Note_on_c, 1, 46, 0
1, 6189, Note_on_c, 1, 34, 0
1, 6192, Note_on_c, 0, 77, 0
1, 6192, Note_on_c, 0, 82, 75
1, 6215, Note_on_c, 0, 82, 0
1, 6216, Note_on_c, 0, 77, 75
1, 6216, Note_on_c, 1, 74, 75
1, 6228, Note_on_c, 0, 77, 0
1, 6228, Note_on_c, 0, 82, 75
1, 6239, Note_on_c, 1, 74, 0
1, 6240, Note_on_c, 0, 82, 0
1, 6240, Note_on_c, 0, 79, 75
1, 6240, Note_on_c, 1, 75, 75
1, 6252, Note_on_c, 0, 79, 0
1, 6252, Note_on_c, 0, 82, 75
1, 6263, Note_on_c, 1, 75, 0
1, 6264, Note_on_c, 0, 82, 0
1, 6264, Note_on_c, 0, 77, 75
1, 6264, Note_on_c, 1, 74, 75
1, 6276, Note_on_c, 0, 77, 0
1, 6276, Note_on_c, 0, 82, 75
1, 6287, Note_on_c, 1, 74, 0
1, 6288, Note_on_c, 0, 82, 0
1, 6288, Note_on_c, 0, 79, 75
1, 6288, Note_on_c, 1, 75, 75
1, 6300, Note_on_c, 0, 79, 0
1, 6300, Note_on_c, 0, 82, 75
1, 6311, Note_on_c, 1, 75, 0
1, 6312, Note_on_c, 0, 82, 0
1, 6312, Note_on_c, 0, 80, 75
1, 6312, Note_on_c, 1, 77, 75
1, 6324, Note_on_c, 0, 80, 0
1, 6324, Note_on_c, 0, 82, 75
1, 6335, Note_on_c, 1, 77, 0
1, 6336, Note_on_c, 0, 82, 0
1, 6336, Note_on_c, 0, 79, 75
1, 6336, Note_on_c, 1, 75, 75
1, 6359, Note_on_c, 0, 79, 0
1, 6360, Note_on_c, 0, 87, 75
1, 6370, Note_on_c, 0, 87, 0
1, 6384, Note_on_c, 0, 87, 75
1, 6394, Note_on_c, 0, 87, 0
1, 6408, Note_on_c, 0, 87, 75
1, 6418, Note_on_c, 0, 87, 0
1, 6425, Note_on_c, 1, 75, 0
1, 6432, Note_on_c, 0, 87, 75
1, 6444, Note_on_c, 0, 87, 0
1, 6444, Note_on_c, 0, 89, 75
1, 6456, Note_on_c, 0, 89, 0
1, 6456, Note_on_c, 0, 87, 75
1, 6468, Note_on_c, 0, 87, 0
1, 6468, Note_on_c, 0, 86, 75
1, 6480, Note_on_c, 0, 86, 0
1, 6480, Note_on_c, 0, 84, 75
1, 6492, Note_on_c, 0, 84, 0
1, 6492, Note_on_c, 0, 82, 75
1, 6504, Note_on_c, 0, 82, 0
1, 6504, Note_on_c, 0, 81, 75
1, 6516, Note_on_c, 0, 81, 0
1, 6516, Note_on_c, 0, 79, 75
1, 6528, Note_on_c, 0, 79, 0
1, 6528, Note_on_c, 0, 77, 75
1, 6548, Note_on_c, 0, 77, 0
1, 6552, Note_on_c, 1, 75, 70
1, 6552, Note_on_c, 1, 69, 70
1, 6562, Note_on_c, 1, 75, 0
1, 6562, Note_on_c, 1, 69, 0
1, 6576, Note_on_c, 1, 75, 70
1, 6576, Note_on_c, 1, 69, 70
1, 6586, Note_on_c, 1, 75, 0
1, 6586, Note_on_c, 1, 69, 0
1, 6600, Note_on_c, 1, 75, 70
1, 6600, Note_on_c, 1, 69, 70
1, 6610, Note_on_c, 1, 75, 0
1, 6610, Note_on_c, 1, 69, 0
1, 6624, Note_on_c, 1, 74, 70
1, 6624, Note_on_c, 1, 70, 70
1, 6648, Note_on_c, 0, 86, 75
1, 6660, Note_on_c, 0, 86, 0
1, 6660, Note_on_c, 0, 84, 75
1, 6669, Note_on_c, 1, 74, 0
1, 6669, Note_on_c, 1, 70, 0
1, 6672, Note_on_c, 0, 84, 0
1, 6672, Note_on_c, 0, 82, 75
1, 6684, Note_on_c, 0, 82, 0
1, 6684, Note_on_c, 0, 81, 75
1, 6696, Note_on_c, 0, 81, 0
1, 6696, Note_on_c, 0, 79, 75
1, 6708, Note_on_c, 0, 79, 0
1, 6708, Note_on_c, 0, 77, 75
1, 6720, Note_on_c, 0, 77, 0
1, 6720, Note_on_c, 0, 75, 75
1, 6740, Note_on_c, 0, 75, 0
1, 6744, Note_on_c, 1, 74, 64
1, 6744, Note_on_c, 1, 67, 64
1, 6754, Note_on_c, 1, 74, 0
1, 6754, Note_on_c, 1, 67, 0
1, 6768, Note_on_c, 1, 74, 64
1, 6768, Note_on_c, 1, 67, 64
1, 6778, Note_on_c, 1, 74, 0
1, 6778, Note_on_c, 1, 67, 0
1, 6792, Note_on_c, 1, 74, 64
1, 6792, Note_on_c, 1, 67, 64
1, 6802, Note_on_c, 1, 74, 0
1, 6802, Note_on_c, 1, 67, 0
1, 6816, Note_on_c, 1, 72, 64
1, 6816, Note_on_c, 1, 69, 64
1, 6840, Note_on_c, 0, 84, 75
1, 6852, Note_on_c, 0, 84, 0
1, 6852, Note_on_c, 0, 82, 75
1, 6861, Note_on_c, 1, 72, 0
1, 6861, Note_on_c, 1, 69, 0
1, 6864, Note_on_c, 0, 82, 0
1, 6864, Note_on_c, 0, 81, 75
1, 6876, Note_on_c, 0, 81, 0
1, 6876, Note_on_c, 0, 79, 75
1, 6888, Note_on_c, 0, 79, 0
1, 6888, Note_on_c, 0, 77, 75
1, 6900, Note_on_c, 0, 77, 0
1, 6900, Note_on_c, 0, 75, 75
1, 6912, Note_on_c, 0, 75, 0
1, 6912, Note_on_c, 0, 74, 75
1, 6932, Note_on_c, 0, 74, 0
1, 6936, Note_on_c, 1, 72, 64
1, 6936, Note_on_c, 1, 66, 64
1, 6946, Note_on_c, 1, 72, 0
1, 6946, Note_on_c, 1, 66, 0
1, 6960, Note_on_c, 1, 72, 64
1, 6960, Note_on_c, 1, 66, 64
1, 6970, Note_on_c, 1, 72, 0
1, 6970, Note_on_c, 1, 66, 0
1, 6984, Note_on_c, 1, 72, 64
1, 6984, Note_on_c, 1, 66, 64
1, 6994, Note_on_c, 1, 72, 0
1, 6994, Note_on_c, 1, 66, 0
1, 7008, Note_on_c, 1, 70, 64
1, 7008, Note_on_c, 1, 67, 64
1, 7032, Note_on_c, 0, 82, 75
1, 7044, Note_on_c, 0, 82, 0
1, 7044, Note_on_c, 0, 81, 75
1, 7053, Note_on_c, 1, 70, 0
1, 7053, Note_on_c, 1, 67, 0
1, 7056, Note_on_c, 0, 81, 0
1, 7056, Note_on_c, 0, 79, 75
1, 7068, Note_on_c, 0, 79, 0
1, 7068, Note_on_c, 0, 77, 75
1, 7080, Note_on_c, 0, 77, 0
1, 7080, Note_on_c, 0, 75, 75
1, 7092, Note_on_c, 0, 75, 0
1, 7092, Note_on_c, 0, 74, 75
1, 7104, Note_on_c, 0, 74, 0
1, 7104, Note_on_c, 0, 72, 75
1, 7128, Note_on_c, 1, 70, 64
1, 7149, Note_on_c, 0, 72, 0
1, 7152, Note_on_c, 1, 70, 0
1, 7152, Note_on_c, 1, 64, 64
1, 7175, Note_on_c, 1, 64, 0
1, 7176, Note_on_c, 0, 82, 75
1, 7200, Note_on_c, 0, 82, 0
1, 7200, Note_on_c, 0, 74, 75
1, 7223, Note_on_c, 0, 74, 0
1, 7224, Note_on_c, 1, 70, 64
1, 7248, Note_on_c, 1, 70, 0
1, 7248, Note_on_c, 1, 65, 64
1, 7271, Note_on_c, 1, 65, 0
1, 7272, Note_on_c, 0, 82, 76
1, 7296, Note_on_c, 0, 82, 0
1, 7296, Note_on_c, 0, 75, 76
1, 7319, Note_on_c, 0, 75, 0
1, 7320, Note_on_c, 1, 70, 64
1, 7344, Note_on_c, 1, 70, 0
1, 7344, Note_on_c, 1, 67, 64
1, 7367, Note_on_c, 1, 67, 0
1, 7368, Note_on_c, 0, 82, 77
1, 7392, Note_on_c, 0, 82, 0
1, 7392, Note_on_c, 0, 74, 77
1, 7415, Note_on_c, 0, 74, 0
1, 7416, Note_on_c, 1, 70, 64
1, 7440, Note_on_c, 1, 70, 0
1, 7440, Note_on_c, 1, 65, 64
1, 7463, Note_on_c, 1, 65, 0
1, 7464, Note_on_c, 0, 82, 77
1, 7487, Note_on_c, 0, 82, 0
1, 7488, Note_on_c, 0, 72, 78
1, 7488, Note_on_c, 1, 64, 64
1, 7500, Note_on_c, 0, 72, 0
1, 7500, Note_on_c, 0, 82, 78
1, 7511, Note_on_c, 1, 64, 0
1, 7512, Note_on_c, 0, 82, 0
1, 7512, Note_on_c, 0, 73, 78
1, 7512, Note_on_c, 1, 65, 64
1, 7524, Note_on_c, 0, 73, 0
1, 7524, Note_on_c, 0, 82, 78
1, 7535, Note_on_c, 1, 65, 0
1, 7536, Note_on_c, 0, 82, 0
1, 7536, Note_on_c, 0, 72, 78
1, 7536, Note_on_c, 1, 64, 64
1, 7548, Note_on_c, 0, 72, 0
1, 7548, Note_on_c, 0, 82, 78
1, 7559, Note_on_c, 1, 64, 0
1, 7560, Note_on_c, 0, 82, 0
1, 7560, Note_on_c, 0, 73, 78
1, 7560, Note_on_c, 1, 65, 64
1, 7572, Note_on_c, 0, 73, 0
1, 7572, Note_on_c, 0, 82, 78
1, 7583, Note_on_c, 1, 65, 0
1, 7584, Note_on_c, 0, 82, 0
1, 7584, Note_on_c, 0, 72, 79
1, 7584, Note_on_c, 1, 64, 64
1, 7607, Note_on_c, 0, 72, 0
1, 7608, Note_on_c, 0, 82, 79
1, 7629, Note_on_c, 1, 64, 0
1, 7631, Note_on_c, 0, 82, 0
1, 7632, Note_on_c, 0, 82, 79
1, 7655, Note_on_c, 0, 82, 0
1, 7656, Note_on_c, 0, 82, 79
1, 7656, Note_on_c, 1, 72, 64
1, 7656, Note_on_c, 1, 64, 64
1, 7679, Note_on_c, 0, 82, 0
1, 7680, Note_on_c, 0, 82, 80
1, 7680, Note_on_c, 1, 72, 0
1, 7680, Note_on_c, 1, 64, 0
1, 7680, Note_on_c, 1, 72, 64
1, 7680, Note_on_c, 1, 65, 64
1, 7692, Note_on_c, 0, 82, 0
1, 7692, Note_on_c, 0, 81, 80
1, 7703, Note_on_c, 0, 81, 0
1, 7704, Note_on_c, 0, 79, 80
1, 7716, Note_on_c, 0, 79, 0
1, 7716, Note_on_c, 0, 77, 80
1, 7725, Note_on_c, 1, 72, 0
1, 7725, Note_on_c, 1, 65, 0
1, 7728, Note_on_c, 0, 77, 0
1, 7728, Note_on_c, 0, 77, 80
1, 7738, Note_on_c, 0, 77, 0
1, 7752, Note_on_c, 0, 82, 80
1, 7752, Note_on_c, 1, 72, 64
1, 7752, Note_on_c, 1, 64, 64
1, 7775, Note_on_c, 0, 82, 0
1, 7776, Note_on_c, 0, 82, 80
1, 7776, Note_on_c, 1, 72, 0
1, 7776, Note_on_c, 1, 64, 0
1, 7776, Note_on_c, 1, 72, 64
1, 7776, Note_on_c, 1, 65, 64
1, 7788, Note_on_c, 0, 82, 0
1, 7788, Note_on_c, 0, 81, 80
1, 7799, Note_on_c, 0, 81, 0
1, 7800, Note_on_c, 0, 79, 80
1, 7812, Note_on_c, 0, 79, 0
1, 7812, Note_on_c, 0, 77, 80
1, 7821, Note_on_c, 1, 72, 0
1, 7821, Note_on_c, 1, 65, 0
1, 7824, Note_on_c, 0, 77, 0
1, 7824, Note_on_c, 0, 77, 80
1, 7834, Note_on_c, 0, 77, 0
1, 7848, Note_on_c, 0, 82, 80
1, 7848, Note_on_c, 1, 72, 64
1, 7848, Note_on_c, 1, 64, 64
1, 7871, Note_on_c, 0, 82, 0
1, 7871, Note_on_c, 1, 72, 0
1, 7871, Note_on_c, 1, 64, 0
1, 7872, Note_on_c, 0, 82, 80
1, 7872, Note_on_c, 1, 72, 64
1, 7872, Note_on_c, 1, 65, 64
1, 7884, Note_on_c, 0, 82, 0
1, 7884, Note_on_c, 0, 81, 80
1, 7895, Note_on_c, 0, 81, 0
1, 7896, Note_on_c, 0, 79, 78
1, 7908, Note_on_c, 0, 79, 0
1, 7908, Note_on_c, 0, 77, 78
1, 7917, Note_on_c, 1, 72, 0
1, 7917, Note_on_c, 1, 65, 0
1, 7920, Note_on_c, 0, 77, 0
1, 7920, Note_on_c, 0, 77, 77
1, 7940, Note_on_c, 0, 77, 0
1, 7944, Note_on_c, 1, 43, 75
1, 7956, Note_on_c, 1, 43, 0
1, 7956, Note_on_c, 1, 55, 75
1, 7968, Note_on_c, 1, 55, 0
1, 7968, Note_on_c, 1, 41, 76
1, 7980, Note_on_c, 1, 41, 0
1, 7980, Note_on_c, 1, 53, 76
1, 7992, Note_on_c, 1, 53, 0
1, 7992, Note_on_c, 1, 39, 77
1, 8004, Note_on_c, 1, 39, 0
1, 8004, Note_on_c, 1, 51, 77
1, 8016, Note_on_c, 1, 51, 0
1, 8016, Note_on_c, 1, 38, 78
1, 8028, Note_on_c, 1, 38, 0
1, 8028, Note_on_c, 1, 50, 78
1, 8040, Note_on_c, 1, 50, 0
1, 8040, Note_on_c, 1, 36, 79
1, 8052, Note_on_c, 1, 36, 0
1, 8052, Note_on_c, 1, 48, 80
1, 8064, Note_on_c, 0, 70, 80
1, 8064, Note_on_c, 0, 62, 80
1, 8064, Note_on_c, 1, 48, 0
1, 8064, Note_on_c, 1, 34, 80
1, 8087, Note_on_c, 1, 34, 0
1, 8088, Note_on_c, 1, 46, 80
1, 8111, Note_on_c, 1, 46, 0
1, 8112, Note_on_c, 1, 46, 80
1, 8131, Note_on_c, 0, 70, 0
1, 8131, Note_on_c, 0, 62, 0
1, 8135, Note_on_c, 1, 46, 0
1, 8136, Note_on_c, 0, 75, 80
1, 8136, Note_on_c, 0, 67, 80
1, 8136, Note_on_c, 1, 46, 80
1, 8159, Note_on_c, 0, 75, 0
1, 8159, Note_on_c, 0, 67, 0
1, 8159, Note_on_c, 1, 46, 0
1, 8160, Note_on_c, 0, 75, 80
1, 8160, Note_on_c, 0, 67, 80
1, 8160, Note_on_c, 1, 46, 80
1, 8183, Note_on_c, 1, 46, 0
1, 8184, Note_on_c, 0, 75, 0
1, 8184, Note_on_c, 0, 67, 0
1, 8184, Note_on_c, 0, 74, 80
1, 8184, Note_on_c, 0, 65, 80
1, 8184, Note_on_c, 1, 46, 80
1, 8207, Note_on_c, 0, 74, 0
1, 8207, Note_on_c, 0, 65, 0
1, 8207, Note_on_c, 1, 46, 0
1, 8208, Note_on_c, 0, 74, 80
1, 8208, Note_on_c, 0, 65, 80
1, 8208, Note_on_c, 1, 46, 80
1, 8231, Note_on_c, 1, 46, 0
1, 8232, Note_on_c, 0, 74, 0
1, 8232, Note_on_c, 0, 65, 0
1, 8232, Note_on_c, 0, 72, 80
1, 8232, Note_on_c, 0, 63, 80
1, 8232, Note_on_c, 1, 46, 80
1, 8255, Note_on_c, 0, 72, 0
1, 8255, Note_on_c, 0, 63, 0
1, 8255, Note_on_c, 1, 46, 0
1, 8256, Note_on_c, 0, 70, 80
1, 8256, Note_on_c, 0, 62, 80
1, 8256, Note_on_c, 1, 34, 80
1, 8279, Note_on_c, 1, 34, 0
1, 8280, Note_on_c, 1, 46, 80
1, 8303, Note_on_c, 1, 46, 0
1, 8304, Note_on_c, 1, 46, 80
1, 8323, Note_on_c, 0, 70, 0
1, 8323, Note_on_c, 0, 62, 0
1, 8327, Note_on_c, 1, 46, 0
1, 8328, Note_on_c, 0, 79, 80
1, 8328, Note_on_c, 0, 75, 80
1, 8328, Note_on_c, 1, 46, 80
1, 8351, Note_on_c, 0, 79, 0
1, 8351, Note_on_c, 0, 75, 0
1, 8351, Note_on_c, 1, 46, 0
1, 8352, Note_on_c, 0, 79, 80
1, 8352, Note_on_c, 0, 75, 80
1, 8352, Note_on_c, 1, 46, 80
1, 8375, Note_on_c, 1, 46, 0
1, 8376, Note_on_c, 0, 79, 0
1, 8376, Note_on_c, 0, 75, 0
1, 8376, Note_on_c, 0, 77, 80
1, 8376, Note_on_c, 0, 74, 80
1, 8376, Note_on_c, 1, 46, 80
1, 8399, Note_on_c, 0, 77, 0
1, 8399, Note_on_c, 0, 74, 0
1, 8399, Note_on_c, 1, 46, 0
1, 8400, Note_on_c, 0, 77, 80
1, 8400, Note_on_c, 0, 74, 80
1, 8400, Note_on_c, 1, 46, 80
1, 8423, Note_on_c, 1, 46, 0
1, 8424, Note_on_c, 0, 77, 0
1, 8424, Note_on_c, 0, 74, 0
1, 8424, Note_on_c, 0, 75, 80
1, 8424, Note_on_c, 0, 72, 80
1, 8424, Note_on_c, 1, 46, 80
1, 8447, Note_on_c, 0, 75, 0
1, 8447, Note_on_c, 0, 72, 0
1, 8447, Note_on_c, 1, 46, 0
1, 8448, Note_on_c, 0, 74, 80
1, 8448, Note_on_c, 0, 70, 80
1, 8448, Note_on_c, 1, 34, 80
1, 8471, Note_on_c, 1, 34, 0
1, 8472, Note_on_c, 1, 46, 80
1, 8495, Note_on_c, 1, 46, 0
1, 8496, Note_on_c, 1, 46, 80
1, 8515, Note_on_c, 0, 74, 0
1, 8515, Note_on_c, 0, 70, 0
1, 8516, Note_on_c, 1, 46, 0
1, 8520, Note_on_c, 0, 82, 80
1, 8520, Note_on_c, 0, 79, 80
1, 8543, Note_on_c, 0, 82, 0
1, 8543, Note_on_c, 0, 79, 0
1, 8544, Note_on_c, 0, 82, 80
1, 8544, Note_on_c, 0, 79, 80
1, 8568, Note_on_c, 0, 82, 0
1, 8568, Note_on_c, 0, 79, 0
1, 8568, Note_on_c, 0, 81, 80
1, 8568, Note_on_c, 0, 77, 80
1, 8591, Note_on_c, 0, 81, 0
1, 8591, Note_on_c, 0, 77, 0
1, 8592, Note_on_c, 0, 81, 80
1, 8592, Note_on_c, 0, 77, 80
1, 8616, Note_on_c, 0, 81, 0
1, 8616, Note_on_c, 0, 77, 0
1, 8616, Note_on_c, 0, 79, 80
1, 8616, Note_on_c, 0, 75, 80
1, 8639, Note_on_c, 0, 79, 0
1, 8639, Note_on_c, 0, 75, 0
1, 8640, Note_on_c, 0, 77, 75
1, 8640, Note_on_c, 0, 74, 75
1, 8640, Note_on_c, 1, 70, 80
1, 8663, Note_on_c, 1, 70, 0
1, 8664, Note_on_c, 1, 70, 80
1, 8687, Note_on_c, 1, 70, 0
1, 8688, Note_on_c, 1, 70, 80
1, 8711, Note_on_c, 1, 70, 0
1, 8712, Note_on_c, 1, 70, 80
1, 8729, Note_on_c, 0, 77, 0
1, 8729, Note_on_c, 0, 74, 0
1, 8735, Note_on_c, 1, 70, 0
1, 8736, Note_on_c, 0, 62, 77
1, 8740, Note_on_c, 0, 65, 77
1, 8744, Note_on_c, 0, 68, 77
1, 8748, Note_on_c, 0, 71, 77
1, 8752, Note_on_c, 0, 77, 77
1, 8756, Note_on_c, 0, 80, 77
1, 8760, Note_on_c, 0, 83, 77
1, 8764, Note_on_c, 0, 86, 77
1, 8825, Note_on_c, 0, 86, 0
1, 8825, Note_on_c, 0, 83, 0
1, 8825, Note_on_c, 0, 80, 0
1, 8825, Note_on_c, 0, 77, 0
1, 8825, Note_on_c, 0, 71, 0
1, 8825, Note_on_c, 0, 68, 0
1, 8825, Note_on_c, 0, 65, 0
1, 8825, Note_on_c, 0, 62, 0
1, 8832, Note_on_c, 0, 72, 80
1, 8832, Note_on_c, 1, 72, 80
1, 8844, Note_on_c, 0, 72, 0
1, 8844, Note_on_c, 0, 74, 80
1, 8844, Note_on_c, 1, 72, 0
1, 8844, Note_on_c, 1, 74, 80
1, 8856, Note_on_c, 0, 74, 0
1, 8856, Note_on_c, 0, 75, 81
1, 8856, Note_on_c, 1, 74, 0
1, 8856, Note_on_c, 1, 75, 80
1, 8868, Note_on_c, 0, 75, 0
1, 8868, Note_on_c, 0, 77, 82
1, 8868, Note_on_c, 1, 75, 0
1, 8868, Note_on_c, 1, 77, 80
1, 8880, Note_on_c, 0, 77, 0
1, 8880, Note_on_c, 0, 79, 83
1, 8880, Note_on_c, 1, 77, 0
1, 8892, Note_on_c, 0, 79, 0
1, 8892, Note_on_c, 0, 81, 83
1, 8904, Note_on_c, 0, 81, 0
1, 8904, Note_on_c, 0, 83, 84
1, 8916, Note_on_c, 0, 83, 0
1, 8916, Note_on_c, 0, 84, 85
1, 8922, Note_on_c, 0, 84, 0
1, 8922, Note_on_c, 0, 86, 85
1, 8928, Note_on_c, 0, 86, 0
1, 8928, Note_on_c, 0, 87, 86
1, 8948, Note_on_c, 0, 87, 0
1, 9000, Note_on_c, 0, 79, 80
1, 9008, Note_on_c, 0, 79, 0
1, 9008, Note_on_c, 0, 75, 80
1, 9016, Note_on_c, 0, 75, 0
1, 9016, Note_on_c, 0, 72, 80
1, 9024, Note_on_c, 0, 72, 0
1, 9024, Note_on_c, 0, 70, 80
1, 9072, Note_on_c, 1, 61, 76
1, 9072, Note_on_c, 1, 52, 76
1, 9117, Note_on_c, 1, 61, 0
1, 9117, Note_on_c, 1, 52, 0
1, 9120, Note_on_c, 1, 62, 73
1, 9120, Note_on_c, 1, 53, 73
1, 9157, Note_on_c, 0, 70, 0
1, 9168, Note_on_c, 0, 74, 70
1, 9168, Note_on_c, 1, 62, 0
1, 9168, Note_on_c, 1, 63, 70
1, 9174, Note_on_c, 0, 74, 0
1, 9174, Note_on_c, 0, 72, 70
1, 9191, Note_on_c, 0, 72, 0
1, 9192, Note_on_c, 0, 70, 68
1, 9213, Note_on_c, 1, 63, 0
1, 9213, Note_on_c, 1, 53, 0
1, 9215, Note_on_c, 0, 70, 0
1, 9216, Note_on_c, 0, 70, 67
1, 9216, Note_on_c, 1, 62, 67
1, 9216, Note_on_c, 1, 55, 67
1, 9261, Note_on_c, 0, 70, 0
1, 9261, Note_on_c, 1, 62, 0
1, 9261, Note_on_c, 1, 55, 0
1, 9288, Note_on_c, 0, 62, 80
1, 9288, Note_on_c, 1, 50, 80
1, 9300, Note_on_c, 0, 62, 0
1, 9300, Note_on_c, 0, 70, 80
1, 9311, Note_on_c, 1, 50, 0
1, 9312, Note_on_c, 0, 70, 0
1, 9312, Note_on_c, 0, 63, 80
1, 9312, Note_on_c, 1, 51, 80
1, 9324, Note_on_c, 0, 63, 0
1, 9324, Note_on_c, 0, 70, 80
1, 9335, Note_on_c, 1, 51, 0
1, 9336, Note_on_c, 0, 70, 0
1, 9336, Note_on_c, 0, 62, 80
1, 9336, Note_on_c, 1, 50, 80
1, 9348, Note_on_c, 0, 62, 0
1, 9348, Note_on_c, 0, 70, 81
1, 9359, Note_on_c, 1, 50, 0
1, 9360, Note_on_c, 0, 70, 0
1, 9360, Note_on_c, 0, 63, 81
1, 9360, Note_on_c, 1, 51, 81
1, 9372, Note_on_c, 0, 63, 0
1, 9372, Note_on_c, 0, 70, 82
1, 9383, Note_on_c, 1, 51, 0
1, 9384, Note_on_c, 0, 70, 0
1, 9384, Note_on_c, 0, 64, 82
1, 9384, Note_on_c, 1, 52, 82
1, 9396, Note_on_c, 0, 64, 0
1, 9396, Note_on_c, 0, 70, 82
1, 9407, Note_on_c, 1, 52, 0
1, 9408, Note_on_c, 0, 70, 0
1, 9408, Note_on_c, 0, 65, 83
1, 9408, Note_on_c, 1, 53, 83
1, 9420, Note_on_c, 0, 65, 0
1, 9420, Note_on_c, 0, 70, 83
1, 9431, Note_on_c, 1, 53, 0
1, 9432, Note_on_c, 0, 70, 0
1, 9432, Note_on_c, 0, 64, 84
1, 9432, Note_on_c, 1, 52, 83
1, 9444, Note_on_c, 0, 64, 0
1, 9444, Note_on_c, 0, 70, 84
1, 9455, Note_on_c, 1, 52, 0
1, 9456, Note_on_c, 0, 70, 0
1, 9456, Note_on_c, 0, 65, 84
1, 9456, Note_on_c, 1, 53, 84
1, 9468, Note_on_c, 0, 65, 0
1, 9468, Note_on_c, 0, 70, 85
1, 9479, Note_on_c, 1, 53, 0
1, 9480, Note_on_c, 0, 70, 0
1, 9480, Note_on_c, 0, 62, 85
1, 9480, Note_on_c, 1, 50, 85
1, 9492, Note_on_c, 0, 62, 0
1, 9492, Note_on_c, 0, 70, 86
1, 9503, Note_on_c, 1, 50, 0
1, 9504, Note_on_c, 0, 70, 0
1, 9504, Note_on_c, 0, 63, 84
1, 9504, Note_on_c, 1, 51, 86
1, 9516, Note_on_c, 0, 63, 0
1, 9516, Note_on_c, 0, 70, 83
1, 9527, Note_on_c, 1, 51, 0
1, 9528, Note_on_c, 0, 70, 0
1, 9528, Note_on_c, 0, 64, 82
1, 9528, Note_on_c, 1, 52, 83
1, 9540, Note_on_c, 0, 64, 0
1, 9540, Note_on_c, 0, 70, 81
1, 9551, Note_on_c, 1, 52, 0
1, 9552, Note_on_c, 0, 70, 0
1, 9552, Note_on_c, 0, 65, 80
1, 9552, Note_on_c, 1, 53, 81
1, 9564, Note_on_c, 0, 65, 0
1, 9564, Note_on_c, 0, 70, 79
1, 9575, Note_on_c, 1, 53, 0
1, 9576, Note_on_c, 0, 70, 0
1, 9576, Note_on_c, 0, 66, 78
1, 9576, Note_on_c, 1, 54, 79
1, 9588, Note_on_c, 0, 66, 0
1, 9588, Note_on_c, 0, 70, 77
1, 9599, Note_on_c, 1, 54, 0
1, 9600, Note_on_c, 0, 70, 0
1, 9600, Note_on_c, 0, 67, 76
1, 9600, Note_on_c, 1, 55, 76
1, 9612, Note_on_c, 0, 67, 0
1, 9612, Note_on_c, 0, 70, 75
1, 9623, Note_on_c, 1, 55, 0
1, 9624, Note_on_c, 0, 70, 0
1, 9624, Note_on_c, 0, 66, 74
1, 9624, Note_on_c, 1, 54, 74
1, 9636, Note_on_c, 0, 66, 0
1, 9636, Note_on_c, 0, 70, 73
1, 9647, Note_on_c, 1, 54, 0
1, 9648, Note_on_c, 0, 70, 0
1, 9648, Note_on_c, 0, 67, 72
1, 9648, Note_on_c, 1, 55, 72
1, 9671, Note_on_c, 0, 67, 0
1, 9671, Note_on_c, 1, 55, 0
1, 9672, Note_on_c, 0, 79, 70
1, 9672, Note_on_c, 0, 75, 70
1, 9672, Note_on_c, 1, 51, 70
1, 9695, Note_on_c, 0, 79, 0
1, 9695, Note_on_c, 0, 75, 0
1, 9695, Note_on_c, 1, 51, 0
1, 9696, Note_on_c, 0, 79, 70
1, 9696, Note_on_c, 0, 75, 70
1, 9696, Note_on_c, 1, 53, 70
1, 9720, Note_on_c, 0, 79, 0
1, 9720, Note_on_c, 0, 75, 0
1, 9720, Note_on_c, 0, 77, 70
1, 9720, Note_on_c, 0, 74, 70
1, 9741, Note_on_c, 1, 53, 0
1, 9743, Note_on_c, 0, 77, 0
1, 9743, Note_on_c, 0, 74, 0
1, 9744, Note_on_c, 1, 41, 70
1, 9768, Note_on_c, 0, 69, 70
1, 9768, Note_on_c, 0, 63, 70
1, 9789, Note_on_c, 1, 41, 0
1, 9791, Note_on_c, 0, 69, 0
1, 9791, Note_on_c, 0, 63, 0
1, 9792, Note_on_c, 0, 69, 70
1, 9792, Note_on_c, 0, 63, 70
1, 9792, Note_on_c, 1, 55, 70
1, 9816, Note_on_c, 0, 69, 0
1, 9816, Note_on_c, 0, 63, 0
1, 9816, Note_on_c, 0, 70, 70
1, 9816, Note_on_c, 0, 62, 70
1, 9837, Note_on_c, 1, 55, 0
1, 9839, Note_on_c, 0, 70, 0
1, 9839, Note_on_c, 0, 62, 0
1, 9840, Note_on_c, 1, 51, 70
1, 9864, Note_on_c, 0, 79, 70
1, 9864, Note_on_c, 0, 75, 70
1, 9885, Note_on_c, 1, 51, 0
1, 9887, Note_on_c, 0, 79, 0
1, 9887, Note_on_c, 0, 75, 0
1, 9888, Note_on_c, 0, 79, 70
1, 9888, Note_on_c, 0, 75, 70
1, 9888, Note_on_c, 1, 53, 70
1, 9912, Note_on_c, 0, 79, 0
1, 9912, Note_on_c, 0, 75, 0
1, 9912, Note_on_c, 0, 77, 70
1, 9912, Note_on_c, 0, 74, 70
1, 9933, Note_on_c, 1, 53, 0
1, 9935, Note_on_c, 0, 77, 0
1, 9935, Note_on_c, 0, 74, 0
1, 9936, Note_on_c, 1, 41, 70
1, 9960, Note_on_c, 0, 69, 75
1, 9960, Note_on_c, 0, 63, 75
1, 9981, Note_on_c, 1, 41, 0
1, 9983, Note_on_c, 0, 69, 0
1, 9983, Note_on_c, 0, 63, 0
1, 9984, Note_on_c, 0, 70, 75
1, 9984, Note_on_c, 1, 62, 75
1, 9984, Note_on_c, 1, 58, 75
1, 9996, Note_on_c, 0, 70, 0
1, 9996, Note_on_c, 0, 77, 75
1, 10008, Note_on_c, 0, 77, 0
1, 10008, Note_on_c, 0, 74, 75
1, 10020, Note_on_c, 0, 74, 0
1, 10020, Note_on_c, 0, 70, 75
1, 10029, Note_on_c, 1, 62, 0
1, 10029, Note_on_c, 1, 58, 0
1, 10032, Note_on_c, 0, 70, 0
1, 10032, Note_on_c, 0, 65, 75
1, 10044, Note_on_c, 0, 65, 0
1, 10044, Note_on_c, 0, 70, 75
1, 10056, Note_on_c, 0, 70, 0
1, 10056, Note_on_c, 0, 69, 75
1, 10056, Note_on_c, 1, 63, 75
1, 10068, Note_on_c, 0, 69, 0
1, 10068, Note_on_c, 0, 72, 75
1, 10079, Note_on_c, 1, 63, 0
1, 10080, Note_on_c, 0, 72, 0
1, 10080, Note_on_c, 0, 70, 75
1, 10080, Note_on_c, 1, 62, 75
1, 10092, Note_on_c, 0, 70, 0
1, 10092, Note_on_c, 0, 77, 75
1, 10104, Note_on_c, 0, 77, 0
1, 10104, Note_on_c, 0, 74, 75
1, 10116, Note_on_c, 0, 74, 0
1, 10116, Note_on_c, 0, 70, 75
1, 10125, Note_on_c, 1, 62, 0
1, 10128, Note_on_c, 0, 70, 0
1, 10128, Note_on_c, 0, 65, 75
1, 10140, Note_on_c, 0, 65, 0
1, 10140, Note_on_c, 0, 70, 75
1, 10152, Note_on_c, 0, 70, 0
1, 10152, Note_on_c, 0, 69, 75
1, 10152, Note_on_c, 1, 63, 75
1, 10164, Note_on_c, 0, 69, 0
1, 10164, Note_on_c, 0, 72, 75
1, 10175, Note_on_c, 1, 63, 0
1, 10176, Note_on_c, 0, 72, 0
1, 10176, Note_on_c, 0, 70, 75
1, 10176, Note_on_c, 1, 62, 75
1, 10221, Note_on_c, 0, 70, 0
1, 10221, Note_on_c, 1, 62, 0
1, 10224, Note_on_c, 0, 86, 75
1, 10224, Note_on_c, 0, 82, 75
1, 10269, Note_on_c, 0, 86, 0
1, 10269, Note_on_c, 0, 82, 0
1, 10368, Note_on_c, 0, 63, 64
1, 10368, Note_on_c, 1, 51, 64
1, 10368, Note_on_c, 1, 39, 64
1, 10457, Note_on_c, 0, 63, 0
1, 10464, Note_on_c, 0, 55, 64
1, 10487, Note_on_c, 0, 55, 0
1, 10488, Note_on_c, 0, 57, 64
1, 10496, Note_on_c, 0, 57, 0
1, 10496, Note_on_c, 0, 55, 64
1, 10504, Note_on_c, 0, 55, 0
1, 10504, Note_on_c, 0, 53, 64
1, 10512, Note_on_c, 0, 53, 0
1, 10512, Note_on_c, 0, 55, 64
1, 10535, Note_on_c, 0, 55, 0
1, 10536, Note_on_c, 0, 57, 64
1, 10545, Note_on_c, 1, 51, 0
1, 10545, Note_on_c, 1, 39, 0
1, 10559, Note_on_c, 0, 57, 0
1, 10560, Note_on_c, 0, 58, 64
1, 10560, Note_on_c, 1, 50, 64
1, 10560, Note_on_c, 1, 38, 64
1, 10580, Note_on_c, 0, 58, 0
1, 10608, Note_on_c, 0, 58, 64
1, 10628, Note_on_c, 0, 58, 0
1, 10656, Note_on_c, 0, 58, 64
1, 10701, Note_on_c, 0, 58, 0
1, 10704, Note_on_c, 0, 57, 64
1, 10716, Note_on_c, 0, 57, 0
1, 10716, Note_on_c, 0, 58, 64
1, 10728, Note_on_c, 0, 58, 0
1, 10728, Note_on_c, 0, 60, 64
1, 10737, Note_on_c, 1, 50, 0
1, 10737, Note_on_c, 1, 38, 0
1, 10740, Note_on_c, 0, 60, 0
1, 10740, Note_on_c, 0, 58, 64
1, 10752, Note_on_c, 0, 58, 0
1, 10752, Note_on_c, 0, 63, 64
1, 10752, Note_on_c, 1, 48, 64
1, 10752, Note_on_c, 1, 36, 64
1, 10772, Note_on_c, 0, 63, 0
1, 10791, Note_on_c, 1, 48, 0
1, 10791, Note_on_c, 1, 36, 0
1, 10800, Note_on_c, 0, 63, 67
1, 10820, Note_on_c, 0, 63, 0
1, 10848, Note_on_c, 0, 63, 71
1, 10848, Note_on_c, 1, 45, 64
1, 10848, Note_on_c, 1, 33, 64
1, 10887, Note_on_c, 1, 45, 0
1, 10887, Note_on_c, 1, 33, 0
1, 10893, Note_on_c, 0, 63, 0
1, 10896, Note_on_c, 0, 67, 75
1, 10908, Note_on_c, 0, 67, 0
1, 10908, Note_on_c, 0, 65, 75
1, 10941, Note_on_c, 0, 65, 0
1, 10944, Note_on_c, 0, 63, 72
1, 10944, Note_on_c, 1, 46, 64
1, 10944, Note_on_c, 1, 34, 64
1, 10983, Note_on_c, 1, 46, 0
1, 10983, Note_on_c, 1, 34, 0
1, 11040, Note_on_c, 1, 58, 64
1, 11079, Note_on_c, 1, 58, 0
1, 11088, Note_on_c, 0, 63, 0
1, 11088, Note_on_c, 0, 62, 66
1, 11133, Note_on_c, 0, 62, 0
1, 11136, Note_on_c, 0, 60, 80
1, 11172, Note_on_c, 1, 52, 64
1, 11184, Note_on_c, 1, 52, 0
1, 11184, Note_on_c, 1, 55, 64
1, 11218, Note_on_c, 1, 55, 0
1, 11220, Note_on_c, 1, 58, 64
1, 11232, Note_on_c, 1, 58, 0
1, 11232, Note_on_c, 1, 58, 64
1, 11266, Note_on_c, 0, 60, 0
1, 11268, Note_on_c, 0, 64, 64
1, 11280, Note_on_c, 0, 64, 0
1, 11280, Note_on_c, 0, 65, 64
1, 11280, Note_on_c, 1, 58, 0
1, 11280, Note_on_c, 1, 56, 64
1, 11314, Note_on_c, 0, 65, 0
1, 11316, Note_on_c, 0, 68, 64
1, 11325, Note_on_c, 1, 56, 0
1, 11328, Note_on_c, 0, 68, 0
1, 11328, Note_on_c, 0, 58, 80
1, 11364, Note_on_c, 1, 50, 64
1, 11376, Note_on_c, 1, 50, 0
1, 11376, Note_on_c, 1, 53, 64
1, 11410, Note_on_c, 1, 53, 0
1, 11412, Note_on_c, 1, 56, 64
1, 11424, Note_on_c, 1, 56, 0
1, 11424, Note_on_c, 1, 56, 64
1, 11458, Note_on_c, 0, 58, 0
1, 11460, Note_on_c, 0, 62, 64
1, 11472, Note_on_c, 0, 62, 0
1, 11472, Note_on_c, 0, 63, 64
1, 11472, Note_on_c, 1, 56, 0
1, 11472, Note_on_c, 1, 55, 64
1, 11506, Note_on_c, 0, 63, 0
1, 11508, Note_on_c, 0, 67, 64
1, 11517, Note_on_c, 1, 55, 0
1, 11520, Note_on_c, 0, 67, 0
1, 11520, Note_on_c, 0, 67, 64
1, 11568, Note_on_c, 0, 67, 0
1, 11568, Note_on_c, 0, 60, 67
1, 11568, Note_on_c, 1, 44, 64
1, 11602, Note_on_c, 0, 60, 0
1, 11604, Note_on_c, 0, 68, 69
1, 11613, Note_on_c, 1, 44, 0
1, 11616, Note_on_c, 0, 68, 0
1, 11616, Note_on_c, 0, 68, 70
1, 11664, Note_on_c, 1, 56, 64
1, 11664, Note_on_c, 1, 46, 64
1, 11683, Note_on_c, 0, 68, 0
1, 11688, Note_on_c, 0, 65, 70
1, 11700, Note_on_c, 0, 65, 0
1, 11700, Note_on_c, 0, 62, 69
1, 11709, Note_on_c, 1, 56, 0
1, 11709, Note_on_c, 1, 46, 0
1, 11712, Note_on_c, 0, 62, 0
1, 11712, Note_on_c, 0, 62, 69
1, 11712, Note_on_c, 1, 56, 64
1, 11712, Note_on_c, 1, 51, 64
1, 11808, Note_on_c, 0, 62, 0
1, 11808, Note_on_c, 0, 63, 65
1, 11808, Note_on_c, 1, 56, 0
1, 11808, Note_on_c, 1, 55, 64
1, 11853, Note_on_c, 0, 63, 0
1, 11853, Note_on_c, 1, 55, 0
1, 11853, Note_on_c, 1, 51, 0
1, 11904, Note_on_c, 0, 72, 80
1, 11940, Note_on_c, 1, 64, 64
1, 11952, Note_on_c, 1, 64, 0
1, 11952, Note_on_c, 1, 67, 64
1, 11986, Note_on_c, 1, 67, 0
1, 11988, Note_on_c, 1, 70, 64
1, 12000, Note_on_c, 1, 70, 0
1, 12000, Note_on_c, 1, 70, 64
1, 12034, Note_on_c, 0, 72, 0
1, 12036, Note_on_c, 0, 76, 64
1, 12048, Note_on_c, 0, 76, 0
1, 12048, Note_on_c, 0, 77, 64
1, 12048, Note_on_c, 1, 70, 0
1, 12048, Note_on_c, 1, 68, 64
1, 12082, Note_on_c, 0, 77, 0
1, 12084, Note_on_c, 0, 80, 64
1, 12093, Note_on_c, 1, 68, 0
1, 12096, Note_on_c, 0, 80, 0
1, 12096, Note_on_c, 0, 70, 80
1, 12132, Note_on_c, 1, 62, 64
1, 12144, Note_on_c, 1, 62, 0
1, 12144, Note_on_c, 1, 65, 64
1, 12178, Note_on_c, 1, 65, 0
1, 12180, Note_on_c, 1, 68, 64
1, 12192, Note_on_c, 1, 68, 0
1, 12192, Note_on_c, 1, 68, 64
1, 12226, Note_on_c, 0, 70, 0
1, 12228, Note_on_c, 0, 74, 64
1, 12240, Note_on_c, 0, 74, 0
1, 12240, Note_on_c, 0, 75, 64
1, 12240, Note_on_c, 1, 68, 0
1, 12240, Note_on_c, 1, 67, 64
1, 12274, Note_on_c, 0, 75, 0
1, 12276, Note_on_c, 0, 79, 64
1, 12285, Note_on_c, 1, 67, 0
1, 12288, Note_on_c, 0, 79, 0
1, 12288, Note_on_c, 0, 82, 64
1, 12311, Note_on_c, 0, 82, 0
1, 12312, Note_on_c, 0, 79, 65
1, 12312, Note_on_c, 1, 75, 64
1, 12324, Note_on_c, 0, 79, 0
1, 12324, Note_on_c, 0, 82, 66
1, 12335, Note_on_c, 1, 75, 0
1, 12336, Note_on_c, 0, 82, 0
1, 12336, Note_on_c, 0, 77, 66
1, 12336, Note_on_c, 1, 74, 65
1, 12348, Note_on_c, 0, 77, 0
1, 12348, Note_on_c, 0, 82, 67
1, 12359, Note_on_c, 1, 74, 0
1, 12360, Note_on_c, 0, 82, 0
1, 12360, Note_on_c, 0, 75, 68
1, 12360, Note_on_c, 1, 72, 66
1, 12372, Note_on_c, 0, 75, 0
1, 12372, Note_on_c, 0, 82, 68
1, 12383, Note_on_c, 1, 72, 0
1, 12384, Note_on_c, 0, 82, 0
1, 12384, Note_on_c, 0, 74, 69
1, 12384, Note_on_c, 1, 70, 67
1, 12396, Note_on_c, 0, 74, 0
1, 12396, Note_on_c, 0, 82, 70
1, 12407, Note_on_c, 1, 70, 0
1, 12408, Note_on_c, 0, 82, 0
1, 12408, Note_on_c, 0, 72, 70
1, 12408, Note_on_c, 1, 68, 68
1, 12420, Note_on_c, 0, 72, 0
1, 12420, Note_on_c, 0, 82, 71
1, 12431, Note_on_c, 1, 68, 0
1, 12432, Note_on_c, 0, 82, 0
1, 12432, Note_on_c, 0, 70, 72
1, 12432, Note_on_c, 1, 67, 69
1, 12444, Note_on_c, 0, 70, 0
1, 12444, Note_on_c, 0, 82, 72
1, 12455, Note_on_c, 1, 67, 0
1, 12456, Note_on_c, 0, 82, 0
1, 12456, Note_on_c, 0, 68, 73
1, 12456, Note_on_c, 1, 65, 70
1, 12468, Note_on_c, 0, 68, 0
1, 12468, Note_on_c, 0, 82, 74
1, 12479, Note_on_c, 1, 65, 0
1, 12480, Note_on_c, 0, 82, 0
1, 12480, Note_on_c, 0, 67, 74
1, 12480, Note_on_c, 1, 63, 71
1, 12503, Note_on_c, 0, 67, 0
1, 12504, Note_on_c, 0, 68, 76
1, 12516, Note_on_c, 0, 68, 0
1, 12516, Note_on_c, 0, 70, 76
1, 12528, Note_on_c, 0, 70, 0
1, 12528, Note_on_c, 0, 72, 77
1, 12540, Note_on_c, 0, 72, 0
1, 12540, Note_on_c, 0, 74, 78
1, 12552, Note_on_c, 0, 74, 0
1, 12552, Note_on_c, 0, 75, 78
1, 12564, Note_on_c, 0, 75, 0
1, 12564, Note_on_c, 0, 77, 79
1, 12569, Note_on_c, 1, 63, 0
1, 12576, Note_on_c, 0, 77, 0
1, 12576, Note_on_c, 0, 79, 80
1, 12591, Note_on_c, 0, 79, 0
1, 12612, Note_on_c, 0, 74, 80
1, 12624, Note_on_c, 0, 74, 0
1, 12624, Note_on_c, 0, 75, 80
1, 12630, Note_on_c, 0, 75, 0
1, 12630, Note_on_c, 0, 77, 80
1, 12636, Note_on_c, 0, 77, 0
1, 12636, Note_on_c, 0, 75, 80
1, 12658, Note_on_c, 0, 75, 0
1, 12660, Note_on_c, 0, 71, 80
1, 12672, Note_on_c, 0, 71, 0
1, 12672, Note_on_c, 0, 72, 80
1, 12672, Note_on_c, 1, 56, 75
1, 12717, Note_on_c, 0, 72, 0
1, 12720, Note_on_c, 0, 84, 80
1, 12720, Note_on_c, 0, 80, 80
1, 12761, Note_on_c, 1, 56, 0
1, 12765, Note_on_c, 0, 84, 0
1, 12765, Note_on_c, 0, 80, 0
1, 12804, Note_on_c, 0, 84, 80
1, 12804, Note_on_c, 0, 80, 80
1, 12816, Note_on_c, 0, 84, 0
1, 12816, Note_on_c, 0, 80, 0
1, 12816, Note_on_c, 0, 82, 79
1, 12816, Note_on_c, 0, 79, 79
1, 12850, Note_on_c, 0, 82, 0
1, 12850, Note_on_c, 0, 79, 0
1, 12852, Note_on_c, 0, 80, 76
1, 12852, Note_on_c, 0, 77, 76
1, 12864, Note_on_c, 0, 80, 0
1, 12864, Note_on_c, 0, 77, 0
1, 12864, Note_on_c, 0, 79, 76
1, 12864, Note_on_c, 0, 75, 76
1, 12909, Note_on_c, 0, 79, 0
1, 12909, Note_on_c, 0, 75, 0
1, 12912, Note_on_c, 0, 82, 73
1, 12912, Note_on_c, 0, 79, 73
1, 12957, Note_on_c, 0, 82, 0
1, 12957, Note_on_c, 0, 79, 0
1, 12960, Note_on_c, 1, 58, 75
1, 12980, Note_on_c, 1, 58, 0
1, 13008, Note_on_c, 0, 74, 70
1, 13008, Note_on_c, 0, 68, 70
1, 13053, Note_on_c, 0, 74, 0
1, 13053, Note_on_c, 0, 68, 0
1, 13056, Note_on_c, 0, 75, 70
1, 13056, Note_on_c, 0, 67, 70
1, 13056, Note_on_c, 1, 63, 58
1, 13079, Note_on_c, 1, 63, 0
1, 13080, Note_on_c, 1, 67, 58
1, 13103, Note_on_c, 1, 67, 0
1, 13104, Note_on_c, 1, 63, 58
1, 13127, Note_on_c, 1, 63, 0
1, 13128, Note_on_c, 1, 67, 58
1, 13151, Note_on_c, 1, 67, 0
1, 13152, Note_on_c, 0, 75, 0
1, 13152, Note_on_c, 0, 67, 0
1, 13152, Note_on_c, 0, 74, 70
1, 13152, Note_on_c, 1, 63, 58
1, 13175, Note_on_c, 1, 63, 0
1, 13176, Note_on_c, 1, 67, 58
1, 13197, Note_on_c, 0, 74, 0
1, 13199, Note_on_c, 1, 67, 0
1, 13200, Note_on_c, 0, 73, 70
1, 13200, Note_on_c, 1, 63, 58
1, 13223, Note_on_c, 1, 63, 0
1, 13224, Note_on_c, 1, 67, 58
1, 13245, Note_on_c, 0, 73, 0
1, 13247, Note_on_c, 1, 67, 0
1, 13248, Note_on_c, 0, 71, 70
1, 13248, Note_on_c, 1, 63, 58
1, 13271, Note_on_c, 1, 63, 0
1, 13272, Note_on_c, 1, 68, 58
1, 13295, Note_on_c, 1, 68, 0
1, 13296, Note_on_c, 0, 71, 0
1, 13296, Note_on_c, 0, 72, 70
1, 13296, Note_on_c, 1, 63, 58
1, 13319, Note_on_c, 1, 63, 0
1, 13320, Note_on_c, 1, 68, 58
1, 13341, Note_on_c, 0, 72, 0
1, 13343, Note_on_c, 1, 68, 0
1, 13344, Note_on_c, 1, 63, 58
1, 13367, Note_on_c, 1, 63, 0
1, 13368, Note_on_c, 1, 68, 58
1, 13391, Note_on_c, 1, 68, 0
1, 13392, Note_on_c, 1, 63, 58
1, 13415, Note_on_c, 1, 63, 0
1, 13416, Note_on_c, 1, 68, 58
1, 13439, Note_on_c, 1, 68, 0
1, 13440, Note_on_c, 0, 77, 70
1, 13440, Note_on_c, 1, 62, 58
1, 13463, Note_on_c, 1, 62, 0
1, 13464, Note_on_c, 1, 68, 58
1, 13485, Note_on_c, 0, 77, 0
1, 13487, Note_on_c, 1, 68, 0
1, 13488, Note_on_c, 0, 70, 70
1, 13488, Note_on_c, 1, 62, 58
1, 13511, Note_on_c, 1, 62, 0
1, 13512, Note_on_c, 1, 68, 58
1, 13535, Note_on_c, 1, 68, 0
1, 13536, Note_on_c, 1, 62, 58
1, 13559, Note_on_c, 1, 62, 0
1, 13560, Note_on_c, 1, 68, 58
1, 13581, Note_on_c, 0, 70, 0
1, 13583, Note_on_c, 1, 68, 0
1, 13584, Note_on_c, 0, 74, 70
1, 13584, Note_on_c, 1, 62, 58
1, 13590, Note_on_c, 0, 74, 0
1, 13590, Note_on_c, 0, 72, 70
1, 13607, Note_on_c, 0, 72, 0
1, 13607, Note_on_c, 1, 62, 0
1, 13608, Note_on_c, 0, 70, 70
1, 13608, Note_on_c, 1, 68, 58
1, 13631, Note_on_c, 0, 70, 0
1, 13631, Note_on_c, 1, 68, 0
1, 13632, Note_on_c, 0, 70, 70
1, 13632, Note_on_c, 1, 63, 58
1, 13655, Note_on_c, 0, 70, 0
1, 13655, Note_on_c, 1, 63, 0
1, 13656, Note_on_c, 0, 72, 70
1, 13656, Note_on_c, 1, 67, 58
1, 13668, Note_on_c, 0, 72, 0
1, 13668, Note_on_c, 0, 74, 71
1, 13679, Note_on_c, 1, 67, 0
1, 13680, Note_on_c, 0, 74, 0
1, 13680, Note_on_c, 0, 75, 71
1, 13680, Note_on_c, 1, 63, 58
1, 13692, Note_on_c, 0, 75, 0
1, 13692, Note_on_c, 0, 77, 72
1, 13703, Note_on_c, 1, 63, 0
1, 13704, Note_on_c, 0, 77, 0
1, 13704, Note_on_c, 0, 79, 72
1, 13704, Note_on_c, 1, 67, 58
1, 13716, Note_on_c, 0, 79, 0
1, 13716, Note_on_c, 0, 80, 72
1, 13727, Note_on_c, 1, 67, 0
1, 13728, Note_on_c, 0, 80, 0
1, 13728, Note_on_c, 0, 82, 73
1, 13728, Note_on_c, 1, 63, 58
1, 13751, Note_on_c, 1, 63, 0
1, 13752, Note_on_c, 1, 67, 58
1, 13773, Note_on_c, 0, 82, 0
1, 13775, Note_on_c, 1, 67, 0
1, 13776, Note_on_c, 1, 63, 58
1, 13799, Note_on_c, 1, 63, 0
1, 13800, Note_on_c, 1, 67, 58
1, 13823, Note_on_c, 1, 67, 0
1, 13824, Note_on_c, 0, 77, 70
1, 13824, Note_on_c, 1, 62, 58
1, 13847, Note_on_c, 1, 62, 0
1, 13848, Note_on_c, 1, 68, 58
1, 13869, Note_on_c, 0, 77, 0
1, 13871, Note_on_c, 1, 68, 0
1, 13872, Note_on_c, 0, 70, 70
1, 13872, Note_on_c, 1, 62, 58
1, 13895, Note_on_c, 1, 62, 0
1, 13896, Note_on_c, 1, 68, 58
1, 13919, Note_on_c, 1, 68, 0
1, 13920, Note_on_c, 1, 62, 58
1, 13943, Note_on_c, 1, 62, 0
1, 13944, Note_on_c, 1, 68, 58
1, 13965, Note_on_c, 0, 70, 0
1, 13967, Note_on_c, 1, 68, 0
1, 13968, Note_on_c, 0, 74, 70
1, 13968, Note_on_c, 1, 62, 58
1, 13974, Note_on_c, 0, 74, 0
1, 13974, Note_on_c, 0, 72, 70
1, 13991, Note_on_c, 0, 72, 0
1, 13991, Note_on_c, 1, 62, 0
1, 13992, Note_on_c, 0, 70, 70
1, 13992, Note_on_c, 1, 68, 58
1, 14015, Note_on_c, 0, 70, 0
1, 14015, Note_on_c, 1, 68, 0
1, 14016, Note_on_c, 0, 70, 70
1, 14016, Note_on_c, 1, 63, 58
1, 14039, Note_on_c, 0, 70, 0
1, 14039, Note_on_c, 1, 63, 0
1, 14040, Note_on_c, 0, 72, 70
1, 14040, Note_on_c, 1, 67, 58
1, 14052, Note_on_c, 0, 72, 0
1, 14052, Note_on_c, 0, 74, 71
1, 14063, Note_on_c, 1, 67, 0
1, 14064, Note_on_c, 0, 74, 0
1, 14064, Note_on_c, 0, 75, 71
1, 14064, Note_on_c, 1, 63, 58
1, 14076, Note_on_c, 0, 75, 0
1, 14076, Note_on_c, 0, 77, 72
1, 14087, Note_on_c, 1, 63, 0
1, 14088, Note_on_c, 0, 77, 0
1, 14088, Note_on_c, 0, 79, 72
1, 14088, Note_on_c, 1, 67, 58
1, 14100, Note_on_c, 0, 79, 0
1, 14100, Note_on_c, 0, 80, 72
1, 14111, Note_on_c, 1, 67, 0
1, 14112, Note_on_c, 0, 80, 0
1, 14112, Note_on_c, 0, 82, 73
1, 14112, Note_on_c, 1, 63, 58
1, 14135, Note_on_c, 1, 63, 0
1, 14136, Note_on_c, 1, 67, 58
1, 14157, Note_on_c, 0, 82, 0
1, 14159, Note_on_c, 1, 67, 0
1, 14160, Note_on_c, 1, 63, 58
1, 14183, Note_on_c, 1, 63, 0
1, 14184, Note_on_c, 0, 82, 75
1, 14184, Note_on_c, 1, 67, 58
1, 14207, Note_on_c, 0, 82, 0
1, 14207, Note_on_c, 1, 67, 0
1, 14208, Note_on_c, 0, 87, 91
1, 14208, Note_on_c, 1, 60, 58
1, 14231, Note_on_c, 1, 60, 0
1, 14232, Note_on_c, 1, 63, 58
1, 14255, Note_on_c, 1, 63, 0
1, 14256, Note_on_c, 1, 68, 58
1, 14279, Note_on_c, 0, 87, 0
1, 14279, Note_on_c, 1, 68, 0
1, 14280, Note_on_c, 0, 86, 75
1, 14280, Note_on_c, 1, 72, 58
1, 14286, Note_on_c, 0, 86, 0
1, 14286, Note_on_c, 0, 84, 75
1, 14292, Note_on_c, 0, 84, 0
1, 14292, Note_on_c, 0, 82, 75
1, 14298, Note_on_c, 0, 82, 0
1, 14298, Note_on_c, 0, 80, 75
1, 14303, Note_on_c, 1, 72, 0
1, 14304, Note_on_c, 0, 80, 0
1, 14304, Note_on_c, 0, 86, 91
1, 14304, Note_on_c, 1, 58, 58
1, 14327, Note_on_c, 1, 58, 0
1, 14328, Note_on_c, 1, 62, 58
1, 14351, Note_on_c, 1, 62, 0
1, 14352, Note_on_c, 1, 67, 58
1, 14375, Note_on_c, 0, 86, 0
1, 14375, Note_on_c, 1, 67, 0
1, 14376, Note_on_c, 0, 84, 75
1, 14376, Note_on_c, 1, 70, 58
1, 14382, Note_on_c, 0, 84, 0
1, 14382, Note_on_c, 0, 82, 75
1, 14388, Note_on_c, 0, 82, 0
1, 14388, Note_on_c, 0, 80, 75
1, 14394, Note_on_c, 0, 80, 0
1, 14394, Note_on_c, 0, 79, 75
1, 14399, Note_on_c, 1, 70, 0
1, 14400, Note_on_c, 0, 79, 0
1, 14400, Note_on_c, 0, 84, 91
1, 14400, Note_on_c, 1, 56, 58
1, 14448, Note_on_c, 0, 84, 0
1, 14448, Note_on_c, 0, 82, 75
1, 14460, Note_on_c, 0, 82, 0
1, 14460, Note_on_c, 0, 80, 75
1, 14472, Note_on_c, 0, 80, 0
1, 14472, Note_on_c, 0, 79, 75
1, 14484, Note_on_c, 0, 79, 0
1, 14484, Note_on_c, 0, 77, 75
1, 14489, Note_on_c, 1, 56, 0
1, 14496, Note_on_c, 0, 77, 0
1, 14496, Note_on_c, 0, 75, 75
1, 14508, Note_on_c, 0, 75, 0
1, 14508, Note_on_c, 0, 74, 75
1, 14520, Note_on_c, 0, 74, 0
1, 14520, Note_on_c, 0, 72, 75
1, 14532, Note_on_c, 0, 72, 0
1, 14532, Note_on_c, 0, 70, 75
1, 14544, Note_on_c, 0, 70, 0
1, 14544, Note_on_c, 0, 68, 75
1, 14556, Note_on_c, 0, 68, 0
1, 14556, Note_on_c, 0, 67, 75
1, 14568, Note_on_c, 0, 67, 0
1, 14568, Note_on_c, 0, 65, 75
1, 14580, Note_on_c, 0, 65, 0
1, 14580, Note_on_c, 0, 63, 75
1, 14592, Note_on_c, 0, 63, 0
1, 14592, Note_on_c, 0, 62, 75
1, 14592, Note_on_c, 1, 56, 75
1, 14592, Note_on_c, 1, 53, 75
1, 14592, Note_on_c, 1, 46, 75
1, 14612, Note_on_c, 0, 62, 0
1, 14612, Note_on_c, 1, 56, 0
1, 14612, Note_on_c, 1, 53, 0
1, 14612, Note_on_c, 1, 46, 0
1, 14640, Note_on_c, 0, 63, 75
1, 14640, Note_on_c, 1, 55, 75
1, 14640, Note_on_c, 1, 51, 75
1, 14669, Note_on_c, 0, 63, 0
1, 14669, Note_on_c, 1, 55, 0
1, 14669, Note_on_c, 1, 51, 0
1, 14784, Note_on_c, 0, 60, 80
1, 14784, Note_on_c, 1, 48, 80
1, 14784, Note_on_c, 1, 36, 80
1, 14873, Note_on_c, 0, 60, 0
1, 14880, Note_on_c, 0, 51, 80
1, 14903, Note_on_c, 0, 51, 0
1, 14904, Note_on_c, 0, 53, 80
1, 14912, Note_on_c, 0, 53, 0
1, 14912, Note_on_c, 0, 51, 80
1, 14920, Note_on_c, 0, 51, 0
1, 14920, Note_on_c, 0, 50, 80
1, 14928, Note_on_c, 0, 50, 0
1, 14928, Note_on_c, 0, 51, 80
1, 14951, Note_on_c, 0, 51, 0
1, 14952, Note_on_c, 0, 53, 80
1, 14961, Note_on_c, 1, 48, 0
1, 14961, Note_on_c, 1, 36, 0
1, 14975, Note_on_c, 0, 53, 0
1, 14976, Note_on_c, 0, 55, 80
1, 14976, Note_on_c, 1, 47, 80
1, 14976, Note_on_c, 1, 35, 80
1, 14996, Note_on_c, 0, 55, 0
1, 15024, Note_on_c, 0, 55, 80
1, 15044, Note_on_c, 0, 55, 0
1, 15065, Note_on_c, 1, 47, 0
1, 15065, Note_on_c, 1, 35, 0
1, 15168, Note_on_c, 0, 63, 75
1, 15174, Note_on_c, 0, 63, 0
1, 15174, Note_on_c, 0, 67, 75
1, 15180, Note_on_c, 0, 67, 0
1, 15180, Note_on_c, 0, 71, 75
1, 15186, Note_on_c, 0, 71, 0
1, 15186, Note_on_c, 0, 74, 75
1, 15264, Note_on_c, 1, 59, 75
1, 15279, Note_on_c, 0, 74, 0
1, 15280, Note_on_c, 0, 72, 75
1, 15295, Note_on_c, 0, 72, 0
1, 15296, Note_on_c, 0, 71, 75
1, 15311, Note_on_c, 0, 71, 0
1, 15312, Note_on_c, 0, 68, 75
1, 15327, Note_on_c, 0, 68, 0
1, 15328, Note_on_c, 0, 67, 75
1, 15343, Note_on_c, 0, 67, 0
1, 15344, Note_on_c, 0, 65, 75
1, 15359, Note_on_c, 0, 65, 0
1, 15360, Note_on_c, 0, 65, 75
1, 15360, Note_on_c, 1, 59, 0
1, 15360, Note_on_c, 1, 60, 75
1, 15375, Note_on_c, 0, 65, 0
1, 15376, Note_on_c, 0, 63, 75
1, 15391, Note_on_c, 0, 63, 0
1, 15392, Note_on_c, 0, 62, 75
1, 15407, Note_on_c, 0, 62, 0
1, 15408, Note_on_c, 0, 63, 75
1, 15423, Note_on_c, 0, 63, 0
1, 15424, Note_on_c, 0, 67, 75
1, 15439, Note_on_c, 0, 67, 0
1, 15440, Note_on_c, 0, 72, 75
1, 15449, Note_on_c, 1, 60, 0
1, 15455, Note_on_c, 0, 72, 0
1, 15456, Note_on_c, 0, 75, 75
1, 15471, Note_on_c, 0, 75, 0
1, 15472, Note_on_c, 0, 79, 75
1, 15487, Note_on_c, 0, 79, 0
1, 15488, Note_on_c, 0, 77, 75
1, 15503, Note_on_c, 0, 77, 0
1, 15504, Note_on_c, 0, 75, 75
1, 15519, Note_on_c, 0, 75, 0
1, 15520, Note_on_c, 0, 74, 75
1, 15535, Note_on_c, 0, 74, 0
1, 15536, Note_on_c, 0, 72, 75
1, 15551, Note_on_c, 0, 72, 0
1, 15552, Note_on_c, 0, 70, 75
1, 15552, Note_on_c, 1, 62, 75
1, 15552, Note_on_c, 1, 53, 75
1, 15648, Note_on_c, 0, 70, 0
1, 15648, Note_on_c, 0, 69, 67
1, 15648, Note_on_c, 1, 62, 0
1, 15648, Note_on_c, 1, 60, 67
1, 15668, Note_on_c, 0, 69, 0
1, 15693, Note_on_c, 1, 60, 0
1, 15693, Note_on_c, 1, 53, 0
1, 15744, Note_on_c, 0, 70, 75
1, 15744, Note_on_c, 0, 62, 75
1, 15744, Note_on_c, 1, 46, 75
1, 15744, Note_on_c, 1, 34, 75
1, 15767, Note_on_c, 0, 70, 0
1, 15767, Note_on_c, 0, 62, 0
1, 15768, Note_on_c, 0, 65, 75
1, 15776, Note_on_c, 0, 65, 0
1, 15776, Note_on_c, 0, 67, 75
1, 15784, Note_on_c, 0, 67, 0
1, 15784, Note_on_c, 0, 65, 75
1, 15789, Note_on_c, 1, 46, 0
1, 15789, Note_on_c, 1, 34, 0
1, 15792, Note_on_c, 0, 65, 0
1, 15792, Note_on_c, 0, 70, 75
1, 15815, Note_on_c, 0, 70, 0
1, 15816, Note_on_c, 0, 62, 75
1, 15816, Note_on_c, 1, 58, 75
1, 15828, Note_on_c, 0, 62, 0
1, 15828, Note_on_c, 0, 70, 75
1, 15839, Note_on_c, 1, 58, 0
1, 15840, Note_on_c, 0, 70, 0
1, 15840, Note_on_c, 0, 63, 75
1, 15840, Note_on_c, 1, 60, 75
1, 15852, Note_on_c, 0, 63, 0
1, 15852, Note_on_c, 0, 70, 75
1, 15863, Note_on_c, 1, 60, 0
1, 15864, Note_on_c, 0, 70, 0
1, 15864, Note_on_c, 0, 62, 75
1, 15864, Note_on_c, 1, 58, 75
1, 15876, Note_on_c, 0, 62, 0
1, 15876, Note_on_c, 0, 70, 75
1, 15887, Note_on_c, 1, 58, 0
1, 15888, Note_on_c, 0, 70, 0
1, 15888, Note_on_c, 0, 63, 75
1, 15888, Note_on_c, 1, 60, 75
1, 15900, Note_on_c, 0, 63, 0
1, 15900, Note_on_c, 0, 70, 75
1, 15911, Note_on_c, 1, 60, 0
1, 15912, Note_on_c, 0, 70, 0
1, 15912, Note_on_c, 0, 65, 75
1, 15912, Note_on_c, 1, 62, 75
1, 15924, Note_on_c, 0, 65, 0
1, 15924, Note_on_c, 0, 70, 75
1, 15935, Note_on_c, 1, 62, 0
1, 15936, Note_on_c, 0, 70, 0
1, 15936, Note_on_c, 0, 67, 75
1, 15936, Note_on_c, 1, 63, 75
1, 15959, Note_on_c, 0, 67, 0
1, 15960, Note_on_c, 0, 75, 75
1, 15960, Note_on_c, 0, 67, 75
1, 15983, Note_on_c, 0, 75, 0
1, 15983, Note_on_c, 0, 67, 0
1, 15984, Note_on_c, 0, 75, 75
1, 15984, Note_on_c, 0, 67, 75
1, 16007, Note_on_c, 0, 75, 0
1, 16007, Note_on_c, 0, 67, 0
1, 16008, Note_on_c, 0, 75, 75
1, 16008, Note_on_c, 0, 67, 75
1, 16025, Note_on_c, 1, 63, 0
1, 16031, Note_on_c, 0, 75, 0
1, 16031, Note_on_c, 0, 67, 0
1, 16032, Note_on_c, 0, 75, 75
1, 16032, Note_on_c, 0, 67, 75
1, 16056, Note_on_c, 0, 75, 0
1, 16056, Note_on_c, 0, 67, 0
1, 16056, Note_on_c, 0, 74, 75
1, 16056, Note_on_c, 0, 65, 75
1, 16079, Note_on_c, 0, 74, 0
1, 16079, Note_on_c, 0, 65, 0
1, 16080, Note_on_c, 0, 74, 75
1, 16080, Note_on_c, 0, 65, 75
1, 16104, Note_on_c, 0, 74, 0
1, 16104, Note_on_c, 0, 65, 0
1, 16104, Note_on_c, 0, 72, 75
1, 16104, Note_on_c, 0, 63, 75
1, 16127, Note_on_c, 0, 72, 0
1, 16127, Note_on_c, 0, 63, 0
1, 16128, Note_on_c, 0, 70, 75
1, 16128, Note_on_c, 0, 62, 75
1, 16128, Note_on_c, 1, 46, 75
1, 16128, Note_on_c, 1, 34, 75
1, 16151, Note_on_c, 0, 70, 0
1, 16151, Note_on_c, 0, 62, 0
1, 16152, Note_on_c, 0, 65, 75
1, 16160, Note_on_c, 0, 65, 0
1, 16160, Note_on_c, 0, 67, 75
1, 16168, Note_on_c, 0, 67, 0
1, 16168, Note_on_c, 0, 65, 75
1, 16173, Note_on_c, 1, 46, 0
1, 16173, Note_on_c, 1, 34, 0
1, 16176, Note_on_c, 0, 65, 0
1, 16176, Note_on_c, 0, 70, 75
1, 16199, Note_on_c, 0, 70, 0
1, 16200, Note_on_c, 0, 62, 75
1, 16200, Note_on_c, 1, 58, 75
1, 16212, Note_on_c, 0, 62, 0
1, 16212, Note_on_c, 0, 70, 75
1, 16223, Note_on_c, 1, 58, 0
1, 16224, Note_on_c, 0, 70, 0
1, 16224, Note_on_c, 0, 63, 75
1, 16224, Note_on_c, 1, 60, 75
1, 16236, Note_on_c, 0, 63, 0
1, 16236, Note_on_c, 0, 70, 75
1, 16247, Note_on_c, 1, 60, 0
1, 16248, Note_on_c, 0, 70, 0
1, 16248, Note_on_c, 0, 62, 75
1, 16248, Note_on_c, 1, 58, 75
1, 16260, Note_on_c, 0, 62, 0
1, 16260, Note_on_c, 0, 70, 75
1, 16271, Note_on_c, 1, 58, 0
1, 16272, Note_on_c, 0, 70, 0
1, 16272, Note_on_c, 0, 63, 75
1, 16272, Note_on_c, 1, 60, 75
1, 16284, Note_on_c, 0, 63, 0
1, 16284, Note_on_c, 0, 70, 75
1, 16295, Note_on_c, 1, 60, 0
1, 16296, Note_on_c, 0, 70, 0
1, 16296, Note_on_c, 0, 65, 75
1, 16296, Note_on_c, 1, 62, 75
1, 16308, Note_on_c, 0, 65, 0
1, 16308, Note_on_c, 0, 70, 75
1, 16319, Note_on_c, 1, 62, 0
1, 16320, Note_on_c, 0, 70, 0
1, 16320, Note_on_c, 0, 67, 75
1, 16320, Note_on_c, 1, 63, 75
1, 16343, Note_on_c, 0, 67, 0
1, 16344, Note_on_c, 0, 79, 75
1, 16344, Note_on_c, 0, 75, 75
1, 16367, Note_on_c, 0, 79, 0
1, 16367, Note_on_c, 0, 75, 0
1, 16368, Note_on_c, 0, 79, 75
1, 16368, Note_on_c, 0, 75, 75
1, 16391, Note_on_c, 0, 79, 0
1, 16391, Note_on_c, 0, 75, 0
1, 16392, Note_on_c, 0, 79, 75
1, 16392, Note_on_c, 0, 75, 75
1, 16409, Note_on_c, 1, 63, 0
1, 16415, Note_on_c, 0, 79, 0
1, 16415, Note_on_c, 0, 75, 0
1, 16416, Note_on_c, 0, 79, 75
1, 16416, Note_on_c, 0, 75, 75
1, 16440, Note_on_c, 0, 79, 0
1, 16440, Note_on_c, 0, 75, 0
1, 16440, Note_on_c, 0, 77, 75
1, 16440, Note_on_c, 0, 74, 75
1, 16463, Note_on_c, 0, 77, 0
1, 16463, Note_on_c, 0, 74, 0
1, 16464, Note_on_c, 0, 77, 75
1, 16464, Note_on_c, 0, 74, 75
1, 16488, Note_on_c, 0, 77, 0
1, 16488, Note_on_c, 0, 74, 0
1, 16488, Note_on_c, 0, 75, 75
1, 16488, Note_on_c, 0, 72, 75
1, 16511, Note_on_c, 0, 75, 0
1, 16511, Note_on_c, 0, 72, 0
1, 16512, Note_on_c, 0, 74, 75
1, 16512, Note_on_c, 0, 70, 75
1, 16512, Note_on_c, 1, 46, 75
1, 16512, Note_on_c, 1, 34, 75
1, 16535, Note_on_c, 0, 74, 0
1, 16535, Note_on_c, 0, 70, 0
1, 16536, Note_on_c, 0, 77, 75
1, 16544, Note_on_c, 0, 77, 0
1, 16544, Note_on_c, 0, 79, 75
1, 16552, Note_on_c, 0, 79, 0
1, 16552, Note_on_c, 0, 77, 75
1, 16557, Note_on_c, 1, 46, 0
1, 16557, Note_on_c, 1, 34, 0
1, 16560, Note_on_c, 0, 77, 0
1, 16560, Note_on_c, 0, 82, 75
1, 16583, Note_on_c, 0, 82, 0
1, 16584, Note_on_c, 0, 77, 75
1, 16584, Note_on_c, 1, 74, 75
1, 16596, Note_on_c, 0, 77, 0
1, 16596, Note_on_c, 0, 82, 75
1, 16607, Note_on_c, 1, 74, 0
1, 16608, Note_on_c, 0, 82, 0
1, 16608, Note_on_c, 0, 79, 75
1, 16608, Note_on_c, 1, 75, 75
1, 16620, Note_on_c, 0, 79, 0
1, 16620, Note_on_c, 0, 82, 75
1, 16631, Note_on_c, 1, 75, 0
1, 16632, Note_on_c, 0, 82, 0
1, 16632, Note_on_c, 0, 77, 75
1, 16632, Note_on_c, 1, 74, 75
1, 16644, Note_on_c, 0, 77, 0
1, 16644, Note_on_c, 0, 82, 75
1, 16655, Note_on_c, 1, 74, 0
1, 16656, Note_on_c, 0, 82, 0
1, 16656, Note_on_c, 0, 79, 75
1, 16656, Note_on_c, 1, 75, 75
1, 16668, Note_on_c, 0, 79, 0
1, 16668, Note_on_c, 0, 82, 75
1, 16679, Note_on_c, 1, 75, 0
1, 16680, Note_on_c, 0, 82, 0
1, 16680, Note_on_c, 0, 80, 75
1, 16680, Note_on_c, 1, 77, 75
1, 16692, Note_on_c, 0, 80, 0
1, 16692, Note_on_c, 0, 82, 75
1, 16703, Note_on_c, 1, 77, 0
1, 16704, Note_on_c, 0, 82, 0
1, 16704, Note_on_c, 0, 79, 75
1, 16704, Note_on_c, 1, 75, 75
1, 16727, Note_on_c, 0, 79, 0
1, 16728, Note_on_c, 0, 87, 75
1, 16738, Note_on_c, 0, 87, 0
1, 16752, Note_on_c, 0, 87, 75
1, 16762, Note_on_c, 0, 87, 0
1, 16776, Note_on_c, 0, 87, 75
1, 16786, Note_on_c, 0, 87, 0
1, 16793, Note_on_c, 1, 75, 0
1, 16800, Note_on_c, 0, 87, 75
1, 16812, Note_on_c, 0, 87, 0
1, 16812, Note_on_c, 0, 89, 75
1, 16824, Note_on_c, 0, 89, 0
1, 16824, Note_on_c, 0, 87, 75
1, 16836, Note_on_c, 0, 87, 0
1, 16836, Note_on_c, 0, 86, 75
1, 16848, Note_on_c, 0, 86, 0
1, 16848, Note_on_c, 0, 84, 75
1, 16860, Note_on_c, 0, 84, 0
1, 16860, Note_on_c, 0, 82, 75
1, 16872, Note_on_c, 0, 82, 0
1, 16872, Note_on_c, 0, 81, 75
1, 16884, Note_on_c, 0, 81, 0
1, 16884, Note_on_c, 0, 79, 75
1, 16896, Note_on_c, 0, 79, 0
1, 16896, Note_on_c, 0, 77, 75
1, 16916, Note_on_c, 0, 77, 0
1, 16920, Note_on_c, 1, 75, 70
1, 16920, Note_on_c, 1, 69, 70
1, 16930, Note_on_c, 1, 75, 0
1, 16930, Note_on_c, 1, 69, 0
1, 16944, Note_on_c, 1, 75, 70
1, 16944, Note_on_c, 1, 69, 70
1, 16954, Note_on_c, 1, 75, 0
1, 16954, Note_on_c, 1, 69, 0
1, 16968, Note_on_c, 1, 75, 70
1, 16968, Note_on_c, 1, 69, 70
1, 16978, Note_on_c, 1, 75, 0
1, 16978, Note_on_c, 1, 69, 0
1, 16992, Note_on_c, 1, 74, 70
1, 16992, Note_on_c, 1, 70, 70
1, 17016, Note_on_c, 0, 86, 75
1, 17028, Note_on_c, 0, 86, 0
1, 17028, Note_on_c, 0, 84, 75
1, 17037, Note_on_c, 1, 74, 0
1, 17037, Note_on_c, 1, 70, 0
1, 17040, Note_on_c, 0, 84, 0
1, 17040, Note_on_c, 0, 82, 75
1, 17052, Note_on_c, 0, 82, 0
1, 17052, Note_on_c, 0, 81, 75
1, 17064, Note_on_c, 0, 81, 0
1, 17064, Note_on_c, 0, 79, 75
1, 17076, Note_on_c, 0, 79, 0
1, 17076, Note_on_c, 0, 77, 75
1, 17088, Note_on_c, 0, 77, 0
1, 17088, Note_on_c, 0, 75, 75
1, 17108, Note_on_c, 0, 75, 0
1, 17112, Note_on_c, 1, 74, 64
1, 17112, Note_on_c, 1, 67, 64
1, 17122, Note_on_c, 1, 74, 0
1, 17122, Note_on_c, 1, 67, 0
1, 17136, Note_on_c, 1, 74, 64
1, 17136, Note_on_c, 1, 67, 64
1, 17146, Note_on_c, 1, 74, 0
1, 17146, Note_on_c, 1, 67, 0
1, 17160, Note_on_c, 1, 74, 64
1, 17160, Note_on_c, 1, 67, 64
1, 17170, Note_on_c, 1, 74, 0
1, 17170, Note_on_c, 1, 67, 0
1, 17184, Note_on_c, 1, 72, 64
1, 17184, Note_on_c, 1, 69, 64
1, 17208, Note_on_c, 0, 84, 75
1, 17220, Note_on_c, 0, 84, 0
1, 17220, Note_on_c, 0, 82, 75
1, 17229, Note_on_c, 1, 72, 0
1, 17229, Note_on_c, 1, 69, 0
1, 17232, Note_on_c, 0, 82, 0
1, 17232, Note_on_c, 0, 81, 75
1, 17244, Note_on_c, 0, 81, 0
1, 17244, Note_on_c, 0, 79, 75
1, 17256, Note_on_c, 0, 79, 0
1, 17256, Note_on_c, 0, 77, 75
1, 17268, Note_on_c, 0, 77, 0
1, 17268, Note_on_c, 0, 75, 75
1, 17280, Note_on_c, 0, 75, 0
1, 17280, Note_on_c, 0, 74, 75
1, 17300, Note_on_c, 0, 74, 0
1, 17304, Note_on_c, 1, 72, 64
1, 17304, Note_on_c, 1, 66, 64
1, 17314, Note_on_c, 1, 72, 0
1, 17314, Note_on_c, 1, 66, 0
1, 17328, Note_on_c, 1, 72, 64
1, 17328, Note_on_c, 1, 66, 64
1, 17338, Note_on_c, 1, 72, 0
1, 17338, Note_on_c, 1, 66, 0
1, 17352, Note_on_c, 1, 72, 64
1, 17352, Note_on_c, 1, 66, 64
1, 17362, Note_on_c, 1, 72, 0
1, 17362, Note_on_c, 1, 66, 0
1, 17376, Note_on_c, 1, 70, 64
1, 17376, Note_on_c, 1, 67, 64
1, 17400, Note_on_c, 0, 82, 75
1, 17412, Note_on_c, 0, 82, 0
1, 17412, Note_on_c, 0, 81, 75
1, 17421, Note_on_c, 1, 70, 0
1, 17421, Note_on_c, 1, 67, 0
1, 17424, Note_on_c, 0, 81, 0
1, 17424, Note_on_c, 0, 79, 75
1, 17436, Note_on_c, 0, 79, 0
1, 17436, Note_on_c, 0, 77, 75
1, 17448, Note_on_c, 0, 77, 0
1, 17448, Note_on_c, 0, 75, 75
1, 17460, Note_on_c, 0, 75, 0
1, 17460, Note_on_c, 0, 74, 75
1, 17472, Note_on_c, 0, 74, 0
1, 17472, Note_on_c, 0, 72, 75
1, 17496, Note_on_c, 1, 70, 64
1, 17517, Note_on_c, 0, 72, 0
1, 17520, Note_on_c, 1, 70, 0
1, 17520, Note_on_c, 1, 64, 64
1, 17543, Note_on_c, 1, 64, 0
1, 17544, Note_on_c, 0, 82, 75
1, 17568, Note_on_c, 0, 82, 0
1, 17568, Note_on_c, 0, 74, 75
1, 17591, Note_on_c, 0, 74, 0
1, 17592, Note_on_c, 1, 70, 64
1, 17616, Note_on_c, 1, 70, 0
1, 17616, Note_on_c, 1, 65, 64
1, 17639, Note_on_c, 1, 65, 0
1, 17640, Note_on_c, 0, 82, 76
1, 17664, Note_on_c, 0, 82, 0
1, 17664, Note_on_c, 0, 75, 76
1, 17687, Note_on_c, 0, 75, 0
1, 17688, Note_on_c, 1, 70, 64
1, 17712, Note_on_c, 1, 70, 0
1, 17712, Note_on_c, 1, 67, 64
1, 17735, Note_on_c, 1, 67, 0
1, 17736, Note_on_c, 0, 82, 77
1, 17760, Note_on_c, 0, 82, 0
1, 17760, Note_on_c, 0, 74, 77
1, 17783, Note_on_c, 0, 74, 0
1, 17784, Note_on_c, 1, 70, 64
1, 17808, Note_on_c, 1, 70, 0
1, 17808, Note_on_c, 1, 65, 64
1, 17831, Note_on_c, 1, 65, 0
1, 17832, Note_on_c, 0, 82, 77
1, 17855, Note_on_c, 0, 82, 0
1, 17856, Note_on_c, 0, 72, 78
1, 17856, Note_on_c, 1, 64, 64
1, 17868, Note_on_c, 0, 72, 0
1, 17868, Note_on_c, 0, 82, 78
1, 17879, Note_on_c, 1, 64, 0
1, 17880, Note_on_c, 0, 82, 0
1, 17880, Note_on_c, 0, 73, 78
1, 17880, Note_on_c, 1, 65, 64
1, 17892, Note_on_c, 0, 73, 0
1, 17892, Note_on_c, 0, 82, 78
1, 17903, Note_on_c, 1, 65, 0
1, 17904, Note_on_c, 0, 82, 0
1, 17904, Note_on_c, 0, 72, 78
1, 17904, Note_on_c, 1, 64, 64
1, 17916, Note_on_c, 0, 72, 0
1, 17916, Note_on_c, 0, 82, 78
1, 17927, Note_on_c, 1, 64, 0
1, 17928, Note_on_c, 0, 82, 0
1, 17928, Note_on_c, 0, 73, 78
1, 17928, Note_on_c, 1, 65, 64
1, 17940, Note_on_c, 0, 73, 0
1, 17940, Note_on_c, 0, 82, 78
1, 17951, Note_on_c, 1, 65, 0
1, 17952, Note_on_c, 0, 82, 0
1, 17952, Note_on_c, 0, 72, 79
1, 17952, Note_on_c, 1, 64, 64
1, 17975, Note_on_c, 0, 72, 0
1, 17976, Note_on_c, 0, 82, 79
1, 17997, Note_on_c, 1, 64, 0
1, 17999, Note_on_c, 0, 82, 0
1, 18000, Note_on_c, 0, 82, 79
1, 18023, Note_on_c, 0, 82, 0
1, 18024, Note_on_c, 0, 82, 79
1, 18024, Note_on_c, 1, 72, 64
1, 18024, Note_on_c, 1, 64, 64
1, 18047, Note_on_c, 0, 82, 0
1, 18048, Note_on_c, 0, 82, 80
1, 18048, Note_on_c, 1, 72, 0
1, 18048, Note_on_c, 1, 64, 0
1, 18048, Note_on_c, 1, 72, 64
1, 18048, Note_on_c, 1, 65, 64
1, 18060, Note_on_c, 0, 82, 0
1, 18060, Note_on_c, 0, 81, 80
1, 18071, Note_on_c, 0, 81, 0
1, 18072, Note_on_c, 0, 79, 80
1, 18084, Note_on_c, 0, 79, 0
1, 18084, Note_on_c, 0, 77, 80
1, 18093, Note_on_c, 1, 72, 0
1, 18093, Note_on_c, 1, 65, 0
1, 18096, Note_on_c, 0, 77, 0
1, 18096, Note_on_c, 0, 77, 80
1, 18106, Note_on_c, 0, 77, 0
1, 18120, Note_on_c, 0, 82, 80
1, 18120, Note_on_c, 1, 72, 64
1, 18120, Note_on_c, 1, 64, 64
1, 18143, Note_on_c, 0, 82, 0
1, 18144, Note_on_c, 0, 82, 80
1, 18144, Note_on_c, 1, 72, 0
1, 18144, Note_on_c, 1, 64, 0
1, 18144, Note_on_c, 1, 72, 64
1, 18144, Note_on_c, 1, 65, 64
1, 18156, Note_on_c, 0, 82, 0
1, 18156, Note_on_c, 0, 81, 80
1, 18167, Note_on_c, 0, 81, 0
1, 18168, Note_on_c, 0, 79, 80
1, 18180, Note_on_c, 0, 79, 0
1, 18180, Note_on_c, 0, 77, 80
1, 18189, Note_on_c, 1, 72, 0
1, 18189, Note_on_c, 1, 65, 0
1, 18192, Note_on_c, 0, 77, 0
1, 18192, Note_on_c, 0, 77, 80
1, 18202, Note_on_c, 0, 77, 0
1, 18216, Note_on_c, 0, 82, 80
1, 18216, Note_on_c, 1, 72, 64
1, 18216, Note_on_c, 1, 64, 64
1, 18239, Note_on_c, 0, 82, 0
1, 18239, Note_on_c, 1, 72, 0
1, 18239, Note_on_c, 1, 64, 0
1, 18240, Note_on_c, 0, 82, 80
1, 18240, Note_on_c, 1, 72, 64
1, 18240, Note_on_c, 1, 65, 64
1, 18252, Note_on_c, 0, 82, 0
1, 18252, Note_on_c, 0, 81, 80
1, 18263, Note_on_c, 0, 81, 0
1, 18264, Note_on_c, 0, 79, 78
1, 18276, Note_on_c, 0, 79, 0
1, 18276, Note_on_c, 0, 77, 78
1, 18285, Note_on_c, 1, 72, 0
1, 18285, Note_on_c, 1, 65, 0
1, 18288, Note_on_c, 0, 77, 0
1, 18288, Note_on_c, 0, 77, 77
1, 18308, Note_on_c, 0, 77, 0
1, 18312, Note_on_c, 1, 43, 75
1, 18324, Note_on_c, 1, 43, 0
1, 18324, Note_on_c, 1, 55, 75
1, 18336, Note_on_c, 1, 55, 0
1, 18336, Note_on_c, 1, 41, 76
1, 18348, Note_on_c, 1, 41, 0
1, 18348, Note_on_c, 1, 53, 76
1, 18360, Note_on_c, 1, 53, 0
1, 18360, Note_on_c, 1, 39, 77
1, 18372, Note_on_c, 1, 39, 0
1, 18372, Note_on_c, 1, 51, 77
1, 18384, Note_on_c, 1, 51, 0
1, 18384, Note_on_c, 1, 38, 78
1, 18396, Note_on_c, 1, 38, 0
1, 18396, Note_on_c, 1, 50, 78
1, 18408, Note_on_c, 1, 50, 0
1, 18408, Note_on_c, 1, 36, 79
1, 18420, Note_on_c, 1, 36, 0
1, 18420, Note_on_c, 1, 48, 80
1, 18432, Note_on_c, 0, 70, 80
1, 18432, Note_on_c, 0, 62, 80
1, 18432, Note_on_c, 1, 48, 0
1, 18432, Note_on_c, 1, 34, 80
1, 18455, Note_on_c, 1, 34, 0
1, 18456, Note_on_c, 1, 46, 80
1, 18479, Note_on_c, 1, 46, 0
1, 18480, Note_on_c, 1, 46, 80
1, 18499, Note_on_c, 0, 70, 0
1, 18499, Note_on_c, 0, 62, 0
1, 18503, Note_on_c, 1, 46, 0
1, 18504, Note_on_c, 0, 75, 80
1, 18504, Note_on_c, 0, 67, 80
1, 18504, Note_on_c, 1, 46, 80
1, 18527, Note_on_c, 0, 75, 0
1, 18527, Note_on_c, 0, 67, 0
1, 18527, Note_on_c, 1, 46, 0
1, 18528, Note_on_c, 0, 75, 80
1, 18528, Note_on_c, 0, 67, 80
1, 18528, Note_on_c, 1, 46, 80
1, 18551, Note_on_c, 1, 46, 0
1, 18552, Note_on_c, 0, 75, 0
1, 18552, Note_on_c, 0, 67, 0
1, 18552, Note_on_c, 0, 74, 80
1, 18552, Note_on_c, 0, 65, 80
1, 18552, Note_on_c, 1, 46, 80
1, 18575, Note_on_c, 0, 74, 0
1, 18575, Note_on_c, 0, 65, 0
1, 18575, Note_on_c, 1, 46, 0
1, 18576, Note_on_c, 0, 74, 80
1, 18576, Note_on_c, 0, 65, 80
1, 18576, Note_on_c, 1, 46, 80
1, 18599, Note_on_c, 1, 46, 0
1, 18600, Note_on_c, 0, 74, 0
1, 18600, Note_on_c, 0, 65, 0
1, 18600, Note_on_c, 0, 72, 80
1, 18600, Note_on_c, 0, 63, 80
1, 18600, Note_on_c, 1, 46, 80
1, 18623, Note_on_c, 0, 72, 0
1, 18623, Note_on_c, 0, 63, 0
1, 18623, Note_on_c, 1, 46, 0
1, 18624, Note_on_c, 0, 70, 80
1, 18624, Note_on_c, 0, 62, 80
1, 18624, Note_on_c, 1, 34, 80
1, 18647, Note_on_c, 1, 34, 0
1, 18648, Note_on_c, 1, 46, 80
1, 18671, Note_on_c, 1, 46, 0
1, 18672, Note_on_c, 1, 46, 80
1, 18691, Note_on_c, 0, 70, 0
1, 18691, Note_on_c, 0, 62, 0
1, 18695, Note_on_c, 1, 46, 0
1, 18696, Note_on_c, 0, 79, 80
1, 18696, Note_on_c, 0, 75, 80
1, 18696, Note_on_c, 1, 46, 80
1, 18719, Note_on_c, 0, 79, 0
1, 18719, Note_on_c, 0, 75, 0
1, 18719, Note_on_c, 1, 46, 0
1, 18720, Note_on_c, 0, 79, 80
1, 18720, Note_on_c, 0, 75, 80
1, 18720, Note_on_c, 1, 46, 80
1, 18743, Note_on_c, 1, 46, 0
1, 18744, Note_on_c, 0, 79, 0
1, 18744, Note_on_c, 0, 75, 0
1, 18744, Note_on_c, 0, 77, 80
1, 18744, Note_on_c, 0, 74, 80
1, 18744, Note_on_c, 1, 46, 80
1, 18767, Note_on_c, 0, 77, 0
1, 18767, Note_on_c, 0, 74, 0
1, 18767, Note_on_c, 1, 46, 0
1, 18768, Note_on_c, 0, 77, 80
1, 18768, Note_on_c, 0, 74, 80
1, 18768, Note_on_c, 1, 46, 80
1, 18791, Note_on_c, 1, 46, 0
1, 18792, Note_on_c, 0, 77, 0
1, 18792, Note_on_c, 0, 74, 0
1, 18792, Note_on_c, 0, 75, 80
1, 18792, Note_on_c, 0, 72, 80
1, 18792, Note_on_c, 1, 46, 80
1, 18815, Note_on_c, 0, 75, 0
1, 18815, Note_on_c, 0, 72, 0
1, 18815, Note_on_c, 1, 46, 0
1, 18816, Note_on_c, 0, 74, 80
1, 18816, Note_on_c, 0, 70, 80
1, 18816, Note_on_c, 1, 34, 80
1, 18839, Note_on_c, 1, 34, 0
1, 18840, Note_on_c, 1, 46, 80
1, 18863, Note_on_c, 1, 46, 0
1, 18864, Note_on_c, 1, 46, 80
1, 18883, Note_on_c, 0, 74, 0
1, 18883, Note_on_c, 0, 70, 0
1, 18884, Note_on_c, 1, 46, 0
1, 18888, Note_on_c, 0, 82, 80
1, 18888, Note_on_c, 0, 79, 80
1, 18911, Note_on_c, 0, 82, 0
1, 18911, Note_on_c, 0, 79, 0
1, 18912, Note_on_c, 0, 82, 80
1, 18912, Note_on_c, 0, 79, 80
1, 18936, Note_on_c, 0, 82, 0
1, 18936, Note_on_c, 0, 79, 0
1, 18936, Note_on_c, 0, 81, 80
1, 18936, Note_on_c, 0, 77, 80
1, 18959, Note_on_c, 0, 81, 0
1, 18959, Note_on_c, 0, 77, 0
1, 18960, Note_on_c, 0, 81, 80
1, 18960, Note_on_c, 0, 77, 80
1, 18984, Note_on_c, 0, 81, 0
1, 18984, Note_on_c, 0, 77, 0
1, 18984, Note_on_c, 0, 79, 80
1, 18984, Note_on_c, 0, 75, 80
1, 19007, Note_on_c, 0, 79, 0
1, 19007, Note_on_c, 0, 75, 0
1, 19008, Note_on_c, 0, 77, 75
1, 19008, Note_on_c, 0, 74, 75
1, 19008, Note_on_c, 1, 70, 80
1, 19031, Note_on_c, 1, 70, 0
1, 19032, Note_on_c, 1, 70, 80
1, 19055, Note_on_c, 1, 70, 0
1, 19056, Note_on_c, 1, 70, 80
1, 19079, Note_on_c, 1, 70, 0
1, 19080, Note_on_c, 1, 70, 80
1, 19097, Note_on_c, 0, 77, 0
1, 19097, Note_on_c, 0, 74, 0
1, 19103, Note_on_c, 1, 70, 0
1, 19104, Note_on_c, 0, 62, 77
1, 19108, Note_on_c, 0, 65, 77
1, 19112, Note_on_c, 0, 68, 77
1, 19116, Note_on_c, 0, 71, 77
1, 19120, Note_on_c, 0, 77, 77
1, 19124, Note_on_c, 0, 80, 77
1, 19128, Note_on_c, 0, 83, 77
1, 19132, Note_on_c, 0, 86, 77
1, 19193, Note_on_c, 0, 86, 0
1, 19193, Note_on_c, 0, 83, 0
1, 19193, Note_on_c, 0, 80, 0
1, 19193, Note_on_c, 0, 77, 0
1, 19193, Note_on_c, 0, 71, 0
1, 19193, Note_on_c, 0, 68, 0
1, 19193, Note_on_c, 0, 65, 0
1, 19193, Note_on_c, 0, 62, 0
1, 19200, Note_on_c, 0, 72, 80
1, 19200, Note_on_c, 1, 72, 80
1, 19212, Note_on_c, 0, 72, 0
1, 19212, Note_on_c, 0, 74, 80
1, 19212, Note_on_c, 1, 72, 0
1, 19212, Note_on_c, 1, 74, 80
1, 19224, Note_on_c, 0, 74, 0
1, 19224, Note_on_c, 0, 75, 81
1, 19224, Note_on_c, 1, 74, 0
1, 19224, Note_on_c, 1, 75, 80
1, 19236, Note_on_c, 0, 75, 0
1, 19236, Note_on_c, 0, 77, 82
1, 19236, Note_on_c, 1, 75, 0
1, 19236, Note_on_c, 1, 77, 80
1, 19248, Note_on_c, 0, 77, 0
1, 19248, Note_on_c, 0, 79, 83
1, 19248, Note_on_c, 1, 77, 0
1, 19260, Note_on_c, 0, 79, 0
1, 19260, Note_on_c, 0, 81, 83
1, 19272, Note_on_c, 0, 81, 0
1, 19272, Note_on_c, 0, 83, 84
1, 19284, Note_on_c, 0, 83, 0
1, 19284, Note_on_c, 0, 84, 85
1, 19290, Note_on_c, 0, 84, 0
1, 19290, Note_on_c, 0, 86, 85
1, 19296, Note_on_c, 0, 86, 0
1, 19296, Note_on_c, 0, 87, 86
1, 19316, Note_on_c, 0, 87, 0
1, 19368, Note_on_c, 0, 79, 80
1, 19376, Note_on_c, 0, 79, 0
1, 19376, Note_on_c, 0, 75, 80
1, 19384, Note_on_c, 0, 75, 0
1, 19384, Note_on_c, 0, 72, 80
1, 19392, Note_on_c, 0, 72, 0
1, 19392, Note_on_c, 0, 70, 80
1, 19440, Note_on_c, 1, 61, 76
1, 19440, Note_on_c, 1, 52, 76
1, 19485, Note_on_c, 1, 61, 0
1, 19485, Note_on_c, 1, 52, 0
1, 19488, Note_on_c, 1, 62, 73
1, 19488, Note_on_c, 1, 53, 73
1, 19525, Note_on_c, 0, 70, 0
1, 19536, Note_on_c, 0, 74, 70
1, 19536, Note_on_c, 1, 62, 0
1, 19536, Note_on_c, 1, 63, 70
1, 19542, Note_on_c, 0, 74, 0
1, 19542, Note_on_c, 0, 72, 70
1, 19559, Note_on_c, 0, 72, 0
1, 19560, Note_on_c, 0, 70, 68
1, 19581, Note_on_c, 1, 63, 0
1, 19581, Note_on_c, 1, 53, 0
1, 19583, Note_on_c, 0, 70, 0
1, 19584, Note_on_c, 0, 70, 67
1, 19584, Note_on_c, 1, 62, 67
1, 19584, Note_on_c, 1, 55, 67
1, 19629, Note_on_c, 0, 70, 0
1, 19629, Note_on_c, 1, 62, 0
1, 19629, Note_on_c, 1, 55, 0
1, 19656, Note_on_c, 0, 62, 80
1, 19656, Note_on_c, 1, 50, 80
1, 19668, Note_on_c, 0, 62, 0
1, 19668, Note_on_c, 0, 70, 80
1, 19679, Note_on_c, 1, 50, 0
1, 19680, Note_on_c, 0, 70, 0
1, 19680, Note_on_c, 0, 63, 80
1, 19680, Note_on_c, 1, 51, 80
1, 19692, Note_on_c, 0, 63, 0
1, 19692, Note_on_c, 0, 70, 80
1, 19703, Note_on_c, 1, 51, 0
1, 19704, Note_on_c, 0, 70, 0
1, 19704, Note_on_c, 0, 62, 80
1, 19704, Note_on_c, 1, 50, 80
1, 19716, Note_on_c, 0, 62, 0
1, 19716, Note_on_c, 0, 70, 81
1, 19727, Note_on_c, 1, 50, 0
1, 19728, Note_on_c, 0, 70, 0
1, 19728, Note_on_c, 0, 63, 81
1, 19728, Note_on_c, 1, 51, 81
1, 19740, Note_on_c, 0, 63, 0
1, 19740, Note_on_c, 0, 70, 82
1, 19751, Note_on_c, 1, 51, 0
1, 19752, Note_on_c, 0, 70, 0
1, 19752, Note_on_c, 0, 64, 82
1, 19752, Note_on_c, 1, 52, 82
1, 19764, Note_on_c, 0, 64, 0
1, 19764, Note_on_c, 0, 70, 82
1, 19775, Note_on_c, 1, 52, 0
1, 19776, Note_on_c, 0, 70, 0
1, 19776, Note_on_c, 0, 65, 83
1, 19776, Note_on_c, 1, 53, 83
1, 19788, Note_on_c, 0, 65, 0
1, 19788, Note_on_c, 0, 70, 83
1, 19799, Note_on_c, 1, 53, 0
1, 19800, Note_on_c, 0, 70, 0
1, 19800, Note_on_c, 0, 64, 84
1, 19800, Note_on_c, 1, 52, 83
1, 19812, Note_on_c, 0, 64, 0
1, 19812, Note_on_c, 0, 70, 84
1, 19823, Note_on_c, 1, 52, 0
1, 19824, Note_on_c, 0, 70, 0
1, 19824, Note_on_c, 0, 65, 84
1, 19824, Note_on_c, 1, 53, 84
1, 19836, Note_on_c, 0, 65, 0
1, 19836, Note_on_c, 0, 70, 85
1, 19847, Note_on_c, 1, 53, 0
1, 19848, Note_on_c, 0, 70, 0
1, 19848, Note_on_c, 0, 62, 85
1, 19848, Note_on_c, 1, 50, 85
1, 19860, Note_on_c, 0, 62, 0
1, 19860, Note_on_c, 0, 70, 86
1, 19871, Note_on_c, 1, 50, 0
1, 19872, Note_on_c, 0, 70, 0
1, 19872, Note_on_c, 0, 63, 84
1, 19872, Note_on_c, 1, 51, 86
1, 19884, Note_on_c, 0, 63, 0
1, 19884, Note_on_c, 0, 70, 83
1, 19895, Note_on_c, 1, 51, 0
1, 19896, Note_on_c, 0, 70, 0
1, 19896, Note_on_c, 0, 64, 82
1, 19896, Note_on_c, 1, 52, 83
1, 19908, Note_on_c, 0, 64, 0
1, 19908, Note_on_c, 0, 70, 81
1, 19919, Note_on_c, 1, 52, 0
1, 19920, Note_on_c, 0, 70, 0
1, 19920, Note_on_c, 0, 65, 80
1, 19920, Note_on_c, 1, 53, 81
1, 19932, Note_on_c, 0, 65, 0
1, 19932, Note_on_c, 0, 70, 79
1, 19943, Note_on_c, 1, 53, 0
1, 19944, Note_on_c, 0, 70, 0
1, 19944, Note_on_c, 0, 66, 78
1, 19944, Note_on_c, 1, 54, 79
1, 19956, Note_on_c, 0, 66, 0
1, 19956, Note_on_c, 0, 70, 77
1, 19967, Note_on_c, 1, 54, 0
1, 19968, Note_on_c, 0, 70, 0
1, 19968, Note_on_c, 0, 67, 76
1, 19968, Note_on_c, 1, 55, 76
1, 19980, Note_on_c, 0, 67, 0
1, 19980, Note_on_c, 0, 70, 75
1, 19991, Note_on_c, 1, 55, 0
1, 19992, Note_on_c, 0, 70, 0
1, 19992, Note_on_c, 0, 66, 74
1, 19992, Note_on_c, 1, 54, 74
1, 20004, Note_on_c, 0, 66, 0
1, 20004, Note_on_c, 0, 70, 73
1, 20015, Note_on_c, 1, 54, 0
1, 20016, Note_on_c, 0, 70, 0
1, 20016, Note_on_c, 0, 67, 72
1, 20016, Note_on_c, 1, 55, 72
1, 20039, Note_on_c, 0, 67, 0
1, 20039, Note_on_c, 1, 55, 0
1, 20040, Note_on_c, 0, 79, 70
1, 20040, Note_on_c, 0, 75, 70
1, 20040, Note_on_c, 1, 51, 70
1, 20063, Note_on_c, 0, 79, 0
1, 20063, Note_on_c, 0, 75, 0
1, 20063, Note_on_c, 1, 51, 0
1, 20064, Note_on_c, 0, 79, 70
1, 20064, Note_on_c, 0, 75, 70
1, 20064, Note_on_c, 1, 53, 70
1, 20088, Note_on_c, 0, 79, 0
1, 20088, Note_on_c, 0, 75, 0
1, 20088, Note_on_c, 0, 77, 70
1, 20088, Note_on_c, 0, 74, 70
1, 20109, Note_on_c, 1, 53, 0
1, 20111, Note_on_c, 0, 77, 0
1, 20111, Note_on_c, 0, 74, 0
1, 20112, Note_on_c, 1, 41, 70
1, 20136, Note_on_c, 0, 69, 70
1, 20136, Note_on_c, 0, 63, 70
1, 20157, Note_on_c, 1, 41, 0
1, 20159, Note_on_c, 0, 69, 0
1, 20159, Note_on_c, 0, 63, 0
1, 20160, Note_on_c, 0, 69, 70
1, 20160, Note_on_c, 0, 63, 70
1, 20160, Note_on_c, 1, 55, 70
1, 20184, Note_on_c, 0, 69, 0
1, 20184, Note_on_c, 0, 63, 0
1, 20184, Note_on_c, 0, 70, 70
1, 20184, Note_on_c, 0, 62, 70
1, 20205, Note_on_c, 1, 55, 0
1, 20207, Note_on_c, 0, 70, 0
1, 20207, Note_on_c, 0, 62, 0
1, 20208, Note_on_c, 1, 51, 70
1, 20232, Note_on_c, 0, 79, 70
1, 20232, Note_on_c, 0, 75, 70
1, 20253, Note_on_c, 1, 51, 0
1, 20255, Note_on_c, 0, 79, 0
1, 20255, Note_on_c, 0, 75, 0
1, 20256, Note_on_c, 0, 79, 70
1, 20256, Note_on_c, 0, 75, 70
1, 20256, Note_on_c, 1, 53, 70
1, 20280, Note_on_c, 0, 79, 0
1, 20280, Note_on_c, 0, 75, 0
1, 20280, Note_on_c, 0, 77, 70
1, 20280, Note_on_c, 0, 74, 70
1, 20301, Note_on_c, 1, 53, 0
1, 20303, Note_on_c, 0, 77, 0
1, 20303, Note_on_c, 0, 74, 0
1, 20304, Note_on_c, 1, 41, 70
1, 20328, Note_on_c, 0, 69, 75
1, 20328, Note_on_c, 0, 63, 75
1, 20349, Note_on_c, 1, 41, 0
1, 20351, Note_on_c, 0, 69, 0
1, 20351, Note_on_c, 0, 63, 0
1, 20352, Note_on_c, 0, 70, 75
1, 20352, Note_on_c, 1, 62, 75
1, 20352, Note_on_c, 1, 58, 75
1, 20364, Note_on_c, 0, 70, 0
1, 20364, Note_on_c, 0, 77, 75
1, 20376, Note_on_c, 0, 77, 0
1, 20376, Note_on_c, 0, 74, 75
1, 20388, Note_on_c, 0, 74, 0
1, 20388, Note_on_c, 0, 70, 75
1, 20397, Note_on_c, 1, 62, 0
1, 20397, Note_on_c, 1, 58, 0
1, 20400, Note_on_c, 0, 70, 0
1, 20400, Note_on_c, 0, 65, 75
1, 20412, Note_on_c, 0, 65, 0
1, 20412, Note_on_c, 0, 70, 75
1, 20424, Note_on_c, 0, 70, 0
1, 20424, Note_on_c, 0, 69, 75
1, 20424, Note_on_c, 1, 63, 75
1, 20436, Note_on_c, 0, 69, 0
1, 20436, Note_on_c, 0, 72, 75
1, 20447, Note_on_c, 1, 63, 0
1, 20448, Note_on_c, 0, 72, 0
1, 20448, Note_on_c, 0, 70, 75
1, 20448, Note_on_c, 1, 62, 75
1, 20460, Note_on_c, 0, 70, 0
1, 20460, Note_on_c, 0, 77, 75
1, 20472, Note_on_c, 0, 77, 0
1, 20472, Note_on_c, 0, 74, 75
1, 20484, Note_on_c, 0, 74, 0
1, 20484, Note_on_c, 0, 70, 75
1, 20493, Note_on_c, 1, 62, 0
1, 20496, Note_on_c, 0, 70, 0
1, 20496, Note_on_c, 0, 65, 75
1, 20508, Note_on_c, 0, 65, 0
1, 20508, Note_on_c, 0, 70, 75
1, 20520, Note_on_c, 0, 70, 0
1, 20520, Note_on_c, 0, 69, 75
1, 20520, Note_on_c, 1, 63, 75
1, 20532, Note_on_c, 0, 69, 0
1, 20532, Note_on_c, 0, 72, 75
1, 20543, Note_on_c, 1, 63, 0
1, 20544, Note_on_c, 0, 72, 0
1, 20544, Note_on_c, 0, 70, 75
1, 20544, Note_on_c, 1, 62, 75
1, 20589, Note_on_c, 0, 70, 0
1, 20589, Note_on_c, 1, 62, 0
1, 20592, Note_on_c, 0, 86, 75
1, 20592, Note_on_c, 0, 82, 75
1, 20637, Note_on_c, 0, 86, 0
1, 20637, Note_on_c, 0, 82, 0
1, 20736, Note_on_c, 0, 67, 80
1, 20736, Note_on_c, 1, 55, 80
1, 20736, Note_on_c, 1, 43, 80
1, 20825, Note_on_c, 0, 67, 0
1, 20832, Note_on_c, 0, 59, 80
1, 20855, Note_on_c, 0, 59, 0
1, 20856, Note_on_c, 0, 60, 80
1, 20864, Note_on_c, 0, 60, 0
1, 20864, Note_on_c, 0, 59, 80
1, 20872, Note_on_c, 0, 59, 0
1, 20872, Note_on_c, 0, 57, 80
1, 20880, Note_on_c, 0, 57, 0
1, 20880, Note_on_c, 0, 59, 80
1, 20903, Note_on_c, 0, 59, 0
1, 20904, Note_on_c, 0, 60, 80
1, 20913, Note_on_c, 1, 55, 0
1, 20913, Note_on_c, 1, 43, 0
1, 20927, Note_on_c, 0, 60, 0
1, 20928, Note_on_c, 0, 62, 80
1, 20928, Note_on_c, 1, 53, 80
1, 20928, Note_on_c, 1, 41, 80
1, 20973, Note_on_c, 0, 62, 0
1, 20976, Note_on_c, 0, 55, 80
1, 21021, Note_on_c, 0, 55, 0
1, 21096, Note_on_c, 0, 84, 64
1, 21105, Note_on_c, 1, 53, 0
1, 21105, Note_on_c, 1, 41, 0
1, 21120, Note_on_c, 0, 84, 0
1, 21120, Note_on_c, 0, 72, 64
1, 21143, Note_on_c, 0, 72, 0
1, 21144, Note_on_c, 1, 67, 64
1, 21168, Note_on_c, 1, 67, 0
1, 21168, Note_on_c, 1, 63, 64
1, 21191, Note_on_c, 1, 63, 0
1, 21192, Note_on_c, 0, 84, 64
1, 21216, Note_on_c, 0, 84, 0
1, 21216, Note_on_c, 0, 74, 64
1, 21239, Note_on_c, 0, 74, 0
1, 21240, Note_on_c, 1, 68, 64
1, 21264, Note_on_c, 1, 68, 0
1, 21264, Note_on_c, 1, 65, 64
1, 21287, Note_on_c, 1, 65, 0
1, 21288, Note_on_c, 0, 84, 64
1, 21311, Note_on_c, 0, 84, 0
1, 21312, Note_on_c, 0, 76, 64
1, 21335, Note_on_c, 0, 76, 0
1, 21336, Note_on_c, 1, 70, 64
1, 21360, Note_on_c, 1, 70, 0
1, 21360, Note_on_c, 1, 67, 64
1, 21383, Note_on_c, 1, 67, 0
1, 21384, Note_on_c, 0, 84, 64
1, 21407, Note_on_c, 0, 84, 0
1, 21408, Note_on_c, 0, 77, 64
1, 21408, Note_on_c, 1, 68, 64
1, 21420, Note_on_c, 0, 77, 0
1, 21420, Note_on_c, 0, 80, 66
1, 21432, Note_on_c, 0, 80, 0
1, 21432, Note_on_c, 0, 84, 68
1, 21444, Note_on_c, 0, 84, 0
1, 21444, Note_on_c, 0, 82, 70
1, 21453, Note_on_c, 1, 68, 0
1, 21456, Note_on_c, 0, 82, 0
1, 21456, Note_on_c, 0, 80, 72
1, 21468, Note_on_c, 0, 80, 0
1, 21468, Note_on_c, 0, 79, 74
1, 21480, Note_on_c, 0, 79, 0
1, 21480, Note_on_c, 0, 77, 76
1, 21492, Note_on_c, 0, 77, 0
1, 21492, Note_on_c, 0, 75, 78
1, 21504, Note_on_c, 0, 75, 0
1, 21504, Note_on_c, 0, 74, 80
1, 21504, Note_on_c, 1, 58, 80
1, 21504, Note_on_c, 1, 46, 80
1, 21516, Note_on_c, 0, 74, 0
1, 21516, Note_on_c, 0, 75, 80
1, 21528, Note_on_c, 0, 75, 0
1, 21528, Note_on_c, 0, 77, 80
1, 21540, Note_on_c, 0, 77, 0
1, 21540, Note_on_c, 0, 75, 80
1, 21552, Note_on_c, 0, 75, 0
1, 21552, Note_on_c, 0, 74, 80
1, 21564, Note_on_c, 0, 74, 0
1, 21564, Note_on_c, 0, 72, 80
1, 21576, Note_on_c, 0, 72, 0
1, 21576, Note_on_c, 0, 70, 80
1, 21588, Note_on_c, 0, 70, 0
1, 21588, Note_on_c, 0, 69, 80
1, 21593, Note_on_c, 1, 58, 0
1, 21593, Note_on_c, 1, 46, 0
1, 21600, Note_on_c, 0, 69, 0
1, 21600, Note_on_c, 0, 70, 80
1, 21600, Note_on_c, 1, 38, 80
1, 21600, Note_on_c, 1, 50, 80
1, 21623, Note_on_c, 0, 70, 0
1, 21623, Note_on_c, 1, 50, 0
1, 21624, Note_on_c, 0, 89, 80
1, 21624, Note_on_c, 1, 51, 80
1, 21632, Note_on_c, 1, 51, 0
1, 21632, Note_on_c, 1, 50, 80
1, 21640, Note_on_c, 1, 50, 0
1, 21640, Note_on_c, 1, 48, 80
1, 21647, Note_on_c, 0, 89, 0
1, 21648, Note_on_c, 0, 87, 80
1, 21648, Note_on_c, 1, 48, 0
1, 21648, Note_on_c, 1, 50, 80
1, 21660, Note_on_c, 0, 87, 0
1, 21660, Note_on_c, 0, 86, 80
1, 21667, Note_on_c, 1, 38, 0
1, 21671, Note_on_c, 1, 50, 0
1, 21672, Note_on_c, 0, 86, 0
1, 21672, Note_on_c, 0, 84, 80
1, 21672, Note_on_c, 1, 51, 80
1, 21672, Note_on_c, 1, 39, 80
1, 21684, Note_on_c, 0, 84, 0
1, 21684, Note_on_c, 0, 82, 80
1, 21695, Note_on_c, 1, 51, 0
1, 21695, Note_on_c, 1, 39, 0
1, 21696, Note_on_c, 0, 82, 0
1, 21696, Note_on_c, 0, 80, 80
1, 21696, Note_on_c, 1, 53, 80
1, 21696, Note_on_c, 1, 41, 80
1, 21708, Note_on_c, 0, 80, 0
1, 21708, Note_on_c, 0, 82, 80
1, 21720, Note_on_c, 0, 82, 0
1, 21720, Note_on_c, 0, 84, 80
1, 21732, Note_on_c, 0, 84, 0
1, 21732, Note_on_c, 0, 82, 80
1, 21741, Note_on_c, 1, 53, 0
1, 21741, Note_on_c, 1, 41, 0
1, 21744, Note_on_c, 0, 82, 0
1, 21744, Note_on_c, 0, 80, 80
1, 21744, Note_on_c, 1, 46, 80
1, 21744, Note_on_c, 1, 34, 80
1, 21756, Note_on_c, 0, 80, 0
1, 21756, Note_on_c, 0, 79, 80
1, 21768, Note_on_c, 0, 79, 0
1, 21768, Note_on_c, 0, 77, 80
1, 21780, Note_on_c, 0, 77, 0
1, 21780, Note_on_c, 0, 75, 80
1, 21789, Note_on_c, 1, 46, 0
1, 21789, Note_on_c, 1, 34, 0
1, 21792, Note_on_c, 0, 75, 0
1, 21792, Note_on_c, 0, 74, 80
1, 21804, Note_on_c, 0, 74, 0
1, 21804, Note_on_c, 0, 75, 80
1, 21816, Note_on_c, 0, 75, 0
1, 21816, Note_on_c, 0, 77, 80
1, 21828, Note_on_c, 0, 77, 0
1, 21828, Note_on_c, 0, 75, 80
1, 21840, Note_on_c, 0, 75, 0
1, 21840, Note_on_c, 0, 74, 80
1, 21852, Note_on_c, 0, 74, 0
1, 21852, Note_on_c, 0, 72, 80
1, 21864, Note_on_c, 0, 72, 0
1, 21864, Note_on_c, 0, 70, 80
1, 21876, Note_on_c, 0, 70, 0
1, 21876, Note_on_c, 0, 68, 80
1, 21888, Note_on_c, 0, 68, 0
1, 21888, Note_on_c, 0, 67, 80
1, 21888, Note_on_c, 1, 63, 80
1, 21888, Note_on_c, 1, 51, 80
1, 21888, Note_on_c, 1, 55, 80
1, 21900, Note_on_c, 0, 67, 0
1, 21900, Note_on_c, 0, 68, 80
1, 21912, Note_on_c, 0, 68, 0
1, 21912, Note_on_c, 0, 70, 80
1, 21924, Note_on_c, 0, 70, 0
1, 21924, Note_on_c, 0, 68, 80
1, 21936, Note_on_c, 0, 68, 0
1, 21936, Note_on_c, 0, 67, 80
1, 21948, Note_on_c, 0, 67, 0
1, 21948, Note_on_c, 0, 65, 80
1, 21960, Note_on_c, 0, 65, 0
1, 21960, Note_on_c, 0, 63, 80
1, 21972, Note_on_c, 0, 63, 0
1, 21972, Note_on_c, 0, 62, 80
1, 21977, Note_on_c, 1, 63, 0
1, 21977, Note_on_c, 1, 51, 0
1, 21977, Note_on_c, 1, 55, 0
1, 21984, Note_on_c, 0, 62, 0
1, 21984, Note_on_c, 0, 63, 80
1, 21984, Note_on_c, 1, 43, 80
1, 21984, Note_on_c, 1, 55, 80
1, 22007, Note_on_c, 0, 63, 0
1, 22007, Note_on_c, 1, 55, 0
1, 22008, Note_on_c, 0, 82, 80
1, 22008, Note_on_c, 1, 56, 80
1, 22016, Note_on_c, 1, 56, 0
1, 22016, Note_on_c, 1, 55, 80
1, 22024, Note_on_c, 1, 55, 0
1, 22024, Note_on_c, 1, 53, 80
1, 22031, Note_on_c, 0, 82, 0
1, 22032, Note_on_c, 0, 80, 80
1, 22032, Note_on_c, 1, 53, 0
1, 22032, Note_on_c, 1, 55, 80
1, 22044, Note_on_c, 0, 80, 0
1, 22044, Note_on_c, 0, 79, 80
1, 22051, Note_on_c, 1, 43, 0
1, 22055, Note_on_c, 1, 55, 0
1, 22056, Note_on_c, 0, 79, 0
1, 22056, Note_on_c, 0, 77, 80
1, 22056, Note_on_c, 1, 56, 80
1, 22056, Note_on_c, 1, 44, 80
1, 22068, Note_on_c, 0, 77, 0
1, 22068, Note_on_c, 0, 75, 80
1, 22079, Note_on_c, 1, 56, 0
1, 22079, Note_on_c, 1, 44, 0
1, 22080, Note_on_c, 0, 75, 0
1, 22080, Note_on_c, 0, 73, 80
1, 22080, Note_on_c, 1, 58, 80
1, 22080, Note_on_c, 1, 46, 80
1, 22092, Note_on_c, 0, 73, 0
1, 22092, Note_on_c, 0, 75, 80
1, 22104, Note_on_c, 0, 75, 0
1, 22104, Note_on_c, 0, 77, 80
1, 22116, Note_on_c, 0, 77, 0
1, 22116, Note_on_c, 0, 75, 80
1, 22125, Note_on_c, 1, 58, 0
1, 22125, Note_on_c, 1, 46, 0
1, 22128, Note_on_c, 0, 75, 0
1, 22128, Note_on_c, 0, 73, 80
1, 22128, Note_on_c, 1, 51, 80
1, 22128, Note_on_c, 1, 39, 80
1, 22140, Note_on_c, 0, 73, 0
1, 22140, Note_on_c, 0, 72, 80
1, 22152, Note_on_c, 0, 72, 0
1, 22152, Note_on_c, 0, 70, 80
1, 22164, Note_on_c, 0, 70, 0
1, 22164, Note_on_c, 0, 68, 80
1, 22173, Note_on_c, 1, 51, 0
1, 22173, Note_on_c, 1, 39, 0
1, 22176, Note_on_c, 0, 68, 0
1, 22176, Note_on_c, 0, 67, 80
1, 22188, Note_on_c, 0, 67, 0
1, 22188, Note_on_c, 0, 68, 80
1, 22200, Note_on_c, 0, 68, 0
1, 22200, Note_on_c, 0, 70, 80
1, 22212, Note_on_c, 0, 70, 0
1, 22212, Note_on_c, 0, 68, 80
1, 22224, Note_on_c, 0, 68, 0
1, 22224, Note_on_c, 0, 67, 80
1, 22236, Note_on_c, 0, 67, 0
1, 22236, Note_on_c, 0, 65, 80
1, 22248, Note_on_c, 0, 65, 0
1, 22248, Note_on_c, 0, 64, 80
1, 22260, Note_on_c, 0, 64, 0
1, 22260, Note_on_c, 0, 62, 80
1, 22272, Note_on_c, 0, 62, 0
1, 22272, Note_on_c, 0, 60, 80
1, 22272, Note_on_c, 1, 48, 80
1, 22272, Note_on_c, 1, 36, 80
1, 22361, Note_on_c, 0, 60, 0
1, 22361, Note_on_c, 1, 48, 0
1, 22361, Note_on_c, 1, 36, 0
1, 22368, Note_on_c, 0, 52, 80
1, 22368, Note_on_c, 1, 40, 80
1, 22391, Note_on_c, 0, 52, 0
1, 22392, Note_on_c, 0, 53, 80
1, 22400, Note_on_c, 0, 53, 0
1, 22400, Note_on_c, 0, 52, 80
1, 22408, Note_on_c, 0, 52, 0
1, 22408, Note_on_c, 0, 50, 80
1, 22416, Note_on_c, 0, 50, 0
1, 22416, Note_on_c, 0, 52, 80
1, 22435, Note_on_c, 1, 40, 0
1, 22439, Note_on_c, 0, 52, 0
1, 22440, Note_on_c, 0, 53, 80
1, 22440, Note_on_c, 1, 41, 80
1, 22463, Note_on_c, 0, 53, 0
1, 22463, Note_on_c, 1, 41, 0
1, 22464, Note_on_c, 1, 55, 80
1, 22464, Note_on_c, 1, 43, 80
1, 22509, Note_on_c, 1, 55, 0
1, 22509, Note_on_c, 1, 43, 0
1, 22512, Note_on_c, 1, 48, 80
1, 22512, Note_on_c, 1, 36, 80
1, 22557, Note_on_c, 1, 48, 0
1, 22557, Note_on_c, 1, 36, 0
1, 22656, Note_on_c, 0, 65, 75
1, 22656, Note_on_c, 0, 56, 75
1, 22656, Note_on_c, 1, 41, 75
1, 22679, Note_on_c, 1, 41, 0
1, 22680, Note_on_c, 1, 53, 75
1, 22703, Note_on_c, 1, 53, 0
1, 22704, Note_on_c, 1, 53, 75
1, 22723, Note_on_c, 0, 65, 0
1, 22723, Note_on_c, 0, 56, 0
1, 22727, Note_on_c, 1, 53, 0
1, 22728, Note_on_c, 0, 70, 75
1, 22728, Note_on_c, 0, 61, 75
1, 22728, Note_on_c, 1, 53, 75
1, 22751, Note_on_c, 0, 70, 0
1, 22751, Note_on_c, 0, 61, 0
1, 22751, Note_on_c, 1, 53, 0
1, 22752, Note_on_c, 0, 70, 75
1, 22752, Note_on_c, 0, 61, 75
1, 22752, Note_on_c, 1, 53, 75
1, 22775, Note_on_c, 1, 53, 0
1, 22776, Note_on_c, 0, 70, 0
1, 22776, Note_on_c, 0, 61, 0
1, 22776, Note_on_c, 0, 68, 75
1, 22776, Note_on_c, 0, 60, 75
1, 22776, Note_on_c, 1, 53, 75
1, 22799, Note_on_c, 0, 68, 0
1, 22799, Note_on_c, 0, 60, 0
1, 22799, Note_on_c, 1, 53, 0
1, 22800, Note_on_c, 0, 68, 75
1, 22800, Note_on_c, 0, 60, 75
1, 22800, Note_on_c, 1, 53, 75
1, 22823, Note_on_c, 1, 53, 0
1, 22824, Note_on_c, 0, 68, 0
1, 22824, Note_on_c, 0, 60, 0
1, 22824, Note_on_c, 0, 67, 75
1, 22824, Note_on_c, 0, 58, 75
1, 22824, Note_on_c, 1, 53, 75
1, 22847, Note_on_c, 0, 67, 0
1, 22847, Note_on_c, 0, 58, 0
1, 22847, Note_on_c, 1, 53, 0
1, 22848, Note_on_c, 0, 65, 75
1, 22848, Note_on_c, 0, 56, 75
1, 22848, Note_on_c, 1, 41, 75
1, 22871, Note_on_c, 1, 41, 0
1, 22872, Note_on_c, 1, 53, 75
1, 22895, Note_on_c, 1, 53, 0
1, 22896, Note_on_c, 1, 53, 75
1, 22915, Note_on_c, 0, 65, 0
1, 22915, Note_on_c, 0, 56, 0
1, 22919, Note_on_c, 1, 53, 0
1, 22920, Note_on_c, 0, 73, 75
1, 22920, Note_on_c, 0, 70, 75
1, 22920, Note_on_c, 1, 53, 75
1, 22943, Note_on_c, 0, 73, 0
1, 22943, Note_on_c, 0, 70, 0
1, 22943, Note_on_c, 1, 53, 0
1, 22944, Note_on_c, 0, 73, 75
1, 22944, Note_on_c, 0, 70, 75
1, 22944, Note_on_c, 1, 53, 75
1, 22967, Note_on_c, 1, 53, 0
1, 22968, Note_on_c, 0, 73, 0
1, 22968, Note_on_c, 0, 70, 0
1, 22968, Note_on_c, 0, 72, 75
1, 22968, Note_on_c, 0, 68, 75
1, 22968, Note_on_c, 1, 53, 75
1, 22991, Note_on_c, 0, 72, 0
1, 22991, Note_on_c, 0, 68, 0
1, 22991, Note_on_c, 1, 53, 0
1, 22992, Note_on_c, 0, 72, 75
1, 22992, Note_on_c, 0, 68, 75
1, 22992, Note_on_c, 1, 53, 75
1, 23015, Note_on_c, 1, 53, 0
1, 23016, Note_on_c, 0, 72, 0
1, 23016, Note_on_c, 0, 68, 0
1, 23016, Note_on_c, 0, 70, 75
1, 23016, Note_on_c, 0, 67, 75
1, 23016, Note_on_c, 1, 53, 75
1, 23039, Note_on_c, 0, 70, 0
1, 23039, Note_on_c, 0, 67, 0
1, 23039, Note_on_c, 1, 53, 0
1, 23040, Note_on_c, 0, 68, 75
1, 23040, Note_on_c, 0, 65, 75
1, 23040, Note_on_c, 1, 41, 75
1, 23063, Note_on_c, 1, 41, 0
1, 23064, Note_on_c, 1, 53, 75
1, 23087, Note_on_c, 1, 53, 0
1, 23088, Note_on_c, 1, 53, 75
1, 23107, Note_on_c, 0, 68, 0
1, 23107, Note_on_c, 0, 65, 0
1, 23112, Note_on_c, 0, 77, 75
1, 23112, Note_on_c, 0, 73, 75
1, 23133, Note_on_c, 1, 53, 0
1, 23135, Note_on_c, 0, 77, 0
1, 23135, Note_on_c, 0, 73, 0
1, 23136, Note_on_c, 0, 77, 75
1, 23136, Note_on_c, 0, 73, 75
1, 23160, Note_on_c, 0, 77, 0
1, 23160, Note_on_c, 0, 73, 0
1, 23160, Note_on_c, 0, 75, 75
1, 23160, Note_on_c, 0, 72, 75
1, 23183, Note_on_c, 0, 75, 0
1, 23183, Note_on_c, 0, 72, 0
1, 23184, Note_on_c, 0, 75, 75
1, 23184, Note_on_c, 0, 72, 75
1, 23208, Note_on_c, 0, 75, 0
1, 23208, Note_on_c, 0, 72, 0
1, 23208, Note_on_c, 0, 73, 75
1, 23208, Note_on_c, 0, 70, 75
1, 23231, Note_on_c, 0, 73, 0
1, 23231, Note_on_c, 0, 70, 0
1, 23232, Note_on_c, 0, 72, 80
1, 23232, Note_on_c, 0, 69, 80
1, 23232, Note_on_c, 1, 53, 80
1, 23244, Note_on_c, 1, 53, 0
1, 23244, Note_on_c, 1, 63, 80
1, 23255, Note_on_c, 0, 69, 0
1, 23256, Note_on_c, 0, 70, 80
1, 23256, Note_on_c, 1, 63, 0
1, 23256, Note_on_c, 1, 54, 80
1, 23268, Note_on_c, 1, 54, 0
1, 23268, Note_on_c, 1, 63, 80
1, 23279, Note_on_c, 0, 70, 0
1, 23280, Note_on_c, 0, 69, 80
1, 23280, Note_on_c, 1, 63, 0
1, 23280, Note_on_c, 1, 53, 80
1, 23292, Note_on_c, 1, 53, 0
1, 23292, Note_on_c, 1, 63, 80
1, 23303, Note_on_c, 0, 69, 0
1, 23304, Note_on_c, 0, 70, 80
1, 23304, Note_on_c, 1, 63, 0
1, 23304, Note_on_c, 1, 54, 80
1, 23316, Note_on_c, 1, 54, 0
1, 23316, Note_on_c, 1, 63, 80
1, 23327, Note_on_c, 0, 70, 0
1, 23328, Note_on_c, 0, 69, 80
1, 23328, Note_on_c, 1, 63, 0
1, 23328, Note_on_c, 1, 53, 80
1, 23351, Note_on_c, 0, 72, 0
1, 23351, Note_on_c, 0, 69, 0
1, 23352, Note_on_c, 0, 78, 80
1, 23352, Note_on_c, 0, 75, 80
1, 23373, Note_on_c, 1, 53, 0
1, 23375, Note_on_c, 0, 78, 0
1, 23375, Note_on_c, 0, 75, 0
1, 23376, Note_on_c, 0, 77, 80
1, 23376, Note_on_c, 0, 73, 80
1, 23399, Note_on_c, 0, 77, 0
1, 23399, Note_on_c, 0, 73, 0
1, 23400, Note_on_c, 0, 75, 80
1, 23400, Note_on_c, 0, 72, 80
1, 23423, Note_on_c, 0, 75, 0
1, 23423, Note_on_c, 0, 72, 0
1, 23424, Note_on_c, 0, 74, 80
1, 23424, Note_on_c, 0, 68, 80
1, 23424, Note_on_c, 1, 58, 80
1, 23436, Note_on_c, 1, 58, 0
1, 23436, Note_on_c, 1, 65, 80
1, 23447, Note_on_c, 0, 74, 0
1, 23448, Note_on_c, 0, 75, 80
1, 23448, Note_on_c, 1, 65, 0
1, 23448, Note_on_c, 1, 59, 80
1, 23460, Note_on_c, 1, 59, 0
1, 23460, Note_on_c, 1, 65, 80
1, 23471, Note_on_c, 0, 75, 0
1, 23472, Note_on_c, 0, 74, 80
1, 23472, Note_on_c, 1, 65, 0
1, 23472, Note_on_c, 1, 58, 80
1, 23484, Note_on_c, 1, 58, 0
1, 23484, Note_on_c, 1, 65, 80
1, 23495, Note_on_c, 0, 74, 0
1, 23496, Note_on_c, 0, 75, 80
1, 23496, Note_on_c, 1, 65, 0
1, 23496, Note_on_c, 1, 59, 80
1, 23508, Note_on_c, 1, 59, 0
1, 23508, Note_on_c, 1, 65, 80
1, 23519, Note_on_c, 0, 75, 0
1, 23520, Note_on_c, 0, 74, 80
1, 23520, Note_on_c, 1, 65, 0
1, 23520, Note_on_c, 1, 58, 80
1, 23543, Note_on_c, 0, 74, 0
1, 23543, Note_on_c, 0, 68, 0
1, 23544, Note_on_c, 0, 84, 80
1, 23544, Note_on_c, 0, 80, 80
1, 23565, Note_on_c, 1, 58, 0
1, 23567, Note_on_c, 0, 84, 0
1, 23567, Note_on_c, 0, 80, 0
1, 23568, Note_on_c, 0, 82, 80
1, 23568, Note_on_c, 0, 79, 80
1, 23591, Note_on_c, 0, 82, 0
1, 23591, Note_on_c, 0, 79, 0
1, 23592, Note_on_c, 0, 80, 80
1, 23592, Note_on_c, 0, 77, 80
1, 23615, Note_on_c, 0, 80, 0
1, 23615, Note_on_c, 0, 77, 0
1, 23616, Note_on_c, 0, 79, 80
1, 23616, Note_on_c, 0, 75, 80
1, 23616, Note_on_c, 1, 63, 80
1, 23628, Note_on_c, 1, 63, 0
1, 23628, Note_on_c, 1, 70, 80
1, 23639, Note_on_c, 0, 79, 0
1, 23640, Note_on_c, 0, 80, 80
1, 23640, Note_on_c, 1, 70, 0
1, 23640, Note_on_c, 1, 64, 80
1, 23652, Note_on_c, 1, 64, 0
1, 23652, Note_on_c, 1, 70, 80
1, 23663, Note_on_c, 0, 80, 0
1, 23664, Note_on_c, 0, 79, 80
1, 23664, Note_on_c, 1, 70, 0
1, 23664, Note_on_c, 1, 63, 80
1, 23676, Note_on_c, 1, 63, 0
1, 23676, Note_on_c, 1, 70, 80
1, 23687, Note_on_c, 0, 79, 0
1, 23688, Note_on_c, 0, 80, 80
1, 23688, Note_on_c, 1, 70, 0
1, 23688, Note_on_c, 1, 64, 80
1, 23700, Note_on_c, 1, 64, 0
1, 23700, Note_on_c, 1, 70, 80
1, 23711, Note_on_c, 0, 80, 0
1, 23712, Note_on_c, 0, 79, 80
1, 23712, Note_on_c, 1, 70, 0
1, 23712, Note_on_c, 1, 63, 80
1, 23735, Note_on_c, 0, 79, 0
1, 23735, Note_on_c, 0, 75, 0
1, 23736, Note_on_c, 0, 77, 80
1, 23736, Note_on_c, 0, 73, 80
1, 23757, Note_on_c, 1, 63, 0
1, 23759, Note_on_c, 0, 77, 0
1, 23759, Note_on_c, 0, 73, 0
1, 23760, Note_on_c, 0, 75, 80
1, 23760, Note_on_c, 0, 72, 80
1, 23783, Note_on_c, 0, 75, 0
1, 23783, Note_on_c, 0, 72, 0
1, 23784, Note_on_c, 0, 73, 80
1, 23784, Note_on_c, 0, 70, 80
1, 23807, Note_on_c, 0, 73, 0
1, 23807, Note_on_c, 0, 70, 0
1, 23808, Note_on_c, 0, 72, 80
1, 23808, Note_on_c, 0, 68, 80
1, 23808, Note_on_c, 1, 56, 80
1, 23808, Note_on_c, 1, 51, 80
1, 23808, Note_on_c, 1, 48, 80
1, 23808, Note_on_c, 1, 44, 80
1, 23831, Note_on_c, 0, 72, 0
1, 23831, Note_on_c, 0, 68, 0
1, 23832, Note_on_c, 0, 63, 80
1, 23840, Note_on_c, 0, 63, 0
1, 23840, Note_on_c, 0, 65, 80
1, 23848, Note_on_c, 0, 65, 0
1, 23848, Note_on_c, 0, 63, 80
1, 23853, Note_on_c, 1, 56, 0
1, 23853, Note_on_c, 1, 51, 0
1, 23853, Note_on_c, 1, 48, 0
1, 23853, Note_on_c, 1, 44, 0
1, 23856, Note_on_c, 0, 63, 0
1, 23856, Note_on_c, 0, 68, 80
1, 23879, Note_on_c, 0, 68, 0
1, 23880, Note_on_c, 0, 60, 80
1, 23880, Note_on_c, 1, 56, 80
1, 23892, Note_on_c, 0, 60, 0
1, 23892, Note_on_c, 0, 68, 80
1, 23903, Note_on_c, 1, 56, 0
1, 23904, Note_on_c, 0, 68, 0
1, 23904, Note_on_c, 0, 61, 80
1, 23904, Note_on_c, 1, 58, 80
1, 23916, Note_on_c, 0, 61, 0
1, 23916, Note_on_c, 0, 68, 80
1, 23927, Note_on_c, 1, 58, 0
1, 23928, Note_on_c, 0, 68, 0
1, 23928, Note_on_c, 0, 60, 80
1, 23928, Note_on_c, 1, 56, 80
1, 23940, Note_on_c, 0, 60, 0
1, 23940, Note_on_c, 0, 68, 80
1, 23951, Note_on_c, 1, 56, 0
1, 23952, Note_on_c, 0, 68, 0
1, 23952, Note_on_c, 0, 61, 80
1, 23952, Note_on_c, 1, 58, 80
1, 23964, Note_on_c, 0, 61, 0
1, 23964, Note_on_c, 0, 68, 80
1, 23975, Note_on_c, 1, 58, 0
1, 23976, Note_on_c, 0, 68, 0
1, 23976, Note_on_c, 0, 63, 80
1, 23976, Note_on_c, 1, 60, 80
1, 23988, Note_on_c, 0, 63, 0
1, 23988, Note_on_c, 0, 68, 80
1, 23999, Note_on_c, 1, 60, 0
1, 24000, Note_on_c, 0, 68, 0
1, 24000, Note_on_c, 0, 65, 80
1, 24000, Note_on_c, 1, 61, 80
1, 24023, Note_on_c, 0, 65, 0
1, 24024, Note_on_c, 0, 73, 80
1, 24024, Note_on_c, 0, 65, 80
1, 24045, Note_on_c, 1, 61, 0
1, 24047, Note_on_c, 0, 73, 0
1, 24047, Note_on_c, 0, 65, 0
1, 24048, Note_on_c, 0, 73, 80
1, 24048, Note_on_c, 0, 65, 80
1, 24071, Note_on_c, 0, 73, 0
1, 24071, Note_on_c, 0, 65, 0
1, 24072, Note_on_c, 0, 73, 80
1, 24072, Note_on_c, 0, 65, 80
1, 24095, Note_on_c, 0, 73, 0
1, 24095, Note_on_c, 0, 65, 0
1, 24096, Note_on_c, 0, 73, 80
1, 24096, Note_on_c, 0, 65, 80
1, 24120, Note_on_c, 0, 73, 0
1, 24120, Note_on_c, 0, 65, 0
1, 24120, Note_on_c, 0, 72, 80
1, 24120, Note_on_c, 0, 63, 80
1, 24143, Note_on_c, 0, 72, 0
1, 24143, Note_on_c, 0, 63, 0
1, 24144, Note_on_c, 0, 72, 80
1, 24144, Note_on_c, 0, 63, 80
1, 24168, Note_on_c, 0, 72, 0
1, 24168, Note_on_c, 0, 63, 0
1, 24168, Note_on_c, 0, 70, 80
1, 24168, Note_on_c, 0, 61, 80
1, 24191, Note_on_c, 0, 70, 0
1, 24191, Note_on_c, 0, 61, 0
1, 24192, Note_on_c, 0, 68, 80
1, 24192, Note_on_c, 0, 60, 80
1, 24192, Note_on_c, 1, 56, 80
1, 24192, Note_on_c, 1, 51, 80
1, 24192, Note_on_c, 1, 48, 80
1, 24192, Note_on_c, 1, 44, 80
1, 24215, Note_on_c, 0, 68, 0
1, 24215, Note_on_c, 0, 60, 0
1, 24216, Note_on_c, 0, 63, 80
1, 24224, Note_on_c, 0, 63, 0
1, 24224, Note_on_c, 0, 65, 80
1, 24232, Note_on_c, 0, 65, 0
1, 24232, Note_on_c, 0, 63, 80
1, 24237, Note_on_c, 1, 56, 0
1, 24237, Note_on_c, 1, 51, 0
1, 24237, Note_on_c, 1, 48, 0
1, 24237, Note_on_c, 1, 44, 0
1, 24240, Note_on_c, 0, 63, 0
1, 24240, Note_on_c, 0, 68, 80
1, 24263, Note_on_c, 0, 68, 0
1, 24264, Note_on_c, 0, 60, 80
1, 24264, Note_on_c, 1, 56, 80
1, 24276, Note_on_c, 0, 60, 0
1, 24276, Note_on_c, 0, 68, 80
1, 24287, Note_on_c, 1, 56, 0
1, 24288, Note_on_c, 0, 68, 0
1, 24288, Note_on_c, 0, 61, 80
1, 24288, Note_on_c, 1, 58, 80
1, 24300, Note_on_c, 0, 61, 0
1, 24300, Note_on_c, 0, 68, 80
1, 24311, Note_on_c, 1, 58, 0
1, 24312, Note_on_c, 0, 68, 0
1, 24312, Note_on_c, 0, 60, 80
1, 24312, Note_on_c, 1, 56, 80
1, 24324, Note_on_c, 0, 60, 0
1, 24324, Note_on_c, 0, 68, 80
1, 24335, Note_on_c, 1, 56, 0
1, 24336, Note_on_c, 0, 68, 0
1, 24336, Note_on_c, 0, 61, 80
1, 24336, Note_on_c, 1, 58, 80
1, 24348, Note_on_c, 0, 61, 0
1, 24348, Note_on_c, 0, 68, 80
1, 24359, Note_on_c, 1, 58, 0
1, 24360, Note_on_c, 0, 68, 0
1, 24360, Note_on_c, 0, 63, 80
1, 24360, Note_on_c, 1, 60, 80
1, 24372, Note_on_c, 0, 63, 0
1, 24372, Note_on_c, 0, 68, 80
1, 24383, Note_on_c, 1, 60, 0
1, 24384, Note_on_c, 0, 68, 0
1, 24384, Note_on_c, 0, 65, 80
1, 24384, Note_on_c, 1, 61, 80
1, 24407, Note_on_c, 0, 65, 0
1, 24408, Note_on_c, 0, 77, 80
1, 24408, Note_on_c, 0, 73, 80
1, 24429, Note_on_c, 1, 61, 0
1, 24431, Note_on_c, 0, 77, 0
1, 24431, Note_on_c, 0, 73, 0
1, 24432, Note_on_c, 0, 77, 80
1, 24432, Note_on_c, 0, 73, 80
1, 24455, Note_on_c, 0, 77, 0
1, 24455, Note_on_c, 0, 73, 0
1, 24456, Note_on_c, 0, 77, 80
1, 24456, Note_on_c, 0, 73, 80
1, 24479, Note_on_c, 0, 77, 0
1, 24479, Note_on_c, 0, 73, 0
1, 24480, Note_on_c, 0, 77, 80
1, 24480, Note_on_c, 0, 73, 80
1, 24504, Note_on_c, 0, 77, 0
1, 24504, Note_on_c, 0, 73, 0
1, 24504, Note_on_c, 0, 75, 80
1, 24504, Note_on_c, 0, 72, 80
1, 24527, Note_on_c, 0, 75, 0
1, 24527, Note_on_c, 0, 72, 0
1, 24528, Note_on_c, 0, 75, 80
1, 24528, Note_on_c, 0, 72, 80
1, 24552, Note_on_c, 0, 75, 0
1, 24552, Note_on_c, 0, 72, 0
1, 24552, Note_on_c, 0, 73, 80
1, 24552, Note_on_c, 0, 70, 80
1, 24575, Note_on_c, 0, 73, 0
1, 24575, Note_on_c, 0, 70, 0
1, 24576, Note_on_c, 0, 72, 80
1, 24576, Note_on_c, 0, 68, 80
1, 24576, Note_on_c, 1, 56, 80
1, 24576, Note_on_c, 1, 51, 80
1, 24576, Note_on_c, 1, 48, 80
1, 24576, Note_on_c, 1, 44, 80
1, 24599, Note_on_c, 0, 72, 0
1, 24599, Note_on_c, 0, 68, 0
1, 24600, Note_on_c, 0, 75, 80
1, 24608, Note_on_c, 0, 75, 0
1, 24608, Note_on_c, 0, 77, 80
1, 24616, Note_on_c, 0, 77, 0
1, 24616, Note_on_c, 0, 75, 80
1, 24621, Note_on_c, 1, 56, 0
1, 24621, Note_on_c, 1, 51, 0
1, 24621, Note_on_c, 1, 48, 0
1, 24621, Note_on_c, 1, 44, 0
1, 24624, Note_on_c, 0, 75, 0
1, 24624, Note_on_c, 0, 80, 80
1, 24634, Note_on_c, 0, 80, 0
1, 24648, Note_on_c, 0, 75, 80
1, 24648, Note_on_c, 1, 72, 80
1, 24660, Note_on_c, 0, 75, 0
1, 24660, Note_on_c, 0, 80, 80
1, 24671, Note_on_c, 1, 72, 0
1, 24672, Note_on_c, 0, 80, 0
1, 24672, Note_on_c, 0, 77, 80
1, 24672, Note_on_c, 1, 73, 80
1, 24684, Note_on_c, 0, 77, 0
1, 24684, Note_on_c, 0, 80, 80
1, 24695, Note_on_c, 1, 73, 0
1, 24696, Note_on_c, 0, 80, 0
1, 24696, Note_on_c, 0, 75, 80
1, 24696, Note_on_c, 1, 72, 80
1, 24708, Note_on_c, 0, 75, 0
1, 24708, Note_on_c, 0, 80, 80
1, 24719, Note_on_c, 1, 72, 0
1, 24720, Note_on_c, 0, 80, 0
1, 24720, Note_on_c, 0, 77, 80
1, 24720, Note_on_c, 1, 73, 80
1, 24732, Note_on_c, 0, 77, 0
1, 24732, Note_on_c, 0, 80, 80
1, 24743, Note_on_c, 1, 73, 0
1, 24744, Note_on_c, 0, 80, 0
1, 24744, Note_on_c, 0, 75, 80
1, 24744, Note_on_c, 1, 72, 80
1, 24756, Note_on_c, 0, 75, 0
1, 24756, Note_on_c, 0, 80, 80
1, 24767, Note_on_c, 1, 72, 0
1, 24768, Note_on_c, 0, 80, 0
1, 24768, Note_on_c, 0, 74, 80
1, 24768, Note_on_c, 1, 70, 80
1, 24780, Note_on_c, 0, 74, 0
1, 24780, Note_on_c, 0, 80, 80
1, 24792, Note_on_c, 0, 80, 0
1, 24792, Note_on_c, 0, 79, 80
1, 24804, Note_on_c, 0, 79, 0
1, 24804, Note_on_c, 0, 80, 80
1, 24816, Note_on_c, 0, 80, 0
1, 24816, Note_on_c, 0, 82, 80
1, 24828, Note_on_c, 0, 82, 0
1, 24828, Note_on_c, 0, 80, 80
1, 24840, Note_on_c, 0, 80, 0
1, 24840, Note_on_c, 0, 79, 80
1, 24852, Note_on_c, 0, 79, 0
1, 24852, Note_on_c, 0, 80, 80
1, 24857, Note_on_c, 1, 70, 0
1, 24864, Note_on_c, 0, 80, 0
1, 24864, Note_on_c, 0, 89, 80
1, 24876, Note_on_c, 0, 89, 0
1, 24876, Note_on_c, 0, 87, 78
1, 24888, Note_on_c, 0, 87, 0
1, 24888, Note_on_c, 0, 86, 77
1, 24900, Note_on_c, 0, 86, 0
1, 24900, Note_on_c, 0, 84, 76
1, 24912, Note_on_c, 0, 84, 0
1, 24912, Note_on_c, 0, 82, 75
1, 24924, Note_on_c, 0, 82, 0
1, 24924, Note_on_c, 0, 80, 73
1, 24936, Note_on_c, 0, 80, 0
1, 24936, Note_on_c, 0, 79, 72
1, 24948, Note_on_c, 0, 79, 0
1, 24948, Note_on_c, 0, 77, 71
1, 24960, Note_on_c, 0, 77, 0
1, 24960, Note_on_c, 0, 75, 70
1, 24960, Note_on_c, 1, 63, 58
1, 24983, Note_on_c, 1, 63, 0
1, 24984, Note_on_c, 1, 67, 58
1, 25007, Note_on_c, 1, 67, 0
1, 25008, Note_on_c, 1, 63, 58
1, 25031, Note_on_c, 1, 63, 0
1, 25032, Note_on_c, 1, 67, 58
1, 25055, Note_on_c, 1, 67, 0
1, 25056, Note_on_c, 0, 75, 0
1, 25056, Note_on_c, 0, 74, 70
1, 25056, Note_on_c, 1, 63, 58
1, 25079, Note_on_c, 1, 63, 0
1, 25080, Note_on_c, 1, 67, 58
1, 25101, Note_on_c, 0, 74, 0
1, 25103, Note_on_c, 1, 67, 0
1, 25104, Note_on_c, 0, 73, 70
1, 25104, Note_on_c, 1, 63, 58
1, 25127, Note_on_c, 1, 63, 0
1, 25128, Note_on_c, 1, 67, 58
1, 25149, Note_on_c, 0, 73, 0
1, 25151, Note_on_c, 1, 67, 0
1, 25152, Note_on_c, 0, 71, 70
1, 25152, Note_on_c, 1, 63, 58
1, 25175, Note_on_c, 1, 63, 0
1, 25176, Note_on_c, 1, 68, 58
1, 25199, Note_on_c, 1, 68, 0
1, 25200, Note_on_c, 0, 71, 0
1, 25200, Note_on_c, 0, 72, 70
1, 25200, Note_on_c, 1, 63, 58
1, 25223, Note_on_c, 1, 63, 0
1, 25224, Note_on_c, 1, 68, 58
1, 25245, Note_on_c, 0, 72, 0
1, 25247, Note_on_c, 1, 68, 0
1, 25248, Note_on_c, 1, 63, 58
1, 25271, Note_on_c, 1, 63, 0
1, 25272, Note_on_c, 1, 68, 58
1, 25295, Note_on_c, 1, 68, 0
1, 25296, Note_on_c, 1, 63, 58
1, 25319, Note_on_c, 1, 63, 0
1, 25320, Note_on_c, 1, 68, 58
1, 25343, Note_on_c, 1, 68, 0
1, 25344, Note_on_c, 0, 77, 70
1, 25344, Note_on_c, 1, 62, 58
1, 25367, Note_on_c, 1, 62, 0
1, 25368, Note_on_c, 1, 68, 58
1, 25389, Note_on_c, 0, 77, 0
1, 25391, Note_on_c, 1, 68, 0
1, 25392, Note_on_c, 0, 70, 70
1, 25392, Note_on_c, 1, 62, 58
1, 25415, Note_on_c, 1, 62, 0
1, 25416, Note_on_c, 1, 68, 58
1, 25439, Note_on_c, 1, 68, 0
1, 25440, Note_on_c, 1, 62, 58
1, 25463, Note_on_c, 1, 62, 0
1, 25464, Note_on_c, 1, 68, 58
1, 25485, Note_on_c, 0, 70, 0
1, 25487, Note_on_c, 1, 68, 0
1, 25488, Note_on_c, 0, 74, 70
1, 25488, Note_on_c, 1, 62, 58
1, 25494, Note_on_c, 0, 74, 0
1, 25494, Note_on_c, 0, 72, 70
1, 25511, Note_on_c, 0, 72, 0
1, 25511, Note_on_c, 1, 62, 0
1, 25512, Note_on_c, 0, 70, 70
1, 25512, Note_on_c, 1, 68, 58
1, 25535, Note_on_c, 0, 70, 0
1, 25535, Note_on_c, 1, 68, 0
1, 25536, Note_on_c, 0, 70, 70
1, 25536, Note_on_c, 1, 63, 58
1, 25559, Note_on_c, 0, 70, 0
1, 25559, Note_on_c, 1, 63, 0
1, 25560, Note_on_c, 0, 72, 70
1, 25560, Note_on_c, 1, 67, 58
1, 25572, Note_on_c, 0, 72, 0
1, 25572, Note_on_c, 0, 74, 71
1, 25583, Note_on_c, 1, 67, 0
1, 25584, Note_on_c, 0, 74, 0
1, 25584, Note_on_c, 0, 75, 71
1, 25584, Note_on_c, 1, 63, 58
1, 25596, Note_on_c, 0, 75, 0
1, 25596, Note_on_c, 0, 77, 72
1, 25607, Note_on_c, 1, 63, 0
1, 25608, Note_on_c, 0, 77, 0
1, 25608, Note_on_c, 0, 79, 72
1, 25608, Note_on_c, 1, 67, 58
1, 25620, Note_on_c, 0, 79, 0
1, 25620, Note_on_c, 0, 80, 72
1, 25631, Note_on_c, 1, 67, 0
1, 25632, Note_on_c, 0, 80, 0
1, 25632, Note_on_c, 0, 82, 73
1, 25632, Note_on_c, 1, 63, 58
1, 25655, Note_on_c, 1, 63, 0
1, 25656, Note_on_c, 1, 67, 58
1, 25677, Note_on_c, 0, 82, 0
1, 25679, Note_on_c, 1, 67, 0
1, 25680, Note_on_c, 1, 63, 58
1, 25703, Note_on_c, 1, 63, 0
1, 25704, Note_on_c, 1, 67, 58
1, 25727, Note_on_c, 1, 67, 0
1, 25728, Note_on_c, 0, 77, 70
1, 25728, Note_on_c, 1, 62, 58
1, 25751, Note_on_c, 1, 62, 0
1, 25752, Note_on_c, 1, 68, 58
1, 25773, Note_on_c, 0, 77, 0
1, 25775, Note_on_c, 1, 68, 0
1, 25776, Note_on_c, 0, 70, 70
1, 25776, Note_on_c, 1, 62, 58
1, 25799, Note_on_c, 1, 62, 0
1, 25800, Note_on_c, 1, 68, 58
1, 25823, Note_on_c, 1, 68, 0
1, 25824, Note_on_c, 1, 62, 58
1, 25847, Note_on_c, 1, 62, 0
1, 25848, Note_on_c, 1, 68, 58
1, 25869, Note_on_c, 0, 70, 0
1, 25871, Note_on_c, 1, 68, 0
1, 25872, Note_on_c, 0, 74, 70
1, 25872, Note_on_c, 1, 62, 58
1, 25878, Note_on_c, 0, 74, 0
1, 25878, Note_on_c, 0, 72, 70
1, 25895, Note_on_c, 0, 72, 0
1, 25895, Note_on_c, 1, 62, 0
1, 25896, Note_on_c, 0, 70, 70
1, 25896, Note_on_c, 1, 68, 58
1, 25919, Note_on_c, 0, 70, 0
1, 25919, Note_on_c, 1, 68, 0
1, 25920, Note_on_c, 0, 70, 70
1, 25920, Note_on_c, 1, 61, 58
1, 25943, Note_on_c, 0, 70, 0
1, 25943, Note_on_c, 1, 61, 0
1, 25944, Note_on_c, 0, 72, 70
1, 25944, Note_on_c, 1, 67, 58
1, 25956, Note_on_c, 0, 72, 0
1, 25956, Note_on_c, 0, 73, 71
1, 25967, Note_on_c, 1, 67, 0
1, 25968, Note_on_c, 0, 73, 0
1, 25968, Note_on_c, 0, 75, 71
1, 25968, Note_on_c, 1, 61, 58
1, 25980, Note_on_c, 0, 75, 0
1, 25980, Note_on_c, 0, 77, 72
1, 25991, Note_on_c, 1, 61, 0
1, 25992, Note_on_c, 0, 77, 0
1, 25992, Note_on_c, 0, 79, 72
1, 25992, Note_on_c, 1, 67, 58
1, 26004, Note_on_c, 0, 79, 0
1, 26004, Note_on_c, 0, 80, 72
1, 26015, Note_on_c, 1, 67, 0
1, 26016, Note_on_c, 0, 80, 0
1, 26016, Note_on_c, 0, 82, 73
1, 26016, Note_on_c, 1, 61, 58
1, 26039, Note_on_c, 1, 61, 0
1, 26040, Note_on_c, 1, 67, 58
1, 26061, Note_on_c, 0, 82, 0
1, 26063, Note_on_c, 1, 67, 0
1, 26064, Note_on_c, 1, 61, 58
1, 26087, Note_on_c, 1, 61, 0
1, 26088, Note_on_c, 1, 67, 58
1, 26111, Note_on_c, 1, 67, 0
1, 26112, Note_on_c, 0, 70, 75
1, 26112, Note_on_c, 1, 60, 58
1, 26135, Note_on_c, 0, 70, 0
1, 26135, Note_on_c, 1, 60, 0
1, 26136, Note_on_c, 0, 72, 75
1, 26136, Note_on_c, 1, 67, 59
1, 26148, Note_on_c, 0, 72, 0
1, 26148, Note_on_c, 0, 74, 76
1, 26159, Note_on_c, 1, 67, 0
1, 26160, Note_on_c, 0, 74, 0
1, 26160, Note_on_c, 0, 76, 76
1, 26160, Note_on_c, 1, 60, 61
1, 26172, Note_on_c, 0, 76, 0
1, 26172, Note_on_c, 0, 77, 77
1, 26183, Note_on_c, 1, 60, 0
1, 26184, Note_on_c, 0, 77, 0
1, 26184, Note_on_c, 0, 79, 77
1, 26184, Note_on_c, 1, 67, 62
1, 26196, Note_on_c, 0, 79, 0
1, 26196, Note_on_c, 0, 80, 77
1, 26207, Note_on_c, 1, 67, 0
1, 26208, Note_on_c, 0, 80, 0
1, 26208, Note_on_c, 0, 82, 78
1, 26208, Note_on_c, 1, 60, 64
1, 26231, Note_on_c, 1, 60, 0
1, 26232, Note_on_c, 1, 67, 64
1, 26253, Note_on_c, 0, 82, 0
1, 26255, Note_on_c, 1, 67, 0
1, 26256, Note_on_c, 1, 60, 64
1, 26279, Note_on_c, 1, 60, 0
1, 26280, Note_on_c, 1, 67, 64
1, 26303, Note_on_c, 1, 67, 0
1, 26304, Note_on_c, 0, 72, 80
1, 26304, Note_on_c, 1, 58, 58
1, 26316, Note_on_c, 0, 72, 0
1, 26316, Note_on_c, 0, 74, 80
1, 26327, Note_on_c, 1, 58, 0
1, 26328, Note_on_c, 0, 74, 0
1, 26328, Note_on_c, 0, 76, 81
1, 26328, Note_on_c, 1, 67, 58
1, 26340, Note_on_c, 0, 76, 0
1, 26340, Note_on_c, 0, 77, 81
1, 26351, Note_on_c, 1, 67, 0
1, 26352, Note_on_c, 0, 77, 0
1, 26352, Note_on_c, 0, 79, 82
1, 26352, Note_on_c, 1, 58, 59
1, 26364, Note_on_c, 0, 79, 0
1, 26364, Note_on_c, 0, 80, 82
1, 26375, Note_on_c, 1, 58, 0
1, 26376, Note_on_c, 0, 80, 0
1, 26376, Note_on_c, 0, 82, 83
1, 26376, Note_on_c, 1, 67, 60
1, 26388, Note_on_c, 0, 82, 0
1, 26388, Note_on_c, 0, 84, 83
1, 26399, Note_on_c, 1, 67, 0
1, 26400, Note_on_c, 0, 84, 0
1, 26400, Note_on_c, 0, 85, 84
1, 26400, Note_on_c, 1, 58, 61
1, 26423, Note_on_c, 1, 58, 0
1, 26424, Note_on_c, 1, 67, 61
1, 26445, Note_on_c, 0, 85, 0
1, 26447, Note_on_c, 1, 67, 0
1, 26448, Note_on_c, 1, 58, 62
1, 26471, Note_on_c, 1, 58, 0
1, 26472, Note_on_c, 0, 76, 86
1, 26472, Note_on_c, 1, 67, 63
1, 26495, Note_on_c, 0, 76, 0
1, 26495, Note_on_c, 1, 67, 0
1, 26496, Note_on_c, 0, 77, 80
1, 26496, Note_on_c, 1, 65, 80
1, 26496, Note_on_c, 1, 53, 80
1, 26585, Note_on_c, 0, 77, 0
1, 26585, Note_on_c, 1, 65, 0
1, 26585, Note_on_c, 1, 53, 0
1, 26592, Note_on_c, 0, 68, 80
1, 26592, Note_on_c, 1, 56, 80
1, 26615, Note_on_c, 0, 68, 0
1, 26616, Note_on_c, 0, 70, 80
1, 26624, Note_on_c, 0, 70, 0
1, 26624, Note_on_c, 0, 68, 80
1, 26632, Note_on_c, 0, 68, 0
1, 26632, Note_on_c, 0, 67, 80
1, 26640, Note_on_c, 0, 67, 0
1, 26640, Note_on_c, 0, 68, 80
1, 26659, Note_on_c, 1, 56, 0
1, 26663, Note_on_c, 0, 68, 0
1, 26664, Note_on_c, 0, 70, 80
1, 26664, Note_on_c, 1, 58, 80
1, 26687, Note_on_c, 0, 70, 0
1, 26687, Note_on_c, 1, 58, 0
1, 26688, Note_on_c, 0, 72, 80
1, 26688, Note_on_c, 1, 60, 80
1, 26708, Note_on_c, 0, 72, 0
1, 26708, Note_on_c, 1, 60, 0
1, 26736, Note_on_c, 0, 72, 80
1, 26736, Note_on_c, 1, 60, 80
1, 26756, Note_on_c, 0, 72, 0
1, 26756, Note_on_c, 1, 60, 0
1, 26784, Note_on_c, 0, 72, 80
1, 26784, Note_on_c, 1, 60, 80
1, 26807, Note_on_c, 0, 72, 0
1, 26807, Note_on_c, 1, 60, 0
1, 26808, Note_on_c, 0, 74, 80
1, 26808, Note_on_c, 1, 62, 80
1, 26820, Note_on_c, 0, 74, 0
1, 26820, Note_on_c, 0, 76, 80
1, 26820, Note_on_c, 1, 62, 0
1, 26820, Note_on_c, 1, 64, 80
1, 26832, Note_on_c, 0, 76, 0
1, 26832, Note_on_c, 0, 77, 80
1, 26832, Note_on_c, 1, 64, 0
1, 26832, Note_on_c, 1, 65, 80
1, 26844, Note_on_c, 0, 77, 0
1, 26844, Note_on_c, 0, 79, 80
1, 26844, Note_on_c, 1, 65, 0
1, 26844, Note_on_c, 1, 67, 80
1, 26856, Note_on_c, 0, 79, 0
1, 26856, Note_on_c, 0, 80, 80
1, 26856, Note_on_c, 1, 67, 0
1, 26856, Note_on_c, 1, 68, 80
1, 26868, Note_on_c, 0, 80, 0
1, 26868, Note_on_c, 0, 82, 80
1, 26868, Note_on_c, 1, 68, 0
1, 26868, Note_on_c, 1, 70, 80
1, 26880, Note_on_c, 0, 82, 0
1, 26880, Note_on_c, 0, 84, 80
1, 26880, Note_on_c, 1, 70, 0
1, 26880, Note_on_c, 1, 72, 80
1, 26914, Note_on_c, 0, 84, 0
1, 26914, Note_on_c, 1, 72, 0
1, 26916, Note_on_c, 0, 79, 80
1, 26916, Note_on_c, 1, 67, 80
1, 26928, Note_on_c, 0, 79, 0
1, 26928, Note_on_c, 0, 80, 80
1, 26928, Note_on_c, 1, 67, 0
1, 26928, Note_on_c, 1, 68, 80
1, 26962, Note_on_c, 0, 80, 0
1, 26962, Note_on_c, 1, 68, 0
1, 26964, Note_on_c, 0, 76, 80
1, 26964, Note_on_c, 1, 64, 80
1, 26976, Note_on_c, 0, 76, 0
1, 26976, Note_on_c, 0, 77, 80
1, 26976, Note_on_c, 1, 64, 0
1, 26976, Note_on_c, 1, 65, 80
1, 27010, Note_on_c, 0, 77, 0
1, 27010, Note_on_c, 1, 65, 0
1, 27012, Note_on_c, 0, 73, 80
1, 27012, Note_on_c, 1, 61, 80
1, 27024, Note_on_c, 0, 73, 0
1, 27024, Note_on_c, 0, 72, 80
1, 27024, Note_on_c, 1, 61, 0
1, 27024, Note_on_c, 1, 60, 80
1, 27030, Note_on_c, 0, 72, 0
1, 27030, Note_on_c, 0, 74, 80
1, 27036, Note_on_c, 0, 74, 0
1, 27036, Note_on_c, 0, 72, 80
1, 27058, Note_on_c, 0, 72, 0
1, 27058, Note_on_c, 1, 60, 0
1, 27060, Note_on_c, 0, 71, 80
1, 27060, Note_on_c, 1, 59, 80
1, 27072, Note_on_c, 0, 71, 0
1, 27072, Note_on_c, 0, 72, 80
1, 27072, Note_on_c, 1, 59, 0
1, 27072, Note_on_c, 1, 60, 80
1, 27117, Note_on_c, 0, 72, 0
1, 27117, Note_on_c, 1, 60, 0
1, 27120, Note_on_c, 0, 60, 80
1, 27120, Note_on_c, 1, 48, 80
1, 27165, Note_on_c, 0, 60, 0
1, 27165, Note_on_c, 1, 48, 0
1, 27264, Note_on_c, 0, 75, 75
1, 27264, Note_on_c, 1, 57, 75
1, 27276, Note_on_c, 1, 57, 0
1, 27276, Note_on_c, 1, 66, 75
1, 27287, Note_on_c, 0, 75, 0
1, 27288, Note_on_c, 0, 74, 75
1, 27288, Note_on_c, 1, 66, 0
1, 27288, Note_on_c, 1, 58, 75
1, 27300, Note_on_c, 1, 58, 0
1, 27300, Note_on_c, 1, 66, 75
1, 27311, Note_on_c, 0, 74, 0
1, 27312, Note_on_c, 0, 75, 75
1, 27312, Note_on_c, 1, 66, 0
1, 27312, Note_on_c, 1, 57, 75
1, 27324, Note_on_c, 1, 57, 0
1, 27324, Note_on_c, 1, 66, 75
1, 27335, Note_on_c, 0, 75, 0
1, 27336, Note_on_c, 0, 74, 75
1, 27336, Note_on_c, 1, 66, 0
1, 27336, Note_on_c, 1, 58, 75
1, 27348, Note_on_c, 1, 58, 0
1, 27348, Note_on_c, 1, 66, 75
1, 27359, Note_on_c, 0, 74, 0
1, 27360, Note_on_c, 0, 75, 91
1, 27360, Note_on_c, 1, 66, 0
1, 27360, Note_on_c, 1, 57, 75
1, 27384, Note_on_c, 0, 75, 0
1, 27384, Note_on_c, 0, 84, 75
1, 27396, Note_on_c, 0, 84, 0
1, 27396, Note_on_c, 0, 82, 75
1, 27405, Note_on_c, 1, 57, 0
1, 27408, Note_on_c, 0, 82, 0
1, 27408, Note_on_c, 0, 81, 75
1, 27420, Note_on_c, 0, 81, 0
1, 27420, Note_on_c, 0, 79, 75
1, 27432, Note_on_c, 0, 79, 0
1, 27432, Note_on_c, 0, 77, 75
1, 27444, Note_on_c, 0, 77, 0
1, 27444, Note_on_c, 0, 75, 75
1, 27456, Note_on_c, 0, 75, 0
1, 27456, Note_on_c, 0, 74, 75
1, 27456, Note_on_c, 1, 58, 75
1, 27468, Note_on_c, 1, 58, 0
1, 27468, Note_on_c, 1, 68, 75
1, 27479, Note_on_c, 0, 74, 0
1, 27480, Note_on_c, 0, 75, 75
1, 27480, Note_on_c, 1, 68, 0
1, 27480, Note_on_c, 1, 59, 75
1, 27492, Note_on_c, 1, 59, 0
1, 27492, Note_on_c, 1, 68, 75
1, 27503, Note_on_c, 0, 75, 0
1, 27504, Note_on_c, 0, 74, 75
1, 27504, Note_on_c, 1, 68, 0
1, 27504, Note_on_c, 1, 58, 75
1, 27516, Note_on_c, 1, 58, 0
1, 27516, Note_on_c, 1, 68, 75
1, 27527, Note_on_c, 0, 74, 0
1, 27528, Note_on_c, 0, 75, 75
1, 27528, Note_on_c, 1, 68, 0
1, 27528, Note_on_c, 1, 60, 75
1, 27540, Note_on_c, 1, 60, 0
1, 27540, Note_on_c, 1, 68, 75
1, 27551, Note_on_c, 0, 75, 0
1, 27552, Note_on_c, 0, 74, 91
1, 27552, Note_on_c, 1, 68, 0
1, 27552, Note_on_c, 1, 58, 75
1, 27576, Note_on_c, 0, 74, 0
1, 27576, Note_on_c, 0, 77, 75
1, 27588, Note_on_c, 0, 77, 0
1, 27588, Note_on_c, 0, 75, 75
1, 27597, Note_on_c, 1, 58, 0
1, 27600, Note_on_c, 0, 75, 0
1, 27600, Note_on_c, 0, 74, 75
1, 27612, Note_on_c, 0, 74, 0
1, 27612, Note_on_c, 0, 72, 75
1, 27624, Note_on_c, 0, 72, 0
1, 27624, Note_on_c, 0, 70, 75
1, 27636, Note_on_c, 0, 70, 0
1, 27636, Note_on_c, 0, 68, 75
1, 27648, Note_on_c, 0, 68, 0
1, 27648, Note_on_c, 0, 67, 75
1, 27648, Note_on_c, 1, 51, 75
1, 27660, Note_on_c, 1, 51, 0
1, 27660, Note_on_c, 1, 61, 75
1, 27671, Note_on_c, 0, 67, 0
1, 27672, Note_on_c, 0, 68, 75
1, 27672, Note_on_c, 1, 61, 0
1, 27672, Note_on_c, 1, 52, 75
1, 27684, Note_on_c, 1, 52, 0
1, 27684, Note_on_c, 1, 61, 75
1, 27695, Note_on_c, 0, 68, 0
1, 27696, Note_on_c, 0, 67, 75
1, 27696, Note_on_c, 1, 61, 0
1, 27696, Note_on_c, 1, 51, 75
1, 27708, Note_on_c, 1, 51, 0
1, 27708, Note_on_c, 1, 61, 75
1, 27719, Note_on_c, 0, 67, 0
1, 27720, Note_on_c, 0, 68, 75
1, 27720, Note_on_c, 1, 61, 0
1, 27720, Note_on_c, 1, 52, 75
1, 27732, Note_on_c, 1, 52, 0
1, 27732, Note_on_c, 1, 61, 75
1, 27743, Note_on_c, 0, 68, 0
1, 27744, Note_on_c, 0, 67, 91
1, 27744, Note_on_c, 1, 61, 0
1, 27744, Note_on_c, 1, 51, 75
1, 27768, Note_on_c, 0, 67, 0
1, 27768, Note_on_c, 0, 82, 75
1, 27780, Note_on_c, 0, 82, 0
1, 27780, Note_on_c, 0, 80, 75
1, 27789, Note_on_c, 1, 51, 0
1, 27792, Note_on_c, 0, 80, 0
1, 27792, Note_on_c, 0, 79, 75
1, 27804, Note_on_c, 0, 79, 0
1, 27804, Note_on_c, 0, 77, 75
1, 27816, Note_on_c, 0, 77, 0
1, 27816, Note_on_c, 0, 75, 75
1, 27828, Note_on_c, 0, 75, 0
1, 27828, Note_on_c, 0, 73, 75
1, 27840, Note_on_c, 0, 73, 0
1, 27840, Note_on_c, 0, 72, 75
1, 27840, Note_on_c, 1, 64, 75
1, 27852, Note_on_c, 1, 64, 0
1, 27852, Note_on_c, 1, 70, 75
1, 27863, Note_on_c, 0, 72, 0
1, 27864, Note_on_c, 0, 73, 75
1, 27864, Note_on_c, 1, 70, 0
1, 27864, Note_on_c, 1, 65, 75
1, 27876, Note_on_c, 1, 65, 0
1, 27876, Note_on_c, 1, 70, 75
1, 27887, Note_on_c, 0, 73, 0
1, 27888, Note_on_c, 0, 72, 75
1, 27888, Note_on_c, 1, 70, 0
1, 27888, Note_on_c, 1, 64, 75
1, 27900, Note_on_c, 1, 64, 0
1, 27900, Note_on_c, 1, 70, 75
1, 27911, Note_on_c, 0, 72, 0
1, 27912, Note_on_c, 0, 73, 75
1, 27912, Note_on_c, 1, 70, 0
1, 27912, Note_on_c, 1, 65, 75
1, 27924, Note_on_c, 1, 65, 0
1, 27924, Note_on_c, 1, 70, 75
1, 27935, Note_on_c, 0, 73, 0
1, 27936, Note_on_c, 0, 72, 91
1, 27936, Note_on_c, 1, 70, 0
1, 27936, Note_on_c, 1, 64, 75
1, 27960, Note_on_c, 0, 72, 0
1, 27960, Note_on_c, 0, 79, 75
1, 27972, Note_on_c, 0, 79, 0
1, 27972, Note_on_c, 0, 77, 75
1, 27981, Note_on_c, 1, 64, 0
1, 27984, Note_on_c, 0, 77, 0
1, 27984, Note_on_c, 0, 76, 75
1, 27996, Note_on_c, 0, 76, 0
1, 27996, Note_on_c, 0, 74, 75
1, 28008, Note_on_c, 0, 74, 0
1, 28008, Note_on_c, 0, 72, 75
1, 28020, Note_on_c, 0, 72, 0
1, 28020, Note_on_c, 0, 70, 75
1, 28032, Note_on_c, 0, 70, 0
1, 28032, Note_on_c, 0, 69, 75
1, 28032, Note_on_c, 1, 53, 75
1, 28044, Note_on_c, 1, 53, 0
1, 28044, Note_on_c, 1, 63, 75
1, 28055, Note_on_c, 0, 69, 0
1, 28056, Note_on_c, 0, 70, 75
1, 28056, Note_on_c, 1, 63, 0
1, 28056, Note_on_c, 1, 54, 75
1, 28068, Note_on_c, 1, 54, 0
1, 28068, Note_on_c, 1, 63, 75
1, 28079, Note_on_c, 0, 70, 0
1, 28080, Note_on_c, 0, 69, 75
1, 28080, Note_on_c, 1, 63, 0
1, 28080, Note_on_c, 1, 53, 75
1, 28092, Note_on_c, 1, 53, 0
1, 28092, Note_on_c, 1, 63, 75
1, 28103, Note_on_c, 0, 69, 0
1, 28104, Note_on_c, 0, 70, 75
1, 28104, Note_on_c, 1, 63, 0
1, 28104, Note_on_c, 1, 54, 75
1, 28116, Note_on_c, 1, 54, 0
1, 28116, Note_on_c, 1, 63, 75
1, 28127, Note_on_c, 0, 70, 0
1, 28128, Note_on_c, 0, 69, 91
1, 28128, Note_on_c, 1, 63, 0
1, 28128, Note_on_c, 1, 53, 75
1, 28152, Note_on_c, 0, 69, 0
1, 28152, Note_on_c, 0, 84, 75
1, 28164, Note_on_c, 0, 84, 0
1, 28164, Note_on_c, 0, 82, 75
1, 28173, Note_on_c, 1, 53, 0
1, 28176, Note_on_c, 0, 82, 0
1, 28176, Note_on_c, 0, 81, 75
1, 28188, Note_on_c, 0, 81, 0
1, 28188, Note_on_c, 0, 79, 75
1, 28200, Note_on_c, 0, 79, 0
1, 28200, Note_on_c, 0, 77, 75
1, 28212, Note_on_c, 0, 77, 0
1, 28212, Note_on_c, 0, 75, 75
1, 28224, Note_on_c, 0, 75, 0
1, 28224, Note_on_c, 0, 74, 75
1, 28224, Note_on_c, 1, 66, 75
1, 28236, Note_on_c, 1, 66, 0
1, 28236, Note_on_c, 1, 72, 75
1, 28247, Note_on_c, 0, 74, 0
1, 28248, Note_on_c, 0, 75, 75
1, 28248, Note_on_c, 1, 72, 0
1, 28248, Note_on_c, 1, 67, 75
1, 28260, Note_on_c, 1, 67, 0
1, 28260, Note_on_c, 1, 72, 75
1, 28271, Note_on_c, 0, 75, 0
1, 28272, Note_on_c, 0, 74, 75
1, 28272, Note_on_c, 1, 72, 0
1, 28272, Note_on_c, 1, 66, 75
1, 28284, Note_on_c, 1, 66, 0
1, 28284, Note_on_c, 1, 72, 75
1, 28295, Note_on_c, 0, 74, 0
1, 28296, Note_on_c, 0, 75, 75
1, 28296, Note_on_c, 1, 72, 0
1, 28296, Note_on_c, 1, 67, 75
1, 28308, Note_on_c, 1, 67, 0
1, 28308, Note_on_c, 1, 72, 75
1, 28319, Note_on_c, 0, 75, 0
1, 28320, Note_on_c, 0, 74, 91
1, 28320, Note_on_c, 1, 72, 0
1, 28320, Note_on_c, 1, 66, 75
1, 28344, Note_on_c, 0, 74, 0
1, 28344, Note_on_c, 0, 81, 75
1, 28356, Note_on_c, 0, 81, 0
1, 28356, Note_on_c, 0, 79, 75
1, 28365, Note_on_c, 1, 66, 0
1, 28368, Note_on_c, 0, 79, 0
1, 28368, Note_on_c, 0, 78, 75
1, 28380, Note_on_c, 0, 78, 0
1, 28380, Note_on_c, 0, 76, 75
1, 28392, Note_on_c, 0, 76, 0
1, 28392, Note_on_c, 0, 74, 75
1, 28404, Note_on_c, 0, 74, 0
1, 28404, Note_on_c, 0, 72, 75
1, 28416, Note_on_c, 0, 72, 0
1, 28416, Note_on_c, 0, 70, 91
1, 28416, Note_on_c, 1, 67, 75
1, 28416, Note_on_c, 1, 55, 75
1, 28440, Note_on_c, 0, 70, 0
1, 28440, Note_on_c, 0, 86, 75
1, 28452, Note_on_c, 0, 86, 0
1, 28452, Note_on_c, 0, 84, 75
1, 28461, Note_on_c, 1, 67, 0
1, 28461, Note_on_c, 1, 55, 0
1, 28464, Note_on_c, 0, 84, 0
1, 28464, Note_on_c, 0, 82, 75
1, 28476, Note_on_c, 0, 82, 0
1, 28476, Note_on_c, 0, 81, 75
1, 28488, Note_on_c, 0, 81, 0
1, 28488, Note_on_c, 0, 79, 75
1, 28500, Note_on_c, 0, 79, 0
1, 28500, Note_on_c, 0, 77, 75
1, 28512, Note_on_c, 0, 77, 0
1, 28512, Note_on_c, 0, 75, 91
1, 28512, Note_on_c, 1, 60, 75
1, 28512, Note_on_c, 1, 48, 75
1, 28536, Note_on_c, 0, 75, 0
1, 28536, Note_on_c, 0, 72, 76
1, 28548, Note_on_c, 0, 72, 0
1, 28548, Note_on_c, 0, 70, 76
1, 28557, Note_on_c, 1, 60, 0
1, 28557, Note_on_c, 1, 48, 0
1, 28560, Note_on_c, 0, 70, 0
1, 28560, Note_on_c, 0, 69, 77
1, 28572, Note_on_c, 0, 69, 0
1, 28572, Note_on_c, 0, 67, 78
1, 28584, Note_on_c, 0, 67, 0
1, 28584, Note_on_c, 0, 66, 78
1, 28596, Note_on_c, 0, 66, 0
1, 28596, Note_on_c, 0, 64, 79
1, 28608, Note_on_c, 0, 64, 0
1, 28608, Note_on_c, 0, 62, 80
1, 28608, Note_on_c, 1, 50, 80
1, 28608, Note_on_c, 1, 38, 80
1, 28653, Note_on_c, 0, 62, 0
1, 28656, Note_on_c, 0, 74, 80
1, 28675, Note_on_c, 1, 50, 0
1, 28675, Note_on_c, 1, 38, 0
1, 28679, Note_on_c, 0, 74, 0
1, 28680, Note_on_c, 0, 66, 80
1, 28680, Note_on_c, 1, 54, 80
1, 28692, Note_on_c, 0, 66, 0
1, 28692, Note_on_c, 0, 74, 80
1, 28703, Note_on_c, 1, 54, 0
1, 28704, Note_on_c, 0, 74, 0
1, 28704, Note_on_c, 0, 67, 80
1, 28704, Note_on_c, 1, 55, 80
1, 28716, Note_on_c, 0, 67, 0
1, 28716, Note_on_c, 0, 74, 80
1, 28727, Note_on_c, 1, 55, 0
1, 28728, Note_on_c, 0, 74, 0
1, 28728, Note_on_c, 0, 69, 80
1, 28728, Note_on_c, 1, 57, 80
1, 28740, Note_on_c, 0, 69, 0
1, 28740, Note_on_c, 0, 74, 80
1, 28751, Note_on_c, 1, 57, 0
1, 28752, Note_on_c, 0, 74, 0
1, 28752, Note_on_c, 0, 70, 80
1, 28752, Note_on_c, 1, 58, 80
1, 28764, Note_on_c, 0, 70, 0
1, 28764, Note_on_c, 0, 74, 80
1, 28775, Note_on_c, 1, 58, 0
1, 28776, Note_on_c, 0, 74, 0
1, 28776, Note_on_c, 0, 61, 80
1, 28776, Note_on_c, 1, 49, 80
1, 28788, Note_on_c, 0, 61, 0
1, 28788, Note_on_c, 0, 74, 80
1, 28799, Note_on_c, 1, 49, 0
1, 28800, Note_on_c, 0, 74, 0
1, 28800, Note_on_c, 0, 62, 80
1, 28800, Note_on_c, 1, 50, 80
1, 28812, Note_on_c, 0, 62, 0
1, 28812, Note_on_c, 0, 74, 80
1, 28823, Note_on_c, 1, 50, 0
1, 28824, Note_on_c, 0, 74, 0
1, 28824, Note_on_c, 0, 61, 80
1, 28824, Note_on_c, 1, 49, 80
1, 28836, Note_on_c, 0, 61, 0
1, 28836, Note_on_c, 0, 74, 80
1, 28847, Note_on_c, 1, 49, 0
1, 28848, Note_on_c, 0, 74, 0
1, 28848, Note_on_c, 0, 62, 80
1, 28848, Note_on_c, 1, 50, 80
1, 28860, Note_on_c, 0, 62, 0
1, 28860, Note_on_c, 0, 74, 80
1, 28871, Note_on_c, 1, 50, 0
1, 28872, Note_on_c, 0, 74, 0
1, 28872, Note_on_c, 0, 66, 80
1, 28872, Note_on_c, 1, 54, 80
1, 28884, Note_on_c, 0, 66, 0
1, 28884, Note_on_c, 0, 74, 80
1, 28895, Note_on_c, 1, 54, 0
1, 28896, Note_on_c, 0, 74, 0
1, 28896, Note_on_c, 0, 67, 80
1, 28896, Note_on_c, 1, 55, 80
1, 28908, Note_on_c, 0, 67, 0
1, 28908, Note_on_c, 0, 74, 80
1, 28919, Note_on_c, 1, 55, 0
1, 28920, Note_on_c, 0, 74, 0
1, 28920, Note_on_c, 0, 69, 80
1, 28920, Note_on_c, 1, 57, 80
1, 28932, Note_on_c, 0, 69, 0
1, 28932, Note_on_c, 0, 74, 80
1, 28943, Note_on_c, 1, 57, 0
1, 28944, Note_on_c, 0, 74, 0
1, 28944, Note_on_c, 0, 70, 80
1, 28944, Note_on_c, 1, 58, 80
1, 28956, Note_on_c, 0, 70, 0
1, 28956, Note_on_c, 0, 74, 80
1, 28967, Note_on_c, 1, 58, 0
1, 28968, Note_on_c, 0, 74, 0
1, 28968, Note_on_c, 0, 61, 80
1, 28968, Note_on_c, 1, 49, 80
1, 28980, Note_on_c, 0, 61, 0
1, 28980, Note_on_c, 0, 74, 80
1, 28991, Note_on_c, 1, 49, 0
1, 28992, Note_on_c, 0, 74, 0
1, 28992, Note_on_c, 0, 62, 80
1, 28992, Note_on_c, 1, 50, 80
1, 29004, Note_on_c, 0, 62, 0
1, 29004, Note_on_c, 0, 74, 80
1, 29015, Note_on_c, 1, 50, 0
1, 29016, Note_on_c, 0, 74, 0
1, 29016, Note_on_c, 0, 61, 80
1, 29016, Note_on_c, 1, 49, 80
1, 29028, Note_on_c, 0, 61, 0
1, 29028, Note_on_c, 0, 74, 80
1, 29039, Note_on_c, 1, 49, 0
1, 29040, Note_on_c, 0, 74, 0
1, 29040, Note_on_c, 0, 62, 80
1, 29040, Note_on_c, 1, 50, 80
1, 29052, Note_on_c, 0, 62, 0
1, 29052, Note_on_c, 0, 74, 80
1, 29063, Note_on_c, 1, 50, 0
1, 29064, Note_on_c, 0, 74, 0
1, 29064, Note_on_c, 0, 70, 80
1, 29064, Note_on_c, 1, 55, 80
1, 29076, Note_on_c, 0, 70, 0
1, 29076, Note_on_c, 0, 74, 80
1, 29087, Note_on_c, 1, 55, 0
1, 29088, Note_on_c, 0, 74, 0
1, 29088, Note_on_c, 0, 69, 80
1, 29088, Note_on_c, 1, 54, 80
1, 29100, Note_on_c, 0, 69, 0
1, 29100, Note_on_c, 0, 74, 80
1, 29111, Note_on_c, 1, 54, 0
1, 29112, Note_on_c, 0, 74, 0
1, 29112, Note_on_c, 0, 61, 80
1, 29112, Note_on_c, 1, 49, 80
1, 29124, Note_on_c, 0, 61, 0
1, 29124, Note_on_c, 0, 74, 80
1, 29135, Note_on_c, 1, 49, 0
1, 29136, Note_on_c, 0, 74, 0
1, 29136, Note_on_c, 0, 62, 80
1, 29136, Note_on_c, 1, 50, 80
1, 29148, Note_on_c, 0, 62, 0
1, 29148, Note_on_c, 0, 74, 80
1, 29159, Note_on_c, 1, 50, 0
1, 29160, Note_on_c, 0, 74, 0
1, 29160, Note_on_c, 0, 70, 80
1, 29160, Note_on_c, 1, 55, 80
1, 29172, Note_on_c, 0, 70, 0
1, 29172, Note_on_c, 0, 74, 80
1, 29183, Note_on_c, 1, 55, 0
1, 29184, Note_on_c, 0, 74, 0
1, 29184, Note_on_c, 0, 69, 80
1, 29184, Note_on_c, 1, 54, 80
1, 29196, Note_on_c, 0, 69, 0
1, 29196, Note_on_c, 0, 74, 80
1, 29207, Note_on_c, 1, 54, 0
1, 29208, Note_on_c, 0, 74, 0
1, 29208, Note_on_c, 0, 61, 80
1, 29208, Note_on_c, 1, 49, 80
1, 29220, Note_on_c, 0, 61, 0
1, 29220, Note_on_c, 0, 74, 80
1, 29231, Note_on_c, 1, 49, 0
1, 29232, Note_on_c, 0, 74, 0
1, 29232, Note_on_c, 0, 62, 80
1, 29232, Note_on_c, 1, 50, 80
1, 29244, Note_on_c, 0, 62, 0
1, 29244, Note_on_c, 0, 74, 80
1, 29255, Note_on_c, 1, 50, 0
1, 29256, Note_on_c, 0, 74, 0
1, 29256, Note_on_c, 0, 70, 80
1, 29256, Note_on_c, 1, 55, 80
1, 29268, Note_on_c, 0, 70, 0
1, 29268, Note_on_c, 0, 74, 80
1, 29279, Note_on_c, 1, 55, 0
1, 29280, Note_on_c, 0, 74, 0
1, 29280, Note_on_c, 0, 69, 80
1, 29280, Note_on_c, 1, 54, 80
1, 29280, Note_on_c, 1, 50, 80
1, 29292, Note_on_c, 0, 69, 0
1, 29292, Note_on_c, 0, 74, 80
1, 29303, Note_on_c, 1, 54, 0
1, 29304, Note_on_c, 0, 74, 0
1, 29304, Note_on_c, 0, 70, 80
1, 29304, Note_on_c, 1, 55, 80
1, 29316, Note_on_c, 0, 70, 0
1, 29316, Note_on_c, 0, 74, 80
1, 29327, Note_on_c, 1, 55, 0
1, 29328, Note_on_c, 0, 74, 0
1, 29328, Note_on_c, 0, 69, 80
1, 29328, Note_on_c, 1, 54, 80
1, 29340, Note_on_c, 0, 69, 0
1, 29340, Note_on_c, 0, 74, 80
1, 29351, Note_on_c, 1, 54, 0
1, 29352, Note_on_c, 0, 74, 0
1, 29352, Note_on_c, 0, 70, 80
1, 29352, Note_on_c, 1, 55, 80
1, 29364, Note_on_c, 0, 70, 0
1, 29364, Note_on_c, 0, 74, 80
1, 29375, Note_on_c, 1, 55, 0
1, 29376, Note_on_c, 0, 74, 0
1, 29376, Note_on_c, 0, 69, 80
1, 29376, Note_on_c, 1, 54, 80
1, 29415, Note_on_c, 0, 69, 0
1, 29415, Note_on_c, 1, 54, 0
1, 29465, Note_on_c, 1, 50, 0
1, 29568, Note_on_c, 0, 63, 64
1, 29568, Note_on_c, 1, 51, 64
1, 29568, Note_on_c, 1, 39, 64
1, 29657, Note_on_c, 0, 63, 0
1, 29664, Note_on_c, 0, 55, 64
1, 29687, Note_on_c, 0, 55, 0
1, 29688, Note_on_c, 0, 57, 64
1, 29696, Note_on_c, 0, 57, 0
1, 29696, Note_on_c, 0, 55, 64
1, 29704, Note_on_c, 0, 55, 0
1, 29704, Note_on_c, 0, 53, 64
1, 29712, Note_on_c, 0, 53, 0
1, 29712, Note_on_c, 0, 55, 64
1, 29735, Note_on_c, 0, 55, 0
1, 29736, Note_on_c, 0, 57, 64
1, 29745, Note_on_c, 1, 51, 0
1, 29745, Note_on_c, 1, 39, 0
1, 29759, Note_on_c, 0, 57, 0
1, 29760, Note_on_c, 0, 58, 64
1, 29760, Note_on_c, 1, 50, 64
1, 29760, Note_on_c, 1, 38, 64
1, 29780, Note_on_c, 0, 58, 0
1, 29808, Note_on_c, 0, 58, 64
1, 29828, Note_on_c, 0, 58, 0
1, 29856, Note_on_c, 0, 58, 64
1, 29901, Note_on_c, 0, 58, 0
1, 29904, Note_on_c, 0, 57, 64
1, 29916, Note_on_c, 0, 57, 0
1, 29916, Note_on_c, 0, 58, 64
1, 29928, Note_on_c, 0, 58, 0
1, 29928, Note_on_c, 0, 60, 64
1, 29937, Note_on_c, 1, 50, 0
1, 29937, Note_on_c, 1, 38, 0
1, 29940, Note_on_c, 0, 60, 0
1, 29940, Note_on_c, 0, 58, 64
1, 29952, Note_on_c, 0, 58, 0
1, 29952, Note_on_c, 0, 63, 64
1, 29952, Note_on_c, 1, 48, 64
1, 29952, Note_on_c, 1, 36, 64
1, 29972, Note_on_c, 0, 63, 0
1, 29991, Note_on_c, 1, 48, 0
1, 29991, Note_on_c, 1, 36, 0
1, 30000, Note_on_c, 0, 63, 67
1, 30020, Note_on_c, 0, 63, 0
1, 30048, Note_on_c, 0, 63, 71
1, 30048, Note_on_c, 1, 45, 64
1, 30048, Note_on_c, 1, 33, 64
1, 30087, Note_on_c, 1, 45, 0
1, 30087, Note_on_c, 1, 33, 0
1, 30093, Note_on_c, 0, 63, 0
1, 30096, Note_on_c, 0, 67, 75
1, 30102, Note_on_c, 0, 67, 0
1, 30102, Note_on_c, 0, 65, 75
1, 30141, Note_on_c, 0, 65, 0
1, 30144, Note_on_c, 0, 63, 72
1, 30144, Note_on_c, 1, 46, 64
1, 30144, Note_on_c, 1, 34, 64
1, 30183, Note_on_c, 1, 46, 0
1, 30183, Note_on_c, 1, 34, 0
1, 30240, Note_on_c, 1, 58, 64
1, 30279, Note_on_c, 1, 58, 0
1, 30288, Note_on_c, 0, 63, 0
1, 30288, Note_on_c, 0, 62, 66
1, 30333, Note_on_c, 0, 62, 0
1, 30336, Note_on_c, 0, 60, 80
1, 30372, Note_on_c, 1, 52, 64
1, 30384, Note_on_c, 1, 52, 0
1, 30384, Note_on_c, 1, 55, 64
1, 30418, Note_on_c, 1, 55, 0
1, 30420, Note_on_c, 1, 58, 64
1, 30432, Note_on_c, 1, 58, 0
1, 30432, Note_on_c, 1, 58, 64
1, 30466, Note_on_c, 0, 60, 0
1, 30468, Note_on_c, 0, 64, 64
1, 30480, Note_on_c, 0, 64, 0
1, 30480, Note_on_c, 0, 65, 64
1, 30480, Note_on_c, 1, 58, 0
1, 30480, Note_on_c, 1, 56, 64
1, 30514, Note_on_c, 0, 65, 0
1, 30516, Note_on_c, 0, 68, 64
1, 30525, Note_on_c, 1, 56, 0
1, 30528, Note_on_c, 0, 68, 0
1, 30528, Note_on_c, 0, 58, 80
1, 30564, Note_on_c, 1, 50, 64
1, 30576, Note_on_c, 1, 50, 0
1, 30576, Note_on_c, 1, 53, 64
1, 30610, Note_on_c, 1, 53, 0
1, 30612, Note_on_c, 1, 56, 64
1, 30624, Note_on_c, 1, 56, 0
1, 30624, Note_on_c, 1, 56, 64
1, 30658, Note_on_c, 0, 58, 0
1, 30660, Note_on_c, 0, 62, 64
1, 30672, Note_on_c, 0, 62, 0
1, 30672, Note_on_c, 0, 63, 64
1, 30672, Note_on_c, 1, 56, 0
1, 30672, Note_on_c, 1, 55, 64
1, 30706, Note_on_c, 0, 63, 0
1, 30708, Note_on_c, 0, 67, 64
1, 30717, Note_on_c, 1, 55, 0
1, 30720, Note_on_c, 0, 67, 0
1, 30720, Note_on_c, 0, 67, 64
1, 30768, Note_on_c, 0, 67, 0
1, 30768, Note_on_c, 0, 60, 67
1, 30768, Note_on_c, 1, 44, 64
1, 30802, Note_on_c, 0, 60, 0
1, 30804, Note_on_c, 0, 68, 69
1, 30813, Note_on_c, 1, 44, 0
1, 30816, Note_on_c, 0, 68, 0
1, 30816, Note_on_c, 0, 68, 70
1, 30864, Note_on_c, 1, 56, 64
1, 30864, Note_on_c, 1, 46, 64
1, 30888, Note_on_c, 0, 68, 0
1, 30888, Note_on_c, 0, 65, 68
1, 30900, Note_on_c, 0, 65, 0
1, 30900, Note_on_c, 0, 62, 67
1, 30909, Note_on_c, 1, 56, 0
1, 30909, Note_on_c, 1, 46, 0
1, 30912, Note_on_c, 0, 62, 0
1, 30912, Note_on_c, 0, 62, 67
1, 30912, Note_on_c, 1, 56, 64
1, 30912, Note_on_c, 1, 51, 64
1, 31008, Note_on_c, 0, 62, 0
1, 31008, Note_on_c, 0, 63, 65
1, 31008, Note_on_c, 1, 56, 0
1, 31008, Note_on_c, 1, 55, 64
1, 31053, Note_on_c, 0, 63, 0
1, 31053, Note_on_c, 1, 55, 0
1, 31053, Note_on_c, 1, 51, 0
1, 31104, Note_on_c, 0, 72, 80
1, 31140, Note_on_c, 1, 64, 64
1, 31152, Note_on_c, 1, 64, 0
1, 31152, Note_on_c, 1, 67, 64
1, 31186, Note_on_c, 1, 67, 0
1, 31188, Note_on_c, 1, 70, 64
1, 31200, Note_on_c, 1, 70, 0
1, 31200, Note_on_c, 1, 70, 64
1, 31234, Note_on_c, 0, 72, 0
1, 31236, Note_on_c, 0, 76, 64
1, 31248, Note_on_c, 0, 76, 0
1, 31248, Note_on_c, 0, 77, 64
1, 31248, Note_on_c, 1, 70, 0
1, 31248, Note_on_c, 1, 68, 64
1, 31282, Note_on_c, 0, 77, 0
1, 31284, Note_on_c, 0, 80, 64
1, 31293, Note_on_c, 1, 68, 0
1, 31296, Note_on_c, 0, 80, 0
1, 31296, Note_on_c, 0, 70, 80
1, 31332, Note_on_c, 1, 62, 64
1, 31344, Note_on_c, 1, 62, 0
1, 31344, Note_on_c, 1, 65, 64
1, 31378, Note_on_c, 1, 65, 0
1, 31380, Note_on_c, 1, 68, 64
1, 31392, Note_on_c, 1, 68, 0
1, 31392, Note_on_c, 1, 68, 64
1, 31426, Note_on_c, 0, 70, 0
1, 31428, Note_on_c, 0, 74, 64
1, 31440, Note_on_c, 0, 74, 0
1, 31440, Note_on_c, 0, 75, 64
1, 31440, Note_on_c, 1, 68, 0
1, 31440, Note_on_c, 1, 67, 64
1, 31474, Note_on_c, 0, 75, 0
1, 31476, Note_on_c, 0, 79, 64
1, 31485, Note_on_c, 1, 67, 0
1, 31488, Note_on_c, 0, 79, 0
1, 31488, Note_on_c, 1, 70, 64
1, 31511, Note_on_c, 1, 70, 0
1, 31512, Note_on_c, 0, 75, 64
1, 31512, Note_on_c, 1, 67, 64
1, 31524, Note_on_c, 1, 67, 0
1, 31524, Note_on_c, 1, 70, 64
1, 31535, Note_on_c, 0, 75, 0
1, 31536, Note_on_c, 0, 74, 65
1, 31536, Note_on_c, 1, 70, 0
1, 31536, Note_on_c, 1, 65, 65
1, 31548, Note_on_c, 1, 65, 0
1, 31548, Note_on_c, 1, 70, 65
1, 31559, Note_on_c, 0, 74, 0
1, 31560, Note_on_c, 0, 79, 65
1, 31560, Note_on_c, 1, 70, 0
1, 31560, Note_on_c, 1, 63, 65
1, 31572, Note_on_c, 1, 63, 0
1, 31572, Note_on_c, 1, 70, 66
1, 31583, Note_on_c, 0, 79, 0
1, 31584, Note_on_c, 0, 77, 66
1, 31584, Note_on_c, 1, 70, 0
1, 31584, Note_on_c, 1, 62, 66
1, 31607, Note_on_c, 0, 77, 0
1, 31607, Note_on_c, 1, 62, 0
1, 31608, Note_on_c, 0, 75, 66
1, 31608, Note_on_c, 1, 67, 66
1, 31620, Note_on_c, 1, 67, 0
1, 31620, Note_on_c, 1, 70, 67
1, 31631, Note_on_c, 0, 75, 0
1, 31632, Note_on_c, 0, 74, 67
1, 31632, Note_on_c, 1, 70, 0
1, 31632, Note_on_c, 1, 65, 67
1, 31644, Note_on_c, 1, 65, 0
1, 31644, Note_on_c, 1, 70, 67
1, 31655, Note_on_c, 0, 74, 0
1, 31656, Note_on_c, 0, 79, 68
1, 31656, Note_on_c, 1, 70, 0
1, 31656, Note_on_c, 1, 63, 68
1, 31668, Note_on_c, 1, 63, 0
1, 31668, Note_on_c, 1, 70, 68
1, 31679, Note_on_c, 0, 79, 0
1, 31680, Note_on_c, 0, 77, 68
1, 31680, Note_on_c, 1, 70, 0
1, 31680, Note_on_c, 1, 62, 68
1, 31703, Note_on_c, 0, 77, 0
1, 31703, Note_on_c, 1, 62, 0
1, 31704, Note_on_c, 0, 72, 69
1, 31704, Note_on_c, 1, 68, 69
1, 31716, Note_on_c, 0, 72, 0
1, 31716, Note_on_c, 0, 75, 69
1, 31727, Note_on_c, 1, 68, 0
1, 31728, Note_on_c, 0, 75, 0
1, 31728, Note_on_c, 0, 70, 69
1, 31728, Note_on_c, 1, 67, 69
1, 31740, Note_on_c, 0, 70, 0
1, 31740, Note_on_c, 0, 75, 70
1, 31751, Note_on_c, 1, 67, 0
1, 31752, Note_on_c, 0, 75, 0
1, 31752, Note_on_c, 0, 68, 70
1, 31752, Note_on_c, 1, 65, 70
1, 31764, Note_on_c, 0, 68, 0
1, 31764, Note_on_c, 0, 75, 70
1, 31775, Note_on_c, 1, 65, 0
1, 31776, Note_on_c, 0, 75, 0
1, 31776, Note_on_c, 0, 67, 70
1, 31776, Note_on_c, 1, 63, 70
1, 31799, Note_on_c, 0, 67, 0
1, 31799, Note_on_c, 1, 63, 0
1, 31800, Note_on_c, 0, 72, 71
1, 31800, Note_on_c, 1, 68, 71
1, 31812, Note_on_c, 0, 72, 0
1, 31812, Note_on_c, 0, 75, 71
1, 31823, Note_on_c, 1, 68, 0
1, 31824, Note_on_c, 0, 75, 0
1, 31824, Note_on_c, 0, 70, 72
1, 31824, Note_on_c, 1, 67, 72
1, 31836, Note_on_c, 0, 70, 0
1, 31836, Note_on_c, 0, 75, 72
1, 31847, Note_on_c, 1, 67, 0
1, 31848, Note_on_c, 0, 75, 0
1, 31848, Note_on_c, 0, 68, 72
1, 31848, Note_on_c, 1, 65, 72
1, 31860, Note_on_c, 0, 68, 0
1, 31860, Note_on_c, 0, 75, 72
1, 31871, Note_on_c, 1, 65, 0
1, 31872, Note_on_c, 0, 75, 0
1, 31872, Note_on_c, 0, 67, 73
1, 31872, Note_on_c, 1, 63, 73
1, 31884, Note_on_c, 0, 67, 0
1, 31884, Note_on_c, 0, 75, 73
1, 31895, Note_on_c, 1, 63, 0
1, 31896, Note_on_c, 0, 75, 0
1, 31896, Note_on_c, 0, 68, 73
1, 31896, Note_on_c, 1, 65, 73
1, 31908, Note_on_c, 0, 68, 0
1, 31908, Note_on_c, 0, 75, 74
1, 31919, Note_on_c, 1, 65, 0
1, 31920, Note_on_c, 0, 75, 0
1, 31920, Note_on_c, 0, 67, 74
1, 31920, Note_on_c, 1, 63, 74
1, 31932, Note_on_c, 0, 67, 0
1, 31932, Note_on_c, 0, 75, 74
1, 31943, Note_on_c, 1, 63, 0
1, 31944, Note_on_c, 0, 75, 0
1, 31944, Note_on_c, 0, 65, 74
1, 31944, Note_on_c, 1, 61, 74
1, 31956, Note_on_c, 0, 65, 0
1, 31956, Note_on_c, 0, 75, 75
1, 31967, Note_on_c, 1, 61, 0
1, 31968, Note_on_c, 0, 75, 0
1, 31968, Note_on_c, 0, 63, 75
1, 31968, Note_on_c, 1, 60, 75
1, 31980, Note_on_c, 0, 63, 0
1, 31980, Note_on_c, 0, 75, 75
1, 31991, Note_on_c, 1, 60, 0
1, 31992, Note_on_c, 0, 75, 0
1, 31992, Note_on_c, 0, 65, 76
1, 31992, Note_on_c, 1, 61, 76
1, 32004, Note_on_c, 0, 65, 0
1, 32004, Note_on_c, 0, 75, 76
1, 32015, Note_on_c, 1, 61, 0
1, 32016, Note_on_c, 0, 75, 0
1, 32016, Note_on_c, 0, 63, 76
1, 32016, Note_on_c, 1, 60, 76
1, 32028, Note_on_c, 0, 63, 0
1, 32028, Note_on_c, 0, 75, 76
1, 32039, Note_on_c, 1, 60, 0
1, 32040, Note_on_c, 0, 75, 0
1, 32040, Note_on_c, 0, 61, 77
1, 32040, Note_on_c, 1, 58, 77
1, 32052, Note_on_c, 0, 61, 0
1, 32052, Note_on_c, 0, 75, 77
1, 32063, Note_on_c, 1, 58, 0
1, 32064, Note_on_c, 0, 75, 0
1, 32064, Note_on_c, 0, 60, 77
1, 32064, Note_on_c, 1, 56, 77
1, 32087, Note_on_c, 0, 60, 0
1, 32088, Note_on_c, 0, 62, 78
1, 32100, Note_on_c, 0, 62, 0
1, 32100, Note_on_c, 0, 64, 78
1, 32112, Note_on_c, 0, 64, 0
1, 32112, Note_on_c, 0, 65, 78
1, 32124, Note_on_c, 0, 65, 0
1, 32124, Note_on_c, 0, 67, 79
1, 32136, Note_on_c, 0, 67, 0
1, 32136, Note_on_c, 0, 68, 79
1, 32148, Note_on_c, 0, 68, 0
1, 32148, Note_on_c, 0, 70, 79
1, 32153, Note_on_c, 1, 56, 0
1, 32160, Note_on_c, 0, 70, 0
1, 32160, Note_on_c, 0, 72, 80
1, 32194, Note_on_c, 0, 72, 0
1, 32196, Note_on_c, 0, 67, 80
1, 32208, Note_on_c, 0, 67, 0
1, 32208, Note_on_c, 0, 68, 80
1, 32242, Note_on_c, 0, 68, 0
1, 32244, Note_on_c, 0, 64, 80
1, 32256, Note_on_c, 0, 64, 0
1, 32256, Note_on_c, 0, 65, 80
1, 32256, Note_on_c, 1, 53, 80
1, 32256, Note_on_c, 1, 48, 80
1, 32256, Note_on_c, 1, 44, 80
1, 32290, Note_on_c, 0, 65, 0
1, 32292, Note_on_c, 0, 67, 80
1, 32298, Note_on_c, 0, 67, 0
1, 32298, Note_on_c, 0, 68, 80
1, 32304, Note_on_c, 0, 68, 0
1, 32304, Note_on_c, 0, 70, 80
1, 32310, Note_on_c, 0, 70, 0
1, 32310, Note_on_c, 0, 72, 80
1, 32316, Note_on_c, 0, 72, 0
1, 32316, Note_on_c, 0, 74, 80
1, 32322, Note_on_c, 0, 74, 0
1, 32322, Note_on_c, 0, 76, 80
1, 32328, Note_on_c, 0, 76, 0
1, 32328, Note_on_c, 0, 77, 80
1, 32334, Note_on_c, 0, 77, 0
1, 32334, Note_on_c, 0, 79, 80
1, 32340, Note_on_c, 0, 79, 0
1, 32340, Note_on_c, 0, 80, 80
1, 32345, Note_on_c, 1, 53, 0
1, 32345, Note_on_c, 1, 48, 0
1, 32345, Note_on_c, 1, 44, 0
1, 32346, Note_on_c, 0, 80, 0
1, 32346, Note_on_c, 0, 82, 80
1, 32352, Note_on_c, 0, 82, 0
1, 32352, Note_on_c, 0, 84, 80
1, 32386, Note_on_c, 0, 84, 0
1, 32388, Note_on_c, 0, 79, 80
1, 32400, Note_on_c, 0, 79, 0
1, 32400, Note_on_c, 0, 82, 80
1, 32412, Note_on_c, 0, 82, 0
1, 32412, Note_on_c, 0, 80, 80
1, 32424, Note_on_c, 0, 80, 0
1, 32424, Note_on_c, 0, 79, 80
1, 32436, Note_on_c, 0, 79, 0
1, 32436, Note_on_c, 0, 77, 78
1, 32448, Note_on_c, 0, 77, 0
1, 32448, Note_on_c, 0, 75, 77
1, 32448, Note_on_c, 1, 67, 80
1, 32448, Note_on_c, 1, 58, 80
1, 32544, Note_on_c, 0, 75, 0
1, 32544, Note_on_c, 0, 74, 68
1, 32544, Note_on_c, 1, 67, 0
1, 32544, Note_on_c, 1, 65, 69
1, 32589, Note_on_c, 0, 74, 0
1, 32589, Note_on_c, 1, 65, 0
1, 32589, Note_on_c, 1, 58, 0
1, 32640, Note_on_c, 0, 63, 75
1, 32640, Note_on_c, 0, 55, 75
1, 32640, Note_on_c, 1, 51, 75
1, 32640, Note_on_c, 1, 39, 75
1, 32663, Note_on_c, 0, 63, 0
1, 32663, Note_on_c, 0, 55, 0
1, 32664, Note_on_c, 0, 58, 75
1, 32672, Note_on_c, 0, 58, 0
1, 32672, Note_on_c, 0, 60, 75
1, 32680, Note_on_c, 0, 60, 0
1, 32680, Note_on_c, 0, 58, 75
1, 32685, Note_on_c, 1, 51, 0
1, 32685, Note_on_c, 1, 39, 0
1, 32688, Note_on_c, 0, 58, 0
1, 32688, Note_on_c, 0, 63, 75
1, 32711, Note_on_c, 0, 63, 0
1, 32712, Note_on_c, 0, 55, 75
1, 32712, Note_on_c, 1, 51, 75
1, 32724, Note_on_c, 0, 55, 0
1, 32724, Note_on_c, 0, 63, 75
1, 32735, Note_on_c, 1, 51, 0
1, 32736, Note_on_c, 0, 63, 0
1, 32736, Note_on_c, 0, 56, 75
1, 32736, Note_on_c, 1, 53, 75
1, 32748, Note_on_c, 0, 56, 0
1, 32748, Note_on_c, 0, 63, 75
1, 32759, Note_on_c, 1, 53, 0
1, 32760, Note_on_c, 0, 63, 0
1, 32760, Note_on_c, 0, 55, 75
1, 32760, Note_on_c, 1, 51, 75
1, 32772, Note_on_c, 0, 55, 0
1, 32772, Note_on_c, 0, 63, 75
1, 32783, Note_on_c, 1, 51, 0
1, 32784, Note_on_c, 0, 63, 0
1, 32784, Note_on_c, 0, 56, 75
1, 32784, Note_on_c, 1, 53, 75
1, 32796, Note_on_c, 0, 56, 0
1, 32796, Note_on_c, 0, 63, 75
1, 32807, Note_on_c, 1, 53, 0
1, 32808, Note_on_c, 0, 63, 0
1, 32808, Note_on_c, 0, 58, 75
1, 32808, Note_on_c, 1, 55, 75
1, 32820, Note_on_c, 0, 58, 0
1, 32820, Note_on_c, 0, 63, 75
1, 32831, Note_on_c, 1, 55, 0
1, 32832, Note_on_c, 0, 63, 0
1, 32832, Note_on_c, 0, 60, 75
1, 32832, Note_on_c, 1, 56, 75
1, 32855, Note_on_c, 0, 60, 0
1, 32856, Note_on_c, 0, 68, 75
1, 32856, Note_on_c, 0, 60, 75
1, 32879, Note_on_c, 0, 68, 0
1, 32879, Note_on_c, 0, 60, 0
1, 32880, Note_on_c, 0, 68, 75
1, 32880, Note_on_c, 0, 60, 75
1, 32903, Note_on_c, 0, 68, 0
1, 32903, Note_on_c, 0, 60, 0
1, 32904, Note_on_c, 0, 68, 75
1, 32904, Note_on_c, 0, 60, 75
1, 32921, Note_on_c, 1, 56, 0
1, 32927, Note_on_c, 0, 68, 0
1, 32927, Note_on_c, 0, 60, 0
1, 32928, Note_on_c, 0, 68, 75
1, 32928, Note_on_c, 0, 60, 75
1, 32952, Note_on_c, 0, 68, 0
1, 32952, Note_on_c, 0, 60, 0
1, 32952, Note_on_c, 0, 67, 75
1, 32952, Note_on_c, 0, 58, 75
1, 32975, Note_on_c, 0, 67, 0
1, 32975, Note_on_c, 0, 58, 0
1, 32976, Note_on_c, 0, 67, 75
1, 32976, Note_on_c, 0, 58, 75
1, 33000, Note_on_c, 0, 67, 0
1, 33000, Note_on_c, 0, 58, 0
1, 33000, Note_on_c, 0, 65, 75
1, 33000, Note_on_c, 0, 56, 75
1, 33023, Note_on_c, 0, 65, 0
1, 33023, Note_on_c, 0, 56, 0
1, 33024, Note_on_c, 0, 63, 75
1, 33024, Note_on_c, 0, 55, 75
1, 33024, Note_on_c, 1, 51, 75
1, 33024, Note_on_c, 1, 39, 75
1, 33047, Note_on_c, 0, 63, 0
1, 33047, Note_on_c, 0, 55, 0
1, 33048, Note_on_c, 0, 58, 75
1, 33056, Note_on_c, 0, 58, 0
1, 33056, Note_on_c, 0, 60, 75
1, 33064, Note_on_c, 0, 60, 0
1, 33064, Note_on_c, 0, 58, 75
1, 33069, Note_on_c, 1, 51, 0
1, 33069, Note_on_c, 1, 39, 0
1, 33072, Note_on_c, 0, 58, 0
1, 33072, Note_on_c, 0, 63, 75
1, 33095, Note_on_c, 0, 63, 0
1, 33096, Note_on_c, 0, 55, 75
1, 33096, Note_on_c, 1, 51, 75
1, 33108, Note_on_c, 0, 55, 0
1, 33108, Note_on_c, 0, 63, 75
1, 33119, Note_on_c, 1, 51, 0
1, 33120, Note_on_c, 0, 63, 0
1, 33120, Note_on_c, 0, 56, 75
1, 33120, Note_on_c, 1, 41, 75
1, 33132, Note_on_c, 0, 56, 0
1, 33132, Note_on_c, 0, 63, 75
1, 33143, Note_on_c, 1, 41, 0
1, 33144, Note_on_c, 0, 63, 0
1, 33144, Note_on_c, 0, 55, 75
1, 33144, Note_on_c, 1, 39, 75
1, 33156, Note_on_c, 0, 55, 0
1, 33156, Note_on_c, 0, 63, 75
1, 33167, Note_on_c, 1, 39, 0
1, 33168, Note_on_c, 0, 63, 0
1, 33168, Note_on_c, 0, 56, 75
1, 33168, Note_on_c, 1, 41, 75
1, 33180, Note_on_c, 0, 56, 0
1, 33180, Note_on_c, 0, 63, 75
1, 33191, Note_on_c, 1, 41, 0
1, 33192, Note_on_c, 0, 63, 0
1, 33192, Note_on_c, 0, 58, 75
1, 33192, Note_on_c, 1, 43, 75
1, 33204, Note_on_c, 0, 58, 0
1, 33204, Note_on_c, 0, 63, 75
1, 33215, Note_on_c, 1, 43, 0
1, 33216, Note_on_c, 0, 63, 0
1, 33216, Note_on_c, 0, 60, 75
1, 33216, Note_on_c, 1, 44, 75
1, 33239, Note_on_c, 0, 60, 0
1, 33240, Note_on_c, 0, 72, 75
1, 33240, Note_on_c, 0, 68, 75
1, 33263, Note_on_c, 0, 72, 0
1, 33263, Note_on_c, 0, 68, 0
1, 33264, Note_on_c, 0, 72, 75
1, 33264, Note_on_c, 0, 68, 75
1, 33287, Note_on_c, 0, 72, 0
1, 33287, Note_on_c, 0, 68, 0
1, 33288, Note_on_c, 0, 72, 75
1, 33288, Note_on_c, 0, 68, 75
1, 33305, Note_on_c, 1, 44, 0
1, 33311, Note_on_c, 0, 72, 0
1, 33311, Note_on_c, 0, 68, 0
1, 33312, Note_on_c, 0, 72, 75
1, 33312, Note_on_c, 0, 68, 75
1, 33336, Note_on_c, 0, 72, 0
1, 33336, Note_on_c, 0, 68, 0
1, 33336, Note_on_c, 0, 70, 75
1, 33336, Note_on_c, 0, 67, 75
1, 33359, Note_on_c, 0, 70, 0
1, 33359, Note_on_c, 0, 67, 0
1, 33360, Note_on_c, 0, 70, 75
1, 33360, Note_on_c, 0, 67, 75
1, 33384, Note_on_c, 0, 70, 0
1, 33384, Note_on_c, 0, 67, 0
1, 33384, Note_on_c, 0, 68, 75
1, 33384, Note_on_c, 0, 65, 75
1, 33407, Note_on_c, 0, 68, 0
1, 33407, Note_on_c, 0, 65, 0
1, 33408, Note_on_c, 0, 67, 75
1, 33408, Note_on_c, 0, 63, 75
1, 33408, Note_on_c, 1, 51, 75
1, 33408, Note_on_c, 1, 39, 75
1, 33431, Note_on_c, 0, 67, 0
1, 33431, Note_on_c, 0, 63, 0
1, 33432, Note_on_c, 0, 70, 75
1, 33440, Note_on_c, 0, 70, 0
1, 33440, Note_on_c, 0, 72, 75
1, 33448, Note_on_c, 0, 72, 0
1, 33448, Note_on_c, 0, 70, 75
1, 33453, Note_on_c, 1, 51, 0
1, 33453, Note_on_c, 1, 39, 0
1, 33456, Note_on_c, 0, 70, 0
1, 33456, Note_on_c, 0, 75, 75
1, 33479, Note_on_c, 0, 75, 0
1, 33480, Note_on_c, 0, 70, 75
1, 33480, Note_on_c, 1, 67, 75
1, 33492, Note_on_c, 0, 70, 0
1, 33492, Note_on_c, 0, 75, 75
1, 33503, Note_on_c, 1, 67, 0
1, 33504, Note_on_c, 0, 75, 0
1, 33504, Note_on_c, 0, 72, 75
1, 33504, Note_on_c, 1, 68, 75
1, 33516, Note_on_c, 0, 72, 0
1, 33516, Note_on_c, 0, 75, 75
1, 33527, Note_on_c, 1, 68, 0
1, 33528, Note_on_c, 0, 75, 0
1, 33528, Note_on_c, 0, 70, 75
1, 33528, Note_on_c, 1, 67, 75
1, 33540, Note_on_c, 0, 70, 0
1, 33540, Note_on_c, 0, 75, 75
1, 33551, Note_on_c, 1, 67, 0
1, 33552, Note_on_c, 0, 75, 0
1, 33552, Note_on_c, 0, 72, 75
1, 33552, Note_on_c, 1, 68, 75
1, 33564, Note_on_c, 0, 72, 0
1, 33564, Note_on_c, 0, 75, 75
1, 33575, Note_on_c, 1, 68, 0
1, 33576, Note_on_c, 0, 75, 0
1, 33576, Note_on_c, 0, 73, 75
1, 33576, Note_on_c, 1, 70, 75
1, 33588, Note_on_c, 0, 73, 0
1, 33588, Note_on_c, 0, 75, 75
1, 33599, Note_on_c, 1, 70, 0
1, 33600, Note_on_c, 0, 75, 0
1, 33600, Note_on_c, 0, 72, 75
1, 33600, Note_on_c, 1, 68, 75
1, 33623, Note_on_c, 0, 72, 0
1, 33624, Note_on_c, 0, 80, 75
1, 33634, Note_on_c, 0, 80, 0
1, 33648, Note_on_c, 0, 80, 75
1, 33658, Note_on_c, 0, 80, 0
1, 33672, Note_on_c, 0, 80, 75
1, 33682, Note_on_c, 0, 80, 0
1, 33689, Note_on_c, 1, 68, 0
1, 33696, Note_on_c, 0, 80, 75
1, 33708, Note_on_c, 0, 80, 0
1, 33708, Note_on_c, 0, 82, 75
1, 33720, Note_on_c, 0, 82, 0
1, 33720, Note_on_c, 0, 80, 75
1, 33732, Note_on_c, 0, 80, 0
1, 33732, Note_on_c, 0, 79, 75
1, 33744, Note_on_c, 0, 79, 0
1, 33744, Note_on_c, 0, 77, 75
1, 33756, Note_on_c, 0, 77, 0
1, 33756, Note_on_c, 0, 75, 75
1, 33768, Note_on_c, 0, 75, 0
1, 33768, Note_on_c, 0, 74, 75
1, 33780, Note_on_c, 0, 74, 0
1, 33780, Note_on_c, 0, 72, 75
1, 33792, Note_on_c, 0, 72, 0
1, 33792, Note_on_c, 0, 70, 75
1, 33816, Note_on_c, 1, 68, 70
1, 33816, Note_on_c, 1, 62, 70
1, 33826, Note_on_c, 1, 68, 0
1, 33826, Note_on_c, 1, 62, 0
1, 33837, Note_on_c, 0, 70, 0
1, 33840, Note_on_c, 1, 68, 70
1, 33840, Note_on_c, 1, 62, 70
1, 33850, Note_on_c, 1, 68, 0
1, 33850, Note_on_c, 1, 62, 0
1, 33864, Note_on_c, 1, 68, 70
1, 33864, Note_on_c, 1, 62, 70
1, 33874, Note_on_c, 1, 68, 0
1, 33874, Note_on_c, 1, 62, 0
1, 33888, Note_on_c, 1, 67, 70
1, 33888, Note_on_c, 1, 63, 70
1, 33912, Note_on_c, 0, 79, 75
1, 33924, Note_on_c, 0, 79, 0
1, 33924, Note_on_c, 0, 77, 75
1, 33933, Note_on_c, 1, 67, 0
1, 33933, Note_on_c, 1, 63, 0
1, 33936, Note_on_c, 0, 77, 0
1, 33936, Note_on_c, 0, 75, 75
1, 33948, Note_on_c, 0, 75, 0
1, 33948, Note_on_c, 0, 74, 75
1, 33960, Note_on_c, 0, 74, 0
1, 33960, Note_on_c, 0, 72, 75
1, 33972, Note_on_c, 0, 72, 0
1, 33972, Note_on_c, 0, 70, 75
1, 33984, Note_on_c, 0, 70, 0
1, 33984, Note_on_c, 0, 68, 75
1, 34008, Note_on_c, 1, 67, 64
1, 34008, Note_on_c, 1, 60, 64
1, 34018, Note_on_c, 1, 67, 0
1, 34018, Note_on_c, 1, 60, 0
1, 34029, Note_on_c, 0, 68, 0
1, 34032, Note_on_c, 1, 67, 64
1, 34032, Note_on_c, 1, 60, 64
1, 34042, Note_on_c, 1, 67, 0
1, 34042, Note_on_c, 1, 60, 0
1, 34056, Note_on_c, 1, 67, 64
1, 34056, Note_on_c, 1, 60, 64
1, 34066, Note_on_c, 1, 67, 0
1, 34066, Note_on_c, 1, 60, 0
1, 34080, Note_on_c, 1, 65, 64
1, 34080, Note_on_c, 1, 62, 64
1, 34104, Note_on_c, 0, 77, 75
1, 34116, Note_on_c, 0, 77, 0
1, 34116, Note_on_c, 0, 75, 75
1, 34125, Note_on_c, 1, 65, 0
1, 34125, Note_on_c, 1, 62, 0
1, 34128, Note_on_c, 0, 75, 0
1, 34128, Note_on_c, 0, 74, 75
1, 34140, Note_on_c, 0, 74, 0
1, 34140, Note_on_c, 0, 72, 75
1, 34152, Note_on_c, 0, 72, 0
1, 34152, Note_on_c, 0, 70, 75
1, 34164, Note_on_c, 0, 70, 0
1, 34164, Note_on_c, 0, 68, 75
1, 34176, Note_on_c, 0, 68, 0
1, 34176, Note_on_c, 0, 67, 75
1, 34200, Note_on_c, 1, 65, 64
1, 34200, Note_on_c, 1, 59, 64
1, 34210, Note_on_c, 1, 65, 0
1, 34210, Note_on_c, 1, 59, 0
1, 34221, Note_on_c, 0, 67, 0
1, 34224, Note_on_c, 1, 65, 64
1, 34224, Note_on_c, 1, 59, 64
1, 34234, Note_on_c, 1, 65, 0
1, 34234, Note_on_c, 1, 59, 0
1, 34248, Note_on_c, 1, 65, 64
1, 34248, Note_on_c, 1, 59, 64
1, 34258, Note_on_c, 1, 65, 0
1, 34258, Note_on_c, 1, 59, 0
1, 34272, Note_on_c, 1, 63, 64
1, 34272, Note_on_c, 1, 60, 64
1, 34296, Note_on_c, 0, 75, 75
1, 34308, Note_on_c, 0, 75, 0
1, 34308, Note_on_c, 0, 74, 75
1, 34317, Note_on_c, 1, 63, 0
1, 34317, Note_on_c, 1, 60, 0
1, 34320, Note_on_c, 0, 74, 0
1, 34320, Note_on_c, 0, 72, 75
1, 34332, Note_on_c, 0, 72, 0
1, 34332, Note_on_c, 0, 70, 75
1, 34344, Note_on_c, 0, 70, 0
1, 34344, Note_on_c, 0, 68, 75
1, 34356, Note_on_c, 0, 68, 0
1, 34356, Note_on_c, 0, 67, 75
1, 34368, Note_on_c, 0, 67, 0
1, 34368, Note_on_c, 0, 65, 75
1, 34392, Note_on_c, 1, 63, 75
1, 34413, Note_on_c, 0, 65, 0
1, 34416, Note_on_c, 1, 63, 0
1, 34416, Note_on_c, 1, 57, 75
1, 34439, Note_on_c, 1, 57, 0
1, 34440, Note_on_c, 0, 75, 75
1, 34464, Note_on_c, 0, 75, 0
1, 34464, Note_on_c, 0, 67, 75
1, 34487, Note_on_c, 0, 67, 0
1, 34488, Note_on_c, 1, 63, 76
1, 34512, Note_on_c, 1, 63, 0
1, 34512, Note_on_c, 1, 58, 76
1, 34535, Note_on_c, 1, 58, 0
1, 34536, Note_on_c, 0, 75, 76
1, 34560, Note_on_c, 0, 75, 0
1, 34560, Note_on_c, 0, 68, 77
1, 34583, Note_on_c, 0, 68, 0
1, 34584, Note_on_c, 1, 63, 77
1, 34608, Note_on_c, 1, 63, 0
1, 34608, Note_on_c, 1, 60, 77
1, 34631, Note_on_c, 1, 60, 0
1, 34632, Note_on_c, 0, 75, 78
1, 34656, Note_on_c, 0, 75, 0
1, 34656, Note_on_c, 0, 67, 78
1, 34679, Note_on_c, 0, 67, 0
1, 34680, Note_on_c, 1, 63, 78
1, 34704, Note_on_c, 1, 63, 0
1, 34704, Note_on_c, 1, 58, 79
1, 34727, Note_on_c, 1, 58, 0
1, 34728, Note_on_c, 0, 75, 79
1, 34751, Note_on_c, 0, 75, 0
1, 34752, Note_on_c, 0, 65, 79
1, 34752, Note_on_c, 1, 57, 79
1, 34764, Note_on_c, 0, 65, 0
1, 34764, Note_on_c, 0, 75, 80
1, 34775, Note_on_c, 1, 57, 0
1, 34776, Note_on_c, 0, 75, 0
1, 34776, Note_on_c, 0, 66, 80
1, 34776, Note_on_c, 1, 58, 80
1, 34788, Note_on_c, 0, 66, 0
1, 34788, Note_on_c, 0, 75, 80
1, 34799, Note_on_c, 1, 58, 0
1, 34800, Note_on_c, 0, 75, 0
1, 34800, Note_on_c, 0, 65, 80
1, 34800, Note_on_c, 1, 57, 80
1, 34812, Note_on_c, 0, 65, 0
1, 34812, Note_on_c, 0, 75, 80
1, 34823, Note_on_c, 1, 57, 0
1, 34824, Note_on_c, 0, 75, 0
1, 34824, Note_on_c, 0, 66, 80
1, 34824, Note_on_c, 1, 58, 80
1, 34836, Note_on_c, 0, 66, 0
1, 34836, Note_on_c, 0, 75, 80
1, 34847, Note_on_c, 1, 58, 0
1, 34848, Note_on_c, 0, 75, 0
1, 34848, Note_on_c, 0, 65, 80
1, 34848, Note_on_c, 1, 57, 80
1, 34871, Note_on_c, 0, 65, 0
1, 34872, Note_on_c, 0, 75, 80
1, 34893, Note_on_c, 1, 57, 0
1, 34895, Note_on_c, 0, 75, 0
1, 34896, Note_on_c, 0, 75, 80
1, 34919, Note_on_c, 0, 75, 0
1, 34920, Note_on_c, 0, 75, 80
1, 34920, Note_on_c, 1, 65, 80
1, 34920, Note_on_c, 1, 57, 80
1, 34943, Note_on_c, 0, 75, 0
1, 34944, Note_on_c, 0, 75, 80
1, 34944, Note_on_c, 1, 65, 0
1, 34944, Note_on_c, 1, 57, 0
1, 34944, Note_on_c, 1, 65, 80
1, 34944, Note_on_c, 1, 58, 80
1, 34956, Note_on_c, 0, 75, 0
1, 34956, Note_on_c, 0, 74, 79
1, 34968, Note_on_c, 0, 74, 0
1, 34968, Note_on_c, 0, 72, 78
1, 34980, Note_on_c, 0, 72, 0
1, 34980, Note_on_c, 0, 70, 78
1, 34989, Note_on_c, 1, 65, 0
1, 34989, Note_on_c, 1, 58, 0
1, 34992, Note_on_c, 0, 70, 0
1, 34992, Note_on_c, 0, 70, 77
1, 35002, Note_on_c, 0, 70, 0
1, 35016, Note_on_c, 0, 75, 76
1, 35016, Note_on_c, 1, 65, 77
1, 35016, Note_on_c, 1, 57, 77
1, 35039, Note_on_c, 0, 75, 0
1, 35040, Note_on_c, 0, 75, 74
1, 35040, Note_on_c, 1, 65, 0
1, 35040, Note_on_c, 1, 57, 0
1, 35040, Note_on_c, 1, 65, 76
1, 35040, Note_on_c, 1, 58, 76
1, 35052, Note_on_c, 0, 75, 0
1, 35052, Note_on_c, 0, 74, 74
1, 35064, Note_on_c, 0, 74, 0
1, 35064, Note_on_c, 0, 72, 73
1, 35076, Note_on_c, 0, 72, 0
1, 35076, Note_on_c, 0, 70, 72
1, 35085, Note_on_c, 1, 65, 0
1, 35085, Note_on_c, 1, 58, 0
1, 35088, Note_on_c, 0, 70, 0
1, 35088, Note_on_c, 0, 70, 72
1, 35098, Note_on_c, 0, 70, 0
1, 35112, Note_on_c, 0, 75, 70
1, 35112, Note_on_c, 1, 65, 73
1, 35112, Note_on_c, 1, 57, 73
1, 35135, Note_on_c, 0, 75, 0
1, 35136, Note_on_c, 0, 75, 69
1, 35136, Note_on_c, 1, 65, 0
1, 35136, Note_on_c, 1, 57, 0
1, 35136, Note_on_c, 1, 65, 72
1, 35136, Note_on_c, 1, 58, 72
1, 35148, Note_on_c, 0, 75, 0
1, 35148, Note_on_c, 0, 74, 68
1, 35160, Note_on_c, 0, 74, 0
1, 35160, Note_on_c, 0, 72, 68
1, 35172, Note_on_c, 0, 72, 0
1, 35172, Note_on_c, 0, 70, 67
1, 35181, Note_on_c, 1, 65, 0
1, 35181, Note_on_c, 1, 58, 0
1, 35184, Note_on_c, 0, 70, 0
1, 35184, Note_on_c, 0, 70, 66
1, 35204, Note_on_c, 0, 70, 0
1, 35208, Note_on_c, 1, 34, 64
1, 35220, Note_on_c, 1, 34, 0
1, 35220, Note_on_c, 1, 46, 66
1, 35232, Note_on_c, 1, 46, 0
1, 35232, Note_on_c, 1, 36, 68
1, 35244, Note_on_c, 1, 36, 0
1, 35244, Note_on_c, 1, 48, 70
1, 35256, Note_on_c, 1, 48, 0
1, 35256, Note_on_c, 1, 34, 72
1, 35268, Note_on_c, 1, 34, 0
1, 35268, Note_on_c, 1, 46, 75
1, 35280, Note_on_c, 1, 46, 0
1, 35280, Note_on_c, 1, 36, 77
1, 35292, Note_on_c, 1, 36, 0
1, 35292, Note_on_c, 1, 48, 79
1, 35304, Note_on_c, 1, 48, 0
1, 35304, Note_on_c, 1, 38, 81
1, 35316, Note_on_c, 1, 38, 0
1, 35316, Note_on_c, 1, 50, 83
1, 35328, Note_on_c, 0, 63, 75
1, 35328, Note_on_c, 0, 55, 75
1, 35328, Note_on_c, 1, 50, 0
1, 35328, Note_on_c, 1, 39, 86
1, 35351, Note_on_c, 1, 39, 0
1, 35352, Note_on_c, 1, 51, 86
1, 35375, Note_on_c, 1, 51, 0
1, 35376, Note_on_c, 1, 51, 86
1, 35395, Note_on_c, 0, 63, 0
1, 35395, Note_on_c, 0, 55, 0
1, 35399, Note_on_c, 1, 51, 0
1, 35400, Note_on_c, 0, 68, 75
1, 35400, Note_on_c, 0, 60, 75
1, 35400, Note_on_c, 1, 51, 86
1, 35423, Note_on_c, 0, 68, 0
1, 35423, Note_on_c, 0, 60, 0
1, 35423, Note_on_c, 1, 51, 0
1, 35424, Note_on_c, 0, 68, 75
1, 35424, Note_on_c, 0, 60, 75
1, 35424, Note_on_c, 1, 51, 86
1, 35447, Note_on_c, 1, 51, 0
1, 35448, Note_on_c, 0, 68, 0
1, 35448, Note_on_c, 0, 60, 0
1, 35448, Note_on_c, 0, 67, 75
1, 35448, Note_on_c, 0, 58, 75
1, 35448, Note_on_c, 1, 51, 86
1, 35471, Note_on_c, 0, 67, 0
1, 35471, Note_on_c, 0, 58, 0
1, 35471, Note_on_c, 1, 51, 0
1, 35472, Note_on_c, 0, 67, 75
1, 35472, Note_on_c, 0, 58, 75
1, 35472, Note_on_c, 1, 51, 86
1, 35495, Note_on_c, 1, 51, 0
1, 35496, Note_on_c, 0, 67, 0
1, 35496, Note_on_c, 0, 58, 0
1, 35496, Note_on_c, 0, 65, 75
1, 35496, Note_on_c, 0, 56, 75
1, 35496, Note_on_c, 1, 51, 86
1, 35519, Note_on_c, 0, 65, 0
1, 35519, Note_on_c, 0, 56, 0
1, 35519, Note_on_c, 1, 51, 0
1, 35520, Note_on_c, 0, 63, 75
1, 35520, Note_on_c, 0, 55, 75
1, 35520, Note_on_c, 1, 39, 86
1, 35543, Note_on_c, 1, 39, 0
1, 35544, Note_on_c, 1, 51, 86
1, 35567, Note_on_c, 1, 51, 0
1, 35568, Note_on_c, 1, 51, 86
1, 35587, Note_on_c, 0, 63, 0
1, 35587, Note_on_c, 0, 55, 0
1, 35591, Note_on_c, 1, 51, 0
1, 35592, Note_on_c, 0, 72, 75
1, 35592, Note_on_c, 0, 68, 75
1, 35592, Note_on_c, 1, 51, 86
1, 35615, Note_on_c, 0, 72, 0
1, 35615, Note_on_c, 0, 68, 0
1, 35615, Note_on_c, 1, 51, 0
1, 35616, Note_on_c, 0, 72, 75
1, 35616, Note_on_c, 0, 68, 75
1, 35616, Note_on_c, 1, 51, 86
1, 35639, Note_on_c, 1, 51, 0
1, 35640, Note_on_c, 0, 72, 0
1, 35640, Note_on_c, 0, 68, 0
1, 35640, Note_on_c, 0, 70, 75
1, 35640, Note_on_c, 0, 67, 75
1, 35640, Note_on_c, 1, 51, 86
1, 35663, Note_on_c, 0, 70, 0
1, 35663, Note_on_c, 0, 67, 0
1, 35663, Note_on_c, 1, 51, 0
1, 35664, Note_on_c, 0, 70, 75
1, 35664, Note_on_c, 0, 67, 75
1, 35664, Note_on_c, 1, 51, 86
1, 35687, Note_on_c, 1, 51, 0
1, 35688, Note_on_c, 0, 70, 0
1, 35688, Note_on_c, 0, 67, 0
1, 35688, Note_on_c, 0, 68, 75
1, 35688, Note_on_c, 0, 65, 75
1, 35688, Note_on_c, 1, 51, 86
1, 35711, Note_on_c, 0, 68, 0
1, 35711, Note_on_c, 0, 65, 0
1, 35711, Note_on_c, 1, 51, 0
1, 35712, Note_on_c, 0, 67, 75
1, 35712, Note_on_c, 0, 63, 75
1, 35712, Note_on_c, 1, 39, 86
1, 35735, Note_on_c, 1, 39, 0
1, 35736, Note_on_c, 1, 51, 86
1, 35759, Note_on_c, 1, 51, 0
1, 35760, Note_on_c, 1, 51, 86
1, 35779, Note_on_c, 0, 67, 0
1, 35779, Note_on_c, 0, 63, 0
1, 35784, Note_on_c, 0, 75, 75
1, 35784, Note_on_c, 0, 72, 75
1, 35805, Note_on_c, 1, 51, 0
1, 35807, Note_on_c, 0, 75, 0
1, 35807, Note_on_c, 0, 72, 0
1, 35808, Note_on_c, 0, 75, 75
1, 35808, Note_on_c, 0, 72, 75
1, 35832, Note_on_c, 0, 75, 0
1, 35832, Note_on_c, 0, 72, 0
1, 35832, Note_on_c, 0, 74, 75
1, 35832, Note_on_c, 0, 70, 75
1, 35855, Note_on_c, 0, 74, 0
1, 35855, Note_on_c, 0, 70, 0
1, 35856, Note_on_c, 0, 74, 75
1, 35856, Note_on_c, 0, 70, 75
1, 35880, Note_on_c, 0, 74, 0
1, 35880, Note_on_c, 0, 70, 0
1, 35880, Note_on_c, 0, 72, 75
1, 35880, Note_on_c, 0, 68, 75
1, 35903, Note_on_c, 0, 72, 0
1, 35903, Note_on_c, 0, 68, 0
1, 35904, Note_on_c, 0, 70, 75
1, 35904, Note_on_c, 0, 67, 75
1, 35904, Note_on_c, 1, 63, 75
1, 35927, Note_on_c, 1, 63, 0
1, 35928, Note_on_c, 1, 63, 75
1, 35951, Note_on_c, 1, 63, 0
1, 35952, Note_on_c, 1, 63, 76
1, 35975, Note_on_c, 1, 63, 0
1, 35976, Note_on_c, 1, 63, 77
1, 35993, Note_on_c, 0, 70, 0
1, 35993, Note_on_c, 0, 67, 0
1, 35999, Note_on_c, 1, 63, 0
1, 36000, Note_on_c, 0, 55, 77
1, 36004, Note_on_c, 0, 58, 77
1, 36008, Note_on_c, 0, 61, 77
1, 36012, Note_on_c, 0, 64, 77
1, 36016, Note_on_c, 0, 67, 77
1, 36020, Note_on_c, 0, 70, 77
1, 36024, Note_on_c, 0, 73, 77
1, 36028, Note_on_c, 0, 76, 77
1, 36089, Note_on_c, 0, 76, 0
1, 36089, Note_on_c, 0, 73, 0
1, 36089, Note_on_c, 0, 70, 0
1, 36089, Note_on_c, 0, 67, 0
1, 36089, Note_on_c, 0, 64, 0
1, 36089, Note_on_c, 0, 61, 0
1, 36089, Note_on_c, 0, 58, 0
1, 36089, Note_on_c, 0, 55, 0
1, 36096, Note_on_c, 0, 65, 80
1, 36096, Note_on_c, 1, 65, 80
1, 36096, Note_on_c, 1, 60, 80
1, 36096, Note_on_c, 1, 56, 80
1, 36130, Note_on_c, 0, 65, 0
1, 36132, Note_on_c, 0, 67, 82
1, 36138, Note_on_c, 0, 67, 0
1, 36138, Note_on_c, 0, 68, 82
1, 36144, Note_on_c, 0, 68, 0
1, 36144, Note_on_c, 0, 70, 83
1, 36150, Note_on_c, 0, 70, 0
1, 36150, Note_on_c, 0, 72, 83
1, 36156, Note_on_c, 0, 72, 0
1, 36156, Note_on_c, 0, 74, 83
1, 36162, Note_on_c, 0, 74, 0
1, 36162, Note_on_c, 0, 76, 84
1, 36168, Note_on_c, 0, 76, 0
1, 36168, Note_on_c, 0, 77, 84
1, 36174, Note_on_c, 0, 77, 0
1, 36174, Note_on_c, 0, 79, 84
1, 36180, Note_on_c, 0, 79, 0
1, 36180, Note_on_c, 0, 80, 85
1, 36186, Note_on_c, 0, 80, 0
1, 36186, Note_on_c, 0, 82, 85
1, 36192, Note_on_c, 0, 82, 0
1, 36192, Note_on_c, 0, 84, 86
1, 36229, Note_on_c, 1, 65, 0
1, 36229, Note_on_c, 1, 60, 0
1, 36229, Note_on_c, 1, 56, 0
1, 36237, Note_on_c, 0, 84, 0
1, 36264, Note_on_c, 0, 72, 80
1, 36272, Note_on_c, 0, 72, 0
1, 36272, Note_on_c, 0, 68, 79
1, 36280, Note_on_c, 0, 68, 0
1, 36280, Note_on_c, 0, 65, 79
1, 36288, Note_on_c, 0, 65, 0
1, 36288, Note_on_c, 0, 63, 78
1, 36336, Note_on_c, 1, 54, 76
1, 36336, Note_on_c, 1, 45, 76
1, 36381, Note_on_c, 1, 54, 0
1, 36381, Note_on_c, 1, 45, 0
1, 36384, Note_on_c, 1, 55, 73
1, 36384, Note_on_c, 1, 46, 73
1, 36421, Note_on_c, 0, 63, 0
1, 36432, Note_on_c, 0, 67, 70
1, 36432, Note_on_c, 1, 55, 0
1, 36432, Note_on_c, 1, 56, 70
1, 36438, Note_on_c, 0, 67, 0
1, 36438, Note_on_c, 0, 65, 70
1, 36455, Note_on_c, 0, 65, 0
1, 36456, Note_on_c, 0, 63, 68
1, 36477, Note_on_c, 1, 56, 0
1, 36477, Note_on_c, 1, 46, 0
1, 36479, Note_on_c, 0, 63, 0
1, 36480, Note_on_c, 0, 63, 67
1, 36480, Note_on_c, 1, 55, 67
1, 36480, Note_on_c, 1, 48, 67
1, 36527, Note_on_c, 0, 63, 0
1, 36527, Note_on_c, 1, 55, 0
1, 36527, Note_on_c, 1, 48, 0
1, 36552, Note_on_c, 0, 55, 80
1, 36552, Note_on_c, 1, 43, 80
1, 36564, Note_on_c, 0, 55, 0
1, 36564, Note_on_c, 0, 63, 80
1, 36575, Note_on_c, 1, 43, 0
1, 36576, Note_on_c, 0, 63, 0
1, 36576, Note_on_c, 0, 56, 80
1, 36576, Note_on_c, 1, 44, 80
1, 36588, Note_on_c, 0, 56, 0
1, 36588, Note_on_c, 0, 63, 80
1, 36599, Note_on_c, 1, 44, 0
1, 36600, Note_on_c, 0, 63, 0
1, 36600, Note_on_c, 0, 55, 80
1, 36600, Note_on_c, 1, 43, 80
1, 36612, Note_on_c, 0, 55, 0
1, 36612, Note_on_c, 0, 63, 81
1, 36623, Note_on_c, 1, 43, 0
1, 36624, Note_on_c, 0, 63, 0
1, 36624, Note_on_c, 0, 56, 81
1, 36624, Note_on_c, 1, 44, 81
1, 36636, Note_on_c, 0, 56, 0
1, 36636, Note_on_c, 0, 63, 82
1, 36647, Note_on_c, 1, 44, 0
1, 36648, Note_on_c, 0, 63, 0
1, 36648, Note_on_c, 0, 57, 82
1, 36648, Note_on_c, 1, 45, 82
1, 36660, Note_on_c, 0, 57, 0
1, 36660, Note_on_c, 0, 63, 82
1, 36671, Note_on_c, 1, 45, 0
1, 36672, Note_on_c, 0, 63, 0
1, 36672, Note_on_c, 0, 58, 83
1, 36672, Note_on_c, 1, 46, 83
1, 36684, Note_on_c, 0, 58, 0
1, 36684, Note_on_c, 0, 63, 83
1, 36695, Note_on_c, 1, 46, 0
1, 36696, Note_on_c, 0, 63, 0
1, 36696, Note_on_c, 0, 57, 84
1, 36696, Note_on_c, 1, 45, 83
1, 36708, Note_on_c, 0, 57, 0
1, 36708, Note_on_c, 0, 63, 84
1, 36719, Note_on_c, 1, 45, 0
1, 36720, Note_on_c, 0, 63, 0
1, 36720, Note_on_c, 0, 58, 84
1, 36720, Note_on_c, 1, 46, 84
1, 36732, Note_on_c, 0, 58, 0
1, 36732, Note_on_c, 0, 63, 85
1, 36743, Note_on_c, 1, 46, 0
1, 36744, Note_on_c, 0, 63, 0
1, 36744, Note_on_c, 0, 55, 85
1, 36744, Note_on_c, 1, 43, 85
1, 36756, Note_on_c, 0, 55, 0
1, 36756, Note_on_c, 0, 63, 86
1, 36767, Note_on_c, 1, 43, 0
1, 36768, Note_on_c, 0, 63, 0
1, 36768, Note_on_c, 0, 56, 84
1, 36768, Note_on_c, 1, 44, 86
1, 36780, Note_on_c, 0, 56, 0
1, 36780, Note_on_c, 0, 63, 83
1, 36791, Note_on_c, 1, 44, 0
1, 36792, Note_on_c, 0, 63, 0
1, 36792, Note_on_c, 0, 57, 82
1, 36792, Note_on_c, 1, 45, 83
1, 36804, Note_on_c, 0, 57, 0
1, 36804, Note_on_c, 0, 63, 81
1, 36815, Note_on_c, 1, 45, 0
1, 36816, Note_on_c, 0, 63, 0
1, 36816, Note_on_c, 0, 58, 80
1, 36816, Note_on_c, 1, 46, 81
1, 36828, Note_on_c, 0, 58, 0
1, 36828, Note_on_c, 0, 63, 79
1, 36839, Note_on_c, 1, 46, 0
1, 36840, Note_on_c, 0, 63, 0
1, 36840, Note_on_c, 0, 59, 78
1, 36840, Note_on_c, 1, 47, 79
1, 36852, Note_on_c, 0, 59, 0
1, 36852, Note_on_c, 0, 63, 77
1, 36863, Note_on_c, 1, 47, 0
1, 36864, Note_on_c, 0, 63, 0
1, 36864, Note_on_c, 0, 60, 76
1, 36864, Note_on_c, 1, 48, 76
1, 36876, Note_on_c, 0, 60, 0
1, 36876, Note_on_c, 0, 63, 75
1, 36887, Note_on_c, 1, 48, 0
1, 36888, Note_on_c, 0, 63, 0
1, 36888, Note_on_c, 0, 59, 74
1, 36888, Note_on_c, 1, 47, 74
1, 36900, Note_on_c, 0, 59, 0
1, 36900, Note_on_c, 0, 63, 73
1, 36911, Note_on_c, 1, 47, 0
1, 36912, Note_on_c, 0, 63, 0
1, 36912, Note_on_c, 0, 60, 72
1, 36912, Note_on_c, 1, 48, 72
1, 36935, Note_on_c, 0, 60, 0
1, 36935, Note_on_c, 1, 48, 0
1, 36936, Note_on_c, 0, 72, 70
1, 36936, Note_on_c, 0, 68, 70
1, 36936, Note_on_c, 1, 44, 70
1, 36959, Note_on_c, 0, 72, 0
1, 36959, Note_on_c, 0, 68, 0
1, 36959, Note_on_c, 1, 44, 0
1, 36960, Note_on_c, 0, 72, 70
1, 36960, Note_on_c, 0, 68, 70
1, 36960, Note_on_c, 1, 46, 70
1, 36984, Note_on_c, 0, 72, 0
1, 36984, Note_on_c, 0, 68, 0
1, 36984, Note_on_c, 0, 70, 70
1, 36984, Note_on_c, 0, 67, 70
1, 37005, Note_on_c, 1, 46, 0
1, 37007, Note_on_c, 0, 70, 0
1, 37007, Note_on_c, 0, 67, 0
1, 37008, Note_on_c, 1, 34, 70
1, 37032, Note_on_c, 0, 62, 70
1, 37032, Note_on_c, 0, 56, 70
1, 37053, Note_on_c, 1, 34, 0
1, 37055, Note_on_c, 0, 62, 0
1, 37055, Note_on_c, 0, 56, 0
1, 37056, Note_on_c, 0, 62, 70
1, 37056, Note_on_c, 0, 56, 70
1, 37056, Note_on_c, 1, 48, 70
1, 37080, Note_on_c, 0, 62, 0
1, 37080, Note_on_c, 0, 56, 0
1, 37080, Note_on_c, 0, 63, 70
1, 37080, Note_on_c, 0, 55, 70
1, 37101, Note_on_c, 1, 48, 0
1, 37103, Note_on_c, 0, 63, 0
1, 37103, Note_on_c, 0, 55, 0
1, 37104, Note_on_c, 1, 44, 70
1, 37128, Note_on_c, 0, 72, 70
1, 37128, Note_on_c, 0, 68, 70
1, 37149, Note_on_c, 1, 44, 0
1, 37151, Note_on_c, 0, 72, 0
1, 37151, Note_on_c, 0, 68, 0
1, 37152, Note_on_c, 0, 72, 70
1, 37152, Note_on_c, 0, 68, 70
1, 37152, Note_on_c, 1, 46, 70
1, 37176, Note_on_c, 0, 72, 0
1, 37176, Note_on_c, 0, 68, 0
1, 37176, Note_on_c, 0, 70, 70
1, 37176, Note_on_c, 0, 67, 70
1, 37197, Note_on_c, 1, 46, 0
1, 37199, Note_on_c, 0, 70, 0
1, 37199, Note_on_c, 0, 67, 0
1, 37200, Note_on_c, 1, 34, 70
1, 37224, Note_on_c, 0, 62, 75
1, 37224, Note_on_c, 0, 56, 75
1, 37245, Note_on_c, 1, 34, 0
1, 37247, Note_on_c, 0, 62, 0
1, 37247, Note_on_c, 0, 56, 0
1, 37248, Note_on_c, 0, 63, 75
1, 37248, Note_on_c, 1, 55, 75
1, 37248, Note_on_c, 1, 51, 75
1, 37260, Note_on_c, 0, 63, 0
1, 37260, Note_on_c, 0, 70, 75
1, 37272, Note_on_c, 0, 70, 0
1, 37272, Note_on_c, 0, 67, 75
1, 37284, Note_on_c, 0, 67, 0
1, 37284, Note_on_c, 0, 63, 75
1, 37293, Note_on_c, 1, 55, 0
1, 37293, Note_on_c, 1, 51, 0
1, 37296, Note_on_c, 0, 63, 0
1, 37296, Note_on_c, 0, 58, 75
1, 37308, Note_on_c, 0, 58, 0
1, 37308, Note_on_c, 0, 68, 75
1, 37320, Note_on_c, 0, 68, 0
1, 37320, Note_on_c, 0, 65, 75
1, 37320, Note_on_c, 1, 56, 75
1, 37320, Note_on_c, 1, 46, 75
1, 37332, Note_on_c, 0, 65, 0
1, 37332, Note_on_c, 0, 62, 75
1, 37343, Note_on_c, 1, 56, 0
1, 37343, Note_on_c, 1, 46, 0
1, 37344, Note_on_c, 0, 62, 0
1, 37344, Note_on_c, 0, 63, 75
1, 37344, Note_on_c, 1, 55, 75
1, 37344, Note_on_c, 1, 51, 75
1, 37356, Note_on_c, 0, 63, 0
1, 37356, Note_on_c, 0, 70, 75
1, 37368, Note_on_c, 0, 70, 0
1, 37368, Note_on_c, 0, 67, 75
1, 37380, Note_on_c, 0, 67, 0
1, 37380, Note_on_c, 0, 63, 75
1, 37389, Note_on_c, 1, 55, 0
1, 37389, Note_on_c, 1, 51, 0
1, 37392, Note_on_c, 0, 63, 0
1, 37392, Note_on_c, 0, 58, 75
1, 37404, Note_on_c, 0, 58, 0
1, 37404, Note_on_c, 0, 68, 75
1, 37416, Note_on_c, 0, 68, 0
1, 37416, Note_on_c, 0, 65, 75
1, 37416, Note_on_c, 1, 56, 75
1, 37416, Note_on_c, 1, 46, 75
1, 37428, Note_on_c, 0, 65, 0
1, 37428, Note_on_c, 0, 62, 75
1, 37439, Note_on_c, 1, 56, 0
1, 37439, Note_on_c, 1, 46, 0
1, 37440, Note_on_c, 0, 62, 0
1, 37440, Note_on_c, 0, 63, 75
1, 37440, Note_on_c, 1, 55, 75
1, 37440, Note_on_c, 1, 51, 75
1, 37485, Note_on_c, 0, 63, 0
1, 37485, Note_on_c, 1, 55, 0
1, 37485, Note_on_c, 1, 51, 0
1, 37488, Note_on_c, 0, 79, 75
1, 37488, Note_on_c, 0, 75, 75
1, 37533, Note_on_c, 0, 79, 0
1, 37533, Note_on_c, 0, 75, 0
1, 37632, Note_on_c, 0, 67, 80
1, 37632, Note_on_c, 1, 55, 80
1, 37632, Note_on_c, 1, 43, 80
1, 37721, Note_on_c, 0, 67, 0
1, 37728, Note_on_c, 0, 59, 80
1, 37751, Note_on_c, 0, 59, 0
1, 37752, Note_on_c, 0, 60, 80
1, 37760, Note_on_c, 0, 60, 0
1, 37760, Note_on_c, 0, 59, 80
1, 37768, Note_on_c, 0, 59, 0
1, 37768, Note_on_c, 0, 57, 80
1, 37776, Note_on_c, 0, 57, 0
1, 37776, Note_on_c, 0, 59, 80
1, 37799, Note_on_c, 0, 59, 0
1, 37800, Note_on_c, 0, 60, 80
1, 37809, Note_on_c, 1, 55, 0
1, 37809, Note_on_c, 1, 43, 0
1, 37823, Note_on_c, 0, 60, 0
1, 37824, Note_on_c, 0, 62, 80
1, 37824, Note_on_c, 1, 53, 80
1, 37824, Note_on_c, 1, 41, 80
1, 37869, Note_on_c, 0, 62, 0
1, 37872, Note_on_c, 0, 55, 80
1, 37917, Note_on_c, 0, 55, 0
1, 37992, Note_on_c, 0, 84, 64
1, 38001, Note_on_c, 1, 53, 0
1, 38001, Note_on_c, 1, 41, 0
1, 38016, Note_on_c, 0, 84, 0
1, 38016, Note_on_c, 0, 72, 64
1, 38039, Note_on_c, 0, 72, 0
1, 38040, Note_on_c, 1, 67, 64
1, 38064, Note_on_c, 1, 67, 0
1, 38064, Note_on_c, 1, 63, 64
1, 38087, Note_on_c, 1, 63, 0
1, 38088, Note_on_c, 0, 84, 64
1, 38112, Note_on_c, 0, 84, 0
1, 38112, Note_on_c, 0, 74, 64
1, 38135, Note_on_c, 0, 74, 0
1, 38136, Note_on_c, 1, 68, 64
1, 38160, Note_on_c, 1, 68, 0
1, 38160, Note_on_c, 1, 65, 64
1, 38183, Note_on_c, 1, 65, 0
1, 38184, Note_on_c, 0, 84, 64
1, 38207, Note_on_c, 0, 84, 0
1, 38208, Note_on_c, 0, 76, 64
1, 38231, Note_on_c, 0, 76, 0
1, 38232, Note_on_c, 1, 70, 64
1, 38256, Note_on_c, 1, 70, 0
1, 38256, Note_on_c, 1, 67, 64
1, 38279, Note_on_c, 1, 67, 0
1, 38280, Note_on_c, 0, 84, 64
1, 38303, Note_on_c, 0, 84, 0
1, 38304, Note_on_c, 0, 77, 64
1, 38304, Note_on_c, 1, 68, 64
1, 38316, Note_on_c, 0, 77, 0
1, 38316, Note_on_c, 0, 80, 66
1, 38328, Note_on_c, 0, 80, 0
1, 38328, Note_on_c, 0, 84, 68
1, 38340, Note_on_c, 0, 84, 0
1, 38340, Note_on_c, 0, 82, 70
1, 38349, Note_on_c, 1, 68, 0
1, 38352, Note_on_c, 0, 82, 0
1, 38352, Note_on_c, 0, 80, 72
1, 38364, Note_on_c, 0, 80, 0
1, 38364, Note_on_c, 0, 79, 74
1, 38376, Note_on_c, 0, 79, 0
1, 38376, Note_on_c, 0, 77, 76
1, 38388, Note_on_c, 0, 77, 0
1, 38388, Note_on_c, 0, 75, 78
1, 38400, Note_on_c, 0, 75, 0
1, 38400, Note_on_c, 0, 74, 80
1, 38400, Note_on_c, 1, 58, 80
1, 38400, Note_on_c, 1, 46, 80
1, 38412, Note_on_c, 0, 74, 0
1, 38412, Note_on_c, 0, 75, 80
1, 38424, Note_on_c, 0, 75, 0
1, 38424, Note_on_c, 0, 77, 80
1, 38436, Note_on_c, 0, 77, 0
1, 38436, Note_on_c, 0, 75, 80
1, 38448, Note_on_c, 0, 75, 0
1, 38448, Note_on_c, 0, 74, 80
1, 38460, Note_on_c, 0, 74, 0
1, 38460, Note_on_c, 0, 72, 80
1, 38472, Note_on_c, 0, 72, 0
1, 38472, Note_on_c, 0, 70, 80
1, 38484, Note_on_c, 0, 70, 0
1, 38484, Note_on_c, 0, 69, 80
1, 38489, Note_on_c, 1, 58, 0
1, 38489, Note_on_c, 1, 46, 0
1, 38496, Note_on_c, 0, 69, 0
1, 38496, Note_on_c, 0, 70, 80
1, 38496, Note_on_c, 1, 38, 80
1, 38496, Note_on_c, 1, 50, 80
1, 38519, Note_on_c, 0, 70, 0
1, 38519, Note_on_c, 1, 50, 0
1, 38520, Note_on_c, 0, 89, 80
1, 38520, Note_on_c, 1, 51, 80
1, 38528, Note_on_c, 1, 51, 0
1, 38528, Note_on_c, 1, 50, 80
1, 38536, Note_on_c, 1, 50, 0
1, 38536, Note_on_c, 1, 48, 80
1, 38543, Note_on_c, 0, 89, 0
1, 38544, Note_on_c, 0, 87, 80
1, 38544, Note_on_c, 1, 48, 0
1, 38544, Note_on_c, 1, 50, 80
1, 38556, Note_on_c, 0, 87, 0
1, 38556, Note_on_c, 0, 86, 80
1, 38563, Note_on_c, 1, 38, 0
1, 38567, Note_on_c, 1, 50, 0
1, 38568, Note_on_c, 0, 86, 0
1, 38568, Note_on_c, 0, 84, 80
1, 38568, Note_on_c, 1, 51, 80
1, 38568, Note_on_c, 1, 39, 80
1, 38580, Note_on_c, 0, 84, 0
1, 38580, Note_on_c, 0, 82, 80
1, 38591, Note_on_c, 1, 51, 0
1, 38591, Note_on_c, 1, 39, 0
1, 38592, Note_on_c, 0, 82, 0
1, 38592, Note_on_c, 0, 80, 80
1, 38592, Note_on_c, 1, 53, 80
1, 38592, Note_on_c, 1, 41, 80
1, 38604, Note_on_c, 0, 80, 0
1, 38604, Note_on_c, 0, 82, 80
1, 38616, Note_on_c, 0, 82, 0
1, 38616, Note_on_c, 0, 84, 80
1, 38628, Note_on_c, 0, 84, 0
1, 38628, Note_on_c, 0, 82, 80
1, 38637, Note_on_c, 1, 53, 0
1, 38637, Note_on_c, 1, 41, 0
1, 38640, Note_on_c, 0, 82, 0
1, 38640, Note_on_c, 0, 80, 80
1, 38640, Note_on_c, 1, 46, 80
1, 38640, Note_on_c, 1, 34, 80
1, 38652, Note_on_c, 0, 80, 0
1, 38652, Note_on_c, 0, 79, 80
1, 38664, Note_on_c, 0, 79, 0
1, 38664, Note_on_c, 0, 77, 80
1, 38676, Note_on_c, 0, 77, 0
1, 38676, Note_on_c, 0, 75, 80
1, 38685, Note_on_c, 1, 46, 0
1, 38685, Note_on_c, 1, 34, 0
1, 38688, Note_on_c, 0, 75, 0
1, 38688, Note_on_c, 0, 74, 80
1, 38700, Note_on_c, 0, 74, 0
1, 38700, Note_on_c, 0, 75, 80
1, 38712, Note_on_c, 0, 75, 0
1, 38712, Note_on_c, 0, 77, 80
1, 38724, Note_on_c, 0, 77, 0
1, 38724, Note_on_c, 0, 75, 80
1, 38736, Note_on_c, 0, 75, 0
1, 38736, Note_on_c, 0, 74, 80
1, 38748, Note_on_c, 0, 74, 0
1, 38748, Note_on_c, 0, 72, 80
1, 38760, Note_on_c, 0, 72, 0
1, 38760, Note_on_c, 0, 70, 80
1, 38772, Note_on_c, 0, 70, 0
1, 38772, Note_on_c, 0, 68, 80
1, 38784, Note_on_c, 0, 68, 0
1, 38784, Note_on_c, 0, 67, 80
1, 38784, Note_on_c, 1, 63, 80
1, 38784, Note_on_c, 1, 51, 80
1, 38784, Note_on_c, 1, 55, 80
1, 38796, Note_on_c, 0, 67, 0
1, 38796, Note_on_c, 0, 68, 80
1, 38808, Note_on_c, 0, 68, 0
1, 38808, Note_on_c, 0, 70, 80
1, 38820, Note_on_c, 0, 70, 0
1, 38820, Note_on_c, 0, 68, 80
1, 38832, Note_on_c, 0, 68, 0
1, 38832, Note_on_c, 0, 67, 80
1, 38844, Note_on_c, 0, 67, 0
1, 38844, Note_on_c, 0, 65, 80
1, 38856, Note_on_c, 0, 65, 0
1, 38856, Note_on_c, 0, 63, 80
1, 38868, Note_on_c, 0, 63, 0
1, 38868, Note_on_c, 0, 62, 80
1, 38873, Note_on_c, 1, 63, 0
1, 38873, Note_on_c, 1, 51, 0
1, 38873, Note_on_c, 1, 55, 0
1, 38880, Note_on_c, 0, 62, 0
1, 38880, Note_on_c, 0, 63, 80
1, 38880, Note_on_c, 1, 43, 80
1, 38880, Note_on_c, 1, 55, 80
1, 38903, Note_on_c, 0, 63, 0
1, 38903, Note_on_c, 1, 55, 0
1, 38904, Note_on_c, 0, 82, 80
1, 38904, Note_on_c, 1, 56, 80
1, 38912, Note_on_c, 1, 56, 0
1, 38912, Note_on_c, 1, 55, 80
1, 38920, Note_on_c, 1, 55, 0
1, 38920, Note_on_c, 1, 53, 80
1, 38927, Note_on_c, 0, 82, 0
1, 38928, Note_on_c, 0, 80, 80
1, 38928, Note_on_c, 1, 53, 0
1, 38928, Note_on_c, 1, 55, 80
1, 38940, Note_on_c, 0, 80, 0
1, 38940, Note_on_c, 0, 79, 80
1, 38947, Note_on_c, 1, 43, 0
1, 38951, Note_on_c, 1, 55, 0
1, 38952, Note_on_c, 0, 79, 0
1, 38952, Note_on_c, 0, 77, 80
1, 38952, Note_on_c, 1, 56, 80
1, 38952, Note_on_c, 1, 44, 80
1, 38964, Note_on_c, 0, 77, 0
1, 38964, Note_on_c, 0, 75, 80
1, 38975, Note_on_c, 1, 56, 0
1, 38975, Note_on_c, 1, 44, 0
1, 38976, Note_on_c, 0, 75, 0
1, 38976, Note_on_c, 0, 73, 80
1, 38976, Note_on_c, 1, 58, 80
1, 38976, Note_on_c, 1, 46, 80
1, 38988, Note_on_c, 0, 73, 0
1, 38988, Note_on_c, 0, 75, 80
1, 39000, Note_on_c, 0, 75, 0
1, 39000, Note_on_c, 0, 77, 80
1, 39012, Note_on_c, 0, 77, 0
1, 39012, Note_on_c, 0, 75, 80
1, 39021, Note_on_c, 1, 58, 0
1, 39021, Note_on_c, 1, 46, 0
1, 39024, Note_on_c, 0, 75, 0
1, 39024, Note_on_c, 0, 73, 80
1, 39024, Note_on_c, 1, 51, 80
1, 39024, Note_on_c, 1, 39, 80
1, 39036, Note_on_c, 0, 73, 0
1, 39036, Note_on_c, 0, 72, 80
1, 39048, Note_on_c, 0, 72, 0
1, 39048, Note_on_c, 0, 70, 80
1, 39060, Note_on_c, 0, 70, 0
1, 39060, Note_on_c, 0, 68, 80
1, 39069, Note_on_c, 1, 51, 0
1, 39069, Note_on_c, 1, 39, 0
1, 39072, Note_on_c, 0, 68, 0
1, 39072, Note_on_c, 0, 67, 80
1, 39084, Note_on_c, 0, 67, 0
1, 39084, Note_on_c, 0, 68, 80
1, 39096, Note_on_c, 0, 68, 0
1, 39096, Note_on_c, 0, 70, 80
1, 39108, Note_on_c, 0, 70, 0
1, 39108, Note_on_c, 0, 68, 80
1, 39120, Note_on_c, 0, 68, 0
1, 39120, Note_on_c, 0, 67, 80
1, 39132, Note_on_c, 0, 67, 0
1, 39132, Note_on_c, 0, 65, 80
1, 39144, Note_on_c, 0, 65, 0
1, 39144, Note_on_c, 0, 64, 80
1, 39156, Note_on_c, 0, 64, 0
1, 39156, Note_on_c, 0, 62, 80
1, 39168, Note_on_c, 0, 62, 0
1, 39168, Note_on_c, 0, 60, 80
1, 39168, Note_on_c, 1, 48, 80
1, 39168, Note_on_c, 1, 36, 80
1, 39257, Note_on_c, 0, 60, 0
1, 39257, Note_on_c, 1, 48, 0
1, 39257, Note_on_c, 1, 36, 0
1, 39264, Note_on_c, 0, 52, 80
1, 39264, Note_on_c, 1, 40, 80
1, 39287, Note_on_c, 0, 52, 0
1, 39288, Note_on_c, 0, 53, 80
1, 39296, Note_on_c, 0, 53, 0
1, 39296, Note_on_c, 0, 52, 80
1, 39304, Note_on_c, 0, 52, 0
1, 39304, Note_on_c, 0, 50, 80
1, 39312, Note_on_c, 0, 50, 0
1, 39312, Note_on_c, 0, 52, 80
1, 39331, Note_on_c, 1, 40, 0
1, 39335, Note_on_c, 0, 52, 0
1, 39336, Note_on_c, 0, 53, 80
1, 39336, Note_on_c, 1, 41, 80
1, 39359, Note_on_c, 0, 53, 0
1, 39359, Note_on_c, 1, 41, 0
1, 39360, Note_on_c, 1, 55, 80
1, 39360, Note_on_c, 1, 43, 80
1, 39405, Note_on_c, 1, 55, 0
1, 39405, Note_on_c, 1, 43, 0
1, 39408, Note_on_c, 1, 48, 80
1, 39408, Note_on_c, 1, 36, 80
1, 39453, Note_on_c, 1, 48, 0
1, 39453, Note_on_c, 1, 36, 0
1, 39552, Note_on_c, 0, 65, 75
1, 39552, Note_on_c, 0, 56, 75
1, 39552, Note_on_c, 1, 41, 75
1, 39575, Note_on_c, 1, 41, 0
1, 39576, Note_on_c, 1, 53, 75
1, 39599, Note_on_c, 1, 53, 0
1, 39600, Note_on_c, 1, 53, 75
1, 39619, Note_on_c, 0, 65, 0
1, 39619, Note_on_c, 0, 56, 0
1, 39623, Note_on_c, 1, 53, 0
1, 39624, Note_on_c, 0, 70, 75
1, 39624, Note_on_c, 0, 61, 75
1, 39624, Note_on_c, 1, 53, 75
1, 39647, Note_on_c, 0, 70, 0
1, 39647, Note_on_c, 0, 61, 0
1, 39647, Note_on_c, 1, 53, 0
1, 39648, Note_on_c, 0, 70, 75
1, 39648, Note_on_c, 0, 61, 75
1, 39648, Note_on_c, 1, 53, 75
1, 39671, Note_on_c, 1, 53, 0
1, 39672, Note_on_c, 0, 70, 0
1, 39672, Note_on_c, 0, 61, 0
1, 39672, Note_on_c, 0, 68, 75
1, 39672, Note_on_c, 0, 60, 75
1, 39672, Note_on_c, 1, 53, 75
1, 39695, Note_on_c, 0, 68, 0
1, 39695, Note_on_c, 0, 60, 0
1, 39695, Note_on_c, 1, 53, 0
1, 39696, Note_on_c, 0, 68, 75
1, 39696, Note_on_c, 0, 60, 75
1, 39696, Note_on_c, 1, 53, 75
1, 39719, Note_on_c, 1, 53, 0
1, 39720, Note_on_c, 0, 68, 0
1, 39720, Note_on_c, 0, 60, 0
1, 39720, Note_on_c, 0, 67, 75
1, 39720, Note_on_c, 0, 58, 75
1, 39720, Note_on_c, 1, 53, 75
1, 39743, Note_on_c, 0, 67, 0
1, 39743, Note_on_c, 0, 58, 0
1, 39743, Note_on_c, 1, 53, 0
1, 39744, Note_on_c, 0, 65, 75
1, 39744, Note_on_c, 0, 56, 75
1, 39744, Note_on_c, 1, 41, 75
1, 39767, Note_on_c, 1, 41, 0
1, 39768, Note_on_c, 1, 53, 75
1, 39791, Note_on_c, 1, 53, 0
1, 39792, Note_on_c, 1, 53, 75
1, 39811, Note_on_c, 0, 65, 0
1, 39811, Note_on_c, 0, 56, 0
1, 39815, Note_on_c, 1, 53, 0
1, 39816, Note_on_c, 0, 73, 75
1, 39816, Note_on_c, 0, 70, 75
1, 39816, Note_on_c, 1, 53, 75
1, 39839, Note_on_c, 0, 73, 0
1, 39839, Note_on_c, 0, 70, 0
1, 39839, Note_on_c, 1, 53, 0
1, 39840, Note_on_c, 0, 73, 75
1, 39840, Note_on_c, 0, 70, 75
1, 39840, Note_on_c, 1, 53, 75
1, 39863, Note_on_c, 1, 53, 0
1, 39864, Note_on_c, 0, 73, 0
1, 39864, Note_on_c, 0, 70, 0
1, 39864, Note_on_c, 0, 72, 75
1, 39864, Note_on_c, 0, 68, 75
1, 39864, Note_on_c, 1, 53, 75
1, 39887, Note_on_c, 0, 72, 0
1, 39887, Note_on_c, 0, 68, 0
1, 39887, Note_on_c, 1, 53, 0
1, 39888, Note_on_c, 0, 72, 75
1, 39888, Note_on_c, 0, 68, 75
1, 39888, Note_on_c, 1, 53, 75
1, 39911, Note_on_c, 1, 53, 0
1, 39912, Note_on_c, 0, 72, 0
1, 39912, Note_on_c, 0, 68, 0
1, 39912, Note_on_c, 0, 70, 75
1, 39912, Note_on_c, 0, 67, 75
1, 39912, Note_on_c, 1, 53, 75
1, 39935, Note_on_c, 0, 70, 0
1, 39935, Note_on_c, 0, 67, 0
1, 39935, Note_on_c, 1, 53, 0
1, 39936, Note_on_c, 0, 68, 75
1, 39936, Note_on_c, 0, 65, 75
1, 39936, Note_on_c, 1, 41, 75
1, 39959, Note_on_c, 1, 41, 0
1, 39960, Note_on_c, 1, 53, 75
1, 39983, Note_on_c, 1, 53, 0
1, 39984, Note_on_c, 1, 53, 75
1, 40003, Note_on_c, 0, 68, 0
1, 40003, Note_on_c, 0, 65, 0
1, 40008, Note_on_c, 0, 77, 75
1, 40008, Note_on_c, 0, 73, 75
1, 40029, Note_on_c, 1, 53, 0
1, 40031, Note_on_c, 0, 77, 0
1, 40031, Note_on_c, 0, 73, 0
1, 40032, Note_on_c, 0, 77, 75
1, 40032, Note_on_c, 0, 73, 75
1, 40056, Note_on_c, 0, 77, 0
1, 40056, Note_on_c, 0, 73, 0
1, 40056, Note_on_c, 0, 75, 75
1, 40056, Note_on_c, 0, 72, 75
1, 40079, Note_on_c, 0, 75, 0
1, 40079, Note_on_c, 0, 72, 0
1, 40080, Note_on_c, 0, 75, 75
1, 40080, Note_on_c, 0, 72, 75
1, 40104, Note_on_c, 0, 75, 0
1, 40104, Note_on_c, 0, 72, 0
1, 40104, Note_on_c, 0, 73, 75
1, 40104, Note_on_c, 0, 70, 75
1, 40127, Note_on_c, 0, 73, 0
1, 40127, Note_on_c, 0, 70, 0
1, 40128, Note_on_c, 0, 72, 80
1, 40128, Note_on_c, 0, 69, 80
1, 40128, Note_on_c, 1, 53, 80
1, 40140, Note_on_c, 1, 53, 0
1, 40140, Note_on_c, 1, 63, 80
1, 40151, Note_on_c, 0, 69, 0
1, 40152, Note_on_c, 0, 70, 80
1, 40152, Note_on_c, 1, 63, 0
1, 40152, Note_on_c, 1, 54, 80
1, 40164, Note_on_c, 1, 54, 0
1, 40164, Note_on_c, 1, 63, 80
1, 40175, Note_on_c, 0, 70, 0
1, 40176, Note_on_c, 0, 69, 80
1, 40176, Note_on_c, 1, 63, 0
1, 40176, Note_on_c, 1, 53, 80
1, 40188, Note_on_c, 1, 53, 0
1, 40188, Note_on_c, 1, 63, 80
1, 40199, Note_on_c, 0, 69, 0
1, 40200, Note_on_c, 0, 70, 80
1, 40200, Note_on_c, 1, 63, 0
1, 40200, Note_on_c, 1, 54, 80
1, 40212, Note_on_c, 1, 54, 0
1, 40212, Note_on_c, 1, 63, 80
1, 40223, Note_on_c, 0, 70, 0
1, 40224, Note_on_c, 0, 69, 80
1, 40224, Note_on_c, 1, 63, 0
1, 40224, Note_on_c, 1, 53, 80
1, 40247, Note_on_c, 0, 72, 0
1, 40247, Note_on_c, 0, 69, 0
1, 40248, Note_on_c, 0, 78, 80
1, 40248, Note_on_c, 0, 75, 80
1, 40269, Note_on_c, 1, 53, 0
1, 40271, Note_on_c, 0, 78, 0
1, 40271, Note_on_c, 0, 75, 0
1, 40272, Note_on_c, 0, 77, 80
1, 40272, Note_on_c, 0, 73, 80
1, 40295, Note_on_c, 0, 77, 0
1, 40295, Note_on_c, 0, 73, 0
1, 40296, Note_on_c, 0, 75, 80
1, 40296, Note_on_c, 0, 72, 80
1, 40319, Note_on_c, 0, 75, 0
1, 40319, Note_on_c, 0, 72, 0
1, 40320, Note_on_c, 0, 74, 80
1, 40320, Note_on_c, 0, 68, 80
1, 40320, Note_on_c, 1, 58, 80
1, 40332, Note_on_c, 1, 58, 0
1, 40332, Note_on_c, 1, 65, 80
1, 40343, Note_on_c, 0, 74, 0
1, 40344, Note_on_c, 0, 75, 80
1, 40344, Note_on_c, 1, 65, 0
1, 40344, Note_on_c, 1, 59, 80
1, 40356, Note_on_c, 1, 59, 0
1, 40356, Note_on_c, 1, 65, 80
1, 40367, Note_on_c, 0, 75, 0
1, 40368, Note_on_c, 0, 74, 80
1, 40368, Note_on_c, 1, 65, 0
1, 40368, Note_on_c, 1, 58, 80
1, 40380, Note_on_c, 1, 58, 0
1, 40380, Note_on_c, 1, 65, 80
1, 40391, Note_on_c, 0, 74, 0
1, 40392, Note_on_c, 0, 75, 80
1, 40392, Note_on_c, 1, 65, 0
1, 40392, Note_on_c, 1, 59, 80
1, 40404, Note_on_c, 1, 59, 0
1, 40404, Note_on_c, 1, 65, 80
1, 40415, Note_on_c, 0, 75, 0
1, 40416, Note_on_c, 0, 74, 80
1, 40416, Note_on_c, 1, 65, 0
1, 40416, Note_on_c, 1, 58, 80
1, 40439, Note_on_c, 0, 74, 0
1, 40439, Note_on_c, 0, 68, 0
1, 40440, Note_on_c, 0, 84, 80
1, 40440, Note_on_c, 0, 80, 80
1, 40461, Note_on_c, 1, 58, 0
1, 40463, Note_on_c, 0, 84, 0
1, 40463, Note_on_c, 0, 80, 0
1, 40464, Note_on_c, 0, 82, 80
1, 40464, Note_on_c, 0, 79, 80
1, 40487, Note_on_c, 0, 82, 0
1, 40487, Note_on_c, 0, 79, 0
1, 40488, Note_on_c, 0, 80, 80
1, 40488, Note_on_c, 0, 77, 80
1, 40511, Note_on_c, 0, 80, 0
1, 40511, Note_on_c, 0, 77, 0
1, 40512, Note_on_c, 0, 79, 80
1, 40512, Note_on_c, 0, 75, 80
1, 40512, Note_on_c, 1, 63, 80
1, 40524, Note_on_c, 1, 63, 0
1, 40524, Note_on_c, 1, 70, 80
1, 40535, Note_on_c, 0, 79, 0
1, 40536, Note_on_c, 0, 80, 80
1, 40536, Note_on_c, 1, 70, 0
1, 40536, Note_on_c, 1, 64, 80
1, 40548, Note_on_c, 1, 64, 0
1, 40548, Note_on_c, 1, 70, 80
1, 40559, Note_on_c, 0, 80, 0
1, 40560, Note_on_c, 0, 79, 80
1, 40560, Note_on_c, 1, 70, 0
1, 40560, Note_on_c, 1, 63, 80
1, 40572, Note_on_c, 1, 63, 0
1, 40572, Note_on_c, 1, 70, 80
1, 40583, Note_on_c, 0, 79, 0
1, 40584, Note_on_c, 0, 80, 80
1, 40584, Note_on_c, 1, 70, 0
1, 40584, Note_on_c, 1, 64, 80
1, 40596, Note_on_c, 1, 64, 0
1, 40596, Note_on_c, 1, 70, 80
1, 40607, Note_on_c, 0, 80, 0
1, 40608, Note_on_c, 0, 79, 80
1, 40608, Note_on_c, 1, 70, 0
1, 40608, Note_on_c, 1, 63, 80
1, 40631, Note_on_c, 0, 79, 0
1, 40631, Note_on_c, 0, 75, 0
1, 40632, Note_on_c, 0, 77, 80
1, 40632, Note_on_c, 0, 73, 80
1, 40653, Note_on_c, 1, 63, 0
1, 40655, Note_on_c, 0, 77, 0
1, 40655, Note_on_c, 0, 73, 0
1, 40656, Note_on_c, 0, 75, 80
1, 40656, Note_on_c, 0, 72, 80
1, 40679, Note_on_c, 0, 75, 0
1, 40679, Note_on_c, 0, 72, 0
1, 40680, Note_on_c, 0, 73, 80
1, 40680, Note_on_c, 0, 70, 80
1, 40703, Note_on_c, 0, 73, 0
1, 40703, Note_on_c, 0, 70, 0
1, 40704, Note_on_c, 0, 72, 80
1, 40704, Note_on_c, 0, 68, 80
1, 40704, Note_on_c, 1, 56, 80
1, 40704, Note_on_c, 1, 51, 80
1, 40704, Note_on_c, 1, 48, 80
1, 40704, Note_on_c, 1, 44, 80
1, 40727, Note_on_c, 0, 72, 0
1, 40727, Note_on_c, 0, 68, 0
1, 40728, Note_on_c, 0, 63, 80
1, 40736, Note_on_c, 0, 63, 0
1, 40736, Note_on_c, 0, 65, 80
1, 40744, Note_on_c, 0, 65, 0
1, 40744, Note_on_c, 0, 63, 80
1, 40749, Note_on_c, 1, 56, 0
1, 40749, Note_on_c, 1, 51, 0
1, 40749, Note_on_c, 1, 48, 0
1, 40749, Note_on_c, 1, 44, 0
1, 40752, Note_on_c, 0, 63, 0
1, 40752, Note_on_c, 0, 68, 80
1, 40775, Note_on_c, 0, 68, 0
1, 40776, Note_on_c, 0, 60, 80
1, 40776, Note_on_c, 1, 56, 80
1, 40788, Note_on_c, 0, 60, 0
1, 40788, Note_on_c, 0, 68, 80
1, 40799, Note_on_c, 1, 56, 0
1, 40800, Note_on_c, 0, 68, 0
1, 40800, Note_on_c, 0, 61, 80
1, 40800, Note_on_c, 1, 58, 80
1, 40812, Note_on_c, 0, 61, 0
1, 40812, Note_on_c, 0, 68, 80
1, 40823, Note_on_c, 1, 58, 0
1, 40824, Note_on_c, 0, 68, 0
1, 40824, Note_on_c, 0, 60, 80
1, 40824, Note_on_c, 1, 56, 80
1, 40836, Note_on_c, 0, 60, 0
1, 40836, Note_on_c, 0, 68, 80
1, 40847, Note_on_c, 1, 56, 0
1, 40848, Note_on_c, 0, 68, 0
1, 40848, Note_on_c, 0, 61, 80
1, 40848, Note_on_c, 1, 58, 80
1, 40860, Note_on_c, 0, 61, 0
1, 40860, Note_on_c, 0, 68, 80
1, 40871, Note_on_c, 1, 58, 0
1, 40872, Note_on_c, 0, 68, 0
1, 40872, Note_on_c, 0, 63, 80
1, 40872, Note_on_c, 1, 60, 80
1, 40884, Note_on_c, 0, 63, 0
1, 40884, Note_on_c, 0, 68, 80
1, 40895, Note_on_c, 1, 60, 0
1, 40896, Note_on_c, 0, 68, 0
1, 40896, Note_on_c, 0, 65, 80
1, 40896, Note_on_c, 1, 61, 80
1, 40919, Note_on_c, 0, 65, 0
1, 40920, Note_on_c, 0, 73, 80
1, 40920, Note_on_c, 0, 65, 80
1, 40941, Note_on_c, 1, 61, 0
1, 40943, Note_on_c, 0, 73, 0
1, 40943, Note_on_c, 0, 65, 0
1, 40944, Note_on_c, 0, 73, 80
1, 40944, Note_on_c, 0, 65, 80
1, 40967, Note_on_c, 0, 73, 0
1, 40967, Note_on_c, 0, 65, 0
1, 40968, Note_on_c, 0, 73, 80
1, 40968, Note_on_c, 0, 65, 80
1, 40991, Note_on_c, 0, 73, 0
1, 40991, Note_on_c, 0, 65, 0
1, 40992, Note_on_c, 0, 73, 80
1, 40992, Note_on_c, 0, 65, 80
1, 41016, Note_on_c, 0, 73, 0
1, 41016, Note_on_c, 0, 65, 0
1, 41016, Note_on_c, 0, 72, 80
1, 41016, Note_on_c, 0, 63, 80
1, 41039, Note_on_c, 0, 72, 0
1, 41039, Note_on_c, 0, 63, 0
1, 41040, Note_on_c, 0, 72, 80
1, 41040, Note_on_c, 0, 63, 80
1, 41064, Note_on_c, 0, 72, 0
1, 41064, Note_on_c, 0, 63, 0
1, 41064, Note_on_c, 0, 70, 80
1, 41064, Note_on_c, 0, 61, 80
1, 41087, Note_on_c, 0, 70, 0
1, 41087, Note_on_c, 0, 61, 0
1, 41088, Note_on_c, 0, 68, 80
1, 41088, Note_on_c, 0, 60, 80
1, 41088, Note_on_c, 1, 56, 80
1, 41088, Note_on_c, 1, 51, 80
1, 41088, Note_on_c, 1, 48, 80
1, 41088, Note_on_c, 1, 44, 80
1, 41111, Note_on_c, 0, 68, 0
1, 41111, Note_on_c, 0, 60, 0
1, 41112, Note_on_c, 0, 63, 80
1, 41120, Note_on_c, 0, 63, 0
1, 41120, Note_on_c, 0, 65, 80
1, 41128, Note_on_c, 0, 65, 0
1, 41128, Note_on_c, 0, 63, 80
1, 41133, Note_on_c, 1, 56, 0
1, 41133, Note_on_c, 1, 51, 0
1, 41133, Note_on_c, 1, 48, 0
1, 41133, Note_on_c, 1, 44, 0
1, 41136, Note_on_c, 0, 63, 0
1, 41136, Note_on_c, 0, 68, 80
1, 41159, Note_on_c, 0, 68, 0
1, 41160, Note_on_c, 0, 60, 80
1, 41160, Note_on_c, 1, 56, 80
1, 41172, Note_on_c, 0, 60, 0
1, 41172, Note_on_c, 0, 68, 80
1, 41183, Note_on_c, 1, 56, 0
1, 41184, Note_on_c, 0, 68, 0
1, 41184, Note_on_c, 0, 61, 80
1, 41184, Note_on_c, 1, 58, 80
1, 41196, Note_on_c, 0, 61, 0
1, 41196, Note_on_c, 0, 68, 80
1, 41207, Note_on_c, 1, 58, 0
1, 41208, Note_on_c, 0, 68, 0
1, 41208, Note_on_c, 0, 60, 80
1, 41208, Note_on_c, 1, 56, 80
1, 41220, Note_on_c, 0, 60, 0
1, 41220, Note_on_c, 0, 68, 80
1, 41231, Note_on_c, 1, 56, 0
1, 41232, Note_on_c, 0, 68, 0
1, 41232, Note_on_c, 0, 61, 80
1, 41232, Note_on_c, 1, 58, 80
1, 41244, Note_on_c, 0, 61, 0
1, 41244, Note_on_c, 0, 68, 80
1, 41255, Note_on_c, 1, 58, 0
1, 41256, Note_on_c, 0, 68, 0
1, 41256, Note_on_c, 0, 63, 80
1, 41256, Note_on_c, 1, 60, 80
1, 41268, Note_on_c, 0, 63, 0
1, 41268, Note_on_c, 0, 68, 80
1, 41279, Note_on_c, 1, 60, 0
1, 41280, Note_on_c, 0, 68, 0
1, 41280, Note_on_c, 0, 65, 80
1, 41280, Note_on_c, 1, 61, 80
1, 41303, Note_on_c, 0, 65, 0
1, 41304, Note_on_c, 0, 77, 80
1, 41304, Note_on_c, 0, 73, 80
1, 41325, Note_on_c, 1, 61, 0
1, 41327, Note_on_c, 0, 77, 0
1, 41327, Note_on_c, 0, 73, 0
1, 41328, Note_on_c, 0, 77, 80
1, 41328, Note_on_c, 0, 73, 80
1, 41351, Note_on_c, 0, 77, 0
1, 41351, Note_on_c, 0, 73, 0
1, 41352, Note_on_c, 0, 77, 80
1, 41352, Note_on_c, 0, 73, 80
1, 41375, Note_on_c, 0, 77, 0
1, 41375, Note_on_c, 0, 73, 0
1, 41376, Note_on_c, 0, 77, 80
1, 41376, Note_on_c, 0, 73, 80
1, 41400, Note_on_c, 0, 77, 0
1, 41400, Note_on_c, 0, 73, 0
1, 41400, Note_on_c, 0, 75, 80
1, 41400, Note_on_c, 0, 72, 80
1, 41423, Note_on_c, 0, 75, 0
1, 41423, Note_on_c, 0, 72, 0
1, 41424, Note_on_c, 0, 75, 80
1, 41424, Note_on_c, 0, 72, 80
1, 41448, Note_on_c, 0, 75, 0
1, 41448, Note_on_c, 0, 72, 0
1, 41448, Note_on_c, 0, 73, 80
1, 41448, Note_on_c, 0, 70, 80
1, 41471, Note_on_c, 0, 73, 0
1, 41471, Note_on_c, 0, 70, 0
1, 41472, Note_on_c, 0, 72, 80
1, 41472, Note_on_c, 0, 68, 80
1, 41472, Note_on_c, 1, 56, 80
1, 41472, Note_on_c, 1, 51, 80
1, 41472, Note_on_c, 1, 48, 80
1, 41472, Note_on_c, 1, 44, 80
1, 41495, Note_on_c, 0, 72, 0
1, 41495, Note_on_c, 0, 68, 0
1, 41496, Note_on_c, 0, 75, 80
1, 41504, Note_on_c, 0, 75, 0
1, 41504, Note_on_c, 0, 77, 80
1, 41512, Note_on_c, 0, 77, 0
1, 41512, Note_on_c, 0, 75, 80
1, 41517, Note_on_c, 1, 56, 0
1, 41517, Note_on_c, 1, 51, 0
1, 41517, Note_on_c, 1, 48, 0
1, 41517, Note_on_c, 1, 44, 0
1, 41520, Note_on_c, 0, 75, 0
1, 41520, Note_on_c, 0, 80, 80
1, 41530, Note_on_c, 0, 80, 0
1, 41544, Note_on_c, 0, 75, 80
1, 41544, Note_on_c, 1, 72, 80
1, 41556, Note_on_c, 0, 75, 0
1, 41556, Note_on_c, 0, 80, 80
1, 41567, Note_on_c, 1, 72, 0
1, 41568, Note_on_c, 0, 80, 0
1, 41568, Note_on_c, 0, 77, 80
1, 41568, Note_on_c, 1, 73, 80
1, 41580, Note_on_c, 0, 77, 0
1, 41580, Note_on_c, 0, 80, 80
1, 41591, Note_on_c, 1, 73, 0
1, 41592, Note_on_c, 0, 80, 0
1, 41592, Note_on_c, 0, 75, 80
1, 41592, Note_on_c, 1, 72, 80
1, 41604, Note_on_c, 0, 75, 0
1, 41604, Note_on_c, 0, 80, 80
1, 41615, Note_on_c, 1, 72, 0
1, 41616, Note_on_c, 0, 80, 0
1, 41616, Note_on_c, 0, 77, 80
1, 41616, Note_on_c, 1, 73, 80
1, 41628, Note_on_c, 0, 77, 0
1, 41628, Note_on_c, 0, 80, 80
1, 41639, Note_on_c, 1, 73, 0
1, 41640, Note_on_c, 0, 80, 0
1, 41640, Note_on_c, 0, 75, 80
1, 41640, Note_on_c, 1, 72, 80
1, 41652, Note_on_c, 0, 75, 0
1, 41652, Note_on_c, 0, 80, 80
1, 41663, Note_on_c, 1, 72, 0
1, 41664, Note_on_c, 0, 80, 0
1, 41664, Note_on_c, 0, 74, 80
1, 41664, Note_on_c, 1, 70, 80
1, 41676, Note_on_c, 0, 74, 0
1, 41676, Note_on_c, 0, 80, 80
1, 41688, Note_on_c, 0, 80, 0
1, 41688, Note_on_c, 0, 79, 80
1, 41700, Note_on_c, 0, 79, 0
1, 41700, Note_on_c, 0, 80, 80
1, 41712, Note_on_c, 0, 80, 0
1, 41712, Note_on_c, 0, 82, 80
1, 41724, Note_on_c, 0, 82, 0
1, 41724, Note_on_c, 0, 80, 80
1, 41736, Note_on_c, 0, 80, 0
1, 41736, Note_on_c, 0, 79, 80
1, 41748, Note_on_c, 0, 79, 0
1, 41748, Note_on_c, 0, 80, 80
1, 41753, Note_on_c, 1, 70, 0
1, 41760, Note_on_c, 0, 80, 0
1, 41760, Note_on_c, 0, 89, 80
1, 41772, Note_on_c, 0, 89, 0
1, 41772, Note_on_c, 0, 87, 78
1, 41784, Note_on_c, 0, 87, 0
1, 41784, Note_on_c, 0, 86, 77
1, 41796, Note_on_c, 0, 86, 0
1, 41796, Note_on_c, 0, 84, 76
1, 41808, Note_on_c, 0, 84, 0
1, 41808, Note_on_c, 0, 82, 75
1, 41820, Note_on_c, 0, 82, 0
1, 41820, Note_on_c, 0, 80, 73
1, 41832, Note_on_c, 0, 80, 0
1, 41832, Note_on_c, 0, 79, 72
1, 41844, Note_on_c, 0, 79, 0
1, 41844, Note_on_c, 0, 77, 71
1, 41856, Note_on_c, 0, 77, 0
1, 41856, Note_on_c, 0, 75, 70
1, 41856, Note_on_c, 1, 63, 58
1, 41879, Note_on_c, 1, 63, 0
1, 41880, Note_on_c, 1, 67, 58
1, 41903, Note_on_c, 1, 67, 0
1, 41904, Note_on_c, 1, 63, 58
1, 41927, Note_on_c, 1, 63, 0
1, 41928, Note_on_c, 1, 67, 58
1, 41951, Note_on_c, 1, 67, 0
1, 41952, Note_on_c, 0, 75, 0
1, 41952, Note_on_c, 0, 74, 70
1, 41952, Note_on_c, 1, 63, 58
1, 41975, Note_on_c, 1, 63, 0
1, 41976, Note_on_c, 1, 67, 58
1, 41997, Note_on_c, 0, 74, 0
1, 41999, Note_on_c, 1, 67, 0
1, 42000, Note_on_c, 0, 73, 70
1, 42000, Note_on_c, 1, 63, 58
1, 42023, Note_on_c, 1, 63, 0
1, 42024, Note_on_c, 1, 67, 58
1, 42045, Note_on_c, 0, 73, 0
1, 42047, Note_on_c, 1, 67, 0
1, 42048, Note_on_c, 0, 71, 70
1, 42048, Note_on_c, 1, 63, 58
1, 42071, Note_on_c, 1, 63, 0
1, 42072, Note_on_c, 1, 68, 58
1, 42095, Note_on_c, 1, 68, 0
1, 42096, Note_on_c, 0, 71, 0
1, 42096, Note_on_c, 0, 72, 70
1, 42096, Note_on_c, 1, 63, 58
1, 42119, Note_on_c, 1, 63, 0
1, 42120, Note_on_c, 1, 68, 58
1, 42141, Note_on_c, 0, 72, 0
1, 42143, Note_on_c, 1, 68, 0
1, 42144, Note_on_c, 1, 63, 58
1, 42167, Note_on_c, 1, 63, 0
1, 42168, Note_on_c, 1, 68, 58
1, 42191, Note_on_c, 1, 68, 0
1, 42192, Note_on_c, 1, 63, 58
1, 42215, Note_on_c, 1, 63, 0
1, 42216, Note_on_c, 1, 68, 58
1, 42239, Note_on_c, 1, 68, 0
1, 42240, Note_on_c, 0, 77, 70
1, 42240, Note_on_c, 1, 62, 58
1, 42263, Note_on_c, 1, 62, 0
1, 42264, Note_on_c, 1, 68, 58
1, 42285, Note_on_c, 0, 77, 0
1, 42287, Note_on_c, 1, 68, 0
1, 42288, Note_on_c, 0, 70, 70
1, 42288, Note_on_c, 1, 62, 58
1, 42311, Note_on_c, 1, 62, 0
1, 42312, Note_on_c, 1, 68, 58
1, 42335, Note_on_c, 1, 68, 0
1, 42336, Note_on_c, 1, 62, 58
1, 42359, Note_on_c, 1, 62, 0
1, 42360, Note_on_c, 1, 68, 58
1, 42381, Note_on_c, 0, 70, 0
1, 42383, Note_on_c, 1, 68, 0
1, 42384, Note_on_c, 0, 74, 70
1, 42384, Note_on_c, 1, 62, 58
1, 42390, Note_on_c, 0, 74, 0
1, 42390, Note_on_c, 0, 72, 70
1, 42407, Note_on_c, 0, 72, 0
1, 42407, Note_on_c, 1, 62, 0
1, 42408, Note_on_c, 0, 70, 70
1, 42408, Note_on_c, 1, 68, 58
1, 42431, Note_on_c, 0, 70, 0
1, 42431, Note_on_c, 1, 68, 0
1, 42432, Note_on_c, 0, 70, 70
1, 42432, Note_on_c, 1, 63, 58
1, 42455, Note_on_c, 0, 70, 0
1, 42455, Note_on_c, 1, 63, 0
1, 42456, Note_on_c, 0, 72, 70
1, 42456, Note_on_c, 1, 67, 58
1, 42468, Note_on_c, 0, 72, 0
1, 42468, Note_on_c, 0, 74, 71
1, 42479, Note_on_c, 1, 67, 0
1, 42480, Note_on_c, 0, 74, 0
1, 42480, Note_on_c, 0, 75, 71
1, 42480, Note_on_c, 1, 63, 58
1, 42492, Note_on_c, 0, 75, 0
1, 42492, Note_on_c, 0, 77, 72
1, 42503, Note_on_c, 1, 63, 0
1, 42504, Note_on_c, 0, 77, 0
1, 42504, Note_on_c, 0, 79, 72
1, 42504, Note_on_c, 1, 67, 58
1, 42516, Note_on_c, 0, 79, 0
1, 42516, Note_on_c, 0, 80, 72
1, 42527, Note_on_c, 1, 67, 0
1, 42528, Note_on_c, 0, 80, 0
1, 42528, Note_on_c, 0, 82, 73
1, 42528, Note_on_c, 1, 63, 58
1, 42551, Note_on_c, 1, 63, 0
1, 42552, Note_on_c, 1, 67, 58
1, 42573, Note_on_c, 0, 82, 0
1, 42575, Note_on_c, 1, 67, 0
1, 42576, Note_on_c, 1, 63, 58
1, 42599, Note_on_c, 1, 63, 0
1, 42600, Note_on_c, 1, 67, 58
1, 42623, Note_on_c, 1, 67, 0
1, 42624, Note_on_c, 0, 77, 70
1, 42624, Note_on_c, 1, 62, 58
1, 42647, Note_on_c, 1, 62, 0
1, 42648, Note_on_c, 1, 68, 58
1, 42669, Note_on_c, 0, 77, 0
1, 42671, Note_on_c, 1, 68, 0
1, 42672, Note_on_c, 0, 70, 70
1, 42672, Note_on_c, 1, 62, 58
1, 42695, Note_on_c, 1, 62, 0
1, 42696, Note_on_c, 1, 68, 58
1, 42719, Note_on_c, 1, 68, 0
1, 42720, Note_on_c, 1, 62, 58
1, 42743, Note_on_c, 1, 62, 0
1, 42744, Note_on_c, 1, 68, 58
1, 42765, Note_on_c, 0, 70, 0
1, 42767, Note_on_c, 1, 68, 0
1, 42768, Note_on_c, 0, 74, 70
1, 42768, Note_on_c, 1, 62, 58
1, 42774, Note_on_c, 0, 74, 0
1, 42774, Note_on_c, 0, 72, 70
1, 42791, Note_on_c, 0, 72, 0
1, 42791, Note_on_c, 1, 62, 0
1, 42792, Note_on_c, 0, 70, 70
1, 42792, Note_on_c, 1, 68, 58
1, 42815, Note_on_c, 0, 70, 0
1, 42815, Note_on_c, 1, 68, 0
1, 42816, Note_on_c, 0, 70, 70
1, 42816, Note_on_c, 1, 61, 58
1, 42839, Note_on_c, 0, 70, 0
1, 42839, Note_on_c, 1, 61, 0
1, 42840, Note_on_c, 0, 72, 70
1, 42840, Note_on_c, 1, 67, 58
1, 42852, Note_on_c, 0, 72, 0
1, 42852, Note_on_c, 0, 73, 71
1, 42863, Note_on_c, 1, 67, 0
1, 42864, Note_on_c, 0, 73, 0
1, 42864, Note_on_c, 0, 75, 71
1, 42864, Note_on_c, 1, 61, 58
1, 42876, Note_on_c, 0, 75, 0
1, 42876, Note_on_c, 0, 77, 72
1, 42887, Note_on_c, 1, 61, 0
1, 42888, Note_on_c, 0, 77, 0
1, 42888, Note_on_c, 0, 79, 72
1, 42888, Note_on_c, 1, 67, 58
1, 42900, Note_on_c, 0, 79, 0
1, 42900, Note_on_c, 0, 80, 72
1, 42911, Note_on_c, 1, 67, 0
1, 42912, Note_on_c, 0, 80, 0
1, 42912, Note_on_c, 0, 82, 73
1, 42912, Note_on_c, 1, 61, 58
1, 42935, Note_on_c, 1, 61, 0
1, 42936, Note_on_c, 1, 67, 58
1, 42957, Note_on_c, 0, 82, 0
1, 42959, Note_on_c, 1, 67, 0
1, 42960, Note_on_c, 1, 61, 58
1, 42983, Note_on_c, 1, 61, 0
1, 42984, Note_on_c, 1, 67, 58
1, 43007, Note_on_c, 1, 67, 0
1, 43008, Note_on_c, 0, 70, 75
1, 43008, Note_on_c, 1, 60, 58
1, 43031, Note_on_c, 0, 70, 0
1, 43031, Note_on_c, 1, 60, 0
1, 43032, Note_on_c, 0, 72, 75
1, 43032, Note_on_c, 1, 67, 59
1, 43044, Note_on_c, 0, 72, 0
1, 43044, Note_on_c, 0, 74, 76
1, 43055, Note_on_c, 1, 67, 0
1, 43056, Note_on_c, 0, 74, 0
1, 43056, Note_on_c, 0, 76, 76
1, 43056, Note_on_c, 1, 60, 61
1, 43068, Note_on_c, 0, 76, 0
1, 43068, Note_on_c, 0, 77, 77
1, 43079, Note_on_c, 1, 60, 0
1, 43080, Note_on_c, 0, 77, 0
1, 43080, Note_on_c, 0, 79, 77
1, 43080, Note_on_c, 1, 67, 62
1, 43092, Note_on_c, 0, 79, 0
1, 43092, Note_on_c, 0, 80, 77
1, 43103, Note_on_c, 1, 67, 0
1, 43104, Note_on_c, 0, 80, 0
1, 43104, Note_on_c, 0, 82, 78
1, 43104, Note_on_c, 1, 60, 64
1, 43127, Note_on_c, 1, 60, 0
1, 43128, Note_on_c, 1, 67, 64
1, 43149, Note_on_c, 0, 82, 0
1, 43151, Note_on_c, 1, 67, 0
1, 43152, Note_on_c, 1, 60, 64
1, 43175, Note_on_c, 1, 60, 0
1, 43176, Note_on_c, 1, 67, 64
1, 43199, Note_on_c, 1, 67, 0
1, 43200, Note_on_c, 0, 72, 80
1, 43200, Note_on_c, 1, 58, 58
1, 43212, Note_on_c, 0, 72, 0
1, 43212, Note_on_c, 0, 74, 80
1, 43223, Note_on_c, 1, 58, 0
1, 43224, Note_on_c, 0, 74, 0
1, 43224, Note_on_c, 0, 76, 81
1, 43224, Note_on_c, 1, 67, 58
1, 43236, Note_on_c, 0, 76, 0
1, 43236, Note_on_c, 0, 77, 81
1, 43247, Note_on_c, 1, 67, 0
1, 43248, Note_on_c, 0, 77, 0
1, 43248, Note_on_c, 0, 79, 82
1, 43248, Note_on_c, 1, 58, 59
1, 43260, Note_on_c, 0, 79, 0
1, 43260, Note_on_c, 0, 80, 82
1, 43271, Note_on_c, 1, 58, 0
1, 43272, Note_on_c, 0, 80, 0
1, 43272, Note_on_c, 0, 82, 83
1, 43272, Note_on_c, 1, 67, 60
1, 43284, Note_on_c, 0, 82, 0
1, 43284, Note_on_c, 0, 84, 83
1, 43295, Note_on_c, 1, 67, 0
1, 43296, Note_on_c, 0, 84, 0
1, 43296, Note_on_c, 0, 85, 84
1, 43296, Note_on_c, 1, 58, 61
1, 43319, Note_on_c, 1, 58, 0
1, 43320, Note_on_c, 1, 67, 61
1, 43341, Note_on_c, 0, 85, 0
1, 43343, Note_on_c, 1, 67, 0
1, 43344, Note_on_c, 1, 58, 62
1, 43367, Note_on_c, 1, 58, 0
1, 43368, Note_on_c, 0, 76, 86
1, 43368, Note_on_c, 1, 67, 63
1, 43391, Note_on_c, 0, 76, 0
1, 43391, Note_on_c, 1, 67, 0
1, 43392, Note_on_c, 0, 77, 80
1, 43392, Note_on_c, 1, 65, 80
1, 43392, Note_on_c, 1, 53, 80
1, 43481, Note_on_c, 0, 77, 0
1, 43481, Note_on_c, 1, 65, 0
1, 43481, Note_on_c, 1, 53, 0
1, 43488, Note_on_c, 0, 68, 80
1, 43488, Note_on_c, 1, 56, 80
1, 43511, Note_on_c, 0, 68, 0
1, 43512, Note_on_c, 0, 70, 80
1, 43520, Note_on_c, 0, 70, 0
1, 43520, Note_on_c, 0, 68, 80
1, 43528, Note_on_c, 0, 68, 0
1, 43528, Note_on_c, 0, 67, 80
1, 43536, Note_on_c, 0, 67, 0
1, 43536, Note_on_c, 0, 68, 80
1, 43555, Note_on_c, 1, 56, 0
1, 43559, Note_on_c, 0, 68, 0
1, 43560, Note_on_c, 0, 70, 80
1, 43560, Note_on_c, 1, 58, 80
1, 43583, Note_on_c, 0, 70, 0
1, 43583, Note_on_c, 1, 58, 0
1, 43584, Note_on_c, 0, 72, 80
1, 43584, Note_on_c, 1, 60, 80
1, 43604, Note_on_c, 0, 72, 0
1, 43604, Note_on_c, 1, 60, 0
1, 43632, Note_on_c, 0, 72, 80
1, 43632, Note_on_c, 1, 60, 80
1, 43652, Note_on_c, 0, 72, 0
1, 43652, Note_on_c, 1, 60, 0
1, 43680, Note_on_c, 0, 72, 80
1, 43680, Note_on_c, 1, 60, 80
1, 43703, Note_on_c, 0, 72, 0
1, 43703, Note_on_c, 1, 60, 0
1, 43704, Note_on_c, 0, 74, 80
1, 43704, Note_on_c, 1, 62, 80
1, 43716, Note_on_c, 0, 74, 0
1, 43716, Note_on_c, 0, 76, 80
1, 43716, Note_on_c, 1, 62, 0
1, 43716, Note_on_c, 1, 64, 80
1, 43728, Note_on_c, 0, 76, 0
1, 43728, Note_on_c, 0, 77, 80
1, 43728, Note_on_c, 1, 64, 0
1, 43728, Note_on_c, 1, 65, 80
1, 43740, Note_on_c, 0, 77, 0
1, 43740, Note_on_c, 0, 79, 80
1, 43740, Note_on_c, 1, 65, 0
1, 43740, Note_on_c, 1, 67, 80
1, 43752, Note_on_c, 0, 79, 0
1, 43752, Note_on_c, 0, 80, 80
1, 43752, Note_on_c, 1, 67, 0
1, 43752, Note_on_c, 1, 68, 80
1, 43764, Note_on_c, 0, 80, 0
1, 43764, Note_on_c, 0, 82, 80
1, 43764, Note_on_c, 1, 68, 0
1, 43764, Note_on_c, 1, 70, 80
1, 43776, Note_on_c, 0, 82, 0
1, 43776, Note_on_c, 0, 84, 80
1, 43776, Note_on_c, 1, 70, 0
1, 43776, Note_on_c, 1, 72, 80
1, 43810, Note_on_c, 0, 84, 0
1, 43810, Note_on_c, 1, 72, 0
1, 43812, Note_on_c, 0, 79, 80
1, 43812, Note_on_c, 1, 67, 80
1, 43824, Note_on_c, 0, 79, 0
1, 43824, Note_on_c, 0, 80, 80
1, 43824, Note_on_c, 1, 67, 0
1, 43824, Note_on_c, 1, 68, 80
1, 43858, Note_on_c, 0, 80, 0
1, 43858, Note_on_c, 1, 68, 0
1, 43860, Note_on_c, 0, 76, 80
1, 43860, Note_on_c, 1, 64, 80
1, 43872, Note_on_c, 0, 76, 0
1, 43872, Note_on_c, 0, 77, 80
1, 43872, Note_on_c, 1, 64, 0
1, 43872, Note_on_c, 1, 65, 80
1, 43906, Note_on_c, 0, 77, 0
1, 43906, Note_on_c, 1, 65, 0
1, 43908, Note_on_c, 0, 73, 80
1, 43908, Note_on_c, 1, 61, 80
1, 43920, Note_on_c, 0, 73, 0
1, 43920, Note_on_c, 0, 72, 80
1, 43920, Note_on_c, 1, 61, 0
1, 43920, Note_on_c, 1, 60, 80
1, 43926, Note_on_c, 0, 72, 0
1, 43926, Note_on_c, 0, 74, 80
1, 43932, Note_on_c, 0, 74, 0
1, 43932, Note_on_c, 0, 72, 80
1, 43954, Note_on_c, 0, 72, 0
1, 43954, Note_on_c, 1, 60, 0
1, 43956, Note_on_c, 0, 71, 80
1, 43956, Note_on_c, 1, 59, 80
1, 43968, Note_on_c, 0, 71, 0
1, 43968, Note_on_c, 0, 72, 80
1, 43968, Note_on_c, 1, 59, 0
1, 43968, Note_on_c, 1, 60, 80
1, 44013, Note_on_c, 0, 72, 0
1, 44013, Note_on_c, 1, 60, 0
1, 44016, Note_on_c, 0, 60, 80
1, 44016, Note_on_c, 1, 48, 80
1, 44061, Note_on_c, 0, 60, 0
1, 44061, Note_on_c, 1, 48, 0
1, 44160, Note_on_c, 0, 75, 75
1, 44160, Note_on_c, 1, 57, 75
1, 44172, Note_on_c, 1, 57, 0
1, 44172, Note_on_c, 1, 66, 75
1, 44183, Note_on_c, 0, 75, 0
1, 44184, Note_on_c, 0, 74, 75
1, 44184, Note_on_c, 1, 66, 0
1, 44184, Note_on_c, 1, 58, 75
1, 44196, Note_on_c, 1, 58, 0
1, 44196, Note_on_c, 1, 66, 75
1, 44207, Note_on_c, 0, 74, 0
1, 44208, Note_on_c, 0, 75, 75
1, 44208, Note_on_c, 1, 66, 0
1, 44208, Note_on_c, 1, 57, 75
1, 44220, Note_on_c, 1, 57, 0
1, 44220, Note_on_c, 1, 66, 75
1, 44231, Note_on_c, 0, 75, 0
1, 44232, Note_on_c, 0, 74, 75
1, 44232, Note_on_c, 1, 66, 0
1, 44232, Note_on_c, 1, 58, 75
1, 44244, Note_on_c, 1, 58, 0
1, 44244, Note_on_c, 1, 66, 75
1, 44255, Note_on_c, 0, 74, 0
1, 44256, Note_on_c, 0, 75, 91
1, 44256, Note_on_c, 1, 66, 0
1, 44256, Note_on_c, 1, 57, 75
1, 44280, Note_on_c, 0, 75, 0
1, 44280, Note_on_c, 0, 84, 75
1, 44292, Note_on_c, 0, 84, 0
1, 44292, Note_on_c, 0, 82, 75
1, 44301, Note_on_c, 1, 57, 0
1, 44304, Note_on_c, 0, 82, 0
1, 44304, Note_on_c, 0, 81, 75
1, 44316, Note_on_c, 0, 81, 0
1, 44316, Note_on_c, 0, 79, 75
1, 44328, Note_on_c, 0, 79, 0
1, 44328, Note_on_c, 0, 77, 75
1, 44340, Note_on_c, 0, 77, 0
1, 44340, Note_on_c, 0, 75, 75
1, 44352, Note_on_c, 0, 75, 0
1, 44352, Note_on_c, 0, 74, 75
1, 44352, Note_on_c, 1, 58, 75
1, 44364, Note_on_c, 1, 58, 0
1, 44364, Note_on_c, 1, 68, 75
1, 44375, Note_on_c, 0, 74, 0
1, 44376, Note_on_c, 0, 75, 75
1, 44376, Note_on_c, 1, 68, 0
1, 44376, Note_on_c, 1, 59, 75
1, 44388, Note_on_c, 1, 59, 0
1, 44388, Note_on_c, 1, 68, 75
1, 44399, Note_on_c, 0, 75, 0
1, 44400, Note_on_c, 0, 74, 75
1, 44400, Note_on_c, 1, 68, 0
1, 44400, Note_on_c, 1, 58, 75
1, 44412, Note_on_c, 1, 58, 0
1, 44412, Note_on_c, 1, 68, 75
1, 44423, Note_on_c, 0, 74, 0
1, 44424, Note_on_c, 0, 75, 75
1, 44424, Note_on_c, 1, 68, 0
1, 44424, Note_on_c, 1, 60, 75
1, 44436, Note_on_c, 1, 60, 0
1, 44436, Note_on_c, 1, 68, 75
1, 44447, Note_on_c, 0, 75, 0
1, 44448, Note_on_c, 0, 74, 91
1, 44448, Note_on_c, 1, 68, 0
1, 44448, Note_on_c, 1, 58, 75
1, 44472, Note_on_c, 0, 74, 0
1, 44472, Note_on_c, 0, 77, 75
1, 44484, Note_on_c, 0, 77, 0
1, 44484, Note_on_c, 0, 75, 75
1, 44493, Note_on_c, 1, 58, 0
1, 44496, Note_on_c, 0, 75, 0
1, 44496, Note_on_c, 0, 74, 75
1, 44508, Note_on_c, 0, 74, 0
1, 44508, Note_on_c, 0, 72, 75
1, 44520, Note_on_c, 0, 72, 0
1, 44520, Note_on_c, 0, 70, 75
1, 44532, Note_on_c, 0, 70, 0
1, 44532, Note_on_c, 0, 68, 75
1, 44544, Note_on_c, 0, 68, 0
1, 44544, Note_on_c, 0, 67, 75
1, 44544, Note_on_c, 1, 51, 75
1, 44556, Note_on_c, 1, 51, 0
1, 44556, Note_on_c, 1, 61, 75
1, 44567, Note_on_c, 0, 67, 0
1, 44568, Note_on_c, 0, 68, 75
1, 44568, Note_on_c, 1, 61, 0
1, 44568, Note_on_c, 1, 52, 75
1, 44580, Note_on_c, 1, 52, 0
1, 44580, Note_on_c, 1, 61, 75
1, 44591, Note_on_c, 0, 68, 0
1, 44592, Note_on_c, 0, 67, 75
1, 44592, Note_on_c, 1, 61, 0
1, 44592, Note_on_c, 1, 51, 75
1, 44604, Note_on_c, 1, 51, 0
1, 44604, Note_on_c, 1, 61, 75
1, 44615, Note_on_c, 0, 67, 0
1, 44616, Note_on_c, 0, 68, 75
1, 44616, Note_on_c, 1, 61, 0
1, 44616, Note_on_c, 1, 52, 75
1, 44628, Note_on_c, 1, 52, 0
1, 44628, Note_on_c, 1, 61, 75
1, 44639, Note_on_c, 0, 68, 0
1, 44640, Note_on_c, 0, 67, 91
1, 44640, Note_on_c, 1, 61, 0
1, 44640, Note_on_c, 1, 51, 75
1, 44664, Note_on_c, 0, 67, 0
1, 44664, Note_on_c, 0, 82, 75
1, 44676, Note_on_c, 0, 82, 0
1, 44676, Note_on_c, 0, 80, 75
1, 44685, Note_on_c, 1, 51, 0
1, 44688, Note_on_c, 0, 80, 0
1, 44688, Note_on_c, 0, 79, 75
1, 44700, Note_on_c, 0, 79, 0
1, 44700, Note_on_c, 0, 77, 75
1, 44712, Note_on_c, 0, 77, 0
1, 44712, Note_on_c, 0, 75, 75
1, 44724, Note_on_c, 0, 75, 0
1, 44724, Note_on_c, 0, 73, 75
1, 44736, Note_on_c, 0, 73, 0
1, 44736, Note_on_c, 0, 72, 75
1, 44736, Note_on_c, 1, 64, 75
1, 44748, Note_on_c, 1, 64, 0
1, 44748, Note_on_c, 1, 70, 75
1, 44759, Note_on_c, 0, 72, 0
1, 44760, Note_on_c, 0, 73, 75
1, 44760, Note_on_c, 1, 70, 0
1, 44760, Note_on_c, 1, 65, 75
1, 44772, Note_on_c, 1, 65, 0
1, 44772, Note_on_c, 1, 70, 75
1, 44783, Note_on_c, 0, 73, 0
1, 44784, Note_on_c, 0, 72, 75
1, 44784, Note_on_c, 1, 70, 0
1, 44784, Note_on_c, 1, 64, 75
1, 44796, Note_on_c, 1, 64, 0
1, 44796, Note_on_c, 1, 70, 75
1, 44807, Note_on_c, 0, 72, 0
1, 44808, Note_on_c, 0, 73, 75
1, 44808, Note_on_c, 1, 70, 0
1, 44808, Note_on_c, 1, 65, 75
1, 44820, Note_on_c, 1, 65, 0
1, 44820, Note_on_c, 1, 70, 75
1, 44831, Note_on_c, 0, 73, 0
1, 44832, Note_on_c, 0, 72, 91
1, 44832, Note_on_c, 1, 70, 0
1, 44832, Note_on_c, 1, 64, 75
1, 44856, Note_on_c, 0, 72, 0
1, 44856, Note_on_c, 0, 79, 75
1, 44868, Note_on_c, 0, 79, 0
1, 44868, Note_on_c, 0, 77, 75
1, 44877, Note_on_c, 1, 64, 0
1, 44880, Note_on_c, 0, 77, 0
1, 44880, Note_on_c, 0, 76, 75
1, 44892, Note_on_c, 0, 76, 0
1, 44892, Note_on_c, 0, 74, 75
1, 44904, Note_on_c, 0, 74, 0
1, 44904, Note_on_c, 0, 72, 75
1, 44916, Note_on_c, 0, 72, 0
1, 44916, Note_on_c, 0, 70, 75
1, 44928, Note_on_c, 0, 70, 0
1, 44928, Note_on_c, 0, 69, 75
1, 44928, Note_on_c, 1, 53, 75
1, 44940, Note_on_c, 1, 53, 0
1, 44940, Note_on_c, 1, 63, 75
1, 44951, Note_on_c, 0, 69, 0
1, 44952, Note_on_c, 0, 70, 75
1, 44952, Note_on_c, 1, 63, 0
1, 44952, Note_on_c, 1, 54, 75
1, 44964, Note_on_c, 1, 54, 0
1, 44964, Note_on_c, 1, 63, 75
1, 44975, Note_on_c, 0, 70, 0
1, 44976, Note_on_c, 0, 69, 75
1, 44976, Note_on_c, 1, 63, 0
1, 44976, Note_on_c, 1, 53, 75
1, 44988, Note_on_c, 1, 53, 0
1, 44988, Note_on_c, 1, 63, 75
1, 44999, Note_on_c, 0, 69, 0
1, 45000, Note_on_c, 0, 70, 75
1, 45000, Note_on_c, 1, 63, 0
1, 45000, Note_on_c, 1, 54, 75
1, 45012, Note_on_c, 1, 54, 0
1, 45012, Note_on_c, 1, 63, 75
1, 45023, Note_on_c, 0, 70, 0
1, 45024, Note_on_c, 0, 69, 91
1, 45024, Note_on_c, 1, 63, 0
1, 45024, Note_on_c, 1, 53, 75
1, 45048, Note_on_c, 0, 69, 0
1, 45048, Note_on_c, 0, 84, 75
1, 45060, Note_on_c, 0, 84, 0
1, 45060, Note_on_c, 0, 82, 75
1, 45069, Note_on_c, 1, 53, 0
1, 45072, Note_on_c, 0, 82, 0
1, 45072, Note_on_c, 0, 81, 75
1, 45084, Note_on_c, 0, 81, 0
1, 45084, Note_on_c, 0, 79, 75
1, 45096, Note_on_c, 0, 79, 0
1, 45096, Note_on_c, 0, 77, 75
1, 45108, Note_on_c, 0, 77, 0
1, 45108, Note_on_c, 0, 75, 75
1, 45120, Note_on_c, 0, 75, 0
1, 45120, Note_on_c, 0, 74, 75
1, 45120, Note_on_c, 1, 66, 75
1, 45132, Note_on_c, 1, 66, 0
1, 45132, Note_on_c, 1, 72, 75
1, 45143, Note_on_c, 0, 74, 0
1, 45144, Note_on_c, 0, 75, 75
1, 45144, Note_on_c, 1, 72, 0
1, 45144, Note_on_c, 1, 67, 75
1, 45156, Note_on_c, 1, 67, 0
1, 45156, Note_on_c, 1, 72, 75
1, 45167, Note_on_c, 0, 75, 0
1, 45168, Note_on_c, 0, 74, 75
1, 45168, Note_on_c, 1, 72, 0
1, 45168, Note_on_c, 1, 66, 75
1, 45180, Note_on_c, 1, 66, 0
1, 45180, Note_on_c, 1, 72, 75
1, 45191, Note_on_c, 0, 74, 0
1, 45192, Note_on_c, 0, 75, 75
1, 45192, Note_on_c, 1, 72, 0
1, 45192, Note_on_c, 1, 67, 75
1, 45204, Note_on_c, 1, 67, 0
1, 45204, Note_on_c, 1, 72, 75
1, 45215, Note_on_c, 0, 75, 0
1, 45216, Note_on_c, 0, 74, 91
1, 45216, Note_on_c, 1, 72, 0
1, 45216, Note_on_c, 1, 66, 75
1, 45240, Note_on_c, 0, 74, 0
1, 45240, Note_on_c, 0, 81, 75
1, 45252, Note_on_c, 0, 81, 0
1, 45252, Note_on_c, 0, 79, 75
1, 45261, Note_on_c, 1, 66, 0
1, 45264, Note_on_c, 0, 79, 0
1, 45264, Note_on_c, 0, 78, 75
1, 45276, Note_on_c, 0, 78, 0
1, 45276, Note_on_c, 0, 76, 75
1, 45288, Note_on_c, 0, 76, 0
1, 45288, Note_on_c, 0, 74, 75
1, 45300, Note_on_c, 0, 74, 0
1, 45300, Note_on_c, 0, 72, 75
1, 45312, Note_on_c, 0, 72, 0
1, 45312, Note_on_c, 0, 70, 91
1, 45312, Note_on_c, 1, 67, 75
1, 45312, Note_on_c, 1, 55, 75
1, 45336, Note_on_c, 0, 70, 0
1, 45336, Note_on_c, 0, 86, 75
1, 45348, Note_on_c, 0, 86, 0
1, 45348, Note_on_c, 0, 84, 75
1, 45357, Note_on_c, 1, 67, 0
1, 45357, Note_on_c, 1, 55, 0
1, 45360, Note_on_c, 0, 84, 0
1, 45360, Note_on_c, 0, 82, 75
1, 45372, Note_on_c, 0, 82, 0
1, 45372, Note_on_c, 0, 81, 75
1, 45384, Note_on_c, 0, 81, 0
1, 45384, Note_on_c, 0, 79, 75
1, 45396, Note_on_c, 0, 79, 0
1, 45396, Note_on_c, 0, 77, 75
1, 45408, Note_on_c, 0, 77, 0
1, 45408, Note_on_c, 0, 75, 91
1, 45408, Note_on_c, 1, 60, 75
1, 45408, Note_on_c, 1, 48, 75
1, 45432, Note_on_c, 0, 75, 0
1, 45432, Note_on_c, 0, 72, 76
1, 45444, Note_on_c, 0, 72, 0
1, 45444, Note_on_c, 0, 70, 76
1, 45453, Note_on_c, 1, 60, 0
1, 45453, Note_on_c, 1, 48, 0
1, 45456, Note_on_c, 0, 70, 0
1, 45456, Note_on_c, 0, 69, 77
1, 45468, Note_on_c, 0, 69, 0
1, 45468, Note_on_c, 0, 67, 78
1, 45480, Note_on_c, 0, 67, 0
1, 45480, Note_on_c, 0, 66, 78
1, 45492, Note_on_c, 0, 66, 0
1, 45492, Note_on_c, 0, 64, 79
1, 45504, Note_on_c, 0, 64, 0
1, 45504, Note_on_c, 0, 62, 80
1, 45504, Note_on_c, 1, 50, 80
1, 45504, Note_on_c, 1, 38, 80
1, 45549, Note_on_c, 0, 62, 0
1, 45552, Note_on_c, 0, 74, 80
1, 45571, Note_on_c, 1, 50, 0
1, 45571, Note_on_c, 1, 38, 0
1, 45575, Note_on_c, 0, 74, 0
1, 45576, Note_on_c, 0, 66, 80
1, 45576, Note_on_c, 1, 54, 80
1, 45588, Note_on_c, 0, 66, 0
1, 45588, Note_on_c, 0, 74, 80
1, 45599, Note_on_c, 1, 54, 0
1, 45600, Note_on_c, 0, 74, 0
1, 45600, Note_on_c, 0, 67, 80
1, 45600, Note_on_c, 1, 55, 80
1, 45612, Note_on_c, 0, 67, 0
1, 45612, Note_on_c, 0, 74, 80
1, 45623, Note_on_c, 1, 55, 0
1, 45624, Note_on_c, 0, 74, 0
1, 45624, Note_on_c, 0, 69, 80
1, 45624, Note_on_c, 1, 57, 80
1, 45636, Note_on_c, 0, 69, 0
1, 45636, Note_on_c, 0, 74, 80
1, 45647, Note_on_c, 1, 57, 0
1, 45648, Note_on_c, 0, 74, 0
1, 45648, Note_on_c, 0, 70, 80
1, 45648, Note_on_c, 1, 58, 80
1, 45660, Note_on_c, 0, 70, 0
1, 45660, Note_on_c, 0, 74, 80
1, 45671, Note_on_c, 1, 58, 0
1, 45672, Note_on_c, 0, 74, 0
1, 45672, Note_on_c, 0, 61, 80
1, 45672, Note_on_c, 1, 49, 80
1, 45684, Note_on_c, 0, 61, 0
1, 45684, Note_on_c, 0, 74, 80
1, 45695, Note_on_c, 1, 49, 0
1, 45696, Note_on_c, 0, 74, 0
1, 45696, Note_on_c, 0, 62, 80
1, 45696, Note_on_c, 1, 50, 80
1, 45708, Note_on_c, 0, 62, 0
1, 45708, Note_on_c, 0, 74, 80
1, 45719, Note_on_c, 1, 50, 0
1, 45720, Note_on_c, 0, 74, 0
1, 45720, Note_on_c, 0, 61, 80
1, 45720, Note_on_c, 1, 49, 80
1, 45732, Note_on_c, 0, 61, 0
1, 45732, Note_on_c, 0, 74, 80
1, 45743, Note_on_c, 1, 49, 0
1, 45744, Note_on_c, 0, 74, 0
1, 45744, Note_on_c, 0, 62, 80
1, 45744, Note_on_c, 1, 50, 80
1, 45756, Note_on_c, 0, 62, 0
1, 45756, Note_on_c, 0, 74, 80
1, 45767, Note_on_c, 1, 50, 0
1, 45768, Note_on_c, 0, 74, 0
1, 45768, Note_on_c, 0, 66, 80
1, 45768, Note_on_c, 1, 54, 80
1, 45780, Note_on_c, 0, 66, 0
1, 45780, Note_on_c, 0, 74, 80
1, 45791, Note_on_c, 1, 54, 0
1, 45792, Note_on_c, 0, 74, 0
1, 45792, Note_on_c, 0, 67, 80
1, 45792, Note_on_c, 1, 55, 80
1, 45804, Note_on_c, 0, 67, 0
1, 45804, Note_on_c, 0, 74, 80
1, 45815, Note_on_c, 1, 55, 0
1, 45816, Note_on_c, 0, 74, 0
1, 45816, Note_on_c, 0, 69, 80
1, 45816, Note_on_c, 1, 57, 80
1, 45828, Note_on_c, 0, 69, 0
1, 45828, Note_on_c, 0, 74, 80
1, 45839, Note_on_c, 1, 57, 0
1, 45840, Note_on_c, 0, 74, 0
1, 45840, Note_on_c, 0, 70, 80
1, 45840, Note_on_c, 1, 58, 80
1, 45852, Note_on_c, 0, 70, 0
1, 45852, Note_on_c, 0, 74, 80
1, 45863, Note_on_c, 1, 58, 0
1, 45864, Note_on_c, 0, 74, 0
1, 45864, Note_on_c, 0, 61, 80
1, 45864, Note_on_c, 1, 49, 80
1, 45876, Note_on_c, 0, 61, 0
1, 45876, Note_on_c, 0, 74, 80
1, 45887, Note_on_c, 1, 49, 0
1, 45888, Note_on_c, 0, 74, 0
1, 45888, Note_on_c, 0, 62, 80
1, 45888, Note_on_c, 1, 50, 80
1, 45900, Note_on_c, 0, 62, 0
1, 45900, Note_on_c, 0, 74, 80
1, 45911, Note_on_c, 1, 50, 0
1, 45912, Note_on_c, 0, 74, 0
1, 45912, Note_on_c, 0, 61, 80
1, 45912, Note_on_c, 1, 49, 80
1, 45924, Note_on_c, 0, 61, 0
1, 45924, Note_on_c, 0, 74, 80
1, 45935, Note_on_c, 1, 49, 0
1, 45936, Note_on_c, 0, 74, 0
1, 45936, Note_on_c, 0, 62, 80
1, 45936, Note_on_c, 1, 50, 80
1, 45948, Note_on_c, 0, 62, 0
1, 45948, Note_on_c, 0, 74, 80
1, 45959, Note_on_c, 1, 50, 0
1, 45960, Note_on_c, 0, 74, 0
1, 45960, Note_on_c, 0, 70, 80
1, 45960, Note_on_c, 1, 55, 80
1, 45972, Note_on_c, 0, 70, 0
1, 45972, Note_on_c, 0, 74, 80
1, 45983, Note_on_c, 1, 55, 0
1, 45984, Note_on_c, 0, 74, 0
1, 45984, Note_on_c, 0, 69, 80
1, 45984, Note_on_c, 1, 54, 80
1, 45996, Note_on_c, 0, 69, 0
1, 45996, Note_on_c, 0, 74, 80
1, 46007, Note_on_c, 1, 54, 0
1, 46008, Note_on_c, 0, 74, 0
1, 46008, Note_on_c, 0, 61, 80
1, 46008, Note_on_c, 1, 49, 80
1, 46020, Note_on_c, 0, 61, 0
1, 46020, Note_on_c, 0, 74, 80
1, 46031, Note_on_c, 1, 49, 0
1, 46032, Note_on_c, 0, 74, 0
1, 46032, Note_on_c, 0, 62, 80
1, 46032, Note_on_c, 1, 50, 80
1, 46044, Note_on_c, 0, 62, 0
1, 46044, Note_on_c, 0, 74, 80
1, 46055, Note_on_c, 1, 50, 0
1, 46056, Note_on_c, 0, 74, 0
1, 46056, Note_on_c, 0, 70, 80
1, 46056, Note_on_c, 1, 55, 80
1, 46068, Note_on_c, 0, 70, 0
1, 46068, Note_on_c, 0, 74, 80
1, 46079, Note_on_c, 1, 55, 0
1, 46080, Note_on_c, 0, 74, 0
1, 46080, Note_on_c, 0, 69, 80
1, 46080, Note_on_c, 1, 54, 80
1, 46092, Note_on_c, 0, 69, 0
1, 46092, Note_on_c, 0, 74, 80
1, 46103, Note_on_c, 1, 54, 0
1, 46104, Note_on_c, 0, 74, 0
1, 46104, Note_on_c, 0, 61, 80
1, 46104, Note_on_c, 1, 49, 80
1, 46116, Note_on_c, 0, 61, 0
1, 46116, Note_on_c, 0, 74, 80
1, 46127, Note_on_c, 1, 49, 0
1, 46128, Note_on_c, 0, 74, 0
1, 46128, Note_on_c, 0, 62, 80
1, 46128, Note_on_c, 1, 50, 80
1, 46140, Note_on_c, 0, 62, 0
1, 46140, Note_on_c, 0, 74, 80
1, 46151, Note_on_c, 1, 50, 0
1, 46152, Note_on_c, 0, 74, 0
1, 46152, Note_on_c, 0, 70, 80
1, 46152, Note_on_c, 1, 55, 80
1, 46164, Note_on_c, 0, 70, 0
1, 46164, Note_on_c, 0, 74, 80
1, 46175, Note_on_c, 1, 55, 0
1, 46176, Note_on_c, 0, 74, 0
1, 46176, Note_on_c, 0, 69, 80
1, 46176, Note_on_c, 1, 54, 80
1, 46176, Note_on_c, 1, 50, 80
1, 46188, Note_on_c, 0, 69, 0
1, 46188, Note_on_c, 0, 74, 80
1, 46199, Note_on_c, 1, 54, 0
1, 46200, Note_on_c, 0, 74, 0
1, 46200, Note_on_c, 0, 70, 80
1, 46200, Note_on_c, 1, 55, 80
1, 46212, Note_on_c, 0, 70, 0
1, 46212, Note_on_c, 0, 74, 80
1, 46223, Note_on_c, 1, 55, 0
1, 46224, Note_on_c, 0, 74, 0
1, 46224, Note_on_c, 0, 69, 80
1, 46224, Note_on_c, 1, 54, 80
1, 46236, Note_on_c, 0, 69, 0
1, 46236, Note_on_c, 0, 74, 80
1, 46247, Note_on_c, 1, 54, 0
1, 46248, Note_on_c, 0, 74, 0
1, 46248, Note_on_c, 0, 70, 80
1, 46248, Note_on_c, 1, 55, 80
1, 46260, Note_on_c, 0, 70, 0
1, 46260, Note_on_c, 0, 74, 80
1, 46271, Note_on_c, 1, 55, 0
1, 46272, Note_on_c, 0, 74, 0
1, 46272, Note_on_c, 0, 69, 80
1, 46272, Note_on_c, 1, 54, 80
1, 46311, Note_on_c, 0, 69, 0
1, 46311, Note_on_c, 1, 54, 0
1, 46361, Note_on_c, 1, 50, 0
1, 46464, Note_on_c, 0, 63, 64
1, 46464, Note_on_c, 1, 51, 64
1, 46464, Note_on_c, 1, 39, 64
1, 46553, Note_on_c, 0, 63, 0
1, 46560, Note_on_c, 0, 55, 64
1, 46583, Note_on_c, 0, 55, 0
1, 46584, Note_on_c, 0, 57, 64
1, 46592, Note_on_c, 0, 57, 0
1, 46592, Note_on_c, 0, 55, 64
1, 46600, Note_on_c, 0, 55, 0
1, 46600, Note_on_c, 0, 53, 64
1, 46608, Note_on_c, 0, 53, 0
1, 46608, Note_on_c, 0, 55, 64
1, 46631, Note_on_c, 0, 55, 0
1, 46632, Note_on_c, 0, 57, 64
1, 46641, Note_on_c, 1, 51, 0
1, 46641, Note_on_c, 1, 39, 0
1, 46655, Note_on_c, 0, 57, 0
1, 46656, Note_on_c, 0, 58, 64
1, 46656, Note_on_c, 1, 50, 64
1, 46656, Note_on_c, 1, 38, 64
1, 46676, Note_on_c, 0, 58, 0
1, 46704, Note_on_c, 0, 58, 64
1, 46724, Note_on_c, 0, 58, 0
1, 46752, Note_on_c, 0, 58, 64
1, 46797, Note_on_c, 0, 58, 0
1, 46800, Note_on_c, 0, 57, 64
1, 46812, Note_on_c, 0, 57, 0
1, 46812, Note_on_c, 0, 58, 64
1, 46824, Note_on_c, 0, 58, 0
1, 46824, Note_on_c, 0, 60, 64
1, 46833, Note_on_c, 1, 50, 0
1, 46833, Note_on_c, 1, 38, 0
1, 46836, Note_on_c, 0, 60, 0
1, 46836, Note_on_c, 0, 58, 64
1, 46848, Note_on_c, 0, 58, 0
1, 46848, Note_on_c, 0, 63, 64
1, 46848, Note_on_c, 1, 48, 64
1, 46848, Note_on_c, 1, 36, 64
1, 46868, Note_on_c, 0, 63, 0
1, 46887, Note_on_c, 1, 48, 0
1, 46887, Note_on_c, 1, 36, 0
1, 46896, Note_on_c, 0, 63, 67
1, 46916, Note_on_c, 0, 63, 0
1, 46944, Note_on_c, 0, 63, 71
1, 46944, Note_on_c, 1, 45, 64
1, 46944, Note_on_c, 1, 33, 64
1, 46983, Note_on_c, 1, 45, 0
1, 46983, Note_on_c, 1, 33, 0
1, 46989, Note_on_c, 0, 63, 0
1, 46992, Note_on_c, 0, 67, 75
1, 46998, Note_on_c, 0, 67, 0
1, 46998, Note_on_c, 0, 65, 75
1, 47037, Note_on_c, 0, 65, 0
1, 47040, Note_on_c, 0, 63, 72
1, 47040, Note_on_c, 1, 46, 64
1, 47040, Note_on_c, 1, 34, 64
1, 47079, Note_on_c, 1, 46, 0
1, 47079, Note_on_c, 1, 34, 0
1, 47136, Note_on_c, 1, 58, 64
1, 47175, Note_on_c, 1, 58, 0
1, 47184, Note_on_c, 0, 63, 0
1, 47184, Note_on_c, 0, 62, 66
1, 47229, Note_on_c, 0, 62, 0
1, 47232, Note_on_c, 0, 60, 80
1, 47268, Note_on_c, 1, 52, 64
1, 47280, Note_on_c, 1, 52, 0
1, 47280, Note_on_c, 1, 55, 64
1, 47314, Note_on_c, 1, 55, 0
1, 47316, Note_on_c, 1, 58, 64
1, 47328, Note_on_c, 1, 58, 0
1, 47328, Note_on_c, 1, 58, 64
1, 47362, Note_on_c, 0, 60, 0
1, 47364, Note_on_c, 0, 64, 64
1, 47376, Note_on_c, 0, 64, 0
1, 47376, Note_on_c, 0, 65, 64
1, 47376, Note_on_c, 1, 58, 0
1, 47376, Note_on_c, 1, 56, 64
1, 47410, Note_on_c, 0, 65, 0
1, 47412, Note_on_c, 0, 68, 64
1, 47421, Note_on_c, 1, 56, 0
1, 47424, Note_on_c, 0, 68, 0
1, 47424, Note_on_c, 0, 58, 80
1, 47460, Note_on_c, 1, 50, 64
1, 47472, Note_on_c, 1, 50, 0
1, 47472, Note_on_c, 1, 53, 64
1, 47506, Note_on_c, 1, 53, 0
1, 47508, Note_on_c, 1, 56, 64
1, 47520, Note_on_c, 1, 56, 0
1, 47520, Note_on_c, 1, 56, 64
1, 47554, Note_on_c, 0, 58, 0
1, 47556, Note_on_c, 0, 62, 64
1, 47568, Note_on_c, 0, 62, 0
1, 47568, Note_on_c, 0, 63, 64
1, 47568, Note_on_c, 1, 56, 0
1, 47568, Note_on_c, 1, 55, 64
1, 47602, Note_on_c, 0, 63, 0
1, 47604, Note_on_c, 0, 67, 64
1, 47613, Note_on_c, 1, 55, 0
1, 47616, Note_on_c, 0, 67, 0
1, 47616, Note_on_c, 0, 67, 64
1, 47664, Note_on_c, 0, 67, 0
1, 47664, Note_on_c, 0, 60, 67
1, 47664, Note_on_c, 1, 44, 64
1, 47698, Note_on_c, 0, 60, 0
1, 47700, Note_on_c, 0, 68, 69
1, 47709, Note_on_c, 1, 44, 0
1, 47712, Note_on_c, 0, 68, 0
1, 47712, Note_on_c, 0, 68, 70
1, 47760, Note_on_c, 1, 56, 64
1, 47760, Note_on_c, 1, 46, 64
1, 47784, Note_on_c, 0, 68, 0
1, 47784, Note_on_c, 0, 65, 68
1, 47796, Note_on_c, 0, 65, 0
1, 47796, Note_on_c, 0, 62, 67
1, 47805, Note_on_c, 1, 56, 0
1, 47805, Note_on_c, 1, 46, 0
1, 47808, Note_on_c, 0, 62, 0
1, 47808, Note_on_c, 0, 62, 67
1, 47808, Note_on_c, 1, 56, 64
1, 47808, Note_on_c, 1, 51, 64
1, 47904, Note_on_c, 0, 62, 0
1, 47904, Note_on_c, 0, 63, 65
1, 47904, Note_on_c, 1, 56, 0
1, 47904, Note_on_c, 1, 55, 64
1, 47949, Note_on_c, 0, 63, 0
1, 47949, Note_on_c, 1, 55, 0
1, 47949, Note_on_c, 1, 51, 0
1, 48000, Note_on_c, 0, 72, 80
1, 48036, Note_on_c, 1, 64, 64
1, 48048, Note_on_c, 1, 64, 0
1, 48048, Note_on_c, 1, 67, 64
1, 48082, Note_on_c, 1, 67, 0
1, 48084, Note_on_c, 1, 70, 64
1, 48096, Note_on_c, 1, 70, 0
1, 48096, Note_on_c, 1, 70, 64
1, 48130, Note_on_c, 0, 72, 0
1, 48132, Note_on_c, 0, 76, 64
1, 48144, Note_on_c, 0, 76, 0
1, 48144, Note_on_c, 0, 77, 64
1, 48144, Note_on_c, 1, 70, 0
1, 48144, Note_on_c, 1, 68, 64
1, 48178, Note_on_c, 0, 77, 0
1, 48180, Note_on_c, 0, 80, 64
1, 48189, Note_on_c, 1, 68, 0
1, 48192, Note_on_c, 0, 80, 0
1, 48192, Note_on_c, 0, 70, 80
1, 48228, Note_on_c, 1, 62, 64
1, 48240, Note_on_c, 1, 62, 0
1, 48240, Note_on_c, 1, 65, 64
1, 48274, Note_on_c, 1, 65, 0
1, 48276, Note_on_c, 1, 68, 64
1, 48288, Note_on_c, 1, 68, 0
1, 48288, Note_on_c, 1, 68, 64
1, 48322, Note_on_c, 0, 70, 0
1, 48324, Note_on_c, 0, 74, 64
1, 48336, Note_on_c, 0, 74, 0
1, 48336, Note_on_c, 0, 75, 64
1, 48336, Note_on_c, 1, 68, 0
1, 48336, Note_on_c, 1, 67, 64
1, 48370, Note_on_c, 0, 75, 0
1, 48372, Note_on_c, 0, 79, 64
1, 48381, Note_on_c, 1, 67, 0
1, 48384, Note_on_c, 0, 79, 0
1, 48384, Note_on_c, 1, 70, 64
1, 48407, Note_on_c, 1, 70, 0
1, 48408, Note_on_c, 0, 75, 64
1, 48408, Note_on_c, 1, 67, 64
1, 48420, Note_on_c, 1, 67, 0
1, 48420, Note_on_c, 1, 70, 64
1, 48431, Note_on_c, 0, 75, 0
1, 48432, Note_on_c, 0, 74, 65
1, 48432, Note_on_c, 1, 70, 0
1, 48432, Note_on_c, 1, 65, 65
1, 48444, Note_on_c, 1, 65, 0
1, 48444, Note_on_c, 1, 70, 65
1, 48455, Note_on_c, 0, 74, 0
1, 48456, Note_on_c, 0, 79, 65
1, 48456, Note_on_c, 1, 70, 0
1, 48456, Note_on_c, 1, 63, 65
1, 48468, Note_on_c, 1, 63, 0
1, 48468, Note_on_c, 1, 70, 66
1, 48479, Note_on_c, 0, 79, 0
1, 48480, Note_on_c, 0, 77, 66
1, 48480, Note_on_c, 1, 70, 0
1, 48480, Note_on_c, 1, 62, 66
1, 48503, Note_on_c, 0, 77, 0
1, 48503, Note_on_c, 1, 62, 0
1, 48504, Note_on_c, 0, 75, 66
1, 48504, Note_on_c, 1, 67, 66
1, 48516, Note_on_c, 1, 67, 0
1, 48516, Note_on_c, 1, 70, 67
1, 48527, Note_on_c, 0, 75, 0
1, 48528, Note_on_c, 0, 74, 67
1, 48528, Note_on_c, 1, 70, 0
1, 48528, Note_on_c, 1, 65, 67
1, 48540, Note_on_c, 1, 65, 0
1, 48540, Note_on_c, 1, 70, 67
1, 48551, Note_on_c, 0, 74, 0
1, 48552, Note_on_c, 0, 79, 68
1, 48552, Note_on_c, 1, 70, 0
1, 48552, Note_on_c, 1, 63, 68
1, 48564, Note_on_c, 1, 63, 0
1, 48564, Note_on_c, 1, 70, 68
1, 48575, Note_on_c, 0, 79, 0
1, 48576, Note_on_c, 0, 77, 68
1, 48576, Note_on_c, 1, 70, 0
1, 48576, Note_on_c, 1, 62, 68
1, 48599, Note_on_c, 0, 77, 0
1, 48599, Note_on_c, 1, 62, 0
1, 48600, Note_on_c, 0, 72, 69
1, 48600, Note_on_c, 1, 68, 69
1, 48612, Note_on_c, 0, 72, 0
1, 48612, Note_on_c, 0, 75, 69
1, 48623, Note_on_c, 1, 68, 0
1, 48624, Note_on_c, 0, 75, 0
1, 48624, Note_on_c, 0, 70, 69
1, 48624, Note_on_c, 1, 67, 69
1, 48636, Note_on_c, 0, 70, 0
1, 48636, Note_on_c, 0, 75, 70
1, 48647, Note_on_c, 1, 67, 0
1, 48648, Note_on_c, 0, 75, 0
1, 48648, Note_on_c, 0, 68, 70
1, 48648, Note_on_c, 1, 65, 70
1, 48660, Note_on_c, 0, 68, 0
1, 48660, Note_on_c, 0, 75, 70
1, 48671, Note_on_c, 1, 65, 0
1, 48672, Note_on_c, 0, 75, 0
1, 48672, Note_on_c, 0, 67, 70
1, 48672, Note_on_c, 1, 63, 70
1, 48695, Note_on_c, 0, 67, 0
1, 48695, Note_on_c, 1, 63, 0
1, 48696, Note_on_c, 0, 72, 71
1, 48696, Note_on_c, 1, 68, 71
1, 48708, Note_on_c, 0, 72, 0
1, 48708, Note_on_c, 0, 75, 71
1, 48719, Note_on_c, 1, 68, 0
1, 48720, Note_on_c, 0, 75, 0
1, 48720, Note_on_c, 0, 70, 72
1, 48720, Note_on_c, 1, 67, 72
1, 48732, Note_on_c, 0, 70, 0
1, 48732, Note_on_c, 0, 75, 72
1, 48743, Note_on_c, 1, 67, 0
1, 48744, Note_on_c, 0, 75, 0
1, 48744, Note_on_c, 0, 68, 72
1, 48744, Note_on_c, 1, 65, 72
1, 48756, Note_on_c, 0, 68, 0
1, 48756, Note_on_c, 0, 75, 72
1, 48767, Note_on_c, 1, 65, 0
1, 48768, Note_on_c, 0, 75, 0
1, 48768, Note_on_c, 0, 67, 73
1, 48768, Note_on_c, 1, 63, 73
1, 48780, Note_on_c, 0, 67, 0
1, 48780, Note_on_c, 0, 75, 73
1, 48791, Note_on_c, 1, 63, 0
1, 48792, Note_on_c, 0, 75, 0
1, 48792, Note_on_c, 0, 68, 73
1, 48792, Note_on_c, 1, 65, 73
1, 48804, Note_on_c, 0, 68, 0
1, 48804, Note_on_c, 0, 75, 74
1, 48815, Note_on_c, 1, 65, 0
1, 48816, Note_on_c, 0, 75, 0
1, 48816, Note_on_c, 0, 67, 74
1, 48816, Note_on_c, 1, 63, 74
1, 48828, Note_on_c, 0, 67, 0
1, 48828, Note_on_c, 0, 75, 74
1, 48839, Note_on_c, 1, 63, 0
1, 48840, Note_on_c, 0, 75, 0
1, 48840, Note_on_c, 0, 65, 74
1, 48840, Note_on_c, 1, 61, 74
1, 48852, Note_on_c, 0, 65, 0
1, 48852, Note_on_c, 0, 75, 75
1, 48863, Note_on_c, 1, 61, 0
1, 48864, Note_on_c, 0, 75, 0
1, 48864, Note_on_c, 0, 63, 75
1, 48864, Note_on_c, 1, 60, 75
1, 48876, Note_on_c, 0, 63, 0
1, 48876, Note_on_c, 0, 75, 75
1, 48887, Note_on_c, 1, 60, 0
1, 48888, Note_on_c, 0, 75, 0
1, 48888, Note_on_c, 0, 65, 76
1, 48888, Note_on_c, 1, 61, 76
1, 48900, Note_on_c, 0, 65, 0
1, 48900, Note_on_c, 0, 75, 76
1, 48911, Note_on_c, 1, 61, 0
1, 48912, Note_on_c, 0, 75, 0
1, 48912, Note_on_c, 0, 63, 76
1, 48912, Note_on_c, 1, 60, 76
1, 48924, Note_on_c, 0, 63, 0
1, 48924, Note_on_c, 0, 75, 76
1, 48935, Note_on_c, 1, 60, 0
1, 48936, Note_on_c, 0, 75, 0
1, 48936, Note_on_c, 0, 61, 77
1, 48936, Note_on_c, 1, 58, 77
1, 48948, Note_on_c, 0, 61, 0
1, 48948, Note_on_c, 0, 75, 77
1, 48959, Note_on_c, 1, 58, 0
1, 48960, Note_on_c, 0, 75, 0
1, 48960, Note_on_c, 0, 60, 77
1, 48960, Note_on_c, 1, 56, 77
1, 48983, Note_on_c, 0, 60, 0
1, 48984, Note_on_c, 0, 62, 78
1, 48996, Note_on_c, 0, 62, 0
1, 48996, Note_on_c, 0, 64, 78
1, 49008, Note_on_c, 0, 64, 0
1, 49008, Note_on_c, 0, 65, 78
1, 49020, Note_on_c, 0, 65, 0
1, 49020, Note_on_c, 0, 67, 79
1, 49032, Note_on_c, 0, 67, 0
1, 49032, Note_on_c, 0, 68, 79
1, 49044, Note_on_c, 0, 68, 0
1, 49044, Note_on_c, 0, 70, 79
1, 49049, Note_on_c, 1, 56, 0
1, 49056, Note_on_c, 0, 70, 0
1, 49056, Note_on_c, 0, 72, 80
1, 49090, Note_on_c, 0, 72, 0
1, 49092, Note_on_c, 0, 67, 80
1, 49104, Note_on_c, 0, 67, 0
1, 49104, Note_on_c, 0, 68, 80
1, 49138, Note_on_c, 0, 68, 0
1, 49140, Note_on_c, 0, 64, 80
1, 49152, Note_on_c, 0, 64, 0
1, 49152, Note_on_c, 0, 65, 80
1, 49152, Note_on_c, 1, 53, 80
1, 49152, Note_on_c, 1, 48, 80
1, 49152, Note_on_c, 1, 44, 80
1, 49186, Note_on_c, 0, 65, 0
1, 49188, Note_on_c, 0, 67, 80
1, 49194, Note_on_c, 0, 67, 0
1, 49194, Note_on_c, 0, 68, 80
1, 49200, Note_on_c, 0, 68, 0
1, 49200, Note_on_c, 0, 70, 80
1, 49206, Note_on_c, 0, 70, 0
1, 49206, Note_on_c, 0, 72, 80
1, 49212, Note_on_c, 0, 72, 0
1, 49212, Note_on_c, 0, 74, 80
1, 49218, Note_on_c, 0, 74, 0
1, 49218, Note_on_c, 0, 76, 80
1, 49224, Note_on_c, 0, 76, 0
1, 49224, Note_on_c, 0, 77, 80
1, 49230, Note_on_c, 0, 77, 0
1, 49230, Note_on_c, 0, 79, 80
1, 49236, Note_on_c, 0, 79, 0
1, 49236, Note_on_c, 0, 80, 80
1, 49241, Note_on_c, 1, 53, 0
1, 49241, Note_on_c, 1, 48, 0
1, 49241, Note_on_c, 1, 44, 0
1, 49242, Note_on_c, 0, 80, 0
1, 49242, Note_on_c, 0, 82, 80
1, 49248, Note_on_c, 0, 82, 0
1, 49248, Note_on_c, 0, 84, 80
1, 49282, Note_on_c, 0, 84, 0
1, 49284, Note_on_c, 0, 79, 80
1, 49296, Note_on_c, 0, 79, 0
1, 49296, Note_on_c, 0, 82, 80
1, 49308, Note_on_c, 0, 82, 0
1, 49308, Note_on_c, 0, 80, 80
1, 49320, Note_on_c, 0, 80, 0
1, 49320, Note_on_c, 0, 79, 80
1, 49332, Note_on_c, 0, 79, 0
1, 49332, Note_on_c, 0, 77, 78
1, 49344, Note_on_c, 0, 77, 0
1, 49344, Note_on_c, 0, 75, 77
1, 49344, Note_on_c, 1, 67, 80
1, 49344, Note_on_c, 1, 58, 80
1, 49440, Note_on_c, 0, 75, 0
1, 49440, Note_on_c, 0, 74, 68
1, 49440, Note_on_c, 1, 67, 0
1, 49440, Note_on_c, 1, 65, 69
1, 49485, Note_on_c, 0, 74, 0
1, 49485, Note_on_c, 1, 65, 0
1, 49485, Note_on_c, 1, 58, 0
1, 49536, Note_on_c, 0, 63, 75
1, 49536, Note_on_c, 0, 55, 75
1, 49536, Note_on_c, 1, 51, 75
1, 49536, Note_on_c, 1, 39, 75
1, 49559, Note_on_c, 0, 63, 0
1, 49559, Note_on_c, 0, 55, 0
1, 49560, Note_on_c, 0, 58, 75
1, 49568, Note_on_c, 0, 58, 0
1, 49568, Note_on_c, 0, 60, 75
1, 49576, Note_on_c, 0, 60, 0
1, 49576, Note_on_c, 0, 58, 75
1, 49581, Note_on_c, 1, 51, 0
1, 49581, Note_on_c, 1, 39, 0
1, 49584, Note_on_c, 0, 58, 0
1, 49584, Note_on_c, 0, 63, 75
1, 49607, Note_on_c, 0, 63, 0
1, 49608, Note_on_c, 0, 55, 75
1, 49608, Note_on_c, 1, 51, 75
1, 49620, Note_on_c, 0, 55, 0
1, 49620, Note_on_c, 0, 63, 75
1, 49631, Note_on_c, 1, 51, 0
1, 49632, Note_on_c, 0, 63, 0
1, 49632, Note_on_c, 0, 56, 75
1, 49632, Note_on_c, 1, 53, 75
1, 49644, Note_on_c, 0, 56, 0
1, 49644, Note_on_c, 0, 63, 75
1, 49655, Note_on_c, 1, 53, 0
1, 49656, Note_on_c, 0, 63, 0
1, 49656, Note_on_c, 0, 55, 75
1, 49656, Note_on_c, 1, 51, 75
1, 49668, Note_on_c, 0, 55, 0
1, 49668, Note_on_c, 0, 63, 75
1, 49679, Note_on_c, 1, 51, 0
1, 49680, Note_on_c, 0, 63, 0
1, 49680, Note_on_c, 0, 56, 75
1, 49680, Note_on_c, 1, 53, 75
1, 49692, Note_on_c, 0, 56, 0
1, 49692, Note_on_c, 0, 63, 75
1, 49703, Note_on_c, 1, 53, 0
1, 49704, Note_on_c, 0, 63, 0
1, 49704, Note_on_c, 0, 58, 75
1, 49704, Note_on_c, 1, 55, 75
1, 49716, Note_on_c, 0, 58, 0
1, 49716, Note_on_c, 0, 63, 75
1, 49727, Note_on_c, 1, 55, 0
1, 49728, Note_on_c, 0, 63, 0
1, 49728, Note_on_c, 0, 60, 75
1, 49728, Note_on_c, 1, 56, 75
1, 49751, Note_on_c, 0, 60, 0
1, 49752, Note_on_c, 0, 68, 75
1, 49752, Note_on_c, 0, 60, 75
1, 49775, Note_on_c, 0, 68, 0
1, 49775, Note_on_c, 0, 60, 0
1, 49776, Note_on_c, 0, 68, 75
1, 49776, Note_on_c, 0, 60, 75
1, 49799, Note_on_c, 0, 68, 0
1, 49799, Note_on_c, 0, 60, 0
1, 49800, Note_on_c, 0, 68, 75
1, 49800, Note_on_c, 0, 60, 75
1, 49817, Note_on_c, 1, 56, 0
1, 49823, Note_on_c, 0, 68, 0
1, 49823, Note_on_c, 0, 60, 0
1, 49824, Note_on_c, 0, 68, 75
1, 49824, Note_on_c, 0, 60, 75
1, 49848, Note_on_c, 0, 68, 0
1, 49848, Note_on_c, 0, 60, 0
1, 49848, Note_on_c, 0, 67, 75
1, 49848, Note_on_c, 0, 58, 75
1, 49871, Note_on_c, 0, 67, 0
1, 49871, Note_on_c, 0, 58, 0
1, 49872, Note_on_c, 0, 67, 75
1, 49872, Note_on_c, 0, 58, 75
1, 49896, Note_on_c, 0, 67, 0
1, 49896, Note_on_c, 0, 58, 0
1, 49896, Note_on_c, 0, 65, 75
1, 49896, Note_on_c, 0, 56, 75
1, 49919, Note_on_c, 0, 65, 0
1, 49919, Note_on_c, 0, 56, 0
1, 49920, Note_on_c, 0, 63, 75
1, 49920, Note_on_c, 0, 55, 75
1, 49920, Note_on_c, 1, 51, 75
1, 49920, Note_on_c, 1, 39, 75
1, 49943, Note_on_c, 0, 63, 0
1, 49943, Note_on_c, 0, 55, 0
1, 49944, Note_on_c, 0, 58, 75
1, 49952, Note_on_c, 0, 58, 0
1, 49952, Note_on_c, 0, 60, 75
1, 49960, Note_on_c, 0, 60, 0
1, 49960, Note_on_c, 0, 58, 75
1, 49965, Note_on_c, 1, 51, 0
1, 49965, Note_on_c, 1, 39, 0
1, 49968, Note_on_c, 0, 58, 0
1, 49968, Note_on_c, 0, 63, 75
1, 49991, Note_on_c, 0, 63, 0
1, 49992, Note_on_c, 0, 55, 75
1, 49992, Note_on_c, 1, 51, 75
1, 50004, Note_on_c, 0, 55, 0
1, 50004, Note_on_c, 0, 63, 75
1, 50015, Note_on_c, 1, 51, 0
1, 50016, Note_on_c, 0, 63, 0
1, 50016, Note_on_c, 0, 56, 75
1, 50016, Note_on_c, 1, 41, 75
1, 50028, Note_on_c, 0, 56, 0
1, 50028, Note_on_c, 0, 63, 75
1, 50039, Note_on_c, 1, 41, 0
1, 50040, Note_on_c, 0, 63, 0
1, 50040, Note_on_c, 0, 55, 75
1, 50040, Note_on_c, 1, 39, 75
1, 50052, Note_on_c, 0, 55, 0
1, 50052, Note_on_c, 0, 63, 75
1, 50063, Note_on_c, 1, 39, 0
1, 50064, Note_on_c, 0, 63, 0
1, 50064, Note_on_c, 0, 56, 75
1, 50064, Note_on_c, 1, 41, 75
1, 50076, Note_on_c, 0, 56, 0
1, 50076, Note_on_c, 0, 63, 75
1, 50087, Note_on_c, 1, 41, 0
1, 50088, Note_on_c, 0, 63, 0
1, 50088, Note_on_c, 0, 58, 75
1, 50088, Note_on_c, 1, 43, 75
1, 50100, Note_on_c, 0, 58, 0
1, 50100, Note_on_c, 0, 63, 75
1, 50111, Note_on_c, 1, 43, 0
1, 50112, Note_on_c, 0, 63, 0
1, 50112, Note_on_c, 0, 60, 75
1, 50112, Note_on_c, 1, 44, 75
1, 50135, Note_on_c, 0, 60, 0
1, 50136, Note_on_c, 0, 72, 75
1, 50136, Note_on_c, 0, 68, 75
1, 50159, Note_on_c, 0, 72, 0
1, 50159, Note_on_c, 0, 68, 0
1, 50160, Note_on_c, 0, 72, 75
1, 50160, Note_on_c, 0, 68, 75
1, 50183, Note_on_c, 0, 72, 0
1, 50183, Note_on_c, 0, 68, 0
1, 50184, Note_on_c, 0, 72, 75
1, 50184, Note_on_c, 0, 68, 75
1, 50201, Note_on_c, 1, 44, 0
1, 50207, Note_on_c, 0, 72, 0
1, 50207, Note_on_c, 0, 68, 0
1, 50208, Note_on_c, 0, 72, 75
1, 50208, Note_on_c, 0, 68, 75
1, 50232, Note_on_c, 0, 72, 0
1, 50232, Note_on_c, 0, 68, 0
1, 50232, Note_on_c, 0, 70, 75
1, 50232, Note_on_c, 0, 67, 75
1, 50255, Note_on_c, 0, 70, 0
1, 50255, Note_on_c, 0, 67, 0
1, 50256, Note_on_c, 0, 70, 75
1, 50256, Note_on_c, 0, 67, 75
1, 50280, Note_on_c, 0, 70, 0
1, 50280, Note_on_c, 0, 67, 0
1, 50280, Note_on_c, 0, 68, 75
1, 50280, Note_on_c, 0, 65, 75
1, 50303, Note_on_c, 0, 68, 0
1, 50303, Note_on_c, 0, 65, 0
1, 50304, Note_on_c, 0, 67, 75
1, 50304, Note_on_c, 0, 63, 75
1, 50304, Note_on_c, 1, 51, 75
1, 50304, Note_on_c, 1, 39, 75
1, 50327, Note_on_c, 0, 67, 0
1, 50327, Note_on_c, 0, 63, 0
1, 50328, Note_on_c, 0, 70, 75
1, 50336, Note_on_c, 0, 70, 0
1, 50336, Note_on_c, 0, 72, 75
1, 50344, Note_on_c, 0, 72, 0
1, 50344, Note_on_c, 0, 70, 75
1, 50349, Note_on_c, 1, 51, 0
1, 50349, Note_on_c, 1, 39, 0
1, 50352, Note_on_c, 0, 70, 0
1, 50352, Note_on_c, 0, 75, 75
1, 50375, Note_on_c, 0, 75, 0
1, 50376, Note_on_c, 0, 70, 75
1, 50376, Note_on_c, 1, 67, 75
1, 50388, Note_on_c, 0, 70, 0
1, 50388, Note_on_c, 0, 75, 75
1, 50399, Note_on_c, 1, 67, 0
1, 50400, Note_on_c, 0, 75, 0
1, 50400, Note_on_c, 0, 72, 75
1, 50400, Note_on_c, 1, 68, 75
1, 50412, Note_on_c, 0, 72, 0
1, 50412, Note_on_c, 0, 75, 75
1, 50423, Note_on_c, 1, 68, 0
1, 50424, Note_on_c, 0, 75, 0
1, 50424, Note_on_c, 0, 70, 75
1, 50424, Note_on_c, 1, 67, 75
1, 50436, Note_on_c, 0, 70, 0
1, 50436, Note_on_c, 0, 75, 75
1, 50447, Note_on_c, 1, 67, 0
1, 50448, Note_on_c, 0, 75, 0
1, 50448, Note_on_c, 0, 72, 75
1, 50448, Note_on_c, 1, 68, 75
1, 50460, Note_on_c, 0, 72, 0
1, 50460, Note_on_c, 0, 75, 75
1, 50471, Note_on_c, 1, 68, 0
1, 50472, Note_on_c, 0, 75, 0
1, 50472, Note_on_c, 0, 73, 75
1, 50472, Note_on_c, 1, 70, 75
1, 50484, Note_on_c, 0, 73, 0
1, 50484, Note_on_c, 0, 75, 75
1, 50495, Note_on_c, 1, 70, 0
1, 50496, Note_on_c, 0, 75, 0
1, 50496, Note_on_c, 0, 72, 75
1, 50496, Note_on_c, 1, 68, 75
1, 50519, Note_on_c, 0, 72, 0
1, 50520, Note_on_c, 0, 80, 75
1, 50530, Note_on_c, 0, 80, 0
1, 50544, Note_on_c, 0, 80, 75
1, 50554, Note_on_c, 0, 80, 0
1, 50568, Note_on_c, 0, 80, 75
1, 50578, Note_on_c, 0, 80, 0
1, 50585, Note_on_c, 1, 68, 0
1, 50592, Note_on_c, 0, 80, 75
1, 50604, Note_on_c, 0, 80, 0
1, 50604, Note_on_c, 0, 82, 75
1, 50616, Note_on_c, 0, 82, 0
1, 50616, Note_on_c, 0, 80, 75
1, 50628, Note_on_c, 0, 80, 0
1, 50628, Note_on_c, 0, 79, 75
1, 50640, Note_on_c, 0, 79, 0
1, 50640, Note_on_c, 0, 77, 75
1, 50652, Note_on_c, 0, 77, 0
1, 50652, Note_on_c, 0, 75, 75
1, 50664, Note_on_c, 0, 75, 0
1, 50664, Note_on_c, 0, 74, 75
1, 50676, Note_on_c, 0, 74, 0
1, 50676, Note_on_c, 0, 72, 75
1, 50688, Note_on_c, 0, 72, 0
1, 50688, Note_on_c, 0, 70, 75
1, 50712, Note_on_c, 1, 68, 70
1, 50712, Note_on_c, 1, 62, 70
1, 50722, Note_on_c, 1, 68, 0
1, 50722, Note_on_c, 1, 62, 0
1, 50733, Note_on_c, 0, 70, 0
1, 50736, Note_on_c, 1, 68, 70
1, 50736, Note_on_c, 1, 62, 70
1, 50746, Note_on_c, 1, 68, 0
1, 50746, Note_on_c, 1, 62, 0
1, 50760, Note_on_c, 1, 68, 70
1, 50760, Note_on_c, 1, 62, 70
1, 50770, Note_on_c, 1, 68, 0
1, 50770, Note_on_c, 1, 62, 0
1, 50784, Note_on_c, 1, 67, 70
1, 50784, Note_on_c, 1, 63, 70
1, 50808, Note_on_c, 0, 79, 75
1, 50820, Note_on_c, 0, 79, 0
1, 50820, Note_on_c, 0, 77, 75
1, 50829, Note_on_c, 1, 67, 0
1, 50829, Note_on_c, 1, 63, 0
1, 50832, Note_on_c, 0, 77, 0
1, 50832, Note_on_c, 0, 75, 75
1, 50844, Note_on_c, 0, 75, 0
1, 50844, Note_on_c, 0, 74, 75
1, 50856, Note_on_c, 0, 74, 0
1, 50856, Note_on_c, 0, 72, 75
1, 50868, Note_on_c, 0, 72, 0
1, 50868, Note_on_c, 0, 70, 75
1, 50880, Note_on_c, 0, 70, 0
1, 50880, Note_on_c, 0, 68, 75
1, 50904, Note_on_c, 1, 67, 64
1, 50904, Note_on_c, 1, 60, 64
1, 50914, Note_on_c, 1, 67, 0
1, 50914, Note_on_c, 1, 60, 0
1, 50925, Note_on_c, 0, 68, 0
1, 50928, Note_on_c, 1, 67, 64
1, 50928, Note_on_c, 1, 60, 64
1, 50938, Note_on_c, 1, 67, 0
1, 50938, Note_on_c, 1, 60, 0
1, 50952, Note_on_c, 1, 67, 64
1, 50952, Note_on_c, 1, 60, 64
1, 50962, Note_on_c, 1, 67, 0
1, 50962, Note_on_c, 1, 60, 0
1, 50976, Note_on_c, 1, 65, 64
1, 50976, Note_on_c, 1, 62, 64
1, 51000, Note_on_c, 0, 77, 75
1, 51012, Note_on_c, 0, 77, 0
1, 51012, Note_on_c, 0, 75, 75
1, 51021, Note_on_c, 1, 65, 0
1, 51021, Note_on_c, 1, 62, 0
1, 51024, Note_on_c, 0, 75, 0
1, 51024, Note_on_c, 0, 74, 75
1, 51036, Note_on_c, 0, 74, 0
1, 51036, Note_on_c, 0, 72, 75
1, 51048, Note_on_c, 0, 72, 0
1, 51048, Note_on_c, 0, 70, 75
1, 51060, Note_on_c, 0, 70, 0
1, 51060, Note_on_c, 0, 68, 75
1, 51072, Note_on_c, 0, 68, 0
1, 51072, Note_on_c, 0, 67, 75
1, 51096, Note_on_c, 1, 65, 64
1, 51096, Note_on_c, 1, 59, 64
1, 51106, Note_on_c, 1, 65, 0
1, 51106, Note_on_c, 1, 59, 0
1, 51117, Note_on_c, 0, 67, 0
1, 51120, Note_on_c, 1, 65, 64
1, 51120, Note_on_c, 1, 59, 64
1, 51130, Note_on_c, 1, 65, 0
1, 51130, Note_on_c, 1, 59, 0
1, 51144, Note_on_c, 1, 65, 64
1, 51144, Note_on_c, 1, 59, 64
1, 51154, Note_on_c, 1, 65, 0
1, 51154, Note_on_c, 1, 59, 0
1, 51168, Note_on_c, 1, 63, 64
1, 51168, Note_on_c, 1, 60, 64
1, 51192, Note_on_c, 0, 75, 75
1, 51204, Note_on_c, 0, 75, 0
1, 51204, Note_on_c, 0, 74, 75
1, 51213, Note_on_c, 1, 63, 0
1, 51213, Note_on_c, 1, 60, 0
1, 51216, Note_on_c, 0, 74, 0
1, 51216, Note_on_c, 0, 72, 75
1, 51228, Note_on_c, 0, 72, 0
1, 51228, Note_on_c, 0, 70, 75
1, 51240, Note_on_c, 0, 70, 0
1, 51240, Note_on_c, 0, 68, 75
1, 51252, Note_on_c, 0, 68, 0
1, 51252, Note_on_c, 0, 67, 75
1, 51264, Note_on_c, 0, 67, 0
1, 51264, Note_on_c, 0, 65, 75
1, 51288, Note_on_c, 1, 63, 75
1, 51309, Note_on_c, 0, 65, 0
1, 51312, Note_on_c, 1, 63, 0
1, 51312, Note_on_c, 1, 57, 75
1, 51335, Note_on_c, 1, 57, 0
1, 51336, Note_on_c, 0, 75, 75
1, 51360, Note_on_c, 0, 75, 0
1, 51360, Note_on_c, 0, 67, 75
1, 51383, Note_on_c, 0, 67, 0
1, 51384, Note_on_c, 1, 63, 76
1, 51408, Note_on_c, 1, 63, 0
1, 51408, Note_on_c, 1, 58, 76
1, 51431, Note_on_c, 1, 58, 0
1, 51432, Note_on_c, 0, 75, 76
1, 51456, Note_on_c, 0, 75, 0
1, 51456, Note_on_c, 0, 68, 77
1, 51479, Note_on_c, 0, 68, 0
1, 51480, Note_on_c, 1, 63, 77
1, 51504, Note_on_c, 1, 63, 0
1, 51504, Note_on_c, 1, 60, 77
1, 51527, Note_on_c, 1, 60, 0
1, 51528, Note_on_c, 0, 75, 78
1, 51552, Note_on_c, 0, 75, 0
1, 51552, Note_on_c, 0, 67, 78
1, 51575, Note_on_c, 0, 67, 0
1, 51576, Note_on_c, 1, 63, 78
1, 51600, Note_on_c, 1, 63, 0
1, 51600, Note_on_c, 1, 58, 79
1, 51623, Note_on_c, 1, 58, 0
1, 51624, Note_on_c, 0, 75, 79
1, 51647, Note_on_c, 0, 75, 0
1, 51648, Note_on_c, 0, 65, 79
1, 51648, Note_on_c, 1, 57, 79
1, 51660, Note_on_c, 0, 65, 0
1, 51660, Note_on_c, 0, 75, 80
1, 51671, Note_on_c, 1, 57, 0
1, 51672, Note_on_c, 0, 75, 0
1, 51672, Note_on_c, 0, 66, 80
1, 51672, Note_on_c, 1, 58, 80
1, 51684, Note_on_c, 0, 66, 0
1, 51684, Note_on_c, 0, 75, 80
1, 51695, Note_on_c, 1, 58, 0
1, 51696, Note_on_c, 0, 75, 0
1, 51696, Note_on_c, 0, 65, 80
1, 51696, Note_on_c, 1, 57, 80
1, 51708, Note_on_c, 0, 65, 0
1, 51708, Note_on_c, 0, 75, 80
1, 51719, Note_on_c, 1, 57, 0
1, 51720, Note_on_c, 0, 75, 0
1, 51720, Note_on_c, 0, 66, 80
1, 51720, Note_on_c, 1, 58, 80
1, 51732, Note_on_c, 0, 66, 0
1, 51732, Note_on_c, 0, 75, 80
1, 51743, Note_on_c, 1, 58, 0
1, 51744, Note_on_c, 0, 75, 0
1, 51744, Note_on_c, 0, 65, 80
1, 51744, Note_on_c, 1, 57, 80
1, 51767, Note_on_c, 0, 65, 0
1, 51768, Note_on_c, 0, 75, 80
1, 51789, Note_on_c, 1, 57, 0
1, 51791, Note_on_c, 0, 75, 0
1, 51792, Note_on_c, 0, 75, 80
1, 51815, Note_on_c, 0, 75, 0
1, 51816, Note_on_c, 0, 75, 80
1, 51816, Note_on_c, 1, 65, 80
1, 51816, Note_on_c, 1, 57, 80
1, 51839, Note_on_c, 0, 75, 0
1, 51840, Note_on_c, 0, 75, 80
1, 51840, Note_on_c, 1, 65, 0
1, 51840, Note_on_c, 1, 57, 0
1, 51840, Note_on_c, 1, 65, 80
1, 51840, Note_on_c, 1, 58, 80
1, 51852, Note_on_c, 0, 75, 0
1, 51852, Note_on_c, 0, 74, 79
1, 51864, Note_on_c, 0, 74, 0
1, 51864, Note_on_c, 0, 72, 78
1, 51876, Note_on_c, 0, 72, 0
1, 51876, Note_on_c, 0, 70, 78
1, 51885, Note_on_c, 1, 65, 0
1, 51885, Note_on_c, 1, 58, 0
1, 51888, Note_on_c, 0, 70, 0
1, 51888, Note_on_c, 0, 70, 77
1, 51898, Note_on_c, 0, 70, 0
1, 51912, Note_on_c, 0, 75, 76
1, 51912, Note_on_c, 1, 65, 77
1, 51912, Note_on_c, 1, 57, 77
1, 51935, Note_on_c, 0, 75, 0
1, 51936, Note_on_c, 0, 75, 74
1, 51936, Note_on_c, 1, 65, 0
1, 51936, Note_on_c, 1, 57, 0
1, 51936, Note_on_c, 1, 65, 76
1, 51936, Note_on_c, 1, 58, 76
1, 51948, Note_on_c, 0, 75, 0
1, 51948, Note_on_c, 0, 74, 74
1, 51960, Note_on_c, 0, 74, 0
1, 51960, Note_on_c, 0, 72, 73
1, 51972, Note_on_c, 0, 72, 0
1, 51972, Note_on_c, 0, 70, 72
1, 51981, Note_on_c, 1, 65, 0
1, 51981, Note_on_c, 1, 58, 0
1, 51984, Note_on_c, 0, 70, 0
1, 51984, Note_on_c, 0, 70, 72
1, 51994, Note_on_c, 0, 70, 0
1, 52008, Note_on_c, 0, 75, 70
1, 52008, Note_on_c, 1, 65, 73
1, 52008, Note_on_c, 1, 57, 73
1, 52031, Note_on_c, 0, 75, 0
1, 52032, Note_on_c, 0, 75, 69
1, 52032, Note_on_c, 1, 65, 0
1, 52032, Note_on_c, 1, 57, 0
1, 52032, Note_on_c, 1, 65, 72
1, 52032, Note_on_c, 1, 58, 72
1, 52044, Note_on_c, 0, 75, 0
1, 52044, Note_on_c, 0, 74, 68
1, 52056, Note_on_c, 0, 74, 0
1, 52056, Note_on_c, 0, 72, 68
1, 52068, Note_on_c, 0, 72, 0
1, 52068, Note_on_c, 0, 70, 67
1, 52077, Note_on_c, 1, 65, 0
1, 52077, Note_on_c, 1, 58, 0
1, 52080, Note_on_c, 0, 70, 0
1, 52080, Note_on_c, 0, 70, 66
1, 52100, Note_on_c, 0, 70, 0
1, 52104, Note_on_c, 1, 34, 64
1, 52116, Note_on_c, 1, 34, 0
1, 52116, Note_on_c, 1, 46, 66
1, 52128, Note_on_c, 1, 46, 0
1, 52128, Note_on_c, 1, 36, 68
1, 52140, Note_on_c, 1, 36, 0
1, 52140, Note_on_c, 1, 48, 70
1, 52152, Note_on_c, 1, 48, 0
1, 52152, Note_on_c, 1, 34, 72
1, 52164, Note_on_c, 1, 34, 0
1, 52164, Note_on_c, 1, 46, 75
1, 52176, Note_on_c, 1, 46, 0
1, 52176, Note_on_c, 1, 36, 77
1, 52188, Note_on_c, 1, 36, 0
1, 52188, Note_on_c, 1, 48, 79
1, 52200, Note_on_c, 1, 48, 0
1, 52200, Note_on_c, 1, 38, 81
1, 52212, Note_on_c, 1, 38, 0
1, 52212, Note_on_c, 1, 50, 83
1, 52224, Note_on_c, 0, 63, 75
1, 52224, Note_on_c, 0, 55, 75
1, 52224, Note_on_c, 1, 50, 0
1, 52224, Note_on_c, 1, 39, 86
1, 52247, Note_on_c, 1, 39, 0
1, 52248, Note_on_c, 1, 51, 86
1, 52271, Note_on_c, 1, 51, 0
1, 52272, Note_on_c, 1, 51, 86
1, 52291, Note_on_c, 0, 63, 0
1, 52291, Note_on_c, 0, 55, 0
1, 52295, Note_on_c, 1, 51, 0
1, 52296, Note_on_c, 0, 68, 75
1, 52296, Note_on_c, 0, 60, 75
1, 52296, Note_on_c, 1, 51, 86
1, 52319, Note_on_c, 0, 68, 0
1, 52319, Note_on_c, 0, 60, 0
1, 52319, Note_on_c, 1, 51, 0
1, 52320, Note_on_c, 0, 68, 75
1, 52320, Note_on_c, 0, 60, 75
1, 52320, Note_on_c, 1, 51, 86
1, 52343, Note_on_c, 1, 51, 0
1, 52344, Note_on_c, 0, 68, 0
1, 52344, Note_on_c, 0, 60, 0
1, 52344, Note_on_c, 0, 67, 75
1, 52344, Note_on_c, 0, 58, 75
1, 52344, Note_on_c, 1, 51, 86
1, 52367, Note_on_c, 0, 67, 0
1, 52367, Note_on_c, 0, 58, 0
1, 52367, Note_on_c, 1, 51, 0
1, 52368, Note_on_c, 0, 67, 75
1, 52368, Note_on_c, 0, 58, 75
1, 52368, Note_on_c, 1, 51, 86
1, 52391, Note_on_c, 1, 51, 0
1, 52392, Note_on_c, 0, 67, 0
1, 52392, Note_on_c, 0, 58, 0
1, 52392, Note_on_c, 0, 65, 75
1, 52392, Note_on_c, 0, 56, 75
1, 52392, Note_on_c, 1, 51, 86
1, 52415, Note_on_c, 0, 65, 0
1, 52415, Note_on_c, 0, 56, 0
1, 52415, Note_on_c, 1, 51, 0
1, 52416, Note_on_c, 0, 63, 75
1, 52416, Note_on_c, 0, 55, 75
1, 52416, Note_on_c, 1, 39, 86
1, 52439, Note_on_c, 1, 39, 0
1, 52440, Note_on_c, 1, 51, 86
1, 52463, Note_on_c, 1, 51, 0
1, 52464, Note_on_c, 1, 51, 86
1, 52483, Note_on_c, 0, 63, 0
1, 52483, Note_on_c, 0, 55, 0
1, 52487, Note_on_c, 1, 51, 0
1, 52488, Note_on_c, 0, 72, 75
1, 52488, Note_on_c, 0, 68, 75
1, 52488, Note_on_c, 1, 51, 86
1, 52511, Note_on_c, 0, 72, 0
1, 52511, Note_on_c, 0, 68, 0
1, 52511, Note_on_c, 1, 51, 0
1, 52512, Note_on_c, 0, 72, 75
1, 52512, Note_on_c, 0, 68, 75
1, 52512, Note_on_c, 1, 51, 86
1, 52535, Note_on_c, 1, 51, 0
1, 52536, Note_on_c, 0, 72, 0
1, 52536, Note_on_c, 0, 68, 0
1, 52536, Note_on_c, 0, 70, 75
1, 52536, Note_on_c, 0, 67, 75
1, 52536, Note_on_c, 1, 51, 86
1, 52559, Note_on_c, 0, 70, 0
1, 52559, Note_on_c, 0, 67, 0
1, 52559, Note_on_c, 1, 51, 0
1, 52560, Note_on_c, 0, 70, 75
1, 52560, Note_on_c, 0, 67, 75
1, 52560, Note_on_c, 1, 51, 86
1, 52583, Note_on_c, 1, 51, 0
1, 52584, Note_on_c, 0, 70, 0
1, 52584, Note_on_c, 0, 67, 0
1, 52584, Note_on_c, 0, 68, 75
1, 52584, Note_on_c, 0, 65, 75
1, 52584, Note_on_c, 1, 51, 86
1, 52607, Note_on_c, 0, 68, 0
1, 52607, Note_on_c, 0, 65, 0
1, 52607, Note_on_c, 1, 51, 0
1, 52608, Note_on_c, 0, 67, 75
1, 52608, Note_on_c, 0, 63, 75
1, 52608, Note_on_c, 1, 39, 86
1, 52631, Note_on_c, 1, 39, 0
1, 52632, Note_on_c, 1, 51, 86
1, 52655, Note_on_c, 1, 51, 0
1, 52656, Note_on_c, 1, 51, 86
1, 52675, Note_on_c, 0, 67, 0
1, 52675, Note_on_c, 0, 63, 0
1, 52680, Note_on_c, 0, 75, 75
1, 52680, Note_on_c, 0, 72, 75
1, 52701, Note_on_c, 1, 51, 0
1, 52703, Note_on_c, 0, 75, 0
1, 52703, Note_on_c, 0, 72, 0
1, 52704, Note_on_c, 0, 75, 75
1, 52704, Note_on_c, 0, 72, 75
1, 52728, Note_on_c, 0, 75, 0
1, 52728, Note_on_c, 0, 72, 0
1, 52728, Note_on_c, 0, 74, 75
1, 52728, Note_on_c, 0, 70, 75
1, 52751, Note_on_c, 0, 74, 0
1, 52751, Note_on_c, 0, 70, 0
1, 52752, Note_on_c, 0, 74, 75
1, 52752, Note_on_c, 0, 70, 75
1, 52776, Note_on_c, 0, 74, 0
1, 52776, Note_on_c, 0, 70, 0
1, 52776, Note_on_c, 0, 72, 75
1, 52776, Note_on_c, 0, 68, 75
1, 52799, Note_on_c, 0, 72, 0
1, 52799, Note_on_c, 0, 68, 0
1, 52800, Note_on_c, 0, 70, 75
1, 52800, Note_on_c, 0, 67, 75
1, 52800, Note_on_c, 1, 63, 75
1, 52823, Note_on_c, 1, 63, 0
1, 52824, Note_on_c, 1, 63, 75
1, 52847, Note_on_c, 1, 63, 0
1, 52848, Note_on_c, 1, 63, 76
1, 52871, Note_on_c, 1, 63, 0
1, 52872, Note_on_c, 1, 63, 77
1, 52889, Note_on_c, 0, 70, 0
1, 52889, Note_on_c, 0, 67, 0
1, 52895, Note_on_c, 1, 63, 0
1, 52896, Note_on_c, 0, 55, 77
1, 52900, Note_on_c, 0, 58, 77
1, 52904, Note_on_c, 0, 61, 77
1, 52908, Note_on_c, 0, 64, 77
1, 52912, Note_on_c, 0, 67, 77
1, 52916, Note_on_c, 0, 70, 77
1, 52920, Note_on_c, 0, 73, 77
1, 52924, Note_on_c, 0, 76, 77
1, 52985, Note_on_c, 0, 76, 0
1, 52985, Note_on_c, 0, 73, 0
1, 52985, Note_on_c, 0, 70, 0
1, 52985, Note_on_c, 0, 67, 0
1, 52985, Note_on_c, 0, 64, 0
1, 52985, Note_on_c, 0, 61, 0
1, 52985, Note_on_c, 0, 58, 0
1, 52985, Note_on_c, 0, 55, 0
1, 52992, Note_on_c, 0, 65, 80
1, 52992, Note_on_c, 1, 65, 80
1, 52992, Note_on_c, 1, 60, 80
1, 52992, Note_on_c, 1, 56, 80
1, 53026, Note_on_c, 0, 65, 0
1, 53028, Note_on_c, 0, 67, 82
1, 53034, Note_on_c, 0, 67, 0
1, 53034, Note_on_c, 0, 68, 82
1, 53040, Note_on_c, 0, 68, 0
1, 53040, Note_on_c, 0, 70, 83
1, 53046, Note_on_c, 0, 70, 0
1, 53046, Note_on_c, 0, 72, 83
1, 53052, Note_on_c, 0, 72, 0
1, 53052, Note_on_c, 0, 74, 83
1, 53058, Note_on_c, 0, 74, 0
1, 53058, Note_on_c, 0, 76, 84
1, 53064, Note_on_c, 0, 76, 0
1, 53064, Note_on_c, 0, 77, 84
1, 53070, Note_on_c, 0, 77, 0
1, 53070, Note_on_c, 0, 79, 84
1, 53076, Note_on_c, 0, 79, 0
1, 53076, Note_on_c, 0, 80, 85
1, 53082, Note_on_c, 0, 80, 0
1, 53082, Note_on_c, 0, 82, 85
1, 53088, Note_on_c, 0, 82, 0
1, 53088, Note_on_c, 0, 84, 86
1, 53125, Note_on_c, 1, 65, 0
1, 53125, Note_on_c, 1, 60, 0
1, 53125, Note_on_c, 1, 56, 0
1, 53133, Note_on_c, 0, 84, 0
1, 53160, Note_on_c, 0, 72, 80
1, 53168, Note_on_c, 0, 72, 0
1, 53168, Note_on_c, 0, 68, 79
1, 53176, Note_on_c, 0, 68, 0
1, 53176, Note_on_c, 0, 65, 79
1, 53184, Note_on_c, 0, 65, 0
1, 53184, Note_on_c, 0, 63, 78
1, 53232, Note_on_c, 1, 54, 76
1, 53232, Note_on_c, 1, 45, 76
1, 53277, Note_on_c, 1, 54, 0
1, 53277, Note_on_c, 1, 45, 0
1, 53280, Note_on_c, 1, 55, 73
1, 53280, Note_on_c, 1, 46, 73
1, 53317, Note_on_c, 0, 63, 0
1, 53328, Note_on_c, 0, 67, 70
1, 53328, Note_on_c, 1, 55, 0
1, 53328, Note_on_c, 1, 56, 70
1, 53334, Note_on_c, 0, 67, 0
1, 53334, Note_on_c, 0, 65, 70
1, 53351, Note_on_c, 0, 65, 0
1, 53352, Note_on_c, 0, 63, 68
1, 53373, Note_on_c, 1, 56, 0
1, 53373, Note_on_c, 1, 46, 0
1, 53375, Note_on_c, 0, 63, 0
1, 53376, Note_on_c, 0, 63, 67
1, 53376, Note_on_c, 1, 55, 67
1, 53376, Note_on_c, 1, 48, 67
1, 53423, Note_on_c, 0, 63, 0
1, 53423, Note_on_c, 1, 55, 0
1, 53423, Note_on_c, 1, 48, 0
1, 53448, Note_on_c, 0, 55, 80
1, 53448, Note_on_c, 1, 43, 80
1, 53460, Note_on_c, 0, 55, 0
1, 53460, Note_on_c, 0, 63, 80
1, 53471, Note_on_c, 1, 43, 0
1, 53472, Note_on_c, 0, 63, 0
1, 53472, Note_on_c, 0, 56, 80
1, 53472, Note_on_c, 1, 44, 80
1, 53484, Note_on_c, 0, 56, 0
1, 53484, Note_on_c, 0, 63, 80
1, 53495, Note_on_c, 1, 44, 0
1, 53496, Note_on_c, 0, 63, 0
1, 53496, Note_on_c, 0, 55, 80
1, 53496, Note_on_c, 1, 43, 80
1, 53508, Note_on_c, 0, 55, 0
1, 53508, Note_on_c, 0, 63, 81
1, 53519, Note_on_c, 1, 43, 0
1, 53520, Note_on_c, 0, 63, 0
1, 53520, Note_on_c, 0, 56, 81
1, 53520, Note_on_c, 1, 44, 81
1, 53532, Note_on_c, 0, 56, 0
1, 53532, Note_on_c, 0, 63, 82
1, 53543, Note_on_c, 1, 44, 0
1, 53544, Note_on_c, 0, 63, 0
1, 53544, Note_on_c, 0, 57, 82
1, 53544, Note_on_c, 1, 45, 82
1, 53556, Note_on_c, 0, 57, 0
1, 53556, Note_on_c, 0, 63, 82
1, 53567, Note_on_c, 1, 45, 0
1, 53568, Note_on_c, 0, 63, 0
1, 53568, Note_on_c, 0, 58, 83
1, 53568, Note_on_c, 1, 46, 83
1, 53580, Note_on_c, 0, 58, 0
1, 53580, Note_on_c, 0, 63, 83
1, 53591, Note_on_c, 1, 46, 0
1, 53592, Note_on_c, 0, 63, 0
1, 53592, Note_on_c, 0, 57, 84
1, 53592, Note_on_c, 1, 45, 83
1, 53604, Note_on_c, 0, 57, 0
1, 53604, Note_on_c, 0, 63, 84
1, 53615, Note_on_c, 1, 45, 0
1, 53616, Note_on_c, 0, 63, 0
1, 53616, Note_on_c, 0, 58, 84
1, 53616, Note_on_c, 1, 46, 84
1, 53628, Note_on_c, 0, 58, 0
1, 53628, Note_on_c, 0, 63, 85
1, 53639, Note_on_c, 1, 46, 0
1, 53640, Note_on_c, 0, 63, 0
1, 53640, Note_on_c, 0, 55, 85
1, 53640, Note_on_c, 1, 43, 85
1, 53652, Note_on_c, 0, 55, 0
1, 53652, Note_on_c, 0, 63, 86
1, 53663, Note_on_c, 1, 43, 0
1, 53664, Note_on_c, 0, 63, 0
1, 53664, Note_on_c, 0, 56, 84
1, 53664, Note_on_c, 1, 44, 86
1, 53676, Note_on_c, 0, 56, 0
1, 53676, Note_on_c, 0, 63, 83
1, 53687, Note_on_c, 1, 44, 0
1, 53688, Note_on_c, 0, 63, 0
1, 53688, Note_on_c, 0, 57, 82
1, 53688, Note_on_c, 1, 45, 83
1, 53700, Note_on_c, 0, 57, 0
1, 53700, Note_on_c, 0, 63, 81
1, 53711, Note_on_c, 1, 45, 0
1, 53712, Note_on_c, 0, 63, 0
1, 53712, Note_on_c, 0, 58, 80
1, 53712, Note_on_c, 1, 46, 81
1, 53724, Note_on_c, 0, 58, 0
1, 53724, Note_on_c, 0, 63, 79
1, 53735, Note_on_c, 1, 46, 0
1, 53736, Note_on_c, 0, 63, 0
1, 53736, Note_on_c, 0, 59, 78
1, 53736, Note_on_c, 1, 47, 79
1, 53748, Note_on_c, 0, 59, 0
1, 53748, Note_on_c, 0, 63, 77
1, 53759, Note_on_c, 1, 47, 0
1, 53760, Note_on_c, 0, 63, 0
1, 53760, Note_on_c, 0, 60, 76
1, 53760, Note_on_c, 1, 48, 76
1, 53772, Note_on_c, 0, 60, 0
1, 53772, Note_on_c, 0, 63, 75
1, 53783, Note_on_c, 1, 48, 0
1, 53784, Note_on_c, 0, 63, 0
1, 53784, Note_on_c, 0, 59, 74
1, 53784, Note_on_c, 1, 47, 74
1, 53796, Note_on_c, 0, 59, 0
1, 53796, Note_on_c, 0, 63, 73
1, 53807, Note_on_c, 1, 47, 0
1, 53808, Note_on_c, 0, 63, 0
1, 53808, Note_on_c, 0, 60, 72
1, 53808, Note_on_c, 1, 48, 72
1, 53831, Note_on_c, 0, 60, 0
1, 53831, Note_on_c, 1, 48, 0
1, 53832, Note_on_c, 0, 72, 70
1, 53832, Note_on_c, 0, 68, 70
1, 53832, Note_on_c, 1, 44, 70
1, 53855, Note_on_c, 0, 72, 0
1, 53855, Note_on_c, 0, 68, 0
1, 53855, Note_on_c, 1, 44, 0
1, 53856, Note_on_c, 0, 72, 70
1, 53856, Note_on_c, 0, 68, 70
1, 53856, Note_on_c, 1, 46, 70
1, 53880, Note_on_c, 0, 72, 0
1, 53880, Note_on_c, 0, 68, 0
1, 53880, Note_on_c, 0, 70, 70
1, 53880, Note_on_c, 0, 67, 70
1, 53901, Note_on_c, 1, 46, 0
1, 53903, Note_on_c, 0, 70, 0
1, 53903, Note_on_c, 0, 67, 0
1, 53904, Note_on_c, 1, 34, 70
1, 53928, Note_on_c, 0, 62, 70
1, 53928, Note_on_c, 0, 56, 70
1, 53949, Note_on_c, 1, 34, 0
1, 53951, Note_on_c, 0, 62, 0
1, 53951, Note_on_c, 0, 56, 0
1, 53952, Note_on_c, 0, 62, 70
1, 53952, Note_on_c, 0, 56, 70
1, 53952, Note_on_c, 1, 48, 70
1, 53976, Note_on_c, 0, 62, 0
1, 53976, Note_on_c, 0, 56, 0
1, 53976, Note_on_c, 0, 63, 70
1, 53976, Note_on_c, 0, 55, 70
1, 53997, Note_on_c, 1, 48, 0
1, 53999, Note_on_c, 0, 63, 0
1, 53999, Note_on_c, 0, 55, 0
1, 54000, Note_on_c, 1, 44, 70
1, 54024, Note_on_c, 0, 72, 70
1, 54024, Note_on_c, 0, 68, 70
1, 54045, Note_on_c, 1, 44, 0
1, 54047, Note_on_c, 0, 72, 0
1, 54047, Note_on_c, 0, 68, 0
1, 54048, Note_on_c, 0, 72, 70
1, 54048, Note_on_c, 0, 68, 70
1, 54048, Note_on_c, 1, 46, 70
1, 54072, Note_on_c, 0, 72, 0
1, 54072, Note_on_c, 0, 68, 0
1, 54072, Note_on_c, 0, 70, 70
1, 54072, Note_on_c, 0, 67, 70
1, 54093, Note_on_c, 1, 46, 0
1, 54095, Note_on_c, 0, 70, 0
1, 54095, Note_on_c, 0, 67, 0
1, 54096, Note_on_c, 1, 34, 70
1, 54120, Note_on_c, 0, 62, 75
1, 54120, Note_on_c, 0, 56, 75
1, 54141, Note_on_c, 1, 34, 0
1, 54143, Note_on_c, 0, 62, 0
1, 54143, Note_on_c, 0, 56, 0
1, 54144, Note_on_c, 0, 63, 75
1, 54144, Note_on_c, 1, 55, 75
1, 54144, Note_on_c, 1, 51, 75
1, 54156, Note_on_c, 0, 63, 0
1, 54156, Note_on_c, 0, 70, 75
1, 54168, Note_on_c, 0, 70, 0
1, 54168, Note_on_c, 0, 67, 75
1, 54180, Note_on_c, 0, 67, 0
1, 54180, Note_on_c, 0, 63, 75
1, 54189, Note_on_c, 1, 55, 0
1, 54189, Note_on_c, 1, 51, 0
1, 54192, Note_on_c, 0, 63, 0
1, 54192, Note_on_c, 0, 58, 75
1, 54204, Note_on_c, 0, 58, 0
1, 54204, Note_on_c, 0, 68, 75
1, 54216, Note_on_c, 0, 68, 0
1, 54216, Note_on_c, 0, 65, 75
1, 54216, Note_on_c, 1, 56, 75
1, 54216, Note_on_c, 1, 46, 75
1, 54228, Note_on_c, 0, 65, 0
1, 54228, Note_on_c, 0, 62, 75
1, 54239, Note_on_c, 1, 56, 0
1, 54239, Note_on_c, 1, 46, 0
1, 54240, Note_on_c, 0, 62, 0
1, 54240, Note_on_c, 0, 63, 75
1, 54240, Note_on_c, 1, 55, 75
1, 54240, Note_on_c, 1, 51, 75
1, 54252, Note_on_c, 0, 63, 0
1, 54252, Note_on_c, 0, 70, 75
1, 54264, Note_on_c, 0, 70, 0
1, 54264, Note_on_c, 0, 67, 75
1, 54276, Note_on_c, 0, 67, 0
1, 54276, Note_on_c, 0, 63, 75
1, 54285, Note_on_c, 1, 55, 0
1, 54285, Note_on_c, 1, 51, 0
1, 54288, Note_on_c, 0, 63, 0
1, 54288, Note_on_c, 0, 58, 75
1, 54300, Note_on_c, 0, 58, 0
1, 54300, Note_on_c, 0, 68, 75
1, 54312, Note_on_c, 0, 68, 0
1, 54312, Note_on_c, 0, 65, 75
1, 54312, Note_on_c, 1, 56, 75
1, 54312, Note_on_c, 1, 46, 75
1, 54324, Note_on_c, 0, 65, 0
1, 54324, Note_on_c, 0, 62, 75
1, 54335, Note_on_c, 1, 56, 0
1, 54335, Note_on_c, 1, 46, 0
1, 54336, Note_on_c, 0, 62, 0
1, 54336, Note_on_c, 0, 63, 75
1, 54336, Note_on_c, 1, 55, 75
1, 54336, Note_on_c, 1, 51, 75
1, 54381, Note_on_c, 0, 63, 0
1, 54381, Note_on_c, 1, 55, 0
1, 54381, Note_on_c, 1, 51, 0
1, 54384, Note_on_c, 0, 79, 75
1, 54384, Note_on_c, 0, 75, 75
1, 54429, Note_on_c, 0, 79, 0
1, 54429, Note_on_c, 0, 75, 0
1, 54528, Note_on_c, 1, 51, 0
1, 54573, Note_on_c, 1, 51, 0
1, 54583, End_track
0, 0, End_of_file