0, 0, Header, 0, 1, 96
1, 0, Start_track
1, 0, Tempo, 750000
1, 0, Note_on_c, 0, 68, 84
1, 6, Note_on_c, 0, 68, 0
1, 6, Note_on_c, 0, 67, 84
1, 12, Note_on_c, 0, 67, 0
1, 12, Note_on_c, 0, 68, 84
1, 48, Note_on_c, 1, 60, 69
1, 48, Note_on_c, 1, 56, 69
1, 95, Note_on_c, 1, 60, 0
1, 95, Note_on_c, 1, 56, 0
1, 96, Note_on_c, 1, 60, 69
1, 96, Note_on_c, 1, 56, 69
1, 143, Note_on_c, 1, 60, 0
1, 143, Note_on_c, 1, 56, 0
1, 144, Note_on_c, 1, 60, 69
1, 144, Note_on_c, 1, 56, 69
1, 179, Note_on_c, 0, 68, 0
1, 191, Note_on_c, 1, 60, 0
1, 191, Note_on_c, 1, 56, 0
1, 192, Note_on_c, 0, 77, 84
1, 198, Note_on_c, 0, 77, 0
1, 198, Note_on_c, 0, 75, 84
1, 240, Note_on_c, 1, 58, 69
1, 240, Note_on_c, 1, 55, 69
1, 287, Note_on_c, 1, 58, 0
1, 287, Note_on_c, 1, 55, 0
1, 288, Note_on_c, 1, 58, 69
1, 288, Note_on_c, 1, 55, 69
1, 335, Note_on_c, 1, 58, 0
1, 335, Note_on_c, 1, 55, 0
1, 336, Note_on_c, 1, 58, 69
1, 336, Note_on_c, 1, 55, 69
1, 355, Note_on_c, 0, 75, 0
1, 360, Note_on_c, 0, 73, 84
1, 383, Note_on_c, 0, 73, 0
1, 383, Note_on_c, 1, 58, 0
1, 383, Note_on_c, 1, 55, 0
1, 384, Note_on_c, 0, 73, 84
1, 432, Note_on_c, 1, 63, 69
1, 432, Note_on_c, 1, 56, 69
1, 479, Note_on_c, 1, 63, 0
1, 479, Note_on_c, 1, 56, 0
1, 480, Note_on_c, 0, 73, 0
1, 480, Note_on_c, 0, 72, 84
1, 480, Note_on_c, 1, 63, 69
1, 480, Note_on_c, 1, 56, 69
1, 486, Note_on_c, 0, 72, 0
1, 486, Note_on_c, 0, 73, 84
1, 492, Note_on_c, 0, 73, 0
1, 492, Note_on_c, 0, 72, 84
1, 527, Note_on_c, 1, 63, 0
1, 527, Note_on_c, 1, 56, 0
1, 528, Note_on_c, 1, 63, 69
1, 528, Note_on_c, 1, 56, 69
1, 549, Note_on_c, 0, 72, 0
1, 552, Note_on_c, 0, 73, 84
1, 575, Note_on_c, 0, 73, 0
1, 575, Note_on_c, 1, 63, 0
1, 575, Note_on_c, 1, 56, 0
1, 576, Note_on_c, 0, 72, 84
1, 624, Note_on_c, 1, 65, 69
1, 624, Note_on_c, 1, 61, 69
1, 671, Note_on_c, 1, 65, 0
1, 671, Note_on_c, 1, 61, 0
1, 672, Note_on_c, 0, 72, 0
1, 672, Note_on_c, 0, 70, 84
1, 672, Note_on_c, 1, 65, 69
1, 672, Note_on_c, 1, 61, 69
1, 678, Note_on_c, 0, 70, 0
1, 678, Note_on_c, 0, 72, 84
1, 684, Note_on_c, 0, 72, 0
1, 684, Note_on_c, 0, 70, 84
1, 719, Note_on_c, 1, 65, 0
1, 719, Note_on_c, 1, 61, 0
1, 720, Note_on_c, 1, 65, 69
1, 720, Note_on_c, 1, 61, 69
1, 741, Note_on_c, 0, 70, 0
1, 744, Note_on_c, 0, 72, 84
1, 767, Note_on_c, 0, 72, 0
1, 767, Note_on_c, 1, 65, 0
1, 767, Note_on_c, 1, 61, 0
1, 768, Note_on_c, 0, 70, 84
1, 816, Note_on_c, 1, 63, 69
1, 816, Note_on_c, 1, 60, 69
1, 863, Note_on_c, 1, 63, 0
1, 863, Note_on_c, 1, 60, 0
1, 864, Note_on_c, 0, 70, 0
1, 864, Note_on_c, 0, 68, 84
1, 864, Note_on_c, 1, 63, 69
1, 864, Note_on_c, 1, 60, 69
1, 870, Note_on_c, 0, 68, 0
1, 870, Note_on_c, 0, 70, 84
1, 876, Note_on_c, 0, 70, 0
1, 876, Note_on_c, 0, 68, 84
1, 898, Note_on_c, 0, 68, 0
1, 900, Note_on_c, 0, 67, 84
1, 911, Note_on_c, 1, 63, 0
1, 911, Note_on_c, 1, 60, 0
1, 912, Note_on_c, 0, 67, 0
1, 912, Note_on_c, 0, 68, 84
1, 912, Note_on_c, 1, 63, 69
1, 912, Note_on_c, 1, 60, 69
1, 946, Note_on_c, 0, 68, 0
1, 948, Note_on_c, 0, 70, 84
1, 959, Note_on_c, 1, 63, 0
1, 959, Note_on_c, 1, 60, 0
1, 960, Note_on_c, 0, 70, 0
1, 960, Note_on_c, 0, 68, 84
1, 960, Note_on_c, 1, 63, 69
1, 960, Note_on_c, 1, 60, 69
1, 1068, Note_on_c, 0, 68, 0
1, 1068, Note_on_c, 1, 63, 0
1, 1068, Note_on_c, 1, 60, 0
1, 1152, Note_on_c, 0, 80, 84
1, 1167, Note_on_c, 0, 80, 0
1, 1168, Note_on_c, 0, 84, 84
1, 1183, Note_on_c, 0, 84, 0
1, 1184, Note_on_c, 0, 82, 84
1, 1199, Note_on_c, 0, 82, 0
1, 1200, Note_on_c, 0, 80, 84
1, 1215, Note_on_c, 0, 80, 0
1, 1216, Note_on_c, 0, 79, 84
1, 1231, Note_on_c, 0, 79, 0
1, 1232, Note_on_c, 0, 77, 84
1, 1247, Note_on_c, 0, 77, 0
1, 1248, Note_on_c, 0, 75, 84
1, 1263, Note_on_c, 0, 75, 0
1, 1264, Note_on_c, 0, 73, 84
1, 1279, Note_on_c, 0, 73, 0
1, 1280, Note_on_c, 0, 72, 84
1, 1295, Note_on_c, 0, 72, 0
1, 1296, Note_on_c, 0, 70, 84
1, 1311, Note_on_c, 0, 70, 0
1, 1312, Note_on_c, 0, 68, 84
1, 1327, Note_on_c, 0, 68, 0
1, 1328, Note_on_c, 0, 67, 84
1, 1343, Note_on_c, 0, 67, 0
1, 1344, Note_on_c, 0, 65, 84
1, 1392, Note_on_c, 1, 56, 69
1, 1392, Note_on_c, 1, 49, 69
1, 1439, Note_on_c, 1, 56, 0
1, 1439, Note_on_c, 1, 49, 0
1, 1440, Note_on_c, 1, 56, 69
1, 1440, Note_on_c, 1, 49, 69
1, 1487, Note_on_c, 1, 56, 0
1, 1487, Note_on_c, 1, 49, 0
1, 1488, Note_on_c, 1, 56, 69
1, 1488, Note_on_c, 1, 49, 69
1, 1507, Note_on_c, 0, 65, 0
1, 1512, Note_on_c, 0, 67, 84
1, 1535, Note_on_c, 0, 67, 0
1, 1535, Note_on_c, 1, 56, 0
1, 1535, Note_on_c, 1, 49, 0
1, 1536, Note_on_c, 0, 67, 84
1, 1584, Note_on_c, 1, 51, 69
1, 1584, Note_on_c, 1, 48, 69
1, 1631, Note_on_c, 1, 51, 0
1, 1631, Note_on_c, 1, 48, 0
1, 1632, Note_on_c, 0, 67, 0
1, 1632, Note_on_c, 0, 68, 84
1, 1632, Note_on_c, 1, 51, 69
1, 1632, Note_on_c, 1, 48, 69
1, 1647, Note_on_c, 0, 68, 0
1, 1648, Note_on_c, 0, 72, 84
1, 1663, Note_on_c, 0, 72, 0
1, 1664, Note_on_c, 0, 70, 84
1, 1679, Note_on_c, 0, 70, 0
1, 1679, Note_on_c, 1, 51, 0
1, 1679, Note_on_c, 1, 48, 0
1, 1680, Note_on_c, 0, 68, 84
1, 1680, Note_on_c, 1, 53, 69
1, 1680, Note_on_c, 1, 49, 69
1, 1695, Note_on_c, 0, 68, 0
1, 1696, Note_on_c, 0, 67, 84
1, 1711, Note_on_c, 0, 67, 0
1, 1712, Note_on_c, 0, 65, 84
1, 1727, Note_on_c, 0, 65, 0
1, 1727, Note_on_c, 1, 53, 0
1, 1727, Note_on_c, 1, 49, 0
1, 1728, Note_on_c, 0, 63, 84
1, 1776, Note_on_c, 1, 60, 69
1, 1776, Note_on_c, 1, 51, 69
1, 1795, Note_on_c, 0, 63, 0
1, 1800, Note_on_c, 0, 60, 84
1, 1812, Note_on_c, 0, 60, 0
1, 1812, Note_on_c, 0, 61, 84
1, 1823, Note_on_c, 1, 60, 0
1, 1823, Note_on_c, 1, 51, 0
1, 1824, Note_on_c, 0, 61, 0
1, 1824, Note_on_c, 0, 63, 84
1, 1824, Note_on_c, 1, 58, 69
1, 1824, Note_on_c, 1, 51, 69
1, 1832, Note_on_c, 0, 63, 0
1, 1832, Note_on_c, 0, 61, 84
1, 1840, Note_on_c, 0, 61, 0
1, 1840, Note_on_c, 0, 63, 84
1, 1848, Note_on_c, 0, 63, 0
1, 1848, Note_on_c, 0, 61, 84
1, 1856, Note_on_c, 0, 61, 0
1, 1856, Note_on_c, 0, 63, 84
1, 1864, Note_on_c, 0, 63, 0
1, 1864, Note_on_c, 0, 61, 84
1, 1871, Note_on_c, 1, 58, 0
1, 1871, Note_on_c, 1, 51, 0
1, 1872, Note_on_c, 0, 61, 0
1, 1872, Note_on_c, 0, 63, 84
1, 1872, Note_on_c, 1, 58, 69
1, 1872, Note_on_c, 1, 51, 69
1, 1880, Note_on_c, 0, 63, 0
1, 1880, Note_on_c, 0, 61, 84
1, 1888, Note_on_c, 0, 61, 0
1, 1888, Note_on_c, 0, 60, 84
1, 1904, Note_on_c, 0, 60, 0
1, 1904, Note_on_c, 0, 61, 84
1, 1919, Note_on_c, 1, 58, 0
1, 1919, Note_on_c, 1, 51, 0
1, 1920, Note_on_c, 0, 61, 0
1, 1920, Note_on_c, 0, 61, 84
1, 1920, Note_on_c, 0, 58, 84
1, 1968, Note_on_c, 1, 56, 69
1, 1968, Note_on_c, 1, 44, 69
1, 2015, Note_on_c, 1, 56, 0
1, 2015, Note_on_c, 1, 44, 0
1, 2016, Note_on_c, 0, 61, 0
1, 2016, Note_on_c, 0, 58, 0
1, 2016, Note_on_c, 0, 60, 84
1, 2016, Note_on_c, 0, 56, 84
1, 2016, Note_on_c, 1, 51, 69
1, 2016, Note_on_c, 1, 44, 69
1, 2063, Note_on_c, 1, 51, 0
1, 2063, Note_on_c, 1, 44, 0
1, 2064, Note_on_c, 1, 51, 69
1, 2064, Note_on_c, 1, 44, 69
1, 2105, Note_on_c, 0, 60, 0
1, 2105, Note_on_c, 0, 56, 0
1, 2111, Note_on_c, 1, 51, 0
1, 2111, Note_on_c, 1, 44, 0
1, 2112, Note_on_c, 0, 65, 84
1, 2160, Note_on_c, 1, 56, 69
1, 2160, Note_on_c, 1, 49, 69
1, 2207, Note_on_c, 1, 56, 0
1, 2207, Note_on_c, 1, 49, 0
1, 2208, Note_on_c, 1, 56, 69
1, 2208, Note_on_c, 1, 49, 69
1, 2223, Note_on_c, 0, 65, 0
1, 2224, Note_on_c, 0, 67, 84
1, 2239, Note_on_c, 0, 67, 0
1, 2240, Note_on_c, 0, 68, 84
1, 2255, Note_on_c, 0, 68, 0
1, 2255, Note_on_c, 1, 56, 0
1, 2255, Note_on_c, 1, 49, 0
1, 2256, Note_on_c, 0, 67, 84
1, 2256, Note_on_c, 1, 51, 69
1, 2256, Note_on_c, 1, 49, 69
1, 2271, Note_on_c, 0, 67, 0
1, 2272, Note_on_c, 0, 68, 84
1, 2287, Note_on_c, 0, 68, 0
1, 2288, Note_on_c, 0, 70, 84
1, 2303, Note_on_c, 0, 70, 0
1, 2303, Note_on_c, 1, 51, 0
1, 2303, Note_on_c, 1, 49, 0
1, 2304, Note_on_c, 0, 68, 84
1, 2304, Note_on_c, 1, 51, 69
1, 2304, Note_on_c, 1, 48, 69
1, 2319, Note_on_c, 0, 68, 0
1, 2320, Note_on_c, 0, 70, 84
1, 2335, Note_on_c, 0, 70, 0
1, 2336, Note_on_c, 0, 72, 84
1, 2351, Note_on_c, 0, 72, 0
1, 2352, Note_on_c, 0, 70, 84
1, 2367, Note_on_c, 0, 70, 0
1, 2368, Note_on_c, 0, 72, 84
1, 2383, Note_on_c, 0, 72, 0
1, 2384, Note_on_c, 0, 73, 84
1, 2398, Note_on_c, 1, 51, 0
1, 2398, Note_on_c, 1, 48, 0
1, 2399, Note_on_c, 0, 73, 0
1, 2400, Note_on_c, 0, 72, 84
1, 2415, Note_on_c, 0, 72, 0
1, 2416, Note_on_c, 0, 73, 84
1, 2431, Note_on_c, 0, 73, 0
1, 2432, Note_on_c, 0, 75, 84
1, 2447, Note_on_c, 0, 75, 0
1, 2448, Note_on_c, 0, 73, 84
1, 2463, Note_on_c, 0, 73, 0
1, 2464, Note_on_c, 0, 75, 84
1, 2479, Note_on_c, 0, 75, 0
1, 2480, Note_on_c, 0, 77, 84
1, 2495, Note_on_c, 0, 77, 0
1, 2496, Note_on_c, 0, 75, 84
1, 2511, Note_on_c, 0, 75, 0
1, 2512, Note_on_c, 0, 73, 84
1, 2527, Note_on_c, 0, 73, 0
1, 2528, Note_on_c, 0, 72, 84
1, 2543, Note_on_c, 0, 72, 0
1, 2544, Note_on_c, 0, 70, 84
1, 2559, Note_on_c, 0, 70, 0
1, 2560, Note_on_c, 0, 68, 84
1, 2575, Note_on_c, 0, 68, 0
1, 2576, Note_on_c, 0, 67, 84
1, 2591, Note_on_c, 0, 67, 0
1, 2592, Note_on_c, 0, 68, 84
1, 2607, Note_on_c, 0, 68, 0
1, 2608, Note_on_c, 0, 72, 84
1, 2623, Note_on_c, 0, 72, 0
1, 2624, Note_on_c, 0, 70, 84
1, 2639, Note_on_c, 0, 70, 0
1, 2640, Note_on_c, 0, 68, 84
1, 2655, Note_on_c, 0, 68, 0
1, 2656, Note_on_c, 0, 67, 84
1, 2671, Note_on_c, 0, 67, 0
1, 2672, Note_on_c, 0, 65, 84
1, 2687, Note_on_c, 0, 65, 0
1, 2688, Note_on_c, 0, 63, 84
1, 2688, Note_on_c, 1, 60, 69
1, 2688, Note_on_c, 1, 51, 69
1, 2735, Note_on_c, 1, 60, 0
1, 2735, Note_on_c, 1, 51, 0
1, 2736, Note_on_c, 1, 60, 69
1, 2736, Note_on_c, 1, 51, 69
1, 2755, Note_on_c, 0, 63, 0
1, 2760, Note_on_c, 0, 60, 84
1, 2772, Note_on_c, 0, 60, 0
1, 2772, Note_on_c, 0, 61, 84
1, 2783, Note_on_c, 1, 60, 0
1, 2783, Note_on_c, 1, 51, 0
1, 2784, Note_on_c, 0, 61, 0
1, 2784, Note_on_c, 0, 63, 84
1, 2784, Note_on_c, 1, 58, 69
1, 2784, Note_on_c, 1, 51, 69
1, 2792, Note_on_c, 0, 63, 0
1, 2792, Note_on_c, 0, 61, 84
1, 2800, Note_on_c, 0, 61, 0
1, 2800, Note_on_c, 0, 63, 84
1, 2808, Note_on_c, 0, 63, 0
1, 2808, Note_on_c, 0, 61, 84
1, 2816, Note_on_c, 0, 61, 0
1, 2816, Note_on_c, 0, 63, 84
1, 2824, Note_on_c, 0, 63, 0
1, 2824, Note_on_c, 0, 61, 84
1, 2831, Note_on_c, 1, 58, 0
1, 2831, Note_on_c, 1, 51, 0
1, 2832, Note_on_c, 0, 61, 0
1, 2832, Note_on_c, 0, 63, 84
1, 2832, Note_on_c, 1, 58, 69
1, 2832, Note_on_c, 1, 51, 69
1, 2840, Note_on_c, 0, 63, 0
1, 2840, Note_on_c, 0, 61, 84
1, 2848, Note_on_c, 0, 61, 0
1, 2848, Note_on_c, 0, 60, 84
1, 2864, Note_on_c, 0, 60, 0
1, 2864, Note_on_c, 0, 61, 84
1, 2879, Note_on_c, 1, 58, 0
1, 2879, Note_on_c, 1, 51, 0
1, 2880, Note_on_c, 0, 61, 0
1, 2880, Note_on_c, 0, 61, 84
1, 2880, Note_on_c, 0, 58, 84
1, 2928, Note_on_c, 1, 56, 69
1, 2928, Note_on_c, 1, 44, 69
1, 2973, Note_on_c, 1, 56, 0
1, 2973, Note_on_c, 1, 44, 0
1, 2976, Note_on_c, 0, 61, 0
1, 2976, Note_on_c, 0, 58, 0
1, 2976, Note_on_c, 0, 60, 84
1, 2976, Note_on_c, 0, 56, 84
1, 2976, Note_on_c, 1, 51, 69
1, 2976, Note_on_c, 1, 44, 69
1, 3021, Note_on_c, 1, 51, 0
1, 3021, Note_on_c, 1, 44, 0
1, 3024, Note_on_c, 1, 51, 69
1, 3024, Note_on_c, 1, 44, 69
1, 3065, Note_on_c, 0, 60, 0
1, 3065, Note_on_c, 0, 56, 0
1, 3069, Note_on_c, 1, 51, 0
1, 3069, Note_on_c, 1, 44, 0
1, 3072, Note_on_c, 0, 72, 75
1, 3084, Note_on_c, 0, 72, 0
1, 3084, Note_on_c, 0, 84, 75
1, 3120, Note_on_c, 1, 72, 61
1, 3120, Note_on_c, 1, 68, 61
1, 3167, Note_on_c, 1, 72, 0
1, 3167, Note_on_c, 1, 68, 0
1, 3168, Note_on_c, 1, 72, 61
1, 3168, Note_on_c, 1, 68, 61
1, 3191, Note_on_c, 0, 84, 0
1, 3192, Note_on_c, 0, 82, 75
1, 3204, Note_on_c, 0, 82, 0
1, 3204, Note_on_c, 0, 80, 75
1, 3215, Note_on_c, 1, 72, 0
1, 3215, Note_on_c, 1, 68, 0
1, 3216, Note_on_c, 0, 80, 0
1, 3216, Note_on_c, 0, 82, 75
1, 3216, Note_on_c, 1, 72, 61
1, 3216, Note_on_c, 1, 68, 61
1, 3228, Note_on_c, 0, 82, 0
1, 3228, Note_on_c, 0, 80, 75
1, 3240, Note_on_c, 0, 80, 0
1, 3240, Note_on_c, 0, 79, 75
1, 3252, Note_on_c, 0, 79, 0
1, 3252, Note_on_c, 0, 77, 75
1, 3263, Note_on_c, 1, 72, 0
1, 3263, Note_on_c, 1, 68, 0
1, 3264, Note_on_c, 0, 77, 0
1, 3264, Note_on_c, 0, 77, 75
1, 3312, Note_on_c, 1, 70, 61
1, 3312, Note_on_c, 1, 67, 61
1, 3359, Note_on_c, 1, 70, 0
1, 3359, Note_on_c, 1, 67, 0
1, 3360, Note_on_c, 0, 77, 0
1, 3360, Note_on_c, 0, 76, 75
1, 3360, Note_on_c, 1, 70, 61
1, 3360, Note_on_c, 1, 67, 61
1, 3366, Note_on_c, 0, 76, 0
1, 3366, Note_on_c, 0, 77, 75
1, 3372, Note_on_c, 0, 77, 0
1, 3372, Note_on_c, 0, 76, 75
1, 3407, Note_on_c, 1, 70, 0
1, 3407, Note_on_c, 1, 67, 0
1, 3408, Note_on_c, 1, 70, 61
1, 3408, Note_on_c, 1, 67, 61
1, 3427, Note_on_c, 0, 76, 0
1, 3432, Note_on_c, 0, 79, 75
1, 3455, Note_on_c, 0, 79, 0
1, 3455, Note_on_c, 1, 70, 0
1, 3455, Note_on_c, 1, 67, 0
1, 3456, Note_on_c, 0, 73, 75
1, 3462, Note_on_c, 0, 73, 0
1, 3462, Note_on_c, 0, 75, 75
1, 3468, Note_on_c, 0, 75, 0
1, 3468, Note_on_c, 0, 73, 75
1, 3504, Note_on_c, 1, 67, 61
1, 3504, Note_on_c, 1, 64, 61
1, 3549, Note_on_c, 0, 73, 0
1, 3551, Note_on_c, 1, 67, 0
1, 3551, Note_on_c, 1, 64, 0
1, 3552, Note_on_c, 0, 72, 75
1, 3552, Note_on_c, 1, 67, 61
1, 3552, Note_on_c, 1, 64, 61
1, 3599, Note_on_c, 1, 67, 0
1, 3599, Note_on_c, 1, 64, 0
1, 3600, Note_on_c, 1, 67, 61
1, 3600, Note_on_c, 1, 64, 61
1, 3619, Note_on_c, 0, 72, 0
1, 3624, Note_on_c, 0, 70, 75
1, 3647, Note_on_c, 0, 70, 0
1, 3647, Note_on_c, 1, 67, 0
1, 3647, Note_on_c, 1, 64, 0
1, 3648, Note_on_c, 0, 68, 75
1, 3648, Note_on_c, 1, 65, 61
1, 3663, Note_on_c, 0, 68, 0
1, 3664, Note_on_c, 0, 65, 75
1, 3679, Note_on_c, 0, 65, 0
1, 3680, Note_on_c, 0, 67, 75
1, 3695, Note_on_c, 0, 67, 0
1, 3695, Note_on_c, 1, 65, 0
1, 3696, Note_on_c, 0, 68, 75
1, 3711, Note_on_c, 0, 68, 0
1, 3712, Note_on_c, 0, 70, 75
1, 3727, Note_on_c, 0, 70, 0
1, 3728, Note_on_c, 0, 72, 75
1, 3743, Note_on_c, 0, 72, 0
1, 3744, Note_on_c, 0, 74, 75
1, 3759, Note_on_c, 0, 74, 0
1, 3760, Note_on_c, 0, 76, 75
1, 3775, Note_on_c, 0, 76, 0
1, 3776, Note_on_c, 0, 77, 75
1, 3791, Note_on_c, 0, 77, 0
1, 3792, Note_on_c, 0, 79, 75
1, 3807, Note_on_c, 0, 79, 0
1, 3808, Note_on_c, 0, 80, 75
1, 3823, Note_on_c, 0, 80, 0
1, 3824, Note_on_c, 0, 82, 75
1, 3839, Note_on_c, 0, 82, 0
1, 3840, Note_on_c, 0, 84, 75
1, 3888, Note_on_c, 1, 72, 61
1, 3888, Note_on_c, 1, 68, 61
1, 3935, Note_on_c, 1, 72, 0
1, 3935, Note_on_c, 1, 68, 0
1, 3936, Note_on_c, 1, 72, 61
1, 3936, Note_on_c, 1, 68, 61
1, 3959, Note_on_c, 0, 84, 0
1, 3960, Note_on_c, 0, 82, 75
1, 3972, Note_on_c, 0, 82, 0
1, 3972, Note_on_c, 0, 80, 75
1, 3983, Note_on_c, 1, 72, 0
1, 3983, Note_on_c, 1, 68, 0
1, 3984, Note_on_c, 0, 80, 0
1, 3984, Note_on_c, 0, 82, 75
1, 3984, Note_on_c, 1, 72, 61
1, 3984, Note_on_c, 1, 68, 61
1, 3996, Note_on_c, 0, 82, 0
1, 3996, Note_on_c, 0, 80, 75
1, 4008, Note_on_c, 0, 80, 0
1, 4008, Note_on_c, 0, 79, 75
1, 4020, Note_on_c, 0, 79, 0
1, 4020, Note_on_c, 0, 77, 75
1, 4031, Note_on_c, 1, 72, 0
1, 4031, Note_on_c, 1, 68, 0
1, 4032, Note_on_c, 0, 77, 0
1, 4032, Note_on_c, 0, 75, 75
1, 4080, Note_on_c, 1, 70, 61
1, 4080, Note_on_c, 1, 68, 61
1, 4121, Note_on_c, 0, 75, 0
1, 4127, Note_on_c, 1, 70, 0
1, 4127, Note_on_c, 1, 68, 0
1, 4128, Note_on_c, 0, 74, 75
1, 4128, Note_on_c, 1, 70, 61
1, 4128, Note_on_c, 1, 68, 61
1, 4137, Note_on_c, 0, 74, 0
1, 4137, Note_on_c, 0, 75, 75
1, 4146, Note_on_c, 0, 75, 0
1, 4146, Note_on_c, 0, 74, 75
1, 4155, Note_on_c, 0, 74, 0
1, 4155, Note_on_c, 0, 75, 75
1, 4164, Note_on_c, 0, 75, 0
1, 4164, Note_on_c, 0, 74, 75
1, 4173, Note_on_c, 0, 74, 0
1, 4173, Note_on_c, 0, 75, 75
1, 4175, Note_on_c, 1, 70, 0
1, 4175, Note_on_c, 1, 68, 0
1, 4176, Note_on_c, 1, 70, 61
1, 4176, Note_on_c, 1, 68, 61
1, 4182, Note_on_c, 0, 75, 0
1, 4182, Note_on_c, 0, 74, 75
1, 4191, Note_on_c, 0, 74, 0
1, 4191, Note_on_c, 0, 75, 75
1, 4200, Note_on_c, 0, 75, 0
1, 4200, Note_on_c, 0, 74, 75
1, 4208, Note_on_c, 0, 74, 0
1, 4208, Note_on_c, 0, 75, 75
1, 4216, Note_on_c, 0, 75, 0
1, 4216, Note_on_c, 0, 77, 75
1, 4223, Note_on_c, 1, 70, 0
1, 4223, Note_on_c, 1, 68, 0
1, 4224, Note_on_c, 0, 77, 0
1, 4224, Note_on_c, 0, 75, 75
1, 4224, Note_on_c, 1, 70, 61
1, 4224, Note_on_c, 1, 67, 61
1, 4244, Note_on_c, 0, 75, 0
1, 4271, Note_on_c, 1, 70, 0
1, 4271, Note_on_c, 1, 67, 0
1, 4272, Note_on_c, 0, 68, 91
1, 4272, Note_on_c, 0, 65, 91
1, 4272, Note_on_c, 1, 62, 61
1, 4317, Note_on_c, 1, 62, 0
1, 4320, Note_on_c, 1, 63, 61
1, 4365, Note_on_c, 1, 63, 0
1, 4368, Note_on_c, 0, 68, 0
1, 4368, Note_on_c, 0, 65, 0
1, 4368, Note_on_c, 0, 67, 75
1, 4368, Note_on_c, 0, 63, 75
1, 4368, Note_on_c, 1, 57, 61
1, 4413, Note_on_c, 0, 67, 0
1, 4413, Note_on_c, 0, 63, 0
1, 4413, Note_on_c, 1, 57, 0
1, 4416, Note_on_c, 0, 65, 75
1, 4416, Note_on_c, 0, 62, 75
1, 4416, Note_on_c, 1, 58, 61
1, 4463, Note_on_c, 0, 65, 0
1, 4463, Note_on_c, 0, 62, 0
1, 4464, Note_on_c, 0, 58, 75
1, 4479, Note_on_c, 0, 58, 0
1, 4480, Note_on_c, 0, 62, 75
1, 4495, Note_on_c, 0, 62, 0
1, 4496, Note_on_c, 0, 60, 75
1, 4505, Note_on_c, 1, 58, 0
1, 4511, Note_on_c, 0, 60, 0
1, 4512, Note_on_c, 0, 58, 75
1, 4527, Note_on_c, 0, 58, 0
1, 4528, Note_on_c, 0, 60, 76
1, 4543, Note_on_c, 0, 60, 0
1, 4544, Note_on_c, 0, 62, 77
1, 4559, Note_on_c, 0, 62, 0
1, 4560, Note_on_c, 0, 63, 78
1, 4575, Note_on_c, 0, 63, 0
1, 4576, Note_on_c, 0, 65, 79
1, 4591, Note_on_c, 0, 65, 0
1, 4592, Note_on_c, 0, 67, 80
1, 4607, Note_on_c, 0, 67, 0
1, 4608, Note_on_c, 1, 68, 84
1, 4608, Note_on_c, 1, 65, 84
1, 4608, Note_on_c, 1, 58, 84
1, 4624, Note_on_c, 0, 74, 84
1, 4639, Note_on_c, 0, 74, 0
1, 4640, Note_on_c, 0, 75, 84
1, 4655, Note_on_c, 0, 75, 0
1, 4656, Note_on_c, 0, 77, 84
1, 4671, Note_on_c, 0, 77, 0
1, 4672, Note_on_c, 0, 75, 84
1, 4687, Note_on_c, 0, 75, 0
1, 4688, Note_on_c, 0, 74, 84
1, 4697, Note_on_c, 1, 68, 0
1, 4697, Note_on_c, 1, 65, 0
1, 4697, Note_on_c, 1, 58, 0
1, 4703, Note_on_c, 0, 74, 0
1, 4704, Note_on_c, 1, 67, 84
1, 4704, Note_on_c, 1, 63, 84
1, 4704, Note_on_c, 1, 58, 84
1, 4720, Note_on_c, 0, 75, 84
1, 4735, Note_on_c, 0, 75, 0
1, 4736, Note_on_c, 0, 77, 84
1, 4751, Note_on_c, 0, 77, 0
1, 4752, Note_on_c, 0, 79, 84
1, 4767, Note_on_c, 0, 79, 0
1, 4768, Note_on_c, 0, 77, 84
1, 4783, Note_on_c, 0, 77, 0
1, 4784, Note_on_c, 0, 75, 84
1, 4793, Note_on_c, 1, 67, 0
1, 4793, Note_on_c, 1, 63, 0
1, 4793, Note_on_c, 1, 58, 0
1, 4799, Note_on_c, 0, 75, 0
1, 4800, Note_on_c, 0, 77, 84
1, 4800, Note_on_c, 1, 65, 84
1, 4800, Note_on_c, 1, 62, 84
1, 4800, Note_on_c, 1, 58, 84
1, 4815, Note_on_c, 0, 77, 0
1, 4816, Note_on_c, 0, 80, 84
1, 4831, Note_on_c, 0, 80, 0
1, 4832, Note_on_c, 0, 79, 84
1, 4847, Note_on_c, 0, 79, 0
1, 4848, Note_on_c, 0, 77, 84
1, 4863, Note_on_c, 0, 77, 0
1, 4864, Note_on_c, 0, 75, 84
1, 4879, Note_on_c, 0, 75, 0
1, 4880, Note_on_c, 0, 74, 84
1, 4889, Note_on_c, 1, 65, 0
1, 4889, Note_on_c, 1, 62, 0
1, 4889, Note_on_c, 1, 58, 0
1, 4895, Note_on_c, 0, 74, 0
1, 4896, Note_on_c, 0, 72, 84
1, 4911, Note_on_c, 0, 72, 0
1, 4912, Note_on_c, 0, 70, 84
1, 4927, Note_on_c, 0, 70, 0
1, 4928, Note_on_c, 0, 68, 84
1, 4943, Note_on_c, 0, 68, 0
1, 4944, Note_on_c, 0, 67, 84
1, 4959, Note_on_c, 0, 67, 0
1, 4960, Note_on_c, 0, 65, 84
1, 4975, Note_on_c, 0, 65, 0
1, 4976, Note_on_c, 0, 63, 84
1, 4991, Note_on_c, 0, 63, 0
1, 4992, Note_on_c, 1, 56, 84
1, 4992, Note_on_c, 1, 53, 84
1, 4992, Note_on_c, 1, 46, 84
1, 5008, Note_on_c, 0, 62, 84
1, 5023, Note_on_c, 0, 62, 0
1, 5024, Note_on_c, 0, 63, 84
1, 5039, Note_on_c, 0, 63, 0
1, 5040, Note_on_c, 0, 65, 84
1, 5055, Note_on_c, 0, 65, 0
1, 5056, Note_on_c, 0, 63, 84
1, 5071, Note_on_c, 0, 63, 0
1, 5072, Note_on_c, 0, 62, 84
1, 5081, Note_on_c, 1, 56, 0
1, 5081, Note_on_c, 1, 53, 0
1, 5081, Note_on_c, 1, 46, 0
1, 5087, Note_on_c, 0, 62, 0
1, 5088, Note_on_c, 1, 55, 84
1, 5088, Note_on_c, 1, 51, 84
1, 5088, Note_on_c, 1, 46, 84
1, 5104, Note_on_c, 0, 63, 84
1, 5119, Note_on_c, 0, 63, 0
1, 5120, Note_on_c, 0, 65, 84
1, 5135, Note_on_c, 0, 65, 0
1, 5136, Note_on_c, 0, 67, 84
1, 5151, Note_on_c, 0, 67, 0
1, 5152, Note_on_c, 0, 65, 84
1, 5167, Note_on_c, 0, 65, 0
1, 5168, Note_on_c, 0, 63, 84
1, 5177, Note_on_c, 1, 55, 0
1, 5177, Note_on_c, 1, 51, 0
1, 5177, Note_on_c, 1, 46, 0
1, 5183, Note_on_c, 0, 63, 0
1, 5184, Note_on_c, 0, 65, 84
1, 5184, Note_on_c, 1, 53, 84
1, 5184, Note_on_c, 1, 50, 84
1, 5184, Note_on_c, 1, 46, 84
1, 5199, Note_on_c, 0, 65, 0
1, 5200, Note_on_c, 0, 68, 84
1, 5215, Note_on_c, 0, 68, 0
1, 5216, Note_on_c, 0, 67, 84
1, 5231, Note_on_c, 0, 67, 0
1, 5232, Note_on_c, 0, 65, 84
1, 5247, Note_on_c, 0, 65, 0
1, 5248, Note_on_c, 0, 63, 84
1, 5263, Note_on_c, 0, 63, 0
1, 5264, Note_on_c, 0, 62, 84
1, 5273, Note_on_c, 1, 53, 0
1, 5273, Note_on_c, 1, 50, 0
1, 5273, Note_on_c, 1, 46, 0
1, 5279, Note_on_c, 0, 62, 0
1, 5280, Note_on_c, 0, 60, 84
1, 5295, Note_on_c, 0, 60, 0
1, 5296, Note_on_c, 0, 58, 84
1, 5311, Note_on_c, 0, 58, 0
1, 5312, Note_on_c, 0, 56, 84
1, 5327, Note_on_c, 0, 56, 0
1, 5328, Note_on_c, 0, 55, 84
1, 5343, Note_on_c, 0, 55, 0
1, 5344, Note_on_c, 0, 53, 84
1, 5359, Note_on_c, 0, 53, 0
1, 5360, Note_on_c, 0, 51, 84
1, 5375, Note_on_c, 0, 51, 0
1, 5376, Note_on_c, 0, 50, 84
1, 5392, Note_on_c, 1, 46, 84
1, 5396, Note_on_c, 0, 50, 0
1, 5407, Note_on_c, 1, 46, 0
1, 5408, Note_on_c, 1, 34, 84
1, 5423, Note_on_c, 1, 34, 0
1, 5424, Note_on_c, 0, 51, 84
1, 5424, Note_on_c, 0, 48, 84
1, 5440, Note_on_c, 1, 46, 84
1, 5444, Note_on_c, 0, 51, 0
1, 5444, Note_on_c, 0, 48, 0
1, 5455, Note_on_c, 1, 46, 0
1, 5456, Note_on_c, 1, 34, 84
1, 5471, Note_on_c, 1, 34, 0
1, 5472, Note_on_c, 0, 53, 84
1, 5472, Note_on_c, 0, 50, 84
1, 5488, Note_on_c, 1, 46, 84
1, 5492, Note_on_c, 0, 53, 0
1, 5492, Note_on_c, 0, 50, 0
1, 5503, Note_on_c, 1, 46, 0
1, 5504, Note_on_c, 1, 34, 84
1, 5519, Note_on_c, 1, 34, 0
1, 5520, Note_on_c, 0, 55, 84
1, 5520, Note_on_c, 0, 51, 84
1, 5536, Note_on_c, 1, 46, 84
1, 5540, Note_on_c, 0, 55, 0
1, 5540, Note_on_c, 0, 51, 0
1, 5551, Note_on_c, 1, 46, 0
1, 5552, Note_on_c, 1, 34, 84
1, 5567, Note_on_c, 1, 34, 0
1, 5568, Note_on_c, 0, 56, 84
1, 5568, Note_on_c, 0, 53, 84
1, 5584, Note_on_c, 1, 46, 84
1, 5588, Note_on_c, 0, 56, 0
1, 5588, Note_on_c, 0, 53, 0
1, 5599, Note_on_c, 1, 46, 0
1, 5600, Note_on_c, 1, 34, 84
1, 5615, Note_on_c, 1, 34, 0
1, 5616, Note_on_c, 0, 53, 84
1, 5616, Note_on_c, 0, 50, 84
1, 5632, Note_on_c, 1, 46, 84
1, 5636, Note_on_c, 0, 53, 0
1, 5636, Note_on_c, 0, 50, 0
1, 5647, Note_on_c, 1, 46, 0
1, 5648, Note_on_c, 1, 34, 84
1, 5663, Note_on_c, 1, 34, 0
1, 5664, Note_on_c, 0, 55, 84
1, 5664, Note_on_c, 0, 51, 84
1, 5680, Note_on_c, 1, 46, 84
1, 5684, Note_on_c, 0, 55, 0
1, 5684, Note_on_c, 0, 51, 0
1, 5695, Note_on_c, 1, 46, 0
1, 5696, Note_on_c, 1, 34, 84
1, 5711, Note_on_c, 1, 34, 0
1, 5712, Note_on_c, 0, 58, 84
1, 5712, Note_on_c, 0, 55, 84
1, 5728, Note_on_c, 1, 46, 84
1, 5732, Note_on_c, 0, 58, 0
1, 5732, Note_on_c, 0, 55, 0
1, 5743, Note_on_c, 1, 46, 0
1, 5744, Note_on_c, 1, 34, 84
1, 5759, Note_on_c, 1, 34, 0
1, 5760, Note_on_c, 0, 50, 84
1, 5760, Note_on_c, 0, 46, 84
1, 5776, Note_on_c, 1, 46, 84
1, 5780, Note_on_c, 0, 50, 0
1, 5780, Note_on_c, 0, 46, 0
1, 5791, Note_on_c, 1, 46, 0
1, 5792, Note_on_c, 1, 34, 84
1, 5807, Note_on_c, 1, 34, 0
1, 5808, Note_on_c, 0, 51, 84
1, 5808, Note_on_c, 0, 48, 84
1, 5824, Note_on_c, 1, 46, 84
1, 5828, Note_on_c, 0, 51, 0
1, 5828, Note_on_c, 0, 48, 0
1, 5839, Note_on_c, 1, 46, 0
1, 5840, Note_on_c, 1, 34, 84
1, 5855, Note_on_c, 1, 34, 0
1, 5856, Note_on_c, 0, 53, 84
1, 5856, Note_on_c, 0, 50, 84
1, 5872, Note_on_c, 1, 46, 84
1, 5876, Note_on_c, 0, 53, 0
1, 5876, Note_on_c, 0, 50, 0
1, 5887, Note_on_c, 1, 46, 0
1, 5888, Note_on_c, 1, 34, 84
1, 5903, Note_on_c, 1, 34, 0
1, 5904, Note_on_c, 0, 55, 84
1, 5904, Note_on_c, 0, 51, 84
1, 5920, Note_on_c, 1, 46, 85
1, 5924, Note_on_c, 0, 55, 0
1, 5924, Note_on_c, 0, 51, 0
1, 5935, Note_on_c, 1, 46, 0
1, 5936, Note_on_c, 1, 34, 86
1, 5951, Note_on_c, 1, 34, 0
1, 5952, Note_on_c, 0, 56, 84
1, 5952, Note_on_c, 0, 53, 84
1, 5968, Note_on_c, 1, 46, 88
1, 5972, Note_on_c, 0, 56, 0
1, 5972, Note_on_c, 0, 53, 0
1, 5983, Note_on_c, 1, 46, 0
1, 5984, Note_on_c, 1, 34, 89
1, 5999, Note_on_c, 1, 34, 0
1, 6000, Note_on_c, 0, 53, 87
1, 6000, Note_on_c, 0, 50, 87
1, 6016, Note_on_c, 1, 46, 91
1, 6020, Note_on_c, 0, 53, 0
1, 6020, Note_on_c, 0, 50, 0
1, 6031, Note_on_c, 1, 46, 0
1, 6032, Note_on_c, 1, 34, 92
1, 6047, Note_on_c, 1, 34, 0
1, 6048, Note_on_c, 0, 55, 91
1, 6048, Note_on_c, 0, 51, 91
1, 6064, Note_on_c, 1, 46, 95
1, 6068, Note_on_c, 0, 55, 0
1, 6068, Note_on_c, 0, 51, 0
1, 6079, Note_on_c, 1, 46, 0
1, 6080, Note_on_c, 1, 34, 96
1, 6095, Note_on_c, 1, 34, 0
1, 6096, Note_on_c, 0, 57, 95
1, 6096, Note_on_c, 0, 51, 95
1, 6096, Note_on_c, 0, 48, 95
1, 6112, Note_on_c, 1, 46, 98
1, 6116, Note_on_c, 0, 57, 0
1, 6116, Note_on_c, 0, 51, 0
1, 6116, Note_on_c, 0, 48, 0
1, 6127, Note_on_c, 1, 46, 0
1, 6128, Note_on_c, 1, 34, 99
1, 6143, Note_on_c, 1, 34, 0
1, 6144, Note_on_c, 0, 58, 98
1, 6144, Note_on_c, 0, 53, 98
1, 6144, Note_on_c, 0, 50, 98
1, 6160, Note_on_c, 1, 46, 106
1, 6175, Note_on_c, 1, 46, 0
1, 6176, Note_on_c, 1, 34, 106
1, 6329, Note_on_c, 0, 58, 0
1, 6329, Note_on_c, 0, 53, 0
1, 6329, Note_on_c, 0, 50, 0
1, 6329, Note_on_c, 1, 34, 0
1, 6528, Note_on_c, 0, 82, 69
1, 6528, Note_on_c, 0, 79, 69
1, 6544, Note_on_c, 1, 63, 69
1, 6559, Note_on_c, 1, 63, 0
1, 6560, Note_on_c, 1, 65, 69
1, 6575, Note_on_c, 1, 65, 0
1, 6576, Note_on_c, 1, 67, 69
1, 6591, Note_on_c, 1, 67, 0
1, 6592, Note_on_c, 1, 65, 69
1, 6607, Note_on_c, 1, 65, 0
1, 6608, Note_on_c, 1, 63, 69
1, 6617, Note_on_c, 0, 82, 0
1, 6617, Note_on_c, 0, 79, 0
1, 6623, Note_on_c, 1, 63, 0
1, 6624, Note_on_c, 0, 82, 69
1, 6624, Note_on_c, 0, 80, 69
1, 6624, Note_on_c, 1, 62, 69
1, 6639, Note_on_c, 1, 62, 0
1, 6640, Note_on_c, 1, 65, 69
1, 6655, Note_on_c, 1, 65, 0
1, 6656, Note_on_c, 1, 70, 69
1, 6671, Note_on_c, 1, 70, 0
1, 6672, Note_on_c, 1, 74, 69
1, 6687, Note_on_c, 1, 74, 0
1, 6688, Note_on_c, 1, 72, 69
1, 6703, Note_on_c, 1, 72, 0
1, 6704, Note_on_c, 1, 70, 69
1, 6713, Note_on_c, 0, 82, 0
1, 6713, Note_on_c, 0, 80, 0
1, 6719, Note_on_c, 1, 70, 0
1, 6720, Note_on_c, 0, 82, 69
1, 6720, Note_on_c, 0, 79, 69
1, 6720, Note_on_c, 1, 75, 69
1, 6735, Note_on_c, 0, 82, 0
1, 6735, Note_on_c, 0, 79, 0
1, 6736, Note_on_c, 0, 79, 69
1, 6751, Note_on_c, 0, 79, 0
1, 6752, Note_on_c, 0, 80, 69
1, 6767, Note_on_c, 0, 80, 0
1, 6768, Note_on_c, 0, 82, 69
1, 6783, Note_on_c, 0, 82, 0
1, 6784, Note_on_c, 0, 80, 69
1, 6799, Note_on_c, 0, 80, 0
1, 6800, Note_on_c, 0, 79, 69
1, 6809, Note_on_c, 1, 75, 0
1, 6815, Note_on_c, 0, 79, 0
1, 6816, Note_on_c, 0, 87, 69
1, 6831, Note_on_c, 0, 87, 0
1, 6832, Note_on_c, 0, 86, 69
1, 6847, Note_on_c, 0, 86, 0
1, 6848, Note_on_c, 0, 84, 69
1, 6863, Note_on_c, 0, 84, 0
1, 6864, Note_on_c, 0, 82, 69
1, 6879, Note_on_c, 0, 82, 0
1, 6880, Note_on_c, 0, 80, 69
1, 6895, Note_on_c, 0, 80, 0
1, 6896, Note_on_c, 0, 79, 69
1, 6911, Note_on_c, 0, 79, 0
1, 6912, Note_on_c, 0, 82, 61
1, 6912, Note_on_c, 0, 79, 61
1, 6928, Note_on_c, 1, 63, 61
1, 6943, Note_on_c, 1, 63, 0
1, 6944, Note_on_c, 1, 65, 61
1, 6959, Note_on_c, 1, 65, 0
1, 6960, Note_on_c, 1, 67, 61
1, 6975, Note_on_c, 1, 67, 0
1, 6976, Note_on_c, 1, 65, 61
1, 6991, Note_on_c, 1, 65, 0
1, 6992, Note_on_c, 1, 63, 61
1, 7001, Note_on_c, 0, 82, 0
1, 7001, Note_on_c, 0, 79, 0
1, 7007, Note_on_c, 1, 63, 0
1, 7008, Note_on_c, 0, 82, 61
1, 7008, Note_on_c, 0, 80, 61
1, 7008, Note_on_c, 1, 62, 61
1, 7023, Note_on_c, 1, 62, 0
1, 7024, Note_on_c, 1, 65, 61
1, 7039, Note_on_c, 1, 65, 0
1, 7040, Note_on_c, 1, 70, 61
1, 7055, Note_on_c, 1, 70, 0
1, 7056, Note_on_c, 1, 74, 61
1, 7071, Note_on_c, 1, 74, 0
1, 7072, Note_on_c, 1, 72, 61
1, 7087, Note_on_c, 1, 72, 0
1, 7088, Note_on_c, 1, 70, 61
1, 7097, Note_on_c, 0, 82, 0
1, 7097, Note_on_c, 0, 80, 0
1, 7103, Note_on_c, 1, 70, 0
1, 7104, Note_on_c, 0, 82, 61
1, 7104, Note_on_c, 0, 79, 61
1, 7104, Note_on_c, 1, 75, 61
1, 7119, Note_on_c, 0, 82, 0
1, 7119, Note_on_c, 0, 79, 0
1, 7120, Note_on_c, 0, 79, 61
1, 7135, Note_on_c, 0, 79, 0
1, 7136, Note_on_c, 0, 80, 61
1, 7151, Note_on_c, 0, 80, 0
1, 7152, Note_on_c, 0, 82, 61
1, 7167, Note_on_c, 0, 82, 0
1, 7168, Note_on_c, 0, 80, 61
1, 7183, Note_on_c, 0, 80, 0
1, 7184, Note_on_c, 0, 79, 61
1, 7193, Note_on_c, 1, 75, 0
1, 7199, Note_on_c, 0, 79, 0
1, 7200, Note_on_c, 0, 87, 61
1, 7215, Note_on_c, 0, 87, 0
1, 7216, Note_on_c, 0, 86, 61
1, 7231, Note_on_c, 0, 86, 0
1, 7232, Note_on_c, 0, 84, 61
1, 7247, Note_on_c, 0, 84, 0
1, 7248, Note_on_c, 0, 82, 61
1, 7263, Note_on_c, 0, 82, 0
1, 7264, Note_on_c, 0, 80, 61
1, 7279, Note_on_c, 0, 80, 0
1, 7280, Note_on_c, 0, 79, 61
1, 7295, Note_on_c, 0, 79, 0
1, 7296, Note_on_c, 0, 77, 69
1, 7296, Note_on_c, 1, 65, 69
1, 7296, Note_on_c, 1, 60, 69
1, 7296, Note_on_c, 1, 56, 69
1, 7311, Note_on_c, 0, 77, 0
1, 7312, Note_on_c, 0, 77, 69
1, 7327, Note_on_c, 0, 77, 0
1, 7328, Note_on_c, 0, 79, 69
1, 7343, Note_on_c, 0, 79, 0
1, 7344, Note_on_c, 0, 80, 69
1, 7359, Note_on_c, 0, 80, 0
1, 7360, Note_on_c, 0, 79, 69
1, 7375, Note_on_c, 0, 79, 0
1, 7376, Note_on_c, 0, 77, 69
1, 7385, Note_on_c, 1, 65, 0
1, 7385, Note_on_c, 1, 60, 0
1, 7385, Note_on_c, 1, 56, 0
1, 7391, Note_on_c, 0, 77, 0
1, 7392, Note_on_c, 0, 84, 69
1, 7407, Note_on_c, 0, 84, 0
1, 7408, Note_on_c, 0, 82, 69
1, 7423, Note_on_c, 0, 82, 0
1, 7424, Note_on_c, 0, 80, 69
1, 7439, Note_on_c, 0, 80, 0
1, 7440, Note_on_c, 0, 79, 69
1, 7455, Note_on_c, 0, 79, 0
1, 7456, Note_on_c, 0, 77, 69
1, 7471, Note_on_c, 0, 77, 0
1, 7472, Note_on_c, 0, 75, 69
1, 7487, Note_on_c, 0, 75, 0
1, 7488, Note_on_c, 0, 74, 69
1, 7488, Note_on_c, 1, 68, 69
1, 7488, Note_on_c, 1, 65, 69
1, 7488, Note_on_c, 1, 58, 69
1, 7503, Note_on_c, 0, 74, 0
1, 7504, Note_on_c, 0, 77, 69
1, 7519, Note_on_c, 0, 77, 0
1, 7520, Note_on_c, 0, 75, 69
1, 7535, Note_on_c, 0, 75, 0
1, 7536, Note_on_c, 0, 74, 69
1, 7551, Note_on_c, 0, 74, 0
1, 7552, Note_on_c, 0, 72, 69
1, 7567, Note_on_c, 0, 72, 0
1, 7568, Note_on_c, 0, 70, 69
1, 7577, Note_on_c, 1, 68, 0
1, 7577, Note_on_c, 1, 65, 0
1, 7577, Note_on_c, 1, 58, 0
1, 7583, Note_on_c, 0, 70, 0
1, 7584, Note_on_c, 0, 68, 69
1, 7599, Note_on_c, 0, 68, 0
1, 7600, Note_on_c, 0, 67, 69
1, 7615, Note_on_c, 0, 67, 0
1, 7616, Note_on_c, 0, 65, 70
1, 7631, Note_on_c, 0, 65, 0
1, 7632, Note_on_c, 0, 63, 71
1, 7647, Note_on_c, 0, 63, 0
1, 7648, Note_on_c, 0, 62, 72
1, 7663, Note_on_c, 0, 62, 0
1, 7664, Note_on_c, 0, 60, 72
1, 7679, Note_on_c, 0, 60, 0
1, 7680, Note_on_c, 0, 58, 91
1, 7680, Note_on_c, 1, 56, 75
1, 7680, Note_on_c, 1, 46, 64
1, 7696, Note_on_c, 0, 58, 0
1, 7696, Note_on_c, 0, 62, 75
1, 7711, Note_on_c, 0, 62, 0
1, 7712, Note_on_c, 0, 65, 75
1, 7725, Note_on_c, 1, 56, 0
1, 7727, Note_on_c, 0, 65, 0
1, 7728, Note_on_c, 0, 58, 75
1, 7728, Note_on_c, 1, 55, 75
1, 7743, Note_on_c, 0, 58, 0
1, 7744, Note_on_c, 0, 62, 75
1, 7759, Note_on_c, 0, 62, 0
1, 7760, Note_on_c, 0, 63, 75
1, 7773, Note_on_c, 1, 55, 0
1, 7775, Note_on_c, 0, 63, 0
1, 7776, Note_on_c, 0, 56, 75
1, 7776, Note_on_c, 1, 53, 75
1, 7791, Note_on_c, 0, 56, 0
1, 7792, Note_on_c, 0, 58, 75
1, 7807, Note_on_c, 0, 58, 0
1, 7808, Note_on_c, 0, 62, 75
1, 7821, Note_on_c, 1, 53, 0
1, 7823, Note_on_c, 0, 62, 0
1, 7824, Note_on_c, 0, 55, 75
1, 7824, Note_on_c, 1, 51, 75
1, 7839, Note_on_c, 0, 55, 0
1, 7840, Note_on_c, 0, 58, 75
1, 7855, Note_on_c, 0, 58, 0
1, 7856, Note_on_c, 0, 63, 75
1, 7857, Note_on_c, 1, 46, 0
1, 7869, Note_on_c, 1, 51, 0
1, 7871, Note_on_c, 0, 63, 0
1, 7872, Note_on_c, 0, 58, 91
1, 7872, Note_on_c, 1, 56, 75
1, 7872, Note_on_c, 1, 46, 64
1, 7888, Note_on_c, 0, 58, 0
1, 7888, Note_on_c, 0, 62, 75
1, 7903, Note_on_c, 0, 62, 0
1, 7904, Note_on_c, 0, 65, 75
1, 7917, Note_on_c, 1, 56, 0
1, 7919, Note_on_c, 0, 65, 0
1, 7920, Note_on_c, 0, 58, 75
1, 7920, Note_on_c, 1, 55, 75
1, 7935, Note_on_c, 0, 58, 0
1, 7936, Note_on_c, 0, 62, 75
1, 7951, Note_on_c, 0, 62, 0
1, 7952, Note_on_c, 0, 63, 75
1, 7965, Note_on_c, 1, 55, 0
1, 7967, Note_on_c, 0, 63, 0
1, 7968, Note_on_c, 0, 56, 75
1, 7968, Note_on_c, 1, 53, 75
1, 7983, Note_on_c, 0, 56, 0
1, 7984, Note_on_c, 0, 58, 75
1, 7999, Note_on_c, 0, 58, 0
1, 8000, Note_on_c, 0, 62, 75
1, 8013, Note_on_c, 1, 53, 0
1, 8015, Note_on_c, 0, 62, 0
1, 8016, Note_on_c, 0, 55, 75
1, 8016, Note_on_c, 1, 51, 75
1, 8031, Note_on_c, 0, 55, 0
1, 8032, Note_on_c, 0, 58, 75
1, 8047, Note_on_c, 0, 58, 0
1, 8048, Note_on_c, 0, 63, 75
1, 8049, Note_on_c, 1, 46, 0
1, 8061, Note_on_c, 1, 51, 0
1, 8063, Note_on_c, 0, 63, 0
1, 8064, Note_on_c, 1, 44, 75
1, 8068, Note_on_c, 1, 48, 75
1, 8072, Note_on_c, 1, 53, 75
1, 8080, Note_on_c, 0, 60, 75
1, 8095, Note_on_c, 0, 60, 0
1, 8096, Note_on_c, 0, 65, 75
1, 8111, Note_on_c, 0, 65, 0
1, 8112, Note_on_c, 0, 68, 75
1, 8127, Note_on_c, 0, 68, 0
1, 8128, Note_on_c, 0, 65, 75
1, 8143, Note_on_c, 0, 65, 0
1, 8144, Note_on_c, 0, 68, 75
1, 8159, Note_on_c, 0, 68, 0
1, 8160, Note_on_c, 0, 72, 75
1, 8175, Note_on_c, 0, 72, 0
1, 8176, Note_on_c, 0, 68, 75
1, 8191, Note_on_c, 0, 68, 0
1, 8192, Note_on_c, 0, 72, 75
1, 8207, Note_on_c, 0, 72, 0
1, 8208, Note_on_c, 0, 77, 75
1, 8223, Note_on_c, 0, 77, 0
1, 8224, Note_on_c, 0, 72, 75
1, 8239, Note_on_c, 0, 72, 0
1, 8240, Note_on_c, 0, 77, 75
1, 8255, Note_on_c, 0, 77, 0
1, 8256, Note_on_c, 0, 80, 75
1, 8271, Note_on_c, 0, 80, 0
1, 8272, Note_on_c, 0, 77, 76
1, 8287, Note_on_c, 0, 77, 0
1, 8288, Note_on_c, 0, 80, 77
1, 8303, Note_on_c, 0, 80, 0
1, 8304, Note_on_c, 0, 84, 78
1, 8319, Note_on_c, 0, 84, 0
1, 8320, Note_on_c, 0, 77, 79
1, 8335, Note_on_c, 0, 77, 0
1, 8336, Note_on_c, 0, 80, 80
1, 8351, Note_on_c, 0, 80, 0
1, 8352, Note_on_c, 0, 84, 81
1, 8367, Note_on_c, 0, 84, 0
1, 8368, Note_on_c, 0, 82, 84
1, 8383, Note_on_c, 0, 82, 0
1, 8384, Note_on_c, 0, 80, 84
1, 8399, Note_on_c, 0, 80, 0
1, 8400, Note_on_c, 0, 79, 84
1, 8415, Note_on_c, 0, 79, 0
1, 8416, Note_on_c, 0, 77, 84
1, 8425, Note_on_c, 1, 53, 0
1, 8425, Note_on_c, 1, 48, 0
1, 8425, Note_on_c, 1, 44, 0
1, 8431, Note_on_c, 0, 77, 0
1, 8432, Note_on_c, 0, 75, 84
1, 8447, Note_on_c, 0, 75, 0
1, 8448, Note_on_c, 0, 75, 84
1, 8448, Note_on_c, 1, 68, 84
1, 8448, Note_on_c, 1, 65, 84
1, 8448, Note_on_c, 1, 58, 84
1, 8635, Note_on_c, 0, 75, 0
1, 8640, Note_on_c, 0, 74, 84
1, 8646, Note_on_c, 0, 74, 0
1, 8646, Note_on_c, 0, 75, 84
1, 8652, Note_on_c, 0, 75, 0
1, 8652, Note_on_c, 0, 74, 84
1, 8825, Note_on_c, 0, 74, 0
1, 8825, Note_on_c, 1, 68, 0
1, 8825, Note_on_c, 1, 65, 0
1, 8825, Note_on_c, 1, 58, 0
1, 8832, Note_on_c, 0, 64, 75
1, 8880, Note_on_c, 1, 58, 61
1, 8880, Note_on_c, 1, 55, 61
1, 8927, Note_on_c, 1, 58, 0
1, 8927, Note_on_c, 1, 55, 0
1, 8928, Note_on_c, 1, 58, 61
1, 8928, Note_on_c, 1, 55, 61
1, 8975, Note_on_c, 1, 58, 0
1, 8975, Note_on_c, 1, 55, 0
1, 8976, Note_on_c, 1, 58, 61
1, 8976, Note_on_c, 1, 55, 61
1, 9009, Note_on_c, 0, 64, 0
1, 9023, Note_on_c, 1, 58, 0
1, 9023, Note_on_c, 1, 55, 0
1, 9024, Note_on_c, 0, 65, 75
1, 9072, Note_on_c, 1, 60, 61
1, 9072, Note_on_c, 1, 56, 61
1, 9119, Note_on_c, 1, 60, 0
1, 9119, Note_on_c, 1, 56, 0
1, 9120, Note_on_c, 1, 60, 61
1, 9120, Note_on_c, 1, 56, 61
1, 9167, Note_on_c, 1, 60, 0
1, 9167, Note_on_c, 1, 56, 0
1, 9168, Note_on_c, 1, 60, 61
1, 9168, Note_on_c, 1, 56, 61
1, 9201, Note_on_c, 0, 65, 0
1, 9215, Note_on_c, 1, 60, 0
1, 9215, Note_on_c, 1, 56, 0
1, 9216, Note_on_c, 0, 61, 101
1, 9264, Note_on_c, 1, 51, 75
1, 9264, Note_on_c, 1, 43, 75
1, 9311, Note_on_c, 1, 51, 0
1, 9311, Note_on_c, 1, 43, 0
1, 9312, Note_on_c, 1, 51, 75
1, 9312, Note_on_c, 1, 43, 75
1, 9359, Note_on_c, 1, 51, 0
1, 9359, Note_on_c, 1, 43, 0
1, 9360, Note_on_c, 1, 51, 75
1, 9360, Note_on_c, 1, 43, 75
1, 9407, Note_on_c, 1, 51, 0
1, 9407, Note_on_c, 1, 43, 0
1, 9408, Note_on_c, 0, 61, 0
1, 9408, Note_on_c, 0, 60, 75
1, 9408, Note_on_c, 1, 51, 75
1, 9408, Note_on_c, 1, 44, 75
1, 9453, Note_on_c, 0, 60, 0
1, 9456, Note_on_c, 0, 71, 75
1, 9462, Note_on_c, 0, 71, 0
1, 9462, Note_on_c, 0, 72, 75
1, 9501, Note_on_c, 0, 72, 0
1, 9502, Note_on_c, 1, 51, 0
1, 9502, Note_on_c, 1, 44, 0
1, 9504, Note_on_c, 0, 67, 75
1, 9510, Note_on_c, 0, 67, 0
1, 9510, Note_on_c, 0, 68, 75
1, 9549, Note_on_c, 0, 68, 0
1, 9552, Note_on_c, 0, 64, 75
1, 9558, Note_on_c, 0, 64, 0
1, 9558, Note_on_c, 0, 65, 75
1, 9597, Note_on_c, 0, 65, 0
1, 9600, Note_on_c, 0, 60, 75
1, 9645, Note_on_c, 0, 60, 0
1, 9648, Note_on_c, 0, 71, 61
1, 9672, Note_on_c, 0, 71, 0
1, 9672, Note_on_c, 0, 72, 61
1, 9682, Note_on_c, 0, 72, 0
1, 9696, Note_on_c, 0, 67, 61
1, 9720, Note_on_c, 0, 67, 0
1, 9720, Note_on_c, 0, 68, 61
1, 9730, Note_on_c, 0, 68, 0
1, 9744, Note_on_c, 0, 64, 61
1, 9768, Note_on_c, 0, 64, 0
1, 9768, Note_on_c, 0, 65, 61
1, 9778, Note_on_c, 0, 65, 0
1, 9792, Note_on_c, 0, 60, 61
1, 9837, Note_on_c, 0, 60, 0
1, 9840, Note_on_c, 0, 71, 69
1, 9864, Note_on_c, 0, 71, 0
1, 9864, Note_on_c, 0, 72, 69
1, 9887, Note_on_c, 0, 72, 0
1, 9888, Note_on_c, 0, 70, 69
1, 9911, Note_on_c, 0, 70, 0
1, 9912, Note_on_c, 0, 68, 69
1, 9935, Note_on_c, 0, 68, 0
1, 9936, Note_on_c, 0, 67, 69
1, 9959, Note_on_c, 0, 67, 0
1, 9960, Note_on_c, 0, 65, 69
1, 9983, Note_on_c, 0, 65, 0
1, 9984, Note_on_c, 0, 67, 75
1, 9990, Note_on_c, 0, 67, 0
1, 9990, Note_on_c, 0, 68, 75
1, 9996, Note_on_c, 0, 68, 0
1, 9996, Note_on_c, 0, 70, 75
1, 10032, Note_on_c, 1, 55, 75
1, 10032, Note_on_c, 1, 46, 75
1, 10079, Note_on_c, 1, 55, 0
1, 10079, Note_on_c, 1, 46, 0
1, 10080, Note_on_c, 1, 55, 75
1, 10080, Note_on_c, 1, 46, 75
1, 10103, Note_on_c, 0, 70, 0
1, 10104, Note_on_c, 0, 68, 75
1, 10116, Note_on_c, 0, 68, 0
1, 10116, Note_on_c, 0, 67, 75
1, 10127, Note_on_c, 1, 55, 0
1, 10127, Note_on_c, 1, 46, 0
1, 10128, Note_on_c, 0, 67, 0
1, 10128, Note_on_c, 0, 65, 75
1, 10128, Note_on_c, 1, 55, 75
1, 10128, Note_on_c, 1, 46, 75
1, 10140, Note_on_c, 0, 65, 0
1, 10140, Note_on_c, 0, 63, 75
1, 10152, Note_on_c, 0, 63, 0
1, 10152, Note_on_c, 0, 62, 75
1, 10164, Note_on_c, 0, 62, 0
1, 10164, Note_on_c, 0, 60, 75
1, 10175, Note_on_c, 1, 55, 0
1, 10175, Note_on_c, 1, 46, 0
1, 10176, Note_on_c, 0, 60, 0
1, 10176, Note_on_c, 0, 58, 75
1, 10224, Note_on_c, 1, 55, 75
1, 10224, Note_on_c, 1, 46, 75
1, 10265, Note_on_c, 0, 58, 0
1, 10271, Note_on_c, 1, 55, 0
1, 10271, Note_on_c, 1, 46, 0
1, 10272, Note_on_c, 0, 56, 75
1, 10272, Note_on_c, 1, 53, 75
1, 10272, Note_on_c, 1, 46, 75
1, 10281, Note_on_c, 0, 56, 0
1, 10281, Note_on_c, 0, 58, 75
1, 10290, Note_on_c, 0, 58, 0
1, 10290, Note_on_c, 0, 56, 75
1, 10299, Note_on_c, 0, 56, 0
1, 10299, Note_on_c, 0, 58, 75
1, 10308, Note_on_c, 0, 58, 0
1, 10308, Note_on_c, 0, 56, 75
1, 10317, Note_on_c, 0, 56, 0
1, 10317, Note_on_c, 0, 58, 75
1, 10319, Note_on_c, 1, 53, 0
1, 10319, Note_on_c, 1, 46, 0
1, 10320, Note_on_c, 1, 53, 75
1, 10320, Note_on_c, 1, 46, 75
1, 10326, Note_on_c, 0, 58, 0
1, 10326, Note_on_c, 0, 56, 75
1, 10335, Note_on_c, 0, 56, 0
1, 10335, Note_on_c, 0, 55, 75
1, 10352, Note_on_c, 0, 55, 0
1, 10352, Note_on_c, 0, 56, 75
1, 10367, Note_on_c, 1, 53, 0
1, 10367, Note_on_c, 1, 46, 0
1, 10368, Note_on_c, 0, 56, 0
1, 10368, Note_on_c, 0, 55, 75
1, 10368, Note_on_c, 1, 51, 75
1, 10388, Note_on_c, 0, 55, 0
1, 10416, Note_on_c, 0, 63, 91
1, 10457, Note_on_c, 1, 51, 0
1, 10464, Note_on_c, 1, 55, 75
1, 10512, Note_on_c, 0, 63, 0
1, 10512, Note_on_c, 0, 61, 75
1, 10553, Note_on_c, 1, 55, 0
1, 10560, Note_on_c, 1, 56, 75
1, 10601, Note_on_c, 0, 61, 0
1, 10608, Note_on_c, 0, 60, 75
1, 10649, Note_on_c, 1, 56, 0
1, 10656, Note_on_c, 1, 44, 75
1, 10697, Note_on_c, 0, 60, 0
1, 10704, Note_on_c, 0, 64, 75
1, 10745, Note_on_c, 1, 44, 0
1, 10749, Note_on_c, 0, 64, 0
1, 10752, Note_on_c, 0, 67, 75
1, 10758, Note_on_c, 0, 67, 0
1, 10758, Note_on_c, 0, 65, 75
1, 10764, Note_on_c, 0, 65, 0
1, 10764, Note_on_c, 0, 64, 75
1, 10770, Note_on_c, 0, 64, 0
1, 10770, Note_on_c, 0, 65, 75
1, 10797, Note_on_c, 0, 65, 0
1, 10800, Note_on_c, 0, 67, 75
1, 10845, Note_on_c, 0, 67, 0
1, 10848, Note_on_c, 0, 70, 76
1, 10854, Note_on_c, 0, 70, 0
1, 10854, Note_on_c, 0, 68, 76
1, 10860, Note_on_c, 0, 68, 0
1, 10860, Note_on_c, 0, 67, 76
1, 10866, Note_on_c, 0, 67, 0
1, 10866, Note_on_c, 0, 68, 76
1, 10893, Note_on_c, 0, 68, 0
1, 10896, Note_on_c, 0, 71, 77
1, 10941, Note_on_c, 0, 71, 0
1, 10944, Note_on_c, 0, 74, 78
1, 10950, Note_on_c, 0, 74, 0
1, 10950, Note_on_c, 0, 72, 78
1, 10956, Note_on_c, 0, 72, 0
1, 10956, Note_on_c, 0, 71, 78
1, 10962, Note_on_c, 0, 71, 0
1, 10962, Note_on_c, 0, 72, 78
1, 10989, Note_on_c, 0, 72, 0
1, 10992, Note_on_c, 0, 76, 79
1, 10998, Note_on_c, 0, 76, 0
1, 10998, Note_on_c, 0, 79, 79
1, 11037, Note_on_c, 0, 79, 0
1, 11040, Note_on_c, 0, 77, 80
1, 11046, Note_on_c, 0, 77, 0
1, 11046, Note_on_c, 0, 80, 80
1, 11085, Note_on_c, 0, 80, 0
1, 11088, Note_on_c, 0, 79, 81
1, 11094, Note_on_c, 0, 79, 0
1, 11094, Note_on_c, 0, 82, 81
1, 11133, Note_on_c, 0, 82, 0
1, 11136, Note_on_c, 0, 80, 82
1, 11142, Note_on_c, 0, 80, 0
1, 11142, Note_on_c, 0, 84, 82
1, 11184, Note_on_c, 1, 53, 75
1, 11184, Note_on_c, 1, 44, 75
1, 11231, Note_on_c, 1, 53, 0
1, 11231, Note_on_c, 1, 44, 0
1, 11232, Note_on_c, 1, 53, 75
1, 11232, Note_on_c, 1, 44, 75
1, 11255, Note_on_c, 0, 84, 0
1, 11256, Note_on_c, 0, 82, 84
1, 11268, Note_on_c, 0, 82, 0
1, 11268, Note_on_c, 0, 80, 84
1, 11279, Note_on_c, 1, 53, 0
1, 11279, Note_on_c, 1, 44, 0
1, 11280, Note_on_c, 0, 80, 0
1, 11280, Note_on_c, 0, 82, 84
1, 11280, Note_on_c, 1, 53, 75
1, 11280, Note_on_c, 1, 44, 75
1, 11292, Note_on_c, 0, 82, 0
1, 11292, Note_on_c, 0, 80, 84
1, 11304, Note_on_c, 0, 80, 0
1, 11304, Note_on_c, 0, 79, 84
1, 11316, Note_on_c, 0, 79, 0
1, 11316, Note_on_c, 0, 77, 84
1, 11327, Note_on_c, 1, 53, 0
1, 11327, Note_on_c, 1, 44, 0
1, 11328, Note_on_c, 0, 77, 0
1, 11328, Note_on_c, 0, 79, 84
1, 11328, Note_on_c, 1, 51, 75
1, 11328, Note_on_c, 1, 46, 75
1, 11340, Note_on_c, 0, 79, 0
1, 11340, Note_on_c, 0, 80, 84
1, 11352, Note_on_c, 0, 80, 0
1, 11352, Note_on_c, 0, 82, 84
1, 11364, Note_on_c, 0, 82, 0
1, 11364, Note_on_c, 0, 80, 84
1, 11376, Note_on_c, 0, 80, 0
1, 11376, Note_on_c, 0, 79, 84
1, 11388, Note_on_c, 0, 79, 0
1, 11388, Note_on_c, 0, 77, 84
1, 11400, Note_on_c, 0, 77, 0
1, 11400, Note_on_c, 0, 75, 84
1, 11412, Note_on_c, 0, 75, 0
1, 11412, Note_on_c, 0, 74, 84
1, 11422, Note_on_c, 1, 51, 0
1, 11422, Note_on_c, 1, 46, 0
1, 11424, Note_on_c, 0, 74, 0
1, 11424, Note_on_c, 0, 72, 84
1, 11436, Note_on_c, 0, 72, 0
1, 11436, Note_on_c, 0, 70, 84
1, 11448, Note_on_c, 0, 70, 0
1, 11448, Note_on_c, 0, 68, 84
1, 11460, Note_on_c, 0, 68, 0
1, 11460, Note_on_c, 0, 67, 84
1, 11472, Note_on_c, 0, 67, 0
1, 11472, Note_on_c, 0, 65, 84
1, 11484, Note_on_c, 0, 65, 0
1, 11484, Note_on_c, 0, 63, 83
1, 11496, Note_on_c, 0, 63, 0
1, 11496, Note_on_c, 0, 62, 82
1, 11508, Note_on_c, 0, 62, 0
1, 11508, Note_on_c, 0, 60, 81
1, 11520, Note_on_c, 0, 60, 0
1, 11520, Note_on_c, 0, 58, 97
1, 11568, Note_on_c, 1, 54, 61
1, 11568, Note_on_c, 1, 46, 61
1, 11615, Note_on_c, 1, 54, 0
1, 11615, Note_on_c, 1, 46, 0
1, 11616, Note_on_c, 1, 54, 61
1, 11616, Note_on_c, 1, 46, 61
1, 11663, Note_on_c, 1, 54, 0
1, 11663, Note_on_c, 1, 46, 0
1, 11664, Note_on_c, 1, 54, 61
1, 11664, Note_on_c, 1, 46, 61
1, 11711, Note_on_c, 1, 54, 0
1, 11711, Note_on_c, 1, 46, 0
1, 11712, Note_on_c, 0, 58, 0
1, 11712, Note_on_c, 0, 57, 111
1, 11760, Note_on_c, 1, 54, 61
1, 11760, Note_on_c, 1, 47, 61
1, 11807, Note_on_c, 1, 54, 0
1, 11807, Note_on_c, 1, 47, 0
1, 11808, Note_on_c, 1, 54, 61
1, 11808, Note_on_c, 1, 47, 61
1, 11855, Note_on_c, 1, 54, 0
1, 11855, Note_on_c, 1, 47, 0
1, 11856, Note_on_c, 1, 54, 61
1, 11856, Note_on_c, 1, 47, 61
1, 11875, Note_on_c, 0, 57, 0
1, 11880, Note_on_c, 0, 58, 69
1, 11903, Note_on_c, 0, 58, 0
1, 11903, Note_on_c, 1, 54, 0
1, 11903, Note_on_c, 1, 47, 0
1, 11904, Note_on_c, 0, 56, 111
1, 11952, Note_on_c, 1, 53, 61
1, 11952, Note_on_c, 1, 50, 61
1, 11976, Note_on_c, 0, 56, 0
1, 11976, Note_on_c, 0, 58, 69
1, 11999, Note_on_c, 0, 58, 0
1, 11999, Note_on_c, 1, 53, 0
1, 11999, Note_on_c, 1, 50, 0
1, 12000, Note_on_c, 0, 56, 85
1, 12000, Note_on_c, 1, 53, 61
1, 12000, Note_on_c, 1, 50, 61
1, 12036, Note_on_c, 0, 56, 0
1, 12036, Note_on_c, 0, 58, 69
1, 12047, Note_on_c, 1, 53, 0
1, 12047, Note_on_c, 1, 50, 0
1, 12048, Note_on_c, 0, 58, 0
1, 12048, Note_on_c, 0, 56, 85
1, 12048, Note_on_c, 1, 53, 61
1, 12048, Note_on_c, 1, 50, 61
1, 12084, Note_on_c, 0, 56, 0
1, 12084, Note_on_c, 0, 58, 69
1, 12095, Note_on_c, 1, 53, 0
1, 12095, Note_on_c, 1, 50, 0
1, 12096, Note_on_c, 0, 58, 0
1, 12096, Note_on_c, 0, 55, 85
1, 12096, Note_on_c, 1, 51, 77
1, 12112, Note_on_c, 0, 55, 0
1, 12112, Note_on_c, 0, 58, 69
1, 12127, Note_on_c, 0, 58, 0
1, 12128, Note_on_c, 0, 63, 69
1, 12143, Note_on_c, 0, 63, 0
1, 12144, Note_on_c, 0, 55, 69
1, 12159, Note_on_c, 0, 55, 0
1, 12160, Note_on_c, 0, 58, 69
1, 12175, Note_on_c, 0, 58, 0
1, 12176, Note_on_c, 0, 63, 69
1, 12191, Note_on_c, 0, 63, 0
1, 12192, Note_on_c, 0, 58, 69
1, 12192, Note_on_c, 1, 51, 0
1, 12207, Note_on_c, 0, 58, 0
1, 12208, Note_on_c, 0, 62, 69
1, 12223, Note_on_c, 0, 62, 0
1, 12224, Note_on_c, 0, 65, 69
1, 12239, Note_on_c, 0, 65, 0
1, 12240, Note_on_c, 0, 62, 69
1, 12240, Note_on_c, 1, 53, 77
1, 12240, Note_on_c, 1, 46, 77
1, 12255, Note_on_c, 0, 62, 0
1, 12256, Note_on_c, 0, 65, 69
1, 12271, Note_on_c, 0, 65, 0
1, 12272, Note_on_c, 0, 68, 69
1, 12287, Note_on_c, 0, 68, 0
1, 12288, Note_on_c, 0, 67, 69
1, 12288, Note_on_c, 1, 53, 0
1, 12288, Note_on_c, 1, 46, 0
1, 12288, Note_on_c, 1, 51, 77
1, 12303, Note_on_c, 0, 67, 0
1, 12304, Note_on_c, 0, 70, 69
1, 12319, Note_on_c, 0, 70, 0
1, 12320, Note_on_c, 0, 75, 70
1, 12335, Note_on_c, 0, 75, 0
1, 12336, Note_on_c, 0, 67, 71
1, 12351, Note_on_c, 0, 67, 0
1, 12352, Note_on_c, 0, 70, 72
1, 12367, Note_on_c, 0, 70, 0
1, 12368, Note_on_c, 0, 75, 73
1, 12383, Note_on_c, 0, 75, 0
1, 12384, Note_on_c, 0, 70, 74
1, 12384, Note_on_c, 1, 51, 0
1, 12399, Note_on_c, 0, 70, 0
1, 12400, Note_on_c, 0, 74, 75
1, 12415, Note_on_c, 0, 74, 0
1, 12416, Note_on_c, 0, 77, 76
1, 12431, Note_on_c, 0, 77, 0
1, 12432, Note_on_c, 0, 74, 76
1, 12432, Note_on_c, 1, 53, 88
1, 12432, Note_on_c, 1, 46, 88
1, 12447, Note_on_c, 0, 74, 0
1, 12448, Note_on_c, 0, 77, 77
1, 12463, Note_on_c, 0, 77, 0
1, 12464, Note_on_c, 0, 80, 78
1, 12479, Note_on_c, 0, 80, 0
1, 12480, Note_on_c, 0, 79, 79
1, 12480, Note_on_c, 1, 53, 0
1, 12480, Note_on_c, 1, 46, 0
1, 12480, Note_on_c, 1, 51, 92
1, 12495, Note_on_c, 0, 79, 0
1, 12496, Note_on_c, 0, 80, 84
1, 12511, Note_on_c, 0, 80, 0
1, 12512, Note_on_c, 0, 82, 84
1, 12527, Note_on_c, 0, 82, 0
1, 12528, Note_on_c, 0, 80, 84
1, 12543, Note_on_c, 0, 80, 0
1, 12544, Note_on_c, 0, 79, 84
1, 12559, Note_on_c, 0, 79, 0
1, 12560, Note_on_c, 0, 77, 84
1, 12575, Note_on_c, 0, 77, 0
1, 12576, Note_on_c, 0, 75, 84
1, 12576, Note_on_c, 1, 51, 0
1, 12591, Note_on_c, 0, 75, 0
1, 12592, Note_on_c, 0, 74, 84
1, 12607, Note_on_c, 0, 74, 0
1, 12608, Note_on_c, 0, 72, 84
1, 12623, Note_on_c, 0, 72, 0
1, 12624, Note_on_c, 0, 70, 84
1, 12639, Note_on_c, 0, 70, 0
1, 12640, Note_on_c, 0, 68, 84
1, 12655, Note_on_c, 0, 68, 0
1, 12656, Note_on_c, 0, 67, 84
1, 12671, Note_on_c, 0, 67, 0
1, 12672, Note_on_c, 0, 65, 84
1, 12672, Note_on_c, 1, 48, 100
1, 12672, Note_on_c, 1, 44, 100
1, 12687, Note_on_c, 0, 65, 0
1, 12688, Note_on_c, 0, 68, 84
1, 12703, Note_on_c, 0, 68, 0
1, 12704, Note_on_c, 0, 67, 84
1, 12719, Note_on_c, 0, 67, 0
1, 12720, Note_on_c, 0, 65, 84
1, 12735, Note_on_c, 0, 65, 0
1, 12736, Note_on_c, 0, 72, 84
1, 12751, Note_on_c, 0, 72, 0
1, 12752, Note_on_c, 0, 70, 84
1, 12767, Note_on_c, 0, 70, 0
1, 12768, Note_on_c, 0, 68, 84
1, 12768, Note_on_c, 1, 48, 0
1, 12768, Note_on_c, 1, 44, 0
1, 12783, Note_on_c, 0, 68, 0
1, 12784, Note_on_c, 0, 67, 84
1, 12799, Note_on_c, 0, 67, 0
1, 12800, Note_on_c, 0, 65, 84
1, 12815, Note_on_c, 0, 65, 0
1, 12816, Note_on_c, 0, 63, 84
1, 12831, Note_on_c, 0, 63, 0
1, 12832, Note_on_c, 0, 62, 84
1, 12847, Note_on_c, 0, 62, 0
1, 12848, Note_on_c, 0, 60, 84
1, 12863, Note_on_c, 0, 60, 0
1, 12864, Note_on_c, 0, 58, 84
1, 12864, Note_on_c, 1, 55, 84
1, 12864, Note_on_c, 1, 46, 84
1, 12911, Note_on_c, 1, 55, 0
1, 12911, Note_on_c, 1, 46, 0
1, 12912, Note_on_c, 1, 55, 78
1, 12912, Note_on_c, 1, 46, 78
1, 12931, Note_on_c, 0, 58, 0
1, 12936, Note_on_c, 0, 63, 78
1, 12948, Note_on_c, 0, 63, 0
1, 12948, Note_on_c, 0, 65, 77
1, 12959, Note_on_c, 1, 55, 0
1, 12959, Note_on_c, 1, 46, 0
1, 12960, Note_on_c, 0, 65, 0
1, 12960, Note_on_c, 0, 67, 76
1, 12960, Note_on_c, 1, 50, 72
1, 12960, Note_on_c, 1, 46, 72
1, 12968, Note_on_c, 0, 67, 0
1, 12968, Note_on_c, 0, 65, 76
1, 12976, Note_on_c, 0, 65, 0
1, 12976, Note_on_c, 0, 67, 75
1, 12984, Note_on_c, 0, 67, 0
1, 12984, Note_on_c, 0, 65, 75
1, 12992, Note_on_c, 0, 65, 0
1, 12992, Note_on_c, 0, 67, 74
1, 13000, Note_on_c, 0, 67, 0
1, 13000, Note_on_c, 0, 65, 74
1, 13007, Note_on_c, 1, 50, 0
1, 13007, Note_on_c, 1, 46, 0
1, 13008, Note_on_c, 0, 65, 0
1, 13008, Note_on_c, 0, 67, 73
1, 13008, Note_on_c, 1, 50, 66
1, 13008, Note_on_c, 1, 46, 66
1, 13016, Note_on_c, 0, 67, 0
1, 13016, Note_on_c, 0, 65, 73
1, 13024, Note_on_c, 0, 65, 0
1, 13024, Note_on_c, 0, 63, 72
1, 13040, Note_on_c, 0, 63, 0
1, 13040, Note_on_c, 0, 65, 71
1, 13055, Note_on_c, 1, 50, 0
1, 13055, Note_on_c, 1, 46, 0
1, 13056, Note_on_c, 0, 65, 0
1, 13056, Note_on_c, 0, 55, 69
1, 13056, Note_on_c, 1, 51, 77
1, 13071, Note_on_c, 0, 55, 0
1, 13072, Note_on_c, 0, 58, 69
1, 13087, Note_on_c, 0, 58, 0
1, 13088, Note_on_c, 0, 63, 69
1, 13103, Note_on_c, 0, 63, 0
1, 13104, Note_on_c, 0, 55, 69
1, 13119, Note_on_c, 0, 55, 0
1, 13120, Note_on_c, 0, 58, 69
1, 13135, Note_on_c, 0, 58, 0
1, 13136, Note_on_c, 0, 63, 69
1, 13151, Note_on_c, 0, 63, 0
1, 13152, Note_on_c, 0, 58, 69
1, 13152, Note_on_c, 1, 51, 0
1, 13167, Note_on_c, 0, 58, 0
1, 13168, Note_on_c, 0, 62, 69
1, 13183, Note_on_c, 0, 62, 0
1, 13184, Note_on_c, 0, 65, 69
1, 13199, Note_on_c, 0, 65, 0
1, 13200, Note_on_c, 0, 62, 69
1, 13200, Note_on_c, 1, 53, 77
1, 13200, Note_on_c, 1, 46, 77
1, 13215, Note_on_c, 0, 62, 0
1, 13216, Note_on_c, 0, 65, 69
1, 13231, Note_on_c, 0, 65, 0
1, 13232, Note_on_c, 0, 68, 69
1, 13247, Note_on_c, 0, 68, 0
1, 13248, Note_on_c, 0, 67, 69
1, 13248, Note_on_c, 1, 53, 0
1, 13248, Note_on_c, 1, 46, 0
1, 13248, Note_on_c, 1, 51, 77
1, 13263, Note_on_c, 0, 67, 0
1, 13264, Note_on_c, 0, 70, 69
1, 13279, Note_on_c, 0, 70, 0
1, 13280, Note_on_c, 0, 75, 70
1, 13295, Note_on_c, 0, 75, 0
1, 13296, Note_on_c, 0, 67, 71
1, 13311, Note_on_c, 0, 67, 0
1, 13312, Note_on_c, 0, 70, 72
1, 13327, Note_on_c, 0, 70, 0
1, 13328, Note_on_c, 0, 75, 73
1, 13343, Note_on_c, 0, 75, 0
1, 13344, Note_on_c, 0, 70, 74
1, 13344, Note_on_c, 1, 51, 0
1, 13359, Note_on_c, 0, 70, 0
1, 13360, Note_on_c, 0, 74, 75
1, 13375, Note_on_c, 0, 74, 0
1, 13376, Note_on_c, 0, 77, 76
1, 13391, Note_on_c, 0, 77, 0
1, 13392, Note_on_c, 0, 74, 76
1, 13392, Note_on_c, 1, 53, 88
1, 13392, Note_on_c, 1, 46, 88
1, 13407, Note_on_c, 0, 74, 0
1, 13408, Note_on_c, 0, 77, 77
1, 13423, Note_on_c, 0, 77, 0
1, 13424, Note_on_c, 0, 80, 78
1, 13439, Note_on_c, 0, 80, 0
1, 13440, Note_on_c, 0, 79, 79
1, 13440, Note_on_c, 1, 53, 0
1, 13440, Note_on_c, 1, 46, 0
1, 13440, Note_on_c, 1, 51, 92
1, 13455, Note_on_c, 0, 79, 0
1, 13456, Note_on_c, 0, 80, 84
1, 13471, Note_on_c, 0, 80, 0
1, 13472, Note_on_c, 0, 82, 84
1, 13487, Note_on_c, 0, 82, 0
1, 13488, Note_on_c, 0, 80, 84
1, 13503, Note_on_c, 0, 80, 0
1, 13504, Note_on_c, 0, 79, 84
1, 13519, Note_on_c, 0, 79, 0
1, 13520, Note_on_c, 0, 77, 84
1, 13535, Note_on_c, 0, 77, 0
1, 13536, Note_on_c, 0, 75, 84
1, 13536, Note_on_c, 1, 51, 0
1, 13551, Note_on_c, 0, 75, 0
1, 13552, Note_on_c, 0, 74, 84
1, 13567, Note_on_c, 0, 74, 0
1, 13568, Note_on_c, 0, 72, 84
1, 13583, Note_on_c, 0, 72, 0
1, 13584, Note_on_c, 0, 70, 84
1, 13599, Note_on_c, 0, 70, 0
1, 13600, Note_on_c, 0, 68, 84
1, 13615, Note_on_c, 0, 68, 0
1, 13616, Note_on_c, 0, 67, 84
1, 13631, Note_on_c, 0, 67, 0
1, 13632, Note_on_c, 0, 65, 84
1, 13632, Note_on_c, 1, 48, 84
1, 13632, Note_on_c, 1, 44, 84
1, 13647, Note_on_c, 0, 65, 0
1, 13648, Note_on_c, 0, 68, 84
1, 13663, Note_on_c, 0, 68, 0
1, 13664, Note_on_c, 0, 67, 84
1, 13679, Note_on_c, 0, 67, 0
1, 13680, Note_on_c, 0, 65, 84
1, 13695, Note_on_c, 0, 65, 0
1, 13696, Note_on_c, 0, 72, 84
1, 13711, Note_on_c, 0, 72, 0
1, 13712, Note_on_c, 0, 70, 84
1, 13721, Note_on_c, 1, 48, 0
1, 13721, Note_on_c, 1, 44, 0
1, 13727, Note_on_c, 0, 70, 0
1, 13728, Note_on_c, 0, 68, 84
1, 13743, Note_on_c, 0, 68, 0
1, 13744, Note_on_c, 0, 67, 84
1, 13759, Note_on_c, 0, 67, 0
1, 13760, Note_on_c, 0, 65, 84
1, 13775, Note_on_c, 0, 65, 0
1, 13776, Note_on_c, 0, 63, 84
1, 13791, Note_on_c, 0, 63, 0
1, 13792, Note_on_c, 0, 62, 84
1, 13807, Note_on_c, 0, 62, 0
1, 13808, Note_on_c, 0, 60, 84
1, 13823, Note_on_c, 0, 60, 0
1, 13824, Note_on_c, 0, 58, 84
1, 13824, Note_on_c, 1, 55, 84
1, 13824, Note_on_c, 1, 46, 84
1, 13871, Note_on_c, 1, 55, 0
1, 13871, Note_on_c, 1, 46, 0
1, 13872, Note_on_c, 1, 55, 84
1, 13872, Note_on_c, 1, 46, 84
1, 13891, Note_on_c, 0, 58, 0
1, 13896, Note_on_c, 0, 63, 84
1, 13908, Note_on_c, 0, 63, 0
1, 13908, Note_on_c, 0, 65, 83
1, 13919, Note_on_c, 1, 55, 0
1, 13919, Note_on_c, 1, 46, 0
1, 13920, Note_on_c, 0, 65, 0
1, 13920, Note_on_c, 0, 67, 82
1, 13920, Note_on_c, 1, 50, 81
1, 13920, Note_on_c, 1, 46, 81
1, 13928, Note_on_c, 0, 67, 0
1, 13928, Note_on_c, 0, 65, 82
1, 13936, Note_on_c, 0, 65, 0
1, 13936, Note_on_c, 0, 67, 81
1, 13944, Note_on_c, 0, 67, 0
1, 13944, Note_on_c, 0, 65, 81
1, 13952, Note_on_c, 0, 65, 0
1, 13952, Note_on_c, 0, 67, 81
1, 13960, Note_on_c, 0, 67, 0
1, 13960, Note_on_c, 0, 65, 80
1, 13967, Note_on_c, 1, 50, 0
1, 13967, Note_on_c, 1, 46, 0
1, 13968, Note_on_c, 0, 65, 0
1, 13968, Note_on_c, 0, 67, 80
1, 13968, Note_on_c, 1, 50, 79
1, 13968, Note_on_c, 1, 46, 79
1, 13976, Note_on_c, 0, 67, 0
1, 13976, Note_on_c, 0, 65, 80
1, 13984, Note_on_c, 0, 65, 0
1, 13984, Note_on_c, 0, 63, 79
1, 14000, Note_on_c, 0, 63, 0
1, 14000, Note_on_c, 0, 65, 79
1, 14015, Note_on_c, 1, 50, 0
1, 14015, Note_on_c, 1, 46, 0
1, 14016, Note_on_c, 0, 65, 0
1, 14016, Note_on_c, 0, 63, 94
1, 14016, Note_on_c, 1, 51, 92
1, 14112, Note_on_c, 0, 63, 0
1, 14112, Note_on_c, 0, 72, 73
1, 14112, Note_on_c, 0, 68, 73
1, 14112, Note_on_c, 1, 51, 0
1, 14112, Note_on_c, 1, 53, 71
1, 14112, Note_on_c, 1, 44, 71
1, 14157, Note_on_c, 0, 72, 0
1, 14157, Note_on_c, 0, 68, 0
1, 14157, Note_on_c, 1, 53, 0
1, 14157, Note_on_c, 1, 44, 0
1, 14160, Note_on_c, 0, 62, 69
1, 14160, Note_on_c, 0, 58, 69
1, 14160, Note_on_c, 1, 56, 69
1, 14160, Note_on_c, 1, 46, 69
1, 14205, Note_on_c, 1, 56, 0
1, 14205, Note_on_c, 1, 46, 0
1, 14208, Note_on_c, 0, 62, 0
1, 14208, Note_on_c, 0, 63, 69
1, 14208, Note_on_c, 1, 55, 69
1, 14208, Note_on_c, 1, 51, 69
1, 14253, Note_on_c, 0, 63, 0
1, 14253, Note_on_c, 0, 58, 0
1, 14253, Note_on_c, 1, 55, 0
1, 14253, Note_on_c, 1, 51, 0
1, 14304, Note_on_c, 0, 72, 61
1, 14304, Note_on_c, 0, 68, 61
1, 14304, Note_on_c, 1, 53, 61
1, 14304, Note_on_c, 1, 44, 61
1, 14349, Note_on_c, 0, 72, 0
1, 14349, Note_on_c, 0, 68, 0
1, 14349, Note_on_c, 1, 53, 0
1, 14349, Note_on_c, 1, 44, 0
1, 14352, Note_on_c, 0, 62, 61
1, 14352, Note_on_c, 0, 58, 61
1, 14352, Note_on_c, 1, 56, 61
1, 14352, Note_on_c, 1, 46, 61
1, 14397, Note_on_c, 1, 56, 0
1, 14397, Note_on_c, 1, 46, 0
1, 14400, Note_on_c, 0, 62, 0
1, 14400, Note_on_c, 0, 63, 61
1, 14400, Note_on_c, 1, 55, 61
1, 14400, Note_on_c, 1, 51, 61
1, 14467, Note_on_c, 0, 63, 0
1, 14467, Note_on_c, 0, 58, 0
1, 14467, Note_on_c, 1, 55, 0
1, 14467, Note_on_c, 1, 51, 0
1, 14592, Note_on_c, 0, 68, 84
1, 14598, Note_on_c, 0, 68, 0
1, 14598, Note_on_c, 0, 67, 84
1, 14604, Note_on_c, 0, 67, 0
1, 14604, Note_on_c, 0, 68, 84
1, 14640, Note_on_c, 1, 60, 69
1, 14640, Note_on_c, 1, 56, 69
1, 14687, Note_on_c, 1, 60, 0
1, 14687, Note_on_c, 1, 56, 0
1, 14688, Note_on_c, 1, 60, 69
1, 14688, Note_on_c, 1, 56, 69
1, 14735, Note_on_c, 1, 60, 0
1, 14735, Note_on_c, 1, 56, 0
1, 14736, Note_on_c, 1, 60, 69
1, 14736, Note_on_c, 1, 56, 69
1, 14771, Note_on_c, 0, 68, 0
1, 14783, Note_on_c, 1, 60, 0
1, 14783, Note_on_c, 1, 56, 0
1, 14784, Note_on_c, 0, 77, 84
1, 14790, Note_on_c, 0, 77, 0
1, 14790, Note_on_c, 0, 75, 84
1, 14832, Note_on_c, 1, 58, 69
1, 14832, Note_on_c, 1, 55, 69
1, 14879, Note_on_c, 1, 58, 0
1, 14879, Note_on_c, 1, 55, 0
1, 14880, Note_on_c, 1, 58, 69
1, 14880, Note_on_c, 1, 55, 69
1, 14927, Note_on_c, 1, 58, 0
1, 14927, Note_on_c, 1, 55, 0
1, 14928, Note_on_c, 1, 58, 69
1, 14928, Note_on_c, 1, 55, 69
1, 14947, Note_on_c, 0, 75, 0
1, 14952, Note_on_c, 0, 73, 84
1, 14975, Note_on_c, 0, 73, 0
1, 14975, Note_on_c, 1, 58, 0
1, 14975, Note_on_c, 1, 55, 0
1, 14976, Note_on_c, 0, 73, 84
1, 15024, Note_on_c, 1, 63, 69
1, 15024, Note_on_c, 1, 56, 69
1, 15071, Note_on_c, 1, 63, 0
1, 15071, Note_on_c, 1, 56, 0
1, 15072, Note_on_c, 0, 73, 0
1, 15072, Note_on_c, 0, 72, 84
1, 15072, Note_on_c, 1, 63, 69
1, 15072, Note_on_c, 1, 56, 69
1, 15078, Note_on_c, 0, 72, 0
1, 15078, Note_on_c, 0, 73, 84
1, 15084, Note_on_c, 0, 73, 0
1, 15084, Note_on_c, 0, 72, 84
1, 15119, Note_on_c, 1, 63, 0
1, 15119, Note_on_c, 1, 56, 0
1, 15120, Note_on_c, 1, 63, 69
1, 15120, Note_on_c, 1, 56, 69
1, 15141, Note_on_c, 0, 72, 0
1, 15144, Note_on_c, 0, 73, 84
1, 15167, Note_on_c, 0, 73, 0
1, 15167, Note_on_c, 1, 63, 0
1, 15167, Note_on_c, 1, 56, 0
1, 15168, Note_on_c, 0, 72, 84
1, 15216, Note_on_c, 1, 65, 69
1, 15216, Note_on_c, 1, 61, 69
1, 15263, Note_on_c, 1, 65, 0
1, 15263, Note_on_c, 1, 61, 0
1, 15264, Note_on_c, 0, 72, 0
1, 15264, Note_on_c, 0, 70, 84
1, 15264, Note_on_c, 1, 65, 69
1, 15264, Note_on_c, 1, 61, 69
1, 15270, Note_on_c, 0, 70, 0
1, 15270, Note_on_c, 0, 72, 84
1, 15276, Note_on_c, 0, 72, 0
1, 15276, Note_on_c, 0, 70, 84
1, 15311, Note_on_c, 1, 65, 0
1, 15311, Note_on_c, 1, 61, 0
1, 15312, Note_on_c, 1, 65, 69
1, 15312, Note_on_c, 1, 61, 69
1, 15333, Note_on_c, 0, 70, 0
1, 15336, Note_on_c, 0, 72, 84
1, 15359, Note_on_c, 0, 72, 0
1, 15359, Note_on_c, 1, 65, 0
1, 15359, Note_on_c, 1, 61, 0
1, 15360, Note_on_c, 0, 70, 84
1, 15408, Note_on_c, 1, 63, 69
1, 15408, Note_on_c, 1, 60, 69
1, 15455, Note_on_c, 1, 63, 0
1, 15455, Note_on_c, 1, 60, 0
1, 15456, Note_on_c, 0, 70, 0
1, 15456, Note_on_c, 0, 68, 84
1, 15456, Note_on_c, 1, 63, 69
1, 15456, Note_on_c, 1, 60, 69
1, 15462, Note_on_c, 0, 68, 0
1, 15462, Note_on_c, 0, 70, 84
1, 15468, Note_on_c, 0, 70, 0
1, 15468, Note_on_c, 0, 68, 84
1, 15490, Note_on_c, 0, 68, 0
1, 15492, Note_on_c, 0, 67, 84
1, 15503, Note_on_c, 1, 63, 0
1, 15503, Note_on_c, 1, 60, 0
1, 15504, Note_on_c, 0, 67, 0
1, 15504, Note_on_c, 0, 68, 84
1, 15504, Note_on_c, 1, 63, 69
1, 15504, Note_on_c, 1, 60, 69
1, 15538, Note_on_c, 0, 68, 0
1, 15540, Note_on_c, 0, 70, 84
1, 15551, Note_on_c, 1, 63, 0
1, 15551, Note_on_c, 1, 60, 0
1, 15552, Note_on_c, 0, 70, 0
1, 15552, Note_on_c, 0, 68, 84
1, 15552, Note_on_c, 1, 63, 69
1, 15552, Note_on_c, 1, 60, 69
1, 15660, Note_on_c, 0, 68, 0
1, 15660, Note_on_c, 1, 63, 0
1, 15660, Note_on_c, 1, 60, 0
1, 15744, Note_on_c, 0, 80, 84
1, 15759, Note_on_c, 0, 80, 0
1, 15760, Note_on_c, 0, 84, 84
1, 15775, Note_on_c, 0, 84, 0
1, 15776, Note_on_c, 0, 82, 84
1, 15791, Note_on_c, 0, 82, 0
1, 15792, Note_on_c, 0, 80, 84
1, 15807, Note_on_c, 0, 80, 0
1, 15808, Note_on_c, 0, 79, 84
1, 15823, Note_on_c, 0, 79, 0
1, 15824, Note_on_c, 0, 77, 84
1, 15839, Note_on_c, 0, 77, 0
1, 15840, Note_on_c, 0, 75, 84
1, 15855, Note_on_c, 0, 75, 0
1, 15856, Note_on_c, 0, 73, 84
1, 15871, Note_on_c, 0, 73, 0
1, 15872, Note_on_c, 0, 72, 84
1, 15887, Note_on_c, 0, 72, 0
1, 15888, Note_on_c, 0, 70, 84
1, 15903, Note_on_c, 0, 70, 0
1, 15904, Note_on_c, 0, 68, 84
1, 15919, Note_on_c, 0, 68, 0
1, 15920, Note_on_c, 0, 67, 84
1, 15935, Note_on_c, 0, 67, 0
1, 15936, Note_on_c, 0, 65, 84
1, 15984, Note_on_c, 1, 56, 69
1, 15984, Note_on_c, 1, 49, 69
1, 16031, Note_on_c, 1, 56, 0
1, 16031, Note_on_c, 1, 49, 0
1, 16032, Note_on_c, 1, 56, 69
1, 16032, Note_on_c, 1, 49, 69
1, 16079, Note_on_c, 1, 56, 0
1, 16079, Note_on_c, 1, 49, 0
1, 16080, Note_on_c, 1, 56, 69
1, 16080, Note_on_c, 1, 49, 69
1, 16099, Note_on_c, 0, 65, 0
1, 16104, Note_on_c, 0, 67, 84
1, 16127, Note_on_c, 0, 67, 0
1, 16127, Note_on_c, 1, 56, 0
1, 16127, Note_on_c, 1, 49, 0
1, 16128, Note_on_c, 0, 67, 84
1, 16176, Note_on_c, 1, 51, 69
1, 16176, Note_on_c, 1, 48, 69
1, 16223, Note_on_c, 1, 51, 0
1, 16223, Note_on_c, 1, 48, 0
1, 16224, Note_on_c, 0, 67, 0
1, 16224, Note_on_c, 0, 68, 84
1, 16224, Note_on_c, 1, 51, 69
1, 16224, Note_on_c, 1, 48, 69
1, 16239, Note_on_c, 0, 68, 0
1, 16240, Note_on_c, 0, 72, 84
1, 16255, Note_on_c, 0, 72, 0
1, 16256, Note_on_c, 0, 70, 84
1, 16271, Note_on_c, 0, 70, 0
1, 16271, Note_on_c, 1, 51, 0
1, 16271, Note_on_c, 1, 48, 0
1, 16272, Note_on_c, 0, 68, 84
1, 16272, Note_on_c, 1, 53, 69
1, 16272, Note_on_c, 1, 49, 69
1, 16287, Note_on_c, 0, 68, 0
1, 16288, Note_on_c, 0, 67, 84
1, 16303, Note_on_c, 0, 67, 0
1, 16304, Note_on_c, 0, 65, 84
1, 16319, Note_on_c, 0, 65, 0
1, 16319, Note_on_c, 1, 53, 0
1, 16319, Note_on_c, 1, 49, 0
1, 16320, Note_on_c, 0, 63, 84
1, 16368, Note_on_c, 1, 60, 69
1, 16368, Note_on_c, 1, 51, 69
1, 16387, Note_on_c, 0, 63, 0
1, 16392, Note_on_c, 0, 60, 84
1, 16404, Note_on_c, 0, 60, 0
1, 16404, Note_on_c, 0, 61, 84
1, 16415, Note_on_c, 1, 60, 0
1, 16415, Note_on_c, 1, 51, 0
1, 16416, Note_on_c, 0, 61, 0
1, 16416, Note_on_c, 0, 63, 84
1, 16416, Note_on_c, 1, 58, 69
1, 16416, Note_on_c, 1, 51, 69
1, 16424, Note_on_c, 0, 63, 0
1, 16424, Note_on_c, 0, 61, 84
1, 16432, Note_on_c, 0, 61, 0
1, 16432, Note_on_c, 0, 63, 84
1, 16440, Note_on_c, 0, 63, 0
1, 16440, Note_on_c, 0, 61, 84
1, 16448, Note_on_c, 0, 61, 0
1, 16448, Note_on_c, 0, 63, 84
1, 16456, Note_on_c, 0, 63, 0
1, 16456, Note_on_c, 0, 61, 84
1, 16463, Note_on_c, 1, 58, 0
1, 16463, Note_on_c, 1, 51, 0
1, 16464, Note_on_c, 0, 61, 0
1, 16464, Note_on_c, 0, 63, 84
1, 16464, Note_on_c, 1, 58, 69
1, 16464, Note_on_c, 1, 51, 69
1, 16472, Note_on_c, 0, 63, 0
1, 16472, Note_on_c, 0, 61, 84
1, 16480, Note_on_c, 0, 61, 0
1, 16480, Note_on_c, 0, 60, 84
1, 16496, Note_on_c, 0, 60, 0
1, 16496, Note_on_c, 0, 61, 84
1, 16511, Note_on_c, 1, 58, 0
1, 16511, Note_on_c, 1, 51, 0
1, 16512, Note_on_c, 0, 61, 0
1, 16512, Note_on_c, 0, 61, 84
1, 16512, Note_on_c, 0, 58, 84
1, 16560, Note_on_c, 1, 56, 69
1, 16560, Note_on_c, 1, 44, 69
1, 16607, Note_on_c, 1, 56, 0
1, 16607, Note_on_c, 1, 44, 0
1, 16608, Note_on_c, 0, 61, 0
1, 16608, Note_on_c, 0, 58, 0
1, 16608, Note_on_c, 0, 60, 84
1, 16608, Note_on_c, 0, 56, 84
1, 16608, Note_on_c, 1, 51, 69
1, 16608, Note_on_c, 1, 44, 69
1, 16655, Note_on_c, 1, 51, 0
1, 16655, Note_on_c, 1, 44, 0
1, 16656, Note_on_c, 1, 51, 69
1, 16656, Note_on_c, 1, 44, 69
1, 16697, Note_on_c, 0, 60, 0
1, 16697, Note_on_c, 0, 56, 0
1, 16703, Note_on_c, 1, 51, 0
1, 16703, Note_on_c, 1, 44, 0
1, 16704, Note_on_c, 0, 65, 84
1, 16752, Note_on_c, 1, 56, 69
1, 16752, Note_on_c, 1, 49, 69
1, 16799, Note_on_c, 1, 56, 0
1, 16799, Note_on_c, 1, 49, 0
1, 16800, Note_on_c, 1, 56, 69
1, 16800, Note_on_c, 1, 49, 69
1, 16815, Note_on_c, 0, 65, 0
1, 16816, Note_on_c, 0, 67, 84
1, 16831, Note_on_c, 0, 67, 0
1, 16832, Note_on_c, 0, 68, 84
1, 16847, Note_on_c, 0, 68, 0
1, 16847, Note_on_c, 1, 56, 0
1, 16847, Note_on_c, 1, 49, 0
1, 16848, Note_on_c, 0, 67, 84
1, 16848, Note_on_c, 1, 51, 69
1, 16848, Note_on_c, 1, 49, 69
1, 16863, Note_on_c, 0, 67, 0
1, 16864, Note_on_c, 0, 68, 84
1, 16879, Note_on_c, 0, 68, 0
1, 16880, Note_on_c, 0, 70, 84
1, 16895, Note_on_c, 0, 70, 0
1, 16895, Note_on_c, 1, 51, 0
1, 16895, Note_on_c, 1, 49, 0
1, 16896, Note_on_c, 0, 68, 84
1, 16896, Note_on_c, 1, 51, 69
1, 16896, Note_on_c, 1, 48, 69
1, 16911, Note_on_c, 0, 68, 0
1, 16912, Note_on_c, 0, 70, 84
1, 16927, Note_on_c, 0, 70, 0
1, 16928, Note_on_c, 0, 72, 84
1, 16943, Note_on_c, 0, 72, 0
1, 16944, Note_on_c, 0, 70, 84
1, 16959, Note_on_c, 0, 70, 0
1, 16960, Note_on_c, 0, 72, 84
1, 16975, Note_on_c, 0, 72, 0
1, 16976, Note_on_c, 0, 73, 84
1, 16990, Note_on_c, 1, 51, 0
1, 16990, Note_on_c, 1, 48, 0
1, 16991, Note_on_c, 0, 73, 0
1, 16992, Note_on_c, 0, 72, 84
1, 17007, Note_on_c, 0, 72, 0
1, 17008, Note_on_c, 0, 73, 84
1, 17023, Note_on_c, 0, 73, 0
1, 17024, Note_on_c, 0, 75, 84
1, 17039, Note_on_c, 0, 75, 0
1, 17040, Note_on_c, 0, 73, 84
1, 17055, Note_on_c, 0, 73, 0
1, 17056, Note_on_c, 0, 75, 84
1, 17071, Note_on_c, 0, 75, 0
1, 17072, Note_on_c, 0, 77, 84
1, 17087, Note_on_c, 0, 77, 0
1, 17088, Note_on_c, 0, 75, 84
1, 17103, Note_on_c, 0, 75, 0
1, 17104, Note_on_c, 0, 73, 84
1, 17119, Note_on_c, 0, 73, 0
1, 17120, Note_on_c, 0, 72, 84
1, 17135, Note_on_c, 0, 72, 0
1, 17136, Note_on_c, 0, 70, 84
1, 17151, Note_on_c, 0, 70, 0
1, 17152, Note_on_c, 0, 68, 84
1, 17167, Note_on_c, 0, 68, 0
1, 17168, Note_on_c, 0, 67, 84
1, 17183, Note_on_c, 0, 67, 0
1, 17184, Note_on_c, 0, 68, 84
1, 17199, Note_on_c, 0, 68, 0
1, 17200, Note_on_c, 0, 72, 84
1, 17215, Note_on_c, 0, 72, 0
1, 17216, Note_on_c, 0, 70, 84
1, 17231, Note_on_c, 0, 70, 0
1, 17232, Note_on_c, 0, 68, 84
1, 17247, Note_on_c, 0, 68, 0
1, 17248, Note_on_c, 0, 67, 84
1, 17263, Note_on_c, 0, 67, 0
1, 17264, Note_on_c, 0, 65, 84
1, 17279, Note_on_c, 0, 65, 0
1, 17280, Note_on_c, 0, 63, 84
1, 17280, Note_on_c, 1, 60, 69
1, 17280, Note_on_c, 1, 51, 69
1, 17327, Note_on_c, 1, 60, 0
1, 17327, Note_on_c, 1, 51, 0
1, 17328, Note_on_c, 1, 60, 69
1, 17328, Note_on_c, 1, 51, 69
1, 17347, Note_on_c, 0, 63, 0
1, 17352, Note_on_c, 0, 60, 84
1, 17364, Note_on_c, 0, 60, 0
1, 17364, Note_on_c, 0, 61, 84
1, 17375, Note_on_c, 1, 60, 0
1, 17375, Note_on_c, 1, 51, 0
1, 17376, Note_on_c, 0, 61, 0
1, 17376, Note_on_c, 0, 63, 84
1, 17376, Note_on_c, 1, 58, 69
1, 17376, Note_on_c, 1, 51, 69
1, 17384, Note_on_c, 0, 63, 0
1, 17384, Note_on_c, 0, 61, 84
1, 17392, Note_on_c, 0, 61, 0
1, 17392, Note_on_c, 0, 63, 84
1, 17400, Note_on_c, 0, 63, 0
1, 17400, Note_on_c, 0, 61, 84
1, 17408, Note_on_c, 0, 61, 0
1, 17408, Note_on_c, 0, 63, 84
1, 17416, Note_on_c, 0, 63, 0
1, 17416, Note_on_c, 0, 61, 84
1, 17423, Note_on_c, 1, 58, 0
1, 17423, Note_on_c, 1, 51, 0
1, 17424, Note_on_c, 0, 61, 0
1, 17424, Note_on_c, 0, 63, 84
1, 17424, Note_on_c, 1, 58, 69
1, 17424, Note_on_c, 1, 51, 69
1, 17432, Note_on_c, 0, 63, 0
1, 17432, Note_on_c, 0, 61, 84
1, 17440, Note_on_c, 0, 61, 0
1, 17440, Note_on_c, 0, 60, 84
1, 17456, Note_on_c, 0, 60, 0
1, 17456, Note_on_c, 0, 61, 84
1, 17471, Note_on_c, 1, 58, 0
1, 17471, Note_on_c, 1, 51, 0
1, 17472, Note_on_c, 0, 61, 0
1, 17472, Note_on_c, 0, 61, 84
1, 17472, Note_on_c, 0, 58, 84
1, 17520, Note_on_c, 1, 56, 69
1, 17520, Note_on_c, 1, 44, 69
1, 17565, Note_on_c, 1, 56, 0
1, 17565, Note_on_c, 1, 44, 0
1, 17568, Note_on_c, 0, 61, 0
1, 17568, Note_on_c, 0, 58, 0
1, 17568, Note_on_c, 0, 60, 84
1, 17568, Note_on_c, 0, 56, 84
1, 17568, Note_on_c, 1, 51, 69
1, 17568, Note_on_c, 1, 44, 69
1, 17613, Note_on_c, 1, 51, 0
1, 17613, Note_on_c, 1, 44, 0
1, 17616, Note_on_c, 1, 51, 69
1, 17616, Note_on_c, 1, 44, 69
1, 17657, Note_on_c, 0, 60, 0
1, 17657, Note_on_c, 0, 56, 0
1, 17661, Note_on_c, 1, 51, 0
1, 17661, Note_on_c, 1, 44, 0
1, 17664, Note_on_c, 0, 72, 75
1, 17676, Note_on_c, 0, 72, 0
1, 17676, Note_on_c, 0, 84, 75
1, 17712, Note_on_c, 1, 72, 61
1, 17712, Note_on_c, 1, 68, 61
1, 17759, Note_on_c, 1, 72, 0
1, 17759, Note_on_c, 1, 68, 0
1, 17760, Note_on_c, 1, 72, 61
1, 17760, Note_on_c, 1, 68, 61
1, 17783, Note_on_c, 0, 84, 0
1, 17784, Note_on_c, 0, 82, 75
1, 17796, Note_on_c, 0, 82, 0
1, 17796, Note_on_c, 0, 80, 75
1, 17807, Note_on_c, 1, 72, 0
1, 17807, Note_on_c, 1, 68, 0
1, 17808, Note_on_c, 0, 80, 0
1, 17808, Note_on_c, 0, 82, 75
1, 17808, Note_on_c, 1, 72, 61
1, 17808, Note_on_c, 1, 68, 61
1, 17820, Note_on_c, 0, 82, 0
1, 17820, Note_on_c, 0, 80, 75
1, 17832, Note_on_c, 0, 80, 0
1, 17832, Note_on_c, 0, 79, 75
1, 17844, Note_on_c, 0, 79, 0
1, 17844, Note_on_c, 0, 77, 75
1, 17855, Note_on_c, 1, 72, 0
1, 17855, Note_on_c, 1, 68, 0
1, 17856, Note_on_c, 0, 77, 0
1, 17856, Note_on_c, 0, 77, 75
1, 17904, Note_on_c, 1, 70, 61
1, 17904, Note_on_c, 1, 67, 61
1, 17951, Note_on_c, 1, 70, 0
1, 17951, Note_on_c, 1, 67, 0
1, 17952, Note_on_c, 0, 77, 0
1, 17952, Note_on_c, 0, 76, 75
1, 17952, Note_on_c, 1, 70, 61
1, 17952, Note_on_c, 1, 67, 61
1, 17958, Note_on_c, 0, 76, 0
1, 17958, Note_on_c, 0, 77, 75
1, 17964, Note_on_c, 0, 77, 0
1, 17964, Note_on_c, 0, 76, 75
1, 17999, Note_on_c, 1, 70, 0
1, 17999, Note_on_c, 1, 67, 0
1, 18000, Note_on_c, 1, 70, 61
1, 18000, Note_on_c, 1, 67, 61
1, 18019, Note_on_c, 0, 76, 0
1, 18024, Note_on_c, 0, 79, 75
1, 18047, Note_on_c, 0, 79, 0
1, 18047, Note_on_c, 1, 70, 0
1, 18047, Note_on_c, 1, 67, 0
1, 18048, Note_on_c, 0, 73, 75
1, 18054, Note_on_c, 0, 73, 0
1, 18054, Note_on_c, 0, 75, 75
1, 18060, Note_on_c, 0, 75, 0
1, 18060, Note_on_c, 0, 73, 75
1, 18096, Note_on_c, 1, 67, 61
1, 18096, Note_on_c, 1, 64, 61
1, 18141, Note_on_c, 0, 73, 0
1, 18143, Note_on_c, 1, 67, 0
1, 18143, Note_on_c, 1, 64, 0
1, 18144, Note_on_c, 0, 72, 75
1, 18144, Note_on_c, 1, 67, 61
1, 18144, Note_on_c, 1, 64, 61
1, 18191, Note_on_c, 1, 67, 0
1, 18191, Note_on_c, 1, 64, 0
1, 18192, Note_on_c, 1, 67, 61
1, 18192, Note_on_c, 1, 64, 61
1, 18211, Note_on_c, 0, 72, 0
1, 18216, Note_on_c, 0, 70, 75
1, 18239, Note_on_c, 0, 70, 0
1, 18239, Note_on_c, 1, 67, 0
1, 18239, Note_on_c, 1, 64, 0
1, 18240, Note_on_c, 0, 68, 75
1, 18240, Note_on_c, 1, 65, 61
1, 18255, Note_on_c, 0, 68, 0
1, 18256, Note_on_c, 0, 65, 75
1, 18271, Note_on_c, 0, 65, 0
1, 18272, Note_on_c, 0, 67, 75
1, 18287, Note_on_c, 0, 67, 0
1, 18287, Note_on_c, 1, 65, 0
1, 18288, Note_on_c, 0, 68, 75
1, 18303, Note_on_c, 0, 68, 0
1, 18304, Note_on_c, 0, 70, 75
1, 18319, Note_on_c, 0, 70, 0
1, 18320, Note_on_c, 0, 72, 75
1, 18335, Note_on_c, 0, 72, 0
1, 18336, Note_on_c, 0, 74, 75
1, 18351, Note_on_c, 0, 74, 0
1, 18352, Note_on_c, 0, 76, 75
1, 18367, Note_on_c, 0, 76, 0
1, 18368, Note_on_c, 0, 77, 75
1, 18383, Note_on_c, 0, 77, 0
1, 18384, Note_on_c, 0, 79, 75
1, 18399, Note_on_c, 0, 79, 0
1, 18400, Note_on_c, 0, 80, 75
1, 18415, Note_on_c, 0, 80, 0
1, 18416, Note_on_c, 0, 82, 75
1, 18431, Note_on_c, 0, 82, 0
1, 18432, Note_on_c, 0, 84, 75
1, 18480, Note_on_c, 1, 72, 61
1, 18480, Note_on_c, 1, 68, 61
1, 18527, Note_on_c, 1, 72, 0
1, 18527, Note_on_c, 1, 68, 0
1, 18528, Note_on_c, 1, 72, 61
1, 18528, Note_on_c, 1, 68, 61
1, 18551, Note_on_c, 0, 84, 0
1, 18552, Note_on_c, 0, 82, 75
1, 18564, Note_on_c, 0, 82, 0
1, 18564, Note_on_c, 0, 80, 75
1, 18575, Note_on_c, 1, 72, 0
1, 18575, Note_on_c, 1, 68, 0
1, 18576, Note_on_c, 0, 80, 0
1, 18576, Note_on_c, 0, 82, 75
1, 18576, Note_on_c, 1, 72, 61
1, 18576, Note_on_c, 1, 68, 61
1, 18588, Note_on_c, 0, 82, 0
1, 18588, Note_on_c, 0, 80, 75
1, 18600, Note_on_c, 0, 80, 0
1, 18600, Note_on_c, 0, 79, 75
1, 18612, Note_on_c, 0, 79, 0
1, 18612, Note_on_c, 0, 77, 75
1, 18623, Note_on_c, 1, 72, 0
1, 18623, Note_on_c, 1, 68, 0
1, 18624, Note_on_c, 0, 77, 0
1, 18624, Note_on_c, 0, 75, 75
1, 18672, Note_on_c, 1, 70, 61
1, 18672, Note_on_c, 1, 68, 61
1, 18713, Note_on_c, 0, 75, 0
1, 18719, Note_on_c, 1, 70, 0
1, 18719, Note_on_c, 1, 68, 0
1, 18720, Note_on_c, 0, 74, 75
1, 18720, Note_on_c, 1, 70, 61
1, 18720, Note_on_c, 1, 68, 61
1, 18729, Note_on_c, 0, 74, 0
1, 18729, Note_on_c, 0, 75, 75
1, 18738, Note_on_c, 0, 75, 0
1, 18738, Note_on_c, 0, 74, 75
1, 18747, Note_on_c, 0, 74, 0
1, 18747, Note_on_c, 0, 75, 75
1, 18756, Note_on_c, 0, 75, 0
1, 18756, Note_on_c, 0, 74, 75
1, 18765, Note_on_c, 0, 74, 0
1, 18765, Note_on_c, 0, 75, 75
1, 18767, Note_on_c, 1, 70, 0
1, 18767, Note_on_c, 1, 68, 0
1, 18768, Note_on_c, 1, 70, 61
1, 18768, Note_on_c, 1, 68, 61
1, 18774, Note_on_c, 0, 75, 0
1, 18774, Note_on_c, 0, 74, 75
1, 18783, Note_on_c, 0, 74, 0
1, 18783, Note_on_c, 0, 75, 75
1, 18792, Note_on_c, 0, 75, 0
1, 18792, Note_on_c, 0, 74, 75
1, 18800, Note_on_c, 0, 74, 0
1, 18800, Note_on_c, 0, 75, 75
1, 18808, Note_on_c, 0, 75, 0
1, 18808, Note_on_c, 0, 77, 75
1, 18815, Note_on_c, 1, 70, 0
1, 18815, Note_on_c, 1, 68, 0
1, 18816, Note_on_c, 0, 77, 0
1, 18816, Note_on_c, 0, 75, 75
1, 18816, Note_on_c, 1, 70, 61
1, 18816, Note_on_c, 1, 67, 61
1, 18836, Note_on_c, 0, 75, 0
1, 18863, Note_on_c, 1, 70, 0
1, 18863, Note_on_c, 1, 67, 0
1, 18864, Note_on_c, 0, 68, 91
1, 18864, Note_on_c, 0, 65, 91
1, 18864, Note_on_c, 1, 62, 61
1, 18909, Note_on_c, 1, 62, 0
1, 18912, Note_on_c, 1, 63, 61
1, 18957, Note_on_c, 1, 63, 0
1, 18960, Note_on_c, 0, 68, 0
1, 18960, Note_on_c, 0, 65, 0
1, 18960, Note_on_c, 0, 67, 75
1, 18960, Note_on_c, 0, 63, 75
1, 18960, Note_on_c, 1, 57, 61
1, 19005, Note_on_c, 0, 67, 0
1, 19005, Note_on_c, 0, 63, 0
1, 19005, Note_on_c, 1, 57, 0
1, 19008, Note_on_c, 0, 65, 75
1, 19008, Note_on_c, 0, 62, 75
1, 19008, Note_on_c, 1, 58, 61
1, 19055, Note_on_c, 0, 65, 0
1, 19055, Note_on_c, 0, 62, 0
1, 19056, Note_on_c, 0, 58, 75
1, 19071, Note_on_c, 0, 58, 0
1, 19072, Note_on_c, 0, 62, 75
1, 19087, Note_on_c, 0, 62, 0
1, 19088, Note_on_c, 0, 60, 75
1, 19097, Note_on_c, 1, 58, 0
1, 19103, Note_on_c, 0, 60, 0
1, 19104, Note_on_c, 0, 58, 75
1, 19119, Note_on_c, 0, 58, 0
1, 19120, Note_on_c, 0, 60, 76
1, 19135, Note_on_c, 0, 60, 0
1, 19136, Note_on_c, 0, 62, 77
1, 19151, Note_on_c, 0, 62, 0
1, 19152, Note_on_c, 0, 63, 78
1, 19167, Note_on_c, 0, 63, 0
1, 19168, Note_on_c, 0, 65, 79
1, 19183, Note_on_c, 0, 65, 0
1, 19184, Note_on_c, 0, 67, 80
1, 19199, Note_on_c, 0, 67, 0
1, 19200, Note_on_c, 1, 68, 84
1, 19200, Note_on_c, 1, 65, 84
1, 19200, Note_on_c, 1, 58, 84
1, 19216, Note_on_c, 0, 74, 84
1, 19231, Note_on_c, 0, 74, 0
1, 19232, Note_on_c, 0, 75, 84
1, 19247, Note_on_c, 0, 75, 0
1, 19248, Note_on_c, 0, 77, 84
1, 19263, Note_on_c, 0, 77, 0
1, 19264, Note_on_c, 0, 75, 84
1, 19279, Note_on_c, 0, 75, 0
1, 19280, Note_on_c, 0, 74, 84
1, 19289, Note_on_c, 1, 68, 0
1, 19289, Note_on_c, 1, 65, 0
1, 19289, Note_on_c, 1, 58, 0
1, 19295, Note_on_c, 0, 74, 0
1, 19296, Note_on_c, 1, 67, 84
1, 19296, Note_on_c, 1, 63, 84
1, 19296, Note_on_c, 1, 58, 84
1, 19312, Note_on_c, 0, 75, 84
1, 19327, Note_on_c, 0, 75, 0
1, 19328, Note_on_c, 0, 77, 84
1, 19343, Note_on_c, 0, 77, 0
1, 19344, Note_on_c, 0, 79, 84
1, 19359, Note_on_c, 0, 79, 0
1, 19360, Note_on_c, 0, 77, 84
1, 19375, Note_on_c, 0, 77, 0
1, 19376, Note_on_c, 0, 75, 84
1, 19385, Note_on_c, 1, 67, 0
1, 19385, Note_on_c, 1, 63, 0
1, 19385, Note_on_c, 1, 58, 0
1, 19391, Note_on_c, 0, 75, 0
1, 19392, Note_on_c, 0, 77, 84
1, 19392, Note_on_c, 1, 65, 84
1, 19392, Note_on_c, 1, 62, 84
1, 19392, Note_on_c, 1, 58, 84
1, 19407, Note_on_c, 0, 77, 0
1, 19408, Note_on_c, 0, 80, 84
1, 19423, Note_on_c, 0, 80, 0
1, 19424, Note_on_c, 0, 79, 84
1, 19439, Note_on_c, 0, 79, 0
1, 19440, Note_on_c, 0, 77, 84
1, 19455, Note_on_c, 0, 77, 0
1, 19456, Note_on_c, 0, 75, 84
1, 19471, Note_on_c, 0, 75, 0
1, 19472, Note_on_c, 0, 74, 84
1, 19481, Note_on_c, 1, 65, 0
1, 19481, Note_on_c, 1, 62, 0
1, 19481, Note_on_c, 1, 58, 0
1, 19487, Note_on_c, 0, 74, 0
1, 19488, Note_on_c, 0, 72, 84
1, 19503, Note_on_c, 0, 72, 0
1, 19504, Note_on_c, 0, 70, 84
1, 19519, Note_on_c, 0, 70, 0
1, 19520, Note_on_c, 0, 68, 84
1, 19535, Note_on_c, 0, 68, 0
1, 19536, Note_on_c, 0, 67, 84
1, 19551, Note_on_c, 0, 67, 0
1, 19552, Note_on_c, 0, 65, 84
1, 19567, Note_on_c, 0, 65, 0
1, 19568, Note_on_c, 0, 63, 84
1, 19583, Note_on_c, 0, 63, 0
1, 19584, Note_on_c, 1, 56, 84
1, 19584, Note_on_c, 1, 53, 84
1, 19584, Note_on_c, 1, 46, 84
1, 19600, Note_on_c, 0, 62, 84
1, 19615, Note_on_c, 0, 62, 0
1, 19616, Note_on_c, 0, 63, 84
1, 19631, Note_on_c, 0, 63, 0
1, 19632, Note_on_c, 0, 65, 84
1, 19647, Note_on_c, 0, 65, 0
1, 19648, Note_on_c, 0, 63, 84
1, 19663, Note_on_c, 0, 63, 0
1, 19664, Note_on_c, 0, 62, 84
1, 19673, Note_on_c, 1, 56, 0
1, 19673, Note_on_c, 1, 53, 0
1, 19673, Note_on_c, 1, 46, 0
1, 19679, Note_on_c, 0, 62, 0
1, 19680, Note_on_c, 1, 55, 84
1, 19680, Note_on_c, 1, 51, 84
1, 19680, Note_on_c, 1, 46, 84
1, 19696, Note_on_c, 0, 63, 84
1, 19711, Note_on_c, 0, 63, 0
1, 19712, Note_on_c, 0, 65, 84
1, 19727, Note_on_c, 0, 65, 0
1, 19728, Note_on_c, 0, 67, 84
1, 19743, Note_on_c, 0, 67, 0
1, 19744, Note_on_c, 0, 65, 84
1, 19759, Note_on_c, 0, 65, 0
1, 19760, Note_on_c, 0, 63, 84
1, 19769, Note_on_c, 1, 55, 0
1, 19769, Note_on_c, 1, 51, 0
1, 19769, Note_on_c, 1, 46, 0
1, 19775, Note_on_c, 0, 63, 0
1, 19776, Note_on_c, 0, 65, 84
1, 19776, Note_on_c, 1, 53, 84
1, 19776, Note_on_c, 1, 50, 84
1, 19776, Note_on_c, 1, 46, 84
1, 19791, Note_on_c, 0, 65, 0
1, 19792, Note_on_c, 0, 68, 84
1, 19807, Note_on_c, 0, 68, 0
1, 19808, Note_on_c, 0, 67, 84
1, 19823, Note_on_c, 0, 67, 0
1, 19824, Note_on_c, 0, 65, 84
1, 19839, Note_on_c, 0, 65, 0
1, 19840, Note_on_c, 0, 63, 84
1, 19855, Note_on_c, 0, 63, 0
1, 19856, Note_on_c, 0, 62, 84
1, 19865, Note_on_c, 1, 53, 0
1, 19865, Note_on_c, 1, 50, 0
1, 19865, Note_on_c, 1, 46, 0
1, 19871, Note_on_c, 0, 62, 0
1, 19872, Note_on_c, 0, 60, 84
1, 19887, Note_on_c, 0, 60, 0
1, 19888, Note_on_c, 0, 58, 84
1, 19903, Note_on_c, 0, 58, 0
1, 19904, Note_on_c, 0, 56, 84
1, 19919, Note_on_c, 0, 56, 0
1, 19920, Note_on_c, 0, 55, 84
1, 19935, Note_on_c, 0, 55, 0
1, 19936, Note_on_c, 0, 53, 84
1, 19951, Note_on_c, 0, 53, 0
1, 19952, Note_on_c, 0, 51, 84
1, 19967, Note_on_c, 0, 51, 0
1, 19968, Note_on_c, 0, 50, 84
1, 19984, Note_on_c, 1, 46, 84
1, 19988, Note_on_c, 0, 50, 0
1, 19999, Note_on_c, 1, 46, 0
1, 20000, Note_on_c, 1, 34, 84
1, 20015, Note_on_c, 1, 34, 0
1, 20016, Note_on_c, 0, 51, 84
1, 20016, Note_on_c, 0, 48, 84
1, 20032, Note_on_c, 1, 46, 84
1, 20036, Note_on_c, 0, 51, 0
1, 20036, Note_on_c, 0, 48, 0
1, 20047, Note_on_c, 1, 46, 0
1, 20048, Note_on_c, 1, 34, 84
1, 20063, Note_on_c, 1, 34, 0
1, 20064, Note_on_c, 0, 53, 84
1, 20064, Note_on_c, 0, 50, 84
1, 20080, Note_on_c, 1, 46, 84
1, 20084, Note_on_c, 0, 53, 0
1, 20084, Note_on_c, 0, 50, 0
1, 20095, Note_on_c, 1, 46, 0
1, 20096, Note_on_c, 1, 34, 84
1, 20111, Note_on_c, 1, 34, 0
1, 20112, Note_on_c, 0, 55, 84
1, 20112, Note_on_c, 0, 51, 84
1, 20128, Note_on_c, 1, 46, 84
1, 20132, Note_on_c, 0, 55, 0
1, 20132, Note_on_c, 0, 51, 0
1, 20143, Note_on_c, 1, 46, 0
1, 20144, Note_on_c, 1, 34, 84
1, 20159, Note_on_c, 1, 34, 0
1, 20160, Note_on_c, 0, 56, 84
1, 20160, Note_on_c, 0, 53, 84
1, 20176, Note_on_c, 1, 46, 84
1, 20180, Note_on_c, 0, 56, 0
1, 20180, Note_on_c, 0, 53, 0
1, 20191, Note_on_c, 1, 46, 0
1, 20192, Note_on_c, 1, 34, 84
1, 20207, Note_on_c, 1, 34, 0
1, 20208, Note_on_c, 0, 53, 84
1, 20208, Note_on_c, 0, 50, 84
1, 20224, Note_on_c, 1, 46, 84
1, 20228, Note_on_c, 0, 53, 0
1, 20228, Note_on_c, 0, 50, 0
1, 20239, Note_on_c, 1, 46, 0
1, 20240, Note_on_c, 1, 34, 84
1, 20255, Note_on_c, 1, 34, 0
1, 20256, Note_on_c, 0, 55, 84
1, 20256, Note_on_c, 0, 51, 84
1, 20272, Note_on_c, 1, 46, 84
1, 20276, Note_on_c, 0, 55, 0
1, 20276, Note_on_c, 0, 51, 0
1, 20287, Note_on_c, 1, 46, 0
1, 20288, Note_on_c, 1, 34, 84
1, 20303, Note_on_c, 1, 34, 0
1, 20304, Note_on_c, 0, 58, 84
1, 20304, Note_on_c, 0, 55, 84
1, 20320, Note_on_c, 1, 46, 84
1, 20324, Note_on_c, 0, 58, 0
1, 20324, Note_on_c, 0, 55, 0
1, 20335, Note_on_c, 1, 46, 0
1, 20336, Note_on_c, 1, 34, 84
1, 20351, Note_on_c, 1, 34, 0
1, 20352, Note_on_c, 0, 50, 84
1, 20352, Note_on_c, 0, 46, 84
1, 20368, Note_on_c, 1, 46, 84
1, 20372, Note_on_c, 0, 50, 0
1, 20372, Note_on_c, 0, 46, 0
1, 20383, Note_on_c, 1, 46, 0
1, 20384, Note_on_c, 1, 34, 84
1, 20399, Note_on_c, 1, 34, 0
1, 20400, Note_on_c, 0, 51, 84
1, 20400, Note_on_c, 0, 48, 84
1, 20416, Note_on_c, 1, 46, 84
1, 20420, Note_on_c, 0, 51, 0
1, 20420, Note_on_c, 0, 48, 0
1, 20431, Note_on_c, 1, 46, 0
1, 20432, Note_on_c, 1, 34, 84
1, 20447, Note_on_c, 1, 34, 0
1, 20448, Note_on_c, 0, 53, 84
1, 20448, Note_on_c, 0, 50, 84
1, 20464, Note_on_c, 1, 46, 84
1, 20468, Note_on_c, 0, 53, 0
1, 20468, Note_on_c, 0, 50, 0
1, 20479, Note_on_c, 1, 46, 0
1, 20480, Note_on_c, 1, 34, 84
1, 20495, Note_on_c, 1, 34, 0
1, 20496, Note_on_c, 0, 55, 84
1, 20496, Note_on_c, 0, 51, 84
1, 20512, Note_on_c, 1, 46, 85
1, 20516, Note_on_c, 0, 55, 0
1, 20516, Note_on_c, 0, 51, 0
1, 20527, Note_on_c, 1, 46, 0
1, 20528, Note_on_c, 1, 34, 86
1, 20543, Note_on_c, 1, 34, 0
1, 20544, Note_on_c, 0, 56, 84
1, 20544, Note_on_c, 0, 53, 84
1, 20560, Note_on_c, 1, 46, 88
1, 20564, Note_on_c, 0, 56, 0
1, 20564, Note_on_c, 0, 53, 0
1, 20575, Note_on_c, 1, 46, 0
1, 20576, Note_on_c, 1, 34, 89
1, 20591, Note_on_c, 1, 34, 0
1, 20592, Note_on_c, 0, 53, 87
1, 20592, Note_on_c, 0, 50, 87
1, 20608, Note_on_c, 1, 46, 91
1, 20612, Note_on_c, 0, 53, 0
1, 20612, Note_on_c, 0, 50, 0
1, 20623, Note_on_c, 1, 46, 0
1, 20624, Note_on_c, 1, 34, 92
1, 20639, Note_on_c, 1, 34, 0
1, 20640, Note_on_c, 0, 55, 91
1, 20640, Note_on_c, 0, 51, 91
1, 20656, Note_on_c, 1, 46, 95
1, 20660, Note_on_c, 0, 55, 0
1, 20660, Note_on_c, 0, 51, 0
1, 20671, Note_on_c, 1, 46, 0
1, 20672, Note_on_c, 1, 34, 96
1, 20687, Note_on_c, 1, 34, 0
1, 20688, Note_on_c, 0, 57, 95
1, 20688, Note_on_c, 0, 51, 95
1, 20688, Note_on_c, 0, 48, 95
1, 20704, Note_on_c, 1, 46, 98
1, 20708, Note_on_c, 0, 57, 0
1, 20708, Note_on_c, 0, 51, 0
1, 20708, Note_on_c, 0, 48, 0
1, 20719, Note_on_c, 1, 46, 0
1, 20720, Note_on_c, 1, 34, 99
1, 20735, Note_on_c, 1, 34, 0
1, 20736, Note_on_c, 0, 58, 98
1, 20736, Note_on_c, 0, 53, 98
1, 20736, Note_on_c, 0, 50, 98
1, 20752, Note_on_c, 1, 46, 106
1, 20767, Note_on_c, 1, 46, 0
1, 20768, Note_on_c, 1, 34, 106
1, 20921, Note_on_c, 0, 58, 0
1, 20921, Note_on_c, 0, 53, 0
1, 20921, Note_on_c, 0, 50, 0
1, 20921, Note_on_c, 1, 34, 0
1, 21120, Note_on_c, 0, 82, 69
1, 21120, Note_on_c, 0, 79, 69
1, 21136, Note_on_c, 1, 63, 69
1, 21151, Note_on_c, 1, 63, 0
1, 21152, Note_on_c, 1, 65, 69
1, 21167, Note_on_c, 1, 65, 0
1, 21168, Note_on_c, 1, 67, 69
1, 21183, Note_on_c, 1, 67, 0
1, 21184, Note_on_c, 1, 65, 69
1, 21199, Note_on_c, 1, 65, 0
1, 21200, Note_on_c, 1, 63, 69
1, 21209, Note_on_c, 0, 82, 0
1, 21209, Note_on_c, 0, 79, 0
1, 21215, Note_on_c, 1, 63, 0
1, 21216, Note_on_c, 0, 82, 69
1, 21216, Note_on_c, 0, 80, 69
1, 21216, Note_on_c, 1, 62, 69
1, 21231, Note_on_c, 1, 62, 0
1, 21232, Note_on_c, 1, 65, 69
1, 21247, Note_on_c, 1, 65, 0
1, 21248, Note_on_c, 1, 70, 69
1, 21263, Note_on_c, 1, 70, 0
1, 21264, Note_on_c, 1, 74, 69
1, 21279, Note_on_c, 1, 74, 0
1, 21280, Note_on_c, 1, 72, 69
1, 21295, Note_on_c, 1, 72, 0
1, 21296, Note_on_c, 1, 70, 69
1, 21305, Note_on_c, 0, 82, 0
1, 21305, Note_on_c, 0, 80, 0
1, 21311, Note_on_c, 1, 70, 0
1, 21312, Note_on_c, 0, 82, 69
1, 21312, Note_on_c, 0, 79, 69
1, 21312, Note_on_c, 1, 75, 69
1, 21327, Note_on_c, 0, 82, 0
1, 21327, Note_on_c, 0, 79, 0
1, 21328, Note_on_c, 0, 79, 69
1, 21343, Note_on_c, 0, 79, 0
1, 21344, Note_on_c, 0, 80, 69
1, 21359, Note_on_c, 0, 80, 0
1, 21360, Note_on_c, 0, 82, 69
1, 21375, Note_on_c, 0, 82, 0
1, 21376, Note_on_c, 0, 80, 69
1, 21391, Note_on_c, 0, 80, 0
1, 21392, Note_on_c, 0, 79, 69
1, 21401, Note_on_c, 1, 75, 0
1, 21407, Note_on_c, 0, 79, 0
1, 21408, Note_on_c, 0, 87, 69
1, 21423, Note_on_c, 0, 87, 0
1, 21424, Note_on_c, 0, 86, 69
1, 21439, Note_on_c, 0, 86, 0
1, 21440, Note_on_c, 0, 84, 69
1, 21455, Note_on_c, 0, 84, 0
1, 21456, Note_on_c, 0, 82, 69
1, 21471, Note_on_c, 0, 82, 0
1, 21472, Note_on_c, 0, 80, 69
1, 21487, Note_on_c, 0, 80, 0
1, 21488, Note_on_c, 0, 79, 69
1, 21503, Note_on_c, 0, 79, 0
1, 21504, Note_on_c, 0, 82, 61
1, 21504, Note_on_c, 0, 79, 61
1, 21520, Note_on_c, 1, 63, 61
1, 21535, Note_on_c, 1, 63, 0
1, 21536, Note_on_c, 1, 65, 61
1, 21551, Note_on_c, 1, 65, 0
1, 21552, Note_on_c, 1, 67, 61
1, 21567, Note_on_c, 1, 67, 0
1, 21568, Note_on_c, 1, 65, 61
1, 21583, Note_on_c, 1, 65, 0
1, 21584, Note_on_c, 1, 63, 61
1, 21593, Note_on_c, 0, 82, 0
1, 21593, Note_on_c, 0, 79, 0
1, 21599, Note_on_c, 1, 63, 0
1, 21600, Note_on_c, 0, 82, 61
1, 21600, Note_on_c, 0, 80, 61
1, 21600, Note_on_c, 1, 62, 61
1, 21615, Note_on_c, 1, 62, 0
1, 21616, Note_on_c, 1, 65, 61
1, 21631, Note_on_c, 1, 65, 0
1, 21632, Note_on_c, 1, 70, 61
1, 21647, Note_on_c, 1, 70, 0
1, 21648, Note_on_c, 1, 74, 61
1, 21663, Note_on_c, 1, 74, 0
1, 21664, Note_on_c, 1, 72, 61
1, 21679, Note_on_c, 1, 72, 0
1, 21680, Note_on_c, 1, 70, 61
1, 21689, Note_on_c, 0, 82, 0
1, 21689, Note_on_c, 0, 80, 0
1, 21695, Note_on_c, 1, 70, 0
1, 21696, Note_on_c, 0, 82, 61
1, 21696, Note_on_c, 0, 79, 61
1, 21696, Note_on_c, 1, 75, 61
1, 21711, Note_on_c, 0, 82, 0
1, 21711, Note_on_c, 0, 79, 0
1, 21712, Note_on_c, 0, 79, 61
1, 21727, Note_on_c, 0, 79, 0
1, 21728, Note_on_c, 0, 80, 61
1, 21743, Note_on_c, 0, 80, 0
1, 21744, Note_on_c, 0, 82, 61
1, 21759, Note_on_c, 0, 82, 0
1, 21760, Note_on_c, 0, 80, 61
1, 21775, Note_on_c, 0, 80, 0
1, 21776, Note_on_c, 0, 79, 61
1, 21785, Note_on_c, 1, 75, 0
1, 21791, Note_on_c, 0, 79, 0
1, 21792, Note_on_c, 0, 87, 61
1, 21807, Note_on_c, 0, 87, 0
1, 21808, Note_on_c, 0, 86, 61
1, 21823, Note_on_c, 0, 86, 0
1, 21824, Note_on_c, 0, 84, 61
1, 21839, Note_on_c, 0, 84, 0
1, 21840, Note_on_c, 0, 82, 61
1, 21855, Note_on_c, 0, 82, 0
1, 21856, Note_on_c, 0, 80, 61
1, 21871, Note_on_c, 0, 80, 0
1, 21872, Note_on_c, 0, 79, 61
1, 21887, Note_on_c, 0, 79, 0
1, 21888, Note_on_c, 0, 77, 69
1, 21888, Note_on_c, 1, 65, 69
1, 21888, Note_on_c, 1, 60, 69
1, 21888, Note_on_c, 1, 56, 69
1, 21903, Note_on_c, 0, 77, 0
1, 21904, Note_on_c, 0, 77, 69
1, 21919, Note_on_c, 0, 77, 0
1, 21920, Note_on_c, 0, 79, 69
1, 21935, Note_on_c, 0, 79, 0
1, 21936, Note_on_c, 0, 80, 69
1, 21951, Note_on_c, 0, 80, 0
1, 21952, Note_on_c, 0, 79, 69
1, 21967, Note_on_c, 0, 79, 0
1, 21968, Note_on_c, 0, 77, 69
1, 21977, Note_on_c, 1, 65, 0
1, 21977, Note_on_c, 1, 60, 0
1, 21977, Note_on_c, 1, 56, 0
1, 21983, Note_on_c, 0, 77, 0
1, 21984, Note_on_c, 0, 84, 69
1, 21999, Note_on_c, 0, 84, 0
1, 22000, Note_on_c, 0, 82, 69
1, 22015, Note_on_c, 0, 82, 0
1, 22016, Note_on_c, 0, 80, 69
1, 22031, Note_on_c, 0, 80, 0
1, 22032, Note_on_c, 0, 79, 69
1, 22047, Note_on_c, 0, 79, 0
1, 22048, Note_on_c, 0, 77, 69
1, 22063, Note_on_c, 0, 77, 0
1, 22064, Note_on_c, 0, 75, 69
1, 22079, Note_on_c, 0, 75, 0
1, 22080, Note_on_c, 0, 74, 69
1, 22080, Note_on_c, 1, 68, 69
1, 22080, Note_on_c, 1, 65, 69
1, 22080, Note_on_c, 1, 58, 69
1, 22095, Note_on_c, 0, 74, 0
1, 22096, Note_on_c, 0, 77, 69
1, 22111, Note_on_c, 0, 77, 0
1, 22112, Note_on_c, 0, 75, 69
1, 22127, Note_on_c, 0, 75, 0
1, 22128, Note_on_c, 0, 74, 69
1, 22143, Note_on_c, 0, 74, 0
1, 22144, Note_on_c, 0, 72, 69
1, 22159, Note_on_c, 0, 72, 0
1, 22160, Note_on_c, 0, 70, 69
1, 22169, Note_on_c, 1, 68, 0
1, 22169, Note_on_c, 1, 65, 0
1, 22169, Note_on_c, 1, 58, 0
1, 22175, Note_on_c, 0, 70, 0
1, 22176, Note_on_c, 0, 68, 69
1, 22191, Note_on_c, 0, 68, 0
1, 22192, Note_on_c, 0, 67, 69
1, 22207, Note_on_c, 0, 67, 0
1, 22208, Note_on_c, 0, 65, 70
1, 22223, Note_on_c, 0, 65, 0
1, 22224, Note_on_c, 0, 63, 71
1, 22239, Note_on_c, 0, 63, 0
1, 22240, Note_on_c, 0, 62, 72
1, 22255, Note_on_c, 0, 62, 0
1, 22256, Note_on_c, 0, 60, 72
1, 22271, Note_on_c, 0, 60, 0
1, 22272, Note_on_c, 0, 58, 91
1, 22272, Note_on_c, 1, 56, 75
1, 22272, Note_on_c, 1, 46, 64
1, 22288, Note_on_c, 0, 58, 0
1, 22288, Note_on_c, 0, 62, 75
1, 22303, Note_on_c, 0, 62, 0
1, 22304, Note_on_c, 0, 65, 75
1, 22317, Note_on_c, 1, 56, 0
1, 22319, Note_on_c, 0, 65, 0
1, 22320, Note_on_c, 0, 58, 75
1, 22320, Note_on_c, 1, 55, 75
1, 22335, Note_on_c, 0, 58, 0
1, 22336, Note_on_c, 0, 62, 75
1, 22351, Note_on_c, 0, 62, 0
1, 22352, Note_on_c, 0, 63, 75
1, 22365, Note_on_c, 1, 55, 0
1, 22367, Note_on_c, 0, 63, 0
1, 22368, Note_on_c, 0, 56, 75
1, 22368, Note_on_c, 1, 53, 75
1, 22383, Note_on_c, 0, 56, 0
1, 22384, Note_on_c, 0, 58, 75
1, 22399, Note_on_c, 0, 58, 0
1, 22400, Note_on_c, 0, 62, 75
1, 22413, Note_on_c, 1, 53, 0
1, 22415, Note_on_c, 0, 62, 0
1, 22416, Note_on_c, 0, 55, 75
1, 22416, Note_on_c, 1, 51, 75
1, 22431, Note_on_c, 0, 55, 0
1, 22432, Note_on_c, 0, 58, 75
1, 22447, Note_on_c, 0, 58, 0
1, 22448, Note_on_c, 0, 63, 75
1, 22449, Note_on_c, 1, 46, 0
1, 22461, Note_on_c, 1, 51, 0
1, 22463, Note_on_c, 0, 63, 0
1, 22464, Note_on_c, 0, 58, 91
1, 22464, Note_on_c, 1, 56, 75
1, 22464, Note_on_c, 1, 46, 64
1, 22480, Note_on_c, 0, 58, 0
1, 22480, Note_on_c, 0, 62, 75
1, 22495, Note_on_c, 0, 62, 0
1, 22496, Note_on_c, 0, 65, 75
1, 22509, Note_on_c, 1, 56, 0
1, 22511, Note_on_c, 0, 65, 0
1, 22512, Note_on_c, 0, 58, 75
1, 22512, Note_on_c, 1, 55, 75
1, 22527, Note_on_c, 0, 58, 0
1, 22528, Note_on_c, 0, 62, 75
1, 22543, Note_on_c, 0, 62, 0
1, 22544, Note_on_c, 0, 63, 75
1, 22557, Note_on_c, 1, 55, 0
1, 22559, Note_on_c, 0, 63, 0
1, 22560, Note_on_c, 0, 56, 75
1, 22560, Note_on_c, 1, 53, 75
1, 22575, Note_on_c, 0, 56, 0
1, 22576, Note_on_c, 0, 58, 75
1, 22591, Note_on_c, 0, 58, 0
1, 22592, Note_on_c, 0, 62, 75
1, 22605, Note_on_c, 1, 53, 0
1, 22607, Note_on_c, 0, 62, 0
1, 22608, Note_on_c, 0, 55, 75
1, 22608, Note_on_c, 1, 51, 75
1, 22623, Note_on_c, 0, 55, 0
1, 22624, Note_on_c, 0, 58, 75
1, 22639, Note_on_c, 0, 58, 0
1, 22640, Note_on_c, 0, 63, 75
1, 22641, Note_on_c, 1, 46, 0
1, 22653, Note_on_c, 1, 51, 0
1, 22655, Note_on_c, 0, 63, 0
1, 22656, Note_on_c, 1, 44, 75
1, 22660, Note_on_c, 1, 48, 75
1, 22664, Note_on_c, 1, 53, 75
1, 22672, Note_on_c, 0, 60, 75
1, 22687, Note_on_c, 0, 60, 0
1, 22688, Note_on_c, 0, 65, 75
1, 22703, Note_on_c, 0, 65, 0
1, 22704, Note_on_c, 0, 68, 75
1, 22719, Note_on_c, 0, 68, 0
1, 22720, Note_on_c, 0, 65, 75
1, 22735, Note_on_c, 0, 65, 0
1, 22736, Note_on_c, 0, 68, 75
1, 22751, Note_on_c, 0, 68, 0
1, 22752, Note_on_c, 0, 72, 75
1, 22767, Note_on_c, 0, 72, 0
1, 22768, Note_on_c, 0, 68, 75
1, 22783, Note_on_c, 0, 68, 0
1, 22784, Note_on_c, 0, 72, 75
1, 22799, Note_on_c, 0, 72, 0
1, 22800, Note_on_c, 0, 77, 75
1, 22815, Note_on_c, 0, 77, 0
1, 22816, Note_on_c, 0, 72, 75
1, 22831, Note_on_c, 0, 72, 0
1, 22832, Note_on_c, 0, 77, 75
1, 22847, Note_on_c, 0, 77, 0
1, 22848, Note_on_c, 0, 80, 75
1, 22863, Note_on_c, 0, 80, 0
1, 22864, Note_on_c, 0, 77, 76
1, 22879, Note_on_c, 0, 77, 0
1, 22880, Note_on_c, 0, 80, 77
1, 22895, Note_on_c, 0, 80, 0
1, 22896, Note_on_c, 0, 84, 78
1, 22911, Note_on_c, 0, 84, 0
1, 22912, Note_on_c, 0, 77, 79
1, 22927, Note_on_c, 0, 77, 0
1, 22928, Note_on_c, 0, 80, 80
1, 22943, Note_on_c, 0, 80, 0
1, 22944, Note_on_c, 0, 84, 81
1, 22959, Note_on_c, 0, 84, 0
1, 22960, Note_on_c, 0, 82, 84
1, 22975, Note_on_c, 0, 82, 0
1, 22976, Note_on_c, 0, 80, 84
1, 22991, Note_on_c, 0, 80, 0
1, 22992, Note_on_c, 0, 79, 84
1, 23007, Note_on_c, 0, 79, 0
1, 23008, Note_on_c, 0, 77, 84
1, 23017, Note_on_c, 1, 53, 0
1, 23017, Note_on_c, 1, 48, 0
1, 23017, Note_on_c, 1, 44, 0
1, 23023, Note_on_c, 0, 77, 0
1, 23024, Note_on_c, 0, 75, 84
1, 23039, Note_on_c, 0, 75, 0
1, 23040, Note_on_c, 0, 75, 84
1, 23040, Note_on_c, 1, 68, 84
1, 23040, Note_on_c, 1, 65, 84
1, 23040, Note_on_c, 1, 58, 84
1, 23227, Note_on_c, 0, 75, 0
1, 23232, Note_on_c, 0, 74, 84
1, 23238, Note_on_c, 0, 74, 0
1, 23238, Note_on_c, 0, 75, 84
1, 23244, Note_on_c, 0, 75, 0
1, 23244, Note_on_c, 0, 74, 84
1, 23417, Note_on_c, 0, 74, 0
1, 23417, Note_on_c, 1, 68, 0
1, 23417, Note_on_c, 1, 65, 0
1, 23417, Note_on_c, 1, 58, 0
1, 23424, Note_on_c, 0, 64, 75
1, 23472, Note_on_c, 1, 58, 61
1, 23472, Note_on_c, 1, 55, 61
1, 23519, Note_on_c, 1, 58, 0
1, 23519, Note_on_c, 1, 55, 0
1, 23520, Note_on_c, 1, 58, 61
1, 23520, Note_on_c, 1, 55, 61
1, 23567, Note_on_c, 1, 58, 0
1, 23567, Note_on_c, 1, 55, 0
1, 23568, Note_on_c, 1, 58, 61
1, 23568, Note_on_c, 1, 55, 61
1, 23601, Note_on_c, 0, 64, 0
1, 23615, Note_on_c, 1, 58, 0
1, 23615, Note_on_c, 1, 55, 0
1, 23616, Note_on_c, 0, 65, 75
1, 23664, Note_on_c, 1, 60, 61
1, 23664, Note_on_c, 1, 56, 61
1, 23711, Note_on_c, 1, 60, 0
1, 23711, Note_on_c, 1, 56, 0
1, 23712, Note_on_c, 1, 60, 61
1, 23712, Note_on_c, 1, 56, 61
1, 23759, Note_on_c, 1, 60, 0
1, 23759, Note_on_c, 1, 56, 0
1, 23760, Note_on_c, 1, 60, 61
1, 23760, Note_on_c, 1, 56, 61
1, 23793, Note_on_c, 0, 65, 0
1, 23807, Note_on_c, 1, 60, 0
1, 23807, Note_on_c, 1, 56, 0
1, 23808, Note_on_c, 0, 61, 101
1, 23856, Note_on_c, 1, 51, 75
1, 23856, Note_on_c, 1, 43, 75
1, 23903, Note_on_c, 1, 51, 0
1, 23903, Note_on_c, 1, 43, 0
1, 23904, Note_on_c, 1, 51, 75
1, 23904, Note_on_c, 1, 43, 75
1, 23951, Note_on_c, 1, 51, 0
1, 23951, Note_on_c, 1, 43, 0
1, 23952, Note_on_c, 1, 51, 75
1, 23952, Note_on_c, 1, 43, 75
1, 23999, Note_on_c, 1, 51, 0
1, 23999, Note_on_c, 1, 43, 0
1, 24000, Note_on_c, 0, 61, 0
1, 24000, Note_on_c, 0, 60, 75
1, 24000, Note_on_c, 1, 51, 75
1, 24000, Note_on_c, 1, 44, 75
1, 24045, Note_on_c, 0, 60, 0
1, 24048, Note_on_c, 0, 71, 75
1, 24054, Note_on_c, 0, 71, 0
1, 24054, Note_on_c, 0, 72, 75
1, 24093, Note_on_c, 0, 72, 0
1, 24094, Note_on_c, 1, 51, 0
1, 24094, Note_on_c, 1, 44, 0
1, 24096, Note_on_c, 0, 67, 75
1, 24102, Note_on_c, 0, 67, 0
1, 24102, Note_on_c, 0, 68, 75
1, 24141, Note_on_c, 0, 68, 0
1, 24144, Note_on_c, 0, 64, 75
1, 24150, Note_on_c, 0, 64, 0
1, 24150, Note_on_c, 0, 65, 75
1, 24189, Note_on_c, 0, 65, 0
1, 24192, Note_on_c, 0, 60, 75
1, 24237, Note_on_c, 0, 60, 0
1, 24240, Note_on_c, 0, 71, 61
1, 24264, Note_on_c, 0, 71, 0
1, 24264, Note_on_c, 0, 72, 61
1, 24274, Note_on_c, 0, 72, 0
1, 24288, Note_on_c, 0, 67, 61
1, 24312, Note_on_c, 0, 67, 0
1, 24312, Note_on_c, 0, 68, 61
1, 24322, Note_on_c, 0, 68, 0
1, 24336, Note_on_c, 0, 64, 61
1, 24360, Note_on_c, 0, 64, 0
1, 24360, Note_on_c, 0, 65, 61
1, 24370, Note_on_c, 0, 65, 0
1, 24384, Note_on_c, 0, 60, 61
1, 24429, Note_on_c, 0, 60, 0
1, 24432, Note_on_c, 0, 71, 69
1, 24456, Note_on_c, 0, 71, 0
1, 24456, Note_on_c, 0, 72, 69
1, 24479, Note_on_c, 0, 72, 0
1, 24480, Note_on_c, 0, 70, 69
1, 24503, Note_on_c, 0, 70, 0
1, 24504, Note_on_c, 0, 68, 69
1, 24527, Note_on_c, 0, 68, 0
1, 24528, Note_on_c, 0, 67, 69
1, 24551, Note_on_c, 0, 67, 0
1, 24552, Note_on_c, 0, 65, 69
1, 24575, Note_on_c, 0, 65, 0
1, 24576, Note_on_c, 0, 67, 75
1, 24582, Note_on_c, 0, 67, 0
1, 24582, Note_on_c, 0, 68, 75
1, 24588, Note_on_c, 0, 68, 0
1, 24588, Note_on_c, 0, 70, 75
1, 24624, Note_on_c, 1, 55, 75
1, 24624, Note_on_c, 1, 46, 75
1, 24671, Note_on_c, 1, 55, 0
1, 24671, Note_on_c, 1, 46, 0
1, 24672, Note_on_c, 1, 55, 75
1, 24672, Note_on_c, 1, 46, 75
1, 24695, Note_on_c, 0, 70, 0
1, 24696, Note_on_c, 0, 68, 75
1, 24708, Note_on_c, 0, 68, 0
1, 24708, Note_on_c, 0, 67, 75
1, 24719, Note_on_c, 1, 55, 0
1, 24719, Note_on_c, 1, 46, 0
1, 24720, Note_on_c, 0, 67, 0
1, 24720, Note_on_c, 0, 65, 75
1, 24720, Note_on_c, 1, 55, 75
1, 24720, Note_on_c, 1, 46, 75
1, 24732, Note_on_c, 0, 65, 0
1, 24732, Note_on_c, 0, 63, 75
1, 24744, Note_on_c, 0, 63, 0
1, 24744, Note_on_c, 0, 62, 75
1, 24756, Note_on_c, 0, 62, 0
1, 24756, Note_on_c, 0, 60, 75
1, 24767, Note_on_c, 1, 55, 0
1, 24767, Note_on_c, 1, 46, 0
1, 24768, Note_on_c, 0, 60, 0
1, 24768, Note_on_c, 0, 58, 75
1, 24816, Note_on_c, 1, 55, 75
1, 24816, Note_on_c, 1, 46, 75
1, 24857, Note_on_c, 0, 58, 0
1, 24863, Note_on_c, 1, 55, 0
1, 24863, Note_on_c, 1, 46, 0
1, 24864, Note_on_c, 0, 56, 75
1, 24864, Note_on_c, 1, 53, 75
1, 24864, Note_on_c, 1, 46, 75
1, 24873, Note_on_c, 0, 56, 0
1, 24873, Note_on_c, 0, 58, 75
1, 24882, Note_on_c, 0, 58, 0
1, 24882, Note_on_c, 0, 56, 75
1, 24891, Note_on_c, 0, 56, 0
1, 24891, Note_on_c, 0, 58, 75
1, 24900, Note_on_c, 0, 58, 0
1, 24900, Note_on_c, 0, 56, 75
1, 24909, Note_on_c, 0, 56, 0
1, 24909, Note_on_c, 0, 58, 75
1, 24911, Note_on_c, 1, 53, 0
1, 24911, Note_on_c, 1, 46, 0
1, 24912, Note_on_c, 1, 53, 75
1, 24912, Note_on_c, 1, 46, 75
1, 24918, Note_on_c, 0, 58, 0
1, 24918, Note_on_c, 0, 56, 75
1, 24927, Note_on_c, 0, 56, 0
1, 24927, Note_on_c, 0, 55, 75
1, 24944, Note_on_c, 0, 55, 0
1, 24944, Note_on_c, 0, 56, 75
1, 24959, Note_on_c, 1, 53, 0
1, 24959, Note_on_c, 1, 46, 0
1, 24960, Note_on_c, 0, 56, 0
1, 24960, Note_on_c, 0, 55, 75
1, 24960, Note_on_c, 1, 51, 75
1, 24980, Note_on_c, 0, 55, 0
1, 25008, Note_on_c, 0, 63, 91
1, 25049, Note_on_c, 1, 51, 0
1, 25056, Note_on_c, 1, 55, 75
1, 25104, Note_on_c, 0, 63, 0
1, 25104, Note_on_c, 0, 61, 75
1, 25145, Note_on_c, 1, 55, 0
1, 25152, Note_on_c, 1, 56, 75
1, 25193, Note_on_c, 0, 61, 0
1, 25200, Note_on_c, 0, 60, 75
1, 25241, Note_on_c, 1, 56, 0
1, 25248, Note_on_c, 1, 44, 75
1, 25289, Note_on_c, 0, 60, 0
1, 25296, Note_on_c, 0, 64, 75
1, 25337, Note_on_c, 1, 44, 0
1, 25341, Note_on_c, 0, 64, 0
1, 25344, Note_on_c, 0, 67, 75
1, 25350, Note_on_c, 0, 67, 0
1, 25350, Note_on_c, 0, 65, 75
1, 25356, Note_on_c, 0, 65, 0
1, 25356, Note_on_c, 0, 64, 75
1, 25362, Note_on_c, 0, 64, 0
1, 25362, Note_on_c, 0, 65, 75
1, 25389, Note_on_c, 0, 65, 0
1, 25392, Note_on_c, 0, 67, 75
1, 25437, Note_on_c, 0, 67, 0
1, 25440, Note_on_c, 0, 70, 76
1, 25446, Note_on_c, 0, 70, 0
1, 25446, Note_on_c, 0, 68, 76
1, 25452, Note_on_c, 0, 68, 0
1, 25452, Note_on_c, 0, 67, 76
1, 25458, Note_on_c, 0, 67, 0
1, 25458, Note_on_c, 0, 68, 76
1, 25485, Note_on_c, 0, 68, 0
1, 25488, Note_on_c, 0, 71, 77
1, 25533, Note_on_c, 0, 71, 0
1, 25536, Note_on_c, 0, 74, 78
1, 25542, Note_on_c, 0, 74, 0
1, 25542, Note_on_c, 0, 72, 78
1, 25548, Note_on_c, 0, 72, 0
1, 25548, Note_on_c, 0, 71, 78
1, 25554, Note_on_c, 0, 71, 0
1, 25554, Note_on_c, 0, 72, 78
1, 25581, Note_on_c, 0, 72, 0
1, 25584, Note_on_c, 0, 76, 79
1, 25590, Note_on_c, 0, 76, 0
1, 25590, Note_on_c, 0, 79, 79
1, 25629, Note_on_c, 0, 79, 0
1, 25632, Note_on_c, 0, 77, 80
1, 25638, Note_on_c, 0, 77, 0
1, 25638, Note_on_c, 0, 80, 80
1, 25677, Note_on_c, 0, 80, 0
1, 25680, Note_on_c, 0, 79, 81
1, 25686, Note_on_c, 0, 79, 0
1, 25686, Note_on_c, 0, 82, 81
1, 25725, Note_on_c, 0, 82, 0
1, 25728, Note_on_c, 0, 80, 82
1, 25734, Note_on_c, 0, 80, 0
1, 25734, Note_on_c, 0, 84, 82
1, 25776, Note_on_c, 1, 53, 75
1, 25776, Note_on_c, 1, 44, 75
1, 25823, Note_on_c, 1, 53, 0
1, 25823, Note_on_c, 1, 44, 0
1, 25824, Note_on_c, 1, 53, 75
1, 25824, Note_on_c, 1, 44, 75
1, 25847, Note_on_c, 0, 84, 0
1, 25848, Note_on_c, 0, 82, 84
1, 25860, Note_on_c, 0, 82, 0
1, 25860, Note_on_c, 0, 80, 84
1, 25871, Note_on_c, 1, 53, 0
1, 25871, Note_on_c, 1, 44, 0
1, 25872, Note_on_c, 0, 80, 0
1, 25872, Note_on_c, 0, 82, 84
1, 25872, Note_on_c, 1, 53, 75
1, 25872, Note_on_c, 1, 44, 75
1, 25884, Note_on_c, 0, 82, 0
1, 25884, Note_on_c, 0, 80, 84
1, 25896, Note_on_c, 0, 80, 0
1, 25896, Note_on_c, 0, 79, 84
1, 25908, Note_on_c, 0, 79, 0
1, 25908, Note_on_c, 0, 77, 84
1, 25919, Note_on_c, 1, 53, 0
1, 25919, Note_on_c, 1, 44, 0
1, 25920, Note_on_c, 0, 77, 0
1, 25920, Note_on_c, 0, 79, 84
1, 25920, Note_on_c, 1, 51, 75
1, 25920, Note_on_c, 1, 46, 75
1, 25932, Note_on_c, 0, 79, 0
1, 25932, Note_on_c, 0, 80, 84
1, 25944, Note_on_c, 0, 80, 0
1, 25944, Note_on_c, 0, 82, 84
1, 25956, Note_on_c, 0, 82, 0
1, 25956, Note_on_c, 0, 80, 84
1, 25968, Note_on_c, 0, 80, 0
1, 25968, Note_on_c, 0, 79, 84
1, 25980, Note_on_c, 0, 79, 0
1, 25980, Note_on_c, 0, 77, 84
1, 25992, Note_on_c, 0, 77, 0
1, 25992, Note_on_c, 0, 75, 84
1, 26004, Note_on_c, 0, 75, 0
1, 26004, Note_on_c, 0, 74, 84
1, 26014, Note_on_c, 1, 51, 0
1, 26014, Note_on_c, 1, 46, 0
1, 26016, Note_on_c, 0, 74, 0
1, 26016, Note_on_c, 0, 72, 84
1, 26028, Note_on_c, 0, 72, 0
1, 26028, Note_on_c, 0, 70, 84
1, 26040, Note_on_c, 0, 70, 0
1, 26040, Note_on_c, 0, 68, 84
1, 26052, Note_on_c, 0, 68, 0
1, 26052, Note_on_c, 0, 67, 84
1, 26064, Note_on_c, 0, 67, 0
1, 26064, Note_on_c, 0, 65, 84
1, 26076, Note_on_c, 0, 65, 0
1, 26076, Note_on_c, 0, 63, 83
1, 26088, Note_on_c, 0, 63, 0
1, 26088, Note_on_c, 0, 62, 82
1, 26100, Note_on_c, 0, 62, 0
1, 26100, Note_on_c, 0, 60, 81
1, 26112, Note_on_c, 0, 60, 0
1, 26112, Note_on_c, 0, 58, 97
1, 26160, Note_on_c, 1, 54, 61
1, 26160, Note_on_c, 1, 46, 61
1, 26207, Note_on_c, 1, 54, 0
1, 26207, Note_on_c, 1, 46, 0
1, 26208, Note_on_c, 1, 54, 61
1, 26208, Note_on_c, 1, 46, 61
1, 26255, Note_on_c, 1, 54, 0
1, 26255, Note_on_c, 1, 46, 0
1, 26256, Note_on_c, 1, 54, 61
1, 26256, Note_on_c, 1, 46, 61
1, 26303, Note_on_c, 1, 54, 0
1, 26303, Note_on_c, 1, 46, 0
1, 26304, Note_on_c, 0, 58, 0
1, 26304, Note_on_c, 0, 57, 111
1, 26352, Note_on_c, 1, 54, 61
1, 26352, Note_on_c, 1, 47, 61
1, 26399, Note_on_c, 1, 54, 0
1, 26399, Note_on_c, 1, 47, 0
1, 26400, Note_on_c, 1, 54, 61
1, 26400, Note_on_c, 1, 47, 61
1, 26447, Note_on_c, 1, 54, 0
1, 26447, Note_on_c, 1, 47, 0
1, 26448, Note_on_c, 1, 54, 61
1, 26448, Note_on_c, 1, 47, 61
1, 26467, Note_on_c, 0, 57, 0
1, 26472, Note_on_c, 0, 58, 69
1, 26495, Note_on_c, 0, 58, 0
1, 26495, Note_on_c, 1, 54, 0
1, 26495, Note_on_c, 1, 47, 0
1, 26496, Note_on_c, 0, 56, 111
1, 26544, Note_on_c, 1, 53, 61
1, 26544, Note_on_c, 1, 50, 61
1, 26568, Note_on_c, 0, 56, 0
1, 26568, Note_on_c, 0, 58, 69
1, 26591, Note_on_c, 0, 58, 0
1, 26591, Note_on_c, 1, 53, 0
1, 26591, Note_on_c, 1, 50, 0
1, 26592, Note_on_c, 0, 56, 85
1, 26592, Note_on_c, 1, 53, 61
1, 26592, Note_on_c, 1, 50, 61
1, 26628, Note_on_c, 0, 56, 0
1, 26628, Note_on_c, 0, 58, 69
1, 26639, Note_on_c, 1, 53, 0
1, 26639, Note_on_c, 1, 50, 0
1, 26640, Note_on_c, 0, 58, 0
1, 26640, Note_on_c, 0, 56, 85
1, 26640, Note_on_c, 1, 53, 61
1, 26640, Note_on_c, 1, 50, 61
1, 26676, Note_on_c, 0, 56, 0
1, 26676, Note_on_c, 0, 58, 69
1, 26687, Note_on_c, 1, 53, 0
1, 26687, Note_on_c, 1, 50, 0
1, 26688, Note_on_c, 0, 58, 0
1, 26688, Note_on_c, 0, 55, 85
1, 26688, Note_on_c, 1, 51, 77
1, 26704, Note_on_c, 0, 55, 0
1, 26704, Note_on_c, 0, 58, 69
1, 26719, Note_on_c, 0, 58, 0
1, 26720, Note_on_c, 0, 63, 69
1, 26735, Note_on_c, 0, 63, 0
1, 26736, Note_on_c, 0, 55, 69
1, 26751, Note_on_c, 0, 55, 0
1, 26752, Note_on_c, 0, 58, 69
1, 26767, Note_on_c, 0, 58, 0
1, 26768, Note_on_c, 0, 63, 69
1, 26783, Note_on_c, 0, 63, 0
1, 26784, Note_on_c, 0, 58, 69
1, 26784, Note_on_c, 1, 51, 0
1, 26799, Note_on_c, 0, 58, 0
1, 26800, Note_on_c, 0, 62, 69
1, 26815, Note_on_c, 0, 62, 0
1, 26816, Note_on_c, 0, 65, 69
1, 26831, Note_on_c, 0, 65, 0
1, 26832, Note_on_c, 0, 62, 69
1, 26832, Note_on_c, 1, 53, 77
1, 26832, Note_on_c, 1, 46, 77
1, 26847, Note_on_c, 0, 62, 0
1, 26848, Note_on_c, 0, 65, 69
1, 26863, Note_on_c, 0, 65, 0
1, 26864, Note_on_c, 0, 68, 69
1, 26879, Note_on_c, 0, 68, 0
1, 26880, Note_on_c, 0, 67, 69
1, 26880, Note_on_c, 1, 53, 0
1, 26880, Note_on_c, 1, 46, 0
1, 26880, Note_on_c, 1, 51, 77
1, 26895, Note_on_c, 0, 67, 0
1, 26896, Note_on_c, 0, 70, 69
1, 26911, Note_on_c, 0, 70, 0
1, 26912, Note_on_c, 0, 75, 70
1, 26927, Note_on_c, 0, 75, 0
1, 26928, Note_on_c, 0, 67, 71
1, 26943, Note_on_c, 0, 67, 0
1, 26944, Note_on_c, 0, 70, 72
1, 26959, Note_on_c, 0, 70, 0
1, 26960, Note_on_c, 0, 75, 73
1, 26975, Note_on_c, 0, 75, 0
1, 26976, Note_on_c, 0, 70, 74
1, 26976, Note_on_c, 1, 51, 0
1, 26991, Note_on_c, 0, 70, 0
1, 26992, Note_on_c, 0, 74, 75
1, 27007, Note_on_c, 0, 74, 0
1, 27008, Note_on_c, 0, 77, 76
1, 27023, Note_on_c, 0, 77, 0
1, 27024, Note_on_c, 0, 74, 76
1, 27024, Note_on_c, 1, 53, 88
1, 27024, Note_on_c, 1, 46, 88
1, 27039, Note_on_c, 0, 74, 0
1, 27040, Note_on_c, 0, 77, 77
1, 27055, Note_on_c, 0, 77, 0
1, 27056, Note_on_c, 0, 80, 78
1, 27071, Note_on_c, 0, 80, 0
1, 27072, Note_on_c, 0, 79, 79
1, 27072, Note_on_c, 1, 53, 0
1, 27072, Note_on_c, 1, 46, 0
1, 27072, Note_on_c, 1, 51, 92
1, 27087, Note_on_c, 0, 79, 0
1, 27088, Note_on_c, 0, 80, 84
1, 27103, Note_on_c, 0, 80, 0
1, 27104, Note_on_c, 0, 82, 84
1, 27119, Note_on_c, 0, 82, 0
1, 27120, Note_on_c, 0, 80, 84
1, 27135, Note_on_c, 0, 80, 0
1, 27136, Note_on_c, 0, 79, 84
1, 27151, Note_on_c, 0, 79, 0
1, 27152, Note_on_c, 0, 77, 84
1, 27167, Note_on_c, 0, 77, 0
1, 27168, Note_on_c, 0, 75, 84
1, 27168, Note_on_c, 1, 51, 0
1, 27183, Note_on_c, 0, 75, 0
1, 27184, Note_on_c, 0, 74, 84
1, 27199, Note_on_c, 0, 74, 0
1, 27200, Note_on_c, 0, 72, 84
1, 27215, Note_on_c, 0, 72, 0
1, 27216, Note_on_c, 0, 70, 84
1, 27231, Note_on_c, 0, 70, 0
1, 27232, Note_on_c, 0, 68, 84
1, 27247, Note_on_c, 0, 68, 0
1, 27248, Note_on_c, 0, 67, 84
1, 27263, Note_on_c, 0, 67, 0
1, 27264, Note_on_c, 0, 65, 84
1, 27264, Note_on_c, 1, 48, 100
1, 27264, Note_on_c, 1, 44, 100
1, 27279, Note_on_c, 0, 65, 0
1, 27280, Note_on_c, 0, 68, 84
1, 27295, Note_on_c, 0, 68, 0
1, 27296, Note_on_c, 0, 67, 84
1, 27311, Note_on_c, 0, 67, 0
1, 27312, Note_on_c, 0, 65, 84
1, 27327, Note_on_c, 0, 65, 0
1, 27328, Note_on_c, 0, 72, 84
1, 27343, Note_on_c, 0, 72, 0
1, 27344, Note_on_c, 0, 70, 84
1, 27359, Note_on_c, 0, 70, 0
1, 27360, Note_on_c, 0, 68, 84
1, 27360, Note_on_c, 1, 48, 0
1, 27360, Note_on_c, 1, 44, 0
1, 27375, Note_on_c, 0, 68, 0
1, 27376, Note_on_c, 0, 67, 84
1, 27391, Note_on_c, 0, 67, 0
1, 27392, Note_on_c, 0, 65, 84
1, 27407, Note_on_c, 0, 65, 0
1, 27408, Note_on_c, 0, 63, 84
1, 27423, Note_on_c, 0, 63, 0
1, 27424, Note_on_c, 0, 62, 84
1, 27439, Note_on_c, 0, 62, 0
1, 27440, Note_on_c, 0, 60, 84
1, 27455, Note_on_c, 0, 60, 0
1, 27456, Note_on_c, 0, 58, 84
1, 27456, Note_on_c, 1, 55, 84
1, 27456, Note_on_c, 1, 46, 84
1, 27503, Note_on_c, 1, 55, 0
1, 27503, Note_on_c, 1, 46, 0
1, 27504, Note_on_c, 1, 55, 78
1, 27504, Note_on_c, 1, 46, 78
1, 27523, Note_on_c, 0, 58, 0
1, 27528, Note_on_c, 0, 63, 78
1, 27540, Note_on_c, 0, 63, 0
1, 27540, Note_on_c, 0, 65, 77
1, 27551, Note_on_c, 1, 55, 0
1, 27551, Note_on_c, 1, 46, 0
1, 27552, Note_on_c, 0, 65, 0
1, 27552, Note_on_c, 0, 67, 76
1, 27552, Note_on_c, 1, 50, 72
1, 27552, Note_on_c, 1, 46, 72
1, 27560, Note_on_c, 0, 67, 0
1, 27560, Note_on_c, 0, 65, 76
1, 27568, Note_on_c, 0, 65, 0
1, 27568, Note_on_c, 0, 67, 75
1, 27576, Note_on_c, 0, 67, 0
1, 27576, Note_on_c, 0, 65, 75
1, 27584, Note_on_c, 0, 65, 0
1, 27584, Note_on_c, 0, 67, 74
1, 27592, Note_on_c, 0, 67, 0
1, 27592, Note_on_c, 0, 65, 74
1, 27599, Note_on_c, 1, 50, 0
1, 27599, Note_on_c, 1, 46, 0
1, 27600, Note_on_c, 0, 65, 0
1, 27600, Note_on_c, 0, 67, 73
1, 27600, Note_on_c, 1, 50, 66
1, 27600, Note_on_c, 1, 46, 66
1, 27608, Note_on_c, 0, 67, 0
1, 27608, Note_on_c, 0, 65, 73
1, 27616, Note_on_c, 0, 65, 0
1, 27616, Note_on_c, 0, 63, 72
1, 27632, Note_on_c, 0, 63, 0
1, 27632, Note_on_c, 0, 65, 71
1, 27647, Note_on_c, 1, 50, 0
1, 27647, Note_on_c, 1, 46, 0
1, 27648, Note_on_c, 0, 65, 0
1, 27648, Note_on_c, 0, 55, 69
1, 27648, Note_on_c, 1, 51, 77
1, 27663, Note_on_c, 0, 55, 0
1, 27664, Note_on_c, 0, 58, 69
1, 27679, Note_on_c, 0, 58, 0
1, 27680, Note_on_c, 0, 63, 69
1, 27695, Note_on_c, 0, 63, 0
1, 27696, Note_on_c, 0, 55, 69
1, 27711, Note_on_c, 0, 55, 0
1, 27712, Note_on_c, 0, 58, 69
1, 27727, Note_on_c, 0, 58, 0
1, 27728, Note_on_c, 0, 63, 69
1, 27743, Note_on_c, 0, 63, 0
1, 27744, Note_on_c, 0, 58, 69
1, 27744, Note_on_c, 1, 51, 0
1, 27759, Note_on_c, 0, 58, 0
1, 27760, Note_on_c, 0, 62, 69
1, 27775, Note_on_c, 0, 62, 0
1, 27776, Note_on_c, 0, 65, 69
1, 27791, Note_on_c, 0, 65, 0
1, 27792, Note_on_c, 0, 62, 69
1, 27792, Note_on_c, 1, 53, 77
1, 27792, Note_on_c, 1, 46, 77
1, 27807, Note_on_c, 0, 62, 0
1, 27808, Note_on_c, 0, 65, 69
1, 27823, Note_on_c, 0, 65, 0
1, 27824, Note_on_c, 0, 68, 69
1, 27839, Note_on_c, 0, 68, 0
1, 27840, Note_on_c, 0, 67, 69
1, 27840, Note_on_c, 1, 53, 0
1, 27840, Note_on_c, 1, 46, 0
1, 27840, Note_on_c, 1, 51, 77
1, 27855, Note_on_c, 0, 67, 0
1, 27856, Note_on_c, 0, 70, 69
1, 27871, Note_on_c, 0, 70, 0
1, 27872, Note_on_c, 0, 75, 70
1, 27887, Note_on_c, 0, 75, 0
1, 27888, Note_on_c, 0, 67, 71
1, 27903, Note_on_c, 0, 67, 0
1, 27904, Note_on_c, 0, 70, 72
1, 27919, Note_on_c, 0, 70, 0
1, 27920, Note_on_c, 0, 75, 73
1, 27935, Note_on_c, 0, 75, 0
1, 27936, Note_on_c, 0, 70, 74
1, 27936, Note_on_c, 1, 51, 0
1, 27951, Note_on_c, 0, 70, 0
1, 27952, Note_on_c, 0, 74, 75
1, 27967, Note_on_c, 0, 74, 0
1, 27968, Note_on_c, 0, 77, 76
1, 27983, Note_on_c, 0, 77, 0
1, 27984, Note_on_c, 0, 74, 76
1, 27984, Note_on_c, 1, 53, 88
1, 27984, Note_on_c, 1, 46, 88
1, 27999, Note_on_c, 0, 74, 0
1, 28000, Note_on_c, 0, 77, 77
1, 28015, Note_on_c, 0, 77, 0
1, 28016, Note_on_c, 0, 80, 78
1, 28031, Note_on_c, 0, 80, 0
1, 28032, Note_on_c, 0, 79, 79
1, 28032, Note_on_c, 1, 53, 0
1, 28032, Note_on_c, 1, 46, 0
1, 28032, Note_on_c, 1, 51, 92
1, 28047, Note_on_c, 0, 79, 0
1, 28048, Note_on_c, 0, 80, 84
1, 28063, Note_on_c, 0, 80, 0
1, 28064, Note_on_c, 0, 82, 84
1, 28079, Note_on_c, 0, 82, 0
1, 28080, Note_on_c, 0, 80, 84
1, 28095, Note_on_c, 0, 80, 0
1, 28096, Note_on_c, 0, 79, 84
1, 28111, Note_on_c, 0, 79, 0
1, 28112, Note_on_c, 0, 77, 84
1, 28127, Note_on_c, 0, 77, 0
1, 28128, Note_on_c, 0, 75, 84
1, 28128, Note_on_c, 1, 51, 0
1, 28143, Note_on_c, 0, 75, 0
1, 28144, Note_on_c, 0, 74, 84
1, 28159, Note_on_c, 0, 74, 0
1, 28160, Note_on_c, 0, 72, 84
1, 28175, Note_on_c, 0, 72, 0
1, 28176, Note_on_c, 0, 70, 84
1, 28191, Note_on_c, 0, 70, 0
1, 28192, Note_on_c, 0, 68, 84
1, 28207, Note_on_c, 0, 68, 0
1, 28208, Note_on_c, 0, 67, 84
1, 28223, Note_on_c, 0, 67, 0
1, 28224, Note_on_c, 0, 65, 84
1, 28224, Note_on_c, 1, 48, 84
1, 28224, Note_on_c, 1, 44, 84
1, 28239, Note_on_c, 0, 65, 0
1, 28240, Note_on_c, 0, 68, 84
1, 28255, Note_on_c, 0, 68, 0
1, 28256, Note_on_c, 0, 67, 84
1, 28271, Note_on_c, 0, 67, 0
1, 28272, Note_on_c, 0, 65, 84
1, 28287, Note_on_c, 0, 65, 0
1, 28288, Note_on_c, 0, 72, 84
1, 28303, Note_on_c, 0, 72, 0
1, 28304, Note_on_c, 0, 70, 84
1, 28313, Note_on_c, 1, 48, 0
1, 28313, Note_on_c, 1, 44, 0
1, 28319, Note_on_c, 0, 70, 0
1, 28320, Note_on_c, 0, 68, 84
1, 28335, Note_on_c, 0, 68, 0
1, 28336, Note_on_c, 0, 67, 84
1, 28351, Note_on_c, 0, 67, 0
1, 28352, Note_on_c, 0, 65, 84
1, 28367, Note_on_c, 0, 65, 0
1, 28368, Note_on_c, 0, 63, 84
1, 28383, Note_on_c, 0, 63, 0
1, 28384, Note_on_c, 0, 62, 84
1, 28399, Note_on_c, 0, 62, 0
1, 28400, Note_on_c, 0, 60, 84
1, 28415, Note_on_c, 0, 60, 0
1, 28416, Note_on_c, 0, 58, 84
1, 28416, Note_on_c, 1, 55, 84
1, 28416, Note_on_c, 1, 46, 84
1, 28463, Note_on_c, 1, 55, 0
1, 28463, Note_on_c, 1, 46, 0
1, 28464, Note_on_c, 1, 55, 84
1, 28464, Note_on_c, 1, 46, 84
1, 28483, Note_on_c, 0, 58, 0
1, 28488, Note_on_c, 0, 63, 84
1, 28500, Note_on_c, 0, 63, 0
1, 28500, Note_on_c, 0, 65, 83
1, 28511, Note_on_c, 1, 55, 0
1, 28511, Note_on_c, 1, 46, 0
1, 28512, Note_on_c, 0, 65, 0
1, 28512, Note_on_c, 0, 67, 82
1, 28512, Note_on_c, 1, 50, 81
1, 28512, Note_on_c, 1, 46, 81
1, 28520, Note_on_c, 0, 67, 0
1, 28520, Note_on_c, 0, 65, 82
1, 28528, Note_on_c, 0, 65, 0
1, 28528, Note_on_c, 0, 67, 81
1, 28536, Note_on_c, 0, 67, 0
1, 28536, Note_on_c, 0, 65, 81
1, 28544, Note_on_c, 0, 65, 0
1, 28544, Note_on_c, 0, 67, 81
1, 28552, Note_on_c, 0, 67, 0
1, 28552, Note_on_c, 0, 65, 80
1, 28559, Note_on_c, 1, 50, 0
1, 28559, Note_on_c, 1, 46, 0
1, 28560, Note_on_c, 0, 65, 0
1, 28560, Note_on_c, 0, 67, 80
1, 28560, Note_on_c, 1, 50, 79
1, 28560, Note_on_c, 1, 46, 79
1, 28568, Note_on_c, 0, 67, 0
1, 28568, Note_on_c, 0, 65, 80
1, 28576, Note_on_c, 0, 65, 0
1, 28576, Note_on_c, 0, 63, 79
1, 28592, Note_on_c, 0, 63, 0
1, 28592, Note_on_c, 0, 65, 79
1, 28607, Note_on_c, 1, 50, 0
1, 28607, Note_on_c, 1, 46, 0
1, 28608, Note_on_c, 0, 65, 0
1, 28608, Note_on_c, 0, 63, 94
1, 28608, Note_on_c, 1, 51, 92
1, 28704, Note_on_c, 0, 63, 0
1, 28704, Note_on_c, 0, 72, 73
1, 28704, Note_on_c, 0, 68, 73
1, 28704, Note_on_c, 1, 51, 0
1, 28704, Note_on_c, 1, 53, 71
1, 28704, Note_on_c, 1, 44, 71
1, 28749, Note_on_c, 0, 72, 0
1, 28749, Note_on_c, 0, 68, 0
1, 28749, Note_on_c, 1, 53, 0
1, 28749, Note_on_c, 1, 44, 0
1, 28752, Note_on_c, 0, 62, 69
1, 28752, Note_on_c, 0, 58, 69
1, 28752, Note_on_c, 1, 56, 69
1, 28752, Note_on_c, 1, 46, 69
1, 28797, Note_on_c, 1, 56, 0
1, 28797, Note_on_c, 1, 46, 0
1, 28800, Note_on_c, 0, 62, 0
1, 28800, Note_on_c, 0, 63, 69
1, 28800, Note_on_c, 1, 55, 69
1, 28800, Note_on_c, 1, 51, 69
1, 28845, Note_on_c, 0, 63, 0
1, 28845, Note_on_c, 0, 58, 0
1, 28845, Note_on_c, 1, 55, 0
1, 28845, Note_on_c, 1, 51, 0
1, 28896, Note_on_c, 0, 72, 61
1, 28896, Note_on_c, 0, 68, 61
1, 28896, Note_on_c, 1, 53, 61
1, 28896, Note_on_c, 1, 44, 61
1, 28941, Note_on_c, 0, 72, 0
1, 28941, Note_on_c, 0, 68, 0
1, 28941, Note_on_c, 1, 53, 0
1, 28941, Note_on_c, 1, 44, 0
1, 28944, Note_on_c, 0, 62, 61
1, 28944, Note_on_c, 0, 58, 61
1, 28944, Note_on_c, 1, 56, 61
1, 28944, Note_on_c, 1, 46, 61
1, 28989, Note_on_c, 1, 56, 0
1, 28989, Note_on_c, 1, 46, 0
1, 28992, Note_on_c, 0, 62, 0
1, 28992, Note_on_c, 0, 63, 61
1, 28992, Note_on_c, 1, 55, 61
1, 28992, Note_on_c, 1, 51, 61
1, 29059, Note_on_c, 0, 63, 0
1, 29059, Note_on_c, 0, 58, 0
1, 29059, Note_on_c, 1, 55, 0
1, 29059, Note_on_c, 1, 51, 0
1, 29184, Note_on_c, 0, 75, 84
1, 29190, Note_on_c, 0, 75, 0
1, 29190, Note_on_c, 0, 74, 84
1, 29196, Note_on_c, 0, 74, 0
1, 29196, Note_on_c, 0, 75, 84
1, 29232, Note_on_c, 1, 67, 69
1, 29232, Note_on_c, 1, 63, 69
1, 29279, Note_on_c, 1, 67, 0
1, 29279, Note_on_c, 1, 63, 0
1, 29280, Note_on_c, 1, 67, 69
1, 29280, Note_on_c, 1, 63, 69
1, 29327, Note_on_c, 1, 67, 0
1, 29327, Note_on_c, 1, 63, 0
1, 29328, Note_on_c, 1, 67, 69
1, 29328, Note_on_c, 1, 63, 69
1, 29369, Note_on_c, 0, 75, 0
1, 29375, Note_on_c, 1, 67, 0
1, 29375, Note_on_c, 1, 63, 0
1, 29376, Note_on_c, 0, 82, 84
1, 29424, Note_on_c, 1, 65, 69
1, 29424, Note_on_c, 1, 62, 69
1, 29471, Note_on_c, 1, 65, 0
1, 29471, Note_on_c, 1, 62, 0
1, 29472, Note_on_c, 1, 65, 69
1, 29472, Note_on_c, 1, 62, 69
1, 29519, Note_on_c, 1, 65, 0
1, 29519, Note_on_c, 1, 62, 0
1, 29520, Note_on_c, 1, 65, 69
1, 29520, Note_on_c, 1, 62, 69
1, 29539, Note_on_c, 0, 82, 0
1, 29544, Note_on_c, 0, 80, 84
1, 29567, Note_on_c, 0, 80, 0
1, 29567, Note_on_c, 1, 65, 0
1, 29567, Note_on_c, 1, 62, 0
1, 29568, Note_on_c, 0, 80, 84
1, 29616, Note_on_c, 1, 70, 69
1, 29616, Note_on_c, 1, 63, 69
1, 29663, Note_on_c, 1, 70, 0
1, 29663, Note_on_c, 1, 63, 0
1, 29664, Note_on_c, 0, 80, 0
1, 29664, Note_on_c, 0, 79, 84
1, 29664, Note_on_c, 1, 70, 69
1, 29664, Note_on_c, 1, 63, 69
1, 29670, Note_on_c, 0, 79, 0
1, 29670, Note_on_c, 0, 80, 84
1, 29676, Note_on_c, 0, 80, 0
1, 29676, Note_on_c, 0, 79, 84
1, 29711, Note_on_c, 1, 70, 0
1, 29711, Note_on_c, 1, 63, 0
1, 29712, Note_on_c, 1, 70, 69
1, 29712, Note_on_c, 1, 63, 69
1, 29733, Note_on_c, 0, 79, 0
1, 29736, Note_on_c, 0, 80, 84
1, 29759, Note_on_c, 0, 80, 0
1, 29759, Note_on_c, 1, 70, 0
1, 29759, Note_on_c, 1, 63, 0
1, 29760, Note_on_c, 0, 79, 84
1, 29808, Note_on_c, 1, 72, 69
1, 29808, Note_on_c, 1, 68, 69
1, 29855, Note_on_c, 1, 72, 0
1, 29855, Note_on_c, 1, 68, 0
1, 29856, Note_on_c, 0, 79, 0
1, 29856, Note_on_c, 0, 77, 84
1, 29856, Note_on_c, 1, 72, 69
1, 29856, Note_on_c, 1, 68, 69
1, 29862, Note_on_c, 0, 77, 0
1, 29862, Note_on_c, 0, 79, 84
1, 29868, Note_on_c, 0, 79, 0
1, 29868, Note_on_c, 0, 77, 84
1, 29903, Note_on_c, 1, 72, 0
1, 29903, Note_on_c, 1, 68, 0
1, 29904, Note_on_c, 1, 72, 69
1, 29904, Note_on_c, 1, 68, 69
1, 29925, Note_on_c, 0, 77, 0
1, 29928, Note_on_c, 0, 79, 84
1, 29951, Note_on_c, 0, 79, 0
1, 29951, Note_on_c, 1, 72, 0
1, 29951, Note_on_c, 1, 68, 0
1, 29952, Note_on_c, 0, 77, 84
1, 30000, Note_on_c, 1, 70, 69
1, 30000, Note_on_c, 1, 67, 69
1, 30047, Note_on_c, 1, 70, 0
1, 30047, Note_on_c, 1, 67, 0
1, 30048, Note_on_c, 0, 77, 0
1, 30048, Note_on_c, 0, 75, 84
1, 30048, Note_on_c, 1, 70, 69
1, 30048, Note_on_c, 1, 67, 69
1, 30054, Note_on_c, 0, 75, 0
1, 30054, Note_on_c, 0, 77, 84
1, 30060, Note_on_c, 0, 77, 0
1, 30060, Note_on_c, 0, 75, 84
1, 30082, Note_on_c, 0, 75, 0
1, 30084, Note_on_c, 0, 74, 84
1, 30095, Note_on_c, 1, 70, 0
1, 30095, Note_on_c, 1, 67, 0
1, 30096, Note_on_c, 0, 74, 0
1, 30096, Note_on_c, 0, 75, 84
1, 30096, Note_on_c, 1, 70, 69
1, 30096, Note_on_c, 1, 67, 69
1, 30130, Note_on_c, 0, 75, 0
1, 30132, Note_on_c, 0, 77, 84
1, 30143, Note_on_c, 1, 70, 0
1, 30143, Note_on_c, 1, 67, 0
1, 30144, Note_on_c, 0, 77, 0
1, 30144, Note_on_c, 0, 75, 84
1, 30144, Note_on_c, 1, 70, 69
1, 30144, Note_on_c, 1, 67, 69
1, 30252, Note_on_c, 0, 75, 0
1, 30252, Note_on_c, 1, 70, 0
1, 30252, Note_on_c, 1, 67, 0
1, 30336, Note_on_c, 0, 82, 100
1, 30352, Note_on_c, 0, 82, 0
1, 30352, Note_on_c, 0, 84, 84
1, 30367, Note_on_c, 0, 84, 0
1, 30368, Note_on_c, 0, 85, 84
1, 30383, Note_on_c, 0, 85, 0
1, 30384, Note_on_c, 0, 84, 84
1, 30399, Note_on_c, 0, 84, 0
1, 30400, Note_on_c, 0, 82, 84
1, 30415, Note_on_c, 0, 82, 0
1, 30416, Note_on_c, 0, 80, 84
1, 30431, Note_on_c, 0, 80, 0
1, 30432, Note_on_c, 0, 79, 100
1, 30448, Note_on_c, 0, 79, 0
1, 30448, Note_on_c, 0, 80, 84
1, 30463, Note_on_c, 0, 80, 0
1, 30464, Note_on_c, 0, 82, 84
1, 30479, Note_on_c, 0, 82, 0
1, 30480, Note_on_c, 0, 80, 84
1, 30495, Note_on_c, 0, 80, 0
1, 30496, Note_on_c, 0, 79, 84
1, 30511, Note_on_c, 0, 79, 0
1, 30512, Note_on_c, 0, 77, 84
1, 30527, Note_on_c, 0, 77, 0
1, 30528, Note_on_c, 0, 76, 100
1, 30544, Note_on_c, 0, 76, 0
1, 30544, Note_on_c, 0, 77, 84
1, 30559, Note_on_c, 0, 77, 0
1, 30560, Note_on_c, 0, 79, 84
1, 30575, Note_on_c, 0, 79, 0
1, 30576, Note_on_c, 0, 77, 84
1, 30591, Note_on_c, 0, 77, 0
1, 30592, Note_on_c, 0, 76, 84
1, 30607, Note_on_c, 0, 76, 0
1, 30608, Note_on_c, 0, 73, 84
1, 30623, Note_on_c, 0, 73, 0
1, 30624, Note_on_c, 0, 72, 100
1, 30640, Note_on_c, 0, 72, 0
1, 30640, Note_on_c, 0, 79, 84
1, 30655, Note_on_c, 0, 79, 0
1, 30656, Note_on_c, 0, 80, 84
1, 30671, Note_on_c, 0, 80, 0
1, 30672, Note_on_c, 0, 82, 84
1, 30687, Note_on_c, 0, 82, 0
1, 30688, Note_on_c, 0, 80, 84
1, 30703, Note_on_c, 0, 80, 0
1, 30704, Note_on_c, 0, 79, 84
1, 30719, Note_on_c, 0, 79, 0
1, 30720, Note_on_c, 0, 77, 84
1, 30768, Note_on_c, 1, 68, 69
1, 30768, Note_on_c, 1, 65, 69
1, 30815, Note_on_c, 1, 68, 0
1, 30815, Note_on_c, 1, 65, 0
1, 30816, Note_on_c, 1, 68, 69
1, 30816, Note_on_c, 1, 65, 69
1, 30863, Note_on_c, 1, 68, 0
1, 30863, Note_on_c, 1, 65, 0
1, 30864, Note_on_c, 1, 68, 69
1, 30864, Note_on_c, 1, 65, 69
1, 30897, Note_on_c, 0, 77, 0
1, 30911, Note_on_c, 1, 68, 0
1, 30911, Note_on_c, 1, 65, 0
1, 30912, Note_on_c, 0, 83, 84
1, 30918, Note_on_c, 0, 83, 0
1, 30918, Note_on_c, 0, 84, 84
1, 30960, Note_on_c, 1, 67, 69
1, 30960, Note_on_c, 1, 64, 69
1, 31007, Note_on_c, 1, 67, 0
1, 31007, Note_on_c, 1, 64, 0
1, 31008, Note_on_c, 1, 67, 69
1, 31008, Note_on_c, 1, 64, 69
1, 31031, Note_on_c, 0, 84, 0
1, 31032, Note_on_c, 0, 83, 84
1, 31044, Note_on_c, 0, 83, 0
1, 31044, Note_on_c, 0, 84, 84
1, 31055, Note_on_c, 1, 67, 0
1, 31055, Note_on_c, 1, 64, 0
1, 31056, Note_on_c, 0, 84, 0
1, 31056, Note_on_c, 0, 87, 84
1, 31056, Note_on_c, 1, 67, 69
1, 31056, Note_on_c, 1, 64, 69
1, 31068, Note_on_c, 0, 87, 0
1, 31068, Note_on_c, 0, 85, 84
1, 31080, Note_on_c, 0, 85, 0
1, 31080, Note_on_c, 0, 84, 84
1, 31092, Note_on_c, 0, 84, 0
1, 31092, Note_on_c, 0, 82, 84
1, 31103, Note_on_c, 1, 67, 0
1, 31103, Note_on_c, 1, 64, 0
1, 31104, Note_on_c, 0, 82, 0
1, 31104, Note_on_c, 0, 82, 84
1, 31152, Note_on_c, 1, 72, 69
1, 31152, Note_on_c, 1, 65, 69
1, 31199, Note_on_c, 1, 72, 0
1, 31199, Note_on_c, 1, 65, 0
1, 31200, Note_on_c, 0, 82, 0
1, 31200, Note_on_c, 0, 80, 84
1, 31200, Note_on_c, 1, 72, 69
1, 31200, Note_on_c, 1, 65, 69
1, 31206, Note_on_c, 0, 80, 0
1, 31206, Note_on_c, 0, 82, 84
1, 31212, Note_on_c, 0, 82, 0
1, 31212, Note_on_c, 0, 80, 84
1, 31247, Note_on_c, 1, 72, 0
1, 31247, Note_on_c, 1, 65, 0
1, 31248, Note_on_c, 1, 72, 69
1, 31248, Note_on_c, 1, 65, 69
1, 31269, Note_on_c, 0, 80, 0
1, 31272, Note_on_c, 0, 82, 84
1, 31295, Note_on_c, 0, 82, 0
1, 31295, Note_on_c, 1, 72, 0
1, 31295, Note_on_c, 1, 65, 0
1, 31296, Note_on_c, 0, 80, 84
1, 31344, Note_on_c, 1, 73, 69
1, 31344, Note_on_c, 1, 70, 69
1, 31391, Note_on_c, 1, 73, 0
1, 31391, Note_on_c, 1, 70, 0
1, 31392, Note_on_c, 0, 80, 0
1, 31392, Note_on_c, 0, 79, 84
1, 31392, Note_on_c, 1, 73, 69
1, 31392, Note_on_c, 1, 70, 69
1, 31398, Note_on_c, 0, 79, 0
1, 31398, Note_on_c, 0, 80, 84
1, 31404, Note_on_c, 0, 80, 0
1, 31404, Note_on_c, 0, 79, 84
1, 31439, Note_on_c, 1, 73, 0
1, 31439, Note_on_c, 1, 70, 0
1, 31440, Note_on_c, 1, 73, 69
1, 31440, Note_on_c, 1, 70, 69
1, 31461, Note_on_c, 0, 79, 0
1, 31464, Note_on_c, 0, 80, 84
1, 31487, Note_on_c, 0, 80, 0
1, 31487, Note_on_c, 1, 73, 0
1, 31487, Note_on_c, 1, 70, 0
1, 31488, Note_on_c, 0, 79, 84
1, 31536, Note_on_c, 1, 72, 69
1, 31536, Note_on_c, 1, 68, 69
1, 31583, Note_on_c, 1, 72, 0
1, 31583, Note_on_c, 1, 68, 0
1, 31584, Note_on_c, 0, 79, 0
1, 31584, Note_on_c, 0, 77, 80
1, 31584, Note_on_c, 1, 72, 69
1, 31584, Note_on_c, 1, 68, 69
1, 31590, Note_on_c, 0, 77, 0
1, 31590, Note_on_c, 0, 79, 80
1, 31596, Note_on_c, 0, 79, 0
1, 31596, Note_on_c, 0, 77, 80
1, 31618, Note_on_c, 0, 77, 0
1, 31620, Note_on_c, 0, 76, 78
1, 31631, Note_on_c, 1, 72, 0
1, 31631, Note_on_c, 1, 68, 0
1, 31632, Note_on_c, 0, 76, 0
1, 31632, Note_on_c, 0, 77, 78
1, 31632, Note_on_c, 1, 72, 69
1, 31632, Note_on_c, 1, 68, 69
1, 31666, Note_on_c, 0, 77, 0
1, 31668, Note_on_c, 0, 79, 76
1, 31679, Note_on_c, 1, 72, 0
1, 31679, Note_on_c, 1, 68, 0
1, 31680, Note_on_c, 0, 79, 0
1, 31680, Note_on_c, 0, 77, 76
1, 31680, Note_on_c, 1, 72, 69
1, 31680, Note_on_c, 1, 68, 69
1, 31687, Note_on_c, 0, 77, 0
1, 31696, Note_on_c, 0, 77, 75
1, 31711, Note_on_c, 0, 77, 0
1, 31712, Note_on_c, 0, 79, 75
1, 31727, Note_on_c, 0, 79, 0
1, 31728, Note_on_c, 0, 80, 75
1, 31743, Note_on_c, 0, 80, 0
1, 31744, Note_on_c, 0, 79, 75
1, 31759, Note_on_c, 0, 79, 0
1, 31760, Note_on_c, 0, 77, 75
1, 31769, Note_on_c, 1, 72, 0
1, 31769, Note_on_c, 1, 68, 0
1, 31775, Note_on_c, 0, 77, 0
1, 31776, Note_on_c, 0, 84, 75
1, 31791, Note_on_c, 0, 84, 0
1, 31792, Note_on_c, 0, 82, 75
1, 31807, Note_on_c, 0, 82, 0
1, 31808, Note_on_c, 0, 80, 75
1, 31823, Note_on_c, 0, 80, 0
1, 31824, Note_on_c, 0, 79, 75
1, 31839, Note_on_c, 0, 79, 0
1, 31840, Note_on_c, 0, 77, 75
1, 31855, Note_on_c, 0, 77, 0
1, 31856, Note_on_c, 0, 75, 75
1, 31871, Note_on_c, 0, 75, 0
1, 31872, Note_on_c, 0, 73, 75
1, 31888, Note_on_c, 1, 70, 75
1, 31892, Note_on_c, 0, 73, 0
1, 31903, Note_on_c, 1, 70, 0
1, 31904, Note_on_c, 1, 72, 75
1, 31919, Note_on_c, 1, 72, 0
1, 31920, Note_on_c, 0, 77, 75
1, 31920, Note_on_c, 1, 73, 75
1, 31935, Note_on_c, 1, 73, 0
1, 31936, Note_on_c, 1, 72, 75
1, 31940, Note_on_c, 0, 77, 0
1, 31951, Note_on_c, 1, 72, 0
1, 31952, Note_on_c, 1, 70, 75
1, 31967, Note_on_c, 1, 70, 0
1, 31968, Note_on_c, 0, 85, 75
1, 31968, Note_on_c, 1, 77, 75
1, 31983, Note_on_c, 0, 85, 0
1, 31983, Note_on_c, 1, 77, 0
1, 31984, Note_on_c, 0, 84, 75
1, 31984, Note_on_c, 1, 75, 75
1, 31999, Note_on_c, 0, 84, 0
1, 31999, Note_on_c, 1, 75, 0
1, 32000, Note_on_c, 0, 82, 75
1, 32000, Note_on_c, 1, 73, 75
1, 32015, Note_on_c, 0, 82, 0
1, 32015, Note_on_c, 1, 73, 0
1, 32016, Note_on_c, 0, 80, 75
1, 32016, Note_on_c, 1, 72, 75
1, 32031, Note_on_c, 0, 80, 0
1, 32031, Note_on_c, 1, 72, 0
1, 32032, Note_on_c, 0, 79, 75
1, 32032, Note_on_c, 1, 70, 75
1, 32047, Note_on_c, 0, 79, 0
1, 32047, Note_on_c, 1, 70, 0
1, 32048, Note_on_c, 0, 77, 75
1, 32048, Note_on_c, 1, 68, 75
1, 32063, Note_on_c, 0, 77, 0
1, 32063, Note_on_c, 1, 68, 0
1, 32064, Note_on_c, 0, 75, 75
1, 32064, Note_on_c, 1, 67, 75
1, 32071, Note_on_c, 0, 75, 0
1, 32080, Note_on_c, 0, 75, 75
1, 32084, Note_on_c, 1, 67, 0
1, 32095, Note_on_c, 0, 75, 0
1, 32096, Note_on_c, 0, 77, 75
1, 32111, Note_on_c, 0, 77, 0
1, 32112, Note_on_c, 0, 79, 75
1, 32112, Note_on_c, 1, 70, 75
1, 32127, Note_on_c, 0, 79, 0
1, 32128, Note_on_c, 0, 77, 75
1, 32132, Note_on_c, 1, 70, 0
1, 32143, Note_on_c, 0, 77, 0
1, 32144, Note_on_c, 0, 75, 75
1, 32159, Note_on_c, 0, 75, 0
1, 32160, Note_on_c, 0, 82, 75
1, 32160, Note_on_c, 1, 63, 75
1, 32175, Note_on_c, 0, 82, 0
1, 32176, Note_on_c, 0, 80, 75
1, 32180, Note_on_c, 1, 63, 0
1, 32191, Note_on_c, 0, 80, 0
1, 32192, Note_on_c, 0, 79, 75
1, 32207, Note_on_c, 0, 79, 0
1, 32208, Note_on_c, 0, 77, 75
1, 32208, Note_on_c, 1, 67, 75
1, 32223, Note_on_c, 0, 77, 0
1, 32224, Note_on_c, 0, 75, 75
1, 32228, Note_on_c, 1, 67, 0
1, 32239, Note_on_c, 0, 75, 0
1, 32240, Note_on_c, 0, 73, 75
1, 32255, Note_on_c, 0, 73, 0
1, 32256, Note_on_c, 0, 72, 75
1, 32272, Note_on_c, 1, 68, 75
1, 32276, Note_on_c, 0, 72, 0
1, 32287, Note_on_c, 1, 68, 0
1, 32288, Note_on_c, 1, 70, 75
1, 32303, Note_on_c, 1, 70, 0
1, 32304, Note_on_c, 0, 75, 75
1, 32304, Note_on_c, 1, 72, 75
1, 32319, Note_on_c, 1, 72, 0
1, 32320, Note_on_c, 1, 70, 75
1, 32324, Note_on_c, 0, 75, 0
1, 32335, Note_on_c, 1, 70, 0
1, 32336, Note_on_c, 1, 68, 75
1, 32351, Note_on_c, 1, 68, 0
1, 32352, Note_on_c, 0, 84, 75
1, 32352, Note_on_c, 1, 75, 75
1, 32367, Note_on_c, 0, 84, 0
1, 32367, Note_on_c, 1, 75, 0
1, 32368, Note_on_c, 0, 82, 75
1, 32368, Note_on_c, 1, 73, 75
1, 32383, Note_on_c, 0, 82, 0
1, 32383, Note_on_c, 1, 73, 0
1, 32384, Note_on_c, 0, 80, 75
1, 32384, Note_on_c, 1, 72, 75
1, 32399, Note_on_c, 0, 80, 0
1, 32399, Note_on_c, 1, 72, 0
1, 32400, Note_on_c, 0, 79, 75
1, 32400, Note_on_c, 1, 70, 75
1, 32415, Note_on_c, 0, 79, 0
1, 32415, Note_on_c, 1, 70, 0
1, 32416, Note_on_c, 0, 77, 75
1, 32416, Note_on_c, 1, 68, 75
1, 32431, Note_on_c, 0, 77, 0
1, 32431, Note_on_c, 1, 68, 0
1, 32432, Note_on_c, 0, 75, 75
1, 32432, Note_on_c, 1, 67, 75
1, 32447, Note_on_c, 0, 75, 0
1, 32447, Note_on_c, 1, 67, 0
1, 32448, Note_on_c, 0, 73, 75
1, 32448, Note_on_c, 1, 65, 75
1, 32455, Note_on_c, 0, 73, 0
1, 32464, Note_on_c, 0, 73, 75
1, 32468, Note_on_c, 1, 65, 0
1, 32479, Note_on_c, 0, 73, 0
1, 32480, Note_on_c, 0, 75, 75
1, 32495, Note_on_c, 0, 75, 0
1, 32496, Note_on_c, 0, 77, 75
1, 32496, Note_on_c, 1, 68, 75
1, 32511, Note_on_c, 0, 77, 0
1, 32512, Note_on_c, 0, 75, 75
1, 32516, Note_on_c, 1, 68, 0
1, 32527, Note_on_c, 0, 75, 0
1, 32528, Note_on_c, 0, 73, 75
1, 32543, Note_on_c, 0, 73, 0
1, 32544, Note_on_c, 0, 80, 75
1, 32544, Note_on_c, 1, 61, 75
1, 32559, Note_on_c, 0, 80, 0
1, 32560, Note_on_c, 0, 79, 75
1, 32564, Note_on_c, 1, 61, 0
1, 32575, Note_on_c, 0, 79, 0
1, 32576, Note_on_c, 0, 77, 75
1, 32591, Note_on_c, 0, 77, 0
1, 32592, Note_on_c, 0, 75, 75
1, 32592, Note_on_c, 1, 65, 75
1, 32607, Note_on_c, 0, 75, 0
1, 32608, Note_on_c, 0, 73, 75
1, 32612, Note_on_c, 1, 65, 0
1, 32623, Note_on_c, 0, 73, 0
1, 32624, Note_on_c, 0, 72, 75
1, 32639, Note_on_c, 0, 72, 0
1, 32640, Note_on_c, 0, 70, 75
1, 32656, Note_on_c, 1, 67, 75
1, 32660, Note_on_c, 0, 70, 0
1, 32671, Note_on_c, 1, 67, 0
1, 32672, Note_on_c, 1, 68, 75
1, 32687, Note_on_c, 1, 68, 0
1, 32688, Note_on_c, 0, 73, 75
1, 32688, Note_on_c, 1, 70, 75
1, 32703, Note_on_c, 1, 70, 0
1, 32704, Note_on_c, 1, 68, 75
1, 32708, Note_on_c, 0, 73, 0
1, 32719, Note_on_c, 1, 68, 0
1, 32720, Note_on_c, 1, 67, 75
1, 32735, Note_on_c, 1, 67, 0
1, 32736, Note_on_c, 0, 82, 75
1, 32736, Note_on_c, 1, 73, 75
1, 32751, Note_on_c, 0, 82, 0
1, 32751, Note_on_c, 1, 73, 0
1, 32752, Note_on_c, 0, 80, 75
1, 32752, Note_on_c, 1, 72, 75
1, 32767, Note_on_c, 0, 80, 0
1, 32767, Note_on_c, 1, 72, 0
1, 32768, Note_on_c, 0, 79, 75
1, 32768, Note_on_c, 1, 70, 75
1, 32783, Note_on_c, 0, 79, 0
1, 32783, Note_on_c, 1, 70, 0
1, 32784, Note_on_c, 0, 77, 75
1, 32784, Note_on_c, 1, 68, 75
1, 32799, Note_on_c, 0, 77, 0
1, 32799, Note_on_c, 1, 68, 0
1, 32800, Note_on_c, 0, 75, 75
1, 32800, Note_on_c, 1, 67, 75
1, 32815, Note_on_c, 0, 75, 0
1, 32815, Note_on_c, 1, 67, 0
1, 32816, Note_on_c, 0, 73, 75
1, 32816, Note_on_c, 1, 65, 75
1, 32831, Note_on_c, 0, 73, 0
1, 32831, Note_on_c, 1, 65, 0
1, 32832, Note_on_c, 0, 72, 75
1, 32832, Note_on_c, 1, 64, 75
1, 32839, Note_on_c, 0, 72, 0
1, 32848, Note_on_c, 0, 72, 75
1, 32852, Note_on_c, 1, 64, 0
1, 32863, Note_on_c, 0, 72, 0
1, 32864, Note_on_c, 0, 74, 75
1, 32879, Note_on_c, 0, 74, 0
1, 32880, Note_on_c, 0, 76, 75
1, 32880, Note_on_c, 1, 67, 75
1, 32895, Note_on_c, 0, 76, 0
1, 32896, Note_on_c, 0, 74, 75
1, 32900, Note_on_c, 1, 67, 0
1, 32911, Note_on_c, 0, 74, 0
1, 32912, Note_on_c, 0, 72, 75
1, 32927, Note_on_c, 0, 72, 0
1, 32928, Note_on_c, 0, 79, 75
1, 32928, Note_on_c, 1, 60, 75
1, 32943, Note_on_c, 0, 79, 0
1, 32944, Note_on_c, 0, 77, 75
1, 32948, Note_on_c, 1, 60, 0
1, 32959, Note_on_c, 0, 77, 0
1, 32960, Note_on_c, 0, 76, 75
1, 32975, Note_on_c, 0, 76, 0
1, 32976, Note_on_c, 0, 73, 75
1, 32976, Note_on_c, 1, 64, 75
1, 32991, Note_on_c, 0, 73, 0
1, 32992, Note_on_c, 0, 72, 75
1, 32996, Note_on_c, 1, 64, 0
1, 33007, Note_on_c, 0, 72, 0
1, 33008, Note_on_c, 0, 70, 75
1, 33023, Note_on_c, 0, 70, 0
1, 33024, Note_on_c, 0, 68, 84
1, 33040, Note_on_c, 1, 65, 84
1, 33044, Note_on_c, 0, 68, 0
1, 33055, Note_on_c, 1, 65, 0
1, 33056, Note_on_c, 1, 53, 84
1, 33071, Note_on_c, 1, 53, 0
1, 33072, Note_on_c, 0, 72, 84
1, 33088, Note_on_c, 1, 65, 84
1, 33092, Note_on_c, 0, 72, 0
1, 33103, Note_on_c, 1, 65, 0
1, 33104, Note_on_c, 1, 53, 84
1, 33119, Note_on_c, 1, 53, 0
1, 33120, Note_on_c, 0, 68, 84
1, 33136, Note_on_c, 1, 65, 84
1, 33140, Note_on_c, 0, 68, 0
1, 33151, Note_on_c, 1, 65, 0
1, 33152, Note_on_c, 1, 53, 84
1, 33167, Note_on_c, 1, 53, 0
1, 33168, Note_on_c, 0, 72, 84
1, 33184, Note_on_c, 1, 65, 84
1, 33188, Note_on_c, 0, 72, 0
1, 33199, Note_on_c, 1, 65, 0
1, 33200, Note_on_c, 1, 53, 84
1, 33215, Note_on_c, 1, 53, 0
1, 33216, Note_on_c, 0, 69, 75
1, 33232, Note_on_c, 1, 66, 75
1, 33236, Note_on_c, 0, 69, 0
1, 33247, Note_on_c, 1, 66, 0
1, 33248, Note_on_c, 1, 63, 75
1, 33263, Note_on_c, 1, 63, 0
1, 33264, Note_on_c, 0, 72, 75
1, 33280, Note_on_c, 1, 66, 75
1, 33284, Note_on_c, 0, 72, 0
1, 33295, Note_on_c, 1, 66, 0
1, 33296, Note_on_c, 1, 63, 75
1, 33311, Note_on_c, 1, 63, 0
1, 33312, Note_on_c, 0, 69, 75
1, 33328, Note_on_c, 1, 66, 75
1, 33332, Note_on_c, 0, 69, 0
1, 33343, Note_on_c, 1, 66, 0
1, 33344, Note_on_c, 1, 63, 75
1, 33359, Note_on_c, 1, 63, 0
1, 33360, Note_on_c, 0, 72, 75
1, 33376, Note_on_c, 1, 66, 75
1, 33380, Note_on_c, 0, 72, 0
1, 33391, Note_on_c, 1, 66, 0
1, 33392, Note_on_c, 1, 63, 75
1, 33407, Note_on_c, 1, 63, 0
1, 33408, Note_on_c, 1, 65, 84
1, 33408, Note_on_c, 1, 61, 84
1, 33424, Note_on_c, 0, 70, 84
1, 33428, Note_on_c, 1, 65, 0
1, 33428, Note_on_c, 1, 61, 0
1, 33439, Note_on_c, 0, 70, 0
1, 33440, Note_on_c, 0, 82, 84
1, 33455, Note_on_c, 0, 82, 0
1, 33456, Note_on_c, 1, 66, 84
1, 33456, Note_on_c, 1, 63, 84
1, 33472, Note_on_c, 0, 70, 84
1, 33476, Note_on_c, 1, 66, 0
1, 33476, Note_on_c, 1, 63, 0
1, 33487, Note_on_c, 0, 70, 0
1, 33488, Note_on_c, 0, 82, 84
1, 33503, Note_on_c, 0, 82, 0
1, 33504, Note_on_c, 1, 65, 84
1, 33504, Note_on_c, 1, 61, 84
1, 33520, Note_on_c, 0, 70, 84
1, 33524, Note_on_c, 1, 65, 0
1, 33524, Note_on_c, 1, 61, 0
1, 33535, Note_on_c, 0, 70, 0
1, 33536, Note_on_c, 0, 82, 84
1, 33551, Note_on_c, 0, 82, 0
1, 33552, Note_on_c, 1, 63, 84
1, 33552, Note_on_c, 1, 60, 84
1, 33568, Note_on_c, 0, 70, 84
1, 33572, Note_on_c, 1, 63, 0
1, 33572, Note_on_c, 1, 60, 0
1, 33583, Note_on_c, 0, 70, 0
1, 33584, Note_on_c, 0, 82, 84
1, 33599, Note_on_c, 0, 82, 0
1, 33600, Note_on_c, 1, 61, 84
1, 33600, Note_on_c, 1, 58, 84
1, 33616, Note_on_c, 0, 70, 84
1, 33620, Note_on_c, 1, 61, 0
1, 33620, Note_on_c, 1, 58, 0
1, 33631, Note_on_c, 0, 70, 0
1, 33632, Note_on_c, 0, 82, 84
1, 33647, Note_on_c, 0, 82, 0
1, 33648, Note_on_c, 1, 66, 84
1, 33648, Note_on_c, 1, 63, 84
1, 33664, Note_on_c, 0, 70, 84
1, 33668, Note_on_c, 1, 66, 0
1, 33668, Note_on_c, 1, 63, 0
1, 33679, Note_on_c, 0, 70, 0
1, 33680, Note_on_c, 0, 82, 84
1, 33695, Note_on_c, 0, 82, 0
1, 33696, Note_on_c, 1, 65, 84
1, 33696, Note_on_c, 1, 61, 84
1, 33712, Note_on_c, 0, 70, 84
1, 33716, Note_on_c, 1, 65, 0
1, 33716, Note_on_c, 1, 61, 0
1, 33727, Note_on_c, 0, 70, 0
1, 33728, Note_on_c, 0, 82, 84
1, 33743, Note_on_c, 0, 82, 0
1, 33744, Note_on_c, 1, 63, 84
1, 33744, Note_on_c, 1, 60, 84
1, 33760, Note_on_c, 0, 70, 84
1, 33764, Note_on_c, 1, 63, 0
1, 33764, Note_on_c, 1, 60, 0
1, 33775, Note_on_c, 0, 70, 0
1, 33776, Note_on_c, 0, 82, 84
1, 33791, Note_on_c, 0, 82, 0
1, 33792, Note_on_c, 1, 61, 84
1, 33792, Note_on_c, 1, 58, 84
1, 33808, Note_on_c, 0, 70, 84
1, 33812, Note_on_c, 1, 61, 0
1, 33812, Note_on_c, 1, 58, 0
1, 33823, Note_on_c, 0, 70, 0
1, 33824, Note_on_c, 0, 82, 84
1, 33839, Note_on_c, 0, 82, 0
1, 33840, Note_on_c, 1, 60, 84
1, 33840, Note_on_c, 1, 56, 84
1, 33856, Note_on_c, 0, 70, 84
1, 33860, Note_on_c, 1, 60, 0
1, 33860, Note_on_c, 1, 56, 0
1, 33871, Note_on_c, 0, 70, 0
1, 33872, Note_on_c, 0, 82, 84
1, 33887, Note_on_c, 0, 82, 0
1, 33888, Note_on_c, 1, 58, 84
1, 33888, Note_on_c, 1, 55, 84
1, 33904, Note_on_c, 0, 70, 84
1, 33908, Note_on_c, 1, 58, 0
1, 33908, Note_on_c, 1, 55, 0
1, 33919, Note_on_c, 0, 70, 0
1, 33920, Note_on_c, 0, 82, 84
1, 33935, Note_on_c, 0, 82, 0
1, 33936, Note_on_c, 1, 56, 84
1, 33936, Note_on_c, 1, 53, 84
1, 33952, Note_on_c, 0, 70, 84
1, 33956, Note_on_c, 1, 56, 0
1, 33956, Note_on_c, 1, 53, 0
1, 33967, Note_on_c, 0, 70, 0
1, 33968, Note_on_c, 0, 82, 84
1, 33983, Note_on_c, 0, 82, 0
1, 33984, Note_on_c, 1, 52, 126
1, 33984, Note_on_c, 1, 40, 126
1, 34000, Note_on_c, 0, 70, 84
1, 34015, Note_on_c, 0, 70, 0
1, 34016, Note_on_c, 0, 82, 84
1, 34031, Note_on_c, 0, 82, 0
1, 34031, Note_on_c, 1, 52, 0
1, 34031, Note_on_c, 1, 40, 0
1, 34032, Note_on_c, 1, 55, 84
1, 34048, Note_on_c, 0, 70, 85
1, 34052, Note_on_c, 1, 55, 0
1, 34063, Note_on_c, 0, 70, 0
1, 34064, Note_on_c, 0, 82, 86
1, 34079, Note_on_c, 0, 82, 0
1, 34080, Note_on_c, 1, 58, 86
1, 34096, Note_on_c, 0, 70, 87
1, 34100, Note_on_c, 1, 58, 0
1, 34111, Note_on_c, 0, 70, 0
1, 34112, Note_on_c, 0, 82, 88
1, 34127, Note_on_c, 0, 82, 0
1, 34128, Note_on_c, 1, 61, 88
1, 34144, Note_on_c, 0, 70, 89
1, 34148, Note_on_c, 1, 61, 0
1, 34159, Note_on_c, 0, 70, 0
1, 34160, Note_on_c, 0, 82, 90
1, 34175, Note_on_c, 0, 82, 0
1, 34176, Note_on_c, 1, 64, 107
1, 34192, Note_on_c, 0, 70, 91
1, 34196, Note_on_c, 1, 64, 0
1, 34207, Note_on_c, 0, 70, 0
1, 34208, Note_on_c, 0, 82, 91
1, 34223, Note_on_c, 0, 82, 0
1, 34224, Note_on_c, 1, 67, 93
1, 34240, Note_on_c, 0, 70, 93
1, 34244, Note_on_c, 1, 67, 0
1, 34255, Note_on_c, 0, 70, 0
1, 34256, Note_on_c, 0, 82, 93
1, 34271, Note_on_c, 0, 82, 0
1, 34272, Note_on_c, 1, 70, 96
1, 34288, Note_on_c, 0, 73, 95
1, 34292, Note_on_c, 1, 70, 0
1, 34303, Note_on_c, 0, 73, 0
1, 34304, Note_on_c, 0, 82, 95
1, 34319, Note_on_c, 0, 82, 0
1, 34320, Note_on_c, 1, 73, 98
1, 34336, Note_on_c, 0, 76, 96
1, 34340, Note_on_c, 1, 73, 0
1, 34351, Note_on_c, 0, 76, 0
1, 34352, Note_on_c, 0, 82, 97
1, 34367, Note_on_c, 0, 82, 0
1, 34368, Note_on_c, 1, 76, 101
1, 34384, Note_on_c, 0, 79, 98
1, 34388, Note_on_c, 1, 76, 0
1, 34399, Note_on_c, 0, 79, 0
1, 34400, Note_on_c, 0, 82, 99
1, 34415, Note_on_c, 0, 82, 0
1, 34416, Note_on_c, 1, 79, 103
1, 34432, Note_on_c, 0, 79, 106
1, 34436, Note_on_c, 1, 79, 0
1, 34447, Note_on_c, 0, 79, 0
1, 34448, Note_on_c, 0, 82, 106
1, 34463, Note_on_c, 0, 82, 0
1, 34464, Note_on_c, 1, 76, 106
1, 34480, Note_on_c, 0, 79, 103
1, 34484, Note_on_c, 1, 76, 0
1, 34495, Note_on_c, 0, 79, 0
1, 34496, Note_on_c, 0, 82, 100
1, 34511, Note_on_c, 0, 82, 0
1, 34512, Note_on_c, 1, 64, 95
1, 34528, Note_on_c, 0, 79, 95
1, 34532, Note_on_c, 1, 64, 0
1, 34543, Note_on_c, 0, 79, 0
1, 34544, Note_on_c, 0, 82, 92
1, 34559, Note_on_c, 0, 82, 0
1, 34560, Note_on_c, 1, 65, 126
1, 34560, Note_on_c, 1, 53, 126
1, 34576, Note_on_c, 0, 75, 85
1, 34591, Note_on_c, 0, 75, 0
1, 34592, Note_on_c, 0, 81, 86
1, 34607, Note_on_c, 0, 81, 0
1, 34607, Note_on_c, 1, 65, 0
1, 34607, Note_on_c, 1, 53, 0
1, 34608, Note_on_c, 1, 69, 84
1, 34624, Note_on_c, 0, 75, 88
1, 34628, Note_on_c, 1, 69, 0
1, 34639, Note_on_c, 0, 75, 0
1, 34640, Note_on_c, 0, 81, 89
1, 34655, Note_on_c, 0, 81, 0
1, 34656, Note_on_c, 1, 72, 88
1, 34672, Note_on_c, 0, 75, 91
1, 34676, Note_on_c, 1, 72, 0
1, 34687, Note_on_c, 0, 75, 0
1, 34688, Note_on_c, 0, 81, 92
1, 34703, Note_on_c, 0, 81, 0
1, 34704, Note_on_c, 1, 75, 92
1, 34720, Note_on_c, 0, 75, 94
1, 34724, Note_on_c, 1, 75, 0
1, 34735, Note_on_c, 0, 75, 0
1, 34736, Note_on_c, 0, 81, 95
1, 34751, Note_on_c, 0, 81, 0
1, 34752, Note_on_c, 1, 78, 97
1, 34768, Note_on_c, 0, 75, 97
1, 34772, Note_on_c, 1, 78, 0
1, 34783, Note_on_c, 0, 75, 0
1, 34784, Note_on_c, 0, 81, 98
1, 34799, Note_on_c, 0, 81, 0
1, 34800, Note_on_c, 1, 75, 101
1, 34816, Note_on_c, 0, 75, 106
1, 34820, Note_on_c, 1, 75, 0
1, 34831, Note_on_c, 0, 75, 0
1, 34832, Note_on_c, 0, 81, 106
1, 34847, Note_on_c, 0, 81, 0
1, 34848, Note_on_c, 1, 72, 106
1, 34864, Note_on_c, 0, 75, 103
1, 34868, Note_on_c, 1, 72, 0
1, 34879, Note_on_c, 0, 75, 0
1, 34880, Note_on_c, 0, 81, 100
1, 34895, Note_on_c, 0, 81, 0
1, 34896, Note_on_c, 1, 65, 95
1, 34912, Note_on_c, 0, 75, 95
1, 34916, Note_on_c, 1, 65, 0
1, 34927, Note_on_c, 0, 75, 0
1, 34928, Note_on_c, 0, 81, 92
1, 34943, Note_on_c, 0, 81, 0
1, 34944, Note_on_c, 1, 58, 126
1, 34944, Note_on_c, 1, 46, 126
1, 34960, Note_on_c, 0, 74, 84
1, 34975, Note_on_c, 0, 74, 0
1, 34976, Note_on_c, 0, 80, 85
1, 34991, Note_on_c, 0, 80, 0
1, 34991, Note_on_c, 1, 58, 0
1, 34991, Note_on_c, 1, 46, 0
1, 34992, Note_on_c, 1, 62, 84
1, 35008, Note_on_c, 0, 74, 87
1, 35012, Note_on_c, 1, 62, 0
1, 35023, Note_on_c, 0, 74, 0
1, 35024, Note_on_c, 0, 80, 88
1, 35039, Note_on_c, 0, 80, 0
1, 35040, Note_on_c, 1, 65, 88
1, 35056, Note_on_c, 0, 74, 90
1, 35060, Note_on_c, 1, 65, 0
1, 35071, Note_on_c, 0, 74, 0
1, 35072, Note_on_c, 0, 80, 91
1, 35087, Note_on_c, 0, 80, 0
1, 35088, Note_on_c, 1, 68, 92
1, 35104, Note_on_c, 0, 74, 93
1, 35108, Note_on_c, 1, 68, 0
1, 35119, Note_on_c, 0, 74, 0
1, 35120, Note_on_c, 0, 80, 95
1, 35135, Note_on_c, 0, 80, 0
1, 35136, Note_on_c, 1, 71, 97
1, 35152, Note_on_c, 0, 74, 97
1, 35156, Note_on_c, 1, 71, 0
1, 35167, Note_on_c, 0, 74, 0
1, 35168, Note_on_c, 0, 80, 98
1, 35183, Note_on_c, 0, 80, 0
1, 35184, Note_on_c, 1, 68, 101
1, 35200, Note_on_c, 0, 74, 106
1, 35204, Note_on_c, 1, 68, 0
1, 35215, Note_on_c, 0, 74, 0
1, 35216, Note_on_c, 0, 80, 106
1, 35231, Note_on_c, 0, 80, 0
1, 35232, Note_on_c, 1, 65, 106
1, 35248, Note_on_c, 0, 74, 103
1, 35252, Note_on_c, 1, 65, 0
1, 35263, Note_on_c, 0, 74, 0
1, 35264, Note_on_c, 0, 80, 100
1, 35279, Note_on_c, 0, 80, 0
1, 35280, Note_on_c, 1, 58, 95
1, 35296, Note_on_c, 0, 74, 95
1, 35300, Note_on_c, 1, 58, 0
1, 35311, Note_on_c, 0, 74, 0
1, 35312, Note_on_c, 0, 80, 92
1, 35327, Note_on_c, 0, 80, 0
1, 35328, Note_on_c, 1, 63, 126
1, 35328, Note_on_c, 1, 51, 126
1, 35344, Note_on_c, 0, 75, 84
1, 35359, Note_on_c, 0, 75, 0
1, 35360, Note_on_c, 0, 78, 84
1, 35375, Note_on_c, 0, 78, 0
1, 35375, Note_on_c, 1, 63, 0
1, 35375, Note_on_c, 1, 51, 0
1, 35376, Note_on_c, 1, 66, 84
1, 35392, Note_on_c, 0, 75, 84
1, 35396, Note_on_c, 1, 66, 0
1, 35407, Note_on_c, 0, 75, 0
1, 35408, Note_on_c, 0, 78, 84
1, 35423, Note_on_c, 0, 78, 0
1, 35424, Note_on_c, 1, 70, 84
1, 35440, Note_on_c, 0, 75, 84
1, 35444, Note_on_c, 1, 70, 0
1, 35455, Note_on_c, 0, 75, 0
1, 35456, Note_on_c, 0, 78, 84
1, 35471, Note_on_c, 0, 78, 0
1, 35472, Note_on_c, 1, 75, 84
1, 35488, Note_on_c, 0, 75, 84
1, 35492, Note_on_c, 1, 75, 0
1, 35503, Note_on_c, 0, 75, 0
1, 35504, Note_on_c, 0, 78, 84
1, 35519, Note_on_c, 0, 78, 0
1, 35520, Note_on_c, 0, 82, 84
1, 35520, Note_on_c, 0, 78, 84
1, 35536, Note_on_c, 1, 75, 84
1, 35540, Note_on_c, 0, 82, 0
1, 35540, Note_on_c, 0, 78, 0
1, 35551, Note_on_c, 1, 75, 0
1, 35552, Note_on_c, 1, 63, 84
1, 35567, Note_on_c, 1, 63, 0
1, 35568, Note_on_c, 0, 83, 84
1, 35568, Note_on_c, 0, 80, 84
1, 35584, Note_on_c, 1, 75, 84
1, 35588, Note_on_c, 0, 83, 0
1, 35588, Note_on_c, 0, 80, 0
1, 35599, Note_on_c, 1, 75, 0
1, 35600, Note_on_c, 1, 63, 84
1, 35615, Note_on_c, 1, 63, 0
1, 35616, Note_on_c, 0, 82, 84
1, 35616, Note_on_c, 0, 78, 84
1, 35632, Note_on_c, 1, 75, 84
1, 35636, Note_on_c, 0, 82, 0
1, 35636, Note_on_c, 0, 78, 0
1, 35647, Note_on_c, 1, 75, 0
1, 35648, Note_on_c, 1, 63, 84
1, 35663, Note_on_c, 1, 63, 0
1, 35664, Note_on_c, 0, 80, 84
1, 35664, Note_on_c, 0, 77, 84
1, 35680, Note_on_c, 1, 75, 84
1, 35684, Note_on_c, 0, 80, 0
1, 35684, Note_on_c, 0, 77, 0
1, 35695, Note_on_c, 1, 75, 0
1, 35696, Note_on_c, 1, 63, 84
1, 35711, Note_on_c, 1, 63, 0
1, 35712, Note_on_c, 1, 63, 91
1, 35728, Note_on_c, 0, 75, 84
1, 35732, Note_on_c, 1, 63, 0
1, 35743, Note_on_c, 0, 75, 0
1, 35744, Note_on_c, 0, 78, 84
1, 35759, Note_on_c, 0, 78, 0
1, 35760, Note_on_c, 1, 66, 75
1, 35776, Note_on_c, 0, 75, 84
1, 35780, Note_on_c, 1, 66, 0
1, 35791, Note_on_c, 0, 75, 0
1, 35792, Note_on_c, 0, 78, 84
1, 35807, Note_on_c, 0, 78, 0
1, 35808, Note_on_c, 1, 70, 75
1, 35824, Note_on_c, 0, 75, 84
1, 35828, Note_on_c, 1, 70, 0
1, 35839, Note_on_c, 0, 75, 0
1, 35840, Note_on_c, 0, 78, 84
1, 35855, Note_on_c, 0, 78, 0
1, 35856, Note_on_c, 1, 75, 75
1, 35872, Note_on_c, 0, 75, 84
1, 35876, Note_on_c, 1, 75, 0
1, 35887, Note_on_c, 0, 75, 0
1, 35888, Note_on_c, 0, 78, 84
1, 35903, Note_on_c, 0, 78, 0
1, 35904, Note_on_c, 0, 82, 84
1, 35904, Note_on_c, 0, 78, 84
1, 35920, Note_on_c, 1, 75, 75
1, 35924, Note_on_c, 0, 82, 0
1, 35924, Note_on_c, 0, 78, 0
1, 35935, Note_on_c, 1, 75, 0
1, 35936, Note_on_c, 1, 63, 75
1, 35951, Note_on_c, 1, 63, 0
1, 35952, Note_on_c, 0, 83, 84
1, 35952, Note_on_c, 0, 80, 84
1, 35968, Note_on_c, 1, 75, 75
1, 35972, Note_on_c, 0, 83, 0
1, 35972, Note_on_c, 0, 80, 0
1, 35983, Note_on_c, 1, 75, 0
1, 35984, Note_on_c, 1, 63, 75
1, 35999, Note_on_c, 1, 63, 0
1, 36000, Note_on_c, 0, 82, 84
1, 36000, Note_on_c, 0, 78, 84
1, 36016, Note_on_c, 1, 75, 75
1, 36020, Note_on_c, 0, 82, 0
1, 36020, Note_on_c, 0, 78, 0
1, 36031, Note_on_c, 1, 75, 0
1, 36032, Note_on_c, 1, 63, 75
1, 36047, Note_on_c, 1, 63, 0
1, 36048, Note_on_c, 0, 80, 84
1, 36048, Note_on_c, 0, 77, 84
1, 36064, Note_on_c, 1, 75, 75
1, 36068, Note_on_c, 0, 80, 0
1, 36068, Note_on_c, 0, 77, 0
1, 36079, Note_on_c, 1, 75, 0
1, 36080, Note_on_c, 1, 63, 75
1, 36095, Note_on_c, 1, 63, 0
1, 36096, Note_on_c, 1, 63, 75
1, 36112, Note_on_c, 0, 75, 84
1, 36116, Note_on_c, 1, 63, 0
1, 36127, Note_on_c, 0, 75, 0
1, 36128, Note_on_c, 0, 78, 84
1, 36143, Note_on_c, 0, 78, 0
1, 36144, Note_on_c, 1, 70, 75
1, 36160, Note_on_c, 0, 75, 84
1, 36164, Note_on_c, 1, 70, 0
1, 36175, Note_on_c, 0, 75, 0
1, 36176, Note_on_c, 0, 78, 84
1, 36191, Note_on_c, 0, 78, 0
1, 36192, Note_on_c, 1, 63, 75
1, 36208, Note_on_c, 0, 75, 84
1, 36212, Note_on_c, 1, 63, 0
1, 36223, Note_on_c, 0, 75, 0
1, 36224, Note_on_c, 0, 78, 84
1, 36239, Note_on_c, 0, 78, 0
1, 36240, Note_on_c, 1, 70, 75
1, 36256, Note_on_c, 0, 75, 84
1, 36260, Note_on_c, 1, 70, 0
1, 36271, Note_on_c, 0, 75, 0
1, 36272, Note_on_c, 0, 78, 84
1, 36287, Note_on_c, 0, 78, 0
1, 36288, Note_on_c, 1, 63, 75
1, 36304, Note_on_c, 0, 73, 84
1, 36308, Note_on_c, 1, 63, 0
1, 36319, Note_on_c, 0, 73, 0
1, 36320, Note_on_c, 0, 79, 84
1, 36335, Note_on_c, 0, 79, 0
1, 36336, Note_on_c, 1, 70, 75
1, 36352, Note_on_c, 0, 73, 84
1, 36356, Note_on_c, 1, 70, 0
1, 36367, Note_on_c, 0, 73, 0
1, 36368, Note_on_c, 0, 79, 84
1, 36383, Note_on_c, 0, 79, 0
1, 36384, Note_on_c, 1, 63, 75
1, 36400, Note_on_c, 0, 73, 84
1, 36404, Note_on_c, 1, 63, 0
1, 36415, Note_on_c, 0, 73, 0
1, 36416, Note_on_c, 0, 79, 84
1, 36431, Note_on_c, 0, 79, 0
1, 36432, Note_on_c, 1, 70, 75
1, 36448, Note_on_c, 0, 73, 84
1, 36452, Note_on_c, 1, 70, 0
1, 36463, Note_on_c, 0, 73, 0
1, 36464, Note_on_c, 0, 79, 84
1, 36479, Note_on_c, 0, 79, 0
1, 36480, Note_on_c, 1, 63, 75
1, 36496, Note_on_c, 0, 71, 84
1, 36500, Note_on_c, 1, 63, 0
1, 36511, Note_on_c, 0, 71, 0
1, 36512, Note_on_c, 0, 80, 84
1, 36527, Note_on_c, 0, 80, 0
1, 36528, Note_on_c, 1, 68, 75
1, 36544, Note_on_c, 0, 71, 84
1, 36548, Note_on_c, 1, 68, 0
1, 36559, Note_on_c, 0, 71, 0
1, 36560, Note_on_c, 0, 80, 84
1, 36575, Note_on_c, 0, 80, 0
1, 36576, Note_on_c, 1, 63, 75
1, 36592, Note_on_c, 0, 71, 84
1, 36596, Note_on_c, 1, 63, 0
1, 36607, Note_on_c, 0, 71, 0
1, 36608, Note_on_c, 0, 80, 84
1, 36623, Note_on_c, 0, 80, 0
1, 36624, Note_on_c, 1, 68, 75
1, 36640, Note_on_c, 0, 71, 84
1, 36644, Note_on_c, 1, 68, 0
1, 36655, Note_on_c, 0, 71, 0
1, 36656, Note_on_c, 0, 80, 84
1, 36671, Note_on_c, 0, 80, 0
1, 36672, Note_on_c, 1, 63, 75
1, 36688, Note_on_c, 0, 72, 84
1, 36692, Note_on_c, 1, 63, 0
1, 36703, Note_on_c, 0, 72, 0
1, 36704, Note_on_c, 0, 78, 84
1, 36719, Note_on_c, 0, 78, 0
1, 36720, Note_on_c, 1, 69, 75
1, 36736, Note_on_c, 0, 72, 84
1, 36740, Note_on_c, 1, 69, 0
1, 36751, Note_on_c, 0, 72, 0
1, 36752, Note_on_c, 0, 78, 84
1, 36767, Note_on_c, 0, 78, 0
1, 36768, Note_on_c, 1, 63, 75
1, 36784, Note_on_c, 0, 72, 84
1, 36788, Note_on_c, 1, 63, 0
1, 36799, Note_on_c, 0, 72, 0
1, 36800, Note_on_c, 0, 78, 84
1, 36815, Note_on_c, 0, 78, 0
1, 36816, Note_on_c, 1, 69, 75
1, 36832, Note_on_c, 0, 72, 84
1, 36836, Note_on_c, 1, 69, 0
1, 36847, Note_on_c, 0, 72, 0
1, 36848, Note_on_c, 0, 78, 84
1, 36863, Note_on_c, 0, 78, 0
1, 36864, Note_on_c, 1, 61, 75
1, 36880, Note_on_c, 0, 73, 84
1, 36884, Note_on_c, 1, 61, 0
1, 36895, Note_on_c, 0, 73, 0
1, 36896, Note_on_c, 0, 77, 84
1, 36911, Note_on_c, 0, 77, 0
1, 36912, Note_on_c, 1, 70, 75
1, 36928, Note_on_c, 0, 73, 84
1, 36932, Note_on_c, 1, 70, 0
1, 36943, Note_on_c, 0, 73, 0
1, 36944, Note_on_c, 0, 77, 84
1, 36959, Note_on_c, 0, 77, 0
1, 36960, Note_on_c, 1, 61, 75
1, 36976, Note_on_c, 0, 73, 84
1, 36980, Note_on_c, 1, 61, 0
1, 36991, Note_on_c, 0, 73, 0
1, 36992, Note_on_c, 0, 77, 84
1, 37007, Note_on_c, 0, 77, 0
1, 37008, Note_on_c, 1, 70, 75
1, 37024, Note_on_c, 0, 73, 84
1, 37028, Note_on_c, 1, 70, 0
1, 37039, Note_on_c, 0, 73, 0
1, 37040, Note_on_c, 0, 77, 84
1, 37055, Note_on_c, 0, 77, 0
1, 37056, Note_on_c, 1, 66, 75
1, 37072, Note_on_c, 0, 70, 84
1, 37076, Note_on_c, 1, 66, 0
1, 37087, Note_on_c, 0, 70, 0
1, 37088, Note_on_c, 0, 76, 84
1, 37103, Note_on_c, 0, 76, 0
1, 37104, Note_on_c, 1, 70, 75
1, 37120, Note_on_c, 0, 73, 84
1, 37124, Note_on_c, 1, 70, 0
1, 37135, Note_on_c, 0, 73, 0
1, 37136, Note_on_c, 0, 76, 84
1, 37151, Note_on_c, 0, 76, 0
1, 37152, Note_on_c, 1, 66, 75
1, 37168, Note_on_c, 0, 70, 84
1, 37172, Note_on_c, 1, 66, 0
1, 37183, Note_on_c, 0, 70, 0
1, 37184, Note_on_c, 0, 76, 84
1, 37199, Note_on_c, 0, 76, 0
1, 37200, Note_on_c, 1, 70, 75
1, 37216, Note_on_c, 0, 73, 84
1, 37220, Note_on_c, 1, 70, 0
1, 37231, Note_on_c, 0, 73, 0
1, 37232, Note_on_c, 0, 76, 84
1, 37247, Note_on_c, 0, 76, 0
1, 37248, Note_on_c, 1, 65, 75
1, 37264, Note_on_c, 0, 69, 84
1, 37268, Note_on_c, 1, 65, 0
1, 37279, Note_on_c, 0, 69, 0
1, 37280, Note_on_c, 0, 77, 84
1, 37295, Note_on_c, 0, 77, 0
1, 37296, Note_on_c, 1, 69, 75
1, 37312, Note_on_c, 0, 72, 84
1, 37316, Note_on_c, 1, 69, 0
1, 37327, Note_on_c, 0, 72, 0
1, 37328, Note_on_c, 0, 77, 84
1, 37343, Note_on_c, 0, 77, 0
1, 37344, Note_on_c, 1, 65, 75
1, 37360, Note_on_c, 0, 69, 84
1, 37364, Note_on_c, 1, 65, 0
1, 37375, Note_on_c, 0, 69, 0
1, 37376, Note_on_c, 0, 77, 84
1, 37391, Note_on_c, 0, 77, 0
1, 37392, Note_on_c, 1, 69, 75
1, 37408, Note_on_c, 0, 72, 84
1, 37412, Note_on_c, 1, 69, 0
1, 37423, Note_on_c, 0, 72, 0
1, 37424, Note_on_c, 0, 77, 84
1, 37439, Note_on_c, 0, 77, 0
1, 37440, Note_on_c, 1, 63, 75
1, 37456, Note_on_c, 0, 69, 84
1, 37460, Note_on_c, 1, 63, 0
1, 37471, Note_on_c, 0, 69, 0
1, 37472, Note_on_c, 0, 78, 84
1, 37487, Note_on_c, 0, 78, 0
1, 37488, Note_on_c, 1, 69, 75
1, 37504, Note_on_c, 0, 72, 84
1, 37508, Note_on_c, 1, 69, 0
1, 37519, Note_on_c, 0, 72, 0
1, 37520, Note_on_c, 0, 78, 84
1, 37535, Note_on_c, 0, 78, 0
1, 37536, Note_on_c, 1, 63, 75
1, 37552, Note_on_c, 0, 69, 84
1, 37556, Note_on_c, 1, 63, 0
1, 37567, Note_on_c, 0, 69, 0
1, 37568, Note_on_c, 0, 78, 84
1, 37583, Note_on_c, 0, 78, 0
1, 37584, Note_on_c, 1, 69, 75
1, 37600, Note_on_c, 0, 72, 84
1, 37604, Note_on_c, 1, 69, 0
1, 37615, Note_on_c, 0, 72, 0
1, 37616, Note_on_c, 0, 78, 84
1, 37631, Note_on_c, 0, 78, 0
1, 37632, Note_on_c, 1, 62, 75
1, 37648, Note_on_c, 0, 70, 84
1, 37652, Note_on_c, 1, 62, 0
1, 37663, Note_on_c, 0, 70, 0
1, 37664, Note_on_c, 0, 77, 84
1, 37679, Note_on_c, 0, 77, 0
1, 37680, Note_on_c, 1, 70, 75
1, 37696, Note_on_c, 0, 74, 84
1, 37700, Note_on_c, 1, 70, 0
1, 37711, Note_on_c, 0, 74, 0
1, 37712, Note_on_c, 0, 77, 84
1, 37727, Note_on_c, 0, 77, 0
1, 37728, Note_on_c, 1, 62, 75
1, 37744, Note_on_c, 0, 70, 84
1, 37748, Note_on_c, 1, 62, 0
1, 37759, Note_on_c, 0, 70, 0
1, 37760, Note_on_c, 0, 77, 84
1, 37775, Note_on_c, 0, 77, 0
1, 37776, Note_on_c, 1, 70, 75
1, 37792, Note_on_c, 0, 74, 84
1, 37796, Note_on_c, 1, 70, 0
1, 37807, Note_on_c, 0, 74, 0
1, 37808, Note_on_c, 0, 77, 84
1, 37823, Note_on_c, 0, 77, 0
1, 37824, Note_on_c, 1, 61, 75
1, 37840, Note_on_c, 0, 71, 84
1, 37844, Note_on_c, 1, 61, 0
1, 37855, Note_on_c, 0, 71, 0
1, 37856, Note_on_c, 0, 77, 84
1, 37871, Note_on_c, 0, 77, 0
1, 37872, Note_on_c, 1, 68, 75
1, 37888, Note_on_c, 0, 71, 84
1, 37892, Note_on_c, 1, 68, 0
1, 37903, Note_on_c, 0, 71, 0
1, 37904, Note_on_c, 0, 77, 84
1, 37919, Note_on_c, 0, 77, 0
1, 37920, Note_on_c, 1, 61, 75
1, 37936, Note_on_c, 0, 71, 84
1, 37940, Note_on_c, 1, 61, 0
1, 37951, Note_on_c, 0, 71, 0
1, 37952, Note_on_c, 0, 77, 84
1, 37967, Note_on_c, 0, 77, 0
1, 37968, Note_on_c, 1, 68, 75
1, 37984, Note_on_c, 0, 71, 84
1, 37988, Note_on_c, 1, 68, 0
1, 37999, Note_on_c, 0, 71, 0
1, 38000, Note_on_c, 0, 77, 84
1, 38015, Note_on_c, 0, 77, 0
1, 38016, Note_on_c, 0, 76, 84
1, 38016, Note_on_c, 0, 72, 84
1, 38032, Note_on_c, 1, 60, 75
1, 38036, Note_on_c, 0, 76, 0
1, 38036, Note_on_c, 0, 72, 0
1, 38047, Note_on_c, 1, 60, 0
1, 38048, Note_on_c, 1, 48, 75
1, 38063, Note_on_c, 1, 48, 0
1, 38064, Note_on_c, 0, 77, 84
1, 38064, Note_on_c, 0, 74, 84
1, 38080, Note_on_c, 1, 60, 75
1, 38084, Note_on_c, 0, 77, 0
1, 38084, Note_on_c, 0, 74, 0
1, 38095, Note_on_c, 1, 60, 0
1, 38096, Note_on_c, 1, 48, 75
1, 38111, Note_on_c, 1, 48, 0
1, 38112, Note_on_c, 0, 79, 84
1, 38112, Note_on_c, 0, 76, 84
1, 38128, Note_on_c, 1, 60, 75
1, 38132, Note_on_c, 0, 79, 0
1, 38132, Note_on_c, 0, 76, 0
1, 38143, Note_on_c, 1, 60, 0
1, 38144, Note_on_c, 1, 48, 75
1, 38159, Note_on_c, 1, 48, 0
1, 38160, Note_on_c, 0, 70, 84
1, 38160, Note_on_c, 0, 67, 84
1, 38176, Note_on_c, 1, 60, 75
1, 38180, Note_on_c, 0, 70, 0
1, 38180, Note_on_c, 0, 67, 0
1, 38191, Note_on_c, 1, 60, 0
1, 38192, Note_on_c, 1, 48, 75
1, 38207, Note_on_c, 1, 48, 0
1, 38208, Note_on_c, 0, 68, 84
1, 38208, Note_on_c, 0, 65, 84
1, 38224, Note_on_c, 1, 60, 75
1, 38228, Note_on_c, 0, 68, 0
1, 38228, Note_on_c, 0, 65, 0
1, 38239, Note_on_c, 1, 60, 0
1, 38240, Note_on_c, 1, 48, 75
1, 38255, Note_on_c, 1, 48, 0
1, 38256, Note_on_c, 0, 70, 84
1, 38256, Note_on_c, 0, 67, 84
1, 38272, Note_on_c, 1, 60, 75
1, 38276, Note_on_c, 0, 70, 0
1, 38276, Note_on_c, 0, 67, 0
1, 38287, Note_on_c, 1, 60, 0
1, 38288, Note_on_c, 1, 48, 75
1, 38303, Note_on_c, 1, 48, 0
1, 38304, Note_on_c, 0, 72, 84
1, 38304, Note_on_c, 0, 68, 84
1, 38320, Note_on_c, 1, 60, 75
1, 38324, Note_on_c, 0, 72, 0
1, 38324, Note_on_c, 0, 68, 0
1, 38335, Note_on_c, 1, 60, 0
1, 38336, Note_on_c, 1, 48, 75
1, 38351, Note_on_c, 1, 48, 0
1, 38352, Note_on_c, 0, 65, 84
1, 38352, Note_on_c, 0, 56, 84
1, 38368, Note_on_c, 1, 60, 75
1, 38372, Note_on_c, 0, 65, 0
1, 38372, Note_on_c, 0, 56, 0
1, 38383, Note_on_c, 1, 60, 0
1, 38384, Note_on_c, 1, 48, 75
1, 38399, Note_on_c, 1, 48, 0
1, 38400, Note_on_c, 0, 64, 84
1, 38400, Note_on_c, 0, 55, 84
1, 38416, Note_on_c, 1, 48, 75
1, 38420, Note_on_c, 0, 64, 0
1, 38420, Note_on_c, 0, 55, 0
1, 38431, Note_on_c, 1, 48, 0
1, 38432, Note_on_c, 1, 36, 75
1, 38447, Note_on_c, 1, 36, 0
1, 38448, Note_on_c, 0, 65, 84
1, 38448, Note_on_c, 0, 56, 84
1, 38464, Note_on_c, 1, 48, 75
1, 38468, Note_on_c, 0, 65, 0
1, 38468, Note_on_c, 0, 56, 0
1, 38479, Note_on_c, 1, 48, 0
1, 38480, Note_on_c, 1, 36, 75
1, 38495, Note_on_c, 1, 36, 0
1, 38496, Note_on_c, 0, 67, 84
1, 38496, Note_on_c, 0, 58, 84
1, 38512, Note_on_c, 1, 48, 75
1, 38516, Note_on_c, 0, 67, 0
1, 38516, Note_on_c, 0, 58, 0
1, 38527, Note_on_c, 1, 48, 0
1, 38528, Note_on_c, 1, 36, 75
1, 38543, Note_on_c, 1, 36, 0
1, 38544, Note_on_c, 0, 58, 84
1, 38544, Note_on_c, 0, 55, 84
1, 38560, Note_on_c, 1, 48, 75
1, 38564, Note_on_c, 0, 58, 0
1, 38564, Note_on_c, 0, 55, 0
1, 38575, Note_on_c, 1, 48, 0
1, 38576, Note_on_c, 1, 36, 75
1, 38591, Note_on_c, 1, 36, 0
1, 38592, Note_on_c, 0, 56, 84
1, 38592, Note_on_c, 0, 53, 84
1, 38608, Note_on_c, 1, 48, 75
1, 38612, Note_on_c, 0, 56, 0
1, 38612, Note_on_c, 0, 53, 0
1, 38623, Note_on_c, 1, 48, 0
1, 38624, Note_on_c, 1, 36, 75
1, 38639, Note_on_c, 1, 36, 0
1, 38640, Note_on_c, 0, 60, 84
1, 38640, Note_on_c, 0, 56, 84
1, 38656, Note_on_c, 1, 48, 75
1, 38660, Note_on_c, 0, 60, 0
1, 38660, Note_on_c, 0, 56, 0
1, 38671, Note_on_c, 1, 48, 0
1, 38672, Note_on_c, 1, 36, 75
1, 38687, Note_on_c, 1, 36, 0
1, 38688, Note_on_c, 0, 58, 84
1, 38688, Note_on_c, 0, 55, 84
1, 38704, Note_on_c, 1, 48, 75
1, 38708, Note_on_c, 0, 58, 0
1, 38708, Note_on_c, 0, 55, 0
1, 38719, Note_on_c, 1, 48, 0
1, 38720, Note_on_c, 1, 36, 75
1, 38735, Note_on_c, 1, 36, 0
1, 38736, Note_on_c, 0, 56, 84
1, 38736, Note_on_c, 0, 53, 84
1, 38752, Note_on_c, 1, 48, 75
1, 38756, Note_on_c, 0, 56, 0
1, 38756, Note_on_c, 0, 53, 0
1, 38767, Note_on_c, 1, 48, 0
1, 38768, Note_on_c, 1, 36, 75
1, 38783, Note_on_c, 1, 36, 0
1, 38784, Note_on_c, 0, 55, 84
1, 38784, Note_on_c, 0, 52, 84
1, 38800, Note_on_c, 1, 48, 75
1, 38804, Note_on_c, 0, 55, 0
1, 38804, Note_on_c, 0, 52, 0
1, 38815, Note_on_c, 1, 48, 0
1, 38816, Note_on_c, 1, 36, 75
1, 38831, Note_on_c, 1, 36, 0
1, 38832, Note_on_c, 0, 56, 84
1, 38832, Note_on_c, 0, 53, 84
1, 38848, Note_on_c, 1, 48, 75
1, 38852, Note_on_c, 0, 56, 0
1, 38852, Note_on_c, 0, 53, 0
1, 38863, Note_on_c, 1, 48, 0
1, 38864, Note_on_c, 1, 36, 75
1, 38879, Note_on_c, 1, 36, 0
1, 38880, Note_on_c, 0, 55, 84
1, 38880, Note_on_c, 0, 52, 84
1, 38896, Note_on_c, 1, 48, 75
1, 38900, Note_on_c, 0, 55, 0
1, 38900, Note_on_c, 0, 52, 0
1, 38911, Note_on_c, 1, 48, 0
1, 38912, Note_on_c, 1, 36, 75
1, 38927, Note_on_c, 1, 36, 0
1, 38928, Note_on_c, 0, 59, 84
1, 38928, Note_on_c, 0, 50, 84
1, 38944, Note_on_c, 1, 48, 75
1, 38948, Note_on_c, 0, 59, 0
1, 38948, Note_on_c, 0, 50, 0
1, 38959, Note_on_c, 1, 48, 0
1, 38960, Note_on_c, 1, 36, 75
1, 38975, Note_on_c, 1, 36, 0
1, 38976, Note_on_c, 0, 60, 84
1, 38976, Note_on_c, 0, 52, 84
1, 38992, Note_on_c, 1, 48, 75
1, 39007, Note_on_c, 1, 48, 0
1, 39008, Note_on_c, 1, 36, 75
1, 39117, Note_on_c, 0, 60, 0
1, 39117, Note_on_c, 0, 52, 0
1, 39117, Note_on_c, 1, 36, 0
1, 39168, Note_on_c, 0, 72, 75
1, 39180, Note_on_c, 0, 72, 0
1, 39180, Note_on_c, 0, 84, 75
1, 39216, Note_on_c, 1, 68, 61
1, 39216, Note_on_c, 1, 65, 61
1, 39263, Note_on_c, 1, 68, 0
1, 39263, Note_on_c, 1, 65, 0
1, 39264, Note_on_c, 1, 68, 61
1, 39264, Note_on_c, 1, 65, 61
1, 39287, Note_on_c, 0, 84, 0
1, 39288, Note_on_c, 0, 82, 75
1, 39300, Note_on_c, 0, 82, 0
1, 39300, Note_on_c, 0, 80, 75
1, 39311, Note_on_c, 1, 68, 0
1, 39311, Note_on_c, 1, 65, 0
1, 39312, Note_on_c, 0, 80, 0
1, 39312, Note_on_c, 0, 82, 75
1, 39312, Note_on_c, 1, 68, 61
1, 39312, Note_on_c, 1, 65, 61
1, 39324, Note_on_c, 0, 82, 0
1, 39324, Note_on_c, 0, 80, 75
1, 39336, Note_on_c, 0, 80, 0
1, 39336, Note_on_c, 0, 79, 75
1, 39348, Note_on_c, 0, 79, 0
1, 39348, Note_on_c, 0, 77, 75
1, 39359, Note_on_c, 1, 68, 0
1, 39359, Note_on_c, 1, 65, 0
1, 39360, Note_on_c, 0, 77, 0
1, 39360, Note_on_c, 0, 77, 75
1, 39408, Note_on_c, 1, 70, 61
1, 39408, Note_on_c, 1, 67, 61
1, 39449, Note_on_c, 0, 77, 0
1, 39455, Note_on_c, 1, 70, 0
1, 39455, Note_on_c, 1, 67, 0
1, 39456, Note_on_c, 0, 76, 75
1, 39456, Note_on_c, 1, 70, 61
1, 39456, Note_on_c, 1, 67, 61
1, 39462, Note_on_c, 0, 76, 0
1, 39462, Note_on_c, 0, 77, 75
1, 39468, Note_on_c, 0, 77, 0
1, 39468, Note_on_c, 0, 76, 75
1, 39503, Note_on_c, 1, 70, 0
1, 39503, Note_on_c, 1, 67, 0
1, 39504, Note_on_c, 1, 70, 61
1, 39504, Note_on_c, 1, 67, 61
1, 39525, Note_on_c, 0, 76, 0
1, 39528, Note_on_c, 0, 76, 75
1, 39536, Note_on_c, 0, 76, 0
1, 39536, Note_on_c, 0, 79, 75
1, 39544, Note_on_c, 0, 79, 0
1, 39544, Note_on_c, 0, 82, 75
1, 39551, Note_on_c, 1, 70, 0
1, 39551, Note_on_c, 1, 67, 0
1, 39552, Note_on_c, 0, 82, 0
1, 39552, Note_on_c, 0, 85, 75
1, 39600, Note_on_c, 1, 67, 61
1, 39600, Note_on_c, 1, 64, 61
1, 39647, Note_on_c, 1, 67, 0
1, 39647, Note_on_c, 1, 64, 0
1, 39648, Note_on_c, 0, 85, 0
1, 39648, Note_on_c, 0, 84, 75
1, 39648, Note_on_c, 1, 67, 61
1, 39648, Note_on_c, 1, 64, 61
1, 39695, Note_on_c, 1, 67, 0
1, 39695, Note_on_c, 1, 64, 0
1, 39696, Note_on_c, 1, 67, 61
1, 39696, Note_on_c, 1, 64, 61
1, 39715, Note_on_c, 0, 84, 0
1, 39720, Note_on_c, 0, 82, 75
1, 39743, Note_on_c, 0, 82, 0
1, 39743, Note_on_c, 1, 67, 0
1, 39743, Note_on_c, 1, 64, 0
1, 39744, Note_on_c, 0, 82, 75
1, 39792, Note_on_c, 1, 66, 61
1, 39792, Note_on_c, 1, 63, 61
1, 39839, Note_on_c, 1, 66, 0
1, 39839, Note_on_c, 1, 63, 0
1, 39840, Note_on_c, 0, 82, 0
1, 39840, Note_on_c, 0, 81, 75
1, 39840, Note_on_c, 1, 66, 61
1, 39840, Note_on_c, 1, 63, 61
1, 39846, Note_on_c, 0, 81, 0
1, 39846, Note_on_c, 0, 82, 75
1, 39852, Note_on_c, 0, 82, 0
1, 39852, Note_on_c, 0, 81, 75
1, 39887, Note_on_c, 1, 66, 0
1, 39887, Note_on_c, 1, 63, 0
1, 39888, Note_on_c, 1, 66, 61
1, 39888, Note_on_c, 1, 63, 61
1, 39909, Note_on_c, 0, 81, 0
1, 39912, Note_on_c, 0, 81, 75
1, 39924, Note_on_c, 0, 81, 0
1, 39924, Note_on_c, 0, 84, 75
1, 39935, Note_on_c, 1, 66, 0
1, 39935, Note_on_c, 1, 63, 0
1, 39936, Note_on_c, 0, 84, 0
1, 39936, Note_on_c, 0, 87, 75
1, 39984, Note_on_c, 1, 66, 61
1, 39984, Note_on_c, 1, 63, 61
1, 40031, Note_on_c, 1, 66, 0
1, 40031, Note_on_c, 1, 63, 0
1, 40032, Note_on_c, 1, 66, 61
1, 40032, Note_on_c, 1, 63, 61
1, 40055, Note_on_c, 0, 87, 0
1, 40056, Note_on_c, 0, 85, 75
1, 40068, Note_on_c, 0, 85, 0
1, 40068, Note_on_c, 0, 84, 75
1, 40079, Note_on_c, 1, 66, 0
1, 40079, Note_on_c, 1, 63, 0
1, 40080, Note_on_c, 0, 84, 0
1, 40080, Note_on_c, 0, 85, 75
1, 40080, Note_on_c, 1, 66, 61
1, 40080, Note_on_c, 1, 63, 61
1, 40092, Note_on_c, 0, 85, 0
1, 40092, Note_on_c, 0, 84, 75
1, 40104, Note_on_c, 0, 84, 0
1, 40104, Note_on_c, 0, 82, 75
1, 40116, Note_on_c, 0, 82, 0
1, 40116, Note_on_c, 0, 81, 75
1, 40127, Note_on_c, 1, 66, 0
1, 40127, Note_on_c, 1, 63, 0
1, 40128, Note_on_c, 0, 81, 0
1, 40128, Note_on_c, 0, 81, 75
1, 40176, Note_on_c, 1, 65, 61
1, 40176, Note_on_c, 1, 61, 61
1, 40223, Note_on_c, 1, 65, 0
1, 40223, Note_on_c, 1, 61, 0
1, 40224, Note_on_c, 0, 81, 0
1, 40224, Note_on_c, 0, 82, 75
1, 40224, Note_on_c, 1, 65, 63
1, 40224, Note_on_c, 1, 61, 63
1, 40230, Note_on_c, 0, 82, 0
1, 40230, Note_on_c, 0, 81, 75
1, 40236, Note_on_c, 0, 81, 0
1, 40236, Note_on_c, 0, 82, 75
1, 40271, Note_on_c, 1, 65, 0
1, 40271, Note_on_c, 1, 61, 0
1, 40272, Note_on_c, 1, 65, 66
1, 40272, Note_on_c, 1, 61, 66
1, 40293, Note_on_c, 0, 82, 0
1, 40296, Note_on_c, 0, 77, 78
1, 40319, Note_on_c, 0, 77, 0
1, 40319, Note_on_c, 1, 65, 0
1, 40319, Note_on_c, 1, 61, 0
1, 40320, Note_on_c, 0, 89, 79
1, 40368, Note_on_c, 1, 65, 69
1, 40368, Note_on_c, 1, 61, 69
1, 40415, Note_on_c, 1, 65, 0
1, 40415, Note_on_c, 1, 61, 0
1, 40416, Note_on_c, 1, 65, 66
1, 40416, Note_on_c, 1, 61, 66
1, 40439, Note_on_c, 0, 89, 0
1, 40440, Note_on_c, 0, 87, 84
1, 40452, Note_on_c, 0, 87, 0
1, 40452, Note_on_c, 0, 85, 84
1, 40463, Note_on_c, 1, 65, 0
1, 40463, Note_on_c, 1, 61, 0
1, 40464, Note_on_c, 0, 85, 0
1, 40464, Note_on_c, 0, 87, 84
1, 40464, Note_on_c, 1, 65, 63
1, 40464, Note_on_c, 1, 61, 63
1, 40476, Note_on_c, 0, 87, 0
1, 40476, Note_on_c, 0, 85, 82
1, 40488, Note_on_c, 0, 85, 0
1, 40488, Note_on_c, 0, 84, 80
1, 40500, Note_on_c, 0, 84, 0
1, 40500, Note_on_c, 0, 83, 78
1, 40511, Note_on_c, 1, 65, 0
1, 40511, Note_on_c, 1, 61, 0
1, 40512, Note_on_c, 0, 83, 0
1, 40512, Note_on_c, 0, 84, 76
1, 40512, Note_on_c, 1, 64, 61
1, 40512, Note_on_c, 1, 60, 61
1, 40557, Note_on_c, 0, 84, 0
1, 40560, Note_on_c, 0, 72, 69
1, 40575, Note_on_c, 0, 72, 0
1, 40576, Note_on_c, 0, 76, 69
1, 40591, Note_on_c, 0, 76, 0
1, 40592, Note_on_c, 0, 74, 69
1, 40606, Note_on_c, 1, 64, 0
1, 40606, Note_on_c, 1, 60, 0
1, 40607, Note_on_c, 0, 74, 0
1, 40608, Note_on_c, 0, 74, 69
1, 40623, Note_on_c, 0, 74, 0
1, 40624, Note_on_c, 0, 77, 69
1, 40639, Note_on_c, 0, 77, 0
1, 40640, Note_on_c, 0, 76, 69
1, 40655, Note_on_c, 0, 76, 0
1, 40656, Note_on_c, 0, 76, 69
1, 40671, Note_on_c, 0, 76, 0
1, 40672, Note_on_c, 0, 79, 69
1, 40687, Note_on_c, 0, 79, 0
1, 40688, Note_on_c, 0, 77, 70
1, 40703, Note_on_c, 0, 77, 0
1, 40704, Note_on_c, 0, 77, 71
1, 40719, Note_on_c, 0, 77, 0
1, 40720, Note_on_c, 0, 80, 72
1, 40735, Note_on_c, 0, 80, 0
1, 40736, Note_on_c, 0, 79, 72
1, 40751, Note_on_c, 0, 79, 0
1, 40752, Note_on_c, 0, 79, 73
1, 40767, Note_on_c, 0, 79, 0
1, 40768, Note_on_c, 0, 82, 74
1, 40783, Note_on_c, 0, 82, 0
1, 40784, Note_on_c, 0, 80, 75
1, 40799, Note_on_c, 0, 80, 0
1, 40800, Note_on_c, 0, 80, 75
1, 40815, Note_on_c, 0, 80, 0
1, 40816, Note_on_c, 0, 84, 76
1, 40831, Note_on_c, 0, 84, 0
1, 40832, Note_on_c, 0, 82, 77
1, 40847, Note_on_c, 0, 82, 0
1, 40848, Note_on_c, 0, 81, 78
1, 40863, Note_on_c, 0, 81, 0
1, 40864, Note_on_c, 0, 84, 78
1, 40879, Note_on_c, 0, 84, 0
1, 40880, Note_on_c, 0, 82, 79
1, 40895, Note_on_c, 0, 82, 0
1, 40896, Note_on_c, 0, 82, 110
1, 40896, Note_on_c, 1, 73, 84
1, 40896, Note_on_c, 1, 70, 84
1, 40896, Note_on_c, 1, 67, 84
1, 40896, Note_on_c, 1, 64, 84
1, 40985, Note_on_c, 0, 82, 0
1, 40985, Note_on_c, 1, 73, 0
1, 40985, Note_on_c, 1, 70, 0
1, 40985, Note_on_c, 1, 67, 0
1, 40985, Note_on_c, 1, 64, 0
1, 41064, Note_on_c, 0, 79, 84
1, 41087, Note_on_c, 0, 79, 0
1, 41088, Note_on_c, 0, 80, 84
1, 41088, Note_on_c, 1, 72, 69
1, 41088, Note_on_c, 1, 68, 69
1, 41088, Note_on_c, 1, 65, 69
1, 41103, Note_on_c, 0, 80, 0
1, 41104, Note_on_c, 0, 84, 84
1, 41119, Note_on_c, 0, 84, 0
1, 41120, Note_on_c, 0, 82, 84
1, 41135, Note_on_c, 0, 82, 0
1, 41136, Note_on_c, 0, 80, 84
1, 41151, Note_on_c, 0, 80, 0
1, 41152, Note_on_c, 0, 79, 84
1, 41167, Note_on_c, 0, 79, 0
1, 41168, Note_on_c, 0, 77, 84
1, 41177, Note_on_c, 1, 72, 0
1, 41177, Note_on_c, 1, 68, 0
1, 41177, Note_on_c, 1, 65, 0
1, 41183, Note_on_c, 0, 77, 0
1, 41184, Note_on_c, 0, 75, 84
1, 41199, Note_on_c, 0, 75, 0
1, 41200, Note_on_c, 0, 73, 84
1, 41215, Note_on_c, 0, 73, 0
1, 41216, Note_on_c, 0, 72, 84
1, 41231, Note_on_c, 0, 72, 0
1, 41232, Note_on_c, 0, 70, 84
1, 41247, Note_on_c, 0, 70, 0
1, 41248, Note_on_c, 0, 68, 84
1, 41263, Note_on_c, 0, 68, 0
1, 41264, Note_on_c, 0, 67, 84
1, 41279, Note_on_c, 0, 67, 0
1, 41280, Note_on_c, 0, 65, 84
1, 41328, Note_on_c, 1, 59, 84
1, 41328, Note_on_c, 1, 47, 84
1, 41373, Note_on_c, 1, 59, 0
1, 41373, Note_on_c, 1, 47, 0
1, 41376, Note_on_c, 1, 60, 84
1, 41376, Note_on_c, 1, 48, 84
1, 41421, Note_on_c, 0, 65, 0
1, 41421, Note_on_c, 1, 60, 0
1, 41421, Note_on_c, 1, 48, 0
1, 41424, Note_on_c, 0, 68, 84
1, 41424, Note_on_c, 1, 48, 84
1, 41424, Note_on_c, 1, 36, 84
1, 41430, Note_on_c, 0, 68, 0
1, 41430, Note_on_c, 0, 67, 84
1, 41469, Note_on_c, 0, 67, 0
1, 41469, Note_on_c, 1, 48, 0
1, 41469, Note_on_c, 1, 36, 0
1, 41472, Note_on_c, 0, 65, 84
1, 41472, Note_on_c, 1, 41, 84
1, 41472, Note_on_c, 1, 29, 84
1, 41517, Note_on_c, 0, 65, 0
1, 41520, Note_on_c, 0, 72, 61
1, 41535, Note_on_c, 0, 72, 0
1, 41536, Note_on_c, 0, 76, 61
1, 41551, Note_on_c, 0, 76, 0
1, 41552, Note_on_c, 0, 74, 61
1, 41561, Note_on_c, 1, 41, 0
1, 41561, Note_on_c, 1, 29, 0
1, 41567, Note_on_c, 0, 74, 0
1, 41568, Note_on_c, 0, 74, 61
1, 41583, Note_on_c, 0, 74, 0
1, 41584, Note_on_c, 0, 77, 61
1, 41599, Note_on_c, 0, 77, 0
1, 41600, Note_on_c, 0, 76, 61
1, 41615, Note_on_c, 0, 76, 0
1, 41616, Note_on_c, 0, 76, 61
1, 41631, Note_on_c, 0, 76, 0
1, 41632, Note_on_c, 0, 79, 62
1, 41647, Note_on_c, 0, 79, 0
1, 41648, Note_on_c, 0, 77, 63
1, 41663, Note_on_c, 0, 77, 0
1, 41664, Note_on_c, 0, 77, 64
1, 41679, Note_on_c, 0, 77, 0
1, 41680, Note_on_c, 0, 80, 65
1, 41695, Note_on_c, 0, 80, 0
1, 41696, Note_on_c, 0, 79, 66
1, 41711, Note_on_c, 0, 79, 0
1, 41712, Note_on_c, 0, 79, 67
1, 41727, Note_on_c, 0, 79, 0
1, 41728, Note_on_c, 0, 82, 69
1, 41743, Note_on_c, 0, 82, 0
1, 41744, Note_on_c, 0, 80, 70
1, 41759, Note_on_c, 0, 80, 0
1, 41760, Note_on_c, 0, 80, 71
1, 41775, Note_on_c, 0, 80, 0
1, 41776, Note_on_c, 0, 84, 72
1, 41791, Note_on_c, 0, 84, 0
1, 41792, Note_on_c, 0, 82, 73
1, 41807, Note_on_c, 0, 82, 0
1, 41808, Note_on_c, 0, 81, 74
1, 41823, Note_on_c, 0, 81, 0
1, 41824, Note_on_c, 0, 84, 75
1, 41839, Note_on_c, 0, 84, 0
1, 41840, Note_on_c, 0, 82, 77
1, 41855, Note_on_c, 0, 82, 0
1, 41856, Note_on_c, 0, 82, 110
1, 41856, Note_on_c, 1, 73, 84
1, 41856, Note_on_c, 1, 70, 84
1, 41856, Note_on_c, 1, 67, 84
1, 41856, Note_on_c, 1, 64, 84
1, 41945, Note_on_c, 0, 82, 0
1, 41945, Note_on_c, 1, 73, 0
1, 41945, Note_on_c, 1, 70, 0
1, 41945, Note_on_c, 1, 67, 0
1, 41945, Note_on_c, 1, 64, 0
1, 42024, Note_on_c, 0, 79, 84
1, 42047, Note_on_c, 0, 79, 0
1, 42048, Note_on_c, 0, 80, 84
1, 42048, Note_on_c, 1, 72, 69
1, 42048, Note_on_c, 1, 68, 69
1, 42048, Note_on_c, 1, 65, 69
1, 42063, Note_on_c, 0, 80, 0
1, 42064, Note_on_c, 0, 84, 84
1, 42079, Note_on_c, 0, 84, 0
1, 42080, Note_on_c, 0, 82, 84
1, 42095, Note_on_c, 0, 82, 0
1, 42096, Note_on_c, 0, 80, 84
1, 42111, Note_on_c, 0, 80, 0
1, 42112, Note_on_c, 0, 79, 84
1, 42127, Note_on_c, 0, 79, 0
1, 42128, Note_on_c, 0, 77, 84
1, 42137, Note_on_c, 1, 72, 0
1, 42137, Note_on_c, 1, 68, 0
1, 42137, Note_on_c, 1, 65, 0
1, 42143, Note_on_c, 0, 77, 0
1, 42144, Note_on_c, 0, 75, 84
1, 42159, Note_on_c, 0, 75, 0
1, 42160, Note_on_c, 0, 73, 84
1, 42175, Note_on_c, 0, 73, 0
1, 42176, Note_on_c, 0, 72, 84
1, 42191, Note_on_c, 0, 72, 0
1, 42192, Note_on_c, 0, 70, 84
1, 42207, Note_on_c, 0, 70, 0
1, 42208, Note_on_c, 0, 68, 84
1, 42223, Note_on_c, 0, 68, 0
1, 42224, Note_on_c, 0, 67, 84
1, 42239, Note_on_c, 0, 67, 0
1, 42240, Note_on_c, 0, 65, 84
1, 42288, Note_on_c, 1, 59, 84
1, 42288, Note_on_c, 1, 47, 84
1, 42333, Note_on_c, 1, 59, 0
1, 42333, Note_on_c, 1, 47, 0
1, 42336, Note_on_c, 1, 60, 84
1, 42336, Note_on_c, 1, 48, 84
1, 42381, Note_on_c, 0, 65, 0
1, 42381, Note_on_c, 1, 60, 0
1, 42381, Note_on_c, 1, 48, 0
1, 42384, Note_on_c, 0, 68, 78
1, 42384, Note_on_c, 1, 48, 84
1, 42384, Note_on_c, 1, 36, 84
1, 42390, Note_on_c, 0, 68, 0
1, 42390, Note_on_c, 0, 67, 78
1, 42429, Note_on_c, 0, 67, 0
1, 42429, Note_on_c, 1, 48, 0
1, 42429, Note_on_c, 1, 36, 0
1, 42432, Note_on_c, 0, 65, 76
1, 42432, Note_on_c, 1, 41, 84
1, 42432, Note_on_c, 1, 29, 84
1, 42477, Note_on_c, 1, 41, 0
1, 42477, Note_on_c, 1, 29, 0
1, 42480, Note_on_c, 1, 56, 61
1, 42480, Note_on_c, 1, 53, 61
1, 42527, Note_on_c, 1, 56, 0
1, 42527, Note_on_c, 1, 53, 0
1, 42528, Note_on_c, 1, 56, 61
1, 42528, Note_on_c, 1, 53, 61
1, 42575, Note_on_c, 1, 56, 0
1, 42575, Note_on_c, 1, 53, 0
1, 42576, Note_on_c, 1, 56, 61
1, 42576, Note_on_c, 1, 53, 61
1, 42595, Note_on_c, 0, 65, 0
1, 42600, Note_on_c, 0, 72, 69
1, 42612, Note_on_c, 0, 72, 0
1, 42612, Note_on_c, 0, 68, 69
1, 42623, Note_on_c, 1, 56, 0
1, 42623, Note_on_c, 1, 53, 0
1, 42624, Note_on_c, 0, 68, 0
1, 42624, Note_on_c, 0, 65, 69
1, 42672, Note_on_c, 1, 56, 61
1, 42672, Note_on_c, 1, 53, 61
1, 42719, Note_on_c, 1, 56, 0
1, 42719, Note_on_c, 1, 53, 0
1, 42720, Note_on_c, 1, 56, 61
1, 42720, Note_on_c, 1, 53, 61
1, 42767, Note_on_c, 1, 56, 0
1, 42767, Note_on_c, 1, 53, 0
1, 42768, Note_on_c, 1, 56, 61
1, 42768, Note_on_c, 1, 53, 61
1, 42787, Note_on_c, 0, 65, 0
1, 42792, Note_on_c, 0, 72, 69
1, 42804, Note_on_c, 0, 72, 0
1, 42804, Note_on_c, 0, 68, 69
1, 42815, Note_on_c, 1, 56, 0
1, 42815, Note_on_c, 1, 53, 0
1, 42816, Note_on_c, 0, 68, 0
1, 42816, Note_on_c, 0, 65, 69
1, 42864, Note_on_c, 1, 56, 61
1, 42864, Note_on_c, 1, 53, 61
1, 42883, Note_on_c, 0, 65, 0
1, 42888, Note_on_c, 0, 72, 69
1, 42900, Note_on_c, 0, 72, 0
1, 42900, Note_on_c, 0, 68, 69
1, 42911, Note_on_c, 1, 56, 0
1, 42911, Note_on_c, 1, 53, 0
1, 42912, Note_on_c, 0, 68, 0
1, 42912, Note_on_c, 0, 65, 69
1, 42960, Note_on_c, 1, 56, 61
1, 42960, Note_on_c, 1, 53, 61
1, 42979, Note_on_c, 0, 65, 0
1, 42984, Note_on_c, 0, 72, 69
1, 42996, Note_on_c, 0, 72, 0
1, 42996, Note_on_c, 0, 68, 69
1, 43007, Note_on_c, 1, 56, 0
1, 43007, Note_on_c, 1, 53, 0
1, 43008, Note_on_c, 0, 68, 0
1, 43008, Note_on_c, 0, 65, 61
1, 43056, Note_on_c, 1, 56, 53
1, 43056, Note_on_c, 1, 53, 53
1, 43103, Note_on_c, 1, 56, 0
1, 43103, Note_on_c, 1, 53, 0
1, 43104, Note_on_c, 1, 56, 60
1, 43104, Note_on_c, 1, 53, 60
1, 43151, Note_on_c, 1, 56, 0
1, 43151, Note_on_c, 1, 53, 0
1, 43152, Note_on_c, 1, 56, 67
1, 43152, Note_on_c, 1, 53, 67
1, 43185, Note_on_c, 0, 65, 0
1, 43199, Note_on_c, 1, 56, 0
1, 43199, Note_on_c, 1, 53, 0
1, 43200, Note_on_c, 0, 65, 74
1, 43206, Note_on_c, 0, 65, 0
1, 43206, Note_on_c, 0, 66, 74
1, 43212, Note_on_c, 0, 66, 0
1, 43212, Note_on_c, 0, 68, 74
1, 43218, Note_on_c, 0, 68, 0
1, 43218, Note_on_c, 0, 66, 74
1, 43248, Note_on_c, 1, 56, 75
1, 43248, Note_on_c, 1, 51, 75
1, 43248, Note_on_c, 1, 48, 75
1, 43295, Note_on_c, 1, 56, 0
1, 43295, Note_on_c, 1, 51, 0
1, 43295, Note_on_c, 1, 48, 0
1, 43296, Note_on_c, 1, 56, 75
1, 43296, Note_on_c, 1, 51, 75
1, 43296, Note_on_c, 1, 48, 75
1, 43333, Note_on_c, 0, 66, 0
1, 43343, Note_on_c, 1, 56, 0
1, 43343, Note_on_c, 1, 51, 0
1, 43343, Note_on_c, 1, 48, 0
1, 43344, Note_on_c, 0, 72, 84
1, 43344, Note_on_c, 1, 56, 75
1, 43344, Note_on_c, 1, 51, 75
1, 43344, Note_on_c, 1, 48, 75
1, 43356, Note_on_c, 0, 72, 0
1, 43356, Note_on_c, 0, 70, 84
1, 43368, Note_on_c, 0, 70, 0
1, 43368, Note_on_c, 0, 68, 84
1, 43380, Note_on_c, 0, 68, 0
1, 43380, Note_on_c, 0, 66, 84
1, 43391, Note_on_c, 1, 56, 0
1, 43391, Note_on_c, 1, 51, 0
1, 43391, Note_on_c, 1, 48, 0
1, 43392, Note_on_c, 0, 66, 0
1, 43392, Note_on_c, 0, 66, 84
1, 43440, Note_on_c, 1, 56, 75
1, 43440, Note_on_c, 1, 49, 75
1, 43487, Note_on_c, 1, 56, 0
1, 43487, Note_on_c, 1, 49, 0
1, 43488, Note_on_c, 0, 66, 0
1, 43488, Note_on_c, 0, 65, 84
1, 43488, Note_on_c, 1, 56, 75
1, 43488, Note_on_c, 1, 49, 75
1, 43494, Note_on_c, 0, 65, 0
1, 43494, Note_on_c, 0, 67, 84
1, 43500, Note_on_c, 0, 67, 0
1, 43500, Note_on_c, 0, 65, 84
1, 43535, Note_on_c, 1, 56, 0
1, 43535, Note_on_c, 1, 49, 0
1, 43536, Note_on_c, 1, 56, 75
1, 43536, Note_on_c, 1, 49, 75
1, 43557, Note_on_c, 0, 65, 0
1, 43560, Note_on_c, 0, 66, 84
1, 43583, Note_on_c, 0, 66, 0
1, 43583, Note_on_c, 1, 56, 0
1, 43583, Note_on_c, 1, 49, 0
1, 43584, Note_on_c, 0, 65, 84
1, 43632, Note_on_c, 1, 53, 75
1, 43632, Note_on_c, 1, 45, 75
1, 43651, Note_on_c, 0, 65, 0
1, 43656, Note_on_c, 0, 63, 84
1, 43679, Note_on_c, 0, 63, 0
1, 43679, Note_on_c, 1, 53, 0
1, 43679, Note_on_c, 1, 45, 0
1, 43680, Note_on_c, 0, 65, 84
1, 43680, Note_on_c, 1, 53, 75
1, 43680, Note_on_c, 1, 45, 75
1, 43688, Note_on_c, 0, 65, 0
1, 43688, Note_on_c, 0, 63, 84
1, 43696, Note_on_c, 0, 63, 0
1, 43696, Note_on_c, 0, 65, 84
1, 43704, Note_on_c, 0, 65, 0
1, 43704, Note_on_c, 0, 63, 84
1, 43712, Note_on_c, 0, 63, 0
1, 43712, Note_on_c, 0, 61, 84
1, 43720, Note_on_c, 0, 61, 0
1, 43720, Note_on_c, 0, 63, 84
1, 43727, Note_on_c, 1, 53, 0
1, 43727, Note_on_c, 1, 45, 0
1, 43728, Note_on_c, 0, 63, 0
1, 43728, Note_on_c, 0, 72, 84
1, 43728, Note_on_c, 1, 53, 75
1, 43728, Note_on_c, 1, 45, 75
1, 43762, Note_on_c, 0, 72, 0
1, 43764, Note_on_c, 0, 63, 84
1, 43775, Note_on_c, 1, 53, 0
1, 43775, Note_on_c, 1, 45, 0
1, 43776, Note_on_c, 0, 63, 0
1, 43776, Note_on_c, 0, 63, 84
1, 43824, Note_on_c, 1, 53, 75
1, 43824, Note_on_c, 1, 46, 75
1, 43871, Note_on_c, 1, 53, 0
1, 43871, Note_on_c, 1, 46, 0
1, 43872, Note_on_c, 0, 63, 0
1, 43872, Note_on_c, 0, 61, 84
1, 43872, Note_on_c, 1, 53, 75
1, 43872, Note_on_c, 1, 46, 75
1, 43878, Note_on_c, 0, 61, 0
1, 43878, Note_on_c, 0, 63, 84
1, 43884, Note_on_c, 0, 63, 0
1, 43884, Note_on_c, 0, 61, 84
1, 43919, Note_on_c, 1, 53, 0
1, 43919, Note_on_c, 1, 46, 0
1, 43920, Note_on_c, 1, 53, 75
1, 43920, Note_on_c, 1, 46, 75
1, 43941, Note_on_c, 0, 61, 0
1, 43944, Note_on_c, 0, 65, 84
1, 43967, Note_on_c, 0, 65, 0
1, 43967, Note_on_c, 1, 53, 0
1, 43967, Note_on_c, 1, 46, 0
1, 43968, Note_on_c, 0, 65, 84
1, 44016, Note_on_c, 1, 51, 75
1, 44016, Note_on_c, 1, 43, 75
1, 44063, Note_on_c, 1, 51, 0
1, 44063, Note_on_c, 1, 43, 0
1, 44064, Note_on_c, 0, 65, 0
1, 44064, Note_on_c, 0, 63, 84
1, 44064, Note_on_c, 1, 51, 75
1, 44064, Note_on_c, 1, 43, 75
1, 44098, Note_on_c, 0, 63, 0
1, 44100, Note_on_c, 0, 61, 84
1, 44111, Note_on_c, 1, 51, 0
1, 44111, Note_on_c, 1, 43, 0
1, 44112, Note_on_c, 0, 61, 0
1, 44112, Note_on_c, 0, 70, 84
1, 44112, Note_on_c, 1, 51, 75
1, 44112, Note_on_c, 1, 43, 75
1, 44146, Note_on_c, 0, 70, 0
1, 44148, Note_on_c, 0, 61, 84
1, 44159, Note_on_c, 1, 51, 0
1, 44159, Note_on_c, 1, 43, 0
1, 44160, Note_on_c, 0, 61, 0
1, 44160, Note_on_c, 0, 60, 84
1, 44166, Note_on_c, 0, 60, 0
1, 44166, Note_on_c, 0, 68, 84
1, 44208, Note_on_c, 1, 60, 69
1, 44208, Note_on_c, 1, 56, 69
1, 44255, Note_on_c, 1, 60, 0
1, 44255, Note_on_c, 1, 56, 0
1, 44256, Note_on_c, 1, 60, 69
1, 44256, Note_on_c, 1, 56, 69
1, 44303, Note_on_c, 1, 60, 0
1, 44303, Note_on_c, 1, 56, 0
1, 44304, Note_on_c, 1, 60, 69
1, 44304, Note_on_c, 1, 56, 69
1, 44337, Note_on_c, 0, 68, 0
1, 44351, Note_on_c, 1, 60, 0
1, 44351, Note_on_c, 1, 56, 0
1, 44352, Note_on_c, 0, 77, 84
1, 44358, Note_on_c, 0, 77, 0
1, 44358, Note_on_c, 0, 75, 84
1, 44400, Note_on_c, 1, 58, 69
1, 44400, Note_on_c, 1, 55, 69
1, 44447, Note_on_c, 1, 58, 0
1, 44447, Note_on_c, 1, 55, 0
1, 44448, Note_on_c, 1, 58, 69
1, 44448, Note_on_c, 1, 55, 69
1, 44495, Note_on_c, 1, 58, 0
1, 44495, Note_on_c, 1, 55, 0
1, 44496, Note_on_c, 1, 58, 69
1, 44496, Note_on_c, 1, 55, 69
1, 44515, Note_on_c, 0, 75, 0
1, 44520, Note_on_c, 0, 73, 84
1, 44543, Note_on_c, 0, 73, 0
1, 44543, Note_on_c, 1, 58, 0
1, 44543, Note_on_c, 1, 55, 0
1, 44544, Note_on_c, 0, 73, 84
1, 44592, Note_on_c, 1, 63, 69
1, 44592, Note_on_c, 1, 56, 69
1, 44639, Note_on_c, 1, 63, 0
1, 44639, Note_on_c, 1, 56, 0
1, 44640, Note_on_c, 0, 73, 0
1, 44640, Note_on_c, 0, 72, 84
1, 44640, Note_on_c, 1, 63, 69
1, 44640, Note_on_c, 1, 56, 69
1, 44646, Note_on_c, 0, 72, 0
1, 44646, Note_on_c, 0, 73, 84
1, 44652, Note_on_c, 0, 73, 0
1, 44652, Note_on_c, 0, 72, 84
1, 44687, Note_on_c, 1, 63, 0
1, 44687, Note_on_c, 1, 56, 0
1, 44688, Note_on_c, 1, 63, 69
1, 44688, Note_on_c, 1, 56, 69
1, 44709, Note_on_c, 0, 72, 0
1, 44712, Note_on_c, 0, 73, 84
1, 44735, Note_on_c, 0, 73, 0
1, 44735, Note_on_c, 1, 63, 0
1, 44735, Note_on_c, 1, 56, 0
1, 44736, Note_on_c, 0, 72, 84
1, 44784, Note_on_c, 1, 65, 69
1, 44784, Note_on_c, 1, 61, 69
1, 44831, Note_on_c, 1, 65, 0
1, 44831, Note_on_c, 1, 61, 0
1, 44832, Note_on_c, 0, 72, 0
1, 44832, Note_on_c, 0, 70, 84
1, 44832, Note_on_c, 1, 65, 69
1, 44832, Note_on_c, 1, 61, 69
1, 44838, Note_on_c, 0, 70, 0
1, 44838, Note_on_c, 0, 72, 84
1, 44844, Note_on_c, 0, 72, 0
1, 44844, Note_on_c, 0, 70, 84
1, 44879, Note_on_c, 1, 65, 0
1, 44879, Note_on_c, 1, 61, 0
1, 44880, Note_on_c, 1, 65, 69
1, 44880, Note_on_c, 1, 61, 69
1, 44901, Note_on_c, 0, 70, 0
1, 44904, Note_on_c, 0, 72, 84
1, 44927, Note_on_c, 0, 72, 0
1, 44927, Note_on_c, 1, 65, 0
1, 44927, Note_on_c, 1, 61, 0
1, 44928, Note_on_c, 0, 70, 84
1, 44976, Note_on_c, 1, 63, 69
1, 44976, Note_on_c, 1, 60, 69
1, 45023, Note_on_c, 1, 63, 0
1, 45023, Note_on_c, 1, 60, 0
1, 45024, Note_on_c, 0, 70, 0
1, 45024, Note_on_c, 0, 68, 84
1, 45024, Note_on_c, 1, 63, 69
1, 45024, Note_on_c, 1, 60, 69
1, 45030, Note_on_c, 0, 68, 0
1, 45030, Note_on_c, 0, 70, 84
1, 45036, Note_on_c, 0, 70, 0
1, 45036, Note_on_c, 0, 68, 84
1, 45058, Note_on_c, 0, 68, 0
1, 45060, Note_on_c, 0, 67, 84
1, 45071, Note_on_c, 1, 63, 0
1, 45071, Note_on_c, 1, 60, 0
1, 45072, Note_on_c, 0, 67, 0
1, 45072, Note_on_c, 0, 68, 84
1, 45072, Note_on_c, 1, 63, 69
1, 45072, Note_on_c, 1, 60, 69
1, 45106, Note_on_c, 0, 68, 0
1, 45108, Note_on_c, 0, 70, 84
1, 45119, Note_on_c, 1, 63, 0
1, 45119, Note_on_c, 1, 60, 0
1, 45120, Note_on_c, 0, 70, 0
1, 45120, Note_on_c, 0, 68, 84
1, 45120, Note_on_c, 1, 63, 69
1, 45120, Note_on_c, 1, 60, 69
1, 45228, Note_on_c, 0, 68, 0
1, 45228, Note_on_c, 1, 63, 0
1, 45228, Note_on_c, 1, 60, 0
1, 45312, Note_on_c, 0, 80, 84
1, 45327, Note_on_c, 0, 80, 0
1, 45328, Note_on_c, 0, 84, 84
1, 45343, Note_on_c, 0, 84, 0
1, 45344, Note_on_c, 0, 82, 84
1, 45359, Note_on_c, 0, 82, 0
1, 45360, Note_on_c, 0, 80, 84
1, 45375, Note_on_c, 0, 80, 0
1, 45376, Note_on_c, 0, 79, 84
1, 45391, Note_on_c, 0, 79, 0
1, 45392, Note_on_c, 0, 77, 84
1, 45407, Note_on_c, 0, 77, 0
1, 45408, Note_on_c, 0, 75, 84
1, 45423, Note_on_c, 0, 75, 0
1, 45424, Note_on_c, 0, 73, 84
1, 45439, Note_on_c, 0, 73, 0
1, 45440, Note_on_c, 0, 72, 84
1, 45455, Note_on_c, 0, 72, 0
1, 45456, Note_on_c, 0, 70, 84
1, 45471, Note_on_c, 0, 70, 0
1, 45472, Note_on_c, 0, 68, 84
1, 45487, Note_on_c, 0, 68, 0
1, 45488, Note_on_c, 0, 67, 84
1, 45503, Note_on_c, 0, 67, 0
1, 45504, Note_on_c, 0, 65, 84
1, 45552, Note_on_c, 1, 56, 69
1, 45552, Note_on_c, 1, 49, 69
1, 45599, Note_on_c, 1, 56, 0
1, 45599, Note_on_c, 1, 49, 0
1, 45600, Note_on_c, 1, 56, 69
1, 45600, Note_on_c, 1, 49, 69
1, 45647, Note_on_c, 1, 56, 0
1, 45647, Note_on_c, 1, 49, 0
1, 45648, Note_on_c, 1, 56, 69
1, 45648, Note_on_c, 1, 49, 69
1, 45667, Note_on_c, 0, 65, 0
1, 45672, Note_on_c, 0, 67, 84
1, 45695, Note_on_c, 0, 67, 0
1, 45695, Note_on_c, 1, 56, 0
1, 45695, Note_on_c, 1, 49, 0
1, 45696, Note_on_c, 0, 67, 84
1, 45744, Note_on_c, 1, 51, 69
1, 45744, Note_on_c, 1, 48, 69
1, 45791, Note_on_c, 1, 51, 0
1, 45791, Note_on_c, 1, 48, 0
1, 45792, Note_on_c, 0, 67, 0
1, 45792, Note_on_c, 0, 68, 84
1, 45792, Note_on_c, 1, 51, 69
1, 45792, Note_on_c, 1, 48, 69
1, 45807, Note_on_c, 0, 68, 0
1, 45808, Note_on_c, 0, 72, 84
1, 45823, Note_on_c, 0, 72, 0
1, 45824, Note_on_c, 0, 70, 84
1, 45839, Note_on_c, 0, 70, 0
1, 45839, Note_on_c, 1, 51, 0
1, 45839, Note_on_c, 1, 48, 0
1, 45840, Note_on_c, 0, 68, 84
1, 45840, Note_on_c, 1, 53, 69
1, 45840, Note_on_c, 1, 49, 69
1, 45855, Note_on_c, 0, 68, 0
1, 45856, Note_on_c, 0, 67, 84
1, 45871, Note_on_c, 0, 67, 0
1, 45872, Note_on_c, 0, 65, 84
1, 45887, Note_on_c, 0, 65, 0
1, 45887, Note_on_c, 1, 53, 0
1, 45887, Note_on_c, 1, 49, 0
1, 45888, Note_on_c, 0, 63, 84
1, 45936, Note_on_c, 1, 60, 69
1, 45936, Note_on_c, 1, 51, 69
1, 45955, Note_on_c, 0, 63, 0
1, 45960, Note_on_c, 0, 60, 84
1, 45972, Note_on_c, 0, 60, 0
1, 45972, Note_on_c, 0, 61, 84
1, 45983, Note_on_c, 1, 60, 0
1, 45983, Note_on_c, 1, 51, 0
1, 45984, Note_on_c, 0, 61, 0
1, 45984, Note_on_c, 0, 63, 84
1, 45984, Note_on_c, 1, 58, 69
1, 45984, Note_on_c, 1, 51, 69
1, 45992, Note_on_c, 0, 63, 0
1, 45992, Note_on_c, 0, 61, 84
1, 46000, Note_on_c, 0, 61, 0
1, 46000, Note_on_c, 0, 63, 84
1, 46008, Note_on_c, 0, 63, 0
1, 46008, Note_on_c, 0, 61, 84
1, 46016, Note_on_c, 0, 61, 0
1, 46016, Note_on_c, 0, 63, 84
1, 46024, Note_on_c, 0, 63, 0
1, 46024, Note_on_c, 0, 61, 84
1, 46031, Note_on_c, 1, 58, 0
1, 46031, Note_on_c, 1, 51, 0
1, 46032, Note_on_c, 0, 61, 0
1, 46032, Note_on_c, 0, 63, 84
1, 46032, Note_on_c, 1, 58, 69
1, 46032, Note_on_c, 1, 51, 69
1, 46040, Note_on_c, 0, 63, 0
1, 46040, Note_on_c, 0, 61, 84
1, 46048, Note_on_c, 0, 61, 0
1, 46048, Note_on_c, 0, 60, 84
1, 46064, Note_on_c, 0, 60, 0
1, 46064, Note_on_c, 0, 61, 84
1, 46079, Note_on_c, 1, 58, 0
1, 46079, Note_on_c, 1, 51, 0
1, 46080, Note_on_c, 0, 61, 0
1, 46080, Note_on_c, 0, 61, 84
1, 46080, Note_on_c, 0, 58, 84
1, 46128, Note_on_c, 1, 56, 69
1, 46128, Note_on_c, 1, 44, 69
1, 46175, Note_on_c, 1, 56, 0
1, 46175, Note_on_c, 1, 44, 0
1, 46176, Note_on_c, 0, 61, 0
1, 46176, Note_on_c, 0, 58, 0
1, 46176, Note_on_c, 0, 60, 84
1, 46176, Note_on_c, 0, 56, 84
1, 46176, Note_on_c, 1, 51, 69
1, 46176, Note_on_c, 1, 44, 69
1, 46223, Note_on_c, 1, 51, 0
1, 46223, Note_on_c, 1, 44, 0
1, 46224, Note_on_c, 1, 51, 69
1, 46224, Note_on_c, 1, 44, 69
1, 46265, Note_on_c, 0, 60, 0
1, 46265, Note_on_c, 0, 56, 0
1, 46271, Note_on_c, 1, 51, 0
1, 46271, Note_on_c, 1, 44, 0
1, 46272, Note_on_c, 0, 68, 69
1, 46278, Note_on_c, 0, 68, 0
1, 46278, Note_on_c, 0, 67, 69
1, 46284, Note_on_c, 0, 67, 0
1, 46284, Note_on_c, 0, 68, 69
1, 46320, Note_on_c, 1, 59, 61
1, 46320, Note_on_c, 1, 56, 61
1, 46367, Note_on_c, 1, 59, 0
1, 46367, Note_on_c, 1, 56, 0
1, 46368, Note_on_c, 1, 59, 61
1, 46368, Note_on_c, 1, 56, 61
1, 46415, Note_on_c, 1, 59, 0
1, 46415, Note_on_c, 1, 56, 0
1, 46416, Note_on_c, 1, 59, 61
1, 46416, Note_on_c, 1, 56, 61
1, 46451, Note_on_c, 0, 68, 0
1, 46463, Note_on_c, 1, 59, 0
1, 46463, Note_on_c, 1, 56, 0
1, 46464, Note_on_c, 0, 75, 69
1, 46512, Note_on_c, 1, 58, 61
1, 46512, Note_on_c, 1, 55, 61
1, 46559, Note_on_c, 1, 58, 0
1, 46559, Note_on_c, 1, 55, 0
1, 46560, Note_on_c, 1, 58, 61
1, 46560, Note_on_c, 1, 55, 61
1, 46607, Note_on_c, 1, 58, 0
1, 46607, Note_on_c, 1, 55, 0
1, 46608, Note_on_c, 1, 58, 61
1, 46608, Note_on_c, 1, 55, 61
1, 46627, Note_on_c, 0, 75, 0
1, 46632, Note_on_c, 0, 73, 69
1, 46655, Note_on_c, 0, 73, 0
1, 46655, Note_on_c, 1, 58, 0
1, 46655, Note_on_c, 1, 55, 0
1, 46656, Note_on_c, 0, 73, 69
1, 46704, Note_on_c, 1, 63, 61
1, 46704, Note_on_c, 1, 56, 61
1, 46751, Note_on_c, 1, 63, 0
1, 46751, Note_on_c, 1, 56, 0
1, 46752, Note_on_c, 0, 73, 0
1, 46752, Note_on_c, 0, 71, 69
1, 46752, Note_on_c, 1, 63, 61
1, 46752, Note_on_c, 1, 56, 61
1, 46797, Note_on_c, 0, 71, 0
1, 46799, Note_on_c, 1, 63, 0
1, 46799, Note_on_c, 1, 56, 0
1, 46800, Note_on_c, 0, 63, 69
1, 46800, Note_on_c, 1, 59, 61
1, 46800, Note_on_c, 1, 56, 61
1, 46845, Note_on_c, 0, 63, 0
1, 46847, Note_on_c, 1, 59, 0
1, 46847, Note_on_c, 1, 56, 0
1, 46848, Note_on_c, 0, 64, 69
1, 46896, Note_on_c, 1, 59, 61
1, 46896, Note_on_c, 1, 56, 61
1, 46943, Note_on_c, 1, 59, 0
1, 46943, Note_on_c, 1, 56, 0
1, 46944, Note_on_c, 1, 59, 61
1, 46944, Note_on_c, 1, 56, 61
1, 46989, Note_on_c, 0, 64, 0
1, 46991, Note_on_c, 1, 59, 0
1, 46991, Note_on_c, 1, 56, 0
1, 46992, Note_on_c, 0, 68, 69
1, 46992, Note_on_c, 1, 59, 61
1, 46992, Note_on_c, 1, 56, 61
1, 47026, Note_on_c, 0, 68, 0
1, 47028, Note_on_c, 0, 64, 69
1, 47039, Note_on_c, 1, 59, 0
1, 47039, Note_on_c, 1, 56, 0
1, 47040, Note_on_c, 0, 64, 0
1, 47040, Note_on_c, 0, 64, 69
1, 47088, Note_on_c, 1, 58, 61
1, 47088, Note_on_c, 1, 54, 61
1, 47135, Note_on_c, 1, 58, 0
1, 47135, Note_on_c, 1, 54, 0
1, 47136, Note_on_c, 0, 64, 0
1, 47136, Note_on_c, 0, 63, 69
1, 47136, Note_on_c, 1, 58, 61
1, 47136, Note_on_c, 1, 54, 61
1, 47142, Note_on_c, 0, 63, 0
1, 47142, Note_on_c, 0, 65, 69
1, 47148, Note_on_c, 0, 65, 0
1, 47148, Note_on_c, 0, 63, 69
1, 47183, Note_on_c, 1, 58, 0
1, 47183, Note_on_c, 1, 54, 0
1, 47184, Note_on_c, 1, 58, 61
1, 47184, Note_on_c, 1, 54, 61
1, 47205, Note_on_c, 0, 63, 0
1, 47208, Note_on_c, 0, 63, 69
1, 47231, Note_on_c, 0, 63, 0
1, 47231, Note_on_c, 1, 58, 0
1, 47231, Note_on_c, 1, 54, 0
1, 47232, Note_on_c, 0, 68, 69
1, 47280, Note_on_c, 1, 56, 61
1, 47280, Note_on_c, 1, 52, 61
1, 47321, Note_on_c, 0, 68, 0
1, 47327, Note_on_c, 1, 56, 0
1, 47327, Note_on_c, 1, 52, 0
1, 47328, Note_on_c, 0, 66, 69
1, 47328, Note_on_c, 1, 56, 61
1, 47328, Note_on_c, 1, 52, 61
1, 47351, Note_on_c, 0, 66, 0
1, 47352, Note_on_c, 0, 64, 69
1, 47375, Note_on_c, 0, 64, 0
1, 47375, Note_on_c, 1, 56, 0
1, 47375, Note_on_c, 1, 52, 0
1, 47376, Note_on_c, 0, 63, 69
1, 47376, Note_on_c, 1, 56, 61
1, 47376, Note_on_c, 1, 52, 61
1, 47399, Note_on_c, 0, 63, 0
1, 47400, Note_on_c, 0, 62, 69
1, 47423, Note_on_c, 0, 62, 0
1, 47423, Note_on_c, 1, 56, 0
1, 47423, Note_on_c, 1, 52, 0
1, 47424, Note_on_c, 0, 62, 69
1, 47472, Note_on_c, 1, 55, 61
1, 47472, Note_on_c, 1, 51, 61
1, 47519, Note_on_c, 1, 55, 0
1, 47519, Note_on_c, 1, 51, 0
1, 47520, Note_on_c, 0, 62, 0
1, 47520, Note_on_c, 0, 63, 69
1, 47520, Note_on_c, 1, 55, 61
1, 47520, Note_on_c, 1, 51, 61
1, 47567, Note_on_c, 1, 55, 0
1, 47567, Note_on_c, 1, 51, 0
1, 47568, Note_on_c, 1, 55, 61
1, 47568, Note_on_c, 1, 51, 61
1, 47609, Note_on_c, 0, 63, 0
1, 47615, Note_on_c, 1, 55, 0
1, 47615, Note_on_c, 1, 51, 0
1, 47616, Note_on_c, 1, 61, 75
1, 47616, Note_on_c, 1, 58, 75
1, 47616, Note_on_c, 1, 51, 75
1, 47632, Note_on_c, 0, 79, 75
1, 47647, Note_on_c, 0, 79, 0
1, 47648, Note_on_c, 0, 80, 75
1, 47663, Note_on_c, 0, 80, 0
1, 47664, Note_on_c, 0, 82, 75
1, 47679, Note_on_c, 0, 82, 0
1, 47680, Note_on_c, 0, 80, 75
1, 47695, Note_on_c, 0, 80, 0
1, 47696, Note_on_c, 0, 79, 75
1, 47705, Note_on_c, 1, 61, 0
1, 47705, Note_on_c, 1, 58, 0
1, 47705, Note_on_c, 1, 51, 0
1, 47711, Note_on_c, 0, 79, 0
1, 47712, Note_on_c, 1, 60, 75
1, 47712, Note_on_c, 1, 56, 75
1, 47712, Note_on_c, 1, 51, 75
1, 47728, Note_on_c, 0, 80, 75
1, 47743, Note_on_c, 0, 80, 0
1, 47744, Note_on_c, 0, 82, 75
1, 47759, Note_on_c, 0, 82, 0
1, 47760, Note_on_c, 0, 84, 75
1, 47775, Note_on_c, 0, 84, 0
1, 47776, Note_on_c, 0, 82, 75
1, 47791, Note_on_c, 0, 82, 0
1, 47792, Note_on_c, 0, 80, 75
1, 47801, Note_on_c, 1, 60, 0
1, 47801, Note_on_c, 1, 56, 0
1, 47801, Note_on_c, 1, 51, 0
1, 47807, Note_on_c, 0, 80, 0
1, 47808, Note_on_c, 0, 82, 75
1, 47808, Note_on_c, 1, 58, 75
1, 47808, Note_on_c, 1, 55, 75
1, 47808, Note_on_c, 1, 51, 75
1, 47823, Note_on_c, 0, 82, 0
1, 47824, Note_on_c, 0, 85, 75
1, 47839, Note_on_c, 0, 85, 0
1, 47840, Note_on_c, 0, 84, 75
1, 47855, Note_on_c, 0, 84, 0
1, 47856, Note_on_c, 0, 82, 75
1, 47871, Note_on_c, 0, 82, 0
1, 47872, Note_on_c, 0, 80, 75
1, 47887, Note_on_c, 0, 80, 0
1, 47888, Note_on_c, 0, 79, 75
1, 47897, Note_on_c, 1, 58, 0
1, 47897, Note_on_c, 1, 55, 0
1, 47897, Note_on_c, 1, 51, 0
1, 47903, Note_on_c, 0, 79, 0
1, 47904, Note_on_c, 0, 77, 75
1, 47919, Note_on_c, 0, 77, 0
1, 47920, Note_on_c, 0, 75, 75
1, 47935, Note_on_c, 0, 75, 0
1, 47936, Note_on_c, 0, 73, 75
1, 47951, Note_on_c, 0, 73, 0
1, 47952, Note_on_c, 0, 72, 75
1, 47967, Note_on_c, 0, 72, 0
1, 47968, Note_on_c, 0, 70, 75
1, 47983, Note_on_c, 0, 70, 0
1, 47984, Note_on_c, 0, 68, 75
1, 47999, Note_on_c, 0, 68, 0
1, 48000, Note_on_c, 1, 61, 75
1, 48000, Note_on_c, 1, 58, 75
1, 48000, Note_on_c, 1, 51, 75
1, 48016, Note_on_c, 0, 67, 75
1, 48031, Note_on_c, 0, 67, 0
1, 48032, Note_on_c, 0, 68, 75
1, 48047, Note_on_c, 0, 68, 0
1, 48048, Note_on_c, 0, 70, 75
1, 48063, Note_on_c, 0, 70, 0
1, 48064, Note_on_c, 0, 68, 75
1, 48079, Note_on_c, 0, 68, 0
1, 48080, Note_on_c, 0, 67, 75
1, 48089, Note_on_c, 1, 61, 0
1, 48089, Note_on_c, 1, 58, 0
1, 48089, Note_on_c, 1, 51, 0
1, 48095, Note_on_c, 0, 67, 0
1, 48096, Note_on_c, 1, 60, 75
1, 48096, Note_on_c, 1, 56, 75
1, 48096, Note_on_c, 1, 51, 75
1, 48112, Note_on_c, 0, 68, 75
1, 48127, Note_on_c, 0, 68, 0
1, 48128, Note_on_c, 0, 70, 75
1, 48143, Note_on_c, 0, 70, 0
1, 48144, Note_on_c, 0, 72, 75
1, 48159, Note_on_c, 0, 72, 0
1, 48160, Note_on_c, 0, 70, 75
1, 48175, Note_on_c, 0, 70, 0
1, 48176, Note_on_c, 0, 68, 75
1, 48185, Note_on_c, 1, 60, 0
1, 48185, Note_on_c, 1, 56, 0
1, 48185, Note_on_c, 1, 51, 0
1, 48191, Note_on_c, 0, 68, 0
1, 48192, Note_on_c, 0, 70, 75
1, 48192, Note_on_c, 1, 58, 75
1, 48192, Note_on_c, 1, 55, 75
1, 48192, Note_on_c, 1, 51, 75
1, 48207, Note_on_c, 0, 70, 0
1, 48208, Note_on_c, 0, 73, 75
1, 48223, Note_on_c, 0, 73, 0
1, 48224, Note_on_c, 0, 72, 75
1, 48239, Note_on_c, 0, 72, 0
1, 48240, Note_on_c, 0, 70, 75
1, 48255, Note_on_c, 0, 70, 0
1, 48256, Note_on_c, 0, 68, 75
1, 48271, Note_on_c, 0, 68, 0
1, 48272, Note_on_c, 0, 67, 75
1, 48281, Note_on_c, 1, 58, 0
1, 48281, Note_on_c, 1, 55, 0
1, 48281, Note_on_c, 1, 51, 0
1, 48287, Note_on_c, 0, 67, 0
1, 48288, Note_on_c, 0, 65, 75
1, 48303, Note_on_c, 0, 65, 0
1, 48304, Note_on_c, 0, 63, 75
1, 48319, Note_on_c, 0, 63, 0
1, 48320, Note_on_c, 0, 61, 75
1, 48335, Note_on_c, 0, 61, 0
1, 48336, Note_on_c, 0, 60, 75
1, 48351, Note_on_c, 0, 60, 0
1, 48352, Note_on_c, 0, 58, 75
1, 48367, Note_on_c, 0, 58, 0
1, 48368, Note_on_c, 0, 56, 75
1, 48383, Note_on_c, 0, 56, 0
1, 48384, Note_on_c, 1, 51, 84
1, 48400, Note_on_c, 0, 55, 84
1, 48404, Note_on_c, 1, 51, 0
1, 48415, Note_on_c, 0, 55, 0
1, 48416, Note_on_c, 0, 58, 84
1, 48431, Note_on_c, 0, 58, 0
1, 48432, Note_on_c, 1, 51, 84
1, 48448, Note_on_c, 0, 53, 84
1, 48452, Note_on_c, 1, 51, 0
1, 48463, Note_on_c, 0, 53, 0
1, 48464, Note_on_c, 0, 56, 84
1, 48479, Note_on_c, 0, 56, 0
1, 48480, Note_on_c, 1, 51, 84
1, 48496, Note_on_c, 0, 55, 84
1, 48500, Note_on_c, 1, 51, 0
1, 48511, Note_on_c, 0, 55, 0
1, 48512, Note_on_c, 0, 58, 84
1, 48527, Note_on_c, 0, 58, 0
1, 48528, Note_on_c, 1, 51, 84
1, 48544, Note_on_c, 0, 56, 84
1, 48548, Note_on_c, 1, 51, 0
1, 48559, Note_on_c, 0, 56, 0
1, 48560, Note_on_c, 0, 60, 84
1, 48575, Note_on_c, 0, 60, 0
1, 48576, Note_on_c, 1, 51, 84
1, 48592, Note_on_c, 0, 58, 84
1, 48596, Note_on_c, 1, 51, 0
1, 48607, Note_on_c, 0, 58, 0
1, 48608, Note_on_c, 0, 61, 84
1, 48623, Note_on_c, 0, 61, 0
1, 48624, Note_on_c, 1, 51, 84
1, 48640, Note_on_c, 0, 55, 84
1, 48644, Note_on_c, 1, 51, 0
1, 48655, Note_on_c, 0, 55, 0
1, 48656, Note_on_c, 0, 58, 84
1, 48671, Note_on_c, 0, 58, 0
1, 48672, Note_on_c, 1, 51, 84
1, 48688, Note_on_c, 0, 56, 84
1, 48692, Note_on_c, 1, 51, 0
1, 48703, Note_on_c, 0, 56, 0
1, 48704, Note_on_c, 0, 60, 84
1, 48719, Note_on_c, 0, 60, 0
1, 48720, Note_on_c, 1, 51, 84
1, 48736, Note_on_c, 0, 60, 84
1, 48740, Note_on_c, 1, 51, 0
1, 48751, Note_on_c, 0, 60, 0
1, 48752, Note_on_c, 0, 63, 84
1, 48767, Note_on_c, 0, 63, 0
1, 48768, Note_on_c, 1, 51, 84
1, 48784, Note_on_c, 0, 51, 84
1, 48788, Note_on_c, 1, 51, 0
1, 48799, Note_on_c, 0, 51, 0
1, 48800, Note_on_c, 0, 55, 84
1, 48815, Note_on_c, 0, 55, 0
1, 48816, Note_on_c, 1, 51, 84
1, 48832, Note_on_c, 0, 53, 84
1, 48836, Note_on_c, 1, 51, 0
1, 48847, Note_on_c, 0, 53, 0
1, 48848, Note_on_c, 0, 56, 84
1, 48863, Note_on_c, 0, 56, 0
1, 48864, Note_on_c, 1, 51, 84
1, 48880, Note_on_c, 0, 55, 84
1, 48884, Note_on_c, 1, 51, 0
1, 48895, Note_on_c, 0, 55, 0
1, 48896, Note_on_c, 0, 58, 84
1, 48911, Note_on_c, 0, 58, 0
1, 48912, Note_on_c, 1, 51, 84
1, 48928, Note_on_c, 0, 56, 84
1, 48932, Note_on_c, 1, 51, 0
1, 48943, Note_on_c, 0, 56, 0
1, 48944, Note_on_c, 0, 60, 84
1, 48959, Note_on_c, 0, 60, 0
1, 48960, Note_on_c, 1, 51, 84
1, 48976, Note_on_c, 0, 58, 84
1, 48980, Note_on_c, 1, 51, 0
1, 48991, Note_on_c, 0, 58, 0
1, 48992, Note_on_c, 0, 61, 84
1, 49007, Note_on_c, 0, 61, 0
1, 49008, Note_on_c, 1, 51, 84
1, 49024, Note_on_c, 0, 55, 84
1, 49028, Note_on_c, 1, 51, 0
1, 49039, Note_on_c, 0, 55, 0
1, 49040, Note_on_c, 0, 58, 84
1, 49055, Note_on_c, 0, 58, 0
1, 49056, Note_on_c, 1, 51, 84
1, 49072, Note_on_c, 0, 56, 84
1, 49076, Note_on_c, 1, 51, 0
1, 49087, Note_on_c, 0, 56, 0
1, 49088, Note_on_c, 0, 60, 84
1, 49103, Note_on_c, 0, 60, 0
1, 49104, Note_on_c, 1, 51, 84
1, 49120, Note_on_c, 0, 60, 84
1, 49124, Note_on_c, 1, 51, 0
1, 49135, Note_on_c, 0, 60, 0
1, 49136, Note_on_c, 0, 62, 84
1, 49151, Note_on_c, 0, 62, 0
1, 49152, Note_on_c, 0, 63, 84
1, 49152, Note_on_c, 0, 55, 84
1, 49152, Note_on_c, 1, 51, 84
1, 49337, Note_on_c, 0, 63, 0
1, 49337, Note_on_c, 0, 55, 0
1, 49337, Note_on_c, 1, 51, 0
1, 49536, Note_on_c, 0, 75, 69
1, 49536, Note_on_c, 0, 72, 69
1, 49552, Note_on_c, 1, 56, 69
1, 49567, Note_on_c, 1, 56, 0
1, 49568, Note_on_c, 1, 58, 69
1, 49583, Note_on_c, 1, 58, 0
1, 49584, Note_on_c, 1, 60, 69
1, 49599, Note_on_c, 1, 60, 0
1, 49600, Note_on_c, 1, 58, 69
1, 49615, Note_on_c, 1, 58, 0
1, 49616, Note_on_c, 1, 56, 69
1, 49625, Note_on_c, 0, 75, 0
1, 49625, Note_on_c, 0, 72, 0
1, 49631, Note_on_c, 1, 56, 0
1, 49632, Note_on_c, 0, 75, 69
1, 49632, Note_on_c, 0, 73, 69
1, 49632, Note_on_c, 1, 55, 69
1, 49647, Note_on_c, 1, 55, 0
1, 49648, Note_on_c, 1, 58, 69
1, 49663, Note_on_c, 1, 58, 0
1, 49664, Note_on_c, 1, 63, 69
1, 49679, Note_on_c, 1, 63, 0
1, 49680, Note_on_c, 1, 67, 69
1, 49695, Note_on_c, 1, 67, 0
1, 49696, Note_on_c, 1, 65, 69
1, 49711, Note_on_c, 1, 65, 0
1, 49712, Note_on_c, 1, 63, 69
1, 49721, Note_on_c, 0, 75, 0
1, 49721, Note_on_c, 0, 73, 0
1, 49727, Note_on_c, 1, 63, 0
1, 49728, Note_on_c, 0, 75, 69
1, 49728, Note_on_c, 0, 72, 69
1, 49728, Note_on_c, 1, 68, 69
1, 49743, Note_on_c, 0, 75, 0
1, 49743, Note_on_c, 0, 72, 0
1, 49744, Note_on_c, 0, 72, 69
1, 49759, Note_on_c, 0, 72, 0
1, 49760, Note_on_c, 0, 73, 69
1, 49775, Note_on_c, 0, 73, 0
1, 49776, Note_on_c, 0, 75, 69
1, 49791, Note_on_c, 0, 75, 0
1, 49792, Note_on_c, 0, 73, 69
1, 49807, Note_on_c, 0, 73, 0
1, 49808, Note_on_c, 0, 72, 69
1, 49817, Note_on_c, 1, 68, 0
1, 49823, Note_on_c, 0, 72, 0
1, 49824, Note_on_c, 0, 80, 69
1, 49839, Note_on_c, 0, 80, 0
1, 49840, Note_on_c, 0, 79, 69
1, 49855, Note_on_c, 0, 79, 0
1, 49856, Note_on_c, 0, 77, 69
1, 49871, Note_on_c, 0, 77, 0
1, 49872, Note_on_c, 0, 75, 69
1, 49887, Note_on_c, 0, 75, 0
1, 49888, Note_on_c, 0, 73, 69
1, 49903, Note_on_c, 0, 73, 0
1, 49904, Note_on_c, 0, 72, 69
1, 49919, Note_on_c, 0, 72, 0
1, 49920, Note_on_c, 0, 75, 69
1, 49920, Note_on_c, 0, 72, 69
1, 49936, Note_on_c, 1, 56, 69
1, 49951, Note_on_c, 1, 56, 0
1, 49952, Note_on_c, 1, 58, 69
1, 49967, Note_on_c, 1, 58, 0
1, 49968, Note_on_c, 1, 60, 69
1, 49983, Note_on_c, 1, 60, 0
1, 49984, Note_on_c, 1, 58, 69
1, 49999, Note_on_c, 1, 58, 0
1, 50000, Note_on_c, 1, 56, 69
1, 50009, Note_on_c, 0, 75, 0
1, 50009, Note_on_c, 0, 72, 0
1, 50015, Note_on_c, 1, 56, 0
1, 50016, Note_on_c, 0, 75, 69
1, 50016, Note_on_c, 0, 73, 69
1, 50016, Note_on_c, 1, 55, 69
1, 50031, Note_on_c, 1, 55, 0
1, 50032, Note_on_c, 1, 58, 69
1, 50047, Note_on_c, 1, 58, 0
1, 50048, Note_on_c, 1, 63, 69
1, 50063, Note_on_c, 1, 63, 0
1, 50064, Note_on_c, 1, 67, 69
1, 50079, Note_on_c, 1, 67, 0
1, 50080, Note_on_c, 1, 65, 69
1, 50095, Note_on_c, 1, 65, 0
1, 50096, Note_on_c, 1, 63, 69
1, 50105, Note_on_c, 0, 75, 0
1, 50105, Note_on_c, 0, 73, 0
1, 50111, Note_on_c, 1, 63, 0
1, 50112, Note_on_c, 0, 75, 69
1, 50112, Note_on_c, 0, 72, 69
1, 50112, Note_on_c, 1, 68, 69
1, 50127, Note_on_c, 0, 75, 0
1, 50127, Note_on_c, 0, 72, 0
1, 50128, Note_on_c, 0, 72, 69
1, 50143, Note_on_c, 0, 72, 0
1, 50144, Note_on_c, 0, 73, 69
1, 50159, Note_on_c, 0, 73, 0
1, 50160, Note_on_c, 0, 75, 69
1, 50175, Note_on_c, 0, 75, 0
1, 50176, Note_on_c, 0, 73, 69
1, 50191, Note_on_c, 0, 73, 0
1, 50192, Note_on_c, 0, 72, 69
1, 50201, Note_on_c, 1, 68, 0
1, 50207, Note_on_c, 0, 72, 0
1, 50208, Note_on_c, 0, 80, 69
1, 50223, Note_on_c, 0, 80, 0
1, 50224, Note_on_c, 0, 79, 69
1, 50239, Note_on_c, 0, 79, 0
1, 50240, Note_on_c, 0, 77, 70
1, 50255, Note_on_c, 0, 77, 0
1, 50256, Note_on_c, 0, 75, 71
1, 50271, Note_on_c, 0, 75, 0
1, 50272, Note_on_c, 0, 73, 72
1, 50287, Note_on_c, 0, 73, 0
1, 50288, Note_on_c, 0, 72, 72
1, 50303, Note_on_c, 0, 72, 0
1, 50304, Note_on_c, 0, 70, 75
1, 50304, Note_on_c, 1, 58, 75
1, 50304, Note_on_c, 1, 53, 75
1, 50304, Note_on_c, 1, 49, 75
1, 50319, Note_on_c, 0, 70, 0
1, 50320, Note_on_c, 0, 82, 75
1, 50335, Note_on_c, 0, 82, 0
1, 50336, Note_on_c, 0, 84, 75
1, 50351, Note_on_c, 0, 84, 0
1, 50352, Note_on_c, 0, 85, 75
1, 50367, Note_on_c, 0, 85, 0
1, 50368, Note_on_c, 0, 84, 75
1, 50383, Note_on_c, 0, 84, 0
1, 50384, Note_on_c, 0, 82, 75
1, 50393, Note_on_c, 1, 58, 0
1, 50393, Note_on_c, 1, 53, 0
1, 50393, Note_on_c, 1, 49, 0
1, 50399, Note_on_c, 0, 82, 0
1, 50400, Note_on_c, 0, 89, 75
1, 50415, Note_on_c, 0, 89, 0
1, 50416, Note_on_c, 0, 87, 75
1, 50431, Note_on_c, 0, 87, 0
1, 50432, Note_on_c, 0, 85, 75
1, 50447, Note_on_c, 0, 85, 0
1, 50448, Note_on_c, 0, 84, 75
1, 50463, Note_on_c, 0, 84, 0
1, 50464, Note_on_c, 0, 82, 75
1, 50479, Note_on_c, 0, 82, 0
1, 50480, Note_on_c, 0, 80, 75
1, 50495, Note_on_c, 0, 80, 0
1, 50496, Note_on_c, 0, 79, 75
1, 50496, Note_on_c, 1, 61, 75
1, 50496, Note_on_c, 1, 58, 75
1, 50496, Note_on_c, 1, 51, 75
1, 50511, Note_on_c, 0, 79, 0
1, 50512, Note_on_c, 0, 82, 75
1, 50527, Note_on_c, 0, 82, 0
1, 50528, Note_on_c, 0, 80, 75
1, 50543, Note_on_c, 0, 80, 0
1, 50544, Note_on_c, 0, 79, 75
1, 50559, Note_on_c, 0, 79, 0
1, 50560, Note_on_c, 0, 77, 75
1, 50575, Note_on_c, 0, 77, 0
1, 50576, Note_on_c, 0, 75, 75
1, 50585, Note_on_c, 1, 61, 0
1, 50585, Note_on_c, 1, 58, 0
1, 50585, Note_on_c, 1, 51, 0
1, 50591, Note_on_c, 0, 75, 0
1, 50592, Note_on_c, 0, 73, 75
1, 50607, Note_on_c, 0, 73, 0
1, 50608, Note_on_c, 0, 72, 75
1, 50623, Note_on_c, 0, 72, 0
1, 50624, Note_on_c, 0, 70, 75
1, 50639, Note_on_c, 0, 70, 0
1, 50640, Note_on_c, 0, 68, 75
1, 50655, Note_on_c, 0, 68, 0
1, 50656, Note_on_c, 0, 67, 75
1, 50671, Note_on_c, 0, 67, 0
1, 50672, Note_on_c, 0, 65, 75
1, 50687, Note_on_c, 0, 65, 0
1, 50688, Note_on_c, 0, 63, 75
1, 50688, Note_on_c, 1, 61, 75
1, 50688, Note_on_c, 1, 51, 64
1, 50703, Note_on_c, 0, 63, 0
1, 50704, Note_on_c, 0, 67, 75
1, 50719, Note_on_c, 0, 67, 0
1, 50720, Note_on_c, 0, 70, 75
1, 50733, Note_on_c, 1, 61, 0
1, 50735, Note_on_c, 0, 70, 0
1, 50736, Note_on_c, 0, 63, 75
1, 50736, Note_on_c, 1, 60, 75
1, 50751, Note_on_c, 0, 63, 0
1, 50752, Note_on_c, 0, 67, 75
1, 50767, Note_on_c, 0, 67, 0
1, 50768, Note_on_c, 0, 68, 75
1, 50781, Note_on_c, 1, 60, 0
1, 50783, Note_on_c, 0, 68, 0
1, 50784, Note_on_c, 0, 61, 75
1, 50784, Note_on_c, 1, 58, 75
1, 50799, Note_on_c, 0, 61, 0
1, 50800, Note_on_c, 0, 63, 75
1, 50815, Note_on_c, 0, 63, 0
1, 50816, Note_on_c, 0, 67, 75
1, 50829, Note_on_c, 1, 58, 0
1, 50831, Note_on_c, 0, 67, 0
1, 50832, Note_on_c, 0, 60, 75
1, 50832, Note_on_c, 1, 56, 75
1, 50847, Note_on_c, 0, 60, 0
1, 50848, Note_on_c, 0, 63, 75
1, 50863, Note_on_c, 0, 63, 0
1, 50864, Note_on_c, 0, 68, 75
1, 50865, Note_on_c, 1, 51, 0
1, 50877, Note_on_c, 1, 56, 0
1, 50879, Note_on_c, 0, 68, 0
1, 50880, Note_on_c, 0, 63, 75
1, 50880, Note_on_c, 1, 61, 75
1, 50880, Note_on_c, 1, 51, 64
1, 50895, Note_on_c, 0, 63, 0
1, 50896, Note_on_c, 0, 67, 75
1, 50911, Note_on_c, 0, 67, 0
1, 50912, Note_on_c, 0, 70, 75
1, 50925, Note_on_c, 1, 61, 0
1, 50927, Note_on_c, 0, 70, 0
1, 50928, Note_on_c, 0, 63, 75
1, 50928, Note_on_c, 1, 60, 75
1, 50943, Note_on_c, 0, 63, 0
1, 50944, Note_on_c, 0, 67, 75
1, 50959, Note_on_c, 0, 67, 0
1, 50960, Note_on_c, 0, 68, 75
1, 50973, Note_on_c, 1, 60, 0
1, 50975, Note_on_c, 0, 68, 0
1, 50976, Note_on_c, 0, 61, 75
1, 50976, Note_on_c, 1, 58, 75
1, 50991, Note_on_c, 0, 61, 0
1, 50992, Note_on_c, 0, 63, 75
1, 51007, Note_on_c, 0, 63, 0
1, 51008, Note_on_c, 0, 67, 75
1, 51021, Note_on_c, 1, 58, 0
1, 51023, Note_on_c, 0, 67, 0
1, 51024, Note_on_c, 0, 60, 75
1, 51024, Note_on_c, 1, 56, 75
1, 51039, Note_on_c, 0, 60, 0
1, 51040, Note_on_c, 0, 63, 75
1, 51055, Note_on_c, 0, 63, 0
1, 51056, Note_on_c, 0, 68, 75
1, 51057, Note_on_c, 1, 51, 0
1, 51069, Note_on_c, 1, 56, 0
1, 51071, Note_on_c, 0, 68, 0
1, 51072, Note_on_c, 1, 53, 75
1, 51072, Note_on_c, 1, 49, 75
1, 51088, Note_on_c, 0, 58, 75
1, 51103, Note_on_c, 0, 58, 0
1, 51104, Note_on_c, 0, 61, 75
1, 51119, Note_on_c, 0, 61, 0
1, 51120, Note_on_c, 0, 65, 75
1, 51135, Note_on_c, 0, 65, 0
1, 51136, Note_on_c, 0, 58, 75
1, 51151, Note_on_c, 0, 58, 0
1, 51152, Note_on_c, 0, 61, 75
1, 51167, Note_on_c, 0, 61, 0
1, 51168, Note_on_c, 0, 65, 75
1, 51183, Note_on_c, 0, 65, 0
1, 51184, Note_on_c, 0, 65, 75
1, 51199, Note_on_c, 0, 65, 0
1, 51200, Note_on_c, 0, 70, 75
1, 51215, Note_on_c, 0, 70, 0
1, 51216, Note_on_c, 0, 73, 75
1, 51231, Note_on_c, 0, 73, 0
1, 51232, Note_on_c, 0, 65, 75
1, 51247, Note_on_c, 0, 65, 0
1, 51248, Note_on_c, 0, 70, 75
1, 51263, Note_on_c, 0, 70, 0
1, 51264, Note_on_c, 0, 73, 75
1, 51279, Note_on_c, 0, 73, 0
1, 51280, Note_on_c, 0, 70, 75
1, 51295, Note_on_c, 0, 70, 0
1, 51296, Note_on_c, 0, 73, 75
1, 51311, Note_on_c, 0, 73, 0
1, 51312, Note_on_c, 0, 77, 75
1, 51327, Note_on_c, 0, 77, 0
1, 51328, Note_on_c, 0, 70, 75
1, 51343, Note_on_c, 0, 70, 0
1, 51344, Note_on_c, 0, 73, 75
1, 51359, Note_on_c, 0, 73, 0
1, 51360, Note_on_c, 0, 77, 75
1, 51375, Note_on_c, 0, 77, 0
1, 51376, Note_on_c, 0, 75, 76
1, 51391, Note_on_c, 0, 75, 0
1, 51392, Note_on_c, 0, 73, 77
1, 51407, Note_on_c, 0, 73, 0
1, 51408, Note_on_c, 0, 72, 78
1, 51423, Note_on_c, 0, 72, 0
1, 51424, Note_on_c, 0, 70, 79
1, 51426, Note_on_c, 1, 53, 0
1, 51426, Note_on_c, 1, 49, 0
1, 51439, Note_on_c, 0, 70, 0
1, 51440, Note_on_c, 0, 68, 80
1, 51455, Note_on_c, 0, 68, 0
1, 51456, Note_on_c, 0, 68, 84
1, 51456, Note_on_c, 1, 61, 84
1, 51456, Note_on_c, 1, 58, 84
1, 51456, Note_on_c, 1, 51, 84
1, 51643, Note_on_c, 0, 68, 0
1, 51648, Note_on_c, 0, 67, 84
1, 51654, Note_on_c, 0, 67, 0
1, 51654, Note_on_c, 0, 68, 84
1, 51660, Note_on_c, 0, 68, 0
1, 51660, Note_on_c, 0, 67, 84
1, 51833, Note_on_c, 0, 67, 0
1, 51833, Note_on_c, 1, 61, 0
1, 51833, Note_on_c, 1, 58, 0
1, 51833, Note_on_c, 1, 51, 0
1, 51840, Note_on_c, 0, 57, 75
1, 51888, Note_on_c, 1, 51, 61
1, 51888, Note_on_c, 1, 48, 61
1, 51935, Note_on_c, 1, 51, 0
1, 51935, Note_on_c, 1, 48, 0
1, 51936, Note_on_c, 1, 51, 61
1, 51936, Note_on_c, 1, 48, 61
1, 51983, Note_on_c, 1, 51, 0
1, 51983, Note_on_c, 1, 48, 0
1, 51984, Note_on_c, 1, 51, 61
1, 51984, Note_on_c, 1, 48, 61
1, 52017, Note_on_c, 0, 57, 0
1, 52031, Note_on_c, 1, 51, 0
1, 52031, Note_on_c, 1, 48, 0
1, 52032, Note_on_c, 0, 58, 75
1, 52080, Note_on_c, 1, 53, 61
1, 52080, Note_on_c, 1, 49, 61
1, 52127, Note_on_c, 1, 53, 0
1, 52127, Note_on_c, 1, 49, 0
1, 52128, Note_on_c, 1, 53, 61
1, 52128, Note_on_c, 1, 49, 61
1, 52175, Note_on_c, 1, 53, 0
1, 52175, Note_on_c, 1, 49, 0
1, 52176, Note_on_c, 1, 53, 61
1, 52176, Note_on_c, 1, 49, 61
1, 52209, Note_on_c, 0, 58, 0
1, 52223, Note_on_c, 1, 53, 0
1, 52223, Note_on_c, 1, 49, 0
1, 52224, Note_on_c, 0, 54, 101
1, 52272, Note_on_c, 1, 48, 75
1, 52272, Note_on_c, 1, 44, 75
1, 52319, Note_on_c, 1, 48, 0
1, 52319, Note_on_c, 1, 44, 0
1, 52320, Note_on_c, 1, 48, 75
1, 52320, Note_on_c, 1, 44, 75
1, 52367, Note_on_c, 1, 48, 0
1, 52367, Note_on_c, 1, 44, 0
1, 52368, Note_on_c, 1, 48, 75
1, 52368, Note_on_c, 1, 44, 75
1, 52401, Note_on_c, 0, 54, 0
1, 52415, Note_on_c, 1, 48, 0
1, 52415, Note_on_c, 1, 44, 0
1, 52416, Note_on_c, 0, 53, 75
1, 52416, Note_on_c, 1, 49, 75
1, 52416, Note_on_c, 1, 46, 75
1, 52461, Note_on_c, 0, 53, 0
1, 52464, Note_on_c, 0, 64, 75
1, 52470, Note_on_c, 0, 64, 0
1, 52470, Note_on_c, 0, 65, 75
1, 52509, Note_on_c, 0, 65, 0
1, 52510, Note_on_c, 1, 49, 0
1, 52510, Note_on_c, 1, 46, 0
1, 52512, Note_on_c, 0, 60, 75
1, 52518, Note_on_c, 0, 60, 0
1, 52518, Note_on_c, 0, 61, 75
1, 52557, Note_on_c, 0, 61, 0
1, 52560, Note_on_c, 0, 57, 75
1, 52566, Note_on_c, 0, 57, 0
1, 52566, Note_on_c, 0, 58, 75
1, 52605, Note_on_c, 0, 58, 0
1, 52608, Note_on_c, 0, 53, 75
1, 52653, Note_on_c, 0, 53, 0
1, 52656, Note_on_c, 0, 76, 61
1, 52680, Note_on_c, 0, 76, 0
1, 52680, Note_on_c, 0, 77, 61
1, 52690, Note_on_c, 0, 77, 0
1, 52704, Note_on_c, 0, 72, 61
1, 52728, Note_on_c, 0, 72, 0
1, 52728, Note_on_c, 0, 73, 61
1, 52738, Note_on_c, 0, 73, 0
1, 52752, Note_on_c, 0, 69, 61
1, 52776, Note_on_c, 0, 69, 0
1, 52776, Note_on_c, 0, 70, 61
1, 52786, Note_on_c, 0, 70, 0
1, 52800, Note_on_c, 0, 65, 61
1, 52845, Note_on_c, 0, 65, 0
1, 52848, Note_on_c, 0, 76, 69
1, 52872, Note_on_c, 0, 76, 0
1, 52872, Note_on_c, 0, 77, 69
1, 52882, Note_on_c, 0, 77, 0
1, 52896, Note_on_c, 0, 75, 69
1, 52919, Note_on_c, 0, 75, 0
1, 52920, Note_on_c, 0, 73, 69
1, 52943, Note_on_c, 0, 73, 0
1, 52944, Note_on_c, 0, 72, 69
1, 52967, Note_on_c, 0, 72, 0
1, 52968, Note_on_c, 0, 70, 69
1, 52991, Note_on_c, 0, 70, 0
1, 52992, Note_on_c, 0, 72, 75
1, 52998, Note_on_c, 0, 72, 0
1, 52998, Note_on_c, 0, 73, 75
1, 53004, Note_on_c, 0, 73, 0
1, 53004, Note_on_c, 0, 75, 75
1, 53040, Note_on_c, 1, 60, 75
1, 53040, Note_on_c, 1, 51, 75
1, 53087, Note_on_c, 1, 60, 0
1, 53087, Note_on_c, 1, 51, 0
1, 53088, Note_on_c, 1, 60, 75
1, 53088, Note_on_c, 1, 51, 75
1, 53111, Note_on_c, 0, 75, 0
1, 53112, Note_on_c, 0, 73, 75
1, 53124, Note_on_c, 0, 73, 0
1, 53124, Note_on_c, 0, 72, 75
1, 53135, Note_on_c, 1, 60, 0
1, 53135, Note_on_c, 1, 51, 0
1, 53136, Note_on_c, 0, 72, 0
1, 53136, Note_on_c, 0, 70, 75
1, 53136, Note_on_c, 1, 60, 75
1, 53136, Note_on_c, 1, 51, 75
1, 53148, Note_on_c, 0, 70, 0
1, 53148, Note_on_c, 0, 68, 75
1, 53160, Note_on_c, 0, 68, 0
1, 53160, Note_on_c, 0, 67, 75
1, 53172, Note_on_c, 0, 67, 0
1, 53172, Note_on_c, 0, 65, 75
1, 53183, Note_on_c, 1, 60, 0
1, 53183, Note_on_c, 1, 51, 0
1, 53184, Note_on_c, 0, 65, 0
1, 53184, Note_on_c, 0, 63, 75
1, 53232, Note_on_c, 1, 60, 75
1, 53232, Note_on_c, 1, 51, 75
1, 53273, Note_on_c, 0, 63, 0
1, 53279, Note_on_c, 1, 60, 0
1, 53279, Note_on_c, 1, 51, 0
1, 53280, Note_on_c, 0, 61, 75
1, 53280, Note_on_c, 1, 58, 75
1, 53280, Note_on_c, 1, 51, 75
1, 53289, Note_on_c, 0, 61, 0
1, 53289, Note_on_c, 0, 63, 75
1, 53298, Note_on_c, 0, 63, 0
1, 53298, Note_on_c, 0, 61, 75
1, 53307, Note_on_c, 0, 61, 0
1, 53307, Note_on_c, 0, 63, 75
1, 53316, Note_on_c, 0, 63, 0
1, 53316, Note_on_c, 0, 61, 75
1, 53325, Note_on_c, 0, 61, 0
1, 53325, Note_on_c, 0, 63, 75
1, 53327, Note_on_c, 1, 58, 0
1, 53327, Note_on_c, 1, 51, 0
1, 53328, Note_on_c, 1, 58, 75
1, 53328, Note_on_c, 1, 51, 75
1, 53334, Note_on_c, 0, 63, 0
1, 53334, Note_on_c, 0, 61, 75
1, 53343, Note_on_c, 0, 61, 0
1, 53343, Note_on_c, 0, 60, 75
1, 53360, Note_on_c, 0, 60, 0
1, 53360, Note_on_c, 0, 61, 75
1, 53375, Note_on_c, 1, 58, 0
1, 53375, Note_on_c, 1, 51, 0
1, 53376, Note_on_c, 0, 61, 0
1, 53376, Note_on_c, 0, 60, 75
1, 53376, Note_on_c, 1, 56, 75
1, 53396, Note_on_c, 0, 60, 0
1, 53424, Note_on_c, 0, 68, 91
1, 53465, Note_on_c, 1, 56, 0
1, 53472, Note_on_c, 1, 60, 75
1, 53520, Note_on_c, 0, 68, 0
1, 53520, Note_on_c, 0, 66, 75
1, 53561, Note_on_c, 1, 60, 0
1, 53568, Note_on_c, 1, 61, 75
1, 53609, Note_on_c, 0, 66, 0
1, 53616, Note_on_c, 0, 65, 75
1, 53657, Note_on_c, 1, 61, 0
1, 53664, Note_on_c, 1, 49, 75
1, 53705, Note_on_c, 0, 65, 0
1, 53712, Note_on_c, 0, 69, 75
1, 53753, Note_on_c, 1, 49, 0
1, 53757, Note_on_c, 0, 69, 0
1, 53760, Note_on_c, 0, 72, 75
1, 53766, Note_on_c, 0, 72, 0
1, 53766, Note_on_c, 0, 70, 75
1, 53772, Note_on_c, 0, 70, 0
1, 53772, Note_on_c, 0, 69, 75
1, 53778, Note_on_c, 0, 69, 0
1, 53778, Note_on_c, 0, 70, 75
1, 53805, Note_on_c, 0, 70, 0
1, 53808, Note_on_c, 0, 72, 75
1, 53853, Note_on_c, 0, 72, 0
1, 53856, Note_on_c, 0, 75, 75
1, 53862, Note_on_c, 0, 75, 0
1, 53862, Note_on_c, 0, 73, 75
1, 53868, Note_on_c, 0, 73, 0
1, 53868, Note_on_c, 0, 72, 75
1, 53874, Note_on_c, 0, 72, 0
1, 53874, Note_on_c, 0, 73, 75
1, 53901, Note_on_c, 0, 73, 0
1, 53904, Note_on_c, 0, 76, 75
1, 53949, Note_on_c, 0, 76, 0
1, 53952, Note_on_c, 0, 79, 75
1, 53958, Note_on_c, 0, 79, 0
1, 53958, Note_on_c, 0, 77, 75
1, 53964, Note_on_c, 0, 77, 0
1, 53964, Note_on_c, 0, 76, 75
1, 53970, Note_on_c, 0, 76, 0
1, 53970, Note_on_c, 0, 77, 75
1, 53997, Note_on_c, 0, 77, 0
1, 54000, Note_on_c, 0, 81, 75
1, 54006, Note_on_c, 0, 81, 0
1, 54006, Note_on_c, 0, 84, 75
1, 54045, Note_on_c, 0, 84, 0
1, 54048, Note_on_c, 0, 82, 76
1, 54054, Note_on_c, 0, 82, 0
1, 54054, Note_on_c, 0, 85, 76
1, 54093, Note_on_c, 0, 85, 0
1, 54096, Note_on_c, 0, 84, 78
1, 54102, Note_on_c, 0, 84, 0
1, 54102, Note_on_c, 0, 87, 78
1, 54141, Note_on_c, 0, 87, 0
1, 54144, Note_on_c, 0, 85, 80
1, 54150, Note_on_c, 0, 85, 0
1, 54150, Note_on_c, 0, 89, 80
1, 54192, Note_on_c, 1, 58, 75
1, 54192, Note_on_c, 1, 49, 75
1, 54239, Note_on_c, 1, 58, 0
1, 54239, Note_on_c, 1, 49, 0
1, 54240, Note_on_c, 1, 58, 75
1, 54240, Note_on_c, 1, 49, 75
1, 54263, Note_on_c, 0, 89, 0
1, 54264, Note_on_c, 0, 87, 84
1, 54276, Note_on_c, 0, 87, 0
1, 54276, Note_on_c, 0, 85, 84
1, 54287, Note_on_c, 1, 58, 0
1, 54287, Note_on_c, 1, 49, 0
1, 54288, Note_on_c, 0, 85, 0
1, 54288, Note_on_c, 0, 87, 84
1, 54288, Note_on_c, 1, 58, 75
1, 54288, Note_on_c, 1, 49, 75
1, 54300, Note_on_c, 0, 87, 0
1, 54300, Note_on_c, 0, 85, 84
1, 54312, Note_on_c, 0, 85, 0
1, 54312, Note_on_c, 0, 84, 84
1, 54324, Note_on_c, 0, 84, 0
1, 54324, Note_on_c, 0, 82, 84
1, 54335, Note_on_c, 1, 58, 0
1, 54335, Note_on_c, 1, 49, 0
1, 54336, Note_on_c, 0, 82, 0
1, 54336, Note_on_c, 0, 84, 84
1, 54348, Note_on_c, 0, 84, 0
1, 54348, Note_on_c, 0, 85, 84
1, 54360, Note_on_c, 0, 85, 0
1, 54360, Note_on_c, 0, 87, 84
1, 54372, Note_on_c, 0, 87, 0
1, 54372, Note_on_c, 0, 85, 84
1, 54384, Note_on_c, 0, 85, 0
1, 54384, Note_on_c, 0, 84, 84
1, 54384, Note_on_c, 1, 60, 69
1, 54384, Note_on_c, 1, 51, 69
1, 54396, Note_on_c, 0, 84, 0
1, 54396, Note_on_c, 0, 82, 82
1, 54408, Note_on_c, 0, 82, 0
1, 54408, Note_on_c, 0, 80, 80
1, 54420, Note_on_c, 0, 80, 0
1, 54420, Note_on_c, 0, 79, 78
1, 54431, Note_on_c, 1, 60, 0
1, 54431, Note_on_c, 1, 51, 0
1, 54432, Note_on_c, 0, 79, 0
1, 54432, Note_on_c, 0, 77, 76
1, 54432, Note_on_c, 1, 60, 66
1, 54432, Note_on_c, 1, 51, 66
1, 54444, Note_on_c, 0, 77, 0
1, 54444, Note_on_c, 0, 75, 74
1, 54456, Note_on_c, 0, 75, 0
1, 54456, Note_on_c, 0, 73, 72
1, 54468, Note_on_c, 0, 73, 0
1, 54468, Note_on_c, 0, 72, 70
1, 54479, Note_on_c, 1, 60, 0
1, 54479, Note_on_c, 1, 51, 0
1, 54480, Note_on_c, 0, 72, 0
1, 54480, Note_on_c, 0, 70, 68
1, 54480, Note_on_c, 1, 60, 63
1, 54480, Note_on_c, 1, 51, 63
1, 54492, Note_on_c, 0, 70, 0
1, 54492, Note_on_c, 0, 68, 66
1, 54504, Note_on_c, 0, 68, 0
1, 54504, Note_on_c, 0, 67, 64
1, 54516, Note_on_c, 0, 67, 0
1, 54516, Note_on_c, 0, 65, 62
1, 54527, Note_on_c, 1, 60, 0
1, 54527, Note_on_c, 1, 51, 0
1, 54528, Note_on_c, 0, 65, 0
1, 54528, Note_on_c, 0, 63, 85
1, 54576, Note_on_c, 1, 59, 61
1, 54576, Note_on_c, 1, 51, 61
1, 54623, Note_on_c, 1, 59, 0
1, 54623, Note_on_c, 1, 51, 0
1, 54624, Note_on_c, 1, 59, 61
1, 54624, Note_on_c, 1, 51, 61
1, 54671, Note_on_c, 1, 59, 0
1, 54671, Note_on_c, 1, 51, 0
1, 54672, Note_on_c, 1, 59, 61
1, 54672, Note_on_c, 1, 51, 61
1, 54719, Note_on_c, 1, 59, 0
1, 54719, Note_on_c, 1, 51, 0
1, 54720, Note_on_c, 0, 63, 0
1, 54720, Note_on_c, 0, 62, 69
1, 54768, Note_on_c, 1, 59, 61
1, 54768, Note_on_c, 1, 52, 61
1, 54815, Note_on_c, 1, 59, 0
1, 54815, Note_on_c, 1, 52, 0
1, 54816, Note_on_c, 1, 59, 61
1, 54816, Note_on_c, 1, 52, 61
1, 54863, Note_on_c, 1, 59, 0
1, 54863, Note_on_c, 1, 52, 0
1, 54864, Note_on_c, 1, 59, 61
1, 54864, Note_on_c, 1, 52, 61
1, 54883, Note_on_c, 0, 62, 0
1, 54888, Note_on_c, 0, 63, 69
1, 54911, Note_on_c, 0, 63, 0
1, 54911, Note_on_c, 1, 59, 0
1, 54911, Note_on_c, 1, 52, 0
1, 54912, Note_on_c, 0, 61, 85
1, 54960, Note_on_c, 1, 58, 61
1, 54960, Note_on_c, 1, 55, 61
1, 54984, Note_on_c, 0, 61, 0
1, 54984, Note_on_c, 0, 63, 69
1, 55007, Note_on_c, 0, 63, 0
1, 55007, Note_on_c, 1, 58, 0
1, 55007, Note_on_c, 1, 55, 0
1, 55008, Note_on_c, 0, 61, 69
1, 55008, Note_on_c, 1, 58, 61
1, 55008, Note_on_c, 1, 55, 61
1, 55042, Note_on_c, 0, 61, 0
1, 55044, Note_on_c, 0, 63, 69
1, 55055, Note_on_c, 1, 58, 0
1, 55055, Note_on_c, 1, 55, 0
1, 55056, Note_on_c, 0, 63, 0
1, 55056, Note_on_c, 0, 61, 69
1, 55056, Note_on_c, 1, 58, 61
1, 55056, Note_on_c, 1, 55, 61
1, 55090, Note_on_c, 0, 61, 0
1, 55092, Note_on_c, 0, 63, 69
1, 55103, Note_on_c, 1, 58, 0
1, 55103, Note_on_c, 1, 55, 0
1, 55104, Note_on_c, 0, 63, 0
1, 55104, Note_on_c, 0, 60, 69
1, 55104, Note_on_c, 1, 56, 77
1, 55119, Note_on_c, 0, 60, 0
1, 55120, Note_on_c, 0, 63, 69
1, 55135, Note_on_c, 0, 63, 0
1, 55136, Note_on_c, 0, 68, 69
1, 55151, Note_on_c, 0, 68, 0
1, 55152, Note_on_c, 0, 60, 69
1, 55167, Note_on_c, 0, 60, 0
1, 55168, Note_on_c, 0, 63, 69
1, 55183, Note_on_c, 0, 63, 0
1, 55184, Note_on_c, 0, 68, 69
1, 55199, Note_on_c, 0, 68, 0
1, 55200, Note_on_c, 0, 63, 69
1, 55200, Note_on_c, 1, 56, 0
1, 55215, Note_on_c, 0, 63, 0
1, 55216, Note_on_c, 0, 67, 69
1, 55231, Note_on_c, 0, 67, 0
1, 55232, Note_on_c, 0, 70, 69
1, 55247, Note_on_c, 0, 70, 0
1, 55248, Note_on_c, 0, 67, 69
1, 55248, Note_on_c, 1, 58, 77
1, 55248, Note_on_c, 1, 51, 77
1, 55263, Note_on_c, 0, 67, 0
1, 55264, Note_on_c, 0, 70, 69
1, 55279, Note_on_c, 0, 70, 0
1, 55280, Note_on_c, 0, 73, 69
1, 55295, Note_on_c, 0, 73, 0
1, 55296, Note_on_c, 0, 72, 69
1, 55296, Note_on_c, 1, 58, 0
1, 55296, Note_on_c, 1, 51, 0
1, 55296, Note_on_c, 1, 56, 77
1, 55311, Note_on_c, 0, 72, 0
1, 55312, Note_on_c, 0, 75, 69
1, 55327, Note_on_c, 0, 75, 0
1, 55328, Note_on_c, 0, 80, 70
1, 55343, Note_on_c, 0, 80, 0
1, 55344, Note_on_c, 0, 72, 71
1, 55359, Note_on_c, 0, 72, 0
1, 55360, Note_on_c, 0, 75, 72
1, 55375, Note_on_c, 0, 75, 0
1, 55376, Note_on_c, 0, 80, 73
1, 55391, Note_on_c, 0, 80, 0
1, 55392, Note_on_c, 0, 75, 74
1, 55392, Note_on_c, 1, 56, 0
1, 55407, Note_on_c, 0, 75, 0
1, 55408, Note_on_c, 0, 79, 75
1, 55423, Note_on_c, 0, 79, 0
1, 55424, Note_on_c, 0, 82, 76
1, 55439, Note_on_c, 0, 82, 0
1, 55440, Note_on_c, 0, 79, 76
1, 55440, Note_on_c, 1, 58, 88
1, 55440, Note_on_c, 1, 51, 88
1, 55455, Note_on_c, 0, 79, 0
1, 55456, Note_on_c, 0, 82, 77
1, 55471, Note_on_c, 0, 82, 0
1, 55472, Note_on_c, 0, 85, 78
1, 55487, Note_on_c, 0, 85, 0
1, 55488, Note_on_c, 0, 84, 79
1, 55488, Note_on_c, 1, 58, 0
1, 55488, Note_on_c, 1, 51, 0
1, 55488, Note_on_c, 1, 56, 92
1, 55503, Note_on_c, 0, 84, 0
1, 55504, Note_on_c, 0, 85, 84
1, 55519, Note_on_c, 0, 85, 0
1, 55520, Note_on_c, 0, 87, 84
1, 55535, Note_on_c, 0, 87, 0
1, 55536, Note_on_c, 0, 85, 84
1, 55551, Note_on_c, 0, 85, 0
1, 55552, Note_on_c, 0, 84, 84
1, 55567, Note_on_c, 0, 84, 0
1, 55568, Note_on_c, 0, 82, 84
1, 55583, Note_on_c, 0, 82, 0
1, 55584, Note_on_c, 0, 80, 84
1, 55584, Note_on_c, 1, 56, 0
1, 55599, Note_on_c, 0, 80, 0
1, 55600, Note_on_c, 0, 79, 84
1, 55615, Note_on_c, 0, 79, 0
1, 55616, Note_on_c, 0, 77, 84
1, 55631, Note_on_c, 0, 77, 0
1, 55632, Note_on_c, 0, 75, 84
1, 55647, Note_on_c, 0, 75, 0
1, 55648, Note_on_c, 0, 73, 84
1, 55663, Note_on_c, 0, 73, 0
1, 55664, Note_on_c, 0, 72, 84
1, 55679, Note_on_c, 0, 72, 0
1, 55680, Note_on_c, 0, 70, 84
1, 55680, Note_on_c, 1, 53, 84
1, 55680, Note_on_c, 1, 49, 84
1, 55695, Note_on_c, 0, 70, 0
1, 55696, Note_on_c, 0, 73, 83
1, 55711, Note_on_c, 0, 73, 0
1, 55712, Note_on_c, 0, 72, 82
1, 55727, Note_on_c, 0, 72, 0
1, 55728, Note_on_c, 0, 70, 81
1, 55743, Note_on_c, 0, 70, 0
1, 55744, Note_on_c, 0, 77, 81
1, 55759, Note_on_c, 0, 77, 0
1, 55760, Note_on_c, 0, 75, 80
1, 55769, Note_on_c, 1, 53, 0
1, 55769, Note_on_c, 1, 49, 0
1, 55775, Note_on_c, 0, 75, 0
1, 55776, Note_on_c, 0, 73, 79
1, 55791, Note_on_c, 0, 73, 0
1, 55792, Note_on_c, 0, 72, 79
1, 55807, Note_on_c, 0, 72, 0
1, 55808, Note_on_c, 0, 70, 78
1, 55823, Note_on_c, 0, 70, 0
1, 55824, Note_on_c, 0, 68, 77
1, 55839, Note_on_c, 0, 68, 0
1, 55840, Note_on_c, 0, 67, 77
1, 55855, Note_on_c, 0, 67, 0
1, 55856, Note_on_c, 0, 65, 76
1, 55871, Note_on_c, 0, 65, 0
1, 55872, Note_on_c, 0, 63, 75
1, 55872, Note_on_c, 1, 60, 61
1, 55872, Note_on_c, 1, 51, 61
1, 55919, Note_on_c, 1, 60, 0
1, 55919, Note_on_c, 1, 51, 0
1, 55920, Note_on_c, 1, 60, 61
1, 55920, Note_on_c, 1, 51, 61
1, 55939, Note_on_c, 0, 63, 0
1, 55944, Note_on_c, 0, 68, 69
1, 55956, Note_on_c, 0, 68, 0
1, 55956, Note_on_c, 0, 70, 69
1, 55967, Note_on_c, 1, 60, 0
1, 55967, Note_on_c, 1, 51, 0
1, 55968, Note_on_c, 0, 70, 0
1, 55968, Note_on_c, 0, 72, 69
1, 55968, Note_on_c, 1, 55, 61
1, 55968, Note_on_c, 1, 51, 61
1, 55976, Note_on_c, 0, 72, 0
1, 55976, Note_on_c, 0, 70, 69
1, 55984, Note_on_c, 0, 70, 0
1, 55984, Note_on_c, 0, 72, 69
1, 55992, Note_on_c, 0, 72, 0
1, 55992, Note_on_c, 0, 70, 69
1, 56000, Note_on_c, 0, 70, 0
1, 56000, Note_on_c, 0, 72, 69
1, 56008, Note_on_c, 0, 72, 0
1, 56008, Note_on_c, 0, 70, 69
1, 56015, Note_on_c, 1, 55, 0
1, 56015, Note_on_c, 1, 51, 0
1, 56016, Note_on_c, 0, 70, 0
1, 56016, Note_on_c, 0, 72, 69
1, 56016, Note_on_c, 1, 55, 61
1, 56016, Note_on_c, 1, 51, 61
1, 56024, Note_on_c, 0, 72, 0
1, 56024, Note_on_c, 0, 70, 69
1, 56032, Note_on_c, 0, 70, 0
1, 56032, Note_on_c, 0, 68, 69
1, 56048, Note_on_c, 0, 68, 0
1, 56048, Note_on_c, 0, 70, 69
1, 56063, Note_on_c, 1, 55, 0
1, 56063, Note_on_c, 1, 51, 0
1, 56064, Note_on_c, 0, 70, 0
1, 56064, Note_on_c, 0, 60, 69
1, 56064, Note_on_c, 1, 56, 77
1, 56079, Note_on_c, 0, 60, 0
1, 56080, Note_on_c, 0, 63, 69
1, 56095, Note_on_c, 0, 63, 0
1, 56096, Note_on_c, 0, 68, 69
1, 56111, Note_on_c, 0, 68, 0
1, 56112, Note_on_c, 0, 60, 69
1, 56127, Note_on_c, 0, 60, 0
1, 56128, Note_on_c, 0, 63, 69
1, 56143, Note_on_c, 0, 63, 0
1, 56144, Note_on_c, 0, 68, 69
1, 56159, Note_on_c, 0, 68, 0
1, 56160, Note_on_c, 0, 63, 69
1, 56160, Note_on_c, 1, 56, 0
1, 56175, Note_on_c, 0, 63, 0
1, 56176, Note_on_c, 0, 67, 69
1, 56191, Note_on_c, 0, 67, 0
1, 56192, Note_on_c, 0, 70, 69
1, 56207, Note_on_c, 0, 70, 0
1, 56208, Note_on_c, 0, 67, 69
1, 56208, Note_on_c, 1, 58, 77
1, 56208, Note_on_c, 1, 51, 77
1, 56223, Note_on_c, 0, 67, 0
1, 56224, Note_on_c, 0, 70, 69
1, 56239, Note_on_c, 0, 70, 0
1, 56240, Note_on_c, 0, 73, 69
1, 56255, Note_on_c, 0, 73, 0
1, 56256, Note_on_c, 0, 72, 69
1, 56256, Note_on_c, 1, 58, 0
1, 56256, Note_on_c, 1, 51, 0
1, 56256, Note_on_c, 1, 56, 85
1, 56271, Note_on_c, 0, 72, 0
1, 56272, Note_on_c, 0, 75, 69
1, 56287, Note_on_c, 0, 75, 0
1, 56288, Note_on_c, 0, 80, 70
1, 56303, Note_on_c, 0, 80, 0
1, 56304, Note_on_c, 0, 72, 71
1, 56319, Note_on_c, 0, 72, 0
1, 56320, Note_on_c, 0, 75, 72
1, 56335, Note_on_c, 0, 75, 0
1, 56336, Note_on_c, 0, 80, 73
1, 56351, Note_on_c, 0, 80, 0
1, 56352, Note_on_c, 0, 75, 74
1, 56352, Note_on_c, 1, 56, 0
1, 56367, Note_on_c, 0, 75, 0
1, 56368, Note_on_c, 0, 79, 75
1, 56383, Note_on_c, 0, 79, 0
1, 56384, Note_on_c, 0, 82, 76
1, 56399, Note_on_c, 0, 82, 0
1, 56400, Note_on_c, 0, 79, 77
1, 56400, Note_on_c, 1, 58, 91
1, 56400, Note_on_c, 1, 51, 91
1, 56415, Note_on_c, 0, 79, 0
1, 56416, Note_on_c, 0, 82, 78
1, 56431, Note_on_c, 0, 82, 0
1, 56432, Note_on_c, 0, 85, 79
1, 56447, Note_on_c, 0, 85, 0
1, 56448, Note_on_c, 0, 84, 84
1, 56448, Note_on_c, 1, 58, 0
1, 56448, Note_on_c, 1, 51, 0
1, 56448, Note_on_c, 1, 56, 100
1, 56463, Note_on_c, 0, 84, 0
1, 56464, Note_on_c, 0, 85, 84
1, 56479, Note_on_c, 0, 85, 0
1, 56480, Note_on_c, 0, 87, 84
1, 56495, Note_on_c, 0, 87, 0
1, 56496, Note_on_c, 0, 85, 84
1, 56511, Note_on_c, 0, 85, 0
1, 56512, Note_on_c, 0, 84, 84
1, 56527, Note_on_c, 0, 84, 0
1, 56528, Note_on_c, 0, 82, 84
1, 56543, Note_on_c, 0, 82, 0
1, 56544, Note_on_c, 0, 80, 84
1, 56544, Note_on_c, 1, 56, 0
1, 56559, Note_on_c, 0, 80, 0
1, 56560, Note_on_c, 0, 79, 84
1, 56575, Note_on_c, 0, 79, 0
1, 56576, Note_on_c, 0, 77, 84
1, 56591, Note_on_c, 0, 77, 0
1, 56592, Note_on_c, 0, 75, 84
1, 56607, Note_on_c, 0, 75, 0
1, 56608, Note_on_c, 0, 73, 84
1, 56623, Note_on_c, 0, 73, 0
1, 56624, Note_on_c, 0, 72, 84
1, 56639, Note_on_c, 0, 72, 0
1, 56640, Note_on_c, 0, 70, 84
1, 56640, Note_on_c, 1, 53, 84
1, 56640, Note_on_c, 1, 49, 84
1, 56655, Note_on_c, 0, 70, 0
1, 56656, Note_on_c, 0, 73, 84
1, 56671, Note_on_c, 0, 73, 0
1, 56672, Note_on_c, 0, 72, 84
1, 56687, Note_on_c, 0, 72, 0
1, 56688, Note_on_c, 0, 70, 84
1, 56703, Note_on_c, 0, 70, 0
1, 56704, Note_on_c, 0, 77, 84
1, 56719, Note_on_c, 0, 77, 0
1, 56720, Note_on_c, 0, 75, 84
1, 56729, Note_on_c, 1, 53, 0
1, 56729, Note_on_c, 1, 49, 0
1, 56735, Note_on_c, 0, 75, 0
1, 56736, Note_on_c, 0, 73, 84
1, 56751, Note_on_c, 0, 73, 0
1, 56752, Note_on_c, 0, 72, 84
1, 56767, Note_on_c, 0, 72, 0
1, 56768, Note_on_c, 0, 70, 84
1, 56783, Note_on_c, 0, 70, 0
1, 56784, Note_on_c, 0, 68, 84
1, 56799, Note_on_c, 0, 68, 0
1, 56800, Note_on_c, 0, 67, 84
1, 56815, Note_on_c, 0, 67, 0
1, 56816, Note_on_c, 0, 65, 84
1, 56831, Note_on_c, 0, 65, 0
1, 56832, Note_on_c, 0, 63, 84
1, 56832, Note_on_c, 1, 60, 75
1, 56832, Note_on_c, 1, 51, 75
1, 56879, Note_on_c, 1, 60, 0
1, 56879, Note_on_c, 1, 51, 0
1, 56880, Note_on_c, 1, 60, 74
1, 56880, Note_on_c, 1, 51, 74
1, 56899, Note_on_c, 0, 63, 0
1, 56904, Note_on_c, 0, 68, 80
1, 56916, Note_on_c, 0, 68, 0
1, 56916, Note_on_c, 0, 70, 80
1, 56927, Note_on_c, 1, 60, 0
1, 56927, Note_on_c, 1, 51, 0
1, 56928, Note_on_c, 0, 70, 0
1, 56928, Note_on_c, 0, 72, 79
1, 56928, Note_on_c, 1, 55, 73
1, 56928, Note_on_c, 1, 51, 73
1, 56936, Note_on_c, 0, 72, 0
1, 56936, Note_on_c, 0, 70, 79
1, 56944, Note_on_c, 0, 70, 0
1, 56944, Note_on_c, 0, 72, 79
1, 56952, Note_on_c, 0, 72, 0
1, 56952, Note_on_c, 0, 70, 78
1, 56960, Note_on_c, 0, 70, 0
1, 56960, Note_on_c, 0, 72, 78
1, 56968, Note_on_c, 0, 72, 0
1, 56968, Note_on_c, 0, 70, 78
1, 56975, Note_on_c, 1, 55, 0
1, 56975, Note_on_c, 1, 51, 0
1, 56976, Note_on_c, 0, 70, 0
1, 56976, Note_on_c, 0, 72, 78
1, 56976, Note_on_c, 1, 55, 72
1, 56976, Note_on_c, 1, 51, 72
1, 56984, Note_on_c, 0, 72, 0
1, 56984, Note_on_c, 0, 70, 77
1, 56992, Note_on_c, 0, 70, 0
1, 56992, Note_on_c, 0, 68, 77
1, 57008, Note_on_c, 0, 68, 0
1, 57008, Note_on_c, 0, 70, 77
1, 57023, Note_on_c, 1, 55, 0
1, 57023, Note_on_c, 1, 51, 0
1, 57024, Note_on_c, 0, 70, 0
1, 57024, Note_on_c, 0, 68, 92
1, 57024, Note_on_c, 1, 56, 87
1, 57120, Note_on_c, 0, 68, 0
1, 57120, Note_on_c, 0, 77, 72
1, 57120, Note_on_c, 0, 73, 72
1, 57120, Note_on_c, 1, 56, 0
1, 57120, Note_on_c, 1, 58, 69
1, 57120, Note_on_c, 1, 49, 69
1, 57165, Note_on_c, 0, 77, 0
1, 57165, Note_on_c, 0, 73, 0
1, 57165, Note_on_c, 1, 58, 0
1, 57165, Note_on_c, 1, 49, 0
1, 57168, Note_on_c, 0, 67, 69
1, 57168, Note_on_c, 0, 63, 69
1, 57168, Note_on_c, 1, 61, 69
1, 57168, Note_on_c, 1, 51, 69
1, 57216, Note_on_c, 0, 67, 0
1, 57216, Note_on_c, 0, 68, 69
1, 57216, Note_on_c, 1, 61, 0
1, 57216, Note_on_c, 1, 51, 0
1, 57216, Note_on_c, 1, 60, 69
1, 57216, Note_on_c, 1, 56, 69
1, 57261, Note_on_c, 0, 68, 0
1, 57261, Note_on_c, 0, 63, 0
1, 57261, Note_on_c, 1, 60, 0
1, 57261, Note_on_c, 1, 56, 0
1, 57312, Note_on_c, 0, 77, 61
1, 57312, Note_on_c, 0, 73, 61
1, 57312, Note_on_c, 1, 58, 61
1, 57312, Note_on_c, 1, 49, 61
1, 57357, Note_on_c, 0, 77, 0
1, 57357, Note_on_c, 0, 73, 0
1, 57357, Note_on_c, 1, 58, 0
1, 57357, Note_on_c, 1, 49, 0
1, 57360, Note_on_c, 0, 67, 61
1, 57360, Note_on_c, 0, 61, 61
1, 57360, Note_on_c, 1, 58, 61
1, 57360, Note_on_c, 1, 51, 61
1, 57408, Note_on_c, 0, 67, 0
1, 57408, Note_on_c, 0, 61, 0
1, 57408, Note_on_c, 0, 68, 61
1, 57408, Note_on_c, 0, 60, 61
1, 57408, Note_on_c, 1, 58, 0
1, 57408, Note_on_c, 1, 51, 0
1, 57408, Note_on_c, 1, 56, 61
1, 57408, Note_on_c, 1, 44, 61
1, 57541, Note_on_c, 0, 68, 0
1, 57541, Note_on_c, 0, 60, 0
1, 57541, Note_on_c, 1, 56, 0
1, 57541, Note_on_c, 1, 44, 0
1, 57600, Note_on_c, 0, 75, 84
1, 57606, Note_on_c, 0, 75, 0
1, 57606, Note_on_c, 0, 74, 84
1, 57612, Note_on_c, 0, 74, 0
1, 57612, Note_on_c, 0, 75, 84
1, 57648, Note_on_c, 1, 67, 69
1, 57648, Note_on_c, 1, 63, 69
1, 57695, Note_on_c, 1, 67, 0
1, 57695, Note_on_c, 1, 63, 0
1, 57696, Note_on_c, 1, 67, 69
1, 57696, Note_on_c, 1, 63, 69
1, 57743, Note_on_c, 1, 67, 0
1, 57743, Note_on_c, 1, 63, 0
1, 57744, Note_on_c, 1, 67, 69
1, 57744, Note_on_c, 1, 63, 69
1, 57785, Note_on_c, 0, 75, 0
1, 57791, Note_on_c, 1, 67, 0
1, 57791, Note_on_c, 1, 63, 0
1, 57792, Note_on_c, 0, 82, 84
1, 57840, Note_on_c, 1, 65, 69
1, 57840, Note_on_c, 1, 62, 69
1, 57887, Note_on_c, 1, 65, 0
1, 57887, Note_on_c, 1, 62, 0
1, 57888, Note_on_c, 1, 65, 69
1, 57888, Note_on_c, 1, 62, 69
1, 57935, Note_on_c, 1, 65, 0
1, 57935, Note_on_c, 1, 62, 0
1, 57936, Note_on_c, 1, 65, 69
1, 57936, Note_on_c, 1, 62, 69
1, 57955, Note_on_c, 0, 82, 0
1, 57960, Note_on_c, 0, 80, 84
1, 57983, Note_on_c, 0, 80, 0
1, 57983, Note_on_c, 1, 65, 0
1, 57983, Note_on_c, 1, 62, 0
1, 57984, Note_on_c, 0, 80, 84
1, 58032, Note_on_c, 1, 70, 69
1, 58032, Note_on_c, 1, 63, 69
1, 58079, Note_on_c, 1, 70, 0
1, 58079, Note_on_c, 1, 63, 0
1, 58080, Note_on_c, 0, 80, 0
1, 58080, Note_on_c, 0, 79, 84
1, 58080, Note_on_c, 1, 70, 69
1, 58080, Note_on_c, 1, 63, 69
1, 58086, Note_on_c, 0, 79, 0
1, 58086, Note_on_c, 0, 80, 84
1, 58092, Note_on_c, 0, 80, 0
1, 58092, Note_on_c, 0, 79, 84
1, 58127, Note_on_c, 1, 70, 0
1, 58127, Note_on_c, 1, 63, 0
1, 58128, Note_on_c, 1, 70, 69
1, 58128, Note_on_c, 1, 63, 69
1, 58149, Note_on_c, 0, 79, 0
1, 58152, Note_on_c, 0, 80, 84
1, 58175, Note_on_c, 0, 80, 0
1, 58175, Note_on_c, 1, 70, 0
1, 58175, Note_on_c, 1, 63, 0
1, 58176, Note_on_c, 0, 79, 84
1, 58224, Note_on_c, 1, 72, 69
1, 58224, Note_on_c, 1, 68, 69
1, 58271, Note_on_c, 1, 72, 0
1, 58271, Note_on_c, 1, 68, 0
1, 58272, Note_on_c, 0, 79, 0
1, 58272, Note_on_c, 0, 77, 84
1, 58272, Note_on_c, 1, 72, 69
1, 58272, Note_on_c, 1, 68, 69
1, 58278, Note_on_c, 0, 77, 0
1, 58278, Note_on_c, 0, 79, 84
1, 58284, Note_on_c, 0, 79, 0
1, 58284, Note_on_c, 0, 77, 84
1, 58319, Note_on_c, 1, 72, 0
1, 58319, Note_on_c, 1, 68, 0
1, 58320, Note_on_c, 1, 72, 69
1, 58320, Note_on_c, 1, 68, 69
1, 58341, Note_on_c, 0, 77, 0
1, 58344, Note_on_c, 0, 79, 84
1, 58367, Note_on_c, 0, 79, 0
1, 58367, Note_on_c, 1, 72, 0
1, 58367, Note_on_c, 1, 68, 0
1, 58368, Note_on_c, 0, 77, 84
1, 58416, Note_on_c, 1, 70, 69
1, 58416, Note_on_c, 1, 67, 69
1, 58463, Note_on_c, 1, 70, 0
1, 58463, Note_on_c, 1, 67, 0
1, 58464, Note_on_c, 0, 77, 0
1, 58464, Note_on_c, 0, 75, 84
1, 58464, Note_on_c, 1, 70, 69
1, 58464, Note_on_c, 1, 67, 69
1, 58470, Note_on_c, 0, 75, 0
1, 58470, Note_on_c, 0, 77, 84
1, 58476, Note_on_c, 0, 77, 0
1, 58476, Note_on_c, 0, 75, 84
1, 58498, Note_on_c, 0, 75, 0
1, 58500, Note_on_c, 0, 74, 84
1, 58511, Note_on_c, 1, 70, 0
1, 58511, Note_on_c, 1, 67, 0
1, 58512, Note_on_c, 0, 74, 0
1, 58512, Note_on_c, 0, 75, 84
1, 58512, Note_on_c, 1, 70, 69
1, 58512, Note_on_c, 1, 67, 69
1, 58546, Note_on_c, 0, 75, 0
1, 58548, Note_on_c, 0, 77, 84
1, 58559, Note_on_c, 1, 70, 0
1, 58559, Note_on_c, 1, 67, 0
1, 58560, Note_on_c, 0, 77, 0
1, 58560, Note_on_c, 0, 75, 84
1, 58560, Note_on_c, 1, 70, 69
1, 58560, Note_on_c, 1, 67, 69
1, 58668, Note_on_c, 0, 75, 0
1, 58668, Note_on_c, 1, 70, 0
1, 58668, Note_on_c, 1, 67, 0
1, 58752, Note_on_c, 0, 82, 100
1, 58768, Note_on_c, 0, 82, 0
1, 58768, Note_on_c, 0, 84, 84
1, 58783, Note_on_c, 0, 84, 0
1, 58784, Note_on_c, 0, 85, 84
1, 58799, Note_on_c, 0, 85, 0
1, 58800, Note_on_c, 0, 84, 84
1, 58815, Note_on_c, 0, 84, 0
1, 58816, Note_on_c, 0, 82, 84
1, 58831, Note_on_c, 0, 82, 0
1, 58832, Note_on_c, 0, 80, 84
1, 58847, Note_on_c, 0, 80, 0
1, 58848, Note_on_c, 0, 79, 100
1, 58864, Note_on_c, 0, 79, 0
1, 58864, Note_on_c, 0, 80, 84
1, 58879, Note_on_c, 0, 80, 0
1, 58880, Note_on_c, 0, 82, 84
1, 58895, Note_on_c, 0, 82, 0
1, 58896, Note_on_c, 0, 80, 84
1, 58911, Note_on_c, 0, 80, 0
1, 58912, Note_on_c, 0, 79, 84
1, 58927, Note_on_c, 0, 79, 0
1, 58928, Note_on_c, 0, 77, 84
1, 58943, Note_on_c, 0, 77, 0
1, 58944, Note_on_c, 0, 76, 100
1, 58960, Note_on_c, 0, 76, 0
1, 58960, Note_on_c, 0, 77, 84
1, 58975, Note_on_c, 0, 77, 0
1, 58976, Note_on_c, 0, 79, 84
1, 58991, Note_on_c, 0, 79, 0
1, 58992, Note_on_c, 0, 77, 84
1, 59007, Note_on_c, 0, 77, 0
1, 59008, Note_on_c, 0, 76, 84
1, 59023, Note_on_c, 0, 76, 0
1, 59024, Note_on_c, 0, 73, 84
1, 59039, Note_on_c, 0, 73, 0
1, 59040, Note_on_c, 0, 72, 100
1, 59056, Note_on_c, 0, 72, 0
1, 59056, Note_on_c, 0, 79, 84
1, 59071, Note_on_c, 0, 79, 0
1, 59072, Note_on_c, 0, 80, 84
1, 59087, Note_on_c, 0, 80, 0
1, 59088, Note_on_c, 0, 82, 84
1, 59103, Note_on_c, 0, 82, 0
1, 59104, Note_on_c, 0, 80, 84
1, 59119, Note_on_c, 0, 80, 0
1, 59120, Note_on_c, 0, 79, 84
1, 59135, Note_on_c, 0, 79, 0
1, 59136, Note_on_c, 0, 77, 84
1, 59184, Note_on_c, 1, 68, 69
1, 59184, Note_on_c, 1, 65, 69
1, 59231, Note_on_c, 1, 68, 0
1, 59231, Note_on_c, 1, 65, 0
1, 59232, Note_on_c, 1, 68, 69
1, 59232, Note_on_c, 1, 65, 69
1, 59279, Note_on_c, 1, 68, 0
1, 59279, Note_on_c, 1, 65, 0
1, 59280, Note_on_c, 1, 68, 69
1, 59280, Note_on_c, 1, 65, 69
1, 59313, Note_on_c, 0, 77, 0
1, 59327, Note_on_c, 1, 68, 0
1, 59327, Note_on_c, 1, 65, 0
1, 59328, Note_on_c, 0, 83, 84
1, 59334, Note_on_c, 0, 83, 0
1, 59334, Note_on_c, 0, 84, 84
1, 59376, Note_on_c, 1, 67, 69
1, 59376, Note_on_c, 1, 64, 69
1, 59423, Note_on_c, 1, 67, 0
1, 59423, Note_on_c, 1, 64, 0
1, 59424, Note_on_c, 1, 67, 69
1, 59424, Note_on_c, 1, 64, 69
1, 59447, Note_on_c, 0, 84, 0
1, 59448, Note_on_c, 0, 83, 84
1, 59460, Note_on_c, 0, 83, 0
1, 59460, Note_on_c, 0, 84, 84
1, 59471, Note_on_c, 1, 67, 0
1, 59471, Note_on_c, 1, 64, 0
1, 59472, Note_on_c, 0, 84, 0
1, 59472, Note_on_c, 0, 87, 84
1, 59472, Note_on_c, 1, 67, 69
1, 59472, Note_on_c, 1, 64, 69
1, 59484, Note_on_c, 0, 87, 0
1, 59484, Note_on_c, 0, 85, 84
1, 59496, Note_on_c, 0, 85, 0
1, 59496, Note_on_c, 0, 84, 84
1, 59508, Note_on_c, 0, 84, 0
1, 59508, Note_on_c, 0, 82, 84
1, 59519, Note_on_c, 1, 67, 0
1, 59519, Note_on_c, 1, 64, 0
1, 59520, Note_on_c, 0, 82, 0
1, 59520, Note_on_c, 0, 82, 84
1, 59568, Note_on_c, 1, 72, 69
1, 59568, Note_on_c, 1, 65, 69
1, 59615, Note_on_c, 1, 72, 0
1, 59615, Note_on_c, 1, 65, 0
1, 59616, Note_on_c, 0, 82, 0
1, 59616, Note_on_c, 0, 80, 84
1, 59616, Note_on_c, 1, 72, 69
1, 59616, Note_on_c, 1, 65, 69
1, 59622, Note_on_c, 0, 80, 0
1, 59622, Note_on_c, 0, 82, 84
1, 59628, Note_on_c, 0, 82, 0
1, 59628, Note_on_c, 0, 80, 84
1, 59663, Note_on_c, 1, 72, 0
1, 59663, Note_on_c, 1, 65, 0
1, 59664, Note_on_c, 1, 72, 69
1, 59664, Note_on_c, 1, 65, 69
1, 59685, Note_on_c, 0, 80, 0
1, 59688, Note_on_c, 0, 82, 84
1, 59711, Note_on_c, 0, 82, 0
1, 59711, Note_on_c, 1, 72, 0
1, 59711, Note_on_c, 1, 65, 0
1, 59712, Note_on_c, 0, 80, 84
1, 59760, Note_on_c, 1, 73, 69
1, 59760, Note_on_c, 1, 70, 69
1, 59807, Note_on_c, 1, 73, 0
1, 59807, Note_on_c, 1, 70, 0
1, 59808, Note_on_c, 0, 80, 0
1, 59808, Note_on_c, 0, 79, 84
1, 59808, Note_on_c, 1, 73, 69
1, 59808, Note_on_c, 1, 70, 69
1, 59814, Note_on_c, 0, 79, 0
1, 59814, Note_on_c, 0, 80, 84
1, 59820, Note_on_c, 0, 80, 0
1, 59820, Note_on_c, 0, 79, 84
1, 59855, Note_on_c, 1, 73, 0
1, 59855, Note_on_c, 1, 70, 0
1, 59856, Note_on_c, 1, 73, 69
1, 59856, Note_on_c, 1, 70, 69
1, 59877, Note_on_c, 0, 79, 0
1, 59880, Note_on_c, 0, 80, 84
1, 59903, Note_on_c, 0, 80, 0
1, 59903, Note_on_c, 1, 73, 0
1, 59903, Note_on_c, 1, 70, 0
1, 59904, Note_on_c, 0, 79, 84
1, 59952, Note_on_c, 1, 72, 69
1, 59952, Note_on_c, 1, 68, 69
1, 59999, Note_on_c, 1, 72, 0
1, 59999, Note_on_c, 1, 68, 0
1, 60000, Note_on_c, 0, 79, 0
1, 60000, Note_on_c, 0, 77, 80
1, 60000, Note_on_c, 1, 72, 69
1, 60000, Note_on_c, 1, 68, 69
1, 60006, Note_on_c, 0, 77, 0
1, 60006, Note_on_c, 0, 79, 80
1, 60012, Note_on_c, 0, 79, 0
1, 60012, Note_on_c, 0, 77, 80
1, 60034, Note_on_c, 0, 77, 0
1, 60036, Note_on_c, 0, 76, 78
1, 60047, Note_on_c, 1, 72, 0
1, 60047, Note_on_c, 1, 68, 0
1, 60048, Note_on_c, 0, 76, 0
1, 60048, Note_on_c, 0, 77, 78
1, 60048, Note_on_c, 1, 72, 69
1, 60048, Note_on_c, 1, 68, 69
1, 60082, Note_on_c, 0, 77, 0
1, 60084, Note_on_c, 0, 79, 76
1, 60095, Note_on_c, 1, 72, 0
1, 60095, Note_on_c, 1, 68, 0
1, 60096, Note_on_c, 0, 79, 0
1, 60096, Note_on_c, 0, 77, 76
1, 60096, Note_on_c, 1, 72, 69
1, 60096, Note_on_c, 1, 68, 69
1, 60103, Note_on_c, 0, 77, 0
1, 60112, Note_on_c, 0, 77, 75
1, 60127, Note_on_c, 0, 77, 0
1, 60128, Note_on_c, 0, 79, 75
1, 60143, Note_on_c, 0, 79, 0
1, 60144, Note_on_c, 0, 80, 75
1, 60159, Note_on_c, 0, 80, 0
1, 60160, Note_on_c, 0, 79, 75
1, 60175, Note_on_c, 0, 79, 0
1, 60176, Note_on_c, 0, 77, 75
1, 60185, Note_on_c, 1, 72, 0
1, 60185, Note_on_c, 1, 68, 0
1, 60191, Note_on_c, 0, 77, 0
1, 60192, Note_on_c, 0, 84, 75
1, 60207, Note_on_c, 0, 84, 0
1, 60208, Note_on_c, 0, 82, 75
1, 60223, Note_on_c, 0, 82, 0
1, 60224, Note_on_c, 0, 80, 75
1, 60239, Note_on_c, 0, 80, 0
1, 60240, Note_on_c, 0, 79, 75
1, 60255, Note_on_c, 0, 79, 0
1, 60256, Note_on_c, 0, 77, 75
1, 60271, Note_on_c, 0, 77, 0
1, 60272, Note_on_c, 0, 75, 75
1, 60287, Note_on_c, 0, 75, 0
1, 60288, Note_on_c, 0, 73, 75
1, 60304, Note_on_c, 1, 70, 75
1, 60308, Note_on_c, 0, 73, 0
1, 60319, Note_on_c, 1, 70, 0
1, 60320, Note_on_c, 1, 72, 75
1, 60335, Note_on_c, 1, 72, 0
1, 60336, Note_on_c, 0, 77, 75
1, 60336, Note_on_c, 1, 73, 75
1, 60351, Note_on_c, 1, 73, 0
1, 60352, Note_on_c, 1, 72, 75
1, 60356, Note_on_c, 0, 77, 0
1, 60367, Note_on_c, 1, 72, 0
1, 60368, Note_on_c, 1, 70, 75
1, 60383, Note_on_c, 1, 70, 0
1, 60384, Note_on_c, 0, 85, 75
1, 60384, Note_on_c, 1, 77, 75
1, 60399, Note_on_c, 0, 85, 0
1, 60399, Note_on_c, 1, 77, 0
1, 60400, Note_on_c, 0, 84, 75
1, 60400, Note_on_c, 1, 75, 75
1, 60415, Note_on_c, 0, 84, 0
1, 60415, Note_on_c, 1, 75, 0
1, 60416, Note_on_c, 0, 82, 75
1, 60416, Note_on_c, 1, 73, 75
1, 60431, Note_on_c, 0, 82, 0
1, 60431, Note_on_c, 1, 73, 0
1, 60432, Note_on_c, 0, 80, 75
1, 60432, Note_on_c, 1, 72, 75
1, 60447, Note_on_c, 0, 80, 0
1, 60447, Note_on_c, 1, 72, 0
1, 60448, Note_on_c, 0, 79, 75
1, 60448, Note_on_c, 1, 70, 75
1, 60463, Note_on_c, 0, 79, 0
1, 60463, Note_on_c, 1, 70, 0
1, 60464, Note_on_c, 0, 77, 75
1, 60464, Note_on_c, 1, 68, 75
1, 60479, Note_on_c, 0, 77, 0
1, 60479, Note_on_c, 1, 68, 0
1, 60480, Note_on_c, 0, 75, 75
1, 60480, Note_on_c, 1, 67, 75
1, 60487, Note_on_c, 0, 75, 0
1, 60496, Note_on_c, 0, 75, 75
1, 60500, Note_on_c, 1, 67, 0
1, 60511, Note_on_c, 0, 75, 0
1, 60512, Note_on_c, 0, 77, 75
1, 60527, Note_on_c, 0, 77, 0
1, 60528, Note_on_c, 0, 79, 75
1, 60528, Note_on_c, 1, 70, 75
1, 60543, Note_on_c, 0, 79, 0
1, 60544, Note_on_c, 0, 77, 75
1, 60548, Note_on_c, 1, 70, 0
1, 60559, Note_on_c, 0, 77, 0
1, 60560, Note_on_c, 0, 75, 75
1, 60575, Note_on_c, 0, 75, 0
1, 60576, Note_on_c, 0, 82, 75
1, 60576, Note_on_c, 1, 63, 75
1, 60591, Note_on_c, 0, 82, 0
1, 60592, Note_on_c, 0, 80, 75
1, 60596, Note_on_c, 1, 63, 0
1, 60607, Note_on_c, 0, 80, 0
1, 60608, Note_on_c, 0, 79, 75
1, 60623, Note_on_c, 0, 79, 0
1, 60624, Note_on_c, 0, 77, 75
1, 60624, Note_on_c, 1, 67, 75
1, 60639, Note_on_c, 0, 77, 0
1, 60640, Note_on_c, 0, 75, 75
1, 60644, Note_on_c, 1, 67, 0
1, 60655, Note_on_c, 0, 75, 0
1, 60656, Note_on_c, 0, 73, 75
1, 60671, Note_on_c, 0, 73, 0
1, 60672, Note_on_c, 0, 72, 75
1, 60688, Note_on_c, 1, 68, 75
1, 60692, Note_on_c, 0, 72, 0
1, 60703, Note_on_c, 1, 68, 0
1, 60704, Note_on_c, 1, 70, 75
1, 60719, Note_on_c, 1, 70, 0
1, 60720, Note_on_c, 0, 75, 75
1, 60720, Note_on_c, 1, 72, 75
1, 60735, Note_on_c, 1, 72, 0
1, 60736, Note_on_c, 1, 70, 75
1, 60740, Note_on_c, 0, 75, 0
1, 60751, Note_on_c, 1, 70, 0
1, 60752, Note_on_c, 1, 68, 75
1, 60767, Note_on_c, 1, 68, 0
1, 60768, Note_on_c, 0, 84, 75
1, 60768, Note_on_c, 1, 75, 75
1, 60783, Note_on_c, 0, 84, 0
1, 60783, Note_on_c, 1, 75, 0
1, 60784, Note_on_c, 0, 82, 75
1, 60784, Note_on_c, 1, 73, 75
1, 60799, Note_on_c, 0, 82, 0
1, 60799, Note_on_c, 1, 73, 0
1, 60800, Note_on_c, 0, 80, 75
1, 60800, Note_on_c, 1, 72, 75
1, 60815, Note_on_c, 0, 80, 0
1, 60815, Note_on_c, 1, 72, 0
1, 60816, Note_on_c, 0, 79, 75
1, 60816, Note_on_c, 1, 70, 75
1, 60831, Note_on_c, 0, 79, 0
1, 60831, Note_on_c, 1, 70, 0
1, 60832, Note_on_c, 0, 77, 75
1, 60832, Note_on_c, 1, 68, 75
1, 60847, Note_on_c, 0, 77, 0
1, 60847, Note_on_c, 1, 68, 0
1, 60848, Note_on_c, 0, 75, 75
1, 60848, Note_on_c, 1, 67, 75
1, 60863, Note_on_c, 0, 75, 0
1, 60863, Note_on_c, 1, 67, 0
1, 60864, Note_on_c, 0, 73, 75
1, 60864, Note_on_c, 1, 65, 75
1, 60871, Note_on_c, 0, 73, 0
1, 60880, Note_on_c, 0, 73, 75
1, 60884, Note_on_c, 1, 65, 0
1, 60895, Note_on_c, 0, 73, 0
1, 60896, Note_on_c, 0, 75, 75
1, 60911, Note_on_c, 0, 75, 0
1, 60912, Note_on_c, 0, 77, 75
1, 60912, Note_on_c, 1, 68, 75
1, 60927, Note_on_c, 0, 77, 0
1, 60928, Note_on_c, 0, 75, 75
1, 60932, Note_on_c, 1, 68, 0
1, 60943, Note_on_c, 0, 75, 0
1, 60944, Note_on_c, 0, 73, 75
1, 60959, Note_on_c, 0, 73, 0
1, 60960, Note_on_c, 0, 80, 75
1, 60960, Note_on_c, 1, 61, 75
1, 60975, Note_on_c, 0, 80, 0
1, 60976, Note_on_c, 0, 79, 75
1, 60980, Note_on_c, 1, 61, 0
1, 60991, Note_on_c, 0, 79, 0
1, 60992, Note_on_c, 0, 77, 75
1, 61007, Note_on_c, 0, 77, 0
1, 61008, Note_on_c, 0, 75, 75
1, 61008, Note_on_c, 1, 65, 75
1, 61023, Note_on_c, 0, 75, 0
1, 61024, Note_on_c, 0, 73, 75
1, 61028, Note_on_c, 1, 65, 0
1, 61039, Note_on_c, 0, 73, 0
1, 61040, Note_on_c, 0, 72, 75
1, 61055, Note_on_c, 0, 72, 0
1, 61056, Note_on_c, 0, 70, 75
1, 61072, Note_on_c, 1, 67, 75
1, 61076, Note_on_c, 0, 70, 0
1, 61087, Note_on_c, 1, 67, 0
1, 61088, Note_on_c, 1, 68, 75
1, 61103, Note_on_c, 1, 68, 0
1, 61104, Note_on_c, 0, 73, 75
1, 61104, Note_on_c, 1, 70, 75
1, 61119, Note_on_c, 1, 70, 0
1, 61120, Note_on_c, 1, 68, 75
1, 61124, Note_on_c, 0, 73, 0
1, 61135, Note_on_c, 1, 68, 0
1, 61136, Note_on_c, 1, 67, 75
1, 61151, Note_on_c, 1, 67, 0
1, 61152, Note_on_c, 0, 82, 75
1, 61152, Note_on_c, 1, 73, 75
1, 61167, Note_on_c, 0, 82, 0
1, 61167, Note_on_c, 1, 73, 0
1, 61168, Note_on_c, 0, 80, 75
1, 61168, Note_on_c, 1, 72, 75
1, 61183, Note_on_c, 0, 80, 0
1, 61183, Note_on_c, 1, 72, 0
1, 61184, Note_on_c, 0, 79, 75
1, 61184, Note_on_c, 1, 70, 75
1, 61199, Note_on_c, 0, 79, 0
1, 61199, Note_on_c, 1, 70, 0
1, 61200, Note_on_c, 0, 77, 75
1, 61200, Note_on_c, 1, 68, 75
1, 61215, Note_on_c, 0, 77, 0
1, 61215, Note_on_c, 1, 68, 0
1, 61216, Note_on_c, 0, 75, 75
1, 61216, Note_on_c, 1, 67, 75
1, 61231, Note_on_c, 0, 75, 0
1, 61231, Note_on_c, 1, 67, 0
1, 61232, Note_on_c, 0, 73, 75
1, 61232, Note_on_c, 1, 65, 75
1, 61247, Note_on_c, 0, 73, 0
1, 61247, Note_on_c, 1, 65, 0
1, 61248, Note_on_c, 0, 72, 75
1, 61248, Note_on_c, 1, 64, 75
1, 61255, Note_on_c, 0, 72, 0
1, 61264, Note_on_c, 0, 72, 75
1, 61268, Note_on_c, 1, 64, 0
1, 61279, Note_on_c, 0, 72, 0
1, 61280, Note_on_c, 0, 74, 75
1, 61295, Note_on_c, 0, 74, 0
1, 61296, Note_on_c, 0, 76, 75
1, 61296, Note_on_c, 1, 67, 75
1, 61311, Note_on_c, 0, 76, 0
1, 61312, Note_on_c, 0, 74, 75
1, 61316, Note_on_c, 1, 67, 0
1, 61327, Note_on_c, 0, 74, 0
1, 61328, Note_on_c, 0, 72, 75
1, 61343, Note_on_c, 0, 72, 0
1, 61344, Note_on_c, 0, 79, 75
1, 61344, Note_on_c, 1, 60, 75
1, 61359, Note_on_c, 0, 79, 0
1, 61360, Note_on_c, 0, 77, 75
1, 61364, Note_on_c, 1, 60, 0
1, 61375, Note_on_c, 0, 77, 0
1, 61376, Note_on_c, 0, 76, 75
1, 61391, Note_on_c, 0, 76, 0
1, 61392, Note_on_c, 0, 73, 75
1, 61392, Note_on_c, 1, 64, 75
1, 61407, Note_on_c, 0, 73, 0
1, 61408, Note_on_c, 0, 72, 75
1, 61412, Note_on_c, 1, 64, 0
1, 61423, Note_on_c, 0, 72, 0
1, 61424, Note_on_c, 0, 70, 75
1, 61439, Note_on_c, 0, 70, 0
1, 61440, Note_on_c, 0, 68, 84
1, 61456, Note_on_c, 1, 65, 84
1, 61460, Note_on_c, 0, 68, 0
1, 61471, Note_on_c, 1, 65, 0
1, 61472, Note_on_c, 1, 53, 84
1, 61487, Note_on_c, 1, 53, 0
1, 61488, Note_on_c, 0, 72, 84
1, 61504, Note_on_c, 1, 65, 84
1, 61508, Note_on_c, 0, 72, 0
1, 61519, Note_on_c, 1, 65, 0
1, 61520, Note_on_c, 1, 53, 84
1, 61535, Note_on_c, 1, 53, 0
1, 61536, Note_on_c, 0, 68, 84
1, 61552, Note_on_c, 1, 65, 84
1, 61556, Note_on_c, 0, 68, 0
1, 61567, Note_on_c, 1, 65, 0
1, 61568, Note_on_c, 1, 53, 84
1, 61583, Note_on_c, 1, 53, 0
1, 61584, Note_on_c, 0, 72, 84
1, 61600, Note_on_c, 1, 65, 84
1, 61604, Note_on_c, 0, 72, 0
1, 61615, Note_on_c, 1, 65, 0
1, 61616, Note_on_c, 1, 53, 84
1, 61631, Note_on_c, 1, 53, 0
1, 61632, Note_on_c, 0, 69, 75
1, 61648, Note_on_c, 1, 66, 75
1, 61652, Note_on_c, 0, 69, 0
1, 61663, Note_on_c, 1, 66, 0
1, 61664, Note_on_c, 1, 63, 75
1, 61679, Note_on_c, 1, 63, 0
1, 61680, Note_on_c, 0, 72, 75
1, 61696, Note_on_c, 1, 66, 75
1, 61700, Note_on_c, 0, 72, 0
1, 61711, Note_on_c, 1, 66, 0
1, 61712, Note_on_c, 1, 63, 75
1, 61727, Note_on_c, 1, 63, 0
1, 61728, Note_on_c, 0, 69, 75
1, 61744, Note_on_c, 1, 66, 75
1, 61748, Note_on_c, 0, 69, 0
1, 61759, Note_on_c, 1, 66, 0
1, 61760, Note_on_c, 1, 63, 75
1, 61775, Note_on_c, 1, 63, 0
1, 61776, Note_on_c, 0, 72, 75
1, 61792, Note_on_c, 1, 66, 75
1, 61796, Note_on_c, 0, 72, 0
1, 61807, Note_on_c, 1, 66, 0
1, 61808, Note_on_c, 1, 63, 75
1, 61823, Note_on_c, 1, 63, 0
1, 61824, Note_on_c, 1, 65, 84
1, 61824, Note_on_c, 1, 61, 84
1, 61840, Note_on_c, 0, 70, 84
1, 61844, Note_on_c, 1, 65, 0
1, 61844, Note_on_c, 1, 61, 0
1, 61855, Note_on_c, 0, 70, 0
1, 61856, Note_on_c, 0, 82, 84
1, 61871, Note_on_c, 0, 82, 0
1, 61872, Note_on_c, 1, 66, 84
1, 61872, Note_on_c, 1, 63, 84
1, 61888, Note_on_c, 0, 70, 84
1, 61892, Note_on_c, 1, 66, 0
1, 61892, Note_on_c, 1, 63, 0
1, 61903, Note_on_c, 0, 70, 0
1, 61904, Note_on_c, 0, 82, 84
1, 61919, Note_on_c, 0, 82, 0
1, 61920, Note_on_c, 1, 65, 84
1, 61920, Note_on_c, 1, 61, 84
1, 61936, Note_on_c, 0, 70, 84
1, 61940, Note_on_c, 1, 65, 0
1, 61940, Note_on_c, 1, 61, 0
1, 61951, Note_on_c, 0, 70, 0
1, 61952, Note_on_c, 0, 82, 84
1, 61967, Note_on_c, 0, 82, 0
1, 61968, Note_on_c, 1, 63, 84
1, 61968, Note_on_c, 1, 60, 84
1, 61984, Note_on_c, 0, 70, 84
1, 61988, Note_on_c, 1, 63, 0
1, 61988, Note_on_c, 1, 60, 0
1, 61999, Note_on_c, 0, 70, 0
1, 62000, Note_on_c, 0, 82, 84
1, 62015, Note_on_c, 0, 82, 0
1, 62016, Note_on_c, 1, 61, 84
1, 62016, Note_on_c, 1, 58, 84
1, 62032, Note_on_c, 0, 70, 84
1, 62036, Note_on_c, 1, 61, 0
1, 62036, Note_on_c, 1, 58, 0
1, 62047, Note_on_c, 0, 70, 0
1, 62048, Note_on_c, 0, 82, 84
1, 62063, Note_on_c, 0, 82, 0
1, 62064, Note_on_c, 1, 66, 84
1, 62064, Note_on_c, 1, 63, 84
1, 62080, Note_on_c, 0, 70, 84
1, 62084, Note_on_c, 1, 66, 0
1, 62084, Note_on_c, 1, 63, 0
1, 62095, Note_on_c, 0, 70, 0
1, 62096, Note_on_c, 0, 82, 84
1, 62111, Note_on_c, 0, 82, 0
1, 62112, Note_on_c, 1, 65, 84
1, 62112, Note_on_c, 1, 61, 84
1, 62128, Note_on_c, 0, 70, 84
1, 62132, Note_on_c, 1, 65, 0
1, 62132, Note_on_c, 1, 61, 0
1, 62143, Note_on_c, 0, 70, 0
1, 62144, Note_on_c, 0, 82, 84
1, 62159, Note_on_c, 0, 82, 0
1, 62160, Note_on_c, 1, 63, 84
1, 62160, Note_on_c, 1, 60, 84
1, 62176, Note_on_c, 0, 70, 84
1, 62180, Note_on_c, 1, 63, 0
1, 62180, Note_on_c, 1, 60, 0
1, 62191, Note_on_c, 0, 70, 0
1, 62192, Note_on_c, 0, 82, 84
1, 62207, Note_on_c, 0, 82, 0
1, 62208, Note_on_c, 1, 61, 84
1, 62208, Note_on_c, 1, 58, 84
1, 62224, Note_on_c, 0, 70, 84
1, 62228, Note_on_c, 1, 61, 0
1, 62228, Note_on_c, 1, 58, 0
1, 62239, Note_on_c, 0, 70, 0
1, 62240, Note_on_c, 0, 82, 84
1, 62255, Note_on_c, 0, 82, 0
1, 62256, Note_on_c, 1, 60, 84
1, 62256, Note_on_c, 1, 56, 84
1, 62272, Note_on_c, 0, 70, 84
1, 62276, Note_on_c, 1, 60, 0
1, 62276, Note_on_c, 1, 56, 0
1, 62287, Note_on_c, 0, 70, 0
1, 62288, Note_on_c, 0, 82, 84
1, 62303, Note_on_c, 0, 82, 0
1, 62304, Note_on_c, 1, 58, 84
1, 62304, Note_on_c, 1, 55, 84
1, 62320, Note_on_c, 0, 70, 84
1, 62324, Note_on_c, 1, 58, 0
1, 62324, Note_on_c, 1, 55, 0
1, 62335, Note_on_c, 0, 70, 0
1, 62336, Note_on_c, 0, 82, 84
1, 62351, Note_on_c, 0, 82, 0
1, 62352, Note_on_c, 1, 56, 84
1, 62352, Note_on_c, 1, 53, 84
1, 62368, Note_on_c, 0, 70, 84
1, 62372, Note_on_c, 1, 56, 0
1, 62372, Note_on_c, 1, 53, 0
1, 62383, Note_on_c, 0, 70, 0
1, 62384, Note_on_c, 0, 82, 84
1, 62399, Note_on_c, 0, 82, 0
1, 62400, Note_on_c, 1, 52, 126
1, 62400, Note_on_c, 1, 40, 126
1, 62416, Note_on_c, 0, 70, 84
1, 62431, Note_on_c, 0, 70, 0
1, 62432, Note_on_c, 0, 82, 84
1, 62447, Note_on_c, 0, 82, 0
1, 62447, Note_on_c, 1, 52, 0
1, 62447, Note_on_c, 1, 40, 0
1, 62448, Note_on_c, 1, 55, 84
1, 62464, Note_on_c, 0, 70, 85
1, 62468, Note_on_c, 1, 55, 0
1, 62479, Note_on_c, 0, 70, 0
1, 62480, Note_on_c, 0, 82, 86
1, 62495, Note_on_c, 0, 82, 0
1, 62496, Note_on_c, 1, 58, 86
1, 62512, Note_on_c, 0, 70, 87
1, 62516, Note_on_c, 1, 58, 0
1, 62527, Note_on_c, 0, 70, 0
1, 62528, Note_on_c, 0, 82, 88
1, 62543, Note_on_c, 0, 82, 0
1, 62544, Note_on_c, 1, 61, 88
1, 62560, Note_on_c, 0, 70, 89
1, 62564, Note_on_c, 1, 61, 0
1, 62575, Note_on_c, 0, 70, 0
1, 62576, Note_on_c, 0, 82, 90
1, 62591, Note_on_c, 0, 82, 0
1, 62592, Note_on_c, 1, 64, 107
1, 62608, Note_on_c, 0, 70, 91
1, 62612, Note_on_c, 1, 64, 0
1, 62623, Note_on_c, 0, 70, 0
1, 62624, Note_on_c, 0, 82, 91
1, 62639, Note_on_c, 0, 82, 0
1, 62640, Note_on_c, 1, 67, 93
1, 62656, Note_on_c, 0, 70, 93
1, 62660, Note_on_c, 1, 67, 0
1, 62671, Note_on_c, 0, 70, 0
1, 62672, Note_on_c, 0, 82, 93
1, 62687, Note_on_c, 0, 82, 0
1, 62688, Note_on_c, 1, 70, 96
1, 62704, Note_on_c, 0, 73, 95
1, 62708, Note_on_c, 1, 70, 0
1, 62719, Note_on_c, 0, 73, 0
1, 62720, Note_on_c, 0, 82, 95
1, 62735, Note_on_c, 0, 82, 0
1, 62736, Note_on_c, 1, 73, 98
1, 62752, Note_on_c, 0, 76, 96
1, 62756, Note_on_c, 1, 73, 0
1, 62767, Note_on_c, 0, 76, 0
1, 62768, Note_on_c, 0, 82, 97
1, 62783, Note_on_c, 0, 82, 0
1, 62784, Note_on_c, 1, 76, 101
1, 62800, Note_on_c, 0, 79, 98
1, 62804, Note_on_c, 1, 76, 0
1, 62815, Note_on_c, 0, 79, 0
1, 62816, Note_on_c, 0, 82, 99
1, 62831, Note_on_c, 0, 82, 0
1, 62832, Note_on_c, 1, 79, 103
1, 62848, Note_on_c, 0, 79, 106
1, 62852, Note_on_c, 1, 79, 0
1, 62863, Note_on_c, 0, 79, 0
1, 62864, Note_on_c, 0, 82, 106
1, 62879, Note_on_c, 0, 82, 0
1, 62880, Note_on_c, 1, 76, 106
1, 62896, Note_on_c, 0, 79, 103
1, 62900, Note_on_c, 1, 76, 0
1, 62911, Note_on_c, 0, 79, 0
1, 62912, Note_on_c, 0, 82, 100
1, 62927, Note_on_c, 0, 82, 0
1, 62928, Note_on_c, 1, 64, 95
1, 62944, Note_on_c, 0, 79, 95
1, 62948, Note_on_c, 1, 64, 0
1, 62959, Note_on_c, 0, 79, 0
1, 62960, Note_on_c, 0, 82, 92
1, 62975, Note_on_c, 0, 82, 0
1, 62976, Note_on_c, 1, 65, 126
1, 62976, Note_on_c, 1, 53, 126
1, 62992, Note_on_c, 0, 75, 85
1, 63007, Note_on_c, 0, 75, 0
1, 63008, Note_on_c, 0, 81, 86
1, 63023, Note_on_c, 0, 81, 0
1, 63023, Note_on_c, 1, 65, 0
1, 63023, Note_on_c, 1, 53, 0
1, 63024, Note_on_c, 1, 69, 84
1, 63040, Note_on_c, 0, 75, 88
1, 63044, Note_on_c, 1, 69, 0
1, 63055, Note_on_c, 0, 75, 0
1, 63056, Note_on_c, 0, 81, 89
1, 63071, Note_on_c, 0, 81, 0
1, 63072, Note_on_c, 1, 72, 88
1, 63088, Note_on_c, 0, 75, 91
1, 63092, Note_on_c, 1, 72, 0
1, 63103, Note_on_c, 0, 75, 0
1, 63104, Note_on_c, 0, 81, 92
1, 63119, Note_on_c, 0, 81, 0
1, 63120, Note_on_c, 1, 75, 92
1, 63136, Note_on_c, 0, 75, 94
1, 63140, Note_on_c, 1, 75, 0
1, 63151, Note_on_c, 0, 75, 0
1, 63152, Note_on_c, 0, 81, 95
1, 63167, Note_on_c, 0, 81, 0
1, 63168, Note_on_c, 1, 78, 97
1, 63184, Note_on_c, 0, 75, 97
1, 63188, Note_on_c, 1, 78, 0
1, 63199, Note_on_c, 0, 75, 0
1, 63200, Note_on_c, 0, 81, 98
1, 63215, Note_on_c, 0, 81, 0
1, 63216, Note_on_c, 1, 75, 101
1, 63232, Note_on_c, 0, 75, 106
1, 63236, Note_on_c, 1, 75, 0
1, 63247, Note_on_c, 0, 75, 0
1, 63248, Note_on_c, 0, 81, 106
1, 63263, Note_on_c, 0, 81, 0
1, 63264, Note_on_c, 1, 72, 106
1, 63280, Note_on_c, 0, 75, 103
1, 63284, Note_on_c, 1, 72, 0
1, 63295, Note_on_c, 0, 75, 0
1, 63296, Note_on_c, 0, 81, 100
1, 63311, Note_on_c, 0, 81, 0
1, 63312, Note_on_c, 1, 65, 95
1, 63328, Note_on_c, 0, 75, 95
1, 63332, Note_on_c, 1, 65, 0
1, 63343, Note_on_c, 0, 75, 0
1, 63344, Note_on_c, 0, 81, 92
1, 63359, Note_on_c, 0, 81, 0
1, 63360, Note_on_c, 1, 58, 126
1, 63360, Note_on_c, 1, 46, 126
1, 63376, Note_on_c, 0, 74, 84
1, 63391, Note_on_c, 0, 74, 0
1, 63392, Note_on_c, 0, 80, 85
1, 63407, Note_on_c, 0, 80, 0
1, 63407, Note_on_c, 1, 58, 0
1, 63407, Note_on_c, 1, 46, 0
1, 63408, Note_on_c, 1, 62, 84
1, 63424, Note_on_c, 0, 74, 87
1, 63428, Note_on_c, 1, 62, 0
1, 63439, Note_on_c, 0, 74, 0
1, 63440, Note_on_c, 0, 80, 88
1, 63455, Note_on_c, 0, 80, 0
1, 63456, Note_on_c, 1, 65, 88
1, 63472, Note_on_c, 0, 74, 90
1, 63476, Note_on_c, 1, 65, 0
1, 63487, Note_on_c, 0, 74, 0
1, 63488, Note_on_c, 0, 80, 91
1, 63503, Note_on_c, 0, 80, 0
1, 63504, Note_on_c, 1, 68, 92
1, 63520, Note_on_c, 0, 74, 93
1, 63524, Note_on_c, 1, 68, 0
1, 63535, Note_on_c, 0, 74, 0
1, 63536, Note_on_c, 0, 80, 95
1, 63551, Note_on_c, 0, 80, 0
1, 63552, Note_on_c, 1, 71, 97
1, 63568, Note_on_c, 0, 74, 97
1, 63572, Note_on_c, 1, 71, 0
1, 63583, Note_on_c, 0, 74, 0
1, 63584, Note_on_c, 0, 80, 98
1, 63599, Note_on_c, 0, 80, 0
1, 63600, Note_on_c, 1, 68, 101
1, 63616, Note_on_c, 0, 74, 106
1, 63620, Note_on_c, 1, 68, 0
1, 63631, Note_on_c, 0, 74, 0
1, 63632, Note_on_c, 0, 80, 106
1, 63647, Note_on_c, 0, 80, 0
1, 63648, Note_on_c, 1, 65, 106
1, 63664, Note_on_c, 0, 74, 103
1, 63668, Note_on_c, 1, 65, 0
1, 63679, Note_on_c, 0, 74, 0
1, 63680, Note_on_c, 0, 80, 100
1, 63695, Note_on_c, 0, 80, 0
1, 63696, Note_on_c, 1, 58, 95
1, 63712, Note_on_c, 0, 74, 95
1, 63716, Note_on_c, 1, 58, 0
1, 63727, Note_on_c, 0, 74, 0
1, 63728, Note_on_c, 0, 80, 92
1, 63743, Note_on_c, 0, 80, 0
1, 63744, Note_on_c, 1, 63, 126
1, 63744, Note_on_c, 1, 51, 126
1, 63760, Note_on_c, 0, 75, 84
1, 63775, Note_on_c, 0, 75, 0
1, 63776, Note_on_c, 0, 78, 84
1, 63791, Note_on_c, 0, 78, 0
1, 63791, Note_on_c, 1, 63, 0
1, 63791, Note_on_c, 1, 51, 0
1, 63792, Note_on_c, 1, 66, 84
1, 63808, Note_on_c, 0, 75, 84
1, 63812, Note_on_c, 1, 66, 0
1, 63823, Note_on_c, 0, 75, 0
1, 63824, Note_on_c, 0, 78, 84
1, 63839, Note_on_c, 0, 78, 0
1, 63840, Note_on_c, 1, 70, 84
1, 63856, Note_on_c, 0, 75, 84
1, 63860, Note_on_c, 1, 70, 0
1, 63871, Note_on_c, 0, 75, 0
1, 63872, Note_on_c, 0, 78, 84
1, 63887, Note_on_c, 0, 78, 0
1, 63888, Note_on_c, 1, 75, 84
1, 63904, Note_on_c, 0, 75, 84
1, 63908, Note_on_c, 1, 75, 0
1, 63919, Note_on_c, 0, 75, 0
1, 63920, Note_on_c, 0, 78, 84
1, 63935, Note_on_c, 0, 78, 0
1, 63936, Note_on_c, 0, 82, 84
1, 63936, Note_on_c, 0, 78, 84
1, 63952, Note_on_c, 1, 75, 84
1, 63956, Note_on_c, 0, 82, 0
1, 63956, Note_on_c, 0, 78, 0
1, 63967, Note_on_c, 1, 75, 0
1, 63968, Note_on_c, 1, 63, 84
1, 63983, Note_on_c, 1, 63, 0
1, 63984, Note_on_c, 0, 83, 84
1, 63984, Note_on_c, 0, 80, 84
1, 64000, Note_on_c, 1, 75, 84
1, 64004, Note_on_c, 0, 83, 0
1, 64004, Note_on_c, 0, 80, 0
1, 64015, Note_on_c, 1, 75, 0
1, 64016, Note_on_c, 1, 63, 84
1, 64031, Note_on_c, 1, 63, 0
1, 64032, Note_on_c, 0, 82, 84
1, 64032, Note_on_c, 0, 78, 84
1, 64048, Note_on_c, 1, 75, 84
1, 64052, Note_on_c, 0, 82, 0
1, 64052, Note_on_c, 0, 78, 0
1, 64063, Note_on_c, 1, 75, 0
1, 64064, Note_on_c, 1, 63, 84
1, 64079, Note_on_c, 1, 63, 0
1, 64080, Note_on_c, 0, 80, 84
1, 64080, Note_on_c, 0, 77, 84
1, 64096, Note_on_c, 1, 75, 84
1, 64100, Note_on_c, 0, 80, 0
1, 64100, Note_on_c, 0, 77, 0
1, 64111, Note_on_c, 1, 75, 0
1, 64112, Note_on_c, 1, 63, 84
1, 64127, Note_on_c, 1, 63, 0
1, 64128, Note_on_c, 1, 63, 91
1, 64144, Note_on_c, 0, 75, 84
1, 64148, Note_on_c, 1, 63, 0
1, 64159, Note_on_c, 0, 75, 0
1, 64160, Note_on_c, 0, 78, 84
1, 64175, Note_on_c, 0, 78, 0
1, 64176, Note_on_c, 1, 66, 75
1, 64192, Note_on_c, 0, 75, 84
1, 64196, Note_on_c, 1, 66, 0
1, 64207, Note_on_c, 0, 75, 0
1, 64208, Note_on_c, 0, 78, 84
1, 64223, Note_on_c, 0, 78, 0
1, 64224, Note_on_c, 1, 70, 75
1, 64240, Note_on_c, 0, 75, 84
1, 64244, Note_on_c, 1, 70, 0
1, 64255, Note_on_c, 0, 75, 0
1, 64256, Note_on_c, 0, 78, 84
1, 64271, Note_on_c, 0, 78, 0
1, 64272, Note_on_c, 1, 75, 75
1, 64288, Note_on_c, 0, 75, 84
1, 64292, Note_on_c, 1, 75, 0
1, 64303, Note_on_c, 0, 75, 0
1, 64304, Note_on_c, 0, 78, 84
1, 64319, Note_on_c, 0, 78, 0
1, 64320, Note_on_c, 0, 82, 84
1, 64320, Note_on_c, 0, 78, 84
1, 64336, Note_on_c, 1, 75, 75
1, 64340, Note_on_c, 0, 82, 0
1, 64340, Note_on_c, 0, 78, 0
1, 64351, Note_on_c, 1, 75, 0
1, 64352, Note_on_c, 1, 63, 75
1, 64367, Note_on_c, 1, 63, 0
1, 64368, Note_on_c, 0, 83, 84
1, 64368, Note_on_c, 0, 80, 84
1, 64384, Note_on_c, 1, 75, 75
1, 64388, Note_on_c, 0, 83, 0
1, 64388, Note_on_c, 0, 80, 0
1, 64399, Note_on_c, 1, 75, 0
1, 64400, Note_on_c, 1, 63, 75
1, 64415, Note_on_c, 1, 63, 0
1, 64416, Note_on_c, 0, 82, 84
1, 64416, Note_on_c, 0, 78, 84
1, 64432, Note_on_c, 1, 75, 75
1, 64436, Note_on_c, 0, 82, 0
1, 64436, Note_on_c, 0, 78, 0
1, 64447, Note_on_c, 1, 75, 0
1, 64448, Note_on_c, 1, 63, 75
1, 64463, Note_on_c, 1, 63, 0
1, 64464, Note_on_c, 0, 80, 84
1, 64464, Note_on_c, 0, 77, 84
1, 64480, Note_on_c, 1, 75, 75
1, 64484, Note_on_c, 0, 80, 0
1, 64484, Note_on_c, 0, 77, 0
1, 64495, Note_on_c, 1, 75, 0
1, 64496, Note_on_c, 1, 63, 75
1, 64511, Note_on_c, 1, 63, 0
1, 64512, Note_on_c, 1, 63, 75
1, 64528, Note_on_c, 0, 75, 84
1, 64532, Note_on_c, 1, 63, 0
1, 64543, Note_on_c, 0, 75, 0
1, 64544, Note_on_c, 0, 78, 84
1, 64559, Note_on_c, 0, 78, 0
1, 64560, Note_on_c, 1, 70, 75
1, 64576, Note_on_c, 0, 75, 84
1, 64580, Note_on_c, 1, 70, 0
1, 64591, Note_on_c, 0, 75, 0
1, 64592, Note_on_c, 0, 78, 84
1, 64607, Note_on_c, 0, 78, 0
1, 64608, Note_on_c, 1, 63, 75
1, 64624, Note_on_c, 0, 75, 84
1, 64628, Note_on_c, 1, 63, 0
1, 64639, Note_on_c, 0, 75, 0
1, 64640, Note_on_c, 0, 78, 84
1, 64655, Note_on_c, 0, 78, 0
1, 64656, Note_on_c, 1, 70, 75
1, 64672, Note_on_c, 0, 75, 84
1, 64676, Note_on_c, 1, 70, 0
1, 64687, Note_on_c, 0, 75, 0
1, 64688, Note_on_c, 0, 78, 84
1, 64703, Note_on_c, 0, 78, 0
1, 64704, Note_on_c, 1, 63, 75
1, 64720, Note_on_c, 0, 73, 84
1, 64724, Note_on_c, 1, 63, 0
1, 64735, Note_on_c, 0, 73, 0
1, 64736, Note_on_c, 0, 79, 84
1, 64751, Note_on_c, 0, 79, 0
1, 64752, Note_on_c, 1, 70, 75
1, 64768, Note_on_c, 0, 73, 84
1, 64772, Note_on_c, 1, 70, 0
1, 64783, Note_on_c, 0, 73, 0
1, 64784, Note_on_c, 0, 79, 84
1, 64799, Note_on_c, 0, 79, 0
1, 64800, Note_on_c, 1, 63, 75
1, 64816, Note_on_c, 0, 73, 84
1, 64820, Note_on_c, 1, 63, 0
1, 64831, Note_on_c, 0, 73, 0
1, 64832, Note_on_c, 0, 79, 84
1, 64847, Note_on_c, 0, 79, 0
1, 64848, Note_on_c, 1, 70, 75
1, 64864, Note_on_c, 0, 73, 84
1, 64868, Note_on_c, 1, 70, 0
1, 64879, Note_on_c, 0, 73, 0
1, 64880, Note_on_c, 0, 79, 84
1, 64895, Note_on_c, 0, 79, 0
1, 64896, Note_on_c, 1, 63, 75
1, 64912, Note_on_c, 0, 71, 84
1, 64916, Note_on_c, 1, 63, 0
1, 64927, Note_on_c, 0, 71, 0
1, 64928, Note_on_c, 0, 80, 84
1, 64943, Note_on_c, 0, 80, 0
1, 64944, Note_on_c, 1, 68, 75
1, 64960, Note_on_c, 0, 71, 84
1, 64964, Note_on_c, 1, 68, 0
1, 64975, Note_on_c, 0, 71, 0
1, 64976, Note_on_c, 0, 80, 84
1, 64991, Note_on_c, 0, 80, 0
1, 64992, Note_on_c, 1, 63, 75
1, 65008, Note_on_c, 0, 71, 84
1, 65012, Note_on_c, 1, 63, 0
1, 65023, Note_on_c, 0, 71, 0
1, 65024, Note_on_c, 0, 80, 84
1, 65039, Note_on_c, 0, 80, 0
1, 65040, Note_on_c, 1, 68, 75
1, 65056, Note_on_c, 0, 71, 84
1, 65060, Note_on_c, 1, 68, 0
1, 65071, Note_on_c, 0, 71, 0
1, 65072, Note_on_c, 0, 80, 84
1, 65087, Note_on_c, 0, 80, 0
1, 65088, Note_on_c, 1, 63, 75
1, 65104, Note_on_c, 0, 72, 84
1, 65108, Note_on_c, 1, 63, 0
1, 65119, Note_on_c, 0, 72, 0
1, 65120, Note_on_c, 0, 78, 84
1, 65135, Note_on_c, 0, 78, 0
1, 65136, Note_on_c, 1, 69, 75
1, 65152, Note_on_c, 0, 72, 84
1, 65156, Note_on_c, 1, 69, 0
1, 65167, Note_on_c, 0, 72, 0
1, 65168, Note_on_c, 0, 78, 84
1, 65183, Note_on_c, 0, 78, 0
1, 65184, Note_on_c, 1, 63, 75
1, 65200, Note_on_c, 0, 72, 84
1, 65204, Note_on_c, 1, 63, 0
1, 65215, Note_on_c, 0, 72, 0
1, 65216, Note_on_c, 0, 78, 84
1, 65231, Note_on_c, 0, 78, 0
1, 65232, Note_on_c, 1, 69, 75
1, 65248, Note_on_c, 0, 72, 84
1, 65252, Note_on_c, 1, 69, 0
1, 65263, Note_on_c, 0, 72, 0
1, 65264, Note_on_c, 0, 78, 84
1, 65279, Note_on_c, 0, 78, 0
1, 65280, Note_on_c, 1, 61, 75
1, 65296, Note_on_c, 0, 73, 84
1, 65300, Note_on_c, 1, 61, 0
1, 65311, Note_on_c, 0, 73, 0
1, 65312, Note_on_c, 0, 77, 84
1, 65327, Note_on_c, 0, 77, 0
1, 65328, Note_on_c, 1, 70, 75
1, 65344, Note_on_c, 0, 73, 84
1, 65348, Note_on_c, 1, 70, 0
1, 65359, Note_on_c, 0, 73, 0
1, 65360, Note_on_c, 0, 77, 84
1, 65375, Note_on_c, 0, 77, 0
1, 65376, Note_on_c, 1, 61, 75
1, 65392, Note_on_c, 0, 73, 84
1, 65396, Note_on_c, 1, 61, 0
1, 65407, Note_on_c, 0, 73, 0
1, 65408, Note_on_c, 0, 77, 84
1, 65423, Note_on_c, 0, 77, 0
1, 65424, Note_on_c, 1, 70, 75
1, 65440, Note_on_c, 0, 73, 84
1, 65444, Note_on_c, 1, 70, 0
1, 65455, Note_on_c, 0, 73, 0
1, 65456, Note_on_c, 0, 77, 84
1, 65471, Note_on_c, 0, 77, 0
1, 65472, Note_on_c, 1, 66, 75
1, 65488, Note_on_c, 0, 70, 84
1, 65492, Note_on_c, 1, 66, 0
1, 65503, Note_on_c, 0, 70, 0
1, 65504, Note_on_c, 0, 76, 84
1, 65519, Note_on_c, 0, 76, 0
1, 65520, Note_on_c, 1, 70, 75
1, 65536, Note_on_c, 0, 73, 84
1, 65540, Note_on_c, 1, 70, 0
1, 65551, Note_on_c, 0, 73, 0
1, 65552, Note_on_c, 0, 76, 84
1, 65567, Note_on_c, 0, 76, 0
1, 65568, Note_on_c, 1, 66, 75
1, 65584, Note_on_c, 0, 70, 84
1, 65588, Note_on_c, 1, 66, 0
1, 65599, Note_on_c, 0, 70, 0
1, 65600, Note_on_c, 0, 76, 84
1, 65615, Note_on_c, 0, 76, 0
1, 65616, Note_on_c, 1, 70, 75
1, 65632, Note_on_c, 0, 73, 84
1, 65636, Note_on_c, 1, 70, 0
1, 65647, Note_on_c, 0, 73, 0
1, 65648, Note_on_c, 0, 76, 84
1, 65663, Note_on_c, 0, 76, 0
1, 65664, Note_on_c, 1, 65, 75
1, 65680, Note_on_c, 0, 69, 84
1, 65684, Note_on_c, 1, 65, 0
1, 65695, Note_on_c, 0, 69, 0
1, 65696, Note_on_c, 0, 77, 84
1, 65711, Note_on_c, 0, 77, 0
1, 65712, Note_on_c, 1, 69, 75
1, 65728, Note_on_c, 0, 72, 84
1, 65732, Note_on_c, 1, 69, 0
1, 65743, Note_on_c, 0, 72, 0
1, 65744, Note_on_c, 0, 77, 84
1, 65759, Note_on_c, 0, 77, 0
1, 65760, Note_on_c, 1, 65, 75
1, 65776, Note_on_c, 0, 69, 84
1, 65780, Note_on_c, 1, 65, 0
1, 65791, Note_on_c, 0, 69, 0
1, 65792, Note_on_c, 0, 77, 84
1, 65807, Note_on_c, 0, 77, 0
1, 65808, Note_on_c, 1, 69, 75
1, 65824, Note_on_c, 0, 72, 84
1, 65828, Note_on_c, 1, 69, 0
1, 65839, Note_on_c, 0, 72, 0
1, 65840, Note_on_c, 0, 77, 84
1, 65855, Note_on_c, 0, 77, 0
1, 65856, Note_on_c, 1, 63, 75
1, 65872, Note_on_c, 0, 69, 84
1, 65876, Note_on_c, 1, 63, 0
1, 65887, Note_on_c, 0, 69, 0
1, 65888, Note_on_c, 0, 78, 84
1, 65903, Note_on_c, 0, 78, 0
1, 65904, Note_on_c, 1, 69, 75
1, 65920, Note_on_c, 0, 72, 84
1, 65924, Note_on_c, 1, 69, 0
1, 65935, Note_on_c, 0, 72, 0
1, 65936, Note_on_c, 0, 78, 84
1, 65951, Note_on_c, 0, 78, 0
1, 65952, Note_on_c, 1, 63, 75
1, 65968, Note_on_c, 0, 69, 84
1, 65972, Note_on_c, 1, 63, 0
1, 65983, Note_on_c, 0, 69, 0
1, 65984, Note_on_c, 0, 78, 84
1, 65999, Note_on_c, 0, 78, 0
1, 66000, Note_on_c, 1, 69, 75
1, 66016, Note_on_c, 0, 72, 84
1, 66020, Note_on_c, 1, 69, 0
1, 66031, Note_on_c, 0, 72, 0
1, 66032, Note_on_c, 0, 78, 84
1, 66047, Note_on_c, 0, 78, 0
1, 66048, Note_on_c, 1, 62, 75
1, 66064, Note_on_c, 0, 70, 84
1, 66068, Note_on_c, 1, 62, 0
1, 66079, Note_on_c, 0, 70, 0
1, 66080, Note_on_c, 0, 77, 84
1, 66095, Note_on_c, 0, 77, 0
1, 66096, Note_on_c, 1, 70, 75
1, 66112, Note_on_c, 0, 74, 84
1, 66116, Note_on_c, 1, 70, 0
1, 66127, Note_on_c, 0, 74, 0
1, 66128, Note_on_c, 0, 77, 84
1, 66143, Note_on_c, 0, 77, 0
1, 66144, Note_on_c, 1, 62, 75
1, 66160, Note_on_c, 0, 70, 84
1, 66164, Note_on_c, 1, 62, 0
1, 66175, Note_on_c, 0, 70, 0
1, 66176, Note_on_c, 0, 77, 84
1, 66191, Note_on_c, 0, 77, 0
1, 66192, Note_on_c, 1, 70, 75
1, 66208, Note_on_c, 0, 74, 84
1, 66212, Note_on_c, 1, 70, 0
1, 66223, Note_on_c, 0, 74, 0
1, 66224, Note_on_c, 0, 77, 84
1, 66239, Note_on_c, 0, 77, 0
1, 66240, Note_on_c, 1, 61, 75
1, 66256, Note_on_c, 0, 71, 84
1, 66260, Note_on_c, 1, 61, 0
1, 66271, Note_on_c, 0, 71, 0
1, 66272, Note_on_c, 0, 77, 84
1, 66287, Note_on_c, 0, 77, 0
1, 66288, Note_on_c, 1, 68, 75
1, 66304, Note_on_c, 0, 71, 84
1, 66308, Note_on_c, 1, 68, 0
1, 66319, Note_on_c, 0, 71, 0
1, 66320, Note_on_c, 0, 77, 84
1, 66335, Note_on_c, 0, 77, 0
1, 66336, Note_on_c, 1, 61, 75
1, 66352, Note_on_c, 0, 71, 84
1, 66356, Note_on_c, 1, 61, 0
1, 66367, Note_on_c, 0, 71, 0
1, 66368, Note_on_c, 0, 77, 84
1, 66383, Note_on_c, 0, 77, 0
1, 66384, Note_on_c, 1, 68, 75
1, 66400, Note_on_c, 0, 71, 84
1, 66404, Note_on_c, 1, 68, 0
1, 66415, Note_on_c, 0, 71, 0
1, 66416, Note_on_c, 0, 77, 84
1, 66431, Note_on_c, 0, 77, 0
1, 66432, Note_on_c, 0, 76, 84
1, 66432, Note_on_c, 0, 72, 84
1, 66448, Note_on_c, 1, 60, 75
1, 66452, Note_on_c, 0, 76, 0
1, 66452, Note_on_c, 0, 72, 0
1, 66463, Note_on_c, 1, 60, 0
1, 66464, Note_on_c, 1, 48, 75
1, 66479, Note_on_c, 1, 48, 0
1, 66480, Note_on_c, 0, 77, 84
1, 66480, Note_on_c, 0, 74, 84
1, 66496, Note_on_c, 1, 60, 75
1, 66500, Note_on_c, 0, 77, 0
1, 66500, Note_on_c, 0, 74, 0
1, 66511, Note_on_c, 1, 60, 0
1, 66512, Note_on_c, 1, 48, 75
1, 66527, Note_on_c, 1, 48, 0
1, 66528, Note_on_c, 0, 79, 84
1, 66528, Note_on_c, 0, 76, 84
1, 66544, Note_on_c, 1, 60, 75
1, 66548, Note_on_c, 0, 79, 0
1, 66548, Note_on_c, 0, 76, 0
1, 66559, Note_on_c, 1, 60, 0
1, 66560, Note_on_c, 1, 48, 75
1, 66575, Note_on_c, 1, 48, 0
1, 66576, Note_on_c, 0, 70, 84
1, 66576, Note_on_c, 0, 67, 84
1, 66592, Note_on_c, 1, 60, 75
1, 66596, Note_on_c, 0, 70, 0
1, 66596, Note_on_c, 0, 67, 0
1, 66607, Note_on_c, 1, 60, 0
1, 66608, Note_on_c, 1, 48, 75
1, 66623, Note_on_c, 1, 48, 0
1, 66624, Note_on_c, 0, 68, 84
1, 66624, Note_on_c, 0, 65, 84
1, 66640, Note_on_c, 1, 60, 75
1, 66644, Note_on_c, 0, 68, 0
1, 66644, Note_on_c, 0, 65, 0
1, 66655, Note_on_c, 1, 60, 0
1, 66656, Note_on_c, 1, 48, 75
1, 66671, Note_on_c, 1, 48, 0
1, 66672, Note_on_c, 0, 70, 84
1, 66672, Note_on_c, 0, 67, 84
1, 66688, Note_on_c, 1, 60, 75
1, 66692, Note_on_c, 0, 70, 0
1, 66692, Note_on_c, 0, 67, 0
1, 66703, Note_on_c, 1, 60, 0
1, 66704, Note_on_c, 1, 48, 75
1, 66719, Note_on_c, 1, 48, 0
1, 66720, Note_on_c, 0, 72, 84
1, 66720, Note_on_c, 0, 68, 84
1, 66736, Note_on_c, 1, 60, 75
1, 66740, Note_on_c, 0, 72, 0
1, 66740, Note_on_c, 0, 68, 0
1, 66751, Note_on_c, 1, 60, 0
1, 66752, Note_on_c, 1, 48, 75
1, 66767, Note_on_c, 1, 48, 0
1, 66768, Note_on_c, 0, 65, 84
1, 66768, Note_on_c, 0, 56, 84
1, 66784, Note_on_c, 1, 60, 75
1, 66788, Note_on_c, 0, 65, 0
1, 66788, Note_on_c, 0, 56, 0
1, 66799, Note_on_c, 1, 60, 0
1, 66800, Note_on_c, 1, 48, 75
1, 66815, Note_on_c, 1, 48, 0
1, 66816, Note_on_c, 0, 64, 84
1, 66816, Note_on_c, 0, 55, 84
1, 66832, Note_on_c, 1, 48, 75
1, 66836, Note_on_c, 0, 64, 0
1, 66836, Note_on_c, 0, 55, 0
1, 66847, Note_on_c, 1, 48, 0
1, 66848, Note_on_c, 1, 36, 75
1, 66863, Note_on_c, 1, 36, 0
1, 66864, Note_on_c, 0, 65, 84
1, 66864, Note_on_c, 0, 56, 84
1, 66880, Note_on_c, 1, 48, 75
1, 66884, Note_on_c, 0, 65, 0
1, 66884, Note_on_c, 0, 56, 0
1, 66895, Note_on_c, 1, 48, 0
1, 66896, Note_on_c, 1, 36, 75
1, 66911, Note_on_c, 1, 36, 0
1, 66912, Note_on_c, 0, 67, 84
1, 66912, Note_on_c, 0, 58, 84
1, 66928, Note_on_c, 1, 48, 75
1, 66932, Note_on_c, 0, 67, 0
1, 66932, Note_on_c, 0, 58, 0
1, 66943, Note_on_c, 1, 48, 0
1, 66944, Note_on_c, 1, 36, 75
1, 66959, Note_on_c, 1, 36, 0
1, 66960, Note_on_c, 0, 58, 84
1, 66960, Note_on_c, 0, 55, 84
1, 66976, Note_on_c, 1, 48, 75
1, 66980, Note_on_c, 0, 58, 0
1, 66980, Note_on_c, 0, 55, 0
1, 66991, Note_on_c, 1, 48, 0
1, 66992, Note_on_c, 1, 36, 75
1, 67007, Note_on_c, 1, 36, 0
1, 67008, Note_on_c, 0, 56, 84
1, 67008, Note_on_c, 0, 53, 84
1, 67024, Note_on_c, 1, 48, 75
1, 67028, Note_on_c, 0, 56, 0
1, 67028, Note_on_c, 0, 53, 0
1, 67039, Note_on_c, 1, 48, 0
1, 67040, Note_on_c, 1, 36, 75
1, 67055, Note_on_c, 1, 36, 0
1, 67056, Note_on_c, 0, 60, 84
1, 67056, Note_on_c, 0, 56, 84
1, 67072, Note_on_c, 1, 48, 75
1, 67076, Note_on_c, 0, 60, 0
1, 67076, Note_on_c, 0, 56, 0
1, 67087, Note_on_c, 1, 48, 0
1, 67088, Note_on_c, 1, 36, 75
1, 67103, Note_on_c, 1, 36, 0
1, 67104, Note_on_c, 0, 58, 84
1, 67104, Note_on_c, 0, 55, 84
1, 67120, Note_on_c, 1, 48, 75
1, 67124, Note_on_c, 0, 58, 0
1, 67124, Note_on_c, 0, 55, 0
1, 67135, Note_on_c, 1, 48, 0
1, 67136, Note_on_c, 1, 36, 75
1, 67151, Note_on_c, 1, 36, 0
1, 67152, Note_on_c, 0, 56, 84
1, 67152, Note_on_c, 0, 53, 84
1, 67168, Note_on_c, 1, 48, 75
1, 67172, Note_on_c, 0, 56, 0
1, 67172, Note_on_c, 0, 53, 0
1, 67183, Note_on_c, 1, 48, 0
1, 67184, Note_on_c, 1, 36, 75
1, 67199, Note_on_c, 1, 36, 0
1, 67200, Note_on_c, 0, 55, 84
1, 67200, Note_on_c, 0, 52, 84
1, 67216, Note_on_c, 1, 48, 75
1, 67220, Note_on_c, 0, 55, 0
1, 67220, Note_on_c, 0, 52, 0
1, 67231, Note_on_c, 1, 48, 0
1, 67232, Note_on_c, 1, 36, 75
1, 67247, Note_on_c, 1, 36, 0
1, 67248, Note_on_c, 0, 56, 84
1, 67248, Note_on_c, 0, 53, 84
1, 67264, Note_on_c, 1, 48, 75
1, 67268, Note_on_c, 0, 56, 0
1, 67268, Note_on_c, 0, 53, 0
1, 67279, Note_on_c, 1, 48, 0
1, 67280, Note_on_c, 1, 36, 75
1, 67295, Note_on_c, 1, 36, 0
1, 67296, Note_on_c, 0, 55, 84
1, 67296, Note_on_c, 0, 52, 84
1, 67312, Note_on_c, 1, 48, 75
1, 67316, Note_on_c, 0, 55, 0
1, 67316, Note_on_c, 0, 52, 0
1, 67327, Note_on_c, 1, 48, 0
1, 67328, Note_on_c, 1, 36, 75
1, 67343, Note_on_c, 1, 36, 0
1, 67344, Note_on_c, 0, 59, 84
1, 67344, Note_on_c, 0, 50, 84
1, 67360, Note_on_c, 1, 48, 75
1, 67364, Note_on_c, 0, 59, 0
1, 67364, Note_on_c, 0, 50, 0
1, 67375, Note_on_c, 1, 48, 0
1, 67376, Note_on_c, 1, 36, 75
1, 67391, Note_on_c, 1, 36, 0
1, 67392, Note_on_c, 0, 60, 84
1, 67392, Note_on_c, 0, 52, 84
1, 67408, Note_on_c, 1, 48, 75
1, 67423, Note_on_c, 1, 48, 0
1, 67424, Note_on_c, 1, 36, 75
1, 67533, Note_on_c, 0, 60, 0
1, 67533, Note_on_c, 0, 52, 0
1, 67533, Note_on_c, 1, 36, 0
1, 67584, Note_on_c, 0, 72, 75
1, 67596, Note_on_c, 0, 72, 0
1, 67596, Note_on_c, 0, 84, 75
1, 67632, Note_on_c, 1, 68, 61
1, 67632, Note_on_c, 1, 65, 61
1, 67679, Note_on_c, 1, 68, 0
1, 67679, Note_on_c, 1, 65, 0
1, 67680, Note_on_c, 1, 68, 61
1, 67680, Note_on_c, 1, 65, 61
1, 67703, Note_on_c, 0, 84, 0
1, 67704, Note_on_c, 0, 82, 75
1, 67716, Note_on_c, 0, 82, 0
1, 67716, Note_on_c, 0, 80, 75
1, 67727, Note_on_c, 1, 68, 0
1, 67727, Note_on_c, 1, 65, 0
1, 67728, Note_on_c, 0, 80, 0
1, 67728, Note_on_c, 0, 82, 75
1, 67728, Note_on_c, 1, 68, 61
1, 67728, Note_on_c, 1, 65, 61
1, 67740, Note_on_c, 0, 82, 0
1, 67740, Note_on_c, 0, 80, 75
1, 67752, Note_on_c, 0, 80, 0
1, 67752, Note_on_c, 0, 79, 75
1, 67764, Note_on_c, 0, 79, 0
1, 67764, Note_on_c, 0, 77, 75
1, 67775, Note_on_c, 1, 68, 0
1, 67775, Note_on_c, 1, 65, 0
1, 67776, Note_on_c, 0, 77, 0
1, 67776, Note_on_c, 0, 77, 75
1, 67824, Note_on_c, 1, 70, 61
1, 67824, Note_on_c, 1, 67, 61
1, 67865, Note_on_c, 0, 77, 0
1, 67871, Note_on_c, 1, 70, 0
1, 67871, Note_on_c, 1, 67, 0
1, 67872, Note_on_c, 0, 76, 75
1, 67872, Note_on_c, 1, 70, 61
1, 67872, Note_on_c, 1, 67, 61
1, 67878, Note_on_c, 0, 76, 0
1, 67878, Note_on_c, 0, 77, 75
1, 67884, Note_on_c, 0, 77, 0
1, 67884, Note_on_c, 0, 76, 75
1, 67919, Note_on_c, 1, 70, 0
1, 67919, Note_on_c, 1, 67, 0
1, 67920, Note_on_c, 1, 70, 61
1, 67920, Note_on_c, 1, 67, 61
1, 67941, Note_on_c, 0, 76, 0
1, 67944, Note_on_c, 0, 76, 75
1, 67952, Note_on_c, 0, 76, 0
1, 67952, Note_on_c, 0, 79, 75
1, 67960, Note_on_c, 0, 79, 0
1, 67960, Note_on_c, 0, 82, 75
1, 67967, Note_on_c, 1, 70, 0
1, 67967, Note_on_c, 1, 67, 0
1, 67968, Note_on_c, 0, 82, 0
1, 67968, Note_on_c, 0, 85, 75
1, 68016, Note_on_c, 1, 67, 61
1, 68016, Note_on_c, 1, 64, 61
1, 68063, Note_on_c, 1, 67, 0
1, 68063, Note_on_c, 1, 64, 0
1, 68064, Note_on_c, 0, 85, 0
1, 68064, Note_on_c, 0, 84, 75
1, 68064, Note_on_c, 1, 67, 61
1, 68064, Note_on_c, 1, 64, 61
1, 68111, Note_on_c, 1, 67, 0
1, 68111, Note_on_c, 1, 64, 0
1, 68112, Note_on_c, 1, 67, 61
1, 68112, Note_on_c, 1, 64, 61
1, 68131, Note_on_c, 0, 84, 0
1, 68136, Note_on_c, 0, 82, 75
1, 68159, Note_on_c, 0, 82, 0
1, 68159, Note_on_c, 1, 67, 0
1, 68159, Note_on_c, 1, 64, 0
1, 68160, Note_on_c, 0, 82, 75
1, 68208, Note_on_c, 1, 66, 61
1, 68208, Note_on_c, 1, 63, 61
1, 68255, Note_on_c, 1, 66, 0
1, 68255, Note_on_c, 1, 63, 0
1, 68256, Note_on_c, 0, 82, 0
1, 68256, Note_on_c, 0, 81, 75
1, 68256, Note_on_c, 1, 66, 61
1, 68256, Note_on_c, 1, 63, 61
1, 68262, Note_on_c, 0, 81, 0
1, 68262, Note_on_c, 0, 82, 75
1, 68268, Note_on_c, 0, 82, 0
1, 68268, Note_on_c, 0, 81, 75
1, 68303, Note_on_c, 1, 66, 0
1, 68303, Note_on_c, 1, 63, 0
1, 68304, Note_on_c, 1, 66, 61
1, 68304, Note_on_c, 1, 63, 61
1, 68325, Note_on_c, 0, 81, 0
1, 68328, Note_on_c, 0, 81, 75
1, 68340, Note_on_c, 0, 81, 0
1, 68340, Note_on_c, 0, 84, 75
1, 68351, Note_on_c, 1, 66, 0
1, 68351, Note_on_c, 1, 63, 0
1, 68352, Note_on_c, 0, 84, 0
1, 68352, Note_on_c, 0, 87, 75
1, 68400, Note_on_c, 1, 66, 61
1, 68400, Note_on_c, 1, 63, 61
1, 68447, Note_on_c, 1, 66, 0
1, 68447, Note_on_c, 1, 63, 0
1, 68448, Note_on_c, 1, 66, 61
1, 68448, Note_on_c, 1, 63, 61
1, 68471, Note_on_c, 0, 87, 0
1, 68472, Note_on_c, 0, 85, 75
1, 68484, Note_on_c, 0, 85, 0
1, 68484, Note_on_c, 0, 84, 75
1, 68495, Note_on_c, 1, 66, 0
1, 68495, Note_on_c, 1, 63, 0
1, 68496, Note_on_c, 0, 84, 0
1, 68496, Note_on_c, 0, 85, 75
1, 68496, Note_on_c, 1, 66, 61
1, 68496, Note_on_c, 1, 63, 61
1, 68508, Note_on_c, 0, 85, 0
1, 68508, Note_on_c, 0, 84, 75
1, 68520, Note_on_c, 0, 84, 0
1, 68520, Note_on_c, 0, 82, 75
1, 68532, Note_on_c, 0, 82, 0
1, 68532, Note_on_c, 0, 81, 75
1, 68543, Note_on_c, 1, 66, 0
1, 68543, Note_on_c, 1, 63, 0
1, 68544, Note_on_c, 0, 81, 0
1, 68544, Note_on_c, 0, 81, 75
1, 68592, Note_on_c, 1, 65, 61
1, 68592, Note_on_c, 1, 61, 61
1, 68639, Note_on_c, 1, 65, 0
1, 68639, Note_on_c, 1, 61, 0
1, 68640, Note_on_c, 0, 81, 0
1, 68640, Note_on_c, 0, 82, 75
1, 68640, Note_on_c, 1, 65, 63
1, 68640, Note_on_c, 1, 61, 63
1, 68646, Note_on_c, 0, 82, 0
1, 68646, Note_on_c, 0, 81, 75
1, 68652, Note_on_c, 0, 81, 0
1, 68652, Note_on_c, 0, 82, 75
1, 68687, Note_on_c, 1, 65, 0
1, 68687, Note_on_c, 1, 61, 0
1, 68688, Note_on_c, 1, 65, 66
1, 68688, Note_on_c, 1, 61, 66
1, 68709, Note_on_c, 0, 82, 0
1, 68712, Note_on_c, 0, 77, 78
1, 68735, Note_on_c, 0, 77, 0
1, 68735, Note_on_c, 1, 65, 0
1, 68735, Note_on_c, 1, 61, 0
1, 68736, Note_on_c, 0, 89, 79
1, 68784, Note_on_c, 1, 65, 69
1, 68784, Note_on_c, 1, 61, 69
1, 68831, Note_on_c, 1, 65, 0
1, 68831, Note_on_c, 1, 61, 0
1, 68832, Note_on_c, 1, 65, 66
1, 68832, Note_on_c, 1, 61, 66
1, 68855, Note_on_c, 0, 89, 0
1, 68856, Note_on_c, 0, 87, 84
1, 68868, Note_on_c, 0, 87, 0
1, 68868, Note_on_c, 0, 85, 84
1, 68879, Note_on_c, 1, 65, 0
1, 68879, Note_on_c, 1, 61, 0
1, 68880, Note_on_c, 0, 85, 0
1, 68880, Note_on_c, 0, 87, 84
1, 68880, Note_on_c, 1, 65, 63
1, 68880, Note_on_c, 1, 61, 63
1, 68892, Note_on_c, 0, 87, 0
1, 68892, Note_on_c, 0, 85, 82
1, 68904, Note_on_c, 0, 85, 0
1, 68904, Note_on_c, 0, 84, 80
1, 68916, Note_on_c, 0, 84, 0
1, 68916, Note_on_c, 0, 83, 78
1, 68927, Note_on_c, 1, 65, 0
1, 68927, Note_on_c, 1, 61, 0
1, 68928, Note_on_c, 0, 83, 0
1, 68928, Note_on_c, 0, 84, 76
1, 68928, Note_on_c, 1, 64, 61
1, 68928, Note_on_c, 1, 60, 61
1, 68973, Note_on_c, 0, 84, 0
1, 68976, Note_on_c, 0, 72, 69
1, 68991, Note_on_c, 0, 72, 0
1, 68992, Note_on_c, 0, 76, 69
1, 69007, Note_on_c, 0, 76, 0
1, 69008, Note_on_c, 0, 74, 69
1, 69022, Note_on_c, 1, 64, 0
1, 69022, Note_on_c, 1, 60, 0
1, 69023, Note_on_c, 0, 74, 0
1, 69024, Note_on_c, 0, 74, 69
1, 69039, Note_on_c, 0, 74, 0
1, 69040, Note_on_c, 0, 77, 69
1, 69055, Note_on_c, 0, 77, 0
1, 69056, Note_on_c, 0, 76, 69
1, 69071, Note_on_c, 0, 76, 0
1, 69072, Note_on_c, 0, 76, 69
1, 69087, Note_on_c, 0, 76, 0
1, 69088, Note_on_c, 0, 79, 69
1, 69103, Note_on_c, 0, 79, 0
1, 69104, Note_on_c, 0, 77, 70
1, 69119, Note_on_c, 0, 77, 0
1, 69120, Note_on_c, 0, 77, 71
1, 69135, Note_on_c, 0, 77, 0
1, 69136, Note_on_c, 0, 80, 72
1, 69151, Note_on_c, 0, 80, 0
1, 69152, Note_on_c, 0, 79, 72
1, 69167, Note_on_c, 0, 79, 0
1, 69168, Note_on_c, 0, 79, 73
1, 69183, Note_on_c, 0, 79, 0
1, 69184, Note_on_c, 0, 82, 74
1, 69199, Note_on_c, 0, 82, 0
1, 69200, Note_on_c, 0, 80, 75
1, 69215, Note_on_c, 0, 80, 0
1, 69216, Note_on_c, 0, 80, 75
1, 69231, Note_on_c, 0, 80, 0
1, 69232, Note_on_c, 0, 84, 76
1, 69247, Note_on_c, 0, 84, 0
1, 69248, Note_on_c, 0, 82, 77
1, 69263, Note_on_c, 0, 82, 0
1, 69264, Note_on_c, 0, 81, 78
1, 69279, Note_on_c, 0, 81, 0
1, 69280, Note_on_c, 0, 84, 78
1, 69295, Note_on_c, 0, 84, 0
1, 69296, Note_on_c, 0, 82, 79
1, 69311, Note_on_c, 0, 82, 0
1, 69312, Note_on_c, 0, 82, 110
1, 69312, Note_on_c, 1, 73, 84
1, 69312, Note_on_c, 1, 70, 84
1, 69312, Note_on_c, 1, 67, 84
1, 69312, Note_on_c, 1, 64, 84
1, 69401, Note_on_c, 0, 82, 0
1, 69401, Note_on_c, 1, 73, 0
1, 69401, Note_on_c, 1, 70, 0
1, 69401, Note_on_c, 1, 67, 0
1, 69401, Note_on_c, 1, 64, 0
1, 69480, Note_on_c, 0, 79, 84
1, 69503, Note_on_c, 0, 79, 0
1, 69504, Note_on_c, 0, 80, 84
1, 69504, Note_on_c, 1, 72, 69
1, 69504, Note_on_c, 1, 68, 69
1, 69504, Note_on_c, 1, 65, 69
1, 69519, Note_on_c, 0, 80, 0
1, 69520, Note_on_c, 0, 84, 84
1, 69535, Note_on_c, 0, 84, 0
1, 69536, Note_on_c, 0, 82, 84
1, 69551, Note_on_c, 0, 82, 0
1, 69552, Note_on_c, 0, 80, 84
1, 69567, Note_on_c, 0, 80, 0
1, 69568, Note_on_c, 0, 79, 84
1, 69583, Note_on_c, 0, 79, 0
1, 69584, Note_on_c, 0, 77, 84
1, 69593, Note_on_c, 1, 72, 0
1, 69593, Note_on_c, 1, 68, 0
1, 69593, Note_on_c, 1, 65, 0
1, 69599, Note_on_c, 0, 77, 0
1, 69600, Note_on_c, 0, 75, 84
1, 69615, Note_on_c, 0, 75, 0
1, 69616, Note_on_c, 0, 73, 84
1, 69631, Note_on_c, 0, 73, 0
1, 69632, Note_on_c, 0, 72, 84
1, 69647, Note_on_c, 0, 72, 0
1, 69648, Note_on_c, 0, 70, 84
1, 69663, Note_on_c, 0, 70, 0
1, 69664, Note_on_c, 0, 68, 84
1, 69679, Note_on_c, 0, 68, 0
1, 69680, Note_on_c, 0, 67, 84
1, 69695, Note_on_c, 0, 67, 0
1, 69696, Note_on_c, 0, 65, 84
1, 69744, Note_on_c, 1, 59, 84
1, 69744, Note_on_c, 1, 47, 84
1, 69789, Note_on_c, 1, 59, 0
1, 69789, Note_on_c, 1, 47, 0
1, 69792, Note_on_c, 1, 60, 84
1, 69792, Note_on_c, 1, 48, 84
1, 69837, Note_on_c, 0, 65, 0
1, 69837, Note_on_c, 1, 60, 0
1, 69837, Note_on_c, 1, 48, 0
1, 69840, Note_on_c, 0, 68, 84
1, 69840, Note_on_c, 1, 48, 84
1, 69840, Note_on_c, 1, 36, 84
1, 69846, Note_on_c, 0, 68, 0
1, 69846, Note_on_c, 0, 67, 84
1, 69885, Note_on_c, 0, 67, 0
1, 69885, Note_on_c, 1, 48, 0
1, 69885, Note_on_c, 1, 36, 0
1, 69888, Note_on_c, 0, 65, 84
1, 69888, Note_on_c, 1, 41, 84
1, 69888, Note_on_c, 1, 29, 84
1, 69933, Note_on_c, 0, 65, 0
1, 69936, Note_on_c, 0, 72, 61
1, 69951, Note_on_c, 0, 72, 0
1, 69952, Note_on_c, 0, 76, 61
1, 69967, Note_on_c, 0, 76, 0
1, 69968, Note_on_c, 0, 74, 61
1, 69977, Note_on_c, 1, 41, 0
1, 69977, Note_on_c, 1, 29, 0
1, 69983, Note_on_c, 0, 74, 0
1, 69984, Note_on_c, 0, 74, 61
1, 69999, Note_on_c, 0, 74, 0
1, 70000, Note_on_c, 0, 77, 61
1, 70015, Note_on_c, 0, 77, 0
1, 70016, Note_on_c, 0, 76, 61
1, 70031, Note_on_c, 0, 76, 0
1, 70032, Note_on_c, 0, 76, 61
1, 70047, Note_on_c, 0, 76, 0
1, 70048, Note_on_c, 0, 79, 62
1, 70063, Note_on_c, 0, 79, 0
1, 70064, Note_on_c, 0, 77, 63
1, 70079, Note_on_c, 0, 77, 0
1, 70080, Note_on_c, 0, 77, 64
1, 70095, Note_on_c, 0, 77, 0
1, 70096, Note_on_c, 0, 80, 65
1, 70111, Note_on_c, 0, 80, 0
1, 70112, Note_on_c, 0, 79, 66
1, 70127, Note_on_c, 0, 79, 0
1, 70128, Note_on_c, 0, 79, 67
1, 70143, Note_on_c, 0, 79, 0
1, 70144, Note_on_c, 0, 82, 69
1, 70159, Note_on_c, 0, 82, 0
1, 70160, Note_on_c, 0, 80, 70
1, 70175, Note_on_c, 0, 80, 0
1, 70176, Note_on_c, 0, 80, 71
1, 70191, Note_on_c, 0, 80, 0
1, 70192, Note_on_c, 0, 84, 72
1, 70207, Note_on_c, 0, 84, 0
1, 70208, Note_on_c, 0, 82, 73
1, 70223, Note_on_c, 0, 82, 0
1, 70224, Note_on_c, 0, 81, 74
1, 70239, Note_on_c, 0, 81, 0
1, 70240, Note_on_c, 0, 84, 75
1, 70255, Note_on_c, 0, 84, 0
1, 70256, Note_on_c, 0, 82, 77
1, 70271, Note_on_c, 0, 82, 0
1, 70272, Note_on_c, 0, 82, 110
1, 70272, Note_on_c, 1, 73, 84
1, 70272, Note_on_c, 1, 70, 84
1, 70272, Note_on_c, 1, 67, 84
1, 70272, Note_on_c, 1, 64, 84
1, 70361, Note_on_c, 0, 82, 0
1, 70361, Note_on_c, 1, 73, 0
1, 70361, Note_on_c, 1, 70, 0
1, 70361, Note_on_c, 1, 67, 0
1, 70361, Note_on_c, 1, 64, 0
1, 70440, Note_on_c, 0, 79, 84
1, 70463, Note_on_c, 0, 79, 0
1, 70464, Note_on_c, 0, 80, 84
1, 70464, Note_on_c, 1, 72, 69
1, 70464, Note_on_c, 1, 68, 69
1, 70464, Note_on_c, 1, 65, 69
1, 70479, Note_on_c, 0, 80, 0
1, 70480, Note_on_c, 0, 84, 84
1, 70495, Note_on_c, 0, 84, 0
1, 70496, Note_on_c, 0, 82, 84
1, 70511, Note_on_c, 0, 82, 0
1, 70512, Note_on_c, 0, 80, 84
1, 70527, Note_on_c, 0, 80, 0
1, 70528, Note_on_c, 0, 79, 84
1, 70543, Note_on_c, 0, 79, 0
1, 70544, Note_on_c, 0, 77, 84
1, 70553, Note_on_c, 1, 72, 0
1, 70553, Note_on_c, 1, 68, 0
1, 70553, Note_on_c, 1, 65, 0
1, 70559, Note_on_c, 0, 77, 0
1, 70560, Note_on_c, 0, 75, 84
1, 70575, Note_on_c, 0, 75, 0
1, 70576, Note_on_c, 0, 73, 84
1, 70591, Note_on_c, 0, 73, 0
1, 70592, Note_on_c, 0, 72, 84
1, 70607, Note_on_c, 0, 72, 0
1, 70608, Note_on_c, 0, 70, 84
1, 70623, Note_on_c, 0, 70, 0
1, 70624, Note_on_c, 0, 68, 84
1, 70639, Note_on_c, 0, 68, 0
1, 70640, Note_on_c, 0, 67, 84
1, 70655, Note_on_c, 0, 67, 0
1, 70656, Note_on_c, 0, 65, 84
1, 70704, Note_on_c, 1, 59, 84
1, 70704, Note_on_c, 1, 47, 84
1, 70749, Note_on_c, 1, 59, 0
1, 70749, Note_on_c, 1, 47, 0
1, 70752, Note_on_c, 1, 60, 84
1, 70752, Note_on_c, 1, 48, 84
1, 70797, Note_on_c, 0, 65, 0
1, 70797, Note_on_c, 1, 60, 0
1, 70797, Note_on_c, 1, 48, 0
1, 70800, Note_on_c, 0, 68, 78
1, 70800, Note_on_c, 1, 48, 84
1, 70800, Note_on_c, 1, 36, 84
1, 70806, Note_on_c, 0, 68, 0
1, 70806, Note_on_c, 0, 67, 78
1, 70845, Note_on_c, 0, 67, 0
1, 70845, Note_on_c, 1, 48, 0
1, 70845, Note_on_c, 1, 36, 0
1, 70848, Note_on_c, 0, 65, 76
1, 70848, Note_on_c, 1, 41, 84
1, 70848, Note_on_c, 1, 29, 84
1, 70893, Note_on_c, 1, 41, 0
1, 70893, Note_on_c, 1, 29, 0
1, 70896, Note_on_c, 1, 56, 61
1, 70896, Note_on_c, 1, 53, 61
1, 70943, Note_on_c, 1, 56, 0
1, 70943, Note_on_c, 1, 53, 0
1, 70944, Note_on_c, 1, 56, 61
1, 70944, Note_on_c, 1, 53, 61
1, 70991, Note_on_c, 1, 56, 0
1, 70991, Note_on_c, 1, 53, 0
1, 70992, Note_on_c, 1, 56, 61
1, 70992, Note_on_c, 1, 53, 61
1, 71011, Note_on_c, 0, 65, 0
1, 71016, Note_on_c, 0, 72, 69
1, 71028, Note_on_c, 0, 72, 0
1, 71028, Note_on_c, 0, 68, 69
1, 71039, Note_on_c, 1, 56, 0
1, 71039, Note_on_c, 1, 53, 0
1, 71040, Note_on_c, 0, 68, 0
1, 71040, Note_on_c, 0, 65, 69
1, 71088, Note_on_c, 1, 56, 61
1, 71088, Note_on_c, 1, 53, 61
1, 71135, Note_on_c, 1, 56, 0
1, 71135, Note_on_c, 1, 53, 0
1, 71136, Note_on_c, 1, 56, 61
1, 71136, Note_on_c, 1, 53, 61
1, 71183, Note_on_c, 1, 56, 0
1, 71183, Note_on_c, 1, 53, 0
1, 71184, Note_on_c, 1, 56, 61
1, 71184, Note_on_c, 1, 53, 61
1, 71203, Note_on_c, 0, 65, 0
1, 71208, Note_on_c, 0, 72, 69
1, 71220, Note_on_c, 0, 72, 0
1, 71220, Note_on_c, 0, 68, 69
1, 71231, Note_on_c, 1, 56, 0
1, 71231, Note_on_c, 1, 53, 0
1, 71232, Note_on_c, 0, 68, 0
1, 71232, Note_on_c, 0, 65, 69
1, 71280, Note_on_c, 1, 56, 61
1, 71280, Note_on_c, 1, 53, 61
1, 71299, Note_on_c, 0, 65, 0
1, 71304, Note_on_c, 0, 72, 69
1, 71316, Note_on_c, 0, 72, 0
1, 71316, Note_on_c, 0, 68, 69
1, 71327, Note_on_c, 1, 56, 0
1, 71327, Note_on_c, 1, 53, 0
1, 71328, Note_on_c, 0, 68, 0
1, 71328, Note_on_c, 0, 65, 69
1, 71376, Note_on_c, 1, 56, 61
1, 71376, Note_on_c, 1, 53, 61
1, 71395, Note_on_c, 0, 65, 0
1, 71400, Note_on_c, 0, 72, 69
1, 71412, Note_on_c, 0, 72, 0
1, 71412, Note_on_c, 0, 68, 69
1, 71423, Note_on_c, 1, 56, 0
1, 71423, Note_on_c, 1, 53, 0
1, 71424, Note_on_c, 0, 68, 0
1, 71424, Note_on_c, 0, 65, 61
1, 71472, Note_on_c, 1, 56, 53
1, 71472, Note_on_c, 1, 53, 53
1, 71519, Note_on_c, 1, 56, 0
1, 71519, Note_on_c, 1, 53, 0
1, 71520, Note_on_c, 1, 56, 60
1, 71520, Note_on_c, 1, 53, 60
1, 71567, Note_on_c, 1, 56, 0
1, 71567, Note_on_c, 1, 53, 0
1, 71568, Note_on_c, 1, 56, 67
1, 71568, Note_on_c, 1, 53, 67
1, 71601, Note_on_c, 0, 65, 0
1, 71615, Note_on_c, 1, 56, 0
1, 71615, Note_on_c, 1, 53, 0
1, 71616, Note_on_c, 0, 65, 74
1, 71622, Note_on_c, 0, 65, 0
1, 71622, Note_on_c, 0, 66, 74
1, 71628, Note_on_c, 0, 66, 0
1, 71628, Note_on_c, 0, 68, 74
1, 71634, Note_on_c, 0, 68, 0
1, 71634, Note_on_c, 0, 66, 74
1, 71664, Note_on_c, 1, 56, 75
1, 71664, Note_on_c, 1, 51, 75
1, 71664, Note_on_c, 1, 48, 75
1, 71711, Note_on_c, 1, 56, 0
1, 71711, Note_on_c, 1, 51, 0
1, 71711, Note_on_c, 1, 48, 0
1, 71712, Note_on_c, 1, 56, 75
1, 71712, Note_on_c, 1, 51, 75
1, 71712, Note_on_c, 1, 48, 75
1, 71749, Note_on_c, 0, 66, 0
1, 71759, Note_on_c, 1, 56, 0
1, 71759, Note_on_c, 1, 51, 0
1, 71759, Note_on_c, 1, 48, 0
1, 71760, Note_on_c, 0, 72, 84
1, 71760, Note_on_c, 1, 56, 75
1, 71760, Note_on_c, 1, 51, 75
1, 71760, Note_on_c, 1, 48, 75
1, 71772, Note_on_c, 0, 72, 0
1, 71772, Note_on_c, 0, 70, 84
1, 71784, Note_on_c, 0, 70, 0
1, 71784, Note_on_c, 0, 68, 84
1, 71796, Note_on_c, 0, 68, 0
1, 71796, Note_on_c, 0, 66, 84
1, 71807, Note_on_c, 1, 56, 0
1, 71807, Note_on_c, 1, 51, 0
1, 71807, Note_on_c, 1, 48, 0
1, 71808, Note_on_c, 0, 66, 0
1, 71808, Note_on_c, 0, 66, 84
1, 71856, Note_on_c, 1, 56, 75
1, 71856, Note_on_c, 1, 49, 75
1, 71903, Note_on_c, 1, 56, 0
1, 71903, Note_on_c, 1, 49, 0
1, 71904, Note_on_c, 0, 66, 0
1, 71904, Note_on_c, 0, 65, 84
1, 71904, Note_on_c, 1, 56, 75
1, 71904, Note_on_c, 1, 49, 75
1, 71910, Note_on_c, 0, 65, 0
1, 71910, Note_on_c, 0, 67, 84
1, 71916, Note_on_c, 0, 67, 0
1, 71916, Note_on_c, 0, 65, 84
1, 71951, Note_on_c, 1, 56, 0
1, 71951, Note_on_c, 1, 49, 0
1, 71952, Note_on_c, 1, 56, 75
1, 71952, Note_on_c, 1, 49, 75
1, 71973, Note_on_c, 0, 65, 0
1, 71976, Note_on_c, 0, 66, 84
1, 71999, Note_on_c, 0, 66, 0
1, 71999, Note_on_c, 1, 56, 0
1, 71999, Note_on_c, 1, 49, 0
1, 72000, Note_on_c, 0, 65, 84
1, 72048, Note_on_c, 1, 53, 75
1, 72048, Note_on_c, 1, 45, 75
1, 72067, Note_on_c, 0, 65, 0
1, 72072, Note_on_c, 0, 63, 84
1, 72095, Note_on_c, 0, 63, 0
1, 72095, Note_on_c, 1, 53, 0
1, 72095, Note_on_c, 1, 45, 0
1, 72096, Note_on_c, 0, 65, 84
1, 72096, Note_on_c, 1, 53, 75
1, 72096, Note_on_c, 1, 45, 75
1, 72104, Note_on_c, 0, 65, 0
1, 72104, Note_on_c, 0, 63, 84
1, 72112, Note_on_c, 0, 63, 0
1, 72112, Note_on_c, 0, 65, 84
1, 72120, Note_on_c, 0, 65, 0
1, 72120, Note_on_c, 0, 63, 84
1, 72128, Note_on_c, 0, 63, 0
1, 72128, Note_on_c, 0, 61, 84
1, 72136, Note_on_c, 0, 61, 0
1, 72136, Note_on_c, 0, 63, 84
1, 72143, Note_on_c, 1, 53, 0
1, 72143, Note_on_c, 1, 45, 0
1, 72144, Note_on_c, 0, 63, 0
1, 72144, Note_on_c, 0, 72, 84
1, 72144, Note_on_c, 1, 53, 75
1, 72144, Note_on_c, 1, 45, 75
1, 72178, Note_on_c, 0, 72, 0
1, 72180, Note_on_c, 0, 63, 84
1, 72191, Note_on_c, 1, 53, 0
1, 72191, Note_on_c, 1, 45, 0
1, 72192, Note_on_c, 0, 63, 0
1, 72192, Note_on_c, 0, 63, 84
1, 72240, Note_on_c, 1, 53, 75
1, 72240, Note_on_c, 1, 46, 75
1, 72287, Note_on_c, 1, 53, 0
1, 72287, Note_on_c, 1, 46, 0
1, 72288, Note_on_c, 0, 63, 0
1, 72288, Note_on_c, 0, 61, 84
1, 72288, Note_on_c, 1, 53, 75
1, 72288, Note_on_c, 1, 46, 75
1, 72294, Note_on_c, 0, 61, 0
1, 72294, Note_on_c, 0, 63, 84
1, 72300, Note_on_c, 0, 63, 0
1, 72300, Note_on_c, 0, 61, 84
1, 72335, Note_on_c, 1, 53, 0
1, 72335, Note_on_c, 1, 46, 0
1, 72336, Note_on_c, 1, 53, 75
1, 72336, Note_on_c, 1, 46, 75
1, 72357, Note_on_c, 0, 61, 0
1, 72360, Note_on_c, 0, 65, 84
1, 72383, Note_on_c, 0, 65, 0
1, 72383, Note_on_c, 1, 53, 0
1, 72383, Note_on_c, 1, 46, 0
1, 72384, Note_on_c, 0, 65, 84
1, 72432, Note_on_c, 1, 51, 75
1, 72432, Note_on_c, 1, 43, 75
1, 72479, Note_on_c, 1, 51, 0
1, 72479, Note_on_c, 1, 43, 0
1, 72480, Note_on_c, 0, 65, 0
1, 72480, Note_on_c, 0, 63, 84
1, 72480, Note_on_c, 1, 51, 75
1, 72480, Note_on_c, 1, 43, 75
1, 72514, Note_on_c, 0, 63, 0
1, 72516, Note_on_c, 0, 61, 84
1, 72527, Note_on_c, 1, 51, 0
1, 72527, Note_on_c, 1, 43, 0
1, 72528, Note_on_c, 0, 61, 0
1, 72528, Note_on_c, 0, 70, 84
1, 72528, Note_on_c, 1, 51, 75
1, 72528, Note_on_c, 1, 43, 75
1, 72562, Note_on_c, 0, 70, 0
1, 72564, Note_on_c, 0, 61, 84
1, 72575, Note_on_c, 1, 51, 0
1, 72575, Note_on_c, 1, 43, 0
1, 72576, Note_on_c, 0, 61, 0
1, 72576, Note_on_c, 0, 60, 84
1, 72582, Note_on_c, 0, 60, 0
1, 72582, Note_on_c, 0, 68, 84
1, 72624, Note_on_c, 1, 60, 69
1, 72624, Note_on_c, 1, 56, 69
1, 72671, Note_on_c, 1, 60, 0
1, 72671, Note_on_c, 1, 56, 0
1, 72672, Note_on_c, 1, 60, 69
1, 72672, Note_on_c, 1, 56, 69
1, 72719, Note_on_c, 1, 60, 0
1, 72719, Note_on_c, 1, 56, 0
1, 72720, Note_on_c, 1, 60, 69
1, 72720, Note_on_c, 1, 56, 69
1, 72753, Note_on_c, 0, 68, 0
1, 72767, Note_on_c, 1, 60, 0
1, 72767, Note_on_c, 1, 56, 0
1, 72768, Note_on_c, 0, 77, 84
1, 72774, Note_on_c, 0, 77, 0
1, 72774, Note_on_c, 0, 75, 84
1, 72816, Note_on_c, 1, 58, 69
1, 72816, Note_on_c, 1, 55, 69
1, 72863, Note_on_c, 1, 58, 0
1, 72863, Note_on_c, 1, 55, 0
1, 72864, Note_on_c, 1, 58, 69
1, 72864, Note_on_c, 1, 55, 69
1, 72911, Note_on_c, 1, 58, 0
1, 72911, Note_on_c, 1, 55, 0
1, 72912, Note_on_c, 1, 58, 69
1, 72912, Note_on_c, 1, 55, 69
1, 72931, Note_on_c, 0, 75, 0
1, 72936, Note_on_c, 0, 73, 84
1, 72959, Note_on_c, 0, 73, 0
1, 72959, Note_on_c, 1, 58, 0
1, 72959, Note_on_c, 1, 55, 0
1, 72960, Note_on_c, 0, 73, 84
1, 73008, Note_on_c, 1, 63, 69
1, 73008, Note_on_c, 1, 56, 69
1, 73055, Note_on_c, 1, 63, 0
1, 73055, Note_on_c, 1, 56, 0
1, 73056, Note_on_c, 0, 73, 0
1, 73056, Note_on_c, 0, 72, 84
1, 73056, Note_on_c, 1, 63, 69
1, 73056, Note_on_c, 1, 56, 69
1, 73062, Note_on_c, 0, 72, 0
1, 73062, Note_on_c, 0, 73, 84
1, 73068, Note_on_c, 0, 73, 0
1, 73068, Note_on_c, 0, 72, 84
1, 73103, Note_on_c, 1, 63, 0
1, 73103, Note_on_c, 1, 56, 0
1, 73104, Note_on_c, 1, 63, 69
1, 73104, Note_on_c, 1, 56, 69
1, 73125, Note_on_c, 0, 72, 0
1, 73128, Note_on_c, 0, 73, 84
1, 73151, Note_on_c, 0, 73, 0
1, 73151, Note_on_c, 1, 63, 0
1, 73151, Note_on_c, 1, 56, 0
1, 73152, Note_on_c, 0, 72, 84
1, 73200, Note_on_c, 1, 65, 69
1, 73200, Note_on_c, 1, 61, 69
1, 73247, Note_on_c, 1, 65, 0
1, 73247, Note_on_c, 1, 61, 0
1, 73248, Note_on_c, 0, 72, 0
1, 73248, Note_on_c, 0, 70, 84
1, 73248, Note_on_c, 1, 65, 69
1, 73248, Note_on_c, 1, 61, 69
1, 73254, Note_on_c, 0, 70, 0
1, 73254, Note_on_c, 0, 72, 84
1, 73260, Note_on_c, 0, 72, 0
1, 73260, Note_on_c, 0, 70, 84
1, 73295, Note_on_c, 1, 65, 0
1, 73295, Note_on_c, 1, 61, 0
1, 73296, Note_on_c, 1, 65, 69
1, 73296, Note_on_c, 1, 61, 69
1, 73317, Note_on_c, 0, 70, 0
1, 73320, Note_on_c, 0, 72, 84
1, 73343, Note_on_c, 0, 72, 0
1, 73343, Note_on_c, 1, 65, 0
1, 73343, Note_on_c, 1, 61, 0
1, 73344, Note_on_c, 0, 70, 84
1, 73392, Note_on_c, 1, 63, 69
1, 73392, Note_on_c, 1, 60, 69
1, 73439, Note_on_c, 1, 63, 0
1, 73439, Note_on_c, 1, 60, 0
1, 73440, Note_on_c, 0, 70, 0
1, 73440, Note_on_c, 0, 68, 84
1, 73440, Note_on_c, 1, 63, 69
1, 73440, Note_on_c, 1, 60, 69
1, 73446, Note_on_c, 0, 68, 0
1, 73446, Note_on_c, 0, 70, 84
1, 73452, Note_on_c, 0, 70, 0
1, 73452, Note_on_c, 0, 68, 84
1, 73474, Note_on_c, 0, 68, 0
1, 73476, Note_on_c, 0, 67, 84
1, 73487, Note_on_c, 1, 63, 0
1, 73487, Note_on_c, 1, 60, 0
1, 73488, Note_on_c, 0, 67, 0
1, 73488, Note_on_c, 0, 68, 84
1, 73488, Note_on_c, 1, 63, 69
1, 73488, Note_on_c, 1, 60, 69
1, 73522, Note_on_c, 0, 68, 0
1, 73524, Note_on_c, 0, 70, 84
1, 73535, Note_on_c, 1, 63, 0
1, 73535, Note_on_c, 1, 60, 0
1, 73536, Note_on_c, 0, 70, 0
1, 73536, Note_on_c, 0, 68, 84
1, 73536, Note_on_c, 1, 63, 69
1, 73536, Note_on_c, 1, 60, 69
1, 73644, Note_on_c, 0, 68, 0
1, 73644, Note_on_c, 1, 63, 0
1, 73644, Note_on_c, 1, 60, 0
1, 73728, Note_on_c, 0, 80, 84
1, 73743, Note_on_c, 0, 80, 0
1, 73744, Note_on_c, 0, 84, 84
1, 73759, Note_on_c, 0, 84, 0
1, 73760, Note_on_c, 0, 82, 84
1, 73775, Note_on_c, 0, 82, 0
1, 73776, Note_on_c, 0, 80, 84
1, 73791, Note_on_c, 0, 80, 0
1, 73792, Note_on_c, 0, 79, 84
1, 73807, Note_on_c, 0, 79, 0
1, 73808, Note_on_c, 0, 77, 84
1, 73823, Note_on_c, 0, 77, 0
1, 73824, Note_on_c, 0, 75, 84
1, 73839, Note_on_c, 0, 75, 0
1, 73840, Note_on_c, 0, 73, 84
1, 73855, Note_on_c, 0, 73, 0
1, 73856, Note_on_c, 0, 72, 84
1, 73871, Note_on_c, 0, 72, 0
1, 73872, Note_on_c, 0, 70, 84
1, 73887, Note_on_c, 0, 70, 0
1, 73888, Note_on_c, 0, 68, 84
1, 73903, Note_on_c, 0, 68, 0
1, 73904, Note_on_c, 0, 67, 84
1, 73919, Note_on_c, 0, 67, 0
1, 73920, Note_on_c, 0, 65, 84
1, 73968, Note_on_c, 1, 56, 69
1, 73968, Note_on_c, 1, 49, 69
1, 74015, Note_on_c, 1, 56, 0
1, 74015, Note_on_c, 1, 49, 0
1, 74016, Note_on_c, 1, 56, 69
1, 74016, Note_on_c, 1, 49, 69
1, 74063, Note_on_c, 1, 56, 0
1, 74063, Note_on_c, 1, 49, 0
1, 74064, Note_on_c, 1, 56, 69
1, 74064, Note_on_c, 1, 49, 69
1, 74083, Note_on_c, 0, 65, 0
1, 74088, Note_on_c, 0, 67, 84
1, 74111, Note_on_c, 0, 67, 0
1, 74111, Note_on_c, 1, 56, 0
1, 74111, Note_on_c, 1, 49, 0
1, 74112, Note_on_c, 0, 67, 84
1, 74160, Note_on_c, 1, 51, 69
1, 74160, Note_on_c, 1, 48, 69
1, 74207, Note_on_c, 1, 51, 0
1, 74207, Note_on_c, 1, 48, 0
1, 74208, Note_on_c, 0, 67, 0
1, 74208, Note_on_c, 0, 68, 84
1, 74208, Note_on_c, 1, 51, 69
1, 74208, Note_on_c, 1, 48, 69
1, 74223, Note_on_c, 0, 68, 0
1, 74224, Note_on_c, 0, 72, 84
1, 74239, Note_on_c, 0, 72, 0
1, 74240, Note_on_c, 0, 70, 84
1, 74255, Note_on_c, 0, 70, 0
1, 74255, Note_on_c, 1, 51, 0
1, 74255, Note_on_c, 1, 48, 0
1, 74256, Note_on_c, 0, 68, 84
1, 74256, Note_on_c, 1, 53, 69
1, 74256, Note_on_c, 1, 49, 69
1, 74271, Note_on_c, 0, 68, 0
1, 74272, Note_on_c, 0, 67, 84
1, 74287, Note_on_c, 0, 67, 0
1, 74288, Note_on_c, 0, 65, 84
1, 74303, Note_on_c, 0, 65, 0
1, 74303, Note_on_c, 1, 53, 0
1, 74303, Note_on_c, 1, 49, 0
1, 74304, Note_on_c, 0, 63, 84
1, 74352, Note_on_c, 1, 60, 69
1, 74352, Note_on_c, 1, 51, 69
1, 74371, Note_on_c, 0, 63, 0
1, 74376, Note_on_c, 0, 60, 84
1, 74388, Note_on_c, 0, 60, 0
1, 74388, Note_on_c, 0, 61, 84
1, 74399, Note_on_c, 1, 60, 0
1, 74399, Note_on_c, 1, 51, 0
1, 74400, Note_on_c, 0, 61, 0
1, 74400, Note_on_c, 0, 63, 84
1, 74400, Note_on_c, 1, 58, 69
1, 74400, Note_on_c, 1, 51, 69
1, 74408, Note_on_c, 0, 63, 0
1, 74408, Note_on_c, 0, 61, 84
1, 74416, Note_on_c, 0, 61, 0
1, 74416, Note_on_c, 0, 63, 84
1, 74424, Note_on_c, 0, 63, 0
1, 74424, Note_on_c, 0, 61, 84
1, 74432, Note_on_c, 0, 61, 0
1, 74432, Note_on_c, 0, 63, 84
1, 74440, Note_on_c, 0, 63, 0
1, 74440, Note_on_c, 0, 61, 84
1, 74447, Note_on_c, 1, 58, 0
1, 74447, Note_on_c, 1, 51, 0
1, 74448, Note_on_c, 0, 61, 0
1, 74448, Note_on_c, 0, 63, 84
1, 74448, Note_on_c, 1, 58, 69
1, 74448, Note_on_c, 1, 51, 69
1, 74456, Note_on_c, 0, 63, 0
1, 74456, Note_on_c, 0, 61, 84
1, 74464, Note_on_c, 0, 61, 0
1, 74464, Note_on_c, 0, 60, 84
1, 74480, Note_on_c, 0, 60, 0
1, 74480, Note_on_c, 0, 61, 84
1, 74495, Note_on_c, 1, 58, 0
1, 74495, Note_on_c, 1, 51, 0
1, 74496, Note_on_c, 0, 61, 0
1, 74496, Note_on_c, 0, 61, 84
1, 74496, Note_on_c, 0, 58, 84
1, 74544, Note_on_c, 1, 56, 69
1, 74544, Note_on_c, 1, 44, 69
1, 74591, Note_on_c, 1, 56, 0
1, 74591, Note_on_c, 1, 44, 0
1, 74592, Note_on_c, 0, 61, 0
1, 74592, Note_on_c, 0, 58, 0
1, 74592, Note_on_c, 0, 60, 84
1, 74592, Note_on_c, 0, 56, 84
1, 74592, Note_on_c, 1, 51, 69
1, 74592, Note_on_c, 1, 44, 69
1, 74639, Note_on_c, 1, 51, 0
1, 74639, Note_on_c, 1, 44, 0
1, 74640, Note_on_c, 1, 51, 69
1, 74640, Note_on_c, 1, 44, 69
1, 74681, Note_on_c, 0, 60, 0
1, 74681, Note_on_c, 0, 56, 0
1, 74687, Note_on_c, 1, 51, 0
1, 74687, Note_on_c, 1, 44, 0
1, 74688, Note_on_c, 0, 68, 69
1, 74694, Note_on_c, 0, 68, 0
1, 74694, Note_on_c, 0, 67, 69
1, 74700, Note_on_c, 0, 67, 0
1, 74700, Note_on_c, 0, 68, 69
1, 74736, Note_on_c, 1, 59, 61
1, 74736, Note_on_c, 1, 56, 61
1, 74783, Note_on_c, 1, 59, 0
1, 74783, Note_on_c, 1, 56, 0
1, 74784, Note_on_c, 1, 59, 61
1, 74784, Note_on_c, 1, 56, 61
1, 74831, Note_on_c, 1, 59, 0
1, 74831, Note_on_c, 1, 56, 0
1, 74832, Note_on_c, 1, 59, 61
1, 74832, Note_on_c, 1, 56, 61
1, 74867, Note_on_c, 0, 68, 0
1, 74879, Note_on_c, 1, 59, 0
1, 74879, Note_on_c, 1, 56, 0
1, 74880, Note_on_c, 0, 75, 69
1, 74928, Note_on_c, 1, 58, 61
1, 74928, Note_on_c, 1, 55, 61
1, 74975, Note_on_c, 1, 58, 0
1, 74975, Note_on_c, 1, 55, 0
1, 74976, Note_on_c, 1, 58, 61
1, 74976, Note_on_c, 1, 55, 61
1, 75023, Note_on_c, 1, 58, 0
1, 75023, Note_on_c, 1, 55, 0
1, 75024, Note_on_c, 1, 58, 61
1, 75024, Note_on_c, 1, 55, 61
1, 75043, Note_on_c, 0, 75, 0
1, 75048, Note_on_c, 0, 73, 69
1, 75071, Note_on_c, 0, 73, 0
1, 75071, Note_on_c, 1, 58, 0
1, 75071, Note_on_c, 1, 55, 0
1, 75072, Note_on_c, 0, 73, 69
1, 75120, Note_on_c, 1, 63, 61
1, 75120, Note_on_c, 1, 56, 61
1, 75167, Note_on_c, 1, 63, 0
1, 75167, Note_on_c, 1, 56, 0
1, 75168, Note_on_c, 0, 73, 0
1, 75168, Note_on_c, 0, 71, 69
1, 75168, Note_on_c, 1, 63, 61
1, 75168, Note_on_c, 1, 56, 61
1, 75213, Note_on_c, 0, 71, 0
1, 75215, Note_on_c, 1, 63, 0
1, 75215, Note_on_c, 1, 56, 0
1, 75216, Note_on_c, 0, 63, 69
1, 75216, Note_on_c, 1, 59, 61
1, 75216, Note_on_c, 1, 56, 61
1, 75261, Note_on_c, 0, 63, 0
1, 75263, Note_on_c, 1, 59, 0
1, 75263, Note_on_c, 1, 56, 0
1, 75264, Note_on_c, 0, 64, 69
1, 75312, Note_on_c, 1, 59, 61
1, 75312, Note_on_c, 1, 56, 61
1, 75359, Note_on_c, 1, 59, 0
1, 75359, Note_on_c, 1, 56, 0
1, 75360, Note_on_c, 1, 59, 61
1, 75360, Note_on_c, 1, 56, 61
1, 75405, Note_on_c, 0, 64, 0
1, 75407, Note_on_c, 1, 59, 0
1, 75407, Note_on_c, 1, 56, 0
1, 75408, Note_on_c, 0, 68, 69
1, 75408, Note_on_c, 1, 59, 61
1, 75408, Note_on_c, 1, 56, 61
1, 75442, Note_on_c, 0, 68, 0
1, 75444, Note_on_c, 0, 64, 69
1, 75455, Note_on_c, 1, 59, 0
1, 75455, Note_on_c, 1, 56, 0
1, 75456, Note_on_c, 0, 64, 0
1, 75456, Note_on_c, 0, 64, 69
1, 75504, Note_on_c, 1, 58, 61
1, 75504, Note_on_c, 1, 54, 61
1, 75551, Note_on_c, 1, 58, 0
1, 75551, Note_on_c, 1, 54, 0
1, 75552, Note_on_c, 0, 64, 0
1, 75552, Note_on_c, 0, 63, 69
1, 75552, Note_on_c, 1, 58, 61
1, 75552, Note_on_c, 1, 54, 61
1, 75558, Note_on_c, 0, 63, 0
1, 75558, Note_on_c, 0, 65, 69
1, 75564, Note_on_c, 0, 65, 0
1, 75564, Note_on_c, 0, 63, 69
1, 75599, Note_on_c, 1, 58, 0
1, 75599, Note_on_c, 1, 54, 0
1, 75600, Note_on_c, 1, 58, 61
1, 75600, Note_on_c, 1, 54, 61
1, 75621, Note_on_c, 0, 63, 0
1, 75624, Note_on_c, 0, 63, 69
1, 75647, Note_on_c, 0, 63, 0
1, 75647, Note_on_c, 1, 58, 0
1, 75647, Note_on_c, 1, 54, 0
1, 75648, Note_on_c, 0, 68, 69
1, 75696, Note_on_c, 1, 56, 61
1, 75696, Note_on_c, 1, 52, 61
1, 75737, Note_on_c, 0, 68, 0
1, 75743, Note_on_c, 1, 56, 0
1, 75743, Note_on_c, 1, 52, 0
1, 75744, Note_on_c, 0, 66, 69
1, 75744, Note_on_c, 1, 56, 61
1, 75744, Note_on_c, 1, 52, 61
1, 75767, Note_on_c, 0, 66, 0
1, 75768, Note_on_c, 0, 64, 69
1, 75791, Note_on_c, 0, 64, 0
1, 75791, Note_on_c, 1, 56, 0
1, 75791, Note_on_c, 1, 52, 0
1, 75792, Note_on_c, 0, 63, 69
1, 75792, Note_on_c, 1, 56, 61
1, 75792, Note_on_c, 1, 52, 61
1, 75815, Note_on_c, 0, 63, 0
1, 75816, Note_on_c, 0, 62, 69
1, 75839, Note_on_c, 0, 62, 0
1, 75839, Note_on_c, 1, 56, 0
1, 75839, Note_on_c, 1, 52, 0
1, 75840, Note_on_c, 0, 62, 69
1, 75888, Note_on_c, 1, 55, 61
1, 75888, Note_on_c, 1, 51, 61
1, 75935, Note_on_c, 1, 55, 0
1, 75935, Note_on_c, 1, 51, 0
1, 75936, Note_on_c, 0, 62, 0
1, 75936, Note_on_c, 0, 63, 69
1, 75936, Note_on_c, 1, 55, 61
1, 75936, Note_on_c, 1, 51, 61
1, 75983, Note_on_c, 1, 55, 0
1, 75983, Note_on_c, 1, 51, 0
1, 75984, Note_on_c, 1, 55, 61
1, 75984, Note_on_c, 1, 51, 61
1, 76025, Note_on_c, 0, 63, 0
1, 76031, Note_on_c, 1, 55, 0
1, 76031, Note_on_c, 1, 51, 0
1, 76032, Note_on_c, 1, 61, 75
1, 76032, Note_on_c, 1, 58, 75
1, 76032, Note_on_c, 1, 51, 75
1, 76048, Note_on_c, 0, 79, 75
1, 76063, Note_on_c, 0, 79, 0
1, 76064, Note_on_c, 0, 80, 75
1, 76079, Note_on_c, 0, 80, 0
1, 76080, Note_on_c, 0, 82, 75
1, 76095, Note_on_c, 0, 82, 0
1, 76096, Note_on_c, 0, 80, 75
1, 76111, Note_on_c, 0, 80, 0
1, 76112, Note_on_c, 0, 79, 75
1, 76121, Note_on_c, 1, 61, 0
1, 76121, Note_on_c, 1, 58, 0
1, 76121, Note_on_c, 1, 51, 0
1, 76127, Note_on_c, 0, 79, 0
1, 76128, Note_on_c, 1, 60, 75
1, 76128, Note_on_c, 1, 56, 75
1, 76128, Note_on_c, 1, 51, 75
1, 76144, Note_on_c, 0, 80, 75
1, 76159, Note_on_c, 0, 80, 0
1, 76160, Note_on_c, 0, 82, 75
1, 76175, Note_on_c, 0, 82, 0
1, 76176, Note_on_c, 0, 84, 75
1, 76191, Note_on_c, 0, 84, 0
1, 76192, Note_on_c, 0, 82, 75
1, 76207, Note_on_c, 0, 82, 0
1, 76208, Note_on_c, 0, 80, 75
1, 76217, Note_on_c, 1, 60, 0
1, 76217, Note_on_c, 1, 56, 0
1, 76217, Note_on_c, 1, 51, 0
1, 76223, Note_on_c, 0, 80, 0
1, 76224, Note_on_c, 0, 82, 75
1, 76224, Note_on_c, 1, 58, 75
1, 76224, Note_on_c, 1, 55, 75
1, 76224, Note_on_c, 1, 51, 75
1, 76239, Note_on_c, 0, 82, 0
1, 76240, Note_on_c, 0, 85, 75
1, 76255, Note_on_c, 0, 85, 0
1, 76256, Note_on_c, 0, 84, 75
1, 76271, Note_on_c, 0, 84, 0
1, 76272, Note_on_c, 0, 82, 75
1, 76287, Note_on_c, 0, 82, 0
1, 76288, Note_on_c, 0, 80, 75
1, 76303, Note_on_c, 0, 80, 0
1, 76304, Note_on_c, 0, 79, 75
1, 76313, Note_on_c, 1, 58, 0
1, 76313, Note_on_c, 1, 55, 0
1, 76313, Note_on_c, 1, 51, 0
1, 76319, Note_on_c, 0, 79, 0
1, 76320, Note_on_c, 0, 77, 75
1, 76335, Note_on_c, 0, 77, 0
1, 76336, Note_on_c, 0, 75, 75
1, 76351, Note_on_c, 0, 75, 0
1, 76352, Note_on_c, 0, 73, 75
1, 76367, Note_on_c, 0, 73, 0
1, 76368, Note_on_c, 0, 72, 75
1, 76383, Note_on_c, 0, 72, 0
1, 76384, Note_on_c, 0, 70, 75
1, 76399, Note_on_c, 0, 70, 0
1, 76400, Note_on_c, 0, 68, 75
1, 76415, Note_on_c, 0, 68, 0
1, 76416, Note_on_c, 1, 61, 75
1, 76416, Note_on_c, 1, 58, 75
1, 76416, Note_on_c, 1, 51, 75
1, 76432, Note_on_c, 0, 67, 75
1, 76447, Note_on_c, 0, 67, 0
1, 76448, Note_on_c, 0, 68, 75
1, 76463, Note_on_c, 0, 68, 0
1, 76464, Note_on_c, 0, 70, 75
1, 76479, Note_on_c, 0, 70, 0
1, 76480, Note_on_c, 0, 68, 75
1, 76495, Note_on_c, 0, 68, 0
1, 76496, Note_on_c, 0, 67, 75
1, 76505, Note_on_c, 1, 61, 0
1, 76505, Note_on_c, 1, 58, 0
1, 76505, Note_on_c, 1, 51, 0
1, 76511, Note_on_c, 0, 67, 0
1, 76512, Note_on_c, 1, 60, 75
1, 76512, Note_on_c, 1, 56, 75
1, 76512, Note_on_c, 1, 51, 75
1, 76528, Note_on_c, 0, 68, 75
1, 76543, Note_on_c, 0, 68, 0
1, 76544, Note_on_c, 0, 70, 75
1, 76559, Note_on_c, 0, 70, 0
1, 76560, Note_on_c, 0, 72, 75
1, 76575, Note_on_c, 0, 72, 0
1, 76576, Note_on_c, 0, 70, 75
1, 76591, Note_on_c, 0, 70, 0
1, 76592, Note_on_c, 0, 68, 75
1, 76601, Note_on_c, 1, 60, 0
1, 76601, Note_on_c, 1, 56, 0
1, 76601, Note_on_c, 1, 51, 0
1, 76607, Note_on_c, 0, 68, 0
1, 76608, Note_on_c, 0, 70, 75
1, 76608, Note_on_c, 1, 58, 75
1, 76608, Note_on_c, 1, 55, 75
1, 76608, Note_on_c, 1, 51, 75
1, 76623, Note_on_c, 0, 70, 0
1, 76624, Note_on_c, 0, 73, 75
1, 76639, Note_on_c, 0, 73, 0
1, 76640, Note_on_c, 0, 72, 75
1, 76655, Note_on_c, 0, 72, 0
1, 76656, Note_on_c, 0, 70, 75
1, 76671, Note_on_c, 0, 70, 0
1, 76672, Note_on_c, 0, 68, 75
1, 76687, Note_on_c, 0, 68, 0
1, 76688, Note_on_c, 0, 67, 75
1, 76697, Note_on_c, 1, 58, 0
1, 76697, Note_on_c, 1, 55, 0
1, 76697, Note_on_c, 1, 51, 0
1, 76703, Note_on_c, 0, 67, 0
1, 76704, Note_on_c, 0, 65, 75
1, 76719, Note_on_c, 0, 65, 0
1, 76720, Note_on_c, 0, 63, 75
1, 76735, Note_on_c, 0, 63, 0
1, 76736, Note_on_c, 0, 61, 75
1, 76751, Note_on_c, 0, 61, 0
1, 76752, Note_on_c, 0, 60, 75
1, 76767, Note_on_c, 0, 60, 0
1, 76768, Note_on_c, 0, 58, 75
1, 76783, Note_on_c, 0, 58, 0
1, 76784, Note_on_c, 0, 56, 75
1, 76799, Note_on_c, 0, 56, 0
1, 76800, Note_on_c, 1, 51, 84
1, 76816, Note_on_c, 0, 55, 84
1, 76820, Note_on_c, 1, 51, 0
1, 76831, Note_on_c, 0, 55, 0
1, 76832, Note_on_c, 0, 58, 84
1, 76847, Note_on_c, 0, 58, 0
1, 76848, Note_on_c, 1, 51, 84
1, 76864, Note_on_c, 0, 53, 84
1, 76868, Note_on_c, 1, 51, 0
1, 76879, Note_on_c, 0, 53, 0
1, 76880, Note_on_c, 0, 56, 84
1, 76895, Note_on_c, 0, 56, 0
1, 76896, Note_on_c, 1, 51, 84
1, 76912, Note_on_c, 0, 55, 84
1, 76916, Note_on_c, 1, 51, 0
1, 76927, Note_on_c, 0, 55, 0
1, 76928, Note_on_c, 0, 58, 84
1, 76943, Note_on_c, 0, 58, 0
1, 76944, Note_on_c, 1, 51, 84
1, 76960, Note_on_c, 0, 56, 84
1, 76964, Note_on_c, 1, 51, 0
1, 76975, Note_on_c, 0, 56, 0
1, 76976, Note_on_c, 0, 60, 84
1, 76991, Note_on_c, 0, 60, 0
1, 76992, Note_on_c, 1, 51, 84
1, 77008, Note_on_c, 0, 58, 84
1, 77012, Note_on_c, 1, 51, 0
1, 77023, Note_on_c, 0, 58, 0
1, 77024, Note_on_c, 0, 61, 84
1, 77039, Note_on_c, 0, 61, 0
1, 77040, Note_on_c, 1, 51, 84
1, 77056, Note_on_c, 0, 55, 84
1, 77060, Note_on_c, 1, 51, 0
1, 77071, Note_on_c, 0, 55, 0
1, 77072, Note_on_c, 0, 58, 84
1, 77087, Note_on_c, 0, 58, 0
1, 77088, Note_on_c, 1, 51, 84
1, 77104, Note_on_c, 0, 56, 84
1, 77108, Note_on_c, 1, 51, 0
1, 77119, Note_on_c, 0, 56, 0
1, 77120, Note_on_c, 0, 60, 84
1, 77135, Note_on_c, 0, 60, 0
1, 77136, Note_on_c, 1, 51, 84
1, 77152, Note_on_c, 0, 60, 84
1, 77156, Note_on_c, 1, 51, 0
1, 77167, Note_on_c, 0, 60, 0
1, 77168, Note_on_c, 0, 63, 84
1, 77183, Note_on_c, 0, 63, 0
1, 77184, Note_on_c, 1, 51, 84
1, 77200, Note_on_c, 0, 51, 84
1, 77204, Note_on_c, 1, 51, 0
1, 77215, Note_on_c, 0, 51, 0
1, 77216, Note_on_c, 0, 55, 84
1, 77231, Note_on_c, 0, 55, 0
1, 77232, Note_on_c, 1, 51, 84
1, 77248, Note_on_c, 0, 53, 84
1, 77252, Note_on_c, 1, 51, 0
1, 77263, Note_on_c, 0, 53, 0
1, 77264, Note_on_c, 0, 56, 84
1, 77279, Note_on_c, 0, 56, 0
1, 77280, Note_on_c, 1, 51, 84
1, 77296, Note_on_c, 0, 55, 84
1, 77300, Note_on_c, 1, 51, 0
1, 77311, Note_on_c, 0, 55, 0
1, 77312, Note_on_c, 0, 58, 84
1, 77327, Note_on_c, 0, 58, 0
1, 77328, Note_on_c, 1, 51, 84
1, 77344, Note_on_c, 0, 56, 84
1, 77348, Note_on_c, 1, 51, 0
1, 77359, Note_on_c, 0, 56, 0
1, 77360, Note_on_c, 0, 60, 84
1, 77375, Note_on_c, 0, 60, 0
1, 77376, Note_on_c, 1, 51, 84
1, 77392, Note_on_c, 0, 58, 84
1, 77396, Note_on_c, 1, 51, 0
1, 77407, Note_on_c, 0, 58, 0
1, 77408, Note_on_c, 0, 61, 84
1, 77423, Note_on_c, 0, 61, 0
1, 77424, Note_on_c, 1, 51, 84
1, 77440, Note_on_c, 0, 55, 84
1, 77444, Note_on_c, 1, 51, 0
1, 77455, Note_on_c, 0, 55, 0
1, 77456, Note_on_c, 0, 58, 84
1, 77471, Note_on_c, 0, 58, 0
1, 77472, Note_on_c, 1, 51, 84
1, 77488, Note_on_c, 0, 56, 84
1, 77492, Note_on_c, 1, 51, 0
1, 77503, Note_on_c, 0, 56, 0
1, 77504, Note_on_c, 0, 60, 84
1, 77519, Note_on_c, 0, 60, 0
1, 77520, Note_on_c, 1, 51, 84
1, 77536, Note_on_c, 0, 60, 84
1, 77540, Note_on_c, 1, 51, 0
1, 77551, Note_on_c, 0, 60, 0
1, 77552, Note_on_c, 0, 62, 84
1, 77567, Note_on_c, 0, 62, 0
1, 77568, Note_on_c, 0, 63, 84
1, 77568, Note_on_c, 0, 55, 84
1, 77568, Note_on_c, 1, 51, 84
1, 77753, Note_on_c, 0, 63, 0
1, 77753, Note_on_c, 0, 55, 0
1, 77753, Note_on_c, 1, 51, 0
1, 77952, Note_on_c, 0, 75, 69
1, 77952, Note_on_c, 0, 72, 69
1, 77968, Note_on_c, 1, 56, 69
1, 77983, Note_on_c, 1, 56, 0
1, 77984, Note_on_c, 1, 58, 69
1, 77999, Note_on_c, 1, 58, 0
1, 78000, Note_on_c, 1, 60, 69
1, 78015, Note_on_c, 1, 60, 0
1, 78016, Note_on_c, 1, 58, 69
1, 78031, Note_on_c, 1, 58, 0
1, 78032, Note_on_c, 1, 56, 69
1, 78041, Note_on_c, 0, 75, 0
1, 78041, Note_on_c, 0, 72, 0
1, 78047, Note_on_c, 1, 56, 0
1, 78048, Note_on_c, 0, 75, 69
1, 78048, Note_on_c, 0, 73, 69
1, 78048, Note_on_c, 1, 55, 69
1, 78063, Note_on_c, 1, 55, 0
1, 78064, Note_on_c, 1, 58, 69
1, 78079, Note_on_c, 1, 58, 0
1, 78080, Note_on_c, 1, 63, 69
1, 78095, Note_on_c, 1, 63, 0
1, 78096, Note_on_c, 1, 67, 69
1, 78111, Note_on_c, 1, 67, 0
1, 78112, Note_on_c, 1, 65, 69
1, 78127, Note_on_c, 1, 65, 0
1, 78128, Note_on_c, 1, 63, 69
1, 78137, Note_on_c, 0, 75, 0
1, 78137, Note_on_c, 0, 73, 0
1, 78143, Note_on_c, 1, 63, 0
1, 78144, Note_on_c, 0, 75, 69
1, 78144, Note_on_c, 0, 72, 69
1, 78144, Note_on_c, 1, 68, 69
1, 78159, Note_on_c, 0, 75, 0
1, 78159, Note_on_c, 0, 72, 0
1, 78160, Note_on_c, 0, 72, 69
1, 78175, Note_on_c, 0, 72, 0
1, 78176, Note_on_c, 0, 73, 69
1, 78191, Note_on_c, 0, 73, 0
1, 78192, Note_on_c, 0, 75, 69
1, 78207, Note_on_c, 0, 75, 0
1, 78208, Note_on_c, 0, 73, 69
1, 78223, Note_on_c, 0, 73, 0
1, 78224, Note_on_c, 0, 72, 69
1, 78233, Note_on_c, 1, 68, 0
1, 78239, Note_on_c, 0, 72, 0
1, 78240, Note_on_c, 0, 80, 69
1, 78255, Note_on_c, 0, 80, 0
1, 78256, Note_on_c, 0, 79, 69
1, 78271, Note_on_c, 0, 79, 0
1, 78272, Note_on_c, 0, 77, 69
1, 78287, Note_on_c, 0, 77, 0
1, 78288, Note_on_c, 0, 75, 69
1, 78303, Note_on_c, 0, 75, 0
1, 78304, Note_on_c, 0, 73, 69
1, 78319, Note_on_c, 0, 73, 0
1, 78320, Note_on_c, 0, 72, 69
1, 78335, Note_on_c, 0, 72, 0
1, 78336, Note_on_c, 0, 75, 69
1, 78336, Note_on_c, 0, 72, 69
1, 78352, Note_on_c, 1, 56, 69
1, 78367, Note_on_c, 1, 56, 0
1, 78368, Note_on_c, 1, 58, 69
1, 78383, Note_on_c, 1, 58, 0
1, 78384, Note_on_c, 1, 60, 69
1, 78399, Note_on_c, 1, 60, 0
1, 78400, Note_on_c, 1, 58, 69
1, 78415, Note_on_c, 1, 58, 0
1, 78416, Note_on_c, 1, 56, 69
1, 78425, Note_on_c, 0, 75, 0
1, 78425, Note_on_c, 0, 72, 0
1, 78431, Note_on_c, 1, 56, 0
1, 78432, Note_on_c, 0, 75, 69
1, 78432, Note_on_c, 0, 73, 69
1, 78432, Note_on_c, 1, 55, 69
1, 78447, Note_on_c, 1, 55, 0
1, 78448, Note_on_c, 1, 58, 69
1, 78463, Note_on_c, 1, 58, 0
1, 78464, Note_on_c, 1, 63, 69
1, 78479, Note_on_c, 1, 63, 0
1, 78480, Note_on_c, 1, 67, 69
1, 78495, Note_on_c, 1, 67, 0
1, 78496, Note_on_c, 1, 65, 69
1, 78511, Note_on_c, 1, 65, 0
1, 78512, Note_on_c, 1, 63, 69
1, 78521, Note_on_c, 0, 75, 0
1, 78521, Note_on_c, 0, 73, 0
1, 78527, Note_on_c, 1, 63, 0
1, 78528, Note_on_c, 0, 75, 69
1, 78528, Note_on_c, 0, 72, 69
1, 78528, Note_on_c, 1, 68, 69
1, 78543, Note_on_c, 0, 75, 0
1, 78543, Note_on_c, 0, 72, 0
1, 78544, Note_on_c, 0, 72, 69
1, 78559, Note_on_c, 0, 72, 0
1, 78560, Note_on_c, 0, 73, 69
1, 78575, Note_on_c, 0, 73, 0
1, 78576, Note_on_c, 0, 75, 69
1, 78591, Note_on_c, 0, 75, 0
1, 78592, Note_on_c, 0, 73, 69
1, 78607, Note_on_c, 0, 73, 0
1, 78608, Note_on_c, 0, 72, 69
1, 78617, Note_on_c, 1, 68, 0
1, 78623, Note_on_c, 0, 72, 0
1, 78624, Note_on_c, 0, 80, 69
1, 78639, Note_on_c, 0, 80, 0
1, 78640, Note_on_c, 0, 79, 69
1, 78655, Note_on_c, 0, 79, 0
1, 78656, Note_on_c, 0, 77, 70
1, 78671, Note_on_c, 0, 77, 0
1, 78672, Note_on_c, 0, 75, 71
1, 78687, Note_on_c, 0, 75, 0
1, 78688, Note_on_c, 0, 73, 72
1, 78703, Note_on_c, 0, 73, 0
1, 78704, Note_on_c, 0, 72, 72
1, 78719, Note_on_c, 0, 72, 0
1, 78720, Note_on_c, 0, 70, 75
1, 78720, Note_on_c, 1, 58, 75
1, 78720, Note_on_c, 1, 53, 75
1, 78720, Note_on_c, 1, 49, 75
1, 78735, Note_on_c, 0, 70, 0
1, 78736, Note_on_c, 0, 82, 75
1, 78751, Note_on_c, 0, 82, 0
1, 78752, Note_on_c, 0, 84, 75
1, 78767, Note_on_c, 0, 84, 0
1, 78768, Note_on_c, 0, 85, 75
1, 78783, Note_on_c, 0, 85, 0
1, 78784, Note_on_c, 0, 84, 75
1, 78799, Note_on_c, 0, 84, 0
1, 78800, Note_on_c, 0, 82, 75
1, 78809, Note_on_c, 1, 58, 0
1, 78809, Note_on_c, 1, 53, 0
1, 78809, Note_on_c, 1, 49, 0
1, 78815, Note_on_c, 0, 82, 0
1, 78816, Note_on_c, 0, 89, 75
1, 78831, Note_on_c, 0, 89, 0
1, 78832, Note_on_c, 0, 87, 75
1, 78847, Note_on_c, 0, 87, 0
1, 78848, Note_on_c, 0, 85, 75
1, 78863, Note_on_c, 0, 85, 0
1, 78864, Note_on_c, 0, 84, 75
1, 78879, Note_on_c, 0, 84, 0
1, 78880, Note_on_c, 0, 82, 75
1, 78895, Note_on_c, 0, 82, 0
1, 78896, Note_on_c, 0, 80, 75
1, 78911, Note_on_c, 0, 80, 0
1, 78912, Note_on_c, 0, 79, 75
1, 78912, Note_on_c, 1, 61, 75
1, 78912, Note_on_c, 1, 58, 75
1, 78912, Note_on_c, 1, 51, 75
1, 78927, Note_on_c, 0, 79, 0
1, 78928, Note_on_c, 0, 82, 75
1, 78943, Note_on_c, 0, 82, 0
1, 78944, Note_on_c, 0, 80, 75
1, 78959, Note_on_c, 0, 80, 0
1, 78960, Note_on_c, 0, 79, 75
1, 78975, Note_on_c, 0, 79, 0
1, 78976, Note_on_c, 0, 77, 75
1, 78991, Note_on_c, 0, 77, 0
1, 78992, Note_on_c, 0, 75, 75
1, 79001, Note_on_c, 1, 61, 0
1, 79001, Note_on_c, 1, 58, 0
1, 79001, Note_on_c, 1, 51, 0
1, 79007, Note_on_c, 0, 75, 0
1, 79008, Note_on_c, 0, 73, 75
1, 79023, Note_on_c, 0, 73, 0
1, 79024, Note_on_c, 0, 72, 75
1, 79039, Note_on_c, 0, 72, 0
1, 79040, Note_on_c, 0, 70, 75
1, 79055, Note_on_c, 0, 70, 0
1, 79056, Note_on_c, 0, 68, 75
1, 79071, Note_on_c, 0, 68, 0
1, 79072, Note_on_c, 0, 67, 75
1, 79087, Note_on_c, 0, 67, 0
1, 79088, Note_on_c, 0, 65, 75
1, 79103, Note_on_c, 0, 65, 0
1, 79104, Note_on_c, 0, 63, 75
1, 79104, Note_on_c, 1, 61, 75
1, 79104, Note_on_c, 1, 51, 64
1, 79119, Note_on_c, 0, 63, 0
1, 79120, Note_on_c, 0, 67, 75
1, 79135, Note_on_c, 0, 67, 0
1, 79136, Note_on_c, 0, 70, 75
1, 79149, Note_on_c, 1, 61, 0
1, 79151, Note_on_c, 0, 70, 0
1, 79152, Note_on_c, 0, 63, 75
1, 79152, Note_on_c, 1, 60, 75
1, 79167, Note_on_c, 0, 63, 0
1, 79168, Note_on_c, 0, 67, 75
1, 79183, Note_on_c, 0, 67, 0
1, 79184, Note_on_c, 0, 68, 75
1, 79197, Note_on_c, 1, 60, 0
1, 79199, Note_on_c, 0, 68, 0
1, 79200, Note_on_c, 0, 61, 75
1, 79200, Note_on_c, 1, 58, 75
1, 79215, Note_on_c, 0, 61, 0
1, 79216, Note_on_c, 0, 63, 75
1, 79231, Note_on_c, 0, 63, 0
1, 79232, Note_on_c, 0, 67, 75
1, 79245, Note_on_c, 1, 58, 0
1, 79247, Note_on_c, 0, 67, 0
1, 79248, Note_on_c, 0, 60, 75
1, 79248, Note_on_c, 1, 56, 75
1, 79263, Note_on_c, 0, 60, 0
1, 79264, Note_on_c, 0, 63, 75
1, 79279, Note_on_c, 0, 63, 0
1, 79280, Note_on_c, 0, 68, 75
1, 79281, Note_on_c, 1, 51, 0
1, 79293, Note_on_c, 1, 56, 0
1, 79295, Note_on_c, 0, 68, 0
1, 79296, Note_on_c, 0, 63, 75
1, 79296, Note_on_c, 1, 61, 75
1, 79296, Note_on_c, 1, 51, 64
1, 79311, Note_on_c, 0, 63, 0
1, 79312, Note_on_c, 0, 67, 75
1, 79327, Note_on_c, 0, 67, 0
1, 79328, Note_on_c, 0, 70, 75
1, 79341, Note_on_c, 1, 61, 0
1, 79343, Note_on_c, 0, 70, 0
1, 79344, Note_on_c, 0, 63, 75
1, 79344, Note_on_c, 1, 60, 75
1, 79359, Note_on_c, 0, 63, 0
1, 79360, Note_on_c, 0, 67, 75
1, 79375, Note_on_c, 0, 67, 0
1, 79376, Note_on_c, 0, 68, 75
1, 79389, Note_on_c, 1, 60, 0
1, 79391, Note_on_c, 0, 68, 0
1, 79392, Note_on_c, 0, 61, 75
1, 79392, Note_on_c, 1, 58, 75
1, 79407, Note_on_c, 0, 61, 0
1, 79408, Note_on_c, 0, 63, 75
1, 79423, Note_on_c, 0, 63, 0
1, 79424, Note_on_c, 0, 67, 75
1, 79437, Note_on_c, 1, 58, 0
1, 79439, Note_on_c, 0, 67, 0
1, 79440, Note_on_c, 0, 60, 75
1, 79440, Note_on_c, 1, 56, 75
1, 79455, Note_on_c, 0, 60, 0
1, 79456, Note_on_c, 0, 63, 75
1, 79471, Note_on_c, 0, 63, 0
1, 79472, Note_on_c, 0, 68, 75
1, 79473, Note_on_c, 1, 51, 0
1, 79485, Note_on_c, 1, 56, 0
1, 79487, Note_on_c, 0, 68, 0
1, 79488, Note_on_c, 1, 53, 75
1, 79488, Note_on_c, 1, 49, 75
1, 79504, Note_on_c, 0, 58, 75
1, 79519, Note_on_c, 0, 58, 0
1, 79520, Note_on_c, 0, 61, 75
1, 79535, Note_on_c, 0, 61, 0
1, 79536, Note_on_c, 0, 65, 75
1, 79551, Note_on_c, 0, 65, 0
1, 79552, Note_on_c, 0, 58, 75
1, 79567, Note_on_c, 0, 58, 0
1, 79568, Note_on_c, 0, 61, 75
1, 79583, Note_on_c, 0, 61, 0
1, 79584, Note_on_c, 0, 65, 75
1, 79599, Note_on_c, 0, 65, 0
1, 79600, Note_on_c, 0, 65, 75
1, 79615, Note_on_c, 0, 65, 0
1, 79616, Note_on_c, 0, 70, 75
1, 79631, Note_on_c, 0, 70, 0
1, 79632, Note_on_c, 0, 73, 75
1, 79647, Note_on_c, 0, 73, 0
1, 79648, Note_on_c, 0, 65, 75
1, 79663, Note_on_c, 0, 65, 0
1, 79664, Note_on_c, 0, 70, 75
1, 79679, Note_on_c, 0, 70, 0
1, 79680, Note_on_c, 0, 73, 75
1, 79695, Note_on_c, 0, 73, 0
1, 79696, Note_on_c, 0, 70, 75
1, 79711, Note_on_c, 0, 70, 0
1, 79712, Note_on_c, 0, 73, 75
1, 79727, Note_on_c, 0, 73, 0
1, 79728, Note_on_c, 0, 77, 75
1, 79743, Note_on_c, 0, 77, 0
1, 79744, Note_on_c, 0, 70, 75
1, 79759, Note_on_c, 0, 70, 0
1, 79760, Note_on_c, 0, 73, 75
1, 79775, Note_on_c, 0, 73, 0
1, 79776, Note_on_c, 0, 77, 75
1, 79791, Note_on_c, 0, 77, 0
1, 79792, Note_on_c, 0, 75, 76
1, 79807, Note_on_c, 0, 75, 0
1, 79808, Note_on_c, 0, 73, 77
1, 79823, Note_on_c, 0, 73, 0
1, 79824, Note_on_c, 0, 72, 78
1, 79839, Note_on_c, 0, 72, 0
1, 79840, Note_on_c, 0, 70, 79
1, 79842, Note_on_c, 1, 53, 0
1, 79842, Note_on_c, 1, 49, 0
1, 79855, Note_on_c, 0, 70, 0
1, 79856, Note_on_c, 0, 68, 80
1, 79871, Note_on_c, 0, 68, 0
1, 79872, Note_on_c, 0, 68, 84
1, 79872, Note_on_c, 1, 61, 84
1, 79872, Note_on_c, 1, 58, 84
1, 79872, Note_on_c, 1, 51, 84
1, 80059, Note_on_c, 0, 68, 0
1, 80064, Note_on_c, 0, 67, 84
1, 80070, Note_on_c, 0, 67, 0
1, 80070, Note_on_c, 0, 68, 84
1, 80076, Note_on_c, 0, 68, 0
1, 80076, Note_on_c, 0, 67, 84
1, 80249, Note_on_c, 0, 67, 0
1, 80249, Note_on_c, 1, 61, 0
1, 80249, Note_on_c, 1, 58, 0
1, 80249, Note_on_c, 1, 51, 0
1, 80256, Note_on_c, 0, 57, 75
1, 80304, Note_on_c, 1, 51, 61
1, 80304, Note_on_c, 1, 48, 61
1, 80351, Note_on_c, 1, 51, 0
1, 80351, Note_on_c, 1, 48, 0
1, 80352, Note_on_c, 1, 51, 61
1, 80352, Note_on_c, 1, 48, 61
1, 80399, Note_on_c, 1, 51, 0
1, 80399, Note_on_c, 1, 48, 0
1, 80400, Note_on_c, 1, 51, 61
1, 80400, Note_on_c, 1, 48, 61
1, 80433, Note_on_c, 0, 57, 0
1, 80447, Note_on_c, 1, 51, 0
1, 80447, Note_on_c, 1, 48, 0
1, 80448, Note_on_c, 0, 58, 75
1, 80496, Note_on_c, 1, 53, 61
1, 80496, Note_on_c, 1, 49, 61
1, 80543, Note_on_c, 1, 53, 0
1, 80543, Note_on_c, 1, 49, 0
1, 80544, Note_on_c, 1, 53, 61
1, 80544, Note_on_c, 1, 49, 61
1, 80591, Note_on_c, 1, 53, 0
1, 80591, Note_on_c, 1, 49, 0
1, 80592, Note_on_c, 1, 53, 61
1, 80592, Note_on_c, 1, 49, 61
1, 80625, Note_on_c, 0, 58, 0
1, 80639, Note_on_c, 1, 53, 0
1, 80639, Note_on_c, 1, 49, 0
1, 80640, Note_on_c, 0, 54, 101
1, 80688, Note_on_c, 1, 48, 75
1, 80688, Note_on_c, 1, 44, 75
1, 80735, Note_on_c, 1, 48, 0
1, 80735, Note_on_c, 1, 44, 0
1, 80736, Note_on_c, 1, 48, 75
1, 80736, Note_on_c, 1, 44, 75
1, 80783, Note_on_c, 1, 48, 0
1, 80783, Note_on_c, 1, 44, 0
1, 80784, Note_on_c, 1, 48, 75
1, 80784, Note_on_c, 1, 44, 75
1, 80817, Note_on_c, 0, 54, 0
1, 80831, Note_on_c, 1, 48, 0
1, 80831, Note_on_c, 1, 44, 0
1, 80832, Note_on_c, 0, 53, 75
1, 80832, Note_on_c, 1, 49, 75
1, 80832, Note_on_c, 1, 46, 75
1, 80877, Note_on_c, 0, 53, 0
1, 80880, Note_on_c, 0, 64, 75
1, 80886, Note_on_c, 0, 64, 0
1, 80886, Note_on_c, 0, 65, 75
1, 80925, Note_on_c, 0, 65, 0
1, 80926, Note_on_c, 1, 49, 0
1, 80926, Note_on_c, 1, 46, 0
1, 80928, Note_on_c, 0, 60, 75
1, 80934, Note_on_c, 0, 60, 0
1, 80934, Note_on_c, 0, 61, 75
1, 80973, Note_on_c, 0, 61, 0
1, 80976, Note_on_c, 0, 57, 75
1, 80982, Note_on_c, 0, 57, 0
1, 80982, Note_on_c, 0, 58, 75
1, 81021, Note_on_c, 0, 58, 0
1, 81024, Note_on_c, 0, 53, 75
1, 81069, Note_on_c, 0, 53, 0
1, 81072, Note_on_c, 0, 76, 61
1, 81096, Note_on_c, 0, 76, 0
1, 81096, Note_on_c, 0, 77, 61
1, 81106, Note_on_c, 0, 77, 0
1, 81120, Note_on_c, 0, 72, 61
1, 81144, Note_on_c, 0, 72, 0
1, 81144, Note_on_c, 0, 73, 61
1, 81154, Note_on_c, 0, 73, 0
1, 81168, Note_on_c, 0, 69, 61
1, 81192, Note_on_c, 0, 69, 0
1, 81192, Note_on_c, 0, 70, 61
1, 81202, Note_on_c, 0, 70, 0
1, 81216, Note_on_c, 0, 65, 61
1, 81261, Note_on_c, 0, 65, 0
1, 81264, Note_on_c, 0, 76, 69
1, 81288, Note_on_c, 0, 76, 0
1, 81288, Note_on_c, 0, 77, 69
1, 81298, Note_on_c, 0, 77, 0
1, 81312, Note_on_c, 0, 75, 69
1, 81335, Note_on_c, 0, 75, 0
1, 81336, Note_on_c, 0, 73, 69
1, 81359, Note_on_c, 0, 73, 0
1, 81360, Note_on_c, 0, 72, 69
1, 81383, Note_on_c, 0, 72, 0
1, 81384, Note_on_c, 0, 70, 69
1, 81407, Note_on_c, 0, 70, 0
1, 81408, Note_on_c, 0, 72, 75
1, 81414, Note_on_c, 0, 72, 0
1, 81414, Note_on_c, 0, 73, 75
1, 81420, Note_on_c, 0, 73, 0
1, 81420, Note_on_c, 0, 75, 75
1, 81456, Note_on_c, 1, 60, 75
1, 81456, Note_on_c, 1, 51, 75
1, 81503, Note_on_c, 1, 60, 0
1, 81503, Note_on_c, 1, 51, 0
1, 81504, Note_on_c, 1, 60, 75
1, 81504, Note_on_c, 1, 51, 75
1, 81527, Note_on_c, 0, 75, 0
1, 81528, Note_on_c, 0, 73, 75
1, 81540, Note_on_c, 0, 73, 0
1, 81540, Note_on_c, 0, 72, 75
1, 81551, Note_on_c, 1, 60, 0
1, 81551, Note_on_c, 1, 51, 0
1, 81552, Note_on_c, 0, 72, 0
1, 81552, Note_on_c, 0, 70, 75
1, 81552, Note_on_c, 1, 60, 75
1, 81552, Note_on_c, 1, 51, 75
1, 81564, Note_on_c, 0, 70, 0
1, 81564, Note_on_c, 0, 68, 75
1, 81576, Note_on_c, 0, 68, 0
1, 81576, Note_on_c, 0, 67, 75
1, 81588, Note_on_c, 0, 67, 0
1, 81588, Note_on_c, 0, 65, 75
1, 81599, Note_on_c, 1, 60, 0
1, 81599, Note_on_c, 1, 51, 0
1, 81600, Note_on_c, 0, 65, 0
1, 81600, Note_on_c, 0, 63, 75
1, 81648, Note_on_c, 1, 60, 75
1, 81648, Note_on_c, 1, 51, 75
1, 81689, Note_on_c, 0, 63, 0
1, 81695, Note_on_c, 1, 60, 0
1, 81695, Note_on_c, 1, 51, 0
1, 81696, Note_on_c, 0, 61, 75
1, 81696, Note_on_c, 1, 58, 75
1, 81696, Note_on_c, 1, 51, 75
1, 81705, Note_on_c, 0, 61, 0
1, 81705, Note_on_c, 0, 63, 75
1, 81714, Note_on_c, 0, 63, 0
1, 81714, Note_on_c, 0, 61, 75
1, 81723, Note_on_c, 0, 61, 0
1, 81723, Note_on_c, 0, 63, 75
1, 81732, Note_on_c, 0, 63, 0
1, 81732, Note_on_c, 0, 61, 75
1, 81741, Note_on_c, 0, 61, 0
1, 81741, Note_on_c, 0, 63, 75
1, 81743, Note_on_c, 1, 58, 0
1, 81743, Note_on_c, 1, 51, 0
1, 81744, Note_on_c, 1, 58, 75
1, 81744, Note_on_c, 1, 51, 75
1, 81750, Note_on_c, 0, 63, 0
1, 81750, Note_on_c, 0, 61, 75
1, 81759, Note_on_c, 0, 61, 0
1, 81759, Note_on_c, 0, 60, 75
1, 81776, Note_on_c, 0, 60, 0
1, 81776, Note_on_c, 0, 61, 75
1, 81791, Note_on_c, 1, 58, 0
1, 81791, Note_on_c, 1, 51, 0
1, 81792, Note_on_c, 0, 61, 0
1, 81792, Note_on_c, 0, 60, 75
1, 81792, Note_on_c, 1, 56, 75
1, 81812, Note_on_c, 0, 60, 0
1, 81840, Note_on_c, 0, 68, 91
1, 81881, Note_on_c, 1, 56, 0
1, 81888, Note_on_c, 1, 60, 75
1, 81936, Note_on_c, 0, 68, 0
1, 81936, Note_on_c, 0, 66, 75
1, 81977, Note_on_c, 1, 60, 0
1, 81984, Note_on_c, 1, 61, 75
1, 82025, Note_on_c, 0, 66, 0
1, 82032, Note_on_c, 0, 65, 75
1, 82073, Note_on_c, 1, 61, 0
1, 82080, Note_on_c, 1, 49, 75
1, 82121, Note_on_c, 0, 65, 0
1, 82128, Note_on_c, 0, 69, 75
1, 82169, Note_on_c, 1, 49, 0
1, 82173, Note_on_c, 0, 69, 0
1, 82176, Note_on_c, 0, 72, 75
1, 82182, Note_on_c, 0, 72, 0
1, 82182, Note_on_c, 0, 70, 75
1, 82188, Note_on_c, 0, 70, 0
1, 82188, Note_on_c, 0, 69, 75
1, 82194, Note_on_c, 0, 69, 0
1, 82194, Note_on_c, 0, 70, 75
1, 82221, Note_on_c, 0, 70, 0
1, 82224, Note_on_c, 0, 72, 75
1, 82269, Note_on_c, 0, 72, 0
1, 82272, Note_on_c, 0, 75, 75
1, 82278, Note_on_c, 0, 75, 0
1, 82278, Note_on_c, 0, 73, 75
1, 82284, Note_on_c, 0, 73, 0
1, 82284, Note_on_c, 0, 72, 75
1, 82290, Note_on_c, 0, 72, 0
1, 82290, Note_on_c, 0, 73, 75
1, 82317, Note_on_c, 0, 73, 0
1, 82320, Note_on_c, 0, 76, 75
1, 82365, Note_on_c, 0, 76, 0
1, 82368, Note_on_c, 0, 79, 75
1, 82374, Note_on_c, 0, 79, 0
1, 82374, Note_on_c, 0, 77, 75
1, 82380, Note_on_c, 0, 77, 0
1, 82380, Note_on_c, 0, 76, 75
1, 82386, Note_on_c, 0, 76, 0
1, 82386, Note_on_c, 0, 77, 75
1, 82413, Note_on_c, 0, 77, 0
1, 82416, Note_on_c, 0, 81, 75
1, 82422, Note_on_c, 0, 81, 0
1, 82422, Note_on_c, 0, 84, 75
1, 82461, Note_on_c, 0, 84, 0
1, 82464, Note_on_c, 0, 82, 76
1, 82470, Note_on_c, 0, 82, 0
1, 82470, Note_on_c, 0, 85, 76
1, 82509, Note_on_c, 0, 85, 0
1, 82512, Note_on_c, 0, 84, 78
1, 82518, Note_on_c, 0, 84, 0
1, 82518, Note_on_c, 0, 87, 78
1, 82557, Note_on_c, 0, 87, 0
1, 82560, Note_on_c, 0, 85, 80
1, 82566, Note_on_c, 0, 85, 0
1, 82566, Note_on_c, 0, 89, 80
1, 82608, Note_on_c, 1, 58, 75
1, 82608, Note_on_c, 1, 49, 75
1, 82655, Note_on_c, 1, 58, 0
1, 82655, Note_on_c, 1, 49, 0
1, 82656, Note_on_c, 1, 58, 75
1, 82656, Note_on_c, 1, 49, 75
1, 82679, Note_on_c, 0, 89, 0
1, 82680, Note_on_c, 0, 87, 84
1, 82692, Note_on_c, 0, 87, 0
1, 82692, Note_on_c, 0, 85, 84
1, 82703, Note_on_c, 1, 58, 0
1, 82703, Note_on_c, 1, 49, 0
1, 82704, Note_on_c, 0, 85, 0
1, 82704, Note_on_c, 0, 87, 84
1, 82704, Note_on_c, 1, 58, 75
1, 82704, Note_on_c, 1, 49, 75
1, 82716, Note_on_c, 0, 87, 0
1, 82716, Note_on_c, 0, 85, 84
1, 82728, Note_on_c, 0, 85, 0
1, 82728, Note_on_c, 0, 84, 84
1, 82740, Note_on_c, 0, 84, 0
1, 82740, Note_on_c, 0, 82, 84
1, 82751, Note_on_c, 1, 58, 0
1, 82751, Note_on_c, 1, 49, 0
1, 82752, Note_on_c, 0, 82, 0
1, 82752, Note_on_c, 0, 84, 84
1, 82764, Note_on_c, 0, 84, 0
1, 82764, Note_on_c, 0, 85, 84
1, 82776, Note_on_c, 0, 85, 0
1, 82776, Note_on_c, 0, 87, 84
1, 82788, Note_on_c, 0, 87, 0
1, 82788, Note_on_c, 0, 85, 84
1, 82800, Note_on_c, 0, 85, 0
1, 82800, Note_on_c, 0, 84, 84
1, 82800, Note_on_c, 1, 60, 69
1, 82800, Note_on_c, 1, 51, 69
1, 82812, Note_on_c, 0, 84, 0
1, 82812, Note_on_c, 0, 82, 82
1, 82824, Note_on_c, 0, 82, 0
1, 82824, Note_on_c, 0, 80, 80
1, 82836, Note_on_c, 0, 80, 0
1, 82836, Note_on_c, 0, 79, 78
1, 82847, Note_on_c, 1, 60, 0
1, 82847, Note_on_c, 1, 51, 0
1, 82848, Note_on_c, 0, 79, 0
1, 82848, Note_on_c, 0, 77, 76
1, 82848, Note_on_c, 1, 60, 66
1, 82848, Note_on_c, 1, 51, 66
1, 82860, Note_on_c, 0, 77, 0
1, 82860, Note_on_c, 0, 75, 74
1, 82872, Note_on_c, 0, 75, 0
1, 82872, Note_on_c, 0, 73, 72
1, 82884, Note_on_c, 0, 73, 0
1, 82884, Note_on_c, 0, 72, 70
1, 82895, Note_on_c, 1, 60, 0
1, 82895, Note_on_c, 1, 51, 0
1, 82896, Note_on_c, 0, 72, 0
1, 82896, Note_on_c, 0, 70, 68
1, 82896, Note_on_c, 1, 60, 63
1, 82896, Note_on_c, 1, 51, 63
1, 82908, Note_on_c, 0, 70, 0
1, 82908, Note_on_c, 0, 68, 66
1, 82920, Note_on_c, 0, 68, 0
1, 82920, Note_on_c, 0, 67, 64
1, 82932, Note_on_c, 0, 67, 0
1, 82932, Note_on_c, 0, 65, 62
1, 82943, Note_on_c, 1, 60, 0
1, 82943, Note_on_c, 1, 51, 0
1, 82944, Note_on_c, 0, 65, 0
1, 82944, Note_on_c, 0, 63, 85
1, 82992, Note_on_c, 1, 59, 61
1, 82992, Note_on_c, 1, 51, 61
1, 83039, Note_on_c, 1, 59, 0
1, 83039, Note_on_c, 1, 51, 0
1, 83040, Note_on_c, 1, 59, 61
1, 83040, Note_on_c, 1, 51, 61
1, 83087, Note_on_c, 1, 59, 0
1, 83087, Note_on_c, 1, 51, 0
1, 83088, Note_on_c, 1, 59, 61
1, 83088, Note_on_c, 1, 51, 61
1, 83135, Note_on_c, 1, 59, 0
1, 83135, Note_on_c, 1, 51, 0
1, 83136, Note_on_c, 0, 63, 0
1, 83136, Note_on_c, 0, 62, 69
1, 83184, Note_on_c, 1, 59, 61
1, 83184, Note_on_c, 1, 52, 61
1, 83231, Note_on_c, 1, 59, 0
1, 83231, Note_on_c, 1, 52, 0
1, 83232, Note_on_c, 1, 59, 61
1, 83232, Note_on_c, 1, 52, 61
1, 83279, Note_on_c, 1, 59, 0
1, 83279, Note_on_c, 1, 52, 0
1, 83280, Note_on_c, 1, 59, 61
1, 83280, Note_on_c, 1, 52, 61
1, 83299, Note_on_c, 0, 62, 0
1, 83304, Note_on_c, 0, 63, 69
1, 83327, Note_on_c, 0, 63, 0
1, 83327, Note_on_c, 1, 59, 0
1, 83327, Note_on_c, 1, 52, 0
1, 83328, Note_on_c, 0, 61, 85
1, 83376, Note_on_c, 1, 58, 61
1, 83376, Note_on_c, 1, 55, 61
1, 83400, Note_on_c, 0, 61, 0
1, 83400, Note_on_c, 0, 63, 69
1, 83423, Note_on_c, 0, 63, 0
1, 83423, Note_on_c, 1, 58, 0
1, 83423, Note_on_c, 1, 55, 0
1, 83424, Note_on_c, 0, 61, 69
1, 83424, Note_on_c, 1, 58, 61
1, 83424, Note_on_c, 1, 55, 61
1, 83458, Note_on_c, 0, 61, 0
1, 83460, Note_on_c, 0, 63, 69
1, 83471, Note_on_c, 1, 58, 0
1, 83471, Note_on_c, 1, 55, 0
1, 83472, Note_on_c, 0, 63, 0
1, 83472, Note_on_c, 0, 61, 69
1, 83472, Note_on_c, 1, 58, 61
1, 83472, Note_on_c, 1, 55, 61
1, 83506, Note_on_c, 0, 61, 0
1, 83508, Note_on_c, 0, 63, 69
1, 83519, Note_on_c, 1, 58, 0
1, 83519, Note_on_c, 1, 55, 0
1, 83520, Note_on_c, 0, 63, 0
1, 83520, Note_on_c, 0, 60, 69
1, 83520, Note_on_c, 1, 56, 77
1, 83535, Note_on_c, 0, 60, 0
1, 83536, Note_on_c, 0, 63, 69
1, 83551, Note_on_c, 0, 63, 0
1, 83552, Note_on_c, 0, 68, 69
1, 83567, Note_on_c, 0, 68, 0
1, 83568, Note_on_c, 0, 60, 69
1, 83583, Note_on_c, 0, 60, 0
1, 83584, Note_on_c, 0, 63, 69
1, 83599, Note_on_c, 0, 63, 0
1, 83600, Note_on_c, 0, 68, 69
1, 83615, Note_on_c, 0, 68, 0
1, 83616, Note_on_c, 0, 63, 69
1, 83616, Note_on_c, 1, 56, 0
1, 83631, Note_on_c, 0, 63, 0
1, 83632, Note_on_c, 0, 67, 69
1, 83647, Note_on_c, 0, 67, 0
1, 83648, Note_on_c, 0, 70, 69
1, 83663, Note_on_c, 0, 70, 0
1, 83664, Note_on_c, 0, 67, 69
1, 83664, Note_on_c, 1, 58, 77
1, 83664, Note_on_c, 1, 51, 77
1, 83679, Note_on_c, 0, 67, 0
1, 83680, Note_on_c, 0, 70, 69
1, 83695, Note_on_c, 0, 70, 0
1, 83696, Note_on_c, 0, 73, 69
1, 83711, Note_on_c, 0, 73, 0
1, 83712, Note_on_c, 0, 72, 69
1, 83712, Note_on_c, 1, 58, 0
1, 83712, Note_on_c, 1, 51, 0
1, 83712, Note_on_c, 1, 56, 77
1, 83727, Note_on_c, 0, 72, 0
1, 83728, Note_on_c, 0, 75, 69
1, 83743, Note_on_c, 0, 75, 0
1, 83744, Note_on_c, 0, 80, 70
1, 83759, Note_on_c, 0, 80, 0
1, 83760, Note_on_c, 0, 72, 71
1, 83775, Note_on_c, 0, 72, 0
1, 83776, Note_on_c, 0, 75, 72
1, 83791, Note_on_c, 0, 75, 0
1, 83792, Note_on_c, 0, 80, 73
1, 83807, Note_on_c, 0, 80, 0
1, 83808, Note_on_c, 0, 75, 74
1, 83808, Note_on_c, 1, 56, 0
1, 83823, Note_on_c, 0, 75, 0
1, 83824, Note_on_c, 0, 79, 75
1, 83839, Note_on_c, 0, 79, 0
1, 83840, Note_on_c, 0, 82, 76
1, 83855, Note_on_c, 0, 82, 0
1, 83856, Note_on_c, 0, 79, 76
1, 83856, Note_on_c, 1, 58, 88
1, 83856, Note_on_c, 1, 51, 88
1, 83871, Note_on_c, 0, 79, 0
1, 83872, Note_on_c, 0, 82, 77
1, 83887, Note_on_c, 0, 82, 0
1, 83888, Note_on_c, 0, 85, 78
1, 83903, Note_on_c, 0, 85, 0
1, 83904, Note_on_c, 0, 84, 79
1, 83904, Note_on_c, 1, 58, 0
1, 83904, Note_on_c, 1, 51, 0
1, 83904, Note_on_c, 1, 56, 92
1, 83919, Note_on_c, 0, 84, 0
1, 83920, Note_on_c, 0, 85, 84
1, 83935, Note_on_c, 0, 85, 0
1, 83936, Note_on_c, 0, 87, 84
1, 83951, Note_on_c, 0, 87, 0
1, 83952, Note_on_c, 0, 85, 84
1, 83967, Note_on_c, 0, 85, 0
1, 83968, Note_on_c, 0, 84, 84
1, 83983, Note_on_c, 0, 84, 0
1, 83984, Note_on_c, 0, 82, 84
1, 83999, Note_on_c, 0, 82, 0
1, 84000, Note_on_c, 0, 80, 84
1, 84000, Note_on_c, 1, 56, 0
1, 84015, Note_on_c, 0, 80, 0
1, 84016, Note_on_c, 0, 79, 84
1, 84031, Note_on_c, 0, 79, 0
1, 84032, Note_on_c, 0, 77, 84
1, 84047, Note_on_c, 0, 77, 0
1, 84048, Note_on_c, 0, 75, 84
1, 84063, Note_on_c, 0, 75, 0
1, 84064, Note_on_c, 0, 73, 84
1, 84079, Note_on_c, 0, 73, 0
1, 84080, Note_on_c, 0, 72, 84
1, 84095, Note_on_c, 0, 72, 0
1, 84096, Note_on_c, 0, 70, 84
1, 84096, Note_on_c, 1, 53, 84
1, 84096, Note_on_c, 1, 49, 84
1, 84111, Note_on_c, 0, 70, 0
1, 84112, Note_on_c, 0, 73, 83
1, 84127, Note_on_c, 0, 73, 0
1, 84128, Note_on_c, 0, 72, 82
1, 84143, Note_on_c, 0, 72, 0
1, 84144, Note_on_c, 0, 70, 81
1, 84159, Note_on_c, 0, 70, 0
1, 84160, Note_on_c, 0, 77, 81
1, 84175, Note_on_c, 0, 77, 0
1, 84176, Note_on_c, 0, 75, 80
1, 84185, Note_on_c, 1, 53, 0
1, 84185, Note_on_c, 1, 49, 0
1, 84191, Note_on_c, 0, 75, 0
1, 84192, Note_on_c, 0, 73, 79
1, 84207, Note_on_c, 0, 73, 0
1, 84208, Note_on_c, 0, 72, 79
1, 84223, Note_on_c, 0, 72, 0
1, 84224, Note_on_c, 0, 70, 78
1, 84239, Note_on_c, 0, 70, 0
1, 84240, Note_on_c, 0, 68, 77
1, 84255, Note_on_c, 0, 68, 0
1, 84256, Note_on_c, 0, 67, 77
1, 84271, Note_on_c, 0, 67, 0
1, 84272, Note_on_c, 0, 65, 76
1, 84287, Note_on_c, 0, 65, 0
1, 84288, Note_on_c, 0, 63, 75
1, 84288, Note_on_c, 1, 60, 61
1, 84288, Note_on_c, 1, 51, 61
1, 84335, Note_on_c, 1, 60, 0
1, 84335, Note_on_c, 1, 51, 0
1, 84336, Note_on_c, 1, 60, 61
1, 84336, Note_on_c, 1, 51, 61
1, 84355, Note_on_c, 0, 63, 0
1, 84360, Note_on_c, 0, 68, 69
1, 84372, Note_on_c, 0, 68, 0
1, 84372, Note_on_c, 0, 70, 69
1, 84383, Note_on_c, 1, 60, 0
1, 84383, Note_on_c, 1, 51, 0
1, 84384, Note_on_c, 0, 70, 0
1, 84384, Note_on_c, 0, 72, 69
1, 84384, Note_on_c, 1, 55, 61
1, 84384, Note_on_c, 1, 51, 61
1, 84392, Note_on_c, 0, 72, 0
1, 84392, Note_on_c, 0, 70, 69
1, 84400, Note_on_c, 0, 70, 0
1, 84400, Note_on_c, 0, 72, 69
1, 84408, Note_on_c, 0, 72, 0
1, 84408, Note_on_c, 0, 70, 69
1, 84416, Note_on_c, 0, 70, 0
1, 84416, Note_on_c, 0, 72, 69
1, 84424, Note_on_c, 0, 72, 0
1, 84424, Note_on_c, 0, 70, 69
1, 84431, Note_on_c, 1, 55, 0
1, 84431, Note_on_c, 1, 51, 0
1, 84432, Note_on_c, 0, 70, 0
1, 84432, Note_on_c, 0, 72, 69
1, 84432, Note_on_c, 1, 55, 61
1, 84432, Note_on_c, 1, 51, 61
1, 84440, Note_on_c, 0, 72, 0
1, 84440, Note_on_c, 0, 70, 69
1, 84448, Note_on_c, 0, 70, 0
1, 84448, Note_on_c, 0, 68, 69
1, 84464, Note_on_c, 0, 68, 0
1, 84464, Note_on_c, 0, 70, 69
1, 84479, Note_on_c, 1, 55, 0
1, 84479, Note_on_c, 1, 51, 0
1, 84480, Note_on_c, 0, 70, 0
1, 84480, Note_on_c, 0, 60, 69
1, 84480, Note_on_c, 1, 56, 77
1, 84495, Note_on_c, 0, 60, 0
1, 84496, Note_on_c, 0, 63, 69
1, 84511, Note_on_c, 0, 63, 0
1, 84512, Note_on_c, 0, 68, 69
1, 84527, Note_on_c, 0, 68, 0
1, 84528, Note_on_c, 0, 60, 69
1, 84543, Note_on_c, 0, 60, 0
1, 84544, Note_on_c, 0, 63, 69
1, 84559, Note_on_c, 0, 63, 0
1, 84560, Note_on_c, 0, 68, 69
1, 84575, Note_on_c, 0, 68, 0
1, 84576, Note_on_c, 0, 63, 69
1, 84576, Note_on_c, 1, 56, 0
1, 84591, Note_on_c, 0, 63, 0
1, 84592, Note_on_c, 0, 67, 69
1, 84607, Note_on_c, 0, 67, 0
1, 84608, Note_on_c, 0, 70, 69
1, 84623, Note_on_c, 0, 70, 0
1, 84624, Note_on_c, 0, 67, 69
1, 84624, Note_on_c, 1, 58, 77
1, 84624, Note_on_c, 1, 51, 77
1, 84639, Note_on_c, 0, 67, 0
1, 84640, Note_on_c, 0, 70, 69
1, 84655, Note_on_c, 0, 70, 0
1, 84656, Note_on_c, 0, 73, 69
1, 84671, Note_on_c, 0, 73, 0
1, 84672, Note_on_c, 0, 72, 69
1, 84672, Note_on_c, 1, 58, 0
1, 84672, Note_on_c, 1, 51, 0
1, 84672, Note_on_c, 1, 56, 85
1, 84687, Note_on_c, 0, 72, 0
1, 84688, Note_on_c, 0, 75, 69
1, 84703, Note_on_c, 0, 75, 0
1, 84704, Note_on_c, 0, 80, 70
1, 84719, Note_on_c, 0, 80, 0
1, 84720, Note_on_c, 0, 72, 71
1, 84735, Note_on_c, 0, 72, 0
1, 84736, Note_on_c, 0, 75, 72
1, 84751, Note_on_c, 0, 75, 0
1, 84752, Note_on_c, 0, 80, 73
1, 84767, Note_on_c, 0, 80, 0
1, 84768, Note_on_c, 0, 75, 74
1, 84768, Note_on_c, 1, 56, 0
1, 84783, Note_on_c, 0, 75, 0
1, 84784, Note_on_c, 0, 79, 75
1, 84799, Note_on_c, 0, 79, 0
1, 84800, Note_on_c, 0, 82, 76
1, 84815, Note_on_c, 0, 82, 0
1, 84816, Note_on_c, 0, 79, 77
1, 84816, Note_on_c, 1, 58, 91
1, 84816, Note_on_c, 1, 51, 91
1, 84831, Note_on_c, 0, 79, 0
1, 84832, Note_on_c, 0, 82, 78
1, 84847, Note_on_c, 0, 82, 0
1, 84848, Note_on_c, 0, 85, 79
1, 84863, Note_on_c, 0, 85, 0
1, 84864, Note_on_c, 0, 84, 84
1, 84864, Note_on_c, 1, 58, 0
1, 84864, Note_on_c, 1, 51, 0
1, 84864, Note_on_c, 1, 56, 100
1, 84879, Note_on_c, 0, 84, 0
1, 84880, Note_on_c, 0, 85, 84
1, 84895, Note_on_c, 0, 85, 0
1, 84896, Note_on_c, 0, 87, 84
1, 84911, Note_on_c, 0, 87, 0
1, 84912, Note_on_c, 0, 85, 84
1, 84927, Note_on_c, 0, 85, 0
1, 84928, Note_on_c, 0, 84, 84
1, 84943, Note_on_c, 0, 84, 0
1, 84944, Note_on_c, 0, 82, 84
1, 84959, Note_on_c, 0, 82, 0
1, 84960, Note_on_c, 0, 80, 84
1, 84960, Note_on_c, 1, 56, 0
1, 84975, Note_on_c, 0, 80, 0
1, 84976, Note_on_c, 0, 79, 84
1, 84991, Note_on_c, 0, 79, 0
1, 84992, Note_on_c, 0, 77, 84
1, 85007, Note_on_c, 0, 77, 0
1, 85008, Note_on_c, 0, 75, 84
1, 85023, Note_on_c, 0, 75, 0
1, 85024, Note_on_c, 0, 73, 84
1, 85039, Note_on_c, 0, 73, 0
1, 85040, Note_on_c, 0, 72, 84
1, 85055, Note_on_c, 0, 72, 0
1, 85056, Note_on_c, 0, 70, 84
1, 85056, Note_on_c, 1, 53, 84
1, 85056, Note_on_c, 1, 49, 84
1, 85071, Note_on_c, 0, 70, 0
1, 85072, Note_on_c, 0, 73, 84
1, 85087, Note_on_c, 0, 73, 0
1, 85088, Note_on_c, 0, 72, 84
1, 85103, Note_on_c, 0, 72, 0
1, 85104, Note_on_c, 0, 70, 84
1, 85119, Note_on_c, 0, 70, 0
1, 85120, Note_on_c, 0, 77, 84
1, 85135, Note_on_c, 0, 77, 0
1, 85136, Note_on_c, 0, 75, 84
1, 85145, Note_on_c, 1, 53, 0
1, 85145, Note_on_c, 1, 49, 0
1, 85151, Note_on_c, 0, 75, 0
1, 85152, Note_on_c, 0, 73, 84
1, 85167, Note_on_c, 0, 73, 0
1, 85168, Note_on_c, 0, 72, 84
1, 85183, Note_on_c, 0, 72, 0
1, 85184, Note_on_c, 0, 70, 84
1, 85199, Note_on_c, 0, 70, 0
1, 85200, Note_on_c, 0, 68, 84
1, 85215, Note_on_c, 0, 68, 0
1, 85216, Note_on_c, 0, 67, 84
1, 85231, Note_on_c, 0, 67, 0
1, 85232, Note_on_c, 0, 65, 84
1, 85247, Note_on_c, 0, 65, 0
1, 85248, Note_on_c, 0, 63, 84
1, 85248, Note_on_c, 1, 60, 75
1, 85248, Note_on_c, 1, 51, 75
1, 85295, Note_on_c, 1, 60, 0
1, 85295, Note_on_c, 1, 51, 0
1, 85296, Note_on_c, 1, 60, 74
1, 85296, Note_on_c, 1, 51, 74
1, 85315, Note_on_c, 0, 63, 0
1, 85320, Note_on_c, 0, 68, 80
1, 85332, Note_on_c, 0, 68, 0
1, 85332, Note_on_c, 0, 70, 80
1, 85343, Note_on_c, 1, 60, 0
1, 85343, Note_on_c, 1, 51, 0
1, 85344, Note_on_c, 0, 70, 0
1, 85344, Note_on_c, 0, 72, 79
1, 85344, Note_on_c, 1, 55, 73
1, 85344, Note_on_c, 1, 51, 73
1, 85352, Note_on_c, 0, 72, 0
1, 85352, Note_on_c, 0, 70, 79
1, 85360, Note_on_c, 0, 70, 0
1, 85360, Note_on_c, 0, 72, 79
1, 85368, Note_on_c, 0, 72, 0
1, 85368, Note_on_c, 0, 70, 78
1, 85376, Note_on_c, 0, 70, 0
1, 85376, Note_on_c, 0, 72, 78
1, 85384, Note_on_c, 0, 72, 0
1, 85384, Note_on_c, 0, 70, 78
1, 85391, Note_on_c, 1, 55, 0
1, 85391, Note_on_c, 1, 51, 0
1, 85392, Note_on_c, 0, 70, 0
1, 85392, Note_on_c, 0, 72, 78
1, 85392, Note_on_c, 1, 55, 72
1, 85392, Note_on_c, 1, 51, 72
1, 85400, Note_on_c, 0, 72, 0
1, 85400, Note_on_c, 0, 70, 77
1, 85408, Note_on_c, 0, 70, 0
1, 85408, Note_on_c, 0, 68, 77
1, 85424, Note_on_c, 0, 68, 0
1, 85424, Note_on_c, 0, 70, 77
1, 85439, Note_on_c, 1, 55, 0
1, 85439, Note_on_c, 1, 51, 0
1, 85440, Note_on_c, 0, 70, 0
1, 85440, Note_on_c, 0, 68, 92
1, 85440, Note_on_c, 1, 56, 87
1, 85536, Note_on_c, 0, 68, 0
1, 85536, Note_on_c, 0, 77, 72
1, 85536, Note_on_c, 0, 73, 72
1, 85536, Note_on_c, 1, 56, 0
1, 85536, Note_on_c, 1, 58, 69
1, 85536, Note_on_c, 1, 49, 69
1, 85581, Note_on_c, 0, 77, 0
1, 85581, Note_on_c, 0, 73, 0
1, 85581, Note_on_c, 1, 58, 0
1, 85581, Note_on_c, 1, 49, 0
1, 85584, Note_on_c, 0, 67, 69
1, 85584, Note_on_c, 0, 63, 69
1, 85584, Note_on_c, 1, 61, 69
1, 85584, Note_on_c, 1, 51, 69
1, 85632, Note_on_c, 0, 67, 0
1, 85632, Note_on_c, 0, 68, 69
1, 85632, Note_on_c, 1, 61, 0
1, 85632, Note_on_c, 1, 51, 0
1, 85632, Note_on_c, 1, 60, 69
1, 85632, Note_on_c, 1, 56, 69
1, 85677, Note_on_c, 0, 68, 0
1, 85677, Note_on_c, 0, 63, 0
1, 85677, Note_on_c, 1, 60, 0
1, 85677, Note_on_c, 1, 56, 0
1, 85728, Note_on_c, 0, 77, 61
1, 85728, Note_on_c, 0, 73, 61
1, 85728, Note_on_c, 1, 58, 61
1, 85728, Note_on_c, 1, 49, 61
1, 85773, Note_on_c, 0, 77, 0
1, 85773, Note_on_c, 0, 73, 0
1, 85773, Note_on_c, 1, 58, 0
1, 85773, Note_on_c, 1, 49, 0
1, 85776, Note_on_c, 0, 67, 61
1, 85776, Note_on_c, 0, 61, 61
1, 85776, Note_on_c, 1, 58, 61
1, 85776, Note_on_c, 1, 51, 61
1, 85824, Note_on_c, 0, 67, 0
1, 85824, Note_on_c, 0, 61, 0
1, 85824, Note_on_c, 0, 68, 61
1, 85824, Note_on_c, 0, 60, 61
1, 85824, Note_on_c, 1, 58, 0
1, 85824, Note_on_c, 1, 51, 0
1, 85824, Note_on_c, 1, 56, 61
1, 85824, Note_on_c, 1, 44, 61
1, 85957, Note_on_c, 0, 68, 0
1, 85957, Note_on_c, 0, 60, 0
1, 85957, Note_on_c, 1, 56, 0
1, 85957, Note_on_c, 1, 44, 0
1, 86016, Note_on_c, 1, 44, 0
1, 86105, Note_on_c, 1, 44, 0
1, 86115, End_track
0, 0, End_of_file