0, 0, Header, 0, 1, 96
1, 0, Start_track
1, 0, Tempo, 461538
1, 0, Note_on_c, 0, 74, 77
1, 0, Note_on_c, 1, 66, 70
1, 0, Note_on_c, 1, 62, 70
1, 89, Note_on_c, 0, 74, 0
1, 96, Note_on_c, 0, 78, 77
1, 177, Note_on_c, 1, 66, 0
1, 177, Note_on_c, 1, 62, 0
1, 185, Note_on_c, 0, 78, 0
1, 192, Note_on_c, 0, 81, 77
1, 192, Note_on_c, 1, 66, 70
1, 192, Note_on_c, 1, 62, 70
1, 222, Note_on_c, 0, 81, 0
1, 224, Note_on_c, 0, 78, 77
1, 254, Note_on_c, 0, 78, 0
1, 256, Note_on_c, 0, 74, 77
1, 281, Note_on_c, 1, 66, 0
1, 281, Note_on_c, 1, 62, 0
1, 286, Note_on_c, 0, 74, 0
1, 288, Note_on_c, 0, 74, 77
1, 288, Note_on_c, 1, 67, 70
1, 288, Note_on_c, 1, 64, 70
1, 377, Note_on_c, 0, 74, 0
1, 384, Note_on_c, 0, 73, 77
1, 473, Note_on_c, 0, 73, 0
1, 480, Note_on_c, 0, 71, 77
1, 480, Note_on_c, 1, 67, 0
1, 480, Note_on_c, 1, 64, 0
1, 480, Note_on_c, 1, 66, 70
1, 480, Note_on_c, 1, 62, 70
1, 569, Note_on_c, 1, 66, 0
1, 569, Note_on_c, 1, 62, 0
1, 576, Note_on_c, 1, 64, 70
1, 576, Note_on_c, 1, 61, 70
1, 665, Note_on_c, 0, 71, 0
1, 672, Note_on_c, 0, 69, 77
1, 761, Note_on_c, 0, 69, 0
1, 768, Note_on_c, 0, 67, 77
1, 768, Note_on_c, 1, 64, 0
1, 768, Note_on_c, 1, 57, 70
1, 857, Note_on_c, 0, 67, 0
1, 857, Note_on_c, 1, 61, 0
1, 857, Note_on_c, 1, 57, 0
1, 864, Note_on_c, 0, 69, 77
1, 864, Note_on_c, 1, 62, 70
1, 864, Note_on_c, 1, 59, 70
1, 887, Note_on_c, 0, 69, 0
1, 888, Note_on_c, 0, 67, 77
1, 911, Note_on_c, 0, 67, 0
1, 912, Note_on_c, 0, 66, 77
1, 935, Note_on_c, 0, 66, 0
1, 936, Note_on_c, 0, 67, 77
1, 959, Note_on_c, 0, 67, 0
1, 960, Note_on_c, 0, 66, 77
1, 1041, Note_on_c, 1, 62, 0
1, 1041, Note_on_c, 1, 59, 0
1, 1049, Note_on_c, 0, 66, 0
1, 1152, Note_on_c, 0, 64, 77
1, 1152, Note_on_c, 1, 43, 85
1, 1152, Note_on_c, 1, 31, 85
1, 1241, Note_on_c, 0, 64, 0
1, 1248, Note_on_c, 0, 67, 77
1, 1329, Note_on_c, 1, 43, 0
1, 1329, Note_on_c, 1, 31, 0
1, 1337, Note_on_c, 0, 67, 0
1, 1344, Note_on_c, 0, 71, 77
1, 1374, Note_on_c, 0, 71, 0
1, 1376, Note_on_c, 0, 67, 77
1, 1406, Note_on_c, 0, 67, 0
1, 1408, Note_on_c, 0, 64, 77
1, 1438, Note_on_c, 0, 64, 0
1, 1440, Note_on_c, 0, 62, 77
1, 1440, Note_on_c, 1, 57, 77
1, 1440, Note_on_c, 1, 55, 77
1, 1529, Note_on_c, 0, 62, 0
1, 1536, Note_on_c, 0, 61, 77
1, 1549, Note_on_c, 0, 61, 0
1, 1550, Note_on_c, 0, 62, 77
1, 1563, Note_on_c, 0, 62, 0
1, 1564, Note_on_c, 0, 61, 77
1, 1577, Note_on_c, 0, 61, 0
1, 1578, Note_on_c, 0, 62, 77
1, 1591, Note_on_c, 0, 62, 0
1, 1592, Note_on_c, 0, 61, 77
1, 1605, Note_on_c, 0, 61, 0
1, 1606, Note_on_c, 0, 59, 77
1, 1617, Note_on_c, 1, 57, 0
1, 1617, Note_on_c, 1, 55, 0
1, 1618, Note_on_c, 0, 59, 0
1, 1619, Note_on_c, 0, 61, 77
1, 1631, Note_on_c, 0, 61, 0
1, 1632, Note_on_c, 0, 62, 77
1, 1632, Note_on_c, 1, 57, 77
1, 1632, Note_on_c, 1, 54, 77
1, 1721, Note_on_c, 0, 62, 0
1, 1721, Note_on_c, 1, 57, 0
1, 1721, Note_on_c, 1, 54, 0
1, 1728, Note_on_c, 0, 57, 77
1, 1728, Note_on_c, 1, 49, 77
1, 1817, Note_on_c, 0, 57, 0
1, 1824, Note_on_c, 0, 67, 77
1, 1824, Note_on_c, 0, 64, 77
1, 1905, Note_on_c, 1, 49, 0
1, 1913, Note_on_c, 0, 67, 0
1, 1913, Note_on_c, 0, 64, 0
1, 1920, Note_on_c, 0, 66, 77
1, 1920, Note_on_c, 0, 62, 77
1, 1920, Note_on_c, 1, 50, 77
1, 2009, Note_on_c, 0, 66, 0
1, 2009, Note_on_c, 0, 62, 0
1, 2009, Note_on_c, 1, 50, 0
1, 2016, Note_on_c, 0, 66, 77
1, 2016, Note_on_c, 0, 62, 77
1, 2016, Note_on_c, 1, 45, 77
1, 2105, Note_on_c, 1, 45, 0
1, 2112, Note_on_c, 0, 66, 0
1, 2112, Note_on_c, 0, 62, 0
1, 2112, Note_on_c, 0, 64, 77
1, 2112, Note_on_c, 0, 61, 77
1, 2112, Note_on_c, 1, 57, 77
1, 2201, Note_on_c, 0, 64, 0
1, 2201, Note_on_c, 0, 61, 0
1, 2201, Note_on_c, 1, 57, 0
1, 2208, Note_on_c, 1, 45, 77
1, 2297, Note_on_c, 1, 45, 0
1, 2304, Note_on_c, 0, 74, 77
1, 2304, Note_on_c, 1, 66, 70
1, 2304, Note_on_c, 1, 62, 70
1, 2393, Note_on_c, 0, 74, 0
1, 2400, Note_on_c, 0, 78, 77
1, 2481, Note_on_c, 1, 66, 0
1, 2481, Note_on_c, 1, 62, 0
1, 2489, Note_on_c, 0, 78, 0
1, 2496, Note_on_c, 0, 81, 77
1, 2496, Note_on_c, 1, 66, 70
1, 2496, Note_on_c, 1, 62, 70
1, 2526, Note_on_c, 0, 81, 0
1, 2528, Note_on_c, 0, 78, 77
1, 2558, Note_on_c, 0, 78, 0
1, 2560, Note_on_c, 0, 74, 77
1, 2585, Note_on_c, 1, 66, 0
1, 2585, Note_on_c, 1, 62, 0
1, 2590, Note_on_c, 0, 74, 0
1, 2592, Note_on_c, 0, 74, 77
1, 2592, Note_on_c, 1, 67, 70
1, 2592, Note_on_c, 1, 64, 70
1, 2681, Note_on_c, 0, 74, 0
1, 2688, Note_on_c, 0, 73, 77
1, 2777, Note_on_c, 0, 73, 0
1, 2784, Note_on_c, 0, 71, 77
1, 2784, Note_on_c, 1, 67, 0
1, 2784, Note_on_c, 1, 64, 0
1, 2784, Note_on_c, 1, 66, 70
1, 2784, Note_on_c, 1, 62, 70
1, 2873, Note_on_c, 1, 66, 0
1, 2873, Note_on_c, 1, 62, 0
1, 2880, Note_on_c, 1, 64, 70
1, 2880, Note_on_c, 1, 61, 70
1, 2969, Note_on_c, 0, 71, 0
1, 2976, Note_on_c, 0, 69, 77
1, 3065, Note_on_c, 0, 69, 0
1, 3072, Note_on_c, 0, 67, 77
1, 3072, Note_on_c, 1, 64, 0
1, 3072, Note_on_c, 1, 57, 70
1, 3161, Note_on_c, 0, 67, 0
1, 3161, Note_on_c, 1, 61, 0
1, 3161, Note_on_c, 1, 57, 0
1, 3168, Note_on_c, 0, 69, 77
1, 3168, Note_on_c, 1, 62, 70
1, 3168, Note_on_c, 1, 59, 70
1, 3191, Note_on_c, 0, 69, 0
1, 3192, Note_on_c, 0, 67, 77
1, 3215, Note_on_c, 0, 67, 0
1, 3216, Note_on_c, 0, 66, 77
1, 3239, Note_on_c, 0, 66, 0
1, 3240, Note_on_c, 0, 67, 77
1, 3263, Note_on_c, 0, 67, 0
1, 3264, Note_on_c, 0, 66, 77
1, 3345, Note_on_c, 1, 62, 0
1, 3345, Note_on_c, 1, 59, 0
1, 3353, Note_on_c, 0, 66, 0
1, 3456, Note_on_c, 0, 64, 77
1, 3456, Note_on_c, 1, 43, 85
1, 3456, Note_on_c, 1, 31, 85
1, 3545, Note_on_c, 0, 64, 0
1, 3552, Note_on_c, 0, 67, 77
1, 3633, Note_on_c, 1, 43, 0
1, 3633, Note_on_c, 1, 31, 0
1, 3641, Note_on_c, 0, 67, 0
1, 3648, Note_on_c, 0, 71, 77
1, 3678, Note_on_c, 0, 71, 0
1, 3680, Note_on_c, 0, 67, 77
1, 3710, Note_on_c, 0, 67, 0
1, 3712, Note_on_c, 0, 64, 77
1, 3742, Note_on_c, 0, 64, 0
1, 3744, Note_on_c, 0, 62, 77
1, 3744, Note_on_c, 1, 57, 77
1, 3744, Note_on_c, 1, 55, 77
1, 3833, Note_on_c, 0, 62, 0
1, 3840, Note_on_c, 0, 61, 77
1, 3853, Note_on_c, 0, 61, 0
1, 3854, Note_on_c, 0, 62, 77
1, 3867, Note_on_c, 0, 62, 0
1, 3868, Note_on_c, 0, 61, 77
1, 3881, Note_on_c, 0, 61, 0
1, 3882, Note_on_c, 0, 62, 77
1, 3895, Note_on_c, 0, 62, 0
1, 3896, Note_on_c, 0, 61, 77
1, 3909, Note_on_c, 0, 61, 0
1, 3910, Note_on_c, 0, 59, 77
1, 3921, Note_on_c, 1, 57, 0
1, 3921, Note_on_c, 1, 55, 0
1, 3922, Note_on_c, 0, 59, 0
1, 3923, Note_on_c, 0, 61, 77
1, 3935, Note_on_c, 0, 61, 0
1, 3936, Note_on_c, 0, 62, 77
1, 3936, Note_on_c, 1, 57, 77
1, 3936, Note_on_c, 1, 54, 77
1, 4025, Note_on_c, 0, 62, 0
1, 4025, Note_on_c, 1, 57, 0
1, 4025, Note_on_c, 1, 54, 0
1, 4032, Note_on_c, 0, 57, 77
1, 4032, Note_on_c, 1, 49, 77
1, 4121, Note_on_c, 0, 57, 0
1, 4128, Note_on_c, 0, 67, 77
1, 4128, Note_on_c, 0, 64, 77
1, 4209, Note_on_c, 1, 49, 0
1, 4217, Note_on_c, 0, 67, 0
1, 4217, Note_on_c, 0, 64, 0
1, 4224, Note_on_c, 0, 66, 77
1, 4224, Note_on_c, 0, 62, 77
1, 4224, Note_on_c, 1, 50, 77
1, 4313, Note_on_c, 0, 66, 0
1, 4313, Note_on_c, 0, 62, 0
1, 4313, Note_on_c, 1, 50, 0
1, 4320, Note_on_c, 0, 66, 77
1, 4320, Note_on_c, 0, 62, 77
1, 4320, Note_on_c, 1, 45, 77
1, 4409, Note_on_c, 1, 45, 0
1, 4416, Note_on_c, 0, 66, 0
1, 4416, Note_on_c, 0, 62, 0
1, 4416, Note_on_c, 0, 64, 77
1, 4416, Note_on_c, 0, 61, 77
1, 4416, Note_on_c, 1, 57, 77
1, 4505, Note_on_c, 0, 64, 0
1, 4505, Note_on_c, 0, 61, 0
1, 4505, Note_on_c, 1, 57, 0
1, 4512, Note_on_c, 1, 45, 77
1, 4601, Note_on_c, 1, 45, 0
1, 4608, Note_on_c, 1, 61, 77
1, 4608, Note_on_c, 1, 57, 77
1, 4697, Note_on_c, 1, 61, 0
1, 4697, Note_on_c, 1, 57, 0
1, 4704, Note_on_c, 0, 76, 77
1, 4734, Note_on_c, 0, 76, 0
1, 4736, Note_on_c, 0, 73, 77
1, 4766, Note_on_c, 0, 73, 0
1, 4768, Note_on_c, 0, 69, 77
1, 4798, Note_on_c, 0, 69, 0
1, 4800, Note_on_c, 0, 69, 77
1, 4889, Note_on_c, 0, 69, 0
1, 4896, Note_on_c, 1, 62, 77
1, 4896, Note_on_c, 1, 59, 77
1, 4985, Note_on_c, 1, 62, 0
1, 4985, Note_on_c, 1, 59, 0
1, 4992, Note_on_c, 0, 74, 77
1, 5022, Note_on_c, 0, 74, 0
1, 5024, Note_on_c, 0, 71, 77
1, 5054, Note_on_c, 0, 71, 0
1, 5056, Note_on_c, 0, 68, 77
1, 5086, Note_on_c, 0, 68, 0
1, 5088, Note_on_c, 0, 68, 77
1, 5177, Note_on_c, 0, 68, 0
1, 5184, Note_on_c, 1, 62, 77
1, 5184, Note_on_c, 1, 59, 77
1, 5273, Note_on_c, 1, 62, 0
1, 5273, Note_on_c, 1, 59, 0
1, 5280, Note_on_c, 0, 86, 77
1, 5310, Note_on_c, 0, 86, 0
1, 5312, Note_on_c, 0, 83, 76
1, 5342, Note_on_c, 0, 83, 0
1, 5344, Note_on_c, 0, 80, 76
1, 5374, Note_on_c, 0, 80, 0
1, 5376, Note_on_c, 0, 80, 75
1, 5465, Note_on_c, 0, 80, 0
1, 5472, Note_on_c, 1, 64, 77
1, 5472, Note_on_c, 1, 61, 77
1, 5561, Note_on_c, 1, 64, 0
1, 5561, Note_on_c, 1, 61, 0
1, 5568, Note_on_c, 0, 81, 72
1, 5598, Note_on_c, 0, 81, 0
1, 5600, Note_on_c, 0, 83, 72
1, 5630, Note_on_c, 0, 83, 0
1, 5632, Note_on_c, 0, 79, 72
1, 5662, Note_on_c, 0, 79, 0
1, 5664, Tempo, 521739
1, 5664, Note_on_c, 0, 76, 71
1, 5753, Note_on_c, 0, 76, 0
1, 5760, Tempo, 461538
1, 5760, Note_on_c, 1, 66, 70
1, 5760, Note_on_c, 1, 62, 70
1, 5856, Note_on_c, 0, 78, 77
1, 5937, Note_on_c, 1, 66, 0
1, 5937, Note_on_c, 1, 62, 0
1, 5945, Note_on_c, 0, 78, 0
1, 5952, Note_on_c, 0, 81, 77
1, 5952, Note_on_c, 1, 66, 70
1, 5952, Note_on_c, 1, 62, 70
1, 5982, Note_on_c, 0, 81, 0
1, 5984, Note_on_c, 0, 78, 77
1, 6014, Note_on_c, 0, 78, 0
1, 6016, Note_on_c, 0, 74, 77
1, 6041, Note_on_c, 1, 66, 0
1, 6041, Note_on_c, 1, 62, 0
1, 6046, Note_on_c, 0, 74, 0
1, 6048, Note_on_c, 0, 74, 77
1, 6048, Note_on_c, 1, 67, 70
1, 6048, Note_on_c, 1, 64, 70
1, 6137, Note_on_c, 0, 74, 0
1, 6144, Note_on_c, 0, 73, 77
1, 6233, Note_on_c, 0, 73, 0
1, 6240, Note_on_c, 0, 71, 77
1, 6240, Note_on_c, 1, 67, 0
1, 6240, Note_on_c, 1, 64, 0
1, 6240, Note_on_c, 1, 66, 70
1, 6240, Note_on_c, 1, 62, 70
1, 6329, Note_on_c, 1, 66, 0
1, 6329, Note_on_c, 1, 62, 0
1, 6336, Note_on_c, 1, 64, 70
1, 6336, Note_on_c, 1, 61, 70
1, 6425, Note_on_c, 0, 71, 0
1, 6432, Note_on_c, 0, 69, 77
1, 6521, Note_on_c, 0, 69, 0
1, 6528, Note_on_c, 0, 67, 77
1, 6528, Note_on_c, 1, 64, 0
1, 6528, Note_on_c, 1, 57, 70
1, 6617, Note_on_c, 0, 67, 0
1, 6617, Note_on_c, 1, 61, 0
1, 6617, Note_on_c, 1, 57, 0
1, 6624, Note_on_c, 0, 69, 77
1, 6624, Note_on_c, 1, 62, 70
1, 6624, Note_on_c, 1, 59, 70
1, 6647, Note_on_c, 0, 69, 0
1, 6648, Note_on_c, 0, 67, 77
1, 6671, Note_on_c, 0, 67, 0
1, 6672, Note_on_c, 0, 66, 77
1, 6695, Note_on_c, 0, 66, 0
1, 6696, Note_on_c, 0, 67, 77
1, 6719, Note_on_c, 0, 67, 0
1, 6720, Note_on_c, 0, 66, 77
1, 6801, Note_on_c, 1, 62, 0
1, 6801, Note_on_c, 1, 59, 0
1, 6809, Note_on_c, 0, 66, 0
1, 6912, Note_on_c, 0, 64, 77
1, 6912, Note_on_c, 1, 43, 85
1, 6912, Note_on_c, 1, 31, 85
1, 7001, Note_on_c, 0, 64, 0
1, 7008, Note_on_c, 0, 67, 77
1, 7089, Note_on_c, 1, 43, 0
1, 7089, Note_on_c, 1, 31, 0
1, 7097, Note_on_c, 0, 67, 0
1, 7104, Note_on_c, 0, 71, 77
1, 7134, Note_on_c, 0, 71, 0
1, 7136, Note_on_c, 0, 67, 77
1, 7166, Note_on_c, 0, 67, 0
1, 7168, Note_on_c, 0, 64, 77
1, 7198, Note_on_c, 0, 64, 0
1, 7200, Note_on_c, 0, 62, 77
1, 7200, Note_on_c, 1, 57, 77
1, 7200, Note_on_c, 1, 55, 77
1, 7289, Note_on_c, 0, 62, 0
1, 7296, Note_on_c, 0, 61, 77
1, 7309, Note_on_c, 0, 61, 0
1, 7310, Note_on_c, 0, 62, 77
1, 7323, Note_on_c, 0, 62, 0
1, 7324, Note_on_c, 0, 61, 77
1, 7337, Note_on_c, 0, 61, 0
1, 7338, Note_on_c, 0, 62, 77
1, 7351, Note_on_c, 0, 62, 0
1, 7352, Note_on_c, 0, 61, 77
1, 7365, Note_on_c, 0, 61, 0
1, 7366, Note_on_c, 0, 59, 77
1, 7377, Note_on_c, 1, 57, 0
1, 7377, Note_on_c, 1, 55, 0
1, 7378, Note_on_c, 0, 59, 0
1, 7379, Note_on_c, 0, 61, 77
1, 7391, Note_on_c, 0, 61, 0
1, 7392, Note_on_c, 0, 62, 77
1, 7392, Note_on_c, 1, 57, 77
1, 7392, Note_on_c, 1, 54, 77
1, 7481, Note_on_c, 0, 62, 0
1, 7481, Note_on_c, 1, 57, 0
1, 7481, Note_on_c, 1, 54, 0
1, 7488, Note_on_c, 0, 76, 77
1, 7488, Note_on_c, 1, 71, 77
1, 7488, Note_on_c, 1, 67, 77
1, 7577, Note_on_c, 0, 76, 0
1, 7577, Note_on_c, 1, 71, 0
1, 7577, Note_on_c, 1, 67, 0
1, 7584, Note_on_c, 0, 83, 77
1, 7614, Note_on_c, 0, 83, 0
1, 7616, Note_on_c, 0, 79, 77
1, 7646, Note_on_c, 0, 79, 0
1, 7648, Note_on_c, 0, 76, 77
1, 7678, Note_on_c, 0, 76, 0
1, 7680, Note_on_c, 0, 85, 77
1, 7680, Note_on_c, 1, 69, 77
1, 7680, Note_on_c, 1, 67, 77
1, 7710, Note_on_c, 0, 85, 0
1, 7712, Note_on_c, 0, 79, 77
1, 7742, Note_on_c, 0, 79, 0
1, 7744, Note_on_c, 0, 76, 77
1, 7769, Note_on_c, 1, 69, 0
1, 7769, Note_on_c, 1, 67, 0
1, 7774, Note_on_c, 0, 76, 0
1, 7776, Note_on_c, 0, 86, 77
1, 7776, Note_on_c, 1, 69, 77
1, 7776, Note_on_c, 1, 66, 77
1, 7865, Note_on_c, 0, 86, 0
1, 7865, Note_on_c, 1, 69, 0
1, 7865, Note_on_c, 1, 66, 0
1, 7872, Note_on_c, 0, 74, 77
1, 7902, Note_on_c, 0, 74, 0
1, 7904, Note_on_c, 0, 78, 77
1, 7934, Note_on_c, 0, 78, 0
1, 7936, Note_on_c, 0, 81, 77
1, 7966, Note_on_c, 0, 81, 0
1, 7968, Note_on_c, 0, 86, 77
1, 8057, Note_on_c, 0, 86, 0
1, 8064, Note_on_c, 0, 83, 77
1, 8064, Note_on_c, 1, 67, 77
1, 8094, Note_on_c, 0, 83, 0
1, 8096, Note_on_c, 0, 81, 77
1, 8126, Note_on_c, 0, 81, 0
1, 8128, Note_on_c, 0, 79, 77
1, 8153, Note_on_c, 1, 67, 0
1, 8158, Note_on_c, 0, 79, 0
1, 8160, Note_on_c, 0, 78, 77
1, 8160, Note_on_c, 1, 69, 77
1, 8249, Note_on_c, 0, 78, 0
1, 8249, Note_on_c, 1, 69, 0
1, 8256, Note_on_c, 0, 76, 77
1, 8256, Note_on_c, 1, 57, 77
1, 8269, Note_on_c, 0, 76, 0
1, 8270, Note_on_c, 0, 78, 77
1, 8283, Note_on_c, 0, 78, 0
1, 8284, Note_on_c, 0, 76, 77
1, 8297, Note_on_c, 0, 76, 0
1, 8298, Note_on_c, 0, 78, 77
1, 8311, Note_on_c, 0, 78, 0
1, 8312, Note_on_c, 0, 76, 77
1, 8325, Note_on_c, 0, 76, 0
1, 8326, Note_on_c, 0, 74, 77
1, 8338, Note_on_c, 0, 74, 0
1, 8339, Note_on_c, 0, 76, 77
1, 8345, Note_on_c, 1, 57, 0
1, 8351, Note_on_c, 0, 76, 0
1, 8352, Note_on_c, 0, 74, 77
1, 8352, Note_on_c, 1, 62, 77
1, 8441, Note_on_c, 1, 62, 0
1, 8448, Note_on_c, 1, 57, 77
1, 8529, Note_on_c, 0, 74, 0
1, 8537, Note_on_c, 1, 57, 0
1, 8544, Note_on_c, 1, 50, 77
1, 8633, Note_on_c, 1, 50, 0
1, 8640, Note_on_c, 1, 61, 77
1, 8640, Note_on_c, 1, 57, 77
1, 8729, Note_on_c, 1, 61, 0
1, 8729, Note_on_c, 1, 57, 0
1, 8736, Note_on_c, 0, 76, 77
1, 8766, Note_on_c, 0, 76, 0
1, 8768, Note_on_c, 0, 73, 77
1, 8798, Note_on_c, 0, 73, 0
1, 8800, Note_on_c, 0, 69, 77
1, 8830, Note_on_c, 0, 69, 0
1, 8832, Note_on_c, 0, 69, 77
1, 8921, Note_on_c, 0, 69, 0
1, 8928, Note_on_c, 1, 62, 77
1, 8928, Note_on_c, 1, 59, 77
1, 9017, Note_on_c, 1, 62, 0
1, 9017, Note_on_c, 1, 59, 0
1, 9024, Note_on_c, 0, 74, 77
1, 9054, Note_on_c, 0, 74, 0
1, 9056, Note_on_c, 0, 71, 77
1, 9086, Note_on_c, 0, 71, 0
1, 9088, Note_on_c, 0, 68, 77
1, 9118, Note_on_c, 0, 68, 0
1, 9120, Note_on_c, 0, 68, 77
1, 9209, Note_on_c, 0, 68, 0
1, 9216, Note_on_c, 1, 62, 77
1, 9216, Note_on_c, 1, 59, 77
1, 9305, Note_on_c, 1, 62, 0
1, 9305, Note_on_c, 1, 59, 0
1, 9312, Note_on_c, 0, 86, 77
1, 9342, Note_on_c, 0, 86, 0
1, 9344, Note_on_c, 0, 83, 76
1, 9374, Note_on_c, 0, 83, 0
1, 9376, Note_on_c, 0, 80, 76
1, 9406, Note_on_c, 0, 80, 0
1, 9408, Note_on_c, 0, 80, 75
1, 9497, Note_on_c, 0, 80, 0
1, 9504, Note_on_c, 1, 64, 77
1, 9504, Note_on_c, 1, 61, 77
1, 9593, Note_on_c, 1, 64, 0
1, 9593, Note_on_c, 1, 61, 0
1, 9600, Note_on_c, 0, 81, 72
1, 9630, Note_on_c, 0, 81, 0
1, 9632, Note_on_c, 0, 83, 72
1, 9662, Note_on_c, 0, 83, 0
1, 9664, Note_on_c, 0, 79, 72
1, 9694, Note_on_c, 0, 79, 0
1, 9696, Tempo, 521739
1, 9696, Note_on_c, 0, 76, 71
1, 9785, Note_on_c, 0, 76, 0
1, 9792, Tempo, 461538
1, 9792, Note_on_c, 1, 66, 70
1, 9792, Note_on_c, 1, 62, 70
1, 9888, Note_on_c, 0, 78, 77
1, 9969, Note_on_c, 1, 66, 0
1, 9969, Note_on_c, 1, 62, 0
1, 9977, Note_on_c, 0, 78, 0
1, 9984, Note_on_c, 0, 81, 77
1, 9984, Note_on_c, 1, 66, 70
1, 9984, Note_on_c, 1, 62, 70
1, 10014, Note_on_c, 0, 81, 0
1, 10016, Note_on_c, 0, 78, 77
1, 10046, Note_on_c, 0, 78, 0
1, 10048, Note_on_c, 0, 74, 77
1, 10073, Note_on_c, 1, 66, 0
1, 10073, Note_on_c, 1, 62, 0
1, 10078, Note_on_c, 0, 74, 0
1, 10080, Note_on_c, 0, 74, 77
1, 10080, Note_on_c, 1, 67, 70
1, 10080, Note_on_c, 1, 64, 70
1, 10169, Note_on_c, 0, 74, 0
1, 10176, Note_on_c, 0, 73, 77
1, 10265, Note_on_c, 0, 73, 0
1, 10272, Note_on_c, 0, 71, 77
1, 10272, Note_on_c, 1, 67, 0
1, 10272, Note_on_c, 1, 64, 0
1, 10272, Note_on_c, 1, 66, 70
1, 10272, Note_on_c, 1, 62, 70
1, 10361, Note_on_c, 1, 66, 0
1, 10361, Note_on_c, 1, 62, 0
1, 10368, Note_on_c, 1, 64, 70
1, 10368, Note_on_c, 1, 61, 70
1, 10457, Note_on_c, 0, 71, 0
1, 10464, Note_on_c, 0, 69, 77
1, 10553, Note_on_c, 0, 69, 0
1, 10560, Note_on_c, 0, 67, 77
1, 10560, Note_on_c, 1, 64, 0
1, 10560, Note_on_c, 1, 57, 70
1, 10649, Note_on_c, 0, 67, 0
1, 10649, Note_on_c, 1, 61, 0
1, 10649, Note_on_c, 1, 57, 0
1, 10656, Note_on_c, 0, 69, 77
1, 10656, Note_on_c, 1, 62, 70
1, 10656, Note_on_c, 1, 59, 70
1, 10679, Note_on_c, 0, 69, 0
1, 10680, Note_on_c, 0, 67, 77
1, 10703, Note_on_c, 0, 67, 0
1, 10704, Note_on_c, 0, 66, 77
1, 10727, Note_on_c, 0, 66, 0
1, 10728, Note_on_c, 0, 67, 77
1, 10751, Note_on_c, 0, 67, 0
1, 10752, Note_on_c, 0, 66, 77
1, 10833, Note_on_c, 1, 62, 0
1, 10833, Note_on_c, 1, 59, 0
1, 10841, Note_on_c, 0, 66, 0
1, 10944, Note_on_c, 0, 64, 77
1, 10944, Note_on_c, 1, 43, 85
1, 10944, Note_on_c, 1, 31, 85
1, 11033, Note_on_c, 0, 64, 0
1, 11040, Note_on_c, 0, 67, 77
1, 11121, Note_on_c, 1, 43, 0
1, 11121, Note_on_c, 1, 31, 0
1, 11129, Note_on_c, 0, 67, 0
1, 11136, Note_on_c, 0, 71, 77
1, 11166, Note_on_c, 0, 71, 0
1, 11168, Note_on_c, 0, 67, 77
1, 11198, Note_on_c, 0, 67, 0
1, 11200, Note_on_c, 0, 64, 77
1, 11230, Note_on_c, 0, 64, 0
1, 11232, Note_on_c, 0, 62, 77
1, 11232, Note_on_c, 1, 57, 77
1, 11232, Note_on_c, 1, 55, 77
1, 11321, Note_on_c, 0, 62, 0
1, 11328, Note_on_c, 0, 61, 77
1, 11341, Note_on_c, 0, 61, 0
1, 11342, Note_on_c, 0, 62, 77
1, 11355, Note_on_c, 0, 62, 0
1, 11356, Note_on_c, 0, 61, 77
1, 11369, Note_on_c, 0, 61, 0
1, 11370, Note_on_c, 0, 62, 77
1, 11383, Note_on_c, 0, 62, 0
1, 11384, Note_on_c, 0, 61, 77
1, 11397, Note_on_c, 0, 61, 0
1, 11398, Note_on_c, 0, 59, 77
1, 11409, Note_on_c, 1, 57, 0
1, 11409, Note_on_c, 1, 55, 0
1, 11410, Note_on_c, 0, 59, 0
1, 11411, Note_on_c, 0, 61, 77
1, 11423, Note_on_c, 0, 61, 0
1, 11424, Note_on_c, 0, 62, 77
1, 11424, Note_on_c, 1, 57, 77
1, 11424, Note_on_c, 1, 54, 77
1, 11513, Note_on_c, 0, 62, 0
1, 11513, Note_on_c, 1, 57, 0
1, 11513, Note_on_c, 1, 54, 0
1, 11520, Note_on_c, 0, 76, 77
1, 11520, Note_on_c, 1, 71, 77
1, 11520, Note_on_c, 1, 67, 77
1, 11609, Note_on_c, 0, 76, 0
1, 11609, Note_on_c, 1, 71, 0
1, 11609, Note_on_c, 1, 67, 0
1, 11616, Note_on_c, 0, 83, 77
1, 11646, Note_on_c, 0, 83, 0
1, 11648, Note_on_c, 0, 79, 77
1, 11678, Note_on_c, 0, 79, 0
1, 11680, Note_on_c, 0, 76, 77
1, 11710, Note_on_c, 0, 76, 0
1, 11712, Note_on_c, 0, 85, 77
1, 11712, Note_on_c, 1, 69, 77
1, 11712, Note_on_c, 1, 67, 77
1, 11742, Note_on_c, 0, 85, 0
1, 11744, Note_on_c, 0, 79, 77
1, 11774, Note_on_c, 0, 79, 0
1, 11776, Note_on_c, 0, 76, 77
1, 11801, Note_on_c, 1, 69, 0
1, 11801, Note_on_c, 1, 67, 0
1, 11806, Note_on_c, 0, 76, 0
1, 11808, Note_on_c, 0, 86, 77
1, 11808, Note_on_c, 1, 69, 77
1, 11808, Note_on_c, 1, 66, 77
1, 11897, Note_on_c, 0, 86, 0
1, 11897, Note_on_c, 1, 69, 0
1, 11897, Note_on_c, 1, 66, 0
1, 11904, Note_on_c, 0, 74, 77
1, 11934, Note_on_c, 0, 74, 0
1, 11936, Note_on_c, 0, 78, 77
1, 11966, Note_on_c, 0, 78, 0
1, 11968, Note_on_c, 0, 81, 77
1, 11998, Note_on_c, 0, 81, 0
1, 12000, Note_on_c, 0, 86, 77
1, 12089, Note_on_c, 0, 86, 0
1, 12096, Note_on_c, 0, 83, 77
1, 12096, Note_on_c, 1, 67, 77
1, 12126, Note_on_c, 0, 83, 0
1, 12128, Note_on_c, 0, 81, 77
1, 12158, Note_on_c, 0, 81, 0
1, 12160, Note_on_c, 0, 79, 77
1, 12185, Note_on_c, 1, 67, 0
1, 12190, Note_on_c, 0, 79, 0
1, 12192, Note_on_c, 0, 78, 77
1, 12192, Note_on_c, 1, 69, 77
1, 12281, Note_on_c, 0, 78, 0
1, 12281, Note_on_c, 1, 69, 0
1, 12288, Note_on_c, 0, 76, 77
1, 12288, Note_on_c, 1, 57, 77
1, 12301, Note_on_c, 0, 76, 0
1, 12302, Note_on_c, 0, 78, 77
1, 12315, Note_on_c, 0, 78, 0
1, 12316, Note_on_c, 0, 76, 77
1, 12329, Note_on_c, 0, 76, 0
1, 12330, Note_on_c, 0, 78, 77
1, 12343, Note_on_c, 0, 78, 0
1, 12344, Note_on_c, 0, 76, 77
1, 12357, Note_on_c, 0, 76, 0
1, 12358, Note_on_c, 0, 74, 77
1, 12370, Note_on_c, 0, 74, 0
1, 12371, Note_on_c, 0, 76, 77
1, 12377, Note_on_c, 1, 57, 0
1, 12383, Note_on_c, 0, 76, 0
1, 12384, Note_on_c, 0, 74, 77
1, 12384, Note_on_c, 1, 62, 77
1, 12473, Note_on_c, 1, 62, 0
1, 12480, Note_on_c, 1, 57, 77
1, 12561, Note_on_c, 0, 74, 0
1, 12569, Note_on_c, 1, 57, 0
1, 12576, Note_on_c, 1, 50, 77
1, 12665, Note_on_c, 1, 50, 0
1, 12672, Note_on_c, 0, 74, 77
1, 12672, Note_on_c, 1, 50, 77
1, 12744, Note_on_c, 0, 74, 0
1, 12744, Note_on_c, 0, 76, 77
1, 12761, Note_on_c, 1, 50, 0
1, 12767, Note_on_c, 0, 76, 0
1, 12768, Note_on_c, 0, 74, 77
1, 12768, Note_on_c, 1, 52, 77
1, 12816, Note_on_c, 0, 74, 0
1, 12816, Note_on_c, 0, 73, 77
1, 12857, Note_on_c, 1, 52, 0
1, 12861, Note_on_c, 0, 73, 0
1, 12864, Note_on_c, 0, 74, 77
1, 12864, Note_on_c, 1, 54, 77
1, 12912, Note_on_c, 0, 74, 0
1, 12912, Note_on_c, 0, 72, 77
1, 12953, Note_on_c, 1, 54, 0
1, 12957, Note_on_c, 0, 72, 0
1, 12960, Note_on_c, 0, 72, 77
1, 12960, Note_on_c, 1, 55, 77
1, 13008, Note_on_c, 0, 72, 0
1, 13008, Note_on_c, 0, 71, 77
1, 13049, Note_on_c, 1, 55, 0
1, 13053, Note_on_c, 0, 71, 0
1, 13056, Note_on_c, 0, 71, 77
1, 13056, Note_on_c, 1, 43, 77
1, 13145, Note_on_c, 1, 43, 0
1, 13152, Note_on_c, 1, 54, 77
1, 13189, Note_on_c, 0, 71, 0
1, 13200, Note_on_c, 0, 69, 77
1, 13241, Note_on_c, 1, 54, 0
1, 13245, Note_on_c, 0, 69, 0
1, 13248, Note_on_c, 0, 67, 77
1, 13248, Note_on_c, 1, 52, 77
1, 13296, Note_on_c, 0, 67, 0
1, 13296, Note_on_c, 0, 69, 77
1, 13337, Note_on_c, 1, 52, 0
1, 13341, Note_on_c, 0, 69, 0
1, 13344, Note_on_c, 0, 67, 77
1, 13344, Note_on_c, 1, 49, 77
1, 13392, Note_on_c, 0, 67, 0
1, 13392, Note_on_c, 0, 64, 77
1, 13433, Note_on_c, 1, 49, 0
1, 13437, Note_on_c, 0, 64, 0
1, 13440, Note_on_c, 0, 66, 77
1, 13440, Note_on_c, 1, 50, 77
1, 13488, Note_on_c, 0, 66, 0
1, 13488, Note_on_c, 0, 62, 77
1, 13529, Note_on_c, 1, 50, 0
1, 13533, Note_on_c, 0, 62, 0
1, 13536, Note_on_c, 0, 66, 77
1, 13536, Note_on_c, 1, 57, 77
1, 13625, Note_on_c, 0, 66, 0
1, 13625, Note_on_c, 1, 57, 0
1, 13632, Note_on_c, 0, 64, 77
1, 13632, Note_on_c, 1, 55, 77
1, 13645, Note_on_c, 0, 64, 0
1, 13646, Note_on_c, 0, 66, 77
1, 13659, Note_on_c, 0, 66, 0
1, 13660, Note_on_c, 0, 64, 77
1, 13673, Note_on_c, 0, 64, 0
1, 13674, Note_on_c, 0, 66, 77
1, 13687, Note_on_c, 0, 66, 0
1, 13688, Note_on_c, 0, 64, 77
1, 13701, Note_on_c, 0, 64, 0
1, 13702, Note_on_c, 0, 62, 77
1, 13714, Note_on_c, 0, 62, 0
1, 13715, Note_on_c, 0, 64, 77
1, 13721, Note_on_c, 1, 55, 0
1, 13727, Note_on_c, 0, 64, 0
1, 13728, Note_on_c, 0, 62, 77
1, 13728, Note_on_c, 1, 54, 77
1, 13817, Note_on_c, 0, 62, 0
1, 13817, Note_on_c, 1, 54, 0
1, 13824, Note_on_c, 0, 66, 77
1, 13824, Note_on_c, 1, 50, 77
1, 13872, Note_on_c, 0, 66, 0
1, 13872, Note_on_c, 0, 69, 77
1, 13913, Note_on_c, 1, 50, 0
1, 13917, Note_on_c, 0, 69, 0
1, 13920, Note_on_c, 0, 68, 78
1, 13920, Note_on_c, 1, 62, 78
1, 13968, Note_on_c, 0, 68, 0
1, 13968, Note_on_c, 0, 71, 79
1, 14009, Note_on_c, 1, 62, 0
1, 14013, Note_on_c, 0, 71, 0
1, 14016, Note_on_c, 0, 69, 79
1, 14016, Note_on_c, 1, 61, 79
1, 14064, Note_on_c, 0, 69, 0
1, 14064, Note_on_c, 0, 73, 80
1, 14105, Note_on_c, 1, 61, 0
1, 14109, Note_on_c, 0, 73, 0
1, 14112, Note_on_c, 0, 71, 81
1, 14112, Note_on_c, 1, 56, 81
1, 14160, Note_on_c, 0, 71, 0
1, 14160, Note_on_c, 0, 74, 81
1, 14201, Note_on_c, 1, 56, 0
1, 14205, Note_on_c, 0, 74, 0
1, 14208, Note_on_c, 0, 73, 82
1, 14208, Note_on_c, 1, 57, 82
1, 14256, Note_on_c, 0, 73, 0
1, 14256, Note_on_c, 0, 76, 83
1, 14297, Note_on_c, 1, 57, 0
1, 14301, Note_on_c, 0, 76, 0
1, 14304, Note_on_c, 0, 74, 83
1, 14304, Note_on_c, 1, 59, 83
1, 14352, Note_on_c, 0, 74, 0
1, 14352, Note_on_c, 0, 78, 84
1, 14393, Note_on_c, 1, 59, 0
1, 14397, Note_on_c, 0, 78, 0
1, 14400, Note_on_c, 0, 76, 85
1, 14400, Note_on_c, 1, 49, 85
1, 14448, Note_on_c, 0, 76, 0
1, 14448, Note_on_c, 0, 73, 84
1, 14489, Note_on_c, 1, 49, 0
1, 14493, Note_on_c, 0, 73, 0
1, 14496, Note_on_c, 0, 69, 83
1, 14496, Note_on_c, 1, 52, 83
1, 14585, Note_on_c, 0, 69, 0
1, 14585, Note_on_c, 1, 52, 0
1, 14592, Note_on_c, 0, 68, 81
1, 14592, Note_on_c, 1, 40, 81
1, 14605, Note_on_c, 0, 68, 0
1, 14606, Note_on_c, 0, 69, 81
1, 14619, Note_on_c, 0, 69, 0
1, 14620, Note_on_c, 0, 68, 81
1, 14633, Note_on_c, 0, 68, 0
1, 14634, Note_on_c, 0, 69, 81
1, 14647, Note_on_c, 0, 69, 0
1, 14648, Note_on_c, 0, 68, 81
1, 14661, Note_on_c, 0, 68, 0
1, 14662, Note_on_c, 0, 66, 80
1, 14674, Note_on_c, 0, 66, 0
1, 14675, Note_on_c, 0, 68, 80
1, 14681, Note_on_c, 1, 40, 0
1, 14687, Note_on_c, 0, 68, 0
1, 14688, Note_on_c, 0, 69, 80
1, 14688, Note_on_c, 1, 45, 79
1, 14777, Note_on_c, 1, 45, 0
1, 14784, Note_on_c, 1, 52, 77
1, 14865, Note_on_c, 0, 69, 0
1, 14873, Note_on_c, 1, 52, 0
1, 14880, Note_on_c, 1, 57, 77
1, 14969, Note_on_c, 1, 57, 0
1, 14976, Note_on_c, 0, 74, 77
1, 14976, Note_on_c, 1, 50, 77
1, 15048, Note_on_c, 0, 74, 0
1, 15048, Note_on_c, 0, 76, 77
1, 15065, Note_on_c, 1, 50, 0
1, 15071, Note_on_c, 0, 76, 0
1, 15072, Note_on_c, 0, 74, 77
1, 15072, Note_on_c, 1, 52, 77
1, 15120, Note_on_c, 0, 74, 0
1, 15120, Note_on_c, 0, 73, 77
1, 15161, Note_on_c, 1, 52, 0
1, 15165, Note_on_c, 0, 73, 0
1, 15168, Note_on_c, 0, 74, 77
1, 15168, Note_on_c, 1, 54, 77
1, 15216, Note_on_c, 0, 74, 0
1, 15216, Note_on_c, 0, 72, 77
1, 15257, Note_on_c, 1, 54, 0
1, 15261, Note_on_c, 0, 72, 0
1, 15264, Note_on_c, 0, 72, 77
1, 15264, Note_on_c, 1, 55, 77
1, 15312, Note_on_c, 0, 72, 0
1, 15312, Note_on_c, 0, 71, 77
1, 15353, Note_on_c, 1, 55, 0
1, 15357, Note_on_c, 0, 71, 0
1, 15360, Note_on_c, 0, 71, 77
1, 15360, Note_on_c, 1, 43, 77
1, 15449, Note_on_c, 1, 43, 0
1, 15456, Note_on_c, 1, 54, 77
1, 15493, Note_on_c, 0, 71, 0
1, 15504, Note_on_c, 0, 69, 77
1, 15545, Note_on_c, 1, 54, 0
1, 15549, Note_on_c, 0, 69, 0
1, 15552, Note_on_c, 0, 67, 77
1, 15552, Note_on_c, 1, 52, 77
1, 15600, Note_on_c, 0, 67, 0
1, 15600, Note_on_c, 0, 69, 77
1, 15641, Note_on_c, 1, 52, 0
1, 15645, Note_on_c, 0, 69, 0
1, 15648, Note_on_c, 0, 67, 77
1, 15648, Note_on_c, 1, 49, 77
1, 15696, Note_on_c, 0, 67, 0
1, 15696, Note_on_c, 0, 64, 77
1, 15737, Note_on_c, 1, 49, 0
1, 15741, Note_on_c, 0, 64, 0
1, 15744, Note_on_c, 0, 66, 77
1, 15744, Note_on_c, 1, 50, 77
1, 15792, Note_on_c, 0, 66, 0
1, 15792, Note_on_c, 0, 62, 77
1, 15833, Note_on_c, 1, 50, 0
1, 15837, Note_on_c, 0, 62, 0
1, 15840, Note_on_c, 0, 66, 77
1, 15840, Note_on_c, 1, 57, 77
1, 15929, Note_on_c, 0, 66, 0
1, 15929, Note_on_c, 1, 57, 0
1, 15936, Note_on_c, 0, 64, 77
1, 15936, Note_on_c, 1, 55, 77
1, 15949, Note_on_c, 0, 64, 0
1, 15950, Note_on_c, 0, 66, 77
1, 15963, Note_on_c, 0, 66, 0
1, 15964, Note_on_c, 0, 64, 77
1, 15977, Note_on_c, 0, 64, 0
1, 15978, Note_on_c, 0, 66, 77
1, 15991, Note_on_c, 0, 66, 0
1, 15992, Note_on_c, 0, 64, 77
1, 16005, Note_on_c, 0, 64, 0
1, 16006, Note_on_c, 0, 62, 77
1, 16018, Note_on_c, 0, 62, 0
1, 16019, Note_on_c, 0, 64, 77
1, 16025, Note_on_c, 1, 55, 0
1, 16031, Note_on_c, 0, 64, 0
1, 16032, Note_on_c, 0, 62, 77
1, 16032, Note_on_c, 1, 54, 77
1, 16121, Note_on_c, 0, 62, 0
1, 16121, Note_on_c, 1, 54, 0
1, 16128, Note_on_c, 0, 66, 77
1, 16128, Note_on_c, 1, 50, 77
1, 16176, Note_on_c, 0, 66, 0
1, 16176, Note_on_c, 0, 69, 77
1, 16217, Note_on_c, 1, 50, 0
1, 16221, Note_on_c, 0, 69, 0
1, 16224, Note_on_c, 0, 68, 78
1, 16224, Note_on_c, 1, 62, 78
1, 16272, Note_on_c, 0, 68, 0
1, 16272, Note_on_c, 0, 71, 79
1, 16313, Note_on_c, 1, 62, 0
1, 16317, Note_on_c, 0, 71, 0
1, 16320, Note_on_c, 0, 69, 79
1, 16320, Note_on_c, 1, 61, 79
1, 16368, Note_on_c, 0, 69, 0
1, 16368, Note_on_c, 0, 73, 80
1, 16409, Note_on_c, 1, 61, 0
1, 16413, Note_on_c, 0, 73, 0
1, 16416, Note_on_c, 0, 71, 81
1, 16416, Note_on_c, 1, 56, 81
1, 16464, Note_on_c, 0, 71, 0
1, 16464, Note_on_c, 0, 74, 81
1, 16505, Note_on_c, 1, 56, 0
1, 16509, Note_on_c, 0, 74, 0
1, 16512, Note_on_c, 0, 73, 82
1, 16512, Note_on_c, 1, 57, 82
1, 16560, Note_on_c, 0, 73, 0
1, 16560, Note_on_c, 0, 76, 83
1, 16601, Note_on_c, 1, 57, 0
1, 16605, Note_on_c, 0, 76, 0
1, 16608, Note_on_c, 0, 74, 83
1, 16608, Note_on_c, 1, 59, 83
1, 16656, Note_on_c, 0, 74, 0
1, 16656, Note_on_c, 0, 78, 84
1, 16697, Note_on_c, 1, 59, 0
1, 16701, Note_on_c, 0, 78, 0
1, 16704, Note_on_c, 0, 76, 85
1, 16704, Note_on_c, 1, 49, 85
1, 16752, Note_on_c, 0, 76, 0
1, 16752, Note_on_c, 0, 73, 84
1, 16793, Note_on_c, 1, 49, 0
1, 16797, Note_on_c, 0, 73, 0
1, 16800, Note_on_c, 0, 69, 83
1, 16800, Note_on_c, 1, 52, 83
1, 16889, Note_on_c, 0, 69, 0
1, 16889, Note_on_c, 1, 52, 0
1, 16896, Note_on_c, 0, 68, 81
1, 16896, Note_on_c, 1, 40, 81
1, 16909, Note_on_c, 0, 68, 0
1, 16910, Note_on_c, 0, 69, 81
1, 16923, Note_on_c, 0, 69, 0
1, 16924, Note_on_c, 0, 68, 81
1, 16937, Note_on_c, 0, 68, 0
1, 16938, Note_on_c, 0, 69, 81
1, 16951, Note_on_c, 0, 69, 0
1, 16952, Note_on_c, 0, 68, 81
1, 16965, Note_on_c, 0, 68, 0
1, 16966, Note_on_c, 0, 66, 80
1, 16978, Note_on_c, 0, 66, 0
1, 16979, Note_on_c, 0, 68, 80
1, 16985, Note_on_c, 1, 40, 0
1, 16991, Note_on_c, 0, 68, 0
1, 16992, Note_on_c, 0, 69, 80
1, 16992, Note_on_c, 1, 45, 79
1, 17081, Note_on_c, 1, 45, 0
1, 17088, Note_on_c, 1, 52, 77
1, 17169, Note_on_c, 0, 69, 0
1, 17177, Note_on_c, 1, 52, 0
1, 17184, Note_on_c, 1, 57, 77
1, 17273, Note_on_c, 1, 57, 0
1, 17280, Note_on_c, 0, 69, 77
1, 17280, Note_on_c, 1, 57, 77
1, 17369, Note_on_c, 0, 69, 0
1, 17369, Note_on_c, 1, 57, 0
1, 17376, Note_on_c, 0, 73, 77
1, 17376, Note_on_c, 1, 45, 77
1, 17406, Note_on_c, 0, 73, 0
1, 17408, Note_on_c, 0, 71, 77
1, 17438, Note_on_c, 0, 71, 0
1, 17440, Note_on_c, 0, 69, 77
1, 17465, Note_on_c, 1, 45, 0
1, 17470, Note_on_c, 0, 69, 0
1, 17472, Note_on_c, 0, 81, 77
1, 17472, Note_on_c, 1, 55, 77
1, 17517, Note_on_c, 0, 81, 0
1, 17520, Note_on_c, 0, 73, 77
1, 17561, Note_on_c, 1, 55, 0
1, 17565, Note_on_c, 0, 73, 0
1, 17568, Note_on_c, 0, 74, 77
1, 17568, Note_on_c, 1, 54, 77
1, 17657, Note_on_c, 0, 74, 0
1, 17657, Note_on_c, 1, 54, 0
1, 17664, Note_on_c, 0, 76, 77
1, 17664, Note_on_c, 1, 52, 77
1, 17677, Note_on_c, 0, 76, 0
1, 17678, Note_on_c, 0, 78, 77
1, 17691, Note_on_c, 0, 78, 0
1, 17692, Note_on_c, 0, 76, 77
1, 17705, Note_on_c, 0, 76, 0
1, 17706, Note_on_c, 0, 78, 77
1, 17719, Note_on_c, 0, 78, 0
1, 17720, Note_on_c, 0, 76, 77
1, 17733, Note_on_c, 0, 76, 0
1, 17734, Note_on_c, 0, 74, 77
1, 17746, Note_on_c, 0, 74, 0
1, 17747, Note_on_c, 0, 76, 77
1, 17753, Note_on_c, 1, 52, 0
1, 17759, Note_on_c, 0, 76, 0
1, 17760, Note_on_c, 0, 78, 77
1, 17760, Note_on_c, 1, 50, 77
1, 17849, Note_on_c, 0, 78, 0
1, 17849, Note_on_c, 1, 50, 0
1, 17856, Note_on_c, 0, 79, 77
1, 17856, Note_on_c, 1, 55, 77
1, 17886, Note_on_c, 0, 79, 0
1, 17888, Note_on_c, 0, 78, 78
1, 17918, Note_on_c, 0, 78, 0
1, 17920, Note_on_c, 0, 76, 79
1, 17945, Note_on_c, 1, 55, 0
1, 17950, Note_on_c, 0, 76, 0
1, 17952, Note_on_c, 0, 83, 80
1, 17952, Note_on_c, 1, 52, 79
1, 17982, Note_on_c, 0, 83, 0
1, 17984, Note_on_c, 0, 81, 81
1, 18014, Note_on_c, 0, 81, 0
1, 18016, Note_on_c, 0, 79, 82
1, 18041, Note_on_c, 1, 52, 0
1, 18046, Note_on_c, 0, 79, 0
1, 18048, Note_on_c, 0, 78, 83
1, 18048, Note_on_c, 1, 56, 82
1, 18078, Note_on_c, 0, 78, 0
1, 18080, Note_on_c, 0, 76, 85
1, 18110, Note_on_c, 0, 76, 0
1, 18112, Note_on_c, 0, 74, 85
1, 18137, Note_on_c, 1, 56, 0
1, 18142, Note_on_c, 0, 74, 0
1, 18144, Note_on_c, 0, 76, 85
1, 18144, Note_on_c, 1, 57, 85
1, 18159, Note_on_c, 0, 76, 0
1, 18160, Note_on_c, 0, 74, 84
1, 18175, Note_on_c, 0, 74, 0
1, 18176, Note_on_c, 0, 76, 84
1, 18189, Note_on_c, 1, 57, 0
1, 18191, Note_on_c, 0, 76, 0
1, 18192, Note_on_c, 0, 74, 83
1, 18192, Note_on_c, 1, 45, 82
1, 18207, Note_on_c, 0, 74, 0
1, 18208, Note_on_c, 0, 73, 83
1, 18223, Note_on_c, 0, 73, 0
1, 18224, Note_on_c, 0, 74, 82
1, 18237, Note_on_c, 1, 45, 0
1, 18239, Note_on_c, 0, 74, 0
1, 18240, Note_on_c, 0, 73, 82
1, 18240, Note_on_c, 1, 57, 79
1, 18285, Note_on_c, 1, 57, 0
1, 18288, Note_on_c, 1, 55, 77
1, 18329, Note_on_c, 0, 73, 0
1, 18333, Note_on_c, 1, 55, 0
1, 18336, Note_on_c, 1, 54, 77
1, 18381, Note_on_c, 1, 54, 0
1, 18384, Note_on_c, 1, 52, 77
1, 18429, Note_on_c, 1, 52, 0
1, 18432, Note_on_c, 0, 74, 77
1, 18432, Note_on_c, 1, 50, 77
1, 18504, Note_on_c, 0, 74, 0
1, 18504, Note_on_c, 0, 76, 77
1, 18521, Note_on_c, 1, 50, 0
1, 18527, Note_on_c, 0, 76, 0
1, 18528, Note_on_c, 0, 74, 77
1, 18528, Note_on_c, 1, 52, 77
1, 18576, Note_on_c, 0, 74, 0
1, 18576, Note_on_c, 0, 73, 77
1, 18617, Note_on_c, 1, 52, 0
1, 18621, Note_on_c, 0, 73, 0
1, 18624, Note_on_c, 0, 74, 77
1, 18624, Note_on_c, 1, 54, 77
1, 18672, Note_on_c, 0, 74, 0
1, 18672, Note_on_c, 0, 72, 77
1, 18713, Note_on_c, 1, 54, 0
1, 18717, Note_on_c, 0, 72, 0
1, 18720, Note_on_c, 0, 72, 77
1, 18720, Note_on_c, 1, 55, 77
1, 18768, Note_on_c, 0, 72, 0
1, 18768, Note_on_c, 0, 71, 77
1, 18809, Note_on_c, 1, 55, 0
1, 18813, Note_on_c, 0, 71, 0
1, 18816, Note_on_c, 0, 71, 77
1, 18816, Note_on_c, 1, 43, 77
1, 18905, Note_on_c, 1, 43, 0
1, 18912, Note_on_c, 1, 54, 77
1, 18949, Note_on_c, 0, 71, 0
1, 18960, Note_on_c, 0, 69, 77
1, 19001, Note_on_c, 1, 54, 0
1, 19005, Note_on_c, 0, 69, 0
1, 19008, Note_on_c, 0, 67, 77
1, 19008, Note_on_c, 1, 52, 77
1, 19053, Note_on_c, 0, 67, 0
1, 19056, Note_on_c, 0, 69, 77
1, 19097, Note_on_c, 1, 52, 0
1, 19101, Note_on_c, 0, 69, 0
1, 19104, Note_on_c, 0, 67, 77
1, 19104, Note_on_c, 1, 49, 77
1, 19149, Note_on_c, 0, 67, 0
1, 19152, Note_on_c, 0, 64, 77
1, 19193, Note_on_c, 1, 49, 0
1, 19197, Note_on_c, 0, 64, 0
1, 19200, Note_on_c, 0, 66, 77
1, 19200, Note_on_c, 1, 50, 77
1, 19289, Note_on_c, 0, 66, 0
1, 19289, Note_on_c, 1, 50, 0
1, 19296, Note_on_c, 0, 71, 70
1, 19341, Note_on_c, 0, 71, 0
1, 19344, Note_on_c, 0, 73, 70
1, 19389, Note_on_c, 0, 73, 0
1, 19392, Note_on_c, 0, 71, 71
1, 19392, Note_on_c, 1, 62, 71
1, 19437, Note_on_c, 0, 71, 0
1, 19440, Note_on_c, 0, 68, 72
1, 19485, Note_on_c, 0, 68, 0
1, 19488, Note_on_c, 0, 69, 73
1, 19488, Note_on_c, 1, 62, 0
1, 19488, Note_on_c, 1, 61, 73
1, 19577, Note_on_c, 0, 69, 0
1, 19577, Note_on_c, 1, 61, 0
1, 19584, Note_on_c, 0, 74, 74
1, 19629, Note_on_c, 0, 74, 0
1, 19632, Note_on_c, 0, 76, 75
1, 19677, Note_on_c, 0, 76, 0
1, 19680, Note_on_c, 0, 74, 76
1, 19680, Note_on_c, 1, 56, 76
1, 19725, Note_on_c, 0, 74, 0
1, 19728, Note_on_c, 0, 71, 77
1, 19773, Note_on_c, 0, 71, 0
1, 19776, Note_on_c, 0, 73, 78
1, 19776, Note_on_c, 1, 56, 0
1, 19776, Note_on_c, 1, 57, 77
1, 19865, Note_on_c, 0, 73, 0
1, 19865, Note_on_c, 1, 57, 0
1, 19872, Note_on_c, 0, 79, 79
1, 19917, Note_on_c, 0, 79, 0
1, 19920, Note_on_c, 0, 81, 80
1, 19965, Note_on_c, 0, 81, 0
1, 19968, Note_on_c, 0, 79, 81
1, 19968, Note_on_c, 1, 49, 80
1, 20013, Note_on_c, 0, 79, 0
1, 20016, Note_on_c, 0, 76, 82
1, 20057, Note_on_c, 1, 49, 0
1, 20061, Note_on_c, 0, 76, 0
1, 20064, Note_on_c, 0, 78, 82
1, 20064, Note_on_c, 1, 50, 82
1, 20109, Note_on_c, 0, 78, 0
1, 20112, Note_on_c, 0, 86, 83
1, 20153, Note_on_c, 1, 50, 0
1, 20157, Note_on_c, 0, 86, 0
1, 20160, Note_on_c, 0, 85, 84
1, 20160, Note_on_c, 1, 55, 83
1, 20183, Note_on_c, 0, 85, 0
1, 20184, Note_on_c, 0, 83, 85
1, 20207, Note_on_c, 0, 83, 0
1, 20208, Note_on_c, 0, 81, 85
1, 20231, Note_on_c, 0, 81, 0
1, 20232, Note_on_c, 0, 79, 85
1, 20249, Note_on_c, 1, 55, 0
1, 20255, Note_on_c, 0, 79, 0
1, 20256, Note_on_c, 0, 78, 85
1, 20256, Note_on_c, 1, 57, 85
1, 20345, Note_on_c, 0, 78, 0
1, 20345, Note_on_c, 1, 57, 0
1, 20352, Note_on_c, 0, 76, 85
1, 20352, Note_on_c, 1, 45, 85
1, 20441, Note_on_c, 0, 76, 0
1, 20441, Note_on_c, 1, 45, 0
1, 20448, Note_on_c, 0, 69, 85
1, 20448, Note_on_c, 1, 47, 85
1, 20537, Note_on_c, 0, 69, 0
1, 20537, Note_on_c, 1, 47, 0
1, 20544, Note_on_c, 0, 67, 85
1, 20544, Note_on_c, 1, 49, 85
1, 20557, Note_on_c, 0, 67, 0
1, 20558, Note_on_c, 0, 69, 85
1, 20571, Note_on_c, 0, 69, 0
1, 20572, Note_on_c, 0, 67, 85
1, 20585, Note_on_c, 0, 67, 0
1, 20586, Note_on_c, 0, 69, 85
1, 20599, Note_on_c, 0, 69, 0
1, 20600, Note_on_c, 0, 67, 85
1, 20613, Note_on_c, 0, 67, 0
1, 20614, Note_on_c, 0, 66, 85
1, 20626, Note_on_c, 0, 66, 0
1, 20627, Note_on_c, 0, 67, 85
1, 20633, Note_on_c, 1, 49, 0
1, 20639, Note_on_c, 0, 67, 0
1, 20640, Note_on_c, 0, 66, 85
1, 20640, Note_on_c, 1, 50, 85
1, 20729, Note_on_c, 0, 66, 0
1, 20729, Note_on_c, 1, 50, 0
1, 20736, Note_on_c, 0, 64, 85
1, 20736, Note_on_c, 1, 55, 85
1, 20766, Note_on_c, 0, 64, 0
1, 20768, Note_on_c, 0, 67, 84
1, 20798, Note_on_c, 0, 67, 0
1, 20800, Note_on_c, 0, 71, 83
1, 20825, Note_on_c, 1, 55, 0
1, 20830, Note_on_c, 0, 71, 0
1, 20832, Note_on_c, 0, 62, 82
1, 20832, Note_on_c, 1, 57, 82
1, 20921, Note_on_c, 0, 62, 0
1, 20921, Note_on_c, 1, 57, 0
1, 20928, Note_on_c, 0, 61, 79
1, 20928, Note_on_c, 1, 45, 79
1, 20941, Note_on_c, 0, 61, 0
1, 20942, Note_on_c, 0, 62, 79
1, 20955, Note_on_c, 0, 62, 0
1, 20956, Note_on_c, 0, 61, 79
1, 20969, Note_on_c, 0, 61, 0
1, 20970, Note_on_c, 0, 62, 78
1, 20983, Note_on_c, 0, 62, 0
1, 20984, Note_on_c, 0, 61, 78
1, 20997, Note_on_c, 0, 61, 0
1, 20998, Note_on_c, 0, 59, 78
1, 21010, Note_on_c, 0, 59, 0
1, 21011, Note_on_c, 0, 61, 77
1, 21017, Note_on_c, 1, 45, 0
1, 21023, Note_on_c, 0, 61, 0
1, 21024, Note_on_c, 0, 62, 77
1, 21024, Note_on_c, 1, 50, 77
1, 21113, Note_on_c, 1, 50, 0
1, 21120, Note_on_c, 1, 45, 77
1, 21201, Note_on_c, 0, 62, 0
1, 21209, Note_on_c, 1, 45, 0
1, 21216, Note_on_c, 1, 38, 77
1, 21305, Note_on_c, 1, 38, 0
1, 21312, Note_on_c, 0, 69, 77
1, 21312, Note_on_c, 1, 57, 77
1, 21401, Note_on_c, 0, 69, 0
1, 21401, Note_on_c, 1, 57, 0
1, 21408, Note_on_c, 0, 73, 77
1, 21408, Note_on_c, 1, 45, 77
1, 21438, Note_on_c, 0, 73, 0
1, 21440, Note_on_c, 0, 71, 77
1, 21470, Note_on_c, 0, 71, 0
1, 21472, Note_on_c, 0, 69, 77
1, 21497, Note_on_c, 1, 45, 0
1, 21502, Note_on_c, 0, 69, 0
1, 21504, Note_on_c, 0, 81, 77
1, 21504, Note_on_c, 1, 55, 77
1, 21549, Note_on_c, 0, 81, 0
1, 21552, Note_on_c, 0, 73, 77
1, 21593, Note_on_c, 1, 55, 0
1, 21597, Note_on_c, 0, 73, 0
1, 21600, Note_on_c, 0, 74, 77
1, 21600, Note_on_c, 1, 54, 77
1, 21689, Note_on_c, 0, 74, 0
1, 21689, Note_on_c, 1, 54, 0
1, 21696, Note_on_c, 0, 76, 77
1, 21696, Note_on_c, 1, 52, 77
1, 21709, Note_on_c, 0, 76, 0
1, 21710, Note_on_c, 0, 78, 77
1, 21723, Note_on_c, 0, 78, 0
1, 21724, Note_on_c, 0, 76, 77
1, 21737, Note_on_c, 0, 76, 0
1, 21738, Note_on_c, 0, 78, 77
1, 21751, Note_on_c, 0, 78, 0
1, 21752, Note_on_c, 0, 76, 77
1, 21765, Note_on_c, 0, 76, 0
1, 21766, Note_on_c, 0, 74, 77
1, 21778, Note_on_c, 0, 74, 0
1, 21779, Note_on_c, 0, 76, 77
1, 21785, Note_on_c, 1, 52, 0
1, 21791, Note_on_c, 0, 76, 0
1, 21792, Note_on_c, 0, 78, 77
1, 21792, Note_on_c, 1, 50, 77
1, 21881, Note_on_c, 0, 78, 0
1, 21881, Note_on_c, 1, 50, 0
1, 21888, Note_on_c, 0, 79, 77
1, 21888, Note_on_c, 1, 55, 77
1, 21918, Note_on_c, 0, 79, 0
1, 21920, Note_on_c, 0, 78, 78
1, 21950, Note_on_c, 0, 78, 0
1, 21952, Note_on_c, 0, 76, 79
1, 21977, Note_on_c, 1, 55, 0
1, 21982, Note_on_c, 0, 76, 0
1, 21984, Note_on_c, 0, 83, 80
1, 21984, Note_on_c, 1, 52, 79
1, 22014, Note_on_c, 0, 83, 0
1, 22016, Note_on_c, 0, 81, 81
1, 22046, Note_on_c, 0, 81, 0
1, 22048, Note_on_c, 0, 79, 82
1, 22073, Note_on_c, 1, 52, 0
1, 22078, Note_on_c, 0, 79, 0
1, 22080, Note_on_c, 0, 78, 83
1, 22080, Note_on_c, 1, 56, 82
1, 22110, Note_on_c, 0, 78, 0
1, 22112, Note_on_c, 0, 76, 85
1, 22142, Note_on_c, 0, 76, 0
1, 22144, Note_on_c, 0, 74, 85
1, 22169, Note_on_c, 1, 56, 0
1, 22174, Note_on_c, 0, 74, 0
1, 22176, Note_on_c, 0, 76, 85
1, 22176, Note_on_c, 1, 57, 85
1, 22191, Note_on_c, 0, 76, 0
1, 22192, Note_on_c, 0, 74, 84
1, 22207, Note_on_c, 0, 74, 0
1, 22208, Note_on_c, 0, 76, 84
1, 22221, Note_on_c, 1, 57, 0
1, 22223, Note_on_c, 0, 76, 0
1, 22224, Note_on_c, 0, 74, 83
1, 22224, Note_on_c, 1, 45, 82
1, 22239, Note_on_c, 0, 74, 0
1, 22240, Note_on_c, 0, 73, 83
1, 22255, Note_on_c, 0, 73, 0
1, 22256, Note_on_c, 0, 74, 82
1, 22269, Note_on_c, 1, 45, 0
1, 22271, Note_on_c, 0, 74, 0
1, 22272, Note_on_c, 0, 73, 82
1, 22272, Note_on_c, 1, 57, 79
1, 22317, Note_on_c, 1, 57, 0
1, 22320, Note_on_c, 1, 55, 77
1, 22361, Note_on_c, 0, 73, 0
1, 22365, Note_on_c, 1, 55, 0
1, 22368, Note_on_c, 1, 54, 77
1, 22413, Note_on_c, 1, 54, 0
1, 22416, Note_on_c, 1, 52, 77
1, 22461, Note_on_c, 1, 52, 0
1, 22464, Note_on_c, 0, 74, 77
1, 22464, Note_on_c, 1, 50, 77
1, 22536, Note_on_c, 0, 74, 0
1, 22536, Note_on_c, 0, 76, 77
1, 22553, Note_on_c, 1, 50, 0
1, 22559, Note_on_c, 0, 76, 0
1, 22560, Note_on_c, 0, 74, 77
1, 22560, Note_on_c, 1, 52, 77
1, 22608, Note_on_c, 0, 74, 0
1, 22608, Note_on_c, 0, 73, 77
1, 22649, Note_on_c, 1, 52, 0
1, 22653, Note_on_c, 0, 73, 0
1, 22656, Note_on_c, 0, 74, 77
1, 22656, Note_on_c, 1, 54, 77
1, 22704, Note_on_c, 0, 74, 0
1, 22704, Note_on_c, 0, 72, 77
1, 22745, Note_on_c, 1, 54, 0
1, 22749, Note_on_c, 0, 72, 0
1, 22752, Note_on_c, 0, 72, 77
1, 22752, Note_on_c, 1, 55, 77
1, 22800, Note_on_c, 0, 72, 0
1, 22800, Note_on_c, 0, 71, 77
1, 22841, Note_on_c, 1, 55, 0
1, 22845, Note_on_c, 0, 71, 0
1, 22848, Note_on_c, 0, 71, 77
1, 22848, Note_on_c, 1, 43, 77
1, 22937, Note_on_c, 1, 43, 0
1, 22944, Note_on_c, 1, 54, 77
1, 22981, Note_on_c, 0, 71, 0
1, 22992, Note_on_c, 0, 69, 77
1, 23033, Note_on_c, 1, 54, 0
1, 23037, Note_on_c, 0, 69, 0
1, 23040, Note_on_c, 0, 67, 77
1, 23040, Note_on_c, 1, 52, 77
1, 23085, Note_on_c, 0, 67, 0
1, 23088, Note_on_c, 0, 69, 77
1, 23129, Note_on_c, 1, 52, 0
1, 23133, Note_on_c, 0, 69, 0
1, 23136, Note_on_c, 0, 67, 77
1, 23136, Note_on_c, 1, 49, 77
1, 23181, Note_on_c, 0, 67, 0
1, 23184, Note_on_c, 0, 64, 77
1, 23225, Note_on_c, 1, 49, 0
1, 23229, Note_on_c, 0, 64, 0
1, 23232, Note_on_c, 0, 66, 77
1, 23232, Note_on_c, 1, 50, 77
1, 23321, Note_on_c, 0, 66, 0
1, 23321, Note_on_c, 1, 50, 0
1, 23328, Note_on_c, 0, 71, 70
1, 23373, Note_on_c, 0, 71, 0
1, 23376, Note_on_c, 0, 73, 70
1, 23421, Note_on_c, 0, 73, 0
1, 23424, Note_on_c, 0, 71, 71
1, 23424, Note_on_c, 1, 62, 71
1, 23469, Note_on_c, 0, 71, 0
1, 23472, Note_on_c, 0, 68, 72
1, 23517, Note_on_c, 0, 68, 0
1, 23520, Note_on_c, 0, 69, 73
1, 23520, Note_on_c, 1, 62, 0
1, 23520, Note_on_c, 1, 61, 73
1, 23609, Note_on_c, 0, 69, 0
1, 23609, Note_on_c, 1, 61, 0
1, 23616, Note_on_c, 0, 74, 74
1, 23661, Note_on_c, 0, 74, 0
1, 23664, Note_on_c, 0, 76, 75
1, 23709, Note_on_c, 0, 76, 0
1, 23712, Note_on_c, 0, 74, 76
1, 23712, Note_on_c, 1, 56, 76
1, 23757, Note_on_c, 0, 74, 0
1, 23760, Note_on_c, 0, 71, 77
1, 23805, Note_on_c, 0, 71, 0
1, 23808, Note_on_c, 0, 73, 78
1, 23808, Note_on_c, 1, 56, 0
1, 23808, Note_on_c, 1, 57, 77
1, 23897, Note_on_c, 0, 73, 0
1, 23897, Note_on_c, 1, 57, 0
1, 23904, Note_on_c, 0, 79, 79
1, 23949, Note_on_c, 0, 79, 0
1, 23952, Note_on_c, 0, 81, 80
1, 23997, Note_on_c, 0, 81, 0
1, 24000, Note_on_c, 0, 79, 81
1, 24000, Note_on_c, 1, 49, 80
1, 24045, Note_on_c, 0, 79, 0
1, 24048, Note_on_c, 0, 76, 82
1, 24089, Note_on_c, 1, 49, 0
1, 24093, Note_on_c, 0, 76, 0
1, 24096, Note_on_c, 0, 78, 82
1, 24096, Note_on_c, 1, 50, 82
1, 24141, Note_on_c, 0, 78, 0
1, 24144, Note_on_c, 0, 86, 83
1, 24185, Note_on_c, 1, 50, 0
1, 24189, Note_on_c, 0, 86, 0
1, 24192, Note_on_c, 0, 85, 84
1, 24192, Note_on_c, 1, 55, 83
1, 24215, Note_on_c, 0, 85, 0
1, 24216, Note_on_c, 0, 83, 85
1, 24239, Note_on_c, 0, 83, 0
1, 24240, Note_on_c, 0, 81, 85
1, 24263, Note_on_c, 0, 81, 0
1, 24264, Note_on_c, 0, 79, 85
1, 24281, Note_on_c, 1, 55, 0
1, 24287, Note_on_c, 0, 79, 0
1, 24288, Note_on_c, 0, 78, 85
1, 24288, Note_on_c, 1, 57, 85
1, 24377, Note_on_c, 0, 78, 0
1, 24377, Note_on_c, 1, 57, 0
1, 24384, Note_on_c, 0, 76, 85
1, 24384, Note_on_c, 1, 45, 85
1, 24473, Note_on_c, 0, 76, 0
1, 24473, Note_on_c, 1, 45, 0
1, 24480, Note_on_c, 0, 69, 85
1, 24480, Note_on_c, 1, 47, 85
1, 24569, Note_on_c, 0, 69, 0
1, 24569, Note_on_c, 1, 47, 0
1, 24576, Note_on_c, 0, 67, 85
1, 24576, Note_on_c, 1, 49, 85
1, 24589, Note_on_c, 0, 67, 0
1, 24590, Note_on_c, 0, 69, 85
1, 24603, Note_on_c, 0, 69, 0
1, 24604, Note_on_c, 0, 67, 85
1, 24617, Note_on_c, 0, 67, 0
1, 24618, Note_on_c, 0, 69, 85
1, 24631, Note_on_c, 0, 69, 0
1, 24632, Note_on_c, 0, 67, 85
1, 24645, Note_on_c, 0, 67, 0
1, 24646, Note_on_c, 0, 66, 85
1, 24658, Note_on_c, 0, 66, 0
1, 24659, Note_on_c, 0, 67, 85
1, 24665, Note_on_c, 1, 49, 0
1, 24671, Note_on_c, 0, 67, 0
1, 24672, Note_on_c, 0, 66, 85
1, 24672, Note_on_c, 1, 50, 85
1, 24761, Note_on_c, 0, 66, 0
1, 24761, Note_on_c, 1, 50, 0
1, 24768, Note_on_c, 0, 64, 85
1, 24768, Note_on_c, 1, 55, 85
1, 24798, Note_on_c, 0, 64, 0
1, 24800, Note_on_c, 0, 67, 84
1, 24830, Note_on_c, 0, 67, 0
1, 24832, Note_on_c, 0, 71, 83
1, 24857, Note_on_c, 1, 55, 0
1, 24862, Note_on_c, 0, 71, 0
1, 24864, Note_on_c, 0, 62, 82
1, 24864, Note_on_c, 1, 57, 82
1, 24953, Note_on_c, 0, 62, 0
1, 24953, Note_on_c, 1, 57, 0
1, 24960, Note_on_c, 0, 61, 79
1, 24960, Note_on_c, 1, 45, 79
1, 24973, Note_on_c, 0, 61, 0
1, 24974, Note_on_c, 0, 62, 79
1, 24987, Note_on_c, 0, 62, 0
1, 24988, Note_on_c, 0, 61, 79
1, 25001, Note_on_c, 0, 61, 0
1, 25002, Note_on_c, 0, 62, 78
1, 25015, Note_on_c, 0, 62, 0
1, 25016, Note_on_c, 0, 61, 78
1, 25029, Note_on_c, 0, 61, 0
1, 25030, Note_on_c, 0, 59, 78
1, 25042, Note_on_c, 0, 59, 0
1, 25043, Note_on_c, 0, 61, 77
1, 25049, Note_on_c, 1, 45, 0
1, 25055, Note_on_c, 0, 61, 0
1, 25056, Note_on_c, 0, 62, 77
1, 25056, Note_on_c, 1, 50, 77
1, 25145, Note_on_c, 1, 50, 0
1, 25152, Note_on_c, 1, 45, 77
1, 25233, Note_on_c, 0, 62, 0
1, 25241, Note_on_c, 1, 45, 0
1, 25248, Note_on_c, 1, 38, 77
1, 25337, Note_on_c, 1, 38, 0
1, 25344, Note_on_c, 0, 74, 77
1, 25344, Note_on_c, 1, 66, 70
1, 25344, Note_on_c, 1, 62, 70
1, 25433, Note_on_c, 0, 74, 0
1, 25440, Note_on_c, 0, 78, 77
1, 25521, Note_on_c, 1, 66, 0
1, 25521, Note_on_c, 1, 62, 0
1, 25529, Note_on_c, 0, 78, 0
1, 25536, Note_on_c, 0, 81, 77
1, 25536, Note_on_c, 1, 66, 70
1, 25536, Note_on_c, 1, 62, 70
1, 25566, Note_on_c, 0, 81, 0
1, 25568, Note_on_c, 0, 78, 77
1, 25598, Note_on_c, 0, 78, 0
1, 25600, Note_on_c, 0, 74, 77
1, 25625, Note_on_c, 1, 66, 0
1, 25625, Note_on_c, 1, 62, 0
1, 25630, Note_on_c, 0, 74, 0
1, 25632, Note_on_c, 0, 74, 77
1, 25632, Note_on_c, 1, 67, 70
1, 25632, Note_on_c, 1, 64, 70
1, 25721, Note_on_c, 0, 74, 0
1, 25728, Note_on_c, 0, 73, 77
1, 25817, Note_on_c, 0, 73, 0
1, 25824, Note_on_c, 0, 71, 77
1, 25824, Note_on_c, 1, 67, 0
1, 25824, Note_on_c, 1, 64, 0
1, 25824, Note_on_c, 1, 66, 70
1, 25824, Note_on_c, 1, 62, 70
1, 25913, Note_on_c, 1, 66, 0
1, 25913, Note_on_c, 1, 62, 0
1, 25920, Note_on_c, 1, 64, 70
1, 25920, Note_on_c, 1, 61, 70
1, 26009, Note_on_c, 0, 71, 0
1, 26016, Note_on_c, 0, 69, 77
1, 26105, Note_on_c, 0, 69, 0
1, 26112, Note_on_c, 0, 67, 77
1, 26112, Note_on_c, 1, 64, 0
1, 26112, Note_on_c, 1, 57, 70
1, 26201, Note_on_c, 0, 67, 0
1, 26201, Note_on_c, 1, 61, 0
1, 26201, Note_on_c, 1, 57, 0
1, 26208, Note_on_c, 0, 69, 77
1, 26208, Note_on_c, 1, 62, 70
1, 26208, Note_on_c, 1, 59, 70
1, 26231, Note_on_c, 0, 69, 0
1, 26232, Note_on_c, 0, 67, 77
1, 26255, Note_on_c, 0, 67, 0
1, 26256, Note_on_c, 0, 66, 77
1, 26279, Note_on_c, 0, 66, 0
1, 26280, Note_on_c, 0, 67, 77
1, 26303, Note_on_c, 0, 67, 0
1, 26304, Note_on_c, 0, 66, 77
1, 26385, Note_on_c, 1, 62, 0
1, 26385, Note_on_c, 1, 59, 0
1, 26393, Note_on_c, 0, 66, 0
1, 26496, Note_on_c, 0, 64, 77
1, 26496, Note_on_c, 1, 43, 85
1, 26496, Note_on_c, 1, 31, 85
1, 26585, Note_on_c, 0, 64, 0
1, 26592, Note_on_c, 0, 67, 77
1, 26673, Note_on_c, 1, 43, 0
1, 26673, Note_on_c, 1, 31, 0
1, 26681, Note_on_c, 0, 67, 0
1, 26688, Note_on_c, 0, 71, 77
1, 26718, Note_on_c, 0, 71, 0
1, 26720, Note_on_c, 0, 67, 77
1, 26750, Note_on_c, 0, 67, 0
1, 26752, Note_on_c, 0, 64, 77
1, 26782, Note_on_c, 0, 64, 0
1, 26784, Note_on_c, 0, 62, 77
1, 26784, Note_on_c, 1, 57, 77
1, 26784, Note_on_c, 1, 55, 77
1, 26873, Note_on_c, 0, 62, 0
1, 26880, Note_on_c, 0, 61, 77
1, 26893, Note_on_c, 0, 61, 0
1, 26894, Note_on_c, 0, 62, 77
1, 26907, Note_on_c, 0, 62, 0
1, 26908, Note_on_c, 0, 61, 77
1, 26921, Note_on_c, 0, 61, 0
1, 26922, Note_on_c, 0, 62, 77
1, 26935, Note_on_c, 0, 62, 0
1, 26936, Note_on_c, 0, 61, 77
1, 26949, Note_on_c, 0, 61, 0
1, 26950, Note_on_c, 0, 59, 77
1, 26961, Note_on_c, 1, 57, 0
1, 26961, Note_on_c, 1, 55, 0
1, 26962, Note_on_c, 0, 59, 0
1, 26963, Note_on_c, 0, 61, 77
1, 26975, Note_on_c, 0, 61, 0
1, 26976, Note_on_c, 0, 62, 77
1, 26976, Note_on_c, 1, 57, 77
1, 26976, Note_on_c, 1, 54, 77
1, 27065, Note_on_c, 0, 62, 0
1, 27065, Note_on_c, 1, 57, 0
1, 27065, Note_on_c, 1, 54, 0
1, 27072, Note_on_c, 0, 57, 77
1, 27072, Note_on_c, 1, 49, 77
1, 27161, Note_on_c, 0, 57, 0
1, 27168, Note_on_c, 0, 67, 77
1, 27168, Note_on_c, 0, 64, 77
1, 27249, Note_on_c, 1, 49, 0
1, 27257, Note_on_c, 0, 67, 0
1, 27257, Note_on_c, 0, 64, 0
1, 27264, Note_on_c, 0, 66, 77
1, 27264, Note_on_c, 0, 62, 77
1, 27264, Note_on_c, 1, 50, 77
1, 27353, Note_on_c, 0, 66, 0
1, 27353, Note_on_c, 0, 62, 0
1, 27353, Note_on_c, 1, 50, 0
1, 27360, Note_on_c, 0, 66, 77
1, 27360, Note_on_c, 0, 62, 77
1, 27360, Note_on_c, 1, 45, 77
1, 27449, Note_on_c, 0, 66, 0
1, 27449, Note_on_c, 0, 62, 0
1, 27449, Note_on_c, 1, 45, 0
1, 27456, Note_on_c, 0, 64, 77
1, 27456, Note_on_c, 0, 61, 77
1, 27456, Note_on_c, 1, 57, 77
1, 27545, Note_on_c, 0, 64, 0
1, 27545, Note_on_c, 0, 61, 0
1, 27545, Note_on_c, 1, 57, 0
1, 27552, Note_on_c, 1, 45, 77
1, 27641, Note_on_c, 1, 45, 0
1, 27648, Note_on_c, 0, 74, 77
1, 27648, Note_on_c, 1, 66, 70
1, 27648, Note_on_c, 1, 62, 70
1, 27737, Note_on_c, 0, 74, 0
1, 27744, Note_on_c, 0, 78, 77
1, 27825, Note_on_c, 1, 66, 0
1, 27825, Note_on_c, 1, 62, 0
1, 27833, Note_on_c, 0, 78, 0
1, 27840, Note_on_c, 0, 81, 77
1, 27840, Note_on_c, 1, 66, 70
1, 27840, Note_on_c, 1, 62, 70
1, 27870, Note_on_c, 0, 81, 0
1, 27872, Note_on_c, 0, 78, 77
1, 27902, Note_on_c, 0, 78, 0
1, 27904, Note_on_c, 0, 74, 77
1, 27929, Note_on_c, 1, 66, 0
1, 27929, Note_on_c, 1, 62, 0
1, 27934, Note_on_c, 0, 74, 0
1, 27936, Note_on_c, 0, 74, 77
1, 27936, Note_on_c, 1, 67, 70
1, 27936, Note_on_c, 1, 64, 70
1, 28025, Note_on_c, 0, 74, 0
1, 28032, Note_on_c, 0, 73, 77
1, 28121, Note_on_c, 0, 73, 0
1, 28128, Note_on_c, 0, 71, 77
1, 28128, Note_on_c, 1, 67, 0
1, 28128, Note_on_c, 1, 64, 0
1, 28128, Note_on_c, 1, 66, 70
1, 28128, Note_on_c, 1, 62, 70
1, 28217, Note_on_c, 1, 66, 0
1, 28217, Note_on_c, 1, 62, 0
1, 28224, Note_on_c, 1, 64, 70
1, 28224, Note_on_c, 1, 61, 70
1, 28313, Note_on_c, 0, 71, 0
1, 28320, Note_on_c, 0, 69, 77
1, 28409, Note_on_c, 0, 69, 0
1, 28416, Note_on_c, 0, 67, 77
1, 28416, Note_on_c, 1, 64, 0
1, 28416, Note_on_c, 1, 57, 70
1, 28505, Note_on_c, 0, 67, 0
1, 28505, Note_on_c, 1, 61, 0
1, 28505, Note_on_c, 1, 57, 0
1, 28512, Note_on_c, 0, 69, 77
1, 28512, Note_on_c, 1, 62, 70
1, 28512, Note_on_c, 1, 59, 70
1, 28535, Note_on_c, 0, 69, 0
1, 28536, Note_on_c, 0, 67, 77
1, 28559, Note_on_c, 0, 67, 0
1, 28560, Note_on_c, 0, 66, 77
1, 28583, Note_on_c, 0, 66, 0
1, 28584, Note_on_c, 0, 67, 77
1, 28607, Note_on_c, 0, 67, 0
1, 28608, Note_on_c, 0, 66, 77
1, 28689, Note_on_c, 1, 62, 0
1, 28689, Note_on_c, 1, 59, 0
1, 28697, Note_on_c, 0, 66, 0
1, 28800, Note_on_c, 0, 64, 77
1, 28800, Note_on_c, 1, 43, 85
1, 28800, Note_on_c, 1, 31, 85
1, 28889, Note_on_c, 0, 64, 0
1, 28896, Note_on_c, 0, 67, 77
1, 28977, Note_on_c, 1, 43, 0
1, 28977, Note_on_c, 1, 31, 0
1, 28985, Note_on_c, 0, 67, 0
1, 28992, Note_on_c, 0, 71, 77
1, 29022, Note_on_c, 0, 71, 0
1, 29024, Note_on_c, 0, 67, 77
1, 29054, Note_on_c, 0, 67, 0
1, 29056, Note_on_c, 0, 64, 77
1, 29086, Note_on_c, 0, 64, 0
1, 29088, Note_on_c, 0, 62, 77
1, 29088, Note_on_c, 1, 57, 77
1, 29088, Note_on_c, 1, 55, 77
1, 29177, Note_on_c, 0, 62, 0
1, 29184, Note_on_c, 0, 61, 77
1, 29197, Note_on_c, 0, 61, 0
1, 29198, Note_on_c, 0, 62, 77
1, 29211, Note_on_c, 0, 62, 0
1, 29212, Note_on_c, 0, 61, 77
1, 29225, Note_on_c, 0, 61, 0
1, 29226, Note_on_c, 0, 62, 77
1, 29239, Note_on_c, 0, 62, 0
1, 29240, Note_on_c, 0, 61, 77
1, 29253, Note_on_c, 0, 61, 0
1, 29254, Note_on_c, 0, 59, 77
1, 29265, Note_on_c, 1, 57, 0
1, 29265, Note_on_c, 1, 55, 0
1, 29266, Note_on_c, 0, 59, 0
1, 29267, Note_on_c, 0, 61, 77
1, 29279, Note_on_c, 0, 61, 0
1, 29280, Note_on_c, 0, 62, 77
1, 29280, Note_on_c, 1, 57, 77
1, 29280, Note_on_c, 1, 54, 77
1, 29369, Note_on_c, 0, 62, 0
1, 29369, Note_on_c, 1, 57, 0
1, 29369, Note_on_c, 1, 54, 0
1, 29376, Note_on_c, 0, 57, 77
1, 29376, Note_on_c, 1, 49, 77
1, 29465, Note_on_c, 0, 57, 0
1, 29472, Note_on_c, 0, 67, 77
1, 29472, Note_on_c, 0, 64, 77
1, 29553, Note_on_c, 1, 49, 0
1, 29561, Note_on_c, 0, 67, 0
1, 29561, Note_on_c, 0, 64, 0
1, 29568, Note_on_c, 0, 66, 77
1, 29568, Note_on_c, 0, 62, 77
1, 29568, Note_on_c, 1, 50, 77
1, 29657, Note_on_c, 0, 66, 0
1, 29657, Note_on_c, 0, 62, 0
1, 29657, Note_on_c, 1, 50, 0
1, 29664, Note_on_c, 0, 66, 77
1, 29664, Note_on_c, 0, 62, 77
1, 29664, Note_on_c, 1, 45, 77
1, 29753, Note_on_c, 0, 66, 0
1, 29753, Note_on_c, 0, 62, 0
1, 29753, Note_on_c, 1, 45, 0
1, 29760, Note_on_c, 0, 64, 77
1, 29760, Note_on_c, 0, 61, 77
1, 29760, Note_on_c, 1, 57, 77
1, 29849, Note_on_c, 0, 64, 0
1, 29849, Note_on_c, 0, 61, 0
1, 29849, Note_on_c, 1, 57, 0
1, 29856, Note_on_c, 1, 45, 77
1, 29945, Note_on_c, 1, 45, 0
1, 29952, Note_on_c, 1, 61, 77
1, 29952, Note_on_c, 1, 57, 77
1, 30041, Note_on_c, 1, 61, 0
1, 30041, Note_on_c, 1, 57, 0
1, 30048, Note_on_c, 0, 76, 77
1, 30078, Note_on_c, 0, 76, 0
1, 30080, Note_on_c, 0, 73, 77
1, 30110, Note_on_c, 0, 73, 0
1, 30112, Note_on_c, 0, 69, 77
1, 30142, Note_on_c, 0, 69, 0
1, 30144, Note_on_c, 0, 69, 77
1, 30233, Note_on_c, 0, 69, 0
1, 30240, Note_on_c, 1, 62, 77
1, 30240, Note_on_c, 1, 59, 77
1, 30329, Note_on_c, 1, 62, 0
1, 30329, Note_on_c, 1, 59, 0
1, 30336, Note_on_c, 0, 74, 77
1, 30366, Note_on_c, 0, 74, 0
1, 30368, Note_on_c, 0, 71, 77
1, 30398, Note_on_c, 0, 71, 0
1, 30400, Note_on_c, 0, 68, 77
1, 30430, Note_on_c, 0, 68, 0
1, 30432, Note_on_c, 0, 68, 77
1, 30521, Note_on_c, 0, 68, 0
1, 30528, Note_on_c, 1, 62, 77
1, 30528, Note_on_c, 1, 59, 77
1, 30617, Note_on_c, 1, 62, 0
1, 30617, Note_on_c, 1, 59, 0
1, 30624, Note_on_c, 0, 86, 77
1, 30654, Note_on_c, 0, 86, 0
1, 30656, Note_on_c, 0, 83, 76
1, 30686, Note_on_c, 0, 83, 0
1, 30688, Note_on_c, 0, 80, 76
1, 30718, Note_on_c, 0, 80, 0
1, 30720, Note_on_c, 0, 80, 75
1, 30809, Note_on_c, 0, 80, 0
1, 30816, Note_on_c, 1, 64, 77
1, 30816, Note_on_c, 1, 61, 77
1, 30905, Note_on_c, 1, 64, 0
1, 30905, Note_on_c, 1, 61, 0
1, 30912, Note_on_c, 0, 81, 72
1, 30942, Note_on_c, 0, 81, 0
1, 30944, Note_on_c, 0, 83, 72
1, 30974, Note_on_c, 0, 83, 0
1, 30976, Note_on_c, 0, 79, 72
1, 31006, Note_on_c, 0, 79, 0
1, 31008, Tempo, 521739
1, 31008, Note_on_c, 0, 76, 71
1, 31097, Note_on_c, 0, 76, 0
1, 31104, Tempo, 461538
1, 31104, Note_on_c, 1, 66, 70
1, 31104, Note_on_c, 1, 62, 70
1, 31200, Note_on_c, 0, 78, 77
1, 31281, Note_on_c, 1, 66, 0
1, 31281, Note_on_c, 1, 62, 0
1, 31289, Note_on_c, 0, 78, 0
1, 31296, Note_on_c, 0, 81, 77
1, 31296, Note_on_c, 1, 66, 70
1, 31296, Note_on_c, 1, 62, 70
1, 31326, Note_on_c, 0, 81, 0
1, 31328, Note_on_c, 0, 78, 77
1, 31358, Note_on_c, 0, 78, 0
1, 31360, Note_on_c, 0, 74, 77
1, 31385, Note_on_c, 1, 66, 0
1, 31385, Note_on_c, 1, 62, 0
1, 31390, Note_on_c, 0, 74, 0
1, 31392, Note_on_c, 0, 74, 77
1, 31392, Note_on_c, 1, 67, 70
1, 31392, Note_on_c, 1, 64, 70
1, 31481, Note_on_c, 0, 74, 0
1, 31488, Note_on_c, 0, 73, 77
1, 31577, Note_on_c, 0, 73, 0
1, 31584, Note_on_c, 0, 71, 77
1, 31584, Note_on_c, 1, 67, 0
1, 31584, Note_on_c, 1, 64, 0
1, 31584, Note_on_c, 1, 66, 70
1, 31584, Note_on_c, 1, 62, 70
1, 31673, Note_on_c, 1, 66, 0
1, 31673, Note_on_c, 1, 62, 0
1, 31680, Note_on_c, 1, 64, 70
1, 31680, Note_on_c, 1, 61, 70
1, 31769, Note_on_c, 0, 71, 0
1, 31776, Note_on_c, 0, 69, 77
1, 31865, Note_on_c, 0, 69, 0
1, 31872, Note_on_c, 0, 67, 77
1, 31872, Note_on_c, 1, 64, 0
1, 31872, Note_on_c, 1, 57, 70
1, 31961, Note_on_c, 0, 67, 0
1, 31961, Note_on_c, 1, 61, 0
1, 31961, Note_on_c, 1, 57, 0
1, 31968, Note_on_c, 0, 69, 77
1, 31968, Note_on_c, 1, 62, 70
1, 31968, Note_on_c, 1, 59, 70
1, 31991, Note_on_c, 0, 69, 0
1, 31992, Note_on_c, 0, 67, 77
1, 32015, Note_on_c, 0, 67, 0
1, 32016, Note_on_c, 0, 66, 77
1, 32039, Note_on_c, 0, 66, 0
1, 32040, Note_on_c, 0, 67, 77
1, 32063, Note_on_c, 0, 67, 0
1, 32064, Note_on_c, 0, 66, 77
1, 32145, Note_on_c, 1, 62, 0
1, 32145, Note_on_c, 1, 59, 0
1, 32153, Note_on_c, 0, 66, 0
1, 32256, Note_on_c, 0, 64, 77
1, 32256, Note_on_c, 1, 43, 85
1, 32256, Note_on_c, 1, 31, 85
1, 32345, Note_on_c, 0, 64, 0
1, 32352, Note_on_c, 0, 67, 77
1, 32433, Note_on_c, 1, 43, 0
1, 32433, Note_on_c, 1, 31, 0
1, 32441, Note_on_c, 0, 67, 0
1, 32448, Note_on_c, 0, 71, 77
1, 32478, Note_on_c, 0, 71, 0
1, 32480, Note_on_c, 0, 67, 77
1, 32510, Note_on_c, 0, 67, 0
1, 32512, Note_on_c, 0, 64, 77
1, 32542, Note_on_c, 0, 64, 0
1, 32544, Note_on_c, 0, 62, 77
1, 32544, Note_on_c, 1, 57, 77
1, 32544, Note_on_c, 1, 55, 77
1, 32633, Note_on_c, 0, 62, 0
1, 32640, Note_on_c, 0, 61, 77
1, 32653, Note_on_c, 0, 61, 0
1, 32654, Note_on_c, 0, 62, 77
1, 32667, Note_on_c, 0, 62, 0
1, 32668, Note_on_c, 0, 61, 77
1, 32681, Note_on_c, 0, 61, 0
1, 32682, Note_on_c, 0, 62, 77
1, 32695, Note_on_c, 0, 62, 0
1, 32696, Note_on_c, 0, 61, 77
1, 32709, Note_on_c, 0, 61, 0
1, 32710, Note_on_c, 0, 59, 77
1, 32721, Note_on_c, 1, 57, 0
1, 32721, Note_on_c, 1, 55, 0
1, 32722, Note_on_c, 0, 59, 0
1, 32723, Note_on_c, 0, 61, 77
1, 32735, Note_on_c, 0, 61, 0
1, 32736, Note_on_c, 0, 62, 77
1, 32736, Note_on_c, 1, 57, 77
1, 32736, Note_on_c, 1, 54, 77
1, 32825, Note_on_c, 0, 62, 0
1, 32825, Note_on_c, 1, 57, 0
1, 32825, Note_on_c, 1, 54, 0
1, 32832, Note_on_c, 0, 76, 77
1, 32832, Note_on_c, 1, 71, 77
1, 32832, Note_on_c, 1, 67, 77
1, 32921, Note_on_c, 0, 76, 0
1, 32921, Note_on_c, 1, 71, 0
1, 32921, Note_on_c, 1, 67, 0
1, 32928, Note_on_c, 0, 83, 77
1, 32958, Note_on_c, 0, 83, 0
1, 32960, Note_on_c, 0, 79, 77
1, 32990, Note_on_c, 0, 79, 0
1, 32992, Note_on_c, 0, 76, 77
1, 33022, Note_on_c, 0, 76, 0
1, 33024, Note_on_c, 0, 85, 77
1, 33024, Note_on_c, 1, 69, 77
1, 33024, Note_on_c, 1, 67, 77
1, 33054, Note_on_c, 0, 85, 0
1, 33056, Note_on_c, 0, 79, 77
1, 33086, Note_on_c, 0, 79, 0
1, 33088, Note_on_c, 0, 76, 77
1, 33113, Note_on_c, 1, 69, 0
1, 33113, Note_on_c, 1, 67, 0
1, 33118, Note_on_c, 0, 76, 0
1, 33120, Note_on_c, 0, 86, 77
1, 33120, Note_on_c, 1, 69, 77
1, 33120, Note_on_c, 1, 66, 77
1, 33209, Note_on_c, 0, 86, 0
1, 33209, Note_on_c, 1, 69, 0
1, 33209, Note_on_c, 1, 66, 0
1, 33216, Note_on_c, 0, 74, 77
1, 33246, Note_on_c, 0, 74, 0
1, 33248, Note_on_c, 0, 78, 77
1, 33278, Note_on_c, 0, 78, 0
1, 33280, Note_on_c, 0, 81, 77
1, 33310, Note_on_c, 0, 81, 0
1, 33312, Note_on_c, 0, 86, 77
1, 33401, Note_on_c, 0, 86, 0
1, 33408, Note_on_c, 0, 83, 77
1, 33408, Note_on_c, 1, 67, 77
1, 33438, Note_on_c, 0, 83, 0
1, 33440, Note_on_c, 0, 81, 77
1, 33470, Note_on_c, 0, 81, 0
1, 33472, Note_on_c, 0, 79, 77
1, 33497, Note_on_c, 1, 67, 0
1, 33502, Note_on_c, 0, 79, 0
1, 33504, Note_on_c, 0, 78, 77
1, 33504, Note_on_c, 1, 69, 77
1, 33593, Note_on_c, 0, 78, 0
1, 33593, Note_on_c, 1, 69, 0
1, 33600, Note_on_c, 0, 76, 77
1, 33600, Note_on_c, 1, 57, 77
1, 33613, Note_on_c, 0, 76, 0
1, 33614, Note_on_c, 0, 78, 77
1, 33627, Note_on_c, 0, 78, 0
1, 33628, Note_on_c, 0, 76, 77
1, 33641, Note_on_c, 0, 76, 0
1, 33642, Note_on_c, 0, 78, 77
1, 33655, Note_on_c, 0, 78, 0
1, 33656, Note_on_c, 0, 76, 77
1, 33669, Note_on_c, 0, 76, 0
1, 33670, Note_on_c, 0, 74, 77
1, 33682, Note_on_c, 0, 74, 0
1, 33683, Note_on_c, 0, 76, 77
1, 33689, Note_on_c, 1, 57, 0
1, 33695, Note_on_c, 0, 76, 0
1, 33696, Note_on_c, 0, 74, 77
1, 33696, Note_on_c, 1, 62, 77
1, 33785, Note_on_c, 1, 62, 0
1, 33792, Note_on_c, 1, 57, 77
1, 33873, Note_on_c, 0, 74, 0
1, 33881, Note_on_c, 1, 57, 0
1, 33888, Note_on_c, 1, 50, 77
1, 33977, Note_on_c, 1, 50, 0
1, 33984, Note_on_c, 1, 61, 77
1, 33984, Note_on_c, 1, 57, 77
1, 34073, Note_on_c, 1, 61, 0
1, 34073, Note_on_c, 1, 57, 0
1, 34080, Note_on_c, 0, 76, 77
1, 34110, Note_on_c, 0, 76, 0
1, 34112, Note_on_c, 0, 73, 77
1, 34142, Note_on_c, 0, 73, 0
1, 34144, Note_on_c, 0, 69, 77
1, 34174, Note_on_c, 0, 69, 0
1, 34176, Note_on_c, 0, 69, 77
1, 34265, Note_on_c, 0, 69, 0
1, 34272, Note_on_c, 1, 62, 77
1, 34272, Note_on_c, 1, 59, 77
1, 34361, Note_on_c, 1, 62, 0
1, 34361, Note_on_c, 1, 59, 0
1, 34368, Note_on_c, 0, 74, 77
1, 34398, Note_on_c, 0, 74, 0
1, 34400, Note_on_c, 0, 71, 77
1, 34430, Note_on_c, 0, 71, 0
1, 34432, Note_on_c, 0, 68, 77
1, 34462, Note_on_c, 0, 68, 0
1, 34464, Note_on_c, 0, 68, 77
1, 34553, Note_on_c, 0, 68, 0
1, 34560, Note_on_c, 1, 62, 77
1, 34560, Note_on_c, 1, 59, 77
1, 34649, Note_on_c, 1, 62, 0
1, 34649, Note_on_c, 1, 59, 0
1, 34656, Note_on_c, 0, 86, 77
1, 34686, Note_on_c, 0, 86, 0
1, 34688, Note_on_c, 0, 83, 76
1, 34718, Note_on_c, 0, 83, 0
1, 34720, Note_on_c, 0, 80, 76
1, 34750, Note_on_c, 0, 80, 0
1, 34752, Note_on_c, 0, 80, 75
1, 34841, Note_on_c, 0, 80, 0
1, 34848, Note_on_c, 1, 64, 77
1, 34848, Note_on_c, 1, 61, 77
1, 34937, Note_on_c, 1, 64, 0
1, 34937, Note_on_c, 1, 61, 0
1, 34944, Note_on_c, 0, 81, 72
1, 34974, Note_on_c, 0, 81, 0
1, 34976, Note_on_c, 0, 83, 72
1, 35006, Note_on_c, 0, 83, 0
1, 35008, Note_on_c, 0, 79, 72
1, 35038, Note_on_c, 0, 79, 0
1, 35040, Tempo, 521739
1, 35040, Note_on_c, 0, 76, 71
1, 35129, Note_on_c, 0, 76, 0
1, 35136, Tempo, 461538
1, 35136, Note_on_c, 1, 66, 70
1, 35136, Note_on_c, 1, 62, 70
1, 35232, Note_on_c, 0, 78, 77
1, 35313, Note_on_c, 1, 66, 0
1, 35313, Note_on_c, 1, 62, 0
1, 35321, Note_on_c, 0, 78, 0
1, 35328, Note_on_c, 0, 81, 77
1, 35328, Note_on_c, 1, 66, 70
1, 35328, Note_on_c, 1, 62, 70
1, 35358, Note_on_c, 0, 81, 0
1, 35360, Note_on_c, 0, 78, 77
1, 35390, Note_on_c, 0, 78, 0
1, 35392, Note_on_c, 0, 74, 77
1, 35417, Note_on_c, 1, 66, 0
1, 35417, Note_on_c, 1, 62, 0
1, 35422, Note_on_c, 0, 74, 0
1, 35424, Note_on_c, 0, 74, 77
1, 35424, Note_on_c, 1, 67, 70
1, 35424, Note_on_c, 1, 64, 70
1, 35513, Note_on_c, 0, 74, 0
1, 35520, Note_on_c, 0, 73, 77
1, 35609, Note_on_c, 0, 73, 0
1, 35616, Note_on_c, 0, 71, 77
1, 35616, Note_on_c, 1, 67, 0
1, 35616, Note_on_c, 1, 64, 0
1, 35616, Note_on_c, 1, 66, 70
1, 35616, Note_on_c, 1, 62, 70
1, 35705, Note_on_c, 1, 66, 0
1, 35705, Note_on_c, 1, 62, 0
1, 35712, Note_on_c, 1, 64, 70
1, 35712, Note_on_c, 1, 61, 70
1, 35801, Note_on_c, 0, 71, 0
1, 35808, Note_on_c, 0, 69, 77
1, 35897, Note_on_c, 0, 69, 0
1, 35904, Note_on_c, 0, 67, 77
1, 35904, Note_on_c, 1, 64, 0
1, 35904, Note_on_c, 1, 57, 70
1, 35993, Note_on_c, 0, 67, 0
1, 35993, Note_on_c, 1, 61, 0
1, 35993, Note_on_c, 1, 57, 0
1, 36000, Note_on_c, 0, 69, 77
1, 36000, Note_on_c, 1, 62, 70
1, 36000, Note_on_c, 1, 59, 70
1, 36023, Note_on_c, 0, 69, 0
1, 36024, Note_on_c, 0, 67, 77
1, 36047, Note_on_c, 0, 67, 0
1, 36048, Note_on_c, 0, 66, 77
1, 36071, Note_on_c, 0, 66, 0
1, 36072, Note_on_c, 0, 67, 77
1, 36095, Note_on_c, 0, 67, 0
1, 36096, Note_on_c, 0, 66, 77
1, 36177, Note_on_c, 1, 62, 0
1, 36177, Note_on_c, 1, 59, 0
1, 36185, Note_on_c, 0, 66, 0
1, 36288, Note_on_c, 0, 64, 77
1, 36288, Note_on_c, 1, 43, 85
1, 36288, Note_on_c, 1, 31, 85
1, 36377, Note_on_c, 0, 64, 0
1, 36384, Note_on_c, 0, 67, 77
1, 36465, Note_on_c, 1, 43, 0
1, 36465, Note_on_c, 1, 31, 0
1, 36473, Note_on_c, 0, 67, 0
1, 36480, Note_on_c, 0, 71, 77
1, 36510, Note_on_c, 0, 71, 0
1, 36512, Note_on_c, 0, 67, 77
1, 36542, Note_on_c, 0, 67, 0
1, 36544, Note_on_c, 0, 64, 77
1, 36574, Note_on_c, 0, 64, 0
1, 36576, Note_on_c, 0, 62, 77
1, 36576, Note_on_c, 1, 57, 77
1, 36576, Note_on_c, 1, 55, 77
1, 36665, Note_on_c, 0, 62, 0
1, 36672, Note_on_c, 0, 61, 77
1, 36685, Note_on_c, 0, 61, 0
1, 36686, Note_on_c, 0, 62, 77
1, 36699, Note_on_c, 0, 62, 0
1, 36700, Note_on_c, 0, 61, 77
1, 36713, Note_on_c, 0, 61, 0
1, 36714, Note_on_c, 0, 62, 77
1, 36727, Note_on_c, 0, 62, 0
1, 36728, Note_on_c, 0, 61, 77
1, 36741, Note_on_c, 0, 61, 0
1, 36742, Note_on_c, 0, 59, 77
1, 36753, Note_on_c, 1, 57, 0
1, 36753, Note_on_c, 1, 55, 0
1, 36754, Note_on_c, 0, 59, 0
1, 36755, Note_on_c, 0, 61, 77
1, 36767, Note_on_c, 0, 61, 0
1, 36768, Note_on_c, 0, 62, 77
1, 36768, Note_on_c, 1, 57, 77
1, 36768, Note_on_c, 1, 54, 77
1, 36857, Note_on_c, 0, 62, 0
1, 36857, Note_on_c, 1, 57, 0
1, 36857, Note_on_c, 1, 54, 0
1, 36864, Note_on_c, 0, 76, 77
1, 36864, Note_on_c, 1, 71, 77
1, 36864, Note_on_c, 1, 67, 77
1, 36953, Note_on_c, 0, 76, 0
1, 36953, Note_on_c, 1, 71, 0
1, 36953, Note_on_c, 1, 67, 0
1, 36960, Note_on_c, 0, 83, 77
1, 36990, Note_on_c, 0, 83, 0
1, 36992, Note_on_c, 0, 79, 77
1, 37022, Note_on_c, 0, 79, 0
1, 37024, Note_on_c, 0, 76, 77
1, 37054, Note_on_c, 0, 76, 0
1, 37056, Note_on_c, 0, 85, 77
1, 37056, Note_on_c, 1, 69, 77
1, 37056, Note_on_c, 1, 67, 77
1, 37086, Note_on_c, 0, 85, 0
1, 37088, Note_on_c, 0, 79, 77
1, 37118, Note_on_c, 0, 79, 0
1, 37120, Note_on_c, 0, 76, 77
1, 37145, Note_on_c, 1, 69, 0
1, 37145, Note_on_c, 1, 67, 0
1, 37150, Note_on_c, 0, 76, 0
1, 37152, Note_on_c, 0, 86, 77
1, 37152, Note_on_c, 1, 69, 77
1, 37152, Note_on_c, 1, 66, 77
1, 37241, Note_on_c, 0, 86, 0
1, 37241, Note_on_c, 1, 69, 0
1, 37241, Note_on_c, 1, 66, 0
1, 37248, Note_on_c, 0, 74, 77
1, 37278, Note_on_c, 0, 74, 0
1, 37280, Note_on_c, 0, 78, 77
1, 37310, Note_on_c, 0, 78, 0
1, 37312, Note_on_c, 0, 81, 77
1, 37342, Note_on_c, 0, 81, 0
1, 37344, Note_on_c, 0, 86, 77
1, 37433, Note_on_c, 0, 86, 0
1, 37440, Note_on_c, 0, 83, 77
1, 37440, Note_on_c, 1, 67, 77
1, 37470, Note_on_c, 0, 83, 0
1, 37472, Note_on_c, 0, 81, 77
1, 37502, Note_on_c, 0, 81, 0
1, 37504, Note_on_c, 0, 79, 77
1, 37529, Note_on_c, 1, 67, 0
1, 37534, Note_on_c, 0, 79, 0
1, 37536, Note_on_c, 0, 78, 77
1, 37536, Note_on_c, 1, 69, 77
1, 37625, Note_on_c, 0, 78, 0
1, 37625, Note_on_c, 1, 69, 0
1, 37632, Note_on_c, 0, 76, 77
1, 37632, Note_on_c, 1, 57, 77
1, 37645, Note_on_c, 0, 76, 0
1, 37646, Note_on_c, 0, 78, 77
1, 37659, Note_on_c, 0, 78, 0
1, 37660, Note_on_c, 0, 76, 77
1, 37673, Note_on_c, 0, 76, 0
1, 37674, Note_on_c, 0, 78, 77
1, 37687, Note_on_c, 0, 78, 0
1, 37688, Note_on_c, 0, 76, 77
1, 37701, Note_on_c, 0, 76, 0
1, 37702, Note_on_c, 0, 74, 77
1, 37714, Note_on_c, 0, 74, 0
1, 37715, Note_on_c, 0, 76, 77
1, 37721, Note_on_c, 1, 57, 0
1, 37727, Note_on_c, 0, 76, 0
1, 37728, Note_on_c, 0, 74, 77
1, 37728, Note_on_c, 1, 62, 77
1, 37817, Note_on_c, 1, 62, 0
1, 37824, Note_on_c, 1, 57, 77
1, 37905, Note_on_c, 0, 74, 0
1, 37913, Note_on_c, 1, 57, 0
1, 37920, Note_on_c, 1, 50, 77
1, 38009, Note_on_c, 1, 50, 0
1, 38016, Note_on_c, 1, 50, 0
1, 38193, Note_on_c, 1, 50, 0
1, 38203, End_track
0, 0, End_of_file