0, 0, Header, 0, 1, 96
1, 0, Start_track
1, 0, Tempo, 413793
1, 0, Note_on_c, 1, 55, 75
1, 0, Note_on_c, 1, 51, 75
1, 48, Note_on_c, 0, 70, 75
1, 93, Note_on_c, 0, 70, 0
1, 96, Note_on_c, 0, 70, 75
1, 144, Note_on_c, 0, 70, 0
1, 144, Note_on_c, 0, 75, 75
1, 177, Note_on_c, 1, 55, 0
1, 177, Note_on_c, 1, 51, 0
1, 189, Note_on_c, 0, 75, 0
1, 192, Note_on_c, 0, 75, 75
1, 192, Note_on_c, 1, 67, 75
1, 240, Note_on_c, 0, 75, 0
1, 240, Note_on_c, 0, 74, 75
1, 281, Note_on_c, 1, 67, 0
1, 285, Note_on_c, 0, 74, 0
1, 288, Note_on_c, 1, 68, 75
1, 333, Note_on_c, 1, 68, 0
1, 336, Note_on_c, 0, 72, 75
1, 381, Note_on_c, 0, 72, 0
1, 384, Note_on_c, 1, 67, 75
1, 429, Note_on_c, 1, 67, 0
1, 432, Note_on_c, 0, 70, 75
1, 477, Note_on_c, 0, 70, 0
1, 480, Note_on_c, 1, 65, 75
1, 525, Note_on_c, 1, 65, 0
1, 528, Note_on_c, 0, 68, 75
1, 573, Note_on_c, 0, 68, 0
1, 576, Note_on_c, 1, 63, 75
1, 624, Note_on_c, 0, 67, 75
1, 669, Note_on_c, 0, 67, 0
1, 672, Note_on_c, 0, 70, 75
1, 720, Note_on_c, 0, 70, 0
1, 720, Note_on_c, 0, 75, 75
1, 753, Note_on_c, 1, 63, 0
1, 765, Note_on_c, 0, 75, 0
1, 768, Note_on_c, 0, 75, 75
1, 768, Note_on_c, 1, 67, 75
1, 816, Note_on_c, 0, 75, 0
1, 816, Note_on_c, 0, 74, 75
1, 857, Note_on_c, 1, 67, 0
1, 861, Note_on_c, 0, 74, 0
1, 864, Note_on_c, 1, 68, 75
1, 888, Note_on_c, 0, 72, 75
1, 909, Note_on_c, 1, 68, 0
1, 911, Note_on_c, 0, 72, 0
1, 912, Note_on_c, 0, 71, 75
1, 935, Note_on_c, 0, 71, 0
1, 936, Note_on_c, 0, 72, 75
1, 959, Note_on_c, 0, 72, 0
1, 960, Note_on_c, 1, 67, 75
1, 984, Note_on_c, 0, 70, 75
1, 1005, Note_on_c, 1, 67, 0
1, 1007, Note_on_c, 0, 70, 0
1, 1008, Note_on_c, 0, 69, 75
1, 1031, Note_on_c, 0, 69, 0
1, 1032, Note_on_c, 0, 70, 75
1, 1055, Note_on_c, 0, 70, 0
1, 1056, Note_on_c, 1, 65, 75
1, 1080, Note_on_c, 0, 68, 75
1, 1101, Note_on_c, 1, 65, 0
1, 1103, Note_on_c, 0, 68, 0
1, 1104, Note_on_c, 0, 67, 75
1, 1127, Note_on_c, 0, 67, 0
1, 1128, Note_on_c, 0, 68, 75
1, 1151, Note_on_c, 0, 68, 0
1, 1152, Note_on_c, 1, 63, 75
1, 1176, Note_on_c, 0, 67, 75
1, 1199, Note_on_c, 0, 67, 0
1, 1200, Note_on_c, 0, 68, 75
1, 1223, Note_on_c, 0, 68, 0
1, 1224, Note_on_c, 0, 70, 75
1, 1241, Note_on_c, 1, 63, 0
1, 1247, Note_on_c, 0, 70, 0
1, 1248, Note_on_c, 0, 72, 75
1, 1271, Note_on_c, 0, 72, 0
1, 1272, Note_on_c, 0, 74, 75
1, 1295, Note_on_c, 0, 74, 0
1, 1296, Note_on_c, 0, 75, 75
1, 1319, Note_on_c, 0, 75, 0
1, 1320, Note_on_c, 0, 77, 75
1, 1343, Note_on_c, 0, 77, 0
1, 1344, Note_on_c, 0, 79, 75
1, 1367, Note_on_c, 0, 79, 0
1, 1368, Note_on_c, 0, 75, 75
1, 1391, Note_on_c, 0, 75, 0
1, 1392, Note_on_c, 0, 74, 75
1, 1415, Note_on_c, 0, 74, 0
1, 1416, Note_on_c, 0, 72, 75
1, 1439, Note_on_c, 0, 72, 0
1, 1440, Note_on_c, 0, 70, 75
1, 1488, Note_on_c, 1, 51, 75
1, 1511, Note_on_c, 1, 51, 0
1, 1512, Note_on_c, 1, 53, 75
1, 1535, Note_on_c, 1, 53, 0
1, 1536, Note_on_c, 1, 55, 75
1, 1581, Note_on_c, 1, 55, 0
1, 1584, Note_on_c, 1, 51, 75
1, 1617, Note_on_c, 0, 70, 0
1, 1629, Note_on_c, 1, 51, 0
1, 1632, Note_on_c, 0, 68, 75
1, 1632, Note_on_c, 1, 53, 75
1, 1645, Note_on_c, 0, 68, 0
1, 1646, Note_on_c, 0, 70, 75
1, 1659, Note_on_c, 0, 70, 0
1, 1660, Note_on_c, 0, 68, 75
1, 1673, Note_on_c, 0, 68, 0
1, 1674, Note_on_c, 0, 70, 75
1, 1677, Note_on_c, 1, 53, 0
1, 1680, Note_on_c, 1, 46, 75
1, 1687, Note_on_c, 0, 70, 0
1, 1688, Note_on_c, 0, 68, 75
1, 1701, Note_on_c, 0, 68, 0
1, 1702, Note_on_c, 0, 67, 75
1, 1714, Note_on_c, 0, 67, 0
1, 1715, Note_on_c, 0, 68, 75
1, 1725, Note_on_c, 1, 46, 0
1, 1727, Note_on_c, 0, 68, 0
1, 1728, Note_on_c, 0, 67, 75
1, 1728, Note_on_c, 1, 51, 75
1, 1751, Note_on_c, 0, 67, 0
1, 1752, Note_on_c, 0, 63, 75
1, 1775, Note_on_c, 0, 63, 0
1, 1776, Note_on_c, 0, 62, 75
1, 1799, Note_on_c, 0, 62, 0
1, 1800, Note_on_c, 0, 63, 75
1, 1817, Note_on_c, 1, 51, 0
1, 1823, Note_on_c, 0, 63, 0
1, 1824, Note_on_c, 0, 65, 75
1, 1847, Note_on_c, 0, 65, 0
1, 1848, Note_on_c, 0, 63, 75
1, 1871, Note_on_c, 0, 63, 0
1, 1872, Note_on_c, 0, 62, 75
1, 1895, Note_on_c, 0, 62, 0
1, 1896, Note_on_c, 0, 63, 75
1, 1919, Note_on_c, 0, 63, 0
1, 1920, Note_on_c, 0, 67, 75
1, 1920, Note_on_c, 1, 43, 75
1, 1943, Note_on_c, 0, 67, 0
1, 1944, Note_on_c, 0, 65, 75
1, 1959, Note_on_c, 1, 43, 0
1, 1967, Note_on_c, 0, 65, 0
1, 1968, Note_on_c, 0, 63, 75
1, 1991, Note_on_c, 0, 63, 0
1, 1992, Note_on_c, 0, 62, 75
1, 2015, Note_on_c, 0, 62, 0
1, 2016, Note_on_c, 0, 60, 75
1, 2016, Note_on_c, 1, 44, 75
1, 2039, Note_on_c, 0, 60, 0
1, 2040, Note_on_c, 0, 68, 75
1, 2055, Note_on_c, 1, 44, 0
1, 2063, Note_on_c, 0, 68, 0
1, 2064, Note_on_c, 0, 72, 75
1, 2087, Note_on_c, 0, 72, 0
1, 2088, Note_on_c, 0, 70, 75
1, 2111, Note_on_c, 0, 70, 0
1, 2112, Note_on_c, 0, 68, 75
1, 2135, Note_on_c, 0, 68, 0
1, 2136, Note_on_c, 0, 67, 75
1, 2159, Note_on_c, 0, 67, 0
1, 2160, Note_on_c, 0, 65, 75
1, 2183, Note_on_c, 0, 65, 0
1, 2184, Note_on_c, 0, 63, 75
1, 2207, Note_on_c, 0, 63, 0
1, 2208, Note_on_c, 0, 62, 75
1, 2208, Note_on_c, 1, 46, 75
1, 2231, Note_on_c, 0, 62, 0
1, 2232, Note_on_c, 0, 60, 75
1, 2247, Note_on_c, 1, 46, 0
1, 2255, Note_on_c, 0, 60, 0
1, 2256, Note_on_c, 0, 58, 75
1, 2279, Note_on_c, 0, 58, 0
1, 2280, Note_on_c, 0, 56, 75
1, 2303, Note_on_c, 0, 56, 0
1, 2304, Note_on_c, 0, 55, 75
1, 2304, Note_on_c, 1, 51, 75
1, 2327, Note_on_c, 0, 55, 0
1, 2328, Note_on_c, 0, 63, 75
1, 2343, Note_on_c, 1, 51, 0
1, 2351, Note_on_c, 0, 63, 0
1, 2352, Note_on_c, 0, 62, 75
1, 2375, Note_on_c, 0, 62, 0
1, 2376, Note_on_c, 0, 63, 75
1, 2399, Note_on_c, 0, 63, 0
1, 2400, Note_on_c, 0, 65, 75
1, 2423, Note_on_c, 0, 65, 0
1, 2424, Note_on_c, 0, 63, 75
1, 2447, Note_on_c, 0, 63, 0
1, 2448, Note_on_c, 0, 62, 75
1, 2471, Note_on_c, 0, 62, 0
1, 2472, Note_on_c, 0, 63, 75
1, 2495, Note_on_c, 0, 63, 0
1, 2496, Note_on_c, 0, 67, 75
1, 2496, Note_on_c, 1, 43, 75
1, 2519, Note_on_c, 0, 67, 0
1, 2520, Note_on_c, 0, 65, 75
1, 2535, Note_on_c, 1, 43, 0
1, 2543, Note_on_c, 0, 65, 0
1, 2544, Note_on_c, 0, 63, 75
1, 2567, Note_on_c, 0, 63, 0
1, 2568, Note_on_c, 0, 62, 75
1, 2591, Note_on_c, 0, 62, 0
1, 2592, Note_on_c, 0, 60, 75
1, 2592, Note_on_c, 1, 44, 75
1, 2615, Note_on_c, 0, 60, 0
1, 2616, Note_on_c, 0, 68, 75
1, 2631, Note_on_c, 1, 44, 0
1, 2639, Note_on_c, 0, 68, 0
1, 2640, Note_on_c, 0, 72, 75
1, 2663, Note_on_c, 0, 72, 0
1, 2664, Note_on_c, 0, 70, 75
1, 2687, Note_on_c, 0, 70, 0
1, 2688, Note_on_c, 0, 68, 75
1, 2711, Note_on_c, 0, 68, 0
1, 2712, Note_on_c, 0, 67, 75
1, 2735, Note_on_c, 0, 67, 0
1, 2736, Note_on_c, 0, 65, 75
1, 2759, Note_on_c, 0, 65, 0
1, 2760, Note_on_c, 0, 63, 75
1, 2783, Note_on_c, 0, 63, 0
1, 2784, Note_on_c, 0, 62, 75
1, 2784, Note_on_c, 1, 46, 75
1, 2807, Note_on_c, 0, 62, 0
1, 2808, Note_on_c, 0, 60, 75
1, 2823, Note_on_c, 1, 46, 0
1, 2831, Note_on_c, 0, 60, 0
1, 2832, Note_on_c, 0, 58, 75
1, 2855, Note_on_c, 0, 58, 0
1, 2856, Note_on_c, 0, 56, 75
1, 2879, Note_on_c, 0, 56, 0
1, 2880, Note_on_c, 0, 55, 75
1, 2904, Note_on_c, 1, 51, 75
1, 2925, Note_on_c, 0, 55, 0
1, 2927, Note_on_c, 1, 51, 0
1, 2928, Note_on_c, 1, 53, 75
1, 2951, Note_on_c, 1, 53, 0
1, 2952, Note_on_c, 1, 55, 75
1, 2975, Note_on_c, 1, 55, 0
1, 2976, Note_on_c, 1, 56, 75
1, 2999, Note_on_c, 1, 56, 0
1, 3000, Note_on_c, 1, 58, 75
1, 3023, Note_on_c, 1, 58, 0
1, 3024, Note_on_c, 1, 60, 75
1, 3047, Note_on_c, 1, 60, 0
1, 3048, Note_on_c, 1, 62, 75
1, 3071, Note_on_c, 1, 62, 0
1, 3072, Note_on_c, 1, 63, 75
1, 3095, Note_on_c, 1, 63, 0
1, 3096, Note_on_c, 1, 65, 75
1, 3119, Note_on_c, 1, 65, 0
1, 3120, Note_on_c, 1, 67, 75
1, 3143, Note_on_c, 1, 67, 0
1, 3144, Note_on_c, 1, 65, 75
1, 3167, Note_on_c, 1, 65, 0
1, 3168, Note_on_c, 1, 63, 75
1, 3216, Note_on_c, 0, 67, 75
1, 3257, Note_on_c, 1, 63, 0
1, 3264, Note_on_c, 0, 67, 0
1, 3264, Note_on_c, 0, 79, 75
1, 3309, Note_on_c, 0, 79, 0
1, 3312, Note_on_c, 0, 79, 75
1, 3357, Note_on_c, 0, 79, 0
1, 3360, Note_on_c, 0, 71, 75
1, 3360, Note_on_c, 1, 63, 75
1, 3408, Note_on_c, 0, 71, 0
1, 3408, Note_on_c, 0, 72, 75
1, 3449, Note_on_c, 1, 63, 0
1, 3453, Note_on_c, 0, 72, 0
1, 3456, Note_on_c, 1, 62, 75
1, 3504, Note_on_c, 0, 65, 75
1, 3545, Note_on_c, 1, 62, 0
1, 3552, Note_on_c, 0, 65, 0
1, 3552, Note_on_c, 0, 77, 75
1, 3597, Note_on_c, 0, 77, 0
1, 3600, Note_on_c, 0, 77, 75
1, 3645, Note_on_c, 0, 77, 0
1, 3648, Note_on_c, 0, 69, 75
1, 3648, Note_on_c, 1, 62, 75
1, 3696, Note_on_c, 0, 69, 0
1, 3696, Note_on_c, 0, 70, 75
1, 3737, Note_on_c, 1, 62, 0
1, 3741, Note_on_c, 0, 70, 0
1, 3744, Note_on_c, 1, 63, 75
1, 3768, Note_on_c, 0, 67, 75
1, 3791, Note_on_c, 0, 67, 0
1, 3792, Note_on_c, 0, 74, 75
1, 3815, Note_on_c, 0, 74, 0
1, 3816, Note_on_c, 0, 71, 75
1, 3833, Note_on_c, 1, 63, 0
1, 3839, Note_on_c, 0, 71, 0
1, 3840, Note_on_c, 1, 72, 81
1, 3864, Note_on_c, 0, 67, 75
1, 3879, Note_on_c, 1, 72, 0
1, 3887, Note_on_c, 0, 67, 0
1, 3888, Note_on_c, 0, 75, 75
1, 3911, Note_on_c, 0, 75, 0
1, 3912, Note_on_c, 0, 72, 75
1, 3935, Note_on_c, 0, 72, 0
1, 3936, Note_on_c, 1, 63, 81
1, 3960, Note_on_c, 0, 67, 75
1, 3983, Note_on_c, 0, 67, 0
1, 3984, Note_on_c, 0, 79, 75
1, 4007, Note_on_c, 0, 79, 0
1, 4008, Note_on_c, 0, 75, 75
1, 4025, Note_on_c, 1, 63, 0
1, 4031, Note_on_c, 0, 75, 0
1, 4032, Note_on_c, 1, 62, 81
1, 4056, Note_on_c, 0, 65, 75
1, 4079, Note_on_c, 0, 65, 0
1, 4080, Note_on_c, 0, 72, 75
1, 4103, Note_on_c, 0, 72, 0
1, 4104, Note_on_c, 0, 69, 75
1, 4121, Note_on_c, 1, 62, 0
1, 4127, Note_on_c, 0, 69, 0
1, 4128, Note_on_c, 1, 70, 81
1, 4152, Note_on_c, 0, 65, 75
1, 4175, Note_on_c, 0, 65, 0
1, 4176, Note_on_c, 0, 74, 75
1, 4199, Note_on_c, 0, 74, 0
1, 4200, Note_on_c, 0, 70, 75
1, 4217, Note_on_c, 1, 70, 0
1, 4223, Note_on_c, 0, 70, 0
1, 4224, Note_on_c, 1, 62, 81
1, 4248, Note_on_c, 0, 65, 75
1, 4263, Note_on_c, 1, 62, 0
1, 4271, Note_on_c, 0, 65, 0
1, 4272, Note_on_c, 0, 77, 75
1, 4295, Note_on_c, 0, 77, 0
1, 4296, Note_on_c, 0, 74, 75
1, 4319, Note_on_c, 0, 74, 0
1, 4320, Note_on_c, 1, 57, 81
1, 4344, Note_on_c, 0, 65, 75
1, 4359, Note_on_c, 1, 57, 0
1, 4367, Note_on_c, 0, 65, 0
1, 4368, Note_on_c, 0, 72, 75
1, 4391, Note_on_c, 0, 72, 0
1, 4392, Note_on_c, 0, 75, 75
1, 4415, Note_on_c, 0, 75, 0
1, 4416, Note_on_c, 1, 69, 81
1, 4440, Note_on_c, 0, 65, 75
1, 4455, Note_on_c, 1, 69, 0
1, 4463, Note_on_c, 0, 65, 0
1, 4464, Note_on_c, 0, 72, 75
1, 4487, Note_on_c, 0, 72, 0
1, 4488, Note_on_c, 0, 75, 75
1, 4511, Note_on_c, 0, 75, 0
1, 4512, Note_on_c, 1, 70, 81
1, 4536, Note_on_c, 0, 65, 75
1, 4551, Note_on_c, 1, 70, 0
1, 4559, Note_on_c, 0, 65, 0
1, 4560, Note_on_c, 0, 70, 75
1, 4583, Note_on_c, 0, 70, 0
1, 4584, Note_on_c, 0, 74, 75
1, 4607, Note_on_c, 0, 74, 0
1, 4608, Note_on_c, 1, 57, 81
1, 4632, Note_on_c, 0, 65, 75
1, 4647, Note_on_c, 1, 57, 0
1, 4655, Note_on_c, 0, 65, 0
1, 4656, Note_on_c, 0, 72, 75
1, 4679, Note_on_c, 0, 72, 0
1, 4680, Note_on_c, 0, 75, 75
1, 4703, Note_on_c, 0, 75, 0
1, 4704, Note_on_c, 1, 69, 81
1, 4728, Note_on_c, 0, 65, 75
1, 4743, Note_on_c, 1, 69, 0
1, 4751, Note_on_c, 0, 65, 0
1, 4752, Note_on_c, 0, 72, 75
1, 4775, Note_on_c, 0, 72, 0
1, 4776, Note_on_c, 0, 75, 75
1, 4799, Note_on_c, 0, 75, 0
1, 4800, Note_on_c, 1, 70, 81
1, 4824, Note_on_c, 0, 65, 75
1, 4839, Note_on_c, 1, 70, 0
1, 4847, Note_on_c, 0, 65, 0
1, 4848, Note_on_c, 0, 70, 75
1, 4871, Note_on_c, 0, 70, 0
1, 4872, Note_on_c, 0, 74, 75
1, 4895, Note_on_c, 0, 74, 0
1, 4896, Note_on_c, 1, 57, 81
1, 4920, Note_on_c, 0, 65, 75
1, 4935, Note_on_c, 1, 57, 0
1, 4943, Note_on_c, 0, 65, 0
1, 4944, Note_on_c, 0, 72, 75
1, 4967, Note_on_c, 0, 72, 0
1, 4968, Note_on_c, 0, 75, 75
1, 4991, Note_on_c, 0, 75, 0
1, 4992, Note_on_c, 1, 69, 81
1, 5016, Note_on_c, 0, 65, 75
1, 5031, Note_on_c, 1, 69, 0
1, 5039, Note_on_c, 0, 65, 0
1, 5040, Note_on_c, 0, 72, 75
1, 5063, Note_on_c, 0, 72, 0
1, 5064, Note_on_c, 0, 75, 75
1, 5087, Note_on_c, 0, 75, 0
1, 5088, Note_on_c, 1, 70, 81
1, 5112, Note_on_c, 0, 65, 75
1, 5127, Note_on_c, 1, 70, 0
1, 5135, Note_on_c, 0, 65, 0
1, 5136, Note_on_c, 0, 74, 75
1, 5159, Note_on_c, 0, 74, 0
1, 5160, Note_on_c, 0, 77, 75
1, 5183, Note_on_c, 0, 77, 0
1, 5184, Note_on_c, 0, 75, 75
1, 5184, Note_on_c, 1, 70, 75
1, 5184, Note_on_c, 1, 65, 64
1, 5199, Note_on_c, 0, 75, 0
1, 5200, Note_on_c, 0, 74, 75
1, 5215, Note_on_c, 0, 74, 0
1, 5216, Note_on_c, 0, 75, 75
1, 5231, Note_on_c, 0, 75, 0
1, 5232, Note_on_c, 0, 74, 75
1, 5247, Note_on_c, 0, 74, 0
1, 5248, Note_on_c, 0, 72, 75
1, 5263, Note_on_c, 0, 72, 0
1, 5264, Note_on_c, 0, 74, 75
1, 5279, Note_on_c, 0, 74, 0
1, 5280, Note_on_c, 0, 72, 75
1, 5280, Note_on_c, 1, 70, 0
1, 5280, Note_on_c, 1, 69, 75
1, 5361, Note_on_c, 1, 65, 0
1, 5369, Note_on_c, 0, 72, 0
1, 5369, Note_on_c, 1, 69, 0
1, 5472, Note_on_c, 1, 46, 81
1, 5472, Note_on_c, 1, 34, 81
1, 5496, Note_on_c, 0, 58, 81
1, 5519, Note_on_c, 0, 58, 0
1, 5520, Note_on_c, 0, 58, 81
1, 5543, Note_on_c, 0, 58, 0
1, 5544, Note_on_c, 0, 58, 81
1, 5561, Note_on_c, 1, 46, 0
1, 5561, Note_on_c, 1, 34, 0
1, 5567, Note_on_c, 0, 58, 0
1, 5568, Note_on_c, 1, 50, 81
1, 5568, Note_on_c, 1, 38, 81
1, 5592, Note_on_c, 0, 62, 81
1, 5615, Note_on_c, 0, 62, 0
1, 5616, Note_on_c, 0, 62, 81
1, 5639, Note_on_c, 0, 62, 0
1, 5640, Note_on_c, 0, 62, 81
1, 5657, Note_on_c, 1, 50, 0
1, 5657, Note_on_c, 1, 38, 0
1, 5663, Note_on_c, 0, 62, 0
1, 5664, Note_on_c, 1, 53, 81
1, 5664, Note_on_c, 1, 41, 81
1, 5688, Note_on_c, 0, 65, 81
1, 5711, Note_on_c, 0, 65, 0
1, 5712, Note_on_c, 0, 65, 81
1, 5735, Note_on_c, 0, 65, 0
1, 5736, Note_on_c, 0, 65, 81
1, 5753, Note_on_c, 1, 53, 0
1, 5753, Note_on_c, 1, 41, 0
1, 5759, Note_on_c, 0, 65, 0
1, 5760, Note_on_c, 1, 58, 81
1, 5760, Note_on_c, 1, 46, 81
1, 5784, Note_on_c, 0, 70, 81
1, 5807, Note_on_c, 0, 70, 0
1, 5808, Note_on_c, 0, 69, 81
1, 5831, Note_on_c, 0, 69, 0
1, 5832, Note_on_c, 0, 70, 81
1, 5849, Note_on_c, 1, 58, 0
1, 5849, Note_on_c, 1, 46, 0
1, 5855, Note_on_c, 0, 70, 0
1, 5856, Note_on_c, 0, 74, 81
1, 5879, Note_on_c, 0, 74, 0
1, 5880, Note_on_c, 0, 70, 81
1, 5903, Note_on_c, 0, 70, 0
1, 5904, Note_on_c, 0, 69, 81
1, 5927, Note_on_c, 0, 69, 0
1, 5928, Note_on_c, 0, 67, 81
1, 5951, Note_on_c, 0, 67, 0
1, 5952, Note_on_c, 0, 65, 81
1, 5975, Note_on_c, 0, 65, 0
1, 5976, Note_on_c, 0, 63, 81
1, 5999, Note_on_c, 0, 63, 0
1, 6000, Note_on_c, 0, 62, 81
1, 6023, Note_on_c, 0, 62, 0
1, 6024, Note_on_c, 0, 60, 81
1, 6047, Note_on_c, 0, 60, 0
1, 6048, Note_on_c, 0, 58, 81
1, 6048, Note_on_c, 1, 46, 81
1, 6048, Note_on_c, 1, 34, 81
1, 6071, Note_on_c, 0, 58, 0
1, 6072, Note_on_c, 0, 58, 81
1, 6095, Note_on_c, 0, 58, 0
1, 6096, Note_on_c, 0, 58, 81
1, 6119, Note_on_c, 0, 58, 0
1, 6120, Note_on_c, 0, 58, 81
1, 6137, Note_on_c, 1, 46, 0
1, 6137, Note_on_c, 1, 34, 0
1, 6143, Note_on_c, 0, 58, 0
1, 6144, Note_on_c, 1, 50, 81
1, 6144, Note_on_c, 1, 38, 81
1, 6168, Note_on_c, 0, 62, 81
1, 6191, Note_on_c, 0, 62, 0
1, 6192, Note_on_c, 0, 62, 81
1, 6215, Note_on_c, 0, 62, 0
1, 6216, Note_on_c, 0, 62, 81
1, 6233, Note_on_c, 1, 50, 0
1, 6233, Note_on_c, 1, 38, 0
1, 6239, Note_on_c, 0, 62, 0
1, 6240, Note_on_c, 1, 53, 81
1, 6240, Note_on_c, 1, 41, 81
1, 6264, Note_on_c, 0, 65, 81
1, 6287, Note_on_c, 0, 65, 0
1, 6288, Note_on_c, 0, 65, 81
1, 6311, Note_on_c, 0, 65, 0
1, 6312, Note_on_c, 0, 65, 81
1, 6329, Note_on_c, 1, 53, 0
1, 6329, Note_on_c, 1, 41, 0
1, 6335, Note_on_c, 0, 65, 0
1, 6336, Note_on_c, 1, 58, 81
1, 6336, Note_on_c, 1, 46, 81
1, 6360, Note_on_c, 0, 70, 81
1, 6383, Note_on_c, 0, 70, 0
1, 6384, Note_on_c, 0, 69, 81
1, 6407, Note_on_c, 0, 69, 0
1, 6408, Note_on_c, 0, 70, 81
1, 6425, Note_on_c, 1, 58, 0
1, 6425, Note_on_c, 1, 46, 0
1, 6431, Note_on_c, 0, 70, 0
1, 6432, Note_on_c, 0, 74, 81
1, 6455, Note_on_c, 0, 74, 0
1, 6456, Note_on_c, 0, 72, 81
1, 6479, Note_on_c, 0, 72, 0
1, 6480, Note_on_c, 0, 70, 81
1, 6503, Note_on_c, 0, 70, 0
1, 6504, Note_on_c, 0, 69, 81
1, 6527, Note_on_c, 0, 69, 0
1, 6528, Note_on_c, 0, 67, 81
1, 6551, Note_on_c, 0, 67, 0
1, 6552, Note_on_c, 0, 65, 81
1, 6575, Note_on_c, 0, 65, 0
1, 6576, Note_on_c, 0, 63, 81
1, 6599, Note_on_c, 0, 63, 0
1, 6600, Note_on_c, 0, 62, 81
1, 6623, Note_on_c, 0, 62, 0
1, 6624, Note_on_c, 0, 60, 81
1, 6624, Note_on_c, 1, 55, 81
1, 6624, Note_on_c, 1, 51, 81
1, 6647, Note_on_c, 0, 60, 0
1, 6648, Note_on_c, 0, 75, 81
1, 6671, Note_on_c, 0, 75, 0
1, 6672, Note_on_c, 0, 74, 81
1, 6695, Note_on_c, 0, 74, 0
1, 6696, Note_on_c, 0, 75, 81
1, 6719, Note_on_c, 0, 75, 0
1, 6720, Note_on_c, 0, 79, 81
1, 6743, Note_on_c, 0, 79, 0
1, 6744, Note_on_c, 0, 77, 81
1, 6767, Note_on_c, 0, 77, 0
1, 6768, Note_on_c, 0, 75, 81
1, 6791, Note_on_c, 0, 75, 0
1, 6792, Note_on_c, 0, 74, 81
1, 6801, Note_on_c, 1, 55, 0
1, 6801, Note_on_c, 1, 51, 0
1, 6815, Note_on_c, 0, 74, 0
1, 6816, Note_on_c, 0, 72, 81
1, 6839, Note_on_c, 0, 72, 0
1, 6840, Note_on_c, 0, 70, 81
1, 6863, Note_on_c, 0, 70, 0
1, 6864, Note_on_c, 0, 69, 81
1, 6887, Note_on_c, 0, 69, 0
1, 6888, Note_on_c, 0, 67, 81
1, 6911, Note_on_c, 0, 67, 0
1, 6912, Note_on_c, 0, 65, 81
1, 6912, Note_on_c, 1, 63, 78
1, 6912, Note_on_c, 1, 60, 78
1, 6912, Note_on_c, 1, 53, 78
1, 6935, Note_on_c, 0, 65, 0
1, 6936, Note_on_c, 0, 69, 80
1, 6959, Note_on_c, 0, 69, 0
1, 6960, Note_on_c, 0, 69, 80
1, 6983, Note_on_c, 0, 69, 0
1, 6984, Note_on_c, 0, 69, 80
1, 7007, Note_on_c, 0, 69, 0
1, 7008, Note_on_c, 0, 72, 80
1, 7031, Note_on_c, 0, 72, 0
1, 7032, Note_on_c, 0, 69, 80
1, 7055, Note_on_c, 0, 69, 0
1, 7056, Note_on_c, 0, 72, 80
1, 7079, Note_on_c, 0, 72, 0
1, 7080, Note_on_c, 0, 69, 79
1, 7089, Note_on_c, 1, 63, 0
1, 7089, Note_on_c, 1, 60, 0
1, 7089, Note_on_c, 1, 53, 0
1, 7103, Note_on_c, 0, 69, 0
1, 7104, Note_on_c, 1, 63, 76
1, 7104, Note_on_c, 1, 60, 76
1, 7104, Note_on_c, 1, 53, 76
1, 7128, Note_on_c, 0, 69, 79
1, 7151, Note_on_c, 0, 69, 0
1, 7152, Note_on_c, 0, 69, 79
1, 7175, Note_on_c, 0, 69, 0
1, 7176, Note_on_c, 0, 69, 79
1, 7193, Note_on_c, 1, 63, 0
1, 7193, Note_on_c, 1, 60, 0
1, 7193, Note_on_c, 1, 53, 0
1, 7199, Note_on_c, 0, 69, 0
1, 7200, Note_on_c, 1, 62, 75
1, 7200, Note_on_c, 1, 58, 75
1, 7200, Note_on_c, 1, 53, 75
1, 7224, Note_on_c, 0, 70, 78
1, 7247, Note_on_c, 0, 70, 0
1, 7248, Note_on_c, 0, 70, 78
1, 7271, Note_on_c, 0, 70, 0
1, 7272, Note_on_c, 0, 70, 78
1, 7295, Note_on_c, 0, 70, 0
1, 7296, Note_on_c, 0, 74, 78
1, 7319, Note_on_c, 0, 74, 0
1, 7320, Note_on_c, 0, 70, 78
1, 7343, Note_on_c, 0, 70, 0
1, 7344, Note_on_c, 0, 74, 78
1, 7367, Note_on_c, 0, 74, 0
1, 7368, Note_on_c, 0, 70, 77
1, 7377, Note_on_c, 1, 62, 0
1, 7377, Note_on_c, 1, 58, 0
1, 7377, Note_on_c, 1, 53, 0
1, 7391, Note_on_c, 0, 70, 0
1, 7392, Note_on_c, 1, 62, 73
1, 7392, Note_on_c, 1, 58, 73
1, 7392, Note_on_c, 1, 53, 73
1, 7416, Note_on_c, 0, 70, 77
1, 7439, Note_on_c, 0, 70, 0
1, 7440, Note_on_c, 0, 70, 77
1, 7463, Note_on_c, 0, 70, 0
1, 7464, Note_on_c, 0, 70, 77
1, 7481, Note_on_c, 1, 62, 0
1, 7481, Note_on_c, 1, 58, 0
1, 7481, Note_on_c, 1, 53, 0
1, 7487, Note_on_c, 0, 70, 0
1, 7488, Note_on_c, 1, 60, 72
1, 7488, Note_on_c, 1, 57, 72
1, 7488, Note_on_c, 1, 53, 72
1, 7512, Note_on_c, 0, 72, 76
1, 7535, Note_on_c, 0, 72, 0
1, 7536, Note_on_c, 0, 72, 76
1, 7559, Note_on_c, 0, 72, 0
1, 7560, Note_on_c, 0, 72, 76
1, 7583, Note_on_c, 0, 72, 0
1, 7584, Note_on_c, 0, 75, 76
1, 7607, Note_on_c, 0, 75, 0
1, 7608, Note_on_c, 0, 72, 76
1, 7631, Note_on_c, 0, 72, 0
1, 7632, Note_on_c, 0, 75, 76
1, 7655, Note_on_c, 0, 75, 0
1, 7656, Note_on_c, 0, 72, 75
1, 7665, Note_on_c, 1, 60, 0
1, 7665, Note_on_c, 1, 57, 0
1, 7665, Note_on_c, 1, 53, 0
1, 7679, Note_on_c, 0, 72, 0
1, 7680, Note_on_c, 1, 60, 70
1, 7680, Note_on_c, 1, 57, 70
1, 7680, Note_on_c, 1, 53, 70
1, 7704, Note_on_c, 0, 72, 75
1, 7727, Note_on_c, 0, 72, 0
1, 7728, Note_on_c, 0, 72, 75
1, 7751, Note_on_c, 0, 72, 0
1, 7752, Note_on_c, 0, 72, 75
1, 7769, Note_on_c, 1, 60, 0
1, 7769, Note_on_c, 1, 57, 0
1, 7769, Note_on_c, 1, 53, 0
1, 7775, Note_on_c, 0, 72, 0
1, 7776, Note_on_c, 0, 70, 75
1, 7799, Note_on_c, 0, 70, 0
1, 7800, Note_on_c, 0, 74, 75
1, 7823, Note_on_c, 0, 74, 0
1, 7824, Note_on_c, 0, 69, 75
1, 7847, Note_on_c, 0, 69, 0
1, 7848, Note_on_c, 0, 72, 75
1, 7871, Note_on_c, 0, 72, 0
1, 7872, Note_on_c, 0, 67, 75
1, 7895, Note_on_c, 0, 67, 0
1, 7896, Note_on_c, 0, 70, 75
1, 7919, Note_on_c, 0, 70, 0
1, 7920, Note_on_c, 0, 65, 75
1, 7943, Note_on_c, 0, 65, 0
1, 7944, Note_on_c, 0, 69, 75
1, 7967, Note_on_c, 0, 69, 0
1, 7968, Note_on_c, 0, 63, 81
1, 7991, Note_on_c, 0, 63, 0
1, 7992, Note_on_c, 0, 67, 79
1, 8015, Note_on_c, 0, 67, 0
1, 8016, Note_on_c, 0, 62, 77
1, 8039, Note_on_c, 0, 62, 0
1, 8040, Note_on_c, 0, 65, 75
1, 8063, Note_on_c, 0, 65, 0
1, 8064, Note_on_c, 0, 70, 73
1, 8087, Note_on_c, 0, 70, 0
1, 8088, Note_on_c, 0, 74, 71
1, 8111, Note_on_c, 0, 74, 0
1, 8112, Note_on_c, 0, 69, 70
1, 8135, Note_on_c, 0, 69, 0
1, 8136, Note_on_c, 0, 72, 70
1, 8159, Note_on_c, 0, 72, 0
1, 8160, Note_on_c, 0, 67, 70
1, 8183, Note_on_c, 0, 67, 0
1, 8184, Note_on_c, 0, 70, 70
1, 8207, Note_on_c, 0, 70, 0
1, 8208, Note_on_c, 0, 65, 70
1, 8231, Note_on_c, 0, 65, 0
1, 8232, Note_on_c, 0, 69, 70
1, 8255, Note_on_c, 0, 69, 0
1, 8256, Note_on_c, 0, 63, 70
1, 8279, Note_on_c, 0, 63, 0
1, 8280, Note_on_c, 0, 67, 70
1, 8303, Note_on_c, 0, 67, 0
1, 8304, Note_on_c, 0, 62, 70
1, 8327, Note_on_c, 0, 62, 0
1, 8328, Note_on_c, 0, 65, 70
1, 8351, Note_on_c, 0, 65, 0
1, 8352, Note_on_c, 1, 63, 75
1, 8376, Note_on_c, 0, 67, 75
1, 8391, Note_on_c, 1, 63, 0
1, 8399, Note_on_c, 0, 67, 0
1, 8400, Note_on_c, 0, 69, 75
1, 8423, Note_on_c, 0, 69, 0
1, 8424, Note_on_c, 0, 71, 75
1, 8447, Note_on_c, 0, 71, 0
1, 8448, Note_on_c, 0, 72, 75
1, 8471, Note_on_c, 0, 72, 0
1, 8472, Note_on_c, 0, 74, 75
1, 8495, Note_on_c, 0, 74, 0
1, 8496, Note_on_c, 0, 75, 75
1, 8519, Note_on_c, 0, 75, 0
1, 8520, Note_on_c, 0, 77, 75
1, 8543, Note_on_c, 0, 77, 0
1, 8544, Note_on_c, 0, 79, 75
1, 8568, Note_on_c, 1, 63, 75
1, 8589, Note_on_c, 0, 79, 0
1, 8591, Note_on_c, 1, 63, 0
1, 8592, Note_on_c, 1, 51, 75
1, 8615, Note_on_c, 1, 51, 0
1, 8616, Note_on_c, 1, 63, 75
1, 8639, Note_on_c, 1, 63, 0
1, 8640, Note_on_c, 1, 50, 75
1, 8664, Note_on_c, 0, 65, 75
1, 8679, Note_on_c, 1, 50, 0
1, 8687, Note_on_c, 0, 65, 0
1, 8688, Note_on_c, 0, 67, 75
1, 8711, Note_on_c, 0, 67, 0
1, 8712, Note_on_c, 0, 69, 75
1, 8735, Note_on_c, 0, 69, 0
1, 8736, Note_on_c, 0, 70, 75
1, 8759, Note_on_c, 0, 70, 0
1, 8760, Note_on_c, 0, 72, 75
1, 8783, Note_on_c, 0, 72, 0
1, 8784, Note_on_c, 0, 74, 75
1, 8807, Note_on_c, 0, 74, 0
1, 8808, Note_on_c, 0, 75, 75
1, 8831, Note_on_c, 0, 75, 0
1, 8832, Note_on_c, 0, 77, 75
1, 8856, Note_on_c, 1, 62, 75
1, 8877, Note_on_c, 0, 77, 0
1, 8879, Note_on_c, 1, 62, 0
1, 8880, Note_on_c, 1, 50, 75
1, 8903, Note_on_c, 1, 50, 0
1, 8904, Note_on_c, 1, 62, 75
1, 8927, Note_on_c, 1, 62, 0
1, 8928, Note_on_c, 1, 51, 75
1, 8952, Note_on_c, 0, 67, 70
1, 8967, Note_on_c, 1, 51, 0
1, 8975, Note_on_c, 0, 67, 0
1, 8976, Note_on_c, 0, 69, 70
1, 8999, Note_on_c, 0, 69, 0
1, 9000, Note_on_c, 0, 71, 70
1, 9023, Note_on_c, 0, 71, 0
1, 9024, Note_on_c, 0, 72, 70
1, 9047, Note_on_c, 0, 72, 0
1, 9048, Note_on_c, 0, 74, 70
1, 9071, Note_on_c, 0, 74, 0
1, 9072, Note_on_c, 0, 75, 70
1, 9095, Note_on_c, 0, 75, 0
1, 9096, Note_on_c, 0, 77, 70
1, 9119, Note_on_c, 0, 77, 0
1, 9120, Note_on_c, 0, 79, 70
1, 9144, Note_on_c, 1, 63, 70
1, 9165, Note_on_c, 0, 79, 0
1, 9167, Note_on_c, 1, 63, 0
1, 9168, Note_on_c, 1, 51, 70
1, 9191, Note_on_c, 1, 51, 0
1, 9192, Note_on_c, 1, 63, 70
1, 9215, Note_on_c, 1, 63, 0
1, 9216, Note_on_c, 1, 51, 70
1, 9240, Note_on_c, 0, 65, 70
1, 9255, Note_on_c, 1, 51, 0
1, 9263, Note_on_c, 0, 65, 0
1, 9264, Note_on_c, 0, 67, 70
1, 9287, Note_on_c, 0, 67, 0
1, 9288, Note_on_c, 0, 69, 70
1, 9311, Note_on_c, 0, 69, 0
1, 9312, Note_on_c, 0, 70, 70
1, 9335, Note_on_c, 0, 70, 0
1, 9336, Note_on_c, 0, 72, 70
1, 9359, Note_on_c, 0, 72, 0
1, 9360, Note_on_c, 0, 74, 70
1, 9383, Note_on_c, 0, 74, 0
1, 9384, Note_on_c, 0, 75, 70
1, 9407, Note_on_c, 0, 75, 0
1, 9408, Note_on_c, 0, 77, 70
1, 9431, Note_on_c, 0, 77, 0
1, 9432, Note_on_c, 0, 79, 70
1, 9455, Note_on_c, 0, 79, 0
1, 9456, Note_on_c, 0, 81, 70
1, 9479, Note_on_c, 0, 81, 0
1, 9480, Note_on_c, 0, 82, 70
1, 9492, Note_on_c, 0, 82, 0
1, 9492, Note_on_c, 0, 84, 70
1, 9504, Note_on_c, 0, 84, 0
1, 9504, Note_on_c, 0, 86, 86
1, 9524, Note_on_c, 0, 86, 0
1, 9792, Note_on_c, 0, 72, 75
1, 9792, Note_on_c, 1, 70, 64
1, 9792, Note_on_c, 1, 64, 64
1, 9815, Note_on_c, 0, 72, 0
1, 9816, Note_on_c, 0, 76, 75
1, 9839, Note_on_c, 0, 76, 0
1, 9840, Note_on_c, 0, 79, 75
1, 9863, Note_on_c, 0, 79, 0
1, 9864, Note_on_c, 0, 77, 75
1, 9881, Note_on_c, 1, 70, 0
1, 9881, Note_on_c, 1, 64, 0
1, 9887, Note_on_c, 0, 77, 0
1, 9888, Note_on_c, 0, 76, 75
1, 9911, Note_on_c, 0, 76, 0
1, 9912, Note_on_c, 0, 74, 75
1, 9935, Note_on_c, 0, 74, 0
1, 9936, Note_on_c, 0, 72, 75
1, 9936, Note_on_c, 1, 70, 64
1, 9936, Note_on_c, 1, 64, 64
1, 9959, Note_on_c, 0, 72, 0
1, 9960, Note_on_c, 0, 74, 75
1, 9981, Note_on_c, 1, 70, 0
1, 9981, Note_on_c, 1, 64, 0
1, 9983, Note_on_c, 0, 74, 0
1, 9984, Note_on_c, 0, 72, 75
1, 9984, Note_on_c, 1, 70, 64
1, 9984, Note_on_c, 1, 64, 64
1, 10007, Note_on_c, 0, 72, 0
1, 10008, Note_on_c, 0, 74, 75
1, 10029, Note_on_c, 1, 70, 0
1, 10029, Note_on_c, 1, 64, 0
1, 10031, Note_on_c, 0, 74, 0
1, 10032, Note_on_c, 0, 72, 75
1, 10032, Note_on_c, 1, 70, 64
1, 10032, Note_on_c, 1, 64, 64
1, 10055, Note_on_c, 0, 72, 0
1, 10056, Note_on_c, 0, 74, 75
1, 10077, Note_on_c, 1, 70, 0
1, 10077, Note_on_c, 1, 64, 0
1, 10079, Note_on_c, 0, 74, 0
1, 10080, Note_on_c, 0, 72, 75
1, 10080, Note_on_c, 1, 69, 64
1, 10080, Note_on_c, 1, 65, 64
1, 10103, Note_on_c, 0, 72, 0
1, 10104, Note_on_c, 0, 76, 75
1, 10127, Note_on_c, 0, 76, 0
1, 10128, Note_on_c, 0, 77, 75
1, 10151, Note_on_c, 0, 77, 0
1, 10152, Note_on_c, 0, 76, 75
1, 10169, Note_on_c, 1, 69, 0
1, 10169, Note_on_c, 1, 65, 0
1, 10175, Note_on_c, 0, 76, 0
1, 10176, Note_on_c, 0, 74, 75
1, 10199, Note_on_c, 0, 74, 0
1, 10200, Note_on_c, 0, 72, 75
1, 10223, Note_on_c, 0, 72, 0
1, 10224, Note_on_c, 0, 70, 75
1, 10247, Note_on_c, 0, 70, 0
1, 10248, Note_on_c, 0, 69, 75
1, 10271, Note_on_c, 0, 69, 0
1, 10272, Note_on_c, 0, 67, 75
1, 10295, Note_on_c, 0, 67, 0
1, 10296, Note_on_c, 0, 65, 75
1, 10319, Note_on_c, 0, 65, 0
1, 10320, Note_on_c, 0, 64, 75
1, 10343, Note_on_c, 0, 64, 0
1, 10344, Note_on_c, 0, 62, 75
1, 10367, Note_on_c, 0, 62, 0
1, 10368, Note_on_c, 0, 60, 75
1, 10368, Note_on_c, 1, 58, 64
1, 10368, Note_on_c, 1, 52, 64
1, 10391, Note_on_c, 0, 60, 0
1, 10392, Note_on_c, 0, 64, 75
1, 10415, Note_on_c, 0, 64, 0
1, 10416, Note_on_c, 0, 67, 75
1, 10439, Note_on_c, 0, 67, 0
1, 10440, Note_on_c, 0, 65, 75
1, 10457, Note_on_c, 1, 58, 0
1, 10457, Note_on_c, 1, 52, 0
1, 10463, Note_on_c, 0, 65, 0
1, 10464, Note_on_c, 0, 64, 75
1, 10487, Note_on_c, 0, 64, 0
1, 10488, Note_on_c, 0, 62, 75
1, 10511, Note_on_c, 0, 62, 0
1, 10512, Note_on_c, 0, 60, 75
1, 10512, Note_on_c, 1, 58, 64
1, 10512, Note_on_c, 1, 52, 64
1, 10535, Note_on_c, 0, 60, 0
1, 10536, Note_on_c, 0, 62, 75
1, 10557, Note_on_c, 1, 58, 0
1, 10557, Note_on_c, 1, 52, 0
1, 10559, Note_on_c, 0, 62, 0
1, 10560, Note_on_c, 0, 60, 75
1, 10560, Note_on_c, 1, 58, 64
1, 10560, Note_on_c, 1, 52, 64
1, 10583, Note_on_c, 0, 60, 0
1, 10584, Note_on_c, 0, 62, 75
1, 10605, Note_on_c, 1, 58, 0
1, 10605, Note_on_c, 1, 52, 0
1, 10607, Note_on_c, 0, 62, 0
1, 10608, Note_on_c, 0, 60, 75
1, 10608, Note_on_c, 1, 58, 64
1, 10608, Note_on_c, 1, 52, 64
1, 10631, Note_on_c, 0, 60, 0
1, 10632, Note_on_c, 0, 62, 75
1, 10653, Note_on_c, 1, 58, 0
1, 10653, Note_on_c, 1, 52, 0
1, 10655, Note_on_c, 0, 62, 0
1, 10656, Note_on_c, 0, 60, 75
1, 10656, Note_on_c, 1, 57, 64
1, 10656, Note_on_c, 1, 53, 64
1, 10679, Note_on_c, 0, 60, 0
1, 10680, Note_on_c, 0, 65, 75
1, 10703, Note_on_c, 0, 65, 0
1, 10704, Note_on_c, 0, 64, 75
1, 10727, Note_on_c, 0, 64, 0
1, 10728, Note_on_c, 0, 62, 75
1, 10745, Note_on_c, 1, 57, 0
1, 10745, Note_on_c, 1, 53, 0
1, 10751, Note_on_c, 0, 62, 0
1, 10752, Note_on_c, 0, 60, 75
1, 10775, Note_on_c, 0, 60, 0
1, 10776, Note_on_c, 0, 58, 75
1, 10799, Note_on_c, 0, 58, 0
1, 10800, Note_on_c, 0, 57, 75
1, 10823, Note_on_c, 0, 57, 0
1, 10824, Note_on_c, 0, 55, 75
1, 10847, Note_on_c, 0, 55, 0
1, 10848, Note_on_c, 0, 53, 75
1, 10871, Note_on_c, 0, 53, 0
1, 10872, Note_on_c, 0, 55, 75
1, 10895, Note_on_c, 0, 55, 0
1, 10896, Note_on_c, 0, 57, 75
1, 10919, Note_on_c, 0, 57, 0
1, 10920, Note_on_c, 0, 58, 75
1, 10943, Note_on_c, 0, 58, 0
1, 10944, Note_on_c, 0, 60, 75
1, 10944, Note_on_c, 1, 41, 75
1, 10944, Note_on_c, 1, 29, 75
1, 10967, Note_on_c, 0, 60, 0
1, 10968, Note_on_c, 0, 57, 75
1, 10991, Note_on_c, 0, 57, 0
1, 10992, Note_on_c, 0, 60, 75
1, 11015, Note_on_c, 0, 60, 0
1, 11016, Note_on_c, 0, 62, 75
1, 11033, Note_on_c, 1, 41, 0
1, 11033, Note_on_c, 1, 29, 0
1, 11039, Note_on_c, 0, 62, 0
1, 11040, Note_on_c, 0, 63, 75
1, 11063, Note_on_c, 0, 63, 0
1, 11064, Note_on_c, 0, 60, 75
1, 11087, Note_on_c, 0, 60, 0
1, 11088, Note_on_c, 0, 72, 75
1, 11088, Note_on_c, 1, 53, 75
1, 11111, Note_on_c, 0, 72, 0
1, 11112, Note_on_c, 0, 70, 75
1, 11133, Note_on_c, 1, 53, 0
1, 11135, Note_on_c, 0, 70, 0
1, 11136, Note_on_c, 0, 69, 75
1, 11136, Note_on_c, 1, 55, 75
1, 11159, Note_on_c, 0, 69, 0
1, 11160, Note_on_c, 0, 67, 75
1, 11181, Note_on_c, 1, 55, 0
1, 11183, Note_on_c, 0, 67, 0
1, 11184, Note_on_c, 0, 65, 75
1, 11184, Note_on_c, 1, 57, 75
1, 11207, Note_on_c, 0, 65, 0
1, 11208, Note_on_c, 0, 63, 75
1, 11229, Note_on_c, 1, 57, 0
1, 11231, Note_on_c, 0, 63, 0
1, 11232, Note_on_c, 0, 62, 75
1, 11232, Note_on_c, 1, 58, 75
1, 11255, Note_on_c, 0, 62, 0
1, 11256, Note_on_c, 0, 65, 75
1, 11271, Note_on_c, 1, 58, 0
1, 11279, Note_on_c, 0, 65, 0
1, 11280, Note_on_c, 0, 63, 75
1, 11303, Note_on_c, 0, 63, 0
1, 11304, Note_on_c, 0, 62, 75
1, 11327, Note_on_c, 0, 62, 0
1, 11328, Note_on_c, 0, 63, 75
1, 11328, Note_on_c, 1, 60, 75
1, 11351, Note_on_c, 0, 63, 0
1, 11352, Note_on_c, 0, 65, 75
1, 11367, Note_on_c, 1, 60, 0
1, 11375, Note_on_c, 0, 65, 0
1, 11376, Note_on_c, 0, 67, 75
1, 11399, Note_on_c, 0, 67, 0
1, 11400, Note_on_c, 0, 69, 75
1, 11423, Note_on_c, 0, 69, 0
1, 11424, Note_on_c, 0, 70, 75
1, 11424, Note_on_c, 1, 62, 75
1, 11447, Note_on_c, 0, 70, 0
1, 11448, Note_on_c, 0, 72, 75
1, 11463, Note_on_c, 1, 62, 0
1, 11471, Note_on_c, 0, 72, 0
1, 11472, Note_on_c, 0, 74, 75
1, 11495, Note_on_c, 0, 74, 0
1, 11496, Note_on_c, 0, 70, 75
1, 11519, Note_on_c, 0, 70, 0
1, 11520, Note_on_c, 0, 69, 75
1, 11520, Note_on_c, 1, 63, 75
1, 11520, Note_on_c, 1, 51, 64
1, 11543, Note_on_c, 0, 69, 0
1, 11544, Note_on_c, 0, 67, 75
1, 11567, Note_on_c, 0, 67, 0
1, 11568, Note_on_c, 0, 75, 75
1, 11591, Note_on_c, 0, 75, 0
1, 11592, Note_on_c, 0, 72, 75
1, 11609, Note_on_c, 1, 63, 0
1, 11609, Note_on_c, 1, 51, 0
1, 11615, Note_on_c, 0, 72, 0
1, 11616, Note_on_c, 0, 70, 75
1, 11616, Note_on_c, 1, 62, 75
1, 11616, Note_on_c, 1, 53, 64
1, 11705, Note_on_c, 0, 70, 0
1, 11705, Note_on_c, 1, 62, 0
1, 11712, Note_on_c, 0, 69, 75
1, 11712, Note_on_c, 1, 60, 75
1, 11725, Note_on_c, 0, 69, 0
1, 11726, Note_on_c, 0, 70, 75
1, 11739, Note_on_c, 0, 70, 0
1, 11740, Note_on_c, 0, 69, 75
1, 11753, Note_on_c, 0, 69, 0
1, 11754, Note_on_c, 0, 70, 75
1, 11767, Note_on_c, 0, 70, 0
1, 11768, Note_on_c, 0, 69, 75
1, 11781, Note_on_c, 0, 69, 0
1, 11782, Note_on_c, 0, 67, 75
1, 11793, Note_on_c, 1, 53, 0
1, 11794, Note_on_c, 0, 67, 0
1, 11795, Note_on_c, 0, 69, 75
1, 11801, Note_on_c, 1, 60, 0
1, 11807, Note_on_c, 0, 69, 0
1, 11808, Note_on_c, 0, 62, 75
1, 11808, Note_on_c, 1, 58, 75
1, 11831, Note_on_c, 0, 62, 0
1, 11832, Note_on_c, 0, 65, 75
1, 11847, Note_on_c, 1, 58, 0
1, 11855, Note_on_c, 0, 65, 0
1, 11856, Note_on_c, 0, 63, 75
1, 11879, Note_on_c, 0, 63, 0
1, 11880, Note_on_c, 0, 62, 75
1, 11903, Note_on_c, 0, 62, 0
1, 11904, Note_on_c, 0, 63, 75
1, 11904, Note_on_c, 1, 60, 75
1, 11927, Note_on_c, 0, 63, 0
1, 11928, Note_on_c, 0, 65, 75
1, 11943, Note_on_c, 1, 60, 0
1, 11951, Note_on_c, 0, 65, 0
1, 11952, Note_on_c, 0, 67, 75
1, 11975, Note_on_c, 0, 67, 0
1, 11976, Note_on_c, 0, 69, 75
1, 11999, Note_on_c, 0, 69, 0
1, 12000, Note_on_c, 0, 70, 75
1, 12000, Note_on_c, 1, 62, 75
1, 12023, Note_on_c, 0, 70, 0
1, 12024, Note_on_c, 0, 72, 75
1, 12039, Note_on_c, 1, 62, 0
1, 12047, Note_on_c, 0, 72, 0
1, 12048, Note_on_c, 0, 74, 75
1, 12071, Note_on_c, 0, 74, 0
1, 12072, Note_on_c, 0, 70, 75
1, 12095, Note_on_c, 0, 70, 0
1, 12096, Note_on_c, 0, 69, 75
1, 12096, Note_on_c, 1, 63, 75
1, 12116, Note_on_c, 1, 63, 0
1, 12119, Note_on_c, 0, 69, 0
1, 12120, Note_on_c, 0, 67, 75
1, 12143, Note_on_c, 0, 67, 0
1, 12144, Note_on_c, 0, 75, 75
1, 12144, Note_on_c, 1, 60, 75
1, 12164, Note_on_c, 1, 60, 0
1, 12167, Note_on_c, 0, 75, 0
1, 12168, Note_on_c, 0, 72, 75
1, 12191, Note_on_c, 0, 72, 0
1, 12192, Note_on_c, 0, 70, 75
1, 12192, Note_on_c, 1, 65, 75
1, 12212, Note_on_c, 1, 65, 0
1, 12215, Note_on_c, 0, 70, 0
1, 12216, Note_on_c, 0, 69, 75
1, 12239, Note_on_c, 0, 69, 0
1, 12240, Note_on_c, 0, 77, 75
1, 12240, Note_on_c, 1, 62, 75
1, 12260, Note_on_c, 1, 62, 0
1, 12263, Note_on_c, 0, 77, 0
1, 12264, Note_on_c, 0, 74, 75
1, 12287, Note_on_c, 0, 74, 0
1, 12288, Note_on_c, 0, 72, 75
1, 12288, Note_on_c, 1, 67, 75
1, 12308, Note_on_c, 1, 67, 0
1, 12311, Note_on_c, 0, 72, 0
1, 12312, Note_on_c, 0, 70, 75
1, 12335, Note_on_c, 0, 70, 0
1, 12336, Note_on_c, 0, 79, 75
1, 12336, Note_on_c, 1, 63, 75
1, 12356, Note_on_c, 1, 63, 0
1, 12359, Note_on_c, 0, 79, 0
1, 12360, Note_on_c, 0, 75, 75
1, 12383, Note_on_c, 0, 75, 0
1, 12384, Note_on_c, 0, 74, 75
1, 12384, Note_on_c, 1, 69, 75
1, 12407, Note_on_c, 0, 74, 0
1, 12408, Note_on_c, 0, 72, 75
1, 12431, Note_on_c, 0, 72, 0
1, 12432, Note_on_c, 0, 86, 75
1, 12455, Note_on_c, 0, 86, 0
1, 12456, Note_on_c, 0, 84, 75
1, 12473, Note_on_c, 1, 69, 0
1, 12479, Note_on_c, 0, 84, 0
1, 12480, Note_on_c, 0, 82, 75
1, 12503, Note_on_c, 0, 82, 0
1, 12504, Note_on_c, 0, 81, 75
1, 12527, Note_on_c, 0, 81, 0
1, 12528, Note_on_c, 0, 84, 75
1, 12528, Note_on_c, 1, 53, 75
1, 12551, Note_on_c, 0, 84, 0
1, 12552, Note_on_c, 0, 82, 75
1, 12573, Note_on_c, 1, 53, 0
1, 12575, Note_on_c, 0, 82, 0
1, 12576, Note_on_c, 0, 81, 75
1, 12576, Note_on_c, 1, 55, 75
1, 12599, Note_on_c, 0, 81, 0
1, 12600, Note_on_c, 0, 79, 75
1, 12621, Note_on_c, 1, 55, 0
1, 12623, Note_on_c, 0, 79, 0
1, 12624, Note_on_c, 0, 77, 75
1, 12624, Note_on_c, 1, 57, 75
1, 12647, Note_on_c, 0, 77, 0
1, 12648, Note_on_c, 0, 75, 75
1, 12669, Note_on_c, 1, 57, 0
1, 12671, Note_on_c, 0, 75, 0
1, 12672, Note_on_c, 0, 74, 75
1, 12672, Note_on_c, 1, 58, 75
1, 12695, Note_on_c, 0, 74, 0
1, 12696, Note_on_c, 0, 77, 75
1, 12711, Note_on_c, 1, 58, 0
1, 12719, Note_on_c, 0, 77, 0
1, 12720, Note_on_c, 0, 75, 75
1, 12743, Note_on_c, 0, 75, 0
1, 12744, Note_on_c, 0, 74, 75
1, 12767, Note_on_c, 0, 74, 0
1, 12768, Note_on_c, 0, 75, 75
1, 12768, Note_on_c, 1, 60, 75
1, 12791, Note_on_c, 0, 75, 0
1, 12792, Note_on_c, 0, 77, 75
1, 12807, Note_on_c, 1, 60, 0
1, 12815, Note_on_c, 0, 77, 0
1, 12816, Note_on_c, 0, 79, 75
1, 12839, Note_on_c, 0, 79, 0
1, 12840, Note_on_c, 0, 81, 75
1, 12863, Note_on_c, 0, 81, 0
1, 12864, Note_on_c, 0, 82, 75
1, 12864, Note_on_c, 1, 62, 75
1, 12887, Note_on_c, 0, 82, 0
1, 12888, Note_on_c, 0, 77, 75
1, 12903, Note_on_c, 1, 62, 0
1, 12911, Note_on_c, 0, 77, 0
1, 12912, Note_on_c, 0, 75, 75
1, 12935, Note_on_c, 0, 75, 0
1, 12936, Note_on_c, 0, 74, 75
1, 12959, Note_on_c, 0, 74, 0
1, 12960, Note_on_c, 0, 72, 75
1, 12960, Note_on_c, 1, 63, 75
1, 12960, Note_on_c, 1, 51, 64
1, 12983, Note_on_c, 0, 72, 0
1, 12984, Note_on_c, 0, 79, 75
1, 13007, Note_on_c, 0, 79, 0
1, 13008, Note_on_c, 0, 75, 75
1, 13031, Note_on_c, 0, 75, 0
1, 13032, Note_on_c, 0, 72, 75
1, 13049, Note_on_c, 1, 63, 0
1, 13049, Note_on_c, 1, 51, 0
1, 13055, Note_on_c, 0, 72, 0
1, 13056, Note_on_c, 0, 70, 75
1, 13056, Note_on_c, 1, 62, 75
1, 13056, Note_on_c, 1, 53, 64
1, 13145, Note_on_c, 0, 70, 0
1, 13145, Note_on_c, 1, 62, 0
1, 13152, Note_on_c, 0, 69, 75
1, 13152, Note_on_c, 1, 60, 75
1, 13165, Note_on_c, 0, 69, 0
1, 13166, Note_on_c, 0, 70, 75
1, 13179, Note_on_c, 0, 70, 0
1, 13180, Note_on_c, 0, 69, 75
1, 13193, Note_on_c, 0, 69, 0
1, 13194, Note_on_c, 0, 70, 75
1, 13207, Note_on_c, 0, 70, 0
1, 13208, Note_on_c, 0, 69, 75
1, 13221, Note_on_c, 0, 69, 0
1, 13222, Note_on_c, 0, 67, 75
1, 13233, Note_on_c, 1, 53, 0
1, 13234, Note_on_c, 0, 67, 0
1, 13235, Note_on_c, 0, 69, 75
1, 13241, Note_on_c, 1, 60, 0
1, 13247, Note_on_c, 0, 69, 0
1, 13248, Note_on_c, 0, 70, 75
1, 13248, Note_on_c, 1, 58, 75
1, 13268, Note_on_c, 0, 70, 0
1, 13287, Note_on_c, 1, 58, 0
1, 13296, Note_on_c, 0, 65, 75
1, 13296, Note_on_c, 0, 62, 75
1, 13319, Note_on_c, 0, 65, 0
1, 13319, Note_on_c, 0, 62, 0
1, 13320, Note_on_c, 0, 67, 75
1, 13320, Note_on_c, 0, 63, 75
1, 13343, Note_on_c, 0, 67, 0
1, 13343, Note_on_c, 0, 63, 0
1, 13344, Note_on_c, 0, 65, 75
1, 13344, Note_on_c, 0, 62, 75
1, 13389, Note_on_c, 0, 65, 0
1, 13389, Note_on_c, 0, 62, 0
1, 13392, Note_on_c, 0, 63, 74
1, 13392, Note_on_c, 0, 60, 74
1, 13437, Note_on_c, 0, 63, 0
1, 13437, Note_on_c, 0, 60, 0
1, 13440, Note_on_c, 0, 62, 73
1, 13440, Note_on_c, 0, 58, 73
1, 13485, Note_on_c, 0, 62, 0
1, 13485, Note_on_c, 0, 58, 0
1, 13488, Note_on_c, 0, 60, 72
1, 13488, Note_on_c, 0, 57, 72
1, 13533, Note_on_c, 0, 60, 0
1, 13533, Note_on_c, 0, 57, 0
1, 13536, Note_on_c, 0, 62, 71
1, 13536, Note_on_c, 0, 58, 71
1, 13536, Note_on_c, 1, 46, 64
1, 13556, Note_on_c, 0, 62, 0
1, 13556, Note_on_c, 0, 58, 0
1, 13584, Note_on_c, 0, 62, 70
1, 13584, Note_on_c, 1, 53, 64
1, 13607, Note_on_c, 0, 62, 0
1, 13607, Note_on_c, 1, 53, 0
1, 13608, Note_on_c, 0, 63, 70
1, 13608, Note_on_c, 1, 55, 64
1, 13631, Note_on_c, 0, 63, 0
1, 13631, Note_on_c, 1, 55, 0
1, 13632, Note_on_c, 0, 62, 70
1, 13632, Note_on_c, 1, 53, 64
1, 13677, Note_on_c, 0, 62, 0
1, 13677, Note_on_c, 1, 53, 0
1, 13680, Note_on_c, 0, 60, 70
1, 13680, Note_on_c, 1, 51, 64
1, 13725, Note_on_c, 0, 60, 0
1, 13725, Note_on_c, 1, 51, 0
1, 13728, Note_on_c, 0, 58, 70
1, 13728, Note_on_c, 1, 50, 64
1, 13773, Note_on_c, 0, 58, 0
1, 13773, Note_on_c, 1, 50, 0
1, 13776, Note_on_c, 0, 57, 70
1, 13776, Note_on_c, 1, 48, 64
1, 13801, Note_on_c, 1, 46, 0
1, 13821, Note_on_c, 0, 57, 0
1, 13821, Note_on_c, 1, 48, 0
1, 13824, Note_on_c, 0, 57, 70
1, 13824, Note_on_c, 1, 51, 64
1, 13824, Note_on_c, 1, 48, 64
1, 14016, Note_on_c, 0, 57, 0
1, 14016, Note_on_c, 0, 58, 70
1, 14016, Note_on_c, 1, 51, 0
1, 14016, Note_on_c, 1, 50, 64
1, 14016, Note_on_c, 1, 48, 0
1, 14016, Note_on_c, 1, 46, 64
1, 14016, Note_on_c, 1, 34, 64
1, 14089, Note_on_c, 0, 58, 0
1, 14089, Note_on_c, 1, 50, 0
1, 14089, Note_on_c, 1, 46, 0
1, 14089, Note_on_c, 1, 34, 0
1, 14112, Note_on_c, 1, 55, 75
1, 14112, Note_on_c, 1, 51, 75
1, 14160, Note_on_c, 0, 70, 75
1, 14205, Note_on_c, 0, 70, 0
1, 14208, Note_on_c, 0, 70, 75
1, 14256, Note_on_c, 0, 70, 0
1, 14256, Note_on_c, 0, 75, 75
1, 14289, Note_on_c, 1, 55, 0
1, 14289, Note_on_c, 1, 51, 0
1, 14301, Note_on_c, 0, 75, 0
1, 14304, Note_on_c, 0, 75, 75
1, 14304, Note_on_c, 1, 67, 75
1, 14352, Note_on_c, 0, 75, 0
1, 14352, Note_on_c, 0, 74, 75
1, 14393, Note_on_c, 1, 67, 0
1, 14397, Note_on_c, 0, 74, 0
1, 14400, Note_on_c, 1, 68, 75
1, 14445, Note_on_c, 1, 68, 0
1, 14448, Note_on_c, 0, 72, 75
1, 14493, Note_on_c, 0, 72, 0
1, 14496, Note_on_c, 1, 67, 75
1, 14541, Note_on_c, 1, 67, 0
1, 14544, Note_on_c, 0, 70, 75
1, 14589, Note_on_c, 0, 70, 0
1, 14592, Note_on_c, 1, 65, 75
1, 14637, Note_on_c, 1, 65, 0
1, 14640, Note_on_c, 0, 68, 75
1, 14685, Note_on_c, 0, 68, 0
1, 14688, Note_on_c, 1, 63, 75
1, 14736, Note_on_c, 0, 67, 75
1, 14781, Note_on_c, 0, 67, 0
1, 14784, Note_on_c, 0, 70, 75
1, 14832, Note_on_c, 0, 70, 0
1, 14832, Note_on_c, 0, 75, 75
1, 14865, Note_on_c, 1, 63, 0
1, 14877, Note_on_c, 0, 75, 0
1, 14880, Note_on_c, 0, 75, 75
1, 14880, Note_on_c, 1, 67, 75
1, 14928, Note_on_c, 0, 75, 0
1, 14928, Note_on_c, 0, 74, 75
1, 14969, Note_on_c, 1, 67, 0
1, 14973, Note_on_c, 0, 74, 0
1, 14976, Note_on_c, 1, 68, 75
1, 15000, Note_on_c, 0, 72, 75
1, 15021, Note_on_c, 1, 68, 0
1, 15023, Note_on_c, 0, 72, 0
1, 15024, Note_on_c, 0, 71, 75
1, 15047, Note_on_c, 0, 71, 0
1, 15048, Note_on_c, 0, 72, 75
1, 15071, Note_on_c, 0, 72, 0
1, 15072, Note_on_c, 1, 67, 75
1, 15096, Note_on_c, 0, 70, 75
1, 15117, Note_on_c, 1, 67, 0
1, 15119, Note_on_c, 0, 70, 0
1, 15120, Note_on_c, 0, 69, 75
1, 15143, Note_on_c, 0, 69, 0
1, 15144, Note_on_c, 0, 70, 75
1, 15167, Note_on_c, 0, 70, 0
1, 15168, Note_on_c, 1, 65, 75
1, 15192, Note_on_c, 0, 68, 75
1, 15213, Note_on_c, 1, 65, 0
1, 15215, Note_on_c, 0, 68, 0
1, 15216, Note_on_c, 0, 67, 75
1, 15239, Note_on_c, 0, 67, 0
1, 15240, Note_on_c, 0, 68, 75
1, 15263, Note_on_c, 0, 68, 0
1, 15264, Note_on_c, 1, 63, 75
1, 15288, Note_on_c, 0, 67, 75
1, 15311, Note_on_c, 0, 67, 0
1, 15312, Note_on_c, 0, 68, 75
1, 15335, Note_on_c, 0, 68, 0
1, 15336, Note_on_c, 0, 70, 75
1, 15353, Note_on_c, 1, 63, 0
1, 15359, Note_on_c, 0, 70, 0
1, 15360, Note_on_c, 0, 72, 75
1, 15383, Note_on_c, 0, 72, 0
1, 15384, Note_on_c, 0, 74, 75
1, 15407, Note_on_c, 0, 74, 0
1, 15408, Note_on_c, 0, 75, 75
1, 15431, Note_on_c, 0, 75, 0
1, 15432, Note_on_c, 0, 77, 75
1, 15455, Note_on_c, 0, 77, 0
1, 15456, Note_on_c, 0, 79, 75
1, 15479, Note_on_c, 0, 79, 0
1, 15480, Note_on_c, 0, 75, 75
1, 15503, Note_on_c, 0, 75, 0
1, 15504, Note_on_c, 0, 74, 75
1, 15527, Note_on_c, 0, 74, 0
1, 15528, Note_on_c, 0, 72, 75
1, 15551, Note_on_c, 0, 72, 0
1, 15552, Note_on_c, 0, 70, 75
1, 15600, Note_on_c, 1, 51, 75
1, 15623, Note_on_c, 1, 51, 0
1, 15624, Note_on_c, 1, 53, 75
1, 15647, Note_on_c, 1, 53, 0
1, 15648, Note_on_c, 1, 55, 75
1, 15693, Note_on_c, 1, 55, 0
1, 15696, Note_on_c, 1, 51, 75
1, 15729, Note_on_c, 0, 70, 0
1, 15741, Note_on_c, 1, 51, 0
1, 15744, Note_on_c, 0, 68, 75
1, 15744, Note_on_c, 1, 53, 75
1, 15757, Note_on_c, 0, 68, 0
1, 15758, Note_on_c, 0, 70, 75
1, 15771, Note_on_c, 0, 70, 0
1, 15772, Note_on_c, 0, 68, 75
1, 15785, Note_on_c, 0, 68, 0
1, 15786, Note_on_c, 0, 70, 75
1, 15789, Note_on_c, 1, 53, 0
1, 15792, Note_on_c, 1, 46, 75
1, 15799, Note_on_c, 0, 70, 0
1, 15800, Note_on_c, 0, 68, 75
1, 15813, Note_on_c, 0, 68, 0
1, 15814, Note_on_c, 0, 67, 75
1, 15826, Note_on_c, 0, 67, 0
1, 15827, Note_on_c, 0, 68, 75
1, 15837, Note_on_c, 1, 46, 0
1, 15839, Note_on_c, 0, 68, 0
1, 15840, Note_on_c, 0, 67, 75
1, 15840, Note_on_c, 1, 51, 75
1, 15863, Note_on_c, 0, 67, 0
1, 15864, Note_on_c, 0, 63, 75
1, 15887, Note_on_c, 0, 63, 0
1, 15888, Note_on_c, 0, 62, 75
1, 15911, Note_on_c, 0, 62, 0
1, 15912, Note_on_c, 0, 63, 75
1, 15929, Note_on_c, 1, 51, 0
1, 15935, Note_on_c, 0, 63, 0
1, 15936, Note_on_c, 0, 65, 75
1, 15959, Note_on_c, 0, 65, 0
1, 15960, Note_on_c, 0, 63, 75
1, 15983, Note_on_c, 0, 63, 0
1, 15984, Note_on_c, 0, 62, 75
1, 16007, Note_on_c, 0, 62, 0
1, 16008, Note_on_c, 0, 63, 75
1, 16031, Note_on_c, 0, 63, 0
1, 16032, Note_on_c, 0, 67, 75
1, 16032, Note_on_c, 1, 43, 75
1, 16055, Note_on_c, 0, 67, 0
1, 16056, Note_on_c, 0, 65, 75
1, 16071, Note_on_c, 1, 43, 0
1, 16079, Note_on_c, 0, 65, 0
1, 16080, Note_on_c, 0, 63, 75
1, 16103, Note_on_c, 0, 63, 0
1, 16104, Note_on_c, 0, 62, 75
1, 16127, Note_on_c, 0, 62, 0
1, 16128, Note_on_c, 0, 60, 75
1, 16128, Note_on_c, 1, 44, 75
1, 16151, Note_on_c, 0, 60, 0
1, 16152, Note_on_c, 0, 68, 75
1, 16167, Note_on_c, 1, 44, 0
1, 16175, Note_on_c, 0, 68, 0
1, 16176, Note_on_c, 0, 72, 75
1, 16199, Note_on_c, 0, 72, 0
1, 16200, Note_on_c, 0, 70, 75
1, 16223, Note_on_c, 0, 70, 0
1, 16224, Note_on_c, 0, 68, 75
1, 16247, Note_on_c, 0, 68, 0
1, 16248, Note_on_c, 0, 67, 75
1, 16271, Note_on_c, 0, 67, 0
1, 16272, Note_on_c, 0, 65, 75
1, 16295, Note_on_c, 0, 65, 0
1, 16296, Note_on_c, 0, 63, 75
1, 16319, Note_on_c, 0, 63, 0
1, 16320, Note_on_c, 0, 62, 75
1, 16320, Note_on_c, 1, 46, 75
1, 16343, Note_on_c, 0, 62, 0
1, 16344, Note_on_c, 0, 60, 75
1, 16359, Note_on_c, 1, 46, 0
1, 16367, Note_on_c, 0, 60, 0
1, 16368, Note_on_c, 0, 58, 75
1, 16391, Note_on_c, 0, 58, 0
1, 16392, Note_on_c, 0, 56, 75
1, 16415, Note_on_c, 0, 56, 0
1, 16416, Note_on_c, 0, 55, 75
1, 16416, Note_on_c, 1, 51, 75
1, 16439, Note_on_c, 0, 55, 0
1, 16440, Note_on_c, 0, 63, 75
1, 16455, Note_on_c, 1, 51, 0
1, 16463, Note_on_c, 0, 63, 0
1, 16464, Note_on_c, 0, 62, 75
1, 16487, Note_on_c, 0, 62, 0
1, 16488, Note_on_c, 0, 63, 75
1, 16511, Note_on_c, 0, 63, 0
1, 16512, Note_on_c, 0, 65, 75
1, 16535, Note_on_c, 0, 65, 0
1, 16536, Note_on_c, 0, 63, 75
1, 16559, Note_on_c, 0, 63, 0
1, 16560, Note_on_c, 0, 62, 75
1, 16583, Note_on_c, 0, 62, 0
1, 16584, Note_on_c, 0, 63, 75
1, 16607, Note_on_c, 0, 63, 0
1, 16608, Note_on_c, 0, 67, 75
1, 16608, Note_on_c, 1, 43, 75
1, 16631, Note_on_c, 0, 67, 0
1, 16632, Note_on_c, 0, 65, 75
1, 16647, Note_on_c, 1, 43, 0
1, 16655, Note_on_c, 0, 65, 0
1, 16656, Note_on_c, 0, 63, 75
1, 16679, Note_on_c, 0, 63, 0
1, 16680, Note_on_c, 0, 62, 75
1, 16703, Note_on_c, 0, 62, 0
1, 16704, Note_on_c, 0, 60, 75
1, 16704, Note_on_c, 1, 44, 75
1, 16727, Note_on_c, 0, 60, 0
1, 16728, Note_on_c, 0, 68, 75
1, 16743, Note_on_c, 1, 44, 0
1, 16751, Note_on_c, 0, 68, 0
1, 16752, Note_on_c, 0, 72, 75
1, 16775, Note_on_c, 0, 72, 0
1, 16776, Note_on_c, 0, 70, 75
1, 16799, Note_on_c, 0, 70, 0
1, 16800, Note_on_c, 0, 68, 75
1, 16823, Note_on_c, 0, 68, 0
1, 16824, Note_on_c, 0, 67, 75
1, 16847, Note_on_c, 0, 67, 0
1, 16848, Note_on_c, 0, 65, 75
1, 16871, Note_on_c, 0, 65, 0
1, 16872, Note_on_c, 0, 63, 75
1, 16895, Note_on_c, 0, 63, 0
1, 16896, Note_on_c, 0, 62, 75
1, 16896, Note_on_c, 1, 46, 75
1, 16919, Note_on_c, 0, 62, 0
1, 16920, Note_on_c, 0, 60, 75
1, 16935, Note_on_c, 1, 46, 0
1, 16943, Note_on_c, 0, 60, 0
1, 16944, Note_on_c, 0, 58, 75
1, 16967, Note_on_c, 0, 58, 0
1, 16968, Note_on_c, 0, 56, 75
1, 16991, Note_on_c, 0, 56, 0
1, 16992, Note_on_c, 0, 55, 75
1, 17016, Note_on_c, 1, 51, 75
1, 17037, Note_on_c, 0, 55, 0
1, 17039, Note_on_c, 1, 51, 0
1, 17040, Note_on_c, 1, 53, 75
1, 17063, Note_on_c, 1, 53, 0
1, 17064, Note_on_c, 1, 55, 75
1, 17087, Note_on_c, 1, 55, 0
1, 17088, Note_on_c, 1, 56, 75
1, 17111, Note_on_c, 1, 56, 0
1, 17112, Note_on_c, 1, 58, 75
1, 17135, Note_on_c, 1, 58, 0
1, 17136, Note_on_c, 1, 60, 75
1, 17159, Note_on_c, 1, 60, 0
1, 17160, Note_on_c, 1, 62, 75
1, 17183, Note_on_c, 1, 62, 0
1, 17184, Note_on_c, 1, 63, 75
1, 17207, Note_on_c, 1, 63, 0
1, 17208, Note_on_c, 1, 65, 75
1, 17231, Note_on_c, 1, 65, 0
1, 17232, Note_on_c, 1, 67, 75
1, 17255, Note_on_c, 1, 67, 0
1, 17256, Note_on_c, 1, 65, 75
1, 17279, Note_on_c, 1, 65, 0
1, 17280, Note_on_c, 1, 63, 75
1, 17328, Note_on_c, 0, 67, 75
1, 17369, Note_on_c, 1, 63, 0
1, 17376, Note_on_c, 0, 67, 0
1, 17376, Note_on_c, 0, 79, 75
1, 17421, Note_on_c, 0, 79, 0
1, 17424, Note_on_c, 0, 79, 75
1, 17469, Note_on_c, 0, 79, 0
1, 17472, Note_on_c, 0, 71, 75
1, 17472, Note_on_c, 1, 63, 75
1, 17520, Note_on_c, 0, 71, 0
1, 17520, Note_on_c, 0, 72, 75
1, 17561, Note_on_c, 1, 63, 0
1, 17565, Note_on_c, 0, 72, 0
1, 17568, Note_on_c, 1, 62, 75
1, 17616, Note_on_c, 0, 65, 75
1, 17657, Note_on_c, 1, 62, 0
1, 17664, Note_on_c, 0, 65, 0
1, 17664, Note_on_c, 0, 77, 75
1, 17709, Note_on_c, 0, 77, 0
1, 17712, Note_on_c, 0, 77, 75
1, 17757, Note_on_c, 0, 77, 0
1, 17760, Note_on_c, 0, 69, 75
1, 17760, Note_on_c, 1, 62, 75
1, 17808, Note_on_c, 0, 69, 0
1, 17808, Note_on_c, 0, 70, 75
1, 17849, Note_on_c, 1, 62, 0
1, 17853, Note_on_c, 0, 70, 0
1, 17856, Note_on_c, 1, 63, 75
1, 17880, Note_on_c, 0, 67, 75
1, 17903, Note_on_c, 0, 67, 0
1, 17904, Note_on_c, 0, 74, 75
1, 17927, Note_on_c, 0, 74, 0
1, 17928, Note_on_c, 0, 71, 75
1, 17945, Note_on_c, 1, 63, 0
1, 17951, Note_on_c, 0, 71, 0
1, 17952, Note_on_c, 1, 72, 81
1, 17976, Note_on_c, 0, 67, 75
1, 17991, Note_on_c, 1, 72, 0
1, 17999, Note_on_c, 0, 67, 0
1, 18000, Note_on_c, 0, 75, 75
1, 18023, Note_on_c, 0, 75, 0
1, 18024, Note_on_c, 0, 72, 75
1, 18047, Note_on_c, 0, 72, 0
1, 18048, Note_on_c, 1, 63, 81
1, 18072, Note_on_c, 0, 67, 75
1, 18095, Note_on_c, 0, 67, 0
1, 18096, Note_on_c, 0, 79, 75
1, 18119, Note_on_c, 0, 79, 0
1, 18120, Note_on_c, 0, 75, 75
1, 18137, Note_on_c, 1, 63, 0
1, 18143, Note_on_c, 0, 75, 0
1, 18144, Note_on_c, 1, 62, 81
1, 18168, Note_on_c, 0, 65, 75
1, 18191, Note_on_c, 0, 65, 0
1, 18192, Note_on_c, 0, 72, 75
1, 18215, Note_on_c, 0, 72, 0
1, 18216, Note_on_c, 0, 69, 75
1, 18233, Note_on_c, 1, 62, 0
1, 18239, Note_on_c, 0, 69, 0
1, 18240, Note_on_c, 1, 70, 81
1, 18264, Note_on_c, 0, 65, 75
1, 18287, Note_on_c, 0, 65, 0
1, 18288, Note_on_c, 0, 74, 75
1, 18311, Note_on_c, 0, 74, 0
1, 18312, Note_on_c, 0, 70, 75
1, 18329, Note_on_c, 1, 70, 0
1, 18335, Note_on_c, 0, 70, 0
1, 18336, Note_on_c, 1, 62, 81
1, 18360, Note_on_c, 0, 65, 75
1, 18375, Note_on_c, 1, 62, 0
1, 18383, Note_on_c, 0, 65, 0
1, 18384, Note_on_c, 0, 77, 75
1, 18407, Note_on_c, 0, 77, 0
1, 18408, Note_on_c, 0, 74, 75
1, 18431, Note_on_c, 0, 74, 0
1, 18432, Note_on_c, 1, 57, 81
1, 18456, Note_on_c, 0, 65, 75
1, 18471, Note_on_c, 1, 57, 0
1, 18479, Note_on_c, 0, 65, 0
1, 18480, Note_on_c, 0, 72, 75
1, 18503, Note_on_c, 0, 72, 0
1, 18504, Note_on_c, 0, 75, 75
1, 18527, Note_on_c, 0, 75, 0
1, 18528, Note_on_c, 1, 69, 81
1, 18552, Note_on_c, 0, 65, 75
1, 18567, Note_on_c, 1, 69, 0
1, 18575, Note_on_c, 0, 65, 0
1, 18576, Note_on_c, 0, 72, 75
1, 18599, Note_on_c, 0, 72, 0
1, 18600, Note_on_c, 0, 75, 75
1, 18623, Note_on_c, 0, 75, 0
1, 18624, Note_on_c, 1, 70, 81
1, 18648, Note_on_c, 0, 65, 75
1, 18663, Note_on_c, 1, 70, 0
1, 18671, Note_on_c, 0, 65, 0
1, 18672, Note_on_c, 0, 70, 75
1, 18695, Note_on_c, 0, 70, 0
1, 18696, Note_on_c, 0, 74, 75
1, 18719, Note_on_c, 0, 74, 0
1, 18720, Note_on_c, 1, 57, 81
1, 18744, Note_on_c, 0, 65, 75
1, 18759, Note_on_c, 1, 57, 0
1, 18767, Note_on_c, 0, 65, 0
1, 18768, Note_on_c, 0, 72, 75
1, 18791, Note_on_c, 0, 72, 0
1, 18792, Note_on_c, 0, 75, 75
1, 18815, Note_on_c, 0, 75, 0
1, 18816, Note_on_c, 1, 69, 81
1, 18840, Note_on_c, 0, 65, 75
1, 18855, Note_on_c, 1, 69, 0
1, 18863, Note_on_c, 0, 65, 0
1, 18864, Note_on_c, 0, 72, 75
1, 18887, Note_on_c, 0, 72, 0
1, 18888, Note_on_c, 0, 75, 75
1, 18911, Note_on_c, 0, 75, 0
1, 18912, Note_on_c, 1, 70, 81
1, 18936, Note_on_c, 0, 65, 75
1, 18951, Note_on_c, 1, 70, 0
1, 18959, Note_on_c, 0, 65, 0
1, 18960, Note_on_c, 0, 70, 75
1, 18983, Note_on_c, 0, 70, 0
1, 18984, Note_on_c, 0, 74, 75
1, 19007, Note_on_c, 0, 74, 0
1, 19008, Note_on_c, 1, 57, 81
1, 19032, Note_on_c, 0, 65, 75
1, 19047, Note_on_c, 1, 57, 0
1, 19055, Note_on_c, 0, 65, 0
1, 19056, Note_on_c, 0, 72, 75
1, 19079, Note_on_c, 0, 72, 0
1, 19080, Note_on_c, 0, 75, 75
1, 19103, Note_on_c, 0, 75, 0
1, 19104, Note_on_c, 1, 69, 81
1, 19128, Note_on_c, 0, 65, 75
1, 19143, Note_on_c, 1, 69, 0
1, 19151, Note_on_c, 0, 65, 0
1, 19152, Note_on_c, 0, 72, 75
1, 19175, Note_on_c, 0, 72, 0
1, 19176, Note_on_c, 0, 75, 75
1, 19199, Note_on_c, 0, 75, 0
1, 19200, Note_on_c, 1, 70, 81
1, 19224, Note_on_c, 0, 65, 75
1, 19239, Note_on_c, 1, 70, 0
1, 19247, Note_on_c, 0, 65, 0
1, 19248, Note_on_c, 0, 74, 75
1, 19271, Note_on_c, 0, 74, 0
1, 19272, Note_on_c, 0, 77, 75
1, 19295, Note_on_c, 0, 77, 0
1, 19296, Note_on_c, 0, 75, 75
1, 19296, Note_on_c, 1, 70, 75
1, 19296, Note_on_c, 1, 65, 64
1, 19311, Note_on_c, 0, 75, 0
1, 19312, Note_on_c, 0, 74, 75
1, 19327, Note_on_c, 0, 74, 0
1, 19328, Note_on_c, 0, 75, 75
1, 19343, Note_on_c, 0, 75, 0
1, 19344, Note_on_c, 0, 74, 75
1, 19359, Note_on_c, 0, 74, 0
1, 19360, Note_on_c, 0, 72, 75
1, 19375, Note_on_c, 0, 72, 0
1, 19376, Note_on_c, 0, 74, 75
1, 19391, Note_on_c, 0, 74, 0
1, 19392, Note_on_c, 0, 72, 75
1, 19392, Note_on_c, 1, 70, 0
1, 19392, Note_on_c, 1, 69, 75
1, 19473, Note_on_c, 1, 65, 0
1, 19481, Note_on_c, 0, 72, 0
1, 19481, Note_on_c, 1, 69, 0
1, 19584, Note_on_c, 1, 46, 81
1, 19584, Note_on_c, 1, 34, 81
1, 19608, Note_on_c, 0, 58, 81
1, 19631, Note_on_c, 0, 58, 0
1, 19632, Note_on_c, 0, 58, 81
1, 19655, Note_on_c, 0, 58, 0
1, 19656, Note_on_c, 0, 58, 81
1, 19673, Note_on_c, 1, 46, 0
1, 19673, Note_on_c, 1, 34, 0
1, 19679, Note_on_c, 0, 58, 0
1, 19680, Note_on_c, 1, 50, 81
1, 19680, Note_on_c, 1, 38, 81
1, 19704, Note_on_c, 0, 62, 81
1, 19727, Note_on_c, 0, 62, 0
1, 19728, Note_on_c, 0, 62, 81
1, 19751, Note_on_c, 0, 62, 0
1, 19752, Note_on_c, 0, 62, 81
1, 19769, Note_on_c, 1, 50, 0
1, 19769, Note_on_c, 1, 38, 0
1, 19775, Note_on_c, 0, 62, 0
1, 19776, Note_on_c, 1, 53, 81
1, 19776, Note_on_c, 1, 41, 81
1, 19800, Note_on_c, 0, 65, 81
1, 19823, Note_on_c, 0, 65, 0
1, 19824, Note_on_c, 0, 65, 81
1, 19847, Note_on_c, 0, 65, 0
1, 19848, Note_on_c, 0, 65, 81
1, 19865, Note_on_c, 1, 53, 0
1, 19865, Note_on_c, 1, 41, 0
1, 19871, Note_on_c, 0, 65, 0
1, 19872, Note_on_c, 1, 58, 81
1, 19872, Note_on_c, 1, 46, 81
1, 19896, Note_on_c, 0, 70, 81
1, 19919, Note_on_c, 0, 70, 0
1, 19920, Note_on_c, 0, 69, 81
1, 19943, Note_on_c, 0, 69, 0
1, 19944, Note_on_c, 0, 70, 81
1, 19961, Note_on_c, 1, 58, 0
1, 19961, Note_on_c, 1, 46, 0
1, 19967, Note_on_c, 0, 70, 0
1, 19968, Note_on_c, 0, 74, 81
1, 19991, Note_on_c, 0, 74, 0
1, 19992, Note_on_c, 0, 70, 81
1, 20015, Note_on_c, 0, 70, 0
1, 20016, Note_on_c, 0, 69, 81
1, 20039, Note_on_c, 0, 69, 0
1, 20040, Note_on_c, 0, 67, 81
1, 20063, Note_on_c, 0, 67, 0
1, 20064, Note_on_c, 0, 65, 81
1, 20087, Note_on_c, 0, 65, 0
1, 20088, Note_on_c, 0, 63, 81
1, 20111, Note_on_c, 0, 63, 0
1, 20112, Note_on_c, 0, 62, 81
1, 20135, Note_on_c, 0, 62, 0
1, 20136, Note_on_c, 0, 60, 81
1, 20159, Note_on_c, 0, 60, 0
1, 20160, Note_on_c, 0, 58, 81
1, 20160, Note_on_c, 1, 46, 81
1, 20160, Note_on_c, 1, 34, 81
1, 20183, Note_on_c, 0, 58, 0
1, 20184, Note_on_c, 0, 58, 81
1, 20207, Note_on_c, 0, 58, 0
1, 20208, Note_on_c, 0, 58, 81
1, 20231, Note_on_c, 0, 58, 0
1, 20232, Note_on_c, 0, 58, 81
1, 20249, Note_on_c, 1, 46, 0
1, 20249, Note_on_c, 1, 34, 0
1, 20255, Note_on_c, 0, 58, 0
1, 20256, Note_on_c, 1, 50, 81
1, 20256, Note_on_c, 1, 38, 81
1, 20280, Note_on_c, 0, 62, 81
1, 20303, Note_on_c, 0, 62, 0
1, 20304, Note_on_c, 0, 62, 81
1, 20327, Note_on_c, 0, 62, 0
1, 20328, Note_on_c, 0, 62, 81
1, 20345, Note_on_c, 1, 50, 0
1, 20345, Note_on_c, 1, 38, 0
1, 20351, Note_on_c, 0, 62, 0
1, 20352, Note_on_c, 1, 53, 81
1, 20352, Note_on_c, 1, 41, 81
1, 20376, Note_on_c, 0, 65, 81
1, 20399, Note_on_c, 0, 65, 0
1, 20400, Note_on_c, 0, 65, 81
1, 20423, Note_on_c, 0, 65, 0
1, 20424, Note_on_c, 0, 65, 81
1, 20441, Note_on_c, 1, 53, 0
1, 20441, Note_on_c, 1, 41, 0
1, 20447, Note_on_c, 0, 65, 0
1, 20448, Note_on_c, 1, 58, 81
1, 20448, Note_on_c, 1, 46, 81
1, 20472, Note_on_c, 0, 70, 81
1, 20495, Note_on_c, 0, 70, 0
1, 20496, Note_on_c, 0, 69, 81
1, 20519, Note_on_c, 0, 69, 0
1, 20520, Note_on_c, 0, 70, 81
1, 20537, Note_on_c, 1, 58, 0
1, 20537, Note_on_c, 1, 46, 0
1, 20543, Note_on_c, 0, 70, 0
1, 20544, Note_on_c, 0, 74, 81
1, 20567, Note_on_c, 0, 74, 0
1, 20568, Note_on_c, 0, 72, 81
1, 20591, Note_on_c, 0, 72, 0
1, 20592, Note_on_c, 0, 70, 81
1, 20615, Note_on_c, 0, 70, 0
1, 20616, Note_on_c, 0, 69, 81
1, 20639, Note_on_c, 0, 69, 0
1, 20640, Note_on_c, 0, 67, 81
1, 20663, Note_on_c, 0, 67, 0
1, 20664, Note_on_c, 0, 65, 81
1, 20687, Note_on_c, 0, 65, 0
1, 20688, Note_on_c, 0, 63, 81
1, 20711, Note_on_c, 0, 63, 0
1, 20712, Note_on_c, 0, 62, 81
1, 20735, Note_on_c, 0, 62, 0
1, 20736, Note_on_c, 0, 60, 81
1, 20736, Note_on_c, 1, 55, 81
1, 20736, Note_on_c, 1, 51, 81
1, 20759, Note_on_c, 0, 60, 0
1, 20760, Note_on_c, 0, 75, 81
1, 20783, Note_on_c, 0, 75, 0
1, 20784, Note_on_c, 0, 74, 81
1, 20807, Note_on_c, 0, 74, 0
1, 20808, Note_on_c, 0, 75, 81
1, 20831, Note_on_c, 0, 75, 0
1, 20832, Note_on_c, 0, 79, 81
1, 20855, Note_on_c, 0, 79, 0
1, 20856, Note_on_c, 0, 77, 81
1, 20879, Note_on_c, 0, 77, 0
1, 20880, Note_on_c, 0, 75, 81
1, 20903, Note_on_c, 0, 75, 0
1, 20904, Note_on_c, 0, 74, 81
1, 20913, Note_on_c, 1, 55, 0
1, 20913, Note_on_c, 1, 51, 0
1, 20927, Note_on_c, 0, 74, 0
1, 20928, Note_on_c, 0, 72, 81
1, 20951, Note_on_c, 0, 72, 0
1, 20952, Note_on_c, 0, 70, 81
1, 20975, Note_on_c, 0, 70, 0
1, 20976, Note_on_c, 0, 69, 81
1, 20999, Note_on_c, 0, 69, 0
1, 21000, Note_on_c, 0, 67, 81
1, 21023, Note_on_c, 0, 67, 0
1, 21024, Note_on_c, 0, 65, 81
1, 21024, Note_on_c, 1, 63, 78
1, 21024, Note_on_c, 1, 60, 78
1, 21024, Note_on_c, 1, 53, 78
1, 21047, Note_on_c, 0, 65, 0
1, 21048, Note_on_c, 0, 69, 80
1, 21071, Note_on_c, 0, 69, 0
1, 21072, Note_on_c, 0, 69, 80
1, 21095, Note_on_c, 0, 69, 0
1, 21096, Note_on_c, 0, 69, 80
1, 21119, Note_on_c, 0, 69, 0
1, 21120, Note_on_c, 0, 72, 80
1, 21143, Note_on_c, 0, 72, 0
1, 21144, Note_on_c, 0, 69, 80
1, 21167, Note_on_c, 0, 69, 0
1, 21168, Note_on_c, 0, 72, 80
1, 21191, Note_on_c, 0, 72, 0
1, 21192, Note_on_c, 0, 69, 79
1, 21201, Note_on_c, 1, 63, 0
1, 21201, Note_on_c, 1, 60, 0
1, 21201, Note_on_c, 1, 53, 0
1, 21215, Note_on_c, 0, 69, 0
1, 21216, Note_on_c, 1, 63, 76
1, 21216, Note_on_c, 1, 60, 76
1, 21216, Note_on_c, 1, 53, 76
1, 21240, Note_on_c, 0, 69, 79
1, 21263, Note_on_c, 0, 69, 0
1, 21264, Note_on_c, 0, 69, 79
1, 21287, Note_on_c, 0, 69, 0
1, 21288, Note_on_c, 0, 69, 79
1, 21305, Note_on_c, 1, 63, 0
1, 21305, Note_on_c, 1, 60, 0
1, 21305, Note_on_c, 1, 53, 0
1, 21311, Note_on_c, 0, 69, 0
1, 21312, Note_on_c, 1, 62, 75
1, 21312, Note_on_c, 1, 58, 75
1, 21312, Note_on_c, 1, 53, 75
1, 21336, Note_on_c, 0, 70, 78
1, 21359, Note_on_c, 0, 70, 0
1, 21360, Note_on_c, 0, 70, 78
1, 21383, Note_on_c, 0, 70, 0
1, 21384, Note_on_c, 0, 70, 78
1, 21407, Note_on_c, 0, 70, 0
1, 21408, Note_on_c, 0, 74, 78
1, 21431, Note_on_c, 0, 74, 0
1, 21432, Note_on_c, 0, 70, 78
1, 21455, Note_on_c, 0, 70, 0
1, 21456, Note_on_c, 0, 74, 78
1, 21479, Note_on_c, 0, 74, 0
1, 21480, Note_on_c, 0, 70, 77
1, 21489, Note_on_c, 1, 62, 0
1, 21489, Note_on_c, 1, 58, 0
1, 21489, Note_on_c, 1, 53, 0
1, 21503, Note_on_c, 0, 70, 0
1, 21504, Note_on_c, 1, 62, 73
1, 21504, Note_on_c, 1, 58, 73
1, 21504, Note_on_c, 1, 53, 73
1, 21528, Note_on_c, 0, 70, 77
1, 21551, Note_on_c, 0, 70, 0
1, 21552, Note_on_c, 0, 70, 77
1, 21575, Note_on_c, 0, 70, 0
1, 21576, Note_on_c, 0, 70, 77
1, 21593, Note_on_c, 1, 62, 0
1, 21593, Note_on_c, 1, 58, 0
1, 21593, Note_on_c, 1, 53, 0
1, 21599, Note_on_c, 0, 70, 0
1, 21600, Note_on_c, 1, 60, 72
1, 21600, Note_on_c, 1, 57, 72
1, 21600, Note_on_c, 1, 53, 72
1, 21624, Note_on_c, 0, 72, 76
1, 21647, Note_on_c, 0, 72, 0
1, 21648, Note_on_c, 0, 72, 76
1, 21671, Note_on_c, 0, 72, 0
1, 21672, Note_on_c, 0, 72, 76
1, 21695, Note_on_c, 0, 72, 0
1, 21696, Note_on_c, 0, 75, 76
1, 21719, Note_on_c, 0, 75, 0
1, 21720, Note_on_c, 0, 72, 76
1, 21743, Note_on_c, 0, 72, 0
1, 21744, Note_on_c, 0, 75, 76
1, 21767, Note_on_c, 0, 75, 0
1, 21768, Note_on_c, 0, 72, 75
1, 21777, Note_on_c, 1, 60, 0
1, 21777, Note_on_c, 1, 57, 0
1, 21777, Note_on_c, 1, 53, 0
1, 21791, Note_on_c, 0, 72, 0
1, 21792, Note_on_c, 1, 60, 70
1, 21792, Note_on_c, 1, 57, 70
1, 21792, Note_on_c, 1, 53, 70
1, 21816, Note_on_c, 0, 72, 75
1, 21839, Note_on_c, 0, 72, 0
1, 21840, Note_on_c, 0, 72, 75
1, 21863, Note_on_c, 0, 72, 0
1, 21864, Note_on_c, 0, 72, 75
1, 21881, Note_on_c, 1, 60, 0
1, 21881, Note_on_c, 1, 57, 0
1, 21881, Note_on_c, 1, 53, 0
1, 21887, Note_on_c, 0, 72, 0
1, 21888, Note_on_c, 0, 70, 75
1, 21911, Note_on_c, 0, 70, 0
1, 21912, Note_on_c, 0, 74, 75
1, 21935, Note_on_c, 0, 74, 0
1, 21936, Note_on_c, 0, 69, 75
1, 21959, Note_on_c, 0, 69, 0
1, 21960, Note_on_c, 0, 72, 75
1, 21983, Note_on_c, 0, 72, 0
1, 21984, Note_on_c, 0, 67, 75
1, 22007, Note_on_c, 0, 67, 0
1, 22008, Note_on_c, 0, 70, 75
1, 22031, Note_on_c, 0, 70, 0
1, 22032, Note_on_c, 0, 65, 75
1, 22055, Note_on_c, 0, 65, 0
1, 22056, Note_on_c, 0, 69, 75
1, 22079, Note_on_c, 0, 69, 0
1, 22080, Note_on_c, 0, 63, 81
1, 22103, Note_on_c, 0, 63, 0
1, 22104, Note_on_c, 0, 67, 79
1, 22127, Note_on_c, 0, 67, 0
1, 22128, Note_on_c, 0, 62, 77
1, 22151, Note_on_c, 0, 62, 0
1, 22152, Note_on_c, 0, 65, 75
1, 22175, Note_on_c, 0, 65, 0
1, 22176, Note_on_c, 0, 70, 73
1, 22199, Note_on_c, 0, 70, 0
1, 22200, Note_on_c, 0, 74, 71
1, 22223, Note_on_c, 0, 74, 0
1, 22224, Note_on_c, 0, 69, 70
1, 22247, Note_on_c, 0, 69, 0
1, 22248, Note_on_c, 0, 72, 70
1, 22271, Note_on_c, 0, 72, 0
1, 22272, Note_on_c, 0, 67, 70
1, 22295, Note_on_c, 0, 67, 0
1, 22296, Note_on_c, 0, 70, 70
1, 22319, Note_on_c, 0, 70, 0
1, 22320, Note_on_c, 0, 65, 70
1, 22343, Note_on_c, 0, 65, 0
1, 22344, Note_on_c, 0, 69, 70
1, 22367, Note_on_c, 0, 69, 0
1, 22368, Note_on_c, 0, 63, 70
1, 22391, Note_on_c, 0, 63, 0
1, 22392, Note_on_c, 0, 67, 70
1, 22415, Note_on_c, 0, 67, 0
1, 22416, Note_on_c, 0, 62, 70
1, 22439, Note_on_c, 0, 62, 0
1, 22440, Note_on_c, 0, 65, 70
1, 22463, Note_on_c, 0, 65, 0
1, 22464, Note_on_c, 1, 63, 75
1, 22488, Note_on_c, 0, 67, 75
1, 22503, Note_on_c, 1, 63, 0
1, 22511, Note_on_c, 0, 67, 0
1, 22512, Note_on_c, 0, 69, 75
1, 22535, Note_on_c, 0, 69, 0
1, 22536, Note_on_c, 0, 71, 75
1, 22559, Note_on_c, 0, 71, 0
1, 22560, Note_on_c, 0, 72, 75
1, 22583, Note_on_c, 0, 72, 0
1, 22584, Note_on_c, 0, 74, 75
1, 22607, Note_on_c, 0, 74, 0
1, 22608, Note_on_c, 0, 75, 75
1, 22631, Note_on_c, 0, 75, 0
1, 22632, Note_on_c, 0, 77, 75
1, 22655, Note_on_c, 0, 77, 0
1, 22656, Note_on_c, 0, 79, 75
1, 22680, Note_on_c, 1, 63, 75
1, 22701, Note_on_c, 0, 79, 0
1, 22703, Note_on_c, 1, 63, 0
1, 22704, Note_on_c, 1, 51, 75
1, 22727, Note_on_c, 1, 51, 0
1, 22728, Note_on_c, 1, 63, 75
1, 22751, Note_on_c, 1, 63, 0
1, 22752, Note_on_c, 1, 50, 75
1, 22776, Note_on_c, 0, 65, 75
1, 22791, Note_on_c, 1, 50, 0
1, 22799, Note_on_c, 0, 65, 0
1, 22800, Note_on_c, 0, 67, 75
1, 22823, Note_on_c, 0, 67, 0
1, 22824, Note_on_c, 0, 69, 75
1, 22847, Note_on_c, 0, 69, 0
1, 22848, Note_on_c, 0, 70, 75
1, 22871, Note_on_c, 0, 70, 0
1, 22872, Note_on_c, 0, 72, 75
1, 22895, Note_on_c, 0, 72, 0
1, 22896, Note_on_c, 0, 74, 75
1, 22919, Note_on_c, 0, 74, 0
1, 22920, Note_on_c, 0, 75, 75
1, 22943, Note_on_c, 0, 75, 0
1, 22944, Note_on_c, 0, 77, 75
1, 22968, Note_on_c, 1, 62, 75
1, 22989, Note_on_c, 0, 77, 0
1, 22991, Note_on_c, 1, 62, 0
1, 22992, Note_on_c, 1, 50, 75
1, 23015, Note_on_c, 1, 50, 0
1, 23016, Note_on_c, 1, 62, 75
1, 23039, Note_on_c, 1, 62, 0
1, 23040, Note_on_c, 1, 51, 75
1, 23064, Note_on_c, 0, 67, 70
1, 23079, Note_on_c, 1, 51, 0
1, 23087, Note_on_c, 0, 67, 0
1, 23088, Note_on_c, 0, 69, 70
1, 23111, Note_on_c, 0, 69, 0
1, 23112, Note_on_c, 0, 71, 70
1, 23135, Note_on_c, 0, 71, 0
1, 23136, Note_on_c, 0, 72, 70
1, 23159, Note_on_c, 0, 72, 0
1, 23160, Note_on_c, 0, 74, 70
1, 23183, Note_on_c, 0, 74, 0
1, 23184, Note_on_c, 0, 75, 70
1, 23207, Note_on_c, 0, 75, 0
1, 23208, Note_on_c, 0, 77, 70
1, 23231, Note_on_c, 0, 77, 0
1, 23232, Note_on_c, 0, 79, 70
1, 23256, Note_on_c, 1, 63, 70
1, 23277, Note_on_c, 0, 79, 0
1, 23279, Note_on_c, 1, 63, 0
1, 23280, Note_on_c, 1, 51, 70
1, 23303, Note_on_c, 1, 51, 0
1, 23304, Note_on_c, 1, 63, 70
1, 23327, Note_on_c, 1, 63, 0
1, 23328, Note_on_c, 1, 51, 70
1, 23352, Note_on_c, 0, 65, 70
1, 23367, Note_on_c, 1, 51, 0
1, 23375, Note_on_c, 0, 65, 0
1, 23376, Note_on_c, 0, 67, 70
1, 23399, Note_on_c, 0, 67, 0
1, 23400, Note_on_c, 0, 69, 70
1, 23423, Note_on_c, 0, 69, 0
1, 23424, Note_on_c, 0, 70, 70
1, 23447, Note_on_c, 0, 70, 0
1, 23448, Note_on_c, 0, 72, 70
1, 23471, Note_on_c, 0, 72, 0
1, 23472, Note_on_c, 0, 74, 70
1, 23495, Note_on_c, 0, 74, 0
1, 23496, Note_on_c, 0, 75, 70
1, 23519, Note_on_c, 0, 75, 0
1, 23520, Note_on_c, 0, 77, 70
1, 23543, Note_on_c, 0, 77, 0
1, 23544, Note_on_c, 0, 79, 70
1, 23567, Note_on_c, 0, 79, 0
1, 23568, Note_on_c, 0, 81, 70
1, 23591, Note_on_c, 0, 81, 0
1, 23592, Note_on_c, 0, 82, 70
1, 23604, Note_on_c, 0, 82, 0
1, 23604, Note_on_c, 0, 84, 70
1, 23616, Note_on_c, 0, 84, 0
1, 23616, Note_on_c, 0, 86, 86
1, 23636, Note_on_c, 0, 86, 0
1, 23904, Note_on_c, 0, 72, 75
1, 23904, Note_on_c, 1, 70, 64
1, 23904, Note_on_c, 1, 64, 64
1, 23927, Note_on_c, 0, 72, 0
1, 23928, Note_on_c, 0, 76, 75
1, 23951, Note_on_c, 0, 76, 0
1, 23952, Note_on_c, 0, 79, 75
1, 23975, Note_on_c, 0, 79, 0
1, 23976, Note_on_c, 0, 77, 75
1, 23993, Note_on_c, 1, 70, 0
1, 23993, Note_on_c, 1, 64, 0
1, 23999, Note_on_c, 0, 77, 0
1, 24000, Note_on_c, 0, 76, 75
1, 24023, Note_on_c, 0, 76, 0
1, 24024, Note_on_c, 0, 74, 75
1, 24047, Note_on_c, 0, 74, 0
1, 24048, Note_on_c, 0, 72, 75
1, 24048, Note_on_c, 1, 70, 64
1, 24048, Note_on_c, 1, 64, 64
1, 24071, Note_on_c, 0, 72, 0
1, 24072, Note_on_c, 0, 74, 75
1, 24093, Note_on_c, 1, 70, 0
1, 24093, Note_on_c, 1, 64, 0
1, 24095, Note_on_c, 0, 74, 0
1, 24096, Note_on_c, 0, 72, 75
1, 24096, Note_on_c, 1, 70, 64
1, 24096, Note_on_c, 1, 64, 64
1, 24119, Note_on_c, 0, 72, 0
1, 24120, Note_on_c, 0, 74, 75
1, 24141, Note_on_c, 1, 70, 0
1, 24141, Note_on_c, 1, 64, 0
1, 24143, Note_on_c, 0, 74, 0
1, 24144, Note_on_c, 0, 72, 75
1, 24144, Note_on_c, 1, 70, 64
1, 24144, Note_on_c, 1, 64, 64
1, 24167, Note_on_c, 0, 72, 0
1, 24168, Note_on_c, 0, 74, 75
1, 24189, Note_on_c, 1, 70, 0
1, 24189, Note_on_c, 1, 64, 0
1, 24191, Note_on_c, 0, 74, 0
1, 24192, Note_on_c, 0, 72, 75
1, 24192, Note_on_c, 1, 69, 64
1, 24192, Note_on_c, 1, 65, 64
1, 24215, Note_on_c, 0, 72, 0
1, 24216, Note_on_c, 0, 76, 75
1, 24239, Note_on_c, 0, 76, 0
1, 24240, Note_on_c, 0, 77, 75
1, 24263, Note_on_c, 0, 77, 0
1, 24264, Note_on_c, 0, 76, 75
1, 24281, Note_on_c, 1, 69, 0
1, 24281, Note_on_c, 1, 65, 0
1, 24287, Note_on_c, 0, 76, 0
1, 24288, Note_on_c, 0, 74, 75
1, 24311, Note_on_c, 0, 74, 0
1, 24312, Note_on_c, 0, 72, 75
1, 24335, Note_on_c, 0, 72, 0
1, 24336, Note_on_c, 0, 70, 75
1, 24359, Note_on_c, 0, 70, 0
1, 24360, Note_on_c, 0, 69, 75
1, 24383, Note_on_c, 0, 69, 0
1, 24384, Note_on_c, 0, 67, 75
1, 24407, Note_on_c, 0, 67, 0
1, 24408, Note_on_c, 0, 65, 75
1, 24431, Note_on_c, 0, 65, 0
1, 24432, Note_on_c, 0, 64, 75
1, 24455, Note_on_c, 0, 64, 0
1, 24456, Note_on_c, 0, 62, 75
1, 24479, Note_on_c, 0, 62, 0
1, 24480, Note_on_c, 0, 60, 75
1, 24480, Note_on_c, 1, 58, 64
1, 24480, Note_on_c, 1, 52, 64
1, 24503, Note_on_c, 0, 60, 0
1, 24504, Note_on_c, 0, 64, 75
1, 24527, Note_on_c, 0, 64, 0
1, 24528, Note_on_c, 0, 67, 75
1, 24551, Note_on_c, 0, 67, 0
1, 24552, Note_on_c, 0, 65, 75
1, 24569, Note_on_c, 1, 58, 0
1, 24569, Note_on_c, 1, 52, 0
1, 24575, Note_on_c, 0, 65, 0
1, 24576, Note_on_c, 0, 64, 75
1, 24599, Note_on_c, 0, 64, 0
1, 24600, Note_on_c, 0, 62, 75
1, 24623, Note_on_c, 0, 62, 0
1, 24624, Note_on_c, 0, 60, 75
1, 24624, Note_on_c, 1, 58, 64
1, 24624, Note_on_c, 1, 52, 64
1, 24647, Note_on_c, 0, 60, 0
1, 24648, Note_on_c, 0, 62, 75
1, 24669, Note_on_c, 1, 58, 0
1, 24669, Note_on_c, 1, 52, 0
1, 24671, Note_on_c, 0, 62, 0
1, 24672, Note_on_c, 0, 60, 75
1, 24672, Note_on_c, 1, 58, 64
1, 24672, Note_on_c, 1, 52, 64
1, 24695, Note_on_c, 0, 60, 0
1, 24696, Note_on_c, 0, 62, 75
1, 24717, Note_on_c, 1, 58, 0
1, 24717, Note_on_c, 1, 52, 0
1, 24719, Note_on_c, 0, 62, 0
1, 24720, Note_on_c, 0, 60, 75
1, 24720, Note_on_c, 1, 58, 64
1, 24720, Note_on_c, 1, 52, 64
1, 24743, Note_on_c, 0, 60, 0
1, 24744, Note_on_c, 0, 62, 75
1, 24765, Note_on_c, 1, 58, 0
1, 24765, Note_on_c, 1, 52, 0
1, 24767, Note_on_c, 0, 62, 0
1, 24768, Note_on_c, 0, 60, 75
1, 24768, Note_on_c, 1, 57, 64
1, 24768, Note_on_c, 1, 53, 64
1, 24791, Note_on_c, 0, 60, 0
1, 24792, Note_on_c, 0, 65, 75
1, 24815, Note_on_c, 0, 65, 0
1, 24816, Note_on_c, 0, 64, 75
1, 24839, Note_on_c, 0, 64, 0
1, 24840, Note_on_c, 0, 62, 75
1, 24857, Note_on_c, 1, 57, 0
1, 24857, Note_on_c, 1, 53, 0
1, 24863, Note_on_c, 0, 62, 0
1, 24864, Note_on_c, 0, 60, 75
1, 24887, Note_on_c, 0, 60, 0
1, 24888, Note_on_c, 0, 58, 75
1, 24911, Note_on_c, 0, 58, 0
1, 24912, Note_on_c, 0, 57, 75
1, 24935, Note_on_c, 0, 57, 0
1, 24936, Note_on_c, 0, 55, 75
1, 24959, Note_on_c, 0, 55, 0
1, 24960, Note_on_c, 0, 53, 75
1, 24983, Note_on_c, 0, 53, 0
1, 24984, Note_on_c, 0, 55, 75
1, 25007, Note_on_c, 0, 55, 0
1, 25008, Note_on_c, 0, 57, 75
1, 25031, Note_on_c, 0, 57, 0
1, 25032, Note_on_c, 0, 58, 75
1, 25055, Note_on_c, 0, 58, 0
1, 25056, Note_on_c, 0, 60, 75
1, 25056, Note_on_c, 1, 41, 75
1, 25056, Note_on_c, 1, 29, 75
1, 25079, Note_on_c, 0, 60, 0
1, 25080, Note_on_c, 0, 57, 75
1, 25103, Note_on_c, 0, 57, 0
1, 25104, Note_on_c, 0, 60, 75
1, 25127, Note_on_c, 0, 60, 0
1, 25128, Note_on_c, 0, 62, 75
1, 25145, Note_on_c, 1, 41, 0
1, 25145, Note_on_c, 1, 29, 0
1, 25151, Note_on_c, 0, 62, 0
1, 25152, Note_on_c, 0, 63, 75
1, 25175, Note_on_c, 0, 63, 0
1, 25176, Note_on_c, 0, 60, 75
1, 25199, Note_on_c, 0, 60, 0
1, 25200, Note_on_c, 0, 72, 75
1, 25200, Note_on_c, 1, 53, 75
1, 25223, Note_on_c, 0, 72, 0
1, 25224, Note_on_c, 0, 70, 75
1, 25245, Note_on_c, 1, 53, 0
1, 25247, Note_on_c, 0, 70, 0
1, 25248, Note_on_c, 0, 69, 75
1, 25248, Note_on_c, 1, 55, 75
1, 25271, Note_on_c, 0, 69, 0
1, 25272, Note_on_c, 0, 67, 75
1, 25293, Note_on_c, 1, 55, 0
1, 25295, Note_on_c, 0, 67, 0
1, 25296, Note_on_c, 0, 65, 75
1, 25296, Note_on_c, 1, 57, 75
1, 25319, Note_on_c, 0, 65, 0
1, 25320, Note_on_c, 0, 63, 75
1, 25341, Note_on_c, 1, 57, 0
1, 25343, Note_on_c, 0, 63, 0
1, 25344, Note_on_c, 0, 62, 75
1, 25344, Note_on_c, 1, 58, 75
1, 25367, Note_on_c, 0, 62, 0
1, 25368, Note_on_c, 0, 65, 75
1, 25383, Note_on_c, 1, 58, 0
1, 25391, Note_on_c, 0, 65, 0
1, 25392, Note_on_c, 0, 63, 75
1, 25415, Note_on_c, 0, 63, 0
1, 25416, Note_on_c, 0, 62, 75
1, 25439, Note_on_c, 0, 62, 0
1, 25440, Note_on_c, 0, 63, 75
1, 25440, Note_on_c, 1, 60, 75
1, 25463, Note_on_c, 0, 63, 0
1, 25464, Note_on_c, 0, 65, 75
1, 25479, Note_on_c, 1, 60, 0
1, 25487, Note_on_c, 0, 65, 0
1, 25488, Note_on_c, 0, 67, 75
1, 25511, Note_on_c, 0, 67, 0
1, 25512, Note_on_c, 0, 69, 75
1, 25535, Note_on_c, 0, 69, 0
1, 25536, Note_on_c, 0, 70, 75
1, 25536, Note_on_c, 1, 62, 75
1, 25559, Note_on_c, 0, 70, 0
1, 25560, Note_on_c, 0, 72, 75
1, 25575, Note_on_c, 1, 62, 0
1, 25583, Note_on_c, 0, 72, 0
1, 25584, Note_on_c, 0, 74, 75
1, 25607, Note_on_c, 0, 74, 0
1, 25608, Note_on_c, 0, 70, 75
1, 25631, Note_on_c, 0, 70, 0
1, 25632, Note_on_c, 0, 69, 75
1, 25632, Note_on_c, 1, 63, 75
1, 25632, Note_on_c, 1, 51, 64
1, 25655, Note_on_c, 0, 69, 0
1, 25656, Note_on_c, 0, 67, 75
1, 25679, Note_on_c, 0, 67, 0
1, 25680, Note_on_c, 0, 75, 75
1, 25703, Note_on_c, 0, 75, 0
1, 25704, Note_on_c, 0, 72, 75
1, 25721, Note_on_c, 1, 63, 0
1, 25721, Note_on_c, 1, 51, 0
1, 25727, Note_on_c, 0, 72, 0
1, 25728, Note_on_c, 0, 70, 75
1, 25728, Note_on_c, 1, 62, 75
1, 25728, Note_on_c, 1, 53, 64
1, 25817, Note_on_c, 0, 70, 0
1, 25817, Note_on_c, 1, 62, 0
1, 25824, Note_on_c, 0, 69, 75
1, 25824, Note_on_c, 1, 60, 75
1, 25837, Note_on_c, 0, 69, 0
1, 25838, Note_on_c, 0, 70, 75
1, 25851, Note_on_c, 0, 70, 0
1, 25852, Note_on_c, 0, 69, 75
1, 25865, Note_on_c, 0, 69, 0
1, 25866, Note_on_c, 0, 70, 75
1, 25879, Note_on_c, 0, 70, 0
1, 25880, Note_on_c, 0, 69, 75
1, 25893, Note_on_c, 0, 69, 0
1, 25894, Note_on_c, 0, 67, 75
1, 25905, Note_on_c, 1, 53, 0
1, 25906, Note_on_c, 0, 67, 0
1, 25907, Note_on_c, 0, 69, 75
1, 25913, Note_on_c, 1, 60, 0
1, 25919, Note_on_c, 0, 69, 0
1, 25920, Note_on_c, 0, 62, 75
1, 25920, Note_on_c, 1, 58, 75
1, 25943, Note_on_c, 0, 62, 0
1, 25944, Note_on_c, 0, 65, 75
1, 25959, Note_on_c, 1, 58, 0
1, 25967, Note_on_c, 0, 65, 0
1, 25968, Note_on_c, 0, 63, 75
1, 25991, Note_on_c, 0, 63, 0
1, 25992, Note_on_c, 0, 62, 75
1, 26015, Note_on_c, 0, 62, 0
1, 26016, Note_on_c, 0, 63, 75
1, 26016, Note_on_c, 1, 60, 75
1, 26039, Note_on_c, 0, 63, 0
1, 26040, Note_on_c, 0, 65, 75
1, 26055, Note_on_c, 1, 60, 0
1, 26063, Note_on_c, 0, 65, 0
1, 26064, Note_on_c, 0, 67, 75
1, 26087, Note_on_c, 0, 67, 0
1, 26088, Note_on_c, 0, 69, 75
1, 26111, Note_on_c, 0, 69, 0
1, 26112, Note_on_c, 0, 70, 75
1, 26112, Note_on_c, 1, 62, 75
1, 26135, Note_on_c, 0, 70, 0
1, 26136, Note_on_c, 0, 72, 75
1, 26151, Note_on_c, 1, 62, 0
1, 26159, Note_on_c, 0, 72, 0
1, 26160, Note_on_c, 0, 74, 75
1, 26183, Note_on_c, 0, 74, 0
1, 26184, Note_on_c, 0, 70, 75
1, 26207, Note_on_c, 0, 70, 0
1, 26208, Note_on_c, 0, 69, 75
1, 26208, Note_on_c, 1, 63, 75
1, 26228, Note_on_c, 1, 63, 0
1, 26231, Note_on_c, 0, 69, 0
1, 26232, Note_on_c, 0, 67, 75
1, 26255, Note_on_c, 0, 67, 0
1, 26256, Note_on_c, 0, 75, 75
1, 26256, Note_on_c, 1, 60, 75
1, 26276, Note_on_c, 1, 60, 0
1, 26279, Note_on_c, 0, 75, 0
1, 26280, Note_on_c, 0, 72, 75
1, 26303, Note_on_c, 0, 72, 0
1, 26304, Note_on_c, 0, 70, 75
1, 26304, Note_on_c, 1, 65, 75
1, 26324, Note_on_c, 1, 65, 0
1, 26327, Note_on_c, 0, 70, 0
1, 26328, Note_on_c, 0, 69, 75
1, 26351, Note_on_c, 0, 69, 0
1, 26352, Note_on_c, 0, 77, 75
1, 26352, Note_on_c, 1, 62, 75
1, 26372, Note_on_c, 1, 62, 0
1, 26375, Note_on_c, 0, 77, 0
1, 26376, Note_on_c, 0, 74, 75
1, 26399, Note_on_c, 0, 74, 0
1, 26400, Note_on_c, 0, 72, 75
1, 26400, Note_on_c, 1, 67, 75
1, 26420, Note_on_c, 1, 67, 0
1, 26423, Note_on_c, 0, 72, 0
1, 26424, Note_on_c, 0, 70, 75
1, 26447, Note_on_c, 0, 70, 0
1, 26448, Note_on_c, 0, 79, 75
1, 26448, Note_on_c, 1, 63, 75
1, 26468, Note_on_c, 1, 63, 0
1, 26471, Note_on_c, 0, 79, 0
1, 26472, Note_on_c, 0, 75, 75
1, 26495, Note_on_c, 0, 75, 0
1, 26496, Note_on_c, 0, 74, 75
1, 26496, Note_on_c, 1, 69, 75
1, 26519, Note_on_c, 0, 74, 0
1, 26520, Note_on_c, 0, 72, 75
1, 26543, Note_on_c, 0, 72, 0
1, 26544, Note_on_c, 0, 86, 75
1, 26567, Note_on_c, 0, 86, 0
1, 26568, Note_on_c, 0, 84, 75
1, 26585, Note_on_c, 1, 69, 0
1, 26591, Note_on_c, 0, 84, 0
1, 26592, Note_on_c, 0, 82, 75
1, 26615, Note_on_c, 0, 82, 0
1, 26616, Note_on_c, 0, 81, 75
1, 26639, Note_on_c, 0, 81, 0
1, 26640, Note_on_c, 0, 84, 75
1, 26640, Note_on_c, 1, 53, 75
1, 26663, Note_on_c, 0, 84, 0
1, 26664, Note_on_c, 0, 82, 75
1, 26685, Note_on_c, 1, 53, 0
1, 26687, Note_on_c, 0, 82, 0
1, 26688, Note_on_c, 0, 81, 75
1, 26688, Note_on_c, 1, 55, 75
1, 26711, Note_on_c, 0, 81, 0
1, 26712, Note_on_c, 0, 79, 75
1, 26733, Note_on_c, 1, 55, 0
1, 26735, Note_on_c, 0, 79, 0
1, 26736, Note_on_c, 0, 77, 75
1, 26736, Note_on_c, 1, 57, 75
1, 26759, Note_on_c, 0, 77, 0
1, 26760, Note_on_c, 0, 75, 75
1, 26781, Note_on_c, 1, 57, 0
1, 26783, Note_on_c, 0, 75, 0
1, 26784, Note_on_c, 0, 74, 75
1, 26784, Note_on_c, 1, 58, 75
1, 26807, Note_on_c, 0, 74, 0
1, 26808, Note_on_c, 0, 77, 75
1, 26823, Note_on_c, 1, 58, 0
1, 26831, Note_on_c, 0, 77, 0
1, 26832, Note_on_c, 0, 75, 75
1, 26855, Note_on_c, 0, 75, 0
1, 26856, Note_on_c, 0, 74, 75
1, 26879, Note_on_c, 0, 74, 0
1, 26880, Note_on_c, 0, 75, 75
1, 26880, Note_on_c, 1, 60, 75
1, 26903, Note_on_c, 0, 75, 0
1, 26904, Note_on_c, 0, 77, 75
1, 26919, Note_on_c, 1, 60, 0
1, 26927, Note_on_c, 0, 77, 0
1, 26928, Note_on_c, 0, 79, 75
1, 26951, Note_on_c, 0, 79, 0
1, 26952, Note_on_c, 0, 81, 75
1, 26975, Note_on_c, 0, 81, 0
1, 26976, Note_on_c, 0, 82, 75
1, 26976, Note_on_c, 1, 62, 75
1, 26999, Note_on_c, 0, 82, 0
1, 27000, Note_on_c, 0, 77, 75
1, 27015, Note_on_c, 1, 62, 0
1, 27023, Note_on_c, 0, 77, 0
1, 27024, Note_on_c, 0, 75, 75
1, 27047, Note_on_c, 0, 75, 0
1, 27048, Note_on_c, 0, 74, 75
1, 27071, Note_on_c, 0, 74, 0
1, 27072, Note_on_c, 0, 72, 75
1, 27072, Note_on_c, 1, 63, 75
1, 27072, Note_on_c, 1, 51, 64
1, 27095, Note_on_c, 0, 72, 0
1, 27096, Note_on_c, 0, 79, 75
1, 27119, Note_on_c, 0, 79, 0
1, 27120, Note_on_c, 0, 75, 75
1, 27143, Note_on_c, 0, 75, 0
1, 27144, Note_on_c, 0, 72, 75
1, 27161, Note_on_c, 1, 63, 0
1, 27161, Note_on_c, 1, 51, 0
1, 27167, Note_on_c, 0, 72, 0
1, 27168, Note_on_c, 0, 70, 75
1, 27168, Note_on_c, 1, 62, 75
1, 27168, Note_on_c, 1, 53, 64
1, 27257, Note_on_c, 0, 70, 0
1, 27257, Note_on_c, 1, 62, 0
1, 27264, Note_on_c, 0, 69, 75
1, 27264, Note_on_c, 1, 60, 75
1, 27277, Note_on_c, 0, 69, 0
1, 27278, Note_on_c, 0, 70, 75
1, 27291, Note_on_c, 0, 70, 0
1, 27292, Note_on_c, 0, 69, 75
1, 27305, Note_on_c, 0, 69, 0
1, 27306, Note_on_c, 0, 70, 75
1, 27319, Note_on_c, 0, 70, 0
1, 27320, Note_on_c, 0, 69, 75
1, 27333, Note_on_c, 0, 69, 0
1, 27334, Note_on_c, 0, 67, 75
1, 27345, Note_on_c, 1, 53, 0
1, 27346, Note_on_c, 0, 67, 0
1, 27347, Note_on_c, 0, 69, 75
1, 27353, Note_on_c, 1, 60, 0
1, 27359, Note_on_c, 0, 69, 0
1, 27360, Note_on_c, 0, 70, 75
1, 27360, Note_on_c, 1, 58, 75
1, 27380, Note_on_c, 0, 70, 0
1, 27399, Note_on_c, 1, 58, 0
1, 27408, Note_on_c, 0, 65, 75
1, 27408, Note_on_c, 0, 62, 75
1, 27431, Note_on_c, 0, 65, 0
1, 27431, Note_on_c, 0, 62, 0
1, 27432, Note_on_c, 0, 67, 75
1, 27432, Note_on_c, 0, 63, 75
1, 27455, Note_on_c, 0, 67, 0
1, 27455, Note_on_c, 0, 63, 0
1, 27456, Note_on_c, 0, 65, 75
1, 27456, Note_on_c, 0, 62, 75
1, 27501, Note_on_c, 0, 65, 0
1, 27501, Note_on_c, 0, 62, 0
1, 27504, Note_on_c, 0, 63, 74
1, 27504, Note_on_c, 0, 60, 74
1, 27549, Note_on_c, 0, 63, 0
1, 27549, Note_on_c, 0, 60, 0
1, 27552, Note_on_c, 0, 62, 73
1, 27552, Note_on_c, 0, 58, 73
1, 27597, Note_on_c, 0, 62, 0
1, 27597, Note_on_c, 0, 58, 0
1, 27600, Note_on_c, 0, 60, 72
1, 27600, Note_on_c, 0, 57, 72
1, 27645, Note_on_c, 0, 60, 0
1, 27645, Note_on_c, 0, 57, 0
1, 27648, Note_on_c, 0, 62, 71
1, 27648, Note_on_c, 0, 58, 71
1, 27648, Note_on_c, 1, 46, 64
1, 27668, Note_on_c, 0, 62, 0
1, 27668, Note_on_c, 0, 58, 0
1, 27696, Note_on_c, 0, 62, 70
1, 27696, Note_on_c, 1, 53, 64
1, 27719, Note_on_c, 0, 62, 0
1, 27719, Note_on_c, 1, 53, 0
1, 27720, Note_on_c, 0, 63, 70
1, 27720, Note_on_c, 1, 55, 64
1, 27743, Note_on_c, 0, 63, 0
1, 27743, Note_on_c, 1, 55, 0
1, 27744, Note_on_c, 0, 62, 70
1, 27744, Note_on_c, 1, 53, 64
1, 27789, Note_on_c, 0, 62, 0
1, 27789, Note_on_c, 1, 53, 0
1, 27792, Note_on_c, 0, 60, 70
1, 27792, Note_on_c, 1, 51, 64
1, 27837, Note_on_c, 0, 60, 0
1, 27837, Note_on_c, 1, 51, 0
1, 27840, Note_on_c, 0, 58, 70
1, 27840, Note_on_c, 1, 50, 64
1, 27885, Note_on_c, 0, 58, 0
1, 27885, Note_on_c, 1, 50, 0
1, 27888, Note_on_c, 0, 57, 70
1, 27888, Note_on_c, 1, 48, 64
1, 27913, Note_on_c, 1, 46, 0
1, 27933, Note_on_c, 0, 57, 0
1, 27933, Note_on_c, 1, 48, 0
1, 27936, Note_on_c, 0, 57, 70
1, 27936, Note_on_c, 1, 51, 64
1, 27936, Note_on_c, 1, 48, 64
1, 28128, Note_on_c, 0, 57, 0
1, 28128, Note_on_c, 0, 58, 70
1, 28128, Note_on_c, 1, 51, 0
1, 28128, Note_on_c, 1, 50, 64
1, 28128, Note_on_c, 1, 48, 0
1, 28128, Note_on_c, 1, 46, 64
1, 28128, Note_on_c, 1, 34, 64
1, 28201, Note_on_c, 0, 58, 0
1, 28201, Note_on_c, 1, 50, 0
1, 28201, Note_on_c, 1, 46, 0
1, 28201, Note_on_c, 1, 34, 0
1, 28224, Note_on_c, 1, 46, 75
1, 28224, Note_on_c, 1, 34, 75
1, 28272, Note_on_c, 0, 77, 75
1, 28313, Note_on_c, 1, 46, 0
1, 28313, Note_on_c, 1, 34, 0
1, 28317, Note_on_c, 0, 77, 0
1, 28320, Note_on_c, 0, 77, 75
1, 28368, Note_on_c, 0, 77, 0
1, 28368, Note_on_c, 0, 82, 75
1, 28413, Note_on_c, 0, 82, 0
1, 28416, Note_on_c, 0, 82, 75
1, 28416, Note_on_c, 1, 74, 75
1, 28464, Note_on_c, 0, 82, 0
1, 28464, Note_on_c, 0, 81, 75
1, 28505, Note_on_c, 1, 74, 0
1, 28509, Note_on_c, 0, 81, 0
1, 28512, Note_on_c, 1, 75, 75
1, 28551, Note_on_c, 1, 75, 0
1, 28560, Note_on_c, 0, 79, 75
1, 28605, Note_on_c, 0, 79, 0
1, 28608, Note_on_c, 1, 74, 75
1, 28647, Note_on_c, 1, 74, 0
1, 28656, Note_on_c, 0, 77, 75
1, 28701, Note_on_c, 0, 77, 0
1, 28704, Note_on_c, 1, 72, 75
1, 28743, Note_on_c, 1, 72, 0
1, 28752, Note_on_c, 0, 75, 75
1, 28797, Note_on_c, 0, 75, 0
1, 28800, Note_on_c, 1, 70, 75
1, 28848, Note_on_c, 0, 74, 75
1, 28889, Note_on_c, 1, 70, 0
1, 28893, Note_on_c, 0, 74, 0
1, 28896, Note_on_c, 0, 77, 75
1, 28944, Note_on_c, 0, 77, 0
1, 28944, Note_on_c, 0, 82, 75
1, 28989, Note_on_c, 0, 82, 0
1, 28992, Note_on_c, 0, 82, 75
1, 28992, Note_on_c, 1, 74, 75
1, 29040, Note_on_c, 0, 82, 0
1, 29040, Note_on_c, 0, 81, 75
1, 29081, Note_on_c, 1, 74, 0
1, 29085, Note_on_c, 0, 81, 0
1, 29088, Note_on_c, 1, 75, 75
1, 29112, Note_on_c, 0, 79, 75
1, 29133, Note_on_c, 1, 75, 0
1, 29135, Note_on_c, 0, 79, 0
1, 29136, Note_on_c, 0, 78, 75
1, 29159, Note_on_c, 0, 78, 0
1, 29160, Note_on_c, 0, 79, 75
1, 29183, Note_on_c, 0, 79, 0
1, 29184, Note_on_c, 1, 74, 75
1, 29208, Note_on_c, 0, 77, 75
1, 29229, Note_on_c, 1, 74, 0
1, 29231, Note_on_c, 0, 77, 0
1, 29232, Note_on_c, 0, 76, 75
1, 29255, Note_on_c, 0, 76, 0
1, 29256, Note_on_c, 0, 77, 75
1, 29279, Note_on_c, 0, 77, 0
1, 29280, Note_on_c, 1, 72, 75
1, 29304, Note_on_c, 0, 75, 75
1, 29325, Note_on_c, 1, 72, 0
1, 29327, Note_on_c, 0, 75, 0
1, 29328, Note_on_c, 0, 74, 75
1, 29351, Note_on_c, 0, 74, 0
1, 29352, Note_on_c, 0, 75, 75
1, 29375, Note_on_c, 0, 75, 0
1, 29376, Note_on_c, 1, 70, 75
1, 29400, Note_on_c, 0, 74, 75
1, 29423, Note_on_c, 0, 74, 0
1, 29424, Note_on_c, 0, 75, 75
1, 29447, Note_on_c, 0, 75, 0
1, 29448, Note_on_c, 0, 77, 75
1, 29465, Note_on_c, 1, 70, 0
1, 29471, Note_on_c, 0, 77, 0
1, 29472, Note_on_c, 0, 79, 75
1, 29495, Note_on_c, 0, 79, 0
1, 29496, Note_on_c, 0, 81, 75
1, 29519, Note_on_c, 0, 81, 0
1, 29520, Note_on_c, 0, 82, 75
1, 29543, Note_on_c, 0, 82, 0
1, 29544, Note_on_c, 0, 84, 75
1, 29567, Note_on_c, 0, 84, 0
1, 29568, Note_on_c, 0, 86, 75
1, 29591, Note_on_c, 0, 86, 0
1, 29592, Note_on_c, 0, 82, 75
1, 29615, Note_on_c, 0, 82, 0
1, 29616, Note_on_c, 0, 81, 75
1, 29639, Note_on_c, 0, 81, 0
1, 29640, Note_on_c, 0, 79, 75
1, 29663, Note_on_c, 0, 79, 0
1, 29664, Note_on_c, 0, 77, 75
1, 29712, Note_on_c, 1, 58, 75
1, 29735, Note_on_c, 1, 58, 0
1, 29736, Note_on_c, 1, 60, 75
1, 29759, Note_on_c, 1, 60, 0
1, 29760, Note_on_c, 1, 62, 75
1, 29805, Note_on_c, 1, 62, 0
1, 29808, Note_on_c, 1, 58, 75
1, 29841, Note_on_c, 0, 77, 0
1, 29853, Note_on_c, 1, 58, 0
1, 29856, Note_on_c, 0, 75, 75
1, 29856, Note_on_c, 1, 60, 75
1, 29869, Note_on_c, 0, 75, 0
1, 29870, Note_on_c, 0, 77, 75
1, 29883, Note_on_c, 0, 77, 0
1, 29884, Note_on_c, 0, 75, 75
1, 29897, Note_on_c, 0, 75, 0
1, 29898, Note_on_c, 0, 77, 75
1, 29901, Note_on_c, 1, 60, 0
1, 29904, Note_on_c, 1, 53, 75
1, 29911, Note_on_c, 0, 77, 0
1, 29912, Note_on_c, 0, 75, 75
1, 29925, Note_on_c, 0, 75, 0
1, 29926, Note_on_c, 0, 74, 75
1, 29938, Note_on_c, 0, 74, 0
1, 29939, Note_on_c, 0, 75, 75
1, 29949, Note_on_c, 1, 53, 0
1, 29951, Note_on_c, 0, 75, 0
1, 29952, Note_on_c, 0, 74, 75
1, 29952, Note_on_c, 1, 58, 75
1, 29975, Note_on_c, 0, 74, 0
1, 29976, Note_on_c, 0, 70, 75
1, 29999, Note_on_c, 0, 70, 0
1, 30000, Note_on_c, 0, 69, 75
1, 30023, Note_on_c, 0, 69, 0
1, 30024, Note_on_c, 0, 70, 75
1, 30041, Note_on_c, 1, 58, 0
1, 30047, Note_on_c, 0, 70, 0
1, 30048, Note_on_c, 0, 72, 75
1, 30071, Note_on_c, 0, 72, 0
1, 30072, Note_on_c, 0, 70, 75
1, 30095, Note_on_c, 0, 70, 0
1, 30096, Note_on_c, 0, 69, 75
1, 30119, Note_on_c, 0, 69, 0
1, 30120, Note_on_c, 0, 70, 75
1, 30143, Note_on_c, 0, 70, 0
1, 30144, Note_on_c, 0, 74, 75
1, 30144, Note_on_c, 1, 50, 75
1, 30167, Note_on_c, 0, 74, 0
1, 30168, Note_on_c, 0, 72, 75
1, 30183, Note_on_c, 1, 50, 0
1, 30191, Note_on_c, 0, 72, 0
1, 30192, Note_on_c, 0, 70, 75
1, 30215, Note_on_c, 0, 70, 0
1, 30216, Note_on_c, 0, 69, 75
1, 30239, Note_on_c, 0, 69, 0
1, 30240, Note_on_c, 0, 67, 75
1, 30240, Note_on_c, 1, 51, 75
1, 30263, Note_on_c, 0, 67, 0
1, 30264, Note_on_c, 0, 75, 75
1, 30279, Note_on_c, 1, 51, 0
1, 30287, Note_on_c, 0, 75, 0
1, 30288, Note_on_c, 0, 79, 75
1, 30311, Note_on_c, 0, 79, 0
1, 30312, Note_on_c, 0, 77, 75
1, 30335, Note_on_c, 0, 77, 0
1, 30336, Note_on_c, 0, 75, 75
1, 30359, Note_on_c, 0, 75, 0
1, 30360, Note_on_c, 0, 74, 75
1, 30383, Note_on_c, 0, 74, 0
1, 30384, Note_on_c, 0, 72, 75
1, 30407, Note_on_c, 0, 72, 0
1, 30408, Note_on_c, 0, 70, 75
1, 30431, Note_on_c, 0, 70, 0
1, 30432, Note_on_c, 0, 69, 75
1, 30432, Note_on_c, 1, 53, 75
1, 30455, Note_on_c, 0, 69, 0
1, 30456, Note_on_c, 0, 67, 75
1, 30479, Note_on_c, 0, 67, 0
1, 30480, Note_on_c, 0, 65, 75
1, 30503, Note_on_c, 0, 65, 0
1, 30504, Note_on_c, 0, 63, 75
1, 30521, Note_on_c, 1, 53, 0
1, 30527, Note_on_c, 0, 63, 0
1, 30528, Note_on_c, 0, 62, 75
1, 30528, Note_on_c, 1, 46, 75
1, 30551, Note_on_c, 0, 62, 0
1, 30552, Note_on_c, 0, 70, 75
1, 30575, Note_on_c, 0, 70, 0
1, 30576, Note_on_c, 0, 69, 75
1, 30599, Note_on_c, 0, 69, 0
1, 30600, Note_on_c, 0, 70, 75
1, 30617, Note_on_c, 1, 46, 0
1, 30623, Note_on_c, 0, 70, 0
1, 30624, Note_on_c, 0, 72, 75
1, 30647, Note_on_c, 0, 72, 0
1, 30648, Note_on_c, 0, 70, 75
1, 30671, Note_on_c, 0, 70, 0
1, 30672, Note_on_c, 0, 69, 75
1, 30695, Note_on_c, 0, 69, 0
1, 30696, Note_on_c, 0, 70, 75
1, 30719, Note_on_c, 0, 70, 0
1, 30720, Note_on_c, 0, 74, 75
1, 30720, Note_on_c, 1, 50, 75
1, 30743, Note_on_c, 0, 74, 0
1, 30744, Note_on_c, 0, 72, 75
1, 30759, Note_on_c, 1, 50, 0
1, 30767, Note_on_c, 0, 72, 0
1, 30768, Note_on_c, 0, 70, 75
1, 30791, Note_on_c, 0, 70, 0
1, 30792, Note_on_c, 0, 69, 75
1, 30815, Note_on_c, 0, 69, 0
1, 30816, Note_on_c, 0, 67, 75
1, 30816, Note_on_c, 1, 51, 75
1, 30839, Note_on_c, 0, 67, 0
1, 30840, Note_on_c, 0, 75, 75
1, 30855, Note_on_c, 1, 51, 0
1, 30863, Note_on_c, 0, 75, 0
1, 30864, Note_on_c, 0, 79, 75
1, 30887, Note_on_c, 0, 79, 0
1, 30888, Note_on_c, 0, 77, 75
1, 30911, Note_on_c, 0, 77, 0
1, 30912, Note_on_c, 0, 75, 75
1, 30935, Note_on_c, 0, 75, 0
1, 30936, Note_on_c, 0, 74, 75
1, 30959, Note_on_c, 0, 74, 0
1, 30960, Note_on_c, 0, 72, 75
1, 30983, Note_on_c, 0, 72, 0
1, 30984, Note_on_c, 0, 70, 75
1, 31007, Note_on_c, 0, 70, 0
1, 31008, Note_on_c, 0, 69, 75
1, 31008, Note_on_c, 1, 53, 75
1, 31031, Note_on_c, 0, 69, 0
1, 31032, Note_on_c, 0, 67, 75
1, 31055, Note_on_c, 0, 67, 0
1, 31056, Note_on_c, 0, 65, 75
1, 31079, Note_on_c, 0, 65, 0
1, 31080, Note_on_c, 0, 63, 75
1, 31097, Note_on_c, 1, 53, 0
1, 31103, Note_on_c, 0, 63, 0
1, 31104, Note_on_c, 0, 62, 75
1, 31128, Note_on_c, 1, 46, 75
1, 31143, Note_on_c, 0, 62, 0
1, 31151, Note_on_c, 1, 46, 0
1, 31152, Note_on_c, 1, 48, 75
1, 31175, Note_on_c, 1, 48, 0
1, 31176, Note_on_c, 1, 50, 75
1, 31199, Note_on_c, 1, 50, 0
1, 31200, Note_on_c, 1, 51, 75
1, 31223, Note_on_c, 1, 51, 0
1, 31224, Note_on_c, 1, 53, 75
1, 31247, Note_on_c, 1, 53, 0
1, 31248, Note_on_c, 1, 55, 75
1, 31271, Note_on_c, 1, 55, 0
1, 31272, Note_on_c, 1, 57, 75
1, 31295, Note_on_c, 1, 57, 0
1, 31296, Note_on_c, 1, 58, 75
1, 31319, Note_on_c, 1, 58, 0
1, 31320, Note_on_c, 1, 60, 75
1, 31343, Note_on_c, 1, 60, 0
1, 31344, Note_on_c, 1, 62, 75
1, 31367, Note_on_c, 1, 62, 0
1, 31368, Note_on_c, 1, 60, 75
1, 31391, Note_on_c, 1, 60, 0
1, 31392, Note_on_c, 1, 58, 75
1, 31416, Note_on_c, 0, 70, 75
1, 31439, Note_on_c, 0, 70, 0
1, 31440, Note_on_c, 0, 72, 75
1, 31463, Note_on_c, 0, 72, 0
1, 31464, Note_on_c, 0, 74, 75
1, 31481, Note_on_c, 1, 58, 0
1, 31487, Note_on_c, 0, 74, 0
1, 31488, Note_on_c, 0, 75, 75
1, 31511, Note_on_c, 0, 75, 0
1, 31512, Note_on_c, 0, 77, 75
1, 31535, Note_on_c, 0, 77, 0
1, 31536, Note_on_c, 0, 79, 75
1, 31559, Note_on_c, 0, 79, 0
1, 31560, Note_on_c, 0, 81, 75
1, 31583, Note_on_c, 0, 81, 0
1, 31584, Note_on_c, 0, 82, 75
1, 31607, Note_on_c, 0, 82, 0
1, 31608, Note_on_c, 0, 84, 75
1, 31631, Note_on_c, 0, 84, 0
1, 31632, Note_on_c, 0, 86, 75
1, 31655, Note_on_c, 0, 86, 0
1, 31656, Note_on_c, 0, 84, 75
1, 31679, Note_on_c, 0, 84, 0
1, 31680, Note_on_c, 0, 82, 91
1, 31728, Note_on_c, 1, 73, 70
1, 31773, Note_on_c, 1, 73, 0
1, 31776, Note_on_c, 1, 73, 70
1, 31821, Note_on_c, 0, 82, 0
1, 31821, Note_on_c, 1, 73, 0
1, 31824, Note_on_c, 0, 80, 75
1, 31824, Note_on_c, 1, 73, 70
1, 31869, Note_on_c, 0, 80, 0
1, 31869, Note_on_c, 1, 73, 0
1, 31872, Note_on_c, 0, 79, 75
1, 31872, Note_on_c, 1, 73, 70
1, 31917, Note_on_c, 0, 79, 0
1, 31917, Note_on_c, 1, 73, 0
1, 31920, Note_on_c, 0, 77, 75
1, 31920, Note_on_c, 1, 73, 70
1, 31965, Note_on_c, 0, 77, 0
1, 31965, Note_on_c, 1, 73, 0
1, 31968, Note_on_c, 0, 77, 91
1, 32016, Note_on_c, 1, 72, 70
1, 32061, Note_on_c, 1, 72, 0
1, 32064, Note_on_c, 0, 77, 0
1, 32064, Note_on_c, 0, 76, 75
1, 32064, Note_on_c, 1, 72, 70
1, 32109, Note_on_c, 0, 76, 0
1, 32109, Note_on_c, 1, 72, 0
1, 32112, Note_on_c, 0, 85, 75
1, 32112, Note_on_c, 0, 82, 75
1, 32112, Note_on_c, 1, 72, 70
1, 32157, Note_on_c, 0, 85, 0
1, 32157, Note_on_c, 0, 82, 0
1, 32157, Note_on_c, 1, 72, 0
1, 32160, Note_on_c, 0, 84, 75
1, 32160, Note_on_c, 0, 80, 75
1, 32160, Note_on_c, 1, 72, 70
1, 32205, Note_on_c, 0, 84, 0
1, 32205, Note_on_c, 0, 80, 0
1, 32205, Note_on_c, 1, 72, 0
1, 32208, Note_on_c, 0, 82, 75
1, 32208, Note_on_c, 0, 79, 75
1, 32208, Note_on_c, 1, 72, 70
1, 32253, Note_on_c, 0, 82, 0
1, 32253, Note_on_c, 0, 79, 0
1, 32253, Note_on_c, 1, 72, 0
1, 32256, Note_on_c, 0, 82, 91
1, 32256, Note_on_c, 0, 79, 91
1, 32304, Note_on_c, 1, 72, 70
1, 32349, Note_on_c, 1, 72, 0
1, 32352, Note_on_c, 0, 82, 0
1, 32352, Note_on_c, 0, 79, 0
1, 32352, Note_on_c, 0, 80, 75
1, 32352, Note_on_c, 0, 77, 75
1, 32352, Note_on_c, 1, 72, 70
1, 32397, Note_on_c, 0, 80, 0
1, 32397, Note_on_c, 0, 77, 0
1, 32397, Note_on_c, 1, 72, 0
1, 32400, Note_on_c, 0, 84, 75
1, 32400, Note_on_c, 0, 80, 75
1, 32400, Note_on_c, 1, 72, 70
1, 32445, Note_on_c, 0, 84, 0
1, 32445, Note_on_c, 0, 80, 0
1, 32445, Note_on_c, 1, 72, 0
1, 32448, Note_on_c, 0, 82, 75
1, 32448, Note_on_c, 0, 79, 75
1, 32448, Note_on_c, 1, 72, 70
1, 32493, Note_on_c, 0, 82, 0
1, 32493, Note_on_c, 0, 79, 0
1, 32493, Note_on_c, 1, 72, 0
1, 32496, Note_on_c, 0, 80, 75
1, 32496, Note_on_c, 0, 77, 75
1, 32496, Note_on_c, 1, 72, 70
1, 32541, Note_on_c, 0, 80, 0
1, 32541, Note_on_c, 0, 77, 0
1, 32541, Note_on_c, 1, 72, 0
1, 32544, Note_on_c, 0, 80, 75
1, 32544, Note_on_c, 0, 77, 64
1, 32557, Note_on_c, 0, 80, 0
1, 32558, Note_on_c, 0, 82, 75
1, 32571, Note_on_c, 0, 82, 0
1, 32572, Note_on_c, 0, 80, 75
1, 32585, Note_on_c, 0, 80, 0
1, 32586, Note_on_c, 0, 82, 75
1, 32592, Note_on_c, 1, 60, 70
1, 32599, Note_on_c, 0, 82, 0
1, 32600, Note_on_c, 0, 80, 75
1, 32613, Note_on_c, 0, 80, 0
1, 32614, Note_on_c, 0, 79, 75
1, 32626, Note_on_c, 0, 79, 0
1, 32627, Note_on_c, 0, 80, 75
1, 32633, Note_on_c, 0, 77, 0
1, 32637, Note_on_c, 1, 60, 0
1, 32640, Note_on_c, 0, 80, 0
1, 32640, Note_on_c, 0, 79, 75
1, 32640, Note_on_c, 0, 76, 75
1, 32640, Note_on_c, 1, 60, 70
1, 32685, Note_on_c, 0, 79, 0
1, 32685, Note_on_c, 0, 76, 0
1, 32685, Note_on_c, 1, 60, 0
1, 32688, Note_on_c, 0, 73, 75
1, 32688, Note_on_c, 0, 70, 75
1, 32688, Note_on_c, 1, 60, 70
1, 32733, Note_on_c, 0, 73, 0
1, 32733, Note_on_c, 0, 70, 0
1, 32733, Note_on_c, 1, 60, 0
1, 32736, Note_on_c, 0, 72, 75
1, 32736, Note_on_c, 0, 68, 75
1, 32736, Note_on_c, 1, 60, 70
1, 32781, Note_on_c, 0, 72, 0
1, 32781, Note_on_c, 0, 68, 0
1, 32781, Note_on_c, 1, 60, 0
1, 32784, Note_on_c, 0, 70, 75
1, 32784, Note_on_c, 0, 67, 75
1, 32784, Note_on_c, 1, 60, 70
1, 32829, Note_on_c, 0, 70, 0
1, 32829, Note_on_c, 0, 67, 0
1, 32829, Note_on_c, 1, 60, 0
1, 32832, Note_on_c, 0, 70, 91
1, 32832, Note_on_c, 0, 67, 91
1, 32880, Note_on_c, 1, 60, 70
1, 32925, Note_on_c, 1, 60, 0
1, 32928, Note_on_c, 0, 70, 0
1, 32928, Note_on_c, 0, 67, 0
1, 32928, Note_on_c, 0, 68, 75
1, 32928, Note_on_c, 0, 65, 75
1, 32928, Note_on_c, 1, 60, 70
1, 32973, Note_on_c, 0, 68, 0
1, 32973, Note_on_c, 0, 65, 0
1, 32973, Note_on_c, 1, 60, 0
1, 32976, Note_on_c, 0, 72, 75
1, 32976, Note_on_c, 0, 68, 75
1, 32976, Note_on_c, 1, 60, 70
1, 33021, Note_on_c, 0, 72, 0
1, 33021, Note_on_c, 0, 68, 0
1, 33021, Note_on_c, 1, 60, 0
1, 33024, Note_on_c, 0, 70, 75
1, 33024, Note_on_c, 0, 67, 75
1, 33024, Note_on_c, 1, 60, 70
1, 33069, Note_on_c, 0, 70, 0
1, 33069, Note_on_c, 0, 67, 0
1, 33069, Note_on_c, 1, 60, 0
1, 33072, Note_on_c, 0, 68, 75
1, 33072, Note_on_c, 0, 65, 75
1, 33072, Note_on_c, 1, 60, 70
1, 33117, Note_on_c, 0, 68, 0
1, 33117, Note_on_c, 0, 65, 0
1, 33117, Note_on_c, 1, 60, 0
1, 33120, Note_on_c, 0, 68, 75
1, 33120, Note_on_c, 0, 65, 64
1, 33120, Note_on_c, 1, 60, 70
1, 33133, Note_on_c, 0, 68, 0
1, 33134, Note_on_c, 0, 70, 75
1, 33147, Note_on_c, 0, 70, 0
1, 33148, Note_on_c, 0, 68, 75
1, 33161, Note_on_c, 0, 68, 0
1, 33162, Note_on_c, 0, 70, 75
1, 33175, Note_on_c, 0, 70, 0
1, 33176, Note_on_c, 0, 68, 75
1, 33189, Note_on_c, 0, 68, 0
1, 33190, Note_on_c, 0, 67, 75
1, 33202, Note_on_c, 0, 67, 0
1, 33203, Note_on_c, 0, 68, 75
1, 33209, Note_on_c, 0, 65, 0
1, 33215, Note_on_c, 0, 68, 0
1, 33216, Note_on_c, 0, 67, 75
1, 33216, Note_on_c, 0, 64, 75
1, 33297, Note_on_c, 1, 60, 0
1, 33305, Note_on_c, 0, 67, 0
1, 33305, Note_on_c, 0, 64, 0
1, 33408, Note_on_c, 0, 80, 81
1, 33408, Note_on_c, 1, 56, 81
1, 33408, Note_on_c, 1, 51, 81
1, 33408, Note_on_c, 1, 48, 81
1, 33408, Note_on_c, 1, 44, 81
1, 33431, Note_on_c, 0, 80, 0
1, 33432, Note_on_c, 0, 84, 81
1, 33455, Note_on_c, 0, 84, 0
1, 33456, Note_on_c, 0, 82, 81
1, 33479, Note_on_c, 0, 82, 0
1, 33480, Note_on_c, 0, 80, 81
1, 33503, Note_on_c, 0, 80, 0
1, 33504, Note_on_c, 0, 79, 81
1, 33527, Note_on_c, 0, 79, 0
1, 33528, Note_on_c, 0, 77, 81
1, 33551, Note_on_c, 0, 77, 0
1, 33552, Note_on_c, 0, 75, 81
1, 33575, Note_on_c, 0, 75, 0
1, 33576, Note_on_c, 0, 73, 81
1, 33599, Note_on_c, 0, 73, 0
1, 33600, Note_on_c, 0, 72, 81
1, 33623, Note_on_c, 0, 72, 0
1, 33624, Note_on_c, 0, 70, 81
1, 33647, Note_on_c, 0, 70, 0
1, 33648, Note_on_c, 0, 68, 81
1, 33671, Note_on_c, 0, 68, 0
1, 33672, Note_on_c, 0, 67, 81
1, 33695, Note_on_c, 0, 67, 0
1, 33696, Note_on_c, 0, 68, 81
1, 33719, Note_on_c, 0, 68, 0
1, 33720, Note_on_c, 0, 72, 81
1, 33743, Note_on_c, 0, 72, 0
1, 33744, Note_on_c, 0, 70, 81
1, 33767, Note_on_c, 0, 70, 0
1, 33768, Note_on_c, 0, 68, 81
1, 33791, Note_on_c, 0, 68, 0
1, 33792, Note_on_c, 0, 67, 81
1, 33815, Note_on_c, 0, 67, 0
1, 33816, Note_on_c, 0, 65, 81
1, 33839, Note_on_c, 0, 65, 0
1, 33840, Note_on_c, 0, 63, 81
1, 33863, Note_on_c, 0, 63, 0
1, 33864, Note_on_c, 0, 61, 81
1, 33887, Note_on_c, 0, 61, 0
1, 33888, Note_on_c, 0, 60, 81
1, 33911, Note_on_c, 0, 60, 0
1, 33912, Note_on_c, 0, 58, 78
1, 33935, Note_on_c, 0, 58, 0
1, 33936, Note_on_c, 0, 56, 76
1, 33959, Note_on_c, 0, 56, 0
1, 33960, Note_on_c, 0, 55, 74
1, 33961, Note_on_c, 1, 56, 0
1, 33961, Note_on_c, 1, 51, 0
1, 33961, Note_on_c, 1, 48, 0
1, 33961, Note_on_c, 1, 44, 0
1, 33983, Note_on_c, 0, 55, 0
1, 33984, Note_on_c, 0, 56, 88
1, 34032, Note_on_c, 1, 48, 70
1, 34032, Note_on_c, 1, 44, 70
1, 34077, Note_on_c, 1, 48, 0
1, 34077, Note_on_c, 1, 44, 0
1, 34080, Note_on_c, 1, 48, 70
1, 34080, Note_on_c, 1, 44, 70
1, 34125, Note_on_c, 0, 56, 0
1, 34125, Note_on_c, 1, 48, 0
1, 34125, Note_on_c, 1, 44, 0
1, 34128, Note_on_c, 0, 54, 64
1, 34128, Note_on_c, 1, 48, 70
1, 34128, Note_on_c, 1, 44, 70
1, 34173, Note_on_c, 0, 54, 0
1, 34173, Note_on_c, 1, 48, 0
1, 34173, Note_on_c, 1, 44, 0
1, 34176, Note_on_c, 0, 63, 64
1, 34176, Note_on_c, 1, 48, 70
1, 34176, Note_on_c, 1, 44, 70
1, 34221, Note_on_c, 0, 63, 0
1, 34221, Note_on_c, 1, 48, 0
1, 34221, Note_on_c, 1, 44, 0
1, 34224, Note_on_c, 0, 54, 65
1, 34224, Note_on_c, 1, 48, 70
1, 34224, Note_on_c, 1, 44, 70
1, 34269, Note_on_c, 0, 54, 0
1, 34269, Note_on_c, 1, 48, 0
1, 34269, Note_on_c, 1, 44, 0
1, 34272, Note_on_c, 0, 54, 81
1, 34320, Note_on_c, 1, 48, 71
1, 34320, Note_on_c, 1, 45, 71
1, 34365, Note_on_c, 1, 48, 0
1, 34365, Note_on_c, 1, 45, 0
1, 34368, Note_on_c, 1, 48, 71
1, 34368, Note_on_c, 1, 45, 71
1, 34413, Note_on_c, 0, 54, 0
1, 34413, Note_on_c, 1, 48, 0
1, 34413, Note_on_c, 1, 45, 0
1, 34416, Note_on_c, 0, 53, 67
1, 34416, Note_on_c, 1, 48, 71
1, 34416, Note_on_c, 1, 45, 71
1, 34461, Note_on_c, 0, 53, 0
1, 34461, Note_on_c, 1, 48, 0
1, 34461, Note_on_c, 1, 45, 0
1, 34464, Note_on_c, 0, 63, 67
1, 34464, Note_on_c, 1, 48, 72
1, 34464, Note_on_c, 1, 45, 72
1, 34509, Note_on_c, 0, 63, 0
1, 34509, Note_on_c, 1, 48, 0
1, 34509, Note_on_c, 1, 45, 0
1, 34512, Note_on_c, 0, 60, 68
1, 34512, Note_on_c, 1, 53, 72
1, 34512, Note_on_c, 1, 45, 72
1, 34557, Note_on_c, 0, 60, 0
1, 34557, Note_on_c, 1, 53, 0
1, 34557, Note_on_c, 1, 45, 0
1, 34560, Note_on_c, 0, 61, 84
1, 34608, Note_on_c, 1, 53, 73
1, 34608, Note_on_c, 1, 46, 73
1, 34653, Note_on_c, 1, 53, 0
1, 34653, Note_on_c, 1, 46, 0
1, 34656, Note_on_c, 1, 53, 73
1, 34656, Note_on_c, 1, 46, 73
1, 34701, Note_on_c, 0, 61, 0
1, 34701, Note_on_c, 1, 53, 0
1, 34701, Note_on_c, 1, 46, 0
1, 34704, Note_on_c, 0, 58, 70
1, 34704, Note_on_c, 1, 53, 73
1, 34704, Note_on_c, 1, 46, 73
1, 34749, Note_on_c, 0, 58, 0
1, 34749, Note_on_c, 1, 53, 0
1, 34749, Note_on_c, 1, 46, 0
1, 34752, Note_on_c, 0, 65, 70
1, 34752, Note_on_c, 1, 53, 74
1, 34752, Note_on_c, 1, 46, 74
1, 34797, Note_on_c, 0, 65, 0
1, 34797, Note_on_c, 1, 53, 0
1, 34797, Note_on_c, 1, 46, 0
1, 34800, Note_on_c, 0, 56, 71
1, 34800, Note_on_c, 1, 53, 74
1, 34800, Note_on_c, 1, 46, 74
1, 34845, Note_on_c, 0, 56, 0
1, 34845, Note_on_c, 1, 53, 0
1, 34845, Note_on_c, 1, 46, 0
1, 34848, Note_on_c, 0, 56, 87
1, 34896, Note_on_c, 1, 53, 75
1, 34896, Note_on_c, 1, 47, 75
1, 34941, Note_on_c, 1, 53, 0
1, 34941, Note_on_c, 1, 47, 0
1, 34944, Note_on_c, 1, 53, 75
1, 34944, Note_on_c, 1, 47, 75
1, 34989, Note_on_c, 0, 56, 0
1, 34989, Note_on_c, 1, 53, 0
1, 34989, Note_on_c, 1, 47, 0
1, 34992, Note_on_c, 0, 55, 73
1, 34992, Note_on_c, 1, 53, 75
1, 34992, Note_on_c, 1, 47, 75
1, 35037, Note_on_c, 0, 55, 0
1, 35037, Note_on_c, 1, 53, 0
1, 35037, Note_on_c, 1, 47, 0
1, 35040, Note_on_c, 0, 65, 73
1, 35040, Note_on_c, 1, 50, 75
1, 35040, Note_on_c, 1, 47, 75
1, 35085, Note_on_c, 0, 65, 0
1, 35085, Note_on_c, 1, 50, 0
1, 35085, Note_on_c, 1, 47, 0
1, 35088, Note_on_c, 0, 62, 74
1, 35088, Note_on_c, 1, 55, 76
1, 35088, Note_on_c, 1, 47, 76
1, 35133, Note_on_c, 0, 62, 0
1, 35133, Note_on_c, 1, 55, 0
1, 35133, Note_on_c, 1, 47, 0
1, 35136, Note_on_c, 0, 63, 90
1, 35184, Note_on_c, 1, 55, 76
1, 35184, Note_on_c, 1, 48, 76
1, 35229, Note_on_c, 1, 55, 0
1, 35229, Note_on_c, 1, 48, 0
1, 35232, Note_on_c, 1, 55, 77
1, 35232, Note_on_c, 1, 48, 77
1, 35277, Note_on_c, 0, 63, 0
1, 35277, Note_on_c, 1, 55, 0
1, 35277, Note_on_c, 1, 48, 0
1, 35280, Note_on_c, 0, 60, 76
1, 35280, Note_on_c, 1, 55, 77
1, 35280, Note_on_c, 1, 48, 77
1, 35325, Note_on_c, 0, 60, 0
1, 35325, Note_on_c, 1, 55, 0
1, 35325, Note_on_c, 1, 48, 0
1, 35328, Note_on_c, 0, 67, 76
1, 35328, Note_on_c, 1, 51, 77
1, 35328, Note_on_c, 1, 48, 77
1, 35373, Note_on_c, 0, 67, 0
1, 35373, Note_on_c, 1, 51, 0
1, 35373, Note_on_c, 1, 48, 0
1, 35376, Note_on_c, 0, 63, 77
1, 35376, Note_on_c, 1, 55, 78
1, 35376, Note_on_c, 1, 48, 78
1, 35421, Note_on_c, 0, 63, 0
1, 35421, Note_on_c, 1, 55, 0
1, 35421, Note_on_c, 1, 48, 0
1, 35424, Note_on_c, 0, 68, 93
1, 35472, Note_on_c, 1, 53, 78
1, 35472, Note_on_c, 1, 41, 78
1, 35517, Note_on_c, 1, 53, 0
1, 35517, Note_on_c, 1, 41, 0
1, 35520, Note_on_c, 1, 53, 79
1, 35520, Note_on_c, 1, 41, 79
1, 35565, Note_on_c, 0, 68, 0
1, 35565, Note_on_c, 1, 53, 0
1, 35565, Note_on_c, 1, 41, 0
1, 35568, Note_on_c, 0, 65, 79
1, 35568, Note_on_c, 1, 53, 79
1, 35568, Note_on_c, 1, 41, 79
1, 35613, Note_on_c, 0, 65, 0
1, 35613, Note_on_c, 1, 53, 0
1, 35613, Note_on_c, 1, 41, 0
1, 35616, Note_on_c, 0, 62, 79
1, 35616, Note_on_c, 1, 53, 79
1, 35616, Note_on_c, 1, 41, 79
1, 35661, Note_on_c, 0, 62, 0
1, 35661, Note_on_c, 1, 53, 0
1, 35661, Note_on_c, 1, 41, 0
1, 35664, Note_on_c, 0, 60, 80
1, 35664, Note_on_c, 1, 53, 80
1, 35664, Note_on_c, 1, 41, 80
1, 35709, Note_on_c, 0, 60, 0
1, 35709, Note_on_c, 1, 53, 0
1, 35709, Note_on_c, 1, 41, 0
1, 35712, Note_on_c, 1, 43, 80
1, 35712, Note_on_c, 1, 31, 80
1, 35736, Note_on_c, 0, 55, 80
1, 35759, Note_on_c, 0, 55, 0
1, 35760, Note_on_c, 0, 55, 81
1, 35783, Note_on_c, 0, 55, 0
1, 35784, Note_on_c, 0, 55, 81
1, 35801, Note_on_c, 1, 43, 0
1, 35801, Note_on_c, 1, 31, 0
1, 35807, Note_on_c, 0, 55, 0
1, 35808, Note_on_c, 1, 47, 81
1, 35808, Note_on_c, 1, 35, 81
1, 35832, Note_on_c, 0, 59, 81
1, 35855, Note_on_c, 0, 59, 0
1, 35856, Note_on_c, 0, 59, 81
1, 35879, Note_on_c, 0, 59, 0
1, 35880, Note_on_c, 0, 59, 81
1, 35897, Note_on_c, 1, 47, 0
1, 35897, Note_on_c, 1, 35, 0
1, 35903, Note_on_c, 0, 59, 0
1, 35904, Note_on_c, 1, 50, 81
1, 35904, Note_on_c, 1, 38, 81
1, 35928, Note_on_c, 0, 62, 81
1, 35951, Note_on_c, 0, 62, 0
1, 35952, Note_on_c, 0, 62, 81
1, 35975, Note_on_c, 0, 62, 0
1, 35976, Note_on_c, 0, 62, 81
1, 35993, Note_on_c, 1, 50, 0
1, 35993, Note_on_c, 1, 38, 0
1, 35999, Note_on_c, 0, 62, 0
1, 36000, Note_on_c, 1, 55, 81
1, 36000, Note_on_c, 1, 43, 81
1, 36048, Note_on_c, 0, 67, 81
1, 36071, Note_on_c, 0, 67, 0
1, 36072, Note_on_c, 0, 69, 81
1, 36089, Note_on_c, 1, 55, 0
1, 36089, Note_on_c, 1, 43, 0
1, 36095, Note_on_c, 0, 69, 0
1, 36096, Note_on_c, 0, 71, 81
1, 36119, Note_on_c, 0, 71, 0
1, 36120, Note_on_c, 0, 67, 81
1, 36143, Note_on_c, 0, 67, 0
1, 36144, Note_on_c, 0, 71, 81
1, 36167, Note_on_c, 0, 71, 0
1, 36168, Note_on_c, 0, 72, 81
1, 36191, Note_on_c, 0, 72, 0
1, 36192, Note_on_c, 0, 74, 81
1, 36215, Note_on_c, 0, 74, 0
1, 36216, Note_on_c, 0, 71, 81
1, 36239, Note_on_c, 0, 71, 0
1, 36240, Note_on_c, 0, 74, 81
1, 36263, Note_on_c, 0, 74, 0
1, 36264, Note_on_c, 0, 75, 81
1, 36287, Note_on_c, 0, 75, 0
1, 36288, Note_on_c, 0, 77, 81
1, 36288, Note_on_c, 1, 43, 81
1, 36288, Note_on_c, 1, 31, 81
1, 36311, Note_on_c, 0, 77, 0
1, 36312, Note_on_c, 0, 74, 81
1, 36335, Note_on_c, 0, 74, 0
1, 36336, Note_on_c, 0, 83, 81
1, 36359, Note_on_c, 0, 83, 0
1, 36360, Note_on_c, 0, 84, 81
1, 36377, Note_on_c, 1, 43, 0
1, 36377, Note_on_c, 1, 31, 0
1, 36383, Note_on_c, 0, 84, 0
1, 36384, Note_on_c, 0, 86, 81
1, 36407, Note_on_c, 0, 86, 0
1, 36408, Note_on_c, 0, 84, 81
1, 36431, Note_on_c, 0, 84, 0
1, 36432, Note_on_c, 0, 83, 81
1, 36432, Note_on_c, 1, 55, 81
1, 36452, Note_on_c, 1, 55, 0
1, 36455, Note_on_c, 0, 83, 0
1, 36456, Note_on_c, 0, 80, 81
1, 36479, Note_on_c, 0, 80, 0
1, 36480, Note_on_c, 0, 79, 81
1, 36480, Note_on_c, 1, 57, 81
1, 36500, Note_on_c, 1, 57, 0
1, 36503, Note_on_c, 0, 79, 0
1, 36504, Note_on_c, 0, 77, 81
1, 36527, Note_on_c, 0, 77, 0
1, 36528, Note_on_c, 0, 75, 81
1, 36528, Note_on_c, 1, 59, 81
1, 36548, Note_on_c, 1, 59, 0
1, 36551, Note_on_c, 0, 75, 0
1, 36552, Note_on_c, 0, 74, 81
1, 36575, Note_on_c, 0, 74, 0
1, 36576, Note_on_c, 0, 75, 81
1, 36576, Note_on_c, 1, 60, 81
1, 36599, Note_on_c, 0, 75, 0
1, 36600, Note_on_c, 0, 77, 81
1, 36623, Note_on_c, 0, 77, 0
1, 36624, Note_on_c, 0, 79, 81
1, 36647, Note_on_c, 0, 79, 0
1, 36648, Note_on_c, 0, 77, 81
1, 36665, Note_on_c, 1, 60, 0
1, 36671, Note_on_c, 0, 77, 0
1, 36672, Note_on_c, 0, 75, 81
1, 36672, Note_on_c, 1, 62, 81
1, 36695, Note_on_c, 0, 75, 0
1, 36696, Note_on_c, 0, 74, 81
1, 36719, Note_on_c, 0, 74, 0
1, 36720, Note_on_c, 0, 72, 81
1, 36743, Note_on_c, 0, 72, 0
1, 36744, Note_on_c, 0, 71, 81
1, 36761, Note_on_c, 1, 62, 0
1, 36767, Note_on_c, 0, 71, 0
1, 36768, Note_on_c, 0, 72, 81
1, 36768, Note_on_c, 1, 63, 81
1, 36791, Note_on_c, 0, 72, 0
1, 36792, Note_on_c, 0, 83, 81
1, 36815, Note_on_c, 0, 83, 0
1, 36816, Note_on_c, 0, 84, 81
1, 36839, Note_on_c, 0, 84, 0
1, 36840, Note_on_c, 0, 79, 81
1, 36857, Note_on_c, 1, 63, 0
1, 36863, Note_on_c, 0, 79, 0
1, 36864, Note_on_c, 0, 82, 81
1, 36864, Note_on_c, 1, 65, 81
1, 36887, Note_on_c, 0, 82, 0
1, 36888, Note_on_c, 0, 80, 80
1, 36911, Note_on_c, 0, 80, 0
1, 36912, Note_on_c, 0, 79, 80
1, 36935, Note_on_c, 0, 79, 0
1, 36936, Note_on_c, 0, 77, 79
1, 36953, Note_on_c, 1, 65, 0
1, 36959, Note_on_c, 0, 77, 0
1, 36960, Note_on_c, 0, 75, 79
1, 36960, Note_on_c, 1, 67, 79
1, 37049, Note_on_c, 0, 75, 0
1, 37049, Note_on_c, 1, 67, 0
1, 37056, Note_on_c, 0, 74, 77
1, 37056, Note_on_c, 1, 55, 77
1, 37069, Note_on_c, 0, 74, 0
1, 37070, Note_on_c, 0, 75, 76
1, 37083, Note_on_c, 0, 75, 0
1, 37084, Note_on_c, 0, 74, 76
1, 37097, Note_on_c, 0, 74, 0
1, 37098, Note_on_c, 0, 75, 76
1, 37111, Note_on_c, 0, 75, 0
1, 37112, Note_on_c, 0, 74, 76
1, 37125, Note_on_c, 0, 74, 0
1, 37126, Note_on_c, 0, 72, 75
1, 37138, Note_on_c, 0, 72, 0
1, 37139, Note_on_c, 0, 74, 75
1, 37145, Note_on_c, 1, 55, 0
1, 37151, Note_on_c, 0, 74, 0
1, 37152, Note_on_c, 0, 72, 75
1, 37152, Note_on_c, 1, 60, 75
1, 37172, Note_on_c, 0, 72, 0
1, 37200, Note_on_c, 0, 67, 75
1, 37223, Note_on_c, 0, 67, 0
1, 37224, Note_on_c, 0, 68, 75
1, 37241, Note_on_c, 1, 60, 0
1, 37247, Note_on_c, 0, 68, 0
1, 37248, Note_on_c, 0, 67, 75
1, 37293, Note_on_c, 0, 67, 0
1, 37296, Note_on_c, 0, 67, 75
1, 37341, Note_on_c, 0, 67, 0
1, 37344, Note_on_c, 0, 67, 75
1, 37389, Note_on_c, 0, 67, 0
1, 37392, Note_on_c, 0, 67, 75
1, 37437, Note_on_c, 0, 67, 0
1, 37440, Note_on_c, 0, 68, 75
1, 37488, Note_on_c, 1, 63, 75
1, 37488, Note_on_c, 1, 60, 75
1, 37511, Note_on_c, 1, 63, 0
1, 37511, Note_on_c, 1, 60, 0
1, 37512, Note_on_c, 1, 65, 75
1, 37512, Note_on_c, 1, 62, 75
1, 37535, Note_on_c, 1, 65, 0
1, 37535, Note_on_c, 1, 62, 0
1, 37536, Note_on_c, 1, 63, 75
1, 37536, Note_on_c, 1, 60, 75
1, 37581, Note_on_c, 1, 63, 0
1, 37581, Note_on_c, 1, 60, 0
1, 37584, Note_on_c, 1, 63, 75
1, 37584, Note_on_c, 1, 60, 75
1, 37629, Note_on_c, 1, 63, 0
1, 37629, Note_on_c, 1, 60, 0
1, 37632, Note_on_c, 1, 63, 75
1, 37632, Note_on_c, 1, 60, 75
1, 37677, Note_on_c, 1, 63, 0
1, 37677, Note_on_c, 1, 60, 0
1, 37680, Note_on_c, 1, 63, 75
1, 37680, Note_on_c, 1, 60, 75
1, 37725, Note_on_c, 1, 63, 0
1, 37725, Note_on_c, 1, 60, 0
1, 37728, Note_on_c, 0, 62, 75
1, 37728, Note_on_c, 1, 58, 75
1, 37748, Note_on_c, 0, 68, 0
1, 37748, Note_on_c, 0, 62, 0
1, 37776, Note_on_c, 0, 68, 75
1, 37776, Note_on_c, 0, 65, 75
1, 37799, Note_on_c, 0, 68, 0
1, 37799, Note_on_c, 0, 65, 0
1, 37800, Note_on_c, 0, 70, 75
1, 37800, Note_on_c, 0, 67, 75
1, 37823, Note_on_c, 0, 70, 0
1, 37823, Note_on_c, 0, 67, 0
1, 37824, Note_on_c, 0, 68, 75
1, 37824, Note_on_c, 0, 65, 75
1, 37869, Note_on_c, 0, 68, 0
1, 37869, Note_on_c, 0, 65, 0
1, 37872, Note_on_c, 0, 72, 75
1, 37872, Note_on_c, 0, 68, 75
1, 37917, Note_on_c, 0, 72, 0
1, 37917, Note_on_c, 0, 68, 0
1, 37920, Note_on_c, 0, 70, 75
1, 37920, Note_on_c, 0, 67, 75
1, 37965, Note_on_c, 0, 70, 0
1, 37965, Note_on_c, 0, 67, 0
1, 37968, Note_on_c, 0, 68, 75
1, 37968, Note_on_c, 0, 65, 75
1, 37993, Note_on_c, 1, 58, 0
1, 38013, Note_on_c, 0, 68, 0
1, 38013, Note_on_c, 0, 65, 0
1, 38016, Note_on_c, 1, 46, 75
1, 38016, Note_on_c, 1, 34, 75
1, 38064, Note_on_c, 0, 67, 75
1, 38064, Note_on_c, 0, 63, 75
1, 38087, Note_on_c, 0, 67, 0
1, 38087, Note_on_c, 0, 63, 0
1, 38088, Note_on_c, 0, 68, 75
1, 38088, Note_on_c, 0, 65, 75
1, 38111, Note_on_c, 0, 68, 0
1, 38111, Note_on_c, 0, 65, 0
1, 38112, Note_on_c, 0, 67, 75
1, 38112, Note_on_c, 0, 63, 75
1, 38157, Note_on_c, 0, 67, 0
1, 38157, Note_on_c, 0, 63, 0
1, 38160, Note_on_c, 0, 70, 75
1, 38160, Note_on_c, 0, 67, 75
1, 38205, Note_on_c, 0, 70, 0
1, 38205, Note_on_c, 0, 67, 0
1, 38208, Note_on_c, 0, 68, 75
1, 38208, Note_on_c, 0, 65, 75
1, 38253, Note_on_c, 0, 68, 0
1, 38253, Note_on_c, 0, 65, 0
1, 38256, Note_on_c, 0, 67, 75
1, 38256, Note_on_c, 0, 63, 75
1, 38301, Note_on_c, 0, 67, 0
1, 38301, Note_on_c, 0, 63, 0
1, 38304, Note_on_c, 0, 65, 75
1, 38304, Note_on_c, 0, 62, 75
1, 38349, Note_on_c, 0, 65, 0
1, 38349, Note_on_c, 0, 62, 0
1, 38352, Note_on_c, 0, 63, 75
1, 38352, Note_on_c, 0, 60, 75
1, 38397, Note_on_c, 0, 63, 0
1, 38397, Note_on_c, 0, 60, 0
1, 38400, Note_on_c, 0, 62, 75
1, 38400, Note_on_c, 0, 58, 75
1, 38445, Note_on_c, 0, 62, 0
1, 38445, Note_on_c, 0, 58, 0
1, 38448, Note_on_c, 0, 60, 75
1, 38448, Note_on_c, 0, 56, 75
1, 38493, Note_on_c, 0, 60, 0
1, 38493, Note_on_c, 0, 56, 0
1, 38496, Note_on_c, 0, 58, 75
1, 38496, Note_on_c, 0, 55, 75
1, 38541, Note_on_c, 0, 58, 0
1, 38541, Note_on_c, 0, 55, 0
1, 38544, Note_on_c, 0, 56, 75
1, 38544, Note_on_c, 0, 53, 75
1, 38569, Note_on_c, 1, 46, 0
1, 38569, Note_on_c, 1, 34, 0
1, 38589, Note_on_c, 0, 56, 0
1, 38589, Note_on_c, 0, 53, 0
1, 38592, Note_on_c, 1, 55, 75
1, 38592, Note_on_c, 1, 51, 75
1, 38640, Note_on_c, 0, 70, 75
1, 38685, Note_on_c, 0, 70, 0
1, 38688, Note_on_c, 0, 70, 75
1, 38736, Note_on_c, 0, 70, 0
1, 38736, Note_on_c, 0, 75, 75
1, 38769, Note_on_c, 1, 55, 0
1, 38769, Note_on_c, 1, 51, 0
1, 38781, Note_on_c, 0, 75, 0
1, 38784, Note_on_c, 0, 75, 75
1, 38784, Note_on_c, 1, 67, 75
1, 38832, Note_on_c, 0, 75, 0
1, 38832, Note_on_c, 0, 74, 75
1, 38873, Note_on_c, 1, 67, 0
1, 38877, Note_on_c, 0, 74, 0
1, 38880, Note_on_c, 1, 68, 75
1, 38919, Note_on_c, 1, 68, 0
1, 38928, Note_on_c, 0, 72, 75
1, 38973, Note_on_c, 0, 72, 0
1, 38976, Note_on_c, 1, 67, 75
1, 39015, Note_on_c, 1, 67, 0
1, 39024, Note_on_c, 0, 70, 75
1, 39069, Note_on_c, 0, 70, 0
1, 39072, Note_on_c, 1, 65, 75
1, 39111, Note_on_c, 1, 65, 0
1, 39120, Note_on_c, 0, 68, 75
1, 39165, Note_on_c, 0, 68, 0
1, 39168, Note_on_c, 1, 63, 75
1, 39192, Note_on_c, 0, 67, 75
1, 39215, Note_on_c, 0, 67, 0
1, 39216, Note_on_c, 0, 70, 75
1, 39239, Note_on_c, 0, 70, 0
1, 39240, Note_on_c, 0, 67, 75
1, 39257, Note_on_c, 1, 63, 0
1, 39263, Note_on_c, 0, 67, 0
1, 39264, Note_on_c, 0, 75, 75
1, 39287, Note_on_c, 0, 75, 0
1, 39288, Note_on_c, 0, 70, 75
1, 39311, Note_on_c, 0, 70, 0
1, 39312, Note_on_c, 0, 79, 75
1, 39335, Note_on_c, 0, 79, 0
1, 39336, Note_on_c, 0, 77, 75
1, 39359, Note_on_c, 0, 77, 0
1, 39360, Note_on_c, 0, 75, 75
1, 39360, Note_on_c, 1, 67, 75
1, 39383, Note_on_c, 0, 75, 0
1, 39384, Note_on_c, 0, 74, 75
1, 39407, Note_on_c, 0, 74, 0
1, 39408, Note_on_c, 0, 72, 75
1, 39431, Note_on_c, 0, 72, 0
1, 39432, Note_on_c, 0, 70, 75
1, 39449, Note_on_c, 1, 67, 0
1, 39455, Note_on_c, 0, 70, 0
1, 39456, Note_on_c, 1, 68, 75
1, 39480, Note_on_c, 0, 72, 75
1, 39495, Note_on_c, 1, 68, 0
1, 39503, Note_on_c, 0, 72, 0
1, 39504, Note_on_c, 0, 71, 75
1, 39527, Note_on_c, 0, 71, 0
1, 39528, Note_on_c, 0, 72, 75
1, 39551, Note_on_c, 0, 72, 0
1, 39552, Note_on_c, 1, 67, 75
1, 39576, Note_on_c, 0, 70, 75
1, 39591, Note_on_c, 1, 67, 0
1, 39599, Note_on_c, 0, 70, 0
1, 39600, Note_on_c, 0, 69, 75
1, 39623, Note_on_c, 0, 69, 0
1, 39624, Note_on_c, 0, 70, 75
1, 39647, Note_on_c, 0, 70, 0
1, 39648, Note_on_c, 1, 65, 75
1, 39672, Note_on_c, 0, 68, 75
1, 39687, Note_on_c, 1, 65, 0
1, 39695, Note_on_c, 0, 68, 0
1, 39696, Note_on_c, 0, 67, 75
1, 39719, Note_on_c, 0, 67, 0
1, 39720, Note_on_c, 0, 68, 75
1, 39743, Note_on_c, 0, 68, 0
1, 39744, Note_on_c, 1, 63, 75
1, 39768, Note_on_c, 0, 67, 75
1, 39791, Note_on_c, 0, 67, 0
1, 39792, Note_on_c, 0, 68, 75
1, 39815, Note_on_c, 0, 68, 0
1, 39816, Note_on_c, 0, 70, 75
1, 39833, Note_on_c, 1, 63, 0
1, 39839, Note_on_c, 0, 70, 0
1, 39840, Note_on_c, 0, 72, 75
1, 39863, Note_on_c, 0, 72, 0
1, 39864, Note_on_c, 0, 74, 75
1, 39887, Note_on_c, 0, 74, 0
1, 39888, Note_on_c, 0, 75, 75
1, 39911, Note_on_c, 0, 75, 0
1, 39912, Note_on_c, 0, 77, 75
1, 39935, Note_on_c, 0, 77, 0
1, 39936, Note_on_c, 0, 79, 75
1, 39959, Note_on_c, 0, 79, 0
1, 39960, Note_on_c, 0, 75, 75
1, 39983, Note_on_c, 0, 75, 0
1, 39984, Note_on_c, 0, 74, 75
1, 40007, Note_on_c, 0, 74, 0
1, 40008, Note_on_c, 0, 72, 75
1, 40031, Note_on_c, 0, 72, 0
1, 40032, Note_on_c, 0, 70, 75
1, 40080, Note_on_c, 1, 51, 75
1, 40103, Note_on_c, 1, 51, 0
1, 40104, Note_on_c, 1, 53, 75
1, 40127, Note_on_c, 1, 53, 0
1, 40128, Note_on_c, 1, 55, 75
1, 40165, Note_on_c, 0, 70, 0
1, 40173, Note_on_c, 1, 55, 0
1, 40176, Note_on_c, 0, 67, 75
1, 40176, Note_on_c, 1, 51, 75
1, 40221, Note_on_c, 0, 67, 0
1, 40221, Note_on_c, 1, 51, 0
1, 40224, Note_on_c, 0, 68, 75
1, 40224, Note_on_c, 1, 53, 75
1, 40237, Note_on_c, 0, 68, 0
1, 40238, Note_on_c, 0, 70, 75
1, 40251, Note_on_c, 0, 70, 0
1, 40252, Note_on_c, 0, 68, 75
1, 40265, Note_on_c, 0, 68, 0
1, 40266, Note_on_c, 0, 70, 75
1, 40269, Note_on_c, 1, 53, 0
1, 40272, Note_on_c, 1, 46, 75
1, 40279, Note_on_c, 0, 70, 0
1, 40280, Note_on_c, 0, 68, 75
1, 40293, Note_on_c, 0, 68, 0
1, 40294, Note_on_c, 0, 67, 75
1, 40306, Note_on_c, 0, 67, 0
1, 40307, Note_on_c, 0, 68, 75
1, 40317, Note_on_c, 1, 46, 0
1, 40319, Note_on_c, 0, 68, 0
1, 40320, Note_on_c, 0, 67, 75
1, 40320, Note_on_c, 1, 51, 75
1, 40343, Note_on_c, 0, 67, 0
1, 40344, Note_on_c, 0, 63, 75
1, 40367, Note_on_c, 0, 63, 0
1, 40368, Note_on_c, 0, 62, 75
1, 40391, Note_on_c, 0, 62, 0
1, 40392, Note_on_c, 0, 63, 75
1, 40409, Note_on_c, 1, 51, 0
1, 40415, Note_on_c, 0, 63, 0
1, 40416, Note_on_c, 0, 65, 75
1, 40439, Note_on_c, 0, 65, 0
1, 40440, Note_on_c, 0, 63, 75
1, 40463, Note_on_c, 0, 63, 0
1, 40464, Note_on_c, 0, 62, 75
1, 40487, Note_on_c, 0, 62, 0
1, 40488, Note_on_c, 0, 63, 75
1, 40511, Note_on_c, 0, 63, 0
1, 40512, Note_on_c, 0, 67, 75
1, 40512, Note_on_c, 1, 43, 75
1, 40535, Note_on_c, 0, 67, 0
1, 40536, Note_on_c, 0, 65, 75
1, 40551, Note_on_c, 1, 43, 0
1, 40559, Note_on_c, 0, 65, 0
1, 40560, Note_on_c, 0, 63, 75
1, 40583, Note_on_c, 0, 63, 0
1, 40584, Note_on_c, 0, 62, 75
1, 40607, Note_on_c, 0, 62, 0
1, 40608, Note_on_c, 0, 60, 75
1, 40608, Note_on_c, 1, 44, 75
1, 40631, Note_on_c, 0, 60, 0
1, 40632, Note_on_c, 0, 68, 75
1, 40647, Note_on_c, 1, 44, 0
1, 40655, Note_on_c, 0, 68, 0
1, 40656, Note_on_c, 0, 72, 75
1, 40679, Note_on_c, 0, 72, 0
1, 40680, Note_on_c, 0, 70, 75
1, 40703, Note_on_c, 0, 70, 0
1, 40704, Note_on_c, 0, 68, 75
1, 40727, Note_on_c, 0, 68, 0
1, 40728, Note_on_c, 0, 67, 75
1, 40751, Note_on_c, 0, 67, 0
1, 40752, Note_on_c, 0, 65, 75
1, 40775, Note_on_c, 0, 65, 0
1, 40776, Note_on_c, 0, 63, 75
1, 40799, Note_on_c, 0, 63, 0
1, 40800, Note_on_c, 0, 62, 75
1, 40800, Note_on_c, 1, 46, 75
1, 40823, Note_on_c, 0, 62, 0
1, 40824, Note_on_c, 0, 60, 75
1, 40839, Note_on_c, 1, 46, 0
1, 40847, Note_on_c, 0, 60, 0
1, 40848, Note_on_c, 0, 58, 75
1, 40871, Note_on_c, 0, 58, 0
1, 40872, Note_on_c, 0, 56, 75
1, 40895, Note_on_c, 0, 56, 0
1, 40896, Note_on_c, 0, 55, 75
1, 40896, Note_on_c, 1, 51, 75
1, 40919, Note_on_c, 0, 55, 0
1, 40920, Note_on_c, 0, 63, 75
1, 40935, Note_on_c, 1, 51, 0
1, 40943, Note_on_c, 0, 63, 0
1, 40944, Note_on_c, 0, 62, 75
1, 40967, Note_on_c, 0, 62, 0
1, 40968, Note_on_c, 0, 63, 75
1, 40991, Note_on_c, 0, 63, 0
1, 40992, Note_on_c, 0, 65, 75
1, 41015, Note_on_c, 0, 65, 0
1, 41016, Note_on_c, 0, 63, 75
1, 41039, Note_on_c, 0, 63, 0
1, 41040, Note_on_c, 0, 62, 75
1, 41063, Note_on_c, 0, 62, 0
1, 41064, Note_on_c, 0, 63, 75
1, 41087, Note_on_c, 0, 63, 0
1, 41088, Note_on_c, 0, 67, 75
1, 41088, Note_on_c, 1, 43, 75
1, 41111, Note_on_c, 0, 67, 0
1, 41112, Note_on_c, 0, 65, 75
1, 41127, Note_on_c, 1, 43, 0
1, 41135, Note_on_c, 0, 65, 0
1, 41136, Note_on_c, 0, 63, 75
1, 41159, Note_on_c, 0, 63, 0
1, 41160, Note_on_c, 0, 62, 75
1, 41183, Note_on_c, 0, 62, 0
1, 41184, Note_on_c, 0, 60, 75
1, 41184, Note_on_c, 1, 44, 75
1, 41207, Note_on_c, 0, 60, 0
1, 41208, Note_on_c, 0, 68, 75
1, 41223, Note_on_c, 1, 44, 0
1, 41231, Note_on_c, 0, 68, 0
1, 41232, Note_on_c, 0, 72, 75
1, 41255, Note_on_c, 0, 72, 0
1, 41256, Note_on_c, 0, 70, 75
1, 41279, Note_on_c, 0, 70, 0
1, 41280, Note_on_c, 0, 68, 75
1, 41303, Note_on_c, 0, 68, 0
1, 41304, Note_on_c, 0, 67, 75
1, 41327, Note_on_c, 0, 67, 0
1, 41328, Note_on_c, 0, 65, 75
1, 41351, Note_on_c, 0, 65, 0
1, 41352, Note_on_c, 0, 63, 75
1, 41375, Note_on_c, 0, 63, 0
1, 41376, Note_on_c, 0, 62, 75
1, 41376, Note_on_c, 1, 46, 75
1, 41399, Note_on_c, 0, 62, 0
1, 41400, Note_on_c, 0, 60, 75
1, 41415, Note_on_c, 1, 46, 0
1, 41423, Note_on_c, 0, 60, 0
1, 41424, Note_on_c, 0, 58, 75
1, 41447, Note_on_c, 0, 58, 0
1, 41448, Note_on_c, 0, 56, 75
1, 41471, Note_on_c, 0, 56, 0
1, 41472, Note_on_c, 0, 55, 75
1, 41496, Note_on_c, 1, 51, 75
1, 41511, Note_on_c, 0, 55, 0
1, 41519, Note_on_c, 1, 51, 0
1, 41520, Note_on_c, 1, 53, 75
1, 41543, Note_on_c, 1, 53, 0
1, 41544, Note_on_c, 1, 55, 75
1, 41567, Note_on_c, 1, 55, 0
1, 41568, Note_on_c, 1, 56, 75
1, 41591, Note_on_c, 1, 56, 0
1, 41592, Note_on_c, 1, 58, 75
1, 41615, Note_on_c, 1, 58, 0
1, 41616, Note_on_c, 1, 60, 75
1, 41639, Note_on_c, 1, 60, 0
1, 41640, Note_on_c, 1, 62, 75
1, 41663, Note_on_c, 1, 62, 0
1, 41664, Note_on_c, 1, 63, 75
1, 41687, Note_on_c, 1, 63, 0
1, 41688, Note_on_c, 1, 65, 75
1, 41711, Note_on_c, 1, 65, 0
1, 41712, Note_on_c, 1, 67, 75
1, 41735, Note_on_c, 1, 67, 0
1, 41736, Note_on_c, 1, 65, 75
1, 41759, Note_on_c, 1, 65, 0
1, 41760, Note_on_c, 1, 63, 75
1, 41808, Note_on_c, 0, 67, 75
1, 41849, Note_on_c, 1, 63, 0
1, 41856, Note_on_c, 0, 67, 0
1, 41856, Note_on_c, 0, 79, 75
1, 41901, Note_on_c, 0, 79, 0
1, 41904, Note_on_c, 0, 79, 75
1, 41949, Note_on_c, 0, 79, 0
1, 41952, Note_on_c, 0, 71, 75
1, 41952, Note_on_c, 1, 63, 75
1, 42000, Note_on_c, 0, 71, 0
1, 42000, Note_on_c, 0, 72, 75
1, 42041, Note_on_c, 1, 63, 0
1, 42045, Note_on_c, 0, 72, 0
1, 42048, Note_on_c, 1, 62, 75
1, 42096, Note_on_c, 0, 65, 75
1, 42137, Note_on_c, 1, 62, 0
1, 42144, Note_on_c, 0, 65, 0
1, 42144, Note_on_c, 0, 77, 75
1, 42189, Note_on_c, 0, 77, 0
1, 42192, Note_on_c, 0, 77, 75
1, 42237, Note_on_c, 0, 77, 0
1, 42240, Note_on_c, 0, 69, 75
1, 42240, Note_on_c, 1, 62, 75
1, 42288, Note_on_c, 0, 69, 0
1, 42288, Note_on_c, 0, 70, 75
1, 42329, Note_on_c, 1, 62, 0
1, 42333, Note_on_c, 0, 70, 0
1, 42336, Note_on_c, 1, 60, 81
1, 42360, Note_on_c, 0, 67, 75
1, 42375, Note_on_c, 1, 60, 0
1, 42383, Note_on_c, 0, 67, 0
1, 42384, Note_on_c, 0, 70, 75
1, 42407, Note_on_c, 0, 70, 0
1, 42408, Note_on_c, 0, 75, 75
1, 42431, Note_on_c, 0, 75, 0
1, 42432, Note_on_c, 1, 68, 81
1, 42456, Note_on_c, 0, 68, 75
1, 42471, Note_on_c, 1, 68, 0
1, 42479, Note_on_c, 0, 68, 0
1, 42480, Note_on_c, 0, 72, 75
1, 42503, Note_on_c, 0, 72, 0
1, 42504, Note_on_c, 0, 75, 75
1, 42527, Note_on_c, 0, 75, 0
1, 42528, Note_on_c, 1, 60, 81
1, 42552, Note_on_c, 0, 72, 75
1, 42567, Note_on_c, 1, 60, 0
1, 42575, Note_on_c, 0, 72, 0
1, 42576, Note_on_c, 0, 75, 75
1, 42599, Note_on_c, 0, 75, 0
1, 42600, Note_on_c, 0, 80, 75
1, 42623, Note_on_c, 0, 80, 0
1, 42624, Note_on_c, 1, 58, 81
1, 42648, Note_on_c, 0, 65, 75
1, 42663, Note_on_c, 1, 58, 0
1, 42671, Note_on_c, 0, 65, 0
1, 42672, Note_on_c, 0, 68, 75
1, 42695, Note_on_c, 0, 68, 0
1, 42696, Note_on_c, 0, 74, 75
1, 42719, Note_on_c, 0, 74, 0
1, 42720, Note_on_c, 1, 67, 81
1, 42744, Note_on_c, 0, 67, 75
1, 42759, Note_on_c, 1, 67, 0
1, 42767, Note_on_c, 0, 67, 0
1, 42768, Note_on_c, 0, 70, 75
1, 42791, Note_on_c, 0, 70, 0
1, 42792, Note_on_c, 0, 74, 75
1, 42815, Note_on_c, 0, 74, 0
1, 42816, Note_on_c, 1, 58, 81
1, 42840, Note_on_c, 0, 70, 75
1, 42855, Note_on_c, 1, 58, 0
1, 42863, Note_on_c, 0, 70, 0
1, 42864, Note_on_c, 0, 74, 75
1, 42887, Note_on_c, 0, 74, 0
1, 42888, Note_on_c, 0, 77, 75
1, 42911, Note_on_c, 0, 77, 0
1, 42912, Note_on_c, 1, 56, 81
1, 42936, Note_on_c, 0, 63, 75
1, 42951, Note_on_c, 1, 56, 0
1, 42959, Note_on_c, 0, 63, 0
1, 42960, Note_on_c, 0, 67, 75
1, 42983, Note_on_c, 0, 67, 0
1, 42984, Note_on_c, 0, 72, 75
1, 43007, Note_on_c, 0, 72, 0
1, 43008, Note_on_c, 1, 65, 81
1, 43032, Note_on_c, 0, 65, 75
1, 43047, Note_on_c, 1, 65, 0
1, 43055, Note_on_c, 0, 65, 0
1, 43056, Note_on_c, 0, 68, 75
1, 43079, Note_on_c, 0, 68, 0
1, 43080, Note_on_c, 0, 72, 75
1, 43103, Note_on_c, 0, 72, 0
1, 43104, Note_on_c, 1, 56, 81
1, 43128, Note_on_c, 0, 68, 75
1, 43143, Note_on_c, 1, 56, 0
1, 43151, Note_on_c, 0, 68, 0
1, 43152, Note_on_c, 0, 72, 75
1, 43175, Note_on_c, 0, 72, 0
1, 43176, Note_on_c, 0, 77, 75
1, 43199, Note_on_c, 0, 77, 0
1, 43200, Note_on_c, 1, 55, 81
1, 43224, Note_on_c, 0, 62, 75
1, 43239, Note_on_c, 1, 55, 0
1, 43247, Note_on_c, 0, 62, 0
1, 43248, Note_on_c, 0, 65, 75
1, 43271, Note_on_c, 0, 65, 0
1, 43272, Note_on_c, 0, 70, 75
1, 43295, Note_on_c, 0, 70, 0
1, 43296, Note_on_c, 1, 63, 81
1, 43320, Note_on_c, 0, 63, 75
1, 43335, Note_on_c, 1, 63, 0
1, 43343, Note_on_c, 0, 63, 0
1, 43344, Note_on_c, 0, 67, 75
1, 43367, Note_on_c, 0, 67, 0
1, 43368, Note_on_c, 0, 70, 75
1, 43391, Note_on_c, 0, 70, 0
1, 43392, Note_on_c, 1, 55, 81
1, 43416, Note_on_c, 0, 67, 75
1, 43431, Note_on_c, 1, 55, 0
1, 43439, Note_on_c, 0, 67, 0
1, 43440, Note_on_c, 0, 70, 75
1, 43463, Note_on_c, 0, 70, 0
1, 43464, Note_on_c, 0, 75, 75
1, 43487, Note_on_c, 0, 75, 0
1, 43488, Note_on_c, 1, 58, 81
1, 43512, Note_on_c, 0, 62, 75
1, 43527, Note_on_c, 1, 58, 0
1, 43535, Note_on_c, 0, 62, 0
1, 43536, Note_on_c, 0, 68, 75
1, 43559, Note_on_c, 0, 68, 0
1, 43560, Note_on_c, 0, 70, 75
1, 43583, Note_on_c, 0, 70, 0
1, 43584, Note_on_c, 1, 65, 81
1, 43608, Note_on_c, 0, 62, 75
1, 43623, Note_on_c, 1, 65, 0
1, 43631, Note_on_c, 0, 62, 0
1, 43632, Note_on_c, 0, 68, 75
1, 43655, Note_on_c, 0, 68, 0
1, 43656, Note_on_c, 0, 70, 75
1, 43679, Note_on_c, 0, 70, 0
1, 43680, Note_on_c, 1, 63, 81
1, 43704, Note_on_c, 0, 67, 75
1, 43719, Note_on_c, 1, 63, 0
1, 43727, Note_on_c, 0, 67, 0
1, 43728, Note_on_c, 0, 70, 75
1, 43751, Note_on_c, 0, 70, 0
1, 43752, Note_on_c, 0, 75, 75
1, 43775, Note_on_c, 0, 75, 0
1, 43776, Note_on_c, 1, 58, 81
1, 43800, Note_on_c, 0, 62, 75
1, 43815, Note_on_c, 1, 58, 0
1, 43823, Note_on_c, 0, 62, 0
1, 43824, Note_on_c, 0, 68, 75
1, 43847, Note_on_c, 0, 68, 0
1, 43848, Note_on_c, 0, 70, 75
1, 43871, Note_on_c, 0, 70, 0
1, 43872, Note_on_c, 1, 65, 81
1, 43896, Note_on_c, 0, 62, 75
1, 43911, Note_on_c, 1, 65, 0
1, 43919, Note_on_c, 0, 62, 0
1, 43920, Note_on_c, 0, 68, 75
1, 43943, Note_on_c, 0, 68, 0
1, 43944, Note_on_c, 0, 70, 75
1, 43967, Note_on_c, 0, 70, 0
1, 43968, Note_on_c, 1, 63, 81
1, 43992, Note_on_c, 0, 67, 75
1, 44007, Note_on_c, 1, 63, 0
1, 44015, Note_on_c, 0, 67, 0
1, 44016, Note_on_c, 0, 70, 75
1, 44039, Note_on_c, 0, 70, 0
1, 44040, Note_on_c, 0, 75, 75
1, 44063, Note_on_c, 0, 75, 0
1, 44064, Note_on_c, 1, 58, 81
1, 44088, Note_on_c, 0, 62, 75
1, 44103, Note_on_c, 1, 58, 0
1, 44111, Note_on_c, 0, 62, 0
1, 44112, Note_on_c, 0, 68, 75
1, 44135, Note_on_c, 0, 68, 0
1, 44136, Note_on_c, 0, 70, 75
1, 44159, Note_on_c, 0, 70, 0
1, 44160, Note_on_c, 1, 65, 81
1, 44184, Note_on_c, 0, 62, 75
1, 44199, Note_on_c, 1, 65, 0
1, 44207, Note_on_c, 0, 62, 0
1, 44208, Note_on_c, 0, 68, 75
1, 44231, Note_on_c, 0, 68, 0
1, 44232, Note_on_c, 0, 70, 75
1, 44255, Note_on_c, 0, 70, 0
1, 44256, Note_on_c, 1, 63, 81
1, 44280, Note_on_c, 0, 67, 75
1, 44295, Note_on_c, 1, 63, 0
1, 44303, Note_on_c, 0, 67, 0
1, 44304, Note_on_c, 0, 70, 75
1, 44327, Note_on_c, 0, 70, 0
1, 44328, Note_on_c, 0, 75, 75
1, 44351, Note_on_c, 0, 75, 0
1, 44352, Note_on_c, 0, 67, 75
1, 44352, Note_on_c, 1, 63, 81
1, 44352, Note_on_c, 1, 58, 64
1, 44365, Note_on_c, 0, 67, 0
1, 44366, Note_on_c, 0, 68, 75
1, 44379, Note_on_c, 0, 68, 0
1, 44380, Note_on_c, 0, 67, 75
1, 44393, Note_on_c, 0, 67, 0
1, 44394, Note_on_c, 0, 68, 75
1, 44407, Note_on_c, 0, 68, 0
1, 44408, Note_on_c, 0, 67, 75
1, 44421, Note_on_c, 0, 67, 0
1, 44422, Note_on_c, 0, 65, 75
1, 44434, Note_on_c, 0, 65, 0
1, 44435, Note_on_c, 0, 67, 75
1, 44447, Note_on_c, 0, 67, 0
1, 44448, Note_on_c, 0, 65, 75
1, 44448, Note_on_c, 1, 63, 0
1, 44448, Note_on_c, 1, 62, 81
1, 44529, Note_on_c, 1, 58, 0
1, 44537, Note_on_c, 0, 65, 0
1, 44537, Note_on_c, 1, 62, 0
1, 44640, Note_on_c, 1, 51, 81
1, 44640, Note_on_c, 1, 39, 81
1, 44664, Note_on_c, 0, 63, 81
1, 44687, Note_on_c, 0, 63, 0
1, 44688, Note_on_c, 0, 63, 81
1, 44711, Note_on_c, 0, 63, 0
1, 44712, Note_on_c, 0, 63, 81
1, 44729, Note_on_c, 1, 51, 0
1, 44729, Note_on_c, 1, 39, 0
1, 44735, Note_on_c, 0, 63, 0
1, 44736, Note_on_c, 1, 55, 81
1, 44736, Note_on_c, 1, 43, 81
1, 44760, Note_on_c, 0, 67, 81
1, 44783, Note_on_c, 0, 67, 0
1, 44784, Note_on_c, 0, 67, 81
1, 44807, Note_on_c, 0, 67, 0
1, 44808, Note_on_c, 0, 67, 81
1, 44825, Note_on_c, 1, 55, 0
1, 44825, Note_on_c, 1, 43, 0
1, 44831, Note_on_c, 0, 67, 0
1, 44832, Note_on_c, 1, 58, 81
1, 44832, Note_on_c, 1, 46, 81
1, 44856, Note_on_c, 0, 70, 81
1, 44879, Note_on_c, 0, 70, 0
1, 44880, Note_on_c, 0, 70, 81
1, 44903, Note_on_c, 0, 70, 0
1, 44904, Note_on_c, 0, 70, 81
1, 44921, Note_on_c, 1, 58, 0
1, 44921, Note_on_c, 1, 46, 0
1, 44927, Note_on_c, 0, 70, 0
1, 44928, Note_on_c, 1, 63, 81
1, 44928, Note_on_c, 1, 51, 81
1, 44952, Note_on_c, 0, 75, 81
1, 44975, Note_on_c, 0, 75, 0
1, 44976, Note_on_c, 0, 74, 81
1, 44999, Note_on_c, 0, 74, 0
1, 45000, Note_on_c, 0, 75, 81
1, 45017, Note_on_c, 1, 63, 0
1, 45017, Note_on_c, 1, 51, 0
1, 45023, Note_on_c, 0, 75, 0
1, 45024, Note_on_c, 0, 79, 81
1, 45047, Note_on_c, 0, 79, 0
1, 45048, Note_on_c, 0, 75, 81
1, 45071, Note_on_c, 0, 75, 0
1, 45072, Note_on_c, 0, 74, 81
1, 45095, Note_on_c, 0, 74, 0
1, 45096, Note_on_c, 0, 72, 81
1, 45119, Note_on_c, 0, 72, 0
1, 45120, Note_on_c, 0, 70, 81
1, 45143, Note_on_c, 0, 70, 0
1, 45144, Note_on_c, 0, 68, 81
1, 45167, Note_on_c, 0, 68, 0
1, 45168, Note_on_c, 0, 67, 81
1, 45191, Note_on_c, 0, 67, 0
1, 45192, Note_on_c, 0, 65, 81
1, 45215, Note_on_c, 0, 65, 0
1, 45216, Note_on_c, 0, 63, 81
1, 45216, Note_on_c, 1, 51, 81
1, 45216, Note_on_c, 1, 39, 81
1, 45239, Note_on_c, 0, 63, 0
1, 45240, Note_on_c, 0, 63, 81
1, 45263, Note_on_c, 0, 63, 0
1, 45264, Note_on_c, 0, 63, 81
1, 45287, Note_on_c, 0, 63, 0
1, 45288, Note_on_c, 0, 63, 81
1, 45305, Note_on_c, 1, 51, 0
1, 45305, Note_on_c, 1, 39, 0
1, 45311, Note_on_c, 0, 63, 0
1, 45312, Note_on_c, 1, 55, 81
1, 45312, Note_on_c, 1, 43, 81
1, 45336, Note_on_c, 0, 67, 81
1, 45359, Note_on_c, 0, 67, 0
1, 45360, Note_on_c, 0, 67, 81
1, 45383, Note_on_c, 0, 67, 0
1, 45384, Note_on_c, 0, 67, 81
1, 45401, Note_on_c, 1, 55, 0
1, 45401, Note_on_c, 1, 43, 0
1, 45407, Note_on_c, 0, 67, 0
1, 45408, Note_on_c, 1, 58, 81
1, 45408, Note_on_c, 1, 46, 81
1, 45432, Note_on_c, 0, 70, 81
1, 45455, Note_on_c, 0, 70, 0
1, 45456, Note_on_c, 0, 70, 81
1, 45479, Note_on_c, 0, 70, 0
1, 45480, Note_on_c, 0, 70, 81
1, 45497, Note_on_c, 1, 58, 0
1, 45497, Note_on_c, 1, 46, 0
1, 45503, Note_on_c, 0, 70, 0
1, 45504, Note_on_c, 1, 63, 81
1, 45504, Note_on_c, 1, 51, 81
1, 45528, Note_on_c, 0, 75, 81
1, 45551, Note_on_c, 0, 75, 0
1, 45552, Note_on_c, 0, 74, 81
1, 45575, Note_on_c, 0, 74, 0
1, 45576, Note_on_c, 0, 75, 81
1, 45593, Note_on_c, 1, 63, 0
1, 45593, Note_on_c, 1, 51, 0
1, 45599, Note_on_c, 0, 75, 0
1, 45600, Note_on_c, 0, 79, 81
1, 45623, Note_on_c, 0, 79, 0
1, 45624, Note_on_c, 0, 77, 81
1, 45647, Note_on_c, 0, 77, 0
1, 45648, Note_on_c, 0, 75, 81
1, 45671, Note_on_c, 0, 75, 0
1, 45672, Note_on_c, 0, 74, 81
1, 45695, Note_on_c, 0, 74, 0
1, 45696, Note_on_c, 0, 72, 81
1, 45719, Note_on_c, 0, 72, 0
1, 45720, Note_on_c, 0, 70, 81
1, 45743, Note_on_c, 0, 70, 0
1, 45744, Note_on_c, 0, 68, 81
1, 45767, Note_on_c, 0, 68, 0
1, 45768, Note_on_c, 0, 67, 81
1, 45791, Note_on_c, 0, 67, 0
1, 45792, Note_on_c, 0, 65, 81
1, 45792, Note_on_c, 1, 53, 81
1, 45792, Note_on_c, 1, 48, 81
1, 45792, Note_on_c, 1, 44, 81
1, 45815, Note_on_c, 0, 65, 0
1, 45816, Note_on_c, 0, 68, 81
1, 45839, Note_on_c, 0, 68, 0
1, 45840, Note_on_c, 0, 67, 81
1, 45863, Note_on_c, 0, 67, 0
1, 45864, Note_on_c, 0, 68, 81
1, 45887, Note_on_c, 0, 68, 0
1, 45888, Note_on_c, 0, 72, 81
1, 45911, Note_on_c, 0, 72, 0
1, 45912, Note_on_c, 0, 70, 81
1, 45935, Note_on_c, 0, 70, 0
1, 45936, Note_on_c, 0, 68, 81
1, 45959, Note_on_c, 0, 68, 0
1, 45960, Note_on_c, 0, 67, 81
1, 45969, Note_on_c, 1, 53, 0
1, 45969, Note_on_c, 1, 48, 0
1, 45969, Note_on_c, 1, 44, 0
1, 45983, Note_on_c, 0, 67, 0
1, 45984, Note_on_c, 0, 65, 81
1, 46007, Note_on_c, 0, 65, 0
1, 46008, Note_on_c, 0, 63, 81
1, 46031, Note_on_c, 0, 63, 0
1, 46032, Note_on_c, 0, 62, 81
1, 46055, Note_on_c, 0, 62, 0
1, 46056, Note_on_c, 0, 60, 81
1, 46079, Note_on_c, 0, 60, 0
1, 46080, Note_on_c, 0, 58, 81
1, 46080, Note_on_c, 1, 56, 81
1, 46080, Note_on_c, 1, 53, 81
1, 46080, Note_on_c, 1, 46, 81
1, 46103, Note_on_c, 0, 58, 0
1, 46104, Note_on_c, 0, 62, 80
1, 46127, Note_on_c, 0, 62, 0
1, 46128, Note_on_c, 0, 62, 80
1, 46151, Note_on_c, 0, 62, 0
1, 46152, Note_on_c, 0, 62, 80
1, 46175, Note_on_c, 0, 62, 0
1, 46176, Note_on_c, 0, 65, 80
1, 46199, Note_on_c, 0, 65, 0
1, 46200, Note_on_c, 0, 62, 80
1, 46223, Note_on_c, 0, 62, 0
1, 46224, Note_on_c, 0, 65, 80
1, 46247, Note_on_c, 0, 65, 0
1, 46248, Note_on_c, 0, 62, 79
1, 46257, Note_on_c, 1, 56, 0
1, 46257, Note_on_c, 1, 53, 0
1, 46257, Note_on_c, 1, 46, 0
1, 46271, Note_on_c, 0, 62, 0
1, 46272, Note_on_c, 1, 56, 78
1, 46272, Note_on_c, 1, 53, 78
1, 46272, Note_on_c, 1, 46, 78
1, 46296, Note_on_c, 0, 62, 79
1, 46319, Note_on_c, 0, 62, 0
1, 46320, Note_on_c, 0, 62, 79
1, 46343, Note_on_c, 0, 62, 0
1, 46344, Note_on_c, 0, 62, 79
1, 46361, Note_on_c, 1, 56, 0
1, 46361, Note_on_c, 1, 53, 0
1, 46361, Note_on_c, 1, 46, 0
1, 46367, Note_on_c, 0, 62, 0
1, 46368, Note_on_c, 1, 55, 77
1, 46368, Note_on_c, 1, 51, 77
1, 46368, Note_on_c, 1, 46, 77
1, 46392, Note_on_c, 0, 63, 78
1, 46415, Note_on_c, 0, 63, 0
1, 46416, Note_on_c, 0, 63, 78
1, 46439, Note_on_c, 0, 63, 0
1, 46440, Note_on_c, 0, 63, 78
1, 46463, Note_on_c, 0, 63, 0
1, 46464, Note_on_c, 0, 67, 78
1, 46487, Note_on_c, 0, 67, 0
1, 46488, Note_on_c, 0, 63, 78
1, 46511, Note_on_c, 0, 63, 0
1, 46512, Note_on_c, 0, 67, 78
1, 46535, Note_on_c, 0, 67, 0
1, 46536, Note_on_c, 0, 63, 77
1, 46545, Note_on_c, 1, 55, 0
1, 46545, Note_on_c, 1, 51, 0
1, 46545, Note_on_c, 1, 46, 0
1, 46559, Note_on_c, 0, 63, 0
1, 46560, Note_on_c, 1, 55, 74
1, 46560, Note_on_c, 1, 51, 74
1, 46560, Note_on_c, 1, 46, 74
1, 46584, Note_on_c, 0, 63, 77
1, 46607, Note_on_c, 0, 63, 0
1, 46608, Note_on_c, 0, 63, 77
1, 46631, Note_on_c, 0, 63, 0
1, 46632, Note_on_c, 0, 63, 77
1, 46649, Note_on_c, 1, 55, 0
1, 46649, Note_on_c, 1, 51, 0
1, 46649, Note_on_c, 1, 46, 0
1, 46655, Note_on_c, 0, 63, 0
1, 46656, Note_on_c, 1, 53, 73
1, 46656, Note_on_c, 1, 50, 73
1, 46656, Note_on_c, 1, 46, 73
1, 46680, Note_on_c, 0, 65, 76
1, 46703, Note_on_c, 0, 65, 0
1, 46704, Note_on_c, 0, 65, 76
1, 46727, Note_on_c, 0, 65, 0
1, 46728, Note_on_c, 0, 65, 76
1, 46751, Note_on_c, 0, 65, 0
1, 46752, Note_on_c, 0, 68, 76
1, 46775, Note_on_c, 0, 68, 0
1, 46776, Note_on_c, 0, 65, 76
1, 46799, Note_on_c, 0, 65, 0
1, 46800, Note_on_c, 0, 68, 76
1, 46823, Note_on_c, 0, 68, 0
1, 46824, Note_on_c, 0, 65, 75
1, 46833, Note_on_c, 1, 53, 0
1, 46833, Note_on_c, 1, 50, 0
1, 46833, Note_on_c, 1, 46, 0
1, 46847, Note_on_c, 0, 65, 0
1, 46848, Note_on_c, 1, 53, 71
1, 46848, Note_on_c, 1, 50, 71
1, 46848, Note_on_c, 1, 46, 71
1, 46872, Note_on_c, 0, 65, 75
1, 46895, Note_on_c, 0, 65, 0
1, 46896, Note_on_c, 0, 65, 75
1, 46919, Note_on_c, 0, 65, 0
1, 46920, Note_on_c, 0, 65, 75
1, 46937, Note_on_c, 1, 53, 0
1, 46937, Note_on_c, 1, 50, 0
1, 46937, Note_on_c, 1, 46, 0
1, 46943, Note_on_c, 0, 65, 0
1, 46944, Note_on_c, 0, 63, 75
1, 46967, Note_on_c, 0, 63, 0
1, 46968, Note_on_c, 0, 67, 75
1, 46991, Note_on_c, 0, 67, 0
1, 46992, Note_on_c, 0, 62, 75
1, 47015, Note_on_c, 0, 62, 0
1, 47016, Note_on_c, 0, 65, 75
1, 47039, Note_on_c, 0, 65, 0
1, 47040, Note_on_c, 0, 60, 75
1, 47063, Note_on_c, 0, 60, 0
1, 47064, Note_on_c, 0, 63, 75
1, 47087, Note_on_c, 0, 63, 0
1, 47088, Note_on_c, 0, 58, 75
1, 47111, Note_on_c, 0, 58, 0
1, 47112, Note_on_c, 0, 62, 75
1, 47135, Note_on_c, 0, 62, 0
1, 47136, Note_on_c, 0, 56, 75
1, 47159, Note_on_c, 0, 56, 0
1, 47160, Note_on_c, 0, 60, 75
1, 47183, Note_on_c, 0, 60, 0
1, 47184, Note_on_c, 0, 55, 75
1, 47207, Note_on_c, 0, 55, 0
1, 47208, Note_on_c, 0, 58, 75
1, 47231, Note_on_c, 0, 58, 0
1, 47232, Note_on_c, 0, 63, 70
1, 47255, Note_on_c, 0, 63, 0
1, 47256, Note_on_c, 0, 67, 70
1, 47279, Note_on_c, 0, 67, 0
1, 47280, Note_on_c, 0, 62, 70
1, 47303, Note_on_c, 0, 62, 0
1, 47304, Note_on_c, 0, 65, 70
1, 47327, Note_on_c, 0, 65, 0
1, 47328, Note_on_c, 0, 60, 70
1, 47351, Note_on_c, 0, 60, 0
1, 47352, Note_on_c, 0, 63, 70
1, 47375, Note_on_c, 0, 63, 0
1, 47376, Note_on_c, 0, 58, 70
1, 47399, Note_on_c, 0, 58, 0
1, 47400, Note_on_c, 0, 62, 70
1, 47423, Note_on_c, 0, 62, 0
1, 47424, Note_on_c, 0, 56, 70
1, 47447, Note_on_c, 0, 56, 0
1, 47448, Note_on_c, 0, 60, 70
1, 47471, Note_on_c, 0, 60, 0
1, 47472, Note_on_c, 0, 55, 70
1, 47495, Note_on_c, 0, 55, 0
1, 47496, Note_on_c, 0, 58, 70
1, 47519, Note_on_c, 0, 58, 0
1, 47520, Note_on_c, 1, 56, 75
1, 47544, Note_on_c, 0, 60, 75
1, 47567, Note_on_c, 0, 60, 0
1, 47568, Note_on_c, 0, 62, 75
1, 47591, Note_on_c, 0, 62, 0
1, 47592, Note_on_c, 0, 63, 75
1, 47609, Note_on_c, 1, 56, 0
1, 47615, Note_on_c, 0, 63, 0
1, 47616, Note_on_c, 0, 65, 75
1, 47639, Note_on_c, 0, 65, 0
1, 47640, Note_on_c, 0, 67, 75
1, 47663, Note_on_c, 0, 67, 0
1, 47664, Note_on_c, 0, 68, 75
1, 47687, Note_on_c, 0, 68, 0
1, 47688, Note_on_c, 0, 70, 75
1, 47711, Note_on_c, 0, 70, 0
1, 47712, Note_on_c, 0, 72, 75
1, 47736, Note_on_c, 1, 56, 75
1, 47757, Note_on_c, 0, 72, 0
1, 47759, Note_on_c, 1, 56, 0
1, 47760, Note_on_c, 1, 44, 75
1, 47783, Note_on_c, 1, 44, 0
1, 47784, Note_on_c, 1, 56, 75
1, 47807, Note_on_c, 1, 56, 0
1, 47808, Note_on_c, 1, 43, 75
1, 47832, Note_on_c, 0, 58, 75
1, 47855, Note_on_c, 0, 58, 0
1, 47856, Note_on_c, 0, 60, 75
1, 47879, Note_on_c, 0, 60, 0
1, 47880, Note_on_c, 0, 62, 75
1, 47897, Note_on_c, 1, 43, 0
1, 47903, Note_on_c, 0, 62, 0
1, 47904, Note_on_c, 0, 63, 75
1, 47927, Note_on_c, 0, 63, 0
1, 47928, Note_on_c, 0, 65, 75
1, 47951, Note_on_c, 0, 65, 0
1, 47952, Note_on_c, 0, 67, 75
1, 47975, Note_on_c, 0, 67, 0
1, 47976, Note_on_c, 0, 68, 75
1, 47999, Note_on_c, 0, 68, 0
1, 48000, Note_on_c, 0, 70, 75
1, 48024, Note_on_c, 1, 55, 75
1, 48045, Note_on_c, 0, 70, 0
1, 48047, Note_on_c, 1, 55, 0
1, 48048, Note_on_c, 1, 43, 75
1, 48071, Note_on_c, 1, 43, 0
1, 48072, Note_on_c, 1, 55, 75
1, 48095, Note_on_c, 1, 55, 0
1, 48096, Note_on_c, 1, 56, 75
1, 48120, Note_on_c, 0, 60, 70
1, 48143, Note_on_c, 0, 60, 0
1, 48144, Note_on_c, 0, 62, 70
1, 48167, Note_on_c, 0, 62, 0
1, 48168, Note_on_c, 0, 63, 70
1, 48185, Note_on_c, 1, 56, 0
1, 48191, Note_on_c, 0, 63, 0
1, 48192, Note_on_c, 0, 65, 70
1, 48215, Note_on_c, 0, 65, 0
1, 48216, Note_on_c, 0, 67, 70
1, 48239, Note_on_c, 0, 67, 0
1, 48240, Note_on_c, 0, 68, 70
1, 48263, Note_on_c, 0, 68, 0
1, 48264, Note_on_c, 0, 70, 70
1, 48287, Note_on_c, 0, 70, 0
1, 48288, Note_on_c, 0, 72, 70
1, 48312, Note_on_c, 1, 56, 70
1, 48333, Note_on_c, 0, 72, 0
1, 48335, Note_on_c, 1, 56, 0
1, 48336, Note_on_c, 1, 44, 70
1, 48359, Note_on_c, 1, 44, 0
1, 48360, Note_on_c, 1, 56, 70
1, 48383, Note_on_c, 1, 56, 0
1, 48384, Note_on_c, 1, 43, 70
1, 48408, Note_on_c, 0, 58, 70
1, 48431, Note_on_c, 0, 58, 0
1, 48432, Note_on_c, 0, 60, 70
1, 48455, Note_on_c, 0, 60, 0
1, 48456, Note_on_c, 0, 62, 70
1, 48473, Note_on_c, 1, 43, 0
1, 48479, Note_on_c, 0, 62, 0
1, 48480, Note_on_c, 0, 63, 70
1, 48503, Note_on_c, 0, 63, 0
1, 48504, Note_on_c, 0, 65, 70
1, 48527, Note_on_c, 0, 65, 0
1, 48528, Note_on_c, 0, 67, 70
1, 48551, Note_on_c, 0, 67, 0
1, 48552, Note_on_c, 0, 68, 70
1, 48575, Note_on_c, 0, 68, 0
1, 48576, Note_on_c, 0, 70, 70
1, 48599, Note_on_c, 0, 70, 0
1, 48600, Note_on_c, 0, 72, 70
1, 48623, Note_on_c, 0, 72, 0
1, 48624, Note_on_c, 0, 74, 70
1, 48647, Note_on_c, 0, 74, 0
1, 48648, Note_on_c, 0, 75, 70
1, 48660, Note_on_c, 0, 75, 0
1, 48660, Note_on_c, 0, 77, 70
1, 48672, Note_on_c, 0, 77, 0
1, 48672, Note_on_c, 0, 79, 86
1, 48720, Note_on_c, 0, 79, 0
1, 48960, Note_on_c, 0, 77, 75
1, 48960, Note_on_c, 1, 75, 70
1, 48960, Note_on_c, 1, 69, 70
1, 48983, Note_on_c, 0, 77, 0
1, 48984, Note_on_c, 0, 81, 75
1, 49007, Note_on_c, 0, 81, 0
1, 49008, Note_on_c, 0, 84, 75
1, 49031, Note_on_c, 0, 84, 0
1, 49032, Note_on_c, 0, 82, 75
1, 49049, Note_on_c, 1, 75, 0
1, 49049, Note_on_c, 1, 69, 0
1, 49055, Note_on_c, 0, 82, 0
1, 49056, Note_on_c, 0, 81, 75
1, 49079, Note_on_c, 0, 81, 0
1, 49080, Note_on_c, 0, 79, 75
1, 49103, Note_on_c, 0, 79, 0
1, 49104, Note_on_c, 0, 77, 75
1, 49104, Note_on_c, 1, 75, 70
1, 49104, Note_on_c, 1, 69, 70
1, 49127, Note_on_c, 0, 77, 0
1, 49128, Note_on_c, 0, 79, 75
1, 49149, Note_on_c, 1, 75, 0
1, 49149, Note_on_c, 1, 69, 0
1, 49151, Note_on_c, 0, 79, 0
1, 49152, Note_on_c, 0, 77, 75
1, 49152, Note_on_c, 1, 75, 70
1, 49152, Note_on_c, 1, 69, 70
1, 49175, Note_on_c, 0, 77, 0
1, 49176, Note_on_c, 0, 79, 75
1, 49197, Note_on_c, 1, 75, 0
1, 49197, Note_on_c, 1, 69, 0
1, 49199, Note_on_c, 0, 79, 0
1, 49200, Note_on_c, 0, 77, 75
1, 49200, Note_on_c, 1, 75, 70
1, 49200, Note_on_c, 1, 69, 70
1, 49223, Note_on_c, 0, 77, 0
1, 49224, Note_on_c, 0, 79, 75
1, 49245, Note_on_c, 1, 75, 0
1, 49245, Note_on_c, 1, 69, 0
1, 49247, Note_on_c, 0, 79, 0
1, 49248, Note_on_c, 0, 77, 75
1, 49248, Note_on_c, 1, 74, 70
1, 49248, Note_on_c, 1, 70, 70
1, 49271, Note_on_c, 0, 77, 0
1, 49272, Note_on_c, 0, 81, 75
1, 49295, Note_on_c, 0, 81, 0
1, 49296, Note_on_c, 0, 82, 75
1, 49319, Note_on_c, 0, 82, 0
1, 49320, Note_on_c, 0, 81, 75
1, 49337, Note_on_c, 1, 74, 0
1, 49337, Note_on_c, 1, 70, 0
1, 49343, Note_on_c, 0, 81, 0
1, 49344, Note_on_c, 0, 79, 75
1, 49367, Note_on_c, 0, 79, 0
1, 49368, Note_on_c, 0, 77, 75
1, 49391, Note_on_c, 0, 77, 0
1, 49392, Note_on_c, 0, 75, 75
1, 49415, Note_on_c, 0, 75, 0
1, 49416, Note_on_c, 0, 74, 75
1, 49439, Note_on_c, 0, 74, 0
1, 49440, Note_on_c, 0, 72, 75
1, 49463, Note_on_c, 0, 72, 0
1, 49464, Note_on_c, 0, 70, 75
1, 49487, Note_on_c, 0, 70, 0
1, 49488, Note_on_c, 0, 69, 75
1, 49511, Note_on_c, 0, 69, 0
1, 49512, Note_on_c, 0, 67, 75
1, 49535, Note_on_c, 0, 67, 0
1, 49536, Note_on_c, 0, 65, 75
1, 49536, Note_on_c, 1, 63, 70
1, 49536, Note_on_c, 1, 57, 70
1, 49559, Note_on_c, 0, 65, 0
1, 49560, Note_on_c, 0, 69, 75
1, 49583, Note_on_c, 0, 69, 0
1, 49584, Note_on_c, 0, 72, 75
1, 49607, Note_on_c, 0, 72, 0
1, 49608, Note_on_c, 0, 70, 75
1, 49625, Note_on_c, 1, 63, 0
1, 49625, Note_on_c, 1, 57, 0
1, 49631, Note_on_c, 0, 70, 0
1, 49632, Note_on_c, 0, 69, 75
1, 49655, Note_on_c, 0, 69, 0
1, 49656, Note_on_c, 0, 67, 75
1, 49679, Note_on_c, 0, 67, 0
1, 49680, Note_on_c, 0, 65, 75
1, 49680, Note_on_c, 1, 63, 70
1, 49680, Note_on_c, 1, 57, 70
1, 49703, Note_on_c, 0, 65, 0
1, 49704, Note_on_c, 0, 67, 75
1, 49725, Note_on_c, 1, 63, 0
1, 49725, Note_on_c, 1, 57, 0
1, 49727, Note_on_c, 0, 67, 0
1, 49728, Note_on_c, 0, 65, 75
1, 49728, Note_on_c, 1, 63, 70
1, 49728, Note_on_c, 1, 57, 70
1, 49751, Note_on_c, 0, 65, 0
1, 49752, Note_on_c, 0, 67, 75
1, 49773, Note_on_c, 1, 63, 0
1, 49773, Note_on_c, 1, 57, 0
1, 49775, Note_on_c, 0, 67, 0
1, 49776, Note_on_c, 0, 65, 75
1, 49776, Note_on_c, 1, 63, 70
1, 49776, Note_on_c, 1, 57, 70
1, 49799, Note_on_c, 0, 65, 0
1, 49800, Note_on_c, 0, 67, 75
1, 49821, Note_on_c, 1, 63, 0
1, 49821, Note_on_c, 1, 57, 0
1, 49823, Note_on_c, 0, 67, 0
1, 49824, Note_on_c, 0, 65, 75
1, 49824, Note_on_c, 1, 62, 70
1, 49824, Note_on_c, 1, 58, 70
1, 49847, Note_on_c, 0, 65, 0
1, 49848, Note_on_c, 0, 70, 75
1, 49871, Note_on_c, 0, 70, 0
1, 49872, Note_on_c, 0, 69, 75
1, 49895, Note_on_c, 0, 69, 0
1, 49896, Note_on_c, 0, 67, 75
1, 49913, Note_on_c, 1, 62, 0
1, 49913, Note_on_c, 1, 58, 0
1, 49919, Note_on_c, 0, 67, 0
1, 49920, Note_on_c, 0, 65, 75
1, 49943, Note_on_c, 0, 65, 0
1, 49944, Note_on_c, 0, 63, 75
1, 49967, Note_on_c, 0, 63, 0
1, 49968, Note_on_c, 0, 62, 75
1, 49991, Note_on_c, 0, 62, 0
1, 49992, Note_on_c, 0, 60, 75
1, 50015, Note_on_c, 0, 60, 0
1, 50016, Note_on_c, 0, 58, 75
1, 50039, Note_on_c, 0, 58, 0
1, 50040, Note_on_c, 0, 60, 75
1, 50063, Note_on_c, 0, 60, 0
1, 50064, Note_on_c, 0, 62, 75
1, 50087, Note_on_c, 0, 62, 0
1, 50088, Note_on_c, 0, 63, 75
1, 50111, Note_on_c, 0, 63, 0
1, 50112, Note_on_c, 0, 65, 75
1, 50112, Note_on_c, 1, 46, 75
1, 50112, Note_on_c, 1, 34, 75
1, 50135, Note_on_c, 0, 65, 0
1, 50136, Note_on_c, 0, 62, 75
1, 50159, Note_on_c, 0, 62, 0
1, 50160, Note_on_c, 0, 65, 75
1, 50183, Note_on_c, 0, 65, 0
1, 50184, Note_on_c, 0, 67, 75
1, 50201, Note_on_c, 1, 46, 0
1, 50201, Note_on_c, 1, 34, 0
1, 50207, Note_on_c, 0, 67, 0
1, 50208, Note_on_c, 0, 68, 75
1, 50231, Note_on_c, 0, 68, 0
1, 50232, Note_on_c, 0, 67, 75
1, 50255, Note_on_c, 0, 67, 0
1, 50256, Note_on_c, 0, 65, 75
1, 50256, Note_on_c, 1, 46, 75
1, 50279, Note_on_c, 0, 65, 0
1, 50280, Note_on_c, 0, 63, 75
1, 50301, Note_on_c, 1, 46, 0
1, 50303, Note_on_c, 0, 63, 0
1, 50304, Note_on_c, 0, 62, 75
1, 50304, Note_on_c, 1, 48, 75
1, 50327, Note_on_c, 0, 62, 0
1, 50328, Note_on_c, 0, 60, 75
1, 50349, Note_on_c, 1, 48, 0
1, 50351, Note_on_c, 0, 60, 0
1, 50352, Note_on_c, 0, 58, 75
1, 50352, Note_on_c, 1, 50, 75
1, 50375, Note_on_c, 0, 58, 0
1, 50376, Note_on_c, 0, 56, 75
1, 50397, Note_on_c, 1, 50, 0
1, 50399, Note_on_c, 0, 56, 0
1, 50400, Note_on_c, 0, 55, 75
1, 50400, Note_on_c, 1, 51, 75
1, 50423, Note_on_c, 0, 55, 0
1, 50424, Note_on_c, 0, 58, 75
1, 50439, Note_on_c, 1, 51, 0
1, 50447, Note_on_c, 0, 58, 0
1, 50448, Note_on_c, 0, 56, 75
1, 50471, Note_on_c, 0, 56, 0
1, 50472, Note_on_c, 0, 55, 75
1, 50495, Note_on_c, 0, 55, 0
1, 50496, Note_on_c, 0, 56, 75
1, 50496, Note_on_c, 1, 53, 75
1, 50519, Note_on_c, 0, 56, 0
1, 50520, Note_on_c, 0, 58, 75
1, 50535, Note_on_c, 1, 53, 0
1, 50543, Note_on_c, 0, 58, 0
1, 50544, Note_on_c, 0, 60, 75
1, 50567, Note_on_c, 0, 60, 0
1, 50568, Note_on_c, 0, 62, 75
1, 50591, Note_on_c, 0, 62, 0
1, 50592, Note_on_c, 0, 63, 75
1, 50592, Note_on_c, 1, 55, 75
1, 50615, Note_on_c, 0, 63, 0
1, 50616, Note_on_c, 0, 65, 75
1, 50631, Note_on_c, 1, 55, 0
1, 50639, Note_on_c, 0, 65, 0
1, 50640, Note_on_c, 0, 67, 75
1, 50663, Note_on_c, 0, 67, 0
1, 50664, Note_on_c, 0, 63, 75
1, 50687, Note_on_c, 0, 63, 0
1, 50688, Note_on_c, 0, 62, 75
1, 50688, Note_on_c, 1, 56, 75
1, 50688, Note_on_c, 1, 44, 64
1, 50711, Note_on_c, 0, 62, 0
1, 50712, Note_on_c, 0, 60, 75
1, 50735, Note_on_c, 0, 60, 0
1, 50736, Note_on_c, 0, 68, 75
1, 50759, Note_on_c, 0, 68, 0
1, 50760, Note_on_c, 0, 65, 75
1, 50777, Note_on_c, 1, 56, 0
1, 50777, Note_on_c, 1, 44, 0
1, 50783, Note_on_c, 0, 65, 0
1, 50784, Note_on_c, 0, 63, 75
1, 50784, Note_on_c, 1, 55, 75
1, 50784, Note_on_c, 1, 46, 64
1, 50873, Note_on_c, 0, 63, 0
1, 50873, Note_on_c, 1, 55, 0
1, 50880, Note_on_c, 0, 62, 75
1, 50880, Note_on_c, 1, 53, 75
1, 50893, Note_on_c, 0, 62, 0
1, 50894, Note_on_c, 0, 63, 75
1, 50907, Note_on_c, 0, 63, 0
1, 50908, Note_on_c, 0, 62, 75
1, 50921, Note_on_c, 0, 62, 0
1, 50922, Note_on_c, 0, 63, 75
1, 50935, Note_on_c, 0, 63, 0
1, 50936, Note_on_c, 0, 62, 75
1, 50949, Note_on_c, 0, 62, 0
1, 50950, Note_on_c, 0, 60, 75
1, 50961, Note_on_c, 1, 46, 0
1, 50962, Note_on_c, 0, 60, 0
1, 50963, Note_on_c, 0, 62, 75
1, 50969, Note_on_c, 1, 53, 0
1, 50975, Note_on_c, 0, 62, 0
1, 50976, Note_on_c, 0, 55, 75
1, 50976, Note_on_c, 1, 51, 75
1, 50999, Note_on_c, 0, 55, 0
1, 51000, Note_on_c, 0, 58, 75
1, 51015, Note_on_c, 1, 51, 0
1, 51023, Note_on_c, 0, 58, 0
1, 51024, Note_on_c, 0, 56, 75
1, 51047, Note_on_c, 0, 56, 0
1, 51048, Note_on_c, 0, 55, 75
1, 51071, Note_on_c, 0, 55, 0
1, 51072, Note_on_c, 0, 56, 75
1, 51072, Note_on_c, 1, 53, 75
1, 51095, Note_on_c, 0, 56, 0
1, 51096, Note_on_c, 0, 58, 75
1, 51111, Note_on_c, 1, 53, 0
1, 51119, Note_on_c, 0, 58, 0
1, 51120, Note_on_c, 0, 60, 75
1, 51143, Note_on_c, 0, 60, 0
1, 51144, Note_on_c, 0, 62, 75
1, 51167, Note_on_c, 0, 62, 0
1, 51168, Note_on_c, 0, 63, 75
1, 51168, Note_on_c, 1, 55, 75
1, 51191, Note_on_c, 0, 63, 0
1, 51192, Note_on_c, 0, 65, 75
1, 51207, Note_on_c, 1, 55, 0
1, 51215, Note_on_c, 0, 65, 0
1, 51216, Note_on_c, 0, 67, 75
1, 51239, Note_on_c, 0, 67, 0
1, 51240, Note_on_c, 0, 63, 75
1, 51263, Note_on_c, 0, 63, 0
1, 51264, Note_on_c, 0, 62, 75
1, 51264, Note_on_c, 1, 56, 75
1, 51284, Note_on_c, 1, 56, 0
1, 51287, Note_on_c, 0, 62, 0
1, 51288, Note_on_c, 0, 60, 75
1, 51311, Note_on_c, 0, 60, 0
1, 51312, Note_on_c, 0, 68, 75
1, 51312, Note_on_c, 1, 53, 75
1, 51332, Note_on_c, 1, 53, 0
1, 51335, Note_on_c, 0, 68, 0
1, 51336, Note_on_c, 0, 65, 75
1, 51359, Note_on_c, 0, 65, 0
1, 51360, Note_on_c, 0, 63, 75
1, 51360, Note_on_c, 1, 58, 75
1, 51380, Note_on_c, 1, 58, 0
1, 51383, Note_on_c, 0, 63, 0
1, 51384, Note_on_c, 0, 62, 75
1, 51407, Note_on_c, 0, 62, 0
1, 51408, Note_on_c, 0, 70, 75
1, 51408, Note_on_c, 1, 55, 75
1, 51428, Note_on_c, 1, 55, 0
1, 51431, Note_on_c, 0, 70, 0
1, 51432, Note_on_c, 0, 67, 75
1, 51455, Note_on_c, 0, 67, 0
1, 51456, Note_on_c, 0, 65, 75
1, 51456, Note_on_c, 1, 60, 75
1, 51476, Note_on_c, 1, 60, 0
1, 51479, Note_on_c, 0, 65, 0
1, 51480, Note_on_c, 0, 63, 75
1, 51503, Note_on_c, 0, 63, 0
1, 51504, Note_on_c, 0, 72, 75
1, 51504, Note_on_c, 1, 56, 75
1, 51524, Note_on_c, 1, 56, 0
1, 51527, Note_on_c, 0, 72, 0
1, 51528, Note_on_c, 0, 68, 75
1, 51551, Note_on_c, 0, 68, 0
1, 51552, Note_on_c, 0, 67, 75
1, 51552, Note_on_c, 1, 62, 75
1, 51575, Note_on_c, 0, 67, 0
1, 51576, Note_on_c, 0, 65, 75
1, 51599, Note_on_c, 0, 65, 0
1, 51600, Note_on_c, 0, 79, 75
1, 51623, Note_on_c, 0, 79, 0
1, 51624, Note_on_c, 0, 77, 75
1, 51641, Note_on_c, 1, 62, 0
1, 51647, Note_on_c, 0, 77, 0
1, 51648, Note_on_c, 0, 75, 75
1, 51671, Note_on_c, 0, 75, 0
1, 51672, Note_on_c, 0, 74, 75
1, 51695, Note_on_c, 0, 74, 0
1, 51696, Note_on_c, 0, 77, 75
1, 51696, Note_on_c, 1, 58, 75
1, 51719, Note_on_c, 0, 77, 0
1, 51720, Note_on_c, 0, 75, 75
1, 51741, Note_on_c, 1, 58, 0
1, 51743, Note_on_c, 0, 75, 0
1, 51744, Note_on_c, 0, 74, 75
1, 51744, Note_on_c, 1, 60, 75
1, 51767, Note_on_c, 0, 74, 0
1, 51768, Note_on_c, 0, 72, 75
1, 51789, Note_on_c, 1, 60, 0
1, 51791, Note_on_c, 0, 72, 0
1, 51792, Note_on_c, 0, 70, 75
1, 51792, Note_on_c, 1, 62, 75
1, 51815, Note_on_c, 0, 70, 0
1, 51816, Note_on_c, 0, 68, 75
1, 51837, Note_on_c, 1, 62, 0
1, 51839, Note_on_c, 0, 68, 0
1, 51840, Note_on_c, 0, 67, 75
1, 51840, Note_on_c, 1, 63, 75
1, 51863, Note_on_c, 0, 67, 0
1, 51864, Note_on_c, 0, 70, 75
1, 51879, Note_on_c, 1, 63, 0
1, 51887, Note_on_c, 0, 70, 0
1, 51888, Note_on_c, 0, 68, 75
1, 51911, Note_on_c, 0, 68, 0
1, 51912, Note_on_c, 0, 67, 75
1, 51935, Note_on_c, 0, 67, 0
1, 51936, Note_on_c, 0, 68, 75
1, 51936, Note_on_c, 1, 65, 75
1, 51959, Note_on_c, 0, 68, 0
1, 51960, Note_on_c, 0, 70, 75
1, 51975, Note_on_c, 1, 65, 0
1, 51983, Note_on_c, 0, 70, 0
1, 51984, Note_on_c, 0, 72, 75
1, 52007, Note_on_c, 0, 72, 0
1, 52008, Note_on_c, 0, 74, 75
1, 52031, Note_on_c, 0, 74, 0
1, 52032, Note_on_c, 0, 75, 75
1, 52032, Note_on_c, 1, 67, 75
1, 52055, Note_on_c, 0, 75, 0
1, 52056, Note_on_c, 0, 77, 75
1, 52071, Note_on_c, 1, 67, 0
1, 52079, Note_on_c, 0, 77, 0
1, 52080, Note_on_c, 0, 79, 75
1, 52103, Note_on_c, 0, 79, 0
1, 52104, Note_on_c, 0, 75, 75
1, 52127, Note_on_c, 0, 75, 0
1, 52128, Note_on_c, 0, 74, 75
1, 52128, Note_on_c, 1, 63, 75
1, 52128, Note_on_c, 1, 56, 64
1, 52151, Note_on_c, 0, 74, 0
1, 52152, Note_on_c, 0, 72, 75
1, 52175, Note_on_c, 0, 72, 0
1, 52176, Note_on_c, 0, 84, 75
1, 52199, Note_on_c, 0, 84, 0
1, 52200, Note_on_c, 0, 80, 75
1, 52217, Note_on_c, 1, 63, 0
1, 52217, Note_on_c, 1, 56, 0
1, 52223, Note_on_c, 0, 80, 0
1, 52224, Note_on_c, 0, 79, 75
1, 52224, Note_on_c, 1, 63, 75
1, 52224, Note_on_c, 1, 58, 64
1, 52313, Note_on_c, 0, 79, 0
1, 52313, Note_on_c, 1, 63, 0
1, 52313, Note_on_c, 1, 58, 0
1, 52320, Note_on_c, 0, 77, 75
1, 52320, Note_on_c, 1, 62, 75
1, 52320, Note_on_c, 1, 58, 64
1, 52333, Note_on_c, 0, 77, 0
1, 52334, Note_on_c, 0, 79, 75
1, 52347, Note_on_c, 0, 79, 0
1, 52348, Note_on_c, 0, 77, 75
1, 52361, Note_on_c, 0, 77, 0
1, 52362, Note_on_c, 0, 79, 75
1, 52375, Note_on_c, 0, 79, 0
1, 52376, Note_on_c, 0, 77, 75
1, 52389, Note_on_c, 0, 77, 0
1, 52390, Note_on_c, 0, 75, 75
1, 52402, Note_on_c, 0, 75, 0
1, 52403, Note_on_c, 0, 77, 75
1, 52409, Note_on_c, 1, 62, 0
1, 52409, Note_on_c, 1, 58, 0
1, 52415, Note_on_c, 0, 77, 0
1, 52416, Note_on_c, 0, 75, 75
1, 52416, Note_on_c, 1, 63, 75
1, 52436, Note_on_c, 0, 75, 0
1, 52464, Note_on_c, 0, 70, 75
1, 52464, Note_on_c, 0, 67, 75
1, 52487, Note_on_c, 0, 70, 0
1, 52487, Note_on_c, 0, 67, 0
1, 52488, Note_on_c, 0, 72, 74
1, 52488, Note_on_c, 0, 68, 74
1, 52505, Note_on_c, 1, 63, 0
1, 52511, Note_on_c, 0, 72, 0
1, 52511, Note_on_c, 0, 68, 0
1, 52512, Note_on_c, 0, 70, 74
1, 52512, Note_on_c, 0, 67, 74
1, 52557, Note_on_c, 0, 70, 0
1, 52557, Note_on_c, 0, 67, 0
1, 52560, Note_on_c, 0, 68, 73
1, 52560, Note_on_c, 0, 65, 73
1, 52605, Note_on_c, 0, 68, 0
1, 52605, Note_on_c, 0, 65, 0
1, 52608, Note_on_c, 0, 67, 72
1, 52608, Note_on_c, 0, 63, 72
1, 52653, Note_on_c, 0, 67, 0
1, 52653, Note_on_c, 0, 63, 0
1, 52656, Note_on_c, 0, 65, 71
1, 52656, Note_on_c, 0, 62, 71
1, 52701, Note_on_c, 0, 65, 0
1, 52701, Note_on_c, 0, 62, 0
1, 52704, Note_on_c, 0, 67, 70
1, 52704, Note_on_c, 0, 63, 70
1, 52704, Note_on_c, 1, 51, 64
1, 52724, Note_on_c, 0, 67, 0
1, 52724, Note_on_c, 0, 63, 0
1, 52752, Note_on_c, 0, 67, 70
1, 52752, Note_on_c, 0, 58, 70
1, 52775, Note_on_c, 0, 67, 0
1, 52775, Note_on_c, 0, 58, 0
1, 52776, Note_on_c, 0, 68, 70
1, 52776, Note_on_c, 0, 60, 70
1, 52799, Note_on_c, 0, 68, 0
1, 52799, Note_on_c, 0, 60, 0
1, 52800, Note_on_c, 0, 67, 70
1, 52800, Note_on_c, 0, 58, 70
1, 52845, Note_on_c, 0, 67, 0
1, 52845, Note_on_c, 0, 58, 0
1, 52848, Note_on_c, 0, 65, 70
1, 52848, Note_on_c, 0, 56, 70
1, 52893, Note_on_c, 0, 65, 0
1, 52893, Note_on_c, 0, 56, 0
1, 52896, Note_on_c, 0, 63, 70
1, 52896, Note_on_c, 0, 55, 70
1, 52941, Note_on_c, 0, 63, 0
1, 52941, Note_on_c, 0, 55, 0
1, 52944, Note_on_c, 0, 62, 70
1, 52944, Note_on_c, 0, 53, 70
1, 52969, Note_on_c, 1, 51, 0
1, 52989, Note_on_c, 0, 62, 0
1, 52989, Note_on_c, 0, 53, 0
1, 52992, Note_on_c, 0, 62, 70
1, 52992, Note_on_c, 1, 56, 64
1, 52992, Note_on_c, 1, 51, 64
1, 52992, Note_on_c, 1, 39, 64
1, 53184, Note_on_c, 0, 62, 0
1, 53184, Note_on_c, 0, 63, 70
1, 53184, Note_on_c, 1, 56, 0
1, 53184, Note_on_c, 1, 55, 64
1, 53257, Note_on_c, 0, 63, 0
1, 53257, Note_on_c, 1, 55, 0
1, 53257, Note_on_c, 1, 51, 0
1, 53257, Note_on_c, 1, 39, 0
1, 53280, Note_on_c, 1, 46, 75
1, 53280, Note_on_c, 1, 34, 75
1, 53328, Note_on_c, 0, 77, 75
1, 53369, Note_on_c, 1, 46, 0
1, 53369, Note_on_c, 1, 34, 0
1, 53373, Note_on_c, 0, 77, 0
1, 53376, Note_on_c, 0, 77, 75
1, 53424, Note_on_c, 0, 77, 0
1, 53424, Note_on_c, 0, 82, 75
1, 53469, Note_on_c, 0, 82, 0
1, 53472, Note_on_c, 0, 82, 75
1, 53472, Note_on_c, 1, 74, 75
1, 53520, Note_on_c, 0, 82, 0
1, 53520, Note_on_c, 0, 81, 75
1, 53561, Note_on_c, 1, 74, 0
1, 53565, Note_on_c, 0, 81, 0
1, 53568, Note_on_c, 1, 75, 75
1, 53607, Note_on_c, 1, 75, 0
1, 53616, Note_on_c, 0, 79, 75
1, 53661, Note_on_c, 0, 79, 0
1, 53664, Note_on_c, 1, 74, 75
1, 53703, Note_on_c, 1, 74, 0
1, 53712, Note_on_c, 0, 77, 75
1, 53757, Note_on_c, 0, 77, 0
1, 53760, Note_on_c, 1, 72, 75
1, 53799, Note_on_c, 1, 72, 0
1, 53808, Note_on_c, 0, 75, 75
1, 53853, Note_on_c, 0, 75, 0
1, 53856, Note_on_c, 1, 70, 75
1, 53904, Note_on_c, 0, 74, 75
1, 53945, Note_on_c, 1, 70, 0
1, 53949, Note_on_c, 0, 74, 0
1, 53952, Note_on_c, 0, 77, 75
1, 54000, Note_on_c, 0, 77, 0
1, 54000, Note_on_c, 0, 82, 75
1, 54045, Note_on_c, 0, 82, 0
1, 54048, Note_on_c, 0, 82, 75
1, 54048, Note_on_c, 1, 74, 75
1, 54096, Note_on_c, 0, 82, 0
1, 54096, Note_on_c, 0, 81, 75
1, 54137, Note_on_c, 1, 74, 0
1, 54141, Note_on_c, 0, 81, 0
1, 54144, Note_on_c, 1, 75, 75
1, 54168, Note_on_c, 0, 79, 75
1, 54189, Note_on_c, 1, 75, 0
1, 54191, Note_on_c, 0, 79, 0
1, 54192, Note_on_c, 0, 78, 75
1, 54215, Note_on_c, 0, 78, 0
1, 54216, Note_on_c, 0, 79, 75
1, 54239, Note_on_c, 0, 79, 0
1, 54240, Note_on_c, 1, 74, 75
1, 54264, Note_on_c, 0, 77, 75
1, 54285, Note_on_c, 1, 74, 0
1, 54287, Note_on_c, 0, 77, 0
1, 54288, Note_on_c, 0, 76, 75
1, 54311, Note_on_c, 0, 76, 0
1, 54312, Note_on_c, 0, 77, 75
1, 54335, Note_on_c, 0, 77, 0
1, 54336, Note_on_c, 1, 72, 75
1, 54360, Note_on_c, 0, 75, 75
1, 54381, Note_on_c, 1, 72, 0
1, 54383, Note_on_c, 0, 75, 0
1, 54384, Note_on_c, 0, 74, 75
1, 54407, Note_on_c, 0, 74, 0
1, 54408, Note_on_c, 0, 75, 75
1, 54431, Note_on_c, 0, 75, 0
1, 54432, Note_on_c, 1, 70, 75
1, 54456, Note_on_c, 0, 74, 75
1, 54479, Note_on_c, 0, 74, 0
1, 54480, Note_on_c, 0, 75, 75
1, 54503, Note_on_c, 0, 75, 0
1, 54504, Note_on_c, 0, 77, 75
1, 54521, Note_on_c, 1, 70, 0
1, 54527, Note_on_c, 0, 77, 0
1, 54528, Note_on_c, 0, 79, 75
1, 54551, Note_on_c, 0, 79, 0
1, 54552, Note_on_c, 0, 81, 75
1, 54575, Note_on_c, 0, 81, 0
1, 54576, Note_on_c, 0, 82, 75
1, 54599, Note_on_c, 0, 82, 0
1, 54600, Note_on_c, 0, 84, 75
1, 54623, Note_on_c, 0, 84, 0
1, 54624, Note_on_c, 0, 86, 75
1, 54647, Note_on_c, 0, 86, 0
1, 54648, Note_on_c, 0, 82, 75
1, 54671, Note_on_c, 0, 82, 0
1, 54672, Note_on_c, 0, 81, 75
1, 54695, Note_on_c, 0, 81, 0
1, 54696, Note_on_c, 0, 79, 75
1, 54719, Note_on_c, 0, 79, 0
1, 54720, Note_on_c, 0, 77, 75
1, 54768, Note_on_c, 1, 58, 75
1, 54791, Note_on_c, 1, 58, 0
1, 54792, Note_on_c, 1, 60, 75
1, 54815, Note_on_c, 1, 60, 0
1, 54816, Note_on_c, 1, 62, 75
1, 54861, Note_on_c, 1, 62, 0
1, 54864, Note_on_c, 1, 58, 75
1, 54897, Note_on_c, 0, 77, 0
1, 54909, Note_on_c, 1, 58, 0
1, 54912, Note_on_c, 0, 75, 75
1, 54912, Note_on_c, 1, 60, 75
1, 54925, Note_on_c, 0, 75, 0
1, 54926, Note_on_c, 0, 77, 75
1, 54939, Note_on_c, 0, 77, 0
1, 54940, Note_on_c, 0, 75, 75
1, 54953, Note_on_c, 0, 75, 0
1, 54954, Note_on_c, 0, 77, 75
1, 54957, Note_on_c, 1, 60, 0
1, 54960, Note_on_c, 1, 53, 75
1, 54967, Note_on_c, 0, 77, 0
1, 54968, Note_on_c, 0, 75, 75
1, 54981, Note_on_c, 0, 75, 0
1, 54982, Note_on_c, 0, 74, 75
1, 54994, Note_on_c, 0, 74, 0
1, 54995, Note_on_c, 0, 75, 75
1, 55005, Note_on_c, 1, 53, 0
1, 55007, Note_on_c, 0, 75, 0
1, 55008, Note_on_c, 0, 74, 75
1, 55008, Note_on_c, 1, 58, 75
1, 55031, Note_on_c, 0, 74, 0
1, 55032, Note_on_c, 0, 70, 75
1, 55055, Note_on_c, 0, 70, 0
1, 55056, Note_on_c, 0, 69, 75
1, 55079, Note_on_c, 0, 69, 0
1, 55080, Note_on_c, 0, 70, 75
1, 55097, Note_on_c, 1, 58, 0
1, 55103, Note_on_c, 0, 70, 0
1, 55104, Note_on_c, 0, 72, 75
1, 55127, Note_on_c, 0, 72, 0
1, 55128, Note_on_c, 0, 70, 75
1, 55151, Note_on_c, 0, 70, 0
1, 55152, Note_on_c, 0, 69, 75
1, 55175, Note_on_c, 0, 69, 0
1, 55176, Note_on_c, 0, 70, 75
1, 55199, Note_on_c, 0, 70, 0
1, 55200, Note_on_c, 0, 74, 75
1, 55200, Note_on_c, 1, 50, 75
1, 55223, Note_on_c, 0, 74, 0
1, 55224, Note_on_c, 0, 72, 75
1, 55239, Note_on_c, 1, 50, 0
1, 55247, Note_on_c, 0, 72, 0
1, 55248, Note_on_c, 0, 70, 75
1, 55271, Note_on_c, 0, 70, 0
1, 55272, Note_on_c, 0, 69, 75
1, 55295, Note_on_c, 0, 69, 0
1, 55296, Note_on_c, 0, 67, 75
1, 55296, Note_on_c, 1, 51, 75
1, 55319, Note_on_c, 0, 67, 0
1, 55320, Note_on_c, 0, 75, 75
1, 55335, Note_on_c, 1, 51, 0
1, 55343, Note_on_c, 0, 75, 0
1, 55344, Note_on_c, 0, 79, 75
1, 55367, Note_on_c, 0, 79, 0
1, 55368, Note_on_c, 0, 77, 75
1, 55391, Note_on_c, 0, 77, 0
1, 55392, Note_on_c, 0, 75, 75
1, 55415, Note_on_c, 0, 75, 0
1, 55416, Note_on_c, 0, 74, 75
1, 55439, Note_on_c, 0, 74, 0
1, 55440, Note_on_c, 0, 72, 75
1, 55463, Note_on_c, 0, 72, 0
1, 55464, Note_on_c, 0, 70, 75
1, 55487, Note_on_c, 0, 70, 0
1, 55488, Note_on_c, 0, 69, 75
1, 55488, Note_on_c, 1, 53, 75
1, 55511, Note_on_c, 0, 69, 0
1, 55512, Note_on_c, 0, 67, 75
1, 55535, Note_on_c, 0, 67, 0
1, 55536, Note_on_c, 0, 65, 75
1, 55559, Note_on_c, 0, 65, 0
1, 55560, Note_on_c, 0, 63, 75
1, 55577, Note_on_c, 1, 53, 0
1, 55583, Note_on_c, 0, 63, 0
1, 55584, Note_on_c, 0, 62, 75
1, 55584, Note_on_c, 1, 46, 75
1, 55607, Note_on_c, 0, 62, 0
1, 55608, Note_on_c, 0, 70, 75
1, 55631, Note_on_c, 0, 70, 0
1, 55632, Note_on_c, 0, 69, 75
1, 55655, Note_on_c, 0, 69, 0
1, 55656, Note_on_c, 0, 70, 75
1, 55673, Note_on_c, 1, 46, 0
1, 55679, Note_on_c, 0, 70, 0
1, 55680, Note_on_c, 0, 72, 75
1, 55703, Note_on_c, 0, 72, 0
1, 55704, Note_on_c, 0, 70, 75
1, 55727, Note_on_c, 0, 70, 0
1, 55728, Note_on_c, 0, 69, 75
1, 55751, Note_on_c, 0, 69, 0
1, 55752, Note_on_c, 0, 70, 75
1, 55775, Note_on_c, 0, 70, 0
1, 55776, Note_on_c, 0, 74, 75
1, 55776, Note_on_c, 1, 50, 75
1, 55799, Note_on_c, 0, 74, 0
1, 55800, Note_on_c, 0, 72, 75
1, 55815, Note_on_c, 1, 50, 0
1, 55823, Note_on_c, 0, 72, 0
1, 55824, Note_on_c, 0, 70, 75
1, 55847, Note_on_c, 0, 70, 0
1, 55848, Note_on_c, 0, 69, 75
1, 55871, Note_on_c, 0, 69, 0
1, 55872, Note_on_c, 0, 67, 75
1, 55872, Note_on_c, 1, 51, 75
1, 55895, Note_on_c, 0, 67, 0
1, 55896, Note_on_c, 0, 75, 75
1, 55911, Note_on_c, 1, 51, 0
1, 55919, Note_on_c, 0, 75, 0
1, 55920, Note_on_c, 0, 79, 75
1, 55943, Note_on_c, 0, 79, 0
1, 55944, Note_on_c, 0, 77, 75
1, 55967, Note_on_c, 0, 77, 0
1, 55968, Note_on_c, 0, 75, 75
1, 55991, Note_on_c, 0, 75, 0
1, 55992, Note_on_c, 0, 74, 75
1, 56015, Note_on_c, 0, 74, 0
1, 56016, Note_on_c, 0, 72, 75
1, 56039, Note_on_c, 0, 72, 0
1, 56040, Note_on_c, 0, 70, 75
1, 56063, Note_on_c, 0, 70, 0
1, 56064, Note_on_c, 0, 69, 75
1, 56064, Note_on_c, 1, 53, 75
1, 56087, Note_on_c, 0, 69, 0
1, 56088, Note_on_c, 0, 67, 75
1, 56111, Note_on_c, 0, 67, 0
1, 56112, Note_on_c, 0, 65, 75
1, 56135, Note_on_c, 0, 65, 0
1, 56136, Note_on_c, 0, 63, 75
1, 56153, Note_on_c, 1, 53, 0
1, 56159, Note_on_c, 0, 63, 0
1, 56160, Note_on_c, 0, 62, 75
1, 56184, Note_on_c, 1, 46, 75
1, 56199, Note_on_c, 0, 62, 0
1, 56207, Note_on_c, 1, 46, 0
1, 56208, Note_on_c, 1, 48, 75
1, 56231, Note_on_c, 1, 48, 0
1, 56232, Note_on_c, 1, 50, 75
1, 56255, Note_on_c, 1, 50, 0
1, 56256, Note_on_c, 1, 51, 75
1, 56279, Note_on_c, 1, 51, 0
1, 56280, Note_on_c, 1, 53, 75
1, 56303, Note_on_c, 1, 53, 0
1, 56304, Note_on_c, 1, 55, 75
1, 56327, Note_on_c, 1, 55, 0
1, 56328, Note_on_c, 1, 57, 75
1, 56351, Note_on_c, 1, 57, 0
1, 56352, Note_on_c, 1, 58, 75
1, 56375, Note_on_c, 1, 58, 0
1, 56376, Note_on_c, 1, 60, 75
1, 56399, Note_on_c, 1, 60, 0
1, 56400, Note_on_c, 1, 62, 75
1, 56423, Note_on_c, 1, 62, 0
1, 56424, Note_on_c, 1, 60, 75
1, 56447, Note_on_c, 1, 60, 0
1, 56448, Note_on_c, 1, 58, 75
1, 56472, Note_on_c, 0, 70, 75
1, 56495, Note_on_c, 0, 70, 0
1, 56496, Note_on_c, 0, 72, 75
1, 56519, Note_on_c, 0, 72, 0
1, 56520, Note_on_c, 0, 74, 75
1, 56537, Note_on_c, 1, 58, 0
1, 56543, Note_on_c, 0, 74, 0
1, 56544, Note_on_c, 0, 75, 75
1, 56567, Note_on_c, 0, 75, 0
1, 56568, Note_on_c, 0, 77, 75
1, 56591, Note_on_c, 0, 77, 0
1, 56592, Note_on_c, 0, 79, 75
1, 56615, Note_on_c, 0, 79, 0
1, 56616, Note_on_c, 0, 81, 75
1, 56639, Note_on_c, 0, 81, 0
1, 56640, Note_on_c, 0, 82, 75
1, 56663, Note_on_c, 0, 82, 0
1, 56664, Note_on_c, 0, 84, 75
1, 56687, Note_on_c, 0, 84, 0
1, 56688, Note_on_c, 0, 86, 75
1, 56711, Note_on_c, 0, 86, 0
1, 56712, Note_on_c, 0, 84, 75
1, 56735, Note_on_c, 0, 84, 0
1, 56736, Note_on_c, 0, 82, 91
1, 56784, Note_on_c, 1, 73, 70
1, 56829, Note_on_c, 1, 73, 0
1, 56832, Note_on_c, 1, 73, 70
1, 56877, Note_on_c, 0, 82, 0
1, 56877, Note_on_c, 1, 73, 0
1, 56880, Note_on_c, 0, 80, 75
1, 56880, Note_on_c, 1, 73, 70
1, 56925, Note_on_c, 0, 80, 0
1, 56925, Note_on_c, 1, 73, 0
1, 56928, Note_on_c, 0, 79, 75
1, 56928, Note_on_c, 1, 73, 70
1, 56973, Note_on_c, 0, 79, 0
1, 56973, Note_on_c, 1, 73, 0
1, 56976, Note_on_c, 0, 77, 75
1, 56976, Note_on_c, 1, 73, 70
1, 57021, Note_on_c, 0, 77, 0
1, 57021, Note_on_c, 1, 73, 0
1, 57024, Note_on_c, 0, 77, 91
1, 57072, Note_on_c, 1, 72, 70
1, 57117, Note_on_c, 1, 72, 0
1, 57120, Note_on_c, 0, 77, 0
1, 57120, Note_on_c, 0, 76, 75
1, 57120, Note_on_c, 1, 72, 70
1, 57165, Note_on_c, 0, 76, 0
1, 57165, Note_on_c, 1, 72, 0
1, 57168, Note_on_c, 0, 85, 75
1, 57168, Note_on_c, 0, 82, 75
1, 57168, Note_on_c, 1, 72, 70
1, 57213, Note_on_c, 0, 85, 0
1, 57213, Note_on_c, 0, 82, 0
1, 57213, Note_on_c, 1, 72, 0
1, 57216, Note_on_c, 0, 84, 75
1, 57216, Note_on_c, 0, 80, 75
1, 57216, Note_on_c, 1, 72, 70
1, 57261, Note_on_c, 0, 84, 0
1, 57261, Note_on_c, 0, 80, 0
1, 57261, Note_on_c, 1, 72, 0
1, 57264, Note_on_c, 0, 82, 75
1, 57264, Note_on_c, 0, 79, 75
1, 57264, Note_on_c, 1, 72, 70
1, 57309, Note_on_c, 0, 82, 0
1, 57309, Note_on_c, 0, 79, 0
1, 57309, Note_on_c, 1, 72, 0
1, 57312, Note_on_c, 0, 82, 91
1, 57312, Note_on_c, 0, 79, 91
1, 57360, Note_on_c, 1, 72, 70
1, 57405, Note_on_c, 1, 72, 0
1, 57408, Note_on_c, 0, 82, 0
1, 57408, Note_on_c, 0, 79, 0
1, 57408, Note_on_c, 0, 80, 75
1, 57408, Note_on_c, 0, 77, 75
1, 57408, Note_on_c, 1, 72, 70
1, 57453, Note_on_c, 0, 80, 0
1, 57453, Note_on_c, 0, 77, 0
1, 57453, Note_on_c, 1, 72, 0
1, 57456, Note_on_c, 0, 84, 75
1, 57456, Note_on_c, 0, 80, 75
1, 57456, Note_on_c, 1, 72, 70
1, 57501, Note_on_c, 0, 84, 0
1, 57501, Note_on_c, 0, 80, 0
1, 57501, Note_on_c, 1, 72, 0
1, 57504, Note_on_c, 0, 82, 75
1, 57504, Note_on_c, 0, 79, 75
1, 57504, Note_on_c, 1, 72, 70
1, 57549, Note_on_c, 0, 82, 0
1, 57549, Note_on_c, 0, 79, 0
1, 57549, Note_on_c, 1, 72, 0
1, 57552, Note_on_c, 0, 80, 75
1, 57552, Note_on_c, 0, 77, 75
1, 57552, Note_on_c, 1, 72, 70
1, 57597, Note_on_c, 0, 80, 0
1, 57597, Note_on_c, 0, 77, 0
1, 57597, Note_on_c, 1, 72, 0
1, 57600, Note_on_c, 0, 80, 75
1, 57600, Note_on_c, 0, 77, 64
1, 57613, Note_on_c, 0, 80, 0
1, 57614, Note_on_c, 0, 82, 75
1, 57627, Note_on_c, 0, 82, 0
1, 57628, Note_on_c, 0, 80, 75
1, 57641, Note_on_c, 0, 80, 0
1, 57642, Note_on_c, 0, 82, 75
1, 57648, Note_on_c, 1, 60, 70
1, 57655, Note_on_c, 0, 82, 0
1, 57656, Note_on_c, 0, 80, 75
1, 57669, Note_on_c, 0, 80, 0
1, 57670, Note_on_c, 0, 79, 75
1, 57682, Note_on_c, 0, 79, 0
1, 57683, Note_on_c, 0, 80, 75
1, 57689, Note_on_c, 0, 77, 0
1, 57693, Note_on_c, 1, 60, 0
1, 57696, Note_on_c, 0, 80, 0
1, 57696, Note_on_c, 0, 79, 75
1, 57696, Note_on_c, 0, 76, 75
1, 57696, Note_on_c, 1, 60, 70
1, 57741, Note_on_c, 0, 79, 0
1, 57741, Note_on_c, 0, 76, 0
1, 57741, Note_on_c, 1, 60, 0
1, 57744, Note_on_c, 0, 73, 75
1, 57744, Note_on_c, 0, 70, 75
1, 57744, Note_on_c, 1, 60, 70
1, 57789, Note_on_c, 0, 73, 0
1, 57789, Note_on_c, 0, 70, 0
1, 57789, Note_on_c, 1, 60, 0
1, 57792, Note_on_c, 0, 72, 75
1, 57792, Note_on_c, 0, 68, 75
1, 57792, Note_on_c, 1, 60, 70
1, 57837, Note_on_c, 0, 72, 0
1, 57837, Note_on_c, 0, 68, 0
1, 57837, Note_on_c, 1, 60, 0
1, 57840, Note_on_c, 0, 70, 75
1, 57840, Note_on_c, 0, 67, 75
1, 57840, Note_on_c, 1, 60, 70
1, 57885, Note_on_c, 0, 70, 0
1, 57885, Note_on_c, 0, 67, 0
1, 57885, Note_on_c, 1, 60, 0
1, 57888, Note_on_c, 0, 70, 91
1, 57888, Note_on_c, 0, 67, 91
1, 57936, Note_on_c, 1, 60, 70
1, 57981, Note_on_c, 1, 60, 0
1, 57984, Note_on_c, 0, 70, 0
1, 57984, Note_on_c, 0, 67, 0
1, 57984, Note_on_c, 0, 68, 75
1, 57984, Note_on_c, 0, 65, 75
1, 57984, Note_on_c, 1, 60, 70
1, 58029, Note_on_c, 0, 68, 0
1, 58029, Note_on_c, 0, 65, 0
1, 58029, Note_on_c, 1, 60, 0
1, 58032, Note_on_c, 0, 72, 75
1, 58032, Note_on_c, 0, 68, 75
1, 58032, Note_on_c, 1, 60, 70
1, 58077, Note_on_c, 0, 72, 0
1, 58077, Note_on_c, 0, 68, 0
1, 58077, Note_on_c, 1, 60, 0
1, 58080, Note_on_c, 0, 70, 75
1, 58080, Note_on_c, 0, 67, 75
1, 58080, Note_on_c, 1, 60, 70
1, 58125, Note_on_c, 0, 70, 0
1, 58125, Note_on_c, 0, 67, 0
1, 58125, Note_on_c, 1, 60, 0
1, 58128, Note_on_c, 0, 68, 75
1, 58128, Note_on_c, 0, 65, 75
1, 58128, Note_on_c, 1, 60, 70
1, 58173, Note_on_c, 0, 68, 0
1, 58173, Note_on_c, 0, 65, 0
1, 58173, Note_on_c, 1, 60, 0
1, 58176, Note_on_c, 0, 68, 75
1, 58176, Note_on_c, 0, 65, 64
1, 58176, Note_on_c, 1, 60, 70
1, 58189, Note_on_c, 0, 68, 0
1, 58190, Note_on_c, 0, 70, 75
1, 58203, Note_on_c, 0, 70, 0
1, 58204, Note_on_c, 0, 68, 75
1, 58217, Note_on_c, 0, 68, 0
1, 58218, Note_on_c, 0, 70, 75
1, 58231, Note_on_c, 0, 70, 0
1, 58232, Note_on_c, 0, 68, 75
1, 58245, Note_on_c, 0, 68, 0
1, 58246, Note_on_c, 0, 67, 75
1, 58258, Note_on_c, 0, 67, 0
1, 58259, Note_on_c, 0, 68, 75
1, 58265, Note_on_c, 0, 65, 0
1, 58271, Note_on_c, 0, 68, 0
1, 58272, Note_on_c, 0, 67, 75
1, 58272, Note_on_c, 0, 64, 75
1, 58353, Note_on_c, 1, 60, 0
1, 58361, Note_on_c, 0, 67, 0
1, 58361, Note_on_c, 0, 64, 0
1, 58464, Note_on_c, 0, 80, 81
1, 58464, Note_on_c, 1, 56, 81
1, 58464, Note_on_c, 1, 51, 81
1, 58464, Note_on_c, 1, 48, 81
1, 58464, Note_on_c, 1, 44, 81
1, 58487, Note_on_c, 0, 80, 0
1, 58488, Note_on_c, 0, 84, 81
1, 58511, Note_on_c, 0, 84, 0
1, 58512, Note_on_c, 0, 82, 81
1, 58535, Note_on_c, 0, 82, 0
1, 58536, Note_on_c, 0, 80, 81
1, 58559, Note_on_c, 0, 80, 0
1, 58560, Note_on_c, 0, 79, 81
1, 58583, Note_on_c, 0, 79, 0
1, 58584, Note_on_c, 0, 77, 81
1, 58607, Note_on_c, 0, 77, 0
1, 58608, Note_on_c, 0, 75, 81
1, 58631, Note_on_c, 0, 75, 0
1, 58632, Note_on_c, 0, 73, 81
1, 58655, Note_on_c, 0, 73, 0
1, 58656, Note_on_c, 0, 72, 81
1, 58679, Note_on_c, 0, 72, 0
1, 58680, Note_on_c, 0, 70, 81
1, 58703, Note_on_c, 0, 70, 0
1, 58704, Note_on_c, 0, 68, 81
1, 58727, Note_on_c, 0, 68, 0
1, 58728, Note_on_c, 0, 67, 81
1, 58751, Note_on_c, 0, 67, 0
1, 58752, Note_on_c, 0, 68, 81
1, 58775, Note_on_c, 0, 68, 0
1, 58776, Note_on_c, 0, 72, 81
1, 58799, Note_on_c, 0, 72, 0
1, 58800, Note_on_c, 0, 70, 81
1, 58823, Note_on_c, 0, 70, 0
1, 58824, Note_on_c, 0, 68, 81
1, 58847, Note_on_c, 0, 68, 0
1, 58848, Note_on_c, 0, 67, 81
1, 58871, Note_on_c, 0, 67, 0
1, 58872, Note_on_c, 0, 65, 81
1, 58895, Note_on_c, 0, 65, 0
1, 58896, Note_on_c, 0, 63, 81
1, 58919, Note_on_c, 0, 63, 0
1, 58920, Note_on_c, 0, 61, 81
1, 58943, Note_on_c, 0, 61, 0
1, 58944, Note_on_c, 0, 60, 81
1, 58967, Note_on_c, 0, 60, 0
1, 58968, Note_on_c, 0, 58, 78
1, 58991, Note_on_c, 0, 58, 0
1, 58992, Note_on_c, 0, 56, 76
1, 59015, Note_on_c, 0, 56, 0
1, 59016, Note_on_c, 0, 55, 74
1, 59017, Note_on_c, 1, 56, 0
1, 59017, Note_on_c, 1, 51, 0
1, 59017, Note_on_c, 1, 48, 0
1, 59017, Note_on_c, 1, 44, 0
1, 59039, Note_on_c, 0, 55, 0
1, 59040, Note_on_c, 0, 56, 88
1, 59088, Note_on_c, 1, 48, 70
1, 59088, Note_on_c, 1, 44, 70
1, 59133, Note_on_c, 1, 48, 0
1, 59133, Note_on_c, 1, 44, 0
1, 59136, Note_on_c, 1, 48, 70
1, 59136, Note_on_c, 1, 44, 70
1, 59181, Note_on_c, 0, 56, 0
1, 59181, Note_on_c, 1, 48, 0
1, 59181, Note_on_c, 1, 44, 0
1, 59184, Note_on_c, 0, 54, 64
1, 59184, Note_on_c, 1, 48, 70
1, 59184, Note_on_c, 1, 44, 70
1, 59229, Note_on_c, 0, 54, 0
1, 59229, Note_on_c, 1, 48, 0
1, 59229, Note_on_c, 1, 44, 0
1, 59232, Note_on_c, 0, 63, 64
1, 59232, Note_on_c, 1, 48, 70
1, 59232, Note_on_c, 1, 44, 70
1, 59277, Note_on_c, 0, 63, 0
1, 59277, Note_on_c, 1, 48, 0
1, 59277, Note_on_c, 1, 44, 0
1, 59280, Note_on_c, 0, 54, 65
1, 59280, Note_on_c, 1, 48, 70
1, 59280, Note_on_c, 1, 44, 70
1, 59325, Note_on_c, 0, 54, 0
1, 59325, Note_on_c, 1, 48, 0
1, 59325, Note_on_c, 1, 44, 0
1, 59328, Note_on_c, 0, 54, 81
1, 59376, Note_on_c, 1, 48, 71
1, 59376, Note_on_c, 1, 45, 71
1, 59421, Note_on_c, 1, 48, 0
1, 59421, Note_on_c, 1, 45, 0
1, 59424, Note_on_c, 1, 48, 71
1, 59424, Note_on_c, 1, 45, 71
1, 59469, Note_on_c, 0, 54, 0
1, 59469, Note_on_c, 1, 48, 0
1, 59469, Note_on_c, 1, 45, 0
1, 59472, Note_on_c, 0, 53, 67
1, 59472, Note_on_c, 1, 48, 71
1, 59472, Note_on_c, 1, 45, 71
1, 59517, Note_on_c, 0, 53, 0
1, 59517, Note_on_c, 1, 48, 0
1, 59517, Note_on_c, 1, 45, 0
1, 59520, Note_on_c, 0, 63, 67
1, 59520, Note_on_c, 1, 48, 72
1, 59520, Note_on_c, 1, 45, 72
1, 59565, Note_on_c, 0, 63, 0
1, 59565, Note_on_c, 1, 48, 0
1, 59565, Note_on_c, 1, 45, 0
1, 59568, Note_on_c, 0, 60, 68
1, 59568, Note_on_c, 1, 53, 72
1, 59568, Note_on_c, 1, 45, 72
1, 59613, Note_on_c, 0, 60, 0
1, 59613, Note_on_c, 1, 53, 0
1, 59613, Note_on_c, 1, 45, 0
1, 59616, Note_on_c, 0, 61, 84
1, 59664, Note_on_c, 1, 53, 73
1, 59664, Note_on_c, 1, 46, 73
1, 59709, Note_on_c, 1, 53, 0
1, 59709, Note_on_c, 1, 46, 0
1, 59712, Note_on_c, 1, 53, 73
1, 59712, Note_on_c, 1, 46, 73
1, 59757, Note_on_c, 0, 61, 0
1, 59757, Note_on_c, 1, 53, 0
1, 59757, Note_on_c, 1, 46, 0
1, 59760, Note_on_c, 0, 58, 70
1, 59760, Note_on_c, 1, 53, 73
1, 59760, Note_on_c, 1, 46, 73
1, 59805, Note_on_c, 0, 58, 0
1, 59805, Note_on_c, 1, 53, 0
1, 59805, Note_on_c, 1, 46, 0
1, 59808, Note_on_c, 0, 65, 70
1, 59808, Note_on_c, 1, 53, 74
1, 59808, Note_on_c, 1, 46, 74
1, 59853, Note_on_c, 0, 65, 0
1, 59853, Note_on_c, 1, 53, 0
1, 59853, Note_on_c, 1, 46, 0
1, 59856, Note_on_c, 0, 56, 71
1, 59856, Note_on_c, 1, 53, 74
1, 59856, Note_on_c, 1, 46, 74
1, 59901, Note_on_c, 0, 56, 0
1, 59901, Note_on_c, 1, 53, 0
1, 59901, Note_on_c, 1, 46, 0
1, 59904, Note_on_c, 0, 56, 87
1, 59952, Note_on_c, 1, 53, 75
1, 59952, Note_on_c, 1, 47, 75
1, 59997, Note_on_c, 1, 53, 0
1, 59997, Note_on_c, 1, 47, 0
1, 60000, Note_on_c, 1, 53, 75
1, 60000, Note_on_c, 1, 47, 75
1, 60045, Note_on_c, 0, 56, 0
1, 60045, Note_on_c, 1, 53, 0
1, 60045, Note_on_c, 1, 47, 0
1, 60048, Note_on_c, 0, 55, 73
1, 60048, Note_on_c, 1, 53, 75
1, 60048, Note_on_c, 1, 47, 75
1, 60093, Note_on_c, 0, 55, 0
1, 60093, Note_on_c, 1, 53, 0
1, 60093, Note_on_c, 1, 47, 0
1, 60096, Note_on_c, 0, 65, 73
1, 60096, Note_on_c, 1, 50, 75
1, 60096, Note_on_c, 1, 47, 75
1, 60141, Note_on_c, 0, 65, 0
1, 60141, Note_on_c, 1, 50, 0
1, 60141, Note_on_c, 1, 47, 0
1, 60144, Note_on_c, 0, 62, 74
1, 60144, Note_on_c, 1, 55, 76
1, 60144, Note_on_c, 1, 47, 76
1, 60189, Note_on_c, 0, 62, 0
1, 60189, Note_on_c, 1, 55, 0
1, 60189, Note_on_c, 1, 47, 0
1, 60192, Note_on_c, 0, 63, 90
1, 60240, Note_on_c, 1, 55, 76
1, 60240, Note_on_c, 1, 48, 76
1, 60285, Note_on_c, 1, 55, 0
1, 60285, Note_on_c, 1, 48, 0
1, 60288, Note_on_c, 1, 55, 77
1, 60288, Note_on_c, 1, 48, 77
1, 60333, Note_on_c, 0, 63, 0
1, 60333, Note_on_c, 1, 55, 0
1, 60333, Note_on_c, 1, 48, 0
1, 60336, Note_on_c, 0, 60, 76
1, 60336, Note_on_c, 1, 55, 77
1, 60336, Note_on_c, 1, 48, 77
1, 60381, Note_on_c, 0, 60, 0
1, 60381, Note_on_c, 1, 55, 0
1, 60381, Note_on_c, 1, 48, 0
1, 60384, Note_on_c, 0, 67, 76
1, 60384, Note_on_c, 1, 51, 77
1, 60384, Note_on_c, 1, 48, 77
1, 60429, Note_on_c, 0, 67, 0
1, 60429, Note_on_c, 1, 51, 0
1, 60429, Note_on_c, 1, 48, 0
1, 60432, Note_on_c, 0, 63, 77
1, 60432, Note_on_c, 1, 55, 78
1, 60432, Note_on_c, 1, 48, 78
1, 60477, Note_on_c, 0, 63, 0
1, 60477, Note_on_c, 1, 55, 0
1, 60477, Note_on_c, 1, 48, 0
1, 60480, Note_on_c, 0, 68, 93
1, 60528, Note_on_c, 1, 53, 78
1, 60528, Note_on_c, 1, 41, 78
1, 60573, Note_on_c, 1, 53, 0
1, 60573, Note_on_c, 1, 41, 0
1, 60576, Note_on_c, 1, 53, 79
1, 60576, Note_on_c, 1, 41, 79
1, 60621, Note_on_c, 0, 68, 0
1, 60621, Note_on_c, 1, 53, 0
1, 60621, Note_on_c, 1, 41, 0
1, 60624, Note_on_c, 0, 65, 79
1, 60624, Note_on_c, 1, 53, 79
1, 60624, Note_on_c, 1, 41, 79
1, 60669, Note_on_c, 0, 65, 0
1, 60669, Note_on_c, 1, 53, 0
1, 60669, Note_on_c, 1, 41, 0
1, 60672, Note_on_c, 0, 62, 79
1, 60672, Note_on_c, 1, 53, 79
1, 60672, Note_on_c, 1, 41, 79
1, 60717, Note_on_c, 0, 62, 0
1, 60717, Note_on_c, 1, 53, 0
1, 60717, Note_on_c, 1, 41, 0
1, 60720, Note_on_c, 0, 60, 80
1, 60720, Note_on_c, 1, 53, 80
1, 60720, Note_on_c, 1, 41, 80
1, 60765, Note_on_c, 0, 60, 0
1, 60765, Note_on_c, 1, 53, 0
1, 60765, Note_on_c, 1, 41, 0
1, 60768, Note_on_c, 1, 43, 80
1, 60768, Note_on_c, 1, 31, 80
1, 60792, Note_on_c, 0, 55, 80
1, 60815, Note_on_c, 0, 55, 0
1, 60816, Note_on_c, 0, 55, 81
1, 60839, Note_on_c, 0, 55, 0
1, 60840, Note_on_c, 0, 55, 81
1, 60857, Note_on_c, 1, 43, 0
1, 60857, Note_on_c, 1, 31, 0
1, 60863, Note_on_c, 0, 55, 0
1, 60864, Note_on_c, 1, 47, 81
1, 60864, Note_on_c, 1, 35, 81
1, 60888, Note_on_c, 0, 59, 81
1, 60911, Note_on_c, 0, 59, 0
1, 60912, Note_on_c, 0, 59, 81
1, 60935, Note_on_c, 0, 59, 0
1, 60936, Note_on_c, 0, 59, 81
1, 60953, Note_on_c, 1, 47, 0
1, 60953, Note_on_c, 1, 35, 0
1, 60959, Note_on_c, 0, 59, 0
1, 60960, Note_on_c, 1, 50, 81
1, 60960, Note_on_c, 1, 38, 81
1, 60984, Note_on_c, 0, 62, 81
1, 61007, Note_on_c, 0, 62, 0
1, 61008, Note_on_c, 0, 62, 81
1, 61031, Note_on_c, 0, 62, 0
1, 61032, Note_on_c, 0, 62, 81
1, 61049, Note_on_c, 1, 50, 0
1, 61049, Note_on_c, 1, 38, 0
1, 61055, Note_on_c, 0, 62, 0
1, 61056, Note_on_c, 1, 55, 81
1, 61056, Note_on_c, 1, 43, 81
1, 61104, Note_on_c, 0, 67, 81
1, 61127, Note_on_c, 0, 67, 0
1, 61128, Note_on_c, 0, 69, 81
1, 61145, Note_on_c, 1, 55, 0
1, 61145, Note_on_c, 1, 43, 0
1, 61151, Note_on_c, 0, 69, 0
1, 61152, Note_on_c, 0, 71, 81
1, 61175, Note_on_c, 0, 71, 0
1, 61176, Note_on_c, 0, 67, 81
1, 61199, Note_on_c, 0, 67, 0
1, 61200, Note_on_c, 0, 71, 81
1, 61223, Note_on_c, 0, 71, 0
1, 61224, Note_on_c, 0, 72, 81
1, 61247, Note_on_c, 0, 72, 0
1, 61248, Note_on_c, 0, 74, 81
1, 61271, Note_on_c, 0, 74, 0
1, 61272, Note_on_c, 0, 71, 81
1, 61295, Note_on_c, 0, 71, 0
1, 61296, Note_on_c, 0, 74, 81
1, 61319, Note_on_c, 0, 74, 0
1, 61320, Note_on_c, 0, 75, 81
1, 61343, Note_on_c, 0, 75, 0
1, 61344, Note_on_c, 0, 77, 81
1, 61344, Note_on_c, 1, 43, 81
1, 61344, Note_on_c, 1, 31, 81
1, 61367, Note_on_c, 0, 77, 0
1, 61368, Note_on_c, 0, 74, 81
1, 61391, Note_on_c, 0, 74, 0
1, 61392, Note_on_c, 0, 83, 81
1, 61415, Note_on_c, 0, 83, 0
1, 61416, Note_on_c, 0, 84, 81
1, 61433, Note_on_c, 1, 43, 0
1, 61433, Note_on_c, 1, 31, 0
1, 61439, Note_on_c, 0, 84, 0
1, 61440, Note_on_c, 0, 86, 81
1, 61463, Note_on_c, 0, 86, 0
1, 61464, Note_on_c, 0, 84, 81
1, 61487, Note_on_c, 0, 84, 0
1, 61488, Note_on_c, 0, 83, 81
1, 61488, Note_on_c, 1, 55, 81
1, 61508, Note_on_c, 1, 55, 0
1, 61511, Note_on_c, 0, 83, 0
1, 61512, Note_on_c, 0, 80, 81
1, 61535, Note_on_c, 0, 80, 0
1, 61536, Note_on_c, 0, 79, 81
1, 61536, Note_on_c, 1, 57, 81
1, 61556, Note_on_c, 1, 57, 0
1, 61559, Note_on_c, 0, 79, 0
1, 61560, Note_on_c, 0, 77, 81
1, 61583, Note_on_c, 0, 77, 0
1, 61584, Note_on_c, 0, 75, 81
1, 61584, Note_on_c, 1, 59, 81
1, 61604, Note_on_c, 1, 59, 0
1, 61607, Note_on_c, 0, 75, 0
1, 61608, Note_on_c, 0, 74, 81
1, 61631, Note_on_c, 0, 74, 0
1, 61632, Note_on_c, 0, 75, 81
1, 61632, Note_on_c, 1, 60, 81
1, 61655, Note_on_c, 0, 75, 0
1, 61656, Note_on_c, 0, 77, 81
1, 61679, Note_on_c, 0, 77, 0
1, 61680, Note_on_c, 0, 79, 81
1, 61703, Note_on_c, 0, 79, 0
1, 61704, Note_on_c, 0, 77, 81
1, 61721, Note_on_c, 1, 60, 0
1, 61727, Note_on_c, 0, 77, 0
1, 61728, Note_on_c, 0, 75, 81
1, 61728, Note_on_c, 1, 62, 81
1, 61751, Note_on_c, 0, 75, 0
1, 61752, Note_on_c, 0, 74, 81
1, 61775, Note_on_c, 0, 74, 0
1, 61776, Note_on_c, 0, 72, 81
1, 61799, Note_on_c, 0, 72, 0
1, 61800, Note_on_c, 0, 71, 81
1, 61817, Note_on_c, 1, 62, 0
1, 61823, Note_on_c, 0, 71, 0
1, 61824, Note_on_c, 0, 72, 81
1, 61824, Note_on_c, 1, 63, 81
1, 61847, Note_on_c, 0, 72, 0
1, 61848, Note_on_c, 0, 83, 81
1, 61871, Note_on_c, 0, 83, 0
1, 61872, Note_on_c, 0, 84, 81
1, 61895, Note_on_c, 0, 84, 0
1, 61896, Note_on_c, 0, 79, 81
1, 61913, Note_on_c, 1, 63, 0
1, 61919, Note_on_c, 0, 79, 0
1, 61920, Note_on_c, 0, 82, 81
1, 61920, Note_on_c, 1, 65, 81
1, 61943, Note_on_c, 0, 82, 0
1, 61944, Note_on_c, 0, 80, 80
1, 61967, Note_on_c, 0, 80, 0
1, 61968, Note_on_c, 0, 79, 80
1, 61991, Note_on_c, 0, 79, 0
1, 61992, Note_on_c, 0, 77, 79
1, 62009, Note_on_c, 1, 65, 0
1, 62015, Note_on_c, 0, 77, 0
1, 62016, Note_on_c, 0, 75, 79
1, 62016, Note_on_c, 1, 67, 79
1, 62105, Note_on_c, 0, 75, 0
1, 62105, Note_on_c, 1, 67, 0
1, 62112, Note_on_c, 0, 74, 77
1, 62112, Note_on_c, 1, 55, 77
1, 62125, Note_on_c, 0, 74, 0
1, 62126, Note_on_c, 0, 75, 76
1, 62139, Note_on_c, 0, 75, 0
1, 62140, Note_on_c, 0, 74, 76
1, 62153, Note_on_c, 0, 74, 0
1, 62154, Note_on_c, 0, 75, 76
1, 62167, Note_on_c, 0, 75, 0
1, 62168, Note_on_c, 0, 74, 76
1, 62181, Note_on_c, 0, 74, 0
1, 62182, Note_on_c, 0, 72, 75
1, 62194, Note_on_c, 0, 72, 0
1, 62195, Note_on_c, 0, 74, 75
1, 62201, Note_on_c, 1, 55, 0
1, 62207, Note_on_c, 0, 74, 0
1, 62208, Note_on_c, 0, 72, 75
1, 62208, Note_on_c, 1, 60, 75
1, 62228, Note_on_c, 0, 72, 0
1, 62256, Note_on_c, 0, 67, 75
1, 62279, Note_on_c, 0, 67, 0
1, 62280, Note_on_c, 0, 68, 75
1, 62297, Note_on_c, 1, 60, 0
1, 62303, Note_on_c, 0, 68, 0
1, 62304, Note_on_c, 0, 67, 75
1, 62349, Note_on_c, 0, 67, 0
1, 62352, Note_on_c, 0, 67, 75
1, 62397, Note_on_c, 0, 67, 0
1, 62400, Note_on_c, 0, 67, 75
1, 62445, Note_on_c, 0, 67, 0
1, 62448, Note_on_c, 0, 67, 75
1, 62493, Note_on_c, 0, 67, 0
1, 62496, Note_on_c, 0, 68, 75
1, 62544, Note_on_c, 1, 63, 75
1, 62544, Note_on_c, 1, 60, 75
1, 62567, Note_on_c, 1, 63, 0
1, 62567, Note_on_c, 1, 60, 0
1, 62568, Note_on_c, 1, 65, 75
1, 62568, Note_on_c, 1, 62, 75
1, 62591, Note_on_c, 1, 65, 0
1, 62591, Note_on_c, 1, 62, 0
1, 62592, Note_on_c, 1, 63, 75
1, 62592, Note_on_c, 1, 60, 75
1, 62637, Note_on_c, 1, 63, 0
1, 62637, Note_on_c, 1, 60, 0
1, 62640, Note_on_c, 1, 63, 75
1, 62640, Note_on_c, 1, 60, 75
1, 62685, Note_on_c, 1, 63, 0
1, 62685, Note_on_c, 1, 60, 0
1, 62688, Note_on_c, 1, 63, 75
1, 62688, Note_on_c, 1, 60, 75
1, 62733, Note_on_c, 1, 63, 0
1, 62733, Note_on_c, 1, 60, 0
1, 62736, Note_on_c, 1, 63, 75
1, 62736, Note_on_c, 1, 60, 75
1, 62781, Note_on_c, 1, 63, 0
1, 62781, Note_on_c, 1, 60, 0
1, 62784, Note_on_c, 0, 62, 75
1, 62784, Note_on_c, 1, 58, 75
1, 62804, Note_on_c, 0, 68, 0
1, 62804, Note_on_c, 0, 62, 0
1, 62832, Note_on_c, 0, 68, 75
1, 62832, Note_on_c, 0, 65, 75
1, 62855, Note_on_c, 0, 68, 0
1, 62855, Note_on_c, 0, 65, 0
1, 62856, Note_on_c, 0, 70, 75
1, 62856, Note_on_c, 0, 67, 75
1, 62879, Note_on_c, 0, 70, 0
1, 62879, Note_on_c, 0, 67, 0
1, 62880, Note_on_c, 0, 68, 75
1, 62880, Note_on_c, 0, 65, 75
1, 62925, Note_on_c, 0, 68, 0
1, 62925, Note_on_c, 0, 65, 0
1, 62928, Note_on_c, 0, 72, 75
1, 62928, Note_on_c, 0, 68, 75
1, 62973, Note_on_c, 0, 72, 0
1, 62973, Note_on_c, 0, 68, 0
1, 62976, Note_on_c, 0, 70, 75
1, 62976, Note_on_c, 0, 67, 75
1, 63021, Note_on_c, 0, 70, 0
1, 63021, Note_on_c, 0, 67, 0
1, 63024, Note_on_c, 0, 68, 75
1, 63024, Note_on_c, 0, 65, 75
1, 63049, Note_on_c, 1, 58, 0
1, 63069, Note_on_c, 0, 68, 0
1, 63069, Note_on_c, 0, 65, 0
1, 63072, Note_on_c, 1, 46, 75
1, 63072, Note_on_c, 1, 34, 75
1, 63120, Note_on_c, 0, 67, 75
1, 63120, Note_on_c, 0, 63, 75
1, 63143, Note_on_c, 0, 67, 0
1, 63143, Note_on_c, 0, 63, 0
1, 63144, Note_on_c, 0, 68, 75
1, 63144, Note_on_c, 0, 65, 75
1, 63167, Note_on_c, 0, 68, 0
1, 63167, Note_on_c, 0, 65, 0
1, 63168, Note_on_c, 0, 67, 75
1, 63168, Note_on_c, 0, 63, 75
1, 63213, Note_on_c, 0, 67, 0
1, 63213, Note_on_c, 0, 63, 0
1, 63216, Note_on_c, 0, 70, 75
1, 63216, Note_on_c, 0, 67, 75
1, 63261, Note_on_c, 0, 70, 0
1, 63261, Note_on_c, 0, 67, 0
1, 63264, Note_on_c, 0, 68, 75
1, 63264, Note_on_c, 0, 65, 75
1, 63309, Note_on_c, 0, 68, 0
1, 63309, Note_on_c, 0, 65, 0
1, 63312, Note_on_c, 0, 67, 75
1, 63312, Note_on_c, 0, 63, 75
1, 63357, Note_on_c, 0, 67, 0
1, 63357, Note_on_c, 0, 63, 0
1, 63360, Note_on_c, 0, 65, 75
1, 63360, Note_on_c, 0, 62, 75
1, 63405, Note_on_c, 0, 65, 0
1, 63405, Note_on_c, 0, 62, 0
1, 63408, Note_on_c, 0, 63, 75
1, 63408, Note_on_c, 0, 60, 75
1, 63453, Note_on_c, 0, 63, 0
1, 63453, Note_on_c, 0, 60, 0
1, 63456, Note_on_c, 0, 62, 75
1, 63456, Note_on_c, 0, 58, 75
1, 63501, Note_on_c, 0, 62, 0
1, 63501, Note_on_c, 0, 58, 0
1, 63504, Note_on_c, 0, 60, 75
1, 63504, Note_on_c, 0, 56, 75
1, 63549, Note_on_c, 0, 60, 0
1, 63549, Note_on_c, 0, 56, 0
1, 63552, Note_on_c, 0, 58, 75
1, 63552, Note_on_c, 0, 55, 75
1, 63597, Note_on_c, 0, 58, 0
1, 63597, Note_on_c, 0, 55, 0
1, 63600, Note_on_c, 0, 56, 75
1, 63600, Note_on_c, 0, 53, 75
1, 63625, Note_on_c, 1, 46, 0
1, 63625, Note_on_c, 1, 34, 0
1, 63645, Note_on_c, 0, 56, 0
1, 63645, Note_on_c, 0, 53, 0
1, 63648, Note_on_c, 1, 55, 75
1, 63648, Note_on_c, 1, 51, 75
1, 63696, Note_on_c, 0, 70, 75
1, 63741, Note_on_c, 0, 70, 0
1, 63744, Note_on_c, 0, 70, 75
1, 63792, Note_on_c, 0, 70, 0
1, 63792, Note_on_c, 0, 75, 75
1, 63825, Note_on_c, 1, 55, 0
1, 63825, Note_on_c, 1, 51, 0
1, 63837, Note_on_c, 0, 75, 0
1, 63840, Note_on_c, 0, 75, 75
1, 63840, Note_on_c, 1, 67, 75
1, 63888, Note_on_c, 0, 75, 0
1, 63888, Note_on_c, 0, 74, 75
1, 63929, Note_on_c, 1, 67, 0
1, 63933, Note_on_c, 0, 74, 0
1, 63936, Note_on_c, 1, 68, 75
1, 63975, Note_on_c, 1, 68, 0
1, 63984, Note_on_c, 0, 72, 75
1, 64029, Note_on_c, 0, 72, 0
1, 64032, Note_on_c, 1, 67, 75
1, 64071, Note_on_c, 1, 67, 0
1, 64080, Note_on_c, 0, 70, 75
1, 64125, Note_on_c, 0, 70, 0
1, 64128, Note_on_c, 1, 65, 75
1, 64167, Note_on_c, 1, 65, 0
1, 64176, Note_on_c, 0, 68, 75
1, 64221, Note_on_c, 0, 68, 0
1, 64224, Note_on_c, 1, 63, 75
1, 64248, Note_on_c, 0, 67, 75
1, 64271, Note_on_c, 0, 67, 0
1, 64272, Note_on_c, 0, 70, 75
1, 64295, Note_on_c, 0, 70, 0
1, 64296, Note_on_c, 0, 67, 75
1, 64313, Note_on_c, 1, 63, 0
1, 64319, Note_on_c, 0, 67, 0
1, 64320, Note_on_c, 0, 75, 75
1, 64343, Note_on_c, 0, 75, 0
1, 64344, Note_on_c, 0, 70, 75
1, 64367, Note_on_c, 0, 70, 0
1, 64368, Note_on_c, 0, 79, 75
1, 64391, Note_on_c, 0, 79, 0
1, 64392, Note_on_c, 0, 77, 75
1, 64415, Note_on_c, 0, 77, 0
1, 64416, Note_on_c, 0, 75, 75
1, 64416, Note_on_c, 1, 67, 75
1, 64439, Note_on_c, 0, 75, 0
1, 64440, Note_on_c, 0, 74, 75
1, 64463, Note_on_c, 0, 74, 0
1, 64464, Note_on_c, 0, 72, 75
1, 64487, Note_on_c, 0, 72, 0
1, 64488, Note_on_c, 0, 70, 75
1, 64505, Note_on_c, 1, 67, 0
1, 64511, Note_on_c, 0, 70, 0
1, 64512, Note_on_c, 1, 68, 75
1, 64536, Note_on_c, 0, 72, 75
1, 64551, Note_on_c, 1, 68, 0
1, 64559, Note_on_c, 0, 72, 0
1, 64560, Note_on_c, 0, 71, 75
1, 64583, Note_on_c, 0, 71, 0
1, 64584, Note_on_c, 0, 72, 75
1, 64607, Note_on_c, 0, 72, 0
1, 64608, Note_on_c, 1, 67, 75
1, 64632, Note_on_c, 0, 70, 75
1, 64647, Note_on_c, 1, 67, 0
1, 64655, Note_on_c, 0, 70, 0
1, 64656, Note_on_c, 0, 69, 75
1, 64679, Note_on_c, 0, 69, 0
1, 64680, Note_on_c, 0, 70, 75
1, 64703, Note_on_c, 0, 70, 0
1, 64704, Note_on_c, 1, 65, 75
1, 64728, Note_on_c, 0, 68, 75
1, 64743, Note_on_c, 1, 65, 0
1, 64751, Note_on_c, 0, 68, 0
1, 64752, Note_on_c, 0, 67, 75
1, 64775, Note_on_c, 0, 67, 0
1, 64776, Note_on_c, 0, 68, 75
1, 64799, Note_on_c, 0, 68, 0
1, 64800, Note_on_c, 1, 63, 75
1, 64824, Note_on_c, 0, 67, 75
1, 64847, Note_on_c, 0, 67, 0
1, 64848, Note_on_c, 0, 68, 75
1, 64871, Note_on_c, 0, 68, 0
1, 64872, Note_on_c, 0, 70, 75
1, 64889, Note_on_c, 1, 63, 0
1, 64895, Note_on_c, 0, 70, 0
1, 64896, Note_on_c, 0, 72, 75
1, 64919, Note_on_c, 0, 72, 0
1, 64920, Note_on_c, 0, 74, 75
1, 64943, Note_on_c, 0, 74, 0
1, 64944, Note_on_c, 0, 75, 75
1, 64967, Note_on_c, 0, 75, 0
1, 64968, Note_on_c, 0, 77, 75
1, 64991, Note_on_c, 0, 77, 0
1, 64992, Note_on_c, 0, 79, 75
1, 65015, Note_on_c, 0, 79, 0
1, 65016, Note_on_c, 0, 75, 75
1, 65039, Note_on_c, 0, 75, 0
1, 65040, Note_on_c, 0, 74, 75
1, 65063, Note_on_c, 0, 74, 0
1, 65064, Note_on_c, 0, 72, 75
1, 65087, Note_on_c, 0, 72, 0
1, 65088, Note_on_c, 0, 70, 75
1, 65136, Note_on_c, 1, 51, 75
1, 65159, Note_on_c, 1, 51, 0
1, 65160, Note_on_c, 1, 53, 75
1, 65183, Note_on_c, 1, 53, 0
1, 65184, Note_on_c, 1, 55, 75
1, 65221, Note_on_c, 0, 70, 0
1, 65229, Note_on_c, 1, 55, 0
1, 65232, Note_on_c, 0, 67, 75
1, 65232, Note_on_c, 1, 51, 75
1, 65277, Note_on_c, 0, 67, 0
1, 65277, Note_on_c, 1, 51, 0
1, 65280, Note_on_c, 0, 68, 75
1, 65280, Note_on_c, 1, 53, 75
1, 65293, Note_on_c, 0, 68, 0
1, 65294, Note_on_c, 0, 70, 75
1, 65307, Note_on_c, 0, 70, 0
1, 65308, Note_on_c, 0, 68, 75
1, 65321, Note_on_c, 0, 68, 0
1, 65322, Note_on_c, 0, 70, 75
1, 65325, Note_on_c, 1, 53, 0
1, 65328, Note_on_c, 1, 46, 75
1, 65335, Note_on_c, 0, 70, 0
1, 65336, Note_on_c, 0, 68, 75
1, 65349, Note_on_c, 0, 68, 0
1, 65350, Note_on_c, 0, 67, 75
1, 65362, Note_on_c, 0, 67, 0
1, 65363, Note_on_c, 0, 68, 75
1, 65373, Note_on_c, 1, 46, 0
1, 65375, Note_on_c, 0, 68, 0
1, 65376, Note_on_c, 0, 67, 75
1, 65376, Note_on_c, 1, 51, 75
1, 65399, Note_on_c, 0, 67, 0
1, 65400, Note_on_c, 0, 63, 75
1, 65423, Note_on_c, 0, 63, 0
1, 65424, Note_on_c, 0, 62, 75
1, 65447, Note_on_c, 0, 62, 0
1, 65448, Note_on_c, 0, 63, 75
1, 65465, Note_on_c, 1, 51, 0
1, 65471, Note_on_c, 0, 63, 0
1, 65472, Note_on_c, 0, 65, 75
1, 65495, Note_on_c, 0, 65, 0
1, 65496, Note_on_c, 0, 63, 75
1, 65519, Note_on_c, 0, 63, 0
1, 65520, Note_on_c, 0, 62, 75
1, 65543, Note_on_c, 0, 62, 0
1, 65544, Note_on_c, 0, 63, 75
1, 65567, Note_on_c, 0, 63, 0
1, 65568, Note_on_c, 0, 67, 75
1, 65568, Note_on_c, 1, 43, 75
1, 65591, Note_on_c, 0, 67, 0
1, 65592, Note_on_c, 0, 65, 75
1, 65607, Note_on_c, 1, 43, 0
1, 65615, Note_on_c, 0, 65, 0
1, 65616, Note_on_c, 0, 63, 75
1, 65639, Note_on_c, 0, 63, 0
1, 65640, Note_on_c, 0, 62, 75
1, 65663, Note_on_c, 0, 62, 0
1, 65664, Note_on_c, 0, 60, 75
1, 65664, Note_on_c, 1, 44, 75
1, 65687, Note_on_c, 0, 60, 0
1, 65688, Note_on_c, 0, 68, 75
1, 65703, Note_on_c, 1, 44, 0
1, 65711, Note_on_c, 0, 68, 0
1, 65712, Note_on_c, 0, 72, 75
1, 65735, Note_on_c, 0, 72, 0
1, 65736, Note_on_c, 0, 70, 75
1, 65759, Note_on_c, 0, 70, 0
1, 65760, Note_on_c, 0, 68, 75
1, 65783, Note_on_c, 0, 68, 0
1, 65784, Note_on_c, 0, 67, 75
1, 65807, Note_on_c, 0, 67, 0
1, 65808, Note_on_c, 0, 65, 75
1, 65831, Note_on_c, 0, 65, 0
1, 65832, Note_on_c, 0, 63, 75
1, 65855, Note_on_c, 0, 63, 0
1, 65856, Note_on_c, 0, 62, 75
1, 65856, Note_on_c, 1, 46, 75
1, 65879, Note_on_c, 0, 62, 0
1, 65880, Note_on_c, 0, 60, 75
1, 65895, Note_on_c, 1, 46, 0
1, 65903, Note_on_c, 0, 60, 0
1, 65904, Note_on_c, 0, 58, 75
1, 65927, Note_on_c, 0, 58, 0
1, 65928, Note_on_c, 0, 56, 75
1, 65951, Note_on_c, 0, 56, 0
1, 65952, Note_on_c, 0, 55, 75
1, 65952, Note_on_c, 1, 51, 75
1, 65975, Note_on_c, 0, 55, 0
1, 65976, Note_on_c, 0, 63, 75
1, 65991, Note_on_c, 1, 51, 0
1, 65999, Note_on_c, 0, 63, 0
1, 66000, Note_on_c, 0, 62, 75
1, 66023, Note_on_c, 0, 62, 0
1, 66024, Note_on_c, 0, 63, 75
1, 66047, Note_on_c, 0, 63, 0
1, 66048, Note_on_c, 0, 65, 75
1, 66071, Note_on_c, 0, 65, 0
1, 66072, Note_on_c, 0, 63, 75
1, 66095, Note_on_c, 0, 63, 0
1, 66096, Note_on_c, 0, 62, 75
1, 66119, Note_on_c, 0, 62, 0
1, 66120, Note_on_c, 0, 63, 75
1, 66143, Note_on_c, 0, 63, 0
1, 66144, Note_on_c, 0, 67, 75
1, 66144, Note_on_c, 1, 43, 75
1, 66167, Note_on_c, 0, 67, 0
1, 66168, Note_on_c, 0, 65, 75
1, 66183, Note_on_c, 1, 43, 0
1, 66191, Note_on_c, 0, 65, 0
1, 66192, Note_on_c, 0, 63, 75
1, 66215, Note_on_c, 0, 63, 0
1, 66216, Note_on_c, 0, 62, 75
1, 66239, Note_on_c, 0, 62, 0
1, 66240, Note_on_c, 0, 60, 75
1, 66240, Note_on_c, 1, 44, 75
1, 66263, Note_on_c, 0, 60, 0
1, 66264, Note_on_c, 0, 68, 75
1, 66279, Note_on_c, 1, 44, 0
1, 66287, Note_on_c, 0, 68, 0
1, 66288, Note_on_c, 0, 72, 75
1, 66311, Note_on_c, 0, 72, 0
1, 66312, Note_on_c, 0, 70, 75
1, 66335, Note_on_c, 0, 70, 0
1, 66336, Note_on_c, 0, 68, 75
1, 66359, Note_on_c, 0, 68, 0
1, 66360, Note_on_c, 0, 67, 75
1, 66383, Note_on_c, 0, 67, 0
1, 66384, Note_on_c, 0, 65, 75
1, 66407, Note_on_c, 0, 65, 0
1, 66408, Note_on_c, 0, 63, 75
1, 66431, Note_on_c, 0, 63, 0
1, 66432, Note_on_c, 0, 62, 75
1, 66432, Note_on_c, 1, 46, 75
1, 66455, Note_on_c, 0, 62, 0
1, 66456, Note_on_c, 0, 60, 75
1, 66471, Note_on_c, 1, 46, 0
1, 66479, Note_on_c, 0, 60, 0
1, 66480, Note_on_c, 0, 58, 75
1, 66503, Note_on_c, 0, 58, 0
1, 66504, Note_on_c, 0, 56, 75
1, 66527, Note_on_c, 0, 56, 0
1, 66528, Note_on_c, 0, 55, 75
1, 66552, Note_on_c, 1, 51, 75
1, 66567, Note_on_c, 0, 55, 0
1, 66575, Note_on_c, 1, 51, 0
1, 66576, Note_on_c, 1, 53, 75
1, 66599, Note_on_c, 1, 53, 0
1, 66600, Note_on_c, 1, 55, 75
1, 66623, Note_on_c, 1, 55, 0
1, 66624, Note_on_c, 1, 56, 75
1, 66647, Note_on_c, 1, 56, 0
1, 66648, Note_on_c, 1, 58, 75
1, 66671, Note_on_c, 1, 58, 0
1, 66672, Note_on_c, 1, 60, 75
1, 66695, Note_on_c, 1, 60, 0
1, 66696, Note_on_c, 1, 62, 75
1, 66719, Note_on_c, 1, 62, 0
1, 66720, Note_on_c, 1, 63, 75
1, 66743, Note_on_c, 1, 63, 0
1, 66744, Note_on_c, 1, 65, 75
1, 66767, Note_on_c, 1, 65, 0
1, 66768, Note_on_c, 1, 67, 75
1, 66791, Note_on_c, 1, 67, 0
1, 66792, Note_on_c, 1, 65, 75
1, 66815, Note_on_c, 1, 65, 0
1, 66816, Note_on_c, 1, 63, 75
1, 66864, Note_on_c, 0, 67, 75
1, 66905, Note_on_c, 1, 63, 0
1, 66912, Note_on_c, 0, 67, 0
1, 66912, Note_on_c, 0, 79, 75
1, 66957, Note_on_c, 0, 79, 0
1, 66960, Note_on_c, 0, 79, 75
1, 67005, Note_on_c, 0, 79, 0
1, 67008, Note_on_c, 0, 71, 75
1, 67008, Note_on_c, 1, 63, 75
1, 67056, Note_on_c, 0, 71, 0
1, 67056, Note_on_c, 0, 72, 75
1, 67097, Note_on_c, 1, 63, 0
1, 67101, Note_on_c, 0, 72, 0
1, 67104, Note_on_c, 1, 62, 75
1, 67152, Note_on_c, 0, 65, 75
1, 67193, Note_on_c, 1, 62, 0
1, 67200, Note_on_c, 0, 65, 0
1, 67200, Note_on_c, 0, 77, 75
1, 67245, Note_on_c, 0, 77, 0
1, 67248, Note_on_c, 0, 77, 75
1, 67293, Note_on_c, 0, 77, 0
1, 67296, Note_on_c, 0, 69, 75
1, 67296, Note_on_c, 1, 62, 75
1, 67344, Note_on_c, 0, 69, 0
1, 67344, Note_on_c, 0, 70, 75
1, 67385, Note_on_c, 1, 62, 0
1, 67389, Note_on_c, 0, 70, 0
1, 67392, Note_on_c, 1, 60, 81
1, 67416, Note_on_c, 0, 67, 75
1, 67431, Note_on_c, 1, 60, 0
1, 67439, Note_on_c, 0, 67, 0
1, 67440, Note_on_c, 0, 70, 75
1, 67463, Note_on_c, 0, 70, 0
1, 67464, Note_on_c, 0, 75, 75
1, 67487, Note_on_c, 0, 75, 0
1, 67488, Note_on_c, 1, 68, 81
1, 67512, Note_on_c, 0, 68, 75
1, 67527, Note_on_c, 1, 68, 0
1, 67535, Note_on_c, 0, 68, 0
1, 67536, Note_on_c, 0, 72, 75
1, 67559, Note_on_c, 0, 72, 0
1, 67560, Note_on_c, 0, 75, 75
1, 67583, Note_on_c, 0, 75, 0
1, 67584, Note_on_c, 1, 60, 81
1, 67608, Note_on_c, 0, 72, 75
1, 67623, Note_on_c, 1, 60, 0
1, 67631, Note_on_c, 0, 72, 0
1, 67632, Note_on_c, 0, 75, 75
1, 67655, Note_on_c, 0, 75, 0
1, 67656, Note_on_c, 0, 80, 75
1, 67679, Note_on_c, 0, 80, 0
1, 67680, Note_on_c, 1, 58, 81
1, 67704, Note_on_c, 0, 65, 75
1, 67719, Note_on_c, 1, 58, 0
1, 67727, Note_on_c, 0, 65, 0
1, 67728, Note_on_c, 0, 68, 75
1, 67751, Note_on_c, 0, 68, 0
1, 67752, Note_on_c, 0, 74, 75
1, 67775, Note_on_c, 0, 74, 0
1, 67776, Note_on_c, 1, 67, 81
1, 67800, Note_on_c, 0, 67, 75
1, 67815, Note_on_c, 1, 67, 0
1, 67823, Note_on_c, 0, 67, 0
1, 67824, Note_on_c, 0, 70, 75
1, 67847, Note_on_c, 0, 70, 0
1, 67848, Note_on_c, 0, 74, 75
1, 67871, Note_on_c, 0, 74, 0
1, 67872, Note_on_c, 1, 58, 81
1, 67896, Note_on_c, 0, 70, 75
1, 67911, Note_on_c, 1, 58, 0
1, 67919, Note_on_c, 0, 70, 0
1, 67920, Note_on_c, 0, 74, 75
1, 67943, Note_on_c, 0, 74, 0
1, 67944, Note_on_c, 0, 77, 75
1, 67967, Note_on_c, 0, 77, 0
1, 67968, Note_on_c, 1, 56, 81
1, 67992, Note_on_c, 0, 63, 75
1, 68007, Note_on_c, 1, 56, 0
1, 68015, Note_on_c, 0, 63, 0
1, 68016, Note_on_c, 0, 67, 75
1, 68039, Note_on_c, 0, 67, 0
1, 68040, Note_on_c, 0, 72, 75
1, 68063, Note_on_c, 0, 72, 0
1, 68064, Note_on_c, 1, 65, 81
1, 68088, Note_on_c, 0, 65, 75
1, 68103, Note_on_c, 1, 65, 0
1, 68111, Note_on_c, 0, 65, 0
1, 68112, Note_on_c, 0, 68, 75
1, 68135, Note_on_c, 0, 68, 0
1, 68136, Note_on_c, 0, 72, 75
1, 68159, Note_on_c, 0, 72, 0
1, 68160, Note_on_c, 1, 56, 81
1, 68184, Note_on_c, 0, 68, 75
1, 68199, Note_on_c, 1, 56, 0
1, 68207, Note_on_c, 0, 68, 0
1, 68208, Note_on_c, 0, 72, 75
1, 68231, Note_on_c, 0, 72, 0
1, 68232, Note_on_c, 0, 77, 75
1, 68255, Note_on_c, 0, 77, 0
1, 68256, Note_on_c, 1, 55, 81
1, 68280, Note_on_c, 0, 62, 75
1, 68295, Note_on_c, 1, 55, 0
1, 68303, Note_on_c, 0, 62, 0
1, 68304, Note_on_c, 0, 65, 75
1, 68327, Note_on_c, 0, 65, 0
1, 68328, Note_on_c, 0, 70, 75
1, 68351, Note_on_c, 0, 70, 0
1, 68352, Note_on_c, 1, 63, 81
1, 68376, Note_on_c, 0, 63, 75
1, 68391, Note_on_c, 1, 63, 0
1, 68399, Note_on_c, 0, 63, 0
1, 68400, Note_on_c, 0, 67, 75
1, 68423, Note_on_c, 0, 67, 0
1, 68424, Note_on_c, 0, 70, 75
1, 68447, Note_on_c, 0, 70, 0
1, 68448, Note_on_c, 1, 55, 81
1, 68472, Note_on_c, 0, 67, 75
1, 68487, Note_on_c, 1, 55, 0
1, 68495, Note_on_c, 0, 67, 0
1, 68496, Note_on_c, 0, 70, 75
1, 68519, Note_on_c, 0, 70, 0
1, 68520, Note_on_c, 0, 75, 75
1, 68543, Note_on_c, 0, 75, 0
1, 68544, Note_on_c, 1, 58, 81
1, 68568, Note_on_c, 0, 62, 75
1, 68583, Note_on_c, 1, 58, 0
1, 68591, Note_on_c, 0, 62, 0
1, 68592, Note_on_c, 0, 68, 75
1, 68615, Note_on_c, 0, 68, 0
1, 68616, Note_on_c, 0, 70, 75
1, 68639, Note_on_c, 0, 70, 0
1, 68640, Note_on_c, 1, 65, 81
1, 68664, Note_on_c, 0, 62, 75
1, 68679, Note_on_c, 1, 65, 0
1, 68687, Note_on_c, 0, 62, 0
1, 68688, Note_on_c, 0, 68, 75
1, 68711, Note_on_c, 0, 68, 0
1, 68712, Note_on_c, 0, 70, 75
1, 68735, Note_on_c, 0, 70, 0
1, 68736, Note_on_c, 1, 63, 81
1, 68760, Note_on_c, 0, 67, 75
1, 68775, Note_on_c, 1, 63, 0
1, 68783, Note_on_c, 0, 67, 0
1, 68784, Note_on_c, 0, 70, 75
1, 68807, Note_on_c, 0, 70, 0
1, 68808, Note_on_c, 0, 75, 75
1, 68831, Note_on_c, 0, 75, 0
1, 68832, Note_on_c, 1, 58, 81
1, 68856, Note_on_c, 0, 62, 75
1, 68871, Note_on_c, 1, 58, 0
1, 68879, Note_on_c, 0, 62, 0
1, 68880, Note_on_c, 0, 68, 75
1, 68903, Note_on_c, 0, 68, 0
1, 68904, Note_on_c, 0, 70, 75
1, 68927, Note_on_c, 0, 70, 0
1, 68928, Note_on_c, 1, 65, 81
1, 68952, Note_on_c, 0, 62, 75
1, 68967, Note_on_c, 1, 65, 0
1, 68975, Note_on_c, 0, 62, 0
1, 68976, Note_on_c, 0, 68, 75
1, 68999, Note_on_c, 0, 68, 0
1, 69000, Note_on_c, 0, 70, 75
1, 69023, Note_on_c, 0, 70, 0
1, 69024, Note_on_c, 1, 63, 81
1, 69048, Note_on_c, 0, 67, 75
1, 69063, Note_on_c, 1, 63, 0
1, 69071, Note_on_c, 0, 67, 0
1, 69072, Note_on_c, 0, 70, 75
1, 69095, Note_on_c, 0, 70, 0
1, 69096, Note_on_c, 0, 75, 75
1, 69119, Note_on_c, 0, 75, 0
1, 69120, Note_on_c, 1, 58, 81
1, 69144, Note_on_c, 0, 62, 75
1, 69159, Note_on_c, 1, 58, 0
1, 69167, Note_on_c, 0, 62, 0
1, 69168, Note_on_c, 0, 68, 75
1, 69191, Note_on_c, 0, 68, 0
1, 69192, Note_on_c, 0, 70, 75
1, 69215, Note_on_c, 0, 70, 0
1, 69216, Note_on_c, 1, 65, 81
1, 69240, Note_on_c, 0, 62, 75
1, 69255, Note_on_c, 1, 65, 0
1, 69263, Note_on_c, 0, 62, 0
1, 69264, Note_on_c, 0, 68, 75
1, 69287, Note_on_c, 0, 68, 0
1, 69288, Note_on_c, 0, 70, 75
1, 69311, Note_on_c, 0, 70, 0
1, 69312, Note_on_c, 1, 63, 81
1, 69336, Note_on_c, 0, 67, 75
1, 69351, Note_on_c, 1, 63, 0
1, 69359, Note_on_c, 0, 67, 0
1, 69360, Note_on_c, 0, 70, 75
1, 69383, Note_on_c, 0, 70, 0
1, 69384, Note_on_c, 0, 75, 75
1, 69407, Note_on_c, 0, 75, 0
1, 69408, Note_on_c, 0, 67, 75
1, 69408, Note_on_c, 1, 63, 81
1, 69408, Note_on_c, 1, 58, 64
1, 69421, Note_on_c, 0, 67, 0
1, 69422, Note_on_c, 0, 68, 75
1, 69435, Note_on_c, 0, 68, 0
1, 69436, Note_on_c, 0, 67, 75
1, 69449, Note_on_c, 0, 67, 0
1, 69450, Note_on_c, 0, 68, 75
1, 69463, Note_on_c, 0, 68, 0
1, 69464, Note_on_c, 0, 67, 75
1, 69477, Note_on_c, 0, 67, 0
1, 69478, Note_on_c, 0, 65, 75
1, 69490, Note_on_c, 0, 65, 0
1, 69491, Note_on_c, 0, 67, 75
1, 69503, Note_on_c, 0, 67, 0
1, 69504, Note_on_c, 0, 65, 75
1, 69504, Note_on_c, 1, 63, 0
1, 69504, Note_on_c, 1, 62, 81
1, 69585, Note_on_c, 1, 58, 0
1, 69593, Note_on_c, 0, 65, 0
1, 69593, Note_on_c, 1, 62, 0
1, 69696, Note_on_c, 1, 51, 81
1, 69696, Note_on_c, 1, 39, 81
1, 69720, Note_on_c, 0, 63, 81
1, 69743, Note_on_c, 0, 63, 0
1, 69744, Note_on_c, 0, 63, 81
1, 69767, Note_on_c, 0, 63, 0
1, 69768, Note_on_c, 0, 63, 81
1, 69785, Note_on_c, 1, 51, 0
1, 69785, Note_on_c, 1, 39, 0
1, 69791, Note_on_c, 0, 63, 0
1, 69792, Note_on_c, 1, 55, 81
1, 69792, Note_on_c, 1, 43, 81
1, 69816, Note_on_c, 0, 67, 81
1, 69839, Note_on_c, 0, 67, 0
1, 69840, Note_on_c, 0, 67, 81
1, 69863, Note_on_c, 0, 67, 0
1, 69864, Note_on_c, 0, 67, 81
1, 69881, Note_on_c, 1, 55, 0
1, 69881, Note_on_c, 1, 43, 0
1, 69887, Note_on_c, 0, 67, 0
1, 69888, Note_on_c, 1, 58, 81
1, 69888, Note_on_c, 1, 46, 81
1, 69912, Note_on_c, 0, 70, 81
1, 69935, Note_on_c, 0, 70, 0
1, 69936, Note_on_c, 0, 70, 81
1, 69959, Note_on_c, 0, 70, 0
1, 69960, Note_on_c, 0, 70, 81
1, 69977, Note_on_c, 1, 58, 0
1, 69977, Note_on_c, 1, 46, 0
1, 69983, Note_on_c, 0, 70, 0
1, 69984, Note_on_c, 1, 63, 81
1, 69984, Note_on_c, 1, 51, 81
1, 70008, Note_on_c, 0, 75, 81
1, 70031, Note_on_c, 0, 75, 0
1, 70032, Note_on_c, 0, 74, 81
1, 70055, Note_on_c, 0, 74, 0
1, 70056, Note_on_c, 0, 75, 81
1, 70073, Note_on_c, 1, 63, 0
1, 70073, Note_on_c, 1, 51, 0
1, 70079, Note_on_c, 0, 75, 0
1, 70080, Note_on_c, 0, 79, 81
1, 70103, Note_on_c, 0, 79, 0
1, 70104, Note_on_c, 0, 75, 81
1, 70127, Note_on_c, 0, 75, 0
1, 70128, Note_on_c, 0, 74, 81
1, 70151, Note_on_c, 0, 74, 0
1, 70152, Note_on_c, 0, 72, 81
1, 70175, Note_on_c, 0, 72, 0
1, 70176, Note_on_c, 0, 70, 81
1, 70199, Note_on_c, 0, 70, 0
1, 70200, Note_on_c, 0, 68, 81
1, 70223, Note_on_c, 0, 68, 0
1, 70224, Note_on_c, 0, 67, 81
1, 70247, Note_on_c, 0, 67, 0
1, 70248, Note_on_c, 0, 65, 81
1, 70271, Note_on_c, 0, 65, 0
1, 70272, Note_on_c, 0, 63, 81
1, 70272, Note_on_c, 1, 51, 81
1, 70272, Note_on_c, 1, 39, 81
1, 70295, Note_on_c, 0, 63, 0
1, 70296, Note_on_c, 0, 63, 81
1, 70319, Note_on_c, 0, 63, 0
1, 70320, Note_on_c, 0, 63, 81
1, 70343, Note_on_c, 0, 63, 0
1, 70344, Note_on_c, 0, 63, 81
1, 70361, Note_on_c, 1, 51, 0
1, 70361, Note_on_c, 1, 39, 0
1, 70367, Note_on_c, 0, 63, 0
1, 70368, Note_on_c, 1, 55, 81
1, 70368, Note_on_c, 1, 43, 81
1, 70392, Note_on_c, 0, 67, 81
1, 70415, Note_on_c, 0, 67, 0
1, 70416, Note_on_c, 0, 67, 81
1, 70439, Note_on_c, 0, 67, 0
1, 70440, Note_on_c, 0, 67, 81
1, 70457, Note_on_c, 1, 55, 0
1, 70457, Note_on_c, 1, 43, 0
1, 70463, Note_on_c, 0, 67, 0
1, 70464, Note_on_c, 1, 58, 81
1, 70464, Note_on_c, 1, 46, 81
1, 70488, Note_on_c, 0, 70, 81
1, 70511, Note_on_c, 0, 70, 0
1, 70512, Note_on_c, 0, 70, 81
1, 70535, Note_on_c, 0, 70, 0
1, 70536, Note_on_c, 0, 70, 81
1, 70553, Note_on_c, 1, 58, 0
1, 70553, Note_on_c, 1, 46, 0
1, 70559, Note_on_c, 0, 70, 0
1, 70560, Note_on_c, 1, 63, 81
1, 70560, Note_on_c, 1, 51, 81
1, 70584, Note_on_c, 0, 75, 81
1, 70607, Note_on_c, 0, 75, 0
1, 70608, Note_on_c, 0, 74, 81
1, 70631, Note_on_c, 0, 74, 0
1, 70632, Note_on_c, 0, 75, 81
1, 70649, Note_on_c, 1, 63, 0
1, 70649, Note_on_c, 1, 51, 0
1, 70655, Note_on_c, 0, 75, 0
1, 70656, Note_on_c, 0, 79, 81
1, 70679, Note_on_c, 0, 79, 0
1, 70680, Note_on_c, 0, 77, 81
1, 70703, Note_on_c, 0, 77, 0
1, 70704, Note_on_c, 0, 75, 81
1, 70727, Note_on_c, 0, 75, 0
1, 70728, Note_on_c, 0, 74, 81
1, 70751, Note_on_c, 0, 74, 0
1, 70752, Note_on_c, 0, 72, 81
1, 70775, Note_on_c, 0, 72, 0
1, 70776, Note_on_c, 0, 70, 81
1, 70799, Note_on_c, 0, 70, 0
1, 70800, Note_on_c, 0, 68, 81
1, 70823, Note_on_c, 0, 68, 0
1, 70824, Note_on_c, 0, 67, 81
1, 70847, Note_on_c, 0, 67, 0
1, 70848, Note_on_c, 0, 65, 81
1, 70848, Note_on_c, 1, 53, 81
1, 70848, Note_on_c, 1, 48, 81
1, 70848, Note_on_c, 1, 44, 81
1, 70871, Note_on_c, 0, 65, 0
1, 70872, Note_on_c, 0, 68, 81
1, 70895, Note_on_c, 0, 68, 0
1, 70896, Note_on_c, 0, 67, 81
1, 70919, Note_on_c, 0, 67, 0
1, 70920, Note_on_c, 0, 68, 81
1, 70943, Note_on_c, 0, 68, 0
1, 70944, Note_on_c, 0, 72, 81
1, 70967, Note_on_c, 0, 72, 0
1, 70968, Note_on_c, 0, 70, 81
1, 70991, Note_on_c, 0, 70, 0
1, 70992, Note_on_c, 0, 68, 81
1, 71015, Note_on_c, 0, 68, 0
1, 71016, Note_on_c, 0, 67, 81
1, 71025, Note_on_c, 1, 53, 0
1, 71025, Note_on_c, 1, 48, 0
1, 71025, Note_on_c, 1, 44, 0
1, 71039, Note_on_c, 0, 67, 0
1, 71040, Note_on_c, 0, 65, 81
1, 71063, Note_on_c, 0, 65, 0
1, 71064, Note_on_c, 0, 63, 81
1, 71087, Note_on_c, 0, 63, 0
1, 71088, Note_on_c, 0, 62, 81
1, 71111, Note_on_c, 0, 62, 0
1, 71112, Note_on_c, 0, 60, 81
1, 71135, Note_on_c, 0, 60, 0
1, 71136, Note_on_c, 0, 58, 81
1, 71136, Note_on_c, 1, 56, 81
1, 71136, Note_on_c, 1, 53, 81
1, 71136, Note_on_c, 1, 46, 81
1, 71159, Note_on_c, 0, 58, 0
1, 71160, Note_on_c, 0, 62, 80
1, 71183, Note_on_c, 0, 62, 0
1, 71184, Note_on_c, 0, 62, 80
1, 71207, Note_on_c, 0, 62, 0
1, 71208, Note_on_c, 0, 62, 80
1, 71231, Note_on_c, 0, 62, 0
1, 71232, Note_on_c, 0, 65, 80
1, 71255, Note_on_c, 0, 65, 0
1, 71256, Note_on_c, 0, 62, 80
1, 71279, Note_on_c, 0, 62, 0
1, 71280, Note_on_c, 0, 65, 80
1, 71303, Note_on_c, 0, 65, 0
1, 71304, Note_on_c, 0, 62, 79
1, 71313, Note_on_c, 1, 56, 0
1, 71313, Note_on_c, 1, 53, 0
1, 71313, Note_on_c, 1, 46, 0
1, 71327, Note_on_c, 0, 62, 0
1, 71328, Note_on_c, 1, 56, 78
1, 71328, Note_on_c, 1, 53, 78
1, 71328, Note_on_c, 1, 46, 78
1, 71352, Note_on_c, 0, 62, 79
1, 71375, Note_on_c, 0, 62, 0
1, 71376, Note_on_c, 0, 62, 79
1, 71399, Note_on_c, 0, 62, 0
1, 71400, Note_on_c, 0, 62, 79
1, 71417, Note_on_c, 1, 56, 0
1, 71417, Note_on_c, 1, 53, 0
1, 71417, Note_on_c, 1, 46, 0
1, 71423, Note_on_c, 0, 62, 0
1, 71424, Note_on_c, 1, 55, 77
1, 71424, Note_on_c, 1, 51, 77
1, 71424, Note_on_c, 1, 46, 77
1, 71448, Note_on_c, 0, 63, 78
1, 71471, Note_on_c, 0, 63, 0
1, 71472, Note_on_c, 0, 63, 78
1, 71495, Note_on_c, 0, 63, 0
1, 71496, Note_on_c, 0, 63, 78
1, 71519, Note_on_c, 0, 63, 0
1, 71520, Note_on_c, 0, 67, 78
1, 71543, Note_on_c, 0, 67, 0
1, 71544, Note_on_c, 0, 63, 78
1, 71567, Note_on_c, 0, 63, 0
1, 71568, Note_on_c, 0, 67, 78
1, 71591, Note_on_c, 0, 67, 0
1, 71592, Note_on_c, 0, 63, 77
1, 71601, Note_on_c, 1, 55, 0
1, 71601, Note_on_c, 1, 51, 0
1, 71601, Note_on_c, 1, 46, 0
1, 71615, Note_on_c, 0, 63, 0
1, 71616, Note_on_c, 1, 55, 74
1, 71616, Note_on_c, 1, 51, 74
1, 71616, Note_on_c, 1, 46, 74
1, 71640, Note_on_c, 0, 63, 77
1, 71663, Note_on_c, 0, 63, 0
1, 71664, Note_on_c, 0, 63, 77
1, 71687, Note_on_c, 0, 63, 0
1, 71688, Note_on_c, 0, 63, 77
1, 71705, Note_on_c, 1, 55, 0
1, 71705, Note_on_c, 1, 51, 0
1, 71705, Note_on_c, 1, 46, 0
1, 71711, Note_on_c, 0, 63, 0
1, 71712, Note_on_c, 1, 53, 73
1, 71712, Note_on_c, 1, 50, 73
1, 71712, Note_on_c, 1, 46, 73
1, 71736, Note_on_c, 0, 65, 76
1, 71759, Note_on_c, 0, 65, 0
1, 71760, Note_on_c, 0, 65, 76
1, 71783, Note_on_c, 0, 65, 0
1, 71784, Note_on_c, 0, 65, 76
1, 71807, Note_on_c, 0, 65, 0
1, 71808, Note_on_c, 0, 68, 76
1, 71831, Note_on_c, 0, 68, 0
1, 71832, Note_on_c, 0, 65, 76
1, 71855, Note_on_c, 0, 65, 0
1, 71856, Note_on_c, 0, 68, 76
1, 71879, Note_on_c, 0, 68, 0
1, 71880, Note_on_c, 0, 65, 75
1, 71889, Note_on_c, 1, 53, 0
1, 71889, Note_on_c, 1, 50, 0
1, 71889, Note_on_c, 1, 46, 0
1, 71903, Note_on_c, 0, 65, 0
1, 71904, Note_on_c, 1, 53, 71
1, 71904, Note_on_c, 1, 50, 71
1, 71904, Note_on_c, 1, 46, 71
1, 71928, Note_on_c, 0, 65, 75
1, 71951, Note_on_c, 0, 65, 0
1, 71952, Note_on_c, 0, 65, 75
1, 71975, Note_on_c, 0, 65, 0
1, 71976, Note_on_c, 0, 65, 75
1, 71993, Note_on_c, 1, 53, 0
1, 71993, Note_on_c, 1, 50, 0
1, 71993, Note_on_c, 1, 46, 0
1, 71999, Note_on_c, 0, 65, 0
1, 72000, Note_on_c, 0, 63, 75
1, 72023, Note_on_c, 0, 63, 0
1, 72024, Note_on_c, 0, 67, 75
1, 72047, Note_on_c, 0, 67, 0
1, 72048, Note_on_c, 0, 62, 75
1, 72071, Note_on_c, 0, 62, 0
1, 72072, Note_on_c, 0, 65, 75
1, 72095, Note_on_c, 0, 65, 0
1, 72096, Note_on_c, 0, 60, 75
1, 72119, Note_on_c, 0, 60, 0
1, 72120, Note_on_c, 0, 63, 75
1, 72143, Note_on_c, 0, 63, 0
1, 72144, Note_on_c, 0, 58, 75
1, 72167, Note_on_c, 0, 58, 0
1, 72168, Note_on_c, 0, 62, 75
1, 72191, Note_on_c, 0, 62, 0
1, 72192, Note_on_c, 0, 56, 75
1, 72215, Note_on_c, 0, 56, 0
1, 72216, Note_on_c, 0, 60, 75
1, 72239, Note_on_c, 0, 60, 0
1, 72240, Note_on_c, 0, 55, 75
1, 72263, Note_on_c, 0, 55, 0
1, 72264, Note_on_c, 0, 58, 75
1, 72287, Note_on_c, 0, 58, 0
1, 72288, Note_on_c, 0, 63, 70
1, 72311, Note_on_c, 0, 63, 0
1, 72312, Note_on_c, 0, 67, 70
1, 72335, Note_on_c, 0, 67, 0
1, 72336, Note_on_c, 0, 62, 70
1, 72359, Note_on_c, 0, 62, 0
1, 72360, Note_on_c, 0, 65, 70
1, 72383, Note_on_c, 0, 65, 0
1, 72384, Note_on_c, 0, 60, 70
1, 72407, Note_on_c, 0, 60, 0
1, 72408, Note_on_c, 0, 63, 70
1, 72431, Note_on_c, 0, 63, 0
1, 72432, Note_on_c, 0, 58, 70
1, 72455, Note_on_c, 0, 58, 0
1, 72456, Note_on_c, 0, 62, 70
1, 72479, Note_on_c, 0, 62, 0
1, 72480, Note_on_c, 0, 56, 70
1, 72503, Note_on_c, 0, 56, 0
1, 72504, Note_on_c, 0, 60, 70
1, 72527, Note_on_c, 0, 60, 0
1, 72528, Note_on_c, 0, 55, 70
1, 72551, Note_on_c, 0, 55, 0
1, 72552, Note_on_c, 0, 58, 70
1, 72575, Note_on_c, 0, 58, 0
1, 72576, Note_on_c, 1, 56, 75
1, 72600, Note_on_c, 0, 60, 75
1, 72623, Note_on_c, 0, 60, 0
1, 72624, Note_on_c, 0, 62, 75
1, 72647, Note_on_c, 0, 62, 0
1, 72648, Note_on_c, 0, 63, 75
1, 72665, Note_on_c, 1, 56, 0
1, 72671, Note_on_c, 0, 63, 0
1, 72672, Note_on_c, 0, 65, 75
1, 72695, Note_on_c, 0, 65, 0
1, 72696, Note_on_c, 0, 67, 75
1, 72719, Note_on_c, 0, 67, 0
1, 72720, Note_on_c, 0, 68, 75
1, 72743, Note_on_c, 0, 68, 0
1, 72744, Note_on_c, 0, 70, 75
1, 72767, Note_on_c, 0, 70, 0
1, 72768, Note_on_c, 0, 72, 75
1, 72792, Note_on_c, 1, 56, 75
1, 72813, Note_on_c, 0, 72, 0
1, 72815, Note_on_c, 1, 56, 0
1, 72816, Note_on_c, 1, 44, 75
1, 72839, Note_on_c, 1, 44, 0
1, 72840, Note_on_c, 1, 56, 75
1, 72863, Note_on_c, 1, 56, 0
1, 72864, Note_on_c, 1, 43, 75
1, 72888, Note_on_c, 0, 58, 75
1, 72911, Note_on_c, 0, 58, 0
1, 72912, Note_on_c, 0, 60, 75
1, 72935, Note_on_c, 0, 60, 0
1, 72936, Note_on_c, 0, 62, 75
1, 72953, Note_on_c, 1, 43, 0
1, 72959, Note_on_c, 0, 62, 0
1, 72960, Note_on_c, 0, 63, 75
1, 72983, Note_on_c, 0, 63, 0
1, 72984, Note_on_c, 0, 65, 75
1, 73007, Note_on_c, 0, 65, 0
1, 73008, Note_on_c, 0, 67, 75
1, 73031, Note_on_c, 0, 67, 0
1, 73032, Note_on_c, 0, 68, 75
1, 73055, Note_on_c, 0, 68, 0
1, 73056, Note_on_c, 0, 70, 75
1, 73080, Note_on_c, 1, 55, 75
1, 73101, Note_on_c, 0, 70, 0
1, 73103, Note_on_c, 1, 55, 0
1, 73104, Note_on_c, 1, 43, 75
1, 73127, Note_on_c, 1, 43, 0
1, 73128, Note_on_c, 1, 55, 75
1, 73151, Note_on_c, 1, 55, 0
1, 73152, Note_on_c, 1, 56, 75
1, 73176, Note_on_c, 0, 60, 70
1, 73199, Note_on_c, 0, 60, 0
1, 73200, Note_on_c, 0, 62, 70
1, 73223, Note_on_c, 0, 62, 0
1, 73224, Note_on_c, 0, 63, 70
1, 73241, Note_on_c, 1, 56, 0
1, 73247, Note_on_c, 0, 63, 0
1, 73248, Note_on_c, 0, 65, 70
1, 73271, Note_on_c, 0, 65, 0
1, 73272, Note_on_c, 0, 67, 70
1, 73295, Note_on_c, 0, 67, 0
1, 73296, Note_on_c, 0, 68, 70
1, 73319, Note_on_c, 0, 68, 0
1, 73320, Note_on_c, 0, 70, 70
1, 73343, Note_on_c, 0, 70, 0
1, 73344, Note_on_c, 0, 72, 70
1, 73368, Note_on_c, 1, 56, 70
1, 73389, Note_on_c, 0, 72, 0
1, 73391, Note_on_c, 1, 56, 0
1, 73392, Note_on_c, 1, 44, 70
1, 73415, Note_on_c, 1, 44, 0
1, 73416, Note_on_c, 1, 56, 70
1, 73439, Note_on_c, 1, 56, 0
1, 73440, Note_on_c, 1, 43, 70
1, 73464, Note_on_c, 0, 58, 70
1, 73487, Note_on_c, 0, 58, 0
1, 73488, Note_on_c, 0, 60, 70
1, 73511, Note_on_c, 0, 60, 0
1, 73512, Note_on_c, 0, 62, 70
1, 73529, Note_on_c, 1, 43, 0
1, 73535, Note_on_c, 0, 62, 0
1, 73536, Note_on_c, 0, 63, 70
1, 73559, Note_on_c, 0, 63, 0
1, 73560, Note_on_c, 0, 65, 70
1, 73583, Note_on_c, 0, 65, 0
1, 73584, Note_on_c, 0, 67, 70
1, 73607, Note_on_c, 0, 67, 0
1, 73608, Note_on_c, 0, 68, 70
1, 73631, Note_on_c, 0, 68, 0
1, 73632, Note_on_c, 0, 70, 70
1, 73655, Note_on_c, 0, 70, 0
1, 73656, Note_on_c, 0, 72, 70
1, 73679, Note_on_c, 0, 72, 0
1, 73680, Note_on_c, 0, 74, 70
1, 73703, Note_on_c, 0, 74, 0
1, 73704, Note_on_c, 0, 75, 70
1, 73716, Note_on_c, 0, 75, 0
1, 73716, Note_on_c, 0, 77, 70
1, 73728, Note_on_c, 0, 77, 0
1, 73728, Note_on_c, 0, 79, 86
1, 73776, Note_on_c, 0, 79, 0
1, 74016, Note_on_c, 0, 77, 75
1, 74016, Note_on_c, 1, 75, 70
1, 74016, Note_on_c, 1, 69, 70
1, 74039, Note_on_c, 0, 77, 0
1, 74040, Note_on_c, 0, 81, 75
1, 74063, Note_on_c, 0, 81, 0
1, 74064, Note_on_c, 0, 84, 75
1, 74087, Note_on_c, 0, 84, 0
1, 74088, Note_on_c, 0, 82, 75
1, 74105, Note_on_c, 1, 75, 0
1, 74105, Note_on_c, 1, 69, 0
1, 74111, Note_on_c, 0, 82, 0
1, 74112, Note_on_c, 0, 81, 75
1, 74135, Note_on_c, 0, 81, 0
1, 74136, Note_on_c, 0, 79, 75
1, 74159, Note_on_c, 0, 79, 0
1, 74160, Note_on_c, 0, 77, 75
1, 74160, Note_on_c, 1, 75, 70
1, 74160, Note_on_c, 1, 69, 70
1, 74183, Note_on_c, 0, 77, 0
1, 74184, Note_on_c, 0, 79, 75
1, 74205, Note_on_c, 1, 75, 0
1, 74205, Note_on_c, 1, 69, 0
1, 74207, Note_on_c, 0, 79, 0
1, 74208, Note_on_c, 0, 77, 75
1, 74208, Note_on_c, 1, 75, 70
1, 74208, Note_on_c, 1, 69, 70
1, 74231, Note_on_c, 0, 77, 0
1, 74232, Note_on_c, 0, 79, 75
1, 74253, Note_on_c, 1, 75, 0
1, 74253, Note_on_c, 1, 69, 0
1, 74255, Note_on_c, 0, 79, 0
1, 74256, Note_on_c, 0, 77, 75
1, 74256, Note_on_c, 1, 75, 70
1, 74256, Note_on_c, 1, 69, 70
1, 74279, Note_on_c, 0, 77, 0
1, 74280, Note_on_c, 0, 79, 75
1, 74301, Note_on_c, 1, 75, 0
1, 74301, Note_on_c, 1, 69, 0
1, 74303, Note_on_c, 0, 79, 0
1, 74304, Note_on_c, 0, 77, 75
1, 74304, Note_on_c, 1, 74, 70
1, 74304, Note_on_c, 1, 70, 70
1, 74327, Note_on_c, 0, 77, 0
1, 74328, Note_on_c, 0, 81, 75
1, 74351, Note_on_c, 0, 81, 0
1, 74352, Note_on_c, 0, 82, 75
1, 74375, Note_on_c, 0, 82, 0
1, 74376, Note_on_c, 0, 81, 75
1, 74393, Note_on_c, 1, 74, 0
1, 74393, Note_on_c, 1, 70, 0
1, 74399, Note_on_c, 0, 81, 0
1, 74400, Note_on_c, 0, 79, 75
1, 74423, Note_on_c, 0, 79, 0
1, 74424, Note_on_c, 0, 77, 75
1, 74447, Note_on_c, 0, 77, 0
1, 74448, Note_on_c, 0, 75, 75
1, 74471, Note_on_c, 0, 75, 0
1, 74472, Note_on_c, 0, 74, 75
1, 74495, Note_on_c, 0, 74, 0
1, 74496, Note_on_c, 0, 72, 75
1, 74519, Note_on_c, 0, 72, 0
1, 74520, Note_on_c, 0, 70, 75
1, 74543, Note_on_c, 0, 70, 0
1, 74544, Note_on_c, 0, 69, 75
1, 74567, Note_on_c, 0, 69, 0
1, 74568, Note_on_c, 0, 67, 75
1, 74591, Note_on_c, 0, 67, 0
1, 74592, Note_on_c, 0, 65, 75
1, 74592, Note_on_c, 1, 63, 70
1, 74592, Note_on_c, 1, 57, 70
1, 74615, Note_on_c, 0, 65, 0
1, 74616, Note_on_c, 0, 69, 75
1, 74639, Note_on_c, 0, 69, 0
1, 74640, Note_on_c, 0, 72, 75
1, 74663, Note_on_c, 0, 72, 0
1, 74664, Note_on_c, 0, 70, 75
1, 74681, Note_on_c, 1, 63, 0
1, 74681, Note_on_c, 1, 57, 0
1, 74687, Note_on_c, 0, 70, 0
1, 74688, Note_on_c, 0, 69, 75
1, 74711, Note_on_c, 0, 69, 0
1, 74712, Note_on_c, 0, 67, 75
1, 74735, Note_on_c, 0, 67, 0
1, 74736, Note_on_c, 0, 65, 75
1, 74736, Note_on_c, 1, 63, 70
1, 74736, Note_on_c, 1, 57, 70
1, 74759, Note_on_c, 0, 65, 0
1, 74760, Note_on_c, 0, 67, 75
1, 74781, Note_on_c, 1, 63, 0
1, 74781, Note_on_c, 1, 57, 0
1, 74783, Note_on_c, 0, 67, 0
1, 74784, Note_on_c, 0, 65, 75
1, 74784, Note_on_c, 1, 63, 70
1, 74784, Note_on_c, 1, 57, 70
1, 74807, Note_on_c, 0, 65, 0
1, 74808, Note_on_c, 0, 67, 75
1, 74829, Note_on_c, 1, 63, 0
1, 74829, Note_on_c, 1, 57, 0
1, 74831, Note_on_c, 0, 67, 0
1, 74832, Note_on_c, 0, 65, 75
1, 74832, Note_on_c, 1, 63, 70
1, 74832, Note_on_c, 1, 57, 70
1, 74855, Note_on_c, 0, 65, 0
1, 74856, Note_on_c, 0, 67, 75
1, 74877, Note_on_c, 1, 63, 0
1, 74877, Note_on_c, 1, 57, 0
1, 74879, Note_on_c, 0, 67, 0
1, 74880, Note_on_c, 0, 65, 75
1, 74880, Note_on_c, 1, 62, 70
1, 74880, Note_on_c, 1, 58, 70
1, 74903, Note_on_c, 0, 65, 0
1, 74904, Note_on_c, 0, 70, 75
1, 74927, Note_on_c, 0, 70, 0
1, 74928, Note_on_c, 0, 69, 75
1, 74951, Note_on_c, 0, 69, 0
1, 74952, Note_on_c, 0, 67, 75
1, 74969, Note_on_c, 1, 62, 0
1, 74969, Note_on_c, 1, 58, 0
1, 74975, Note_on_c, 0, 67, 0
1, 74976, Note_on_c, 0, 65, 75
1, 74999, Note_on_c, 0, 65, 0
1, 75000, Note_on_c, 0, 63, 75
1, 75023, Note_on_c, 0, 63, 0
1, 75024, Note_on_c, 0, 62, 75
1, 75047, Note_on_c, 0, 62, 0
1, 75048, Note_on_c, 0, 60, 75
1, 75071, Note_on_c, 0, 60, 0
1, 75072, Note_on_c, 0, 58, 75
1, 75095, Note_on_c, 0, 58, 0
1, 75096, Note_on_c, 0, 60, 75
1, 75119, Note_on_c, 0, 60, 0
1, 75120, Note_on_c, 0, 62, 75
1, 75143, Note_on_c, 0, 62, 0
1, 75144, Note_on_c, 0, 63, 75
1, 75167, Note_on_c, 0, 63, 0
1, 75168, Note_on_c, 0, 65, 75
1, 75168, Note_on_c, 1, 46, 75
1, 75168, Note_on_c, 1, 34, 75
1, 75191, Note_on_c, 0, 65, 0
1, 75192, Note_on_c, 0, 62, 75
1, 75215, Note_on_c, 0, 62, 0
1, 75216, Note_on_c, 0, 65, 75
1, 75239, Note_on_c, 0, 65, 0
1, 75240, Note_on_c, 0, 67, 75
1, 75257, Note_on_c, 1, 46, 0
1, 75257, Note_on_c, 1, 34, 0
1, 75263, Note_on_c, 0, 67, 0
1, 75264, Note_on_c, 0, 68, 75
1, 75287, Note_on_c, 0, 68, 0
1, 75288, Note_on_c, 0, 67, 75
1, 75311, Note_on_c, 0, 67, 0
1, 75312, Note_on_c, 0, 65, 75
1, 75312, Note_on_c, 1, 46, 75
1, 75335, Note_on_c, 0, 65, 0
1, 75336, Note_on_c, 0, 63, 75
1, 75357, Note_on_c, 1, 46, 0
1, 75359, Note_on_c, 0, 63, 0
1, 75360, Note_on_c, 0, 62, 75
1, 75360, Note_on_c, 1, 48, 75
1, 75383, Note_on_c, 0, 62, 0
1, 75384, Note_on_c, 0, 60, 75
1, 75405, Note_on_c, 1, 48, 0
1, 75407, Note_on_c, 0, 60, 0
1, 75408, Note_on_c, 0, 58, 75
1, 75408, Note_on_c, 1, 50, 75
1, 75431, Note_on_c, 0, 58, 0
1, 75432, Note_on_c, 0, 56, 75
1, 75453, Note_on_c, 1, 50, 0
1, 75455, Note_on_c, 0, 56, 0
1, 75456, Note_on_c, 0, 55, 75
1, 75456, Note_on_c, 1, 51, 75
1, 75479, Note_on_c, 0, 55, 0
1, 75480, Note_on_c, 0, 58, 75
1, 75495, Note_on_c, 1, 51, 0
1, 75503, Note_on_c, 0, 58, 0
1, 75504, Note_on_c, 0, 56, 75
1, 75527, Note_on_c, 0, 56, 0
1, 75528, Note_on_c, 0, 55, 75
1, 75551, Note_on_c, 0, 55, 0
1, 75552, Note_on_c, 0, 56, 75
1, 75552, Note_on_c, 1, 53, 75
1, 75575, Note_on_c, 0, 56, 0
1, 75576, Note_on_c, 0, 58, 75
1, 75591, Note_on_c, 1, 53, 0
1, 75599, Note_on_c, 0, 58, 0
1, 75600, Note_on_c, 0, 60, 75
1, 75623, Note_on_c, 0, 60, 0
1, 75624, Note_on_c, 0, 62, 75
1, 75647, Note_on_c, 0, 62, 0
1, 75648, Note_on_c, 0, 63, 75
1, 75648, Note_on_c, 1, 55, 75
1, 75671, Note_on_c, 0, 63, 0
1, 75672, Note_on_c, 0, 65, 75
1, 75687, Note_on_c, 1, 55, 0
1, 75695, Note_on_c, 0, 65, 0
1, 75696, Note_on_c, 0, 67, 75
1, 75719, Note_on_c, 0, 67, 0
1, 75720, Note_on_c, 0, 63, 75
1, 75743, Note_on_c, 0, 63, 0
1, 75744, Note_on_c, 0, 62, 75
1, 75744, Note_on_c, 1, 56, 75
1, 75744, Note_on_c, 1, 44, 64
1, 75767, Note_on_c, 0, 62, 0
1, 75768, Note_on_c, 0, 60, 75
1, 75791, Note_on_c, 0, 60, 0
1, 75792, Note_on_c, 0, 68, 75
1, 75815, Note_on_c, 0, 68, 0
1, 75816, Note_on_c, 0, 65, 75
1, 75833, Note_on_c, 1, 56, 0
1, 75833, Note_on_c, 1, 44, 0
1, 75839, Note_on_c, 0, 65, 0
1, 75840, Note_on_c, 0, 63, 75
1, 75840, Note_on_c, 1, 55, 75
1, 75840, Note_on_c, 1, 46, 64
1, 75929, Note_on_c, 0, 63, 0
1, 75929, Note_on_c, 1, 55, 0
1, 75936, Note_on_c, 0, 62, 75
1, 75936, Note_on_c, 1, 53, 75
1, 75949, Note_on_c, 0, 62, 0
1, 75950, Note_on_c, 0, 63, 75
1, 75963, Note_on_c, 0, 63, 0
1, 75964, Note_on_c, 0, 62, 75
1, 75977, Note_on_c, 0, 62, 0
1, 75978, Note_on_c, 0, 63, 75
1, 75991, Note_on_c, 0, 63, 0
1, 75992, Note_on_c, 0, 62, 75
1, 76005, Note_on_c, 0, 62, 0
1, 76006, Note_on_c, 0, 60, 75
1, 76017, Note_on_c, 1, 46, 0
1, 76018, Note_on_c, 0, 60, 0
1, 76019, Note_on_c, 0, 62, 75
1, 76025, Note_on_c, 1, 53, 0
1, 76031, Note_on_c, 0, 62, 0
1, 76032, Note_on_c, 0, 55, 75
1, 76032, Note_on_c, 1, 51, 75
1, 76055, Note_on_c, 0, 55, 0
1, 76056, Note_on_c, 0, 58, 75
1, 76071, Note_on_c, 1, 51, 0
1, 76079, Note_on_c, 0, 58, 0
1, 76080, Note_on_c, 0, 56, 75
1, 76103, Note_on_c, 0, 56, 0
1, 76104, Note_on_c, 0, 55, 75
1, 76127, Note_on_c, 0, 55, 0
1, 76128, Note_on_c, 0, 56, 75
1, 76128, Note_on_c, 1, 53, 75
1, 76151, Note_on_c, 0, 56, 0
1, 76152, Note_on_c, 0, 58, 75
1, 76167, Note_on_c, 1, 53, 0
1, 76175, Note_on_c, 0, 58, 0
1, 76176, Note_on_c, 0, 60, 75
1, 76199, Note_on_c, 0, 60, 0
1, 76200, Note_on_c, 0, 62, 75
1, 76223, Note_on_c, 0, 62, 0
1, 76224, Note_on_c, 0, 63, 75
1, 76224, Note_on_c, 1, 55, 75
1, 76247, Note_on_c, 0, 63, 0
1, 76248, Note_on_c, 0, 65, 75
1, 76263, Note_on_c, 1, 55, 0
1, 76271, Note_on_c, 0, 65, 0
1, 76272, Note_on_c, 0, 67, 75
1, 76295, Note_on_c, 0, 67, 0
1, 76296, Note_on_c, 0, 63, 75
1, 76319, Note_on_c, 0, 63, 0
1, 76320, Note_on_c, 0, 62, 75
1, 76320, Note_on_c, 1, 56, 75
1, 76340, Note_on_c, 1, 56, 0
1, 76343, Note_on_c, 0, 62, 0
1, 76344, Note_on_c, 0, 60, 75
1, 76367, Note_on_c, 0, 60, 0
1, 76368, Note_on_c, 0, 68, 75
1, 76368, Note_on_c, 1, 53, 75
1, 76388, Note_on_c, 1, 53, 0
1, 76391, Note_on_c, 0, 68, 0
1, 76392, Note_on_c, 0, 65, 75
1, 76415, Note_on_c, 0, 65, 0
1, 76416, Note_on_c, 0, 63, 75
1, 76416, Note_on_c, 1, 58, 75
1, 76436, Note_on_c, 1, 58, 0
1, 76439, Note_on_c, 0, 63, 0
1, 76440, Note_on_c, 0, 62, 75
1, 76463, Note_on_c, 0, 62, 0
1, 76464, Note_on_c, 0, 70, 75
1, 76464, Note_on_c, 1, 55, 75
1, 76484, Note_on_c, 1, 55, 0
1, 76487, Note_on_c, 0, 70, 0
1, 76488, Note_on_c, 0, 67, 75
1, 76511, Note_on_c, 0, 67, 0
1, 76512, Note_on_c, 0, 65, 75
1, 76512, Note_on_c, 1, 60, 75
1, 76532, Note_on_c, 1, 60, 0
1, 76535, Note_on_c, 0, 65, 0
1, 76536, Note_on_c, 0, 63, 75
1, 76559, Note_on_c, 0, 63, 0
1, 76560, Note_on_c, 0, 72, 75
1, 76560, Note_on_c, 1, 56, 75
1, 76580, Note_on_c, 1, 56, 0
1, 76583, Note_on_c, 0, 72, 0
1, 76584, Note_on_c, 0, 68, 75
1, 76607, Note_on_c, 0, 68, 0
1, 76608, Note_on_c, 0, 67, 75
1, 76608, Note_on_c, 1, 62, 75
1, 76631, Note_on_c, 0, 67, 0
1, 76632, Note_on_c, 0, 65, 75
1, 76655, Note_on_c, 0, 65, 0
1, 76656, Note_on_c, 0, 79, 75
1, 76679, Note_on_c, 0, 79, 0
1, 76680, Note_on_c, 0, 77, 75
1, 76697, Note_on_c, 1, 62, 0
1, 76703, Note_on_c, 0, 77, 0
1, 76704, Note_on_c, 0, 75, 75
1, 76727, Note_on_c, 0, 75, 0
1, 76728, Note_on_c, 0, 74, 75
1, 76751, Note_on_c, 0, 74, 0
1, 76752, Note_on_c, 0, 77, 75
1, 76752, Note_on_c, 1, 58, 75
1, 76775, Note_on_c, 0, 77, 0
1, 76776, Note_on_c, 0, 75, 75
1, 76797, Note_on_c, 1, 58, 0
1, 76799, Note_on_c, 0, 75, 0
1, 76800, Note_on_c, 0, 74, 75
1, 76800, Note_on_c, 1, 60, 75
1, 76823, Note_on_c, 0, 74, 0
1, 76824, Note_on_c, 0, 72, 75
1, 76845, Note_on_c, 1, 60, 0
1, 76847, Note_on_c, 0, 72, 0
1, 76848, Note_on_c, 0, 70, 75
1, 76848, Note_on_c, 1, 62, 75
1, 76871, Note_on_c, 0, 70, 0
1, 76872, Note_on_c, 0, 68, 75
1, 76893, Note_on_c, 1, 62, 0
1, 76895, Note_on_c, 0, 68, 0
1, 76896, Note_on_c, 0, 67, 75
1, 76896, Note_on_c, 1, 63, 75
1, 76919, Note_on_c, 0, 67, 0
1, 76920, Note_on_c, 0, 70, 75
1, 76935, Note_on_c, 1, 63, 0
1, 76943, Note_on_c, 0, 70, 0
1, 76944, Note_on_c, 0, 68, 75
1, 76967, Note_on_c, 0, 68, 0
1, 76968, Note_on_c, 0, 67, 75
1, 76991, Note_on_c, 0, 67, 0
1, 76992, Note_on_c, 0, 68, 75
1, 76992, Note_on_c, 1, 65, 75
1, 77015, Note_on_c, 0, 68, 0
1, 77016, Note_on_c, 0, 70, 75
1, 77031, Note_on_c, 1, 65, 0
1, 77039, Note_on_c, 0, 70, 0
1, 77040, Note_on_c, 0, 72, 75
1, 77063, Note_on_c, 0, 72, 0
1, 77064, Note_on_c, 0, 74, 75
1, 77087, Note_on_c, 0, 74, 0
1, 77088, Note_on_c, 0, 75, 75
1, 77088, Note_on_c, 1, 67, 75
1, 77111, Note_on_c, 0, 75, 0
1, 77112, Note_on_c, 0, 77, 75
1, 77127, Note_on_c, 1, 67, 0
1, 77135, Note_on_c, 0, 77, 0
1, 77136, Note_on_c, 0, 79, 75
1, 77159, Note_on_c, 0, 79, 0
1, 77160, Note_on_c, 0, 75, 75
1, 77183, Note_on_c, 0, 75, 0
1, 77184, Note_on_c, 0, 74, 75
1, 77184, Note_on_c, 1, 63, 75
1, 77184, Note_on_c, 1, 56, 64
1, 77207, Note_on_c, 0, 74, 0
1, 77208, Note_on_c, 0, 72, 75
1, 77231, Note_on_c, 0, 72, 0
1, 77232, Note_on_c, 0, 84, 75
1, 77255, Note_on_c, 0, 84, 0
1, 77256, Note_on_c, 0, 80, 75
1, 77273, Note_on_c, 1, 63, 0
1, 77273, Note_on_c, 1, 56, 0
1, 77279, Note_on_c, 0, 80, 0
1, 77280, Note_on_c, 0, 79, 75
1, 77280, Note_on_c, 1, 63, 75
1, 77280, Note_on_c, 1, 58, 64
1, 77369, Note_on_c, 0, 79, 0
1, 77369, Note_on_c, 1, 63, 0
1, 77369, Note_on_c, 1, 58, 0
1, 77376, Note_on_c, 0, 77, 75
1, 77376, Note_on_c, 1, 62, 75
1, 77376, Note_on_c, 1, 58, 64
1, 77389, Note_on_c, 0, 77, 0
1, 77390, Note_on_c, 0, 79, 75
1, 77403, Note_on_c, 0, 79, 0
1, 77404, Note_on_c, 0, 77, 75
1, 77417, Note_on_c, 0, 77, 0
1, 77418, Note_on_c, 0, 79, 75
1, 77431, Note_on_c, 0, 79, 0
1, 77432, Note_on_c, 0, 77, 75
1, 77445, Note_on_c, 0, 77, 0
1, 77446, Note_on_c, 0, 75, 75
1, 77458, Note_on_c, 0, 75, 0
1, 77459, Note_on_c, 0, 77, 75
1, 77465, Note_on_c, 1, 62, 0
1, 77465, Note_on_c, 1, 58, 0
1, 77471, Note_on_c, 0, 77, 0
1, 77472, Note_on_c, 0, 75, 75
1, 77472, Note_on_c, 1, 63, 75
1, 77492, Note_on_c, 0, 75, 0
1, 77520, Note_on_c, 0, 70, 75
1, 77520, Note_on_c, 0, 67, 75
1, 77543, Note_on_c, 0, 70, 0
1, 77543, Note_on_c, 0, 67, 0
1, 77544, Note_on_c, 0, 72, 74
1, 77544, Note_on_c, 0, 68, 74
1, 77561, Note_on_c, 1, 63, 0
1, 77567, Note_on_c, 0, 72, 0
1, 77567, Note_on_c, 0, 68, 0
1, 77568, Note_on_c, 0, 70, 74
1, 77568, Note_on_c, 0, 67, 74
1, 77613, Note_on_c, 0, 70, 0
1, 77613, Note_on_c, 0, 67, 0
1, 77616, Note_on_c, 0, 68, 73
1, 77616, Note_on_c, 0, 65, 73
1, 77661, Note_on_c, 0, 68, 0
1, 77661, Note_on_c, 0, 65, 0
1, 77664, Note_on_c, 0, 67, 72
1, 77664, Note_on_c, 0, 63, 72
1, 77709, Note_on_c, 0, 67, 0
1, 77709, Note_on_c, 0, 63, 0
1, 77712, Note_on_c, 0, 65, 71
1, 77712, Note_on_c, 0, 62, 71
1, 77757, Note_on_c, 0, 65, 0
1, 77757, Note_on_c, 0, 62, 0
1, 77760, Note_on_c, 0, 67, 70
1, 77760, Note_on_c, 0, 63, 70
1, 77760, Note_on_c, 1, 51, 64
1, 77780, Note_on_c, 0, 67, 0
1, 77780, Note_on_c, 0, 63, 0
1, 77808, Note_on_c, 0, 67, 70
1, 77808, Note_on_c, 0, 58, 70
1, 77831, Note_on_c, 0, 67, 0
1, 77831, Note_on_c, 0, 58, 0
1, 77832, Note_on_c, 0, 68, 70
1, 77832, Note_on_c, 0, 60, 70
1, 77855, Note_on_c, 0, 68, 0
1, 77855, Note_on_c, 0, 60, 0
1, 77856, Note_on_c, 0, 67, 70
1, 77856, Note_on_c, 0, 58, 70
1, 77901, Note_on_c, 0, 67, 0
1, 77901, Note_on_c, 0, 58, 0
1, 77904, Note_on_c, 0, 65, 70
1, 77904, Note_on_c, 0, 56, 70
1, 77949, Note_on_c, 0, 65, 0
1, 77949, Note_on_c, 0, 56, 0
1, 77952, Note_on_c, 0, 63, 70
1, 77952, Note_on_c, 0, 55, 70
1, 77997, Note_on_c, 0, 63, 0
1, 77997, Note_on_c, 0, 55, 0
1, 78000, Note_on_c, 0, 62, 70
1, 78000, Note_on_c, 0, 53, 70
1, 78025, Note_on_c, 1, 51, 0
1, 78045, Note_on_c, 0, 62, 0
1, 78045, Note_on_c, 0, 53, 0
1, 78048, Tempo, 857142
1, 78048, Note_on_c, 0, 62, 70
1, 78048, Note_on_c, 0, 56, 70
1, 78048, Note_on_c, 0, 53, 70
1, 78048, Note_on_c, 1, 51, 64
1, 78048, Note_on_c, 1, 39, 64
1, 78225, Note_on_c, 1, 51, 0
1, 78225, Note_on_c, 1, 39, 0
1, 78240, Note_on_c, 0, 62, 0
1, 78240, Note_on_c, 0, 56, 0
1, 78240, Note_on_c, 0, 53, 0
1, 78240, Note_on_c, 0, 51, 70
1, 78240, Note_on_c, 1, 39, 64
1, 78249, Note_on_c, 0, 55, 70
1, 78249, Note_on_c, 1, 43, 64
1, 78258, Note_on_c, 0, 58, 70
1, 78258, Note_on_c, 1, 46, 64
1, 78267, Note_on_c, 0, 63, 70
1, 78267, Note_on_c, 1, 51, 64
1, 78513, Note_on_c, 0, 63, 0
1, 78513, Note_on_c, 0, 58, 0
1, 78513, Note_on_c, 0, 55, 0
1, 78513, Note_on_c, 0, 51, 0
1, 78513, Note_on_c, 1, 51, 0
1, 78513, Note_on_c, 1, 46, 0
1, 78513, Note_on_c, 1, 43, 0
1, 78513, Note_on_c, 1, 39, 0
1, 78528, Note_on_c, 1, 39, 0
1, 78617, Note_on_c, 1, 39, 0
1, 78627, End_track
0, 0, End_of_file