0, 0, Header, 0, 1, 96
1, 0, Start_track
1, 0, Tempo, 1333333
1, 0, Note_on_c, 0, 76, 64
1, 0, Note_on_c, 0, 73, 64
1, 0, Note_on_c, 1, 57, 64
1, 24, Note_on_c, 1, 64, 64
1, 47, Note_on_c, 0, 76, 0
1, 47, Note_on_c, 0, 73, 0
1, 48, Note_on_c, 0, 76, 64
1, 48, Note_on_c, 0, 73, 64
1, 71, Note_on_c, 0, 76, 0
1, 71, Note_on_c, 0, 73, 0
1, 72, Note_on_c, 0, 76, 64
1, 72, Note_on_c, 0, 73, 64
1, 89, Note_on_c, 1, 57, 0
1, 91, Note_on_c, 1, 64, 0
1, 95, Note_on_c, 0, 76, 0
1, 95, Note_on_c, 0, 73, 0
1, 96, Note_on_c, 0, 81, 64
1, 96, Note_on_c, 0, 73, 64
1, 120, Note_on_c, 1, 64, 64
1, 141, Note_on_c, 0, 81, 0
1, 141, Note_on_c, 0, 73, 0
1, 144, Note_on_c, 0, 76, 64
1, 144, Note_on_c, 0, 73, 64
1, 167, Note_on_c, 0, 76, 0
1, 167, Note_on_c, 0, 73, 0
1, 168, Note_on_c, 0, 76, 64
1, 168, Note_on_c, 0, 73, 64
1, 187, Note_on_c, 1, 64, 0
1, 191, Note_on_c, 0, 76, 0
1, 191, Note_on_c, 0, 73, 0
1, 192, Note_on_c, 0, 76, 64
1, 192, Note_on_c, 0, 73, 64
1, 216, Note_on_c, 1, 64, 64
1, 237, Note_on_c, 0, 76, 0
1, 237, Note_on_c, 0, 73, 0
1, 240, Note_on_c, 0, 76, 64
1, 240, Note_on_c, 0, 73, 64
1, 263, Note_on_c, 0, 76, 0
1, 263, Note_on_c, 0, 73, 0
1, 264, Note_on_c, 0, 76, 64
1, 264, Note_on_c, 0, 73, 64
1, 283, Note_on_c, 1, 64, 0
1, 287, Note_on_c, 0, 76, 0
1, 287, Note_on_c, 0, 73, 0
1, 288, Note_on_c, 0, 74, 64
1, 288, Note_on_c, 0, 71, 64
1, 288, Note_on_c, 1, 57, 64
1, 312, Note_on_c, 1, 64, 64
1, 333, Note_on_c, 0, 74, 0
1, 333, Note_on_c, 0, 71, 0
1, 336, Note_on_c, 0, 74, 64
1, 336, Note_on_c, 0, 71, 64
1, 359, Note_on_c, 0, 74, 0
1, 359, Note_on_c, 0, 71, 0
1, 360, Note_on_c, 0, 74, 64
1, 360, Note_on_c, 0, 71, 64
1, 377, Note_on_c, 1, 57, 0
1, 379, Note_on_c, 1, 64, 0
1, 383, Note_on_c, 0, 74, 0
1, 383, Note_on_c, 0, 71, 0
1, 384, Note_on_c, 0, 81, 64
1, 384, Note_on_c, 0, 71, 64
1, 408, Note_on_c, 1, 64, 64
1, 429, Note_on_c, 0, 81, 0
1, 429, Note_on_c, 0, 71, 0
1, 432, Note_on_c, 0, 81, 64
1, 432, Note_on_c, 0, 71, 64
1, 455, Note_on_c, 0, 81, 0
1, 455, Note_on_c, 0, 71, 0
1, 456, Note_on_c, 0, 81, 64
1, 456, Note_on_c, 0, 71, 64
1, 475, Note_on_c, 1, 64, 0
1, 479, Note_on_c, 0, 81, 0
1, 479, Note_on_c, 0, 71, 0
1, 480, Note_on_c, 0, 80, 64
1, 480, Note_on_c, 0, 71, 64
1, 504, Note_on_c, 1, 64, 64
1, 525, Note_on_c, 0, 80, 0
1, 525, Note_on_c, 0, 71, 0
1, 528, Note_on_c, 0, 80, 64
1, 528, Note_on_c, 0, 71, 64
1, 551, Note_on_c, 0, 80, 0
1, 551, Note_on_c, 0, 71, 0
1, 552, Note_on_c, 0, 80, 64
1, 552, Note_on_c, 0, 71, 64
1, 571, Note_on_c, 1, 64, 0
1, 575, Note_on_c, 0, 80, 0
1, 575, Note_on_c, 0, 71, 0
1, 576, Note_on_c, 0, 81, 75
1, 576, Note_on_c, 0, 76, 75
1, 576, Note_on_c, 0, 73, 75
1, 576, Note_on_c, 1, 61, 64
1, 576, Note_on_c, 1, 57, 64
1, 599, Note_on_c, 1, 61, 0
1, 599, Note_on_c, 1, 57, 0
1, 600, Note_on_c, 1, 52, 64
1, 623, Note_on_c, 1, 52, 0
1, 624, Note_on_c, 1, 61, 65
1, 624, Note_on_c, 1, 57, 65
1, 647, Note_on_c, 1, 61, 0
1, 647, Note_on_c, 1, 57, 0
1, 648, Note_on_c, 1, 61, 66
1, 648, Note_on_c, 1, 57, 66
1, 665, Note_on_c, 0, 81, 0
1, 665, Note_on_c, 0, 76, 0
1, 665, Note_on_c, 0, 73, 0
1, 671, Note_on_c, 1, 61, 0
1, 671, Note_on_c, 1, 57, 0
1, 672, Note_on_c, 0, 80, 76
1, 672, Note_on_c, 0, 76, 76
1, 672, Note_on_c, 0, 71, 76
1, 672, Note_on_c, 1, 62, 66
1, 672, Note_on_c, 1, 59, 66
1, 695, Note_on_c, 1, 62, 0
1, 695, Note_on_c, 1, 59, 0
1, 696, Note_on_c, 1, 52, 67
1, 719, Note_on_c, 1, 52, 0
1, 720, Note_on_c, 1, 62, 68
1, 720, Note_on_c, 1, 59, 68
1, 743, Note_on_c, 1, 62, 0
1, 743, Note_on_c, 1, 59, 0
1, 744, Note_on_c, 1, 62, 68
1, 744, Note_on_c, 1, 59, 68
1, 761, Note_on_c, 0, 80, 0
1, 761, Note_on_c, 0, 76, 0
1, 761, Note_on_c, 0, 71, 0
1, 767, Note_on_c, 1, 62, 0
1, 767, Note_on_c, 1, 59, 0
1, 768, Note_on_c, 0, 81, 78
1, 768, Note_on_c, 0, 76, 78
1, 768, Note_on_c, 0, 73, 78
1, 768, Note_on_c, 1, 61, 69
1, 768, Note_on_c, 1, 57, 69
1, 791, Note_on_c, 1, 61, 0
1, 791, Note_on_c, 1, 57, 0
1, 792, Note_on_c, 1, 52, 70
1, 815, Note_on_c, 1, 52, 0
1, 816, Note_on_c, 1, 61, 70
1, 816, Note_on_c, 1, 57, 70
1, 835, Note_on_c, 0, 81, 0
1, 835, Note_on_c, 0, 76, 0
1, 835, Note_on_c, 0, 73, 0
1, 839, Note_on_c, 1, 61, 0
1, 839, Note_on_c, 1, 57, 0
1, 840, Note_on_c, 0, 76, 80
1, 840, Note_on_c, 0, 73, 80
1, 840, Note_on_c, 1, 49, 86
1, 863, Note_on_c, 0, 76, 0
1, 863, Note_on_c, 0, 73, 0
1, 864, Note_on_c, 0, 76, 80
1, 864, Note_on_c, 0, 73, 80
1, 864, Note_on_c, 1, 49, 0
1, 864, Note_on_c, 1, 50, 70
1, 909, Note_on_c, 0, 76, 0
1, 909, Note_on_c, 0, 73, 0
1, 912, Note_on_c, 0, 74, 79
1, 912, Note_on_c, 0, 71, 79
1, 936, Note_on_c, 1, 50, 0
1, 936, Note_on_c, 1, 51, 68
1, 957, Note_on_c, 0, 74, 0
1, 957, Note_on_c, 0, 71, 0
1, 959, Note_on_c, 1, 51, 0
1, 960, Note_on_c, 0, 73, 78
1, 960, Note_on_c, 0, 69, 73
1, 960, Note_on_c, 1, 52, 67
1, 983, Note_on_c, 0, 73, 0
1, 984, Note_on_c, 0, 75, 77
1, 1007, Note_on_c, 0, 75, 0
1, 1008, Note_on_c, 0, 76, 77
1, 1031, Note_on_c, 0, 76, 0
1, 1032, Note_on_c, 0, 75, 76
1, 1055, Note_on_c, 0, 75, 0
1, 1056, Note_on_c, 0, 76, 76
1, 1056, Note_on_c, 0, 69, 0
1, 1056, Note_on_c, 0, 68, 71
1, 1079, Note_on_c, 1, 52, 0
1, 1080, Note_on_c, 1, 54, 64
1, 1080, Note_on_c, 1, 50, 64
1, 1101, Note_on_c, 0, 76, 0
1, 1101, Note_on_c, 0, 68, 0
1, 1103, Note_on_c, 1, 54, 0
1, 1103, Note_on_c, 1, 50, 0
1, 1104, Note_on_c, 1, 52, 64
1, 1104, Note_on_c, 1, 49, 64
1, 1127, Note_on_c, 1, 52, 0
1, 1127, Note_on_c, 1, 49, 0
1, 1128, Note_on_c, 1, 50, 65
1, 1128, Note_on_c, 1, 47, 65
1, 1151, Note_on_c, 1, 50, 0
1, 1151, Note_on_c, 1, 47, 0
1, 1152, Note_on_c, 0, 88, 70
1, 1152, Note_on_c, 0, 85, 70
1, 1152, Note_on_c, 1, 49, 66
1, 1152, Note_on_c, 1, 45, 66
1, 1175, Note_on_c, 0, 88, 0
1, 1175, Note_on_c, 0, 85, 0
1, 1176, Note_on_c, 0, 86, 70
1, 1176, Note_on_c, 0, 83, 70
1, 1199, Note_on_c, 0, 86, 0
1, 1199, Note_on_c, 0, 83, 0
1, 1200, Note_on_c, 0, 85, 70
1, 1200, Note_on_c, 0, 81, 70
1, 1223, Note_on_c, 0, 85, 0
1, 1223, Note_on_c, 0, 81, 0
1, 1224, Note_on_c, 0, 83, 70
1, 1224, Note_on_c, 0, 80, 70
1, 1241, Note_on_c, 1, 49, 0
1, 1241, Note_on_c, 1, 45, 0
1, 1247, Note_on_c, 0, 83, 0
1, 1247, Note_on_c, 0, 80, 0
1, 1248, Note_on_c, 0, 81, 70
1, 1248, Note_on_c, 0, 78, 70
1, 1271, Note_on_c, 0, 81, 0
1, 1271, Note_on_c, 0, 78, 0
1, 1272, Note_on_c, 0, 80, 70
1, 1272, Note_on_c, 0, 76, 70
1, 1295, Note_on_c, 0, 80, 0
1, 1295, Note_on_c, 0, 76, 0
1, 1296, Note_on_c, 0, 78, 70
1, 1296, Note_on_c, 0, 74, 70
1, 1319, Note_on_c, 0, 78, 0
1, 1319, Note_on_c, 0, 74, 0
1, 1320, Note_on_c, 0, 76, 70
1, 1320, Note_on_c, 0, 73, 70
1, 1343, Note_on_c, 0, 76, 0
1, 1343, Note_on_c, 0, 73, 0
1, 1344, Note_on_c, 0, 74, 70
1, 1344, Note_on_c, 0, 71, 70
1, 1367, Note_on_c, 0, 74, 0
1, 1367, Note_on_c, 0, 71, 0
1, 1368, Note_on_c, 0, 73, 70
1, 1368, Note_on_c, 0, 69, 70
1, 1391, Note_on_c, 0, 73, 0
1, 1391, Note_on_c, 0, 69, 0
1, 1392, Note_on_c, 0, 71, 70
1, 1392, Note_on_c, 0, 68, 70
1, 1415, Note_on_c, 0, 71, 0
1, 1415, Note_on_c, 0, 68, 0
1, 1416, Note_on_c, 0, 69, 70
1, 1416, Note_on_c, 0, 66, 70
1, 1439, Note_on_c, 0, 69, 0
1, 1439, Note_on_c, 0, 66, 0
1, 1440, Note_on_c, 0, 68, 70
1, 1440, Note_on_c, 0, 64, 70
1, 1440, Note_on_c, 1, 44, 70
1, 1440, Note_on_c, 1, 40, 70
1, 1463, Note_on_c, 1, 44, 0
1, 1463, Note_on_c, 1, 40, 0
1, 1464, Note_on_c, 1, 45, 70
1, 1464, Note_on_c, 1, 42, 70
1, 1487, Note_on_c, 1, 45, 0
1, 1487, Note_on_c, 1, 42, 0
1, 1488, Note_on_c, 1, 47, 70
1, 1488, Note_on_c, 1, 44, 70
1, 1511, Note_on_c, 1, 47, 0
1, 1511, Note_on_c, 1, 44, 0
1, 1512, Note_on_c, 1, 49, 71
1, 1512, Note_on_c, 1, 45, 71
1, 1529, Note_on_c, 0, 68, 0
1, 1529, Note_on_c, 0, 64, 0
1, 1535, Note_on_c, 1, 49, 0
1, 1535, Note_on_c, 1, 45, 0
1, 1536, Note_on_c, 1, 50, 71
1, 1536, Note_on_c, 1, 47, 71
1, 1559, Note_on_c, 1, 50, 0
1, 1559, Note_on_c, 1, 47, 0
1, 1560, Note_on_c, 1, 52, 72
1, 1560, Note_on_c, 1, 49, 72
1, 1583, Note_on_c, 1, 52, 0
1, 1583, Note_on_c, 1, 49, 0
1, 1584, Note_on_c, 1, 54, 72
1, 1584, Note_on_c, 1, 50, 72
1, 1607, Note_on_c, 1, 54, 0
1, 1607, Note_on_c, 1, 50, 0
1, 1608, Note_on_c, 1, 56, 72
1, 1608, Note_on_c, 1, 52, 72
1, 1631, Note_on_c, 1, 56, 0
1, 1631, Note_on_c, 1, 52, 0
1, 1632, Note_on_c, 1, 57, 73
1, 1632, Note_on_c, 1, 54, 73
1, 1655, Note_on_c, 1, 57, 0
1, 1655, Note_on_c, 1, 54, 0
1, 1656, Note_on_c, 1, 52, 73
1, 1656, Note_on_c, 1, 49, 73
1, 1679, Note_on_c, 1, 52, 0
1, 1679, Note_on_c, 1, 49, 0
1, 1680, Note_on_c, 1, 54, 74
1, 1680, Note_on_c, 1, 50, 74
1, 1703, Note_on_c, 1, 54, 0
1, 1703, Note_on_c, 1, 50, 0
1, 1704, Note_on_c, 0, 81, 91
1, 1704, Note_on_c, 1, 57, 74
1, 1704, Note_on_c, 1, 54, 74
1, 1727, Note_on_c, 1, 57, 0
1, 1727, Note_on_c, 1, 54, 0
1, 1728, Note_on_c, 0, 81, 0
1, 1728, Note_on_c, 0, 73, 91
1, 1728, Note_on_c, 0, 69, 70
1, 1728, Note_on_c, 0, 64, 70
1, 1728, Note_on_c, 1, 57, 75
1, 1752, Note_on_c, 0, 73, 0
1, 1752, Note_on_c, 0, 74, 77
1, 1760, Note_on_c, 0, 74, 0
1, 1760, Note_on_c, 0, 73, 78
1, 1768, Note_on_c, 0, 73, 0
1, 1768, Note_on_c, 0, 71, 78
1, 1773, Note_on_c, 0, 69, 0
1, 1773, Note_on_c, 0, 64, 0
1, 1776, Note_on_c, 0, 71, 0
1, 1776, Note_on_c, 0, 73, 79
1, 1786, Note_on_c, 0, 73, 0
1, 1800, Note_on_c, 0, 74, 79
1, 1817, Note_on_c, 1, 57, 0
1, 1823, Note_on_c, 0, 74, 0
1, 1824, Note_on_c, 0, 73, 78
1, 1824, Note_on_c, 0, 68, 78
1, 1824, Note_on_c, 0, 64, 78
1, 1824, Note_on_c, 1, 52, 75
1, 1869, Note_on_c, 0, 73, 0
1, 1869, Note_on_c, 0, 68, 0
1, 1869, Note_on_c, 0, 64, 0
1, 1869, Note_on_c, 1, 52, 0
1, 1920, Note_on_c, 0, 73, 75
1, 1920, Note_on_c, 0, 68, 70
1, 1920, Note_on_c, 0, 64, 70
1, 1920, Note_on_c, 0, 62, 70
1, 1920, Note_on_c, 0, 59, 70
1, 1920, Note_on_c, 1, 52, 75
1, 1944, Note_on_c, 0, 73, 0
1, 1944, Note_on_c, 0, 71, 75
1, 1965, Note_on_c, 0, 68, 0
1, 1965, Note_on_c, 0, 64, 0
1, 1965, Note_on_c, 0, 62, 0
1, 1965, Note_on_c, 0, 59, 0
1, 1965, Note_on_c, 1, 52, 0
1, 1967, Note_on_c, 0, 71, 0
1, 2016, Note_on_c, 1, 57, 64
1, 2031, Note_on_c, 1, 57, 0
1, 2032, Note_on_c, 1, 61, 64
1, 2047, Note_on_c, 1, 61, 0
1, 2048, Note_on_c, 1, 64, 64
1, 2063, Note_on_c, 1, 64, 0
1, 2064, Note_on_c, 1, 57, 64
1, 2079, Note_on_c, 1, 57, 0
1, 2080, Note_on_c, 1, 61, 64
1, 2088, Note_on_c, 0, 81, 75
1, 2095, Note_on_c, 1, 61, 0
1, 2096, Note_on_c, 1, 64, 64
1, 2111, Note_on_c, 0, 81, 0
1, 2111, Note_on_c, 1, 64, 0
1, 2112, Note_on_c, 0, 80, 75
1, 2112, Note_on_c, 1, 57, 64
1, 2127, Note_on_c, 1, 57, 0
1, 2128, Note_on_c, 1, 62, 64
1, 2135, Note_on_c, 0, 80, 0
1, 2136, Note_on_c, 0, 78, 75
1, 2143, Note_on_c, 1, 62, 0
1, 2144, Note_on_c, 1, 66, 64
1, 2159, Note_on_c, 0, 78, 0
1, 2159, Note_on_c, 1, 66, 0
1, 2160, Note_on_c, 0, 78, 75
1, 2160, Note_on_c, 1, 57, 64
1, 2175, Note_on_c, 1, 57, 0
1, 2176, Note_on_c, 1, 62, 64
1, 2191, Note_on_c, 1, 62, 0
1, 2192, Note_on_c, 1, 66, 64
1, 2207, Note_on_c, 1, 66, 0
1, 2208, Note_on_c, 1, 57, 64
1, 2220, Note_on_c, 0, 78, 0
1, 2220, Note_on_c, 0, 81, 76
1, 2223, Note_on_c, 1, 57, 0
1, 2224, Note_on_c, 1, 62, 64
1, 2232, Note_on_c, 0, 81, 0
1, 2232, Note_on_c, 0, 80, 77
1, 2239, Note_on_c, 1, 62, 0
1, 2240, Note_on_c, 1, 66, 64
1, 2244, Note_on_c, 0, 80, 0
1, 2244, Note_on_c, 0, 81, 78
1, 2255, Note_on_c, 1, 66, 0
1, 2256, Note_on_c, 0, 81, 0
1, 2256, Note_on_c, 0, 83, 80
1, 2256, Note_on_c, 1, 57, 64
1, 2268, Note_on_c, 0, 83, 0
1, 2268, Note_on_c, 0, 81, 78
1, 2271, Note_on_c, 1, 57, 0
1, 2272, Note_on_c, 1, 62, 64
1, 2280, Note_on_c, 0, 81, 0
1, 2280, Note_on_c, 0, 80, 77
1, 2287, Note_on_c, 1, 62, 0
1, 2288, Note_on_c, 1, 66, 64
1, 2292, Note_on_c, 0, 80, 0
1, 2292, Note_on_c, 0, 78, 76
1, 2303, Note_on_c, 1, 66, 0
1, 2304, Note_on_c, 0, 78, 0
1, 2304, Note_on_c, 0, 78, 75
1, 2304, Note_on_c, 1, 57, 64
1, 2310, Note_on_c, 0, 78, 0
1, 2310, Note_on_c, 0, 76, 75
1, 2319, Note_on_c, 1, 57, 0
1, 2320, Note_on_c, 1, 61, 64
1, 2327, Note_on_c, 0, 76, 0
1, 2328, Note_on_c, 0, 73, 75
1, 2335, Note_on_c, 1, 61, 0
1, 2336, Note_on_c, 1, 64, 64
1, 2351, Note_on_c, 0, 73, 0
1, 2351, Note_on_c, 1, 64, 0
1, 2352, Note_on_c, 0, 88, 91
1, 2352, Note_on_c, 1, 57, 64
1, 2367, Note_on_c, 1, 57, 0
1, 2368, Note_on_c, 1, 61, 64
1, 2383, Note_on_c, 1, 61, 0
1, 2384, Note_on_c, 1, 64, 64
1, 2399, Note_on_c, 1, 64, 0
1, 2400, Note_on_c, 0, 88, 0
1, 2400, Note_on_c, 0, 50, 91
1, 2400, Note_on_c, 0, 47, 91
1, 2400, Note_on_c, 1, 59, 64
1, 2415, Note_on_c, 1, 59, 0
1, 2416, Note_on_c, 1, 62, 64
1, 2431, Note_on_c, 1, 62, 0
1, 2432, Note_on_c, 1, 64, 64
1, 2447, Note_on_c, 1, 64, 0
1, 2448, Note_on_c, 1, 59, 64
1, 2463, Note_on_c, 1, 59, 0
1, 2464, Note_on_c, 1, 62, 64
1, 2479, Note_on_c, 1, 62, 0
1, 2480, Note_on_c, 1, 64, 64
1, 2495, Note_on_c, 1, 64, 0
1, 2496, Note_on_c, 1, 59, 64
1, 2508, Note_on_c, 0, 50, 0
1, 2508, Note_on_c, 0, 47, 0
1, 2508, Note_on_c, 0, 50, 76
1, 2511, Note_on_c, 1, 59, 0
1, 2512, Note_on_c, 1, 62, 64
1, 2520, Note_on_c, 0, 50, 0
1, 2520, Note_on_c, 0, 49, 77
1, 2527, Note_on_c, 1, 62, 0
1, 2528, Note_on_c, 1, 64, 64
1, 2532, Note_on_c, 0, 49, 0
1, 2532, Note_on_c, 0, 50, 78
1, 2543, Note_on_c, 1, 64, 0
1, 2544, Note_on_c, 0, 50, 0
1, 2544, Note_on_c, 0, 52, 80
1, 2544, Note_on_c, 1, 59, 64
1, 2556, Note_on_c, 0, 52, 0
1, 2556, Note_on_c, 0, 50, 78
1, 2559, Note_on_c, 1, 59, 0
1, 2560, Note_on_c, 1, 62, 64
1, 2568, Note_on_c, 0, 50, 0
1, 2568, Note_on_c, 0, 49, 77
1, 2575, Note_on_c, 1, 62, 0
1, 2576, Note_on_c, 1, 64, 64
1, 2580, Note_on_c, 0, 49, 0
1, 2580, Note_on_c, 0, 47, 76
1, 2591, Note_on_c, 1, 64, 0
1, 2592, Note_on_c, 0, 47, 0
1, 2592, Note_on_c, 0, 49, 75
1, 2592, Note_on_c, 0, 45, 75
1, 2592, Note_on_c, 1, 57, 64
1, 2607, Note_on_c, 1, 57, 0
1, 2608, Note_on_c, 1, 61, 64
1, 2623, Note_on_c, 1, 61, 0
1, 2624, Note_on_c, 1, 64, 64
1, 2639, Note_on_c, 1, 64, 0
1, 2640, Note_on_c, 1, 57, 64
1, 2655, Note_on_c, 1, 57, 0
1, 2656, Note_on_c, 1, 61, 64
1, 2659, Note_on_c, 0, 49, 0
1, 2659, Note_on_c, 0, 45, 0
1, 2664, Note_on_c, 0, 50, 75
1, 2664, Note_on_c, 0, 47, 75
1, 2671, Note_on_c, 1, 61, 0
1, 2672, Note_on_c, 1, 64, 64
1, 2687, Note_on_c, 0, 50, 0
1, 2687, Note_on_c, 0, 47, 0
1, 2687, Note_on_c, 1, 64, 0
1, 2688, Note_on_c, 0, 52, 75
1, 2688, Note_on_c, 0, 49, 75
1, 2688, Note_on_c, 1, 57, 64
1, 2703, Note_on_c, 1, 57, 0
1, 2704, Note_on_c, 1, 61, 64
1, 2719, Note_on_c, 1, 61, 0
1, 2720, Note_on_c, 1, 64, 64
1, 2733, Note_on_c, 0, 52, 0
1, 2733, Note_on_c, 0, 49, 0
1, 2735, Note_on_c, 1, 64, 0
1, 2736, Note_on_c, 0, 69, 64
1, 2751, Note_on_c, 0, 69, 0
1, 2752, Note_on_c, 0, 73, 64
1, 2767, Note_on_c, 0, 73, 0
1, 2768, Note_on_c, 0, 76, 64
1, 2783, Note_on_c, 0, 76, 0
1, 2784, Note_on_c, 0, 78, 64
1, 2851, Note_on_c, 0, 78, 0
1, 2856, Note_on_c, 0, 82, 64
1, 2868, Note_on_c, 0, 82, 0
1, 2868, Note_on_c, 0, 83, 64
1, 2880, Note_on_c, 0, 83, 0
1, 2880, Note_on_c, 0, 86, 80
1, 2904, Note_on_c, 0, 86, 0
1, 2904, Note_on_c, 0, 85, 64
1, 2949, Note_on_c, 0, 85, 0
1, 2952, Note_on_c, 0, 83, 64
1, 2975, Note_on_c, 0, 83, 0
1, 2976, Note_on_c, 0, 81, 64
1, 2976, Note_on_c, 1, 76, 64
1, 2976, Note_on_c, 1, 73, 64
1, 3043, Note_on_c, 0, 81, 0
1, 3048, Note_on_c, 0, 80, 64
1, 3060, Note_on_c, 0, 80, 0
1, 3060, Note_on_c, 0, 81, 64
1, 3072, Note_on_c, 0, 81, 0
1, 3072, Note_on_c, 0, 80, 64
1, 3084, Note_on_c, 0, 80, 0
1, 3084, Note_on_c, 0, 81, 64
1, 3096, Note_on_c, 0, 81, 0
1, 3096, Note_on_c, 0, 83, 64
1, 3108, Note_on_c, 0, 83, 0
1, 3108, Note_on_c, 0, 81, 64
1, 3120, Note_on_c, 0, 81, 0
1, 3120, Note_on_c, 0, 80, 64
1, 3120, Note_on_c, 1, 73, 0
1, 3120, Note_on_c, 1, 71, 64
1, 3235, Note_on_c, 0, 80, 0
1, 3235, Note_on_c, 1, 76, 0
1, 3235, Note_on_c, 1, 71, 0
1, 3360, Note_on_c, 0, 81, 64
1, 3360, Note_on_c, 1, 74, 64
1, 3360, Note_on_c, 1, 71, 64
1, 3366, Note_on_c, 0, 81, 0
1, 3366, Note_on_c, 0, 79, 64
1, 3394, Note_on_c, 0, 79, 0
1, 3396, Note_on_c, 0, 78, 64
1, 3405, Note_on_c, 1, 74, 0
1, 3405, Note_on_c, 1, 71, 0
1, 3408, Note_on_c, 0, 78, 0
1, 3408, Note_on_c, 0, 81, 64
1, 3408, Note_on_c, 1, 74, 64
1, 3408, Note_on_c, 1, 71, 64
1, 3414, Note_on_c, 0, 81, 0
1, 3414, Note_on_c, 0, 79, 64
1, 3442, Note_on_c, 0, 79, 0
1, 3444, Note_on_c, 0, 78, 64
1, 3453, Note_on_c, 1, 74, 0
1, 3453, Note_on_c, 1, 71, 0
1, 3456, Note_on_c, 0, 78, 0
1, 3456, Note_on_c, 0, 81, 64
1, 3456, Note_on_c, 1, 74, 64
1, 3456, Note_on_c, 1, 71, 64
1, 3462, Note_on_c, 0, 81, 0
1, 3462, Note_on_c, 0, 79, 64
1, 3471, Note_on_c, 0, 79, 0
1, 3472, Note_on_c, 0, 78, 64
1, 3487, Note_on_c, 0, 78, 0
1, 3488, Note_on_c, 0, 79, 64
1, 3501, Note_on_c, 1, 74, 0
1, 3501, Note_on_c, 1, 71, 0
1, 3503, Note_on_c, 0, 79, 0
1, 3504, Note_on_c, 0, 83, 64
1, 3504, Note_on_c, 1, 74, 64
1, 3504, Note_on_c, 1, 71, 64
1, 3519, Note_on_c, 0, 83, 0
1, 3520, Note_on_c, 0, 81, 64
1, 3535, Note_on_c, 0, 81, 0
1, 3536, Note_on_c, 0, 79, 64
1, 3549, Note_on_c, 1, 74, 0
1, 3549, Note_on_c, 1, 71, 0
1, 3551, Note_on_c, 0, 79, 0
1, 3552, Note_on_c, 0, 79, 80
1, 3552, Note_on_c, 1, 73, 64
1, 3552, Note_on_c, 1, 71, 64
1, 3576, Note_on_c, 0, 79, 0
1, 3576, Note_on_c, 0, 77, 64
1, 3597, Note_on_c, 1, 73, 0
1, 3597, Note_on_c, 1, 71, 0
1, 3600, Note_on_c, 1, 73, 64
1, 3600, Note_on_c, 1, 70, 64
1, 3621, Note_on_c, 0, 77, 0
1, 3624, Note_on_c, 0, 78, 64
1, 3645, Note_on_c, 1, 73, 0
1, 3645, Note_on_c, 1, 70, 0
1, 3647, Note_on_c, 0, 78, 0
1, 3648, Note_on_c, 0, 79, 64
1, 3648, Note_on_c, 1, 72, 64
1, 3648, Note_on_c, 1, 69, 64
1, 3654, Note_on_c, 0, 79, 0
1, 3654, Note_on_c, 0, 77, 64
1, 3682, Note_on_c, 0, 77, 0
1, 3684, Note_on_c, 0, 76, 64
1, 3693, Note_on_c, 1, 72, 0
1, 3693, Note_on_c, 1, 69, 0
1, 3696, Note_on_c, 0, 76, 0
1, 3696, Note_on_c, 0, 79, 64
1, 3696, Note_on_c, 1, 72, 64
1, 3696, Note_on_c, 1, 69, 64
1, 3702, Note_on_c, 0, 79, 0
1, 3702, Note_on_c, 0, 77, 64
1, 3730, Note_on_c, 0, 77, 0
1, 3732, Note_on_c, 0, 76, 64
1, 3741, Note_on_c, 1, 72, 0
1, 3741, Note_on_c, 1, 69, 0
1, 3744, Note_on_c, 0, 76, 0
1, 3744, Note_on_c, 0, 79, 64
1, 3744, Note_on_c, 1, 72, 64
1, 3744, Note_on_c, 1, 69, 64
1, 3750, Note_on_c, 0, 79, 0
1, 3750, Note_on_c, 0, 77, 64
1, 3759, Note_on_c, 0, 77, 0
1, 3760, Note_on_c, 0, 76, 64
1, 3775, Note_on_c, 0, 76, 0
1, 3776, Note_on_c, 0, 77, 64
1, 3789, Note_on_c, 1, 72, 0
1, 3789, Note_on_c, 1, 69, 0
1, 3791, Note_on_c, 0, 77, 0
1, 3792, Note_on_c, 0, 81, 64
1, 3792, Note_on_c, 1, 72, 64
1, 3792, Note_on_c, 1, 69, 64
1, 3807, Note_on_c, 0, 81, 0
1, 3808, Note_on_c, 0, 79, 64
1, 3823, Note_on_c, 0, 79, 0
1, 3824, Note_on_c, 0, 77, 64
1, 3837, Note_on_c, 1, 72, 0
1, 3837, Note_on_c, 1, 69, 0
1, 3839, Note_on_c, 0, 77, 0
1, 3840, Note_on_c, 0, 77, 80
1, 3840, Note_on_c, 1, 71, 64
1, 3840, Note_on_c, 1, 69, 64
1, 3864, Note_on_c, 0, 77, 0
1, 3864, Note_on_c, 0, 75, 64
1, 3885, Note_on_c, 1, 71, 0
1, 3885, Note_on_c, 1, 69, 0
1, 3888, Note_on_c, 1, 71, 64
1, 3888, Note_on_c, 1, 68, 64
1, 3909, Note_on_c, 0, 75, 0
1, 3912, Note_on_c, 0, 76, 64
1, 3933, Note_on_c, 1, 71, 0
1, 3933, Note_on_c, 1, 68, 0
1, 3936, Note_on_c, 1, 69, 64
1, 3936, Note_on_c, 1, 67, 64
1, 3959, Note_on_c, 0, 76, 0
1, 3960, Note_on_c, 0, 73, 63
1, 3981, Note_on_c, 1, 69, 0
1, 3981, Note_on_c, 1, 67, 0
1, 3984, Note_on_c, 1, 69, 63
1, 3984, Note_on_c, 1, 66, 63
1, 4005, Note_on_c, 0, 73, 0
1, 4008, Note_on_c, 0, 74, 62
1, 4029, Note_on_c, 1, 69, 0
1, 4029, Note_on_c, 1, 66, 0
1, 4032, Note_on_c, 1, 67, 62
1, 4032, Note_on_c, 1, 65, 62
1, 4055, Note_on_c, 0, 74, 0
1, 4056, Note_on_c, 0, 71, 61
1, 4077, Note_on_c, 1, 67, 0
1, 4077, Note_on_c, 1, 65, 0
1, 4080, Note_on_c, 1, 67, 61
1, 4080, Note_on_c, 1, 64, 61
1, 4101, Note_on_c, 0, 71, 0
1, 4104, Note_on_c, 0, 72, 60
1, 4125, Note_on_c, 1, 67, 0
1, 4125, Note_on_c, 1, 64, 0
1, 4128, Note_on_c, 1, 66, 60
1, 4128, Note_on_c, 1, 64, 60
1, 4151, Note_on_c, 0, 72, 0
1, 4152, Note_on_c, 0, 70, 59
1, 4173, Note_on_c, 1, 66, 0
1, 4173, Note_on_c, 1, 64, 0
1, 4176, Note_on_c, 1, 66, 59
1, 4176, Note_on_c, 1, 63, 59
1, 4197, Note_on_c, 0, 70, 0
1, 4200, Note_on_c, 0, 71, 58
1, 4221, Note_on_c, 1, 66, 0
1, 4221, Note_on_c, 1, 63, 0
1, 4223, Note_on_c, 0, 71, 0
1, 4248, Note_on_c, 0, 75, 64
1, 4248, Note_on_c, 0, 69, 64
1, 4248, Note_on_c, 1, 65, 64
1, 4272, Note_on_c, 0, 75, 0
1, 4272, Note_on_c, 0, 69, 0
1, 4272, Note_on_c, 0, 76, 66
1, 4272, Note_on_c, 0, 68, 66
1, 4272, Note_on_c, 1, 65, 0
1, 4272, Note_on_c, 1, 64, 66
1, 4295, Note_on_c, 0, 76, 0
1, 4295, Note_on_c, 0, 68, 0
1, 4295, Note_on_c, 1, 64, 0
1, 4296, Note_on_c, 0, 63, 69
1, 4296, Note_on_c, 0, 57, 69
1, 4296, Note_on_c, 1, 53, 69
1, 4320, Note_on_c, 0, 63, 0
1, 4320, Note_on_c, 0, 57, 0
1, 4320, Note_on_c, 0, 64, 72
1, 4320, Note_on_c, 0, 56, 72
1, 4320, Note_on_c, 1, 53, 0
1, 4320, Note_on_c, 1, 52, 72
1, 4343, Note_on_c, 0, 64, 0
1, 4343, Note_on_c, 0, 56, 0
1, 4343, Note_on_c, 1, 52, 0
1, 4344, Tempo, 3000000
1, 4356, Tempo, 1500000
1, 4356, Note_on_c, 0, 57, 75
1, 4356, Note_on_c, 1, 53, 75
1, 4356, Note_on_c, 1, 41, 75
1, 4380, Note_on_c, 0, 57, 0
1, 4380, Note_on_c, 0, 60, 75
1, 4392, Note_on_c, 0, 60, 0
1, 4392, Note_on_c, 0, 59, 75
1, 4404, Note_on_c, 0, 59, 0
1, 4404, Note_on_c, 0, 57, 75
1, 4416, Note_on_c, 0, 57, 0
1, 4416, Note_on_c, 0, 56, 75
1, 4416, Note_on_c, 1, 53, 0
1, 4416, Note_on_c, 1, 41, 0
1, 4416, Note_on_c, 1, 52, 75
1, 4416, Note_on_c, 1, 40, 75
1, 4464, Tempo, 3000000
1, 4464, Note_on_c, 0, 56, 0
1, 4464, Note_on_c, 0, 64, 75
1, 4509, Note_on_c, 0, 64, 0
1, 4509, Note_on_c, 1, 52, 0
1, 4509, Note_on_c, 1, 40, 0
1, 4512, Tempo, 1333333
1, 4608, Note_on_c, 0, 76, 64
1, 4608, Note_on_c, 0, 73, 64
1, 4608, Note_on_c, 1, 57, 64
1, 4632, Note_on_c, 1, 64, 64
1, 4655, Note_on_c, 0, 76, 0
1, 4655, Note_on_c, 0, 73, 0
1, 4656, Note_on_c, 0, 76, 64
1, 4656, Note_on_c, 0, 73, 64
1, 4679, Note_on_c, 0, 76, 0
1, 4679, Note_on_c, 0, 73, 0
1, 4680, Note_on_c, 0, 76, 64
1, 4680, Note_on_c, 0, 73, 64
1, 4697, Note_on_c, 1, 57, 0
1, 4699, Note_on_c, 1, 64, 0
1, 4703, Note_on_c, 0, 76, 0
1, 4703, Note_on_c, 0, 73, 0
1, 4704, Note_on_c, 0, 81, 64
1, 4704, Note_on_c, 0, 73, 64
1, 4728, Note_on_c, 1, 64, 64
1, 4749, Note_on_c, 0, 81, 0
1, 4749, Note_on_c, 0, 73, 0
1, 4752, Note_on_c, 0, 76, 64
1, 4752, Note_on_c, 0, 73, 64
1, 4775, Note_on_c, 0, 76, 0
1, 4775, Note_on_c, 0, 73, 0
1, 4776, Note_on_c, 0, 76, 64
1, 4776, Note_on_c, 0, 73, 64
1, 4795, Note_on_c, 1, 64, 0
1, 4799, Note_on_c, 0, 76, 0
1, 4799, Note_on_c, 0, 73, 0
1, 4800, Note_on_c, 0, 76, 64
1, 4800, Note_on_c, 0, 73, 64
1, 4824, Note_on_c, 1, 64, 64
1, 4845, Note_on_c, 0, 76, 0
1, 4845, Note_on_c, 0, 73, 0
1, 4848, Note_on_c, 0, 76, 64
1, 4848, Note_on_c, 0, 73, 64
1, 4871, Note_on_c, 0, 76, 0
1, 4871, Note_on_c, 0, 73, 0
1, 4872, Note_on_c, 0, 76, 64
1, 4872, Note_on_c, 0, 73, 64
1, 4891, Note_on_c, 1, 64, 0
1, 4895, Note_on_c, 0, 76, 0
1, 4895, Note_on_c, 0, 73, 0
1, 4896, Note_on_c, 0, 74, 64
1, 4896, Note_on_c, 0, 71, 64
1, 4896, Note_on_c, 1, 57, 64
1, 4920, Note_on_c, 1, 64, 64
1, 4941, Note_on_c, 0, 74, 0
1, 4941, Note_on_c, 0, 71, 0
1, 4944, Note_on_c, 0, 74, 64
1, 4944, Note_on_c, 0, 71, 64
1, 4967, Note_on_c, 0, 74, 0
1, 4967, Note_on_c, 0, 71, 0
1, 4968, Note_on_c, 0, 74, 64
1, 4968, Note_on_c, 0, 71, 64
1, 4985, Note_on_c, 1, 57, 0
1, 4987, Note_on_c, 1, 64, 0
1, 4991, Note_on_c, 0, 74, 0
1, 4991, Note_on_c, 0, 71, 0
1, 4992, Note_on_c, 0, 81, 64
1, 4992, Note_on_c, 0, 71, 64
1, 5016, Note_on_c, 1, 64, 64
1, 5037, Note_on_c, 0, 81, 0
1, 5037, Note_on_c, 0, 71, 0
1, 5040, Note_on_c, 0, 81, 64
1, 5040, Note_on_c, 0, 71, 64
1, 5063, Note_on_c, 0, 81, 0
1, 5063, Note_on_c, 0, 71, 0
1, 5064, Note_on_c, 0, 81, 64
1, 5064, Note_on_c, 0, 71, 64
1, 5083, Note_on_c, 1, 64, 0
1, 5087, Note_on_c, 0, 81, 0
1, 5087, Note_on_c, 0, 71, 0
1, 5088, Note_on_c, 0, 80, 64
1, 5088, Note_on_c, 0, 71, 64
1, 5112, Note_on_c, 1, 64, 64
1, 5133, Note_on_c, 0, 80, 0
1, 5133, Note_on_c, 0, 71, 0
1, 5136, Note_on_c, 0, 80, 64
1, 5136, Note_on_c, 0, 71, 64
1, 5159, Note_on_c, 0, 80, 0
1, 5159, Note_on_c, 0, 71, 0
1, 5160, Note_on_c, 0, 80, 64
1, 5160, Note_on_c, 0, 71, 64
1, 5179, Note_on_c, 1, 64, 0
1, 5183, Note_on_c, 0, 80, 0
1, 5183, Note_on_c, 0, 71, 0
1, 5184, Note_on_c, 0, 81, 75
1, 5184, Note_on_c, 0, 76, 75
1, 5184, Note_on_c, 0, 73, 75
1, 5184, Note_on_c, 1, 61, 64
1, 5184, Note_on_c, 1, 57, 64
1, 5207, Note_on_c, 1, 61, 0
1, 5207, Note_on_c, 1, 57, 0
1, 5208, Note_on_c, 1, 52, 64
1, 5231, Note_on_c, 1, 52, 0
1, 5232, Note_on_c, 1, 61, 65
1, 5232, Note_on_c, 1, 57, 65
1, 5255, Note_on_c, 1, 61, 0
1, 5255, Note_on_c, 1, 57, 0
1, 5256, Note_on_c, 1, 61, 66
1, 5256, Note_on_c, 1, 57, 66
1, 5273, Note_on_c, 0, 81, 0
1, 5273, Note_on_c, 0, 76, 0
1, 5273, Note_on_c, 0, 73, 0
1, 5279, Note_on_c, 1, 61, 0
1, 5279, Note_on_c, 1, 57, 0
1, 5280, Note_on_c, 0, 80, 76
1, 5280, Note_on_c, 0, 76, 76
1, 5280, Note_on_c, 0, 71, 76
1, 5280, Note_on_c, 1, 62, 66
1, 5280, Note_on_c, 1, 59, 66
1, 5303, Note_on_c, 1, 62, 0
1, 5303, Note_on_c, 1, 59, 0
1, 5304, Note_on_c, 1, 52, 67
1, 5327, Note_on_c, 1, 52, 0
1, 5328, Note_on_c, 1, 62, 68
1, 5328, Note_on_c, 1, 59, 68
1, 5351, Note_on_c, 1, 62, 0
1, 5351, Note_on_c, 1, 59, 0
1, 5352, Note_on_c, 1, 62, 68
1, 5352, Note_on_c, 1, 59, 68
1, 5369, Note_on_c, 0, 80, 0
1, 5369, Note_on_c, 0, 76, 0
1, 5369, Note_on_c, 0, 71, 0
1, 5375, Note_on_c, 1, 62, 0
1, 5375, Note_on_c, 1, 59, 0
1, 5376, Note_on_c, 0, 81, 78
1, 5376, Note_on_c, 0, 76, 78
1, 5376, Note_on_c, 0, 73, 78
1, 5376, Note_on_c, 1, 61, 69
1, 5376, Note_on_c, 1, 57, 69
1, 5399, Note_on_c, 1, 61, 0
1, 5399, Note_on_c, 1, 57, 0
1, 5400, Note_on_c, 1, 52, 70
1, 5423, Note_on_c, 1, 52, 0
1, 5424, Note_on_c, 1, 61, 70
1, 5424, Note_on_c, 1, 57, 70
1, 5443, Note_on_c, 0, 81, 0
1, 5443, Note_on_c, 0, 76, 0
1, 5443, Note_on_c, 0, 73, 0
1, 5447, Note_on_c, 1, 61, 0
1, 5447, Note_on_c, 1, 57, 0
1, 5448, Note_on_c, 0, 76, 80
1, 5448, Note_on_c, 0, 73, 80
1, 5448, Note_on_c, 1, 49, 86
1, 5471, Note_on_c, 0, 76, 0
1, 5471, Note_on_c, 0, 73, 0
1, 5472, Note_on_c, 0, 76, 80
1, 5472, Note_on_c, 0, 73, 80
1, 5472, Note_on_c, 1, 49, 0
1, 5472, Note_on_c, 1, 50, 70
1, 5517, Note_on_c, 0, 76, 0
1, 5517, Note_on_c, 0, 73, 0
1, 5520, Note_on_c, 0, 74, 79
1, 5520, Note_on_c, 0, 71, 79
1, 5544, Note_on_c, 1, 50, 0
1, 5544, Note_on_c, 1, 51, 68
1, 5565, Note_on_c, 0, 74, 0
1, 5565, Note_on_c, 0, 71, 0
1, 5567, Note_on_c, 1, 51, 0
1, 5568, Note_on_c, 0, 73, 78
1, 5568, Note_on_c, 0, 69, 73
1, 5568, Note_on_c, 1, 52, 67
1, 5591, Note_on_c, 0, 73, 0
1, 5592, Note_on_c, 0, 75, 77
1, 5615, Note_on_c, 0, 75, 0
1, 5616, Note_on_c, 0, 76, 77
1, 5639, Note_on_c, 0, 76, 0
1, 5640, Note_on_c, 0, 75, 76
1, 5663, Note_on_c, 0, 75, 0
1, 5664, Note_on_c, 0, 76, 76
1, 5664, Note_on_c, 0, 69, 0
1, 5664, Note_on_c, 0, 68, 71
1, 5687, Note_on_c, 1, 52, 0
1, 5688, Note_on_c, 1, 54, 64
1, 5688, Note_on_c, 1, 50, 64
1, 5709, Note_on_c, 0, 76, 0
1, 5709, Note_on_c, 0, 68, 0
1, 5711, Note_on_c, 1, 54, 0
1, 5711, Note_on_c, 1, 50, 0
1, 5712, Note_on_c, 1, 52, 64
1, 5712, Note_on_c, 1, 49, 64
1, 5735, Note_on_c, 1, 52, 0
1, 5735, Note_on_c, 1, 49, 0
1, 5736, Note_on_c, 1, 50, 65
1, 5736, Note_on_c, 1, 47, 65
1, 5759, Note_on_c, 1, 50, 0
1, 5759, Note_on_c, 1, 47, 0
1, 5760, Note_on_c, 0, 88, 70
1, 5760, Note_on_c, 0, 85, 70
1, 5760, Note_on_c, 1, 49, 66
1, 5760, Note_on_c, 1, 45, 66
1, 5783, Note_on_c, 0, 88, 0
1, 5783, Note_on_c, 0, 85, 0
1, 5784, Note_on_c, 0, 86, 70
1, 5784, Note_on_c, 0, 83, 70
1, 5807, Note_on_c, 0, 86, 0
1, 5807, Note_on_c, 0, 83, 0
1, 5808, Note_on_c, 0, 85, 70
1, 5808, Note_on_c, 0, 81, 70
1, 5831, Note_on_c, 0, 85, 0
1, 5831, Note_on_c, 0, 81, 0
1, 5832, Note_on_c, 0, 83, 70
1, 5832, Note_on_c, 0, 80, 70
1, 5849, Note_on_c, 1, 49, 0
1, 5849, Note_on_c, 1, 45, 0
1, 5855, Note_on_c, 0, 83, 0
1, 5855, Note_on_c, 0, 80, 0
1, 5856, Note_on_c, 0, 81, 70
1, 5856, Note_on_c, 0, 78, 70
1, 5879, Note_on_c, 0, 81, 0
1, 5879, Note_on_c, 0, 78, 0
1, 5880, Note_on_c, 0, 80, 70
1, 5880, Note_on_c, 0, 76, 70
1, 5903, Note_on_c, 0, 80, 0
1, 5903, Note_on_c, 0, 76, 0
1, 5904, Note_on_c, 0, 78, 70
1, 5904, Note_on_c, 0, 74, 70
1, 5927, Note_on_c, 0, 78, 0
1, 5927, Note_on_c, 0, 74, 0
1, 5928, Note_on_c, 0, 76, 70
1, 5928, Note_on_c, 0, 73, 70
1, 5951, Note_on_c, 0, 76, 0
1, 5951, Note_on_c, 0, 73, 0
1, 5952, Note_on_c, 0, 74, 70
1, 5952, Note_on_c, 0, 71, 70
1, 5975, Note_on_c, 0, 74, 0
1, 5975, Note_on_c, 0, 71, 0
1, 5976, Note_on_c, 0, 73, 70
1, 5976, Note_on_c, 0, 69, 70
1, 5999, Note_on_c, 0, 73, 0
1, 5999, Note_on_c, 0, 69, 0
1, 6000, Note_on_c, 0, 71, 70
1, 6000, Note_on_c, 0, 68, 70
1, 6023, Note_on_c, 0, 71, 0
1, 6023, Note_on_c, 0, 68, 0
1, 6024, Note_on_c, 0, 69, 70
1, 6024, Note_on_c, 0, 66, 70
1, 6047, Note_on_c, 0, 69, 0
1, 6047, Note_on_c, 0, 66, 0
1, 6048, Note_on_c, 0, 68, 70
1, 6048, Note_on_c, 0, 64, 70
1, 6048, Note_on_c, 1, 44, 70
1, 6048, Note_on_c, 1, 40, 70
1, 6071, Note_on_c, 1, 44, 0
1, 6071, Note_on_c, 1, 40, 0
1, 6072, Note_on_c, 1, 45, 70
1, 6072, Note_on_c, 1, 42, 70
1, 6095, Note_on_c, 1, 45, 0
1, 6095, Note_on_c, 1, 42, 0
1, 6096, Note_on_c, 1, 47, 70
1, 6096, Note_on_c, 1, 44, 70
1, 6119, Note_on_c, 1, 47, 0
1, 6119, Note_on_c, 1, 44, 0
1, 6120, Note_on_c, 1, 49, 71
1, 6120, Note_on_c, 1, 45, 71
1, 6137, Note_on_c, 0, 68, 0
1, 6137, Note_on_c, 0, 64, 0
1, 6143, Note_on_c, 1, 49, 0
1, 6143, Note_on_c, 1, 45, 0
1, 6144, Note_on_c, 1, 50, 71
1, 6144, Note_on_c, 1, 47, 71
1, 6167, Note_on_c, 1, 50, 0
1, 6167, Note_on_c, 1, 47, 0
1, 6168, Note_on_c, 1, 52, 72
1, 6168, Note_on_c, 1, 49, 72
1, 6191, Note_on_c, 1, 52, 0
1, 6191, Note_on_c, 1, 49, 0
1, 6192, Note_on_c, 1, 54, 72
1, 6192, Note_on_c, 1, 50, 72
1, 6215, Note_on_c, 1, 54, 0
1, 6215, Note_on_c, 1, 50, 0
1, 6216, Note_on_c, 1, 56, 72
1, 6216, Note_on_c, 1, 52, 72
1, 6239, Note_on_c, 1, 56, 0
1, 6239, Note_on_c, 1, 52, 0
1, 6240, Note_on_c, 1, 57, 73
1, 6240, Note_on_c, 1, 54, 73
1, 6263, Note_on_c, 1, 57, 0
1, 6263, Note_on_c, 1, 54, 0
1, 6264, Note_on_c, 1, 52, 73
1, 6264, Note_on_c, 1, 49, 73
1, 6287, Note_on_c, 1, 52, 0
1, 6287, Note_on_c, 1, 49, 0
1, 6288, Note_on_c, 1, 54, 74
1, 6288, Note_on_c, 1, 50, 74
1, 6311, Note_on_c, 1, 54, 0
1, 6311, Note_on_c, 1, 50, 0
1, 6312, Note_on_c, 0, 81, 91
1, 6312, Note_on_c, 1, 57, 74
1, 6312, Note_on_c, 1, 54, 74
1, 6335, Note_on_c, 1, 57, 0
1, 6335, Note_on_c, 1, 54, 0
1, 6336, Note_on_c, 0, 81, 0
1, 6336, Note_on_c, 0, 73, 91
1, 6336, Note_on_c, 0, 69, 70
1, 6336, Note_on_c, 0, 64, 70
1, 6336, Note_on_c, 1, 57, 75
1, 6360, Note_on_c, 0, 73, 0
1, 6360, Note_on_c, 0, 74, 77
1, 6368, Note_on_c, 0, 74, 0
1, 6368, Note_on_c, 0, 73, 78
1, 6376, Note_on_c, 0, 73, 0
1, 6376, Note_on_c, 0, 71, 78
1, 6381, Note_on_c, 0, 69, 0
1, 6381, Note_on_c, 0, 64, 0
1, 6384, Note_on_c, 0, 71, 0
1, 6384, Note_on_c, 0, 73, 79
1, 6394, Note_on_c, 0, 73, 0
1, 6408, Note_on_c, 0, 74, 79
1, 6425, Note_on_c, 1, 57, 0
1, 6431, Note_on_c, 0, 74, 0
1, 6432, Note_on_c, 0, 73, 78
1, 6432, Note_on_c, 0, 68, 78
1, 6432, Note_on_c, 0, 64, 78
1, 6432, Note_on_c, 1, 52, 75
1, 6477, Note_on_c, 0, 73, 0
1, 6477, Note_on_c, 0, 68, 0
1, 6477, Note_on_c, 0, 64, 0
1, 6477, Note_on_c, 1, 52, 0
1, 6528, Note_on_c, 0, 73, 75
1, 6528, Note_on_c, 0, 68, 70
1, 6528, Note_on_c, 0, 64, 70
1, 6528, Note_on_c, 0, 62, 70
1, 6528, Note_on_c, 0, 59, 70
1, 6528, Note_on_c, 1, 52, 75
1, 6552, Note_on_c, 0, 73, 0
1, 6552, Note_on_c, 0, 71, 75
1, 6573, Note_on_c, 0, 68, 0
1, 6573, Note_on_c, 0, 64, 0
1, 6573, Note_on_c, 0, 62, 0
1, 6573, Note_on_c, 0, 59, 0
1, 6573, Note_on_c, 1, 52, 0
1, 6575, Note_on_c, 0, 71, 0
1, 6624, Note_on_c, 1, 57, 64
1, 6639, Note_on_c, 1, 57, 0
1, 6640, Note_on_c, 1, 61, 64
1, 6655, Note_on_c, 1, 61, 0
1, 6656, Note_on_c, 1, 64, 64
1, 6671, Note_on_c, 1, 64, 0
1, 6672, Note_on_c, 1, 57, 64
1, 6687, Note_on_c, 1, 57, 0
1, 6688, Note_on_c, 1, 61, 64
1, 6696, Note_on_c, 0, 81, 75
1, 6703, Note_on_c, 1, 61, 0
1, 6704, Note_on_c, 1, 64, 64
1, 6719, Note_on_c, 0, 81, 0
1, 6719, Note_on_c, 1, 64, 0
1, 6720, Note_on_c, 0, 80, 75
1, 6720, Note_on_c, 1, 57, 64
1, 6735, Note_on_c, 1, 57, 0
1, 6736, Note_on_c, 1, 62, 64
1, 6743, Note_on_c, 0, 80, 0
1, 6744, Note_on_c, 0, 78, 75
1, 6751, Note_on_c, 1, 62, 0
1, 6752, Note_on_c, 1, 66, 64
1, 6767, Note_on_c, 0, 78, 0
1, 6767, Note_on_c, 1, 66, 0
1, 6768, Note_on_c, 0, 78, 75
1, 6768, Note_on_c, 1, 57, 64
1, 6783, Note_on_c, 1, 57, 0
1, 6784, Note_on_c, 1, 62, 64
1, 6799, Note_on_c, 1, 62, 0
1, 6800, Note_on_c, 1, 66, 64
1, 6815, Note_on_c, 1, 66, 0
1, 6816, Note_on_c, 1, 57, 64
1, 6828, Note_on_c, 0, 78, 0
1, 6828, Note_on_c, 0, 81, 76
1, 6831, Note_on_c, 1, 57, 0
1, 6832, Note_on_c, 1, 62, 64
1, 6840, Note_on_c, 0, 81, 0
1, 6840, Note_on_c, 0, 80, 77
1, 6847, Note_on_c, 1, 62, 0
1, 6848, Note_on_c, 1, 66, 64
1, 6852, Note_on_c, 0, 80, 0
1, 6852, Note_on_c, 0, 81, 78
1, 6863, Note_on_c, 1, 66, 0
1, 6864, Note_on_c, 0, 81, 0
1, 6864, Note_on_c, 0, 83, 80
1, 6864, Note_on_c, 1, 57, 64
1, 6876, Note_on_c, 0, 83, 0
1, 6876, Note_on_c, 0, 81, 78
1, 6879, Note_on_c, 1, 57, 0
1, 6880, Note_on_c, 1, 62, 64
1, 6888, Note_on_c, 0, 81, 0
1, 6888, Note_on_c, 0, 80, 77
1, 6895, Note_on_c, 1, 62, 0
1, 6896, Note_on_c, 1, 66, 64
1, 6900, Note_on_c, 0, 80, 0
1, 6900, Note_on_c, 0, 78, 76
1, 6911, Note_on_c, 1, 66, 0
1, 6912, Note_on_c, 0, 78, 0
1, 6912, Note_on_c, 0, 78, 75
1, 6912, Note_on_c, 1, 57, 64
1, 6918, Note_on_c, 0, 78, 0
1, 6918, Note_on_c, 0, 76, 75
1, 6927, Note_on_c, 1, 57, 0
1, 6928, Note_on_c, 1, 61, 64
1, 6935, Note_on_c, 0, 76, 0
1, 6936, Note_on_c, 0, 73, 75
1, 6943, Note_on_c, 1, 61, 0
1, 6944, Note_on_c, 1, 64, 64
1, 6959, Note_on_c, 0, 73, 0
1, 6959, Note_on_c, 1, 64, 0
1, 6960, Note_on_c, 0, 88, 91
1, 6960, Note_on_c, 1, 57, 64
1, 6975, Note_on_c, 1, 57, 0
1, 6976, Note_on_c, 1, 61, 64
1, 6991, Note_on_c, 1, 61, 0
1, 6992, Note_on_c, 1, 64, 64
1, 7007, Note_on_c, 1, 64, 0
1, 7008, Note_on_c, 0, 88, 0
1, 7008, Note_on_c, 0, 50, 91
1, 7008, Note_on_c, 0, 47, 91
1, 7008, Note_on_c, 1, 59, 64
1, 7023, Note_on_c, 1, 59, 0
1, 7024, Note_on_c, 1, 62, 64
1, 7039, Note_on_c, 1, 62, 0
1, 7040, Note_on_c, 1, 64, 64
1, 7055, Note_on_c, 1, 64, 0
1, 7056, Note_on_c, 1, 59, 64
1, 7071, Note_on_c, 1, 59, 0
1, 7072, Note_on_c, 1, 62, 64
1, 7087, Note_on_c, 1, 62, 0
1, 7088, Note_on_c, 1, 64, 64
1, 7103, Note_on_c, 1, 64, 0
1, 7104, Note_on_c, 1, 59, 64
1, 7116, Note_on_c, 0, 50, 0
1, 7116, Note_on_c, 0, 47, 0
1, 7116, Note_on_c, 0, 50, 76
1, 7119, Note_on_c, 1, 59, 0
1, 7120, Note_on_c, 1, 62, 64
1, 7128, Note_on_c, 0, 50, 0
1, 7128, Note_on_c, 0, 49, 77
1, 7135, Note_on_c, 1, 62, 0
1, 7136, Note_on_c, 1, 64, 64
1, 7140, Note_on_c, 0, 49, 0
1, 7140, Note_on_c, 0, 50, 78
1, 7151, Note_on_c, 1, 64, 0
1, 7152, Note_on_c, 0, 50, 0
1, 7152, Note_on_c, 0, 52, 80
1, 7152, Note_on_c, 1, 59, 64
1, 7164, Note_on_c, 0, 52, 0
1, 7164, Note_on_c, 0, 50, 78
1, 7167, Note_on_c, 1, 59, 0
1, 7168, Note_on_c, 1, 62, 64
1, 7176, Note_on_c, 0, 50, 0
1, 7176, Note_on_c, 0, 49, 77
1, 7183, Note_on_c, 1, 62, 0
1, 7184, Note_on_c, 1, 64, 64
1, 7188, Note_on_c, 0, 49, 0
1, 7188, Note_on_c, 0, 47, 76
1, 7199, Note_on_c, 1, 64, 0
1, 7200, Note_on_c, 0, 47, 0
1, 7200, Note_on_c, 0, 49, 75
1, 7200, Note_on_c, 0, 45, 75
1, 7200, Note_on_c, 1, 57, 64
1, 7215, Note_on_c, 1, 57, 0
1, 7216, Note_on_c, 1, 61, 64
1, 7231, Note_on_c, 1, 61, 0
1, 7232, Note_on_c, 1, 64, 64
1, 7247, Note_on_c, 1, 64, 0
1, 7248, Note_on_c, 1, 57, 64
1, 7263, Note_on_c, 1, 57, 0
1, 7264, Note_on_c, 1, 61, 64
1, 7267, Note_on_c, 0, 49, 0
1, 7267, Note_on_c, 0, 45, 0
1, 7272, Note_on_c, 0, 50, 75
1, 7272, Note_on_c, 0, 47, 75
1, 7279, Note_on_c, 1, 61, 0
1, 7280, Note_on_c, 1, 64, 64
1, 7295, Note_on_c, 0, 50, 0
1, 7295, Note_on_c, 0, 47, 0
1, 7295, Note_on_c, 1, 64, 0
1, 7296, Note_on_c, 0, 52, 75
1, 7296, Note_on_c, 0, 49, 75
1, 7296, Note_on_c, 1, 57, 64
1, 7311, Note_on_c, 1, 57, 0
1, 7312, Note_on_c, 1, 61, 64
1, 7327, Note_on_c, 1, 61, 0
1, 7328, Note_on_c, 1, 64, 64
1, 7341, Note_on_c, 0, 52, 0
1, 7341, Note_on_c, 0, 49, 0
1, 7343, Note_on_c, 1, 64, 0
1, 7344, Note_on_c, 0, 69, 64
1, 7359, Note_on_c, 0, 69, 0
1, 7360, Note_on_c, 0, 73, 64
1, 7375, Note_on_c, 0, 73, 0
1, 7376, Note_on_c, 0, 76, 64
1, 7391, Note_on_c, 0, 76, 0
1, 7392, Note_on_c, 0, 78, 64
1, 7459, Note_on_c, 0, 78, 0
1, 7464, Note_on_c, 0, 82, 64
1, 7476, Note_on_c, 0, 82, 0
1, 7476, Note_on_c, 0, 83, 64
1, 7488, Note_on_c, 0, 83, 0
1, 7488, Note_on_c, 0, 86, 80
1, 7512, Note_on_c, 0, 86, 0
1, 7512, Note_on_c, 0, 85, 64
1, 7557, Note_on_c, 0, 85, 0
1, 7560, Note_on_c, 0, 83, 64
1, 7583, Note_on_c, 0, 83, 0
1, 7584, Note_on_c, 0, 81, 64
1, 7584, Note_on_c, 1, 76, 64
1, 7584, Note_on_c, 1, 73, 64
1, 7651, Note_on_c, 0, 81, 0
1, 7656, Note_on_c, 0, 80, 64
1, 7668, Note_on_c, 0, 80, 0
1, 7668, Note_on_c, 0, 81, 64
1, 7680, Note_on_c, 0, 81, 0
1, 7680, Note_on_c, 0, 80, 64
1, 7692, Note_on_c, 0, 80, 0
1, 7692, Note_on_c, 0, 81, 64
1, 7704, Note_on_c, 0, 81, 0
1, 7704, Note_on_c, 0, 83, 64
1, 7716, Note_on_c, 0, 83, 0
1, 7716, Note_on_c, 0, 81, 64
1, 7728, Note_on_c, 0, 81, 0
1, 7728, Note_on_c, 0, 80, 64
1, 7728, Note_on_c, 1, 73, 0
1, 7728, Note_on_c, 1, 71, 64
1, 7843, Note_on_c, 0, 80, 0
1, 7843, Note_on_c, 1, 76, 0
1, 7843, Note_on_c, 1, 71, 0
1, 7968, Note_on_c, 0, 81, 64
1, 7968, Note_on_c, 1, 74, 64
1, 7968, Note_on_c, 1, 71, 64
1, 7974, Note_on_c, 0, 81, 0
1, 7974, Note_on_c, 0, 79, 64
1, 8002, Note_on_c, 0, 79, 0
1, 8004, Note_on_c, 0, 78, 64
1, 8013, Note_on_c, 1, 74, 0
1, 8013, Note_on_c, 1, 71, 0
1, 8016, Note_on_c, 0, 78, 0
1, 8016, Note_on_c, 0, 81, 64
1, 8016, Note_on_c, 1, 74, 64
1, 8016, Note_on_c, 1, 71, 64
1, 8022, Note_on_c, 0, 81, 0
1, 8022, Note_on_c, 0, 79, 64
1, 8050, Note_on_c, 0, 79, 0
1, 8052, Note_on_c, 0, 78, 64
1, 8061, Note_on_c, 1, 74, 0
1, 8061, Note_on_c, 1, 71, 0
1, 8064, Note_on_c, 0, 78, 0
1, 8064, Note_on_c, 0, 81, 64
1, 8064, Note_on_c, 1, 74, 64
1, 8064, Note_on_c, 1, 71, 64
1, 8070, Note_on_c, 0, 81, 0
1, 8070, Note_on_c, 0, 79, 64
1, 8079, Note_on_c, 0, 79, 0
1, 8080, Note_on_c, 0, 78, 64
1, 8095, Note_on_c, 0, 78, 0
1, 8096, Note_on_c, 0, 79, 64
1, 8109, Note_on_c, 1, 74, 0
1, 8109, Note_on_c, 1, 71, 0
1, 8111, Note_on_c, 0, 79, 0
1, 8112, Note_on_c, 0, 83, 64
1, 8112, Note_on_c, 1, 74, 64
1, 8112, Note_on_c, 1, 71, 64
1, 8127, Note_on_c, 0, 83, 0
1, 8128, Note_on_c, 0, 81, 64
1, 8143, Note_on_c, 0, 81, 0
1, 8144, Note_on_c, 0, 79, 64
1, 8157, Note_on_c, 1, 74, 0
1, 8157, Note_on_c, 1, 71, 0
1, 8159, Note_on_c, 0, 79, 0
1, 8160, Note_on_c, 0, 79, 80
1, 8160, Note_on_c, 1, 73, 64
1, 8160, Note_on_c, 1, 71, 64
1, 8184, Note_on_c, 0, 79, 0
1, 8184, Note_on_c, 0, 77, 64
1, 8205, Note_on_c, 1, 73, 0
1, 8205, Note_on_c, 1, 71, 0
1, 8208, Note_on_c, 1, 73, 64
1, 8208, Note_on_c, 1, 70, 64
1, 8229, Note_on_c, 0, 77, 0
1, 8232, Note_on_c, 0, 78, 64
1, 8253, Note_on_c, 1, 73, 0
1, 8253, Note_on_c, 1, 70, 0
1, 8255, Note_on_c, 0, 78, 0
1, 8256, Note_on_c, 0, 79, 64
1, 8256, Note_on_c, 1, 72, 64
1, 8256, Note_on_c, 1, 69, 64
1, 8262, Note_on_c, 0, 79, 0
1, 8262, Note_on_c, 0, 77, 64
1, 8290, Note_on_c, 0, 77, 0
1, 8292, Note_on_c, 0, 76, 64
1, 8301, Note_on_c, 1, 72, 0
1, 8301, Note_on_c, 1, 69, 0
1, 8304, Note_on_c, 0, 76, 0
1, 8304, Note_on_c, 0, 79, 64
1, 8304, Note_on_c, 1, 72, 64
1, 8304, Note_on_c, 1, 69, 64
1, 8310, Note_on_c, 0, 79, 0
1, 8310, Note_on_c, 0, 77, 64
1, 8338, Note_on_c, 0, 77, 0
1, 8340, Note_on_c, 0, 76, 64
1, 8349, Note_on_c, 1, 72, 0
1, 8349, Note_on_c, 1, 69, 0
1, 8352, Note_on_c, 0, 76, 0
1, 8352, Note_on_c, 0, 79, 64
1, 8352, Note_on_c, 1, 72, 64
1, 8352, Note_on_c, 1, 69, 64
1, 8358, Note_on_c, 0, 79, 0
1, 8358, Note_on_c, 0, 77, 64
1, 8367, Note_on_c, 0, 77, 0
1, 8368, Note_on_c, 0, 76, 64
1, 8383, Note_on_c, 0, 76, 0
1, 8384, Note_on_c, 0, 77, 64
1, 8397, Note_on_c, 1, 72, 0
1, 8397, Note_on_c, 1, 69, 0
1, 8399, Note_on_c, 0, 77, 0
1, 8400, Note_on_c, 0, 81, 64
1, 8400, Note_on_c, 1, 72, 64
1, 8400, Note_on_c, 1, 69, 64
1, 8415, Note_on_c, 0, 81, 0
1, 8416, Note_on_c, 0, 79, 64
1, 8431, Note_on_c, 0, 79, 0
1, 8432, Note_on_c, 0, 77, 64
1, 8445, Note_on_c, 1, 72, 0
1, 8445, Note_on_c, 1, 69, 0
1, 8447, Note_on_c, 0, 77, 0
1, 8448, Note_on_c, 0, 77, 80
1, 8448, Note_on_c, 1, 71, 64
1, 8448, Note_on_c, 1, 69, 64
1, 8472, Note_on_c, 0, 77, 0
1, 8472, Note_on_c, 0, 75, 64
1, 8493, Note_on_c, 1, 71, 0
1, 8493, Note_on_c, 1, 69, 0
1, 8496, Note_on_c, 1, 71, 64
1, 8496, Note_on_c, 1, 68, 64
1, 8517, Note_on_c, 0, 75, 0
1, 8520, Note_on_c, 0, 76, 64
1, 8541, Note_on_c, 1, 71, 0
1, 8541, Note_on_c, 1, 68, 0
1, 8544, Note_on_c, 1, 69, 64
1, 8544, Note_on_c, 1, 67, 64
1, 8567, Note_on_c, 0, 76, 0
1, 8568, Note_on_c, 0, 73, 63
1, 8589, Note_on_c, 1, 69, 0
1, 8589, Note_on_c, 1, 67, 0
1, 8592, Note_on_c, 1, 69, 63
1, 8592, Note_on_c, 1, 66, 63
1, 8613, Note_on_c, 0, 73, 0
1, 8616, Note_on_c, 0, 74, 62
1, 8637, Note_on_c, 1, 69, 0
1, 8637, Note_on_c, 1, 66, 0
1, 8640, Note_on_c, 1, 67, 62
1, 8640, Note_on_c, 1, 65, 62
1, 8663, Note_on_c, 0, 74, 0
1, 8664, Note_on_c, 0, 71, 61
1, 8685, Note_on_c, 1, 67, 0
1, 8685, Note_on_c, 1, 65, 0
1, 8688, Note_on_c, 1, 67, 61
1, 8688, Note_on_c, 1, 64, 61
1, 8709, Note_on_c, 0, 71, 0
1, 8712, Note_on_c, 0, 72, 60
1, 8733, Note_on_c, 1, 67, 0
1, 8733, Note_on_c, 1, 64, 0
1, 8736, Note_on_c, 1, 66, 60
1, 8736, Note_on_c, 1, 64, 60
1, 8759, Note_on_c, 0, 72, 0
1, 8760, Note_on_c, 0, 70, 59
1, 8781, Note_on_c, 1, 66, 0
1, 8781, Note_on_c, 1, 64, 0
1, 8784, Note_on_c, 1, 66, 59
1, 8784, Note_on_c, 1, 63, 59
1, 8805, Note_on_c, 0, 70, 0
1, 8808, Note_on_c, 0, 71, 58
1, 8829, Note_on_c, 1, 66, 0
1, 8829, Note_on_c, 1, 63, 0
1, 8831, Note_on_c, 0, 71, 0
1, 8856, Note_on_c, 0, 75, 64
1, 8856, Note_on_c, 0, 69, 64
1, 8856, Note_on_c, 1, 65, 64
1, 8880, Note_on_c, 0, 75, 0
1, 8880, Note_on_c, 0, 69, 0
1, 8880, Note_on_c, 0, 76, 66
1, 8880, Note_on_c, 0, 68, 66
1, 8880, Note_on_c, 1, 65, 0
1, 8880, Note_on_c, 1, 64, 66
1, 8903, Note_on_c, 0, 76, 0
1, 8903, Note_on_c, 0, 68, 0
1, 8903, Note_on_c, 1, 64, 0
1, 8904, Note_on_c, 0, 63, 69
1, 8904, Note_on_c, 0, 57, 69
1, 8904, Note_on_c, 1, 53, 69
1, 8928, Note_on_c, 0, 63, 0
1, 8928, Note_on_c, 0, 57, 0
1, 8928, Note_on_c, 0, 64, 72
1, 8928, Note_on_c, 0, 56, 72
1, 8928, Note_on_c, 1, 53, 0
1, 8928, Note_on_c, 1, 52, 72
1, 8951, Note_on_c, 0, 64, 0
1, 8951, Note_on_c, 0, 56, 0
1, 8951, Note_on_c, 1, 52, 0
1, 8952, Tempo, 3000000
1, 8964, Tempo, 1500000
1, 8964, Note_on_c, 0, 57, 75
1, 8964, Note_on_c, 1, 53, 75
1, 8964, Note_on_c, 1, 41, 75
1, 8988, Note_on_c, 0, 57, 0
1, 8988, Note_on_c, 0, 60, 75
1, 9000, Note_on_c, 0, 60, 0
1, 9000, Note_on_c, 0, 59, 75
1, 9012, Note_on_c, 0, 59, 0
1, 9012, Note_on_c, 0, 57, 75
1, 9024, Note_on_c, 0, 57, 0
1, 9024, Note_on_c, 0, 56, 75
1, 9024, Note_on_c, 1, 53, 0
1, 9024, Note_on_c, 1, 41, 0
1, 9024, Note_on_c, 1, 52, 75
1, 9024, Note_on_c, 1, 40, 75
1, 9072, Tempo, 3000000
1, 9072, Note_on_c, 0, 56, 0
1, 9072, Note_on_c, 0, 64, 75
1, 9117, Note_on_c, 0, 64, 0
1, 9117, Note_on_c, 1, 52, 0
1, 9117, Note_on_c, 1, 40, 0
1, 9120, Tempo, 1333333
1, 9216, Note_on_c, 0, 65, 91
1, 9216, Note_on_c, 0, 64, 91
1, 9216, Note_on_c, 1, 50, 75
1, 9240, Note_on_c, 0, 57, 70
1, 9261, Note_on_c, 1, 50, 0
1, 9264, Note_on_c, 0, 65, 0
1, 9264, Note_on_c, 0, 64, 0
1, 9264, Note_on_c, 0, 65, 75
1, 9264, Note_on_c, 0, 62, 75
1, 9264, Note_on_c, 1, 48, 75
1, 9287, Note_on_c, 0, 65, 0
1, 9287, Note_on_c, 0, 62, 0
1, 9288, Note_on_c, 0, 65, 76
1, 9288, Note_on_c, 0, 62, 76
1, 9307, Note_on_c, 0, 57, 0
1, 9309, Note_on_c, 1, 48, 0
1, 9311, Note_on_c, 0, 65, 0
1, 9311, Note_on_c, 0, 62, 0
1, 9312, Note_on_c, 0, 65, 76
1, 9312, Note_on_c, 0, 62, 76
1, 9312, Note_on_c, 1, 47, 75
1, 9336, Note_on_c, 0, 57, 70
1, 9357, Note_on_c, 0, 65, 0
1, 9357, Note_on_c, 0, 62, 0
1, 9357, Note_on_c, 1, 47, 0
1, 9360, Note_on_c, 0, 65, 77
1, 9360, Note_on_c, 0, 62, 77
1, 9360, Note_on_c, 1, 45, 75
1, 9383, Note_on_c, 0, 65, 0
1, 9383, Note_on_c, 0, 62, 0
1, 9384, Note_on_c, 0, 65, 77
1, 9384, Note_on_c, 0, 62, 77
1, 9403, Note_on_c, 0, 57, 0
1, 9405, Note_on_c, 1, 45, 0
1, 9407, Note_on_c, 0, 65, 0
1, 9407, Note_on_c, 0, 62, 0
1, 9408, Note_on_c, 0, 64, 78
1, 9408, Note_on_c, 0, 62, 78
1, 9408, Note_on_c, 0, 59, 78
1, 9408, Note_on_c, 1, 44, 75
1, 9497, Note_on_c, 1, 44, 0
1, 9502, Note_on_c, 0, 64, 0
1, 9502, Note_on_c, 0, 62, 0
1, 9502, Note_on_c, 0, 59, 0
1, 9504, Tempo, 461538
1, 9792, Tempo, 1333333
1, 9792, Note_on_c, 0, 82, 96
1, 9792, Note_on_c, 0, 81, 96
1, 9792, Note_on_c, 1, 67, 75
1, 9816, Note_on_c, 0, 74, 70
1, 9837, Note_on_c, 1, 67, 0
1, 9840, Note_on_c, 0, 82, 0
1, 9840, Note_on_c, 0, 81, 0
1, 9840, Note_on_c, 0, 82, 78
1, 9840, Note_on_c, 0, 79, 78
1, 9840, Note_on_c, 1, 65, 73
1, 9863, Note_on_c, 0, 82, 0
1, 9863, Note_on_c, 0, 79, 0
1, 9864, Note_on_c, 0, 82, 78
1, 9864, Note_on_c, 0, 79, 78
1, 9883, Note_on_c, 0, 74, 0
1, 9885, Note_on_c, 1, 65, 0
1, 9887, Note_on_c, 0, 82, 0
1, 9887, Note_on_c, 0, 79, 0
1, 9888, Note_on_c, 0, 82, 77
1, 9888, Note_on_c, 0, 79, 77
1, 9888, Note_on_c, 1, 64, 72
1, 9912, Note_on_c, 0, 74, 70
1, 9933, Note_on_c, 0, 82, 0
1, 9933, Note_on_c, 0, 79, 0
1, 9933, Note_on_c, 1, 64, 0
1, 9936, Note_on_c, 0, 82, 76
1, 9936, Note_on_c, 0, 79, 76
1, 9936, Note_on_c, 1, 62, 71
1, 9959, Note_on_c, 0, 82, 0
1, 9959, Note_on_c, 0, 79, 0
1, 9960, Note_on_c, 0, 82, 75
1, 9960, Note_on_c, 0, 79, 75
1, 9979, Note_on_c, 0, 74, 0
1, 9981, Note_on_c, 1, 62, 0
1, 9983, Note_on_c, 0, 82, 0
1, 9983, Note_on_c, 0, 79, 0
1, 9984, Note_on_c, 0, 81, 75
1, 9984, Note_on_c, 0, 79, 75
1, 9984, Note_on_c, 1, 61, 70
1, 10073, Note_on_c, 1, 61, 0
1, 10078, Note_on_c, 0, 81, 0
1, 10078, Note_on_c, 0, 79, 0
1, 10080, Tempo, 461538
1, 10368, Tempo, 1333333
1, 10368, Note_on_c, 0, 69, 75
1, 10368, Note_on_c, 0, 65, 75
1, 10392, Note_on_c, 0, 62, 70
1, 10413, Note_on_c, 0, 69, 0
1, 10413, Note_on_c, 0, 65, 0
1, 10416, Note_on_c, 0, 69, 75
1, 10416, Note_on_c, 0, 65, 75
1, 10416, Note_on_c, 1, 50, 96
1, 10439, Note_on_c, 0, 69, 0
1, 10439, Note_on_c, 0, 65, 0
1, 10440, Note_on_c, 0, 69, 76
1, 10440, Note_on_c, 0, 65, 76
1, 10459, Note_on_c, 0, 62, 0
1, 10463, Note_on_c, 0, 69, 0
1, 10463, Note_on_c, 0, 65, 0
1, 10464, Note_on_c, 0, 70, 76
1, 10464, Note_on_c, 0, 65, 76
1, 10464, Note_on_c, 1, 50, 0
1, 10488, Note_on_c, 0, 62, 70
1, 10509, Note_on_c, 0, 70, 0
1, 10509, Note_on_c, 0, 65, 0
1, 10512, Note_on_c, 0, 70, 77
1, 10512, Note_on_c, 0, 65, 77
1, 10512, Note_on_c, 1, 38, 96
1, 10535, Note_on_c, 0, 70, 0
1, 10535, Note_on_c, 0, 65, 0
1, 10536, Note_on_c, 0, 70, 77
1, 10536, Note_on_c, 0, 65, 77
1, 10555, Note_on_c, 0, 62, 0
1, 10559, Note_on_c, 0, 70, 0
1, 10559, Note_on_c, 0, 65, 0
1, 10560, Note_on_c, 0, 68, 78
1, 10560, Note_on_c, 0, 64, 78
1, 10560, Note_on_c, 1, 38, 0
1, 10584, Note_on_c, 0, 59, 70
1, 10605, Note_on_c, 0, 68, 0
1, 10605, Note_on_c, 0, 64, 0
1, 10608, Note_on_c, 0, 68, 79
1, 10608, Note_on_c, 0, 64, 79
1, 10608, Note_on_c, 1, 50, 96
1, 10631, Note_on_c, 0, 68, 0
1, 10631, Note_on_c, 0, 64, 0
1, 10632, Note_on_c, 0, 68, 79
1, 10632, Note_on_c, 0, 64, 79
1, 10651, Note_on_c, 0, 59, 0
1, 10655, Note_on_c, 0, 68, 0
1, 10655, Note_on_c, 0, 64, 0
1, 10656, Note_on_c, 0, 69, 80
1, 10656, Note_on_c, 0, 64, 80
1, 10656, Note_on_c, 1, 50, 0
1, 10656, Note_on_c, 1, 49, 80
1, 10680, Note_on_c, 0, 61, 70
1, 10701, Note_on_c, 0, 69, 0
1, 10701, Note_on_c, 0, 64, 0
1, 10701, Note_on_c, 1, 49, 0
1, 10704, Note_on_c, 0, 69, 80
1, 10704, Note_on_c, 0, 64, 80
1, 10727, Note_on_c, 0, 69, 0
1, 10727, Note_on_c, 0, 64, 0
1, 10728, Note_on_c, 0, 69, 80
1, 10728, Note_on_c, 0, 64, 80
1, 10747, Note_on_c, 0, 61, 0
1, 10751, Note_on_c, 0, 69, 0
1, 10751, Note_on_c, 0, 64, 0
1, 10752, Note_on_c, 0, 70, 96
1, 10752, Note_on_c, 0, 67, 96
1, 10752, Note_on_c, 1, 48, 80
1, 10752, Note_on_c, 1, 36, 80
1, 10776, Note_on_c, 0, 60, 70
1, 10797, Note_on_c, 1, 48, 0
1, 10797, Note_on_c, 1, 36, 0
1, 10800, Note_on_c, 0, 70, 0
1, 10800, Note_on_c, 0, 67, 0
1, 10800, Note_on_c, 0, 70, 80
1, 10800, Note_on_c, 0, 67, 80
1, 10823, Note_on_c, 0, 70, 0
1, 10823, Note_on_c, 0, 67, 0
1, 10824, Note_on_c, 0, 70, 80
1, 10824, Note_on_c, 0, 67, 80
1, 10843, Note_on_c, 0, 60, 0
1, 10847, Note_on_c, 0, 70, 0
1, 10847, Note_on_c, 0, 67, 0
1, 10848, Note_on_c, 0, 70, 80
1, 10848, Note_on_c, 0, 67, 80
1, 10848, Note_on_c, 0, 64, 70
1, 10848, Note_on_c, 1, 48, 80
1, 10848, Note_on_c, 1, 36, 80
1, 10871, Note_on_c, 0, 70, 0
1, 10871, Note_on_c, 0, 67, 0
1, 10872, Note_on_c, 0, 74, 80
1, 10872, Note_on_c, 0, 70, 80
1, 10895, Note_on_c, 0, 74, 0
1, 10895, Note_on_c, 0, 70, 0
1, 10896, Note_on_c, 0, 72, 80
1, 10896, Note_on_c, 0, 69, 80
1, 10919, Note_on_c, 0, 72, 0
1, 10919, Note_on_c, 0, 69, 0
1, 10920, Note_on_c, 0, 70, 80
1, 10920, Note_on_c, 0, 67, 80
1, 10937, Note_on_c, 0, 64, 0
1, 10937, Note_on_c, 1, 48, 0
1, 10937, Note_on_c, 1, 36, 0
1, 10943, Note_on_c, 0, 70, 0
1, 10943, Note_on_c, 0, 67, 0
1, 10944, Note_on_c, 0, 69, 80
1, 10944, Note_on_c, 0, 67, 80
1, 10944, Note_on_c, 1, 53, 80
1, 10968, Note_on_c, 0, 60, 70
1, 10989, Note_on_c, 0, 69, 0
1, 10989, Note_on_c, 0, 67, 0
1, 10989, Note_on_c, 1, 53, 0
1, 10992, Note_on_c, 0, 69, 81
1, 10992, Note_on_c, 0, 65, 81
1, 10992, Note_on_c, 1, 51, 81
1, 11015, Note_on_c, 0, 69, 0
1, 11015, Note_on_c, 0, 65, 0
1, 11016, Note_on_c, 0, 69, 81
1, 11016, Note_on_c, 0, 65, 81
1, 11035, Note_on_c, 0, 60, 0
1, 11037, Note_on_c, 1, 51, 0
1, 11039, Note_on_c, 0, 69, 0
1, 11039, Note_on_c, 0, 65, 0
1, 11040, Note_on_c, 0, 70, 82
1, 11040, Note_on_c, 0, 65, 82
1, 11040, Note_on_c, 1, 49, 82
1, 11064, Note_on_c, 0, 61, 72
1, 11085, Note_on_c, 0, 70, 0
1, 11085, Note_on_c, 0, 65, 0
1, 11085, Note_on_c, 1, 49, 0
1, 11088, Note_on_c, 0, 71, 83
1, 11088, Note_on_c, 0, 65, 83
1, 11088, Note_on_c, 1, 50, 83
1, 11098, Note_on_c, 0, 71, 0
1, 11098, Note_on_c, 0, 65, 0
1, 11111, Note_on_c, 1, 50, 0
1, 11112, Note_on_c, 0, 71, 83
1, 11112, Note_on_c, 0, 65, 83
1, 11112, Note_on_c, 1, 50, 83
1, 11122, Note_on_c, 0, 71, 0
1, 11122, Note_on_c, 0, 65, 0
1, 11131, Note_on_c, 0, 61, 0
1, 11135, Note_on_c, 1, 50, 0
1, 11136, Note_on_c, 0, 72, 84
1, 11136, Note_on_c, 0, 67, 84
1, 11136, Note_on_c, 1, 51, 84
1, 11160, Note_on_c, 0, 63, 73
1, 11181, Note_on_c, 0, 72, 0
1, 11181, Note_on_c, 0, 67, 0
1, 11181, Note_on_c, 1, 51, 0
1, 11184, Note_on_c, 0, 73, 85
1, 11184, Note_on_c, 0, 67, 85
1, 11184, Note_on_c, 1, 52, 85
1, 11194, Note_on_c, 0, 73, 0
1, 11194, Note_on_c, 0, 67, 0
1, 11207, Note_on_c, 1, 52, 0
1, 11208, Note_on_c, 0, 73, 85
1, 11208, Note_on_c, 0, 67, 85
1, 11208, Note_on_c, 1, 52, 85
1, 11218, Note_on_c, 0, 73, 0
1, 11218, Note_on_c, 0, 67, 0
1, 11227, Note_on_c, 0, 63, 0
1, 11231, Note_on_c, 1, 52, 0
1, 11232, Note_on_c, 0, 74, 86
1, 11232, Note_on_c, 0, 69, 75
1, 11232, Note_on_c, 1, 53, 86
1, 11247, Note_on_c, 0, 74, 0
1, 11248, Note_on_c, 0, 73, 85
1, 11263, Note_on_c, 0, 73, 0
1, 11264, Note_on_c, 0, 74, 84
1, 11277, Note_on_c, 0, 69, 0
1, 11277, Note_on_c, 1, 53, 0
1, 11279, Note_on_c, 0, 74, 0
1, 11280, Note_on_c, 0, 77, 83
1, 11280, Note_on_c, 0, 74, 83
1, 11280, Note_on_c, 1, 44, 82
1, 11295, Note_on_c, 0, 77, 0
1, 11295, Note_on_c, 0, 74, 0
1, 11296, Note_on_c, 0, 76, 82
1, 11296, Note_on_c, 0, 73, 82
1, 11311, Note_on_c, 0, 76, 0
1, 11311, Note_on_c, 0, 73, 0
1, 11312, Note_on_c, 0, 74, 81
1, 11312, Note_on_c, 0, 71, 81
1, 11325, Note_on_c, 1, 44, 0
1, 11327, Note_on_c, 0, 74, 0
1, 11327, Note_on_c, 0, 71, 0
1, 11328, Note_on_c, 0, 74, 80
1, 11328, Note_on_c, 0, 69, 80
1, 11328, Note_on_c, 1, 45, 78
1, 11348, Note_on_c, 0, 74, 0
1, 11348, Note_on_c, 0, 69, 0
1, 11373, Note_on_c, 1, 45, 0
1, 11424, Note_on_c, 0, 77, 73
1, 11424, Note_on_c, 0, 73, 70
1, 11424, Note_on_c, 0, 69, 70
1, 11424, Note_on_c, 0, 67, 70
1, 11424, Note_on_c, 1, 57, 75
1, 11448, Note_on_c, 0, 77, 0
1, 11448, Note_on_c, 0, 76, 72
1, 11469, Note_on_c, 0, 73, 0
1, 11469, Note_on_c, 0, 69, 0
1, 11469, Note_on_c, 0, 67, 0
1, 11469, Note_on_c, 1, 57, 0
1, 11493, Note_on_c, 0, 76, 0
1, 11520, Note_on_c, 1, 62, 64
1, 11535, Note_on_c, 1, 62, 0
1, 11536, Note_on_c, 1, 65, 64
1, 11551, Note_on_c, 1, 65, 0
1, 11552, Note_on_c, 1, 69, 64
1, 11567, Note_on_c, 1, 69, 0
1, 11568, Note_on_c, 1, 62, 64
1, 11583, Note_on_c, 1, 62, 0
1, 11584, Note_on_c, 1, 65, 64
1, 11592, Note_on_c, 0, 86, 91
1, 11599, Note_on_c, 1, 65, 0
1, 11600, Note_on_c, 1, 69, 64
1, 11615, Note_on_c, 1, 69, 0
1, 11616, Note_on_c, 0, 86, 0
1, 11616, Note_on_c, 0, 84, 75
1, 11616, Note_on_c, 1, 62, 64
1, 11631, Note_on_c, 1, 62, 0
1, 11632, Note_on_c, 1, 67, 64
1, 11640, Note_on_c, 0, 84, 0
1, 11640, Note_on_c, 0, 82, 75
1, 11647, Note_on_c, 1, 67, 0
1, 11648, Note_on_c, 1, 70, 64
1, 11663, Note_on_c, 0, 82, 0
1, 11663, Note_on_c, 1, 70, 0
1, 11664, Note_on_c, 0, 81, 75
1, 11664, Note_on_c, 1, 62, 64
1, 11679, Note_on_c, 1, 62, 0
1, 11680, Note_on_c, 1, 67, 64
1, 11688, Note_on_c, 0, 81, 0
1, 11688, Note_on_c, 0, 79, 75
1, 11695, Note_on_c, 1, 67, 0
1, 11696, Note_on_c, 1, 70, 64
1, 11711, Note_on_c, 0, 79, 0
1, 11711, Note_on_c, 1, 70, 0
1, 11712, Note_on_c, 0, 85, 75
1, 11712, Note_on_c, 1, 62, 64
1, 11727, Note_on_c, 0, 85, 0
1, 11727, Note_on_c, 1, 62, 0
1, 11728, Note_on_c, 0, 79, 75
1, 11728, Note_on_c, 1, 67, 64
1, 11743, Note_on_c, 0, 79, 0
1, 11743, Note_on_c, 1, 67, 0
1, 11744, Note_on_c, 0, 81, 75
1, 11744, Note_on_c, 1, 70, 64
1, 11759, Note_on_c, 0, 81, 0
1, 11759, Note_on_c, 1, 70, 0
1, 11760, Note_on_c, 0, 82, 75
1, 11760, Note_on_c, 1, 62, 64
1, 11775, Note_on_c, 0, 82, 0
1, 11775, Note_on_c, 1, 62, 0
1, 11776, Note_on_c, 0, 81, 75
1, 11776, Note_on_c, 1, 67, 64
1, 11791, Note_on_c, 0, 81, 0
1, 11791, Note_on_c, 1, 67, 0
1, 11792, Note_on_c, 0, 79, 75
1, 11792, Note_on_c, 1, 70, 64
1, 11807, Note_on_c, 0, 79, 0
1, 11807, Note_on_c, 1, 70, 0
1, 11808, Note_on_c, 0, 77, 75
1, 11808, Note_on_c, 1, 62, 64
1, 11823, Note_on_c, 0, 77, 0
1, 11823, Note_on_c, 1, 62, 0
1, 11824, Note_on_c, 0, 76, 75
1, 11824, Note_on_c, 1, 65, 64
1, 11839, Note_on_c, 0, 76, 0
1, 11839, Note_on_c, 1, 65, 0
1, 11840, Note_on_c, 0, 74, 75
1, 11840, Note_on_c, 1, 69, 64
1, 11855, Note_on_c, 0, 74, 0
1, 11855, Note_on_c, 1, 69, 0
1, 11856, Note_on_c, 0, 74, 75
1, 11856, Note_on_c, 1, 62, 64
1, 11871, Note_on_c, 1, 62, 0
1, 11872, Note_on_c, 1, 65, 64
1, 11887, Note_on_c, 1, 65, 0
1, 11888, Note_on_c, 1, 69, 64
1, 11901, Note_on_c, 0, 74, 0
1, 11903, Note_on_c, 1, 69, 0
1, 11904, Note_on_c, 0, 52, 96
1, 11904, Note_on_c, 0, 49, 96
1, 11904, Note_on_c, 1, 64, 64
1, 11919, Note_on_c, 1, 64, 0
1, 11920, Note_on_c, 1, 67, 64
1, 11935, Note_on_c, 1, 67, 0
1, 11936, Note_on_c, 1, 69, 64
1, 11951, Note_on_c, 1, 69, 0
1, 11952, Note_on_c, 1, 64, 64
1, 11967, Note_on_c, 1, 64, 0
1, 11968, Note_on_c, 1, 67, 64
1, 11983, Note_on_c, 1, 67, 0
1, 11984, Note_on_c, 1, 69, 64
1, 11999, Note_on_c, 1, 69, 0
1, 12000, Note_on_c, 1, 64, 64
1, 12015, Note_on_c, 1, 64, 0
1, 12016, Note_on_c, 1, 67, 64
1, 12023, Note_on_c, 0, 52, 0
1, 12023, Note_on_c, 0, 49, 0
1, 12024, Note_on_c, 0, 45, 96
1, 12031, Note_on_c, 1, 67, 0
1, 12032, Note_on_c, 1, 69, 64
1, 12047, Note_on_c, 1, 69, 0
1, 12048, Note_on_c, 0, 45, 0
1, 12048, Note_on_c, 0, 49, 80
1, 12048, Note_on_c, 1, 64, 64
1, 12063, Note_on_c, 1, 64, 0
1, 12064, Note_on_c, 1, 67, 64
1, 12071, Note_on_c, 0, 49, 0
1, 12072, Note_on_c, 0, 52, 80
1, 12079, Note_on_c, 1, 67, 0
1, 12080, Note_on_c, 1, 69, 64
1, 12095, Note_on_c, 0, 52, 0
1, 12095, Note_on_c, 1, 69, 0
1, 12096, Note_on_c, 0, 53, 80
1, 12096, Note_on_c, 0, 50, 80
1, 12096, Note_on_c, 1, 62, 64
1, 12111, Note_on_c, 1, 62, 0
1, 12112, Note_on_c, 1, 65, 64
1, 12127, Note_on_c, 1, 65, 0
1, 12128, Note_on_c, 1, 69, 64
1, 12143, Note_on_c, 1, 69, 0
1, 12144, Note_on_c, 1, 62, 64
1, 12159, Note_on_c, 1, 62, 0
1, 12160, Note_on_c, 1, 65, 64
1, 12163, Note_on_c, 0, 53, 0
1, 12163, Note_on_c, 0, 50, 0
1, 12168, Note_on_c, 0, 55, 80
1, 12168, Note_on_c, 0, 52, 80
1, 12175, Note_on_c, 1, 65, 0
1, 12176, Note_on_c, 1, 69, 64
1, 12191, Note_on_c, 0, 55, 0
1, 12191, Note_on_c, 0, 52, 0
1, 12191, Note_on_c, 1, 69, 0
1, 12192, Note_on_c, 0, 57, 80
1, 12192, Note_on_c, 0, 53, 80
1, 12192, Note_on_c, 1, 62, 64
1, 12207, Note_on_c, 1, 62, 0
1, 12208, Note_on_c, 1, 65, 64
1, 12223, Note_on_c, 1, 65, 0
1, 12224, Note_on_c, 1, 69, 65
1, 12237, Note_on_c, 0, 57, 0
1, 12237, Note_on_c, 0, 53, 0
1, 12239, Note_on_c, 1, 69, 0
1, 12240, Note_on_c, 1, 62, 66
1, 12255, Note_on_c, 1, 62, 0
1, 12256, Note_on_c, 1, 65, 67
1, 12271, Note_on_c, 1, 65, 0
1, 12272, Note_on_c, 1, 69, 67
1, 12287, Note_on_c, 1, 69, 0
1, 12288, Note_on_c, 0, 84, 96
1, 12288, Note_on_c, 0, 81, 96
1, 12288, Note_on_c, 0, 78, 96
1, 12288, Note_on_c, 1, 63, 70
1, 12303, Note_on_c, 1, 63, 0
1, 12304, Note_on_c, 1, 66, 70
1, 12319, Note_on_c, 1, 66, 0
1, 12320, Note_on_c, 1, 69, 70
1, 12335, Note_on_c, 1, 69, 0
1, 12336, Note_on_c, 1, 63, 70
1, 12351, Note_on_c, 1, 63, 0
1, 12352, Note_on_c, 1, 66, 70
1, 12360, Note_on_c, 0, 84, 0
1, 12360, Note_on_c, 0, 81, 0
1, 12360, Note_on_c, 0, 78, 0
1, 12360, Note_on_c, 0, 84, 80
1, 12360, Note_on_c, 0, 81, 80
1, 12360, Note_on_c, 0, 78, 80
1, 12367, Note_on_c, 1, 66, 0
1, 12368, Note_on_c, 1, 69, 70
1, 12383, Note_on_c, 0, 84, 0
1, 12383, Note_on_c, 0, 81, 0
1, 12383, Note_on_c, 0, 78, 0
1, 12383, Note_on_c, 1, 69, 0
1, 12384, Note_on_c, 0, 83, 80
1, 12384, Note_on_c, 0, 80, 80
1, 12384, Note_on_c, 0, 76, 80
1, 12384, Note_on_c, 1, 68, 70
1, 12429, Note_on_c, 0, 83, 0
1, 12429, Note_on_c, 0, 80, 0
1, 12429, Note_on_c, 0, 76, 0
1, 12429, Note_on_c, 1, 68, 0
1, 12504, Tempo, 1714285
1, 12504, Note_on_c, 0, 76, 91
1, 12528, Tempo, 2000000
1, 12528, Note_on_c, 0, 76, 0
1, 12528, Note_on_c, 0, 75, 73
1, 12528, Note_on_c, 1, 64, 70
1, 12551, Note_on_c, 0, 75, 0
1, 12552, Note_on_c, 0, 74, 71
1, 12552, Note_on_c, 0, 71, 71
1, 12575, Note_on_c, 0, 74, 0
1, 12575, Note_on_c, 0, 71, 0
1, 12576, Note_on_c, 0, 73, 70
1, 12576, Note_on_c, 0, 70, 70
1, 12599, Note_on_c, 0, 73, 0
1, 12599, Note_on_c, 0, 70, 0
1, 12600, Note_on_c, 0, 72, 68
1, 12600, Note_on_c, 0, 69, 68
1, 12624, Tempo, 2400000
1, 12624, Note_on_c, 0, 72, 0
1, 12624, Note_on_c, 0, 69, 0
1, 12624, Note_on_c, 0, 71, 67
1, 12624, Note_on_c, 0, 68, 67
1, 12669, Note_on_c, 0, 71, 0
1, 12669, Note_on_c, 0, 68, 0
1, 12669, Note_on_c, 1, 64, 0
1, 12672, Tempo, 1000000
1, 12768, Tempo, 1333333
1, 12768, Note_on_c, 0, 64, 64
1, 12768, Note_on_c, 0, 61, 64
1, 12768, Note_on_c, 1, 45, 64
1, 12792, Note_on_c, 1, 52, 64
1, 12815, Note_on_c, 0, 64, 0
1, 12815, Note_on_c, 0, 61, 0
1, 12816, Note_on_c, 0, 64, 64
1, 12816, Note_on_c, 0, 61, 64
1, 12839, Note_on_c, 0, 64, 0
1, 12839, Note_on_c, 0, 61, 0
1, 12840, Note_on_c, 0, 64, 64
1, 12840, Note_on_c, 0, 61, 64
1, 12857, Note_on_c, 1, 45, 0
1, 12859, Note_on_c, 1, 52, 0
1, 12863, Note_on_c, 0, 64, 0
1, 12863, Note_on_c, 0, 61, 0
1, 12864, Note_on_c, 0, 81, 64
1, 12864, Note_on_c, 0, 73, 64
1, 12864, Note_on_c, 1, 45, 64
1, 12888, Note_on_c, 1, 52, 64
1, 12909, Note_on_c, 0, 81, 0
1, 12909, Note_on_c, 0, 73, 0
1, 12912, Note_on_c, 0, 64, 64
1, 12912, Note_on_c, 0, 61, 64
1, 12935, Note_on_c, 0, 64, 0
1, 12935, Note_on_c, 0, 61, 0
1, 12936, Note_on_c, 0, 64, 64
1, 12936, Note_on_c, 0, 61, 64
1, 12953, Note_on_c, 1, 45, 0
1, 12955, Note_on_c, 1, 52, 0
1, 12959, Note_on_c, 0, 64, 0
1, 12959, Note_on_c, 0, 61, 0
1, 12960, Note_on_c, 0, 64, 64
1, 12960, Note_on_c, 0, 61, 64
1, 12960, Note_on_c, 1, 45, 64
1, 12984, Note_on_c, 1, 52, 64
1, 13005, Note_on_c, 0, 64, 0
1, 13005, Note_on_c, 0, 61, 0
1, 13008, Note_on_c, 0, 64, 64
1, 13008, Note_on_c, 0, 61, 64
1, 13031, Note_on_c, 0, 64, 0
1, 13031, Note_on_c, 0, 61, 0
1, 13032, Note_on_c, 0, 64, 64
1, 13032, Note_on_c, 0, 61, 64
1, 13049, Note_on_c, 1, 45, 0
1, 13051, Note_on_c, 1, 52, 0
1, 13055, Note_on_c, 0, 64, 0
1, 13055, Note_on_c, 0, 61, 0
1, 13056, Note_on_c, 0, 62, 64
1, 13056, Note_on_c, 0, 59, 64
1, 13056, Note_on_c, 1, 45, 64
1, 13080, Note_on_c, 1, 52, 64
1, 13101, Note_on_c, 0, 62, 0
1, 13101, Note_on_c, 0, 59, 0
1, 13104, Note_on_c, 0, 62, 64
1, 13104, Note_on_c, 0, 59, 64
1, 13127, Note_on_c, 0, 62, 0
1, 13127, Note_on_c, 0, 59, 0
1, 13128, Note_on_c, 0, 62, 64
1, 13128, Note_on_c, 0, 59, 64
1, 13145, Note_on_c, 1, 45, 0
1, 13147, Note_on_c, 1, 52, 0
1, 13151, Note_on_c, 0, 62, 0
1, 13151, Note_on_c, 0, 59, 0
1, 13152, Note_on_c, 0, 81, 64
1, 13152, Note_on_c, 0, 71, 64
1, 13152, Note_on_c, 1, 45, 64
1, 13176, Note_on_c, 1, 52, 64
1, 13197, Note_on_c, 0, 81, 0
1, 13197, Note_on_c, 0, 71, 0
1, 13200, Note_on_c, 0, 62, 64
1, 13200, Note_on_c, 0, 59, 64
1, 13223, Note_on_c, 0, 62, 0
1, 13223, Note_on_c, 0, 59, 0
1, 13224, Note_on_c, 0, 62, 64
1, 13224, Note_on_c, 0, 59, 64
1, 13241, Note_on_c, 1, 45, 0
1, 13243, Note_on_c, 1, 52, 0
1, 13247, Note_on_c, 0, 62, 0
1, 13247, Note_on_c, 0, 59, 0
1, 13248, Note_on_c, 0, 80, 64
1, 13248, Note_on_c, 0, 71, 64
1, 13248, Note_on_c, 1, 44, 64
1, 13272, Note_on_c, 1, 52, 64
1, 13293, Note_on_c, 0, 80, 0
1, 13293, Note_on_c, 0, 71, 0
1, 13296, Note_on_c, 0, 62, 64
1, 13296, Note_on_c, 0, 59, 64
1, 13319, Note_on_c, 0, 62, 0
1, 13319, Note_on_c, 0, 59, 0
1, 13320, Note_on_c, 0, 62, 64
1, 13320, Note_on_c, 0, 59, 64
1, 13337, Note_on_c, 1, 44, 0
1, 13339, Note_on_c, 1, 52, 0
1, 13343, Note_on_c, 0, 62, 0
1, 13343, Note_on_c, 0, 59, 0
1, 13344, Note_on_c, 0, 69, 75
1, 13344, Note_on_c, 0, 64, 75
1, 13344, Note_on_c, 0, 60, 75
1, 13344, Note_on_c, 1, 48, 75
1, 13344, Note_on_c, 1, 45, 75
1, 13367, Note_on_c, 1, 48, 0
1, 13367, Note_on_c, 1, 45, 0
1, 13368, Note_on_c, 1, 40, 75
1, 13391, Note_on_c, 1, 40, 0
1, 13392, Note_on_c, 1, 48, 76
1, 13392, Note_on_c, 1, 45, 76
1, 13415, Note_on_c, 1, 48, 0
1, 13415, Note_on_c, 1, 45, 0
1, 13416, Note_on_c, 1, 48, 77
1, 13416, Note_on_c, 1, 45, 77
1, 13433, Note_on_c, 0, 69, 0
1, 13433, Note_on_c, 0, 64, 0
1, 13433, Note_on_c, 0, 60, 0
1, 13439, Note_on_c, 1, 48, 0
1, 13439, Note_on_c, 1, 45, 0
1, 13440, Note_on_c, 0, 68, 78
1, 13440, Note_on_c, 0, 64, 78
1, 13440, Note_on_c, 0, 59, 78
1, 13440, Note_on_c, 1, 50, 78
1, 13440, Note_on_c, 1, 47, 78
1, 13463, Note_on_c, 1, 50, 0
1, 13463, Note_on_c, 1, 47, 0
1, 13464, Note_on_c, 1, 40, 79
1, 13487, Note_on_c, 1, 40, 0
1, 13488, Note_on_c, 1, 50, 80
1, 13488, Note_on_c, 1, 47, 80
1, 13511, Note_on_c, 1, 50, 0
1, 13511, Note_on_c, 1, 47, 0
1, 13512, Note_on_c, 1, 50, 81
1, 13512, Note_on_c, 1, 47, 81
1, 13529, Note_on_c, 0, 68, 0
1, 13529, Note_on_c, 0, 64, 0
1, 13529, Note_on_c, 0, 59, 0
1, 13535, Note_on_c, 1, 50, 0
1, 13535, Note_on_c, 1, 47, 0
1, 13536, Note_on_c, 0, 69, 82
1, 13536, Note_on_c, 0, 64, 82
1, 13536, Note_on_c, 0, 60, 82
1, 13536, Note_on_c, 1, 48, 82
1, 13536, Note_on_c, 1, 45, 82
1, 13559, Note_on_c, 1, 48, 0
1, 13559, Note_on_c, 1, 45, 0
1, 13560, Note_on_c, 1, 40, 83
1, 13583, Note_on_c, 1, 40, 0
1, 13584, Note_on_c, 1, 48, 84
1, 13584, Note_on_c, 1, 45, 84
1, 13603, Note_on_c, 0, 69, 0
1, 13603, Note_on_c, 0, 64, 0
1, 13603, Note_on_c, 0, 60, 0
1, 13607, Note_on_c, 1, 48, 0
1, 13607, Note_on_c, 1, 45, 0
1, 13608, Note_on_c, 0, 76, 85
1, 13608, Note_on_c, 0, 72, 85
1, 13608, Note_on_c, 1, 48, 101
1, 13608, Note_on_c, 1, 36, 101
1, 13631, Note_on_c, 0, 76, 0
1, 13631, Note_on_c, 0, 72, 0
1, 13632, Note_on_c, 0, 76, 102
1, 13632, Note_on_c, 0, 72, 102
1, 13632, Note_on_c, 1, 48, 0
1, 13632, Note_on_c, 1, 36, 0
1, 13632, Note_on_c, 1, 50, 86
1, 13632, Note_on_c, 1, 38, 86
1, 13677, Note_on_c, 1, 50, 0
1, 13677, Note_on_c, 1, 38, 0
1, 13680, Note_on_c, 0, 76, 0
1, 13680, Note_on_c, 0, 72, 0
1, 13680, Note_on_c, 0, 74, 86
1, 13680, Note_on_c, 0, 71, 86
1, 13680, Note_on_c, 1, 51, 86
1, 13680, Note_on_c, 1, 39, 86
1, 13703, Note_on_c, 0, 74, 0
1, 13703, Note_on_c, 0, 71, 0
1, 13704, Note_on_c, 0, 72, 86
1, 13704, Note_on_c, 0, 69, 86
1, 13725, Note_on_c, 1, 51, 0
1, 13725, Note_on_c, 1, 39, 0
1, 13727, Note_on_c, 0, 72, 0
1, 13727, Note_on_c, 0, 69, 0
1, 13728, Note_on_c, 0, 72, 75
1, 13728, Note_on_c, 0, 69, 75
1, 13728, Note_on_c, 0, 64, 75
1, 13728, Note_on_c, 1, 52, 75
1, 13728, Note_on_c, 1, 40, 75
1, 13824, Note_on_c, 0, 72, 0
1, 13824, Note_on_c, 0, 69, 0
1, 13824, Note_on_c, 0, 71, 70
1, 13824, Note_on_c, 0, 68, 70
1, 13861, Note_on_c, 1, 52, 0
1, 13861, Note_on_c, 1, 40, 0
1, 13869, Note_on_c, 0, 71, 0
1, 13869, Note_on_c, 0, 68, 0
1, 13869, Note_on_c, 0, 64, 0
1, 13920, Note_on_c, 0, 74, 64
1, 13920, Note_on_c, 1, 67, 64
1, 13920, Note_on_c, 1, 64, 64
1, 13926, Note_on_c, 0, 74, 0
1, 13926, Note_on_c, 0, 72, 64
1, 13954, Note_on_c, 0, 72, 0
1, 13956, Note_on_c, 0, 71, 64
1, 13965, Note_on_c, 1, 67, 0
1, 13965, Note_on_c, 1, 64, 0
1, 13968, Note_on_c, 0, 71, 0
1, 13968, Note_on_c, 0, 74, 64
1, 13968, Note_on_c, 1, 67, 64
1, 13968, Note_on_c, 1, 64, 64
1, 13974, Note_on_c, 0, 74, 0
1, 13974, Note_on_c, 0, 72, 64
1, 14002, Note_on_c, 0, 72, 0
1, 14004, Note_on_c, 0, 71, 64
1, 14013, Note_on_c, 1, 67, 0
1, 14013, Note_on_c, 1, 64, 0
1, 14016, Note_on_c, 0, 71, 0
1, 14016, Note_on_c, 0, 74, 64
1, 14016, Note_on_c, 1, 67, 64
1, 14016, Note_on_c, 1, 64, 64
1, 14022, Note_on_c, 0, 74, 0
1, 14022, Note_on_c, 0, 72, 64
1, 14031, Note_on_c, 0, 72, 0
1, 14032, Note_on_c, 0, 71, 64
1, 14047, Note_on_c, 0, 71, 0
1, 14048, Note_on_c, 0, 72, 64
1, 14061, Note_on_c, 1, 67, 0
1, 14061, Note_on_c, 1, 64, 0
1, 14063, Note_on_c, 0, 72, 0
1, 14064, Note_on_c, 0, 76, 64
1, 14064, Note_on_c, 1, 67, 64
1, 14064, Note_on_c, 1, 64, 64
1, 14079, Note_on_c, 0, 76, 0
1, 14080, Note_on_c, 0, 74, 64
1, 14095, Note_on_c, 0, 74, 0
1, 14096, Note_on_c, 0, 72, 64
1, 14109, Note_on_c, 1, 67, 0
1, 14109, Note_on_c, 1, 64, 0
1, 14111, Note_on_c, 0, 72, 0
1, 14112, Note_on_c, 0, 72, 80
1, 14112, Note_on_c, 1, 66, 64
1, 14112, Note_on_c, 1, 64, 64
1, 14136, Note_on_c, 0, 72, 0
1, 14136, Note_on_c, 0, 70, 64
1, 14157, Note_on_c, 1, 66, 0
1, 14157, Note_on_c, 1, 64, 0
1, 14160, Note_on_c, 1, 66, 64
1, 14160, Note_on_c, 1, 63, 64
1, 14181, Note_on_c, 0, 70, 0
1, 14184, Note_on_c, 0, 71, 64
1, 14205, Note_on_c, 1, 66, 0
1, 14205, Note_on_c, 1, 63, 0
1, 14207, Note_on_c, 0, 71, 0
1, 14208, Note_on_c, 0, 72, 64
1, 14208, Note_on_c, 1, 65, 64
1, 14208, Note_on_c, 1, 62, 64
1, 14214, Note_on_c, 0, 72, 0
1, 14214, Note_on_c, 0, 70, 64
1, 14242, Note_on_c, 0, 70, 0
1, 14244, Note_on_c, 0, 69, 64
1, 14253, Note_on_c, 1, 65, 0
1, 14253, Note_on_c, 1, 62, 0
1, 14256, Note_on_c, 0, 69, 0
1, 14256, Note_on_c, 0, 72, 64
1, 14256, Note_on_c, 1, 65, 64
1, 14256, Note_on_c, 1, 62, 64
1, 14262, Note_on_c, 0, 72, 0
1, 14262, Note_on_c, 0, 70, 64
1, 14290, Note_on_c, 0, 70, 0
1, 14292, Note_on_c, 0, 69, 64
1, 14301, Note_on_c, 1, 65, 0
1, 14301, Note_on_c, 1, 62, 0
1, 14304, Note_on_c, 0, 69, 0
1, 14304, Note_on_c, 0, 72, 64
1, 14304, Note_on_c, 1, 65, 64
1, 14304, Note_on_c, 1, 62, 64
1, 14310, Note_on_c, 0, 72, 0
1, 14310, Note_on_c, 0, 70, 64
1, 14319, Note_on_c, 0, 70, 0
1, 14320, Note_on_c, 0, 69, 64
1, 14335, Note_on_c, 0, 69, 0
1, 14336, Note_on_c, 0, 70, 64
1, 14349, Note_on_c, 1, 65, 0
1, 14349, Note_on_c, 1, 62, 0
1, 14351, Note_on_c, 0, 70, 0
1, 14352, Note_on_c, 0, 74, 64
1, 14352, Note_on_c, 1, 65, 64
1, 14352, Note_on_c, 1, 62, 64
1, 14367, Note_on_c, 0, 74, 0
1, 14368, Note_on_c, 0, 72, 64
1, 14383, Note_on_c, 0, 72, 0
1, 14384, Note_on_c, 0, 70, 64
1, 14397, Note_on_c, 1, 65, 0
1, 14397, Note_on_c, 1, 62, 0
1, 14399, Note_on_c, 0, 70, 0
1, 14400, Note_on_c, 0, 70, 80
1, 14400, Note_on_c, 1, 64, 64
1, 14400, Note_on_c, 1, 62, 64
1, 14432, Note_on_c, 0, 70, 0
1, 14432, Note_on_c, 0, 69, 64
1, 14445, Note_on_c, 1, 64, 0
1, 14445, Note_on_c, 1, 62, 0
1, 14447, Note_on_c, 0, 69, 0
1, 14448, Note_on_c, 0, 68, 64
1, 14448, Note_on_c, 1, 64, 64
1, 14448, Note_on_c, 1, 61, 64
1, 14471, Note_on_c, 0, 68, 0
1, 14472, Note_on_c, 0, 69, 64
1, 14493, Note_on_c, 1, 64, 0
1, 14493, Note_on_c, 1, 61, 0
1, 14496, Note_on_c, 1, 62, 64
1, 14496, Note_on_c, 1, 60, 64
1, 14519, Note_on_c, 0, 69, 0
1, 14520, Note_on_c, 0, 66, 63
1, 14541, Note_on_c, 1, 62, 0
1, 14541, Note_on_c, 1, 60, 0
1, 14544, Note_on_c, 1, 62, 63
1, 14544, Note_on_c, 1, 59, 63
1, 14565, Note_on_c, 0, 66, 0
1, 14568, Note_on_c, 0, 67, 62
1, 14589, Note_on_c, 1, 62, 0
1, 14589, Note_on_c, 1, 59, 0
1, 14592, Note_on_c, 1, 60, 62
1, 14592, Note_on_c, 1, 58, 62
1, 14615, Note_on_c, 0, 67, 0
1, 14616, Note_on_c, 0, 64, 61
1, 14637, Note_on_c, 1, 60, 0
1, 14637, Note_on_c, 1, 58, 0
1, 14640, Note_on_c, 1, 60, 61
1, 14640, Note_on_c, 1, 57, 61
1, 14661, Note_on_c, 0, 64, 0
1, 14664, Note_on_c, 0, 65, 60
1, 14685, Note_on_c, 1, 60, 0
1, 14685, Note_on_c, 1, 57, 0
1, 14688, Note_on_c, 1, 59, 60
1, 14688, Note_on_c, 1, 57, 60
1, 14711, Note_on_c, 0, 65, 0
1, 14712, Note_on_c, 0, 63, 59
1, 14733, Note_on_c, 1, 59, 0
1, 14733, Note_on_c, 1, 57, 0
1, 14736, Note_on_c, 1, 59, 59
1, 14736, Note_on_c, 1, 56, 59
1, 14757, Note_on_c, 0, 63, 0
1, 14760, Note_on_c, 0, 64, 58
1, 14781, Note_on_c, 1, 59, 0
1, 14781, Note_on_c, 1, 56, 0
1, 14783, Note_on_c, 0, 64, 0
1, 14808, Note_on_c, 0, 68, 80
1, 14808, Note_on_c, 0, 62, 80
1, 14808, Note_on_c, 1, 58, 80
1, 14832, Note_on_c, 0, 68, 0
1, 14832, Note_on_c, 0, 62, 0
1, 14832, Note_on_c, 0, 69, 80
1, 14832, Note_on_c, 0, 61, 80
1, 14832, Note_on_c, 1, 58, 0
1, 14832, Note_on_c, 1, 57, 80
1, 14855, Note_on_c, 0, 69, 0
1, 14855, Note_on_c, 0, 61, 0
1, 14855, Note_on_c, 1, 57, 0
1, 14856, Note_on_c, 0, 56, 80
1, 14856, Note_on_c, 0, 50, 80
1, 14856, Note_on_c, 1, 46, 80
1, 14880, Note_on_c, 0, 56, 0
1, 14880, Note_on_c, 0, 50, 0
1, 14880, Note_on_c, 0, 57, 80
1, 14880, Note_on_c, 0, 49, 80
1, 14880, Note_on_c, 1, 46, 0
1, 14880, Note_on_c, 1, 45, 80
1, 14903, Note_on_c, 0, 57, 0
1, 14903, Note_on_c, 0, 49, 0
1, 14903, Note_on_c, 1, 45, 0
1, 14904, Tempo, 2000000
1, 14934, Note_on_c, 0, 75, 64
1, 14934, Note_on_c, 0, 72, 64
1, 14934, Note_on_c, 0, 69, 64
1, 14934, Note_on_c, 1, 53, 64
1, 14942, Note_on_c, 0, 75, 0
1, 14942, Note_on_c, 0, 72, 0
1, 14942, Note_on_c, 0, 69, 0
1, 14942, Note_on_c, 1, 53, 0
1, 14952, Note_on_c, 0, 75, 70
1, 14952, Note_on_c, 0, 72, 70
1, 14952, Note_on_c, 0, 69, 70
1, 14952, Note_on_c, 1, 53, 70
1, 15000, Tempo, 2400000
1, 15023, Note_on_c, 0, 75, 0
1, 15023, Note_on_c, 0, 72, 0
1, 15023, Note_on_c, 0, 69, 0
1, 15023, Note_on_c, 1, 53, 0
1, 15024, Note_on_c, 0, 76, 64
1, 15024, Note_on_c, 0, 71, 64
1, 15024, Note_on_c, 0, 68, 64
1, 15024, Note_on_c, 1, 52, 70
1, 15069, Note_on_c, 0, 76, 0
1, 15069, Note_on_c, 0, 71, 0
1, 15069, Note_on_c, 0, 68, 0
1, 15069, Note_on_c, 1, 52, 0
1, 15072, Tempo, 400000
1, 15264, Note_on_c, 0, 64, 80
1, 15303, Note_on_c, 0, 64, 0
1, 15360, Note_on_c, 0, 61, 64
1, 15360, Note_on_c, 1, 57, 70
1, 15399, Note_on_c, 0, 61, 0
1, 15405, Note_on_c, 1, 57, 0
1, 15408, Note_on_c, 1, 56, 70
1, 15453, Note_on_c, 1, 56, 0
1, 15456, Note_on_c, 0, 64, 64
1, 15456, Note_on_c, 1, 54, 70
1, 15495, Note_on_c, 0, 64, 0
1, 15501, Note_on_c, 1, 54, 0
1, 15504, Note_on_c, 1, 52, 70
1, 15549, Note_on_c, 1, 52, 0
1, 15552, Note_on_c, 0, 69, 99
1, 15552, Note_on_c, 1, 50, 70
1, 15597, Note_on_c, 1, 50, 0
1, 15600, Note_on_c, 1, 49, 70
1, 15645, Note_on_c, 1, 49, 0
1, 15648, Note_on_c, 1, 47, 70
1, 15693, Note_on_c, 1, 47, 0
1, 15696, Note_on_c, 1, 52, 70
1, 15737, Note_on_c, 0, 69, 0
1, 15741, Note_on_c, 1, 52, 0
1, 15744, Note_on_c, 0, 68, 64
1, 15744, Note_on_c, 1, 50, 70
1, 15789, Note_on_c, 1, 50, 0
1, 15792, Note_on_c, 1, 49, 70
1, 15833, Note_on_c, 0, 68, 0
1, 15837, Note_on_c, 1, 49, 0
1, 15840, Note_on_c, 0, 76, 83
1, 15840, Note_on_c, 1, 47, 70
1, 15852, Note_on_c, 0, 76, 0
1, 15852, Note_on_c, 0, 74, 83
1, 15864, Note_on_c, 0, 74, 0
1, 15864, Note_on_c, 0, 73, 83
1, 15876, Note_on_c, 0, 73, 0
1, 15876, Note_on_c, 0, 74, 99
1, 15885, Note_on_c, 1, 47, 0
1, 15888, Note_on_c, 1, 45, 70
1, 15933, Note_on_c, 1, 45, 0
1, 15936, Note_on_c, 1, 47, 70
1, 15981, Note_on_c, 0, 74, 0
1, 15981, Note_on_c, 1, 47, 0
1, 15984, Note_on_c, 0, 73, 64
1, 15984, Note_on_c, 1, 45, 70
1, 16029, Note_on_c, 0, 73, 0
1, 16029, Note_on_c, 1, 45, 0
1, 16032, Note_on_c, 0, 71, 64
1, 16032, Note_on_c, 1, 44, 70
1, 16077, Note_on_c, 0, 71, 0
1, 16077, Note_on_c, 1, 44, 0
1, 16080, Note_on_c, 0, 69, 64
1, 16080, Note_on_c, 1, 42, 70
1, 16125, Note_on_c, 0, 69, 0
1, 16125, Note_on_c, 1, 42, 0
1, 16128, Note_on_c, 0, 68, 64
1, 16128, Note_on_c, 1, 40, 70
1, 16173, Note_on_c, 1, 40, 0
1, 16176, Note_on_c, 0, 68, 0
1, 16176, Note_on_c, 0, 71, 64
1, 16176, Note_on_c, 1, 38, 70
1, 16221, Note_on_c, 0, 71, 0
1, 16221, Note_on_c, 1, 38, 0
1, 16224, Note_on_c, 0, 68, 64
1, 16224, Note_on_c, 1, 37, 70
1, 16244, Note_on_c, 0, 68, 0
1, 16269, Note_on_c, 1, 37, 0
1, 16272, Note_on_c, 0, 64, 64
1, 16272, Note_on_c, 1, 35, 70
1, 16292, Note_on_c, 0, 64, 0
1, 16317, Note_on_c, 1, 35, 0
1, 16320, Note_on_c, 0, 76, 99
1, 16320, Note_on_c, 1, 33, 70
1, 16340, Note_on_c, 1, 33, 0
1, 16368, Note_on_c, 1, 68, 64
1, 16368, Note_on_c, 1, 64, 64
1, 16413, Note_on_c, 1, 68, 0
1, 16413, Note_on_c, 1, 64, 0
1, 16416, Note_on_c, 1, 69, 64
1, 16416, Note_on_c, 1, 66, 64
1, 16461, Note_on_c, 1, 69, 0
1, 16461, Note_on_c, 1, 66, 0
1, 16464, Note_on_c, 0, 76, 0
1, 16464, Note_on_c, 0, 74, 64
1, 16464, Note_on_c, 1, 71, 64
1, 16464, Note_on_c, 1, 68, 64
1, 16509, Note_on_c, 0, 74, 0
1, 16509, Note_on_c, 1, 71, 0
1, 16509, Note_on_c, 1, 68, 0
1, 16512, Note_on_c, 0, 73, 64
1, 16512, Note_on_c, 1, 73, 64
1, 16512, Note_on_c, 1, 69, 64
1, 16560, Note_on_c, 0, 73, 0
1, 16560, Note_on_c, 0, 76, 64
1, 16601, Note_on_c, 1, 73, 0
1, 16601, Note_on_c, 1, 69, 0
1, 16605, Note_on_c, 0, 76, 0
1, 16608, Note_on_c, 0, 73, 64
1, 16628, Note_on_c, 0, 73, 0
1, 16656, Note_on_c, 0, 69, 64
1, 16676, Note_on_c, 0, 69, 0
1, 16704, Note_on_c, 0, 81, 99
1, 16752, Note_on_c, 1, 64, 64
1, 16752, Note_on_c, 1, 61, 64
1, 16800, Note_on_c, 1, 64, 0
1, 16800, Note_on_c, 1, 61, 0
1, 16800, Note_on_c, 1, 66, 64
1, 16800, Note_on_c, 1, 62, 64
1, 16845, Note_on_c, 0, 81, 0
1, 16848, Note_on_c, 0, 81, 64
1, 16848, Note_on_c, 0, 78, 64
1, 16889, Note_on_c, 1, 66, 0
1, 16889, Note_on_c, 1, 62, 0
1, 16893, Note_on_c, 0, 81, 0
1, 16893, Note_on_c, 0, 78, 0
1, 16896, Note_on_c, 0, 80, 64
1, 16896, Note_on_c, 0, 76, 64
1, 16896, Note_on_c, 1, 64, 64
1, 16941, Note_on_c, 0, 80, 0
1, 16941, Note_on_c, 0, 76, 0
1, 16944, Note_on_c, 0, 78, 64
1, 16944, Note_on_c, 0, 74, 64
1, 16985, Note_on_c, 1, 64, 0
1, 16989, Note_on_c, 0, 78, 0
1, 16989, Note_on_c, 0, 74, 0
1, 16992, Note_on_c, 0, 76, 64
1, 16992, Note_on_c, 0, 73, 64
1, 16992, Note_on_c, 1, 52, 64
1, 17037, Note_on_c, 0, 76, 0
1, 17037, Note_on_c, 0, 73, 0
1, 17040, Note_on_c, 0, 74, 64
1, 17040, Note_on_c, 0, 71, 64
1, 17081, Note_on_c, 1, 52, 0
1, 17085, Note_on_c, 0, 74, 0
1, 17085, Note_on_c, 0, 71, 0
1, 17088, Note_on_c, 0, 74, 64
1, 17088, Note_on_c, 1, 57, 64
1, 17136, Note_on_c, 0, 74, 0
1, 17136, Note_on_c, 0, 73, 64
1, 17177, Note_on_c, 1, 57, 0
1, 17181, Note_on_c, 0, 73, 0
1, 17184, Note_on_c, 0, 71, 64
1, 17204, Note_on_c, 0, 71, 0
1, 17232, Note_on_c, 0, 69, 64
1, 17252, Note_on_c, 0, 69, 0
1, 17280, Note_on_c, 0, 76, 99
1, 17328, Note_on_c, 1, 64, 64
1, 17328, Note_on_c, 1, 61, 64
1, 17376, Note_on_c, 1, 64, 0
1, 17376, Note_on_c, 1, 61, 0
1, 17376, Note_on_c, 1, 66, 64
1, 17376, Note_on_c, 1, 62, 64
1, 17421, Note_on_c, 0, 76, 0
1, 17424, Note_on_c, 0, 74, 64
1, 17424, Note_on_c, 0, 66, 64
1, 17465, Note_on_c, 1, 66, 0
1, 17465, Note_on_c, 1, 62, 0
1, 17469, Note_on_c, 0, 74, 0
1, 17469, Note_on_c, 0, 66, 0
1, 17472, Note_on_c, 0, 73, 64
1, 17472, Note_on_c, 0, 64, 64
1, 17472, Note_on_c, 1, 64, 64
1, 17520, Note_on_c, 0, 73, 0
1, 17520, Note_on_c, 0, 64, 0
1, 17520, Note_on_c, 0, 71, 64
1, 17520, Note_on_c, 0, 62, 64
1, 17561, Note_on_c, 1, 64, 0
1, 17565, Note_on_c, 0, 71, 0
1, 17565, Note_on_c, 0, 62, 0
1, 17568, Note_on_c, 0, 69, 64
1, 17568, Note_on_c, 0, 61, 64
1, 17568, Note_on_c, 1, 52, 64
1, 17588, Note_on_c, 0, 69, 0
1, 17588, Note_on_c, 0, 61, 0
1, 17616, Note_on_c, 0, 68, 64
1, 17616, Note_on_c, 0, 59, 64
1, 17636, Note_on_c, 0, 68, 0
1, 17636, Note_on_c, 0, 59, 0
1, 17657, Note_on_c, 1, 52, 0
1, 17664, Note_on_c, 0, 69, 64
1, 17664, Note_on_c, 0, 61, 64
1, 17664, Note_on_c, 1, 57, 75
1, 17712, Note_on_c, 1, 57, 0
1, 17712, Note_on_c, 1, 56, 75
1, 17753, Note_on_c, 0, 69, 0
1, 17753, Note_on_c, 0, 61, 0
1, 17757, Note_on_c, 1, 56, 0
1, 17760, Note_on_c, 0, 81, 80
1, 17760, Note_on_c, 0, 73, 80
1, 17760, Note_on_c, 1, 54, 75
1, 17805, Note_on_c, 1, 54, 0
1, 17808, Note_on_c, 1, 52, 75
1, 17853, Note_on_c, 1, 52, 0
1, 17856, Note_on_c, 0, 81, 0
1, 17856, Note_on_c, 0, 73, 0
1, 17856, Note_on_c, 0, 73, 64
1, 17856, Note_on_c, 0, 69, 64
1, 17856, Note_on_c, 1, 54, 75
1, 17901, Note_on_c, 1, 54, 0
1, 17904, Note_on_c, 1, 52, 75
1, 17945, Note_on_c, 0, 73, 0
1, 17945, Note_on_c, 0, 69, 0
1, 17949, Note_on_c, 1, 52, 0
1, 17952, Note_on_c, 0, 71, 64
1, 17952, Note_on_c, 0, 69, 64
1, 17952, Note_on_c, 1, 50, 75
1, 18000, Note_on_c, 1, 50, 0
1, 18000, Note_on_c, 1, 54, 75
1, 18041, Note_on_c, 0, 71, 0
1, 18041, Note_on_c, 0, 69, 0
1, 18045, Note_on_c, 1, 54, 0
1, 18048, Note_on_c, 0, 80, 80
1, 18048, Note_on_c, 0, 71, 80
1, 18048, Note_on_c, 1, 52, 75
1, 18093, Note_on_c, 1, 52, 0
1, 18096, Note_on_c, 1, 50, 75
1, 18141, Note_on_c, 1, 50, 0
1, 18144, Note_on_c, 0, 80, 0
1, 18144, Note_on_c, 0, 71, 0
1, 18144, Note_on_c, 0, 71, 64
1, 18144, Note_on_c, 0, 68, 64
1, 18144, Note_on_c, 1, 52, 75
1, 18189, Note_on_c, 1, 52, 0
1, 18192, Note_on_c, 1, 50, 75
1, 18233, Note_on_c, 0, 71, 0
1, 18233, Note_on_c, 0, 68, 0
1, 18237, Note_on_c, 1, 50, 0
1, 18240, Note_on_c, 0, 69, 64
1, 18240, Note_on_c, 0, 68, 64
1, 18240, Note_on_c, 1, 49, 75
1, 18288, Note_on_c, 1, 49, 0
1, 18288, Note_on_c, 1, 52, 75
1, 18329, Note_on_c, 0, 69, 0
1, 18329, Note_on_c, 0, 68, 0
1, 18333, Note_on_c, 1, 52, 0
1, 18336, Note_on_c, 0, 78, 80
1, 18336, Note_on_c, 0, 69, 80
1, 18336, Note_on_c, 1, 50, 75
1, 18381, Note_on_c, 1, 50, 0
1, 18384, Note_on_c, 1, 49, 75
1, 18429, Note_on_c, 1, 49, 0
1, 18432, Note_on_c, 0, 78, 0
1, 18432, Note_on_c, 0, 69, 0
1, 18432, Note_on_c, 0, 69, 64
1, 18432, Note_on_c, 0, 66, 64
1, 18432, Note_on_c, 1, 50, 75
1, 18477, Note_on_c, 1, 50, 0
1, 18480, Note_on_c, 1, 49, 75
1, 18521, Note_on_c, 0, 69, 0
1, 18521, Note_on_c, 0, 66, 0
1, 18525, Note_on_c, 1, 49, 0
1, 18528, Note_on_c, 0, 68, 64
1, 18528, Note_on_c, 0, 66, 64
1, 18528, Note_on_c, 1, 47, 75
1, 18576, Note_on_c, 1, 47, 0
1, 18576, Note_on_c, 1, 50, 75
1, 18617, Note_on_c, 0, 68, 0
1, 18617, Note_on_c, 0, 66, 0
1, 18621, Note_on_c, 1, 50, 0
1, 18624, Note_on_c, 0, 76, 80
1, 18624, Note_on_c, 0, 68, 80
1, 18624, Note_on_c, 1, 49, 75
1, 18669, Note_on_c, 1, 49, 0
1, 18672, Note_on_c, 1, 47, 75
1, 18717, Note_on_c, 1, 47, 0
1, 18720, Note_on_c, 0, 76, 0
1, 18720, Note_on_c, 0, 68, 0
1, 18720, Note_on_c, 0, 68, 64
1, 18720, Note_on_c, 0, 64, 64
1, 18720, Note_on_c, 1, 49, 75
1, 18765, Note_on_c, 1, 49, 0
1, 18768, Note_on_c, 1, 47, 75
1, 18809, Note_on_c, 0, 68, 0
1, 18809, Note_on_c, 0, 64, 0
1, 18813, Note_on_c, 1, 47, 0
1, 18816, Note_on_c, 0, 66, 64
1, 18816, Note_on_c, 0, 64, 64
1, 18816, Note_on_c, 1, 45, 75
1, 18864, Note_on_c, 1, 45, 0
1, 18864, Note_on_c, 1, 49, 75
1, 18905, Note_on_c, 0, 66, 0
1, 18905, Note_on_c, 0, 64, 0
1, 18909, Note_on_c, 1, 49, 0
1, 18912, Note_on_c, 0, 74, 80
1, 18912, Note_on_c, 0, 66, 80
1, 18912, Note_on_c, 1, 47, 75
1, 18957, Note_on_c, 1, 47, 0
1, 18960, Note_on_c, 1, 45, 75
1, 19005, Note_on_c, 1, 45, 0
1, 19008, Note_on_c, 0, 74, 0
1, 19008, Note_on_c, 0, 66, 0
1, 19008, Note_on_c, 0, 66, 64
1, 19008, Note_on_c, 0, 62, 64
1, 19008, Note_on_c, 1, 47, 75
1, 19053, Note_on_c, 1, 47, 0
1, 19056, Note_on_c, 1, 45, 75
1, 19097, Note_on_c, 0, 66, 0
1, 19097, Note_on_c, 0, 62, 0
1, 19101, Note_on_c, 1, 45, 0
1, 19104, Note_on_c, 0, 64, 64
1, 19104, Note_on_c, 0, 62, 64
1, 19104, Note_on_c, 1, 44, 75
1, 19143, Note_on_c, 1, 44, 0
1, 19193, Note_on_c, 0, 64, 0
1, 19193, Note_on_c, 0, 62, 0
1, 19200, Note_on_c, 0, 74, 80
1, 19200, Note_on_c, 0, 71, 80
1, 19200, Note_on_c, 1, 44, 75
1, 19245, Note_on_c, 1, 44, 0
1, 19248, Note_on_c, 1, 40, 75
1, 19293, Note_on_c, 1, 40, 0
1, 19296, Note_on_c, 1, 42, 75
1, 19341, Note_on_c, 1, 42, 0
1, 19344, Note_on_c, 0, 74, 0
1, 19344, Note_on_c, 0, 71, 0
1, 19344, Note_on_c, 0, 74, 64
1, 19344, Note_on_c, 0, 71, 64
1, 19344, Note_on_c, 1, 44, 75
1, 19389, Note_on_c, 0, 74, 0
1, 19389, Note_on_c, 0, 71, 0
1, 19389, Note_on_c, 1, 44, 0
1, 19392, Note_on_c, 0, 73, 64
1, 19392, Note_on_c, 1, 45, 75
1, 19431, Note_on_c, 1, 45, 0
1, 19437, Note_on_c, 0, 73, 0
1, 19440, Note_on_c, 0, 71, 64
1, 19485, Note_on_c, 0, 71, 0
1, 19488, Note_on_c, 0, 69, 64
1, 19488, Note_on_c, 1, 50, 91
1, 19533, Note_on_c, 0, 69, 0
1, 19536, Note_on_c, 0, 68, 64
1, 19581, Note_on_c, 0, 68, 0
1, 19584, Note_on_c, 0, 69, 80
1, 19584, Note_on_c, 1, 50, 0
1, 19584, Note_on_c, 1, 49, 75
1, 19656, Note_on_c, 0, 69, 0
1, 19656, Note_on_c, 0, 64, 64
1, 19656, Note_on_c, 0, 61, 64
1, 19673, Note_on_c, 1, 49, 0
1, 19679, Note_on_c, 0, 64, 0
1, 19679, Note_on_c, 0, 61, 0
1, 19680, Note_on_c, 0, 66, 64
1, 19680, Note_on_c, 0, 62, 64
1, 19680, Note_on_c, 1, 50, 75
1, 19747, Note_on_c, 0, 66, 0
1, 19747, Note_on_c, 0, 62, 0
1, 19752, Note_on_c, 0, 62, 64
1, 19752, Note_on_c, 0, 59, 64
1, 19769, Note_on_c, 1, 50, 0
1, 19775, Note_on_c, 0, 62, 0
1, 19775, Note_on_c, 0, 59, 0
1, 19776, Note_on_c, 0, 61, 64
1, 19776, Note_on_c, 0, 57, 64
1, 19776, Note_on_c, 1, 52, 75
1, 19865, Note_on_c, 0, 61, 0
1, 19865, Note_on_c, 0, 57, 0
1, 19865, Note_on_c, 1, 52, 0
1, 19872, Note_on_c, 0, 59, 64
1, 19872, Note_on_c, 0, 56, 64
1, 19872, Note_on_c, 1, 52, 75
1, 19961, Note_on_c, 0, 59, 0
1, 19961, Note_on_c, 0, 56, 0
1, 19961, Note_on_c, 1, 52, 0
1, 19968, Note_on_c, 1, 52, 75
1, 19968, Note_on_c, 1, 49, 75
1, 19968, Note_on_c, 1, 45, 75
1, 20016, Note_on_c, 0, 57, 75
1, 20057, Note_on_c, 1, 52, 0
1, 20057, Note_on_c, 1, 49, 0
1, 20057, Note_on_c, 1, 45, 0
1, 20061, Note_on_c, 0, 57, 0
1, 20064, Note_on_c, 0, 61, 75
1, 20109, Note_on_c, 0, 61, 0
1, 20112, Note_on_c, 0, 64, 75
1, 20157, Note_on_c, 0, 64, 0
1, 20160, Note_on_c, 0, 69, 75
1, 20180, Note_on_c, 0, 69, 0
1, 20208, Note_on_c, 0, 69, 75
1, 20228, Note_on_c, 0, 69, 0
1, 20256, Note_on_c, 0, 68, 75
1, 20256, Note_on_c, 1, 52, 75
1, 20256, Note_on_c, 1, 47, 75
1, 20256, Note_on_c, 1, 44, 75
1, 20301, Note_on_c, 0, 68, 0
1, 20304, Note_on_c, 0, 64, 75
1, 20345, Note_on_c, 1, 52, 0
1, 20345, Note_on_c, 1, 47, 0
1, 20345, Note_on_c, 1, 44, 0
1, 20349, Note_on_c, 0, 64, 0
1, 20352, Note_on_c, 0, 68, 75
1, 20397, Note_on_c, 0, 68, 0
1, 20400, Note_on_c, 0, 71, 75
1, 20445, Note_on_c, 0, 71, 0
1, 20448, Note_on_c, 0, 74, 75
1, 20468, Note_on_c, 0, 74, 0
1, 20496, Note_on_c, 0, 74, 75
1, 20516, Note_on_c, 0, 74, 0
1, 20544, Note_on_c, 0, 73, 75
1, 20544, Note_on_c, 0, 69, 75
1, 20592, Note_on_c, 1, 45, 75
1, 20633, Note_on_c, 0, 73, 0
1, 20633, Note_on_c, 0, 69, 0
1, 20637, Note_on_c, 1, 45, 0
1, 20640, Note_on_c, 1, 49, 75
1, 20685, Note_on_c, 1, 49, 0
1, 20688, Note_on_c, 1, 52, 75
1, 20733, Note_on_c, 1, 52, 0
1, 20736, Note_on_c, 1, 57, 75
1, 20756, Note_on_c, 1, 57, 0
1, 20784, Note_on_c, 1, 57, 75
1, 20804, Note_on_c, 1, 57, 0
1, 20832, Note_on_c, 1, 56, 75
1, 20877, Note_on_c, 1, 56, 0
1, 20880, Note_on_c, 0, 71, 75
1, 20880, Note_on_c, 1, 52, 75
1, 20925, Note_on_c, 0, 71, 0
1, 20925, Note_on_c, 1, 52, 0
1, 20928, Note_on_c, 0, 74, 75
1, 20928, Note_on_c, 1, 56, 75
1, 20973, Note_on_c, 0, 74, 0
1, 20973, Note_on_c, 1, 56, 0
1, 20976, Note_on_c, 0, 80, 75
1, 20976, Note_on_c, 1, 59, 75
1, 21021, Note_on_c, 0, 80, 0
1, 21021, Note_on_c, 1, 59, 0
1, 21024, Note_on_c, 0, 83, 75
1, 21024, Note_on_c, 1, 62, 75
1, 21044, Note_on_c, 0, 83, 0
1, 21044, Note_on_c, 1, 62, 0
1, 21072, Note_on_c, 0, 83, 76
1, 21072, Note_on_c, 1, 62, 76
1, 21092, Note_on_c, 0, 83, 0
1, 21092, Note_on_c, 1, 62, 0
1, 21120, Note_on_c, 0, 81, 76
1, 21120, Note_on_c, 1, 61, 76
1, 21165, Note_on_c, 0, 81, 0
1, 21165, Note_on_c, 1, 61, 0
1, 21168, Note_on_c, 0, 73, 76
1, 21168, Note_on_c, 1, 57, 76
1, 21213, Note_on_c, 0, 73, 0
1, 21213, Note_on_c, 1, 57, 0
1, 21216, Note_on_c, 0, 76, 77
1, 21216, Note_on_c, 1, 61, 77
1, 21261, Note_on_c, 0, 76, 0
1, 21261, Note_on_c, 1, 61, 0
1, 21264, Note_on_c, 0, 81, 77
1, 21264, Note_on_c, 1, 64, 77
1, 21309, Note_on_c, 0, 81, 0
1, 21309, Note_on_c, 1, 64, 0
1, 21312, Note_on_c, 0, 85, 77
1, 21312, Note_on_c, 1, 69, 77
1, 21332, Note_on_c, 0, 85, 0
1, 21332, Note_on_c, 1, 69, 0
1, 21360, Note_on_c, 0, 85, 77
1, 21360, Note_on_c, 1, 69, 77
1, 21380, Note_on_c, 0, 85, 0
1, 21380, Note_on_c, 1, 69, 0
1, 21408, Note_on_c, 0, 83, 78
1, 21408, Note_on_c, 1, 68, 78
1, 21453, Note_on_c, 0, 83, 0
1, 21453, Note_on_c, 1, 68, 0
1, 21456, Note_on_c, 0, 76, 78
1, 21456, Note_on_c, 1, 59, 78
1, 21501, Note_on_c, 0, 76, 0
1, 21501, Note_on_c, 1, 59, 0
1, 21504, Note_on_c, 0, 80, 78
1, 21504, Note_on_c, 1, 64, 78
1, 21549, Note_on_c, 0, 80, 0
1, 21549, Note_on_c, 1, 64, 0
1, 21552, Note_on_c, 0, 83, 79
1, 21552, Note_on_c, 1, 68, 79
1, 21597, Note_on_c, 0, 83, 0
1, 21597, Note_on_c, 1, 68, 0
1, 21600, Note_on_c, 0, 86, 79
1, 21600, Note_on_c, 1, 71, 79
1, 21620, Note_on_c, 0, 86, 0
1, 21620, Note_on_c, 1, 71, 0
1, 21648, Note_on_c, 0, 86, 79
1, 21648, Note_on_c, 1, 71, 79
1, 21668, Note_on_c, 0, 86, 0
1, 21668, Note_on_c, 1, 71, 0
1, 21696, Note_on_c, 0, 85, 80
1, 21696, Note_on_c, 1, 69, 80
1, 21719, Note_on_c, 0, 85, 0
1, 21720, Note_on_c, 0, 83, 80
1, 21743, Note_on_c, 0, 83, 0
1, 21744, Note_on_c, 0, 85, 80
1, 21767, Note_on_c, 0, 85, 0
1, 21768, Note_on_c, 0, 86, 80
1, 21785, Note_on_c, 1, 69, 0
1, 21791, Note_on_c, 0, 86, 0
1, 21792, Note_on_c, 0, 88, 80
1, 21815, Note_on_c, 0, 88, 0
1, 21816, Note_on_c, 0, 86, 80
1, 21839, Note_on_c, 0, 86, 0
1, 21840, Note_on_c, 0, 85, 80
1, 21863, Note_on_c, 0, 85, 0
1, 21864, Note_on_c, 0, 83, 80
1, 21887, Note_on_c, 0, 83, 0
1, 21888, Note_on_c, 0, 81, 80
1, 21911, Note_on_c, 0, 81, 0
1, 21912, Note_on_c, 0, 80, 80
1, 21935, Note_on_c, 0, 80, 0
1, 21936, Note_on_c, 0, 78, 80
1, 21959, Note_on_c, 0, 78, 0
1, 21960, Note_on_c, 0, 76, 80
1, 21983, Note_on_c, 0, 76, 0
1, 21984, Note_on_c, 0, 78, 80
1, 21984, Note_on_c, 1, 62, 80
1, 22007, Note_on_c, 1, 62, 0
1, 22008, Note_on_c, 1, 61, 80
1, 22031, Note_on_c, 1, 61, 0
1, 22032, Note_on_c, 1, 62, 80
1, 22055, Note_on_c, 1, 62, 0
1, 22056, Note_on_c, 1, 64, 80
1, 22073, Note_on_c, 0, 78, 0
1, 22079, Note_on_c, 1, 64, 0
1, 22080, Note_on_c, 1, 66, 80
1, 22103, Note_on_c, 1, 66, 0
1, 22104, Note_on_c, 1, 64, 80
1, 22127, Note_on_c, 1, 64, 0
1, 22128, Note_on_c, 1, 62, 80
1, 22151, Note_on_c, 1, 62, 0
1, 22152, Note_on_c, 1, 61, 80
1, 22175, Note_on_c, 1, 61, 0
1, 22176, Note_on_c, 1, 62, 80
1, 22199, Note_on_c, 1, 62, 0
1, 22200, Note_on_c, 1, 61, 80
1, 22223, Note_on_c, 1, 61, 0
1, 22224, Note_on_c, 1, 59, 80
1, 22247, Note_on_c, 1, 59, 0
1, 22248, Note_on_c, 1, 57, 80
1, 22271, Note_on_c, 1, 57, 0
1, 22272, Note_on_c, 0, 71, 80
1, 22272, Note_on_c, 1, 59, 80
1, 22295, Note_on_c, 0, 71, 0
1, 22296, Note_on_c, 0, 70, 80
1, 22319, Note_on_c, 0, 70, 0
1, 22320, Note_on_c, 0, 71, 80
1, 22343, Note_on_c, 0, 71, 0
1, 22344, Note_on_c, 0, 73, 80
1, 22361, Note_on_c, 1, 59, 0
1, 22367, Note_on_c, 0, 73, 0
1, 22368, Note_on_c, 0, 74, 80
1, 22391, Note_on_c, 0, 74, 0
1, 22392, Note_on_c, 0, 73, 80
1, 22415, Note_on_c, 0, 73, 0
1, 22416, Note_on_c, 0, 71, 80
1, 22439, Note_on_c, 0, 71, 0
1, 22440, Note_on_c, 0, 69, 80
1, 22463, Note_on_c, 0, 69, 0
1, 22464, Note_on_c, 0, 71, 80
1, 22487, Note_on_c, 0, 71, 0
1, 22488, Note_on_c, 0, 69, 80
1, 22511, Note_on_c, 0, 69, 0
1, 22512, Note_on_c, 0, 68, 80
1, 22535, Note_on_c, 0, 68, 0
1, 22536, Note_on_c, 0, 66, 80
1, 22559, Note_on_c, 0, 66, 0
1, 22560, Note_on_c, 0, 68, 80
1, 22560, Note_on_c, 1, 44, 80
1, 22583, Note_on_c, 0, 68, 0
1, 22583, Note_on_c, 1, 44, 0
1, 22584, Note_on_c, 0, 64, 80
1, 22584, Note_on_c, 1, 40, 80
1, 22607, Note_on_c, 0, 64, 0
1, 22607, Note_on_c, 1, 40, 0
1, 22608, Note_on_c, 0, 66, 80
1, 22608, Note_on_c, 1, 42, 80
1, 22631, Note_on_c, 0, 66, 0
1, 22631, Note_on_c, 1, 42, 0
1, 22632, Note_on_c, 0, 68, 80
1, 22632, Note_on_c, 1, 44, 80
1, 22655, Note_on_c, 0, 68, 0
1, 22655, Note_on_c, 1, 44, 0
1, 22656, Note_on_c, 0, 69, 80
1, 22656, Note_on_c, 1, 45, 80
1, 22679, Note_on_c, 0, 69, 0
1, 22679, Note_on_c, 1, 45, 0
1, 22680, Note_on_c, 0, 71, 80
1, 22680, Note_on_c, 1, 47, 80
1, 22703, Note_on_c, 0, 71, 0
1, 22703, Note_on_c, 1, 47, 0
1, 22704, Note_on_c, 0, 73, 80
1, 22704, Note_on_c, 1, 49, 80
1, 22727, Note_on_c, 0, 73, 0
1, 22727, Note_on_c, 1, 49, 0
1, 22728, Note_on_c, 0, 75, 80
1, 22728, Note_on_c, 1, 51, 80
1, 22751, Note_on_c, 0, 75, 0
1, 22751, Note_on_c, 1, 51, 0
1, 22752, Note_on_c, 0, 76, 80
1, 22752, Note_on_c, 1, 52, 80
1, 22752, Note_on_c, 1, 40, 80
1, 22772, Note_on_c, 1, 52, 0
1, 22772, Note_on_c, 1, 40, 0
1, 22775, Note_on_c, 0, 76, 0
1, 22776, Note_on_c, 0, 69, 80
1, 22799, Note_on_c, 0, 69, 0
1, 22800, Note_on_c, 0, 71, 80
1, 22800, Note_on_c, 1, 38, 80
1, 22820, Note_on_c, 1, 38, 0
1, 22823, Note_on_c, 0, 71, 0
1, 22824, Note_on_c, 0, 73, 80
1, 22847, Note_on_c, 0, 73, 0
1, 22848, Note_on_c, 0, 75, 80
1, 22848, Note_on_c, 1, 37, 80
1, 22868, Note_on_c, 1, 37, 0
1, 22871, Note_on_c, 0, 75, 0
1, 22872, Note_on_c, 0, 76, 80
1, 22895, Note_on_c, 0, 76, 0
1, 22896, Note_on_c, 0, 78, 80
1, 22896, Note_on_c, 1, 35, 80
1, 22916, Note_on_c, 1, 35, 0
1, 22919, Note_on_c, 0, 78, 0
1, 22920, Note_on_c, 0, 80, 80
1, 22943, Note_on_c, 0, 80, 0
1, 22944, Note_on_c, 0, 81, 80
1, 22944, Note_on_c, 1, 37, 96
1, 22967, Note_on_c, 0, 81, 0
1, 22968, Note_on_c, 0, 80, 80
1, 22991, Note_on_c, 0, 80, 0
1, 22992, Note_on_c, 0, 81, 80
1, 23015, Note_on_c, 0, 81, 0
1, 23016, Note_on_c, 0, 80, 80
1, 23039, Note_on_c, 0, 80, 0
1, 23040, Note_on_c, 0, 81, 80
1, 23040, Note_on_c, 1, 37, 0
1, 23040, Note_on_c, 1, 57, 80
1, 23063, Note_on_c, 1, 57, 0
1, 23064, Note_on_c, 1, 56, 80
1, 23087, Note_on_c, 1, 56, 0
1, 23088, Note_on_c, 1, 57, 80
1, 23111, Note_on_c, 1, 57, 0
1, 23112, Note_on_c, 1, 56, 80
1, 23129, Note_on_c, 0, 81, 0
1, 23135, Note_on_c, 1, 56, 0
1, 23136, Note_on_c, 0, 81, 96
1, 23136, Note_on_c, 1, 57, 96
1, 23160, Note_on_c, 0, 81, 0
1, 23160, Note_on_c, 0, 80, 80
1, 23160, Note_on_c, 1, 57, 0
1, 23160, Note_on_c, 1, 56, 80
1, 23183, Note_on_c, 0, 80, 0
1, 23183, Note_on_c, 1, 56, 0
1, 23184, Note_on_c, 0, 81, 80
1, 23184, Note_on_c, 1, 57, 80
1, 23207, Note_on_c, 0, 81, 0
1, 23207, Note_on_c, 1, 57, 0
1, 23208, Note_on_c, 0, 80, 80
1, 23208, Note_on_c, 1, 56, 80
1, 23231, Note_on_c, 0, 80, 0
1, 23231, Note_on_c, 1, 56, 0
1, 23232, Note_on_c, 0, 81, 80
1, 23232, Note_on_c, 1, 57, 80
1, 23255, Note_on_c, 0, 81, 0
1, 23255, Note_on_c, 1, 57, 0
1, 23256, Note_on_c, 0, 80, 80
1, 23256, Note_on_c, 1, 56, 80
1, 23279, Note_on_c, 0, 80, 0
1, 23279, Note_on_c, 1, 56, 0
1, 23280, Note_on_c, 0, 78, 80
1, 23280, Note_on_c, 1, 54, 80
1, 23303, Note_on_c, 0, 78, 0
1, 23303, Note_on_c, 1, 54, 0
1, 23304, Note_on_c, 0, 76, 80
1, 23304, Note_on_c, 1, 52, 80
1, 23327, Note_on_c, 0, 76, 0
1, 23327, Note_on_c, 1, 52, 0
1, 23328, Note_on_c, 0, 74, 80
1, 23328, Note_on_c, 1, 50, 80
1, 23351, Note_on_c, 0, 74, 0
1, 23351, Note_on_c, 1, 50, 0
1, 23352, Note_on_c, 0, 73, 80
1, 23352, Note_on_c, 1, 49, 80
1, 23375, Note_on_c, 0, 73, 0
1, 23375, Note_on_c, 1, 49, 0
1, 23376, Note_on_c, 0, 71, 80
1, 23376, Note_on_c, 1, 47, 80
1, 23399, Note_on_c, 0, 71, 0
1, 23399, Note_on_c, 1, 47, 0
1, 23400, Note_on_c, 0, 69, 80
1, 23400, Note_on_c, 1, 45, 80
1, 23423, Note_on_c, 0, 69, 0
1, 23423, Note_on_c, 1, 45, 0
1, 23424, Note_on_c, 0, 75, 80
1, 23424, Note_on_c, 1, 52, 80
1, 23424, Note_on_c, 1, 47, 80
1, 23424, Note_on_c, 1, 44, 80
1, 23424, Note_on_c, 1, 40, 80
1, 23447, Note_on_c, 0, 75, 0
1, 23448, Note_on_c, 0, 76, 80
1, 23471, Note_on_c, 0, 76, 0
1, 23472, Note_on_c, 0, 75, 80
1, 23495, Note_on_c, 0, 75, 0
1, 23496, Note_on_c, 0, 76, 80
1, 23519, Note_on_c, 0, 76, 0
1, 23520, Note_on_c, 0, 64, 80
1, 23653, Note_on_c, 0, 64, 0
1, 23689, Note_on_c, 1, 52, 0
1, 23689, Note_on_c, 1, 47, 0
1, 23689, Note_on_c, 1, 44, 0
1, 23689, Note_on_c, 1, 40, 0
1, 23904, Note_on_c, 0, 64, 91
1, 23943, Note_on_c, 0, 64, 0
1, 24000, Note_on_c, 0, 61, 75
1, 24000, Note_on_c, 1, 57, 75
1, 24039, Note_on_c, 0, 61, 0
1, 24045, Note_on_c, 1, 57, 0
1, 24048, Note_on_c, 1, 56, 75
1, 24093, Note_on_c, 1, 56, 0
1, 24096, Note_on_c, 0, 64, 75
1, 24096, Note_on_c, 1, 54, 75
1, 24135, Note_on_c, 0, 64, 0
1, 24141, Note_on_c, 1, 54, 0
1, 24144, Note_on_c, 1, 52, 75
1, 24189, Note_on_c, 1, 52, 0
1, 24192, Note_on_c, 0, 69, 110
1, 24192, Note_on_c, 1, 50, 75
1, 24237, Note_on_c, 1, 50, 0
1, 24240, Note_on_c, 1, 49, 75
1, 24285, Note_on_c, 1, 49, 0
1, 24288, Note_on_c, 1, 47, 75
1, 24333, Note_on_c, 1, 47, 0
1, 24336, Note_on_c, 1, 52, 75
1, 24377, Note_on_c, 0, 69, 0
1, 24381, Note_on_c, 1, 52, 0
1, 24384, Note_on_c, 0, 68, 75
1, 24384, Note_on_c, 1, 50, 75
1, 24429, Note_on_c, 1, 50, 0
1, 24432, Note_on_c, 1, 49, 75
1, 24473, Note_on_c, 0, 68, 0
1, 24477, Note_on_c, 1, 49, 0
1, 24480, Note_on_c, 0, 76, 94
1, 24480, Note_on_c, 1, 47, 75
1, 24492, Note_on_c, 0, 76, 0
1, 24492, Note_on_c, 0, 74, 94
1, 24504, Note_on_c, 0, 74, 0
1, 24504, Note_on_c, 0, 73, 94
1, 24516, Note_on_c, 0, 73, 0
1, 24516, Note_on_c, 0, 74, 110
1, 24525, Note_on_c, 1, 47, 0
1, 24528, Note_on_c, 1, 45, 75
1, 24573, Note_on_c, 1, 45, 0
1, 24576, Note_on_c, 1, 47, 75
1, 24621, Note_on_c, 0, 74, 0
1, 24621, Note_on_c, 1, 47, 0
1, 24624, Note_on_c, 0, 73, 75
1, 24624, Note_on_c, 1, 45, 75
1, 24669, Note_on_c, 0, 73, 0
1, 24669, Note_on_c, 1, 45, 0
1, 24672, Note_on_c, 0, 71, 75
1, 24672, Note_on_c, 1, 44, 75
1, 24717, Note_on_c, 0, 71, 0
1, 24717, Note_on_c, 1, 44, 0
1, 24720, Note_on_c, 0, 69, 75
1, 24720, Note_on_c, 1, 42, 75
1, 24765, Note_on_c, 0, 69, 0
1, 24765, Note_on_c, 1, 42, 0
1, 24768, Note_on_c, 0, 68, 75
1, 24768, Note_on_c, 1, 40, 75
1, 24813, Note_on_c, 1, 40, 0
1, 24816, Note_on_c, 0, 68, 0
1, 24816, Note_on_c, 0, 71, 75
1, 24816, Note_on_c, 1, 38, 75
1, 24861, Note_on_c, 0, 71, 0
1, 24861, Note_on_c, 1, 38, 0
1, 24864, Note_on_c, 0, 68, 75
1, 24864, Note_on_c, 1, 37, 75
1, 24884, Note_on_c, 0, 68, 0
1, 24909, Note_on_c, 1, 37, 0
1, 24912, Note_on_c, 0, 64, 75
1, 24912, Note_on_c, 1, 35, 75
1, 24932, Note_on_c, 0, 64, 0
1, 24957, Note_on_c, 1, 35, 0
1, 24960, Note_on_c, 0, 76, 110
1, 24960, Note_on_c, 1, 33, 75
1, 24980, Note_on_c, 1, 33, 0
1, 25008, Note_on_c, 1, 68, 64
1, 25008, Note_on_c, 1, 64, 64
1, 25053, Note_on_c, 1, 68, 0
1, 25053, Note_on_c, 1, 64, 0
1, 25056, Note_on_c, 1, 69, 64
1, 25056, Note_on_c, 1, 66, 64
1, 25101, Note_on_c, 1, 69, 0
1, 25101, Note_on_c, 1, 66, 0
1, 25104, Note_on_c, 0, 76, 0
1, 25104, Note_on_c, 0, 74, 75
1, 25104, Note_on_c, 1, 71, 64
1, 25104, Note_on_c, 1, 68, 64
1, 25149, Note_on_c, 0, 74, 0
1, 25149, Note_on_c, 1, 71, 0
1, 25149, Note_on_c, 1, 68, 0
1, 25152, Note_on_c, 0, 73, 75
1, 25152, Note_on_c, 1, 73, 64
1, 25152, Note_on_c, 1, 69, 64
1, 25200, Note_on_c, 0, 73, 0
1, 25200, Note_on_c, 0, 76, 75
1, 25241, Note_on_c, 1, 73, 0
1, 25241, Note_on_c, 1, 69, 0
1, 25245, Note_on_c, 0, 76, 0
1, 25248, Note_on_c, 0, 73, 75
1, 25268, Note_on_c, 0, 73, 0
1, 25296, Note_on_c, 0, 69, 75
1, 25316, Note_on_c, 0, 69, 0
1, 25344, Note_on_c, 0, 81, 110
1, 25392, Note_on_c, 1, 64, 64
1, 25392, Note_on_c, 1, 61, 64
1, 25440, Note_on_c, 1, 64, 0
1, 25440, Note_on_c, 1, 61, 0
1, 25440, Note_on_c, 1, 66, 64
1, 25440, Note_on_c, 1, 62, 64
1, 25485, Note_on_c, 0, 81, 0
1, 25488, Note_on_c, 0, 81, 75
1, 25488, Note_on_c, 0, 78, 75
1, 25529, Note_on_c, 1, 66, 0
1, 25529, Note_on_c, 1, 62, 0
1, 25533, Note_on_c, 0, 81, 0
1, 25533, Note_on_c, 0, 78, 0
1, 25536, Note_on_c, 0, 80, 75
1, 25536, Note_on_c, 0, 76, 75
1, 25536, Note_on_c, 1, 64, 64
1, 25581, Note_on_c, 0, 80, 0
1, 25581, Note_on_c, 0, 76, 0
1, 25584, Note_on_c, 0, 78, 75
1, 25584, Note_on_c, 0, 74, 75
1, 25625, Note_on_c, 1, 64, 0
1, 25629, Note_on_c, 0, 78, 0
1, 25629, Note_on_c, 0, 74, 0
1, 25632, Note_on_c, 0, 76, 75
1, 25632, Note_on_c, 0, 73, 75
1, 25632, Note_on_c, 1, 52, 64
1, 25677, Note_on_c, 0, 76, 0
1, 25677, Note_on_c, 0, 73, 0
1, 25680, Note_on_c, 0, 74, 75
1, 25680, Note_on_c, 0, 71, 75
1, 25721, Note_on_c, 1, 52, 0
1, 25725, Note_on_c, 0, 74, 0
1, 25725, Note_on_c, 0, 71, 0
1, 25728, Note_on_c, 0, 74, 75
1, 25728, Note_on_c, 1, 57, 64
1, 25776, Note_on_c, 0, 74, 0
1, 25776, Note_on_c, 0, 73, 75
1, 25817, Note_on_c, 1, 57, 0
1, 25821, Note_on_c, 0, 73, 0
1, 25824, Note_on_c, 0, 71, 75
1, 25844, Note_on_c, 0, 71, 0
1, 25872, Note_on_c, 0, 69, 75
1, 25892, Note_on_c, 0, 69, 0
1, 25920, Note_on_c, 0, 76, 110
1, 25968, Note_on_c, 1, 64, 64
1, 25968, Note_on_c, 1, 61, 64
1, 26016, Note_on_c, 1, 64, 0
1, 26016, Note_on_c, 1, 61, 0
1, 26016, Note_on_c, 1, 66, 64
1, 26016, Note_on_c, 1, 62, 64
1, 26061, Note_on_c, 0, 76, 0
1, 26064, Note_on_c, 0, 74, 75
1, 26064, Note_on_c, 0, 66, 75
1, 26105, Note_on_c, 1, 66, 0
1, 26105, Note_on_c, 1, 62, 0
1, 26109, Note_on_c, 0, 74, 0
1, 26109, Note_on_c, 0, 66, 0
1, 26112, Note_on_c, 0, 73, 75
1, 26112, Note_on_c, 0, 64, 75
1, 26112, Note_on_c, 1, 64, 64
1, 26160, Note_on_c, 0, 73, 0
1, 26160, Note_on_c, 0, 64, 0
1, 26160, Note_on_c, 0, 71, 75
1, 26160, Note_on_c, 0, 62, 75
1, 26201, Note_on_c, 1, 64, 0
1, 26205, Note_on_c, 0, 71, 0
1, 26205, Note_on_c, 0, 62, 0
1, 26208, Note_on_c, 0, 69, 75
1, 26208, Note_on_c, 0, 61, 75
1, 26208, Note_on_c, 1, 52, 64
1, 26228, Note_on_c, 0, 69, 0
1, 26228, Note_on_c, 0, 61, 0
1, 26256, Note_on_c, 0, 68, 75
1, 26256, Note_on_c, 0, 59, 75
1, 26276, Note_on_c, 0, 68, 0
1, 26276, Note_on_c, 0, 59, 0
1, 26297, Note_on_c, 1, 52, 0
1, 26304, Note_on_c, 0, 69, 75
1, 26304, Note_on_c, 0, 61, 75
1, 26304, Note_on_c, 1, 57, 75
1, 26352, Note_on_c, 1, 57, 0
1, 26352, Note_on_c, 1, 56, 75
1, 26393, Note_on_c, 0, 69, 0
1, 26393, Note_on_c, 0, 61, 0
1, 26397, Note_on_c, 1, 56, 0
1, 26400, Note_on_c, 0, 81, 91
1, 26400, Note_on_c, 0, 73, 91
1, 26400, Note_on_c, 1, 54, 75
1, 26445, Note_on_c, 1, 54, 0
1, 26448, Note_on_c, 1, 52, 75
1, 26493, Note_on_c, 1, 52, 0
1, 26496, Note_on_c, 0, 81, 0
1, 26496, Note_on_c, 0, 73, 0
1, 26496, Note_on_c, 0, 73, 75
1, 26496, Note_on_c, 0, 69, 75
1, 26496, Note_on_c, 1, 54, 75
1, 26541, Note_on_c, 1, 54, 0
1, 26544, Note_on_c, 1, 52, 75
1, 26585, Note_on_c, 0, 73, 0
1, 26585, Note_on_c, 0, 69, 0
1, 26589, Note_on_c, 1, 52, 0
1, 26592, Note_on_c, 0, 71, 75
1, 26592, Note_on_c, 0, 69, 75
1, 26592, Note_on_c, 1, 50, 75
1, 26640, Note_on_c, 1, 50, 0
1, 26640, Note_on_c, 1, 54, 75
1, 26681, Note_on_c, 0, 71, 0
1, 26681, Note_on_c, 0, 69, 0
1, 26685, Note_on_c, 1, 54, 0
1, 26688, Note_on_c, 0, 80, 91
1, 26688, Note_on_c, 0, 71, 91
1, 26688, Note_on_c, 1, 52, 75
1, 26733, Note_on_c, 1, 52, 0
1, 26736, Note_on_c, 1, 50, 75
1, 26781, Note_on_c, 1, 50, 0
1, 26784, Note_on_c, 0, 80, 0
1, 26784, Note_on_c, 0, 71, 0
1, 26784, Note_on_c, 0, 71, 75
1, 26784, Note_on_c, 0, 68, 75
1, 26784, Note_on_c, 1, 52, 75
1, 26829, Note_on_c, 1, 52, 0
1, 26832, Note_on_c, 1, 50, 75
1, 26873, Note_on_c, 0, 71, 0
1, 26873, Note_on_c, 0, 68, 0
1, 26877, Note_on_c, 1, 50, 0
1, 26880, Note_on_c, 0, 69, 75
1, 26880, Note_on_c, 0, 68, 75
1, 26880, Note_on_c, 1, 49, 75
1, 26928, Note_on_c, 1, 49, 0
1, 26928, Note_on_c, 1, 52, 75
1, 26969, Note_on_c, 0, 69, 0
1, 26969, Note_on_c, 0, 68, 0
1, 26973, Note_on_c, 1, 52, 0
1, 26976, Note_on_c, 0, 78, 91
1, 26976, Note_on_c, 0, 69, 91
1, 26976, Note_on_c, 1, 50, 75
1, 27021, Note_on_c, 1, 50, 0
1, 27024, Note_on_c, 1, 49, 75
1, 27069, Note_on_c, 1, 49, 0
1, 27072, Note_on_c, 0, 78, 0
1, 27072, Note_on_c, 0, 69, 0
1, 27072, Note_on_c, 0, 69, 75
1, 27072, Note_on_c, 0, 66, 75
1, 27072, Note_on_c, 1, 50, 75
1, 27117, Note_on_c, 1, 50, 0
1, 27120, Note_on_c, 1, 49, 75
1, 27161, Note_on_c, 0, 69, 0
1, 27161, Note_on_c, 0, 66, 0
1, 27165, Note_on_c, 1, 49, 0
1, 27168, Note_on_c, 0, 68, 75
1, 27168, Note_on_c, 0, 66, 75
1, 27168, Note_on_c, 1, 47, 75
1, 27216, Note_on_c, 1, 47, 0
1, 27216, Note_on_c, 1, 50, 75
1, 27257, Note_on_c, 0, 68, 0
1, 27257, Note_on_c, 0, 66, 0
1, 27261, Note_on_c, 1, 50, 0
1, 27264, Note_on_c, 0, 76, 91
1, 27264, Note_on_c, 0, 68, 91
1, 27264, Note_on_c, 1, 49, 75
1, 27309, Note_on_c, 1, 49, 0
1, 27312, Note_on_c, 1, 47, 75
1, 27357, Note_on_c, 1, 47, 0
1, 27360, Note_on_c, 0, 76, 0
1, 27360, Note_on_c, 0, 68, 0
1, 27360, Note_on_c, 0, 68, 75
1, 27360, Note_on_c, 0, 64, 75
1, 27360, Note_on_c, 1, 49, 75
1, 27405, Note_on_c, 1, 49, 0
1, 27408, Note_on_c, 1, 47, 75
1, 27449, Note_on_c, 0, 68, 0
1, 27449, Note_on_c, 0, 64, 0
1, 27453, Note_on_c, 1, 47, 0
1, 27456, Note_on_c, 0, 66, 75
1, 27456, Note_on_c, 0, 64, 75
1, 27456, Note_on_c, 1, 45, 75
1, 27504, Note_on_c, 1, 45, 0
1, 27504, Note_on_c, 1, 49, 75
1, 27545, Note_on_c, 0, 66, 0
1, 27545, Note_on_c, 0, 64, 0
1, 27549, Note_on_c, 1, 49, 0
1, 27552, Note_on_c, 0, 74, 91
1, 27552, Note_on_c, 0, 66, 91
1, 27552, Note_on_c, 1, 47, 75
1, 27597, Note_on_c, 1, 47, 0
1, 27600, Note_on_c, 1, 45, 75
1, 27645, Note_on_c, 1, 45, 0
1, 27648, Note_on_c, 0, 74, 0
1, 27648, Note_on_c, 0, 66, 0
1, 27648, Note_on_c, 0, 66, 75
1, 27648, Note_on_c, 0, 62, 75
1, 27648, Note_on_c, 1, 47, 75
1, 27693, Note_on_c, 1, 47, 0
1, 27696, Note_on_c, 1, 45, 75
1, 27737, Note_on_c, 0, 66, 0
1, 27737, Note_on_c, 0, 62, 0
1, 27741, Note_on_c, 1, 45, 0
1, 27744, Note_on_c, 0, 64, 75
1, 27744, Note_on_c, 0, 62, 75
1, 27744, Note_on_c, 1, 44, 75
1, 27783, Note_on_c, 1, 44, 0
1, 27833, Note_on_c, 0, 64, 0
1, 27833, Note_on_c, 0, 62, 0
1, 27840, Note_on_c, 0, 74, 91
1, 27840, Note_on_c, 0, 71, 91
1, 27840, Note_on_c, 1, 44, 75
1, 27885, Note_on_c, 1, 44, 0
1, 27888, Note_on_c, 1, 40, 75
1, 27933, Note_on_c, 1, 40, 0
1, 27936, Note_on_c, 1, 42, 75
1, 27981, Note_on_c, 1, 42, 0
1, 27984, Note_on_c, 0, 74, 0
1, 27984, Note_on_c, 0, 71, 0
1, 27984, Note_on_c, 0, 74, 75
1, 27984, Note_on_c, 0, 71, 75
1, 27984, Note_on_c, 1, 44, 75
1, 28029, Note_on_c, 0, 74, 0
1, 28029, Note_on_c, 0, 71, 0
1, 28029, Note_on_c, 1, 44, 0
1, 28032, Note_on_c, 0, 73, 75
1, 28032, Note_on_c, 1, 45, 75
1, 28071, Note_on_c, 1, 45, 0
1, 28077, Note_on_c, 0, 73, 0
1, 28080, Note_on_c, 0, 71, 75
1, 28125, Note_on_c, 0, 71, 0
1, 28128, Note_on_c, 0, 69, 75
1, 28128, Note_on_c, 1, 50, 91
1, 28173, Note_on_c, 0, 69, 0
1, 28176, Note_on_c, 0, 68, 75
1, 28221, Note_on_c, 0, 68, 0
1, 28224, Note_on_c, 0, 69, 91
1, 28224, Note_on_c, 1, 50, 0
1, 28224, Note_on_c, 1, 49, 75
1, 28296, Note_on_c, 0, 69, 0
1, 28296, Note_on_c, 0, 64, 75
1, 28296, Note_on_c, 0, 61, 75
1, 28313, Note_on_c, 1, 49, 0
1, 28319, Note_on_c, 0, 64, 0
1, 28319, Note_on_c, 0, 61, 0
1, 28320, Note_on_c, 0, 66, 74
1, 28320, Note_on_c, 0, 62, 74
1, 28320, Note_on_c, 1, 50, 75
1, 28387, Note_on_c, 0, 66, 0
1, 28387, Note_on_c, 0, 62, 0
1, 28392, Note_on_c, 0, 62, 72
1, 28392, Note_on_c, 0, 59, 72
1, 28409, Note_on_c, 1, 50, 0
1, 28415, Note_on_c, 0, 62, 0
1, 28415, Note_on_c, 0, 59, 0
1, 28416, Note_on_c, 0, 61, 72
1, 28416, Note_on_c, 0, 57, 72
1, 28416, Note_on_c, 1, 52, 75
1, 28505, Note_on_c, 0, 61, 0
1, 28505, Note_on_c, 0, 57, 0
1, 28505, Note_on_c, 1, 52, 0
1, 28512, Note_on_c, 0, 59, 70
1, 28512, Note_on_c, 0, 56, 70
1, 28512, Note_on_c, 1, 52, 75
1, 28601, Note_on_c, 0, 59, 0
1, 28601, Note_on_c, 0, 56, 0
1, 28601, Note_on_c, 1, 52, 0
1, 28608, Note_on_c, 1, 52, 80
1, 28608, Note_on_c, 1, 48, 80
1, 28608, Note_on_c, 1, 45, 80
1, 28656, Note_on_c, 0, 69, 75
1, 28697, Note_on_c, 1, 52, 0
1, 28697, Note_on_c, 1, 48, 0
1, 28697, Note_on_c, 1, 45, 0
1, 28701, Note_on_c, 0, 69, 0
1, 28704, Note_on_c, 0, 68, 75
1, 28749, Note_on_c, 0, 68, 0
1, 28752, Note_on_c, 0, 69, 75
1, 28797, Note_on_c, 0, 69, 0
1, 28800, Note_on_c, 0, 72, 75
1, 28820, Note_on_c, 0, 72, 0
1, 28848, Note_on_c, 0, 69, 75
1, 28868, Note_on_c, 0, 69, 0
1, 28896, Note_on_c, 1, 52, 80
1, 28896, Note_on_c, 1, 47, 80
1, 28896, Note_on_c, 1, 44, 80
1, 28944, Note_on_c, 0, 74, 75
1, 28985, Note_on_c, 1, 52, 0
1, 28985, Note_on_c, 1, 47, 0
1, 28985, Note_on_c, 1, 44, 0
1, 28989, Note_on_c, 0, 74, 0
1, 28992, Note_on_c, 0, 73, 75
1, 29037, Note_on_c, 0, 73, 0
1, 29040, Note_on_c, 0, 74, 75
1, 29085, Note_on_c, 0, 74, 0
1, 29088, Note_on_c, 0, 83, 75
1, 29108, Note_on_c, 0, 83, 0
1, 29136, Note_on_c, 0, 74, 75
1, 29156, Note_on_c, 0, 74, 0
1, 29184, Note_on_c, 1, 52, 80
1, 29184, Note_on_c, 1, 48, 80
1, 29184, Note_on_c, 1, 45, 80
1, 29232, Note_on_c, 0, 72, 75
1, 29232, Note_on_c, 0, 69, 75
1, 29273, Note_on_c, 1, 52, 0
1, 29273, Note_on_c, 1, 48, 0
1, 29273, Note_on_c, 1, 45, 0
1, 29277, Note_on_c, 0, 72, 0
1, 29277, Note_on_c, 0, 69, 0
1, 29280, Note_on_c, 0, 71, 75
1, 29280, Note_on_c, 0, 68, 75
1, 29325, Note_on_c, 0, 71, 0
1, 29325, Note_on_c, 0, 68, 0
1, 29328, Note_on_c, 0, 72, 75
1, 29328, Note_on_c, 0, 69, 75
1, 29373, Note_on_c, 0, 72, 0
1, 29373, Note_on_c, 0, 69, 0
1, 29376, Note_on_c, 0, 76, 75
1, 29376, Note_on_c, 0, 72, 75
1, 29396, Note_on_c, 0, 76, 0
1, 29396, Note_on_c, 0, 72, 0
1, 29424, Note_on_c, 0, 72, 75
1, 29424, Note_on_c, 0, 69, 75
1, 29444, Note_on_c, 0, 72, 0
1, 29444, Note_on_c, 0, 69, 0
1, 29472, Note_on_c, 1, 52, 80
1, 29472, Note_on_c, 1, 47, 80
1, 29472, Note_on_c, 1, 44, 80
1, 29520, Note_on_c, 0, 83, 75
1, 29520, Note_on_c, 0, 80, 75
1, 29561, Note_on_c, 1, 52, 0
1, 29561, Note_on_c, 1, 47, 0
1, 29561, Note_on_c, 1, 44, 0
1, 29565, Note_on_c, 0, 83, 0
1, 29565, Note_on_c, 0, 80, 0
1, 29568, Note_on_c, 0, 86, 75
1, 29568, Note_on_c, 0, 83, 75
1, 29613, Note_on_c, 0, 86, 0
1, 29613, Note_on_c, 0, 83, 0
1, 29616, Note_on_c, 0, 89, 75
1, 29616, Note_on_c, 0, 86, 75
1, 29661, Note_on_c, 0, 89, 0
1, 29661, Note_on_c, 0, 86, 0
1, 29664, Note_on_c, 0, 88, 75
1, 29664, Note_on_c, 0, 84, 75
1, 29684, Note_on_c, 0, 88, 0
1, 29684, Note_on_c, 0, 84, 0
1, 29712, Note_on_c, 0, 86, 75
1, 29712, Note_on_c, 0, 83, 75
1, 29732, Note_on_c, 0, 86, 0
1, 29732, Note_on_c, 0, 83, 0
1, 29760, Note_on_c, 0, 84, 75
1, 29760, Note_on_c, 0, 81, 75
1, 29760, Note_on_c, 1, 69, 64
1, 29799, Note_on_c, 0, 84, 0
1, 29799, Note_on_c, 0, 81, 0
1, 29805, Note_on_c, 1, 69, 0
1, 29808, Note_on_c, 1, 76, 64
1, 29853, Note_on_c, 1, 76, 0
1, 29856, Note_on_c, 0, 57, 91
1, 29856, Note_on_c, 1, 72, 64
1, 29901, Note_on_c, 1, 72, 0
1, 29904, Note_on_c, 1, 76, 64
1, 29949, Note_on_c, 1, 76, 0
1, 29952, Note_on_c, 0, 57, 0
1, 29952, Note_on_c, 0, 84, 75
1, 29952, Note_on_c, 0, 81, 75
1, 29952, Note_on_c, 1, 69, 64
1, 29991, Note_on_c, 0, 84, 0
1, 29991, Note_on_c, 0, 81, 0
1, 29997, Note_on_c, 1, 69, 0
1, 30000, Note_on_c, 1, 76, 64
1, 30045, Note_on_c, 1, 76, 0
1, 30048, Note_on_c, 0, 83, 75
1, 30048, Note_on_c, 0, 80, 75
1, 30048, Note_on_c, 1, 68, 64
1, 30087, Note_on_c, 0, 83, 0
1, 30087, Note_on_c, 0, 80, 0
1, 30093, Note_on_c, 1, 68, 0
1, 30096, Note_on_c, 1, 76, 64
1, 30141, Note_on_c, 1, 76, 0
1, 30144, Note_on_c, 0, 56, 91
1, 30144, Note_on_c, 1, 74, 64
1, 30189, Note_on_c, 1, 74, 0
1, 30192, Note_on_c, 1, 76, 64
1, 30237, Note_on_c, 1, 76, 0
1, 30240, Note_on_c, 0, 56, 0
1, 30240, Note_on_c, 0, 83, 75
1, 30240, Note_on_c, 0, 80, 75
1, 30240, Note_on_c, 1, 68, 64
1, 30279, Note_on_c, 0, 83, 0
1, 30279, Note_on_c, 0, 80, 0
1, 30285, Note_on_c, 1, 68, 0
1, 30288, Note_on_c, 1, 76, 64
1, 30333, Note_on_c, 1, 76, 0
1, 30336, Note_on_c, 0, 84, 75
1, 30336, Note_on_c, 0, 81, 75
1, 30336, Note_on_c, 1, 69, 64
1, 30375, Note_on_c, 0, 84, 0
1, 30375, Note_on_c, 0, 81, 0
1, 30381, Note_on_c, 1, 69, 0
1, 30384, Note_on_c, 1, 76, 65
1, 30429, Note_on_c, 1, 76, 0
1, 30432, Note_on_c, 0, 57, 91
1, 30432, Note_on_c, 1, 72, 66
1, 30477, Note_on_c, 1, 72, 0
1, 30480, Note_on_c, 1, 76, 67
1, 30525, Note_on_c, 1, 76, 0
1, 30528, Note_on_c, 0, 57, 0
1, 30528, Note_on_c, 0, 84, 75
1, 30528, Note_on_c, 0, 81, 75
1, 30528, Note_on_c, 1, 69, 68
1, 30567, Note_on_c, 0, 84, 0
1, 30567, Note_on_c, 0, 81, 0
1, 30573, Note_on_c, 1, 69, 0
1, 30576, Note_on_c, 1, 76, 69
1, 30621, Note_on_c, 1, 76, 0
1, 30624, Note_on_c, 0, 86, 75
1, 30624, Note_on_c, 0, 83, 75
1, 30624, Note_on_c, 1, 67, 70
1, 30663, Note_on_c, 0, 86, 0
1, 30663, Note_on_c, 0, 83, 0
1, 30669, Note_on_c, 1, 67, 0
1, 30672, Note_on_c, 1, 74, 70
1, 30717, Note_on_c, 1, 74, 0
1, 30720, Note_on_c, 0, 55, 91
1, 30720, Note_on_c, 0, 43, 91
1, 30720, Note_on_c, 1, 71, 70
1, 30765, Note_on_c, 1, 71, 0
1, 30768, Note_on_c, 1, 74, 70
1, 30813, Note_on_c, 1, 74, 0
1, 30816, Note_on_c, 0, 55, 0
1, 30816, Note_on_c, 0, 43, 0
1, 30816, Note_on_c, 0, 86, 75
1, 30816, Note_on_c, 0, 83, 75
1, 30816, Note_on_c, 1, 67, 70
1, 30855, Note_on_c, 0, 86, 0
1, 30855, Note_on_c, 0, 83, 0
1, 30861, Note_on_c, 1, 67, 0
1, 30864, Note_on_c, 1, 74, 70
1, 30909, Note_on_c, 1, 74, 0
1, 30912, Note_on_c, 0, 88, 80
1, 30912, Note_on_c, 1, 60, 89
1, 30912, Note_on_c, 1, 55, 89
1, 30912, Note_on_c, 1, 52, 89
1, 30912, Note_on_c, 1, 48, 89
1, 30935, Note_on_c, 0, 88, 0
1, 30936, Note_on_c, 0, 86, 80
1, 30959, Note_on_c, 0, 86, 0
1, 30960, Note_on_c, 0, 84, 80
1, 30983, Note_on_c, 0, 84, 0
1, 30984, Note_on_c, 0, 83, 80
1, 31001, Note_on_c, 1, 60, 0
1, 31001, Note_on_c, 1, 55, 0
1, 31001, Note_on_c, 1, 52, 0
1, 31001, Note_on_c, 1, 48, 0
1, 31007, Note_on_c, 0, 83, 0
1, 31008, Note_on_c, 0, 81, 80
1, 31031, Note_on_c, 0, 81, 0
1, 31032, Note_on_c, 0, 79, 80
1, 31055, Note_on_c, 0, 79, 0
1, 31056, Note_on_c, 0, 77, 80
1, 31079, Note_on_c, 0, 77, 0
1, 31080, Note_on_c, 0, 76, 80
1, 31103, Note_on_c, 0, 76, 0
1, 31104, Note_on_c, 0, 74, 80
1, 31127, Note_on_c, 0, 74, 0
1, 31128, Note_on_c, 0, 72, 80
1, 31151, Note_on_c, 0, 72, 0
1, 31152, Note_on_c, 0, 71, 80
1, 31175, Note_on_c, 0, 71, 0
1, 31176, Note_on_c, 0, 69, 80
1, 31199, Note_on_c, 0, 69, 0
1, 31200, Note_on_c, 0, 70, 80
1, 31200, Note_on_c, 1, 58, 89
1, 31200, Note_on_c, 1, 53, 89
1, 31200, Note_on_c, 1, 50, 89
1, 31200, Note_on_c, 1, 46, 89
1, 31223, Note_on_c, 0, 70, 0
1, 31224, Note_on_c, 0, 62, 80
1, 31247, Note_on_c, 0, 62, 0
1, 31248, Note_on_c, 0, 65, 80
1, 31271, Note_on_c, 0, 65, 0
1, 31272, Note_on_c, 0, 70, 80
1, 31289, Note_on_c, 1, 58, 0
1, 31289, Note_on_c, 1, 53, 0
1, 31289, Note_on_c, 1, 50, 0
1, 31289, Note_on_c, 1, 46, 0
1, 31295, Note_on_c, 0, 70, 0
1, 31296, Note_on_c, 0, 74, 80
1, 31319, Note_on_c, 0, 74, 0
1, 31320, Note_on_c, 0, 65, 80
1, 31343, Note_on_c, 0, 65, 0
1, 31344, Note_on_c, 0, 70, 80
1, 31367, Note_on_c, 0, 70, 0
1, 31368, Note_on_c, 0, 74, 80
1, 31391, Note_on_c, 0, 74, 0
1, 31392, Note_on_c, 0, 77, 99
1, 31431, Note_on_c, 0, 77, 0
1, 31488, Note_on_c, 0, 77, 80
1, 31488, Note_on_c, 1, 56, 89
1, 31488, Note_on_c, 1, 44, 89
1, 31511, Note_on_c, 0, 77, 0
1, 31512, Note_on_c, 0, 71, 80
1, 31535, Note_on_c, 0, 71, 0
1, 31536, Note_on_c, 0, 74, 80
1, 31559, Note_on_c, 0, 74, 0
1, 31560, Note_on_c, 0, 77, 80
1, 31577, Note_on_c, 1, 56, 0
1, 31577, Note_on_c, 1, 44, 0
1, 31583, Note_on_c, 0, 77, 0
1, 31584, Note_on_c, 0, 83, 80
1, 31607, Note_on_c, 0, 83, 0
1, 31608, Note_on_c, 0, 74, 80
1, 31631, Note_on_c, 0, 74, 0
1, 31632, Note_on_c, 0, 77, 80
1, 31655, Note_on_c, 0, 77, 0
1, 31656, Note_on_c, 0, 83, 80
1, 31679, Note_on_c, 0, 83, 0
1, 31680, Note_on_c, 0, 86, 99
1, 31719, Note_on_c, 0, 86, 0
1, 31776, Note_on_c, 0, 76, 80
1, 31776, Note_on_c, 1, 55, 89
1, 31776, Note_on_c, 1, 43, 89
1, 31799, Note_on_c, 0, 76, 0
1, 31800, Note_on_c, 0, 69, 80
1, 31823, Note_on_c, 0, 69, 0
1, 31824, Note_on_c, 0, 64, 80
1, 31847, Note_on_c, 0, 64, 0
1, 31848, Note_on_c, 0, 69, 80
1, 31865, Note_on_c, 1, 55, 0
1, 31865, Note_on_c, 1, 43, 0
1, 31871, Note_on_c, 0, 69, 0
1, 31872, Note_on_c, 0, 73, 80
1, 31895, Note_on_c, 0, 73, 0
1, 31896, Note_on_c, 0, 69, 80
1, 31919, Note_on_c, 0, 69, 0
1, 31920, Note_on_c, 0, 73, 80
1, 31943, Note_on_c, 0, 73, 0
1, 31944, Note_on_c, 0, 76, 80
1, 31967, Note_on_c, 0, 76, 0
1, 31968, Note_on_c, 0, 81, 99
1, 32007, Note_on_c, 0, 81, 0
1, 32064, Note_on_c, 0, 74, 80
1, 32064, Note_on_c, 1, 53, 89
1, 32064, Note_on_c, 1, 41, 89
1, 32087, Note_on_c, 0, 74, 0
1, 32088, Note_on_c, 0, 69, 80
1, 32111, Note_on_c, 0, 69, 0
1, 32112, Note_on_c, 0, 65, 80
1, 32135, Note_on_c, 0, 65, 0
1, 32136, Note_on_c, 0, 69, 80
1, 32153, Note_on_c, 1, 53, 0
1, 32153, Note_on_c, 1, 41, 0
1, 32159, Note_on_c, 0, 69, 0
1, 32160, Note_on_c, 0, 74, 80
1, 32183, Note_on_c, 0, 74, 0
1, 32184, Note_on_c, 0, 69, 80
1, 32207, Note_on_c, 0, 69, 0
1, 32208, Note_on_c, 0, 74, 80
1, 32231, Note_on_c, 0, 74, 0
1, 32232, Note_on_c, 0, 77, 80
1, 32255, Note_on_c, 0, 77, 0
1, 32256, Note_on_c, 0, 81, 99
1, 32295, Note_on_c, 0, 81, 0
1, 32352, Note_on_c, 0, 68, 75
1, 32352, Note_on_c, 1, 64, 70
1, 32352, Note_on_c, 1, 52, 70
1, 32372, Note_on_c, 0, 68, 0
1, 32400, Note_on_c, 0, 77, 91
1, 32400, Note_on_c, 0, 74, 91
1, 32496, Note_on_c, 0, 77, 0
1, 32496, Note_on_c, 0, 74, 0
1, 32496, Note_on_c, 0, 76, 75
1, 32496, Note_on_c, 0, 72, 75
1, 32529, Note_on_c, 1, 64, 0
1, 32529, Note_on_c, 1, 52, 0
1, 32541, Note_on_c, 0, 76, 0
1, 32541, Note_on_c, 0, 72, 0
1, 32544, Note_on_c, 0, 74, 75
1, 32544, Note_on_c, 0, 71, 75
1, 32589, Note_on_c, 0, 74, 0
1, 32589, Note_on_c, 0, 71, 0
1, 32592, Note_on_c, 0, 72, 75
1, 32592, Note_on_c, 0, 69, 75
1, 32637, Note_on_c, 0, 72, 0
1, 32637, Note_on_c, 0, 69, 0
1, 32640, Note_on_c, 0, 71, 75
1, 32640, Note_on_c, 0, 68, 75
1, 32640, Note_on_c, 1, 64, 70
1, 32640, Note_on_c, 1, 52, 70
1, 32660, Note_on_c, 0, 71, 0
1, 32660, Note_on_c, 0, 68, 0
1, 32688, Note_on_c, 0, 65, 91
1, 32688, Note_on_c, 0, 62, 91
1, 32784, Note_on_c, 0, 65, 0
1, 32784, Note_on_c, 0, 62, 0
1, 32784, Note_on_c, 0, 64, 75
1, 32784, Note_on_c, 0, 60, 75
1, 32817, Note_on_c, 1, 64, 0
1, 32817, Note_on_c, 1, 52, 0
1, 32829, Note_on_c, 0, 64, 0
1, 32829, Note_on_c, 0, 60, 0
1, 32832, Note_on_c, 0, 62, 75
1, 32832, Note_on_c, 0, 59, 75
1, 32877, Note_on_c, 0, 62, 0
1, 32877, Note_on_c, 0, 59, 0
1, 32880, Note_on_c, 0, 60, 75
1, 32880, Note_on_c, 0, 57, 75
1, 32925, Note_on_c, 0, 60, 0
1, 32925, Note_on_c, 0, 57, 0
1, 32928, Note_on_c, 0, 59, 75
1, 32928, Note_on_c, 0, 56, 75
1, 32928, Note_on_c, 1, 64, 70
1, 32928, Note_on_c, 1, 52, 70
1, 32973, Note_on_c, 0, 59, 0
1, 32973, Note_on_c, 0, 56, 0
1, 32976, Note_on_c, 0, 64, 75
1, 33017, Note_on_c, 1, 64, 0
1, 33017, Note_on_c, 1, 52, 0
1, 33021, Note_on_c, 0, 64, 0
1, 33024, Note_on_c, 0, 76, 75
1, 33072, Note_on_c, 1, 48, 70
1, 33117, Note_on_c, 1, 48, 0
1, 33120, Note_on_c, 1, 50, 70
1, 33157, Note_on_c, 0, 76, 0
1, 33168, Note_on_c, 0, 74, 75
1, 33168, Note_on_c, 0, 65, 75
1, 33209, Note_on_c, 1, 50, 0
1, 33213, Note_on_c, 0, 74, 0
1, 33213, Note_on_c, 0, 65, 0
1, 33216, Note_on_c, 0, 72, 75
1, 33216, Note_on_c, 0, 64, 75
1, 33216, Note_on_c, 1, 52, 70
1, 33261, Note_on_c, 0, 72, 0
1, 33261, Note_on_c, 0, 64, 0
1, 33264, Note_on_c, 0, 71, 75
1, 33264, Note_on_c, 0, 62, 75
1, 33305, Note_on_c, 1, 52, 0
1, 33309, Note_on_c, 0, 71, 0
1, 33309, Note_on_c, 0, 62, 0
1, 33312, Note_on_c, 0, 69, 75
1, 33312, Note_on_c, 0, 60, 75
1, 33312, Note_on_c, 1, 52, 70
1, 33357, Note_on_c, 0, 69, 0
1, 33357, Note_on_c, 0, 60, 0
1, 33360, Note_on_c, 0, 68, 75
1, 33360, Note_on_c, 0, 59, 75
1, 33401, Note_on_c, 1, 52, 0
1, 33405, Note_on_c, 0, 68, 0
1, 33405, Note_on_c, 0, 59, 0
1, 33408, Note_on_c, 0, 69, 75
1, 33408, Note_on_c, 0, 60, 75
1, 33408, Note_on_c, 1, 45, 70
1, 33475, Note_on_c, 0, 69, 0
1, 33475, Note_on_c, 0, 60, 0
1, 33480, Note_on_c, 0, 64, 74
1, 33497, Note_on_c, 1, 45, 0
1, 33503, Note_on_c, 0, 64, 0
1, 33504, Note_on_c, 0, 65, 73
1, 33504, Note_on_c, 1, 57, 68
1, 33504, Note_on_c, 1, 53, 68
1, 33504, Note_on_c, 1, 50, 68
1, 33571, Note_on_c, 0, 65, 0
1, 33576, Note_on_c, 0, 62, 72
1, 33593, Note_on_c, 1, 57, 0
1, 33593, Note_on_c, 1, 53, 0
1, 33593, Note_on_c, 1, 50, 0
1, 33599, Note_on_c, 0, 62, 0
1, 33600, Note_on_c, 0, 60, 72
1, 33600, Note_on_c, 1, 57, 67
1, 33600, Note_on_c, 1, 52, 67
1, 33689, Note_on_c, 0, 60, 0
1, 33689, Note_on_c, 1, 57, 0
1, 33689, Note_on_c, 1, 52, 0
1, 33696, Note_on_c, 0, 59, 71
1, 33696, Note_on_c, 1, 56, 65
1, 33696, Note_on_c, 1, 52, 65
1, 33785, Note_on_c, 0, 59, 0
1, 33785, Note_on_c, 1, 56, 0
1, 33785, Note_on_c, 1, 52, 0
1, 33792, Note_on_c, 1, 57, 64
1, 33840, Note_on_c, 0, 75, 70
1, 33881, Note_on_c, 1, 57, 0
1, 33888, Note_on_c, 0, 75, 0
1, 33888, Note_on_c, 0, 76, 70
1, 33936, Note_on_c, 1, 52, 64
1, 33936, Note_on_c, 1, 48, 64
1, 33981, Note_on_c, 1, 52, 0
1, 33981, Note_on_c, 1, 48, 0
1, 33984, Note_on_c, 1, 54, 64
1, 33984, Note_on_c, 1, 50, 64
1, 34021, Note_on_c, 0, 76, 0
1, 34029, Note_on_c, 1, 54, 0
1, 34029, Note_on_c, 1, 50, 0
1, 34032, Note_on_c, 0, 74, 70
1, 34032, Note_on_c, 1, 56, 64
1, 34032, Note_on_c, 1, 52, 64
1, 34077, Note_on_c, 0, 74, 0
1, 34077, Note_on_c, 1, 56, 0
1, 34077, Note_on_c, 1, 52, 0
1, 34080, Note_on_c, 0, 74, 86
1, 34080, Note_on_c, 1, 57, 64
1, 34080, Note_on_c, 1, 45, 64
1, 34128, Note_on_c, 0, 74, 0
1, 34128, Note_on_c, 0, 72, 70
1, 34169, Note_on_c, 1, 57, 0
1, 34169, Note_on_c, 1, 45, 0
1, 34173, Note_on_c, 0, 72, 0
1, 34176, Note_on_c, 0, 74, 71
1, 34221, Note_on_c, 0, 74, 0
1, 34224, Note_on_c, 0, 71, 72
1, 34269, Note_on_c, 0, 71, 0
1, 34272, Note_on_c, 0, 72, 73
1, 34272, Note_on_c, 1, 48, 64
1, 34272, Note_on_c, 1, 36, 64
1, 34317, Note_on_c, 0, 72, 0
1, 34320, Note_on_c, 0, 69, 74
1, 34320, Note_on_c, 0, 60, 74
1, 34361, Note_on_c, 1, 48, 0
1, 34361, Note_on_c, 1, 36, 0
1, 34365, Note_on_c, 0, 69, 0
1, 34365, Note_on_c, 0, 60, 0
1, 34368, Note_on_c, 0, 70, 75
1, 34368, Note_on_c, 0, 62, 75
1, 34368, Note_on_c, 1, 50, 64
1, 34368, Note_on_c, 1, 38, 64
1, 34413, Note_on_c, 0, 70, 0
1, 34413, Note_on_c, 0, 62, 0
1, 34416, Note_on_c, 0, 69, 75
1, 34416, Note_on_c, 0, 60, 75
1, 34457, Note_on_c, 1, 50, 0
1, 34457, Note_on_c, 1, 38, 0
1, 34461, Note_on_c, 0, 69, 0
1, 34461, Note_on_c, 0, 60, 0
1, 34464, Note_on_c, 0, 68, 74
1, 34464, Note_on_c, 0, 59, 74
1, 34464, Note_on_c, 1, 52, 64
1, 34464, Note_on_c, 1, 40, 64
1, 34509, Note_on_c, 0, 68, 0
1, 34509, Note_on_c, 0, 59, 0
1, 34512, Note_on_c, 0, 65, 73
1, 34512, Note_on_c, 0, 57, 73
1, 34553, Note_on_c, 1, 52, 0
1, 34553, Note_on_c, 1, 40, 0
1, 34557, Note_on_c, 0, 65, 0
1, 34557, Note_on_c, 0, 57, 0
1, 34560, Note_on_c, 0, 64, 73
1, 34560, Note_on_c, 0, 56, 73
1, 34560, Note_on_c, 1, 52, 64
1, 34560, Note_on_c, 1, 40, 64
1, 34605, Note_on_c, 0, 64, 0
1, 34605, Note_on_c, 0, 56, 0
1, 34608, Note_on_c, 0, 62, 72
1, 34608, Note_on_c, 0, 53, 72
1, 34649, Note_on_c, 1, 52, 0
1, 34649, Note_on_c, 1, 40, 0
1, 34653, Note_on_c, 0, 62, 0
1, 34653, Note_on_c, 0, 53, 0
1, 34656, Note_on_c, 0, 62, 72
1, 34656, Note_on_c, 0, 53, 72
1, 34656, Note_on_c, 1, 45, 64
1, 34701, Note_on_c, 0, 62, 0
1, 34701, Note_on_c, 0, 53, 0
1, 34704, Note_on_c, 0, 60, 71
1, 34704, Note_on_c, 0, 52, 71
1, 34745, Note_on_c, 1, 45, 0
1, 34749, Note_on_c, 0, 60, 0
1, 34749, Note_on_c, 0, 52, 0
1, 34752, Note_on_c, 0, 59, 71
1, 34752, Note_on_c, 0, 50, 71
1, 34797, Note_on_c, 0, 59, 0
1, 34797, Note_on_c, 0, 50, 0
1, 34800, Note_on_c, 0, 57, 70
1, 34800, Note_on_c, 0, 48, 70
1, 34845, Note_on_c, 0, 57, 0
1, 34845, Note_on_c, 0, 48, 0
1, 34848, Note_on_c, 1, 52, 80
1, 34866, Note_on_c, 1, 52, 0
1, 34866, Note_on_c, 1, 51, 80
1, 34884, Note_on_c, 1, 51, 0
1, 34884, Note_on_c, 1, 52, 80
1, 34896, Note_on_c, 1, 36, 80
1, 34916, Note_on_c, 1, 36, 0
1, 34944, Tempo, 444444
1, 34944, Note_on_c, 1, 38, 80
1, 34989, Note_on_c, 1, 52, 0
1, 34992, Note_on_c, 1, 50, 80
1, 35033, Note_on_c, 1, 38, 0
1, 35037, Note_on_c, 1, 50, 0
1, 35040, Tempo, 461538
1, 35040, Note_on_c, 1, 48, 80
1, 35040, Note_on_c, 1, 40, 80
1, 35085, Note_on_c, 1, 48, 0
1, 35088, Note_on_c, 1, 47, 80
1, 35129, Note_on_c, 1, 40, 0
1, 35133, Note_on_c, 1, 47, 0
1, 35136, Tempo, 480000
1, 35136, Note_on_c, 1, 45, 80
1, 35136, Note_on_c, 1, 40, 80
1, 35181, Note_on_c, 1, 45, 0
1, 35184, Note_on_c, 1, 44, 80
1, 35225, Note_on_c, 1, 40, 0
1, 35229, Note_on_c, 1, 44, 0
1, 35232, Tempo, 500000
1, 35232, Note_on_c, 1, 45, 80
1, 35232, Note_on_c, 1, 45, 80
1, 35280, Tempo, 400000
1, 35280, Note_on_c, 0, 69, 75
1, 35325, Note_on_c, 0, 69, 0
1, 35325, Note_on_c, 1, 45, 0
1, 35325, Note_on_c, 1, 45, 0
1, 35328, Note_on_c, 0, 81, 91
1, 35328, Note_on_c, 0, 72, 91
1, 35328, Note_on_c, 1, 65, 75
1, 35373, Note_on_c, 1, 65, 0
1, 35376, Note_on_c, 1, 64, 75
1, 35421, Note_on_c, 1, 64, 0
1, 35424, Note_on_c, 0, 81, 0
1, 35424, Note_on_c, 0, 72, 0
1, 35424, Note_on_c, 0, 72, 75
1, 35424, Note_on_c, 0, 69, 75
1, 35424, Note_on_c, 1, 65, 75
1, 35469, Note_on_c, 1, 65, 0
1, 35472, Note_on_c, 1, 64, 75
1, 35513, Note_on_c, 0, 72, 0
1, 35513, Note_on_c, 0, 69, 0
1, 35517, Note_on_c, 1, 64, 0
1, 35520, Note_on_c, 0, 70, 75
1, 35520, Note_on_c, 0, 69, 75
1, 35520, Note_on_c, 1, 62, 75
1, 35565, Note_on_c, 1, 62, 0
1, 35568, Note_on_c, 1, 65, 75
1, 35609, Note_on_c, 0, 70, 0
1, 35609, Note_on_c, 0, 69, 0
1, 35613, Note_on_c, 1, 65, 0
1, 35616, Note_on_c, 0, 79, 91
1, 35616, Note_on_c, 0, 70, 91
1, 35616, Note_on_c, 1, 64, 75
1, 35661, Note_on_c, 1, 64, 0
1, 35664, Note_on_c, 1, 62, 75
1, 35709, Note_on_c, 1, 62, 0
1, 35712, Note_on_c, 0, 79, 0
1, 35712, Note_on_c, 0, 70, 0
1, 35712, Note_on_c, 0, 70, 75
1, 35712, Note_on_c, 0, 67, 75
1, 35712, Note_on_c, 1, 64, 75
1, 35757, Note_on_c, 1, 64, 0
1, 35760, Note_on_c, 1, 62, 75
1, 35801, Note_on_c, 0, 70, 0
1, 35801, Note_on_c, 0, 67, 0
1, 35805, Note_on_c, 1, 62, 0
1, 35808, Note_on_c, 0, 69, 75
1, 35808, Note_on_c, 0, 67, 75
1, 35808, Note_on_c, 1, 61, 75
1, 35853, Note_on_c, 1, 61, 0
1, 35856, Note_on_c, 1, 64, 75
1, 35897, Note_on_c, 0, 69, 0
1, 35897, Note_on_c, 0, 67, 0
1, 35901, Note_on_c, 1, 64, 0
1, 35904, Note_on_c, 0, 77, 91
1, 35904, Note_on_c, 0, 69, 91
1, 35904, Note_on_c, 1, 62, 75
1, 35949, Note_on_c, 1, 62, 0
1, 35952, Note_on_c, 1, 61, 75
1, 35997, Note_on_c, 1, 61, 0
1, 36000, Note_on_c, 0, 77, 0
1, 36000, Note_on_c, 0, 69, 0
1, 36000, Note_on_c, 0, 69, 75
1, 36000, Note_on_c, 0, 65, 75
1, 36000, Note_on_c, 1, 62, 75
1, 36045, Note_on_c, 1, 62, 0
1, 36048, Note_on_c, 1, 60, 75
1, 36089, Note_on_c, 0, 69, 0
1, 36089, Note_on_c, 0, 65, 0
1, 36093, Note_on_c, 1, 60, 0
1, 36096, Note_on_c, 0, 67, 75
1, 36096, Note_on_c, 0, 65, 75
1, 36096, Note_on_c, 1, 59, 75
1, 36141, Note_on_c, 1, 59, 0
1, 36144, Note_on_c, 1, 62, 75
1, 36185, Note_on_c, 0, 67, 0
1, 36185, Note_on_c, 0, 65, 0
1, 36189, Note_on_c, 1, 62, 0
1, 36192, Note_on_c, 0, 76, 91
1, 36192, Note_on_c, 0, 67, 91
1, 36192, Note_on_c, 1, 60, 75
1, 36237, Note_on_c, 1, 60, 0
1, 36240, Note_on_c, 1, 59, 75
1, 36285, Note_on_c, 1, 59, 0
1, 36288, Note_on_c, 0, 76, 0
1, 36288, Note_on_c, 0, 67, 0
1, 36288, Note_on_c, 0, 67, 75
1, 36288, Note_on_c, 0, 64, 75
1, 36288, Note_on_c, 1, 60, 75
1, 36333, Note_on_c, 1, 60, 0
1, 36336, Note_on_c, 1, 58, 75
1, 36377, Note_on_c, 0, 67, 0
1, 36377, Note_on_c, 0, 64, 0
1, 36381, Note_on_c, 1, 58, 0
1, 36384, Note_on_c, 0, 65, 70
1, 36384, Note_on_c, 0, 64, 70
1, 36384, Note_on_c, 1, 57, 75
1, 36429, Note_on_c, 1, 57, 0
1, 36432, Note_on_c, 1, 60, 75
1, 36473, Note_on_c, 0, 65, 0
1, 36473, Note_on_c, 0, 64, 0
1, 36477, Note_on_c, 1, 60, 0
1, 36480, Note_on_c, 0, 74, 87
1, 36480, Note_on_c, 0, 65, 87
1, 36480, Note_on_c, 1, 58, 76
1, 36525, Note_on_c, 1, 58, 0
1, 36528, Note_on_c, 1, 57, 77
1, 36573, Note_on_c, 1, 57, 0
1, 36576, Note_on_c, 0, 74, 0
1, 36576, Note_on_c, 0, 65, 0
1, 36576, Note_on_c, 0, 65, 73
1, 36576, Note_on_c, 0, 62, 73
1, 36576, Note_on_c, 1, 58, 78
1, 36621, Note_on_c, 1, 58, 0
1, 36624, Note_on_c, 1, 57, 79
1, 36665, Note_on_c, 0, 65, 0
1, 36665, Note_on_c, 0, 62, 0
1, 36669, Note_on_c, 1, 57, 0
1, 36672, Note_on_c, 0, 64, 80
1, 36672, Note_on_c, 0, 62, 80
1, 36672, Note_on_c, 1, 56, 80
1, 36761, Note_on_c, 0, 64, 0
1, 36761, Note_on_c, 0, 62, 0
1, 36761, Note_on_c, 1, 56, 0
1, 36768, Note_on_c, 0, 74, 115
1, 36768, Note_on_c, 0, 71, 115
1, 36768, Note_on_c, 0, 68, 115
1, 36768, Note_on_c, 1, 56, 99
1, 36768, Note_on_c, 1, 44, 99
1, 36901, Note_on_c, 1, 56, 0
1, 36901, Note_on_c, 1, 44, 0
1, 36912, Note_on_c, 0, 74, 0
1, 36912, Note_on_c, 0, 71, 0
1, 36912, Note_on_c, 0, 68, 0
1, 36960, Note_on_c, 0, 72, 80
1, 36960, Note_on_c, 0, 69, 80
1, 36960, Note_on_c, 1, 57, 80
1, 36960, Note_on_c, 1, 45, 80
1, 37049, Note_on_c, 0, 72, 0
1, 37049, Note_on_c, 0, 69, 0
1, 37049, Note_on_c, 1, 57, 0
1, 37049, Note_on_c, 1, 45, 0
1, 37056, Note_on_c, 0, 81, 115
1, 37056, Note_on_c, 0, 78, 115
1, 37056, Note_on_c, 0, 72, 115
1, 37056, Note_on_c, 1, 51, 99
1, 37056, Note_on_c, 1, 39, 99
1, 37233, Note_on_c, 1, 51, 0
1, 37233, Note_on_c, 1, 39, 0
1, 37248, Tempo, 1000000
1, 37248, Note_on_c, 0, 81, 0
1, 37248, Note_on_c, 0, 78, 0
1, 37248, Note_on_c, 0, 72, 0
1, 37344, Tempo, 400000
1, 37344, Note_on_c, 0, 81, 75
1, 37344, Note_on_c, 0, 73, 75
1, 37344, Note_on_c, 1, 54, 75
1, 37389, Note_on_c, 1, 54, 0
1, 37392, Note_on_c, 1, 52, 75
1, 37437, Note_on_c, 1, 52, 0
1, 37438, Note_on_c, 0, 81, 0
1, 37438, Note_on_c, 0, 73, 0
1, 37440, Note_on_c, 0, 73, 75
1, 37440, Note_on_c, 0, 69, 75
1, 37440, Note_on_c, 1, 54, 75
1, 37485, Note_on_c, 1, 54, 0
1, 37488, Note_on_c, 1, 52, 75
1, 37529, Note_on_c, 0, 73, 0
1, 37529, Note_on_c, 0, 69, 0
1, 37533, Note_on_c, 1, 52, 0
1, 37536, Note_on_c, 0, 71, 75
1, 37536, Note_on_c, 0, 69, 75
1, 37536, Note_on_c, 1, 50, 75
1, 37584, Note_on_c, 1, 50, 0
1, 37584, Note_on_c, 1, 54, 75
1, 37625, Note_on_c, 0, 71, 0
1, 37625, Note_on_c, 0, 69, 0
1, 37629, Note_on_c, 1, 54, 0
1, 37632, Note_on_c, 0, 80, 91
1, 37632, Note_on_c, 0, 71, 91
1, 37632, Note_on_c, 1, 52, 75
1, 37677, Note_on_c, 1, 52, 0
1, 37680, Note_on_c, 1, 50, 75
1, 37725, Note_on_c, 1, 50, 0
1, 37728, Note_on_c, 0, 80, 0
1, 37728, Note_on_c, 0, 71, 0
1, 37728, Note_on_c, 0, 71, 75
1, 37728, Note_on_c, 0, 68, 75
1, 37728, Note_on_c, 1, 52, 75
1, 37773, Note_on_c, 1, 52, 0
1, 37776, Note_on_c, 1, 50, 75
1, 37817, Note_on_c, 0, 71, 0
1, 37817, Note_on_c, 0, 68, 0
1, 37821, Note_on_c, 1, 50, 0
1, 37824, Note_on_c, 0, 69, 75
1, 37824, Note_on_c, 0, 68, 75
1, 37824, Note_on_c, 1, 49, 75
1, 37872, Note_on_c, 1, 49, 0
1, 37872, Note_on_c, 1, 52, 75
1, 37913, Note_on_c, 0, 69, 0
1, 37913, Note_on_c, 0, 68, 0
1, 37917, Note_on_c, 1, 52, 0
1, 37920, Note_on_c, 0, 78, 91
1, 37920, Note_on_c, 0, 69, 91
1, 37920, Note_on_c, 1, 50, 75
1, 37965, Note_on_c, 1, 50, 0
1, 37968, Note_on_c, 1, 49, 75
1, 38013, Note_on_c, 1, 49, 0
1, 38016, Note_on_c, 0, 78, 0
1, 38016, Note_on_c, 0, 69, 0
1, 38016, Note_on_c, 0, 69, 75
1, 38016, Note_on_c, 0, 66, 75
1, 38016, Note_on_c, 1, 50, 75
1, 38061, Note_on_c, 1, 50, 0
1, 38064, Note_on_c, 1, 49, 75
1, 38105, Note_on_c, 0, 69, 0
1, 38105, Note_on_c, 0, 66, 0
1, 38109, Note_on_c, 1, 49, 0
1, 38112, Note_on_c, 0, 68, 75
1, 38112, Note_on_c, 0, 66, 75
1, 38112, Note_on_c, 1, 47, 75
1, 38160, Note_on_c, 1, 47, 0
1, 38160, Note_on_c, 1, 50, 75
1, 38201, Note_on_c, 0, 68, 0
1, 38201, Note_on_c, 0, 66, 0
1, 38205, Note_on_c, 1, 50, 0
1, 38208, Note_on_c, 0, 76, 91
1, 38208, Note_on_c, 0, 68, 91
1, 38208, Note_on_c, 1, 49, 75
1, 38253, Note_on_c, 1, 49, 0
1, 38256, Note_on_c, 1, 47, 75
1, 38301, Note_on_c, 1, 47, 0
1, 38304, Note_on_c, 0, 76, 0
1, 38304, Note_on_c, 0, 68, 0
1, 38304, Note_on_c, 0, 68, 75
1, 38304, Note_on_c, 0, 64, 75
1, 38304, Note_on_c, 1, 49, 75
1, 38349, Note_on_c, 1, 49, 0
1, 38352, Note_on_c, 1, 47, 75
1, 38393, Note_on_c, 0, 68, 0
1, 38393, Note_on_c, 0, 64, 0
1, 38397, Note_on_c, 1, 47, 0
1, 38400, Note_on_c, 0, 66, 75
1, 38400, Note_on_c, 0, 64, 75
1, 38400, Note_on_c, 1, 46, 75
1, 38448, Note_on_c, 1, 46, 0
1, 38448, Note_on_c, 1, 49, 75
1, 38489, Note_on_c, 0, 66, 0
1, 38489, Note_on_c, 0, 64, 0
1, 38493, Note_on_c, 1, 49, 0
1, 38496, Note_on_c, 0, 74, 91
1, 38496, Note_on_c, 0, 66, 91
1, 38496, Note_on_c, 1, 47, 75
1, 38541, Note_on_c, 1, 47, 0
1, 38544, Note_on_c, 1, 45, 75
1, 38589, Note_on_c, 1, 45, 0
1, 38592, Note_on_c, 0, 74, 0
1, 38592, Note_on_c, 0, 66, 0
1, 38592, Note_on_c, 0, 66, 76
1, 38592, Note_on_c, 0, 62, 76
1, 38592, Note_on_c, 1, 47, 75
1, 38637, Note_on_c, 1, 47, 0
1, 38640, Note_on_c, 1, 45, 75
1, 38681, Note_on_c, 0, 66, 0
1, 38681, Note_on_c, 0, 62, 0
1, 38685, Note_on_c, 1, 45, 0
1, 38688, Note_on_c, 0, 64, 78
1, 38688, Note_on_c, 0, 62, 78
1, 38688, Note_on_c, 1, 44, 75
1, 38727, Note_on_c, 1, 44, 0
1, 38777, Note_on_c, 0, 64, 0
1, 38777, Note_on_c, 0, 62, 0
1, 38784, Note_on_c, 0, 74, 96
1, 38784, Note_on_c, 0, 71, 96
1, 38784, Note_on_c, 0, 68, 96
1, 38784, Note_on_c, 1, 44, 75
1, 38804, Note_on_c, 1, 44, 0
1, 38832, Note_on_c, 1, 40, 75
1, 38852, Note_on_c, 1, 40, 0
1, 38880, Note_on_c, 1, 42, 75
1, 38900, Note_on_c, 1, 42, 0
1, 38928, Note_on_c, 0, 74, 0
1, 38928, Note_on_c, 0, 71, 0
1, 38928, Note_on_c, 0, 68, 0
1, 38928, Note_on_c, 0, 74, 80
1, 38928, Note_on_c, 0, 71, 80
1, 38928, Note_on_c, 1, 44, 75
1, 38948, Note_on_c, 1, 44, 0
1, 38973, Note_on_c, 0, 74, 0
1, 38973, Note_on_c, 0, 71, 0
1, 38976, Note_on_c, 0, 73, 80
1, 38976, Note_on_c, 1, 45, 75
1, 39015, Note_on_c, 1, 45, 0
1, 39021, Note_on_c, 0, 73, 0
1, 39024, Note_on_c, 0, 71, 79
1, 39069, Note_on_c, 0, 71, 0
1, 39072, Note_on_c, 0, 69, 79
1, 39072, Note_on_c, 1, 50, 91
1, 39117, Note_on_c, 0, 69, 0
1, 39120, Note_on_c, 0, 68, 78
1, 39165, Note_on_c, 0, 68, 0
1, 39168, Note_on_c, 0, 69, 78
1, 39168, Note_on_c, 1, 50, 0
1, 39168, Note_on_c, 1, 49, 75
1, 39191, Note_on_c, 0, 69, 0
1, 39192, Note_on_c, 0, 68, 78
1, 39215, Note_on_c, 0, 68, 0
1, 39216, Note_on_c, 0, 69, 77
1, 39239, Note_on_c, 0, 69, 0
1, 39240, Note_on_c, 0, 64, 77
1, 39257, Note_on_c, 1, 49, 0
1, 39263, Note_on_c, 0, 64, 0
1, 39264, Note_on_c, 0, 68, 77
1, 39264, Note_on_c, 1, 50, 75
1, 39287, Note_on_c, 0, 68, 0
1, 39288, Note_on_c, 0, 66, 77
1, 39311, Note_on_c, 0, 66, 0
1, 39312, Note_on_c, 0, 64, 77
1, 39335, Note_on_c, 0, 64, 0
1, 39336, Note_on_c, 0, 62, 76
1, 39353, Note_on_c, 1, 50, 0
1, 39359, Note_on_c, 0, 62, 0
1, 39360, Note_on_c, 0, 61, 76
1, 39360, Note_on_c, 1, 52, 75
1, 39449, Note_on_c, 0, 61, 0
1, 39449, Note_on_c, 1, 52, 0
1, 39456, Note_on_c, 0, 59, 75
1, 39456, Note_on_c, 1, 40, 75
1, 39468, Note_on_c, 0, 59, 0
1, 39468, Note_on_c, 0, 61, 75
1, 39480, Note_on_c, 0, 61, 0
1, 39480, Note_on_c, 0, 59, 75
1, 39545, Note_on_c, 0, 59, 0
1, 39545, Note_on_c, 1, 40, 0
1, 39552, Note_on_c, 1, 52, 70
1, 39552, Note_on_c, 1, 49, 70
1, 39552, Note_on_c, 1, 45, 70
1, 39576, Note_on_c, 0, 69, 75
1, 39599, Note_on_c, 0, 69, 0
1, 39600, Note_on_c, 0, 68, 75
1, 39623, Note_on_c, 0, 68, 0
1, 39624, Note_on_c, 0, 69, 75
1, 39641, Note_on_c, 1, 52, 0
1, 39641, Note_on_c, 1, 49, 0
1, 39641, Note_on_c, 1, 45, 0
1, 39647, Note_on_c, 0, 69, 0
1, 39648, Note_on_c, 0, 73, 75
1, 39671, Note_on_c, 0, 73, 0
1, 39672, Note_on_c, 0, 69, 75
1, 39695, Note_on_c, 0, 69, 0
1, 39696, Note_on_c, 0, 68, 75
1, 39719, Note_on_c, 0, 68, 0
1, 39720, Note_on_c, 0, 69, 75
1, 39743, Note_on_c, 0, 69, 0
1, 39744, Note_on_c, 0, 76, 75
1, 39767, Note_on_c, 0, 76, 0
1, 39768, Note_on_c, 0, 69, 75
1, 39791, Note_on_c, 0, 69, 0
1, 39792, Note_on_c, 0, 68, 75
1, 39815, Note_on_c, 0, 68, 0
1, 39816, Note_on_c, 0, 69, 75
1, 39839, Note_on_c, 0, 69, 0
1, 39840, Note_on_c, 1, 52, 70
1, 39840, Note_on_c, 1, 47, 70
1, 39840, Note_on_c, 1, 44, 70
1, 39864, Note_on_c, 0, 71, 75
1, 39887, Note_on_c, 0, 71, 0
1, 39888, Note_on_c, 0, 70, 75
1, 39911, Note_on_c, 0, 70, 0
1, 39912, Note_on_c, 0, 71, 75
1, 39929, Note_on_c, 1, 52, 0
1, 39929, Note_on_c, 1, 47, 0
1, 39929, Note_on_c, 1, 44, 0
1, 39935, Note_on_c, 0, 71, 0
1, 39936, Note_on_c, 0, 74, 75
1, 39959, Note_on_c, 0, 74, 0
1, 39960, Note_on_c, 0, 71, 75
1, 39983, Note_on_c, 0, 71, 0
1, 39984, Note_on_c, 0, 68, 75
1, 40007, Note_on_c, 0, 68, 0
1, 40008, Note_on_c, 0, 71, 75
1, 40031, Note_on_c, 0, 71, 0
1, 40032, Note_on_c, 0, 64, 75
1, 40055, Note_on_c, 0, 64, 0
1, 40056, Note_on_c, 0, 74, 75
1, 40079, Note_on_c, 0, 74, 0
1, 40080, Note_on_c, 0, 73, 75
1, 40103, Note_on_c, 0, 73, 0
1, 40104, Note_on_c, 0, 71, 75
1, 40127, Note_on_c, 0, 71, 0
1, 40128, Note_on_c, 0, 73, 75
1, 40128, Note_on_c, 0, 69, 75
1, 40128, Note_on_c, 0, 64, 75
1, 40128, Note_on_c, 1, 45, 80
1, 40151, Note_on_c, 1, 45, 0
1, 40152, Note_on_c, 1, 52, 80
1, 40167, Note_on_c, 0, 73, 0
1, 40167, Note_on_c, 0, 69, 0
1, 40167, Note_on_c, 0, 64, 0
1, 40175, Note_on_c, 1, 52, 0
1, 40176, Note_on_c, 1, 49, 80
1, 40199, Note_on_c, 1, 49, 0
1, 40200, Note_on_c, 1, 52, 80
1, 40223, Note_on_c, 1, 52, 0
1, 40224, Note_on_c, 1, 45, 80
1, 40247, Note_on_c, 1, 45, 0
1, 40248, Note_on_c, 1, 52, 80
1, 40271, Note_on_c, 1, 52, 0
1, 40272, Note_on_c, 1, 49, 80
1, 40295, Note_on_c, 1, 49, 0
1, 40296, Note_on_c, 1, 52, 80
1, 40319, Note_on_c, 1, 52, 0
1, 40320, Note_on_c, 0, 64, 75
1, 40320, Note_on_c, 1, 45, 80
1, 40343, Note_on_c, 0, 64, 0
1, 40343, Note_on_c, 1, 45, 0
1, 40344, Note_on_c, 0, 69, 75
1, 40344, Note_on_c, 1, 52, 80
1, 40367, Note_on_c, 0, 69, 0
1, 40367, Note_on_c, 1, 52, 0
1, 40368, Note_on_c, 0, 73, 75
1, 40368, Note_on_c, 1, 49, 80
1, 40391, Note_on_c, 0, 73, 0
1, 40391, Note_on_c, 1, 49, 0
1, 40392, Note_on_c, 0, 76, 75
1, 40392, Note_on_c, 1, 52, 80
1, 40415, Note_on_c, 0, 76, 0
1, 40415, Note_on_c, 1, 52, 0
1, 40416, Note_on_c, 0, 71, 75
1, 40416, Note_on_c, 0, 68, 75
1, 40416, Note_on_c, 0, 64, 75
1, 40416, Note_on_c, 1, 44, 80
1, 40439, Note_on_c, 1, 44, 0
1, 40440, Note_on_c, 1, 52, 80
1, 40455, Note_on_c, 0, 71, 0
1, 40455, Note_on_c, 0, 68, 0
1, 40455, Note_on_c, 0, 64, 0
1, 40463, Note_on_c, 1, 52, 0
1, 40464, Note_on_c, 1, 47, 80
1, 40487, Note_on_c, 1, 47, 0
1, 40488, Note_on_c, 1, 52, 80
1, 40511, Note_on_c, 1, 52, 0
1, 40512, Note_on_c, 1, 44, 80
1, 40535, Note_on_c, 1, 44, 0
1, 40536, Note_on_c, 1, 52, 80
1, 40559, Note_on_c, 1, 52, 0
1, 40560, Note_on_c, 1, 47, 80
1, 40583, Note_on_c, 1, 47, 0
1, 40584, Note_on_c, 1, 52, 80
1, 40607, Note_on_c, 1, 52, 0
1, 40608, Note_on_c, 0, 64, 75
1, 40608, Note_on_c, 1, 44, 80
1, 40631, Note_on_c, 0, 64, 0
1, 40631, Note_on_c, 1, 44, 0
1, 40632, Note_on_c, 0, 68, 75
1, 40632, Note_on_c, 1, 52, 80
1, 40655, Note_on_c, 0, 68, 0
1, 40655, Note_on_c, 1, 52, 0
1, 40656, Note_on_c, 0, 71, 75
1, 40656, Note_on_c, 1, 47, 80
1, 40679, Note_on_c, 0, 71, 0
1, 40679, Note_on_c, 1, 47, 0
1, 40680, Note_on_c, 0, 74, 75
1, 40680, Note_on_c, 1, 52, 80
1, 40703, Note_on_c, 0, 74, 0
1, 40703, Note_on_c, 1, 52, 0
1, 40704, Note_on_c, 0, 73, 75
1, 40704, Note_on_c, 1, 45, 80
1, 40727, Note_on_c, 1, 45, 0
1, 40728, Note_on_c, 1, 52, 80
1, 40751, Note_on_c, 1, 52, 0
1, 40752, Note_on_c, 1, 49, 80
1, 40775, Note_on_c, 1, 49, 0
1, 40776, Note_on_c, 1, 52, 80
1, 40793, Note_on_c, 0, 73, 0
1, 40799, Note_on_c, 1, 52, 0
1, 40800, Note_on_c, 0, 81, 91
1, 40800, Note_on_c, 0, 76, 91
1, 40800, Note_on_c, 0, 73, 91
1, 40800, Note_on_c, 1, 45, 80
1, 40823, Note_on_c, 1, 45, 0
1, 40824, Note_on_c, 1, 52, 80
1, 40847, Note_on_c, 1, 52, 0
1, 40848, Note_on_c, 1, 49, 80
1, 40871, Note_on_c, 1, 49, 0
1, 40872, Note_on_c, 1, 52, 80
1, 40895, Note_on_c, 1, 52, 0
1, 40896, Note_on_c, 1, 46, 80
1, 40919, Note_on_c, 1, 46, 0
1, 40920, Note_on_c, 1, 54, 80
1, 40943, Note_on_c, 1, 54, 0
1, 40944, Note_on_c, 0, 81, 0
1, 40944, Note_on_c, 0, 76, 0
1, 40944, Note_on_c, 0, 73, 0
1, 40944, Note_on_c, 0, 76, 77
1, 40944, Note_on_c, 0, 73, 77
1, 40944, Note_on_c, 1, 49, 80
1, 40967, Note_on_c, 1, 49, 0
1, 40968, Note_on_c, 1, 54, 80
1, 40989, Note_on_c, 0, 76, 0
1, 40989, Note_on_c, 0, 73, 0
1, 40991, Note_on_c, 1, 54, 0
1, 40992, Note_on_c, 0, 75, 77
1, 40992, Note_on_c, 0, 73, 77
1, 40992, Note_on_c, 1, 47, 80
1, 41015, Note_on_c, 1, 47, 0
1, 41016, Note_on_c, 1, 54, 80
1, 41039, Note_on_c, 1, 54, 0
1, 41040, Note_on_c, 1, 51, 80
1, 41063, Note_on_c, 1, 51, 0
1, 41064, Note_on_c, 1, 54, 80
1, 41081, Note_on_c, 0, 75, 0
1, 41081, Note_on_c, 0, 73, 0
1, 41087, Note_on_c, 1, 54, 0
1, 41088, Note_on_c, 0, 83, 94
1, 41088, Note_on_c, 0, 78, 94
1, 41088, Note_on_c, 0, 75, 94
1, 41088, Note_on_c, 1, 47, 80
1, 41111, Note_on_c, 1, 47, 0
1, 41112, Note_on_c, 1, 54, 80
1, 41135, Note_on_c, 1, 54, 0
1, 41136, Note_on_c, 1, 51, 80
1, 41159, Note_on_c, 1, 51, 0
1, 41160, Note_on_c, 1, 54, 80
1, 41183, Note_on_c, 1, 54, 0
1, 41184, Note_on_c, 1, 45, 80
1, 41207, Note_on_c, 1, 45, 0
1, 41208, Note_on_c, 1, 54, 80
1, 41231, Note_on_c, 1, 54, 0
1, 41232, Note_on_c, 0, 83, 0
1, 41232, Note_on_c, 0, 78, 0
1, 41232, Note_on_c, 0, 75, 0
1, 41232, Note_on_c, 0, 75, 80
1, 41232, Note_on_c, 0, 71, 80
1, 41232, Note_on_c, 1, 47, 80
1, 41255, Note_on_c, 1, 47, 0
1, 41256, Note_on_c, 1, 51, 80
1, 41277, Note_on_c, 0, 75, 0
1, 41277, Note_on_c, 0, 71, 0
1, 41279, Note_on_c, 1, 51, 0
1, 41280, Note_on_c, 0, 76, 80
1, 41280, Note_on_c, 1, 52, 80
1, 41280, Note_on_c, 1, 47, 80
1, 41280, Note_on_c, 1, 44, 80
1, 41303, Note_on_c, 0, 76, 0
1, 41304, Note_on_c, 0, 80, 80
1, 41327, Note_on_c, 0, 80, 0
1, 41328, Note_on_c, 0, 83, 80
1, 41351, Note_on_c, 0, 83, 0
1, 41352, Note_on_c, 0, 88, 80
1, 41369, Note_on_c, 1, 52, 0
1, 41369, Note_on_c, 1, 47, 0
1, 41369, Note_on_c, 1, 44, 0
1, 41375, Note_on_c, 0, 88, 0
1, 41376, Note_on_c, 0, 76, 80
1, 41399, Note_on_c, 0, 76, 0
1, 41400, Note_on_c, 0, 80, 80
1, 41423, Note_on_c, 0, 80, 0
1, 41424, Note_on_c, 0, 83, 80
1, 41447, Note_on_c, 0, 83, 0
1, 41448, Note_on_c, 0, 88, 80
1, 41471, Note_on_c, 0, 88, 0
1, 41472, Note_on_c, 0, 76, 80
1, 41472, Note_on_c, 1, 44, 80
1, 41495, Note_on_c, 0, 76, 0
1, 41495, Note_on_c, 1, 44, 0
1, 41496, Note_on_c, 0, 80, 80
1, 41496, Note_on_c, 1, 47, 80
1, 41519, Note_on_c, 0, 80, 0
1, 41519, Note_on_c, 1, 47, 0
1, 41520, Note_on_c, 0, 83, 80
1, 41520, Note_on_c, 1, 52, 80
1, 41543, Note_on_c, 0, 83, 0
1, 41543, Note_on_c, 1, 52, 0
1, 41544, Note_on_c, 0, 86, 80
1, 41544, Note_on_c, 1, 56, 80
1, 41567, Note_on_c, 0, 86, 0
1, 41567, Note_on_c, 1, 56, 0
1, 41568, Note_on_c, 0, 76, 80
1, 41568, Note_on_c, 1, 52, 80
1, 41568, Note_on_c, 1, 49, 80
1, 41568, Note_on_c, 1, 45, 80
1, 41591, Note_on_c, 0, 76, 0
1, 41592, Note_on_c, 0, 81, 80
1, 41615, Note_on_c, 0, 81, 0
1, 41616, Note_on_c, 0, 85, 80
1, 41639, Note_on_c, 0, 85, 0
1, 41640, Note_on_c, 0, 88, 80
1, 41657, Note_on_c, 1, 52, 0
1, 41657, Note_on_c, 1, 49, 0
1, 41657, Note_on_c, 1, 45, 0
1, 41663, Note_on_c, 0, 88, 0
1, 41664, Note_on_c, 0, 76, 80
1, 41687, Note_on_c, 0, 76, 0
1, 41688, Note_on_c, 0, 81, 80
1, 41711, Note_on_c, 0, 81, 0
1, 41712, Note_on_c, 0, 85, 80
1, 41735, Note_on_c, 0, 85, 0
1, 41736, Note_on_c, 0, 88, 80
1, 41759, Note_on_c, 0, 88, 0
1, 41760, Note_on_c, 0, 76, 80
1, 41760, Note_on_c, 1, 45, 80
1, 41783, Note_on_c, 0, 76, 0
1, 41783, Note_on_c, 1, 45, 0
1, 41784, Note_on_c, 0, 81, 80
1, 41784, Note_on_c, 1, 49, 80
1, 41807, Note_on_c, 0, 81, 0
1, 41807, Note_on_c, 1, 49, 0
1, 41808, Note_on_c, 0, 85, 80
1, 41808, Note_on_c, 1, 52, 80
1, 41831, Note_on_c, 0, 85, 0
1, 41831, Note_on_c, 1, 52, 0
1, 41832, Note_on_c, 0, 88, 80
1, 41832, Note_on_c, 1, 57, 80
1, 41855, Note_on_c, 0, 88, 0
1, 41855, Note_on_c, 1, 57, 0
1, 41856, Note_on_c, 0, 74, 80
1, 41856, Note_on_c, 1, 47, 80
1, 41856, Note_on_c, 1, 54, 80
1, 41856, Note_on_c, 1, 50, 80
1, 41879, Note_on_c, 0, 74, 0
1, 41880, Note_on_c, 0, 78, 80
1, 41903, Note_on_c, 0, 78, 0
1, 41904, Note_on_c, 0, 83, 80
1, 41927, Note_on_c, 0, 83, 0
1, 41928, Note_on_c, 0, 86, 80
1, 41945, Note_on_c, 1, 47, 0
1, 41945, Note_on_c, 1, 54, 0
1, 41945, Note_on_c, 1, 50, 0
1, 41951, Note_on_c, 0, 86, 0
1, 41952, Note_on_c, 0, 74, 80
1, 41975, Note_on_c, 0, 74, 0
1, 41976, Note_on_c, 0, 78, 80
1, 41999, Note_on_c, 0, 78, 0
1, 42000, Note_on_c, 0, 83, 80
1, 42023, Note_on_c, 0, 83, 0
1, 42024, Note_on_c, 0, 86, 80
1, 42047, Note_on_c, 0, 86, 0
1, 42048, Note_on_c, 0, 75, 80
1, 42048, Note_on_c, 1, 47, 80
1, 42048, Note_on_c, 1, 54, 80
1, 42048, Note_on_c, 1, 51, 80
1, 42071, Note_on_c, 0, 75, 0
1, 42072, Note_on_c, 0, 78, 80
1, 42095, Note_on_c, 0, 78, 0
1, 42096, Note_on_c, 0, 81, 80
1, 42119, Note_on_c, 0, 81, 0
1, 42120, Note_on_c, 0, 87, 80
1, 42137, Note_on_c, 1, 47, 0
1, 42137, Note_on_c, 1, 54, 0
1, 42137, Note_on_c, 1, 51, 0
1, 42143, Note_on_c, 0, 87, 0
1, 42144, Note_on_c, 0, 76, 80
1, 42144, Note_on_c, 1, 59, 80
1, 42144, Note_on_c, 1, 56, 80
1, 42144, Note_on_c, 1, 52, 80
1, 42167, Note_on_c, 0, 76, 0
1, 42168, Note_on_c, 0, 80, 80
1, 42191, Note_on_c, 0, 80, 0
1, 42192, Note_on_c, 0, 83, 80
1, 42215, Note_on_c, 0, 83, 0
1, 42216, Note_on_c, 0, 88, 80
1, 42233, Note_on_c, 1, 59, 0
1, 42233, Note_on_c, 1, 56, 0
1, 42233, Note_on_c, 1, 52, 0
1, 42239, Note_on_c, 0, 88, 0
1, 42240, Note_on_c, 0, 76, 80
1, 42263, Note_on_c, 0, 76, 0
1, 42264, Note_on_c, 0, 80, 80
1, 42287, Note_on_c, 0, 80, 0
1, 42288, Note_on_c, 0, 83, 80
1, 42311, Note_on_c, 0, 83, 0
1, 42312, Note_on_c, 0, 88, 80
1, 42335, Note_on_c, 0, 88, 0
1, 42336, Note_on_c, 0, 76, 80
1, 42336, Note_on_c, 1, 59, 80
1, 42336, Note_on_c, 1, 56, 80
1, 42336, Note_on_c, 1, 50, 80
1, 42359, Note_on_c, 0, 76, 0
1, 42360, Note_on_c, 0, 80, 81
1, 42383, Note_on_c, 0, 80, 0
1, 42384, Note_on_c, 0, 83, 83
1, 42407, Note_on_c, 0, 83, 0
1, 42408, Note_on_c, 0, 86, 84
1, 42425, Note_on_c, 1, 59, 0
1, 42425, Note_on_c, 1, 56, 0
1, 42425, Note_on_c, 1, 50, 0
1, 42431, Note_on_c, 0, 86, 0
1, 42432, Note_on_c, 0, 81, 86
1, 42432, Note_on_c, 1, 49, 102
1, 42432, Note_on_c, 1, 37, 102
1, 42455, Note_on_c, 0, 81, 0
1, 42456, Note_on_c, 0, 76, 86
1, 42479, Note_on_c, 0, 76, 0
1, 42480, Note_on_c, 0, 73, 86
1, 42503, Note_on_c, 0, 73, 0
1, 42504, Note_on_c, 0, 69, 86
1, 42527, Note_on_c, 0, 69, 0
1, 42528, Note_on_c, 0, 81, 86
1, 42528, Note_on_c, 1, 49, 0
1, 42528, Note_on_c, 1, 37, 0
1, 42528, Note_on_c, 1, 61, 86
1, 42528, Note_on_c, 1, 57, 86
1, 42528, Note_on_c, 1, 52, 86
1, 42551, Note_on_c, 0, 81, 0
1, 42552, Note_on_c, 0, 76, 86
1, 42575, Note_on_c, 0, 76, 0
1, 42576, Note_on_c, 0, 73, 86
1, 42599, Note_on_c, 0, 73, 0
1, 42600, Note_on_c, 0, 69, 86
1, 42623, Note_on_c, 0, 69, 0
1, 42624, Note_on_c, 0, 79, 86
1, 42647, Note_on_c, 0, 79, 0
1, 42648, Note_on_c, 0, 76, 86
1, 42661, Note_on_c, 1, 61, 0
1, 42661, Note_on_c, 1, 57, 0
1, 42661, Note_on_c, 1, 52, 0
1, 42671, Note_on_c, 0, 76, 0
1, 42672, Note_on_c, 0, 73, 86
1, 42672, Note_on_c, 1, 61, 86
1, 42672, Note_on_c, 1, 57, 86
1, 42672, Note_on_c, 1, 52, 86
1, 42695, Note_on_c, 0, 73, 0
1, 42696, Note_on_c, 0, 69, 86
1, 42717, Note_on_c, 1, 61, 0
1, 42717, Note_on_c, 1, 57, 0
1, 42717, Note_on_c, 1, 52, 0
1, 42719, Note_on_c, 0, 69, 0
1, 42720, Note_on_c, 0, 78, 86
1, 42720, Note_on_c, 1, 62, 86
1, 42720, Note_on_c, 1, 57, 86
1, 42720, Note_on_c, 1, 54, 86
1, 42743, Note_on_c, 0, 78, 0
1, 42744, Note_on_c, 0, 74, 86
1, 42767, Note_on_c, 0, 74, 0
1, 42768, Note_on_c, 0, 69, 86
1, 42791, Note_on_c, 0, 69, 0
1, 42792, Note_on_c, 0, 66, 86
1, 42809, Note_on_c, 1, 62, 0
1, 42809, Note_on_c, 1, 57, 0
1, 42809, Note_on_c, 1, 54, 0
1, 42815, Note_on_c, 0, 66, 0
1, 42816, Note_on_c, 0, 57, 86
1, 42839, Note_on_c, 0, 57, 0
1, 42840, Note_on_c, 0, 62, 86
1, 42840, Note_on_c, 1, 50, 86
1, 42863, Note_on_c, 0, 62, 0
1, 42863, Note_on_c, 1, 50, 0
1, 42864, Note_on_c, 0, 61, 86
1, 42864, Note_on_c, 1, 49, 86
1, 42887, Note_on_c, 0, 61, 0
1, 42887, Note_on_c, 1, 49, 0
1, 42888, Note_on_c, 0, 62, 86
1, 42888, Note_on_c, 1, 50, 86
1, 42911, Note_on_c, 0, 62, 0
1, 42911, Note_on_c, 1, 50, 0
1, 42912, Note_on_c, 0, 57, 86
1, 42912, Note_on_c, 1, 57, 86
1, 42935, Note_on_c, 0, 57, 0
1, 42935, Note_on_c, 1, 57, 0
1, 42936, Note_on_c, 0, 62, 86
1, 42936, Note_on_c, 1, 50, 86
1, 42959, Note_on_c, 0, 62, 0
1, 42959, Note_on_c, 1, 50, 0
1, 42960, Note_on_c, 0, 61, 86
1, 42960, Note_on_c, 1, 49, 86
1, 42983, Note_on_c, 0, 61, 0
1, 42983, Note_on_c, 1, 49, 0
1, 42984, Note_on_c, 0, 62, 86
1, 42984, Note_on_c, 1, 50, 86
1, 43007, Note_on_c, 0, 62, 0
1, 43007, Note_on_c, 1, 50, 0
1, 43008, Note_on_c, 0, 83, 86
1, 43008, Note_on_c, 1, 47, 102
1, 43008, Note_on_c, 1, 35, 102
1, 43031, Note_on_c, 0, 83, 0
1, 43032, Note_on_c, 0, 78, 86
1, 43055, Note_on_c, 0, 78, 0
1, 43056, Note_on_c, 0, 75, 86
1, 43079, Note_on_c, 0, 75, 0
1, 43080, Note_on_c, 0, 71, 86
1, 43103, Note_on_c, 0, 71, 0
1, 43104, Note_on_c, 0, 83, 86
1, 43104, Note_on_c, 1, 47, 0
1, 43104, Note_on_c, 1, 35, 0
1, 43104, Note_on_c, 1, 63, 86
1, 43104, Note_on_c, 1, 59, 86
1, 43104, Note_on_c, 1, 54, 86
1, 43127, Note_on_c, 0, 83, 0
1, 43128, Note_on_c, 0, 78, 86
1, 43151, Note_on_c, 0, 78, 0
1, 43152, Note_on_c, 0, 75, 86
1, 43175, Note_on_c, 0, 75, 0
1, 43176, Note_on_c, 0, 71, 86
1, 43199, Note_on_c, 0, 71, 0
1, 43200, Note_on_c, 0, 81, 86
1, 43223, Note_on_c, 0, 81, 0
1, 43224, Note_on_c, 0, 78, 86
1, 43237, Note_on_c, 1, 63, 0
1, 43237, Note_on_c, 1, 59, 0
1, 43237, Note_on_c, 1, 54, 0
1, 43247, Note_on_c, 0, 78, 0
1, 43248, Note_on_c, 0, 75, 86
1, 43248, Note_on_c, 1, 63, 86
1, 43248, Note_on_c, 1, 59, 86
1, 43248, Note_on_c, 1, 54, 86
1, 43271, Note_on_c, 0, 75, 0
1, 43272, Note_on_c, 0, 71, 86
1, 43293, Note_on_c, 1, 63, 0
1, 43293, Note_on_c, 1, 59, 0
1, 43293, Note_on_c, 1, 54, 0
1, 43295, Note_on_c, 0, 71, 0
1, 43296, Note_on_c, 0, 80, 86
1, 43296, Note_on_c, 1, 64, 86
1, 43296, Note_on_c, 1, 59, 86
1, 43296, Note_on_c, 1, 56, 86
1, 43319, Note_on_c, 0, 80, 0
1, 43320, Note_on_c, 0, 76, 86
1, 43343, Note_on_c, 0, 76, 0
1, 43344, Note_on_c, 0, 71, 86
1, 43367, Note_on_c, 0, 71, 0
1, 43368, Note_on_c, 0, 68, 86
1, 43385, Note_on_c, 1, 64, 0
1, 43385, Note_on_c, 1, 59, 0
1, 43385, Note_on_c, 1, 56, 0
1, 43391, Note_on_c, 0, 68, 0
1, 43392, Note_on_c, 0, 59, 86
1, 43415, Note_on_c, 0, 59, 0
1, 43416, Note_on_c, 0, 64, 86
1, 43416, Note_on_c, 1, 52, 86
1, 43439, Note_on_c, 0, 64, 0
1, 43439, Note_on_c, 1, 52, 0
1, 43440, Note_on_c, 0, 63, 86
1, 43440, Note_on_c, 1, 51, 86
1, 43463, Note_on_c, 0, 63, 0
1, 43463, Note_on_c, 1, 51, 0
1, 43464, Note_on_c, 0, 64, 86
1, 43464, Note_on_c, 1, 52, 86
1, 43487, Note_on_c, 0, 64, 0
1, 43487, Note_on_c, 1, 52, 0
1, 43488, Note_on_c, 0, 59, 86
1, 43488, Note_on_c, 1, 59, 86
1, 43511, Note_on_c, 0, 59, 0
1, 43511, Note_on_c, 1, 59, 0
1, 43512, Note_on_c, 0, 64, 86
1, 43512, Note_on_c, 1, 52, 86
1, 43535, Note_on_c, 0, 64, 0
1, 43535, Note_on_c, 1, 52, 0
1, 43536, Note_on_c, 0, 63, 86
1, 43536, Note_on_c, 1, 51, 86
1, 43559, Note_on_c, 0, 63, 0
1, 43559, Note_on_c, 1, 51, 0
1, 43560, Note_on_c, 0, 64, 86
1, 43560, Note_on_c, 1, 52, 86
1, 43583, Note_on_c, 0, 64, 0
1, 43583, Note_on_c, 1, 52, 0
1, 43584, Note_on_c, 0, 85, 86
1, 43584, Note_on_c, 1, 49, 86
1, 43584, Note_on_c, 1, 37, 86
1, 43607, Note_on_c, 0, 85, 0
1, 43608, Note_on_c, 0, 80, 86
1, 43631, Note_on_c, 0, 80, 0
1, 43632, Note_on_c, 0, 77, 86
1, 43655, Note_on_c, 0, 77, 0
1, 43656, Note_on_c, 0, 73, 86
1, 43679, Note_on_c, 0, 73, 0
1, 43680, Note_on_c, 0, 85, 86
1, 43703, Note_on_c, 0, 85, 0
1, 43704, Note_on_c, 0, 80, 86
1, 43727, Note_on_c, 0, 80, 0
1, 43728, Note_on_c, 0, 77, 86
1, 43751, Note_on_c, 0, 77, 0
1, 43752, Note_on_c, 0, 73, 86
1, 43761, Note_on_c, 1, 49, 0
1, 43761, Note_on_c, 1, 37, 0
1, 43775, Note_on_c, 0, 73, 0
1, 43776, Note_on_c, 0, 83, 86
1, 43776, Note_on_c, 1, 37, 86
1, 43799, Note_on_c, 0, 83, 0
1, 43799, Note_on_c, 1, 37, 0
1, 43800, Note_on_c, 0, 80, 86
1, 43800, Note_on_c, 1, 41, 86
1, 43823, Note_on_c, 0, 80, 0
1, 43823, Note_on_c, 1, 41, 0
1, 43824, Note_on_c, 0, 77, 86
1, 43824, Note_on_c, 1, 45, 86
1, 43847, Note_on_c, 0, 77, 0
1, 43847, Note_on_c, 1, 45, 0
1, 43848, Note_on_c, 0, 73, 86
1, 43848, Note_on_c, 1, 49, 86
1, 43871, Note_on_c, 0, 73, 0
1, 43871, Note_on_c, 1, 49, 0
1, 43872, Note_on_c, 0, 81, 86
1, 43872, Note_on_c, 1, 45, 102
1, 43872, Note_on_c, 1, 33, 102
1, 43895, Note_on_c, 0, 81, 0
1, 43896, Note_on_c, 0, 78, 86
1, 43911, Note_on_c, 1, 45, 0
1, 43911, Note_on_c, 1, 33, 0
1, 43919, Note_on_c, 0, 78, 0
1, 43920, Note_on_c, 0, 77, 86
1, 43943, Note_on_c, 0, 77, 0
1, 43944, Note_on_c, 0, 78, 86
1, 43967, Note_on_c, 0, 78, 0
1, 43968, Note_on_c, 0, 73, 86
1, 43968, Note_on_c, 1, 42, 86
1, 43968, Note_on_c, 1, 30, 86
1, 43991, Note_on_c, 0, 73, 0
1, 43992, Note_on_c, 0, 78, 86
1, 44015, Note_on_c, 0, 78, 0
1, 44016, Note_on_c, 0, 77, 86
1, 44039, Note_on_c, 0, 77, 0
1, 44040, Note_on_c, 0, 78, 86
1, 44057, Note_on_c, 1, 42, 0
1, 44057, Note_on_c, 1, 30, 0
1, 44063, Note_on_c, 0, 78, 0
1, 44064, Note_on_c, 0, 73, 86
1, 44087, Note_on_c, 0, 73, 0
1, 44088, Note_on_c, 0, 78, 84
1, 44111, Note_on_c, 0, 78, 0
1, 44112, Note_on_c, 0, 77, 83
1, 44135, Note_on_c, 0, 77, 0
1, 44136, Note_on_c, 0, 78, 81
1, 44159, Note_on_c, 0, 78, 0
1, 44160, Note_on_c, 0, 75, 80
1, 44160, Note_on_c, 1, 57, 80
1, 44160, Note_on_c, 1, 45, 80
1, 44183, Note_on_c, 0, 75, 0
1, 44184, Note_on_c, 0, 76, 80
1, 44199, Note_on_c, 1, 57, 0
1, 44199, Note_on_c, 1, 45, 0
1, 44207, Note_on_c, 0, 76, 0
1, 44208, Note_on_c, 0, 78, 80
1, 44231, Note_on_c, 0, 78, 0
1, 44232, Note_on_c, 0, 75, 80
1, 44255, Note_on_c, 0, 75, 0
1, 44256, Note_on_c, 0, 76, 80
1, 44256, Note_on_c, 1, 56, 80
1, 44256, Note_on_c, 1, 44, 80
1, 44345, Note_on_c, 0, 76, 0
1, 44352, Note_on_c, 0, 88, 80
1, 44375, Note_on_c, 0, 88, 0
1, 44376, Note_on_c, 0, 87, 80
1, 44399, Note_on_c, 0, 87, 0
1, 44400, Note_on_c, 0, 85, 80
1, 44423, Note_on_c, 0, 85, 0
1, 44424, Note_on_c, 0, 83, 80
1, 44433, Note_on_c, 1, 56, 0
1, 44433, Note_on_c, 1, 44, 0
1, 44447, Note_on_c, 0, 83, 0
1, 44448, Note_on_c, 0, 81, 80
1, 44471, Note_on_c, 0, 81, 0
1, 44472, Note_on_c, 0, 80, 80
1, 44495, Note_on_c, 0, 80, 0
1, 44496, Note_on_c, 0, 78, 80
1, 44519, Note_on_c, 0, 78, 0
1, 44520, Note_on_c, 0, 76, 80
1, 44543, Note_on_c, 0, 76, 0
1, 44544, Note_on_c, 0, 75, 80
1, 44574, Note_on_c, 0, 75, 0
1, 44576, Note_on_c, 0, 73, 80
1, 44606, Note_on_c, 0, 73, 0
1, 44608, Note_on_c, 0, 71, 80
1, 44638, Note_on_c, 0, 71, 0
1, 44640, Note_on_c, 0, 70, 80
1, 44663, Note_on_c, 0, 70, 0
1, 44664, Note_on_c, 0, 71, 80
1, 44687, Note_on_c, 0, 71, 0
1, 44688, Note_on_c, 0, 73, 80
1, 44711, Note_on_c, 0, 73, 0
1, 44712, Note_on_c, 0, 71, 80
1, 44735, Note_on_c, 0, 71, 0
1, 44736, Tempo, 600000
1, 44736, Note_on_c, 0, 70, 80
1, 44748, Note_on_c, 0, 70, 0
1, 44748, Note_on_c, 0, 71, 80
1, 44760, Note_on_c, 0, 71, 0
1, 44760, Note_on_c, 0, 73, 80
1, 44772, Note_on_c, 0, 73, 0
1, 44772, Note_on_c, 0, 71, 80
1, 44913, Note_on_c, 0, 71, 0
1, 44928, Note_on_c, 0, 70, 78
1, 45113, Note_on_c, 0, 70, 0
1, 45120, Note_on_c, 0, 69, 76
1, 45401, Note_on_c, 0, 69, 0
1, 45504, Tempo, 400000
1, 45504, Note_on_c, 0, 59, 91
1, 45543, Note_on_c, 0, 59, 0
1, 45600, Note_on_c, 0, 56, 75
1, 45600, Note_on_c, 1, 52, 75
1, 45639, Note_on_c, 0, 56, 0
1, 45645, Note_on_c, 1, 52, 0
1, 45648, Note_on_c, 1, 51, 75
1, 45693, Note_on_c, 1, 51, 0
1, 45696, Note_on_c, 0, 59, 75
1, 45696, Note_on_c, 0, 56, 75
1, 45696, Note_on_c, 1, 49, 75
1, 45735, Note_on_c, 0, 59, 0
1, 45735, Note_on_c, 0, 56, 0
1, 45741, Note_on_c, 1, 49, 0
1, 45744, Note_on_c, 1, 47, 75
1, 45789, Note_on_c, 1, 47, 0
1, 45792, Note_on_c, 0, 64, 110
1, 45792, Note_on_c, 0, 61, 70
1, 45792, Note_on_c, 1, 45, 75
1, 45837, Note_on_c, 0, 61, 0
1, 45837, Note_on_c, 1, 45, 0
1, 45840, Note_on_c, 0, 59, 70
1, 45840, Note_on_c, 1, 44, 75
1, 45885, Note_on_c, 0, 59, 0
1, 45885, Note_on_c, 1, 44, 0
1, 45888, Note_on_c, 0, 61, 75
1, 45888, Note_on_c, 0, 57, 70
1, 45888, Note_on_c, 1, 42, 75
1, 45933, Note_on_c, 1, 42, 0
1, 45936, Note_on_c, 1, 47, 75
1, 45977, Note_on_c, 0, 64, 0
1, 45977, Note_on_c, 0, 61, 0
1, 45977, Note_on_c, 0, 57, 0
1, 45981, Note_on_c, 1, 47, 0
1, 45984, Note_on_c, 0, 63, 75
1, 45984, Note_on_c, 0, 59, 75
1, 45984, Note_on_c, 1, 45, 75
1, 46029, Note_on_c, 1, 45, 0
1, 46032, Note_on_c, 1, 44, 75
1, 46073, Note_on_c, 0, 63, 0
1, 46073, Note_on_c, 0, 59, 0
1, 46077, Note_on_c, 1, 44, 0
1, 46080, Note_on_c, 0, 69, 110
1, 46080, Note_on_c, 0, 66, 110
1, 46080, Note_on_c, 0, 61, 70
1, 46080, Note_on_c, 1, 42, 75
1, 46125, Note_on_c, 0, 61, 0
1, 46125, Note_on_c, 1, 42, 0
1, 46128, Note_on_c, 0, 59, 70
1, 46128, Note_on_c, 1, 40, 75
1, 46173, Note_on_c, 1, 40, 0
1, 46176, Note_on_c, 0, 66, 0
1, 46176, Note_on_c, 1, 38, 75
1, 46221, Note_on_c, 0, 69, 0
1, 46221, Note_on_c, 1, 38, 0
1, 46224, Note_on_c, 0, 68, 75
1, 46224, Note_on_c, 1, 52, 75
1, 46269, Note_on_c, 0, 68, 0
1, 46269, Note_on_c, 1, 52, 0
1, 46272, Note_on_c, 0, 66, 75
1, 46272, Note_on_c, 1, 51, 75
1, 46309, Note_on_c, 0, 59, 0
1, 46317, Note_on_c, 0, 66, 0
1, 46317, Note_on_c, 1, 51, 0
1, 46320, Note_on_c, 0, 64, 75
1, 46320, Note_on_c, 1, 49, 75
1, 46365, Note_on_c, 0, 64, 0
1, 46365, Note_on_c, 1, 49, 0
1, 46368, Note_on_c, 0, 63, 75
1, 46368, Note_on_c, 1, 47, 75
1, 46413, Note_on_c, 0, 63, 0
1, 46413, Note_on_c, 1, 47, 0
1, 46416, Note_on_c, 0, 66, 75
1, 46416, Note_on_c, 1, 45, 75
1, 46461, Note_on_c, 0, 66, 0
1, 46461, Note_on_c, 1, 45, 0
1, 46464, Note_on_c, 0, 64, 75
1, 46464, Note_on_c, 1, 44, 75
1, 46509, Note_on_c, 0, 64, 0
1, 46512, Note_on_c, 0, 59, 75
1, 46553, Note_on_c, 1, 44, 0
1, 46557, Note_on_c, 0, 59, 0
1, 46560, Note_on_c, 0, 71, 110
1, 46608, Note_on_c, 1, 59, 75
1, 46608, Note_on_c, 1, 56, 75
1, 46653, Note_on_c, 1, 59, 0
1, 46653, Note_on_c, 1, 56, 0
1, 46656, Note_on_c, 1, 61, 75
1, 46656, Note_on_c, 1, 57, 75
1, 46701, Note_on_c, 1, 61, 0
1, 46701, Note_on_c, 1, 57, 0
1, 46704, Note_on_c, 0, 71, 0
1, 46704, Note_on_c, 0, 69, 75
1, 46704, Note_on_c, 1, 63, 75
1, 46704, Note_on_c, 1, 59, 75
1, 46749, Note_on_c, 0, 69, 0
1, 46749, Note_on_c, 1, 63, 0
1, 46749, Note_on_c, 1, 59, 0
1, 46752, Note_on_c, 0, 68, 75
1, 46752, Note_on_c, 1, 64, 75
1, 46752, Note_on_c, 1, 59, 75
1, 46797, Note_on_c, 0, 68, 0
1, 46800, Note_on_c, 0, 71, 75
1, 46841, Note_on_c, 1, 64, 0
1, 46841, Note_on_c, 1, 59, 0
1, 46845, Note_on_c, 0, 71, 0
1, 46848, Note_on_c, 0, 68, 75
1, 46893, Note_on_c, 0, 68, 0
1, 46896, Note_on_c, 0, 64, 75
1, 46941, Note_on_c, 0, 64, 0
1, 46944, Note_on_c, 0, 74, 110
1, 46992, Note_on_c, 1, 44, 75
1, 47037, Note_on_c, 1, 44, 0
1, 47040, Note_on_c, 1, 45, 75
1, 47085, Note_on_c, 0, 74, 0
1, 47085, Note_on_c, 1, 45, 0
1, 47088, Note_on_c, 0, 74, 75
1, 47088, Note_on_c, 1, 50, 75
1, 47133, Note_on_c, 0, 74, 0
1, 47133, Note_on_c, 1, 50, 0
1, 47136, Note_on_c, 0, 73, 75
1, 47136, Note_on_c, 1, 64, 75
1, 47136, Note_on_c, 1, 52, 75
1, 47181, Note_on_c, 0, 73, 0
1, 47184, Note_on_c, 0, 71, 75
1, 47225, Note_on_c, 1, 64, 0
1, 47225, Note_on_c, 1, 52, 0
1, 47229, Note_on_c, 0, 71, 0
1, 47232, Note_on_c, 0, 69, 75
1, 47232, Note_on_c, 1, 62, 75
1, 47232, Note_on_c, 1, 52, 75
1, 47277, Note_on_c, 0, 69, 0
1, 47280, Note_on_c, 0, 68, 75
1, 47321, Note_on_c, 1, 62, 0
1, 47321, Note_on_c, 1, 52, 0
1, 47325, Note_on_c, 0, 68, 0
1, 47328, Note_on_c, 0, 69, 75
1, 47328, Note_on_c, 0, 61, 75
1, 47328, Note_on_c, 1, 57, 75
1, 47376, Note_on_c, 1, 57, 0
1, 47376, Note_on_c, 1, 56, 75
1, 47417, Note_on_c, 0, 69, 0
1, 47417, Note_on_c, 0, 61, 0
1, 47421, Note_on_c, 1, 56, 0
1, 47424, Note_on_c, 0, 81, 91
1, 47424, Note_on_c, 0, 73, 91
1, 47424, Note_on_c, 1, 54, 75
1, 47469, Note_on_c, 1, 54, 0
1, 47472, Note_on_c, 1, 52, 75
1, 47517, Note_on_c, 1, 52, 0
1, 47520, Note_on_c, 0, 81, 0
1, 47520, Note_on_c, 0, 73, 0
1, 47520, Note_on_c, 0, 73, 75
1, 47520, Note_on_c, 0, 69, 75
1, 47520, Note_on_c, 1, 54, 75
1, 47565, Note_on_c, 1, 54, 0
1, 47568, Note_on_c, 1, 52, 75
1, 47609, Note_on_c, 0, 73, 0
1, 47609, Note_on_c, 0, 69, 0
1, 47613, Note_on_c, 1, 52, 0
1, 47616, Note_on_c, 0, 71, 75
1, 47616, Note_on_c, 0, 69, 75
1, 47616, Note_on_c, 1, 50, 75
1, 47664, Note_on_c, 1, 50, 0
1, 47664, Note_on_c, 1, 54, 75
1, 47705, Note_on_c, 0, 71, 0
1, 47705, Note_on_c, 0, 69, 0
1, 47709, Note_on_c, 1, 54, 0
1, 47712, Note_on_c, 0, 80, 91
1, 47712, Note_on_c, 0, 71, 91
1, 47712, Note_on_c, 1, 52, 75
1, 47757, Note_on_c, 1, 52, 0
1, 47760, Note_on_c, 1, 50, 75
1, 47805, Note_on_c, 1, 50, 0
1, 47808, Note_on_c, 0, 80, 0
1, 47808, Note_on_c, 0, 71, 0
1, 47808, Note_on_c, 0, 71, 75
1, 47808, Note_on_c, 0, 68, 75
1, 47808, Note_on_c, 1, 52, 75
1, 47853, Note_on_c, 1, 52, 0
1, 47856, Note_on_c, 1, 50, 75
1, 47897, Note_on_c, 0, 71, 0
1, 47897, Note_on_c, 0, 68, 0
1, 47901, Note_on_c, 1, 50, 0
1, 47904, Note_on_c, 0, 69, 75
1, 47904, Note_on_c, 0, 68, 75
1, 47904, Note_on_c, 1, 49, 75
1, 47952, Note_on_c, 1, 49, 0
1, 47952, Note_on_c, 1, 52, 75
1, 47993, Note_on_c, 0, 69, 0
1, 47993, Note_on_c, 0, 68, 0
1, 47997, Note_on_c, 1, 52, 0
1, 48000, Note_on_c, 0, 78, 91
1, 48000, Note_on_c, 0, 69, 91
1, 48000, Note_on_c, 1, 50, 75
1, 48045, Note_on_c, 1, 50, 0
1, 48048, Note_on_c, 1, 49, 75
1, 48093, Note_on_c, 1, 49, 0
1, 48096, Note_on_c, 0, 78, 0
1, 48096, Note_on_c, 0, 69, 0
1, 48096, Note_on_c, 0, 69, 75
1, 48096, Note_on_c, 0, 66, 75
1, 48096, Note_on_c, 1, 50, 75
1, 48141, Note_on_c, 1, 50, 0
1, 48144, Note_on_c, 1, 49, 75
1, 48185, Note_on_c, 0, 69, 0
1, 48185, Note_on_c, 0, 66, 0
1, 48189, Note_on_c, 1, 49, 0
1, 48192, Note_on_c, 0, 68, 75
1, 48192, Note_on_c, 0, 66, 75
1, 48192, Note_on_c, 1, 47, 75
1, 48240, Note_on_c, 1, 47, 0
1, 48240, Note_on_c, 1, 50, 75
1, 48281, Note_on_c, 0, 68, 0
1, 48281, Note_on_c, 0, 66, 0
1, 48285, Note_on_c, 1, 50, 0
1, 48288, Note_on_c, 0, 76, 91
1, 48288, Note_on_c, 0, 68, 91
1, 48288, Note_on_c, 1, 49, 75
1, 48333, Note_on_c, 1, 49, 0
1, 48336, Note_on_c, 1, 47, 75
1, 48381, Note_on_c, 1, 47, 0
1, 48384, Note_on_c, 0, 76, 0
1, 48384, Note_on_c, 0, 68, 0
1, 48384, Note_on_c, 0, 68, 75
1, 48384, Note_on_c, 0, 64, 75
1, 48384, Note_on_c, 1, 49, 75
1, 48429, Note_on_c, 1, 49, 0
1, 48432, Note_on_c, 1, 47, 75
1, 48473, Note_on_c, 0, 68, 0
1, 48473, Note_on_c, 0, 64, 0
1, 48477, Note_on_c, 1, 47, 0
1, 48480, Note_on_c, 0, 66, 75
1, 48480, Note_on_c, 0, 64, 75
1, 48480, Note_on_c, 1, 45, 75
1, 48528, Note_on_c, 1, 45, 0
1, 48528, Note_on_c, 1, 49, 75
1, 48569, Note_on_c, 0, 66, 0
1, 48569, Note_on_c, 0, 64, 0
1, 48573, Note_on_c, 1, 49, 0
1, 48576, Note_on_c, 0, 74, 91
1, 48576, Note_on_c, 0, 66, 91
1, 48576, Note_on_c, 1, 47, 76
1, 48621, Note_on_c, 1, 47, 0
1, 48624, Note_on_c, 1, 45, 76
1, 48669, Note_on_c, 1, 45, 0
1, 48672, Note_on_c, 0, 74, 0
1, 48672, Note_on_c, 0, 66, 0
1, 48672, Note_on_c, 0, 66, 76
1, 48672, Note_on_c, 0, 62, 76
1, 48672, Note_on_c, 1, 47, 77
1, 48717, Note_on_c, 1, 47, 0
1, 48720, Note_on_c, 1, 45, 78
1, 48761, Note_on_c, 0, 66, 0
1, 48761, Note_on_c, 0, 62, 0
1, 48765, Note_on_c, 1, 45, 0
1, 48768, Note_on_c, 0, 64, 77
1, 48768, Note_on_c, 0, 62, 77
1, 48768, Note_on_c, 1, 44, 78
1, 48807, Note_on_c, 1, 44, 0
1, 48857, Note_on_c, 0, 64, 0
1, 48857, Note_on_c, 0, 62, 0
1, 48864, Note_on_c, 0, 74, 94
1, 48864, Note_on_c, 0, 71, 94
1, 48864, Note_on_c, 1, 44, 80
1, 48884, Note_on_c, 1, 44, 0
1, 48912, Note_on_c, 1, 40, 80
1, 48932, Note_on_c, 1, 40, 0
1, 48960, Note_on_c, 1, 42, 80
1, 48980, Note_on_c, 1, 42, 0
1, 49008, Note_on_c, 0, 74, 0
1, 49008, Note_on_c, 0, 71, 0
1, 49008, Note_on_c, 0, 74, 80
1, 49008, Note_on_c, 0, 71, 80
1, 49008, Note_on_c, 1, 44, 80
1, 49028, Note_on_c, 1, 44, 0
1, 49053, Note_on_c, 0, 74, 0
1, 49053, Note_on_c, 0, 71, 0
1, 49056, Note_on_c, 0, 73, 80
1, 49056, Note_on_c, 1, 45, 80
1, 49080, Note_on_c, 0, 73, 0
1, 49080, Note_on_c, 0, 71, 80
1, 49095, Note_on_c, 1, 45, 0
1, 49147, Note_on_c, 0, 71, 0
1, 49152, Note_on_c, 0, 69, 80
1, 49152, Note_on_c, 1, 50, 96
1, 49176, Note_on_c, 0, 69, 0
1, 49176, Note_on_c, 0, 68, 80
1, 49243, Note_on_c, 0, 68, 0
1, 49248, Note_on_c, 0, 69, 80
1, 49248, Note_on_c, 1, 50, 0
1, 49248, Note_on_c, 1, 49, 80
1, 49271, Note_on_c, 0, 69, 0
1, 49272, Note_on_c, 0, 68, 80
1, 49295, Note_on_c, 0, 68, 0
1, 49296, Note_on_c, 0, 69, 80
1, 49319, Note_on_c, 0, 69, 0
1, 49320, Note_on_c, 0, 64, 80
1, 49337, Note_on_c, 1, 49, 0
1, 49343, Note_on_c, 0, 64, 0
1, 49344, Note_on_c, 0, 68, 80
1, 49344, Note_on_c, 0, 64, 80
1, 49344, Note_on_c, 1, 50, 80
1, 49367, Note_on_c, 0, 68, 0
1, 49367, Note_on_c, 0, 64, 0
1, 49368, Note_on_c, 0, 66, 79
1, 49368, Note_on_c, 0, 62, 79
1, 49391, Note_on_c, 0, 66, 0
1, 49391, Note_on_c, 0, 62, 0
1, 49392, Note_on_c, 0, 64, 79
1, 49392, Note_on_c, 0, 61, 79
1, 49415, Note_on_c, 0, 64, 0
1, 49415, Note_on_c, 0, 61, 0
1, 49416, Note_on_c, 0, 62, 78
1, 49416, Note_on_c, 0, 59, 78
1, 49433, Note_on_c, 1, 50, 0
1, 49439, Note_on_c, 0, 62, 0
1, 49439, Note_on_c, 0, 59, 0
1, 49440, Note_on_c, 0, 61, 78
1, 49440, Note_on_c, 0, 57, 78
1, 49440, Note_on_c, 1, 52, 78
1, 49529, Note_on_c, 0, 61, 0
1, 49529, Note_on_c, 0, 57, 0
1, 49529, Note_on_c, 1, 52, 0
1, 49536, Note_on_c, 0, 59, 76
1, 49536, Note_on_c, 0, 56, 76
1, 49536, Note_on_c, 1, 40, 76
1, 49625, Note_on_c, 0, 59, 0
1, 49625, Note_on_c, 0, 56, 0
1, 49625, Note_on_c, 1, 40, 0
1, 49632, Note_on_c, 0, 57, 75
1, 49632, Note_on_c, 1, 45, 75
1, 49721, Note_on_c, 0, 57, 0
1, 49721, Note_on_c, 1, 45, 0
1, 49728, Tempo, 461538
1, 49728, Note_on_c, 0, 83, 94
1, 49728, Note_on_c, 1, 37, 94
1, 49740, Note_on_c, 0, 83, 0
1, 49740, Note_on_c, 0, 81, 94
1, 49752, Note_on_c, 0, 81, 0
1, 49752, Note_on_c, 0, 80, 94
1, 49764, Note_on_c, 0, 80, 0
1, 49764, Note_on_c, 0, 81, 110
1, 49817, Note_on_c, 1, 37, 0
1, 49872, Note_on_c, 0, 81, 0
1, 49872, Note_on_c, 0, 76, 75
1, 49895, Note_on_c, 0, 76, 0
1, 49896, Note_on_c, 0, 79, 75
1, 49919, Note_on_c, 0, 79, 0
1, 49920, Note_on_c, 0, 78, 75
1, 49920, Note_on_c, 1, 50, 75
1, 49950, Note_on_c, 0, 78, 0
1, 49952, Note_on_c, 0, 76, 74
1, 49982, Note_on_c, 0, 76, 0
1, 49984, Note_on_c, 0, 74, 73
1, 50009, Note_on_c, 1, 50, 0
1, 50014, Note_on_c, 0, 74, 0
1, 50016, Note_on_c, 0, 73, 73
1, 50016, Note_on_c, 0, 69, 73
1, 50016, Note_on_c, 1, 52, 73
1, 50105, Note_on_c, 0, 73, 0
1, 50105, Note_on_c, 0, 69, 0
1, 50105, Note_on_c, 1, 52, 0
1, 50112, Note_on_c, 0, 71, 71
1, 50112, Note_on_c, 0, 68, 71
1, 50112, Note_on_c, 1, 52, 71
1, 50201, Note_on_c, 0, 71, 0
1, 50201, Note_on_c, 0, 68, 0
1, 50201, Note_on_c, 1, 52, 0
1, 50208, Note_on_c, 0, 69, 70
1, 50208, Note_on_c, 1, 45, 70
1, 50297, Note_on_c, 0, 69, 0
1, 50297, Note_on_c, 1, 45, 0
1, 50400, Tempo, 600000
1, 50400, Note_on_c, 0, 80, 80
1, 50400, Note_on_c, 0, 76, 80
1, 50400, Note_on_c, 0, 74, 80
1, 50400, Note_on_c, 0, 71, 80
1, 50400, Note_on_c, 1, 64, 75
1, 50400, Note_on_c, 1, 52, 75
1, 50439, Note_on_c, 0, 80, 0
1, 50439, Note_on_c, 0, 76, 0
1, 50439, Note_on_c, 0, 74, 0
1, 50439, Note_on_c, 0, 71, 0
1, 50439, Note_on_c, 1, 64, 0
1, 50439, Note_on_c, 1, 52, 0
1, 50496, Note_on_c, 0, 81, 96
1, 50496, Note_on_c, 0, 76, 96
1, 50496, Note_on_c, 0, 73, 96
1, 50496, Note_on_c, 0, 69, 96
1, 50496, Note_on_c, 1, 57, 91
1, 50496, Note_on_c, 1, 45, 91
1, 50592, Note_on_c, 0, 81, 0
1, 50592, Note_on_c, 0, 76, 0
1, 50592, Note_on_c, 0, 73, 0
1, 50592, Note_on_c, 0, 69, 0
1, 50592, Note_on_c, 1, 57, 0
1, 50592, Note_on_c, 1, 45, 0
1, 50784, Note_on_c, 1, 45, 0
1, 50961, Note_on_c, 1, 45, 0
1, 50971, End_track
0, 0, End_of_file