0, 0, Header, 0, 1, 96
1, 0, Start_track
1, 0, Tempo, 100000
1, 192, Tempo, 413793
1, 192, Note_on_c, 0, 77, 75
1, 231, Note_on_c, 0, 77, 0
1, 288, Note_on_c, 0, 74, 75
1, 327, Note_on_c, 0, 74, 0
1, 384, Note_on_c, 0, 70, 91
1, 384, Note_on_c, 1, 46, 70
1, 429, Note_on_c, 1, 46, 0
1, 432, Note_on_c, 1, 50, 70
1, 477, Note_on_c, 1, 50, 0
1, 480, Note_on_c, 0, 70, 0
1, 480, Note_on_c, 0, 72, 76
1, 480, Note_on_c, 1, 53, 70
1, 495, Note_on_c, 0, 72, 0
1, 496, Note_on_c, 0, 70, 76
1, 511, Note_on_c, 0, 70, 0
1, 512, Note_on_c, 0, 72, 76
1, 525, Note_on_c, 1, 53, 0
1, 527, Note_on_c, 0, 72, 0
1, 528, Note_on_c, 0, 70, 76
1, 528, Note_on_c, 1, 58, 70
1, 543, Note_on_c, 0, 70, 0
1, 544, Note_on_c, 0, 69, 76
1, 559, Note_on_c, 0, 69, 0
1, 560, Note_on_c, 0, 70, 77
1, 573, Note_on_c, 1, 58, 0
1, 575, Note_on_c, 0, 70, 0
1, 576, Note_on_c, 0, 72, 93
1, 576, Note_on_c, 1, 45, 70
1, 621, Note_on_c, 1, 45, 0
1, 624, Note_on_c, 1, 48, 70
1, 669, Note_on_c, 1, 48, 0
1, 672, Note_on_c, 0, 72, 0
1, 672, Note_on_c, 0, 74, 78
1, 672, Note_on_c, 1, 53, 70
1, 687, Note_on_c, 0, 74, 0
1, 688, Note_on_c, 0, 72, 78
1, 703, Note_on_c, 0, 72, 0
1, 704, Note_on_c, 0, 74, 78
1, 717, Note_on_c, 1, 53, 0
1, 719, Note_on_c, 0, 74, 0
1, 720, Note_on_c, 0, 72, 78
1, 720, Note_on_c, 1, 57, 70
1, 735, Note_on_c, 0, 72, 0
1, 736, Note_on_c, 0, 70, 79
1, 751, Note_on_c, 0, 70, 0
1, 752, Note_on_c, 0, 72, 79
1, 765, Note_on_c, 1, 57, 0
1, 767, Note_on_c, 0, 72, 0
1, 768, Note_on_c, 0, 74, 96
1, 768, Note_on_c, 1, 46, 70
1, 813, Note_on_c, 1, 46, 0
1, 816, Note_on_c, 1, 50, 70
1, 861, Note_on_c, 1, 50, 0
1, 864, Note_on_c, 0, 74, 0
1, 864, Note_on_c, 0, 77, 80
1, 864, Note_on_c, 0, 74, 80
1, 864, Note_on_c, 1, 53, 70
1, 909, Note_on_c, 0, 77, 0
1, 909, Note_on_c, 0, 74, 0
1, 909, Note_on_c, 1, 53, 0
1, 912, Note_on_c, 0, 75, 80
1, 912, Note_on_c, 0, 72, 80
1, 912, Note_on_c, 1, 58, 70
1, 957, Note_on_c, 0, 75, 0
1, 957, Note_on_c, 0, 72, 0
1, 957, Note_on_c, 1, 58, 0
1, 960, Note_on_c, 0, 74, 79
1, 960, Note_on_c, 0, 70, 79
1, 960, Note_on_c, 1, 53, 70
1, 1005, Note_on_c, 1, 53, 0
1, 1008, Note_on_c, 1, 65, 70
1, 1053, Note_on_c, 1, 65, 0
1, 1056, Note_on_c, 0, 74, 0
1, 1056, Note_on_c, 0, 70, 0
1, 1056, Note_on_c, 0, 72, 77
1, 1056, Note_on_c, 0, 69, 77
1, 1056, Note_on_c, 1, 64, 70
1, 1101, Note_on_c, 1, 64, 0
1, 1104, Note_on_c, 1, 65, 70
1, 1145, Note_on_c, 0, 72, 0
1, 1145, Note_on_c, 0, 69, 0
1, 1149, Note_on_c, 1, 65, 0
1, 1152, Note_on_c, 0, 70, 75
1, 1152, Note_on_c, 0, 65, 75
1, 1152, Note_on_c, 1, 62, 75
1, 1191, Note_on_c, 0, 70, 0
1, 1191, Note_on_c, 0, 65, 0
1, 1191, Note_on_c, 1, 62, 0
1, 1248, Note_on_c, 0, 70, 76
1, 1248, Note_on_c, 0, 65, 76
1, 1248, Note_on_c, 1, 62, 75
1, 1344, Note_on_c, 0, 70, 0
1, 1344, Note_on_c, 0, 72, 77
1, 1344, Note_on_c, 1, 62, 0
1, 1344, Note_on_c, 1, 57, 75
1, 1383, Note_on_c, 0, 72, 0
1, 1383, Note_on_c, 0, 65, 0
1, 1383, Note_on_c, 1, 57, 0
1, 1440, Note_on_c, 0, 72, 78
1, 1440, Note_on_c, 0, 65, 78
1, 1440, Note_on_c, 1, 57, 75
1, 1536, Note_on_c, 0, 72, 0
1, 1536, Note_on_c, 0, 65, 0
1, 1536, Note_on_c, 0, 74, 80
1, 1536, Note_on_c, 0, 70, 80
1, 1536, Note_on_c, 1, 57, 0
1, 1536, Note_on_c, 1, 58, 75
1, 1556, Note_on_c, 0, 74, 0
1, 1556, Note_on_c, 0, 70, 0
1, 1575, Note_on_c, 1, 58, 0
1, 1584, Note_on_c, 0, 82, 96
1, 1632, Note_on_c, 1, 60, 73
1, 1680, Note_on_c, 0, 82, 0
1, 1680, Note_on_c, 0, 76, 80
1, 1692, Note_on_c, 0, 76, 0
1, 1692, Note_on_c, 0, 77, 80
1, 1704, Note_on_c, 0, 77, 0
1, 1704, Note_on_c, 0, 76, 80
1, 1721, Note_on_c, 1, 60, 0
1, 1725, Note_on_c, 0, 76, 0
1, 1728, Note_on_c, 0, 77, 79
1, 1728, Note_on_c, 1, 53, 71
1, 1817, Note_on_c, 0, 77, 0
1, 1817, Note_on_c, 1, 53, 0
1, 1824, Note_on_c, 0, 79, 77
1, 1847, Note_on_c, 0, 79, 0
1, 1848, Note_on_c, 0, 77, 76
1, 1871, Note_on_c, 0, 77, 0
1, 1872, Note_on_c, 0, 75, 76
1, 1895, Note_on_c, 0, 75, 0
1, 1896, Note_on_c, 0, 74, 75
1, 1919, Note_on_c, 0, 74, 0
1, 1920, Note_on_c, 0, 72, 75
1, 1920, Note_on_c, 1, 51, 70
1, 1965, Note_on_c, 1, 51, 0
1, 1968, Note_on_c, 1, 60, 70
1, 2009, Note_on_c, 0, 72, 0
1, 2013, Note_on_c, 1, 60, 0
1, 2016, Note_on_c, 0, 84, 108
1, 2016, Note_on_c, 1, 55, 70
1, 2061, Note_on_c, 1, 55, 0
1, 2064, Note_on_c, 1, 60, 70
1, 2093, Note_on_c, 0, 84, 0
1, 2109, Note_on_c, 1, 60, 0
1, 2112, Note_on_c, 1, 53, 70
1, 2157, Note_on_c, 1, 53, 0
1, 2160, Note_on_c, 1, 60, 70
1, 2205, Note_on_c, 1, 60, 0
1, 2208, Note_on_c, 0, 77, 75
1, 2208, Note_on_c, 1, 57, 70
1, 2253, Note_on_c, 1, 57, 0
1, 2256, Note_on_c, 1, 60, 70
1, 2297, Note_on_c, 0, 77, 0
1, 2301, Note_on_c, 1, 60, 0
1, 2304, Note_on_c, 0, 84, 76
1, 2304, Note_on_c, 1, 50, 70
1, 2316, Note_on_c, 0, 84, 0
1, 2316, Note_on_c, 0, 82, 76
1, 2328, Note_on_c, 0, 82, 0
1, 2328, Note_on_c, 0, 81, 76
1, 2340, Note_on_c, 0, 81, 0
1, 2340, Note_on_c, 0, 82, 92
1, 2349, Note_on_c, 1, 50, 0
1, 2352, Note_on_c, 1, 58, 70
1, 2397, Note_on_c, 1, 58, 0
1, 2400, Note_on_c, 1, 53, 70
1, 2445, Note_on_c, 1, 53, 0
1, 2448, Note_on_c, 0, 82, 0
1, 2448, Note_on_c, 0, 84, 78
1, 2448, Note_on_c, 1, 58, 70
1, 2493, Note_on_c, 0, 84, 0
1, 2493, Note_on_c, 1, 58, 0
1, 2496, Note_on_c, 0, 86, 78
1, 2496, Note_on_c, 1, 46, 70
1, 2541, Note_on_c, 1, 46, 0
1, 2544, Note_on_c, 1, 50, 70
1, 2585, Note_on_c, 0, 86, 0
1, 2589, Note_on_c, 1, 50, 0
1, 2592, Note_on_c, 0, 71, 80
1, 2592, Note_on_c, 1, 55, 70
1, 2637, Note_on_c, 1, 55, 0
1, 2640, Note_on_c, 1, 53, 70
1, 2681, Note_on_c, 0, 71, 0
1, 2685, Note_on_c, 1, 53, 0
1, 2688, Note_on_c, 0, 72, 79
1, 2688, Note_on_c, 1, 51, 70
1, 2755, Note_on_c, 0, 72, 0
1, 2760, Note_on_c, 0, 75, 78
1, 2777, Note_on_c, 1, 51, 0
1, 2783, Note_on_c, 0, 75, 0
1, 2784, Note_on_c, 0, 79, 78
1, 2873, Note_on_c, 0, 79, 0
1, 2976, Note_on_c, 0, 69, 76
1, 2976, Note_on_c, 0, 63, 76
1, 2976, Note_on_c, 1, 53, 75
1, 3015, Note_on_c, 0, 69, 0
1, 3015, Note_on_c, 0, 63, 0
1, 3015, Note_on_c, 1, 53, 0
1, 3072, Note_on_c, 0, 70, 75
1, 3072, Note_on_c, 0, 62, 75
1, 3072, Note_on_c, 1, 46, 75
1, 3161, Note_on_c, 0, 70, 0
1, 3161, Note_on_c, 0, 62, 0
1, 3161, Note_on_c, 1, 46, 0
1, 3264, Note_on_c, 0, 77, 75
1, 3303, Note_on_c, 0, 77, 0
1, 3360, Note_on_c, 0, 74, 75
1, 3399, Note_on_c, 0, 74, 0
1, 3456, Note_on_c, 0, 70, 91
1, 3456, Note_on_c, 1, 46, 70
1, 3501, Note_on_c, 1, 46, 0
1, 3504, Note_on_c, 1, 50, 70
1, 3549, Note_on_c, 1, 50, 0
1, 3552, Note_on_c, 0, 70, 0
1, 3552, Note_on_c, 0, 72, 76
1, 3552, Note_on_c, 1, 53, 70
1, 3567, Note_on_c, 0, 72, 0
1, 3568, Note_on_c, 0, 70, 76
1, 3583, Note_on_c, 0, 70, 0
1, 3584, Note_on_c, 0, 72, 76
1, 3597, Note_on_c, 1, 53, 0
1, 3599, Note_on_c, 0, 72, 0
1, 3600, Note_on_c, 0, 70, 76
1, 3600, Note_on_c, 1, 58, 70
1, 3615, Note_on_c, 0, 70, 0
1, 3616, Note_on_c, 0, 69, 76
1, 3631, Note_on_c, 0, 69, 0
1, 3632, Note_on_c, 0, 70, 77
1, 3645, Note_on_c, 1, 58, 0
1, 3647, Note_on_c, 0, 70, 0
1, 3648, Note_on_c, 0, 72, 93
1, 3648, Note_on_c, 1, 45, 70
1, 3693, Note_on_c, 1, 45, 0
1, 3696, Note_on_c, 1, 48, 70
1, 3741, Note_on_c, 1, 48, 0
1, 3744, Note_on_c, 0, 72, 0
1, 3744, Note_on_c, 0, 74, 78
1, 3744, Note_on_c, 1, 53, 70
1, 3759, Note_on_c, 0, 74, 0
1, 3760, Note_on_c, 0, 72, 78
1, 3775, Note_on_c, 0, 72, 0
1, 3776, Note_on_c, 0, 74, 78
1, 3789, Note_on_c, 1, 53, 0
1, 3791, Note_on_c, 0, 74, 0
1, 3792, Note_on_c, 0, 72, 78
1, 3792, Note_on_c, 1, 57, 70
1, 3807, Note_on_c, 0, 72, 0
1, 3808, Note_on_c, 0, 70, 79
1, 3823, Note_on_c, 0, 70, 0
1, 3824, Note_on_c, 0, 72, 79
1, 3837, Note_on_c, 1, 57, 0
1, 3839, Note_on_c, 0, 72, 0
1, 3840, Note_on_c, 0, 74, 96
1, 3840, Note_on_c, 1, 46, 70
1, 3885, Note_on_c, 1, 46, 0
1, 3888, Note_on_c, 1, 50, 70
1, 3933, Note_on_c, 1, 50, 0
1, 3936, Note_on_c, 0, 74, 0
1, 3936, Note_on_c, 0, 77, 80
1, 3936, Note_on_c, 0, 74, 80
1, 3936, Note_on_c, 1, 53, 70
1, 3981, Note_on_c, 0, 77, 0
1, 3981, Note_on_c, 0, 74, 0
1, 3981, Note_on_c, 1, 53, 0
1, 3984, Note_on_c, 0, 75, 80
1, 3984, Note_on_c, 0, 72, 80
1, 3984, Note_on_c, 1, 58, 70
1, 4029, Note_on_c, 0, 75, 0
1, 4029, Note_on_c, 0, 72, 0
1, 4029, Note_on_c, 1, 58, 0
1, 4032, Note_on_c, 0, 74, 79
1, 4032, Note_on_c, 0, 70, 79
1, 4032, Note_on_c, 1, 53, 70
1, 4077, Note_on_c, 1, 53, 0
1, 4080, Note_on_c, 1, 65, 70
1, 4125, Note_on_c, 1, 65, 0
1, 4128, Note_on_c, 0, 74, 0
1, 4128, Note_on_c, 0, 70, 0
1, 4128, Note_on_c, 0, 72, 77
1, 4128, Note_on_c, 0, 69, 77
1, 4128, Note_on_c, 1, 64, 70
1, 4173, Note_on_c, 1, 64, 0
1, 4176, Note_on_c, 1, 65, 70
1, 4217, Note_on_c, 0, 72, 0
1, 4217, Note_on_c, 0, 69, 0
1, 4221, Note_on_c, 1, 65, 0
1, 4224, Note_on_c, 0, 70, 75
1, 4224, Note_on_c, 0, 65, 75
1, 4224, Note_on_c, 1, 62, 75
1, 4263, Note_on_c, 0, 70, 0
1, 4263, Note_on_c, 0, 65, 0
1, 4263, Note_on_c, 1, 62, 0
1, 4320, Note_on_c, 0, 70, 76
1, 4320, Note_on_c, 0, 65, 76
1, 4320, Note_on_c, 1, 62, 75
1, 4416, Note_on_c, 0, 70, 0
1, 4416, Note_on_c, 0, 72, 77
1, 4416, Note_on_c, 1, 62, 0
1, 4416, Note_on_c, 1, 57, 75
1, 4455, Note_on_c, 0, 72, 0
1, 4455, Note_on_c, 0, 65, 0
1, 4455, Note_on_c, 1, 57, 0
1, 4512, Note_on_c, 0, 72, 78
1, 4512, Note_on_c, 0, 65, 78
1, 4512, Note_on_c, 1, 57, 75
1, 4608, Note_on_c, 0, 72, 0
1, 4608, Note_on_c, 0, 65, 0
1, 4608, Note_on_c, 0, 74, 80
1, 4608, Note_on_c, 0, 70, 80
1, 4608, Note_on_c, 1, 57, 0
1, 4608, Note_on_c, 1, 58, 75
1, 4628, Note_on_c, 0, 74, 0
1, 4628, Note_on_c, 0, 70, 0
1, 4647, Note_on_c, 1, 58, 0
1, 4656, Note_on_c, 0, 82, 96
1, 4704, Note_on_c, 1, 60, 73
1, 4752, Note_on_c, 0, 82, 0
1, 4752, Note_on_c, 0, 76, 80
1, 4764, Note_on_c, 0, 76, 0
1, 4764, Note_on_c, 0, 77, 80
1, 4776, Note_on_c, 0, 77, 0
1, 4776, Note_on_c, 0, 76, 80
1, 4793, Note_on_c, 1, 60, 0
1, 4797, Note_on_c, 0, 76, 0
1, 4800, Note_on_c, 0, 77, 79
1, 4800, Note_on_c, 1, 53, 71
1, 4889, Note_on_c, 0, 77, 0
1, 4889, Note_on_c, 1, 53, 0
1, 4896, Note_on_c, 0, 79, 77
1, 4919, Note_on_c, 0, 79, 0
1, 4920, Note_on_c, 0, 77, 76
1, 4943, Note_on_c, 0, 77, 0
1, 4944, Note_on_c, 0, 75, 76
1, 4967, Note_on_c, 0, 75, 0
1, 4968, Note_on_c, 0, 74, 75
1, 4991, Note_on_c, 0, 74, 0
1, 4992, Note_on_c, 0, 72, 75
1, 4992, Note_on_c, 1, 51, 70
1, 5037, Note_on_c, 1, 51, 0
1, 5040, Note_on_c, 1, 60, 70
1, 5081, Note_on_c, 0, 72, 0
1, 5085, Note_on_c, 1, 60, 0
1, 5088, Note_on_c, 0, 84, 108
1, 5088, Note_on_c, 1, 55, 70
1, 5133, Note_on_c, 1, 55, 0
1, 5136, Note_on_c, 1, 60, 70
1, 5165, Note_on_c, 0, 84, 0
1, 5181, Note_on_c, 1, 60, 0
1, 5184, Note_on_c, 1, 53, 70
1, 5229, Note_on_c, 1, 53, 0
1, 5232, Note_on_c, 1, 60, 70
1, 5277, Note_on_c, 1, 60, 0
1, 5280, Note_on_c, 0, 77, 75
1, 5280, Note_on_c, 1, 57, 70
1, 5325, Note_on_c, 1, 57, 0
1, 5328, Note_on_c, 1, 60, 70
1, 5369, Note_on_c, 0, 77, 0
1, 5373, Note_on_c, 1, 60, 0
1, 5376, Note_on_c, 0, 84, 76
1, 5376, Note_on_c, 1, 50, 70
1, 5388, Note_on_c, 0, 84, 0
1, 5388, Note_on_c, 0, 82, 76
1, 5400, Note_on_c, 0, 82, 0
1, 5400, Note_on_c, 0, 81, 76
1, 5412, Note_on_c, 0, 81, 0
1, 5412, Note_on_c, 0, 82, 92
1, 5421, Note_on_c, 1, 50, 0
1, 5424, Note_on_c, 1, 58, 70
1, 5469, Note_on_c, 1, 58, 0
1, 5472, Note_on_c, 1, 53, 70
1, 5517, Note_on_c, 1, 53, 0
1, 5520, Note_on_c, 0, 82, 0
1, 5520, Note_on_c, 0, 84, 78
1, 5520, Note_on_c, 1, 58, 70
1, 5565, Note_on_c, 0, 84, 0
1, 5565, Note_on_c, 1, 58, 0
1, 5568, Note_on_c, 0, 86, 78
1, 5568, Note_on_c, 1, 46, 70
1, 5613, Note_on_c, 1, 46, 0
1, 5616, Note_on_c, 1, 50, 70
1, 5657, Note_on_c, 0, 86, 0
1, 5661, Note_on_c, 1, 50, 0
1, 5664, Note_on_c, 0, 71, 80
1, 5664, Note_on_c, 1, 55, 70
1, 5709, Note_on_c, 1, 55, 0
1, 5712, Note_on_c, 1, 53, 70
1, 5753, Note_on_c, 0, 71, 0
1, 5757, Note_on_c, 1, 53, 0
1, 5760, Note_on_c, 0, 72, 79
1, 5760, Note_on_c, 1, 51, 70
1, 5827, Note_on_c, 0, 72, 0
1, 5832, Note_on_c, 0, 75, 78
1, 5849, Note_on_c, 1, 51, 0
1, 5855, Note_on_c, 0, 75, 0
1, 5856, Note_on_c, 0, 79, 78
1, 5945, Note_on_c, 0, 79, 0
1, 6048, Note_on_c, 0, 69, 76
1, 6048, Note_on_c, 0, 63, 76
1, 6048, Note_on_c, 1, 53, 75
1, 6087, Note_on_c, 0, 69, 0
1, 6087, Note_on_c, 0, 63, 0
1, 6087, Note_on_c, 1, 53, 0
1, 6144, Note_on_c, 0, 70, 75
1, 6144, Note_on_c, 0, 62, 75
1, 6144, Note_on_c, 1, 58, 75
1, 6189, Note_on_c, 1, 58, 0
1, 6192, Note_on_c, 1, 46, 75
1, 6233, Note_on_c, 0, 70, 0
1, 6233, Note_on_c, 0, 62, 0
1, 6237, Note_on_c, 1, 46, 0
1, 6240, Note_on_c, 1, 50, 75
1, 6285, Note_on_c, 1, 50, 0
1, 6288, Note_on_c, 1, 53, 76
1, 6333, Note_on_c, 1, 53, 0
1, 6336, Note_on_c, 1, 58, 77
1, 6381, Note_on_c, 1, 58, 0
1, 6384, Note_on_c, 1, 62, 77
1, 6429, Note_on_c, 1, 62, 0
1, 6432, Note_on_c, 1, 65, 78
1, 6477, Note_on_c, 1, 65, 0
1, 6480, Note_on_c, 1, 69, 79
1, 6525, Note_on_c, 1, 69, 0
1, 6528, Note_on_c, 0, 82, 80
1, 6528, Note_on_c, 1, 70, 80
1, 6528, Note_on_c, 1, 65, 80
1, 6528, Note_on_c, 1, 62, 80
1, 6528, Note_on_c, 1, 58, 80
1, 6551, Note_on_c, 0, 82, 0
1, 6552, Note_on_c, 0, 84, 80
1, 6575, Note_on_c, 0, 84, 0
1, 6576, Note_on_c, 0, 86, 80
1, 6599, Note_on_c, 0, 86, 0
1, 6600, Note_on_c, 0, 84, 80
1, 6617, Note_on_c, 1, 70, 0
1, 6617, Note_on_c, 1, 65, 0
1, 6617, Note_on_c, 1, 62, 0
1, 6617, Note_on_c, 1, 58, 0
1, 6623, Note_on_c, 0, 84, 0
1, 6624, Note_on_c, 0, 82, 80
1, 6647, Note_on_c, 0, 82, 0
1, 6648, Note_on_c, 0, 81, 80
1, 6671, Note_on_c, 0, 81, 0
1, 6672, Note_on_c, 0, 79, 80
1, 6695, Note_on_c, 0, 79, 0
1, 6696, Note_on_c, 0, 77, 80
1, 6719, Note_on_c, 0, 77, 0
1, 6720, Note_on_c, 0, 75, 80
1, 6720, Note_on_c, 1, 65, 80
1, 6720, Note_on_c, 1, 60, 80
1, 6720, Note_on_c, 1, 57, 80
1, 6720, Note_on_c, 1, 53, 80
1, 6743, Note_on_c, 0, 75, 0
1, 6744, Note_on_c, 0, 81, 80
1, 6767, Note_on_c, 0, 81, 0
1, 6768, Note_on_c, 0, 84, 80
1, 6791, Note_on_c, 0, 84, 0
1, 6792, Note_on_c, 0, 82, 80
1, 6809, Note_on_c, 1, 65, 0
1, 6809, Note_on_c, 1, 60, 0
1, 6809, Note_on_c, 1, 57, 0
1, 6809, Note_on_c, 1, 53, 0
1, 6815, Note_on_c, 0, 82, 0
1, 6816, Note_on_c, 0, 81, 80
1, 6839, Note_on_c, 0, 81, 0
1, 6840, Note_on_c, 0, 79, 80
1, 6863, Note_on_c, 0, 79, 0
1, 6864, Note_on_c, 0, 77, 80
1, 6887, Note_on_c, 0, 77, 0
1, 6888, Note_on_c, 0, 75, 80
1, 6911, Note_on_c, 0, 75, 0
1, 6912, Note_on_c, 0, 74, 80
1, 6912, Note_on_c, 1, 58, 80
1, 6912, Note_on_c, 1, 53, 80
1, 6912, Note_on_c, 1, 50, 80
1, 6912, Note_on_c, 1, 46, 80
1, 6935, Note_on_c, 0, 74, 0
1, 6936, Note_on_c, 0, 77, 80
1, 6959, Note_on_c, 0, 77, 0
1, 6960, Note_on_c, 0, 82, 80
1, 6983, Note_on_c, 0, 82, 0
1, 6984, Note_on_c, 0, 81, 80
1, 7001, Note_on_c, 1, 58, 0
1, 7001, Note_on_c, 1, 53, 0
1, 7001, Note_on_c, 1, 50, 0
1, 7001, Note_on_c, 1, 46, 0
1, 7007, Note_on_c, 0, 81, 0
1, 7008, Note_on_c, 0, 79, 80
1, 7031, Note_on_c, 0, 79, 0
1, 7032, Note_on_c, 0, 77, 80
1, 7055, Note_on_c, 0, 77, 0
1, 7056, Note_on_c, 0, 75, 80
1, 7079, Note_on_c, 0, 75, 0
1, 7080, Note_on_c, 0, 74, 80
1, 7103, Note_on_c, 0, 74, 0
1, 7104, Note_on_c, 0, 72, 80
1, 7104, Note_on_c, 0, 69, 80
1, 7104, Note_on_c, 1, 41, 80
1, 7127, Note_on_c, 0, 72, 0
1, 7127, Note_on_c, 0, 69, 0
1, 7127, Note_on_c, 1, 41, 0
1, 7128, Note_on_c, 0, 65, 80
1, 7128, Note_on_c, 1, 53, 80
1, 7151, Note_on_c, 0, 65, 0
1, 7151, Note_on_c, 1, 53, 0
1, 7152, Note_on_c, 0, 74, 80
1, 7152, Note_on_c, 0, 70, 80
1, 7152, Note_on_c, 1, 41, 80
1, 7175, Note_on_c, 0, 74, 0
1, 7175, Note_on_c, 0, 70, 0
1, 7175, Note_on_c, 1, 41, 0
1, 7176, Note_on_c, 0, 65, 80
1, 7176, Note_on_c, 1, 53, 80
1, 7199, Note_on_c, 0, 65, 0
1, 7199, Note_on_c, 1, 53, 0
1, 7200, Note_on_c, 0, 75, 80
1, 7200, Note_on_c, 0, 72, 80
1, 7200, Note_on_c, 1, 41, 80
1, 7223, Note_on_c, 0, 75, 0
1, 7223, Note_on_c, 0, 72, 0
1, 7223, Note_on_c, 1, 41, 0
1, 7224, Note_on_c, 0, 65, 80
1, 7224, Note_on_c, 1, 53, 80
1, 7247, Note_on_c, 0, 65, 0
1, 7247, Note_on_c, 1, 53, 0
1, 7248, Note_on_c, 0, 74, 80
1, 7248, Note_on_c, 0, 70, 80
1, 7248, Note_on_c, 1, 41, 80
1, 7271, Note_on_c, 0, 74, 0
1, 7271, Note_on_c, 0, 70, 0
1, 7271, Note_on_c, 1, 41, 0
1, 7272, Note_on_c, 0, 65, 80
1, 7272, Note_on_c, 1, 53, 80
1, 7295, Note_on_c, 0, 65, 0
1, 7295, Note_on_c, 1, 53, 0
1, 7296, Note_on_c, 0, 60, 80
1, 7296, Note_on_c, 0, 57, 80
1, 7296, Note_on_c, 1, 41, 80
1, 7319, Note_on_c, 0, 60, 0
1, 7319, Note_on_c, 0, 57, 0
1, 7319, Note_on_c, 1, 41, 0
1, 7320, Note_on_c, 0, 53, 80
1, 7320, Note_on_c, 1, 53, 80
1, 7343, Note_on_c, 0, 53, 0
1, 7343, Note_on_c, 1, 53, 0
1, 7344, Note_on_c, 0, 62, 80
1, 7344, Note_on_c, 0, 58, 80
1, 7344, Note_on_c, 1, 41, 80
1, 7367, Note_on_c, 0, 62, 0
1, 7367, Note_on_c, 0, 58, 0
1, 7367, Note_on_c, 1, 41, 0
1, 7368, Note_on_c, 0, 53, 80
1, 7368, Note_on_c, 1, 53, 80
1, 7391, Note_on_c, 0, 53, 0
1, 7391, Note_on_c, 1, 53, 0
1, 7392, Note_on_c, 0, 63, 80
1, 7392, Note_on_c, 0, 60, 80
1, 7392, Note_on_c, 1, 41, 80
1, 7415, Note_on_c, 0, 63, 0
1, 7415, Note_on_c, 0, 60, 0
1, 7415, Note_on_c, 1, 41, 0
1, 7416, Note_on_c, 0, 53, 80
1, 7416, Note_on_c, 1, 53, 80
1, 7439, Note_on_c, 0, 53, 0
1, 7439, Note_on_c, 1, 53, 0
1, 7440, Note_on_c, 0, 62, 80
1, 7440, Note_on_c, 0, 58, 80
1, 7440, Note_on_c, 1, 41, 80
1, 7463, Note_on_c, 0, 62, 0
1, 7463, Note_on_c, 0, 58, 0
1, 7463, Note_on_c, 1, 41, 0
1, 7464, Note_on_c, 0, 53, 80
1, 7464, Note_on_c, 1, 53, 80
1, 7487, Note_on_c, 0, 53, 0
1, 7487, Note_on_c, 1, 53, 0
1, 7488, Note_on_c, 0, 60, 80
1, 7488, Note_on_c, 0, 57, 80
1, 7488, Note_on_c, 1, 41, 80
1, 7511, Note_on_c, 1, 41, 0
1, 7512, Note_on_c, 1, 45, 80
1, 7535, Note_on_c, 1, 45, 0
1, 7536, Note_on_c, 1, 48, 80
1, 7559, Note_on_c, 1, 48, 0
1, 7560, Note_on_c, 1, 53, 80
1, 7577, Note_on_c, 0, 60, 0
1, 7577, Note_on_c, 0, 57, 0
1, 7583, Note_on_c, 1, 53, 0
1, 7584, Note_on_c, 1, 41, 80
1, 7607, Note_on_c, 1, 41, 0
1, 7608, Note_on_c, 1, 53, 80
1, 7631, Note_on_c, 1, 53, 0
1, 7632, Note_on_c, 1, 39, 80
1, 7655, Note_on_c, 1, 39, 0
1, 7656, Note_on_c, 1, 51, 80
1, 7679, Note_on_c, 1, 51, 0
1, 7680, Note_on_c, 1, 50, 80
1, 7680, Note_on_c, 1, 38, 80
1, 7704, Note_on_c, 0, 70, 80
1, 7727, Note_on_c, 0, 70, 0
1, 7728, Note_on_c, 0, 69, 80
1, 7751, Note_on_c, 0, 69, 0
1, 7752, Note_on_c, 0, 70, 80
1, 7769, Note_on_c, 1, 50, 0
1, 7769, Note_on_c, 1, 38, 0
1, 7775, Note_on_c, 0, 70, 0
1, 7776, Note_on_c, 0, 74, 80
1, 7799, Note_on_c, 0, 74, 0
1, 7800, Note_on_c, 0, 70, 80
1, 7823, Note_on_c, 0, 70, 0
1, 7824, Note_on_c, 0, 77, 80
1, 7847, Note_on_c, 0, 77, 0
1, 7848, Note_on_c, 0, 74, 80
1, 7871, Note_on_c, 0, 74, 0
1, 7872, Note_on_c, 1, 51, 80
1, 7872, Note_on_c, 1, 39, 80
1, 7896, Note_on_c, 0, 72, 80
1, 7919, Note_on_c, 0, 72, 0
1, 7920, Note_on_c, 0, 71, 80
1, 7943, Note_on_c, 0, 71, 0
1, 7944, Note_on_c, 0, 72, 80
1, 7961, Note_on_c, 1, 51, 0
1, 7961, Note_on_c, 1, 39, 0
1, 7967, Note_on_c, 0, 72, 0
1, 7968, Note_on_c, 0, 75, 80
1, 7991, Note_on_c, 0, 75, 0
1, 7992, Note_on_c, 0, 72, 80
1, 8015, Note_on_c, 0, 72, 0
1, 8016, Note_on_c, 0, 79, 80
1, 8039, Note_on_c, 0, 79, 0
1, 8040, Note_on_c, 0, 75, 80
1, 8063, Note_on_c, 0, 75, 0
1, 8064, Note_on_c, 0, 69, 80
1, 8064, Note_on_c, 1, 65, 80
1, 8064, Note_on_c, 1, 53, 80
1, 8087, Note_on_c, 0, 69, 0
1, 8088, Note_on_c, 0, 72, 80
1, 8111, Note_on_c, 0, 72, 0
1, 8112, Note_on_c, 0, 75, 80
1, 8135, Note_on_c, 0, 75, 0
1, 8136, Note_on_c, 0, 72, 80
1, 8153, Note_on_c, 1, 65, 0
1, 8153, Note_on_c, 1, 53, 0
1, 8159, Note_on_c, 0, 72, 0
1, 8160, Note_on_c, 0, 75, 80
1, 8160, Note_on_c, 1, 60, 80
1, 8160, Note_on_c, 1, 48, 80
1, 8183, Note_on_c, 0, 75, 0
1, 8184, Note_on_c, 0, 65, 80
1, 8205, Note_on_c, 1, 60, 0
1, 8205, Note_on_c, 1, 48, 0
1, 8207, Note_on_c, 0, 65, 0
1, 8208, Note_on_c, 0, 74, 80
1, 8208, Note_on_c, 1, 58, 80
1, 8208, Note_on_c, 1, 46, 80
1, 8231, Note_on_c, 0, 74, 0
1, 8232, Note_on_c, 0, 65, 80
1, 8253, Note_on_c, 1, 58, 0
1, 8253, Note_on_c, 1, 46, 0
1, 8255, Note_on_c, 0, 65, 0
1, 8256, Note_on_c, 0, 72, 80
1, 8256, Note_on_c, 1, 57, 80
1, 8256, Note_on_c, 1, 45, 80
1, 8279, Note_on_c, 0, 72, 0
1, 8280, Note_on_c, 0, 77, 80
1, 8303, Note_on_c, 0, 77, 0
1, 8304, Note_on_c, 0, 76, 80
1, 8327, Note_on_c, 0, 76, 0
1, 8328, Note_on_c, 0, 77, 80
1, 8345, Note_on_c, 1, 57, 0
1, 8345, Note_on_c, 1, 45, 0
1, 8351, Note_on_c, 0, 77, 0
1, 8352, Note_on_c, 0, 79, 80
1, 8375, Note_on_c, 0, 79, 0
1, 8376, Note_on_c, 0, 77, 78
1, 8399, Note_on_c, 0, 77, 0
1, 8400, Note_on_c, 0, 75, 77
1, 8423, Note_on_c, 0, 75, 0
1, 8424, Note_on_c, 0, 74, 76
1, 8447, Note_on_c, 0, 74, 0
1, 8448, Note_on_c, 0, 72, 75
1, 8448, Note_on_c, 1, 51, 70
1, 8487, Note_on_c, 0, 72, 0
1, 8493, Note_on_c, 1, 51, 0
1, 8496, Note_on_c, 1, 60, 70
1, 8541, Note_on_c, 1, 60, 0
1, 8544, Note_on_c, 0, 72, 91
1, 8544, Note_on_c, 1, 55, 70
1, 8589, Note_on_c, 1, 55, 0
1, 8592, Note_on_c, 1, 60, 70
1, 8637, Note_on_c, 1, 60, 0
1, 8640, Note_on_c, 1, 51, 70
1, 8685, Note_on_c, 1, 51, 0
1, 8688, Note_on_c, 1, 60, 70
1, 8733, Note_on_c, 1, 60, 0
1, 8736, Note_on_c, 0, 72, 0
1, 8736, Note_on_c, 0, 70, 75
1, 8736, Note_on_c, 1, 53, 70
1, 8759, Note_on_c, 0, 70, 0
1, 8760, Note_on_c, 0, 69, 75
1, 8781, Note_on_c, 1, 53, 0
1, 8783, Note_on_c, 0, 69, 0
1, 8784, Note_on_c, 0, 67, 75
1, 8784, Note_on_c, 1, 60, 70
1, 8807, Note_on_c, 0, 67, 0
1, 8808, Note_on_c, 0, 65, 75
1, 8829, Note_on_c, 1, 60, 0
1, 8831, Note_on_c, 0, 65, 0
1, 8832, Note_on_c, 0, 70, 75
1, 8832, Note_on_c, 1, 58, 70
1, 8832, Note_on_c, 1, 53, 70
1, 8832, Note_on_c, 1, 50, 70
1, 8844, Note_on_c, 0, 70, 0
1, 8844, Note_on_c, 0, 72, 75
1, 8856, Note_on_c, 0, 72, 0
1, 8856, Note_on_c, 0, 70, 75
1, 8965, Note_on_c, 0, 70, 0
1, 8965, Note_on_c, 1, 58, 0
1, 8965, Note_on_c, 1, 53, 0
1, 8965, Note_on_c, 1, 50, 0
1, 8976, Note_on_c, 0, 72, 72
1, 9021, Note_on_c, 0, 72, 0
1, 9024, Note_on_c, 0, 74, 71
1, 9113, Note_on_c, 0, 74, 0
1, 9216, Note_on_c, 0, 77, 70
1, 9216, Note_on_c, 1, 70, 70
1, 9216, Note_on_c, 1, 67, 70
1, 9216, Note_on_c, 1, 60, 70
1, 9228, Note_on_c, 0, 77, 0
1, 9228, Note_on_c, 0, 76, 70
1, 9240, Note_on_c, 0, 76, 0
1, 9240, Note_on_c, 0, 74, 70
1, 9252, Note_on_c, 0, 74, 0
1, 9252, Note_on_c, 0, 76, 86
1, 9360, Tempo, 600000
1, 9360, Note_on_c, 0, 76, 0
1, 9360, Note_on_c, 0, 77, 70
1, 9405, Note_on_c, 0, 77, 0
1, 9405, Note_on_c, 1, 70, 0
1, 9405, Note_on_c, 1, 67, 0
1, 9405, Note_on_c, 1, 60, 0
1, 9408, Note_on_c, 0, 79, 68
1, 9497, Note_on_c, 0, 79, 0
1, 9600, Tempo, 413793
1, 9600, Note_on_c, 0, 79, 64
1, 9645, Note_on_c, 0, 79, 0
1, 9648, Note_on_c, 0, 81, 64
1, 9663, Note_on_c, 0, 81, 0
1, 9664, Note_on_c, 0, 79, 64
1, 9679, Note_on_c, 0, 79, 0
1, 9680, Note_on_c, 0, 77, 64
1, 9695, Note_on_c, 0, 77, 0
1, 9696, Note_on_c, 0, 79, 64
1, 9741, Note_on_c, 0, 79, 0
1, 9744, Note_on_c, 0, 81, 64
1, 9789, Note_on_c, 0, 81, 0
1, 9792, Note_on_c, 0, 84, 64
1, 9840, Note_on_c, 0, 84, 0
1, 9840, Note_on_c, 0, 82, 66
1, 9885, Note_on_c, 0, 82, 0
1, 9888, Note_on_c, 0, 81, 69
1, 9908, Note_on_c, 0, 81, 0
1, 9936, Note_on_c, 0, 79, 72
1, 9956, Note_on_c, 0, 79, 0
1, 9984, Note_on_c, 0, 77, 91
1, 9984, Note_on_c, 1, 53, 70
1, 10029, Note_on_c, 1, 53, 0
1, 10032, Note_on_c, 1, 60, 70
1, 10077, Note_on_c, 1, 60, 0
1, 10080, Note_on_c, 0, 77, 0
1, 10080, Note_on_c, 0, 67, 75
1, 10080, Note_on_c, 1, 57, 70
1, 10095, Note_on_c, 0, 67, 0
1, 10096, Note_on_c, 0, 65, 75
1, 10111, Note_on_c, 0, 65, 0
1, 10112, Note_on_c, 0, 67, 75
1, 10125, Note_on_c, 1, 57, 0
1, 10127, Note_on_c, 0, 67, 0
1, 10128, Note_on_c, 0, 65, 75
1, 10128, Note_on_c, 1, 60, 70
1, 10143, Note_on_c, 0, 65, 0
1, 10144, Note_on_c, 0, 64, 75
1, 10159, Note_on_c, 0, 64, 0
1, 10160, Note_on_c, 0, 65, 75
1, 10173, Note_on_c, 1, 60, 0
1, 10175, Note_on_c, 0, 65, 0
1, 10176, Note_on_c, 0, 67, 91
1, 10176, Note_on_c, 1, 52, 70
1, 10221, Note_on_c, 1, 52, 0
1, 10224, Note_on_c, 1, 60, 70
1, 10269, Note_on_c, 1, 60, 0
1, 10272, Note_on_c, 0, 67, 0
1, 10272, Note_on_c, 0, 69, 75
1, 10272, Note_on_c, 1, 55, 70
1, 10287, Note_on_c, 0, 69, 0
1, 10288, Note_on_c, 0, 67, 75
1, 10303, Note_on_c, 0, 67, 0
1, 10304, Note_on_c, 0, 69, 75
1, 10317, Note_on_c, 1, 55, 0
1, 10319, Note_on_c, 0, 69, 0
1, 10320, Note_on_c, 0, 67, 75
1, 10320, Note_on_c, 1, 60, 70
1, 10335, Note_on_c, 0, 67, 0
1, 10336, Note_on_c, 0, 65, 75
1, 10351, Note_on_c, 0, 65, 0
1, 10352, Note_on_c, 0, 67, 75
1, 10365, Note_on_c, 1, 60, 0
1, 10367, Note_on_c, 0, 67, 0
1, 10368, Note_on_c, 0, 69, 75
1, 10368, Note_on_c, 1, 53, 75
1, 10413, Note_on_c, 0, 69, 0
1, 10416, Note_on_c, 0, 77, 108
1, 10457, Note_on_c, 1, 53, 0
1, 10464, Note_on_c, 1, 55, 75
1, 10512, Note_on_c, 0, 77, 0
1, 10512, Note_on_c, 0, 71, 75
1, 10553, Note_on_c, 1, 55, 0
1, 10557, Note_on_c, 0, 71, 0
1, 10560, Note_on_c, 0, 72, 75
1, 10560, Note_on_c, 1, 48, 75
1, 10649, Note_on_c, 0, 72, 0
1, 10649, Note_on_c, 1, 48, 0
1, 10656, Note_on_c, 0, 74, 75
1, 10679, Note_on_c, 0, 74, 0
1, 10680, Note_on_c, 0, 72, 75
1, 10703, Note_on_c, 0, 72, 0
1, 10704, Note_on_c, 0, 70, 75
1, 10727, Note_on_c, 0, 70, 0
1, 10728, Note_on_c, 0, 69, 75
1, 10751, Note_on_c, 0, 69, 0
1, 10752, Note_on_c, 0, 67, 75
1, 10752, Note_on_c, 1, 46, 75
1, 10791, Note_on_c, 0, 67, 0
1, 10797, Note_on_c, 1, 46, 0
1, 10800, Note_on_c, 1, 55, 75
1, 10845, Note_on_c, 1, 55, 0
1, 10848, Note_on_c, 0, 67, 91
1, 10848, Note_on_c, 1, 50, 75
1, 10893, Note_on_c, 1, 50, 0
1, 10896, Note_on_c, 1, 55, 75
1, 10941, Note_on_c, 1, 55, 0
1, 10944, Note_on_c, 1, 36, 80
1, 10964, Note_on_c, 1, 36, 0
1, 10992, Note_on_c, 1, 40, 80
1, 11012, Note_on_c, 1, 40, 0
1, 11040, Note_on_c, 0, 67, 0
1, 11040, Note_on_c, 0, 64, 75
1, 11040, Note_on_c, 1, 43, 80
1, 11060, Note_on_c, 1, 43, 0
1, 11088, Note_on_c, 1, 48, 80
1, 11108, Note_on_c, 1, 48, 0
1, 11129, Note_on_c, 0, 64, 0
1, 11136, Note_on_c, 0, 67, 75
1, 11136, Note_on_c, 1, 45, 75
1, 11148, Note_on_c, 0, 67, 0
1, 11148, Note_on_c, 0, 65, 75
1, 11160, Note_on_c, 0, 65, 0
1, 11160, Note_on_c, 0, 64, 75
1, 11172, Note_on_c, 0, 64, 0
1, 11172, Note_on_c, 0, 65, 75
1, 11181, Note_on_c, 1, 45, 0
1, 11184, Note_on_c, 1, 53, 75
1, 11229, Note_on_c, 1, 53, 0
1, 11232, Note_on_c, 1, 48, 75
1, 11269, Note_on_c, 0, 65, 0
1, 11277, Note_on_c, 1, 48, 0
1, 11280, Note_on_c, 0, 67, 75
1, 11280, Note_on_c, 1, 53, 75
1, 11325, Note_on_c, 0, 67, 0
1, 11325, Note_on_c, 1, 53, 0
1, 11328, Note_on_c, 0, 69, 75
1, 11328, Note_on_c, 1, 41, 75
1, 11417, Note_on_c, 0, 69, 0
1, 11417, Note_on_c, 1, 41, 0
1, 11424, Note_on_c, 0, 67, 80
1, 11424, Note_on_c, 1, 54, 80
1, 11439, Note_on_c, 0, 67, 0
1, 11439, Note_on_c, 1, 54, 0
1, 11440, Note_on_c, 0, 66, 80
1, 11440, Note_on_c, 1, 55, 80
1, 11455, Note_on_c, 0, 66, 0
1, 11455, Note_on_c, 1, 55, 0
1, 11456, Note_on_c, 0, 67, 80
1, 11456, Note_on_c, 1, 54, 80
1, 11471, Note_on_c, 0, 67, 0
1, 11471, Note_on_c, 1, 54, 0
1, 11472, Note_on_c, 0, 66, 80
1, 11472, Note_on_c, 1, 54, 80
1, 11487, Note_on_c, 0, 66, 0
1, 11487, Note_on_c, 1, 54, 0
1, 11488, Note_on_c, 0, 64, 80
1, 11488, Note_on_c, 1, 52, 80
1, 11503, Note_on_c, 0, 64, 0
1, 11503, Note_on_c, 1, 52, 0
1, 11504, Note_on_c, 0, 66, 80
1, 11504, Note_on_c, 1, 54, 80
1, 11519, Note_on_c, 0, 66, 0
1, 11519, Note_on_c, 1, 54, 0
1, 11520, Note_on_c, 0, 67, 80
1, 11520, Note_on_c, 1, 55, 80
1, 11550, Note_on_c, 0, 67, 0
1, 11552, Note_on_c, 0, 70, 80
1, 11582, Note_on_c, 0, 70, 0
1, 11584, Note_on_c, 0, 74, 80
1, 11609, Note_on_c, 1, 55, 0
1, 11614, Note_on_c, 0, 74, 0
1, 11616, Note_on_c, 0, 74, 80
1, 11616, Note_on_c, 1, 58, 80
1, 11646, Note_on_c, 0, 74, 0
1, 11648, Note_on_c, 0, 70, 80
1, 11678, Note_on_c, 0, 70, 0
1, 11680, Note_on_c, 0, 67, 80
1, 11705, Note_on_c, 1, 58, 0
1, 11710, Note_on_c, 0, 67, 0
1, 11712, Note_on_c, 0, 72, 80
1, 11712, Note_on_c, 1, 60, 80
1, 11742, Note_on_c, 0, 72, 0
1, 11744, Note_on_c, 0, 69, 80
1, 11774, Note_on_c, 0, 69, 0
1, 11776, Note_on_c, 0, 65, 80
1, 11801, Note_on_c, 1, 60, 0
1, 11806, Note_on_c, 0, 65, 0
1, 11808, Note_on_c, 0, 70, 80
1, 11808, Note_on_c, 1, 48, 80
1, 11838, Note_on_c, 0, 70, 0
1, 11840, Note_on_c, 0, 67, 80
1, 11870, Note_on_c, 0, 67, 0
1, 11872, Note_on_c, 0, 64, 80
1, 11897, Note_on_c, 1, 48, 0
1, 11902, Note_on_c, 0, 64, 0
1, 11904, Note_on_c, 0, 67, 80
1, 11904, Note_on_c, 1, 41, 80
1, 11949, Note_on_c, 1, 41, 0
1, 11952, Note_on_c, 1, 43, 80
1, 11975, Note_on_c, 1, 43, 0
1, 11976, Note_on_c, 1, 45, 80
1, 11999, Note_on_c, 1, 45, 0
1, 12000, Note_on_c, 1, 46, 80
1, 12023, Note_on_c, 1, 46, 0
1, 12024, Note_on_c, 1, 48, 80
1, 12047, Note_on_c, 1, 48, 0
1, 12048, Note_on_c, 1, 50, 80
1, 12071, Note_on_c, 1, 50, 0
1, 12072, Note_on_c, 1, 52, 80
1, 12095, Note_on_c, 1, 52, 0
1, 12096, Note_on_c, 0, 67, 0
1, 12096, Note_on_c, 0, 65, 80
1, 12096, Note_on_c, 1, 53, 80
1, 12141, Note_on_c, 0, 65, 0
1, 12144, Note_on_c, 0, 77, 80
1, 12185, Note_on_c, 1, 53, 0
1, 12189, Note_on_c, 0, 77, 0
1, 12192, Note_on_c, 0, 72, 80
1, 12237, Note_on_c, 0, 72, 0
1, 12240, Note_on_c, 0, 75, 80
1, 12285, Note_on_c, 0, 75, 0
1, 12288, Note_on_c, 0, 74, 91
1, 12288, Note_on_c, 1, 46, 70
1, 12333, Note_on_c, 1, 46, 0
1, 12336, Note_on_c, 0, 74, 0
1, 12336, Note_on_c, 0, 70, 75
1, 12336, Note_on_c, 1, 50, 70
1, 12381, Note_on_c, 0, 70, 0
1, 12381, Note_on_c, 1, 50, 0
1, 12384, Note_on_c, 0, 72, 76
1, 12384, Note_on_c, 1, 53, 70
1, 12399, Note_on_c, 0, 72, 0
1, 12400, Note_on_c, 0, 70, 76
1, 12415, Note_on_c, 0, 70, 0
1, 12416, Note_on_c, 0, 72, 76
1, 12429, Note_on_c, 1, 53, 0
1, 12431, Note_on_c, 0, 72, 0
1, 12432, Note_on_c, 0, 70, 76
1, 12432, Note_on_c, 1, 58, 70
1, 12447, Note_on_c, 0, 70, 0
1, 12448, Note_on_c, 0, 69, 76
1, 12463, Note_on_c, 0, 69, 0
1, 12464, Note_on_c, 0, 70, 77
1, 12477, Note_on_c, 1, 58, 0
1, 12479, Note_on_c, 0, 70, 0
1, 12480, Note_on_c, 0, 72, 93
1, 12480, Note_on_c, 1, 45, 70
1, 12525, Note_on_c, 1, 45, 0
1, 12528, Note_on_c, 0, 72, 0
1, 12528, Note_on_c, 0, 72, 77
1, 12528, Note_on_c, 1, 48, 70
1, 12573, Note_on_c, 0, 72, 0
1, 12573, Note_on_c, 1, 48, 0
1, 12576, Note_on_c, 0, 74, 78
1, 12576, Note_on_c, 1, 53, 70
1, 12591, Note_on_c, 0, 74, 0
1, 12592, Note_on_c, 0, 72, 78
1, 12607, Note_on_c, 0, 72, 0
1, 12608, Note_on_c, 0, 74, 78
1, 12621, Note_on_c, 1, 53, 0
1, 12623, Note_on_c, 0, 74, 0
1, 12624, Note_on_c, 0, 72, 78
1, 12624, Note_on_c, 1, 57, 70
1, 12639, Note_on_c, 0, 72, 0
1, 12640, Note_on_c, 0, 70, 79
1, 12655, Note_on_c, 0, 70, 0
1, 12656, Note_on_c, 0, 72, 79
1, 12669, Note_on_c, 1, 57, 0
1, 12671, Note_on_c, 0, 72, 0
1, 12672, Note_on_c, 0, 74, 96
1, 12672, Note_on_c, 1, 46, 70
1, 12692, Note_on_c, 0, 74, 0
1, 12717, Note_on_c, 1, 46, 0
1, 12720, Note_on_c, 0, 75, 79
1, 12720, Note_on_c, 1, 50, 70
1, 12732, Note_on_c, 0, 75, 0
1, 12732, Note_on_c, 0, 74, 79
1, 12744, Note_on_c, 0, 74, 0
1, 12744, Note_on_c, 0, 72, 79
1, 12756, Note_on_c, 0, 72, 0
1, 12756, Note_on_c, 0, 74, 79
1, 12765, Note_on_c, 1, 50, 0
1, 12768, Note_on_c, 0, 74, 0
1, 12768, Note_on_c, 0, 77, 78
1, 12768, Note_on_c, 0, 74, 78
1, 12768, Note_on_c, 1, 53, 70
1, 12813, Note_on_c, 0, 77, 0
1, 12813, Note_on_c, 0, 74, 0
1, 12813, Note_on_c, 1, 53, 0
1, 12816, Note_on_c, 0, 75, 78
1, 12816, Note_on_c, 0, 72, 78
1, 12816, Note_on_c, 1, 58, 70
1, 12861, Note_on_c, 0, 75, 0
1, 12861, Note_on_c, 0, 72, 0
1, 12861, Note_on_c, 1, 58, 0
1, 12864, Note_on_c, 0, 74, 77
1, 12864, Note_on_c, 0, 70, 77
1, 12864, Note_on_c, 1, 53, 70
1, 12909, Note_on_c, 1, 53, 0
1, 12912, Note_on_c, 1, 65, 70
1, 12957, Note_on_c, 1, 65, 0
1, 12960, Note_on_c, 0, 74, 0
1, 12960, Note_on_c, 0, 70, 0
1, 12960, Note_on_c, 0, 72, 76
1, 12960, Note_on_c, 0, 69, 76
1, 12960, Note_on_c, 1, 64, 70
1, 13005, Note_on_c, 1, 64, 0
1, 13008, Note_on_c, 1, 65, 70
1, 13049, Note_on_c, 0, 72, 0
1, 13049, Note_on_c, 0, 69, 0
1, 13053, Note_on_c, 1, 65, 0
1, 13056, Note_on_c, 0, 70, 75
1, 13056, Note_on_c, 0, 65, 75
1, 13056, Note_on_c, 1, 62, 70
1, 13095, Note_on_c, 0, 70, 0
1, 13095, Note_on_c, 0, 65, 0
1, 13095, Note_on_c, 1, 62, 0
1, 13152, Note_on_c, 0, 71, 76
1, 13152, Note_on_c, 0, 65, 76
1, 13152, Note_on_c, 1, 62, 71
1, 13248, Note_on_c, 0, 71, 0
1, 13248, Note_on_c, 0, 72, 77
1, 13248, Note_on_c, 1, 62, 0
1, 13248, Note_on_c, 1, 57, 72
1, 13287, Note_on_c, 0, 72, 0
1, 13287, Note_on_c, 0, 65, 0
1, 13287, Note_on_c, 1, 57, 0
1, 13344, Note_on_c, 0, 73, 78
1, 13344, Note_on_c, 0, 65, 78
1, 13344, Note_on_c, 1, 57, 73
1, 13433, Note_on_c, 1, 57, 0
1, 13440, Note_on_c, 0, 73, 0
1, 13440, Note_on_c, 0, 74, 79
1, 13440, Note_on_c, 1, 58, 75
1, 13453, Note_on_c, 0, 74, 0
1, 13453, Note_on_c, 0, 65, 0
1, 13472, Note_on_c, 0, 82, 80
1, 13502, Note_on_c, 0, 82, 0
1, 13504, Note_on_c, 0, 81, 80
1, 13529, Note_on_c, 1, 58, 0
1, 13534, Note_on_c, 0, 81, 0
1, 13536, Note_on_c, 0, 79, 80
1, 13536, Note_on_c, 1, 60, 73
1, 13566, Note_on_c, 0, 79, 0
1, 13568, Note_on_c, 0, 77, 80
1, 13598, Note_on_c, 0, 77, 0
1, 13600, Note_on_c, 0, 76, 80
1, 13625, Note_on_c, 1, 60, 0
1, 13630, Note_on_c, 0, 76, 0
1, 13632, Note_on_c, 0, 77, 80
1, 13632, Note_on_c, 1, 53, 71
1, 13677, Note_on_c, 0, 77, 0
1, 13680, Note_on_c, 0, 65, 78
1, 13721, Note_on_c, 1, 53, 0
1, 13725, Note_on_c, 0, 65, 0
1, 13728, Note_on_c, 0, 77, 77
1, 13773, Note_on_c, 0, 77, 0
1, 13776, Note_on_c, 0, 71, 76
1, 13821, Note_on_c, 0, 71, 0
1, 13824, Note_on_c, 0, 72, 75
1, 13824, Note_on_c, 1, 51, 70
1, 13863, Note_on_c, 0, 72, 0
1, 13869, Note_on_c, 1, 51, 0
1, 13872, Note_on_c, 1, 60, 70
1, 13917, Note_on_c, 1, 60, 0
1, 13920, Note_on_c, 0, 72, 91
1, 13920, Note_on_c, 1, 55, 70
1, 13965, Note_on_c, 1, 55, 0
1, 13968, Note_on_c, 1, 60, 70
1, 14013, Note_on_c, 1, 60, 0
1, 14016, Note_on_c, 1, 52, 70
1, 14061, Note_on_c, 1, 52, 0
1, 14064, Note_on_c, 1, 60, 70
1, 14109, Note_on_c, 1, 60, 0
1, 14112, Note_on_c, 0, 72, 0
1, 14112, Note_on_c, 0, 69, 75
1, 14112, Note_on_c, 1, 53, 70
1, 14157, Note_on_c, 0, 69, 0
1, 14157, Note_on_c, 1, 53, 0
1, 14160, Note_on_c, 0, 65, 75
1, 14160, Note_on_c, 1, 60, 70
1, 14187, Note_on_c, 0, 65, 0
1, 14190, Note_on_c, 0, 72, 75
1, 14196, Note_on_c, 0, 72, 0
1, 14196, Note_on_c, 0, 70, 75
1, 14202, Note_on_c, 0, 70, 0
1, 14202, Note_on_c, 0, 69, 75
1, 14205, Note_on_c, 1, 60, 0
1, 14208, Note_on_c, 0, 69, 0
1, 14208, Note_on_c, 0, 70, 75
1, 14208, Note_on_c, 1, 58, 70
1, 14208, Note_on_c, 1, 53, 70
1, 14208, Note_on_c, 1, 50, 70
1, 14253, Note_on_c, 0, 70, 0
1, 14256, Note_on_c, 0, 72, 75
1, 14271, Note_on_c, 0, 72, 0
1, 14272, Note_on_c, 0, 70, 75
1, 14287, Note_on_c, 0, 70, 0
1, 14288, Note_on_c, 0, 69, 75
1, 14297, Note_on_c, 1, 58, 0
1, 14297, Note_on_c, 1, 53, 0
1, 14297, Note_on_c, 1, 50, 0
1, 14303, Note_on_c, 0, 69, 0
1, 14304, Note_on_c, 0, 70, 75
1, 14349, Note_on_c, 0, 70, 0
1, 14352, Note_on_c, 0, 72, 75
1, 14397, Note_on_c, 0, 72, 0
1, 14400, Note_on_c, 0, 74, 75
1, 14448, Note_on_c, 1, 56, 70
1, 14489, Note_on_c, 0, 74, 0
1, 14493, Note_on_c, 1, 56, 0
1, 14496, Note_on_c, 0, 59, 75
1, 14496, Note_on_c, 1, 55, 70
1, 14541, Note_on_c, 1, 55, 0
1, 14544, Note_on_c, 1, 53, 70
1, 14585, Note_on_c, 0, 59, 0
1, 14589, Note_on_c, 1, 53, 0
1, 14592, Note_on_c, 0, 60, 75
1, 14592, Note_on_c, 1, 51, 70
1, 14659, Note_on_c, 0, 60, 0
1, 14664, Note_on_c, 0, 63, 75
1, 14681, Note_on_c, 1, 51, 0
1, 14687, Note_on_c, 0, 63, 0
1, 14688, Note_on_c, 0, 67, 75
1, 14777, Note_on_c, 0, 67, 0
1, 14880, Note_on_c, 0, 61, 80
1, 14880, Note_on_c, 0, 58, 80
1, 14880, Note_on_c, 0, 55, 80
1, 14880, Note_on_c, 1, 51, 80
1, 14880, Note_on_c, 1, 39, 80
1, 14919, Note_on_c, 0, 61, 0
1, 14919, Note_on_c, 0, 58, 0
1, 14919, Note_on_c, 0, 55, 0
1, 14919, Note_on_c, 1, 51, 0
1, 14919, Note_on_c, 1, 39, 0
1, 14976, Note_on_c, 0, 62, 96
1, 14976, Note_on_c, 0, 57, 96
1, 14976, Note_on_c, 0, 54, 96
1, 14976, Note_on_c, 1, 50, 80
1, 14976, Note_on_c, 1, 38, 80
1, 15021, Note_on_c, 1, 50, 0
1, 15021, Note_on_c, 1, 38, 0
1, 15024, Note_on_c, 1, 45, 64
1, 15069, Note_on_c, 1, 45, 0
1, 15072, Note_on_c, 1, 42, 64
1, 15117, Note_on_c, 1, 42, 0
1, 15120, Note_on_c, 1, 45, 64
1, 15165, Note_on_c, 1, 45, 0
1, 15168, Note_on_c, 0, 62, 0
1, 15168, Note_on_c, 0, 57, 0
1, 15168, Note_on_c, 0, 54, 0
1, 15168, Note_on_c, 1, 48, 64
1, 15213, Note_on_c, 1, 48, 0
1, 15216, Note_on_c, 1, 45, 64
1, 15261, Note_on_c, 1, 45, 0
1, 15264, Note_on_c, 1, 42, 64
1, 15309, Note_on_c, 1, 42, 0
1, 15312, Note_on_c, 1, 45, 64
1, 15357, Note_on_c, 1, 45, 0
1, 15360, Note_on_c, 0, 63, 80
1, 15360, Note_on_c, 0, 60, 80
1, 15360, Note_on_c, 0, 57, 80
1, 15360, Note_on_c, 1, 38, 64
1, 15405, Note_on_c, 1, 38, 0
1, 15408, Note_on_c, 1, 45, 64
1, 15453, Note_on_c, 1, 45, 0
1, 15456, Note_on_c, 1, 42, 64
1, 15501, Note_on_c, 1, 42, 0
1, 15504, Note_on_c, 1, 45, 64
1, 15537, Note_on_c, 0, 63, 0
1, 15537, Note_on_c, 0, 60, 0
1, 15537, Note_on_c, 0, 57, 0
1, 15549, Note_on_c, 1, 45, 0
1, 15552, Note_on_c, 1, 48, 64
1, 15597, Note_on_c, 1, 48, 0
1, 15600, Note_on_c, 1, 45, 64
1, 15645, Note_on_c, 1, 45, 0
1, 15648, Note_on_c, 0, 72, 80
1, 15648, Note_on_c, 1, 42, 64
1, 15693, Note_on_c, 1, 42, 0
1, 15696, Note_on_c, 1, 45, 64
1, 15715, Note_on_c, 0, 72, 0
1, 15720, Note_on_c, 0, 63, 80
1, 15741, Note_on_c, 1, 45, 0
1, 15743, Note_on_c, 0, 63, 0
1, 15744, Note_on_c, 0, 63, 96
1, 15744, Note_on_c, 1, 43, 64
1, 15789, Note_on_c, 1, 43, 0
1, 15792, Note_on_c, 1, 50, 64
1, 15837, Note_on_c, 1, 50, 0
1, 15840, Note_on_c, 0, 63, 0
1, 15840, Note_on_c, 0, 62, 80
1, 15840, Note_on_c, 1, 46, 64
1, 15885, Note_on_c, 1, 46, 0
1, 15888, Note_on_c, 1, 50, 64
1, 15929, Note_on_c, 0, 62, 0
1, 15933, Note_on_c, 1, 50, 0
1, 15936, Note_on_c, 1, 55, 64
1, 15981, Note_on_c, 1, 55, 0
1, 15984, Note_on_c, 1, 50, 64
1, 16029, Note_on_c, 1, 50, 0
1, 16032, Note_on_c, 1, 46, 64
1, 16077, Note_on_c, 1, 46, 0
1, 16080, Note_on_c, 1, 50, 64
1, 16125, Note_on_c, 1, 50, 0
1, 16128, Note_on_c, 0, 68, 80
1, 16128, Note_on_c, 0, 65, 80
1, 16128, Note_on_c, 0, 62, 80
1, 16128, Note_on_c, 1, 47, 64
1, 16167, Note_on_c, 0, 68, 0
1, 16167, Note_on_c, 0, 65, 0
1, 16167, Note_on_c, 0, 62, 0
1, 16173, Note_on_c, 1, 47, 0
1, 16176, Note_on_c, 1, 53, 64
1, 16221, Note_on_c, 1, 53, 0
1, 16224, Note_on_c, 0, 68, 80
1, 16224, Note_on_c, 0, 65, 80
1, 16224, Note_on_c, 0, 62, 80
1, 16224, Note_on_c, 1, 50, 64
1, 16269, Note_on_c, 1, 50, 0
1, 16272, Note_on_c, 1, 53, 64
1, 16313, Note_on_c, 0, 68, 0
1, 16313, Note_on_c, 0, 65, 0
1, 16313, Note_on_c, 0, 62, 0
1, 16317, Note_on_c, 1, 53, 0
1, 16320, Note_on_c, 1, 47, 64
1, 16365, Note_on_c, 1, 47, 0
1, 16368, Note_on_c, 1, 53, 64
1, 16413, Note_on_c, 1, 53, 0
1, 16416, Note_on_c, 0, 77, 80
1, 16416, Note_on_c, 1, 50, 64
1, 16461, Note_on_c, 1, 50, 0
1, 16464, Note_on_c, 1, 53, 64
1, 16483, Note_on_c, 0, 77, 0
1, 16488, Note_on_c, 0, 68, 80
1, 16509, Note_on_c, 1, 53, 0
1, 16511, Note_on_c, 0, 68, 0
1, 16512, Note_on_c, 0, 68, 96
1, 16512, Note_on_c, 1, 48, 64
1, 16557, Note_on_c, 1, 48, 0
1, 16560, Note_on_c, 1, 55, 64
1, 16605, Note_on_c, 1, 55, 0
1, 16608, Note_on_c, 0, 68, 0
1, 16608, Note_on_c, 0, 67, 80
1, 16608, Note_on_c, 1, 51, 64
1, 16653, Note_on_c, 1, 51, 0
1, 16656, Note_on_c, 1, 55, 64
1, 16697, Note_on_c, 0, 67, 0
1, 16701, Note_on_c, 1, 55, 0
1, 16704, Note_on_c, 1, 48, 64
1, 16749, Note_on_c, 1, 48, 0
1, 16752, Note_on_c, 1, 51, 68
1, 16797, Note_on_c, 1, 51, 0
1, 16800, Note_on_c, 0, 75, 96
1, 16800, Note_on_c, 1, 55, 72
1, 16845, Note_on_c, 1, 55, 0
1, 16848, Note_on_c, 1, 60, 76
1, 16893, Note_on_c, 1, 60, 0
1, 16896, Note_on_c, 1, 54, 80
1, 16896, Note_on_c, 1, 42, 80
1, 16944, Note_on_c, 0, 75, 0
1, 16944, Note_on_c, 0, 73, 79
1, 16989, Note_on_c, 0, 73, 0
1, 16992, Note_on_c, 0, 74, 79
1, 17012, Note_on_c, 0, 74, 0
1, 17040, Note_on_c, 0, 74, 78
1, 17073, Note_on_c, 1, 54, 0
1, 17073, Note_on_c, 1, 42, 0
1, 17088, Note_on_c, 1, 53, 78
1, 17088, Note_on_c, 1, 41, 78
1, 17136, Note_on_c, 0, 74, 0
1, 17136, Note_on_c, 0, 71, 78
1, 17177, Note_on_c, 1, 53, 0
1, 17177, Note_on_c, 1, 41, 0
1, 17181, Note_on_c, 0, 71, 0
1, 17184, Note_on_c, 0, 72, 77
1, 17184, Note_on_c, 1, 52, 77
1, 17184, Note_on_c, 1, 40, 77
1, 17204, Note_on_c, 0, 72, 0
1, 17232, Note_on_c, 0, 72, 77
1, 17273, Note_on_c, 1, 52, 0
1, 17273, Note_on_c, 1, 40, 0
1, 17280, Note_on_c, 1, 51, 77
1, 17280, Note_on_c, 1, 39, 77
1, 17328, Note_on_c, 0, 72, 0
1, 17328, Note_on_c, 0, 69, 76
1, 17369, Note_on_c, 1, 51, 0
1, 17369, Note_on_c, 1, 39, 0
1, 17373, Note_on_c, 0, 69, 0
1, 17376, Note_on_c, 0, 70, 76
1, 17376, Note_on_c, 1, 50, 76
1, 17376, Note_on_c, 1, 38, 76
1, 17396, Note_on_c, 0, 70, 0
1, 17424, Note_on_c, 0, 70, 75
1, 17465, Note_on_c, 1, 50, 0
1, 17465, Note_on_c, 1, 38, 0
1, 17472, Note_on_c, 1, 49, 75
1, 17472, Note_on_c, 1, 37, 75
1, 17520, Note_on_c, 0, 70, 0
1, 17520, Note_on_c, 0, 67, 75
1, 17561, Note_on_c, 1, 49, 0
1, 17561, Note_on_c, 1, 37, 0
1, 17565, Note_on_c, 0, 67, 0
1, 17568, Note_on_c, 0, 69, 75
1, 17635, Note_on_c, 0, 69, 0
1, 17640, Note_on_c, 0, 74, 71
1, 17663, Note_on_c, 0, 74, 0
1, 17664, Note_on_c, 0, 73, 70
1, 17709, Note_on_c, 0, 73, 0
1, 17712, Note_on_c, 0, 70, 71
1, 17712, Note_on_c, 0, 67, 71
1, 17757, Note_on_c, 0, 70, 0
1, 17757, Note_on_c, 0, 67, 0
1, 17760, Note_on_c, 0, 69, 72
1, 17760, Note_on_c, 0, 65, 72
1, 17805, Note_on_c, 0, 69, 0
1, 17805, Note_on_c, 0, 65, 0
1, 17808, Note_on_c, 0, 67, 73
1, 17808, Note_on_c, 0, 63, 73
1, 17853, Note_on_c, 0, 67, 0
1, 17853, Note_on_c, 0, 63, 0
1, 17856, Note_on_c, 0, 66, 75
1, 17856, Note_on_c, 0, 62, 75
1, 17901, Note_on_c, 0, 66, 0
1, 17901, Note_on_c, 0, 62, 0
1, 17904, Note_on_c, 0, 75, 76
1, 17904, Note_on_c, 1, 48, 75
1, 17949, Note_on_c, 0, 75, 0
1, 17949, Note_on_c, 1, 48, 0
1, 17952, Note_on_c, 0, 74, 77
1, 17952, Note_on_c, 1, 46, 76
1, 17997, Note_on_c, 0, 74, 0
1, 17997, Note_on_c, 1, 46, 0
1, 18000, Note_on_c, 0, 72, 78
1, 18000, Note_on_c, 1, 45, 78
1, 18045, Note_on_c, 0, 72, 0
1, 18045, Note_on_c, 1, 45, 0
1, 18048, Note_on_c, 0, 70, 80
1, 18048, Note_on_c, 1, 43, 80
1, 18048, Note_on_c, 1, 31, 80
1, 18087, Note_on_c, 1, 43, 0
1, 18087, Note_on_c, 1, 31, 0
1, 18093, Note_on_c, 0, 70, 0
1, 18096, Note_on_c, 0, 74, 80
1, 18141, Note_on_c, 0, 74, 0
1, 18144, Note_on_c, 0, 79, 81
1, 18144, Note_on_c, 1, 43, 80
1, 18144, Note_on_c, 1, 31, 80
1, 18183, Note_on_c, 1, 43, 0
1, 18183, Note_on_c, 1, 31, 0
1, 18189, Note_on_c, 0, 79, 0
1, 18192, Note_on_c, 0, 70, 81
1, 18237, Note_on_c, 0, 70, 0
1, 18240, Note_on_c, 0, 69, 82
1, 18240, Note_on_c, 1, 45, 80
1, 18240, Note_on_c, 1, 33, 80
1, 18279, Note_on_c, 1, 45, 0
1, 18279, Note_on_c, 1, 33, 0
1, 18285, Note_on_c, 0, 69, 0
1, 18288, Note_on_c, 0, 78, 82
1, 18333, Note_on_c, 0, 78, 0
1, 18336, Note_on_c, 0, 81, 83
1, 18336, Note_on_c, 1, 45, 80
1, 18336, Note_on_c, 1, 33, 80
1, 18375, Note_on_c, 1, 45, 0
1, 18375, Note_on_c, 1, 33, 0
1, 18381, Note_on_c, 0, 81, 0
1, 18384, Note_on_c, 0, 72, 83
1, 18429, Note_on_c, 0, 72, 0
1, 18432, Note_on_c, 0, 74, 84
1, 18432, Note_on_c, 1, 46, 80
1, 18432, Note_on_c, 1, 34, 80
1, 18471, Note_on_c, 1, 46, 0
1, 18471, Note_on_c, 1, 34, 0
1, 18477, Note_on_c, 0, 74, 0
1, 18480, Note_on_c, 0, 78, 84
1, 18525, Note_on_c, 0, 78, 0
1, 18528, Note_on_c, 0, 79, 85
1, 18528, Note_on_c, 1, 62, 80
1, 18528, Note_on_c, 1, 58, 80
1, 18573, Note_on_c, 0, 79, 0
1, 18573, Note_on_c, 1, 62, 0
1, 18573, Note_on_c, 1, 58, 0
1, 18576, Note_on_c, 0, 81, 102
1, 18576, Note_on_c, 1, 60, 80
1, 18576, Note_on_c, 1, 57, 80
1, 18621, Note_on_c, 1, 60, 0
1, 18621, Note_on_c, 1, 57, 0
1, 18624, Note_on_c, 1, 58, 80
1, 18624, Note_on_c, 1, 55, 80
1, 18672, Note_on_c, 0, 81, 0
1, 18672, Note_on_c, 0, 75, 86
1, 18713, Note_on_c, 1, 58, 0
1, 18713, Note_on_c, 1, 55, 0
1, 18717, Note_on_c, 0, 75, 0
1, 18720, Note_on_c, 0, 74, 84
1, 18720, Note_on_c, 1, 57, 80
1, 18720, Note_on_c, 1, 54, 80
1, 18765, Note_on_c, 0, 74, 0
1, 18768, Note_on_c, 0, 72, 82
1, 18809, Note_on_c, 1, 57, 0
1, 18809, Note_on_c, 1, 54, 0
1, 18813, Note_on_c, 0, 72, 0
1, 18816, Note_on_c, 0, 70, 80
1, 18816, Note_on_c, 1, 43, 80
1, 18816, Note_on_c, 1, 31, 80
1, 18846, Note_on_c, 0, 70, 0
1, 18848, Note_on_c, 0, 74, 80
1, 18855, Note_on_c, 1, 43, 0
1, 18855, Note_on_c, 1, 31, 0
1, 18878, Note_on_c, 0, 74, 0
1, 18880, Note_on_c, 0, 79, 80
1, 18910, Note_on_c, 0, 79, 0
1, 18912, Note_on_c, 0, 70, 81
1, 18912, Note_on_c, 1, 43, 80
1, 18912, Note_on_c, 1, 31, 80
1, 18942, Note_on_c, 0, 70, 0
1, 18944, Note_on_c, 0, 74, 81
1, 18951, Note_on_c, 1, 43, 0
1, 18951, Note_on_c, 1, 31, 0
1, 18974, Note_on_c, 0, 74, 0
1, 18976, Note_on_c, 0, 79, 81
1, 19006, Note_on_c, 0, 79, 0
1, 19008, Note_on_c, 0, 72, 82
1, 19008, Note_on_c, 1, 45, 80
1, 19008, Note_on_c, 1, 33, 80
1, 19038, Note_on_c, 0, 72, 0
1, 19040, Note_on_c, 0, 78, 82
1, 19047, Note_on_c, 1, 45, 0
1, 19047, Note_on_c, 1, 33, 0
1, 19070, Note_on_c, 0, 78, 0
1, 19072, Note_on_c, 0, 81, 82
1, 19102, Note_on_c, 0, 81, 0
1, 19104, Note_on_c, 0, 72, 83
1, 19104, Note_on_c, 1, 45, 80
1, 19104, Note_on_c, 1, 33, 80
1, 19134, Note_on_c, 0, 72, 0
1, 19136, Note_on_c, 0, 78, 83
1, 19143, Note_on_c, 1, 45, 0
1, 19143, Note_on_c, 1, 33, 0
1, 19166, Note_on_c, 0, 78, 0
1, 19168, Note_on_c, 0, 81, 83
1, 19198, Note_on_c, 0, 81, 0
1, 19200, Note_on_c, 0, 79, 84
1, 19200, Note_on_c, 1, 46, 80
1, 19200, Note_on_c, 1, 34, 80
1, 19239, Note_on_c, 1, 46, 0
1, 19239, Note_on_c, 1, 34, 0
1, 19245, Note_on_c, 0, 79, 0
1, 19248, Note_on_c, 0, 82, 100
1, 19296, Note_on_c, 1, 37, 97
1, 19344, Note_on_c, 0, 82, 0
1, 19344, Note_on_c, 0, 81, 86
1, 19367, Note_on_c, 0, 81, 0
1, 19368, Note_on_c, 0, 79, 85
1, 19385, Note_on_c, 1, 37, 0
1, 19391, Note_on_c, 0, 79, 0
1, 19392, Note_on_c, 0, 79, 84
1, 19392, Note_on_c, 1, 50, 80
1, 19437, Note_on_c, 1, 50, 0
1, 19440, Note_on_c, 1, 38, 80
1, 19481, Note_on_c, 0, 79, 0
1, 19485, Note_on_c, 1, 38, 0
1, 19488, Note_on_c, 0, 78, 80
1, 19488, Note_on_c, 1, 50, 80
1, 19533, Note_on_c, 1, 50, 0
1, 19536, Note_on_c, 1, 48, 80
1, 19577, Note_on_c, 0, 78, 0
1, 19581, Note_on_c, 1, 48, 0
1, 19584, Note_on_c, 0, 79, 96
1, 19584, Note_on_c, 1, 55, 80
1, 19584, Note_on_c, 1, 50, 80
1, 19584, Note_on_c, 1, 46, 80
1, 19608, Note_on_c, 0, 79, 0
1, 19608, Note_on_c, 0, 67, 80
1, 19631, Note_on_c, 0, 67, 0
1, 19632, Note_on_c, 0, 69, 80
1, 19655, Note_on_c, 0, 69, 0
1, 19656, Note_on_c, 0, 70, 80
1, 19673, Note_on_c, 1, 55, 0
1, 19673, Note_on_c, 1, 50, 0
1, 19673, Note_on_c, 1, 46, 0
1, 19679, Note_on_c, 0, 70, 0
1, 19680, Note_on_c, 0, 72, 80
1, 19703, Note_on_c, 0, 72, 0
1, 19704, Note_on_c, 0, 74, 80
1, 19727, Note_on_c, 0, 74, 0
1, 19728, Note_on_c, 0, 76, 80
1, 19751, Note_on_c, 0, 76, 0
1, 19752, Note_on_c, 0, 78, 80
1, 19775, Note_on_c, 0, 78, 0
1, 19776, Note_on_c, 0, 79, 96
1, 19776, Note_on_c, 1, 51, 80
1, 19776, Note_on_c, 1, 39, 80
1, 19800, Note_on_c, 0, 79, 0
1, 19800, Note_on_c, 0, 67, 80
1, 19823, Note_on_c, 0, 67, 0
1, 19824, Note_on_c, 0, 69, 80
1, 19847, Note_on_c, 0, 69, 0
1, 19848, Note_on_c, 0, 70, 80
1, 19865, Note_on_c, 1, 51, 0
1, 19865, Note_on_c, 1, 39, 0
1, 19871, Note_on_c, 0, 70, 0
1, 19872, Note_on_c, 0, 72, 80
1, 19895, Note_on_c, 0, 72, 0
1, 19896, Note_on_c, 0, 74, 80
1, 19919, Note_on_c, 0, 74, 0
1, 19920, Note_on_c, 0, 76, 80
1, 19943, Note_on_c, 0, 76, 0
1, 19944, Note_on_c, 0, 78, 80
1, 19967, Note_on_c, 0, 78, 0
1, 19968, Note_on_c, 0, 79, 96
1, 19968, Note_on_c, 1, 50, 80
1, 19968, Note_on_c, 1, 38, 80
1, 19992, Note_on_c, 0, 79, 0
1, 19992, Note_on_c, 0, 67, 80
1, 20015, Note_on_c, 0, 67, 0
1, 20016, Note_on_c, 0, 69, 80
1, 20039, Note_on_c, 0, 69, 0
1, 20040, Note_on_c, 0, 70, 80
1, 20057, Note_on_c, 1, 50, 0
1, 20057, Note_on_c, 1, 38, 0
1, 20063, Note_on_c, 0, 70, 0
1, 20064, Note_on_c, 0, 72, 80
1, 20087, Note_on_c, 0, 72, 0
1, 20088, Note_on_c, 0, 74, 80
1, 20111, Note_on_c, 0, 74, 0
1, 20112, Note_on_c, 0, 76, 80
1, 20135, Note_on_c, 0, 76, 0
1, 20136, Note_on_c, 0, 78, 80
1, 20159, Note_on_c, 0, 78, 0
1, 20160, Note_on_c, 0, 79, 80
1, 20160, Note_on_c, 1, 49, 80
1, 20160, Note_on_c, 1, 37, 80
1, 20183, Note_on_c, 0, 79, 0
1, 20184, Note_on_c, 0, 78, 80
1, 20207, Note_on_c, 0, 78, 0
1, 20208, Note_on_c, 0, 79, 80
1, 20231, Note_on_c, 0, 79, 0
1, 20232, Note_on_c, 0, 78, 80
1, 20249, Note_on_c, 1, 49, 0
1, 20249, Note_on_c, 1, 37, 0
1, 20255, Note_on_c, 0, 78, 0
1, 20256, Note_on_c, 0, 79, 80
1, 20279, Note_on_c, 0, 79, 0
1, 20280, Note_on_c, 0, 78, 80
1, 20303, Note_on_c, 0, 78, 0
1, 20304, Note_on_c, 0, 79, 80
1, 20327, Note_on_c, 0, 79, 0
1, 20328, Note_on_c, 0, 78, 80
1, 20351, Note_on_c, 0, 78, 0
1, 20352, Note_on_c, 0, 79, 80
1, 20352, Note_on_c, 1, 50, 80
1, 20352, Note_on_c, 1, 38, 80
1, 20375, Note_on_c, 0, 79, 0
1, 20376, Note_on_c, 0, 87, 97
1, 20399, Note_on_c, 0, 87, 0
1, 20400, Note_on_c, 0, 86, 80
1, 20423, Note_on_c, 0, 86, 0
1, 20424, Note_on_c, 0, 84, 80
1, 20441, Note_on_c, 1, 50, 0
1, 20441, Note_on_c, 1, 38, 0
1, 20447, Note_on_c, 0, 84, 0
1, 20448, Note_on_c, 0, 82, 80
1, 20471, Note_on_c, 0, 82, 0
1, 20472, Note_on_c, 0, 81, 80
1, 20495, Note_on_c, 0, 81, 0
1, 20496, Note_on_c, 0, 79, 80
1, 20519, Note_on_c, 0, 79, 0
1, 20520, Note_on_c, 0, 78, 80
1, 20543, Note_on_c, 0, 78, 0
1, 20544, Note_on_c, 0, 79, 80
1, 20544, Note_on_c, 1, 67, 80
1, 20567, Note_on_c, 0, 79, 0
1, 20567, Note_on_c, 1, 67, 0
1, 20568, Note_on_c, 0, 75, 80
1, 20568, Note_on_c, 1, 63, 80
1, 20591, Note_on_c, 0, 75, 0
1, 20591, Note_on_c, 1, 63, 0
1, 20592, Note_on_c, 0, 74, 80
1, 20592, Note_on_c, 1, 62, 80
1, 20615, Note_on_c, 0, 74, 0
1, 20615, Note_on_c, 1, 62, 0
1, 20616, Note_on_c, 0, 72, 80
1, 20616, Note_on_c, 1, 60, 80
1, 20639, Note_on_c, 0, 72, 0
1, 20639, Note_on_c, 1, 60, 0
1, 20640, Note_on_c, 0, 70, 80
1, 20640, Note_on_c, 1, 58, 80
1, 20663, Note_on_c, 0, 70, 0
1, 20663, Note_on_c, 1, 58, 0
1, 20664, Note_on_c, 0, 69, 80
1, 20664, Note_on_c, 1, 57, 80
1, 20687, Note_on_c, 0, 69, 0
1, 20687, Note_on_c, 1, 57, 0
1, 20688, Note_on_c, 0, 67, 80
1, 20688, Note_on_c, 1, 55, 80
1, 20711, Note_on_c, 0, 67, 0
1, 20711, Note_on_c, 1, 55, 0
1, 20712, Note_on_c, 0, 66, 80
1, 20712, Note_on_c, 1, 54, 80
1, 20735, Note_on_c, 0, 66, 0
1, 20735, Note_on_c, 1, 54, 0
1, 20736, Note_on_c, 0, 67, 80
1, 20736, Note_on_c, 1, 55, 80
1, 20759, Note_on_c, 0, 67, 0
1, 20760, Note_on_c, 0, 66, 80
1, 20783, Note_on_c, 0, 66, 0
1, 20784, Note_on_c, 0, 67, 80
1, 20807, Note_on_c, 0, 67, 0
1, 20808, Note_on_c, 0, 66, 80
1, 20825, Note_on_c, 1, 55, 0
1, 20831, Note_on_c, 0, 66, 0
1, 20832, Note_on_c, 0, 67, 80
1, 20832, Note_on_c, 1, 49, 80
1, 20832, Note_on_c, 1, 37, 80
1, 20855, Note_on_c, 0, 67, 0
1, 20856, Note_on_c, 0, 70, 80
1, 20879, Note_on_c, 0, 70, 0
1, 20880, Note_on_c, 0, 69, 80
1, 20903, Note_on_c, 0, 69, 0
1, 20904, Note_on_c, 0, 67, 80
1, 20921, Note_on_c, 1, 49, 0
1, 20921, Note_on_c, 1, 37, 0
1, 20927, Note_on_c, 0, 67, 0
1, 20928, Note_on_c, 0, 66, 80
1, 20928, Note_on_c, 1, 50, 80
1, 20928, Note_on_c, 1, 38, 80
1, 20951, Note_on_c, 0, 66, 0
1, 20952, Note_on_c, 0, 74, 80
1, 20975, Note_on_c, 0, 74, 0
1, 20976, Note_on_c, 0, 69, 80
1, 20999, Note_on_c, 0, 69, 0
1, 21000, Note_on_c, 0, 66, 80
1, 21017, Note_on_c, 1, 50, 0
1, 21017, Note_on_c, 1, 38, 0
1, 21023, Note_on_c, 0, 66, 0
1, 21024, Note_on_c, 1, 62, 80
1, 21047, Note_on_c, 1, 62, 0
1, 21048, Note_on_c, 1, 57, 80
1, 21071, Note_on_c, 1, 57, 0
1, 21072, Note_on_c, 1, 54, 80
1, 21095, Note_on_c, 1, 54, 0
1, 21096, Note_on_c, 1, 50, 80
1, 21119, Note_on_c, 1, 50, 0
1, 21120, Note_on_c, 1, 38, 80
1, 21209, Note_on_c, 1, 38, 0
1, 21312, Note_on_c, 0, 77, 75
1, 21351, Note_on_c, 0, 77, 0
1, 21408, Note_on_c, 0, 74, 75
1, 21447, Note_on_c, 0, 74, 0
1, 21504, Note_on_c, 0, 70, 91
1, 21504, Note_on_c, 1, 58, 70
1, 21549, Note_on_c, 1, 58, 0
1, 21552, Note_on_c, 0, 70, 0
1, 21552, Note_on_c, 0, 70, 75
1, 21552, Note_on_c, 1, 65, 70
1, 21597, Note_on_c, 0, 70, 0
1, 21597, Note_on_c, 1, 65, 0
1, 21600, Note_on_c, 0, 72, 76
1, 21600, Note_on_c, 1, 62, 70
1, 21615, Note_on_c, 0, 72, 0
1, 21616, Note_on_c, 0, 70, 76
1, 21631, Note_on_c, 0, 70, 0
1, 21632, Note_on_c, 0, 72, 76
1, 21645, Note_on_c, 1, 62, 0
1, 21647, Note_on_c, 0, 72, 0
1, 21648, Note_on_c, 0, 70, 76
1, 21648, Note_on_c, 1, 65, 70
1, 21663, Note_on_c, 0, 70, 0
1, 21664, Note_on_c, 0, 69, 76
1, 21679, Note_on_c, 0, 69, 0
1, 21680, Note_on_c, 0, 70, 77
1, 21693, Note_on_c, 1, 65, 0
1, 21695, Note_on_c, 0, 70, 0
1, 21696, Note_on_c, 0, 72, 93
1, 21696, Note_on_c, 1, 57, 70
1, 21741, Note_on_c, 1, 57, 0
1, 21744, Note_on_c, 0, 72, 0
1, 21744, Note_on_c, 0, 72, 77
1, 21744, Note_on_c, 1, 65, 70
1, 21789, Note_on_c, 0, 72, 0
1, 21789, Note_on_c, 1, 65, 0
1, 21792, Note_on_c, 0, 74, 78
1, 21792, Note_on_c, 1, 60, 70
1, 21807, Note_on_c, 0, 74, 0
1, 21808, Note_on_c, 0, 72, 78
1, 21823, Note_on_c, 0, 72, 0
1, 21824, Note_on_c, 0, 74, 78
1, 21837, Note_on_c, 1, 60, 0
1, 21839, Note_on_c, 0, 74, 0
1, 21840, Note_on_c, 0, 72, 78
1, 21840, Note_on_c, 1, 65, 70
1, 21855, Note_on_c, 0, 72, 0
1, 21856, Note_on_c, 0, 70, 79
1, 21871, Note_on_c, 0, 70, 0
1, 21872, Note_on_c, 0, 72, 79
1, 21885, Note_on_c, 1, 65, 0
1, 21887, Note_on_c, 0, 72, 0
1, 21888, Note_on_c, 0, 74, 96
1, 21888, Note_on_c, 1, 58, 70
1, 21933, Note_on_c, 1, 58, 0
1, 21936, Note_on_c, 1, 65, 70
1, 21981, Note_on_c, 1, 65, 0
1, 21984, Note_on_c, 0, 74, 0
1, 21984, Note_on_c, 0, 77, 80
1, 21984, Note_on_c, 1, 62, 70
1, 22029, Note_on_c, 0, 77, 0
1, 22029, Note_on_c, 1, 62, 0
1, 22032, Note_on_c, 0, 75, 80
1, 22032, Note_on_c, 1, 65, 70
1, 22077, Note_on_c, 0, 75, 0
1, 22080, Note_on_c, 0, 74, 79
1, 22125, Note_on_c, 1, 65, 0
1, 22128, Note_on_c, 1, 64, 70
1, 22173, Note_on_c, 1, 64, 0
1, 22176, Note_on_c, 0, 74, 0
1, 22176, Note_on_c, 0, 72, 77
1, 22176, Note_on_c, 1, 65, 70
1, 22221, Note_on_c, 1, 65, 0
1, 22224, Note_on_c, 1, 63, 70
1, 22265, Note_on_c, 0, 72, 0
1, 22269, Note_on_c, 1, 63, 0
1, 22272, Note_on_c, 0, 70, 75
1, 22272, Note_on_c, 1, 65, 70
1, 22272, Note_on_c, 1, 62, 70
1, 22317, Note_on_c, 0, 70, 0
1, 22320, Note_on_c, 0, 82, 75
1, 22340, Note_on_c, 0, 82, 0
1, 22361, Note_on_c, 1, 65, 0
1, 22361, Note_on_c, 1, 62, 0
1, 22368, Note_on_c, 0, 70, 76
1, 22416, Note_on_c, 0, 70, 0
1, 22416, Note_on_c, 0, 71, 76
1, 22416, Note_on_c, 1, 65, 70
1, 22416, Note_on_c, 1, 62, 70
1, 22461, Note_on_c, 0, 71, 0
1, 22461, Note_on_c, 1, 65, 0
1, 22461, Note_on_c, 1, 62, 0
1, 22464, Note_on_c, 0, 72, 77
1, 22464, Note_on_c, 1, 67, 70
1, 22464, Note_on_c, 1, 63, 70
1, 22509, Note_on_c, 0, 72, 0
1, 22512, Note_on_c, 0, 84, 78
1, 22532, Note_on_c, 0, 84, 0
1, 22553, Note_on_c, 1, 67, 0
1, 22553, Note_on_c, 1, 63, 0
1, 22560, Note_on_c, 0, 72, 78
1, 22608, Note_on_c, 0, 72, 0
1, 22608, Note_on_c, 0, 73, 79
1, 22608, Note_on_c, 1, 57, 70
1, 22620, Note_on_c, 0, 73, 0
1, 22620, Note_on_c, 0, 74, 79
1, 22632, Note_on_c, 0, 74, 0
1, 22632, Note_on_c, 0, 73, 79
1, 22653, Note_on_c, 0, 73, 0
1, 22653, Note_on_c, 1, 57, 0
1, 22656, Note_on_c, 0, 74, 80
1, 22656, Note_on_c, 1, 58, 70
1, 22679, Note_on_c, 0, 74, 0
1, 22680, Note_on_c, 0, 86, 80
1, 22703, Note_on_c, 0, 86, 0
1, 22704, Note_on_c, 0, 84, 80
1, 22727, Note_on_c, 0, 84, 0
1, 22728, Note_on_c, 0, 82, 80
1, 22745, Note_on_c, 1, 58, 0
1, 22751, Note_on_c, 0, 82, 0
1, 22752, Note_on_c, 0, 81, 80
1, 22752, Note_on_c, 1, 60, 70
1, 22775, Note_on_c, 0, 81, 0
1, 22776, Note_on_c, 0, 79, 79
1, 22799, Note_on_c, 0, 79, 0
1, 22800, Note_on_c, 0, 77, 79
1, 22823, Note_on_c, 0, 77, 0
1, 22824, Note_on_c, 0, 76, 78
1, 22841, Note_on_c, 1, 60, 0
1, 22847, Note_on_c, 0, 76, 0
1, 22848, Note_on_c, 0, 79, 78
1, 22848, Note_on_c, 1, 41, 70
1, 22893, Note_on_c, 1, 41, 0
1, 22896, Note_on_c, 1, 45, 70
1, 22941, Note_on_c, 1, 45, 0
1, 22944, Note_on_c, 0, 79, 0
1, 22944, Note_on_c, 0, 77, 76
1, 22944, Note_on_c, 1, 48, 70
1, 22989, Note_on_c, 1, 48, 0
1, 22992, Note_on_c, 1, 53, 70
1, 23033, Note_on_c, 0, 77, 0
1, 23037, Note_on_c, 1, 53, 0
1, 23040, Note_on_c, 0, 72, 75
1, 23040, Note_on_c, 0, 67, 75
1, 23040, Note_on_c, 1, 51, 70
1, 23079, Note_on_c, 0, 72, 0
1, 23079, Note_on_c, 0, 67, 0
1, 23085, Note_on_c, 1, 51, 0
1, 23088, Note_on_c, 1, 60, 70
1, 23133, Note_on_c, 1, 60, 0
1, 23136, Note_on_c, 0, 72, 75
1, 23136, Note_on_c, 0, 67, 75
1, 23136, Note_on_c, 1, 55, 71
1, 23181, Note_on_c, 1, 55, 0
1, 23184, Note_on_c, 1, 60, 71
1, 23229, Note_on_c, 1, 60, 0
1, 23232, Note_on_c, 1, 51, 72
1, 23277, Note_on_c, 1, 51, 0
1, 23280, Note_on_c, 1, 60, 73
1, 23313, Note_on_c, 0, 72, 0
1, 23313, Note_on_c, 0, 67, 0
1, 23325, Note_on_c, 1, 60, 0
1, 23328, Note_on_c, 0, 74, 78
1, 23328, Note_on_c, 0, 70, 78
1, 23328, Note_on_c, 1, 56, 73
1, 23373, Note_on_c, 1, 56, 0
1, 23376, Note_on_c, 1, 62, 74
1, 23417, Note_on_c, 0, 74, 0
1, 23417, Note_on_c, 0, 70, 0
1, 23421, Note_on_c, 1, 62, 0
1, 23424, Tempo, 461538
1, 23424, Note_on_c, 0, 75, 80
1, 23424, Note_on_c, 0, 70, 64
1, 23424, Note_on_c, 1, 55, 75
1, 23491, Note_on_c, 0, 75, 0
1, 23496, Note_on_c, 0, 77, 80
1, 23519, Note_on_c, 0, 77, 0
1, 23520, Note_on_c, 0, 79, 80
1, 23557, Note_on_c, 0, 70, 0
1, 23557, Note_on_c, 1, 55, 0
1, 23653, Note_on_c, 0, 79, 0
1, 23808, Note_on_c, 0, 82, 70
1, 23808, Note_on_c, 0, 76, 64
1, 23808, Note_on_c, 1, 67, 70
1, 23875, Note_on_c, 0, 82, 0
1, 23880, Note_on_c, 0, 84, 70
1, 23903, Note_on_c, 0, 84, 0
1, 23904, Note_on_c, 0, 85, 70
1, 23941, Note_on_c, 0, 76, 0
1, 23941, Note_on_c, 1, 67, 0
1, 24037, Note_on_c, 0, 85, 0
1, 24192, Note_on_c, 0, 60, 75
1, 24192, Note_on_c, 1, 57, 75
1, 24192, Note_on_c, 1, 54, 75
1, 24259, Note_on_c, 0, 60, 0
1, 24264, Note_on_c, 0, 62, 75
1, 24287, Note_on_c, 0, 62, 0
1, 24288, Note_on_c, 0, 63, 75
1, 24325, Note_on_c, 1, 57, 0
1, 24325, Note_on_c, 1, 54, 0
1, 24421, Note_on_c, 0, 63, 0
1, 24576, Tempo, 413793
1, 24576, Note_on_c, 0, 58, 70
1, 24576, Note_on_c, 1, 46, 70
1, 24615, Note_on_c, 0, 58, 0
1, 24621, Note_on_c, 1, 46, 0
1, 24624, Note_on_c, 1, 53, 70
1, 24669, Note_on_c, 1, 53, 0
1, 24672, Note_on_c, 0, 58, 86
1, 24672, Note_on_c, 1, 50, 70
1, 24717, Note_on_c, 1, 50, 0
1, 24720, Note_on_c, 1, 53, 70
1, 24765, Note_on_c, 1, 53, 0
1, 24768, Note_on_c, 1, 41, 70
1, 24813, Note_on_c, 1, 41, 0
1, 24816, Note_on_c, 1, 51, 70
1, 24861, Note_on_c, 1, 51, 0
1, 24864, Note_on_c, 0, 58, 0
1, 24864, Note_on_c, 0, 62, 70
1, 24864, Note_on_c, 1, 53, 70
1, 24909, Note_on_c, 0, 62, 0
1, 24909, Note_on_c, 1, 53, 0
1, 24912, Note_on_c, 0, 60, 70
1, 24912, Note_on_c, 1, 51, 70
1, 24957, Note_on_c, 0, 60, 0
1, 24957, Note_on_c, 1, 51, 0
1, 24960, Note_on_c, 0, 58, 70
1, 24983, Note_on_c, 0, 58, 0
1, 24984, Note_on_c, 0, 53, 70
1, 25007, Note_on_c, 0, 53, 0
1, 25008, Note_on_c, 0, 55, 70
1, 25031, Note_on_c, 0, 55, 0
1, 25032, Note_on_c, 0, 57, 70
1, 25055, Note_on_c, 0, 57, 0
1, 25056, Note_on_c, 0, 58, 70
1, 25079, Note_on_c, 0, 58, 0
1, 25080, Note_on_c, 0, 60, 70
1, 25103, Note_on_c, 0, 60, 0
1, 25104, Note_on_c, 0, 62, 70
1, 25127, Note_on_c, 0, 62, 0
1, 25128, Note_on_c, 0, 63, 70
1, 25151, Note_on_c, 0, 63, 0
1, 25152, Note_on_c, 0, 65, 70
1, 25175, Note_on_c, 0, 65, 0
1, 25176, Note_on_c, 0, 58, 70
1, 25176, Note_on_c, 1, 46, 80
1, 25199, Note_on_c, 0, 58, 0
1, 25199, Note_on_c, 1, 46, 0
1, 25200, Note_on_c, 0, 60, 70
1, 25200, Note_on_c, 1, 48, 80
1, 25223, Note_on_c, 0, 60, 0
1, 25223, Note_on_c, 1, 48, 0
1, 25224, Note_on_c, 0, 62, 70
1, 25224, Note_on_c, 1, 50, 80
1, 25247, Note_on_c, 0, 62, 0
1, 25247, Note_on_c, 1, 50, 0
1, 25248, Note_on_c, 0, 63, 70
1, 25248, Note_on_c, 1, 51, 80
1, 25271, Note_on_c, 0, 63, 0
1, 25271, Note_on_c, 1, 51, 0
1, 25272, Note_on_c, 0, 65, 70
1, 25272, Note_on_c, 1, 53, 80
1, 25295, Note_on_c, 0, 65, 0
1, 25295, Note_on_c, 1, 53, 0
1, 25296, Note_on_c, 0, 67, 70
1, 25296, Note_on_c, 1, 55, 80
1, 25319, Note_on_c, 0, 67, 0
1, 25319, Note_on_c, 1, 55, 0
1, 25320, Note_on_c, 0, 69, 70
1, 25320, Note_on_c, 1, 57, 80
1, 25343, Note_on_c, 0, 69, 0
1, 25343, Note_on_c, 1, 57, 0
1, 25344, Note_on_c, 0, 70, 70
1, 25344, Note_on_c, 1, 58, 80
1, 25367, Note_on_c, 0, 70, 0
1, 25367, Note_on_c, 1, 58, 0
1, 25368, Note_on_c, 0, 65, 70
1, 25368, Note_on_c, 1, 53, 80
1, 25391, Note_on_c, 0, 65, 0
1, 25391, Note_on_c, 1, 53, 0
1, 25392, Note_on_c, 0, 67, 70
1, 25392, Note_on_c, 1, 55, 80
1, 25415, Note_on_c, 0, 67, 0
1, 25415, Note_on_c, 1, 55, 0
1, 25416, Note_on_c, 0, 69, 70
1, 25416, Note_on_c, 1, 57, 80
1, 25439, Note_on_c, 0, 69, 0
1, 25439, Note_on_c, 1, 57, 0
1, 25440, Note_on_c, 0, 70, 70
1, 25440, Note_on_c, 1, 58, 80
1, 25463, Note_on_c, 0, 70, 0
1, 25463, Note_on_c, 1, 58, 0
1, 25464, Note_on_c, 0, 72, 70
1, 25464, Note_on_c, 1, 60, 80
1, 25487, Note_on_c, 0, 72, 0
1, 25487, Note_on_c, 1, 60, 0
1, 25488, Note_on_c, 0, 74, 70
1, 25488, Note_on_c, 1, 62, 80
1, 25511, Note_on_c, 0, 74, 0
1, 25511, Note_on_c, 1, 62, 0
1, 25512, Note_on_c, 0, 75, 70
1, 25512, Note_on_c, 1, 63, 80
1, 25535, Note_on_c, 0, 75, 0
1, 25535, Note_on_c, 1, 63, 0
1, 25536, Note_on_c, 0, 77, 70
1, 25536, Note_on_c, 1, 65, 80
1, 25559, Note_on_c, 0, 77, 0
1, 25559, Note_on_c, 1, 65, 0
1, 25560, Note_on_c, 0, 70, 70
1, 25560, Note_on_c, 1, 58, 80
1, 25583, Note_on_c, 0, 70, 0
1, 25583, Note_on_c, 1, 58, 0
1, 25584, Note_on_c, 0, 72, 70
1, 25584, Note_on_c, 1, 60, 80
1, 25607, Note_on_c, 0, 72, 0
1, 25607, Note_on_c, 1, 60, 0
1, 25608, Note_on_c, 0, 74, 70
1, 25608, Note_on_c, 1, 62, 80
1, 25631, Note_on_c, 0, 74, 0
1, 25631, Note_on_c, 1, 62, 0
1, 25632, Note_on_c, 0, 75, 70
1, 25632, Note_on_c, 1, 63, 80
1, 25655, Note_on_c, 0, 75, 0
1, 25655, Note_on_c, 1, 63, 0
1, 25656, Note_on_c, 0, 77, 70
1, 25656, Note_on_c, 1, 65, 80
1, 25679, Note_on_c, 0, 77, 0
1, 25679, Note_on_c, 1, 65, 0
1, 25680, Note_on_c, 0, 79, 70
1, 25680, Note_on_c, 1, 67, 80
1, 25703, Note_on_c, 0, 79, 0
1, 25703, Note_on_c, 1, 67, 0
1, 25704, Note_on_c, 0, 81, 70
1, 25704, Note_on_c, 1, 69, 80
1, 25727, Note_on_c, 0, 81, 0
1, 25727, Note_on_c, 1, 69, 0
1, 25728, Note_on_c, 1, 70, 80
1, 25728, Note_on_c, 1, 58, 80
1, 25752, Note_on_c, 0, 82, 70
1, 25775, Note_on_c, 0, 82, 0
1, 25776, Note_on_c, 0, 86, 70
1, 25799, Note_on_c, 0, 86, 0
1, 25800, Note_on_c, 0, 82, 70
1, 25817, Note_on_c, 1, 70, 0
1, 25817, Note_on_c, 1, 58, 0
1, 25823, Note_on_c, 0, 82, 0
1, 25824, Note_on_c, 1, 69, 80
1, 25824, Note_on_c, 1, 57, 80
1, 25848, Note_on_c, 0, 82, 70
1, 25871, Note_on_c, 0, 82, 0
1, 25872, Note_on_c, 0, 86, 70
1, 25895, Note_on_c, 0, 86, 0
1, 25896, Note_on_c, 0, 82, 70
1, 25913, Note_on_c, 1, 69, 0
1, 25913, Note_on_c, 1, 57, 0
1, 25919, Note_on_c, 0, 82, 0
1, 25920, Note_on_c, 1, 67, 80
1, 25920, Note_on_c, 1, 55, 80
1, 25944, Note_on_c, 0, 82, 70
1, 25967, Note_on_c, 0, 82, 0
1, 25968, Note_on_c, 0, 86, 70
1, 25991, Note_on_c, 0, 86, 0
1, 25992, Note_on_c, 0, 82, 70
1, 26009, Note_on_c, 1, 67, 0
1, 26009, Note_on_c, 1, 55, 0
1, 26015, Note_on_c, 0, 82, 0
1, 26016, Note_on_c, 1, 65, 80
1, 26016, Note_on_c, 1, 53, 80
1, 26040, Note_on_c, 0, 82, 70
1, 26063, Note_on_c, 0, 82, 0
1, 26064, Note_on_c, 0, 86, 70
1, 26087, Note_on_c, 0, 86, 0
1, 26088, Note_on_c, 0, 82, 70
1, 26105, Note_on_c, 1, 65, 0
1, 26105, Note_on_c, 1, 53, 0
1, 26111, Note_on_c, 0, 82, 0
1, 26112, Note_on_c, 1, 64, 80
1, 26112, Note_on_c, 1, 52, 80
1, 26136, Note_on_c, 0, 82, 70
1, 26151, Note_on_c, 1, 64, 0
1, 26151, Note_on_c, 1, 52, 0
1, 26159, Note_on_c, 0, 82, 0
1, 26160, Note_on_c, 0, 85, 70
1, 26183, Note_on_c, 0, 85, 0
1, 26184, Note_on_c, 0, 82, 70
1, 26207, Note_on_c, 0, 82, 0
1, 26208, Note_on_c, 1, 70, 80
1, 26208, Note_on_c, 1, 58, 80
1, 26232, Note_on_c, 0, 82, 70
1, 26247, Note_on_c, 1, 70, 0
1, 26247, Note_on_c, 1, 58, 0
1, 26255, Note_on_c, 0, 82, 0
1, 26256, Note_on_c, 0, 85, 70
1, 26279, Note_on_c, 0, 85, 0
1, 26280, Note_on_c, 0, 82, 70
1, 26303, Note_on_c, 0, 82, 0
1, 26304, Note_on_c, 1, 67, 80
1, 26304, Note_on_c, 1, 55, 80
1, 26328, Note_on_c, 0, 82, 70
1, 26343, Note_on_c, 1, 67, 0
1, 26343, Note_on_c, 1, 55, 0
1, 26351, Note_on_c, 0, 82, 0
1, 26352, Note_on_c, 0, 85, 70
1, 26375, Note_on_c, 0, 85, 0
1, 26376, Note_on_c, 0, 82, 70
1, 26399, Note_on_c, 0, 82, 0
1, 26400, Note_on_c, 1, 64, 80
1, 26400, Note_on_c, 1, 52, 80
1, 26424, Note_on_c, 0, 82, 70
1, 26439, Note_on_c, 1, 64, 0
1, 26439, Note_on_c, 1, 52, 0
1, 26447, Note_on_c, 0, 82, 0
1, 26448, Note_on_c, 0, 85, 70
1, 26471, Note_on_c, 0, 85, 0
1, 26472, Note_on_c, 0, 82, 70
1, 26495, Note_on_c, 0, 82, 0
1, 26496, Note_on_c, 1, 65, 80
1, 26496, Note_on_c, 1, 53, 80
1, 26520, Note_on_c, 0, 80, 70
1, 26543, Note_on_c, 0, 80, 0
1, 26544, Note_on_c, 0, 84, 70
1, 26567, Note_on_c, 0, 84, 0
1, 26568, Note_on_c, 0, 80, 70
1, 26585, Note_on_c, 1, 65, 0
1, 26585, Note_on_c, 1, 53, 0
1, 26591, Note_on_c, 0, 80, 0
1, 26592, Note_on_c, 1, 63, 80
1, 26592, Note_on_c, 1, 51, 80
1, 26616, Note_on_c, 0, 80, 70
1, 26639, Note_on_c, 0, 80, 0
1, 26640, Note_on_c, 0, 84, 70
1, 26663, Note_on_c, 0, 84, 0
1, 26664, Note_on_c, 0, 80, 70
1, 26681, Note_on_c, 1, 63, 0
1, 26681, Note_on_c, 1, 51, 0
1, 26687, Note_on_c, 0, 80, 0
1, 26688, Note_on_c, 1, 62, 80
1, 26688, Note_on_c, 1, 50, 80
1, 26712, Note_on_c, 0, 80, 70
1, 26735, Note_on_c, 0, 80, 0
1, 26736, Note_on_c, 0, 84, 70
1, 26759, Note_on_c, 0, 84, 0
1, 26760, Note_on_c, 0, 80, 70
1, 26777, Note_on_c, 1, 62, 0
1, 26777, Note_on_c, 1, 50, 0
1, 26783, Note_on_c, 0, 80, 0
1, 26784, Note_on_c, 1, 60, 80
1, 26784, Note_on_c, 1, 48, 80
1, 26808, Note_on_c, 0, 80, 70
1, 26831, Note_on_c, 0, 80, 0
1, 26832, Note_on_c, 0, 84, 70
1, 26855, Note_on_c, 0, 84, 0
1, 26856, Note_on_c, 0, 80, 70
1, 26873, Note_on_c, 1, 60, 0
1, 26873, Note_on_c, 1, 48, 0
1, 26879, Note_on_c, 0, 80, 0
1, 26880, Note_on_c, 1, 59, 80
1, 26880, Note_on_c, 1, 47, 80
1, 26904, Note_on_c, 0, 77, 70
1, 26919, Note_on_c, 1, 59, 0
1, 26919, Note_on_c, 1, 47, 0
1, 26927, Note_on_c, 0, 77, 0
1, 26928, Note_on_c, 0, 80, 70
1, 26951, Note_on_c, 0, 80, 0
1, 26952, Note_on_c, 0, 77, 70
1, 26975, Note_on_c, 0, 77, 0
1, 26976, Note_on_c, 1, 65, 80
1, 26976, Note_on_c, 1, 53, 80
1, 27000, Note_on_c, 0, 77, 70
1, 27015, Note_on_c, 1, 65, 0
1, 27015, Note_on_c, 1, 53, 0
1, 27023, Note_on_c, 0, 77, 0
1, 27024, Note_on_c, 0, 80, 70
1, 27047, Note_on_c, 0, 80, 0
1, 27048, Note_on_c, 0, 77, 70
1, 27071, Note_on_c, 0, 77, 0
1, 27072, Note_on_c, 1, 62, 80
1, 27072, Note_on_c, 1, 50, 80
1, 27096, Note_on_c, 0, 77, 70
1, 27111, Note_on_c, 1, 62, 0
1, 27111, Note_on_c, 1, 50, 0
1, 27119, Note_on_c, 0, 77, 0
1, 27120, Note_on_c, 0, 80, 70
1, 27143, Note_on_c, 0, 80, 0
1, 27144, Note_on_c, 0, 77, 70
1, 27167, Note_on_c, 0, 77, 0
1, 27168, Note_on_c, 1, 59, 80
1, 27168, Note_on_c, 1, 47, 80
1, 27192, Note_on_c, 0, 77, 70
1, 27207, Note_on_c, 1, 59, 0
1, 27207, Note_on_c, 1, 47, 0
1, 27215, Note_on_c, 0, 77, 0
1, 27216, Note_on_c, 0, 80, 70
1, 27239, Note_on_c, 0, 80, 0
1, 27240, Note_on_c, 0, 77, 70
1, 27263, Note_on_c, 0, 77, 0
1, 27264, Note_on_c, 1, 60, 80
1, 27264, Note_on_c, 1, 48, 80
1, 27288, Note_on_c, 0, 75, 70
1, 27311, Note_on_c, 0, 75, 0
1, 27312, Note_on_c, 0, 79, 70
1, 27335, Note_on_c, 0, 79, 0
1, 27336, Note_on_c, 0, 75, 70
1, 27353, Note_on_c, 1, 60, 0
1, 27353, Note_on_c, 1, 48, 0
1, 27359, Note_on_c, 0, 75, 0
1, 27360, Note_on_c, 1, 58, 80
1, 27360, Note_on_c, 1, 46, 80
1, 27384, Note_on_c, 0, 75, 70
1, 27407, Note_on_c, 0, 75, 0
1, 27408, Note_on_c, 0, 79, 70
1, 27431, Note_on_c, 0, 79, 0
1, 27432, Note_on_c, 0, 75, 70
1, 27449, Note_on_c, 1, 58, 0
1, 27449, Note_on_c, 1, 46, 0
1, 27455, Note_on_c, 0, 75, 0
1, 27456, Note_on_c, 1, 57, 80
1, 27456, Note_on_c, 1, 45, 80
1, 27480, Note_on_c, 0, 75, 70
1, 27503, Note_on_c, 0, 75, 0
1, 27504, Note_on_c, 0, 79, 70
1, 27527, Note_on_c, 0, 79, 0
1, 27528, Note_on_c, 0, 75, 70
1, 27545, Note_on_c, 1, 57, 0
1, 27545, Note_on_c, 1, 45, 0
1, 27551, Note_on_c, 0, 75, 0
1, 27552, Note_on_c, 1, 55, 80
1, 27552, Note_on_c, 1, 43, 80
1, 27576, Note_on_c, 0, 75, 70
1, 27599, Note_on_c, 0, 75, 0
1, 27600, Note_on_c, 0, 79, 70
1, 27623, Note_on_c, 0, 79, 0
1, 27624, Note_on_c, 0, 75, 70
1, 27641, Note_on_c, 1, 55, 0
1, 27641, Note_on_c, 1, 43, 0
1, 27647, Note_on_c, 0, 75, 0
1, 27648, Note_on_c, 1, 54, 80
1, 27648, Note_on_c, 1, 42, 80
1, 27672, Note_on_c, 0, 75, 70
1, 27687, Note_on_c, 1, 54, 0
1, 27687, Note_on_c, 1, 42, 0
1, 27695, Note_on_c, 0, 75, 0
1, 27696, Note_on_c, 0, 78, 70
1, 27719, Note_on_c, 0, 78, 0
1, 27720, Note_on_c, 0, 75, 70
1, 27743, Note_on_c, 0, 75, 0
1, 27744, Note_on_c, 1, 60, 80
1, 27744, Note_on_c, 1, 48, 80
1, 27768, Note_on_c, 0, 75, 70
1, 27783, Note_on_c, 1, 60, 0
1, 27783, Note_on_c, 1, 48, 0
1, 27791, Note_on_c, 0, 75, 0
1, 27792, Note_on_c, 0, 78, 70
1, 27815, Note_on_c, 0, 78, 0
1, 27816, Note_on_c, 0, 75, 70
1, 27839, Note_on_c, 0, 75, 0
1, 27840, Note_on_c, 1, 57, 80
1, 27840, Note_on_c, 1, 45, 80
1, 27864, Note_on_c, 0, 75, 70
1, 27879, Note_on_c, 1, 57, 0
1, 27879, Note_on_c, 1, 45, 0
1, 27887, Note_on_c, 0, 75, 0
1, 27888, Note_on_c, 0, 78, 70
1, 27911, Note_on_c, 0, 78, 0
1, 27912, Note_on_c, 0, 75, 70
1, 27935, Note_on_c, 0, 75, 0
1, 27936, Note_on_c, 1, 54, 80
1, 27936, Note_on_c, 1, 42, 80
1, 27960, Note_on_c, 0, 75, 70
1, 27975, Note_on_c, 1, 54, 0
1, 27975, Note_on_c, 1, 42, 0
1, 27983, Note_on_c, 0, 75, 0
1, 27984, Note_on_c, 0, 78, 70
1, 28007, Note_on_c, 0, 78, 0
1, 28008, Note_on_c, 0, 75, 70
1, 28031, Note_on_c, 0, 75, 0
1, 28032, Note_on_c, 1, 55, 80
1, 28032, Note_on_c, 1, 43, 80
1, 28056, Note_on_c, 0, 70, 70
1, 28079, Note_on_c, 0, 70, 0
1, 28080, Note_on_c, 0, 74, 70
1, 28103, Note_on_c, 0, 74, 0
1, 28104, Note_on_c, 0, 70, 70
1, 28121, Note_on_c, 1, 55, 0
1, 28121, Note_on_c, 1, 43, 0
1, 28127, Note_on_c, 0, 70, 0
1, 28128, Note_on_c, 1, 57, 80
1, 28128, Note_on_c, 1, 45, 80
1, 28152, Note_on_c, 0, 70, 70
1, 28175, Note_on_c, 0, 70, 0
1, 28176, Note_on_c, 0, 74, 70
1, 28199, Note_on_c, 0, 74, 0
1, 28200, Note_on_c, 0, 70, 70
1, 28217, Note_on_c, 1, 57, 0
1, 28217, Note_on_c, 1, 45, 0
1, 28223, Note_on_c, 0, 70, 0
1, 28224, Note_on_c, 1, 55, 80
1, 28224, Note_on_c, 1, 43, 80
1, 28248, Note_on_c, 0, 70, 70
1, 28271, Note_on_c, 0, 70, 0
1, 28272, Note_on_c, 0, 74, 70
1, 28295, Note_on_c, 0, 74, 0
1, 28296, Note_on_c, 0, 70, 70
1, 28313, Note_on_c, 1, 55, 0
1, 28313, Note_on_c, 1, 43, 0
1, 28319, Note_on_c, 0, 70, 0
1, 28320, Note_on_c, 1, 53, 80
1, 28320, Note_on_c, 1, 41, 80
1, 28344, Note_on_c, 0, 70, 70
1, 28367, Note_on_c, 0, 70, 0
1, 28368, Note_on_c, 0, 74, 70
1, 28391, Note_on_c, 0, 74, 0
1, 28392, Note_on_c, 0, 70, 70
1, 28409, Note_on_c, 1, 53, 0
1, 28409, Note_on_c, 1, 41, 0
1, 28415, Note_on_c, 0, 70, 0
1, 28416, Note_on_c, 0, 70, 70
1, 28416, Note_on_c, 1, 52, 80
1, 28416, Note_on_c, 1, 40, 80
1, 28436, Note_on_c, 0, 70, 0
1, 28455, Note_on_c, 1, 52, 0
1, 28455, Note_on_c, 1, 40, 0
1, 28464, Note_on_c, 0, 79, 70
1, 28484, Note_on_c, 0, 79, 0
1, 28512, Note_on_c, 0, 76, 70
1, 28512, Note_on_c, 1, 58, 96
1, 28512, Note_on_c, 1, 46, 96
1, 28532, Note_on_c, 0, 76, 0
1, 28560, Note_on_c, 0, 79, 70
1, 28580, Note_on_c, 0, 79, 0
1, 28608, Note_on_c, 0, 70, 70
1, 28653, Note_on_c, 0, 70, 0
1, 28656, Note_on_c, 0, 86, 70
1, 28656, Note_on_c, 0, 82, 70
1, 28701, Note_on_c, 0, 86, 0
1, 28701, Note_on_c, 0, 82, 0
1, 28704, Note_on_c, 0, 84, 70
1, 28704, Note_on_c, 0, 81, 70
1, 28704, Note_on_c, 1, 58, 0
1, 28704, Note_on_c, 1, 46, 0
1, 28704, Note_on_c, 1, 57, 80
1, 28749, Note_on_c, 0, 84, 0
1, 28749, Note_on_c, 0, 81, 0
1, 28749, Note_on_c, 1, 57, 0
1, 28752, Note_on_c, 0, 82, 70
1, 28752, Note_on_c, 0, 79, 70
1, 28752, Note_on_c, 1, 55, 80
1, 28797, Note_on_c, 0, 82, 0
1, 28797, Note_on_c, 0, 79, 0
1, 28797, Note_on_c, 1, 55, 0
1, 28800, Note_on_c, 0, 81, 70
1, 28800, Note_on_c, 0, 77, 70
1, 28800, Note_on_c, 1, 53, 80
1, 28845, Note_on_c, 0, 81, 0
1, 28845, Note_on_c, 0, 77, 0
1, 28848, Note_on_c, 0, 74, 70
1, 28848, Note_on_c, 0, 70, 70
1, 28889, Note_on_c, 1, 53, 0
1, 28893, Note_on_c, 0, 74, 0
1, 28893, Note_on_c, 0, 70, 0
1, 28896, Note_on_c, 0, 72, 70
1, 28896, Note_on_c, 0, 69, 70
1, 28941, Note_on_c, 0, 72, 0
1, 28941, Note_on_c, 0, 69, 0
1, 28944, Note_on_c, 0, 70, 70
1, 28944, Note_on_c, 0, 67, 70
1, 28989, Note_on_c, 0, 70, 0
1, 28989, Note_on_c, 0, 67, 0
1, 28992, Note_on_c, 0, 69, 70
1, 28992, Note_on_c, 0, 65, 70
1, 29037, Note_on_c, 0, 69, 0
1, 29037, Note_on_c, 0, 65, 0
1, 29040, Note_on_c, 0, 79, 70
1, 29040, Note_on_c, 0, 67, 70
1, 29040, Note_on_c, 1, 63, 80
1, 29040, Note_on_c, 1, 51, 80
1, 29085, Note_on_c, 0, 79, 0
1, 29085, Note_on_c, 0, 67, 0
1, 29085, Note_on_c, 1, 63, 0
1, 29085, Note_on_c, 1, 51, 0
1, 29088, Note_on_c, 0, 77, 70
1, 29088, Note_on_c, 0, 65, 70
1, 29088, Note_on_c, 1, 62, 80
1, 29088, Note_on_c, 1, 50, 80
1, 29133, Note_on_c, 0, 77, 0
1, 29133, Note_on_c, 0, 65, 0
1, 29133, Note_on_c, 1, 62, 0
1, 29133, Note_on_c, 1, 50, 0
1, 29136, Note_on_c, 0, 75, 70
1, 29136, Note_on_c, 0, 63, 70
1, 29136, Note_on_c, 1, 60, 80
1, 29136, Note_on_c, 1, 48, 80
1, 29181, Note_on_c, 0, 75, 0
1, 29181, Note_on_c, 0, 63, 0
1, 29181, Note_on_c, 1, 60, 0
1, 29181, Note_on_c, 1, 48, 0
1, 29184, Note_on_c, 0, 74, 70
1, 29184, Note_on_c, 0, 62, 70
1, 29184, Note_on_c, 1, 58, 80
1, 29184, Note_on_c, 1, 46, 80
1, 29229, Note_on_c, 0, 74, 0
1, 29229, Note_on_c, 0, 62, 0
1, 29229, Note_on_c, 1, 58, 0
1, 29229, Note_on_c, 1, 46, 0
1, 29232, Note_on_c, 0, 75, 70
1, 29232, Note_on_c, 0, 63, 70
1, 29232, Note_on_c, 1, 57, 80
1, 29232, Note_on_c, 1, 45, 80
1, 29277, Note_on_c, 0, 75, 0
1, 29277, Note_on_c, 0, 63, 0
1, 29277, Note_on_c, 1, 57, 0
1, 29277, Note_on_c, 1, 45, 0
1, 29280, Note_on_c, 0, 77, 70
1, 29280, Note_on_c, 0, 65, 70
1, 29280, Note_on_c, 1, 55, 80
1, 29280, Note_on_c, 1, 43, 80
1, 29325, Note_on_c, 0, 77, 0
1, 29325, Note_on_c, 0, 65, 0
1, 29325, Note_on_c, 1, 55, 0
1, 29325, Note_on_c, 1, 43, 0
1, 29328, Note_on_c, 0, 79, 70
1, 29328, Note_on_c, 0, 67, 70
1, 29328, Note_on_c, 1, 53, 80
1, 29328, Note_on_c, 1, 41, 80
1, 29373, Note_on_c, 0, 79, 0
1, 29373, Note_on_c, 0, 67, 0
1, 29373, Note_on_c, 1, 53, 0
1, 29373, Note_on_c, 1, 41, 0
1, 29376, Note_on_c, 0, 81, 70
1, 29376, Note_on_c, 0, 69, 70
1, 29376, Note_on_c, 1, 51, 80
1, 29376, Note_on_c, 1, 39, 80
1, 29421, Note_on_c, 0, 81, 0
1, 29421, Note_on_c, 0, 69, 0
1, 29421, Note_on_c, 1, 51, 0
1, 29421, Note_on_c, 1, 39, 0
1, 29424, Note_on_c, 0, 82, 70
1, 29424, Note_on_c, 0, 70, 70
1, 29424, Note_on_c, 1, 50, 80
1, 29424, Note_on_c, 1, 38, 80
1, 29469, Note_on_c, 0, 82, 0
1, 29469, Note_on_c, 0, 70, 0
1, 29469, Note_on_c, 1, 50, 0
1, 29469, Note_on_c, 1, 38, 0
1, 29472, Note_on_c, 0, 84, 70
1, 29472, Note_on_c, 0, 72, 70
1, 29472, Note_on_c, 1, 48, 80
1, 29472, Note_on_c, 1, 36, 80
1, 29517, Note_on_c, 0, 84, 0
1, 29517, Note_on_c, 0, 72, 0
1, 29517, Note_on_c, 1, 48, 0
1, 29517, Note_on_c, 1, 36, 0
1, 29520, Note_on_c, 0, 86, 70
1, 29520, Note_on_c, 0, 74, 70
1, 29520, Note_on_c, 1, 46, 80
1, 29520, Note_on_c, 1, 34, 80
1, 29565, Note_on_c, 0, 86, 0
1, 29565, Note_on_c, 0, 74, 0
1, 29565, Note_on_c, 1, 46, 0
1, 29565, Note_on_c, 1, 34, 0
1, 29568, Note_on_c, 0, 87, 86
1, 29568, Note_on_c, 0, 75, 86
1, 29568, Note_on_c, 1, 45, 80
1, 29568, Note_on_c, 1, 33, 80
1, 29592, Note_on_c, 0, 87, 0
1, 29592, Note_on_c, 0, 75, 0
1, 29592, Note_on_c, 0, 77, 70
1, 29615, Note_on_c, 0, 77, 0
1, 29616, Note_on_c, 0, 81, 70
1, 29639, Note_on_c, 0, 81, 0
1, 29640, Note_on_c, 0, 84, 70
1, 29663, Note_on_c, 0, 84, 0
1, 29664, Note_on_c, 0, 87, 86
1, 29688, Note_on_c, 0, 87, 0
1, 29688, Note_on_c, 0, 77, 70
1, 29711, Note_on_c, 0, 77, 0
1, 29712, Note_on_c, 0, 81, 70
1, 29735, Note_on_c, 0, 81, 0
1, 29736, Note_on_c, 0, 84, 70
1, 29745, Note_on_c, 1, 45, 0
1, 29745, Note_on_c, 1, 33, 0
1, 29759, Note_on_c, 0, 84, 0
1, 29760, Note_on_c, 0, 87, 86
1, 29784, Note_on_c, 0, 87, 0
1, 29784, Note_on_c, 0, 86, 70
1, 29807, Note_on_c, 0, 86, 0
1, 29808, Note_on_c, 0, 84, 70
1, 29831, Note_on_c, 0, 84, 0
1, 29832, Note_on_c, 0, 82, 70
1, 29855, Note_on_c, 0, 82, 0
1, 29856, Note_on_c, 0, 81, 70
1, 29879, Note_on_c, 0, 81, 0
1, 29880, Note_on_c, 0, 79, 70
1, 29903, Note_on_c, 0, 79, 0
1, 29904, Note_on_c, 0, 77, 70
1, 29927, Note_on_c, 0, 77, 0
1, 29928, Note_on_c, 0, 76, 70
1, 29951, Note_on_c, 0, 76, 0
1, 29952, Tempo, 600000
1, 29952, Note_on_c, 0, 75, 70
1, 30041, Note_on_c, 0, 75, 0
1, 30144, Tempo, 413793
1, 30144, Note_on_c, 0, 65, 75
1, 30156, Note_on_c, 0, 65, 0
1, 30156, Note_on_c, 0, 77, 75
1, 30183, Note_on_c, 0, 77, 0
1, 30240, Note_on_c, 0, 62, 75
1, 30252, Note_on_c, 0, 62, 0
1, 30252, Note_on_c, 0, 74, 75
1, 30279, Note_on_c, 0, 74, 0
1, 30336, Note_on_c, 0, 58, 75
1, 30336, Note_on_c, 1, 46, 80
1, 30348, Note_on_c, 0, 58, 0
1, 30348, Note_on_c, 0, 70, 75
1, 30381, Note_on_c, 1, 46, 0
1, 30384, Note_on_c, 1, 53, 80
1, 30425, Note_on_c, 0, 70, 0
1, 30429, Note_on_c, 1, 53, 0
1, 30432, Note_on_c, 1, 50, 80
1, 30477, Note_on_c, 1, 50, 0
1, 30480, Note_on_c, 0, 70, 76
1, 30480, Note_on_c, 1, 53, 80
1, 30525, Note_on_c, 0, 70, 0
1, 30525, Note_on_c, 1, 53, 0
1, 30528, Note_on_c, 0, 72, 77
1, 30528, Note_on_c, 1, 45, 80
1, 30573, Note_on_c, 1, 45, 0
1, 30576, Note_on_c, 1, 53, 80
1, 30617, Note_on_c, 0, 72, 0
1, 30621, Note_on_c, 1, 53, 0
1, 30624, Note_on_c, 1, 51, 80
1, 30669, Note_on_c, 1, 51, 0
1, 30672, Note_on_c, 0, 72, 78
1, 30672, Note_on_c, 1, 53, 80
1, 30717, Note_on_c, 0, 72, 0
1, 30717, Note_on_c, 1, 53, 0
1, 30720, Note_on_c, 0, 74, 79
1, 30720, Note_on_c, 1, 46, 80
1, 30765, Note_on_c, 0, 74, 0
1, 30765, Note_on_c, 1, 46, 0
1, 30768, Note_on_c, 0, 77, 96
1, 30768, Note_on_c, 1, 53, 80
1, 30813, Note_on_c, 1, 53, 0
1, 30816, Note_on_c, 1, 50, 80
1, 30861, Note_on_c, 1, 50, 0
1, 30864, Note_on_c, 0, 77, 0
1, 30864, Note_on_c, 0, 75, 80
1, 30864, Note_on_c, 1, 53, 80
1, 30909, Note_on_c, 0, 75, 0
1, 30909, Note_on_c, 1, 53, 0
1, 30912, Note_on_c, 0, 74, 79
1, 30912, Note_on_c, 0, 70, 79
1, 30912, Note_on_c, 1, 41, 80
1, 30957, Note_on_c, 1, 41, 0
1, 30960, Note_on_c, 1, 53, 80
1, 31005, Note_on_c, 1, 53, 0
1, 31008, Note_on_c, 0, 74, 0
1, 31008, Note_on_c, 0, 70, 0
1, 31008, Note_on_c, 0, 72, 77
1, 31008, Note_on_c, 0, 69, 77
1, 31008, Note_on_c, 1, 39, 80
1, 31053, Note_on_c, 1, 39, 0
1, 31056, Note_on_c, 1, 51, 80
1, 31097, Note_on_c, 0, 72, 0
1, 31097, Note_on_c, 0, 69, 0
1, 31101, Note_on_c, 1, 51, 0
1, 31104, Note_on_c, 0, 70, 75
1, 31104, Note_on_c, 1, 38, 80
1, 31149, Note_on_c, 0, 70, 0
1, 31152, Note_on_c, 0, 65, 75
1, 31193, Note_on_c, 1, 38, 0
1, 31200, Note_on_c, 0, 65, 0
1, 31200, Note_on_c, 0, 62, 76
1, 31245, Note_on_c, 0, 62, 0
1, 31248, Note_on_c, 0, 71, 76
1, 31296, Note_on_c, 0, 71, 0
1, 31296, Note_on_c, 0, 72, 77
1, 31296, Note_on_c, 1, 57, 70
1, 31296, Note_on_c, 1, 53, 70
1, 31296, Note_on_c, 1, 48, 70
1, 31341, Note_on_c, 0, 72, 0
1, 31344, Note_on_c, 0, 69, 78
1, 31385, Note_on_c, 1, 57, 0
1, 31385, Note_on_c, 1, 53, 0
1, 31385, Note_on_c, 1, 48, 0
1, 31392, Note_on_c, 0, 69, 0
1, 31392, Note_on_c, 0, 65, 78
1, 31437, Note_on_c, 0, 65, 0
1, 31440, Note_on_c, 0, 73, 79
1, 31488, Note_on_c, 0, 73, 0
1, 31488, Note_on_c, 0, 74, 80
1, 31488, Note_on_c, 1, 58, 75
1, 31511, Note_on_c, 0, 74, 0
1, 31512, Note_on_c, 0, 78, 80
1, 31535, Note_on_c, 0, 78, 0
1, 31536, Note_on_c, 0, 79, 80
1, 31559, Note_on_c, 0, 79, 0
1, 31560, Note_on_c, 0, 82, 80
1, 31577, Note_on_c, 1, 58, 0
1, 31583, Note_on_c, 0, 82, 0
1, 31584, Note_on_c, 0, 81, 80
1, 31584, Note_on_c, 1, 60, 75
1, 31607, Note_on_c, 0, 81, 0
1, 31608, Note_on_c, 0, 79, 80
1, 31631, Note_on_c, 0, 79, 0
1, 31632, Note_on_c, 0, 77, 80
1, 31655, Note_on_c, 0, 77, 0
1, 31656, Note_on_c, 0, 76, 80
1, 31673, Note_on_c, 1, 60, 0
1, 31679, Note_on_c, 0, 76, 0
1, 31680, Note_on_c, 0, 79, 79
1, 31680, Note_on_c, 1, 41, 75
1, 31725, Note_on_c, 1, 41, 0
1, 31728, Note_on_c, 1, 45, 75
1, 31773, Note_on_c, 1, 45, 0
1, 31776, Note_on_c, 0, 79, 0
1, 31776, Note_on_c, 0, 77, 77
1, 31776, Note_on_c, 1, 48, 75
1, 31821, Note_on_c, 1, 48, 0
1, 31824, Note_on_c, 1, 53, 75
1, 31865, Note_on_c, 0, 77, 0
1, 31869, Note_on_c, 1, 53, 0
1, 31872, Note_on_c, 0, 72, 75
1, 31872, Note_on_c, 1, 63, 70
1, 31911, Note_on_c, 0, 72, 0
1, 31917, Note_on_c, 1, 63, 0
1, 31920, Note_on_c, 1, 67, 70
1, 31965, Note_on_c, 1, 67, 0
1, 31968, Note_on_c, 0, 72, 76
1, 31968, Note_on_c, 1, 63, 70
1, 32013, Note_on_c, 1, 63, 0
1, 32016, Note_on_c, 1, 60, 70
1, 32061, Note_on_c, 1, 60, 0
1, 32064, Note_on_c, 0, 72, 0
1, 32064, Note_on_c, 0, 74, 77
1, 32064, Note_on_c, 1, 59, 71
1, 32103, Note_on_c, 0, 74, 0
1, 32109, Note_on_c, 1, 59, 0
1, 32112, Note_on_c, 1, 62, 71
1, 32157, Note_on_c, 1, 62, 0
1, 32160, Note_on_c, 0, 74, 78
1, 32160, Note_on_c, 0, 71, 78
1, 32160, Note_on_c, 1, 59, 72
1, 32205, Note_on_c, 1, 59, 0
1, 32208, Note_on_c, 1, 55, 72
1, 32253, Note_on_c, 1, 55, 0
1, 32256, Note_on_c, 0, 74, 0
1, 32256, Note_on_c, 0, 71, 0
1, 32256, Note_on_c, 0, 75, 79
1, 32256, Note_on_c, 0, 72, 79
1, 32256, Note_on_c, 1, 60, 73
1, 32323, Note_on_c, 0, 75, 0
1, 32323, Note_on_c, 0, 72, 0
1, 32328, Note_on_c, 0, 77, 79
1, 32328, Note_on_c, 0, 74, 79
1, 32351, Note_on_c, 0, 77, 0
1, 32351, Note_on_c, 0, 74, 0
1, 32352, Note_on_c, 0, 79, 80
1, 32352, Note_on_c, 0, 75, 80
1, 32389, Note_on_c, 1, 60, 0
1, 32485, Note_on_c, 0, 79, 0
1, 32485, Note_on_c, 0, 75, 0
1, 32496, Note_on_c, 0, 59, 80
1, 32541, Note_on_c, 0, 59, 0
1, 32544, Tempo, 857142
1, 32544, Note_on_c, 0, 60, 80
1, 32559, Note_on_c, 0, 60, 0
1, 32560, Note_on_c, 0, 63, 80
1, 32575, Note_on_c, 0, 63, 0
1, 32576, Note_on_c, 0, 62, 79
1, 32591, Note_on_c, 0, 62, 0
1, 32592, Note_on_c, 0, 60, 79
1, 32607, Note_on_c, 0, 60, 0
1, 32608, Note_on_c, 0, 58, 79
1, 32623, Note_on_c, 0, 58, 0
1, 32624, Note_on_c, 0, 57, 79
1, 32639, Note_on_c, 0, 57, 0
1, 32640, Tempo, 413793
1, 32640, Note_on_c, 0, 60, 79
1, 32640, Note_on_c, 0, 57, 79
1, 32688, Note_on_c, 1, 53, 70
1, 32733, Note_on_c, 1, 53, 0
1, 32736, Note_on_c, 1, 51, 70
1, 32781, Note_on_c, 1, 51, 0
1, 32784, Note_on_c, 1, 53, 70
1, 32829, Note_on_c, 1, 53, 0
1, 32832, Note_on_c, 0, 60, 0
1, 32832, Note_on_c, 0, 57, 0
1, 32832, Note_on_c, 0, 58, 76
1, 32832, Note_on_c, 1, 46, 70
1, 32877, Note_on_c, 1, 46, 0
1, 32880, Note_on_c, 1, 53, 70
1, 32921, Note_on_c, 0, 58, 0
1, 32925, Note_on_c, 1, 53, 0
1, 32928, Note_on_c, 1, 50, 70
1, 32973, Note_on_c, 1, 50, 0
1, 32976, Note_on_c, 1, 53, 70
1, 33021, Note_on_c, 1, 53, 0
1, 33024, Note_on_c, 0, 68, 91
1, 33024, Note_on_c, 0, 65, 91
1, 33024, Note_on_c, 0, 62, 91
1, 33024, Note_on_c, 1, 46, 70
1, 33069, Note_on_c, 1, 46, 0
1, 33072, Note_on_c, 1, 53, 70
1, 33117, Note_on_c, 1, 53, 0
1, 33120, Note_on_c, 1, 50, 70
1, 33165, Note_on_c, 1, 50, 0
1, 33168, Note_on_c, 1, 53, 70
1, 33213, Note_on_c, 1, 53, 0
1, 33216, Note_on_c, 0, 68, 0
1, 33216, Note_on_c, 0, 65, 0
1, 33216, Note_on_c, 0, 62, 0
1, 33216, Note_on_c, 0, 67, 75
1, 33216, Note_on_c, 0, 63, 75
1, 33216, Note_on_c, 1, 46, 70
1, 33255, Note_on_c, 0, 67, 0
1, 33255, Note_on_c, 0, 63, 0
1, 33261, Note_on_c, 1, 46, 0
1, 33264, Note_on_c, 1, 55, 70
1, 33309, Note_on_c, 1, 55, 0
1, 33312, Note_on_c, 1, 51, 70
1, 33357, Note_on_c, 1, 51, 0
1, 33360, Note_on_c, 1, 55, 70
1, 33405, Note_on_c, 1, 55, 0
1, 33408, Note_on_c, 0, 69, 91
1, 33408, Note_on_c, 0, 63, 91
1, 33408, Note_on_c, 0, 60, 91
1, 33408, Note_on_c, 1, 46, 70
1, 33453, Note_on_c, 1, 46, 0
1, 33456, Note_on_c, 1, 51, 70
1, 33501, Note_on_c, 1, 51, 0
1, 33504, Note_on_c, 1, 48, 70
1, 33549, Note_on_c, 1, 48, 0
1, 33552, Note_on_c, 1, 51, 70
1, 33597, Note_on_c, 1, 51, 0
1, 33600, Note_on_c, 0, 69, 0
1, 33600, Note_on_c, 0, 63, 0
1, 33600, Note_on_c, 0, 60, 0
1, 33600, Note_on_c, 0, 70, 75
1, 33600, Note_on_c, 0, 62, 75
1, 33600, Note_on_c, 0, 58, 75
1, 33600, Note_on_c, 1, 46, 70
1, 33639, Note_on_c, 0, 70, 0
1, 33639, Note_on_c, 0, 62, 0
1, 33639, Note_on_c, 0, 58, 0
1, 33645, Note_on_c, 1, 46, 0
1, 33648, Note_on_c, 1, 53, 68
1, 33693, Note_on_c, 1, 53, 0
1, 33696, Note_on_c, 1, 50, 67
1, 33741, Note_on_c, 1, 50, 0
1, 33744, Note_on_c, 1, 53, 65
1, 33789, Note_on_c, 1, 53, 0
1, 33792, Note_on_c, 0, 80, 75
1, 33792, Note_on_c, 1, 58, 64
1, 33812, Note_on_c, 0, 80, 0
1, 33837, Note_on_c, 1, 58, 0
1, 33840, Note_on_c, 0, 80, 91
1, 33840, Note_on_c, 1, 65, 64
1, 33885, Note_on_c, 1, 65, 0
1, 33888, Note_on_c, 1, 62, 64
1, 33933, Note_on_c, 1, 62, 0
1, 33936, Note_on_c, 0, 80, 0
1, 33936, Note_on_c, 0, 84, 75
1, 33936, Note_on_c, 1, 65, 64
1, 33951, Note_on_c, 0, 84, 0
1, 33952, Note_on_c, 0, 82, 75
1, 33967, Note_on_c, 0, 82, 0
1, 33968, Note_on_c, 0, 80, 75
1, 33981, Note_on_c, 1, 65, 0
1, 33983, Note_on_c, 0, 80, 0
1, 33984, Note_on_c, 0, 79, 75
1, 33984, Note_on_c, 1, 58, 64
1, 34029, Note_on_c, 1, 58, 0
1, 34032, Note_on_c, 1, 67, 64
1, 34073, Note_on_c, 0, 79, 0
1, 34077, Note_on_c, 1, 67, 0
1, 34080, Note_on_c, 1, 63, 64
1, 34125, Note_on_c, 1, 63, 0
1, 34128, Note_on_c, 1, 67, 64
1, 34173, Note_on_c, 1, 67, 0
1, 34176, Note_on_c, 0, 81, 75
1, 34176, Note_on_c, 1, 58, 64
1, 34196, Note_on_c, 0, 81, 0
1, 34221, Note_on_c, 1, 58, 0
1, 34224, Note_on_c, 0, 87, 91
1, 34224, Note_on_c, 1, 63, 64
1, 34269, Note_on_c, 1, 63, 0
1, 34272, Note_on_c, 1, 60, 64
1, 34317, Note_on_c, 1, 60, 0
1, 34320, Note_on_c, 0, 87, 0
1, 34320, Note_on_c, 0, 81, 75
1, 34320, Note_on_c, 1, 63, 64
1, 34365, Note_on_c, 0, 81, 0
1, 34365, Note_on_c, 1, 63, 0
1, 34368, Note_on_c, 0, 84, 75
1, 34368, Note_on_c, 1, 58, 64
1, 34413, Note_on_c, 1, 58, 0
1, 34416, Note_on_c, 1, 65, 64
1, 34461, Note_on_c, 1, 65, 0
1, 34464, Note_on_c, 0, 84, 0
1, 34464, Note_on_c, 0, 82, 75
1, 34464, Note_on_c, 1, 62, 64
1, 34509, Note_on_c, 1, 62, 0
1, 34512, Note_on_c, 1, 65, 64
1, 34553, Note_on_c, 0, 82, 0
1, 34557, Note_on_c, 1, 65, 0
1, 34560, Note_on_c, 1, 58, 64
1, 34605, Note_on_c, 1, 58, 0
1, 34608, Tempo, 444444
1, 34608, Note_on_c, 0, 78, 70
1, 34608, Note_on_c, 1, 66, 64
1, 34653, Note_on_c, 1, 66, 0
1, 34656, Note_on_c, 1, 63, 64
1, 34697, Note_on_c, 0, 78, 0
1, 34701, Note_on_c, 1, 63, 0
1, 34704, Note_on_c, 0, 78, 70
1, 34704, Note_on_c, 1, 66, 64
1, 34749, Note_on_c, 0, 78, 0
1, 34749, Note_on_c, 1, 66, 0
1, 34752, Tempo, 461538
1, 34752, Note_on_c, 0, 77, 70
1, 34752, Note_on_c, 1, 58, 64
1, 34797, Note_on_c, 1, 58, 0
1, 34800, Note_on_c, 1, 65, 64
1, 34841, Note_on_c, 0, 77, 0
1, 34845, Note_on_c, 1, 65, 0
1, 34848, Note_on_c, 1, 62, 64
1, 34893, Note_on_c, 1, 62, 0
1, 34896, Note_on_c, 1, 58, 64
1, 34941, Note_on_c, 1, 58, 0
1, 34944, Tempo, 480000
1, 34944, Note_on_c, 1, 46, 64
1, 34989, Note_on_c, 1, 46, 0
1, 34992, Note_on_c, 0, 69, 70
1, 34992, Note_on_c, 0, 63, 70
1, 34992, Note_on_c, 1, 54, 64
1, 35037, Note_on_c, 1, 54, 0
1, 35040, Note_on_c, 1, 51, 64
1, 35081, Note_on_c, 0, 69, 0
1, 35081, Note_on_c, 0, 63, 0
1, 35085, Note_on_c, 1, 51, 0
1, 35088, Note_on_c, 0, 69, 70
1, 35088, Note_on_c, 0, 63, 70
1, 35088, Note_on_c, 1, 54, 64
1, 35133, Note_on_c, 0, 69, 0
1, 35133, Note_on_c, 0, 63, 0
1, 35133, Note_on_c, 1, 54, 0
1, 35136, Tempo, 500000
1, 35136, Note_on_c, 0, 70, 70
1, 35136, Note_on_c, 0, 62, 70
1, 35136, Note_on_c, 1, 46, 64
1, 35181, Note_on_c, 1, 46, 0
1, 35184, Note_on_c, 1, 53, 64
1, 35225, Note_on_c, 0, 70, 0
1, 35225, Note_on_c, 0, 62, 0
1, 35229, Note_on_c, 1, 53, 0
1, 35232, Note_on_c, 1, 50, 64
1, 35277, Note_on_c, 1, 50, 0
1, 35280, Note_on_c, 1, 46, 64
1, 35325, Note_on_c, 1, 46, 0
1, 35328, Tempo, 521739
1, 35328, Note_on_c, 1, 41, 64
1, 35373, Note_on_c, 1, 41, 0
1, 35376, Note_on_c, 0, 65, 70
1, 35376, Note_on_c, 0, 60, 70
1, 35376, Note_on_c, 0, 57, 70
1, 35376, Note_on_c, 1, 51, 64
1, 35421, Note_on_c, 1, 51, 0
1, 35424, Note_on_c, 1, 48, 64
1, 35465, Note_on_c, 0, 65, 0
1, 35465, Note_on_c, 0, 60, 0
1, 35465, Note_on_c, 0, 57, 0
1, 35469, Note_on_c, 1, 48, 0
1, 35472, Note_on_c, 0, 65, 70
1, 35472, Note_on_c, 0, 60, 70
1, 35472, Note_on_c, 0, 57, 70
1, 35472, Note_on_c, 1, 45, 64
1, 35517, Note_on_c, 0, 65, 0
1, 35517, Note_on_c, 0, 60, 0
1, 35517, Note_on_c, 0, 57, 0
1, 35517, Note_on_c, 1, 45, 0
1, 35520, Note_on_c, 0, 58, 70
1, 35520, Note_on_c, 1, 53, 64
1, 35520, Note_on_c, 1, 50, 64
1, 35520, Note_on_c, 1, 46, 64
1, 35609, Note_on_c, 0, 58, 0
1, 35609, Note_on_c, 1, 53, 0
1, 35609, Note_on_c, 1, 50, 0
1, 35609, Note_on_c, 1, 46, 0
1, 35712, Tempo, 545454
1, 35712, Note_on_c, 0, 58, 70
1, 35712, Note_on_c, 1, 53, 64
1, 35712, Note_on_c, 1, 50, 64
1, 35712, Note_on_c, 1, 46, 64
1, 35801, Note_on_c, 0, 58, 0
1, 35801, Note_on_c, 1, 53, 0
1, 35801, Note_on_c, 1, 50, 0
1, 35801, Note_on_c, 1, 46, 0
1, 35904, Note_on_c, 0, 58, 70
1, 35904, Note_on_c, 1, 53, 64
1, 35904, Note_on_c, 1, 50, 64
1, 35904, Note_on_c, 1, 46, 64
1, 35993, Note_on_c, 0, 58, 0
1, 35993, Note_on_c, 1, 53, 0
1, 35993, Note_on_c, 1, 50, 0
1, 35993, Note_on_c, 1, 46, 0
1, 36096, Tempo, 600000
1, 36096, Note_on_c, 0, 58, 70
1, 36096, Note_on_c, 1, 53, 64
1, 36096, Note_on_c, 1, 50, 64
1, 36096, Note_on_c, 1, 46, 64
1, 36273, Note_on_c, 0, 58, 0
1, 36273, Note_on_c, 1, 53, 0
1, 36273, Note_on_c, 1, 50, 0
1, 36273, Note_on_c, 1, 46, 0
1, 36480, Note_on_c, 1, 46, 0
1, 36657, Note_on_c, 1, 46, 0
1, 36667, End_track
0, 0, End_of_file